0,0, Header,1,2,200
1,0, Start_track
1,0, Tempo,500000
1,0, End_track
2,0, Start_track
2,0, Program_c,0,80
2,0, Note_on_c,0,82,100
2,20, Note_on_c,0,37,100
2,20, Note_on_c,0,42,100
2,20, Note_on_c,0,78,100
2,20, Note_on_c,0,86,100
2,20, Note_off_c,0,82,0
2,60, Note_off_c,0,37,0
2,120, Note_on_c,0,84,100
2,120, Note_off_c,0,86,0
2,280, Note_on_c,0,83,100
2,280, Note_off_c,0,78,0
2,320, Note_on_c,0,81,100
2,320, Note_off_c,0,83,0
2,340, Note_on_c,0,76,100
2,340, Note_off_c,0,81,0
2,380, Note_on_c,0,45,100
2,380, Note_off_c,0,42,0
2,460, Note_on_c,0,85,100
2,460, Note_off_c,0,84,0
2,540, Note_on_c,0,57,100
2,540, Note_off_c,0,85,0
2,2940, Note_off_c,0,57,0
2,3040, Note_on_c,0,35,100
2,3040, Note_on_c,0,57,100
2,3040, Note_off_c,0,76,0
2,3060, Note_off_c,0,35,0
2,3220, Note_off_c,0,45,0
2,3220, Note_off_c,0,57,0
2,3240, Note_on_c,0,57,100
2,3300, Note_off_c,0,57,0
2,3360, Note_on_c,0,38,100
2,3360, Note_on_c,0,70,100
2,3380, Note_on_c,0,46,100
2,3380, Note_off_c,0,70,0
2,3400, Note_on_c,0,50,100
2,3400, Note_off_c,0,46,0
2,4000, Note_on_c,0,62,100
2,4000, Note_off_c,0,50,0
2,4060, Note_on_c,0,50,100
2,4060, Note_off_c,0,62,0
2,4120, Note_on_c,0,57,100
2,4120, Note_off_c,0,50,0
2,5380, Note_on_c,0,60,100
2,5440, Note_off_c,0,60,0
2,5620, Note_on_c,0,36,100
2,5620, Note_off_c,0,38,0
2,5640, Note_off_c,0,36,0
2,5640, Note_off_c,0,57,0
2,5660, Note_on_c,0,57,100
2,5660, Note_on_c,0,62,100
2,5900, Note_on_c,0,59,100
2,5900, Note_off_c,0,57,0
2,5960, Note_off_c,0,59,0
2,6060, Note_on_c,0,74,100
2,6060, Note_off_c,0,62,0
2,6080, Note_on_c,0,40,100
2,6140, Note_off_c,0,40,0
2,6160, Note_on_c,0,57,100
2,6180, Note_on_c,0,52,100
2,6180, Note_off_c,0,57,0
2,6280, Note_off_c,0,52,0
2,6280, Note_off_c,0,74,0
2,6300, Note_on_c,0,69,100
2,6340, Note_on_c,0,45,100
2,6380, Note_on_c,0,71,100
2,6380, Note_off_c,0,69,0
2,6680, Note_on_c,0,69,100
2,6680, Note_off_c,0,71,0
2,7140, Note_off_c,0,69,0
2,7180, Note_on_c,0,52,100
2,7180, Note_on_c,0,66,100
2,7180, Note_on_c,0,69,100
2,7180, Note_off_c,0,45,0
2,7280, Note_on_c,0,71,100
2,7280, Note_off_c,0,69,0
2,7300, Note_on_c,0,68,100
2,7300, Note_off_c,0,66,0
2,7340, Note_off_c,0,68,0
2,7360, Note_on_c,0,74,100
2,7360, Note_off_c,0,71,0
2,7480, Note_on_c,0,50,100
2,7480, Note_on_c,0,73,100
2,7480, Note_off_c,0,52,0
2,7480, Note_off_c,0,74,0
2,7580, Note_on_c,0,74,100
2,7640, Note_on_c,0,69,100
2,7640, Note_off_c,0,73,0
2,7720, Note_off_c,0,69,0
2,7740, Note_on_c,0,69,100
2,8040, Note_on_c,0,71,100
2,8040, Note_off_c,0,74,0
2,8060, Note_on_c,0,73,100
2,8060, Note_off_c,0,71,0
2,8180, Note_off_c,0,69,0
2,8320, Note_on_c,0,76,100
2,8540, Note_on_c,0,69,100
2,8780, Note_off_c,0,73,0
2,8900, Note_off_c,0,50,0
2,8920, Note_off_c,0,69,0
2,8940, Note_on_c,0,50,100
2,9100, Note_off_c,0,76,0
2,9120, Note_on_c,0,76,100
2,9220, Note_off_c,0,50,0
2,9240, Note_on_c,0,50,100
2,9240, Note_on_c,0,74,100
2,9280, Note_on_c,0,62,100
2,9320, Note_off_c,0,62,0
2,9340, Note_off_c,0,74,0
2,9360, Note_on_c,0,71,100
2,9520, Note_on_c,0,72,100
2,9520, Note_off_c,0,71,0
2,9540, Note_off_c,0,72,0
2,9600, Note_on_c,0,72,100
2,9620, Note_off_c,0,72,0
2,9620, Note_off_c,0,76,0
2,9640, Note_on_c,0,71,100
2,9640, Note_on_c,0,78,100
2,9740, Note_off_c,0,50,0
2,9740, Note_off_c,0,71,0
2,9740, Note_off_c,0,78,0
2,9760, Note_on_c,0,47,100
2,9760, Note_on_c,0,66,100
2,9760, Note_on_c,0,78,100
2,9920, Note_on_c,0,63,100
2,9920, Note_off_c,0,66,0
2,9980, Note_on_c,0,60,100
2,9980, Note_off_c,0,63,0
2,10020, Note_off_c,0,60,0
2,10020, Note_off_c,0,78,0
2,10040, Note_on_c,0,76,100
2,10040, Note_on_c,0,78,100
2,10060, Note_off_c,0,78,0
2,10140, Note_off_c,0,47,0
2,10160, Note_off_c,0,76,0
2,10180, Note_on_c,0,49,100
2,10180, Note_on_c,0,78,100
2,10620, Note_on_c,0,61,100
2,10760, Note_on_c,0,66,100
2,10760, Note_off_c,0,61,0
2,10820, Note_on_c,0,76,100
2,10820, Note_off_c,0,78,0
2,10860, Note_off_c,0,66,0
2,10880, Note_on_c,0,69,100
2,11060, Note_on_c,0,74,100
2,11060, Note_off_c,0,69,0
2,11060, Note_off_c,0,76,0
2,11240, Note_off_c,0,74,0
2,11260, Note_off_c,0,49,0
2,11280, Note_on_c,0,46,100
2,11280, Note_on_c,0,71,100
2,11360, Note_off_c,0,71,0
2,11480, Note_on_c,0,61,100
2,11480, Note_off_c,0,46,0
2,11500, Note_on_c,0,80,100
2,11500, Note_off_c,0,61,0
2,11520, Note_on_c,0,73,100
2,11520, Note_off_c,0,80,0
2,11540, Note_on_c,0,49,100
2,11540, Note_off_c,0,73,0
2,11640, Note_on_c,0,56,100
2,11640, Note_on_c,0,65,100
2,11660, Note_on_c,0,54,100
2,11660, Note_off_c,0,56,0
2,11720, Note_on_c,0,63,100
2,11720, Note_off_c,0,65,0
2,11780, Note_off_c,0,54,0
2,12040, Note_off_c,0,49,0
2,12060, Note_on_c,0,62,100
2,12100, Note_on_c,0,70,100
2,12100, Note_off_c,0,63,0
2,12120, Note_on_c,0,53,100
2,12180, Note_on_c,0,33,100
2,12180, Note_off_c,0,53,0
2,12240, Note_on_c,0,45,100
2,12240, Note_off_c,0,33,0
2,12280, Note_off_c,0,62,0
2,12280, Note_off_c,0,70,0
2,12300, Note_on_c,0,47,100
2,12300, Note_on_c,0,69,100
2,12300, Note_off_c,0,45,0
2,12340, Note_on_c,0,64,100
2,12400, Note_on_c,0,77,100
2,12400, Note_off_c,0,69,0
2,12460, Note_on_c,0,73,100
2,12460, Note_off_c,0,77,0
2,12480, Note_on_c,0,60,100
2,12480, Note_off_c,0,47,0
2,12500, Note_on_c,0,59,100
2,12500, Note_off_c,0,60,0
2,12540, Note_off_c,0,64,0
2,12580, Note_on_c,0,76,100
2,12580, Note_off_c,0,73,0
2,12600, Note_on_c,0,62,100
2,12740, Note_on_c,0,74,100
2,12740, Note_off_c,0,76,0
2,12920, Note_off_c,0,59,0
2,12940, Note_off_c,0,62,0
2,12980, Note_on_c,0,72,100
2,13220, Note_on_c,0,60,100
2,13220, Note_off_c,0,74,0
2,13240, Note_on_c,0,65,100
2,13240, Note_off_c,0,72,0
2,13340, Note_on_c,0,67,100
2,13340, Note_off_c,0,65,0
2,13680, Note_on_c,0,47,100
2,13700, Note_off_c,0,67,0
2,13800, Note_on_c,0,64,100
2,13800, Note_off_c,0,60,0
2,13840, Note_on_c,0,61,100
2,13860, Note_on_c,0,60,100
2,13860, Note_off_c,0,61,0
2,13960, Note_off_c,0,47,0
2,13960, Note_off_c,0,64,0
2,13980, Note_on_c,0,74,100
2,14040, Note_on_c,0,68,100
2,14040, Note_on_c,0,79,100
2,14040, Note_off_c,0,74,0
2,14080, Note_on_c,0,67,100
2,14080, Note_off_c,0,68,0
2,14140, Note_off_c,0,67,0
2,14200, Note_on_c,0,69,100
2,14260, Note_on_c,0,67,100
2,14260, Note_off_c,0,69,0
2,14320, Note_off_c,0,67,0
2,14600, Note_off_c,0,60,0
2,14600, Note_off_c,0,79,0
2,14620, Note_on_c,0,60,100
2,14620, Note_on_c,0,79,100
2,14660, Note_on_c,0,72,100
2,14960, Note_off_c,0,72,0
2,14980, Note_on_c,0,67,100
2,15080, Note_on_c,0,72,100
2,15080, Note_off_c,0,67,0
2,15120, Note_on_c,0,67,100
2,15120, Note_off_c,0,72,0
2,15260, Note_off_c,0,67,0
2,15280, Note_on_c,0,78,100
2,15280, Note_off_c,0,79,0
2,15320, Note_on_c,0,57,100
2,15380, Note_on_c,0,79,100
2,15380, Note_off_c,0,57,0
2,15380, Note_off_c,0,78,0
2,15460, Note_on_c,0,76,100
2,15460, Note_off_c,0,79,0
2,15620, Note_on_c,0,72,100
2,16160, Note_on_c,0,64,100
2,16160, Note_off_c,0,60,0
2,16160, Note_off_c,0,72,0
2,16220, Note_off_c,0,76,0
2,16240, Note_on_c,0,76,100
2,16320, Note_on_c,0,65,100
2,16320, Note_off_c,0,64,0
2,16340, Note_on_c,0,57,100
2,16340, Note_on_c,0,60,100
2,16340, Note_off_c,0,65,0
2,16400, Note_on_c,0,64,100
2,16400, Note_on_c,0,72,100
2,16400, Note_off_c,0,57,0
2,16400, Note_off_c,0,76,0
2,16620, Note_off_c,0,60,0
2,16620, Note_off_c,0,64,0
2,16620, Note_off_c,0,72,0
2,16640, Note_on_c,0,60,100
2,16640, Note_on_c,0,64,100
2,16640, Note_on_c,0,72,100
2,16900, Note_on_c,0,62,100
2,16900, Note_off_c,0,60,0
2,16920, Note_on_c,0,60,100
2,16920, Note_off_c,0,72,0
2,16960, Note_off_c,0,62,0
2,17120, Note_on_c,0,67,100
2,17120, Note_off_c,0,64,0
2,17580, Note_on_c,0,72,100
2,17580, Note_off_c,0,67,0
2,18080, Note_on_c,0,59,100
2,18080, Note_off_c,0,60,0
2,18580, Note_on_c,0,76,100
2,18580, Note_off_c,0,72,0
2,18660, Note_on_c,0,72,100
2,18660, Note_off_c,0,76,0
2,18700, Note_on_c,0,76,100
2,18700, Note_off_c,0,72,0
2,18940, Note_on_c,0,55,100
2,18940, Note_off_c,0,59,0
2,19100, Note_off_c,0,76,0
2,19120, Note_on_c,0,69,100
2,19600, Note_on_c,0,67,100
2,19600, Note_off_c,0,69,0
2,19660, Note_on_c,0,77,100
2,19680, Note_on_c,0,69,100
2,19680, Note_off_c,0,67,0
2,19700, Note_on_c,0,78,100
2,19700, Note_off_c,0,77,0
2,19740, Note_on_c,0,74,100
2,19740, Note_off_c,0,78,0
2,19780, Note_on_c,0,67,100
2,19780, Note_off_c,0,69,0
2,20100, Note_on_c,0,76,100
2,20100, Note_off_c,0,74,0
2,20180, Note_on_c,0,48,100
2,20180, Note_off_c,0,55,0
2,20280, Note_on_c,0,69,100
2,20280, Note_on_c,0,79,100
2,20280, Note_off_c,0,67,0
2,20280, Note_off_c,0,76,0
2,20300, Note_on_c,0,76,100
2,20300, Note_off_c,0,48,0
2,20300, Note_off_c,0,79,0
2,20380, Note_on_c,0,60,100
2,20380, Note_on_c,0,72,100
2,20380, Note_off_c,0,69,0
2,20660, Note_off_c,0,72,0
2,20660, Note_off_c,0,76,0
2,20680, Note_on_c,0,64,100
2,20680, Note_on_c,0,72,100
2,20740, Note_off_c,0,60,0
2,20940, Note_on_c,0,71,100
2,20940, Note_off_c,0,72,0
2,21160, Note_on_c,0,76,100
2,21180, Note_off_c,0,71,0
2,21240, Note_off_c,0,76,0
2,21540, Note_on_c,0,72,100
2,21540, Note_off_c,0,64,0
2,21680, Note_on_c,0,76,100
2,21760, Note_off_c,0,72,0
2,21760, Note_off_c,0,76,0
2,21780, Note_on_c,0,64,100
2,22500, Note_on_c,0,53,100
2,22500, Note_on_c,0,71,100
2,22500, Note_on_c,0,81,100
2,22500, Note_off_c,0,64,0
2,22560, Note_on_c,0,69,100
2,22560, Note_on_c,0,76,100
2,22560, Note_off_c,0,53,0
2,22560, Note_off_c,0,71,0
2,22560, Note_off_c,0,81,0
2,22660, Note_on_c,0,47,100
2,22720, Note_off_c,0,69,0
2,22740, Note_on_c,0,45,100
2,22740, Note_off_c,0,47,0
2,22740, Note_off_c,0,76,0
2,22760, Note_on_c,0,47,100
2,22760, Note_on_c,0,73,100
2,22760, Note_off_c,0,45,0
2,22780, Note_off_c,0,73,0
2,22800, Note_on_c,0,64,100
2,22800, Note_on_c,0,74,100
2,22880, Note_off_c,0,47,0
2,22880, Note_off_c,0,64,0
2,22880, Note_off_c,0,74,0
2,22900, Note_on_c,0,71,100
2,22920, Note_on_c,0,74,100
2,22920, Note_off_c,0,71,0
2,22940, Note_on_c,0,47,100
2,22980, Note_on_c,0,76,100
2,22980, Note_off_c,0,74,0
2,23000, Note_off_c,0,76,0
2,23020, Note_on_c,0,52,100
2,23020, Note_off_c,0,47,0
2,23040, Note_off_c,0,52,0
2,23060, Note_on_c,0,48,100
2,23080, Note_off_c,0,48,0
2,23140, Note_on_c,0,79,100
2,23240, Note_on_c,0,48,100
2,23240, Note_off_c,0,79,0
2,23260, Note_on_c,0,71,100
2,23280, Note_off_c,0,48,0
2,23300, Note_off_c,0,71,0
2,23320, Note_on_c,0,72,100
2,23380, Note_on_c,0,76,100
2,23680, Note_off_c,0,76,0
2,24280, Note_on_c,0,48,100
2,24360, Note_off_c,0,48,0
2,24360, Note_off_c,0,72,0
2,24380, Note_on_c,0,48,100
2,24380, Note_on_c,0,71,100
2,24380, Note_on_c,0,76,100
2,24400, Note_off_c,0,71,0
2,24460, Note_off_c,0,76,0
2,24480, Note_on_c,0,69,100
2,24480, Note_on_c,0,76,100
2,24520, Note_off_c,0,69,0
2,24540, Note_off_c,0,48,0
2,24600, Note_on_c,0,69,100
2,24740, Note_off_c,0,69,0
2,24740, Note_off_c,0,76,0
2,24760, Note_on_c,0,50,100
2,24760, Note_on_c,0,76,100
2,24800, Note_off_c,0,50,0
2,24860, Note_off_c,0,76,0
2,24880, Note_on_c,0,72,100
2,25060, Note_off_c,0,72,0
2,25080, Note_on_c,0,48,100
2,25100, Note_off_c,0,48,0
2,25120, Note_on_c,0,48,100
2,25140, Note_on_c,0,76,100
2,25160, Note_off_c,0,48,0
2,25160, Note_off_c,0,76,0
2,25180, Note_on_c,0,76,100
2,25340, Note_off_c,0,76,0
2,25360, Note_on_c,0,41,100
2,25360, Note_on_c,0,69,100
2,25400, Note_off_c,0,41,0
2,25540, Note_on_c,0,70,100
2,25540, Note_off_c,0,69,0
2,25560, Note_on_c,0,71,100
2,25560, Note_off_c,0,70,0
2,25620, Note_off_c,0,71,0
2,25640, Note_on_c,0,50,100
2,25640, Note_on_c,0,77,100
2,25700, Note_off_c,0,50,0
2,25720, Note_off_c,0,77,0
2,25740, Note_on_c,0,48,100
2,25740, Note_on_c,0,79,100
2,25820, Note_off_c,0,48,0
2,25820, Note_off_c,0,79,0
2,25840, Note_on_c,0,48,100
2,25840, Note_on_c,0,79,100
2,25900, Note_off_c,0,48,0
2,25920, Note_off_c,0,79,0
2,25940, Note_on_c,0,51,100
2,25960, Note_on_c,0,63,100
2,25960, Note_off_c,0,51,0
2,25980, Note_off_c,0,63,0
2,26040, Note_on_c,0,43,100
2,26120, Note_on_c,0,41,100
2,26120, Note_off_c,0,43,0
2,26140, Note_on_c,0,69,100
2,26200, Note_off_c,0,69,0
2,26320, Note_on_c,0,65,100
2,26360, Note_off_c,0,65,0
2,26440, Note_off_c,0,41,0
2,26560, Note_on_c,0,65,100
2,26640, Note_off_c,0,65,0
2,26660, Note_on_c,0,40,100
2,26660, Note_on_c,0,69,100
2,26700, Note_off_c,0,40,0
2,26720, Note_off_c,0,69,0
2,26760, Note_on_c,0,41,100
2,26800, Note_off_c,0,41,0
2,26820, Note_on_c,0,40,100
2,26820, Note_on_c,0,67,100
2,26840, Note_off_c,0,67,0
2,26860, Note_off_c,0,40,0
2,26880, Note_on_c,0,39,100
2,26880, Note_on_c,0,63,100
2,26880, Note_on_c,0,67,100
2,26900, Note_on_c,0,64,100
2,26900, Note_off_c,0,63,0
2,26920, Note_off_c,0,39,0
2,26920, Note_off_c,0,64,0
2,26920, Note_off_c,0,67,0
2,26940, Note_on_c,0,36,100
2,26940, Note_on_c,0,63,100
2,26940, Note_on_c,0,67,100
2,27080, Note_off_c,0,36,0
2,27080, Note_off_c,0,63,0
2,27080, Note_off_c,0,67,0
2,27100, Note_on_c,0,36,100
2,27100, Note_on_c,0,69,100
2,27440, Note_off_c,0,36,0
2,27440, Note_off_c,0,69,0
2,27460, Note_on_c,0,51,100
2,27460, Note_on_c,0,55,100
2,27460, Note_on_c,0,67,100
2,27500, Note_off_c,0,55,0
2,27520, Note_on_c,0,69,100
2,27580, Note_off_c,0,69,0
2,27600, Note_on_c,0,40,100
2,27600, Note_on_c,0,65,100
2,27600, Note_on_c,0,69,100
2,27600, Note_off_c,0,67,0
2,27620, Note_off_c,0,40,0
2,27640, Note_off_c,0,65,0
2,27640, Note_off_c,0,69,0
2,27660, Note_on_c,0,50,100
2,27660, Note_on_c,0,62,100
2,27660, Note_on_c,0,65,100
2,27660, Note_on_c,0,69,100
2,27660, Note_off_c,0,51,0
2,27680, Note_off_c,0,62,0
2,27700, Note_off_c,0,50,0
2,27800, Note_off_c,0,65,0
2,27800, Note_off_c,0,69,0
2,27820, Note_on_c,0,36,100
2,27820, Note_on_c,0,64,100
2,27820, Note_on_c,0,69,100
2,27880, Note_on_c,0,52,100
2,27880, Note_on_c,0,65,100
2,27880, Note_off_c,0,64,0
2,27900, Note_off_c,0,69,0
2,27920, Note_off_c,0,52,0
2,27920, Note_off_c,0,65,0
2,27940, Note_on_c,0,67,100
2,28040, Note_on_c,0,65,100
2,28040, Note_off_c,0,67,0
2,28140, Note_off_c,0,36,0
2,28140, Note_off_c,0,65,0
2,28180, Note_on_c,0,41,100
2,28180, Note_on_c,0,42,100
2,28180, Note_on_c,0,53,100
2,28200, Note_on_c,0,69,100
2,28200, Note_off_c,0,53,0
2,28220, Note_on_c,0,38,100
2,28220, Note_off_c,0,42,0
2,28240, Note_off_c,0,38,0
2,28280, Note_on_c,0,36,100
2,28280, Note_off_c,0,41,0
2,28280, Note_off_c,0,69,0
2,28300, Note_on_c,0,55,100
2,28300, Note_on_c,0,64,100
2,28360, Note_on_c,0,50,100
2,28360, Note_on_c,0,57,100
2,28360, Note_off_c,0,55,0
2,28360, Note_off_c,0,64,0
2,28380, Note_on_c,0,55,100
2,28380, Note_off_c,0,36,0
2,28380, Note_off_c,0,50,0
2,28380, Note_off_c,0,57,0
2,28400, Note_on_c,0,36,100
2,28420, Note_off_c,0,36,0
2,28660, Note_off_c,0,55,0
2,28680, Note_on_c,0,70,100
2,28720, Note_on_c,0,69,100
2,28720, Note_off_c,0,70,0
2,28760, Note_off_c,0,69,0
2,28780, Note_on_c,0,82,100
2,28860, Note_on_c,0,66,100
2,28860, Note_off_c,0,82,0
2,28880, Note_on_c,0,64,100
2,28880, Note_off_c,0,66,0
2,29000, Note_on_c,0,40,100
2,29040, Note_on_c,0,79,100
2,29040, Note_off_c,0,40,0
2,29040, Note_off_c,0,64,0
2,29060, Note_off_c,0,79,0
2,29080, Note_on_c,0,36,100
2,29080, Note_on_c,0,40,100
2,29080, Note_on_c,0,60,100
2,29100, Note_on_c,0,64,100
2,29140, Note_off_c,0,40,0
2,29200, Note_off_c,0,36,0
2,29200, Note_off_c,0,64,0
2,29220, Note_on_c,0,35,100
2,29220, Note_on_c,0,69,100
2,29240, Note_off_c,0,35,0
2,29320, Note_off_c,0,69,0
2,29340, Note_off_c,0,60,0
2,29360, Note_on_c,0,50,100
2,29360, Note_on_c,0,60,100
2,29360, Note_on_c,0,65,100
2,29400, Note_off_c,0,50,0
2,29420, Note_off_c,0,65,0
2,29440, Note_on_c,0,65,100
2,29460, Note_on_c,0,69,100
2,29460, Note_off_c,0,60,0
2,29460, Note_off_c,0,65,0
2,29480, Note_on_c,0,36,100
2,29540, Note_off_c,0,36,0
2,29560, Note_off_c,0,69,0
2,29580, Note_on_c,0,36,100
2,29580, Note_on_c,0,50,100
2,29580, Note_on_c,0,65,100
2,29660, Note_off_c,0,36,0
2,29660, Note_off_c,0,50,0
2,29660, Note_off_c,0,65,0
2,29680, Note_on_c,0,36,100
2,29680, Note_on_c,0,50,100
2,29680, Note_on_c,0,65,100
2,29740, Note_on_c,0,64,100
2,29740, Note_off_c,0,36,0
2,29740, Note_off_c,0,50,0
2,29740, Note_off_c,0,65,0
2,29760, Note_on_c,0,50,100
2,29800, Note_on_c,0,55,100
2,29800, Note_off_c,0,50,0
2,29820, Note_off_c,0,64,0
2,29840, Note_on_c,0,35,100
2,29840, Note_off_c,0,55,0
2,29860, Note_on_c,0,43,100
2,29860, Note_on_c,0,55,100
2,29860, Note_on_c,0,67,100
2,29860, Note_off_c,0,35,0
2,29900, Note_on_c,0,66,100
2,29900, Note_off_c,0,67,0
2,29940, Note_on_c,0,36,100
2,29960, Note_on_c,0,48,100
2,29960, Note_on_c,0,64,100
2,29960, Note_off_c,0,43,0
2,29960, Note_off_c,0,55,0
2,30040, Note_on_c,0,67,100
2,30040, Note_off_c,0,66,0
2,30080, Note_off_c,0,36,0
2,30260, Note_on_c,0,51,100
2,30260, Note_on_c,0,65,100
2,30260, Note_off_c,0,48,0
2,30260, Note_off_c,0,67,0
2,30280, Note_off_c,0,51,0
2,30280, Note_off_c,0,64,0
2,30280, Note_off_c,0,65,0
2,30300, Note_on_c,0,41,100
2,30300, Note_on_c,0,51,100
2,30300, Note_on_c,0,64,100
2,30380, Note_on_c,0,48,100
2,30380, Note_on_c,0,62,100
2,30380, Note_off_c,0,51,0
2,30400, Note_on_c,0,36,100
2,30400, Note_on_c,0,46,100
2,30400, Note_off_c,0,48,0
2,30420, Note_on_c,0,65,100
2,30420, Note_off_c,0,36,0
2,30420, Note_off_c,0,46,0
2,30420, Note_off_c,0,62,0
2,30420, Note_off_c,0,64,0
2,30440, Note_on_c,0,79,100
2,30440, Note_off_c,0,65,0
2,30460, Note_on_c,0,55,100
2,30460, Note_on_c,0,81,100
2,30460, Note_off_c,0,79,0
2,30480, Note_on_c,0,65,100
2,30480, Note_off_c,0,81,0
2,30520, Note_off_c,0,41,0
2,30520, Note_off_c,0,55,0
2,30520, Note_off_c,0,65,0
2,30540, Note_on_c,0,47,100
2,30540, Note_on_c,0,55,100
2,30540, Note_on_c,0,62,100
2,30580, Note_off_c,0,47,0
2,30580, Note_off_c,0,55,0
2,30580, Note_off_c,0,62,0
2,30600, Note_on_c,0,47,100
2,30600, Note_on_c,0,55,100
2,30600, Note_on_c,0,62,100
2,30640, Note_off_c,0,47,0
2,30640, Note_off_c,0,55,0
2,30660, Note_on_c,0,47,100
2,30700, Note_on_c,0,40,100
2,30700, Note_on_c,0,46,100
2,30700, Note_on_c,0,50,100
2,30700, Note_on_c,0,58,100
2,30700, Note_off_c,0,62,0
2,30720, Note_on_c,0,53,100
2,30720, Note_on_c,0,60,100
2,30720, Note_off_c,0,47,0
2,30720, Note_off_c,0,58,0
2,30740, Note_on_c,0,51,100
2,30740, Note_off_c,0,40,0
2,30740, Note_off_c,0,46,0
2,30740, Note_off_c,0,50,0
2,30760, Note_on_c,0,40,100
2,30760, Note_off_c,0,53,0
2,31140, Note_on_c,0,55,100
2,31140, Note_off_c,0,51,0
2,31160, Note_off_c,0,55,0
2,31380, Note_on_c,0,52,100
2,31380, Note_off_c,0,40,0
2,31400, Note_on_c,0,40,100
2,31400, Note_on_c,0,49,100
2,31420, Note_on_c,0,46,100
2,31420, Note_off_c,0,49,0
2,31740, Note_off_c,0,40,0
2,31760, Note_on_c,0,40,100
2,31760, Note_off_c,0,46,0
2,31860, Note_off_c,0,52,0
2,32360, Note_on_c,0,56,100
2,32360, Note_off_c,0,60,0
2,32440, Note_on_c,0,53,100
2,32440, Note_off_c,0,56,0
2,32460, Note_off_c,0,53,0
2,32480, Note_on_c,0,42,100
2,32560, Note_off_c,0,40,0
2,32560, Note_off_c,0,42,0
2,32580, Note_on_c,0,40,100
2,32580, Note_on_c,0,42,100
2,32640, Note_off_c,0,40,0
2,32640, Note_off_c,0,42,0
2,32660, Note_on_c,0,40,100
2,32720, Note_off_c,0,40,0
2,32740, Note_on_c,0,40,100
2,32740, Note_on_c,0,59,100
2,32740, Note_on_c,0,62,100
2,32800, Note_off_c,0,59,0
2,32860, Note_off_c,0,40,0
2,32860, Note_off_c,0,62,0
2,32880, Note_on_c,0,40,100
2,32880, Note_on_c,0,46,100
2,32880, Note_on_c,0,66,100
2,33020, Note_on_c,0,57,100
2,33040, Note_on_c,0,62,100
2,33040, Note_off_c,0,66,0
2,33060, Note_on_c,0,42,100
2,33060, Note_off_c,0,46,0
2,33200, Note_off_c,0,40,0
2,33200, Note_off_c,0,42,0
2,33220, Note_on_c,0,40,100
2,33220, Note_on_c,0,55,100
2,33260, Note_off_c,0,55,0
2,33380, Note_on_c,0,47,100
2,33380, Note_off_c,0,40,0
2,33400, Note_on_c,0,50,100
2,33400, Note_on_c,0,55,100
2,33400, Note_off_c,0,47,0
2,33400, Note_off_c,0,57,0
2,33420, Note_on_c,0,40,100
2,33440, Note_off_c,0,50,0
2,33460, Note_off_c,0,55,0
2,33500, Note_off_c,0,62,0
2,33520, Note_on_c,0,50,100
2,33600, Note_on_c,0,59,100
2,33600, Note_off_c,0,40,0
2,33620, Note_on_c,0,40,100
2,33640, Note_on_c,0,46,100
2,33640, Note_off_c,0,50,0
2,33660, Note_off_c,0,59,0
2,33940, Note_off_c,0,40,0
2,33960, Note_on_c,0,60,100
2,34180, Note_on_c,0,40,100
2,34180, Note_off_c,0,60,0
2,34200, Note_on_c,0,58,100
2,34200, Note_off_c,0,46,0
2,34280, Note_on_c,0,50,100
2,34280, Note_on_c,0,62,100
2,34280, Note_off_c,0,40,0
2,34280, Note_off_c,0,58,0
2,34380, Note_on_c,0,55,100
2,34380, Note_off_c,0,50,0
2,34440, Note_on_c,0,50,100
2,34440, Note_off_c,0,55,0
2,34500, Note_on_c,0,40,100
2,34500, Note_off_c,0,50,0
2,34520, Note_on_c,0,41,100
2,34520, Note_off_c,0,40,0
2,34580, Note_on_c,0,46,100
2,34580, Note_off_c,0,41,0
2,34800, Note_on_c,0,65,100
2,34800, Note_off_c,0,62,0
2,35800, Note_on_c,0,66,100
2,35800, Note_off_c,0,65,0
2,35860, Note_on_c,0,65,100
2,35860, Note_off_c,0,66,0
2,35880, Note_on_c,0,50,100
2,35880, Note_off_c,0,46,0
2,35940, Note_on_c,0,46,100
2,35940, Note_off_c,0,50,0
2,35980, Note_on_c,0,77,100
2,36140, Note_on_c,0,66,100
2,36140, Note_off_c,0,65,0
2,36160, Note_on_c,0,65,100
2,36160, Note_off_c,0,66,0
2,36360, Note_on_c,0,54,100
2,36360, Note_off_c,0,46,0
2,37240, Note_on_c,0,47,100
2,37240, Note_off_c,0,54,0
2,37300, Note_on_c,0,68,100
2,37300, Note_on_c,0,74,100
2,37300, Note_off_c,0,65,0
2,37300, Note_off_c,0,77,0
2,37320, Note_on_c,0,67,100
2,37320, Note_off_c,0,68,0
2,37440, Note_on_c,0,71,100
2,37440, Note_off_c,0,74,0
2,37460, Note_on_c,0,73,100
2,37460, Note_off_c,0,47,0
2,37460, Note_off_c,0,71,0
2,37520, Note_on_c,0,49,100
2,37520, Note_on_c,0,66,100
2,37520, Note_off_c,0,67,0
2,37540, Note_on_c,0,74,100
2,37540, Note_off_c,0,73,0
2,37580, Note_on_c,0,76,100
2,37580, Note_off_c,0,74,0
2,37620, Note_on_c,0,73,100
2,37620, Note_off_c,0,76,0
2,37680, Note_off_c,0,73,0
2,37780, Note_on_c,0,47,100
2,37780, Note_off_c,0,49,0
2,37820, Note_on_c,0,49,100
2,37820, Note_off_c,0,47,0
2,37840, Note_on_c,0,68,100
2,37900, Note_on_c,0,71,100
2,37900, Note_off_c,0,68,0
2,37960, Note_on_c,0,68,100
2,37960, Note_off_c,0,71,0
2,38060, Note_on_c,0,69,100
2,38060, Note_off_c,0,68,0
2,38100, Note_off_c,0,69,0
2,38380, Note_on_c,0,54,100
2,38380, Note_off_c,0,49,0
2,38400, Note_on_c,0,61,100
2,38400, Note_on_c,0,69,100
2,38400, Note_off_c,0,54,0
2,38400, Note_off_c,0,66,0
2,38420, Note_on_c,0,68,100
2,38420, Note_off_c,0,61,0
2,38440, Note_on_c,0,53,100
2,38460, Note_on_c,0,74,100
2,38460, Note_off_c,0,69,0
2,38500, Note_on_c,0,66,100
2,38500, Note_off_c,0,68,0
2,38540, Note_on_c,0,68,100
2,38540, Note_off_c,0,66,0
2,38560, Note_on_c,0,54,100
2,38560, Note_on_c,0,73,100
2,38560, Note_off_c,0,53,0
2,38560, Note_off_c,0,74,0
2,38660, Note_on_c,0,50,100
2,38660, Note_off_c,0,54,0
2,38840, Note_on_c,0,65,100
2,38840, Note_off_c,0,50,0
2,38840, Note_off_c,0,68,0
2,38920, Note_on_c,0,53,100
2,38920, Note_on_c,0,68,100
2,38920, Note_on_c,0,76,100
2,38920, Note_off_c,0,65,0
2,38920, Note_off_c,0,73,0
2,38980, Note_on_c,0,52,100
2,38980, Note_off_c,0,53,0
2,39040, Note_on_c,0,69,100
2,39040, Note_off_c,0,68,0
2,39140, Note_on_c,0,68,100
2,39140, Note_off_c,0,69,0
2,39200, Note_on_c,0,59,100
2,39200, Note_off_c,0,52,0
2,39260, Note_on_c,0,57,100
2,39260, Note_off_c,0,59,0
2,39280, Note_on_c,0,73,100
2,39280, Note_off_c,0,76,0
2,39340, Note_on_c,0,65,100
2,39340, Note_off_c,0,68,0
2,39360, Note_on_c,0,66,100
2,39360, Note_off_c,0,65,0
2,39380, Note_on_c,0,50,100
2,39380, Note_on_c,0,74,100
2,39380, Note_off_c,0,57,0
2,39380, Note_off_c,0,73,0
2,39420, Note_on_c,0,47,100
2,39420, Note_on_c,0,67,100
2,39420, Note_on_c,0,78,100
2,39420, Note_off_c,0,50,0
2,39420, Note_off_c,0,66,0
2,39420, Note_off_c,0,74,0
2,39440, Note_off_c,0,47,0
2,39480, Note_on_c,0,49,100
2,39480, Note_off_c,0,67,0
2,39800, Note_off_c,0,78,0
2,39860, Note_on_c,0,66,100
2,39900, Note_on_c,0,68,100
2,39900, Note_off_c,0,66,0
2,39960, Note_on_c,0,66,100
2,39960, Note_off_c,0,68,0
2,40020, Note_on_c,0,69,100
2,40020, Note_off_c,0,66,0
2,40060, Note_on_c,0,68,100
2,40060, Note_off_c,0,69,0
2,40120, Note_on_c,0,66,100
2,40140, Note_off_c,0,66,0
2,40240, Note_on_c,0,50,100
2,40240, Note_off_c,0,49,0
2,40560, Note_on_c,0,44,100
2,40560, Note_off_c,0,50,0
2,40580, Note_on_c,0,49,100
2,40580, Note_on_c,0,69,100
2,40580, Note_off_c,0,44,0
2,40580, Note_off_c,0,68,0
2,40600, Note_on_c,0,68,100
2,40600, Note_off_c,0,69,0
2,40720, Note_on_c,0,61,100
2,40720, Note_off_c,0,49,0
2,40760, Note_on_c,0,58,100
2,40760, Note_off_c,0,61,0
2,40760, Note_off_c,0,68,0
2,40780, Note_on_c,0,49,100
2,40780, Note_on_c,0,65,100
2,40780, Note_off_c,0,58,0
2,40800, Note_on_c,0,58,100
2,40800, Note_off_c,0,49,0
2,40800, Note_off_c,0,65,0
2,40820, Note_on_c,0,49,100
2,40820, Note_on_c,0,68,100
2,40820, Note_off_c,0,58,0
2,40900, Note_on_c,0,66,100
2,40940, Note_off_c,0,49,0
2,40940, Note_off_c,0,66,0
2,40940, Note_off_c,0,68,0
2,40960, Note_on_c,0,68,100
2,41080, Note_on_c,0,66,100
2,41080, Note_on_c,0,69,100
2,41080, Note_off_c,0,68,0
2,41380, Note_on_c,0,68,100
2,41380, Note_off_c,0,66,0
2,41380, Note_off_c,0,69,0
2,41400, Note_on_c,0,66,100
2,41400, Note_off_c,0,68,0
2,42640, Note_on_c,0,67,100
2,42640, Note_off_c,0,66,0
2,42760, Note_on_c,0,62,100
2,43920, Note_on_c,0,59,100
2,43920, Note_off_c,0,62,0
2,44300, Note_off_c,0,59,0
2,44300, Note_off_c,0,67,0
2,44360, Note_on_c,0,66,100
2,48580, Note_on_c,0,60,100
2,48580, Note_on_c,0,62,100
2,48600, Note_on_c,0,59,100
2,48600, Note_off_c,0,60,0
2,48640, Note_off_c,0,59,0
2,48760, Note_off_c,0,62,0
2,48760, Note_off_c,0,66,0
2,48780, Note_on_c,0,40,100
2,48780, Note_on_c,0,66,100
2,48820, Note_off_c,0,40,0
2,49700, Note_on_c,0,71,100
2,49700, Note_off_c,0,66,0
2,49720, Note_on_c,0,67,100
2,49720, Note_off_c,0,71,0
2,49820, Note_on_c,0,74,100
2,49820, Note_off_c,0,67,0
2,49840, Note_on_c,0,67,100
2,49840, Note_off_c,0,74,0
2,50920, Note_on_c,0,66,100
2,50920, Note_off_c,0,67,0
2,55680, Note_on_c,0,67,100
2,55680, Note_off_c,0,66,0
2,62400, Note_on_c,0,79,100
2,62400, Note_off_c,0,67,0
2,62420, Note_on_c,0,74,100
2,62420, Note_off_c,0,79,0
2,62540, Note_on_c,0,62,100
2,62720, Note_on_c,0,78,100
2,62720, Note_off_c,0,74,0
2,62740, Note_on_c,0,74,100
2,62740, Note_off_c,0,78,0
2,68500, Note_on_c,0,76,100
2,68500, Note_off_c,0,74,0
2,68520, Note_on_c,0,74,100
2,68520, Note_off_c,0,76,0
2,71340, Note_on_c,0,58,100
2,71340, Note_on_c,0,72,100
2,71340, Note_off_c,0,62,0
2,71340, Note_off_c,0,74,0
2,71380, Note_on_c,0,60,100
2,71380, Note_off_c,0,58,0
2,72300, Note_on_c,0,61,100
2,72300, Note_off_c,0,60,0
2,72380, Note_on_c,0,60,100
2,72380, Note_off_c,0,61,0
2,75380, Note_on_c,0,71,100
2,75380, Note_off_c,0,72,0
2,76160, Note_on_c,0,72,100
2,76160, Note_off_c,0,71,0
2,76180, Note_on_c,0,79,100
2,76180, Note_off_c,0,60,0
2,76180, Note_off_c,0,72,0
2,76540, Note_off_c,0,79,0
2,76920, Note_on_c,0,60,100
2,76920, Note_on_c,0,65,100
2,77100, Note_off_c,0,60,0
2,77100, Note_off_c,0,65,0
2,77120, Note_on_c,0,54,100
2,77140, Note_off_c,0,54,0
2,77160, Note_on_c,0,54,100
2,77160, Note_on_c,0,60,100
2,78300, Note_on_c,0,59,100
2,78300, Note_off_c,0,60,0
2,78580, Note_on_c,0,61,100
2,78580, Note_off_c,0,59,0
2,78640, Note_on_c,0,49,100
2,78640, Note_off_c,0,54,0
2,78720, Note_on_c,0,66,100
2,78720, Note_off_c,0,61,0
2,79080, Note_on_c,0,63,100
2,79080, Note_off_c,0,66,0
2,79260, Note_on_c,0,61,100
2,79260, Note_off_c,0,63,0
2,79340, Note_on_c,0,66,100
2,79340, Note_off_c,0,61,0
2,79640, Note_on_c,0,54,100
2,79640, Note_off_c,0,49,0
2,80100, Note_on_c,0,49,100
2,80100, Note_off_c,0,54,0
2,80180, Note_on_c,0,52,100
2,80180, Note_off_c,0,49,0
2,80300, Note_on_c,0,65,100
2,80300, Note_off_c,0,66,0
2,80320, Note_on_c,0,54,100
2,80320, Note_off_c,0,52,0
2,80400, Note_on_c,0,64,100
2,80400, Note_off_c,0,65,0
2,80640, Note_on_c,0,57,100
2,80640, Note_off_c,0,54,0
2,81500, Note_on_c,0,61,100
2,81500, Note_off_c,0,64,0
2,81560, Note_on_c,0,54,100
2,81560, Note_off_c,0,57,0
2,81680, Note_on_c,0,52,100
2,81680, Note_off_c,0,54,0
2,81880, Note_on_c,0,49,100
2,81880, Note_off_c,0,52,0
2,81960, Note_off_c,0,49,0
2,82000, Note_on_c,0,68,100
2,82000, Note_off_c,0,61,0
2,82060, Note_on_c,0,55,100
2,82080, Note_on_c,0,66,100
2,82080, Note_off_c,0,68,0
2,82640, Note_on_c,0,51,100
2,82640, Note_off_c,0,55,0
2,82880, Note_on_c,0,54,100
2,82880, Note_off_c,0,51,0
2,83000, Note_on_c,0,49,100
2,83000, Note_on_c,0,61,100
2,83000, Note_off_c,0,54,0
2,83000, Note_off_c,0,66,0
2,83040, Note_on_c,0,66,100
2,83040, Note_off_c,0,49,0
2,83080, Note_on_c,0,49,100
2,83100, Note_off_c,0,61,0
2,83560, Note_on_c,0,47,100
2,83560, Note_off_c,0,49,0
2,84180, Note_on_c,0,42,100
2,84180, Note_on_c,0,63,100
2,84180, Note_off_c,0,47,0
2,84180, Note_off_c,0,66,0
2,84200, Note_on_c,0,45,100
2,84200, Note_off_c,0,42,0
2,84360, Note_on_c,0,47,100
2,84360, Note_off_c,0,45,0
2,84400, Note_on_c,0,50,100
2,84400, Note_off_c,0,47,0
2,84420, Note_on_c,0,65,100
2,84420, Note_off_c,0,63,0
2,84480, Note_on_c,0,54,100
2,84480, Note_off_c,0,50,0
2,84600, Note_on_c,0,52,100
2,84600, Note_off_c,0,54,0
2,84620, Note_on_c,0,61,100
2,84620, Note_off_c,0,65,0
2,84860, Note_on_c,0,66,100
2,84860, Note_off_c,0,61,0
2,84900, Note_on_c,0,50,100
2,84900, Note_on_c,0,64,100
2,84900, Note_off_c,0,52,0
2,84900, Note_off_c,0,66,0
2,84940, Note_on_c,0,61,100
2,84940, Note_off_c,0,64,0
2,85000, Note_on_c,0,57,100
2,85000, Note_off_c,0,50,0
2,85160, Note_off_c,0,57,0
2,85200, Note_on_c,0,54,100
2,86020, Note_on_c,0,49,100
2,86020, Note_off_c,0,54,0
2,86100, Note_on_c,0,80,100
2,86100, Note_off_c,0,61,0
2,86220, Note_on_c,0,54,100
2,86220, Note_off_c,0,49,0
2,86320, Note_on_c,0,81,100
2,86320, Note_off_c,0,80,0
2,86380, Note_on_c,0,77,100
2,86380, Note_off_c,0,81,0
2,86400, Note_on_c,0,49,100
2,86400, Note_on_c,0,83,100
2,86400, Note_off_c,0,54,0
2,86400, Note_off_c,0,77,0
2,86460, Note_on_c,0,61,100
2,86460, Note_off_c,0,49,0
2,86480, Note_on_c,0,62,100
2,86480, Note_off_c,0,61,0
2,86540, Note_on_c,0,50,100
2,86540, Note_off_c,0,62,0
2,86660, Note_on_c,0,57,100
2,86660, Note_off_c,0,50,0
2,86760, Note_on_c,0,50,100
2,86760, Note_off_c,0,57,0
2,87320, Note_on_c,0,81,100
2,87320, Note_off_c,0,83,0
2,87380, Note_on_c,0,83,100
2,87380, Note_off_c,0,81,0
2,87460, Note_on_c,0,49,100
2,87460, Note_on_c,0,71,100
2,87460, Note_off_c,0,50,0
2,87460, Note_off_c,0,83,0
2,87560, Note_off_c,0,71,0
2,87620, Note_on_c,0,56,100
2,87620, Note_off_c,0,49,0
2,87640, Note_on_c,0,48,100
2,87640, Note_off_c,0,56,0
2,88680, Note_on_c,0,47,100
2,88680, Note_off_c,0,48,0
2,88820, Note_on_c,0,79,100
2,88880, Note_off_c,0,79,0
2,88900, Note_on_c,0,63,100
2,88900, Note_on_c,0,78,100
2,88980, Note_on_c,0,61,100
2,88980, Note_off_c,0,63,0
2,89020, Note_on_c,0,49,100
2,89020, Note_off_c,0,47,0
2,89040, Note_on_c,0,59,100
2,89040, Note_off_c,0,61,0
2,89060, Note_off_c,0,59,0
2,89160, Note_on_c,0,76,100
2,89160, Note_off_c,0,78,0
2,89240, Note_on_c,0,52,100
2,89240, Note_off_c,0,49,0
2,89280, Note_on_c,0,59,100
2,89280, Note_off_c,0,52,0
2,89360, Note_on_c,0,64,100
2,89360, Note_off_c,0,59,0
2,89460, Note_on_c,0,57,100
2,89460, Note_off_c,0,64,0
2,89900, Note_on_c,0,64,100
2,89900, Note_off_c,0,57,0
2,90320, Note_on_c,0,69,100
2,90320, Note_off_c,0,64,0
2,90360, Note_on_c,0,64,100
2,90360, Note_off_c,0,69,0
2,90540, Note_on_c,0,59,100
2,90540, Note_on_c,0,74,100
2,90540, Note_off_c,0,64,0
2,90540, Note_off_c,0,76,0
2,90560, Note_off_c,0,59,0
2,90580, Note_on_c,0,67,100
2,90600, Note_off_c,0,74,0
2,90620, Note_on_c,0,74,100
2,90620, Note_off_c,0,67,0
2,90740, Note_on_c,0,69,100
2,90740, Note_off_c,0,74,0
2,91480, Note_on_c,0,76,100
2,91480, Note_off_c,0,69,0
2,91800, Note_on_c,0,74,100
2,91800, Note_off_c,0,76,0
2,92140, Note_on_c,0,60,100
2,92180, Note_off_c,0,60,0
2,92320, Note_on_c,0,71,100
2,92320, Note_off_c,0,74,0
2,92560, Note_on_c,0,72,100
2,92560, Note_off_c,0,71,0
2,92660, Note_on_c,0,74,100
2,92660, Note_off_c,0,72,0
2,93160, Note_on_c,0,70,100
2,93160, Note_off_c,0,74,0
2,93180, Note_on_c,0,74,100
2,93180, Note_off_c,0,70,0
2,93280, Note_on_c,0,71,100
2,93280, Note_on_c,0,76,100
2,93280, Note_off_c,0,74,0
2,93500, Note_on_c,0,72,100
2,93500, Note_off_c,0,71,0
2,94000, Note_off_c,0,72,0
2,94000, Note_off_c,0,76,0
2,94020, Note_on_c,0,50,100
2,94300, Note_on_c,0,74,100
2,95080, Note_off_c,0,74,0
2,95100, Note_on_c,0,74,100
2,95320, Note_off_c,0,74,0
2,95340, Note_on_c,0,72,100
2,95820, Note_on_c,0,52,100
2,95820, Note_off_c,0,50,0
2,95880, Note_on_c,0,67,100
2,95880, Note_on_c,0,76,100
2,95880, Note_off_c,0,52,0
2,95880, Note_off_c,0,72,0
2,97020, Note_on_c,0,65,100
2,97020, Note_off_c,0,67,0
2,97120, Note_on_c,0,66,100
2,97120, Note_off_c,0,65,0
2,97340, Note_on_c,0,64,100
2,97340, Note_off_c,0,66,0
2,99280, Note_on_c,0,69,100
2,99280, Note_off_c,0,64,0
2,99320, Note_off_c,0,69,0
2,99320, Note_off_c,0,76,0
2,99340, Note_on_c,0,52,100
2,99340, Note_on_c,0,76,100
2,99460, Note_on_c,0,59,100
2,99460, Note_off_c,0,52,0
2,99780, Note_on_c,0,55,100
2,99780, Note_off_c,0,59,0
2,99840, Note_off_c,0,76,0
2,100080, Note_off_c,0,55,0
2,100100, Note_on_c,0,74,100
2,100120, Note_on_c,0,81,100
2,100120, Note_off_c,0,74,0
2,100140, Note_off_c,0,81,0
2,100160, Note_on_c,0,81,100
2,100200, Note_off_c,0,81,0
2,100220, Note_on_c,0,88,100
2,100300, Note_on_c,0,80,100
2,100300, Note_off_c,0,88,0
2,100380, Note_on_c,0,76,100
2,100380, Note_off_c,0,80,0
2,100400, Note_on_c,0,53,100
2,101540, Note_on_c,0,48,100
2,101540, Note_on_c,0,72,100
2,101540, Note_off_c,0,53,0
2,101540, Note_off_c,0,76,0
2,101660, Note_on_c,0,36,100
2,101660, Note_on_c,0,69,100
2,101660, Note_off_c,0,72,0
2,101680, Note_off_c,0,48,0
2,102020, Note_on_c,0,72,100
2,102020, Note_off_c,0,69,0
2,102040, Note_off_c,0,72,0
2,102060, Note_on_c,0,44,100
2,102180, Note_off_c,0,44,0
2,102200, Note_on_c,0,60,100
2,102300, Note_off_c,0,60,0
2,102480, Note_on_c,0,59,100
2,102580, Note_on_c,0,52,100
2,102580, Note_off_c,0,59,0
2,102600, Note_on_c,0,35,100
2,102600, Note_on_c,0,50,100
2,102600, Note_off_c,0,36,0
2,102600, Note_off_c,0,52,0
2,102620, Note_on_c,0,38,100
2,102620, Note_off_c,0,35,0
2,103100, Note_on_c,0,62,100
2,103100, Note_off_c,0,50,0
2,103160, Note_on_c,0,50,100
2,103160, Note_off_c,0,62,0
2,103220, Note_on_c,0,62,100
2,103220, Note_off_c,0,50,0
2,103280, Note_on_c,0,50,100
2,103280, Note_off_c,0,62,0
2,103340, Note_on_c,0,62,100
2,103340, Note_off_c,0,50,0
2,103400, Note_on_c,0,50,100
2,103400, Note_off_c,0,62,0
2,103460, Note_on_c,0,62,100
2,103460, Note_off_c,0,50,0
2,103520, Note_on_c,0,50,100
2,103520, Note_off_c,0,62,0
2,103700, Note_on_c,0,62,100
2,103700, Note_off_c,0,50,0
2,103740, Note_on_c,0,60,100
2,103740, Note_off_c,0,62,0
2,103760, Note_on_c,0,50,100
2,103780, Note_off_c,0,60,0
2,103940, Note_on_c,0,62,100
2,103940, Note_off_c,0,50,0
2,104000, Note_on_c,0,50,100
2,104000, Note_off_c,0,62,0
2,104060, Note_on_c,0,62,100
2,104060, Note_off_c,0,50,0
2,104120, Note_on_c,0,50,100
2,104120, Note_off_c,0,62,0
2,104180, Note_on_c,0,62,100
2,104180, Note_off_c,0,50,0
2,104240, Note_on_c,0,50,100
2,104240, Note_off_c,0,62,0
2,104300, Note_on_c,0,62,100
2,104300, Note_off_c,0,50,0
2,104360, Note_on_c,0,50,100
2,104360, Note_off_c,0,62,0
2,104540, Note_on_c,0,62,100
2,104540, Note_off_c,0,50,0
2,104600, Note_on_c,0,50,100
2,104600, Note_off_c,0,62,0
2,104760, Note_on_c,0,62,100
2,104760, Note_off_c,0,50,0
2,104820, Note_on_c,0,50,100
2,104820, Note_off_c,0,62,0
2,104880, Note_on_c,0,62,100
2,104880, Note_off_c,0,50,0
2,104940, Note_on_c,0,50,100
2,104940, Note_off_c,0,62,0
2,105000, Note_on_c,0,62,100
2,105000, Note_off_c,0,50,0
2,105060, Note_on_c,0,50,100
2,105060, Note_off_c,0,62,0
2,105240, Note_on_c,0,62,100
2,105240, Note_off_c,0,50,0
2,105300, Note_on_c,0,50,100
2,105300, Note_off_c,0,62,0
2,105360, Note_on_c,0,62,100
2,105360, Note_off_c,0,50,0
2,105420, Note_on_c,0,50,100
2,105420, Note_off_c,0,62,0
2,105520, Note_on_c,0,62,100
2,105520, Note_off_c,0,50,0
2,105560, Note_on_c,0,50,100
2,105560, Note_off_c,0,62,0
2,105620, Note_on_c,0,62,100
2,105620, Note_off_c,0,50,0
2,105680, Note_on_c,0,50,100
2,105680, Note_off_c,0,62,0
2,105740, Note_on_c,0,62,100
2,105740, Note_off_c,0,50,0
2,105800, Note_on_c,0,50,100
2,105800, Note_off_c,0,62,0
2,105860, Note_on_c,0,62,100
2,105860, Note_off_c,0,50,0
2,105920, Note_on_c,0,50,100
2,105920, Note_off_c,0,62,0
2,106080, Note_on_c,0,62,100
2,106080, Note_off_c,0,50,0
2,106140, Note_on_c,0,50,100
2,106140, Note_off_c,0,62,0
2,106200, Note_on_c,0,62,100
2,106200, Note_off_c,0,50,0
2,106260, Note_on_c,0,50,100
2,106260, Note_off_c,0,62,0
2,106320, Note_on_c,0,62,100
2,106320, Note_off_c,0,50,0
2,106380, Note_on_c,0,50,100
2,106380, Note_off_c,0,62,0
2,106440, Note_on_c,0,62,100
2,106440, Note_off_c,0,50,0
2,106500, Note_on_c,0,50,100
2,106500, Note_off_c,0,62,0
2,106560, Note_on_c,0,62,100
2,106560, Note_off_c,0,50,0
2,106620, Note_on_c,0,50,100
2,106620, Note_off_c,0,62,0
2,106680, Note_on_c,0,62,100
2,106680, Note_off_c,0,50,0
2,106740, Note_on_c,0,50,100
2,106740, Note_off_c,0,62,0
2,106800, Note_on_c,0,62,100
2,106800, Note_off_c,0,50,0
2,106860, Note_on_c,0,50,100
2,106860, Note_off_c,0,62,0
2,106920, Note_on_c,0,62,100
2,106920, Note_off_c,0,50,0
2,106980, Note_on_c,0,50,100
2,106980, Note_off_c,0,62,0
2,107040, Note_on_c,0,62,100
2,107040, Note_off_c,0,50,0
2,107100, Note_on_c,0,50,100
2,107100, Note_off_c,0,62,0
2,107160, Note_on_c,0,62,100
2,107160, Note_off_c,0,50,0
2,107220, Note_on_c,0,50,100
2,107220, Note_off_c,0,62,0
2,107280, Note_on_c,0,62,100
2,107280, Note_off_c,0,50,0
2,107340, Note_on_c,0,50,100
2,107340, Note_off_c,0,62,0
2,107400, Note_on_c,0,62,100
2,107400, Note_off_c,0,50,0
2,107460, Note_on_c,0,50,100
2,107460, Note_off_c,0,62,0
2,107520, Note_on_c,0,62,100
2,107520, Note_off_c,0,50,0
2,107580, Note_on_c,0,50,100
2,107580, Note_off_c,0,62,0
2,107640, Note_on_c,0,62,100
2,107640, Note_off_c,0,50,0
2,107700, Note_on_c,0,50,100
2,107700, Note_off_c,0,62,0
2,107880, Note_on_c,0,62,100
2,107880, Note_off_c,0,50,0
2,107940, Note_on_c,0,50,100
2,107940, Note_off_c,0,62,0
2,108000, Note_on_c,0,62,100
2,108000, Note_off_c,0,50,0
2,108060, Note_on_c,0,50,100
2,108060, Note_off_c,0,62,0
2,108120, Note_on_c,0,62,100
2,108120, Note_off_c,0,50,0
2,108180, Note_on_c,0,50,100
2,108180, Note_off_c,0,62,0
2,108240, Note_on_c,0,62,100
2,108240, Note_off_c,0,50,0
2,108300, Note_on_c,0,50,100
2,108300, Note_off_c,0,62,0
2,108360, Note_on_c,0,62,100
2,108360, Note_off_c,0,50,0
2,108420, Note_on_c,0,50,100
2,108420, Note_off_c,0,62,0
2,108480, Note_on_c,0,62,100
2,108480, Note_off_c,0,50,0
2,108540, Note_on_c,0,50,100
2,108540, Note_off_c,0,62,0
2,108600, Note_on_c,0,62,100
2,108600, Note_off_c,0,50,0
2,108660, Note_on_c,0,50,100
2,108660, Note_off_c,0,62,0
2,108720, Note_on_c,0,62,100
2,108720, Note_off_c,0,50,0
2,108780, Note_on_c,0,50,100
2,108780, Note_off_c,0,62,0
2,108840, Note_on_c,0,62,100
2,108840, Note_off_c,0,50,0
2,108900, Note_on_c,0,50,100
2,108900, Note_off_c,0,62,0
2,108960, Note_on_c,0,62,100
2,108960, Note_off_c,0,50,0
2,109020, Note_on_c,0,50,100
2,109020, Note_off_c,0,62,0
2,109080, Note_on_c,0,62,100
2,109080, Note_off_c,0,50,0
2,109140, Note_on_c,0,50,100
2,109140, Note_off_c,0,62,0
2,109200, Note_on_c,0,62,100
2,109200, Note_off_c,0,50,0
2,109260, Note_on_c,0,50,100
2,109260, Note_off_c,0,62,0
2,109320, Note_on_c,0,62,100
2,109320, Note_off_c,0,50,0
2,109380, Note_on_c,0,50,100
2,109380, Note_off_c,0,62,0
2,109440, Note_on_c,0,62,100
2,109440, Note_off_c,0,50,0
2,109500, Note_on_c,0,50,100
2,109500, Note_off_c,0,62,0
2,109560, Note_on_c,0,62,100
2,109560, Note_off_c,0,50,0
2,109620, Note_on_c,0,50,100
2,109620, Note_off_c,0,62,0
2,109660, Note_on_c,0,62,100
2,109660, Note_off_c,0,50,0
2,109720, Note_on_c,0,50,100
2,109720, Note_off_c,0,62,0
2,109900, Note_on_c,0,62,100
2,109900, Note_off_c,0,50,0
2,109960, Note_on_c,0,50,100
2,109960, Note_off_c,0,62,0
2,110140, Note_on_c,0,62,100
2,110140, Note_off_c,0,50,0
2,110200, Note_on_c,0,50,100
2,110200, Note_off_c,0,62,0
2,110260, Note_on_c,0,62,100
2,110260, Note_off_c,0,50,0
2,110320, Note_on_c,0,50,100
2,110320, Note_off_c,0,62,0
2,110380, Note_on_c,0,62,100
2,110380, Note_off_c,0,50,0
2,110440, Note_on_c,0,50,100
2,110440, Note_off_c,0,62,0
2,110500, Note_on_c,0,62,100
2,110500, Note_off_c,0,50,0
2,110560, Note_on_c,0,50,100
2,110560, Note_off_c,0,62,0
2,110620, Note_on_c,0,62,100
2,110620, Note_off_c,0,50,0
2,110680, Note_on_c,0,50,100
2,110680, Note_off_c,0,62,0
2,110740, Note_on_c,0,62,100
2,110740, Note_off_c,0,50,0
2,110800, Note_on_c,0,50,100
2,110800, Note_off_c,0,62,0
2,110860, Note_on_c,0,62,100
2,110860, Note_off_c,0,50,0
2,110920, Note_on_c,0,50,100
2,110920, Note_off_c,0,62,0
2,111080, Note_off_c,0,50,0
2,111100, Note_on_c,0,57,100
2,112480, Note_on_c,0,36,100
2,112480, Note_off_c,0,38,0
2,113240, Note_on_c,0,69,100
2,113240, Note_off_c,0,57,0
2,113940, Note_on_c,0,53,100
2,113980, Note_off_c,0,53,0
2,114000, Note_on_c,0,48,100
2,114060, Note_off_c,0,36,0
2,114240, Note_on_c,0,50,100
2,114240, Note_off_c,0,48,0
2,114300, Note_off_c,0,50,0
2,114300, Note_off_c,0,69,0
2,114320, Note_on_c,0,40,100
2,114320, Note_on_c,0,64,100
2,114360, Note_on_c,0,65,100
2,114360, Note_off_c,0,64,0
2,114680, Note_on_c,0,66,100
2,114680, Note_off_c,0,65,0
2,114700, Note_on_c,0,70,100
2,114700, Note_off_c,0,66,0
2,114720, Note_on_c,0,64,100
2,114720, Note_off_c,0,70,0
2,115140, Note_on_c,0,66,100
2,115140, Note_off_c,0,64,0
2,115180, Note_on_c,0,64,100
2,115180, Note_off_c,0,66,0
2,115300, Note_on_c,0,66,100
2,115300, Note_off_c,0,64,0
2,115460, Note_on_c,0,68,100
2,115460, Note_off_c,0,66,0
2,115540, Note_off_c,0,68,0
2,115560, Note_on_c,0,66,100
2,115940, Note_on_c,0,68,100
2,115940, Note_off_c,0,66,0
2,116180, Note_on_c,0,54,100
2,116180, Note_off_c,0,68,0
2,116260, Note_on_c,0,73,100
2,116260, Note_off_c,0,54,0
2,116320, Note_off_c,0,73,0
2,116340, Note_on_c,0,52,100
2,116580, Note_off_c,0,52,0
2,116860, Note_off_c,0,40,0
2,116880, Note_on_c,0,40,100
2,116980, Note_on_c,0,49,100
2,117000, Note_on_c,0,47,100
2,117000, Note_off_c,0,49,0
2,117040, Note_on_c,0,52,100
2,117040, Note_off_c,0,40,0
2,117040, Note_off_c,0,47,0
2,117060, Note_on_c,0,40,100
2,117160, Note_on_c,0,50,100
2,117160, Note_off_c,0,52,0
2,117220, Note_off_c,0,40,0
2,117240, Note_on_c,0,40,100
2,117300, Note_on_c,0,52,100
2,117300, Note_off_c,0,50,0
2,117320, Note_on_c,0,45,100
2,117320, Note_off_c,0,52,0
2,117340, Note_on_c,0,42,100
2,117340, Note_off_c,0,45,0
2,117480, Note_off_c,0,42,0
2,117640, Note_off_c,0,40,0
2,117660, Note_on_c,0,40,100
2,117720, Note_off_c,0,40,0
2,117740, Note_on_c,0,40,100
2,117740, Note_on_c,0,52,100
2,117740, Note_on_c,0,55,100
2,117820, Note_off_c,0,40,0
2,117880, Note_on_c,0,40,100
2,117880, Note_off_c,0,55,0
2,117980, Note_off_c,0,40,0
2,118000, Note_on_c,0,40,100
2,118060, Note_off_c,0,52,0
2,118180, Note_off_c,0,40,0
2,118200, Note_on_c,0,40,100
2,118260, Note_off_c,0,40,0
2,118280, Note_on_c,0,40,100
2,118280, Note_on_c,0,57,100
2,118340, Note_off_c,0,40,0
2,118360, Note_on_c,0,62,100
2,118360, Note_off_c,0,57,0
2,118380, Note_on_c,0,47,100
2,118440, Note_on_c,0,54,100
2,118460, Note_on_c,0,35,100
2,118460, Note_off_c,0,47,0
2,118460, Note_off_c,0,62,0
2,118480, Note_on_c,0,40,100
2,118480, Note_off_c,0,35,0
2,118580, Note_on_c,0,52,100
2,118580, Note_off_c,0,54,0
2,118600, Note_on_c,0,59,100
2,118600, Note_off_c,0,40,0
2,118660, Note_on_c,0,40,100
2,118660, Note_off_c,0,59,0
2,119000, Note_on_c,0,53,100
2,119000, Note_off_c,0,52,0
2,119060, Note_on_c,0,52,100
2,119060, Note_off_c,0,53,0
2,119360, Note_on_c,0,50,100
2,119360, Note_off_c,0,52,0
2,119480, Note_off_c,0,40,0
2,119500, Note_on_c,0,40,100
2,119800, Note_on_c,0,47,100
2,119800, Note_off_c,0,50,0
2,119860, Note_on_c,0,46,100
2,119860, Note_off_c,0,47,0
2,119980, Note_off_c,0,40,0
2,120040, Note_on_c,0,35,100
2,120040, Note_on_c,0,51,100
2,120040, Note_off_c,0,46,0
2,120060, Note_on_c,0,40,100
2,120060, Note_off_c,0,35,0
2,120060, Note_off_c,0,51,0
2,120140, Note_on_c,0,72,100
2,120240, Note_off_c,0,72,0
2,120260, Note_on_c,0,62,100
2,120300, Note_off_c,0,62,0
2,120320, Note_on_c,0,64,100
2,120400, Note_off_c,0,64,0
2,120420, Note_on_c,0,64,100
2,120460, Note_on_c,0,62,100
2,120460, Note_off_c,0,64,0
2,120860, Note_off_c,0,62,0
2,120880, Note_on_c,0,63,100
2,121040, Note_on_c,0,62,100
2,121040, Note_off_c,0,63,0
2,121060, Note_on_c,0,63,100
2,121060, Note_off_c,0,62,0
2,121200, Note_on_c,0,64,100
2,121200, Note_off_c,0,63,0
2,121240, Note_on_c,0,73,100
2,121240, Note_off_c,0,64,0
2,121800, Note_on_c,0,71,100
2,121800, Note_off_c,0,73,0
2,121820, Note_on_c,0,73,100
2,121820, Note_off_c,0,71,0
2,121960, Note_off_c,0,40,0
2,121960, Note_off_c,0,73,0
2,121980, Note_on_c,0,40,100
2,121980, Note_on_c,0,73,100
2,122140, Note_off_c,0,73,0
2,122160, Note_on_c,0,76,100
2,122560, Note_on_c,0,53,100
2,122620, Note_on_c,0,72,100
2,122620, Note_off_c,0,76,0
2,122640, Note_on_c,0,33,100
2,122640, Note_off_c,0,40,0
2,122640, Note_off_c,0,53,0
2,122660, Note_on_c,0,81,100
2,122980, Note_on_c,0,69,100
2,122980, Note_off_c,0,72,0
2,123220, Note_on_c,0,72,100
2,123220, Note_off_c,0,69,0
2,123280, Note_on_c,0,69,100
2,123280, Note_off_c,0,72,0
2,123480, Note_on_c,0,79,100
2,123480, Note_off_c,0,81,0
2,123500, Note_on_c,0,86,100
2,123520, Note_on_c,0,72,100
2,123520, Note_off_c,0,69,0
2,123540, Note_on_c,0,40,100
2,123540, Note_off_c,0,33,0
2,123580, Note_off_c,0,79,0
2,123600, Note_off_c,0,40,0
2,123600, Note_off_c,0,86,0
2,123620, Note_on_c,0,36,100
2,123620, Note_on_c,0,79,100
2,123700, Note_on_c,0,48,100
2,123700, Note_off_c,0,36,0
2,123880, Note_on_c,0,104,100
2,123880, Note_off_c,0,48,0
2,123900, Note_on_c,0,36,100
2,123900, Note_off_c,0,104,0
2,123940, Note_off_c,0,36,0
2,123940, Note_off_c,0,79,0
2,123960, Note_on_c,0,79,100
2,124060, Note_off_c,0,79,0
2,124080, Note_on_c,0,39,100
2,124080, Note_on_c,0,78,100
2,124140, Note_on_c,0,79,100
2,124140, Note_off_c,0,78,0
2,124300, Note_on_c,0,40,100
2,124300, Note_off_c,0,39,0
2,124320, Note_on_c,0,78,100
2,124320, Note_off_c,0,79,0
2,124340, Note_on_c,0,33,100
2,124340, Note_off_c,0,40,0
2,124520, Note_on_c,0,81,100
2,124520, Note_off_c,0,78,0
2,124540, Note_on_c,0,79,100
2,124540, Note_off_c,0,81,0
2,124680, Note_on_c,0,77,100
2,124680, Note_off_c,0,79,0
2,124780, Note_on_c,0,69,100
2,124780, Note_off_c,0,72,0
2,124800, Note_on_c,0,82,100
2,124800, Note_off_c,0,77,0
2,124860, Note_on_c,0,81,100
2,124860, Note_off_c,0,82,0
2,124920, Note_on_c,0,36,100
2,124920, Note_on_c,0,83,100
2,124940, Note_on_c,0,53,100
2,124940, Note_off_c,0,83,0
2,124960, Note_off_c,0,53,0
2,124980, Note_on_c,0,65,100
2,124980, Note_off_c,0,36,0
2,124980, Note_off_c,0,69,0
2,125020, Note_off_c,0,65,0
2,125040, Note_on_c,0,55,100
2,125040, Note_on_c,0,82,100
2,125060, Note_off_c,0,33,0
2,125060, Note_off_c,0,55,0
2,125060, Note_off_c,0,81,0
2,125060, Note_off_c,0,82,0
2,125080, Note_on_c,0,36,100
2,125080, Note_on_c,0,53,100
2,125080, Note_on_c,0,81,100
2,125160, Note_on_c,0,34,100
2,125220, Note_on_c,0,42,100
2,125240, Note_off_c,0,36,0
2,125320, Note_on_c,0,46,100
2,125320, Note_on_c,0,82,100
2,125320, Note_off_c,0,42,0
2,125320, Note_off_c,0,81,0
2,125400, Note_on_c,0,36,100
2,125400, Note_off_c,0,53,0
2,125420, Note_on_c,0,42,100
2,125420, Note_off_c,0,46,0
2,125460, Note_on_c,0,62,100
2,125460, Note_off_c,0,36,0
2,125460, Note_off_c,0,42,0
2,125460, Note_off_c,0,82,0
2,125500, Note_on_c,0,33,100
2,125500, Note_on_c,0,36,100
2,125500, Note_on_c,0,40,100
2,125500, Note_on_c,0,50,100
2,125500, Note_on_c,0,53,100
2,125500, Note_on_c,0,57,100
2,125500, Note_on_c,0,64,100
2,125500, Note_on_c,0,85,100
2,125500, Note_off_c,0,34,0
2,125520, Note_on_c,0,74,100
2,125520, Note_off_c,0,33,0
2,125520, Note_off_c,0,40,0
2,125520, Note_off_c,0,85,0
2,125540, Note_off_c,0,53,0
2,125580, Note_on_c,0,65,100
2,125580, Note_off_c,0,62,0
2,125600, Note_on_c,0,53,100
2,125600, Note_off_c,0,36,0
2,125600, Note_off_c,0,50,0
2,125600, Note_off_c,0,64,0
2,125620, Note_on_c,0,36,100
2,125840, Note_off_c,0,53,0
2,125880, Note_off_c,0,57,0
2,125900, Note_on_c,0,77,100
2,125900, Note_off_c,0,74,0
2,126000, Note_on_c,0,34,100
2,126000, Note_on_c,0,40,100
2,126000, Note_on_c,0,46,100
2,126020, Note_on_c,0,53,100
2,126020, Note_on_c,0,78,100
2,126020, Note_off_c,0,77,0
2,126040, Note_on_c,0,57,100
2,126040, Note_on_c,0,62,100
2,126040, Note_on_c,0,75,100
2,126040, Note_off_c,0,36,0
2,126040, Note_off_c,0,40,0
2,126040, Note_off_c,0,46,0
2,126040, Note_off_c,0,65,0
2,126040, Note_off_c,0,78,0
2,126060, Note_on_c,0,26,100
2,126060, Note_on_c,0,74,100
2,126060, Note_off_c,0,34,0
2,126060, Note_off_c,0,75,0
2,126080, Note_on_c,0,40,100
2,126080, Note_off_c,0,26,0
2,126100, Note_off_c,0,40,0
2,126140, Note_on_c,0,33,100
2,126140, Note_on_c,0,36,100
2,126140, Note_on_c,0,40,100
2,126140, Note_on_c,0,50,100
2,126140, Note_off_c,0,53,0
2,126160, Note_off_c,0,57,0
2,126180, Note_on_c,0,57,100
2,126180, Note_off_c,0,36,0
2,126180, Note_off_c,0,40,0
2,126180, Note_off_c,0,50,0
2,126220, Note_off_c,0,57,0
2,126240, Note_on_c,0,36,100
2,126240, Note_on_c,0,57,100
2,126260, Note_on_c,0,51,100
2,126260, Note_off_c,0,36,0
2,126260, Note_off_c,0,74,0
2,126280, Note_on_c,0,40,100
2,126280, Note_off_c,0,51,0
2,126300, Note_on_c,0,36,100
2,126300, Note_off_c,0,57,0
2,126320, Note_off_c,0,36,0
2,126320, Note_off_c,0,40,0
2,126340, Note_on_c,0,36,100
2,126340, Note_on_c,0,38,100
2,126360, Note_on_c,0,40,100
2,126360, Note_on_c,0,50,100
2,126360, Note_on_c,0,57,100
2,126360, Note_off_c,0,38,0
2,126360, Note_off_c,0,62,0
2,126380, Note_on_c,0,58,100
2,126380, Note_off_c,0,36,0
2,126380, Note_off_c,0,40,0
2,126380, Note_off_c,0,50,0
2,126380, Note_off_c,0,57,0
2,126400, Note_on_c,0,50,100
2,126400, Note_on_c,0,57,100
2,126400, Note_off_c,0,58,0
2,126420, Note_on_c,0,40,100
2,126420, Note_off_c,0,33,0
2,126440, Note_off_c,0,50,0
2,126460, Note_off_c,0,40,0
2,126500, Note_on_c,0,34,100
2,126500, Note_on_c,0,36,100
2,126500, Note_on_c,0,38,100
2,126500, Note_on_c,0,49,100
2,126500, Note_on_c,0,62,100
2,126500, Note_off_c,0,57,0
2,126520, Note_on_c,0,42,100
2,126520, Note_off_c,0,49,0
2,126540, Note_off_c,0,36,0
2,126540, Note_off_c,0,42,0
2,126560, Note_off_c,0,38,0
2,126600, Note_on_c,0,40,100
2,126600, Note_on_c,0,46,100
2,126600, Note_on_c,0,53,100
2,126600, Note_off_c,0,34,0
2,126620, Note_on_c,0,57,100
2,126620, Note_off_c,0,40,0
2,126620, Note_off_c,0,46,0
2,126620, Note_off_c,0,62,0
2,126640, Note_on_c,0,40,100
2,126640, Note_on_c,0,62,100
2,126660, Note_on_c,0,58,100
2,126660, Note_off_c,0,40,0
2,126660, Note_off_c,0,53,0
2,126680, Note_on_c,0,74,100
2,126680, Note_off_c,0,57,0
2,126680, Note_off_c,0,58,0
2,126680, Note_off_c,0,62,0
2,126700, Note_on_c,0,58,100
2,126700, Note_on_c,0,62,100
2,126760, Note_on_c,0,36,100
2,126760, Note_on_c,0,40,100
2,126760, Note_on_c,0,42,100
2,126780, Note_on_c,0,33,100
2,126780, Note_on_c,0,57,100
2,126780, Note_off_c,0,42,0
2,126780, Note_off_c,0,58,0
2,126800, Note_off_c,0,36,0
2,126800, Note_off_c,0,40,0
2,126840, Note_on_c,0,40,100
2,126840, Note_off_c,0,33,0
2,126880, Note_off_c,0,40,0
2,126880, Note_off_c,0,57,0
2,126900, Note_on_c,0,57,100
2,126920, Note_on_c,0,26,100
2,126940, Note_off_c,0,57,0
2,126980, Note_on_c,0,41,100
2,127000, Note_on_c,0,36,100
2,127000, Note_on_c,0,38,100
2,127000, Note_off_c,0,41,0
2,127020, Note_off_c,0,36,0
2,127040, Note_on_c,0,65,100
2,127040, Note_off_c,0,62,0
2,127060, Note_on_c,0,76,100
2,127060, Note_off_c,0,74,0
2,127200, Note_off_c,0,76,0
2,127220, Note_on_c,0,69,100
2,127220, Note_off_c,0,26,0
2,127220, Note_off_c,0,65,0
2,127240, Note_on_c,0,34,100
2,127240, Note_on_c,0,62,100
2,127240, Note_off_c,0,38,0
2,127260, Note_on_c,0,26,100
2,127260, Note_on_c,0,36,100
2,127260, Note_off_c,0,34,0
2,127260, Note_off_c,0,62,0
2,127280, Note_on_c,0,40,100
2,127280, Note_on_c,0,57,100
2,127280, Note_off_c,0,26,0
2,127280, Note_off_c,0,36,0
2,127300, Note_on_c,0,33,100
2,127300, Note_off_c,0,40,0
2,127360, Note_on_c,0,62,100
2,127360, Note_off_c,0,69,0
2,127420, Note_on_c,0,69,100
2,127420, Note_off_c,0,33,0
2,127420, Note_off_c,0,62,0
2,127440, Note_on_c,0,62,100
2,127440, Note_off_c,0,69,0
2,127460, Note_on_c,0,36,100
2,127480, Note_on_c,0,58,100
2,127480, Note_off_c,0,57,0
2,127500, Note_off_c,0,36,0
2,127540, Note_on_c,0,40,100
2,127540, Note_on_c,0,46,100
2,127540, Note_on_c,0,54,100
2,127540, Note_off_c,0,58,0
2,127580, Note_off_c,0,46,0
2,127600, Note_off_c,0,40,0
2,127620, Note_on_c,0,40,100
2,127620, Note_on_c,0,53,100
2,127620, Note_on_c,0,61,100
2,127620, Note_off_c,0,54,0
2,127640, Note_on_c,0,38,100
2,127640, Note_on_c,0,58,100
2,127640, Note_off_c,0,40,0
2,127640, Note_off_c,0,61,0
2,127740, Note_on_c,0,56,100
2,127740, Note_off_c,0,38,0
2,127740, Note_off_c,0,53,0
2,127740, Note_off_c,0,58,0
2,127760, Note_on_c,0,53,100
2,127760, Note_on_c,0,65,100
2,127760, Note_off_c,0,56,0
2,127780, Note_on_c,0,67,100
2,127780, Note_off_c,0,65,0
2,127800, Note_off_c,0,62,0
2,128080, Note_on_c,0,69,100
2,128080, Note_off_c,0,67,0
2,128120, Note_on_c,0,74,100
2,128120, Note_off_c,0,69,0
2,128220, Note_on_c,0,52,100
2,128220, Note_off_c,0,53,0
2,128320, Note_on_c,0,72,100
2,128320, Note_off_c,0,74,0
2,128340, Note_on_c,0,64,100
2,128340, Note_on_c,0,71,100
2,128340, Note_off_c,0,72,0
2,128420, Note_on_c,0,59,100
2,128440, Note_on_c,0,40,100
2,128440, Note_on_c,0,55,100
2,128440, Note_off_c,0,59,0
2,128440, Note_off_c,0,64,0
2,128440, Note_off_c,0,71,0
2,128460, Note_on_c,0,64,100
2,128460, Note_off_c,0,52,0
2,128480, Note_off_c,0,40,0
2,128500, Note_on_c,0,51,100
2,128500, Note_off_c,0,55,0
2,128520, Note_on_c,0,34,100
2,128520, Note_on_c,0,36,100
2,128520, Note_on_c,0,46,100
2,128520, Note_on_c,0,55,100
2,128520, Note_on_c,0,62,100
2,128520, Note_off_c,0,51,0
2,128520, Note_off_c,0,64,0
2,128540, Note_off_c,0,34,0
2,128600, Note_on_c,0,38,100
2,128620, Note_on_c,0,50,100
2,128620, Note_on_c,0,65,100
2,128620, Note_off_c,0,36,0
2,128620, Note_off_c,0,46,0
2,128620, Note_off_c,0,55,0
2,128620, Note_off_c,0,62,0
2,128780, Note_on_c,0,36,100
2,128780, Note_off_c,0,38,0
2,128800, Note_on_c,0,29,100
2,128840, Note_off_c,0,36,0
2,128880, Note_on_c,0,33,100
2,128880, Note_on_c,0,36,100
2,128880, Note_off_c,0,29,0
2,128880, Note_off_c,0,50,0
2,128900, Note_off_c,0,36,0
2,128900, Note_off_c,0,65,0
2,128920, Note_on_c,0,34,100
2,128920, Note_off_c,0,33,0
2,128940, Note_on_c,0,53,100
2,128940, Note_on_c,0,54,100
2,128940, Note_on_c,0,65,100
2,128940, Note_off_c,0,34,0
2,128960, Note_on_c,0,34,100
2,128960, Note_on_c,0,36,100
2,128960, Note_on_c,0,46,100
2,128960, Note_on_c,0,61,100
2,128960, Note_off_c,0,53,0
2,128980, Note_on_c,0,53,100
2,128980, Note_off_c,0,36,0
2,128980, Note_off_c,0,54,0
2,129000, Note_on_c,0,70,100
2,129020, Note_on_c,0,36,100
2,129020, Note_off_c,0,53,0
2,129040, Note_off_c,0,61,0
2,129060, Note_off_c,0,36,0
2,129060, Note_off_c,0,70,0
2,129080, Note_on_c,0,69,100
2,129100, Note_on_c,0,36,100
2,129100, Note_on_c,0,40,100
2,129100, Note_on_c,0,44,100
2,129100, Note_on_c,0,53,100
2,129100, Note_on_c,0,58,100
2,129100, Note_off_c,0,46,0
2,129120, Note_on_c,0,42,100
2,129120, Note_on_c,0,56,100
2,129120, Note_off_c,0,40,0
2,129120, Note_off_c,0,58,0
2,129140, Note_off_c,0,36,0
2,129140, Note_off_c,0,44,0
2,129140, Note_off_c,0,56,0
2,129160, Note_on_c,0,77,100
2,129160, Note_off_c,0,42,0
2,129260, Note_on_c,0,40,100
2,129260, Note_off_c,0,34,0
2,129280, Note_off_c,0,40,0
2,129320, Note_off_c,0,69,0
2,129420, Note_on_c,0,46,100
2,129840, Note_on_c,0,69,100
2,129840, Note_off_c,0,65,0
2,129880, Note_on_c,0,70,100
2,129880, Note_off_c,0,69,0
2,129920, Note_off_c,0,46,0
2,130020, Note_off_c,0,53,0
2,130040, Note_on_c,0,44,100
2,130140, Note_off_c,0,70,0
2,130160, Note_on_c,0,70,100
2,130840, Note_on_c,0,65,100
2,130840, Note_off_c,0,70,0
2,131060, Note_off_c,0,65,0
2,131180, Note_on_c,0,49,100
2,131180, Note_off_c,0,44,0
2,131280, Note_on_c,0,80,100
2,131280, Note_off_c,0,49,0
2,131280, Note_off_c,0,77,0
2,131300, Note_on_c,0,45,100
2,131300, Note_on_c,0,65,100
2,131300, Note_on_c,0,76,100
2,131300, Note_off_c,0,80,0
2,131340, Note_off_c,0,45,0
2,131340, Note_off_c,0,65,0
2,131340, Note_off_c,0,76,0
2,131360, Note_on_c,0,50,100
2,131360, Note_on_c,0,72,100
2,131360, Note_on_c,0,69,100
2,131420, Note_off_c,0,69,0
2,131460, Note_on_c,0,74,100
2,131640, Note_on_c,0,76,100
2,131640, Note_off_c,0,74,0
2,131660, Note_on_c,0,45,100
2,131660, Note_off_c,0,50,0
2,132180, Note_off_c,0,45,0
2,132180, Note_off_c,0,72,0
2,132180, Note_off_c,0,76,0
2,132200, Note_on_c,0,47,100
2,132200, Note_on_c,0,71,100
2,132200, Note_on_c,0,76,100
2,132300, Note_on_c,0,67,100
2,132300, Note_off_c,0,71,0
2,132420, Note_on_c,0,74,100
2,132420, Note_off_c,0,76,0
2,132440, Note_on_c,0,54,100
2,132440, Note_off_c,0,47,0
2,132800, Note_off_c,0,74,0
2,132820, Note_on_c,0,73,100
2,132880, Note_on_c,0,68,100
2,132880, Note_on_c,0,76,100
2,132880, Note_off_c,0,67,0
2,132880, Note_off_c,0,73,0
2,132940, Note_on_c,0,69,100
2,132940, Note_off_c,0,68,0
2,133880, Note_on_c,0,49,100
2,133880, Note_off_c,0,54,0
2,133900, Note_off_c,0,69,0
2,133920, Note_on_c,0,71,100
2,133960, Note_off_c,0,71,0
2,134140, Note_on_c,0,78,100
2,134140, Note_off_c,0,76,0
2,134240, Note_on_c,0,54,100
2,134240, Note_off_c,0,49,0
2,134260, Note_off_c,0,78,0
2,134280, Note_on_c,0,49,100
2,134280, Note_on_c,0,78,100
2,134280, Note_off_c,0,54,0
2,134800, Note_on_c,0,54,100
2,134800, Note_off_c,0,49,0
2,135040, Note_on_c,0,61,100
2,135040, Note_off_c,0,54,0
2,135440, Note_on_c,0,54,100
2,135440, Note_off_c,0,61,0
2,135480, Note_on_c,0,52,100
2,135480, Note_off_c,0,54,0
2,135640, Note_on_c,0,54,100
2,135640, Note_on_c,0,79,100
2,135640, Note_off_c,0,52,0
2,135640, Note_off_c,0,78,0
2,135680, Note_on_c,0,45,100
2,135680, Note_off_c,0,54,0
2,136000, Note_on_c,0,76,100
2,136000, Note_off_c,0,79,0
2,136100, Note_on_c,0,69,100
2,136140, Note_off_c,0,69,0
2,136380, Note_on_c,0,57,100
2,136860, Note_on_c,0,59,100
2,136860, Note_off_c,0,57,0
2,137120, Note_on_c,0,57,100
2,137120, Note_off_c,0,59,0
2,138000, Note_off_c,0,45,0
2,138540, Note_on_c,0,64,100
2,138540, Note_off_c,0,57,0
2,138540, Note_off_c,0,76,0
2,138620, Note_on_c,0,57,100
2,138620, Note_off_c,0,64,0
2,138660, Note_on_c,0,76,100
2,139240, Note_on_c,0,78,100
2,139240, Note_off_c,0,76,0
2,139260, Note_on_c,0,62,100
2,139620, Note_on_c,0,50,100
2,139640, Note_on_c,0,66,100
2,139640, Note_off_c,0,62,0
2,139700, Note_on_c,0,47,100
2,139700, Note_off_c,0,57,0
2,139720, Note_off_c,0,47,0
2,139820, Note_on_c,0,57,100
2,139880, Note_off_c,0,57,0
2,140300, Note_on_c,0,62,100
2,140300, Note_off_c,0,66,0
2,140340, Note_off_c,0,62,0
2,140400, Note_off_c,0,78,0
2,140420, Note_on_c,0,69,100
2,140500, Note_on_c,0,76,100
2,140500, Note_off_c,0,69,0
2,140640, Note_on_c,0,52,100
2,140640, Note_off_c,0,50,0
2,140800, Note_on_c,0,47,100
2,140800, Note_off_c,0,52,0
2,140880, Note_on_c,0,43,100
2,140880, Note_off_c,0,47,0
2,141080, Note_on_c,0,66,100
2,141080, Note_off_c,0,43,0
2,141080, Note_off_c,0,76,0
2,141100, Note_on_c,0,43,100
2,141120, Note_on_c,0,59,100
2,141340, Note_off_c,0,59,0
2,141520, Note_on_c,0,59,100
2,141520, Note_off_c,0,66,0
2,141680, Note_off_c,0,59,0
2,141720, Note_on_c,0,55,100
2,141860, Note_off_c,0,55,0
2,141960, Note_off_c,0,43,0
2,141980, Note_on_c,0,43,100
2,141980, Note_on_c,0,50,100
2,142140, Note_off_c,0,50,0
2,142420, Note_off_c,0,43,0
2,142460, Note_on_c,0,62,100
2,142560, Note_off_c,0,62,0
2,142640, Note_on_c,0,50,100
2,142700, Note_off_c,0,50,0
2,142920, Note_on_c,0,50,100
2,143000, Note_off_c,0,50,0
2,143240, Note_on_c,0,50,100
2,143320, Note_off_c,0,50,0
2,143360, Note_on_c,0,72,100
2,143620, Note_off_c,0,72,0
2,143640, Note_on_c,0,72,100
2,143900, Note_off_c,0,72,0
2,143920, Note_on_c,0,65,100
2,143980, Note_off_c,0,65,0
2,144020, Note_on_c,0,74,100
2,144120, Note_off_c,0,74,0
2,144140, Note_on_c,0,79,100
2,145040, Note_on_c,0,76,100
2,145040, Note_off_c,0,79,0
2,145440, Note_off_c,0,76,0
2,145460, Note_on_c,0,50,100
2,145460, Note_on_c,0,74,100
2,145520, Note_off_c,0,50,0
2,145520, Note_off_c,0,74,0
2,145540, Note_on_c,0,50,100
2,145540, Note_on_c,0,70,100
2,145580, Note_off_c,0,50,0
2,145580, Note_off_c,0,70,0
2,145600, Note_on_c,0,50,100
2,145600, Note_on_c,0,70,100
2,145640, Note_off_c,0,70,0
2,145660, Note_off_c,0,50,0
2,145680, Note_on_c,0,50,100
2,145780, Note_on_c,0,74,100
2,145780, Note_off_c,0,50,0
2,145860, Note_off_c,0,74,0
2,145960, Note_on_c,0,50,100
2,145960, Note_on_c,0,67,100
2,146040, Note_on_c,0,55,100
2,146040, Note_off_c,0,50,0
2,146680, Note_off_c,0,55,0
2,146680, Note_off_c,0,67,0
2,146700, Note_on_c,0,55,100
2,146700, Note_on_c,0,69,100
2,146740, Note_off_c,0,55,0
2,146740, Note_off_c,0,69,0
2,146760, Note_on_c,0,50,100
2,146760, Note_on_c,0,69,100
2,146820, Note_off_c,0,69,0
2,146840, Note_on_c,0,74,100
2,146920, Note_off_c,0,74,0
2,146940, Note_on_c,0,74,100
2,147000, Note_off_c,0,74,0
2,147020, Note_on_c,0,76,100
2,147060, Note_off_c,0,50,0
2,147060, Note_off_c,0,76,0
2,147160, Note_on_c,0,67,100
2,147260, Note_on_c,0,69,100
2,147260, Note_off_c,0,67,0
2,147300, Note_off_c,0,69,0
2,147320, Note_on_c,0,55,100
2,147320, Note_on_c,0,74,100
2,147400, Note_off_c,0,55,0
2,147400, Note_off_c,0,74,0
2,147440, Note_on_c,0,51,100
2,147520, Note_on_c,0,44,100
2,147520, Note_on_c,0,57,100
2,147520, Note_off_c,0,51,0
2,147540, Note_off_c,0,44,0
2,147600, Note_off_c,0,57,0
2,147620, Note_on_c,0,69,100
2,147680, Note_off_c,0,69,0
2,147700, Note_on_c,0,72,100
2,148120, Note_off_c,0,72,0
2,148140, Note_on_c,0,57,100
2,148140, Note_on_c,0,62,100
2,148140, Note_on_c,0,69,100
2,148160, Note_off_c,0,69,0
2,148220, Note_on_c,0,51,100
2,148240, Note_off_c,0,51,0
2,148320, Note_off_c,0,57,0
2,148320, Note_off_c,0,62,0
2,148340, Note_on_c,0,50,100
2,148360, Note_off_c,0,50,0
2,148380, Note_on_c,0,50,100
2,148420, Note_off_c,0,50,0
2,148460, Note_on_c,0,50,100
2,148480, Note_on_c,0,62,100
2,148480, Note_off_c,0,50,0
2,148500, Note_off_c,0,62,0
2,148520, Note_on_c,0,50,100
2,148520, Note_on_c,0,62,100
2,148520, Note_on_c,0,69,100
2,148560, Note_off_c,0,62,0
2,148560, Note_off_c,0,69,0
2,148580, Note_on_c,0,62,100
2,148640, Note_off_c,0,62,0
2,148680, Note_off_c,0,50,0
2,148860, Note_on_c,0,50,100
2,148860, Note_on_c,0,74,100
2,148920, Note_off_c,0,50,0
2,148920, Note_off_c,0,74,0
2,148940, Note_on_c,0,64,100
2,149040, Note_on_c,0,50,100
2,149040, Note_off_c,0,64,0
2,149060, Note_off_c,0,50,0
2,149080, Note_on_c,0,76,100
2,149440, Note_off_c,0,76,0
2,149460, Note_on_c,0,52,100
2,149460, Note_on_c,0,71,100
2,149580, Note_on_c,0,72,100
2,149580, Note_off_c,0,52,0
2,149580, Note_off_c,0,71,0
2,149680, Note_off_c,0,72,0
2,149920, Note_on_c,0,59,100
2,149920, Note_on_c,0,71,100
2,150260, Note_off_c,0,71,0
2,150280, Note_on_c,0,56,100
2,150280, Note_off_c,0,59,0
2,150300, Note_on_c,0,63,100
2,150300, Note_on_c,0,74,100
2,150300, Note_off_c,0,56,0
2,150360, Note_on_c,0,62,100
2,150360, Note_off_c,0,63,0
2,150980, Note_off_c,0,62,0
2,151180, Note_on_c,0,70,100
2,151180, Note_off_c,0,74,0
2,151300, Note_on_c,0,72,100
2,151300, Note_off_c,0,70,0
2,154920, Note_on_c,0,71,100
2,154920, Note_off_c,0,72,0
2,155180, Note_on_c,0,67,100
2,155180, Note_off_c,0,71,0
2,192000, Note_on_c,0,68,100
2,192000, Note_off_c,0,67,0
2,192020, Note_on_c,0,67,100
2,192020, Note_off_c,0,68,0
2,192220, Note_on_c,0,69,100
2,192520, Note_off_c,0,69,0
2,192540, Note_on_c,0,62,100
2,195500, Note_on_c,0,50,100
2,195600, Note_off_c,0,50,0
2,199360, Note_off_c,0,62,0
2,199380, Note_on_c,0,64,100
2,199720, Note_off_c,0,64,0
2,200520, Note_on_c,0,72,100
2,200520, Note_off_c,0,67,0
2,202620, Note_on_c,0,74,100
2,202620, Note_off_c,0,72,0
2,202880, Note_on_c,0,71,100
2,202880, Note_off_c,0,74,0
2,202940, Note_on_c,0,72,100
2,202940, Note_off_c,0,71,0
2,211380, Note_on_c,0,57,100
2,211380, Note_on_c,0,71,100
2,211380, Note_on_c,0,76,100
2,211380, Note_off_c,0,72,0
2,211480, Note_on_c,0,64,100
2,211480, Note_off_c,0,57,0
2,212220, Note_on_c,0,69,100
2,212220, Note_off_c,0,64,0
2,212260, Note_off_c,0,71,0
2,212800, Note_on_c,0,64,100
2,213000, Note_on_c,0,67,100
2,213000, Note_off_c,0,69,0
2,213060, Note_off_c,0,64,0
2,213340, Note_on_c,0,72,100
2,213340, Note_off_c,0,76,0
2,213960, Note_on_c,0,71,100
2,213960, Note_off_c,0,72,0
2,216540, Note_on_c,0,62,100
2,216720, Note_on_c,0,50,100
2,216920, Note_off_c,0,50,0
2,217460, Note_on_c,0,50,100
2,217500, Note_off_c,0,50,0
2,217580, Note_on_c,0,50,100
2,217660, Note_off_c,0,50,0
2,218820, Note_off_c,0,62,0
2,220820, Note_on_c,0,50,100
2,220820, Note_on_c,0,73,100
2,220820, Note_off_c,0,71,0
2,220940, Note_on_c,0,69,100
2,220940, Note_off_c,0,67,0
2,221200, Note_on_c,0,62,100
2,221200, Note_on_c,0,76,100
2,221200, Note_off_c,0,50,0
2,221200, Note_off_c,0,73,0
2,221880, Note_on_c,0,57,100
2,221880, Note_off_c,0,62,0
2,222560, Note_off_c,0,57,0
2,222580, Note_on_c,0,57,100
2,223120, Note_off_c,0,57,0
2,223200, Note_on_c,0,60,100
2,223420, Note_off_c,0,60,0
2,223480, Note_on_c,0,50,100
2,224000, Note_off_c,0,50,0
2,224120, Note_on_c,0,50,100
2,224500, Note_off_c,0,50,0
2,224500, Note_off_c,0,69,0
2,224560, Note_on_c,0,64,100
2,227240, Note_off_c,0,64,0
2,227260, Note_on_c,0,65,100
2,227380, Note_on_c,0,60,100
2,227380, Note_off_c,0,65,0
2,228900, Note_on_c,0,64,100
2,228900, Note_off_c,0,60,0
2,229640, Note_off_c,0,76,0
2,230480, Note_on_c,0,67,100
2,230480, Note_off_c,0,64,0
2,230780, Note_on_c,0,71,100
2,230780, Note_off_c,0,67,0
2,230900, Note_on_c,0,74,100
2,230900, Note_off_c,0,71,0
2,231000, Note_on_c,0,69,100
2,231000, Note_off_c,0,74,0
2,231060, Note_on_c,0,67,100
2,231060, Note_off_c,0,69,0
2,231220, Note_on_c,0,71,100
2,231220, Note_off_c,0,67,0
2,231340, Note_on_c,0,67,100
2,231340, Note_off_c,0,71,0
2,231440, Note_on_c,0,69,100
2,231440, Note_off_c,0,67,0
2,231580, Note_on_c,0,76,100
2,231580, Note_off_c,0,69,0
2,231660, Note_on_c,0,67,100
2,231660, Note_off_c,0,76,0
2,232560, Note_on_c,0,72,100
2,232560, Note_off_c,0,67,0
2,233860, Note_on_c,0,67,100
2,233860, Note_off_c,0,72,0
2,234180, Note_on_c,0,74,100
2,234180, Note_off_c,0,67,0
2,234320, Note_on_c,0,76,100
2,234320, Note_off_c,0,74,0
2,234460, Note_on_c,0,65,100
2,234460, Note_off_c,0,76,0
2,234620, Note_on_c,0,67,100
2,234620, Note_off_c,0,65,0
2,254640, Note_on_c,0,71,100
2,254640, Note_off_c,0,67,0
2,254740, Note_on_c,0,50,100
2,254740, Note_off_c,0,71,0
2,254900, Note_on_c,0,62,100
2,254900, Note_off_c,0,50,0
2,255020, Note_on_c,0,50,100
2,255020, Note_on_c,0,67,100
2,255020, Note_off_c,0,62,0
2,255060, Note_off_c,0,50,0
2,263400, Note_on_c,0,78,100
2,263500, Note_on_c,0,74,100
2,263500, Note_off_c,0,78,0
2,264580, Note_on_c,0,70,100
2,264580, Note_off_c,0,74,0
2,265200, Note_on_c,0,69,100
2,265200, Note_off_c,0,70,0
2,265240, Note_off_c,0,69,0
2,272880, Note_on_c,0,79,100
2,272940, Note_on_c,0,74,100
2,272940, Note_off_c,0,79,0
2,273040, Note_on_c,0,62,100
2,275760, Note_on_c,0,72,100
2,275760, Note_off_c,0,62,0
2,275760, Note_off_c,0,74,0
2,275780, Note_on_c,0,76,100
2,275780, Note_off_c,0,67,0
2,275980, Note_off_c,0,72,0
2,276080, Note_on_c,0,72,100
2,283140, Note_on_c,0,40,100
2,283200, Note_off_c,0,40,0
2,283860, Note_on_c,0,48,100
2,283860, Note_off_c,0,72,0
2,283860, Note_off_c,0,76,0
2,283880, Note_on_c,0,50,100
2,283880, Note_on_c,0,69,100
2,283880, Note_on_c,0,76,100
2,283880, Note_off_c,0,48,0
2,283960, Note_off_c,0,50,0
2,284160, Note_on_c,0,50,100
2,284560, Note_off_c,0,50,0
2,285680, Note_off_c,0,76,0
2,285700, Note_on_c,0,79,100
2,285720, Note_off_c,0,69,0
2,285780, Note_off_c,0,79,0
2,285800, Note_on_c,0,52,100
2,285800, Note_on_c,0,79,100
2,285900, Note_on_c,0,69,100
2,286000, Note_off_c,0,52,0
2,286140, Note_on_c,0,67,100
2,286140, Note_off_c,0,69,0
2,286360, Note_on_c,0,50,100
2,286360, Note_on_c,0,71,100
2,286360, Note_off_c,0,67,0
2,286440, Note_off_c,0,50,0
2,286460, Note_on_c,0,50,100
2,286460, Note_on_c,0,74,100
2,286460, Note_off_c,0,71,0
2,286620, Note_off_c,0,79,0
2,286880, Note_off_c,0,50,0
2,286900, Note_off_c,0,74,0
2,286920, Note_on_c,0,38,100
2,286920, Note_on_c,0,74,100
2,287000, Note_off_c,0,38,0
2,287000, Note_off_c,0,74,0
2,287020, Note_on_c,0,74,100
2,287100, Note_off_c,0,74,0
2,287200, Note_on_c,0,33,100
2,287220, Note_on_c,0,45,100
2,287220, Note_off_c,0,33,0
2,287240, Note_on_c,0,33,100
2,287260, Note_off_c,0,45,0
2,287280, Note_on_c,0,42,100
2,287280, Note_off_c,0,33,0
2,287300, Note_on_c,0,33,100
2,287320, Note_on_c,0,37,100
2,287320, Note_off_c,0,33,0
2,287340, Note_on_c,0,44,100
2,287340, Note_on_c,0,76,100
2,287340, Note_off_c,0,42,0
2,287380, Note_off_c,0,44,0
2,287720, Note_on_c,0,33,100
2,287720, Note_off_c,0,37,0
2,288080, Note_on_c,0,72,100
2,288080, Note_off_c,0,76,0
2,288200, Note_on_c,0,81,100
2,288420, Note_on_c,0,69,100
2,288420, Note_off_c,0,72,0
2,288500, Note_on_c,0,70,100
2,288500, Note_off_c,0,69,0
2,288600, Note_on_c,0,69,100
2,288600, Note_off_c,0,70,0
2,288640, Note_off_c,0,69,0
2,288640, Note_off_c,0,81,0
2,288660, Note_on_c,0,40,100
2,288660, Note_on_c,0,64,100
2,288660, Note_on_c,0,79,100
2,288660, Note_on_c,0,81,100
2,288660, Note_off_c,0,33,0
2,288680, Note_on_c,0,77,100
2,288680, Note_on_c,0,84,100
2,288680, Note_off_c,0,79,0
2,288680, Note_off_c,0,81,0
2,288700, Note_on_c,0,34,100
2,288700, Note_on_c,0,36,100
2,288700, Note_on_c,0,78,100
2,288700, Note_off_c,0,64,0
2,288720, Note_on_c,0,33,100
2,288720, Note_on_c,0,37,100
2,288720, Note_on_c,0,49,100
2,288720, Note_on_c,0,57,100
2,288720, Note_on_c,0,81,100
2,288720, Note_off_c,0,34,0
2,288720, Note_off_c,0,78,0
2,288720, Note_off_c,0,84,0
2,288740, Note_on_c,0,50,100
2,288740, Note_off_c,0,37,0
2,288760, Note_off_c,0,36,0
2,288760, Note_off_c,0,49,0
2,288780, Note_off_c,0,40,0
2,288780, Note_off_c,0,50,0
2,288800, Note_on_c,0,53,100
2,288800, Note_off_c,0,33,0
2,288820, Note_on_c,0,50,100
2,288820, Note_on_c,0,83,100
2,288820, Note_off_c,0,57,0
2,288820, Note_off_c,0,77,0
2,288840, Note_off_c,0,50,0
2,288860, Note_off_c,0,81,0
2,288920, Note_off_c,0,53,0
2,288980, Note_on_c,0,91,100
2,288980, Note_off_c,0,83,0
2,289000, Note_on_c,0,50,100
2,289000, Note_on_c,0,83,100
2,289000, Note_off_c,0,91,0
2,289060, Note_off_c,0,50,0
2,289080, Note_on_c,0,50,100
2,289260, Note_on_c,0,54,100
2,289260, Note_off_c,0,50,0
2,289300, Note_on_c,0,78,100
2,289300, Note_off_c,0,83,0
2,289800, Note_on_c,0,77,100
2,289800, Note_off_c,0,78,0
2,290020, Note_on_c,0,71,100
2,290020, Note_off_c,0,77,0
2,290040, Note_on_c,0,66,100
2,290060, Note_on_c,0,52,100
2,290060, Note_off_c,0,54,0
2,290080, Note_on_c,0,49,100
2,290080, Note_off_c,0,52,0
2,290160, Note_off_c,0,49,0
2,290260, Note_off_c,0,71,0
2,290540, Note_on_c,0,73,100
2,290660, Note_on_c,0,67,100
2,290660, Note_off_c,0,66,0
2,290820, Note_on_c,0,71,100
2,290820, Note_off_c,0,73,0
2,290960, Note_on_c,0,50,100
2,291000, Note_off_c,0,50,0
2,291140, Note_on_c,0,50,100
2,291220, Note_off_c,0,50,0
2,291260, Note_on_c,0,50,100
2,291280, Note_on_c,0,69,100
2,291280, Note_off_c,0,67,0
2,291320, Note_off_c,0,69,0
2,291340, Note_off_c,0,50,0
2,291540, Note_on_c,0,72,100
2,291540, Note_off_c,0,71,0
2,292860, Note_on_c,0,66,100
2,292860, Note_on_c,0,69,100
2,292860, Note_off_c,0,72,0
2,293160, Note_off_c,0,66,0
2,293160, Note_off_c,0,69,0
2,293180, Note_on_c,0,47,100
2,293180, Note_on_c,0,69,100
2,293320, Note_off_c,0,69,0
2,293340, Note_on_c,0,71,100
2,293340, Note_on_c,0,76,100
2,293460, Note_off_c,0,71,0
2,293560, Note_off_c,0,76,0
2,293580, Note_off_c,0,47,0
2,293600, Note_on_c,0,76,100
2,293680, Note_on_c,0,52,100
2,293760, Note_on_c,0,57,100
2,293760, Note_off_c,0,52,0
2,294180, Note_on_c,0,64,100
2,294180, Note_off_c,0,57,0
2,294420, Note_off_c,0,76,0
2,294480, Note_on_c,0,76,100
2,294540, Note_off_c,0,76,0
2,294560, Note_on_c,0,60,100
2,294700, Note_on_c,0,76,100
2,294760, Note_off_c,0,64,0
2,294820, Note_off_c,0,76,0
2,295040, Note_on_c,0,74,100
2,295140, Note_on_c,0,76,100
2,295140, Note_off_c,0,74,0
2,295280, Note_on_c,0,79,100
2,295280, Note_off_c,0,76,0
2,295320, Note_on_c,0,76,100
2,295320, Note_off_c,0,79,0
2,295500, Note_on_c,0,79,100
2,295500, Note_off_c,0,76,0
2,295600, Note_on_c,0,76,100
2,295600, Note_off_c,0,79,0
2,295800, Note_on_c,0,48,100
2,295800, Note_off_c,0,60,0
2,296180, Note_on_c,0,78,100
2,296180, Note_off_c,0,76,0
2,296200, Note_on_c,0,79,100
2,296200, Note_off_c,0,78,0
2,296260, Note_on_c,0,78,100
2,296260, Note_off_c,0,79,0
2,296360, Note_on_c,0,81,100
2,296360, Note_off_c,0,78,0
2,296580, Note_on_c,0,52,100
2,296580, Note_off_c,0,48,0
2,296640, Note_on_c,0,54,100
2,296640, Note_off_c,0,52,0
2,296640, Note_off_c,0,81,0
2,296660, Note_on_c,0,48,100
2,296660, Note_on_c,0,79,100
2,296660, Note_off_c,0,54,0
2,296740, Note_on_c,0,60,100
2,296740, Note_off_c,0,48,0
2,297220, Note_on_c,0,59,100
2,297220, Note_off_c,0,60,0
2,297300, Note_off_c,0,59,0
2,297340, Note_on_c,0,27,100
2,297340, Note_on_c,0,81,100
2,297360, Note_on_c,0,48,100
2,297360, Note_off_c,0,27,0
2,297360, Note_off_c,0,79,0
2,297720, Note_on_c,0,79,100
2,297720, Note_off_c,0,81,0
2,297800, Note_off_c,0,79,0
2,297820, Note_on_c,0,79,100
2,297860, Note_on_c,0,41,100
2,297860, Note_on_c,0,69,100
2,297860, Note_off_c,0,48,0
2,298120, Note_on_c,0,76,100
2,298120, Note_off_c,0,69,0
2,298120, Note_off_c,0,79,0
2,298180, Note_off_c,0,41,0
2,298180, Note_off_c,0,76,0
2,298200, Note_on_c,0,40,100
2,298200, Note_on_c,0,72,100
2,298200, Note_on_c,0,74,100
2,298220, Note_on_c,0,76,100
2,298220, Note_off_c,0,74,0
2,298260, Note_off_c,0,72,0
2,298260, Note_off_c,0,76,0
2,298280, Note_on_c,0,71,100
2,298280, Note_on_c,0,72,100
2,298300, Note_off_c,0,72,0
2,298360, Note_on_c,0,72,100
2,298360, Note_off_c,0,71,0
2,298400, Note_on_c,0,64,100
2,298500, Note_on_c,0,63,100
2,298500, Note_off_c,0,64,0
2,298580, Note_on_c,0,62,100
2,298580, Note_off_c,0,63,0
2,298620, Note_off_c,0,62,0
2,298660, Note_on_c,0,71,100
2,298660, Note_off_c,0,72,0
2,298740, Note_off_c,0,71,0
2,298760, Note_on_c,0,55,100
2,298780, Note_on_c,0,61,100
2,298780, Note_off_c,0,55,0
2,298900, Note_off_c,0,61,0
2,298960, Note_on_c,0,69,100
2,299200, Note_off_c,0,69,0
2,299220, Note_on_c,0,65,100
2,299320, Note_on_c,0,62,100
2,299320, Note_off_c,0,65,0
2,299400, Note_off_c,0,40,0
2,299400, Note_off_c,0,62,0
2,299420, Note_on_c,0,40,100
2,299420, Note_on_c,0,67,100
2,299500, Note_off_c,0,40,0
2,299500, Note_off_c,0,67,0
2,299520, Note_on_c,0,40,100
2,299520, Note_on_c,0,65,100
2,299520, Note_on_c,0,73,100
2,299640, Note_on_c,0,66,100
2,299640, Note_off_c,0,65,0
2,299640, Note_off_c,0,73,0
2,299660, Note_on_c,0,65,100
2,299660, Note_on_c,0,73,100
2,299660, Note_off_c,0,66,0
2,299820, Note_on_c,0,66,100
2,299820, Note_off_c,0,65,0
2,300000, Note_on_c,0,71,100
2,300000, Note_off_c,0,73,0
2,300020, Note_on_c,0,64,100
2,300020, Note_off_c,0,71,0
2,300120, Note_on_c,0,47,100
2,300120, Note_off_c,0,40,0
2,300200, Note_on_c,0,41,100
2,300200, Note_off_c,0,47,0
2,300240, Note_on_c,0,45,100
2,300240, Note_off_c,0,41,0
2,300400, Note_off_c,0,66,0
2,300420, Note_on_c,0,65,100
2,300420, Note_off_c,0,45,0
2,300440, Note_on_c,0,38,100
2,300440, Note_off_c,0,64,0
2,300480, Note_off_c,0,38,0
2,300500, Note_on_c,0,49,100
2,300560, Note_on_c,0,54,100
2,300560, Note_on_c,0,66,100
2,300560, Note_off_c,0,49,0
2,300560, Note_off_c,0,65,0
2,300600, Note_on_c,0,62,100
2,300600, Note_off_c,0,54,0
2,300640, Note_on_c,0,50,100
2,300680, Note_off_c,0,50,0
2,300700, Note_on_c,0,50,100
2,300900, Note_off_c,0,62,0
2,301120, Note_on_c,0,69,100
2,301120, Note_off_c,0,66,0
2,301780, Note_on_c,0,55,100
2,301780, Note_off_c,0,50,0
2,301840, Note_on_c,0,74,100
2,301840, Note_off_c,0,69,0
2,301880, Note_on_c,0,69,100
2,301880, Note_off_c,0,74,0
2,302040, Note_on_c,0,48,100
2,302040, Note_off_c,0,55,0
2,302500, Note_on_c,0,55,100
2,302500, Note_off_c,0,48,0
2,302640, Note_on_c,0,67,100
2,302640, Note_off_c,0,69,0
2,302680, Note_on_c,0,69,100
2,302680, Note_off_c,0,67,0
2,303140, Note_on_c,0,51,100
2,303140, Note_off_c,0,55,0
2,303300, Note_on_c,0,50,100
2,303300, Note_off_c,0,51,0
2,304000, Note_on_c,0,70,100
2,304000, Note_off_c,0,69,0
2,304060, Note_on_c,0,71,100
2,304060, Note_off_c,0,70,0
2,304140, Note_on_c,0,69,100
2,304140, Note_off_c,0,71,0
2,304260, Note_on_c,0,55,100
2,304260, Note_off_c,0,50,0
2,304540, Note_on_c,0,74,100
2,304540, Note_off_c,0,69,0
2,304580, Note_on_c,0,73,100
2,304580, Note_off_c,0,74,0
2,304680, Note_on_c,0,50,100
2,304680, Note_off_c,0,55,0
2,305420, Note_on_c,0,45,100
2,305420, Note_off_c,0,50,0
2,305440, Note_on_c,0,56,100
2,305520, Note_off_c,0,56,0
2,305580, Note_on_c,0,49,100
2,305580, Note_on_c,0,64,100
2,305580, Note_off_c,0,45,0
2,305800, Note_on_c,0,71,100
2,305800, Note_off_c,0,73,0
2,305820, Note_on_c,0,37,100
2,305820, Note_off_c,0,49,0
2,306140, Note_off_c,0,37,0
2,306400, Note_on_c,0,50,100
2,306440, Note_off_c,0,64,0
2,306540, Note_on_c,0,69,100
2,306540, Note_off_c,0,71,0
2,306580, Note_on_c,0,61,100
2,306580, Note_on_c,0,65,100
2,306580, Note_off_c,0,69,0
2,306660, Note_on_c,0,66,100
2,306660, Note_on_c,0,73,100
2,306660, Note_off_c,0,61,0
2,306660, Note_off_c,0,65,0
2,306700, Note_off_c,0,73,0
2,306880, Note_on_c,0,42,100
2,306880, Note_off_c,0,50,0
2,306940, Note_on_c,0,64,100
2,307080, Note_on_c,0,71,100
2,307080, Note_off_c,0,42,0
2,307080, Note_off_c,0,64,0
2,307080, Note_off_c,0,66,0
2,307100, Note_on_c,0,56,100
2,307140, Note_on_c,0,42,100
2,307140, Note_off_c,0,71,0
2,307160, Note_on_c,0,36,100
2,307160, Note_on_c,0,44,100
2,307160, Note_on_c,0,67,100
2,307160, Note_off_c,0,56,0
2,307180, Note_on_c,0,64,100
2,307180, Note_off_c,0,44,0
2,307240, Note_on_c,0,59,100
2,307240, Note_off_c,0,36,0
2,307240, Note_off_c,0,42,0
2,307260, Note_on_c,0,36,100
2,307260, Note_on_c,0,66,100
2,307260, Note_off_c,0,59,0
2,307260, Note_off_c,0,64,0
2,307280, Note_on_c,0,51,100
2,307280, Note_on_c,0,61,100
2,307280, Note_on_c,0,64,100
2,307280, Note_off_c,0,67,0
2,307300, Note_on_c,0,48,100
2,307300, Note_on_c,0,57,100
2,307300, Note_off_c,0,51,0
2,307340, Note_on_c,0,69,100
2,307340, Note_off_c,0,48,0
2,307340, Note_off_c,0,57,0
2,307340, Note_off_c,0,61,0
2,307340, Note_off_c,0,66,0
2,307360, Note_off_c,0,64,0
2,307380, Note_on_c,0,35,100
2,307380, Note_off_c,0,36,0
2,307380, Note_off_c,0,69,0
2,307400, Note_on_c,0,36,100
2,307400, Note_on_c,0,64,100
2,307400, Note_on_c,0,67,100
2,307400, Note_on_c,0,70,100
2,307420, Note_off_c,0,70,0
2,307440, Note_on_c,0,40,100
2,307480, Note_off_c,0,36,0
2,307500, Note_on_c,0,36,100
2,307500, Note_on_c,0,57,100
2,307500, Note_on_c,0,66,100
2,307500, Note_off_c,0,67,0
2,307520, Note_on_c,0,59,100
2,307520, Note_off_c,0,35,0
2,307520, Note_off_c,0,57,0
2,307520, Note_off_c,0,66,0
2,307540, Note_off_c,0,40,0
2,307580, Note_on_c,0,65,100
2,307580, Note_off_c,0,64,0
2,307600, Note_off_c,0,59,0
2,307600, Note_off_c,0,65,0
2,307620, Note_on_c,0,40,100
2,307620, Note_on_c,0,64,100
2,307680, Note_on_c,0,61,100
2,307680, Note_off_c,0,40,0
2,307680, Note_off_c,0,64,0
2,307700, Note_on_c,0,57,100
2,307700, Note_on_c,0,62,100
2,307700, Note_off_c,0,61,0
2,307800, Note_off_c,0,36,0
2,307800, Note_off_c,0,57,0
2,307800, Note_off_c,0,62,0
2,307820, Note_on_c,0,36,100
2,307840, Note_off_c,0,36,0
2,307880, Note_on_c,0,38,100
2,307880, Note_on_c,0,65,100
2,307960, Note_off_c,0,65,0
2,307980, Note_on_c,0,62,100
2,308040, Note_on_c,0,55,100
2,308040, Note_off_c,0,62,0
2,308060, Note_on_c,0,57,100
2,308060, Note_off_c,0,55,0
2,308080, Note_on_c,0,55,100
2,308080, Note_off_c,0,57,0
2,308120, Note_off_c,0,55,0
2,308460, Note_on_c,0,55,100
2,308460, Note_off_c,0,38,0
2,308560, Note_on_c,0,50,100
2,308560, Note_off_c,0,55,0
2,308760, Note_on_c,0,38,100
2,308760, Note_off_c,0,50,0
2,308780, Note_off_c,0,38,0
2,308860, Note_on_c,0,60,100
2,308940, Note_on_c,0,38,100
2,309020, Note_on_c,0,50,100
2,309020, Note_off_c,0,38,0
2,309040, Note_on_c,0,46,100
2,309040, Note_off_c,0,50,0
2,309100, Note_on_c,0,62,100
2,309100, Note_off_c,0,46,0
2,309240, Note_off_c,0,62,0
2,309260, Note_on_c,0,44,100
2,309260, Note_on_c,0,68,100
2,309400, Note_off_c,0,68,0
2,309420, Note_on_c,0,66,100
2,309500, Note_off_c,0,60,0
2,309540, Note_on_c,0,69,100
2,309540, Note_off_c,0,66,0
2,309580, Note_off_c,0,69,0
2,309620, Note_on_c,0,51,100
2,309620, Note_on_c,0,68,100
2,309620, Note_off_c,0,44,0
2,309700, Note_on_c,0,58,100
2,309700, Note_off_c,0,51,0
2,309740, Note_on_c,0,53,100
2,309740, Note_off_c,0,58,0
2,309820, Note_on_c,0,51,100
2,309820, Note_off_c,0,53,0
2,309900, Note_on_c,0,54,100
2,309900, Note_on_c,0,66,100
2,309900, Note_off_c,0,51,0
2,309900, Note_off_c,0,68,0
2,309920, Note_on_c,0,58,100
2,309920, Note_off_c,0,54,0
2,309960, Note_on_c,0,68,100
2,309960, Note_off_c,0,66,0
2,310020, Note_on_c,0,70,100
2,310020, Note_off_c,0,68,0
2,310040, Note_on_c,0,49,100
2,310040, Note_off_c,0,58,0
2,310060, Note_off_c,0,70,0
2,310120, Note_on_c,0,45,100
2,310120, Note_on_c,0,63,100
2,310120, Note_off_c,0,49,0
2,310340, Note_off_c,0,63,0
2,310440, Note_on_c,0,39,100
2,310440, Note_off_c,0,45,0
2,310460, Note_off_c,0,39,0
2,310540, Note_on_c,0,50,100
2,310620, Note_off_c,0,50,0
2,310640, Note_on_c,0,50,100
2,310700, Note_off_c,0,50,0
2,310820, Note_on_c,0,49,100
2,310840, Note_on_c,0,51,100
2,310840, Note_off_c,0,49,0
2,310860, Note_on_c,0,49,100
2,310860, Note_off_c,0,51,0
2,310980, Note_off_c,0,49,0
2,311220, Note_on_c,0,74,100
2,311300, Note_off_c,0,74,0
2,312340, Note_on_c,0,50,100
2,312340, Note_on_c,0,66,100
2,312340, Note_on_c,0,71,100
2,312460, Note_on_c,0,67,100
2,312460, Note_off_c,0,50,0
2,312460, Note_off_c,0,66,0
2,312480, Note_on_c,0,50,100
2,312520, Note_off_c,0,50,0
2,312640, Note_on_c,0,50,100
2,312680, Note_off_c,0,50,0
2,312700, Note_on_c,0,43,100
2,312720, Note_off_c,0,43,0
2,312800, Note_on_c,0,50,100
2,312800, Note_off_c,0,67,0
2,312840, Note_on_c,0,55,100
2,312840, Note_off_c,0,50,0
2,312960, Note_on_c,0,69,100
2,312960, Note_off_c,0,71,0
2,313060, Note_off_c,0,69,0
2,313180, Note_on_c,0,50,100
2,313180, Note_off_c,0,55,0
2,313240, Note_on_c,0,67,100
2,313240, Note_off_c,0,50,0
2,313360, Note_off_c,0,67,0
2,313380, Note_on_c,0,60,100
2,313380, Note_on_c,0,64,100
2,313380, Note_on_c,0,72,100
2,313560, Note_on_c,0,73,100
2,313560, Note_off_c,0,72,0
2,313620, Note_on_c,0,72,100
2,313620, Note_off_c,0,73,0
2,313880, Note_off_c,0,72,0
2,313900, Note_on_c,0,73,100
2,313960, Note_on_c,0,72,100
2,313960, Note_off_c,0,73,0
2,314000, Note_off_c,0,60,0
2,314300, Note_off_c,0,72,0
2,314440, Note_on_c,0,69,100
2,314440, Note_off_c,0,64,0
2,314740, Note_off_c,0,69,0
2,314780, Note_on_c,0,64,100
2,315760, Note_on_c,0,69,100
2,315760, Note_off_c,0,64,0
2,315880, Note_on_c,0,71,100
2,315880, Note_off_c,0,69,0
2,315980, Note_on_c,0,76,100
2,315980, Note_off_c,0,71,0
2,316100, Note_on_c,0,47,100
2,316120, Note_off_c,0,76,0
2,316160, Note_on_c,0,64,100
2,316220, Note_off_c,0,64,0
2,316260, Note_on_c,0,74,100
2,316320, Note_off_c,0,47,0
2,316360, Note_on_c,0,47,100
2,316500, Note_on_c,0,50,100
2,316500, Note_off_c,0,47,0
2,316640, Note_on_c,0,76,100
2,316640, Note_off_c,0,74,0
2,316940, Note_off_c,0,50,0
2,316940, Note_off_c,0,76,0
2,316960, Note_on_c,0,50,100
2,316960, Note_on_c,0,74,100
2,317100, Note_off_c,0,74,0
2,317120, Note_on_c,0,76,100
2,317120, Note_off_c,0,50,0
2,317180, Note_on_c,0,69,100
2,317220, Note_off_c,0,69,0
2,317300, Note_on_c,0,45,100
2,317300, Note_on_c,0,69,100
2,317300, Note_on_c,0,74,100
2,317300, Note_off_c,0,76,0
2,317340, Note_off_c,0,45,0
2,317380, Note_off_c,0,69,0
2,317380, Note_off_c,0,74,0
2,317400, Note_on_c,0,74,100
2,317480, Note_off_c,0,74,0
2,317520, Note_on_c,0,78,100
2,317600, Note_off_c,0,78,0
2,317620, Note_on_c,0,72,100
2,317700, Note_off_c,0,72,0
2,317720, Note_on_c,0,48,100
2,317720, Note_on_c,0,76,100
2,317860, Note_off_c,0,48,0
2,317860, Note_off_c,0,76,0
2,317920, Note_on_c,0,45,100
2,317920, Note_on_c,0,69,100
2,318000, Note_on_c,0,76,100
2,318060, Note_off_c,0,45,0
2,318060, Note_off_c,0,69,0
2,318060, Note_off_c,0,76,0
2,318080, Note_on_c,0,41,100
2,318080, Note_on_c,0,69,100
2,318080, Note_on_c,0,76,100
2,318140, Note_off_c,0,69,0
2,318200, Note_off_c,0,41,0
2,318340, Note_on_c,0,45,100
2,318420, Note_off_c,0,45,0
2,318440, Note_on_c,0,45,100
2,318440, Note_on_c,0,70,100
2,318480, Note_on_c,0,69,100
2,318480, Note_off_c,0,70,0
2,318540, Note_off_c,0,69,0
2,318560, Note_on_c,0,57,100
2,318560, Note_off_c,0,45,0
2,318600, Note_off_c,0,57,0
2,318620, Note_on_c,0,57,100
2,318620, Note_off_c,0,76,0
2,318640, Note_on_c,0,52,100
2,318640, Note_on_c,0,69,100
2,318640, Note_on_c,0,76,100
2,318640, Note_off_c,0,57,0
2,318700, Note_off_c,0,52,0
2,318740, Note_off_c,0,69,0
2,318740, Note_off_c,0,76,0
2,318760, Note_on_c,0,48,100
2,318760, Note_on_c,0,69,100
2,318760, Note_on_c,0,79,100
2,318840, Note_off_c,0,48,0
2,318880, Note_off_c,0,69,0
2,318880, Note_off_c,0,79,0
2,318900, Note_on_c,0,52,100
2,318900, Note_on_c,0,76,100
2,318940, Note_off_c,0,76,0
2,318960, Note_on_c,0,69,100
2,318960, Note_on_c,0,76,100
2,319000, Note_on_c,0,64,100
2,319000, Note_off_c,0,52,0
2,319000, Note_off_c,0,69,0
2,319020, Note_off_c,0,64,0
2,319020, Note_off_c,0,76,0
2,319040, Note_on_c,0,59,100
2,319040, Note_on_c,0,76,100
2,319040, Note_on_c,0,83,100
2,319060, Note_off_c,0,83,0
2,319080, Note_off_c,0,59,0
2,319100, Note_off_c,0,76,0
2,319120, Note_on_c,0,38,100
2,319120, Note_on_c,0,69,100
2,319120, Note_on_c,0,76,100
2,319160, Note_off_c,0,38,0
2,319160, Note_off_c,0,69,0
2,319160, Note_off_c,0,76,0
2,319180, Note_on_c,0,38,100
2,319180, Note_on_c,0,69,100
2,319180, Note_on_c,0,76,100
2,319220, Note_off_c,0,38,0
2,319220, Note_off_c,0,69,0
2,319220, Note_off_c,0,76,0
2,319240, Note_on_c,0,38,100
2,319240, Note_on_c,0,72,100
2,319240, Note_on_c,0,76,100
2,319280, Note_off_c,0,38,0
2,319280, Note_off_c,0,72,0
2,319280, Note_off_c,0,76,0
2,319300, Note_on_c,0,72,100
2,319300, Note_on_c,0,76,100
2,319380, Note_off_c,0,72,0
2,319380, Note_off_c,0,76,0
2,319460, Note_on_c,0,72,100
2,319600, Note_off_c,0,72,0
2,319620, Note_on_c,0,72,100
2,319620, Note_on_c,0,79,100
2,319720, Note_off_c,0,72,0
2,319720, Note_off_c,0,79,0
2,319740, Note_on_c,0,36,100
2,319740, Note_on_c,0,79,100
2,319780, Note_on_c,0,80,100
2,319800, Note_off_c,0,36,0
2,319800, Note_off_c,0,79,0
2,319800, Note_off_c,0,80,0
2,319820, Note_on_c,0,80,100
2,319840, Note_off_c,0,80,0
2,319940, Note_on_c,0,76,100
2,320040, Note_on_c,0,41,100
2,320060, Note_off_c,0,41,0
2,320120, Note_off_c,0,76,0
2,320140, Note_on_c,0,50,100
2,320140, Note_on_c,0,69,100
2,320180, Note_off_c,0,50,0
2,320300, Note_off_c,0,69,0
2,320320, Note_on_c,0,54,100
2,320340, Note_off_c,0,54,0
2,320420, Note_on_c,0,52,100
2,320440, Note_on_c,0,69,100
2,320560, Note_off_c,0,52,0
2,320580, Note_on_c,0,62,100
2,320580, Note_off_c,0,69,0
2,320600, Note_off_c,0,62,0
2,320620, Note_on_c,0,67,100
2,320620, Note_on_c,0,71,100
2,320620, Note_on_c,0,76,100
2,320660, Note_off_c,0,67,0
2,320740, Note_off_c,0,71,0
2,320740, Note_off_c,0,76,0
2,320780, Note_on_c,0,76,100
2,320880, Note_off_c,0,76,0
2,320920, Note_on_c,0,74,100
2,320960, Note_off_c,0,74,0
2,320980, Note_on_c,0,45,100
2,321000, Note_off_c,0,45,0
2,321060, Note_on_c,0,44,100
2,321060, Note_on_c,0,69,100
2,321060, Note_on_c,0,75,100
2,321120, Note_off_c,0,44,0
2,321120, Note_off_c,0,69,0
2,321120, Note_off_c,0,75,0
2,321140, Note_on_c,0,76,100
2,321260, Note_off_c,0,76,0
2,321280, Note_on_c,0,47,100
2,321280, Note_on_c,0,76,100
2,321380, Note_off_c,0,47,0
2,321420, Note_off_c,0,76,0
2,321440, Note_on_c,0,45,100
2,321440, Note_on_c,0,74,100
2,321520, Note_off_c,0,45,0
2,321520, Note_off_c,0,74,0
2,321540, Note_on_c,0,45,100
2,321540, Note_on_c,0,79,100
2,321600, Note_off_c,0,45,0
2,321600, Note_off_c,0,79,0
2,321620, Note_on_c,0,45,100
2,321620, Note_on_c,0,74,100
2,321660, Note_off_c,0,45,0
2,321660, Note_off_c,0,74,0
2,321700, Note_on_c,0,45,100
2,321700, Note_on_c,0,76,100
2,321740, Note_off_c,0,45,0
2,321800, Note_off_c,0,76,0
2,321820, Note_on_c,0,52,100
2,321820, Note_on_c,0,76,100
2,321920, Note_off_c,0,52,0
2,321920, Note_off_c,0,76,0
2,321940, Note_on_c,0,50,100
2,321940, Note_on_c,0,76,100
2,322020, Note_off_c,0,50,0
2,322020, Note_off_c,0,76,0
2,322060, Note_on_c,0,79,100
2,322140, Note_off_c,0,79,0
2,322160, Note_on_c,0,45,100
2,322160, Note_on_c,0,74,100
2,322220, Note_off_c,0,45,0
2,322240, Note_on_c,0,43,100
2,322300, Note_off_c,0,43,0
2,322300, Note_off_c,0,74,0
2,322320, Note_on_c,0,48,100
2,322320, Note_on_c,0,69,100
2,322440, Note_off_c,0,48,0
2,322520, Note_off_c,0,69,0
2,322540, Note_on_c,0,52,100
2,322540, Note_on_c,0,71,100
2,322540, Note_on_c,0,81,100
2,322620, Note_off_c,0,52,0
2,322620, Note_off_c,0,71,0
2,322620, Note_off_c,0,81,0
2,322640, Note_on_c,0,69,100
2,322720, Note_off_c,0,69,0
2,322780, Note_on_c,0,76,100
2,322800, Note_off_c,0,76,0
2,322820, Note_on_c,0,76,100
2,322860, Note_off_c,0,76,0
2,322880, Note_on_c,0,79,100
2,322940, Note_off_c,0,79,0
2,322960, Note_on_c,0,79,100
2,323200, Note_off_c,0,79,0
2,323240, Note_on_c,0,54,100
2,323240, Note_on_c,0,76,100
2,323280, Note_off_c,0,54,0
2,323280, Note_off_c,0,76,0
2,323300, Note_on_c,0,69,100
2,323300, Note_on_c,0,76,100
2,323340, Note_off_c,0,69,0
2,323340, Note_off_c,0,76,0
2,323360, Note_on_c,0,64,100
2,323360, Note_on_c,0,74,100
2,323380, Note_off_c,0,64,0
2,323380, Note_off_c,0,74,0
2,323420, Note_on_c,0,69,100
2,323460, Note_off_c,0,69,0
2,323560, Note_on_c,0,40,100
2,323560, Note_on_c,0,69,100
2,323560, Note_on_c,0,80,100
2,323580, Note_on_c,0,76,100
2,323580, Note_off_c,0,80,0
2,323620, Note_off_c,0,40,0
2,323620, Note_off_c,0,69,0
2,323680, Note_off_c,0,76,0
2,323700, Note_on_c,0,40,100
2,323700, Note_on_c,0,72,100
2,323700, Note_on_c,0,78,100
2,323740, Note_off_c,0,40,0
2,323740, Note_off_c,0,78,0
2,323760, Note_on_c,0,40,100
2,323820, Note_off_c,0,40,0
2,323820, Note_off_c,0,72,0
2,323840, Note_on_c,0,40,100
2,323840, Note_on_c,0,62,100
2,323840, Note_on_c,0,76,100
2,323900, Note_off_c,0,40,0
2,323900, Note_off_c,0,62,0
2,323900, Note_off_c,0,76,0
2,323920, Note_on_c,0,40,100
2,323920, Note_on_c,0,64,100
2,323920, Note_on_c,0,76,100
2,323980, Note_off_c,0,40,0
2,323980, Note_off_c,0,64,0
2,323980, Note_off_c,0,76,0
2,324000, Note_on_c,0,64,100
2,324000, Note_on_c,0,71,100
2,324080, Note_off_c,0,64,0
2,324080, Note_off_c,0,71,0
2,324100, Note_on_c,0,48,100
2,324140, Note_on_c,0,71,100
2,324140, Note_on_c,0,76,100
2,324200, Note_off_c,0,71,0
2,324200, Note_off_c,0,76,0
2,324220, Note_on_c,0,71,100
2,324220, Note_on_c,0,76,100
2,324260, Note_off_c,0,71,0
2,324280, Note_on_c,0,69,100
2,324320, Note_off_c,0,48,0
2,324320, Note_off_c,0,76,0
2,324340, Note_on_c,0,71,100
2,324340, Note_on_c,0,76,100
2,324340, Note_off_c,0,69,0
2,324420, Note_on_c,0,69,100
2,324420, Note_off_c,0,71,0
2,324460, Note_off_c,0,69,0
2,324460, Note_off_c,0,76,0
2,324480, Note_on_c,0,69,100
2,324480, Note_on_c,0,76,100
2,324520, Note_on_c,0,71,100
2,324520, Note_off_c,0,69,0
2,324640, Note_on_c,0,47,100
2,324740, Note_off_c,0,71,0
2,324760, Note_off_c,0,47,0
2,324780, Note_on_c,0,47,100
2,324780, Note_on_c,0,78,100
2,324820, Note_on_c,0,79,100
2,324820, Note_off_c,0,76,0
2,324820, Note_off_c,0,78,0
2,324860, Note_on_c,0,78,100
2,324880, Note_off_c,0,79,0
2,324920, Note_on_c,0,54,100
2,324920, Note_off_c,0,47,0
2,325020, Note_on_c,0,69,100
2,325020, Note_on_c,0,76,100
2,325020, Note_off_c,0,78,0
2,325080, Note_off_c,0,54,0
2,325180, Note_off_c,0,69,0
2,325180, Note_off_c,0,76,0
2,325220, Note_on_c,0,57,100
2,325220, Note_on_c,0,69,100
2,325220, Note_on_c,0,76,100
2,325280, Note_off_c,0,57,0
2,325280, Note_off_c,0,69,0
2,325320, Note_off_c,0,76,0
2,325340, Note_on_c,0,52,100
2,325340, Note_on_c,0,71,100
2,325340, Note_on_c,0,74,100
2,325380, Note_off_c,0,74,0
2,325400, Note_on_c,0,68,100
2,325440, Note_on_c,0,76,100
2,325440, Note_off_c,0,71,0
2,325460, Note_off_c,0,52,0
2,325460, Note_off_c,0,68,0
2,325460, Note_off_c,0,76,0
2,325480, Note_on_c,0,52,100
2,325480, Note_on_c,0,74,100
2,325480, Note_on_c,0,76,100
2,325520, Note_on_c,0,72,100
2,325520, Note_off_c,0,74,0
2,325560, Note_off_c,0,72,0
2,325640, Note_off_c,0,52,0
2,325640, Note_off_c,0,76,0
2,325660, Note_on_c,0,69,100
2,325660, Note_on_c,0,76,100
2,325700, Note_on_c,0,67,100
2,325700, Note_off_c,0,69,0
2,325720, Note_on_c,0,74,100
2,325720, Note_on_c,0,79,100
2,325720, Note_off_c,0,67,0
2,325720, Note_off_c,0,76,0
2,325740, Note_on_c,0,57,100
2,325740, Note_on_c,0,76,100
2,325740, Note_off_c,0,79,0
2,325760, Note_off_c,0,74,0
2,325940, Note_off_c,0,57,0
2,325940, Note_off_c,0,76,0
2,325960, Note_on_c,0,72,100
2,325960, Note_on_c,0,76,100
2,326020, Note_off_c,0,76,0
2,326040, Note_on_c,0,64,100
2,326060, Note_on_c,0,76,100
2,326060, Note_off_c,0,72,0
2,326140, Note_off_c,0,64,0
2,326140, Note_off_c,0,76,0
2,326160, Note_on_c,0,67,100
2,326160, Note_on_c,0,76,100
2,326260, Note_off_c,0,67,0
2,326260, Note_off_c,0,76,0
2,326280, Note_on_c,0,69,100
2,326280, Note_on_c,0,76,100
2,326680, Note_off_c,0,69,0
2,326680, Note_off_c,0,76,0
2,326700, Note_on_c,0,64,100
2,326700, Note_on_c,0,69,100
2,326700, Note_on_c,0,76,100
2,326760, Note_off_c,0,64,0
2,326860, Note_on_c,0,67,100
2,326860, Note_off_c,0,69,0
2,327000, Note_off_c,0,67,0
2,327000, Note_off_c,0,76,0
2,327260, Note_on_c,0,64,100
2,327360, Note_off_c,0,64,0
2,327380, Note_on_c,0,50,100
2,327400, Note_on_c,0,74,100
2,327440, Note_off_c,0,50,0
2,327460, Note_on_c,0,67,100
2,327520, Note_on_c,0,76,100
2,327580, Note_off_c,0,74,0
2,327600, Note_on_c,0,50,100
2,327680, Note_off_c,0,50,0
2,327700, Note_off_c,0,67,0
2,327700, Note_off_c,0,76,0
2,327740, Note_on_c,0,49,100
2,327740, Note_on_c,0,64,100
2,327740, Note_on_c,0,68,100
2,327840, Note_off_c,0,64,0
2,327880, Note_on_c,0,66,100
2,327880, Note_off_c,0,49,0
2,327880, Note_off_c,0,68,0
2,327900, Note_off_c,0,66,0
2,327940, Note_on_c,0,68,100
2,328020, Note_on_c,0,66,100
2,328020, Note_off_c,0,68,0
2,328120, Note_off_c,0,66,0
2,328360, Note_on_c,0,63,100
2,328380, Note_on_c,0,71,100
2,328440, Note_off_c,0,63,0
2,328440, Note_off_c,0,71,0
2,329280, Note_on_c,0,71,100
2,329380, Note_off_c,0,71,0
2,329480, Note_on_c,0,48,100
2,329480, Note_on_c,0,62,100
2,329480, Note_on_c,0,72,100
2,329580, Note_off_c,0,62,0
2,329580, Note_off_c,0,72,0
2,329600, Note_off_c,0,48,0
2,329620, Note_on_c,0,50,100
2,329620, Note_on_c,0,66,100
2,329620, Note_on_c,0,74,100
2,329760, Note_on_c,0,69,100
2,329760, Note_off_c,0,66,0
2,330380, Note_off_c,0,50,0
2,330380, Note_off_c,0,69,0
2,330380, Note_off_c,0,74,0
2,330400, Note_on_c,0,65,100
2,330400, Note_on_c,0,74,100
2,330420, Note_on_c,0,55,100
2,330420, Note_off_c,0,74,0
2,330440, Note_on_c,0,67,100
2,330440, Note_off_c,0,65,0
2,330480, Note_off_c,0,55,0
2,330480, Note_off_c,0,67,0
2,330500, Note_on_c,0,55,100
2,330620, Note_on_c,0,50,100
2,330620, Note_off_c,0,55,0
2,330800, Note_on_c,0,57,100
2,330800, Note_off_c,0,50,0
2,330880, Note_on_c,0,69,100
2,330920, Note_off_c,0,69,0
2,330940, Note_off_c,0,57,0
2,331080, Note_on_c,0,50,100
2,331160, Note_off_c,0,50,0
2,331280, Note_on_c,0,50,100
2,331280, Note_on_c,0,67,100
2,331280, Note_on_c,0,72,100
2,331320, Note_off_c,0,50,0
2,331440, Note_on_c,0,48,100
2,331500, Note_on_c,0,35,100
2,331500, Note_on_c,0,69,100
2,331500, Note_off_c,0,48,0
2,331500, Note_off_c,0,72,0
2,331520, Note_off_c,0,35,0
2,331540, Note_off_c,0,69,0
2,332960, Note_on_c,0,71,100
2,332960, Note_off_c,0,67,0
2,333080, Note_off_c,0,71,0
2,333520, Note_on_c,0,50,100
2,333560, Note_off_c,0,50,0
2,333660, Note_on_c,0,50,100
2,333700, Note_off_c,0,50,0
2,333820, Note_on_c,0,50,100
2,333860, Note_off_c,0,50,0
2,333880, Note_on_c,0,50,100
2,333900, Note_off_c,0,50,0
2,334020, Note_on_c,0,50,100
2,334060, Note_off_c,0,50,0
2,334180, Note_on_c,0,50,100
2,334220, Note_off_c,0,50,0
2,334320, Note_on_c,0,50,100
2,334360, Note_off_c,0,50,0
2,334480, Note_on_c,0,50,100
2,334520, Note_off_c,0,50,0
2,334540, Note_on_c,0,50,100
2,334560, Note_off_c,0,50,0
2,334900, Note_on_c,0,50,100
2,334980, Note_off_c,0,50,0
2,335220, Note_on_c,0,64,100
2,335300, Note_off_c,0,64,0
2,335460, Note_on_c,0,50,100
2,335540, Note_off_c,0,50,0
2,335640, Note_on_c,0,69,100
2,335720, Note_off_c,0,69,0
2,335820, Note_on_c,0,67,100
2,336180, Note_off_c,0,67,0
2,336200, Note_on_c,0,69,100
2,336260, Note_off_c,0,69,0
2,336700, Note_on_c,0,50,100
2,336700, Note_on_c,0,71,100
2,336700, Note_on_c,0,74,100
2,336840, Note_off_c,0,71,0
2,336960, Note_off_c,0,50,0
2,336980, Note_on_c,0,50,100
2,337420, Note_off_c,0,74,0
2,337440, Note_on_c,0,74,100
2,337860, Note_off_c,0,50,0
2,337860, Note_off_c,0,74,0
2,337880, Note_on_c,0,50,100
2,337880, Note_on_c,0,74,100
2,338200, Note_off_c,0,50,0
2,338200, Note_off_c,0,74,0
2,338300, Note_on_c,0,50,100
2,338300, Note_on_c,0,74,100
2,338500, Note_off_c,0,50,0
2,338500, Note_off_c,0,74,0
2,338520, Note_on_c,0,74,100
2,338760, Note_on_c,0,62,100
2,338880, Note_off_c,0,62,0
2,338880, Note_off_c,0,74,0
2,338900, Note_on_c,0,63,100
2,338920, Note_on_c,0,58,100
2,338920, Note_off_c,0,63,0
2,338940, Note_on_c,0,63,100
2,338960, Note_on_c,0,62,100
2,338960, Note_off_c,0,63,0
2,339000, Note_off_c,0,58,0
2,339400, Note_on_c,0,76,100
2,339400, Note_off_c,0,62,0
2,340240, Note_on_c,0,57,100
2,340500, Note_off_c,0,57,0
2,341240, Note_on_c,0,74,100
2,341240, Note_off_c,0,76,0
2,341560, Note_on_c,0,64,100
2,341580, Note_on_c,0,76,100
2,341580, Note_off_c,0,74,0
2,342560, Note_on_c,0,54,100
2,342560, Note_on_c,0,69,100
2,342560, Note_on_c,0,77,100
2,342560, Note_off_c,0,64,0
2,342560, Note_off_c,0,76,0
2,343460, Note_on_c,0,81,100
2,343460, Note_off_c,0,54,0
2,343460, Note_off_c,0,77,0
2,343540, Note_on_c,0,54,100
2,343820, Note_on_c,0,79,100
2,343820, Note_off_c,0,81,0
2,343960, Note_on_c,0,67,100
2,343960, Note_on_c,0,76,100
2,343960, Note_off_c,0,69,0
2,343960, Note_off_c,0,79,0
2,344120, Note_on_c,0,69,100
2,344120, Note_off_c,0,67,0
2,344140, Note_off_c,0,54,0
2,344240, Note_on_c,0,52,100
2,344320, Note_on_c,0,57,100
2,344320, Note_off_c,0,52,0
2,344340, Note_off_c,0,69,0
2,344840, Note_on_c,0,60,100
2,344840, Note_off_c,0,57,0
2,345020, Note_on_c,0,64,100
2,345020, Note_off_c,0,60,0
2,345100, Note_on_c,0,57,100
2,345100, Note_off_c,0,64,0
2,345280, Note_off_c,0,57,0
2,345300, Note_on_c,0,64,100
2,345820, Note_on_c,0,52,100
2,345820, Note_off_c,0,64,0
2,345940, Note_on_c,0,74,100
2,345940, Note_off_c,0,76,0
2,345960, Note_on_c,0,78,100
2,345960, Note_off_c,0,74,0
2,346020, Note_on_c,0,76,100
2,346020, Note_off_c,0,78,0
2,346120, Note_on_c,0,57,100
2,346120, Note_off_c,0,52,0
2,346960, Note_on_c,0,64,100
2,346960, Note_off_c,0,57,0
2,347020, Note_on_c,0,48,100
2,347020, Note_off_c,0,64,0
2,347180, Note_on_c,0,79,100
2,347180, Note_off_c,0,76,0
2,347220, Note_on_c,0,76,100
2,347220, Note_off_c,0,79,0
2,347400, Note_on_c,0,71,100
2,347400, Note_off_c,0,48,0
2,347500, Note_on_c,0,69,100
2,347500, Note_off_c,0,71,0
2,347740, Note_on_c,0,60,100
2,347800, Note_off_c,0,60,0
2,347800, Note_off_c,0,69,0
2,347820, Note_on_c,0,69,100
2,348220, Note_off_c,0,76,0
2,348240, Note_on_c,0,57,100
2,348240, Note_on_c,0,76,100
2,348360, Note_off_c,0,69,0
2,348360, Note_off_c,0,76,0
2,348380, Note_on_c,0,62,100
2,348380, Note_on_c,0,69,100
2,348400, Note_off_c,0,57,0
2,348560, Note_off_c,0,62,0
2,348580, Note_on_c,0,50,100
2,348740, Note_on_c,0,74,100
2,348820, Note_off_c,0,69,0
2,348900, Note_off_c,0,74,0
2,348920, Note_on_c,0,74,100
2,349260, Note_off_c,0,74,0
2,349280, Note_on_c,0,74,100
2,349360, Note_off_c,0,74,0
2,349860, Note_on_c,0,35,100
2,349860, Note_on_c,0,71,100
2,349860, Note_off_c,0,50,0
2,349880, Note_on_c,0,55,100
2,349880, Note_off_c,0,35,0
2,349980, Note_on_c,0,50,100
2,349980, Note_off_c,0,55,0
2,350200, Note_on_c,0,62,100
2,350200, Note_on_c,0,74,100
2,350200, Note_off_c,0,71,0
2,350480, Note_on_c,0,69,100
2,350480, Note_off_c,0,62,0
2,350520, Note_on_c,0,62,100
2,350520, Note_off_c,0,50,0
2,350600, Note_on_c,0,50,100
2,350600, Note_off_c,0,62,0
2,350800, Note_on_c,0,67,100
2,350800, Note_off_c,0,69,0
2,350900, Note_on_c,0,62,100
2,350900, Note_on_c,0,69,100
2,350900, Note_off_c,0,50,0
2,350900, Note_off_c,0,67,0
2,350960, Note_on_c,0,50,100
2,350960, Note_off_c,0,62,0
2,351020, Note_on_c,0,62,100
2,351020, Note_off_c,0,50,0
2,351080, Note_on_c,0,50,100
2,351080, Note_off_c,0,62,0
2,351140, Note_on_c,0,62,100
2,351140, Note_off_c,0,50,0
2,351200, Note_on_c,0,50,100
2,351200, Note_off_c,0,62,0
2,351260, Note_on_c,0,62,100
2,351260, Note_off_c,0,50,0
2,351300, Note_on_c,0,73,100
2,351300, Note_off_c,0,74,0
2,351320, Note_on_c,0,50,100
2,351320, Note_off_c,0,62,0
2,351380, Note_on_c,0,66,100
2,351380, Note_on_c,0,76,100
2,351380, Note_off_c,0,50,0
2,351380, Note_off_c,0,73,0
2,351400, Note_on_c,0,50,100
2,351700, Note_off_c,0,66,0
2,351720, Note_off_c,0,50,0
2,351920, Note_on_c,0,57,100
2,352380, Note_on_c,0,74,100
2,352380, Note_off_c,0,76,0
2,352980, Note_on_c,0,62,100
2,352980, Note_off_c,0,57,0
2,353180, Note_on_c,0,50,100
2,353180, Note_off_c,0,62,0
2,353640, Note_on_c,0,62,100
2,353640, Note_off_c,0,50,0
2,353700, Note_on_c,0,50,100
2,353700, Note_off_c,0,62,0
2,353760, Note_on_c,0,62,100
2,353760, Note_off_c,0,50,0
2,353820, Note_on_c,0,50,100
2,353820, Note_off_c,0,62,0
2,353880, Note_on_c,0,62,100
2,353880, Note_off_c,0,50,0
2,353880, Note_off_c,0,69,0
2,353920, Note_on_c,0,73,100
2,353940, Note_on_c,0,50,100
2,353940, Note_on_c,0,69,100
2,353940, Note_off_c,0,62,0
2,353940, Note_off_c,0,74,0
2,354000, Note_on_c,0,74,100
2,354000, Note_off_c,0,73,0
2,354100, Note_on_c,0,66,100
2,354100, Note_off_c,0,50,0
2,354160, Note_on_c,0,62,100
2,354160, Note_off_c,0,66,0
2,354240, Note_on_c,0,50,100
2,354240, Note_off_c,0,62,0
2,355100, Note_on_c,0,76,100
2,355120, Note_off_c,0,74,0
2,355460, Note_off_c,0,69,0
2,355460, Note_off_c,0,76,0
2,355480, Note_on_c,0,67,100
2,355480, Note_on_c,0,76,100
2,355480, Note_off_c,0,50,0
2,356060, Note_on_c,0,50,100
2,356060, Note_on_c,0,64,100
2,356060, Note_on_c,0,78,100
2,356060, Note_off_c,0,67,0
2,356060, Note_off_c,0,76,0
2,356260, Note_on_c,0,74,100
2,356260, Note_off_c,0,78,0
2,356340, Note_on_c,0,76,100
2,356340, Note_off_c,0,74,0
2,356380, Note_on_c,0,35,100
2,356400, Note_on_c,0,78,100
2,356400, Note_off_c,0,35,0
2,356400, Note_off_c,0,64,0
2,356400, Note_off_c,0,76,0
2,356420, Note_on_c,0,69,100
2,356500, Note_off_c,0,69,0
2,356500, Note_off_c,0,78,0
2,356520, Note_on_c,0,62,100
2,356520, Note_on_c,0,64,100
2,356540, Note_on_c,0,66,100
2,356540, Note_off_c,0,62,0
2,356580, Note_on_c,0,62,100
2,356580, Note_off_c,0,66,0
2,356600, Note_off_c,0,62,0
2,356620, Note_on_c,0,69,100
2,356720, Note_on_c,0,62,100
2,356720, Note_off_c,0,64,0
2,356780, Note_off_c,0,50,0
2,356780, Note_off_c,0,69,0
2,356800, Note_on_c,0,69,100
2,356840, Note_on_c,0,50,100
2,356840, Note_on_c,0,76,100
2,356840, Note_off_c,0,62,0
2,356920, Note_on_c,0,55,100
2,356920, Note_off_c,0,50,0
2,357040, Note_on_c,0,64,100
2,357040, Note_off_c,0,69,0
2,357060, Note_off_c,0,55,0
2,357080, Note_on_c,0,52,100
2,357080, Note_on_c,0,69,100
2,357080, Note_off_c,0,76,0
2,357380, Note_on_c,0,35,100
2,357380, Note_on_c,0,57,100
2,357380, Note_off_c,0,52,0
2,357400, Note_off_c,0,35,0
2,357460, Note_on_c,0,50,100
2,357520, Note_off_c,0,57,0
2,357520, Note_off_c,0,69,0
2,357560, Note_on_c,0,62,100
2,357560, Note_off_c,0,64,0
2,357680, Note_on_c,0,64,100
2,357680, Note_off_c,0,62,0
2,357720, Note_off_c,0,64,0
2,357740, Note_on_c,0,62,100
2,357740, Note_off_c,0,50,0
2,357800, Note_on_c,0,50,100
2,358140, Note_on_c,0,55,100
2,358140, Note_off_c,0,50,0
2,358240, Note_off_c,0,62,0
2,359380, Note_on_c,0,50,100
2,359380, Note_off_c,0,55,0
2,359520, Note_on_c,0,62,100
2,359520, Note_off_c,0,50,0
2,359580, Note_on_c,0,50,100
2,359640, Note_off_c,0,62,0
2,359660, Note_on_c,0,60,100
2,359740, Note_on_c,0,53,100
2,359740, Note_on_c,0,57,100
2,359740, Note_off_c,0,50,0
2,359740, Note_off_c,0,60,0
2,359840, Note_on_c,0,50,100
2,359840, Note_off_c,0,53,0
2,359860, Note_on_c,0,59,100
2,359860, Note_off_c,0,57,0
2,360040, Note_on_c,0,47,100
2,360040, Note_off_c,0,50,0
2,360100, Note_on_c,0,46,100
2,360100, Note_off_c,0,47,0
2,360140, Note_on_c,0,50,100
2,360140, Note_off_c,0,46,0
2,360240, Note_on_c,0,62,100
2,360240, Note_off_c,0,59,0
2,360400, Note_on_c,0,57,100
2,360400, Note_off_c,0,50,0
2,360480, Note_on_c,0,50,100
2,360560, Note_on_c,0,59,100
2,360560, Note_off_c,0,57,0
2,360740, Note_off_c,0,59,0
2,360960, Note_off_c,0,62,0
2,360980, Note_off_c,0,50,0
2,361000, Note_on_c,0,45,100
2,361000, Note_on_c,0,81,100
2,361220, Note_on_c,0,78,100
2,361220, Note_off_c,0,81,0
2,361620, Note_on_c,0,72,100
2,361620, Note_off_c,0,78,0
2,361640, Note_on_c,0,52,100
2,361640, Note_off_c,0,45,0
2,361660, Note_on_c,0,76,100
2,361660, Note_off_c,0,72,0
2,361820, Note_on_c,0,49,100
2,361820, Note_off_c,0,52,0
2,361900, Note_on_c,0,45,100
2,361900, Note_off_c,0,49,0
2,361940, Note_on_c,0,57,100
2,362160, Note_off_c,0,45,0
2,363560, Note_on_c,0,69,100
2,363560, Note_off_c,0,76,0
2,363580, Note_off_c,0,69,0
2,363600, Note_on_c,0,76,100
2,363620, Note_on_c,0,59,100
2,363620, Note_off_c,0,57,0
2,363680, Note_on_c,0,40,100
2,363680, Note_on_c,0,52,100
2,363680, Note_off_c,0,59,0
2,363700, Note_off_c,0,52,0
2,363760, Note_on_c,0,57,100
2,363760, Note_off_c,0,40,0
2,363780, Note_on_c,0,81,100
2,363920, Note_on_c,0,64,100
2,363920, Note_off_c,0,57,0
2,363980, Note_on_c,0,83,100
2,363980, Note_off_c,0,81,0
2,364020, Note_on_c,0,45,100
2,364020, Note_on_c,0,69,100
2,364020, Note_off_c,0,64,0
2,364020, Note_off_c,0,76,0
2,364040, Note_on_c,0,38,100
2,364040, Note_off_c,0,45,0
2,364060, Note_on_c,0,76,100
2,364060, Note_off_c,0,69,0
2,364080, Note_on_c,0,36,100
2,364080, Note_on_c,0,74,100
2,364080, Note_off_c,0,38,0
2,364080, Note_off_c,0,76,0
2,364140, Note_on_c,0,55,100
2,364160, Note_off_c,0,36,0
2,364220, Note_on_c,0,50,100
2,364220, Note_off_c,0,55,0
2,364620, Note_off_c,0,74,0
2,364620, Note_off_c,0,83,0
2,364640, Note_off_c,0,50,0
2,364720, Note_on_c,0,57,100
2,364980, Note_on_c,0,78,100
2,365020, Note_on_c,0,55,100
2,365020, Note_off_c,0,57,0
2,365080, Note_on_c,0,81,100
2,365080, Note_off_c,0,78,0
2,365100, Note_on_c,0,78,100
2,365120, Note_off_c,0,55,0
2,365180, Note_off_c,0,78,0
2,365180, Note_off_c,0,81,0
2,365200, Note_on_c,0,81,100
2,365220, Note_on_c,0,55,100
2,365220, Note_on_c,0,58,100
2,365220, Note_on_c,0,78,100
2,365220, Note_off_c,0,81,0
2,365320, Note_on_c,0,54,100
2,365320, Note_off_c,0,55,0
2,365320, Note_off_c,0,58,0
2,365400, Note_on_c,0,58,100
2,365400, Note_on_c,0,76,100
2,365400, Note_off_c,0,54,0
2,365400, Note_off_c,0,78,0
2,365460, Note_on_c,0,57,100
2,365460, Note_off_c,0,58,0
2,365480, Note_on_c,0,50,100
2,365480, Note_off_c,0,57,0
2,366480, Note_on_c,0,79,100
2,366480, Note_off_c,0,76,0
2,366980, Note_on_c,0,57,100
2,366980, Note_off_c,0,50,0
2,367020, Note_on_c,0,76,100
2,367020, Note_off_c,0,79,0
2,367040, Note_on_c,0,79,100
2,367040, Note_off_c,0,76,0
2,367380, Note_on_c,0,50,100
2,367380, Note_off_c,0,57,0
2,367840, Note_on_c,0,76,100
2,367840, Note_off_c,0,79,0
2,369360, Note_on_c,0,53,100
2,369360, Note_on_c,0,79,100
2,369360, Note_off_c,0,50,0
2,369360, Note_off_c,0,76,0
2,369400, Note_on_c,0,45,100
2,369400, Note_off_c,0,53,0
2,369620, Note_on_c,0,55,100
2,369620, Note_off_c,0,45,0
2,369940, Note_on_c,0,72,100
2,369940, Note_off_c,0,55,0
2,370060, Note_off_c,0,72,0
2,370060, Note_off_c,0,79,0
2,370080, Note_on_c,0,59,100
2,370080, Note_on_c,0,66,100
2,370260, Note_on_c,0,61,100
2,370260, Note_off_c,0,59,0
2,370320, Note_off_c,0,61,0
2,370320, Note_off_c,0,66,0
2,370340, Note_on_c,0,66,100
2,371540, Note_on_c,0,67,100
2,371540, Note_off_c,0,66,0
2,388400, Note_on_c,0,74,100
2,388520, Note_on_c,0,71,100
2,388520, Note_off_c,0,74,0
2,390280, Note_off_c,0,71,0
2,390360, Note_on_c,0,69,100
2,390420, Note_off_c,0,69,0
2,390440, Note_on_c,0,52,100
2,390520, Note_off_c,0,52,0
2,391640, Note_on_c,0,66,100
2,391640, Note_off_c,0,67,0
2,391820, Note_on_c,0,67,100
2,391820, Note_off_c,0,66,0
2,396840, Note_on_c,0,69,100
2,396840, Note_off_c,0,67,0
2,397080, Note_on_c,0,67,100
2,397080, Note_off_c,0,69,0
2,401020, Note_on_c,0,68,100
2,401020, Note_off_c,0,67,0
2,401180, Note_on_c,0,60,100
2,401180, Note_off_c,0,68,0
2,401980, Note_on_c,0,64,100
2,401980, Note_off_c,0,60,0
2,403480, Note_on_c,0,67,100
2,403480, Note_off_c,0,64,0
2,406540, Note_off_c,0,67,0
2,406560, Note_on_c,0,69,100
2,408620, Note_on_c,0,67,100
2,408620, Note_off_c,0,69,0
2,443320, Note_on_c,0,55,100
2,443320, Note_on_c,0,71,100
2,443320, Note_off_c,0,67,0
2,443660, Note_on_c,0,69,100
2,443660, Note_off_c,0,71,0
2,445400, Note_on_c,0,50,100
2,445400, Note_off_c,0,55,0
2,445420, Note_on_c,0,62,100
2,445420, Note_off_c,0,50,0
2,445500, Note_on_c,0,50,100
2,445500, Note_off_c,0,62,0
2,445540, Note_on_c,0,62,100
2,445540, Note_off_c,0,50,0
2,448920, Note_on_c,0,72,100
2,448920, Note_off_c,0,62,0
2,448920, Note_off_c,0,69,0
2,457200, Note_on_c,0,52,100
2,457280, Note_on_c,0,59,100
2,457280, Note_off_c,0,52,0
2,459680, Note_on_c,0,71,100
2,459680, Note_off_c,0,72,0
2,462200, Note_on_c,0,66,100
2,462200, Note_off_c,0,59,0
2,464240, Note_on_c,0,69,100
2,464240, Note_off_c,0,71,0
2,464700, Note_on_c,0,62,100
2,468120, Note_off_c,0,66,0
2,471380, Note_on_c,0,72,100
2,471380, Note_off_c,0,69,0
2,471500, Note_on_c,0,71,100
2,471500, Note_off_c,0,72,0
2,474520, Note_off_c,0,62,0
2,474560, Note_on_c,0,73,100
2,474560, Note_off_c,0,71,0
2,474880, Note_on_c,0,75,100
2,474880, Note_off_c,0,73,0
2,474900, Note_on_c,0,74,100
2,474900, Note_off_c,0,75,0
2,474960, Note_on_c,0,73,100
2,474960, Note_off_c,0,74,0
2,475000, Note_on_c,0,70,100
2,475000, Note_off_c,0,73,0
2,477720, Note_on_c,0,69,100
2,477720, Note_off_c,0,70,0
2,478220, Note_on_c,0,72,100
2,478220, Note_off_c,0,69,0
2,478580, Note_on_c,0,76,100
2,478580, Note_off_c,0,72,0
2,478660, Note_on_c,0,74,100
2,478660, Note_off_c,0,76,0
2,478680, Note_on_c,0,69,100
2,478680, Note_off_c,0,74,0
2,478960, Note_on_c,0,67,100
2,478960, Note_off_c,0,69,0
2,480820, Note_on_c,0,64,100
2,480820, Note_on_c,0,69,100
2,480820, Note_off_c,0,67,0
2,481560, Note_on_c,0,62,100
2,481560, Note_off_c,0,64,0
2,482740, Note_on_c,0,72,100
2,482740, Note_off_c,0,62,0
2,482740, Note_off_c,0,69,0
2,487160, Note_on_c,0,52,100
2,487160, Note_on_c,0,71,100
2,487160, Note_off_c,0,72,0
2,487340, Note_on_c,0,67,100
2,487340, Note_off_c,0,52,0
2,488080, Note_on_c,0,62,100
2,488260, Note_off_c,0,62,0
2,493160, Note_on_c,0,72,100
2,493160, Note_off_c,0,71,0
2,494160, Note_on_c,0,60,100
2,494440, Note_off_c,0,72,0
2,502340, Note_on_c,0,69,100
2,502340, Note_off_c,0,67,0
2,504780, Note_on_c,0,79,100
2,504820, Note_on_c,0,76,100
2,504820, Note_off_c,0,79,0
2,505440, Note_off_c,0,60,0
2,505680, Note_on_c,0,64,100
2,505860, Note_on_c,0,81,100
2,505880, Note_off_c,0,81,0
2,506280, Note_on_c,0,60,100
2,506280, Note_off_c,0,64,0
2,506440, Note_off_c,0,60,0
2,506560, Note_on_c,0,67,100
2,506560, Note_off_c,0,69,0
2,506660, Note_on_c,0,74,100
2,506660, Note_off_c,0,76,0
2,506720, Note_on_c,0,76,100
2,506720, Note_off_c,0,74,0
2,507480, Note_on_c,0,60,100
2,509300, Note_on_c,0,69,100
2,509300, Note_off_c,0,67,0
2,509380, Note_off_c,0,60,0
2,509380, Note_off_c,0,76,0
2,509400, Note_on_c,0,60,100
2,510500, Note_off_c,0,60,0
2,510760, Note_on_c,0,72,100
2,510760, Note_off_c,0,69,0
2,510780, Note_on_c,0,60,100
2,510800, Note_on_c,0,69,100
2,510800, Note_off_c,0,72,0
2,514380, Note_off_c,0,60,0
2,514960, Note_on_c,0,67,100
2,514960, Note_off_c,0,69,0
2,517060, Note_on_c,0,72,100
2,517060, Note_off_c,0,67,0
2,517820, Note_on_c,0,76,100
2,517820, Note_off_c,0,72,0
2,517840, Note_on_c,0,72,100
2,517840, Note_off_c,0,76,0
2,518960, Note_on_c,0,76,100
2,518960, Note_off_c,0,72,0
2,519300, Note_on_c,0,64,100
2,520120, Note_on_c,0,66,100
2,520120, Note_off_c,0,64,0
2,520240, Note_on_c,0,64,100
2,520240, Note_off_c,0,66,0
2,520880, Note_on_c,0,71,100
2,520880, Note_off_c,0,76,0
2,520960, Note_on_c,0,76,100
2,520960, Note_off_c,0,71,0
2,521080, Note_on_c,0,72,100
2,521180, Note_off_c,0,72,0
2,524040, Note_on_c,0,50,100
2,524040, Note_off_c,0,64,0
2,524100, Note_off_c,0,50,0
2,524140, Note_off_c,0,76,0
2,524160, Note_on_c,0,76,100
2,524220, Note_on_c,0,72,100
2,524260, Note_on_c,0,64,100
2,524260, Note_off_c,0,72,0
2,524400, Note_off_c,0,64,0
2,524400, Note_off_c,0,76,0
2,524420, Note_on_c,0,57,100
2,524420, Note_on_c,0,71,100
2,524420, Note_on_c,0,81,100
2,524500, Note_on_c,0,83,100
2,524500, Note_off_c,0,81,0
2,524520, Note_on_c,0,76,100
2,524520, Note_off_c,0,57,0
2,524520, Note_off_c,0,71,0
2,524580, Note_on_c,0,50,100
2,524680, Note_on_c,0,57,100
2,524680, Note_off_c,0,50,0
2,524720, Note_on_c,0,79,100
2,524720, Note_off_c,0,76,0
2,524800, Note_on_c,0,52,100
2,524800, Note_off_c,0,57,0
2,524840, Note_on_c,0,76,100
2,524840, Note_off_c,0,79,0
2,524860, Note_on_c,0,72,100
2,524860, Note_off_c,0,76,0
2,524900, Note_on_c,0,64,100
2,524900, Note_off_c,0,52,0
2,524920, Note_on_c,0,62,100
2,524920, Note_on_c,0,76,100
2,524920, Note_off_c,0,64,0
2,524920, Note_off_c,0,72,0
2,524940, Note_off_c,0,83,0
2,524960, Note_on_c,0,50,100
2,524960, Note_on_c,0,69,100
2,524960, Note_off_c,0,62,0
2,524980, Note_off_c,0,69,0
2,524980, Note_off_c,0,76,0
2,525000, Note_on_c,0,64,100
2,525000, Note_on_c,0,71,100
2,525040, Note_off_c,0,50,0
2,525080, Note_off_c,0,64,0
2,525100, Note_on_c,0,47,100
2,525160, Note_on_c,0,50,100
2,525160, Note_on_c,0,90,100
2,525160, Note_off_c,0,47,0
2,525160, Note_off_c,0,71,0
2,525180, Note_on_c,0,54,100
2,525180, Note_on_c,0,85,100
2,525180, Note_off_c,0,90,0
2,525200, Note_off_c,0,54,0
2,525220, Note_on_c,0,45,100
2,525220, Note_on_c,0,57,100
2,525220, Note_off_c,0,50,0
2,525240, Note_off_c,0,45,0
2,525240, Note_off_c,0,57,0
2,525240, Note_off_c,0,85,0
2,525260, Note_on_c,0,57,100
2,525280, Note_off_c,0,57,0
2,525300, Note_on_c,0,35,100
2,525300, Note_on_c,0,72,100
2,525300, Note_on_c,0,79,100
2,525320, Note_off_c,0,35,0
2,525420, Note_on_c,0,52,100
2,525520, Note_on_c,0,76,100
2,525520, Note_off_c,0,72,0
2,525600, Note_off_c,0,52,0
2,525860, Note_off_c,0,76,0
2,525940, Note_on_c,0,50,100
2,526040, Note_off_c,0,79,0
2,526060, Note_on_c,0,60,100
2,526120, Note_off_c,0,60,0
2,526500, Note_on_c,0,35,100
2,526520, Note_on_c,0,88,100
2,526520, Note_off_c,0,35,0
2,526520, Note_off_c,0,50,0
2,526540, Note_on_c,0,35,100
2,526580, Note_off_c,0,35,0
2,526660, Note_on_c,0,50,100
2,527000, Note_on_c,0,85,100
2,527000, Note_off_c,0,88,0
2,527020, Note_on_c,0,88,100
2,527020, Note_off_c,0,85,0
2,527120, Note_on_c,0,38,100
2,527120, Note_on_c,0,64,100
2,527120, Note_on_c,0,85,100
2,527120, Note_off_c,0,50,0
2,527120, Note_off_c,0,88,0
2,527160, Note_on_c,0,88,100
2,527160, Note_off_c,0,85,0
2,527180, Note_off_c,0,88,0
2,527200, Note_on_c,0,50,100
2,527200, Note_on_c,0,90,100
2,527200, Note_off_c,0,38,0
2,527200, Note_off_c,0,64,0
2,527220, Note_off_c,0,90,0
2,527260, Note_on_c,0,83,100
2,527420, Note_off_c,0,50,0
2,527460, Note_on_c,0,56,100
2,527520, Note_on_c,0,55,100
2,527520, Note_off_c,0,56,0
2,527640, Note_on_c,0,81,100
2,527640, Note_off_c,0,83,0
2,527740, Note_on_c,0,74,100
2,527740, Note_off_c,0,55,0
2,527760, Note_on_c,0,50,100
2,527800, Note_off_c,0,74,0
2,527840, Note_on_c,0,57,100
2,527840, Note_off_c,0,50,0
2,528180, Note_on_c,0,79,100
2,528180, Note_off_c,0,81,0
2,528260, Note_on_c,0,76,100
2,528260, Note_off_c,0,79,0
2,528740, Note_on_c,0,64,100
2,528740, Note_off_c,0,57,0
2,529160, Note_on_c,0,60,100
2,529160, Note_off_c,0,64,0
2,530880, Note_on_c,0,79,100
2,530880, Note_off_c,0,76,0
2,531300, Note_on_c,0,76,100
2,531300, Note_off_c,0,79,0
2,531420, Note_on_c,0,64,100
2,531420, Note_off_c,0,60,0
2,531500, Note_on_c,0,55,100
2,531500, Note_off_c,0,76,0
2,531600, Note_on_c,0,57,100
2,531600, Note_off_c,0,55,0
2,531620, Note_off_c,0,64,0
2,531640, Note_on_c,0,50,100
2,531640, Note_off_c,0,57,0
2,531720, Note_on_c,0,79,100
2,531760, Note_off_c,0,50,0
2,531800, Note_on_c,0,64,100
2,531980, Note_on_c,0,76,100
2,531980, Note_off_c,0,79,0
2,532380, Note_off_c,0,64,0
2,532380, Note_off_c,0,76,0
2,532400, Note_on_c,0,55,100
2,532400, Note_on_c,0,79,100
2,532660, Note_on_c,0,50,100
2,532660, Note_off_c,0,55,0
2,532720, Note_on_c,0,55,100
2,532720, Note_off_c,0,50,0
2,532740, Note_on_c,0,81,100
2,532740, Note_off_c,0,79,0
2,532800, Note_on_c,0,79,100
2,532860, Note_off_c,0,79,0
2,532900, Note_off_c,0,81,0
2,532920, Note_on_c,0,81,100
2,533240, Note_on_c,0,69,100
2,533240, Note_off_c,0,55,0
2,533400, Note_on_c,0,55,100
2,533400, Note_on_c,0,83,100
2,533400, Note_off_c,0,81,0
2,533420, Note_on_c,0,71,100
2,533420, Note_off_c,0,69,0
2,533480, Note_on_c,0,45,100
2,533480, Note_on_c,0,69,100
2,533480, Note_off_c,0,55,0
2,533480, Note_off_c,0,71,0
2,533500, Note_off_c,0,45,0
2,533520, Note_on_c,0,84,100
2,533520, Note_off_c,0,83,0
2,533580, Note_on_c,0,83,100
2,533580, Note_off_c,0,84,0
2,533620, Note_on_c,0,50,100
2,533620, Note_on_c,0,74,100
2,533620, Note_off_c,0,69,0
2,533680, Note_on_c,0,79,100
2,533680, Note_off_c,0,74,0
2,533920, Note_off_c,0,79,0
2,534240, Note_off_c,0,50,0
2,534260, Note_on_c,0,57,100
2,534260, Note_on_c,0,81,100
2,534260, Note_off_c,0,83,0
2,534520, Note_on_c,0,59,100
2,534520, Note_off_c,0,57,0
2,534680, Note_on_c,0,55,100
2,534680, Note_on_c,0,79,100
2,534680, Note_off_c,0,59,0
2,534680, Note_off_c,0,81,0
2,534840, Note_on_c,0,81,100
2,534840, Note_off_c,0,79,0
2,534880, Note_on_c,0,60,100
2,534880, Note_off_c,0,55,0
2,534900, Note_on_c,0,79,100
2,534900, Note_off_c,0,81,0
2,534940, Note_on_c,0,55,100
2,534940, Note_off_c,0,60,0
2,535060, Note_on_c,0,57,100
2,535080, Note_on_c,0,81,100
2,535080, Note_off_c,0,55,0
2,535080, Note_off_c,0,79,0
2,535100, Note_off_c,0,81,0
2,535120, Note_on_c,0,79,100
2,535240, Note_on_c,0,76,100
2,535240, Note_off_c,0,79,0
2,535260, Note_on_c,0,55,100
2,535260, Note_on_c,0,79,100
2,535260, Note_off_c,0,57,0
2,535260, Note_off_c,0,76,0
2,535340, Note_on_c,0,78,100
2,535340, Note_off_c,0,79,0
2,535420, Note_on_c,0,88,100
2,535420, Note_off_c,0,78,0
2,535440, Note_on_c,0,83,100
2,535440, Note_off_c,0,88,0
2,535460, Note_on_c,0,81,100
2,535460, Note_off_c,0,83,0
2,535500, Note_on_c,0,79,100
2,535500, Note_off_c,0,81,0
2,535580, Note_on_c,0,81,100
2,535580, Note_off_c,0,79,0
2,535600, Note_on_c,0,54,100
2,535600, Note_off_c,0,55,0
2,535760, Note_on_c,0,67,100
2,535760, Note_off_c,0,54,0
2,535840, Note_on_c,0,50,100
2,535840, Note_off_c,0,67,0
2,535920, Note_on_c,0,79,100
2,535920, Note_off_c,0,81,0
2,535960, Note_on_c,0,81,100
2,535960, Note_off_c,0,79,0
2,536020, Note_on_c,0,57,100
2,536020, Note_off_c,0,50,0
2,536240, Note_on_c,0,45,100
2,536420, Note_on_c,0,88,100
2,536420, Note_off_c,0,57,0
2,536420, Note_off_c,0,81,0
2,536440, Note_on_c,0,57,100
2,536440, Note_on_c,0,81,100
2,536440, Note_off_c,0,88,0
2,536480, Note_on_c,0,50,100
2,536480, Note_off_c,0,45,0
2,536640, Note_on_c,0,64,100
2,536640, Note_off_c,0,57,0
2,536680, Note_on_c,0,62,100
2,536680, Note_off_c,0,64,0
2,536860, Note_off_c,0,62,0
2,536880, Note_on_c,0,79,100
2,536980, Note_off_c,0,79,0
2,537020, Note_off_c,0,81,0
2,537040, Note_on_c,0,74,100
2,537080, Note_on_c,0,69,100
2,537080, Note_off_c,0,74,0
2,537100, Note_on_c,0,67,100
2,537120, Note_off_c,0,69,0
2,537140, Note_on_c,0,62,100
2,537140, Note_on_c,0,66,100
2,537140, Note_off_c,0,67,0
2,537180, Note_on_c,0,69,100
2,537180, Note_off_c,0,66,0
2,537220, Note_off_c,0,62,0
2,537240, Note_on_c,0,57,100
2,537240, Note_off_c,0,50,0
2,537340, Note_on_c,0,50,100
2,537340, Note_on_c,0,62,100
2,537380, Note_off_c,0,57,0
2,537400, Note_off_c,0,69,0
2,537440, Note_on_c,0,69,100
2,537440, Note_off_c,0,62,0
2,537480, Note_on_c,0,62,100
2,537480, Note_off_c,0,69,0
2,537680, Note_on_c,0,69,100
2,537680, Note_off_c,0,62,0
2,537740, Note_off_c,0,69,0
2,537800, Note_on_c,0,57,100
2,537800, Note_off_c,0,50,0
2,537840, Note_on_c,0,65,100
2,537920, Note_off_c,0,65,0
2,537940, Note_on_c,0,50,100
2,537940, Note_on_c,0,66,100
2,537980, Note_on_c,0,64,100
2,537980, Note_off_c,0,57,0
2,537980, Note_off_c,0,66,0
2,538020, Note_on_c,0,62,100
2,538020, Note_off_c,0,64,0
2,538280, Note_on_c,0,69,100
2,538580, Note_off_c,0,69,0
2,538980, Note_on_c,0,52,100
2,538980, Note_off_c,0,50,0
2,539080, Note_off_c,0,62,0
2,539340, Note_on_c,0,64,100
2,539340, Note_off_c,0,52,0
2,539740, Note_on_c,0,62,100
2,539740, Note_off_c,0,64,0
2,539860, Note_on_c,0,50,100
2,539860, Note_off_c,0,62,0
2,539940, Note_off_c,0,50,0
2,539960, Note_on_c,0,50,100
2,540260, Note_off_c,0,50,0
2,540280, Note_on_c,0,50,100
2,540440, Note_on_c,0,69,100
2,540600, Note_off_c,0,69,0
2,541120, Note_on_c,0,35,100
2,541120, Note_off_c,0,50,0
2,541140, Note_off_c,0,35,0
2,541200, Note_on_c,0,50,100
2,541560, Note_on_c,0,67,100
2,541680, Note_off_c,0,67,0
2,542460, Note_on_c,0,57,100
2,542460, Note_off_c,0,50,0
2,542560, Note_on_c,0,50,100
2,542560, Note_off_c,0,57,0
2,542680, Note_on_c,0,62,100
2,542900, Note_on_c,0,55,100
2,542900, Note_off_c,0,50,0
2,542920, Note_off_c,0,62,0
2,543020, Note_on_c,0,50,100
2,543020, Note_off_c,0,55,0
2,543100, Note_on_c,0,55,100
2,543100, Note_off_c,0,50,0
2,543180, Note_on_c,0,50,100
2,543180, Note_off_c,0,55,0
2,543520, Note_on_c,0,55,100
2,543520, Note_off_c,0,50,0
2,543860, Note_on_c,0,50,100
2,543860, Note_off_c,0,55,0
2,544620, Note_on_c,0,54,100
2,544620, Note_off_c,0,50,0
2,544780, Note_on_c,0,50,100
2,544780, Note_off_c,0,54,0
2,545220, Note_on_c,0,52,100
2,545220, Note_off_c,0,50,0
2,545360, Note_on_c,0,50,100
2,545360, Note_off_c,0,52,0
2,545460, Note_on_c,0,67,100
2,545600, Note_on_c,0,69,100
2,545600, Note_off_c,0,67,0
2,545640, Note_on_c,0,64,100
2,545640, Note_off_c,0,69,0
2,545680, Note_on_c,0,62,100
2,545680, Note_off_c,0,64,0
2,545900, Note_off_c,0,62,0
2,545920, Note_off_c,0,50,0
2,546040, Note_on_c,0,50,100
2,546040, Note_on_c,0,71,100
2,546120, Note_on_c,0,67,100
2,546120, Note_off_c,0,71,0
2,546140, Note_on_c,0,63,100
2,546140, Note_on_c,0,72,100
2,546140, Note_off_c,0,50,0
2,546160, Note_off_c,0,72,0
2,546200, Note_on_c,0,50,100
2,546200, Note_on_c,0,65,100
2,546200, Note_off_c,0,63,0
2,546200, Note_off_c,0,67,0
2,546260, Note_on_c,0,45,100
2,546260, Note_off_c,0,50,0
2,546360, Note_on_c,0,50,100
2,546360, Note_on_c,0,66,100
2,546360, Note_off_c,0,45,0
2,546360, Note_off_c,0,65,0
2,546380, Note_on_c,0,69,100
2,546400, Note_on_c,0,74,100
2,546400, Note_off_c,0,66,0
2,546460, Note_on_c,0,62,100
2,546460, Note_off_c,0,50,0
2,546460, Note_off_c,0,69,0
2,546460, Note_off_c,0,74,0
2,546480, Note_on_c,0,50,100
2,546480, Note_on_c,0,66,100
2,546480, Note_off_c,0,62,0
2,546540, Note_on_c,0,40,100
2,546540, Note_off_c,0,50,0
2,546540, Note_off_c,0,66,0
2,546560, Note_on_c,0,45,100
2,546560, Note_off_c,0,40,0
2,546640, Note_on_c,0,57,100
2,546660, Note_on_c,0,69,100
2,546660, Note_off_c,0,45,0
2,546740, Note_on_c,0,50,100
2,546740, Note_off_c,0,57,0
2,546800, Note_on_c,0,47,100
2,546800, Note_off_c,0,50,0
2,546900, Note_off_c,0,69,0
2,546920, Note_on_c,0,62,100
2,546920, Note_on_c,0,64,100
2,546940, Note_on_c,0,50,100
2,546940, Note_off_c,0,47,0
2,546960, Note_on_c,0,77,100
2,546960, Note_off_c,0,64,0
2,546980, Note_on_c,0,66,100
2,546980, Note_on_c,0,74,100
2,546980, Note_off_c,0,62,0
2,546980, Note_off_c,0,77,0
2,547020, Note_on_c,0,62,100
2,547020, Note_on_c,0,71,100
2,547020, Note_off_c,0,66,0
2,547020, Note_off_c,0,74,0
2,547040, Note_on_c,0,74,100
2,547040, Note_off_c,0,71,0
2,547060, Note_on_c,0,69,100
2,547060, Note_off_c,0,62,0
2,547120, Note_on_c,0,57,100
2,547120, Note_off_c,0,50,0
2,547200, Note_on_c,0,50,100
2,547200, Note_off_c,0,57,0
2,548060, Note_on_c,0,62,100
2,548060, Note_off_c,0,50,0
2,548120, Note_on_c,0,50,100
2,548120, Note_off_c,0,62,0
2,548620, Note_on_c,0,62,100
2,548620, Note_off_c,0,50,0
2,548680, Note_on_c,0,50,100
2,548680, Note_off_c,0,62,0
2,548740, Note_on_c,0,62,100
2,548740, Note_off_c,0,50,0
2,548800, Note_on_c,0,50,100
2,548800, Note_off_c,0,62,0
2,549080, Note_on_c,0,62,100
2,549080, Note_off_c,0,50,0
2,549140, Note_on_c,0,50,100
2,549140, Note_off_c,0,62,0
2,549560, Note_off_c,0,50,0
2,549580, Note_on_c,0,62,100
2,549640, Note_on_c,0,50,100
2,549640, Note_off_c,0,62,0
2,549940, Note_off_c,0,69,0
2,549940, Note_off_c,0,74,0
2,549960, Note_on_c,0,69,100
2,549960, Note_on_c,0,73,100
2,550600, Note_on_c,0,65,100
2,550600, Note_off_c,0,69,0
2,550640, Note_on_c,0,69,100
2,550640, Note_off_c,0,65,0
2,550780, Note_on_c,0,62,100
2,550780, Note_off_c,0,50,0
2,550800, Note_off_c,0,62,0
2,550860, Note_off_c,0,69,0
2,550880, Note_off_c,0,73,0
2,550960, Note_on_c,0,57,100
2,551020, Note_on_c,0,81,100
2,551080, Note_off_c,0,81,0
2,551100, Note_off_c,0,57,0
2,551120, Note_on_c,0,54,100
2,551120, Note_on_c,0,79,100
2,551260, Note_on_c,0,84,100
2,551260, Note_off_c,0,79,0
2,551280, Note_on_c,0,81,100
2,551280, Note_off_c,0,84,0
2,551320, Note_on_c,0,80,100
2,551320, Note_off_c,0,81,0
2,551360, Note_on_c,0,78,100
2,551360, Note_off_c,0,80,0
2,551380, Note_on_c,0,52,100
2,551380, Note_off_c,0,54,0
2,551420, Note_on_c,0,55,100
2,551420, Note_off_c,0,52,0
2,551440, Note_on_c,0,59,100
2,551440, Note_off_c,0,55,0
2,551480, Note_on_c,0,49,100
2,551480, Note_on_c,0,64,100
2,551480, Note_off_c,0,59,0
2,551560, Note_off_c,0,64,0
2,551580, Note_on_c,0,54,100
2,551580, Note_on_c,0,66,100
2,551600, Note_off_c,0,54,0
2,551820, Note_on_c,0,61,100
2,551840, Note_off_c,0,61,0
2,551920, Note_on_c,0,74,100
2,551920, Note_off_c,0,78,0
2,552120, Note_on_c,0,54,100
2,552120, Note_off_c,0,49,0
2,552240, Note_on_c,0,69,100
2,552240, Note_off_c,0,54,0
2,552240, Note_off_c,0,74,0
2,552260, Note_on_c,0,54,100
2,552460, Note_on_c,0,49,100
2,552460, Note_off_c,0,54,0
2,552520, Note_on_c,0,67,100
2,552520, Note_off_c,0,66,0
2,552540, Note_off_c,0,67,0
2,552560, Note_on_c,0,66,100
2,552560, Note_off_c,0,69,0
2,552760, Note_on_c,0,50,100
2,552760, Note_off_c,0,49,0
2,552980, Note_on_c,0,67,100
2,552980, Note_off_c,0,66,0
2,553020, Note_on_c,0,66,100
2,553020, Note_off_c,0,67,0
2,553640, Note_on_c,0,54,100
2,553640, Note_off_c,0,50,0
2,553800, Note_on_c,0,45,100
2,553800, Note_off_c,0,54,0
2,553880, Note_on_c,0,50,100
2,553880, Note_off_c,0,45,0
2,554240, Note_on_c,0,62,100
2,554240, Note_off_c,0,66,0
2,554360, Note_on_c,0,54,100
2,554360, Note_off_c,0,50,0
2,554480, Note_on_c,0,52,100
2,554480, Note_off_c,0,54,0
2,554600, Note_on_c,0,50,100
2,554600, Note_off_c,0,52,0
2,554960, Note_off_c,0,62,0
2,554980, Note_on_c,0,52,100
2,554980, Note_on_c,0,61,100
2,554980, Note_off_c,0,50,0
2,555080, Note_on_c,0,64,100
2,555080, Note_off_c,0,61,0
2,555140, Note_off_c,0,64,0
2,555240, Note_on_c,0,50,100
2,555240, Note_off_c,0,52,0
2,555280, Note_on_c,0,62,100
2,555280, Note_off_c,0,50,0
2,555300, Note_on_c,0,50,100
2,555440, Note_on_c,0,72,100
2,555440, Note_off_c,0,62,0
2,555600, Note_on_c,0,78,100
2,555600, Note_off_c,0,72,0
2,555620, Note_on_c,0,73,100
2,555620, Note_on_c,0,81,100
2,555620, Note_off_c,0,78,0
2,555720, Note_on_c,0,74,100
2,555720, Note_off_c,0,73,0
2,555760, Note_on_c,0,69,100
2,555760, Note_off_c,0,74,0
2,556080, Note_on_c,0,62,100
2,556080, Note_off_c,0,69,0
2,556140, Note_off_c,0,62,0
2,556160, Note_on_c,0,62,100
2,556220, Note_on_c,0,74,100
2,556220, Note_off_c,0,81,0
2,557560, Note_off_c,0,62,0
2,557560, Note_off_c,0,74,0
2,557580, Note_on_c,0,66,100
2,557580, Note_on_c,0,74,100
2,557640, Note_on_c,0,62,100
2,557640, Note_off_c,0,66,0
2,557880, Note_on_c,0,64,100
2,557880, Note_off_c,0,62,0
2,557920, Note_on_c,0,57,100
2,557920, Note_off_c,0,50,0
2,558080, Note_off_c,0,74,0
2,558580, Note_off_c,0,64,0
2,558720, Note_on_c,0,45,100
2,558720, Note_on_c,0,69,100
2,558740, Note_off_c,0,45,0
2,558740, Note_off_c,0,69,0
2,558760, Note_on_c,0,62,100
2,558760, Note_on_c,0,69,100
2,558760, Note_off_c,0,57,0
2,558860, Note_on_c,0,76,100
2,558900, Note_off_c,0,69,0
2,558940, Note_on_c,0,50,100
2,558940, Note_off_c,0,62,0
2,559340, Note_on_c,0,71,100
2,559340, Note_on_c,0,79,100
2,559340, Note_off_c,0,76,0
2,559740, Note_on_c,0,54,100
2,559740, Note_off_c,0,50,0
2,560140, Note_on_c,0,74,100
2,560140, Note_off_c,0,79,0
2,560260, Note_on_c,0,70,100
2,560260, Note_off_c,0,71,0
2,560300, Note_on_c,0,69,100
2,560300, Note_off_c,0,70,0
2,560400, Note_on_c,0,71,100
2,560400, Note_off_c,0,69,0
2,560520, Note_off_c,0,74,0
2,560580, Note_on_c,0,78,100
2,560620, Note_on_c,0,72,100
2,560620, Note_off_c,0,71,0
2,560660, Note_on_c,0,81,100
2,560660, Note_off_c,0,78,0
2,560680, Note_on_c,0,69,100
2,560680, Note_off_c,0,72,0
2,560780, Note_on_c,0,83,100
2,560780, Note_off_c,0,81,0
2,560800, Note_on_c,0,52,100
2,560800, Note_on_c,0,71,100
2,560800, Note_off_c,0,69,0
2,560820, Note_off_c,0,54,0
2,561060, Note_on_c,0,64,100
2,561060, Note_off_c,0,52,0
2,561060, Note_off_c,0,71,0
2,561080, Note_off_c,0,64,0
2,561100, Note_on_c,0,54,100
2,561100, Note_on_c,0,57,100
2,561100, Note_on_c,0,81,100
2,561100, Note_off_c,0,83,0
2,561160, Note_on_c,0,76,100
2,561160, Note_off_c,0,81,0
2,561200, Note_off_c,0,57,0
2,561220, Note_on_c,0,57,100
2,561220, Note_off_c,0,54,0
2,561500, Note_on_c,0,64,100
2,561500, Note_off_c,0,57,0
2,561540, Note_on_c,0,69,100
2,561540, Note_off_c,0,64,0
2,561620, Note_on_c,0,57,100
2,561620, Note_on_c,0,71,100
2,561620, Note_off_c,0,69,0
2,561820, Note_on_c,0,59,100
2,561820, Note_off_c,0,57,0
2,562160, Note_off_c,0,59,0
2,562240, Note_on_c,0,64,100
2,563360, Note_off_c,0,71,0
2,563900, Note_off_c,0,64,0
2,563900, Note_off_c,0,76,0
2,563920, Note_on_c,0,63,100
2,563920, Note_on_c,0,78,100
2,564060, Note_off_c,0,63,0
2,564080, Note_on_c,0,69,100
2,564940, Note_on_c,0,76,100
2,564940, Note_off_c,0,69,0
2,564960, Note_on_c,0,57,100
2,564960, Note_on_c,0,74,100
2,564960, Note_off_c,0,76,0
2,564980, Note_off_c,0,57,0
2,564980, Note_off_c,0,74,0
2,564980, Note_off_c,0,78,0
2,565000, Note_on_c,0,66,100
2,565000, Note_on_c,0,74,100
2,565080, Note_on_c,0,64,100
2,565080, Note_off_c,0,66,0
2,565120, Note_on_c,0,76,100
2,565120, Note_off_c,0,64,0
2,565120, Note_off_c,0,74,0
2,565360, Note_on_c,0,57,100
2,565360, Note_on_c,0,74,100
2,565360, Note_off_c,0,76,0
2,565420, Note_on_c,0,70,100
2,565420, Note_off_c,0,57,0
2,565500, Note_off_c,0,70,0
2,565520, Note_on_c,0,50,100
2,565700, Note_off_c,0,50,0
2,565700, Note_off_c,0,74,0
2,565720, Note_on_c,0,52,100
2,565780, Note_on_c,0,64,100
2,565840, Note_off_c,0,52,0
2,565960, Note_off_c,0,64,0
2,566040, Note_on_c,0,95,100
2,566060, Note_on_c,0,74,100
2,566060, Note_off_c,0,95,0
2,566260, Note_off_c,0,74,0
2,566280, Note_on_c,0,74,100
2,566340, Note_off_c,0,74,0
2,566360, Note_on_c,0,74,100
2,566420, Note_off_c,0,74,0
2,566520, Note_on_c,0,74,100
2,566540, Note_on_c,0,50,100
2,566600, Note_off_c,0,50,0
2,566620, Note_off_c,0,74,0
2,566640, Note_on_c,0,50,100
2,566640, Note_on_c,0,74,100
2,566740, Note_off_c,0,50,0
2,566760, Note_off_c,0,74,0
2,566840, Note_on_c,0,74,100
2,566900, Note_off_c,0,74,0
2,567000, Note_on_c,0,74,100
2,567100, Note_off_c,0,74,0
2,567320, Note_on_c,0,50,100
2,567380, Note_off_c,0,50,0
2,567700, Note_on_c,0,79,100
2,567800, Note_on_c,0,49,100
2,567800, Note_on_c,0,86,100
2,567880, Note_off_c,0,49,0
2,567900, Note_off_c,0,79,0
2,567900, Note_off_c,0,86,0
2,567920, Note_on_c,0,54,100
2,567920, Note_on_c,0,57,100
2,567920, Note_on_c,0,85,100
2,567960, Note_off_c,0,54,0
2,567960, Note_off_c,0,57,0
2,567960, Note_off_c,0,85,0
2,569840, Note_on_c,0,49,100
2,569920, Note_on_c,0,47,100
2,569920, Note_on_c,0,59,100
2,569920, Note_off_c,0,49,0
2,569960, Note_off_c,0,59,0
2,570000, Note_on_c,0,63,100
2,570000, Note_off_c,0,47,0
2,570020, Note_off_c,0,63,0
2,570040, Note_on_c,0,62,100
2,570160, Note_on_c,0,50,100
2,570280, Note_on_c,0,69,100
2,570280, Note_off_c,0,62,0
2,570420, Note_off_c,0,69,0
2,570440, Note_on_c,0,74,100
2,573140, Note_on_c,0,62,100
2,573140, Note_off_c,0,50,0
2,573200, Note_on_c,0,50,100
2,573200, Note_off_c,0,62,0
2,573440, Note_on_c,0,73,100
2,573440, Note_off_c,0,74,0
2,573600, Note_off_c,0,73,0
2,573640, Note_on_c,0,64,100
2,573680, Note_on_c,0,69,100
2,573680, Note_on_c,0,74,100
2,573680, Note_off_c,0,64,0
2,573740, Note_on_c,0,62,100
2,573740, Note_off_c,0,50,0
2,573780, Note_off_c,0,69,0
2,573800, Note_on_c,0,50,100
2,573800, Note_on_c,0,69,100
2,573800, Note_off_c,0,62,0
2,574060, Note_on_c,0,72,100
2,574060, Note_off_c,0,74,0
2,574080, Note_on_c,0,71,100
2,574080, Note_on_c,0,74,100
2,574080, Note_off_c,0,69,0
2,574080, Note_off_c,0,72,0
2,574440, Note_on_c,0,52,100
2,574440, Note_off_c,0,50,0
2,574460, Note_on_c,0,76,100
2,574460, Note_off_c,0,74,0
2,574540, Note_off_c,0,71,0
2,574560, Note_on_c,0,66,100
2,574580, Note_on_c,0,50,100
2,574580, Note_off_c,0,52,0
2,574620, Note_on_c,0,62,100
2,574620, Note_off_c,0,66,0
2,574640, Note_off_c,0,76,0
2,574660, Note_on_c,0,74,100
2,574720, Note_off_c,0,50,0
2,574740, Note_on_c,0,50,100
2,574740, Note_off_c,0,62,0
2,574760, Note_on_c,0,81,100
2,574760, Note_off_c,0,74,0
2,574780, Note_on_c,0,69,100
2,574800, Note_off_c,0,81,0
2,574820, Note_on_c,0,78,100
2,574860, Note_on_c,0,74,100
2,574860, Note_off_c,0,78,0
2,575140, Note_on_c,0,62,100
2,575140, Note_off_c,0,50,0
2,575200, Note_on_c,0,50,100
2,575200, Note_off_c,0,62,0
2,575580, Note_on_c,0,62,100
2,575580, Note_off_c,0,50,0
2,575620, Note_on_c,0,50,100
2,575620, Note_off_c,0,62,0
2,575640, Note_on_c,0,76,100
2,575640, Note_off_c,0,74,0
2,576060, Note_off_c,0,76,0
2,576080, Note_on_c,0,74,100
2,578480, Note_on_c,0,76,100
2,578480, Note_off_c,0,74,0
2,578560, Note_on_c,0,74,100
2,578560, Note_off_c,0,76,0
2,578580, Note_on_c,0,62,100
2,578580, Note_off_c,0,50,0
2,578580, Note_off_c,0,69,0
2,578600, Note_on_c,0,50,100
2,578600, Note_on_c,0,73,100
2,578640, Note_on_c,0,69,100
2,578640, Note_off_c,0,73,0
2,578700, Note_off_c,0,50,0
2,578720, Note_on_c,0,50,100
2,578720, Note_off_c,0,62,0
2,580420, Note_on_c,0,76,100
2,580440, Note_off_c,0,74,0
2,580500, Note_on_c,0,77,100
2,580520, Note_off_c,0,77,0
2,581920, Note_on_c,0,74,100
2,581920, Note_off_c,0,76,0
2,582660, Note_on_c,0,76,100
2,582660, Note_off_c,0,74,0
2,583260, Note_on_c,0,74,100
2,583260, Note_off_c,0,76,0
2,586160, Note_off_c,0,69,0
2,586220, Note_on_c,0,69,100
2,586500, Note_on_c,0,73,100
2,586500, Note_off_c,0,74,0
2,586560, Note_on_c,0,76,100
2,586560, Note_off_c,0,73,0
2,586740, Note_off_c,0,50,0
2,586840, Note_on_c,0,55,100
2,586840, Note_on_c,0,57,100
2,586840, Note_on_c,0,71,100
2,586840, Note_off_c,0,69,0
2,586840, Note_off_c,0,76,0
2,586960, Note_on_c,0,73,100
2,586960, Note_off_c,0,57,0
2,586960, Note_off_c,0,71,0
2,586980, Note_on_c,0,69,100
2,587000, Note_on_c,0,42,100
2,587000, Note_off_c,0,55,0
2,587160, Note_off_c,0,42,0
2,587200, Note_off_c,0,69,0
2,587200, Note_off_c,0,73,0
2,587220, Note_on_c,0,69,100
2,587300, Note_off_c,0,69,0
2,587340, Note_on_c,0,69,100
2,587380, Note_on_c,0,76,100
2,587420, Note_on_c,0,45,100
2,588020, Note_off_c,0,45,0
2,588020, Note_off_c,0,69,0
2,588020, Note_off_c,0,76,0
2,588040, Note_on_c,0,57,100
2,588040, Note_on_c,0,69,100
2,588040, Note_on_c,0,76,100
2,588060, Note_on_c,0,35,100
2,588080, Note_off_c,0,35,0
2,588140, Note_off_c,0,69,0
2,588160, Note_off_c,0,76,0
2,588180, Note_on_c,0,69,100
2,588380, Note_on_c,0,37,100
2,588480, Note_off_c,0,37,0
2,588540, Note_on_c,0,45,100
2,589300, Note_on_c,0,72,100
2,589400, Note_off_c,0,57,0
2,589440, Note_on_c,0,76,100
2,589440, Note_off_c,0,72,0
2,590180, Note_on_c,0,57,100
2,590580, Note_off_c,0,69,0
2,590580, Note_off_c,0,76,0
2,590600, Note_on_c,0,66,100
2,590700, Note_off_c,0,57,0
2,590700, Note_off_c,0,66,0
2,590720, Note_on_c,0,62,100
2,590840, Note_on_c,0,57,100
2,590880, Note_off_c,0,45,0
2,590900, Note_on_c,0,50,100
2,590900, Note_off_c,0,57,0
2,590960, Note_on_c,0,64,100
2,590960, Note_off_c,0,62,0
2,591060, Note_on_c,0,57,100
2,591060, Note_off_c,0,50,0
2,591060, Note_off_c,0,64,0
2,591080, Note_on_c,0,50,100
2,591080, Note_on_c,0,62,100
2,591180, Note_on_c,0,59,100
2,591180, Note_off_c,0,57,0
2,591220, Note_on_c,0,66,100
2,591220, Note_off_c,0,59,0
2,591280, Note_on_c,0,35,100
2,591280, Note_on_c,0,59,100
2,591280, Note_off_c,0,50,0
2,591280, Note_off_c,0,62,0
2,591280, Note_off_c,0,66,0
2,591300, Note_on_c,0,62,100
2,591300, Note_off_c,0,35,0
2,591300, Note_off_c,0,59,0
2,591320, Note_off_c,0,62,0
2,591340, Note_on_c,0,50,100
2,591380, Note_off_c,0,50,0
2,591400, Note_on_c,0,47,100
2,591400, Note_on_c,0,66,100
2,591500, Note_on_c,0,64,100
2,591500, Note_off_c,0,66,0
2,591560, Note_on_c,0,63,100
2,591560, Note_off_c,0,64,0
2,591640, Note_off_c,0,47,0
2,591640, Note_off_c,0,63,0
2,591660, Note_on_c,0,47,100
2,591660, Note_on_c,0,64,100
2,591720, Note_on_c,0,63,100
2,591720, Note_off_c,0,64,0
2,591820, Note_off_c,0,47,0
2,591820, Note_off_c,0,63,0
2,591840, Note_on_c,0,50,100
2,591840, Note_on_c,0,63,100
2,591900, Note_on_c,0,66,100
2,591900, Note_off_c,0,63,0
2,591960, Note_on_c,0,62,100
2,591960, Note_off_c,0,66,0
2,592180, Note_on_c,0,69,100
2,592180, Note_off_c,0,62,0
2,592480, Note_on_c,0,57,100
2,592480, Note_off_c,0,50,0
2,592860, Note_on_c,0,62,100
2,592860, Note_off_c,0,57,0
2,593280, Note_on_c,0,50,100
2,593320, Note_off_c,0,62,0
2,593480, Note_on_c,0,74,100
2,593480, Note_off_c,0,69,0
2,593540, Note_off_c,0,74,0
2,593560, Note_on_c,0,69,100
2,593620, Note_on_c,0,62,100
2,593620, Note_off_c,0,69,0
2,593680, Note_on_c,0,69,100
2,593680, Note_off_c,0,62,0
2,593720, Note_on_c,0,73,100
2,593860, Note_on_c,0,74,100
2,593860, Note_off_c,0,73,0
2,593960, Note_on_c,0,62,100
2,593960, Note_off_c,0,50,0
2,594100, Note_on_c,0,50,100
2,594100, Note_off_c,0,62,0
2,594280, Note_on_c,0,62,100
2,594280, Note_off_c,0,50,0
2,594340, Note_on_c,0,50,100
2,594340, Note_off_c,0,62,0
2,594360, Note_on_c,0,75,100
2,594360, Note_off_c,0,74,0
2,594400, Note_on_c,0,74,100
2,594400, Note_off_c,0,75,0
2,594540, Note_on_c,0,77,100
2,594540, Note_off_c,0,74,0
2,595040, Note_on_c,0,66,100
2,595040, Note_on_c,0,72,100
2,595040, Note_off_c,0,69,0
2,595040, Note_off_c,0,77,0
2,595060, Note_on_c,0,74,100
2,595060, Note_off_c,0,72,0
2,595080, Note_on_c,0,64,100
2,595080, Note_on_c,0,75,100
2,595080, Note_off_c,0,66,0
2,595080, Note_off_c,0,74,0
2,595100, Note_on_c,0,71,100
2,595100, Note_off_c,0,75,0
2,595160, Note_off_c,0,50,0
2,595200, Note_on_c,0,50,100
2,595240, Note_on_c,0,74,100
2,595240, Note_off_c,0,64,0
2,595240, Note_off_c,0,71,0
2,595260, Note_on_c,0,69,100
2,595320, Note_on_c,0,62,100
2,595320, Note_off_c,0,50,0
2,595380, Note_on_c,0,50,100
2,595380, Note_off_c,0,62,0
2,595780, Note_on_c,0,62,100
2,595780, Note_off_c,0,50,0
2,595840, Note_on_c,0,50,100
2,595840, Note_off_c,0,62,0
2,595920, Note_on_c,0,62,100
2,595920, Note_off_c,0,50,0
2,595980, Note_on_c,0,50,100
2,595980, Note_off_c,0,62,0
2,596180, Note_off_c,0,69,0
2,596320, Note_on_c,0,69,100
2,598820, Note_on_c,0,76,100
2,598820, Note_off_c,0,74,0
2,599160, Note_on_c,0,74,100
2,599160, Note_off_c,0,76,0
2,599360, Note_on_c,0,72,100
2,599360, Note_off_c,0,69,0
2,599400, Note_on_c,0,69,100
2,599400, Note_off_c,0,74,0
2,599460, Note_on_c,0,45,100
2,599460, Note_off_c,0,50,0
2,599520, Note_on_c,0,76,100
2,599520, Note_off_c,0,72,0
2,600020, Note_off_c,0,69,0
2,600020, Note_off_c,0,76,0
2,600040, Note_on_c,0,52,100
2,600040, Note_on_c,0,79,100
2,600040, Note_off_c,0,45,0
2,600120, Note_on_c,0,78,100
2,600120, Note_off_c,0,79,0
2,600160, Note_on_c,0,76,100
2,600160, Note_off_c,0,78,0
2,600220, Note_off_c,0,76,0
2,600240, Note_on_c,0,69,100
2,600260, Note_on_c,0,57,100
2,600260, Note_off_c,0,52,0
2,600340, Note_on_c,0,76,100
2,600340, Note_off_c,0,69,0
2,600360, Note_on_c,0,35,100
2,600360, Note_off_c,0,76,0
2,600380, Note_off_c,0,35,0
2,600420, Note_on_c,0,40,100
2,600460, Note_off_c,0,40,0
2,600480, Note_on_c,0,40,100
2,600500, Note_off_c,0,40,0
2,600520, Note_on_c,0,40,100
2,600540, Note_off_c,0,40,0
2,600680, Note_off_c,0,57,0
2,600700, Note_on_c,0,40,100
2,600720, Note_on_c,0,35,100
2,600740, Note_off_c,0,35,0
2,600760, Note_off_c,0,40,0
2,600780, Note_on_c,0,40,100
2,600840, Note_off_c,0,40,0
2,600860, Note_on_c,0,40,100
2,600860, Note_on_c,0,59,100
2,600920, Note_off_c,0,40,0
2,600920, Note_off_c,0,59,0
2,600940, Note_on_c,0,40,100
2,600940, Note_on_c,0,54,100
2,601040, Note_on_c,0,46,100
2,601040, Note_off_c,0,54,0
2,601240, Note_off_c,0,46,0
2,601280, Note_off_c,0,40,0
2,601300, Note_on_c,0,40,100
2,601300, Note_on_c,0,59,100
2,601360, Note_off_c,0,59,0
2,601500, Note_on_c,0,79,100
2,601500, Note_off_c,0,40,0
2,601520, Note_on_c,0,40,100
2,601520, Note_on_c,0,46,100
2,601520, Note_on_c,0,57,100
2,601520, Note_on_c,0,47,100
2,601520, Note_off_c,0,79,0
2,601540, Note_on_c,0,42,100
2,601540, Note_on_c,0,52,100
2,601540, Note_off_c,0,46,0
2,601540, Note_off_c,0,47,0
2,601580, Note_off_c,0,57,0
2,601720, Note_off_c,0,42,0
2,602100, Note_on_c,0,49,100
2,602100, Note_off_c,0,52,0
2,602220, Note_on_c,0,52,100
2,602220, Note_on_c,0,61,100
2,602220, Note_off_c,0,40,0
2,602220, Note_off_c,0,49,0
2,602240, Note_on_c,0,40,100
2,602420, Note_on_c,0,49,100
2,602480, Note_off_c,0,49,0
2,602500, Note_on_c,0,49,100
2,602500, Note_on_c,0,59,100
2,602500, Note_off_c,0,52,0
2,602500, Note_off_c,0,61,0
2,602520, Note_on_c,0,61,100
2,602520, Note_off_c,0,40,0
2,602520, Note_off_c,0,59,0
2,602540, Note_on_c,0,65,100
2,602540, Note_off_c,0,49,0
2,602800, Note_on_c,0,42,100
2,603020, Note_on_c,0,44,100
2,603020, Note_off_c,0,42,0
2,603040, Note_on_c,0,42,100
2,603040, Note_on_c,0,66,100
2,603040, Note_off_c,0,44,0
2,603040, Note_off_c,0,65,0
2,603140, Note_on_c,0,40,100
2,603140, Note_off_c,0,42,0
2,603160, Note_off_c,0,66,0
2,603280, Note_on_c,0,57,100
2,603280, Note_off_c,0,40,0
2,603300, Note_on_c,0,40,100
2,603300, Note_on_c,0,52,100
2,603300, Note_off_c,0,57,0
2,603320, Note_on_c,0,45,100
2,603320, Note_on_c,0,59,100
2,603320, Note_off_c,0,40,0
2,603320, Note_off_c,0,52,0
2,603320, Note_off_c,0,61,0
2,603500, Note_on_c,0,50,100
2,603500, Note_off_c,0,45,0
2,603500, Note_off_c,0,59,0
2,603520, Note_off_c,0,50,0
2,603680, Note_on_c,0,83,100
2,603720, Note_on_c,0,50,100
2,603740, Note_on_c,0,40,100
2,603740, Note_off_c,0,50,0
2,603760, Note_on_c,0,38,100
2,603760, Note_on_c,0,81,100
2,603760, Note_off_c,0,40,0
2,603760, Note_off_c,0,83,0
2,603780, Note_off_c,0,38,0
2,603780, Note_off_c,0,81,0
2,604500, Note_on_c,0,66,100
2,604500, Note_on_c,0,73,100
2,604520, Note_on_c,0,39,100
2,604540, Note_on_c,0,38,100
2,604540, Note_off_c,0,39,0
2,604580, Note_off_c,0,66,0
2,604640, Note_on_c,0,69,100
2,604640, Note_off_c,0,73,0
2,604900, Note_off_c,0,69,0
2,604920, Note_on_c,0,48,100
2,604920, Note_off_c,0,38,0
2,605040, Note_off_c,0,48,0
2,605060, Note_on_c,0,50,100
2,605100, Note_on_c,0,74,100
2,605100, Note_off_c,0,50,0
2,605120, Note_on_c,0,50,100
2,605160, Note_off_c,0,74,0
2,605180, Note_on_c,0,74,100
2,605280, Note_on_c,0,35,100
2,605280, Note_off_c,0,74,0
2,605300, Note_on_c,0,71,100
2,605300, Note_off_c,0,35,0
2,605380, Note_off_c,0,50,0
2,605380, Note_off_c,0,71,0
2,605480, Note_on_c,0,50,100
2,605480, Note_on_c,0,64,100
2,605480, Note_on_c,0,74,100
2,605660, Note_off_c,0,50,0
2,605660, Note_off_c,0,64,0
2,605660, Note_off_c,0,74,0
2,605680, Note_on_c,0,40,100
2,605680, Note_on_c,0,64,100
2,605680, Note_on_c,0,73,100
2,605860, Note_on_c,0,76,100
2,605860, Note_off_c,0,64,0
2,605860, Note_off_c,0,73,0
2,605880, Note_on_c,0,64,100
2,605920, Note_on_c,0,65,100
2,605920, Note_off_c,0,64,0
2,605960, Note_off_c,0,65,0
2,605960, Note_off_c,0,76,0
2,606000, Note_on_c,0,69,100
2,606060, Note_off_c,0,40,0
2,606060, Note_off_c,0,69,0
2,606080, Note_on_c,0,40,100
2,606080, Note_on_c,0,69,100
2,606320, Note_on_c,0,71,100
2,606320, Note_off_c,0,69,0
2,606440, Note_off_c,0,71,0
2,606480, Note_on_c,0,64,100
2,606960, Note_on_c,0,62,100
2,606960, Note_off_c,0,64,0
2,607000, Note_on_c,0,63,100
2,607000, Note_off_c,0,62,0
2,607120, Note_on_c,0,62,100
2,607120, Note_off_c,0,63,0
2,607240, Note_off_c,0,40,0
2,607240, Note_off_c,0,62,0
2,607260, Note_on_c,0,40,100
2,607260, Note_on_c,0,42,100
2,607260, Note_on_c,0,59,100
2,607320, Note_off_c,0,40,0
2,607320, Note_off_c,0,42,0
2,607320, Note_off_c,0,59,0
2,607340, Note_on_c,0,40,100
2,607340, Note_on_c,0,59,100
2,607400, Note_off_c,0,59,0
2,607460, Note_on_c,0,59,100
2,607780, Note_off_c,0,59,0
2,607800, Note_on_c,0,61,100
2,609160, Note_on_c,0,56,100
2,609160, Note_off_c,0,61,0
2,610160, Note_on_c,0,53,100
2,610160, Note_off_c,0,56,0
2,610260, Note_off_c,0,40,0
2,610300, Note_on_c,0,40,100
2,610300, Note_on_c,0,49,100
2,610300, Note_off_c,0,53,0
2,610460, Note_on_c,0,61,100
2,610460, Note_off_c,0,49,0
2,612160, Note_on_c,0,58,100
2,612160, Note_off_c,0,61,0
2,612200, Note_on_c,0,61,100
2,612200, Note_off_c,0,58,0
2,612880, Note_on_c,0,58,100
2,612880, Note_off_c,0,40,0
2,612920, Note_on_c,0,53,100
2,612920, Note_on_c,0,62,100
2,612920, Note_off_c,0,61,0
2,612940, Note_on_c,0,61,100
2,612940, Note_off_c,0,53,0
2,612940, Note_off_c,0,62,0
2,612960, Note_on_c,0,53,100
2,612960, Note_on_c,0,69,100
2,612960, Note_off_c,0,61,0
2,613000, Note_on_c,0,61,100
2,613000, Note_off_c,0,58,0
2,613680, Note_on_c,0,46,100
2,613800, Note_on_c,0,66,100
2,613800, Note_off_c,0,69,0
2,613840, Note_on_c,0,62,100
2,613840, Note_off_c,0,66,0
2,613860, Note_off_c,0,53,0
2,613860, Note_off_c,0,61,0
2,613860, Note_off_c,0,62,0
2,613880, Note_on_c,0,41,100
2,613880, Note_on_c,0,42,100
2,613880, Note_on_c,0,48,100
2,613880, Note_on_c,0,60,100
2,613880, Note_off_c,0,46,0
2,613900, Note_off_c,0,41,0
2,614000, Note_on_c,0,45,100
2,614360, Note_on_c,0,36,100
2,614360, Note_off_c,0,45,0
2,614460, Note_on_c,0,44,100
2,614460, Note_on_c,0,63,100
2,614460, Note_off_c,0,48,0
2,614460, Note_off_c,0,60,0
2,614520, Note_off_c,0,36,0
2,614520, Note_off_c,0,44,0
2,614580, Note_on_c,0,62,100
2,614580, Note_off_c,0,63,0
2,614640, Note_on_c,0,64,100
2,614640, Note_off_c,0,62,0
2,614720, Note_on_c,0,38,100
2,614720, Note_on_c,0,49,100
2,614720, Note_on_c,0,60,100
2,614720, Note_off_c,0,64,0
2,614740, Note_on_c,0,47,100
2,614740, Note_off_c,0,49,0
2,614760, Note_off_c,0,47,0
2,614820, Note_on_c,0,64,100
2,614820, Note_off_c,0,38,0
2,614820, Note_off_c,0,60,0
2,614880, Note_on_c,0,63,100
2,614880, Note_off_c,0,64,0
2,614960, Note_on_c,0,32,100
2,614960, Note_on_c,0,36,100
2,614960, Note_on_c,0,44,100
2,614960, Note_on_c,0,62,100
2,614960, Note_off_c,0,63,0
2,615040, Note_on_c,0,64,100
2,615040, Note_off_c,0,32,0
2,615040, Note_off_c,0,36,0
2,615040, Note_off_c,0,44,0
2,615040, Note_off_c,0,62,0
2,615100, Note_on_c,0,38,100
2,615100, Note_on_c,0,60,100
2,615100, Note_off_c,0,64,0
2,615180, Note_on_c,0,64,100
2,615180, Note_off_c,0,38,0
2,615180, Note_off_c,0,60,0
2,615240, Note_on_c,0,63,100
2,615240, Note_off_c,0,64,0
2,615300, Note_on_c,0,32,100
2,615300, Note_on_c,0,36,100
2,615300, Note_on_c,0,44,100
2,615460, Note_on_c,0,62,100
2,615460, Note_off_c,0,63,0
2,615500, Note_off_c,0,32,0
2,615500, Note_off_c,0,36,0
2,615500, Note_off_c,0,44,0
2,615540, Note_on_c,0,64,100
2,615540, Note_off_c,0,62,0
2,615600, Note_on_c,0,32,100
2,615600, Note_on_c,0,36,100
2,615600, Note_on_c,0,44,100
2,615600, Note_on_c,0,63,100
2,615600, Note_off_c,0,64,0
2,616360, Note_on_c,0,62,100
2,616360, Note_off_c,0,63,0
2,616420, Note_off_c,0,32,0
2,616420, Note_off_c,0,36,0
2,616420, Note_off_c,0,44,0
2,616420, Note_off_c,0,62,0
2,616440, Note_on_c,0,64,100
2,616500, Note_on_c,0,44,100
2,616520, Note_on_c,0,32,100
2,616520, Note_on_c,0,63,100
2,616520, Note_off_c,0,64,0
2,616540, Note_on_c,0,36,100
2,617540, Note_on_c,0,62,100
2,617540, Note_off_c,0,63,0
2,617620, Note_off_c,0,32,0
2,617620, Note_off_c,0,36,0
2,617620, Note_off_c,0,44,0
2,617620, Note_off_c,0,62,0
2,617700, Note_on_c,0,44,100
2,617760, Note_on_c,0,32,100
2,617780, Note_on_c,0,36,100
2,617840, Note_off_c,0,36,0
2,617960, Note_off_c,0,44,0
2,618060, Note_on_c,0,44,100
2,618140, Note_off_c,0,44,0
2,618200, Note_on_c,0,44,100
2,618740, Note_off_c,0,44,0
2,618820, Note_on_c,0,44,100
2,619100, Note_off_c,0,44,0
2,619160, Note_on_c,0,44,100
2,619480, Note_on_c,0,39,100
2,619480, Note_off_c,0,32,0
2,619480, Note_off_c,0,44,0
2,619500, Note_on_c,0,32,100
2,619500, Note_off_c,0,39,0
2,619620, Note_on_c,0,44,100
2,619680, Note_off_c,0,44,0
2,619760, Note_on_c,0,44,100
2,619900, Note_off_c,0,44,0
2,620000, Note_on_c,0,44,100
2,620160, Note_off_c,0,44,0
2,620300, Note_on_c,0,44,100
2,620360, Note_off_c,0,44,0
2,620380, Note_on_c,0,44,100
2,620420, Note_on_c,0,51,100
2,620560, Note_on_c,0,46,100
2,620560, Note_on_c,0,59,100
2,620580, Note_on_c,0,47,100
2,620580, Note_off_c,0,44,0
2,620580, Note_off_c,0,59,0
2,620600, Note_on_c,0,44,100
2,620600, Note_off_c,0,46,0
2,620600, Note_off_c,0,51,0
2,620680, Note_off_c,0,44,0
2,620780, Note_on_c,0,44,100
2,620840, Note_on_c,0,46,100
2,620840, Note_off_c,0,47,0
2,620860, Note_off_c,0,44,0
2,621000, Note_on_c,0,44,100
2,621220, Note_off_c,0,44,0
2,621520, Note_on_c,0,44,100
2,621940, Note_off_c,0,44,0
2,621980, Note_off_c,0,42,0
2,622080, Note_on_c,0,42,100
2,622140, Note_on_c,0,44,100
2,622200, Note_off_c,0,44,0
2,622240, Note_off_c,0,46,0
2,622300, Note_on_c,0,44,100
2,622420, Note_off_c,0,44,0
2,622540, Note_on_c,0,44,100
2,622840, Note_off_c,0,44,0
2,622880, Note_on_c,0,44,100
2,623020, Note_off_c,0,44,0
2,623160, Note_on_c,0,44,100
2,623280, Note_off_c,0,44,0
2,623420, Note_on_c,0,44,100
2,623620, Note_on_c,0,46,100
2,623620, Note_off_c,0,44,0
2,623680, Note_on_c,0,44,100
2,623680, Note_off_c,0,46,0
2,625100, Note_off_c,0,44,0
2,625200, Note_on_c,0,44,100
2,625360, Note_off_c,0,44,0
2,625440, Note_on_c,0,44,100
2,625580, Note_off_c,0,44,0
2,625600, Note_on_c,0,44,100
2,625600, Note_on_c,0,51,100
2,625660, Note_on_c,0,47,100
2,625660, Note_off_c,0,51,0
2,625720, Note_on_c,0,51,100
2,625720, Note_on_c,0,63,100
2,625720, Note_off_c,0,47,0
2,625740, Note_on_c,0,83,100
2,625780, Note_off_c,0,51,0
2,625780, Note_off_c,0,63,0
2,625780, Note_off_c,0,83,0
2,625900, Note_off_c,0,44,0
2,625960, Note_on_c,0,73,100
2,626000, Note_on_c,0,44,100
2,626240, Note_on_c,0,61,100
2,626260, Note_on_c,0,49,100
2,626260, Note_off_c,0,61,0
2,626320, Note_on_c,0,75,100
2,626320, Note_off_c,0,73,0
2,626340, Note_on_c,0,46,100
2,626340, Note_on_c,0,48,100
2,626340, Note_off_c,0,44,0
2,626340, Note_off_c,0,49,0
2,626380, Note_on_c,0,38,100
2,626380, Note_on_c,0,44,100
2,626380, Note_off_c,0,46,0
2,626380, Note_off_c,0,48,0
2,626420, Note_on_c,0,36,100
2,626420, Note_off_c,0,38,0
2,626540, Note_off_c,0,36,0
2,626960, Note_on_c,0,73,100
2,626960, Note_off_c,0,75,0
2,627520, Note_on_c,0,38,100
2,627560, Note_off_c,0,73,0
2,628880, Note_off_c,0,44,0
2,628960, Note_on_c,0,44,100
2,629080, Note_on_c,0,36,100
2,629080, Note_off_c,0,38,0
2,629120, Note_on_c,0,46,100
2,629120, Note_off_c,0,36,0
2,629460, Note_off_c,0,42,0
2,629500, Note_on_c,0,42,100
2,629500, Note_off_c,0,44,0
2,629560, Note_on_c,0,44,100
2,629580, Note_off_c,0,46,0
2,629620, Note_off_c,0,44,0
2,629740, Note_on_c,0,44,100
2,629780, Note_on_c,0,46,100
2,630480, Note_on_c,0,51,100
2,630520, Note_off_c,0,51,0
2,630540, Note_off_c,0,44,0
2,630620, Note_on_c,0,44,100
2,631040, Note_off_c,0,44,0
2,631060, Note_off_c,0,46,0
2,631120, Note_on_c,0,44,100
2,631240, Note_on_c,0,41,100
2,631260, Note_off_c,0,41,0
2,631320, Note_off_c,0,44,0
2,631340, Note_on_c,0,46,100
2,631360, Note_off_c,0,42,0
2,631480, Note_on_c,0,42,100
2,631480, Note_on_c,0,48,100
2,631480, Note_on_c,0,60,100
2,631480, Note_off_c,0,46,0
2,631520, Note_on_c,0,44,100
2,631600, Note_off_c,0,44,0
2,631640, Note_off_c,0,32,0
2,631860, Note_on_c,0,44,100
2,631860, Note_off_c,0,48,0
2,631900, Note_on_c,0,32,100
2,631920, Note_on_c,0,70,100
2,631940, Note_on_c,0,46,100
2,631960, Note_off_c,0,60,0
2,631980, Note_off_c,0,70,0
2,632040, Note_off_c,0,44,0
2,632180, Note_on_c,0,44,100
2,632240, Note_off_c,0,44,0
2,632360, Note_on_c,0,44,100
2,632500, Note_off_c,0,44,0
2,632520, Note_on_c,0,49,100
2,632540, Note_off_c,0,49,0
2,632560, Note_on_c,0,44,100
2,632700, Note_off_c,0,44,0
2,632820, Note_on_c,0,44,100
2,632940, Note_off_c,0,44,0
2,632960, Note_off_c,0,42,0
2,633000, Note_on_c,0,42,100
2,633000, Note_off_c,0,46,0
2,633060, Note_on_c,0,44,100
2,633500, Note_off_c,0,44,0
2,633540, Note_on_c,0,38,100
2,633540, Note_on_c,0,51,100
2,633560, Note_on_c,0,57,100
2,633560, Note_on_c,0,73,100
2,633560, Note_off_c,0,38,0
2,633560, Note_off_c,0,51,0
2,633580, Note_on_c,0,52,100
2,633580, Note_off_c,0,57,0
2,633600, Note_on_c,0,44,100
2,633600, Note_on_c,0,71,100
2,633600, Note_off_c,0,52,0
2,633600, Note_off_c,0,73,0
2,633640, Note_on_c,0,46,100
2,633640, Note_on_c,0,48,100
2,633640, Note_on_c,0,63,100
2,633640, Note_off_c,0,42,0
2,633660, Note_off_c,0,44,0
2,633680, Note_on_c,0,36,100
2,633680, Note_on_c,0,42,100
2,633680, Note_on_c,0,44,100
2,633680, Note_off_c,0,46,0
2,633680, Note_off_c,0,48,0
2,634080, Note_on_c,0,62,100
2,634080, Note_on_c,0,73,100
2,634080, Note_off_c,0,63,0
2,634080, Note_off_c,0,71,0
2,634140, Note_on_c,0,64,100
2,634140, Note_off_c,0,62,0
2,634160, Note_off_c,0,32,0
2,634160, Note_off_c,0,36,0
2,634160, Note_off_c,0,44,0
2,634200, Note_on_c,0,32,100
2,634200, Note_on_c,0,63,100
2,634200, Note_on_c,0,44,100
2,634200, Note_off_c,0,64,0
2,634220, Note_on_c,0,36,100
2,634240, Note_on_c,0,71,100
2,634240, Note_off_c,0,73,0
2,634300, Note_on_c,0,62,100
2,634300, Note_off_c,0,63,0
2,634380, Note_on_c,0,63,100
2,634380, Note_off_c,0,62,0
2,634560, Note_on_c,0,56,100
2,634580, Note_on_c,0,62,100
2,634580, Note_on_c,0,70,100
2,634580, Note_off_c,0,63,0
2,634580, Note_off_c,0,71,0
2,634640, Note_on_c,0,64,100
2,634640, Note_off_c,0,62,0
2,634660, Note_off_c,0,32,0
2,634660, Note_off_c,0,36,0
2,634660, Note_off_c,0,44,0
2,634700, Note_on_c,0,38,100
2,634700, Note_on_c,0,44,100
2,634700, Note_off_c,0,70,0
2,634720, Note_off_c,0,38,0
2,634740, Note_on_c,0,32,100
2,634760, Note_on_c,0,63,100
2,634760, Note_off_c,0,64,0
2,634780, Note_on_c,0,46,100
2,634820, Note_on_c,0,51,100
2,634820, Note_off_c,0,44,0
2,634820, Note_off_c,0,56,0
2,634880, Note_on_c,0,44,100
2,634940, Note_on_c,0,49,100
2,634940, Note_on_c,0,61,100
2,634940, Note_off_c,0,44,0
2,634940, Note_off_c,0,51,0
2,634940, Note_off_c,0,63,0
2,634960, Note_on_c,0,47,100
2,634960, Note_off_c,0,49,0
2,634960, Note_off_c,0,61,0
2,634980, Note_off_c,0,47,0
2,635000, Note_on_c,0,44,100
2,635040, Note_off_c,0,44,0
2,635160, Note_on_c,0,44,100
2,635220, Note_off_c,0,44,0
2,635220, Note_off_c,0,46,0
2,635240, Note_on_c,0,44,100
2,635620, Note_on_c,0,46,100
2,635620, Note_off_c,0,44,0
2,635680, Note_on_c,0,44,100
2,635800, Note_off_c,0,44,0
2,635880, Note_on_c,0,44,100
2,635980, Note_off_c,0,44,0
2,636040, Note_on_c,0,44,100
2,636120, Note_off_c,0,44,0
2,636160, Note_on_c,0,44,100
2,636840, Note_off_c,0,44,0
2,637020, Note_on_c,0,44,100
2,637080, Note_off_c,0,32,0
2,637080, Note_off_c,0,42,0
2,637080, Note_off_c,0,44,0
2,637100, Note_on_c,0,32,100
2,637120, Note_off_c,0,46,0
2,637180, Note_on_c,0,42,100
2,637180, Note_on_c,0,44,100
2,637420, Note_off_c,0,44,0
2,637460, Note_on_c,0,44,100
2,637520, Note_on_c,0,80,100
2,637560, Note_on_c,0,46,100
2,637580, Note_on_c,0,73,100
2,637580, Note_off_c,0,80,0
2,637800, Note_off_c,0,42,0
2,637820, Note_off_c,0,44,0
2,637840, Note_on_c,0,76,100
2,637920, Note_on_c,0,42,100
2,637920, Note_off_c,0,46,0
2,638160, Note_on_c,0,38,100
2,638160, Note_on_c,0,44,100
2,638200, Note_on_c,0,71,100
2,638200, Note_off_c,0,73,0
2,638220, Note_off_c,0,38,0
2,638300, Note_off_c,0,71,0
2,638480, Note_off_c,0,76,0
2,638500, Note_off_c,0,44,0
2,638520, Note_on_c,0,44,100
2,638520, Note_on_c,0,81,100
2,638540, Note_on_c,0,73,100
2,638560, Note_off_c,0,81,0
2,638640, Note_on_c,0,47,100
2,638640, Note_off_c,0,44,0
2,638660, Note_on_c,0,44,100
2,638660, Note_on_c,0,76,100
2,638660, Note_off_c,0,47,0
2,638680, Note_on_c,0,72,100
2,638680, Note_off_c,0,44,0
2,638680, Note_off_c,0,73,0
2,638720, Note_on_c,0,73,100
2,638720, Note_off_c,0,72,0
2,639020, Note_off_c,0,42,0
2,639020, Note_off_c,0,73,0
2,639020, Note_off_c,0,76,0
2,639040, Note_on_c,0,42,100
2,639040, Note_on_c,0,44,100
2,639040, Note_on_c,0,48,100
2,639040, Note_on_c,0,64,100
2,639040, Note_on_c,0,73,100
2,639040, Note_off_c,0,32,0
2,639060, Note_on_c,0,32,100
2,639080, Note_on_c,0,36,100
2,639080, Note_off_c,0,48,0
2,639100, Note_on_c,0,63,100
2,639100, Note_off_c,0,64,0
2,639200, Note_on_c,0,62,100
2,639200, Note_off_c,0,32,0
2,639200, Note_off_c,0,36,0
2,639200, Note_off_c,0,44,0
2,639200, Note_off_c,0,63,0
2,639280, Note_on_c,0,64,100
2,639280, Note_off_c,0,62,0
2,639360, Note_on_c,0,38,100
2,639360, Note_on_c,0,44,100
2,639360, Note_on_c,0,60,100
2,639360, Note_off_c,0,64,0
2,639420, Note_on_c,0,64,100
2,639420, Note_off_c,0,38,0
2,639420, Note_off_c,0,60,0
2,639520, Note_off_c,0,44,0
2,639520, Note_off_c,0,73,0
2,639660, Note_on_c,0,38,100
2,639660, Note_on_c,0,60,100
2,639660, Note_off_c,0,64,0
2,639720, Note_off_c,0,38,0
2,640300, Note_off_c,0,60,0
2,640340, Note_on_c,0,44,100
2,640360, Note_on_c,0,63,100
2,640420, Note_on_c,0,32,100
2,640420, Note_on_c,0,36,100
2,641100, Note_off_c,0,63,0
2,641500, Note_off_c,0,36,0
2,641500, Note_off_c,0,44,0
2,641600, Note_on_c,0,44,100
2,642080, Note_off_c,0,44,0
2,642140, Note_on_c,0,44,100
2,642280, Note_off_c,0,44,0
2,642340, Note_on_c,0,44,100
2,642460, Note_off_c,0,44,0
2,642480, Note_on_c,0,44,100
2,642480, Note_on_c,0,49,100
2,642800, Note_on_c,0,50,100
2,642800, Note_off_c,0,49,0
2,642820, Note_on_c,0,46,100
2,642820, Note_off_c,0,50,0
2,642840, Note_off_c,0,42,0
2,642840, Note_off_c,0,44,0
2,642860, Note_on_c,0,42,100
2,642860, Note_off_c,0,46,0
2,643040, Note_on_c,0,44,100
2,643100, Note_on_c,0,48,100
2,643100, Note_off_c,0,44,0
2,643140, Note_on_c,0,44,100
2,643140, Note_off_c,0,48,0
2,643200, Note_off_c,0,44,0
2,643280, Note_on_c,0,44,100
2,643620, Note_off_c,0,44,0
2,643680, Note_on_c,0,44,100
2,643820, Note_off_c,0,44,0
2,643960, Note_on_c,0,44,100
2,644320, Note_off_c,0,44,0
2,644460, Note_on_c,0,44,100
2,644520, Note_off_c,0,44,0
2,644600, Note_on_c,0,44,100
2,644760, Note_off_c,0,44,0
2,644900, Note_on_c,0,44,100
2,644920, Note_on_c,0,70,100
2,644940, Note_on_c,0,46,100
2,644960, Note_off_c,0,70,0
2,645080, Note_on_c,0,49,100
2,645080, Note_off_c,0,44,0
2,645080, Note_off_c,0,46,0
2,645180, Note_on_c,0,44,100
2,645240, Note_off_c,0,49,0
2,645320, Note_off_c,0,44,0
2,645380, Note_on_c,0,44,100
2,645500, Note_off_c,0,44,0
2,645640, Note_on_c,0,44,100
2,645700, Note_off_c,0,44,0
2,645720, Note_on_c,0,44,100
2,645800, Note_off_c,0,44,0
2,646000, Note_on_c,0,44,100
2,646140, Note_off_c,0,44,0
2,646200, Note_on_c,0,44,100
2,646340, Note_off_c,0,44,0
2,646480, Note_on_c,0,44,100
2,646540, Note_on_c,0,46,100
2,646540, Note_off_c,0,42,0
2,646540, Note_off_c,0,44,0
2,646560, Note_on_c,0,44,100
2,646560, Note_on_c,0,49,100
2,646600, Note_on_c,0,39,100
2,646600, Note_on_c,0,54,100
2,646600, Note_off_c,0,46,0
2,646620, Note_on_c,0,42,100
2,646620, Note_off_c,0,39,0
2,646640, Note_off_c,0,54,0
2,646700, Note_off_c,0,49,0
2,646760, Note_off_c,0,44,0
2,646900, Note_on_c,0,44,100
2,647000, Note_on_c,0,47,100
2,647040, Note_on_c,0,49,100
2,647040, Note_off_c,0,44,0
2,647040, Note_off_c,0,47,0
2,647080, Note_on_c,0,46,100
2,647080, Note_off_c,0,42,0
2,647100, Note_on_c,0,44,100
2,647100, Note_on_c,0,60,100
2,647120, Note_off_c,0,44,0
2,647140, Note_on_c,0,44,100
2,647140, Note_off_c,0,60,0
2,647160, Note_on_c,0,42,100
2,647160, Note_off_c,0,49,0
2,647240, Note_off_c,0,46,0
2,647260, Note_on_c,0,38,100
2,647260, Note_off_c,0,44,0
2,647320, Note_on_c,0,44,100
2,647460, Note_off_c,0,44,0
2,647580, Note_on_c,0,44,100
2,647640, Note_on_c,0,46,100
2,647640, Note_off_c,0,42,0
2,647640, Note_off_c,0,44,0
2,647700, Note_off_c,0,38,0
2,647700, Note_off_c,0,46,0
2,647720, Note_on_c,0,42,100
2,647720, Note_on_c,0,44,100
2,647720, Note_off_c,0,32,0
2,647740, Note_on_c,0,32,100
2,647780, Note_on_c,0,60,100
2,647780, Note_off_c,0,44,0
2,647800, Note_on_c,0,46,100
2,647800, Note_off_c,0,60,0
2,647820, Note_on_c,0,44,100
2,647820, Note_off_c,0,46,0
2,647860, Note_off_c,0,44,0
2,648000, Note_on_c,0,44,100
2,648060, Note_off_c,0,44,0
2,648080, Note_on_c,0,44,100
2,648160, Note_off_c,0,44,0
2,648260, Note_on_c,0,44,100
2,648320, Note_on_c,0,46,100
2,648320, Note_off_c,0,32,0
2,648320, Note_off_c,0,42,0
2,648320, Note_off_c,0,44,0
2,648340, Note_on_c,0,32,100
2,648380, Note_on_c,0,37,100
2,648380, Note_off_c,0,32,0
2,648520, Note_on_c,0,49,100
2,648520, Note_off_c,0,46,0
2,648700, Note_on_c,0,61,100
2,648740, Note_on_c,0,42,100
2,648740, Note_off_c,0,61,0
2,649020, Note_on_c,0,73,100
2,649020, Note_off_c,0,49,0
2,649120, Note_on_c,0,74,100
2,649120, Note_off_c,0,73,0
2,649280, Note_on_c,0,33,100
2,649280, Note_off_c,0,37,0
2,649300, Note_on_c,0,40,100
2,649300, Note_off_c,0,33,0
2,649520, Note_off_c,0,40,0
2,649680, Note_on_c,0,38,100
2,649780, Note_off_c,0,38,0
2,649780, Note_off_c,0,42,0
2,649780, Note_off_c,0,74,0
2,649800, Note_on_c,0,38,100
2,649800, Note_on_c,0,46,100
2,649800, Note_on_c,0,73,100
2,649820, Note_off_c,0,38,0
2,649940, Note_on_c,0,80,100
2,649940, Note_off_c,0,73,0
2,649960, Note_on_c,0,73,100
2,649960, Note_off_c,0,80,0
2,650000, Note_on_c,0,74,100
2,650000, Note_off_c,0,73,0
2,650080, Note_on_c,0,42,100
2,650080, Note_on_c,0,75,100
2,650080, Note_off_c,0,46,0
2,650080, Note_off_c,0,74,0
2,650100, Note_on_c,0,79,100
2,650100, Note_off_c,0,75,0
2,650120, Note_on_c,0,43,100
2,650140, Note_off_c,0,79,0
2,650160, Note_off_c,0,42,0
2,650160, Note_off_c,0,43,0
2,650180, Note_on_c,0,42,100
2,650260, Note_on_c,0,43,100
2,650300, Note_off_c,0,43,0
2,650380, Note_on_c,0,43,100
2,650420, Note_off_c,0,42,0
2,650420, Note_off_c,0,43,0
2,650440, Note_on_c,0,42,100
2,650500, Note_off_c,0,42,0
2,650520, Note_on_c,0,40,100
2,650520, Note_on_c,0,46,100
2,650540, Note_off_c,0,40,0
2,650540, Note_off_c,0,46,0
2,650560, Note_on_c,0,40,100
2,650560, Note_on_c,0,42,100
2,650580, Note_off_c,0,40,0
2,650580, Note_off_c,0,42,0
2,650600, Note_on_c,0,40,100
2,650600, Note_on_c,0,42,100
2,650620, Note_off_c,0,40,0
2,650620, Note_off_c,0,42,0
2,650640, Note_on_c,0,40,100
2,650640, Note_on_c,0,42,100
2,650660, Note_off_c,0,40,0
2,650660, Note_off_c,0,42,0
2,650680, Note_on_c,0,40,100
2,650680, Note_on_c,0,42,100
2,650700, Note_off_c,0,40,0
2,650700, Note_off_c,0,42,0
2,650720, Note_on_c,0,40,100
2,650720, Note_on_c,0,42,100
2,650740, Note_off_c,0,40,0
2,650740, Note_off_c,0,42,0
2,650760, Note_on_c,0,42,100
2,650820, Note_off_c,0,42,0
2,650840, Note_on_c,0,40,100
2,650840, Note_on_c,0,42,100
2,650880, Note_off_c,0,40,0
2,650880, Note_off_c,0,42,0
2,650900, Note_on_c,0,40,100
2,650900, Note_on_c,0,42,100
2,650960, Note_off_c,0,40,0
2,650960, Note_off_c,0,42,0
2,650980, Note_on_c,0,40,100
2,650980, Note_on_c,0,42,100
2,651040, Note_off_c,0,40,0
2,651040, Note_off_c,0,42,0
2,651060, Note_on_c,0,42,100
2,651560, Note_on_c,0,40,100
2,651780, Note_off_c,0,40,0
2,651960, Note_on_c,0,44,100
2,652100, Note_on_c,0,40,100
2,652100, Note_off_c,0,44,0
2,652120, Note_off_c,0,42,0
2,652220, Note_off_c,0,40,0
2,652240, Note_on_c,0,40,100
2,652240, Note_on_c,0,42,100
2,652300, Note_off_c,0,40,0
2,652300, Note_off_c,0,42,0
2,652320, Note_on_c,0,40,100
2,652320, Note_on_c,0,42,100
2,652380, Note_off_c,0,40,0
2,652380, Note_off_c,0,42,0
2,652400, Note_on_c,0,40,100
2,652400, Note_on_c,0,42,100
2,652460, Note_off_c,0,42,0
2,652480, Note_off_c,0,40,0
2,652500, Note_on_c,0,40,100
2,652500, Note_on_c,0,46,100
2,652780, Note_on_c,0,42,100
2,652780, Note_off_c,0,40,0
2,652780, Note_off_c,0,46,0
2,652800, Note_on_c,0,40,100
2,652860, Note_off_c,0,40,0
2,652860, Note_off_c,0,42,0
2,652880, Note_on_c,0,40,100
2,652880, Note_on_c,0,42,100
2,652940, Note_off_c,0,40,0
2,652940, Note_off_c,0,42,0
2,652960, Note_on_c,0,40,100
2,652960, Note_on_c,0,42,100
2,653020, Note_off_c,0,42,0
2,653040, Note_off_c,0,40,0
2,653060, Note_on_c,0,40,100
2,653060, Note_on_c,0,42,100
2,653060, Note_on_c,0,50,100
2,653060, Note_on_c,0,81,100
2,653080, Note_off_c,0,81,0
2,653120, Note_off_c,0,40,0
2,653440, Note_on_c,0,35,100
2,653540, Note_on_c,0,40,100
2,653540, Note_off_c,0,35,0
2,653540, Note_off_c,0,50,0
2,654840, Note_on_c,0,37,100
2,654840, Note_off_c,0,40,0
2,654960, Note_on_c,0,38,100
2,654960, Note_off_c,0,37,0
2,655420, Note_on_c,0,32,100
2,655420, Note_off_c,0,38,0
2,655640, Note_on_c,0,44,100
2,655720, Note_off_c,0,44,0
2,655760, Note_on_c,0,44,100
2,656060, Note_off_c,0,42,0
2,656060, Note_off_c,0,44,0
2,656080, Note_on_c,0,60,100
2,656100, Note_on_c,0,43,100
2,656120, Note_on_c,0,42,100
2,656120, Note_off_c,0,43,0
2,656120, Note_off_c,0,60,0
2,656140, Note_on_c,0,44,100
2,656340, Note_on_c,0,51,100
2,656380, Note_on_c,0,47,100
2,656380, Note_off_c,0,51,0
2,656440, Note_on_c,0,46,100
2,656440, Note_off_c,0,47,0
2,656580, Note_off_c,0,44,0
2,656680, Note_on_c,0,44,100
2,656740, Note_off_c,0,42,0
2,656780, Note_off_c,0,44,0
2,656820, Note_off_c,0,46,0
2,656880, Note_on_c,0,51,100
2,656900, Note_on_c,0,39,100
2,656900, Note_on_c,0,49,100
2,656920, Note_on_c,0,42,100
2,656920, Note_on_c,0,44,100
2,656920, Note_off_c,0,39,0
2,656920, Note_off_c,0,49,0
2,656980, Note_on_c,0,49,100
2,656980, Note_off_c,0,51,0
2,657000, Note_off_c,0,44,0
2,657120, Note_on_c,0,44,100
2,657400, Note_off_c,0,44,0
2,657420, Note_on_c,0,48,100
2,657460, Note_on_c,0,44,100
2,657460, Note_on_c,0,51,100
2,657460, Note_off_c,0,48,0
2,657500, Note_on_c,0,63,100
2,657540, Note_on_c,0,46,100
2,657540, Note_off_c,0,49,0
2,657600, Note_on_c,0,47,100
2,657600, Note_off_c,0,51,0
2,657620, Note_off_c,0,47,0
2,657680, Note_off_c,0,46,0
2,657680, Note_off_c,0,63,0
2,657900, Note_off_c,0,44,0
2,658020, Note_on_c,0,44,100
2,658320, Note_off_c,0,44,0
2,658440, Note_on_c,0,44,100
2,658580, Note_off_c,0,44,0
2,658640, Note_on_c,0,44,100
2,659120, Note_on_c,0,40,100
2,659120, Note_on_c,0,46,100
2,659120, Note_off_c,0,42,0
2,659140, Note_on_c,0,42,100
2,659140, Note_off_c,0,40,0
2,659360, Note_off_c,0,46,0
2,659380, Note_off_c,0,44,0
2,659400, Note_on_c,0,47,100
2,659440, Note_on_c,0,44,100
2,659620, Note_on_c,0,49,100
2,659620, Note_off_c,0,47,0
2,659660, Note_off_c,0,44,0
2,659680, Note_on_c,0,44,100
2,659720, Note_on_c,0,61,100
2,659720, Note_off_c,0,49,0
2,659740, Note_on_c,0,49,100
2,659740, Note_off_c,0,61,0
2,659780, Note_on_c,0,46,100
2,659780, Note_on_c,0,51,100
2,659780, Note_off_c,0,49,0
2,659800, Note_off_c,0,44,0
2,659800, Note_off_c,0,51,0
2,659940, Note_on_c,0,44,100
2,660000, Note_on_c,0,38,100
2,660000, Note_on_c,0,60,100
2,660000, Note_off_c,0,46,0
2,660100, Note_off_c,0,38,0
2,660220, Note_on_c,0,48,100
2,660220, Note_off_c,0,44,0
2,660260, Note_on_c,0,44,100
2,660280, Note_on_c,0,49,100
2,660280, Note_off_c,0,48,0
2,660320, Note_on_c,0,51,100
2,660320, Note_off_c,0,60,0
2,660340, Note_on_c,0,47,100
2,660340, Note_off_c,0,49,0
2,660340, Note_off_c,0,51,0
2,660380, Note_off_c,0,44,0
2,660380, Note_off_c,0,47,0
2,660400, Note_off_c,0,32,0
2,660420, Note_on_c,0,32,100
2,660420, Note_on_c,0,44,100
2,661220, Note_off_c,0,44,0
2,661300, Note_on_c,0,44,100
2,661420, Note_off_c,0,44,0
2,661560, Note_on_c,0,44,100
2,661700, Note_off_c,0,44,0
2,661820, Note_on_c,0,44,100
2,661960, Note_on_c,0,46,100
2,661960, Note_off_c,0,44,0
2,662000, Note_on_c,0,44,100
2,662060, Note_off_c,0,42,0
2,662060, Note_off_c,0,44,0
2,662120, Note_off_c,0,46,0
2,662180, Note_on_c,0,42,100
2,662180, Note_on_c,0,44,100
2,662180, Note_on_c,0,47,100
2,662180, Note_on_c,0,63,100
2,662260, Note_off_c,0,63,0
2,662280, Note_on_c,0,49,100
2,662280, Note_off_c,0,47,0
2,662300, Note_off_c,0,44,0
2,662380, Note_on_c,0,44,100
2,662460, Note_off_c,0,44,0
2,662620, Note_on_c,0,44,100
2,662680, Note_off_c,0,44,0
2,662720, Note_on_c,0,44,100
2,662720, Note_on_c,0,58,100
2,662720, Note_off_c,0,49,0
2,662740, Note_on_c,0,51,100
2,662740, Note_off_c,0,58,0
2,662800, Note_off_c,0,51,0
2,662840, Note_on_c,0,48,100
2,662840, Note_off_c,0,44,0
2,662900, Note_on_c,0,44,100
2,662900, Note_off_c,0,48,0
2,662920, Note_off_c,0,44,0
2,662940, Note_on_c,0,44,100
2,662980, Note_on_c,0,46,100
2,663000, Note_on_c,0,106,100
2,663020, Note_on_c,0,79,100
2,663020, Note_off_c,0,106,0
2,663040, Note_off_c,0,79,0
2,663120, Note_off_c,0,44,0
2,663140, Note_off_c,0,46,0
2,663180, Note_on_c,0,44,100
2,663960, Note_off_c,0,32,0
2,663980, Note_on_c,0,32,100
2,664860, Note_off_c,0,44,0
2,664940, Note_on_c,0,44,100
2,665520, Note_off_c,0,44,0
2,665580, Note_on_c,0,44,100
2,665880, Note_off_c,0,44,0
2,665900, Note_on_c,0,54,100
2,665920, Note_on_c,0,49,100
2,665940, Note_on_c,0,44,100
2,665940, Note_on_c,0,51,100
2,665940, Note_off_c,0,54,0
2,665960, Note_off_c,0,51,0
2,666260, Note_on_c,0,46,100
2,666260, Note_off_c,0,49,0
2,666560, Note_off_c,0,44,0
2,666640, Note_on_c,0,44,100
2,666940, Note_off_c,0,44,0
2,667160, Note_on_c,0,44,100
2,667220, Note_off_c,0,44,0
2,667280, Note_on_c,0,44,100
2,667700, Note_off_c,0,42,0
2,667720, Note_on_c,0,42,100
2,667740, Note_off_c,0,46,0
2,667780, Note_off_c,0,44,0
2,667820, Note_on_c,0,44,100
2,667900, Note_off_c,0,44,0
2,667920, Note_on_c,0,44,100
2,667960, Note_on_c,0,47,100
2,667980, Note_off_c,0,44,0
2,668120, Note_on_c,0,44,100
2,668180, Note_on_c,0,46,100
2,668180, Note_off_c,0,44,0
2,668180, Note_off_c,0,47,0
2,668260, Note_on_c,0,44,100
2,668320, Note_off_c,0,44,0
2,668340, Note_off_c,0,42,0
2,668400, Note_off_c,0,46,0
2,668460, Note_on_c,0,42,100
2,668460, Note_on_c,0,44,100
2,668460, Note_on_c,0,49,100
2,668460, Note_on_c,0,51,100
2,668460, Note_on_c,0,63,100
2,668520, Note_on_c,0,36,100
2,668520, Note_on_c,0,56,100
2,668520, Note_off_c,0,51,0
2,668540, Note_on_c,0,46,100
2,668540, Note_on_c,0,51,100
2,668540, Note_off_c,0,49,0
2,668540, Note_off_c,0,56,0
2,668560, Note_off_c,0,36,0
2,668720, Note_on_c,0,48,100
2,668720, Note_on_c,0,60,100
2,668720, Note_off_c,0,44,0
2,668720, Note_off_c,0,51,0
2,668740, Note_off_c,0,42,0
2,668760, Note_on_c,0,36,100
2,668760, Note_on_c,0,42,100
2,668760, Note_on_c,0,44,100
2,668760, Note_on_c,0,62,100
2,668760, Note_off_c,0,46,0
2,668760, Note_off_c,0,48,0
2,668760, Note_off_c,0,60,0
2,668760, Note_off_c,0,63,0
2,668780, Note_on_c,0,47,100
2,668780, Note_off_c,0,62,0
2,668820, Note_on_c,0,73,100
2,668820, Note_off_c,0,47,0
2,668880, Note_on_c,0,71,100
2,668880, Note_off_c,0,73,0
2,668900, Note_off_c,0,32,0
2,668920, Note_off_c,0,36,0
2,668980, Note_on_c,0,64,100
2,668980, Note_on_c,0,70,100
2,668980, Note_off_c,0,71,0
2,669020, Note_on_c,0,63,100
2,669020, Note_off_c,0,64,0
2,669040, Note_off_c,0,44,0
2,669040, Note_off_c,0,70,0
2,669080, Note_on_c,0,32,100
2,669120, Note_on_c,0,36,100
2,669120, Note_on_c,0,44,100
2,669140, Note_on_c,0,62,100
2,669140, Note_off_c,0,63,0
2,669200, Note_on_c,0,64,100
2,669200, Note_off_c,0,62,0
2,669240, Note_on_c,0,63,100
2,669240, Note_off_c,0,64,0
2,669340, Note_on_c,0,62,100
2,669340, Note_off_c,0,63,0
2,669420, Note_on_c,0,63,100
2,669420, Note_off_c,0,62,0
2,669500, Note_on_c,0,62,100
2,669500, Note_off_c,0,63,0
2,669580, Note_on_c,0,64,100
2,669580, Note_off_c,0,32,0
2,669580, Note_off_c,0,36,0
2,669580, Note_off_c,0,44,0
2,669580, Note_off_c,0,62,0
2,669640, Note_on_c,0,32,100
2,669640, Note_on_c,0,36,100
2,669640, Note_on_c,0,44,100
2,669640, Note_on_c,0,63,100
2,669640, Note_off_c,0,64,0
2,669720, Note_on_c,0,62,100
2,669720, Note_off_c,0,63,0
2,669800, Note_on_c,0,63,100
2,669800, Note_off_c,0,62,0
2,669820, Note_on_c,0,64,100
2,669820, Note_off_c,0,32,0
2,669820, Note_off_c,0,36,0
2,669820, Note_off_c,0,44,0
2,669820, Note_off_c,0,63,0
2,670080, Note_on_c,0,63,100
2,670080, Note_off_c,0,64,0
2,670160, Note_on_c,0,62,100
2,670160, Note_off_c,0,63,0
2,670180, Note_on_c,0,32,100
2,670180, Note_on_c,0,36,100
2,670180, Note_on_c,0,44,100
2,670240, Note_on_c,0,64,100
2,670240, Note_off_c,0,32,0
2,670240, Note_off_c,0,36,0
2,670240, Note_off_c,0,44,0
2,670240, Note_off_c,0,62,0
2,670300, Note_on_c,0,44,100
2,670320, Note_on_c,0,32,100
2,670320, Note_on_c,0,36,100
2,670320, Note_on_c,0,63,100
2,670320, Note_off_c,0,64,0
2,670940, Note_on_c,0,62,100
2,670940, Note_off_c,0,63,0
2,671000, Note_off_c,0,32,0
2,671000, Note_off_c,0,36,0
2,671000, Note_off_c,0,44,0
2,671040, Note_on_c,0,64,100
2,671040, Note_off_c,0,62,0
2,671100, Note_on_c,0,32,100
2,671100, Note_on_c,0,36,100
2,671100, Note_on_c,0,44,100
2,671100, Note_on_c,0,60,100
2,671100, Note_off_c,0,64,0
2,671260, Note_off_c,0,32,0
2,671300, Note_off_c,0,36,0
2,672000, Note_on_c,0,64,100
2,672000, Note_off_c,0,60,0
2,672020, Note_on_c,0,37,100
2,672020, Note_off_c,0,44,0
2,672200, Note_on_c,0,45,100
2,672200, Note_off_c,0,37,0
2,672320, Note_on_c,0,38,100
2,672320, Note_on_c,0,48,100
2,672320, Note_on_c,0,60,100
2,672320, Note_off_c,0,45,0
2,672320, Note_off_c,0,64,0
2,672380, Note_on_c,0,64,100
2,672380, Note_off_c,0,38,0
2,672380, Note_off_c,0,60,0
2,672440, Note_on_c,0,63,100
2,672440, Note_off_c,0,64,0
2,672520, Note_on_c,0,32,100
2,672520, Note_on_c,0,36,100
2,672520, Note_on_c,0,44,100
2,672520, Note_on_c,0,62,100
2,672520, Note_off_c,0,48,0
2,672520, Note_off_c,0,63,0
2,672580, Note_on_c,0,64,100
2,672580, Note_off_c,0,32,0
2,672580, Note_off_c,0,36,0
2,672580, Note_off_c,0,44,0
2,672580, Note_off_c,0,62,0
2,672640, Note_on_c,0,32,100
2,672640, Note_on_c,0,36,100
2,672640, Note_on_c,0,44,100
2,672640, Note_on_c,0,63,100
2,672640, Note_off_c,0,64,0
2,673020, Note_off_c,0,63,0
2,673160, Note_off_c,0,36,0
2,673160, Note_off_c,0,44,0
2,673240, Note_on_c,0,44,100
2,673340, Note_off_c,0,44,0
2,673440, Note_on_c,0,44,100
2,673580, Note_off_c,0,44,0
2,673660, Note_on_c,0,44,100
2,673820, Note_off_c,0,44,0
2,673980, Note_on_c,0,44,100
2,674120, Note_off_c,0,44,0
2,674140, Note_on_c,0,44,100
2,674200, Note_off_c,0,44,0
2,674280, Note_on_c,0,44,100
2,674500, Note_off_c,0,44,0
2,674580, Note_on_c,0,44,100
2,674860, Note_on_c,0,48,100
2,674860, Note_off_c,0,44,0
2,674880, Note_on_c,0,46,100
2,674880, Note_off_c,0,48,0
2,675000, Note_on_c,0,44,100
2,675060, Note_off_c,0,44,0
2,675200, Note_on_c,0,44,100
2,675340, Note_off_c,0,44,0
2,675480, Note_on_c,0,44,100
2,675500, Note_on_c,0,47,100
2,675500, Note_off_c,0,46,0
2,675580, Note_on_c,0,46,100
2,675580, Note_off_c,0,47,0
2,676000, Note_off_c,0,44,0
2,676060, Note_off_c,0,46,0
2,676180, Note_on_c,0,44,100
2,676240, Note_off_c,0,44,0
2,676300, Note_on_c,0,44,100
2,676320, Note_on_c,0,38,100
2,676520, Note_off_c,0,44,0
2,676640, Note_on_c,0,44,100
2,676720, Note_off_c,0,44,0
2,676740, Note_on_c,0,44,100
2,676820, Note_off_c,0,44,0
2,676880, Note_on_c,0,44,100
2,676960, Note_off_c,0,44,0
2,677040, Note_on_c,0,44,100
2,677260, Note_off_c,0,44,0
2,677400, Note_on_c,0,44,100
2,677460, Note_on_c,0,46,100
2,677460, Note_off_c,0,42,0
2,677460, Note_off_c,0,44,0
2,677520, Note_off_c,0,38,0
2,677540, Note_on_c,0,43,100
2,677540, Note_on_c,0,60,100
2,677540, Note_off_c,0,32,0
2,677560, Note_on_c,0,32,100
2,677560, Note_on_c,0,51,100
2,677560, Note_on_c,0,63,100
2,677560, Note_off_c,0,43,0
2,677560, Note_off_c,0,60,0
2,677580, Note_on_c,0,60,100
2,677580, Note_off_c,0,51,0
2,677640, Note_on_c,0,48,100
2,677660, Note_on_c,0,36,100
2,677700, Note_on_c,0,44,100
2,677700, Note_off_c,0,48,0
2,677720, Note_on_c,0,42,100
2,677720, Note_off_c,0,46,0
2,677760, Note_on_c,0,59,100
2,677760, Note_off_c,0,60,0
2,677780, Note_on_c,0,51,100
2,677780, Note_off_c,0,59,0
2,677800, Note_off_c,0,51,0
2,678180, Note_on_c,0,62,100
2,678180, Note_off_c,0,32,0
2,678180, Note_off_c,0,36,0
2,678180, Note_off_c,0,44,0
2,678180, Note_off_c,0,63,0
2,678260, Note_on_c,0,64,100
2,678260, Note_off_c,0,62,0
2,678340, Note_on_c,0,38,100
2,678340, Note_on_c,0,44,100
2,678340, Note_on_c,0,60,100
2,678340, Note_off_c,0,64,0
2,678400, Note_on_c,0,66,100
2,678400, Note_off_c,0,38,0
2,678400, Note_off_c,0,44,0
2,678400, Note_off_c,0,60,0
2,678420, Note_on_c,0,63,100
2,678420, Note_off_c,0,66,0
2,678520, Note_on_c,0,32,100
2,678520, Note_on_c,0,36,100
2,678520, Note_on_c,0,44,100
2,678520, Note_on_c,0,62,100
2,678520, Note_off_c,0,63,0
2,678900, Note_on_c,0,64,100
2,678900, Note_off_c,0,32,0
2,678900, Note_off_c,0,36,0
2,678900, Note_off_c,0,44,0
2,678900, Note_off_c,0,62,0
2,678960, Note_on_c,0,63,100
2,678960, Note_off_c,0,64,0
2,678980, Note_on_c,0,32,100
2,678980, Note_on_c,0,36,100
2,678980, Note_on_c,0,44,100
2,679280, Note_on_c,0,62,100
2,679280, Note_off_c,0,63,0
2,679360, Note_on_c,0,64,100
2,679360, Note_off_c,0,32,0
2,679360, Note_off_c,0,36,0
2,679360, Note_off_c,0,44,0
2,679360, Note_off_c,0,62,0
2,679400, Note_on_c,0,38,100
2,679400, Note_on_c,0,60,100
2,679400, Note_off_c,0,64,0
2,679480, Note_on_c,0,64,100
2,679480, Note_off_c,0,38,0
2,679480, Note_off_c,0,60,0
2,679540, Note_on_c,0,63,100
2,679540, Note_off_c,0,64,0
2,679620, Note_on_c,0,32,100
2,679620, Note_on_c,0,36,100
2,679620, Note_on_c,0,44,100
2,680100, Note_on_c,0,62,100
2,680100, Note_off_c,0,63,0
2,680180, Note_on_c,0,64,100
2,680180, Note_off_c,0,62,0
2,680240, Note_on_c,0,63,100
2,680240, Note_off_c,0,64,0
2,680300, Note_on_c,0,62,100
2,680300, Note_off_c,0,63,0
2,680380, Note_on_c,0,63,100
2,680380, Note_off_c,0,62,0
2,680400, Note_on_c,0,64,100
2,680400, Note_off_c,0,32,0
2,680400, Note_off_c,0,36,0
2,680400, Note_off_c,0,44,0
2,680400, Note_off_c,0,63,0
2,680460, Note_on_c,0,63,100
2,680460, Note_off_c,0,64,0
2,680520, Note_on_c,0,32,100
2,680520, Note_on_c,0,36,100
2,680520, Note_on_c,0,44,100
2,680520, Note_on_c,0,62,100
2,680520, Note_off_c,0,63,0
2,680600, Note_on_c,0,64,100
2,680600, Note_off_c,0,32,0
2,680600, Note_off_c,0,36,0
2,680600, Note_off_c,0,44,0
2,680600, Note_off_c,0,62,0
2,680640, Note_on_c,0,32,100
2,680640, Note_on_c,0,36,100
2,680640, Note_on_c,0,44,100
2,680640, Note_on_c,0,63,100
2,680640, Note_off_c,0,64,0
2,680720, Note_on_c,0,62,100
2,680720, Note_off_c,0,63,0
2,680780, Note_off_c,0,32,0
2,680780, Note_off_c,0,36,0
2,680780, Note_off_c,0,42,0
2,680780, Note_off_c,0,44,0
2,680780, Note_off_c,0,62,0
2,680800, Note_on_c,0,42,100
2,680800, Note_on_c,0,44,100
2,680840, Note_on_c,0,32,100
2,680860, Note_on_c,0,39,100
2,680860, Note_off_c,0,42,0
2,680880, Note_off_c,0,39,0
2,680880, Note_off_c,0,44,0
2,680900, Note_on_c,0,42,100
2,680900, Note_on_c,0,44,100
2,680900, Note_on_c,0,68,100
2,680900, Note_off_c,0,32,0
2,680920, Note_on_c,0,32,100
2,680940, Note_on_c,0,46,100
2,680940, Note_off_c,0,68,0
2,680960, Note_on_c,0,36,100
2,680960, Note_off_c,0,46,0
2,681140, Note_off_c,0,36,0
2,681140, Note_off_c,0,44,0
2,681160, Note_on_c,0,44,100
2,681320, Note_off_c,0,44,0
2,681460, Note_on_c,0,44,100
2,681500, Note_on_c,0,36,100
2,681520, Note_on_c,0,46,100
2,681520, Note_off_c,0,42,0
2,681560, Note_off_c,0,44,0
2,681580, Note_off_c,0,36,0
2,681580, Note_off_c,0,46,0
2,681640, Note_on_c,0,42,100
2,681720, Note_on_c,0,44,100
2,681860, Note_off_c,0,44,0
2,681880, Note_on_c,0,56,100
2,681920, Note_on_c,0,46,100
2,681920, Note_off_c,0,56,0
2,681940, Note_on_c,0,44,100
2,682340, Note_off_c,0,44,0
2,682360, Note_off_c,0,32,0
2,682380, Note_off_c,0,42,0
2,682480, Note_off_c,0,46,0
2,682500, Note_on_c,0,42,100
2,682640, Note_on_c,0,32,100
2,682640, Note_on_c,0,44,100
2,682680, Note_on_c,0,46,100
2,682720, Note_off_c,0,46,0
2,682780, Note_off_c,0,44,0
2,682800, Note_on_c,0,44,100
2,682880, Note_off_c,0,44,0
2,682980, Note_on_c,0,44,100
2,683280, Note_off_c,0,44,0
2,683400, Note_on_c,0,44,100
2,683540, Note_off_c,0,44,0
2,683620, Note_on_c,0,44,100
2,683940, Note_off_c,0,44,0
2,684140, Note_on_c,0,44,100
2,684980, Note_off_c,0,44,0
2,685000, Note_on_c,0,44,100
2,685080, Note_off_c,0,44,0
2,685220, Note_on_c,0,44,100
2,685280, Note_off_c,0,42,0
2,685280, Note_off_c,0,44,0
2,685300, Note_on_c,0,40,100
2,685300, Note_on_c,0,44,100
2,685300, Note_on_c,0,73,100
2,685300, Note_off_c,0,32,0
2,685320, Note_on_c,0,32,100
2,685320, Note_on_c,0,42,100
2,685340, Note_off_c,0,40,0
2,685380, Note_on_c,0,49,100
2,685400, Note_off_c,0,73,0
2,685520, Note_on_c,0,46,100
2,685520, Note_off_c,0,49,0
2,685560, Note_off_c,0,44,0
2,685580, Note_on_c,0,44,100
2,685740, Note_off_c,0,44,0
2,685840, Note_on_c,0,44,100
2,685920, Note_off_c,0,44,0
2,686080, Note_on_c,0,44,100
2,686220, Note_off_c,0,44,0
2,686260, Note_off_c,0,42,0
2,686520, Note_off_c,0,46,0
2,686540, Note_on_c,0,42,100
2,686560, Note_on_c,0,44,100
2,686880, Note_on_c,0,51,100
2,686980, Note_on_c,0,60,100
2,687060, Note_off_c,0,51,0
2,687060, Note_off_c,0,60,0
2,687140, Note_off_c,0,44,0
2,687280, Note_on_c,0,44,100
2,687660, Note_off_c,0,44,0
2,687780, Note_on_c,0,44,100
2,687840, Note_off_c,0,44,0
2,687980, Note_on_c,0,44,100
2,688020, Note_on_c,0,49,100
2,688040, Note_on_c,0,46,100
2,688040, Note_off_c,0,49,0
2,688100, Note_off_c,0,44,0
2,688180, Note_on_c,0,44,100
2,688500, Note_off_c,0,44,0
2,688620, Note_on_c,0,44,100
2,688720, Note_off_c,0,44,0
2,688780, Note_on_c,0,44,100
2,688920, Note_off_c,0,44,0
2,689060, Note_on_c,0,44,100
2,689280, Note_off_c,0,44,0
2,689420, Note_on_c,0,44,100
2,689480, Note_off_c,0,42,0
2,689500, Note_off_c,0,44,0
2,689520, Note_on_c,0,42,100
2,689520, Note_on_c,0,44,100
2,689520, Note_off_c,0,32,0
2,689520, Note_off_c,0,46,0
2,689540, Note_on_c,0,32,100
2,689600, Note_off_c,0,44,0
2,689620, Note_on_c,0,44,100
2,689680, Note_off_c,0,44,0
2,689740, Note_on_c,0,44,100
2,689860, Note_on_c,0,46,100
2,689860, Note_off_c,0,42,0
2,689860, Note_off_c,0,44,0
2,689940, Note_on_c,0,42,100
2,689940, Note_off_c,0,46,0
2,690000, Note_on_c,0,44,100
2,690060, Note_off_c,0,44,0
2,690080, Note_on_c,0,48,100
2,690120, Note_on_c,0,44,100
2,690120, Note_on_c,0,49,100
2,690120, Note_off_c,0,48,0
2,690240, Note_off_c,0,44,0
2,690320, Note_on_c,0,44,100
2,690380, Note_on_c,0,46,100
2,690380, Note_off_c,0,49,0
2,690400, Note_off_c,0,44,0
2,690420, Note_on_c,0,44,100
2,690420, Note_off_c,0,46,0
2,690440, Note_off_c,0,44,0
2,690520, Note_on_c,0,44,100
2,690680, Note_off_c,0,44,0
2,690740, Note_on_c,0,44,100
2,691020, Note_off_c,0,44,0
2,691080, Note_on_c,0,44,100
2,691200, Note_off_c,0,44,0
2,691340, Note_off_c,0,42,0
2,691360, Note_off_c,0,32,0
2,691380, End_track
0,0, End_of_file
