0, 0, Header, 1, 6, 120
1, 0, Start_track
1, 0, Time_signature, 4, 2, 24, 8
1, 0, Key_signature, 0," ""major"""
1, 0, Tempo, 240000
1, 0, End_track
2, 0, Start_track
2, 0, MIDI_port, 0
2, 0, Title_t," ""3D Starfighter"""
2, 0, Note_on_c, 9, 35, 100
2, 0, Note_on_c, 9, 36, 100
2, 0, Note_on_c, 9, 40, 100
2, 0, Note_on_c, 9, 38, 100
2, 0, Control_c, 9, 7, 62
2, 28, Note_on_c, 9, 38, 0
2, 28, Note_on_c, 9, 35, 0
2, 28, Note_on_c, 9, 36, 0
2, 28, Note_on_c, 9, 40, 0
2, 240, Note_on_c, 9, 40, 100
2, 240, Note_on_c, 9, 38, 100
2, 268, Note_on_c, 9, 38, 0
2, 268, Note_on_c, 9, 40, 0
2, 480, Note_on_c, 9, 35, 100
2, 480, Note_on_c, 9, 36, 100
2, 480, Note_on_c, 9, 40, 100
2, 480, Note_on_c, 9, 38, 100
2, 508, Note_on_c, 9, 38, 0
2, 508, Note_on_c, 9, 35, 0
2, 508, Note_on_c, 9, 36, 0
2, 508, Note_on_c, 9, 40, 0
2, 600, Note_on_c, 9, 40, 100
2, 600, Note_on_c, 9, 38, 100
2, 628, Note_on_c, 9, 38, 0
2, 628, Note_on_c, 9, 40, 0
2, 960, Note_on_c, 9, 35, 100
2, 960, Note_on_c, 9, 36, 100
2, 960, Note_on_c, 9, 38, 100
2, 960, Note_on_c, 9, 40, 100
2, 988, Note_on_c, 9, 40, 0
2, 988, Note_on_c, 9, 35, 0
2, 988, Note_on_c, 9, 36, 0
2, 988, Note_on_c, 9, 38, 0
2, 1320, Note_on_c, 9, 38, 100
2, 1320, Note_on_c, 9, 40, 100
2, 1348, Note_on_c, 9, 40, 0
2, 1348, Note_on_c, 9, 38, 0
2, 1440, Note_on_c, 9, 35, 100
2, 1440, Note_on_c, 9, 36, 100
2, 1440, Note_on_c, 9, 38, 100
2, 1440, Note_on_c, 9, 40, 100
2, 1468, Note_on_c, 9, 40, 0
2, 1468, Note_on_c, 9, 35, 0
2, 1468, Note_on_c, 9, 36, 0
2, 1468, Note_on_c, 9, 38, 0
2, 1680, Note_on_c, 9, 38, 100
2, 1680, Note_on_c, 9, 40, 100
2, 1708, Note_on_c, 9, 40, 0
2, 1708, Note_on_c, 9, 38, 0
2, 1800, Note_on_c, 9, 38, 100
2, 1800, Note_on_c, 9, 40, 100
2, 1828, Note_on_c, 9, 40, 0
2, 1828, Note_on_c, 9, 38, 0
2, 1920, Note_on_c, 9, 35, 100
2, 1920, Note_on_c, 9, 36, 100
2, 1920, Note_on_c, 9, 38, 100
2, 1920, Note_on_c, 9, 40, 100
2, 1948, Note_on_c, 9, 40, 0
2, 1948, Note_on_c, 9, 35, 0
2, 1948, Note_on_c, 9, 36, 0
2, 1948, Note_on_c, 9, 38, 0
2, 2160, Note_on_c, 9, 38, 100
2, 2160, Note_on_c, 9, 40, 100
2, 2188, Note_on_c, 9, 40, 0
2, 2188, Note_on_c, 9, 38, 0
2, 2280, Note_on_c, 9, 38, 100
2, 2280, Note_on_c, 9, 40, 100
2, 2308, Note_on_c, 9, 40, 0
2, 2308, Note_on_c, 9, 38, 0
2, 2400, Note_on_c, 9, 35, 100
2, 2400, Note_on_c, 9, 36, 100
2, 2400, Note_on_c, 9, 38, 100
2, 2400, Note_on_c, 9, 40, 100
2, 2428, Note_on_c, 9, 40, 0
2, 2428, Note_on_c, 9, 35, 0
2, 2428, Note_on_c, 9, 36, 0
2, 2428, Note_on_c, 9, 38, 0
2, 2520, Note_on_c, 9, 38, 100
2, 2520, Note_on_c, 9, 40, 100
2, 2548, Note_on_c, 9, 40, 0
2, 2548, Note_on_c, 9, 38, 0
2, 2760, Note_on_c, 9, 38, 100
2, 2760, Note_on_c, 9, 40, 100
2, 2788, Note_on_c, 9, 40, 0
2, 2788, Note_on_c, 9, 38, 0
2, 2880, Note_on_c, 9, 35, 100
2, 2880, Note_on_c, 9, 36, 100
2, 2880, Note_on_c, 9, 38, 100
2, 2880, Note_on_c, 9, 40, 100
2, 2908, Note_on_c, 9, 40, 0
2, 2908, Note_on_c, 9, 35, 0
2, 2908, Note_on_c, 9, 36, 0
2, 2908, Note_on_c, 9, 38, 0
2, 3000, Note_on_c, 9, 38, 100
2, 3000, Note_on_c, 9, 40, 100
2, 3028, Note_on_c, 9, 40, 0
2, 3028, Note_on_c, 9, 38, 0
2, 3120, Note_on_c, 9, 38, 100
2, 3120, Note_on_c, 9, 40, 100
2, 3148, Note_on_c, 9, 40, 0
2, 3148, Note_on_c, 9, 38, 0
2, 3240, Note_on_c, 9, 38, 100
2, 3240, Note_on_c, 9, 40, 100
2, 3268, Note_on_c, 9, 40, 0
2, 3268, Note_on_c, 9, 38, 0
2, 3360, Note_on_c, 9, 35, 100
2, 3360, Note_on_c, 9, 36, 100
2, 3360, Note_on_c, 9, 38, 100
2, 3360, Note_on_c, 9, 40, 100
2, 3388, Note_on_c, 9, 40, 0
2, 3388, Note_on_c, 9, 35, 0
2, 3388, Note_on_c, 9, 36, 0
2, 3388, Note_on_c, 9, 38, 0
2, 3480, Note_on_c, 9, 38, 100
2, 3480, Note_on_c, 9, 40, 100
2, 3508, Note_on_c, 9, 40, 0
2, 3508, Note_on_c, 9, 38, 0
2, 3600, Note_on_c, 9, 38, 100
2, 3600, Note_on_c, 9, 40, 100
2, 3628, Note_on_c, 9, 40, 0
2, 3628, Note_on_c, 9, 38, 0
2, 3720, Note_on_c, 9, 38, 100
2, 3720, Note_on_c, 9, 40, 100
2, 3748, Note_on_c, 9, 40, 0
2, 3748, Note_on_c, 9, 38, 0
2, 3840, Note_on_c, 9, 35, 100
2, 3840, Note_on_c, 9, 36, 100
2, 3840, Note_on_c, 9, 40, 100
2, 3840, Note_on_c, 9, 38, 100
2, 3868, Note_on_c, 9, 38, 0
2, 3868, Note_on_c, 9, 35, 0
2, 3868, Note_on_c, 9, 36, 0
2, 3868, Note_on_c, 9, 40, 0
2, 4080, Note_on_c, 9, 40, 100
2, 4080, Note_on_c, 9, 38, 100
2, 4108, Note_on_c, 9, 38, 0
2, 4108, Note_on_c, 9, 40, 0
2, 4320, Note_on_c, 9, 35, 100
2, 4320, Note_on_c, 9, 36, 100
2, 4320, Note_on_c, 9, 40, 100
2, 4320, Note_on_c, 9, 38, 100
2, 4348, Note_on_c, 9, 38, 0
2, 4348, Note_on_c, 9, 35, 0
2, 4348, Note_on_c, 9, 36, 0
2, 4348, Note_on_c, 9, 40, 0
2, 4440, Note_on_c, 9, 40, 100
2, 4440, Note_on_c, 9, 38, 100
2, 4468, Note_on_c, 9, 38, 0
2, 4468, Note_on_c, 9, 40, 0
2, 4800, Note_on_c, 9, 35, 100
2, 4800, Note_on_c, 9, 36, 100
2, 4800, Note_on_c, 9, 38, 100
2, 4800, Note_on_c, 9, 40, 100
2, 4828, Note_on_c, 9, 40, 0
2, 4828, Note_on_c, 9, 35, 0
2, 4828, Note_on_c, 9, 36, 0
2, 4828, Note_on_c, 9, 38, 0
2, 5160, Note_on_c, 9, 38, 100
2, 5160, Note_on_c, 9, 40, 100
2, 5188, Note_on_c, 9, 40, 0
2, 5188, Note_on_c, 9, 38, 0
2, 5280, Note_on_c, 9, 35, 100
2, 5280, Note_on_c, 9, 36, 100
2, 5280, Note_on_c, 9, 38, 100
2, 5280, Note_on_c, 9, 40, 100
2, 5308, Note_on_c, 9, 40, 0
2, 5308, Note_on_c, 9, 35, 0
2, 5308, Note_on_c, 9, 36, 0
2, 5308, Note_on_c, 9, 38, 0
2, 5520, Note_on_c, 9, 38, 100
2, 5520, Note_on_c, 9, 40, 100
2, 5548, Note_on_c, 9, 40, 0
2, 5548, Note_on_c, 9, 38, 0
2, 5640, Note_on_c, 9, 38, 100
2, 5640, Note_on_c, 9, 40, 100
2, 5668, Note_on_c, 9, 40, 0
2, 5668, Note_on_c, 9, 38, 0
2, 5760, Note_on_c, 9, 35, 100
2, 5760, Note_on_c, 9, 36, 100
2, 5760, Note_on_c, 9, 38, 100
2, 5760, Note_on_c, 9, 40, 100
2, 5788, Note_on_c, 9, 40, 0
2, 5788, Note_on_c, 9, 35, 0
2, 5788, Note_on_c, 9, 36, 0
2, 5788, Note_on_c, 9, 38, 0
2, 6000, Note_on_c, 9, 38, 100
2, 6000, Note_on_c, 9, 40, 100
2, 6028, Note_on_c, 9, 40, 0
2, 6028, Note_on_c, 9, 38, 0
2, 6120, Note_on_c, 9, 38, 100
2, 6120, Note_on_c, 9, 40, 100
2, 6148, Note_on_c, 9, 40, 0
2, 6148, Note_on_c, 9, 38, 0
2, 6240, Note_on_c, 9, 35, 100
2, 6240, Note_on_c, 9, 36, 100
2, 6240, Note_on_c, 9, 38, 100
2, 6240, Note_on_c, 9, 40, 100
2, 6268, Note_on_c, 9, 40, 0
2, 6268, Note_on_c, 9, 35, 0
2, 6268, Note_on_c, 9, 36, 0
2, 6268, Note_on_c, 9, 38, 0
2, 6360, Note_on_c, 9, 38, 100
2, 6360, Note_on_c, 9, 40, 100
2, 6388, Note_on_c, 9, 40, 0
2, 6388, Note_on_c, 9, 38, 0
2, 6600, Note_on_c, 9, 38, 100
2, 6600, Note_on_c, 9, 40, 100
2, 6628, Note_on_c, 9, 40, 0
2, 6628, Note_on_c, 9, 38, 0
2, 6720, Note_on_c, 9, 35, 100
2, 6720, Note_on_c, 9, 36, 100
2, 6720, Note_on_c, 9, 38, 100
2, 6720, Note_on_c, 9, 40, 100
2, 6748, Note_on_c, 9, 40, 0
2, 6748, Note_on_c, 9, 35, 0
2, 6748, Note_on_c, 9, 36, 0
2, 6748, Note_on_c, 9, 38, 0
2, 6840, Note_on_c, 9, 38, 100
2, 6840, Note_on_c, 9, 40, 100
2, 6868, Note_on_c, 9, 40, 0
2, 6868, Note_on_c, 9, 38, 0
2, 6960, Note_on_c, 9, 38, 100
2, 6960, Note_on_c, 9, 40, 100
2, 6988, Note_on_c, 9, 40, 0
2, 6988, Note_on_c, 9, 38, 0
2, 7080, Note_on_c, 9, 38, 100
2, 7080, Note_on_c, 9, 40, 100
2, 7108, Note_on_c, 9, 40, 0
2, 7108, Note_on_c, 9, 38, 0
2, 7200, Note_on_c, 9, 35, 100
2, 7200, Note_on_c, 9, 36, 100
2, 7200, Note_on_c, 9, 38, 100
2, 7200, Note_on_c, 9, 40, 100
2, 7228, Note_on_c, 9, 40, 0
2, 7228, Note_on_c, 9, 35, 0
2, 7228, Note_on_c, 9, 36, 0
2, 7228, Note_on_c, 9, 38, 0
2, 7320, Note_on_c, 9, 38, 100
2, 7320, Note_on_c, 9, 40, 100
2, 7348, Note_on_c, 9, 40, 0
2, 7348, Note_on_c, 9, 38, 0
2, 7440, Note_on_c, 9, 38, 100
2, 7440, Note_on_c, 9, 40, 100
2, 7468, Note_on_c, 9, 40, 0
2, 7468, Note_on_c, 9, 38, 0
2, 7560, Note_on_c, 9, 38, 100
2, 7560, Note_on_c, 9, 40, 100
2, 7588, Note_on_c, 9, 40, 0
2, 7588, Note_on_c, 9, 38, 0
2, 7680, Note_on_c, 9, 35, 100
2, 7680, Note_on_c, 9, 36, 100
2, 7680, Note_on_c, 9, 40, 100
2, 7680, Note_on_c, 9, 38, 100
2, 7708, Note_on_c, 9, 38, 0
2, 7708, Note_on_c, 9, 35, 0
2, 7708, Note_on_c, 9, 36, 0
2, 7708, Note_on_c, 9, 40, 0
2, 7920, Note_on_c, 9, 40, 100
2, 7920, Note_on_c, 9, 38, 100
2, 7948, Note_on_c, 9, 38, 0
2, 7948, Note_on_c, 9, 40, 0
2, 8160, Note_on_c, 9, 35, 100
2, 8160, Note_on_c, 9, 36, 100
2, 8160, Note_on_c, 9, 40, 100
2, 8160, Note_on_c, 9, 38, 100
2, 8188, Note_on_c, 9, 38, 0
2, 8188, Note_on_c, 9, 35, 0
2, 8188, Note_on_c, 9, 36, 0
2, 8188, Note_on_c, 9, 40, 0
2, 8280, Note_on_c, 9, 40, 100
2, 8280, Note_on_c, 9, 38, 100
2, 8308, Note_on_c, 9, 38, 0
2, 8308, Note_on_c, 9, 40, 0
2, 8640, Note_on_c, 9, 35, 100
2, 8640, Note_on_c, 9, 36, 100
2, 8640, Note_on_c, 9, 38, 100
2, 8640, Note_on_c, 9, 40, 100
2, 8668, Note_on_c, 9, 40, 0
2, 8668, Note_on_c, 9, 35, 0
2, 8668, Note_on_c, 9, 36, 0
2, 8668, Note_on_c, 9, 38, 0
2, 9000, Note_on_c, 9, 38, 100
2, 9000, Note_on_c, 9, 40, 100
2, 9028, Note_on_c, 9, 40, 0
2, 9028, Note_on_c, 9, 38, 0
2, 9120, Note_on_c, 9, 35, 100
2, 9120, Note_on_c, 9, 36, 100
2, 9120, Note_on_c, 9, 38, 100
2, 9120, Note_on_c, 9, 40, 100
2, 9148, Note_on_c, 9, 40, 0
2, 9148, Note_on_c, 9, 35, 0
2, 9148, Note_on_c, 9, 36, 0
2, 9148, Note_on_c, 9, 38, 0
2, 9360, Note_on_c, 9, 38, 100
2, 9360, Note_on_c, 9, 40, 100
2, 9388, Note_on_c, 9, 40, 0
2, 9388, Note_on_c, 9, 38, 0
2, 9480, Note_on_c, 9, 38, 100
2, 9480, Note_on_c, 9, 40, 100
2, 9508, Note_on_c, 9, 40, 0
2, 9508, Note_on_c, 9, 38, 0
2, 9600, Note_on_c, 9, 35, 100
2, 9600, Note_on_c, 9, 36, 100
2, 9600, Note_on_c, 9, 38, 100
2, 9600, Note_on_c, 9, 40, 100
2, 9628, Note_on_c, 9, 40, 0
2, 9628, Note_on_c, 9, 35, 0
2, 9628, Note_on_c, 9, 36, 0
2, 9628, Note_on_c, 9, 38, 0
2, 9840, Note_on_c, 9, 38, 100
2, 9840, Note_on_c, 9, 40, 100
2, 9868, Note_on_c, 9, 40, 0
2, 9868, Note_on_c, 9, 38, 0
2, 9960, Note_on_c, 9, 38, 100
2, 9960, Note_on_c, 9, 40, 100
2, 9988, Note_on_c, 9, 40, 0
2, 9988, Note_on_c, 9, 38, 0
2, 10080, Note_on_c, 9, 35, 100
2, 10080, Note_on_c, 9, 36, 100
2, 10080, Note_on_c, 9, 38, 100
2, 10080, Note_on_c, 9, 40, 100
2, 10108, Note_on_c, 9, 40, 0
2, 10108, Note_on_c, 9, 35, 0
2, 10108, Note_on_c, 9, 36, 0
2, 10108, Note_on_c, 9, 38, 0
2, 10200, Note_on_c, 9, 38, 100
2, 10200, Note_on_c, 9, 40, 100
2, 10228, Note_on_c, 9, 40, 0
2, 10228, Note_on_c, 9, 38, 0
2, 10440, Note_on_c, 9, 38, 100
2, 10440, Note_on_c, 9, 40, 100
2, 10468, Note_on_c, 9, 40, 0
2, 10468, Note_on_c, 9, 38, 0
2, 10560, Note_on_c, 9, 35, 100
2, 10560, Note_on_c, 9, 36, 100
2, 10560, Note_on_c, 9, 38, 100
2, 10560, Note_on_c, 9, 40, 100
2, 10588, Note_on_c, 9, 40, 0
2, 10588, Note_on_c, 9, 35, 0
2, 10588, Note_on_c, 9, 36, 0
2, 10588, Note_on_c, 9, 38, 0
2, 10680, Note_on_c, 9, 38, 100
2, 10680, Note_on_c, 9, 40, 100
2, 10708, Note_on_c, 9, 40, 0
2, 10708, Note_on_c, 9, 38, 0
2, 10800, Note_on_c, 9, 38, 100
2, 10800, Note_on_c, 9, 40, 100
2, 10828, Note_on_c, 9, 40, 0
2, 10828, Note_on_c, 9, 38, 0
2, 10920, Note_on_c, 9, 38, 100
2, 10920, Note_on_c, 9, 40, 100
2, 10948, Note_on_c, 9, 40, 0
2, 10948, Note_on_c, 9, 38, 0
2, 11040, Note_on_c, 9, 35, 100
2, 11040, Note_on_c, 9, 36, 100
2, 11040, Note_on_c, 9, 38, 100
2, 11040, Note_on_c, 9, 40, 100
2, 11068, Note_on_c, 9, 40, 0
2, 11068, Note_on_c, 9, 35, 0
2, 11068, Note_on_c, 9, 36, 0
2, 11068, Note_on_c, 9, 38, 0
2, 11160, Note_on_c, 9, 38, 100
2, 11160, Note_on_c, 9, 40, 100
2, 11188, Note_on_c, 9, 40, 0
2, 11188, Note_on_c, 9, 38, 0
2, 11280, Note_on_c, 9, 38, 100
2, 11280, Note_on_c, 9, 40, 100
2, 11308, Note_on_c, 9, 40, 0
2, 11308, Note_on_c, 9, 38, 0
2, 11400, Note_on_c, 9, 38, 100
2, 11400, Note_on_c, 9, 40, 100
2, 11428, Note_on_c, 9, 40, 0
2, 11428, Note_on_c, 9, 38, 0
2, 11520, Note_on_c, 9, 35, 100
2, 11520, Note_on_c, 9, 36, 100
2, 11520, Note_on_c, 9, 40, 100
2, 11520, Note_on_c, 9, 38, 100
2, 11548, Note_on_c, 9, 38, 0
2, 11548, Note_on_c, 9, 35, 0
2, 11548, Note_on_c, 9, 36, 0
2, 11548, Note_on_c, 9, 40, 0
2, 11760, Note_on_c, 9, 40, 100
2, 11760, Note_on_c, 9, 38, 100
2, 11788, Note_on_c, 9, 38, 0
2, 11788, Note_on_c, 9, 40, 0
2, 12000, Note_on_c, 9, 35, 100
2, 12000, Note_on_c, 9, 36, 100
2, 12000, Note_on_c, 9, 40, 100
2, 12000, Note_on_c, 9, 38, 100
2, 12028, Note_on_c, 9, 38, 0
2, 12028, Note_on_c, 9, 35, 0
2, 12028, Note_on_c, 9, 36, 0
2, 12028, Note_on_c, 9, 40, 0
2, 12120, Note_on_c, 9, 40, 100
2, 12120, Note_on_c, 9, 38, 100
2, 12148, Note_on_c, 9, 38, 0
2, 12148, Note_on_c, 9, 40, 0
2, 12480, Note_on_c, 9, 35, 100
2, 12480, Note_on_c, 9, 36, 100
2, 12480, Note_on_c, 9, 38, 100
2, 12480, Note_on_c, 9, 40, 100
2, 12508, Note_on_c, 9, 40, 0
2, 12508, Note_on_c, 9, 35, 0
2, 12508, Note_on_c, 9, 36, 0
2, 12508, Note_on_c, 9, 38, 0
2, 12840, Note_on_c, 9, 38, 100
2, 12840, Note_on_c, 9, 40, 100
2, 12868, Note_on_c, 9, 40, 0
2, 12868, Note_on_c, 9, 38, 0
2, 12960, Note_on_c, 9, 35, 100
2, 12960, Note_on_c, 9, 36, 100
2, 12960, Note_on_c, 9, 38, 100
2, 12960, Note_on_c, 9, 40, 100
2, 12988, Note_on_c, 9, 40, 0
2, 12988, Note_on_c, 9, 35, 0
2, 12988, Note_on_c, 9, 36, 0
2, 12988, Note_on_c, 9, 38, 0
2, 13200, Note_on_c, 9, 38, 100
2, 13200, Note_on_c, 9, 40, 100
2, 13228, Note_on_c, 9, 40, 0
2, 13228, Note_on_c, 9, 38, 0
2, 13320, Note_on_c, 9, 38, 100
2, 13320, Note_on_c, 9, 40, 100
2, 13348, Note_on_c, 9, 40, 0
2, 13348, Note_on_c, 9, 38, 0
2, 13440, Note_on_c, 9, 35, 100
2, 13440, Note_on_c, 9, 36, 100
2, 13440, Note_on_c, 9, 38, 100
2, 13440, Note_on_c, 9, 40, 100
2, 13468, Note_on_c, 9, 40, 0
2, 13468, Note_on_c, 9, 35, 0
2, 13468, Note_on_c, 9, 36, 0
2, 13468, Note_on_c, 9, 38, 0
2, 13680, Note_on_c, 9, 38, 100
2, 13680, Note_on_c, 9, 40, 100
2, 13708, Note_on_c, 9, 40, 0
2, 13708, Note_on_c, 9, 38, 0
2, 13800, Note_on_c, 9, 38, 100
2, 13800, Note_on_c, 9, 40, 100
2, 13828, Note_on_c, 9, 40, 0
2, 13828, Note_on_c, 9, 38, 0
2, 13920, Note_on_c, 9, 35, 100
2, 13920, Note_on_c, 9, 36, 100
2, 13920, Note_on_c, 9, 38, 100
2, 13920, Note_on_c, 9, 40, 100
2, 13948, Note_on_c, 9, 40, 0
2, 13948, Note_on_c, 9, 35, 0
2, 13948, Note_on_c, 9, 36, 0
2, 13948, Note_on_c, 9, 38, 0
2, 14040, Note_on_c, 9, 38, 100
2, 14040, Note_on_c, 9, 40, 100
2, 14068, Note_on_c, 9, 40, 0
2, 14068, Note_on_c, 9, 38, 0
2, 14280, Note_on_c, 9, 38, 100
2, 14280, Note_on_c, 9, 40, 100
2, 14308, Note_on_c, 9, 40, 0
2, 14308, Note_on_c, 9, 38, 0
2, 14400, Note_on_c, 9, 35, 100
2, 14400, Note_on_c, 9, 36, 100
2, 14400, Note_on_c, 9, 38, 100
2, 14400, Note_on_c, 9, 40, 100
2, 14428, Note_on_c, 9, 40, 0
2, 14428, Note_on_c, 9, 35, 0
2, 14428, Note_on_c, 9, 36, 0
2, 14428, Note_on_c, 9, 38, 0
2, 14520, Note_on_c, 9, 38, 100
2, 14520, Note_on_c, 9, 40, 100
2, 14548, Note_on_c, 9, 40, 0
2, 14548, Note_on_c, 9, 38, 0
2, 14640, Note_on_c, 9, 38, 100
2, 14640, Note_on_c, 9, 40, 100
2, 14668, Note_on_c, 9, 40, 0
2, 14668, Note_on_c, 9, 38, 0
2, 14760, Note_on_c, 9, 38, 100
2, 14760, Note_on_c, 9, 40, 100
2, 14788, Note_on_c, 9, 40, 0
2, 14788, Note_on_c, 9, 38, 0
2, 14880, Note_on_c, 9, 35, 100
2, 14880, Note_on_c, 9, 36, 100
2, 14880, Note_on_c, 9, 38, 100
2, 14880, Note_on_c, 9, 40, 100
2, 14908, Note_on_c, 9, 40, 0
2, 14908, Note_on_c, 9, 35, 0
2, 14908, Note_on_c, 9, 36, 0
2, 14908, Note_on_c, 9, 38, 0
2, 15000, Note_on_c, 9, 38, 100
2, 15000, Note_on_c, 9, 40, 100
2, 15028, Note_on_c, 9, 40, 0
2, 15028, Note_on_c, 9, 38, 0
2, 15120, Note_on_c, 9, 38, 100
2, 15120, Note_on_c, 9, 40, 100
2, 15148, Note_on_c, 9, 40, 0
2, 15148, Note_on_c, 9, 38, 0
2, 15240, Note_on_c, 9, 38, 100
2, 15240, Note_on_c, 9, 40, 100
2, 15268, Note_on_c, 9, 40, 0
2, 15268, Note_on_c, 9, 38, 0
2, 15360, Note_on_c, 9, 35, 100
2, 15360, Note_on_c, 9, 36, 100
2, 15360, Note_on_c, 9, 40, 100
2, 15360, Note_on_c, 9, 38, 100
2, 15388, Note_on_c, 9, 38, 0
2, 15388, Note_on_c, 9, 35, 0
2, 15388, Note_on_c, 9, 36, 0
2, 15388, Note_on_c, 9, 40, 0
2, 15600, Note_on_c, 9, 40, 100
2, 15600, Note_on_c, 9, 38, 100
2, 15628, Note_on_c, 9, 38, 0
2, 15628, Note_on_c, 9, 40, 0
2, 15840, Note_on_c, 9, 35, 100
2, 15840, Note_on_c, 9, 36, 100
2, 15840, Note_on_c, 9, 40, 100
2, 15840, Note_on_c, 9, 38, 100
2, 15868, Note_on_c, 9, 38, 0
2, 15868, Note_on_c, 9, 35, 0
2, 15868, Note_on_c, 9, 36, 0
2, 15868, Note_on_c, 9, 40, 0
2, 15960, Note_on_c, 9, 40, 100
2, 15960, Note_on_c, 9, 38, 100
2, 15988, Note_on_c, 9, 38, 0
2, 15988, Note_on_c, 9, 40, 0
2, 16320, Note_on_c, 9, 35, 100
2, 16320, Note_on_c, 9, 36, 100
2, 16320, Note_on_c, 9, 38, 100
2, 16320, Note_on_c, 9, 40, 100
2, 16348, Note_on_c, 9, 40, 0
2, 16348, Note_on_c, 9, 35, 0
2, 16348, Note_on_c, 9, 36, 0
2, 16348, Note_on_c, 9, 38, 0
2, 16680, Note_on_c, 9, 38, 100
2, 16680, Note_on_c, 9, 40, 100
2, 16708, Note_on_c, 9, 40, 0
2, 16708, Note_on_c, 9, 38, 0
2, 16800, Note_on_c, 9, 35, 100
2, 16800, Note_on_c, 9, 36, 100
2, 16800, Note_on_c, 9, 38, 100
2, 16800, Note_on_c, 9, 40, 100
2, 16828, Note_on_c, 9, 40, 0
2, 16828, Note_on_c, 9, 35, 0
2, 16828, Note_on_c, 9, 36, 0
2, 16828, Note_on_c, 9, 38, 0
2, 17040, Note_on_c, 9, 38, 100
2, 17040, Note_on_c, 9, 40, 100
2, 17068, Note_on_c, 9, 40, 0
2, 17068, Note_on_c, 9, 38, 0
2, 17160, Note_on_c, 9, 38, 100
2, 17160, Note_on_c, 9, 40, 100
2, 17188, Note_on_c, 9, 40, 0
2, 17188, Note_on_c, 9, 38, 0
2, 17280, Note_on_c, 9, 35, 100
2, 17280, Note_on_c, 9, 36, 100
2, 17280, Note_on_c, 9, 38, 100
2, 17280, Note_on_c, 9, 40, 100
2, 17308, Note_on_c, 9, 40, 0
2, 17308, Note_on_c, 9, 35, 0
2, 17308, Note_on_c, 9, 36, 0
2, 17308, Note_on_c, 9, 38, 0
2, 17520, Note_on_c, 9, 38, 100
2, 17520, Note_on_c, 9, 40, 100
2, 17548, Note_on_c, 9, 40, 0
2, 17548, Note_on_c, 9, 38, 0
2, 17640, Note_on_c, 9, 38, 100
2, 17640, Note_on_c, 9, 40, 100
2, 17668, Note_on_c, 9, 40, 0
2, 17668, Note_on_c, 9, 38, 0
2, 17760, Note_on_c, 9, 35, 100
2, 17760, Note_on_c, 9, 36, 100
2, 17760, Note_on_c, 9, 38, 100
2, 17760, Note_on_c, 9, 40, 100
2, 17788, Note_on_c, 9, 40, 0
2, 17788, Note_on_c, 9, 35, 0
2, 17788, Note_on_c, 9, 36, 0
2, 17788, Note_on_c, 9, 38, 0
2, 17880, Note_on_c, 9, 38, 100
2, 17880, Note_on_c, 9, 40, 100
2, 17908, Note_on_c, 9, 40, 0
2, 17908, Note_on_c, 9, 38, 0
2, 18120, Note_on_c, 9, 38, 100
2, 18120, Note_on_c, 9, 40, 100
2, 18148, Note_on_c, 9, 40, 0
2, 18148, Note_on_c, 9, 38, 0
2, 18240, Note_on_c, 9, 35, 100
2, 18240, Note_on_c, 9, 36, 100
2, 18240, Note_on_c, 9, 38, 100
2, 18240, Note_on_c, 9, 40, 100
2, 18268, Note_on_c, 9, 40, 0
2, 18268, Note_on_c, 9, 35, 0
2, 18268, Note_on_c, 9, 36, 0
2, 18268, Note_on_c, 9, 38, 0
2, 18360, Note_on_c, 9, 38, 100
2, 18360, Note_on_c, 9, 40, 100
2, 18388, Note_on_c, 9, 40, 0
2, 18388, Note_on_c, 9, 38, 0
2, 18480, Note_on_c, 9, 38, 100
2, 18480, Note_on_c, 9, 40, 100
2, 18508, Note_on_c, 9, 40, 0
2, 18508, Note_on_c, 9, 38, 0
2, 18600, Note_on_c, 9, 38, 100
2, 18600, Note_on_c, 9, 40, 100
2, 18628, Note_on_c, 9, 40, 0
2, 18628, Note_on_c, 9, 38, 0
2, 18720, Note_on_c, 9, 35, 100
2, 18720, Note_on_c, 9, 36, 100
2, 18720, Note_on_c, 9, 38, 100
2, 18720, Note_on_c, 9, 40, 100
2, 18748, Note_on_c, 9, 40, 0
2, 18748, Note_on_c, 9, 35, 0
2, 18748, Note_on_c, 9, 36, 0
2, 18748, Note_on_c, 9, 38, 0
2, 18840, Note_on_c, 9, 38, 100
2, 18840, Note_on_c, 9, 40, 100
2, 18868, Note_on_c, 9, 40, 0
2, 18868, Note_on_c, 9, 38, 0
2, 18960, Note_on_c, 9, 38, 100
2, 18960, Note_on_c, 9, 40, 100
2, 18988, Note_on_c, 9, 40, 0
2, 18988, Note_on_c, 9, 38, 0
2, 19080, Note_on_c, 9, 38, 100
2, 19080, Note_on_c, 9, 40, 100
2, 19108, Note_on_c, 9, 40, 0
2, 19108, Note_on_c, 9, 38, 0
2, 19200, Note_on_c, 9, 35, 100
2, 19200, Note_on_c, 9, 36, 100
2, 19200, Note_on_c, 9, 40, 100
2, 19200, Note_on_c, 9, 38, 100
2, 19228, Note_on_c, 9, 38, 0
2, 19228, Note_on_c, 9, 35, 0
2, 19228, Note_on_c, 9, 36, 0
2, 19228, Note_on_c, 9, 40, 0
2, 19440, Note_on_c, 9, 40, 100
2, 19440, Note_on_c, 9, 38, 100
2, 19468, Note_on_c, 9, 38, 0
2, 19468, Note_on_c, 9, 40, 0
2, 19680, Note_on_c, 9, 35, 100
2, 19680, Note_on_c, 9, 36, 100
2, 19680, Note_on_c, 9, 40, 100
2, 19680, Note_on_c, 9, 38, 100
2, 19708, Note_on_c, 9, 38, 0
2, 19708, Note_on_c, 9, 35, 0
2, 19708, Note_on_c, 9, 36, 0
2, 19708, Note_on_c, 9, 40, 0
2, 19800, Note_on_c, 9, 40, 100
2, 19800, Note_on_c, 9, 38, 100
2, 19828, Note_on_c, 9, 38, 0
2, 19828, Note_on_c, 9, 40, 0
2, 20160, Note_on_c, 9, 35, 100
2, 20160, Note_on_c, 9, 36, 100
2, 20160, Note_on_c, 9, 38, 100
2, 20160, Note_on_c, 9, 40, 100
2, 20188, Note_on_c, 9, 40, 0
2, 20188, Note_on_c, 9, 35, 0
2, 20188, Note_on_c, 9, 36, 0
2, 20188, Note_on_c, 9, 38, 0
2, 20520, Note_on_c, 9, 38, 100
2, 20520, Note_on_c, 9, 40, 100
2, 20548, Note_on_c, 9, 40, 0
2, 20548, Note_on_c, 9, 38, 0
2, 20640, Note_on_c, 9, 35, 100
2, 20640, Note_on_c, 9, 36, 100
2, 20640, Note_on_c, 9, 38, 100
2, 20640, Note_on_c, 9, 40, 100
2, 20668, Note_on_c, 9, 40, 0
2, 20668, Note_on_c, 9, 35, 0
2, 20668, Note_on_c, 9, 36, 0
2, 20668, Note_on_c, 9, 38, 0
2, 20880, Note_on_c, 9, 38, 100
2, 20880, Note_on_c, 9, 40, 100
2, 20908, Note_on_c, 9, 40, 0
2, 20908, Note_on_c, 9, 38, 0
2, 21000, Note_on_c, 9, 38, 100
2, 21000, Note_on_c, 9, 40, 100
2, 21028, Note_on_c, 9, 40, 0
2, 21028, Note_on_c, 9, 38, 0
2, 21120, Note_on_c, 9, 35, 100
2, 21120, Note_on_c, 9, 36, 100
2, 21120, Note_on_c, 9, 38, 100
2, 21120, Note_on_c, 9, 40, 100
2, 21148, Note_on_c, 9, 40, 0
2, 21148, Note_on_c, 9, 35, 0
2, 21148, Note_on_c, 9, 36, 0
2, 21148, Note_on_c, 9, 38, 0
2, 21360, Note_on_c, 9, 38, 100
2, 21360, Note_on_c, 9, 40, 100
2, 21388, Note_on_c, 9, 40, 0
2, 21388, Note_on_c, 9, 38, 0
2, 21480, Note_on_c, 9, 38, 100
2, 21480, Note_on_c, 9, 40, 100
2, 21508, Note_on_c, 9, 40, 0
2, 21508, Note_on_c, 9, 38, 0
2, 21600, Note_on_c, 9, 35, 100
2, 21600, Note_on_c, 9, 36, 100
2, 21600, Note_on_c, 9, 38, 100
2, 21600, Note_on_c, 9, 40, 100
2, 21628, Note_on_c, 9, 40, 0
2, 21628, Note_on_c, 9, 35, 0
2, 21628, Note_on_c, 9, 36, 0
2, 21628, Note_on_c, 9, 38, 0
2, 21720, Note_on_c, 9, 38, 100
2, 21720, Note_on_c, 9, 40, 100
2, 21748, Note_on_c, 9, 40, 0
2, 21748, Note_on_c, 9, 38, 0
2, 21960, Note_on_c, 9, 38, 100
2, 21960, Note_on_c, 9, 40, 100
2, 21988, Note_on_c, 9, 40, 0
2, 21988, Note_on_c, 9, 38, 0
2, 22080, Note_on_c, 9, 35, 100
2, 22080, Note_on_c, 9, 36, 100
2, 22080, Note_on_c, 9, 38, 100
2, 22080, Note_on_c, 9, 40, 100
2, 22108, Note_on_c, 9, 40, 0
2, 22108, Note_on_c, 9, 35, 0
2, 22108, Note_on_c, 9, 36, 0
2, 22108, Note_on_c, 9, 38, 0
2, 22200, Note_on_c, 9, 38, 100
2, 22200, Note_on_c, 9, 40, 100
2, 22228, Note_on_c, 9, 40, 0
2, 22228, Note_on_c, 9, 38, 0
2, 22320, Note_on_c, 9, 38, 100
2, 22320, Note_on_c, 9, 40, 100
2, 22348, Note_on_c, 9, 40, 0
2, 22348, Note_on_c, 9, 38, 0
2, 22440, Note_on_c, 9, 38, 100
2, 22440, Note_on_c, 9, 40, 100
2, 22468, Note_on_c, 9, 40, 0
2, 22468, Note_on_c, 9, 38, 0
2, 22560, Note_on_c, 9, 35, 100
2, 22560, Note_on_c, 9, 36, 100
2, 22560, Note_on_c, 9, 38, 100
2, 22560, Note_on_c, 9, 40, 100
2, 22588, Note_on_c, 9, 40, 0
2, 22588, Note_on_c, 9, 35, 0
2, 22588, Note_on_c, 9, 36, 0
2, 22588, Note_on_c, 9, 38, 0
2, 22680, Note_on_c, 9, 38, 100
2, 22680, Note_on_c, 9, 40, 100
2, 22708, Note_on_c, 9, 40, 0
2, 22708, Note_on_c, 9, 38, 0
2, 22800, Note_on_c, 9, 38, 100
2, 22800, Note_on_c, 9, 40, 100
2, 22828, Note_on_c, 9, 40, 0
2, 22828, Note_on_c, 9, 38, 0
2, 22920, Note_on_c, 9, 38, 100
2, 22920, Note_on_c, 9, 40, 100
2, 22948, Note_on_c, 9, 40, 0
2, 22948, Note_on_c, 9, 38, 0
2, 23040, Note_on_c, 9, 35, 100
2, 23040, Note_on_c, 9, 36, 100
2, 23040, Note_on_c, 9, 40, 100
2, 23040, Note_on_c, 9, 38, 100
2, 23068, Note_on_c, 9, 38, 0
2, 23068, Note_on_c, 9, 35, 0
2, 23068, Note_on_c, 9, 36, 0
2, 23068, Note_on_c, 9, 40, 0
2, 23280, Note_on_c, 9, 40, 100
2, 23280, Note_on_c, 9, 38, 100
2, 23308, Note_on_c, 9, 38, 0
2, 23308, Note_on_c, 9, 40, 0
2, 23520, Note_on_c, 9, 35, 100
2, 23520, Note_on_c, 9, 36, 100
2, 23520, Note_on_c, 9, 40, 100
2, 23520, Note_on_c, 9, 38, 100
2, 23548, Note_on_c, 9, 38, 0
2, 23548, Note_on_c, 9, 35, 0
2, 23548, Note_on_c, 9, 36, 0
2, 23548, Note_on_c, 9, 40, 0
2, 23640, Note_on_c, 9, 40, 100
2, 23640, Note_on_c, 9, 38, 100
2, 23668, Note_on_c, 9, 38, 0
2, 23668, Note_on_c, 9, 40, 0
2, 24000, Note_on_c, 9, 35, 100
2, 24000, Note_on_c, 9, 36, 100
2, 24000, Note_on_c, 9, 38, 100
2, 24000, Note_on_c, 9, 40, 100
2, 24028, Note_on_c, 9, 40, 0
2, 24028, Note_on_c, 9, 35, 0
2, 24028, Note_on_c, 9, 36, 0
2, 24028, Note_on_c, 9, 38, 0
2, 24360, Note_on_c, 9, 38, 100
2, 24360, Note_on_c, 9, 40, 100
2, 24388, Note_on_c, 9, 40, 0
2, 24388, Note_on_c, 9, 38, 0
2, 24480, Note_on_c, 9, 35, 100
2, 24480, Note_on_c, 9, 36, 100
2, 24480, Note_on_c, 9, 38, 100
2, 24480, Note_on_c, 9, 40, 100
2, 24508, Note_on_c, 9, 40, 0
2, 24508, Note_on_c, 9, 35, 0
2, 24508, Note_on_c, 9, 36, 0
2, 24508, Note_on_c, 9, 38, 0
2, 24720, Note_on_c, 9, 38, 100
2, 24720, Note_on_c, 9, 40, 100
2, 24748, Note_on_c, 9, 40, 0
2, 24748, Note_on_c, 9, 38, 0
2, 24840, Note_on_c, 9, 38, 100
2, 24840, Note_on_c, 9, 40, 100
2, 24868, Note_on_c, 9, 40, 0
2, 24868, Note_on_c, 9, 38, 0
2, 24960, Note_on_c, 9, 35, 100
2, 24960, Note_on_c, 9, 36, 100
2, 24960, Note_on_c, 9, 38, 100
2, 24960, Note_on_c, 9, 40, 100
2, 24988, Note_on_c, 9, 40, 0
2, 24988, Note_on_c, 9, 35, 0
2, 24988, Note_on_c, 9, 36, 0
2, 24988, Note_on_c, 9, 38, 0
2, 25200, Note_on_c, 9, 38, 100
2, 25200, Note_on_c, 9, 40, 100
2, 25228, Note_on_c, 9, 40, 0
2, 25228, Note_on_c, 9, 38, 0
2, 25320, Note_on_c, 9, 38, 100
2, 25320, Note_on_c, 9, 40, 100
2, 25348, Note_on_c, 9, 40, 0
2, 25348, Note_on_c, 9, 38, 0
2, 25440, Note_on_c, 9, 35, 100
2, 25440, Note_on_c, 9, 36, 100
2, 25440, Note_on_c, 9, 38, 100
2, 25440, Note_on_c, 9, 40, 100
2, 25468, Note_on_c, 9, 40, 0
2, 25468, Note_on_c, 9, 35, 0
2, 25468, Note_on_c, 9, 36, 0
2, 25468, Note_on_c, 9, 38, 0
2, 25560, Note_on_c, 9, 38, 100
2, 25560, Note_on_c, 9, 40, 100
2, 25588, Note_on_c, 9, 40, 0
2, 25588, Note_on_c, 9, 38, 0
2, 25800, Note_on_c, 9, 38, 100
2, 25800, Note_on_c, 9, 40, 100
2, 25828, Note_on_c, 9, 40, 0
2, 25828, Note_on_c, 9, 38, 0
2, 25920, Note_on_c, 9, 35, 100
2, 25920, Note_on_c, 9, 36, 100
2, 25920, Note_on_c, 9, 38, 100
2, 25920, Note_on_c, 9, 40, 100
2, 25948, Note_on_c, 9, 40, 0
2, 25948, Note_on_c, 9, 35, 0
2, 25948, Note_on_c, 9, 36, 0
2, 25948, Note_on_c, 9, 38, 0
2, 26040, Note_on_c, 9, 38, 100
2, 26040, Note_on_c, 9, 40, 100
2, 26068, Note_on_c, 9, 40, 0
2, 26068, Note_on_c, 9, 38, 0
2, 26160, Note_on_c, 9, 38, 100
2, 26160, Note_on_c, 9, 40, 100
2, 26188, Note_on_c, 9, 40, 0
2, 26188, Note_on_c, 9, 38, 0
2, 26280, Note_on_c, 9, 38, 100
2, 26280, Note_on_c, 9, 40, 100
2, 26308, Note_on_c, 9, 40, 0
2, 26308, Note_on_c, 9, 38, 0
2, 26400, Note_on_c, 9, 35, 100
2, 26400, Note_on_c, 9, 36, 100
2, 26400, Note_on_c, 9, 38, 100
2, 26400, Note_on_c, 9, 40, 100
2, 26428, Note_on_c, 9, 40, 0
2, 26428, Note_on_c, 9, 35, 0
2, 26428, Note_on_c, 9, 36, 0
2, 26428, Note_on_c, 9, 38, 0
2, 26520, Note_on_c, 9, 38, 100
2, 26520, Note_on_c, 9, 40, 100
2, 26548, Note_on_c, 9, 40, 0
2, 26548, Note_on_c, 9, 38, 0
2, 26640, Note_on_c, 9, 38, 100
2, 26640, Note_on_c, 9, 40, 100
2, 26668, Note_on_c, 9, 40, 0
2, 26668, Note_on_c, 9, 38, 0
2, 26760, Note_on_c, 9, 38, 100
2, 26760, Note_on_c, 9, 40, 100
2, 26788, Note_on_c, 9, 40, 0
2, 26788, Note_on_c, 9, 38, 0
2, 26880, Note_on_c, 9, 35, 100
2, 26880, Note_on_c, 9, 36, 100
2, 26880, Note_on_c, 9, 40, 100
2, 26880, Note_on_c, 9, 38, 100
2, 26908, Note_on_c, 9, 38, 0
2, 26908, Note_on_c, 9, 35, 0
2, 26908, Note_on_c, 9, 36, 0
2, 26908, Note_on_c, 9, 40, 0
2, 27120, Note_on_c, 9, 40, 100
2, 27120, Note_on_c, 9, 38, 100
2, 27148, Note_on_c, 9, 38, 0
2, 27148, Note_on_c, 9, 40, 0
2, 27360, Note_on_c, 9, 35, 100
2, 27360, Note_on_c, 9, 36, 100
2, 27360, Note_on_c, 9, 40, 100
2, 27360, Note_on_c, 9, 38, 100
2, 27388, Note_on_c, 9, 38, 0
2, 27388, Note_on_c, 9, 35, 0
2, 27388, Note_on_c, 9, 36, 0
2, 27388, Note_on_c, 9, 40, 0
2, 27480, Note_on_c, 9, 40, 100
2, 27480, Note_on_c, 9, 38, 100
2, 27508, Note_on_c, 9, 38, 0
2, 27508, Note_on_c, 9, 40, 0
2, 27840, Note_on_c, 9, 35, 100
2, 27840, Note_on_c, 9, 36, 100
2, 27840, Note_on_c, 9, 38, 100
2, 27840, Note_on_c, 9, 40, 100
2, 27868, Note_on_c, 9, 40, 0
2, 27868, Note_on_c, 9, 35, 0
2, 27868, Note_on_c, 9, 36, 0
2, 27868, Note_on_c, 9, 38, 0
2, 28200, Note_on_c, 9, 38, 100
2, 28200, Note_on_c, 9, 40, 100
2, 28228, Note_on_c, 9, 40, 0
2, 28228, Note_on_c, 9, 38, 0
2, 28320, Note_on_c, 9, 35, 100
2, 28320, Note_on_c, 9, 36, 100
2, 28320, Note_on_c, 9, 38, 100
2, 28320, Note_on_c, 9, 40, 100
2, 28348, Note_on_c, 9, 40, 0
2, 28348, Note_on_c, 9, 35, 0
2, 28348, Note_on_c, 9, 36, 0
2, 28348, Note_on_c, 9, 38, 0
2, 28560, Note_on_c, 9, 38, 100
2, 28560, Note_on_c, 9, 40, 100
2, 28588, Note_on_c, 9, 40, 0
2, 28588, Note_on_c, 9, 38, 0
2, 28680, Note_on_c, 9, 38, 100
2, 28680, Note_on_c, 9, 40, 100
2, 28708, Note_on_c, 9, 40, 0
2, 28708, Note_on_c, 9, 38, 0
2, 28800, Note_on_c, 9, 35, 100
2, 28800, Note_on_c, 9, 36, 100
2, 28800, Note_on_c, 9, 38, 100
2, 28800, Note_on_c, 9, 40, 100
2, 28828, Note_on_c, 9, 40, 0
2, 28828, Note_on_c, 9, 35, 0
2, 28828, Note_on_c, 9, 36, 0
2, 28828, Note_on_c, 9, 38, 0
2, 29040, Note_on_c, 9, 38, 100
2, 29040, Note_on_c, 9, 40, 100
2, 29068, Note_on_c, 9, 40, 0
2, 29068, Note_on_c, 9, 38, 0
2, 29160, Note_on_c, 9, 38, 100
2, 29160, Note_on_c, 9, 40, 100
2, 29188, Note_on_c, 9, 40, 0
2, 29188, Note_on_c, 9, 38, 0
2, 29280, Note_on_c, 9, 35, 100
2, 29280, Note_on_c, 9, 36, 100
2, 29280, Note_on_c, 9, 38, 100
2, 29280, Note_on_c, 9, 40, 100
2, 29308, Note_on_c, 9, 40, 0
2, 29308, Note_on_c, 9, 35, 0
2, 29308, Note_on_c, 9, 36, 0
2, 29308, Note_on_c, 9, 38, 0
2, 29400, Note_on_c, 9, 38, 100
2, 29400, Note_on_c, 9, 40, 100
2, 29428, Note_on_c, 9, 40, 0
2, 29428, Note_on_c, 9, 38, 0
2, 29640, Note_on_c, 9, 38, 100
2, 29640, Note_on_c, 9, 40, 100
2, 29668, Note_on_c, 9, 40, 0
2, 29668, Note_on_c, 9, 38, 0
2, 29760, Note_on_c, 9, 35, 100
2, 29760, Note_on_c, 9, 36, 100
2, 29760, Note_on_c, 9, 38, 100
2, 29760, Note_on_c, 9, 40, 100
2, 29788, Note_on_c, 9, 40, 0
2, 29788, Note_on_c, 9, 35, 0
2, 29788, Note_on_c, 9, 36, 0
2, 29788, Note_on_c, 9, 38, 0
2, 29880, Note_on_c, 9, 38, 100
2, 29880, Note_on_c, 9, 40, 100
2, 29908, Note_on_c, 9, 40, 0
2, 29908, Note_on_c, 9, 38, 0
2, 30000, Note_on_c, 9, 38, 100
2, 30000, Note_on_c, 9, 40, 100
2, 30028, Note_on_c, 9, 40, 0
2, 30028, Note_on_c, 9, 38, 0
2, 30120, Note_on_c, 9, 38, 100
2, 30120, Note_on_c, 9, 40, 100
2, 30148, Note_on_c, 9, 40, 0
2, 30148, Note_on_c, 9, 38, 0
2, 30240, Note_on_c, 9, 35, 100
2, 30240, Note_on_c, 9, 36, 100
2, 30240, Note_on_c, 9, 38, 100
2, 30240, Note_on_c, 9, 40, 100
2, 30268, Note_on_c, 9, 40, 0
2, 30268, Note_on_c, 9, 35, 0
2, 30268, Note_on_c, 9, 36, 0
2, 30268, Note_on_c, 9, 38, 0
2, 30360, Note_on_c, 9, 38, 100
2, 30360, Note_on_c, 9, 40, 100
2, 30388, Note_on_c, 9, 40, 0
2, 30388, Note_on_c, 9, 38, 0
2, 30480, Note_on_c, 9, 38, 100
2, 30480, Note_on_c, 9, 40, 100
2, 30508, Note_on_c, 9, 40, 0
2, 30508, Note_on_c, 9, 38, 0
2, 30600, Note_on_c, 9, 38, 100
2, 30600, Note_on_c, 9, 40, 100
2, 30628, Note_on_c, 9, 40, 0
2, 30628, Note_on_c, 9, 38, 0
2, 30720, Note_on_c, 9, 35, 100
2, 30720, Note_on_c, 9, 36, 100
2, 30720, Note_on_c, 9, 40, 100
2, 30720, Note_on_c, 9, 38, 100
2, 30748, Note_on_c, 9, 38, 0
2, 30748, Note_on_c, 9, 35, 0
2, 30748, Note_on_c, 9, 36, 0
2, 30748, Note_on_c, 9, 40, 0
2, 30960, Note_on_c, 9, 40, 100
2, 30960, Note_on_c, 9, 38, 100
2, 30988, Note_on_c, 9, 38, 0
2, 30988, Note_on_c, 9, 40, 0
2, 31200, Note_on_c, 9, 35, 100
2, 31200, Note_on_c, 9, 36, 100
2, 31200, Note_on_c, 9, 40, 100
2, 31200, Note_on_c, 9, 38, 100
2, 31228, Note_on_c, 9, 38, 0
2, 31228, Note_on_c, 9, 35, 0
2, 31228, Note_on_c, 9, 36, 0
2, 31228, Note_on_c, 9, 40, 0
2, 31320, Note_on_c, 9, 40, 100
2, 31320, Note_on_c, 9, 38, 100
2, 31348, Note_on_c, 9, 38, 0
2, 31348, Note_on_c, 9, 40, 0
2, 31680, Note_on_c, 9, 35, 100
2, 31680, Note_on_c, 9, 36, 100
2, 31680, Note_on_c, 9, 38, 100
2, 31680, Note_on_c, 9, 40, 100
2, 31708, Note_on_c, 9, 40, 0
2, 31708, Note_on_c, 9, 35, 0
2, 31708, Note_on_c, 9, 36, 0
2, 31708, Note_on_c, 9, 38, 0
2, 32040, Note_on_c, 9, 38, 100
2, 32040, Note_on_c, 9, 40, 100
2, 32068, Note_on_c, 9, 40, 0
2, 32068, Note_on_c, 9, 38, 0
2, 32160, Note_on_c, 9, 35, 100
2, 32160, Note_on_c, 9, 36, 100
2, 32160, Note_on_c, 9, 38, 100
2, 32160, Note_on_c, 9, 40, 100
2, 32188, Note_on_c, 9, 40, 0
2, 32188, Note_on_c, 9, 35, 0
2, 32188, Note_on_c, 9, 36, 0
2, 32188, Note_on_c, 9, 38, 0
2, 32400, Note_on_c, 9, 38, 100
2, 32400, Note_on_c, 9, 40, 100
2, 32428, Note_on_c, 9, 40, 0
2, 32428, Note_on_c, 9, 38, 0
2, 32520, Note_on_c, 9, 38, 100
2, 32520, Note_on_c, 9, 40, 100
2, 32548, Note_on_c, 9, 40, 0
2, 32548, Note_on_c, 9, 38, 0
2, 32640, Note_on_c, 9, 35, 100
2, 32640, Note_on_c, 9, 36, 100
2, 32640, Note_on_c, 9, 38, 100
2, 32640, Note_on_c, 9, 40, 100
2, 32668, Note_on_c, 9, 40, 0
2, 32668, Note_on_c, 9, 35, 0
2, 32668, Note_on_c, 9, 36, 0
2, 32668, Note_on_c, 9, 38, 0
2, 32880, Note_on_c, 9, 38, 100
2, 32880, Note_on_c, 9, 40, 100
2, 32908, Note_on_c, 9, 40, 0
2, 32908, Note_on_c, 9, 38, 0
2, 33000, Note_on_c, 9, 38, 100
2, 33000, Note_on_c, 9, 40, 100
2, 33028, Note_on_c, 9, 40, 0
2, 33028, Note_on_c, 9, 38, 0
2, 33120, Note_on_c, 9, 35, 100
2, 33120, Note_on_c, 9, 36, 100
2, 33120, Note_on_c, 9, 38, 100
2, 33120, Note_on_c, 9, 40, 100
2, 33148, Note_on_c, 9, 40, 0
2, 33148, Note_on_c, 9, 35, 0
2, 33148, Note_on_c, 9, 36, 0
2, 33148, Note_on_c, 9, 38, 0
2, 33240, Note_on_c, 9, 38, 100
2, 33240, Note_on_c, 9, 40, 100
2, 33268, Note_on_c, 9, 40, 0
2, 33268, Note_on_c, 9, 38, 0
2, 33480, Note_on_c, 9, 38, 100
2, 33480, Note_on_c, 9, 40, 100
2, 33508, Note_on_c, 9, 40, 0
2, 33508, Note_on_c, 9, 38, 0
2, 33600, Note_on_c, 9, 35, 100
2, 33600, Note_on_c, 9, 36, 100
2, 33600, Note_on_c, 9, 38, 100
2, 33600, Note_on_c, 9, 40, 100
2, 33628, Note_on_c, 9, 40, 0
2, 33628, Note_on_c, 9, 35, 0
2, 33628, Note_on_c, 9, 36, 0
2, 33628, Note_on_c, 9, 38, 0
2, 33720, Note_on_c, 9, 38, 100
2, 33720, Note_on_c, 9, 40, 100
2, 33748, Note_on_c, 9, 40, 0
2, 33748, Note_on_c, 9, 38, 0
2, 33840, Note_on_c, 9, 38, 100
2, 33840, Note_on_c, 9, 40, 100
2, 33868, Note_on_c, 9, 40, 0
2, 33868, Note_on_c, 9, 38, 0
2, 33960, Note_on_c, 9, 38, 100
2, 33960, Note_on_c, 9, 40, 100
2, 33988, Note_on_c, 9, 40, 0
2, 33988, Note_on_c, 9, 38, 0
2, 34080, Note_on_c, 9, 35, 100
2, 34080, Note_on_c, 9, 36, 100
2, 34080, Note_on_c, 9, 38, 100
2, 34080, Note_on_c, 9, 40, 100
2, 34108, Note_on_c, 9, 40, 0
2, 34108, Note_on_c, 9, 35, 0
2, 34108, Note_on_c, 9, 36, 0
2, 34108, Note_on_c, 9, 38, 0
2, 34200, Note_on_c, 9, 38, 100
2, 34200, Note_on_c, 9, 40, 100
2, 34228, Note_on_c, 9, 40, 0
2, 34228, Note_on_c, 9, 38, 0
2, 34320, Note_on_c, 9, 38, 100
2, 34320, Note_on_c, 9, 40, 100
2, 34348, Note_on_c, 9, 40, 0
2, 34348, Note_on_c, 9, 38, 0
2, 34440, Note_on_c, 9, 38, 100
2, 34440, Note_on_c, 9, 40, 100
2, 34468, Note_on_c, 9, 40, 0
2, 34468, Note_on_c, 9, 38, 0
2, 34560, Note_on_c, 9, 35, 100
2, 34560, Note_on_c, 9, 36, 100
2, 34560, Note_on_c, 9, 40, 100
2, 34560, Note_on_c, 9, 38, 100
2, 34588, Note_on_c, 9, 38, 0
2, 34588, Note_on_c, 9, 35, 0
2, 34588, Note_on_c, 9, 36, 0
2, 34588, Note_on_c, 9, 40, 0
2, 34800, Note_on_c, 9, 40, 100
2, 34800, Note_on_c, 9, 38, 100
2, 34828, Note_on_c, 9, 38, 0
2, 34828, Note_on_c, 9, 40, 0
2, 35040, Note_on_c, 9, 35, 100
2, 35040, Note_on_c, 9, 36, 100
2, 35040, Note_on_c, 9, 40, 100
2, 35040, Note_on_c, 9, 38, 100
2, 35068, Note_on_c, 9, 38, 0
2, 35068, Note_on_c, 9, 35, 0
2, 35068, Note_on_c, 9, 36, 0
2, 35068, Note_on_c, 9, 40, 0
2, 35160, Note_on_c, 9, 40, 100
2, 35160, Note_on_c, 9, 38, 100
2, 35188, Note_on_c, 9, 38, 0
2, 35188, Note_on_c, 9, 40, 0
2, 35520, Note_on_c, 9, 35, 100
2, 35520, Note_on_c, 9, 36, 100
2, 35520, Note_on_c, 9, 38, 100
2, 35520, Note_on_c, 9, 40, 100
2, 35548, Note_on_c, 9, 40, 0
2, 35548, Note_on_c, 9, 35, 0
2, 35548, Note_on_c, 9, 36, 0
2, 35548, Note_on_c, 9, 38, 0
2, 35880, Note_on_c, 9, 38, 100
2, 35880, Note_on_c, 9, 40, 100
2, 35908, Note_on_c, 9, 40, 0
2, 35908, Note_on_c, 9, 38, 0
2, 36000, Note_on_c, 9, 35, 100
2, 36000, Note_on_c, 9, 36, 100
2, 36000, Note_on_c, 9, 38, 100
2, 36000, Note_on_c, 9, 40, 100
2, 36028, Note_on_c, 9, 40, 0
2, 36028, Note_on_c, 9, 35, 0
2, 36028, Note_on_c, 9, 36, 0
2, 36028, Note_on_c, 9, 38, 0
2, 36240, Note_on_c, 9, 38, 100
2, 36240, Note_on_c, 9, 40, 100
2, 36268, Note_on_c, 9, 40, 0
2, 36268, Note_on_c, 9, 38, 0
2, 36360, Note_on_c, 9, 38, 100
2, 36360, Note_on_c, 9, 40, 100
2, 36388, Note_on_c, 9, 40, 0
2, 36388, Note_on_c, 9, 38, 0
2, 36480, Note_on_c, 9, 35, 100
2, 36480, Note_on_c, 9, 36, 100
2, 36480, Note_on_c, 9, 38, 100
2, 36480, Note_on_c, 9, 40, 100
2, 36508, Note_on_c, 9, 40, 0
2, 36508, Note_on_c, 9, 35, 0
2, 36508, Note_on_c, 9, 36, 0
2, 36508, Note_on_c, 9, 38, 0
2, 36720, Note_on_c, 9, 38, 100
2, 36720, Note_on_c, 9, 40, 100
2, 36748, Note_on_c, 9, 40, 0
2, 36748, Note_on_c, 9, 38, 0
2, 36840, Note_on_c, 9, 38, 100
2, 36840, Note_on_c, 9, 40, 100
2, 36868, Note_on_c, 9, 40, 0
2, 36868, Note_on_c, 9, 38, 0
2, 36960, Note_on_c, 9, 35, 100
2, 36960, Note_on_c, 9, 36, 100
2, 36960, Note_on_c, 9, 38, 100
2, 36960, Note_on_c, 9, 40, 100
2, 36988, Note_on_c, 9, 40, 0
2, 36988, Note_on_c, 9, 35, 0
2, 36988, Note_on_c, 9, 36, 0
2, 36988, Note_on_c, 9, 38, 0
2, 37080, Note_on_c, 9, 38, 100
2, 37080, Note_on_c, 9, 40, 100
2, 37108, Note_on_c, 9, 40, 0
2, 37108, Note_on_c, 9, 38, 0
2, 37320, Note_on_c, 9, 38, 100
2, 37320, Note_on_c, 9, 40, 100
2, 37348, Note_on_c, 9, 40, 0
2, 37348, Note_on_c, 9, 38, 0
2, 37440, Note_on_c, 9, 35, 100
2, 37440, Note_on_c, 9, 36, 100
2, 37440, Note_on_c, 9, 38, 100
2, 37440, Note_on_c, 9, 40, 100
2, 37468, Note_on_c, 9, 40, 0
2, 37468, Note_on_c, 9, 35, 0
2, 37468, Note_on_c, 9, 36, 0
2, 37468, Note_on_c, 9, 38, 0
2, 37560, Note_on_c, 9, 38, 100
2, 37560, Note_on_c, 9, 40, 100
2, 37588, Note_on_c, 9, 40, 0
2, 37588, Note_on_c, 9, 38, 0
2, 37680, Note_on_c, 9, 38, 100
2, 37680, Note_on_c, 9, 40, 100
2, 37708, Note_on_c, 9, 40, 0
2, 37708, Note_on_c, 9, 38, 0
2, 37800, Note_on_c, 9, 38, 100
2, 37800, Note_on_c, 9, 40, 100
2, 37828, Note_on_c, 9, 40, 0
2, 37828, Note_on_c, 9, 38, 0
2, 37920, Note_on_c, 9, 35, 100
2, 37920, Note_on_c, 9, 36, 100
2, 37920, Note_on_c, 9, 38, 100
2, 37920, Note_on_c, 9, 40, 100
2, 37948, Note_on_c, 9, 40, 0
2, 37948, Note_on_c, 9, 35, 0
2, 37948, Note_on_c, 9, 36, 0
2, 37948, Note_on_c, 9, 38, 0
2, 38040, Note_on_c, 9, 38, 100
2, 38040, Note_on_c, 9, 40, 100
2, 38068, Note_on_c, 9, 40, 0
2, 38068, Note_on_c, 9, 38, 0
2, 38160, Note_on_c, 9, 38, 100
2, 38160, Note_on_c, 9, 40, 100
2, 38188, Note_on_c, 9, 40, 0
2, 38188, Note_on_c, 9, 38, 0
2, 38280, Note_on_c, 9, 38, 100
2, 38280, Note_on_c, 9, 40, 100
2, 38308, Note_on_c, 9, 40, 0
2, 38308, Note_on_c, 9, 38, 0
2, 38400, Note_on_c, 9, 35, 100
2, 38400, Note_on_c, 9, 36, 100
2, 38400, Note_on_c, 9, 40, 100
2, 38400, Note_on_c, 9, 38, 100
2, 38428, Note_on_c, 9, 38, 0
2, 38428, Note_on_c, 9, 35, 0
2, 38428, Note_on_c, 9, 36, 0
2, 38428, Note_on_c, 9, 40, 0
2, 38640, Note_on_c, 9, 40, 100
2, 38640, Note_on_c, 9, 38, 100
2, 38668, Note_on_c, 9, 38, 0
2, 38668, Note_on_c, 9, 40, 0
2, 38880, Note_on_c, 9, 35, 100
2, 38880, Note_on_c, 9, 36, 100
2, 38880, Note_on_c, 9, 40, 100
2, 38880, Note_on_c, 9, 38, 100
2, 38908, Note_on_c, 9, 38, 0
2, 38908, Note_on_c, 9, 35, 0
2, 38908, Note_on_c, 9, 36, 0
2, 38908, Note_on_c, 9, 40, 0
2, 39000, Note_on_c, 9, 40, 100
2, 39000, Note_on_c, 9, 38, 100
2, 39028, Note_on_c, 9, 38, 0
2, 39028, Note_on_c, 9, 40, 0
2, 39360, Note_on_c, 9, 35, 100
2, 39360, Note_on_c, 9, 36, 100
2, 39360, Note_on_c, 9, 38, 100
2, 39360, Note_on_c, 9, 40, 100
2, 39388, Note_on_c, 9, 40, 0
2, 39388, Note_on_c, 9, 35, 0
2, 39388, Note_on_c, 9, 36, 0
2, 39388, Note_on_c, 9, 38, 0
2, 39720, Note_on_c, 9, 38, 100
2, 39720, Note_on_c, 9, 40, 100
2, 39748, Note_on_c, 9, 40, 0
2, 39748, Note_on_c, 9, 38, 0
2, 39840, Note_on_c, 9, 35, 100
2, 39840, Note_on_c, 9, 36, 100
2, 39840, Note_on_c, 9, 38, 100
2, 39840, Note_on_c, 9, 40, 100
2, 39868, Note_on_c, 9, 40, 0
2, 39868, Note_on_c, 9, 35, 0
2, 39868, Note_on_c, 9, 36, 0
2, 39868, Note_on_c, 9, 38, 0
2, 40080, Note_on_c, 9, 38, 100
2, 40080, Note_on_c, 9, 40, 100
2, 40108, Note_on_c, 9, 40, 0
2, 40108, Note_on_c, 9, 38, 0
2, 40200, Note_on_c, 9, 38, 100
2, 40200, Note_on_c, 9, 40, 100
2, 40228, Note_on_c, 9, 40, 0
2, 40228, Note_on_c, 9, 38, 0
2, 40320, Note_on_c, 9, 35, 100
2, 40320, Note_on_c, 9, 36, 100
2, 40320, Note_on_c, 9, 38, 100
2, 40320, Note_on_c, 9, 40, 100
2, 40348, Note_on_c, 9, 40, 0
2, 40348, Note_on_c, 9, 35, 0
2, 40348, Note_on_c, 9, 36, 0
2, 40348, Note_on_c, 9, 38, 0
2, 40560, Note_on_c, 9, 38, 100
2, 40560, Note_on_c, 9, 40, 100
2, 40588, Note_on_c, 9, 40, 0
2, 40588, Note_on_c, 9, 38, 0
2, 40680, Note_on_c, 9, 38, 100
2, 40680, Note_on_c, 9, 40, 100
2, 40708, Note_on_c, 9, 40, 0
2, 40708, Note_on_c, 9, 38, 0
2, 40800, Note_on_c, 9, 35, 100
2, 40800, Note_on_c, 9, 36, 100
2, 40800, Note_on_c, 9, 38, 100
2, 40800, Note_on_c, 9, 40, 100
2, 40828, Note_on_c, 9, 40, 0
2, 40828, Note_on_c, 9, 35, 0
2, 40828, Note_on_c, 9, 36, 0
2, 40828, Note_on_c, 9, 38, 0
2, 40920, Note_on_c, 9, 38, 100
2, 40920, Note_on_c, 9, 40, 100
2, 40948, Note_on_c, 9, 40, 0
2, 40948, Note_on_c, 9, 38, 0
2, 41160, Note_on_c, 9, 38, 100
2, 41160, Note_on_c, 9, 40, 100
2, 41188, Note_on_c, 9, 40, 0
2, 41188, Note_on_c, 9, 38, 0
2, 41280, Note_on_c, 9, 35, 100
2, 41280, Note_on_c, 9, 36, 100
2, 41280, Note_on_c, 9, 38, 100
2, 41280, Note_on_c, 9, 40, 100
2, 41308, Note_on_c, 9, 40, 0
2, 41308, Note_on_c, 9, 35, 0
2, 41308, Note_on_c, 9, 36, 0
2, 41308, Note_on_c, 9, 38, 0
2, 41400, Note_on_c, 9, 38, 100
2, 41400, Note_on_c, 9, 40, 100
2, 41428, Note_on_c, 9, 40, 0
2, 41428, Note_on_c, 9, 38, 0
2, 41520, Note_on_c, 9, 38, 100
2, 41520, Note_on_c, 9, 40, 100
2, 41548, Note_on_c, 9, 40, 0
2, 41548, Note_on_c, 9, 38, 0
2, 41640, Note_on_c, 9, 38, 100
2, 41640, Note_on_c, 9, 40, 100
2, 41668, Note_on_c, 9, 40, 0
2, 41668, Note_on_c, 9, 38, 0
2, 41760, Note_on_c, 9, 35, 100
2, 41760, Note_on_c, 9, 36, 100
2, 41760, Note_on_c, 9, 38, 100
2, 41760, Note_on_c, 9, 40, 100
2, 41788, Note_on_c, 9, 40, 0
2, 41788, Note_on_c, 9, 35, 0
2, 41788, Note_on_c, 9, 36, 0
2, 41788, Note_on_c, 9, 38, 0
2, 41880, Note_on_c, 9, 38, 100
2, 41880, Note_on_c, 9, 40, 100
2, 41908, Note_on_c, 9, 40, 0
2, 41908, Note_on_c, 9, 38, 0
2, 42000, Note_on_c, 9, 38, 100
2, 42000, Note_on_c, 9, 40, 100
2, 42028, Note_on_c, 9, 40, 0
2, 42028, Note_on_c, 9, 38, 0
2, 42120, Note_on_c, 9, 38, 100
2, 42120, Note_on_c, 9, 40, 100
2, 42148, Note_on_c, 9, 40, 0
2, 42148, Note_on_c, 9, 38, 0
2, 42240, Note_on_c, 9, 35, 100
2, 42240, Note_on_c, 9, 36, 100
2, 42240, Note_on_c, 9, 40, 100
2, 42240, Note_on_c, 9, 38, 100
2, 42240, Control_c, 9, 7, 62
2, 42268, Note_on_c, 9, 38, 0
2, 42268, Note_on_c, 9, 35, 0
2, 42268, Note_on_c, 9, 36, 0
2, 42268, Note_on_c, 9, 40, 0
2, 42480, Note_on_c, 9, 40, 100
2, 42480, Note_on_c, 9, 38, 100
2, 42508, Note_on_c, 9, 38, 0
2, 42508, Note_on_c, 9, 40, 0
2, 42720, Note_on_c, 9, 35, 100
2, 42720, Note_on_c, 9, 36, 100
2, 42720, Note_on_c, 9, 40, 100
2, 42720, Note_on_c, 9, 38, 100
2, 42748, Note_on_c, 9, 38, 0
2, 42748, Note_on_c, 9, 35, 0
2, 42748, Note_on_c, 9, 36, 0
2, 42748, Note_on_c, 9, 40, 0
2, 42840, Note_on_c, 9, 40, 100
2, 42840, Note_on_c, 9, 38, 100
2, 42868, Note_on_c, 9, 38, 0
2, 42868, Note_on_c, 9, 40, 0
2, 43200, Note_on_c, 9, 35, 100
2, 43200, Note_on_c, 9, 36, 100
2, 43200, Note_on_c, 9, 38, 100
2, 43200, Note_on_c, 9, 40, 100
2, 43228, Note_on_c, 9, 40, 0
2, 43228, Note_on_c, 9, 35, 0
2, 43228, Note_on_c, 9, 36, 0
2, 43228, Note_on_c, 9, 38, 0
2, 43560, Note_on_c, 9, 38, 100
2, 43560, Note_on_c, 9, 40, 100
2, 43588, Note_on_c, 9, 40, 0
2, 43588, Note_on_c, 9, 38, 0
2, 43680, Note_on_c, 9, 35, 100
2, 43680, Note_on_c, 9, 36, 100
2, 43680, Note_on_c, 9, 38, 100
2, 43680, Note_on_c, 9, 40, 100
2, 43708, Note_on_c, 9, 40, 0
2, 43708, Note_on_c, 9, 35, 0
2, 43708, Note_on_c, 9, 36, 0
2, 43708, Note_on_c, 9, 38, 0
2, 43920, Note_on_c, 9, 38, 100
2, 43920, Note_on_c, 9, 40, 100
2, 43948, Note_on_c, 9, 40, 0
2, 43948, Note_on_c, 9, 38, 0
2, 44040, Note_on_c, 9, 38, 100
2, 44040, Note_on_c, 9, 40, 100
2, 44068, Note_on_c, 9, 40, 0
2, 44068, Note_on_c, 9, 38, 0
2, 44160, Note_on_c, 9, 35, 100
2, 44160, Note_on_c, 9, 36, 100
2, 44160, Note_on_c, 9, 38, 100
2, 44160, Note_on_c, 9, 40, 100
2, 44188, Note_on_c, 9, 40, 0
2, 44188, Note_on_c, 9, 35, 0
2, 44188, Note_on_c, 9, 36, 0
2, 44188, Note_on_c, 9, 38, 0
2, 44400, Note_on_c, 9, 38, 100
2, 44400, Note_on_c, 9, 40, 100
2, 44428, Note_on_c, 9, 40, 0
2, 44428, Note_on_c, 9, 38, 0
2, 44520, Note_on_c, 9, 38, 100
2, 44520, Note_on_c, 9, 40, 100
2, 44548, Note_on_c, 9, 40, 0
2, 44548, Note_on_c, 9, 38, 0
2, 44640, Note_on_c, 9, 35, 100
2, 44640, Note_on_c, 9, 36, 100
2, 44640, Note_on_c, 9, 38, 100
2, 44640, Note_on_c, 9, 40, 100
2, 44668, Note_on_c, 9, 40, 0
2, 44668, Note_on_c, 9, 35, 0
2, 44668, Note_on_c, 9, 36, 0
2, 44668, Note_on_c, 9, 38, 0
2, 44760, Note_on_c, 9, 38, 100
2, 44760, Note_on_c, 9, 40, 100
2, 44788, Note_on_c, 9, 40, 0
2, 44788, Note_on_c, 9, 38, 0
2, 45000, Note_on_c, 9, 38, 100
2, 45000, Note_on_c, 9, 40, 100
2, 45028, Note_on_c, 9, 40, 0
2, 45028, Note_on_c, 9, 38, 0
2, 45120, Note_on_c, 9, 35, 100
2, 45120, Note_on_c, 9, 36, 100
2, 45120, Note_on_c, 9, 38, 100
2, 45120, Note_on_c, 9, 40, 100
2, 45148, Note_on_c, 9, 40, 0
2, 45148, Note_on_c, 9, 35, 0
2, 45148, Note_on_c, 9, 36, 0
2, 45148, Note_on_c, 9, 38, 0
2, 45240, Note_on_c, 9, 38, 100
2, 45240, Note_on_c, 9, 40, 100
2, 45268, Note_on_c, 9, 40, 0
2, 45268, Note_on_c, 9, 38, 0
2, 45360, Note_on_c, 9, 38, 100
2, 45360, Note_on_c, 9, 40, 100
2, 45388, Note_on_c, 9, 40, 0
2, 45388, Note_on_c, 9, 38, 0
2, 45480, Note_on_c, 9, 38, 100
2, 45480, Note_on_c, 9, 40, 100
2, 45508, Note_on_c, 9, 40, 0
2, 45508, Note_on_c, 9, 38, 0
2, 45600, Note_on_c, 9, 35, 100
2, 45600, Note_on_c, 9, 36, 100
2, 45600, Note_on_c, 9, 38, 100
2, 45600, Note_on_c, 9, 40, 100
2, 45628, Note_on_c, 9, 40, 0
2, 45628, Note_on_c, 9, 35, 0
2, 45628, Note_on_c, 9, 36, 0
2, 45628, Note_on_c, 9, 38, 0
2, 45720, Note_on_c, 9, 38, 100
2, 45720, Note_on_c, 9, 40, 100
2, 45748, Note_on_c, 9, 40, 0
2, 45748, Note_on_c, 9, 38, 0
2, 45840, Note_on_c, 9, 38, 100
2, 45840, Note_on_c, 9, 40, 100
2, 45868, Note_on_c, 9, 40, 0
2, 45868, Note_on_c, 9, 38, 0
2, 45960, Note_on_c, 9, 38, 100
2, 45960, Note_on_c, 9, 40, 100
2, 45988, Note_on_c, 9, 40, 0
2, 45988, Note_on_c, 9, 38, 0
2, 46080, Note_on_c, 9, 35, 100
2, 46080, Note_on_c, 9, 36, 100
2, 46080, Note_on_c, 9, 40, 100
2, 46080, Note_on_c, 9, 38, 100
2, 46108, Note_on_c, 9, 38, 0
2, 46108, Note_on_c, 9, 35, 0
2, 46108, Note_on_c, 9, 36, 0
2, 46108, Note_on_c, 9, 40, 0
2, 46320, Note_on_c, 9, 40, 100
2, 46320, Note_on_c, 9, 38, 100
2, 46348, Note_on_c, 9, 38, 0
2, 46348, Note_on_c, 9, 40, 0
2, 46560, Note_on_c, 9, 35, 100
2, 46560, Note_on_c, 9, 36, 100
2, 46560, Note_on_c, 9, 40, 100
2, 46560, Note_on_c, 9, 38, 100
2, 46588, Note_on_c, 9, 38, 0
2, 46588, Note_on_c, 9, 35, 0
2, 46588, Note_on_c, 9, 36, 0
2, 46588, Note_on_c, 9, 40, 0
2, 46680, Note_on_c, 9, 40, 100
2, 46680, Note_on_c, 9, 38, 100
2, 46708, Note_on_c, 9, 38, 0
2, 46708, Note_on_c, 9, 40, 0
2, 47040, Note_on_c, 9, 35, 100
2, 47040, Note_on_c, 9, 36, 100
2, 47040, Note_on_c, 9, 38, 100
2, 47040, Note_on_c, 9, 40, 100
2, 47068, Note_on_c, 9, 40, 0
2, 47068, Note_on_c, 9, 35, 0
2, 47068, Note_on_c, 9, 36, 0
2, 47068, Note_on_c, 9, 38, 0
2, 47400, Note_on_c, 9, 38, 100
2, 47400, Note_on_c, 9, 40, 100
2, 47428, Note_on_c, 9, 40, 0
2, 47428, Note_on_c, 9, 38, 0
2, 47520, Note_on_c, 9, 35, 100
2, 47520, Note_on_c, 9, 36, 100
2, 47520, Note_on_c, 9, 38, 100
2, 47520, Note_on_c, 9, 40, 100
2, 47548, Note_on_c, 9, 40, 0
2, 47548, Note_on_c, 9, 35, 0
2, 47548, Note_on_c, 9, 36, 0
2, 47548, Note_on_c, 9, 38, 0
2, 47760, Note_on_c, 9, 38, 100
2, 47760, Note_on_c, 9, 40, 100
2, 47788, Note_on_c, 9, 40, 0
2, 47788, Note_on_c, 9, 38, 0
2, 47880, Note_on_c, 9, 38, 100
2, 47880, Note_on_c, 9, 40, 100
2, 47908, Note_on_c, 9, 40, 0
2, 47908, Note_on_c, 9, 38, 0
2, 48000, Note_on_c, 9, 35, 100
2, 48000, Note_on_c, 9, 36, 100
2, 48000, Note_on_c, 9, 38, 100
2, 48000, Note_on_c, 9, 40, 100
2, 48028, Note_on_c, 9, 40, 0
2, 48028, Note_on_c, 9, 35, 0
2, 48028, Note_on_c, 9, 36, 0
2, 48028, Note_on_c, 9, 38, 0
2, 48240, Note_on_c, 9, 38, 100
2, 48240, Note_on_c, 9, 40, 100
2, 48268, Note_on_c, 9, 40, 0
2, 48268, Note_on_c, 9, 38, 0
2, 48360, Note_on_c, 9, 38, 100
2, 48360, Note_on_c, 9, 40, 100
2, 48388, Note_on_c, 9, 40, 0
2, 48388, Note_on_c, 9, 38, 0
2, 48480, Note_on_c, 9, 35, 100
2, 48480, Note_on_c, 9, 36, 100
2, 48480, Note_on_c, 9, 38, 100
2, 48480, Note_on_c, 9, 40, 100
2, 48508, Note_on_c, 9, 40, 0
2, 48508, Note_on_c, 9, 35, 0
2, 48508, Note_on_c, 9, 36, 0
2, 48508, Note_on_c, 9, 38, 0
2, 48600, Note_on_c, 9, 38, 100
2, 48600, Note_on_c, 9, 40, 100
2, 48628, Note_on_c, 9, 40, 0
2, 48628, Note_on_c, 9, 38, 0
2, 48840, Note_on_c, 9, 38, 100
2, 48840, Note_on_c, 9, 40, 100
2, 48868, Note_on_c, 9, 40, 0
2, 48868, Note_on_c, 9, 38, 0
2, 48960, Note_on_c, 9, 35, 100
2, 48960, Note_on_c, 9, 36, 100
2, 48960, Note_on_c, 9, 38, 100
2, 48960, Note_on_c, 9, 40, 100
2, 48988, Note_on_c, 9, 40, 0
2, 48988, Note_on_c, 9, 35, 0
2, 48988, Note_on_c, 9, 36, 0
2, 48988, Note_on_c, 9, 38, 0
2, 49080, Note_on_c, 9, 38, 100
2, 49080, Note_on_c, 9, 40, 100
2, 49108, Note_on_c, 9, 40, 0
2, 49108, Note_on_c, 9, 38, 0
2, 49200, Note_on_c, 9, 38, 100
2, 49200, Note_on_c, 9, 40, 100
2, 49228, Note_on_c, 9, 40, 0
2, 49228, Note_on_c, 9, 38, 0
2, 49320, Note_on_c, 9, 38, 100
2, 49320, Note_on_c, 9, 40, 100
2, 49348, Note_on_c, 9, 40, 0
2, 49348, Note_on_c, 9, 38, 0
2, 49440, Note_on_c, 9, 35, 100
2, 49440, Note_on_c, 9, 36, 100
2, 49440, Note_on_c, 9, 38, 100
2, 49440, Note_on_c, 9, 40, 100
2, 49468, Note_on_c, 9, 40, 0
2, 49468, Note_on_c, 9, 35, 0
2, 49468, Note_on_c, 9, 36, 0
2, 49468, Note_on_c, 9, 38, 0
2, 49560, Note_on_c, 9, 38, 100
2, 49560, Note_on_c, 9, 40, 100
2, 49588, Note_on_c, 9, 40, 0
2, 49588, Note_on_c, 9, 38, 0
2, 49680, Note_on_c, 9, 38, 100
2, 49680, Note_on_c, 9, 40, 100
2, 49708, Note_on_c, 9, 40, 0
2, 49708, Note_on_c, 9, 38, 0
2, 49800, Note_on_c, 9, 38, 100
2, 49800, Note_on_c, 9, 40, 100
2, 49828, Note_on_c, 9, 40, 0
2, 49828, Note_on_c, 9, 38, 0
2, 49920, Note_on_c, 9, 35, 100
2, 49920, Note_on_c, 9, 36, 100
2, 49920, Note_on_c, 9, 40, 100
2, 49920, Note_on_c, 9, 38, 100
2, 49948, Note_on_c, 9, 38, 0
2, 49948, Note_on_c, 9, 35, 0
2, 49948, Note_on_c, 9, 36, 0
2, 49948, Note_on_c, 9, 40, 0
2, 50160, Note_on_c, 9, 40, 100
2, 50160, Note_on_c, 9, 38, 100
2, 50188, Note_on_c, 9, 38, 0
2, 50188, Note_on_c, 9, 40, 0
2, 50400, Note_on_c, 9, 35, 100
2, 50400, Note_on_c, 9, 36, 100
2, 50400, Note_on_c, 9, 40, 100
2, 50400, Note_on_c, 9, 38, 100
2, 50428, Note_on_c, 9, 38, 0
2, 50428, Note_on_c, 9, 35, 0
2, 50428, Note_on_c, 9, 36, 0
2, 50428, Note_on_c, 9, 40, 0
2, 50520, Note_on_c, 9, 40, 100
2, 50520, Note_on_c, 9, 38, 100
2, 50548, Note_on_c, 9, 38, 0
2, 50548, Note_on_c, 9, 40, 0
2, 50880, Note_on_c, 9, 35, 100
2, 50880, Note_on_c, 9, 36, 100
2, 50880, Note_on_c, 9, 38, 100
2, 50880, Note_on_c, 9, 40, 100
2, 50908, Note_on_c, 9, 40, 0
2, 50908, Note_on_c, 9, 35, 0
2, 50908, Note_on_c, 9, 36, 0
2, 50908, Note_on_c, 9, 38, 0
2, 51240, Note_on_c, 9, 38, 100
2, 51240, Note_on_c, 9, 40, 100
2, 51268, Note_on_c, 9, 40, 0
2, 51268, Note_on_c, 9, 38, 0
2, 51360, Note_on_c, 9, 35, 100
2, 51360, Note_on_c, 9, 36, 100
2, 51360, Note_on_c, 9, 38, 100
2, 51360, Note_on_c, 9, 40, 100
2, 51388, Note_on_c, 9, 40, 0
2, 51388, Note_on_c, 9, 35, 0
2, 51388, Note_on_c, 9, 36, 0
2, 51388, Note_on_c, 9, 38, 0
2, 51600, Note_on_c, 9, 38, 100
2, 51600, Note_on_c, 9, 40, 100
2, 51628, Note_on_c, 9, 40, 0
2, 51628, Note_on_c, 9, 38, 0
2, 51720, Note_on_c, 9, 38, 100
2, 51720, Note_on_c, 9, 40, 100
2, 51748, Note_on_c, 9, 40, 0
2, 51748, Note_on_c, 9, 38, 0
2, 51840, Note_on_c, 9, 35, 100
2, 51840, Note_on_c, 9, 36, 100
2, 51840, Note_on_c, 9, 38, 100
2, 51840, Note_on_c, 9, 40, 100
2, 51868, Note_on_c, 9, 40, 0
2, 51868, Note_on_c, 9, 35, 0
2, 51868, Note_on_c, 9, 36, 0
2, 51868, Note_on_c, 9, 38, 0
2, 52080, Note_on_c, 9, 38, 100
2, 52080, Note_on_c, 9, 40, 100
2, 52108, Note_on_c, 9, 40, 0
2, 52108, Note_on_c, 9, 38, 0
2, 52200, Note_on_c, 9, 38, 100
2, 52200, Note_on_c, 9, 40, 100
2, 52228, Note_on_c, 9, 40, 0
2, 52228, Note_on_c, 9, 38, 0
2, 52320, Note_on_c, 9, 35, 100
2, 52320, Note_on_c, 9, 36, 100
2, 52320, Note_on_c, 9, 38, 100
2, 52320, Note_on_c, 9, 40, 100
2, 52348, Note_on_c, 9, 40, 0
2, 52348, Note_on_c, 9, 35, 0
2, 52348, Note_on_c, 9, 36, 0
2, 52348, Note_on_c, 9, 38, 0
2, 52440, Note_on_c, 9, 38, 100
2, 52440, Note_on_c, 9, 40, 100
2, 52468, Note_on_c, 9, 40, 0
2, 52468, Note_on_c, 9, 38, 0
2, 52680, Note_on_c, 9, 38, 100
2, 52680, Note_on_c, 9, 40, 100
2, 52708, Note_on_c, 9, 40, 0
2, 52708, Note_on_c, 9, 38, 0
2, 52800, Note_on_c, 9, 35, 100
2, 52800, Note_on_c, 9, 36, 100
2, 52800, Note_on_c, 9, 38, 100
2, 52800, Note_on_c, 9, 40, 100
2, 52828, Note_on_c, 9, 40, 0
2, 52828, Note_on_c, 9, 35, 0
2, 52828, Note_on_c, 9, 36, 0
2, 52828, Note_on_c, 9, 38, 0
2, 52920, Note_on_c, 9, 38, 100
2, 52920, Note_on_c, 9, 40, 100
2, 52948, Note_on_c, 9, 40, 0
2, 52948, Note_on_c, 9, 38, 0
2, 53040, Note_on_c, 9, 38, 100
2, 53040, Note_on_c, 9, 40, 100
2, 53068, Note_on_c, 9, 40, 0
2, 53068, Note_on_c, 9, 38, 0
2, 53160, Note_on_c, 9, 38, 100
2, 53160, Note_on_c, 9, 40, 100
2, 53188, Note_on_c, 9, 40, 0
2, 53188, Note_on_c, 9, 38, 0
2, 53280, Note_on_c, 9, 35, 100
2, 53280, Note_on_c, 9, 36, 100
2, 53280, Note_on_c, 9, 38, 100
2, 53280, Note_on_c, 9, 40, 100
2, 53308, Note_on_c, 9, 40, 0
2, 53308, Note_on_c, 9, 35, 0
2, 53308, Note_on_c, 9, 36, 0
2, 53308, Note_on_c, 9, 38, 0
2, 53400, Note_on_c, 9, 38, 100
2, 53400, Note_on_c, 9, 40, 100
2, 53428, Note_on_c, 9, 40, 0
2, 53428, Note_on_c, 9, 38, 0
2, 53520, Note_on_c, 9, 38, 100
2, 53520, Note_on_c, 9, 40, 100
2, 53548, Note_on_c, 9, 40, 0
2, 53548, Note_on_c, 9, 38, 0
2, 53640, Note_on_c, 9, 38, 100
2, 53640, Note_on_c, 9, 40, 100
2, 53668, Note_on_c, 9, 40, 0
2, 53668, Note_on_c, 9, 38, 0
2, 53760, Note_on_c, 9, 35, 100
2, 53760, Note_on_c, 9, 36, 100
2, 53760, Note_on_c, 9, 40, 100
2, 53760, Note_on_c, 9, 38, 100
2, 53788, Note_on_c, 9, 38, 0
2, 53788, Note_on_c, 9, 35, 0
2, 53788, Note_on_c, 9, 36, 0
2, 53788, Note_on_c, 9, 40, 0
2, 54000, Note_on_c, 9, 40, 100
2, 54000, Note_on_c, 9, 38, 100
2, 54028, Note_on_c, 9, 38, 0
2, 54028, Note_on_c, 9, 40, 0
2, 54240, Note_on_c, 9, 35, 100
2, 54240, Note_on_c, 9, 36, 100
2, 54240, Note_on_c, 9, 40, 100
2, 54240, Note_on_c, 9, 38, 100
2, 54268, Note_on_c, 9, 38, 0
2, 54268, Note_on_c, 9, 35, 0
2, 54268, Note_on_c, 9, 36, 0
2, 54268, Note_on_c, 9, 40, 0
2, 54360, Note_on_c, 9, 40, 100
2, 54360, Note_on_c, 9, 38, 100
2, 54388, Note_on_c, 9, 38, 0
2, 54388, Note_on_c, 9, 40, 0
2, 54720, Note_on_c, 9, 35, 100
2, 54720, Note_on_c, 9, 36, 100
2, 54720, Note_on_c, 9, 38, 100
2, 54720, Note_on_c, 9, 40, 100
2, 54748, Note_on_c, 9, 40, 0
2, 54748, Note_on_c, 9, 35, 0
2, 54748, Note_on_c, 9, 36, 0
2, 54748, Note_on_c, 9, 38, 0
2, 55080, Note_on_c, 9, 38, 100
2, 55080, Note_on_c, 9, 40, 100
2, 55108, Note_on_c, 9, 40, 0
2, 55108, Note_on_c, 9, 38, 0
2, 55200, Note_on_c, 9, 35, 100
2, 55200, Note_on_c, 9, 36, 100
2, 55200, Note_on_c, 9, 38, 100
2, 55200, Note_on_c, 9, 40, 100
2, 55228, Note_on_c, 9, 40, 0
2, 55228, Note_on_c, 9, 35, 0
2, 55228, Note_on_c, 9, 36, 0
2, 55228, Note_on_c, 9, 38, 0
2, 55440, Note_on_c, 9, 38, 100
2, 55440, Note_on_c, 9, 40, 100
2, 55468, Note_on_c, 9, 40, 0
2, 55468, Note_on_c, 9, 38, 0
2, 55560, Note_on_c, 9, 38, 100
2, 55560, Note_on_c, 9, 40, 100
2, 55588, Note_on_c, 9, 40, 0
2, 55588, Note_on_c, 9, 38, 0
2, 55680, Note_on_c, 9, 35, 100
2, 55680, Note_on_c, 9, 36, 100
2, 55680, Note_on_c, 9, 38, 100
2, 55680, Note_on_c, 9, 40, 100
2, 55708, Note_on_c, 9, 40, 0
2, 55708, Note_on_c, 9, 35, 0
2, 55708, Note_on_c, 9, 36, 0
2, 55708, Note_on_c, 9, 38, 0
2, 55920, Note_on_c, 9, 38, 100
2, 55920, Note_on_c, 9, 40, 100
2, 55948, Note_on_c, 9, 40, 0
2, 55948, Note_on_c, 9, 38, 0
2, 56040, Note_on_c, 9, 38, 100
2, 56040, Note_on_c, 9, 40, 100
2, 56068, Note_on_c, 9, 40, 0
2, 56068, Note_on_c, 9, 38, 0
2, 56160, Note_on_c, 9, 35, 100
2, 56160, Note_on_c, 9, 36, 100
2, 56160, Note_on_c, 9, 38, 100
2, 56160, Note_on_c, 9, 40, 100
2, 56188, Note_on_c, 9, 40, 0
2, 56188, Note_on_c, 9, 35, 0
2, 56188, Note_on_c, 9, 36, 0
2, 56188, Note_on_c, 9, 38, 0
2, 56280, Note_on_c, 9, 38, 100
2, 56280, Note_on_c, 9, 40, 100
2, 56308, Note_on_c, 9, 40, 0
2, 56308, Note_on_c, 9, 38, 0
2, 56520, Note_on_c, 9, 38, 100
2, 56520, Note_on_c, 9, 40, 100
2, 56548, Note_on_c, 9, 40, 0
2, 56548, Note_on_c, 9, 38, 0
2, 56640, Note_on_c, 9, 35, 100
2, 56640, Note_on_c, 9, 36, 100
2, 56640, Note_on_c, 9, 38, 100
2, 56640, Note_on_c, 9, 40, 100
2, 56668, Note_on_c, 9, 40, 0
2, 56668, Note_on_c, 9, 35, 0
2, 56668, Note_on_c, 9, 36, 0
2, 56668, Note_on_c, 9, 38, 0
2, 56760, Note_on_c, 9, 38, 100
2, 56760, Note_on_c, 9, 40, 100
2, 56788, Note_on_c, 9, 40, 0
2, 56788, Note_on_c, 9, 38, 0
2, 56880, Note_on_c, 9, 38, 100
2, 56880, Note_on_c, 9, 40, 100
2, 56908, Note_on_c, 9, 40, 0
2, 56908, Note_on_c, 9, 38, 0
2, 57000, Note_on_c, 9, 38, 100
2, 57000, Note_on_c, 9, 40, 100
2, 57028, Note_on_c, 9, 40, 0
2, 57028, Note_on_c, 9, 38, 0
2, 57120, Note_on_c, 9, 35, 100
2, 57120, Note_on_c, 9, 36, 100
2, 57120, Note_on_c, 9, 38, 100
2, 57120, Note_on_c, 9, 40, 100
2, 57148, Note_on_c, 9, 40, 0
2, 57148, Note_on_c, 9, 35, 0
2, 57148, Note_on_c, 9, 36, 0
2, 57148, Note_on_c, 9, 38, 0
2, 57240, Note_on_c, 9, 38, 100
2, 57240, Note_on_c, 9, 40, 100
2, 57268, Note_on_c, 9, 40, 0
2, 57268, Note_on_c, 9, 38, 0
2, 57360, Note_on_c, 9, 38, 100
2, 57360, Note_on_c, 9, 40, 100
2, 57388, Note_on_c, 9, 40, 0
2, 57388, Note_on_c, 9, 38, 0
2, 57480, Note_on_c, 9, 38, 100
2, 57480, Note_on_c, 9, 40, 100
2, 57508, Note_on_c, 9, 40, 0
2, 57508, Note_on_c, 9, 38, 0
2, 57600, Note_on_c, 9, 35, 100
2, 57600, Note_on_c, 9, 36, 100
2, 57600, Note_on_c, 9, 40, 100
2, 57600, Note_on_c, 9, 38, 100
2, 57628, Note_on_c, 9, 38, 0
2, 57628, Note_on_c, 9, 35, 0
2, 57628, Note_on_c, 9, 36, 0
2, 57628, Note_on_c, 9, 40, 0
2, 57840, Note_on_c, 9, 40, 100
2, 57840, Note_on_c, 9, 38, 100
2, 57868, Note_on_c, 9, 38, 0
2, 57868, Note_on_c, 9, 40, 0
2, 58080, Note_on_c, 9, 35, 100
2, 58080, Note_on_c, 9, 36, 100
2, 58080, Note_on_c, 9, 40, 100
2, 58080, Note_on_c, 9, 38, 100
2, 58108, Note_on_c, 9, 38, 0
2, 58108, Note_on_c, 9, 35, 0
2, 58108, Note_on_c, 9, 36, 0
2, 58108, Note_on_c, 9, 40, 0
2, 58200, Note_on_c, 9, 40, 100
2, 58200, Note_on_c, 9, 38, 100
2, 58228, Note_on_c, 9, 38, 0
2, 58228, Note_on_c, 9, 40, 0
2, 58560, Note_on_c, 9, 35, 100
2, 58560, Note_on_c, 9, 36, 100
2, 58560, Note_on_c, 9, 38, 100
2, 58560, Note_on_c, 9, 40, 100
2, 58588, Note_on_c, 9, 40, 0
2, 58588, Note_on_c, 9, 35, 0
2, 58588, Note_on_c, 9, 36, 0
2, 58588, Note_on_c, 9, 38, 0
2, 58920, Note_on_c, 9, 38, 100
2, 58920, Note_on_c, 9, 40, 100
2, 58948, Note_on_c, 9, 40, 0
2, 58948, Note_on_c, 9, 38, 0
2, 59040, Note_on_c, 9, 35, 100
2, 59040, Note_on_c, 9, 36, 100
2, 59040, Note_on_c, 9, 38, 100
2, 59040, Note_on_c, 9, 40, 100
2, 59068, Note_on_c, 9, 40, 0
2, 59068, Note_on_c, 9, 35, 0
2, 59068, Note_on_c, 9, 36, 0
2, 59068, Note_on_c, 9, 38, 0
2, 59280, Note_on_c, 9, 38, 100
2, 59280, Note_on_c, 9, 40, 100
2, 59308, Note_on_c, 9, 40, 0
2, 59308, Note_on_c, 9, 38, 0
2, 59400, Note_on_c, 9, 38, 100
2, 59400, Note_on_c, 9, 40, 100
2, 59428, Note_on_c, 9, 40, 0
2, 59428, Note_on_c, 9, 38, 0
2, 59520, Note_on_c, 9, 35, 100
2, 59520, Note_on_c, 9, 36, 100
2, 59520, Note_on_c, 9, 38, 100
2, 59520, Note_on_c, 9, 40, 100
2, 59548, Note_on_c, 9, 40, 0
2, 59548, Note_on_c, 9, 35, 0
2, 59548, Note_on_c, 9, 36, 0
2, 59548, Note_on_c, 9, 38, 0
2, 59760, Note_on_c, 9, 38, 100
2, 59760, Note_on_c, 9, 40, 100
2, 59788, Note_on_c, 9, 40, 0
2, 59788, Note_on_c, 9, 38, 0
2, 59880, Note_on_c, 9, 38, 100
2, 59880, Note_on_c, 9, 40, 100
2, 59908, Note_on_c, 9, 40, 0
2, 59908, Note_on_c, 9, 38, 0
2, 60000, Note_on_c, 9, 35, 100
2, 60000, Note_on_c, 9, 36, 100
2, 60000, Note_on_c, 9, 38, 100
2, 60000, Note_on_c, 9, 40, 100
2, 60028, Note_on_c, 9, 40, 0
2, 60028, Note_on_c, 9, 35, 0
2, 60028, Note_on_c, 9, 36, 0
2, 60028, Note_on_c, 9, 38, 0
2, 60120, Note_on_c, 9, 38, 100
2, 60120, Note_on_c, 9, 40, 100
2, 60148, Note_on_c, 9, 40, 0
2, 60148, Note_on_c, 9, 38, 0
2, 60360, Note_on_c, 9, 38, 100
2, 60360, Note_on_c, 9, 40, 100
2, 60388, Note_on_c, 9, 40, 0
2, 60388, Note_on_c, 9, 38, 0
2, 60480, Note_on_c, 9, 35, 100
2, 60480, Note_on_c, 9, 36, 100
2, 60480, Note_on_c, 9, 38, 100
2, 60480, Note_on_c, 9, 40, 100
2, 60508, Note_on_c, 9, 40, 0
2, 60508, Note_on_c, 9, 35, 0
2, 60508, Note_on_c, 9, 36, 0
2, 60508, Note_on_c, 9, 38, 0
2, 60600, Note_on_c, 9, 38, 100
2, 60600, Note_on_c, 9, 40, 100
2, 60628, Note_on_c, 9, 40, 0
2, 60628, Note_on_c, 9, 38, 0
2, 60720, Note_on_c, 9, 38, 100
2, 60720, Note_on_c, 9, 40, 100
2, 60748, Note_on_c, 9, 40, 0
2, 60748, Note_on_c, 9, 38, 0
2, 60840, Note_on_c, 9, 38, 100
2, 60840, Note_on_c, 9, 40, 100
2, 60868, Note_on_c, 9, 40, 0
2, 60868, Note_on_c, 9, 38, 0
2, 60960, Note_on_c, 9, 35, 100
2, 60960, Note_on_c, 9, 36, 100
2, 60960, Note_on_c, 9, 38, 100
2, 60960, Note_on_c, 9, 40, 100
2, 60988, Note_on_c, 9, 40, 0
2, 60988, Note_on_c, 9, 35, 0
2, 60988, Note_on_c, 9, 36, 0
2, 60988, Note_on_c, 9, 38, 0
2, 61080, Note_on_c, 9, 38, 100
2, 61080, Note_on_c, 9, 40, 100
2, 61108, Note_on_c, 9, 40, 0
2, 61108, Note_on_c, 9, 38, 0
2, 61200, Note_on_c, 9, 38, 100
2, 61200, Note_on_c, 9, 40, 100
2, 61228, Note_on_c, 9, 40, 0
2, 61228, Note_on_c, 9, 38, 0
2, 61320, Note_on_c, 9, 38, 100
2, 61320, Note_on_c, 9, 40, 100
2, 61348, Note_on_c, 9, 40, 0
2, 61348, Note_on_c, 9, 38, 0
2, 61440, Note_on_c, 9, 35, 100
2, 61440, Note_on_c, 9, 36, 100
2, 61440, Note_on_c, 9, 40, 100
2, 61440, Note_on_c, 9, 38, 100
2, 61468, Note_on_c, 9, 38, 0
2, 61468, Note_on_c, 9, 35, 0
2, 61468, Note_on_c, 9, 36, 0
2, 61468, Note_on_c, 9, 40, 0
2, 61680, Note_on_c, 9, 40, 100
2, 61680, Note_on_c, 9, 38, 100
2, 61708, Note_on_c, 9, 38, 0
2, 61708, Note_on_c, 9, 40, 0
2, 61920, Note_on_c, 9, 35, 100
2, 61920, Note_on_c, 9, 36, 100
2, 61920, Note_on_c, 9, 40, 100
2, 61920, Note_on_c, 9, 38, 100
2, 61948, Note_on_c, 9, 38, 0
2, 61948, Note_on_c, 9, 35, 0
2, 61948, Note_on_c, 9, 36, 0
2, 61948, Note_on_c, 9, 40, 0
2, 62040, Note_on_c, 9, 40, 100
2, 62040, Note_on_c, 9, 38, 100
2, 62068, Note_on_c, 9, 38, 0
2, 62068, Note_on_c, 9, 40, 0
2, 62400, Note_on_c, 9, 35, 100
2, 62400, Note_on_c, 9, 36, 100
2, 62400, Note_on_c, 9, 38, 100
2, 62400, Note_on_c, 9, 40, 100
2, 62428, Note_on_c, 9, 40, 0
2, 62428, Note_on_c, 9, 35, 0
2, 62428, Note_on_c, 9, 36, 0
2, 62428, Note_on_c, 9, 38, 0
2, 62760, Note_on_c, 9, 38, 100
2, 62760, Note_on_c, 9, 40, 100
2, 62788, Note_on_c, 9, 40, 0
2, 62788, Note_on_c, 9, 38, 0
2, 62880, Note_on_c, 9, 35, 100
2, 62880, Note_on_c, 9, 36, 100
2, 62880, Note_on_c, 9, 38, 100
2, 62880, Note_on_c, 9, 40, 100
2, 62908, Note_on_c, 9, 40, 0
2, 62908, Note_on_c, 9, 35, 0
2, 62908, Note_on_c, 9, 36, 0
2, 62908, Note_on_c, 9, 38, 0
2, 63120, Note_on_c, 9, 38, 100
2, 63120, Note_on_c, 9, 40, 100
2, 63148, Note_on_c, 9, 40, 0
2, 63148, Note_on_c, 9, 38, 0
2, 63240, Note_on_c, 9, 38, 100
2, 63240, Note_on_c, 9, 40, 100
2, 63268, Note_on_c, 9, 40, 0
2, 63268, Note_on_c, 9, 38, 0
2, 63360, Note_on_c, 9, 35, 100
2, 63360, Note_on_c, 9, 36, 100
2, 63360, Note_on_c, 9, 38, 100
2, 63360, Note_on_c, 9, 40, 100
2, 63388, Note_on_c, 9, 40, 0
2, 63388, Note_on_c, 9, 35, 0
2, 63388, Note_on_c, 9, 36, 0
2, 63388, Note_on_c, 9, 38, 0
2, 63600, Note_on_c, 9, 38, 100
2, 63600, Note_on_c, 9, 40, 100
2, 63628, Note_on_c, 9, 40, 0
2, 63628, Note_on_c, 9, 38, 0
2, 63720, Note_on_c, 9, 38, 100
2, 63720, Note_on_c, 9, 40, 100
2, 63748, Note_on_c, 9, 40, 0
2, 63748, Note_on_c, 9, 38, 0
2, 63840, Note_on_c, 9, 35, 100
2, 63840, Note_on_c, 9, 36, 100
2, 63840, Note_on_c, 9, 38, 100
2, 63840, Note_on_c, 9, 40, 100
2, 63868, Note_on_c, 9, 40, 0
2, 63868, Note_on_c, 9, 35, 0
2, 63868, Note_on_c, 9, 36, 0
2, 63868, Note_on_c, 9, 38, 0
2, 63960, Note_on_c, 9, 38, 100
2, 63960, Note_on_c, 9, 40, 100
2, 63988, Note_on_c, 9, 40, 0
2, 63988, Note_on_c, 9, 38, 0
2, 64200, Note_on_c, 9, 38, 100
2, 64200, Note_on_c, 9, 40, 100
2, 64228, Note_on_c, 9, 40, 0
2, 64228, Note_on_c, 9, 38, 0
2, 64320, Note_on_c, 9, 35, 100
2, 64320, Note_on_c, 9, 36, 100
2, 64320, Note_on_c, 9, 38, 100
2, 64320, Note_on_c, 9, 40, 100
2, 64348, Note_on_c, 9, 40, 0
2, 64348, Note_on_c, 9, 35, 0
2, 64348, Note_on_c, 9, 36, 0
2, 64348, Note_on_c, 9, 38, 0
2, 64440, Note_on_c, 9, 38, 100
2, 64440, Note_on_c, 9, 40, 100
2, 64468, Note_on_c, 9, 40, 0
2, 64468, Note_on_c, 9, 38, 0
2, 64560, Note_on_c, 9, 38, 100
2, 64560, Note_on_c, 9, 40, 100
2, 64588, Note_on_c, 9, 40, 0
2, 64588, Note_on_c, 9, 38, 0
2, 64680, Note_on_c, 9, 38, 100
2, 64680, Note_on_c, 9, 40, 100
2, 64708, Note_on_c, 9, 40, 0
2, 64708, Note_on_c, 9, 38, 0
2, 64800, Note_on_c, 9, 35, 100
2, 64800, Note_on_c, 9, 36, 100
2, 64800, Note_on_c, 9, 38, 100
2, 64800, Note_on_c, 9, 40, 100
2, 64828, Note_on_c, 9, 40, 0
2, 64828, Note_on_c, 9, 35, 0
2, 64828, Note_on_c, 9, 36, 0
2, 64828, Note_on_c, 9, 38, 0
2, 64920, Note_on_c, 9, 38, 100
2, 64920, Note_on_c, 9, 40, 100
2, 64948, Note_on_c, 9, 40, 0
2, 64948, Note_on_c, 9, 38, 0
2, 65040, Note_on_c, 9, 38, 100
2, 65040, Note_on_c, 9, 40, 100
2, 65068, Note_on_c, 9, 40, 0
2, 65068, Note_on_c, 9, 38, 0
2, 65160, Note_on_c, 9, 38, 100
2, 65160, Note_on_c, 9, 40, 100
2, 65188, Note_on_c, 9, 40, 0
2, 65188, Note_on_c, 9, 38, 0
2, 65280, Note_on_c, 9, 35, 100
2, 65280, Note_on_c, 9, 36, 100
2, 65280, Note_on_c, 9, 40, 100
2, 65280, Note_on_c, 9, 38, 100
2, 65308, Note_on_c, 9, 38, 0
2, 65308, Note_on_c, 9, 35, 0
2, 65308, Note_on_c, 9, 36, 0
2, 65308, Note_on_c, 9, 40, 0
2, 65520, Note_on_c, 9, 40, 100
2, 65520, Note_on_c, 9, 38, 100
2, 65548, Note_on_c, 9, 38, 0
2, 65548, Note_on_c, 9, 40, 0
2, 65760, Note_on_c, 9, 35, 100
2, 65760, Note_on_c, 9, 36, 100
2, 65760, Note_on_c, 9, 40, 100
2, 65760, Note_on_c, 9, 38, 100
2, 65788, Note_on_c, 9, 38, 0
2, 65788, Note_on_c, 9, 35, 0
2, 65788, Note_on_c, 9, 36, 0
2, 65788, Note_on_c, 9, 40, 0
2, 65880, Note_on_c, 9, 40, 100
2, 65880, Note_on_c, 9, 38, 100
2, 65908, Note_on_c, 9, 38, 0
2, 65908, Note_on_c, 9, 40, 0
2, 66240, Note_on_c, 9, 35, 100
2, 66240, Note_on_c, 9, 36, 100
2, 66240, Note_on_c, 9, 38, 100
2, 66240, Note_on_c, 9, 40, 100
2, 66268, Note_on_c, 9, 40, 0
2, 66268, Note_on_c, 9, 35, 0
2, 66268, Note_on_c, 9, 36, 0
2, 66268, Note_on_c, 9, 38, 0
2, 66600, Note_on_c, 9, 38, 100
2, 66600, Note_on_c, 9, 40, 100
2, 66628, Note_on_c, 9, 40, 0
2, 66628, Note_on_c, 9, 38, 0
2, 66720, Note_on_c, 9, 35, 100
2, 66720, Note_on_c, 9, 36, 100
2, 66720, Note_on_c, 9, 38, 100
2, 66720, Note_on_c, 9, 40, 100
2, 66748, Note_on_c, 9, 40, 0
2, 66748, Note_on_c, 9, 35, 0
2, 66748, Note_on_c, 9, 36, 0
2, 66748, Note_on_c, 9, 38, 0
2, 66960, Note_on_c, 9, 38, 100
2, 66960, Note_on_c, 9, 40, 100
2, 66988, Note_on_c, 9, 40, 0
2, 66988, Note_on_c, 9, 38, 0
2, 67080, Note_on_c, 9, 38, 100
2, 67080, Note_on_c, 9, 40, 100
2, 67108, Note_on_c, 9, 40, 0
2, 67108, Note_on_c, 9, 38, 0
2, 67200, Note_on_c, 9, 35, 100
2, 67200, Note_on_c, 9, 36, 100
2, 67200, Note_on_c, 9, 38, 100
2, 67200, Note_on_c, 9, 40, 100
2, 67228, Note_on_c, 9, 40, 0
2, 67228, Note_on_c, 9, 35, 0
2, 67228, Note_on_c, 9, 36, 0
2, 67228, Note_on_c, 9, 38, 0
2, 67440, Note_on_c, 9, 38, 100
2, 67440, Note_on_c, 9, 40, 100
2, 67468, Note_on_c, 9, 40, 0
2, 67468, Note_on_c, 9, 38, 0
2, 67560, Note_on_c, 9, 38, 100
2, 67560, Note_on_c, 9, 40, 100
2, 67588, Note_on_c, 9, 40, 0
2, 67588, Note_on_c, 9, 38, 0
2, 67680, Note_on_c, 9, 35, 100
2, 67680, Note_on_c, 9, 36, 100
2, 67680, Note_on_c, 9, 38, 100
2, 67680, Note_on_c, 9, 40, 100
2, 67708, Note_on_c, 9, 40, 0
2, 67708, Note_on_c, 9, 35, 0
2, 67708, Note_on_c, 9, 36, 0
2, 67708, Note_on_c, 9, 38, 0
2, 67800, Note_on_c, 9, 38, 100
2, 67800, Note_on_c, 9, 40, 100
2, 67828, Note_on_c, 9, 40, 0
2, 67828, Note_on_c, 9, 38, 0
2, 68040, Note_on_c, 9, 38, 100
2, 68040, Note_on_c, 9, 40, 100
2, 68068, Note_on_c, 9, 40, 0
2, 68068, Note_on_c, 9, 38, 0
2, 68160, Note_on_c, 9, 35, 100
2, 68160, Note_on_c, 9, 36, 100
2, 68160, Note_on_c, 9, 38, 100
2, 68160, Note_on_c, 9, 40, 100
2, 68188, Note_on_c, 9, 40, 0
2, 68188, Note_on_c, 9, 35, 0
2, 68188, Note_on_c, 9, 36, 0
2, 68188, Note_on_c, 9, 38, 0
2, 68280, Note_on_c, 9, 38, 100
2, 68280, Note_on_c, 9, 40, 100
2, 68308, Note_on_c, 9, 40, 0
2, 68308, Note_on_c, 9, 38, 0
2, 68400, Note_on_c, 9, 38, 100
2, 68400, Note_on_c, 9, 40, 100
2, 68428, Note_on_c, 9, 40, 0
2, 68428, Note_on_c, 9, 38, 0
2, 68520, Note_on_c, 9, 38, 100
2, 68520, Note_on_c, 9, 40, 100
2, 68548, Note_on_c, 9, 40, 0
2, 68548, Note_on_c, 9, 38, 0
2, 68640, Note_on_c, 9, 35, 100
2, 68640, Note_on_c, 9, 36, 100
2, 68640, Note_on_c, 9, 38, 100
2, 68640, Note_on_c, 9, 40, 100
2, 68668, Note_on_c, 9, 40, 0
2, 68668, Note_on_c, 9, 35, 0
2, 68668, Note_on_c, 9, 36, 0
2, 68668, Note_on_c, 9, 38, 0
2, 68760, Note_on_c, 9, 38, 100
2, 68760, Note_on_c, 9, 40, 100
2, 68788, Note_on_c, 9, 40, 0
2, 68788, Note_on_c, 9, 38, 0
2, 68880, Note_on_c, 9, 38, 100
2, 68880, Note_on_c, 9, 40, 100
2, 68908, Note_on_c, 9, 40, 0
2, 68908, Note_on_c, 9, 38, 0
2, 69000, Note_on_c, 9, 38, 100
2, 69000, Note_on_c, 9, 40, 100
2, 69028, Note_on_c, 9, 40, 0
2, 69028, Note_on_c, 9, 38, 0
2, 69120, Note_on_c, 9, 35, 100
2, 69120, Note_on_c, 9, 36, 100
2, 69120, Note_on_c, 9, 40, 100
2, 69120, Note_on_c, 9, 38, 100
2, 69148, Note_on_c, 9, 38, 0
2, 69148, Note_on_c, 9, 35, 0
2, 69148, Note_on_c, 9, 36, 0
2, 69148, Note_on_c, 9, 40, 0
2, 69360, Note_on_c, 9, 40, 100
2, 69360, Note_on_c, 9, 38, 100
2, 69388, Note_on_c, 9, 38, 0
2, 69388, Note_on_c, 9, 40, 0
2, 69600, Note_on_c, 9, 35, 100
2, 69600, Note_on_c, 9, 36, 100
2, 69600, Note_on_c, 9, 40, 100
2, 69600, Note_on_c, 9, 38, 100
2, 69628, Note_on_c, 9, 38, 0
2, 69628, Note_on_c, 9, 35, 0
2, 69628, Note_on_c, 9, 36, 0
2, 69628, Note_on_c, 9, 40, 0
2, 69720, Note_on_c, 9, 40, 100
2, 69720, Note_on_c, 9, 38, 100
2, 69748, Note_on_c, 9, 38, 0
2, 69748, Note_on_c, 9, 40, 0
2, 70080, Note_on_c, 9, 35, 100
2, 70080, Note_on_c, 9, 36, 100
2, 70080, Note_on_c, 9, 38, 100
2, 70080, Note_on_c, 9, 40, 100
2, 70108, Note_on_c, 9, 40, 0
2, 70108, Note_on_c, 9, 35, 0
2, 70108, Note_on_c, 9, 36, 0
2, 70108, Note_on_c, 9, 38, 0
2, 70440, Note_on_c, 9, 38, 100
2, 70440, Note_on_c, 9, 40, 100
2, 70468, Note_on_c, 9, 40, 0
2, 70468, Note_on_c, 9, 38, 0
2, 70560, Note_on_c, 9, 35, 100
2, 70560, Note_on_c, 9, 36, 100
2, 70560, Note_on_c, 9, 38, 100
2, 70560, Note_on_c, 9, 40, 100
2, 70588, Note_on_c, 9, 40, 0
2, 70588, Note_on_c, 9, 35, 0
2, 70588, Note_on_c, 9, 36, 0
2, 70588, Note_on_c, 9, 38, 0
2, 70800, Note_on_c, 9, 38, 100
2, 70800, Note_on_c, 9, 40, 100
2, 70828, Note_on_c, 9, 40, 0
2, 70828, Note_on_c, 9, 38, 0
2, 70920, Note_on_c, 9, 38, 100
2, 70920, Note_on_c, 9, 40, 100
2, 70948, Note_on_c, 9, 40, 0
2, 70948, Note_on_c, 9, 38, 0
2, 71040, Note_on_c, 9, 35, 100
2, 71040, Note_on_c, 9, 36, 100
2, 71040, Note_on_c, 9, 38, 100
2, 71040, Note_on_c, 9, 40, 100
2, 71068, Note_on_c, 9, 40, 0
2, 71068, Note_on_c, 9, 35, 0
2, 71068, Note_on_c, 9, 36, 0
2, 71068, Note_on_c, 9, 38, 0
2, 71280, Note_on_c, 9, 38, 100
2, 71280, Note_on_c, 9, 40, 100
2, 71308, Note_on_c, 9, 40, 0
2, 71308, Note_on_c, 9, 38, 0
2, 71400, Note_on_c, 9, 38, 100
2, 71400, Note_on_c, 9, 40, 100
2, 71428, Note_on_c, 9, 40, 0
2, 71428, Note_on_c, 9, 38, 0
2, 71520, Note_on_c, 9, 35, 100
2, 71520, Note_on_c, 9, 36, 100
2, 71520, Note_on_c, 9, 38, 100
2, 71520, Note_on_c, 9, 40, 100
2, 71548, Note_on_c, 9, 40, 0
2, 71548, Note_on_c, 9, 35, 0
2, 71548, Note_on_c, 9, 36, 0
2, 71548, Note_on_c, 9, 38, 0
2, 71640, Note_on_c, 9, 38, 100
2, 71640, Note_on_c, 9, 40, 100
2, 71668, Note_on_c, 9, 40, 0
2, 71668, Note_on_c, 9, 38, 0
2, 71880, Note_on_c, 9, 38, 100
2, 71880, Note_on_c, 9, 40, 100
2, 71908, Note_on_c, 9, 40, 0
2, 71908, Note_on_c, 9, 38, 0
2, 72000, Note_on_c, 9, 35, 100
2, 72000, Note_on_c, 9, 36, 100
2, 72000, Note_on_c, 9, 38, 100
2, 72000, Note_on_c, 9, 40, 100
2, 72028, Note_on_c, 9, 40, 0
2, 72028, Note_on_c, 9, 35, 0
2, 72028, Note_on_c, 9, 36, 0
2, 72028, Note_on_c, 9, 38, 0
2, 72120, Note_on_c, 9, 38, 100
2, 72120, Note_on_c, 9, 40, 100
2, 72148, Note_on_c, 9, 40, 0
2, 72148, Note_on_c, 9, 38, 0
2, 72240, Note_on_c, 9, 38, 100
2, 72240, Note_on_c, 9, 40, 100
2, 72268, Note_on_c, 9, 40, 0
2, 72268, Note_on_c, 9, 38, 0
2, 72360, Note_on_c, 9, 38, 100
2, 72360, Note_on_c, 9, 40, 100
2, 72388, Note_on_c, 9, 40, 0
2, 72388, Note_on_c, 9, 38, 0
2, 72480, Note_on_c, 9, 35, 100
2, 72480, Note_on_c, 9, 36, 100
2, 72480, Note_on_c, 9, 38, 100
2, 72480, Note_on_c, 9, 40, 100
2, 72508, Note_on_c, 9, 40, 0
2, 72508, Note_on_c, 9, 35, 0
2, 72508, Note_on_c, 9, 36, 0
2, 72508, Note_on_c, 9, 38, 0
2, 72600, Note_on_c, 9, 38, 100
2, 72600, Note_on_c, 9, 40, 100
2, 72628, Note_on_c, 9, 40, 0
2, 72628, Note_on_c, 9, 38, 0
2, 72720, Note_on_c, 9, 38, 100
2, 72720, Note_on_c, 9, 40, 100
2, 72748, Note_on_c, 9, 40, 0
2, 72748, Note_on_c, 9, 38, 0
2, 72840, Note_on_c, 9, 38, 100
2, 72840, Note_on_c, 9, 40, 100
2, 72868, Note_on_c, 9, 40, 0
2, 72868, Note_on_c, 9, 38, 0
2, 72960, Note_on_c, 9, 35, 100
2, 72960, Note_on_c, 9, 36, 100
2, 72960, Note_on_c, 9, 40, 100
2, 72960, Note_on_c, 9, 38, 100
2, 72988, Note_on_c, 9, 38, 0
2, 72988, Note_on_c, 9, 35, 0
2, 72988, Note_on_c, 9, 36, 0
2, 72988, Note_on_c, 9, 40, 0
2, 73200, Note_on_c, 9, 40, 100
2, 73200, Note_on_c, 9, 38, 100
2, 73228, Note_on_c, 9, 38, 0
2, 73228, Note_on_c, 9, 40, 0
2, 73440, Note_on_c, 9, 35, 100
2, 73440, Note_on_c, 9, 36, 100
2, 73440, Note_on_c, 9, 40, 100
2, 73440, Note_on_c, 9, 38, 100
2, 73468, Note_on_c, 9, 38, 0
2, 73468, Note_on_c, 9, 35, 0
2, 73468, Note_on_c, 9, 36, 0
2, 73468, Note_on_c, 9, 40, 0
2, 73560, Note_on_c, 9, 40, 100
2, 73560, Note_on_c, 9, 38, 100
2, 73588, Note_on_c, 9, 38, 0
2, 73588, Note_on_c, 9, 40, 0
2, 73920, Note_on_c, 9, 35, 100
2, 73920, Note_on_c, 9, 36, 100
2, 73920, Note_on_c, 9, 38, 100
2, 73920, Note_on_c, 9, 40, 100
2, 73948, Note_on_c, 9, 40, 0
2, 73948, Note_on_c, 9, 35, 0
2, 73948, Note_on_c, 9, 36, 0
2, 73948, Note_on_c, 9, 38, 0
2, 74280, Note_on_c, 9, 38, 100
2, 74280, Note_on_c, 9, 40, 100
2, 74308, Note_on_c, 9, 40, 0
2, 74308, Note_on_c, 9, 38, 0
2, 74400, Note_on_c, 9, 35, 100
2, 74400, Note_on_c, 9, 36, 100
2, 74400, Note_on_c, 9, 38, 100
2, 74400, Note_on_c, 9, 40, 100
2, 74428, Note_on_c, 9, 40, 0
2, 74428, Note_on_c, 9, 35, 0
2, 74428, Note_on_c, 9, 36, 0
2, 74428, Note_on_c, 9, 38, 0
2, 74640, Note_on_c, 9, 38, 100
2, 74640, Note_on_c, 9, 40, 100
2, 74668, Note_on_c, 9, 40, 0
2, 74668, Note_on_c, 9, 38, 0
2, 74760, Note_on_c, 9, 38, 100
2, 74760, Note_on_c, 9, 40, 100
2, 74788, Note_on_c, 9, 40, 0
2, 74788, Note_on_c, 9, 38, 0
2, 74880, Note_on_c, 9, 35, 100
2, 74880, Note_on_c, 9, 36, 100
2, 74880, Note_on_c, 9, 38, 100
2, 74880, Note_on_c, 9, 40, 100
2, 74908, Note_on_c, 9, 40, 0
2, 74908, Note_on_c, 9, 35, 0
2, 74908, Note_on_c, 9, 36, 0
2, 74908, Note_on_c, 9, 38, 0
2, 75120, Note_on_c, 9, 38, 100
2, 75120, Note_on_c, 9, 40, 100
2, 75148, Note_on_c, 9, 40, 0
2, 75148, Note_on_c, 9, 38, 0
2, 75240, Note_on_c, 9, 38, 100
2, 75240, Note_on_c, 9, 40, 100
2, 75268, Note_on_c, 9, 40, 0
2, 75268, Note_on_c, 9, 38, 0
2, 75360, Note_on_c, 9, 35, 100
2, 75360, Note_on_c, 9, 36, 100
2, 75360, Note_on_c, 9, 38, 100
2, 75360, Note_on_c, 9, 40, 100
2, 75388, Note_on_c, 9, 40, 0
2, 75388, Note_on_c, 9, 35, 0
2, 75388, Note_on_c, 9, 36, 0
2, 75388, Note_on_c, 9, 38, 0
2, 75480, Note_on_c, 9, 38, 100
2, 75480, Note_on_c, 9, 40, 100
2, 75508, Note_on_c, 9, 40, 0
2, 75508, Note_on_c, 9, 38, 0
2, 75720, Note_on_c, 9, 38, 100
2, 75720, Note_on_c, 9, 40, 100
2, 75748, Note_on_c, 9, 40, 0
2, 75748, Note_on_c, 9, 38, 0
2, 75840, Note_on_c, 9, 35, 100
2, 75840, Note_on_c, 9, 36, 100
2, 75840, Note_on_c, 9, 38, 100
2, 75840, Note_on_c, 9, 40, 100
2, 75868, Note_on_c, 9, 40, 0
2, 75868, Note_on_c, 9, 35, 0
2, 75868, Note_on_c, 9, 36, 0
2, 75868, Note_on_c, 9, 38, 0
2, 75960, Note_on_c, 9, 38, 100
2, 75960, Note_on_c, 9, 40, 100
2, 75988, Note_on_c, 9, 40, 0
2, 75988, Note_on_c, 9, 38, 0
2, 76080, Note_on_c, 9, 38, 100
2, 76080, Note_on_c, 9, 40, 100
2, 76108, Note_on_c, 9, 40, 0
2, 76108, Note_on_c, 9, 38, 0
2, 76200, Note_on_c, 9, 38, 100
2, 76200, Note_on_c, 9, 40, 100
2, 76228, Note_on_c, 9, 40, 0
2, 76228, Note_on_c, 9, 38, 0
2, 76320, Note_on_c, 9, 35, 100
2, 76320, Note_on_c, 9, 36, 100
2, 76320, Note_on_c, 9, 38, 100
2, 76320, Note_on_c, 9, 40, 100
2, 76348, Note_on_c, 9, 40, 0
2, 76348, Note_on_c, 9, 35, 0
2, 76348, Note_on_c, 9, 36, 0
2, 76348, Note_on_c, 9, 38, 0
2, 76440, Note_on_c, 9, 38, 100
2, 76440, Note_on_c, 9, 40, 100
2, 76468, Note_on_c, 9, 40, 0
2, 76468, Note_on_c, 9, 38, 0
2, 76560, Note_on_c, 9, 38, 100
2, 76560, Note_on_c, 9, 40, 100
2, 76588, Note_on_c, 9, 40, 0
2, 76588, Note_on_c, 9, 38, 0
2, 76680, Note_on_c, 9, 38, 100
2, 76680, Note_on_c, 9, 40, 100
2, 76708, Note_on_c, 9, 40, 0
2, 76708, Note_on_c, 9, 38, 0
2, 76800, Note_on_c, 9, 35, 100
2, 76800, Note_on_c, 9, 36, 100
2, 76800, Note_on_c, 9, 40, 100
2, 76800, Note_on_c, 9, 38, 100
2, 76828, Note_on_c, 9, 38, 0
2, 76828, Note_on_c, 9, 35, 0
2, 76828, Note_on_c, 9, 36, 0
2, 76828, Note_on_c, 9, 40, 0
2, 77040, Note_on_c, 9, 40, 100
2, 77040, Note_on_c, 9, 38, 100
2, 77068, Note_on_c, 9, 38, 0
2, 77068, Note_on_c, 9, 40, 0
2, 77280, Note_on_c, 9, 35, 100
2, 77280, Note_on_c, 9, 36, 100
2, 77280, Note_on_c, 9, 40, 100
2, 77280, Note_on_c, 9, 38, 100
2, 77308, Note_on_c, 9, 38, 0
2, 77308, Note_on_c, 9, 35, 0
2, 77308, Note_on_c, 9, 36, 0
2, 77308, Note_on_c, 9, 40, 0
2, 77400, Note_on_c, 9, 40, 100
2, 77400, Note_on_c, 9, 38, 100
2, 77428, Note_on_c, 9, 38, 0
2, 77428, Note_on_c, 9, 40, 0
2, 77760, Note_on_c, 9, 35, 100
2, 77760, Note_on_c, 9, 36, 100
2, 77760, Note_on_c, 9, 38, 100
2, 77760, Note_on_c, 9, 40, 100
2, 77788, Note_on_c, 9, 40, 0
2, 77788, Note_on_c, 9, 35, 0
2, 77788, Note_on_c, 9, 36, 0
2, 77788, Note_on_c, 9, 38, 0
2, 78120, Note_on_c, 9, 38, 100
2, 78120, Note_on_c, 9, 40, 100
2, 78148, Note_on_c, 9, 40, 0
2, 78148, Note_on_c, 9, 38, 0
2, 78240, Note_on_c, 9, 35, 100
2, 78240, Note_on_c, 9, 36, 100
2, 78240, Note_on_c, 9, 38, 100
2, 78240, Note_on_c, 9, 40, 100
2, 78268, Note_on_c, 9, 40, 0
2, 78268, Note_on_c, 9, 35, 0
2, 78268, Note_on_c, 9, 36, 0
2, 78268, Note_on_c, 9, 38, 0
2, 78480, Note_on_c, 9, 38, 100
2, 78480, Note_on_c, 9, 40, 100
2, 78508, Note_on_c, 9, 40, 0
2, 78508, Note_on_c, 9, 38, 0
2, 78600, Note_on_c, 9, 38, 100
2, 78600, Note_on_c, 9, 40, 100
2, 78628, Note_on_c, 9, 40, 0
2, 78628, Note_on_c, 9, 38, 0
2, 78720, Note_on_c, 9, 35, 100
2, 78720, Note_on_c, 9, 36, 100
2, 78720, Note_on_c, 9, 38, 100
2, 78720, Note_on_c, 9, 40, 100
2, 78748, Note_on_c, 9, 40, 0
2, 78748, Note_on_c, 9, 35, 0
2, 78748, Note_on_c, 9, 36, 0
2, 78748, Note_on_c, 9, 38, 0
2, 78960, Note_on_c, 9, 38, 100
2, 78960, Note_on_c, 9, 40, 100
2, 78988, Note_on_c, 9, 40, 0
2, 78988, Note_on_c, 9, 38, 0
2, 79080, Note_on_c, 9, 38, 100
2, 79080, Note_on_c, 9, 40, 100
2, 79108, Note_on_c, 9, 40, 0
2, 79108, Note_on_c, 9, 38, 0
2, 79200, Note_on_c, 9, 35, 100
2, 79200, Note_on_c, 9, 36, 100
2, 79200, Note_on_c, 9, 38, 100
2, 79200, Note_on_c, 9, 40, 100
2, 79228, Note_on_c, 9, 40, 0
2, 79228, Note_on_c, 9, 35, 0
2, 79228, Note_on_c, 9, 36, 0
2, 79228, Note_on_c, 9, 38, 0
2, 79320, Note_on_c, 9, 38, 100
2, 79320, Note_on_c, 9, 40, 100
2, 79348, Note_on_c, 9, 40, 0
2, 79348, Note_on_c, 9, 38, 0
2, 79560, Note_on_c, 9, 38, 100
2, 79560, Note_on_c, 9, 40, 100
2, 79588, Note_on_c, 9, 40, 0
2, 79588, Note_on_c, 9, 38, 0
2, 79680, Note_on_c, 9, 35, 100
2, 79680, Note_on_c, 9, 36, 100
2, 79680, Note_on_c, 9, 38, 100
2, 79680, Note_on_c, 9, 40, 100
2, 79708, Note_on_c, 9, 40, 0
2, 79708, Note_on_c, 9, 35, 0
2, 79708, Note_on_c, 9, 36, 0
2, 79708, Note_on_c, 9, 38, 0
2, 79800, Note_on_c, 9, 38, 100
2, 79800, Note_on_c, 9, 40, 100
2, 79828, Note_on_c, 9, 40, 0
2, 79828, Note_on_c, 9, 38, 0
2, 79920, Note_on_c, 9, 38, 100
2, 79920, Note_on_c, 9, 40, 100
2, 79948, Note_on_c, 9, 40, 0
2, 79948, Note_on_c, 9, 38, 0
2, 80040, Note_on_c, 9, 38, 100
2, 80040, Note_on_c, 9, 40, 100
2, 80068, Note_on_c, 9, 40, 0
2, 80068, Note_on_c, 9, 38, 0
2, 80160, Note_on_c, 9, 35, 100
2, 80160, Note_on_c, 9, 36, 100
2, 80160, Note_on_c, 9, 38, 100
2, 80160, Note_on_c, 9, 40, 100
2, 80188, Note_on_c, 9, 40, 0
2, 80188, Note_on_c, 9, 35, 0
2, 80188, Note_on_c, 9, 36, 0
2, 80188, Note_on_c, 9, 38, 0
2, 80280, Note_on_c, 9, 38, 100
2, 80280, Note_on_c, 9, 40, 100
2, 80308, Note_on_c, 9, 40, 0
2, 80308, Note_on_c, 9, 38, 0
2, 80400, Note_on_c, 9, 38, 100
2, 80400, Note_on_c, 9, 40, 100
2, 80428, Note_on_c, 9, 40, 0
2, 80428, Note_on_c, 9, 38, 0
2, 80520, Note_on_c, 9, 38, 100
2, 80520, Note_on_c, 9, 40, 100
2, 80548, Note_on_c, 9, 40, 0
2, 80548, Note_on_c, 9, 38, 0
2, 80640, Note_on_c, 9, 35, 100
2, 80640, Note_on_c, 9, 36, 100
2, 80640, Note_on_c, 9, 40, 100
2, 80640, Note_on_c, 9, 38, 100
2, 80668, Note_on_c, 9, 38, 0
2, 80668, Note_on_c, 9, 35, 0
2, 80668, Note_on_c, 9, 36, 0
2, 80668, Note_on_c, 9, 40, 0
2, 80880, Note_on_c, 9, 40, 100
2, 80880, Note_on_c, 9, 38, 100
2, 80908, Note_on_c, 9, 38, 0
2, 80908, Note_on_c, 9, 40, 0
2, 81120, Note_on_c, 9, 35, 100
2, 81120, Note_on_c, 9, 36, 100
2, 81120, Note_on_c, 9, 40, 100
2, 81120, Note_on_c, 9, 38, 100
2, 81148, Note_on_c, 9, 38, 0
2, 81148, Note_on_c, 9, 35, 0
2, 81148, Note_on_c, 9, 36, 0
2, 81148, Note_on_c, 9, 40, 0
2, 81240, Note_on_c, 9, 40, 100
2, 81240, Note_on_c, 9, 38, 100
2, 81268, Note_on_c, 9, 38, 0
2, 81268, Note_on_c, 9, 40, 0
2, 81600, Note_on_c, 9, 35, 100
2, 81600, Note_on_c, 9, 36, 100
2, 81600, Note_on_c, 9, 38, 100
2, 81600, Note_on_c, 9, 40, 100
2, 81628, Note_on_c, 9, 40, 0
2, 81628, Note_on_c, 9, 35, 0
2, 81628, Note_on_c, 9, 36, 0
2, 81628, Note_on_c, 9, 38, 0
2, 81960, Note_on_c, 9, 38, 100
2, 81960, Note_on_c, 9, 40, 100
2, 81988, Note_on_c, 9, 40, 0
2, 81988, Note_on_c, 9, 38, 0
2, 82080, Note_on_c, 9, 35, 100
2, 82080, Note_on_c, 9, 36, 100
2, 82080, Note_on_c, 9, 38, 100
2, 82080, Note_on_c, 9, 40, 100
2, 82108, Note_on_c, 9, 40, 0
2, 82108, Note_on_c, 9, 35, 0
2, 82108, Note_on_c, 9, 36, 0
2, 82108, Note_on_c, 9, 38, 0
2, 82320, Note_on_c, 9, 38, 100
2, 82320, Note_on_c, 9, 40, 100
2, 82348, Note_on_c, 9, 40, 0
2, 82348, Note_on_c, 9, 38, 0
2, 82440, Note_on_c, 9, 38, 100
2, 82440, Note_on_c, 9, 40, 100
2, 82468, Note_on_c, 9, 40, 0
2, 82468, Note_on_c, 9, 38, 0
2, 82560, Note_on_c, 9, 35, 100
2, 82560, Note_on_c, 9, 36, 100
2, 82560, Note_on_c, 9, 38, 100
2, 82560, Note_on_c, 9, 40, 100
2, 82588, Note_on_c, 9, 40, 0
2, 82588, Note_on_c, 9, 35, 0
2, 82588, Note_on_c, 9, 36, 0
2, 82588, Note_on_c, 9, 38, 0
2, 82800, Note_on_c, 9, 38, 100
2, 82800, Note_on_c, 9, 40, 100
2, 82828, Note_on_c, 9, 40, 0
2, 82828, Note_on_c, 9, 38, 0
2, 82920, Note_on_c, 9, 38, 100
2, 82920, Note_on_c, 9, 40, 100
2, 82948, Note_on_c, 9, 40, 0
2, 82948, Note_on_c, 9, 38, 0
2, 83040, Note_on_c, 9, 35, 100
2, 83040, Note_on_c, 9, 36, 100
2, 83040, Note_on_c, 9, 38, 100
2, 83040, Note_on_c, 9, 40, 100
2, 83068, Note_on_c, 9, 40, 0
2, 83068, Note_on_c, 9, 35, 0
2, 83068, Note_on_c, 9, 36, 0
2, 83068, Note_on_c, 9, 38, 0
2, 83160, Note_on_c, 9, 38, 100
2, 83160, Note_on_c, 9, 40, 100
2, 83188, Note_on_c, 9, 40, 0
2, 83188, Note_on_c, 9, 38, 0
2, 83400, Note_on_c, 9, 38, 100
2, 83400, Note_on_c, 9, 40, 100
2, 83428, Note_on_c, 9, 40, 0
2, 83428, Note_on_c, 9, 38, 0
2, 83520, Note_on_c, 9, 35, 100
2, 83520, Note_on_c, 9, 36, 100
2, 83520, Note_on_c, 9, 38, 100
2, 83520, Note_on_c, 9, 40, 100
2, 83548, Note_on_c, 9, 40, 0
2, 83548, Note_on_c, 9, 35, 0
2, 83548, Note_on_c, 9, 36, 0
2, 83548, Note_on_c, 9, 38, 0
2, 83640, Note_on_c, 9, 38, 100
2, 83640, Note_on_c, 9, 40, 100
2, 83668, Note_on_c, 9, 40, 0
2, 83668, Note_on_c, 9, 38, 0
2, 83760, Note_on_c, 9, 38, 100
2, 83760, Note_on_c, 9, 40, 100
2, 83788, Note_on_c, 9, 40, 0
2, 83788, Note_on_c, 9, 38, 0
2, 83880, Note_on_c, 9, 38, 100
2, 83880, Note_on_c, 9, 40, 100
2, 83908, Note_on_c, 9, 40, 0
2, 83908, Note_on_c, 9, 38, 0
2, 84000, Note_on_c, 9, 35, 100
2, 84000, Note_on_c, 9, 36, 100
2, 84000, Note_on_c, 9, 38, 100
2, 84000, Note_on_c, 9, 40, 100
2, 84028, Note_on_c, 9, 40, 0
2, 84028, Note_on_c, 9, 35, 0
2, 84028, Note_on_c, 9, 36, 0
2, 84028, Note_on_c, 9, 38, 0
2, 84120, Note_on_c, 9, 38, 100
2, 84120, Note_on_c, 9, 40, 100
2, 84148, Note_on_c, 9, 40, 0
2, 84148, Note_on_c, 9, 38, 0
2, 84240, Note_on_c, 9, 38, 100
2, 84240, Note_on_c, 9, 40, 100
2, 84268, Note_on_c, 9, 40, 0
2, 84268, Note_on_c, 9, 38, 0
2, 84360, Note_on_c, 9, 38, 100
2, 84360, Note_on_c, 9, 40, 100
2, 84388, Note_on_c, 9, 40, 0
2, 84388, Note_on_c, 9, 38, 0
2, 86000, Note_on_c, 9, 32, 100
2, 86000, Note_on_c, 9, 42, 100
2, 86000, Note_on_c, 9, 44, 100
2, 86028, Note_on_c, 9, 44, 0
2, 86028, Note_on_c, 9, 42, 0
2, 86028, Note_on_c, 9, 32, 0
2, 86120, Note_on_c, 9, 32, 100
2, 86120, Note_on_c, 9, 42, 100
2, 86120, Note_on_c, 9, 44, 100
2, 86148, Note_on_c, 9, 44, 0
2, 86148, Note_on_c, 9, 42, 0
2, 86148, Note_on_c, 9, 32, 0
2, 86240, Note_on_c, 9, 32, 100
2, 86240, Note_on_c, 9, 42, 100
2, 86240, Note_on_c, 9, 44, 100
2, 86268, Note_on_c, 9, 44, 0
2, 86268, Note_on_c, 9, 42, 0
2, 86268, Note_on_c, 9, 32, 0
2, 86360, Note_on_c, 9, 32, 100
2, 86360, Note_on_c, 9, 42, 100
2, 86360, Note_on_c, 9, 44, 100
2, 86388, Note_on_c, 9, 44, 0
2, 86388, Note_on_c, 9, 42, 0
2, 86388, Note_on_c, 9, 32, 0
2, 86480, Note_on_c, 9, 32, 100
2, 86480, Note_on_c, 9, 42, 100
2, 86480, Note_on_c, 9, 44, 100
2, 86508, Note_on_c, 9, 44, 0
2, 86508, Note_on_c, 9, 42, 0
2, 86508, Note_on_c, 9, 32, 0
2, 86600, Note_on_c, 9, 32, 100
2, 86600, Note_on_c, 9, 42, 100
2, 86600, Note_on_c, 9, 44, 100
2, 86628, Note_on_c, 9, 44, 0
2, 86628, Note_on_c, 9, 42, 0
2, 86628, Note_on_c, 9, 32, 0
2, 86720, Note_on_c, 9, 32, 100
2, 86720, Note_on_c, 9, 42, 100
2, 86720, Note_on_c, 9, 44, 100
2, 86748, Note_on_c, 9, 44, 0
2, 86748, Note_on_c, 9, 42, 0
2, 86748, Note_on_c, 9, 32, 0
2, 86840, Note_on_c, 9, 32, 100
2, 86840, Note_on_c, 9, 42, 100
2, 86840, Note_on_c, 9, 44, 100
2, 86868, Note_on_c, 9, 44, 0
2, 86868, Note_on_c, 9, 42, 0
2, 86868, Note_on_c, 9, 32, 0
2, 86960, Note_on_c, 9, 32, 100
2, 86960, Note_on_c, 9, 42, 100
2, 86960, Note_on_c, 9, 44, 100
2, 86988, Note_on_c, 9, 44, 0
2, 86988, Note_on_c, 9, 42, 0
2, 86988, Note_on_c, 9, 32, 0
2, 87080, Note_on_c, 9, 32, 100
2, 87080, Note_on_c, 9, 42, 100
2, 87080, Note_on_c, 9, 44, 100
2, 87108, Note_on_c, 9, 44, 0
2, 87108, Note_on_c, 9, 42, 0
2, 87108, Note_on_c, 9, 32, 0
2, 87200, Note_on_c, 9, 32, 100
2, 87200, Note_on_c, 9, 42, 100
2, 87200, Note_on_c, 9, 44, 100
2, 87228, Note_on_c, 9, 44, 0
2, 87228, Note_on_c, 9, 42, 0
2, 87228, Note_on_c, 9, 32, 0
2, 87320, Note_on_c, 9, 32, 100
2, 87320, Note_on_c, 9, 42, 100
2, 87320, Note_on_c, 9, 44, 100
2, 87348, Note_on_c, 9, 44, 0
2, 87348, Note_on_c, 9, 42, 0
2, 87348, Note_on_c, 9, 32, 0
2, 87440, Note_on_c, 9, 32, 100
2, 87440, Note_on_c, 9, 42, 100
2, 87440, Note_on_c, 9, 44, 100
2, 87468, Note_on_c, 9, 44, 0
2, 87468, Note_on_c, 9, 42, 0
2, 87468, Note_on_c, 9, 32, 0
2, 87560, Note_on_c, 9, 32, 100
2, 87560, Note_on_c, 9, 42, 100
2, 87560, Note_on_c, 9, 44, 100
2, 87588, Note_on_c, 9, 44, 0
2, 87588, Note_on_c, 9, 42, 0
2, 87588, Note_on_c, 9, 32, 0
2, 87680, Note_on_c, 9, 32, 100
2, 87680, Note_on_c, 9, 42, 100
2, 87680, Note_on_c, 9, 44, 100
2, 87708, Note_on_c, 9, 44, 0
2, 87708, Note_on_c, 9, 42, 0
2, 87708, Note_on_c, 9, 32, 0
2, 87708, End_track
3, 0, Start_track
3, 0, MIDI_port, 0
3, 0, Title_t," ""Codemasters"""
3, 0, Program_c, 0, 33
3, 3840, Note_on_c, 0, 38, 100
3, 3840, Control_c, 0, 7, 125
3, 4078, Note_on_c, 0, 38, 0
3, 4080, Note_on_c, 0, 38, 100
3, 4318, Note_on_c, 0, 38, 0
3, 4320, Note_on_c, 0, 50, 100
3, 4438, Note_on_c, 0, 50, 0
3, 4440, Note_on_c, 0, 38, 100
3, 4798, Note_on_c, 0, 38, 0
3, 4800, Note_on_c, 0, 38, 100
3, 5158, Note_on_c, 0, 38, 0
3, 5160, Note_on_c, 0, 38, 100
3, 5278, Note_on_c, 0, 38, 0
3, 5280, Note_on_c, 0, 50, 100
3, 5518, Note_on_c, 0, 50, 0
3, 5520, Note_on_c, 0, 50, 100
3, 5638, Note_on_c, 0, 50, 0
3, 5640, Note_on_c, 0, 50, 100
3, 5758, Note_on_c, 0, 50, 0
3, 5760, Note_on_c, 0, 41, 100
3, 5998, Note_on_c, 0, 41, 0
3, 6000, Note_on_c, 0, 41, 100
3, 6238, Note_on_c, 0, 41, 0
3, 6240, Note_on_c, 0, 53, 100
3, 6358, Note_on_c, 0, 53, 0
3, 6360, Note_on_c, 0, 41, 100
3, 6718, Note_on_c, 0, 41, 0
3, 6720, Note_on_c, 0, 41, 100
3, 7078, Note_on_c, 0, 41, 0
3, 7080, Note_on_c, 0, 41, 100
3, 7198, Note_on_c, 0, 41, 0
3, 7200, Note_on_c, 0, 53, 100
3, 7438, Note_on_c, 0, 53, 0
3, 7440, Note_on_c, 0, 53, 100
3, 7558, Note_on_c, 0, 53, 0
3, 7560, Note_on_c, 0, 53, 100
3, 7678, Note_on_c, 0, 53, 0
3, 7680, Note_on_c, 0, 36, 100
3, 7918, Note_on_c, 0, 36, 0
3, 7920, Note_on_c, 0, 36, 100
3, 8158, Note_on_c, 0, 36, 0
3, 8160, Note_on_c, 0, 48, 100
3, 8278, Note_on_c, 0, 48, 0
3, 8280, Note_on_c, 0, 36, 100
3, 8638, Note_on_c, 0, 36, 0
3, 8640, Note_on_c, 0, 36, 100
3, 8998, Note_on_c, 0, 36, 0
3, 9000, Note_on_c, 0, 36, 100
3, 9118, Note_on_c, 0, 36, 0
3, 9120, Note_on_c, 0, 48, 100
3, 9358, Note_on_c, 0, 48, 0
3, 9360, Note_on_c, 0, 48, 100
3, 9478, Note_on_c, 0, 48, 0
3, 9480, Note_on_c, 0, 48, 100
3, 9598, Note_on_c, 0, 48, 0
3, 9600, Note_on_c, 0, 36, 100
3, 9838, Note_on_c, 0, 36, 0
3, 9840, Note_on_c, 0, 36, 100
3, 10078, Note_on_c, 0, 36, 0
3, 10080, Note_on_c, 0, 48, 100
3, 10198, Note_on_c, 0, 48, 0
3, 10200, Note_on_c, 0, 36, 100
3, 10558, Note_on_c, 0, 36, 0
3, 10560, Note_on_c, 0, 36, 100
3, 10918, Note_on_c, 0, 36, 0
3, 10920, Note_on_c, 0, 36, 100
3, 11038, Note_on_c, 0, 36, 0
3, 11040, Note_on_c, 0, 48, 100
3, 11278, Note_on_c, 0, 48, 0
3, 11280, Note_on_c, 0, 48, 100
3, 11398, Note_on_c, 0, 48, 0
3, 11400, Note_on_c, 0, 48, 100
3, 11518, Note_on_c, 0, 48, 0
3, 11520, Note_on_c, 0, 38, 100
3, 11520, Control_c, 0, 7, 125
3, 11758, Note_on_c, 0, 38, 0
3, 11760, Note_on_c, 0, 38, 100
3, 11998, Note_on_c, 0, 38, 0
3, 12000, Note_on_c, 0, 50, 100
3, 12118, Note_on_c, 0, 50, 0
3, 12120, Note_on_c, 0, 38, 100
3, 12478, Note_on_c, 0, 38, 0
3, 12480, Note_on_c, 0, 38, 100
3, 12838, Note_on_c, 0, 38, 0
3, 12840, Note_on_c, 0, 38, 100
3, 12958, Note_on_c, 0, 38, 0
3, 12960, Note_on_c, 0, 50, 100
3, 13198, Note_on_c, 0, 50, 0
3, 13200, Note_on_c, 0, 50, 100
3, 13318, Note_on_c, 0, 50, 0
3, 13320, Note_on_c, 0, 50, 100
3, 13438, Note_on_c, 0, 50, 0
3, 13440, Note_on_c, 0, 41, 100
3, 13678, Note_on_c, 0, 41, 0
3, 13680, Note_on_c, 0, 41, 100
3, 13918, Note_on_c, 0, 41, 0
3, 13920, Note_on_c, 0, 53, 100
3, 14038, Note_on_c, 0, 53, 0
3, 14040, Note_on_c, 0, 41, 100
3, 14398, Note_on_c, 0, 41, 0
3, 14400, Note_on_c, 0, 41, 100
3, 14758, Note_on_c, 0, 41, 0
3, 14760, Note_on_c, 0, 41, 100
3, 14878, Note_on_c, 0, 41, 0
3, 14880, Note_on_c, 0, 53, 100
3, 15118, Note_on_c, 0, 53, 0
3, 15120, Note_on_c, 0, 53, 100
3, 15238, Note_on_c, 0, 53, 0
3, 15240, Note_on_c, 0, 53, 100
3, 15358, Note_on_c, 0, 53, 0
3, 15360, Note_on_c, 0, 36, 100
3, 15598, Note_on_c, 0, 36, 0
3, 15600, Note_on_c, 0, 36, 100
3, 15838, Note_on_c, 0, 36, 0
3, 15840, Note_on_c, 0, 48, 100
3, 15958, Note_on_c, 0, 48, 0
3, 15960, Note_on_c, 0, 36, 100
3, 16318, Note_on_c, 0, 36, 0
3, 16320, Note_on_c, 0, 36, 100
3, 16678, Note_on_c, 0, 36, 0
3, 16680, Note_on_c, 0, 36, 100
3, 16798, Note_on_c, 0, 36, 0
3, 16800, Note_on_c, 0, 48, 100
3, 17038, Note_on_c, 0, 48, 0
3, 17040, Note_on_c, 0, 48, 100
3, 17158, Note_on_c, 0, 48, 0
3, 17160, Note_on_c, 0, 48, 100
3, 17278, Note_on_c, 0, 48, 0
3, 17280, Note_on_c, 0, 36, 100
3, 17518, Note_on_c, 0, 36, 0
3, 17520, Note_on_c, 0, 36, 100
3, 17758, Note_on_c, 0, 36, 0
3, 17760, Note_on_c, 0, 48, 100
3, 17878, Note_on_c, 0, 48, 0
3, 17880, Note_on_c, 0, 36, 100
3, 18238, Note_on_c, 0, 36, 0
3, 18240, Note_on_c, 0, 36, 100
3, 18598, Note_on_c, 0, 36, 0
3, 18600, Note_on_c, 0, 36, 100
3, 18718, Note_on_c, 0, 36, 0
3, 18720, Note_on_c, 0, 48, 100
3, 18958, Note_on_c, 0, 48, 0
3, 18960, Note_on_c, 0, 48, 100
3, 19078, Note_on_c, 0, 48, 0
3, 19080, Note_on_c, 0, 48, 100
3, 19198, Note_on_c, 0, 48, 0
3, 19200, Note_on_c, 0, 38, 100
3, 19200, Control_c, 0, 7, 125
3, 19438, Note_on_c, 0, 38, 0
3, 19440, Note_on_c, 0, 38, 100
3, 19678, Note_on_c, 0, 38, 0
3, 19680, Note_on_c, 0, 50, 100
3, 19798, Note_on_c, 0, 50, 0
3, 19800, Note_on_c, 0, 38, 100
3, 20158, Note_on_c, 0, 38, 0
3, 20160, Note_on_c, 0, 38, 100
3, 20518, Note_on_c, 0, 38, 0
3, 20520, Note_on_c, 0, 38, 100
3, 20638, Note_on_c, 0, 38, 0
3, 20640, Note_on_c, 0, 50, 100
3, 20878, Note_on_c, 0, 50, 0
3, 20880, Note_on_c, 0, 50, 100
3, 20998, Note_on_c, 0, 50, 0
3, 21000, Note_on_c, 0, 50, 100
3, 21118, Note_on_c, 0, 50, 0
3, 21120, Note_on_c, 0, 41, 100
3, 21358, Note_on_c, 0, 41, 0
3, 21360, Note_on_c, 0, 41, 100
3, 21598, Note_on_c, 0, 41, 0
3, 21600, Note_on_c, 0, 53, 100
3, 21718, Note_on_c, 0, 53, 0
3, 21720, Note_on_c, 0, 41, 100
3, 22078, Note_on_c, 0, 41, 0
3, 22080, Note_on_c, 0, 41, 100
3, 22438, Note_on_c, 0, 41, 0
3, 22440, Note_on_c, 0, 41, 100
3, 22558, Note_on_c, 0, 41, 0
3, 22560, Note_on_c, 0, 53, 100
3, 22798, Note_on_c, 0, 53, 0
3, 22800, Note_on_c, 0, 53, 100
3, 22918, Note_on_c, 0, 53, 0
3, 22920, Note_on_c, 0, 53, 100
3, 23038, Note_on_c, 0, 53, 0
3, 23040, Note_on_c, 0, 36, 100
3, 23278, Note_on_c, 0, 36, 0
3, 23280, Note_on_c, 0, 36, 100
3, 23518, Note_on_c, 0, 36, 0
3, 23520, Note_on_c, 0, 48, 100
3, 23638, Note_on_c, 0, 48, 0
3, 23640, Note_on_c, 0, 36, 100
3, 23998, Note_on_c, 0, 36, 0
3, 24000, Note_on_c, 0, 36, 100
3, 24358, Note_on_c, 0, 36, 0
3, 24360, Note_on_c, 0, 36, 100
3, 24478, Note_on_c, 0, 36, 0
3, 24480, Note_on_c, 0, 48, 100
3, 24718, Note_on_c, 0, 48, 0
3, 24720, Note_on_c, 0, 48, 100
3, 24838, Note_on_c, 0, 48, 0
3, 24840, Note_on_c, 0, 48, 100
3, 24958, Note_on_c, 0, 48, 0
3, 24960, Note_on_c, 0, 36, 100
3, 25198, Note_on_c, 0, 36, 0
3, 25200, Note_on_c, 0, 36, 100
3, 25438, Note_on_c, 0, 36, 0
3, 25440, Note_on_c, 0, 48, 100
3, 25558, Note_on_c, 0, 48, 0
3, 25560, Note_on_c, 0, 36, 100
3, 25918, Note_on_c, 0, 36, 0
3, 25920, Note_on_c, 0, 36, 100
3, 26278, Note_on_c, 0, 36, 0
3, 26280, Note_on_c, 0, 36, 100
3, 26398, Note_on_c, 0, 36, 0
3, 26400, Note_on_c, 0, 48, 100
3, 26638, Note_on_c, 0, 48, 0
3, 26640, Note_on_c, 0, 48, 100
3, 26758, Note_on_c, 0, 48, 0
3, 26760, Note_on_c, 0, 48, 100
3, 26878, Note_on_c, 0, 48, 0
3, 26880, Note_on_c, 0, 38, 100
3, 26880, Control_c, 0, 7, 125
3, 27118, Note_on_c, 0, 38, 0
3, 27120, Note_on_c, 0, 38, 100
3, 27358, Note_on_c, 0, 38, 0
3, 27360, Note_on_c, 0, 50, 100
3, 27478, Note_on_c, 0, 50, 0
3, 27480, Note_on_c, 0, 38, 100
3, 27838, Note_on_c, 0, 38, 0
3, 27840, Note_on_c, 0, 38, 100
3, 28198, Note_on_c, 0, 38, 0
3, 28200, Note_on_c, 0, 38, 100
3, 28318, Note_on_c, 0, 38, 0
3, 28320, Note_on_c, 0, 50, 100
3, 28558, Note_on_c, 0, 50, 0
3, 28560, Note_on_c, 0, 50, 100
3, 28678, Note_on_c, 0, 50, 0
3, 28680, Note_on_c, 0, 50, 100
3, 28798, Note_on_c, 0, 50, 0
3, 28800, Note_on_c, 0, 41, 100
3, 29038, Note_on_c, 0, 41, 0
3, 29040, Note_on_c, 0, 41, 100
3, 29278, Note_on_c, 0, 41, 0
3, 29280, Note_on_c, 0, 53, 100
3, 29398, Note_on_c, 0, 53, 0
3, 29400, Note_on_c, 0, 41, 100
3, 29758, Note_on_c, 0, 41, 0
3, 29760, Note_on_c, 0, 41, 100
3, 30118, Note_on_c, 0, 41, 0
3, 30120, Note_on_c, 0, 41, 100
3, 30238, Note_on_c, 0, 41, 0
3, 30240, Note_on_c, 0, 53, 100
3, 30478, Note_on_c, 0, 53, 0
3, 30480, Note_on_c, 0, 53, 100
3, 30598, Note_on_c, 0, 53, 0
3, 30600, Note_on_c, 0, 53, 100
3, 30718, Note_on_c, 0, 53, 0
3, 30720, Note_on_c, 0, 36, 100
3, 30958, Note_on_c, 0, 36, 0
3, 30960, Note_on_c, 0, 36, 100
3, 31198, Note_on_c, 0, 36, 0
3, 31200, Note_on_c, 0, 48, 100
3, 31318, Note_on_c, 0, 48, 0
3, 31320, Note_on_c, 0, 36, 100
3, 31678, Note_on_c, 0, 36, 0
3, 31680, Note_on_c, 0, 36, 100
3, 32038, Note_on_c, 0, 36, 0
3, 32040, Note_on_c, 0, 36, 100
3, 32158, Note_on_c, 0, 36, 0
3, 32160, Note_on_c, 0, 48, 100
3, 32398, Note_on_c, 0, 48, 0
3, 32400, Note_on_c, 0, 48, 100
3, 32518, Note_on_c, 0, 48, 0
3, 32520, Note_on_c, 0, 48, 100
3, 32638, Note_on_c, 0, 48, 0
3, 32640, Note_on_c, 0, 36, 100
3, 32878, Note_on_c, 0, 36, 0
3, 32880, Note_on_c, 0, 36, 100
3, 33118, Note_on_c, 0, 36, 0
3, 33120, Note_on_c, 0, 48, 100
3, 33238, Note_on_c, 0, 48, 0
3, 33240, Note_on_c, 0, 36, 100
3, 33598, Note_on_c, 0, 36, 0
3, 33600, Note_on_c, 0, 36, 100
3, 33958, Note_on_c, 0, 36, 0
3, 33960, Note_on_c, 0, 36, 100
3, 34078, Note_on_c, 0, 36, 0
3, 34080, Note_on_c, 0, 48, 100
3, 34318, Note_on_c, 0, 48, 0
3, 34320, Note_on_c, 0, 48, 100
3, 34438, Note_on_c, 0, 48, 0
3, 34440, Note_on_c, 0, 48, 100
3, 34558, Note_on_c, 0, 48, 0
3, 34560, Note_on_c, 0, 38, 100
3, 34560, Control_c, 0, 7, 125
3, 34798, Note_on_c, 0, 38, 0
3, 34800, Note_on_c, 0, 38, 100
3, 35038, Note_on_c, 0, 38, 0
3, 35040, Note_on_c, 0, 50, 100
3, 35158, Note_on_c, 0, 50, 0
3, 35160, Note_on_c, 0, 38, 100
3, 35518, Note_on_c, 0, 38, 0
3, 35520, Note_on_c, 0, 38, 100
3, 35878, Note_on_c, 0, 38, 0
3, 35880, Note_on_c, 0, 38, 100
3, 35998, Note_on_c, 0, 38, 0
3, 36000, Note_on_c, 0, 50, 100
3, 36238, Note_on_c, 0, 50, 0
3, 36240, Note_on_c, 0, 50, 100
3, 36358, Note_on_c, 0, 50, 0
3, 36360, Note_on_c, 0, 50, 100
3, 36478, Note_on_c, 0, 50, 0
3, 36480, Note_on_c, 0, 41, 100
3, 36718, Note_on_c, 0, 41, 0
3, 36720, Note_on_c, 0, 41, 100
3, 36958, Note_on_c, 0, 41, 0
3, 36960, Note_on_c, 0, 53, 100
3, 37078, Note_on_c, 0, 53, 0
3, 37080, Note_on_c, 0, 41, 100
3, 37438, Note_on_c, 0, 41, 0
3, 37440, Note_on_c, 0, 41, 100
3, 37798, Note_on_c, 0, 41, 0
3, 37800, Note_on_c, 0, 41, 100
3, 37918, Note_on_c, 0, 41, 0
3, 37920, Note_on_c, 0, 53, 100
3, 38158, Note_on_c, 0, 53, 0
3, 38160, Note_on_c, 0, 53, 100
3, 38278, Note_on_c, 0, 53, 0
3, 38280, Note_on_c, 0, 53, 100
3, 38398, Note_on_c, 0, 53, 0
3, 38400, Note_on_c, 0, 36, 100
3, 38638, Note_on_c, 0, 36, 0
3, 38640, Note_on_c, 0, 36, 100
3, 38878, Note_on_c, 0, 36, 0
3, 38880, Note_on_c, 0, 48, 100
3, 38998, Note_on_c, 0, 48, 0
3, 39000, Note_on_c, 0, 36, 100
3, 39358, Note_on_c, 0, 36, 0
3, 39360, Note_on_c, 0, 36, 100
3, 39718, Note_on_c, 0, 36, 0
3, 39720, Note_on_c, 0, 36, 100
3, 39838, Note_on_c, 0, 36, 0
3, 39840, Note_on_c, 0, 48, 100
3, 40078, Note_on_c, 0, 48, 0
3, 40080, Note_on_c, 0, 48, 100
3, 40198, Note_on_c, 0, 48, 0
3, 40200, Note_on_c, 0, 48, 100
3, 40318, Note_on_c, 0, 48, 0
3, 40320, Note_on_c, 0, 36, 100
3, 40558, Note_on_c, 0, 36, 0
3, 40560, Note_on_c, 0, 36, 100
3, 40798, Note_on_c, 0, 36, 0
3, 40800, Note_on_c, 0, 48, 100
3, 40918, Note_on_c, 0, 48, 0
3, 40920, Note_on_c, 0, 36, 100
3, 41278, Note_on_c, 0, 36, 0
3, 41280, Note_on_c, 0, 36, 100
3, 41638, Note_on_c, 0, 36, 0
3, 41640, Note_on_c, 0, 36, 100
3, 41758, Note_on_c, 0, 36, 0
3, 41760, Note_on_c, 0, 48, 100
3, 41998, Note_on_c, 0, 48, 0
3, 42000, Note_on_c, 0, 48, 100
3, 42118, Note_on_c, 0, 48, 0
3, 42120, Note_on_c, 0, 48, 100
3, 42238, Note_on_c, 0, 48, 0
3, 46080, Note_on_c, 0, 38, 100
3, 46080, Control_c, 0, 7, 125
3, 46318, Note_on_c, 0, 38, 0
3, 46320, Note_on_c, 0, 38, 100
3, 46558, Note_on_c, 0, 38, 0
3, 46560, Note_on_c, 0, 50, 100
3, 46678, Note_on_c, 0, 50, 0
3, 46680, Note_on_c, 0, 38, 100
3, 47038, Note_on_c, 0, 38, 0
3, 47040, Note_on_c, 0, 38, 100
3, 47398, Note_on_c, 0, 38, 0
3, 47400, Note_on_c, 0, 38, 100
3, 47518, Note_on_c, 0, 38, 0
3, 47520, Note_on_c, 0, 50, 100
3, 47758, Note_on_c, 0, 50, 0
3, 47760, Note_on_c, 0, 50, 100
3, 47878, Note_on_c, 0, 50, 0
3, 47880, Note_on_c, 0, 50, 100
3, 47998, Note_on_c, 0, 50, 0
3, 48000, Note_on_c, 0, 41, 100
3, 48238, Note_on_c, 0, 41, 0
3, 48240, Note_on_c, 0, 41, 100
3, 48478, Note_on_c, 0, 41, 0
3, 48480, Note_on_c, 0, 53, 100
3, 48598, Note_on_c, 0, 53, 0
3, 48600, Note_on_c, 0, 41, 100
3, 48958, Note_on_c, 0, 41, 0
3, 48960, Note_on_c, 0, 41, 100
3, 49318, Note_on_c, 0, 41, 0
3, 49320, Note_on_c, 0, 41, 100
3, 49438, Note_on_c, 0, 41, 0
3, 49440, Note_on_c, 0, 53, 100
3, 49678, Note_on_c, 0, 53, 0
3, 49680, Note_on_c, 0, 53, 100
3, 49798, Note_on_c, 0, 53, 0
3, 49800, Note_on_c, 0, 53, 100
3, 49918, Note_on_c, 0, 53, 0
3, 49920, Note_on_c, 0, 36, 100
3, 50158, Note_on_c, 0, 36, 0
3, 50160, Note_on_c, 0, 36, 100
3, 50398, Note_on_c, 0, 36, 0
3, 50400, Note_on_c, 0, 48, 100
3, 50518, Note_on_c, 0, 48, 0
3, 50520, Note_on_c, 0, 36, 100
3, 50878, Note_on_c, 0, 36, 0
3, 50880, Note_on_c, 0, 36, 100
3, 51238, Note_on_c, 0, 36, 0
3, 51240, Note_on_c, 0, 36, 100
3, 51358, Note_on_c, 0, 36, 0
3, 51360, Note_on_c, 0, 48, 100
3, 51598, Note_on_c, 0, 48, 0
3, 51600, Note_on_c, 0, 48, 100
3, 51718, Note_on_c, 0, 48, 0
3, 51720, Note_on_c, 0, 48, 100
3, 51838, Note_on_c, 0, 48, 0
3, 51840, Note_on_c, 0, 36, 100
3, 52078, Note_on_c, 0, 36, 0
3, 52080, Note_on_c, 0, 36, 100
3, 52318, Note_on_c, 0, 36, 0
3, 52320, Note_on_c, 0, 48, 100
3, 52438, Note_on_c, 0, 48, 0
3, 52440, Note_on_c, 0, 36, 100
3, 52798, Note_on_c, 0, 36, 0
3, 52800, Note_on_c, 0, 36, 100
3, 53158, Note_on_c, 0, 36, 0
3, 53160, Note_on_c, 0, 36, 100
3, 53278, Note_on_c, 0, 36, 0
3, 53280, Note_on_c, 0, 48, 100
3, 53518, Note_on_c, 0, 48, 0
3, 53520, Note_on_c, 0, 48, 100
3, 53638, Note_on_c, 0, 48, 0
3, 53640, Note_on_c, 0, 48, 100
3, 53758, Note_on_c, 0, 48, 0
3, 53760, Note_on_c, 0, 38, 100
3, 53760, Control_c, 0, 7, 125
3, 53998, Note_on_c, 0, 38, 0
3, 54000, Note_on_c, 0, 38, 100
3, 54238, Note_on_c, 0, 38, 0
3, 54240, Note_on_c, 0, 50, 100
3, 54358, Note_on_c, 0, 50, 0
3, 54360, Note_on_c, 0, 38, 100
3, 54718, Note_on_c, 0, 38, 0
3, 54720, Note_on_c, 0, 38, 100
3, 55078, Note_on_c, 0, 38, 0
3, 55080, Note_on_c, 0, 38, 100
3, 55198, Note_on_c, 0, 38, 0
3, 55200, Note_on_c, 0, 50, 100
3, 55438, Note_on_c, 0, 50, 0
3, 55440, Note_on_c, 0, 50, 100
3, 55558, Note_on_c, 0, 50, 0
3, 55560, Note_on_c, 0, 50, 100
3, 55678, Note_on_c, 0, 50, 0
3, 55680, Note_on_c, 0, 41, 100
3, 55918, Note_on_c, 0, 41, 0
3, 55920, Note_on_c, 0, 41, 100
3, 56158, Note_on_c, 0, 41, 0
3, 56160, Note_on_c, 0, 53, 100
3, 56278, Note_on_c, 0, 53, 0
3, 56280, Note_on_c, 0, 41, 100
3, 56638, Note_on_c, 0, 41, 0
3, 56640, Note_on_c, 0, 41, 100
3, 56998, Note_on_c, 0, 41, 0
3, 57000, Note_on_c, 0, 41, 100
3, 57118, Note_on_c, 0, 41, 0
3, 57120, Note_on_c, 0, 53, 100
3, 57358, Note_on_c, 0, 53, 0
3, 57360, Note_on_c, 0, 53, 100
3, 57478, Note_on_c, 0, 53, 0
3, 57480, Note_on_c, 0, 53, 100
3, 57598, Note_on_c, 0, 53, 0
3, 57600, Note_on_c, 0, 36, 100
3, 57838, Note_on_c, 0, 36, 0
3, 57840, Note_on_c, 0, 36, 100
3, 58078, Note_on_c, 0, 36, 0
3, 58080, Note_on_c, 0, 48, 100
3, 58198, Note_on_c, 0, 48, 0
3, 58200, Note_on_c, 0, 36, 100
3, 58558, Note_on_c, 0, 36, 0
3, 58560, Note_on_c, 0, 36, 100
3, 58918, Note_on_c, 0, 36, 0
3, 58920, Note_on_c, 0, 36, 100
3, 59038, Note_on_c, 0, 36, 0
3, 59040, Note_on_c, 0, 48, 100
3, 59278, Note_on_c, 0, 48, 0
3, 59280, Note_on_c, 0, 48, 100
3, 59398, Note_on_c, 0, 48, 0
3, 59400, Note_on_c, 0, 48, 100
3, 59518, Note_on_c, 0, 48, 0
3, 59520, Note_on_c, 0, 36, 100
3, 59758, Note_on_c, 0, 36, 0
3, 59760, Note_on_c, 0, 36, 100
3, 59998, Note_on_c, 0, 36, 0
3, 60000, Note_on_c, 0, 48, 100
3, 60118, Note_on_c, 0, 48, 0
3, 60120, Note_on_c, 0, 36, 100
3, 60478, Note_on_c, 0, 36, 0
3, 60480, Note_on_c, 0, 36, 100
3, 60838, Note_on_c, 0, 36, 0
3, 60840, Note_on_c, 0, 36, 100
3, 60958, Note_on_c, 0, 36, 0
3, 60960, Note_on_c, 0, 48, 100
3, 61198, Note_on_c, 0, 48, 0
3, 61200, Note_on_c, 0, 48, 100
3, 61318, Note_on_c, 0, 48, 0
3, 61320, Note_on_c, 0, 48, 100
3, 61438, Note_on_c, 0, 48, 0
3, 61440, Note_on_c, 0, 38, 100
3, 61440, Control_c, 0, 7, 125
3, 61678, Note_on_c, 0, 38, 0
3, 61680, Note_on_c, 0, 38, 100
3, 61918, Note_on_c, 0, 38, 0
3, 61920, Note_on_c, 0, 50, 100
3, 62038, Note_on_c, 0, 50, 0
3, 62040, Note_on_c, 0, 38, 100
3, 62398, Note_on_c, 0, 38, 0
3, 62400, Note_on_c, 0, 38, 100
3, 62758, Note_on_c, 0, 38, 0
3, 62760, Note_on_c, 0, 38, 100
3, 62878, Note_on_c, 0, 38, 0
3, 62880, Note_on_c, 0, 50, 100
3, 63118, Note_on_c, 0, 50, 0
3, 63120, Note_on_c, 0, 50, 100
3, 63238, Note_on_c, 0, 50, 0
3, 63240, Note_on_c, 0, 50, 100
3, 63358, Note_on_c, 0, 50, 0
3, 63360, Note_on_c, 0, 41, 100
3, 63598, Note_on_c, 0, 41, 0
3, 63600, Note_on_c, 0, 41, 100
3, 63838, Note_on_c, 0, 41, 0
3, 63840, Note_on_c, 0, 53, 100
3, 63958, Note_on_c, 0, 53, 0
3, 63960, Note_on_c, 0, 41, 100
3, 64318, Note_on_c, 0, 41, 0
3, 64320, Note_on_c, 0, 41, 100
3, 64678, Note_on_c, 0, 41, 0
3, 64680, Note_on_c, 0, 41, 100
3, 64798, Note_on_c, 0, 41, 0
3, 64800, Note_on_c, 0, 53, 100
3, 65038, Note_on_c, 0, 53, 0
3, 65040, Note_on_c, 0, 53, 100
3, 65158, Note_on_c, 0, 53, 0
3, 65160, Note_on_c, 0, 53, 100
3, 65278, Note_on_c, 0, 53, 0
3, 65280, Note_on_c, 0, 36, 100
3, 65518, Note_on_c, 0, 36, 0
3, 65520, Note_on_c, 0, 36, 100
3, 65758, Note_on_c, 0, 36, 0
3, 65760, Note_on_c, 0, 48, 100
3, 65878, Note_on_c, 0, 48, 0
3, 65880, Note_on_c, 0, 36, 100
3, 66238, Note_on_c, 0, 36, 0
3, 66240, Note_on_c, 0, 36, 100
3, 66598, Note_on_c, 0, 36, 0
3, 66600, Note_on_c, 0, 36, 100
3, 66718, Note_on_c, 0, 36, 0
3, 66720, Note_on_c, 0, 48, 100
3, 66958, Note_on_c, 0, 48, 0
3, 66960, Note_on_c, 0, 48, 100
3, 67078, Note_on_c, 0, 48, 0
3, 67080, Note_on_c, 0, 48, 100
3, 67198, Note_on_c, 0, 48, 0
3, 67200, Note_on_c, 0, 36, 100
3, 67438, Note_on_c, 0, 36, 0
3, 67440, Note_on_c, 0, 36, 100
3, 67678, Note_on_c, 0, 36, 0
3, 67680, Note_on_c, 0, 48, 100
3, 67798, Note_on_c, 0, 48, 0
3, 67800, Note_on_c, 0, 36, 100
3, 68158, Note_on_c, 0, 36, 0
3, 68160, Note_on_c, 0, 36, 100
3, 68518, Note_on_c, 0, 36, 0
3, 68520, Note_on_c, 0, 36, 100
3, 68638, Note_on_c, 0, 36, 0
3, 68640, Note_on_c, 0, 48, 100
3, 68878, Note_on_c, 0, 48, 0
3, 68880, Note_on_c, 0, 48, 100
3, 68998, Note_on_c, 0, 48, 0
3, 69000, Note_on_c, 0, 48, 100
3, 69118, Note_on_c, 0, 48, 0
3, 69120, Note_on_c, 0, 38, 100
3, 69120, Control_c, 0, 7, 125
3, 69358, Note_on_c, 0, 38, 0
3, 69360, Note_on_c, 0, 38, 100
3, 69598, Note_on_c, 0, 38, 0
3, 69600, Note_on_c, 0, 50, 100
3, 69718, Note_on_c, 0, 50, 0
3, 69720, Note_on_c, 0, 38, 100
3, 70078, Note_on_c, 0, 38, 0
3, 70080, Note_on_c, 0, 38, 100
3, 70438, Note_on_c, 0, 38, 0
3, 70440, Note_on_c, 0, 38, 100
3, 70558, Note_on_c, 0, 38, 0
3, 70560, Note_on_c, 0, 50, 100
3, 70798, Note_on_c, 0, 50, 0
3, 70800, Note_on_c, 0, 50, 100
3, 70918, Note_on_c, 0, 50, 0
3, 70920, Note_on_c, 0, 50, 100
3, 71038, Note_on_c, 0, 50, 0
3, 71040, Note_on_c, 0, 41, 100
3, 71278, Note_on_c, 0, 41, 0
3, 71280, Note_on_c, 0, 41, 100
3, 71518, Note_on_c, 0, 41, 0
3, 71520, Note_on_c, 0, 53, 100
3, 71638, Note_on_c, 0, 53, 0
3, 71640, Note_on_c, 0, 41, 100
3, 71998, Note_on_c, 0, 41, 0
3, 72000, Note_on_c, 0, 41, 100
3, 72358, Note_on_c, 0, 41, 0
3, 72360, Note_on_c, 0, 41, 100
3, 72478, Note_on_c, 0, 41, 0
3, 72480, Note_on_c, 0, 53, 100
3, 72718, Note_on_c, 0, 53, 0
3, 72720, Note_on_c, 0, 53, 100
3, 72838, Note_on_c, 0, 53, 0
3, 72840, Note_on_c, 0, 53, 100
3, 72958, Note_on_c, 0, 53, 0
3, 72960, Note_on_c, 0, 36, 100
3, 73198, Note_on_c, 0, 36, 0
3, 73200, Note_on_c, 0, 36, 100
3, 73438, Note_on_c, 0, 36, 0
3, 73440, Note_on_c, 0, 48, 100
3, 73558, Note_on_c, 0, 48, 0
3, 73560, Note_on_c, 0, 36, 100
3, 73918, Note_on_c, 0, 36, 0
3, 73920, Note_on_c, 0, 36, 100
3, 74278, Note_on_c, 0, 36, 0
3, 74280, Note_on_c, 0, 36, 100
3, 74398, Note_on_c, 0, 36, 0
3, 74400, Note_on_c, 0, 48, 100
3, 74638, Note_on_c, 0, 48, 0
3, 74640, Note_on_c, 0, 48, 100
3, 74758, Note_on_c, 0, 48, 0
3, 74760, Note_on_c, 0, 48, 100
3, 74878, Note_on_c, 0, 48, 0
3, 74880, Note_on_c, 0, 36, 100
3, 75118, Note_on_c, 0, 36, 0
3, 75120, Note_on_c, 0, 36, 100
3, 75358, Note_on_c, 0, 36, 0
3, 75360, Note_on_c, 0, 48, 100
3, 75478, Note_on_c, 0, 48, 0
3, 75480, Note_on_c, 0, 36, 100
3, 75838, Note_on_c, 0, 36, 0
3, 75840, Note_on_c, 0, 36, 100
3, 76198, Note_on_c, 0, 36, 0
3, 76200, Note_on_c, 0, 36, 100
3, 76318, Note_on_c, 0, 36, 0
3, 76320, Note_on_c, 0, 48, 100
3, 76558, Note_on_c, 0, 48, 0
3, 76560, Note_on_c, 0, 48, 100
3, 76678, Note_on_c, 0, 48, 0
3, 76680, Note_on_c, 0, 48, 100
3, 76798, Note_on_c, 0, 48, 0
3, 76800, Note_on_c, 0, 38, 100
3, 76800, Control_c, 0, 7, 125
3, 77038, Note_on_c, 0, 38, 0
3, 77040, Note_on_c, 0, 38, 100
3, 77278, Note_on_c, 0, 38, 0
3, 77280, Note_on_c, 0, 50, 100
3, 77398, Note_on_c, 0, 50, 0
3, 77400, Note_on_c, 0, 38, 100
3, 77758, Note_on_c, 0, 38, 0
3, 77760, Note_on_c, 0, 38, 100
3, 78118, Note_on_c, 0, 38, 0
3, 78120, Note_on_c, 0, 38, 100
3, 78238, Note_on_c, 0, 38, 0
3, 78240, Note_on_c, 0, 50, 100
3, 78478, Note_on_c, 0, 50, 0
3, 78480, Note_on_c, 0, 50, 100
3, 78598, Note_on_c, 0, 50, 0
3, 78600, Note_on_c, 0, 50, 100
3, 78718, Note_on_c, 0, 50, 0
3, 78720, Note_on_c, 0, 41, 100
3, 78958, Note_on_c, 0, 41, 0
3, 78960, Note_on_c, 0, 41, 100
3, 79198, Note_on_c, 0, 41, 0
3, 79200, Note_on_c, 0, 53, 100
3, 79318, Note_on_c, 0, 53, 0
3, 79320, Note_on_c, 0, 41, 100
3, 79678, Note_on_c, 0, 41, 0
3, 79680, Note_on_c, 0, 41, 100
3, 80038, Note_on_c, 0, 41, 0
3, 80040, Note_on_c, 0, 41, 100
3, 80158, Note_on_c, 0, 41, 0
3, 80160, Note_on_c, 0, 53, 100
3, 80398, Note_on_c, 0, 53, 0
3, 80400, Note_on_c, 0, 53, 100
3, 80518, Note_on_c, 0, 53, 0
3, 80520, Note_on_c, 0, 53, 100
3, 80638, Note_on_c, 0, 53, 0
3, 80640, Note_on_c, 0, 36, 100
3, 80878, Note_on_c, 0, 36, 0
3, 80880, Note_on_c, 0, 36, 100
3, 81118, Note_on_c, 0, 36, 0
3, 81120, Note_on_c, 0, 48, 100
3, 81238, Note_on_c, 0, 48, 0
3, 81240, Note_on_c, 0, 36, 100
3, 81598, Note_on_c, 0, 36, 0
3, 81600, Note_on_c, 0, 36, 100
3, 81958, Note_on_c, 0, 36, 0
3, 81960, Note_on_c, 0, 36, 100
3, 82078, Note_on_c, 0, 36, 0
3, 82080, Note_on_c, 0, 48, 100
3, 82318, Note_on_c, 0, 48, 0
3, 82320, Note_on_c, 0, 48, 100
3, 82438, Note_on_c, 0, 48, 0
3, 82440, Note_on_c, 0, 48, 100
3, 82558, Note_on_c, 0, 48, 0
3, 82560, Note_on_c, 0, 36, 100
3, 82798, Note_on_c, 0, 36, 0
3, 82800, Note_on_c, 0, 36, 100
3, 83038, Note_on_c, 0, 36, 0
3, 83040, Note_on_c, 0, 48, 100
3, 83158, Note_on_c, 0, 48, 0
3, 83160, Note_on_c, 0, 36, 100
3, 83518, Note_on_c, 0, 36, 0
3, 83520, Note_on_c, 0, 36, 100
3, 83878, Note_on_c, 0, 36, 0
3, 83880, Note_on_c, 0, 36, 100
3, 83998, Note_on_c, 0, 36, 0
3, 84000, Note_on_c, 0, 48, 100
3, 84238, Note_on_c, 0, 48, 0
3, 84240, Note_on_c, 0, 48, 100
3, 84358, Note_on_c, 0, 48, 0
3, 84360, Note_on_c, 0, 48, 100
3, 84478, Note_on_c, 0, 48, 0
3, 84920, Note_on_c, 0, 74, 100
3, 84930, Control_c, 0, 7, 112
3, 85038, Note_on_c, 0, 74, 0
3, 85040, Note_on_c, 0, 74, 100
3, 85158, Note_on_c, 0, 74, 0
3, 85160, Note_on_c, 0, 77, 100
3, 85398, Note_on_c, 0, 77, 0
3, 85400, Note_on_c, 0, 76, 100
3, 85518, Note_on_c, 0, 76, 0
3, 85520, Note_on_c, 0, 72, 100
3, 85758, Note_on_c, 0, 72, 0
3, 85760, Note_on_c, 0, 74, 100
3, 85998, Note_on_c, 0, 74, 0
3, 85998, End_track
4, 0, Start_track
4, 0, MIDI_port, 0
4, 0, Title_t," ""Amstrad CPC"""
4, 0, Program_c, 1, 90
4, 11520, Note_on_c, 1, 62, 100
4, 11758, Note_on_c, 1, 62, 0
4, 11760, Note_on_c, 1, 62, 100
4, 11998, Note_on_c, 1, 62, 0
4, 12000, Note_on_c, 1, 64, 100
4, 12118, Note_on_c, 1, 64, 0
4, 12120, Note_on_c, 1, 65, 100
4, 12238, Note_on_c, 1, 65, 0
4, 12360, Note_on_c, 1, 65, 100
4, 12598, Note_on_c, 1, 65, 0
4, 13440, Note_on_c, 1, 65, 100
4, 13678, Note_on_c, 1, 65, 0
4, 13680, Note_on_c, 1, 65, 100
4, 13918, Note_on_c, 1, 65, 0
4, 13920, Note_on_c, 1, 67, 100
4, 14038, Note_on_c, 1, 67, 0
4, 14040, Note_on_c, 1, 69, 100
4, 14158, Note_on_c, 1, 69, 0
4, 14280, Note_on_c, 1, 69, 100
4, 14518, Note_on_c, 1, 69, 0
4, 15360, Note_on_c, 1, 60, 100
4, 15598, Note_on_c, 1, 60, 0
4, 15600, Note_on_c, 1, 60, 100
4, 15838, Note_on_c, 1, 60, 0
4, 15840, Note_on_c, 1, 62, 100
4, 15958, Note_on_c, 1, 62, 0
4, 15960, Note_on_c, 1, 64, 100
4, 16078, Note_on_c, 1, 64, 0
4, 16200, Note_on_c, 1, 64, 100
4, 16438, Note_on_c, 1, 64, 0
4, 17280, Note_on_c, 1, 60, 100
4, 17518, Note_on_c, 1, 60, 0
4, 17520, Note_on_c, 1, 60, 100
4, 17758, Note_on_c, 1, 60, 0
4, 17760, Note_on_c, 1, 62, 100
4, 17878, Note_on_c, 1, 62, 0
4, 17880, Note_on_c, 1, 64, 100
4, 17998, Note_on_c, 1, 64, 0
4, 18120, Note_on_c, 1, 64, 100
4, 18358, Note_on_c, 1, 64, 0
4, 19200, Note_on_c, 1, 62, 100
4, 19438, Note_on_c, 1, 62, 0
4, 19440, Note_on_c, 1, 62, 100
4, 19678, Note_on_c, 1, 62, 0
4, 19680, Note_on_c, 1, 64, 100
4, 19798, Note_on_c, 1, 64, 0
4, 19800, Note_on_c, 1, 65, 100
4, 19918, Note_on_c, 1, 65, 0
4, 20040, Note_on_c, 1, 65, 100
4, 20278, Note_on_c, 1, 65, 0
4, 21120, Note_on_c, 1, 65, 100
4, 21358, Note_on_c, 1, 65, 0
4, 21360, Note_on_c, 1, 65, 100
4, 21598, Note_on_c, 1, 65, 0
4, 21600, Note_on_c, 1, 67, 100
4, 21718, Note_on_c, 1, 67, 0
4, 21720, Note_on_c, 1, 69, 100
4, 21838, Note_on_c, 1, 69, 0
4, 21960, Note_on_c, 1, 69, 100
4, 22198, Note_on_c, 1, 69, 0
4, 23040, Note_on_c, 1, 60, 100
4, 23278, Note_on_c, 1, 60, 0
4, 23280, Note_on_c, 1, 60, 100
4, 23518, Note_on_c, 1, 60, 0
4, 23520, Note_on_c, 1, 62, 100
4, 23638, Note_on_c, 1, 62, 0
4, 23640, Note_on_c, 1, 64, 100
4, 23758, Note_on_c, 1, 64, 0
4, 23880, Note_on_c, 1, 64, 100
4, 24118, Note_on_c, 1, 64, 0
4, 24960, Note_on_c, 1, 60, 100
4, 25198, Note_on_c, 1, 60, 0
4, 25200, Note_on_c, 1, 60, 100
4, 25438, Note_on_c, 1, 60, 0
4, 25440, Note_on_c, 1, 62, 100
4, 25558, Note_on_c, 1, 62, 0
4, 25560, Note_on_c, 1, 64, 100
4, 25678, Note_on_c, 1, 64, 0
4, 25800, Note_on_c, 1, 64, 100
4, 26038, Note_on_c, 1, 64, 0
4, 34560, Note_on_c, 1, 62, 100
4, 34798, Note_on_c, 1, 62, 0
4, 34800, Note_on_c, 1, 62, 100
4, 35038, Note_on_c, 1, 62, 0
4, 36480, Note_on_c, 1, 65, 100
4, 36718, Note_on_c, 1, 65, 0
4, 36720, Note_on_c, 1, 65, 100
4, 36958, Note_on_c, 1, 65, 0
4, 38400, Note_on_c, 1, 60, 100
4, 38638, Note_on_c, 1, 60, 0
4, 38640, Note_on_c, 1, 60, 100
4, 38878, Note_on_c, 1, 60, 0
4, 40320, Note_on_c, 1, 60, 100
4, 40558, Note_on_c, 1, 60, 0
4, 40560, Note_on_c, 1, 60, 100
4, 40798, Note_on_c, 1, 60, 0
4, 53760, Note_on_c, 1, 62, 100
4, 53998, Note_on_c, 1, 62, 0
4, 54000, Note_on_c, 1, 62, 100
4, 54238, Note_on_c, 1, 62, 0
4, 54240, Note_on_c, 1, 64, 100
4, 54358, Note_on_c, 1, 64, 0
4, 54360, Note_on_c, 1, 65, 100
4, 54478, Note_on_c, 1, 65, 0
4, 54600, Note_on_c, 1, 65, 100
4, 54838, Note_on_c, 1, 65, 0
4, 55680, Note_on_c, 1, 65, 100
4, 55918, Note_on_c, 1, 65, 0
4, 55920, Note_on_c, 1, 65, 100
4, 56158, Note_on_c, 1, 65, 0
4, 56160, Note_on_c, 1, 67, 100
4, 56278, Note_on_c, 1, 67, 0
4, 56280, Note_on_c, 1, 69, 100
4, 56398, Note_on_c, 1, 69, 0
4, 56520, Note_on_c, 1, 69, 100
4, 56758, Note_on_c, 1, 69, 0
4, 57600, Note_on_c, 1, 60, 100
4, 57838, Note_on_c, 1, 60, 0
4, 57840, Note_on_c, 1, 60, 100
4, 58078, Note_on_c, 1, 60, 0
4, 58080, Note_on_c, 1, 62, 100
4, 58198, Note_on_c, 1, 62, 0
4, 58200, Note_on_c, 1, 64, 100
4, 58318, Note_on_c, 1, 64, 0
4, 58440, Note_on_c, 1, 64, 100
4, 58678, Note_on_c, 1, 64, 0
4, 59520, Note_on_c, 1, 60, 100
4, 59758, Note_on_c, 1, 60, 0
4, 59760, Note_on_c, 1, 60, 100
4, 59998, Note_on_c, 1, 60, 0
4, 60000, Note_on_c, 1, 62, 100
4, 60118, Note_on_c, 1, 62, 0
4, 60120, Note_on_c, 1, 64, 100
4, 60238, Note_on_c, 1, 64, 0
4, 60360, Note_on_c, 1, 64, 100
4, 60598, Note_on_c, 1, 64, 0
4, 61440, Note_on_c, 1, 62, 100
4, 61678, Note_on_c, 1, 62, 0
4, 61680, Note_on_c, 1, 62, 100
4, 61918, Note_on_c, 1, 62, 0
4, 61920, Note_on_c, 1, 64, 100
4, 62038, Note_on_c, 1, 64, 0
4, 62040, Note_on_c, 1, 65, 100
4, 62158, Note_on_c, 1, 65, 0
4, 62280, Note_on_c, 1, 65, 100
4, 62518, Note_on_c, 1, 65, 0
4, 63360, Note_on_c, 1, 65, 100
4, 63598, Note_on_c, 1, 65, 0
4, 63600, Note_on_c, 1, 65, 100
4, 63838, Note_on_c, 1, 65, 0
4, 63840, Note_on_c, 1, 67, 100
4, 63958, Note_on_c, 1, 67, 0
4, 63960, Note_on_c, 1, 69, 100
4, 64078, Note_on_c, 1, 69, 0
4, 64200, Note_on_c, 1, 69, 100
4, 64438, Note_on_c, 1, 69, 0
4, 65280, Note_on_c, 1, 60, 100
4, 65518, Note_on_c, 1, 60, 0
4, 65520, Note_on_c, 1, 60, 100
4, 65758, Note_on_c, 1, 60, 0
4, 65760, Note_on_c, 1, 62, 100
4, 65878, Note_on_c, 1, 62, 0
4, 65880, Note_on_c, 1, 64, 100
4, 65998, Note_on_c, 1, 64, 0
4, 66120, Note_on_c, 1, 64, 100
4, 66358, Note_on_c, 1, 64, 0
4, 67200, Note_on_c, 1, 60, 100
4, 67438, Note_on_c, 1, 60, 0
4, 67440, Note_on_c, 1, 60, 100
4, 67678, Note_on_c, 1, 60, 0
4, 67680, Note_on_c, 1, 62, 100
4, 67798, Note_on_c, 1, 62, 0
4, 67800, Note_on_c, 1, 64, 100
4, 67918, Note_on_c, 1, 64, 0
4, 68040, Note_on_c, 1, 64, 100
4, 68278, Note_on_c, 1, 64, 0
4, 76800, Note_on_c, 1, 62, 100
4, 77038, Note_on_c, 1, 62, 0
4, 77040, Note_on_c, 1, 62, 100
4, 77278, Note_on_c, 1, 62, 0
4, 78720, Note_on_c, 1, 65, 100
4, 78958, Note_on_c, 1, 65, 0
4, 78960, Note_on_c, 1, 65, 100
4, 79198, Note_on_c, 1, 65, 0
4, 80640, Note_on_c, 1, 60, 100
4, 80878, Note_on_c, 1, 60, 0
4, 80880, Note_on_c, 1, 60, 100
4, 81118, Note_on_c, 1, 60, 0
4, 82560, Note_on_c, 1, 60, 100
4, 82798, Note_on_c, 1, 60, 0
4, 82800, Note_on_c, 1, 60, 100
4, 83038, Note_on_c, 1, 60, 0
4, 84920, Note_on_c, 1, 74, 100
4, 84930, Control_c, 1, 7, 112
4, 85038, Note_on_c, 1, 74, 0
4, 85040, Note_on_c, 1, 74, 100
4, 85158, Note_on_c, 1, 74, 0
4, 85160, Note_on_c, 1, 77, 100
4, 85398, Note_on_c, 1, 77, 0
4, 85400, Note_on_c, 1, 76, 100
4, 85518, Note_on_c, 1, 76, 0
4, 85520, Note_on_c, 1, 72, 100
4, 85758, Note_on_c, 1, 72, 0
4, 85760, Note_on_c, 1, 74, 100
4, 85998, Note_on_c, 1, 74, 0
4, 85998, End_track
5, 0, Start_track
5, 0, MIDI_port, 0
5, 0, Title_t," ""Midi'd By Jayenkai"""
5, 0, Program_c, 2, 24
5, 19200, Note_on_c, 2, 62, 100
5, 19200, Control_c, 2, 7, 84
5, 19220, Control_c, 2, 7, 85
5, 19318, Note_on_c, 2, 62, 0
5, 19320, Note_on_c, 2, 62, 100
5, 19438, Note_on_c, 2, 62, 0
5, 19440, Note_on_c, 2, 62, 100
5, 19678, Note_on_c, 2, 62, 0
5, 19680, Note_on_c, 2, 64, 100
5, 19798, Note_on_c, 2, 64, 0
5, 19800, Note_on_c, 2, 65, 100
5, 20038, Note_on_c, 2, 65, 0
5, 20040, Note_on_c, 2, 65, 100
5, 20278, Note_on_c, 2, 65, 0
5, 20280, Note_on_c, 2, 65, 100
5, 20398, Note_on_c, 2, 65, 0
5, 20400, Note_on_c, 2, 64, 100
5, 20638, Note_on_c, 2, 64, 0
5, 20640, Note_on_c, 2, 65, 100
5, 20878, Note_on_c, 2, 65, 0
5, 20880, Note_on_c, 2, 64, 100
5, 21118, Note_on_c, 2, 64, 0
5, 21120, Note_on_c, 2, 65, 100
5, 21238, Note_on_c, 2, 65, 0
5, 21240, Note_on_c, 2, 65, 100
5, 21358, Note_on_c, 2, 65, 0
5, 21360, Note_on_c, 2, 65, 100
5, 21598, Note_on_c, 2, 65, 0
5, 21600, Note_on_c, 2, 67, 100
5, 21718, Note_on_c, 2, 67, 0
5, 21720, Note_on_c, 2, 69, 100
5, 21958, Note_on_c, 2, 69, 0
5, 21960, Note_on_c, 2, 69, 100
5, 22198, Note_on_c, 2, 69, 0
5, 22200, Note_on_c, 2, 69, 100
5, 22318, Note_on_c, 2, 69, 0
5, 22320, Note_on_c, 2, 67, 100
5, 22558, Note_on_c, 2, 67, 0
5, 22560, Note_on_c, 2, 69, 100
5, 22798, Note_on_c, 2, 69, 0
5, 22800, Note_on_c, 2, 67, 100
5, 23038, Note_on_c, 2, 67, 0
5, 23040, Note_on_c, 2, 60, 100
5, 23158, Note_on_c, 2, 60, 0
5, 23160, Note_on_c, 2, 60, 100
5, 23278, Note_on_c, 2, 60, 0
5, 23280, Note_on_c, 2, 60, 100
5, 23518, Note_on_c, 2, 60, 0
5, 23520, Note_on_c, 2, 62, 100
5, 23638, Note_on_c, 2, 62, 0
5, 23640, Note_on_c, 2, 64, 100
5, 23878, Note_on_c, 2, 64, 0
5, 23880, Note_on_c, 2, 64, 100
5, 24118, Note_on_c, 2, 64, 0
5, 24120, Note_on_c, 2, 64, 100
5, 24238, Note_on_c, 2, 64, 0
5, 24240, Note_on_c, 2, 62, 100
5, 24478, Note_on_c, 2, 62, 0
5, 24480, Note_on_c, 2, 64, 100
5, 24718, Note_on_c, 2, 64, 0
5, 24720, Note_on_c, 2, 62, 100
5, 24958, Note_on_c, 2, 62, 0
5, 24960, Note_on_c, 2, 60, 100
5, 25198, Note_on_c, 2, 60, 0
5, 25200, Note_on_c, 2, 60, 100
5, 25438, Note_on_c, 2, 60, 0
5, 25440, Note_on_c, 2, 62, 100
5, 25558, Note_on_c, 2, 62, 0
5, 25560, Note_on_c, 2, 64, 100
5, 25798, Note_on_c, 2, 64, 0
5, 25800, Note_on_c, 2, 64, 100
5, 26038, Note_on_c, 2, 64, 0
5, 26040, Note_on_c, 2, 64, 100
5, 26158, Note_on_c, 2, 64, 0
5, 26160, Note_on_c, 2, 62, 100
5, 26398, Note_on_c, 2, 62, 0
5, 26400, Note_on_c, 2, 64, 100
5, 26638, Note_on_c, 2, 64, 0
5, 26640, Note_on_c, 2, 62, 100
5, 26878, Note_on_c, 2, 62, 0
5, 26880, Note_on_c, 2, 62, 100
5, 27118, Note_on_c, 2, 62, 0
5, 27120, Note_on_c, 2, 62, 100
5, 27358, Note_on_c, 2, 62, 0
5, 27360, Note_on_c, 2, 65, 100
5, 27598, Note_on_c, 2, 65, 0
5, 27600, Note_on_c, 2, 69, 100
5, 27838, Note_on_c, 2, 69, 0
5, 27840, Note_on_c, 2, 62, 100
5, 27958, Note_on_c, 2, 62, 0
5, 27960, Note_on_c, 2, 62, 100
5, 28078, Note_on_c, 2, 62, 0
5, 28080, Note_on_c, 2, 62, 100
5, 28318, Note_on_c, 2, 62, 0
5, 28320, Note_on_c, 2, 65, 100
5, 28558, Note_on_c, 2, 65, 0
5, 28560, Note_on_c, 2, 69, 100
5, 28798, Note_on_c, 2, 69, 0
5, 28800, Note_on_c, 2, 65, 100
5, 29038, Note_on_c, 2, 65, 0
5, 29040, Note_on_c, 2, 65, 100
5, 29278, Note_on_c, 2, 65, 0
5, 29280, Note_on_c, 2, 69, 100
5, 29518, Note_on_c, 2, 69, 0
5, 29520, Note_on_c, 2, 72, 100
5, 29758, Note_on_c, 2, 72, 0
5, 29760, Note_on_c, 2, 65, 100
5, 29878, Note_on_c, 2, 65, 0
5, 29880, Note_on_c, 2, 65, 100
5, 29998, Note_on_c, 2, 65, 0
5, 30000, Note_on_c, 2, 65, 100
5, 30238, Note_on_c, 2, 65, 0
5, 30240, Note_on_c, 2, 69, 100
5, 30478, Note_on_c, 2, 69, 0
5, 30480, Note_on_c, 2, 72, 100
5, 30718, Note_on_c, 2, 72, 0
5, 30720, Note_on_c, 2, 60, 100
5, 30958, Note_on_c, 2, 60, 0
5, 30960, Note_on_c, 2, 60, 100
5, 31198, Note_on_c, 2, 60, 0
5, 31200, Note_on_c, 2, 64, 100
5, 31438, Note_on_c, 2, 64, 0
5, 31440, Note_on_c, 2, 67, 100
5, 31678, Note_on_c, 2, 67, 0
5, 31680, Note_on_c, 2, 60, 100
5, 31918, Note_on_c, 2, 60, 0
5, 31920, Note_on_c, 2, 60, 100
5, 32158, Note_on_c, 2, 60, 0
5, 32160, Note_on_c, 2, 64, 100
5, 32398, Note_on_c, 2, 64, 0
5, 32400, Note_on_c, 2, 67, 100
5, 32638, Note_on_c, 2, 67, 0
5, 32640, Note_on_c, 2, 60, 100
5, 32878, Note_on_c, 2, 60, 0
5, 32880, Note_on_c, 2, 60, 100
5, 33118, Note_on_c, 2, 60, 0
5, 33120, Note_on_c, 2, 64, 100
5, 33358, Note_on_c, 2, 64, 0
5, 33360, Note_on_c, 2, 67, 100
5, 33598, Note_on_c, 2, 67, 0
5, 33720, Note_on_c, 2, 60, 100
5, 33838, Note_on_c, 2, 60, 0
5, 33840, Note_on_c, 2, 60, 100
5, 34078, Note_on_c, 2, 60, 0
5, 34080, Note_on_c, 2, 64, 100
5, 34318, Note_on_c, 2, 64, 0
5, 34320, Note_on_c, 2, 67, 100
5, 34558, Note_on_c, 2, 67, 0
5, 34560, Note_on_c, 2, 62, 100
5, 34798, Note_on_c, 2, 62, 0
5, 34800, Note_on_c, 2, 62, 100
5, 35038, Note_on_c, 2, 62, 0
5, 35040, Note_on_c, 2, 65, 100
5, 35158, Note_on_c, 2, 65, 0
5, 35160, Note_on_c, 2, 62, 100
5, 35398, Note_on_c, 2, 62, 0
5, 35400, Note_on_c, 2, 65, 100
5, 35638, Note_on_c, 2, 65, 0
5, 35640, Note_on_c, 2, 65, 100
5, 35758, Note_on_c, 2, 65, 0
5, 35760, Note_on_c, 2, 64, 100
5, 35998, Note_on_c, 2, 64, 0
5, 36000, Note_on_c, 2, 60, 100
5, 36238, Note_on_c, 2, 60, 0
5, 36240, Note_on_c, 2, 62, 100
5, 36478, Note_on_c, 2, 62, 0
5, 36480, Note_on_c, 2, 65, 100
5, 36718, Note_on_c, 2, 65, 0
5, 36720, Note_on_c, 2, 65, 100
5, 36958, Note_on_c, 2, 65, 0
5, 36960, Note_on_c, 2, 69, 100
5, 37078, Note_on_c, 2, 69, 0
5, 37080, Note_on_c, 2, 65, 100
5, 37318, Note_on_c, 2, 65, 0
5, 37320, Note_on_c, 2, 69, 100
5, 37558, Note_on_c, 2, 69, 0
5, 37560, Note_on_c, 2, 69, 100
5, 37678, Note_on_c, 2, 69, 0
5, 37680, Note_on_c, 2, 67, 100
5, 37918, Note_on_c, 2, 67, 0
5, 37920, Note_on_c, 2, 64, 100
5, 38158, Note_on_c, 2, 64, 0
5, 38160, Note_on_c, 2, 65, 100
5, 38398, Note_on_c, 2, 65, 0
5, 38400, Note_on_c, 2, 60, 100
5, 38638, Note_on_c, 2, 60, 0
5, 38640, Note_on_c, 2, 60, 100
5, 38878, Note_on_c, 2, 60, 0
5, 38880, Note_on_c, 2, 64, 100
5, 38998, Note_on_c, 2, 64, 0
5, 39000, Note_on_c, 2, 60, 100
5, 39238, Note_on_c, 2, 60, 0
5, 39240, Note_on_c, 2, 64, 100
5, 39478, Note_on_c, 2, 64, 0
5, 39480, Note_on_c, 2, 64, 100
5, 39598, Note_on_c, 2, 64, 0
5, 39600, Note_on_c, 2, 62, 100
5, 39838, Note_on_c, 2, 62, 0
5, 39840, Note_on_c, 2, 59, 100
5, 40078, Note_on_c, 2, 59, 0
5, 40080, Note_on_c, 2, 60, 100
5, 40318, Note_on_c, 2, 60, 0
5, 40320, Note_on_c, 2, 60, 100
5, 40558, Note_on_c, 2, 60, 0
5, 40560, Note_on_c, 2, 60, 100
5, 40798, Note_on_c, 2, 60, 0
5, 40800, Note_on_c, 2, 64, 100
5, 40918, Note_on_c, 2, 64, 0
5, 40920, Note_on_c, 2, 60, 100
5, 41158, Note_on_c, 2, 60, 0
5, 61440, Note_on_c, 2, 62, 100
5, 61440, Control_c, 2, 7, 84
5, 61460, Control_c, 2, 7, 85
5, 61558, Note_on_c, 2, 62, 0
5, 61560, Note_on_c, 2, 62, 100
5, 61678, Note_on_c, 2, 62, 0
5, 61680, Note_on_c, 2, 62, 100
5, 61918, Note_on_c, 2, 62, 0
5, 61920, Note_on_c, 2, 64, 100
5, 62038, Note_on_c, 2, 64, 0
5, 62040, Note_on_c, 2, 65, 100
5, 62278, Note_on_c, 2, 65, 0
5, 62280, Note_on_c, 2, 65, 100
5, 62518, Note_on_c, 2, 65, 0
5, 62520, Note_on_c, 2, 65, 100
5, 62638, Note_on_c, 2, 65, 0
5, 62640, Note_on_c, 2, 64, 100
5, 62878, Note_on_c, 2, 64, 0
5, 62880, Note_on_c, 2, 65, 100
5, 63118, Note_on_c, 2, 65, 0
5, 63120, Note_on_c, 2, 64, 100
5, 63358, Note_on_c, 2, 64, 0
5, 63360, Note_on_c, 2, 65, 100
5, 63478, Note_on_c, 2, 65, 0
5, 63480, Note_on_c, 2, 65, 100
5, 63598, Note_on_c, 2, 65, 0
5, 63600, Note_on_c, 2, 65, 100
5, 63838, Note_on_c, 2, 65, 0
5, 63840, Note_on_c, 2, 67, 100
5, 63958, Note_on_c, 2, 67, 0
5, 63960, Note_on_c, 2, 69, 100
5, 64198, Note_on_c, 2, 69, 0
5, 64200, Note_on_c, 2, 69, 100
5, 64438, Note_on_c, 2, 69, 0
5, 64440, Note_on_c, 2, 69, 100
5, 64558, Note_on_c, 2, 69, 0
5, 64560, Note_on_c, 2, 67, 100
5, 64798, Note_on_c, 2, 67, 0
5, 64800, Note_on_c, 2, 69, 100
5, 65038, Note_on_c, 2, 69, 0
5, 65040, Note_on_c, 2, 67, 100
5, 65278, Note_on_c, 2, 67, 0
5, 65280, Note_on_c, 2, 60, 100
5, 65398, Note_on_c, 2, 60, 0
5, 65400, Note_on_c, 2, 60, 100
5, 65518, Note_on_c, 2, 60, 0
5, 65520, Note_on_c, 2, 60, 100
5, 65758, Note_on_c, 2, 60, 0
5, 65760, Note_on_c, 2, 62, 100
5, 65878, Note_on_c, 2, 62, 0
5, 65880, Note_on_c, 2, 64, 100
5, 66118, Note_on_c, 2, 64, 0
5, 66120, Note_on_c, 2, 64, 100
5, 66358, Note_on_c, 2, 64, 0
5, 66360, Note_on_c, 2, 64, 100
5, 66478, Note_on_c, 2, 64, 0
5, 66480, Note_on_c, 2, 62, 100
5, 66718, Note_on_c, 2, 62, 0
5, 66720, Note_on_c, 2, 64, 100
5, 66958, Note_on_c, 2, 64, 0
5, 66960, Note_on_c, 2, 62, 100
5, 67198, Note_on_c, 2, 62, 0
5, 67200, Note_on_c, 2, 60, 100
5, 67438, Note_on_c, 2, 60, 0
5, 67440, Note_on_c, 2, 60, 100
5, 67678, Note_on_c, 2, 60, 0
5, 67680, Note_on_c, 2, 62, 100
5, 67798, Note_on_c, 2, 62, 0
5, 67800, Note_on_c, 2, 64, 100
5, 68038, Note_on_c, 2, 64, 0
5, 68040, Note_on_c, 2, 64, 100
5, 68278, Note_on_c, 2, 64, 0
5, 68280, Note_on_c, 2, 64, 100
5, 68398, Note_on_c, 2, 64, 0
5, 68400, Note_on_c, 2, 62, 100
5, 68638, Note_on_c, 2, 62, 0
5, 68640, Note_on_c, 2, 64, 100
5, 68878, Note_on_c, 2, 64, 0
5, 68880, Note_on_c, 2, 62, 100
5, 69118, Note_on_c, 2, 62, 0
5, 69120, Note_on_c, 2, 62, 100
5, 69358, Note_on_c, 2, 62, 0
5, 69360, Note_on_c, 2, 62, 100
5, 69598, Note_on_c, 2, 62, 0
5, 69600, Note_on_c, 2, 65, 100
5, 69838, Note_on_c, 2, 65, 0
5, 69840, Note_on_c, 2, 69, 100
5, 70078, Note_on_c, 2, 69, 0
5, 70080, Note_on_c, 2, 62, 100
5, 70198, Note_on_c, 2, 62, 0
5, 70200, Note_on_c, 2, 62, 100
5, 70318, Note_on_c, 2, 62, 0
5, 70320, Note_on_c, 2, 62, 100
5, 70558, Note_on_c, 2, 62, 0
5, 70560, Note_on_c, 2, 65, 100
5, 70798, Note_on_c, 2, 65, 0
5, 70800, Note_on_c, 2, 69, 100
5, 71038, Note_on_c, 2, 69, 0
5, 71040, Note_on_c, 2, 65, 100
5, 71278, Note_on_c, 2, 65, 0
5, 71280, Note_on_c, 2, 65, 100
5, 71518, Note_on_c, 2, 65, 0
5, 71520, Note_on_c, 2, 69, 100
5, 71758, Note_on_c, 2, 69, 0
5, 71760, Note_on_c, 2, 72, 100
5, 71998, Note_on_c, 2, 72, 0
5, 72000, Note_on_c, 2, 65, 100
5, 72118, Note_on_c, 2, 65, 0
5, 72120, Note_on_c, 2, 65, 100
5, 72238, Note_on_c, 2, 65, 0
5, 72240, Note_on_c, 2, 65, 100
5, 72478, Note_on_c, 2, 65, 0
5, 72480, Note_on_c, 2, 69, 100
5, 72718, Note_on_c, 2, 69, 0
5, 72720, Note_on_c, 2, 72, 100
5, 72958, Note_on_c, 2, 72, 0
5, 72960, Note_on_c, 2, 60, 100
5, 73198, Note_on_c, 2, 60, 0
5, 73200, Note_on_c, 2, 60, 100
5, 73438, Note_on_c, 2, 60, 0
5, 73440, Note_on_c, 2, 64, 100
5, 73678, Note_on_c, 2, 64, 0
5, 73680, Note_on_c, 2, 67, 100
5, 73918, Note_on_c, 2, 67, 0
5, 73920, Note_on_c, 2, 60, 100
5, 74158, Note_on_c, 2, 60, 0
5, 74160, Note_on_c, 2, 60, 100
5, 74398, Note_on_c, 2, 60, 0
5, 74400, Note_on_c, 2, 64, 100
5, 74638, Note_on_c, 2, 64, 0
5, 74640, Note_on_c, 2, 67, 100
5, 74878, Note_on_c, 2, 67, 0
5, 74880, Note_on_c, 2, 60, 100
5, 75118, Note_on_c, 2, 60, 0
5, 75120, Note_on_c, 2, 60, 100
5, 75358, Note_on_c, 2, 60, 0
5, 75360, Note_on_c, 2, 64, 100
5, 75598, Note_on_c, 2, 64, 0
5, 75600, Note_on_c, 2, 67, 100
5, 75838, Note_on_c, 2, 67, 0
5, 75960, Note_on_c, 2, 60, 100
5, 76078, Note_on_c, 2, 60, 0
5, 76080, Note_on_c, 2, 60, 100
5, 76318, Note_on_c, 2, 60, 0
5, 76320, Note_on_c, 2, 64, 100
5, 76558, Note_on_c, 2, 64, 0
5, 76560, Note_on_c, 2, 67, 100
5, 76798, Note_on_c, 2, 67, 0
5, 76800, Note_on_c, 2, 62, 100
5, 77038, Note_on_c, 2, 62, 0
5, 77040, Note_on_c, 2, 62, 100
5, 77278, Note_on_c, 2, 62, 0
5, 77280, Note_on_c, 2, 65, 100
5, 77398, Note_on_c, 2, 65, 0
5, 77400, Note_on_c, 2, 62, 100
5, 77638, Note_on_c, 2, 62, 0
5, 77640, Note_on_c, 2, 65, 100
5, 77878, Note_on_c, 2, 65, 0
5, 77880, Note_on_c, 2, 65, 100
5, 77998, Note_on_c, 2, 65, 0
5, 78000, Note_on_c, 2, 64, 100
5, 78238, Note_on_c, 2, 64, 0
5, 78240, Note_on_c, 2, 60, 100
5, 78478, Note_on_c, 2, 60, 0
5, 78480, Note_on_c, 2, 62, 100
5, 78718, Note_on_c, 2, 62, 0
5, 78720, Note_on_c, 2, 65, 100
5, 78958, Note_on_c, 2, 65, 0
5, 78960, Note_on_c, 2, 65, 100
5, 79198, Note_on_c, 2, 65, 0
5, 79200, Note_on_c, 2, 69, 100
5, 79318, Note_on_c, 2, 69, 0
5, 79320, Note_on_c, 2, 65, 100
5, 79558, Note_on_c, 2, 65, 0
5, 79560, Note_on_c, 2, 69, 100
5, 79798, Note_on_c, 2, 69, 0
5, 79800, Note_on_c, 2, 69, 100
5, 79918, Note_on_c, 2, 69, 0
5, 79920, Note_on_c, 2, 67, 100
5, 80158, Note_on_c, 2, 67, 0
5, 80160, Note_on_c, 2, 64, 100
5, 80398, Note_on_c, 2, 64, 0
5, 80400, Note_on_c, 2, 65, 100
5, 80638, Note_on_c, 2, 65, 0
5, 80640, Note_on_c, 2, 60, 100
5, 80878, Note_on_c, 2, 60, 0
5, 80880, Note_on_c, 2, 60, 100
5, 81118, Note_on_c, 2, 60, 0
5, 81120, Note_on_c, 2, 64, 100
5, 81238, Note_on_c, 2, 64, 0
5, 81240, Note_on_c, 2, 60, 100
5, 81478, Note_on_c, 2, 60, 0
5, 81480, Note_on_c, 2, 64, 100
5, 81718, Note_on_c, 2, 64, 0
5, 81720, Note_on_c, 2, 64, 100
5, 81838, Note_on_c, 2, 64, 0
5, 81840, Note_on_c, 2, 62, 100
5, 82078, Note_on_c, 2, 62, 0
5, 82080, Note_on_c, 2, 59, 100
5, 82318, Note_on_c, 2, 59, 0
5, 82320, Note_on_c, 2, 60, 100
5, 82558, Note_on_c, 2, 60, 0
5, 82560, Note_on_c, 2, 60, 100
5, 82798, Note_on_c, 2, 60, 0
5, 82800, Note_on_c, 2, 60, 100
5, 83038, Note_on_c, 2, 60, 0
5, 83040, Note_on_c, 2, 64, 100
5, 83158, Note_on_c, 2, 64, 0
5, 83160, Note_on_c, 2, 60, 100
5, 83398, Note_on_c, 2, 60, 0
5, 84920, Note_on_c, 2, 74, 100
5, 84930, Control_c, 2, 7, 112
5, 85038, Note_on_c, 2, 74, 0
5, 85040, Note_on_c, 2, 74, 100
5, 85158, Note_on_c, 2, 74, 0
5, 85160, Note_on_c, 2, 77, 100
5, 85398, Note_on_c, 2, 77, 0
5, 85400, Note_on_c, 2, 76, 100
5, 85518, Note_on_c, 2, 76, 0
5, 85520, Note_on_c, 2, 72, 100
5, 85758, Note_on_c, 2, 72, 0
5, 85760, Note_on_c, 2, 74, 100
5, 85998, Note_on_c, 2, 74, 0
5, 85998, End_track
6, 0, Start_track
6, 0, MIDI_port, 0
6, 0, Title_t," ""Jayenkai@jnk-sielts.co.uk"""
6, 0, Program_c, 3, 25
6, 84920, Note_on_c, 3, 74, 100
6, 84930, Control_c, 3, 7, 112
6, 85038, Note_on_c, 3, 74, 0
6, 85040, Note_on_c, 3, 74, 100
6, 85158, Note_on_c, 3, 74, 0
6, 85160, Note_on_c, 3, 77, 100
6, 85398, Note_on_c, 3, 77, 0
6, 85400, Note_on_c, 3, 76, 100
6, 85518, Note_on_c, 3, 76, 0
6, 85520, Note_on_c, 3, 72, 100
6, 85758, Note_on_c, 3, 72, 0
6, 85760, Note_on_c, 3, 74, 100
6, 85998, Note_on_c, 3, 74, 0
6, 85998, End_track
0, 0, End_of_file
