0, 0, Header, 0, 1, 384
1, 0, Start_track
1, 0, Title_t, "Sonata Op. 110--Dae Hyung Ahn   "
1, 0, Text_t, "2009 Piano-e-Competition audition round"
1, 0, Text_t, "captured January 2009"
1, 0, Text_t, "http://www.piano-e-competition.com/"
1, 0, Text_t, "File processed for distribution by software from Zenph Studios, Inc., http://www.zenph.com"
1, 0, Instrument_name_t, "Yamaha Disklavier Pro Mark IV concert grand piano, model DCFIIISM4PRO"
1, 0, Sequencer_specific, 39, 67, 113, 0, 1, 0, 1, 0, 83, 111, 110, 97, 116, 97, 32, 79, 112, 46, 32, 49, 49, 48, 32, 32, 68, 97, 101, 32, 72, 121, 117, 110, 103, 32, 65, 104, 110, 32, 32, 32
1, 0, Sequencer_specific, 6, 67, 113, 0, 0, 0, 69
1, 0, System_exclusive, 21, 67, 113, 126, 21, 0, 2, 2, 0, 3, 14, 1, 4, 1, 13, 13, 10, 11, 9, 2, 7, 247
1, 0, Sequencer_specific, 5, 67, 123, 12, 2, 1
1, 0, Tempo, 512820
1, 0, Time_signature, 4, 2, 24, 8
1, 0, System_exclusive, 5, 126, 127, 9, 1, 247
1, 1, System_exclusive, 8, 67, 16, 76, 0, 0, 126, 0, 247
1, 2, System_exclusive, 8, 67, 16, 76, 8, 9, 7, 1, 247
1, 3, Control_c, 0, 0, 0
1, 3, Control_c, 1, 0, 0
1, 3, Control_c, 2, 0, 0
1, 3, Control_c, 3, 0, 0
1, 3, Control_c, 4, 0, 0
1, 3, Control_c, 5, 0, 0
1, 3, Control_c, 6, 0, 0
1, 3, Control_c, 7, 0, 0
1, 3, Control_c, 8, 0, 0
1, 3, Control_c, 9, 0, 127
1, 3, Control_c, 10, 0, 0
1, 3, Control_c, 11, 0, 0
1, 3, Control_c, 12, 0, 0
1, 3, Control_c, 13, 0, 0
1, 3, Control_c, 14, 0, 0
1, 3, Control_c, 15, 0, 0
1, 4, Control_c, 0, 32, 0
1, 4, Control_c, 1, 32, 0
1, 4, Control_c, 2, 32, 0
1, 4, Control_c, 3, 32, 0
1, 4, Control_c, 4, 32, 0
1, 4, Control_c, 5, 32, 0
1, 4, Control_c, 6, 32, 0
1, 4, Control_c, 7, 32, 0
1, 4, Control_c, 8, 32, 0
1, 4, Control_c, 9, 32, 0
1, 4, Control_c, 10, 32, 0
1, 4, Control_c, 11, 32, 0
1, 4, Control_c, 12, 32, 0
1, 4, Control_c, 13, 32, 0
1, 4, Control_c, 14, 32, 0
1, 4, Control_c, 15, 32, 0
1, 5, Program_c, 0, 0
1, 5, Program_c, 1, 0
1, 5, Program_c, 2, 0
1, 5, Program_c, 3, 0
1, 5, Program_c, 4, 0
1, 5, Program_c, 5, 0
1, 5, Program_c, 6, 0
1, 5, Program_c, 7, 0
1, 5, Program_c, 8, 0
1, 5, Program_c, 9, 0
1, 5, Program_c, 10, 0
1, 5, Program_c, 11, 0
1, 5, Program_c, 12, 0
1, 5, Program_c, 13, 0
1, 5, Program_c, 14, 0
1, 5, Program_c, 15, 0
1, 6, Control_c, 0, 7, 100
1, 6, Control_c, 1, 7, 100
1, 6, Control_c, 2, 7, 100
1, 6, Control_c, 3, 7, 100
1, 6, Control_c, 4, 7, 100
1, 6, Control_c, 5, 7, 100
1, 6, Control_c, 6, 7, 100
1, 6, Control_c, 7, 7, 100
1, 6, Control_c, 8, 7, 100
1, 6, Control_c, 9, 7, 100
1, 6, Control_c, 10, 7, 100
1, 6, Control_c, 11, 7, 100
1, 6, Control_c, 12, 7, 100
1, 6, Control_c, 13, 7, 100
1, 6, Control_c, 14, 7, 100
1, 6, Control_c, 15, 7, 100
1, 117, Control_c, 0, 64, 15
1, 229, Control_c, 0, 64, 31
1, 341, Control_c, 0, 64, 46
1, 452, Control_c, 0, 64, 63
1, 564, Control_c, 0, 64, 77
1, 676, Control_c, 0, 64, 94
1, 787, Control_c, 0, 64, 108
1, 899, Control_c, 0, 64, 127
1, 1141, Note_on_c, 0, 72, 46
1, 1143, Note_on_c, 0, 44, 24
1, 1165, Note_on_c, 0, 68, 29
1, 1183, Note_on_c, 0, 51, 3
1, 1822, Note_off_c, 0, 51, 42
1, 1883, Note_off_c, 0, 68, 39
1, 2372, Note_off_c, 0, 44, 23
1, 2437, Note_on_c, 0, 68, 41
1, 2455, Note_on_c, 0, 63, 28
1, 2470, Note_on_c, 0, 51, 18
1, 2478, Note_on_c, 0, 48, 27
1, 2606, Note_off_c, 0, 48, 46
1, 2609, Note_off_c, 0, 68, 57
1, 2617, Note_off_c, 0, 51, 46
1, 2617, Note_off_c, 0, 63, 41
1, 2835, Note_on_c, 0, 68, 49
1, 2849, Note_on_c, 0, 63, 42
1, 2855, Note_on_c, 0, 48, 29
1, 2858, Note_on_c, 0, 51, 26
1, 2943, Note_off_c, 0, 72, 35
1, 3017, Note_off_c, 0, 63, 46
1, 3022, Note_off_c, 0, 51, 42
1, 3038, Note_off_c, 0, 68, 55
1, 3043, Note_off_c, 0, 48, 43
1, 3436, Note_on_c, 0, 68, 60
1, 3448, Note_on_c, 0, 51, 39
1, 3457, Note_on_c, 0, 63, 46
1, 3484, Note_on_c, 0, 48, 33
1, 3560, Note_off_c, 0, 51, 37
1, 3636, Note_off_c, 0, 63, 37
1, 3706, Note_on_c, 0, 73, 58
1, 3719, Note_off_c, 0, 48, 36
1, 3719, Note_on_c, 0, 67, 50
1, 3721, Note_on_c, 0, 51, 20
1, 3722, Control_c, 0, 64, 100
1, 3723, Note_on_c, 0, 46, 36
1, 3737, Control_c, 0, 64, 81
1, 3752, Control_c, 0, 64, 70
1, 3767, Control_c, 0, 64, 62
1, 3781, Note_off_c, 0, 68, 57
1, 3782, Control_c, 0, 64, 53
1, 3796, Control_c, 0, 64, 32
1, 3811, Control_c, 0, 64, 0
1, 3944, Control_c, 0, 64, 19
1, 3959, Control_c, 0, 64, 34
1, 3974, Control_c, 0, 64, 47
1, 3988, Control_c, 0, 64, 62
1, 4003, Control_c, 0, 64, 72
1, 4018, Control_c, 0, 64, 86
1, 4033, Control_c, 0, 64, 102
1, 4048, Control_c, 0, 64, 127
1, 4106, Note_off_c, 0, 67, 58
1, 4129, Note_off_c, 0, 51, 42
1, 4649, Note_on_c, 0, 70, 43
1, 4664, Note_on_c, 0, 67, 27
1, 4667, Note_on_c, 0, 49, 27
1, 4687, Note_on_c, 0, 51, 23
1, 4707, Control_c, 0, 64, 106
1, 4722, Control_c, 0, 64, 100
1, 4733, Note_off_c, 0, 46, 30
1, 4737, Control_c, 0, 64, 97
1, 4752, Control_c, 0, 64, 92
1, 4766, Control_c, 0, 64, 86
1, 4781, Control_c, 0, 64, 80
1, 4796, Control_c, 0, 64, 75
1, 4810, Control_c, 0, 64, 70
1, 4825, Control_c, 0, 64, 67
1, 4840, Control_c, 0, 64, 63
1, 4855, Control_c, 0, 64, 58
1, 4870, Control_c, 0, 64, 53
1, 4892, Control_c, 0, 64, 46
1, 4907, Control_c, 0, 64, 41
1, 4922, Control_c, 0, 64, 37
1, 4936, Control_c, 0, 64, 34
1, 4951, Note_off_c, 0, 73, 43
1, 4951, Control_c, 0, 64, 28
1, 4966, Control_c, 0, 64, 22
1, 4981, Control_c, 0, 64, 13
1, 4996, Control_c, 0, 64, 0
1, 5472, Control_c, 0, 64, 10
1, 5487, Control_c, 0, 64, 22
1, 5501, Control_c, 0, 64, 29
1, 5516, Control_c, 0, 64, 36
1, 5531, Control_c, 0, 64, 41
1, 5546, Control_c, 0, 64, 47
1, 5560, Control_c, 0, 64, 52
1, 5575, Control_c, 0, 64, 57
1, 5590, Control_c, 0, 64, 60
1, 5605, Control_c, 0, 64, 63
1, 5620, Control_c, 0, 64, 65
1, 5642, Control_c, 0, 64, 67
1, 5657, Control_c, 0, 64, 71
1, 5672, Control_c, 0, 64, 76
1, 5687, Control_c, 0, 64, 83
1, 5702, Control_c, 0, 64, 92
1, 5716, Control_c, 0, 64, 105
1, 5731, Control_c, 0, 64, 127
1, 5849, Note_off_c, 0, 67, 44
1, 5895, Note_off_c, 0, 51, 51
1, 5896, Note_off_c, 0, 49, 42
1, 5945, Note_off_c, 0, 70, 31
1, 6627, Note_on_c, 0, 75, 62
1, 6644, Control_c, 0, 64, 119
1, 6652, Note_on_c, 0, 48, 26
1, 6658, Note_on_c, 0, 51, 28
1, 6658, Control_c, 0, 64, 99
1, 6664, Note_on_c, 0, 68, 40
1, 6673, Control_c, 0, 64, 90
1, 6688, Control_c, 0, 64, 85
1, 6703, Control_c, 0, 64, 81
1, 6718, Control_c, 0, 64, 77
1, 6733, Control_c, 0, 64, 73
1, 6748, Control_c, 0, 64, 68
1, 6762, Control_c, 0, 64, 62
1, 6777, Control_c, 0, 64, 54
1, 6792, Control_c, 0, 64, 37
1, 6806, Control_c, 0, 64, 0
1, 6925, Control_c, 0, 64, 13
1, 6940, Control_c, 0, 64, 26
1, 6954, Control_c, 0, 64, 41
1, 6969, Control_c, 0, 64, 54
1, 6984, Control_c, 0, 64, 64
1, 6999, Control_c, 0, 64, 74
1, 7013, Control_c, 0, 64, 86
1, 7028, Control_c, 0, 64, 99
1, 7043, Control_c, 0, 64, 127
1, 7141, Note_on_c, 0, 56, 46
1, 7325, Note_off_c, 0, 68, 36
1, 7487, Note_on_c, 0, 60, 46
1, 7520, Note_off_c, 0, 48, 35
1, 7600, Note_off_c, 0, 60, 62
1, 7619, Note_off_c, 0, 51, 48
1, 7729, Note_off_c, 0, 56, 41
1, 7807, Control_c, 0, 64, 105
1, 7822, Control_c, 0, 64, 81
1, 7836, Control_c, 0, 64, 68
1, 7841, Note_on_c, 0, 73, 53
1, 7851, Control_c, 0, 64, 60
1, 7855, Note_on_c, 0, 53, 33
1, 7856, Note_on_c, 0, 68, 43
1, 7857, Note_on_c, 0, 58, 38
1, 7866, Control_c, 0, 64, 46
1, 7889, Control_c, 0, 64, 21
1, 7904, Control_c, 0, 64, 0
1, 7904, Note_off_c, 0, 68, 0
1, 7904, Note_on_c, 0, 68, 13
1, 7936, Note_off_c, 0, 75, 53
1, 7947, Note_off_c, 0, 58, 0
1, 7947, Note_on_c, 0, 58, 3
1, 7948, Control_c, 0, 64, 14
1, 7962, Control_c, 0, 64, 27
1, 7977, Control_c, 0, 64, 41
1, 7992, Control_c, 0, 64, 55
1, 8007, Control_c, 0, 64, 70
1, 8022, Control_c, 0, 64, 102
1, 8036, Control_c, 0, 64, 127
1, 8040, Note_off_c, 0, 58, 54
1, 8101, Note_off_c, 0, 68, 40
1, 8132, Note_off_c, 0, 73, 59
1, 8144, Note_off_c, 0, 53, 44
1, 8200, Control_c, 0, 64, 89
1, 8214, Note_on_c, 0, 75, 70
1, 8214, Control_c, 0, 64, 70
1, 8225, Note_on_c, 0, 60, 38
1, 8226, Note_on_c, 0, 51, 40
1, 8229, Control_c, 0, 64, 60
1, 8241, Note_on_c, 0, 68, 41
1, 8244, Control_c, 0, 64, 46
1, 8259, Control_c, 0, 64, 21
1, 8274, Control_c, 0, 64, 0
1, 8304, Control_c, 0, 64, 15
1, 8305, Note_off_c, 0, 68, 0
1, 8305, Note_on_c, 0, 68, 3
1, 8319, Control_c, 0, 64, 27
1, 8333, Control_c, 0, 64, 39
1, 8348, Control_c, 0, 64, 52
1, 8363, Control_c, 0, 64, 65
1, 8377, Control_c, 0, 64, 97
1, 8392, Control_c, 0, 64, 127
1, 8412, Note_off_c, 0, 60, 41
1, 8450, Note_off_c, 0, 51, 51
1, 8505, Note_off_c, 0, 68, 40
1, 8525, Note_off_c, 0, 75, 57
1, 8599, Control_c, 0, 64, 94
1, 8614, Control_c, 0, 64, 73
1, 8632, Note_on_c, 0, 77, 70
1, 8637, Control_c, 0, 64, 63
1, 8647, Note_on_c, 0, 68, 42
1, 8650, Note_on_c, 0, 49, 40
1, 8652, Control_c, 0, 64, 53
1, 8656, Note_on_c, 0, 61, 35
1, 8666, Control_c, 0, 64, 30
1, 8681, Control_c, 0, 64, 0
1, 8770, Control_c, 0, 64, 27
1, 8784, Control_c, 0, 64, 39
1, 8799, Control_c, 0, 64, 53
1, 8814, Control_c, 0, 64, 66
1, 8830, Control_c, 0, 64, 89
1, 8845, Note_off_c, 0, 61, 53
1, 8845, Control_c, 0, 64, 127
1, 8995, Note_off_c, 0, 68, 27
1, 9216, Control_c, 0, 64, 117
1, 9231, Control_c, 0, 64, 96
1, 9246, Control_c, 0, 64, 83
1, 9261, Note_off_c, 0, 49, 38
1, 9261, Control_c, 0, 64, 74
1, 9263, Note_on_c, 0, 75, 47
1, 9274, Note_on_c, 0, 51, 32
1, 9274, Note_on_c, 0, 58, 30
1, 9275, Control_c, 0, 64, 68
1, 9279, Note_on_c, 0, 67, 34
1, 9290, Control_c, 0, 64, 63
1, 9305, Control_c, 0, 64, 57
1, 9320, Control_c, 0, 64, 45
1, 9334, Control_c, 0, 64, 0
1, 9360, Note_off_c, 0, 77, 40
1, 9505, Control_c, 0, 64, 19
1, 9520, Control_c, 0, 64, 31
1, 9534, Control_c, 0, 64, 45
1, 9549, Control_c, 0, 64, 58
1, 9564, Control_c, 0, 64, 68
1, 9579, Control_c, 0, 64, 78
1, 9594, Control_c, 0, 64, 86
1, 9608, Control_c, 0, 64, 98
1, 9623, Control_c, 0, 64, 127
1, 9646, Note_off_c, 0, 58, 41
1, 9668, Note_off_c, 0, 51, 41
1, 9765, Note_off_c, 0, 67, 40
1, 9862, Note_off_c, 0, 75, 32
1, 10184, Note_on_c, 0, 74, 43
1, 10446, Control_c, 0, 64, 122
1, 10461, Control_c, 0, 64, 103
1, 10476, Control_c, 0, 64, 91
1, 10480, Note_on_c, 0, 58, 30
1, 10484, Note_on_c, 0, 51, 26
1, 10491, Control_c, 0, 64, 79
1, 10505, Control_c, 0, 64, 70
1, 10520, Control_c, 0, 64, 63
1, 10528, Note_on_c, 0, 67, 27
1, 10528, Note_on_c, 0, 73, 41
1, 10535, Control_c, 0, 64, 53
1, 10549, Control_c, 0, 64, 30
1, 10559, Note_off_c, 0, 74, 36
1, 10564, Control_c, 0, 64, 0
1, 10575, Note_off_c, 0, 73, 0
1, 10575, Note_on_c, 0, 73, 9
1, 10714, Control_c, 0, 64, 16
1, 10728, Control_c, 0, 64, 31
1, 10743, Control_c, 0, 64, 43
1, 10758, Control_c, 0, 64, 55
1, 10772, Control_c, 0, 64, 64
1, 10787, Control_c, 0, 64, 70
1, 10802, Control_c, 0, 64, 73
1, 10817, Control_c, 0, 64, 78
1, 10832, Control_c, 0, 64, 85
1, 10835, Note_on_c, 0, 75, 41
1, 10847, Control_c, 0, 64, 95
1, 10862, Note_off_c, 0, 73, 43
1, 10862, Control_c, 0, 64, 110
1, 10884, Control_c, 0, 64, 127
1, 10894, Note_off_c, 0, 67, 40
1, 10983, Note_off_c, 0, 75, 56
1, 10990, Note_on_c, 0, 73, 41
1, 11121, Note_off_c, 0, 73, 34
1, 11126, Note_on_c, 0, 75, 39
1, 11171, Note_off_c, 0, 51, 41
1, 11180, Note_off_c, 0, 75, 52
1, 11213, Note_on_c, 0, 73, 40
1, 11250, Note_off_c, 0, 58, 41
1, 11267, Note_off_c, 0, 73, 50
1, 11288, Note_on_c, 0, 75, 50
1, 11326, Note_off_c, 0, 75, 53
1, 11353, Note_on_c, 0, 73, 45
1, 11395, Note_off_c, 0, 73, 54
1, 11425, Note_on_c, 0, 75, 50
1, 11457, Note_off_c, 0, 75, 56
1, 11479, Note_on_c, 0, 73, 49
1, 11524, Note_off_c, 0, 73, 55
1, 11556, Note_on_c, 0, 75, 51
1, 11592, Note_off_c, 0, 75, 46
1, 11598, Note_on_c, 0, 73, 39
1, 11648, Note_on_c, 0, 75, 47
1, 11650, Note_off_c, 0, 73, 46
1, 11690, Note_off_c, 0, 75, 59
1, 11705, Note_on_c, 0, 73, 41
1, 11753, Note_off_c, 0, 73, 46
1, 11761, Note_on_c, 0, 75, 49
1, 11800, Note_off_c, 0, 75, 50
1, 11810, Note_on_c, 0, 73, 36
1, 11854, Note_on_c, 0, 75, 50
1, 11892, Note_off_c, 0, 75, 63
1, 11896, Note_off_c, 0, 73, 0
1, 11911, Note_on_c, 0, 73, 46
1, 11973, Note_off_c, 0, 73, 63
1, 12009, Note_on_c, 0, 72, 55
1, 12074, Note_off_c, 0, 72, 45
1, 12081, Note_on_c, 0, 73, 38
1, 12119, Note_off_c, 0, 73, 54
1, 12146, Note_on_c, 0, 75, 49
1, 12197, Note_off_c, 0, 75, 59
1, 12216, Note_on_c, 0, 73, 56
1, 12303, Note_on_c, 0, 75, 53
1, 12306, Note_off_c, 0, 73, 61
1, 12345, Control_c, 0, 64, 122
1, 12360, Control_c, 0, 64, 98
1, 12379, Note_off_c, 0, 75, 61
1, 12382, Control_c, 0, 64, 87
1, 12391, Note_on_c, 0, 77, 55
1, 12397, Control_c, 0, 64, 76
1, 12412, Control_c, 0, 64, 67
1, 12427, Control_c, 0, 64, 60
1, 12441, Control_c, 0, 64, 47
1, 12456, Control_c, 0, 64, 19
1, 12471, Control_c, 0, 64, 0
1, 12574, Control_c, 0, 64, 8
1, 12589, Control_c, 0, 64, 28
1, 12604, Control_c, 0, 64, 40
1, 12619, Control_c, 0, 64, 51
1, 12633, Control_c, 0, 64, 60
1, 12648, Control_c, 0, 64, 66
1, 12663, Control_c, 0, 64, 71
1, 12678, Control_c, 0, 64, 74
1, 12693, Control_c, 0, 64, 77
1, 12707, Control_c, 0, 64, 82
1, 12722, Control_c, 0, 64, 91
1, 12737, Control_c, 0, 64, 101
1, 12751, Control_c, 0, 64, 115
1, 12766, Control_c, 0, 64, 127
1, 12846, Note_on_c, 0, 75, 39
1, 12893, Note_off_c, 0, 77, 31
1, 13076, Note_on_c, 0, 73, 43
1, 13132, Note_off_c, 0, 75, 38
1, 13482, Note_on_c, 0, 56, 23
1, 13530, Control_c, 0, 64, 111
1, 13535, Note_on_c, 0, 72, 39
1, 13545, Control_c, 0, 64, 95
1, 13560, Control_c, 0, 64, 85
1, 13574, Control_c, 0, 64, 75
1, 13589, Control_c, 0, 64, 66
1, 13604, Control_c, 0, 64, 57
1, 13619, Control_c, 0, 64, 38
1, 13628, Note_off_c, 0, 73, 49
1, 13634, Control_c, 0, 64, 0
1, 13738, Control_c, 0, 64, 20
1, 13753, Control_c, 0, 64, 32
1, 13767, Control_c, 0, 64, 45
1, 13782, Control_c, 0, 64, 57
1, 13798, Control_c, 0, 64, 65
1, 13805, Note_on_c, 0, 60, 33
1, 13813, Control_c, 0, 64, 72
1, 13815, Note_on_c, 0, 63, 29
1, 13828, Control_c, 0, 64, 80
1, 13842, Control_c, 0, 64, 91
1, 13857, Control_c, 0, 64, 107
1, 13859, Note_off_c, 0, 60, 60
1, 13879, Control_c, 0, 64, 127
1, 13885, Note_off_c, 0, 63, 45
1, 14014, Note_on_c, 0, 63, 16
1, 14051, Poly_aftertouch_c, 0, 60, 127
1, 14063, Note_off_c, 0, 63, 52
1, 14118, Poly_aftertouch_c, 0, 60, 0
1, 14147, Note_on_c, 0, 60, 4
1, 14185, Note_on_c, 0, 63, 17
1, 14190, Note_off_c, 0, 56, 42
1, 14233, Note_off_c, 0, 63, 50
1, 14236, Note_off_c, 0, 60, 40
1, 14327, Note_on_c, 0, 56, 40
1, 14492, Note_on_c, 0, 60, 36
1, 14500, Note_on_c, 0, 63, 32
1, 14535, Note_off_c, 0, 60, 45
1, 14546, Note_off_c, 0, 63, 48
1, 14682, Note_on_c, 0, 60, 35
1, 14683, Note_on_c, 0, 75, 53
1, 14689, Note_on_c, 0, 63, 28
1, 14738, Note_off_c, 0, 60, 58
1, 14741, Note_off_c, 0, 63, 48
1, 14818, Note_off_c, 0, 72, 35
1, 14855, Note_on_c, 0, 60, 35
1, 14863, Note_off_c, 0, 56, 42
1, 14865, Note_on_c, 0, 63, 33
1, 14892, Note_off_c, 0, 60, 50
1, 14901, Note_off_c, 0, 63, 53
1, 15016, Note_on_c, 0, 56, 44
1, 15175, Note_on_c, 0, 60, 43
1, 15182, Note_on_c, 0, 63, 40
1, 15221, Note_off_c, 0, 60, 60
1, 15240, Note_off_c, 0, 63, 46
1, 15344, Note_on_c, 0, 80, 64
1, 15363, Note_on_c, 0, 60, 30
1, 15382, Note_on_c, 0, 63, 25
1, 15417, Note_off_c, 0, 60, 46
1, 15422, Note_off_c, 0, 63, 53
1, 15477, Note_off_c, 0, 75, 59
1, 15526, Note_on_c, 0, 63, 44
1, 15528, Note_off_c, 0, 80, 62
1, 15540, Note_on_c, 0, 60, 39
1, 15592, Note_off_c, 0, 60, 40
1, 15610, Note_off_c, 0, 63, 37
1, 15725, Note_on_c, 0, 58, 38
1, 15792, Control_c, 0, 64, 95
1, 15793, Note_on_c, 0, 80, 65
1, 15807, Control_c, 0, 64, 79
1, 15822, Note_off_c, 0, 56, 29
1, 15822, Control_c, 0, 64, 68
1, 15837, Control_c, 0, 64, 58
1, 15852, Control_c, 0, 64, 43
1, 15866, Control_c, 0, 64, 0
1, 15956, Control_c, 0, 64, 18
1, 15970, Control_c, 0, 64, 32
1, 15977, Note_on_c, 0, 61, 38
1, 15980, Note_on_c, 0, 63, 34
1, 15985, Control_c, 0, 64, 44
1, 16000, Control_c, 0, 64, 59
1, 16015, Control_c, 0, 64, 73
1, 16027, Note_off_c, 0, 61, 55
1, 16030, Control_c, 0, 64, 104
1, 16044, Control_c, 0, 64, 127
1, 16045, Note_off_c, 0, 63, 44
1, 16157, Note_on_c, 0, 63, 34
1, 16159, Note_on_c, 0, 61, 38
1, 16197, Note_off_c, 0, 61, 50
1, 16200, Note_off_c, 0, 63, 51
1, 16309, Note_on_c, 0, 61, 40
1, 16315, Note_on_c, 0, 63, 35
1, 16336, Note_off_c, 0, 58, 55
1, 16358, Note_off_c, 0, 61, 60
1, 16364, Note_off_c, 0, 63, 49
1, 16490, Note_on_c, 0, 58, 38
1, 16490, Note_on_c, 0, 79, 56
1, 16495, Control_c, 0, 64, 115
1, 16510, Control_c, 0, 64, 95
1, 16525, Control_c, 0, 64, 80
1, 16540, Control_c, 0, 64, 68
1, 16555, Control_c, 0, 64, 59
1, 16558, Note_off_c, 0, 80, 58
1, 16570, Control_c, 0, 64, 42
1, 16584, Control_c, 0, 64, 0
1, 16659, Control_c, 0, 64, 8
1, 16665, Note_on_c, 0, 61, 33
1, 16673, Control_c, 0, 64, 24
1, 16680, Note_on_c, 0, 63, 25
1, 16688, Control_c, 0, 64, 41
1, 16703, Control_c, 0, 64, 55
1, 16717, Control_c, 0, 64, 65
1, 16724, Note_off_c, 0, 61, 57
1, 16732, Control_c, 0, 64, 73
1, 16733, Note_off_c, 0, 63, 48
1, 16747, Control_c, 0, 64, 78
1, 16762, Control_c, 0, 64, 82
1, 16777, Control_c, 0, 64, 88
1, 16791, Control_c, 0, 64, 98
1, 16806, Control_c, 0, 64, 110
1, 16821, Control_c, 0, 64, 127
1, 16840, Note_on_c, 0, 61, 32
1, 16846, Note_on_c, 0, 63, 33
1, 16892, Note_off_c, 0, 61, 48
1, 16892, Note_off_c, 0, 63, 52
1, 17014, Note_on_c, 0, 61, 39
1, 17034, Note_on_c, 0, 63, 14
1, 17065, Note_off_c, 0, 61, 46
1, 17077, Note_off_c, 0, 58, 35
1, 17084, Note_off_c, 0, 63, 53
1, 17196, Note_on_c, 0, 58, 46
1, 17360, Note_on_c, 0, 61, 37
1, 17362, Note_on_c, 0, 63, 33
1, 17412, Note_off_c, 0, 61, 53
1, 17429, Note_off_c, 0, 63, 44
1, 17548, Note_on_c, 0, 61, 33
1, 17561, Note_on_c, 0, 63, 33
1, 17574, Note_off_c, 0, 79, 30
1, 17598, Note_off_c, 0, 61, 47
1, 17617, Note_off_c, 0, 63, 48
1, 17756, Note_on_c, 0, 63, 33
1, 17766, Note_on_c, 0, 61, 13
1, 17790, Note_off_c, 0, 58, 34
1, 17817, Note_off_c, 0, 61, 55
1, 17862, Note_off_c, 0, 63, 38
1, 18006, Poly_aftertouch_c, 0, 75, 127
1, 18043, Note_on_c, 0, 61, 23
1, 18096, Control_c, 0, 64, 103
1, 18097, Note_on_c, 0, 82, 65
1, 18111, Control_c, 0, 64, 91
1, 18126, Control_c, 0, 64, 78
1, 18141, Control_c, 0, 64, 69
1, 18156, Control_c, 0, 64, 61
1, 18171, Control_c, 0, 64, 47
1, 18186, Control_c, 0, 64, 12
1, 18201, Control_c, 0, 64, 0
1, 18205, Poly_aftertouch_c, 0, 75, 0
1, 18275, Control_c, 0, 64, 13
1, 18289, Control_c, 0, 64, 29
1, 18301, Note_on_c, 0, 70, 35
1, 18304, Control_c, 0, 64, 42
1, 18311, Note_on_c, 0, 63, 26
1, 18311, Note_on_c, 0, 67, 26
1, 18319, Control_c, 0, 64, 59
1, 18334, Control_c, 0, 64, 73
1, 18349, Control_c, 0, 64, 101
1, 18361, Note_off_c, 0, 70, 47
1, 18370, Control_c, 0, 64, 127
1, 18399, Note_off_c, 0, 67, 37
1, 18435, Note_off_c, 0, 63, 0
1, 18456, Note_on_c, 0, 63, 24
1, 18482, Note_on_c, 0, 70, 30
1, 18490, Note_on_c, 0, 67, 17
1, 18519, Note_off_c, 0, 70, 53
1, 18535, Note_off_c, 0, 67, 50
1, 18615, Note_on_c, 0, 70, 45
1, 18658, Note_on_c, 0, 67, 26
1, 18661, Note_off_c, 0, 70, 46
1, 18674, Note_off_c, 0, 61, 42
1, 18698, Note_off_c, 0, 67, 52
1, 18699, Note_off_c, 0, 63, 40
1, 18766, Note_on_c, 0, 61, 58
1, 18928, Note_on_c, 0, 63, 37
1, 18933, Note_on_c, 0, 70, 38
1, 18942, Note_on_c, 0, 67, 36
1, 18971, Note_off_c, 0, 70, 49
1, 18987, Note_off_c, 0, 67, 45
1, 19053, Note_off_c, 0, 63, 0
1, 19071, Note_on_c, 0, 79, 65
1, 19077, Note_on_c, 0, 63, 26
1, 19089, Note_on_c, 0, 70, 31
1, 19124, Note_on_c, 0, 67, 18
1, 19143, Note_off_c, 0, 70, 46
1, 19169, Note_off_c, 0, 67, 53
1, 19221, Note_off_c, 0, 82, 37
1, 19243, Note_on_c, 0, 70, 50
1, 19276, Note_off_c, 0, 61, 52
1, 19289, Note_on_c, 0, 67, 35
1, 19305, Note_off_c, 0, 70, 54
1, 19321, Note_off_c, 0, 67, 53
1, 19350, Note_off_c, 0, 63, 45
1, 19414, Note_on_c, 0, 61, 59
1, 19578, Note_on_c, 0, 63, 46
1, 19581, Note_on_c, 0, 70, 40
1, 19590, Note_on_c, 0, 67, 44
1, 19637, Note_off_c, 0, 67, 60
1, 19638, Note_off_c, 0, 70, 46
1, 19658, Note_off_c, 0, 63, 57
1, 19760, Note_on_c, 0, 70, 37
1, 19764, Note_on_c, 0, 75, 67
1, 19772, Note_on_c, 0, 67, 30
1, 19801, Note_on_c, 0, 63, 7
1, 19802, Note_off_c, 0, 70, 47
1, 19821, Note_off_c, 0, 67, 45
1, 19900, Note_off_c, 0, 63, 0
1, 19912, Note_off_c, 0, 61, 37
1, 19914, Note_on_c, 0, 70, 47
1, 19925, Note_on_c, 0, 63, 21
1, 19930, Note_off_c, 0, 75, 59
1, 19947, Note_on_c, 0, 67, 38
1, 19978, Note_off_c, 0, 70, 51
1, 19992, Note_off_c, 0, 67, 47
1, 19998, Note_off_c, 0, 79, 53
1, 20099, Note_on_c, 0, 60, 39
1, 20135, Control_c, 0, 64, 108
1, 20150, Control_c, 0, 64, 90
1, 20159, Note_on_c, 0, 75, 57
1, 20165, Control_c, 0, 64, 76
1, 20180, Control_c, 0, 64, 64
1, 20183, Note_off_c, 0, 63, 41
1, 20195, Control_c, 0, 64, 52
1, 20210, Control_c, 0, 64, 20
1, 20225, Control_c, 0, 64, 0
1, 20299, Control_c, 0, 64, 22
1, 20308, Note_on_c, 0, 63, 36
1, 20314, Control_c, 0, 64, 39
1, 20326, Note_on_c, 0, 68, 40
1, 20329, Control_c, 0, 64, 58
1, 20344, Control_c, 0, 64, 75
1, 20358, Control_c, 0, 64, 127
1, 20377, Note_off_c, 0, 68, 44
1, 20394, Note_off_c, 0, 63, 51
1, 20469, Note_on_c, 0, 63, 33
1, 20481, Note_on_c, 0, 68, 45
1, 20516, Note_off_c, 0, 68, 50
1, 20545, Note_off_c, 0, 63, 49
1, 20646, Note_on_c, 0, 63, 29
1, 20653, Note_off_c, 0, 60, 51
1, 20654, Note_on_c, 0, 68, 25
1, 20696, Note_off_c, 0, 68, 51
1, 20701, Note_off_c, 0, 63, 46
1, 20819, Note_on_c, 0, 60, 41
1, 20857, Note_on_c, 0, 80, 56
1, 20883, Control_c, 0, 64, 96
1, 20898, Control_c, 0, 64, 75
1, 20913, Control_c, 0, 64, 64
1, 20928, Control_c, 0, 64, 52
1, 20943, Control_c, 0, 64, 29
1, 20958, Control_c, 0, 64, 0
1, 20959, Note_off_c, 0, 75, 59
1, 20997, Note_on_c, 0, 63, 39
1, 21003, Control_c, 0, 64, 10
1, 21018, Control_c, 0, 64, 23
1, 21033, Control_c, 0, 64, 34
1, 21035, Note_on_c, 0, 68, 24
1, 21048, Control_c, 0, 64, 47
1, 21062, Control_c, 0, 64, 61
1, 21077, Note_off_c, 0, 68, 47
1, 21077, Control_c, 0, 64, 79
1, 21092, Control_c, 0, 64, 127
1, 21138, Note_off_c, 0, 63, 0
1, 21160, Note_on_c, 0, 63, 24
1, 21179, Note_on_c, 0, 68, 44
1, 21210, Note_off_c, 0, 68, 52
1, 21254, Note_off_c, 0, 63, 37
1, 21297, Note_off_c, 0, 80, 56
1, 21322, Note_on_c, 0, 63, 39
1, 21322, Note_on_c, 0, 68, 40
1, 21360, Note_off_c, 0, 60, 54
1, 21387, Note_off_c, 0, 68, 53
1, 21432, Note_off_c, 0, 63, 49
1, 21501, Note_on_c, 0, 60, 56
1, 21664, Note_on_c, 0, 63, 50
1, 21669, Note_on_c, 0, 68, 48
1, 21721, Note_off_c, 0, 68, 55
1, 21738, Note_off_c, 0, 63, 60
1, 21842, Note_on_c, 0, 68, 58
1, 21859, Note_on_c, 0, 63, 53
1, 21893, Note_off_c, 0, 68, 56
1, 21903, Note_off_c, 0, 63, 61
1, 22025, Note_on_c, 0, 68, 52
1, 22028, Note_on_c, 0, 63, 47
1, 22058, Note_off_c, 0, 60, 43
1, 22070, Note_off_c, 0, 63, 66
1, 22122, Note_off_c, 0, 68, 59
1, 22290, Note_on_c, 0, 66, 45
1, 22338, Note_on_c, 0, 80, 72
1, 22368, Control_c, 0, 64, 115
1, 22383, Control_c, 0, 64, 93
1, 22398, Control_c, 0, 64, 80
1, 22412, Control_c, 0, 64, 69
1, 22427, Control_c, 0, 64, 58
1, 22442, Control_c, 0, 64, 37
1, 22456, Control_c, 0, 64, 0
1, 22530, Note_on_c, 0, 68, 44
1, 22530, Control_c, 0, 64, 19
1, 22535, Note_on_c, 0, 75, 43
1, 22545, Control_c, 0, 64, 37
1, 22556, Note_on_c, 0, 72, 35
1, 22560, Control_c, 0, 64, 52
1, 22575, Control_c, 0, 64, 67
1, 22588, Note_off_c, 0, 75, 44
1, 22591, Control_c, 0, 64, 127
1, 22594, Note_off_c, 0, 72, 49
1, 22610, Note_off_c, 0, 68, 51
1, 22684, Note_on_c, 0, 68, 36
1, 22690, Note_on_c, 0, 72, 50
1, 22696, Note_on_c, 0, 75, 48
1, 22729, Note_off_c, 0, 75, 52
1, 22736, Note_off_c, 0, 72, 57
1, 22817, Note_off_c, 0, 68, 0
1, 22833, Note_on_c, 0, 75, 57
1, 22836, Note_on_c, 0, 68, 27
1, 22861, Note_on_c, 0, 72, 51
1, 22880, Note_off_c, 0, 75, 56
1, 22884, Note_off_c, 0, 66, 55
1, 22892, Note_off_c, 0, 72, 60
1, 22916, Note_off_c, 0, 68, 54
1, 23003, Note_on_c, 0, 66, 68
1, 23169, Note_on_c, 0, 75, 48
1, 23171, Note_on_c, 0, 68, 43
1, 23175, Note_on_c, 0, 72, 48
1, 23220, Note_off_c, 0, 75, 55
1, 23221, Note_off_c, 0, 72, 58
1, 23247, Note_off_c, 0, 68, 54
1, 23332, Note_on_c, 0, 84, 73
1, 23346, Note_on_c, 0, 75, 40
1, 23351, Note_on_c, 0, 68, 32
1, 23363, Note_on_c, 0, 72, 32
1, 23380, Note_off_c, 0, 75, 51
1, 23399, Note_off_c, 0, 72, 51
1, 23464, Note_off_c, 0, 68, 0
1, 23464, Note_off_c, 0, 80, 49
1, 23480, Note_on_c, 0, 68, 37
1, 23480, Note_on_c, 0, 75, 57
1, 23489, Note_on_c, 0, 72, 53
1, 23522, Note_off_c, 0, 66, 53
1, 23545, Note_off_c, 0, 75, 58
1, 23557, Note_off_c, 0, 72, 46
1, 23572, Note_off_c, 0, 68, 59
1, 23665, Note_on_c, 0, 66, 69
1, 23835, Note_on_c, 0, 75, 52
1, 23839, Note_on_c, 0, 68, 48
1, 23854, Note_on_c, 0, 72, 44
1, 23891, Note_off_c, 0, 75, 46
1, 23907, Note_off_c, 0, 72, 49
1, 23928, Note_off_c, 0, 68, 54
1, 24028, Note_on_c, 0, 87, 76
1, 24061, Note_on_c, 0, 72, 24
1, 24064, Note_on_c, 0, 68, 32
1, 24065, Note_on_c, 0, 75, 4
1, 24094, Note_off_c, 0, 75, 0
1, 24104, Note_off_c, 0, 72, 50
1, 24117, Note_off_c, 0, 68, 44
1, 24125, Poly_aftertouch_c, 0, 75, 0
1, 24179, Note_off_c, 0, 84, 57
1, 24198, Note_off_c, 0, 66, 50
1, 24204, Note_on_c, 0, 68, 49
1, 24213, Note_on_c, 0, 72, 42
1, 24235, Note_on_c, 0, 75, 44
1, 24245, Note_off_c, 0, 87, 64
1, 24318, Note_off_c, 0, 75, 34
1, 24371, Note_off_c, 0, 72, 36
1, 24447, Note_on_c, 0, 65, 37
1, 24521, Note_on_c, 0, 87, 75
1, 24522, Note_off_c, 0, 68, 35
1, 24540, Control_c, 0, 64, 113
1, 24555, Control_c, 0, 64, 88
1, 24570, Control_c, 0, 64, 74
1, 24585, Control_c, 0, 64, 63
1, 24600, Control_c, 0, 64, 51
1, 24614, Control_c, 0, 64, 26
1, 24629, Control_c, 0, 64, 0
1, 24703, Control_c, 0, 64, 25
1, 24718, Control_c, 0, 64, 43
1, 24728, Note_on_c, 0, 68, 42
1, 24732, Control_c, 0, 64, 58
1, 24747, Note_on_c, 0, 73, 41
1, 24747, Control_c, 0, 64, 75
1, 24762, Control_c, 0, 64, 127
1, 24792, Note_off_c, 0, 73, 46
1, 24809, Note_off_c, 0, 68, 55
1, 24890, Note_on_c, 0, 73, 49
1, 24901, Note_on_c, 0, 68, 36
1, 24927, Note_off_c, 0, 73, 52
1, 24944, Note_off_c, 0, 68, 45
1, 25038, Note_on_c, 0, 73, 51
1, 25045, Note_on_c, 0, 68, 50
1, 25083, Note_off_c, 0, 73, 60
1, 25094, Note_off_c, 0, 68, 57
1, 25110, Note_off_c, 0, 65, 35
1, 25218, Note_on_c, 0, 65, 61
1, 25367, Note_on_c, 0, 73, 46
1, 25370, Note_on_c, 0, 68, 46
1, 25412, Note_off_c, 0, 73, 61
1, 25430, Note_off_c, 0, 68, 52
1, 25537, Note_on_c, 0, 85, 73
1, 25547, Note_on_c, 0, 73, 41
1, 25580, Note_off_c, 0, 73, 53
1, 25590, Note_on_c, 0, 68, 12
1, 25604, Note_off_c, 0, 87, 61
1, 25635, Note_off_c, 0, 68, 50
1, 25689, Note_on_c, 0, 73, 45
1, 25692, Note_off_c, 0, 65, 60
1, 25709, Note_on_c, 0, 68, 41
1, 25814, Note_off_c, 0, 68, 29
1, 25823, Control_c, 0, 64, 93
1, 25835, Note_off_c, 0, 73, 37
1, 25838, Control_c, 0, 64, 72
1, 25860, Control_c, 0, 64, 58
1, 25875, Control_c, 0, 64, 27
1, 25881, Note_on_c, 0, 63, 36
1, 25890, Control_c, 0, 64, 0
1, 25892, Note_on_c, 0, 87, 73
1, 25964, Control_c, 0, 64, 24
1, 25965, Note_off_c, 0, 85, 61
1, 25978, Control_c, 0, 64, 42
1, 25993, Control_c, 0, 64, 58
1, 26008, Control_c, 0, 64, 77
1, 26023, Control_c, 0, 64, 127
1, 26067, Note_on_c, 0, 68, 41
1, 26071, Note_on_c, 0, 72, 37
1, 26116, Note_off_c, 0, 63, 43
1, 26121, Note_off_c, 0, 68, 59
1, 26140, Note_off_c, 0, 72, 54
1, 26231, Control_c, 0, 64, 117
1, 26246, Note_on_c, 0, 89, 79
1, 26246, Control_c, 0, 64, 77
1, 26252, Note_off_c, 0, 87, 62
1, 26261, Control_c, 0, 64, 63
1, 26276, Control_c, 0, 64, 47
1, 26291, Control_c, 0, 64, 0
1, 26365, Control_c, 0, 64, 16
1, 26379, Control_c, 0, 64, 35
1, 26394, Control_c, 0, 64, 52
1, 26409, Control_c, 0, 64, 67
1, 26423, Control_c, 0, 64, 105
1, 26429, Note_on_c, 0, 68, 48
1, 26434, Note_on_c, 0, 70, 45
1, 26438, Control_c, 0, 64, 127
1, 26531, Note_off_c, 0, 89, 63
1, 26651, Note_on_c, 0, 63, 40
1, 26710, Note_off_c, 0, 63, 0
1, 26710, Note_on_c, 0, 63, 6
1, 26713, Note_on_c, 0, 89, 69
1, 26714, Control_c, 0, 64, 109
1, 26714, Note_off_c, 0, 68, 26
1, 26718, Note_off_c, 0, 70, 41
1, 26728, Control_c, 0, 64, 78
1, 26743, Control_c, 0, 64, 63
1, 26758, Control_c, 0, 64, 48
1, 26773, Control_c, 0, 64, 0
1, 26860, Control_c, 0, 64, 24
1, 26875, Control_c, 0, 64, 40
1, 26890, Control_c, 0, 64, 54
1, 26905, Control_c, 0, 64, 67
1, 26918, Note_on_c, 0, 68, 39
1, 26920, Note_on_c, 0, 72, 38
1, 26920, Control_c, 0, 64, 93
1, 26935, Control_c, 0, 64, 122
1, 26949, Control_c, 0, 64, 127
1, 26967, Note_off_c, 0, 72, 45
1, 26979, Note_off_c, 0, 68, 43
1, 27068, Note_on_c, 0, 87, 63
1, 27090, Note_on_c, 0, 72, 31
1, 27115, Note_on_c, 0, 68, 18
1, 27120, Note_off_c, 0, 89, 56
1, 27130, Note_off_c, 0, 72, 48
1, 27162, Note_off_c, 0, 68, 49
1, 27234, Note_on_c, 0, 72, 39
1, 27261, Note_on_c, 0, 68, 25
1, 27267, Note_off_c, 0, 63, 44
1, 27278, Note_off_c, 0, 72, 46
1, 27304, Note_off_c, 0, 68, 49
1, 27400, Note_on_c, 0, 63, 46
1, 27540, Note_on_c, 0, 68, 39
1, 27548, Note_on_c, 0, 72, 38
1, 27601, Note_off_c, 0, 72, 43
1, 27611, Note_off_c, 0, 68, 54
1, 27717, Note_on_c, 0, 72, 40
1, 27718, Note_on_c, 0, 85, 64
1, 27731, Note_on_c, 0, 68, 35
1, 27757, Note_off_c, 0, 72, 47
1, 27771, Note_off_c, 0, 68, 47
1, 27826, Note_off_c, 0, 87, 33
1, 27871, Note_on_c, 0, 68, 49
1, 27873, Note_on_c, 0, 72, 37
1, 27875, Note_on_c, 0, 84, 69
1, 27883, Note_off_c, 0, 63, 41
1, 27912, Note_off_c, 0, 85, 37
1, 27975, Note_off_c, 0, 68, 55
1, 27984, Note_off_c, 0, 72, 36
1, 27995, Control_c, 0, 64, 101
1, 28009, Control_c, 0, 64, 81
1, 28024, Control_c, 0, 64, 67
1, 28031, Note_off_c, 0, 84, 61
1, 28037, Note_on_c, 0, 87, 63
1, 28039, Control_c, 0, 64, 55
1, 28043, Note_on_c, 0, 63, 37
1, 28054, Control_c, 0, 64, 29
1, 28068, Control_c, 0, 64, 0
1, 28151, Control_c, 0, 64, 11
1, 28165, Control_c, 0, 64, 34
1, 28181, Control_c, 0, 64, 48
1, 28195, Control_c, 0, 64, 61
1, 28210, Control_c, 0, 64, 72
1, 28222, Note_on_c, 0, 85, 51
1, 28222, Note_on_c, 0, 70, 40
1, 28222, Note_on_c, 0, 73, 30
1, 28225, Control_c, 0, 64, 88
1, 28240, Control_c, 0, 64, 97
1, 28253, Note_off_c, 0, 87, 35
1, 28255, Control_c, 0, 64, 105
1, 28262, Note_off_c, 0, 73, 52
1, 28270, Control_c, 0, 64, 114
1, 28273, Note_off_c, 0, 70, 45
1, 28285, Control_c, 0, 64, 127
1, 28354, Note_off_c, 0, 85, 60
1, 28395, Note_on_c, 0, 79, 52
1, 28411, Note_on_c, 0, 70, 32
1, 28412, Note_on_c, 0, 73, 23
1, 28438, Note_off_c, 0, 79, 58
1, 28448, Note_off_c, 0, 70, 49
1, 28454, Note_off_c, 0, 73, 55
1, 28553, Note_on_c, 0, 70, 41
1, 28553, Note_on_c, 0, 73, 41
1, 28601, Note_off_c, 0, 73, 45
1, 28631, Note_off_c, 0, 70, 37
1, 28729, Control_c, 0, 64, 103
1, 28744, Control_c, 0, 64, 79
1, 28759, Control_c, 0, 64, 65
1, 28764, Note_on_c, 0, 68, 37
1, 28769, Note_on_c, 0, 72, 38
1, 28771, Note_off_c, 0, 63, 41
1, 28773, Control_c, 0, 64, 53
1, 28788, Control_c, 0, 64, 25
1, 28803, Control_c, 0, 64, 0
1, 28811, Note_on_c, 0, 80, 38
1, 28826, Note_off_c, 0, 72, 0
1, 28826, Note_on_c, 0, 72, 4
1, 28839, Note_off_c, 0, 68, 0
1, 28839, Note_on_c, 0, 68, 3
1, 28869, Control_c, 0, 64, 9
1, 28884, Control_c, 0, 64, 31
1, 28888, Note_on_c, 0, 87, 46
1, 28899, Control_c, 0, 64, 47
1, 28914, Control_c, 0, 64, 62
1, 28929, Control_c, 0, 64, 83
1, 28930, Note_off_c, 0, 87, 63
1, 28944, Control_c, 0, 64, 113
1, 28958, Control_c, 0, 64, 127
1, 28962, Note_on_c, 0, 84, 51
1, 28966, Note_off_c, 0, 80, 44
1, 29008, Note_off_c, 0, 72, 51
1, 29025, Note_on_c, 0, 87, 60
1, 29038, Note_off_c, 0, 84, 56
1, 29076, Note_off_c, 0, 87, 61
1, 29087, Note_on_c, 0, 92, 72
1, 29108, Note_off_c, 0, 68, 41
1, 29154, Note_on_c, 0, 87, 58
1, 29184, Note_off_c, 0, 92, 57
1, 29214, Note_off_c, 0, 87, 63
1, 29224, Note_on_c, 0, 84, 65
1, 29285, Note_off_c, 0, 84, 61
1, 29307, Note_on_c, 0, 87, 60
1, 29339, Note_off_c, 0, 87, 67
1, 29374, Note_on_c, 0, 80, 62
1, 29394, Note_off_c, 0, 80, 66
1, 29467, Note_on_c, 0, 75, 61
1, 29532, Note_off_c, 0, 75, 59
1, 29552, Control_c, 0, 64, 115
1, 29566, Note_on_c, 0, 72, 48
1, 29567, Control_c, 0, 64, 110
1, 29582, Control_c, 0, 64, 106
1, 29604, Control_c, 0, 64, 101
1, 29618, Note_off_c, 0, 72, 47
1, 29619, Control_c, 0, 64, 96
1, 29634, Control_c, 0, 64, 93
1, 29648, Control_c, 0, 64, 91
1, 29650, Note_on_c, 0, 75, 51
1, 29663, Control_c, 0, 64, 90
1, 29674, Note_off_c, 0, 75, 59
1, 29678, Control_c, 0, 64, 89
1, 29693, Control_c, 0, 64, 88
1, 29708, Control_c, 0, 64, 87
1, 29713, Note_on_c, 0, 68, 60
1, 29722, Control_c, 0, 64, 87
1, 29733, Note_off_c, 0, 68, 62
1, 29737, Control_c, 0, 64, 86
1, 29752, Control_c, 0, 64, 85
1, 29767, Control_c, 0, 64, 84
1, 29783, Control_c, 0, 64, 83
1, 29796, Control_c, 0, 64, 82
1, 29802, Note_on_c, 0, 63, 54
1, 29811, Control_c, 0, 64, 81
1, 29826, Control_c, 0, 64, 80
1, 29841, Control_c, 0, 64, 79
1, 29855, Note_off_c, 0, 63, 63
1, 29856, Control_c, 0, 64, 78
1, 29870, Control_c, 0, 64, 77
1, 29871, Note_on_c, 0, 60, 55
1, 29885, Control_c, 0, 64, 76
1, 29900, Control_c, 0, 64, 76
1, 29915, Control_c, 0, 64, 75
1, 29930, Control_c, 0, 64, 74
1, 29933, Note_off_c, 0, 60, 62
1, 29944, Control_c, 0, 64, 74
1, 29957, Note_on_c, 0, 63, 57
1, 29959, Control_c, 0, 64, 73
1, 29974, Control_c, 0, 64, 72
1, 29989, Control_c, 0, 64, 70
1, 29994, Note_off_c, 0, 63, 67
1, 30003, Control_c, 0, 64, 66
1, 30018, Control_c, 0, 64, 63
1, 30028, Note_on_c, 0, 56, 66
1, 30033, Control_c, 0, 64, 58
1, 30048, Control_c, 0, 64, 53
1, 30056, Note_off_c, 0, 56, 68
1, 30063, Control_c, 0, 64, 48
1, 30077, Control_c, 0, 64, 45
1, 30092, Control_c, 0, 64, 44
1, 30122, Control_c, 0, 64, 44
1, 30124, Note_on_c, 0, 51, 62
1, 30137, Control_c, 0, 64, 43
1, 30151, Control_c, 0, 64, 41
1, 30166, Control_c, 0, 64, 38
1, 30181, Control_c, 0, 64, 36
1, 30191, Note_off_c, 0, 51, 64
1, 30196, Control_c, 0, 64, 36
1, 30208, Note_on_c, 0, 48, 52
1, 30225, Control_c, 0, 64, 35
1, 30240, Control_c, 0, 64, 35
1, 30255, Control_c, 0, 64, 32
1, 30261, Note_off_c, 0, 48, 63
1, 30270, Control_c, 0, 64, 28
1, 30271, Note_on_c, 0, 51, 49
1, 30285, Control_c, 0, 64, 22
1, 30300, Control_c, 0, 64, 10
1, 30315, Control_c, 0, 64, 0
1, 30318, Note_off_c, 0, 51, 65
1, 30359, Note_on_c, 0, 44, 48
1, 30392, Note_off_c, 0, 44, 63
1, 30438, Note_on_c, 0, 51, 53
1, 30481, Note_off_c, 0, 51, 64
1, 30504, Note_on_c, 0, 48, 40
1, 30559, Note_off_c, 0, 48, 62
1, 30603, Note_on_c, 0, 51, 43
1, 30646, Note_off_c, 0, 51, 65
1, 30673, Note_on_c, 0, 34, 28
1, 30685, Note_on_c, 0, 46, 29
1, 30685, Note_on_c, 0, 39, 29
1, 30685, Note_on_c, 0, 43, 41
1, 30693, Control_c, 0, 64, 22
1, 30708, Control_c, 0, 64, 34
1, 30723, Control_c, 0, 64, 43
1, 30738, Control_c, 0, 64, 55
1, 30753, Control_c, 0, 64, 61
1, 30767, Control_c, 0, 64, 64
1, 30777, Note_on_c, 0, 51, 51
1, 30782, Control_c, 0, 64, 66
1, 30797, Control_c, 0, 64, 67
1, 30810, Note_off_c, 0, 43, 34
1, 30812, Control_c, 0, 64, 67
1, 30825, Note_off_c, 0, 51, 63
1, 30855, Note_on_c, 0, 49, 55
1, 30871, Note_off_c, 0, 46, 46
1, 30875, Note_off_c, 0, 34, 40
1, 30886, Control_c, 0, 64, 67
1, 30900, Control_c, 0, 64, 65
1, 30915, Control_c, 0, 64, 63
1, 30920, Note_off_c, 0, 49, 58
1, 30923, Note_off_c, 0, 39, 45
1, 30924, Note_on_c, 0, 51, 55
1, 30930, Control_c, 0, 64, 59
1, 30945, Control_c, 0, 64, 54
1, 30960, Control_c, 0, 64, 42
1, 30974, Control_c, 0, 64, 11
1, 30981, Note_off_c, 0, 51, 63
1, 30989, Control_c, 0, 64, 0
1, 30999, Note_on_c, 0, 55, 58
1, 31061, Note_off_c, 0, 55, 62
1, 31076, Note_on_c, 0, 51, 51
1, 31115, Control_c, 0, 64, 21
1, 31130, Control_c, 0, 64, 38
1, 31133, Note_off_c, 0, 51, 63
1, 31145, Control_c, 0, 64, 52
1, 31148, Note_on_c, 0, 49, 61
1, 31160, Control_c, 0, 64, 64
1, 31174, Control_c, 0, 64, 73
1, 31189, Control_c, 0, 64, 79
1, 31204, Control_c, 0, 64, 79
1, 31212, Note_off_c, 0, 49, 65
1, 31225, Note_on_c, 0, 51, 60
1, 31252, Note_off_c, 0, 51, 59
1, 31263, Control_c, 0, 64, 77
1, 31278, Control_c, 0, 64, 72
1, 31293, Control_c, 0, 64, 64
1, 31308, Control_c, 0, 64, 49
1, 31314, Note_on_c, 0, 34, 42
1, 31316, Note_on_c, 0, 39, 39
1, 31320, Note_on_c, 0, 55, 59
1, 31321, Note_on_c, 0, 46, 42
1, 31322, Control_c, 0, 64, 17
1, 31337, Control_c, 0, 64, 0
1, 31397, Control_c, 0, 64, 16
1, 31412, Control_c, 0, 64, 33
1, 31418, Note_on_c, 0, 63, 55
1, 31427, Control_c, 0, 64, 47
1, 31436, Note_off_c, 0, 55, 25
1, 31442, Control_c, 0, 64, 59
1, 31457, Control_c, 0, 64, 70
1, 31471, Control_c, 0, 64, 81
1, 31486, Note_off_c, 0, 46, 63
1, 31486, Control_c, 0, 64, 83
1, 31488, Note_off_c, 0, 63, 64
1, 31492, Note_on_c, 0, 61, 64
1, 31497, Note_off_c, 0, 34, 48
1, 31501, Control_c, 0, 64, 84
1, 31558, Note_off_c, 0, 39, 51
1, 31561, Control_c, 0, 64, 82
1, 31562, Note_on_c, 0, 63, 54
1, 31575, Note_off_c, 0, 61, 62
1, 31576, Control_c, 0, 64, 76
1, 31590, Control_c, 0, 64, 67
1, 31605, Control_c, 0, 64, 55
1, 31620, Control_c, 0, 64, 33
1, 31627, Note_off_c, 0, 63, 64
1, 31635, Control_c, 0, 64, 0
1, 31635, Note_on_c, 0, 67, 68
1, 31703, Note_on_c, 0, 63, 60
1, 31710, Note_off_c, 0, 67, 58
1, 31723, Control_c, 0, 64, 14
1, 31738, Control_c, 0, 64, 32
1, 31753, Control_c, 0, 64, 46
1, 31768, Control_c, 0, 64, 59
1, 31773, Note_off_c, 0, 63, 65
1, 31773, Note_on_c, 0, 61, 72
1, 31783, Control_c, 0, 64, 71
1, 31797, Control_c, 0, 64, 84
1, 31812, Control_c, 0, 64, 86
1, 31827, Control_c, 0, 64, 88
1, 31849, Control_c, 0, 64, 88
1, 31853, Note_off_c, 0, 61, 66
1, 31862, Note_on_c, 0, 63, 67
1, 31887, Note_off_c, 0, 63, 69
1, 31894, Control_c, 0, 64, 85
1, 31909, Control_c, 0, 64, 76
1, 31923, Control_c, 0, 64, 65
1, 31938, Control_c, 0, 64, 54
1, 31953, Control_c, 0, 64, 29
1, 31959, Note_on_c, 0, 34, 42
1, 31960, Note_on_c, 0, 46, 38
1, 31964, Note_on_c, 0, 67, 65
1, 31967, Control_c, 0, 64, 0
1, 31981, Note_on_c, 0, 39, 33
1, 32027, Control_c, 0, 64, 11
1, 32041, Control_c, 0, 64, 28
1, 32050, Note_on_c, 0, 75, 61
1, 32056, Control_c, 0, 64, 43
1, 32071, Control_c, 0, 64, 57
1, 32086, Control_c, 0, 64, 72
1, 32101, Control_c, 0, 64, 90
1, 32114, Note_off_c, 0, 67, 37
1, 32115, Control_c, 0, 64, 99
1, 32125, Note_off_c, 0, 75, 61
1, 32127, Note_on_c, 0, 73, 66
1, 32130, Note_off_c, 0, 34, 42
1, 32130, Control_c, 0, 64, 110
1, 32145, Control_c, 0, 64, 127
1, 32153, Note_off_c, 0, 39, 57
1, 32154, Note_off_c, 0, 46, 56
1, 32196, Note_on_c, 0, 75, 63
1, 32224, Note_off_c, 0, 73, 58
1, 32235, Control_c, 0, 64, 97
1, 32250, Control_c, 0, 64, 79
1, 32264, Control_c, 0, 64, 64
1, 32278, Note_off_c, 0, 75, 61
1, 32279, Control_c, 0, 64, 50
1, 32282, Note_on_c, 0, 79, 73
1, 32294, Control_c, 0, 64, 21
1, 32309, Control_c, 0, 64, 0
1, 32354, Control_c, 0, 64, 11
1, 32358, Note_on_c, 0, 75, 67
1, 32369, Control_c, 0, 64, 29
1, 32378, Note_off_c, 0, 79, 60
1, 32384, Control_c, 0, 64, 44
1, 32398, Control_c, 0, 64, 59
1, 32413, Control_c, 0, 64, 73
1, 32428, Control_c, 0, 64, 94
1, 32439, Note_on_c, 0, 73, 67
1, 32442, Note_off_c, 0, 75, 60
1, 32443, Control_c, 0, 64, 109
1, 32458, Control_c, 0, 64, 127
1, 32511, Note_off_c, 0, 73, 65
1, 32513, Note_on_c, 0, 75, 65
1, 32555, Note_off_c, 0, 75, 62
1, 32576, Control_c, 0, 64, 106
1, 32598, Control_c, 0, 64, 83
1, 32613, Control_c, 0, 64, 69
1, 32628, Control_c, 0, 64, 58
1, 32643, Control_c, 0, 64, 40
1, 32646, Note_on_c, 0, 39, 34
1, 32658, Control_c, 0, 64, 0
1, 32661, Note_on_c, 0, 48, 30
1, 32663, Note_on_c, 0, 36, 30
1, 32684, Note_on_c, 0, 80, 59
1, 32746, Control_c, 0, 64, 14
1, 32761, Control_c, 0, 64, 33
1, 32770, Note_on_c, 0, 87, 57
1, 32776, Control_c, 0, 64, 48
1, 32791, Control_c, 0, 64, 62
1, 32806, Control_c, 0, 64, 75
1, 32821, Control_c, 0, 64, 88
1, 32822, Note_off_c, 0, 80, 57
1, 32836, Control_c, 0, 64, 95
1, 32851, Control_c, 0, 64, 117
1, 32855, Note_off_c, 0, 87, 62
1, 32855, Note_on_c, 0, 84, 60
1, 32865, Control_c, 0, 64, 127
1, 32919, Note_on_c, 0, 87, 57
1, 32956, Note_off_c, 0, 36, 39
1, 32958, Note_off_c, 0, 48, 44
1, 32986, Note_off_c, 0, 84, 58
1, 32989, Note_off_c, 0, 39, 38
1, 33001, Note_off_c, 0, 87, 65
1, 33003, Note_on_c, 0, 92, 82
1, 33074, Note_on_c, 0, 87, 66
1, 33120, Note_off_c, 0, 92, 60
1, 33149, Note_on_c, 0, 84, 72
1, 33155, Note_off_c, 0, 87, 64
1, 33220, Note_off_c, 0, 84, 62
1, 33226, Note_on_c, 0, 87, 70
1, 33281, Note_off_c, 0, 87, 64
1, 33310, Note_on_c, 0, 80, 59
1, 33329, Note_off_c, 0, 80, 64
1, 33403, Note_on_c, 0, 75, 63
1, 33466, Control_c, 0, 64, 114
1, 33478, Note_off_c, 0, 75, 60
1, 33481, Control_c, 0, 64, 108
1, 33489, Note_on_c, 0, 72, 66
1, 33496, Control_c, 0, 64, 104
1, 33510, Control_c, 0, 64, 99
1, 33525, Control_c, 0, 64, 96
1, 33540, Control_c, 0, 64, 93
1, 33549, Note_off_c, 0, 72, 61
1, 33554, Control_c, 0, 64, 91
1, 33559, Note_on_c, 0, 75, 62
1, 33569, Control_c, 0, 64, 89
1, 33584, Control_c, 0, 64, 87
1, 33594, Note_off_c, 0, 75, 63
1, 33599, Control_c, 0, 64, 85
1, 33614, Control_c, 0, 64, 82
1, 33628, Control_c, 0, 64, 80
1, 33639, Note_on_c, 0, 68, 58
1, 33643, Control_c, 0, 64, 79
1, 33658, Control_c, 0, 64, 78
1, 33659, Note_off_c, 0, 68, 59
1, 33673, Control_c, 0, 64, 76
1, 33687, Control_c, 0, 64, 74
1, 33702, Control_c, 0, 64, 73
1, 33717, Control_c, 0, 64, 72
1, 33720, Note_on_c, 0, 63, 62
1, 33732, Control_c, 0, 64, 71
1, 33746, Control_c, 0, 64, 71
1, 33763, Control_c, 0, 64, 69
1, 33778, Control_c, 0, 64, 68
1, 33792, Control_c, 0, 64, 67
1, 33797, Note_off_c, 0, 63, 62
1, 33800, Note_on_c, 0, 60, 61
1, 33807, Control_c, 0, 64, 65
1, 33822, Control_c, 0, 64, 64
1, 33836, Control_c, 0, 64, 62
1, 33851, Control_c, 0, 64, 61
1, 33863, Note_on_c, 0, 63, 62
1, 33864, Note_off_c, 0, 60, 63
1, 33866, Control_c, 0, 64, 59
1, 33881, Control_c, 0, 64, 56
1, 33896, Control_c, 0, 64, 53
1, 33910, Control_c, 0, 64, 50
1, 33916, Note_off_c, 0, 63, 61
1, 33925, Control_c, 0, 64, 47
1, 33940, Control_c, 0, 64, 45
1, 33946, Note_on_c, 0, 56, 67
1, 33955, Control_c, 0, 64, 43
1, 33969, Control_c, 0, 64, 42
1, 33975, Note_off_c, 0, 56, 68
1, 33984, Control_c, 0, 64, 40
1, 33999, Control_c, 0, 64, 38
1, 34014, Control_c, 0, 64, 36
1, 34029, Control_c, 0, 64, 34
1, 34042, Note_on_c, 0, 51, 60
1, 34044, Control_c, 0, 64, 31
1, 34059, Control_c, 0, 64, 29
1, 34074, Control_c, 0, 64, 27
1, 34096, Control_c, 0, 64, 25
1, 34106, Note_off_c, 0, 51, 63
1, 34111, Control_c, 0, 64, 23
1, 34125, Control_c, 0, 64, 21
1, 34127, Note_on_c, 0, 48, 51
1, 34140, Control_c, 0, 64, 18
1, 34155, Control_c, 0, 64, 15
1, 34169, Control_c, 0, 64, 10
1, 34178, Note_off_c, 0, 48, 64
1, 34184, Control_c, 0, 64, 0
1, 34193, Note_on_c, 0, 51, 54
1, 34236, Note_off_c, 0, 51, 66
1, 34279, Note_on_c, 0, 44, 50
1, 34314, Note_off_c, 0, 44, 63
1, 34364, Note_on_c, 0, 51, 47
1, 34403, Note_off_c, 0, 51, 64
1, 34426, Note_on_c, 0, 48, 50
1, 34477, Note_off_c, 0, 48, 64
1, 34513, Note_on_c, 0, 51, 45
1, 34560, Note_off_c, 0, 51, 63
1, 34595, Note_on_c, 0, 46, 41
1, 34600, Control_c, 0, 64, 15
1, 34603, Note_on_c, 0, 31, 31
1, 34615, Note_on_c, 0, 39, 25
1, 34615, Control_c, 0, 64, 29
1, 34626, Note_on_c, 0, 43, 23
1, 34630, Control_c, 0, 64, 38
1, 34645, Control_c, 0, 64, 48
1, 34659, Control_c, 0, 64, 59
1, 34674, Control_c, 0, 64, 65
1, 34677, Note_on_c, 0, 51, 49
1, 34689, Control_c, 0, 64, 68
1, 34704, Control_c, 0, 64, 69
1, 34719, Control_c, 0, 64, 71
1, 34729, Note_off_c, 0, 51, 59
1, 34733, Control_c, 0, 64, 74
1, 34744, Note_off_c, 0, 46, 35
1, 34748, Control_c, 0, 64, 77
1, 34759, Note_on_c, 0, 49, 51
1, 34763, Control_c, 0, 64, 78
1, 34778, Control_c, 0, 64, 80
1, 34792, Control_c, 0, 64, 80
1, 34799, Note_off_c, 0, 31, 39
1, 34807, Note_off_c, 0, 43, 40
1, 34817, Note_off_c, 0, 49, 61
1, 34840, Note_off_c, 0, 39, 50
1, 34845, Control_c, 0, 64, 80
1, 34849, Note_on_c, 0, 51, 51
1, 34860, Control_c, 0, 64, 76
1, 34874, Control_c, 0, 64, 69
1, 34889, Control_c, 0, 64, 61
1, 34893, Note_off_c, 0, 51, 64
1, 34904, Control_c, 0, 64, 47
1, 34919, Control_c, 0, 64, 15
1, 34925, Note_on_c, 0, 58, 51
1, 34934, Control_c, 0, 64, 0
1, 34993, Note_off_c, 0, 58, 53
1, 34997, Note_on_c, 0, 51, 52
1, 35007, Control_c, 0, 64, 27
1, 35022, Control_c, 0, 64, 40
1, 35037, Control_c, 0, 64, 55
1, 35051, Note_off_c, 0, 51, 61
1, 35052, Control_c, 0, 64, 65
1, 35066, Control_c, 0, 64, 74
1, 35071, Note_on_c, 0, 49, 61
1, 35081, Control_c, 0, 64, 79
1, 35096, Control_c, 0, 64, 81
1, 35111, Control_c, 0, 64, 83
1, 35126, Control_c, 0, 64, 84
1, 35132, Note_off_c, 0, 49, 65
1, 35153, Note_on_c, 0, 51, 51
1, 35171, Control_c, 0, 64, 83
1, 35180, Note_off_c, 0, 51, 56
1, 35186, Control_c, 0, 64, 77
1, 35200, Control_c, 0, 64, 67
1, 35215, Control_c, 0, 64, 58
1, 35230, Control_c, 0, 64, 34
1, 35245, Note_on_c, 0, 58, 64
1, 35245, Control_c, 0, 64, 0
1, 35260, Note_on_c, 0, 31, 35
1, 35269, Note_on_c, 0, 43, 32
1, 35271, Note_on_c, 0, 39, 26
1, 35318, Control_c, 0, 64, 23
1, 35333, Control_c, 0, 64, 40
1, 35340, Note_on_c, 0, 63, 51
1, 35348, Control_c, 0, 64, 53
1, 35364, Control_c, 0, 64, 64
1, 35379, Control_c, 0, 64, 74
1, 35393, Note_off_c, 0, 58, 34
1, 35394, Control_c, 0, 64, 81
1, 35407, Note_off_c, 0, 63, 63
1, 35408, Control_c, 0, 64, 84
1, 35423, Control_c, 0, 64, 88
1, 35424, Note_on_c, 0, 61, 57
1, 35427, Note_off_c, 0, 31, 41
1, 35438, Control_c, 0, 64, 92
1, 35442, Note_off_c, 0, 43, 40
1, 35453, Control_c, 0, 64, 95
1, 35454, Note_off_c, 0, 39, 51
1, 35484, Note_on_c, 0, 63, 47
1, 35490, Note_off_c, 0, 61, 62
1, 35497, Control_c, 0, 64, 92
1, 35512, Control_c, 0, 64, 82
1, 35527, Control_c, 0, 64, 71
1, 35542, Control_c, 0, 64, 62
1, 35556, Control_c, 0, 64, 47
1, 35564, Note_off_c, 0, 63, 65
1, 35571, Control_c, 0, 64, 14
1, 35579, Note_on_c, 0, 70, 63
1, 35594, Control_c, 0, 64, 0
1, 35658, Note_on_c, 0, 63, 61
1, 35668, Control_c, 0, 64, 27
1, 35683, Control_c, 0, 64, 40
1, 35686, Note_off_c, 0, 70, 57
1, 35697, Control_c, 0, 64, 53
1, 35712, Control_c, 0, 64, 66
1, 35727, Control_c, 0, 64, 83
1, 35740, Note_on_c, 0, 61, 71
1, 35740, Note_off_c, 0, 63, 65
1, 35742, Control_c, 0, 64, 103
1, 35757, Control_c, 0, 64, 127
1, 35809, Note_off_c, 0, 61, 67
1, 35811, Note_on_c, 0, 63, 73
1, 35831, Control_c, 0, 64, 117
1, 35836, Note_off_c, 0, 63, 72
1, 35846, Control_c, 0, 64, 90
1, 35861, Control_c, 0, 64, 72
1, 35876, Control_c, 0, 64, 61
1, 35890, Control_c, 0, 64, 45
1, 35905, Control_c, 0, 64, 0
1, 35917, Note_on_c, 0, 31, 34
1, 35920, Note_on_c, 0, 43, 39
1, 35922, Note_on_c, 0, 39, 33
1, 35924, Note_on_c, 0, 70, 72
1, 35964, Control_c, 0, 64, 18
1, 35979, Control_c, 0, 64, 32
1, 35994, Control_c, 0, 64, 48
1, 36008, Note_on_c, 0, 75, 65
1, 36008, Control_c, 0, 64, 62
1, 36023, Control_c, 0, 64, 77
1, 36038, Control_c, 0, 64, 98
1, 36053, Control_c, 0, 64, 107
1, 36068, Control_c, 0, 64, 122
1, 36069, Note_off_c, 0, 70, 48
1, 36082, Note_off_c, 0, 31, 49
1, 36083, Control_c, 0, 64, 127
1, 36096, Note_on_c, 0, 73, 73
1, 36102, Note_off_c, 0, 75, 61
1, 36140, Note_off_c, 0, 43, 45
1, 36159, Note_on_c, 0, 75, 66
1, 36184, Note_off_c, 0, 73, 62
1, 36188, Note_off_c, 0, 39, 43
1, 36217, Control_c, 0, 64, 96
1, 36232, Control_c, 0, 64, 75
1, 36247, Control_c, 0, 64, 63
1, 36248, Note_on_c, 0, 82, 79
1, 36250, Note_off_c, 0, 75, 62
1, 36262, Control_c, 0, 64, 49
1, 36277, Control_c, 0, 64, 14
1, 36292, Control_c, 0, 64, 0
1, 36318, Note_on_c, 0, 75, 65
1, 36343, Control_c, 0, 64, 12
1, 36358, Control_c, 0, 64, 26
1, 36372, Control_c, 0, 64, 40
1, 36381, Note_off_c, 0, 82, 58
1, 36387, Control_c, 0, 64, 57
1, 36402, Control_c, 0, 64, 72
1, 36410, Note_off_c, 0, 75, 62
1, 36416, Note_on_c, 0, 73, 68
1, 36417, Control_c, 0, 64, 99
1, 36432, Control_c, 0, 64, 127
1, 36479, Note_off_c, 0, 73, 63
1, 36489, Note_on_c, 0, 75, 61
1, 36560, Note_off_c, 0, 75, 61
1, 36565, Control_c, 0, 64, 105
1, 36580, Control_c, 0, 64, 81
1, 36592, Note_on_c, 0, 32, 36
1, 36595, Control_c, 0, 64, 68
1, 36610, Control_c, 0, 64, 58
1, 36611, Note_on_c, 0, 44, 31
1, 36616, Note_on_c, 0, 72, 54
1, 36620, Note_on_c, 0, 39, 33
1, 36625, Control_c, 0, 64, 39
1, 36639, Control_c, 0, 64, 0
1, 36706, Note_on_c, 0, 80, 56
1, 36728, Control_c, 0, 64, 23
1, 36743, Control_c, 0, 64, 39
1, 36757, Control_c, 0, 64, 56
1, 36772, Control_c, 0, 64, 68
1, 36783, Note_off_c, 0, 72, 41
1, 36787, Control_c, 0, 64, 82
1, 36791, Note_on_c, 0, 75, 63
1, 36793, Note_off_c, 0, 80, 58
1, 36802, Control_c, 0, 64, 89
1, 36817, Control_c, 0, 64, 93
1, 36831, Control_c, 0, 64, 100
1, 36846, Control_c, 0, 64, 108
1, 36861, Control_c, 0, 64, 127
1, 36867, Note_on_c, 0, 80, 61
1, 36879, Note_off_c, 0, 75, 59
1, 36920, Note_off_c, 0, 44, 38
1, 36932, Note_off_c, 0, 32, 35
1, 36933, Note_off_c, 0, 39, 35
1, 36953, Note_on_c, 0, 84, 73
1, 36954, Note_off_c, 0, 80, 62
1, 37026, Note_on_c, 0, 80, 78
1, 37054, Note_off_c, 0, 84, 60
1, 37117, Note_off_c, 0, 80, 61
1, 37121, Note_on_c, 0, 75, 67
1, 37178, Note_on_c, 0, 80, 65
1, 37182, Note_off_c, 0, 75, 61
1, 37195, Control_c, 0, 64, 119
1, 37210, Control_c, 0, 64, 115
1, 37225, Control_c, 0, 64, 113
1, 37240, Control_c, 0, 64, 109
1, 37244, Note_off_c, 0, 80, 62
1, 37255, Control_c, 0, 64, 106
1, 37269, Control_c, 0, 64, 102
1, 37275, Note_on_c, 0, 72, 50
1, 37284, Control_c, 0, 64, 98
1, 37297, Note_off_c, 0, 72, 61
1, 37299, Control_c, 0, 64, 93
1, 37314, Control_c, 0, 64, 90
1, 37329, Control_c, 0, 64, 87
1, 37343, Control_c, 0, 64, 85
1, 37358, Control_c, 0, 64, 83
1, 37359, Note_on_c, 0, 68, 57
1, 37373, Control_c, 0, 64, 82
1, 37387, Control_c, 0, 64, 80
1, 37402, Control_c, 0, 64, 77
1, 37417, Control_c, 0, 64, 74
1, 37432, Control_c, 0, 64, 71
1, 37442, Note_off_c, 0, 68, 58
1, 37447, Note_on_c, 0, 63, 66
1, 37447, Control_c, 0, 64, 69
1, 37461, Control_c, 0, 64, 67
1, 37476, Control_c, 0, 64, 65
1, 37491, Control_c, 0, 64, 62
1, 37506, Control_c, 0, 64, 59
1, 37513, Note_off_c, 0, 63, 61
1, 37521, Control_c, 0, 64, 54
1, 37525, Note_on_c, 0, 68, 64
1, 37535, Control_c, 0, 64, 49
1, 37550, Note_off_c, 0, 68, 67
1, 37550, Control_c, 0, 64, 46
1, 37565, Control_c, 0, 64, 45
1, 37594, Note_on_c, 0, 60, 63
1, 37594, Control_c, 0, 64, 45
1, 37609, Control_c, 0, 64, 44
1, 37624, Note_off_c, 0, 60, 66
1, 37624, Control_c, 0, 64, 43
1, 37639, Control_c, 0, 64, 43
1, 37654, Control_c, 0, 64, 42
1, 37669, Control_c, 0, 64, 40
1, 37675, Note_on_c, 0, 56, 61
1, 37684, Control_c, 0, 64, 39
1, 37699, Control_c, 0, 64, 38
1, 37753, Note_off_c, 0, 56, 64
1, 37758, Control_c, 0, 64, 38
1, 37770, Note_on_c, 0, 51, 60
1, 37788, Control_c, 0, 64, 37
1, 37803, Control_c, 0, 64, 37
1, 37817, Note_off_c, 0, 51, 62
1, 37818, Control_c, 0, 64, 36
1, 37840, Control_c, 0, 64, 33
1, 37841, Note_on_c, 0, 56, 58
1, 37855, Control_c, 0, 64, 28
1, 37870, Control_c, 0, 64, 23
1, 37884, Control_c, 0, 64, 17
1, 37897, Note_off_c, 0, 56, 63
1, 37899, Control_c, 0, 64, 14
1, 37914, Control_c, 0, 64, 11
1, 37929, Control_c, 0, 64, 0
1, 37937, Note_on_c, 0, 48, 58
1, 37985, Note_off_c, 0, 48, 59
1, 38008, Note_on_c, 0, 56, 60
1, 38062, Note_off_c, 0, 56, 64
1, 38080, Note_on_c, 0, 51, 58
1, 38158, Note_off_c, 0, 51, 61
1, 38160, Note_on_c, 0, 56, 42
1, 38231, Note_off_c, 0, 56, 63
1, 38240, Note_on_c, 0, 60, 62
1, 38304, Note_off_c, 0, 60, 62
1, 38307, Note_on_c, 0, 56, 51
1, 38376, Note_off_c, 0, 56, 60
1, 38411, Note_on_c, 0, 51, 45
1, 38464, Note_off_c, 0, 51, 62
1, 38486, Note_on_c, 0, 56, 42
1, 38530, Note_off_c, 0, 56, 63
1, 38566, Control_c, 0, 64, 27
1, 38588, Note_on_c, 0, 29, 31
1, 38589, Control_c, 0, 64, 41
1, 38598, Note_on_c, 0, 50, 39
1, 38604, Note_on_c, 0, 41, 22
1, 38604, Control_c, 0, 64, 53
1, 38619, Control_c, 0, 64, 63
1, 38633, Control_c, 0, 64, 71
1, 38648, Control_c, 0, 64, 78
1, 38663, Control_c, 0, 64, 83
1, 38678, Control_c, 0, 64, 91
1, 38693, Control_c, 0, 64, 98
1, 38694, Note_on_c, 0, 58, 53
1, 38707, Control_c, 0, 64, 108
1, 38722, Control_c, 0, 64, 127
1, 38751, Note_off_c, 0, 50, 35
1, 38755, Note_off_c, 0, 29, 38
1, 38755, Note_off_c, 0, 58, 60
1, 38768, Note_off_c, 0, 41, 47
1, 38775, Note_on_c, 0, 56, 53
1, 38837, Note_off_c, 0, 56, 58
1, 38839, Note_on_c, 0, 58, 51
1, 38870, Control_c, 0, 64, 102
1, 38885, Control_c, 0, 64, 75
1, 38900, Control_c, 0, 64, 62
1, 38905, Note_off_c, 0, 58, 62
1, 38915, Control_c, 0, 64, 48
1, 38918, Note_on_c, 0, 62, 65
1, 38930, Control_c, 0, 64, 20
1, 38945, Control_c, 0, 64, 0
1, 38974, Control_c, 0, 64, 21
1, 38984, Note_off_c, 0, 62, 61
1, 38988, Note_on_c, 0, 58, 54
1, 38989, Control_c, 0, 64, 34
1, 39004, Control_c, 0, 64, 48
1, 39019, Control_c, 0, 64, 62
1, 39033, Control_c, 0, 64, 77
1, 39048, Control_c, 0, 64, 115
1, 39055, Note_off_c, 0, 58, 62
1, 39063, Control_c, 0, 64, 127
1, 39064, Note_on_c, 0, 56, 61
1, 39125, Note_on_c, 0, 58, 56
1, 39126, Note_off_c, 0, 56, 65
1, 39150, Note_off_c, 0, 58, 67
1, 39166, Control_c, 0, 64, 109
1, 39181, Control_c, 0, 64, 79
1, 39196, Control_c, 0, 64, 64
1, 39211, Control_c, 0, 64, 51
1, 39225, Control_c, 0, 64, 24
1, 39233, Note_on_c, 0, 62, 65
1, 39240, Control_c, 0, 64, 0
1, 39255, Note_on_c, 0, 41, 28
1, 39255, Note_on_c, 0, 53, 36
1, 39269, Note_on_c, 0, 46, 18
1, 39270, Control_c, 0, 64, 13
1, 39285, Control_c, 0, 64, 25
1, 39299, Control_c, 0, 64, 38
1, 39314, Control_c, 0, 64, 52
1, 39337, Control_c, 0, 64, 65
1, 39349, Note_on_c, 0, 70, 62
1, 39352, Control_c, 0, 64, 94
1, 39368, Control_c, 0, 64, 127
1, 39373, Note_off_c, 0, 62, 35
1, 39422, Note_off_c, 0, 53, 51
1, 39425, Note_off_c, 0, 70, 61
1, 39431, Note_off_c, 0, 41, 47
1, 39433, Note_on_c, 0, 68, 61
1, 39497, Note_off_c, 0, 46, 41
1, 39499, Note_on_c, 0, 70, 62
1, 39511, Note_off_c, 0, 68, 58
1, 39531, Control_c, 0, 64, 107
1, 39546, Control_c, 0, 64, 77
1, 39561, Control_c, 0, 64, 63
1, 39563, Note_off_c, 0, 70, 62
1, 39571, Note_on_c, 0, 74, 72
1, 39576, Control_c, 0, 64, 49
1, 39590, Control_c, 0, 64, 23
1, 39605, Control_c, 0, 64, 0
1, 39639, Note_on_c, 0, 70, 66
1, 39650, Control_c, 0, 64, 21
1, 39659, Note_off_c, 0, 74, 62
1, 39664, Control_c, 0, 64, 33
1, 39679, Control_c, 0, 64, 46
1, 39694, Control_c, 0, 64, 60
1, 39709, Control_c, 0, 64, 78
1, 39719, Note_off_c, 0, 70, 63
1, 39721, Note_on_c, 0, 68, 72
1, 39724, Control_c, 0, 64, 127
1, 39793, Note_on_c, 0, 70, 69
1, 39793, Note_off_c, 0, 68, 62
1, 39821, Note_off_c, 0, 70, 64
1, 39842, Control_c, 0, 64, 98
1, 39857, Control_c, 0, 64, 73
1, 39872, Control_c, 0, 64, 60
1, 39887, Control_c, 0, 64, 42
1, 39895, Note_on_c, 0, 39, 40
1, 39901, Control_c, 0, 64, 0
1, 39903, Note_on_c, 0, 46, 36
1, 39907, Note_on_c, 0, 51, 41
1, 39909, Note_on_c, 0, 75, 65
1, 39961, Control_c, 0, 64, 9
1, 39975, Control_c, 0, 64, 31
1, 39990, Control_c, 0, 64, 49
1, 39994, Note_on_c, 0, 82, 62
1, 40005, Control_c, 0, 64, 69
1, 40020, Control_c, 0, 64, 127
1, 40036, Note_off_c, 0, 75, 59
1, 40080, Note_on_c, 0, 79, 73
1, 40090, Note_off_c, 0, 82, 64
1, 40116, Note_off_c, 0, 51, 63
1, 40142, Note_off_c, 0, 39, 41
1, 40169, Note_on_c, 0, 82, 68
1, 40199, Note_off_c, 0, 79, 54
1, 40212, Note_off_c, 0, 46, 41
1, 40238, Note_on_c, 0, 87, 80
1, 40246, Note_off_c, 0, 82, 64
1, 40318, Note_on_c, 0, 82, 70
1, 40367, Note_off_c, 0, 87, 59
1, 40389, Note_off_c, 0, 82, 64
1, 40394, Note_on_c, 0, 79, 69
1, 40457, Note_off_c, 0, 79, 60
1, 40487, Control_c, 0, 64, 94
1, 40489, Note_on_c, 0, 82, 62
1, 40502, Control_c, 0, 64, 76
1, 40517, Control_c, 0, 64, 64
1, 40531, Control_c, 0, 64, 52
1, 40546, Control_c, 0, 64, 23
1, 40557, Note_off_c, 0, 82, 60
1, 40561, Control_c, 0, 64, 0
1, 40568, Note_on_c, 0, 38, 49
1, 40583, Note_on_c, 0, 46, 41
1, 40588, Note_on_c, 0, 77, 60
1, 40591, Note_on_c, 0, 50, 30
1, 40635, Control_c, 0, 64, 21
1, 40650, Control_c, 0, 64, 40
1, 40665, Control_c, 0, 64, 57
1, 40674, Note_on_c, 0, 82, 62
1, 40680, Control_c, 0, 64, 82
1, 40694, Control_c, 0, 64, 127
1, 40732, Note_off_c, 0, 82, 62
1, 40733, Note_off_c, 0, 38, 49
1, 40735, Note_on_c, 0, 80, 68
1, 40755, Note_off_c, 0, 77, 35
1, 40767, Note_off_c, 0, 50, 49
1, 40793, Note_off_c, 0, 46, 63
1, 40828, Note_on_c, 0, 82, 55
1, 40833, Note_off_c, 0, 80, 60
1, 40883, Note_off_c, 0, 82, 62
1, 40898, Note_on_c, 0, 89, 84
1, 40991, Note_on_c, 0, 82, 74
1, 41003, Note_off_c, 0, 89, 59
1, 41058, Note_off_c, 0, 82, 64
1, 41068, Note_on_c, 0, 80, 67
1, 41141, Note_off_c, 0, 80, 61
1, 41142, Note_on_c, 0, 82, 73
1, 41192, Control_c, 0, 64, 77
1, 41207, Control_c, 0, 64, 62
1, 41216, Note_on_c, 0, 50, 52
1, 41222, Control_c, 0, 64, 44
1, 41223, Note_on_c, 0, 62, 52
1, 41224, Note_off_c, 0, 82, 61
1, 41225, Note_on_c, 0, 77, 84
1, 41226, Note_on_c, 0, 58, 49
1, 41236, Control_c, 0, 64, 0
1, 41310, Control_c, 0, 64, 29
1, 41311, Note_on_c, 0, 82, 73
1, 41325, Control_c, 0, 64, 48
1, 41340, Control_c, 0, 64, 65
1, 41354, Control_c, 0, 64, 127
1, 41380, Note_on_c, 0, 80, 76
1, 41381, Note_off_c, 0, 82, 64
1, 41384, Note_off_c, 0, 50, 62
1, 41396, Note_off_c, 0, 62, 59
1, 41400, Note_off_c, 0, 77, 48
1, 41458, Note_on_c, 0, 82, 72
1, 41468, Note_off_c, 0, 80, 61
1, 41479, Note_off_c, 0, 58, 61
1, 41517, Note_off_c, 0, 82, 63
1, 41545, Note_on_c, 0, 89, 79
1, 41568, Note_on_c, 0, 88, 59
1, 41633, Note_on_c, 0, 82, 77
1, 41634, Note_off_c, 0, 89, 51
1, 41675, Note_off_c, 0, 88, 27
1, 41704, Note_off_c, 0, 82, 63
1, 41708, Note_on_c, 0, 80, 78
1, 41788, Note_off_c, 0, 80, 62
1, 41792, Note_on_c, 0, 82, 75
1, 41836, Control_c, 0, 64, 86
1, 41851, Control_c, 0, 64, 62
1, 41853, Note_off_c, 0, 82, 63
1, 41866, Control_c, 0, 64, 38
1, 41879, Note_on_c, 0, 61, 51
1, 41881, Control_c, 0, 64, 0
1, 41882, Note_on_c, 0, 79, 76
1, 41883, Note_on_c, 0, 49, 45
1, 41897, Note_on_c, 0, 51, 48
1, 41940, Control_c, 0, 64, 20
1, 41955, Control_c, 0, 64, 40
1, 41970, Control_c, 0, 64, 58
1, 41970, Note_on_c, 0, 87, 73
1, 41984, Control_c, 0, 64, 87
1, 41999, Control_c, 0, 64, 127
1, 42045, Note_off_c, 0, 87, 63
1, 42048, Note_on_c, 0, 82, 75
1, 42074, Note_off_c, 0, 79, 38
1, 42075, Note_off_c, 0, 61, 65
1, 42081, Note_off_c, 0, 49, 59
1, 42119, Note_on_c, 0, 87, 68
1, 42148, Note_off_c, 0, 82, 62
1, 42156, Note_off_c, 0, 51, 55
1, 42210, Note_on_c, 0, 91, 86
1, 42218, Note_off_c, 0, 87, 66
1, 42290, Note_on_c, 0, 87, 75
1, 42318, Note_off_c, 0, 91, 56
1, 42383, Note_off_c, 0, 87, 64
1, 42388, Note_on_c, 0, 82, 68
1, 42469, Note_off_c, 0, 82, 64
1, 42470, Note_on_c, 0, 87, 54
1, 42540, Control_c, 0, 64, 85
1, 42555, Control_c, 0, 64, 69
1, 42570, Control_c, 0, 64, 57
1, 42574, Note_on_c, 0, 60, 41
1, 42584, Note_on_c, 0, 48, 41
1, 42585, Control_c, 0, 64, 38
1, 42586, Note_on_c, 0, 51, 40
1, 42587, Note_off_c, 0, 87, 62
1, 42599, Control_c, 0, 64, 0
1, 42614, Note_on_c, 0, 80, 64
1, 42635, Note_off_c, 0, 60, 0
1, 42635, Note_on_c, 0, 60, 3
1, 42644, Control_c, 0, 64, 15
1, 42659, Control_c, 0, 64, 31
1, 42674, Control_c, 0, 64, 47
1, 42689, Control_c, 0, 64, 65
1, 42704, Control_c, 0, 64, 117
1, 42705, Note_on_c, 0, 92, 77
1, 42718, Control_c, 0, 64, 127
1, 42771, Note_off_c, 0, 92, 65
1, 42775, Note_off_c, 0, 48, 40
1, 42778, Note_off_c, 0, 51, 53
1, 42779, Note_off_c, 0, 60, 42
1, 42781, Note_on_c, 0, 87, 72
1, 42835, Note_off_c, 0, 80, 59
1, 42850, Note_on_c, 0, 92, 83
1, 42867, Control_c, 0, 64, 98
1, 42871, Note_off_c, 0, 87, 63
1, 42881, Control_c, 0, 64, 67
1, 42896, Control_c, 0, 64, 55
1, 42911, Control_c, 0, 64, 44
1, 42921, Note_on_c, 0, 51, 47
1, 42923, Note_on_c, 0, 59, 56
1, 42925, Control_c, 0, 64, 44
1, 42933, Note_on_c, 0, 47, 57
1, 42936, Note_off_c, 0, 92, 64
1, 42938, Note_on_c, 0, 81, 81
1, 42940, Control_c, 0, 64, 52
1, 42955, Control_c, 0, 64, 62
1, 42970, Control_c, 0, 64, 90
1, 42985, Control_c, 0, 64, 127
1, 42991, Note_off_c, 0, 47, 61
1, 43015, Note_on_c, 0, 93, 89
1, 43024, Note_off_c, 0, 51, 63
1, 43024, Note_off_c, 0, 59, 62
1, 43091, Note_on_c, 0, 87, 84
1, 43101, Note_off_c, 0, 93, 61
1, 43171, Note_on_c, 0, 93, 87
1, 43186, Note_off_c, 0, 87, 62
1, 43187, Note_off_c, 0, 81, 44
1, 43229, Control_c, 0, 64, 75
1, 43240, Note_off_c, 0, 93, 64
1, 43244, Control_c, 0, 64, 61
1, 43258, Note_on_c, 0, 81, 90
1, 43259, Control_c, 0, 64, 40
1, 43264, Note_on_c, 0, 71, 64
1, 43272, Note_on_c, 0, 59, 59
1, 43273, Control_c, 0, 64, 10
1, 43278, Note_on_c, 0, 63, 53
1, 43288, Control_c, 0, 64, 11
1, 43303, Control_c, 0, 64, 26
1, 43318, Control_c, 0, 64, 37
1, 43333, Control_c, 0, 64, 53
1, 43334, Note_on_c, 0, 93, 92
1, 43348, Control_c, 0, 64, 69
1, 43363, Control_c, 0, 64, 127
1, 43391, Note_off_c, 0, 59, 61
1, 43413, Note_off_c, 0, 71, 63
1, 43418, Note_on_c, 0, 87, 79
1, 43422, Note_off_c, 0, 93, 61
1, 43437, Note_off_c, 0, 63, 64
1, 43458, Note_off_c, 0, 81, 62
1, 43493, Note_on_c, 0, 93, 85
1, 43510, Note_off_c, 0, 87, 63
1, 43541, Control_c, 0, 64, 81
1, 43556, Note_off_c, 0, 93, 61
1, 43556, Control_c, 0, 64, 63
1, 43571, Control_c, 0, 64, 47
1, 43584, Note_on_c, 0, 82, 83
1, 43586, Control_c, 0, 64, 15
1, 43587, Note_on_c, 0, 70, 56
1, 43593, Note_on_c, 0, 63, 47
1, 43601, Control_c, 0, 64, 0
1, 43603, Note_on_c, 0, 58, 50
1, 43630, Control_c, 0, 64, 22
1, 43645, Control_c, 0, 64, 38
1, 43660, Control_c, 0, 64, 54
1, 43668, Note_on_c, 0, 94, 89
1, 43675, Control_c, 0, 64, 71
1, 43690, Control_c, 0, 64, 127
1, 43744, Note_off_c, 0, 58, 59
1, 43744, Note_off_c, 0, 70, 60
1, 43746, Note_off_c, 0, 63, 58
1, 43752, Note_on_c, 0, 87, 81
1, 43761, Note_off_c, 0, 94, 66
1, 43783, Note_off_c, 0, 82, 59
1, 43842, Note_on_c, 0, 94, 83
1, 43860, Note_off_c, 0, 87, 62
1, 43904, Control_c, 0, 64, 98
1, 43919, Control_c, 0, 64, 71
1, 43933, Note_off_c, 0, 94, 62
1, 43934, Control_c, 0, 64, 56
1, 43944, Note_on_c, 0, 82, 80
1, 43948, Control_c, 0, 64, 35
1, 43954, Note_on_c, 0, 63, 44
1, 43956, Note_on_c, 0, 56, 50
1, 43963, Control_c, 0, 64, 0
1, 43964, Note_on_c, 0, 68, 47
1, 44008, Control_c, 0, 64, 11
1, 44021, Control_c, 0, 64, 29
1, 44030, Note_on_c, 0, 94, 87
1, 44036, Control_c, 0, 64, 43
1, 44051, Control_c, 0, 64, 58
1, 44066, Control_c, 0, 64, 78
1, 44081, Control_c, 0, 64, 127
1, 44123, Note_off_c, 0, 63, 57
1, 44134, Note_on_c, 0, 87, 80
1, 44141, Note_off_c, 0, 94, 67
1, 44150, Note_off_c, 0, 56, 36
1, 44150, Note_off_c, 0, 68, 48
1, 44213, Note_on_c, 0, 94, 78
1, 44268, Note_off_c, 0, 87, 59
1, 44277, Note_off_c, 0, 82, 37
1, 44319, Control_c, 0, 64, 96
1, 44334, Control_c, 0, 64, 73
1, 44345, Note_on_c, 0, 83, 66
1, 44349, Control_c, 0, 64, 62
1, 44352, Note_on_c, 0, 55, 46
1, 44356, Note_on_c, 0, 63, 37
1, 44359, Note_on_c, 0, 67, 36
1, 44362, Note_off_c, 0, 94, 63
1, 44364, Control_c, 0, 64, 47
1, 44378, Control_c, 0, 64, 13
1, 44393, Control_c, 0, 64, 0
1, 44459, Note_on_c, 0, 95, 77
1, 44467, Control_c, 0, 64, 18
1, 44482, Control_c, 0, 64, 37
1, 44496, Control_c, 0, 64, 56
1, 44511, Control_c, 0, 64, 75
1, 44526, Control_c, 0, 64, 127
1, 44559, Note_off_c, 0, 55, 39
1, 44600, Note_on_c, 0, 87, 71
1, 44600, Note_off_c, 0, 67, 40
1, 44624, Note_off_c, 0, 95, 60
1, 44656, Note_off_c, 0, 63, 47
1, 44666, Note_off_c, 0, 83, 34
1, 44777, Note_on_c, 0, 95, 65
1, 44912, Note_off_c, 0, 95, 53
1, 44952, Note_off_c, 0, 87, 42
1, 45342, Control_c, 0, 64, 115
1, 45357, Control_c, 0, 64, 108
1, 45371, Control_c, 0, 64, 102
1, 45386, Control_c, 0, 64, 97
1, 45401, Control_c, 0, 64, 93
1, 45416, Control_c, 0, 64, 89
1, 45431, Control_c, 0, 64, 86
1, 45446, Control_c, 0, 64, 83
1, 45461, Control_c, 0, 64, 79
1, 45468, Note_on_c, 0, 96, 57
1, 45475, Control_c, 0, 64, 77
1, 45490, Control_c, 0, 64, 74
1, 45505, Control_c, 0, 64, 71
1, 45520, Control_c, 0, 64, 68
1, 45534, Control_c, 0, 64, 65
1, 45549, Control_c, 0, 64, 61
1, 45564, Control_c, 0, 64, 56
1, 45579, Control_c, 0, 64, 47
1, 45594, Control_c, 0, 64, 37
1, 45608, Control_c, 0, 64, 26
1, 45623, Control_c, 0, 64, 18
1, 45638, Control_c, 0, 64, 0
1, 45757, Control_c, 0, 64, 10
1, 45772, Control_c, 0, 64, 21
1, 45787, Control_c, 0, 64, 29
1, 45802, Control_c, 0, 64, 37
1, 45816, Control_c, 0, 64, 47
1, 45819, Note_on_c, 0, 80, 32
1, 45831, Control_c, 0, 64, 60
1, 45846, Control_c, 0, 64, 68
1, 45861, Control_c, 0, 64, 76
1, 45876, Control_c, 0, 64, 82
1, 45890, Control_c, 0, 64, 89
1, 45905, Control_c, 0, 64, 104
1, 45920, Control_c, 0, 64, 127
1, 46036, Note_on_c, 0, 68, 26
1, 46164, Note_off_c, 0, 80, 42
1, 46203, Note_off_c, 0, 68, 39
1, 46223, Note_on_c, 0, 84, 22
1, 46373, Note_on_c, 0, 94, 67
1, 46431, Note_off_c, 0, 84, 41
1, 46463, Note_off_c, 0, 96, 35
1, 46521, Control_c, 0, 64, 99
1, 46536, Control_c, 0, 64, 86
1, 46549, Note_on_c, 0, 79, 41
1, 46552, Control_c, 0, 64, 73
1, 46567, Control_c, 0, 64, 63
1, 46581, Control_c, 0, 64, 51
1, 46596, Control_c, 0, 64, 26
1, 46611, Control_c, 0, 64, 0
1, 46685, Control_c, 0, 64, 14
1, 46699, Control_c, 0, 64, 30
1, 46714, Control_c, 0, 64, 42
1, 46715, Note_on_c, 0, 67, 35
1, 46729, Control_c, 0, 64, 54
1, 46744, Control_c, 0, 64, 63
1, 46759, Control_c, 0, 64, 73
1, 46773, Control_c, 0, 64, 81
1, 46788, Control_c, 0, 64, 89
1, 46803, Control_c, 0, 64, 100
1, 46826, Control_c, 0, 64, 127
1, 46843, Note_off_c, 0, 79, 43
1, 46877, Note_off_c, 0, 67, 42
1, 46878, Note_on_c, 0, 82, 50
1, 47018, Note_off_c, 0, 82, 36
1, 47053, Note_on_c, 0, 92, 72
1, 47186, Note_off_c, 0, 94, 53
1, 47211, Control_c, 0, 64, 114
1, 47226, Note_on_c, 0, 77, 46
1, 47226, Control_c, 0, 64, 90
1, 47240, Control_c, 0, 64, 74
1, 47255, Control_c, 0, 64, 62
1, 47270, Control_c, 0, 64, 45
1, 47285, Control_c, 0, 64, 15
1, 47299, Control_c, 0, 64, 0
1, 47375, Control_c, 0, 64, 18
1, 47390, Control_c, 0, 64, 30
1, 47404, Control_c, 0, 64, 42
1, 47405, Note_on_c, 0, 65, 28
1, 47419, Control_c, 0, 64, 54
1, 47434, Control_c, 0, 64, 65
1, 47449, Control_c, 0, 64, 79
1, 47464, Control_c, 0, 64, 95
1, 47478, Control_c, 0, 64, 113
1, 47493, Control_c, 0, 64, 127
1, 47538, Note_off_c, 0, 65, 42
1, 47559, Note_off_c, 0, 77, 35
1, 47609, Note_on_c, 0, 93, 62
1, 47762, Note_off_c, 0, 92, 40
1, 47902, Note_on_c, 0, 94, 54
1, 47944, Control_c, 0, 64, 113
1, 47953, Note_off_c, 0, 93, 58
1, 47959, Control_c, 0, 64, 101
1, 47974, Control_c, 0, 64, 93
1, 47988, Control_c, 0, 64, 87
1, 48003, Control_c, 0, 64, 81
1, 48018, Control_c, 0, 64, 77
1, 48033, Control_c, 0, 64, 72
1, 48047, Control_c, 0, 64, 68
1, 48062, Control_c, 0, 64, 64
1, 48077, Control_c, 0, 64, 59
1, 48092, Control_c, 0, 64, 50
1, 48094, Note_on_c, 0, 79, 39
1, 48107, Control_c, 0, 64, 35
1, 48121, Control_c, 0, 64, 0
1, 48226, Control_c, 0, 64, 14
1, 48241, Control_c, 0, 64, 24
1, 48256, Control_c, 0, 64, 34
1, 48271, Control_c, 0, 64, 44
1, 48273, Note_on_c, 0, 67, 28
1, 48285, Control_c, 0, 64, 55
1, 48300, Control_c, 0, 64, 64
1, 48323, Control_c, 0, 64, 72
1, 48337, Control_c, 0, 64, 75
1, 48352, Control_c, 0, 64, 77
1, 48367, Control_c, 0, 64, 81
1, 48382, Control_c, 0, 64, 90
1, 48397, Control_c, 0, 64, 103
1, 48412, Control_c, 0, 64, 127
1, 48419, Note_off_c, 0, 79, 42
1, 48445, Note_on_c, 0, 82, 40
1, 48445, Note_off_c, 0, 94, 56
1, 48448, Note_off_c, 0, 67, 39
1, 48618, Note_on_c, 0, 92, 55
1, 48745, Note_off_c, 0, 82, 48
1, 48774, Note_on_c, 0, 77, 46
1, 48797, Control_c, 0, 64, 101
1, 48811, Control_c, 0, 64, 89
1, 48826, Control_c, 0, 64, 78
1, 48841, Control_c, 0, 64, 68
1, 48856, Control_c, 0, 64, 59
1, 48870, Control_c, 0, 64, 44
1, 48885, Control_c, 0, 64, 15
1, 48900, Control_c, 0, 64, 0
1, 48945, Note_on_c, 0, 65, 38
1, 48960, Control_c, 0, 64, 11
1, 48975, Control_c, 0, 64, 23
1, 48990, Control_c, 0, 64, 37
1, 49005, Control_c, 0, 64, 50
1, 49020, Control_c, 0, 64, 62
1, 49034, Control_c, 0, 64, 75
1, 49041, Note_off_c, 0, 77, 43
1, 49049, Control_c, 0, 64, 96
1, 49051, Note_off_c, 0, 65, 62
1, 49071, Control_c, 0, 64, 110
1, 49086, Control_c, 0, 64, 127
1, 49123, Note_on_c, 0, 80, 52
1, 49161, Note_off_c, 0, 92, 0
1, 49217, Poly_aftertouch_c, 0, 92, 0
1, 49324, Control_c, 0, 64, 103
1, 49339, Control_c, 0, 64, 85
1, 49344, Note_on_c, 0, 75, 32
1, 49351, Note_on_c, 0, 91, 47
1, 49354, Control_c, 0, 64, 73
1, 49368, Control_c, 0, 64, 63
1, 49383, Control_c, 0, 64, 47
1, 49398, Note_off_c, 0, 80, 33
1, 49398, Control_c, 0, 64, 19
1, 49413, Control_c, 0, 64, 0
1, 49472, Control_c, 0, 64, 15
1, 49486, Control_c, 0, 64, 28
1, 49501, Control_c, 0, 64, 41
1, 49516, Control_c, 0, 64, 54
1, 49531, Control_c, 0, 64, 65
1, 49546, Control_c, 0, 64, 80
1, 49555, Note_off_c, 0, 91, 35
1, 49560, Control_c, 0, 64, 92
1, 49566, Note_on_c, 0, 63, 38
1, 49569, Note_on_c, 0, 79, 49
1, 49575, Control_c, 0, 64, 96
1, 49590, Control_c, 0, 64, 103
1, 49605, Control_c, 0, 64, 109
1, 49620, Control_c, 0, 64, 117
1, 49634, Control_c, 0, 64, 122
1, 49649, Control_c, 0, 64, 127
1, 49673, Note_off_c, 0, 75, 40
1, 49743, Note_on_c, 0, 80, 63
1, 49762, Note_on_c, 0, 65, 42
1, 49851, Control_c, 0, 64, 122
1, 49865, Control_c, 0, 64, 119
1, 49880, Control_c, 0, 64, 114
1, 49894, Note_off_c, 0, 79, 30
1, 49895, Control_c, 0, 64, 110
1, 49910, Control_c, 0, 64, 107
1, 49911, Note_on_c, 0, 82, 69
1, 49923, Note_on_c, 0, 67, 47
1, 49924, Control_c, 0, 64, 104
1, 49939, Control_c, 0, 64, 101
1, 49954, Control_c, 0, 64, 100
1, 49969, Note_off_c, 0, 63, 34
1, 49969, Control_c, 0, 64, 99
1, 49984, Control_c, 0, 64, 98
1, 49998, Control_c, 0, 64, 95
1, 50013, Note_off_c, 0, 65, 34
1, 50013, Control_c, 0, 64, 93
1, 50028, Control_c, 0, 64, 90
1, 50043, Control_c, 0, 64, 86
1, 50051, Note_off_c, 0, 67, 56
1, 50057, Control_c, 0, 64, 83
1, 50072, Control_c, 0, 64, 79
1, 50082, Note_on_c, 0, 86, 72
1, 50087, Control_c, 0, 64, 75
1, 50102, Control_c, 0, 64, 72
1, 50117, Control_c, 0, 64, 69
1, 50132, Control_c, 0, 64, 67
1, 50136, Note_off_c, 0, 80, 56
1, 50147, Control_c, 0, 64, 64
1, 50148, Note_off_c, 0, 82, 63
1, 50162, Control_c, 0, 64, 61
1, 50177, Control_c, 0, 64, 57
1, 50191, Control_c, 0, 64, 50
1, 50206, Control_c, 0, 64, 40
1, 50221, Control_c, 0, 64, 23
1, 50235, Control_c, 0, 64, 0
1, 50251, Note_on_c, 0, 84, 69
1, 50269, Note_on_c, 0, 70, 43
1, 50305, Note_off_c, 0, 86, 55
1, 50384, Control_c, 0, 64, 18
1, 50391, Note_off_c, 0, 70, 61
1, 50398, Control_c, 0, 64, 27
1, 50413, Control_c, 0, 64, 36
1, 50428, Control_c, 0, 64, 50
1, 50438, Note_on_c, 0, 68, 40
1, 50442, Control_c, 0, 64, 61
1, 50457, Control_c, 0, 64, 70
1, 50472, Control_c, 0, 64, 79
1, 50487, Control_c, 0, 64, 85
1, 50502, Control_c, 0, 64, 91
1, 50516, Control_c, 0, 64, 107
1, 50532, Control_c, 0, 64, 127
1, 50547, Note_off_c, 0, 84, 37
1, 50593, Note_on_c, 0, 56, 47
1, 50595, Note_on_c, 0, 72, 54
1, 50654, Note_off_c, 0, 68, 35
1, 50700, Note_off_c, 0, 56, 35
1, 50779, Note_on_c, 0, 84, 67
1, 50789, Note_off_c, 0, 72, 35
1, 50895, Control_c, 0, 64, 113
1, 50910, Control_c, 0, 64, 104
1, 50925, Control_c, 0, 64, 98
1, 50931, Note_on_c, 0, 82, 72
1, 50940, Control_c, 0, 64, 92
1, 50946, Note_on_c, 0, 68, 53
1, 50955, Control_c, 0, 64, 87
1, 50970, Control_c, 0, 64, 83
1, 50984, Control_c, 0, 64, 79
1, 50991, Note_off_c, 0, 84, 57
1, 50999, Control_c, 0, 64, 75
1, 51014, Control_c, 0, 64, 71
1, 51029, Control_c, 0, 64, 67
1, 51044, Control_c, 0, 64, 63
1, 51058, Control_c, 0, 64, 54
1, 51073, Control_c, 0, 64, 35
1, 51088, Control_c, 0, 64, 0
1, 51092, Note_off_c, 0, 68, 60
1, 51116, Note_on_c, 0, 67, 51
1, 51192, Control_c, 0, 64, 18
1, 51207, Control_c, 0, 64, 33
1, 51221, Control_c, 0, 64, 45
1, 51236, Control_c, 0, 64, 56
1, 51249, Note_off_c, 0, 82, 54
1, 51251, Control_c, 0, 64, 65
1, 51263, Note_on_c, 0, 70, 59
1, 51265, Control_c, 0, 64, 74
1, 51271, Note_on_c, 0, 55, 45
1, 51280, Control_c, 0, 64, 79
1, 51295, Control_c, 0, 64, 82
1, 51318, Control_c, 0, 64, 86
1, 51333, Control_c, 0, 64, 92
1, 51345, Note_off_c, 0, 67, 20
1, 51348, Control_c, 0, 64, 98
1, 51363, Control_c, 0, 64, 103
1, 51375, Note_off_c, 0, 55, 53
1, 51378, Control_c, 0, 64, 108
1, 51393, Control_c, 0, 64, 114
1, 51408, Control_c, 0, 64, 122
1, 51423, Control_c, 0, 64, 127
1, 51454, Note_on_c, 0, 82, 75
1, 51526, Control_c, 0, 64, 122
1, 51541, Control_c, 0, 64, 114
1, 51556, Control_c, 0, 64, 110
1, 51570, Note_off_c, 0, 70, 39
1, 51570, Control_c, 0, 64, 108
1, 51585, Control_c, 0, 64, 106
1, 51600, Control_c, 0, 64, 103
1, 51615, Control_c, 0, 64, 100
1, 51620, Note_on_c, 0, 80, 74
1, 51630, Control_c, 0, 64, 97
1, 51636, Note_on_c, 0, 67, 50
1, 51644, Control_c, 0, 64, 94
1, 51659, Control_c, 0, 64, 91
1, 51674, Control_c, 0, 64, 88
1, 51688, Control_c, 0, 64, 85
1, 51703, Control_c, 0, 64, 82
1, 51718, Control_c, 0, 64, 78
1, 51733, Control_c, 0, 64, 74
1, 51748, Control_c, 0, 64, 71
1, 51750, Note_off_c, 0, 82, 38
1, 51763, Control_c, 0, 64, 66
1, 51777, Control_c, 0, 64, 61
1, 51792, Control_c, 0, 64, 56
1, 51798, Note_on_c, 0, 65, 59
1, 51807, Control_c, 0, 64, 48
1, 51822, Control_c, 0, 64, 40
1, 51837, Control_c, 0, 64, 34
1, 51852, Control_c, 0, 64, 29
1, 51864, Note_off_c, 0, 67, 36
1, 51867, Control_c, 0, 64, 25
1, 51881, Control_c, 0, 64, 19
1, 51896, Control_c, 0, 64, 11
1, 51911, Control_c, 0, 64, 0
1, 51962, Note_on_c, 0, 81, 67
1, 51966, Note_on_c, 0, 66, 52
1, 52007, Note_off_c, 0, 65, 52
1, 52147, Note_off_c, 0, 66, 60
1, 52160, Note_on_c, 0, 84, 69
1, 52184, Note_off_c, 0, 80, 60
1, 52188, Note_off_c, 0, 81, 61
1, 52329, Note_on_c, 0, 82, 61
1, 52331, Note_on_c, 0, 68, 39
1, 52370, Note_off_c, 0, 84, 57
1, 52465, Note_off_c, 0, 68, 51
1, 52481, Control_c, 0, 64, 19
1, 52496, Control_c, 0, 64, 29
1, 52500, Note_on_c, 0, 67, 46
1, 52511, Control_c, 0, 64, 38
1, 52526, Control_c, 0, 64, 50
1, 52541, Control_c, 0, 64, 59
1, 52555, Control_c, 0, 64, 65
1, 52570, Control_c, 0, 64, 69
1, 52585, Control_c, 0, 64, 72
1, 52600, Control_c, 0, 64, 76
1, 52615, Control_c, 0, 64, 84
1, 52629, Control_c, 0, 64, 93
1, 52640, Note_off_c, 0, 82, 64
1, 52644, Control_c, 0, 64, 105
1, 52655, Note_on_c, 0, 70, 45
1, 52659, Control_c, 0, 64, 127
1, 52668, Note_on_c, 0, 55, 42
1, 52732, Note_off_c, 0, 55, 59
1, 52752, Note_off_c, 0, 67, 32
1, 52844, Note_on_c, 0, 82, 58
1, 52871, Note_off_c, 0, 70, 34
1, 52949, Control_c, 0, 64, 110
1, 52964, Control_c, 0, 64, 95
1, 52979, Control_c, 0, 64, 86
1, 52994, Control_c, 0, 64, 78
1, 53009, Control_c, 0, 64, 69
1, 53012, Note_on_c, 0, 80, 58
1, 53020, Note_on_c, 0, 67, 40
1, 53023, Control_c, 0, 64, 63
1, 53038, Control_c, 0, 64, 53
1, 53053, Control_c, 0, 64, 36
1, 53059, Note_off_c, 0, 82, 50
1, 53068, Control_c, 0, 64, 0
1, 53128, Control_c, 0, 64, 14
1, 53142, Control_c, 0, 64, 22
1, 53157, Control_c, 0, 64, 32
1, 53165, Note_off_c, 0, 67, 44
1, 53172, Control_c, 0, 64, 43
1, 53187, Control_c, 0, 64, 55
1, 53196, Note_on_c, 0, 65, 48
1, 53202, Control_c, 0, 64, 66
1, 53216, Control_c, 0, 64, 76
1, 53231, Control_c, 0, 64, 79
1, 53246, Control_c, 0, 64, 82
1, 53260, Control_c, 0, 64, 88
1, 53275, Control_c, 0, 64, 99
1, 53290, Control_c, 0, 64, 127
1, 53360, Note_off_c, 0, 80, 38
1, 53372, Note_on_c, 0, 68, 39
1, 53382, Note_on_c, 0, 53, 38
1, 53418, Note_off_c, 0, 53, 52
1, 53436, Note_off_c, 0, 68, 42
1, 53445, Note_off_c, 0, 65, 37
1, 53594, Control_c, 0, 64, 105
1, 53608, Control_c, 0, 64, 86
1, 53609, Note_on_c, 0, 79, 43
1, 53618, Note_on_c, 0, 55, 35
1, 53622, Note_on_c, 0, 70, 33
1, 53623, Control_c, 0, 64, 72
1, 53638, Note_on_c, 0, 63, 33
1, 53638, Control_c, 0, 64, 61
1, 53653, Control_c, 0, 64, 47
1, 53667, Control_c, 0, 64, 23
1, 53682, Control_c, 0, 64, 0
1, 53712, Control_c, 0, 64, 10
1, 53727, Control_c, 0, 64, 20
1, 53743, Control_c, 0, 64, 29
1, 53757, Control_c, 0, 64, 40
1, 53772, Control_c, 0, 64, 54
1, 53787, Control_c, 0, 64, 66
1, 53798, Note_on_c, 0, 77, 57
1, 53802, Control_c, 0, 64, 85
1, 53807, Note_on_c, 0, 56, 44
1, 53812, Note_on_c, 0, 62, 36
1, 53813, Note_off_c, 0, 63, 45
1, 53817, Control_c, 0, 64, 114
1, 53825, Note_off_c, 0, 79, 36
1, 53827, Note_off_c, 0, 55, 43
1, 53832, Control_c, 0, 64, 127
1, 53843, Note_off_c, 0, 70, 41
1, 53849, Note_off_c, 0, 56, 59
1, 53858, Note_off_c, 0, 77, 57
1, 53869, Note_off_c, 0, 62, 46
1, 53965, Control_c, 0, 64, 89
1, 53973, Note_on_c, 0, 55, 45
1, 53980, Control_c, 0, 64, 72
1, 53980, Note_on_c, 0, 79, 61
1, 53986, Note_on_c, 0, 70, 45
1, 53995, Control_c, 0, 64, 61
1, 54010, Note_on_c, 0, 63, 41
1, 54010, Control_c, 0, 64, 46
1, 54025, Control_c, 0, 64, 19
1, 54039, Control_c, 0, 64, 0
1, 54061, Note_off_c, 0, 63, 0
1, 54061, Note_on_c, 0, 63, 6
1, 54083, Control_c, 0, 64, 20
1, 54098, Control_c, 0, 64, 31
1, 54113, Control_c, 0, 64, 44
1, 54128, Control_c, 0, 64, 57
1, 54143, Control_c, 0, 64, 70
1, 54150, Note_on_c, 0, 77, 74
1, 54157, Control_c, 0, 64, 95
1, 54165, Note_on_c, 0, 56, 52
1, 54166, Note_on_c, 0, 62, 47
1, 54172, Control_c, 0, 64, 109
1, 54184, Note_off_c, 0, 79, 57
1, 54187, Control_c, 0, 64, 127
1, 54200, Note_off_c, 0, 55, 35
1, 54207, Note_off_c, 0, 63, 49
1, 54232, Note_off_c, 0, 56, 62
1, 54234, Note_off_c, 0, 62, 61
1, 54246, Note_off_c, 0, 70, 35
1, 54265, Note_off_c, 0, 77, 58
1, 54387, Control_c, 0, 64, 104
1, 54402, Control_c, 0, 64, 88
1, 54407, Note_on_c, 0, 79, 57
1, 54416, Control_c, 0, 64, 77
1, 54419, Note_on_c, 0, 63, 42
1, 54420, Note_on_c, 0, 55, 40
1, 54426, Note_on_c, 0, 70, 43
1, 54431, Control_c, 0, 64, 69
1, 54446, Control_c, 0, 64, 59
1, 54461, Control_c, 0, 64, 45
1, 54476, Control_c, 0, 64, 21
1, 54490, Control_c, 0, 64, 0
1, 54610, Control_c, 0, 64, 16
1, 54625, Control_c, 0, 64, 25
1, 54640, Control_c, 0, 64, 35
1, 54654, Control_c, 0, 64, 45
1, 54669, Control_c, 0, 64, 56
1, 54684, Control_c, 0, 64, 63
1, 54699, Control_c, 0, 64, 67
1, 54714, Control_c, 0, 64, 69
1, 54729, Control_c, 0, 64, 72
1, 54743, Control_c, 0, 64, 79
1, 54758, Control_c, 0, 64, 89
1, 54773, Control_c, 0, 64, 104
1, 54779, Note_off_c, 0, 63, 58
1, 54788, Control_c, 0, 64, 127
1, 54791, Note_off_c, 0, 70, 51
1, 55310, Note_on_c, 0, 77, 40
1, 55316, Note_on_c, 0, 56, 34
1, 55338, Note_on_c, 0, 70, 33
1, 55341, Note_on_c, 0, 62, 30
1, 55372, Control_c, 0, 64, 100
1, 55387, Control_c, 0, 64, 83
1, 55402, Control_c, 0, 64, 71
1, 55417, Control_c, 0, 64, 63
1, 55432, Control_c, 0, 64, 53
1, 55447, Control_c, 0, 64, 36
1, 55447, Note_off_c, 0, 55, 38
1, 55461, Control_c, 0, 64, 0
1, 55462, Note_off_c, 0, 79, 38
1, 55550, Control_c, 0, 64, 11
1, 55565, Control_c, 0, 64, 21
1, 55580, Control_c, 0, 64, 31
1, 55595, Control_c, 0, 64, 41
1, 55609, Control_c, 0, 64, 52
1, 55624, Control_c, 0, 64, 61
1, 55639, Control_c, 0, 64, 67
1, 55653, Control_c, 0, 64, 79
1, 55668, Control_c, 0, 64, 95
1, 55683, Control_c, 0, 64, 127
1, 55733, Note_off_c, 0, 62, 42
1, 55749, Note_off_c, 0, 70, 42
1, 55860, Note_off_c, 0, 77, 35
1, 55869, Note_off_c, 0, 56, 42
1, 56317, Note_on_c, 0, 82, 52
1, 56341, Note_on_c, 0, 55, 32
1, 56347, Note_on_c, 0, 63, 35
1, 56350, Note_on_c, 0, 70, 39
1, 56374, Control_c, 0, 64, 111
1, 56389, Control_c, 0, 64, 85
1, 56403, Control_c, 0, 64, 69
1, 56418, Control_c, 0, 64, 58
1, 56433, Control_c, 0, 64, 40
1, 56448, Control_c, 0, 64, 14
1, 56463, Control_c, 0, 64, 18
1, 56477, Control_c, 0, 64, 25
1, 56492, Control_c, 0, 64, 33
1, 56507, Control_c, 0, 64, 42
1, 56517, Note_on_c, 0, 81, 68
1, 56522, Control_c, 0, 64, 55
1, 56535, Note_on_c, 0, 53, 46
1, 56537, Control_c, 0, 64, 73
1, 56541, Note_on_c, 0, 60, 47
1, 56542, Note_on_c, 0, 75, 56
1, 56559, Control_c, 0, 64, 127
1, 56590, Note_off_c, 0, 82, 55
1, 56595, Note_off_c, 0, 75, 56
1, 56613, Note_off_c, 0, 60, 62
1, 56615, Note_off_c, 0, 70, 42
1, 56617, Note_off_c, 0, 63, 45
1, 56618, Note_off_c, 0, 53, 57
1, 56621, Note_off_c, 0, 55, 45
1, 56627, Note_off_c, 0, 81, 61
1, 56709, Note_on_c, 0, 82, 76
1, 56718, Note_on_c, 0, 70, 64
1, 56722, Control_c, 0, 64, 108
1, 56727, Note_on_c, 0, 63, 53
1, 56732, Note_on_c, 0, 55, 54
1, 56737, Control_c, 0, 64, 75
1, 56752, Control_c, 0, 64, 63
1, 56766, Control_c, 0, 64, 51
1, 56781, Control_c, 0, 64, 33
1, 56796, Control_c, 0, 64, 22
1, 56810, Control_c, 0, 64, 25
1, 56825, Control_c, 0, 64, 33
1, 56840, Control_c, 0, 64, 40
1, 56855, Control_c, 0, 64, 51
1, 56870, Control_c, 0, 64, 62
1, 56884, Control_c, 0, 64, 75
1, 56890, Note_on_c, 0, 81, 80
1, 56899, Control_c, 0, 64, 101
1, 56901, Note_on_c, 0, 60, 56
1, 56910, Note_on_c, 0, 75, 62
1, 56914, Control_c, 0, 64, 127
1, 56918, Note_on_c, 0, 53, 51
1, 56973, Note_off_c, 0, 63, 53
1, 56979, Note_off_c, 0, 60, 63
1, 56991, Note_off_c, 0, 55, 37
1, 56993, Note_off_c, 0, 82, 57
1, 56999, Note_off_c, 0, 70, 53
1, 57012, Note_off_c, 0, 75, 59
1, 57026, Note_off_c, 0, 81, 59
1, 57185, Note_off_c, 0, 53, 41
1, 57200, Note_on_c, 0, 82, 73
1, 57212, Control_c, 0, 64, 83
1, 57216, Note_on_c, 0, 70, 51
1, 57220, Note_on_c, 0, 58, 41
1, 57224, Note_on_c, 0, 55, 33
1, 57226, Control_c, 0, 64, 69
1, 57228, Note_on_c, 0, 75, 51
1, 57239, Note_on_c, 0, 63, 33
1, 57241, Control_c, 0, 64, 61
1, 57256, Control_c, 0, 64, 49
1, 57271, Control_c, 0, 64, 29
1, 57286, Control_c, 0, 64, 0
1, 57304, Note_off_c, 0, 63, 0
1, 57304, Note_on_c, 0, 63, 3
1, 57471, Control_c, 0, 64, 8
1, 57486, Control_c, 0, 64, 23
1, 57501, Control_c, 0, 64, 37
1, 57515, Control_c, 0, 64, 48
1, 57530, Control_c, 0, 64, 60
1, 57545, Control_c, 0, 64, 70
1, 57560, Control_c, 0, 64, 85
1, 57574, Control_c, 0, 64, 99
1, 57589, Control_c, 0, 64, 127
1, 57672, Note_off_c, 0, 63, 44
1, 57718, Note_off_c, 0, 82, 56
1, 57777, Note_off_c, 0, 70, 52
1, 57933, Note_off_c, 0, 75, 26
1, 58067, Note_off_c, 0, 58, 35
1, 58315, Note_on_c, 0, 53, 25
1, 58396, Control_c, 0, 64, 86
1, 58398, Note_on_c, 0, 69, 45
1, 58411, Control_c, 0, 64, 68
1, 58426, Control_c, 0, 64, 56
1, 58439, Note_off_c, 0, 55, 42
1, 58441, Control_c, 0, 64, 31
1, 58455, Control_c, 0, 64, 0
1, 58515, Control_c, 0, 64, 10
1, 58531, Control_c, 0, 64, 33
1, 58546, Control_c, 0, 64, 52
1, 58560, Control_c, 0, 64, 67
1, 58565, Note_on_c, 0, 75, 49
1, 58571, Note_off_c, 0, 69, 56
1, 58575, Control_c, 0, 64, 108
1, 58590, Control_c, 0, 64, 127
1, 58648, Note_off_c, 0, 75, 62
1, 58677, Note_on_c, 0, 84, 57
1, 58693, Note_off_c, 0, 53, 42
1, 58762, Note_on_c, 0, 55, 42
1, 58823, Note_off_c, 0, 55, 62
1, 58848, Note_on_c, 0, 53, 44
1, 58901, Note_off_c, 0, 53, 63
1, 58935, Note_on_c, 0, 55, 47
1, 58969, Note_off_c, 0, 55, 65
1, 58994, Note_on_c, 0, 53, 49
1, 59034, Note_off_c, 0, 53, 65
1, 59065, Note_on_c, 0, 55, 64
1, 59137, Note_on_c, 0, 53, 59
1, 59146, Note_off_c, 0, 55, 57
1, 59190, Control_c, 0, 64, 86
1, 59204, Control_c, 0, 64, 67
1, 59219, Control_c, 0, 64, 50
1, 59224, Note_on_c, 0, 51, 62
1, 59227, Note_off_c, 0, 53, 61
1, 59234, Control_c, 0, 64, 17
1, 59249, Control_c, 0, 64, 0
1, 59308, Control_c, 0, 64, 33
1, 59324, Control_c, 0, 64, 50
1, 59339, Control_c, 0, 64, 65
1, 59354, Control_c, 0, 64, 100
1, 59368, Control_c, 0, 64, 127
1, 59376, Note_off_c, 0, 51, 63
1, 59382, Note_off_c, 0, 84, 43
1, 59404, Note_on_c, 0, 53, 53
1, 59468, Note_off_c, 0, 53, 59
1, 59515, Note_on_c, 0, 51, 43
1, 59524, Note_on_c, 0, 69, 44
1, 59552, Note_off_c, 0, 51, 60
1, 59561, Note_off_c, 0, 69, 56
1, 59586, Note_on_c, 0, 53, 43
1, 59592, Note_on_c, 0, 77, 51
1, 59633, Note_off_c, 0, 53, 60
1, 59645, Note_on_c, 0, 84, 65
1, 59649, Note_on_c, 0, 51, 48
1, 59656, Note_off_c, 0, 77, 62
1, 59677, Note_off_c, 0, 84, 65
1, 59700, Note_off_c, 0, 51, 58
1, 59742, Note_on_c, 0, 53, 50
1, 59775, Note_off_c, 0, 53, 62
1, 59788, Note_on_c, 0, 51, 57
1, 59835, Note_off_c, 0, 51, 62
1, 59868, Note_on_c, 0, 53, 63
1, 59906, Note_on_c, 0, 51, 65
1, 59912, Note_off_c, 0, 53, 59
1, 59924, Control_c, 0, 64, 117
1, 59939, Control_c, 0, 64, 84
1, 59954, Control_c, 0, 64, 67
1, 59969, Control_c, 0, 64, 55
1, 59974, Note_on_c, 0, 50, 72
1, 59975, Note_off_c, 0, 51, 63
1, 59984, Control_c, 0, 64, 25
1, 59999, Control_c, 0, 64, 0
1, 60043, Control_c, 0, 64, 17
1, 60058, Control_c, 0, 64, 39
1, 60073, Control_c, 0, 64, 61
1, 60088, Control_c, 0, 64, 98
1, 60096, Note_off_c, 0, 50, 59
1, 60097, Note_on_c, 0, 51, 66
1, 60102, Control_c, 0, 64, 127
1, 60163, Note_off_c, 0, 51, 62
1, 60201, Note_on_c, 0, 70, 59
1, 60213, Note_on_c, 0, 50, 38
1, 60227, Note_off_c, 0, 70, 65
1, 60246, Note_off_c, 0, 50, 58
1, 60253, Note_on_c, 0, 77, 65
1, 60303, Note_on_c, 0, 51, 40
1, 60331, Note_on_c, 0, 86, 73
1, 60332, Note_off_c, 0, 51, 52
1, 60342, Note_off_c, 0, 77, 63
1, 60353, Note_on_c, 0, 50, 52
1, 60370, Note_off_c, 0, 86, 61
1, 60398, Note_off_c, 0, 50, 60
1, 60410, Note_on_c, 0, 51, 65
1, 60456, Note_off_c, 0, 51, 63
1, 60486, Note_on_c, 0, 50, 55
1, 60525, Note_off_c, 0, 50, 64
1, 60539, Note_on_c, 0, 51, 66
1, 60587, Note_on_c, 0, 50, 67
1, 60605, Note_off_c, 0, 51, 54
1, 60673, Control_c, 0, 64, 86
1, 60685, Note_on_c, 0, 48, 86
1, 60688, Control_c, 0, 64, 64
1, 60694, Note_off_c, 0, 50, 63
1, 60703, Control_c, 0, 64, 47
1, 60718, Control_c, 0, 64, 0
1, 60762, Control_c, 0, 64, 25
1, 60777, Control_c, 0, 64, 48
1, 60792, Control_c, 0, 64, 67
1, 60795, Note_off_c, 0, 48, 65
1, 60807, Control_c, 0, 64, 127
1, 60807, Note_on_c, 0, 50, 63
1, 60880, Note_off_c, 0, 50, 54
1, 60912, Note_on_c, 0, 72, 63
1, 60914, Note_on_c, 0, 48, 57
1, 60959, Note_on_c, 0, 77, 72
1, 60962, Note_off_c, 0, 72, 63
1, 60965, Note_off_c, 0, 48, 63
1, 60997, Note_on_c, 0, 50, 46
1, 61003, Note_off_c, 0, 77, 61
1, 61039, Note_on_c, 0, 87, 87
1, 61051, Note_off_c, 0, 50, 64
1, 61077, Note_on_c, 0, 48, 52
1, 61084, Note_off_c, 0, 87, 67
1, 61105, Note_off_c, 0, 48, 67
1, 61145, Note_on_c, 0, 50, 44
1, 61183, Note_off_c, 0, 50, 63
1, 61192, Note_on_c, 0, 48, 60
1, 61262, Note_off_c, 0, 48, 63
1, 61275, Note_on_c, 0, 50, 64
1, 61344, Note_on_c, 0, 48, 69
1, 61400, Note_off_c, 0, 50, 53
1, 61422, Control_c, 0, 64, 82
1, 61437, Control_c, 0, 64, 64
1, 61442, Note_on_c, 0, 46, 87
1, 61452, Control_c, 0, 64, 47
1, 61453, Note_off_c, 0, 48, 65
1, 61467, Control_c, 0, 64, 0
1, 61541, Control_c, 0, 64, 23
1, 61555, Control_c, 0, 64, 46
1, 61570, Control_c, 0, 64, 65
1, 61585, Control_c, 0, 64, 127
1, 61597, Note_on_c, 0, 48, 70
1, 61602, Note_off_c, 0, 46, 64
1, 61675, Note_off_c, 0, 48, 64
1, 61680, Note_on_c, 0, 74, 70
1, 61688, Note_on_c, 0, 46, 57
1, 61739, Note_on_c, 0, 77, 83
1, 61752, Note_off_c, 0, 74, 62
1, 61763, Note_off_c, 0, 46, 65
1, 61805, Note_off_c, 0, 77, 61
1, 61806, Note_on_c, 0, 48, 57
1, 61860, Note_off_c, 0, 48, 62
1, 61884, Note_on_c, 0, 46, 58
1, 61931, Note_off_c, 0, 46, 63
1, 61943, Note_on_c, 0, 89, 94
1, 61967, Note_on_c, 0, 48, 52
1, 62014, Note_off_c, 0, 48, 58
1, 62045, Note_on_c, 0, 46, 56
1, 62085, Note_off_c, 0, 46, 64
1, 62112, Note_on_c, 0, 48, 55
1, 62155, Note_off_c, 0, 48, 61
1, 62158, Note_on_c, 0, 46, 66
1, 62238, Note_off_c, 0, 46, 62
1, 62259, Note_on_c, 0, 48, 63
1, 62306, Note_on_c, 0, 46, 74
1, 62348, Note_off_c, 0, 48, 48
1, 62431, Note_on_c, 0, 44, 84
1, 62452, Control_c, 0, 64, 83
1, 62465, Note_off_c, 0, 46, 62
1, 62467, Control_c, 0, 64, 64
1, 62482, Control_c, 0, 64, 51
1, 62497, Control_c, 0, 64, 13
1, 62512, Control_c, 0, 64, 0
1, 62609, Control_c, 0, 64, 32
1, 62624, Control_c, 0, 64, 52
1, 62639, Control_c, 0, 64, 72
1, 62653, Control_c, 0, 64, 127
1, 62750, Note_off_c, 0, 44, 60
1, 62780, Note_on_c, 0, 46, 47
1, 62841, Note_off_c, 0, 46, 61
1, 62871, Note_on_c, 0, 44, 53
1, 62925, Note_off_c, 0, 44, 57
1, 62953, Note_on_c, 0, 46, 56
1, 63001, Note_off_c, 0, 46, 64
1, 63015, Note_on_c, 0, 91, 91
1, 63032, Note_on_c, 0, 44, 55
1, 63087, Note_off_c, 0, 44, 62
1, 63104, Note_on_c, 0, 46, 68
1, 63113, Note_off_c, 0, 89, 53
1, 63154, Note_off_c, 0, 46, 63
1, 63163, Note_on_c, 0, 44, 70
1, 63200, Note_off_c, 0, 91, 59
1, 63222, Note_off_c, 0, 44, 62
1, 63224, Note_on_c, 0, 46, 74
1, 63281, Note_on_c, 0, 44, 66
1, 63296, Note_off_c, 0, 46, 64
1, 63356, Note_on_c, 0, 46, 63
1, 63358, Note_off_c, 0, 44, 61
1, 63422, Note_on_c, 0, 44, 64
1, 63422, Note_off_c, 0, 46, 64
1, 63442, Note_on_c, 0, 92, 93
1, 63486, Note_off_c, 0, 44, 61
1, 63490, Note_on_c, 0, 46, 62
1, 63549, Note_off_c, 0, 46, 64
1, 63555, Note_on_c, 0, 44, 64
1, 63609, Note_off_c, 0, 44, 61
1, 63611, Note_on_c, 0, 46, 65
1, 63618, Note_off_c, 0, 92, 64
1, 63665, Note_on_c, 0, 44, 64
1, 63670, Note_off_c, 0, 46, 63
1, 63723, Note_on_c, 0, 46, 69
1, 63728, Note_off_c, 0, 44, 61
1, 63786, Note_off_c, 0, 46, 64
1, 63788, Note_on_c, 0, 44, 60
1, 63846, Note_off_c, 0, 44, 61
1, 63847, Note_on_c, 0, 46, 68
1, 63853, Note_on_c, 0, 93, 93
1, 63906, Note_off_c, 0, 46, 65
1, 63913, Note_on_c, 0, 44, 62
1, 63969, Note_off_c, 0, 44, 61
1, 63978, Note_on_c, 0, 46, 69
1, 64028, Note_on_c, 0, 44, 66
1, 64028, Note_off_c, 0, 46, 63
1, 64077, Note_off_c, 0, 93, 61
1, 64088, Note_on_c, 0, 46, 65
1, 64097, Note_off_c, 0, 44, 58
1, 64129, Note_on_c, 0, 44, 50
1, 64145, Note_off_c, 0, 46, 65
1, 64186, Note_on_c, 0, 46, 68
1, 64192, Note_off_c, 0, 44, 62
1, 64248, Note_on_c, 0, 44, 58
1, 64258, Note_off_c, 0, 46, 59
1, 64285, Note_on_c, 0, 46, 53
1, 64299, Note_off_c, 0, 44, 61
1, 64357, Note_on_c, 0, 44, 68
1, 64360, Note_on_c, 0, 94, 95
1, 64366, Note_off_c, 0, 46, 65
1, 64475, Note_off_c, 0, 44, 60
1, 64600, Note_on_c, 0, 43, 75
1, 64683, Note_on_c, 0, 44, 79
1, 64714, Control_c, 0, 64, 90
1, 64729, Control_c, 0, 64, 69
1, 64735, Note_off_c, 0, 43, 60
1, 64743, Control_c, 0, 64, 57
1, 64758, Control_c, 0, 64, 29
1, 64773, Control_c, 0, 64, 0
1, 64801, Note_on_c, 0, 46, 84
1, 64825, Control_c, 0, 64, 23
1, 64832, Note_off_c, 0, 44, 62
1, 64840, Control_c, 0, 64, 42
1, 64855, Control_c, 0, 64, 63
1, 64870, Control_c, 0, 64, 127
1, 64905, Note_on_c, 0, 44, 78
1, 64944, Note_off_c, 0, 46, 63
1, 65030, Note_on_c, 0, 43, 86
1, 65066, Note_off_c, 0, 44, 58
1, 65118, Note_off_c, 0, 94, 61
1, 65144, Note_on_c, 0, 41, 79
1, 65197, Note_off_c, 0, 43, 60
1, 65246, Note_off_c, 0, 41, 62
1, 65448, Control_c, 0, 64, 74
1, 65456, Note_on_c, 0, 39, 88
1, 65463, Control_c, 0, 64, 56
1, 65478, Control_c, 0, 64, 0
1, 65618, Control_c, 0, 64, 15
1, 65633, Control_c, 0, 64, 35
1, 65648, Control_c, 0, 64, 53
1, 65662, Control_c, 0, 64, 76
1, 65677, Control_c, 0, 64, 127
1, 65685, Note_off_c, 0, 39, 64
1, 65907, Note_on_c, 0, 55, 62
1, 65915, Note_on_c, 0, 51, 52
1, 66006, Note_off_c, 0, 51, 61
1, 66014, Note_off_c, 0, 55, 61
1, 66219, Note_on_c, 0, 51, 46
1, 66219, Note_on_c, 0, 67, 84
1, 66235, Note_on_c, 0, 55, 45
1, 66323, Note_off_c, 0, 51, 56
1, 66336, Note_off_c, 0, 55, 38
1, 66504, Note_on_c, 0, 51, 42
1, 66510, Note_on_c, 0, 55, 42
1, 66527, Note_on_c, 0, 50, 43
1, 66589, Note_off_c, 0, 50, 57
1, 66593, Note_off_c, 0, 55, 56
1, 66598, Note_off_c, 0, 51, 60
1, 66706, Note_on_c, 0, 55, 49
1, 66709, Note_on_c, 0, 50, 51
1, 66730, Note_on_c, 0, 51, 40
1, 66762, Note_off_c, 0, 67, 56
1, 66774, Note_off_c, 0, 55, 55
1, 66786, Note_off_c, 0, 51, 56
1, 66798, Note_off_c, 0, 50, 57
1, 66871, Note_on_c, 0, 51, 56
1, 66882, Note_on_c, 0, 55, 50
1, 66885, Note_on_c, 0, 48, 57
1, 66954, Note_off_c, 0, 55, 57
1, 66962, Note_off_c, 0, 48, 57
1, 66968, Note_off_c, 0, 51, 58
1, 67069, Note_on_c, 0, 48, 61
1, 67087, Note_on_c, 0, 55, 50
1, 67092, Note_on_c, 0, 51, 43
1, 67126, Note_off_c, 0, 55, 61
1, 67129, Note_off_c, 0, 51, 55
1, 67141, Note_off_c, 0, 48, 58
1, 67251, Note_on_c, 0, 67, 69
1, 67254, Note_on_c, 0, 51, 43
1, 67256, Note_on_c, 0, 55, 39
1, 67264, Control_c, 0, 64, 78
1, 67269, Note_on_c, 0, 46, 52
1, 67279, Control_c, 0, 64, 62
1, 67293, Control_c, 0, 64, 48
1, 67309, Control_c, 0, 64, 35
1, 67324, Control_c, 0, 64, 39
1, 67339, Control_c, 0, 64, 53
1, 67354, Note_off_c, 0, 46, 62
1, 67354, Control_c, 0, 64, 67
1, 67366, Note_off_c, 0, 51, 58
1, 67368, Control_c, 0, 64, 127
1, 67395, Note_off_c, 0, 55, 34
1, 67427, Note_on_c, 0, 68, 75
1, 67457, Note_on_c, 0, 55, 42
1, 67461, Note_on_c, 0, 51, 43
1, 67461, Note_off_c, 0, 67, 62
1, 67466, Note_on_c, 0, 46, 57
1, 67496, Note_off_c, 0, 68, 60
1, 67508, Note_off_c, 0, 46, 63
1, 67511, Note_off_c, 0, 51, 60
1, 67517, Note_off_c, 0, 55, 58
1, 67592, Note_on_c, 0, 70, 82
1, 67618, Note_on_c, 0, 44, 59
1, 67623, Note_on_c, 0, 55, 51
1, 67629, Note_on_c, 0, 51, 55
1, 67659, Note_off_c, 0, 55, 57
1, 67666, Note_off_c, 0, 44, 58
1, 67669, Note_off_c, 0, 51, 62
1, 67752, Note_on_c, 0, 72, 89
1, 67757, Note_on_c, 0, 44, 69
1, 67761, Note_on_c, 0, 55, 58
1, 67766, Note_off_c, 0, 70, 62
1, 67774, Note_on_c, 0, 51, 59
1, 67815, Note_off_c, 0, 72, 63
1, 67821, Note_off_c, 0, 51, 60
1, 67821, Note_off_c, 0, 55, 57
1, 67833, Note_off_c, 0, 44, 60
1, 67913, Note_on_c, 0, 74, 94
1, 67924, Note_on_c, 0, 43, 60
1, 67932, Note_on_c, 0, 51, 57
1, 67936, Note_on_c, 0, 55, 49
1, 67996, Note_off_c, 0, 43, 58
1, 67998, Note_off_c, 0, 55, 46
1, 68103, Note_off_c, 0, 51, 0
1, 68122, Note_on_c, 0, 43, 59
1, 68132, Control_c, 0, 64, 105
1, 68140, Poly_aftertouch_c, 0, 51, 127
1, 68146, Control_c, 0, 64, 78
1, 68161, Control_c, 0, 64, 63
1, 68172, Note_on_c, 0, 75, 81
1, 68176, Control_c, 0, 64, 47
1, 68188, Poly_aftertouch_c, 0, 51, 0
1, 68190, Control_c, 0, 64, 0
1, 68210, Note_off_c, 0, 74, 64
1, 68295, Control_c, 0, 64, 32
1, 68310, Control_c, 0, 64, 51
1, 68324, Control_c, 0, 64, 70
1, 68339, Control_c, 0, 64, 127
1, 68375, Note_off_c, 0, 75, 59
1, 68402, Note_on_c, 0, 55, 45
1, 68414, Note_on_c, 0, 51, 45
1, 68453, Note_off_c, 0, 55, 60
1, 68453, Note_off_c, 0, 51, 64
1, 68488, Note_off_c, 0, 43, 34
1, 68571, Note_on_c, 0, 70, 74
1, 68584, Note_on_c, 0, 51, 53
1, 68587, Note_on_c, 0, 55, 47
1, 68639, Note_off_c, 0, 55, 55
1, 68643, Note_off_c, 0, 51, 55
1, 68652, Note_off_c, 0, 70, 59
1, 68726, Note_on_c, 0, 51, 47
1, 68736, Note_on_c, 0, 55, 51
1, 68743, Note_on_c, 0, 50, 54
1, 68778, Note_off_c, 0, 55, 57
1, 68791, Note_off_c, 0, 50, 58
1, 68797, Note_off_c, 0, 51, 59
1, 68890, Note_on_c, 0, 50, 63
1, 68898, Note_on_c, 0, 51, 60
1, 68899, Note_on_c, 0, 55, 62
1, 68959, Note_off_c, 0, 55, 53
1, 68971, Note_off_c, 0, 50, 59
1, 68980, Note_off_c, 0, 51, 57
1, 69042, Note_on_c, 0, 51, 52
1, 69047, Note_on_c, 0, 55, 62
1, 69055, Note_on_c, 0, 48, 67
1, 69112, Note_off_c, 0, 55, 62
1, 69123, Note_off_c, 0, 48, 62
1, 69124, Note_off_c, 0, 51, 64
1, 69203, Note_on_c, 0, 48, 67
1, 69213, Note_on_c, 0, 55, 65
1, 69214, Note_on_c, 0, 51, 51
1, 69253, Note_off_c, 0, 51, 61
1, 69255, Note_off_c, 0, 55, 63
1, 69273, Note_off_c, 0, 48, 62
1, 69359, Note_on_c, 0, 74, 82
1, 69361, Control_c, 0, 64, 93
1, 69369, Note_on_c, 0, 46, 67
1, 69375, Note_on_c, 0, 51, 60
1, 69375, Note_on_c, 0, 55, 58
1, 69376, Control_c, 0, 64, 64
1, 69391, Control_c, 0, 64, 47
1, 69405, Control_c, 0, 64, 23
1, 69420, Control_c, 0, 64, 26
1, 69434, Note_off_c, 0, 55, 61
1, 69435, Control_c, 0, 64, 44
1, 69436, Note_off_c, 0, 46, 64
1, 69447, Note_off_c, 0, 51, 64
1, 69450, Control_c, 0, 64, 61
1, 69465, Control_c, 0, 64, 127
1, 69525, Note_on_c, 0, 46, 69
1, 69528, Note_on_c, 0, 75, 86
1, 69532, Note_on_c, 0, 55, 61
1, 69535, Note_on_c, 0, 51, 52
1, 69547, Note_off_c, 0, 74, 66
1, 69576, Note_off_c, 0, 55, 51
1, 69577, Note_off_c, 0, 75, 63
1, 69586, Note_off_c, 0, 51, 57
1, 69587, Note_off_c, 0, 46, 64
1, 69681, Note_on_c, 0, 77, 96
1, 69688, Note_on_c, 0, 44, 67
1, 69697, Note_on_c, 0, 55, 56
1, 69707, Note_on_c, 0, 51, 59
1, 69740, Note_off_c, 0, 55, 50
1, 69755, Note_off_c, 0, 44, 59
1, 69764, Note_off_c, 0, 51, 58
1, 69840, Note_on_c, 0, 79, 91
1, 69848, Note_on_c, 0, 44, 73
1, 69850, Note_on_c, 0, 55, 65
1, 69853, Note_off_c, 0, 77, 63
1, 69858, Note_on_c, 0, 51, 50
1, 69882, Note_off_c, 0, 79, 65
1, 69904, Note_off_c, 0, 55, 58
1, 69916, Note_off_c, 0, 44, 59
1, 69922, Note_off_c, 0, 51, 48
1, 69999, Note_on_c, 0, 51, 48
1, 70004, Note_on_c, 0, 43, 69
1, 70008, Note_on_c, 0, 80, 94
1, 70020, Note_on_c, 0, 55, 58
1, 70099, Note_off_c, 0, 43, 56
1, 70127, Note_off_c, 0, 55, 39
1, 70215, Note_on_c, 0, 43, 66
1, 70244, Control_c, 0, 64, 86
1, 70247, Note_off_c, 0, 51, 54
1, 70259, Control_c, 0, 64, 65
1, 70270, Note_on_c, 0, 82, 93
1, 70274, Control_c, 0, 64, 49
1, 70288, Control_c, 0, 64, 0
1, 70290, Note_off_c, 0, 80, 62
1, 70407, Control_c, 0, 64, 14
1, 70422, Control_c, 0, 64, 39
1, 70436, Control_c, 0, 64, 58
1, 70451, Control_c, 0, 64, 83
1, 70452, Note_on_c, 0, 55, 60
1, 70458, Note_on_c, 0, 51, 63
1, 70466, Control_c, 0, 64, 127
1, 70509, Note_off_c, 0, 55, 61
1, 70516, Note_off_c, 0, 51, 61
1, 70549, Note_off_c, 0, 82, 51
1, 70579, Note_off_c, 0, 43, 43
1, 70626, Note_on_c, 0, 75, 78
1, 70637, Note_on_c, 0, 55, 56
1, 70642, Note_on_c, 0, 51, 62
1, 70684, Note_off_c, 0, 55, 58
1, 70701, Note_off_c, 0, 75, 59
1, 70718, Note_off_c, 0, 51, 57
1, 70787, Note_on_c, 0, 51, 54
1, 70799, Note_on_c, 0, 55, 64
1, 70802, Note_on_c, 0, 50, 64
1, 70852, Note_off_c, 0, 55, 53
1, 70870, Note_off_c, 0, 51, 59
1, 70870, Note_off_c, 0, 50, 59
1, 70951, Note_on_c, 0, 50, 65
1, 70952, Note_on_c, 0, 51, 62
1, 70958, Note_on_c, 0, 55, 67
1, 71025, Note_off_c, 0, 55, 58
1, 71040, Note_off_c, 0, 50, 60
1, 71043, Note_off_c, 0, 51, 54
1, 71109, Note_on_c, 0, 51, 61
1, 71119, Note_on_c, 0, 48, 71
1, 71120, Note_on_c, 0, 55, 70
1, 71189, Note_off_c, 0, 55, 61
1, 71204, Note_off_c, 0, 48, 60
1, 71204, Note_off_c, 0, 51, 60
1, 71279, Note_on_c, 0, 48, 77
1, 71287, Note_on_c, 0, 51, 62
1, 71288, Note_on_c, 0, 55, 69
1, 71335, Note_off_c, 0, 55, 57
1, 71353, Note_off_c, 0, 51, 63
1, 71361, Note_off_c, 0, 48, 63
1, 71453, Control_c, 0, 64, 102
1, 71454, Note_on_c, 0, 46, 71
1, 71454, Note_on_c, 0, 87, 90
1, 71455, Note_on_c, 0, 51, 68
1, 71456, Note_on_c, 0, 55, 67
1, 71468, Control_c, 0, 64, 66
1, 71482, Control_c, 0, 64, 49
1, 71497, Control_c, 0, 64, 16
1, 71512, Control_c, 0, 64, 0
1, 71534, Control_c, 0, 64, 29
1, 71549, Control_c, 0, 64, 51
1, 71558, Note_off_c, 0, 46, 62
1, 71563, Note_off_c, 0, 55, 54
1, 71564, Control_c, 0, 64, 74
1, 71574, Note_off_c, 0, 51, 59
1, 71579, Control_c, 0, 64, 127
1, 71642, Note_on_c, 0, 46, 70
1, 71642, Note_on_c, 0, 55, 58
1, 71646, Note_on_c, 0, 89, 90
1, 71647, Note_on_c, 0, 51, 58
1, 71679, Note_off_c, 0, 87, 65
1, 71707, Note_off_c, 0, 55, 61
1, 71715, Note_off_c, 0, 46, 63
1, 71715, Note_off_c, 0, 89, 64
1, 71722, Note_off_c, 0, 51, 62
1, 71820, Note_on_c, 0, 91, 103
1, 71821, Note_on_c, 0, 55, 67
1, 71823, Note_on_c, 0, 46, 69
1, 71832, Note_on_c, 0, 51, 64
1, 71887, Note_off_c, 0, 55, 55
1, 71893, Note_off_c, 0, 46, 60
1, 71908, Note_off_c, 0, 51, 54
1, 72008, Control_c, 0, 64, 81
1, 72023, Control_c, 0, 64, 57
1, 72024, Note_on_c, 0, 92, 95
1, 72026, Note_on_c, 0, 55, 68
1, 72027, Note_on_c, 0, 51, 71
1, 72031, Note_on_c, 0, 44, 70
1, 72038, Control_c, 0, 64, 23
1, 72045, Note_off_c, 0, 91, 55
1, 72053, Control_c, 0, 64, 0
1, 72098, Control_c, 0, 64, 9
1, 72113, Control_c, 0, 64, 46
1, 72128, Control_c, 0, 64, 67
1, 72141, Note_off_c, 0, 44, 57
1, 72143, Control_c, 0, 64, 127
1, 72149, Note_off_c, 0, 51, 56
1, 72150, Note_off_c, 0, 55, 54
1, 72180, Note_off_c, 0, 92, 63
1, 72253, Note_on_c, 0, 94, 94
1, 72258, Note_on_c, 0, 43, 67
1, 72262, Note_on_c, 0, 51, 52
1, 72262, Note_on_c, 0, 55, 62
1, 72375, Note_off_c, 0, 55, 58
1, 72387, Note_off_c, 0, 43, 57
1, 72423, Note_off_c, 0, 51, 37
1, 72551, Note_off_c, 0, 94, 56
1, 72677, Note_on_c, 0, 96, 88
1, 72680, Note_on_c, 0, 44, 56
1, 72686, Note_on_c, 0, 53, 58
1, 72691, Note_on_c, 0, 51, 56
1, 72743, Control_c, 0, 64, 103
1, 72757, Control_c, 0, 64, 90
1, 72772, Control_c, 0, 64, 81
1, 72787, Control_c, 0, 64, 73
1, 72802, Control_c, 0, 64, 66
1, 72817, Control_c, 0, 64, 61
1, 72832, Control_c, 0, 64, 53
1, 72846, Control_c, 0, 64, 40
1, 72861, Control_c, 0, 64, 22
1, 72876, Control_c, 0, 64, 0
1, 73122, Control_c, 0, 64, 10
1, 73136, Control_c, 0, 64, 23
1, 73151, Control_c, 0, 64, 32
1, 73166, Control_c, 0, 64, 44
1, 73180, Control_c, 0, 64, 56
1, 73195, Control_c, 0, 64, 66
1, 73210, Control_c, 0, 64, 77
1, 73225, Control_c, 0, 64, 88
1, 73240, Control_c, 0, 64, 104
1, 73255, Control_c, 0, 64, 127
1, 73342, Note_off_c, 0, 96, 62
1, 73437, Note_off_c, 0, 53, 28
1, 73450, Note_off_c, 0, 51, 27
1, 73482, Note_off_c, 0, 44, 38
1, 73640, Control_c, 0, 64, 117
1, 73654, Control_c, 0, 64, 103
1, 73669, Control_c, 0, 64, 96
1, 73684, Control_c, 0, 64, 91
1, 73700, Control_c, 0, 64, 85
1, 73715, Control_c, 0, 64, 80
1, 73729, Control_c, 0, 64, 74
1, 73744, Control_c, 0, 64, 69
1, 73759, Control_c, 0, 64, 65
1, 73782, Control_c, 0, 64, 62
1, 73797, Control_c, 0, 64, 59
1, 73811, Control_c, 0, 64, 54
1, 73826, Control_c, 0, 64, 48
1, 73841, Control_c, 0, 64, 43
1, 73856, Control_c, 0, 64, 41
1, 73871, Control_c, 0, 64, 40
1, 73885, Control_c, 0, 64, 37
1, 73900, Control_c, 0, 64, 33
1, 73915, Control_c, 0, 64, 27
1, 73929, Control_c, 0, 64, 20
1, 73944, Control_c, 0, 64, 11
1, 73959, Control_c, 0, 64, 0
1, 74196, Control_c, 0, 64, 9
1, 74211, Control_c, 0, 64, 22
1, 74226, Control_c, 0, 64, 33
1, 74241, Control_c, 0, 64, 42
1, 74256, Control_c, 0, 64, 52
1, 74270, Control_c, 0, 64, 61
1, 74285, Control_c, 0, 64, 68
1, 74300, Control_c, 0, 64, 74
1, 74315, Control_c, 0, 64, 81
1, 74329, Note_on_c, 0, 65, 37
1, 74329, Control_c, 0, 64, 92
1, 74337, Note_on_c, 0, 45, 33
1, 74344, Control_c, 0, 64, 109
1, 74351, Note_on_c, 0, 53, 20
1, 74355, Note_on_c, 0, 51, 24
1, 74359, Control_c, 0, 64, 127
1, 74390, Note_off_c, 0, 65, 44
1, 74395, Note_off_c, 0, 51, 43
1, 74397, Note_off_c, 0, 53, 51
1, 74492, Control_c, 0, 64, 101
1, 74508, Control_c, 0, 64, 84
1, 74528, Note_on_c, 0, 65, 34
1, 74531, Control_c, 0, 64, 71
1, 74533, Note_on_c, 0, 70, 45
1, 74545, Note_on_c, 0, 46, 34
1, 74546, Control_c, 0, 64, 62
1, 74560, Control_c, 0, 64, 50
1, 74562, Note_on_c, 0, 53, 24
1, 74564, Note_on_c, 0, 50, 27
1, 74575, Control_c, 0, 64, 31
1, 74581, Note_off_c, 0, 45, 31
1, 74590, Control_c, 0, 64, 0
1, 74679, Control_c, 0, 64, 19
1, 74694, Control_c, 0, 64, 28
1, 74708, Control_c, 0, 64, 38
1, 74723, Control_c, 0, 64, 50
1, 74738, Control_c, 0, 64, 61
1, 74752, Control_c, 0, 64, 69
1, 74767, Control_c, 0, 64, 78
1, 74782, Control_c, 0, 64, 82
1, 74797, Control_c, 0, 64, 85
1, 74812, Control_c, 0, 64, 88
1, 74826, Control_c, 0, 64, 93
1, 74831, Note_off_c, 0, 53, 43
1, 74841, Control_c, 0, 64, 108
1, 74847, Note_off_c, 0, 65, 45
1, 74856, Control_c, 0, 64, 127
1, 74872, Note_off_c, 0, 50, 40
1, 74876, Note_off_c, 0, 46, 44
1, 74879, Note_off_c, 0, 70, 54
1, 75125, Note_on_c, 0, 70, 64
1, 75141, Note_on_c, 0, 50, 39
1, 75143, Note_on_c, 0, 46, 33
1, 75151, Note_on_c, 0, 65, 50
1, 75180, Note_off_c, 0, 50, 62
1, 75324, Note_off_c, 0, 65, 0
1, 75345, Note_on_c, 0, 65, 24
1, 75349, Note_on_c, 0, 69, 68
1, 75353, Control_c, 0, 64, 96
1, 75368, Control_c, 0, 64, 80
1, 75380, Note_on_c, 0, 51, 36
1, 75383, Control_c, 0, 64, 70
1, 75385, Note_on_c, 0, 48, 33
1, 75398, Control_c, 0, 64, 63
1, 75413, Control_c, 0, 64, 56
1, 75428, Control_c, 0, 64, 43
1, 75443, Note_off_c, 0, 46, 36
1, 75443, Control_c, 0, 64, 21
1, 75457, Control_c, 0, 64, 0
1, 75525, Note_off_c, 0, 70, 55
1, 75561, Control_c, 0, 64, 15
1, 75575, Control_c, 0, 64, 25
1, 75590, Control_c, 0, 64, 36
1, 75605, Control_c, 0, 64, 48
1, 75620, Control_c, 0, 64, 60
1, 75635, Control_c, 0, 64, 74
1, 75649, Control_c, 0, 64, 103
1, 75664, Control_c, 0, 64, 127
1, 75699, Note_off_c, 0, 48, 46
1, 75738, Note_off_c, 0, 65, 44
1, 75777, Note_off_c, 0, 51, 59
1, 76131, Control_c, 0, 64, 105
1, 76146, Control_c, 0, 64, 92
1, 76161, Control_c, 0, 64, 83
1, 76164, Note_on_c, 0, 68, 49
1, 76176, Control_c, 0, 64, 75
1, 76183, Note_on_c, 0, 50, 28
1, 76191, Control_c, 0, 64, 67
1, 76195, Note_on_c, 0, 65, 30
1, 76199, Note_on_c, 0, 59, 28
1, 76206, Control_c, 0, 64, 60
1, 76221, Control_c, 0, 64, 48
1, 76236, Control_c, 0, 64, 30
1, 76245, Note_off_c, 0, 69, 41
1, 76251, Control_c, 0, 64, 0
1, 76354, Control_c, 0, 64, 18
1, 76369, Control_c, 0, 64, 32
1, 76384, Control_c, 0, 64, 45
1, 76398, Control_c, 0, 64, 58
1, 76413, Control_c, 0, 64, 71
1, 76428, Control_c, 0, 64, 90
1, 76434, Note_off_c, 0, 65, 44
1, 76443, Control_c, 0, 64, 101
1, 76458, Control_c, 0, 64, 111
1, 76472, Control_c, 0, 64, 127
1, 76514, Note_off_c, 0, 59, 40
1, 77044, Control_c, 0, 64, 103
1, 77054, Note_off_c, 0, 68, 50
1, 77058, Control_c, 0, 64, 90
1, 77064, Note_on_c, 0, 58, 26
1, 77073, Control_c, 0, 64, 79
1, 77088, Control_c, 0, 64, 66
1, 77099, Note_on_c, 0, 51, 29
1, 77099, Note_on_c, 0, 67, 31
1, 77100, Note_off_c, 0, 50, 31
1, 77103, Control_c, 0, 64, 57
1, 77118, Control_c, 0, 64, 39
1, 77133, Control_c, 0, 64, 0
1, 77163, Note_off_c, 0, 67, 0
1, 77163, Note_on_c, 0, 67, 3
1, 77192, Control_c, 0, 64, 26
1, 77207, Control_c, 0, 64, 43
1, 77221, Control_c, 0, 64, 59
1, 77236, Control_c, 0, 64, 83
1, 77251, Control_c, 0, 64, 127
1, 77264, Note_off_c, 0, 51, 56
1, 77289, Note_off_c, 0, 67, 50
1, 77294, Note_off_c, 0, 58, 53
1, 77666, Note_on_c, 0, 87, 52
1, 77687, Note_on_c, 0, 63, 30
1, 77687, Control_c, 0, 64, 98
1, 77703, Control_c, 0, 64, 81
1, 77708, Note_on_c, 0, 67, 26
1, 77718, Control_c, 0, 64, 69
1, 77733, Control_c, 0, 64, 61
1, 77748, Control_c, 0, 64, 50
1, 77763, Control_c, 0, 64, 26
1, 77777, Control_c, 0, 64, 0
1, 77822, Control_c, 0, 64, 16
1, 77837, Control_c, 0, 64, 24
1, 77851, Control_c, 0, 64, 33
1, 77866, Control_c, 0, 64, 44
1, 77880, Note_on_c, 0, 86, 63
1, 77881, Control_c, 0, 64, 57
1, 77896, Control_c, 0, 64, 69
1, 77901, Note_on_c, 0, 68, 44
1, 77911, Control_c, 0, 64, 89
1, 77911, Note_on_c, 0, 65, 35
1, 77926, Control_c, 0, 64, 108
1, 77938, Note_off_c, 0, 67, 45
1, 77941, Control_c, 0, 64, 127
1, 77950, Note_off_c, 0, 63, 40
1, 78030, Note_off_c, 0, 87, 29
1, 78045, Note_off_c, 0, 68, 46
1, 78056, Note_on_c, 0, 85, 65
1, 78066, Note_on_c, 0, 70, 48
1, 78079, Note_on_c, 0, 67, 35
1, 78094, Note_off_c, 0, 86, 56
1, 78108, Note_off_c, 0, 70, 53
1, 78129, Note_off_c, 0, 65, 45
1, 78237, Control_c, 0, 64, 99
1, 78239, Note_off_c, 0, 85, 63
1, 78249, Note_off_c, 0, 67, 38
1, 78251, Control_c, 0, 64, 79
1, 78257, Note_on_c, 0, 72, 41
1, 78261, Note_on_c, 0, 68, 40
1, 78274, Control_c, 0, 64, 66
1, 78278, Note_on_c, 0, 84, 51
1, 78289, Control_c, 0, 64, 57
1, 78303, Control_c, 0, 64, 42
1, 78318, Control_c, 0, 64, 16
1, 78333, Control_c, 0, 64, 0
1, 78350, Note_off_c, 0, 84, 60
1, 78364, Note_on_c, 0, 82, 54
1, 78377, Control_c, 0, 64, 20
1, 78392, Control_c, 0, 64, 31
1, 78407, Control_c, 0, 64, 41
1, 78422, Control_c, 0, 64, 56
1, 78437, Control_c, 0, 64, 69
1, 78448, Note_on_c, 0, 80, 55
1, 78451, Control_c, 0, 64, 95
1, 78466, Control_c, 0, 64, 127
1, 78467, Note_off_c, 0, 82, 57
1, 78506, Note_off_c, 0, 80, 61
1, 78534, Note_on_c, 0, 79, 59
1, 78565, Note_off_c, 0, 72, 58
1, 78573, Note_off_c, 0, 79, 57
1, 78614, Note_on_c, 0, 78, 58
1, 78668, Note_off_c, 0, 78, 64
1, 78684, Note_on_c, 0, 77, 61
1, 78693, Note_off_c, 0, 68, 49
1, 78761, Note_off_c, 0, 77, 61
1, 78793, Note_on_c, 0, 76, 35
1, 78895, Note_off_c, 0, 76, 0
1, 78903, Note_on_c, 0, 74, 42
1, 78931, Poly_aftertouch_c, 0, 76, 0
1, 78938, Note_off_c, 0, 74, 57
1, 78969, Note_on_c, 0, 72, 59
1, 78999, Note_off_c, 0, 72, 49
1, 79100, Note_on_c, 0, 72, 37
1, 79145, Note_off_c, 0, 72, 49
1, 79161, Note_on_c, 0, 71, 57
1, 79190, Note_off_c, 0, 71, 60
1, 79267, Note_on_c, 0, 69, 6
1, 79317, Poly_aftertouch_c, 0, 71, 127
1, 79319, Note_on_c, 0, 68, 62
1, 79331, Note_off_c, 0, 69, 51
1, 79356, Poly_aftertouch_c, 0, 71, 0
1, 79382, Note_off_c, 0, 68, 58
1, 79387, Note_on_c, 0, 66, 67
1, 79425, Note_off_c, 0, 66, 62
1, 79495, Note_on_c, 0, 65, 56
1, 79530, Note_off_c, 0, 65, 50
1, 79564, Note_on_c, 0, 51, 34
1, 79571, Note_on_c, 0, 45, 22
1, 79575, Note_on_c, 0, 53, 11
1, 79592, Note_on_c, 0, 64, 42
1, 79598, Note_off_c, 0, 51, 48
1, 79613, Note_off_c, 0, 45, 54
1, 79622, Note_off_c, 0, 64, 53
1, 79625, Note_off_c, 0, 53, 51
1, 79720, Control_c, 0, 64, 99
1, 79734, Control_c, 0, 64, 77
1, 79749, Control_c, 0, 64, 63
1, 79755, Note_on_c, 0, 70, 54
1, 79757, Note_on_c, 0, 53, 42
1, 79771, Note_on_c, 0, 62, 43
1, 79771, Control_c, 0, 64, 40
1, 79774, Note_on_c, 0, 46, 44
1, 79786, Control_c, 0, 64, 0
1, 79843, Note_off_c, 0, 62, 0
1, 79843, Note_on_c, 0, 62, 3
1, 79890, Control_c, 0, 64, 18
1, 79905, Control_c, 0, 64, 38
1, 79920, Control_c, 0, 64, 53
1, 79925, Note_off_c, 0, 62, 51
1, 79935, Control_c, 0, 64, 65
1, 79949, Control_c, 0, 64, 100
1, 79951, Note_off_c, 0, 46, 45
1, 79953, Note_off_c, 0, 70, 59
1, 79965, Control_c, 0, 64, 127
1, 79969, Note_off_c, 0, 53, 50
1, 80144, Control_c, 0, 64, 107
1, 80159, Control_c, 0, 64, 88
1, 80173, Control_c, 0, 64, 77
1, 80188, Control_c, 0, 64, 69
1, 80203, Control_c, 0, 64, 64
1, 80218, Control_c, 0, 64, 60
1, 80233, Control_c, 0, 64, 51
1, 80247, Control_c, 0, 64, 39
1, 80262, Control_c, 0, 64, 24
1, 80277, Control_c, 0, 64, 0
1, 80365, Note_on_c, 0, 70, 50
1, 80365, Control_c, 0, 64, 19
1, 80374, Note_on_c, 0, 56, 26
1, 80380, Control_c, 0, 64, 31
1, 80385, Note_on_c, 0, 46, 30
1, 80388, Note_on_c, 0, 62, 39
1, 80395, Control_c, 0, 64, 43
1, 80410, Control_c, 0, 64, 57
1, 80425, Control_c, 0, 64, 74
1, 80439, Control_c, 0, 64, 127
1, 80446, Note_off_c, 0, 62, 60
1, 80492, Note_off_c, 0, 70, 61
1, 80540, Note_off_c, 0, 56, 43
1, 80610, Control_c, 0, 64, 110
1, 80624, Control_c, 0, 64, 90
1, 80630, Note_off_c, 0, 46, 45
1, 80639, Control_c, 0, 64, 77
1, 80650, Note_on_c, 0, 70, 51
1, 80654, Control_c, 0, 64, 68
1, 80669, Control_c, 0, 64, 60
1, 80672, Note_on_c, 0, 63, 37
1, 80683, Note_on_c, 0, 55, 28
1, 80684, Control_c, 0, 64, 49
1, 80688, Note_on_c, 0, 51, 27
1, 80698, Control_c, 0, 64, 26
1, 80713, Control_c, 0, 64, 0
1, 80802, Control_c, 0, 64, 8
1, 80817, Control_c, 0, 64, 26
1, 80832, Control_c, 0, 64, 38
1, 80847, Control_c, 0, 64, 51
1, 80862, Control_c, 0, 64, 62
1, 80877, Control_c, 0, 64, 74
1, 80892, Control_c, 0, 64, 89
1, 80907, Control_c, 0, 64, 96
1, 80922, Control_c, 0, 64, 101
1, 80926, Note_off_c, 0, 63, 43
1, 80937, Control_c, 0, 64, 108
1, 80952, Control_c, 0, 64, 115
1, 80966, Control_c, 0, 64, 127
1, 81115, Note_off_c, 0, 55, 36
1, 81174, Control_c, 0, 64, 119
1, 81188, Control_c, 0, 64, 114
1, 81203, Control_c, 0, 64, 110
1, 81218, Control_c, 0, 64, 108
1, 81233, Control_c, 0, 64, 104
1, 81237, Note_on_c, 0, 56, 36
1, 81239, Note_on_c, 0, 72, 47
1, 81247, Control_c, 0, 64, 101
1, 81262, Control_c, 0, 64, 99
1, 81285, Control_c, 0, 64, 96
1, 81300, Control_c, 0, 64, 94
1, 81303, Note_off_c, 0, 70, 53
1, 81314, Control_c, 0, 64, 92
1, 81329, Control_c, 0, 64, 91
1, 81344, Control_c, 0, 64, 89
1, 81359, Control_c, 0, 64, 87
1, 81374, Control_c, 0, 64, 85
1, 81389, Control_c, 0, 64, 83
1, 81403, Control_c, 0, 64, 82
1, 81418, Control_c, 0, 64, 81
1, 81429, Note_off_c, 0, 56, 54
1, 81433, Control_c, 0, 64, 80
1, 81438, Note_on_c, 0, 70, 64
1, 81447, Control_c, 0, 64, 79
1, 81461, Control_c, 0, 64, 79
1, 81461, Note_on_c, 0, 55, 38
1, 81476, Control_c, 0, 64, 78
1, 81491, Control_c, 0, 64, 77
1, 81506, Control_c, 0, 64, 76
1, 81520, Control_c, 0, 64, 75
1, 81535, Control_c, 0, 64, 75
1, 81550, Control_c, 0, 64, 74
1, 81565, Control_c, 0, 64, 73
1, 81580, Control_c, 0, 64, 72
1, 81594, Control_c, 0, 64, 72
1, 81609, Control_c, 0, 64, 71
1, 81622, Note_on_c, 0, 68, 68
1, 81624, Control_c, 0, 64, 71
1, 81631, Note_off_c, 0, 51, 41
1, 81644, Note_on_c, 0, 53, 41
1, 81653, Control_c, 0, 64, 70
1, 81655, Note_off_c, 0, 72, 19
1, 81668, Control_c, 0, 64, 69
1, 81684, Control_c, 0, 64, 69
1, 81699, Control_c, 0, 64, 68
1, 81714, Control_c, 0, 64, 67
1, 81729, Control_c, 0, 64, 66
1, 81743, Control_c, 0, 64, 66
1, 81773, Control_c, 0, 64, 64
1, 81783, Note_off_c, 0, 55, 33
1, 81788, Control_c, 0, 64, 63
1, 81789, Note_on_c, 0, 67, 73
1, 81803, Control_c, 0, 64, 63
1, 81804, Note_on_c, 0, 51, 53
1, 81817, Control_c, 0, 64, 62
1, 81832, Control_c, 0, 64, 61
1, 81858, Note_off_c, 0, 70, 36
1, 81891, Control_c, 0, 64, 61
1, 81906, Control_c, 0, 64, 60
1, 81921, Control_c, 0, 64, 60
1, 81935, Control_c, 0, 64, 58
1, 81950, Control_c, 0, 64, 55
1, 81965, Note_on_c, 0, 65, 68
1, 81965, Control_c, 0, 64, 52
1, 81968, Note_off_c, 0, 67, 60
1, 81977, Note_on_c, 0, 50, 42
1, 81980, Control_c, 0, 64, 49
1, 81989, Note_off_c, 0, 51, 52
1, 81995, Control_c, 0, 64, 48
1, 82004, Note_off_c, 0, 68, 19
1, 82017, Control_c, 0, 64, 48
1, 82062, Control_c, 0, 64, 47
1, 82076, Control_c, 0, 64, 47
1, 82091, Control_c, 0, 64, 46
1, 82106, Control_c, 0, 64, 46
1, 82121, Control_c, 0, 64, 45
1, 82125, Note_off_c, 0, 53, 28
1, 82133, Note_off_c, 0, 50, 60
1, 82136, Control_c, 0, 64, 44
1, 82138, Note_on_c, 0, 67, 67
1, 82147, Note_on_c, 0, 51, 49
1, 82150, Control_c, 0, 64, 43
1, 82153, Note_off_c, 0, 65, 51
1, 82165, Control_c, 0, 64, 42
1, 82180, Control_c, 0, 64, 41
1, 82195, Control_c, 0, 64, 40
1, 82210, Control_c, 0, 64, 38
1, 82224, Control_c, 0, 64, 37
1, 82239, Control_c, 0, 64, 36
1, 82254, Control_c, 0, 64, 34
1, 82269, Control_c, 0, 64, 32
1, 82284, Control_c, 0, 64, 30
1, 82299, Control_c, 0, 64, 26
1, 82314, Control_c, 0, 64, 20
1, 82328, Note_on_c, 0, 63, 48
1, 82328, Note_on_c, 0, 68, 58
1, 82329, Control_c, 0, 64, 10
1, 82342, Note_on_c, 0, 53, 10
1, 82343, Note_on_c, 0, 46, 38
1, 82343, Control_c, 0, 64, 0
1, 82371, Note_off_c, 0, 67, 37
1, 82432, Note_off_c, 0, 51, 33
1, 82479, Note_off_c, 0, 63, 57
1, 82508, Note_on_c, 0, 60, 50
1, 82566, Control_c, 0, 64, 25
1, 82581, Control_c, 0, 64, 36
1, 82596, Control_c, 0, 64, 47
1, 82611, Control_c, 0, 64, 58
1, 82626, Control_c, 0, 64, 68
1, 82640, Control_c, 0, 64, 78
1, 82655, Control_c, 0, 64, 83
1, 82670, Control_c, 0, 64, 89
1, 82684, Control_c, 0, 64, 98
1, 82693, Note_on_c, 0, 63, 56
1, 82699, Control_c, 0, 64, 108
1, 82714, Control_c, 0, 64, 127
1, 82725, Note_off_c, 0, 53, 40
1, 82797, Note_off_c, 0, 46, 57
1, 82859, Note_off_c, 0, 60, 33
1, 82898, Note_on_c, 0, 62, 50
1, 82899, Note_off_c, 0, 63, 55
1, 82913, Note_off_c, 0, 68, 36
1, 83047, Control_c, 0, 64, 119
1, 83062, Control_c, 0, 64, 108
1, 83077, Control_c, 0, 64, 100
1, 83092, Control_c, 0, 64, 93
1, 83107, Control_c, 0, 64, 83
1, 83113, Note_off_c, 0, 62, 53
1, 83122, Control_c, 0, 64, 74
1, 83133, Note_on_c, 0, 39, 36
1, 83137, Control_c, 0, 64, 65
1, 83142, Note_on_c, 0, 67, 44
1, 83146, Note_on_c, 0, 51, 28
1, 83151, Note_on_c, 0, 63, 30
1, 83151, Control_c, 0, 64, 55
1, 83166, Control_c, 0, 64, 35
1, 83181, Control_c, 0, 64, 0
1, 83255, Control_c, 0, 64, 22
1, 83270, Control_c, 0, 64, 36
1, 83286, Control_c, 0, 64, 49
1, 83300, Control_c, 0, 64, 63
1, 83315, Control_c, 0, 64, 75
1, 83326, Note_off_c, 0, 67, 54
1, 83330, Control_c, 0, 64, 84
1, 83345, Control_c, 0, 64, 85
1, 83360, Control_c, 0, 64, 88
1, 83375, Control_c, 0, 64, 93
1, 83382, Note_on_c, 0, 58, 53
1, 83384, Note_on_c, 0, 43, 34
1, 83384, Note_off_c, 0, 63, 45
1, 83389, Control_c, 0, 64, 105
1, 83404, Control_c, 0, 64, 127
1, 83411, Note_off_c, 0, 51, 40
1, 83423, Note_off_c, 0, 58, 64
1, 83558, Note_on_c, 0, 60, 60
1, 83568, Note_on_c, 0, 44, 44
1, 83569, Note_off_c, 0, 43, 43
1, 83726, Note_on_c, 0, 58, 66
1, 83730, Note_off_c, 0, 39, 39
1, 83734, Note_on_c, 0, 43, 47
1, 83767, Control_c, 0, 64, 110
1, 83774, Note_off_c, 0, 44, 33
1, 83782, Control_c, 0, 64, 98
1, 83795, Note_off_c, 0, 60, 51
1, 83796, Control_c, 0, 64, 91
1, 83811, Control_c, 0, 64, 86
1, 83826, Control_c, 0, 64, 81
1, 83840, Control_c, 0, 64, 78
1, 83855, Control_c, 0, 64, 74
1, 83870, Control_c, 0, 64, 69
1, 83885, Control_c, 0, 64, 65
1, 83888, Note_off_c, 0, 43, 0
1, 83891, Note_on_c, 0, 41, 49
1, 83899, Note_on_c, 0, 56, 67
1, 83900, Control_c, 0, 64, 62
1, 83903, Poly_aftertouch_c, 0, 43, 0
1, 83915, Control_c, 0, 64, 56
1, 83929, Control_c, 0, 64, 47
1, 83944, Control_c, 0, 64, 37
1, 83959, Control_c, 0, 64, 24
1, 83974, Control_c, 0, 64, 16
1, 83989, Control_c, 0, 64, 0
1, 84046, Note_off_c, 0, 58, 31
1, 84066, Note_on_c, 0, 55, 61
1, 84074, Note_on_c, 0, 39, 48
1, 84102, Note_off_c, 0, 41, 36
1, 84118, Note_off_c, 0, 56, 53
1, 84206, Note_off_c, 0, 39, 56
1, 84245, Note_on_c, 0, 38, 48
1, 84252, Note_off_c, 0, 55, 59
1, 84271, Note_on_c, 0, 53, 54
1, 84383, Control_c, 0, 64, 10
1, 84397, Control_c, 0, 64, 22
1, 84412, Control_c, 0, 64, 34
1, 84413, Note_off_c, 0, 38, 48
1, 84425, Note_on_c, 0, 55, 43
1, 84427, Note_on_c, 0, 39, 35
1, 84427, Control_c, 0, 64, 46
1, 84442, Control_c, 0, 64, 59
1, 84444, Note_off_c, 0, 53, 56
1, 84457, Control_c, 0, 64, 66
1, 84471, Control_c, 0, 64, 70
1, 84486, Control_c, 0, 64, 71
1, 84501, Control_c, 0, 64, 73
1, 84506, Note_off_c, 0, 55, 64
1, 84516, Control_c, 0, 64, 75
1, 84530, Control_c, 0, 64, 78
1, 84545, Control_c, 0, 64, 80
1, 84560, Control_c, 0, 64, 81
1, 84619, Control_c, 0, 64, 79
1, 84634, Note_on_c, 0, 34, 41
1, 84634, Control_c, 0, 64, 76
1, 84639, Note_off_c, 0, 39, 37
1, 84639, Note_on_c, 0, 56, 56
1, 84649, Control_c, 0, 64, 72
1, 84651, Note_on_c, 0, 41, 31
1, 84663, Control_c, 0, 64, 66
1, 84678, Control_c, 0, 64, 60
1, 84693, Note_on_c, 0, 63, 28
1, 84693, Control_c, 0, 64, 49
1, 84708, Control_c, 0, 64, 26
1, 84723, Control_c, 0, 64, 0
1, 84827, Control_c, 0, 64, 9
1, 84834, Note_on_c, 0, 60, 47
1, 84842, Control_c, 0, 64, 26
1, 84853, Note_off_c, 0, 63, 43
1, 84856, Control_c, 0, 64, 38
1, 84871, Control_c, 0, 64, 50
1, 84886, Control_c, 0, 64, 61
1, 84901, Control_c, 0, 64, 67
1, 84916, Control_c, 0, 64, 75
1, 84931, Control_c, 0, 64, 77
1, 84946, Control_c, 0, 64, 80
1, 84961, Control_c, 0, 64, 85
1, 84976, Control_c, 0, 64, 90
1, 84991, Control_c, 0, 64, 94
1, 85000, Note_off_c, 0, 60, 63
1, 85013, Control_c, 0, 64, 99
1, 85028, Control_c, 0, 64, 100
1, 85043, Note_on_c, 0, 63, 49
1, 85086, Control_c, 0, 64, 100
1, 85101, Control_c, 0, 64, 101
1, 85183, Note_off_c, 0, 56, 55
1, 85205, Note_off_c, 0, 34, 41
1, 85227, Note_on_c, 0, 62, 50
1, 85231, Note_off_c, 0, 63, 61
1, 85250, Control_c, 0, 64, 100
1, 85265, Note_off_c, 0, 41, 36
1, 85279, Control_c, 0, 64, 100
1, 85294, Control_c, 0, 64, 99
1, 85309, Control_c, 0, 64, 98
1, 85324, Control_c, 0, 64, 97
1, 85339, Control_c, 0, 64, 95
1, 85353, Control_c, 0, 64, 94
1, 85368, Control_c, 0, 64, 93
1, 85383, Control_c, 0, 64, 91
1, 85398, Control_c, 0, 64, 89
1, 85412, Control_c, 0, 64, 88
1, 85427, Control_c, 0, 64, 85
1, 85442, Control_c, 0, 64, 83
1, 85457, Control_c, 0, 64, 79
1, 85472, Control_c, 0, 64, 75
1, 85479, Note_off_c, 0, 62, 50
1, 85486, Control_c, 0, 64, 69
1, 85495, Note_on_c, 0, 39, 25
1, 85501, Control_c, 0, 64, 63
1, 85516, Control_c, 0, 64, 54
1, 85517, Note_on_c, 0, 55, 37
1, 85519, Note_on_c, 0, 43, 30
1, 85525, Note_on_c, 0, 65, 39
1, 85531, Control_c, 0, 64, 34
1, 85546, Control_c, 0, 64, 0
1, 85664, Control_c, 0, 64, 27
1, 85680, Control_c, 0, 64, 44
1, 85695, Control_c, 0, 64, 57
1, 85709, Control_c, 0, 64, 67
1, 85724, Control_c, 0, 64, 77
1, 85728, Note_off_c, 0, 65, 43
1, 85739, Control_c, 0, 64, 82
1, 85762, Control_c, 0, 64, 86
1, 85763, Note_on_c, 0, 62, 39
1, 85777, Control_c, 0, 64, 92
1, 85791, Control_c, 0, 64, 103
1, 85806, Control_c, 0, 64, 117
1, 85821, Control_c, 0, 64, 127
1, 85828, Note_off_c, 0, 55, 44
1, 85849, Note_off_c, 0, 39, 56
1, 85889, Note_off_c, 0, 43, 39
1, 85904, Note_off_c, 0, 62, 53
1, 85942, Note_on_c, 0, 65, 45
1, 86074, Note_off_c, 0, 65, 59
1, 86110, Note_on_c, 0, 63, 46
1, 86268, Note_off_c, 0, 63, 62
1, 86278, Note_on_c, 0, 39, 23
1, 86280, Control_c, 0, 64, 89
1, 86291, Note_on_c, 0, 46, 34
1, 86295, Control_c, 0, 64, 75
1, 86299, Note_on_c, 0, 68, 45
1, 86302, Note_on_c, 0, 51, 32
1, 86304, Note_on_c, 0, 43, 26
1, 86309, Control_c, 0, 64, 65
1, 86324, Control_c, 0, 64, 57
1, 86339, Control_c, 0, 64, 43
1, 86354, Control_c, 0, 64, 14
1, 86369, Control_c, 0, 64, 0
1, 86398, Control_c, 0, 64, 13
1, 86413, Control_c, 0, 64, 23
1, 86427, Control_c, 0, 64, 31
1, 86442, Control_c, 0, 64, 43
1, 86457, Control_c, 0, 64, 54
1, 86471, Note_on_c, 0, 65, 47
1, 86472, Control_c, 0, 64, 64
1, 86478, Note_off_c, 0, 68, 51
1, 86488, Control_c, 0, 64, 75
1, 86511, Control_c, 0, 64, 83
1, 86526, Control_c, 0, 64, 88
1, 86540, Control_c, 0, 64, 97
1, 86555, Control_c, 0, 64, 117
1, 86570, Control_c, 0, 64, 127
1, 86624, Note_off_c, 0, 65, 59
1, 86648, Note_on_c, 0, 68, 46
1, 86793, Note_off_c, 0, 68, 58
1, 86831, Note_on_c, 0, 67, 47
1, 86955, Control_c, 0, 64, 107
1, 86970, Control_c, 0, 64, 94
1, 86973, Note_off_c, 0, 67, 55
1, 86985, Control_c, 0, 64, 84
1, 87000, Control_c, 0, 64, 74
1, 87014, Note_on_c, 0, 72, 44
1, 87015, Control_c, 0, 64, 65
1, 87030, Control_c, 0, 64, 58
1, 87044, Control_c, 0, 64, 45
1, 87059, Control_c, 0, 64, 27
1, 87074, Control_c, 0, 64, 16
1, 87089, Control_c, 0, 64, 17
1, 87104, Control_c, 0, 64, 20
1, 87119, Control_c, 0, 64, 28
1, 87133, Control_c, 0, 64, 35
1, 87148, Control_c, 0, 64, 46
1, 87163, Control_c, 0, 64, 58
1, 87168, Note_off_c, 0, 72, 62
1, 87174, Note_on_c, 0, 69, 47
1, 87177, Control_c, 0, 64, 68
1, 87192, Control_c, 0, 64, 83
1, 87207, Control_c, 0, 64, 92
1, 87222, Control_c, 0, 64, 97
1, 87237, Control_c, 0, 64, 108
1, 87259, Control_c, 0, 64, 127
1, 87339, Note_off_c, 0, 69, 58
1, 87354, Note_on_c, 0, 72, 52
1, 87475, Note_off_c, 0, 72, 60
1, 87515, Note_on_c, 0, 70, 51
1, 87585, Control_c, 0, 64, 114
1, 87600, Control_c, 0, 64, 96
1, 87614, Control_c, 0, 64, 86
1, 87629, Control_c, 0, 64, 76
1, 87644, Control_c, 0, 64, 67
1, 87659, Control_c, 0, 64, 58
1, 87674, Note_off_c, 0, 70, 60
1, 87674, Control_c, 0, 64, 42
1, 87688, Control_c, 0, 64, 0
1, 87701, Note_on_c, 0, 77, 47
1, 87763, Control_c, 0, 64, 25
1, 87778, Control_c, 0, 64, 40
1, 87793, Control_c, 0, 64, 58
1, 87807, Control_c, 0, 64, 72
1, 87822, Control_c, 0, 64, 106
1, 87837, Control_c, 0, 64, 127
1, 87853, Note_off_c, 0, 77, 61
1, 87855, Note_off_c, 0, 39, 53
1, 87869, Note_on_c, 0, 74, 50
1, 87906, Note_off_c, 0, 43, 45
1, 87932, Note_off_c, 0, 46, 44
1, 87942, Note_off_c, 0, 51, 53
1, 88037, Note_off_c, 0, 74, 61
1, 88042, Note_on_c, 0, 77, 64
1, 88185, Note_off_c, 0, 77, 59
1, 88209, Note_on_c, 0, 75, 55
1, 88349, Control_c, 0, 64, 105
1, 88364, Control_c, 0, 64, 88
1, 88372, Note_on_c, 0, 51, 29
1, 88376, Note_on_c, 0, 58, 37
1, 88378, Control_c, 0, 64, 78
1, 88389, Note_on_c, 0, 80, 49
1, 88393, Control_c, 0, 64, 69
1, 88401, Note_on_c, 0, 55, 33
1, 88404, Note_on_c, 0, 63, 35
1, 88408, Control_c, 0, 64, 63
1, 88421, Note_off_c, 0, 75, 36
1, 88423, Control_c, 0, 64, 53
1, 88437, Control_c, 0, 64, 36
1, 88451, Note_off_c, 0, 63, 0
1, 88451, Note_on_c, 0, 63, 4
1, 88452, Control_c, 0, 64, 0
1, 88511, Control_c, 0, 64, 18
1, 88526, Control_c, 0, 64, 27
1, 88541, Control_c, 0, 64, 36
1, 88552, Note_off_c, 0, 80, 60
1, 88556, Control_c, 0, 64, 50
1, 88565, Note_on_c, 0, 77, 58
1, 88571, Control_c, 0, 64, 62
1, 88586, Control_c, 0, 64, 77
1, 88601, Control_c, 0, 64, 105
1, 88615, Control_c, 0, 64, 127
1, 88684, Note_off_c, 0, 63, 40
1, 88687, Note_off_c, 0, 51, 42
1, 88723, Note_off_c, 0, 77, 60
1, 88724, Note_off_c, 0, 58, 59
1, 88726, Note_on_c, 0, 80, 65
1, 88741, Note_off_c, 0, 55, 42
1, 88892, Note_off_c, 0, 80, 61
1, 88906, Note_on_c, 0, 79, 67
1, 89053, Control_c, 0, 64, 103
1, 89068, Control_c, 0, 64, 88
1, 89083, Note_on_c, 0, 51, 37
1, 89083, Control_c, 0, 64, 76
1, 89092, Note_on_c, 0, 58, 37
1, 89096, Note_on_c, 0, 84, 58
1, 89098, Control_c, 0, 64, 67
1, 89104, Note_off_c, 0, 79, 49
1, 89107, Note_on_c, 0, 63, 32
1, 89113, Control_c, 0, 64, 58
1, 89118, Note_on_c, 0, 55, 32
1, 89127, Control_c, 0, 64, 39
1, 89142, Control_c, 0, 64, 0
1, 89173, Note_off_c, 0, 63, 0
1, 89173, Note_on_c, 0, 63, 3
1, 89216, Control_c, 0, 64, 19
1, 89231, Control_c, 0, 64, 31
1, 89246, Control_c, 0, 64, 45
1, 89260, Control_c, 0, 64, 59
1, 89267, Note_on_c, 0, 81, 71
1, 89275, Control_c, 0, 64, 73
1, 89277, Note_off_c, 0, 84, 58
1, 89290, Control_c, 0, 64, 103
1, 89305, Control_c, 0, 64, 127
1, 89402, Note_off_c, 0, 63, 42
1, 89422, Note_off_c, 0, 51, 35
1, 89450, Note_on_c, 0, 84, 71
1, 89468, Note_off_c, 0, 81, 59
1, 89511, Note_off_c, 0, 58, 40
1, 89517, Note_off_c, 0, 55, 44
1, 89631, Note_on_c, 0, 82, 73
1, 89674, Note_off_c, 0, 84, 57
1, 89891, Control_c, 0, 64, 107
1, 89906, Control_c, 0, 64, 88
1, 89912, Note_on_c, 0, 51, 30
1, 89919, Note_on_c, 0, 87, 68
1, 89920, Note_on_c, 0, 58, 36
1, 89921, Control_c, 0, 64, 75
1, 89925, Note_on_c, 0, 63, 33
1, 89936, Control_c, 0, 64, 66
1, 89950, Control_c, 0, 64, 59
1, 89960, Note_on_c, 0, 55, 31
1, 89965, Control_c, 0, 64, 47
1, 89980, Control_c, 0, 64, 16
1, 89994, Control_c, 0, 64, 0
1, 89996, Note_off_c, 0, 63, 0
1, 89996, Note_on_c, 0, 63, 3
1, 90032, Note_off_c, 0, 82, 54
1, 90113, Control_c, 0, 64, 15
1, 90128, Control_c, 0, 64, 34
1, 90143, Control_c, 0, 64, 51
1, 90157, Control_c, 0, 64, 66
1, 90172, Control_c, 0, 64, 115
1, 90187, Control_c, 0, 64, 127
1, 90191, Note_off_c, 0, 63, 52
1, 90273, Note_off_c, 0, 58, 51
1, 90294, Note_off_c, 0, 55, 41
1, 90324, Note_off_c, 0, 51, 55
1, 90666, Note_on_c, 0, 39, 50
1, 91450, Note_on_c, 0, 51, 35
1, 91453, Note_on_c, 0, 75, 26
1, 91596, Note_off_c, 0, 87, 53
1, 91659, Note_off_c, 0, 51, 44
1, 92226, Control_c, 0, 64, 122
1, 92241, Control_c, 0, 64, 119
1, 92256, Control_c, 0, 64, 115
1, 92270, Control_c, 0, 64, 111
1, 92285, Control_c, 0, 64, 110
1, 92300, Control_c, 0, 64, 108
1, 92315, Control_c, 0, 64, 106
1, 92330, Control_c, 0, 64, 104
1, 92345, Control_c, 0, 64, 101
1, 92359, Control_c, 0, 64, 99
1, 92374, Control_c, 0, 64, 95
1, 92389, Control_c, 0, 64, 93
1, 92404, Control_c, 0, 64, 90
1, 92404, Note_on_c, 0, 37, 27
1, 92416, Note_on_c, 0, 85, 44
1, 92419, Control_c, 0, 64, 87
1, 92434, Control_c, 0, 64, 83
1, 92449, Control_c, 0, 64, 79
1, 92464, Control_c, 0, 64, 75
1, 92478, Control_c, 0, 64, 72
1, 92500, Control_c, 0, 64, 68
1, 92515, Control_c, 0, 64, 64
1, 92530, Control_c, 0, 64, 58
1, 92545, Control_c, 0, 64, 48
1, 92559, Control_c, 0, 64, 34
1, 92561, Note_off_c, 0, 75, 50
1, 92570, Note_off_c, 0, 39, 18
1, 92574, Control_c, 0, 64, 12
1, 92589, Control_c, 0, 64, 0
1, 92782, Control_c, 0, 64, 14
1, 92796, Control_c, 0, 64, 20
1, 92811, Control_c, 0, 64, 25
1, 92826, Control_c, 0, 64, 33
1, 92841, Control_c, 0, 64, 42
1, 92856, Control_c, 0, 64, 53
1, 92872, Control_c, 0, 64, 61
1, 92887, Control_c, 0, 64, 66
1, 92901, Control_c, 0, 64, 69
1, 92916, Control_c, 0, 64, 70
1, 92931, Control_c, 0, 64, 72
1, 92946, Control_c, 0, 64, 77
1, 92961, Control_c, 0, 64, 84
1, 92975, Control_c, 0, 64, 92
1, 92990, Control_c, 0, 64, 101
1, 93005, Control_c, 0, 64, 111
1, 93019, Control_c, 0, 64, 127
1, 93170, Note_on_c, 0, 49, 31
1, 94017, Note_on_c, 0, 73, 34
1, 94214, Note_off_c, 0, 49, 43
1, 94220, Note_off_c, 0, 37, 40
1, 94309, Note_off_c, 0, 85, 41
1, 94323, Note_off_c, 0, 73, 41
1, 95072, Control_c, 0, 64, 111
1, 95087, Control_c, 0, 64, 81
1, 95088, Note_on_c, 0, 36, 33
1, 95102, Control_c, 0, 64, 65
1, 95105, Note_on_c, 0, 84, 39
1, 95111, Note_on_c, 0, 48, 19
1, 95116, Control_c, 0, 64, 51
1, 95117, Note_on_c, 0, 72, 31
1, 95131, Control_c, 0, 64, 8
1, 95146, Control_c, 0, 64, 0
1, 95190, Control_c, 0, 64, 21
1, 95197, Note_off_c, 0, 48, 0
1, 95197, Note_on_c, 0, 48, 3
1, 95205, Control_c, 0, 64, 41
1, 95220, Control_c, 0, 64, 59
1, 95235, Control_c, 0, 64, 90
1, 95250, Control_c, 0, 64, 127
1, 95276, Note_off_c, 0, 36, 51
1, 95305, Note_off_c, 0, 48, 52
1, 95535, Note_on_c, 0, 56, 38
1, 95582, Note_off_c, 0, 56, 46
1, 95716, Note_on_c, 0, 56, 31
1, 95723, Note_on_c, 0, 53, 12
1, 95759, Note_off_c, 0, 56, 50
1, 95775, Note_off_c, 0, 53, 48
1, 95880, Note_on_c, 0, 56, 25
1, 95925, Note_off_c, 0, 56, 48
1, 95948, Poly_aftertouch_c, 0, 53, 127
1, 95999, Poly_aftertouch_c, 0, 53, 0
1, 96053, Note_on_c, 0, 48, 36
1, 96112, Note_off_c, 0, 72, 41
1, 96195, Note_on_c, 0, 53, 27
1, 96205, Note_on_c, 0, 56, 32
1, 96251, Note_off_c, 0, 56, 51
1, 96252, Note_off_c, 0, 53, 46
1, 96384, Note_on_c, 0, 56, 29
1, 96386, Note_on_c, 0, 80, 47
1, 96388, Note_on_c, 0, 53, 32
1, 96389, Note_off_c, 0, 84, 47
1, 96429, Note_off_c, 0, 56, 49
1, 96447, Note_off_c, 0, 53, 43
1, 96497, Note_off_c, 0, 80, 57
1, 96538, Note_on_c, 0, 56, 39
1, 96557, Note_on_c, 0, 53, 37
1, 96561, Note_off_c, 0, 48, 44
1, 96580, Note_off_c, 0, 56, 47
1, 96598, Note_off_c, 0, 53, 47
1, 96713, Note_on_c, 0, 80, 61
1, 96726, Note_on_c, 0, 48, 32
1, 96873, Note_on_c, 0, 56, 48
1, 96881, Note_on_c, 0, 53, 44
1, 96926, Note_off_c, 0, 56, 61
1, 96935, Note_off_c, 0, 53, 59
1, 96954, Note_off_c, 0, 80, 58
1, 97049, Note_on_c, 0, 56, 49
1, 97060, Note_on_c, 0, 53, 45
1, 97084, Note_off_c, 0, 56, 62
1, 97099, Note_off_c, 0, 53, 62
1, 97197, Note_on_c, 0, 80, 69
1, 97215, Note_on_c, 0, 53, 42
1, 97226, Note_on_c, 0, 56, 28
1, 97227, Note_off_c, 0, 48, 45
1, 97297, Note_off_c, 0, 53, 46
1, 97311, Note_off_c, 0, 56, 38
1, 97386, Note_on_c, 0, 48, 36
1, 97393, Control_c, 0, 64, 111
1, 97408, Control_c, 0, 64, 90
1, 97423, Control_c, 0, 64, 75
1, 97438, Control_c, 0, 64, 63
1, 97441, Note_on_c, 0, 85, 56
1, 97448, Note_on_c, 0, 79, 44
1, 97453, Control_c, 0, 64, 51
1, 97457, Note_on_c, 0, 76, 43
1, 97458, Note_on_c, 0, 82, 46
1, 97463, Note_off_c, 0, 80, 61
1, 97467, Control_c, 0, 64, 23
1, 97482, Control_c, 0, 64, 0
1, 97571, Control_c, 0, 64, 21
1, 97585, Control_c, 0, 64, 37
1, 97600, Control_c, 0, 64, 52
1, 97614, Note_on_c, 0, 55, 40
1, 97614, Note_on_c, 0, 58, 44
1, 97615, Control_c, 0, 64, 65
1, 97630, Control_c, 0, 64, 100
1, 97645, Control_c, 0, 64, 127
1, 97659, Note_off_c, 0, 58, 61
1, 97674, Note_off_c, 0, 55, 60
1, 97759, Note_off_c, 0, 76, 47
1, 97780, Note_on_c, 0, 58, 44
1, 97789, Note_on_c, 0, 55, 43
1, 97807, Note_off_c, 0, 58, 57
1, 97807, Note_off_c, 0, 79, 46
1, 97820, Note_off_c, 0, 55, 61
1, 97828, Note_off_c, 0, 82, 61
1, 97926, Note_on_c, 0, 55, 51
1, 97937, Note_on_c, 0, 58, 35
1, 97964, Note_off_c, 0, 48, 44
1, 97976, Note_off_c, 0, 58, 46
1, 97977, Note_off_c, 0, 55, 59
1, 98097, Control_c, 0, 64, 99
1, 98103, Note_on_c, 0, 48, 38
1, 98112, Control_c, 0, 64, 82
1, 98123, Note_on_c, 0, 82, 55
1, 98127, Control_c, 0, 64, 70
1, 98133, Note_on_c, 0, 76, 36
1, 98141, Control_c, 0, 64, 61
1, 98142, Note_on_c, 0, 79, 39
1, 98156, Control_c, 0, 64, 46
1, 98171, Control_c, 0, 64, 18
1, 98186, Control_c, 0, 64, 0
1, 98230, Control_c, 0, 64, 15
1, 98245, Control_c, 0, 64, 27
1, 98260, Control_c, 0, 64, 40
1, 98261, Note_on_c, 0, 55, 40
1, 98273, Note_on_c, 0, 58, 35
1, 98275, Control_c, 0, 64, 54
1, 98289, Control_c, 0, 64, 68
1, 98304, Control_c, 0, 64, 85
1, 98309, Note_off_c, 0, 58, 49
1, 98319, Note_off_c, 0, 55, 59
1, 98319, Control_c, 0, 64, 96
1, 98325, Note_off_c, 0, 85, 32
1, 98333, Control_c, 0, 64, 101
1, 98348, Control_c, 0, 64, 107
1, 98363, Control_c, 0, 64, 115
1, 98378, Control_c, 0, 64, 127
1, 98420, Note_on_c, 0, 58, 41
1, 98447, Note_on_c, 0, 55, 30
1, 98456, Note_off_c, 0, 58, 50
1, 98493, Note_off_c, 0, 55, 50
1, 98565, Note_off_c, 0, 76, 44
1, 98592, Note_on_c, 0, 55, 47
1, 98602, Note_off_c, 0, 48, 46
1, 98615, Note_on_c, 0, 58, 16
1, 98637, Note_off_c, 0, 79, 42
1, 98642, Note_off_c, 0, 55, 58
1, 98649, Note_off_c, 0, 58, 51
1, 98651, Note_off_c, 0, 82, 37
1, 98778, Note_on_c, 0, 48, 43
1, 98929, Note_on_c, 0, 58, 38
1, 98933, Note_on_c, 0, 55, 35
1, 98971, Note_off_c, 0, 58, 46
1, 98980, Note_off_c, 0, 55, 57
1, 99099, Note_on_c, 0, 58, 36
1, 99111, Note_on_c, 0, 55, 44
1, 99136, Note_off_c, 0, 58, 48
1, 99143, Note_off_c, 0, 55, 58
1, 99278, Note_on_c, 0, 55, 35
1, 99293, Note_on_c, 0, 58, 21
1, 99311, Note_off_c, 0, 48, 41
1, 99335, Note_off_c, 0, 55, 43
1, 99343, Note_off_c, 0, 58, 43
1, 99473, Note_on_c, 0, 48, 25
1, 99521, Control_c, 0, 64, 119
1, 99529, Note_on_c, 0, 82, 58
1, 99535, Control_c, 0, 64, 93
1, 99550, Note_on_c, 0, 76, 34
1, 99550, Control_c, 0, 64, 79
1, 99564, Note_on_c, 0, 79, 38
1, 99565, Control_c, 0, 64, 69
1, 99580, Control_c, 0, 64, 60
1, 99594, Control_c, 0, 64, 45
1, 99609, Control_c, 0, 64, 16
1, 99624, Control_c, 0, 64, 0
1, 99698, Control_c, 0, 64, 25
1, 99711, Note_on_c, 0, 55, 35
1, 99713, Control_c, 0, 64, 40
1, 99728, Control_c, 0, 64, 57
1, 99742, Note_on_c, 0, 52, 29
1, 99743, Control_c, 0, 64, 72
1, 99758, Control_c, 0, 64, 117
1, 99758, Note_off_c, 0, 55, 49
1, 99773, Control_c, 0, 64, 127
1, 99779, Note_off_c, 0, 52, 52
1, 99874, Note_on_c, 0, 55, 39
1, 99889, Note_on_c, 0, 52, 44
1, 99904, Note_off_c, 0, 55, 55
1, 99922, Note_off_c, 0, 52, 52
1, 100030, Note_on_c, 0, 52, 50
1, 100033, Note_on_c, 0, 55, 34
1, 100071, Note_off_c, 0, 52, 62
1, 100072, Note_off_c, 0, 48, 41
1, 100078, Note_off_c, 0, 55, 48
1, 100188, Note_off_c, 0, 82, 58
1, 100192, Note_on_c, 0, 48, 47
1, 100264, Note_off_c, 0, 79, 33
1, 100340, Note_on_c, 0, 55, 48
1, 100346, Note_on_c, 0, 52, 44
1, 100382, Note_off_c, 0, 55, 61
1, 100402, Note_off_c, 0, 52, 58
1, 100501, Note_on_c, 0, 79, 65
1, 100537, Note_on_c, 0, 52, 46
1, 100539, Note_on_c, 0, 55, 29
1, 100561, Note_off_c, 0, 76, 42
1, 100564, Note_off_c, 0, 52, 60
1, 100579, Note_off_c, 0, 55, 49
1, 100624, Note_off_c, 0, 79, 56
1, 100667, Note_on_c, 0, 52, 48
1, 100680, Note_on_c, 0, 55, 46
1, 100706, Note_off_c, 0, 48, 41
1, 100706, Note_off_c, 0, 52, 63
1, 100721, Note_off_c, 0, 55, 49
1, 100842, Note_on_c, 0, 79, 69
1, 100844, Note_on_c, 0, 48, 41
1, 101005, Note_on_c, 0, 55, 45
1, 101007, Note_on_c, 0, 52, 46
1, 101054, Note_off_c, 0, 55, 57
1, 101065, Note_off_c, 0, 52, 61
1, 101110, Note_off_c, 0, 79, 62
1, 101179, Note_on_c, 0, 55, 55
1, 101187, Note_on_c, 0, 52, 53
1, 101215, Note_off_c, 0, 55, 64
1, 101220, Note_off_c, 0, 52, 65
1, 101332, Note_on_c, 0, 79, 72
1, 101340, Note_on_c, 0, 52, 50
1, 101343, Note_on_c, 0, 55, 39
1, 101378, Note_off_c, 0, 48, 46
1, 101422, Note_off_c, 0, 79, 61
1, 101424, Note_off_c, 0, 55, 45
1, 101493, Note_off_c, 0, 52, 43
1, 101547, Note_on_c, 0, 48, 36
1, 101604, Control_c, 0, 64, 114
1, 101606, Note_on_c, 0, 84, 71
1, 101615, Note_on_c, 0, 80, 59
1, 101619, Control_c, 0, 64, 87
1, 101625, Note_on_c, 0, 77, 45
1, 101629, Note_on_c, 0, 72, 43
1, 101633, Control_c, 0, 64, 72
1, 101648, Control_c, 0, 64, 61
1, 101664, Control_c, 0, 64, 46
1, 101679, Control_c, 0, 64, 0
1, 101782, Control_c, 0, 64, 26
1, 101785, Note_on_c, 0, 56, 45
1, 101793, Note_on_c, 0, 53, 41
1, 101797, Control_c, 0, 64, 42
1, 101812, Control_c, 0, 64, 57
1, 101827, Control_c, 0, 64, 75
1, 101842, Note_off_c, 0, 56, 60
1, 101842, Control_c, 0, 64, 117
1, 101857, Control_c, 0, 64, 127
1, 101868, Note_off_c, 0, 53, 55
1, 101944, Note_on_c, 0, 53, 39
1, 101952, Note_on_c, 0, 56, 57
1, 101990, Note_off_c, 0, 56, 62
1, 101992, Note_off_c, 0, 72, 52
1, 102009, Note_off_c, 0, 77, 60
1, 102016, Note_off_c, 0, 53, 59
1, 102016, Note_off_c, 0, 80, 59
1, 102118, Note_on_c, 0, 53, 44
1, 102121, Note_on_c, 0, 56, 47
1, 102152, Note_off_c, 0, 56, 55
1, 102163, Note_off_c, 0, 48, 43
1, 102170, Note_off_c, 0, 53, 57
1, 102279, Control_c, 0, 64, 122
1, 102294, Control_c, 0, 64, 99
1, 102303, Note_on_c, 0, 48, 39
1, 102304, Note_on_c, 0, 80, 60
1, 102308, Control_c, 0, 64, 85
1, 102322, Note_on_c, 0, 77, 48
1, 102323, Control_c, 0, 64, 75
1, 102331, Note_on_c, 0, 72, 37
1, 102338, Control_c, 0, 64, 67
1, 102353, Control_c, 0, 64, 59
1, 102368, Control_c, 0, 64, 44
1, 102382, Control_c, 0, 64, 13
1, 102397, Control_c, 0, 64, 0
1, 102448, Note_off_c, 0, 84, 42
1, 102457, Control_c, 0, 64, 15
1, 102472, Control_c, 0, 64, 28
1, 102475, Note_on_c, 0, 53, 36
1, 102475, Note_on_c, 0, 56, 37
1, 102486, Control_c, 0, 64, 42
1, 102501, Control_c, 0, 64, 57
1, 102516, Control_c, 0, 64, 69
1, 102526, Note_off_c, 0, 56, 45
1, 102530, Control_c, 0, 64, 83
1, 102533, Note_off_c, 0, 53, 53
1, 102545, Control_c, 0, 64, 91
1, 102560, Control_c, 0, 64, 94
1, 102575, Control_c, 0, 64, 103
1, 102590, Control_c, 0, 64, 127
1, 102634, Note_on_c, 0, 56, 45
1, 102638, Note_on_c, 0, 53, 34
1, 102668, Note_off_c, 0, 56, 56
1, 102686, Note_off_c, 0, 53, 56
1, 102808, Note_on_c, 0, 56, 26
1, 102819, Note_off_c, 0, 48, 44
1, 102834, Note_on_c, 0, 53, 21
1, 102859, Note_off_c, 0, 56, 46
1, 102878, Note_off_c, 0, 53, 52
1, 102945, Control_c, 0, 64, 122
1, 102960, Control_c, 0, 64, 97
1, 102983, Control_c, 0, 64, 81
1, 102998, Control_c, 0, 64, 70
1, 103004, Note_on_c, 0, 48, 38
1, 103012, Control_c, 0, 64, 62
1, 103027, Control_c, 0, 64, 50
1, 103042, Control_c, 0, 64, 32
1, 103056, Control_c, 0, 64, 10
1, 103071, Control_c, 0, 64, 0
1, 103101, Control_c, 0, 64, 13
1, 103116, Control_c, 0, 64, 23
1, 103130, Control_c, 0, 64, 32
1, 103145, Control_c, 0, 64, 44
1, 103160, Control_c, 0, 64, 58
1, 103175, Control_c, 0, 64, 75
1, 103183, Note_on_c, 0, 56, 26
1, 103187, Note_on_c, 0, 53, 30
1, 103190, Control_c, 0, 64, 107
1, 103204, Control_c, 0, 64, 127
1, 103234, Note_off_c, 0, 56, 46
1, 103236, Note_off_c, 0, 53, 47
1, 103284, Note_off_c, 0, 72, 43
1, 103302, Note_off_c, 0, 80, 60
1, 103304, Note_off_c, 0, 77, 55
1, 103359, Note_on_c, 0, 56, 42
1, 103373, Note_on_c, 0, 53, 34
1, 103407, Note_off_c, 0, 56, 60
1, 103431, Note_off_c, 0, 53, 44
1, 103575, Note_on_c, 0, 53, 30
1, 103579, Note_on_c, 0, 56, 29
1, 103587, Note_off_c, 0, 48, 42
1, 103610, Note_off_c, 0, 53, 54
1, 103699, Note_off_c, 0, 56, 41
1, 103908, Note_on_c, 0, 41, 18
1, 103969, Control_c, 0, 64, 102
1, 103984, Control_c, 0, 64, 90
1, 103991, Note_on_c, 0, 80, 47
1, 103999, Control_c, 0, 64, 80
1, 104005, Note_on_c, 0, 72, 34
1, 104013, Note_on_c, 0, 77, 37
1, 104014, Control_c, 0, 64, 71
1, 104028, Control_c, 0, 64, 61
1, 104043, Control_c, 0, 64, 45
1, 104059, Control_c, 0, 64, 0
1, 104148, Control_c, 0, 64, 13
1, 104163, Control_c, 0, 64, 29
1, 104177, Control_c, 0, 64, 42
1, 104192, Control_c, 0, 64, 55
1, 104207, Control_c, 0, 64, 66
1, 104222, Control_c, 0, 64, 81
1, 104223, Note_on_c, 0, 48, 38
1, 104237, Control_c, 0, 64, 89
1, 104251, Control_c, 0, 64, 94
1, 104266, Control_c, 0, 64, 101
1, 104281, Control_c, 0, 64, 114
1, 104291, Note_off_c, 0, 41, 41
1, 104296, Control_c, 0, 64, 127
1, 104327, Note_off_c, 0, 48, 48
1, 104368, Note_on_c, 0, 50, 46
1, 104525, Note_on_c, 0, 52, 47
1, 104527, Note_off_c, 0, 50, 34
1, 104555, Control_c, 0, 64, 122
1, 104570, Control_c, 0, 64, 96
1, 104584, Control_c, 0, 64, 80
1, 104599, Control_c, 0, 64, 68
1, 104614, Control_c, 0, 64, 56
1, 104629, Control_c, 0, 64, 37
1, 104644, Control_c, 0, 64, 0
1, 104678, Note_on_c, 0, 53, 48
1, 104694, Note_off_c, 0, 52, 55
1, 104703, Control_c, 0, 64, 22
1, 104718, Control_c, 0, 64, 36
1, 104733, Control_c, 0, 64, 51
1, 104748, Control_c, 0, 64, 65
1, 104763, Control_c, 0, 64, 88
1, 104777, Control_c, 0, 64, 127
1, 104799, Note_off_c, 0, 53, 59
1, 104836, Note_on_c, 0, 55, 48
1, 104845, Note_off_c, 0, 77, 40
1, 104941, Control_c, 0, 64, 108
1, 104956, Control_c, 0, 64, 79
1, 104966, Note_off_c, 0, 55, 61
1, 104971, Control_c, 0, 64, 65
1, 104974, Note_on_c, 0, 77, 56
1, 104986, Control_c, 0, 64, 53
1, 104993, Note_on_c, 0, 56, 46
1, 105000, Control_c, 0, 64, 34
1, 105007, Note_off_c, 0, 80, 55
1, 105015, Control_c, 0, 64, 0
1, 105035, Note_off_c, 0, 72, 42
1, 105045, Control_c, 0, 64, 16
1, 105060, Control_c, 0, 64, 27
1, 105074, Control_c, 0, 64, 37
1, 105089, Control_c, 0, 64, 49
1, 105104, Control_c, 0, 64, 62
1, 105119, Control_c, 0, 64, 77
1, 105131, Note_on_c, 0, 58, 56
1, 105131, Note_off_c, 0, 56, 57
1, 105133, Control_c, 0, 64, 106
1, 105148, Control_c, 0, 64, 127
1, 105162, Note_off_c, 0, 77, 61
1, 105285, Note_off_c, 0, 58, 58
1, 105314, Note_on_c, 0, 77, 64
1, 105319, Control_c, 0, 64, 101
1, 105333, Control_c, 0, 64, 84
1, 105347, Note_on_c, 0, 60, 38
1, 105348, Control_c, 0, 64, 73
1, 105363, Control_c, 0, 64, 65
1, 105378, Control_c, 0, 64, 56
1, 105393, Control_c, 0, 64, 42
1, 105407, Control_c, 0, 64, 16
1, 105422, Control_c, 0, 64, 0
1, 105490, Note_on_c, 0, 56, 48
1, 105511, Control_c, 0, 64, 23
1, 105526, Control_c, 0, 64, 34
1, 105541, Control_c, 0, 64, 44
1, 105556, Control_c, 0, 64, 58
1, 105571, Control_c, 0, 64, 68
1, 105576, Note_off_c, 0, 60, 35
1, 105586, Control_c, 0, 64, 83
1, 105600, Control_c, 0, 64, 88
1, 105615, Control_c, 0, 64, 88
1, 105630, Control_c, 0, 64, 93
1, 105639, Note_off_c, 0, 56, 61
1, 105645, Control_c, 0, 64, 105
1, 105648, Note_on_c, 0, 55, 45
1, 105660, Control_c, 0, 64, 127
1, 105663, Note_off_c, 0, 77, 61
1, 105803, Note_off_c, 0, 55, 57
1, 105806, Note_on_c, 0, 77, 75
1, 105822, Note_on_c, 0, 53, 44
1, 105852, Note_off_c, 0, 53, 56
1, 105913, Note_off_c, 0, 77, 58
1, 105994, Control_c, 0, 64, 113
1, 106009, Control_c, 0, 64, 100
1, 106024, Control_c, 0, 64, 90
1, 106038, Control_c, 0, 64, 79
1, 106053, Control_c, 0, 64, 71
1, 106068, Control_c, 0, 64, 64
1, 106075, Note_on_c, 0, 82, 64
1, 106078, Note_on_c, 0, 48, 59
1, 106082, Control_c, 0, 64, 55
1, 106087, Note_on_c, 0, 72, 41
1, 106090, Note_on_c, 0, 79, 52
1, 106097, Control_c, 0, 64, 37
1, 106112, Control_c, 0, 64, 0
1, 106131, Note_on_c, 0, 76, 25
1, 106150, Note_off_c, 0, 72, 0
1, 106150, Note_on_c, 0, 72, 5
1, 106200, Control_c, 0, 64, 12
1, 106215, Control_c, 0, 64, 27
1, 106230, Control_c, 0, 64, 42
1, 106244, Control_c, 0, 64, 56
1, 106259, Control_c, 0, 64, 68
1, 106271, Note_on_c, 0, 35, 54
1, 106274, Control_c, 0, 64, 85
1, 106281, Note_off_c, 0, 48, 33
1, 106289, Control_c, 0, 64, 95
1, 106304, Control_c, 0, 64, 97
1, 106319, Control_c, 0, 64, 105
1, 106334, Control_c, 0, 64, 117
1, 106348, Control_c, 0, 64, 127
1, 106432, Note_off_c, 0, 72, 50
1, 106436, Note_on_c, 0, 36, 54
1, 106441, Note_off_c, 0, 35, 53
1, 106447, Note_off_c, 0, 76, 51
1, 106459, Note_off_c, 0, 79, 57
1, 106584, Note_off_c, 0, 36, 54
1, 106586, Note_on_c, 0, 35, 59
1, 106742, Control_c, 0, 64, 103
1, 106757, Note_on_c, 0, 79, 64
1, 106757, Control_c, 0, 64, 86
1, 106761, Note_on_c, 0, 36, 48
1, 106771, Control_c, 0, 64, 77
1, 106773, Note_on_c, 0, 76, 49
1, 106774, Note_on_c, 0, 72, 42
1, 106786, Control_c, 0, 64, 70
1, 106801, Control_c, 0, 64, 63
1, 106802, Note_off_c, 0, 35, 37
1, 106816, Control_c, 0, 64, 57
1, 106831, Control_c, 0, 64, 48
1, 106845, Control_c, 0, 64, 37
1, 106860, Control_c, 0, 64, 28
1, 106875, Control_c, 0, 64, 26
1, 106890, Control_c, 0, 64, 25
1, 106904, Control_c, 0, 64, 23
1, 106911, Note_on_c, 0, 40, 55
1, 106918, Control_c, 0, 64, 21
1, 106926, Note_off_c, 0, 82, 37
1, 106933, Control_c, 0, 64, 18
1, 106948, Control_c, 0, 64, 14
1, 106963, Control_c, 0, 64, 0
1, 106990, Note_off_c, 0, 36, 42
1, 107070, Note_off_c, 0, 40, 63
1, 107082, Note_on_c, 0, 43, 58
1, 107228, Note_off_c, 0, 43, 55
1, 107243, Note_on_c, 0, 47, 58
1, 107389, Note_off_c, 0, 47, 64
1, 107431, Note_on_c, 0, 48, 46
1, 107579, Control_c, 0, 64, 18
1, 107593, Control_c, 0, 64, 30
1, 107599, Note_off_c, 0, 48, 54
1, 107608, Control_c, 0, 64, 40
1, 107612, Note_on_c, 0, 46, 41
1, 107623, Control_c, 0, 64, 50
1, 107638, Control_c, 0, 64, 58
1, 107652, Control_c, 0, 64, 62
1, 107668, Control_c, 0, 64, 66
1, 107683, Control_c, 0, 64, 69
1, 107698, Control_c, 0, 64, 74
1, 107713, Control_c, 0, 64, 80
1, 107727, Control_c, 0, 64, 85
1, 107736, Note_off_c, 0, 72, 35
1, 107742, Control_c, 0, 64, 89
1, 107748, Note_off_c, 0, 46, 51
1, 107757, Control_c, 0, 64, 93
1, 107772, Control_c, 0, 64, 95
1, 107778, Note_on_c, 0, 44, 40
1, 107782, Note_off_c, 0, 76, 58
1, 107961, Note_on_c, 0, 43, 41
1, 107972, Note_off_c, 0, 44, 36
1, 108084, Control_c, 0, 64, 95
1, 108099, Control_c, 0, 64, 94
1, 108114, Control_c, 0, 64, 93
1, 108128, Control_c, 0, 64, 93
1, 108143, Control_c, 0, 64, 92
1, 108158, Control_c, 0, 64, 91
1, 108173, Control_c, 0, 64, 91
1, 108185, Note_on_c, 0, 41, 35
1, 108188, Control_c, 0, 64, 89
1, 108203, Control_c, 0, 64, 88
1, 108224, Note_off_c, 0, 79, 54
1, 108224, Control_c, 0, 64, 85
1, 108239, Control_c, 0, 64, 80
1, 108245, Note_off_c, 0, 43, 39
1, 108254, Note_on_c, 0, 80, 51
1, 108254, Control_c, 0, 64, 74
1, 108269, Control_c, 0, 64, 68
1, 108273, Note_on_c, 0, 72, 38
1, 108274, Note_on_c, 0, 77, 41
1, 108283, Control_c, 0, 64, 61
1, 108298, Control_c, 0, 64, 50
1, 108313, Control_c, 0, 64, 27
1, 108328, Control_c, 0, 64, 0
1, 108431, Control_c, 0, 64, 26
1, 108439, Note_on_c, 0, 48, 36
1, 108446, Control_c, 0, 64, 40
1, 108461, Control_c, 0, 64, 53
1, 108475, Control_c, 0, 64, 64
1, 108490, Control_c, 0, 64, 74
1, 108505, Control_c, 0, 64, 79
1, 108520, Control_c, 0, 64, 81
1, 108527, Note_off_c, 0, 41, 41
1, 108535, Control_c, 0, 64, 85
1, 108549, Control_c, 0, 64, 91
1, 108564, Control_c, 0, 64, 98
1, 108579, Control_c, 0, 64, 108
1, 108594, Note_on_c, 0, 50, 50
1, 108594, Control_c, 0, 64, 122
1, 108596, Note_off_c, 0, 48, 38
1, 108609, Control_c, 0, 64, 127
1, 108738, Note_on_c, 0, 52, 55
1, 108754, Note_off_c, 0, 50, 35
1, 108802, Control_c, 0, 64, 117
1, 108816, Control_c, 0, 64, 106
1, 108831, Control_c, 0, 64, 98
1, 108847, Control_c, 0, 64, 90
1, 108862, Control_c, 0, 64, 81
1, 108877, Control_c, 0, 64, 71
1, 108886, Note_on_c, 0, 53, 59
1, 108891, Control_c, 0, 64, 60
1, 108903, Note_off_c, 0, 52, 60
1, 108906, Control_c, 0, 64, 43
1, 108921, Control_c, 0, 64, 0
1, 109002, Control_c, 0, 64, 29
1, 109005, Note_off_c, 0, 53, 62
1, 109017, Control_c, 0, 64, 44
1, 109032, Control_c, 0, 64, 59
1, 109047, Note_on_c, 0, 55, 51
1, 109047, Control_c, 0, 64, 72
1, 109061, Control_c, 0, 64, 89
1, 109076, Control_c, 0, 64, 94
1, 109091, Control_c, 0, 64, 96
1, 109097, Note_off_c, 0, 77, 49
1, 109106, Control_c, 0, 64, 98
1, 109121, Control_c, 0, 64, 101
1, 109136, Control_c, 0, 64, 102
1, 109151, Control_c, 0, 64, 103
1, 109180, Control_c, 0, 64, 104
1, 109187, Note_off_c, 0, 55, 60
1, 109202, Note_on_c, 0, 77, 67
1, 109219, Note_on_c, 0, 56, 43
1, 109225, Control_c, 0, 64, 105
1, 109233, Note_off_c, 0, 80, 57
1, 109279, Note_off_c, 0, 72, 56
1, 109299, Note_off_c, 0, 77, 61
1, 109342, Note_off_c, 0, 56, 61
1, 109343, Control_c, 0, 64, 105
1, 109360, Note_on_c, 0, 58, 49
1, 109476, Control_c, 0, 64, 105
1, 109491, Control_c, 0, 64, 101
1, 109500, Note_off_c, 0, 58, 52
1, 109506, Control_c, 0, 64, 96
1, 109520, Control_c, 0, 64, 91
1, 109533, Note_on_c, 0, 77, 72
1, 109535, Control_c, 0, 64, 85
1, 109541, Note_on_c, 0, 72, 47
1, 109550, Control_c, 0, 64, 79
1, 109553, Note_on_c, 0, 60, 39
1, 109554, Note_on_c, 0, 68, 42
1, 109565, Control_c, 0, 64, 72
1, 109580, Control_c, 0, 64, 66
1, 109595, Control_c, 0, 64, 60
1, 109610, Control_c, 0, 64, 48
1, 109624, Control_c, 0, 64, 27
1, 109640, Control_c, 0, 64, 0
1, 109696, Note_on_c, 0, 56, 51
1, 109736, Control_c, 0, 64, 22
1, 109751, Control_c, 0, 64, 37
1, 109766, Control_c, 0, 64, 54
1, 109781, Control_c, 0, 64, 67
1, 109795, Control_c, 0, 64, 85
1, 109810, Control_c, 0, 64, 94
1, 109825, Control_c, 0, 64, 95
1, 109832, Note_off_c, 0, 60, 33
1, 109840, Control_c, 0, 64, 102
1, 109855, Control_c, 0, 64, 127
1, 109859, Note_off_c, 0, 77, 58
1, 109863, Note_on_c, 0, 55, 51
1, 109900, Note_off_c, 0, 56, 55
1, 110026, Note_off_c, 0, 55, 50
1, 110031, Note_on_c, 0, 77, 75
1, 110039, Note_on_c, 0, 53, 46
1, 110082, Note_off_c, 0, 53, 64
1, 110094, Note_off_c, 0, 72, 59
1, 110108, Note_off_c, 0, 68, 56
1, 110132, Note_off_c, 0, 77, 61
1, 110266, Note_on_c, 0, 51, 33
1, 110336, Note_on_c, 0, 78, 70
1, 110343, Control_c, 0, 64, 105
1, 110355, Note_on_c, 0, 73, 48
1, 110358, Control_c, 0, 64, 83
1, 110362, Note_on_c, 0, 66, 32
1, 110373, Control_c, 0, 64, 71
1, 110388, Control_c, 0, 64, 62
1, 110403, Control_c, 0, 64, 51
1, 110418, Control_c, 0, 64, 28
1, 110433, Control_c, 0, 64, 0
1, 110524, Note_on_c, 0, 39, 39
1, 110530, Control_c, 0, 64, 16
1, 110544, Control_c, 0, 64, 32
1, 110559, Control_c, 0, 64, 44
1, 110574, Control_c, 0, 64, 57
1, 110589, Control_c, 0, 64, 67
1, 110604, Control_c, 0, 64, 78
1, 110618, Control_c, 0, 64, 83
1, 110621, Note_off_c, 0, 51, 44
1, 110633, Control_c, 0, 64, 85
1, 110648, Control_c, 0, 64, 89
1, 110664, Control_c, 0, 64, 95
1, 110678, Control_c, 0, 64, 102
1, 110686, Note_on_c, 0, 41, 49
1, 110693, Control_c, 0, 64, 109
1, 110708, Control_c, 0, 64, 114
1, 110737, Note_off_c, 0, 73, 61
1, 110829, Note_off_c, 0, 66, 41
1, 110839, Note_on_c, 0, 42, 59
1, 110851, Note_off_c, 0, 41, 53
1, 110871, Control_c, 0, 64, 113
1, 110886, Control_c, 0, 64, 109
1, 110901, Control_c, 0, 64, 106
1, 110916, Control_c, 0, 64, 103
1, 110930, Control_c, 0, 64, 100
1, 110945, Control_c, 0, 64, 97
1, 110960, Control_c, 0, 64, 93
1, 110961, Note_off_c, 0, 39, 18
1, 110975, Control_c, 0, 64, 88
1, 110990, Control_c, 0, 64, 84
1, 111005, Control_c, 0, 64, 79
1, 111005, Note_on_c, 0, 75, 57
1, 111006, Note_on_c, 0, 44, 45
1, 111019, Control_c, 0, 64, 75
1, 111034, Note_on_c, 0, 72, 45
1, 111034, Control_c, 0, 64, 71
1, 111038, Note_on_c, 0, 66, 44
1, 111049, Control_c, 0, 64, 68
1, 111062, Note_off_c, 0, 42, 32
1, 111063, Control_c, 0, 64, 63
1, 111078, Control_c, 0, 64, 58
1, 111093, Control_c, 0, 64, 46
1, 111108, Control_c, 0, 64, 23
1, 111123, Control_c, 0, 64, 0
1, 111132, Note_off_c, 0, 44, 57
1, 111141, Note_off_c, 0, 78, 57
1, 111173, Note_on_c, 0, 45, 41
1, 111294, Control_c, 0, 64, 24
1, 111309, Control_c, 0, 64, 34
1, 111324, Control_c, 0, 64, 44
1, 111336, Note_on_c, 0, 46, 41
1, 111339, Control_c, 0, 64, 55
1, 111340, Note_off_c, 0, 45, 34
1, 111354, Control_c, 0, 64, 63
1, 111368, Control_c, 0, 64, 68
1, 111383, Control_c, 0, 64, 72
1, 111398, Control_c, 0, 64, 74
1, 111407, Note_off_c, 0, 66, 51
1, 111413, Control_c, 0, 64, 77
1, 111428, Control_c, 0, 64, 82
1, 111443, Control_c, 0, 64, 85
1, 111457, Control_c, 0, 64, 88
1, 111472, Control_c, 0, 64, 89
1, 111487, Control_c, 0, 64, 90
1, 111496, Note_off_c, 0, 46, 34
1, 111497, Note_on_c, 0, 44, 39
1, 111501, Control_c, 0, 64, 91
1, 111620, Control_c, 0, 64, 88
1, 111635, Control_c, 0, 64, 83
1, 111649, Control_c, 0, 64, 76
1, 111664, Control_c, 0, 64, 67
1, 111679, Control_c, 0, 64, 57
1, 111694, Control_c, 0, 64, 40
1, 111695, Note_on_c, 0, 42, 36
1, 111706, Note_on_c, 0, 68, 38
1, 111708, Control_c, 0, 64, 0
1, 111717, Note_off_c, 0, 44, 38
1, 111754, Note_off_c, 0, 72, 29
1, 111783, Control_c, 0, 64, 20
1, 111798, Control_c, 0, 64, 33
1, 111812, Control_c, 0, 64, 45
1, 111825, Note_off_c, 0, 42, 56
1, 111827, Control_c, 0, 64, 57
1, 111842, Control_c, 0, 64, 66
1, 111857, Control_c, 0, 64, 78
1, 111872, Control_c, 0, 64, 83
1, 111881, Note_on_c, 0, 41, 35
1, 111886, Control_c, 0, 64, 86
1, 111901, Control_c, 0, 64, 92
1, 111916, Control_c, 0, 64, 98
1, 111931, Control_c, 0, 64, 104
1, 111946, Control_c, 0, 64, 107
1, 112013, Control_c, 0, 64, 103
1, 112027, Control_c, 0, 64, 94
1, 112043, Control_c, 0, 64, 82
1, 112049, Note_off_c, 0, 41, 47
1, 112058, Control_c, 0, 64, 68
1, 112072, Control_c, 0, 64, 59
1, 112075, Note_on_c, 0, 39, 41
1, 112087, Control_c, 0, 64, 43
1, 112096, Note_on_c, 0, 66, 40
1, 112102, Control_c, 0, 64, 14
1, 112117, Control_c, 0, 64, 0
1, 112147, Control_c, 0, 64, 16
1, 112162, Control_c, 0, 64, 28
1, 112176, Control_c, 0, 64, 40
1, 112191, Control_c, 0, 64, 53
1, 112206, Control_c, 0, 64, 65
1, 112221, Note_off_c, 0, 68, 39
1, 112221, Control_c, 0, 64, 83
1, 112235, Control_c, 0, 64, 99
1, 112250, Control_c, 0, 64, 104
1, 112254, Note_off_c, 0, 39, 62
1, 112265, Control_c, 0, 64, 109
1, 112280, Control_c, 0, 64, 127
1, 112283, Note_off_c, 0, 75, 50
1, 112296, Note_on_c, 0, 44, 33
1, 112306, Note_off_c, 0, 66, 63
1, 112545, Note_on_c, 0, 37, 36
1, 112555, Note_off_c, 0, 44, 33
1, 112561, Control_c, 0, 64, 115
1, 112576, Control_c, 0, 64, 107
1, 112591, Control_c, 0, 64, 99
1, 112606, Control_c, 0, 64, 89
1, 112621, Control_c, 0, 64, 76
1, 112635, Control_c, 0, 64, 66
1, 112638, Note_on_c, 0, 77, 49
1, 112650, Control_c, 0, 64, 57
1, 112650, Note_on_c, 0, 65, 33
1, 112650, Note_on_c, 0, 73, 39
1, 112665, Control_c, 0, 64, 38
1, 112680, Control_c, 0, 64, 0
1, 112734, Note_off_c, 0, 73, 0
1, 112734, Note_on_c, 0, 73, 3
1, 112761, Control_c, 0, 64, 19
1, 112776, Control_c, 0, 64, 34
1, 112791, Control_c, 0, 64, 47
1, 112803, Note_off_c, 0, 37, 50
1, 112805, Control_c, 0, 64, 60
1, 112820, Control_c, 0, 64, 74
1, 112835, Control_c, 0, 64, 85
1, 112851, Control_c, 0, 64, 88
1, 112856, Note_on_c, 0, 49, 36
1, 112865, Control_c, 0, 64, 90
1, 112880, Control_c, 0, 64, 94
1, 112895, Control_c, 0, 64, 99
1, 112910, Control_c, 0, 64, 105
1, 112925, Control_c, 0, 64, 108
1, 112972, Note_off_c, 0, 49, 36
1, 112984, Control_c, 0, 64, 109
1, 113009, Note_on_c, 0, 51, 45
1, 113043, Control_c, 0, 64, 110
1, 113072, Control_c, 0, 64, 113
1, 113087, Control_c, 0, 64, 114
1, 113110, Note_off_c, 0, 51, 61
1, 113158, Note_on_c, 0, 53, 46
1, 113250, Control_c, 0, 64, 108
1, 113265, Control_c, 0, 64, 100
1, 113279, Control_c, 0, 64, 89
1, 113291, Note_off_c, 0, 53, 59
1, 113294, Control_c, 0, 64, 75
1, 113309, Control_c, 0, 64, 65
1, 113311, Note_on_c, 0, 54, 49
1, 113324, Control_c, 0, 64, 56
1, 113339, Control_c, 0, 64, 41
1, 113354, Control_c, 0, 64, 27
1, 113369, Control_c, 0, 64, 28
1, 113383, Control_c, 0, 64, 35
1, 113398, Control_c, 0, 64, 43
1, 113413, Control_c, 0, 64, 53
1, 113428, Control_c, 0, 64, 63
1, 113443, Control_c, 0, 64, 76
1, 113464, Control_c, 0, 64, 88
1, 113467, Note_on_c, 0, 56, 47
1, 113479, Control_c, 0, 64, 92
1, 113487, Note_off_c, 0, 54, 36
1, 113488, Note_off_c, 0, 73, 45
1, 113494, Control_c, 0, 64, 99
1, 113509, Control_c, 0, 64, 105
1, 113524, Control_c, 0, 64, 108
1, 113539, Control_c, 0, 64, 110
1, 113616, Note_off_c, 0, 56, 48
1, 113622, Note_on_c, 0, 73, 53
1, 113651, Note_on_c, 0, 58, 42
1, 113655, Note_off_c, 0, 77, 54
1, 113718, Control_c, 0, 64, 111
1, 113733, Control_c, 0, 64, 114
1, 113733, Note_off_c, 0, 58, 61
1, 113733, Note_off_c, 0, 73, 62
1, 113747, Control_c, 0, 64, 117
1, 113753, Note_off_c, 0, 65, 43
1, 113762, Control_c, 0, 64, 119
1, 113776, Note_on_c, 0, 56, 43
1, 113777, Control_c, 0, 64, 122
1, 113851, Control_c, 0, 64, 119
1, 113866, Control_c, 0, 64, 111
1, 113881, Control_c, 0, 64, 105
1, 113895, Control_c, 0, 64, 99
1, 113910, Control_c, 0, 64, 93
1, 113925, Control_c, 0, 64, 86
1, 113935, Note_off_c, 0, 56, 49
1, 113940, Control_c, 0, 64, 81
1, 113948, Note_on_c, 0, 73, 61
1, 113955, Control_c, 0, 64, 75
1, 113962, Note_on_c, 0, 54, 44
1, 113969, Control_c, 0, 64, 68
1, 113970, Note_on_c, 0, 65, 37
1, 113977, Note_on_c, 0, 68, 39
1, 113984, Control_c, 0, 64, 63
1, 113999, Control_c, 0, 64, 56
1, 114013, Control_c, 0, 64, 41
1, 114028, Control_c, 0, 64, 10
1, 114043, Control_c, 0, 64, 0
1, 114087, Note_off_c, 0, 54, 60
1, 114132, Control_c, 0, 64, 21
1, 114133, Note_on_c, 0, 53, 42
1, 114147, Control_c, 0, 64, 32
1, 114162, Control_c, 0, 64, 46
1, 114177, Control_c, 0, 64, 58
1, 114192, Control_c, 0, 64, 68
1, 114213, Control_c, 0, 64, 78
1, 114228, Control_c, 0, 64, 82
1, 114243, Control_c, 0, 64, 85
1, 114258, Control_c, 0, 64, 94
1, 114273, Control_c, 0, 64, 107
1, 114288, Control_c, 0, 64, 127
1, 114293, Note_on_c, 0, 51, 48
1, 114302, Note_off_c, 0, 73, 50
1, 114314, Note_off_c, 0, 53, 40
1, 114427, Note_off_c, 0, 51, 62
1, 114442, Note_off_c, 0, 65, 43
1, 114448, Note_on_c, 0, 73, 63
1, 114453, Note_on_c, 0, 49, 50
1, 114479, Note_off_c, 0, 68, 59
1, 114487, Note_off_c, 0, 49, 66
1, 114506, Note_off_c, 0, 73, 63
1, 114657, Note_on_c, 0, 44, 29
1, 114704, Control_c, 0, 64, 95
1, 114705, Note_on_c, 0, 78, 70
1, 114719, Control_c, 0, 64, 74
1, 114721, Note_on_c, 0, 66, 39
1, 114733, Note_on_c, 0, 72, 44
1, 114734, Control_c, 0, 64, 61
1, 114749, Control_c, 0, 64, 46
1, 114764, Control_c, 0, 64, 20
1, 114779, Control_c, 0, 64, 0
1, 114791, Note_off_c, 0, 72, 0
1, 114791, Note_on_c, 0, 72, 12
1, 114823, Control_c, 0, 64, 13
1, 114837, Control_c, 0, 64, 23
1, 114852, Control_c, 0, 64, 34
1, 114867, Control_c, 0, 64, 46
1, 114876, Note_on_c, 0, 31, 47
1, 114882, Control_c, 0, 64, 60
1, 114897, Control_c, 0, 64, 73
1, 114911, Control_c, 0, 64, 93
1, 114926, Control_c, 0, 64, 105
1, 114935, Note_off_c, 0, 44, 39
1, 114941, Control_c, 0, 64, 119
1, 114964, Control_c, 0, 64, 127
1, 115048, Note_on_c, 0, 32, 60
1, 115066, Note_off_c, 0, 66, 55
1, 115091, Note_off_c, 0, 31, 39
1, 115092, Note_off_c, 0, 72, 50
1, 115208, Note_on_c, 0, 31, 61
1, 115229, Note_off_c, 0, 32, 53
1, 115290, Control_c, 0, 64, 114
1, 115305, Control_c, 0, 64, 102
1, 115320, Control_c, 0, 64, 95
1, 115334, Control_c, 0, 64, 89
1, 115349, Control_c, 0, 64, 83
1, 115364, Control_c, 0, 64, 78
1, 115379, Control_c, 0, 64, 74
1, 115387, Note_on_c, 0, 32, 50
1, 115391, Note_on_c, 0, 75, 63
1, 115393, Note_on_c, 0, 66, 48
1, 115394, Control_c, 0, 64, 71
1, 115408, Control_c, 0, 64, 68
1, 115411, Note_on_c, 0, 72, 52
1, 115423, Control_c, 0, 64, 66
1, 115438, Control_c, 0, 64, 64
1, 115453, Control_c, 0, 64, 61
1, 115467, Control_c, 0, 64, 57
1, 115482, Control_c, 0, 64, 50
1, 115487, Note_off_c, 0, 31, 37
1, 115497, Control_c, 0, 64, 42
1, 115512, Control_c, 0, 64, 38
1, 115527, Control_c, 0, 64, 36
1, 115538, Note_on_c, 0, 34, 52
1, 115539, Note_off_c, 0, 32, 53
1, 115557, Control_c, 0, 64, 36
1, 115564, Note_off_c, 0, 78, 59
1, 115572, Control_c, 0, 64, 35
1, 115587, Control_c, 0, 64, 34
1, 115602, Control_c, 0, 64, 32
1, 115616, Control_c, 0, 64, 31
1, 115631, Control_c, 0, 64, 29
1, 115646, Control_c, 0, 64, 27
1, 115660, Control_c, 0, 64, 25
1, 115675, Control_c, 0, 64, 24
1, 115678, Note_off_c, 0, 34, 62
1, 115690, Control_c, 0, 64, 22
1, 115711, Note_on_c, 0, 36, 51
1, 115712, Control_c, 0, 64, 20
1, 115727, Control_c, 0, 64, 18
1, 115742, Control_c, 0, 64, 15
1, 115757, Control_c, 0, 64, 13
1, 115771, Control_c, 0, 64, 10
1, 115786, Control_c, 0, 64, 0
1, 115855, Note_off_c, 0, 36, 59
1, 115867, Note_on_c, 0, 37, 46
1, 116043, Note_on_c, 0, 39, 45
1, 116045, Note_off_c, 0, 37, 54
1, 116174, Note_off_c, 0, 39, 61
1, 116213, Note_on_c, 0, 41, 40
1, 116305, Control_c, 0, 64, 11
1, 116320, Control_c, 0, 64, 19
1, 116335, Control_c, 0, 64, 25
1, 116350, Control_c, 0, 64, 32
1, 116365, Control_c, 0, 64, 41
1, 116371, Note_off_c, 0, 41, 52
1, 116380, Control_c, 0, 64, 51
1, 116388, Note_on_c, 0, 42, 41
1, 116394, Control_c, 0, 64, 60
1, 116409, Control_c, 0, 64, 65
1, 116424, Control_c, 0, 64, 70
1, 116439, Control_c, 0, 64, 72
1, 116461, Control_c, 0, 64, 75
1, 116476, Control_c, 0, 64, 80
1, 116490, Note_off_c, 0, 66, 36
1, 116490, Control_c, 0, 64, 84
1, 116496, Note_off_c, 0, 72, 31
1, 116505, Control_c, 0, 64, 88
1, 116520, Control_c, 0, 64, 92
1, 116535, Control_c, 0, 64, 93
1, 116565, Control_c, 0, 64, 94
1, 116572, Note_off_c, 0, 42, 36
1, 116579, Note_on_c, 0, 44, 37
1, 116594, Control_c, 0, 64, 95
1, 116727, Control_c, 0, 64, 94
1, 116730, Note_off_c, 0, 75, 36
1, 116742, Control_c, 0, 64, 92
1, 116756, Control_c, 0, 64, 90
1, 116771, Control_c, 0, 64, 86
1, 116786, Control_c, 0, 64, 82
1, 116791, Note_off_c, 0, 44, 36
1, 116793, Note_on_c, 0, 37, 32
1, 116800, Control_c, 0, 64, 77
1, 116815, Control_c, 0, 64, 72
1, 116831, Control_c, 0, 64, 66
1, 116843, Note_on_c, 0, 77, 52
1, 116846, Control_c, 0, 64, 60
1, 116861, Control_c, 0, 64, 48
1, 116876, Control_c, 0, 64, 26
1, 116877, Note_on_c, 0, 65, 33
1, 116881, Note_on_c, 0, 72, 35
1, 116891, Control_c, 0, 64, 0
1, 116979, Control_c, 0, 64, 14
1, 116994, Control_c, 0, 64, 26
1, 117009, Control_c, 0, 64, 38
1, 117023, Control_c, 0, 64, 52
1, 117024, Note_on_c, 0, 45, 36
1, 117038, Control_c, 0, 64, 63
1, 117053, Control_c, 0, 64, 73
1, 117068, Control_c, 0, 64, 81
1, 117083, Control_c, 0, 64, 83
1, 117098, Control_c, 0, 64, 84
1, 117113, Control_c, 0, 64, 88
1, 117128, Control_c, 0, 64, 92
1, 117143, Control_c, 0, 64, 94
1, 117158, Control_c, 0, 64, 96
1, 117162, Note_on_c, 0, 46, 49
1, 117196, Note_off_c, 0, 45, 44
1, 117259, Note_off_c, 0, 65, 47
1, 117259, Note_off_c, 0, 72, 51
1, 117310, Note_off_c, 0, 46, 51
1, 117328, Note_on_c, 0, 45, 44
1, 117333, Note_off_c, 0, 37, 29
1, 117417, Control_c, 0, 64, 95
1, 117432, Control_c, 0, 64, 93
1, 117447, Control_c, 0, 64, 89
1, 117462, Control_c, 0, 64, 84
1, 117477, Control_c, 0, 64, 78
1, 117487, Note_off_c, 0, 45, 43
1, 117491, Control_c, 0, 64, 71
1, 117500, Note_on_c, 0, 46, 35
1, 117501, Note_on_c, 0, 70, 51
1, 117506, Control_c, 0, 64, 63
1, 117512, Note_on_c, 0, 65, 44
1, 117521, Control_c, 0, 64, 54
1, 117536, Control_c, 0, 64, 38
1, 117551, Control_c, 0, 64, 16
1, 117565, Control_c, 0, 64, 10
1, 117580, Control_c, 0, 64, 12
1, 117595, Control_c, 0, 64, 21
1, 117608, Note_off_c, 0, 46, 59
1, 117610, Control_c, 0, 64, 28
1, 117625, Control_c, 0, 64, 36
1, 117640, Control_c, 0, 64, 46
1, 117649, Note_on_c, 0, 48, 42
1, 117655, Control_c, 0, 64, 57
1, 117670, Control_c, 0, 64, 67
1, 117685, Control_c, 0, 64, 80
1, 117700, Control_c, 0, 64, 84
1, 117715, Control_c, 0, 64, 86
1, 117729, Control_c, 0, 64, 89
1, 117744, Control_c, 0, 64, 92
1, 117759, Control_c, 0, 64, 95
1, 117774, Control_c, 0, 64, 96
1, 117788, Control_c, 0, 64, 97
1, 117796, Note_on_c, 0, 73, 63
1, 117816, Note_off_c, 0, 48, 49
1, 117818, Control_c, 0, 64, 98
1, 117819, Note_off_c, 0, 77, 53
1, 117831, Note_on_c, 0, 49, 39
1, 117833, Control_c, 0, 64, 99
1, 117847, Control_c, 0, 64, 100
1, 117892, Control_c, 0, 64, 101
1, 117907, Control_c, 0, 64, 104
1, 117922, Control_c, 0, 64, 108
1, 117936, Control_c, 0, 64, 110
1, 117948, Note_off_c, 0, 70, 58
1, 117952, Note_off_c, 0, 65, 36
1, 117968, Note_off_c, 0, 73, 60
1, 117970, Note_on_c, 0, 51, 54
1, 118002, Note_off_c, 0, 49, 51
1, 118062, Control_c, 0, 64, 108
1, 118077, Control_c, 0, 64, 101
1, 118092, Control_c, 0, 64, 95
1, 118094, Note_off_c, 0, 51, 58
1, 118107, Control_c, 0, 64, 88
1, 118122, Control_c, 0, 64, 82
1, 118134, Note_on_c, 0, 73, 61
1, 118136, Control_c, 0, 64, 77
1, 118148, Note_on_c, 0, 70, 49
1, 118151, Control_c, 0, 64, 72
1, 118153, Note_on_c, 0, 65, 45
1, 118161, Note_on_c, 0, 53, 38
1, 118166, Control_c, 0, 64, 67
1, 118180, Control_c, 0, 64, 62
1, 118195, Control_c, 0, 64, 56
1, 118210, Control_c, 0, 64, 44
1, 118225, Control_c, 0, 64, 23
1, 118240, Control_c, 0, 64, 0
1, 118290, Note_on_c, 0, 49, 57
1, 118344, Control_c, 0, 64, 16
1, 118359, Control_c, 0, 64, 28
1, 118374, Control_c, 0, 64, 38
1, 118388, Control_c, 0, 64, 49
1, 118401, Note_off_c, 0, 53, 42
1, 118403, Control_c, 0, 64, 60
1, 118418, Control_c, 0, 64, 69
1, 118433, Control_c, 0, 64, 75
1, 118445, Note_on_c, 0, 48, 57
1, 118448, Control_c, 0, 64, 77
1, 118463, Control_c, 0, 64, 78
1, 118473, Note_off_c, 0, 49, 53
1, 118478, Control_c, 0, 64, 81
1, 118493, Control_c, 0, 64, 87
1, 118495, Note_off_c, 0, 73, 60
1, 118508, Control_c, 0, 64, 91
1, 118523, Control_c, 0, 64, 92
1, 118579, Note_off_c, 0, 48, 50
1, 118601, Note_on_c, 0, 73, 74
1, 118603, Note_on_c, 0, 46, 48
1, 118642, Note_off_c, 0, 70, 60
1, 118689, Note_off_c, 0, 65, 43
1, 118737, Control_c, 0, 64, 92
1, 118752, Note_off_c, 0, 46, 60
1, 118752, Control_c, 0, 64, 91
1, 118767, Control_c, 0, 64, 88
1, 118782, Control_c, 0, 64, 86
1, 118797, Control_c, 0, 64, 83
1, 118808, Note_on_c, 0, 48, 43
1, 118811, Control_c, 0, 64, 80
1, 118826, Control_c, 0, 64, 76
1, 118841, Control_c, 0, 64, 71
1, 118853, Note_on_c, 0, 65, 38
1, 118855, Note_on_c, 0, 75, 69
1, 118856, Control_c, 0, 64, 66
1, 118871, Control_c, 0, 64, 62
1, 118872, Note_on_c, 0, 70, 51
1, 118885, Control_c, 0, 64, 57
1, 118896, Note_off_c, 0, 73, 62
1, 118900, Control_c, 0, 64, 47
1, 118915, Control_c, 0, 64, 31
1, 118930, Control_c, 0, 64, 0
1, 119012, Note_on_c, 0, 36, 49
1, 119053, Note_off_c, 0, 48, 37
1, 119063, Control_c, 0, 64, 8
1, 119077, Control_c, 0, 64, 24
1, 119092, Control_c, 0, 64, 34
1, 119107, Control_c, 0, 64, 44
1, 119122, Control_c, 0, 64, 58
1, 119137, Control_c, 0, 64, 66
1, 119152, Control_c, 0, 64, 72
1, 119166, Note_on_c, 0, 37, 59
1, 119167, Control_c, 0, 64, 76
1, 119182, Control_c, 0, 64, 78
1, 119197, Control_c, 0, 64, 80
1, 119211, Control_c, 0, 64, 82
1, 119226, Control_c, 0, 64, 86
1, 119241, Control_c, 0, 64, 87
1, 119263, Note_off_c, 0, 70, 60
1, 119286, Note_off_c, 0, 36, 38
1, 119323, Note_on_c, 0, 39, 61
1, 119360, Control_c, 0, 64, 86
1, 119369, Note_off_c, 0, 37, 55
1, 119375, Control_c, 0, 64, 84
1, 119390, Control_c, 0, 64, 83
1, 119405, Control_c, 0, 64, 81
1, 119420, Control_c, 0, 64, 79
1, 119434, Control_c, 0, 64, 76
1, 119456, Control_c, 0, 64, 73
1, 119471, Control_c, 0, 64, 70
1, 119486, Control_c, 0, 64, 67
1, 119493, Note_off_c, 0, 39, 56
1, 119501, Control_c, 0, 64, 64
1, 119515, Control_c, 0, 64, 61
1, 119518, Note_on_c, 0, 72, 64
1, 119523, Note_on_c, 0, 41, 42
1, 119530, Control_c, 0, 64, 57
1, 119541, Note_on_c, 0, 69, 44
1, 119545, Control_c, 0, 64, 52
1, 119560, Control_c, 0, 64, 44
1, 119575, Control_c, 0, 64, 35
1, 119590, Control_c, 0, 64, 25
1, 119605, Control_c, 0, 64, 17
1, 119620, Control_c, 0, 64, 10
1, 119634, Control_c, 0, 64, 0
1, 119675, Note_off_c, 0, 41, 54
1, 119691, Note_on_c, 0, 42, 48
1, 119693, Note_off_c, 0, 75, 51
1, 119781, Control_c, 0, 64, 16
1, 119796, Control_c, 0, 64, 23
1, 119798, Note_off_c, 0, 65, 45
1, 119811, Control_c, 0, 64, 29
1, 119825, Control_c, 0, 64, 36
1, 119835, Note_off_c, 0, 42, 59
1, 119840, Control_c, 0, 64, 43
1, 119842, Note_off_c, 0, 69, 61
1, 119855, Control_c, 0, 64, 50
1, 119858, Note_on_c, 0, 41, 40
1, 119870, Control_c, 0, 64, 56
1, 119885, Control_c, 0, 64, 60
1, 119899, Control_c, 0, 64, 61
1, 119914, Control_c, 0, 64, 61
1, 119929, Control_c, 0, 64, 63
1, 119944, Control_c, 0, 64, 65
1, 119958, Control_c, 0, 64, 67
1, 119973, Control_c, 0, 64, 68
1, 119988, Control_c, 0, 64, 69
1, 120003, Control_c, 0, 64, 70
1, 120017, Note_off_c, 0, 41, 0
1, 120031, Note_on_c, 0, 40, 42
1, 120055, Poly_aftertouch_c, 0, 41, 0
1, 120108, Control_c, 0, 64, 69
1, 120122, Control_c, 0, 64, 68
1, 120137, Control_c, 0, 64, 65
1, 120152, Control_c, 0, 64, 62
1, 120167, Control_c, 0, 64, 56
1, 120181, Control_c, 0, 64, 40
1, 120204, Control_c, 0, 64, 10
1, 120209, Note_off_c, 0, 40, 40
1, 120218, Note_on_c, 0, 69, 41
1, 120219, Control_c, 0, 64, 0
1, 120228, Note_on_c, 0, 41, 28
1, 120323, Control_c, 0, 64, 14
1, 120337, Control_c, 0, 64, 21
1, 120352, Control_c, 0, 64, 28
1, 120367, Control_c, 0, 64, 38
1, 120381, Control_c, 0, 64, 48
1, 120396, Control_c, 0, 64, 58
1, 120410, Note_on_c, 0, 29, 27
1, 120411, Control_c, 0, 64, 64
1, 120426, Control_c, 0, 64, 67
1, 120441, Control_c, 0, 64, 67
1, 120446, Note_off_c, 0, 41, 33
1, 120455, Control_c, 0, 64, 68
1, 120470, Control_c, 0, 64, 69
1, 120485, Control_c, 0, 64, 72
1, 120500, Control_c, 0, 64, 75
1, 120515, Control_c, 0, 64, 78
1, 120529, Control_c, 0, 64, 79
1, 120574, Control_c, 0, 64, 79
1, 120583, Note_on_c, 0, 65, 41
1, 120602, Note_on_c, 0, 31, 33
1, 120603, Control_c, 0, 64, 80
1, 120658, Note_off_c, 0, 29, 32
1, 120663, Control_c, 0, 64, 80
1, 120786, Note_on_c, 0, 33, 34
1, 120796, Note_off_c, 0, 31, 35
1, 120997, Control_c, 0, 64, 80
1, 121012, Control_c, 0, 64, 79
1, 121027, Control_c, 0, 64, 78
1, 121042, Control_c, 0, 64, 77
1, 121051, Note_on_c, 0, 34, 22
1, 121057, Control_c, 0, 64, 75
1, 121071, Control_c, 0, 64, 73
1, 121076, Note_off_c, 0, 33, 37
1, 121086, Control_c, 0, 64, 70
1, 121101, Control_c, 0, 64, 66
1, 121116, Control_c, 0, 64, 61
1, 121122, Note_on_c, 0, 73, 49
1, 121131, Control_c, 0, 64, 45
1, 121146, Control_c, 0, 64, 12
1, 121156, Note_off_c, 0, 72, 37
1, 121161, Control_c, 0, 64, 0
1, 121174, Note_off_c, 0, 73, 0
1, 121174, Note_on_c, 0, 73, 23
1, 121250, Control_c, 0, 64, 20
1, 121262, Note_off_c, 0, 65, 24
1, 121265, Control_c, 0, 64, 34
1, 121279, Control_c, 0, 64, 48
1, 121280, Note_off_c, 0, 34, 58
1, 121294, Control_c, 0, 64, 61
1, 121309, Control_c, 0, 64, 71
1, 121324, Control_c, 0, 64, 80
1, 121339, Control_c, 0, 64, 80
1, 121347, Note_on_c, 0, 41, 25
1, 121368, Control_c, 0, 64, 81
1, 121383, Control_c, 0, 64, 81
1, 121395, Note_off_c, 0, 41, 48
1, 121397, Control_c, 0, 64, 82
1, 121412, Control_c, 0, 64, 82
1, 121511, Note_on_c, 0, 65, 44
1, 121533, Note_on_c, 0, 43, 21
1, 121575, Control_c, 0, 64, 82
1, 121590, Control_c, 0, 64, 80
1, 121605, Control_c, 0, 64, 78
1, 121620, Control_c, 0, 64, 75
1, 121631, Note_off_c, 0, 69, 42
1, 121635, Control_c, 0, 64, 71
1, 121650, Control_c, 0, 64, 66
1, 121665, Control_c, 0, 64, 61
1, 121673, Note_on_c, 0, 45, 41
1, 121680, Control_c, 0, 64, 51
1, 121685, Note_off_c, 0, 43, 41
1, 121702, Control_c, 0, 64, 30
1, 121717, Control_c, 0, 64, 0
1, 121762, Control_c, 0, 64, 18
1, 121776, Control_c, 0, 64, 27
1, 121791, Control_c, 0, 64, 34
1, 121806, Control_c, 0, 64, 43
1, 121818, Note_off_c, 0, 45, 34
1, 121821, Control_c, 0, 64, 54
1, 121823, Note_on_c, 0, 46, 40
1, 121835, Control_c, 0, 64, 63
1, 121850, Control_c, 0, 64, 72
1, 121865, Control_c, 0, 64, 78
1, 121880, Control_c, 0, 64, 79
1, 121895, Control_c, 0, 64, 79
1, 121909, Control_c, 0, 64, 81
1, 121924, Note_off_c, 0, 46, 58
1, 121924, Control_c, 0, 64, 83
1, 121939, Control_c, 0, 64, 86
1, 121954, Control_c, 0, 64, 90
1, 121969, Control_c, 0, 64, 91
1, 121977, Note_on_c, 0, 48, 39
1, 122137, Note_off_c, 0, 48, 35
1, 122139, Note_on_c, 0, 70, 51
1, 122140, Note_on_c, 0, 49, 42
1, 122217, Note_off_c, 0, 65, 36
1, 122243, Note_off_c, 0, 70, 60
1, 122295, Note_on_c, 0, 51, 45
1, 122298, Note_off_c, 0, 49, 35
1, 122339, Control_c, 0, 64, 91
1, 122368, Control_c, 0, 64, 89
1, 122383, Control_c, 0, 64, 88
1, 122398, Control_c, 0, 64, 86
1, 122406, Note_off_c, 0, 51, 56
1, 122414, Control_c, 0, 64, 83
1, 122429, Control_c, 0, 64, 79
1, 122451, Control_c, 0, 64, 74
1, 122466, Control_c, 0, 64, 69
1, 122472, Note_on_c, 0, 70, 47
1, 122481, Control_c, 0, 64, 63
1, 122496, Control_c, 0, 64, 57
1, 122499, Note_on_c, 0, 53, 28
1, 122499, Note_on_c, 0, 65, 35
1, 122511, Control_c, 0, 64, 45
1, 122525, Control_c, 0, 64, 21
1, 122540, Control_c, 0, 64, 0
1, 122541, Note_off_c, 0, 73, 42
1, 122623, Note_on_c, 0, 49, 45
1, 122644, Control_c, 0, 64, 21
1, 122655, Note_off_c, 0, 53, 40
1, 122658, Control_c, 0, 64, 33
1, 122673, Control_c, 0, 64, 45
1, 122688, Control_c, 0, 64, 57
1, 122703, Control_c, 0, 64, 66
1, 122718, Control_c, 0, 64, 74
1, 122732, Control_c, 0, 64, 75
1, 122747, Control_c, 0, 64, 76
1, 122754, Note_off_c, 0, 49, 58
1, 122762, Control_c, 0, 64, 77
1, 122771, Note_off_c, 0, 65, 45
1, 122777, Control_c, 0, 64, 81
1, 122788, Note_on_c, 0, 48, 39
1, 122791, Control_c, 0, 64, 85
1, 122806, Control_c, 0, 64, 89
1, 122810, Note_off_c, 0, 70, 58
1, 122821, Control_c, 0, 64, 91
1, 122866, Control_c, 0, 64, 91
1, 122896, Control_c, 0, 64, 92
1, 122943, Note_on_c, 0, 46, 40
1, 122946, Note_on_c, 0, 70, 51
1, 122947, Note_off_c, 0, 48, 46
1, 122974, Note_off_c, 0, 46, 60
1, 123015, Note_off_c, 0, 70, 59
1, 123103, Control_c, 0, 64, 90
1, 123117, Control_c, 0, 64, 86
1, 123130, Note_on_c, 0, 41, 31
1, 123132, Control_c, 0, 64, 81
1, 123147, Control_c, 0, 64, 77
1, 123162, Control_c, 0, 64, 71
1, 123164, Note_on_c, 0, 70, 33
1, 123170, Note_on_c, 0, 75, 52
1, 123176, Control_c, 0, 64, 64
1, 123199, Control_c, 0, 64, 57
1, 123200, Note_on_c, 0, 65, 37
1, 123214, Control_c, 0, 64, 43
1, 123230, Control_c, 0, 64, 13
1, 123234, Note_off_c, 0, 70, 0
1, 123234, Note_on_c, 0, 70, 13
1, 123245, Control_c, 0, 64, 0
1, 123334, Control_c, 0, 64, 19
1, 123334, Note_on_c, 0, 29, 47
1, 123348, Control_c, 0, 64, 28
1, 123363, Control_c, 0, 64, 38
1, 123378, Control_c, 0, 64, 49
1, 123392, Control_c, 0, 64, 59
1, 123406, Control_c, 0, 64, 66
1, 123411, Note_off_c, 0, 41, 34
1, 123421, Control_c, 0, 64, 71
1, 123436, Control_c, 0, 64, 72
1, 123451, Control_c, 0, 64, 73
1, 123465, Control_c, 0, 64, 74
1, 123480, Control_c, 0, 64, 75
1, 123495, Control_c, 0, 64, 76
1, 123497, Note_on_c, 0, 31, 58
1, 123510, Control_c, 0, 64, 77
1, 123572, Note_off_c, 0, 65, 43
1, 123599, Note_off_c, 0, 29, 37
1, 123647, Note_on_c, 0, 33, 61
1, 123659, Control_c, 0, 64, 76
1, 123673, Control_c, 0, 64, 76
1, 123688, Control_c, 0, 64, 75
1, 123703, Control_c, 0, 64, 74
1, 123716, Note_off_c, 0, 31, 35
1, 123718, Control_c, 0, 64, 73
1, 123733, Control_c, 0, 64, 72
1, 123747, Control_c, 0, 64, 70
1, 123762, Control_c, 0, 64, 68
1, 123777, Control_c, 0, 64, 66
1, 123791, Control_c, 0, 64, 64
1, 123806, Control_c, 0, 64, 62
1, 123813, Note_off_c, 0, 70, 39
1, 123817, Note_on_c, 0, 69, 43
1, 123821, Control_c, 0, 64, 60
1, 123822, Note_on_c, 0, 72, 52
1, 123826, Note_on_c, 0, 34, 52
1, 123827, Note_on_c, 0, 65, 35
1, 123836, Control_c, 0, 64, 56
1, 123851, Control_c, 0, 64, 50
1, 123861, Note_off_c, 0, 33, 36
1, 123865, Control_c, 0, 64, 44
1, 123880, Control_c, 0, 64, 40
1, 123895, Control_c, 0, 64, 37
1, 123910, Control_c, 0, 64, 36
1, 123924, Control_c, 0, 64, 35
1, 123947, Control_c, 0, 64, 33
1, 123962, Control_c, 0, 64, 31
1, 123963, Note_off_c, 0, 75, 45
1, 123968, Note_off_c, 0, 34, 64
1, 123977, Control_c, 0, 64, 28
1, 123992, Control_c, 0, 64, 26
1, 124000, Note_on_c, 0, 36, 45
1, 124006, Control_c, 0, 64, 23
1, 124022, Control_c, 0, 64, 20
1, 124037, Control_c, 0, 64, 18
1, 124052, Control_c, 0, 64, 16
1, 124067, Control_c, 0, 64, 14
1, 124082, Control_c, 0, 64, 12
1, 124096, Control_c, 0, 64, 9
1, 124111, Control_c, 0, 64, 0
1, 124145, Note_off_c, 0, 36, 54
1, 124148, Note_on_c, 0, 37, 45
1, 124300, Note_off_c, 0, 37, 55
1, 124317, Note_on_c, 0, 39, 40
1, 124473, Note_off_c, 0, 39, 51
1, 124508, Note_on_c, 0, 41, 27
1, 124661, Note_on_c, 0, 39, 25
1, 124686, Note_off_c, 0, 41, 41
1, 124690, Control_c, 0, 64, 9
1, 124711, Control_c, 0, 64, 16
1, 124726, Control_c, 0, 64, 19
1, 124741, Control_c, 0, 64, 23
1, 124756, Control_c, 0, 64, 28
1, 124771, Control_c, 0, 64, 38
1, 124786, Control_c, 0, 64, 48
1, 124801, Control_c, 0, 64, 57
1, 124816, Control_c, 0, 64, 63
1, 124831, Control_c, 0, 64, 67
1, 124839, Note_on_c, 0, 37, 40
1, 124845, Control_c, 0, 64, 70
1, 124860, Control_c, 0, 64, 74
1, 124875, Control_c, 0, 64, 79
1, 124890, Control_c, 0, 64, 84
1, 124905, Note_off_c, 0, 65, 44
1, 124905, Control_c, 0, 64, 86
1, 124920, Control_c, 0, 64, 87
1, 124935, Control_c, 0, 64, 88
1, 124971, Note_off_c, 0, 39, 33
1, 125009, Note_on_c, 0, 36, 35
1, 125009, Note_off_c, 0, 37, 42
1, 125068, Control_c, 0, 64, 89
1, 125083, Control_c, 0, 64, 93
1, 125098, Control_c, 0, 64, 94
1, 125113, Control_c, 0, 64, 93
1, 125127, Control_c, 0, 64, 91
1, 125142, Control_c, 0, 64, 86
1, 125157, Control_c, 0, 64, 82
1, 125171, Control_c, 0, 64, 79
1, 125186, Control_c, 0, 64, 77
1, 125201, Control_c, 0, 64, 74
1, 125210, Note_on_c, 0, 34, 32
1, 125214, Note_off_c, 0, 36, 39
1, 125216, Control_c, 0, 64, 69
1, 125231, Control_c, 0, 64, 64
1, 125243, Note_off_c, 0, 72, 54
1, 125245, Control_c, 0, 64, 56
1, 125260, Control_c, 0, 64, 42
1, 125275, Control_c, 0, 64, 11
1, 125283, Note_on_c, 0, 73, 40
1, 125288, Note_on_c, 0, 65, 29
1, 125290, Control_c, 0, 64, 0
1, 125303, Note_on_c, 0, 70, 30
1, 125343, Note_off_c, 0, 69, 40
1, 125394, Control_c, 0, 64, 14
1, 125409, Control_c, 0, 64, 32
1, 125424, Control_c, 0, 64, 47
1, 125424, Note_off_c, 0, 34, 57
1, 125439, Control_c, 0, 64, 59
1, 125455, Note_on_c, 0, 45, 41
1, 125460, Control_c, 0, 64, 69
1, 125475, Control_c, 0, 64, 79
1, 125490, Control_c, 0, 64, 82
1, 125505, Control_c, 0, 64, 83
1, 125519, Control_c, 0, 64, 83
1, 125534, Control_c, 0, 64, 85
1, 125549, Control_c, 0, 64, 86
1, 125564, Control_c, 0, 64, 87
1, 125576, Note_off_c, 0, 45, 52
1, 125579, Control_c, 0, 64, 87
1, 125594, Control_c, 0, 64, 88
1, 125597, Note_on_c, 0, 46, 45
1, 125624, Control_c, 0, 64, 88
1, 125719, Note_off_c, 0, 46, 64
1, 125762, Note_on_c, 0, 48, 53
1, 125847, Control_c, 0, 64, 87
1, 125862, Control_c, 0, 64, 83
1, 125876, Control_c, 0, 64, 76
1, 125891, Control_c, 0, 64, 68
1, 125893, Note_off_c, 0, 48, 59
1, 125906, Control_c, 0, 64, 60
1, 125907, Note_on_c, 0, 49, 50
1, 125920, Control_c, 0, 64, 46
1, 125935, Control_c, 0, 64, 24
1, 125950, Control_c, 0, 64, 8
1, 125965, Control_c, 0, 64, 12
1, 125980, Control_c, 0, 64, 20
1, 125994, Control_c, 0, 64, 28
1, 126009, Control_c, 0, 64, 37
1, 126024, Control_c, 0, 64, 49
1, 126039, Control_c, 0, 64, 61
1, 126054, Control_c, 0, 64, 73
1, 126059, Note_on_c, 0, 51, 49
1, 126068, Control_c, 0, 64, 83
1, 126083, Control_c, 0, 64, 86
1, 126091, Note_off_c, 0, 49, 36
1, 126098, Control_c, 0, 64, 89
1, 126102, Note_off_c, 0, 70, 53
1, 126112, Control_c, 0, 64, 92
1, 126127, Control_c, 0, 64, 93
1, 126172, Control_c, 0, 64, 92
1, 126194, Control_c, 0, 64, 85
1, 126200, Note_off_c, 0, 51, 55
1, 126209, Control_c, 0, 64, 75
1, 126224, Control_c, 0, 64, 65
1, 126225, Note_on_c, 0, 70, 57
1, 126239, Control_c, 0, 64, 56
1, 126245, Note_on_c, 0, 53, 44
1, 126254, Control_c, 0, 64, 39
1, 126268, Control_c, 0, 64, 11
1, 126283, Control_c, 0, 64, 0
1, 126298, Control_c, 0, 64, 12
1, 126303, Note_off_c, 0, 73, 45
1, 126313, Control_c, 0, 64, 22
1, 126318, Note_off_c, 0, 65, 45
1, 126327, Control_c, 0, 64, 30
1, 126342, Control_c, 0, 64, 39
1, 126357, Control_c, 0, 64, 51
1, 126372, Control_c, 0, 64, 63
1, 126380, Note_on_c, 0, 51, 47
1, 126387, Control_c, 0, 64, 78
1, 126390, Note_off_c, 0, 53, 41
1, 126401, Control_c, 0, 64, 86
1, 126417, Control_c, 0, 64, 87
1, 126422, Note_off_c, 0, 70, 61
1, 126432, Control_c, 0, 64, 89
1, 126447, Control_c, 0, 64, 90
1, 126506, Control_c, 0, 64, 87
1, 126518, Note_off_c, 0, 51, 56
1, 126521, Control_c, 0, 64, 82
1, 126536, Control_c, 0, 64, 76
1, 126545, Note_on_c, 0, 70, 66
1, 126550, Control_c, 0, 64, 69
1, 126556, Note_on_c, 0, 49, 40
1, 126565, Control_c, 0, 64, 63
1, 126580, Control_c, 0, 64, 52
1, 126595, Control_c, 0, 64, 34
1, 126610, Control_c, 0, 64, 0
1, 126687, Note_off_c, 0, 49, 57
1, 126699, Control_c, 0, 64, 18
1, 126714, Control_c, 0, 64, 28
1, 126717, Note_on_c, 0, 48, 44
1, 126729, Control_c, 0, 64, 38
1, 126743, Control_c, 0, 64, 50
1, 126758, Control_c, 0, 64, 61
1, 126773, Control_c, 0, 64, 75
1, 126788, Control_c, 0, 64, 86
1, 126803, Control_c, 0, 64, 90
1, 126817, Control_c, 0, 64, 95
1, 126832, Control_c, 0, 64, 103
1, 126847, Control_c, 0, 64, 111
1, 126862, Control_c, 0, 64, 127
1, 126882, Note_on_c, 0, 46, 50
1, 126883, Note_off_c, 0, 70, 57
1, 126893, Note_off_c, 0, 48, 45
1, 127035, Note_off_c, 0, 46, 55
1, 127049, Note_on_c, 0, 70, 65
1, 127061, Note_on_c, 0, 44, 45
1, 127135, Control_c, 0, 64, 122
1, 127179, Control_c, 0, 64, 119
1, 127182, Note_off_c, 0, 70, 53
1, 127196, Note_off_c, 0, 44, 60
1, 127209, Control_c, 0, 64, 115
1, 127225, Control_c, 0, 64, 111
1, 127239, Control_c, 0, 64, 108
1, 127254, Control_c, 0, 64, 101
1, 127255, Note_on_c, 0, 43, 43
1, 127269, Control_c, 0, 64, 96
1, 127284, Control_c, 0, 64, 90
1, 127299, Control_c, 0, 64, 83
1, 127314, Control_c, 0, 64, 76
1, 127328, Control_c, 0, 64, 70
1, 127337, Note_on_c, 0, 73, 56
1, 127343, Control_c, 0, 64, 63
1, 127352, Note_on_c, 0, 70, 44
1, 127358, Control_c, 0, 64, 55
1, 127368, Note_on_c, 0, 63, 32
1, 127373, Control_c, 0, 64, 38
1, 127388, Control_c, 0, 64, 0
1, 127412, Note_off_c, 0, 70, 0
1, 127412, Note_on_c, 0, 70, 10
1, 127492, Control_c, 0, 64, 8
1, 127497, Note_on_c, 0, 38, 39
1, 127507, Control_c, 0, 64, 21
1, 127521, Control_c, 0, 64, 32
1, 127536, Control_c, 0, 64, 46
1, 127551, Control_c, 0, 64, 58
1, 127565, Control_c, 0, 64, 67
1, 127580, Control_c, 0, 64, 77
1, 127595, Control_c, 0, 64, 80
1, 127604, Note_off_c, 0, 43, 32
1, 127610, Control_c, 0, 64, 81
1, 127625, Note_off_c, 0, 63, 42
1, 127625, Control_c, 0, 64, 84
1, 127639, Control_c, 0, 64, 87
1, 127648, Note_on_c, 0, 39, 46
1, 127654, Control_c, 0, 64, 88
1, 127669, Control_c, 0, 64, 90
1, 127729, Note_off_c, 0, 38, 35
1, 127750, Note_off_c, 0, 70, 50
1, 127795, Note_off_c, 0, 39, 55
1, 127823, Note_on_c, 0, 41, 39
1, 127923, Note_off_c, 0, 41, 53
1, 127944, Control_c, 0, 64, 89
1, 127959, Control_c, 0, 64, 88
1, 127973, Control_c, 0, 64, 86
1, 127988, Control_c, 0, 64, 83
1, 128003, Control_c, 0, 64, 79
1, 128013, Note_on_c, 0, 43, 29
1, 128019, Control_c, 0, 64, 72
1, 128034, Control_c, 0, 64, 66
1, 128049, Control_c, 0, 64, 60
1, 128063, Control_c, 0, 64, 47
1, 128078, Control_c, 0, 64, 22
1, 128085, Note_on_c, 0, 70, 43
1, 128093, Control_c, 0, 64, 0
1, 128167, Control_c, 0, 64, 12
1, 128174, Note_off_c, 0, 73, 35
1, 128182, Control_c, 0, 64, 24
1, 128196, Note_off_c, 0, 70, 60
1, 128196, Control_c, 0, 64, 35
1, 128211, Control_c, 0, 64, 48
1, 128212, Note_on_c, 0, 44, 29
1, 128226, Control_c, 0, 64, 59
1, 128227, Note_off_c, 0, 43, 43
1, 128235, Note_on_c, 0, 72, 40
1, 128241, Control_c, 0, 64, 67
1, 128256, Control_c, 0, 64, 72
1, 128270, Control_c, 0, 64, 74
1, 128280, Note_off_c, 0, 72, 48
1, 128300, Control_c, 0, 64, 76
1, 128312, Note_on_c, 0, 70, 40
1, 128315, Control_c, 0, 64, 77
1, 128330, Control_c, 0, 64, 78
1, 128341, Note_off_c, 0, 70, 57
1, 128345, Control_c, 0, 64, 79
1, 128368, Note_off_c, 0, 44, 37
1, 128371, Note_on_c, 0, 46, 44
1, 128380, Note_on_c, 0, 72, 42
1, 128405, Note_off_c, 0, 72, 58
1, 128437, Note_on_c, 0, 70, 59
1, 128471, Note_off_c, 0, 70, 63
1, 128492, Note_on_c, 0, 72, 58
1, 128512, Note_on_c, 0, 44, 39
1, 128527, Note_off_c, 0, 72, 63
1, 128535, Note_off_c, 0, 46, 35
1, 128553, Note_on_c, 0, 70, 59
1, 128586, Note_off_c, 0, 70, 62
1, 128599, Note_on_c, 0, 72, 52
1, 128636, Note_off_c, 0, 72, 64
1, 128649, Note_off_c, 0, 44, 56
1, 128656, Note_on_c, 0, 70, 56
1, 128688, Note_on_c, 0, 43, 44
1, 128695, Note_off_c, 0, 70, 63
1, 128706, Note_on_c, 0, 72, 60
1, 128708, Control_c, 0, 64, 79
1, 128722, Control_c, 0, 64, 77
1, 128737, Control_c, 0, 64, 71
1, 128743, Note_off_c, 0, 72, 62
1, 128752, Control_c, 0, 64, 65
1, 128767, Control_c, 0, 64, 55
1, 128771, Note_on_c, 0, 70, 51
1, 128782, Control_c, 0, 64, 40
1, 128795, Note_off_c, 0, 70, 57
1, 128796, Control_c, 0, 64, 23
1, 128801, Note_on_c, 0, 72, 54
1, 128812, Control_c, 0, 64, 21
1, 128827, Control_c, 0, 64, 25
1, 128842, Control_c, 0, 64, 32
1, 128844, Note_off_c, 0, 43, 35
1, 128845, Note_on_c, 0, 41, 30
1, 128847, Note_off_c, 0, 72, 63
1, 128857, Control_c, 0, 64, 39
1, 128872, Control_c, 0, 64, 51
1, 128876, Note_on_c, 0, 70, 54
1, 128886, Control_c, 0, 64, 61
1, 128901, Control_c, 0, 64, 70
1, 128904, Note_off_c, 0, 70, 57
1, 128913, Note_on_c, 0, 72, 55
1, 128916, Control_c, 0, 64, 77
1, 128931, Control_c, 0, 64, 79
1, 128945, Control_c, 0, 64, 81
1, 128959, Note_off_c, 0, 72, 59
1, 128960, Control_c, 0, 64, 83
1, 128967, Note_on_c, 0, 70, 51
1, 128975, Control_c, 0, 64, 85
1, 128990, Control_c, 0, 64, 86
1, 128996, Note_on_c, 0, 39, 39
1, 129004, Control_c, 0, 64, 87
1, 129009, Note_off_c, 0, 41, 44
1, 129013, Note_on_c, 0, 72, 46
1, 129036, Note_off_c, 0, 70, 61
1, 129064, Control_c, 0, 64, 86
1, 129079, Control_c, 0, 64, 81
1, 129093, Control_c, 0, 64, 72
1, 129102, Note_off_c, 0, 72, 61
1, 129108, Control_c, 0, 64, 63
1, 129120, Note_on_c, 0, 71, 55
1, 129123, Control_c, 0, 64, 51
1, 129138, Control_c, 0, 64, 29
1, 129153, Control_c, 0, 64, 0
1, 129159, Note_off_c, 0, 39, 43
1, 129165, Note_on_c, 0, 37, 38
1, 129191, Note_off_c, 0, 71, 66
1, 129205, Note_on_c, 0, 72, 52
1, 129219, Control_c, 0, 64, 22
1, 129234, Control_c, 0, 64, 31
1, 129249, Control_c, 0, 64, 42
1, 129256, Note_off_c, 0, 72, 59
1, 129257, Note_off_c, 0, 37, 62
1, 129264, Control_c, 0, 64, 56
1, 129279, Control_c, 0, 64, 65
1, 129292, Note_on_c, 0, 71, 53
1, 129293, Control_c, 0, 64, 74
1, 129308, Control_c, 0, 64, 78
1, 129326, Note_on_c, 0, 36, 39
1, 129330, Note_off_c, 0, 71, 66
1, 129338, Control_c, 0, 64, 79
1, 129346, Note_on_c, 0, 72, 53
1, 129352, Control_c, 0, 64, 83
1, 129367, Control_c, 0, 64, 89
1, 129379, Note_off_c, 0, 72, 61
1, 129382, Control_c, 0, 64, 95
1, 129397, Control_c, 0, 64, 100
1, 129412, Control_c, 0, 64, 103
1, 129420, Note_on_c, 0, 71, 53
1, 129427, Control_c, 0, 64, 105
1, 129442, Control_c, 0, 64, 117
1, 129457, Control_c, 0, 64, 127
1, 129463, Note_off_c, 0, 71, 60
1, 129464, Note_on_c, 0, 72, 60
1, 129466, Note_on_c, 0, 34, 43
1, 129478, Note_off_c, 0, 36, 34
1, 129493, Note_off_c, 0, 72, 63
1, 129568, Note_off_c, 0, 34, 56
1, 129750, Note_on_c, 0, 32, 29
1, 129783, Control_c, 0, 64, 89
1, 129798, Control_c, 0, 64, 72
1, 129813, Control_c, 0, 64, 60
1, 129828, Control_c, 0, 64, 36
1, 129835, Note_on_c, 0, 72, 48
1, 129842, Note_on_c, 0, 60, 37
1, 129842, Note_on_c, 0, 63, 38
1, 129842, Control_c, 0, 64, 0
1, 129916, Control_c, 0, 64, 23
1, 129939, Control_c, 0, 64, 38
1, 129954, Control_c, 0, 64, 52
1, 129958, Note_on_c, 0, 39, 25
1, 129968, Control_c, 0, 64, 65
1, 129983, Control_c, 0, 64, 85
1, 129998, Control_c, 0, 64, 102
1, 130000, Note_off_c, 0, 39, 43
1, 130013, Control_c, 0, 64, 105
1, 130028, Control_c, 0, 64, 127
1, 130029, Note_on_c, 0, 36, 44
1, 130045, Note_off_c, 0, 32, 36
1, 130085, Note_off_c, 0, 36, 58
1, 130113, Note_on_c, 0, 39, 44
1, 130149, Note_off_c, 0, 39, 62
1, 130171, Note_on_c, 0, 44, 48
1, 130202, Note_off_c, 0, 44, 52
1, 130277, Note_on_c, 0, 51, 55
1, 130317, Note_off_c, 0, 51, 65
1, 130371, Note_on_c, 0, 48, 44
1, 130398, Control_c, 0, 64, 105
1, 130414, Control_c, 0, 64, 85
1, 130429, Control_c, 0, 64, 70
1, 130429, Note_off_c, 0, 48, 61
1, 130443, Control_c, 0, 64, 59
1, 130454, Note_on_c, 0, 51, 45
1, 130458, Control_c, 0, 64, 39
1, 130473, Control_c, 0, 64, 0
1, 130486, Note_off_c, 0, 51, 57
1, 130512, Note_on_c, 0, 44, 50
1, 130547, Control_c, 0, 64, 12
1, 130562, Control_c, 0, 64, 32
1, 130577, Control_c, 0, 64, 48
1, 130591, Control_c, 0, 64, 64
1, 130592, Note_on_c, 0, 51, 50
1, 130606, Control_c, 0, 64, 84
1, 130621, Control_c, 0, 64, 106
1, 130629, Note_off_c, 0, 51, 65
1, 130636, Control_c, 0, 64, 110
1, 130651, Control_c, 0, 64, 115
1, 130653, Note_off_c, 0, 72, 36
1, 130665, Control_c, 0, 64, 127
1, 130689, Note_on_c, 0, 48, 42
1, 130759, Note_off_c, 0, 48, 54
1, 130777, Note_on_c, 0, 51, 43
1, 130803, Note_on_c, 0, 68, 64
1, 130816, Note_off_c, 0, 51, 64
1, 130840, Note_off_c, 0, 60, 35
1, 130853, Note_off_c, 0, 44, 0
1, 130874, Note_on_c, 0, 56, 36
1, 130891, Poly_aftertouch_c, 0, 44, 127
1, 130903, Note_off_c, 0, 63, 56
1, 130905, Note_off_c, 0, 56, 58
1, 130933, Note_off_c, 0, 68, 54
1, 130947, Note_on_c, 0, 51, 46
1, 130970, Poly_aftertouch_c, 0, 44, 0
1, 130985, Note_off_c, 0, 51, 53
1, 131024, Note_on_c, 0, 48, 42
1, 131062, Note_off_c, 0, 48, 51
1, 131087, Note_on_c, 0, 51, 46
1, 131111, Note_off_c, 0, 51, 62
1, 131177, Control_c, 0, 64, 110
1, 131192, Control_c, 0, 64, 93
1, 131192, Note_on_c, 0, 68, 66
1, 131204, Note_on_c, 0, 48, 40
1, 131207, Control_c, 0, 64, 79
1, 131222, Control_c, 0, 64, 66
1, 131228, Note_on_c, 0, 63, 32
1, 131237, Note_on_c, 0, 60, 31
1, 131237, Control_c, 0, 64, 56
1, 131252, Control_c, 0, 64, 34
1, 131267, Control_c, 0, 64, 0
1, 131292, Note_off_c, 0, 63, 0
1, 131292, Note_on_c, 0, 63, 3
1, 131310, Note_off_c, 0, 60, 0
1, 131310, Note_on_c, 0, 60, 3
1, 131371, Control_c, 0, 64, 17
1, 131371, Note_on_c, 0, 56, 24
1, 131385, Control_c, 0, 64, 37
1, 131400, Control_c, 0, 64, 53
1, 131412, Note_off_c, 0, 56, 40
1, 131415, Control_c, 0, 64, 67
1, 131437, Control_c, 0, 64, 92
1, 131448, Note_on_c, 0, 51, 47
1, 131452, Control_c, 0, 64, 127
1, 131460, Note_off_c, 0, 60, 42
1, 131478, Note_off_c, 0, 48, 41
1, 131502, Note_off_c, 0, 51, 58
1, 131509, Note_on_c, 0, 56, 55
1, 131534, Note_off_c, 0, 63, 48
1, 131549, Note_off_c, 0, 68, 52
1, 131556, Note_off_c, 0, 56, 61
1, 131584, Note_on_c, 0, 60, 46
1, 131651, Note_off_c, 0, 60, 58
1, 131707, Note_on_c, 0, 68, 70
1, 131779, Note_on_c, 0, 51, 39
1, 131785, Note_off_c, 0, 68, 59
1, 131824, Note_off_c, 0, 51, 55
1, 131863, Note_on_c, 0, 56, 37
1, 131943, Note_off_c, 0, 56, 39
1, 131970, Control_c, 0, 64, 96
1, 131977, Note_on_c, 0, 46, 49
1, 131985, Control_c, 0, 64, 83
1, 131999, Control_c, 0, 64, 72
1, 132000, Note_on_c, 0, 73, 65
1, 132015, Control_c, 0, 64, 63
1, 132029, Control_c, 0, 64, 47
1, 132044, Control_c, 0, 64, 13
1, 132051, Note_on_c, 0, 63, 29
1, 132059, Control_c, 0, 64, 0
1, 132060, Note_on_c, 0, 67, 23
1, 132134, Control_c, 0, 64, 27
1, 132149, Note_on_c, 0, 55, 47
1, 132149, Control_c, 0, 64, 43
1, 132163, Control_c, 0, 64, 59
1, 132169, Note_off_c, 0, 46, 62
1, 132185, Control_c, 0, 64, 74
1, 132200, Control_c, 0, 64, 108
1, 132215, Control_c, 0, 64, 127
1, 132225, Note_off_c, 0, 55, 62
1, 132252, Note_on_c, 0, 51, 52
1, 132284, Note_off_c, 0, 63, 45
1, 132317, Note_off_c, 0, 51, 61
1, 132339, Note_on_c, 0, 55, 47
1, 132366, Note_off_c, 0, 55, 63
1, 132391, Note_on_c, 0, 58, 58
1, 132410, Note_off_c, 0, 67, 46
1, 132439, Note_off_c, 0, 58, 57
1, 132465, Note_on_c, 0, 55, 49
1, 132509, Note_off_c, 0, 55, 62
1, 132540, Note_on_c, 0, 51, 51
1, 132581, Note_off_c, 0, 51, 63
1, 132621, Note_on_c, 0, 55, 47
1, 132659, Note_off_c, 0, 55, 52
1, 132659, Control_c, 0, 64, 110
1, 132674, Control_c, 0, 64, 95
1, 132688, Control_c, 0, 64, 83
1, 132703, Control_c, 0, 64, 73
1, 132709, Note_on_c, 0, 70, 64
1, 132718, Control_c, 0, 64, 65
1, 132733, Note_on_c, 0, 63, 38
1, 132733, Control_c, 0, 64, 57
1, 132736, Note_on_c, 0, 49, 39
1, 132736, Note_on_c, 0, 67, 41
1, 132748, Control_c, 0, 64, 39
1, 132763, Control_c, 0, 64, 0
1, 132807, Note_off_c, 0, 73, 53
1, 132848, Note_on_c, 0, 55, 27
1, 132853, Control_c, 0, 64, 13
1, 132867, Control_c, 0, 64, 28
1, 132882, Control_c, 0, 64, 43
1, 132885, Note_off_c, 0, 55, 51
1, 132897, Control_c, 0, 64, 57
1, 132912, Control_c, 0, 64, 68
1, 132921, Note_on_c, 0, 51, 48
1, 132934, Control_c, 0, 64, 83
1, 132949, Control_c, 0, 64, 90
1, 132964, Control_c, 0, 64, 93
1, 132979, Control_c, 0, 64, 101
1, 132983, Note_off_c, 0, 51, 58
1, 132986, Note_on_c, 0, 55, 51
1, 132993, Control_c, 0, 64, 113
1, 133008, Control_c, 0, 64, 127
1, 133035, Note_off_c, 0, 55, 63
1, 133078, Note_on_c, 0, 58, 46
1, 133120, Note_off_c, 0, 58, 62
1, 133165, Note_on_c, 0, 55, 31
1, 133193, Note_off_c, 0, 55, 58
1, 133214, Note_off_c, 0, 49, 41
1, 133226, Note_on_c, 0, 51, 50
1, 133277, Note_off_c, 0, 51, 61
1, 133292, Note_on_c, 0, 55, 46
1, 133348, Control_c, 0, 64, 101
1, 133363, Control_c, 0, 64, 79
1, 133370, Note_off_c, 0, 55, 57
1, 133377, Control_c, 0, 64, 66
1, 133392, Control_c, 0, 64, 56
1, 133407, Control_c, 0, 64, 38
1, 133419, Note_on_c, 0, 49, 41
1, 133422, Control_c, 0, 64, 0
1, 133481, Control_c, 0, 64, 16
1, 133496, Control_c, 0, 64, 28
1, 133511, Control_c, 0, 64, 40
1, 133513, Note_off_c, 0, 63, 51
1, 133520, Note_on_c, 0, 55, 37
1, 133526, Control_c, 0, 64, 54
1, 133541, Control_c, 0, 64, 65
1, 133556, Control_c, 0, 64, 83
1, 133570, Control_c, 0, 64, 95
1, 133571, Note_off_c, 0, 55, 53
1, 133585, Control_c, 0, 64, 100
1, 133600, Control_c, 0, 64, 113
1, 133615, Control_c, 0, 64, 127
1, 133621, Note_on_c, 0, 51, 43
1, 133640, Note_off_c, 0, 67, 42
1, 133668, Note_off_c, 0, 51, 61
1, 133704, Note_on_c, 0, 55, 47
1, 133740, Note_off_c, 0, 55, 64
1, 133781, Note_on_c, 0, 58, 44
1, 133825, Note_off_c, 0, 58, 45
1, 133866, Note_on_c, 0, 55, 43
1, 133918, Note_off_c, 0, 49, 42
1, 133921, Note_off_c, 0, 55, 60
1, 133951, Note_on_c, 0, 51, 49
1, 134008, Note_off_c, 0, 51, 58
1, 134067, Note_on_c, 0, 55, 16
1, 134118, Note_off_c, 0, 55, 53
1, 134206, Note_on_c, 0, 48, 37
1, 134244, Control_c, 0, 64, 111
1, 134259, Control_c, 0, 64, 99
1, 134259, Note_on_c, 0, 75, 67
1, 134272, Note_on_c, 0, 68, 52
1, 134274, Control_c, 0, 64, 89
1, 134280, Note_on_c, 0, 63, 44
1, 134289, Control_c, 0, 64, 79
1, 134304, Control_c, 0, 64, 71
1, 134319, Control_c, 0, 64, 63
1, 134333, Control_c, 0, 64, 53
1, 134334, Note_off_c, 0, 70, 61
1, 134348, Control_c, 0, 64, 30
1, 134363, Control_c, 0, 64, 0
1, 134434, Note_on_c, 0, 56, 47
1, 134473, Note_off_c, 0, 56, 65
1, 134475, Control_c, 0, 64, 28
1, 134490, Control_c, 0, 64, 45
1, 134504, Control_c, 0, 64, 62
1, 134519, Control_c, 0, 64, 81
1, 134534, Control_c, 0, 64, 111
1, 134545, Note_on_c, 0, 51, 44
1, 134549, Control_c, 0, 64, 127
1, 134587, Note_on_c, 0, 56, 58
1, 134590, Note_off_c, 0, 51, 60
1, 134632, Note_off_c, 0, 56, 61
1, 134701, Note_on_c, 0, 60, 23
1, 134738, Note_off_c, 0, 60, 53
1, 134766, Note_on_c, 0, 56, 45
1, 134793, Note_off_c, 0, 56, 59
1, 134819, Note_on_c, 0, 51, 53
1, 134831, Note_off_c, 0, 48, 42
1, 134877, Note_on_c, 0, 56, 57
1, 134893, Note_off_c, 0, 51, 52
1, 134905, Control_c, 0, 64, 104
1, 134920, Control_c, 0, 64, 79
1, 134935, Control_c, 0, 64, 67
1, 134949, Control_c, 0, 64, 60
1, 134963, Note_on_c, 0, 48, 55
1, 134964, Control_c, 0, 64, 55
1, 134979, Control_c, 0, 64, 55
1, 134994, Control_c, 0, 64, 60
1, 134996, Note_off_c, 0, 56, 61
1, 135009, Control_c, 0, 64, 67
1, 135023, Control_c, 0, 64, 81
1, 135038, Control_c, 0, 64, 117
1, 135052, Note_on_c, 0, 60, 54
1, 135053, Control_c, 0, 64, 127
1, 135059, Note_off_c, 0, 63, 42
1, 135063, Note_off_c, 0, 75, 57
1, 135092, Note_off_c, 0, 60, 63
1, 135132, Note_on_c, 0, 56, 46
1, 135162, Note_off_c, 0, 48, 46
1, 135183, Note_off_c, 0, 68, 55
1, 135207, Note_on_c, 0, 60, 46
1, 135236, Note_off_c, 0, 60, 55
1, 135254, Control_c, 0, 64, 108
1, 135269, Control_c, 0, 64, 81
1, 135284, Control_c, 0, 64, 64
1, 135299, Control_c, 0, 64, 52
1, 135305, Note_on_c, 0, 47, 56
1, 135309, Note_on_c, 0, 74, 74
1, 135310, Note_on_c, 0, 68, 57
1, 135313, Control_c, 0, 64, 27
1, 135328, Control_c, 0, 64, 0
1, 135330, Note_off_c, 0, 56, 48
1, 135338, Note_on_c, 0, 62, 47
1, 135373, Control_c, 0, 64, 16
1, 135387, Control_c, 0, 64, 29
1, 135389, Note_off_c, 0, 62, 0
1, 135389, Note_on_c, 0, 62, 11
1, 135402, Control_c, 0, 64, 43
1, 135417, Control_c, 0, 64, 58
1, 135419, Note_on_c, 0, 59, 38
1, 135432, Control_c, 0, 64, 73
1, 135447, Control_c, 0, 64, 106
1, 135457, Note_off_c, 0, 59, 50
1, 135461, Control_c, 0, 64, 127
1, 135474, Note_on_c, 0, 56, 52
1, 135489, Note_off_c, 0, 62, 51
1, 135491, Note_off_c, 0, 74, 63
1, 135517, Note_off_c, 0, 47, 37
1, 135521, Note_off_c, 0, 68, 59
1, 135551, Note_on_c, 0, 59, 55
1, 135588, Note_off_c, 0, 59, 62
1, 135609, Control_c, 0, 64, 88
1, 135624, Control_c, 0, 64, 69
1, 135639, Control_c, 0, 64, 58
1, 135641, Note_on_c, 0, 48, 52
1, 135646, Note_on_c, 0, 68, 61
1, 135648, Note_on_c, 0, 75, 83
1, 135654, Control_c, 0, 64, 40
1, 135662, Note_on_c, 0, 63, 60
1, 135662, Note_off_c, 0, 56, 45
1, 135669, Control_c, 0, 64, 26
1, 135684, Control_c, 0, 64, 29
1, 135698, Control_c, 0, 64, 37
1, 135713, Control_c, 0, 64, 46
1, 135728, Control_c, 0, 64, 58
1, 135737, Note_on_c, 0, 60, 56
1, 135743, Control_c, 0, 64, 71
1, 135758, Control_c, 0, 64, 127
1, 135782, Note_off_c, 0, 63, 65
1, 135797, Note_off_c, 0, 60, 62
1, 135811, Note_on_c, 0, 56, 51
1, 135843, Note_off_c, 0, 75, 62
1, 135856, Note_off_c, 0, 48, 50
1, 135907, Note_on_c, 0, 60, 47
1, 135950, Note_off_c, 0, 60, 56
1, 135958, Control_c, 0, 64, 85
1, 135960, Note_off_c, 0, 68, 0
1, 135973, Control_c, 0, 64, 68
1, 135976, Note_on_c, 0, 68, 41
1, 135984, Note_on_c, 0, 77, 78
1, 135987, Control_c, 0, 64, 58
1, 136000, Note_on_c, 0, 65, 56
1, 136003, Control_c, 0, 64, 41
1, 136008, Note_off_c, 0, 56, 59
1, 136009, Note_on_c, 0, 49, 59
1, 136018, Control_c, 0, 64, 0
1, 136077, Control_c, 0, 64, 26
1, 136092, Control_c, 0, 64, 39
1, 136103, Note_on_c, 0, 61, 59
1, 136107, Control_c, 0, 64, 55
1, 136122, Control_c, 0, 64, 71
1, 136136, Control_c, 0, 64, 127
1, 136157, Note_off_c, 0, 61, 57
1, 136181, Note_on_c, 0, 56, 61
1, 136192, Note_off_c, 0, 68, 58
1, 136206, Note_off_c, 0, 49, 60
1, 136209, Note_off_c, 0, 65, 37
1, 136260, Note_on_c, 0, 61, 62
1, 136313, Note_off_c, 0, 61, 58
1, 136328, Control_c, 0, 64, 90
1, 136343, Control_c, 0, 64, 69
1, 136355, Note_on_c, 0, 75, 74
1, 136357, Note_on_c, 0, 51, 53
1, 136358, Control_c, 0, 64, 59
1, 136373, Control_c, 0, 64, 41
1, 136374, Note_off_c, 0, 56, 28
1, 136388, Control_c, 0, 64, 0
1, 136420, Note_off_c, 0, 77, 58
1, 136462, Control_c, 0, 64, 25
1, 136465, Note_on_c, 0, 63, 48
1, 136477, Control_c, 0, 64, 40
1, 136492, Control_c, 0, 64, 56
1, 136507, Control_c, 0, 64, 74
1, 136519, Note_off_c, 0, 63, 51
1, 136521, Control_c, 0, 64, 127
1, 136542, Note_on_c, 0, 55, 55
1, 136575, Note_off_c, 0, 51, 63
1, 136620, Note_on_c, 0, 63, 51
1, 136637, Note_off_c, 0, 55, 58
1, 136645, Note_off_c, 0, 75, 49
1, 136651, Note_off_c, 0, 63, 66
1, 136694, Note_on_c, 0, 74, 75
1, 136721, Control_c, 0, 64, 104
1, 136736, Note_on_c, 0, 53, 48
1, 136736, Control_c, 0, 64, 77
1, 136751, Control_c, 0, 64, 64
1, 136766, Control_c, 0, 64, 54
1, 136781, Control_c, 0, 64, 36
1, 136796, Control_c, 0, 64, 21
1, 136811, Control_c, 0, 64, 24
1, 136815, Note_on_c, 0, 65, 50
1, 136826, Control_c, 0, 64, 34
1, 136840, Control_c, 0, 64, 44
1, 136855, Control_c, 0, 64, 56
1, 136870, Control_c, 0, 64, 70
1, 136885, Control_c, 0, 64, 127
1, 136901, Note_off_c, 0, 65, 54
1, 136913, Note_on_c, 0, 56, 53
1, 136969, Note_off_c, 0, 53, 36
1, 137019, Note_on_c, 0, 65, 36
1, 137024, Note_off_c, 0, 56, 58
1, 137094, Note_off_c, 0, 65, 55
1, 137135, Note_on_c, 0, 55, 40
1, 137181, Control_c, 0, 64, 84
1, 137189, Note_on_c, 0, 73, 65
1, 137196, Control_c, 0, 64, 67
1, 137211, Control_c, 0, 64, 56
1, 137225, Control_c, 0, 64, 32
1, 137240, Control_c, 0, 64, 0
1, 137253, Note_off_c, 0, 74, 54
1, 137300, Note_on_c, 0, 67, 38
1, 137314, Control_c, 0, 64, 20
1, 137329, Control_c, 0, 64, 36
1, 137344, Control_c, 0, 64, 52
1, 137344, Note_off_c, 0, 73, 61
1, 137352, Note_off_c, 0, 67, 43
1, 137359, Control_c, 0, 64, 68
1, 137370, Note_on_c, 0, 58, 45
1, 137374, Control_c, 0, 64, 127
1, 137384, Note_on_c, 0, 75, 47
1, 137413, Note_off_c, 0, 55, 54
1, 137441, Note_off_c, 0, 75, 61
1, 137462, Note_on_c, 0, 67, 32
1, 137468, Note_on_c, 0, 73, 53
1, 137469, Note_off_c, 0, 58, 62
1, 137497, Note_off_c, 0, 67, 52
1, 137503, Note_off_c, 0, 73, 62
1, 137529, Note_on_c, 0, 75, 55
1, 137556, Note_off_c, 0, 75, 60
1, 137565, Note_on_c, 0, 51, 60
1, 137585, Note_on_c, 0, 73, 65
1, 137618, Note_off_c, 0, 73, 59
1, 137636, Note_on_c, 0, 75, 71
1, 137654, Note_on_c, 0, 63, 45
1, 137672, Note_off_c, 0, 75, 61
1, 137693, Note_on_c, 0, 73, 67
1, 137705, Note_off_c, 0, 63, 48
1, 137717, Note_on_c, 0, 55, 53
1, 137723, Note_off_c, 0, 73, 62
1, 137738, Note_on_c, 0, 75, 65
1, 137768, Note_off_c, 0, 51, 36
1, 137782, Note_off_c, 0, 55, 58
1, 137786, Note_off_c, 0, 75, 61
1, 137792, Note_on_c, 0, 73, 65
1, 137797, Note_on_c, 0, 63, 47
1, 137824, Note_off_c, 0, 63, 58
1, 137833, Note_off_c, 0, 73, 61
1, 137834, Note_on_c, 0, 75, 62
1, 137885, Note_on_c, 0, 53, 54
1, 137887, Note_off_c, 0, 75, 63
1, 137888, Note_on_c, 0, 73, 63
1, 137915, Control_c, 0, 64, 97
1, 137930, Control_c, 0, 64, 71
1, 137934, Note_on_c, 0, 75, 49
1, 137941, Note_off_c, 0, 73, 59
1, 137945, Control_c, 0, 64, 55
1, 137960, Control_c, 0, 64, 31
1, 137970, Note_on_c, 0, 65, 50
1, 137974, Control_c, 0, 64, 9
1, 137981, Note_off_c, 0, 75, 0
1, 137982, Note_on_c, 0, 73, 26
1, 137989, Control_c, 0, 64, 22
1, 138000, Note_on_c, 0, 75, 54
1, 138004, Control_c, 0, 64, 37
1, 138015, Note_off_c, 0, 65, 61
1, 138019, Control_c, 0, 64, 54
1, 138034, Control_c, 0, 64, 74
1, 138036, Note_off_c, 0, 73, 0
1, 138039, Note_on_c, 0, 56, 56
1, 138048, Control_c, 0, 64, 127
1, 138052, Note_on_c, 0, 73, 50
1, 138066, Note_off_c, 0, 75, 62
1, 138078, Note_off_c, 0, 53, 50
1, 138120, Note_off_c, 0, 56, 63
1, 138127, Note_on_c, 0, 65, 54
1, 138173, Note_off_c, 0, 65, 63
1, 138221, Note_off_c, 0, 73, 63
1, 138223, Note_on_c, 0, 55, 57
1, 138225, Note_on_c, 0, 72, 72
1, 138233, Control_c, 0, 64, 107
1, 138248, Control_c, 0, 64, 74
1, 138263, Control_c, 0, 64, 61
1, 138278, Control_c, 0, 64, 45
1, 138293, Control_c, 0, 64, 12
1, 138307, Control_c, 0, 64, 0
1, 138333, Note_on_c, 0, 67, 52
1, 138337, Control_c, 0, 64, 9
1, 138352, Control_c, 0, 64, 29
1, 138367, Control_c, 0, 64, 46
1, 138382, Control_c, 0, 64, 63
1, 138394, Note_off_c, 0, 67, 56
1, 138394, Note_on_c, 0, 70, 73
1, 138397, Control_c, 0, 64, 111
1, 138412, Control_c, 0, 64, 127
1, 138417, Note_on_c, 0, 58, 44
1, 138429, Note_off_c, 0, 72, 61
1, 138492, Note_on_c, 0, 67, 59
1, 138495, Note_off_c, 0, 55, 60
1, 138516, Note_off_c, 0, 67, 62
1, 138579, Note_off_c, 0, 58, 58
1, 138608, Note_off_c, 0, 70, 38
1, 138687, Note_on_c, 0, 63, 70
1, 138692, Note_on_c, 0, 60, 39
1, 138694, Control_c, 0, 64, 87
1, 138709, Control_c, 0, 64, 67
1, 138723, Control_c, 0, 64, 55
1, 138738, Control_c, 0, 64, 26
1, 138753, Control_c, 0, 64, 0
1, 138756, Note_on_c, 0, 68, 56
1, 138841, Control_c, 0, 64, 36
1, 138856, Control_c, 0, 64, 57
1, 138870, Note_on_c, 0, 75, 47
1, 138871, Control_c, 0, 64, 85
1, 138886, Control_c, 0, 64, 127
1, 138888, Note_off_c, 0, 68, 48
1, 138925, Note_off_c, 0, 75, 59
1, 138950, Note_on_c, 0, 72, 55
1, 139005, Note_off_c, 0, 72, 63
1, 139014, Note_on_c, 0, 75, 65
1, 139037, Note_off_c, 0, 75, 66
1, 139100, Note_on_c, 0, 80, 71
1, 139176, Note_off_c, 0, 80, 57
1, 139180, Note_on_c, 0, 87, 59
1, 139231, Note_off_c, 0, 87, 61
1, 139252, Note_on_c, 0, 84, 61
1, 139310, Note_off_c, 0, 84, 62
1, 139320, Note_on_c, 0, 87, 61
1, 139377, Note_off_c, 0, 87, 64
1, 139390, Note_off_c, 0, 60, 59
1, 139395, Note_on_c, 0, 92, 74
1, 139452, Note_off_c, 0, 92, 63
1, 139489, Note_on_c, 0, 80, 58
1, 139523, Note_off_c, 0, 80, 58
1, 139534, Note_off_c, 0, 63, 37
1, 139568, Note_on_c, 0, 92, 51
1, 139595, Note_off_c, 0, 92, 59
1, 139637, Note_on_c, 0, 80, 51
1, 139687, Control_c, 0, 64, 98
1, 139695, Note_off_c, 0, 80, 59
1, 139702, Control_c, 0, 64, 73
1, 139717, Control_c, 0, 64, 62
1, 139732, Control_c, 0, 64, 53
1, 139735, Note_on_c, 0, 60, 58
1, 139744, Note_on_c, 0, 92, 50
1, 139745, Note_on_c, 0, 56, 51
1, 139746, Control_c, 0, 64, 43
1, 139761, Control_c, 0, 64, 42
1, 139776, Control_c, 0, 64, 51
1, 139789, Note_off_c, 0, 92, 64
1, 139791, Control_c, 0, 64, 61
1, 139806, Control_c, 0, 64, 81
1, 139820, Control_c, 0, 64, 127
1, 139821, Note_on_c, 0, 80, 55
1, 139866, Note_off_c, 0, 80, 60
1, 139884, Note_off_c, 0, 60, 65
1, 139889, Note_off_c, 0, 56, 64
1, 139899, Note_on_c, 0, 92, 63
1, 139936, Note_off_c, 0, 92, 64
1, 139974, Note_on_c, 0, 80, 66
1, 140033, Note_off_c, 0, 80, 59
1, 140063, Note_on_c, 0, 92, 66
1, 140076, Note_on_c, 0, 60, 68
1, 140092, Note_on_c, 0, 56, 58
1, 140128, Note_off_c, 0, 92, 61
1, 140157, Note_on_c, 0, 80, 58
1, 140222, Note_off_c, 0, 80, 58
1, 140236, Note_on_c, 0, 92, 72
1, 140292, Note_off_c, 0, 92, 63
1, 140317, Note_on_c, 0, 80, 72
1, 140329, Note_off_c, 0, 60, 63
1, 140339, Note_off_c, 0, 56, 62
1, 140382, Note_off_c, 0, 80, 54
1, 140390, Note_on_c, 0, 92, 81
1, 140454, Note_off_c, 0, 92, 61
1, 140478, Note_on_c, 0, 80, 70
1, 140548, Note_off_c, 0, 80, 56
1, 140555, Note_on_c, 0, 60, 78
1, 140558, Note_on_c, 0, 92, 77
1, 140570, Note_on_c, 0, 56, 65
1, 140613, Note_off_c, 0, 60, 62
1, 140617, Note_off_c, 0, 92, 62
1, 140647, Note_on_c, 0, 80, 70
1, 140721, Note_off_c, 0, 80, 56
1, 140775, Note_on_c, 0, 65, 77
1, 140781, Note_on_c, 0, 61, 69
1, 140785, Note_on_c, 0, 92, 63
1, 140825, Note_off_c, 0, 56, 55
1, 140837, Control_c, 0, 64, 88
1, 140851, Control_c, 0, 64, 69
1, 140865, Note_off_c, 0, 92, 61
1, 140866, Control_c, 0, 64, 57
1, 140881, Control_c, 0, 64, 34
1, 140883, Note_on_c, 0, 80, 59
1, 140896, Control_c, 0, 64, 0
1, 140950, Note_off_c, 0, 80, 58
1, 140970, Control_c, 0, 64, 8
1, 140978, Note_on_c, 0, 92, 67
1, 140984, Control_c, 0, 64, 31
1, 140999, Control_c, 0, 64, 51
1, 141014, Control_c, 0, 64, 66
1, 141022, Note_off_c, 0, 92, 58
1, 141029, Control_c, 0, 64, 108
1, 141044, Control_c, 0, 64, 127
1, 141061, Note_on_c, 0, 80, 60
1, 141106, Note_off_c, 0, 80, 59
1, 141129, Note_on_c, 0, 92, 69
1, 141136, Note_off_c, 0, 61, 63
1, 141184, Note_off_c, 0, 92, 61
1, 141217, Note_on_c, 0, 80, 66
1, 141267, Note_off_c, 0, 80, 59
1, 141297, Note_on_c, 0, 92, 68
1, 141325, Note_off_c, 0, 92, 67
1, 141376, Note_on_c, 0, 80, 60
1, 141428, Note_off_c, 0, 80, 58
1, 141471, Note_on_c, 0, 92, 67
1, 141481, Note_on_c, 0, 61, 60
1, 141482, Note_on_c, 0, 58, 55
1, 141504, Note_off_c, 0, 92, 61
1, 141555, Note_on_c, 0, 80, 56
1, 141607, Note_off_c, 0, 80, 60
1, 141608, Note_off_c, 0, 65, 37
1, 141643, Note_on_c, 0, 92, 65
1, 141671, Note_off_c, 0, 92, 68
1, 141719, Note_on_c, 0, 80, 63
1, 141767, Note_off_c, 0, 80, 59
1, 141792, Note_on_c, 0, 92, 76
1, 141836, Note_off_c, 0, 92, 62
1, 141870, Note_on_c, 0, 80, 72
1, 141938, Note_off_c, 0, 80, 61
1, 141950, Note_on_c, 0, 92, 85
1, 142012, Note_off_c, 0, 92, 65
1, 142039, Note_on_c, 0, 80, 79
1, 142111, Note_off_c, 0, 80, 62
1, 142121, Note_on_c, 0, 92, 87
1, 142188, Note_off_c, 0, 92, 65
1, 142207, Note_on_c, 0, 80, 80
1, 142281, Note_off_c, 0, 80, 58
1, 142288, Note_on_c, 0, 92, 89
1, 142315, Note_off_c, 0, 58, 51
1, 142356, Note_off_c, 0, 92, 66
1, 142375, Note_on_c, 0, 80, 84
1, 142414, Note_off_c, 0, 61, 39
1, 142459, Note_off_c, 0, 80, 56
1, 142461, Note_on_c, 0, 92, 89
1, 142540, Note_off_c, 0, 92, 64
1, 142549, Note_on_c, 0, 80, 80
1, 142638, Note_on_c, 0, 92, 89
1, 142665, Note_off_c, 0, 80, 62
1, 142749, Note_on_c, 0, 80, 86
1, 142761, Note_off_c, 0, 92, 64
1, 142942, Note_on_c, 0, 63, 42
1, 142947, Note_on_c, 0, 66, 41
1, 143008, Control_c, 0, 64, 103
1, 143023, Control_c, 0, 64, 84
1, 143025, Note_on_c, 0, 92, 88
1, 143038, Control_c, 0, 64, 72
1, 143053, Control_c, 0, 64, 62
1, 143068, Control_c, 0, 64, 48
1, 143082, Control_c, 0, 64, 0
1, 143199, Note_off_c, 0, 80, 59
1, 143217, Control_c, 0, 64, 36
1, 143232, Control_c, 0, 64, 54
1, 143246, Control_c, 0, 64, 67
1, 143261, Control_c, 0, 64, 127
1, 143400, Note_off_c, 0, 63, 53
1, 143479, Note_on_c, 0, 90, 82
1, 143573, Note_off_c, 0, 92, 52
1, 143673, Note_off_c, 0, 66, 49
1, 143682, Note_on_c, 0, 89, 81
1, 143755, Note_off_c, 0, 90, 55
1, 143857, Note_on_c, 0, 63, 45
1, 143861, Control_c, 0, 64, 117
1, 143863, Note_on_c, 0, 60, 43
1, 143875, Control_c, 0, 64, 80
1, 143890, Control_c, 0, 64, 67
1, 143905, Control_c, 0, 64, 57
1, 143920, Control_c, 0, 64, 41
1, 143935, Control_c, 0, 64, 12
1, 143950, Control_c, 0, 64, 0
1, 143979, Control_c, 0, 64, 14
1, 143995, Control_c, 0, 64, 25
1, 144010, Control_c, 0, 64, 38
1, 144024, Control_c, 0, 64, 52
1, 144039, Control_c, 0, 64, 64
1, 144054, Control_c, 0, 64, 84
1, 144063, Note_on_c, 0, 87, 60
1, 144069, Control_c, 0, 64, 122
1, 144081, Note_off_c, 0, 89, 51
1, 144084, Control_c, 0, 64, 127
1, 144129, Note_off_c, 0, 87, 64
1, 144144, Note_on_c, 0, 86, 66
1, 144197, Note_off_c, 0, 63, 63
1, 144233, Note_on_c, 0, 87, 73
1, 144282, Note_off_c, 0, 86, 48
1, 144315, Note_on_c, 0, 89, 74
1, 144355, Note_off_c, 0, 87, 63
1, 144394, Note_off_c, 0, 89, 65
1, 144394, Note_on_c, 0, 90, 78
1, 144478, Note_on_c, 0, 89, 68
1, 144514, Note_off_c, 0, 90, 54
1, 144555, Note_off_c, 0, 60, 39
1, 144563, Note_off_c, 0, 89, 63
1, 144580, Control_c, 0, 64, 107
1, 144581, Note_on_c, 0, 87, 60
1, 144594, Control_c, 0, 64, 82
1, 144608, Note_on_c, 0, 68, 35
1, 144609, Control_c, 0, 64, 68
1, 144611, Note_on_c, 0, 63, 40
1, 144624, Control_c, 0, 64, 57
1, 144639, Control_c, 0, 64, 33
1, 144654, Control_c, 0, 64, 0
1, 144667, Note_off_c, 0, 68, 0
1, 144667, Note_on_c, 0, 68, 8
1, 144669, Note_off_c, 0, 87, 61
1, 144677, Note_on_c, 0, 89, 62
1, 144728, Control_c, 0, 64, 26
1, 144743, Control_c, 0, 64, 41
1, 144758, Control_c, 0, 64, 56
1, 144773, Control_c, 0, 64, 69
1, 144784, Note_on_c, 0, 87, 59
1, 144788, Control_c, 0, 64, 96
1, 144799, Note_off_c, 0, 89, 48
1, 144803, Control_c, 0, 64, 127
1, 144890, Note_on_c, 0, 85, 51
1, 144918, Note_off_c, 0, 87, 45
1, 144976, Note_off_c, 0, 85, 61
1, 145019, Note_on_c, 0, 84, 54
1, 145091, Note_off_c, 0, 84, 54
1, 145112, Note_off_c, 0, 63, 64
1, 145136, Note_on_c, 0, 82, 58
1, 145257, Note_off_c, 0, 82, 57
1, 145270, Note_on_c, 0, 80, 50
1, 145350, Note_off_c, 0, 68, 40
1, 145405, Note_off_c, 0, 80, 53
1, 145428, Note_on_c, 0, 78, 47
1, 145783, Control_c, 0, 64, 114
1, 145797, Control_c, 0, 64, 109
1, 145803, Note_on_c, 0, 61, 24
1, 145812, Control_c, 0, 64, 105
1, 145827, Control_c, 0, 64, 100
1, 145841, Control_c, 0, 64, 95
1, 145856, Control_c, 0, 64, 89
1, 145870, Control_c, 0, 64, 83
1, 145875, Note_on_c, 0, 77, 44
1, 145885, Control_c, 0, 64, 74
1, 145899, Control_c, 0, 64, 66
1, 145914, Note_off_c, 0, 78, 36
1, 145914, Control_c, 0, 64, 58
1, 145929, Control_c, 0, 64, 42
1, 145944, Control_c, 0, 64, 8
1, 145959, Control_c, 0, 64, 0
1, 146062, Control_c, 0, 64, 14
1, 146077, Control_c, 0, 64, 28
1, 146092, Control_c, 0, 64, 38
1, 146107, Control_c, 0, 64, 49
1, 146121, Control_c, 0, 64, 59
1, 146136, Control_c, 0, 64, 67
1, 146151, Control_c, 0, 64, 75
1, 146166, Control_c, 0, 64, 79
1, 146180, Control_c, 0, 64, 82
1, 146186, Note_on_c, 0, 65, 26
1, 146195, Control_c, 0, 64, 84
1, 146201, Note_on_c, 0, 68, 7
1, 146210, Control_c, 0, 64, 87
1, 146225, Control_c, 0, 64, 90
1, 146230, Note_off_c, 0, 65, 48
1, 146239, Control_c, 0, 64, 93
1, 146254, Control_c, 0, 64, 97
1, 146257, Note_off_c, 0, 68, 45
1, 146269, Control_c, 0, 64, 99
1, 146284, Control_c, 0, 64, 102
1, 146299, Control_c, 0, 64, 105
1, 146314, Control_c, 0, 64, 106
1, 146329, Control_c, 0, 64, 107
1, 146344, Control_c, 0, 64, 108
1, 146358, Control_c, 0, 64, 111
1, 146371, Note_on_c, 0, 68, 30
1, 146373, Control_c, 0, 64, 117
1, 146374, Note_on_c, 0, 65, 24
1, 146389, Control_c, 0, 64, 122
1, 146421, Note_off_c, 0, 68, 48
1, 146422, Note_off_c, 0, 65, 52
1, 146456, Control_c, 0, 64, 127
1, 146546, Note_on_c, 0, 65, 31
1, 146549, Note_on_c, 0, 68, 20
1, 146563, Note_off_c, 0, 61, 44
1, 146587, Note_off_c, 0, 65, 51
1, 146596, Note_off_c, 0, 68, 49
1, 146707, Note_on_c, 0, 61, 37
1, 146867, Note_on_c, 0, 68, 31
1, 146877, Note_on_c, 0, 65, 24
1, 146917, Note_off_c, 0, 65, 51
1, 146919, Note_off_c, 0, 68, 44
1, 147026, Note_on_c, 0, 80, 61
1, 147049, Note_on_c, 0, 65, 30
1, 147056, Note_on_c, 0, 68, 22
1, 147098, Note_off_c, 0, 65, 46
1, 147101, Note_off_c, 0, 68, 50
1, 147101, Poly_aftertouch_c, 0, 82, 127
1, 147117, Note_off_c, 0, 77, 47
1, 147204, Note_on_c, 0, 68, 49
1, 147231, Note_on_c, 0, 65, 35
1, 147233, Note_off_c, 0, 61, 46
1, 147248, Note_off_c, 0, 68, 46
1, 147254, Poly_aftertouch_c, 0, 82, 0
1, 147263, Note_off_c, 0, 65, 55
1, 147362, Note_on_c, 0, 61, 51
1, 147525, Note_on_c, 0, 68, 46
1, 147527, Note_on_c, 0, 65, 43
1, 147581, Note_off_c, 0, 68, 56
1, 147581, Note_off_c, 0, 65, 61
1, 147682, Note_on_c, 0, 85, 71
1, 147724, Note_on_c, 0, 65, 38
1, 147730, Note_on_c, 0, 68, 23
1, 147769, Note_off_c, 0, 65, 46
1, 147774, Note_off_c, 0, 68, 49
1, 147824, Note_off_c, 0, 80, 61
1, 147860, Note_off_c, 0, 85, 62
1, 147873, Note_on_c, 0, 65, 36
1, 147891, Note_on_c, 0, 68, 35
1, 148028, Control_c, 0, 64, 122
1, 148042, Control_c, 0, 64, 111
1, 148057, Control_c, 0, 64, 104
1, 148070, Note_on_c, 0, 63, 30
1, 148072, Control_c, 0, 64, 97
1, 148087, Control_c, 0, 64, 90
1, 148102, Control_c, 0, 64, 85
1, 148114, Note_off_c, 0, 68, 16
1, 148116, Control_c, 0, 64, 78
1, 148131, Control_c, 0, 64, 72
1, 148134, Note_on_c, 0, 85, 65
1, 148138, Note_off_c, 0, 61, 34
1, 148146, Control_c, 0, 64, 65
1, 148153, Note_off_c, 0, 65, 46
1, 148161, Control_c, 0, 64, 57
1, 148176, Control_c, 0, 64, 39
1, 148190, Control_c, 0, 64, 0
1, 148294, Control_c, 0, 64, 22
1, 148308, Control_c, 0, 64, 34
1, 148316, Note_on_c, 0, 66, 40
1, 148323, Note_on_c, 0, 68, 21
1, 148323, Control_c, 0, 64, 46
1, 148338, Control_c, 0, 64, 59
1, 148353, Control_c, 0, 64, 74
1, 148367, Note_off_c, 0, 66, 43
1, 148368, Control_c, 0, 64, 90
1, 148371, Note_off_c, 0, 68, 48
1, 148383, Control_c, 0, 64, 94
1, 148397, Control_c, 0, 64, 95
1, 148412, Control_c, 0, 64, 97
1, 148427, Control_c, 0, 64, 101
1, 148442, Control_c, 0, 64, 108
1, 148457, Control_c, 0, 64, 127
1, 148475, Note_on_c, 0, 68, 44
1, 148484, Note_on_c, 0, 66, 44
1, 148514, Note_off_c, 0, 68, 47
1, 148515, Note_off_c, 0, 66, 53
1, 148624, Note_on_c, 0, 66, 46
1, 148629, Note_on_c, 0, 68, 37
1, 148661, Note_off_c, 0, 63, 48
1, 148684, Note_off_c, 0, 66, 43
1, 148687, Note_off_c, 0, 68, 44
1, 148775, Control_c, 0, 64, 119
1, 148791, Control_c, 0, 64, 106
1, 148806, Note_on_c, 0, 63, 35
1, 148806, Control_c, 0, 64, 96
1, 148821, Control_c, 0, 64, 86
1, 148831, Note_on_c, 0, 84, 55
1, 148836, Control_c, 0, 64, 78
1, 148851, Control_c, 0, 64, 69
1, 148865, Control_c, 0, 64, 63
1, 148880, Control_c, 0, 64, 53
1, 148895, Control_c, 0, 64, 35
1, 148907, Note_off_c, 0, 85, 53
1, 148910, Control_c, 0, 64, 0
1, 148969, Control_c, 0, 64, 19
1, 148979, Note_on_c, 0, 66, 38
1, 148983, Control_c, 0, 64, 28
1, 148996, Note_on_c, 0, 68, 23
1, 148998, Control_c, 0, 64, 38
1, 149013, Control_c, 0, 64, 51
1, 149028, Control_c, 0, 64, 65
1, 149039, Note_off_c, 0, 66, 41
1, 149039, Note_off_c, 0, 68, 48
1, 149043, Control_c, 0, 64, 83
1, 149057, Control_c, 0, 64, 102
1, 149072, Control_c, 0, 64, 110
1, 149087, Control_c, 0, 64, 127
1, 149154, Note_on_c, 0, 66, 39
1, 149157, Note_on_c, 0, 68, 36
1, 149199, Note_off_c, 0, 66, 45
1, 149200, Note_off_c, 0, 68, 46
1, 149312, Note_on_c, 0, 66, 46
1, 149317, Note_on_c, 0, 68, 37
1, 149369, Note_off_c, 0, 68, 43
1, 149369, Note_off_c, 0, 66, 57
1, 149371, Note_off_c, 0, 63, 45
1, 149390, Note_off_c, 0, 84, 36
1, 149495, Note_on_c, 0, 63, 47
1, 149661, Note_on_c, 0, 68, 35
1, 149670, Note_on_c, 0, 66, 33
1, 149715, Note_off_c, 0, 68, 43
1, 149717, Note_off_c, 0, 66, 44
1, 149864, Note_on_c, 0, 66, 31
1, 149885, Note_on_c, 0, 68, 21
1, 149922, Note_off_c, 0, 66, 42
1, 149933, Note_off_c, 0, 68, 47
1, 150067, Note_on_c, 0, 66, 32
1, 150070, Note_on_c, 0, 68, 30
1, 150097, Note_off_c, 0, 63, 45
1, 150109, Note_off_c, 0, 66, 48
1, 150162, Note_off_c, 0, 68, 38
1, 150327, Note_on_c, 0, 66, 40
1, 150377, Control_c, 0, 64, 109
1, 150392, Control_c, 0, 64, 101
1, 150407, Note_on_c, 0, 87, 70
1, 150407, Control_c, 0, 64, 92
1, 150422, Control_c, 0, 64, 84
1, 150436, Control_c, 0, 64, 75
1, 150451, Control_c, 0, 64, 67
1, 150466, Control_c, 0, 64, 57
1, 150481, Control_c, 0, 64, 38
1, 150496, Control_c, 0, 64, 0
1, 150585, Control_c, 0, 64, 24
1, 150597, Note_on_c, 0, 75, 35
1, 150600, Control_c, 0, 64, 42
1, 150606, Note_on_c, 0, 72, 27
1, 150615, Control_c, 0, 64, 58
1, 150615, Note_on_c, 0, 68, 23
1, 150629, Control_c, 0, 64, 74
1, 150639, Note_off_c, 0, 75, 48
1, 150644, Control_c, 0, 64, 127
1, 150657, Note_off_c, 0, 72, 45
1, 150673, Note_off_c, 0, 68, 42
1, 150746, Note_on_c, 0, 75, 40
1, 150749, Note_on_c, 0, 68, 38
1, 150782, Note_off_c, 0, 75, 50
1, 150818, Poly_aftertouch_c, 0, 72, 127
1, 150877, Note_off_c, 0, 68, 0
1, 150896, Note_on_c, 0, 68, 27
1, 150898, Note_on_c, 0, 72, 6
1, 150908, Note_on_c, 0, 75, 40
1, 150946, Note_off_c, 0, 66, 42
1, 150951, Note_off_c, 0, 75, 46
1, 150966, Note_off_c, 0, 72, 49
1, 150967, Note_off_c, 0, 68, 57
1, 151062, Note_on_c, 0, 66, 54
1, 151220, Note_on_c, 0, 75, 44
1, 151223, Note_on_c, 0, 68, 40
1, 151230, Note_on_c, 0, 72, 40
1, 151264, Note_off_c, 0, 75, 45
1, 151278, Note_off_c, 0, 72, 43
1, 151292, Note_off_c, 0, 68, 55
1, 151372, Note_on_c, 0, 84, 75
1, 151387, Note_on_c, 0, 68, 38
1, 151387, Note_on_c, 0, 75, 35
1, 151395, Note_on_c, 0, 72, 29
1, 151422, Note_off_c, 0, 75, 51
1, 151433, Note_off_c, 0, 72, 51
1, 151472, Note_off_c, 0, 68, 38
1, 151521, Note_on_c, 0, 75, 52
1, 151524, Note_on_c, 0, 68, 42
1, 151529, Note_on_c, 0, 72, 48
1, 151565, Note_off_c, 0, 87, 31
1, 151575, Note_off_c, 0, 66, 44
1, 151581, Note_off_c, 0, 75, 52
1, 151586, Note_off_c, 0, 72, 54
1, 151603, Note_off_c, 0, 68, 57
1, 151688, Note_on_c, 0, 66, 64
1, 151855, Note_on_c, 0, 75, 49
1, 151857, Note_on_c, 0, 72, 50
1, 151860, Note_on_c, 0, 68, 47
1, 151903, Note_off_c, 0, 75, 44
1, 151904, Note_off_c, 0, 72, 57
1, 151929, Note_off_c, 0, 68, 52
1, 152025, Note_on_c, 0, 80, 78
1, 152029, Note_on_c, 0, 75, 41
1, 152046, Note_on_c, 0, 72, 34
1, 152070, Note_on_c, 0, 68, 25
1, 152075, Note_off_c, 0, 75, 44
1, 152089, Note_off_c, 0, 72, 46
1, 152121, Note_off_c, 0, 68, 43
1, 152142, Note_off_c, 0, 66, 53
1, 152179, Note_on_c, 0, 68, 40
1, 152189, Note_on_c, 0, 75, 46
1, 152192, Note_off_c, 0, 80, 61
1, 152204, Note_on_c, 0, 72, 44
1, 152240, Note_off_c, 0, 75, 49
1, 152252, Note_off_c, 0, 84, 55
1, 152284, Note_off_c, 0, 72, 35
1, 152371, Note_on_c, 0, 65, 40
1, 152380, Control_c, 0, 64, 122
1, 152401, Control_c, 0, 64, 99
1, 152416, Control_c, 0, 64, 87
1, 152431, Note_off_c, 0, 68, 57
1, 152431, Control_c, 0, 64, 77
1, 152437, Note_on_c, 0, 80, 68
1, 152446, Control_c, 0, 64, 67
1, 152461, Control_c, 0, 64, 59
1, 152476, Control_c, 0, 64, 40
1, 152490, Control_c, 0, 64, 0
1, 152580, Control_c, 0, 64, 18
1, 152594, Note_on_c, 0, 68, 38
1, 152595, Control_c, 0, 64, 35
1, 152608, Control_c, 0, 64, 51
1, 152614, Note_on_c, 0, 73, 36
1, 152623, Control_c, 0, 64, 66
1, 152638, Control_c, 0, 64, 91
1, 152653, Control_c, 0, 64, 127
1, 152657, Note_off_c, 0, 73, 49
1, 152669, Note_off_c, 0, 68, 57
1, 152752, Note_on_c, 0, 73, 51
1, 152767, Note_on_c, 0, 68, 42
1, 152787, Note_off_c, 0, 73, 60
1, 152817, Note_off_c, 0, 68, 44
1, 152902, Note_on_c, 0, 73, 48
1, 152909, Note_on_c, 0, 68, 54
1, 152931, Note_off_c, 0, 73, 56
1, 152945, Note_off_c, 0, 65, 44
1, 152955, Note_off_c, 0, 68, 57
1, 153067, Note_on_c, 0, 65, 42
1, 153118, Note_on_c, 0, 85, 67
1, 153128, Control_c, 0, 64, 86
1, 153149, Control_c, 0, 64, 67
1, 153164, Control_c, 0, 64, 59
1, 153179, Control_c, 0, 64, 47
1, 153194, Control_c, 0, 64, 36
1, 153201, Note_off_c, 0, 80, 40
1, 153209, Control_c, 0, 64, 37
1, 153224, Control_c, 0, 64, 44
1, 153238, Control_c, 0, 64, 55
1, 153253, Control_c, 0, 64, 65
1, 153268, Control_c, 0, 64, 86
1, 153270, Note_on_c, 0, 68, 48
1, 153277, Note_on_c, 0, 73, 44
1, 153283, Control_c, 0, 64, 127
1, 153319, Note_off_c, 0, 73, 48
1, 153345, Note_off_c, 0, 68, 56
1, 153418, Note_on_c, 0, 73, 50
1, 153428, Note_on_c, 0, 68, 39
1, 153456, Note_off_c, 0, 73, 62
1, 153465, Note_off_c, 0, 85, 61
1, 153474, Note_off_c, 0, 68, 60
1, 153572, Note_on_c, 0, 73, 48
1, 153576, Note_on_c, 0, 68, 57
1, 153619, Note_off_c, 0, 73, 46
1, 153629, Note_off_c, 0, 68, 54
1, 153635, Note_off_c, 0, 65, 37
1, 153737, Note_on_c, 0, 65, 65
1, 153909, Note_on_c, 0, 73, 49
1, 153912, Note_on_c, 0, 68, 49
1, 153963, Note_off_c, 0, 73, 57
1, 153974, Note_off_c, 0, 68, 52
1, 154073, Note_on_c, 0, 85, 81
1, 154083, Note_on_c, 0, 73, 48
1, 154106, Note_on_c, 0, 68, 47
1, 154125, Note_off_c, 0, 73, 57
1, 154158, Note_off_c, 0, 68, 58
1, 154240, Note_on_c, 0, 73, 54
1, 154252, Note_on_c, 0, 68, 59
1, 154255, Note_off_c, 0, 65, 57
1, 154297, Note_off_c, 0, 85, 61
1, 154356, Note_off_c, 0, 73, 55
1, 154463, Note_on_c, 0, 64, 55
1, 154522, Control_c, 0, 64, 96
1, 154537, Control_c, 0, 64, 70
1, 154540, Note_on_c, 0, 85, 78
1, 154551, Control_c, 0, 64, 57
1, 154553, Note_off_c, 0, 68, 34
1, 154566, Control_c, 0, 64, 33
1, 154581, Control_c, 0, 64, 0
1, 154663, Control_c, 0, 64, 11
1, 154677, Control_c, 0, 64, 41
1, 154692, Control_c, 0, 64, 59
1, 154707, Control_c, 0, 64, 91
1, 154719, Note_on_c, 0, 73, 55
1, 154721, Control_c, 0, 64, 127
1, 154729, Note_on_c, 0, 68, 51
1, 154773, Note_off_c, 0, 73, 57
1, 154803, Note_off_c, 0, 68, 59
1, 154872, Note_on_c, 0, 68, 55
1, 154873, Note_on_c, 0, 73, 68
1, 154928, Note_off_c, 0, 73, 60
1, 154936, Note_off_c, 0, 85, 59
1, 154952, Note_off_c, 0, 68, 59
1, 155021, Note_on_c, 0, 68, 62
1, 155024, Note_on_c, 0, 73, 70
1, 155054, Note_off_c, 0, 64, 57
1, 155087, Note_off_c, 0, 73, 54
1, 155186, Note_on_c, 0, 64, 53
1, 155253, Note_on_c, 0, 85, 81
1, 155279, Note_off_c, 0, 68, 39
1, 155438, Note_on_c, 0, 68, 42
1, 155444, Note_on_c, 0, 73, 45
1, 155485, Note_off_c, 0, 73, 52
1, 155497, Note_off_c, 0, 68, 54
1, 155593, Note_on_c, 0, 73, 47
1, 155614, Note_on_c, 0, 68, 45
1, 155641, Note_off_c, 0, 73, 59
1, 155662, Note_off_c, 0, 68, 45
1, 155768, Note_on_c, 0, 73, 43
1, 155772, Note_on_c, 0, 68, 50
1, 155776, Note_off_c, 0, 64, 53
1, 155913, Note_off_c, 0, 73, 24
1, 155941, Note_on_c, 0, 64, 45
1, 156000, Note_off_c, 0, 68, 39
1, 156039, Note_off_c, 0, 85, 52
1, 156127, Note_on_c, 0, 68, 42
1, 156182, Poly_aftertouch_c, 0, 73, 127
1, 156193, Note_off_c, 0, 68, 42
1, 156237, Poly_aftertouch_c, 0, 73, 0
1, 156347, Note_on_c, 0, 85, 68
1, 156382, Note_on_c, 0, 68, 37
1, 156407, Poly_aftertouch_c, 0, 73, 127
1, 156437, Note_off_c, 0, 68, 43
1, 156444, Poly_aftertouch_c, 0, 73, 0
1, 156557, Note_on_c, 0, 68, 45
1, 156576, Note_on_c, 0, 73, 26
1, 156614, Note_off_c, 0, 64, 35
1, 156664, Note_off_c, 0, 85, 60
1, 156943, Note_on_c, 0, 63, 32
1, 156983, Control_c, 0, 64, 111
1, 156997, Control_c, 0, 64, 99
1, 157012, Control_c, 0, 64, 90
1, 157017, Note_on_c, 0, 85, 49
1, 157027, Control_c, 0, 64, 83
1, 157042, Control_c, 0, 64, 77
1, 157057, Control_c, 0, 64, 69
1, 157063, Note_off_c, 0, 68, 15
1, 157072, Control_c, 0, 64, 63
1, 157087, Control_c, 0, 64, 54
1, 157096, Note_off_c, 0, 73, 43
1, 157102, Control_c, 0, 64, 37
1, 157117, Control_c, 0, 64, 0
1, 157220, Control_c, 0, 64, 13
1, 157235, Control_c, 0, 64, 30
1, 157250, Control_c, 0, 64, 45
1, 157265, Control_c, 0, 64, 58
1, 157279, Control_c, 0, 64, 69
1, 157294, Control_c, 0, 64, 86
1, 157309, Control_c, 0, 64, 100
1, 157323, Control_c, 0, 64, 111
1, 157331, Note_on_c, 0, 71, 20
1, 157338, Control_c, 0, 64, 127
1, 157370, Poly_aftertouch_c, 0, 66, 127
1, 157373, Note_off_c, 0, 71, 52
1, 157463, Poly_aftertouch_c, 0, 66, 0
1, 157486, Note_on_c, 0, 66, 18
1, 157507, Note_on_c, 0, 71, 24
1, 157543, Note_off_c, 0, 71, 55
1, 157564, Note_off_c, 0, 66, 38
1, 157642, Note_on_c, 0, 66, 26
1, 157667, Note_on_c, 0, 71, 37
1, 157710, Note_off_c, 0, 63, 48
1, 157718, Note_off_c, 0, 71, 45
1, 157778, Note_off_c, 0, 66, 36
1, 157838, Note_on_c, 0, 63, 34
1, 157844, Note_on_c, 0, 83, 43
1, 157918, Note_off_c, 0, 85, 53
1, 158009, Note_on_c, 0, 66, 31
1, 158014, Note_on_c, 0, 71, 30
1, 158055, Note_off_c, 0, 71, 50
1, 158057, Note_off_c, 0, 66, 45
1, 158175, Note_on_c, 0, 71, 32
1, 158181, Note_on_c, 0, 66, 29
1, 158215, Note_off_c, 0, 71, 51
1, 158220, Note_off_c, 0, 66, 49
1, 158301, Note_off_c, 0, 83, 36
1, 158340, Note_on_c, 0, 71, 33
1, 158363, Note_off_c, 0, 63, 46
1, 158393, Poly_aftertouch_c, 0, 66, 127
1, 158422, Note_off_c, 0, 71, 39
1, 158451, Poly_aftertouch_c, 0, 66, 0
1, 158499, Note_on_c, 0, 63, 41
1, 158661, Note_on_c, 0, 71, 39
1, 158682, Note_on_c, 0, 66, 23
1, 158709, Note_off_c, 0, 71, 47
1, 158722, Note_off_c, 0, 66, 49
1, 158816, Note_on_c, 0, 83, 56
1, 158851, Note_on_c, 0, 66, 27
1, 158897, Note_off_c, 0, 66, 47
1, 158926, Poly_aftertouch_c, 0, 71, 0
1, 158989, Note_off_c, 0, 83, 65
1, 158998, Note_on_c, 0, 71, 29
1, 159016, Note_off_c, 0, 63, 47
1, 159017, Note_on_c, 0, 66, 37
1, 159068, Note_off_c, 0, 66, 42
1, 159172, Note_on_c, 0, 63, 32
1, 159185, Control_c, 0, 64, 113
1, 159199, Control_c, 0, 64, 96
1, 159214, Control_c, 0, 64, 85
1, 159229, Control_c, 0, 64, 74
1, 159244, Control_c, 0, 64, 64
1, 159256, Note_off_c, 0, 71, 42
1, 159259, Control_c, 0, 64, 50
1, 159261, Note_on_c, 0, 83, 53
1, 159273, Control_c, 0, 64, 24
1, 159288, Control_c, 0, 64, 0
1, 159362, Control_c, 0, 64, 22
1, 159377, Control_c, 0, 64, 37
1, 159391, Control_c, 0, 64, 52
1, 159406, Control_c, 0, 64, 64
1, 159412, Note_on_c, 0, 71, 29
1, 159421, Note_on_c, 0, 66, 32
1, 159421, Control_c, 0, 64, 79
1, 159436, Control_c, 0, 64, 91
1, 159451, Control_c, 0, 64, 93
1, 159459, Note_off_c, 0, 71, 49
1, 159463, Note_off_c, 0, 66, 47
1, 159466, Control_c, 0, 64, 96
1, 159480, Control_c, 0, 64, 100
1, 159495, Control_c, 0, 64, 102
1, 159510, Control_c, 0, 64, 103
1, 159525, Control_c, 0, 64, 103
1, 159584, Note_on_c, 0, 66, 30
1, 159589, Note_on_c, 0, 81, 48
1, 159596, Note_on_c, 0, 71, 24
1, 159628, Note_off_c, 0, 66, 48
1, 159634, Note_off_c, 0, 71, 55
1, 159644, Control_c, 0, 64, 104
1, 159670, Note_off_c, 0, 83, 35
1, 159744, Note_on_c, 0, 71, 34
1, 159745, Note_off_c, 0, 63, 46
1, 159748, Note_on_c, 0, 66, 36
1, 159787, Note_off_c, 0, 71, 47
1, 159791, Note_off_c, 0, 66, 45
1, 159814, Note_off_c, 0, 81, 54
1, 159876, Note_on_c, 0, 63, 41
1, 159995, Note_on_c, 0, 83, 45
1, 160045, Note_on_c, 0, 71, 31
1, 160059, Note_off_c, 0, 83, 60
1, 160059, Note_on_c, 0, 81, 57
1, 160065, Note_on_c, 0, 66, 28
1, 160090, Note_off_c, 0, 71, 48
1, 160106, Note_off_c, 0, 66, 49
1, 160107, Note_off_c, 0, 81, 62
1, 160125, Note_on_c, 0, 80, 63
1, 160199, Note_off_c, 0, 80, 62
1, 160212, Note_on_c, 0, 81, 67
1, 160216, Note_on_c, 0, 66, 44
1, 160217, Note_on_c, 0, 71, 34
1, 160255, Note_off_c, 0, 71, 50
1, 160258, Note_off_c, 0, 66, 45
1, 160354, Note_off_c, 0, 81, 58
1, 160363, Note_on_c, 0, 83, 64
1, 160371, Note_on_c, 0, 71, 32
1, 160373, Note_on_c, 0, 66, 33
1, 160399, Note_off_c, 0, 63, 36
1, 160405, Note_off_c, 0, 66, 52
1, 160410, Note_off_c, 0, 71, 49
1, 160481, Control_c, 0, 64, 103
1, 160496, Control_c, 0, 64, 100
1, 160500, Note_off_c, 0, 83, 65
1, 160511, Control_c, 0, 64, 95
1, 160526, Control_c, 0, 64, 83
1, 160530, Note_on_c, 0, 81, 55
1, 160536, Note_on_c, 0, 63, 44
1, 160540, Control_c, 0, 64, 69
1, 160555, Control_c, 0, 64, 59
1, 160570, Control_c, 0, 64, 42
1, 160585, Control_c, 0, 64, 0
1, 160598, Note_off_c, 0, 81, 61
1, 160616, Note_on_c, 0, 83, 53
1, 160652, Control_c, 0, 64, 12
1, 160666, Control_c, 0, 64, 27
1, 160681, Control_c, 0, 64, 40
1, 160696, Control_c, 0, 64, 56
1, 160711, Control_c, 0, 64, 68
1, 160712, Note_off_c, 0, 83, 63
1, 160715, Note_on_c, 0, 71, 22
1, 160720, Note_on_c, 0, 66, 31
1, 160721, Note_on_c, 0, 85, 53
1, 160726, Control_c, 0, 64, 85
1, 160740, Control_c, 0, 64, 93
1, 160755, Control_c, 0, 64, 95
1, 160766, Note_off_c, 0, 66, 46
1, 160771, Control_c, 0, 64, 98
1, 160773, Note_off_c, 0, 71, 47
1, 160786, Control_c, 0, 64, 99
1, 160801, Control_c, 0, 64, 102
1, 160816, Control_c, 0, 64, 104
1, 160831, Control_c, 0, 64, 105
1, 160860, Control_c, 0, 64, 105
1, 160886, Note_off_c, 0, 85, 52
1, 160908, Note_on_c, 0, 83, 46
1, 160908, Note_on_c, 0, 66, 23
1, 160914, Note_on_c, 0, 71, 29
1, 160953, Note_off_c, 0, 71, 51
1, 160957, Note_off_c, 0, 66, 46
1, 161049, Note_off_c, 0, 83, 48
1, 161067, Control_c, 0, 64, 106
1, 161081, Control_c, 0, 64, 107
1, 161094, Note_on_c, 0, 81, 45
1, 161096, Control_c, 0, 64, 108
1, 161100, Note_on_c, 0, 66, 21
1, 161103, Note_on_c, 0, 71, 30
1, 161126, Control_c, 0, 64, 109
1, 161141, Control_c, 0, 64, 110
1, 161142, Note_off_c, 0, 66, 49
1, 161156, Control_c, 0, 64, 114
1, 161162, Note_off_c, 0, 63, 44
1, 161162, Note_off_c, 0, 71, 45
1, 161163, Note_off_c, 0, 81, 40
1, 161171, Control_c, 0, 64, 117
1, 161186, Control_c, 0, 64, 122
1, 161200, Control_c, 0, 64, 127
1, 161319, Control_c, 0, 64, 111
1, 161334, Control_c, 0, 64, 100
1, 161349, Control_c, 0, 64, 85
1, 161363, Control_c, 0, 64, 72
1, 161367, Note_on_c, 0, 64, 27
1, 161371, Note_on_c, 0, 68, 30
1, 161375, Note_on_c, 0, 71, 21
1, 161385, Control_c, 0, 64, 63
1, 161400, Control_c, 0, 64, 50
1, 161415, Control_c, 0, 64, 21
1, 161425, Note_on_c, 0, 80, 35
1, 161430, Control_c, 0, 64, 0
1, 161484, Note_on_c, 0, 88, 49
1, 161493, Note_off_c, 0, 80, 58
1, 161504, Control_c, 0, 64, 28
1, 161519, Control_c, 0, 64, 46
1, 161534, Control_c, 0, 64, 62
1, 161541, Note_off_c, 0, 88, 57
1, 161549, Control_c, 0, 64, 93
1, 161564, Note_on_c, 0, 83, 56
1, 161564, Control_c, 0, 64, 127
1, 161636, Note_off_c, 0, 83, 64
1, 161640, Note_on_c, 0, 88, 66
1, 161656, Note_off_c, 0, 64, 51
1, 161683, Note_off_c, 0, 71, 51
1, 161706, Note_off_c, 0, 88, 64
1, 161717, Note_on_c, 0, 92, 71
1, 161720, Note_off_c, 0, 68, 38
1, 161773, Note_off_c, 0, 92, 67
1, 161788, Note_on_c, 0, 88, 62
1, 161855, Note_off_c, 0, 88, 64
1, 161873, Note_on_c, 0, 83, 53
1, 161938, Note_on_c, 0, 88, 48
1, 161941, Note_off_c, 0, 83, 64
1, 161962, Note_off_c, 0, 88, 64
1, 162030, Note_on_c, 0, 80, 58
1, 162069, Note_off_c, 0, 80, 61
1, 162113, Note_on_c, 0, 76, 46
1, 162150, Note_off_c, 0, 76, 57
1, 162191, Note_on_c, 0, 71, 50
1, 162209, Control_c, 0, 64, 122
1, 162224, Control_c, 0, 64, 117
1, 162238, Control_c, 0, 64, 115
1, 162249, Note_off_c, 0, 71, 53
1, 162253, Control_c, 0, 64, 111
1, 162268, Control_c, 0, 64, 109
1, 162280, Note_on_c, 0, 76, 43
1, 162283, Control_c, 0, 64, 108
1, 162298, Control_c, 0, 64, 107
1, 162306, Note_off_c, 0, 76, 54
1, 162312, Control_c, 0, 64, 104
1, 162327, Control_c, 0, 64, 101
1, 162342, Control_c, 0, 64, 98
1, 162350, Note_on_c, 0, 68, 46
1, 162358, Control_c, 0, 64, 95
1, 162373, Control_c, 0, 64, 93
1, 162388, Control_c, 0, 64, 91
1, 162403, Control_c, 0, 64, 89
1, 162417, Control_c, 0, 64, 87
1, 162426, Note_off_c, 0, 68, 55
1, 162430, Note_on_c, 0, 64, 51
1, 162432, Control_c, 0, 64, 86
1, 162447, Control_c, 0, 64, 85
1, 162462, Control_c, 0, 64, 84
1, 162476, Note_off_c, 0, 64, 59
1, 162515, Note_on_c, 0, 59, 52
1, 162521, Control_c, 0, 64, 84
1, 162551, Control_c, 0, 64, 83
1, 162557, Note_off_c, 0, 59, 63
1, 162581, Control_c, 0, 64, 83
1, 162595, Note_on_c, 0, 64, 51
1, 162595, Control_c, 0, 64, 82
1, 162610, Control_c, 0, 64, 81
1, 162622, Note_off_c, 0, 64, 62
1, 162625, Control_c, 0, 64, 79
1, 162640, Control_c, 0, 64, 78
1, 162655, Control_c, 0, 64, 76
1, 162670, Control_c, 0, 64, 74
1, 162676, Note_on_c, 0, 56, 62
1, 162684, Control_c, 0, 64, 73
1, 162699, Note_off_c, 0, 56, 68
1, 162699, Control_c, 0, 64, 72
1, 162714, Control_c, 0, 64, 71
1, 162729, Control_c, 0, 64, 70
1, 162743, Control_c, 0, 64, 70
1, 162754, Note_on_c, 0, 52, 56
1, 162813, Note_off_c, 0, 52, 62
1, 162817, Control_c, 0, 64, 69
1, 162849, Note_on_c, 0, 47, 49
1, 162903, Note_off_c, 0, 47, 62
1, 162920, Note_on_c, 0, 52, 65
1, 162929, Control_c, 0, 64, 66
1, 162943, Control_c, 0, 64, 58
1, 162950, Note_off_c, 0, 52, 67
1, 162958, Control_c, 0, 64, 38
1, 162973, Control_c, 0, 64, 0
1, 163007, Note_on_c, 0, 44, 55
1, 163028, Note_on_c, 0, 40, 53
1, 163047, Control_c, 0, 64, 22
1, 163049, Note_off_c, 0, 44, 65
1, 163061, Control_c, 0, 64, 41
1, 163065, Note_on_c, 0, 52, 55
1, 163076, Control_c, 0, 64, 58
1, 163078, Note_off_c, 0, 40, 62
1, 163090, Control_c, 0, 64, 69
1, 163105, Control_c, 0, 64, 81
1, 163120, Control_c, 0, 64, 83
1, 163132, Note_off_c, 0, 52, 63
1, 163135, Control_c, 0, 64, 84
1, 163150, Control_c, 0, 64, 85
1, 163164, Note_on_c, 0, 47, 54
1, 163213, Note_off_c, 0, 47, 63
1, 163247, Note_on_c, 0, 52, 46
1, 163269, Control_c, 0, 64, 83
1, 163272, Note_off_c, 0, 52, 57
1, 163284, Control_c, 0, 64, 77
1, 163299, Control_c, 0, 64, 69
1, 163314, Control_c, 0, 64, 60
1, 163329, Control_c, 0, 64, 41
1, 163343, Note_on_c, 0, 39, 62
1, 163344, Control_c, 0, 64, 0
1, 163348, Note_on_c, 0, 42, 40
1, 163357, Note_on_c, 0, 30, 35
1, 163360, Note_on_c, 0, 35, 35
1, 163382, Note_off_c, 0, 42, 51
1, 163410, Note_off_c, 0, 39, 36
1, 163442, Note_on_c, 0, 47, 47
1, 163462, Control_c, 0, 64, 31
1, 163477, Control_c, 0, 64, 44
1, 163491, Control_c, 0, 64, 56
1, 163500, Note_off_c, 0, 47, 63
1, 163506, Control_c, 0, 64, 64
1, 163517, Note_on_c, 0, 45, 59
1, 163521, Control_c, 0, 64, 68
1, 163576, Note_off_c, 0, 30, 38
1, 163580, Control_c, 0, 64, 66
1, 163587, Note_off_c, 0, 45, 59
1, 163590, Note_on_c, 0, 47, 55
1, 163595, Control_c, 0, 64, 63
1, 163605, Note_off_c, 0, 35, 40
1, 163610, Control_c, 0, 64, 54
1, 163625, Control_c, 0, 64, 33
1, 163645, Note_off_c, 0, 47, 63
1, 163647, Control_c, 0, 64, 0
1, 163669, Note_on_c, 0, 51, 60
1, 163736, Note_off_c, 0, 51, 58
1, 163751, Control_c, 0, 64, 34
1, 163753, Note_on_c, 0, 47, 46
1, 163765, Control_c, 0, 64, 49
1, 163780, Control_c, 0, 64, 62
1, 163795, Control_c, 0, 64, 73
1, 163797, Note_off_c, 0, 47, 62
1, 163810, Control_c, 0, 64, 81
1, 163825, Control_c, 0, 64, 82
1, 163827, Note_on_c, 0, 45, 50
1, 163839, Control_c, 0, 64, 83
1, 163866, Note_off_c, 0, 45, 63
1, 163883, Control_c, 0, 64, 82
1, 163891, Note_on_c, 0, 47, 60
1, 163898, Control_c, 0, 64, 78
1, 163913, Control_c, 0, 64, 69
1, 163925, Note_off_c, 0, 47, 53
1, 163928, Control_c, 0, 64, 59
1, 163943, Control_c, 0, 64, 32
1, 163959, Control_c, 0, 64, 0
1, 163983, Note_on_c, 0, 51, 62
1, 163994, Note_on_c, 0, 35, 42
1, 163994, Note_on_c, 0, 42, 42
1, 164003, Note_on_c, 0, 30, 36
1, 164048, Control_c, 0, 64, 25
1, 164062, Control_c, 0, 64, 42
1, 164077, Control_c, 0, 64, 55
1, 164078, Note_off_c, 0, 51, 60
1, 164092, Control_c, 0, 64, 65
1, 164107, Control_c, 0, 64, 75
1, 164108, Note_on_c, 0, 59, 47
1, 164122, Control_c, 0, 64, 80
1, 164137, Control_c, 0, 64, 83
1, 164152, Control_c, 0, 64, 86
1, 164154, Note_off_c, 0, 59, 60
1, 164157, Note_off_c, 0, 42, 58
1, 164166, Control_c, 0, 64, 90
1, 164173, Note_on_c, 0, 57, 59
1, 164174, Note_off_c, 0, 30, 46
1, 164181, Control_c, 0, 64, 93
1, 164226, Control_c, 0, 64, 92
1, 164234, Note_off_c, 0, 35, 40
1, 164238, Note_off_c, 0, 57, 60
1, 164241, Control_c, 0, 64, 83
1, 164247, Note_on_c, 0, 59, 55
1, 164255, Control_c, 0, 64, 72
1, 164270, Control_c, 0, 64, 62
1, 164285, Control_c, 0, 64, 47
1, 164299, Control_c, 0, 64, 0
1, 164303, Note_off_c, 0, 59, 62
1, 164317, Note_on_c, 0, 63, 66
1, 164381, Control_c, 0, 64, 23
1, 164396, Note_on_c, 0, 59, 53
1, 164396, Control_c, 0, 64, 40
1, 164411, Control_c, 0, 64, 55
1, 164422, Note_off_c, 0, 63, 57
1, 164426, Control_c, 0, 64, 70
1, 164441, Control_c, 0, 64, 84
1, 164456, Control_c, 0, 64, 88
1, 164463, Note_off_c, 0, 59, 61
1, 164467, Note_on_c, 0, 57, 60
1, 164470, Control_c, 0, 64, 90
1, 164485, Control_c, 0, 64, 92
1, 164500, Control_c, 0, 64, 95
1, 164514, Control_c, 0, 64, 95
1, 164537, Note_off_c, 0, 57, 62
1, 164545, Note_on_c, 0, 59, 64
1, 164559, Control_c, 0, 64, 89
1, 164572, Note_off_c, 0, 59, 65
1, 164574, Control_c, 0, 64, 77
1, 164588, Control_c, 0, 64, 66
1, 164603, Control_c, 0, 64, 53
1, 164618, Control_c, 0, 64, 27
1, 164633, Control_c, 0, 64, 0
1, 164649, Note_on_c, 0, 42, 47
1, 164651, Note_on_c, 0, 30, 41
1, 164652, Note_on_c, 0, 35, 43
1, 164652, Note_on_c, 0, 63, 60
1, 164706, Control_c, 0, 64, 22
1, 164721, Control_c, 0, 64, 38
1, 164736, Control_c, 0, 64, 53
1, 164752, Control_c, 0, 64, 65
1, 164754, Note_on_c, 0, 71, 56
1, 164763, Note_off_c, 0, 63, 60
1, 164767, Control_c, 0, 64, 78
1, 164782, Control_c, 0, 64, 85
1, 164797, Control_c, 0, 64, 90
1, 164811, Control_c, 0, 64, 99
1, 164826, Control_c, 0, 64, 117
1, 164828, Note_off_c, 0, 30, 50
1, 164828, Note_off_c, 0, 71, 64
1, 164840, Note_on_c, 0, 69, 58
1, 164841, Control_c, 0, 64, 127
1, 164858, Note_off_c, 0, 42, 57
1, 164904, Note_on_c, 0, 71, 59
1, 164904, Note_off_c, 0, 69, 62
1, 164915, Control_c, 0, 64, 122
1, 164921, Note_off_c, 0, 35, 39
1, 164930, Control_c, 0, 64, 93
1, 164944, Control_c, 0, 64, 74
1, 164959, Control_c, 0, 64, 62
1, 164969, Note_off_c, 0, 71, 64
1, 164974, Control_c, 0, 64, 46
1, 164989, Control_c, 0, 64, 0
1, 164992, Note_on_c, 0, 75, 62
1, 165049, Control_c, 0, 64, 20
1, 165064, Control_c, 0, 64, 35
1, 165078, Control_c, 0, 64, 51
1, 165079, Note_off_c, 0, 75, 60
1, 165080, Note_on_c, 0, 71, 49
1, 165093, Control_c, 0, 64, 64
1, 165108, Control_c, 0, 64, 79
1, 165129, Control_c, 0, 64, 89
1, 165138, Note_off_c, 0, 71, 60
1, 165144, Control_c, 0, 64, 91
1, 165158, Note_on_c, 0, 69, 55
1, 165159, Control_c, 0, 64, 95
1, 165174, Control_c, 0, 64, 105
1, 165189, Control_c, 0, 64, 127
1, 165219, Note_off_c, 0, 69, 61
1, 165247, Note_on_c, 0, 71, 53
1, 165268, Note_off_c, 0, 71, 63
1, 165308, Control_c, 0, 64, 117
1, 165323, Control_c, 0, 64, 97
1, 165338, Control_c, 0, 64, 81
1, 165353, Control_c, 0, 64, 67
1, 165354, Note_on_c, 0, 35, 30
1, 165358, Note_on_c, 0, 32, 28
1, 165361, Note_on_c, 0, 44, 32
1, 165368, Control_c, 0, 64, 56
1, 165383, Control_c, 0, 64, 38
1, 165395, Note_on_c, 0, 76, 51
1, 165398, Control_c, 0, 64, 0
1, 165471, Control_c, 0, 64, 9
1, 165486, Control_c, 0, 64, 28
1, 165497, Note_on_c, 0, 83, 56
1, 165501, Control_c, 0, 64, 44
1, 165516, Control_c, 0, 64, 59
1, 165530, Control_c, 0, 64, 74
1, 165545, Control_c, 0, 64, 91
1, 165553, Note_off_c, 0, 76, 27
1, 165561, Control_c, 0, 64, 96
1, 165561, Note_off_c, 0, 83, 65
1, 165576, Control_c, 0, 64, 100
1, 165576, Note_on_c, 0, 80, 64
1, 165591, Control_c, 0, 64, 105
1, 165606, Control_c, 0, 64, 110
1, 165621, Control_c, 0, 64, 114
1, 165633, Note_on_c, 0, 83, 58
1, 165648, Note_off_c, 0, 80, 61
1, 165692, Note_off_c, 0, 32, 39
1, 165693, Note_off_c, 0, 83, 66
1, 165702, Note_on_c, 0, 88, 70
1, 165705, Note_off_c, 0, 44, 40
1, 165724, Control_c, 0, 64, 111
1, 165739, Control_c, 0, 64, 109
1, 165740, Note_off_c, 0, 35, 39
1, 165753, Control_c, 0, 64, 108
1, 165768, Note_on_c, 0, 83, 63
1, 165783, Control_c, 0, 64, 107
1, 165798, Control_c, 0, 64, 105
1, 165809, Note_off_c, 0, 88, 58
1, 165813, Control_c, 0, 64, 104
1, 165827, Control_c, 0, 64, 103
1, 165842, Control_c, 0, 64, 101
1, 165845, Note_off_c, 0, 83, 65
1, 165847, Note_on_c, 0, 80, 75
1, 165857, Control_c, 0, 64, 100
1, 165879, Control_c, 0, 64, 98
1, 165894, Control_c, 0, 64, 96
1, 165909, Control_c, 0, 64, 94
1, 165924, Control_c, 0, 64, 92
1, 165927, Note_on_c, 0, 83, 68
1, 165935, Note_off_c, 0, 80, 61
1, 165939, Control_c, 0, 64, 90
1, 165953, Control_c, 0, 64, 88
1, 165968, Control_c, 0, 64, 87
1, 165982, Note_off_c, 0, 83, 65
1, 165983, Control_c, 0, 64, 85
1, 165998, Control_c, 0, 64, 83
1, 166013, Control_c, 0, 64, 81
1, 166019, Note_on_c, 0, 76, 62
1, 166027, Control_c, 0, 64, 79
1, 166036, Note_off_c, 0, 76, 68
1, 166042, Control_c, 0, 64, 77
1, 166057, Control_c, 0, 64, 76
1, 166072, Control_c, 0, 64, 76
1, 166086, Control_c, 0, 64, 75
1, 166100, Note_on_c, 0, 71, 67
1, 166101, Control_c, 0, 64, 74
1, 166116, Control_c, 0, 64, 74
1, 166131, Control_c, 0, 64, 73
1, 166146, Control_c, 0, 64, 73
1, 166161, Note_off_c, 0, 71, 63
1, 166161, Control_c, 0, 64, 72
1, 166179, Note_on_c, 0, 68, 63
1, 166190, Control_c, 0, 64, 72
1, 166205, Control_c, 0, 64, 71
1, 166220, Control_c, 0, 64, 70
1, 166235, Control_c, 0, 64, 68
1, 166250, Control_c, 0, 64, 67
1, 166251, Note_on_c, 0, 71, 66
1, 166258, Note_off_c, 0, 68, 59
1, 166265, Control_c, 0, 64, 66
1, 166279, Control_c, 0, 64, 65
1, 166294, Control_c, 0, 64, 64
1, 166295, Note_off_c, 0, 71, 61
1, 166309, Control_c, 0, 64, 62
1, 166324, Control_c, 0, 64, 60
1, 166334, Note_on_c, 0, 64, 61
1, 166339, Control_c, 0, 64, 58
1, 166354, Control_c, 0, 64, 55
1, 166357, Note_off_c, 0, 64, 65
1, 166369, Control_c, 0, 64, 54
1, 166384, Control_c, 0, 64, 53
1, 166399, Control_c, 0, 64, 52
1, 166413, Note_on_c, 0, 59, 56
1, 166414, Control_c, 0, 64, 51
1, 166429, Control_c, 0, 64, 49
1, 166444, Control_c, 0, 64, 47
1, 166458, Control_c, 0, 64, 46
1, 166473, Control_c, 0, 64, 45
1, 166480, Note_off_c, 0, 59, 56
1, 166488, Control_c, 0, 64, 45
1, 166494, Note_on_c, 0, 56, 65
1, 166502, Control_c, 0, 64, 44
1, 166517, Control_c, 0, 64, 42
1, 166532, Control_c, 0, 64, 40
1, 166547, Control_c, 0, 64, 37
1, 166552, Note_off_c, 0, 56, 63
1, 166557, Note_on_c, 0, 59, 52
1, 166562, Control_c, 0, 64, 34
1, 166576, Control_c, 0, 64, 29
1, 166591, Control_c, 0, 64, 24
1, 166606, Control_c, 0, 64, 16
1, 166621, Control_c, 0, 64, 0
1, 166638, Note_off_c, 0, 59, 62
1, 166666, Note_on_c, 0, 52, 66
1, 166721, Note_off_c, 0, 52, 51
1, 166752, Note_on_c, 0, 59, 37
1, 166796, Note_off_c, 0, 59, 61
1, 166817, Note_on_c, 0, 56, 59
1, 166881, Note_off_c, 0, 56, 62
1, 166892, Note_on_c, 0, 59, 55
1, 166944, Note_off_c, 0, 59, 59
1, 166973, Note_on_c, 0, 64, 51
1, 167027, Note_off_c, 0, 64, 53
1, 167040, Note_on_c, 0, 59, 48
1, 167100, Note_off_c, 0, 59, 58
1, 167120, Note_on_c, 0, 56, 58
1, 167175, Note_off_c, 0, 56, 62
1, 167204, Note_on_c, 0, 59, 38
1, 167246, Note_off_c, 0, 59, 52
1, 167251, Control_c, 0, 64, 14
1, 167266, Control_c, 0, 64, 26
1, 167279, Note_on_c, 0, 54, 55
1, 167280, Control_c, 0, 64, 36
1, 167295, Control_c, 0, 64, 46
1, 167305, Note_on_c, 0, 39, 35
1, 167310, Control_c, 0, 64, 57
1, 167311, Note_on_c, 0, 51, 41
1, 167313, Note_on_c, 0, 47, 39
1, 167324, Control_c, 0, 64, 64
1, 167339, Control_c, 0, 64, 68
1, 167354, Control_c, 0, 64, 70
1, 167358, Note_on_c, 0, 59, 39
1, 167369, Control_c, 0, 64, 72
1, 167388, Note_off_c, 0, 54, 49
1, 167392, Control_c, 0, 64, 77
1, 167406, Control_c, 0, 64, 81
1, 167417, Note_off_c, 0, 59, 61
1, 167421, Control_c, 0, 64, 85
1, 167436, Control_c, 0, 64, 88
1, 167438, Note_on_c, 0, 57, 55
1, 167450, Note_off_c, 0, 51, 61
1, 167451, Control_c, 0, 64, 90
1, 167481, Note_off_c, 0, 39, 40
1, 167508, Note_off_c, 0, 57, 61
1, 167522, Note_on_c, 0, 59, 55
1, 167529, Note_off_c, 0, 47, 41
1, 167539, Control_c, 0, 64, 89
1, 167554, Control_c, 0, 64, 83
1, 167569, Control_c, 0, 64, 69
1, 167584, Control_c, 0, 64, 60
1, 167585, Note_off_c, 0, 59, 61
1, 167599, Note_on_c, 0, 66, 66
1, 167599, Control_c, 0, 64, 47
1, 167613, Control_c, 0, 64, 24
1, 167628, Control_c, 0, 64, 0
1, 167643, Control_c, 0, 64, 12
1, 167657, Control_c, 0, 64, 25
1, 167672, Control_c, 0, 64, 41
1, 167675, Note_on_c, 0, 59, 50
1, 167675, Note_off_c, 0, 66, 60
1, 167687, Control_c, 0, 64, 56
1, 167702, Control_c, 0, 64, 69
1, 167717, Control_c, 0, 64, 91
1, 167732, Control_c, 0, 64, 108
1, 167738, Note_off_c, 0, 59, 61
1, 167746, Control_c, 0, 64, 127
1, 167749, Note_on_c, 0, 57, 61
1, 167817, Note_off_c, 0, 57, 61
1, 167826, Note_on_c, 0, 59, 65
1, 167847, Note_off_c, 0, 59, 66
1, 167850, Control_c, 0, 64, 93
1, 167865, Control_c, 0, 64, 74
1, 167880, Control_c, 0, 64, 63
1, 167895, Control_c, 0, 64, 52
1, 167910, Control_c, 0, 64, 29
1, 167924, Control_c, 0, 64, 0
1, 167932, Note_on_c, 0, 39, 40
1, 167934, Note_on_c, 0, 66, 73
1, 167937, Note_on_c, 0, 47, 43
1, 167943, Note_on_c, 0, 51, 38
1, 167970, Control_c, 0, 64, 16
1, 167985, Control_c, 0, 64, 32
1, 168000, Control_c, 0, 64, 46
1, 168015, Control_c, 0, 64, 59
1, 168029, Control_c, 0, 64, 71
1, 168030, Note_on_c, 0, 71, 62
1, 168044, Control_c, 0, 64, 85
1, 168050, Note_off_c, 0, 66, 57
1, 168059, Control_c, 0, 64, 90
1, 168073, Control_c, 0, 64, 92
1, 168075, Note_off_c, 0, 51, 63
1, 168081, Note_off_c, 0, 39, 53
1, 168088, Control_c, 0, 64, 98
1, 168103, Control_c, 0, 64, 108
1, 168104, Note_on_c, 0, 69, 67
1, 168107, Note_off_c, 0, 71, 65
1, 168125, Control_c, 0, 64, 127
1, 168159, Note_off_c, 0, 47, 39
1, 168176, Note_on_c, 0, 71, 64
1, 168181, Note_off_c, 0, 69, 64
1, 168200, Control_c, 0, 64, 119
1, 168214, Control_c, 0, 64, 92
1, 168229, Control_c, 0, 64, 74
1, 168244, Control_c, 0, 64, 61
1, 168255, Note_off_c, 0, 71, 65
1, 168259, Control_c, 0, 64, 48
1, 168259, Note_on_c, 0, 78, 84
1, 168274, Control_c, 0, 64, 25
1, 168288, Control_c, 0, 64, 0
1, 168318, Control_c, 0, 64, 18
1, 168331, Note_on_c, 0, 71, 63
1, 168334, Control_c, 0, 64, 31
1, 168349, Control_c, 0, 64, 43
1, 168350, Note_off_c, 0, 78, 65
1, 168363, Control_c, 0, 64, 57
1, 168378, Control_c, 0, 64, 72
1, 168393, Control_c, 0, 64, 111
1, 168405, Note_on_c, 0, 69, 68
1, 168408, Control_c, 0, 64, 127
1, 168412, Note_off_c, 0, 71, 63
1, 168480, Note_off_c, 0, 69, 64
1, 168483, Note_on_c, 0, 71, 70
1, 168507, Note_off_c, 0, 71, 69
1, 168526, Control_c, 0, 64, 109
1, 168541, Control_c, 0, 64, 78
1, 168555, Control_c, 0, 64, 64
1, 168570, Control_c, 0, 64, 51
1, 168571, Note_on_c, 0, 47, 50
1, 168579, Note_on_c, 0, 39, 47
1, 168585, Control_c, 0, 64, 28
1, 168586, Note_on_c, 0, 51, 45
1, 168594, Note_on_c, 0, 78, 70
1, 168600, Control_c, 0, 64, 0
1, 168644, Control_c, 0, 64, 15
1, 168659, Control_c, 0, 64, 29
1, 168674, Control_c, 0, 64, 42
1, 168688, Note_on_c, 0, 83, 60
1, 168688, Control_c, 0, 64, 58
1, 168696, Note_off_c, 0, 78, 52
1, 168703, Control_c, 0, 64, 75
1, 168718, Control_c, 0, 64, 127
1, 168748, Note_off_c, 0, 39, 59
1, 168756, Note_on_c, 0, 81, 74
1, 168763, Note_off_c, 0, 83, 68
1, 168768, Note_off_c, 0, 51, 63
1, 168804, Note_off_c, 0, 47, 61
1, 168823, Note_on_c, 0, 83, 69
1, 168846, Note_off_c, 0, 81, 61
1, 168916, Note_off_c, 0, 83, 66
1, 168925, Note_on_c, 0, 90, 85
1, 168993, Note_on_c, 0, 83, 62
1, 169025, Note_off_c, 0, 90, 64
1, 169071, Note_on_c, 0, 81, 71
1, 169073, Note_off_c, 0, 83, 65
1, 169137, Note_off_c, 0, 81, 62
1, 169153, Note_on_c, 0, 83, 58
1, 169171, Control_c, 0, 64, 108
1, 169186, Control_c, 0, 64, 83
1, 169198, Note_off_c, 0, 83, 61
1, 169201, Control_c, 0, 64, 65
1, 169216, Control_c, 0, 64, 51
1, 169230, Control_c, 0, 64, 16
1, 169244, Note_on_c, 0, 47, 38
1, 169245, Control_c, 0, 64, 0
1, 169247, Note_on_c, 0, 40, 45
1, 169254, Note_on_c, 0, 52, 38
1, 169278, Note_on_c, 0, 80, 55
1, 169304, Control_c, 0, 64, 11
1, 169319, Control_c, 0, 64, 36
1, 169334, Note_off_c, 0, 40, 64
1, 169334, Control_c, 0, 64, 56
1, 169349, Control_c, 0, 64, 78
1, 169361, Note_off_c, 0, 47, 63
1, 169362, Note_on_c, 0, 92, 61
1, 169364, Control_c, 0, 64, 127
1, 169368, Note_off_c, 0, 52, 63
1, 169384, Note_off_c, 0, 80, 43
1, 169425, Note_off_c, 0, 92, 63
1, 169437, Note_on_c, 0, 83, 57
1, 169509, Note_off_c, 0, 83, 60
1, 169543, Note_on_c, 0, 92, 55
1, 169557, Control_c, 0, 64, 94
1, 169572, Control_c, 0, 64, 70
1, 169582, Note_off_c, 0, 92, 64
1, 169587, Control_c, 0, 64, 59
1, 169601, Control_c, 0, 64, 45
1, 169623, Note_on_c, 0, 64, 29
1, 169624, Control_c, 0, 64, 28
1, 169627, Note_on_c, 0, 52, 44
1, 169637, Note_on_c, 0, 80, 52
1, 169639, Control_c, 0, 64, 30
1, 169653, Control_c, 0, 64, 38
1, 169668, Control_c, 0, 64, 49
1, 169683, Control_c, 0, 64, 64
1, 169693, Note_on_c, 0, 92, 69
1, 169698, Control_c, 0, 64, 84
1, 169711, Note_off_c, 0, 80, 54
1, 169713, Control_c, 0, 64, 127
1, 169740, Note_off_c, 0, 52, 62
1, 169749, Note_off_c, 0, 64, 50
1, 169765, Note_off_c, 0, 92, 63
1, 169785, Note_on_c, 0, 83, 67
1, 169855, Note_on_c, 0, 92, 80
1, 169856, Note_off_c, 0, 83, 64
1, 169922, Note_off_c, 0, 92, 65
1, 169935, Note_on_c, 0, 64, 65
1, 169940, Note_on_c, 0, 80, 82
1, 169947, Note_on_c, 0, 52, 64
1, 169997, Note_off_c, 0, 64, 57
1, 169998, Note_off_c, 0, 52, 61
1, 170009, Note_on_c, 0, 92, 87
1, 170089, Note_off_c, 0, 92, 64
1, 170098, Note_on_c, 0, 83, 77
1, 170117, Note_off_c, 0, 80, 59
1, 170173, Note_off_c, 0, 83, 63
1, 170187, Control_c, 0, 64, 92
1, 170188, Note_on_c, 0, 92, 85
1, 170201, Control_c, 0, 64, 68
1, 170216, Control_c, 0, 64, 55
1, 170231, Control_c, 0, 64, 30
1, 170245, Control_c, 0, 64, 0
1, 170247, Note_off_c, 0, 92, 65
1, 170258, Note_on_c, 0, 52, 49
1, 170259, Note_on_c, 0, 61, 59
1, 170261, Note_on_c, 0, 49, 54
1, 170265, Note_on_c, 0, 81, 80
1, 170290, Control_c, 0, 64, 12
1, 170305, Control_c, 0, 64, 32
1, 170319, Control_c, 0, 64, 49
1, 170333, Note_on_c, 0, 93, 89
1, 170334, Control_c, 0, 64, 69
1, 170350, Control_c, 0, 64, 127
1, 170413, Note_off_c, 0, 81, 34
1, 170418, Note_on_c, 0, 88, 79
1, 170420, Note_off_c, 0, 49, 58
1, 170425, Note_off_c, 0, 93, 62
1, 170426, Note_off_c, 0, 61, 64
1, 170447, Note_off_c, 0, 52, 61
1, 170501, Note_on_c, 0, 93, 85
1, 170507, Note_off_c, 0, 88, 66
1, 170563, Note_off_c, 0, 93, 63
1, 170584, Note_on_c, 0, 81, 81
1, 170593, Note_on_c, 0, 52, 57
1, 170593, Note_on_c, 0, 61, 71
1, 170597, Note_on_c, 0, 49, 58
1, 170659, Note_on_c, 0, 93, 93
1, 170674, Note_off_c, 0, 61, 59
1, 170681, Note_off_c, 0, 49, 62
1, 170734, Note_off_c, 0, 52, 34
1, 170735, Note_on_c, 0, 88, 79
1, 170738, Note_off_c, 0, 93, 61
1, 170762, Note_off_c, 0, 81, 19
1, 170829, Note_on_c, 0, 93, 79
1, 170829, Note_off_c, 0, 88, 65
1, 170862, Control_c, 0, 64, 83
1, 170876, Control_c, 0, 64, 65
1, 170881, Note_off_c, 0, 93, 64
1, 170891, Control_c, 0, 64, 52
1, 170903, Note_on_c, 0, 60, 59
1, 170903, Note_on_c, 0, 82, 82
1, 170906, Control_c, 0, 64, 18
1, 170908, Note_on_c, 0, 48, 54
1, 170921, Note_on_c, 0, 52, 46
1, 170921, Control_c, 0, 64, 0
1, 170950, Control_c, 0, 64, 18
1, 170965, Control_c, 0, 64, 36
1, 170975, Note_on_c, 0, 94, 88
1, 170980, Control_c, 0, 64, 55
1, 170994, Control_c, 0, 64, 79
1, 171009, Control_c, 0, 64, 127
1, 171057, Note_off_c, 0, 94, 66
1, 171061, Note_on_c, 0, 88, 69
1, 171071, Note_off_c, 0, 82, 54
1, 171073, Note_off_c, 0, 48, 58
1, 171079, Note_on_c, 0, 89, 47
1, 171097, Note_off_c, 0, 60, 61
1, 171110, Note_off_c, 0, 89, 34
1, 171112, Note_off_c, 0, 52, 57
1, 171142, Note_on_c, 0, 94, 87
1, 171151, Note_off_c, 0, 88, 65
1, 171216, Note_off_c, 0, 94, 66
1, 171226, Note_on_c, 0, 82, 80
1, 171249, Note_on_c, 0, 60, 66
1, 171253, Note_on_c, 0, 52, 62
1, 171265, Note_on_c, 0, 48, 59
1, 171294, Note_on_c, 0, 94, 87
1, 171343, Note_off_c, 0, 60, 58
1, 171379, Note_off_c, 0, 48, 37
1, 171381, Note_off_c, 0, 94, 66
1, 171383, Note_on_c, 0, 88, 71
1, 171401, Note_off_c, 0, 52, 35
1, 171421, Note_off_c, 0, 82, 38
1, 171455, Note_on_c, 0, 94, 87
1, 171473, Note_off_c, 0, 88, 63
1, 171520, Control_c, 0, 64, 86
1, 171535, Control_c, 0, 64, 66
1, 171541, Note_off_c, 0, 94, 66
1, 171550, Control_c, 0, 64, 54
1, 171555, Note_on_c, 0, 83, 81
1, 171560, Note_on_c, 0, 59, 69
1, 171562, Note_on_c, 0, 52, 60
1, 171564, Control_c, 0, 64, 31
1, 171570, Note_on_c, 0, 47, 62
1, 171579, Control_c, 0, 64, 0
1, 171594, Control_c, 0, 64, 8
1, 171609, Control_c, 0, 64, 26
1, 171623, Control_c, 0, 64, 40
1, 171627, Note_on_c, 0, 95, 85
1, 171638, Control_c, 0, 64, 57
1, 171653, Control_c, 0, 64, 79
1, 171668, Control_c, 0, 64, 127
1, 171705, Note_on_c, 0, 88, 81
1, 171717, Note_off_c, 0, 95, 64
1, 171720, Note_off_c, 0, 59, 53
1, 171724, Note_off_c, 0, 47, 58
1, 171750, Note_off_c, 0, 52, 64
1, 171774, Note_off_c, 0, 83, 44
1, 171793, Note_on_c, 0, 95, 79
1, 171803, Note_off_c, 0, 88, 64
1, 171871, Note_off_c, 0, 95, 64
1, 171881, Note_on_c, 0, 83, 83
1, 171897, Note_on_c, 0, 47, 60
1, 171897, Note_on_c, 0, 59, 66
1, 171906, Note_on_c, 0, 52, 60
1, 171964, Note_on_c, 0, 95, 92
1, 171968, Note_off_c, 0, 59, 56
1, 172021, Note_off_c, 0, 47, 37
1, 172025, Note_off_c, 0, 52, 52
1, 172036, Note_on_c, 0, 88, 79
1, 172047, Note_off_c, 0, 95, 63
1, 172094, Note_off_c, 0, 83, 45
1, 172136, Note_on_c, 0, 95, 79
1, 172164, Note_off_c, 0, 88, 61
1, 172181, Control_c, 0, 64, 105
1, 172195, Control_c, 0, 64, 72
1, 172209, Note_off_c, 0, 95, 66
1, 172210, Control_c, 0, 64, 61
1, 172225, Note_on_c, 0, 84, 89
1, 172225, Control_c, 0, 64, 51
1, 172238, Note_on_c, 0, 56, 60
1, 172240, Control_c, 0, 64, 48
1, 172244, Note_on_c, 0, 44, 54
1, 172254, Control_c, 0, 64, 54
1, 172267, Note_on_c, 0, 52, 49
1, 172269, Control_c, 0, 64, 62
1, 172284, Control_c, 0, 64, 78
1, 172296, Note_on_c, 0, 96, 91
1, 172299, Control_c, 0, 64, 127
1, 172343, Note_off_c, 0, 44, 58
1, 172382, Note_off_c, 0, 52, 55
1, 172391, Note_on_c, 0, 88, 77
1, 172394, Note_off_c, 0, 96, 59
1, 172399, Note_off_c, 0, 56, 55
1, 172432, Note_off_c, 0, 84, 46
1, 172453, Note_off_c, 0, 88, 65
1, 172455, Note_on_c, 0, 96, 51
1, 172481, Note_off_c, 0, 96, 54
1, 172566, Control_c, 0, 64, 93
1, 172581, Control_c, 0, 64, 69
1, 172584, Note_on_c, 0, 56, 55
1, 172595, Note_on_c, 0, 72, 76
1, 172595, Control_c, 0, 64, 55
1, 172608, Note_on_c, 0, 64, 37
1, 172617, Control_c, 0, 64, 27
1, 172626, Note_on_c, 0, 68, 37
1, 172632, Control_c, 0, 64, 0
1, 172665, Note_off_c, 0, 64, 0
1, 172665, Note_on_c, 0, 64, 3
1, 172692, Control_c, 0, 64, 30
1, 172698, Note_on_c, 0, 84, 86
1, 172707, Control_c, 0, 64, 47
1, 172721, Control_c, 0, 64, 64
1, 172736, Control_c, 0, 64, 127
1, 172777, Note_on_c, 0, 76, 82
1, 172793, Note_off_c, 0, 84, 58
1, 172805, Note_off_c, 0, 72, 57
1, 172823, Note_off_c, 0, 56, 36
1, 172824, Note_off_c, 0, 64, 48
1, 172826, Note_off_c, 0, 68, 40
1, 172881, Note_on_c, 0, 84, 77
1, 172890, Note_off_c, 0, 76, 62
1, 172945, Note_off_c, 0, 84, 62
1, 172982, Note_on_c, 0, 64, 35
1, 172988, Control_c, 0, 64, 91
1, 172990, Note_on_c, 0, 69, 43
1, 172990, Note_on_c, 0, 57, 43
1, 173001, Note_on_c, 0, 73, 63
1, 173003, Control_c, 0, 64, 72
1, 173017, Control_c, 0, 64, 57
1, 173032, Control_c, 0, 64, 31
1, 173047, Control_c, 0, 64, 0
1, 173112, Note_on_c, 0, 85, 73
1, 173136, Control_c, 0, 64, 23
1, 173151, Control_c, 0, 64, 43
1, 173166, Control_c, 0, 64, 59
1, 173181, Control_c, 0, 64, 79
1, 173195, Control_c, 0, 64, 127
1, 173230, Note_off_c, 0, 57, 59
1, 173231, Note_on_c, 0, 76, 72
1, 173233, Note_off_c, 0, 69, 56
1, 173249, Note_off_c, 0, 73, 58
1, 173255, Note_off_c, 0, 85, 57
1, 173325, Note_off_c, 0, 64, 47
1, 173371, Note_on_c, 0, 85, 80
1, 173499, Note_off_c, 0, 76, 59
1, 173532, Note_off_c, 0, 85, 55
1, 173866, Note_on_c, 0, 85, 69
1, 173885, Control_c, 0, 64, 108
1, 173899, Control_c, 0, 64, 93
1, 173914, Control_c, 0, 64, 85
1, 173929, Control_c, 0, 64, 78
1, 173944, Control_c, 0, 64, 72
1, 173959, Control_c, 0, 64, 66
1, 173974, Control_c, 0, 64, 60
1, 173988, Control_c, 0, 64, 52
1, 174003, Control_c, 0, 64, 39
1, 174018, Control_c, 0, 64, 20
1, 174033, Control_c, 0, 64, 0
1, 174211, Note_on_c, 0, 69, 32
1, 174292, Control_c, 0, 64, 10
1, 174307, Control_c, 0, 64, 21
1, 174322, Control_c, 0, 64, 30
1, 174337, Control_c, 0, 64, 40
1, 174352, Control_c, 0, 64, 52
1, 174367, Control_c, 0, 64, 61
1, 174382, Control_c, 0, 64, 67
1, 174397, Control_c, 0, 64, 72
1, 174412, Control_c, 0, 64, 74
1, 174419, Note_on_c, 0, 57, 35
1, 174427, Control_c, 0, 64, 77
1, 174441, Control_c, 0, 64, 83
1, 174456, Control_c, 0, 64, 92
1, 174471, Control_c, 0, 64, 99
1, 174486, Control_c, 0, 64, 108
1, 174501, Control_c, 0, 64, 117
1, 174515, Control_c, 0, 64, 127
1, 174525, Note_off_c, 0, 69, 40
1, 174557, Note_off_c, 0, 85, 63
1, 174560, Note_off_c, 0, 57, 52
1, 174588, Note_on_c, 0, 73, 43
1, 174738, Note_on_c, 0, 83, 68
1, 174780, Note_off_c, 0, 73, 35
1, 174782, Control_c, 0, 64, 117
1, 174796, Control_c, 0, 64, 111
1, 174811, Control_c, 0, 64, 107
1, 174826, Control_c, 0, 64, 101
1, 174841, Control_c, 0, 64, 94
1, 174856, Control_c, 0, 64, 87
1, 174878, Control_c, 0, 64, 80
1, 174893, Control_c, 0, 64, 73
1, 174908, Control_c, 0, 64, 66
1, 174922, Control_c, 0, 64, 59
1, 174924, Note_on_c, 0, 68, 49
1, 174937, Control_c, 0, 64, 43
1, 174952, Control_c, 0, 64, 9
1, 174967, Control_c, 0, 64, 0
1, 175071, Control_c, 0, 64, 20
1, 175083, Note_on_c, 0, 56, 48
1, 175086, Control_c, 0, 64, 34
1, 175101, Control_c, 0, 64, 46
1, 175115, Control_c, 0, 64, 61
1, 175130, Control_c, 0, 64, 71
1, 175146, Control_c, 0, 64, 83
1, 175161, Control_c, 0, 64, 86
1, 175176, Control_c, 0, 64, 90
1, 175191, Control_c, 0, 64, 97
1, 175206, Control_c, 0, 64, 109
1, 175214, Note_off_c, 0, 56, 54
1, 175220, Control_c, 0, 64, 127
1, 175227, Note_on_c, 0, 71, 59
1, 175237, Note_off_c, 0, 68, 39
1, 175400, Note_on_c, 0, 81, 76
1, 175403, Note_off_c, 0, 71, 28
1, 175472, Control_c, 0, 64, 115
1, 175487, Control_c, 0, 64, 104
1, 175502, Control_c, 0, 64, 93
1, 175517, Control_c, 0, 64, 84
1, 175531, Control_c, 0, 64, 76
1, 175533, Note_off_c, 0, 83, 37
1, 175546, Control_c, 0, 64, 68
1, 175561, Control_c, 0, 64, 60
1, 175565, Note_on_c, 0, 66, 56
1, 175576, Control_c, 0, 64, 44
1, 175590, Control_c, 0, 64, 0
1, 175717, Control_c, 0, 64, 21
1, 175732, Control_c, 0, 64, 37
1, 175743, Note_on_c, 0, 54, 49
1, 175746, Control_c, 0, 64, 51
1, 175761, Control_c, 0, 64, 63
1, 175776, Control_c, 0, 64, 76
1, 175790, Control_c, 0, 64, 88
1, 175805, Control_c, 0, 64, 93
1, 175820, Control_c, 0, 64, 100
1, 175835, Control_c, 0, 64, 117
1, 175850, Control_c, 0, 64, 127
1, 175893, Note_off_c, 0, 54, 52
1, 175900, Note_on_c, 0, 82, 75
1, 175912, Note_off_c, 0, 66, 59
1, 175923, Note_off_c, 0, 81, 58
1, 176127, Note_on_c, 0, 83, 73
1, 176132, Control_c, 0, 64, 108
1, 176147, Control_c, 0, 64, 95
1, 176162, Control_c, 0, 64, 83
1, 176176, Control_c, 0, 64, 76
1, 176191, Control_c, 0, 64, 70
1, 176199, Note_off_c, 0, 82, 39
1, 176206, Control_c, 0, 64, 66
1, 176221, Control_c, 0, 64, 62
1, 176236, Control_c, 0, 64, 56
1, 176251, Control_c, 0, 64, 42
1, 176266, Control_c, 0, 64, 0
1, 176311, Note_on_c, 0, 68, 43
1, 176436, Control_c, 0, 64, 21
1, 176451, Control_c, 0, 64, 35
1, 176466, Control_c, 0, 64, 49
1, 176481, Control_c, 0, 64, 60
1, 176489, Note_on_c, 0, 56, 45
1, 176495, Control_c, 0, 64, 69
1, 176510, Control_c, 0, 64, 75
1, 176525, Control_c, 0, 64, 76
1, 176540, Control_c, 0, 64, 76
1, 176555, Control_c, 0, 64, 80
1, 176569, Control_c, 0, 64, 87
1, 176584, Control_c, 0, 64, 98
1, 176593, Note_off_c, 0, 68, 55
1, 176599, Control_c, 0, 64, 110
1, 176613, Control_c, 0, 64, 127
1, 176615, Note_off_c, 0, 83, 37
1, 176618, Note_off_c, 0, 56, 0
1, 176642, Poly_aftertouch_c, 0, 56, 0
1, 176652, Note_on_c, 0, 71, 45
1, 176823, Note_on_c, 0, 81, 70
1, 176866, Control_c, 0, 64, 122
1, 176881, Control_c, 0, 64, 115
1, 176896, Control_c, 0, 64, 110
1, 176910, Control_c, 0, 64, 106
1, 176925, Control_c, 0, 64, 101
1, 176940, Control_c, 0, 64, 95
1, 176955, Control_c, 0, 64, 88
1, 176970, Control_c, 0, 64, 82
1, 176972, Note_off_c, 0, 71, 32
1, 176984, Control_c, 0, 64, 76
1, 176999, Control_c, 0, 64, 70
1, 177005, Note_on_c, 0, 66, 53
1, 177014, Control_c, 0, 64, 64
1, 177029, Control_c, 0, 64, 54
1, 177044, Control_c, 0, 64, 34
1, 177059, Control_c, 0, 64, 0
1, 177155, Control_c, 0, 64, 14
1, 177170, Control_c, 0, 64, 30
1, 177171, Note_on_c, 0, 54, 44
1, 177184, Control_c, 0, 64, 44
1, 177199, Control_c, 0, 64, 59
1, 177214, Control_c, 0, 64, 72
1, 177229, Control_c, 0, 64, 98
1, 177244, Control_c, 0, 64, 127
1, 177294, Note_off_c, 0, 81, 57
1, 177309, Note_off_c, 0, 66, 37
1, 177345, Note_off_c, 0, 54, 39
1, 177347, Note_on_c, 0, 69, 47
1, 177399, Note_off_c, 0, 69, 59
1, 177524, Control_c, 0, 64, 97
1, 177540, Control_c, 0, 64, 77
1, 177555, Control_c, 0, 64, 64
1, 177570, Control_c, 0, 64, 52
1, 177573, Note_on_c, 0, 80, 63
1, 177585, Control_c, 0, 64, 29
1, 177591, Note_on_c, 0, 53, 34
1, 177595, Note_on_c, 0, 65, 25
1, 177598, Note_on_c, 0, 68, 36
1, 177600, Control_c, 0, 64, 0
1, 177644, Control_c, 0, 64, 19
1, 177658, Control_c, 0, 64, 30
1, 177673, Control_c, 0, 64, 43
1, 177688, Control_c, 0, 64, 60
1, 177703, Control_c, 0, 64, 76
1, 177718, Control_c, 0, 64, 127
1, 177736, Note_off_c, 0, 65, 46
1, 177740, Note_off_c, 0, 53, 42
1, 177810, Note_off_c, 0, 80, 60
1, 177837, Note_off_c, 0, 68, 41
1, 177992, Control_c, 0, 64, 106
1, 178007, Control_c, 0, 64, 83
1, 178022, Control_c, 0, 64, 69
1, 178037, Control_c, 0, 64, 58
1, 178042, Note_on_c, 0, 79, 54
1, 178051, Note_on_c, 0, 64, 33
1, 178051, Control_c, 0, 64, 40
1, 178059, Note_on_c, 0, 67, 35
1, 178062, Note_on_c, 0, 52, 27
1, 178066, Control_c, 0, 64, 0
1, 178140, Control_c, 0, 64, 22
1, 178155, Control_c, 0, 64, 36
1, 178170, Control_c, 0, 64, 53
1, 178184, Control_c, 0, 64, 67
1, 178199, Control_c, 0, 64, 93
1, 178214, Control_c, 0, 64, 127
1, 178257, Note_off_c, 0, 64, 42
1, 178266, Note_off_c, 0, 52, 53
1, 178306, Note_off_c, 0, 67, 40
1, 178332, Note_off_c, 0, 79, 35
1, 178726, Control_c, 0, 64, 119
1, 178741, Control_c, 0, 64, 111
1, 178756, Control_c, 0, 64, 107
1, 178770, Control_c, 0, 64, 103
1, 178785, Control_c, 0, 64, 100
1, 178800, Control_c, 0, 64, 97
1, 178815, Control_c, 0, 64, 94
1, 178830, Control_c, 0, 64, 91
1, 178845, Control_c, 0, 64, 88
1, 178860, Control_c, 0, 64, 85
1, 178868, Note_on_c, 0, 63, 33
1, 178869, Note_on_c, 0, 79, 37
1, 178875, Control_c, 0, 64, 81
1, 178884, Note_on_c, 0, 51, 21
1, 178887, Note_on_c, 0, 67, 26
1, 178889, Control_c, 0, 64, 78
1, 178904, Control_c, 0, 64, 75
1, 178919, Control_c, 0, 64, 72
1, 178934, Control_c, 0, 64, 69
1, 178949, Control_c, 0, 64, 66
1, 178964, Control_c, 0, 64, 64
1, 178979, Control_c, 0, 64, 62
1, 178993, Control_c, 0, 64, 58
1, 179008, Control_c, 0, 64, 52
1, 179023, Control_c, 0, 64, 46
1, 179038, Control_c, 0, 64, 43
1, 179053, Control_c, 0, 64, 42
1, 179068, Control_c, 0, 64, 41
1, 179082, Control_c, 0, 64, 40
1, 179097, Control_c, 0, 64, 39
1, 179112, Control_c, 0, 64, 37
1, 179128, Control_c, 0, 64, 35
1, 179142, Control_c, 0, 64, 32
1, 179157, Control_c, 0, 64, 30
1, 179172, Control_c, 0, 64, 28
1, 179187, Control_c, 0, 64, 26
1, 179202, Control_c, 0, 64, 25
1, 179217, Control_c, 0, 64, 23
1, 179231, Control_c, 0, 64, 20
1, 179246, Control_c, 0, 64, 18
1, 179261, Control_c, 0, 64, 14
1, 179276, Control_c, 0, 64, 8
1, 179291, Control_c, 0, 64, 0
1, 179727, Control_c, 0, 64, 11
1, 179742, Control_c, 0, 64, 16
1, 179757, Control_c, 0, 64, 20
1, 179771, Control_c, 0, 64, 24
1, 179786, Control_c, 0, 64, 28
1, 179801, Control_c, 0, 64, 34
1, 179816, Control_c, 0, 64, 41
1, 179831, Control_c, 0, 64, 48
1, 179846, Control_c, 0, 64, 56
1, 179861, Control_c, 0, 64, 62
1, 179876, Control_c, 0, 64, 66
1, 179891, Control_c, 0, 64, 70
1, 179905, Control_c, 0, 64, 76
1, 179920, Control_c, 0, 64, 86
1, 179935, Control_c, 0, 64, 103
1, 179950, Control_c, 0, 64, 127
1, 180040, Note_off_c, 0, 51, 52
1, 180061, Note_off_c, 0, 67, 42
1, 180072, Note_off_c, 0, 63, 45
1, 180073, Note_off_c, 0, 79, 42
1, 180461, Control_c, 0, 64, 113
1, 180476, Control_c, 0, 64, 82
1, 180490, Note_on_c, 0, 80, 52
1, 180491, Control_c, 0, 64, 69
1, 180506, Control_c, 0, 64, 61
1, 180509, Note_on_c, 0, 65, 30
1, 180521, Control_c, 0, 64, 48
1, 180523, Note_on_c, 0, 68, 23
1, 180527, Note_on_c, 0, 53, 27
1, 180535, Control_c, 0, 64, 30
1, 180550, Control_c, 0, 64, 22
1, 180565, Control_c, 0, 64, 26
1, 180579, Control_c, 0, 64, 34
1, 180594, Control_c, 0, 64, 43
1, 180609, Control_c, 0, 64, 55
1, 180624, Control_c, 0, 64, 66
1, 180639, Control_c, 0, 64, 91
1, 180654, Control_c, 0, 64, 127
1, 180694, Note_off_c, 0, 53, 44
1, 180716, Note_off_c, 0, 65, 43
1, 180731, Note_off_c, 0, 68, 41
1, 180764, Note_off_c, 0, 80, 57
1, 180899, Control_c, 0, 64, 95
1, 180914, Control_c, 0, 64, 81
1, 180929, Control_c, 0, 64, 71
1, 180944, Control_c, 0, 64, 61
1, 180958, Control_c, 0, 64, 50
1, 180973, Note_on_c, 0, 82, 57
1, 180973, Control_c, 0, 64, 34
1, 180986, Note_on_c, 0, 55, 31
1, 180988, Control_c, 0, 64, 26
1, 180997, Note_on_c, 0, 70, 42
1, 181003, Control_c, 0, 64, 28
1, 181009, Note_on_c, 0, 67, 23
1, 181017, Control_c, 0, 64, 34
1, 181032, Control_c, 0, 64, 42
1, 181047, Control_c, 0, 64, 56
1, 181062, Control_c, 0, 64, 69
1, 181077, Control_c, 0, 64, 127
1, 181096, Note_off_c, 0, 70, 57
1, 181102, Note_off_c, 0, 55, 55
1, 181125, Note_off_c, 0, 67, 47
1, 181192, Note_off_c, 0, 82, 62
1, 181196, Control_c, 0, 64, 122
1, 181210, Control_c, 0, 64, 80
1, 181225, Control_c, 0, 64, 65
1, 181240, Control_c, 0, 64, 53
1, 181255, Control_c, 0, 64, 39
1, 181259, Note_on_c, 0, 84, 74
1, 181270, Control_c, 0, 64, 34
1, 181273, Note_on_c, 0, 56, 44
1, 181283, Note_on_c, 0, 72, 39
1, 181284, Control_c, 0, 64, 37
1, 181296, Note_on_c, 0, 68, 20
1, 181299, Control_c, 0, 64, 44
1, 181314, Control_c, 0, 64, 53
1, 181328, Control_c, 0, 64, 66
1, 181335, Note_off_c, 0, 56, 55
1, 181343, Control_c, 0, 64, 93
1, 181357, Note_off_c, 0, 68, 43
1, 181358, Control_c, 0, 64, 127
1, 181390, Note_off_c, 0, 72, 43
1, 181432, Control_c, 0, 64, 108
1, 181447, Control_c, 0, 64, 80
1, 181462, Control_c, 0, 64, 65
1, 181477, Control_c, 0, 64, 51
1, 181485, Note_on_c, 0, 85, 76
1, 181491, Control_c, 0, 64, 23
1, 181497, Note_on_c, 0, 58, 40
1, 181501, Note_on_c, 0, 73, 59
1, 181502, Note_on_c, 0, 70, 45
1, 181506, Control_c, 0, 64, 0
1, 181518, Note_off_c, 0, 84, 50
1, 181552, Control_c, 0, 64, 16
1, 181567, Control_c, 0, 64, 32
1, 181572, Note_off_c, 0, 70, 57
1, 181581, Control_c, 0, 64, 47
1, 181596, Control_c, 0, 64, 63
1, 181608, Note_off_c, 0, 58, 56
1, 181619, Control_c, 0, 64, 127
1, 181637, Note_off_c, 0, 73, 57
1, 181694, Note_off_c, 0, 85, 59
1, 181766, Control_c, 0, 64, 87
1, 181781, Control_c, 0, 64, 71
1, 181796, Control_c, 0, 64, 61
1, 181811, Control_c, 0, 64, 42
1, 181813, Note_on_c, 0, 87, 60
1, 181817, Note_on_c, 0, 60, 31
1, 181825, Control_c, 0, 64, 0
1, 181830, Note_on_c, 0, 75, 35
1, 181832, Note_on_c, 0, 72, 24
1, 181915, Control_c, 0, 64, 11
1, 181930, Control_c, 0, 64, 30
1, 181945, Control_c, 0, 64, 43
1, 181959, Control_c, 0, 64, 57
1, 181974, Control_c, 0, 64, 69
1, 181989, Control_c, 0, 64, 86
1, 182001, Note_off_c, 0, 60, 38
1, 182004, Control_c, 0, 64, 95
1, 182019, Control_c, 0, 64, 96
1, 182019, Note_off_c, 0, 72, 42
1, 182031, Note_off_c, 0, 75, 50
1, 182033, Control_c, 0, 64, 97
1, 182093, Control_c, 0, 64, 97
1, 182107, Control_c, 0, 64, 96
1, 182109, Note_off_c, 0, 87, 35
1, 182122, Control_c, 0, 64, 95
1, 182137, Control_c, 0, 64, 94
1, 182151, Control_c, 0, 64, 93
1, 182181, Control_c, 0, 64, 92
1, 182196, Control_c, 0, 64, 91
1, 182211, Control_c, 0, 64, 90
1, 182225, Control_c, 0, 64, 88
1, 182240, Control_c, 0, 64, 88
1, 182255, Control_c, 0, 64, 87
1, 182270, Control_c, 0, 64, 86
1, 182285, Control_c, 0, 64, 85
1, 182299, Control_c, 0, 64, 83
1, 182314, Control_c, 0, 64, 81
1, 182330, Control_c, 0, 64, 79
1, 182345, Control_c, 0, 64, 78
1, 182368, Control_c, 0, 64, 76
1, 182382, Control_c, 0, 64, 75
1, 182397, Control_c, 0, 64, 74
1, 182412, Control_c, 0, 64, 74
1, 182442, Control_c, 0, 64, 73
1, 182456, Control_c, 0, 64, 72
1, 182471, Control_c, 0, 64, 71
1, 182486, Control_c, 0, 64, 70
1, 182501, Control_c, 0, 64, 69
1, 182516, Control_c, 0, 64, 68
1, 182530, Control_c, 0, 64, 67
1, 182545, Control_c, 0, 64, 67
1, 182560, Control_c, 0, 64, 66
1, 182575, Control_c, 0, 64, 65
1, 182589, Control_c, 0, 64, 65
1, 182619, Control_c, 0, 64, 64
1, 182634, Control_c, 0, 64, 64
1, 182649, Control_c, 0, 64, 63
1, 182663, Control_c, 0, 64, 63
1, 182678, Control_c, 0, 64, 62
1, 182693, Control_c, 0, 64, 62
1, 182708, Control_c, 0, 64, 61
1, 182723, Control_c, 0, 64, 61
1, 182737, Control_c, 0, 64, 60
1, 182752, Control_c, 0, 64, 60
1, 182767, Control_c, 0, 64, 59
1, 182782, Control_c, 0, 64, 58
1, 182797, Control_c, 0, 64, 57
1, 182812, Control_c, 0, 64, 56
1, 182827, Control_c, 0, 64, 55
1, 182842, Control_c, 0, 64, 53
1, 182847, Note_on_c, 0, 89, 49
1, 182856, Control_c, 0, 64, 52
1, 182871, Control_c, 0, 64, 50
1, 182886, Control_c, 0, 64, 47
1, 182900, Control_c, 0, 64, 44
1, 182915, Control_c, 0, 64, 40
1, 182930, Control_c, 0, 64, 36
1, 182945, Control_c, 0, 64, 29
1, 182960, Control_c, 0, 64, 21
1, 182974, Control_c, 0, 64, 11
1, 182989, Control_c, 0, 64, 0
1, 183153, Note_on_c, 0, 73, 18
1, 183205, Control_c, 0, 64, 14
1, 183220, Control_c, 0, 64, 22
1, 183235, Control_c, 0, 64, 29
1, 183250, Control_c, 0, 64, 37
1, 183265, Control_c, 0, 64, 45
1, 183279, Control_c, 0, 64, 54
1, 183294, Control_c, 0, 64, 62
1, 183309, Control_c, 0, 64, 67
1, 183324, Control_c, 0, 64, 70
1, 183339, Control_c, 0, 64, 73
1, 183349, Note_on_c, 0, 61, 12
1, 183353, Control_c, 0, 64, 77
1, 183368, Control_c, 0, 64, 80
1, 183383, Control_c, 0, 64, 85
1, 183398, Control_c, 0, 64, 90
1, 183412, Control_c, 0, 64, 94
1, 183427, Control_c, 0, 64, 98
1, 183442, Control_c, 0, 64, 100
1, 183457, Control_c, 0, 64, 102
1, 183472, Control_c, 0, 64, 103
1, 183486, Control_c, 0, 64, 104
1, 183504, Note_on_c, 0, 77, 37
1, 183519, Note_off_c, 0, 73, 44
1, 183529, Note_off_c, 0, 61, 43
1, 183635, Control_c, 0, 64, 103
1, 183647, Note_off_c, 0, 77, 36
1, 183650, Control_c, 0, 64, 101
1, 183665, Control_c, 0, 64, 100
1, 183673, Note_on_c, 0, 87, 53
1, 183679, Control_c, 0, 64, 99
1, 183694, Control_c, 0, 64, 97
1, 183703, Note_off_c, 0, 89, 45
1, 183709, Control_c, 0, 64, 96
1, 183723, Control_c, 0, 64, 94
1, 183738, Control_c, 0, 64, 92
1, 183753, Control_c, 0, 64, 91
1, 183768, Control_c, 0, 64, 88
1, 183783, Control_c, 0, 64, 86
1, 183797, Control_c, 0, 64, 83
1, 183812, Control_c, 0, 64, 78
1, 183827, Control_c, 0, 64, 73
1, 183840, Note_on_c, 0, 72, 38
1, 183842, Control_c, 0, 64, 67
1, 183864, Control_c, 0, 64, 60
1, 183879, Control_c, 0, 64, 49
1, 183894, Control_c, 0, 64, 29
1, 183909, Control_c, 0, 64, 0
1, 183998, Control_c, 0, 64, 9
1, 184011, Note_on_c, 0, 60, 30
1, 184013, Control_c, 0, 64, 22
1, 184028, Control_c, 0, 64, 32
1, 184043, Control_c, 0, 64, 42
1, 184058, Control_c, 0, 64, 53
1, 184073, Control_c, 0, 64, 62
1, 184088, Control_c, 0, 64, 68
1, 184102, Control_c, 0, 64, 72
1, 184117, Control_c, 0, 64, 75
1, 184132, Control_c, 0, 64, 79
1, 184147, Control_c, 0, 64, 85
1, 184147, Note_off_c, 0, 72, 42
1, 184161, Control_c, 0, 64, 91
1, 184163, Note_off_c, 0, 60, 41
1, 184176, Control_c, 0, 64, 96
1, 184180, Note_on_c, 0, 75, 33
1, 184191, Control_c, 0, 64, 99
1, 184206, Control_c, 0, 64, 100
1, 184221, Control_c, 0, 64, 103
1, 184235, Control_c, 0, 64, 108
1, 184250, Control_c, 0, 64, 115
1, 184265, Control_c, 0, 64, 117
1, 184305, Note_off_c, 0, 75, 41
1, 184333, Note_on_c, 0, 85, 60
1, 184353, Control_c, 0, 64, 113
1, 184368, Control_c, 0, 64, 108
1, 184383, Control_c, 0, 64, 104
1, 184398, Control_c, 0, 64, 100
1, 184413, Control_c, 0, 64, 95
1, 184428, Control_c, 0, 64, 90
1, 184443, Control_c, 0, 64, 84
1, 184457, Control_c, 0, 64, 77
1, 184472, Control_c, 0, 64, 69
1, 184481, Note_off_c, 0, 87, 53
1, 184487, Control_c, 0, 64, 63
1, 184502, Control_c, 0, 64, 54
1, 184516, Note_on_c, 0, 70, 39
1, 184517, Control_c, 0, 64, 33
1, 184532, Control_c, 0, 64, 0
1, 184657, Control_c, 0, 64, 23
1, 184672, Control_c, 0, 64, 40
1, 184685, Note_on_c, 0, 58, 37
1, 184687, Control_c, 0, 64, 54
1, 184702, Control_c, 0, 64, 65
1, 184717, Control_c, 0, 64, 77
1, 184732, Control_c, 0, 64, 82
1, 184747, Control_c, 0, 64, 84
1, 184762, Control_c, 0, 64, 88
1, 184776, Control_c, 0, 64, 98
1, 184791, Control_c, 0, 64, 110
1, 184805, Control_c, 0, 64, 127
1, 184841, Note_off_c, 0, 70, 41
1, 184850, Note_on_c, 0, 86, 67
1, 184862, Note_off_c, 0, 58, 42
1, 185080, Note_on_c, 0, 87, 65
1, 185101, Control_c, 0, 64, 122
1, 185116, Control_c, 0, 64, 114
1, 185119, Note_off_c, 0, 86, 54
1, 185131, Control_c, 0, 64, 108
1, 185139, Note_off_c, 0, 85, 41
1, 185146, Control_c, 0, 64, 101
1, 185161, Control_c, 0, 64, 94
1, 185175, Control_c, 0, 64, 86
1, 185190, Control_c, 0, 64, 77
1, 185205, Control_c, 0, 64, 69
1, 185220, Control_c, 0, 64, 62
1, 185235, Control_c, 0, 64, 51
1, 185249, Control_c, 0, 64, 27
1, 185259, Note_on_c, 0, 72, 36
1, 185264, Control_c, 0, 64, 0
1, 185375, Control_c, 0, 64, 17
1, 185390, Control_c, 0, 64, 25
1, 185405, Control_c, 0, 64, 33
1, 185418, Note_on_c, 0, 60, 39
1, 185420, Control_c, 0, 64, 43
1, 185435, Control_c, 0, 64, 55
1, 185449, Control_c, 0, 64, 64
1, 185464, Control_c, 0, 64, 70
1, 185479, Control_c, 0, 64, 73
1, 185494, Control_c, 0, 64, 74
1, 185508, Control_c, 0, 64, 75
1, 185525, Control_c, 0, 64, 79
1, 185537, Note_off_c, 0, 60, 57
1, 185539, Control_c, 0, 64, 83
1, 185545, Note_off_c, 0, 72, 39
1, 185554, Control_c, 0, 64, 85
1, 185569, Note_on_c, 0, 75, 51
1, 185569, Control_c, 0, 64, 87
1, 185571, Note_off_c, 0, 87, 57
1, 185584, Control_c, 0, 64, 88
1, 185629, Control_c, 0, 64, 88
1, 185751, Note_on_c, 0, 85, 61
1, 185777, Control_c, 0, 64, 87
1, 185791, Control_c, 0, 64, 86
1, 185806, Control_c, 0, 64, 84
1, 185821, Control_c, 0, 64, 81
1, 185836, Control_c, 0, 64, 79
1, 185845, Note_off_c, 0, 75, 51
1, 185851, Control_c, 0, 64, 75
1, 185866, Control_c, 0, 64, 71
1, 185880, Control_c, 0, 64, 67
1, 185895, Control_c, 0, 64, 63
1, 185910, Control_c, 0, 64, 56
1, 185921, Note_on_c, 0, 70, 44
1, 185924, Control_c, 0, 64, 46
1, 185939, Control_c, 0, 64, 27
1, 185954, Control_c, 0, 64, 0
1, 185990, Note_off_c, 0, 70, 0
1, 185990, Note_on_c, 0, 70, 3
1, 186073, Control_c, 0, 64, 18
1, 186076, Note_on_c, 0, 58, 38
1, 186088, Control_c, 0, 64, 28
1, 186110, Control_c, 0, 64, 36
1, 186124, Control_c, 0, 64, 44
1, 186139, Control_c, 0, 64, 51
1, 186154, Control_c, 0, 64, 56
1, 186169, Control_c, 0, 64, 60
1, 186184, Control_c, 0, 64, 62
1, 186198, Control_c, 0, 64, 64
1, 186213, Control_c, 0, 64, 67
1, 186216, Note_off_c, 0, 85, 63
1, 186218, Note_off_c, 0, 70, 41
1, 186224, Note_off_c, 0, 58, 46
1, 186228, Control_c, 0, 64, 70
1, 186243, Control_c, 0, 64, 74
1, 186258, Control_c, 0, 64, 77
1, 186261, Note_on_c, 0, 73, 43
1, 186273, Control_c, 0, 64, 80
1, 186288, Control_c, 0, 64, 83
1, 186303, Control_c, 0, 64, 84
1, 186318, Control_c, 0, 64, 84
1, 186333, Control_c, 0, 64, 85
1, 186392, Control_c, 0, 64, 84
1, 186407, Control_c, 0, 64, 81
1, 186422, Control_c, 0, 64, 76
1, 186437, Control_c, 0, 64, 69
1, 186452, Note_on_c, 0, 84, 49
1, 186452, Control_c, 0, 64, 63
1, 186464, Note_on_c, 0, 68, 36
1, 186467, Control_c, 0, 64, 54
1, 186473, Note_off_c, 0, 73, 43
1, 186481, Control_c, 0, 64, 34
1, 186496, Control_c, 0, 64, 0
1, 186585, Control_c, 0, 64, 12
1, 186600, Control_c, 0, 64, 25
1, 186614, Control_c, 0, 64, 34
1, 186618, Note_off_c, 0, 84, 50
1, 186629, Control_c, 0, 64, 43
1, 186644, Control_c, 0, 64, 52
1, 186654, Note_on_c, 0, 56, 41
1, 186659, Control_c, 0, 64, 61
1, 186671, Note_on_c, 0, 72, 50
1, 186674, Control_c, 0, 64, 67
1, 186689, Control_c, 0, 64, 70
1, 186703, Control_c, 0, 64, 70
1, 186718, Control_c, 0, 64, 71
1, 186733, Control_c, 0, 64, 72
1, 186747, Control_c, 0, 64, 74
1, 186762, Control_c, 0, 64, 75
1, 186777, Control_c, 0, 64, 76
1, 186785, Note_off_c, 0, 68, 41
1, 186819, Note_on_c, 0, 58, 48
1, 186825, Note_on_c, 0, 73, 57
1, 186939, Note_off_c, 0, 56, 41
1, 186955, Note_off_c, 0, 72, 29
1, 186977, Control_c, 0, 64, 75
1, 186982, Note_on_c, 0, 75, 63
1, 186988, Note_on_c, 0, 60, 44
1, 186992, Control_c, 0, 64, 75
1, 187007, Control_c, 0, 64, 74
1, 187021, Control_c, 0, 64, 72
1, 187036, Control_c, 0, 64, 70
1, 187051, Control_c, 0, 64, 69
1, 187066, Control_c, 0, 64, 67
1, 187081, Control_c, 0, 64, 66
1, 187096, Control_c, 0, 64, 64
1, 187110, Control_c, 0, 64, 63
1, 187126, Control_c, 0, 64, 62
1, 187141, Control_c, 0, 64, 60
1, 187144, Note_off_c, 0, 60, 52
1, 187146, Note_on_c, 0, 79, 67
1, 187147, Note_on_c, 0, 63, 48
1, 187152, Note_off_c, 0, 58, 37
1, 187156, Control_c, 0, 64, 57
1, 187170, Control_c, 0, 64, 53
1, 187180, Note_off_c, 0, 75, 60
1, 187185, Control_c, 0, 64, 48
1, 187194, Note_off_c, 0, 73, 34
1, 187200, Control_c, 0, 64, 41
1, 187215, Control_c, 0, 64, 33
1, 187216, Note_off_c, 0, 63, 0
1, 187216, Note_on_c, 0, 63, 3
1, 187230, Control_c, 0, 64, 24
1, 187245, Control_c, 0, 64, 10
1, 187259, Control_c, 0, 64, 0
1, 187307, Note_on_c, 0, 76, 64
1, 187313, Note_off_c, 0, 63, 55
1, 187314, Note_on_c, 0, 60, 45
1, 187363, Control_c, 0, 64, 18
1, 187378, Control_c, 0, 64, 27
1, 187393, Control_c, 0, 64, 33
1, 187408, Note_off_c, 0, 79, 54
1, 187408, Control_c, 0, 64, 40
1, 187423, Control_c, 0, 64, 47
1, 187435, Note_off_c, 0, 60, 62
1, 187437, Control_c, 0, 64, 55
1, 187452, Control_c, 0, 64, 60
1, 187467, Control_c, 0, 64, 62
1, 187476, Note_on_c, 0, 77, 63
1, 187482, Control_c, 0, 64, 62
1, 187485, Note_on_c, 0, 61, 42
1, 187486, Note_off_c, 0, 76, 61
1, 187526, Control_c, 0, 64, 63
1, 187572, Note_off_c, 0, 77, 53
1, 187622, Note_off_c, 0, 61, 34
1, 187640, Note_on_c, 0, 49, 46
1, 187642, Note_on_c, 0, 65, 50
1, 187726, Control_c, 0, 64, 62
1, 187741, Control_c, 0, 64, 62
1, 187756, Control_c, 0, 64, 61
1, 187770, Control_c, 0, 64, 59
1, 187785, Control_c, 0, 64, 56
1, 187790, Note_off_c, 0, 49, 34
1, 187799, Control_c, 0, 64, 51
1, 187802, Note_on_c, 0, 77, 70
1, 187812, Note_off_c, 0, 65, 40
1, 187814, Control_c, 0, 64, 40
1, 187815, Note_on_c, 0, 61, 48
1, 187829, Control_c, 0, 64, 19
1, 187844, Control_c, 0, 64, 0
1, 187957, Note_on_c, 0, 74, 64
1, 187963, Control_c, 0, 64, 18
1, 187978, Control_c, 0, 64, 27
1, 187987, Note_on_c, 0, 59, 41
1, 187993, Control_c, 0, 64, 35
1, 187993, Note_off_c, 0, 77, 61
1, 188006, Note_off_c, 0, 61, 52
1, 188008, Control_c, 0, 64, 45
1, 188023, Control_c, 0, 64, 56
1, 188037, Control_c, 0, 64, 62
1, 188052, Control_c, 0, 64, 65
1, 188067, Control_c, 0, 64, 66
1, 188097, Control_c, 0, 64, 67
1, 188112, Control_c, 0, 64, 68
1, 188113, Note_off_c, 0, 59, 58
1, 188126, Control_c, 0, 64, 70
1, 188130, Note_on_c, 0, 75, 72
1, 188141, Control_c, 0, 64, 71
1, 188148, Note_on_c, 0, 60, 49
1, 188149, Note_off_c, 0, 74, 50
1, 188273, Note_off_c, 0, 75, 60
1, 188283, Note_on_c, 0, 63, 65
1, 188289, Control_c, 0, 64, 70
1, 188300, Note_on_c, 0, 48, 42
1, 188306, Note_off_c, 0, 60, 31
1, 188318, Control_c, 0, 64, 70
1, 188371, Control_c, 0, 64, 69
1, 188391, Note_off_c, 0, 48, 35
1, 188430, Control_c, 0, 64, 68
1, 188445, Control_c, 0, 64, 67
1, 188452, Note_on_c, 0, 60, 48
1, 188455, Note_on_c, 0, 75, 71
1, 188460, Control_c, 0, 64, 66
1, 188474, Control_c, 0, 64, 64
1, 188476, Note_off_c, 0, 63, 48
1, 188489, Control_c, 0, 64, 60
1, 188504, Control_c, 0, 64, 53
1, 188518, Control_c, 0, 64, 42
1, 188533, Control_c, 0, 64, 26
1, 188549, Control_c, 0, 64, 12
1, 188564, Control_c, 0, 64, 0
1, 188585, Note_off_c, 0, 60, 62
1, 188613, Note_on_c, 0, 72, 60
1, 188621, Note_on_c, 0, 57, 44
1, 188657, Note_off_c, 0, 75, 57
1, 188735, Note_off_c, 0, 57, 61
1, 188780, Note_on_c, 0, 58, 45
1, 188780, Note_on_c, 0, 73, 58
1, 188781, Note_off_c, 0, 72, 58
1, 188861, Control_c, 0, 64, 11
1, 188876, Control_c, 0, 64, 25
1, 188890, Control_c, 0, 64, 36
1, 188905, Control_c, 0, 64, 46
1, 188920, Control_c, 0, 64, 57
1, 188935, Control_c, 0, 64, 63
1, 188941, Note_off_c, 0, 73, 54
1, 188942, Note_on_c, 0, 46, 46
1, 188945, Note_on_c, 0, 61, 52
1, 188950, Control_c, 0, 64, 66
1, 188965, Control_c, 0, 64, 67
1, 188976, Note_off_c, 0, 58, 41
1, 188976, Note_off_c, 0, 61, 67
1, 188979, Control_c, 0, 64, 68
1, 188994, Control_c, 0, 64, 69
1, 189006, Note_off_c, 0, 46, 56
1, 189009, Control_c, 0, 64, 70
1, 189024, Control_c, 0, 64, 71
1, 189129, Note_on_c, 0, 77, 61
1, 189135, Control_c, 0, 64, 70
1, 189149, Control_c, 0, 64, 69
1, 189157, Note_on_c, 0, 61, 52
1, 189164, Control_c, 0, 64, 69
1, 189179, Control_c, 0, 64, 68
1, 189194, Control_c, 0, 64, 67
1, 189209, Control_c, 0, 64, 67
1, 189224, Control_c, 0, 64, 66
1, 189239, Control_c, 0, 64, 65
1, 189254, Control_c, 0, 64, 64
1, 189268, Control_c, 0, 64, 62
1, 189281, Note_on_c, 0, 74, 65
1, 189283, Control_c, 0, 64, 61
1, 189298, Control_c, 0, 64, 59
1, 189304, Note_on_c, 0, 59, 47
1, 189310, Note_off_c, 0, 77, 59
1, 189313, Note_off_c, 0, 61, 38
1, 189313, Control_c, 0, 64, 57
1, 189328, Control_c, 0, 64, 54
1, 189342, Control_c, 0, 64, 50
1, 189357, Control_c, 0, 64, 44
1, 189372, Control_c, 0, 64, 41
1, 189387, Control_c, 0, 64, 40
1, 189402, Control_c, 0, 64, 39
1, 189416, Control_c, 0, 64, 36
1, 189431, Control_c, 0, 64, 30
1, 189440, Note_off_c, 0, 59, 60
1, 189446, Control_c, 0, 64, 14
1, 189456, Note_on_c, 0, 75, 65
1, 189458, Note_on_c, 0, 60, 50
1, 189461, Control_c, 0, 64, 0
1, 189559, Note_off_c, 0, 74, 44
1, 189580, Control_c, 0, 64, 19
1, 189595, Control_c, 0, 64, 25
1, 189610, Control_c, 0, 64, 31
1, 189617, Note_on_c, 0, 63, 58
1, 189617, Note_on_c, 0, 48, 45
1, 189623, Note_off_c, 0, 60, 33
1, 189625, Control_c, 0, 64, 40
1, 189638, Note_off_c, 0, 75, 60
1, 189639, Control_c, 0, 64, 51
1, 189654, Control_c, 0, 64, 59
1, 189669, Control_c, 0, 64, 63
1, 189684, Control_c, 0, 64, 63
1, 189685, Note_off_c, 0, 48, 60
1, 189699, Control_c, 0, 64, 64
1, 189754, Note_off_c, 0, 63, 56
1, 189778, Note_on_c, 0, 60, 41
1, 189790, Note_on_c, 0, 75, 61
1, 189802, Control_c, 0, 64, 63
1, 189817, Control_c, 0, 64, 63
1, 189832, Control_c, 0, 64, 62
1, 189854, Control_c, 0, 64, 59
1, 189869, Control_c, 0, 64, 56
1, 189884, Control_c, 0, 64, 52
1, 189898, Control_c, 0, 64, 46
1, 189910, Note_off_c, 0, 60, 59
1, 189913, Control_c, 0, 64, 40
1, 189928, Control_c, 0, 64, 31
1, 189943, Control_c, 0, 64, 23
1, 189958, Control_c, 0, 64, 17
1, 189963, Note_on_c, 0, 72, 53
1, 189964, Note_on_c, 0, 57, 37
1, 189972, Control_c, 0, 64, 0
1, 189992, Note_off_c, 0, 75, 53
1, 190078, Note_off_c, 0, 57, 60
1, 190131, Note_off_c, 0, 72, 60
1, 190135, Note_on_c, 0, 58, 42
1, 190150, Note_on_c, 0, 73, 51
1, 190211, Note_off_c, 0, 73, 0
1, 190211, Note_on_c, 0, 73, 5
1, 190269, Control_c, 0, 64, 10
1, 190283, Control_c, 0, 64, 19
1, 190298, Control_c, 0, 64, 26
1, 190314, Control_c, 0, 64, 35
1, 190326, Note_on_c, 0, 46, 37
1, 190329, Control_c, 0, 64, 46
1, 190333, Note_on_c, 0, 61, 43
1, 190344, Control_c, 0, 64, 57
1, 190359, Control_c, 0, 64, 64
1, 190372, Note_off_c, 0, 58, 54
1, 190374, Control_c, 0, 64, 68
1, 190388, Note_off_c, 0, 46, 43
1, 190388, Control_c, 0, 64, 69
1, 190390, Note_off_c, 0, 61, 61
1, 190394, Note_off_c, 0, 73, 43
1, 190403, Control_c, 0, 64, 70
1, 190418, Control_c, 0, 64, 71
1, 190433, Control_c, 0, 64, 74
1, 190448, Control_c, 0, 64, 77
1, 190462, Control_c, 0, 64, 78
1, 190477, Control_c, 0, 64, 79
1, 190521, Control_c, 0, 64, 77
1, 190536, Control_c, 0, 64, 74
1, 190551, Control_c, 0, 64, 67
1, 190566, Control_c, 0, 64, 61
1, 190581, Control_c, 0, 64, 51
1, 190603, Note_on_c, 0, 72, 40
1, 190603, Control_c, 0, 64, 26
1, 190616, Note_on_c, 0, 56, 30
1, 190616, Note_on_c, 0, 63, 17
1, 190618, Control_c, 0, 64, 0
1, 190626, Note_on_c, 0, 48, 21
1, 190707, Control_c, 0, 64, 12
1, 190721, Control_c, 0, 64, 26
1, 190736, Control_c, 0, 64, 39
1, 190751, Control_c, 0, 64, 52
1, 190766, Control_c, 0, 64, 63
1, 190771, Note_on_c, 0, 49, 47
1, 190774, Note_on_c, 0, 70, 58
1, 190781, Control_c, 0, 64, 72
1, 190789, Note_off_c, 0, 48, 39
1, 190795, Control_c, 0, 64, 80
1, 190807, Note_off_c, 0, 72, 36
1, 190810, Note_on_c, 0, 55, 22
1, 190810, Control_c, 0, 64, 82
1, 190825, Note_off_c, 0, 56, 43
1, 190825, Control_c, 0, 64, 84
1, 190828, Note_off_c, 0, 63, 47
1, 190834, Note_off_c, 0, 49, 61
1, 190840, Control_c, 0, 64, 85
1, 190843, Note_off_c, 0, 70, 60
1, 190853, Note_off_c, 0, 55, 55
1, 190884, Control_c, 0, 64, 84
1, 190899, Control_c, 0, 64, 78
1, 190914, Control_c, 0, 64, 68
1, 190929, Control_c, 0, 64, 60
1, 190944, Control_c, 0, 64, 44
1, 190955, Note_on_c, 0, 72, 54
1, 190959, Control_c, 0, 64, 0
1, 190960, Note_on_c, 0, 56, 43
1, 190963, Note_on_c, 0, 63, 38
1, 190991, Note_on_c, 0, 48, 29
1, 191062, Control_c, 0, 64, 21
1, 191077, Control_c, 0, 64, 37
1, 191092, Control_c, 0, 64, 49
1, 191108, Control_c, 0, 64, 60
1, 191123, Control_c, 0, 64, 69
1, 191132, Note_on_c, 0, 49, 50
1, 191132, Note_on_c, 0, 70, 64
1, 191137, Control_c, 0, 64, 74
1, 191145, Note_on_c, 0, 55, 42
1, 191152, Control_c, 0, 64, 76
1, 191167, Control_c, 0, 64, 83
1, 191182, Control_c, 0, 64, 100
1, 191187, Note_off_c, 0, 72, 48
1, 191196, Note_off_c, 0, 48, 38
1, 191197, Control_c, 0, 64, 127
1, 191203, Note_off_c, 0, 55, 61
1, 191212, Note_off_c, 0, 49, 62
1, 191220, Note_off_c, 0, 63, 44
1, 191221, Note_off_c, 0, 56, 34
1, 191230, Note_off_c, 0, 70, 61
1, 191397, Control_c, 0, 64, 109
1, 191412, Control_c, 0, 64, 87
1, 191423, Note_on_c, 0, 72, 53
1, 191426, Control_c, 0, 64, 74
1, 191432, Note_on_c, 0, 56, 37
1, 191436, Note_on_c, 0, 63, 41
1, 191439, Note_on_c, 0, 48, 38
1, 191441, Control_c, 0, 64, 65
1, 191456, Control_c, 0, 64, 54
1, 191471, Control_c, 0, 64, 39
1, 191486, Control_c, 0, 64, 15
1, 191500, Control_c, 0, 64, 0
1, 191633, Control_c, 0, 64, 14
1, 191648, Control_c, 0, 64, 22
1, 191662, Control_c, 0, 64, 29
1, 191677, Control_c, 0, 64, 37
1, 191692, Control_c, 0, 64, 46
1, 191707, Control_c, 0, 64, 55
1, 191722, Control_c, 0, 64, 62
1, 191737, Control_c, 0, 64, 65
1, 191752, Control_c, 0, 64, 66
1, 191767, Control_c, 0, 64, 69
1, 191782, Control_c, 0, 64, 74
1, 191796, Control_c, 0, 64, 82
1, 191811, Control_c, 0, 64, 90
1, 191826, Control_c, 0, 64, 96
1, 191838, Note_off_c, 0, 63, 36
1, 191841, Control_c, 0, 64, 105
1, 191856, Control_c, 0, 64, 109
1, 191870, Control_c, 0, 64, 113
1, 191885, Control_c, 0, 64, 122
1, 191900, Control_c, 0, 64, 127
1, 192042, Note_off_c, 0, 56, 30
1, 192190, Control_c, 0, 64, 117
1, 192205, Control_c, 0, 64, 114
1, 192220, Control_c, 0, 64, 110
1, 192234, Control_c, 0, 64, 107
1, 192249, Control_c, 0, 64, 103
1, 192264, Control_c, 0, 64, 99
1, 192279, Control_c, 0, 64, 95
1, 192293, Control_c, 0, 64, 91
1, 192308, Control_c, 0, 64, 88
1, 192323, Control_c, 0, 64, 84
1, 192338, Control_c, 0, 64, 79
1, 192345, Note_on_c, 0, 70, 46
1, 192348, Note_on_c, 0, 55, 29
1, 192351, Note_on_c, 0, 49, 36
1, 192353, Control_c, 0, 64, 75
1, 192360, Note_on_c, 0, 63, 28
1, 192367, Control_c, 0, 64, 70
1, 192382, Control_c, 0, 64, 65
1, 192392, Note_off_c, 0, 48, 34
1, 192397, Control_c, 0, 64, 61
1, 192412, Control_c, 0, 64, 51
1, 192427, Control_c, 0, 64, 38
1, 192441, Control_c, 0, 64, 24
1, 192456, Control_c, 0, 64, 17
1, 192459, Note_off_c, 0, 72, 51
1, 192471, Control_c, 0, 64, 12
1, 192485, Control_c, 0, 64, 0
1, 192574, Control_c, 0, 64, 10
1, 192589, Control_c, 0, 64, 18
1, 192604, Control_c, 0, 64, 25
1, 192619, Control_c, 0, 64, 29
1, 192634, Control_c, 0, 64, 34
1, 192649, Control_c, 0, 64, 41
1, 192664, Control_c, 0, 64, 50
1, 192679, Control_c, 0, 64, 59
1, 192693, Control_c, 0, 64, 67
1, 192709, Control_c, 0, 64, 70
1, 192723, Control_c, 0, 64, 71
1, 192738, Control_c, 0, 64, 72
1, 192753, Control_c, 0, 64, 77
1, 192768, Control_c, 0, 64, 90
1, 192783, Control_c, 0, 64, 127
1, 192791, Note_off_c, 0, 55, 43
1, 192844, Note_off_c, 0, 63, 46
1, 192946, Note_off_c, 0, 70, 37
1, 192973, Note_off_c, 0, 49, 45
1, 193404, Note_on_c, 0, 75, 56
1, 193412, Control_c, 0, 64, 85
1, 193421, Note_on_c, 0, 56, 39
1, 193427, Control_c, 0, 64, 66
1, 193438, Note_on_c, 0, 48, 38
1, 193438, Note_on_c, 0, 63, 35
1, 193442, Control_c, 0, 64, 55
1, 193457, Control_c, 0, 64, 27
1, 193472, Control_c, 0, 64, 0
1, 193517, Control_c, 0, 64, 17
1, 193531, Control_c, 0, 64, 27
1, 193546, Control_c, 0, 64, 42
1, 193561, Control_c, 0, 64, 57
1, 193576, Control_c, 0, 64, 73
1, 193597, Note_off_c, 0, 63, 46
1, 193599, Control_c, 0, 64, 127
1, 193600, Note_on_c, 0, 74, 71
1, 193612, Note_on_c, 0, 46, 55
1, 193612, Note_on_c, 0, 53, 53
1, 193621, Note_on_c, 0, 68, 53
1, 193653, Note_off_c, 0, 75, 53
1, 193657, Note_off_c, 0, 56, 49
1, 193671, Note_off_c, 0, 68, 56
1, 193683, Note_off_c, 0, 53, 61
1, 193689, Note_off_c, 0, 48, 45
1, 193689, Note_off_c, 0, 74, 62
1, 193691, Note_off_c, 0, 46, 61
1, 193761, Control_c, 0, 64, 83
1, 193776, Control_c, 0, 64, 66
1, 193783, Note_on_c, 0, 75, 75
1, 193788, Note_on_c, 0, 56, 51
1, 193791, Control_c, 0, 64, 54
1, 193799, Note_on_c, 0, 63, 65
1, 193802, Note_on_c, 0, 48, 52
1, 193806, Control_c, 0, 64, 30
1, 193820, Control_c, 0, 64, 0
1, 193910, Control_c, 0, 64, 27
1, 193925, Control_c, 0, 64, 43
1, 193939, Control_c, 0, 64, 61
1, 193954, Control_c, 0, 64, 78
1, 193960, Note_on_c, 0, 74, 78
1, 193969, Control_c, 0, 64, 101
1, 193972, Note_on_c, 0, 53, 57
1, 193979, Note_on_c, 0, 46, 57
1, 193984, Control_c, 0, 64, 105
1, 193986, Note_on_c, 0, 68, 67
1, 193999, Control_c, 0, 64, 115
1, 194013, Control_c, 0, 64, 127
1, 194036, Note_off_c, 0, 75, 54
1, 194045, Note_off_c, 0, 63, 40
1, 194054, Note_off_c, 0, 53, 63
1, 194058, Note_off_c, 0, 56, 35
1, 194059, Note_off_c, 0, 48, 34
1, 194068, Note_off_c, 0, 68, 58
1, 194089, Note_off_c, 0, 74, 60
1, 194161, Control_c, 0, 64, 117
1, 194176, Control_c, 0, 64, 104
1, 194188, Note_off_c, 0, 46, 32
1, 194191, Control_c, 0, 64, 96
1, 194205, Control_c, 0, 64, 88
1, 194220, Control_c, 0, 64, 80
1, 194235, Control_c, 0, 64, 73
1, 194250, Control_c, 0, 64, 66
1, 194260, Note_on_c, 0, 75, 76
1, 194265, Control_c, 0, 64, 60
1, 194274, Note_on_c, 0, 51, 46
1, 194277, Note_on_c, 0, 48, 39
1, 194279, Note_on_c, 0, 63, 52
1, 194280, Control_c, 0, 64, 50
1, 194283, Note_on_c, 0, 56, 30
1, 194288, Note_on_c, 0, 68, 51
1, 194294, Control_c, 0, 64, 36
1, 194310, Control_c, 0, 64, 20
1, 194325, Control_c, 0, 64, 10
1, 194348, Control_c, 0, 64, 0
1, 194365, Note_off_c, 0, 56, 0
1, 194365, Note_on_c, 0, 56, 3
1, 194584, Control_c, 0, 64, 11
1, 194599, Control_c, 0, 64, 24
1, 194614, Control_c, 0, 64, 36
1, 194629, Control_c, 0, 64, 47
1, 194643, Control_c, 0, 64, 59
1, 194658, Control_c, 0, 64, 68
1, 194673, Control_c, 0, 64, 80
1, 194688, Control_c, 0, 64, 89
1, 194703, Control_c, 0, 64, 95
1, 194718, Control_c, 0, 64, 103
1, 194733, Control_c, 0, 64, 127
1, 194804, Note_off_c, 0, 75, 51
1, 194868, Note_off_c, 0, 56, 26
1, 194932, Note_off_c, 0, 63, 52
1, 195080, Note_off_c, 0, 68, 30
1, 195086, Note_off_c, 0, 51, 36
1, 195463, Note_on_c, 0, 46, 32
1, 195526, Control_c, 0, 64, 90
1, 195540, Control_c, 0, 64, 69
1, 195551, Note_on_c, 0, 62, 47
1, 195555, Control_c, 0, 64, 54
1, 195556, Note_off_c, 0, 48, 38
1, 195570, Control_c, 0, 64, 22
1, 195585, Control_c, 0, 64, 0
1, 195659, Control_c, 0, 64, 21
1, 195674, Control_c, 0, 64, 42
1, 195689, Control_c, 0, 64, 58
1, 195701, Note_off_c, 0, 62, 61
1, 195703, Control_c, 0, 64, 76
1, 195707, Note_on_c, 0, 68, 48
1, 195718, Control_c, 0, 64, 127
1, 195776, Note_off_c, 0, 68, 61
1, 195832, Note_on_c, 0, 77, 54
1, 195839, Note_off_c, 0, 46, 47
1, 195925, Note_on_c, 0, 48, 37
1, 195979, Note_off_c, 0, 48, 53
1, 195982, Note_on_c, 0, 46, 39
1, 196041, Note_off_c, 0, 46, 61
1, 196059, Note_on_c, 0, 48, 42
1, 196124, Note_off_c, 0, 48, 62
1, 196142, Note_on_c, 0, 46, 48
1, 196180, Note_off_c, 0, 46, 65
1, 196187, Poly_aftertouch_c, 0, 75, 127
1, 196199, Note_on_c, 0, 48, 52
1, 196274, Note_on_c, 0, 46, 61
1, 196327, Note_off_c, 0, 48, 33
1, 196333, Control_c, 0, 64, 82
1, 196348, Control_c, 0, 64, 66
1, 196363, Control_c, 0, 64, 52
1, 196366, Note_on_c, 0, 44, 62
1, 196367, Note_off_c, 0, 46, 59
1, 196378, Control_c, 0, 64, 15
1, 196393, Control_c, 0, 64, 0
1, 196426, Poly_aftertouch_c, 0, 75, 0
1, 196467, Control_c, 0, 64, 32
1, 196482, Control_c, 0, 64, 50
1, 196497, Control_c, 0, 64, 65
1, 196505, Note_off_c, 0, 77, 55
1, 196512, Control_c, 0, 64, 107
1, 196526, Control_c, 0, 64, 127
1, 196548, Note_off_c, 0, 44, 55
1, 196573, Note_on_c, 0, 46, 43
1, 196625, Note_off_c, 0, 46, 61
1, 196650, Note_on_c, 0, 44, 34
1, 196681, Note_on_c, 0, 62, 57
1, 196712, Note_off_c, 0, 62, 52
1, 196712, Note_off_c, 0, 44, 57
1, 196739, Note_on_c, 0, 46, 50
1, 196744, Note_on_c, 0, 70, 56
1, 196786, Note_off_c, 0, 46, 57
1, 196796, Note_on_c, 0, 77, 74
1, 196809, Note_on_c, 0, 44, 43
1, 196816, Note_off_c, 0, 70, 62
1, 196826, Note_off_c, 0, 77, 62
1, 196861, Note_off_c, 0, 44, 56
1, 196894, Note_on_c, 0, 46, 50
1, 196925, Note_off_c, 0, 46, 63
1, 196932, Note_on_c, 0, 44, 54
1, 196993, Note_off_c, 0, 44, 60
1, 197008, Note_on_c, 0, 46, 68
1, 197046, Note_on_c, 0, 44, 58
1, 197091, Note_off_c, 0, 46, 59
1, 197097, Control_c, 0, 64, 82
1, 197112, Control_c, 0, 64, 65
1, 197127, Control_c, 0, 64, 49
1, 197131, Note_on_c, 0, 43, 72
1, 197142, Control_c, 0, 64, 0
1, 197148, Note_off_c, 0, 44, 56
1, 197231, Control_c, 0, 64, 23
1, 197246, Control_c, 0, 64, 45
1, 197260, Control_c, 0, 64, 62
1, 197271, Note_off_c, 0, 43, 60
1, 197275, Control_c, 0, 64, 127
1, 197278, Note_on_c, 0, 44, 55
1, 197350, Note_off_c, 0, 44, 60
1, 197365, Note_on_c, 0, 63, 58
1, 197386, Note_on_c, 0, 43, 47
1, 197394, Note_off_c, 0, 63, 69
1, 197421, Note_on_c, 0, 70, 64
1, 197428, Note_off_c, 0, 43, 62
1, 197465, Note_on_c, 0, 44, 54
1, 197467, Note_off_c, 0, 70, 64
1, 197481, Note_on_c, 0, 79, 80
1, 197503, Note_off_c, 0, 44, 61
1, 197520, Note_on_c, 0, 43, 58
1, 197522, Note_off_c, 0, 79, 60
1, 197569, Note_off_c, 0, 43, 60
1, 197600, Note_on_c, 0, 44, 54
1, 197639, Note_off_c, 0, 44, 58
1, 197642, Note_on_c, 0, 43, 64
1, 197693, Note_off_c, 0, 43, 59
1, 197700, Note_on_c, 0, 44, 59
1, 197752, Note_on_c, 0, 43, 68
1, 197783, Note_off_c, 0, 44, 59
1, 197830, Control_c, 0, 64, 80
1, 197845, Control_c, 0, 64, 61
1, 197848, Note_on_c, 0, 41, 79
1, 197857, Note_off_c, 0, 43, 61
1, 197860, Control_c, 0, 64, 30
1, 197875, Control_c, 0, 64, 0
1, 197934, Control_c, 0, 64, 24
1, 197949, Control_c, 0, 64, 53
1, 197964, Control_c, 0, 64, 78
1, 197970, Note_off_c, 0, 41, 64
1, 197974, Note_on_c, 0, 43, 67
1, 197979, Control_c, 0, 64, 127
1, 198050, Note_off_c, 0, 43, 59
1, 198083, Note_on_c, 0, 41, 53
1, 198093, Note_on_c, 0, 65, 67
1, 198131, Note_off_c, 0, 41, 61
1, 198142, Note_off_c, 0, 65, 66
1, 198155, Note_on_c, 0, 70, 73
1, 198158, Note_on_c, 0, 43, 53
1, 198196, Note_off_c, 0, 70, 63
1, 198206, Note_off_c, 0, 43, 63
1, 198221, Note_on_c, 0, 80, 92
1, 198225, Note_on_c, 0, 41, 57
1, 198262, Note_off_c, 0, 80, 64
1, 198265, Note_off_c, 0, 41, 65
1, 198284, Note_on_c, 0, 43, 52
1, 198335, Note_off_c, 0, 43, 61
1, 198342, Note_on_c, 0, 41, 60
1, 198403, Note_off_c, 0, 41, 63
1, 198421, Note_on_c, 0, 43, 67
1, 198464, Note_off_c, 0, 43, 62
1, 198466, Note_on_c, 0, 41, 56
1, 198533, Note_off_c, 0, 41, 63
1, 198535, Note_on_c, 0, 43, 73
1, 198569, Poly_aftertouch_c, 0, 41, 0
1, 198580, Note_on_c, 0, 41, 61
1, 198610, Note_off_c, 0, 43, 61
1, 198623, Control_c, 0, 64, 74
1, 198638, Control_c, 0, 64, 57
1, 198652, Control_c, 0, 64, 20
1, 198658, Note_on_c, 0, 39, 83
1, 198667, Control_c, 0, 64, 0
1, 198678, Note_off_c, 0, 41, 62
1, 198742, Control_c, 0, 64, 34
1, 198757, Control_c, 0, 64, 57
1, 198772, Control_c, 0, 64, 100
1, 198787, Control_c, 0, 64, 127
1, 198811, Note_on_c, 0, 41, 60
1, 198814, Note_off_c, 0, 39, 63
1, 198901, Note_off_c, 0, 41, 62
1, 198914, Note_on_c, 0, 39, 58
1, 198926, Note_on_c, 0, 67, 69
1, 198977, Note_on_c, 0, 70, 82
1, 198980, Note_off_c, 0, 39, 62
1, 198982, Note_off_c, 0, 67, 64
1, 199000, Note_on_c, 0, 41, 56
1, 199028, Note_off_c, 0, 70, 62
1, 199062, Note_on_c, 0, 39, 59
1, 199063, Note_off_c, 0, 41, 61
1, 199125, Note_off_c, 0, 39, 63
1, 199136, Note_on_c, 0, 41, 54
1, 199168, Note_on_c, 0, 82, 92
1, 199207, Note_off_c, 0, 41, 61
1, 199208, Note_on_c, 0, 39, 58
1, 199270, Note_off_c, 0, 39, 63
1, 199275, Note_on_c, 0, 41, 51
1, 199329, Note_on_c, 0, 39, 57
1, 199335, Note_off_c, 0, 41, 63
1, 199404, Note_off_c, 0, 39, 63
1, 199416, Note_on_c, 0, 41, 56
1, 199465, Note_on_c, 0, 39, 61
1, 199467, Note_off_c, 0, 41, 61
1, 199515, Note_on_c, 0, 41, 50
1, 199519, Note_off_c, 0, 39, 65
1, 199574, Note_on_c, 0, 39, 70
1, 199607, Note_off_c, 0, 41, 62
1, 199660, Note_on_c, 0, 37, 88
1, 199687, Note_off_c, 0, 39, 64
1, 199706, Control_c, 0, 64, 91
1, 199721, Control_c, 0, 64, 66
1, 199736, Control_c, 0, 64, 48
1, 199750, Control_c, 0, 64, 0
1, 199854, Control_c, 0, 64, 36
1, 199869, Control_c, 0, 64, 60
1, 199884, Control_c, 0, 64, 108
1, 199899, Control_c, 0, 64, 127
1, 199976, Note_off_c, 0, 37, 60
1, 199991, Note_on_c, 0, 39, 55
1, 200014, Note_off_c, 0, 82, 63
1, 200061, Note_off_c, 0, 39, 64
1, 200095, Note_on_c, 0, 37, 55
1, 200131, Note_off_c, 0, 37, 59
1, 200158, Note_on_c, 0, 39, 56
1, 200212, Note_off_c, 0, 39, 63
1, 200232, Note_on_c, 0, 37, 65
1, 200238, Note_on_c, 0, 84, 89
1, 200289, Note_off_c, 0, 37, 63
1, 200292, Note_on_c, 0, 39, 65
1, 200370, Note_on_c, 0, 37, 72
1, 200371, Note_off_c, 0, 39, 63
1, 200403, Note_off_c, 0, 84, 61
1, 200420, Note_on_c, 0, 39, 58
1, 200426, Note_off_c, 0, 37, 63
1, 200489, Note_on_c, 0, 37, 73
1, 200495, Note_off_c, 0, 39, 65
1, 200547, Note_on_c, 0, 39, 62
1, 200553, Note_off_c, 0, 37, 63
1, 200615, Note_on_c, 0, 37, 67
1, 200620, Note_off_c, 0, 39, 64
1, 200667, Note_on_c, 0, 85, 93
1, 200678, Note_on_c, 0, 39, 59
1, 200683, Note_off_c, 0, 37, 63
1, 200752, Note_off_c, 0, 39, 64
1, 200754, Note_on_c, 0, 37, 64
1, 200816, Note_on_c, 0, 39, 66
1, 200817, Note_off_c, 0, 37, 63
1, 200826, Note_off_c, 0, 85, 63
1, 200887, Note_on_c, 0, 37, 70
1, 200888, Note_off_c, 0, 39, 63
1, 200939, Note_on_c, 0, 39, 60
1, 200946, Note_off_c, 0, 37, 64
1, 201008, Note_on_c, 0, 37, 67
1, 201016, Note_off_c, 0, 39, 61
1, 201076, Note_on_c, 0, 39, 54
1, 201081, Note_off_c, 0, 37, 63
1, 201099, Note_on_c, 0, 86, 92
1, 201148, Note_off_c, 0, 39, 64
1, 201149, Note_on_c, 0, 37, 67
1, 201211, Note_on_c, 0, 39, 64
1, 201213, Note_off_c, 0, 37, 63
1, 201273, Note_on_c, 0, 37, 66
1, 201273, Note_off_c, 0, 39, 64
1, 201323, Note_off_c, 0, 86, 63
1, 201335, Note_on_c, 0, 39, 69
1, 201335, Note_off_c, 0, 37, 63
1, 201370, Poly_aftertouch_c, 0, 37, 0
1, 201378, Note_on_c, 0, 37, 58
1, 201394, Note_off_c, 0, 39, 63
1, 201434, Note_on_c, 0, 39, 55
1, 201437, Note_off_c, 0, 37, 62
1, 201493, Note_on_c, 0, 37, 72
1, 201502, Note_off_c, 0, 39, 64
1, 201556, Note_on_c, 0, 39, 67
1, 201561, Note_off_c, 0, 37, 63
1, 201598, Poly_aftertouch_c, 0, 37, 0
1, 201606, Note_on_c, 0, 37, 62
1, 201628, Note_on_c, 0, 87, 92
1, 201634, Control_c, 0, 64, 88
1, 201637, Note_off_c, 0, 39, 62
1, 201649, Control_c, 0, 64, 64
1, 201664, Control_c, 0, 64, 49
1, 201678, Control_c, 0, 64, 16
1, 201693, Control_c, 0, 64, 21
1, 201708, Control_c, 0, 64, 37
1, 201723, Control_c, 0, 64, 54
1, 201738, Control_c, 0, 64, 81
1, 201753, Control_c, 0, 64, 127
1, 201761, Note_off_c, 0, 37, 53
1, 201874, Note_on_c, 0, 36, 79
1, 201952, Control_c, 0, 64, 117
1, 201955, Note_on_c, 0, 37, 81
1, 201967, Control_c, 0, 64, 67
1, 201982, Control_c, 0, 64, 53
1, 201992, Note_off_c, 0, 36, 62
1, 201997, Control_c, 0, 64, 26
1, 202012, Control_c, 0, 64, 0
1, 202042, Control_c, 0, 64, 25
1, 202057, Control_c, 0, 64, 39
1, 202060, Note_on_c, 0, 39, 84
1, 202071, Control_c, 0, 64, 59
1, 202080, Note_off_c, 0, 37, 63
1, 202086, Control_c, 0, 64, 99
1, 202101, Control_c, 0, 64, 127
1, 202158, Note_on_c, 0, 37, 79
1, 202194, Note_off_c, 0, 39, 64
1, 202274, Note_on_c, 0, 36, 83
1, 202367, Note_off_c, 0, 37, 29
1, 202385, Note_on_c, 0, 34, 85
1, 202420, Note_off_c, 0, 36, 63
1, 202468, Note_off_c, 0, 34, 64
1, 202537, Note_off_c, 0, 87, 60
1, 202657, Control_c, 0, 64, 86
1, 202672, Control_c, 0, 64, 58
1, 202687, Control_c, 0, 64, 0
1, 202692, Note_on_c, 0, 32, 88
1, 202820, Control_c, 0, 64, 19
1, 202835, Control_c, 0, 64, 31
1, 202850, Control_c, 0, 64, 45
1, 202865, Control_c, 0, 64, 63
1, 202879, Control_c, 0, 64, 127
1, 202900, Note_off_c, 0, 32, 63
1, 203136, Note_on_c, 0, 48, 58
1, 203139, Note_on_c, 0, 44, 51
1, 203223, Note_off_c, 0, 44, 55
1, 203229, Note_off_c, 0, 48, 51
1, 203427, Note_on_c, 0, 60, 89
1, 203432, Note_on_c, 0, 44, 35
1, 203446, Note_on_c, 0, 48, 36
1, 203514, Note_off_c, 0, 48, 54
1, 203532, Note_off_c, 0, 44, 55
1, 203678, Note_on_c, 0, 44, 48
1, 203685, Note_on_c, 0, 43, 55
1, 203688, Note_on_c, 0, 48, 40
1, 203741, Note_off_c, 0, 48, 59
1, 203745, Note_off_c, 0, 44, 52
1, 203748, Note_off_c, 0, 43, 57
1, 203854, Note_on_c, 0, 48, 52
1, 203857, Note_on_c, 0, 43, 56
1, 203868, Note_on_c, 0, 44, 43
1, 203917, Note_off_c, 0, 48, 53
1, 203920, Note_off_c, 0, 60, 59
1, 203951, Note_off_c, 0, 43, 58
1, 203953, Note_off_c, 0, 44, 47
1, 204008, Note_on_c, 0, 44, 46
1, 204025, Note_on_c, 0, 48, 59
1, 204028, Note_on_c, 0, 41, 61
1, 204115, Note_off_c, 0, 48, 53
1, 204118, Note_off_c, 0, 41, 56
1, 204118, Note_off_c, 0, 44, 59
1, 204197, Note_on_c, 0, 41, 68
1, 204202, Note_on_c, 0, 48, 62
1, 204209, Note_on_c, 0, 44, 54
1, 204254, Note_off_c, 0, 48, 60
1, 204257, Note_off_c, 0, 44, 58
1, 204266, Note_off_c, 0, 41, 61
1, 204391, Note_on_c, 0, 60, 73
1, 204391, Control_c, 0, 64, 74
1, 204393, Note_on_c, 0, 44, 46
1, 204394, Note_on_c, 0, 39, 53
1, 204399, Note_on_c, 0, 48, 49
1, 204406, Control_c, 0, 64, 58
1, 204421, Control_c, 0, 64, 32
1, 204436, Control_c, 0, 64, 0
1, 204465, Control_c, 0, 64, 29
1, 204480, Control_c, 0, 64, 47
1, 204495, Control_c, 0, 64, 64
1, 204505, Note_off_c, 0, 39, 57
1, 204510, Note_off_c, 0, 44, 56
1, 204510, Control_c, 0, 64, 127
1, 204522, Note_off_c, 0, 48, 0
1, 204561, Poly_aftertouch_c, 0, 48, 0
1, 204597, Note_on_c, 0, 61, 86
1, 204613, Note_on_c, 0, 48, 47
1, 204621, Note_on_c, 0, 39, 55
1, 204624, Note_off_c, 0, 60, 66
1, 204625, Note_on_c, 0, 44, 47
1, 204656, Note_off_c, 0, 61, 65
1, 204666, Note_off_c, 0, 44, 60
1, 204672, Note_off_c, 0, 48, 56
1, 204672, Note_off_c, 0, 39, 59
1, 204689, Control_c, 0, 64, 111
1, 204704, Control_c, 0, 64, 77
1, 204719, Control_c, 0, 64, 65
1, 204734, Control_c, 0, 64, 58
1, 204748, Control_c, 0, 64, 53
1, 204760, Note_on_c, 0, 63, 87
1, 204763, Control_c, 0, 64, 55
1, 204778, Note_on_c, 0, 44, 52
1, 204778, Control_c, 0, 64, 61
1, 204778, Note_on_c, 0, 48, 57
1, 204781, Note_on_c, 0, 37, 56
1, 204793, Control_c, 0, 64, 73
1, 204808, Control_c, 0, 64, 127
1, 204847, Note_off_c, 0, 48, 57
1, 204850, Note_off_c, 0, 37, 60
1, 204870, Note_off_c, 0, 44, 55
1, 204930, Note_on_c, 0, 65, 85
1, 204942, Note_on_c, 0, 37, 66
1, 204943, Note_on_c, 0, 44, 41
1, 204949, Note_off_c, 0, 63, 70
1, 204954, Note_on_c, 0, 48, 57
1, 204984, Note_off_c, 0, 65, 66
1, 204996, Note_off_c, 0, 48, 59
1, 205014, Note_off_c, 0, 37, 61
1, 205070, Note_off_c, 0, 44, 0
1, 205080, Note_on_c, 0, 67, 91
1, 205088, Note_on_c, 0, 44, 20
1, 205100, Note_on_c, 0, 36, 61
1, 205100, Note_on_c, 0, 48, 50
1, 205172, Note_off_c, 0, 36, 58
1, 205259, Control_c, 0, 64, 103
1, 205274, Control_c, 0, 64, 85
1, 205282, Note_on_c, 0, 36, 55
1, 205288, Control_c, 0, 64, 72
1, 205303, Control_c, 0, 64, 62
1, 205317, Note_on_c, 0, 68, 83
1, 205318, Control_c, 0, 64, 44
1, 205333, Control_c, 0, 64, 0
1, 205341, Note_off_c, 0, 48, 43
1, 205347, Note_off_c, 0, 44, 39
1, 205360, Note_off_c, 0, 67, 60
1, 205437, Control_c, 0, 64, 21
1, 205452, Control_c, 0, 64, 42
1, 205467, Control_c, 0, 64, 59
1, 205482, Control_c, 0, 64, 85
1, 205497, Control_c, 0, 64, 127
1, 205520, Note_on_c, 0, 44, 40
1, 205521, Note_on_c, 0, 48, 44
1, 205540, Note_off_c, 0, 68, 52
1, 205571, Note_off_c, 0, 44, 61
1, 205579, Note_off_c, 0, 48, 60
1, 205620, Note_off_c, 0, 36, 36
1, 205691, Note_on_c, 0, 63, 71
1, 205703, Note_on_c, 0, 44, 50
1, 205706, Note_on_c, 0, 48, 48
1, 205750, Note_off_c, 0, 48, 61
1, 205753, Note_off_c, 0, 63, 64
1, 205765, Note_off_c, 0, 44, 54
1, 205842, Note_on_c, 0, 44, 52
1, 205845, Note_on_c, 0, 48, 60
1, 205854, Note_on_c, 0, 43, 57
1, 205901, Note_off_c, 0, 43, 58
1, 205910, Note_off_c, 0, 48, 55
1, 205913, Note_off_c, 0, 44, 57
1, 205995, Note_on_c, 0, 43, 66
1, 206002, Note_on_c, 0, 44, 60
1, 206007, Note_on_c, 0, 48, 55
1, 206066, Note_off_c, 0, 48, 53
1, 206081, Note_off_c, 0, 44, 56
1, 206082, Note_off_c, 0, 43, 58
1, 206158, Note_on_c, 0, 48, 66
1, 206158, Note_on_c, 0, 41, 72
1, 206160, Note_on_c, 0, 44, 62
1, 206227, Note_off_c, 0, 48, 61
1, 206231, Note_off_c, 0, 41, 62
1, 206235, Note_off_c, 0, 44, 58
1, 206318, Note_on_c, 0, 41, 70
1, 206319, Note_on_c, 0, 44, 61
1, 206327, Note_on_c, 0, 48, 59
1, 206360, Note_off_c, 0, 48, 63
1, 206376, Note_off_c, 0, 41, 60
1, 206378, Note_off_c, 0, 44, 48
1, 206462, Control_c, 0, 64, 110
1, 206466, Note_on_c, 0, 67, 81
1, 206471, Note_on_c, 0, 48, 61
1, 206475, Note_on_c, 0, 39, 65
1, 206476, Control_c, 0, 64, 74
1, 206490, Note_on_c, 0, 44, 56
1, 206491, Control_c, 0, 64, 59
1, 206506, Control_c, 0, 64, 38
1, 206520, Control_c, 0, 64, 0
1, 206549, Note_off_c, 0, 48, 59
1, 206549, Control_c, 0, 64, 23
1, 206551, Note_off_c, 0, 39, 62
1, 206551, Note_off_c, 0, 44, 59
1, 206564, Control_c, 0, 64, 41
1, 206579, Control_c, 0, 64, 60
1, 206594, Control_c, 0, 64, 101
1, 206609, Control_c, 0, 64, 127
1, 206630, Note_on_c, 0, 39, 61
1, 206633, Note_on_c, 0, 68, 88
1, 206635, Note_on_c, 0, 48, 61
1, 206641, Note_on_c, 0, 44, 58
1, 206659, Note_off_c, 0, 67, 63
1, 206686, Note_off_c, 0, 68, 62
1, 206693, Note_off_c, 0, 48, 62
1, 206698, Note_off_c, 0, 44, 58
1, 206698, Note_off_c, 0, 39, 62
1, 206772, Control_c, 0, 64, 103
1, 206783, Note_on_c, 0, 70, 94
1, 206786, Control_c, 0, 64, 75
1, 206790, Note_on_c, 0, 48, 64
1, 206791, Note_on_c, 0, 37, 64
1, 206801, Control_c, 0, 64, 64
1, 206802, Note_on_c, 0, 44, 58
1, 206816, Control_c, 0, 64, 54
1, 206831, Control_c, 0, 64, 44
1, 206846, Control_c, 0, 64, 45
1, 206855, Note_off_c, 0, 48, 57
1, 206856, Note_off_c, 0, 37, 62
1, 206860, Control_c, 0, 64, 55
1, 206875, Control_c, 0, 64, 72
1, 206883, Note_off_c, 0, 44, 52
1, 206890, Control_c, 0, 64, 127
1, 206936, Note_on_c, 0, 44, 44
1, 206940, Note_on_c, 0, 72, 95
1, 206947, Note_on_c, 0, 37, 67
1, 206948, Note_on_c, 0, 48, 64
1, 206969, Note_off_c, 0, 70, 62
1, 206999, Note_off_c, 0, 72, 62
1, 207004, Note_off_c, 0, 48, 58
1, 207016, Note_off_c, 0, 37, 61
1, 207030, Note_off_c, 0, 44, 50
1, 207105, Note_on_c, 0, 44, 34
1, 207108, Note_on_c, 0, 73, 100
1, 207109, Note_on_c, 0, 36, 70
1, 207115, Note_on_c, 0, 48, 63
1, 207205, Note_off_c, 0, 36, 59
1, 207300, Note_on_c, 0, 36, 55
1, 207338, Note_off_c, 0, 48, 24
1, 207360, Note_on_c, 0, 75, 91
1, 207372, Control_c, 0, 64, 85
1, 207382, Note_off_c, 0, 44, 33
1, 207387, Control_c, 0, 64, 68
1, 207398, Note_off_c, 0, 73, 61
1, 207402, Control_c, 0, 64, 54
1, 207416, Control_c, 0, 64, 0
1, 207521, Control_c, 0, 64, 27
1, 207536, Control_c, 0, 64, 49
1, 207543, Note_on_c, 0, 48, 54
1, 207548, Note_on_c, 0, 44, 49
1, 207550, Control_c, 0, 64, 68
1, 207565, Control_c, 0, 64, 127
1, 207595, Note_off_c, 0, 48, 62
1, 207600, Note_off_c, 0, 44, 60
1, 207615, Note_off_c, 0, 75, 59
1, 207627, Note_off_c, 0, 36, 36
1, 207700, Note_on_c, 0, 68, 78
1, 207710, Note_on_c, 0, 44, 57
1, 207715, Note_on_c, 0, 48, 54
1, 207750, Note_off_c, 0, 48, 64
1, 207767, Note_off_c, 0, 68, 58
1, 207779, Note_off_c, 0, 44, 51
1, 207854, Note_on_c, 0, 44, 55
1, 207860, Note_on_c, 0, 48, 58
1, 207867, Note_on_c, 0, 43, 68
1, 207932, Note_off_c, 0, 44, 60
1, 207934, Note_off_c, 0, 48, 59
1, 207937, Note_off_c, 0, 43, 59
1, 208021, Note_on_c, 0, 43, 69
1, 208024, Note_on_c, 0, 48, 66
1, 208025, Note_on_c, 0, 44, 66
1, 208102, Note_off_c, 0, 48, 58
1, 208109, Note_off_c, 0, 43, 60
1, 208112, Note_off_c, 0, 44, 56
1, 208174, Note_on_c, 0, 44, 54
1, 208181, Note_on_c, 0, 48, 66
1, 208183, Note_on_c, 0, 41, 71
1, 208242, Note_off_c, 0, 48, 61
1, 208258, Note_off_c, 0, 44, 57
1, 208260, Note_off_c, 0, 41, 62
1, 208337, Note_on_c, 0, 41, 74
1, 208347, Note_on_c, 0, 48, 69
1, 208350, Note_on_c, 0, 44, 61
1, 208385, Note_off_c, 0, 48, 63
1, 208385, Note_off_c, 0, 44, 55
1, 208403, Note_off_c, 0, 41, 62
1, 208492, Control_c, 0, 64, 73
1, 208506, Control_c, 0, 64, 56
1, 208507, Note_on_c, 0, 80, 91
1, 208514, Note_on_c, 0, 48, 67
1, 208516, Note_on_c, 0, 39, 66
1, 208516, Note_on_c, 0, 44, 58
1, 208521, Control_c, 0, 64, 24
1, 208536, Control_c, 0, 64, 0
1, 208573, Control_c, 0, 64, 25
1, 208588, Control_c, 0, 64, 47
1, 208603, Control_c, 0, 64, 67
1, 208614, Note_off_c, 0, 39, 61
1, 208615, Note_off_c, 0, 48, 57
1, 208618, Control_c, 0, 64, 127
1, 208627, Note_off_c, 0, 44, 58
1, 208703, Note_on_c, 0, 82, 97
1, 208710, Note_on_c, 0, 39, 69
1, 208710, Note_on_c, 0, 48, 65
1, 208711, Note_on_c, 0, 44, 56
1, 208731, Note_off_c, 0, 80, 65
1, 208776, Note_off_c, 0, 48, 58
1, 208777, Note_off_c, 0, 39, 62
1, 208777, Note_off_c, 0, 82, 64
1, 208782, Note_off_c, 0, 44, 58
1, 208874, Note_on_c, 0, 84, 96
1, 208887, Note_on_c, 0, 48, 64
1, 208888, Note_on_c, 0, 39, 67
1, 208900, Note_on_c, 0, 44, 60
1, 208940, Note_off_c, 0, 48, 59
1, 208953, Note_off_c, 0, 44, 52
1, 208955, Note_off_c, 0, 39, 61
1, 209048, Control_c, 0, 64, 79
1, 209062, Control_c, 0, 64, 60
1, 209068, Note_on_c, 0, 85, 93
1, 209075, Note_on_c, 0, 44, 60
1, 209077, Control_c, 0, 64, 30
1, 209081, Note_on_c, 0, 37, 65
1, 209083, Note_on_c, 0, 48, 57
1, 209092, Control_c, 0, 64, 0
1, 209106, Note_off_c, 0, 84, 61
1, 209151, Control_c, 0, 64, 19
1, 209166, Control_c, 0, 64, 44
1, 209181, Control_c, 0, 64, 64
1, 209184, Note_off_c, 0, 37, 60
1, 209196, Control_c, 0, 64, 127
1, 209222, Note_off_c, 0, 48, 33
1, 209229, Note_off_c, 0, 44, 37
1, 209240, Note_off_c, 0, 85, 62
1, 209292, Note_on_c, 0, 44, 39
1, 209300, Note_on_c, 0, 87, 91
1, 209311, Note_on_c, 0, 48, 61
1, 209313, Note_on_c, 0, 36, 61
1, 209413, Note_off_c, 0, 36, 60
1, 209422, Note_off_c, 0, 48, 54
1, 209437, Note_off_c, 0, 44, 58
1, 209523, Note_off_c, 0, 87, 54
1, 209732, Note_on_c, 0, 89, 91
1, 209739, Note_on_c, 0, 44, 57
1, 209742, Note_on_c, 0, 37, 53
1, 209745, Note_on_c, 0, 46, 58
1, 209753, Control_c, 0, 64, 102
1, 209768, Control_c, 0, 64, 92
1, 209783, Control_c, 0, 64, 85
1, 209798, Control_c, 0, 64, 78
1, 209812, Control_c, 0, 64, 73
1, 209827, Control_c, 0, 64, 66
1, 209842, Control_c, 0, 64, 61
1, 209857, Control_c, 0, 64, 53
1, 209872, Control_c, 0, 64, 41
1, 209886, Control_c, 0, 64, 22
1, 209901, Control_c, 0, 64, 0
1, 210116, Control_c, 0, 64, 14
1, 210131, Control_c, 0, 64, 32
1, 210145, Control_c, 0, 64, 46
1, 210160, Control_c, 0, 64, 59
1, 210175, Control_c, 0, 64, 72
1, 210190, Control_c, 0, 64, 99
1, 210202, Note_off_c, 0, 37, 59
1, 210205, Control_c, 0, 64, 127
1, 210227, Note_off_c, 0, 46, 61
1, 210266, Note_off_c, 0, 89, 60
1, 210268, Note_off_c, 0, 44, 60
1, 210589, Control_c, 0, 64, 99
1, 210604, Control_c, 0, 64, 88
1, 210619, Control_c, 0, 64, 79
1, 210633, Control_c, 0, 64, 72
1, 210648, Control_c, 0, 64, 65
1, 210663, Control_c, 0, 64, 60
1, 210678, Control_c, 0, 64, 55
1, 210693, Control_c, 0, 64, 51
1, 210707, Control_c, 0, 64, 48
1, 210722, Control_c, 0, 64, 44
1, 210737, Control_c, 0, 64, 39
1, 210752, Control_c, 0, 64, 29
1, 210767, Control_c, 0, 64, 11
1, 210782, Control_c, 0, 64, 0
1, 210952, Control_c, 0, 64, 23
1, 210967, Control_c, 0, 64, 31
1, 210982, Control_c, 0, 64, 39
1, 210996, Control_c, 0, 64, 48
1, 211011, Control_c, 0, 64, 57
1, 211026, Control_c, 0, 64, 64
1, 211041, Control_c, 0, 64, 70
1, 211056, Control_c, 0, 64, 74
1, 211071, Control_c, 0, 64, 77
1, 211086, Control_c, 0, 64, 83
1, 211101, Control_c, 0, 64, 92
1, 211116, Control_c, 0, 64, 104
1, 211131, Control_c, 0, 64, 127
1, 211205, Note_on_c, 0, 70, 47
1, 211223, Note_on_c, 0, 65, 38
1, 211241, Note_on_c, 0, 50, 21
1, 211242, Note_on_c, 0, 56, 30
1, 211257, Note_off_c, 0, 65, 53
1, 211281, Note_off_c, 0, 70, 58
1, 211382, Control_c, 0, 64, 99
1, 211388, Note_off_c, 0, 50, 39
1, 211393, Note_on_c, 0, 75, 53
1, 211397, Control_c, 0, 64, 77
1, 211402, Note_off_c, 0, 56, 39
1, 211409, Note_on_c, 0, 55, 39
1, 211409, Note_on_c, 0, 67, 44
1, 211412, Note_on_c, 0, 51, 37
1, 211412, Control_c, 0, 64, 62
1, 211427, Control_c, 0, 64, 47
1, 211442, Control_c, 0, 64, 0
1, 211568, Control_c, 0, 64, 11
1, 211582, Control_c, 0, 64, 31
1, 211597, Control_c, 0, 64, 45
1, 211612, Control_c, 0, 64, 58
1, 211627, Control_c, 0, 64, 71
1, 211642, Control_c, 0, 64, 89
1, 211656, Control_c, 0, 64, 105
1, 211671, Control_c, 0, 64, 127
1, 211685, Note_off_c, 0, 51, 61
1, 211729, Note_off_c, 0, 75, 56
1, 211733, Note_off_c, 0, 67, 36
1, 211744, Note_off_c, 0, 55, 41
1, 211938, Note_on_c, 0, 75, 69
1, 211948, Note_on_c, 0, 51, 38
1, 211965, Note_on_c, 0, 67, 57
1, 211976, Note_on_c, 0, 58, 39
1, 212157, Note_on_c, 0, 74, 68
1, 212164, Note_on_c, 0, 56, 43
1, 212175, Note_on_c, 0, 71, 56
1, 212176, Control_c, 0, 64, 95
1, 212183, Note_on_c, 0, 53, 39
1, 212191, Control_c, 0, 64, 75
1, 212205, Control_c, 0, 64, 65
1, 212218, Note_off_c, 0, 67, 36
1, 212220, Control_c, 0, 64, 57
1, 212235, Control_c, 0, 64, 43
1, 212250, Control_c, 0, 64, 17
1, 212265, Control_c, 0, 64, 0
1, 212267, Note_off_c, 0, 51, 40
1, 212270, Note_off_c, 0, 58, 30
1, 212283, Note_off_c, 0, 75, 50
1, 212391, Control_c, 0, 64, 14
1, 212405, Control_c, 0, 64, 24
1, 212420, Control_c, 0, 64, 36
1, 212435, Control_c, 0, 64, 49
1, 212450, Control_c, 0, 64, 61
1, 212465, Control_c, 0, 64, 71
1, 212479, Control_c, 0, 64, 87
1, 212494, Control_c, 0, 64, 97
1, 212510, Control_c, 0, 64, 115
1, 212517, Note_off_c, 0, 56, 63
1, 212525, Control_c, 0, 64, 127
1, 212746, Note_off_c, 0, 71, 51
1, 212817, Note_off_c, 0, 53, 36
1, 212915, Note_off_c, 0, 74, 35
1, 212940, Control_c, 0, 64, 106
1, 212951, Note_on_c, 0, 73, 44
1, 212954, Note_on_c, 0, 58, 25
1, 212955, Control_c, 0, 64, 87
1, 212962, Note_on_c, 0, 55, 33
1, 212970, Control_c, 0, 64, 74
1, 212976, Note_on_c, 0, 64, 27
1, 212985, Control_c, 0, 64, 64
1, 213000, Control_c, 0, 64, 54
1, 213014, Control_c, 0, 64, 35
1, 213029, Control_c, 0, 64, 0
1, 213125, Control_c, 0, 64, 16
1, 213140, Control_c, 0, 64, 32
1, 213155, Control_c, 0, 64, 47
1, 213169, Control_c, 0, 64, 60
1, 213184, Control_c, 0, 64, 73
1, 213199, Control_c, 0, 64, 96
1, 213214, Control_c, 0, 64, 122
1, 213229, Control_c, 0, 64, 127
1, 213273, Note_off_c, 0, 55, 44
1, 213294, Note_off_c, 0, 64, 41
1, 213319, Note_off_c, 0, 58, 52
1, 213358, Note_off_c, 0, 73, 61
1, 213844, Control_c, 0, 64, 97
1, 213858, Control_c, 0, 64, 71
1, 213873, Control_c, 0, 64, 57
1, 213882, Note_on_c, 0, 72, 37
1, 213885, Note_on_c, 0, 60, 31
1, 213886, Note_on_c, 0, 56, 33
1, 213888, Note_on_c, 0, 63, 32
1, 213888, Control_c, 0, 64, 37
1, 213903, Control_c, 0, 64, 0
1, 213933, Control_c, 0, 64, 21
1, 213948, Control_c, 0, 64, 34
1, 213962, Control_c, 0, 64, 49
1, 213977, Control_c, 0, 64, 65
1, 213992, Control_c, 0, 64, 115
1, 214007, Control_c, 0, 64, 127
1, 214018, Note_off_c, 0, 56, 61
1, 214027, Note_off_c, 0, 72, 53
1, 214031, Note_off_c, 0, 63, 41
1, 214071, Note_off_c, 0, 60, 43
1, 214392, Control_c, 0, 64, 95
1, 214398, Note_on_c, 0, 56, 30
1, 214407, Note_on_c, 0, 92, 47
1, 214407, Control_c, 0, 64, 77
1, 214422, Control_c, 0, 64, 65
1, 214424, Note_on_c, 0, 60, 24
1, 214437, Control_c, 0, 64, 55
1, 214452, Control_c, 0, 64, 35
1, 214466, Control_c, 0, 64, 0
1, 214511, Control_c, 0, 64, 16
1, 214526, Control_c, 0, 64, 27
1, 214541, Control_c, 0, 64, 38
1, 214563, Control_c, 0, 64, 52
1, 214578, Control_c, 0, 64, 68
1, 214593, Control_c, 0, 64, 97
1, 214607, Control_c, 0, 64, 127
1, 214634, Note_on_c, 0, 58, 43
1, 214636, Note_on_c, 0, 91, 67
1, 214663, Note_on_c, 0, 61, 39
1, 214681, Note_off_c, 0, 60, 42
1, 214712, Note_off_c, 0, 56, 41
1, 214781, Note_off_c, 0, 61, 57
1, 214807, Note_on_c, 0, 90, 69
1, 214815, Note_on_c, 0, 60, 41
1, 214821, Note_on_c, 0, 63, 47
1, 214853, Note_off_c, 0, 91, 52
1, 214869, Note_off_c, 0, 63, 54
1, 214872, Note_off_c, 0, 92, 36
1, 214881, Note_off_c, 0, 58, 35
1, 214993, Control_c, 0, 64, 107
1, 215001, Note_off_c, 0, 90, 65
1, 215003, Note_off_c, 0, 60, 41
1, 215007, Control_c, 0, 64, 79
1, 215022, Control_c, 0, 64, 65
1, 215024, Note_on_c, 0, 61, 38
1, 215025, Note_on_c, 0, 89, 52
1, 215030, Note_on_c, 0, 65, 42
1, 215037, Control_c, 0, 64, 54
1, 215052, Control_c, 0, 64, 30
1, 215067, Control_c, 0, 64, 0
1, 215097, Note_off_c, 0, 89, 61
1, 215112, Control_c, 0, 64, 12
1, 215122, Note_on_c, 0, 87, 52
1, 215127, Control_c, 0, 64, 27
1, 215142, Control_c, 0, 64, 42
1, 215156, Control_c, 0, 64, 56
1, 215171, Control_c, 0, 64, 71
1, 215186, Control_c, 0, 64, 127
1, 215199, Note_on_c, 0, 85, 53
1, 215204, Note_off_c, 0, 87, 58
1, 215251, Note_off_c, 0, 85, 63
1, 215286, Note_on_c, 0, 84, 50
1, 215315, Note_off_c, 0, 84, 59
1, 215361, Note_on_c, 0, 83, 60
1, 215426, Note_off_c, 0, 83, 65
1, 215442, Note_on_c, 0, 82, 60
1, 215465, Note_off_c, 0, 65, 42
1, 215504, Note_off_c, 0, 82, 63
1, 215525, Note_on_c, 0, 81, 63
1, 215537, Note_off_c, 0, 61, 54
1, 215581, Note_off_c, 0, 81, 60
1, 215608, Note_on_c, 0, 80, 60
1, 215623, Control_c, 0, 64, 105
1, 215638, Control_c, 0, 64, 81
1, 215653, Control_c, 0, 64, 68
1, 215655, Note_off_c, 0, 80, 59
1, 215667, Control_c, 0, 64, 58
1, 215682, Control_c, 0, 64, 43
1, 215683, Note_on_c, 0, 79, 61
1, 215697, Control_c, 0, 64, 18
1, 215712, Control_c, 0, 64, 9
1, 215727, Control_c, 0, 64, 22
1, 215736, Note_off_c, 0, 79, 48
1, 215742, Control_c, 0, 64, 32
1, 215756, Control_c, 0, 64, 44
1, 215768, Note_on_c, 0, 78, 56
1, 215771, Control_c, 0, 64, 58
1, 215786, Control_c, 0, 64, 72
1, 215801, Control_c, 0, 64, 108
1, 215816, Control_c, 0, 64, 127
1, 215845, Note_off_c, 0, 78, 58
1, 215856, Note_on_c, 0, 77, 42
1, 215876, Control_c, 0, 64, 110
1, 215888, Note_off_c, 0, 77, 55
1, 215891, Control_c, 0, 64, 80
1, 215906, Control_c, 0, 64, 66
1, 215920, Control_c, 0, 64, 52
1, 215922, Note_on_c, 0, 76, 44
1, 215935, Control_c, 0, 64, 34
1, 215950, Control_c, 0, 64, 29
1, 215961, Note_on_c, 0, 49, 33
1, 215965, Control_c, 0, 64, 35
1, 215972, Note_on_c, 0, 56, 28
1, 215979, Control_c, 0, 64, 43
1, 215994, Control_c, 0, 64, 55
1, 215996, Note_off_c, 0, 76, 64
1, 216007, Note_on_c, 0, 53, 15
1, 216009, Control_c, 0, 64, 68
1, 216012, Note_on_c, 0, 75, 58
1, 216022, Note_off_c, 0, 49, 45
1, 216024, Note_off_c, 0, 56, 46
1, 216024, Control_c, 0, 64, 99
1, 216039, Control_c, 0, 64, 127
1, 216061, Note_off_c, 0, 53, 53
1, 216096, Note_off_c, 0, 75, 61
1, 216101, Note_on_c, 0, 73, 59
1, 216155, Note_on_c, 0, 56, 40
1, 216157, Note_off_c, 0, 73, 64
1, 216176, Note_on_c, 0, 72, 58
1, 216179, Note_on_c, 0, 53, 35
1, 216198, Note_on_c, 0, 50, 20
1, 216228, Note_off_c, 0, 53, 46
1, 216237, Note_off_c, 0, 56, 39
1, 216248, Note_off_c, 0, 50, 48
1, 216250, Note_off_c, 0, 72, 62
1, 216257, Note_on_c, 0, 70, 69
1, 216287, Note_off_c, 0, 70, 63
1, 216328, Control_c, 0, 64, 105
1, 216343, Control_c, 0, 64, 88
1, 216358, Control_c, 0, 64, 75
1, 216372, Control_c, 0, 64, 64
1, 216387, Control_c, 0, 64, 52
1, 216402, Control_c, 0, 64, 18
1, 216403, Note_on_c, 0, 51, 36
1, 216403, Note_on_c, 0, 75, 52
1, 216404, Note_on_c, 0, 70, 29
1, 216404, Note_on_c, 0, 55, 37
1, 216417, Control_c, 0, 64, 0
1, 216463, Note_off_c, 0, 70, 0
1, 216463, Note_on_c, 0, 70, 3
1, 216520, Control_c, 0, 64, 30
1, 216535, Control_c, 0, 64, 44
1, 216550, Control_c, 0, 64, 58
1, 216565, Control_c, 0, 64, 70
1, 216580, Control_c, 0, 64, 87
1, 216582, Note_off_c, 0, 75, 58
1, 216584, Note_off_c, 0, 55, 56
1, 216595, Control_c, 0, 64, 94
1, 216598, Note_off_c, 0, 51, 57
1, 216609, Control_c, 0, 64, 100
1, 216610, Note_off_c, 0, 70, 39
1, 216624, Control_c, 0, 64, 110
1, 216639, Control_c, 0, 64, 127
1, 216810, Control_c, 0, 64, 122
1, 216825, Control_c, 0, 64, 100
1, 216840, Control_c, 0, 64, 88
1, 216855, Control_c, 0, 64, 79
1, 216870, Control_c, 0, 64, 73
1, 216884, Control_c, 0, 64, 67
1, 216899, Control_c, 0, 64, 62
1, 216914, Control_c, 0, 64, 53
1, 216928, Control_c, 0, 64, 35
1, 216943, Control_c, 0, 64, 0
1, 217054, Note_on_c, 0, 51, 22
1, 217054, Note_on_c, 0, 75, 44
1, 217057, Note_on_c, 0, 58, 20
1, 217062, Control_c, 0, 64, 20
1, 217074, Note_on_c, 0, 67, 35
1, 217076, Control_c, 0, 64, 37
1, 217091, Control_c, 0, 64, 51
1, 217106, Control_c, 0, 64, 64
1, 217120, Control_c, 0, 64, 82
1, 217134, Note_off_c, 0, 67, 58
1, 217135, Control_c, 0, 64, 103
1, 217150, Control_c, 0, 64, 113
1, 217161, Note_off_c, 0, 58, 39
1, 217165, Control_c, 0, 64, 127
1, 217182, Note_off_c, 0, 75, 59
1, 217328, Control_c, 0, 64, 107
1, 217343, Control_c, 0, 64, 90
1, 217352, Note_on_c, 0, 60, 32
1, 217358, Control_c, 0, 64, 76
1, 217358, Note_on_c, 0, 75, 47
1, 217371, Note_on_c, 0, 68, 26
1, 217373, Control_c, 0, 64, 66
1, 217377, Note_on_c, 0, 56, 33
1, 217387, Control_c, 0, 64, 56
1, 217394, Note_off_c, 0, 51, 36
1, 217402, Control_c, 0, 64, 37
1, 217417, Control_c, 0, 64, 0
1, 217522, Control_c, 0, 64, 15
1, 217537, Control_c, 0, 64, 33
1, 217558, Control_c, 0, 64, 45
1, 217573, Control_c, 0, 64, 58
1, 217588, Control_c, 0, 64, 68
1, 217603, Control_c, 0, 64, 82
1, 217618, Control_c, 0, 64, 91
1, 217632, Control_c, 0, 64, 96
1, 217647, Control_c, 0, 64, 108
1, 217659, Note_off_c, 0, 68, 41
1, 217662, Control_c, 0, 64, 127
1, 217753, Note_off_c, 0, 60, 41
1, 217931, Note_on_c, 0, 61, 32
1, 217934, Note_on_c, 0, 77, 47
1, 218033, Note_off_c, 0, 75, 34
1, 218096, Note_off_c, 0, 61, 46
1, 218138, Note_on_c, 0, 75, 65
1, 218151, Note_on_c, 0, 60, 31
1, 218223, Note_off_c, 0, 77, 36
1, 218264, Note_off_c, 0, 56, 41
1, 218332, Note_on_c, 0, 58, 46
1, 218333, Note_on_c, 0, 73, 65
1, 218411, Control_c, 0, 64, 115
1, 218426, Control_c, 0, 64, 107
1, 218441, Control_c, 0, 64, 100
1, 218455, Control_c, 0, 64, 94
1, 218470, Control_c, 0, 64, 89
1, 218473, Note_off_c, 0, 60, 37
1, 218485, Control_c, 0, 64, 86
1, 218493, Note_on_c, 0, 56, 50
1, 218498, Note_on_c, 0, 72, 72
1, 218500, Control_c, 0, 64, 82
1, 218515, Control_c, 0, 64, 80
1, 218518, Note_off_c, 0, 75, 22
1, 218529, Control_c, 0, 64, 78
1, 218544, Control_c, 0, 64, 77
1, 218559, Control_c, 0, 64, 76
1, 218574, Control_c, 0, 64, 74
1, 218577, Note_off_c, 0, 73, 36
1, 218577, Note_off_c, 0, 58, 27
1, 218589, Control_c, 0, 64, 73
1, 218604, Control_c, 0, 64, 72
1, 218619, Control_c, 0, 64, 70
1, 218633, Control_c, 0, 64, 69
1, 218648, Control_c, 0, 64, 68
1, 218663, Control_c, 0, 64, 67
1, 218663, Note_on_c, 0, 70, 75
1, 218666, Note_off_c, 0, 72, 60
1, 218674, Note_on_c, 0, 55, 49
1, 218678, Control_c, 0, 64, 66
1, 218692, Control_c, 0, 64, 66
1, 218693, Note_off_c, 0, 56, 55
1, 218707, Control_c, 0, 64, 65
1, 218766, Control_c, 0, 64, 65
1, 218807, Note_off_c, 0, 55, 63
1, 218823, Note_on_c, 0, 56, 62
1, 218826, Control_c, 0, 64, 64
1, 218828, Note_on_c, 0, 72, 73
1, 218840, Note_off_c, 0, 70, 60
1, 218855, Control_c, 0, 64, 64
1, 218870, Control_c, 0, 64, 63
1, 218885, Control_c, 0, 64, 63
1, 218899, Control_c, 0, 64, 62
1, 218914, Control_c, 0, 64, 62
1, 218929, Control_c, 0, 64, 61
1, 218944, Control_c, 0, 64, 59
1, 218959, Control_c, 0, 64, 58
1, 218973, Control_c, 0, 64, 55
1, 218988, Control_c, 0, 64, 53
1, 219000, Note_off_c, 0, 72, 60
1, 219003, Control_c, 0, 64, 49
1, 219012, Note_on_c, 0, 58, 37
1, 219013, Note_on_c, 0, 51, 41
1, 219018, Note_on_c, 0, 73, 57
1, 219018, Control_c, 0, 64, 44
1, 219033, Control_c, 0, 64, 34
1, 219047, Note_on_c, 0, 68, 35
1, 219055, Control_c, 0, 64, 12
1, 219062, Note_off_c, 0, 56, 26
1, 219071, Control_c, 0, 64, 0
1, 219201, Note_on_c, 0, 65, 50
1, 219212, Note_off_c, 0, 68, 41
1, 219219, Control_c, 0, 64, 17
1, 219234, Control_c, 0, 64, 30
1, 219250, Control_c, 0, 64, 41
1, 219265, Control_c, 0, 64, 56
1, 219279, Control_c, 0, 64, 66
1, 219294, Control_c, 0, 64, 83
1, 219309, Control_c, 0, 64, 101
1, 219323, Control_c, 0, 64, 114
1, 219338, Control_c, 0, 64, 127
1, 219382, Note_off_c, 0, 58, 51
1, 219389, Note_on_c, 0, 68, 62
1, 219446, Note_off_c, 0, 51, 64
1, 219557, Note_on_c, 0, 67, 62
1, 219571, Note_off_c, 0, 65, 40
1, 219580, Note_off_c, 0, 73, 57
1, 219599, Note_off_c, 0, 68, 52
1, 219694, Control_c, 0, 64, 114
1, 219709, Control_c, 0, 64, 102
1, 219723, Control_c, 0, 64, 93
1, 219738, Control_c, 0, 64, 84
1, 219753, Control_c, 0, 64, 76
1, 219768, Control_c, 0, 64, 66
1, 219769, Note_on_c, 0, 44, 40
1, 219773, Note_off_c, 0, 67, 58
1, 219783, Control_c, 0, 64, 56
1, 219787, Note_on_c, 0, 56, 31
1, 219805, Control_c, 0, 64, 36
1, 219805, Note_on_c, 0, 68, 38
1, 219812, Note_on_c, 0, 72, 44
1, 219820, Control_c, 0, 64, 0
1, 219909, Control_c, 0, 64, 21
1, 219924, Control_c, 0, 64, 37
1, 219939, Control_c, 0, 64, 52
1, 219954, Control_c, 0, 64, 64
1, 219966, Note_off_c, 0, 72, 55
1, 219969, Control_c, 0, 64, 76
1, 219984, Control_c, 0, 64, 86
1, 219999, Control_c, 0, 64, 88
1, 220014, Note_off_c, 0, 68, 59
1, 220014, Control_c, 0, 64, 90
1, 220028, Note_on_c, 0, 63, 49
1, 220028, Control_c, 0, 64, 92
1, 220041, Note_on_c, 0, 48, 35
1, 220043, Control_c, 0, 64, 93
1, 220067, Note_off_c, 0, 56, 42
1, 220069, Note_off_c, 0, 63, 67
1, 220146, Control_c, 0, 64, 93
1, 220161, Control_c, 0, 64, 92
1, 220176, Control_c, 0, 64, 91
1, 220191, Control_c, 0, 64, 90
1, 220195, Note_on_c, 0, 65, 61
1, 220206, Control_c, 0, 64, 89
1, 220208, Note_on_c, 0, 49, 48
1, 220209, Note_off_c, 0, 48, 45
1, 220220, Control_c, 0, 64, 87
1, 220235, Control_c, 0, 64, 86
1, 220250, Control_c, 0, 64, 84
1, 220265, Control_c, 0, 64, 82
1, 220271, Note_off_c, 0, 44, 38
1, 220280, Control_c, 0, 64, 81
1, 220294, Control_c, 0, 64, 79
1, 220309, Control_c, 0, 64, 77
1, 220324, Control_c, 0, 64, 74
1, 220339, Control_c, 0, 64, 72
1, 220353, Control_c, 0, 64, 70
1, 220354, Note_on_c, 0, 63, 65
1, 220362, Note_off_c, 0, 49, 51
1, 220363, Note_on_c, 0, 48, 49
1, 220368, Control_c, 0, 64, 68
1, 220383, Control_c, 0, 64, 67
1, 220398, Control_c, 0, 64, 67
1, 220406, Note_off_c, 0, 65, 59
1, 220413, Control_c, 0, 64, 65
1, 220428, Control_c, 0, 64, 64
1, 220443, Control_c, 0, 64, 63
1, 220458, Control_c, 0, 64, 62
1, 220472, Control_c, 0, 64, 60
1, 220487, Control_c, 0, 64, 57
1, 220488, Note_off_c, 0, 48, 52
1, 220502, Control_c, 0, 64, 53
1, 220511, Note_on_c, 0, 46, 55
1, 220517, Control_c, 0, 64, 49
1, 220525, Note_on_c, 0, 61, 67
1, 220532, Control_c, 0, 64, 47
1, 220553, Control_c, 0, 64, 45
1, 220568, Control_c, 0, 64, 44
1, 220583, Control_c, 0, 64, 43
1, 220598, Control_c, 0, 64, 42
1, 220613, Control_c, 0, 64, 40
1, 220628, Control_c, 0, 64, 38
1, 220634, Note_off_c, 0, 63, 35
1, 220643, Control_c, 0, 64, 35
1, 220658, Control_c, 0, 64, 32
1, 220673, Control_c, 0, 64, 29
1, 220688, Control_c, 0, 64, 26
1, 220698, Note_on_c, 0, 60, 66
1, 220702, Control_c, 0, 64, 23
1, 220703, Note_on_c, 0, 44, 50
1, 220717, Control_c, 0, 64, 20
1, 220723, Note_off_c, 0, 61, 49
1, 220732, Control_c, 0, 64, 15
1, 220747, Control_c, 0, 64, 9
1, 220762, Control_c, 0, 64, 0
1, 220793, Note_off_c, 0, 46, 41
1, 220867, Note_off_c, 0, 60, 62
1, 220869, Note_off_c, 0, 44, 56
1, 220872, Note_on_c, 0, 58, 59
1, 220897, Note_on_c, 0, 43, 47
1, 221014, Control_c, 0, 64, 24
1, 221029, Control_c, 0, 64, 37
1, 221034, Note_off_c, 0, 43, 57
1, 221041, Note_on_c, 0, 60, 55
1, 221042, Note_on_c, 0, 44, 36
1, 221043, Control_c, 0, 64, 49
1, 221055, Note_off_c, 0, 58, 58
1, 221058, Control_c, 0, 64, 59
1, 221073, Control_c, 0, 64, 68
1, 221087, Control_c, 0, 64, 74
1, 221102, Control_c, 0, 64, 77
1, 221117, Control_c, 0, 64, 78
1, 221123, Note_off_c, 0, 60, 64
1, 221191, Control_c, 0, 64, 78
1, 221206, Control_c, 0, 64, 75
1, 221221, Control_c, 0, 64, 72
1, 221236, Control_c, 0, 64, 66
1, 221251, Note_on_c, 0, 61, 55
1, 221251, Control_c, 0, 64, 60
1, 221258, Note_on_c, 0, 46, 40
1, 221260, Note_on_c, 0, 39, 38
1, 221266, Control_c, 0, 64, 44
1, 221268, Note_on_c, 0, 68, 41
1, 221281, Control_c, 0, 64, 0
1, 221304, Note_off_c, 0, 44, 39
1, 221421, Control_c, 0, 64, 20
1, 221436, Control_c, 0, 64, 35
1, 221450, Control_c, 0, 64, 48
1, 221459, Note_on_c, 0, 65, 42
1, 221466, Control_c, 0, 64, 61
1, 221471, Note_off_c, 0, 68, 38
1, 221481, Control_c, 0, 64, 69
1, 221495, Control_c, 0, 64, 77
1, 221510, Control_c, 0, 64, 81
1, 221525, Control_c, 0, 64, 83
1, 221540, Control_c, 0, 64, 86
1, 221555, Control_c, 0, 64, 89
1, 221570, Control_c, 0, 64, 92
1, 221585, Control_c, 0, 64, 93
1, 221595, Note_off_c, 0, 46, 61
1, 221599, Control_c, 0, 64, 94
1, 221617, Note_off_c, 0, 65, 64
1, 221664, Note_on_c, 0, 68, 43
1, 221699, Note_off_c, 0, 39, 58
1, 221838, Note_off_c, 0, 68, 59
1, 221848, Note_on_c, 0, 67, 44
1, 221864, Note_off_c, 0, 61, 37
1, 221999, Control_c, 0, 64, 93
1, 222029, Control_c, 0, 64, 92
1, 222051, Control_c, 0, 64, 91
1, 222065, Control_c, 0, 64, 89
1, 222080, Control_c, 0, 64, 86
1, 222093, Note_off_c, 0, 67, 54
1, 222095, Control_c, 0, 64, 82
1, 222110, Control_c, 0, 64, 76
1, 222111, Note_on_c, 0, 32, 30
1, 222124, Control_c, 0, 64, 68
1, 222127, Note_on_c, 0, 60, 46
1, 222128, Note_on_c, 0, 44, 30
1, 222130, Note_on_c, 0, 70, 44
1, 222139, Control_c, 0, 64, 62
1, 222154, Control_c, 0, 64, 50
1, 222169, Control_c, 0, 64, 24
1, 222184, Control_c, 0, 64, 0
1, 222288, Control_c, 0, 64, 24
1, 222303, Control_c, 0, 64, 39
1, 222318, Control_c, 0, 64, 54
1, 222333, Control_c, 0, 64, 65
1, 222348, Control_c, 0, 64, 75
1, 222348, Note_off_c, 0, 70, 41
1, 222363, Control_c, 0, 64, 81
1, 222378, Control_c, 0, 64, 85
1, 222378, Note_on_c, 0, 67, 39
1, 222392, Control_c, 0, 64, 90
1, 222407, Control_c, 0, 64, 97
1, 222422, Control_c, 0, 64, 103
1, 222437, Control_c, 0, 64, 108
1, 222452, Control_c, 0, 64, 113
1, 222455, Note_off_c, 0, 44, 46
1, 222467, Control_c, 0, 64, 115
1, 222467, Note_off_c, 0, 32, 40
1, 222511, Control_c, 0, 64, 117
1, 222517, Note_off_c, 0, 67, 47
1, 222546, Note_on_c, 0, 70, 46
1, 222586, Note_off_c, 0, 60, 40
1, 222679, Note_off_c, 0, 70, 56
1, 222709, Note_on_c, 0, 68, 51
1, 222800, Control_c, 0, 64, 113
1, 222814, Control_c, 0, 64, 108
1, 222829, Control_c, 0, 64, 104
1, 222844, Control_c, 0, 64, 98
1, 222859, Control_c, 0, 64, 91
1, 222873, Control_c, 0, 64, 84
1, 222878, Note_on_c, 0, 32, 30
1, 222888, Control_c, 0, 64, 75
1, 222890, Note_on_c, 0, 44, 26
1, 222893, Note_off_c, 0, 68, 52
1, 222903, Control_c, 0, 64, 67
1, 222906, Note_on_c, 0, 39, 33
1, 222916, Note_on_c, 0, 73, 46
1, 222918, Control_c, 0, 64, 58
1, 222928, Note_on_c, 0, 36, 31
1, 222933, Control_c, 0, 64, 41
1, 222947, Control_c, 0, 64, 0
1, 222969, Note_off_c, 0, 73, 0
1, 222969, Note_on_c, 0, 73, 17
1, 223036, Control_c, 0, 64, 18
1, 223051, Control_c, 0, 64, 34
1, 223067, Control_c, 0, 64, 48
1, 223074, Note_on_c, 0, 71, 46
1, 223082, Control_c, 0, 64, 62
1, 223090, Note_off_c, 0, 73, 45
1, 223096, Control_c, 0, 64, 72
1, 223111, Control_c, 0, 64, 78
1, 223126, Control_c, 0, 64, 79
1, 223141, Control_c, 0, 64, 81
1, 223156, Control_c, 0, 64, 83
1, 223170, Control_c, 0, 64, 87
1, 223185, Control_c, 0, 64, 90
1, 223200, Control_c, 0, 64, 92
1, 223215, Control_c, 0, 64, 93
1, 223228, Note_off_c, 0, 71, 62
1, 223230, Control_c, 0, 64, 94
1, 223242, Note_on_c, 0, 73, 54
1, 223245, Control_c, 0, 64, 95
1, 223260, Control_c, 0, 64, 96
1, 223275, Control_c, 0, 64, 96
1, 223334, Control_c, 0, 64, 97
1, 223377, Note_off_c, 0, 73, 61
1, 223407, Note_on_c, 0, 72, 53
1, 223481, Control_c, 0, 64, 94
1, 223496, Control_c, 0, 64, 91
1, 223511, Control_c, 0, 64, 87
1, 223526, Control_c, 0, 64, 83
1, 223549, Control_c, 0, 64, 78
1, 223563, Control_c, 0, 64, 70
1, 223578, Control_c, 0, 64, 63
1, 223585, Note_off_c, 0, 72, 50
1, 223593, Control_c, 0, 64, 54
1, 223597, Note_on_c, 0, 77, 55
1, 223608, Control_c, 0, 64, 34
1, 223623, Control_c, 0, 64, 0
1, 223711, Control_c, 0, 64, 11
1, 223726, Control_c, 0, 64, 28
1, 223740, Control_c, 0, 64, 42
1, 223755, Control_c, 0, 64, 57
1, 223764, Note_on_c, 0, 74, 52
1, 223770, Control_c, 0, 64, 67
1, 223784, Control_c, 0, 64, 79
1, 223797, Note_off_c, 0, 77, 37
1, 223799, Control_c, 0, 64, 86
1, 223814, Control_c, 0, 64, 91
1, 223829, Control_c, 0, 64, 97
1, 223844, Control_c, 0, 64, 108
1, 223859, Control_c, 0, 64, 127
1, 223922, Note_on_c, 0, 77, 63
1, 223953, Note_off_c, 0, 74, 50
1, 224079, Note_off_c, 0, 32, 39
1, 224079, Note_off_c, 0, 77, 57
1, 224092, Note_on_c, 0, 75, 56
1, 224132, Note_off_c, 0, 36, 39
1, 224167, Note_off_c, 0, 39, 50
1, 224173, Note_off_c, 0, 44, 40
1, 224262, Note_on_c, 0, 82, 64
1, 224291, Note_off_c, 0, 75, 59
1, 224381, Note_off_c, 0, 82, 65
1, 224428, Note_on_c, 0, 79, 67
1, 224592, Note_on_c, 0, 82, 70
1, 224645, Note_off_c, 0, 79, 51
1, 224743, Note_on_c, 0, 80, 69
1, 224759, Note_off_c, 0, 82, 63
1, 224846, Control_c, 0, 64, 117
1, 224860, Control_c, 0, 64, 108
1, 224875, Control_c, 0, 64, 99
1, 224890, Control_c, 0, 64, 88
1, 224905, Control_c, 0, 64, 78
1, 224920, Control_c, 0, 64, 68
1, 224927, Note_on_c, 0, 44, 31
1, 224934, Control_c, 0, 64, 60
1, 224941, Note_on_c, 0, 51, 34
1, 224944, Note_on_c, 0, 56, 34
1, 224944, Note_on_c, 0, 85, 53
1, 224949, Control_c, 0, 64, 47
1, 224954, Note_on_c, 0, 48, 33
1, 224962, Note_off_c, 0, 80, 48
1, 224964, Control_c, 0, 64, 20
1, 224979, Control_c, 0, 64, 0
1, 225007, Note_off_c, 0, 56, 0
1, 225007, Note_on_c, 0, 56, 3
1, 225060, Control_c, 0, 64, 14
1, 225075, Control_c, 0, 64, 30
1, 225090, Control_c, 0, 64, 46
1, 225105, Control_c, 0, 64, 61
1, 225114, Note_off_c, 0, 85, 60
1, 225120, Control_c, 0, 64, 76
1, 225127, Note_on_c, 0, 83, 55
1, 225134, Control_c, 0, 64, 103
1, 225149, Control_c, 0, 64, 127
1, 225180, Note_off_c, 0, 44, 49
1, 225200, Note_off_c, 0, 48, 41
1, 225249, Note_off_c, 0, 51, 61
1, 225263, Note_off_c, 0, 56, 56
1, 225288, Note_off_c, 0, 83, 64
1, 225310, Note_on_c, 0, 85, 51
1, 225449, Note_off_c, 0, 85, 62
1, 225479, Note_on_c, 0, 84, 55
1, 225609, Control_c, 0, 64, 105
1, 225624, Control_c, 0, 64, 89
1, 225636, Note_off_c, 0, 84, 58
1, 225639, Control_c, 0, 64, 77
1, 225654, Control_c, 0, 64, 67
1, 225654, Note_on_c, 0, 56, 35
1, 225668, Note_on_c, 0, 63, 32
1, 225668, Control_c, 0, 64, 56
1, 225669, Note_on_c, 0, 89, 45
1, 225671, Note_on_c, 0, 60, 36
1, 225683, Control_c, 0, 64, 35
1, 225698, Control_c, 0, 64, 0
1, 225715, Note_off_c, 0, 89, 0
1, 225715, Note_on_c, 0, 89, 4
1, 225746, Note_off_c, 0, 60, 0
1, 225746, Note_on_c, 0, 60, 4
1, 225794, Control_c, 0, 64, 17
1, 225809, Control_c, 0, 64, 32
1, 225824, Control_c, 0, 64, 46
1, 225838, Control_c, 0, 64, 60
1, 225853, Control_c, 0, 64, 79
1, 225859, Note_on_c, 0, 86, 49
1, 225868, Control_c, 0, 64, 103
1, 225875, Note_off_c, 0, 89, 44
1, 225883, Control_c, 0, 64, 122
1, 225898, Control_c, 0, 64, 127
1, 225987, Note_off_c, 0, 63, 46
1, 226011, Note_off_c, 0, 60, 51
1, 226029, Note_off_c, 0, 56, 42
1, 226069, Note_on_c, 0, 89, 42
1, 226260, Note_on_c, 0, 87, 45
1, 226291, Note_off_c, 0, 86, 32
1, 226297, Note_off_c, 0, 89, 33
1, 226339, Note_off_c, 0, 87, 51
1, 226521, Control_c, 0, 64, 114
1, 226544, Control_c, 0, 64, 103
1, 226559, Control_c, 0, 64, 94
1, 226574, Control_c, 0, 64, 86
1, 226577, Note_on_c, 0, 58, 21
1, 226581, Note_on_c, 0, 56, 23
1, 226588, Control_c, 0, 64, 78
1, 226589, Note_on_c, 0, 53, 15
1, 226603, Control_c, 0, 64, 70
1, 226609, Note_on_c, 0, 87, 32
1, 226618, Control_c, 0, 64, 63
1, 226622, Poly_aftertouch_c, 0, 62, 127
1, 226632, Control_c, 0, 64, 53
1, 226647, Control_c, 0, 64, 30
1, 226662, Control_c, 0, 64, 0
1, 226751, Control_c, 0, 64, 22
1, 226766, Control_c, 0, 64, 36
1, 226781, Control_c, 0, 64, 50
1, 226795, Control_c, 0, 64, 64
1, 226810, Control_c, 0, 64, 95
1, 226825, Control_c, 0, 64, 127
1, 226835, Note_off_c, 0, 87, 44
1, 226837, Note_on_c, 0, 84, 42
1, 226909, Note_off_c, 0, 53, 41
1, 226911, Poly_aftertouch_c, 0, 62, 0
1, 226959, Note_off_c, 0, 58, 40
1, 226959, Note_off_c, 0, 84, 55
1, 226960, Note_off_c, 0, 56, 42
1, 227006, Note_on_c, 0, 87, 36
1, 227122, Note_off_c, 0, 87, 56
1, 227172, Note_on_c, 0, 86, 40
1, 227371, Note_on_c, 0, 53, 27
1, 227376, Note_on_c, 0, 58, 21
1, 227389, Note_on_c, 0, 96, 48
1, 227404, Note_on_c, 0, 56, 13
1, 227418, Poly_aftertouch_c, 0, 62, 127
1, 227572, Note_on_c, 0, 93, 59
1, 227583, Note_off_c, 0, 96, 55
1, 227723, Note_on_c, 0, 96, 65
1, 227727, Note_off_c, 0, 93, 58
1, 227889, Note_on_c, 0, 94, 64
1, 227899, Note_off_c, 0, 96, 58
1, 227940, Note_off_c, 0, 94, 62
1, 228074, Note_on_c, 0, 87, 58
1, 228105, Note_off_c, 0, 86, 41
1, 228197, Note_off_c, 0, 53, 43
1, 228233, Poly_aftertouch_c, 0, 62, 0
1, 228247, Note_off_c, 0, 87, 62
1, 228253, Note_on_c, 0, 84, 64
1, 228370, Note_off_c, 0, 56, 41
1, 228378, Note_off_c, 0, 58, 42
1, 228394, Note_off_c, 0, 84, 59
1, 228409, Note_on_c, 0, 87, 63
1, 228547, Note_off_c, 0, 87, 62
1, 228567, Note_on_c, 0, 86, 58
1, 228694, Control_c, 0, 64, 106
1, 228708, Control_c, 0, 64, 81
1, 228718, Note_off_c, 0, 86, 59
1, 228721, Note_on_c, 0, 58, 43
1, 228722, Note_on_c, 0, 63, 42
1, 228723, Control_c, 0, 64, 64
1, 228726, Note_on_c, 0, 51, 42
1, 228738, Control_c, 0, 64, 49
1, 228741, Note_on_c, 0, 89, 53
1, 228743, Note_on_c, 0, 55, 40
1, 228753, Control_c, 0, 64, 14
1, 228768, Control_c, 0, 64, 0
1, 228849, Control_c, 0, 64, 27
1, 228864, Control_c, 0, 64, 44
1, 228879, Control_c, 0, 64, 60
1, 228894, Control_c, 0, 64, 78
1, 228903, Note_on_c, 0, 86, 64
1, 228908, Control_c, 0, 64, 127
1, 228909, Note_off_c, 0, 89, 54
1, 229022, Note_off_c, 0, 51, 52
1, 229026, Note_off_c, 0, 63, 50
1, 229076, Note_on_c, 0, 89, 67
1, 229085, Note_off_c, 0, 58, 60
1, 229093, Note_off_c, 0, 55, 42
1, 229225, Note_off_c, 0, 89, 65
1, 229228, Note_on_c, 0, 87, 72
1, 229311, Note_off_c, 0, 87, 64
1, 229403, Note_on_c, 0, 51, 41
1, 229421, Note_on_c, 0, 58, 40
1, 229426, Note_on_c, 0, 63, 35
1, 229441, Control_c, 0, 64, 103
1, 229447, Note_on_c, 0, 55, 36
1, 229457, Control_c, 0, 64, 80
1, 229472, Control_c, 0, 64, 67
1, 229480, Note_on_c, 0, 96, 70
1, 229487, Control_c, 0, 64, 56
1, 229502, Control_c, 0, 64, 43
1, 229517, Control_c, 0, 64, 29
1, 229538, Control_c, 0, 64, 28
1, 229553, Control_c, 0, 64, 35
1, 229568, Control_c, 0, 64, 45
1, 229583, Control_c, 0, 64, 58
1, 229598, Control_c, 0, 64, 70
1, 229612, Control_c, 0, 64, 101
1, 229627, Control_c, 0, 64, 127
1, 229655, Note_on_c, 0, 93, 73
1, 229708, Note_off_c, 0, 96, 60
1, 229746, Note_off_c, 0, 51, 35
1, 229751, Note_off_c, 0, 63, 41
1, 229778, Note_off_c, 0, 58, 61
1, 229783, Note_off_c, 0, 55, 45
1, 229819, Note_on_c, 0, 96, 79
1, 229825, Note_off_c, 0, 93, 63
1, 229982, Note_on_c, 0, 94, 75
1, 230021, Note_off_c, 0, 96, 54
1, 230128, Note_on_c, 0, 51, 36
1, 230129, Note_on_c, 0, 58, 38
1, 230132, Note_off_c, 0, 86, 30
1, 230141, Note_on_c, 0, 63, 40
1, 230147, Note_on_c, 0, 89, 68
1, 230149, Note_on_c, 0, 55, 37
1, 230219, Note_off_c, 0, 94, 61
1, 230315, Note_off_c, 0, 89, 64
1, 230317, Note_on_c, 0, 86, 70
1, 230328, Note_off_c, 0, 51, 40
1, 230337, Note_off_c, 0, 63, 56
1, 230381, Note_off_c, 0, 55, 40
1, 230415, Note_off_c, 0, 58, 56
1, 230480, Note_on_c, 0, 89, 76
1, 230641, Note_on_c, 0, 87, 75
1, 230650, Note_off_c, 0, 89, 61
1, 230688, Note_off_c, 0, 86, 42
1, 230716, Note_off_c, 0, 87, 62
1, 230806, Control_c, 0, 64, 96
1, 230808, Note_on_c, 0, 62, 29
1, 230813, Note_on_c, 0, 56, 29
1, 230816, Note_on_c, 0, 58, 30
1, 230821, Control_c, 0, 64, 78
1, 230826, Note_on_c, 0, 53, 30
1, 230836, Control_c, 0, 64, 66
1, 230851, Control_c, 0, 64, 53
1, 230861, Note_on_c, 0, 87, 62
1, 230866, Control_c, 0, 64, 15
1, 230880, Control_c, 0, 64, 0
1, 230969, Control_c, 0, 64, 13
1, 230984, Control_c, 0, 64, 35
1, 230998, Control_c, 0, 64, 50
1, 231013, Control_c, 0, 64, 67
1, 231036, Control_c, 0, 64, 92
1, 231051, Control_c, 0, 64, 127
1, 231052, Note_on_c, 0, 84, 61
1, 231066, Note_off_c, 0, 87, 61
1, 231137, Note_off_c, 0, 62, 40
1, 231143, Note_off_c, 0, 53, 42
1, 231189, Note_off_c, 0, 58, 45
1, 231208, Note_off_c, 0, 84, 54
1, 231219, Note_off_c, 0, 56, 42
1, 231231, Note_on_c, 0, 87, 58
1, 231361, Note_off_c, 0, 87, 63
1, 231399, Note_on_c, 0, 86, 49
1, 231586, Note_on_c, 0, 53, 27
1, 231597, Note_on_c, 0, 62, 23
1, 231600, Control_c, 0, 64, 108
1, 231601, Note_on_c, 0, 56, 27
1, 231601, Note_on_c, 0, 58, 29
1, 231615, Control_c, 0, 64, 88
1, 231629, Control_c, 0, 64, 73
1, 231642, Note_on_c, 0, 96, 37
1, 231644, Control_c, 0, 64, 63
1, 231659, Control_c, 0, 64, 52
1, 231674, Control_c, 0, 64, 30
1, 231689, Control_c, 0, 64, 20
1, 231703, Control_c, 0, 64, 23
1, 231718, Control_c, 0, 64, 30
1, 231733, Control_c, 0, 64, 37
1, 231748, Control_c, 0, 64, 48
1, 231763, Control_c, 0, 64, 61
1, 231785, Control_c, 0, 64, 79
1, 231800, Control_c, 0, 64, 108
1, 231815, Control_c, 0, 64, 127
1, 231854, Note_on_c, 0, 93, 41
1, 231879, Note_off_c, 0, 96, 43
1, 231995, Note_off_c, 0, 93, 52
1, 232012, Note_on_c, 0, 96, 44
1, 232174, Note_off_c, 0, 96, 46
1, 232181, Note_on_c, 0, 94, 45
1, 232211, Note_off_c, 0, 94, 55
1, 232356, Note_off_c, 0, 86, 39
1, 232364, Note_on_c, 0, 87, 52
1, 232498, Note_off_c, 0, 53, 44
1, 232522, Note_off_c, 0, 87, 56
1, 232527, Note_off_c, 0, 62, 42
1, 232553, Note_on_c, 0, 84, 45
1, 232664, Note_off_c, 0, 58, 41
1, 232688, Note_off_c, 0, 56, 41
1, 232706, Note_off_c, 0, 84, 42
1, 232724, Note_on_c, 0, 87, 49
1, 232847, Note_off_c, 0, 87, 56
1, 232889, Note_on_c, 0, 86, 43
1, 233037, Control_c, 0, 64, 115
1, 233051, Note_off_c, 0, 86, 48
1, 233052, Control_c, 0, 64, 107
1, 233067, Control_c, 0, 64, 100
1, 233082, Control_c, 0, 64, 92
1, 233090, Note_on_c, 0, 89, 40
1, 233093, Note_on_c, 0, 58, 32
1, 233095, Note_on_c, 0, 63, 25
1, 233097, Control_c, 0, 64, 85
1, 233104, Note_on_c, 0, 51, 31
1, 233112, Control_c, 0, 64, 76
1, 233127, Control_c, 0, 64, 68
1, 233133, Note_on_c, 0, 55, 25
1, 233141, Control_c, 0, 64, 61
1, 233156, Control_c, 0, 64, 49
1, 233171, Control_c, 0, 64, 28
1, 233186, Control_c, 0, 64, 0
1, 233259, Note_off_c, 0, 89, 54
1, 233260, Control_c, 0, 64, 19
1, 233282, Control_c, 0, 64, 28
1, 233295, Note_on_c, 0, 86, 39
1, 233297, Control_c, 0, 64, 37
1, 233311, Control_c, 0, 64, 50
1, 233326, Control_c, 0, 64, 62
1, 233341, Control_c, 0, 64, 74
1, 233356, Control_c, 0, 64, 92
1, 233371, Control_c, 0, 64, 100
1, 233386, Control_c, 0, 64, 113
1, 233400, Control_c, 0, 64, 127
1, 233464, Note_off_c, 0, 63, 50
1, 233504, Note_on_c, 0, 89, 41
1, 233526, Note_off_c, 0, 51, 41
1, 233548, Note_off_c, 0, 86, 42
1, 233580, Note_off_c, 0, 55, 43
1, 233583, Note_off_c, 0, 58, 41
1, 233724, Note_off_c, 0, 89, 53
1, 233739, Note_on_c, 0, 87, 46
1, 234090, Note_off_c, 0, 87, 41
1, 234091, Control_c, 0, 64, 122
1, 234105, Control_c, 0, 64, 114
1, 234120, Control_c, 0, 64, 110
1, 234135, Control_c, 0, 64, 107
1, 234149, Control_c, 0, 64, 105
1, 234164, Control_c, 0, 64, 103
1, 234179, Control_c, 0, 64, 100
1, 234194, Control_c, 0, 64, 97
1, 234209, Control_c, 0, 64, 95
1, 234224, Control_c, 0, 64, 92
1, 234239, Control_c, 0, 64, 90
1, 234254, Control_c, 0, 64, 88
1, 234269, Control_c, 0, 64, 86
1, 234274, Note_on_c, 0, 58, 26
1, 234283, Note_on_c, 0, 49, 33
1, 234284, Control_c, 0, 64, 84
1, 234294, Note_on_c, 0, 79, 32
1, 234299, Control_c, 0, 64, 82
1, 234305, Note_on_c, 0, 89, 29
1, 234314, Control_c, 0, 64, 81
1, 234328, Control_c, 0, 64, 79
1, 234343, Control_c, 0, 64, 77
1, 234358, Control_c, 0, 64, 75
1, 234373, Control_c, 0, 64, 72
1, 234388, Control_c, 0, 64, 71
1, 234402, Control_c, 0, 64, 69
1, 234417, Control_c, 0, 64, 67
1, 234432, Control_c, 0, 64, 65
1, 234447, Control_c, 0, 64, 63
1, 234462, Control_c, 0, 64, 60
1, 234477, Control_c, 0, 64, 57
1, 234492, Control_c, 0, 64, 52
1, 234507, Control_c, 0, 64, 46
1, 234521, Control_c, 0, 64, 43
1, 234536, Control_c, 0, 64, 41
1, 234551, Control_c, 0, 64, 40
1, 234566, Control_c, 0, 64, 39
1, 234581, Control_c, 0, 64, 38
1, 234595, Control_c, 0, 64, 37
1, 234610, Control_c, 0, 64, 35
1, 234625, Control_c, 0, 64, 33
1, 234639, Control_c, 0, 64, 31
1, 234654, Control_c, 0, 64, 28
1, 234669, Control_c, 0, 64, 26
1, 234684, Control_c, 0, 64, 24
1, 234699, Control_c, 0, 64, 22
1, 234713, Control_c, 0, 64, 19
1, 234728, Control_c, 0, 64, 16
1, 234743, Control_c, 0, 64, 13
1, 234758, Control_c, 0, 64, 10
1, 234780, Control_c, 0, 64, 0
1, 235633, Control_c, 0, 64, 8
1, 235648, Control_c, 0, 64, 15
1, 235663, Control_c, 0, 64, 23
1, 235677, Control_c, 0, 64, 31
1, 235692, Control_c, 0, 64, 39
1, 235707, Control_c, 0, 64, 47
1, 235721, Control_c, 0, 64, 55
1, 235736, Control_c, 0, 64, 61
1, 235750, Control_c, 0, 64, 64
1, 235765, Control_c, 0, 64, 67
1, 235780, Control_c, 0, 64, 71
1, 235795, Control_c, 0, 64, 78
1, 235809, Control_c, 0, 64, 89
1, 235824, Control_c, 0, 64, 108
1, 235840, Note_off_c, 0, 79, 49
1, 235840, Control_c, 0, 64, 127
1, 235842, Note_off_c, 0, 58, 40
1, 235917, Note_off_c, 0, 49, 43
1, 235940, Note_off_c, 0, 89, 39
1, 236240, Control_c, 0, 64, 90
1, 236247, Note_on_c, 0, 87, 45
1, 236254, Note_on_c, 0, 80, 34
1, 236255, Control_c, 0, 64, 70
1, 236270, Note_on_c, 0, 60, 31
1, 236277, Control_c, 0, 64, 57
1, 236283, Note_on_c, 0, 48, 25
1, 236292, Control_c, 0, 64, 41
1, 236307, Control_c, 0, 64, 26
1, 236322, Control_c, 0, 64, 28
1, 236337, Control_c, 0, 64, 33
1, 236352, Control_c, 0, 64, 42
1, 236366, Control_c, 0, 64, 56
1, 236381, Control_c, 0, 64, 70
1, 236396, Control_c, 0, 64, 127
1, 236432, Note_off_c, 0, 87, 63
1, 236442, Note_off_c, 0, 80, 59
1, 236480, Note_off_c, 0, 48, 44
1, 236488, Note_off_c, 0, 60, 41
1, 236761, Note_on_c, 0, 75, 46
1, 236787, Note_on_c, 0, 68, 32
1, 236796, Note_on_c, 0, 60, 20
1, 236814, Note_on_c, 0, 48, 19
1, 236930, Control_c, 0, 64, 105
1, 236945, Control_c, 0, 64, 90
1, 236959, Control_c, 0, 64, 82
1, 236974, Control_c, 0, 64, 76
1, 236989, Control_c, 0, 64, 73
1, 237004, Control_c, 0, 64, 70
1, 237026, Control_c, 0, 64, 67
1, 237041, Control_c, 0, 64, 65
1, 237055, Control_c, 0, 64, 62
1, 237070, Control_c, 0, 64, 59
1, 237085, Control_c, 0, 64, 55
1, 237100, Control_c, 0, 64, 50
1, 237115, Control_c, 0, 64, 45
1, 237130, Control_c, 0, 64, 42
1, 237145, Control_c, 0, 64, 40
1, 237160, Control_c, 0, 64, 37
1, 237174, Control_c, 0, 64, 33
1, 237189, Control_c, 0, 64, 30
1, 237204, Control_c, 0, 64, 26
1, 237219, Control_c, 0, 64, 23
1, 237234, Control_c, 0, 64, 19
1, 237248, Control_c, 0, 64, 14
1, 237263, Control_c, 0, 64, 0
1, 238011, Control_c, 0, 64, 11
1, 238026, Control_c, 0, 64, 15
1, 238041, Control_c, 0, 64, 18
1, 238056, Control_c, 0, 64, 24
1, 238070, Control_c, 0, 64, 28
1, 238085, Control_c, 0, 64, 31
1, 238100, Control_c, 0, 64, 33
1, 238115, Control_c, 0, 64, 36
1, 238130, Control_c, 0, 64, 38
1, 238144, Control_c, 0, 64, 41
1, 238159, Control_c, 0, 64, 45
1, 238174, Control_c, 0, 64, 49
1, 238188, Control_c, 0, 64, 52
1, 238203, Control_c, 0, 64, 54
1, 238218, Control_c, 0, 64, 56
1, 238234, Control_c, 0, 64, 58
1, 238249, Control_c, 0, 64, 59
1, 238264, Control_c, 0, 64, 60
1, 238279, Control_c, 0, 64, 63
1, 238293, Control_c, 0, 64, 66
1, 238308, Control_c, 0, 64, 70
1, 238323, Control_c, 0, 64, 77
1, 238338, Control_c, 0, 64, 88
1, 238353, Control_c, 0, 64, 110
1, 238367, Control_c, 0, 64, 127
1, 238484, Note_off_c, 0, 48, 43
1, 238486, Note_off_c, 0, 60, 41
1, 238685, Note_off_c, 0, 75, 36
1, 238744, Note_on_c, 0, 73, 34
1, 238746, Control_c, 0, 64, 108
1, 238760, Control_c, 0, 64, 85
1, 238765, Note_on_c, 0, 70, 31
1, 238769, Note_on_c, 0, 52, 26
1, 238769, Note_on_c, 0, 55, 28
1, 238775, Control_c, 0, 64, 69
1, 238790, Control_c, 0, 64, 58
1, 238805, Control_c, 0, 64, 39
1, 238819, Control_c, 0, 64, 0
1, 238837, Note_off_c, 0, 68, 40
1, 238849, Control_c, 0, 64, 12
1, 238864, Control_c, 0, 64, 24
1, 238879, Control_c, 0, 64, 34
1, 238893, Control_c, 0, 64, 46
1, 238908, Control_c, 0, 64, 59
1, 238923, Control_c, 0, 64, 70
1, 238937, Control_c, 0, 64, 86
1, 238952, Control_c, 0, 64, 90
1, 238955, Note_off_c, 0, 52, 53
1, 238967, Control_c, 0, 64, 94
1, 238975, Note_off_c, 0, 55, 39
1, 238982, Control_c, 0, 64, 97
1, 238989, Note_off_c, 0, 70, 40
1, 238997, Control_c, 0, 64, 100
1, 239011, Control_c, 0, 64, 100
1, 239013, Note_off_c, 0, 73, 41
1, 239102, Control_c, 0, 64, 100
1, 239116, Control_c, 0, 64, 97
1, 239131, Control_c, 0, 64, 95
1, 239146, Control_c, 0, 64, 93
1, 239161, Control_c, 0, 64, 91
1, 239176, Control_c, 0, 64, 89
1, 239190, Control_c, 0, 64, 88
1, 239205, Note_on_c, 0, 73, 41
1, 239205, Control_c, 0, 64, 86
1, 239206, Note_on_c, 0, 52, 30
1, 239210, Note_on_c, 0, 70, 29
1, 239220, Control_c, 0, 64, 83
1, 239235, Control_c, 0, 64, 80
1, 239240, Note_on_c, 0, 55, 14
1, 239249, Control_c, 0, 64, 78
1, 239272, Control_c, 0, 64, 76
1, 239287, Control_c, 0, 64, 74
1, 239302, Control_c, 0, 64, 71
1, 239316, Control_c, 0, 64, 69
1, 239331, Control_c, 0, 64, 66
1, 239346, Control_c, 0, 64, 64
1, 239360, Control_c, 0, 64, 61
1, 239375, Control_c, 0, 64, 57
1, 239390, Control_c, 0, 64, 52
1, 239405, Control_c, 0, 64, 46
1, 239420, Control_c, 0, 64, 41
1, 239434, Control_c, 0, 64, 40
1, 239464, Control_c, 0, 64, 39
1, 239479, Control_c, 0, 64, 39
1, 239494, Control_c, 0, 64, 38
1, 239509, Control_c, 0, 64, 37
1, 239524, Control_c, 0, 64, 35
1, 239539, Control_c, 0, 64, 34
1, 239553, Control_c, 0, 64, 32
1, 239568, Control_c, 0, 64, 30
1, 239583, Control_c, 0, 64, 29
1, 239598, Control_c, 0, 64, 28
1, 239613, Control_c, 0, 64, 27
1, 239628, Control_c, 0, 64, 26
1, 239642, Control_c, 0, 64, 26
1, 239657, Control_c, 0, 64, 25
1, 239672, Control_c, 0, 64, 25
1, 239687, Control_c, 0, 64, 24
1, 239702, Control_c, 0, 64, 24
1, 239716, Control_c, 0, 64, 23
1, 239731, Control_c, 0, 64, 23
1, 239746, Control_c, 0, 64, 22
1, 239760, Control_c, 0, 64, 22
1, 239775, Control_c, 0, 64, 21
1, 239790, Control_c, 0, 64, 20
1, 239805, Control_c, 0, 64, 20
1, 239836, Control_c, 0, 64, 19
1, 239851, Control_c, 0, 64, 19
1, 239865, Control_c, 0, 64, 18
1, 239880, Control_c, 0, 64, 18
1, 239895, Control_c, 0, 64, 17
1, 239910, Control_c, 0, 64, 17
1, 239925, Control_c, 0, 64, 16
1, 239939, Control_c, 0, 64, 16
1, 239954, Control_c, 0, 64, 15
1, 239969, Control_c, 0, 64, 14
1, 239983, Control_c, 0, 64, 14
1, 239998, Control_c, 0, 64, 13
1, 240021, Control_c, 0, 64, 12
1, 240036, Control_c, 0, 64, 11
1, 240051, Control_c, 0, 64, 9
1, 240065, Control_c, 0, 64, 0
1, 240599, Control_c, 0, 64, 8
1, 240614, Control_c, 0, 64, 12
1, 240630, Control_c, 0, 64, 15
1, 240644, Control_c, 0, 64, 18
1, 240659, Control_c, 0, 64, 22
1, 240674, Control_c, 0, 64, 26
1, 240689, Control_c, 0, 64, 30
1, 240704, Control_c, 0, 64, 38
1, 240719, Control_c, 0, 64, 49
1, 240734, Control_c, 0, 64, 60
1, 240749, Control_c, 0, 64, 71
1, 240770, Control_c, 0, 64, 87
1, 240785, Control_c, 0, 64, 92
1, 240800, Control_c, 0, 64, 97
1, 240814, Control_c, 0, 64, 106
1, 240829, Control_c, 0, 64, 127
1, 240833, Note_off_c, 0, 52, 49
1, 240955, Note_off_c, 0, 55, 46
1, 240970, Note_off_c, 0, 73, 40
1, 241097, Note_off_c, 0, 70, 37
1, 241170, Control_c, 0, 64, 103
1, 241183, Note_on_c, 0, 56, 30
1, 241185, Control_c, 0, 64, 91
1, 241199, Note_on_c, 0, 68, 14
1, 241200, Control_c, 0, 64, 82
1, 241201, Note_on_c, 0, 72, 35
1, 241214, Control_c, 0, 64, 73
1, 241217, Note_on_c, 0, 53, 31
1, 241229, Control_c, 0, 64, 64
1, 241244, Control_c, 0, 64, 50
1, 241259, Control_c, 0, 64, 30
1, 241274, Control_c, 0, 64, 0
1, 241318, Control_c, 0, 64, 15
1, 241333, Control_c, 0, 64, 25
1, 241348, Control_c, 0, 64, 32
1, 241363, Control_c, 0, 64, 43
1, 241378, Control_c, 0, 64, 54
1, 241393, Control_c, 0, 64, 65
1, 241407, Control_c, 0, 64, 77
1, 241422, Control_c, 0, 64, 86
1, 241437, Control_c, 0, 64, 86
1, 241444, Note_off_c, 0, 72, 48
1, 241444, Note_off_c, 0, 56, 43
1, 241449, Note_off_c, 0, 53, 41
1, 241452, Control_c, 0, 64, 88
1, 241453, Note_off_c, 0, 68, 42
1, 241467, Control_c, 0, 64, 89
1, 241593, Control_c, 0, 64, 88
1, 241608, Control_c, 0, 64, 87
1, 241623, Control_c, 0, 64, 86
1, 241637, Control_c, 0, 64, 85
1, 241652, Control_c, 0, 64, 84
1, 241667, Control_c, 0, 64, 83
1, 241682, Control_c, 0, 64, 82
1, 241697, Control_c, 0, 64, 80
1, 241703, Note_on_c, 0, 72, 36
1, 241708, Note_on_c, 0, 56, 25
1, 241712, Control_c, 0, 64, 78
1, 241719, Note_on_c, 0, 68, 20
1, 241726, Note_on_c, 0, 53, 27
1, 241727, Control_c, 0, 64, 77
1, 241741, Control_c, 0, 64, 75
1, 241756, Control_c, 0, 64, 73
1, 241771, Control_c, 0, 64, 70
1, 241786, Control_c, 0, 64, 68
1, 241801, Control_c, 0, 64, 66
1, 241816, Control_c, 0, 64, 65
1, 241830, Control_c, 0, 64, 64
1, 241845, Control_c, 0, 64, 63
1, 241860, Control_c, 0, 64, 61
1, 241875, Control_c, 0, 64, 58
1, 241890, Control_c, 0, 64, 54
1, 241904, Control_c, 0, 64, 49
1, 241919, Control_c, 0, 64, 45
1, 241934, Control_c, 0, 64, 42
1, 241949, Control_c, 0, 64, 40
1, 241963, Control_c, 0, 64, 38
1, 241978, Control_c, 0, 64, 36
1, 241993, Control_c, 0, 64, 34
1, 242008, Control_c, 0, 64, 31
1, 242023, Control_c, 0, 64, 29
1, 242037, Control_c, 0, 64, 28
1, 242052, Control_c, 0, 64, 26
1, 242067, Control_c, 0, 64, 25
1, 242082, Control_c, 0, 64, 24
1, 242097, Control_c, 0, 64, 23
1, 242111, Control_c, 0, 64, 22
1, 242126, Control_c, 0, 64, 20
1, 242141, Control_c, 0, 64, 19
1, 242156, Control_c, 0, 64, 18
1, 242171, Control_c, 0, 64, 17
1, 242186, Control_c, 0, 64, 16
1, 242593, Control_c, 0, 64, 15
1, 242608, Control_c, 0, 64, 14
1, 242623, Control_c, 0, 64, 10
1, 242638, Control_c, 0, 64, 0
1, 243224, Control_c, 0, 64, 10
1, 243239, Control_c, 0, 64, 12
1, 243254, Control_c, 0, 64, 15
1, 243269, Control_c, 0, 64, 17
1, 243283, Control_c, 0, 64, 18
1, 243298, Control_c, 0, 64, 20
1, 243313, Control_c, 0, 64, 23
1, 243327, Control_c, 0, 64, 26
1, 243342, Control_c, 0, 64, 33
1, 243357, Control_c, 0, 64, 40
1, 243372, Control_c, 0, 64, 49
1, 243387, Control_c, 0, 64, 59
1, 243402, Control_c, 0, 64, 66
1, 243417, Control_c, 0, 64, 75
1, 243432, Control_c, 0, 64, 87
1, 243447, Control_c, 0, 64, 99
1, 243461, Control_c, 0, 64, 127
1, 243536, Note_off_c, 0, 53, 50
1, 243560, Note_off_c, 0, 56, 42
1, 243622, Note_off_c, 0, 68, 38
1, 243784, Note_off_c, 0, 72, 41
1, 244165, Note_on_c, 0, 58, 19
1, 244165, Note_on_c, 0, 75, 34
1, 244165, Control_c, 0, 64, 117
1, 244169, Note_on_c, 0, 67, 26
1, 244180, Control_c, 0, 64, 97
1, 244186, Note_on_c, 0, 51, 23
1, 244195, Control_c, 0, 64, 80
1, 244210, Control_c, 0, 64, 68
1, 244225, Control_c, 0, 64, 59
1, 244239, Control_c, 0, 64, 45
1, 244254, Control_c, 0, 64, 24
1, 244269, Control_c, 0, 64, 12
1, 244284, Control_c, 0, 64, 14
1, 244299, Control_c, 0, 64, 21
1, 244314, Control_c, 0, 64, 29
1, 244329, Control_c, 0, 64, 37
1, 244344, Control_c, 0, 64, 48
1, 244358, Control_c, 0, 64, 60
1, 244373, Control_c, 0, 64, 72
1, 244388, Control_c, 0, 64, 93
1, 244403, Control_c, 0, 64, 99
1, 244418, Control_c, 0, 64, 101
1, 244432, Control_c, 0, 64, 105
1, 244445, Note_off_c, 0, 51, 42
1, 244447, Note_off_c, 0, 58, 41
1, 244447, Control_c, 0, 64, 109
1, 244461, Note_off_c, 0, 67, 43
1, 244462, Control_c, 0, 64, 113
1, 244472, Note_off_c, 0, 75, 40
1, 244477, Control_c, 0, 64, 114
1, 244588, Control_c, 0, 64, 113
1, 244618, Control_c, 0, 64, 110
1, 244633, Control_c, 0, 64, 108
1, 244648, Control_c, 0, 64, 106
1, 244663, Control_c, 0, 64, 105
1, 244678, Control_c, 0, 64, 103
1, 244693, Control_c, 0, 64, 102
1, 244707, Control_c, 0, 64, 101
1, 244722, Control_c, 0, 64, 99
1, 244737, Control_c, 0, 64, 98
1, 244752, Control_c, 0, 64, 97
1, 244767, Control_c, 0, 64, 96
1, 244781, Control_c, 0, 64, 95
1, 244796, Control_c, 0, 64, 94
1, 244811, Control_c, 0, 64, 93
1, 244826, Control_c, 0, 64, 92
1, 244841, Control_c, 0, 64, 91
1, 244855, Control_c, 0, 64, 91
1, 244870, Control_c, 0, 64, 90
1, 244885, Control_c, 0, 64, 89
1, 244900, Control_c, 0, 64, 88
1, 244915, Control_c, 0, 64, 87
1, 244918, Note_on_c, 0, 75, 29
1, 244921, Note_on_c, 0, 51, 18
1, 244922, Note_on_c, 0, 58, 16
1, 244928, Note_on_c, 0, 67, 26
1, 244929, Control_c, 0, 64, 85
1, 244944, Control_c, 0, 64, 84
1, 244959, Control_c, 0, 64, 82
1, 244973, Control_c, 0, 64, 80
1, 244988, Control_c, 0, 64, 78
1, 245003, Control_c, 0, 64, 76
1, 245018, Control_c, 0, 64, 74
1, 245033, Control_c, 0, 64, 72
1, 245047, Control_c, 0, 64, 71
1, 245062, Control_c, 0, 64, 69
1, 245077, Control_c, 0, 64, 68
1, 245092, Control_c, 0, 64, 67
1, 245107, Control_c, 0, 64, 66
1, 245122, Control_c, 0, 64, 64
1, 245137, Control_c, 0, 64, 62
1, 245152, Control_c, 0, 64, 59
1, 245167, Control_c, 0, 64, 56
1, 245181, Control_c, 0, 64, 53
1, 245196, Control_c, 0, 64, 52
1, 245226, Control_c, 0, 64, 52
1, 245262, Control_c, 0, 64, 51
1, 245277, Control_c, 0, 64, 50
1, 245292, Control_c, 0, 64, 49
1, 245307, Control_c, 0, 64, 48
1, 245322, Control_c, 0, 64, 46
1, 245336, Control_c, 0, 64, 45
1, 245351, Control_c, 0, 64, 43
1, 245366, Control_c, 0, 64, 43
1, 245381, Control_c, 0, 64, 42
1, 245396, Control_c, 0, 64, 41
1, 245411, Control_c, 0, 64, 40
1, 245426, Control_c, 0, 64, 40
1, 245441, Control_c, 0, 64, 39
1, 245456, Control_c, 0, 64, 38
1, 245471, Control_c, 0, 64, 38
1, 245500, Control_c, 0, 64, 37
1, 245530, Control_c, 0, 64, 37
1, 245575, Control_c, 0, 64, 36
1, 245604, Control_c, 0, 64, 36
1, 245634, Control_c, 0, 64, 35
1, 245811, Control_c, 0, 64, 36
1, 245826, Control_c, 0, 64, 36
1, 245841, Control_c, 0, 64, 37
1, 245856, Control_c, 0, 64, 38
1, 245870, Control_c, 0, 64, 40
1, 245885, Control_c, 0, 64, 41
1, 245900, Control_c, 0, 64, 43
1, 245915, Control_c, 0, 64, 45
1, 245930, Control_c, 0, 64, 48
1, 245945, Control_c, 0, 64, 50
1, 245959, Control_c, 0, 64, 51
1, 245974, Control_c, 0, 64, 53
1, 245989, Control_c, 0, 64, 55
1, 246011, Control_c, 0, 64, 57
1, 246026, Control_c, 0, 64, 59
1, 246041, Control_c, 0, 64, 61
1, 246056, Control_c, 0, 64, 62
1, 246071, Control_c, 0, 64, 63
1, 246085, Control_c, 0, 64, 65
1, 246100, Control_c, 0, 64, 68
1, 246115, Control_c, 0, 64, 71
1, 246129, Control_c, 0, 64, 74
1, 246144, Control_c, 0, 64, 78
1, 246159, Control_c, 0, 64, 83
1, 246174, Control_c, 0, 64, 90
1, 246189, Control_c, 0, 64, 100
1, 246203, Control_c, 0, 64, 127
1, 246334, Note_off_c, 0, 58, 41
1, 246354, Note_off_c, 0, 67, 41
1, 246472, Note_off_c, 0, 75, 38
1, 246627, Note_off_c, 0, 51, 34
1, 247309, Control_c, 0, 64, 95
1, 247324, Control_c, 0, 64, 68
1, 247327, Note_on_c, 0, 60, 29
1, 247329, Note_on_c, 0, 56, 36
1, 247339, Control_c, 0, 64, 55
1, 247354, Control_c, 0, 64, 28
1, 247360, Note_on_c, 0, 68, 31
1, 247368, Control_c, 0, 64, 0
1, 247398, Control_c, 0, 64, 18
1, 247413, Control_c, 0, 64, 32
1, 247428, Control_c, 0, 64, 48
1, 247442, Control_c, 0, 64, 66
1, 247448, Note_on_c, 0, 75, 46
1, 247457, Control_c, 0, 64, 106
1, 247472, Control_c, 0, 64, 127
1, 247502, Note_off_c, 0, 75, 58
1, 247520, Note_off_c, 0, 68, 34
1, 247535, Note_on_c, 0, 72, 48
1, 247547, Note_off_c, 0, 60, 53
1, 247555, Note_off_c, 0, 56, 54
1, 247593, Note_off_c, 0, 72, 53
1, 247602, Note_on_c, 0, 75, 51
1, 247653, Note_off_c, 0, 75, 60
1, 247666, Note_on_c, 0, 80, 70
1, 247741, Note_on_c, 0, 75, 53
1, 247770, Note_off_c, 0, 80, 58
1, 247805, Note_off_c, 0, 75, 61
1, 247811, Note_on_c, 0, 72, 59
1, 247876, Note_off_c, 0, 72, 61
1, 247884, Note_on_c, 0, 75, 47
1, 247913, Note_off_c, 0, 75, 59
1, 247939, Control_c, 0, 64, 111
1, 247954, Control_c, 0, 64, 106
1, 247969, Control_c, 0, 64, 103
1, 247971, Note_on_c, 0, 68, 63
1, 247984, Control_c, 0, 64, 101
1, 247998, Control_c, 0, 64, 99
1, 248013, Control_c, 0, 64, 97
1, 248015, Note_off_c, 0, 68, 56
1, 248028, Control_c, 0, 64, 95
1, 248043, Control_c, 0, 64, 95
1, 248058, Control_c, 0, 64, 94
1, 248061, Note_on_c, 0, 63, 47
1, 248073, Control_c, 0, 64, 93
1, 248088, Control_c, 0, 64, 92
1, 248091, Note_off_c, 0, 63, 63
1, 248103, Control_c, 0, 64, 90
1, 248115, Note_on_c, 0, 60, 53
1, 248118, Control_c, 0, 64, 88
1, 248132, Control_c, 0, 64, 88
1, 248147, Control_c, 0, 64, 87
1, 248162, Control_c, 0, 64, 86
1, 248177, Control_c, 0, 64, 84
1, 248180, Note_off_c, 0, 60, 56
1, 248192, Control_c, 0, 64, 83
1, 248197, Note_on_c, 0, 63, 49
1, 248206, Control_c, 0, 64, 81
1, 248221, Control_c, 0, 64, 78
1, 248232, Note_off_c, 0, 63, 67
1, 248236, Control_c, 0, 64, 76
1, 248258, Control_c, 0, 64, 74
1, 248273, Control_c, 0, 64, 73
1, 248288, Control_c, 0, 64, 70
1, 248293, Note_on_c, 0, 56, 57
1, 248302, Control_c, 0, 64, 67
1, 248317, Control_c, 0, 64, 64
1, 248332, Control_c, 0, 64, 63
1, 248347, Control_c, 0, 64, 61
1, 248362, Control_c, 0, 64, 60
1, 248374, Note_on_c, 0, 51, 55
1, 248377, Control_c, 0, 64, 58
1, 248385, Note_off_c, 0, 56, 56
1, 248392, Control_c, 0, 64, 55
1, 248406, Control_c, 0, 64, 51
1, 248421, Control_c, 0, 64, 48
1, 248436, Control_c, 0, 64, 47
1, 248448, Note_off_c, 0, 51, 64
1, 248451, Control_c, 0, 64, 46
1, 248464, Note_on_c, 0, 48, 44
1, 248466, Control_c, 0, 64, 45
1, 248480, Control_c, 0, 64, 43
1, 248495, Control_c, 0, 64, 40
1, 248510, Control_c, 0, 64, 38
1, 248521, Note_off_c, 0, 48, 63
1, 248524, Control_c, 0, 64, 37
1, 248534, Note_on_c, 0, 51, 48
1, 248539, Control_c, 0, 64, 35
1, 248554, Control_c, 0, 64, 32
1, 248569, Control_c, 0, 64, 30
1, 248584, Control_c, 0, 64, 27
1, 248598, Control_c, 0, 64, 23
1, 248603, Note_off_c, 0, 51, 53
1, 248606, Note_on_c, 0, 44, 51
1, 248613, Control_c, 0, 64, 19
1, 248629, Control_c, 0, 64, 14
1, 248644, Control_c, 0, 64, 9
1, 248659, Note_off_c, 0, 44, 55
1, 248659, Control_c, 0, 64, 0
1, 248683, Note_on_c, 0, 39, 55
1, 248731, Note_off_c, 0, 39, 64
1, 248760, Note_on_c, 0, 36, 50
1, 248811, Note_off_c, 0, 36, 60
1, 248842, Note_on_c, 0, 39, 50
1, 248916, Note_off_c, 0, 39, 58
1, 248919, Note_on_c, 0, 32, 55
1, 248970, Control_c, 0, 64, 18
1, 248985, Control_c, 0, 64, 30
1, 248985, Note_off_c, 0, 32, 56
1, 249003, Note_on_c, 0, 36, 48
1, 249007, Control_c, 0, 64, 39
1, 249021, Control_c, 0, 64, 49
1, 249036, Control_c, 0, 64, 58
1, 249051, Control_c, 0, 64, 64
1, 249066, Control_c, 0, 64, 66
1, 249078, Note_off_c, 0, 36, 58
1, 249080, Control_c, 0, 64, 67
1, 249082, Note_on_c, 0, 39, 51
1, 249095, Control_c, 0, 64, 67
1, 249110, Control_c, 0, 64, 68
1, 249125, Control_c, 0, 64, 68
1, 249142, Note_on_c, 0, 44, 55
1, 249150, Note_off_c, 0, 39, 59
1, 249169, Note_off_c, 0, 44, 59
1, 249185, Control_c, 0, 64, 67
1, 249198, Control_c, 0, 64, 65
1, 249213, Control_c, 0, 64, 61
1, 249227, Control_c, 0, 64, 52
1, 249242, Control_c, 0, 64, 31
1, 249257, Control_c, 0, 64, 0
1, 249260, Note_on_c, 0, 34, 31
1, 249266, Note_on_c, 0, 43, 49
1, 249268, Note_on_c, 0, 46, 38
1, 249288, Note_on_c, 0, 39, 36
1, 249342, Note_off_c, 0, 43, 49
1, 249361, Control_c, 0, 64, 25
1, 249364, Note_on_c, 0, 51, 53
1, 249376, Control_c, 0, 64, 38
1, 249390, Control_c, 0, 64, 49
1, 249405, Control_c, 0, 64, 60
1, 249412, Note_off_c, 0, 51, 64
1, 249421, Control_c, 0, 64, 65
1, 249436, Control_c, 0, 64, 67
1, 249440, Note_on_c, 0, 49, 57
1, 249444, Note_off_c, 0, 34, 47
1, 249453, Note_off_c, 0, 46, 40
1, 249465, Control_c, 0, 64, 66
1, 249480, Control_c, 0, 64, 64
1, 249489, Note_off_c, 0, 39, 47
1, 249495, Control_c, 0, 64, 60
1, 249504, Note_on_c, 0, 51, 56
1, 249505, Note_off_c, 0, 49, 56
1, 249510, Control_c, 0, 64, 49
1, 249525, Control_c, 0, 64, 22
1, 249539, Control_c, 0, 64, 0
1, 249551, Note_off_c, 0, 51, 63
1, 249574, Note_on_c, 0, 55, 64
1, 249634, Note_off_c, 0, 55, 62
1, 249645, Note_on_c, 0, 51, 54
1, 249658, Control_c, 0, 64, 21
1, 249673, Control_c, 0, 64, 36
1, 249687, Control_c, 0, 64, 48
1, 249698, Note_off_c, 0, 51, 62
1, 249702, Control_c, 0, 64, 60
1, 249717, Control_c, 0, 64, 66
1, 249718, Note_on_c, 0, 49, 61
1, 249732, Control_c, 0, 64, 71
1, 249754, Control_c, 0, 64, 73
1, 249786, Note_off_c, 0, 49, 65
1, 249797, Note_on_c, 0, 51, 61
1, 249799, Control_c, 0, 64, 72
1, 249814, Control_c, 0, 64, 68
1, 249820, Note_off_c, 0, 51, 66
1, 249829, Control_c, 0, 64, 61
1, 249843, Control_c, 0, 64, 42
1, 249858, Control_c, 0, 64, 0
1, 249884, Note_on_c, 0, 34, 39
1, 249888, Note_on_c, 0, 46, 41
1, 249890, Note_on_c, 0, 39, 31
1, 249893, Note_on_c, 0, 55, 65
1, 249932, Control_c, 0, 64, 16
1, 249948, Control_c, 0, 64, 32
1, 249963, Control_c, 0, 64, 44
1, 249977, Control_c, 0, 64, 56
1, 249983, Note_on_c, 0, 63, 56
1, 249992, Control_c, 0, 64, 66
1, 250007, Control_c, 0, 64, 76
1, 250022, Control_c, 0, 64, 80
1, 250034, Note_off_c, 0, 55, 37
1, 250037, Control_c, 0, 64, 81
1, 250037, Note_off_c, 0, 46, 43
1, 250050, Note_off_c, 0, 34, 48
1, 250051, Control_c, 0, 64, 83
1, 250061, Note_off_c, 0, 63, 64
1, 250064, Note_on_c, 0, 61, 62
1, 250066, Control_c, 0, 64, 84
1, 250100, Note_off_c, 0, 39, 50
1, 250110, Control_c, 0, 64, 83
1, 250125, Control_c, 0, 64, 76
1, 250133, Note_on_c, 0, 63, 59
1, 250140, Control_c, 0, 64, 67
1, 250155, Control_c, 0, 64, 58
1, 250156, Note_off_c, 0, 61, 62
1, 250169, Control_c, 0, 64, 39
1, 250184, Control_c, 0, 64, 0
1, 250212, Note_on_c, 0, 67, 69
1, 250212, Note_off_c, 0, 63, 66
1, 250274, Control_c, 0, 64, 24
1, 250280, Note_on_c, 0, 63, 62
1, 250289, Control_c, 0, 64, 39
1, 250303, Note_off_c, 0, 67, 58
1, 250304, Control_c, 0, 64, 53
1, 250318, Control_c, 0, 64, 67
1, 250333, Control_c, 0, 64, 83
1, 250348, Note_on_c, 0, 61, 73
1, 250348, Control_c, 0, 64, 92
1, 250361, Note_off_c, 0, 63, 64
1, 250363, Control_c, 0, 64, 94
1, 250378, Control_c, 0, 64, 96
1, 250392, Control_c, 0, 64, 96
1, 250422, Control_c, 0, 64, 94
1, 250425, Note_off_c, 0, 61, 66
1, 250428, Note_on_c, 0, 63, 71
1, 250437, Control_c, 0, 64, 85
1, 250452, Note_off_c, 0, 63, 72
1, 250452, Control_c, 0, 64, 73
1, 250467, Control_c, 0, 64, 63
1, 250481, Control_c, 0, 64, 50
1, 250504, Control_c, 0, 64, 10
1, 250513, Note_on_c, 0, 34, 40
1, 250517, Note_on_c, 0, 46, 41
1, 250518, Control_c, 0, 64, 0
1, 250528, Note_on_c, 0, 39, 36
1, 250538, Note_on_c, 0, 67, 71
1, 250592, Control_c, 0, 64, 22
1, 250607, Control_c, 0, 64, 44
1, 250622, Control_c, 0, 64, 60
1, 250625, Note_on_c, 0, 75, 69
1, 250637, Control_c, 0, 64, 76
1, 250652, Control_c, 0, 64, 103
1, 250666, Control_c, 0, 64, 111
1, 250678, Note_off_c, 0, 67, 37
1, 250681, Note_off_c, 0, 34, 39
1, 250681, Control_c, 0, 64, 127
1, 250693, Note_on_c, 0, 73, 73
1, 250705, Note_off_c, 0, 75, 61
1, 250706, Note_off_c, 0, 46, 63
1, 250719, Note_off_c, 0, 39, 58
1, 250765, Note_on_c, 0, 75, 71
1, 250786, Control_c, 0, 64, 93
1, 250799, Note_off_c, 0, 73, 62
1, 250800, Control_c, 0, 64, 71
1, 250815, Control_c, 0, 64, 59
1, 250830, Control_c, 0, 64, 40
1, 250841, Note_on_c, 0, 79, 82
1, 250845, Note_off_c, 0, 75, 62
1, 250845, Control_c, 0, 64, 0
1, 250904, Control_c, 0, 64, 22
1, 250912, Note_on_c, 0, 75, 74
1, 250918, Control_c, 0, 64, 38
1, 250933, Control_c, 0, 64, 53
1, 250944, Note_off_c, 0, 79, 61
1, 250948, Control_c, 0, 64, 69
1, 250963, Control_c, 0, 64, 127
1, 250987, Note_on_c, 0, 73, 77
1, 250995, Note_off_c, 0, 75, 63
1, 251065, Note_on_c, 0, 75, 79
1, 251065, Note_off_c, 0, 73, 66
1, 251101, Note_off_c, 0, 75, 63
1, 251127, Control_c, 0, 64, 100
1, 251141, Control_c, 0, 64, 77
1, 251156, Control_c, 0, 64, 63
1, 251168, Note_on_c, 0, 39, 37
1, 251171, Control_c, 0, 64, 42
1, 251176, Note_on_c, 0, 36, 31
1, 251179, Note_on_c, 0, 48, 41
1, 251186, Control_c, 0, 64, 0
1, 251215, Note_on_c, 0, 80, 63
1, 251283, Control_c, 0, 64, 33
1, 251296, Note_on_c, 0, 87, 62
1, 251297, Control_c, 0, 64, 52
1, 251312, Control_c, 0, 64, 69
1, 251327, Control_c, 0, 64, 127
1, 251337, Note_off_c, 0, 80, 58
1, 251369, Note_off_c, 0, 87, 63
1, 251374, Note_on_c, 0, 84, 66
1, 251437, Note_on_c, 0, 87, 61
1, 251480, Note_off_c, 0, 36, 39
1, 251492, Note_off_c, 0, 84, 56
1, 251510, Note_off_c, 0, 87, 63
1, 251511, Note_on_c, 0, 92, 82
1, 251537, Note_off_c, 0, 39, 53
1, 251564, Note_off_c, 0, 48, 45
1, 251581, Note_on_c, 0, 87, 71
1, 251636, Note_off_c, 0, 92, 60
1, 251665, Note_on_c, 0, 84, 69
1, 251666, Note_off_c, 0, 87, 65
1, 251732, Note_off_c, 0, 84, 63
1, 251735, Note_on_c, 0, 87, 70
1, 251792, Note_off_c, 0, 87, 64
1, 251825, Note_on_c, 0, 80, 62
1, 251843, Note_off_c, 0, 80, 66
1, 251911, Note_on_c, 0, 75, 64
1, 251977, Note_off_c, 0, 75, 62
1, 251994, Note_on_c, 0, 72, 59
1, 252074, Note_on_c, 0, 75, 50
1, 252098, Note_off_c, 0, 75, 64
1, 252109, Note_off_c, 0, 72, 31
1, 252150, Control_c, 0, 64, 122
1, 252159, Note_on_c, 0, 68, 61
1, 252164, Control_c, 0, 64, 117
1, 252179, Control_c, 0, 64, 113
1, 252194, Control_c, 0, 64, 110
1, 252209, Control_c, 0, 64, 108
1, 252215, Note_off_c, 0, 68, 58
1, 252224, Control_c, 0, 64, 107
1, 252237, Note_on_c, 0, 63, 56
1, 252238, Control_c, 0, 64, 105
1, 252253, Control_c, 0, 64, 104
1, 252268, Control_c, 0, 64, 103
1, 252283, Control_c, 0, 64, 101
1, 252286, Note_off_c, 0, 63, 61
1, 252297, Control_c, 0, 64, 100
1, 252312, Control_c, 0, 64, 98
1, 252315, Note_on_c, 0, 60, 47
1, 252327, Control_c, 0, 64, 96
1, 252342, Control_c, 0, 64, 93
1, 252357, Control_c, 0, 64, 91
1, 252365, Note_off_c, 0, 60, 60
1, 252371, Control_c, 0, 64, 89
1, 252386, Control_c, 0, 64, 87
1, 252401, Control_c, 0, 64, 85
1, 252404, Note_on_c, 0, 63, 46
1, 252416, Control_c, 0, 64, 83
1, 252431, Control_c, 0, 64, 80
1, 252438, Note_off_c, 0, 63, 54
1, 252446, Control_c, 0, 64, 78
1, 252461, Control_c, 0, 64, 76
1, 252469, Note_on_c, 0, 56, 59
1, 252476, Control_c, 0, 64, 73
1, 252490, Control_c, 0, 64, 71
1, 252505, Control_c, 0, 64, 68
1, 252520, Control_c, 0, 64, 65
1, 252535, Control_c, 0, 64, 62
1, 252545, Note_on_c, 0, 51, 63
1, 252550, Control_c, 0, 64, 60
1, 252564, Control_c, 0, 64, 57
1, 252579, Control_c, 0, 64, 54
1, 252594, Control_c, 0, 64, 51
1, 252604, Note_off_c, 0, 56, 35
1, 252610, Control_c, 0, 64, 49
1, 252621, Note_off_c, 0, 51, 63
1, 252625, Control_c, 0, 64, 48
1, 252631, Note_on_c, 0, 48, 56
1, 252655, Control_c, 0, 64, 48
1, 252669, Control_c, 0, 64, 47
1, 252684, Control_c, 0, 64, 46
1, 252699, Control_c, 0, 64, 45
1, 252704, Note_on_c, 0, 51, 56
1, 252707, Note_off_c, 0, 48, 62
1, 252713, Control_c, 0, 64, 43
1, 252728, Control_c, 0, 64, 40
1, 252750, Control_c, 0, 64, 35
1, 252765, Control_c, 0, 64, 31
1, 252780, Note_off_c, 0, 51, 62
1, 252780, Control_c, 0, 64, 28
1, 252793, Note_on_c, 0, 44, 64
1, 252795, Control_c, 0, 64, 25
1, 252810, Control_c, 0, 64, 22
1, 252824, Control_c, 0, 64, 18
1, 252839, Control_c, 0, 64, 12
1, 252853, Note_off_c, 0, 44, 61
1, 252854, Control_c, 0, 64, 0
1, 252878, Note_on_c, 0, 51, 46
1, 252922, Note_off_c, 0, 51, 63
1, 252941, Note_on_c, 0, 48, 51
1, 253000, Note_off_c, 0, 48, 61
1, 253028, Note_on_c, 0, 51, 52
1, 253075, Note_off_c, 0, 51, 63
1, 253116, Note_on_c, 0, 31, 33
1, 253120, Note_on_c, 0, 46, 48
1, 253125, Note_on_c, 0, 43, 26
1, 253126, Note_on_c, 0, 39, 32
1, 253149, Control_c, 0, 64, 27
1, 253164, Control_c, 0, 64, 39
1, 253179, Control_c, 0, 64, 53
1, 253194, Control_c, 0, 64, 62
1, 253200, Note_on_c, 0, 51, 50
1, 253200, Note_off_c, 0, 46, 54
1, 253209, Control_c, 0, 64, 68
1, 253224, Control_c, 0, 64, 73
1, 253238, Control_c, 0, 64, 75
1, 253246, Note_off_c, 0, 51, 63
1, 253253, Control_c, 0, 64, 78
1, 253268, Control_c, 0, 64, 81
1, 253270, Note_on_c, 0, 49, 58
1, 253279, Note_off_c, 0, 31, 49
1, 253283, Control_c, 0, 64, 84
1, 253298, Control_c, 0, 64, 85
1, 253312, Control_c, 0, 64, 85
1, 253325, Note_off_c, 0, 43, 41
1, 253335, Note_off_c, 0, 49, 58
1, 253345, Note_off_c, 0, 39, 45
1, 253349, Note_on_c, 0, 51, 55
1, 253357, Control_c, 0, 64, 84
1, 253372, Control_c, 0, 64, 77
1, 253386, Control_c, 0, 64, 67
1, 253401, Note_off_c, 0, 51, 58
1, 253401, Control_c, 0, 64, 56
1, 253417, Control_c, 0, 64, 33
1, 253430, Note_on_c, 0, 58, 59
1, 253432, Control_c, 0, 64, 0
1, 253498, Control_c, 0, 64, 26
1, 253513, Note_off_c, 0, 58, 58
1, 253513, Control_c, 0, 64, 42
1, 253527, Note_on_c, 0, 51, 56
1, 253528, Control_c, 0, 64, 57
1, 253543, Control_c, 0, 64, 70
1, 253558, Control_c, 0, 64, 91
1, 253573, Control_c, 0, 64, 93
1, 253578, Note_off_c, 0, 51, 61
1, 253585, Note_on_c, 0, 49, 66
1, 253602, Control_c, 0, 64, 94
1, 253647, Control_c, 0, 64, 94
1, 253650, Note_off_c, 0, 49, 66
1, 253661, Control_c, 0, 64, 87
1, 253662, Note_on_c, 0, 51, 69
1, 253676, Control_c, 0, 64, 75
1, 253681, Note_off_c, 0, 51, 63
1, 253692, Control_c, 0, 64, 64
1, 253707, Control_c, 0, 64, 50
1, 253722, Control_c, 0, 64, 22
1, 253737, Control_c, 0, 64, 0
1, 253763, Note_on_c, 0, 58, 72
1, 253766, Note_on_c, 0, 55, 38
1, 253772, Note_on_c, 0, 43, 34
1, 253772, Note_on_c, 0, 51, 53
1, 253796, Control_c, 0, 64, 14
1, 253811, Control_c, 0, 64, 29
1, 253825, Control_c, 0, 64, 43
1, 253840, Control_c, 0, 64, 57
1, 253855, Control_c, 0, 64, 72
1, 253857, Note_on_c, 0, 63, 64
1, 253869, Control_c, 0, 64, 89
1, 253881, Note_off_c, 0, 58, 58
1, 253884, Control_c, 0, 64, 94
1, 253899, Control_c, 0, 64, 100
1, 253913, Note_off_c, 0, 55, 53
1, 253914, Control_c, 0, 64, 127
1, 253922, Note_off_c, 0, 63, 65
1, 253928, Note_on_c, 0, 61, 71
1, 253939, Note_off_c, 0, 43, 41
1, 253962, Note_off_c, 0, 51, 61
1, 253996, Note_on_c, 0, 63, 67
1, 254005, Note_off_c, 0, 61, 63
1, 254032, Control_c, 0, 64, 93
1, 254047, Control_c, 0, 64, 70
1, 254062, Control_c, 0, 64, 58
1, 254076, Note_off_c, 0, 63, 64
1, 254076, Control_c, 0, 64, 35
1, 254079, Note_on_c, 0, 70, 75
1, 254091, Control_c, 0, 64, 0
1, 254145, Note_on_c, 0, 63, 73
1, 254151, Control_c, 0, 64, 16
1, 254166, Control_c, 0, 64, 33
1, 254178, Note_off_c, 0, 70, 60
1, 254181, Control_c, 0, 64, 48
1, 254196, Control_c, 0, 64, 62
1, 254211, Control_c, 0, 64, 80
1, 254226, Note_on_c, 0, 61, 74
1, 254226, Control_c, 0, 64, 127
1, 254241, Note_off_c, 0, 63, 64
1, 254297, Note_off_c, 0, 61, 67
1, 254304, Note_on_c, 0, 63, 71
1, 254322, Note_off_c, 0, 63, 66
1, 254352, Control_c, 0, 64, 91
1, 254366, Control_c, 0, 64, 65
1, 254381, Control_c, 0, 64, 47
1, 254393, Note_on_c, 0, 51, 40
1, 254396, Control_c, 0, 64, 0
1, 254403, Note_on_c, 0, 55, 37
1, 254407, Note_on_c, 0, 70, 70
1, 254409, Note_on_c, 0, 43, 40
1, 254455, Control_c, 0, 64, 10
1, 254470, Control_c, 0, 64, 33
1, 254485, Control_c, 0, 64, 51
1, 254496, Note_on_c, 0, 75, 61
1, 254500, Control_c, 0, 64, 66
1, 254515, Control_c, 0, 64, 109
1, 254530, Control_c, 0, 64, 127
1, 254543, Note_off_c, 0, 70, 37
1, 254565, Note_off_c, 0, 75, 61
1, 254571, Note_on_c, 0, 73, 71
1, 254587, Note_off_c, 0, 55, 45
1, 254601, Note_off_c, 0, 43, 39
1, 254630, Note_on_c, 0, 75, 64
1, 254640, Note_off_c, 0, 73, 60
1, 254658, Note_off_c, 0, 51, 59
1, 254705, Note_off_c, 0, 75, 62
1, 254715, Note_on_c, 0, 82, 77
1, 254777, Note_on_c, 0, 75, 65
1, 254812, Note_off_c, 0, 82, 61
1, 254854, Note_off_c, 0, 75, 61
1, 254867, Note_on_c, 0, 73, 63
1, 254924, Note_off_c, 0, 73, 61
1, 254944, Note_on_c, 0, 75, 57
1, 254959, Control_c, 0, 64, 88
1, 254974, Control_c, 0, 64, 68
1, 254996, Control_c, 0, 64, 52
1, 255007, Note_off_c, 0, 75, 61
1, 255012, Control_c, 0, 64, 19
1, 255027, Control_c, 0, 64, 0
1, 255054, Note_on_c, 0, 72, 53
1, 255057, Note_on_c, 0, 44, 26
1, 255065, Note_on_c, 0, 56, 33
1, 255074, Note_on_c, 0, 51, 36
1, 255101, Control_c, 0, 64, 32
1, 255105, Note_off_c, 0, 72, 56
1, 255115, Control_c, 0, 64, 52
1, 255130, Control_c, 0, 64, 70
1, 255140, Note_on_c, 0, 75, 52
1, 255145, Control_c, 0, 64, 127
1, 255178, Note_off_c, 0, 75, 62
1, 255197, Note_off_c, 0, 44, 53
1, 255209, Note_on_c, 0, 72, 53
1, 255253, Note_off_c, 0, 72, 59
1, 255254, Note_off_c, 0, 56, 57
1, 255269, Note_off_c, 0, 51, 61
1, 255272, Note_on_c, 0, 75, 63
1, 255320, Note_off_c, 0, 75, 58
1, 255355, Note_on_c, 0, 84, 81
1, 255409, Note_off_c, 0, 84, 60
1, 255434, Note_on_c, 0, 75, 61
1, 255489, Note_off_c, 0, 75, 58
1, 255527, Note_on_c, 0, 72, 48
1, 255572, Note_off_c, 0, 72, 63
1, 255601, Note_on_c, 0, 75, 42
1, 255634, Note_off_c, 0, 75, 54
1, 255663, Control_c, 0, 64, 81
1, 255678, Control_c, 0, 64, 65
1, 255682, Note_on_c, 0, 73, 63
1, 255693, Control_c, 0, 64, 51
1, 255698, Note_on_c, 0, 65, 39
1, 255701, Note_on_c, 0, 56, 40
1, 255707, Control_c, 0, 64, 19
1, 255708, Note_on_c, 0, 53, 44
1, 255722, Control_c, 0, 64, 0
1, 255757, Note_off_c, 0, 73, 55
1, 255775, Control_c, 0, 64, 22
1, 255783, Note_on_c, 0, 80, 61
1, 255789, Control_c, 0, 64, 42
1, 255804, Control_c, 0, 64, 60
1, 255817, Note_off_c, 0, 80, 63
1, 255820, Control_c, 0, 64, 90
1, 255835, Control_c, 0, 64, 127
1, 255853, Note_on_c, 0, 73, 59
1, 255898, Note_off_c, 0, 65, 52
1, 255921, Note_on_c, 0, 80, 69
1, 255933, Note_off_c, 0, 73, 57
1, 255942, Note_off_c, 0, 53, 41
1, 255987, Note_off_c, 0, 80, 58
1, 255990, Note_off_c, 0, 56, 55
1, 255999, Note_on_c, 0, 85, 78
1, 256080, Note_on_c, 0, 80, 64
1, 256087, Note_off_c, 0, 85, 60
1, 256116, Note_off_c, 0, 80, 61
1, 256170, Note_on_c, 0, 73, 44
1, 256205, Note_off_c, 0, 73, 56
1, 256234, Note_on_c, 0, 80, 52
1, 256264, Control_c, 0, 64, 100
1, 256274, Note_off_c, 0, 80, 52
1, 256279, Control_c, 0, 64, 72
1, 256294, Control_c, 0, 64, 60
1, 256305, Note_on_c, 0, 56, 42
1, 256309, Control_c, 0, 64, 43
1, 256318, Note_on_c, 0, 48, 40
1, 256322, Note_on_c, 0, 75, 59
1, 256324, Note_on_c, 0, 60, 31
1, 256324, Control_c, 0, 64, 21
1, 256338, Control_c, 0, 64, 26
1, 256353, Control_c, 0, 64, 37
1, 256368, Control_c, 0, 64, 51
1, 256383, Control_c, 0, 64, 67
1, 256398, Control_c, 0, 64, 127
1, 256405, Note_on_c, 0, 87, 70
1, 256445, Note_off_c, 0, 60, 53
1, 256459, Note_off_c, 0, 56, 57
1, 256473, Note_on_c, 0, 80, 77
1, 256474, Note_off_c, 0, 48, 35
1, 256475, Note_off_c, 0, 87, 64
1, 256510, Note_off_c, 0, 75, 46
1, 256553, Control_c, 0, 64, 91
1, 256566, Note_on_c, 0, 87, 81
1, 256568, Control_c, 0, 64, 68
1, 256574, Note_off_c, 0, 80, 60
1, 256583, Control_c, 0, 64, 58
1, 256597, Control_c, 0, 64, 46
1, 256613, Control_c, 0, 64, 42
1, 256628, Control_c, 0, 64, 49
1, 256637, Note_off_c, 0, 87, 62
1, 256638, Note_on_c, 0, 56, 48
1, 256642, Note_on_c, 0, 76, 81
1, 256643, Control_c, 0, 64, 60
1, 256646, Note_on_c, 0, 60, 51
1, 256646, Note_on_c, 0, 48, 51
1, 256658, Control_c, 0, 64, 84
1, 256673, Control_c, 0, 64, 127
1, 256715, Note_on_c, 0, 88, 85
1, 256733, Note_off_c, 0, 48, 62
1, 256763, Note_off_c, 0, 60, 58
1, 256790, Note_on_c, 0, 80, 82
1, 256801, Note_off_c, 0, 88, 64
1, 256805, Note_off_c, 0, 76, 30
1, 256830, Note_off_c, 0, 56, 34
1, 256876, Note_on_c, 0, 88, 76
1, 256876, Note_off_c, 0, 80, 61
1, 256909, Control_c, 0, 64, 115
1, 256924, Control_c, 0, 64, 71
1, 256936, Note_off_c, 0, 88, 66
1, 256939, Control_c, 0, 64, 57
1, 256953, Note_on_c, 0, 49, 54
1, 256953, Control_c, 0, 64, 34
1, 256959, Note_on_c, 0, 56, 54
1, 256962, Note_on_c, 0, 61, 50
1, 256966, Note_on_c, 0, 77, 79
1, 256968, Control_c, 0, 64, 0
1, 257013, Control_c, 0, 64, 10
1, 257020, Note_off_c, 0, 77, 63
1, 257028, Control_c, 0, 64, 35
1, 257042, Control_c, 0, 64, 54
1, 257044, Note_on_c, 0, 89, 78
1, 257057, Control_c, 0, 64, 78
1, 257072, Control_c, 0, 64, 127
1, 257104, Note_off_c, 0, 89, 53
1, 257110, Note_on_c, 0, 77, 80
1, 257178, Note_off_c, 0, 61, 64
1, 257183, Note_off_c, 0, 49, 58
1, 257184, Note_on_c, 0, 80, 85
1, 257185, Note_off_c, 0, 77, 57
1, 257251, Note_off_c, 0, 56, 62
1, 257255, Note_off_c, 0, 80, 63
1, 257275, Note_on_c, 0, 89, 88
1, 257335, Note_on_c, 0, 85, 82
1, 257352, Note_off_c, 0, 89, 60
1, 257405, Note_off_c, 0, 85, 66
1, 257423, Note_on_c, 0, 80, 74
1, 257498, Note_on_c, 0, 85, 73
1, 257502, Note_off_c, 0, 80, 62
1, 257552, Note_off_c, 0, 85, 62
1, 257555, Control_c, 0, 64, 92
1, 257570, Control_c, 0, 64, 66
1, 257584, Control_c, 0, 64, 44
1, 257586, Note_on_c, 0, 79, 85
1, 257593, Note_on_c, 0, 58, 49
1, 257595, Note_on_c, 0, 51, 55
1, 257597, Note_on_c, 0, 46, 48
1, 257599, Control_c, 0, 64, 0
1, 257662, Note_on_c, 0, 87, 83
1, 257673, Control_c, 0, 64, 39
1, 257688, Control_c, 0, 64, 59
1, 257702, Control_c, 0, 64, 106
1, 257717, Control_c, 0, 64, 127
1, 257727, Note_off_c, 0, 79, 31
1, 257743, Note_on_c, 0, 85, 79
1, 257744, Note_off_c, 0, 87, 65
1, 257779, Note_off_c, 0, 46, 56
1, 257799, Note_off_c, 0, 58, 60
1, 257823, Note_on_c, 0, 87, 79
1, 257848, Note_off_c, 0, 51, 57
1, 257852, Note_off_c, 0, 85, 62
1, 257891, Note_off_c, 0, 87, 63
1, 257910, Note_on_c, 0, 91, 93
1, 258001, Note_on_c, 0, 87, 76
1, 258032, Note_off_c, 0, 91, 58
1, 258083, Note_off_c, 0, 87, 66
1, 258093, Note_on_c, 0, 85, 69
1, 258165, Note_off_c, 0, 85, 62
1, 258166, Note_on_c, 0, 87, 75
1, 258199, Control_c, 0, 64, 86
1, 258214, Control_c, 0, 64, 63
1, 258229, Control_c, 0, 64, 43
1, 258244, Note_off_c, 0, 87, 61
1, 258244, Control_c, 0, 64, 0
1, 258270, Note_on_c, 0, 79, 80
1, 258276, Note_on_c, 0, 60, 51
1, 258277, Note_on_c, 0, 51, 44
1, 258284, Note_on_c, 0, 48, 38
1, 258288, Control_c, 0, 64, 18
1, 258303, Control_c, 0, 64, 39
1, 258318, Control_c, 0, 64, 57
1, 258333, Control_c, 0, 64, 81
1, 258348, Control_c, 0, 64, 127
1, 258354, Note_on_c, 0, 91, 89
1, 258358, Note_off_c, 0, 48, 61
1, 258369, Note_off_c, 0, 60, 63
1, 258390, Note_off_c, 0, 51, 63
1, 258449, Note_on_c, 0, 87, 80
1, 258458, Note_off_c, 0, 91, 57
1, 258487, Note_off_c, 0, 79, 62
1, 258541, Note_off_c, 0, 87, 65
1, 258542, Note_on_c, 0, 91, 77
1, 258601, Note_off_c, 0, 91, 57
1, 258644, Control_c, 0, 64, 91
1, 258648, Note_on_c, 0, 60, 50
1, 258658, Control_c, 0, 64, 70
1, 258659, Note_on_c, 0, 51, 49
1, 258660, Note_on_c, 0, 80, 81
1, 258661, Note_on_c, 0, 48, 47
1, 258673, Control_c, 0, 64, 56
1, 258688, Control_c, 0, 64, 29
1, 258703, Control_c, 0, 64, 0
1, 258785, Control_c, 0, 64, 19
1, 258800, Control_c, 0, 64, 41
1, 258801, Note_on_c, 0, 92, 92
1, 258814, Control_c, 0, 64, 59
1, 258829, Control_c, 0, 64, 87
1, 258844, Control_c, 0, 64, 127
1, 258921, Note_on_c, 0, 87, 82
1, 258924, Note_off_c, 0, 48, 63
1, 258929, Note_off_c, 0, 60, 56
1, 258962, Note_off_c, 0, 92, 63
1, 259052, Note_off_c, 0, 80, 0
1, 259055, Note_off_c, 0, 51, 58
1, 259058, Note_on_c, 0, 92, 88
1, 259106, Poly_aftertouch_c, 0, 80, 0
1, 259112, Note_off_c, 0, 87, 56
1, 259148, Note_off_c, 0, 92, 65
1, 259423, Control_c, 0, 64, 122
1, 259437, Control_c, 0, 64, 110
1, 259452, Control_c, 0, 64, 104
1, 259467, Control_c, 0, 64, 100
1, 259489, Control_c, 0, 64, 97
1, 259504, Control_c, 0, 64, 96
1, 259519, Control_c, 0, 64, 94
1, 259534, Control_c, 0, 64, 91
1, 259549, Control_c, 0, 64, 89
1, 259563, Control_c, 0, 64, 86
1, 259578, Control_c, 0, 64, 84
1, 259593, Control_c, 0, 64, 82
1, 259607, Control_c, 0, 64, 80
1, 259622, Control_c, 0, 64, 78
1, 259637, Control_c, 0, 64, 76
1, 259652, Control_c, 0, 64, 75
1, 259667, Control_c, 0, 64, 74
1, 259681, Control_c, 0, 64, 73
1, 259696, Control_c, 0, 64, 72
1, 259711, Control_c, 0, 64, 71
1, 259726, Control_c, 0, 64, 70
1, 259741, Control_c, 0, 64, 68
1, 259749, Note_on_c, 0, 49, 34
1, 259753, Note_on_c, 0, 56, 34
1, 259755, Control_c, 0, 64, 67
1, 259770, Control_c, 0, 64, 65
1, 259779, Note_on_c, 0, 77, 61
1, 259785, Control_c, 0, 64, 64
1, 259801, Control_c, 0, 64, 62
1, 259816, Control_c, 0, 64, 59
1, 259830, Control_c, 0, 64, 54
1, 259845, Control_c, 0, 64, 45
1, 259860, Control_c, 0, 64, 33
1, 259875, Control_c, 0, 64, 13
1, 259890, Control_c, 0, 64, 0
1, 260083, Control_c, 0, 64, 13
1, 260098, Control_c, 0, 64, 20
1, 260112, Control_c, 0, 64, 27
1, 260127, Control_c, 0, 64, 34
1, 260142, Control_c, 0, 64, 41
1, 260157, Control_c, 0, 64, 49
1, 260172, Control_c, 0, 64, 57
1, 260186, Control_c, 0, 64, 62
1, 260201, Control_c, 0, 64, 66
1, 260216, Control_c, 0, 64, 71
1, 260238, Control_c, 0, 64, 74
1, 260253, Control_c, 0, 64, 79
1, 260268, Control_c, 0, 64, 84
1, 260283, Control_c, 0, 64, 88
1, 260298, Control_c, 0, 64, 91
1, 260300, Note_on_c, 0, 57, 41
1, 260311, Note_off_c, 0, 56, 55
1, 260312, Control_c, 0, 64, 92
1, 260372, Control_c, 0, 64, 88
1, 260386, Control_c, 0, 64, 81
1, 260401, Control_c, 0, 64, 72
1, 260416, Control_c, 0, 64, 64
1, 260431, Control_c, 0, 64, 54
1, 260446, Control_c, 0, 64, 32
1, 260461, Control_c, 0, 64, 0
1, 260535, Control_c, 0, 64, 16
1, 260550, Control_c, 0, 64, 23
1, 260565, Control_c, 0, 64, 31
1, 260579, Control_c, 0, 64, 39
1, 260594, Control_c, 0, 64, 50
1, 260610, Control_c, 0, 64, 59
1, 260622, Note_on_c, 0, 58, 45
1, 260625, Control_c, 0, 64, 66
1, 260640, Control_c, 0, 64, 74
1, 260654, Control_c, 0, 64, 78
1, 260665, Note_off_c, 0, 57, 36
1, 260669, Control_c, 0, 64, 83
1, 260684, Control_c, 0, 64, 92
1, 260699, Control_c, 0, 64, 108
1, 260714, Control_c, 0, 64, 127
1, 260801, Note_on_c, 0, 70, 62
1, 260953, Note_on_c, 0, 72, 67
1, 260968, Note_on_c, 0, 60, 46
1, 261001, Note_off_c, 0, 70, 58
1, 261015, Note_off_c, 0, 60, 65
1, 261054, Note_off_c, 0, 58, 31
1, 261062, Note_off_c, 0, 49, 43
1, 261116, Note_on_c, 0, 73, 75
1, 261142, Note_off_c, 0, 77, 36
1, 261153, Note_on_c, 0, 61, 45
1, 261193, Note_off_c, 0, 72, 51
1, 261298, Control_c, 0, 64, 96
1, 261313, Control_c, 0, 64, 78
1, 261320, Note_off_c, 0, 61, 40
1, 261327, Control_c, 0, 64, 67
1, 261335, Note_on_c, 0, 67, 55
1, 261342, Control_c, 0, 64, 60
1, 261345, Note_on_c, 0, 58, 39
1, 261348, Note_off_c, 0, 73, 55
1, 261351, Note_on_c, 0, 51, 34
1, 261357, Control_c, 0, 64, 46
1, 261372, Control_c, 0, 64, 16
1, 261386, Control_c, 0, 64, 0
1, 261390, Note_on_c, 0, 55, 22
1, 261406, Note_off_c, 0, 58, 0
1, 261406, Note_on_c, 0, 58, 10
1, 261536, Control_c, 0, 64, 21
1, 261550, Control_c, 0, 64, 34
1, 261565, Control_c, 0, 64, 45
1, 261580, Control_c, 0, 64, 57
1, 261594, Control_c, 0, 64, 69
1, 261609, Control_c, 0, 64, 82
1, 261624, Control_c, 0, 64, 91
1, 261639, Control_c, 0, 64, 103
1, 261654, Control_c, 0, 64, 127
1, 261733, Note_off_c, 0, 51, 42
1, 261778, Note_on_c, 0, 75, 53
1, 261800, Note_off_c, 0, 55, 42
1, 261837, Note_off_c, 0, 58, 40
1, 261911, Note_off_c, 0, 67, 31
1, 262287, Note_on_c, 0, 63, 58
1, 262328, Control_c, 0, 64, 103
1, 262329, Note_on_c, 0, 60, 38
1, 262343, Control_c, 0, 64, 88
1, 262358, Control_c, 0, 64, 78
1, 262372, Control_c, 0, 64, 70
1, 262387, Control_c, 0, 64, 63
1, 262402, Control_c, 0, 64, 51
1, 262417, Control_c, 0, 64, 20
1, 262432, Control_c, 0, 64, 0
1, 262572, Control_c, 0, 64, 10
1, 262584, Note_on_c, 0, 73, 34
1, 262587, Control_c, 0, 64, 30
1, 262602, Control_c, 0, 64, 44
1, 262617, Control_c, 0, 64, 58
1, 262632, Control_c, 0, 64, 70
1, 262647, Control_c, 0, 64, 91
1, 262661, Control_c, 0, 64, 103
1, 262673, Note_off_c, 0, 75, 29
1, 262676, Control_c, 0, 64, 113
1, 262691, Control_c, 0, 64, 127
1, 262704, Note_off_c, 0, 73, 47
1, 262755, Note_on_c, 0, 72, 43
1, 262913, Control_c, 0, 64, 110
1, 262918, Note_on_c, 0, 84, 56
1, 262928, Control_c, 0, 64, 91
1, 262943, Control_c, 0, 64, 77
1, 262958, Control_c, 0, 64, 66
1, 262972, Control_c, 0, 64, 58
1, 262987, Control_c, 0, 64, 45
1, 263003, Control_c, 0, 64, 30
1, 263033, Control_c, 0, 64, 36
1, 263047, Control_c, 0, 64, 44
1, 263062, Control_c, 0, 64, 55
1, 263064, Note_on_c, 0, 82, 65
1, 263077, Control_c, 0, 64, 66
1, 263092, Note_off_c, 0, 72, 34
1, 263092, Control_c, 0, 64, 85
1, 263107, Control_c, 0, 64, 108
1, 263121, Control_c, 0, 64, 127
1, 263189, Note_off_c, 0, 60, 59
1, 263232, Note_on_c, 0, 79, 66
1, 263241, Note_off_c, 0, 84, 36
1, 263250, Note_off_c, 0, 63, 60
1, 263286, Note_off_c, 0, 82, 54
1, 263351, Control_c, 0, 64, 100
1, 263366, Control_c, 0, 64, 80
1, 263381, Control_c, 0, 64, 68
1, 263396, Control_c, 0, 64, 59
1, 263401, Note_on_c, 0, 60, 53
1, 263403, Note_on_c, 0, 82, 65
1, 263410, Note_on_c, 0, 56, 51
1, 263410, Control_c, 0, 64, 44
1, 263425, Control_c, 0, 64, 32
1, 263454, Control_c, 0, 64, 36
1, 263469, Control_c, 0, 64, 41
1, 263481, Note_off_c, 0, 79, 37
1, 263484, Control_c, 0, 64, 49
1, 263499, Control_c, 0, 64, 60
1, 263514, Control_c, 0, 64, 71
1, 263529, Control_c, 0, 64, 92
1, 263544, Control_c, 0, 64, 117
1, 263559, Control_c, 0, 64, 127
1, 263570, Note_on_c, 0, 80, 77
1, 263574, Note_off_c, 0, 56, 64
1, 263590, Note_off_c, 0, 60, 63
1, 263633, Note_off_c, 0, 82, 48
1, 263736, Control_c, 0, 64, 103
1, 263746, Note_on_c, 0, 60, 49
1, 263747, Note_on_c, 0, 84, 68
1, 263751, Control_c, 0, 64, 83
1, 263753, Note_on_c, 0, 56, 48
1, 263765, Control_c, 0, 64, 70
1, 263766, Note_off_c, 0, 80, 55
1, 263780, Control_c, 0, 64, 60
1, 263797, Control_c, 0, 64, 46
1, 263812, Control_c, 0, 64, 24
1, 263826, Control_c, 0, 64, 0
1, 263870, Control_c, 0, 64, 17
1, 263885, Control_c, 0, 64, 28
1, 263900, Control_c, 0, 64, 38
1, 263910, Note_on_c, 0, 80, 67
1, 263915, Control_c, 0, 64, 52
1, 263930, Control_c, 0, 64, 65
1, 263944, Note_off_c, 0, 84, 60
1, 263944, Control_c, 0, 64, 92
1, 263959, Control_c, 0, 64, 127
1, 264050, Note_off_c, 0, 60, 58
1, 264063, Note_off_c, 0, 56, 62
1, 264086, Note_off_c, 0, 80, 61
1, 264098, Note_on_c, 0, 75, 67
1, 264270, Note_off_c, 0, 75, 61
1, 264287, Note_on_c, 0, 76, 71
1, 264308, Note_on_c, 0, 56, 34
1, 264313, Note_on_c, 0, 60, 26
1, 264349, Note_off_c, 0, 56, 52
1, 264355, Note_off_c, 0, 60, 47
1, 264568, Note_on_c, 0, 56, 30
1, 264569, Note_on_c, 0, 60, 12
1, 264569, Note_on_c, 0, 49, 25
1, 264574, Control_c, 0, 64, 105
1, 264590, Control_c, 0, 64, 87
1, 264605, Control_c, 0, 64, 74
1, 264619, Control_c, 0, 64, 64
1, 264621, Note_on_c, 0, 77, 74
1, 264634, Control_c, 0, 64, 52
1, 264649, Control_c, 0, 64, 19
1, 264664, Control_c, 0, 64, 0
1, 264732, Note_off_c, 0, 60, 45
1, 264750, Note_off_c, 0, 76, 40
1, 264760, Control_c, 0, 64, 27
1, 264775, Control_c, 0, 64, 43
1, 264790, Control_c, 0, 64, 58
1, 264805, Control_c, 0, 64, 72
1, 264819, Control_c, 0, 64, 99
1, 264834, Control_c, 0, 64, 127
1, 264852, Note_off_c, 0, 56, 57
1, 264870, Note_on_c, 0, 57, 52
1, 264982, Control_c, 0, 64, 101
1, 264997, Control_c, 0, 64, 78
1, 265004, Note_off_c, 0, 57, 57
1, 265012, Control_c, 0, 64, 65
1, 265022, Note_on_c, 0, 58, 56
1, 265026, Control_c, 0, 64, 52
1, 265041, Control_c, 0, 64, 34
1, 265056, Control_c, 0, 64, 21
1, 265071, Control_c, 0, 64, 24
1, 265086, Control_c, 0, 64, 31
1, 265100, Control_c, 0, 64, 39
1, 265115, Control_c, 0, 64, 51
1, 265130, Control_c, 0, 64, 65
1, 265145, Control_c, 0, 64, 87
1, 265159, Control_c, 0, 64, 122
1, 265168, Note_on_c, 0, 60, 54
1, 265174, Control_c, 0, 64, 127
1, 265203, Note_off_c, 0, 60, 66
1, 265238, Note_off_c, 0, 58, 62
1, 265313, Note_off_c, 0, 49, 41
1, 265338, Note_on_c, 0, 61, 63
1, 265382, Control_c, 0, 64, 87
1, 265398, Control_c, 0, 64, 70
1, 265413, Control_c, 0, 64, 57
1, 265428, Control_c, 0, 64, 37
1, 265442, Control_c, 0, 64, 0
1, 265509, Note_on_c, 0, 70, 62
1, 265511, Note_on_c, 0, 49, 46
1, 265523, Control_c, 0, 64, 18
1, 265538, Control_c, 0, 64, 32
1, 265553, Control_c, 0, 64, 46
1, 265568, Control_c, 0, 64, 59
1, 265583, Control_c, 0, 64, 71
1, 265598, Control_c, 0, 64, 88
1, 265613, Control_c, 0, 64, 93
1, 265627, Control_c, 0, 64, 98
1, 265642, Control_c, 0, 64, 114
1, 265648, Note_off_c, 0, 61, 60
1, 265657, Control_c, 0, 64, 127
1, 265681, Note_on_c, 0, 51, 53
1, 265682, Note_on_c, 0, 72, 66
1, 265777, Note_off_c, 0, 49, 33
1, 265791, Note_off_c, 0, 70, 37
1, 265827, Note_off_c, 0, 77, 32
1, 265850, Note_on_c, 0, 73, 69
1, 265854, Note_on_c, 0, 53, 58
1, 265883, Note_off_c, 0, 51, 36
1, 265896, Note_off_c, 0, 53, 65
1, 265912, Note_off_c, 0, 72, 48
1, 266042, Control_c, 0, 64, 82
1, 266046, Note_off_c, 0, 73, 63
1, 266047, Note_on_c, 0, 67, 62
1, 266057, Control_c, 0, 64, 64
1, 266069, Note_on_c, 0, 51, 34
1, 266072, Control_c, 0, 64, 48
1, 266086, Control_c, 0, 64, 17
1, 266101, Control_c, 0, 64, 0
1, 266161, Control_c, 0, 64, 16
1, 266175, Control_c, 0, 64, 32
1, 266191, Control_c, 0, 64, 47
1, 266206, Control_c, 0, 64, 61
1, 266228, Control_c, 0, 64, 81
1, 266243, Note_on_c, 0, 39, 48
1, 266243, Control_c, 0, 64, 127
1, 266420, Control_c, 0, 64, 79
1, 266433, Note_on_c, 0, 75, 67
1, 266435, Control_c, 0, 64, 64
1, 266448, Note_on_c, 0, 41, 48
1, 266450, Control_c, 0, 64, 51
1, 266465, Control_c, 0, 64, 25
1, 266480, Control_c, 0, 64, 15
1, 266495, Control_c, 0, 64, 23
1, 266510, Control_c, 0, 64, 33
1, 266525, Control_c, 0, 64, 46
1, 266539, Control_c, 0, 64, 60
1, 266554, Control_c, 0, 64, 91
1, 266569, Control_c, 0, 64, 127
1, 266572, Note_off_c, 0, 51, 42
1, 266594, Poly_aftertouch_c, 0, 68, 127
1, 266599, Note_off_c, 0, 67, 61
1, 266618, Note_off_c, 0, 39, 25
1, 266628, Note_on_c, 0, 43, 55
1, 266665, Poly_aftertouch_c, 0, 68, 0
1, 266691, Note_off_c, 0, 41, 33
1, 266694, Note_off_c, 0, 43, 60
1, 267018, Note_on_c, 0, 63, 71
1, 267028, Note_on_c, 0, 32, 38
1, 267032, Note_on_c, 0, 44, 32
1, 267044, Note_on_c, 0, 72, 59
1, 267045, Note_on_c, 0, 68, 49
1, 267110, Control_c, 0, 64, 100
1, 267125, Control_c, 0, 64, 81
1, 267140, Control_c, 0, 64, 68
1, 267155, Control_c, 0, 64, 59
1, 267169, Control_c, 0, 64, 43
1, 267184, Control_c, 0, 64, 0
1, 267286, Note_off_c, 0, 75, 40
1, 267318, Control_c, 0, 64, 22
1, 267333, Control_c, 0, 64, 37
1, 267347, Control_c, 0, 64, 51
1, 267362, Control_c, 0, 64, 63
1, 267377, Control_c, 0, 64, 76
1, 267392, Control_c, 0, 64, 92
1, 267407, Control_c, 0, 64, 100
1, 267421, Control_c, 0, 64, 113
1, 267436, Control_c, 0, 64, 127
1, 267538, Note_off_c, 0, 68, 55
1, 268030, Note_on_c, 0, 73, 58
1, 268047, Note_on_c, 0, 68, 68
1, 268054, Note_on_c, 0, 41, 37
1, 268096, Control_c, 0, 64, 99
1, 268111, Control_c, 0, 64, 83
1, 268125, Control_c, 0, 64, 71
1, 268140, Control_c, 0, 64, 63
1, 268155, Control_c, 0, 64, 53
1, 268170, Control_c, 0, 64, 32
1, 268185, Control_c, 0, 64, 0
1, 268229, Note_off_c, 0, 63, 44
1, 268233, Note_off_c, 0, 72, 32
1, 268244, Control_c, 0, 64, 16
1, 268247, Note_off_c, 0, 44, 30
1, 268259, Control_c, 0, 64, 29
1, 268274, Control_c, 0, 64, 47
1, 268289, Control_c, 0, 64, 62
1, 268304, Control_c, 0, 64, 92
1, 268318, Control_c, 0, 64, 127
1, 268514, Note_on_c, 0, 65, 70
1, 268518, Control_c, 0, 64, 102
1, 268521, Note_on_c, 0, 37, 44
1, 268533, Control_c, 0, 64, 74
1, 268548, Control_c, 0, 64, 62
1, 268563, Control_c, 0, 64, 45
1, 268577, Control_c, 0, 64, 20
1, 268593, Control_c, 0, 64, 0
1, 268605, Note_off_c, 0, 41, 51
1, 268607, Note_off_c, 0, 68, 55
1, 268608, Control_c, 0, 64, 15
1, 268623, Control_c, 0, 64, 28
1, 268638, Control_c, 0, 64, 40
1, 268653, Control_c, 0, 64, 56
1, 268667, Control_c, 0, 64, 80
1, 268682, Control_c, 0, 64, 127
1, 268919, Control_c, 0, 64, 91
1, 268934, Control_c, 0, 64, 71
1, 268945, Note_on_c, 0, 70, 75
1, 268948, Control_c, 0, 64, 58
1, 268963, Control_c, 0, 64, 39
1, 268965, Note_on_c, 0, 43, 44
1, 268978, Control_c, 0, 64, 0
1, 269038, Control_c, 0, 64, 24
1, 269052, Control_c, 0, 64, 37
1, 269067, Control_c, 0, 64, 53
1, 269082, Control_c, 0, 64, 69
1, 269097, Control_c, 0, 64, 127
1, 269109, Note_off_c, 0, 73, 36
1, 269148, Note_off_c, 0, 32, 38
1, 269189, Note_off_c, 0, 65, 62
1, 269189, Note_off_c, 0, 37, 58
1, 269195, Note_off_c, 0, 43, 40
1, 269443, Note_on_c, 0, 73, 67
1, 269446, Control_c, 0, 64, 106
1, 269461, Control_c, 0, 64, 82
1, 269464, Note_on_c, 0, 64, 48
1, 269468, Note_on_c, 0, 67, 64
1, 269474, Note_on_c, 0, 46, 42
1, 269476, Control_c, 0, 64, 69
1, 269480, Note_on_c, 0, 32, 34
1, 269490, Control_c, 0, 64, 60
1, 269505, Control_c, 0, 64, 45
1, 269520, Control_c, 0, 64, 0
1, 269537, Note_off_c, 0, 70, 61
1, 269623, Control_c, 0, 64, 12
1, 269638, Control_c, 0, 64, 35
1, 269653, Control_c, 0, 64, 51
1, 269668, Control_c, 0, 64, 67
1, 269683, Control_c, 0, 64, 102
1, 269697, Control_c, 0, 64, 127
1, 269771, Note_off_c, 0, 64, 54
1, 269777, Note_off_c, 0, 32, 40
1, 269792, Note_off_c, 0, 46, 41
1, 269814, Note_off_c, 0, 73, 36
1, 269843, Note_off_c, 0, 67, 60
1, 270197, Note_on_c, 0, 73, 69
1, 270205, Note_on_c, 0, 67, 65
1, 270216, Note_on_c, 0, 64, 51
1, 270221, Note_on_c, 0, 46, 42
1, 270226, Note_on_c, 0, 32, 38
1, 270299, Control_c, 0, 64, 100
1, 270313, Control_c, 0, 64, 85
1, 270328, Control_c, 0, 64, 75
1, 270343, Control_c, 0, 64, 67
1, 270358, Control_c, 0, 64, 61
1, 270372, Control_c, 0, 64, 52
1, 270387, Control_c, 0, 64, 32
1, 270402, Control_c, 0, 64, 0
1, 270535, Control_c, 0, 64, 16
1, 270550, Control_c, 0, 64, 29
1, 270564, Control_c, 0, 64, 41
1, 270579, Control_c, 0, 64, 52
1, 270594, Control_c, 0, 64, 62
1, 270609, Control_c, 0, 64, 70
1, 270624, Control_c, 0, 64, 78
1, 270638, Control_c, 0, 64, 83
1, 270653, Control_c, 0, 64, 88
1, 270668, Control_c, 0, 64, 99
1, 270683, Control_c, 0, 64, 119
1, 270696, Note_off_c, 0, 64, 46
1, 270698, Control_c, 0, 64, 127
1, 271122, Control_c, 0, 64, 122
1, 271136, Control_c, 0, 64, 119
1, 271151, Control_c, 0, 64, 115
1, 271166, Control_c, 0, 64, 114
1, 271181, Control_c, 0, 64, 111
1, 271196, Control_c, 0, 64, 109
1, 271211, Control_c, 0, 64, 108
1, 271226, Control_c, 0, 64, 108
1, 271240, Control_c, 0, 64, 106
1, 271255, Control_c, 0, 64, 104
1, 271270, Control_c, 0, 64, 102
1, 271285, Control_c, 0, 64, 100
1, 271300, Control_c, 0, 64, 99
1, 271315, Control_c, 0, 64, 97
1, 271330, Control_c, 0, 64, 95
1, 271344, Control_c, 0, 64, 94
1, 271359, Control_c, 0, 64, 92
1, 271374, Control_c, 0, 64, 91
1, 271388, Control_c, 0, 64, 90
1, 271403, Control_c, 0, 64, 88
1, 271418, Control_c, 0, 64, 86
1, 271433, Control_c, 0, 64, 83
1, 271448, Control_c, 0, 64, 79
1, 271470, Control_c, 0, 64, 74
1, 271485, Control_c, 0, 64, 69
1, 271491, Note_on_c, 0, 63, 42
1, 271500, Control_c, 0, 64, 63
1, 271515, Control_c, 0, 64, 56
1, 271530, Control_c, 0, 64, 36
1, 271544, Control_c, 0, 64, 0
1, 271661, Control_c, 0, 64, 15
1, 271676, Control_c, 0, 64, 28
1, 271691, Control_c, 0, 64, 39
1, 271706, Control_c, 0, 64, 51
1, 271720, Control_c, 0, 64, 63
1, 271735, Control_c, 0, 64, 73
1, 271750, Control_c, 0, 64, 84
1, 271765, Control_c, 0, 64, 90
1, 271781, Control_c, 0, 64, 93
1, 271796, Control_c, 0, 64, 99
1, 271810, Control_c, 0, 64, 111
1, 271825, Control_c, 0, 64, 127
1, 271848, Note_off_c, 0, 32, 47
1, 271866, Note_off_c, 0, 46, 35
1, 271882, Note_off_c, 0, 73, 39
1, 271995, Note_off_c, 0, 63, 41
1, 272007, Note_off_c, 0, 67, 34
1, 272886, Control_c, 0, 64, 122
1, 272900, Control_c, 0, 64, 117
1, 272915, Control_c, 0, 64, 115
1, 272930, Control_c, 0, 64, 111
1, 272945, Control_c, 0, 64, 108
1, 272966, Control_c, 0, 64, 105
1, 272981, Control_c, 0, 64, 101
1, 272996, Control_c, 0, 64, 96
1, 273011, Control_c, 0, 64, 90
1, 273026, Control_c, 0, 64, 83
1, 273041, Control_c, 0, 64, 77
1, 273047, Note_on_c, 0, 32, 26
1, 273056, Control_c, 0, 64, 69
1, 273057, Note_on_c, 0, 72, 25
1, 273059, Note_on_c, 0, 44, 18
1, 273068, Note_on_c, 0, 68, 27
1, 273071, Control_c, 0, 64, 63
1, 273073, Note_on_c, 0, 63, 16
1, 273086, Control_c, 0, 64, 54
1, 273101, Control_c, 0, 64, 38
1, 273115, Control_c, 0, 64, 13
1, 273130, Control_c, 0, 64, 0
1, 273159, Control_c, 0, 64, 11
1, 273174, Control_c, 0, 64, 22
1, 273189, Control_c, 0, 64, 31
1, 273204, Control_c, 0, 64, 42
1, 273219, Control_c, 0, 64, 54
1, 273233, Control_c, 0, 64, 64
1, 273248, Control_c, 0, 64, 73
1, 273263, Control_c, 0, 64, 79
1, 273278, Control_c, 0, 64, 81
1, 273292, Control_c, 0, 64, 83
1, 273307, Control_c, 0, 64, 84
1, 273322, Control_c, 0, 64, 85
1, 273338, Note_off_c, 0, 72, 43
1, 273353, Note_off_c, 0, 32, 38
1, 273354, Note_off_c, 0, 63, 45
1, 273356, Note_off_c, 0, 68, 41
1, 273358, Note_off_c, 0, 44, 39
1, 273382, Control_c, 0, 64, 84
1, 273397, Control_c, 0, 64, 82
1, 273412, Control_c, 0, 64, 79
1, 273427, Control_c, 0, 64, 76
1, 273442, Control_c, 0, 64, 72
1, 273456, Control_c, 0, 64, 68
1, 273471, Control_c, 0, 64, 65
1, 273486, Control_c, 0, 64, 63
1, 273501, Control_c, 0, 64, 60
1, 273516, Control_c, 0, 64, 55
1, 273530, Control_c, 0, 64, 49
1, 273545, Control_c, 0, 64, 43
1, 273560, Control_c, 0, 64, 37
1, 273575, Control_c, 0, 64, 32
1, 273589, Control_c, 0, 64, 27
1, 273604, Control_c, 0, 64, 23
1, 273619, Control_c, 0, 64, 18
1, 273634, Control_c, 0, 64, 13
1, 273649, Control_c, 0, 64, 10
1, 273664, Control_c, 0, 64, 9
1, 273745, Control_c, 0, 64, 10
1, 273760, Control_c, 0, 64, 10
1, 273775, Control_c, 0, 64, 12
1, 273789, Control_c, 0, 64, 14
1, 273804, Control_c, 0, 64, 16
1, 273819, Control_c, 0, 64, 18
1, 273834, Control_c, 0, 64, 20
1, 273849, Control_c, 0, 64, 22
1, 273864, Control_c, 0, 64, 24
1, 273879, Control_c, 0, 64, 26
1, 273893, Control_c, 0, 64, 28
1, 273908, Control_c, 0, 64, 29
1, 273923, Control_c, 0, 64, 31
1, 273938, Control_c, 0, 64, 34
1, 273953, Control_c, 0, 64, 38
1, 273968, Control_c, 0, 64, 43
1, 273983, Control_c, 0, 64, 47
1, 273998, Control_c, 0, 64, 51
1, 274013, Control_c, 0, 64, 55
1, 274028, Control_c, 0, 64, 58
1, 274043, Control_c, 0, 64, 60
1, 274057, Control_c, 0, 64, 62
1, 274072, Control_c, 0, 64, 64
1, 274087, Control_c, 0, 64, 66
1, 274102, Control_c, 0, 64, 69
1, 274116, Control_c, 0, 64, 72
1, 274131, Control_c, 0, 64, 75
1, 274146, Control_c, 0, 64, 78
1, 274161, Control_c, 0, 64, 81
1, 274176, Control_c, 0, 64, 84
1, 274192, Control_c, 0, 64, 88
1, 274206, Control_c, 0, 64, 94
1, 274221, Control_c, 0, 64, 99
1, 274236, Control_c, 0, 64, 103
1, 274251, Control_c, 0, 64, 106
1, 274266, Control_c, 0, 64, 108
1, 274274, Note_on_c, 0, 32, 24
1, 274280, Control_c, 0, 64, 113
1, 274283, Note_on_c, 0, 72, 26
1, 274295, Control_c, 0, 64, 127
1, 274298, Note_on_c, 0, 68, 16
1, 274307, Note_on_c, 0, 63, 20
1, 274331, Poly_aftertouch_c, 0, 44, 127
1, 274495, Control_c, 0, 64, 122
1, 274506, Poly_aftertouch_c, 0, 44, 0
1, 274510, Control_c, 0, 64, 113
1, 274525, Control_c, 0, 64, 108
1, 274537, Note_off_c, 0, 63, 43
1, 274538, Note_off_c, 0, 32, 37
1, 274539, Control_c, 0, 64, 103
1, 274541, Note_off_c, 0, 68, 40
1, 274541, Note_off_c, 0, 72, 42
1, 274554, Control_c, 0, 64, 100
1, 274569, Control_c, 0, 64, 96
1, 274584, Control_c, 0, 64, 92
1, 274599, Control_c, 0, 64, 88
1, 274613, Control_c, 0, 64, 85
1, 274628, Control_c, 0, 64, 83
1, 274643, Control_c, 0, 64, 81
1, 274657, Control_c, 0, 64, 79
1, 274671, Control_c, 0, 64, 77
1, 274686, Control_c, 0, 64, 74
1, 274701, Control_c, 0, 64, 73
1, 274716, Control_c, 0, 64, 72
1, 274730, Control_c, 0, 64, 71
1, 274745, Control_c, 0, 64, 71
1, 274760, Control_c, 0, 64, 69
1, 274775, Control_c, 0, 64, 67
1, 274790, Control_c, 0, 64, 64
1, 274804, Control_c, 0, 64, 62
1, 274819, Control_c, 0, 64, 60
1, 274834, Control_c, 0, 64, 58
1, 274849, Control_c, 0, 64, 57
1, 274864, Control_c, 0, 64, 55
1, 274878, Control_c, 0, 64, 53
1, 274893, Control_c, 0, 64, 51
1, 274908, Control_c, 0, 64, 49
1, 274922, Control_c, 0, 64, 47
1, 274937, Control_c, 0, 64, 45
1, 274952, Control_c, 0, 64, 44
1, 274967, Control_c, 0, 64, 42
1, 274983, Control_c, 0, 64, 41
1, 274998, Control_c, 0, 64, 40
1, 275013, Control_c, 0, 64, 39
1, 275027, Control_c, 0, 64, 38
1, 275042, Control_c, 0, 64, 37
1, 275057, Control_c, 0, 64, 37
1, 275072, Control_c, 0, 64, 36
1, 275087, Control_c, 0, 64, 35
1, 275101, Control_c, 0, 64, 34
1, 275116, Control_c, 0, 64, 33
1, 275131, Control_c, 0, 64, 32
1, 275146, Control_c, 0, 64, 30
1, 275160, Control_c, 0, 64, 28
1, 275175, Control_c, 0, 64, 27
1, 275190, Control_c, 0, 64, 26
1, 275213, Control_c, 0, 64, 25
1, 275228, Control_c, 0, 64, 24
1, 275242, Control_c, 0, 64, 22
1, 275257, Control_c, 0, 64, 21
1, 275272, Control_c, 0, 64, 20
1, 275287, Control_c, 0, 64, 19
1, 275302, Control_c, 0, 64, 18
1, 275316, Control_c, 0, 64, 18
1, 275331, Control_c, 0, 64, 17
1, 275346, Control_c, 0, 64, 17
1, 275360, Control_c, 0, 64, 16
1, 275375, Control_c, 0, 64, 16
1, 275390, Control_c, 0, 64, 15
1, 275420, Control_c, 0, 64, 15
1, 275435, Control_c, 0, 64, 14
1, 275479, Control_c, 0, 64, 14
1, 275539, Control_c, 0, 64, 13
1, 275568, Control_c, 0, 64, 13
1, 275583, Control_c, 0, 64, 12
1, 275613, Control_c, 0, 64, 11
1, 275627, Control_c, 0, 64, 11
1, 275642, Control_c, 0, 64, 10
1, 275657, Control_c, 0, 64, 9
1, 275671, Control_c, 0, 64, 0
1, 275746, End_track
0, 0, End_of_file
