0, 0, Header, 0, 1, 384
1, 0, Start_track
1, 0, Title_t, "Etude Op. 25/10--Dae Hyung Ahn  "
1, 0, Text_t, "2009 Piano-e-Competition audition round"
1, 0, Text_t, "captured January 2009"
1, 0, Text_t, "http://www.piano-e-competition.com/"
1, 0, Text_t, "File processed for distribution by software from Zenph Studios, Inc., http://www.zenph.com"
1, 0, Instrument_name_t, "Yamaha Disklavier Pro Mark IV concert grand piano, model DCFIIISM4PRO"
1, 0, Sequencer_specific, 39, 67, 113, 0, 1, 0, 1, 0, 69, 116, 117, 100, 101, 32, 79, 112, 46, 32, 50, 53, 47, 49, 48, 32, 68, 97, 101, 32, 72, 121, 117, 110, 103, 32, 65, 104, 110, 32, 32, 32
1, 0, Sequencer_specific, 6, 67, 113, 0, 0, 0, 69
1, 0, System_exclusive, 21, 67, 113, 126, 21, 0, 2, 2, 0, 3, 14, 1, 4, 1, 13, 13, 10, 11, 9, 2, 7, 247
1, 0, Sequencer_specific, 5, 67, 123, 12, 2, 1
1, 0, Tempo, 512820
1, 0, Time_signature, 4, 2, 24, 8
1, 0, System_exclusive, 5, 126, 127, 9, 1, 247
1, 1, System_exclusive, 8, 67, 16, 76, 0, 0, 126, 0, 247
1, 2, System_exclusive, 8, 67, 16, 76, 8, 9, 7, 1, 247
1, 3, Control_c, 0, 0, 0
1, 3, Control_c, 1, 0, 0
1, 3, Control_c, 2, 0, 0
1, 3, Control_c, 3, 0, 0
1, 3, Control_c, 4, 0, 0
1, 3, Control_c, 5, 0, 0
1, 3, Control_c, 6, 0, 0
1, 3, Control_c, 7, 0, 0
1, 3, Control_c, 8, 0, 0
1, 3, Control_c, 9, 0, 127
1, 3, Control_c, 10, 0, 0
1, 3, Control_c, 11, 0, 0
1, 3, Control_c, 12, 0, 0
1, 3, Control_c, 13, 0, 0
1, 3, Control_c, 14, 0, 0
1, 3, Control_c, 15, 0, 0
1, 4, Control_c, 0, 32, 0
1, 4, Control_c, 1, 32, 0
1, 4, Control_c, 2, 32, 0
1, 4, Control_c, 3, 32, 0
1, 4, Control_c, 4, 32, 0
1, 4, Control_c, 5, 32, 0
1, 4, Control_c, 6, 32, 0
1, 4, Control_c, 7, 32, 0
1, 4, Control_c, 8, 32, 0
1, 4, Control_c, 9, 32, 0
1, 4, Control_c, 10, 32, 0
1, 4, Control_c, 11, 32, 0
1, 4, Control_c, 12, 32, 0
1, 4, Control_c, 13, 32, 0
1, 4, Control_c, 14, 32, 0
1, 4, Control_c, 15, 32, 0
1, 5, Program_c, 0, 0
1, 5, Program_c, 1, 0
1, 5, Program_c, 2, 0
1, 5, Program_c, 3, 0
1, 5, Program_c, 4, 0
1, 5, Program_c, 5, 0
1, 5, Program_c, 6, 0
1, 5, Program_c, 7, 0
1, 5, Program_c, 8, 0
1, 5, Program_c, 9, 0
1, 5, Program_c, 10, 0
1, 5, Program_c, 11, 0
1, 5, Program_c, 12, 0
1, 5, Program_c, 13, 0
1, 5, Program_c, 14, 0
1, 5, Program_c, 15, 0
1, 6, Control_c, 0, 7, 100
1, 6, Control_c, 1, 7, 100
1, 6, Control_c, 2, 7, 100
1, 6, Control_c, 3, 7, 100
1, 6, Control_c, 4, 7, 100
1, 6, Control_c, 5, 7, 100
1, 6, Control_c, 6, 7, 100
1, 6, Control_c, 7, 7, 100
1, 6, Control_c, 8, 7, 100
1, 6, Control_c, 9, 7, 100
1, 6, Control_c, 10, 7, 100
1, 6, Control_c, 11, 7, 100
1, 6, Control_c, 12, 7, 100
1, 6, Control_c, 13, 7, 100
1, 6, Control_c, 14, 7, 100
1, 6, Control_c, 15, 7, 100
1, 117, Control_c, 0, 64, 15
1, 117, Control_c, 0, 67, 15
1, 229, Control_c, 0, 64, 31
1, 229, Control_c, 0, 67, 31
1, 341, Control_c, 0, 64, 46
1, 341, Control_c, 0, 67, 46
1, 452, Control_c, 0, 64, 63
1, 452, Control_c, 0, 67, 63
1, 564, Control_c, 0, 64, 77
1, 564, Control_c, 0, 67, 77
1, 676, Control_c, 0, 64, 94
1, 676, Control_c, 0, 67, 94
1, 787, Control_c, 0, 64, 108
1, 787, Control_c, 0, 67, 108
1, 899, Control_c, 0, 64, 127
1, 899, Control_c, 0, 67, 127
1, 1138, Note_on_c, 0, 66, 33
1, 1144, Note_on_c, 0, 30, 26
1, 1145, Note_on_c, 0, 54, 27
1, 1215, Note_on_c, 0, 42, 3
1, 1283, Note_off_c, 0, 30, 49
1, 1301, Note_off_c, 0, 42, 35
1, 1347, Note_off_c, 0, 66, 40
1, 1348, Note_off_c, 0, 54, 41
1, 1469, Note_on_c, 0, 65, 41
1, 1480, Note_on_c, 0, 29, 30
1, 1529, Poly_aftertouch_c, 0, 53, 127
1, 1577, Poly_aftertouch_c, 0, 53, 0
1, 1629, Note_off_c, 0, 65, 36
1, 1637, Note_off_c, 0, 29, 37
1, 1660, Note_on_c, 0, 66, 56
1, 1672, Note_on_c, 0, 30, 41
1, 1732, Note_off_c, 0, 30, 56
1, 1778, Poly_aftertouch_c, 0, 42, 0
1, 1818, Note_on_c, 0, 31, 39
1, 1818, Note_on_c, 0, 67, 56
1, 1833, Note_off_c, 0, 66, 35
1, 1893, Note_off_c, 0, 31, 53
1, 1917, Note_off_c, 0, 67, 55
1, 1950, Note_on_c, 0, 68, 56
1, 1976, Note_on_c, 0, 44, 40
1, 2009, Note_off_c, 0, 44, 50
1, 2029, Poly_aftertouch_c, 0, 32, 127
1, 2056, Poly_aftertouch_c, 0, 56, 0
1, 2064, Note_off_c, 0, 68, 50
1, 2072, Poly_aftertouch_c, 0, 32, 0
1, 2075, Note_on_c, 0, 33, 46
1, 2075, Note_on_c, 0, 69, 55
1, 2168, Control_c, 0, 64, 72
1, 2183, Control_c, 0, 64, 59
1, 2198, Control_c, 0, 64, 47
1, 2207, Note_on_c, 0, 68, 63
1, 2213, Control_c, 0, 64, 44
1, 2218, Note_on_c, 0, 32, 38
1, 2220, Note_off_c, 0, 33, 36
1, 2222, Note_on_c, 0, 44, 43
1, 2227, Note_on_c, 0, 56, 58
1, 2228, Control_c, 0, 64, 51
1, 2236, Note_off_c, 0, 69, 35
1, 2242, Control_c, 0, 64, 61
1, 2257, Control_c, 0, 64, 80
1, 2269, Note_off_c, 0, 44, 60
1, 2272, Control_c, 0, 64, 127
1, 2289, Note_off_c, 0, 56, 61
1, 2311, Note_off_c, 0, 68, 58
1, 2326, Note_off_c, 0, 32, 53
1, 2334, Note_on_c, 0, 31, 57
1, 2349, Note_on_c, 0, 67, 64
1, 2418, Note_off_c, 0, 31, 61
1, 2431, Note_off_c, 0, 67, 59
1, 2443, Note_on_c, 0, 68, 71
1, 2447, Note_on_c, 0, 32, 56
1, 2450, Note_on_c, 0, 44, 60
1, 2468, Note_on_c, 0, 56, 47
1, 2481, Note_off_c, 0, 44, 64
1, 2495, Note_off_c, 0, 56, 59
1, 2504, Note_off_c, 0, 32, 61
1, 2543, Note_on_c, 0, 33, 67
1, 2546, Note_off_c, 0, 68, 49
1, 2550, Note_on_c, 0, 69, 71
1, 2560, Note_on_c, 0, 57, 48
1, 2579, Note_on_c, 0, 45, 5
1, 2586, Note_off_c, 0, 57, 56
1, 2599, Note_off_c, 0, 33, 53
1, 2626, Note_off_c, 0, 45, 53
1, 2627, Note_off_c, 0, 69, 47
1, 2645, Note_on_c, 0, 70, 76
1, 2648, Note_on_c, 0, 46, 73
1, 2653, Note_on_c, 0, 34, 58
1, 2656, Note_on_c, 0, 58, 60
1, 2673, Note_off_c, 0, 46, 68
1, 2686, Note_off_c, 0, 58, 65
1, 2705, Note_off_c, 0, 34, 64
1, 2750, Note_off_c, 0, 70, 59
1, 2751, Note_on_c, 0, 71, 73
1, 2759, Note_on_c, 0, 35, 61
1, 2778, Note_on_c, 0, 47, 21
1, 2782, Note_on_c, 0, 59, 21
1, 2798, Control_c, 0, 64, 88
1, 2813, Control_c, 0, 64, 63
1, 2824, Note_off_c, 0, 59, 44
1, 2828, Note_off_c, 0, 47, 53
1, 2828, Control_c, 0, 64, 47
1, 2832, Note_off_c, 0, 35, 62
1, 2842, Control_c, 0, 64, 20
1, 2846, Note_off_c, 0, 71, 64
1, 2851, Note_on_c, 0, 70, 78
1, 2857, Control_c, 0, 64, 23
1, 2861, Note_on_c, 0, 46, 73
1, 2861, Note_on_c, 0, 58, 73
1, 2870, Note_on_c, 0, 34, 61
1, 2872, Control_c, 0, 64, 38
1, 2886, Control_c, 0, 64, 56
1, 2901, Control_c, 0, 64, 81
1, 2902, Note_off_c, 0, 46, 63
1, 2916, Note_off_c, 0, 58, 61
1, 2916, Control_c, 0, 64, 127
1, 2922, Note_off_c, 0, 70, 62
1, 2963, Note_on_c, 0, 69, 73
1, 2965, Note_on_c, 0, 33, 73
1, 2984, Note_on_c, 0, 57, 48
1, 3012, Note_off_c, 0, 57, 54
1, 3032, Note_off_c, 0, 33, 59
1, 3033, Note_off_c, 0, 69, 61
1, 3038, Poly_aftertouch_c, 0, 45, 127
1, 3039, Note_off_c, 0, 34, 0
1, 3053, Note_on_c, 0, 34, 48
1, 3057, Note_on_c, 0, 70, 77
1, 3063, Note_on_c, 0, 46, 81
1, 3070, Poly_aftertouch_c, 0, 45, 0
1, 3070, Note_on_c, 0, 58, 65
1, 3094, Note_off_c, 0, 58, 69
1, 3103, Note_off_c, 0, 46, 64
1, 3136, Note_off_c, 0, 34, 59
1, 3148, Note_on_c, 0, 35, 76
1, 3148, Note_on_c, 0, 59, 76
1, 3151, Note_on_c, 0, 71, 79
1, 3156, Note_off_c, 0, 70, 56
1, 3162, Note_on_c, 0, 47, 58
1, 3172, Note_off_c, 0, 59, 67
1, 3178, Note_off_c, 0, 35, 64
1, 3181, Note_off_c, 0, 71, 62
1, 3187, Note_off_c, 0, 47, 58
1, 3246, Note_on_c, 0, 48, 76
1, 3249, Note_on_c, 0, 36, 74
1, 3249, Note_on_c, 0, 60, 82
1, 3249, Note_on_c, 0, 72, 87
1, 3270, Note_off_c, 0, 60, 72
1, 3273, Note_off_c, 0, 48, 68
1, 3303, Note_off_c, 0, 36, 55
1, 3303, Note_off_c, 0, 72, 57
1, 3344, Note_on_c, 0, 73, 88
1, 3348, Note_on_c, 0, 49, 81
1, 3348, Note_on_c, 0, 61, 88
1, 3351, Note_on_c, 0, 37, 71
1, 3377, Note_off_c, 0, 49, 67
1, 3389, Note_off_c, 0, 61, 61
1, 3391, Note_off_c, 0, 73, 67
1, 3392, Control_c, 0, 64, 70
1, 3403, Note_off_c, 0, 37, 58
1, 3407, Control_c, 0, 64, 52
1, 3422, Control_c, 0, 64, 39
1, 3437, Control_c, 0, 64, 42
1, 3438, Note_on_c, 0, 72, 86
1, 3440, Note_on_c, 0, 60, 86
1, 3442, Note_on_c, 0, 36, 75
1, 3443, Note_on_c, 0, 48, 65
1, 3452, Control_c, 0, 64, 56
1, 3472, Note_off_c, 0, 60, 63
1, 3473, Control_c, 0, 64, 76
1, 3475, Note_off_c, 0, 48, 68
1, 3485, Note_off_c, 0, 72, 61
1, 3488, Control_c, 0, 64, 127
1, 3493, Note_off_c, 0, 36, 63
1, 3537, Note_on_c, 0, 47, 75
1, 3544, Note_on_c, 0, 35, 79
1, 3546, Note_on_c, 0, 59, 87
1, 3552, Note_on_c, 0, 71, 84
1, 3577, Note_off_c, 0, 59, 58
1, 3581, Note_off_c, 0, 35, 66
1, 3583, Note_off_c, 0, 71, 63
1, 3584, Note_off_c, 0, 47, 63
1, 3646, Note_on_c, 0, 60, 91
1, 3647, Note_on_c, 0, 72, 93
1, 3648, Note_on_c, 0, 48, 84
1, 3661, Note_on_c, 0, 36, 61
1, 3677, Note_off_c, 0, 48, 69
1, 3681, Note_off_c, 0, 60, 66
1, 3685, Note_on_c, 0, 35, 21
1, 3692, Note_off_c, 0, 36, 61
1, 3704, Note_off_c, 0, 35, 65
1, 3708, Note_off_c, 0, 72, 57
1, 3741, Note_on_c, 0, 49, 88
1, 3744, Note_on_c, 0, 61, 91
1, 3745, Note_on_c, 0, 73, 89
1, 3746, Note_on_c, 0, 37, 68
1, 3783, Note_off_c, 0, 37, 63
1, 3789, Note_off_c, 0, 49, 64
1, 3789, Note_off_c, 0, 61, 64
1, 3795, Note_off_c, 0, 73, 61
1, 3843, Note_on_c, 0, 38, 77
1, 3845, Control_c, 0, 67, 126
1, 3848, Note_on_c, 0, 62, 86
1, 3849, Note_on_c, 0, 74, 79
1, 3857, Note_on_c, 0, 50, 58
1, 3857, Note_on_c, 0, 72, 72
1, 3860, Control_c, 0, 67, 120
1, 3869, Note_off_c, 0, 62, 72
1, 3875, Control_c, 0, 67, 114
1, 3876, Note_off_c, 0, 72, 67
1, 3881, Note_off_c, 0, 50, 60
1, 3881, Note_off_c, 0, 38, 63
1, 3889, Control_c, 0, 67, 106
1, 3901, Note_off_c, 0, 74, 63
1, 3904, Control_c, 0, 67, 98
1, 3919, Control_c, 0, 67, 93
1, 3934, Control_c, 0, 67, 91
1, 3938, Note_on_c, 0, 75, 85
1, 3942, Note_on_c, 0, 51, 79
1, 3945, Note_on_c, 0, 63, 73
1, 3948, Control_c, 0, 67, 89
1, 3960, Note_on_c, 0, 39, 54
1, 3963, Control_c, 0, 67, 87
1, 3969, Note_off_c, 0, 51, 69
1, 3971, Note_off_c, 0, 63, 72
1, 3978, Control_c, 0, 67, 85
1, 3980, Note_off_c, 0, 75, 58
1, 3986, Note_off_c, 0, 39, 57
1, 3993, Control_c, 0, 67, 83
1, 4007, Control_c, 0, 67, 80
1, 4022, Control_c, 0, 67, 77
1, 4037, Control_c, 0, 64, 105
1, 4037, Control_c, 0, 67, 71
1, 4052, Control_c, 0, 64, 63
1, 4052, Control_c, 0, 67, 59
1, 4067, Control_c, 0, 64, 39
1, 4067, Control_c, 0, 67, 45
1, 4075, Note_on_c, 0, 74, 79
1, 4078, Note_on_c, 0, 38, 60
1, 4081, Note_on_c, 0, 62, 75
1, 4081, Control_c, 0, 64, 0
1, 4081, Control_c, 0, 67, 30
1, 4085, Note_on_c, 0, 50, 53
1, 4096, Control_c, 0, 67, 18
1, 4111, Control_c, 0, 64, 22
1, 4111, Control_c, 0, 67, 8
1, 4126, Control_c, 0, 64, 47
1, 4126, Control_c, 0, 67, 0
1, 4141, Control_c, 0, 64, 70
1, 4143, Note_off_c, 0, 38, 61
1, 4147, Note_off_c, 0, 62, 61
1, 4151, Note_off_c, 0, 50, 62
1, 4155, Control_c, 0, 64, 127
1, 4158, Note_off_c, 0, 74, 64
1, 4239, Note_on_c, 0, 63, 75
1, 4242, Note_on_c, 0, 51, 74
1, 4242, Note_on_c, 0, 75, 84
1, 4247, Note_on_c, 0, 39, 68
1, 4268, Note_off_c, 0, 51, 69
1, 4268, Note_off_c, 0, 63, 68
1, 4274, Note_off_c, 0, 75, 60
1, 4278, Note_off_c, 0, 39, 66
1, 4329, Note_on_c, 0, 52, 74
1, 4330, Note_on_c, 0, 76, 84
1, 4332, Note_on_c, 0, 64, 74
1, 4337, Note_on_c, 0, 40, 65
1, 4340, Control_c, 0, 64, 113
1, 4351, Note_off_c, 0, 76, 71
1, 4355, Note_off_c, 0, 52, 70
1, 4355, Control_c, 0, 64, 77
1, 4356, Note_off_c, 0, 64, 68
1, 4369, Note_off_c, 0, 40, 66
1, 4370, Control_c, 0, 64, 75
1, 4385, Control_c, 0, 64, 89
1, 4400, Control_c, 0, 64, 127
1, 4415, Note_on_c, 0, 63, 87
1, 4417, Note_on_c, 0, 51, 83
1, 4418, Note_on_c, 0, 75, 92
1, 4424, Note_on_c, 0, 39, 84
1, 4451, Note_off_c, 0, 51, 68
1, 4458, Note_off_c, 0, 63, 66
1, 4458, Note_off_c, 0, 75, 61
1, 4460, Note_off_c, 0, 39, 65
1, 4501, Note_on_c, 0, 52, 75
1, 4507, Note_on_c, 0, 40, 68
1, 4507, Note_on_c, 0, 64, 92
1, 4510, Note_on_c, 0, 76, 86
1, 4531, Note_off_c, 0, 52, 69
1, 4534, Note_off_c, 0, 64, 65
1, 4538, Note_off_c, 0, 76, 66
1, 4541, Note_off_c, 0, 40, 64
1, 4602, Note_on_c, 0, 53, 90
1, 4604, Note_on_c, 0, 65, 84
1, 4606, Note_on_c, 0, 41, 70
1, 4609, Note_on_c, 0, 77, 85
1, 4609, Control_c, 0, 64, 101
1, 4612, Note_on_c, 0, 79, 78
1, 4623, Control_c, 0, 64, 74
1, 4624, Note_off_c, 0, 53, 72
1, 4626, Note_on_c, 0, 67, 51
1, 4626, Note_off_c, 0, 65, 72
1, 4628, Note_off_c, 0, 77, 71
1, 4629, Note_off_c, 0, 79, 69
1, 4635, Note_off_c, 0, 41, 66
1, 4638, Control_c, 0, 64, 70
1, 4650, Note_off_c, 0, 67, 60
1, 4653, Control_c, 0, 64, 74
1, 4668, Control_c, 0, 64, 90
1, 4683, Control_c, 0, 64, 127
1, 4692, Note_on_c, 0, 64, 95
1, 4695, Note_on_c, 0, 52, 92
1, 4697, Note_on_c, 0, 76, 103
1, 4698, Note_on_c, 0, 40, 85
1, 4713, Note_off_c, 0, 52, 73
1, 4722, Note_off_c, 0, 40, 68
1, 4725, Note_off_c, 0, 64, 63
1, 4727, Note_off_c, 0, 76, 64
1, 4783, Note_on_c, 0, 53, 91
1, 4787, Note_on_c, 0, 77, 100
1, 4787, Note_on_c, 0, 65, 91
1, 4790, Note_on_c, 0, 41, 66
1, 4808, Note_off_c, 0, 65, 68
1, 4816, Note_off_c, 0, 41, 67
1, 4816, Note_off_c, 0, 53, 68
1, 4820, Note_off_c, 0, 77, 62
1, 4881, Note_on_c, 0, 54, 91
1, 4882, Note_on_c, 0, 66, 91
1, 4883, Note_on_c, 0, 78, 101
1, 4884, Note_on_c, 0, 42, 84
1, 4904, Control_c, 0, 64, 82
1, 4911, Note_off_c, 0, 54, 66
1, 4917, Note_off_c, 0, 78, 70
1, 4919, Note_off_c, 0, 42, 62
1, 4919, Control_c, 0, 64, 66
1, 4920, Note_off_c, 0, 66, 62
1, 4934, Control_c, 0, 64, 63
1, 4948, Control_c, 0, 64, 71
1, 4970, Control_c, 0, 64, 127
1, 4978, Note_on_c, 0, 53, 85
1, 4979, Note_on_c, 0, 77, 96
1, 4981, Note_on_c, 0, 41, 67
1, 4981, Note_on_c, 0, 65, 92
1, 5002, Note_off_c, 0, 41, 72
1, 5004, Note_off_c, 0, 53, 69
1, 5009, Note_off_c, 0, 65, 68
1, 5013, Note_off_c, 0, 77, 68
1, 5014, Poly_aftertouch_c, 0, 44, 0
1, 5068, Note_on_c, 0, 54, 87
1, 5072, Note_on_c, 0, 42, 84
1, 5072, Note_on_c, 0, 66, 88
1, 5074, Note_on_c, 0, 78, 98
1, 5102, Note_off_c, 0, 54, 65
1, 5108, Note_off_c, 0, 42, 62
1, 5110, Note_off_c, 0, 78, 70
1, 5115, Note_off_c, 0, 66, 64
1, 5162, Note_on_c, 0, 55, 83
1, 5165, Note_on_c, 0, 67, 94
1, 5166, Note_on_c, 0, 79, 91
1, 5169, Note_on_c, 0, 43, 66
1, 5188, Note_off_c, 0, 55, 69
1, 5190, Note_off_c, 0, 67, 63
1, 5193, Control_c, 0, 64, 108
1, 5199, Note_off_c, 0, 79, 65
1, 5200, Note_off_c, 0, 43, 64
1, 5208, Control_c, 0, 64, 66
1, 5223, Control_c, 0, 64, 53
1, 5237, Control_c, 0, 64, 50
1, 5252, Note_on_c, 0, 54, 91
1, 5252, Control_c, 0, 64, 59
1, 5261, Note_on_c, 0, 42, 86
1, 5263, Note_on_c, 0, 66, 94
1, 5264, Note_on_c, 0, 78, 102
1, 5267, Control_c, 0, 64, 81
1, 5281, Control_c, 0, 64, 127
1, 5290, Note_off_c, 0, 54, 64
1, 5299, Note_off_c, 0, 66, 66
1, 5299, Note_off_c, 0, 78, 70
1, 5304, Note_off_c, 0, 42, 59
1, 5352, Note_on_c, 0, 55, 82
1, 5353, Note_on_c, 0, 79, 90
1, 5354, Note_on_c, 0, 67, 91
1, 5359, Note_on_c, 0, 43, 72
1, 5382, Note_off_c, 0, 43, 62
1, 5384, Note_off_c, 0, 55, 68
1, 5387, Note_off_c, 0, 67, 60
1, 5388, Note_off_c, 0, 79, 66
1, 5446, Note_on_c, 0, 56, 97
1, 5450, Note_on_c, 0, 68, 93
1, 5451, Note_on_c, 0, 44, 86
1, 5451, Note_on_c, 0, 80, 104
1, 5485, Note_off_c, 0, 80, 68
1, 5486, Note_off_c, 0, 56, 68
1, 5487, Note_off_c, 0, 68, 63
1, 5500, Note_off_c, 0, 44, 61
1, 5521, Poly_aftertouch_c, 0, 46, 127
1, 5549, Control_c, 0, 64, 69
1, 5554, Note_on_c, 0, 67, 95
1, 5554, Note_on_c, 0, 55, 96
1, 5554, Note_on_c, 0, 79, 101
1, 5559, Note_on_c, 0, 43, 84
1, 5564, Control_c, 0, 64, 55
1, 5565, Poly_aftertouch_c, 0, 46, 0
1, 5578, Control_c, 0, 64, 48
1, 5586, Note_off_c, 0, 43, 69
1, 5587, Note_off_c, 0, 67, 65
1, 5589, Note_off_c, 0, 55, 70
1, 5591, Note_off_c, 0, 79, 62
1, 5593, Control_c, 0, 64, 58
1, 5608, Control_c, 0, 64, 89
1, 5623, Control_c, 0, 64, 127
1, 5652, Note_on_c, 0, 56, 93
1, 5656, Note_on_c, 0, 80, 100
1, 5657, Note_on_c, 0, 68, 89
1, 5658, Note_on_c, 0, 44, 85
1, 5687, Note_off_c, 0, 56, 69
1, 5694, Note_off_c, 0, 80, 67
1, 5694, Note_off_c, 0, 68, 62
1, 5696, Note_off_c, 0, 44, 61
1, 5759, Note_on_c, 0, 57, 97
1, 5762, Note_on_c, 0, 69, 98
1, 5764, Note_on_c, 0, 81, 105
1, 5766, Note_on_c, 0, 45, 83
1, 5793, Note_off_c, 0, 45, 68
1, 5793, Note_off_c, 0, 69, 70
1, 5794, Note_off_c, 0, 57, 64
1, 5795, Note_off_c, 0, 81, 68
1, 5823, Control_c, 0, 64, 75
1, 5838, Control_c, 0, 64, 61
1, 5853, Control_c, 0, 64, 55
1, 5867, Note_on_c, 0, 55, 96
1, 5867, Control_c, 0, 64, 63
1, 5870, Note_on_c, 0, 67, 106
1, 5870, Note_on_c, 0, 43, 94
1, 5872, Note_on_c, 0, 79, 103
1, 5882, Control_c, 0, 64, 127
1, 5898, Note_off_c, 0, 43, 64
1, 5899, Note_off_c, 0, 55, 68
1, 5900, Note_off_c, 0, 67, 68
1, 5904, Note_off_c, 0, 79, 65
1, 5977, Note_on_c, 0, 56, 96
1, 5980, Note_on_c, 0, 68, 104
1, 5981, Note_on_c, 0, 44, 97
1, 5981, Note_on_c, 0, 80, 108
1, 6015, Note_off_c, 0, 68, 65
1, 6016, Note_off_c, 0, 56, 67
1, 6016, Note_off_c, 0, 80, 67
1, 6027, Note_off_c, 0, 44, 62
1, 6091, Note_on_c, 0, 57, 96
1, 6095, Note_on_c, 0, 69, 99
1, 6095, Note_on_c, 0, 81, 107
1, 6096, Note_on_c, 0, 45, 87
1, 6123, Note_off_c, 0, 57, 68
1, 6126, Note_off_c, 0, 69, 70
1, 6128, Note_off_c, 0, 45, 65
1, 6129, Note_off_c, 0, 81, 65
1, 6224, Control_c, 0, 64, 62
1, 6225, Note_on_c, 0, 56, 105
1, 6230, Note_on_c, 0, 68, 103
1, 6231, Note_on_c, 0, 80, 105
1, 6232, Note_on_c, 0, 44, 90
1, 6239, Control_c, 0, 64, 31
1, 6254, Control_c, 0, 64, 0
1, 6269, Control_c, 0, 64, 23
1, 6282, Note_off_c, 0, 44, 64
1, 6282, Note_off_c, 0, 56, 66
1, 6283, Control_c, 0, 64, 56
1, 6291, Note_off_c, 0, 68, 55
1, 6298, Control_c, 0, 64, 127
1, 6303, Note_off_c, 0, 80, 62
1, 6383, Note_on_c, 0, 57, 95
1, 6387, Note_on_c, 0, 69, 105
1, 6387, Note_on_c, 0, 81, 106
1, 6388, Note_on_c, 0, 45, 89
1, 6422, Note_off_c, 0, 45, 62
1, 6422, Note_off_c, 0, 57, 63
1, 6424, Note_off_c, 0, 69, 68
1, 6430, Note_off_c, 0, 81, 63
1, 6558, Note_on_c, 0, 58, 106
1, 6561, Note_on_c, 0, 70, 109
1, 6561, Note_on_c, 0, 46, 95
1, 6564, Note_on_c, 0, 82, 102
1, 6592, Note_on_c, 0, 80, 54
1, 6593, Note_off_c, 0, 80, 127
1, 6593, Note_off_c, 0, 82, 72
1, 6594, Note_on_c, 0, 69, 48
1, 6602, Note_off_c, 0, 58, 66
1, 6603, Note_off_c, 0, 46, 65
1, 6610, Note_off_c, 0, 69, 69
1, 6628, Note_off_c, 0, 70, 56
1, 6838, Control_c, 0, 64, 63
1, 6841, Note_on_c, 0, 59, 103
1, 6842, Note_on_c, 0, 71, 105
1, 6842, Note_on_c, 0, 83, 107
1, 6844, Note_on_c, 0, 47, 98
1, 6844, Note_on_c, 0, 74, 94
1, 6851, Note_on_c, 0, 50, 88
1, 6853, Control_c, 0, 64, 0
1, 6888, Note_on_c, 0, 75, 16
1, 6889, Note_off_c, 0, 75, 127
1, 6958, Control_c, 0, 64, 32
1, 6972, Control_c, 0, 64, 51
1, 6987, Control_c, 0, 64, 77
1, 7003, Control_c, 0, 64, 127
1, 7009, Note_off_c, 0, 83, 63
1, 7013, Note_off_c, 0, 47, 64
1, 7026, Note_off_c, 0, 71, 61
1, 7029, Note_off_c, 0, 59, 57
1, 7149, Note_on_c, 0, 82, 72
1, 7150, Note_on_c, 0, 46, 67
1, 7158, Note_on_c, 0, 58, 49
1, 7179, Note_off_c, 0, 58, 60
1, 7180, Note_off_c, 0, 74, 59
1, 7181, Note_on_c, 0, 70, 26
1, 7183, Note_off_c, 0, 82, 61
1, 7187, Note_off_c, 0, 46, 65
1, 7228, Note_off_c, 0, 70, 51
1, 7259, Note_off_c, 0, 50, 0
1, 7268, Note_on_c, 0, 83, 55
1, 7268, Note_on_c, 0, 59, 68
1, 7271, Note_on_c, 0, 74, 54
1, 7273, Note_on_c, 0, 47, 58
1, 7279, Note_on_c, 0, 50, 25
1, 7282, Note_on_c, 0, 71, 51
1, 7286, Note_off_c, 0, 83, 65
1, 7294, Note_off_c, 0, 59, 66
1, 7302, Note_off_c, 0, 47, 60
1, 7305, Note_off_c, 0, 71, 61
1, 7325, Note_off_c, 0, 74, 60
1, 7360, Note_on_c, 0, 74, 53
1, 7365, Note_on_c, 0, 82, 81
1, 7368, Note_on_c, 0, 70, 72
1, 7372, Note_on_c, 0, 58, 73
1, 7376, Note_on_c, 0, 46, 68
1, 7392, Note_off_c, 0, 70, 68
1, 7392, Note_off_c, 0, 74, 66
1, 7396, Note_off_c, 0, 58, 67
1, 7405, Note_off_c, 0, 82, 60
1, 7409, Note_off_c, 0, 46, 67
1, 7444, Note_off_c, 0, 50, 0
1, 7456, Note_on_c, 0, 57, 82
1, 7459, Note_on_c, 0, 45, 75
1, 7461, Note_on_c, 0, 81, 94
1, 7462, Note_on_c, 0, 69, 92
1, 7465, Note_on_c, 0, 74, 81
1, 7467, Note_on_c, 0, 50, 35
1, 7491, Note_off_c, 0, 45, 66
1, 7499, Note_off_c, 0, 69, 64
1, 7500, Note_off_c, 0, 57, 61
1, 7506, Note_off_c, 0, 81, 60
1, 7517, Note_off_c, 0, 74, 64
1, 7542, Note_off_c, 0, 50, 0
1, 7554, Note_on_c, 0, 56, 90
1, 7556, Note_on_c, 0, 80, 69
1, 7557, Poly_aftertouch_c, 0, 74, 0
1, 7561, Note_on_c, 0, 68, 92
1, 7564, Note_on_c, 0, 50, 26
1, 7564, Note_on_c, 0, 74, 72
1, 7566, Note_on_c, 0, 44, 69
1, 7587, Note_off_c, 0, 56, 60
1, 7592, Note_off_c, 0, 74, 62
1, 7596, Note_off_c, 0, 68, 55
1, 7598, Note_off_c, 0, 44, 65
1, 7607, Note_off_c, 0, 80, 64
1, 7618, Note_off_c, 0, 50, 59
1, 7618, Control_c, 0, 64, 69
1, 7632, Control_c, 0, 64, 43
1, 7647, Control_c, 0, 64, 0
1, 7655, Note_on_c, 0, 81, 107
1, 7656, Note_on_c, 0, 45, 87
1, 7656, Note_on_c, 0, 50, 59
1, 7656, Note_on_c, 0, 69, 101
1, 7656, Note_on_c, 0, 74, 96
1, 7658, Note_on_c, 0, 57, 93
1, 7677, Control_c, 0, 64, 10
1, 7691, Control_c, 0, 64, 43
1, 7702, Note_on_c, 0, 80, 43
1, 7706, Control_c, 0, 64, 71
1, 7721, Control_c, 0, 64, 127
1, 7723, Note_off_c, 0, 45, 62
1, 7730, Note_off_c, 0, 81, 63
1, 7735, Note_off_c, 0, 69, 62
1, 7738, Note_off_c, 0, 57, 61
1, 7746, Note_off_c, 0, 80, 63
1, 7786, Poly_aftertouch_c, 0, 52, 127
1, 7828, Note_on_c, 0, 56, 74
1, 7828, Note_on_c, 0, 44, 67
1, 7829, Note_on_c, 0, 68, 77
1, 7831, Note_on_c, 0, 80, 80
1, 7854, Note_off_c, 0, 68, 65
1, 7855, Note_off_c, 0, 56, 69
1, 7861, Note_off_c, 0, 80, 60
1, 7863, Poly_aftertouch_c, 0, 52, 0
1, 7864, Note_off_c, 0, 74, 54
1, 7865, Note_off_c, 0, 44, 63
1, 7876, Note_off_c, 0, 50, 51
1, 7878, Note_on_c, 0, 50, 9
1, 7879, Note_off_c, 0, 50, 127
1, 7924, Note_on_c, 0, 81, 78
1, 7929, Note_on_c, 0, 57, 75
1, 7932, Note_on_c, 0, 45, 66
1, 7933, Note_on_c, 0, 69, 67
1, 7947, Note_off_c, 0, 81, 68
1, 7947, Note_off_c, 0, 57, 70
1, 7947, Note_off_c, 0, 69, 71
1, 7968, Note_off_c, 0, 45, 66
1, 8031, Note_on_c, 0, 80, 94
1, 8032, Note_on_c, 0, 68, 82
1, 8039, Note_on_c, 0, 56, 76
1, 8045, Note_on_c, 0, 44, 76
1, 8055, Note_off_c, 0, 68, 60
1, 8060, Note_off_c, 0, 56, 69
1, 8070, Note_off_c, 0, 44, 67
1, 8072, Note_off_c, 0, 80, 60
1, 8127, Note_on_c, 0, 55, 79
1, 8128, Note_on_c, 0, 67, 85
1, 8129, Note_on_c, 0, 43, 75
1, 8131, Note_on_c, 0, 79, 79
1, 8149, Note_off_c, 0, 67, 69
1, 8151, Note_off_c, 0, 55, 70
1, 8156, Note_off_c, 0, 43, 64
1, 8158, Note_off_c, 0, 79, 63
1, 8161, Note_on_c, 0, 81, 33
1, 8194, Note_off_c, 0, 81, 57
1, 8215, Note_on_c, 0, 54, 88
1, 8215, Note_on_c, 0, 66, 91
1, 8217, Note_on_c, 0, 78, 94
1, 8230, Note_on_c, 0, 42, 71
1, 8254, Note_off_c, 0, 54, 60
1, 8259, Note_off_c, 0, 66, 63
1, 8261, Note_off_c, 0, 42, 63
1, 8269, Note_off_c, 0, 78, 63
1, 8293, Control_c, 0, 64, 80
1, 8307, Control_c, 0, 64, 51
1, 8322, Control_c, 0, 64, 0
1, 8325, Note_on_c, 0, 79, 97
1, 8326, Note_on_c, 0, 71, 89
1, 8326, Note_on_c, 0, 43, 89
1, 8326, Note_on_c, 0, 55, 94
1, 8327, Note_on_c, 0, 67, 99
1, 8334, Note_on_c, 0, 46, 77
1, 8352, Control_c, 0, 64, 12
1, 8367, Control_c, 0, 64, 44
1, 8370, Note_on_c, 0, 47, 59
1, 8381, Control_c, 0, 64, 77
1, 8386, Note_off_c, 0, 43, 62
1, 8393, Note_off_c, 0, 79, 62
1, 8394, Note_off_c, 0, 67, 59
1, 8396, Control_c, 0, 64, 127
1, 8403, Note_off_c, 0, 55, 62
1, 8409, Note_off_c, 0, 46, 48
1, 8412, Poly_aftertouch_c, 0, 53, 127
1, 8439, Poly_aftertouch_c, 0, 53, 0
1, 8442, Poly_aftertouch_c, 0, 49, 0
1, 8451, Note_off_c, 0, 71, 54
1, 8468, Note_off_c, 0, 47, 0
1, 8486, Note_on_c, 0, 66, 81
1, 8487, Note_on_c, 0, 54, 75
1, 8488, Note_on_c, 0, 78, 82
1, 8490, Note_on_c, 0, 42, 68
1, 8500, Note_on_c, 0, 47, 33
1, 8500, Note_on_c, 0, 71, 37
1, 8508, Note_off_c, 0, 54, 70
1, 8509, Note_off_c, 0, 66, 68
1, 8522, Note_off_c, 0, 42, 62
1, 8522, Note_off_c, 0, 78, 63
1, 8525, Note_off_c, 0, 71, 60
1, 8573, Note_on_c, 0, 55, 85
1, 8579, Note_off_c, 0, 47, 0
1, 8586, Note_on_c, 0, 71, 78
1, 8588, Note_on_c, 0, 67, 80
1, 8589, Note_on_c, 0, 79, 72
1, 8593, Note_on_c, 0, 47, 54
1, 8594, Note_on_c, 0, 43, 49
1, 8605, Note_off_c, 0, 67, 72
1, 8605, Note_off_c, 0, 79, 67
1, 8611, Note_off_c, 0, 55, 67
1, 8616, Note_off_c, 0, 43, 61
1, 8619, Control_c, 0, 64, 85
1, 8632, Note_off_c, 0, 47, 63
1, 8634, Control_c, 0, 64, 60
1, 8636, Note_off_c, 0, 71, 59
1, 8649, Control_c, 0, 64, 43
1, 8664, Control_c, 0, 64, 43
1, 8675, Note_on_c, 0, 71, 64
1, 8677, Note_on_c, 0, 54, 76
1, 8677, Note_on_c, 0, 66, 85
1, 8678, Control_c, 0, 64, 58
1, 8679, Note_on_c, 0, 78, 81
1, 8682, Note_on_c, 0, 42, 77
1, 8693, Control_c, 0, 64, 105
1, 8707, Note_on_c, 0, 47, 63
1, 8716, Control_c, 0, 64, 127
1, 8722, Note_off_c, 0, 54, 65
1, 8722, Note_off_c, 0, 66, 60
1, 8730, Note_off_c, 0, 78, 66
1, 8733, Note_off_c, 0, 71, 58
1, 8737, Note_off_c, 0, 42, 60
1, 8777, Note_on_c, 0, 77, 82
1, 8786, Note_on_c, 0, 65, 79
1, 8788, Note_on_c, 0, 71, 45
1, 8794, Note_on_c, 0, 53, 64
1, 8797, Note_on_c, 0, 41, 63
1, 8797, Note_off_c, 0, 47, 48
1, 8806, Note_off_c, 0, 65, 73
1, 8810, Note_off_c, 0, 71, 65
1, 8816, Note_off_c, 0, 53, 66
1, 8819, Note_off_c, 0, 77, 61
1, 8828, Note_off_c, 0, 41, 66
1, 8873, Note_on_c, 0, 64, 93
1, 8875, Note_on_c, 0, 76, 87
1, 8878, Control_c, 0, 64, 71
1, 8882, Note_on_c, 0, 52, 88
1, 8889, Note_on_c, 0, 40, 82
1, 8893, Control_c, 0, 64, 56
1, 8900, Note_off_c, 0, 64, 64
1, 8904, Note_off_c, 0, 76, 65
1, 8905, Note_off_c, 0, 52, 72
1, 8908, Control_c, 0, 64, 52
1, 8916, Note_off_c, 0, 40, 67
1, 8923, Control_c, 0, 64, 62
1, 8937, Control_c, 0, 64, 127
1, 8971, Note_on_c, 0, 63, 93
1, 8973, Note_on_c, 0, 66, 98
1, 8976, Note_on_c, 0, 75, 91
1, 8982, Note_on_c, 0, 51, 96
1, 8986, Note_on_c, 0, 39, 84
1, 8990, Poly_aftertouch_c, 0, 44, 0
1, 8991, Note_on_c, 0, 42, 81
1, 9007, Note_off_c, 0, 63, 62
1, 9015, Note_off_c, 0, 39, 65
1, 9015, Note_off_c, 0, 51, 62
1, 9017, Note_off_c, 0, 75, 59
1, 9018, Note_off_c, 0, 66, 62
1, 9020, Note_off_c, 0, 42, 60
1, 9077, Note_on_c, 0, 62, 103
1, 9080, Note_on_c, 0, 74, 99
1, 9081, Note_on_c, 0, 50, 95
1, 9087, Note_on_c, 0, 38, 83
1, 9108, Note_off_c, 0, 62, 68
1, 9109, Note_off_c, 0, 50, 65
1, 9115, Note_off_c, 0, 74, 64
1, 9118, Note_off_c, 0, 38, 64
1, 9176, Note_on_c, 0, 73, 77
1, 9179, Note_on_c, 0, 61, 104
1, 9180, Note_on_c, 0, 49, 102
1, 9185, Note_on_c, 0, 37, 95
1, 9214, Note_off_c, 0, 61, 69
1, 9218, Note_off_c, 0, 73, 67
1, 9220, Note_off_c, 0, 49, 68
1, 9295, Note_off_c, 0, 37, 53
1, 9307, Control_c, 0, 64, 71
1, 9323, Control_c, 0, 64, 39
1, 9338, Control_c, 0, 64, 0
1, 9344, Note_on_c, 0, 59, 104
1, 9346, Note_on_c, 0, 71, 97
1, 9347, Note_on_c, 0, 66, 100
1, 9348, Note_on_c, 0, 47, 94
1, 9351, Note_on_c, 0, 42, 94
1, 9353, Note_on_c, 0, 35, 84
1, 9371, Note_on_c, 0, 45, 63
1, 9381, Note_on_c, 0, 69, 48
1, 9382, Note_off_c, 0, 69, 127
1, 9403, Note_off_c, 0, 45, 36
1, 9410, Note_on_c, 0, 41, 16
1, 9426, Control_c, 0, 64, 13
1, 9440, Note_off_c, 0, 35, 63
1, 9441, Control_c, 0, 64, 39
1, 9452, Note_off_c, 0, 59, 52
1, 9457, Note_off_c, 0, 71, 59
1, 9464, Note_off_c, 0, 41, 52
1, 9464, Control_c, 0, 64, 52
1, 9477, Note_off_c, 0, 47, 57
1, 9479, Control_c, 0, 64, 66
1, 9493, Note_off_c, 0, 42, 53
1, 9493, Control_c, 0, 64, 127
1, 9527, Note_off_c, 0, 66, 61
1, 9760, Control_c, 0, 64, 65
1, 9774, Control_c, 0, 64, 33
1, 9789, Control_c, 0, 64, 0
1, 9807, Note_on_c, 0, 71, 94
1, 9813, Note_on_c, 0, 59, 94
1, 9814, Note_on_c, 0, 47, 82
1, 9818, Note_on_c, 0, 67, 88
1, 9819, Note_on_c, 0, 35, 72
1, 9825, Note_on_c, 0, 43, 77
1, 9878, Control_c, 0, 64, 22
1, 9884, Note_off_c, 0, 71, 65
1, 9885, Note_off_c, 0, 35, 63
1, 9893, Control_c, 0, 64, 33
1, 9894, Note_off_c, 0, 59, 61
1, 9904, Note_off_c, 0, 47, 62
1, 9908, Control_c, 0, 64, 49
1, 9923, Control_c, 0, 64, 64
1, 9938, Control_c, 0, 64, 109
1, 9952, Control_c, 0, 64, 127
1, 10005, Note_on_c, 0, 34, 66
1, 10014, Note_on_c, 0, 46, 52
1, 10017, Note_on_c, 0, 70, 68
1, 10018, Note_on_c, 0, 58, 67
1, 10039, Note_off_c, 0, 58, 65
1, 10040, Note_off_c, 0, 46, 57
1, 10041, Note_off_c, 0, 70, 66
1, 10043, Note_off_c, 0, 34, 64
1, 10055, Note_off_c, 0, 67, 58
1, 10105, Note_on_c, 0, 59, 68
1, 10110, Note_on_c, 0, 71, 70
1, 10111, Note_on_c, 0, 47, 54
1, 10115, Note_off_c, 0, 43, 0
1, 10115, Note_on_c, 0, 43, 3
1, 10123, Note_off_c, 0, 59, 66
1, 10135, Note_off_c, 0, 47, 61
1, 10135, Note_off_c, 0, 71, 69
1, 10144, Note_off_c, 0, 43, 49
1, 10151, Poly_aftertouch_c, 0, 35, 127
1, 10188, Poly_aftertouch_c, 0, 35, 0
1, 10210, Note_on_c, 0, 49, 81
1, 10213, Note_on_c, 0, 61, 83
1, 10216, Note_on_c, 0, 37, 65
1, 10216, Note_on_c, 0, 73, 85
1, 10237, Note_off_c, 0, 49, 69
1, 10242, Note_off_c, 0, 73, 62
1, 10244, Note_off_c, 0, 61, 65
1, 10246, Note_off_c, 0, 37, 64
1, 10305, Note_on_c, 0, 50, 66
1, 10310, Note_on_c, 0, 38, 57
1, 10313, Note_on_c, 0, 62, 79
1, 10314, Note_on_c, 0, 74, 80
1, 10333, Note_off_c, 0, 50, 66
1, 10334, Note_off_c, 0, 74, 71
1, 10335, Note_off_c, 0, 62, 70
1, 10341, Note_off_c, 0, 38, 61
1, 10411, Note_on_c, 0, 76, 79
1, 10415, Note_on_c, 0, 64, 62
1, 10417, Note_on_c, 0, 52, 68
1, 10422, Note_on_c, 0, 40, 61
1, 10430, Note_off_c, 0, 76, 71
1, 10435, Note_off_c, 0, 64, 64
1, 10439, Note_off_c, 0, 52, 65
1, 10448, Note_off_c, 0, 40, 59
1, 10480, Control_c, 0, 64, 87
1, 10495, Control_c, 0, 64, 55
1, 10509, Control_c, 0, 64, 0
1, 10529, Note_on_c, 0, 50, 69
1, 10531, Note_on_c, 0, 62, 69
1, 10532, Note_on_c, 0, 74, 73
1, 10532, Note_on_c, 0, 66, 83
1, 10541, Note_on_c, 0, 38, 58
1, 10561, Note_on_c, 0, 42, 54
1, 10563, Note_off_c, 0, 62, 61
1, 10569, Control_c, 0, 64, 34
1, 10571, Note_off_c, 0, 74, 59
1, 10573, Note_off_c, 0, 38, 53
1, 10583, Control_c, 0, 64, 61
1, 10595, Note_off_c, 0, 50, 53
1, 10598, Control_c, 0, 64, 127
1, 10630, Note_off_c, 0, 66, 62
1, 10641, Note_off_c, 0, 42, 59
1, 10687, Note_on_c, 0, 37, 59
1, 10687, Note_on_c, 0, 49, 63
1, 10687, Note_on_c, 0, 73, 71
1, 10698, Note_on_c, 0, 61, 45
1, 10707, Note_off_c, 0, 73, 69
1, 10713, Note_off_c, 0, 49, 66
1, 10719, Note_off_c, 0, 37, 64
1, 10723, Note_off_c, 0, 61, 59
1, 10778, Note_on_c, 0, 71, 72
1, 10780, Note_on_c, 0, 59, 67
1, 10781, Note_on_c, 0, 47, 71
1, 10789, Note_on_c, 0, 35, 56
1, 10798, Note_off_c, 0, 59, 65
1, 10800, Note_off_c, 0, 71, 71
1, 10809, Note_off_c, 0, 47, 67
1, 10817, Note_off_c, 0, 35, 56
1, 10873, Note_on_c, 0, 46, 83
1, 10874, Note_on_c, 0, 58, 76
1, 10877, Note_on_c, 0, 70, 84
1, 10883, Note_on_c, 0, 34, 72
1, 10898, Note_off_c, 0, 58, 67
1, 10900, Note_off_c, 0, 46, 69
1, 10903, Note_off_c, 0, 70, 60
1, 10912, Note_off_c, 0, 34, 67
1, 10980, Note_on_c, 0, 35, 61
1, 10980, Note_on_c, 0, 47, 74
1, 10985, Note_on_c, 0, 71, 77
1, 10986, Note_on_c, 0, 59, 73
1, 11000, Note_off_c, 0, 59, 69
1, 11001, Note_off_c, 0, 47, 71
1, 11002, Note_off_c, 0, 71, 74
1, 11005, Note_off_c, 0, 35, 62
1, 11080, Note_on_c, 0, 73, 84
1, 11085, Note_on_c, 0, 49, 81
1, 11086, Note_on_c, 0, 37, 72
1, 11087, Note_on_c, 0, 61, 71
1, 11100, Note_off_c, 0, 73, 70
1, 11110, Note_off_c, 0, 49, 70
1, 11110, Note_off_c, 0, 61, 72
1, 11116, Note_off_c, 0, 37, 64
1, 11169, Control_c, 0, 64, 68
1, 11184, Control_c, 0, 64, 45
1, 11199, Control_c, 0, 64, 0
1, 11203, Note_on_c, 0, 71, 80
1, 11205, Note_on_c, 0, 47, 75
1, 11212, Note_on_c, 0, 59, 82
1, 11214, Note_on_c, 0, 67, 81
1, 11214, Note_on_c, 0, 35, 60
1, 11221, Note_on_c, 0, 43, 65
1, 11243, Control_c, 0, 64, 17
1, 11248, Note_off_c, 0, 35, 65
1, 11252, Note_off_c, 0, 71, 67
1, 11257, Control_c, 0, 64, 47
1, 11262, Note_on_c, 0, 70, 34
1, 11262, Note_off_c, 0, 47, 63
1, 11265, Note_off_c, 0, 59, 61
1, 11272, Control_c, 0, 64, 71
1, 11287, Control_c, 0, 64, 127
1, 11295, Note_off_c, 0, 70, 54
1, 11340, Note_on_c, 0, 34, 74
1, 11351, Note_on_c, 0, 58, 76
1, 11352, Note_on_c, 0, 46, 69
1, 11360, Note_on_c, 0, 70, 79
1, 11375, Note_off_c, 0, 58, 68
1, 11377, Note_off_c, 0, 67, 60
1, 11378, Note_off_c, 0, 46, 68
1, 11381, Note_off_c, 0, 34, 66
1, 11386, Note_off_c, 0, 70, 66
1, 11437, Note_on_c, 0, 47, 80
1, 11444, Note_on_c, 0, 35, 55
1, 11444, Note_on_c, 0, 59, 83
1, 11450, Note_on_c, 0, 71, 76
1, 11462, Note_off_c, 0, 47, 69
1, 11462, Note_off_c, 0, 59, 71
1, 11471, Note_off_c, 0, 35, 56
1, 11473, Note_off_c, 0, 71, 72
1, 11512, Note_off_c, 0, 43, 33
1, 11532, Note_on_c, 0, 49, 92
1, 11537, Note_on_c, 0, 37, 85
1, 11538, Note_on_c, 0, 61, 91
1, 11540, Note_on_c, 0, 73, 95
1, 11566, Note_off_c, 0, 49, 64
1, 11568, Note_off_c, 0, 37, 66
1, 11575, Note_off_c, 0, 61, 64
1, 11579, Note_off_c, 0, 73, 62
1, 11629, Note_on_c, 0, 50, 85
1, 11632, Note_on_c, 0, 38, 77
1, 11634, Note_on_c, 0, 62, 96
1, 11637, Note_on_c, 0, 74, 91
1, 11649, Note_off_c, 0, 50, 71
1, 11658, Note_off_c, 0, 62, 66
1, 11660, Note_off_c, 0, 38, 66
1, 11666, Note_off_c, 0, 74, 63
1, 11736, Note_on_c, 0, 52, 93
1, 11739, Note_on_c, 0, 64, 93
1, 11739, Note_on_c, 0, 76, 99
1, 11744, Note_on_c, 0, 40, 80
1, 11759, Note_off_c, 0, 52, 71
1, 11763, Note_off_c, 0, 64, 63
1, 11766, Note_off_c, 0, 76, 65
1, 11769, Note_off_c, 0, 40, 69
1, 11784, Control_c, 0, 64, 107
1, 11799, Control_c, 0, 64, 63
1, 11813, Control_c, 0, 64, 34
1, 11828, Control_c, 0, 64, 0
1, 11843, Note_on_c, 0, 66, 96
1, 11847, Note_on_c, 0, 62, 89
1, 11847, Note_on_c, 0, 74, 89
1, 11852, Note_on_c, 0, 50, 71
1, 11852, Note_on_c, 0, 52, 82
1, 11856, Note_on_c, 0, 38, 66
1, 11858, Control_c, 0, 64, 14
1, 11861, Note_on_c, 0, 42, 71
1, 11867, Note_off_c, 0, 62, 71
1, 11868, Note_off_c, 0, 74, 65
1, 11872, Control_c, 0, 64, 41
1, 11878, Note_off_c, 0, 52, 69
1, 11879, Note_off_c, 0, 38, 60
1, 11879, Note_off_c, 0, 50, 68
1, 11887, Control_c, 0, 64, 63
1, 11902, Control_c, 0, 64, 127
1, 11921, Note_off_c, 0, 66, 61
1, 11928, Note_off_c, 0, 42, 60
1, 11946, Poly_aftertouch_c, 0, 40, 0
1, 11976, Note_on_c, 0, 49, 80
1, 11979, Note_on_c, 0, 37, 77
1, 11980, Note_on_c, 0, 73, 79
1, 11984, Note_on_c, 0, 61, 68
1, 11998, Note_off_c, 0, 49, 72
1, 12002, Note_off_c, 0, 73, 71
1, 12002, Note_off_c, 0, 61, 70
1, 12008, Note_off_c, 0, 37, 65
1, 12074, Note_on_c, 0, 47, 70
1, 12074, Note_on_c, 0, 59, 76
1, 12076, Note_on_c, 0, 71, 74
1, 12084, Note_on_c, 0, 35, 60
1, 12098, Note_off_c, 0, 59, 67
1, 12098, Note_off_c, 0, 71, 72
1, 12100, Note_off_c, 0, 47, 68
1, 12111, Note_off_c, 0, 35, 59
1, 12153, Control_c, 0, 64, 91
1, 12162, Note_on_c, 0, 46, 81
1, 12168, Control_c, 0, 64, 64
1, 12171, Note_on_c, 0, 34, 75
1, 12175, Note_on_c, 0, 58, 74
1, 12176, Note_on_c, 0, 70, 84
1, 12183, Control_c, 0, 64, 55
1, 12192, Note_off_c, 0, 46, 69
1, 12198, Control_c, 0, 64, 57
1, 12201, Note_off_c, 0, 70, 62
1, 12202, Note_off_c, 0, 58, 68
1, 12207, Note_off_c, 0, 34, 67
1, 12213, Control_c, 0, 64, 66
1, 12228, Control_c, 0, 64, 114
1, 12243, Control_c, 0, 64, 127
1, 12268, Note_on_c, 0, 35, 72
1, 12268, Note_on_c, 0, 59, 76
1, 12270, Note_on_c, 0, 47, 81
1, 12270, Note_on_c, 0, 71, 73
1, 12292, Note_off_c, 0, 59, 68
1, 12292, Note_off_c, 0, 47, 71
1, 12292, Note_off_c, 0, 71, 71
1, 12293, Note_off_c, 0, 35, 67
1, 12371, Note_on_c, 0, 73, 81
1, 12374, Note_on_c, 0, 61, 69
1, 12380, Note_on_c, 0, 49, 80
1, 12383, Note_on_c, 0, 37, 68
1, 12395, Note_off_c, 0, 73, 65
1, 12401, Note_off_c, 0, 49, 73
1, 12402, Note_off_c, 0, 61, 68
1, 12407, Note_off_c, 0, 37, 66
1, 12472, Control_c, 0, 64, 87
1, 12487, Control_c, 0, 64, 58
1, 12496, Note_on_c, 0, 50, 74
1, 12502, Note_on_c, 0, 74, 82
1, 12502, Control_c, 0, 64, 0
1, 12502, Note_on_c, 0, 62, 82
1, 12503, Note_on_c, 0, 38, 66
1, 12511, Note_on_c, 0, 70, 70
1, 12523, Note_on_c, 0, 46, 68
1, 12547, Control_c, 0, 64, 12
1, 12549, Note_off_c, 0, 38, 62
1, 12561, Note_off_c, 0, 74, 64
1, 12562, Control_c, 0, 64, 41
1, 12563, Note_off_c, 0, 62, 63
1, 12567, Note_on_c, 0, 68, 20
1, 12569, Note_off_c, 0, 50, 61
1, 12577, Control_c, 0, 64, 64
1, 12591, Control_c, 0, 64, 127
1, 12611, Note_off_c, 0, 68, 40
1, 12646, Note_on_c, 0, 49, 82
1, 12647, Note_on_c, 0, 61, 82
1, 12651, Note_on_c, 0, 37, 70
1, 12653, Note_on_c, 0, 73, 80
1, 12663, Note_off_c, 0, 70, 52
1, 12675, Note_off_c, 0, 49, 66
1, 12675, Note_off_c, 0, 46, 65
1, 12681, Note_off_c, 0, 61, 63
1, 12682, Note_off_c, 0, 37, 64
1, 12693, Note_off_c, 0, 73, 60
1, 12730, Note_on_c, 0, 50, 77
1, 12736, Note_on_c, 0, 38, 74
1, 12741, Note_on_c, 0, 62, 93
1, 12746, Note_on_c, 0, 74, 86
1, 12758, Note_off_c, 0, 50, 68
1, 12762, Note_off_c, 0, 38, 67
1, 12764, Note_off_c, 0, 62, 68
1, 12768, Note_off_c, 0, 74, 65
1, 12821, Note_on_c, 0, 52, 100
1, 12831, Note_on_c, 0, 40, 80
1, 12832, Note_on_c, 0, 64, 101
1, 12834, Note_on_c, 0, 76, 100
1, 12849, Note_off_c, 0, 52, 67
1, 12859, Note_off_c, 0, 40, 67
1, 12860, Note_off_c, 0, 64, 62
1, 12863, Note_off_c, 0, 76, 66
1, 12918, Note_on_c, 0, 53, 90
1, 12922, Note_on_c, 0, 41, 82
1, 12926, Note_on_c, 0, 65, 98
1, 12927, Note_on_c, 0, 77, 98
1, 12942, Note_off_c, 0, 53, 70
1, 12949, Note_off_c, 0, 41, 71
1, 12949, Note_off_c, 0, 65, 68
1, 12953, Note_off_c, 0, 77, 62
1, 13018, Note_on_c, 0, 79, 98
1, 13021, Note_on_c, 0, 67, 91
1, 13036, Note_on_c, 0, 55, 71
1, 13038, Note_on_c, 0, 53, 75
1, 13040, Note_off_c, 0, 67, 73
1, 13045, Note_off_c, 0, 79, 57
1, 13051, Note_on_c, 0, 43, 50
1, 13058, Note_off_c, 0, 55, 68
1, 13063, Note_off_c, 0, 53, 70
1, 13080, Control_c, 0, 64, 70
1, 13082, Note_on_c, 0, 41, 7
1, 13084, Note_off_c, 0, 43, 53
1, 13095, Control_c, 0, 64, 48
1, 13110, Control_c, 0, 64, 0
1, 13115, Note_off_c, 0, 41, 0
1, 13126, Note_on_c, 0, 69, 94
1, 13128, Note_on_c, 0, 77, 92
1, 13132, Note_on_c, 0, 41, 63
1, 13133, Note_on_c, 0, 53, 92
1, 13134, Note_on_c, 0, 65, 85
1, 13137, Note_on_c, 0, 45, 74
1, 13152, Note_off_c, 0, 53, 71
1, 13155, Control_c, 0, 64, 33
1, 13157, Note_off_c, 0, 65, 69
1, 13163, Note_off_c, 0, 77, 56
1, 13167, Note_off_c, 0, 41, 64
1, 13169, Control_c, 0, 64, 56
1, 13170, Note_off_c, 0, 69, 65
1, 13172, Note_off_c, 0, 45, 65
1, 13184, Control_c, 0, 64, 103
1, 13206, Control_c, 0, 64, 127
1, 13246, Note_on_c, 0, 52, 84
1, 13246, Note_on_c, 0, 64, 91
1, 13249, Note_on_c, 0, 76, 90
1, 13253, Note_on_c, 0, 40, 77
1, 13271, Note_off_c, 0, 52, 69
1, 13271, Note_off_c, 0, 64, 66
1, 13271, Note_off_c, 0, 76, 67
1, 13283, Note_off_c, 0, 40, 67
1, 13339, Note_on_c, 0, 50, 81
1, 13343, Note_on_c, 0, 62, 93
1, 13343, Note_on_c, 0, 38, 76
1, 13343, Note_on_c, 0, 74, 86
1, 13363, Note_off_c, 0, 50, 68
1, 13363, Note_off_c, 0, 62, 71
1, 13363, Note_off_c, 0, 74, 68
1, 13377, Note_off_c, 0, 38, 64
1, 13429, Control_c, 0, 64, 93
1, 13434, Note_on_c, 0, 49, 89
1, 13436, Note_on_c, 0, 61, 91
1, 13437, Note_on_c, 0, 73, 95
1, 13438, Note_on_c, 0, 37, 82
1, 13444, Control_c, 0, 64, 64
1, 13459, Control_c, 0, 64, 60
1, 13463, Note_off_c, 0, 49, 66
1, 13470, Note_off_c, 0, 37, 65
1, 13474, Note_off_c, 0, 61, 64
1, 13474, Control_c, 0, 64, 64
1, 13478, Note_off_c, 0, 73, 64
1, 13489, Control_c, 0, 64, 79
1, 13504, Control_c, 0, 64, 127
1, 13532, Note_on_c, 0, 62, 93
1, 13533, Note_on_c, 0, 50, 78
1, 13533, Note_on_c, 0, 74, 86
1, 13535, Note_on_c, 0, 38, 71
1, 13553, Note_off_c, 0, 50, 72
1, 13554, Note_off_c, 0, 62, 68
1, 13569, Note_off_c, 0, 74, 63
1, 13569, Note_off_c, 0, 38, 63
1, 13635, Note_on_c, 0, 52, 85
1, 13637, Note_on_c, 0, 64, 81
1, 13637, Note_on_c, 0, 76, 87
1, 13641, Note_on_c, 0, 40, 75
1, 13654, Note_off_c, 0, 76, 74
1, 13656, Note_off_c, 0, 52, 72
1, 13658, Note_off_c, 0, 64, 68
1, 13671, Note_off_c, 0, 40, 66
1, 13696, Control_c, 0, 64, 115
1, 13711, Control_c, 0, 64, 64
1, 13725, Control_c, 0, 64, 40
1, 13741, Control_c, 0, 64, 0
1, 13750, Note_on_c, 0, 50, 75
1, 13751, Note_on_c, 0, 74, 83
1, 13752, Note_on_c, 0, 62, 88
1, 13757, Note_on_c, 0, 70, 77
1, 13766, Note_on_c, 0, 38, 59
1, 13767, Note_on_c, 0, 46, 74
1, 13786, Note_off_c, 0, 74, 51
1, 13786, Control_c, 0, 64, 30
1, 13793, Note_off_c, 0, 50, 62
1, 13796, Note_off_c, 0, 62, 62
1, 13799, Note_off_c, 0, 38, 64
1, 13800, Control_c, 0, 64, 53
1, 13815, Control_c, 0, 64, 92
1, 13830, Control_c, 0, 64, 127
1, 13852, Note_off_c, 0, 46, 64
1, 13870, Note_off_c, 0, 70, 57
1, 13877, Note_on_c, 0, 49, 85
1, 13880, Note_on_c, 0, 37, 76
1, 13880, Note_on_c, 0, 61, 86
1, 13882, Note_on_c, 0, 73, 87
1, 13903, Poly_aftertouch_c, 0, 68, 0
1, 13906, Note_off_c, 0, 49, 68
1, 13915, Note_off_c, 0, 37, 64
1, 13925, Note_off_c, 0, 61, 63
1, 13925, Note_off_c, 0, 73, 64
1, 13976, Note_on_c, 0, 50, 86
1, 13980, Note_on_c, 0, 38, 82
1, 13984, Note_on_c, 0, 62, 94
1, 13987, Note_on_c, 0, 74, 89
1, 13999, Note_off_c, 0, 50, 68
1, 14007, Note_off_c, 0, 38, 66
1, 14009, Note_off_c, 0, 62, 65
1, 14016, Note_off_c, 0, 74, 61
1, 14072, Note_on_c, 0, 52, 88
1, 14073, Note_on_c, 0, 40, 78
1, 14076, Note_on_c, 0, 64, 99
1, 14079, Note_on_c, 0, 76, 97
1, 14091, Note_off_c, 0, 52, 75
1, 14103, Note_off_c, 0, 64, 63
1, 14105, Note_off_c, 0, 40, 65
1, 14109, Note_off_c, 0, 76, 65
1, 14170, Note_on_c, 0, 53, 88
1, 14171, Note_on_c, 0, 65, 95
1, 14174, Note_on_c, 0, 77, 103
1, 14177, Note_on_c, 0, 41, 63
1, 14192, Note_off_c, 0, 53, 72
1, 14201, Note_off_c, 0, 65, 63
1, 14203, Note_off_c, 0, 41, 60
1, 14203, Note_off_c, 0, 77, 68
1, 14267, Poly_aftertouch_c, 0, 43, 0
1, 14270, Note_on_c, 0, 79, 94
1, 14270, Note_on_c, 0, 67, 88
1, 14279, Note_on_c, 0, 43, 54
1, 14282, Note_on_c, 0, 55, 86
1, 14291, Note_off_c, 0, 67, 69
1, 14297, Control_c, 0, 64, 80
1, 14300, Note_off_c, 0, 79, 60
1, 14309, Note_off_c, 0, 55, 66
1, 14312, Control_c, 0, 64, 54
1, 14317, Note_on_c, 0, 53, 37
1, 14322, Note_off_c, 0, 43, 63
1, 14327, Control_c, 0, 64, 20
1, 14342, Control_c, 0, 64, 0
1, 14356, Control_c, 0, 64, 27
1, 14359, Note_off_c, 0, 53, 33
1, 14371, Control_c, 0, 64, 47
1, 14375, Note_on_c, 0, 77, 96
1, 14377, Note_on_c, 0, 69, 82
1, 14381, Note_on_c, 0, 65, 85
1, 14382, Note_on_c, 0, 53, 81
1, 14386, Control_c, 0, 64, 67
1, 14392, Note_on_c, 0, 45, 65
1, 14398, Note_off_c, 0, 77, 59
1, 14401, Control_c, 0, 64, 127
1, 14402, Note_off_c, 0, 65, 73
1, 14407, Note_off_c, 0, 53, 70
1, 14414, Note_off_c, 0, 69, 63
1, 14417, Note_off_c, 0, 45, 64
1, 14425, Note_on_c, 0, 41, 15
1, 14429, Note_on_c, 0, 67, 10
1, 14455, Poly_aftertouch_c, 0, 71, 127
1, 14463, Poly_aftertouch_c, 0, 43, 127
1, 14467, Note_off_c, 0, 41, 54
1, 14483, Note_on_c, 0, 52, 86
1, 14484, Poly_aftertouch_c, 0, 71, 0
1, 14486, Note_on_c, 0, 64, 92
1, 14486, Note_off_c, 0, 67, 51
1, 14488, Note_on_c, 0, 76, 87
1, 14491, Note_on_c, 0, 40, 84
1, 14508, Note_off_c, 0, 52, 69
1, 14508, Note_off_c, 0, 76, 65
1, 14509, Note_off_c, 0, 64, 66
1, 14515, Note_off_c, 0, 40, 68
1, 14518, Poly_aftertouch_c, 0, 43, 0
1, 14535, Note_on_c, 0, 74, 23
1, 14536, Note_off_c, 0, 74, 127
1, 14570, Poly_aftertouch_c, 0, 74, 0
1, 14581, Note_on_c, 0, 50, 79
1, 14581, Note_on_c, 0, 74, 73
1, 14583, Note_on_c, 0, 62, 97
1, 14589, Note_on_c, 0, 38, 82
1, 14606, Note_off_c, 0, 50, 68
1, 14610, Note_off_c, 0, 62, 65
1, 14618, Note_off_c, 0, 38, 66
1, 14621, Note_off_c, 0, 74, 67
1, 14653, Control_c, 0, 64, 70
1, 14667, Control_c, 0, 64, 56
1, 14680, Note_on_c, 0, 49, 85
1, 14682, Control_c, 0, 64, 52
1, 14683, Note_on_c, 0, 61, 93
1, 14685, Note_on_c, 0, 73, 90
1, 14687, Note_on_c, 0, 37, 81
1, 14705, Control_c, 0, 64, 61
1, 14720, Control_c, 0, 64, 85
1, 14722, Note_off_c, 0, 49, 65
1, 14725, Note_off_c, 0, 37, 65
1, 14735, Note_off_c, 0, 61, 65
1, 14735, Control_c, 0, 64, 127
1, 14736, Note_off_c, 0, 73, 64
1, 14796, Note_on_c, 0, 50, 76
1, 14798, Note_on_c, 0, 62, 92
1, 14803, Note_on_c, 0, 74, 76
1, 14809, Note_on_c, 0, 38, 49
1, 14818, Note_off_c, 0, 50, 71
1, 14819, Note_off_c, 0, 62, 68
1, 14824, Note_off_c, 0, 74, 70
1, 14833, Note_on_c, 0, 72, 42
1, 14849, Note_off_c, 0, 38, 47
1, 14862, Note_off_c, 0, 72, 57
1, 14896, Note_on_c, 0, 53, 83
1, 14901, Note_on_c, 0, 62, 88
1, 14903, Note_on_c, 0, 74, 86
1, 14911, Note_on_c, 0, 41, 51
1, 14920, Note_off_c, 0, 53, 69
1, 14922, Note_off_c, 0, 62, 69
1, 14927, Note_off_c, 0, 74, 64
1, 14937, Note_off_c, 0, 41, 60
1, 14987, Control_c, 0, 64, 101
1, 15002, Control_c, 0, 64, 61
1, 15016, Control_c, 0, 64, 25
1, 15030, Note_on_c, 0, 76, 81
1, 15031, Control_c, 0, 64, 0
1, 15033, Note_on_c, 0, 64, 78
1, 15033, Note_on_c, 0, 55, 68
1, 15039, Note_on_c, 0, 43, 61
1, 15047, Note_on_c, 0, 70, 69
1, 15057, Note_on_c, 0, 73, 62
1, 15076, Control_c, 0, 64, 26
1, 15078, Note_off_c, 0, 43, 64
1, 15082, Note_off_c, 0, 55, 64
1, 15088, Note_off_c, 0, 76, 64
1, 15091, Control_c, 0, 64, 51
1, 15101, Note_off_c, 0, 64, 61
1, 15105, Control_c, 0, 64, 83
1, 15120, Control_c, 0, 64, 127
1, 15140, Note_off_c, 0, 70, 62
1, 15170, Note_off_c, 0, 73, 61
1, 15187, Note_on_c, 0, 54, 66
1, 15197, Note_on_c, 0, 42, 59
1, 15200, Note_on_c, 0, 63, 70
1, 15202, Note_on_c, 0, 75, 71
1, 15217, Note_off_c, 0, 54, 66
1, 15227, Note_off_c, 0, 63, 69
1, 15229, Note_off_c, 0, 75, 62
1, 15230, Note_off_c, 0, 42, 61
1, 15281, Note_on_c, 0, 55, 68
1, 15284, Note_on_c, 0, 43, 63
1, 15290, Note_on_c, 0, 64, 72
1, 15295, Note_on_c, 0, 76, 71
1, 15304, Note_off_c, 0, 55, 71
1, 15310, Note_off_c, 0, 43, 59
1, 15311, Note_off_c, 0, 64, 64
1, 15311, Note_off_c, 0, 76, 71
1, 15375, Note_on_c, 0, 56, 78
1, 15379, Note_on_c, 0, 77, 84
1, 15381, Note_on_c, 0, 65, 79
1, 15382, Note_on_c, 0, 44, 69
1, 15399, Note_off_c, 0, 56, 70
1, 15400, Note_off_c, 0, 77, 68
1, 15402, Note_off_c, 0, 65, 73
1, 15414, Note_off_c, 0, 44, 65
1, 15477, Note_on_c, 0, 78, 91
1, 15477, Note_on_c, 0, 66, 78
1, 15480, Note_on_c, 0, 57, 70
1, 15489, Note_on_c, 0, 45, 55
1, 15495, Note_off_c, 0, 78, 72
1, 15497, Note_off_c, 0, 66, 70
1, 15505, Note_off_c, 0, 57, 65
1, 15512, Note_off_c, 0, 45, 60
1, 15565, Note_on_c, 0, 58, 78
1, 15566, Note_on_c, 0, 46, 79
1, 15571, Note_on_c, 0, 67, 81
1, 15578, Note_on_c, 0, 79, 68
1, 15587, Note_off_c, 0, 58, 68
1, 15591, Note_off_c, 0, 67, 71
1, 15593, Note_off_c, 0, 46, 68
1, 15596, Note_off_c, 0, 79, 66
1, 15645, Control_c, 0, 64, 62
1, 15652, Poly_aftertouch_c, 0, 73, 127
1, 15660, Control_c, 0, 64, 37
1, 15669, Note_on_c, 0, 66, 79
1, 15669, Note_on_c, 0, 72, 75
1, 15670, Note_on_c, 0, 57, 85
1, 15670, Note_on_c, 0, 78, 65
1, 15672, Note_on_c, 0, 45, 66
1, 15673, Note_on_c, 0, 75, 67
1, 15675, Poly_aftertouch_c, 0, 73, 0
1, 15675, Control_c, 0, 64, 0
1, 15689, Control_c, 0, 64, 32
1, 15692, Note_off_c, 0, 57, 67
1, 15704, Note_off_c, 0, 45, 63
1, 15704, Control_c, 0, 64, 51
1, 15708, Note_off_c, 0, 72, 53
1, 15714, Note_off_c, 0, 66, 62
1, 15720, Control_c, 0, 64, 73
1, 15721, Note_off_c, 0, 78, 67
1, 15735, Control_c, 0, 64, 127
1, 15776, Note_on_c, 0, 56, 85
1, 15777, Note_on_c, 0, 77, 91
1, 15778, Note_on_c, 0, 65, 90
1, 15786, Note_on_c, 0, 44, 73
1, 15800, Note_off_c, 0, 56, 70
1, 15805, Note_off_c, 0, 65, 66
1, 15815, Note_off_c, 0, 44, 66
1, 15815, Note_off_c, 0, 77, 65
1, 15845, Note_off_c, 0, 75, 32
1, 15866, Note_on_c, 0, 57, 92
1, 15871, Note_on_c, 0, 66, 82
1, 15873, Note_on_c, 0, 45, 73
1, 15873, Note_on_c, 0, 78, 97
1, 15888, Note_off_c, 0, 57, 66
1, 15892, Note_on_c, 0, 68, 56
1, 15892, Note_off_c, 0, 45, 67
1, 15902, Note_off_c, 0, 66, 59
1, 15909, Note_off_c, 0, 78, 58
1, 15913, Note_off_c, 0, 68, 60
1, 15962, Note_on_c, 0, 58, 84
1, 15966, Note_on_c, 0, 46, 86
1, 15968, Note_on_c, 0, 79, 70
1, 15969, Note_on_c, 0, 67, 98
1, 15986, Note_off_c, 0, 58, 68
1, 15992, Note_off_c, 0, 67, 66
1, 15993, Note_off_c, 0, 46, 67
1, 15996, Note_off_c, 0, 79, 66
1, 16058, Note_on_c, 0, 59, 84
1, 16060, Note_on_c, 0, 80, 101
1, 16061, Note_on_c, 0, 47, 77
1, 16061, Note_on_c, 0, 68, 88
1, 16079, Note_off_c, 0, 59, 70
1, 16088, Note_off_c, 0, 47, 67
1, 16099, Note_off_c, 0, 68, 59
1, 16099, Note_off_c, 0, 80, 62
1, 16157, Note_on_c, 0, 81, 93
1, 16158, Note_on_c, 0, 60, 75
1, 16160, Note_on_c, 0, 69, 81
1, 16166, Note_on_c, 0, 48, 62
1, 16174, Note_off_c, 0, 60, 70
1, 16177, Note_on_c, 0, 59, 37
1, 16189, Note_off_c, 0, 81, 61
1, 16192, Note_off_c, 0, 69, 65
1, 16195, Note_off_c, 0, 48, 62
1, 16204, Note_off_c, 0, 59, 62
1, 16216, Control_c, 0, 64, 99
1, 16230, Poly_aftertouch_c, 0, 47, 127
1, 16231, Control_c, 0, 64, 61
1, 16246, Control_c, 0, 64, 38
1, 16252, Poly_aftertouch_c, 0, 47, 0
1, 16261, Control_c, 0, 64, 30
1, 16263, Note_on_c, 0, 61, 96
1, 16267, Note_on_c, 0, 70, 93
1, 16270, Note_on_c, 0, 49, 83
1, 16272, Note_on_c, 0, 79, 62
1, 16273, Note_on_c, 0, 76, 78
1, 16273, Note_on_c, 0, 82, 84
1, 16276, Control_c, 0, 64, 49
1, 16291, Control_c, 0, 64, 69
1, 16298, Note_on_c, 0, 51, 47
1, 16300, Note_off_c, 0, 61, 61
1, 16305, Note_off_c, 0, 76, 57
1, 16306, Note_off_c, 0, 49, 63
1, 16306, Control_c, 0, 64, 127
1, 16314, Note_off_c, 0, 70, 57
1, 16318, Note_off_c, 0, 82, 64
1, 16324, Note_off_c, 0, 79, 62
1, 16329, Note_off_c, 0, 51, 55
1, 16371, Note_on_c, 0, 62, 88
1, 16374, Note_on_c, 0, 50, 77
1, 16381, Note_on_c, 0, 71, 77
1, 16383, Note_on_c, 0, 72, 72
1, 16385, Note_on_c, 0, 83, 72
1, 16388, Note_on_c, 0, 84, 71
1, 16392, Note_off_c, 0, 62, 70
1, 16399, Note_off_c, 0, 50, 66
1, 16400, Note_off_c, 0, 71, 73
1, 16404, Note_off_c, 0, 72, 69
1, 16404, Note_off_c, 0, 84, 67
1, 16407, Note_off_c, 0, 83, 72
1, 16473, Note_on_c, 0, 72, 87
1, 16473, Note_on_c, 0, 84, 86
1, 16485, Note_on_c, 0, 63, 62
1, 16487, Note_on_c, 0, 51, 54
1, 16488, Note_on_c, 0, 82, 66
1, 16491, Note_off_c, 0, 72, 73
1, 16491, Note_off_c, 0, 84, 71
1, 16496, Note_on_c, 0, 79, 55
1, 16497, Note_on_c, 0, 74, 54
1, 16507, Note_off_c, 0, 63, 64
1, 16511, Note_off_c, 0, 51, 62
1, 16511, Note_off_c, 0, 82, 68
1, 16518, Note_off_c, 0, 79, 62
1, 16521, Note_off_c, 0, 74, 65
1, 16529, Control_c, 0, 64, 76
1, 16543, Control_c, 0, 64, 71
1, 16547, Note_on_c, 0, 63, 100
1, 16558, Control_c, 0, 64, 89
1, 16559, Note_on_c, 0, 52, 84
1, 16562, Note_on_c, 0, 73, 93
1, 16568, Note_on_c, 0, 54, 60
1, 16568, Note_on_c, 0, 82, 88
1, 16570, Note_on_c, 0, 85, 89
1, 16573, Note_on_c, 0, 79, 86
1, 16573, Control_c, 0, 64, 127
1, 16584, Note_off_c, 0, 52, 70
1, 16584, Note_off_c, 0, 63, 67
1, 16589, Note_off_c, 0, 54, 64
1, 16598, Note_off_c, 0, 79, 60
1, 16604, Note_off_c, 0, 73, 65
1, 16607, Note_off_c, 0, 85, 65
1, 16643, Note_off_c, 0, 82, 58
1, 16656, Note_on_c, 0, 65, 78
1, 16663, Note_on_c, 0, 64, 72
1, 16665, Note_on_c, 0, 53, 66
1, 16667, Note_on_c, 0, 74, 93
1, 16667, Note_on_c, 0, 86, 94
1, 16675, Note_on_c, 0, 52, 48
1, 16678, Note_off_c, 0, 65, 71
1, 16680, Note_off_c, 0, 64, 67
1, 16687, Note_off_c, 0, 53, 65
1, 16695, Note_off_c, 0, 52, 63
1, 16698, Note_off_c, 0, 74, 68
1, 16702, Note_off_c, 0, 86, 64
1, 16747, Note_on_c, 0, 66, 92
1, 16759, Note_on_c, 0, 75, 98
1, 16761, Note_on_c, 0, 54, 57
1, 16764, Note_on_c, 0, 87, 99
1, 16772, Note_off_c, 0, 66, 64
1, 16775, Poly_aftertouch_c, 0, 85, 0
1, 16784, Note_off_c, 0, 54, 60
1, 16800, Note_off_c, 0, 75, 64
1, 16809, Note_off_c, 0, 87, 64
1, 16812, Poly_aftertouch_c, 0, 85, 127
1, 16848, Note_on_c, 0, 66, 104
1, 16851, Note_on_c, 0, 54, 90
1, 16854, Poly_aftertouch_c, 0, 85, 0
1, 16854, Control_c, 0, 64, 84
1, 16866, Note_on_c, 0, 82, 97
1, 16866, Note_on_c, 0, 85, 67
1, 16869, Note_on_c, 0, 76, 106
1, 16869, Control_c, 0, 64, 72
1, 16872, Note_on_c, 0, 88, 92
1, 16879, Note_off_c, 0, 54, 66
1, 16880, Note_on_c, 0, 56, 38
1, 16884, Control_c, 0, 64, 83
1, 16898, Note_off_c, 0, 66, 62
1, 16899, Control_c, 0, 64, 127
1, 16899, Note_off_c, 0, 76, 69
1, 16905, Note_off_c, 0, 56, 57
1, 16915, Note_off_c, 0, 82, 61
1, 16917, Note_off_c, 0, 88, 64
1, 16939, Note_off_c, 0, 85, 64
1, 16960, Note_on_c, 0, 67, 71
1, 16976, Note_on_c, 0, 55, 66
1, 16976, Note_on_c, 0, 77, 101
1, 16979, Note_on_c, 0, 89, 91
1, 16982, Note_on_c, 0, 88, 91
1, 16994, Note_off_c, 0, 55, 66
1, 16994, Note_on_c, 0, 87, 73
1, 17002, Note_off_c, 0, 67, 63
1, 17009, Note_off_c, 0, 77, 67
1, 17009, Note_off_c, 0, 88, 61
1, 17010, Note_off_c, 0, 89, 67
1, 17018, Note_off_c, 0, 87, 68
1, 17049, Poly_aftertouch_c, 0, 57, 127
1, 17052, Poly_aftertouch_c, 0, 56, 0
1, 17075, Note_on_c, 0, 78, 98
1, 17078, Note_on_c, 0, 68, 82
1, 17079, Note_on_c, 0, 90, 99
1, 17083, Note_on_c, 0, 57, 39
1, 17083, Note_on_c, 0, 58, 71
1, 17087, Note_on_c, 0, 70, 73
1, 17087, Poly_aftertouch_c, 0, 56, 0
1, 17102, Note_off_c, 0, 70, 68
1, 17102, Note_off_c, 0, 58, 62
1, 17104, Note_off_c, 0, 68, 58
1, 17112, Note_off_c, 0, 57, 58
1, 17116, Note_off_c, 0, 78, 68
1, 17125, Note_off_c, 0, 90, 67
1, 17173, Control_c, 0, 64, 60
1, 17187, Control_c, 0, 64, 33
1, 17191, Note_on_c, 0, 71, 95
1, 17194, Note_on_c, 0, 59, 87
1, 17196, Note_on_c, 0, 79, 106
1, 17197, Note_on_c, 0, 91, 96
1, 17198, Note_on_c, 0, 85, 94
1, 17198, Note_on_c, 0, 88, 90
1, 17202, Control_c, 0, 64, 0
1, 17217, Control_c, 0, 64, 31
1, 17224, Note_on_c, 0, 90, 55
1, 17232, Control_c, 0, 64, 56
1, 17233, Note_off_c, 0, 71, 67
1, 17237, Note_off_c, 0, 59, 59
1, 17247, Control_c, 0, 64, 127
1, 17249, Note_off_c, 0, 90, 62
1, 17254, Note_off_c, 0, 79, 58
1, 17261, Note_off_c, 0, 91, 60
1, 17266, Note_off_c, 0, 85, 62
1, 17276, Note_off_c, 0, 88, 65
1, 17279, Poly_aftertouch_c, 0, 61, 127
1, 17299, Poly_aftertouch_c, 0, 61, 0
1, 17325, Note_on_c, 0, 91, 99
1, 17326, Note_on_c, 0, 79, 102
1, 17331, Note_on_c, 0, 88, 82
1, 17334, Note_on_c, 0, 60, 81
1, 17334, Note_on_c, 0, 72, 83
1, 17340, Note_on_c, 0, 71, 76
1, 17343, Note_on_c, 0, 90, 60
1, 17349, Note_on_c, 0, 81, 60
1, 17350, Note_off_c, 0, 81, 127
1, 17351, Note_on_c, 0, 86, 74
1, 17355, Note_on_c, 0, 85, 38
1, 17355, Note_off_c, 0, 60, 71
1, 17362, Note_off_c, 0, 72, 65
1, 17364, Note_on_c, 0, 89, 23
1, 17365, Note_off_c, 0, 89, 127
1, 17365, Note_off_c, 0, 71, 69
1, 17375, Note_off_c, 0, 91, 59
1, 17379, Note_off_c, 0, 79, 63
1, 17390, Note_off_c, 0, 85, 52
1, 17395, Note_off_c, 0, 90, 65
1, 17396, Note_off_c, 0, 86, 63
1, 17413, Note_off_c, 0, 88, 66
1, 17444, Poly_aftertouch_c, 0, 66, 0
1, 17464, Note_on_c, 0, 78, 105
1, 17468, Note_on_c, 0, 90, 106
1, 17471, Note_on_c, 0, 73, 99
1, 17477, Note_on_c, 0, 61, 83
1, 17483, Note_on_c, 0, 87, 68
1, 17484, Note_off_c, 0, 87, 127
1, 17490, Note_on_c, 0, 85, 45
1, 17491, Note_off_c, 0, 85, 127
1, 17499, Note_off_c, 0, 78, 69
1, 17501, Note_off_c, 0, 61, 69
1, 17516, Note_off_c, 0, 73, 59
1, 17522, Note_off_c, 0, 90, 65
1, 17663, Control_c, 0, 64, 70
1, 17678, Control_c, 0, 64, 43
1, 17680, Note_on_c, 0, 86, 101
1, 17680, Note_on_c, 0, 95, 106
1, 17684, Note_on_c, 0, 83, 97
1, 17686, Note_on_c, 0, 71, 103
1, 17694, Note_on_c, 0, 59, 90
1, 17700, Control_c, 0, 64, 0
1, 17701, Note_on_c, 0, 62, 86
1, 17760, Control_c, 0, 64, 33
1, 17774, Control_c, 0, 64, 58
1, 17789, Control_c, 0, 64, 127
1, 17796, Note_off_c, 0, 95, 61
1, 17805, Note_off_c, 0, 83, 63
1, 17808, Note_off_c, 0, 59, 59
1, 17814, Note_off_c, 0, 71, 56
1, 17911, Note_on_c, 0, 94, 96
1, 17912, Note_on_c, 0, 82, 91
1, 17915, Note_on_c, 0, 58, 72
1, 17918, Note_on_c, 0, 70, 72
1, 17940, Note_off_c, 0, 82, 64
1, 17941, Note_off_c, 0, 70, 68
1, 17952, Poly_aftertouch_c, 0, 64, 127
1, 17954, Note_off_c, 0, 58, 64
1, 17954, Note_off_c, 0, 86, 52
1, 17962, Note_off_c, 0, 94, 65
1, 17988, Poly_aftertouch_c, 0, 64, 0
1, 18019, Note_on_c, 0, 71, 78
1, 18023, Note_on_c, 0, 59, 68
1, 18025, Note_on_c, 0, 86, 71
1, 18026, Note_on_c, 0, 95, 78
1, 18029, Note_off_c, 0, 62, 0
1, 18029, Note_on_c, 0, 62, 37
1, 18031, Note_on_c, 0, 83, 74
1, 18046, Note_off_c, 0, 59, 68
1, 18052, Note_off_c, 0, 95, 62
1, 18052, Note_off_c, 0, 71, 67
1, 18058, Note_off_c, 0, 83, 69
1, 18060, Note_on_c, 0, 92, 41
1, 18093, Note_off_c, 0, 92, 47
1, 18110, Note_off_c, 0, 86, 0
1, 18120, Note_off_c, 0, 62, 0
1, 18125, Note_on_c, 0, 82, 82
1, 18127, Note_on_c, 0, 70, 74
1, 18127, Note_on_c, 0, 86, 48
1, 18131, Poly_aftertouch_c, 0, 64, 0
1, 18133, Note_on_c, 0, 94, 74
1, 18142, Note_off_c, 0, 70, 68
1, 18144, Note_on_c, 0, 62, 24
1, 18145, Note_off_c, 0, 82, 73
1, 18148, Note_on_c, 0, 58, 36
1, 18158, Note_off_c, 0, 86, 62
1, 18159, Note_off_c, 0, 94, 67
1, 18176, Note_off_c, 0, 58, 55
1, 18208, Note_on_c, 0, 57, 64
1, 18210, Note_off_c, 0, 62, 0
1, 18213, Note_on_c, 0, 69, 86
1, 18219, Note_on_c, 0, 93, 82
1, 18222, Note_on_c, 0, 81, 87
1, 18225, Note_on_c, 0, 62, 46
1, 18228, Note_on_c, 0, 86, 80
1, 18232, Poly_aftertouch_c, 0, 64, 0
1, 18252, Note_off_c, 0, 57, 61
1, 18252, Note_off_c, 0, 69, 64
1, 18255, Note_off_c, 0, 81, 61
1, 18256, Note_on_c, 0, 64, 10
1, 18261, Note_off_c, 0, 93, 58
1, 18271, Note_off_c, 0, 62, 63
1, 18274, Note_off_c, 0, 86, 47
1, 18300, Note_on_c, 0, 68, 90
1, 18310, Note_on_c, 0, 92, 61
1, 18314, Note_on_c, 0, 80, 87
1, 18315, Note_on_c, 0, 86, 60
1, 18331, Note_on_c, 0, 62, 46
1, 18342, Note_off_c, 0, 80, 58
1, 18343, Note_off_c, 0, 68, 58
1, 18351, Note_off_c, 0, 86, 63
1, 18359, Note_off_c, 0, 62, 59
1, 18363, Note_off_c, 0, 92, 66
1, 18367, Poly_aftertouch_c, 0, 57, 127
1, 18370, Note_off_c, 0, 64, 43
1, 18382, Control_c, 0, 64, 63
1, 18392, Note_on_c, 0, 57, 36
1, 18397, Control_c, 0, 64, 38
1, 18404, Note_on_c, 0, 69, 101
1, 18407, Note_on_c, 0, 93, 103
1, 18409, Note_on_c, 0, 81, 104
1, 18409, Note_on_c, 0, 86, 96
1, 18410, Note_on_c, 0, 62, 74
1, 18412, Control_c, 0, 64, 0
1, 18427, Control_c, 0, 64, 24
1, 18431, Note_on_c, 0, 92, 53
1, 18449, Control_c, 0, 64, 50
1, 18460, Note_off_c, 0, 69, 66
1, 18461, Note_off_c, 0, 81, 65
1, 18463, Note_off_c, 0, 92, 61
1, 18464, Note_off_c, 0, 57, 61
1, 18464, Control_c, 0, 64, 80
1, 18467, Note_off_c, 0, 93, 62
1, 18479, Control_c, 0, 64, 127
1, 18497, Note_off_c, 0, 86, 57
1, 18521, Poly_aftertouch_c, 0, 90, 0
1, 18531, Note_on_c, 0, 68, 85
1, 18532, Note_off_c, 0, 62, 0
1, 18535, Note_on_c, 0, 56, 73
1, 18538, Note_on_c, 0, 92, 83
1, 18543, Note_on_c, 0, 86, 55
1, 18544, Note_on_c, 0, 80, 75
1, 18549, Note_off_c, 0, 68, 70
1, 18551, Note_on_c, 0, 62, 41
1, 18565, Note_off_c, 0, 56, 69
1, 18565, Note_off_c, 0, 80, 70
1, 18575, Note_off_c, 0, 86, 61
1, 18578, Note_off_c, 0, 62, 59
1, 18579, Note_off_c, 0, 92, 67
1, 18617, Note_on_c, 0, 69, 64
1, 18621, Note_on_c, 0, 57, 44
1, 18629, Note_on_c, 0, 93, 81
1, 18631, Note_on_c, 0, 81, 83
1, 18651, Note_off_c, 0, 81, 70
1, 18651, Note_off_c, 0, 93, 68
1, 18653, Note_off_c, 0, 69, 67
1, 18656, Note_off_c, 0, 57, 64
1, 18661, Note_on_c, 0, 86, 33
1, 18696, Note_off_c, 0, 86, 51
1, 18732, Note_on_c, 0, 80, 83
1, 18732, Note_on_c, 0, 68, 73
1, 18741, Note_on_c, 0, 92, 69
1, 18743, Note_on_c, 0, 56, 54
1, 18750, Note_off_c, 0, 80, 70
1, 18756, Note_off_c, 0, 68, 65
1, 18758, Note_off_c, 0, 92, 67
1, 18764, Note_off_c, 0, 56, 64
1, 18821, Note_on_c, 0, 67, 87
1, 18822, Note_on_c, 0, 55, 71
1, 18822, Note_on_c, 0, 91, 88
1, 18825, Note_on_c, 0, 79, 84
1, 18844, Note_off_c, 0, 79, 69
1, 18845, Note_on_c, 0, 85, 46
1, 18846, Note_off_c, 0, 67, 63
1, 18854, Note_off_c, 0, 55, 68
1, 18859, Note_off_c, 0, 91, 55
1, 18869, Note_off_c, 0, 85, 57
1, 18913, Note_on_c, 0, 66, 87
1, 18917, Note_on_c, 0, 78, 89
1, 18926, Note_on_c, 0, 54, 68
1, 18931, Note_on_c, 0, 90, 67
1, 18943, Note_off_c, 0, 66, 56
1, 18950, Note_off_c, 0, 78, 55
1, 18955, Note_off_c, 0, 90, 58
1, 18960, Note_off_c, 0, 54, 65
1, 19012, Control_c, 0, 64, 67
1, 19025, Note_on_c, 0, 91, 87
1, 19027, Note_on_c, 0, 55, 78
1, 19027, Control_c, 0, 64, 49
1, 19030, Note_on_c, 0, 67, 91
1, 19032, Note_on_c, 0, 79, 85
1, 19042, Control_c, 0, 64, 28
1, 19044, Note_on_c, 0, 83, 60
1, 19046, Note_on_c, 0, 59, 63
1, 19057, Control_c, 0, 64, 34
1, 19061, Note_on_c, 0, 57, 43
1, 19065, Note_on_c, 0, 90, 26
1, 19070, Note_on_c, 0, 61, 23
1, 19072, Control_c, 0, 64, 49
1, 19073, Note_off_c, 0, 67, 64
1, 19074, Note_off_c, 0, 79, 63
1, 19075, Note_off_c, 0, 91, 58
1, 19078, Note_off_c, 0, 55, 65
1, 19087, Control_c, 0, 64, 73
1, 19089, Note_off_c, 0, 57, 54
1, 19102, Control_c, 0, 64, 127
1, 19105, Note_off_c, 0, 61, 47
1, 19109, Note_off_c, 0, 83, 61
1, 19114, Note_off_c, 0, 59, 59
1, 19116, Note_off_c, 0, 90, 42
1, 19150, Note_on_c, 0, 83, 50
1, 19152, Note_on_c, 0, 78, 79
1, 19157, Note_on_c, 0, 66, 74
1, 19159, Note_on_c, 0, 54, 71
1, 19159, Note_on_c, 0, 90, 69
1, 19176, Note_on_c, 0, 59, 32
1, 19176, Note_off_c, 0, 78, 69
1, 19180, Note_off_c, 0, 66, 67
1, 19191, Note_off_c, 0, 83, 66
1, 19199, Note_off_c, 0, 54, 67
1, 19199, Note_off_c, 0, 90, 69
1, 19245, Note_off_c, 0, 59, 0
1, 19250, Note_on_c, 0, 67, 82
1, 19256, Note_on_c, 0, 55, 61
1, 19257, Control_c, 0, 64, 76
1, 19258, Note_on_c, 0, 79, 86
1, 19260, Note_on_c, 0, 59, 40
1, 19260, Note_on_c, 0, 91, 63
1, 19263, Note_on_c, 0, 83, 76
1, 19272, Control_c, 0, 64, 68
1, 19272, Note_on_c, 0, 89, 67
1, 19274, Note_off_c, 0, 67, 62
1, 19279, Note_off_c, 0, 55, 71
1, 19284, Note_off_c, 0, 79, 62
1, 19287, Control_c, 0, 64, 74
1, 19289, Note_off_c, 0, 89, 66
1, 19292, Note_off_c, 0, 91, 53
1, 19298, Note_off_c, 0, 83, 56
1, 19301, Control_c, 0, 64, 115
1, 19302, Note_off_c, 0, 59, 61
1, 19316, Control_c, 0, 64, 127
1, 19351, Note_on_c, 0, 65, 86
1, 19355, Note_on_c, 0, 89, 87
1, 19360, Note_on_c, 0, 53, 62
1, 19361, Note_on_c, 0, 83, 80
1, 19362, Note_on_c, 0, 59, 65
1, 19362, Note_on_c, 0, 77, 86
1, 19383, Note_off_c, 0, 77, 68
1, 19388, Note_off_c, 0, 53, 57
1, 19394, Note_off_c, 0, 65, 67
1, 19400, Poly_aftertouch_c, 0, 61, 127
1, 19412, Note_on_c, 0, 56, 4
1, 19421, Note_off_c, 0, 59, 60
1, 19424, Note_off_c, 0, 89, 0
1, 19444, Poly_aftertouch_c, 0, 55, 127
1, 19449, Poly_aftertouch_c, 0, 61, 0
1, 19461, Note_on_c, 0, 89, 8
1, 19462, Note_on_c, 0, 54, 91
1, 19467, Poly_aftertouch_c, 0, 55, 0
1, 19467, Poly_aftertouch_c, 0, 87, 127
1, 19468, Note_on_c, 0, 78, 68
1, 19470, Note_on_c, 0, 65, 64
1, 19472, Note_off_c, 0, 56, 55
1, 19478, Note_on_c, 0, 76, 59
1, 19481, Note_off_c, 0, 83, 0
1, 19481, Note_on_c, 0, 83, 15
1, 19484, Note_off_c, 0, 65, 73
1, 19495, Note_off_c, 0, 78, 60
1, 19500, Note_off_c, 0, 76, 65
1, 19504, Note_on_c, 0, 77, 23
1, 19504, Note_on_c, 0, 58, 16
1, 19507, Note_off_c, 0, 54, 58
1, 19512, Note_off_c, 0, 89, 41
1, 19513, Note_off_c, 0, 83, 54
1, 19523, Poly_aftertouch_c, 0, 87, 0
1, 19538, Note_off_c, 0, 77, 50
1, 19542, Note_off_c, 0, 58, 50
1, 19543, Poly_aftertouch_c, 0, 64, 127
1, 19551, Note_on_c, 0, 64, 18
1, 19563, Note_on_c, 0, 52, 86
1, 19564, Note_on_c, 0, 76, 99
1, 19564, Note_on_c, 0, 88, 88
1, 19591, Note_off_c, 0, 76, 69
1, 19594, Note_off_c, 0, 52, 62
1, 19595, Note_on_c, 0, 86, 49
1, 19596, Note_on_c, 0, 56, 28
1, 19596, Note_on_c, 0, 81, 44
1, 19601, Note_off_c, 0, 64, 63
1, 19614, Note_on_c, 0, 53, 8
1, 19620, Note_off_c, 0, 88, 62
1, 19622, Note_off_c, 0, 86, 59
1, 19625, Note_off_c, 0, 81, 57
1, 19634, Note_off_c, 0, 56, 52
1, 19659, Note_on_c, 0, 63, 93
1, 19666, Note_on_c, 0, 75, 93
1, 19670, Note_on_c, 0, 87, 85
1, 19671, Note_on_c, 0, 51, 79
1, 19673, Note_off_c, 0, 53, 52
1, 19674, Note_on_c, 0, 80, 77
1, 19677, Note_on_c, 0, 54, 77
1, 19694, Note_off_c, 0, 87, 66
1, 19695, Note_off_c, 0, 80, 69
1, 19696, Note_off_c, 0, 51, 71
1, 19701, Note_off_c, 0, 63, 69
1, 19710, Note_off_c, 0, 75, 62
1, 19713, Note_off_c, 0, 54, 57
1, 19769, Note_on_c, 0, 74, 89
1, 19772, Note_on_c, 0, 62, 92
1, 19777, Note_on_c, 0, 50, 69
1, 19778, Note_on_c, 0, 78, 71
1, 19782, Note_on_c, 0, 54, 61
1, 19786, Note_on_c, 0, 86, 51
1, 19793, Note_off_c, 0, 74, 67
1, 19796, Note_off_c, 0, 62, 68
1, 19796, Note_off_c, 0, 78, 71
1, 19799, Note_off_c, 0, 50, 64
1, 19805, Note_off_c, 0, 54, 61
1, 19808, Note_off_c, 0, 86, 58
1, 19851, Poly_aftertouch_c, 0, 84, 127
1, 19862, Note_on_c, 0, 73, 95
1, 19863, Note_on_c, 0, 61, 94
1, 19871, Note_on_c, 0, 49, 84
1, 19871, Note_on_c, 0, 85, 60
1, 19885, Poly_aftertouch_c, 0, 51, 0
1, 19887, Note_off_c, 0, 85, 65
1, 19889, Poly_aftertouch_c, 0, 84, 0
1, 19908, Note_off_c, 0, 73, 64
1, 19915, Note_off_c, 0, 61, 65
1, 19922, Poly_aftertouch_c, 0, 51, 127
1, 19927, Note_off_c, 0, 49, 63
1, 19966, Poly_aftertouch_c, 0, 51, 0
1, 19975, Control_c, 0, 64, 64
1, 19990, Control_c, 0, 64, 27
1, 20005, Note_on_c, 0, 83, 98
1, 20005, Control_c, 0, 64, 0
1, 20006, Note_on_c, 0, 71, 103
1, 20007, Note_on_c, 0, 59, 95
1, 20007, Note_on_c, 0, 78, 104
1, 20008, Note_on_c, 0, 47, 87
1, 20008, Note_on_c, 0, 54, 85
1, 20050, Control_c, 0, 64, 27
1, 20055, Note_on_c, 0, 48, 30
1, 20056, Note_off_c, 0, 48, 127
1, 20062, Note_off_c, 0, 71, 66
1, 20062, Note_off_c, 0, 83, 64
1, 20065, Control_c, 0, 64, 52
1, 20076, Note_off_c, 0, 47, 63
1, 20079, Control_c, 0, 64, 95
1, 20085, Note_off_c, 0, 59, 57
1, 20094, Control_c, 0, 64, 127
1, 20118, Note_off_c, 0, 78, 63
1, 20127, Note_off_c, 0, 54, 62
1, 20360, Control_c, 0, 64, 98
1, 20375, Control_c, 0, 64, 60
1, 20390, Control_c, 0, 64, 26
1, 20405, Control_c, 0, 64, 0
1, 20410, Note_on_c, 0, 83, 97
1, 20412, Note_on_c, 0, 59, 91
1, 20413, Note_on_c, 0, 71, 97
1, 20413, Note_on_c, 0, 79, 90
1, 20415, Note_on_c, 0, 47, 80
1, 20421, Note_on_c, 0, 55, 83
1, 20437, Note_on_c, 0, 82, 68
1, 20449, Control_c, 0, 64, 13
1, 20464, Control_c, 0, 64, 41
1, 20479, Note_off_c, 0, 47, 64
1, 20480, Control_c, 0, 64, 63
1, 20488, Note_off_c, 0, 59, 57
1, 20489, Note_off_c, 0, 83, 62
1, 20494, Control_c, 0, 64, 127
1, 20498, Note_off_c, 0, 71, 61
1, 20509, Note_off_c, 0, 82, 64
1, 20521, Poly_aftertouch_c, 0, 50, 127
1, 20523, Poly_aftertouch_c, 0, 52, 127
1, 20562, Poly_aftertouch_c, 0, 50, 0
1, 20585, Poly_aftertouch_c, 0, 52, 0
1, 20595, Note_on_c, 0, 46, 71
1, 20601, Poly_aftertouch_c, 0, 77, 0
1, 20604, Note_on_c, 0, 58, 64
1, 20609, Note_on_c, 0, 70, 70
1, 20612, Note_on_c, 0, 82, 73
1, 20625, Note_off_c, 0, 58, 65
1, 20631, Note_off_c, 0, 70, 66
1, 20636, Note_off_c, 0, 46, 64
1, 20642, Note_off_c, 0, 82, 66
1, 20646, Note_off_c, 0, 79, 56
1, 20672, Note_off_c, 0, 55, 0
1, 20699, Note_on_c, 0, 55, 32
1, 20702, Note_on_c, 0, 59, 71
1, 20711, Note_on_c, 0, 83, 69
1, 20723, Note_on_c, 0, 71, 49
1, 20723, Note_off_c, 0, 59, 70
1, 20732, Note_off_c, 0, 55, 65
1, 20733, Note_off_c, 0, 83, 70
1, 20737, Note_on_c, 0, 72, 37
1, 20747, Note_off_c, 0, 71, 61
1, 20762, Poly_aftertouch_c, 0, 47, 127
1, 20769, Note_off_c, 0, 72, 54
1, 20798, Poly_aftertouch_c, 0, 47, 0
1, 20799, Note_on_c, 0, 61, 83
1, 20804, Note_on_c, 0, 49, 74
1, 20807, Note_on_c, 0, 85, 88
1, 20813, Note_on_c, 0, 73, 73
1, 20825, Note_off_c, 0, 61, 66
1, 20827, Note_off_c, 0, 49, 69
1, 20832, Note_off_c, 0, 85, 56
1, 20834, Note_off_c, 0, 73, 68
1, 20896, Note_on_c, 0, 62, 78
1, 20903, Note_on_c, 0, 74, 78
1, 20907, Note_on_c, 0, 86, 83
1, 20912, Note_on_c, 0, 50, 41
1, 20920, Note_off_c, 0, 62, 68
1, 20923, Note_off_c, 0, 74, 70
1, 20927, Note_off_c, 0, 86, 66
1, 20947, Note_off_c, 0, 50, 50
1, 20995, Note_on_c, 0, 76, 49
1, 20996, Note_on_c, 0, 64, 72
1, 20997, Note_on_c, 0, 88, 80
1, 21004, Note_on_c, 0, 52, 68
1, 21016, Note_off_c, 0, 88, 72
1, 21019, Note_off_c, 0, 76, 65
1, 21022, Note_off_c, 0, 64, 68
1, 21025, Note_off_c, 0, 52, 64
1, 21051, Control_c, 0, 64, 97
1, 21066, Control_c, 0, 64, 62
1, 21081, Control_c, 0, 64, 37
1, 21096, Control_c, 0, 64, 0
1, 21104, Note_on_c, 0, 78, 93
1, 21108, Note_on_c, 0, 74, 69
1, 21109, Note_on_c, 0, 86, 75
1, 21110, Note_on_c, 0, 62, 74
1, 21120, Note_on_c, 0, 54, 64
1, 21125, Note_off_c, 0, 74, 70
1, 21125, Control_c, 0, 64, 20
1, 21129, Note_on_c, 0, 50, 47
1, 21132, Note_off_c, 0, 86, 66
1, 21140, Control_c, 0, 64, 46
1, 21152, Note_off_c, 0, 62, 61
1, 21155, Control_c, 0, 64, 69
1, 21161, Note_off_c, 0, 50, 48
1, 21169, Control_c, 0, 64, 127
1, 21199, Note_off_c, 0, 78, 64
1, 21199, Note_off_c, 0, 54, 63
1, 21239, Note_on_c, 0, 61, 72
1, 21244, Note_on_c, 0, 85, 76
1, 21245, Note_on_c, 0, 49, 69
1, 21261, Note_off_c, 0, 61, 70
1, 21263, Note_off_c, 0, 85, 71
1, 21268, Note_on_c, 0, 73, 37
1, 21275, Note_off_c, 0, 49, 68
1, 21301, Note_off_c, 0, 73, 56
1, 21337, Note_on_c, 0, 59, 69
1, 21340, Note_on_c, 0, 83, 77
1, 21340, Note_on_c, 0, 71, 75
1, 21342, Note_on_c, 0, 47, 64
1, 21361, Note_off_c, 0, 59, 66
1, 21361, Note_off_c, 0, 83, 72
1, 21363, Note_off_c, 0, 71, 73
1, 21366, Note_off_c, 0, 47, 61
1, 21437, Note_on_c, 0, 58, 86
1, 21444, Note_on_c, 0, 82, 89
1, 21445, Note_on_c, 0, 70, 82
1, 21448, Note_on_c, 0, 46, 73
1, 21461, Note_off_c, 0, 58, 67
1, 21466, Note_off_c, 0, 70, 68
1, 21472, Note_off_c, 0, 46, 68
1, 21475, Note_off_c, 0, 82, 54
1, 21534, Note_on_c, 0, 59, 77
1, 21537, Note_on_c, 0, 71, 87
1, 21543, Note_on_c, 0, 47, 55
1, 21544, Note_on_c, 0, 83, 77
1, 21558, Note_off_c, 0, 59, 66
1, 21558, Note_off_c, 0, 71, 72
1, 21563, Note_on_c, 0, 48, 34
1, 21566, Note_off_c, 0, 83, 70
1, 21573, Note_off_c, 0, 47, 56
1, 21600, Note_off_c, 0, 48, 54
1, 21633, Note_on_c, 0, 73, 82
1, 21633, Note_on_c, 0, 85, 86
1, 21633, Note_on_c, 0, 61, 80
1, 21636, Note_on_c, 0, 49, 78
1, 21655, Note_off_c, 0, 73, 67
1, 21656, Note_off_c, 0, 61, 68
1, 21658, Note_off_c, 0, 85, 63
1, 21669, Note_off_c, 0, 49, 67
1, 21711, Control_c, 0, 64, 69
1, 21726, Control_c, 0, 64, 50
1, 21731, Poly_aftertouch_c, 0, 56, 0
1, 21740, Note_on_c, 0, 55, 76
1, 21740, Control_c, 0, 64, 0
1, 21741, Note_on_c, 0, 83, 87
1, 21745, Note_on_c, 0, 59, 77
1, 21749, Note_on_c, 0, 71, 89
1, 21753, Note_on_c, 0, 79, 80
1, 21761, Note_on_c, 0, 47, 59
1, 21778, Note_on_c, 0, 82, 52
1, 21785, Control_c, 0, 64, 37
1, 21786, Note_off_c, 0, 47, 62
1, 21786, Note_off_c, 0, 83, 66
1, 21792, Note_off_c, 0, 59, 61
1, 21799, Control_c, 0, 64, 60
1, 21802, Note_off_c, 0, 82, 61
1, 21803, Note_off_c, 0, 71, 65
1, 21814, Control_c, 0, 64, 127
1, 21874, Note_on_c, 0, 46, 76
1, 21886, Note_on_c, 0, 82, 68
1, 21887, Note_on_c, 0, 70, 77
1, 21891, Note_on_c, 0, 58, 69
1, 21904, Poly_aftertouch_c, 0, 52, 0
1, 21912, Note_off_c, 0, 70, 67
1, 21920, Note_off_c, 0, 58, 66
1, 21924, Note_off_c, 0, 79, 60
1, 21925, Note_off_c, 0, 46, 66
1, 21936, Note_off_c, 0, 82, 63
1, 21976, Note_on_c, 0, 59, 61
1, 21978, Note_on_c, 0, 83, 82
1, 21978, Note_on_c, 0, 71, 77
1, 22002, Note_off_c, 0, 71, 72
1, 22005, Note_off_c, 0, 83, 67
1, 22005, Note_off_c, 0, 59, 61
1, 22009, Note_off_c, 0, 55, 65
1, 22071, Note_on_c, 0, 61, 91
1, 22072, Note_on_c, 0, 49, 85
1, 22075, Note_on_c, 0, 85, 98
1, 22077, Note_on_c, 0, 73, 90
1, 22111, Note_off_c, 0, 49, 63
1, 22111, Note_off_c, 0, 61, 59
1, 22114, Note_off_c, 0, 85, 65
1, 22115, Note_off_c, 0, 73, 61
1, 22166, Note_on_c, 0, 74, 95
1, 22168, Note_on_c, 0, 62, 89
1, 22170, Note_on_c, 0, 86, 91
1, 22188, Note_on_c, 0, 50, 54
1, 22202, Note_off_c, 0, 62, 65
1, 22208, Note_off_c, 0, 74, 62
1, 22211, Note_off_c, 0, 86, 62
1, 22216, Note_off_c, 0, 50, 55
1, 22275, Note_on_c, 0, 76, 98
1, 22276, Note_on_c, 0, 64, 86
1, 22276, Note_on_c, 0, 88, 98
1, 22282, Note_on_c, 0, 52, 77
1, 22304, Note_off_c, 0, 64, 59
1, 22306, Note_off_c, 0, 76, 64
1, 22310, Note_off_c, 0, 52, 68
1, 22311, Note_off_c, 0, 88, 66
1, 22312, Control_c, 0, 64, 83
1, 22327, Control_c, 0, 64, 59
1, 22342, Control_c, 0, 64, 22
1, 22356, Control_c, 0, 64, 0
1, 22375, Note_on_c, 0, 78, 105
1, 22378, Note_on_c, 0, 74, 84
1, 22379, Note_on_c, 0, 62, 90
1, 22379, Note_on_c, 0, 86, 93
1, 22386, Control_c, 0, 64, 35
1, 22387, Note_on_c, 0, 54, 80
1, 22393, Note_on_c, 0, 50, 59
1, 22395, Note_off_c, 0, 74, 75
1, 22396, Note_off_c, 0, 86, 68
1, 22401, Control_c, 0, 64, 58
1, 22414, Note_off_c, 0, 62, 62
1, 22415, Control_c, 0, 64, 127
1, 22419, Note_off_c, 0, 50, 61
1, 22441, Note_off_c, 0, 78, 66
1, 22442, Note_off_c, 0, 54, 64
1, 22493, Note_on_c, 0, 61, 82
1, 22497, Note_on_c, 0, 49, 85
1, 22500, Note_on_c, 0, 85, 88
1, 22508, Note_on_c, 0, 73, 75
1, 22514, Note_off_c, 0, 61, 73
1, 22522, Note_off_c, 0, 85, 69
1, 22525, Note_off_c, 0, 49, 69
1, 22525, Note_off_c, 0, 73, 70
1, 22593, Note_on_c, 0, 59, 79
1, 22594, Note_on_c, 0, 71, 86
1, 22594, Note_on_c, 0, 83, 84
1, 22600, Note_on_c, 0, 47, 77
1, 22615, Note_off_c, 0, 59, 70
1, 22618, Note_off_c, 0, 71, 68
1, 22627, Note_off_c, 0, 47, 67
1, 22632, Note_off_c, 0, 83, 63
1, 22688, Note_on_c, 0, 58, 80
1, 22697, Note_on_c, 0, 46, 80
1, 22702, Note_on_c, 0, 70, 85
1, 22704, Note_on_c, 0, 82, 82
1, 22717, Note_off_c, 0, 58, 62
1, 22720, Note_off_c, 0, 82, 66
1, 22724, Note_off_c, 0, 70, 66
1, 22725, Note_off_c, 0, 46, 68
1, 22794, Note_on_c, 0, 59, 79
1, 22801, Note_on_c, 0, 47, 66
1, 22804, Note_on_c, 0, 71, 76
1, 22818, Note_off_c, 0, 59, 66
1, 22819, Note_off_c, 0, 47, 67
1, 22820, Note_on_c, 0, 83, 55
1, 22822, Note_on_c, 0, 84, 58
1, 22824, Note_off_c, 0, 71, 72
1, 22840, Note_off_c, 0, 83, 65
1, 22843, Note_off_c, 0, 84, 62
1, 22899, Note_on_c, 0, 61, 91
1, 22899, Note_on_c, 0, 73, 70
1, 22899, Note_on_c, 0, 85, 76
1, 22904, Note_on_c, 0, 49, 83
1, 22914, Note_off_c, 0, 85, 68
1, 22918, Note_off_c, 0, 73, 67
1, 22920, Poly_aftertouch_c, 0, 72, 0
1, 22948, Note_off_c, 0, 61, 66
1, 22959, Note_off_c, 0, 49, 62
1, 23012, Poly_aftertouch_c, 0, 84, 0
1, 23016, Control_c, 0, 64, 103
1, 23031, Control_c, 0, 64, 61
1, 23045, Control_c, 0, 64, 30
1, 23048, Note_on_c, 0, 83, 77
1, 23054, Note_on_c, 0, 71, 73
1, 23055, Note_on_c, 0, 59, 69
1, 23059, Note_on_c, 0, 56, 61
1, 23060, Control_c, 0, 64, 0
1, 23062, Note_on_c, 0, 47, 55
1, 23064, Note_on_c, 0, 80, 66
1, 23066, Note_on_c, 0, 77, 66
1, 23070, Note_on_c, 0, 53, 53
1, 23105, Control_c, 0, 64, 22
1, 23113, Note_off_c, 0, 47, 65
1, 23117, Note_off_c, 0, 59, 59
1, 23117, Note_off_c, 0, 83, 63
1, 23120, Control_c, 0, 64, 48
1, 23122, Note_on_c, 0, 48, 3
1, 23130, Note_off_c, 0, 71, 65
1, 23135, Control_c, 0, 64, 72
1, 23150, Control_c, 0, 64, 127
1, 23162, Note_off_c, 0, 48, 55
1, 23186, Note_off_c, 0, 56, 65
1, 23190, Note_off_c, 0, 53, 0
1, 23192, Note_off_c, 0, 80, 62
1, 23214, Note_on_c, 0, 46, 68
1, 23223, Note_on_c, 0, 58, 66
1, 23227, Note_on_c, 0, 70, 72
1, 23227, Poly_aftertouch_c, 0, 53, 127
1, 23235, Note_on_c, 0, 82, 64
1, 23239, Note_off_c, 0, 77, 30
1, 23248, Note_off_c, 0, 58, 64
1, 23250, Note_off_c, 0, 46, 63
1, 23251, Note_off_c, 0, 70, 69
1, 23256, Note_off_c, 0, 82, 64
1, 23265, Poly_aftertouch_c, 0, 53, 0
1, 23313, Note_on_c, 0, 59, 72
1, 23318, Note_on_c, 0, 71, 73
1, 23319, Note_on_c, 0, 83, 78
1, 23323, Note_on_c, 0, 47, 50
1, 23338, Note_off_c, 0, 59, 66
1, 23338, Note_off_c, 0, 71, 73
1, 23339, Note_off_c, 0, 83, 73
1, 23347, Note_off_c, 0, 47, 61
1, 23412, Note_on_c, 0, 60, 70
1, 23415, Note_on_c, 0, 84, 82
1, 23418, Note_on_c, 0, 72, 75
1, 23434, Note_off_c, 0, 84, 71
1, 23438, Note_off_c, 0, 60, 70
1, 23439, Note_off_c, 0, 72, 67
1, 23440, Note_on_c, 0, 48, 36
1, 23477, Note_off_c, 0, 48, 53
1, 23498, Note_on_c, 0, 61, 89
1, 23502, Note_on_c, 0, 73, 82
1, 23506, Note_on_c, 0, 49, 71
1, 23508, Note_on_c, 0, 85, 81
1, 23520, Note_off_c, 0, 61, 68
1, 23527, Note_off_c, 0, 85, 69
1, 23528, Note_off_c, 0, 73, 64
1, 23534, Note_off_c, 0, 49, 70
1, 23594, Note_on_c, 0, 62, 78
1, 23604, Note_on_c, 0, 50, 63
1, 23604, Note_on_c, 0, 74, 76
1, 23604, Note_on_c, 0, 86, 78
1, 23624, Note_off_c, 0, 86, 70
1, 23624, Note_off_c, 0, 74, 73
1, 23626, Note_off_c, 0, 62, 64
1, 23633, Note_off_c, 0, 50, 66
1, 23651, Control_c, 0, 64, 73
1, 23666, Control_c, 0, 64, 53
1, 23689, Control_c, 0, 64, 32
1, 23704, Control_c, 0, 64, 33
1, 23707, Note_on_c, 0, 85, 81
1, 23708, Note_on_c, 0, 61, 80
1, 23708, Note_on_c, 0, 73, 80
1, 23714, Note_on_c, 0, 77, 76
1, 23719, Note_on_c, 0, 49, 73
1, 23719, Control_c, 0, 64, 49
1, 23722, Note_on_c, 0, 80, 69
1, 23723, Note_on_c, 0, 56, 68
1, 23734, Note_on_c, 0, 53, 10
1, 23734, Control_c, 0, 64, 69
1, 23736, Note_off_c, 0, 61, 64
1, 23745, Note_off_c, 0, 73, 53
1, 23749, Control_c, 0, 64, 127
1, 23751, Note_off_c, 0, 85, 64
1, 23753, Note_off_c, 0, 77, 53
1, 23758, Note_off_c, 0, 49, 63
1, 23796, Note_off_c, 0, 56, 0
1, 23808, Note_off_c, 0, 53, 0
1, 23816, Note_on_c, 0, 56, 45
1, 23816, Note_on_c, 0, 60, 75
1, 23818, Note_on_c, 0, 72, 87
1, 23820, Note_on_c, 0, 84, 77
1, 23822, Note_on_c, 0, 48, 74
1, 23838, Note_on_c, 0, 53, 17
1, 23844, Note_off_c, 0, 60, 66
1, 23844, Note_off_c, 0, 72, 60
1, 23848, Note_off_c, 0, 84, 53
1, 23850, Note_off_c, 0, 56, 67
1, 23856, Note_off_c, 0, 48, 63
1, 23857, Note_off_c, 0, 80, 62
1, 23886, Note_off_c, 0, 53, 55
1, 23888, Poly_aftertouch_c, 0, 77, 127
1, 23913, Note_on_c, 0, 59, 78
1, 23917, Note_on_c, 0, 83, 55
1, 23919, Note_on_c, 0, 56, 69
1, 23920, Note_on_c, 0, 71, 91
1, 23934, Poly_aftertouch_c, 0, 77, 0
1, 23946, Note_off_c, 0, 56, 70
1, 23946, Note_off_c, 0, 71, 67
1, 23949, Note_on_c, 0, 81, 26
1, 23952, Note_off_c, 0, 83, 67
1, 23956, Control_c, 0, 64, 76
1, 23959, Note_off_c, 0, 59, 62
1, 23971, Control_c, 0, 64, 64
1, 23986, Note_off_c, 0, 81, 31
1, 23986, Poly_aftertouch_c, 0, 47, 127
1, 24000, Control_c, 0, 64, 76
1, 24002, Note_on_c, 0, 47, 39
1, 24007, Note_on_c, 0, 70, 93
1, 24014, Note_on_c, 0, 82, 88
1, 24014, Note_on_c, 0, 58, 90
1, 24015, Control_c, 0, 64, 127
1, 24017, Note_on_c, 0, 80, 77
1, 24021, Note_on_c, 0, 53, 60
1, 24026, Note_on_c, 0, 56, 49
1, 24027, Note_off_c, 0, 56, 127
1, 24035, Note_on_c, 0, 77, 62
1, 24049, Note_off_c, 0, 70, 65
1, 24053, Note_off_c, 0, 82, 65
1, 24055, Note_off_c, 0, 77, 65
1, 24059, Note_off_c, 0, 58, 63
1, 24061, Note_off_c, 0, 47, 63
1, 24074, Note_off_c, 0, 53, 59
1, 24078, Note_off_c, 0, 80, 59
1, 24096, Poly_aftertouch_c, 0, 55, 127
1, 24111, Note_on_c, 0, 59, 85
1, 24113, Note_on_c, 0, 71, 94
1, 24113, Note_on_c, 0, 83, 83
1, 24119, Note_on_c, 0, 53, 43
1, 24129, Poly_aftertouch_c, 0, 55, 0
1, 24142, Note_on_c, 0, 80, 30
1, 24147, Note_off_c, 0, 71, 67
1, 24151, Note_off_c, 0, 83, 65
1, 24154, Note_off_c, 0, 59, 66
1, 24156, Note_on_c, 0, 56, 21
1, 24161, Note_off_c, 0, 53, 61
1, 24178, Note_off_c, 0, 80, 55
1, 24191, Note_off_c, 0, 56, 0
1, 24201, Note_on_c, 0, 73, 97
1, 24208, Note_on_c, 0, 85, 84
1, 24215, Note_on_c, 0, 49, 58
1, 24221, Note_on_c, 0, 56, 43
1, 24224, Note_on_c, 0, 61, 79
1, 24241, Note_off_c, 0, 85, 61
1, 24244, Note_off_c, 0, 73, 64
1, 24246, Note_off_c, 0, 61, 72
1, 24247, Note_off_c, 0, 56, 61
1, 24247, Note_off_c, 0, 49, 61
1, 24248, Note_on_c, 0, 78, 5
1, 24249, Note_off_c, 0, 78, 127
1, 24268, Control_c, 0, 64, 87
1, 24283, Control_c, 0, 64, 62
1, 24297, Control_c, 0, 64, 48
1, 24307, Note_on_c, 0, 59, 86
1, 24310, Note_on_c, 0, 53, 58
1, 24312, Control_c, 0, 64, 43
1, 24313, Note_on_c, 0, 71, 95
1, 24313, Note_on_c, 0, 83, 88
1, 24315, Note_on_c, 0, 47, 75
1, 24316, Note_on_c, 0, 80, 88
1, 24319, Note_on_c, 0, 56, 76
1, 24327, Control_c, 0, 64, 54
1, 24329, Note_on_c, 0, 77, 64
1, 24339, Note_on_c, 0, 76, 62
1, 24342, Control_c, 0, 64, 76
1, 24347, Note_off_c, 0, 59, 61
1, 24348, Note_off_c, 0, 47, 66
1, 24351, Note_off_c, 0, 71, 69
1, 24351, Note_off_c, 0, 83, 63
1, 24357, Control_c, 0, 64, 127
1, 24358, Note_off_c, 0, 76, 66
1, 24364, Note_off_c, 0, 53, 63
1, 24365, Note_off_c, 0, 77, 63
1, 24372, Note_off_c, 0, 56, 65
1, 24378, Note_off_c, 0, 80, 64
1, 24408, Note_on_c, 0, 58, 92
1, 24412, Note_on_c, 0, 70, 94
1, 24416, Note_on_c, 0, 82, 84
1, 24417, Note_on_c, 0, 46, 83
1, 24419, Note_on_c, 0, 78, 84
1, 24440, Note_on_c, 0, 55, 60
1, 24447, Note_on_c, 0, 80, 57
1, 24458, Note_on_c, 0, 53, 33
1, 24460, Note_off_c, 0, 70, 62
1, 24462, Note_off_c, 0, 78, 63
1, 24464, Note_off_c, 0, 55, 60
1, 24464, Note_off_c, 0, 58, 62
1, 24466, Note_off_c, 0, 80, 64
1, 24477, Note_off_c, 0, 46, 62
1, 24477, Note_off_c, 0, 82, 64
1, 24490, Note_off_c, 0, 53, 54
1, 24521, Note_on_c, 0, 59, 82
1, 24521, Note_on_c, 0, 71, 93
1, 24525, Note_on_c, 0, 83, 88
1, 24531, Note_on_c, 0, 47, 59
1, 24531, Note_on_c, 0, 53, 55
1, 24531, Note_on_c, 0, 80, 79
1, 24541, Note_off_c, 0, 59, 65
1, 24550, Note_off_c, 0, 47, 66
1, 24551, Note_off_c, 0, 80, 69
1, 24557, Note_off_c, 0, 71, 62
1, 24562, Note_off_c, 0, 53, 65
1, 24566, Note_off_c, 0, 83, 65
1, 24572, Control_c, 0, 64, 71
1, 24587, Control_c, 0, 64, 57
1, 24593, Poly_aftertouch_c, 0, 77, 127
1, 24602, Control_c, 0, 64, 50
1, 24607, Poly_aftertouch_c, 0, 77, 0
1, 24616, Control_c, 0, 64, 57
1, 24620, Note_on_c, 0, 77, 57
1, 24621, Note_on_c, 0, 56, 76
1, 24621, Note_on_c, 0, 72, 99
1, 24625, Note_on_c, 0, 60, 77
1, 24625, Note_on_c, 0, 59, 69
1, 24625, Note_on_c, 0, 80, 90
1, 24628, Note_on_c, 0, 84, 85
1, 24631, Control_c, 0, 64, 77
1, 24636, Note_on_c, 0, 53, 61
1, 24646, Control_c, 0, 64, 127
1, 24647, Note_off_c, 0, 84, 71
1, 24650, Note_off_c, 0, 59, 67
1, 24650, Note_off_c, 0, 60, 69
1, 24661, Note_off_c, 0, 72, 61
1, 24671, Note_off_c, 0, 53, 60
1, 24673, Poly_aftertouch_c, 0, 47, 127
1, 24675, Note_off_c, 0, 77, 61
1, 24676, Note_off_c, 0, 80, 65
1, 24682, Note_off_c, 0, 56, 64
1, 24715, Poly_aftertouch_c, 0, 47, 0
1, 24716, Note_on_c, 0, 49, 85
1, 24718, Note_on_c, 0, 61, 94
1, 24719, Note_on_c, 0, 73, 95
1, 24727, Note_on_c, 0, 84, 89
1, 24750, Note_off_c, 0, 73, 61
1, 24754, Note_off_c, 0, 61, 68
1, 24756, Note_off_c, 0, 84, 52
1, 24764, Note_off_c, 0, 49, 67
1, 24817, Poly_aftertouch_c, 0, 77, 0
1, 24820, Note_on_c, 0, 62, 89
1, 24820, Note_on_c, 0, 74, 88
1, 24820, Note_on_c, 0, 86, 85
1, 24825, Note_on_c, 0, 78, 78
1, 24848, Note_on_c, 0, 53, 35
1, 24852, Note_on_c, 0, 56, 32
1, 24857, Note_on_c, 0, 84, 43
1, 24857, Note_off_c, 0, 86, 63
1, 24859, Note_off_c, 0, 74, 67
1, 24863, Note_off_c, 0, 62, 66
1, 24869, Note_on_c, 0, 50, 10
1, 24876, Note_off_c, 0, 78, 65
1, 24882, Note_off_c, 0, 53, 57
1, 24883, Control_c, 0, 64, 83
1, 24884, Note_off_c, 0, 84, 40
1, 24885, Note_off_c, 0, 56, 48
1, 24898, Control_c, 0, 64, 60
1, 24900, Poly_aftertouch_c, 0, 48, 127
1, 24913, Control_c, 0, 64, 34
1, 24920, Note_off_c, 0, 50, 52
1, 24921, Note_on_c, 0, 85, 81
1, 24926, Note_on_c, 0, 73, 86
1, 24928, Control_c, 0, 64, 27
1, 24929, Note_on_c, 0, 61, 87
1, 24931, Note_on_c, 0, 77, 83
1, 24933, Poly_aftertouch_c, 0, 60, 0
1, 24934, Note_on_c, 0, 80, 75
1, 24937, Note_on_c, 0, 49, 72
1, 24941, Note_on_c, 0, 56, 80
1, 24943, Control_c, 0, 64, 47
1, 24947, Note_on_c, 0, 53, 67
1, 24950, Poly_aftertouch_c, 0, 48, 0
1, 24957, Control_c, 0, 64, 71
1, 24962, Note_off_c, 0, 61, 61
1, 24967, Note_off_c, 0, 49, 67
1, 24970, Note_off_c, 0, 85, 64
1, 24971, Note_off_c, 0, 73, 64
1, 24972, Control_c, 0, 64, 127
1, 24992, Note_off_c, 0, 77, 58
1, 24996, Note_off_c, 0, 53, 61
1, 25022, Note_off_c, 0, 56, 0
1, 25034, Note_on_c, 0, 60, 86
1, 25040, Note_on_c, 0, 48, 70
1, 25040, Note_on_c, 0, 72, 95
1, 25041, Note_on_c, 0, 84, 89
1, 25043, Note_on_c, 0, 56, 33
1, 25049, Note_on_c, 0, 77, 69
1, 25069, Note_off_c, 0, 56, 62
1, 25075, Note_off_c, 0, 60, 65
1, 25076, Note_off_c, 0, 72, 64
1, 25076, Note_off_c, 0, 77, 65
1, 25078, Note_off_c, 0, 48, 65
1, 25082, Note_off_c, 0, 84, 63
1, 25091, Note_off_c, 0, 80, 59
1, 25147, Note_on_c, 0, 59, 89
1, 25151, Note_on_c, 0, 71, 93
1, 25152, Note_on_c, 0, 83, 87
1, 25156, Note_on_c, 0, 47, 81
1, 25187, Note_off_c, 0, 59, 64
1, 25188, Note_off_c, 0, 47, 68
1, 25191, Note_off_c, 0, 71, 64
1, 25197, Note_off_c, 0, 83, 61
1, 25270, Note_on_c, 0, 58, 98
1, 25272, Note_on_c, 0, 70, 102
1, 25272, Note_on_c, 0, 82, 85
1, 25275, Note_on_c, 0, 46, 95
1, 25303, Note_off_c, 0, 70, 66
1, 25311, Note_off_c, 0, 58, 65
1, 25312, Note_off_c, 0, 46, 63
1, 25316, Note_on_c, 0, 80, 26
1, 25317, Note_off_c, 0, 80, 127
1, 25320, Note_off_c, 0, 82, 64
1, 25409, Note_on_c, 0, 83, 80
1, 25409, Note_on_c, 0, 59, 97
1, 25410, Note_on_c, 0, 81, 92
1, 25411, Note_on_c, 0, 69, 85
1, 25412, Note_on_c, 0, 47, 89
1, 25414, Note_on_c, 0, 71, 74
1, 25428, Note_off_c, 0, 83, 74
1, 25430, Note_off_c, 0, 81, 68
1, 25430, Note_off_c, 0, 69, 70
1, 25435, Note_off_c, 0, 71, 72
1, 25436, Note_off_c, 0, 47, 70
1, 25441, Note_off_c, 0, 59, 56
1, 25567, Note_on_c, 0, 55, 98
1, 25568, Note_on_c, 0, 65, 101
1, 25571, Note_on_c, 0, 77, 97
1, 25575, Note_on_c, 0, 49, 84
1, 25577, Note_on_c, 0, 73, 85
1, 25578, Note_on_c, 0, 47, 72
1, 25579, Note_on_c, 0, 43, 76
1, 25586, Note_on_c, 0, 71, 65
1, 25593, Note_on_c, 0, 72, 67
1, 25597, Note_on_c, 0, 75, 62
1, 25619, Note_off_c, 0, 55, 65
1, 25619, Note_off_c, 0, 72, 57
1, 25624, Note_off_c, 0, 77, 63
1, 25627, Note_off_c, 0, 43, 55
1, 25633, Note_off_c, 0, 65, 62
1, 25637, Note_off_c, 0, 75, 56
1, 25661, Note_off_c, 0, 71, 57
1, 25663, Note_off_c, 0, 49, 55
1, 25680, Note_off_c, 0, 73, 61
1, 25740, Note_off_c, 0, 47, 23
1, 25794, Control_c, 0, 64, 81
1, 25809, Control_c, 0, 64, 54
1, 25819, Note_on_c, 0, 66, 103
1, 25820, Note_on_c, 0, 78, 106
1, 25821, Note_on_c, 0, 54, 99
1, 25821, Note_on_c, 0, 73, 90
1, 25824, Control_c, 0, 64, 0
1, 25825, Note_on_c, 0, 42, 81
1, 25825, Note_on_c, 0, 49, 86
1, 25825, Note_on_c, 0, 71, 68
1, 25829, Note_on_c, 0, 47, 62
1, 25880, Note_on_c, 0, 79, 7
1, 25881, Note_off_c, 0, 79, 127
1, 25935, Control_c, 0, 64, 11
1, 25943, Note_off_c, 0, 66, 63
1, 25949, Note_off_c, 0, 42, 58
1, 25949, Control_c, 0, 64, 33
1, 25953, Note_off_c, 0, 54, 62
1, 25964, Control_c, 0, 64, 56
1, 25965, Note_off_c, 0, 78, 62
1, 25977, Note_off_c, 0, 71, 58
1, 25979, Control_c, 0, 64, 95
1, 25994, Control_c, 0, 64, 127
1, 26032, Note_on_c, 0, 79, 73
1, 26038, Note_on_c, 0, 67, 80
1, 26039, Note_on_c, 0, 41, 56
1, 26041, Note_on_c, 0, 53, 70
1, 26050, Note_on_c, 0, 71, 53
1, 26075, Note_off_c, 0, 53, 64
1, 26075, Note_off_c, 0, 67, 58
1, 26077, Note_off_c, 0, 41, 64
1, 26085, Note_off_c, 0, 79, 59
1, 26119, Note_off_c, 0, 71, 59
1, 26119, Note_off_c, 0, 73, 58
1, 26159, Poly_aftertouch_c, 0, 71, 0
1, 26166, Note_on_c, 0, 66, 76
1, 26167, Note_off_c, 0, 49, 0
1, 26169, Note_on_c, 0, 78, 75
1, 26177, Note_on_c, 0, 71, 38
1, 26179, Note_on_c, 0, 54, 66
1, 26187, Note_on_c, 0, 42, 58
1, 26190, Note_off_c, 0, 47, 0
1, 26192, Note_off_c, 0, 66, 63
1, 26202, Note_off_c, 0, 54, 71
1, 26204, Poly_aftertouch_c, 0, 49, 127
1, 26213, Note_off_c, 0, 71, 54
1, 26214, Note_off_c, 0, 78, 59
1, 26220, Note_off_c, 0, 42, 65
1, 26228, Poly_aftertouch_c, 0, 47, 127
1, 26277, Note_on_c, 0, 55, 72
1, 26277, Note_on_c, 0, 73, 50
1, 26279, Note_on_c, 0, 65, 69
1, 26280, Note_on_c, 0, 49, 20
1, 26280, Note_on_c, 0, 77, 59
1, 26290, Note_on_c, 0, 47, 12
1, 26293, Note_on_c, 0, 43, 42
1, 26299, Note_on_c, 0, 71, 47
1, 26301, Note_off_c, 0, 77, 64
1, 26301, Note_off_c, 0, 55, 69
1, 26304, Note_off_c, 0, 65, 69
1, 26317, Note_off_c, 0, 73, 65
1, 26322, Note_off_c, 0, 49, 64
1, 26322, Note_off_c, 0, 71, 61
1, 26327, Note_off_c, 0, 43, 54
1, 26361, Note_on_c, 0, 66, 75
1, 26369, Note_on_c, 0, 54, 78
1, 26372, Note_on_c, 0, 78, 71
1, 26381, Note_on_c, 0, 42, 67
1, 26388, Note_off_c, 0, 66, 67
1, 26391, Note_off_c, 0, 54, 69
1, 26399, Note_off_c, 0, 78, 70
1, 26406, Note_on_c, 0, 49, 34
1, 26411, Note_on_c, 0, 73, 29
1, 26411, Note_off_c, 0, 42, 64
1, 26427, Poly_aftertouch_c, 0, 71, 127
1, 26441, Note_off_c, 0, 47, 0
1, 26457, Note_on_c, 0, 53, 81
1, 26457, Note_on_c, 0, 67, 82
1, 26457, Note_off_c, 0, 73, 0
1, 26457, Note_on_c, 0, 73, 31
1, 26459, Note_on_c, 0, 41, 65
1, 26459, Note_on_c, 0, 79, 69
1, 26465, Note_off_c, 0, 49, 0
1, 26465, Note_on_c, 0, 49, 40
1, 26467, Note_on_c, 0, 47, 32
1, 26476, Note_on_c, 0, 44, 48
1, 26482, Note_off_c, 0, 67, 62
1, 26483, Note_off_c, 0, 79, 59
1, 26493, Note_off_c, 0, 41, 65
1, 26499, Note_off_c, 0, 53, 65
1, 26509, Note_off_c, 0, 44, 63
1, 26515, Poly_aftertouch_c, 0, 71, 0
1, 26522, Note_off_c, 0, 49, 63
1, 26522, Note_off_c, 0, 73, 56
1, 26528, Control_c, 0, 64, 109
1, 26531, Note_off_c, 0, 47, 58
1, 26543, Control_c, 0, 64, 61
1, 26552, Note_on_c, 0, 73, 66
1, 26553, Note_on_c, 0, 66, 99
1, 26555, Note_on_c, 0, 78, 98
1, 26558, Control_c, 0, 64, 39
1, 26560, Note_on_c, 0, 42, 84
1, 26560, Note_on_c, 0, 54, 91
1, 26565, Note_on_c, 0, 49, 57
1, 26569, Note_on_c, 0, 47, 32
1, 26572, Control_c, 0, 64, 22
1, 26587, Note_on_c, 0, 71, 40
1, 26587, Control_c, 0, 64, 41
1, 26588, Note_off_c, 0, 54, 68
1, 26598, Note_off_c, 0, 78, 68
1, 26599, Note_on_c, 0, 75, 35
1, 26601, Note_off_c, 0, 66, 64
1, 26602, Control_c, 0, 64, 61
1, 26603, Note_off_c, 0, 42, 64
1, 26617, Note_off_c, 0, 71, 56
1, 26617, Control_c, 0, 64, 127
1, 26618, Note_off_c, 0, 47, 53
1, 26624, Note_off_c, 0, 49, 51
1, 26634, Note_off_c, 0, 75, 47
1, 26659, Note_on_c, 0, 77, 65
1, 26661, Note_on_c, 0, 65, 88
1, 26664, Note_on_c, 0, 43, 72
1, 26665, Note_on_c, 0, 49, 51
1, 26665, Note_on_c, 0, 55, 86
1, 26690, Note_on_c, 0, 71, 61
1, 26692, Note_off_c, 0, 77, 61
1, 26695, Note_on_c, 0, 47, 48
1, 26706, Note_off_c, 0, 65, 63
1, 26709, Note_off_c, 0, 55, 66
1, 26712, Note_off_c, 0, 43, 64
1, 26715, Note_off_c, 0, 71, 68
1, 26740, Note_off_c, 0, 73, 0
1, 26748, Note_off_c, 0, 47, 52
1, 26752, Note_off_c, 0, 49, 0
1, 26760, Note_on_c, 0, 66, 87
1, 26760, Note_on_c, 0, 73, 53
1, 26772, Note_on_c, 0, 54, 78
1, 26774, Note_on_c, 0, 49, 38
1, 26774, Note_on_c, 0, 78, 68
1, 26784, Note_on_c, 0, 71, 57
1, 26788, Note_on_c, 0, 42, 58
1, 26793, Note_off_c, 0, 54, 69
1, 26802, Note_off_c, 0, 78, 68
1, 26803, Note_on_c, 0, 47, 24
1, 26803, Note_off_c, 0, 66, 62
1, 26810, Note_off_c, 0, 71, 60
1, 26819, Note_off_c, 0, 42, 61
1, 26833, Note_off_c, 0, 73, 54
1, 26846, Control_c, 0, 64, 78
1, 26861, Control_c, 0, 64, 63
1, 26864, Note_on_c, 0, 53, 91
1, 26865, Note_on_c, 0, 67, 96
1, 26865, Note_on_c, 0, 73, 51
1, 26867, Note_off_c, 0, 47, 0
1, 26868, Note_on_c, 0, 41, 76
1, 26868, Note_on_c, 0, 79, 84
1, 26876, Control_c, 0, 64, 61
1, 26880, Note_on_c, 0, 44, 53
1, 26880, Note_on_c, 0, 47, 56
1, 26883, Note_on_c, 0, 71, 64
1, 26891, Control_c, 0, 64, 66
1, 26897, Note_off_c, 0, 41, 68
1, 26905, Note_on_c, 0, 74, 55
1, 26905, Note_off_c, 0, 79, 58
1, 26906, Note_off_c, 0, 53, 67
1, 26907, Control_c, 0, 64, 103
1, 26909, Note_off_c, 0, 67, 63
1, 26913, Note_on_c, 0, 72, 31
1, 26915, Note_off_c, 0, 44, 64
1, 26922, Control_c, 0, 64, 127
1, 26924, Note_off_c, 0, 71, 65
1, 26926, Note_off_c, 0, 47, 62
1, 26926, Note_off_c, 0, 74, 63
1, 26934, Note_off_c, 0, 49, 57
1, 26940, Note_off_c, 0, 73, 50
1, 26947, Note_off_c, 0, 72, 56
1, 26951, Poly_aftertouch_c, 0, 76, 127
1, 26966, Note_on_c, 0, 73, 52
1, 26972, Note_on_c, 0, 66, 93
1, 26977, Note_on_c, 0, 78, 80
1, 26981, Note_on_c, 0, 49, 58
1, 26982, Poly_aftertouch_c, 0, 76, 0
1, 26983, Note_on_c, 0, 42, 76
1, 26985, Note_on_c, 0, 54, 68
1, 26989, Note_off_c, 0, 66, 71
1, 26998, Note_on_c, 0, 47, 50
1, 26999, Note_off_c, 0, 54, 69
1, 27004, Note_off_c, 0, 78, 67
1, 27007, Note_off_c, 0, 42, 64
1, 27021, Note_off_c, 0, 73, 60
1, 27034, Note_off_c, 0, 47, 60
1, 27055, Poly_aftertouch_c, 0, 71, 127
1, 27079, Poly_aftertouch_c, 0, 72, 127
1, 27081, Note_on_c, 0, 55, 84
1, 27081, Note_on_c, 0, 65, 91
1, 27081, Note_on_c, 0, 77, 75
1, 27088, Note_on_c, 0, 71, 31
1, 27099, Note_on_c, 0, 43, 38
1, 27100, Note_off_c, 0, 77, 65
1, 27108, Note_off_c, 0, 65, 65
1, 27109, Note_on_c, 0, 75, 33
1, 27110, Note_off_c, 0, 55, 64
1, 27111, Note_on_c, 0, 47, 47
1, 27126, Note_off_c, 0, 43, 59
1, 27137, Note_off_c, 0, 47, 59
1, 27138, Note_off_c, 0, 71, 64
1, 27140, Poly_aftertouch_c, 0, 72, 0
1, 27144, Note_off_c, 0, 75, 44
1, 27146, Note_off_c, 0, 49, 63
1, 27174, Control_c, 0, 64, 66
1, 27189, Control_c, 0, 64, 42
1, 27203, Control_c, 0, 64, 0
1, 27204, Note_on_c, 0, 66, 99
1, 27207, Note_on_c, 0, 78, 94
1, 27207, Note_on_c, 0, 54, 92
1, 27215, Note_on_c, 0, 42, 81
1, 27263, Control_c, 0, 64, 31
1, 27274, Note_off_c, 0, 66, 63
1, 27278, Control_c, 0, 64, 58
1, 27284, Note_off_c, 0, 54, 65
1, 27287, Note_off_c, 0, 78, 65
1, 27292, Note_off_c, 0, 42, 61
1, 27293, Control_c, 0, 64, 127
1, 27383, Note_on_c, 0, 59, 67
1, 27385, Note_on_c, 0, 67, 61
1, 27393, Note_on_c, 0, 47, 51
1, 27400, Note_on_c, 0, 79, 38
1, 27402, Note_off_c, 0, 59, 65
1, 27405, Note_off_c, 0, 67, 62
1, 27430, Note_off_c, 0, 47, 57
1, 27439, Note_off_c, 0, 79, 54
1, 27490, Note_on_c, 0, 66, 69
1, 27491, Note_on_c, 0, 78, 74
1, 27501, Note_on_c, 0, 58, 67
1, 27511, Note_on_c, 0, 46, 56
1, 27511, Note_off_c, 0, 66, 70
1, 27513, Note_off_c, 0, 78, 73
1, 27529, Note_off_c, 0, 58, 65
1, 27535, Note_off_c, 0, 46, 60
1, 27583, Note_on_c, 0, 65, 72
1, 27583, Note_on_c, 0, 77, 73
1, 27587, Note_on_c, 0, 57, 66
1, 27603, Note_on_c, 0, 45, 33
1, 27605, Note_off_c, 0, 77, 67
1, 27606, Note_off_c, 0, 65, 71
1, 27612, Note_off_c, 0, 57, 64
1, 27639, Note_off_c, 0, 45, 51
1, 27674, Note_on_c, 0, 66, 75
1, 27679, Note_on_c, 0, 78, 78
1, 27680, Note_on_c, 0, 46, 72
1, 27681, Note_on_c, 0, 58, 78
1, 27699, Note_off_c, 0, 66, 64
1, 27701, Note_off_c, 0, 78, 73
1, 27703, Note_off_c, 0, 58, 68
1, 27711, Note_off_c, 0, 46, 67
1, 27782, Note_on_c, 0, 59, 73
1, 27791, Note_on_c, 0, 79, 49
1, 27792, Note_on_c, 0, 65, 52
1, 27800, Note_on_c, 0, 67, 37
1, 27803, Note_on_c, 0, 77, 38
1, 27808, Note_off_c, 0, 59, 65
1, 27811, Note_off_c, 0, 65, 67
1, 27816, Note_off_c, 0, 79, 57
1, 27827, Note_off_c, 0, 67, 56
1, 27833, Note_off_c, 0, 77, 54
1, 27846, Poly_aftertouch_c, 0, 47, 127
1, 27871, Note_on_c, 0, 66, 83
1, 27873, Note_on_c, 0, 60, 82
1, 27874, Note_on_c, 0, 78, 85
1, 27876, Note_on_c, 0, 48, 57
1, 27883, Poly_aftertouch_c, 0, 47, 0
1, 27893, Note_off_c, 0, 60, 71
1, 27901, Note_off_c, 0, 48, 59
1, 27908, Note_off_c, 0, 66, 58
1, 27911, Note_off_c, 0, 78, 60
1, 27963, Note_on_c, 0, 61, 89
1, 27969, Note_on_c, 0, 65, 82
1, 27969, Note_on_c, 0, 77, 82
1, 27970, Note_on_c, 0, 49, 83
1, 27991, Note_off_c, 0, 65, 71
1, 27995, Note_off_c, 0, 77, 64
1, 27998, Note_off_c, 0, 49, 67
1, 28001, Note_off_c, 0, 61, 60
1, 28063, Note_on_c, 0, 62, 89
1, 28065, Note_on_c, 0, 66, 94
1, 28069, Note_on_c, 0, 78, 95
1, 28075, Note_on_c, 0, 50, 61
1, 28087, Note_off_c, 0, 62, 69
1, 28096, Note_off_c, 0, 50, 62
1, 28102, Note_off_c, 0, 66, 63
1, 28107, Note_off_c, 0, 78, 65
1, 28161, Note_on_c, 0, 63, 93
1, 28173, Note_on_c, 0, 67, 91
1, 28175, Note_on_c, 0, 51, 86
1, 28179, Note_on_c, 0, 79, 87
1, 28199, Note_off_c, 0, 79, 69
1, 28200, Note_off_c, 0, 67, 63
1, 28206, Note_off_c, 0, 51, 62
1, 28212, Note_off_c, 0, 63, 64
1, 28270, Note_on_c, 0, 64, 81
1, 28277, Note_on_c, 0, 66, 90
1, 28279, Note_on_c, 0, 52, 75
1, 28280, Note_on_c, 0, 78, 90
1, 28292, Note_off_c, 0, 64, 69
1, 28304, Note_off_c, 0, 52, 70
1, 28314, Note_off_c, 0, 66, 59
1, 28316, Note_off_c, 0, 78, 62
1, 28367, Note_on_c, 0, 63, 84
1, 28374, Note_on_c, 0, 51, 80
1, 28383, Note_on_c, 0, 67, 76
1, 28386, Note_on_c, 0, 79, 76
1, 28389, Note_off_c, 0, 63, 66
1, 28401, Note_off_c, 0, 67, 71
1, 28402, Note_off_c, 0, 51, 67
1, 28402, Note_off_c, 0, 79, 69
1, 28479, Control_c, 0, 64, 66
1, 28495, Control_c, 0, 64, 47
1, 28498, Note_on_c, 0, 64, 76
1, 28506, Note_on_c, 0, 52, 68
1, 28509, Control_c, 0, 64, 0
1, 28517, Note_on_c, 0, 66, 69
1, 28517, Note_on_c, 0, 78, 73
1, 28539, Note_off_c, 0, 52, 66
1, 28539, Note_off_c, 0, 64, 61
1, 28539, Control_c, 0, 64, 35
1, 28549, Note_off_c, 0, 66, 64
1, 28554, Control_c, 0, 64, 56
1, 28558, Note_off_c, 0, 78, 66
1, 28568, Control_c, 0, 64, 127
1, 28622, Note_on_c, 0, 63, 72
1, 28630, Note_on_c, 0, 67, 59
1, 28634, Note_on_c, 0, 51, 68
1, 28641, Note_on_c, 0, 79, 56
1, 28647, Note_off_c, 0, 63, 70
1, 28650, Note_off_c, 0, 67, 62
1, 28663, Note_off_c, 0, 51, 66
1, 28663, Note_off_c, 0, 79, 60
1, 28715, Note_on_c, 0, 68, 76
1, 28715, Note_on_c, 0, 62, 65
1, 28720, Note_on_c, 0, 80, 76
1, 28721, Note_on_c, 0, 50, 50
1, 28739, Note_off_c, 0, 62, 67
1, 28739, Note_off_c, 0, 68, 66
1, 28739, Note_off_c, 0, 80, 71
1, 28747, Note_off_c, 0, 50, 55
1, 28809, Note_on_c, 0, 63, 81
1, 28814, Note_on_c, 0, 67, 72
1, 28814, Note_on_c, 0, 51, 74
1, 28826, Note_on_c, 0, 79, 49
1, 28829, Note_off_c, 0, 63, 73
1, 28835, Note_off_c, 0, 67, 70
1, 28843, Note_off_c, 0, 51, 68
1, 28850, Note_off_c, 0, 79, 57
1, 28899, Note_on_c, 0, 62, 71
1, 28904, Note_on_c, 0, 68, 77
1, 28906, Note_on_c, 0, 80, 80
1, 28912, Note_on_c, 0, 50, 57
1, 28929, Note_off_c, 0, 62, 70
1, 28930, Note_off_c, 0, 68, 71
1, 28932, Note_off_c, 0, 80, 70
1, 28939, Note_off_c, 0, 50, 63
1, 28999, Note_on_c, 0, 61, 82
1, 29003, Note_on_c, 0, 69, 75
1, 29004, Note_on_c, 0, 81, 80
1, 29007, Note_on_c, 0, 49, 80
1, 29024, Note_off_c, 0, 69, 71
1, 29025, Note_off_c, 0, 81, 69
1, 29036, Note_off_c, 0, 49, 68
1, 29037, Note_off_c, 0, 61, 63
1, 29100, Note_on_c, 0, 62, 78
1, 29100, Note_on_c, 0, 68, 83
1, 29101, Note_on_c, 0, 80, 85
1, 29109, Note_on_c, 0, 50, 63
1, 29119, Note_off_c, 0, 62, 72
1, 29129, Note_off_c, 0, 50, 67
1, 29130, Note_off_c, 0, 80, 62
1, 29133, Note_off_c, 0, 68, 56
1, 29186, Note_on_c, 0, 61, 89
1, 29193, Note_on_c, 0, 49, 88
1, 29194, Note_on_c, 0, 69, 86
1, 29198, Note_on_c, 0, 81, 85
1, 29213, Note_off_c, 0, 69, 70
1, 29217, Note_off_c, 0, 81, 70
1, 29220, Note_off_c, 0, 61, 64
1, 29232, Note_off_c, 0, 49, 66
1, 29274, Poly_aftertouch_c, 0, 51, 0
1, 29281, Note_on_c, 0, 70, 87
1, 29284, Note_on_c, 0, 60, 88
1, 29285, Note_on_c, 0, 82, 88
1, 29290, Note_on_c, 0, 48, 79
1, 29296, Poly_aftertouch_c, 0, 51, 0
1, 29309, Note_off_c, 0, 60, 67
1, 29314, Note_off_c, 0, 70, 56
1, 29317, Note_off_c, 0, 48, 68
1, 29324, Note_off_c, 0, 82, 65
1, 29377, Note_on_c, 0, 69, 93
1, 29381, Note_on_c, 0, 61, 95
1, 29382, Note_on_c, 0, 81, 95
1, 29388, Note_on_c, 0, 49, 86
1, 29407, Note_off_c, 0, 81, 65
1, 29411, Note_off_c, 0, 69, 61
1, 29416, Note_off_c, 0, 49, 61
1, 29422, Note_off_c, 0, 61, 65
1, 29475, Note_on_c, 0, 60, 90
1, 29477, Note_on_c, 0, 70, 90
1, 29478, Note_on_c, 0, 82, 95
1, 29481, Note_on_c, 0, 48, 83
1, 29495, Note_off_c, 0, 60, 68
1, 29507, Note_off_c, 0, 48, 69
1, 29512, Note_off_c, 0, 82, 70
1, 29514, Note_off_c, 0, 70, 65
1, 29568, Note_on_c, 0, 59, 93
1, 29573, Note_on_c, 0, 47, 88
1, 29574, Note_on_c, 0, 71, 96
1, 29577, Note_on_c, 0, 83, 90
1, 29595, Note_off_c, 0, 47, 72
1, 29595, Note_off_c, 0, 59, 61
1, 29606, Note_off_c, 0, 71, 70
1, 29611, Note_off_c, 0, 83, 68
1, 29618, Note_on_c, 0, 57, 19
1, 29643, Control_c, 0, 64, 103
1, 29656, Note_off_c, 0, 57, 54
1, 29658, Control_c, 0, 64, 61
1, 29680, Control_c, 0, 64, 29
1, 29693, Note_on_c, 0, 60, 89
1, 29695, Control_c, 0, 64, 0
1, 29696, Note_on_c, 0, 70, 101
1, 29696, Note_on_c, 0, 82, 95
1, 29699, Note_on_c, 0, 48, 81
1, 29710, Control_c, 0, 64, 11
1, 29724, Control_c, 0, 64, 45
1, 29739, Control_c, 0, 64, 69
1, 29743, Note_off_c, 0, 60, 64
1, 29746, Note_off_c, 0, 70, 60
1, 29746, Note_off_c, 0, 48, 62
1, 29753, Note_off_c, 0, 82, 61
1, 29754, Control_c, 0, 64, 127
1, 29830, Note_on_c, 0, 71, 71
1, 29830, Note_on_c, 0, 59, 79
1, 29830, Note_on_c, 0, 83, 75
1, 29836, Note_on_c, 0, 47, 78
1, 29851, Note_off_c, 0, 59, 68
1, 29851, Note_off_c, 0, 71, 69
1, 29853, Note_off_c, 0, 83, 72
1, 29862, Note_off_c, 0, 47, 67
1, 29924, Note_on_c, 0, 58, 78
1, 29928, Note_on_c, 0, 72, 73
1, 29931, Note_on_c, 0, 46, 77
1, 29931, Note_on_c, 0, 84, 73
1, 29944, Note_off_c, 0, 58, 68
1, 29946, Note_off_c, 0, 72, 68
1, 29955, Note_off_c, 0, 84, 68
1, 29970, Note_off_c, 0, 46, 61
1, 30017, Note_on_c, 0, 85, 85
1, 30021, Note_on_c, 0, 73, 72
1, 30023, Note_on_c, 0, 45, 75
1, 30023, Note_on_c, 0, 57, 72
1, 30035, Note_off_c, 0, 85, 73
1, 30042, Note_off_c, 0, 73, 69
1, 30047, Note_off_c, 0, 57, 66
1, 30060, Note_off_c, 0, 45, 62
1, 30110, Note_on_c, 0, 74, 80
1, 30114, Note_on_c, 0, 56, 84
1, 30116, Note_on_c, 0, 86, 78
1, 30125, Note_on_c, 0, 44, 67
1, 30128, Note_off_c, 0, 74, 75
1, 30137, Note_off_c, 0, 86, 70
1, 30140, Note_off_c, 0, 56, 69
1, 30157, Note_off_c, 0, 44, 63
1, 30206, Note_on_c, 0, 75, 85
1, 30206, Note_on_c, 0, 87, 90
1, 30208, Note_on_c, 0, 55, 77
1, 30209, Note_on_c, 0, 43, 80
1, 30230, Note_off_c, 0, 55, 71
1, 30232, Note_off_c, 0, 75, 62
1, 30245, Note_off_c, 0, 43, 62
1, 30245, Note_off_c, 0, 87, 63
1, 30298, Note_on_c, 0, 54, 99
1, 30299, Note_on_c, 0, 76, 98
1, 30303, Note_on_c, 0, 88, 91
1, 30311, Note_on_c, 0, 42, 78
1, 30331, Note_off_c, 0, 76, 64
1, 30339, Note_off_c, 0, 88, 64
1, 30346, Note_off_c, 0, 54, 63
1, 30346, Note_off_c, 0, 42, 60
1, 30400, Note_on_c, 0, 53, 91
1, 30402, Note_on_c, 0, 77, 102
1, 30405, Note_on_c, 0, 41, 83
1, 30405, Note_on_c, 0, 89, 95
1, 30442, Note_off_c, 0, 77, 68
1, 30446, Note_off_c, 0, 53, 64
1, 30446, Note_off_c, 0, 89, 69
1, 30455, Note_off_c, 0, 41, 62
1, 30510, Note_on_c, 0, 78, 104
1, 30511, Note_on_c, 0, 90, 101
1, 30512, Note_on_c, 0, 52, 98
1, 30519, Note_on_c, 0, 40, 89
1, 30548, Note_off_c, 0, 78, 67
1, 30550, Note_off_c, 0, 52, 69
1, 30554, Note_off_c, 0, 90, 66
1, 30569, Note_off_c, 0, 40, 62
1, 30622, Note_on_c, 0, 79, 106
1, 30622, Note_on_c, 0, 91, 109
1, 30629, Note_on_c, 0, 51, 98
1, 30635, Note_on_c, 0, 39, 86
1, 30656, Note_off_c, 0, 79, 66
1, 30658, Note_off_c, 0, 91, 65
1, 30671, Note_off_c, 0, 51, 66
1, 30687, Note_off_c, 0, 39, 64
1, 30743, Note_on_c, 0, 80, 112
1, 30745, Note_on_c, 0, 92, 106
1, 30749, Note_on_c, 0, 50, 96
1, 30754, Note_on_c, 0, 38, 94
1, 30783, Note_off_c, 0, 50, 68
1, 30784, Note_off_c, 0, 80, 66
1, 30789, Note_off_c, 0, 38, 64
1, 30804, Note_off_c, 0, 92, 63
1, 30883, Note_on_c, 0, 82, 115
1, 30884, Note_on_c, 0, 49, 106
1, 30888, Note_on_c, 0, 94, 107
1, 30891, Note_on_c, 0, 37, 89
1, 30936, Note_off_c, 0, 49, 61
1, 30938, Note_off_c, 0, 82, 59
1, 30945, Note_off_c, 0, 37, 54
1, 30975, Note_off_c, 0, 94, 63
1, 31082, Control_c, 0, 64, 60
1, 31097, Control_c, 0, 64, 0
1, 31103, Note_on_c, 0, 86, 72
1, 31109, Note_on_c, 0, 83, 101
1, 31111, Note_on_c, 0, 44, 90
1, 31111, Note_on_c, 0, 95, 108
1, 31112, Note_on_c, 0, 47, 101
1, 31113, Note_on_c, 0, 92, 103
1, 31114, Note_on_c, 0, 89, 90
1, 31115, Note_on_c, 0, 35, 86
1, 31117, Note_on_c, 0, 41, 76
1, 31122, Note_on_c, 0, 38, 75
1, 31159, Note_on_c, 0, 36, 29
1, 31160, Note_off_c, 0, 36, 127
1, 31160, Note_on_c, 0, 90, 16
1, 31161, Note_off_c, 0, 90, 127
1, 31177, Control_c, 0, 64, 48
1, 31192, Control_c, 0, 64, 127
1, 31222, Note_off_c, 0, 35, 63
1, 31263, Note_off_c, 0, 38, 62
1, 31280, Note_off_c, 0, 41, 62
1, 31283, Note_off_c, 0, 47, 61
1, 31295, Note_off_c, 0, 83, 41
1, 31305, Note_off_c, 0, 44, 61
1, 31307, Note_off_c, 0, 95, 51
1, 31379, Note_off_c, 0, 92, 35
1, 31382, Note_off_c, 0, 86, 56
1, 31386, Note_off_c, 0, 89, 56
1, 31540, Note_on_c, 0, 80, 93
1, 31543, Note_on_c, 0, 95, 109
1, 31544, Note_on_c, 0, 83, 105
1, 31548, Note_on_c, 0, 68, 79
1, 31553, Note_on_c, 0, 78, 82
1, 31567, Note_on_c, 0, 67, 64
1, 31568, Note_off_c, 0, 78, 68
1, 31587, Note_off_c, 0, 67, 64
1, 31601, Note_off_c, 0, 68, 39
1, 31603, Note_off_c, 0, 80, 56
1, 31663, Note_off_c, 0, 83, 62
1, 31682, Note_off_c, 0, 95, 61
1, 31817, Note_on_c, 0, 84, 105
1, 31817, Note_on_c, 0, 96, 106
1, 31820, Note_on_c, 0, 79, 95
1, 31824, Note_on_c, 0, 67, 89
1, 31897, Note_off_c, 0, 67, 60
1, 31899, Note_off_c, 0, 84, 57
1, 31917, Note_off_c, 0, 79, 56
1, 31926, Note_off_c, 0, 96, 54
1, 32027, Note_on_c, 0, 78, 94
1, 32028, Note_on_c, 0, 85, 94
1, 32032, Note_on_c, 0, 97, 102
1, 32036, Note_on_c, 0, 66, 87
1, 32054, Note_on_c, 0, 94, 53
1, 32055, Note_off_c, 0, 94, 127
1, 32072, Note_off_c, 0, 85, 65
1, 32073, Note_off_c, 0, 78, 65
1, 32080, Note_off_c, 0, 97, 67
1, 32085, Note_off_c, 0, 66, 58
1, 32161, Note_on_c, 0, 77, 86
1, 32164, Note_on_c, 0, 98, 95
1, 32164, Note_on_c, 0, 86, 93
1, 32165, Note_on_c, 0, 65, 69
1, 32183, Note_off_c, 0, 65, 68
1, 32186, Note_off_c, 0, 77, 65
1, 32200, Note_off_c, 0, 86, 62
1, 32200, Note_off_c, 0, 98, 66
1, 32280, Note_on_c, 0, 80, 92
1, 32282, Note_on_c, 0, 68, 85
1, 32289, Note_on_c, 0, 83, 88
1, 32289, Note_on_c, 0, 95, 93
1, 32304, Note_off_c, 0, 80, 63
1, 32310, Note_off_c, 0, 95, 67
1, 32312, Note_off_c, 0, 83, 67
1, 32315, Note_off_c, 0, 68, 57
1, 32394, Note_on_c, 0, 92, 93
1, 32396, Note_on_c, 0, 80, 91
1, 32398, Note_on_c, 0, 77, 80
1, 32405, Note_on_c, 0, 65, 77
1, 32417, Note_off_c, 0, 77, 71
1, 32431, Note_off_c, 0, 65, 69
1, 32433, Note_off_c, 0, 92, 68
1, 32435, Note_off_c, 0, 80, 58
1, 32509, Note_on_c, 0, 74, 81
1, 32510, Note_on_c, 0, 77, 89
1, 32510, Note_on_c, 0, 89, 83
1, 32515, Note_on_c, 0, 62, 73
1, 32527, Note_off_c, 0, 74, 75
1, 32534, Note_off_c, 0, 77, 64
1, 32536, Note_off_c, 0, 62, 68
1, 32542, Note_off_c, 0, 89, 62
1, 32605, Note_on_c, 0, 78, 90
1, 32608, Note_on_c, 0, 90, 92
1, 32609, Note_on_c, 0, 73, 79
1, 32611, Note_on_c, 0, 61, 79
1, 32628, Note_off_c, 0, 73, 71
1, 32634, Note_off_c, 0, 61, 69
1, 32640, Note_off_c, 0, 78, 62
1, 32649, Note_off_c, 0, 90, 66
1, 32706, Note_on_c, 0, 72, 76
1, 32712, Note_on_c, 0, 79, 91
1, 32713, Note_on_c, 0, 60, 70
1, 32715, Note_on_c, 0, 91, 88
1, 32728, Note_off_c, 0, 72, 67
1, 32730, Note_off_c, 0, 60, 67
1, 32733, Note_off_c, 0, 79, 68
1, 32736, Note_off_c, 0, 91, 65
1, 32795, Note_on_c, 0, 71, 75
1, 32796, Note_on_c, 0, 80, 95
1, 32797, Note_on_c, 0, 59, 71
1, 32799, Note_on_c, 0, 92, 97
1, 32811, Note_off_c, 0, 71, 73
1, 32816, Note_off_c, 0, 59, 63
1, 32834, Note_off_c, 0, 92, 69
1, 32835, Note_off_c, 0, 80, 64
1, 32885, Note_on_c, 0, 74, 86
1, 32894, Note_on_c, 0, 62, 76
1, 32894, Note_on_c, 0, 77, 94
1, 32897, Note_on_c, 0, 89, 86
1, 32904, Note_off_c, 0, 74, 72
1, 32913, Note_on_c, 0, 91, 58
1, 32913, Note_off_c, 0, 62, 69
1, 32915, Note_off_c, 0, 77, 67
1, 32916, Note_on_c, 0, 79, 60
1, 32924, Note_off_c, 0, 89, 64
1, 32937, Note_off_c, 0, 91, 39
1, 32939, Note_off_c, 0, 79, 63
1, 32987, Control_c, 0, 64, 95
1, 32997, Note_on_c, 0, 71, 86
1, 32998, Note_on_c, 0, 74, 93
1, 33001, Note_on_c, 0, 59, 85
1, 33002, Control_c, 0, 64, 76
1, 33003, Note_on_c, 0, 86, 84
1, 33014, Note_off_c, 0, 71, 75
1, 33016, Control_c, 0, 64, 79
1, 33020, Note_off_c, 0, 59, 69
1, 33023, Note_off_c, 0, 86, 68
1, 33025, Note_off_c, 0, 74, 67
1, 33031, Control_c, 0, 64, 127
1, 33100, Note_on_c, 0, 68, 83
1, 33108, Note_on_c, 0, 71, 73
1, 33108, Note_on_c, 0, 83, 73
1, 33112, Note_on_c, 0, 56, 68
1, 33124, Note_off_c, 0, 68, 67
1, 33130, Note_off_c, 0, 83, 70
1, 33132, Note_off_c, 0, 71, 69
1, 33142, Note_off_c, 0, 56, 64
1, 33188, Note_on_c, 0, 71, 61
1, 33200, Note_on_c, 0, 67, 76
1, 33203, Note_off_c, 0, 71, 71
1, 33204, Note_on_c, 0, 84, 60
1, 33207, Note_on_c, 0, 55, 75
1, 33208, Note_on_c, 0, 72, 48
1, 33209, Note_on_c, 0, 83, 44
1, 33222, Note_off_c, 0, 67, 70
1, 33223, Note_off_c, 0, 84, 63
1, 33233, Note_off_c, 0, 55, 68
1, 33234, Note_off_c, 0, 72, 58
1, 33239, Note_off_c, 0, 83, 57
1, 33283, Note_on_c, 0, 73, 84
1, 33285, Note_on_c, 0, 85, 85
1, 33293, Note_on_c, 0, 66, 78
1, 33297, Note_on_c, 0, 54, 73
1, 33316, Note_off_c, 0, 66, 69
1, 33317, Note_off_c, 0, 73, 57
1, 33325, Note_off_c, 0, 85, 62
1, 33327, Note_off_c, 0, 54, 64
1, 33377, Note_on_c, 0, 53, 81
1, 33377, Note_on_c, 0, 65, 79
1, 33393, Note_on_c, 0, 86, 62
1, 33395, Note_on_c, 0, 74, 56
1, 33402, Note_off_c, 0, 65, 70
1, 33403, Note_off_c, 0, 53, 68
1, 33404, Note_on_c, 0, 72, 50
1, 33404, Note_on_c, 0, 84, 59
1, 33420, Note_off_c, 0, 86, 62
1, 33422, Note_off_c, 0, 74, 66
1, 33429, Note_off_c, 0, 84, 65
1, 33436, Note_off_c, 0, 72, 60
1, 33486, Note_on_c, 0, 68, 79
1, 33488, Note_on_c, 0, 56, 75
1, 33488, Note_on_c, 0, 71, 77
1, 33488, Note_on_c, 0, 83, 79
1, 33500, Note_off_c, 0, 68, 71
1, 33502, Note_off_c, 0, 83, 74
1, 33506, Note_off_c, 0, 71, 75
1, 33514, Note_off_c, 0, 56, 68
1, 33528, Control_c, 0, 64, 96
1, 33543, Control_c, 0, 64, 74
1, 33558, Control_c, 0, 64, 73
1, 33572, Control_c, 0, 64, 94
1, 33587, Control_c, 0, 64, 127
1, 33589, Note_on_c, 0, 67, 92
1, 33589, Note_on_c, 0, 62, 71
1, 33592, Note_on_c, 0, 50, 78
1, 33603, Note_on_c, 0, 79, 66
1, 33607, Note_off_c, 0, 62, 68
1, 33608, Note_off_c, 0, 67, 69
1, 33616, Note_off_c, 0, 50, 69
1, 33621, Note_off_c, 0, 79, 65
1, 33684, Note_on_c, 0, 80, 93
1, 33685, Note_on_c, 0, 68, 89
1, 33690, Note_on_c, 0, 59, 81
1, 33693, Note_on_c, 0, 47, 82
1, 33712, Note_off_c, 0, 59, 66
1, 33713, Note_off_c, 0, 68, 53
1, 33717, Note_off_c, 0, 47, 70
1, 33726, Note_off_c, 0, 80, 62
1, 33781, Note_on_c, 0, 62, 88
1, 33782, Note_on_c, 0, 65, 98
1, 33784, Note_on_c, 0, 77, 85
1, 33801, Note_off_c, 0, 62, 72
1, 33805, Note_off_c, 0, 77, 65
1, 33810, Note_off_c, 0, 65, 66
1, 33823, Note_on_c, 0, 50, 19
1, 33860, Note_off_c, 0, 50, 43
1, 33860, Poly_aftertouch_c, 0, 48, 127
1, 33869, Control_c, 0, 64, 76
1, 33884, Control_c, 0, 64, 70
1, 33894, Note_on_c, 0, 57, 83
1, 33898, Note_on_c, 0, 61, 105
1, 33898, Control_c, 0, 64, 87
1, 33899, Note_on_c, 0, 73, 97
1, 33900, Note_on_c, 0, 45, 78
1, 33905, Poly_aftertouch_c, 0, 48, 0
1, 33913, Control_c, 0, 64, 127
1, 33915, Note_off_c, 0, 57, 69
1, 33926, Note_off_c, 0, 45, 67
1, 33935, Note_off_c, 0, 61, 66
1, 33948, Note_off_c, 0, 73, 62
1, 34004, Note_on_c, 0, 53, 89
1, 34006, Note_on_c, 0, 62, 103
1, 34009, Note_on_c, 0, 41, 80
1, 34009, Note_on_c, 0, 74, 95
1, 34029, Note_off_c, 0, 53, 69
1, 34032, Note_off_c, 0, 41, 67
1, 34041, Note_off_c, 0, 62, 66
1, 34048, Note_off_c, 0, 74, 62
1, 34125, Note_on_c, 0, 59, 101
1, 34129, Note_on_c, 0, 71, 94
1, 34131, Note_on_c, 0, 56, 81
1, 34133, Note_on_c, 0, 44, 79
1, 34136, Note_on_c, 0, 54, 75
1, 34138, Note_on_c, 0, 60, 69
1, 34148, Note_off_c, 0, 56, 69
1, 34155, Note_off_c, 0, 71, 61
1, 34155, Note_on_c, 0, 43, 57
1, 34155, Note_off_c, 0, 60, 40
1, 34156, Note_off_c, 0, 54, 64
1, 34170, Note_on_c, 0, 70, 46
1, 34171, Note_off_c, 0, 59, 65
1, 34177, Note_off_c, 0, 44, 52
1, 34191, Note_off_c, 0, 43, 55
1, 34197, Note_off_c, 0, 70, 56
1, 34343, Note_on_c, 0, 42, 110
1, 34346, Note_on_c, 0, 30, 101
1, 34351, Control_c, 0, 64, 78
1, 34366, Control_c, 0, 64, 53
1, 34381, Control_c, 0, 64, 0
1, 34513, Control_c, 0, 64, 9
1, 34528, Control_c, 0, 64, 40
1, 34543, Control_c, 0, 64, 61
1, 34558, Control_c, 0, 64, 127
1, 34565, Note_on_c, 0, 54, 79
1, 34573, Note_on_c, 0, 66, 76
1, 34592, Note_off_c, 0, 54, 67
1, 34600, Note_off_c, 0, 30, 61
1, 34605, Note_off_c, 0, 42, 60
1, 34608, Note_off_c, 0, 66, 54
1, 34723, Note_on_c, 0, 46, 69
1, 34727, Note_on_c, 0, 58, 73
1, 34729, Note_on_c, 0, 34, 58
1, 34731, Note_on_c, 0, 70, 68
1, 34751, Note_off_c, 0, 70, 67
1, 34753, Note_off_c, 0, 46, 66
1, 34756, Note_off_c, 0, 58, 66
1, 34758, Note_off_c, 0, 34, 55
1, 34836, Note_on_c, 0, 61, 74
1, 34837, Note_on_c, 0, 49, 72
1, 34840, Note_on_c, 0, 73, 70
1, 34850, Note_on_c, 0, 37, 55
1, 34853, Note_off_c, 0, 61, 70
1, 34859, Note_off_c, 0, 73, 69
1, 34861, Note_off_c, 0, 49, 65
1, 34875, Note_off_c, 0, 37, 60
1, 34951, Note_on_c, 0, 70, 75
1, 34954, Note_on_c, 0, 58, 74
1, 34957, Note_on_c, 0, 46, 62
1, 34960, Note_on_c, 0, 34, 69
1, 34978, Note_off_c, 0, 58, 69
1, 34978, Note_off_c, 0, 70, 59
1, 34987, Note_off_c, 0, 46, 66
1, 34995, Note_off_c, 0, 34, 64
1, 35053, Note_on_c, 0, 74, 78
1, 35056, Note_on_c, 0, 50, 72
1, 35071, Note_off_c, 0, 74, 73
1, 35074, Note_off_c, 0, 50, 67
1, 35076, Note_on_c, 0, 38, 46
1, 35112, Note_off_c, 0, 38, 49
1, 35116, Poly_aftertouch_c, 0, 62, 127
1, 35147, Note_on_c, 0, 46, 78
1, 35156, Note_on_c, 0, 34, 74
1, 35156, Poly_aftertouch_c, 0, 62, 0
1, 35164, Note_on_c, 0, 58, 72
1, 35168, Note_on_c, 0, 70, 63
1, 35176, Note_off_c, 0, 46, 65
1, 35187, Note_on_c, 0, 37, 13
1, 35190, Note_off_c, 0, 58, 65
1, 35192, Note_off_c, 0, 34, 64
1, 35192, Note_off_c, 0, 70, 57
1, 35237, Note_on_c, 0, 47, 76
1, 35241, Note_off_c, 0, 37, 45
1, 35244, Note_on_c, 0, 35, 62
1, 35245, Note_on_c, 0, 59, 84
1, 35247, Note_on_c, 0, 71, 69
1, 35261, Note_off_c, 0, 47, 68
1, 35264, Note_off_c, 0, 59, 69
1, 35270, Note_off_c, 0, 71, 71
1, 35272, Note_off_c, 0, 35, 57
1, 35336, Note_on_c, 0, 50, 77
1, 35342, Note_on_c, 0, 64, 86
1, 35354, Note_on_c, 0, 76, 68
1, 35360, Note_off_c, 0, 50, 70
1, 35361, Note_off_c, 0, 64, 72
1, 35363, Note_on_c, 0, 40, 38
1, 35370, Note_off_c, 0, 76, 69
1, 35372, Note_on_c, 0, 74, 40
1, 35398, Note_off_c, 0, 40, 50
1, 35401, Note_off_c, 0, 74, 58
1, 35430, Note_on_c, 0, 49, 84
1, 35433, Note_on_c, 0, 37, 83
1, 35437, Note_on_c, 0, 61, 90
1, 35442, Note_on_c, 0, 73, 84
1, 35452, Note_off_c, 0, 49, 71
1, 35464, Note_off_c, 0, 61, 57
1, 35467, Note_off_c, 0, 37, 60
1, 35477, Note_on_c, 0, 39, 4
1, 35485, Note_off_c, 0, 73, 61
1, 35511, Note_off_c, 0, 39, 0
1, 35518, Note_on_c, 0, 50, 76
1, 35521, Note_on_c, 0, 38, 73
1, 35525, Note_on_c, 0, 62, 89
1, 35527, Note_on_c, 0, 74, 82
1, 35530, Poly_aftertouch_c, 0, 39, 0
1, 35541, Note_off_c, 0, 50, 67
1, 35544, Note_off_c, 0, 62, 72
1, 35547, Note_off_c, 0, 38, 66
1, 35551, Note_off_c, 0, 74, 67
1, 35613, Note_on_c, 0, 55, 84
1, 35626, Note_on_c, 0, 67, 84
1, 35629, Note_on_c, 0, 79, 86
1, 35634, Note_off_c, 0, 55, 73
1, 35646, Note_off_c, 0, 67, 72
1, 35647, Note_off_c, 0, 79, 70
1, 35653, Note_on_c, 0, 43, 19
1, 35701, Control_c, 0, 64, 63
1, 35702, Poly_aftertouch_c, 0, 45, 127
1, 35705, Note_off_c, 0, 43, 53
1, 35715, Control_c, 0, 64, 36
1, 35727, Note_on_c, 0, 53, 78
1, 35730, Control_c, 0, 64, 34
1, 35733, Note_on_c, 0, 77, 90
1, 35734, Poly_aftertouch_c, 0, 45, 0
1, 35737, Note_on_c, 0, 41, 63
1, 35740, Note_on_c, 0, 65, 64
1, 35745, Control_c, 0, 64, 56
1, 35750, Note_on_c, 0, 64, 56
1, 35753, Note_off_c, 0, 53, 70
1, 35756, Note_off_c, 0, 77, 66
1, 35759, Note_off_c, 0, 65, 68
1, 35759, Control_c, 0, 64, 107
1, 35763, Note_off_c, 0, 41, 58
1, 35774, Control_c, 0, 64, 127
1, 35775, Note_off_c, 0, 64, 59
1, 35822, Note_on_c, 0, 54, 89
1, 35828, Note_on_c, 0, 42, 74
1, 35828, Note_on_c, 0, 66, 81
1, 35834, Note_on_c, 0, 78, 78
1, 35842, Note_off_c, 0, 54, 71
1, 35844, Note_off_c, 0, 66, 69
1, 35846, Note_off_c, 0, 42, 65
1, 35849, Note_off_c, 0, 78, 71
1, 35912, Note_on_c, 0, 58, 87
1, 35914, Note_on_c, 0, 70, 84
1, 35933, Note_on_c, 0, 82, 58
1, 35933, Note_off_c, 0, 58, 69
1, 35934, Note_off_c, 0, 70, 70
1, 35935, Note_on_c, 0, 46, 49
1, 35953, Note_off_c, 0, 82, 65
1, 35963, Note_off_c, 0, 46, 56
1, 36013, Note_on_c, 0, 61, 86
1, 36016, Note_on_c, 0, 73, 90
1, 36021, Note_on_c, 0, 49, 67
1, 36024, Note_on_c, 0, 85, 77
1, 36032, Note_off_c, 0, 73, 75
1, 36032, Note_off_c, 0, 61, 74
1, 36036, Note_off_c, 0, 85, 71
1, 36047, Note_off_c, 0, 49, 65
1, 36106, Note_on_c, 0, 46, 78
1, 36106, Note_on_c, 0, 58, 81
1, 36110, Note_on_c, 0, 70, 93
1, 36115, Note_on_c, 0, 82, 86
1, 36122, Note_on_c, 0, 49, 59
1, 36123, Note_off_c, 0, 49, 127
1, 36127, Note_off_c, 0, 70, 68
1, 36130, Note_off_c, 0, 58, 67
1, 36132, Note_off_c, 0, 46, 68
1, 36144, Note_on_c, 0, 80, 41
1, 36154, Note_off_c, 0, 82, 63
1, 36170, Note_off_c, 0, 80, 58
1, 36189, Control_c, 0, 64, 93
1, 36194, Note_on_c, 0, 62, 96
1, 36200, Note_on_c, 0, 50, 74
1, 36203, Note_on_c, 0, 74, 96
1, 36203, Control_c, 0, 64, 81
1, 36207, Note_on_c, 0, 86, 91
1, 36215, Note_off_c, 0, 62, 69
1, 36218, Control_c, 0, 64, 88
1, 36228, Note_off_c, 0, 50, 68
1, 36228, Note_off_c, 0, 86, 66
1, 36230, Note_off_c, 0, 74, 68
1, 36232, Control_c, 0, 64, 127
1, 36287, Poly_aftertouch_c, 0, 54, 0
1, 36299, Note_on_c, 0, 46, 95
1, 36301, Note_on_c, 0, 58, 82
1, 36301, Note_on_c, 0, 70, 97
1, 36302, Note_on_c, 0, 82, 96
1, 36324, Note_on_c, 0, 56, 52
1, 36325, Note_off_c, 0, 58, 66
1, 36331, Note_off_c, 0, 46, 56
1, 36332, Note_on_c, 0, 49, 36
1, 36333, Note_off_c, 0, 49, 127
1, 36340, Note_off_c, 0, 70, 56
1, 36345, Note_off_c, 0, 82, 63
1, 36350, Note_off_c, 0, 56, 60
1, 36356, Poly_aftertouch_c, 0, 49, 0
1, 36385, Note_on_c, 0, 60, 91
1, 36394, Note_on_c, 0, 48, 71
1, 36398, Note_on_c, 0, 83, 85
1, 36413, Note_on_c, 0, 71, 64
1, 36413, Note_off_c, 0, 60, 72
1, 36423, Note_off_c, 0, 83, 74
1, 36426, Note_off_c, 0, 48, 67
1, 36430, Note_off_c, 0, 71, 69
1, 36437, Note_on_c, 0, 72, 33
1, 36441, Note_on_c, 0, 59, 21
1, 36471, Note_off_c, 0, 72, 53
1, 36489, Note_off_c, 0, 59, 47
1, 36499, Note_on_c, 0, 64, 91
1, 36502, Note_on_c, 0, 76, 96
1, 36503, Note_on_c, 0, 88, 99
1, 36507, Note_on_c, 0, 52, 80
1, 36516, Note_off_c, 0, 64, 73
1, 36522, Note_off_c, 0, 76, 70
1, 36523, Note_off_c, 0, 52, 71
1, 36529, Note_off_c, 0, 88, 64
1, 36582, Control_c, 0, 64, 68
1, 36590, Note_on_c, 0, 61, 95
1, 36594, Note_on_c, 0, 85, 101
1, 36596, Note_on_c, 0, 49, 90
1, 36597, Note_on_c, 0, 73, 95
1, 36597, Control_c, 0, 64, 61
1, 36612, Control_c, 0, 64, 66
1, 36616, Note_on_c, 0, 51, 53
1, 36617, Note_off_c, 0, 51, 127
1, 36623, Note_off_c, 0, 49, 63
1, 36624, Note_off_c, 0, 73, 60
1, 36625, Note_off_c, 0, 61, 63
1, 36626, Control_c, 0, 64, 127
1, 36634, Note_off_c, 0, 85, 65
1, 36680, Note_on_c, 0, 62, 93
1, 36686, Note_on_c, 0, 50, 74
1, 36686, Note_on_c, 0, 74, 98
1, 36690, Note_on_c, 0, 86, 88
1, 36700, Note_off_c, 0, 62, 70
1, 36707, Note_off_c, 0, 74, 66
1, 36708, Note_off_c, 0, 50, 71
1, 36722, Note_off_c, 0, 86, 65
1, 36779, Note_on_c, 0, 67, 91
1, 36783, Note_on_c, 0, 91, 104
1, 36784, Note_on_c, 0, 79, 96
1, 36787, Note_on_c, 0, 55, 73
1, 36796, Note_off_c, 0, 67, 74
1, 36806, Note_off_c, 0, 55, 68
1, 36811, Note_off_c, 0, 79, 63
1, 36816, Note_off_c, 0, 91, 61
1, 36863, Control_c, 0, 64, 68
1, 36878, Control_c, 0, 64, 45
1, 36880, Note_on_c, 0, 65, 91
1, 36883, Note_on_c, 0, 77, 102
1, 36885, Note_on_c, 0, 89, 104
1, 36887, Note_on_c, 0, 53, 83
1, 36893, Control_c, 0, 64, 19
1, 36903, Note_off_c, 0, 65, 70
1, 36907, Control_c, 0, 64, 41
1, 36913, Note_off_c, 0, 53, 68
1, 36913, Note_off_c, 0, 77, 67
1, 36921, Note_off_c, 0, 89, 68
1, 36922, Control_c, 0, 64, 66
1, 36937, Control_c, 0, 64, 127
1, 36987, Note_on_c, 0, 66, 101
1, 36989, Note_on_c, 0, 78, 96
1, 36991, Note_on_c, 0, 90, 102
1, 36994, Note_on_c, 0, 54, 91
1, 37008, Note_off_c, 0, 66, 67
1, 37017, Note_off_c, 0, 54, 71
1, 37018, Note_off_c, 0, 78, 61
1, 37020, Note_on_c, 0, 80, 43
1, 37024, Note_off_c, 0, 90, 64
1, 37028, Note_on_c, 0, 91, 42
1, 37029, Note_off_c, 0, 91, 127
1, 37047, Note_off_c, 0, 80, 59
1, 37094, Note_on_c, 0, 82, 104
1, 37096, Note_on_c, 0, 70, 92
1, 37096, Note_on_c, 0, 94, 102
1, 37103, Note_on_c, 0, 58, 77
1, 37115, Note_off_c, 0, 70, 67
1, 37120, Note_off_c, 0, 82, 71
1, 37121, Note_off_c, 0, 58, 66
1, 37127, Note_off_c, 0, 94, 61
1, 37128, Note_on_c, 0, 95, 51
1, 37129, Note_off_c, 0, 95, 127
1, 37208, Note_on_c, 0, 85, 109
1, 37210, Note_on_c, 0, 73, 94
1, 37211, Note_on_c, 0, 97, 108
1, 37217, Note_on_c, 0, 61, 83
1, 37238, Note_off_c, 0, 85, 66
1, 37242, Note_off_c, 0, 61, 62
1, 37244, Note_off_c, 0, 97, 67
1, 37246, Note_off_c, 0, 73, 64
1, 37324, Note_on_c, 0, 82, 109
1, 37327, Note_on_c, 0, 58, 94
1, 37327, Note_on_c, 0, 70, 93
1, 37328, Note_on_c, 0, 94, 107
1, 37344, Note_on_c, 0, 68, 62
1, 37356, Note_off_c, 0, 70, 59
1, 37359, Note_off_c, 0, 82, 68
1, 37365, Note_off_c, 0, 68, 63
1, 37368, Note_off_c, 0, 58, 60
1, 37370, Note_on_c, 0, 92, 35
1, 37371, Note_off_c, 0, 92, 127
1, 37373, Note_off_c, 0, 94, 67
1, 37461, Note_on_c, 0, 86, 108
1, 37462, Note_on_c, 0, 98, 105
1, 37464, Note_on_c, 0, 74, 104
1, 37468, Note_on_c, 0, 62, 98
1, 37486, Note_on_c, 0, 97, 63
1, 37486, Note_off_c, 0, 98, 68
1, 37491, Note_off_c, 0, 74, 72
1, 37494, Note_off_c, 0, 86, 62
1, 37505, Note_off_c, 0, 62, 58
1, 37508, Note_off_c, 0, 97, 61
1, 37843, Note_on_c, 0, 59, 103
1, 37843, Note_on_c, 0, 67, 90
1, 37844, Note_on_c, 0, 71, 94
1, 37845, Note_on_c, 0, 62, 83
1, 37846, Note_on_c, 0, 41, 100
1, 37850, Note_on_c, 0, 29, 103
1, 37879, Control_c, 0, 64, 63
1, 37884, Note_on_c, 0, 30, 47
1, 37894, Control_c, 0, 64, 27
1, 37917, Control_c, 0, 64, 0
1, 37929, Note_off_c, 0, 30, 40
1, 38125, Control_c, 0, 64, 14
1, 38140, Control_c, 0, 64, 35
1, 38155, Control_c, 0, 64, 53
1, 38169, Control_c, 0, 64, 70
1, 38184, Control_c, 0, 64, 127
1, 38266, Note_off_c, 0, 71, 55
1, 38272, Note_off_c, 0, 59, 55
1, 38329, Note_off_c, 0, 62, 61
1, 38338, Note_off_c, 0, 67, 56
1, 38358, Note_off_c, 0, 41, 38
1, 38435, Note_off_c, 0, 29, 54
1, 38740, Control_c, 0, 64, 77
1, 38755, Control_c, 0, 64, 52
1, 38769, Control_c, 0, 64, 0
1, 38776, Note_on_c, 0, 60, 102
1, 38777, Note_on_c, 0, 72, 99
1, 38779, Note_on_c, 0, 40, 103
1, 38779, Note_on_c, 0, 67, 95
1, 38781, Note_on_c, 0, 28, 95
1, 38814, Control_c, 0, 64, 44
1, 38828, Control_c, 0, 64, 74
1, 38831, Note_on_c, 0, 70, 15
1, 38843, Control_c, 0, 64, 127
1, 38851, Note_off_c, 0, 60, 61
1, 38864, Note_off_c, 0, 28, 64
1, 38865, Note_off_c, 0, 72, 60
1, 38877, Note_off_c, 0, 70, 51
1, 38879, Note_off_c, 0, 40, 63
1, 38899, Note_off_c, 0, 67, 56
1, 38963, Control_c, 0, 64, 61
1, 38973, Note_on_c, 0, 63, 104
1, 38975, Note_on_c, 0, 69, 94
1, 38978, Control_c, 0, 64, 37
1, 38987, Note_on_c, 0, 41, 92
1, 38992, Note_on_c, 0, 29, 81
1, 38992, Control_c, 0, 64, 34
1, 38994, Note_on_c, 0, 40, 75
1, 39007, Control_c, 0, 64, 57
1, 39017, Note_on_c, 0, 28, 32
1, 39017, Note_off_c, 0, 40, 56
1, 39022, Control_c, 0, 64, 127
1, 39030, Note_off_c, 0, 69, 63
1, 39033, Note_off_c, 0, 41, 63
1, 39036, Note_off_c, 0, 63, 64
1, 39039, Note_off_c, 0, 29, 62
1, 39051, Note_off_c, 0, 28, 56
1, 39113, Note_on_c, 0, 58, 107
1, 39116, Note_on_c, 0, 42, 98
1, 39116, Note_on_c, 0, 70, 98
1, 39121, Note_on_c, 0, 30, 95
1, 39124, Note_on_c, 0, 62, 89
1, 39152, Note_on_c, 0, 43, 48
1, 39156, Note_off_c, 0, 30, 65
1, 39175, Note_off_c, 0, 42, 61
1, 39180, Note_off_c, 0, 62, 62
1, 39183, Note_off_c, 0, 43, 56
1, 39187, Note_off_c, 0, 70, 62
1, 39196, Note_off_c, 0, 58, 52
1, 39239, Poly_aftertouch_c, 0, 59, 0
1, 39288, Control_c, 0, 64, 83
1, 39301, Note_on_c, 0, 54, 110
1, 39303, Note_on_c, 0, 46, 105
1, 39303, Control_c, 0, 64, 52
1, 39306, Note_on_c, 0, 61, 86
1, 39306, Note_on_c, 0, 64, 80
1, 39310, Note_on_c, 0, 34, 96
1, 39310, Note_on_c, 0, 66, 85
1, 39318, Control_c, 0, 64, 0
1, 39332, Note_on_c, 0, 47, 62
1, 39359, Note_on_c, 0, 37, 12
1, 39362, Note_on_c, 0, 35, 45
1, 39363, Note_off_c, 0, 47, 38
1, 39393, Note_off_c, 0, 37, 33
1, 39493, Note_off_c, 0, 35, 41
1, 39497, Note_off_c, 0, 34, 58
1, 39504, Control_c, 0, 64, 21
1, 39518, Control_c, 0, 64, 43
1, 39533, Control_c, 0, 64, 68
1, 39548, Control_c, 0, 64, 127
1, 39552, Note_off_c, 0, 66, 54
1, 39570, Note_off_c, 0, 54, 61
1, 39584, Note_off_c, 0, 64, 57
1, 39587, Note_off_c, 0, 46, 61
1, 39597, Note_off_c, 0, 61, 57
1, 39816, Control_c, 0, 64, 97
1, 39831, Control_c, 0, 64, 82
1, 39846, Control_c, 0, 64, 76
1, 39860, Control_c, 0, 64, 72
1, 39875, Control_c, 0, 64, 68
1, 39890, Control_c, 0, 64, 64
1, 39905, Control_c, 0, 64, 60
1, 39920, Control_c, 0, 64, 53
1, 39934, Control_c, 0, 64, 46
1, 39949, Control_c, 0, 64, 40
1, 39964, Control_c, 0, 64, 37
1, 39979, Control_c, 0, 64, 34
1, 39994, Control_c, 0, 64, 30
1, 40008, Control_c, 0, 64, 27
1, 40023, Control_c, 0, 64, 24
1, 40038, Control_c, 0, 64, 19
1, 40052, Control_c, 0, 64, 14
1, 40067, Control_c, 0, 64, 0
1, 41268, Control_c, 0, 64, 16
1, 41284, Control_c, 0, 64, 21
1, 41299, Control_c, 0, 64, 26
1, 41313, Control_c, 0, 64, 31
1, 41328, Control_c, 0, 64, 35
1, 41343, Control_c, 0, 64, 42
1, 41358, Control_c, 0, 64, 50
1, 41372, Control_c, 0, 64, 56
1, 41387, Control_c, 0, 64, 61
1, 41402, Control_c, 0, 64, 63
1, 41417, Control_c, 0, 64, 64
1, 41432, Control_c, 0, 64, 66
1, 41447, Control_c, 0, 64, 71
1, 41461, Control_c, 0, 64, 77
1, 41476, Control_c, 0, 64, 84
1, 41491, Control_c, 0, 64, 93
1, 41506, Control_c, 0, 64, 110
1, 41521, Control_c, 0, 64, 127
1, 42113, Note_on_c, 0, 76, 48
1, 42144, Note_on_c, 0, 64, 31
1, 43788, Note_on_c, 0, 78, 45
1, 43807, Note_on_c, 0, 66, 34
1, 43874, Note_off_c, 0, 66, 0
1, 43874, Note_on_c, 0, 66, 3
1, 43876, Note_off_c, 0, 76, 47
1, 43908, Control_c, 0, 64, 117
1, 43910, Note_off_c, 0, 64, 31
1, 43923, Control_c, 0, 64, 105
1, 43938, Control_c, 0, 64, 98
1, 43953, Control_c, 0, 64, 92
1, 43968, Control_c, 0, 64, 87
1, 43982, Control_c, 0, 64, 82
1, 43997, Control_c, 0, 64, 79
1, 44012, Control_c, 0, 64, 75
1, 44026, Control_c, 0, 64, 72
1, 44041, Control_c, 0, 64, 68
1, 44056, Control_c, 0, 64, 64
1, 44071, Control_c, 0, 64, 61
1, 44086, Control_c, 0, 64, 56
1, 44100, Control_c, 0, 64, 48
1, 44115, Control_c, 0, 64, 37
1, 44130, Control_c, 0, 64, 21
1, 44145, Control_c, 0, 64, 11
1, 44160, Control_c, 0, 64, 11
1, 44174, Control_c, 0, 64, 12
1, 44189, Control_c, 0, 64, 17
1, 44204, Control_c, 0, 64, 24
1, 44219, Control_c, 0, 64, 32
1, 44234, Control_c, 0, 64, 40
1, 44249, Control_c, 0, 64, 50
1, 44264, Control_c, 0, 64, 61
1, 44278, Control_c, 0, 64, 73
1, 44293, Control_c, 0, 64, 92
1, 44308, Control_c, 0, 64, 115
1, 44323, Control_c, 0, 64, 127
1, 44362, Note_on_c, 0, 73, 48
1, 44389, Note_on_c, 0, 61, 35
1, 44435, Note_off_c, 0, 78, 61
1, 44480, Note_off_c, 0, 66, 41
1, 44577, Note_off_c, 0, 61, 63
1, 45160, Note_on_c, 0, 54, 28
1, 45181, Note_on_c, 0, 47, 28
1, 45181, Note_on_c, 0, 75, 40
1, 45220, Control_c, 0, 64, 98
1, 45224, Note_on_c, 0, 63, 19
1, 45235, Control_c, 0, 64, 78
1, 45249, Control_c, 0, 64, 65
1, 45265, Control_c, 0, 64, 50
1, 45277, Note_off_c, 0, 73, 41
1, 45280, Control_c, 0, 64, 24
1, 45295, Control_c, 0, 64, 0
1, 45354, Control_c, 0, 64, 17
1, 45369, Control_c, 0, 64, 35
1, 45384, Control_c, 0, 64, 50
1, 45406, Control_c, 0, 64, 63
1, 45420, Control_c, 0, 64, 82
1, 45435, Control_c, 0, 64, 122
1, 45450, Control_c, 0, 64, 127
1, 45527, Note_off_c, 0, 63, 41
1, 45614, Note_on_c, 0, 76, 58
1, 45631, Note_on_c, 0, 64, 38
1, 45688, Note_off_c, 0, 64, 59
1, 45690, Note_off_c, 0, 54, 42
1, 45715, Note_off_c, 0, 75, 34
1, 45858, Note_on_c, 0, 75, 65
1, 45884, Note_on_c, 0, 63, 41
1, 45934, Note_off_c, 0, 76, 48
1, 45986, Note_off_c, 0, 63, 47
1, 46079, Note_off_c, 0, 75, 48
1, 46083, Note_on_c, 0, 73, 62
1, 46094, Note_on_c, 0, 61, 58
1, 46184, Note_off_c, 0, 61, 56
1, 46196, Note_on_c, 0, 40, 44
1, 46231, Note_off_c, 0, 40, 48
1, 46260, Note_off_c, 0, 47, 44
1, 46358, Note_on_c, 0, 75, 72
1, 46371, Note_on_c, 0, 56, 45
1, 46377, Control_c, 0, 64, 95
1, 46392, Note_on_c, 0, 63, 44
1, 46392, Control_c, 0, 64, 70
1, 46395, Note_off_c, 0, 73, 61
1, 46407, Control_c, 0, 64, 58
1, 46421, Control_c, 0, 64, 37
1, 46436, Control_c, 0, 64, 25
1, 46449, Note_off_c, 0, 56, 0
1, 46449, Note_on_c, 0, 56, 3
1, 46451, Control_c, 0, 64, 30
1, 46466, Control_c, 0, 64, 39
1, 46481, Control_c, 0, 64, 52
1, 46495, Control_c, 0, 64, 66
1, 46510, Control_c, 0, 64, 127
1, 46553, Note_off_c, 0, 63, 58
1, 46575, Note_off_c, 0, 56, 58
1, 46590, Note_on_c, 0, 76, 78
1, 46607, Note_on_c, 0, 64, 53
1, 46651, Note_off_c, 0, 64, 57
1, 46685, Note_off_c, 0, 75, 54
1, 46687, Note_on_c, 0, 42, 48
1, 46722, Note_off_c, 0, 42, 62
1, 46759, Note_on_c, 0, 52, 48
1, 46821, Control_c, 0, 64, 92
1, 46836, Control_c, 0, 64, 70
1, 46848, Note_on_c, 0, 75, 66
1, 46851, Control_c, 0, 64, 58
1, 46864, Note_on_c, 0, 58, 43
1, 46866, Control_c, 0, 64, 38
1, 46877, Note_on_c, 0, 63, 52
1, 46881, Control_c, 0, 64, 0
1, 46931, Note_off_c, 0, 76, 52
1, 46948, Control_c, 0, 64, 9
1, 46963, Control_c, 0, 64, 26
1, 46978, Control_c, 0, 64, 41
1, 46993, Control_c, 0, 64, 59
1, 47007, Control_c, 0, 64, 74
1, 47012, Note_off_c, 0, 63, 64
1, 47022, Control_c, 0, 64, 127
1, 47064, Note_off_c, 0, 58, 61
1, 47067, Note_off_c, 0, 75, 62
1, 47122, Note_on_c, 0, 73, 67
1, 47138, Note_on_c, 0, 61, 52
1, 47217, Note_off_c, 0, 73, 59
1, 47228, Note_off_c, 0, 61, 56
1, 47348, Control_c, 0, 64, 95
1, 47363, Control_c, 0, 64, 73
1, 47376, Note_off_c, 0, 52, 32
1, 47378, Control_c, 0, 64, 61
1, 47381, Note_on_c, 0, 71, 54
1, 47385, Note_on_c, 0, 54, 39
1, 47392, Control_c, 0, 64, 45
1, 47394, Note_on_c, 0, 59, 39
1, 47407, Control_c, 0, 64, 11
1, 47422, Control_c, 0, 64, 0
1, 47466, Control_c, 0, 64, 15
1, 47481, Control_c, 0, 64, 31
1, 47485, Note_off_c, 0, 59, 29
1, 47496, Control_c, 0, 64, 45
1, 47511, Control_c, 0, 64, 59
1, 47525, Control_c, 0, 64, 74
1, 47540, Control_c, 0, 64, 107
1, 47555, Control_c, 0, 64, 127
1, 47632, Note_on_c, 0, 73, 58
1, 47674, Note_off_c, 0, 71, 60
1, 47674, Note_on_c, 0, 61, 24
1, 47728, Note_off_c, 0, 61, 47
1, 47919, Control_c, 0, 64, 99
1, 47934, Control_c, 0, 64, 79
1, 47948, Control_c, 0, 64, 64
1, 47960, Note_on_c, 0, 75, 44
1, 47963, Control_c, 0, 64, 52
1, 47967, Note_on_c, 0, 47, 33
1, 47974, Note_off_c, 0, 73, 33
1, 47978, Control_c, 0, 64, 29
1, 47988, Note_on_c, 0, 63, 29
1, 47993, Control_c, 0, 64, 0
1, 48019, Note_off_c, 0, 75, 0
1, 48019, Note_on_c, 0, 75, 3
1, 48037, Control_c, 0, 64, 18
1, 48052, Control_c, 0, 64, 31
1, 48067, Control_c, 0, 64, 44
1, 48082, Control_c, 0, 64, 59
1, 48096, Note_off_c, 0, 75, 55
1, 48097, Control_c, 0, 64, 75
1, 48112, Control_c, 0, 64, 117
1, 48127, Control_c, 0, 64, 127
1, 48145, Note_off_c, 0, 63, 45
1, 48207, Note_off_c, 0, 47, 45
1, 48234, Note_off_c, 0, 54, 41
1, 48297, Note_on_c, 0, 71, 47
1, 48339, Poly_aftertouch_c, 0, 59, 127
1, 48377, Poly_aftertouch_c, 0, 59, 0
1, 48413, Note_off_c, 0, 71, 49
1, 48654, Control_c, 0, 64, 107
1, 48668, Note_on_c, 0, 75, 50
1, 48669, Control_c, 0, 64, 91
1, 48684, Control_c, 0, 64, 76
1, 48687, Note_on_c, 0, 63, 24
1, 48698, Control_c, 0, 64, 65
1, 48713, Control_c, 0, 64, 51
1, 48728, Control_c, 0, 64, 29
1, 48743, Control_c, 0, 64, 0
1, 48802, Control_c, 0, 64, 17
1, 48816, Control_c, 0, 64, 30
1, 48831, Control_c, 0, 64, 43
1, 48846, Control_c, 0, 64, 57
1, 48861, Control_c, 0, 64, 72
1, 48876, Control_c, 0, 64, 108
1, 48890, Control_c, 0, 64, 127
1, 48941, Note_off_c, 0, 63, 41
1, 48979, Note_on_c, 0, 76, 55
1, 48994, Note_on_c, 0, 64, 38
1, 49057, Note_off_c, 0, 64, 59
1, 49072, Note_off_c, 0, 75, 56
1, 49099, Note_off_c, 0, 76, 61
1, 49242, Note_on_c, 0, 77, 68
1, 49248, Note_on_c, 0, 51, 23
1, 49252, Note_on_c, 0, 59, 29
1, 49253, Control_c, 0, 64, 94
1, 49268, Control_c, 0, 64, 72
1, 49275, Note_on_c, 0, 65, 44
1, 49283, Control_c, 0, 64, 58
1, 49298, Control_c, 0, 64, 42
1, 49313, Control_c, 0, 64, 23
1, 49343, Control_c, 0, 64, 31
1, 49358, Control_c, 0, 64, 40
1, 49370, Note_off_c, 0, 65, 62
1, 49373, Control_c, 0, 64, 55
1, 49388, Control_c, 0, 64, 69
1, 49402, Control_c, 0, 64, 127
1, 49468, Note_off_c, 0, 59, 49
1, 49507, Note_on_c, 0, 78, 82
1, 49534, Note_on_c, 0, 66, 48
1, 49570, Note_off_c, 0, 77, 57
1, 49614, Note_off_c, 0, 66, 38
1, 49817, Note_off_c, 0, 51, 37
1, 49850, Note_on_c, 0, 61, 23
1, 49864, Note_on_c, 0, 52, 22
1, 49912, Control_c, 0, 64, 97
1, 49918, Note_on_c, 0, 82, 64
1, 49927, Control_c, 0, 64, 80
1, 49939, Note_on_c, 0, 70, 36
1, 49942, Control_c, 0, 64, 67
1, 49957, Control_c, 0, 64, 53
1, 49966, Note_off_c, 0, 78, 60
1, 49971, Control_c, 0, 64, 28
1, 49986, Control_c, 0, 64, 0
1, 50076, Control_c, 0, 64, 27
1, 50091, Control_c, 0, 64, 43
1, 50106, Control_c, 0, 64, 59
1, 50121, Control_c, 0, 64, 76
1, 50135, Control_c, 0, 64, 127
1, 50158, Note_off_c, 0, 70, 38
1, 50260, Note_on_c, 0, 80, 66
1, 50262, Note_off_c, 0, 61, 56
1, 50273, Note_on_c, 0, 68, 42
1, 50318, Note_off_c, 0, 82, 56
1, 50357, Note_off_c, 0, 80, 60
1, 50359, Note_off_c, 0, 52, 55
1, 50373, Note_off_c, 0, 68, 38
1, 50494, Note_on_c, 0, 78, 68
1, 50512, Note_on_c, 0, 66, 57
1, 50584, Note_off_c, 0, 66, 62
1, 50593, Note_off_c, 0, 78, 65
1, 50730, Note_on_c, 0, 76, 66
1, 50747, Note_on_c, 0, 64, 50
1, 50802, Note_off_c, 0, 64, 57
1, 50803, Note_on_c, 0, 42, 44
1, 50842, Note_off_c, 0, 42, 62
1, 50881, Note_on_c, 0, 52, 50
1, 50958, Control_c, 0, 64, 96
1, 50973, Control_c, 0, 64, 73
1, 50984, Note_on_c, 0, 58, 47
1, 50988, Control_c, 0, 64, 59
1, 50991, Note_on_c, 0, 75, 58
1, 51003, Control_c, 0, 64, 35
1, 51005, Note_on_c, 0, 63, 48
1, 51017, Control_c, 0, 64, 0
1, 51021, Note_off_c, 0, 76, 49
1, 51062, Control_c, 0, 64, 17
1, 51077, Control_c, 0, 64, 33
1, 51091, Control_c, 0, 64, 52
1, 51106, Control_c, 0, 64, 69
1, 51117, Note_off_c, 0, 63, 61
1, 51121, Control_c, 0, 64, 127
1, 51160, Note_off_c, 0, 75, 61
1, 51174, Note_off_c, 0, 58, 60
1, 51246, Note_on_c, 0, 61, 59
1, 51252, Note_on_c, 0, 73, 59
1, 51315, Note_off_c, 0, 61, 54
1, 51356, Note_off_c, 0, 52, 31
1, 51503, Note_off_c, 0, 73, 53
1, 51513, Control_c, 0, 64, 82
1, 51528, Note_on_c, 0, 75, 51
1, 51528, Control_c, 0, 64, 64
1, 51534, Note_on_c, 0, 51, 24
1, 51537, Note_on_c, 0, 47, 29
1, 51537, Note_on_c, 0, 63, 35
1, 51540, Note_on_c, 0, 59, 25
1, 51543, Control_c, 0, 64, 51
1, 51558, Control_c, 0, 64, 23
1, 51573, Control_c, 0, 64, 0
1, 51632, Control_c, 0, 64, 9
1, 51647, Control_c, 0, 64, 26
1, 51662, Control_c, 0, 64, 41
1, 51677, Control_c, 0, 64, 59
1, 51692, Control_c, 0, 64, 75
1, 51707, Control_c, 0, 64, 127
1, 51758, Note_off_c, 0, 59, 48
1, 51790, Note_off_c, 0, 47, 40
1, 51829, Note_on_c, 0, 71, 44
1, 51876, Note_off_c, 0, 75, 35
1, 51924, Note_off_c, 0, 63, 46
1, 51996, Note_off_c, 0, 51, 43
1, 52121, Control_c, 0, 64, 96
1, 52144, Control_c, 0, 64, 81
1, 52159, Control_c, 0, 64, 71
1, 52164, Note_on_c, 0, 44, 32
1, 52173, Control_c, 0, 64, 62
1, 52188, Control_c, 0, 64, 47
1, 52193, Note_on_c, 0, 53, 30
1, 52203, Control_c, 0, 64, 0
1, 52205, Note_off_c, 0, 71, 47
1, 52211, Note_on_c, 0, 61, 38
1, 52211, Note_on_c, 0, 73, 36
1, 52258, Note_off_c, 0, 53, 0
1, 52258, Note_on_c, 0, 53, 3
1, 52277, Control_c, 0, 64, 14
1, 52292, Control_c, 0, 64, 37
1, 52307, Control_c, 0, 64, 55
1, 52321, Control_c, 0, 64, 77
1, 52336, Control_c, 0, 64, 127
1, 52349, Note_off_c, 0, 61, 61
1, 52395, Note_off_c, 0, 53, 36
1, 52437, Note_off_c, 0, 44, 54
1, 52504, Note_on_c, 0, 63, 48
1, 52507, Note_on_c, 0, 75, 59
1, 52588, Note_off_c, 0, 73, 46
1, 52589, Note_off_c, 0, 63, 57
1, 52723, Note_on_c, 0, 37, 41
1, 52735, Note_on_c, 0, 73, 64
1, 52751, Note_on_c, 0, 61, 52
1, 52783, Note_off_c, 0, 61, 67
1, 52792, Note_off_c, 0, 75, 34
1, 52816, Note_off_c, 0, 37, 63
1, 52843, Note_off_c, 0, 73, 63
1, 52980, Note_on_c, 0, 80, 78
1, 52994, Note_on_c, 0, 68, 53
1, 53079, Note_off_c, 0, 68, 59
1, 53208, Note_on_c, 0, 59, 43
1, 53214, Note_on_c, 0, 71, 55
1, 53214, Note_on_c, 0, 83, 65
1, 53217, Note_on_c, 0, 65, 38
1, 53220, Note_on_c, 0, 81, 62
1, 53252, Note_off_c, 0, 80, 35
1, 53264, Note_off_c, 0, 81, 42
1, 53267, Note_off_c, 0, 71, 62
1, 53320, Note_off_c, 0, 83, 65
1, 53351, Note_off_c, 0, 65, 56
1, 53403, Note_off_c, 0, 59, 56
1, 53450, Note_on_c, 0, 87, 80
1, 53463, Note_on_c, 0, 75, 59
1, 53620, Note_off_c, 0, 75, 40
1, 53665, Note_on_c, 0, 66, 34
1, 53674, Note_on_c, 0, 58, 36
1, 53682, Note_on_c, 0, 54, 40
1, 53730, Control_c, 0, 64, 71
1, 53737, Note_on_c, 0, 85, 78
1, 53745, Control_c, 0, 64, 53
1, 53750, Note_on_c, 0, 73, 56
1, 53752, Note_off_c, 0, 87, 37
1, 53760, Control_c, 0, 64, 11
1, 53775, Control_c, 0, 64, 0
1, 53791, Note_off_c, 0, 73, 0
1, 53791, Note_on_c, 0, 73, 24
1, 53819, Control_c, 0, 64, 14
1, 53834, Control_c, 0, 64, 41
1, 53849, Control_c, 0, 64, 60
1, 53859, Note_off_c, 0, 66, 56
1, 53864, Control_c, 0, 64, 127
1, 53884, Note_off_c, 0, 73, 51
1, 53906, Note_off_c, 0, 58, 63
1, 53931, Note_off_c, 0, 54, 56
1, 53980, Note_on_c, 0, 87, 85
1, 53990, Note_on_c, 0, 75, 72
1, 54052, Note_off_c, 0, 85, 52
1, 54072, Note_on_c, 0, 46, 52
1, 54077, Note_off_c, 0, 75, 55
1, 54112, Note_off_c, 0, 46, 64
1, 54151, Note_on_c, 0, 54, 53
1, 54223, Note_on_c, 0, 85, 74
1, 54223, Note_on_c, 0, 61, 52
1, 54238, Note_on_c, 0, 73, 64
1, 54241, Note_off_c, 0, 87, 58
1, 54306, Note_off_c, 0, 85, 65
1, 54311, Note_off_c, 0, 73, 62
1, 54322, Note_off_c, 0, 61, 63
1, 54433, Note_off_c, 0, 54, 27
1, 54458, Note_on_c, 0, 82, 82
1, 54473, Note_on_c, 0, 70, 65
1, 54560, Note_on_c, 0, 47, 52
1, 54590, Note_off_c, 0, 47, 55
1, 54653, Note_on_c, 0, 54, 52
1, 54670, Note_off_c, 0, 70, 35
1, 54731, Control_c, 0, 64, 108
1, 54746, Control_c, 0, 64, 85
1, 54760, Control_c, 0, 64, 69
1, 54775, Control_c, 0, 64, 57
1, 54790, Control_c, 0, 64, 30
1, 54805, Control_c, 0, 64, 0
1, 54807, Note_on_c, 0, 63, 32
1, 54812, Note_on_c, 0, 80, 66
1, 54828, Note_on_c, 0, 68, 39
1, 54850, Note_off_c, 0, 82, 57
1, 54910, Control_c, 0, 64, 31
1, 54925, Control_c, 0, 64, 52
1, 54939, Control_c, 0, 64, 67
1, 54954, Control_c, 0, 64, 127
1, 54965, Note_off_c, 0, 68, 57
1, 55039, Note_off_c, 0, 63, 53
1, 55099, Note_on_c, 0, 82, 66
1, 55106, Note_off_c, 0, 54, 35
1, 55115, Note_on_c, 0, 70, 49
1, 55176, Note_off_c, 0, 80, 51
1, 55202, Note_off_c, 0, 70, 60
1, 55282, Note_off_c, 0, 82, 58
1, 55335, Note_on_c, 0, 80, 72
1, 55349, Note_on_c, 0, 68, 61
1, 55428, Note_off_c, 0, 68, 49
1, 55498, Note_off_c, 0, 80, 56
1, 55567, Note_on_c, 0, 78, 70
1, 55583, Note_on_c, 0, 66, 51
1, 55657, Note_off_c, 0, 78, 64
1, 55683, Note_off_c, 0, 66, 43
1, 55792, Control_c, 0, 64, 81
1, 55805, Note_on_c, 0, 59, 35
1, 55806, Control_c, 0, 64, 63
1, 55821, Control_c, 0, 64, 45
1, 55825, Note_on_c, 0, 75, 60
1, 55836, Control_c, 0, 64, 0
1, 55851, Note_on_c, 0, 63, 35
1, 55903, Control_c, 0, 64, 29
1, 55918, Control_c, 0, 64, 47
1, 55923, Note_off_c, 0, 63, 61
1, 55932, Control_c, 0, 64, 63
1, 55947, Control_c, 0, 64, 96
1, 55962, Control_c, 0, 64, 127
1, 56057, Note_on_c, 0, 78, 63
1, 56074, Note_on_c, 0, 66, 50
1, 56089, Note_off_c, 0, 75, 34
1, 56139, Note_off_c, 0, 66, 62
1, 56148, Note_off_c, 0, 78, 66
1, 56288, Control_c, 0, 64, 91
1, 56303, Control_c, 0, 64, 69
1, 56304, Note_on_c, 0, 58, 33
1, 56310, Note_on_c, 0, 49, 30
1, 56316, Note_on_c, 0, 75, 55
1, 56318, Control_c, 0, 64, 60
1, 56327, Note_on_c, 0, 63, 44
1, 56332, Control_c, 0, 64, 50
1, 56347, Control_c, 0, 64, 46
1, 56362, Control_c, 0, 64, 50
1, 56377, Control_c, 0, 64, 59
1, 56392, Control_c, 0, 64, 70
1, 56406, Control_c, 0, 64, 111
1, 56419, Note_off_c, 0, 63, 55
1, 56421, Control_c, 0, 64, 127
1, 56423, Note_off_c, 0, 59, 38
1, 56471, Note_off_c, 0, 75, 56
1, 56483, Note_off_c, 0, 58, 53
1, 56584, Note_on_c, 0, 61, 50
1, 56585, Note_on_c, 0, 73, 53
1, 56665, Note_off_c, 0, 73, 56
1, 56670, Note_off_c, 0, 61, 60
1, 56889, Control_c, 0, 64, 103
1, 56903, Control_c, 0, 64, 81
1, 56912, Note_on_c, 0, 68, 47
1, 56917, Note_on_c, 0, 52, 31
1, 56918, Control_c, 0, 64, 65
1, 56933, Control_c, 0, 64, 54
1, 56938, Note_on_c, 0, 56, 32
1, 56948, Control_c, 0, 64, 35
1, 56962, Control_c, 0, 64, 0
1, 57022, Control_c, 0, 64, 18
1, 57037, Control_c, 0, 64, 27
1, 57052, Control_c, 0, 64, 38
1, 57067, Control_c, 0, 64, 51
1, 57081, Control_c, 0, 64, 63
1, 57096, Control_c, 0, 64, 78
1, 57111, Control_c, 0, 64, 100
1, 57126, Control_c, 0, 64, 101
1, 57131, Note_off_c, 0, 52, 42
1, 57141, Control_c, 0, 64, 103
1, 57154, Note_off_c, 0, 56, 43
1, 57155, Control_c, 0, 64, 108
1, 57166, Note_off_c, 0, 49, 40
1, 57170, Control_c, 0, 64, 127
1, 57532, Note_on_c, 0, 70, 37
1, 57555, Note_on_c, 0, 58, 28
1, 57564, Control_c, 0, 64, 119
1, 57574, Note_on_c, 0, 66, 31
1, 57578, Control_c, 0, 64, 97
1, 57579, Note_on_c, 0, 42, 27
1, 57581, Note_on_c, 0, 49, 20
1, 57593, Control_c, 0, 64, 85
1, 57608, Control_c, 0, 64, 77
1, 57623, Control_c, 0, 64, 69
1, 57638, Control_c, 0, 64, 63
1, 57646, Note_off_c, 0, 68, 31
1, 57648, Note_off_c, 0, 66, 0
1, 57648, Note_on_c, 0, 66, 3
1, 57652, Control_c, 0, 64, 55
1, 57667, Control_c, 0, 64, 39
1, 57682, Control_c, 0, 64, 12
1, 57697, Control_c, 0, 64, 0
1, 57771, Control_c, 0, 64, 10
1, 57785, Control_c, 0, 64, 25
1, 57800, Control_c, 0, 64, 38
1, 57815, Control_c, 0, 64, 50
1, 57830, Control_c, 0, 64, 62
1, 57845, Control_c, 0, 64, 76
1, 57859, Control_c, 0, 64, 97
1, 57874, Control_c, 0, 64, 111
1, 57889, Control_c, 0, 64, 127
1, 58258, Note_on_c, 0, 54, 26
1, 58266, Note_on_c, 0, 64, 32
1, 58405, Note_off_c, 0, 66, 35
1, 58508, Note_off_c, 0, 54, 43
1, 58649, Note_off_c, 0, 64, 40
1, 59225, Note_on_c, 0, 47, 26
1, 59236, Note_on_c, 0, 66, 33
1, 59241, Note_on_c, 0, 54, 22
1, 59252, Note_on_c, 0, 63, 30
1, 59284, Control_c, 0, 64, 95
1, 59299, Control_c, 0, 64, 83
1, 59314, Control_c, 0, 64, 72
1, 59329, Control_c, 0, 64, 64
1, 59331, Note_off_c, 0, 70, 39
1, 59343, Control_c, 0, 64, 54
1, 59350, Note_off_c, 0, 58, 41
1, 59358, Control_c, 0, 64, 37
1, 59373, Control_c, 0, 64, 0
1, 59375, Note_off_c, 0, 42, 20
1, 59411, Note_off_c, 0, 49, 40
1, 59461, Control_c, 0, 64, 8
1, 59475, Control_c, 0, 64, 23
1, 59490, Control_c, 0, 64, 34
1, 59505, Control_c, 0, 64, 48
1, 59520, Control_c, 0, 64, 61
1, 59535, Control_c, 0, 64, 77
1, 59550, Control_c, 0, 64, 105
1, 59565, Control_c, 0, 64, 127
1, 59626, Note_on_c, 0, 70, 49
1, 59663, Note_on_c, 0, 58, 33
1, 59738, Note_off_c, 0, 58, 56
1, 59759, Note_off_c, 0, 70, 59
1, 59854, Note_on_c, 0, 71, 63
1, 59872, Note_on_c, 0, 59, 34
1, 59872, Note_off_c, 0, 66, 51
1, 59889, Note_off_c, 0, 54, 41
1, 59908, Note_off_c, 0, 63, 48
1, 59918, Note_off_c, 0, 59, 45
1, 60068, Note_on_c, 0, 73, 71
1, 60098, Note_off_c, 0, 71, 62
1, 60100, Note_on_c, 0, 61, 39
1, 60158, Note_off_c, 0, 61, 46
1, 60171, Note_on_c, 0, 40, 35
1, 60210, Note_off_c, 0, 40, 54
1, 60223, Note_off_c, 0, 47, 42
1, 60282, Note_off_c, 0, 73, 60
1, 60314, Note_on_c, 0, 56, 46
1, 60325, Note_on_c, 0, 75, 64
1, 60343, Control_c, 0, 64, 101
1, 60354, Note_on_c, 0, 63, 37
1, 60358, Control_c, 0, 64, 69
1, 60380, Control_c, 0, 64, 59
1, 60395, Control_c, 0, 64, 49
1, 60410, Control_c, 0, 64, 46
1, 60425, Control_c, 0, 64, 53
1, 60440, Control_c, 0, 64, 62
1, 60444, Note_off_c, 0, 63, 60
1, 60456, Control_c, 0, 64, 76
1, 60471, Control_c, 0, 64, 127
1, 60517, Note_off_c, 0, 56, 65
1, 60557, Note_on_c, 0, 78, 75
1, 60570, Note_on_c, 0, 66, 59
1, 60576, Note_off_c, 0, 75, 58
1, 60605, Note_off_c, 0, 66, 64
1, 60606, Note_off_c, 0, 78, 67
1, 60666, Note_on_c, 0, 76, 74
1, 60676, Note_on_c, 0, 42, 46
1, 60696, Note_on_c, 0, 64, 39
1, 60708, Note_off_c, 0, 42, 57
1, 60736, Note_off_c, 0, 64, 49
1, 60745, Note_on_c, 0, 52, 45
1, 60840, Control_c, 0, 64, 79
1, 60855, Control_c, 0, 64, 63
1, 60870, Control_c, 0, 64, 47
1, 60883, Note_on_c, 0, 58, 38
1, 60885, Control_c, 0, 64, 12
1, 60889, Note_on_c, 0, 75, 62
1, 60900, Control_c, 0, 64, 0
1, 60905, Note_on_c, 0, 63, 51
1, 60944, Control_c, 0, 64, 11
1, 60959, Control_c, 0, 64, 28
1, 60974, Control_c, 0, 64, 43
1, 60985, Note_off_c, 0, 76, 49
1, 60989, Control_c, 0, 64, 59
1, 61003, Control_c, 0, 64, 80
1, 61018, Control_c, 0, 64, 127
1, 61020, Note_off_c, 0, 63, 61
1, 61065, Note_off_c, 0, 75, 62
1, 61091, Note_off_c, 0, 58, 61
1, 61145, Note_on_c, 0, 73, 73
1, 61155, Note_on_c, 0, 61, 67
1, 61226, Note_off_c, 0, 73, 60
1, 61247, Note_off_c, 0, 61, 57
1, 61382, Note_on_c, 0, 71, 65
1, 61382, Control_c, 0, 64, 97
1, 61383, Note_on_c, 0, 54, 44
1, 61395, Note_on_c, 0, 59, 50
1, 61397, Control_c, 0, 64, 73
1, 61412, Control_c, 0, 64, 58
1, 61426, Control_c, 0, 64, 39
1, 61437, Note_off_c, 0, 52, 37
1, 61441, Control_c, 0, 64, 9
1, 61456, Control_c, 0, 64, 0
1, 61471, Control_c, 0, 64, 16
1, 61486, Control_c, 0, 64, 26
1, 61493, Note_off_c, 0, 59, 56
1, 61500, Control_c, 0, 64, 36
1, 61515, Control_c, 0, 64, 51
1, 61530, Control_c, 0, 64, 64
1, 61544, Control_c, 0, 64, 89
1, 61559, Control_c, 0, 64, 127
1, 61629, Note_on_c, 0, 73, 66
1, 61646, Note_on_c, 0, 61, 41
1, 61651, Note_off_c, 0, 71, 62
1, 61722, Note_off_c, 0, 61, 40
1, 61857, Control_c, 0, 64, 78
1, 61861, Note_off_c, 0, 73, 34
1, 61878, Control_c, 0, 64, 61
1, 61881, Note_on_c, 0, 47, 43
1, 61883, Note_on_c, 0, 75, 54
1, 61893, Control_c, 0, 64, 39
1, 61908, Control_c, 0, 64, 0
1, 61910, Note_on_c, 0, 63, 33
1, 61938, Control_c, 0, 64, 22
1, 61952, Control_c, 0, 64, 35
1, 61967, Control_c, 0, 64, 50
1, 61982, Control_c, 0, 64, 65
1, 61984, Note_off_c, 0, 75, 62
1, 61997, Control_c, 0, 64, 127
1, 62049, Note_off_c, 0, 63, 37
1, 62122, Note_off_c, 0, 54, 46
1, 62128, Note_off_c, 0, 47, 41
1, 62170, Note_on_c, 0, 59, 40
1, 62171, Note_on_c, 0, 71, 49
1, 62211, Note_off_c, 0, 59, 54
1, 62244, Note_off_c, 0, 71, 60
1, 62515, Control_c, 0, 64, 122
1, 62523, Note_on_c, 0, 75, 51
1, 62530, Control_c, 0, 64, 95
1, 62542, Note_on_c, 0, 63, 33
1, 62545, Control_c, 0, 64, 80
1, 62560, Control_c, 0, 64, 66
1, 62574, Control_c, 0, 64, 56
1, 62589, Control_c, 0, 64, 37
1, 62604, Control_c, 0, 64, 0
1, 62671, Control_c, 0, 64, 13
1, 62686, Control_c, 0, 64, 26
1, 62700, Control_c, 0, 64, 39
1, 62715, Control_c, 0, 64, 53
1, 62730, Control_c, 0, 64, 67
1, 62745, Control_c, 0, 64, 104
1, 62760, Control_c, 0, 64, 127
1, 62775, Note_off_c, 0, 63, 46
1, 62794, Note_on_c, 0, 76, 68
1, 62814, Note_on_c, 0, 64, 45
1, 62870, Note_off_c, 0, 64, 59
1, 62898, Note_off_c, 0, 75, 52
1, 62915, Note_off_c, 0, 76, 63
1, 63012, Control_c, 0, 64, 85
1, 63022, Note_on_c, 0, 51, 36
1, 63027, Control_c, 0, 64, 66
1, 63032, Note_on_c, 0, 77, 73
1, 63042, Control_c, 0, 64, 53
1, 63057, Note_on_c, 0, 59, 28
1, 63057, Control_c, 0, 64, 38
1, 63061, Note_on_c, 0, 65, 54
1, 63071, Control_c, 0, 64, 32
1, 63086, Control_c, 0, 64, 36
1, 63101, Control_c, 0, 64, 43
1, 63115, Control_c, 0, 64, 54
1, 63130, Control_c, 0, 64, 69
1, 63145, Control_c, 0, 64, 127
1, 63183, Note_off_c, 0, 65, 50
1, 63228, Note_off_c, 0, 59, 50
1, 63267, Note_on_c, 0, 78, 86
1, 63289, Note_on_c, 0, 66, 59
1, 63311, Note_off_c, 0, 77, 60
1, 63347, Note_off_c, 0, 66, 53
1, 63560, Note_on_c, 0, 61, 30
1, 63593, Note_on_c, 0, 52, 15
1, 63627, Control_c, 0, 64, 101
1, 63642, Control_c, 0, 64, 76
1, 63654, Note_off_c, 0, 51, 32
1, 63656, Note_on_c, 0, 82, 69
1, 63657, Control_c, 0, 64, 62
1, 63672, Control_c, 0, 64, 46
1, 63675, Note_off_c, 0, 78, 61
1, 63687, Control_c, 0, 64, 0
1, 63691, Note_on_c, 0, 70, 26
1, 63791, Control_c, 0, 64, 25
1, 63806, Control_c, 0, 64, 46
1, 63820, Control_c, 0, 64, 62
1, 63835, Control_c, 0, 64, 91
1, 63850, Control_c, 0, 64, 127
1, 63886, Note_off_c, 0, 70, 40
1, 63997, Note_off_c, 0, 61, 53
1, 64025, Note_on_c, 0, 80, 64
1, 64056, Note_on_c, 0, 68, 40
1, 64060, Note_off_c, 0, 82, 59
1, 64136, Note_off_c, 0, 80, 61
1, 64158, Note_off_c, 0, 68, 36
1, 64233, Note_off_c, 0, 52, 42
1, 64265, Note_on_c, 0, 78, 65
1, 64290, Note_on_c, 0, 66, 51
1, 64353, Note_off_c, 0, 66, 57
1, 64356, Note_off_c, 0, 78, 66
1, 64480, Note_on_c, 0, 76, 59
1, 64498, Note_on_c, 0, 64, 40
1, 64543, Note_off_c, 0, 64, 55
1, 64556, Note_on_c, 0, 42, 47
1, 64592, Note_off_c, 0, 42, 62
1, 64625, Note_on_c, 0, 52, 49
1, 64703, Control_c, 0, 64, 108
1, 64718, Control_c, 0, 64, 75
1, 64733, Control_c, 0, 64, 61
1, 64735, Note_on_c, 0, 75, 55
1, 64742, Note_on_c, 0, 58, 44
1, 64747, Note_on_c, 0, 63, 46
1, 64748, Control_c, 0, 64, 45
1, 64761, Note_off_c, 0, 76, 35
1, 64762, Control_c, 0, 64, 14
1, 64777, Control_c, 0, 64, 10
1, 64792, Control_c, 0, 64, 22
1, 64807, Control_c, 0, 64, 34
1, 64822, Control_c, 0, 64, 48
1, 64836, Control_c, 0, 64, 63
1, 64850, Note_off_c, 0, 63, 62
1, 64851, Control_c, 0, 64, 96
1, 64874, Control_c, 0, 64, 127
1, 64899, Note_off_c, 0, 75, 61
1, 64945, Note_off_c, 0, 58, 40
1, 64983, Note_on_c, 0, 73, 60
1, 64990, Note_on_c, 0, 61, 49
1, 65069, Note_off_c, 0, 61, 56
1, 65160, Note_off_c, 0, 52, 29
1, 65245, Control_c, 0, 64, 95
1, 65260, Control_c, 0, 64, 76
1, 65264, Note_on_c, 0, 51, 33
1, 65269, Note_on_c, 0, 47, 35
1, 65274, Control_c, 0, 64, 64
1, 65275, Note_on_c, 0, 59, 29
1, 65276, Note_on_c, 0, 75, 52
1, 65288, Note_off_c, 0, 73, 33
1, 65289, Control_c, 0, 64, 51
1, 65293, Note_on_c, 0, 63, 35
1, 65304, Control_c, 0, 64, 28
1, 65318, Control_c, 0, 64, 0
1, 65378, Control_c, 0, 64, 10
1, 65392, Control_c, 0, 64, 25
1, 65407, Control_c, 0, 64, 39
1, 65422, Control_c, 0, 64, 57
1, 65437, Control_c, 0, 64, 71
1, 65452, Control_c, 0, 64, 111
1, 65466, Control_c, 0, 64, 127
1, 65494, Note_off_c, 0, 47, 40
1, 65514, Note_off_c, 0, 59, 43
1, 65544, Note_off_c, 0, 75, 57
1, 65553, Note_off_c, 0, 51, 61
1, 65579, Note_off_c, 0, 63, 42
1, 65612, Note_on_c, 0, 71, 35
1, 65886, Note_off_c, 0, 71, 44
1, 65947, Control_c, 0, 64, 117
1, 65955, Note_on_c, 0, 57, 17
1, 65959, Note_on_c, 0, 48, 20
1, 65962, Control_c, 0, 64, 96
1, 65977, Control_c, 0, 64, 86
1, 65982, Note_on_c, 0, 54, 31
1, 65991, Control_c, 0, 64, 77
1, 66006, Control_c, 0, 64, 68
1, 66012, Note_on_c, 0, 74, 34
1, 66021, Control_c, 0, 64, 59
1, 66025, Note_on_c, 0, 62, 35
1, 66037, Control_c, 0, 64, 42
1, 66052, Control_c, 0, 64, 0
1, 66155, Control_c, 0, 64, 26
1, 66170, Control_c, 0, 64, 43
1, 66183, Note_off_c, 0, 62, 53
1, 66185, Control_c, 0, 64, 60
1, 66200, Control_c, 0, 64, 79
1, 66215, Control_c, 0, 64, 127
1, 66350, Note_on_c, 0, 75, 57
1, 66385, Note_on_c, 0, 63, 29
1, 66387, Note_off_c, 0, 74, 36
1, 66494, Note_off_c, 0, 63, 50
1, 66593, Control_c, 0, 64, 108
1, 66593, Note_on_c, 0, 56, 46
1, 66608, Control_c, 0, 64, 79
1, 66611, Note_off_c, 0, 57, 27
1, 66620, Note_on_c, 0, 64, 45
1, 66621, Note_on_c, 0, 76, 58
1, 66622, Control_c, 0, 64, 64
1, 66637, Control_c, 0, 64, 52
1, 66652, Control_c, 0, 64, 32
1, 66666, Control_c, 0, 64, 18
1, 66681, Control_c, 0, 64, 22
1, 66687, Note_off_c, 0, 75, 35
1, 66696, Control_c, 0, 64, 30
1, 66709, Note_off_c, 0, 64, 61
1, 66711, Control_c, 0, 64, 39
1, 66726, Control_c, 0, 64, 51
1, 66740, Control_c, 0, 64, 64
1, 66755, Control_c, 0, 64, 96
1, 66770, Note_off_c, 0, 54, 38
1, 66770, Control_c, 0, 64, 127
1, 66793, Note_off_c, 0, 48, 40
1, 66826, Note_on_c, 0, 75, 70
1, 66841, Note_on_c, 0, 63, 58
1, 66841, Note_off_c, 0, 76, 64
1, 66898, Note_off_c, 0, 63, 63
1, 67023, Control_c, 0, 64, 83
1, 67038, Control_c, 0, 64, 65
1, 67045, Note_on_c, 0, 49, 51
1, 67053, Control_c, 0, 64, 51
1, 67067, Control_c, 0, 64, 32
1, 67070, Note_on_c, 0, 78, 69
1, 67082, Control_c, 0, 64, 22
1, 67091, Note_on_c, 0, 66, 48
1, 67097, Control_c, 0, 64, 27
1, 67119, Control_c, 0, 64, 35
1, 67134, Control_c, 0, 64, 45
1, 67149, Control_c, 0, 64, 61
1, 67163, Control_c, 0, 64, 85
1, 67178, Control_c, 0, 64, 127
1, 67200, Note_off_c, 0, 78, 66
1, 67205, Note_off_c, 0, 66, 62
1, 67230, Note_off_c, 0, 75, 58
1, 67233, Note_off_c, 0, 49, 64
1, 67275, Note_on_c, 0, 76, 77
1, 67275, Note_off_c, 0, 56, 65
1, 67288, Note_on_c, 0, 64, 60
1, 67372, Note_off_c, 0, 64, 58
1, 67419, Note_off_c, 0, 76, 61
1, 67490, Note_on_c, 0, 57, 36
1, 67494, Note_on_c, 0, 51, 40
1, 67497, Note_on_c, 0, 60, 36
1, 67504, Control_c, 0, 64, 90
1, 67519, Control_c, 0, 64, 72
1, 67534, Control_c, 0, 64, 59
1, 67548, Note_on_c, 0, 77, 73
1, 67549, Control_c, 0, 64, 43
1, 67563, Control_c, 0, 64, 12
1, 67568, Note_on_c, 0, 65, 47
1, 67578, Control_c, 0, 64, 0
1, 67622, Control_c, 0, 64, 15
1, 67639, Control_c, 0, 64, 32
1, 67653, Control_c, 0, 64, 49
1, 67668, Control_c, 0, 64, 66
1, 67678, Note_off_c, 0, 65, 65
1, 67683, Control_c, 0, 64, 127
1, 67747, Note_off_c, 0, 60, 50
1, 67774, Note_on_c, 0, 78, 85
1, 67783, Note_on_c, 0, 66, 72
1, 67822, Note_off_c, 0, 77, 57
1, 67849, Note_off_c, 0, 66, 58
1, 67981, Note_on_c, 0, 59, 62
1, 67987, Note_on_c, 0, 80, 81
1, 67997, Note_on_c, 0, 68, 65
1, 68001, Control_c, 0, 64, 80
1, 68016, Control_c, 0, 64, 62
1, 68031, Control_c, 0, 64, 49
1, 68033, Note_off_c, 0, 78, 56
1, 68045, Control_c, 0, 64, 33
1, 68060, Control_c, 0, 64, 32
1, 68061, Note_off_c, 0, 57, 53
1, 68075, Control_c, 0, 64, 40
1, 68090, Control_c, 0, 64, 51
1, 68105, Control_c, 0, 64, 68
1, 68114, Note_off_c, 0, 68, 58
1, 68120, Control_c, 0, 64, 127
1, 68153, Note_off_c, 0, 51, 64
1, 68199, Note_on_c, 0, 78, 85
1, 68201, Note_on_c, 0, 66, 82
1, 68230, Note_off_c, 0, 80, 59
1, 68276, Note_off_c, 0, 66, 62
1, 68391, Note_off_c, 0, 78, 58
1, 68402, Control_c, 0, 64, 79
1, 68403, Note_on_c, 0, 52, 65
1, 68417, Control_c, 0, 64, 62
1, 68432, Note_on_c, 0, 81, 86
1, 68433, Control_c, 0, 64, 43
1, 68436, Note_on_c, 0, 69, 69
1, 68448, Control_c, 0, 64, 0
1, 68522, Control_c, 0, 64, 28
1, 68536, Control_c, 0, 64, 48
1, 68551, Control_c, 0, 64, 66
1, 68564, Note_off_c, 0, 69, 62
1, 68566, Control_c, 0, 64, 127
1, 68579, Note_off_c, 0, 52, 66
1, 68633, Note_off_c, 0, 59, 62
1, 68656, Note_on_c, 0, 80, 88
1, 68665, Note_on_c, 0, 68, 78
1, 68695, Note_off_c, 0, 81, 56
1, 68825, Note_off_c, 0, 68, 60
1, 68832, Note_off_c, 0, 80, 60
1, 68892, Note_on_c, 0, 62, 53
1, 68892, Note_on_c, 0, 53, 50
1, 68900, Note_on_c, 0, 59, 48
1, 68914, Control_c, 0, 64, 79
1, 68929, Control_c, 0, 64, 63
1, 68943, Control_c, 0, 64, 47
1, 68946, Note_on_c, 0, 79, 82
1, 68954, Note_on_c, 0, 67, 72
1, 68958, Control_c, 0, 64, 0
1, 69047, Control_c, 0, 64, 27
1, 69062, Control_c, 0, 64, 53
1, 69077, Control_c, 0, 64, 74
1, 69091, Control_c, 0, 64, 127
1, 69112, Note_off_c, 0, 67, 61
1, 69220, Note_on_c, 0, 80, 89
1, 69230, Note_on_c, 0, 68, 80
1, 69260, Note_off_c, 0, 79, 58
1, 69333, Note_off_c, 0, 68, 58
1, 69447, Note_on_c, 0, 61, 78
1, 69448, Note_on_c, 0, 82, 86
1, 69455, Note_on_c, 0, 70, 75
1, 69485, Note_off_c, 0, 80, 56
1, 69494, Note_off_c, 0, 59, 53
1, 69557, Note_off_c, 0, 62, 37
1, 69559, Note_off_c, 0, 70, 58
1, 69584, Note_off_c, 0, 82, 62
1, 69659, Note_on_c, 0, 59, 78
1, 69660, Note_on_c, 0, 80, 91
1, 69665, Note_on_c, 0, 68, 81
1, 69680, Note_off_c, 0, 61, 65
1, 69750, Note_off_c, 0, 68, 59
1, 69884, Control_c, 0, 64, 98
1, 69896, Note_on_c, 0, 62, 62
1, 69899, Note_on_c, 0, 83, 88
1, 69899, Control_c, 0, 64, 75
1, 69905, Note_on_c, 0, 71, 79
1, 69905, Note_off_c, 0, 80, 56
1, 69914, Control_c, 0, 64, 59
1, 69929, Control_c, 0, 64, 37
1, 69935, Note_off_c, 0, 59, 58
1, 69944, Control_c, 0, 64, 0
1, 70048, Control_c, 0, 64, 33
1, 70063, Control_c, 0, 64, 52
1, 70078, Control_c, 0, 64, 71
1, 70093, Control_c, 0, 64, 127
1, 70116, Note_off_c, 0, 83, 63
1, 70125, Note_off_c, 0, 71, 62
1, 70165, Note_off_c, 0, 62, 58
1, 70288, Note_on_c, 0, 61, 66
1, 70292, Note_on_c, 0, 82, 78
1, 70293, Note_on_c, 0, 70, 74
1, 70320, Note_off_c, 0, 61, 64
1, 70323, Note_off_c, 0, 70, 61
1, 70337, Note_off_c, 0, 82, 60
1, 70388, Note_on_c, 0, 82, 81
1, 70396, Control_c, 0, 64, 119
1, 70400, Note_on_c, 0, 70, 77
1, 70409, Note_on_c, 0, 61, 71
1, 70411, Control_c, 0, 64, 81
1, 70426, Control_c, 0, 64, 66
1, 70440, Control_c, 0, 64, 56
1, 70455, Control_c, 0, 64, 40
1, 70470, Control_c, 0, 64, 26
1, 70485, Control_c, 0, 64, 28
1, 70500, Control_c, 0, 64, 36
1, 70514, Control_c, 0, 64, 46
1, 70529, Control_c, 0, 64, 59
1, 70544, Control_c, 0, 64, 78
1, 70559, Control_c, 0, 64, 127
1, 70571, Note_off_c, 0, 70, 62
1, 70601, Note_off_c, 0, 82, 63
1, 70658, Note_on_c, 0, 59, 65
1, 70664, Note_on_c, 0, 80, 85
1, 70668, Note_on_c, 0, 68, 76
1, 70711, Note_off_c, 0, 61, 56
1, 70722, Control_c, 0, 64, 103
1, 70737, Control_c, 0, 64, 72
1, 70752, Control_c, 0, 64, 60
1, 70767, Control_c, 0, 64, 47
1, 70781, Control_c, 0, 64, 39
1, 70796, Control_c, 0, 64, 44
1, 70811, Control_c, 0, 64, 55
1, 70826, Control_c, 0, 64, 67
1, 70841, Control_c, 0, 64, 127
1, 70875, Note_off_c, 0, 80, 60
1, 70881, Note_off_c, 0, 68, 58
1, 70949, Note_on_c, 0, 58, 61
1, 70953, Note_on_c, 0, 79, 80
1, 70956, Note_on_c, 0, 67, 74
1, 70982, Control_c, 0, 64, 81
1, 70997, Control_c, 0, 64, 62
1, 71011, Control_c, 0, 64, 46
1, 71018, Note_off_c, 0, 59, 57
1, 71026, Control_c, 0, 64, 16
1, 71041, Control_c, 0, 64, 0
1, 71071, Control_c, 0, 64, 15
1, 71086, Control_c, 0, 64, 28
1, 71101, Control_c, 0, 64, 40
1, 71116, Control_c, 0, 64, 55
1, 71130, Control_c, 0, 64, 72
1, 71145, Control_c, 0, 64, 127
1, 71148, Note_off_c, 0, 67, 59
1, 71244, Note_on_c, 0, 80, 86
1, 71251, Note_on_c, 0, 68, 72
1, 71253, Note_on_c, 0, 59, 64
1, 71279, Note_off_c, 0, 79, 59
1, 71363, Note_off_c, 0, 58, 52
1, 71383, Note_off_c, 0, 68, 49
1, 71694, Note_on_c, 0, 83, 81
1, 71702, Control_c, 0, 64, 91
1, 71706, Note_on_c, 0, 71, 69
1, 71710, Note_on_c, 0, 62, 53
1, 71717, Control_c, 0, 64, 76
1, 71732, Control_c, 0, 64, 65
1, 71747, Control_c, 0, 64, 53
1, 71761, Control_c, 0, 64, 30
1, 71763, Note_off_c, 0, 59, 48
1, 71776, Control_c, 0, 64, 0
1, 71785, Note_off_c, 0, 80, 38
1, 71953, Control_c, 0, 64, 26
1, 71968, Control_c, 0, 64, 39
1, 71983, Control_c, 0, 64, 52
1, 71998, Control_c, 0, 64, 63
1, 72013, Control_c, 0, 64, 87
1, 72028, Control_c, 0, 64, 127
1, 72070, Note_off_c, 0, 53, 45
1, 72124, Note_off_c, 0, 83, 60
1, 72135, Note_off_c, 0, 71, 38
1, 72159, Note_off_c, 0, 62, 59
1, 72584, Control_c, 0, 64, 114
1, 72599, Control_c, 0, 64, 102
1, 72614, Control_c, 0, 64, 97
1, 72628, Control_c, 0, 64, 94
1, 72643, Control_c, 0, 64, 92
1, 72658, Control_c, 0, 64, 90
1, 72673, Control_c, 0, 64, 88
1, 72688, Control_c, 0, 64, 85
1, 72702, Control_c, 0, 64, 83
1, 72717, Control_c, 0, 64, 80
1, 72732, Control_c, 0, 64, 79
1, 72747, Control_c, 0, 64, 77
1, 72762, Control_c, 0, 64, 75
1, 72776, Control_c, 0, 64, 74
1, 72791, Control_c, 0, 64, 73
1, 72803, Note_on_c, 0, 75, 39
1, 72806, Control_c, 0, 64, 71
1, 72821, Control_c, 0, 64, 70
1, 72836, Control_c, 0, 64, 69
1, 72844, Note_off_c, 0, 75, 0
1, 72844, Note_on_c, 0, 75, 7
1, 72850, Control_c, 0, 64, 66
1, 72865, Control_c, 0, 64, 64
1, 72880, Control_c, 0, 64, 62
1, 72895, Control_c, 0, 64, 61
1, 72910, Control_c, 0, 64, 61
1, 72925, Control_c, 0, 64, 60
1, 72955, Control_c, 0, 64, 60
1, 72970, Control_c, 0, 64, 59
1, 72984, Control_c, 0, 64, 57
1, 72999, Control_c, 0, 64, 54
1, 73014, Control_c, 0, 64, 52
1, 73028, Control_c, 0, 64, 50
1, 73041, Note_on_c, 0, 67, 24
1, 73043, Control_c, 0, 64, 47
1, 73058, Control_c, 0, 64, 45
1, 73060, Note_on_c, 0, 64, 20
1, 73073, Control_c, 0, 64, 41
1, 73088, Control_c, 0, 64, 36
1, 73110, Control_c, 0, 64, 27
1, 73125, Control_c, 0, 64, 15
1, 73140, Control_c, 0, 64, 0
1, 73162, Note_on_c, 0, 87, 58
1, 73259, Control_c, 0, 64, 20
1, 73274, Control_c, 0, 64, 32
1, 73289, Control_c, 0, 64, 43
1, 73304, Control_c, 0, 64, 55
1, 73318, Control_c, 0, 64, 67
1, 73333, Control_c, 0, 64, 91
1, 73348, Control_c, 0, 64, 127
1, 73441, Note_off_c, 0, 87, 63
1, 73504, Note_off_c, 0, 75, 42
1, 73552, Note_off_c, 0, 67, 44
1, 73633, Note_on_c, 0, 85, 51
1, 73686, Note_on_c, 0, 73, 12
1, 73733, Note_off_c, 0, 85, 62
1, 73750, Note_off_c, 0, 73, 46
1, 73891, Note_on_c, 0, 83, 59
1, 73909, Note_on_c, 0, 71, 39
1, 73919, Note_on_c, 0, 66, 31
1, 73948, Note_on_c, 0, 63, 21
1, 74002, Note_off_c, 0, 71, 38
1, 74024, Note_off_c, 0, 64, 36
1, 74054, Note_off_c, 0, 83, 57
1, 74111, Note_off_c, 0, 66, 40
1, 74117, Note_on_c, 0, 82, 75
1, 74133, Note_on_c, 0, 65, 44
1, 74133, Note_on_c, 0, 70, 59
1, 74148, Note_on_c, 0, 62, 41
1, 74163, Note_off_c, 0, 63, 42
1, 74242, Note_off_c, 0, 70, 56
1, 74288, Control_c, 0, 64, 105
1, 74303, Control_c, 0, 64, 73
1, 74316, Note_off_c, 0, 65, 52
1, 74318, Control_c, 0, 64, 58
1, 74329, Note_on_c, 0, 83, 79
1, 74333, Control_c, 0, 64, 42
1, 74347, Note_on_c, 0, 63, 37
1, 74347, Control_c, 0, 64, 31
1, 74350, Note_on_c, 0, 71, 51
1, 74352, Note_off_c, 0, 62, 36
1, 74359, Note_on_c, 0, 66, 43
1, 74362, Control_c, 0, 64, 34
1, 74377, Control_c, 0, 64, 42
1, 74392, Control_c, 0, 64, 54
1, 74406, Control_c, 0, 64, 68
1, 74421, Control_c, 0, 64, 109
1, 74426, Note_off_c, 0, 66, 61
1, 74435, Note_off_c, 0, 83, 62
1, 74436, Control_c, 0, 64, 127
1, 74441, Note_off_c, 0, 71, 38
1, 74442, Note_off_c, 0, 63, 60
1, 74450, Note_off_c, 0, 82, 27
1, 74553, Note_on_c, 0, 80, 82
1, 74568, Note_on_c, 0, 68, 61
1, 74574, Note_on_c, 0, 62, 40
1, 74576, Note_on_c, 0, 59, 30
1, 74616, Note_off_c, 0, 68, 55
1, 74631, Note_off_c, 0, 62, 46
1, 74776, Note_off_c, 0, 59, 40
1, 74799, Control_c, 0, 64, 103
1, 74814, Control_c, 0, 64, 88
1, 74817, Note_on_c, 0, 61, 35
1, 74830, Control_c, 0, 64, 77
1, 74832, Note_on_c, 0, 64, 37
1, 74838, Note_on_c, 0, 82, 70
1, 74845, Control_c, 0, 64, 68
1, 74860, Control_c, 0, 64, 60
1, 74862, Note_on_c, 0, 70, 48
1, 74874, Control_c, 0, 64, 45
1, 74883, Note_off_c, 0, 80, 55
1, 74889, Control_c, 0, 64, 0
1, 74993, Control_c, 0, 64, 22
1, 74999, Note_off_c, 0, 70, 44
1, 75008, Control_c, 0, 64, 42
1, 75022, Control_c, 0, 64, 58
1, 75037, Control_c, 0, 64, 77
1, 75052, Control_c, 0, 64, 127
1, 75065, Note_off_c, 0, 82, 62
1, 75098, Note_off_c, 0, 61, 64
1, 75098, Note_off_c, 0, 64, 41
1, 75110, Note_on_c, 0, 80, 71
1, 75125, Note_on_c, 0, 68, 51
1, 75204, Note_off_c, 0, 68, 37
1, 75214, Note_off_c, 0, 80, 60
1, 75310, Note_on_c, 0, 78, 73
1, 75321, Note_on_c, 0, 58, 43
1, 75323, Note_on_c, 0, 66, 58
1, 75331, Note_on_c, 0, 61, 42
1, 75408, Note_off_c, 0, 61, 53
1, 75410, Note_off_c, 0, 66, 56
1, 75421, Note_off_c, 0, 78, 65
1, 75509, Note_off_c, 0, 58, 29
1, 75518, Note_on_c, 0, 77, 76
1, 75530, Note_on_c, 0, 57, 47
1, 75533, Note_on_c, 0, 65, 54
1, 75540, Note_on_c, 0, 60, 38
1, 75591, Note_off_c, 0, 65, 59
1, 75712, Control_c, 0, 64, 107
1, 75727, Control_c, 0, 64, 71
1, 75733, Note_off_c, 0, 57, 49
1, 75734, Note_off_c, 0, 60, 42
1, 75742, Control_c, 0, 64, 50
1, 75755, Note_on_c, 0, 78, 62
1, 75757, Control_c, 0, 64, 0
1, 75775, Note_on_c, 0, 58, 31
1, 75778, Note_on_c, 0, 66, 46
1, 75781, Note_on_c, 0, 61, 45
1, 75799, Note_off_c, 0, 77, 54
1, 75845, Control_c, 0, 64, 33
1, 75860, Control_c, 0, 64, 49
1, 75867, Note_off_c, 0, 61, 65
1, 75875, Control_c, 0, 64, 64
1, 75885, Note_off_c, 0, 58, 57
1, 75885, Note_off_c, 0, 78, 65
1, 75889, Control_c, 0, 64, 84
1, 75904, Control_c, 0, 64, 127
1, 75915, Note_off_c, 0, 66, 37
1, 76019, Note_on_c, 0, 75, 60
1, 76019, Note_on_c, 0, 57, 37
1, 76040, Note_on_c, 0, 63, 36
1, 76049, Note_on_c, 0, 54, 39
1, 76061, Note_off_c, 0, 57, 46
1, 76100, Note_off_c, 0, 63, 47
1, 76183, Note_on_c, 0, 48, 48
1, 76220, Note_off_c, 0, 54, 38
1, 76222, Note_off_c, 0, 48, 59
1, 76261, Note_on_c, 0, 56, 38
1, 76400, Control_c, 0, 64, 108
1, 76415, Control_c, 0, 64, 90
1, 76430, Control_c, 0, 64, 78
1, 76445, Control_c, 0, 64, 67
1, 76451, Note_on_c, 0, 63, 44
1, 76454, Note_off_c, 0, 75, 60
1, 76460, Control_c, 0, 64, 57
1, 76466, Note_on_c, 0, 80, 48
1, 76475, Control_c, 0, 64, 37
1, 76481, Note_on_c, 0, 68, 31
1, 76490, Control_c, 0, 64, 0
1, 76502, Note_off_c, 0, 80, 0
1, 76502, Note_on_c, 0, 80, 21
1, 76594, Control_c, 0, 64, 29
1, 76609, Control_c, 0, 64, 49
1, 76623, Control_c, 0, 64, 64
1, 76638, Control_c, 0, 64, 97
1, 76653, Control_c, 0, 64, 127
1, 76693, Note_off_c, 0, 68, 39
1, 76707, Note_off_c, 0, 63, 63
1, 76800, Note_off_c, 0, 80, 43
1, 76803, Note_on_c, 0, 78, 59
1, 76844, Note_on_c, 0, 66, 38
1, 76889, Note_off_c, 0, 78, 63
1, 76895, Note_off_c, 0, 66, 45
1, 77030, Control_c, 0, 64, 99
1, 77040, Note_on_c, 0, 61, 41
1, 77045, Control_c, 0, 64, 76
1, 77053, Note_on_c, 0, 76, 60
1, 77053, Note_on_c, 0, 49, 35
1, 77060, Control_c, 0, 64, 63
1, 77066, Note_on_c, 0, 64, 45
1, 77074, Control_c, 0, 64, 53
1, 77089, Control_c, 0, 64, 35
1, 77104, Control_c, 0, 64, 30
1, 77119, Control_c, 0, 64, 34
1, 77134, Control_c, 0, 64, 41
1, 77149, Control_c, 0, 64, 51
1, 77152, Note_off_c, 0, 64, 57
1, 77164, Control_c, 0, 64, 63
1, 77179, Control_c, 0, 64, 92
1, 77183, Note_off_c, 0, 56, 41
1, 77193, Control_c, 0, 64, 127
1, 77282, Note_on_c, 0, 75, 69
1, 77294, Note_on_c, 0, 63, 57
1, 77314, Note_off_c, 0, 76, 59
1, 77418, Note_off_c, 0, 63, 59
1, 77445, Note_off_c, 0, 61, 38
1, 77505, Control_c, 0, 64, 79
1, 77508, Note_on_c, 0, 76, 68
1, 77520, Control_c, 0, 64, 61
1, 77530, Note_on_c, 0, 64, 48
1, 77535, Control_c, 0, 64, 45
1, 77536, Note_off_c, 0, 75, 52
1, 77539, Note_on_c, 0, 55, 39
1, 77542, Note_on_c, 0, 52, 38
1, 77550, Control_c, 0, 64, 18
1, 77564, Control_c, 0, 64, 0
1, 77579, Control_c, 0, 64, 17
1, 77602, Control_c, 0, 64, 28
1, 77617, Control_c, 0, 64, 40
1, 77631, Control_c, 0, 64, 56
1, 77646, Control_c, 0, 64, 75
1, 77647, Note_off_c, 0, 64, 60
1, 77661, Control_c, 0, 64, 127
1, 77680, Note_off_c, 0, 76, 58
1, 77691, Note_off_c, 0, 49, 45
1, 77739, Note_off_c, 0, 55, 64
1, 77764, Note_off_c, 0, 52, 64
1, 77793, Note_on_c, 0, 73, 65
1, 77799, Note_on_c, 0, 61, 61
1, 77877, Note_off_c, 0, 73, 64
1, 77912, Note_off_c, 0, 61, 58
1, 78108, Note_on_c, 0, 42, 28
1, 78123, Note_on_c, 0, 54, 27
1, 78128, Note_on_c, 0, 70, 64
1, 78136, Control_c, 0, 64, 103
1, 78144, Note_on_c, 0, 64, 43
1, 78151, Control_c, 0, 64, 75
1, 78156, Note_on_c, 0, 58, 33
1, 78166, Control_c, 0, 64, 62
1, 78181, Control_c, 0, 64, 47
1, 78195, Control_c, 0, 64, 15
1, 78210, Control_c, 0, 64, 0
1, 78270, Control_c, 0, 64, 17
1, 78285, Control_c, 0, 64, 34
1, 78300, Control_c, 0, 64, 50
1, 78314, Control_c, 0, 64, 65
1, 78329, Control_c, 0, 64, 127
1, 78421, Note_off_c, 0, 58, 40
1, 78443, Note_off_c, 0, 54, 41
1, 78497, Note_off_c, 0, 70, 60
1, 78539, Note_off_c, 0, 64, 47
1, 78841, Control_c, 0, 64, 106
1, 78856, Control_c, 0, 64, 95
1, 78870, Control_c, 0, 64, 87
1, 78885, Control_c, 0, 64, 81
1, 78897, Note_on_c, 0, 71, 31
1, 78900, Control_c, 0, 64, 75
1, 78906, Note_on_c, 0, 59, 29
1, 78910, Note_on_c, 0, 63, 35
1, 78913, Note_on_c, 0, 54, 33
1, 78915, Control_c, 0, 64, 68
1, 78925, Note_on_c, 0, 47, 35
1, 78930, Control_c, 0, 64, 62
1, 78944, Control_c, 0, 64, 54
1, 78959, Control_c, 0, 64, 39
1, 78974, Control_c, 0, 64, 15
1, 78988, Control_c, 0, 64, 0
1, 78996, Note_off_c, 0, 42, 35
1, 79078, Control_c, 0, 64, 8
1, 79100, Control_c, 0, 64, 22
1, 79115, Control_c, 0, 64, 33
1, 79130, Control_c, 0, 64, 44
1, 79144, Control_c, 0, 64, 55
1, 79159, Control_c, 0, 64, 65
1, 79174, Control_c, 0, 64, 76
1, 79189, Control_c, 0, 64, 85
1, 79203, Control_c, 0, 64, 88
1, 79218, Control_c, 0, 64, 93
1, 79233, Control_c, 0, 64, 100
1, 79248, Control_c, 0, 64, 108
1, 79249, Note_off_c, 0, 71, 43
1, 79263, Control_c, 0, 64, 122
1, 79277, Control_c, 0, 64, 127
1, 79279, Note_off_c, 0, 59, 40
1, 79289, Note_off_c, 0, 54, 42
1, 79340, Note_off_c, 0, 47, 38
1, 79430, Note_off_c, 0, 63, 46
1, 79634, Control_c, 0, 64, 119
1, 79649, Control_c, 0, 64, 115
1, 79664, Control_c, 0, 64, 113
1, 79679, Control_c, 0, 64, 111
1, 79693, Control_c, 0, 64, 110
1, 79708, Control_c, 0, 64, 108
1, 79723, Control_c, 0, 64, 105
1, 79738, Control_c, 0, 64, 103
1, 79753, Control_c, 0, 64, 101
1, 79767, Control_c, 0, 64, 99
1, 79782, Control_c, 0, 64, 97
1, 79797, Control_c, 0, 64, 95
1, 79811, Control_c, 0, 64, 92
1, 79826, Control_c, 0, 64, 88
1, 79849, Control_c, 0, 64, 84
1, 79864, Control_c, 0, 64, 79
1, 79879, Control_c, 0, 64, 75
1, 79888, Note_on_c, 0, 60, 50
1, 79893, Control_c, 0, 64, 71
1, 79895, Note_on_c, 0, 72, 46
1, 79908, Control_c, 0, 64, 67
1, 79923, Control_c, 0, 64, 62
1, 79938, Control_c, 0, 64, 55
1, 79953, Control_c, 0, 64, 42
1, 79967, Control_c, 0, 64, 22
1, 79982, Control_c, 0, 64, 0
1, 80100, Control_c, 0, 64, 19
1, 80115, Control_c, 0, 64, 33
1, 80130, Control_c, 0, 64, 44
1, 80145, Control_c, 0, 64, 58
1, 80160, Control_c, 0, 64, 67
1, 80174, Control_c, 0, 64, 83
1, 80189, Control_c, 0, 64, 95
1, 80204, Control_c, 0, 64, 101
1, 80219, Control_c, 0, 64, 114
1, 80234, Control_c, 0, 64, 127
1, 80276, Note_off_c, 0, 60, 54
1, 80307, Note_off_c, 0, 72, 53
1, 80518, Note_on_c, 0, 54, 27
1, 80545, Note_on_c, 0, 45, 23
1, 80597, Control_c, 0, 64, 103
1, 80612, Control_c, 0, 64, 91
1, 80619, Note_on_c, 0, 73, 45
1, 80627, Control_c, 0, 64, 79
1, 80633, Note_on_c, 0, 61, 38
1, 80641, Control_c, 0, 64, 69
1, 80656, Control_c, 0, 64, 59
1, 80671, Control_c, 0, 64, 43
1, 80686, Control_c, 0, 64, 12
1, 80701, Control_c, 0, 64, 0
1, 80760, Control_c, 0, 64, 19
1, 80774, Control_c, 0, 64, 34
1, 80789, Control_c, 0, 64, 48
1, 80804, Control_c, 0, 64, 64
1, 80819, Control_c, 0, 64, 87
1, 80833, Control_c, 0, 64, 127
1, 80845, Note_off_c, 0, 73, 53
1, 80856, Note_on_c, 0, 75, 51
1, 80961, Note_off_c, 0, 75, 59
1, 80979, Note_on_c, 0, 73, 44
1, 81023, Note_off_c, 0, 61, 43
1, 81037, Note_off_c, 0, 73, 53
1, 81128, Note_on_c, 0, 72, 51
1, 81136, Note_on_c, 0, 60, 40
1, 81173, Note_off_c, 0, 60, 54
1, 81306, Note_off_c, 0, 72, 33
1, 81326, Note_on_c, 0, 73, 52
1, 81359, Note_on_c, 0, 61, 18
1, 81372, Note_off_c, 0, 54, 38
1, 81400, Note_off_c, 0, 61, 51
1, 81439, Note_on_c, 0, 42, 37
1, 81447, Note_off_c, 0, 45, 44
1, 81474, Note_off_c, 0, 42, 59
1, 81612, Control_c, 0, 64, 105
1, 81616, Note_on_c, 0, 76, 54
1, 81626, Note_off_c, 0, 73, 37
1, 81627, Control_c, 0, 64, 80
1, 81629, Note_on_c, 0, 69, 36
1, 81633, Note_on_c, 0, 64, 31
1, 81642, Control_c, 0, 64, 65
1, 81649, Note_on_c, 0, 57, 34
1, 81656, Control_c, 0, 64, 53
1, 81671, Control_c, 0, 64, 31
1, 81686, Control_c, 0, 64, 22
1, 81701, Control_c, 0, 64, 25
1, 81716, Control_c, 0, 64, 33
1, 81731, Control_c, 0, 64, 42
1, 81744, Note_off_c, 0, 76, 64
1, 81745, Control_c, 0, 64, 55
1, 81760, Control_c, 0, 64, 70
1, 81770, Note_off_c, 0, 64, 50
1, 81775, Control_c, 0, 64, 111
1, 81790, Control_c, 0, 64, 127
1, 81902, Note_on_c, 0, 75, 57
1, 81912, Note_on_c, 0, 63, 44
1, 81981, Note_off_c, 0, 63, 48
1, 81994, Note_off_c, 0, 75, 57
1, 82144, Note_on_c, 0, 44, 33
1, 82199, Control_c, 0, 64, 91
1, 82213, Control_c, 0, 64, 69
1, 82228, Control_c, 0, 64, 56
1, 82240, Note_on_c, 0, 61, 42
1, 82243, Control_c, 0, 64, 31
1, 82258, Note_on_c, 0, 73, 37
1, 82258, Control_c, 0, 64, 0
1, 82295, Note_off_c, 0, 69, 45
1, 82309, Note_off_c, 0, 57, 53
1, 82318, Control_c, 0, 64, 23
1, 82333, Control_c, 0, 64, 36
1, 82347, Control_c, 0, 64, 53
1, 82362, Control_c, 0, 64, 67
1, 82377, Control_c, 0, 64, 98
1, 82392, Control_c, 0, 64, 127
1, 82404, Note_off_c, 0, 61, 40
1, 82433, Note_off_c, 0, 73, 38
1, 82538, Note_on_c, 0, 72, 45
1, 82546, Note_on_c, 0, 56, 34
1, 82552, Note_on_c, 0, 60, 33
1, 82566, Note_on_c, 0, 68, 40
1, 82580, Note_off_c, 0, 72, 48
1, 82603, Note_off_c, 0, 60, 55
1, 82686, Note_off_c, 0, 56, 29
1, 82705, Note_off_c, 0, 44, 39
1, 82765, Note_on_c, 0, 55, 47
1, 82774, Note_on_c, 0, 70, 55
1, 82778, Note_on_c, 0, 58, 49
1, 82824, Note_off_c, 0, 58, 57
1, 82870, Note_off_c, 0, 70, 61
1, 82899, Note_off_c, 0, 68, 52
1, 82978, Note_on_c, 0, 54, 59
1, 82996, Note_on_c, 0, 72, 63
1, 83006, Note_on_c, 0, 60, 46
1, 83054, Note_off_c, 0, 55, 38
1, 83063, Note_off_c, 0, 60, 49
1, 83185, Control_c, 0, 64, 97
1, 83200, Control_c, 0, 64, 65
1, 83212, Note_on_c, 0, 73, 66
1, 83215, Note_on_c, 0, 52, 53
1, 83215, Control_c, 0, 64, 49
1, 83218, Note_on_c, 0, 49, 46
1, 83230, Note_on_c, 0, 61, 51
1, 83230, Control_c, 0, 64, 13
1, 83243, Note_off_c, 0, 54, 37
1, 83245, Control_c, 0, 64, 0
1, 83257, Note_off_c, 0, 72, 59
1, 83290, Control_c, 0, 64, 17
1, 83304, Control_c, 0, 64, 38
1, 83319, Note_off_c, 0, 61, 60
1, 83319, Control_c, 0, 64, 55
1, 83334, Control_c, 0, 64, 73
1, 83349, Control_c, 0, 64, 127
1, 83427, Note_off_c, 0, 49, 62
1, 83442, Note_on_c, 0, 75, 69
1, 83460, Note_on_c, 0, 63, 54
1, 83465, Note_off_c, 0, 52, 59
1, 83530, Note_off_c, 0, 63, 64
1, 83540, Note_off_c, 0, 75, 61
1, 83574, Note_off_c, 0, 73, 40
1, 83653, Control_c, 0, 64, 100
1, 83654, Note_on_c, 0, 48, 46
1, 83656, Note_on_c, 0, 57, 44
1, 83668, Control_c, 0, 64, 70
1, 83683, Control_c, 0, 64, 53
1, 83698, Control_c, 0, 64, 27
1, 83704, Note_on_c, 0, 76, 67
1, 83711, Note_on_c, 0, 64, 58
1, 83713, Control_c, 0, 64, 0
1, 83742, Control_c, 0, 64, 12
1, 83757, Control_c, 0, 64, 31
1, 83772, Control_c, 0, 64, 51
1, 83786, Control_c, 0, 64, 68
1, 83790, Note_off_c, 0, 64, 61
1, 83801, Control_c, 0, 64, 127
1, 83869, Note_off_c, 0, 76, 59
1, 83921, Note_on_c, 0, 78, 81
1, 83931, Note_on_c, 0, 66, 68
1, 83999, Note_off_c, 0, 66, 59
1, 84018, Note_off_c, 0, 78, 64
1, 84111, Note_on_c, 0, 45, 51
1, 84139, Note_on_c, 0, 75, 73
1, 84147, Note_on_c, 0, 63, 61
1, 84228, Note_off_c, 0, 63, 61
1, 84235, Note_off_c, 0, 57, 59
1, 84249, Note_off_c, 0, 75, 60
1, 84305, Note_off_c, 0, 45, 36
1, 84355, Note_on_c, 0, 76, 87
1, 84359, Note_off_c, 0, 48, 54
1, 84362, Note_on_c, 0, 64, 70
1, 84392, Note_off_c, 0, 64, 51
1, 84446, Note_off_c, 0, 76, 65
1, 84571, Note_on_c, 0, 60, 52
1, 84634, Note_on_c, 0, 80, 78
1, 84643, Note_on_c, 0, 68, 68
1, 84647, Note_on_c, 0, 72, 62
1, 84653, Control_c, 0, 64, 80
1, 84668, Control_c, 0, 64, 62
1, 84683, Control_c, 0, 64, 47
1, 84697, Control_c, 0, 64, 16
1, 84712, Control_c, 0, 64, 0
1, 84727, Control_c, 0, 64, 9
1, 84741, Control_c, 0, 64, 27
1, 84756, Control_c, 0, 64, 42
1, 84771, Control_c, 0, 64, 60
1, 84786, Control_c, 0, 64, 100
1, 84801, Control_c, 0, 64, 127
1, 84809, Note_off_c, 0, 80, 61
1, 84823, Note_off_c, 0, 68, 56
1, 84908, Note_on_c, 0, 78, 81
1, 84914, Note_on_c, 0, 66, 77
1, 84986, Note_off_c, 0, 78, 65
1, 85021, Note_off_c, 0, 66, 62
1, 85108, Note_on_c, 0, 47, 52
1, 85150, Control_c, 0, 64, 88
1, 85165, Control_c, 0, 64, 62
1, 85165, Note_on_c, 0, 76, 76
1, 85168, Note_on_c, 0, 64, 65
1, 85179, Control_c, 0, 64, 42
1, 85194, Control_c, 0, 64, 0
1, 85218, Note_off_c, 0, 72, 56
1, 85239, Control_c, 0, 64, 21
1, 85254, Note_off_c, 0, 60, 64
1, 85254, Control_c, 0, 64, 43
1, 85269, Note_off_c, 0, 76, 65
1, 85269, Control_c, 0, 64, 62
1, 85284, Control_c, 0, 64, 127
1, 85310, Note_off_c, 0, 64, 62
1, 85394, Note_off_c, 0, 47, 36
1, 85419, Note_on_c, 0, 75, 76
1, 85431, Note_on_c, 0, 63, 60
1, 85433, Note_on_c, 0, 59, 47
1, 85454, Note_on_c, 0, 71, 44
1, 85501, Note_off_c, 0, 75, 60
1, 85512, Note_off_c, 0, 63, 64
1, 85627, Note_on_c, 0, 58, 56
1, 85627, Note_on_c, 0, 73, 74
1, 85630, Note_on_c, 0, 61, 69
1, 85651, Note_off_c, 0, 59, 35
1, 85696, Note_off_c, 0, 61, 64
1, 85737, Note_off_c, 0, 73, 59
1, 85754, Note_off_c, 0, 71, 46
1, 85858, Note_on_c, 0, 75, 77
1, 85859, Note_on_c, 0, 57, 60
1, 85865, Note_on_c, 0, 63, 68
1, 85869, Note_off_c, 0, 58, 56
1, 85984, Note_off_c, 0, 63, 64
1, 86044, Note_off_c, 0, 75, 58
1, 86088, Note_on_c, 0, 52, 51
1, 86092, Control_c, 0, 64, 81
1, 86095, Note_on_c, 0, 56, 54
1, 86107, Control_c, 0, 64, 62
1, 86112, Note_on_c, 0, 76, 77
1, 86120, Note_on_c, 0, 64, 68
1, 86122, Control_c, 0, 64, 42
1, 86136, Control_c, 0, 64, 0
1, 86154, Note_off_c, 0, 57, 46
1, 86211, Control_c, 0, 64, 23
1, 86226, Control_c, 0, 64, 43
1, 86241, Control_c, 0, 64, 61
1, 86255, Control_c, 0, 64, 114
1, 86259, Note_off_c, 0, 64, 61
1, 86270, Control_c, 0, 64, 127
1, 86379, Note_on_c, 0, 78, 88
1, 86381, Note_on_c, 0, 57, 54
1, 86387, Note_on_c, 0, 66, 73
1, 86413, Note_off_c, 0, 76, 64
1, 86424, Note_off_c, 0, 56, 60
1, 86501, Note_off_c, 0, 52, 35
1, 86509, Note_off_c, 0, 66, 60
1, 86527, Note_off_c, 0, 57, 60
1, 86593, Note_off_c, 0, 78, 62
1, 86711, Note_on_c, 0, 59, 50
1, 86720, Note_on_c, 0, 52, 45
1, 86779, Note_on_c, 0, 68, 73
1, 86779, Note_on_c, 0, 80, 82
1, 86796, Note_on_c, 0, 74, 50
1, 86811, Control_c, 0, 64, 84
1, 86826, Control_c, 0, 64, 62
1, 86841, Control_c, 0, 64, 45
1, 86856, Control_c, 0, 64, 0
1, 86929, Control_c, 0, 64, 32
1, 86944, Control_c, 0, 64, 52
1, 86959, Control_c, 0, 64, 75
1, 86974, Control_c, 0, 64, 127
1, 86998, Poly_aftertouch_c, 0, 78, 127
1, 87028, Note_off_c, 0, 80, 62
1, 87045, Note_off_c, 0, 68, 60
1, 87052, Poly_aftertouch_c, 0, 78, 0
1, 87111, Note_on_c, 0, 79, 81
1, 87114, Note_on_c, 0, 58, 57
1, 87114, Note_on_c, 0, 67, 81
1, 87183, Note_off_c, 0, 59, 35
1, 87201, Note_off_c, 0, 67, 61
1, 87206, Note_off_c, 0, 79, 61
1, 87345, Note_on_c, 0, 70, 85
1, 87348, Note_on_c, 0, 82, 80
1, 87352, Note_on_c, 0, 61, 57
1, 87389, Note_on_c, 0, 80, 39
1, 87391, Note_off_c, 0, 58, 46
1, 87420, Note_off_c, 0, 82, 64
1, 87474, Note_off_c, 0, 70, 58
1, 87493, Note_off_c, 0, 80, 42
1, 87513, Note_off_c, 0, 52, 61
1, 87530, Note_off_c, 0, 74, 56
1, 87564, Note_off_c, 0, 61, 64
1, 87570, Note_on_c, 0, 59, 64
1, 87573, Note_on_c, 0, 80, 87
1, 87575, Note_on_c, 0, 68, 83
1, 87674, Note_off_c, 0, 68, 55
1, 87681, Note_off_c, 0, 80, 57
1, 87773, Note_on_c, 0, 51, 51
1, 87780, Note_off_c, 0, 59, 28
1, 87782, Control_c, 0, 64, 96
1, 87795, Note_on_c, 0, 75, 84
1, 87797, Control_c, 0, 64, 69
1, 87800, Note_on_c, 0, 68, 73
1, 87812, Control_c, 0, 64, 55
1, 87818, Note_on_c, 0, 80, 59
1, 87826, Control_c, 0, 64, 25
1, 87841, Control_c, 0, 64, 0
1, 87901, Control_c, 0, 64, 16
1, 87916, Control_c, 0, 64, 38
1, 87931, Control_c, 0, 64, 56
1, 87946, Control_c, 0, 64, 78
1, 87955, Note_off_c, 0, 80, 61
1, 87960, Control_c, 0, 64, 127
1, 87999, Note_off_c, 0, 68, 58
1, 88033, Note_on_c, 0, 79, 79
1, 88035, Note_on_c, 0, 58, 52
1, 88035, Note_on_c, 0, 67, 71
1, 88080, Note_off_c, 0, 51, 49
1, 88162, Note_off_c, 0, 67, 53
1, 88178, Note_off_c, 0, 79, 56
1, 88211, Note_off_c, 0, 75, 57
1, 88268, Note_on_c, 0, 63, 50
1, 88277, Note_on_c, 0, 51, 26
1, 88293, Control_c, 0, 64, 88
1, 88308, Control_c, 0, 64, 65
1, 88322, Note_off_c, 0, 58, 36
1, 88323, Control_c, 0, 64, 51
1, 88336, Note_on_c, 0, 73, 75
1, 88338, Control_c, 0, 64, 18
1, 88342, Note_on_c, 0, 79, 68
1, 88350, Note_on_c, 0, 67, 61
1, 88353, Control_c, 0, 64, 0
1, 88413, Control_c, 0, 64, 23
1, 88428, Control_c, 0, 64, 42
1, 88443, Control_c, 0, 64, 60
1, 88457, Control_c, 0, 64, 127
1, 88465, Note_off_c, 0, 79, 57
1, 88491, Note_off_c, 0, 67, 61
1, 88575, Note_off_c, 0, 63, 61
1, 88603, Note_on_c, 0, 57, 46
1, 88606, Note_on_c, 0, 78, 76
1, 88617, Note_on_c, 0, 66, 60
1, 88680, Note_off_c, 0, 66, 62
1, 88722, Note_off_c, 0, 78, 64
1, 88815, Note_on_c, 0, 81, 78
1, 88816, Note_on_c, 0, 60, 45
1, 88830, Note_on_c, 0, 69, 61
1, 88905, Note_off_c, 0, 69, 58
1, 88927, Note_off_c, 0, 81, 58
1, 88929, Note_off_c, 0, 60, 55
1, 89006, Note_off_c, 0, 57, 35
1, 89043, Note_on_c, 0, 79, 72
1, 89046, Note_on_c, 0, 58, 43
1, 89055, Note_on_c, 0, 67, 56
1, 89102, Note_off_c, 0, 51, 32
1, 89108, Note_off_c, 0, 58, 54
1, 89118, Note_off_c, 0, 67, 54
1, 89141, Note_off_c, 0, 79, 60
1, 89141, Note_off_c, 0, 73, 37
1, 89273, Note_on_c, 0, 50, 38
1, 89279, Control_c, 0, 64, 86
1, 89294, Control_c, 0, 64, 66
1, 89304, Note_on_c, 0, 79, 66
1, 89309, Control_c, 0, 64, 51
1, 89314, Note_on_c, 0, 74, 52
1, 89319, Note_on_c, 0, 67, 54
1, 89323, Control_c, 0, 64, 27
1, 89338, Control_c, 0, 64, 0
1, 89383, Control_c, 0, 64, 22
1, 89397, Control_c, 0, 64, 36
1, 89406, Note_off_c, 0, 67, 63
1, 89412, Control_c, 0, 64, 54
1, 89418, Note_off_c, 0, 79, 59
1, 89427, Control_c, 0, 64, 69
1, 89442, Control_c, 0, 64, 127
1, 89589, Note_on_c, 0, 78, 60
1, 89601, Note_on_c, 0, 66, 49
1, 89603, Note_on_c, 0, 57, 33
1, 89633, Note_off_c, 0, 74, 64
1, 89660, Note_off_c, 0, 66, 58
1, 89670, Note_off_c, 0, 50, 40
1, 89674, Note_off_c, 0, 78, 65
1, 89682, Note_off_c, 0, 57, 55
1, 89902, Note_on_c, 0, 50, 34
1, 89909, Control_c, 0, 64, 105
1, 89913, Note_on_c, 0, 62, 32
1, 89923, Control_c, 0, 64, 84
1, 89938, Control_c, 0, 64, 69
1, 89953, Control_c, 0, 64, 57
1, 89954, Note_on_c, 0, 78, 58
1, 89968, Control_c, 0, 64, 38
1, 89971, Note_on_c, 0, 72, 41
1, 89973, Note_on_c, 0, 66, 32
1, 89983, Control_c, 0, 64, 0
1, 90043, Control_c, 0, 64, 11
1, 90058, Control_c, 0, 64, 27
1, 90073, Control_c, 0, 64, 42
1, 90088, Control_c, 0, 64, 60
1, 90102, Control_c, 0, 64, 78
1, 90117, Control_c, 0, 64, 127
1, 90131, Note_off_c, 0, 78, 59
1, 90147, Note_off_c, 0, 66, 53
1, 90271, Note_on_c, 0, 77, 56
1, 90302, Note_on_c, 0, 56, 33
1, 90307, Note_on_c, 0, 65, 26
1, 90351, Note_off_c, 0, 72, 59
1, 90367, Note_off_c, 0, 65, 45
1, 90377, Note_off_c, 0, 56, 55
1, 90392, Note_off_c, 0, 77, 56
1, 90427, Note_off_c, 0, 62, 41
1, 90521, Note_on_c, 0, 77, 69
1, 90544, Note_on_c, 0, 65, 50
1, 90544, Note_on_c, 0, 72, 62
1, 90555, Note_on_c, 0, 56, 32
1, 90730, Note_off_c, 0, 56, 40
1, 90749, Note_on_c, 0, 55, 49
1, 90754, Note_on_c, 0, 71, 75
1, 90799, Note_off_c, 0, 55, 62
1, 90815, Note_off_c, 0, 72, 58
1, 90822, Note_off_c, 0, 77, 42
1, 90825, Note_off_c, 0, 65, 61
1, 90864, Note_off_c, 0, 71, 63
1, 90957, Note_on_c, 0, 77, 74
1, 90968, Control_c, 0, 64, 88
1, 90971, Note_on_c, 0, 71, 72
1, 90980, Note_on_c, 0, 65, 59
1, 90983, Note_on_c, 0, 55, 47
1, 90983, Control_c, 0, 64, 67
1, 90998, Control_c, 0, 64, 56
1, 91013, Control_c, 0, 64, 41
1, 91028, Control_c, 0, 64, 34
1, 91043, Control_c, 0, 64, 40
1, 91058, Control_c, 0, 64, 48
1, 91060, Note_off_c, 0, 65, 63
1, 91080, Control_c, 0, 64, 59
1, 91083, Note_off_c, 0, 77, 60
1, 91095, Control_c, 0, 64, 73
1, 91109, Control_c, 0, 64, 127
1, 91188, Note_on_c, 0, 76, 77
1, 91194, Note_on_c, 0, 49, 53
1, 91195, Note_on_c, 0, 64, 65
1, 91199, Note_off_c, 0, 55, 41
1, 91231, Note_off_c, 0, 50, 40
1, 91260, Note_off_c, 0, 71, 65
1, 91290, Note_off_c, 0, 76, 62
1, 91294, Note_off_c, 0, 64, 55
1, 91421, Control_c, 0, 64, 94
1, 91424, Note_on_c, 0, 55, 47
1, 91436, Control_c, 0, 64, 75
1, 91444, Note_on_c, 0, 71, 63
1, 91450, Control_c, 0, 64, 63
1, 91452, Note_on_c, 0, 64, 50
1, 91453, Note_on_c, 0, 76, 61
1, 91465, Control_c, 0, 64, 50
1, 91480, Control_c, 0, 64, 27
1, 91494, Control_c, 0, 64, 0
1, 91568, Control_c, 0, 64, 16
1, 91583, Control_c, 0, 64, 31
1, 91599, Control_c, 0, 64, 45
1, 91615, Control_c, 0, 64, 62
1, 91618, Note_off_c, 0, 55, 61
1, 91630, Control_c, 0, 64, 86
1, 91645, Control_c, 0, 64, 127
1, 91700, Note_on_c, 0, 70, 76
1, 91780, Note_off_c, 0, 71, 51
1, 91809, Note_off_c, 0, 64, 59
1, 91829, Note_off_c, 0, 76, 50
1, 91851, Note_off_c, 0, 70, 61
1, 91933, Control_c, 0, 64, 115
1, 91948, Control_c, 0, 64, 78
1, 91950, Note_on_c, 0, 54, 46
1, 91963, Control_c, 0, 64, 63
1, 91968, Note_on_c, 0, 76, 66
1, 91974, Note_on_c, 0, 70, 66
1, 91978, Control_c, 0, 64, 50
1, 91993, Control_c, 0, 64, 25
1, 91999, Note_on_c, 0, 64, 49
1, 92007, Control_c, 0, 64, 0
1, 92022, Control_c, 0, 64, 11
1, 92037, Control_c, 0, 64, 20
1, 92052, Control_c, 0, 64, 29
1, 92053, Note_off_c, 0, 64, 0
1, 92053, Note_on_c, 0, 64, 20
1, 92067, Control_c, 0, 64, 38
1, 92081, Control_c, 0, 64, 51
1, 92096, Control_c, 0, 64, 66
1, 92111, Control_c, 0, 64, 105
1, 92118, Note_off_c, 0, 64, 58
1, 92125, Control_c, 0, 64, 127
1, 92235, Note_on_c, 0, 75, 75
1, 92244, Note_on_c, 0, 63, 66
1, 92279, Note_off_c, 0, 76, 43
1, 92373, Note_off_c, 0, 63, 58
1, 92387, Note_off_c, 0, 70, 60
1, 92412, Note_off_c, 0, 75, 59
1, 92543, Note_on_c, 0, 42, 33
1, 92556, Control_c, 0, 64, 88
1, 92578, Note_on_c, 0, 76, 61
1, 92578, Control_c, 0, 64, 72
1, 92593, Control_c, 0, 64, 62
1, 92608, Note_on_c, 0, 63, 49
1, 92608, Control_c, 0, 64, 48
1, 92612, Note_off_c, 0, 49, 57
1, 92623, Control_c, 0, 64, 18
1, 92626, Note_on_c, 0, 70, 45
1, 92632, Note_on_c, 0, 75, 63
1, 92638, Control_c, 0, 64, 0
1, 92653, Note_off_c, 0, 63, 0
1, 92653, Note_on_c, 0, 63, 10
1, 92681, Note_off_c, 0, 76, 55
1, 92742, Control_c, 0, 64, 23
1, 92756, Control_c, 0, 64, 39
1, 92771, Control_c, 0, 64, 56
1, 92786, Control_c, 0, 64, 69
1, 92801, Control_c, 0, 64, 98
1, 92816, Control_c, 0, 64, 127
1, 92902, Note_off_c, 0, 63, 47
1, 92954, Note_off_c, 0, 54, 58
1, 92954, Note_off_c, 0, 75, 36
1, 93017, Note_on_c, 0, 74, 53
1, 93043, Note_on_c, 0, 62, 36
1, 93146, Note_off_c, 0, 74, 61
1, 93212, Note_off_c, 0, 62, 43
1, 93690, Note_on_c, 0, 54, 21
1, 93694, Note_on_c, 0, 47, 29
1, 93727, Control_c, 0, 64, 108
1, 93742, Control_c, 0, 64, 88
1, 93752, Note_on_c, 0, 71, 58
1, 93757, Control_c, 0, 64, 75
1, 93771, Control_c, 0, 64, 65
1, 93781, Note_off_c, 0, 70, 55
1, 93786, Control_c, 0, 64, 56
1, 93795, Note_on_c, 0, 63, 36
1, 93801, Control_c, 0, 64, 33
1, 93804, Note_off_c, 0, 42, 39
1, 93816, Control_c, 0, 64, 0
1, 93824, Note_on_c, 0, 75, 7
1, 93854, Note_off_c, 0, 63, 0
1, 93854, Note_on_c, 0, 63, 6
1, 93919, Control_c, 0, 64, 25
1, 93934, Control_c, 0, 64, 43
1, 93949, Control_c, 0, 64, 59
1, 93964, Control_c, 0, 64, 79
1, 93979, Control_c, 0, 64, 127
1, 94027, Note_off_c, 0, 75, 37
1, 94060, Note_off_c, 0, 63, 40
1, 94153, Note_on_c, 0, 76, 50
1, 94161, Note_on_c, 0, 64, 38
1, 94211, Note_off_c, 0, 76, 60
1, 94219, Note_off_c, 0, 64, 60
1, 94363, Note_off_c, 0, 54, 40
1, 94369, Note_on_c, 0, 70, 71
1, 94391, Note_on_c, 0, 63, 39
1, 94453, Note_off_c, 0, 71, 32
1, 94476, Note_off_c, 0, 63, 38
1, 94595, Note_on_c, 0, 73, 54
1, 94597, Note_on_c, 0, 61, 53
1, 94639, Note_off_c, 0, 70, 60
1, 94660, Note_on_c, 0, 40, 48
1, 94668, Note_off_c, 0, 61, 62
1, 94693, Note_off_c, 0, 40, 51
1, 94701, Note_off_c, 0, 73, 56
1, 94751, Note_off_c, 0, 47, 44
1, 94787, Control_c, 0, 64, 92
1, 94801, Note_on_c, 0, 68, 79
1, 94802, Control_c, 0, 64, 75
1, 94824, Control_c, 0, 64, 68
1, 94837, Note_on_c, 0, 56, 54
1, 94839, Control_c, 0, 64, 67
1, 94849, Note_on_c, 0, 63, 42
1, 94854, Control_c, 0, 64, 67
1, 94869, Control_c, 0, 64, 72
1, 94884, Control_c, 0, 64, 82
1, 94898, Control_c, 0, 64, 102
1, 94913, Control_c, 0, 64, 127
1, 94951, Note_off_c, 0, 63, 37
1, 94952, Note_off_c, 0, 56, 64
1, 95015, Note_on_c, 0, 76, 70
1, 95035, Note_on_c, 0, 64, 53
1, 95082, Note_off_c, 0, 76, 62
1, 95084, Note_off_c, 0, 64, 60
1, 95090, Note_on_c, 0, 42, 54
1, 95121, Note_off_c, 0, 42, 59
1, 95124, Note_off_c, 0, 68, 58
1, 95163, Note_on_c, 0, 52, 50
1, 95254, Control_c, 0, 64, 106
1, 95268, Control_c, 0, 64, 80
1, 95283, Control_c, 0, 64, 65
1, 95290, Note_on_c, 0, 68, 71
1, 95294, Note_on_c, 0, 58, 41
1, 95298, Control_c, 0, 64, 52
1, 95313, Control_c, 0, 64, 26
1, 95318, Note_on_c, 0, 63, 51
1, 95328, Control_c, 0, 64, 0
1, 95330, Note_on_c, 0, 75, 41
1, 95388, Control_c, 0, 64, 29
1, 95403, Control_c, 0, 64, 46
1, 95415, Note_off_c, 0, 75, 32
1, 95417, Control_c, 0, 64, 62
1, 95432, Control_c, 0, 64, 103
1, 95442, Note_off_c, 0, 63, 61
1, 95447, Control_c, 0, 64, 127
1, 95507, Note_off_c, 0, 58, 61
1, 95576, Note_on_c, 0, 61, 52
1, 95576, Note_on_c, 0, 73, 46
1, 95636, Note_off_c, 0, 61, 59
1, 95650, Note_off_c, 0, 73, 52
1, 95683, Note_off_c, 0, 68, 59
1, 95762, Note_on_c, 0, 71, 62
1, 95783, Note_on_c, 0, 59, 41
1, 95783, Note_on_c, 0, 54, 43
1, 95821, Note_off_c, 0, 59, 55
1, 95835, Note_off_c, 0, 71, 62
1, 95954, Note_off_c, 0, 52, 39
1, 95968, Note_on_c, 0, 66, 68
1, 95983, Note_on_c, 0, 61, 53
1, 96033, Note_off_c, 0, 61, 53
1, 96211, Control_c, 0, 64, 117
1, 96218, Note_on_c, 0, 47, 41
1, 96226, Control_c, 0, 64, 83
1, 96241, Control_c, 0, 64, 66
1, 96241, Note_on_c, 0, 75, 50
1, 96253, Note_on_c, 0, 63, 30
1, 96255, Control_c, 0, 64, 52
1, 96270, Control_c, 0, 64, 22
1, 96284, Control_c, 0, 64, 0
1, 96295, Note_off_c, 0, 75, 0
1, 96295, Note_on_c, 0, 75, 18
1, 96366, Control_c, 0, 64, 25
1, 96381, Control_c, 0, 64, 44
1, 96397, Control_c, 0, 64, 62
1, 96411, Control_c, 0, 64, 89
1, 96426, Control_c, 0, 64, 127
1, 96489, Note_on_c, 0, 71, 46
1, 96508, Note_off_c, 0, 75, 39
1, 96510, Note_off_c, 0, 66, 61
1, 96528, Note_off_c, 0, 47, 41
1, 96532, Note_off_c, 0, 54, 40
1, 96543, Note_off_c, 0, 63, 44
1, 96567, Note_off_c, 0, 71, 59
1, 96791, Note_on_c, 0, 75, 52
1, 96796, Control_c, 0, 64, 114
1, 96811, Control_c, 0, 64, 74
1, 96812, Note_on_c, 0, 63, 34
1, 96826, Control_c, 0, 64, 59
1, 96841, Control_c, 0, 64, 39
1, 96856, Control_c, 0, 64, 0
1, 96885, Control_c, 0, 64, 18
1, 96900, Control_c, 0, 64, 31
1, 96915, Control_c, 0, 64, 46
1, 96930, Control_c, 0, 64, 61
1, 96945, Control_c, 0, 64, 88
1, 96960, Control_c, 0, 64, 127
1, 96995, Note_off_c, 0, 63, 53
1, 96995, Note_off_c, 0, 75, 60
1, 97033, Note_on_c, 0, 76, 62
1, 97042, Note_on_c, 0, 64, 47
1, 97114, Note_off_c, 0, 64, 59
1, 97142, Note_off_c, 0, 76, 62
1, 97234, Control_c, 0, 64, 115
1, 97249, Control_c, 0, 64, 75
1, 97264, Control_c, 0, 64, 62
1, 97265, Note_on_c, 0, 51, 30
1, 97269, Note_on_c, 0, 59, 41
1, 97279, Control_c, 0, 64, 48
1, 97294, Control_c, 0, 64, 25
1, 97294, Note_on_c, 0, 77, 60
1, 97306, Note_on_c, 0, 65, 48
1, 97309, Control_c, 0, 64, 0
1, 97324, Control_c, 0, 64, 9
1, 97338, Control_c, 0, 64, 24
1, 97353, Control_c, 0, 64, 35
1, 97368, Control_c, 0, 64, 49
1, 97383, Control_c, 0, 64, 65
1, 97387, Note_off_c, 0, 65, 64
1, 97398, Control_c, 0, 64, 127
1, 97523, Note_on_c, 0, 78, 73
1, 97526, Note_off_c, 0, 59, 61
1, 97538, Note_on_c, 0, 66, 51
1, 97556, Note_off_c, 0, 77, 59
1, 97639, Note_off_c, 0, 66, 35
1, 97845, Note_on_c, 0, 61, 58
1, 97854, Note_off_c, 0, 78, 64
1, 97858, Note_on_c, 0, 52, 50
1, 97877, Note_on_c, 0, 82, 60
1, 97907, Note_on_c, 0, 70, 36
1, 97908, Control_c, 0, 64, 80
1, 97914, Note_off_c, 0, 51, 37
1, 97923, Control_c, 0, 64, 61
1, 97938, Control_c, 0, 64, 42
1, 97953, Control_c, 0, 64, 0
1, 98028, Control_c, 0, 64, 21
1, 98042, Control_c, 0, 64, 39
1, 98057, Note_off_c, 0, 70, 52
1, 98057, Control_c, 0, 64, 56
1, 98072, Control_c, 0, 64, 77
1, 98087, Control_c, 0, 64, 127
1, 98174, Note_on_c, 0, 80, 64
1, 98179, Note_on_c, 0, 68, 45
1, 98200, Note_off_c, 0, 82, 60
1, 98257, Note_off_c, 0, 80, 61
1, 98269, Note_off_c, 0, 61, 63
1, 98284, Note_off_c, 0, 68, 37
1, 98315, Note_off_c, 0, 52, 63
1, 98397, Note_on_c, 0, 78, 62
1, 98406, Note_on_c, 0, 66, 54
1, 98464, Note_off_c, 0, 78, 65
1, 98466, Note_off_c, 0, 66, 54
1, 98617, Note_on_c, 0, 76, 62
1, 98629, Note_on_c, 0, 64, 41
1, 98686, Note_on_c, 0, 42, 49
1, 98688, Note_off_c, 0, 64, 48
1, 98716, Note_off_c, 0, 42, 51
1, 98775, Note_on_c, 0, 52, 39
1, 98880, Control_c, 0, 64, 79
1, 98895, Control_c, 0, 64, 62
1, 98905, Note_on_c, 0, 63, 44
1, 98906, Note_on_c, 0, 58, 47
1, 98907, Note_on_c, 0, 75, 52
1, 98909, Control_c, 0, 64, 44
1, 98924, Control_c, 0, 64, 0
1, 98940, Note_off_c, 0, 76, 41
1, 98984, Control_c, 0, 64, 16
1, 98999, Control_c, 0, 64, 35
1, 99013, Note_off_c, 0, 63, 63
1, 99014, Control_c, 0, 64, 50
1, 99029, Control_c, 0, 64, 64
1, 99043, Control_c, 0, 64, 89
1, 99058, Control_c, 0, 64, 127
1, 99061, Note_off_c, 0, 75, 59
1, 99156, Note_on_c, 0, 61, 54
1, 99168, Note_off_c, 0, 58, 61
1, 99175, Note_on_c, 0, 73, 49
1, 99227, Note_off_c, 0, 61, 52
1, 99267, Note_off_c, 0, 52, 36
1, 99416, Note_off_c, 0, 73, 39
1, 99450, Control_c, 0, 64, 111
1, 99462, Note_on_c, 0, 59, 31
1, 99465, Control_c, 0, 64, 87
1, 99468, Note_on_c, 0, 75, 44
1, 99471, Note_on_c, 0, 51, 25
1, 99480, Control_c, 0, 64, 71
1, 99482, Note_on_c, 0, 47, 35
1, 99491, Note_on_c, 0, 63, 33
1, 99495, Control_c, 0, 64, 60
1, 99509, Control_c, 0, 64, 45
1, 99524, Control_c, 0, 64, 12
1, 99539, Control_c, 0, 64, 0
1, 99600, Control_c, 0, 64, 15
1, 99614, Control_c, 0, 64, 28
1, 99629, Control_c, 0, 64, 40
1, 99644, Control_c, 0, 64, 56
1, 99658, Control_c, 0, 64, 67
1, 99673, Control_c, 0, 64, 88
1, 99688, Control_c, 0, 64, 106
1, 99703, Control_c, 0, 64, 113
1, 99704, Note_off_c, 0, 47, 43
1, 99718, Control_c, 0, 64, 127
1, 99763, Note_off_c, 0, 59, 41
1, 99777, Note_off_c, 0, 51, 56
1, 99798, Note_off_c, 0, 75, 36
1, 99804, Note_off_c, 0, 63, 48
1, 99819, Note_on_c, 0, 71, 43
1, 100129, Note_off_c, 0, 71, 0
1, 100155, Control_c, 0, 64, 105
1, 100170, Control_c, 0, 64, 93
1, 100176, Note_on_c, 0, 48, 34
1, 100185, Control_c, 0, 64, 86
1, 100187, Note_on_c, 0, 57, 11
1, 100200, Control_c, 0, 64, 81
1, 100201, Poly_aftertouch_c, 0, 71, 0
1, 100210, Note_on_c, 0, 54, 34
1, 100214, Control_c, 0, 64, 76
1, 100228, Note_on_c, 0, 74, 36
1, 100229, Control_c, 0, 64, 70
1, 100244, Control_c, 0, 64, 63
1, 100255, Note_on_c, 0, 62, 34
1, 100258, Control_c, 0, 64, 54
1, 100273, Control_c, 0, 64, 35
1, 100288, Control_c, 0, 64, 0
1, 100392, Note_off_c, 0, 62, 56
1, 100393, Control_c, 0, 64, 18
1, 100408, Control_c, 0, 64, 38
1, 100423, Control_c, 0, 64, 52
1, 100437, Control_c, 0, 64, 65
1, 100452, Control_c, 0, 64, 85
1, 100467, Control_c, 0, 64, 119
1, 100482, Control_c, 0, 64, 127
1, 100535, Note_off_c, 0, 74, 59
1, 100549, Note_on_c, 0, 75, 51
1, 100577, Note_on_c, 0, 63, 25
1, 100677, Note_off_c, 0, 63, 48
1, 100763, Control_c, 0, 64, 92
1, 100778, Control_c, 0, 64, 72
1, 100779, Note_on_c, 0, 56, 55
1, 100793, Control_c, 0, 64, 62
1, 100799, Note_on_c, 0, 76, 49
1, 100812, Note_on_c, 0, 64, 39
1, 100814, Control_c, 0, 64, 49
1, 100829, Control_c, 0, 64, 30
1, 100832, Note_off_c, 0, 75, 33
1, 100844, Control_c, 0, 64, 16
1, 100850, Note_off_c, 0, 76, 0
1, 100850, Note_on_c, 0, 76, 21
1, 100859, Control_c, 0, 64, 19
1, 100874, Control_c, 0, 64, 25
1, 100885, Note_off_c, 0, 64, 50
1, 100889, Control_c, 0, 64, 35
1, 100901, Note_off_c, 0, 57, 39
1, 100904, Control_c, 0, 64, 46
1, 100919, Control_c, 0, 64, 59
1, 100934, Control_c, 0, 64, 75
1, 100948, Control_c, 0, 64, 127
1, 100989, Note_off_c, 0, 48, 47
1, 101005, Note_off_c, 0, 54, 41
1, 101023, Note_on_c, 0, 75, 61
1, 101029, Note_off_c, 0, 76, 40
1, 101035, Note_on_c, 0, 63, 47
1, 101075, Note_off_c, 0, 63, 52
1, 101186, Control_c, 0, 64, 89
1, 101201, Control_c, 0, 64, 72
1, 101216, Control_c, 0, 64, 61
1, 101227, Note_on_c, 0, 49, 57
1, 101231, Control_c, 0, 64, 48
1, 101244, Note_on_c, 0, 78, 61
1, 101246, Control_c, 0, 64, 29
1, 101259, Note_on_c, 0, 66, 39
1, 101260, Control_c, 0, 64, 19
1, 101275, Control_c, 0, 64, 23
1, 101290, Control_c, 0, 64, 31
1, 101304, Control_c, 0, 64, 39
1, 101319, Control_c, 0, 64, 52
1, 101334, Control_c, 0, 64, 65
1, 101348, Control_c, 0, 64, 127
1, 101357, Note_off_c, 0, 78, 66
1, 101367, Note_off_c, 0, 66, 58
1, 101394, Note_off_c, 0, 75, 59
1, 101422, Note_off_c, 0, 49, 62
1, 101437, Note_on_c, 0, 76, 76
1, 101446, Note_on_c, 0, 64, 62
1, 101453, Note_off_c, 0, 56, 65
1, 101521, Note_off_c, 0, 64, 57
1, 101546, Note_off_c, 0, 76, 60
1, 101636, Control_c, 0, 64, 98
1, 101639, Note_on_c, 0, 57, 55
1, 101644, Note_on_c, 0, 51, 56
1, 101646, Note_on_c, 0, 60, 54
1, 101651, Control_c, 0, 64, 78
1, 101666, Control_c, 0, 64, 64
1, 101681, Control_c, 0, 64, 53
1, 101696, Control_c, 0, 64, 32
1, 101697, Note_on_c, 0, 77, 70
1, 101710, Control_c, 0, 64, 0
1, 101714, Note_on_c, 0, 65, 51
1, 101755, Control_c, 0, 64, 15
1, 101770, Control_c, 0, 64, 26
1, 101784, Control_c, 0, 64, 39
1, 101799, Control_c, 0, 64, 54
1, 101807, Note_off_c, 0, 65, 65
1, 101814, Control_c, 0, 64, 70
1, 101828, Control_c, 0, 64, 127
1, 101887, Note_off_c, 0, 60, 59
1, 101910, Note_on_c, 0, 78, 81
1, 101920, Note_on_c, 0, 66, 67
1, 101938, Note_off_c, 0, 77, 58
1, 101984, Note_off_c, 0, 66, 59
1, 102087, Note_on_c, 0, 59, 77
1, 102097, Control_c, 0, 64, 103
1, 102112, Control_c, 0, 64, 84
1, 102126, Control_c, 0, 64, 69
1, 102140, Note_on_c, 0, 80, 67
1, 102141, Control_c, 0, 64, 60
1, 102143, Note_off_c, 0, 57, 58
1, 102151, Note_on_c, 0, 68, 46
1, 102156, Control_c, 0, 64, 47
1, 102171, Note_off_c, 0, 78, 50
1, 102171, Control_c, 0, 64, 31
1, 102186, Control_c, 0, 64, 21
1, 102200, Control_c, 0, 64, 22
1, 102215, Control_c, 0, 64, 26
1, 102230, Control_c, 0, 64, 35
1, 102232, Note_off_c, 0, 68, 56
1, 102245, Control_c, 0, 64, 46
1, 102260, Control_c, 0, 64, 61
1, 102275, Control_c, 0, 64, 97
1, 102290, Control_c, 0, 64, 127
1, 102338, Note_off_c, 0, 51, 64
1, 102338, Note_on_c, 0, 78, 81
1, 102348, Note_on_c, 0, 66, 70
1, 102400, Note_off_c, 0, 80, 36
1, 102419, Note_off_c, 0, 66, 62
1, 102533, Note_on_c, 0, 52, 72
1, 102534, Control_c, 0, 64, 87
1, 102548, Note_on_c, 0, 81, 81
1, 102549, Control_c, 0, 64, 65
1, 102555, Note_on_c, 0, 69, 67
1, 102564, Control_c, 0, 64, 51
1, 102575, Note_off_c, 0, 78, 61
1, 102578, Control_c, 0, 64, 16
1, 102593, Control_c, 0, 64, 0
1, 102645, Note_off_c, 0, 69, 62
1, 102653, Control_c, 0, 64, 25
1, 102667, Control_c, 0, 64, 44
1, 102682, Control_c, 0, 64, 62
1, 102697, Control_c, 0, 64, 127
1, 102722, Note_off_c, 0, 52, 66
1, 102745, Note_on_c, 0, 80, 84
1, 102759, Note_on_c, 0, 68, 80
1, 102773, Note_off_c, 0, 59, 61
1, 102776, Note_off_c, 0, 81, 61
1, 102897, Note_off_c, 0, 68, 58
1, 102899, Note_off_c, 0, 80, 60
1, 102987, Note_on_c, 0, 62, 62
1, 102991, Note_on_c, 0, 53, 60
1, 102994, Note_on_c, 0, 59, 55
1, 103038, Control_c, 0, 64, 93
1, 103061, Control_c, 0, 64, 72
1, 103071, Note_on_c, 0, 79, 86
1, 103076, Control_c, 0, 64, 57
1, 103079, Note_on_c, 0, 67, 74
1, 103090, Control_c, 0, 64, 33
1, 103105, Control_c, 0, 64, 0
1, 103194, Control_c, 0, 64, 23
1, 103208, Control_c, 0, 64, 43
1, 103223, Control_c, 0, 64, 60
1, 103224, Note_off_c, 0, 67, 61
1, 103238, Control_c, 0, 64, 89
1, 103253, Control_c, 0, 64, 127
1, 103324, Note_on_c, 0, 80, 85
1, 103331, Note_on_c, 0, 68, 79
1, 103357, Note_off_c, 0, 79, 57
1, 103412, Note_off_c, 0, 68, 58
1, 103485, Note_off_c, 0, 80, 60
1, 103530, Note_on_c, 0, 61, 77
1, 103535, Control_c, 0, 64, 76
1, 103538, Note_on_c, 0, 82, 87
1, 103545, Note_on_c, 0, 70, 73
1, 103549, Control_c, 0, 64, 57
1, 103564, Control_c, 0, 64, 36
1, 103566, Note_off_c, 0, 59, 59
1, 103580, Control_c, 0, 64, 16
1, 103595, Control_c, 0, 64, 25
1, 103610, Control_c, 0, 64, 38
1, 103616, Note_off_c, 0, 62, 52
1, 103624, Control_c, 0, 64, 54
1, 103639, Control_c, 0, 64, 73
1, 103654, Control_c, 0, 64, 127
1, 103667, Note_off_c, 0, 70, 60
1, 103685, Note_off_c, 0, 82, 63
1, 103741, Note_on_c, 0, 80, 88
1, 103744, Note_on_c, 0, 59, 76
1, 103744, Note_on_c, 0, 68, 77
1, 103765, Note_off_c, 0, 61, 64
1, 103821, Note_off_c, 0, 68, 60
1, 103895, Note_off_c, 0, 80, 60
1, 103958, Control_c, 0, 64, 81
1, 103973, Control_c, 0, 64, 64
1, 103980, Note_on_c, 0, 83, 87
1, 103987, Control_c, 0, 64, 52
1, 103989, Note_on_c, 0, 62, 64
1, 103989, Note_on_c, 0, 71, 75
1, 103992, Note_off_c, 0, 59, 56
1, 104002, Control_c, 0, 64, 24
1, 104017, Control_c, 0, 64, 0
1, 104091, Control_c, 0, 64, 20
1, 104105, Control_c, 0, 64, 43
1, 104120, Control_c, 0, 64, 62
1, 104135, Control_c, 0, 64, 127
1, 104179, Note_off_c, 0, 83, 62
1, 104190, Note_off_c, 0, 71, 61
1, 104219, Note_off_c, 0, 62, 61
1, 104354, Note_on_c, 0, 61, 66
1, 104362, Note_on_c, 0, 82, 80
1, 104366, Note_on_c, 0, 70, 74
1, 104388, Note_off_c, 0, 61, 65
1, 104397, Note_off_c, 0, 70, 61
1, 104403, Note_off_c, 0, 82, 58
1, 104447, Control_c, 0, 64, 88
1, 104458, Note_on_c, 0, 82, 82
1, 104462, Control_c, 0, 64, 70
1, 104470, Note_on_c, 0, 70, 73
1, 104471, Note_on_c, 0, 61, 72
1, 104477, Control_c, 0, 64, 61
1, 104492, Control_c, 0, 64, 53
1, 104507, Control_c, 0, 64, 47
1, 104521, Control_c, 0, 64, 50
1, 104536, Control_c, 0, 64, 57
1, 104558, Control_c, 0, 64, 67
1, 104573, Control_c, 0, 64, 95
1, 104588, Control_c, 0, 64, 127
1, 104638, Note_off_c, 0, 82, 64
1, 104639, Note_off_c, 0, 70, 61
1, 104729, Note_on_c, 0, 80, 85
1, 104734, Note_on_c, 0, 59, 68
1, 104737, Note_on_c, 0, 68, 75
1, 104737, Control_c, 0, 64, 101
1, 104752, Control_c, 0, 64, 73
1, 104767, Control_c, 0, 64, 62
1, 104768, Note_off_c, 0, 61, 62
1, 104781, Control_c, 0, 64, 50
1, 104796, Control_c, 0, 64, 34
1, 104811, Control_c, 0, 64, 31
1, 104826, Control_c, 0, 64, 38
1, 104841, Control_c, 0, 64, 49
1, 104855, Control_c, 0, 64, 64
1, 104870, Control_c, 0, 64, 127
1, 104910, Note_off_c, 0, 68, 59
1, 104922, Note_off_c, 0, 80, 61
1, 104993, Note_on_c, 0, 58, 66
1, 105003, Note_on_c, 0, 79, 87
1, 105003, Control_c, 0, 64, 88
1, 105015, Note_on_c, 0, 67, 71
1, 105018, Control_c, 0, 64, 66
1, 105033, Control_c, 0, 64, 53
1, 105047, Control_c, 0, 64, 31
1, 105054, Note_off_c, 0, 59, 54
1, 105062, Control_c, 0, 64, 0
1, 105121, Control_c, 0, 64, 20
1, 105136, Control_c, 0, 64, 35
1, 105151, Control_c, 0, 64, 51
1, 105166, Control_c, 0, 64, 67
1, 105172, Note_off_c, 0, 67, 62
1, 105181, Control_c, 0, 64, 127
1, 105282, Note_on_c, 0, 80, 90
1, 105288, Note_on_c, 0, 68, 80
1, 105289, Note_on_c, 0, 59, 70
1, 105318, Note_off_c, 0, 79, 59
1, 105382, Note_off_c, 0, 58, 58
1, 105444, Note_off_c, 0, 68, 52
1, 105604, Note_off_c, 0, 59, 55
1, 105722, Control_c, 0, 64, 108
1, 105731, Note_on_c, 0, 83, 80
1, 105737, Control_c, 0, 64, 82
1, 105746, Note_on_c, 0, 71, 61
1, 105751, Control_c, 0, 64, 66
1, 105756, Note_on_c, 0, 62, 47
1, 105766, Note_off_c, 0, 80, 61
1, 105766, Control_c, 0, 64, 56
1, 105781, Control_c, 0, 64, 35
1, 105795, Control_c, 0, 64, 0
1, 105944, Control_c, 0, 64, 10
1, 105959, Control_c, 0, 64, 31
1, 105975, Control_c, 0, 64, 45
1, 105990, Control_c, 0, 64, 59
1, 106005, Control_c, 0, 64, 73
1, 106020, Control_c, 0, 64, 119
1, 106034, Control_c, 0, 64, 127
1, 106035, Note_off_c, 0, 53, 41
1, 106138, Note_off_c, 0, 71, 59
1, 106156, Note_off_c, 0, 62, 56
1, 106186, Note_off_c, 0, 83, 61
1, 106605, Control_c, 0, 64, 109
1, 106619, Control_c, 0, 64, 102
1, 106634, Control_c, 0, 64, 97
1, 106649, Control_c, 0, 64, 93
1, 106664, Control_c, 0, 64, 91
1, 106679, Control_c, 0, 64, 88
1, 106693, Control_c, 0, 64, 86
1, 106708, Control_c, 0, 64, 84
1, 106723, Control_c, 0, 64, 82
1, 106738, Control_c, 0, 64, 82
1, 106774, Note_on_c, 0, 75, 74
1, 106836, Control_c, 0, 64, 81
1, 107050, Note_on_c, 0, 67, 38
1, 107057, Control_c, 0, 64, 80
1, 107061, Note_on_c, 0, 64, 36
1, 107072, Control_c, 0, 64, 79
1, 107087, Control_c, 0, 64, 76
1, 107102, Control_c, 0, 64, 72
1, 107117, Control_c, 0, 64, 67
1, 107131, Control_c, 0, 64, 62
1, 107146, Note_on_c, 0, 87, 80
1, 107146, Control_c, 0, 64, 53
1, 107161, Control_c, 0, 64, 36
1, 107176, Control_c, 0, 64, 0
1, 107280, Control_c, 0, 64, 34
1, 107295, Control_c, 0, 64, 51
1, 107310, Control_c, 0, 64, 66
1, 107324, Control_c, 0, 64, 127
1, 107447, Note_off_c, 0, 87, 64
1, 107483, Note_off_c, 0, 75, 60
1, 107520, Note_off_c, 0, 67, 42
1, 107662, Note_on_c, 0, 85, 70
1, 107692, Note_on_c, 0, 73, 42
1, 107781, Note_off_c, 0, 85, 63
1, 107844, Note_off_c, 0, 73, 44
1, 107929, Note_on_c, 0, 66, 41
1, 107948, Note_on_c, 0, 63, 30
1, 107951, Note_on_c, 0, 83, 67
1, 107954, Control_c, 0, 64, 106
1, 107969, Control_c, 0, 64, 80
1, 107981, Note_on_c, 0, 71, 52
1, 107984, Control_c, 0, 64, 66
1, 107998, Control_c, 0, 64, 58
1, 108013, Control_c, 0, 64, 46
1, 108028, Control_c, 0, 64, 36
1, 108043, Control_c, 0, 64, 37
1, 108058, Control_c, 0, 64, 43
1, 108070, Note_off_c, 0, 64, 34
1, 108073, Control_c, 0, 64, 52
1, 108079, Note_off_c, 0, 71, 64
1, 108088, Control_c, 0, 64, 63
1, 108103, Control_c, 0, 64, 84
1, 108117, Control_c, 0, 64, 127
1, 108162, Note_off_c, 0, 83, 53
1, 108194, Note_on_c, 0, 82, 80
1, 108201, Note_off_c, 0, 66, 33
1, 108204, Note_off_c, 0, 63, 47
1, 108204, Note_on_c, 0, 70, 71
1, 108217, Note_on_c, 0, 65, 50
1, 108234, Note_on_c, 0, 62, 41
1, 108323, Note_off_c, 0, 70, 55
1, 108337, Note_off_c, 0, 65, 48
1, 108362, Control_c, 0, 64, 90
1, 108377, Control_c, 0, 64, 71
1, 108382, Note_off_c, 0, 82, 62
1, 108392, Control_c, 0, 64, 61
1, 108407, Control_c, 0, 64, 53
1, 108420, Note_on_c, 0, 83, 83
1, 108422, Control_c, 0, 64, 51
1, 108436, Note_on_c, 0, 66, 54
1, 108436, Control_c, 0, 64, 56
1, 108439, Note_on_c, 0, 71, 59
1, 108443, Note_on_c, 0, 63, 58
1, 108451, Control_c, 0, 64, 65
1, 108459, Note_off_c, 0, 62, 42
1, 108466, Control_c, 0, 64, 85
1, 108481, Control_c, 0, 64, 127
1, 108502, Note_off_c, 0, 66, 61
1, 108520, Note_off_c, 0, 63, 64
1, 108520, Note_off_c, 0, 71, 58
1, 108529, Note_off_c, 0, 83, 60
1, 108633, Note_on_c, 0, 80, 86
1, 108653, Note_on_c, 0, 68, 58
1, 108658, Note_on_c, 0, 62, 53
1, 108661, Note_on_c, 0, 59, 47
1, 108698, Note_off_c, 0, 68, 53
1, 108716, Note_off_c, 0, 62, 53
1, 108859, Note_off_c, 0, 59, 54
1, 108867, Control_c, 0, 64, 103
1, 108882, Control_c, 0, 64, 86
1, 108890, Note_on_c, 0, 61, 44
1, 108894, Note_on_c, 0, 64, 41
1, 108896, Control_c, 0, 64, 76
1, 108911, Control_c, 0, 64, 66
1, 108923, Note_on_c, 0, 82, 76
1, 108926, Control_c, 0, 64, 57
1, 108941, Control_c, 0, 64, 38
1, 108946, Note_on_c, 0, 70, 46
1, 108955, Control_c, 0, 64, 0
1, 108958, Note_off_c, 0, 80, 55
1, 109067, Control_c, 0, 64, 21
1, 109077, Note_off_c, 0, 70, 57
1, 109082, Control_c, 0, 64, 41
1, 109097, Control_c, 0, 64, 60
1, 109111, Control_c, 0, 64, 83
1, 109126, Control_c, 0, 64, 127
1, 109140, Note_off_c, 0, 82, 64
1, 109155, Note_off_c, 0, 64, 57
1, 109182, Note_off_c, 0, 61, 63
1, 109192, Note_on_c, 0, 80, 78
1, 109206, Note_on_c, 0, 68, 55
1, 109275, Note_off_c, 0, 68, 50
1, 109308, Note_off_c, 0, 80, 61
1, 109400, Note_on_c, 0, 58, 46
1, 109404, Note_on_c, 0, 78, 79
1, 109420, Note_on_c, 0, 61, 40
1, 109423, Note_on_c, 0, 66, 59
1, 109507, Note_off_c, 0, 61, 52
1, 109509, Note_off_c, 0, 66, 57
1, 109521, Note_off_c, 0, 78, 64
1, 109615, Note_on_c, 0, 77, 80
1, 109630, Note_on_c, 0, 57, 45
1, 109630, Note_on_c, 0, 65, 60
1, 109635, Note_off_c, 0, 58, 32
1, 109638, Note_on_c, 0, 60, 42
1, 109644, Control_c, 0, 64, 110
1, 109659, Control_c, 0, 64, 72
1, 109674, Control_c, 0, 64, 54
1, 109689, Control_c, 0, 64, 23
1, 109704, Control_c, 0, 64, 0
1, 109748, Note_off_c, 0, 65, 63
1, 109748, Control_c, 0, 64, 26
1, 109763, Control_c, 0, 64, 46
1, 109778, Control_c, 0, 64, 62
1, 109800, Control_c, 0, 64, 96
1, 109815, Control_c, 0, 64, 127
1, 109865, Note_on_c, 0, 78, 76
1, 109876, Note_on_c, 0, 58, 43
1, 109877, Note_on_c, 0, 61, 48
1, 109879, Note_off_c, 0, 57, 34
1, 109888, Note_on_c, 0, 66, 61
1, 109904, Control_c, 0, 64, 78
1, 109919, Control_c, 0, 64, 59
1, 109933, Control_c, 0, 64, 33
1, 109939, Note_off_c, 0, 60, 39
1, 109948, Control_c, 0, 64, 0
1, 109952, Note_off_c, 0, 77, 56
1, 109963, Control_c, 0, 64, 16
1, 109979, Control_c, 0, 64, 34
1, 109993, Control_c, 0, 64, 53
1, 109997, Note_off_c, 0, 61, 64
1, 110008, Control_c, 0, 64, 78
1, 110018, Note_off_c, 0, 58, 63
1, 110023, Control_c, 0, 64, 127
1, 110026, Note_off_c, 0, 66, 60
1, 110040, Note_off_c, 0, 78, 67
1, 110142, Control_c, 0, 64, 122
1, 110156, Note_on_c, 0, 75, 69
1, 110156, Control_c, 0, 64, 72
1, 110163, Note_on_c, 0, 57, 29
1, 110171, Control_c, 0, 64, 59
1, 110186, Note_on_c, 0, 54, 40
1, 110186, Note_on_c, 0, 63, 44
1, 110186, Control_c, 0, 64, 46
1, 110201, Control_c, 0, 64, 41
1, 110216, Control_c, 0, 64, 46
1, 110228, Note_off_c, 0, 57, 0
1, 110231, Control_c, 0, 64, 53
1, 110246, Control_c, 0, 64, 65
1, 110261, Control_c, 0, 64, 95
1, 110266, Poly_aftertouch_c, 0, 57, 127
1, 110275, Control_c, 0, 64, 127
1, 110305, Note_off_c, 0, 63, 47
1, 110309, Poly_aftertouch_c, 0, 57, 0
1, 110356, Note_on_c, 0, 48, 54
1, 110404, Note_off_c, 0, 48, 62
1, 110437, Note_off_c, 0, 54, 42
1, 110470, Note_on_c, 0, 56, 44
1, 110608, Control_c, 0, 64, 98
1, 110623, Control_c, 0, 64, 79
1, 110631, Note_on_c, 0, 63, 57
1, 110638, Control_c, 0, 64, 67
1, 110647, Note_on_c, 0, 80, 61
1, 110653, Note_off_c, 0, 75, 59
1, 110653, Control_c, 0, 64, 57
1, 110660, Note_on_c, 0, 68, 43
1, 110667, Control_c, 0, 64, 37
1, 110682, Control_c, 0, 64, 0
1, 110701, Note_off_c, 0, 68, 0
1, 110701, Note_on_c, 0, 68, 5
1, 110772, Control_c, 0, 64, 12
1, 110787, Control_c, 0, 64, 33
1, 110802, Control_c, 0, 64, 51
1, 110817, Control_c, 0, 64, 71
1, 110831, Control_c, 0, 64, 127
1, 110911, Note_off_c, 0, 68, 40
1, 110939, Note_off_c, 0, 63, 61
1, 110991, Note_on_c, 0, 78, 73
1, 111019, Note_off_c, 0, 80, 57
1, 111020, Note_on_c, 0, 66, 48
1, 111067, Note_off_c, 0, 66, 0
1, 111067, Note_on_c, 0, 66, 5
1, 111086, Note_off_c, 0, 78, 62
1, 111101, Note_off_c, 0, 66, 51
1, 111225, Note_on_c, 0, 61, 35
1, 111231, Control_c, 0, 64, 102
1, 111246, Control_c, 0, 64, 76
1, 111253, Note_on_c, 0, 76, 63
1, 111260, Note_on_c, 0, 49, 30
1, 111261, Control_c, 0, 64, 63
1, 111276, Control_c, 0, 64, 50
1, 111295, Note_on_c, 0, 64, 36
1, 111298, Control_c, 0, 64, 21
1, 111313, Control_c, 0, 64, 0
1, 111328, Note_off_c, 0, 56, 40
1, 111342, Control_c, 0, 64, 8
1, 111352, Note_off_c, 0, 64, 0
1, 111352, Note_on_c, 0, 64, 3
1, 111357, Control_c, 0, 64, 25
1, 111372, Control_c, 0, 64, 37
1, 111387, Control_c, 0, 64, 55
1, 111391, Note_off_c, 0, 64, 59
1, 111402, Control_c, 0, 64, 72
1, 111416, Control_c, 0, 64, 127
1, 111500, Note_on_c, 0, 75, 75
1, 111522, Note_on_c, 0, 63, 55
1, 111536, Note_off_c, 0, 76, 64
1, 111572, Note_off_c, 0, 61, 51
1, 111655, Note_off_c, 0, 63, 52
1, 111714, Control_c, 0, 64, 117
1, 111724, Note_off_c, 0, 49, 45
1, 111728, Control_c, 0, 64, 77
1, 111739, Note_on_c, 0, 76, 73
1, 111742, Note_on_c, 0, 52, 41
1, 111743, Control_c, 0, 64, 62
1, 111749, Note_on_c, 0, 55, 37
1, 111758, Control_c, 0, 64, 46
1, 111760, Note_on_c, 0, 64, 54
1, 111772, Control_c, 0, 64, 14
1, 111787, Control_c, 0, 64, 0
1, 111791, Note_off_c, 0, 75, 51
1, 111802, Control_c, 0, 64, 14
1, 111817, Control_c, 0, 64, 26
1, 111832, Control_c, 0, 64, 37
1, 111847, Control_c, 0, 64, 52
1, 111856, Note_off_c, 0, 64, 58
1, 111861, Control_c, 0, 64, 70
1, 111876, Control_c, 0, 64, 127
1, 111953, Note_off_c, 0, 55, 54
1, 111960, Note_off_c, 0, 76, 38
1, 111966, Note_off_c, 0, 52, 64
1, 112012, Note_on_c, 0, 73, 69
1, 112054, Note_on_c, 0, 61, 47
1, 112124, Note_off_c, 0, 73, 64
1, 112163, Note_off_c, 0, 61, 46
1, 112344, Note_on_c, 0, 42, 35
1, 112362, Note_on_c, 0, 70, 62
1, 112363, Note_on_c, 0, 54, 27
1, 112374, Control_c, 0, 64, 105
1, 112380, Note_on_c, 0, 64, 43
1, 112388, Control_c, 0, 64, 76
1, 112403, Control_c, 0, 64, 63
1, 112416, Note_on_c, 0, 58, 22
1, 112418, Control_c, 0, 64, 51
1, 112433, Control_c, 0, 64, 28
1, 112448, Control_c, 0, 64, 0
1, 112507, Control_c, 0, 64, 19
1, 112522, Control_c, 0, 64, 34
1, 112537, Control_c, 0, 64, 51
1, 112551, Control_c, 0, 64, 66
1, 112566, Control_c, 0, 64, 107
1, 112582, Control_c, 0, 64, 127
1, 112612, Note_off_c, 0, 58, 42
1, 112613, Note_off_c, 0, 54, 40
1, 112690, Note_off_c, 0, 70, 60
1, 112748, Note_off_c, 0, 64, 52
1, 113078, Control_c, 0, 64, 114
1, 113093, Control_c, 0, 64, 102
1, 113108, Control_c, 0, 64, 91
1, 113122, Control_c, 0, 64, 83
1, 113125, Note_on_c, 0, 47, 30
1, 113128, Note_on_c, 0, 63, 35
1, 113128, Note_on_c, 0, 71, 38
1, 113132, Note_on_c, 0, 54, 26
1, 113137, Control_c, 0, 64, 77
1, 113138, Note_on_c, 0, 59, 31
1, 113141, Note_off_c, 0, 42, 33
1, 113152, Control_c, 0, 64, 71
1, 113167, Control_c, 0, 64, 65
1, 113182, Control_c, 0, 64, 58
1, 113197, Control_c, 0, 64, 46
1, 113212, Control_c, 0, 64, 24
1, 113227, Control_c, 0, 64, 0
1, 113316, Control_c, 0, 64, 19
1, 113330, Control_c, 0, 64, 28
1, 113345, Control_c, 0, 64, 39
1, 113359, Control_c, 0, 64, 50
1, 113374, Control_c, 0, 64, 61
1, 113389, Control_c, 0, 64, 72
1, 113404, Control_c, 0, 64, 83
1, 113418, Control_c, 0, 64, 86
1, 113433, Control_c, 0, 64, 88
1, 113435, Note_off_c, 0, 71, 42
1, 113448, Control_c, 0, 64, 92
1, 113463, Control_c, 0, 64, 99
1, 113478, Control_c, 0, 64, 107
1, 113492, Control_c, 0, 64, 117
1, 113501, Note_off_c, 0, 59, 38
1, 113507, Control_c, 0, 64, 127
1, 113546, Note_off_c, 0, 54, 41
1, 113580, Note_off_c, 0, 47, 35
1, 113647, Note_off_c, 0, 63, 41
1, 113796, Control_c, 0, 64, 122
1, 113811, Control_c, 0, 64, 119
1, 113826, Control_c, 0, 64, 117
1, 113841, Control_c, 0, 64, 115
1, 113856, Control_c, 0, 64, 114
1, 113886, Control_c, 0, 64, 111
1, 113900, Control_c, 0, 64, 109
1, 113915, Control_c, 0, 64, 108
1, 113930, Control_c, 0, 64, 106
1, 113944, Control_c, 0, 64, 104
1, 113960, Control_c, 0, 64, 102
1, 113975, Control_c, 0, 64, 100
1, 113990, Control_c, 0, 64, 98
1, 114005, Control_c, 0, 64, 97
1, 114020, Control_c, 0, 64, 95
1, 114034, Control_c, 0, 64, 93
1, 114049, Control_c, 0, 64, 91
1, 114064, Control_c, 0, 64, 88
1, 114079, Control_c, 0, 64, 87
1, 114093, Control_c, 0, 64, 85
1, 114107, Control_c, 0, 64, 83
1, 114122, Control_c, 0, 64, 81
1, 114137, Control_c, 0, 64, 79
1, 114152, Control_c, 0, 64, 77
1, 114166, Control_c, 0, 64, 75
1, 114181, Control_c, 0, 64, 73
1, 114193, Note_on_c, 0, 60, 35
1, 114196, Control_c, 0, 64, 71
1, 114202, Note_on_c, 0, 72, 34
1, 114211, Control_c, 0, 64, 68
1, 114226, Control_c, 0, 64, 65
1, 114240, Control_c, 0, 64, 61
1, 114255, Control_c, 0, 64, 53
1, 114270, Control_c, 0, 64, 42
1, 114293, Control_c, 0, 64, 28
1, 114308, Control_c, 0, 64, 11
1, 114322, Control_c, 0, 64, 0
1, 114440, Control_c, 0, 64, 14
1, 114455, Control_c, 0, 64, 23
1, 114470, Control_c, 0, 64, 32
1, 114485, Control_c, 0, 64, 40
1, 114500, Control_c, 0, 64, 50
1, 114514, Control_c, 0, 64, 58
1, 114529, Control_c, 0, 64, 65
1, 114544, Control_c, 0, 64, 72
1, 114559, Control_c, 0, 64, 74
1, 114574, Control_c, 0, 64, 76
1, 114589, Control_c, 0, 64, 79
1, 114604, Control_c, 0, 64, 87
1, 114619, Control_c, 0, 64, 96
1, 114634, Control_c, 0, 64, 105
1, 114648, Control_c, 0, 64, 114
1, 114663, Control_c, 0, 64, 127
1, 114666, Note_off_c, 0, 60, 41
1, 114714, Note_off_c, 0, 72, 35
1, 114964, Note_on_c, 0, 54, 22
1, 114976, Note_on_c, 0, 45, 24
1, 115042, Control_c, 0, 64, 111
1, 115057, Control_c, 0, 64, 95
1, 115062, Note_on_c, 0, 73, 37
1, 115071, Control_c, 0, 64, 83
1, 115086, Note_on_c, 0, 61, 22
1, 115086, Control_c, 0, 64, 73
1, 115101, Control_c, 0, 64, 64
1, 115116, Control_c, 0, 64, 53
1, 115131, Control_c, 0, 64, 37
1, 115145, Control_c, 0, 64, 22
1, 115160, Control_c, 0, 64, 21
1, 115175, Control_c, 0, 64, 23
1, 115189, Control_c, 0, 64, 28
1, 115204, Control_c, 0, 64, 36
1, 115219, Control_c, 0, 64, 48
1, 115234, Control_c, 0, 64, 60
1, 115249, Control_c, 0, 64, 77
1, 115263, Control_c, 0, 64, 127
1, 115313, Note_on_c, 0, 75, 48
1, 115322, Note_off_c, 0, 73, 43
1, 115426, Note_off_c, 0, 75, 60
1, 115434, Note_on_c, 0, 73, 48
1, 115510, Note_off_c, 0, 61, 45
1, 115531, Note_off_c, 0, 73, 61
1, 115606, Note_on_c, 0, 72, 51
1, 115617, Note_on_c, 0, 60, 37
1, 115667, Note_off_c, 0, 60, 47
1, 115777, Note_off_c, 0, 72, 34
1, 115814, Note_on_c, 0, 73, 57
1, 115826, Note_off_c, 0, 54, 29
1, 115833, Note_on_c, 0, 61, 34
1, 115895, Note_off_c, 0, 61, 45
1, 115924, Note_on_c, 0, 42, 35
1, 115953, Note_off_c, 0, 45, 42
1, 115960, Note_off_c, 0, 42, 59
1, 116071, Note_off_c, 0, 73, 61
1, 116072, Control_c, 0, 64, 84
1, 116086, Control_c, 0, 64, 67
1, 116094, Note_on_c, 0, 76, 52
1, 116101, Control_c, 0, 64, 56
1, 116105, Note_on_c, 0, 64, 40
1, 116116, Note_on_c, 0, 57, 31
1, 116116, Control_c, 0, 64, 40
1, 116124, Note_on_c, 0, 69, 36
1, 116130, Control_c, 0, 64, 27
1, 116145, Control_c, 0, 64, 29
1, 116160, Control_c, 0, 64, 35
1, 116175, Control_c, 0, 64, 43
1, 116190, Control_c, 0, 64, 54
1, 116205, Control_c, 0, 64, 65
1, 116214, Note_off_c, 0, 76, 64
1, 116220, Control_c, 0, 64, 87
1, 116230, Note_off_c, 0, 64, 52
1, 116234, Control_c, 0, 64, 127
1, 116406, Note_on_c, 0, 75, 51
1, 116418, Note_on_c, 0, 63, 40
1, 116485, Note_off_c, 0, 63, 54
1, 116491, Note_off_c, 0, 75, 58
1, 116652, Note_on_c, 0, 44, 34
1, 116658, Control_c, 0, 64, 92
1, 116673, Control_c, 0, 64, 76
1, 116688, Control_c, 0, 64, 64
1, 116702, Control_c, 0, 64, 53
1, 116717, Control_c, 0, 64, 30
1, 116718, Note_on_c, 0, 61, 39
1, 116732, Note_on_c, 0, 73, 44
1, 116732, Control_c, 0, 64, 0
1, 116776, Control_c, 0, 64, 12
1, 116781, Note_off_c, 0, 69, 44
1, 116791, Control_c, 0, 64, 26
1, 116804, Note_off_c, 0, 57, 54
1, 116806, Control_c, 0, 64, 37
1, 116821, Control_c, 0, 64, 51
1, 116835, Control_c, 0, 64, 67
1, 116844, Note_off_c, 0, 61, 62
1, 116850, Control_c, 0, 64, 99
1, 116865, Control_c, 0, 64, 127
1, 116866, Note_off_c, 0, 73, 54
1, 117024, Note_on_c, 0, 72, 38
1, 117033, Note_on_c, 0, 56, 38
1, 117033, Note_on_c, 0, 60, 25
1, 117040, Note_on_c, 0, 68, 44
1, 117064, Note_off_c, 0, 72, 48
1, 117094, Note_off_c, 0, 60, 48
1, 117187, Note_off_c, 0, 56, 25
1, 117215, Note_off_c, 0, 44, 39
1, 117260, Note_on_c, 0, 58, 46
1, 117264, Note_on_c, 0, 70, 53
1, 117290, Note_on_c, 0, 55, 42
1, 117345, Note_off_c, 0, 58, 62
1, 117373, Note_off_c, 0, 70, 60
1, 117433, Note_off_c, 0, 68, 35
1, 117489, Note_on_c, 0, 72, 63
1, 117489, Note_on_c, 0, 54, 52
1, 117495, Note_on_c, 0, 60, 51
1, 117510, Note_off_c, 0, 55, 35
1, 117554, Note_off_c, 0, 60, 62
1, 117588, Note_off_c, 0, 54, 52
1, 117688, Control_c, 0, 64, 98
1, 117702, Control_c, 0, 64, 72
1, 117713, Note_on_c, 0, 73, 68
1, 117717, Control_c, 0, 64, 60
1, 117722, Note_on_c, 0, 52, 42
1, 117726, Note_on_c, 0, 61, 57
1, 117728, Note_on_c, 0, 49, 43
1, 117732, Control_c, 0, 64, 38
1, 117747, Control_c, 0, 64, 0
1, 117758, Note_off_c, 0, 72, 58
1, 117806, Control_c, 0, 64, 23
1, 117821, Control_c, 0, 64, 40
1, 117823, Note_off_c, 0, 61, 59
1, 117836, Control_c, 0, 64, 57
1, 117850, Control_c, 0, 64, 79
1, 117865, Control_c, 0, 64, 127
1, 117907, Note_off_c, 0, 49, 62
1, 117931, Note_on_c, 0, 75, 73
1, 117951, Note_on_c, 0, 63, 51
1, 118030, Note_off_c, 0, 52, 35
1, 118044, Note_off_c, 0, 63, 65
1, 118059, Note_off_c, 0, 75, 61
1, 118090, Note_off_c, 0, 73, 44
1, 118166, Note_on_c, 0, 48, 40
1, 118169, Note_on_c, 0, 57, 34
1, 118185, Control_c, 0, 64, 75
1, 118200, Control_c, 0, 64, 60
1, 118214, Control_c, 0, 64, 39
1, 118224, Note_on_c, 0, 76, 62
1, 118229, Control_c, 0, 64, 0
1, 118245, Note_on_c, 0, 64, 45
1, 118252, Note_on_c, 0, 69, 47
1, 118303, Control_c, 0, 64, 30
1, 118318, Control_c, 0, 64, 48
1, 118333, Control_c, 0, 64, 65
1, 118348, Control_c, 0, 64, 127
1, 118366, Note_off_c, 0, 64, 62
1, 118375, Note_off_c, 0, 76, 65
1, 118501, Note_on_c, 0, 78, 80
1, 118509, Note_on_c, 0, 66, 61
1, 118576, Note_off_c, 0, 78, 67
1, 118591, Note_off_c, 0, 66, 63
1, 118697, Note_on_c, 0, 45, 46
1, 118702, Note_on_c, 0, 75, 78
1, 118712, Note_on_c, 0, 63, 67
1, 118810, Note_off_c, 0, 57, 39
1, 118815, Note_off_c, 0, 63, 64
1, 118822, Note_off_c, 0, 45, 63
1, 118828, Note_off_c, 0, 75, 62
1, 118905, Note_off_c, 0, 48, 46
1, 118921, Note_on_c, 0, 64, 74
1, 118922, Note_on_c, 0, 76, 86
1, 118934, Note_off_c, 0, 69, 63
1, 118956, Note_off_c, 0, 64, 57
1, 118987, Note_off_c, 0, 76, 65
1, 119117, Note_on_c, 0, 60, 53
1, 119156, Control_c, 0, 64, 72
1, 119157, Note_on_c, 0, 80, 82
1, 119170, Note_on_c, 0, 72, 53
1, 119171, Control_c, 0, 64, 58
1, 119180, Note_on_c, 0, 68, 64
1, 119186, Control_c, 0, 64, 39
1, 119200, Control_c, 0, 64, 25
1, 119215, Control_c, 0, 64, 31
1, 119230, Control_c, 0, 64, 40
1, 119245, Control_c, 0, 64, 53
1, 119260, Control_c, 0, 64, 69
1, 119275, Control_c, 0, 64, 127
1, 119287, Note_off_c, 0, 80, 61
1, 119303, Note_off_c, 0, 68, 59
1, 119375, Note_on_c, 0, 78, 80
1, 119379, Note_on_c, 0, 66, 79
1, 119442, Note_off_c, 0, 78, 66
1, 119486, Note_off_c, 0, 66, 62
1, 119575, Note_on_c, 0, 47, 55
1, 119579, Control_c, 0, 64, 74
1, 119594, Control_c, 0, 64, 56
1, 119609, Control_c, 0, 64, 11
1, 119622, Note_on_c, 0, 64, 56
1, 119623, Note_on_c, 0, 76, 70
1, 119624, Control_c, 0, 64, 0
1, 119654, Control_c, 0, 64, 8
1, 119663, Note_off_c, 0, 72, 62
1, 119668, Control_c, 0, 64, 37
1, 119683, Control_c, 0, 64, 57
1, 119684, Note_off_c, 0, 60, 62
1, 119698, Control_c, 0, 64, 100
1, 119707, Note_off_c, 0, 76, 67
1, 119713, Control_c, 0, 64, 127
1, 119734, Note_off_c, 0, 64, 61
1, 119813, Note_off_c, 0, 47, 59
1, 119858, Note_on_c, 0, 75, 67
1, 119870, Note_on_c, 0, 63, 57
1, 119872, Note_on_c, 0, 59, 52
1, 119891, Note_on_c, 0, 71, 48
1, 119957, Note_off_c, 0, 75, 60
1, 119958, Note_off_c, 0, 63, 64
1, 120054, Note_on_c, 0, 73, 76
1, 120056, Note_on_c, 0, 61, 69
1, 120062, Note_on_c, 0, 58, 61
1, 120131, Note_off_c, 0, 59, 56
1, 120134, Note_off_c, 0, 61, 63
1, 120177, Note_off_c, 0, 73, 61
1, 120183, Note_off_c, 0, 71, 60
1, 120267, Note_on_c, 0, 75, 80
1, 120274, Note_on_c, 0, 57, 65
1, 120284, Note_on_c, 0, 63, 64
1, 120324, Note_off_c, 0, 58, 56
1, 120401, Note_off_c, 0, 63, 65
1, 120429, Note_off_c, 0, 75, 60
1, 120512, Note_on_c, 0, 56, 62
1, 120512, Note_on_c, 0, 76, 80
1, 120515, Note_on_c, 0, 52, 57
1, 120521, Control_c, 0, 64, 76
1, 120523, Note_on_c, 0, 64, 67
1, 120535, Control_c, 0, 64, 59
1, 120550, Control_c, 0, 64, 33
1, 120565, Control_c, 0, 64, 0
1, 120598, Note_off_c, 0, 57, 39
1, 120624, Control_c, 0, 64, 24
1, 120639, Control_c, 0, 64, 46
1, 120654, Control_c, 0, 64, 69
1, 120658, Note_off_c, 0, 64, 60
1, 120669, Control_c, 0, 64, 127
1, 120768, Note_on_c, 0, 78, 87
1, 120775, Note_on_c, 0, 57, 61
1, 120778, Note_on_c, 0, 66, 75
1, 120816, Note_off_c, 0, 76, 64
1, 120830, Note_off_c, 0, 56, 58
1, 120879, Note_off_c, 0, 52, 54
1, 120897, Note_off_c, 0, 66, 61
1, 120942, Note_off_c, 0, 57, 59
1, 120948, Note_off_c, 0, 78, 60
1, 121095, Note_on_c, 0, 59, 53
1, 121123, Note_on_c, 0, 52, 42
1, 121147, Note_on_c, 0, 80, 81
1, 121153, Note_on_c, 0, 68, 76
1, 121168, Note_on_c, 0, 74, 50
1, 121180, Control_c, 0, 64, 81
1, 121195, Control_c, 0, 64, 62
1, 121210, Control_c, 0, 64, 41
1, 121225, Control_c, 0, 64, 0
1, 121284, Control_c, 0, 64, 11
1, 121299, Control_c, 0, 64, 36
1, 121314, Control_c, 0, 64, 56
1, 121329, Control_c, 0, 64, 108
1, 121344, Control_c, 0, 64, 127
1, 121384, Note_off_c, 0, 80, 61
1, 121409, Note_off_c, 0, 68, 59
1, 121433, Note_on_c, 0, 58, 52
1, 121445, Note_on_c, 0, 67, 77
1, 121448, Note_on_c, 0, 79, 79
1, 121532, Note_off_c, 0, 67, 61
1, 121535, Note_off_c, 0, 79, 61
1, 121537, Note_off_c, 0, 59, 35
1, 121662, Note_on_c, 0, 82, 81
1, 121664, Note_on_c, 0, 70, 77
1, 121667, Note_on_c, 0, 61, 57
1, 121692, Note_on_c, 0, 80, 53
1, 121747, Note_off_c, 0, 82, 63
1, 121782, Note_off_c, 0, 52, 61
1, 121791, Note_off_c, 0, 70, 55
1, 121809, Note_off_c, 0, 80, 45
1, 121817, Note_off_c, 0, 58, 36
1, 121877, Note_on_c, 0, 80, 94
1, 121882, Note_on_c, 0, 68, 82
1, 121889, Note_on_c, 0, 59, 67
1, 121889, Note_off_c, 0, 61, 64
1, 121892, Note_off_c, 0, 74, 64
1, 121970, Note_off_c, 0, 68, 58
1, 121986, Note_off_c, 0, 80, 60
1, 122080, Note_on_c, 0, 51, 66
1, 122092, Control_c, 0, 64, 90
1, 122107, Control_c, 0, 64, 68
1, 122110, Note_off_c, 0, 59, 58
1, 122113, Note_on_c, 0, 75, 79
1, 122116, Note_on_c, 0, 80, 78
1, 122119, Note_on_c, 0, 68, 74
1, 122122, Control_c, 0, 64, 55
1, 122137, Control_c, 0, 64, 27
1, 122152, Control_c, 0, 64, 0
1, 122226, Control_c, 0, 64, 26
1, 122241, Control_c, 0, 64, 47
1, 122255, Control_c, 0, 64, 64
1, 122270, Control_c, 0, 64, 127
1, 122281, Note_off_c, 0, 80, 59
1, 122293, Note_off_c, 0, 68, 57
1, 122324, Note_on_c, 0, 58, 75
1, 122331, Note_on_c, 0, 67, 71
1, 122336, Note_on_c, 0, 79, 76
1, 122420, Note_off_c, 0, 51, 57
1, 122468, Note_off_c, 0, 67, 56
1, 122482, Note_off_c, 0, 79, 54
1, 122504, Note_off_c, 0, 75, 60
1, 122587, Note_on_c, 0, 51, 49
1, 122589, Control_c, 0, 64, 105
1, 122592, Note_on_c, 0, 63, 54
1, 122593, Note_off_c, 0, 58, 55
1, 122604, Control_c, 0, 64, 74
1, 122619, Control_c, 0, 64, 59
1, 122634, Control_c, 0, 64, 36
1, 122643, Note_on_c, 0, 73, 72
1, 122646, Note_on_c, 0, 79, 72
1, 122649, Control_c, 0, 64, 0
1, 122658, Note_on_c, 0, 67, 56
1, 122701, Note_off_c, 0, 67, 0
1, 122701, Note_on_c, 0, 67, 14
1, 122722, Control_c, 0, 64, 23
1, 122737, Control_c, 0, 64, 43
1, 122753, Control_c, 0, 64, 60
1, 122759, Note_off_c, 0, 79, 61
1, 122768, Control_c, 0, 64, 100
1, 122783, Control_c, 0, 64, 127
1, 122788, Note_off_c, 0, 67, 57
1, 122881, Note_on_c, 0, 78, 82
1, 122883, Note_off_c, 0, 63, 61
1, 122890, Note_on_c, 0, 57, 55
1, 122894, Note_on_c, 0, 66, 67
1, 122962, Note_off_c, 0, 66, 63
1, 123002, Note_off_c, 0, 78, 65
1, 123085, Note_on_c, 0, 81, 85
1, 123088, Note_on_c, 0, 60, 63
1, 123096, Note_on_c, 0, 69, 66
1, 123161, Note_off_c, 0, 69, 62
1, 123180, Note_off_c, 0, 57, 54
1, 123202, Note_off_c, 0, 81, 59
1, 123303, Note_off_c, 0, 60, 50
1, 123307, Note_on_c, 0, 79, 81
1, 123313, Note_on_c, 0, 58, 57
1, 123328, Note_on_c, 0, 67, 52
1, 123370, Note_off_c, 0, 51, 39
1, 123422, Note_off_c, 0, 73, 60
1, 123422, Note_off_c, 0, 79, 59
1, 123430, Note_off_c, 0, 67, 41
1, 123497, Note_off_c, 0, 58, 49
1, 123514, Note_on_c, 0, 50, 55
1, 123530, Control_c, 0, 64, 81
1, 123545, Control_c, 0, 64, 63
1, 123553, Note_on_c, 0, 79, 74
1, 123556, Note_on_c, 0, 74, 61
1, 123561, Control_c, 0, 64, 45
1, 123569, Note_on_c, 0, 67, 57
1, 123576, Control_c, 0, 64, 0
1, 123635, Control_c, 0, 64, 15
1, 123650, Control_c, 0, 64, 39
1, 123661, Note_off_c, 0, 67, 63
1, 123663, Note_off_c, 0, 79, 62
1, 123665, Control_c, 0, 64, 57
1, 123680, Control_c, 0, 64, 79
1, 123695, Control_c, 0, 64, 127
1, 123797, Note_on_c, 0, 78, 74
1, 123806, Note_on_c, 0, 57, 54
1, 123815, Note_on_c, 0, 66, 56
1, 123835, Note_off_c, 0, 74, 66
1, 123839, Note_off_c, 0, 66, 57
1, 123872, Note_off_c, 0, 50, 61
1, 123912, Note_off_c, 0, 57, 58
1, 123922, Note_off_c, 0, 78, 59
1, 124056, Control_c, 0, 64, 100
1, 124071, Control_c, 0, 64, 71
1, 124072, Note_on_c, 0, 62, 48
1, 124086, Control_c, 0, 64, 58
1, 124087, Note_on_c, 0, 78, 72
1, 124095, Note_on_c, 0, 50, 28
1, 124098, Note_on_c, 0, 72, 56
1, 124101, Control_c, 0, 64, 31
1, 124116, Control_c, 0, 64, 0
1, 124122, Note_on_c, 0, 66, 48
1, 124175, Control_c, 0, 64, 16
1, 124190, Control_c, 0, 64, 39
1, 124205, Control_c, 0, 64, 55
1, 124219, Control_c, 0, 64, 73
1, 124234, Control_c, 0, 64, 127
1, 124273, Note_off_c, 0, 78, 66
1, 124283, Note_off_c, 0, 66, 61
1, 124369, Note_on_c, 0, 77, 75
1, 124386, Note_on_c, 0, 65, 54
1, 124398, Note_on_c, 0, 56, 50
1, 124430, Note_off_c, 0, 72, 60
1, 124434, Note_off_c, 0, 62, 36
1, 124442, Note_off_c, 0, 65, 56
1, 124456, Note_off_c, 0, 56, 61
1, 124466, Note_off_c, 0, 77, 60
1, 124546, Control_c, 0, 64, 103
1, 124561, Control_c, 0, 64, 75
1, 124569, Note_on_c, 0, 77, 76
1, 124574, Note_on_c, 0, 65, 59
1, 124575, Note_on_c, 0, 72, 70
1, 124575, Control_c, 0, 64, 63
1, 124590, Note_on_c, 0, 56, 55
1, 124590, Control_c, 0, 64, 56
1, 124605, Control_c, 0, 64, 50
1, 124620, Control_c, 0, 64, 51
1, 124635, Control_c, 0, 64, 57
1, 124650, Control_c, 0, 64, 65
1, 124664, Control_c, 0, 64, 94
1, 124679, Control_c, 0, 64, 127
1, 124793, Note_off_c, 0, 56, 58
1, 124794, Note_on_c, 0, 71, 81
1, 124799, Note_on_c, 0, 55, 68
1, 124850, Note_off_c, 0, 72, 54
1, 124858, Note_off_c, 0, 77, 35
1, 124869, Note_off_c, 0, 65, 52
1, 124881, Note_off_c, 0, 55, 65
1, 124900, Note_off_c, 0, 71, 64
1, 124983, Control_c, 0, 64, 104
1, 124995, Note_on_c, 0, 77, 83
1, 124998, Control_c, 0, 64, 71
1, 125000, Note_on_c, 0, 71, 78
1, 125010, Note_on_c, 0, 65, 65
1, 125011, Note_on_c, 0, 55, 59
1, 125013, Control_c, 0, 64, 58
1, 125027, Control_c, 0, 64, 42
1, 125042, Control_c, 0, 64, 27
1, 125057, Control_c, 0, 64, 31
1, 125072, Control_c, 0, 64, 40
1, 125087, Control_c, 0, 64, 52
1, 125101, Control_c, 0, 64, 67
1, 125112, Note_off_c, 0, 65, 63
1, 125116, Control_c, 0, 64, 127
1, 125127, Note_off_c, 0, 77, 58
1, 125213, Note_off_c, 0, 55, 56
1, 125216, Note_on_c, 0, 76, 80
1, 125226, Note_on_c, 0, 49, 62
1, 125226, Note_on_c, 0, 64, 67
1, 125276, Note_off_c, 0, 50, 40
1, 125299, Note_off_c, 0, 71, 65
1, 125333, Note_off_c, 0, 76, 62
1, 125338, Note_off_c, 0, 64, 57
1, 125454, Note_on_c, 0, 55, 51
1, 125458, Control_c, 0, 64, 89
1, 125465, Note_on_c, 0, 71, 72
1, 125468, Note_on_c, 0, 76, 72
1, 125472, Control_c, 0, 64, 71
1, 125476, Note_on_c, 0, 64, 61
1, 125487, Control_c, 0, 64, 61
1, 125502, Control_c, 0, 64, 46
1, 125524, Control_c, 0, 64, 14
1, 125539, Control_c, 0, 64, 0
1, 125613, Control_c, 0, 64, 25
1, 125628, Control_c, 0, 64, 42
1, 125643, Control_c, 0, 64, 57
1, 125657, Control_c, 0, 64, 71
1, 125672, Control_c, 0, 64, 110
1, 125687, Control_c, 0, 64, 127
1, 125704, Note_on_c, 0, 70, 83
1, 125713, Note_off_c, 0, 55, 40
1, 125772, Note_off_c, 0, 71, 58
1, 125809, Note_off_c, 0, 76, 56
1, 125839, Note_off_c, 0, 64, 58
1, 125867, Note_off_c, 0, 70, 61
1, 125940, Control_c, 0, 64, 104
1, 125955, Control_c, 0, 64, 76
1, 125962, Note_on_c, 0, 54, 47
1, 125964, Note_on_c, 0, 76, 66
1, 125970, Control_c, 0, 64, 62
1, 125976, Note_on_c, 0, 70, 69
1, 125982, Note_on_c, 0, 64, 55
1, 125985, Control_c, 0, 64, 47
1, 126000, Control_c, 0, 64, 19
1, 126014, Control_c, 0, 64, 0
1, 126060, Control_c, 0, 64, 15
1, 126074, Control_c, 0, 64, 29
1, 126089, Control_c, 0, 64, 43
1, 126104, Control_c, 0, 64, 60
1, 126110, Note_off_c, 0, 64, 61
1, 126119, Control_c, 0, 64, 79
1, 126134, Control_c, 0, 64, 127
1, 126250, Note_on_c, 0, 75, 65
1, 126269, Note_on_c, 0, 63, 60
1, 126301, Note_off_c, 0, 76, 47
1, 126379, Note_off_c, 0, 63, 62
1, 126387, Note_off_c, 0, 70, 59
1, 126415, Note_off_c, 0, 75, 58
1, 126570, Control_c, 0, 64, 86
1, 126578, Note_on_c, 0, 76, 59
1, 126578, Note_on_c, 0, 42, 39
1, 126585, Control_c, 0, 64, 66
1, 126600, Control_c, 0, 64, 54
1, 126609, Note_on_c, 0, 63, 46
1, 126615, Control_c, 0, 64, 29
1, 126617, Note_on_c, 0, 70, 48
1, 126625, Note_on_c, 0, 75, 55
1, 126629, Control_c, 0, 64, 0
1, 126693, Note_off_c, 0, 76, 51
1, 126718, Note_off_c, 0, 49, 59
1, 126733, Control_c, 0, 64, 28
1, 126749, Control_c, 0, 64, 42
1, 126763, Control_c, 0, 64, 55
1, 126778, Control_c, 0, 64, 67
1, 126793, Control_c, 0, 64, 82
1, 126808, Control_c, 0, 64, 89
1, 126851, Control_c, 0, 64, 95
1, 126852, Note_off_c, 0, 63, 47
1, 126866, Control_c, 0, 64, 127
1, 126872, Note_off_c, 0, 75, 50
1, 127022, Note_off_c, 0, 54, 56
1, 127023, Note_on_c, 0, 74, 49
1, 127038, Note_on_c, 0, 62, 38
1, 127140, Note_off_c, 0, 74, 61
1, 127154, Note_off_c, 0, 62, 47
1, 127511, Note_off_c, 0, 70, 55
1, 127601, Note_on_c, 0, 47, 27
1, 127604, Note_on_c, 0, 54, 30
1, 127672, Note_on_c, 0, 71, 66
1, 127687, Note_off_c, 0, 42, 30
1, 127711, Note_on_c, 0, 63, 37
1, 127718, Control_c, 0, 64, 101
1, 127730, Note_on_c, 0, 75, 25
1, 127733, Control_c, 0, 64, 80
1, 127748, Control_c, 0, 64, 65
1, 127771, Control_c, 0, 64, 49
1, 127785, Control_c, 0, 64, 0
1, 127859, Control_c, 0, 64, 16
1, 127874, Control_c, 0, 64, 40
1, 127889, Control_c, 0, 64, 59
1, 127904, Control_c, 0, 64, 87
1, 127918, Control_c, 0, 64, 127
1, 127967, Note_off_c, 0, 75, 47
1, 127979, Note_off_c, 0, 63, 48
1, 128075, Note_on_c, 0, 76, 55
1, 128098, Note_on_c, 0, 64, 43
1, 128145, Note_off_c, 0, 76, 64
1, 128148, Note_off_c, 0, 64, 61
1, 128251, Note_off_c, 0, 54, 41
1, 128293, Note_on_c, 0, 70, 77
1, 128325, Note_on_c, 0, 63, 49
1, 128379, Note_off_c, 0, 63, 60
1, 128422, Note_off_c, 0, 71, 37
1, 128538, Note_on_c, 0, 73, 56
1, 128542, Note_on_c, 0, 61, 58
1, 128569, Note_off_c, 0, 70, 61
1, 128611, Note_on_c, 0, 40, 55
1, 128615, Note_off_c, 0, 61, 64
1, 128640, Note_off_c, 0, 40, 59
1, 128697, Control_c, 0, 64, 103
1, 128707, Note_off_c, 0, 73, 30
1, 128712, Control_c, 0, 64, 83
1, 128719, Note_off_c, 0, 47, 40
1, 128727, Control_c, 0, 64, 76
1, 128739, Note_on_c, 0, 68, 79
1, 128756, Control_c, 0, 64, 81
1, 128763, Note_on_c, 0, 63, 57
1, 128766, Note_on_c, 0, 56, 58
1, 128771, Control_c, 0, 64, 97
1, 128786, Control_c, 0, 64, 127
1, 128859, Note_off_c, 0, 63, 62
1, 128880, Note_off_c, 0, 56, 64
1, 128948, Note_on_c, 0, 76, 78
1, 128963, Note_on_c, 0, 64, 64
1, 129026, Note_on_c, 0, 42, 58
1, 129031, Note_off_c, 0, 64, 60
1, 129031, Note_off_c, 0, 76, 61
1, 129059, Note_off_c, 0, 42, 61
1, 129069, Note_off_c, 0, 68, 58
1, 129102, Note_on_c, 0, 52, 57
1, 129231, Note_on_c, 0, 58, 46
1, 129231, Control_c, 0, 64, 94
1, 129243, Note_on_c, 0, 68, 76
1, 129246, Control_c, 0, 64, 70
1, 129268, Control_c, 0, 64, 55
1, 129277, Note_on_c, 0, 63, 57
1, 129283, Control_c, 0, 64, 29
1, 129297, Control_c, 0, 64, 0
1, 129357, Control_c, 0, 64, 23
1, 129371, Control_c, 0, 64, 41
1, 129386, Control_c, 0, 64, 58
1, 129392, Note_off_c, 0, 63, 63
1, 129401, Control_c, 0, 64, 78
1, 129416, Control_c, 0, 64, 127
1, 129487, Note_off_c, 0, 58, 61
1, 129507, Note_on_c, 0, 73, 63
1, 129519, Note_on_c, 0, 61, 54
1, 129585, Note_off_c, 0, 61, 62
1, 129586, Note_off_c, 0, 73, 63
1, 129610, Note_off_c, 0, 68, 61
1, 129683, Control_c, 0, 64, 92
1, 129697, Control_c, 0, 64, 71
1, 129712, Control_c, 0, 64, 62
1, 129723, Note_on_c, 0, 71, 62
1, 129725, Note_on_c, 0, 54, 50
1, 129727, Control_c, 0, 64, 55
1, 129742, Control_c, 0, 64, 53
1, 129743, Note_on_c, 0, 59, 49
1, 129757, Control_c, 0, 64, 58
1, 129771, Control_c, 0, 64, 65
1, 129786, Control_c, 0, 64, 86
1, 129795, Note_off_c, 0, 59, 59
1, 129801, Control_c, 0, 64, 127
1, 129825, Note_off_c, 0, 71, 60
1, 129891, Note_off_c, 0, 52, 42
1, 129923, Note_on_c, 0, 66, 71
1, 129953, Note_on_c, 0, 61, 46
1, 130057, Note_off_c, 0, 61, 38
1, 130181, Control_c, 0, 64, 101
1, 130195, Control_c, 0, 64, 71
1, 130198, Note_on_c, 0, 47, 45
1, 130210, Control_c, 0, 64, 55
1, 130225, Control_c, 0, 64, 29
1, 130231, Note_on_c, 0, 75, 40
1, 130239, Control_c, 0, 64, 0
1, 130244, Note_on_c, 0, 63, 27
1, 130313, Control_c, 0, 64, 9
1, 130328, Control_c, 0, 64, 33
1, 130343, Control_c, 0, 64, 50
1, 130358, Control_c, 0, 64, 64
1, 130373, Control_c, 0, 64, 98
1, 130388, Control_c, 0, 64, 127
1, 130478, Note_off_c, 0, 54, 61
1, 130482, Note_on_c, 0, 71, 47
1, 130485, Note_off_c, 0, 66, 56
1, 130499, Note_off_c, 0, 75, 31
1, 130509, Note_off_c, 0, 47, 41
1, 130547, Note_off_c, 0, 63, 46
1, 130558, Note_off_c, 0, 71, 61
1, 130805, Note_on_c, 0, 75, 53
1, 130810, Control_c, 0, 64, 98
1, 130825, Control_c, 0, 64, 72
1, 130826, Note_on_c, 0, 63, 33
1, 130840, Control_c, 0, 64, 61
1, 130855, Control_c, 0, 64, 49
1, 130869, Control_c, 0, 64, 40
1, 130884, Control_c, 0, 64, 44
1, 130899, Control_c, 0, 64, 52
1, 130914, Control_c, 0, 64, 61
1, 130929, Control_c, 0, 64, 78
1, 130943, Control_c, 0, 64, 127
1, 130984, Note_off_c, 0, 63, 54
1, 131002, Note_off_c, 0, 75, 62
1, 131044, Note_on_c, 0, 76, 66
1, 131045, Note_on_c, 0, 64, 53
1, 131094, Note_off_c, 0, 64, 56
1, 131124, Note_off_c, 0, 76, 61
1, 131225, Control_c, 0, 64, 93
1, 131229, Note_on_c, 0, 50, 52
1, 131240, Control_c, 0, 64, 71
1, 131249, Note_on_c, 0, 59, 47
1, 131255, Control_c, 0, 64, 57
1, 131267, Note_on_c, 0, 77, 64
1, 131269, Control_c, 0, 64, 37
1, 131283, Note_on_c, 0, 65, 43
1, 131284, Control_c, 0, 64, 0
1, 131357, Note_off_c, 0, 65, 64
1, 131358, Control_c, 0, 64, 29
1, 131373, Control_c, 0, 64, 46
1, 131387, Control_c, 0, 64, 63
1, 131402, Control_c, 0, 64, 117
1, 131417, Control_c, 0, 64, 127
1, 131458, Note_on_c, 0, 51, 76
1, 131473, Note_on_c, 0, 78, 73
1, 131502, Note_off_c, 0, 77, 61
1, 131511, Note_off_c, 0, 50, 61
1, 131515, Note_on_c, 0, 66, 40
1, 131564, Note_off_c, 0, 66, 46
1, 131583, Note_off_c, 0, 51, 64
1, 131728, Note_on_c, 0, 60, 75
1, 131729, Note_on_c, 0, 52, 64
1, 131737, Control_c, 0, 64, 80
1, 131747, Note_off_c, 0, 78, 59
1, 131752, Control_c, 0, 64, 62
1, 131756, Note_on_c, 0, 82, 65
1, 131766, Control_c, 0, 64, 43
1, 131777, Note_on_c, 0, 70, 42
1, 131781, Control_c, 0, 64, 0
1, 131844, Note_off_c, 0, 59, 32
1, 131870, Control_c, 0, 64, 27
1, 131880, Note_off_c, 0, 70, 55
1, 131884, Control_c, 0, 64, 46
1, 131899, Control_c, 0, 64, 62
1, 131914, Control_c, 0, 64, 101
1, 131929, Control_c, 0, 64, 127
1, 132023, Note_on_c, 0, 61, 77
1, 132024, Note_on_c, 0, 80, 64
1, 132039, Note_on_c, 0, 68, 50
1, 132056, Note_off_c, 0, 60, 62
1, 132076, Note_off_c, 0, 82, 38
1, 132123, Note_off_c, 0, 80, 59
1, 132137, Control_c, 0, 64, 76
1, 132138, Note_off_c, 0, 68, 57
1, 132152, Control_c, 0, 64, 63
1, 132166, Control_c, 0, 64, 53
1, 132181, Control_c, 0, 64, 47
1, 132196, Control_c, 0, 64, 51
1, 132210, Control_c, 0, 64, 63
1, 132225, Control_c, 0, 64, 92
1, 132240, Control_c, 0, 64, 127
1, 132263, Note_on_c, 0, 78, 72
1, 132281, Note_on_c, 0, 66, 61
1, 132305, Note_off_c, 0, 52, 65
1, 132322, Note_off_c, 0, 61, 66
1, 132365, Note_off_c, 0, 78, 66
1, 132373, Note_off_c, 0, 66, 61
1, 132463, Note_on_c, 0, 76, 71
1, 132473, Note_on_c, 0, 64, 56
1, 132535, Note_off_c, 0, 64, 60
1, 132555, Note_on_c, 0, 42, 64
1, 132581, Note_off_c, 0, 42, 65
1, 132628, Note_on_c, 0, 52, 52
1, 132678, Control_c, 0, 64, 103
1, 132693, Control_c, 0, 64, 77
1, 132707, Control_c, 0, 64, 63
1, 132722, Control_c, 0, 64, 48
1, 132736, Note_on_c, 0, 58, 59
1, 132737, Control_c, 0, 64, 0
1, 132752, Note_on_c, 0, 63, 56
1, 132755, Note_on_c, 0, 75, 58
1, 132826, Control_c, 0, 64, 15
1, 132827, Note_off_c, 0, 76, 38
1, 132841, Control_c, 0, 64, 37
1, 132856, Control_c, 0, 64, 54
1, 132871, Control_c, 0, 64, 69
1, 132877, Note_off_c, 0, 63, 62
1, 132886, Control_c, 0, 64, 127
1, 132912, Note_off_c, 0, 75, 58
1, 133011, Note_on_c, 0, 61, 59
1, 133019, Note_off_c, 0, 58, 60
1, 133022, Note_on_c, 0, 73, 52
1, 133081, Note_off_c, 0, 61, 60
1, 133196, Note_off_c, 0, 52, 39
1, 133279, Control_c, 0, 64, 95
1, 133287, Note_on_c, 0, 59, 37
1, 133293, Note_off_c, 0, 73, 50
1, 133294, Control_c, 0, 64, 77
1, 133305, Note_on_c, 0, 75, 52
1, 133306, Note_on_c, 0, 51, 25
1, 133309, Note_on_c, 0, 47, 37
1, 133309, Control_c, 0, 64, 64
1, 133320, Note_on_c, 0, 63, 40
1, 133324, Control_c, 0, 64, 51
1, 133339, Control_c, 0, 64, 25
1, 133354, Control_c, 0, 64, 0
1, 133413, Control_c, 0, 64, 9
1, 133428, Control_c, 0, 64, 24
1, 133443, Control_c, 0, 64, 38
1, 133457, Control_c, 0, 64, 55
1, 133472, Control_c, 0, 64, 68
1, 133487, Control_c, 0, 64, 93
1, 133502, Control_c, 0, 64, 114
1, 133517, Control_c, 0, 64, 117
1, 133531, Control_c, 0, 64, 127
1, 133559, Note_off_c, 0, 47, 40
1, 133580, Note_off_c, 0, 59, 40
1, 133613, Note_off_c, 0, 51, 56
1, 133625, Note_on_c, 0, 71, 47
1, 133649, Note_off_c, 0, 63, 48
1, 133656, Note_off_c, 0, 75, 36
1, 134014, Note_on_c, 0, 48, 27
1, 134046, Note_on_c, 0, 54, 32
1, 134055, Poly_aftertouch_c, 0, 57, 127
1, 134058, Control_c, 0, 64, 101
1, 134073, Control_c, 0, 64, 80
1, 134087, Control_c, 0, 64, 68
1, 134102, Control_c, 0, 64, 59
1, 134103, Note_on_c, 0, 74, 36
1, 134117, Note_on_c, 0, 62, 35
1, 134117, Control_c, 0, 64, 44
1, 134132, Control_c, 0, 64, 0
1, 134136, Note_off_c, 0, 71, 20
1, 134236, Control_c, 0, 64, 24
1, 134251, Control_c, 0, 64, 39
1, 134266, Control_c, 0, 64, 53
1, 134280, Control_c, 0, 64, 65
1, 134288, Note_off_c, 0, 62, 53
1, 134295, Control_c, 0, 64, 85
1, 134309, Control_c, 0, 64, 127
1, 134452, Note_on_c, 0, 75, 54
1, 134458, Note_off_c, 0, 74, 37
1, 134489, Note_on_c, 0, 63, 24
1, 134603, Note_off_c, 0, 63, 47
1, 134680, Note_on_c, 0, 56, 52
1, 134701, Control_c, 0, 64, 84
1, 134712, Note_on_c, 0, 76, 56
1, 134716, Control_c, 0, 64, 67
1, 134719, Note_on_c, 0, 64, 28
1, 134732, Control_c, 0, 64, 58
1, 134743, Note_off_c, 0, 75, 30
1, 134747, Control_c, 0, 64, 44
1, 134761, Note_off_c, 0, 64, 51
1, 134762, Control_c, 0, 64, 32
1, 134767, Poly_aftertouch_c, 0, 57, 0
1, 134791, Control_c, 0, 64, 37
1, 134806, Control_c, 0, 64, 47
1, 134821, Control_c, 0, 64, 58
1, 134835, Control_c, 0, 64, 72
1, 134850, Control_c, 0, 64, 127
1, 134898, Note_off_c, 0, 48, 38
1, 134907, Note_on_c, 0, 75, 63
1, 134913, Note_off_c, 0, 76, 60
1, 134918, Note_on_c, 0, 63, 53
1, 134962, Note_off_c, 0, 54, 51
1, 134969, Note_off_c, 0, 63, 57
1, 135109, Note_on_c, 0, 48, 52
1, 135117, Control_c, 0, 64, 93
1, 135132, Control_c, 0, 64, 76
1, 135136, Note_on_c, 0, 78, 67
1, 135146, Note_on_c, 0, 66, 50
1, 135147, Control_c, 0, 64, 70
1, 135162, Control_c, 0, 64, 69
1, 135176, Control_c, 0, 64, 73
1, 135191, Control_c, 0, 64, 83
1, 135206, Control_c, 0, 64, 119
1, 135221, Control_c, 0, 64, 127
1, 135262, Note_off_c, 0, 78, 65
1, 135263, Note_off_c, 0, 66, 61
1, 135319, Note_off_c, 0, 75, 39
1, 135331, Note_on_c, 0, 49, 58
1, 135335, Note_on_c, 0, 76, 73
1, 135348, Note_on_c, 0, 64, 61
1, 135357, Note_off_c, 0, 48, 31
1, 135387, Note_off_c, 0, 56, 63
1, 135402, Note_off_c, 0, 49, 64
1, 135421, Note_off_c, 0, 64, 58
1, 135454, Note_off_c, 0, 76, 61
1, 135537, Note_on_c, 0, 50, 52
1, 135555, Control_c, 0, 64, 81
1, 135569, Note_on_c, 0, 60, 44
1, 135570, Control_c, 0, 64, 63
1, 135578, Note_on_c, 0, 57, 41
1, 135583, Note_on_c, 0, 77, 71
1, 135585, Control_c, 0, 64, 50
1, 135598, Note_on_c, 0, 65, 53
1, 135599, Control_c, 0, 64, 25
1, 135614, Control_c, 0, 64, 0
1, 135658, Control_c, 0, 64, 13
1, 135673, Control_c, 0, 64, 29
1, 135688, Control_c, 0, 64, 45
1, 135697, Note_off_c, 0, 65, 66
1, 135703, Control_c, 0, 64, 62
1, 135718, Control_c, 0, 64, 92
1, 135733, Control_c, 0, 64, 127
1, 135767, Note_on_c, 0, 51, 77
1, 135789, Note_on_c, 0, 78, 78
1, 135801, Note_on_c, 0, 66, 64
1, 135806, Note_off_c, 0, 60, 56
1, 135813, Note_off_c, 0, 77, 61
1, 135854, Note_off_c, 0, 66, 58
1, 135890, Note_off_c, 0, 50, 33
1, 135978, Note_on_c, 0, 59, 75
1, 135984, Control_c, 0, 64, 98
1, 135986, Note_on_c, 0, 80, 78
1, 136003, Note_on_c, 0, 68, 63
1, 136007, Control_c, 0, 64, 71
1, 136022, Control_c, 0, 64, 59
1, 136023, Note_off_c, 0, 57, 61
1, 136037, Control_c, 0, 64, 42
1, 136043, Note_off_c, 0, 78, 45
1, 136052, Control_c, 0, 64, 24
1, 136066, Control_c, 0, 64, 27
1, 136081, Control_c, 0, 64, 35
1, 136087, Note_off_c, 0, 68, 56
1, 136096, Control_c, 0, 64, 45
1, 136111, Control_c, 0, 64, 60
1, 136126, Control_c, 0, 64, 89
1, 136140, Control_c, 0, 64, 127
1, 136175, Note_off_c, 0, 51, 64
1, 136185, Note_on_c, 0, 78, 82
1, 136190, Note_on_c, 0, 66, 79
1, 136218, Note_off_c, 0, 80, 48
1, 136237, Note_off_c, 0, 59, 0
1, 136256, Note_off_c, 0, 66, 63
1, 136274, Poly_aftertouch_c, 0, 59, 127
1, 136276, Note_on_c, 0, 59, 22
1, 136320, Note_off_c, 0, 78, 63
1, 136373, Note_on_c, 0, 51, 71
1, 136378, Control_c, 0, 64, 86
1, 136393, Control_c, 0, 64, 64
1, 136400, Note_on_c, 0, 81, 87
1, 136406, Note_on_c, 0, 69, 74
1, 136407, Control_c, 0, 64, 48
1, 136422, Control_c, 0, 64, 0
1, 136467, Control_c, 0, 64, 21
1, 136481, Control_c, 0, 64, 33
1, 136496, Control_c, 0, 64, 47
1, 136504, Note_off_c, 0, 69, 62
1, 136511, Control_c, 0, 64, 64
1, 136526, Control_c, 0, 64, 127
1, 136592, Note_on_c, 0, 52, 80
1, 136600, Note_on_c, 0, 80, 86
1, 136609, Note_on_c, 0, 68, 80
1, 136626, Note_off_c, 0, 81, 61
1, 136645, Note_off_c, 0, 51, 63
1, 136665, Note_off_c, 0, 59, 40
1, 136678, Note_off_c, 0, 52, 64
1, 136761, Note_off_c, 0, 80, 60
1, 136766, Note_off_c, 0, 68, 57
1, 136844, Note_on_c, 0, 62, 63
1, 136847, Note_on_c, 0, 53, 56
1, 136850, Note_on_c, 0, 59, 55
1, 136860, Control_c, 0, 64, 95
1, 136875, Control_c, 0, 64, 68
1, 136889, Control_c, 0, 64, 54
1, 136893, Note_on_c, 0, 79, 86
1, 136904, Note_on_c, 0, 67, 70
1, 136904, Control_c, 0, 64, 14
1, 136919, Control_c, 0, 64, 0
1, 136993, Control_c, 0, 64, 26
1, 137008, Control_c, 0, 64, 46
1, 137023, Control_c, 0, 64, 63
1, 137038, Control_c, 0, 64, 127
1, 137056, Note_off_c, 0, 67, 62
1, 137148, Note_on_c, 0, 80, 89
1, 137154, Note_on_c, 0, 68, 82
1, 137188, Note_off_c, 0, 79, 60
1, 137238, Note_off_c, 0, 68, 58
1, 137335, Control_c, 0, 64, 117
1, 137336, Note_off_c, 0, 80, 51
1, 137350, Control_c, 0, 64, 72
1, 137359, Note_on_c, 0, 82, 88
1, 137361, Note_on_c, 0, 61, 83
1, 137365, Control_c, 0, 64, 60
1, 137366, Note_on_c, 0, 70, 76
1, 137379, Control_c, 0, 64, 46
1, 137394, Control_c, 0, 64, 38
1, 137409, Control_c, 0, 64, 41
1, 137412, Note_off_c, 0, 59, 56
1, 137423, Control_c, 0, 64, 50
1, 137435, Note_off_c, 0, 62, 35
1, 137438, Control_c, 0, 64, 61
1, 137453, Control_c, 0, 64, 83
1, 137468, Control_c, 0, 64, 127
1, 137494, Note_off_c, 0, 70, 60
1, 137512, Note_off_c, 0, 82, 63
1, 137578, Note_on_c, 0, 80, 91
1, 137584, Note_on_c, 0, 68, 85
1, 137589, Note_on_c, 0, 59, 76
1, 137624, Note_off_c, 0, 61, 64
1, 137667, Note_off_c, 0, 68, 60
1, 137790, Note_off_c, 0, 80, 60
1, 137816, Control_c, 0, 64, 79
1, 137828, Note_on_c, 0, 62, 63
1, 137831, Note_on_c, 0, 83, 88
1, 137831, Control_c, 0, 64, 62
1, 137834, Note_on_c, 0, 71, 82
1, 137846, Control_c, 0, 64, 41
1, 137853, Note_off_c, 0, 59, 57
1, 137861, Control_c, 0, 64, 0
1, 137950, Control_c, 0, 64, 17
1, 137965, Control_c, 0, 64, 41
1, 137980, Control_c, 0, 64, 60
1, 137995, Control_c, 0, 64, 93
1, 138010, Control_c, 0, 64, 127
1, 138037, Note_on_c, 0, 82, 10
1, 138041, Note_off_c, 0, 83, 62
1, 138044, Note_off_c, 0, 71, 61
1, 138073, Note_off_c, 0, 62, 61
1, 138086, Note_off_c, 0, 82, 55
1, 138266, Note_on_c, 0, 61, 64
1, 138267, Note_on_c, 0, 82, 85
1, 138269, Note_on_c, 0, 70, 76
1, 138302, Note_off_c, 0, 61, 63
1, 138302, Note_off_c, 0, 70, 61
1, 138317, Note_off_c, 0, 82, 63
1, 138361, Note_on_c, 0, 82, 84
1, 138371, Note_on_c, 0, 70, 78
1, 138383, Note_on_c, 0, 61, 74
1, 138387, Control_c, 0, 64, 107
1, 138402, Control_c, 0, 64, 72
1, 138417, Control_c, 0, 64, 61
1, 138432, Control_c, 0, 64, 47
1, 138446, Control_c, 0, 64, 37
1, 138461, Control_c, 0, 64, 39
1, 138476, Control_c, 0, 64, 47
1, 138491, Control_c, 0, 64, 59
1, 138506, Control_c, 0, 64, 77
1, 138520, Control_c, 0, 64, 127
1, 138542, Note_off_c, 0, 70, 62
1, 138551, Note_off_c, 0, 82, 64
1, 138624, Note_on_c, 0, 80, 89
1, 138630, Note_on_c, 0, 68, 83
1, 138630, Note_on_c, 0, 59, 68
1, 138654, Control_c, 0, 64, 98
1, 138666, Note_off_c, 0, 61, 59
1, 138669, Control_c, 0, 64, 69
1, 138684, Control_c, 0, 64, 58
1, 138699, Control_c, 0, 64, 46
1, 138713, Control_c, 0, 64, 39
1, 138729, Control_c, 0, 64, 46
1, 138744, Control_c, 0, 64, 58
1, 138758, Control_c, 0, 64, 80
1, 138773, Control_c, 0, 64, 127
1, 138790, Poly_aftertouch_c, 0, 78, 127
1, 138814, Note_off_c, 0, 68, 59
1, 138816, Note_off_c, 0, 80, 61
1, 138825, Poly_aftertouch_c, 0, 78, 0
1, 138890, Note_on_c, 0, 58, 70
1, 138892, Note_on_c, 0, 79, 88
1, 138900, Note_on_c, 0, 67, 78
1, 138906, Control_c, 0, 64, 66
1, 138921, Control_c, 0, 64, 48
1, 138936, Control_c, 0, 64, 0
1, 138949, Note_off_c, 0, 59, 53
1, 139002, Control_c, 0, 64, 28
1, 139017, Control_c, 0, 64, 47
1, 139032, Control_c, 0, 64, 65
1, 139047, Control_c, 0, 64, 127
1, 139098, Note_off_c, 0, 67, 62
1, 139201, Note_on_c, 0, 80, 91
1, 139205, Note_on_c, 0, 68, 87
1, 139216, Note_on_c, 0, 59, 72
1, 139230, Note_off_c, 0, 79, 57
1, 139313, Note_off_c, 0, 58, 52
1, 139350, Note_off_c, 0, 68, 56
1, 139710, Note_on_c, 0, 83, 89
1, 139715, Note_on_c, 0, 71, 82
1, 139726, Note_on_c, 0, 62, 57
1, 139760, Note_off_c, 0, 59, 36
1, 139760, Note_off_c, 0, 80, 55
1, 139781, Control_c, 0, 64, 80
1, 139796, Control_c, 0, 64, 65
1, 139810, Control_c, 0, 64, 52
1, 139825, Control_c, 0, 64, 25
1, 139840, Control_c, 0, 64, 0
1, 139958, Control_c, 0, 64, 13
1, 139973, Control_c, 0, 64, 36
1, 139988, Control_c, 0, 64, 51
1, 140003, Control_c, 0, 64, 66
1, 140018, Control_c, 0, 64, 106
1, 140032, Control_c, 0, 64, 127
1, 140141, Note_off_c, 0, 53, 43
1, 140171, Note_off_c, 0, 71, 49
1, 140219, Note_off_c, 0, 83, 56
1, 140241, Note_off_c, 0, 62, 35
1, 140929, Control_c, 0, 64, 111
1, 140944, Control_c, 0, 64, 104
1, 140959, Control_c, 0, 64, 99
1, 140973, Control_c, 0, 64, 95
1, 140988, Control_c, 0, 64, 91
1, 141003, Control_c, 0, 64, 86
1, 141018, Control_c, 0, 64, 82
1, 141033, Control_c, 0, 64, 78
1, 141047, Control_c, 0, 64, 74
1, 141062, Control_c, 0, 64, 71
1, 141077, Control_c, 0, 64, 68
1, 141091, Control_c, 0, 64, 65
1, 141106, Control_c, 0, 64, 63
1, 141122, Control_c, 0, 64, 61
1, 141124, Note_on_c, 0, 75, 39
1, 141137, Control_c, 0, 64, 59
1, 141152, Control_c, 0, 64, 56
1, 141167, Control_c, 0, 64, 51
1, 141182, Control_c, 0, 64, 47
1, 141196, Control_c, 0, 64, 44
1, 141211, Control_c, 0, 64, 42
1, 141226, Control_c, 0, 64, 42
1, 141248, Control_c, 0, 64, 41
1, 141263, Control_c, 0, 64, 40
1, 141277, Control_c, 0, 64, 39
1, 141292, Control_c, 0, 64, 37
1, 141307, Control_c, 0, 64, 32
1, 141322, Control_c, 0, 64, 28
1, 141337, Control_c, 0, 64, 22
1, 141352, Control_c, 0, 64, 14
1, 141366, Control_c, 0, 64, 0
1, 141471, Note_on_c, 0, 67, 14
1, 141479, Note_on_c, 0, 64, 20
1, 141543, Note_on_c, 0, 87, 53
1, 141544, Control_c, 0, 64, 9
1, 141559, Control_c, 0, 64, 20
1, 141574, Control_c, 0, 64, 28
1, 141589, Control_c, 0, 64, 37
1, 141603, Control_c, 0, 64, 47
1, 141618, Control_c, 0, 64, 57
1, 141633, Control_c, 0, 64, 66
1, 141648, Control_c, 0, 64, 78
1, 141663, Control_c, 0, 64, 98
1, 141677, Control_c, 0, 64, 127
1, 141814, Note_off_c, 0, 87, 41
1, 141883, Note_off_c, 0, 75, 41
1, 141927, Note_off_c, 0, 67, 44
1, 142108, Note_on_c, 0, 85, 39
1, 142150, Note_on_c, 0, 73, 25
1, 142216, Note_off_c, 0, 85, 53
1, 142262, Note_off_c, 0, 73, 43
1, 142397, Note_on_c, 0, 83, 47
1, 142413, Note_on_c, 0, 71, 35
1, 142420, Note_on_c, 0, 63, 17
1, 142437, Note_on_c, 0, 66, 30
1, 142467, Note_off_c, 0, 71, 50
1, 142493, Note_off_c, 0, 64, 35
1, 142556, Note_off_c, 0, 83, 34
1, 142614, Note_off_c, 0, 66, 40
1, 142625, Note_on_c, 0, 82, 65
1, 142645, Note_on_c, 0, 70, 50
1, 142655, Note_on_c, 0, 62, 39
1, 142660, Note_on_c, 0, 65, 34
1, 142674, Note_off_c, 0, 63, 42
1, 142753, Note_off_c, 0, 70, 57
1, 142790, Control_c, 0, 64, 83
1, 142805, Control_c, 0, 64, 68
1, 142820, Control_c, 0, 64, 60
1, 142835, Control_c, 0, 64, 57
1, 142843, Note_on_c, 0, 83, 73
1, 142849, Control_c, 0, 64, 59
1, 142860, Note_off_c, 0, 65, 44
1, 142863, Note_on_c, 0, 71, 49
1, 142864, Control_c, 0, 64, 65
1, 142865, Note_off_c, 0, 62, 36
1, 142866, Note_on_c, 0, 66, 50
1, 142868, Note_on_c, 0, 63, 44
1, 142879, Control_c, 0, 64, 79
1, 142894, Control_c, 0, 64, 127
1, 142915, Note_off_c, 0, 83, 62
1, 142917, Note_off_c, 0, 66, 62
1, 142928, Note_off_c, 0, 63, 64
1, 142928, Note_off_c, 0, 71, 61
1, 142955, Note_off_c, 0, 82, 42
1, 143055, Note_on_c, 0, 80, 76
1, 143071, Note_on_c, 0, 68, 61
1, 143079, Note_on_c, 0, 62, 46
1, 143083, Note_on_c, 0, 59, 40
1, 143129, Note_off_c, 0, 68, 53
1, 143140, Note_off_c, 0, 62, 54
1, 143296, Note_off_c, 0, 59, 41
1, 143311, Note_on_c, 0, 61, 38
1, 143322, Note_on_c, 0, 64, 34
1, 143324, Control_c, 0, 64, 88
1, 143339, Control_c, 0, 64, 72
1, 143354, Control_c, 0, 64, 60
1, 143355, Note_on_c, 0, 82, 63
1, 143368, Control_c, 0, 64, 42
1, 143373, Note_on_c, 0, 70, 39
1, 143383, Control_c, 0, 64, 0
1, 143391, Note_off_c, 0, 80, 55
1, 143426, Note_off_c, 0, 70, 0
1, 143426, Note_on_c, 0, 70, 6
1, 143457, Control_c, 0, 64, 16
1, 143472, Control_c, 0, 64, 36
1, 143494, Control_c, 0, 64, 56
1, 143509, Control_c, 0, 64, 76
1, 143525, Control_c, 0, 64, 127
1, 143543, Note_off_c, 0, 70, 46
1, 143554, Note_off_c, 0, 82, 64
1, 143614, Note_off_c, 0, 64, 40
1, 143622, Note_off_c, 0, 61, 59
1, 143629, Note_on_c, 0, 80, 69
1, 143638, Note_on_c, 0, 68, 54
1, 143711, Note_off_c, 0, 68, 59
1, 143739, Note_off_c, 0, 80, 58
1, 143840, Note_on_c, 0, 78, 67
1, 143850, Note_on_c, 0, 66, 54
1, 143853, Note_on_c, 0, 58, 40
1, 143853, Note_on_c, 0, 61, 45
1, 143935, Note_off_c, 0, 66, 53
1, 143943, Note_off_c, 0, 78, 64
1, 143981, Note_off_c, 0, 61, 34
1, 144037, Note_off_c, 0, 58, 32
1, 144043, Note_on_c, 0, 77, 76
1, 144056, Note_on_c, 0, 65, 58
1, 144058, Note_on_c, 0, 57, 41
1, 144059, Note_on_c, 0, 60, 41
1, 144111, Note_off_c, 0, 65, 58
1, 144226, Note_off_c, 0, 60, 35
1, 144258, Control_c, 0, 64, 72
1, 144273, Control_c, 0, 64, 58
1, 144276, Note_off_c, 0, 57, 34
1, 144282, Note_on_c, 0, 78, 61
1, 144285, Note_on_c, 0, 58, 38
1, 144288, Control_c, 0, 64, 41
1, 144296, Note_on_c, 0, 66, 46
1, 144303, Control_c, 0, 64, 19
1, 144313, Note_on_c, 0, 61, 37
1, 144318, Control_c, 0, 64, 20
1, 144326, Note_off_c, 0, 77, 53
1, 144333, Control_c, 0, 64, 30
1, 144347, Control_c, 0, 64, 40
1, 144362, Control_c, 0, 64, 57
1, 144377, Note_off_c, 0, 61, 65
1, 144377, Control_c, 0, 64, 72
1, 144383, Note_off_c, 0, 66, 62
1, 144392, Note_off_c, 0, 78, 65
1, 144392, Control_c, 0, 64, 127
1, 144395, Note_off_c, 0, 58, 55
1, 144520, Note_on_c, 0, 75, 61
1, 144522, Note_on_c, 0, 57, 41
1, 144535, Note_on_c, 0, 54, 46
1, 144535, Note_on_c, 0, 63, 39
1, 144561, Note_off_c, 0, 57, 49
1, 144599, Note_off_c, 0, 63, 44
1, 144644, Note_on_c, 0, 48, 51
1, 144676, Note_off_c, 0, 54, 56
1, 144684, Note_off_c, 0, 48, 50
1, 144726, Note_on_c, 0, 56, 47
1, 144857, Note_off_c, 0, 75, 61
1, 144871, Note_on_c, 0, 63, 56
1, 144880, Control_c, 0, 64, 87
1, 144887, Note_on_c, 0, 80, 58
1, 144895, Control_c, 0, 64, 67
1, 144905, Note_on_c, 0, 68, 41
1, 144910, Control_c, 0, 64, 54
1, 144925, Control_c, 0, 64, 22
1, 144939, Control_c, 0, 64, 0
1, 145021, Control_c, 0, 64, 33
1, 145036, Control_c, 0, 64, 51
1, 145051, Control_c, 0, 64, 67
1, 145066, Control_c, 0, 64, 127
1, 145076, Note_off_c, 0, 68, 52
1, 145140, Note_off_c, 0, 63, 63
1, 145194, Note_on_c, 0, 78, 69
1, 145202, Note_on_c, 0, 66, 58
1, 145254, Note_off_c, 0, 80, 36
1, 145282, Note_off_c, 0, 78, 64
1, 145290, Note_off_c, 0, 66, 61
1, 145451, Control_c, 0, 64, 105
1, 145453, Note_on_c, 0, 61, 40
1, 145460, Note_on_c, 0, 49, 28
1, 145460, Note_on_c, 0, 76, 59
1, 145466, Control_c, 0, 64, 77
1, 145481, Control_c, 0, 64, 62
1, 145488, Note_on_c, 0, 64, 46
1, 145496, Control_c, 0, 64, 43
1, 145510, Control_c, 0, 64, 0
1, 145549, Note_off_c, 0, 56, 42
1, 145584, Note_off_c, 0, 64, 54
1, 145584, Control_c, 0, 64, 19
1, 145599, Control_c, 0, 64, 37
1, 145614, Control_c, 0, 64, 51
1, 145629, Control_c, 0, 64, 64
1, 145644, Control_c, 0, 64, 85
1, 145659, Control_c, 0, 64, 117
1, 145674, Control_c, 0, 64, 119
1, 145688, Control_c, 0, 64, 127
1, 145744, Note_on_c, 0, 75, 55
1, 145764, Note_on_c, 0, 63, 39
1, 145781, Note_off_c, 0, 76, 60
1, 145851, Note_off_c, 0, 61, 38
1, 145880, Note_off_c, 0, 63, 48
1, 146026, Note_off_c, 0, 49, 44
1, 146038, Control_c, 0, 64, 100
1, 146052, Control_c, 0, 64, 79
1, 146055, Note_on_c, 0, 76, 47
1, 146067, Control_c, 0, 64, 65
1, 146072, Note_on_c, 0, 52, 31
1, 146073, Note_on_c, 0, 55, 31
1, 146076, Note_on_c, 0, 64, 34
1, 146082, Control_c, 0, 64, 50
1, 146097, Control_c, 0, 64, 22
1, 146106, Note_off_c, 0, 76, 0
1, 146106, Note_on_c, 0, 76, 19
1, 146111, Control_c, 0, 64, 0
1, 146112, Note_off_c, 0, 75, 29
1, 146171, Control_c, 0, 64, 11
1, 146185, Control_c, 0, 64, 30
1, 146200, Control_c, 0, 64, 45
1, 146215, Control_c, 0, 64, 60
1, 146230, Control_c, 0, 64, 76
1, 146245, Control_c, 0, 64, 114
1, 146248, Note_off_c, 0, 76, 47
1, 146255, Note_off_c, 0, 64, 41
1, 146259, Control_c, 0, 64, 127
1, 146434, Note_off_c, 0, 55, 48
1, 146442, Note_off_c, 0, 52, 41
1, 146491, Note_on_c, 0, 61, 39
1, 146509, Note_on_c, 0, 73, 32
1, 146646, Note_off_c, 0, 73, 42
1, 146716, Note_off_c, 0, 61, 45
1, 147063, Note_on_c, 0, 55, 14
1, 147072, Note_on_c, 0, 42, 25
1, 147113, Control_c, 0, 64, 99
1, 147123, Note_on_c, 0, 70, 38
1, 147128, Control_c, 0, 64, 80
1, 147140, Note_on_c, 0, 58, 32
1, 147142, Control_c, 0, 64, 66
1, 147157, Control_c, 0, 64, 53
1, 147161, Note_on_c, 0, 64, 32
1, 147172, Control_c, 0, 64, 27
1, 147187, Control_c, 0, 64, 0
1, 147269, Control_c, 0, 64, 14
1, 147284, Control_c, 0, 64, 36
1, 147298, Control_c, 0, 64, 52
1, 147313, Control_c, 0, 64, 66
1, 147328, Control_c, 0, 64, 98
1, 147342, Control_c, 0, 64, 127
1, 147361, Note_off_c, 0, 42, 39
1, 147562, Note_off_c, 0, 55, 45
1, 147606, Note_on_c, 0, 54, 33
1, 147873, Note_off_c, 0, 54, 43
1, 147924, Note_on_c, 0, 52, 26
1, 148169, Note_on_c, 0, 51, 35
1, 148175, Note_off_c, 0, 52, 40
1, 148357, Note_off_c, 0, 51, 42
1, 148399, Note_on_c, 0, 52, 38
1, 148619, Note_off_c, 0, 52, 39
1, 148628, Note_on_c, 0, 49, 35
1, 148793, Note_off_c, 0, 49, 41
1, 148877, Note_on_c, 0, 55, 31
1, 149080, Note_off_c, 0, 55, 46
1, 149132, Note_on_c, 0, 54, 34
1, 149313, Note_off_c, 0, 54, 40
1, 149342, Note_on_c, 0, 52, 40
1, 149529, Note_off_c, 0, 52, 40
1, 149540, Note_on_c, 0, 51, 39
1, 149716, Note_off_c, 0, 51, 49
1, 149747, Note_on_c, 0, 52, 45
1, 149906, Note_off_c, 0, 52, 53
1, 149928, Note_on_c, 0, 49, 44
1, 150077, Note_off_c, 0, 49, 51
1, 150124, Note_on_c, 0, 55, 47
1, 150291, Note_off_c, 0, 55, 61
1, 150329, Note_on_c, 0, 54, 47
1, 150490, Note_off_c, 0, 54, 61
1, 150527, Note_on_c, 0, 52, 55
1, 150683, Note_on_c, 0, 68, 7
1, 150685, Note_on_c, 0, 51, 53
1, 150731, Note_off_c, 0, 52, 33
1, 150744, Note_off_c, 0, 58, 40
1, 150769, Note_off_c, 0, 70, 34
1, 150861, Note_on_c, 0, 52, 57
1, 150861, Note_off_c, 0, 51, 57
1, 151017, Note_off_c, 0, 64, 35
1, 151034, Note_off_c, 0, 52, 62
1, 151045, Note_on_c, 0, 49, 57
1, 151065, Note_off_c, 0, 68, 24
1, 151180, Note_off_c, 0, 49, 53
1, 151253, Note_on_c, 0, 55, 32
1, 151253, Note_on_c, 0, 71, 64
1, 151268, Note_on_c, 0, 59, 42
1, 151271, Note_on_c, 0, 64, 48
1, 151439, Note_off_c, 0, 55, 41
1, 151440, Note_on_c, 0, 54, 55
1, 151598, Note_off_c, 0, 59, 49
1, 151606, Note_off_c, 0, 71, 61
1, 151609, Note_off_c, 0, 54, 62
1, 151621, Note_on_c, 0, 52, 60
1, 151799, Note_on_c, 0, 51, 52
1, 151850, Note_off_c, 0, 52, 37
1, 151978, Note_on_c, 0, 61, 56
1, 151981, Note_on_c, 0, 73, 68
1, 151988, Note_on_c, 0, 52, 47
1, 151995, Note_on_c, 0, 70, 59
1, 152019, Note_off_c, 0, 51, 31
1, 152129, Note_off_c, 0, 52, 55
1, 152151, Note_on_c, 0, 49, 47
1, 152181, Note_off_c, 0, 64, 42
1, 152208, Note_off_c, 0, 49, 61
1, 152243, Note_off_c, 0, 61, 52
1, 152244, Note_off_c, 0, 70, 59
1, 152245, Note_off_c, 0, 73, 50
1, 152388, Note_on_c, 0, 42, 38
1, 152400, Note_on_c, 0, 55, 40
1, 152444, Control_c, 0, 64, 90
1, 152458, Control_c, 0, 64, 69
1, 152480, Control_c, 0, 64, 52
1, 152494, Note_on_c, 0, 73, 52
1, 152495, Control_c, 0, 64, 17
1, 152497, Note_on_c, 0, 61, 39
1, 152510, Control_c, 0, 64, 0
1, 152519, Note_on_c, 0, 70, 45
1, 152584, Control_c, 0, 64, 25
1, 152599, Control_c, 0, 64, 44
1, 152614, Control_c, 0, 64, 61
1, 152618, Note_off_c, 0, 42, 53
1, 152628, Control_c, 0, 64, 88
1, 152643, Control_c, 0, 64, 127
1, 152765, Note_off_c, 0, 55, 41
1, 152782, Note_on_c, 0, 54, 41
1, 152912, Note_off_c, 0, 61, 41
1, 152944, Note_off_c, 0, 54, 39
1, 152973, Note_off_c, 0, 73, 30
1, 152976, Note_on_c, 0, 52, 41
1, 153150, Note_on_c, 0, 51, 42
1, 153151, Note_off_c, 0, 52, 42
1, 153307, Note_off_c, 0, 51, 58
1, 153350, Note_on_c, 0, 52, 48
1, 153428, Note_off_c, 0, 70, 37
1, 153516, Note_off_c, 0, 52, 45
1, 153535, Note_on_c, 0, 49, 31
1, 153614, Note_on_c, 0, 74, 48
1, 153626, Note_on_c, 0, 62, 43
1, 153642, Note_on_c, 0, 71, 44
1, 153656, Note_off_c, 0, 74, 59
1, 153662, Note_off_c, 0, 62, 62
1, 153687, Note_off_c, 0, 71, 49
1, 153773, Note_off_c, 0, 49, 44
1, 153817, Note_on_c, 0, 55, 25
1, 153868, Note_on_c, 0, 73, 51
1, 153874, Note_on_c, 0, 61, 40
1, 153890, Note_on_c, 0, 70, 42
1, 153978, Control_c, 0, 64, 98
1, 153993, Control_c, 0, 64, 85
1, 154007, Control_c, 0, 64, 77
1, 154022, Control_c, 0, 64, 73
1, 154037, Control_c, 0, 64, 72
1, 154049, Note_off_c, 0, 55, 43
1, 154052, Control_c, 0, 64, 73
1, 154067, Control_c, 0, 64, 75
1, 154076, Note_on_c, 0, 54, 42
1, 154081, Control_c, 0, 64, 81
1, 154096, Control_c, 0, 64, 90
1, 154111, Control_c, 0, 64, 101
1, 154125, Control_c, 0, 64, 108
1, 154140, Control_c, 0, 64, 117
1, 154155, Control_c, 0, 64, 127
1, 154215, Note_off_c, 0, 54, 61
1, 154250, Note_on_c, 0, 52, 51
1, 154310, Note_off_c, 0, 73, 41
1, 154356, Note_off_c, 0, 70, 57
1, 154427, Note_on_c, 0, 51, 47
1, 154441, Note_off_c, 0, 52, 36
1, 154491, Note_off_c, 0, 61, 49
1, 154588, Note_on_c, 0, 52, 47
1, 154657, Note_off_c, 0, 51, 44
1, 154746, Note_off_c, 0, 52, 58
1, 154763, Note_on_c, 0, 49, 45
1, 154799, Note_off_c, 0, 49, 63
1, 154818, Note_on_c, 0, 58, 48
1, 154870, Note_on_c, 0, 64, 58
1, 154915, Note_off_c, 0, 58, 59
1, 154942, Note_on_c, 0, 70, 59
1, 155034, Note_on_c, 0, 42, 42
1, 155037, Control_c, 0, 64, 86
1, 155043, Note_on_c, 0, 55, 35
1, 155052, Control_c, 0, 64, 62
1, 155067, Control_c, 0, 64, 44
1, 155082, Control_c, 0, 64, 0
1, 155101, Note_on_c, 0, 73, 65
1, 155126, Control_c, 0, 64, 11
1, 155141, Control_c, 0, 64, 35
1, 155156, Control_c, 0, 64, 58
1, 155171, Control_c, 0, 64, 92
1, 155186, Control_c, 0, 64, 127
1, 155190, Note_off_c, 0, 42, 59
1, 155321, Note_off_c, 0, 55, 41
1, 155327, Note_on_c, 0, 54, 51
1, 155407, Note_off_c, 0, 64, 34
1, 155432, Note_off_c, 0, 73, 50
1, 155457, Note_off_c, 0, 54, 58
1, 155498, Note_off_c, 0, 70, 55
1, 155506, Note_on_c, 0, 52, 57
1, 155671, Note_on_c, 0, 51, 54
1, 155723, Note_off_c, 0, 52, 35
1, 155829, Note_off_c, 0, 51, 54
1, 155845, Note_on_c, 0, 52, 57
1, 156020, Note_off_c, 0, 52, 52
1, 156030, Note_on_c, 0, 49, 45
1, 156213, Note_off_c, 0, 49, 51
1, 156215, Note_on_c, 0, 74, 57
1, 156234, Note_on_c, 0, 64, 43
1, 156237, Note_on_c, 0, 55, 39
1, 156243, Note_on_c, 0, 70, 45
1, 156399, Note_off_c, 0, 55, 56
1, 156402, Note_on_c, 0, 66, 67
1, 156428, Note_on_c, 0, 54, 49
1, 156477, Note_off_c, 0, 74, 60
1, 156551, Note_off_c, 0, 64, 34
1, 156564, Note_off_c, 0, 54, 62
1, 156590, Note_on_c, 0, 52, 62
1, 156676, Note_off_c, 0, 66, 55
1, 156728, Note_on_c, 0, 51, 49
1, 156735, Note_off_c, 0, 70, 54
1, 156740, Note_off_c, 0, 52, 38
1, 156910, Note_off_c, 0, 51, 37
1, 156912, Note_on_c, 0, 52, 46
1, 156918, Note_on_c, 0, 76, 74
1, 157008, Note_off_c, 0, 76, 64
1, 157084, Note_off_c, 0, 52, 59
1, 157100, Note_on_c, 0, 49, 44
1, 157135, Note_on_c, 0, 61, 63
1, 157135, Note_off_c, 0, 49, 65
1, 157210, Note_on_c, 0, 70, 63
1, 157216, Note_off_c, 0, 61, 62
1, 157344, Note_on_c, 0, 55, 45
1, 157350, Note_on_c, 0, 42, 41
1, 157388, Control_c, 0, 64, 92
1, 157403, Control_c, 0, 64, 63
1, 157417, Control_c, 0, 64, 39
1, 157432, Control_c, 0, 64, 0
1, 157437, Note_on_c, 0, 76, 76
1, 157491, Control_c, 0, 64, 32
1, 157506, Control_c, 0, 64, 52
1, 157521, Control_c, 0, 64, 72
1, 157536, Control_c, 0, 64, 127
1, 157541, Note_off_c, 0, 42, 60
1, 157672, Note_on_c, 0, 54, 56
1, 157672, Note_off_c, 0, 55, 53
1, 157757, Note_off_c, 0, 76, 60
1, 157774, Note_off_c, 0, 70, 53
1, 157845, Note_on_c, 0, 52, 66
1, 157848, Note_off_c, 0, 54, 59
1, 158003, Note_on_c, 0, 51, 69
1, 158040, Note_off_c, 0, 52, 56
1, 158188, Note_on_c, 0, 52, 64
1, 158188, Note_off_c, 0, 51, 55
1, 158370, Note_off_c, 0, 52, 59
1, 158373, Note_on_c, 0, 49, 55
1, 158535, Note_off_c, 0, 49, 59
1, 158593, Note_on_c, 0, 55, 43
1, 158657, Note_on_c, 0, 85, 65
1, 158798, Note_off_c, 0, 55, 36
1, 158855, Note_on_c, 0, 54, 40
1, 158879, Poly_aftertouch_c, 0, 87, 127
1, 158978, Note_off_c, 0, 54, 53
1, 159022, Note_on_c, 0, 52, 44
1, 159229, Note_on_c, 0, 51, 40
1, 159238, Poly_aftertouch_c, 0, 87, 0
1, 159242, Note_off_c, 0, 52, 34
1, 159415, Note_off_c, 0, 51, 36
1, 159422, Note_on_c, 0, 52, 44
1, 159622, Note_on_c, 0, 49, 44
1, 159630, Note_off_c, 0, 52, 35
1, 159689, Note_off_c, 0, 49, 58
1, 159811, Note_off_c, 0, 85, 22
1, 159901, Control_c, 0, 64, 74
1, 159907, Note_on_c, 0, 55, 39
1, 159914, Note_on_c, 0, 43, 38
1, 159916, Control_c, 0, 64, 59
1, 159931, Control_c, 0, 64, 42
1, 159945, Control_c, 0, 64, 36
1, 159967, Control_c, 0, 64, 40
1, 159982, Control_c, 0, 64, 47
1, 159997, Control_c, 0, 64, 58
1, 160012, Control_c, 0, 64, 71
1, 160027, Control_c, 0, 64, 127
1, 160039, Note_off_c, 0, 55, 53
1, 160178, Note_off_c, 0, 43, 43
1, 160192, Note_on_c, 0, 54, 44
1, 160194, Note_on_c, 0, 42, 48
1, 160239, Note_off_c, 0, 54, 61
1, 160313, Note_off_c, 0, 42, 36
1, 160369, Control_c, 0, 64, 101
1, 160384, Control_c, 0, 64, 71
1, 160387, Note_on_c, 0, 52, 56
1, 160390, Note_on_c, 0, 40, 49
1, 160399, Control_c, 0, 64, 60
1, 160414, Control_c, 0, 64, 56
1, 160429, Control_c, 0, 64, 57
1, 160443, Control_c, 0, 64, 62
1, 160445, Note_off_c, 0, 52, 63
1, 160458, Control_c, 0, 64, 70
1, 160473, Control_c, 0, 64, 95
1, 160487, Control_c, 0, 64, 127
1, 160525, Note_off_c, 0, 40, 54
1, 160570, Note_on_c, 0, 51, 56
1, 160573, Note_on_c, 0, 39, 56
1, 160615, Note_off_c, 0, 51, 59
1, 160629, Note_off_c, 0, 39, 57
1, 160746, Note_on_c, 0, 52, 54
1, 160747, Note_on_c, 0, 40, 53
1, 160772, Note_off_c, 0, 52, 60
1, 160791, Note_off_c, 0, 40, 62
1, 160906, Note_on_c, 0, 49, 63
1, 160908, Note_on_c, 0, 37, 54
1, 160937, Note_off_c, 0, 49, 67
1, 160942, Note_off_c, 0, 37, 64
1, 161043, Control_c, 0, 64, 108
1, 161058, Control_c, 0, 64, 71
1, 161073, Control_c, 0, 64, 57
1, 161085, Note_on_c, 0, 55, 62
1, 161088, Control_c, 0, 64, 48
1, 161094, Note_on_c, 0, 43, 56
1, 161103, Control_c, 0, 64, 49
1, 161118, Control_c, 0, 64, 57
1, 161133, Control_c, 0, 64, 68
1, 161148, Control_c, 0, 64, 127
1, 161150, Note_off_c, 0, 55, 59
1, 161228, Note_off_c, 0, 43, 55
1, 161258, Note_on_c, 0, 54, 63
1, 161264, Note_on_c, 0, 42, 61
1, 161315, Note_off_c, 0, 54, 59
1, 161339, Note_off_c, 0, 42, 57
1, 161399, Control_c, 0, 64, 80
1, 161414, Control_c, 0, 64, 66
1, 161419, Note_on_c, 0, 52, 72
1, 161422, Note_on_c, 0, 40, 64
1, 161428, Control_c, 0, 64, 62
1, 161443, Control_c, 0, 64, 61
1, 161466, Control_c, 0, 64, 66
1, 161478, Note_off_c, 0, 52, 63
1, 161481, Control_c, 0, 64, 78
1, 161496, Control_c, 0, 64, 127
1, 161547, Note_off_c, 0, 40, 62
1, 161576, Note_on_c, 0, 51, 76
1, 161580, Note_on_c, 0, 39, 71
1, 161633, Note_off_c, 0, 51, 63
1, 161649, Note_off_c, 0, 39, 60
1, 161726, Note_on_c, 0, 52, 80
1, 161730, Note_on_c, 0, 40, 73
1, 161769, Note_off_c, 0, 52, 58
1, 161800, Note_off_c, 0, 40, 62
1, 161887, Note_on_c, 0, 49, 76
1, 161898, Note_on_c, 0, 37, 52
1, 161916, Note_off_c, 0, 49, 66
1, 161923, Note_off_c, 0, 37, 55
1, 162059, Control_c, 0, 64, 75
1, 162074, Control_c, 0, 64, 59
1, 162084, Note_on_c, 0, 55, 58
1, 162084, Note_on_c, 0, 43, 59
1, 162087, Note_on_c, 0, 79, 71
1, 162089, Control_c, 0, 64, 41
1, 162099, Note_on_c, 0, 67, 56
1, 162104, Control_c, 0, 64, 21
1, 162119, Control_c, 0, 64, 26
1, 162133, Control_c, 0, 64, 40
1, 162148, Control_c, 0, 64, 56
1, 162163, Control_c, 0, 64, 81
1, 162178, Control_c, 0, 64, 127
1, 162184, Note_off_c, 0, 67, 62
1, 162190, Note_off_c, 0, 55, 65
1, 162286, Note_off_c, 0, 43, 46
1, 162288, Note_off_c, 0, 79, 33
1, 162290, Note_on_c, 0, 78, 81
1, 162301, Note_on_c, 0, 66, 68
1, 162310, Note_on_c, 0, 54, 62
1, 162314, Note_on_c, 0, 42, 60
1, 162344, Note_off_c, 0, 54, 64
1, 162344, Note_off_c, 0, 66, 55
1, 162351, Note_off_c, 0, 78, 69
1, 162381, Note_off_c, 0, 42, 56
1, 162448, Note_on_c, 0, 76, 87
1, 162457, Note_on_c, 0, 40, 75
1, 162458, Note_on_c, 0, 52, 77
1, 162464, Note_on_c, 0, 64, 63
1, 162504, Note_off_c, 0, 64, 62
1, 162512, Note_off_c, 0, 52, 64
1, 162583, Note_off_c, 0, 40, 62
1, 162593, Note_on_c, 0, 75, 78
1, 162596, Note_off_c, 0, 76, 59
1, 162597, Note_on_c, 0, 51, 75
1, 162599, Note_on_c, 0, 63, 76
1, 162604, Note_on_c, 0, 39, 69
1, 162652, Note_off_c, 0, 63, 65
1, 162656, Note_off_c, 0, 51, 63
1, 162680, Note_off_c, 0, 39, 62
1, 162686, Note_off_c, 0, 75, 60
1, 162750, Note_on_c, 0, 76, 85
1, 162752, Note_on_c, 0, 52, 74
1, 162753, Note_on_c, 0, 64, 79
1, 162779, Note_on_c, 0, 40, 40
1, 162784, Note_off_c, 0, 52, 60
1, 162787, Note_on_c, 0, 38, 43
1, 162789, Note_off_c, 0, 64, 63
1, 162802, Note_off_c, 0, 76, 62
1, 162816, Note_off_c, 0, 40, 63
1, 162823, Note_off_c, 0, 38, 48
1, 162906, Note_on_c, 0, 73, 86
1, 162907, Note_on_c, 0, 49, 83
1, 162909, Note_on_c, 0, 61, 80
1, 162911, Note_on_c, 0, 37, 68
1, 162932, Note_off_c, 0, 61, 71
1, 162933, Note_off_c, 0, 37, 67
1, 162939, Note_off_c, 0, 49, 63
1, 162979, Note_off_c, 0, 73, 62
1, 163067, Control_c, 0, 64, 68
1, 163082, Control_c, 0, 64, 50
1, 163091, Note_on_c, 0, 79, 86
1, 163092, Note_on_c, 0, 55, 74
1, 163094, Note_on_c, 0, 67, 81
1, 163097, Control_c, 0, 64, 27
1, 163097, Note_on_c, 0, 43, 64
1, 163112, Control_c, 0, 64, 22
1, 163127, Control_c, 0, 64, 33
1, 163142, Control_c, 0, 64, 47
1, 163157, Control_c, 0, 64, 64
1, 163171, Control_c, 0, 64, 127
1, 163184, Note_off_c, 0, 67, 62
1, 163185, Note_off_c, 0, 55, 64
1, 163244, Note_off_c, 0, 43, 61
1, 163258, Note_on_c, 0, 78, 93
1, 163261, Note_on_c, 0, 66, 89
1, 163270, Note_on_c, 0, 54, 79
1, 163280, Note_on_c, 0, 42, 74
1, 163280, Note_off_c, 0, 79, 60
1, 163337, Note_off_c, 0, 54, 64
1, 163339, Note_off_c, 0, 66, 61
1, 163342, Note_off_c, 0, 78, 68
1, 163357, Note_off_c, 0, 42, 59
1, 163437, Note_on_c, 0, 76, 91
1, 163440, Note_on_c, 0, 52, 84
1, 163441, Note_on_c, 0, 64, 88
1, 163444, Note_on_c, 0, 40, 79
1, 163452, Control_c, 0, 64, 79
1, 163467, Control_c, 0, 64, 67
1, 163483, Control_c, 0, 64, 66
1, 163498, Control_c, 0, 64, 69
1, 163512, Control_c, 0, 64, 84
1, 163513, Note_off_c, 0, 52, 65
1, 163517, Note_off_c, 0, 64, 61
1, 163527, Control_c, 0, 64, 127
1, 163593, Note_off_c, 0, 40, 59
1, 163601, Note_on_c, 0, 75, 87
1, 163602, Note_on_c, 0, 51, 85
1, 163602, Note_on_c, 0, 63, 90
1, 163608, Note_on_c, 0, 39, 77
1, 163623, Note_off_c, 0, 76, 63
1, 163680, Note_off_c, 0, 51, 62
1, 163682, Note_off_c, 0, 63, 63
1, 163692, Note_off_c, 0, 39, 63
1, 163715, Note_off_c, 0, 75, 59
1, 163807, Note_on_c, 0, 76, 92
1, 163807, Note_on_c, 0, 64, 88
1, 163808, Note_on_c, 0, 52, 81
1, 163811, Note_on_c, 0, 40, 83
1, 163860, Note_off_c, 0, 52, 65
1, 163863, Note_off_c, 0, 64, 55
1, 163871, Note_off_c, 0, 76, 63
1, 163876, Note_off_c, 0, 40, 62
1, 163928, Poly_aftertouch_c, 0, 50, 0
1, 164003, Note_on_c, 0, 61, 87
1, 164003, Note_on_c, 0, 73, 89
1, 164008, Note_on_c, 0, 49, 84
1, 164011, Note_on_c, 0, 37, 73
1, 164033, Note_off_c, 0, 61, 63
1, 164038, Note_off_c, 0, 73, 67
1, 164045, Note_off_c, 0, 37, 65
1, 164048, Note_off_c, 0, 49, 63
1, 164294, Note_on_c, 0, 55, 83
1, 164301, Note_on_c, 0, 43, 81
1, 164301, Note_on_c, 0, 79, 101
1, 164302, Note_on_c, 0, 67, 99
1, 164306, Control_c, 0, 64, 70
1, 164321, Control_c, 0, 64, 41
1, 164335, Control_c, 0, 64, 0
1, 164395, Control_c, 0, 64, 16
1, 164409, Control_c, 0, 64, 50
1, 164424, Control_c, 0, 64, 79
1, 164430, Note_on_c, 0, 78, 43
1, 164439, Control_c, 0, 64, 127
1, 164464, Note_off_c, 0, 67, 58
1, 164465, Note_off_c, 0, 79, 57
1, 164465, Note_off_c, 0, 43, 61
1, 164467, Note_off_c, 0, 55, 62
1, 164495, Note_off_c, 0, 78, 54
1, 164525, Poly_aftertouch_c, 0, 44, 127
1, 164563, Poly_aftertouch_c, 0, 44, 0
1, 164594, Note_on_c, 0, 78, 82
1, 164600, Note_on_c, 0, 66, 73
1, 164603, Note_on_c, 0, 42, 63
1, 164605, Note_on_c, 0, 54, 57
1, 164615, Note_off_c, 0, 78, 72
1, 164629, Note_off_c, 0, 54, 59
1, 164629, Note_off_c, 0, 66, 65
1, 164641, Note_off_c, 0, 42, 62
1, 164736, Note_on_c, 0, 76, 79
1, 164745, Note_on_c, 0, 64, 69
1, 164748, Note_on_c, 0, 40, 67
1, 164752, Note_on_c, 0, 52, 62
1, 164775, Note_off_c, 0, 52, 65
1, 164775, Note_off_c, 0, 64, 65
1, 164787, Note_off_c, 0, 76, 63
1, 164797, Note_off_c, 0, 40, 55
1, 164855, Note_on_c, 0, 75, 78
1, 164856, Note_on_c, 0, 63, 75
1, 164859, Note_on_c, 0, 51, 66
1, 164870, Note_on_c, 0, 39, 51
1, 164880, Note_off_c, 0, 63, 71
1, 164890, Note_off_c, 0, 51, 66
1, 164901, Note_off_c, 0, 39, 61
1, 164901, Note_off_c, 0, 75, 58
1, 164960, Note_on_c, 0, 76, 79
1, 164962, Note_on_c, 0, 40, 73
1, 164962, Note_on_c, 0, 64, 71
1, 164963, Note_on_c, 0, 52, 66
1, 164980, Note_off_c, 0, 76, 69
1, 164981, Note_off_c, 0, 64, 68
1, 164984, Note_off_c, 0, 52, 64
1, 164990, Note_off_c, 0, 40, 66
1, 165062, Note_on_c, 0, 49, 78
1, 165066, Note_on_c, 0, 61, 75
1, 165066, Note_on_c, 0, 73, 78
1, 165067, Note_on_c, 0, 37, 66
1, 165081, Note_off_c, 0, 49, 69
1, 165085, Note_off_c, 0, 61, 70
1, 165091, Note_off_c, 0, 37, 38
1, 165112, Note_off_c, 0, 73, 58
1, 165144, Control_c, 0, 64, 77
1, 165158, Control_c, 0, 64, 53
1, 165173, Control_c, 0, 64, 0
1, 165196, Note_on_c, 0, 56, 90
1, 165196, Note_on_c, 0, 80, 103
1, 165199, Note_on_c, 0, 44, 81
1, 165200, Note_on_c, 0, 68, 96
1, 165210, Control_c, 0, 64, 25
1, 165225, Control_c, 0, 64, 49
1, 165240, Control_c, 0, 64, 81
1, 165255, Note_off_c, 0, 80, 67
1, 165255, Control_c, 0, 64, 127
1, 165255, Note_off_c, 0, 56, 64
1, 165258, Note_off_c, 0, 68, 60
1, 165284, Note_off_c, 0, 44, 60
1, 165381, Note_on_c, 0, 42, 65
1, 165384, Note_on_c, 0, 78, 82
1, 165385, Note_on_c, 0, 66, 69
1, 165387, Note_on_c, 0, 54, 62
1, 165404, Note_off_c, 0, 78, 73
1, 165411, Note_off_c, 0, 54, 59
1, 165412, Note_off_c, 0, 66, 67
1, 165416, Note_off_c, 0, 42, 63
1, 165479, Note_on_c, 0, 76, 83
1, 165480, Note_on_c, 0, 52, 77
1, 165481, Note_on_c, 0, 40, 73
1, 165485, Note_on_c, 0, 64, 66
1, 165506, Note_off_c, 0, 64, 67
1, 165506, Note_off_c, 0, 52, 70
1, 165518, Note_off_c, 0, 40, 64
1, 165527, Note_off_c, 0, 76, 64
1, 165572, Note_on_c, 0, 51, 81
1, 165575, Note_on_c, 0, 63, 81
1, 165578, Note_on_c, 0, 75, 79
1, 165579, Note_on_c, 0, 39, 73
1, 165606, Note_off_c, 0, 51, 62
1, 165613, Note_off_c, 0, 63, 61
1, 165618, Note_off_c, 0, 39, 63
1, 165622, Note_off_c, 0, 75, 59
1, 165668, Note_on_c, 0, 76, 90
1, 165670, Note_on_c, 0, 64, 81
1, 165677, Note_on_c, 0, 40, 81
1, 165680, Note_on_c, 0, 52, 83
1, 165696, Note_off_c, 0, 64, 67
1, 165705, Note_off_c, 0, 76, 67
1, 165707, Note_off_c, 0, 52, 67
1, 165716, Note_off_c, 0, 40, 54
1, 165775, Note_on_c, 0, 49, 90
1, 165775, Note_on_c, 0, 61, 90
1, 165777, Note_on_c, 0, 73, 82
1, 165780, Note_on_c, 0, 37, 81
1, 165793, Note_off_c, 0, 61, 74
1, 165801, Note_off_c, 0, 37, 67
1, 165802, Note_off_c, 0, 49, 66
1, 165825, Note_off_c, 0, 73, 64
1, 165876, Control_c, 0, 64, 64
1, 165891, Control_c, 0, 64, 37
1, 165905, Control_c, 0, 64, 0
1, 165918, Note_on_c, 0, 81, 100
1, 165921, Note_on_c, 0, 57, 91
1, 165921, Note_on_c, 0, 69, 94
1, 165924, Note_on_c, 0, 45, 84
1, 165958, Control_c, 0, 64, 18
1, 165973, Control_c, 0, 64, 48
1, 165987, Control_c, 0, 64, 77
1, 166000, Note_off_c, 0, 69, 66
1, 166002, Control_c, 0, 64, 127
1, 166016, Note_off_c, 0, 57, 64
1, 166046, Note_off_c, 0, 45, 61
1, 166048, Note_off_c, 0, 81, 57
1, 166099, Note_on_c, 0, 68, 74
1, 166104, Note_on_c, 0, 80, 73
1, 166105, Note_on_c, 0, 56, 68
1, 166108, Note_on_c, 0, 44, 62
1, 166126, Note_off_c, 0, 68, 64
1, 166132, Note_off_c, 0, 80, 65
1, 166132, Note_off_c, 0, 56, 68
1, 166148, Note_off_c, 0, 44, 61
1, 166204, Note_on_c, 0, 79, 74
1, 166206, Note_on_c, 0, 43, 69
1, 166212, Note_on_c, 0, 67, 62
1, 166216, Note_on_c, 0, 55, 45
1, 166232, Note_off_c, 0, 67, 63
1, 166234, Note_off_c, 0, 79, 57
1, 166245, Note_off_c, 0, 55, 57
1, 166257, Note_off_c, 0, 43, 59
1, 166299, Note_on_c, 0, 78, 74
1, 166302, Note_on_c, 0, 54, 68
1, 166307, Note_on_c, 0, 66, 61
1, 166309, Note_on_c, 0, 42, 53
1, 166326, Note_off_c, 0, 66, 63
1, 166330, Note_off_c, 0, 78, 60
1, 166332, Note_off_c, 0, 54, 67
1, 166338, Note_off_c, 0, 42, 53
1, 166385, Note_on_c, 0, 79, 79
1, 166387, Note_on_c, 0, 43, 63
1, 166395, Note_on_c, 0, 55, 48
1, 166405, Note_off_c, 0, 79, 71
1, 166409, Note_on_c, 0, 67, 40
1, 166424, Note_off_c, 0, 43, 62
1, 166424, Note_off_c, 0, 55, 57
1, 166440, Note_off_c, 0, 67, 54
1, 166506, Control_c, 0, 64, 102
1, 166507, Note_on_c, 0, 51, 64
1, 166507, Note_on_c, 0, 63, 68
1, 166508, Note_on_c, 0, 75, 69
1, 166511, Note_on_c, 0, 39, 63
1, 166521, Control_c, 0, 64, 71
1, 166534, Note_off_c, 0, 63, 70
1, 166535, Note_off_c, 0, 75, 66
1, 166536, Control_c, 0, 64, 68
1, 166537, Note_off_c, 0, 39, 62
1, 166537, Note_off_c, 0, 51, 66
1, 166550, Control_c, 0, 64, 76
1, 166565, Control_c, 0, 64, 127
1, 166597, Note_on_c, 0, 40, 67
1, 166600, Note_on_c, 0, 52, 65
1, 166600, Note_on_c, 0, 64, 64
1, 166609, Note_on_c, 0, 76, 62
1, 166619, Note_off_c, 0, 64, 66
1, 166621, Note_off_c, 0, 40, 62
1, 166623, Note_off_c, 0, 52, 66
1, 166627, Note_off_c, 0, 76, 67
1, 166707, Note_on_c, 0, 77, 82
1, 166714, Note_on_c, 0, 41, 55
1, 166716, Note_on_c, 0, 65, 60
1, 166716, Note_on_c, 0, 53, 57
1, 166726, Note_off_c, 0, 77, 70
1, 166735, Note_off_c, 0, 65, 66
1, 166740, Note_off_c, 0, 53, 60
1, 166740, Note_off_c, 0, 41, 59
1, 166803, Note_on_c, 0, 66, 71
1, 166804, Note_on_c, 0, 78, 86
1, 166808, Note_on_c, 0, 54, 66
1, 166812, Note_on_c, 0, 42, 63
1, 166825, Note_off_c, 0, 78, 72
1, 166829, Note_off_c, 0, 54, 63
1, 166830, Note_off_c, 0, 66, 67
1, 166846, Note_off_c, 0, 42, 62
1, 166856, Control_c, 0, 64, 101
1, 166870, Control_c, 0, 64, 79
1, 166900, Control_c, 0, 64, 106
1, 166901, Note_on_c, 0, 77, 83
1, 166901, Note_on_c, 0, 65, 78
1, 166904, Note_on_c, 0, 53, 76
1, 166907, Note_on_c, 0, 41, 63
1, 166915, Control_c, 0, 64, 127
1, 166921, Note_off_c, 0, 65, 74
1, 166925, Note_off_c, 0, 77, 66
1, 166927, Note_off_c, 0, 53, 70
1, 166932, Note_off_c, 0, 41, 69
1, 166987, Note_on_c, 0, 66, 86
1, 166992, Note_on_c, 0, 78, 94
1, 166993, Note_on_c, 0, 54, 81
1, 166994, Note_on_c, 0, 42, 70
1, 167020, Note_off_c, 0, 54, 68
1, 167024, Note_off_c, 0, 42, 65
1, 167028, Note_off_c, 0, 66, 64
1, 167030, Note_off_c, 0, 78, 66
1, 167077, Control_c, 0, 64, 91
1, 167087, Note_on_c, 0, 67, 99
1, 167090, Note_on_c, 0, 55, 98
1, 167090, Note_on_c, 0, 79, 102
1, 167092, Control_c, 0, 64, 72
1, 167094, Note_on_c, 0, 43, 91
1, 167107, Control_c, 0, 64, 76
1, 167120, Note_off_c, 0, 67, 68
1, 167121, Note_off_c, 0, 79, 68
1, 167122, Control_c, 0, 64, 127
1, 167124, Note_off_c, 0, 55, 67
1, 167129, Note_off_c, 0, 43, 63
1, 167197, Note_on_c, 0, 53, 92
1, 167198, Note_on_c, 0, 65, 92
1, 167201, Note_on_c, 0, 77, 94
1, 167204, Note_on_c, 0, 41, 71
1, 167220, Note_off_c, 0, 53, 70
1, 167220, Note_off_c, 0, 65, 71
1, 167223, Note_off_c, 0, 77, 62
1, 167229, Note_off_c, 0, 41, 68
1, 167295, Note_on_c, 0, 78, 101
1, 167296, Note_on_c, 0, 66, 87
1, 167305, Note_on_c, 0, 54, 82
1, 167306, Note_on_c, 0, 42, 77
1, 167319, Note_off_c, 0, 66, 67
1, 167325, Note_off_c, 0, 54, 70
1, 167330, Note_off_c, 0, 42, 65
1, 167331, Note_off_c, 0, 78, 65
1, 167344, Control_c, 0, 64, 81
1, 167359, Control_c, 0, 64, 64
1, 167374, Control_c, 0, 64, 61
1, 167380, Note_on_c, 0, 55, 94
1, 167384, Note_on_c, 0, 43, 89
1, 167388, Control_c, 0, 64, 68
1, 167389, Note_on_c, 0, 65, 88
1, 167389, Note_on_c, 0, 67, 83
1, 167389, Note_on_c, 0, 79, 88
1, 167396, Note_on_c, 0, 77, 81
1, 167403, Control_c, 0, 64, 127
1, 167410, Note_off_c, 0, 65, 71
1, 167415, Note_off_c, 0, 55, 70
1, 167415, Note_off_c, 0, 77, 67
1, 167417, Note_off_c, 0, 67, 64
1, 167420, Note_off_c, 0, 43, 60
1, 167421, Note_off_c, 0, 79, 63
1, 167494, Note_on_c, 0, 54, 82
1, 167495, Note_on_c, 0, 78, 95
1, 167496, Note_on_c, 0, 66, 88
1, 167503, Note_on_c, 0, 42, 82
1, 167530, Note_off_c, 0, 42, 61
1, 167538, Note_off_c, 0, 66, 62
1, 167538, Note_off_c, 0, 78, 66
1, 167543, Note_off_c, 0, 54, 63
1, 167589, Poly_aftertouch_c, 0, 44, 0
1, 167597, Note_on_c, 0, 55, 92
1, 167601, Note_on_c, 0, 79, 89
1, 167601, Note_on_c, 0, 67, 89
1, 167604, Note_on_c, 0, 43, 79
1, 167610, Poly_aftertouch_c, 0, 44, 0
1, 167617, Note_off_c, 0, 55, 72
1, 167618, Note_off_c, 0, 67, 71
1, 167622, Note_off_c, 0, 43, 72
1, 167628, Note_off_c, 0, 79, 64
1, 167664, Control_c, 0, 64, 77
1, 167678, Control_c, 0, 64, 61
1, 167690, Note_on_c, 0, 68, 93
1, 167691, Note_on_c, 0, 56, 93
1, 167691, Note_on_c, 0, 80, 100
1, 167693, Control_c, 0, 64, 57
1, 167697, Note_on_c, 0, 44, 88
1, 167708, Control_c, 0, 64, 66
1, 167723, Control_c, 0, 64, 127
1, 167727, Note_off_c, 0, 56, 65
1, 167730, Note_off_c, 0, 80, 68
1, 167730, Note_off_c, 0, 44, 63
1, 167733, Note_off_c, 0, 68, 61
1, 167798, Note_on_c, 0, 67, 102
1, 167801, Note_on_c, 0, 79, 96
1, 167802, Note_on_c, 0, 55, 93
1, 167804, Note_on_c, 0, 43, 87
1, 167827, Note_off_c, 0, 55, 66
1, 167828, Note_off_c, 0, 43, 64
1, 167831, Note_off_c, 0, 67, 67
1, 167837, Note_off_c, 0, 79, 65
1, 167908, Note_on_c, 0, 56, 105
1, 167908, Note_on_c, 0, 68, 105
1, 167908, Note_on_c, 0, 80, 103
1, 167914, Note_on_c, 0, 44, 91
1, 167945, Note_off_c, 0, 68, 65
1, 167946, Note_off_c, 0, 56, 68
1, 167948, Note_off_c, 0, 80, 65
1, 167956, Note_off_c, 0, 44, 61
1, 168030, Note_on_c, 0, 81, 104
1, 168031, Note_on_c, 0, 69, 101
1, 168034, Note_on_c, 0, 57, 99
1, 168038, Note_on_c, 0, 45, 92
1, 168063, Note_off_c, 0, 69, 69
1, 168067, Note_off_c, 0, 57, 67
1, 168067, Note_off_c, 0, 81, 65
1, 168073, Note_off_c, 0, 45, 62
1, 168167, Note_on_c, 0, 56, 103
1, 168167, Control_c, 0, 64, 68
1, 168170, Note_on_c, 0, 68, 104
1, 168171, Note_on_c, 0, 80, 105
1, 168174, Note_on_c, 0, 44, 92
1, 168182, Control_c, 0, 64, 45
1, 168204, Control_c, 0, 64, 0
1, 168218, Control_c, 0, 64, 24
1, 168233, Control_c, 0, 64, 49
1, 168236, Note_off_c, 0, 56, 65
1, 168238, Note_off_c, 0, 44, 64
1, 168248, Note_off_c, 0, 68, 57
1, 168248, Control_c, 0, 64, 97
1, 168259, Note_off_c, 0, 80, 62
1, 168263, Control_c, 0, 64, 127
1, 168332, Note_on_c, 0, 57, 97
1, 168337, Note_on_c, 0, 45, 88
1, 168341, Note_on_c, 0, 69, 102
1, 168341, Note_on_c, 0, 81, 103
1, 168369, Note_off_c, 0, 45, 61
1, 168376, Note_off_c, 0, 57, 65
1, 168376, Note_off_c, 0, 69, 64
1, 168389, Note_off_c, 0, 81, 62
1, 168498, Note_on_c, 0, 70, 114
1, 168499, Note_on_c, 0, 58, 109
1, 168500, Note_on_c, 0, 82, 104
1, 168503, Note_on_c, 0, 46, 98
1, 168539, Note_off_c, 0, 58, 66
1, 168549, Note_off_c, 0, 46, 64
1, 168552, Note_off_c, 0, 70, 57
1, 168582, Note_off_c, 0, 82, 59
1, 168738, Control_c, 0, 64, 73
1, 168752, Control_c, 0, 64, 41
1, 168755, Note_on_c, 0, 59, 103
1, 168755, Note_on_c, 0, 74, 101
1, 168755, Note_on_c, 0, 83, 100
1, 168755, Note_on_c, 0, 71, 98
1, 168757, Note_on_c, 0, 47, 97
1, 168763, Note_on_c, 0, 50, 85
1, 168767, Control_c, 0, 64, 0
1, 168814, Note_on_c, 0, 80, 40
1, 168841, Control_c, 0, 64, 13
1, 168856, Control_c, 0, 64, 46
1, 168871, Control_c, 0, 64, 68
1, 168886, Control_c, 0, 64, 127
1, 168889, Note_off_c, 0, 83, 62
1, 168900, Note_off_c, 0, 47, 62
1, 168913, Note_off_c, 0, 59, 52
1, 168913, Note_off_c, 0, 71, 63
1, 168958, Note_off_c, 0, 80, 44
1, 168976, Poly_aftertouch_c, 0, 48, 127
1, 168980, Note_off_c, 0, 74, 59
1, 169003, Poly_aftertouch_c, 0, 48, 0
1, 169025, Note_on_c, 0, 46, 66
1, 169026, Note_on_c, 0, 82, 78
1, 169029, Note_on_c, 0, 58, 63
1, 169032, Note_on_c, 0, 70, 65
1, 169041, Note_on_c, 0, 74, 34
1, 169049, Note_off_c, 0, 46, 68
1, 169049, Note_off_c, 0, 58, 64
1, 169050, Note_off_c, 0, 70, 65
1, 169051, Note_off_c, 0, 82, 67
1, 169064, Note_off_c, 0, 50, 53
1, 169074, Note_off_c, 0, 74, 53
1, 169122, Note_on_c, 0, 59, 77
1, 169126, Note_on_c, 0, 47, 63
1, 169129, Note_on_c, 0, 83, 65
1, 169130, Note_on_c, 0, 71, 68
1, 169134, Note_on_c, 0, 74, 69
1, 169145, Note_off_c, 0, 59, 67
1, 169147, Note_on_c, 0, 50, 30
1, 169148, Note_off_c, 0, 83, 60
1, 169153, Note_off_c, 0, 71, 71
1, 169157, Note_off_c, 0, 47, 66
1, 169182, Note_off_c, 0, 74, 61
1, 169193, Note_off_c, 0, 50, 55
1, 169226, Poly_aftertouch_c, 0, 74, 0
1, 169226, Note_on_c, 0, 58, 84
1, 169227, Note_on_c, 0, 46, 79
1, 169227, Note_on_c, 0, 70, 85
1, 169229, Note_on_c, 0, 82, 86
1, 169236, Note_on_c, 0, 74, 46
1, 169245, Note_off_c, 0, 58, 71
1, 169245, Note_off_c, 0, 70, 71
1, 169255, Note_off_c, 0, 82, 64
1, 169256, Note_off_c, 0, 46, 65
1, 169261, Note_off_c, 0, 74, 61
1, 169281, Poly_aftertouch_c, 0, 50, 127
1, 169319, Note_on_c, 0, 57, 88
1, 169321, Note_on_c, 0, 45, 77
1, 169321, Note_on_c, 0, 81, 89
1, 169323, Note_on_c, 0, 74, 80
1, 169324, Note_on_c, 0, 69, 85
1, 169342, Note_on_c, 0, 50, 3
1, 169356, Note_off_c, 0, 45, 65
1, 169359, Note_off_c, 0, 57, 63
1, 169360, Note_off_c, 0, 69, 63
1, 169366, Note_off_c, 0, 81, 59
1, 169390, Note_off_c, 0, 74, 62
1, 169416, Note_on_c, 0, 56, 93
1, 169417, Note_off_c, 0, 50, 0
1, 169417, Note_on_c, 0, 50, 30
1, 169420, Note_on_c, 0, 68, 90
1, 169423, Note_on_c, 0, 44, 73
1, 169423, Note_on_c, 0, 80, 84
1, 169426, Note_on_c, 0, 74, 56
1, 169456, Note_off_c, 0, 44, 63
1, 169461, Note_off_c, 0, 74, 65
1, 169463, Note_off_c, 0, 56, 62
1, 169465, Note_off_c, 0, 68, 60
1, 169477, Note_off_c, 0, 80, 61
1, 169483, Note_off_c, 0, 50, 58
1, 169497, Poly_aftertouch_c, 0, 52, 127
1, 169502, Control_c, 0, 64, 81
1, 169514, Poly_aftertouch_c, 0, 52, 0
1, 169517, Control_c, 0, 64, 53
1, 169524, Note_on_c, 0, 45, 90
1, 169524, Note_on_c, 0, 50, 53
1, 169525, Note_on_c, 0, 57, 96
1, 169528, Note_on_c, 0, 69, 95
1, 169528, Note_on_c, 0, 74, 90
1, 169530, Note_on_c, 0, 81, 99
1, 169531, Control_c, 0, 64, 0
1, 169551, Poly_aftertouch_c, 0, 52, 127
1, 169554, Note_on_c, 0, 52, 17
1, 169558, Note_on_c, 0, 80, 56
1, 169571, Note_on_c, 0, 78, 29
1, 169572, Note_off_c, 0, 78, 127
1, 169575, Control_c, 0, 64, 38
1, 169580, Note_off_c, 0, 45, 63
1, 169590, Control_c, 0, 64, 63
1, 169595, Note_off_c, 0, 69, 63
1, 169596, Note_off_c, 0, 81, 59
1, 169596, Note_off_c, 0, 57, 56
1, 169605, Control_c, 0, 64, 127
1, 169610, Poly_aftertouch_c, 0, 78, 0
1, 169611, Note_off_c, 0, 80, 60
1, 169679, Note_off_c, 0, 52, 31
1, 169688, Note_on_c, 0, 44, 68
1, 169690, Note_on_c, 0, 56, 74
1, 169701, Note_on_c, 0, 68, 74
1, 169709, Note_on_c, 0, 80, 78
1, 169720, Note_off_c, 0, 56, 69
1, 169727, Note_off_c, 0, 68, 67
1, 169728, Note_off_c, 0, 80, 71
1, 169730, Note_off_c, 0, 44, 63
1, 169732, Note_off_c, 0, 74, 59
1, 169733, Note_off_c, 0, 50, 51
1, 169789, Note_on_c, 0, 57, 76
1, 169792, Note_on_c, 0, 45, 68
1, 169792, Note_on_c, 0, 69, 83
1, 169792, Note_on_c, 0, 81, 84
1, 169809, Note_off_c, 0, 57, 70
1, 169813, Note_off_c, 0, 81, 67
1, 169816, Note_off_c, 0, 69, 70
1, 169817, Note_off_c, 0, 45, 68
1, 169894, Note_on_c, 0, 56, 73
1, 169897, Note_on_c, 0, 68, 72
1, 169897, Note_on_c, 0, 80, 80
1, 169901, Note_on_c, 0, 44, 70
1, 169917, Note_off_c, 0, 56, 70
1, 169917, Note_off_c, 0, 80, 71
1, 169924, Note_off_c, 0, 68, 66
1, 169927, Note_off_c, 0, 44, 67
1, 169983, Note_on_c, 0, 55, 77
1, 169984, Note_on_c, 0, 43, 76
1, 169986, Note_on_c, 0, 79, 89
1, 169987, Note_on_c, 0, 67, 81
1, 170008, Note_off_c, 0, 55, 71
1, 170010, Note_off_c, 0, 67, 68
1, 170013, Note_off_c, 0, 43, 62
1, 170014, Note_off_c, 0, 79, 58
1, 170056, Poly_aftertouch_c, 0, 73, 127
1, 170076, Note_on_c, 0, 54, 88
1, 170079, Note_on_c, 0, 66, 91
1, 170081, Note_on_c, 0, 78, 93
1, 170086, Note_on_c, 0, 42, 73
1, 170096, Poly_aftertouch_c, 0, 73, 0
1, 170121, Note_off_c, 0, 54, 61
1, 170126, Note_off_c, 0, 42, 60
1, 170127, Note_off_c, 0, 66, 61
1, 170132, Note_off_c, 0, 78, 64
1, 170162, Control_c, 0, 64, 99
1, 170177, Control_c, 0, 64, 59
1, 170184, Note_on_c, 0, 43, 84
1, 170187, Note_on_c, 0, 55, 101
1, 170188, Note_on_c, 0, 67, 95
1, 170189, Note_on_c, 0, 71, 89
1, 170189, Note_on_c, 0, 79, 95
1, 170192, Control_c, 0, 64, 25
1, 170200, Note_on_c, 0, 47, 74
1, 170206, Control_c, 0, 64, 0
1, 170214, Note_on_c, 0, 49, 56
1, 170221, Control_c, 0, 64, 25
1, 170224, Note_on_c, 0, 45, 37
1, 170234, Note_off_c, 0, 55, 65
1, 170234, Note_off_c, 0, 79, 62
1, 170236, Control_c, 0, 64, 49
1, 170237, Note_off_c, 0, 43, 63
1, 170238, Note_off_c, 0, 67, 63
1, 170245, Note_on_c, 0, 78, 11
1, 170250, Note_off_c, 0, 49, 66
1, 170251, Control_c, 0, 64, 83
1, 170256, Note_off_c, 0, 45, 52
1, 170266, Control_c, 0, 64, 127
1, 170276, Note_off_c, 0, 71, 60
1, 170288, Note_off_c, 0, 78, 54
1, 170305, Note_off_c, 0, 47, 0
1, 170326, Note_on_c, 0, 42, 69
1, 170328, Note_on_c, 0, 54, 67
1, 170329, Note_on_c, 0, 66, 70
1, 170329, Note_on_c, 0, 78, 71
1, 170332, Note_on_c, 0, 71, 49
1, 170342, Poly_aftertouch_c, 0, 47, 127
1, 170354, Note_on_c, 0, 47, 3
1, 170354, Note_off_c, 0, 66, 67
1, 170354, Note_off_c, 0, 78, 71
1, 170356, Note_off_c, 0, 42, 63
1, 170357, Note_off_c, 0, 71, 62
1, 170357, Note_off_c, 0, 54, 66
1, 170395, Note_off_c, 0, 47, 44
1, 170421, Note_on_c, 0, 55, 83
1, 170421, Note_on_c, 0, 71, 79
1, 170427, Note_on_c, 0, 67, 81
1, 170428, Note_on_c, 0, 79, 71
1, 170432, Note_on_c, 0, 47, 54
1, 170433, Note_on_c, 0, 43, 52
1, 170453, Note_off_c, 0, 67, 69
1, 170456, Note_off_c, 0, 55, 64
1, 170463, Note_off_c, 0, 79, 58
1, 170467, Note_off_c, 0, 43, 57
1, 170468, Note_on_c, 0, 77, 41
1, 170481, Control_c, 0, 64, 85
1, 170482, Note_off_c, 0, 71, 63
1, 170484, Note_off_c, 0, 47, 61
1, 170496, Control_c, 0, 64, 63
1, 170498, Note_off_c, 0, 77, 57
1, 170511, Control_c, 0, 64, 55
1, 170522, Poly_aftertouch_c, 0, 49, 127
1, 170523, Poly_aftertouch_c, 0, 71, 0
1, 170526, Control_c, 0, 64, 58
1, 170526, Note_on_c, 0, 66, 91
1, 170528, Note_on_c, 0, 54, 93
1, 170531, Note_on_c, 0, 71, 70
1, 170531, Note_on_c, 0, 78, 92
1, 170535, Note_on_c, 0, 42, 76
1, 170538, Note_on_c, 0, 47, 64
1, 170541, Control_c, 0, 64, 74
1, 170555, Control_c, 0, 64, 127
1, 170564, Note_off_c, 0, 54, 60
1, 170571, Note_off_c, 0, 42, 61
1, 170571, Note_off_c, 0, 78, 70
1, 170573, Note_off_c, 0, 66, 63
1, 170576, Note_off_c, 0, 71, 62
1, 170586, Note_off_c, 0, 47, 58
1, 170597, Poly_aftertouch_c, 0, 49, 0
1, 170624, Note_on_c, 0, 77, 85
1, 170629, Note_on_c, 0, 65, 87
1, 170630, Note_on_c, 0, 53, 84
1, 170633, Note_on_c, 0, 41, 69
1, 170652, Note_on_c, 0, 71, 32
1, 170654, Note_off_c, 0, 65, 68
1, 170659, Note_off_c, 0, 53, 67
1, 170666, Note_off_c, 0, 41, 67
1, 170668, Note_off_c, 0, 77, 60
1, 170676, Note_on_c, 0, 76, 16
1, 170677, Note_off_c, 0, 76, 127
1, 170679, Note_off_c, 0, 71, 60
1, 170722, Poly_aftertouch_c, 0, 76, 0
1, 170727, Note_on_c, 0, 64, 95
1, 170731, Note_on_c, 0, 52, 98
1, 170740, Note_on_c, 0, 40, 80
1, 170743, Note_on_c, 0, 76, 47
1, 170748, Note_on_c, 0, 74, 55
1, 170755, Note_off_c, 0, 64, 64
1, 170757, Note_off_c, 0, 52, 71
1, 170764, Control_c, 0, 64, 71
1, 170765, Note_off_c, 0, 40, 68
1, 170767, Note_off_c, 0, 76, 60
1, 170768, Note_off_c, 0, 74, 67
1, 170779, Control_c, 0, 64, 59
1, 170794, Control_c, 0, 64, 56
1, 170809, Control_c, 0, 64, 65
1, 170823, Control_c, 0, 64, 127
1, 170824, Note_on_c, 0, 63, 100
1, 170827, Note_on_c, 0, 51, 99
1, 170827, Note_on_c, 0, 75, 90
1, 170828, Note_on_c, 0, 66, 91
1, 170833, Note_on_c, 0, 39, 87
1, 170839, Note_on_c, 0, 42, 83
1, 170868, Note_off_c, 0, 39, 62
1, 170870, Note_off_c, 0, 51, 66
1, 170870, Note_off_c, 0, 75, 64
1, 170871, Note_off_c, 0, 63, 66
1, 170876, Note_off_c, 0, 66, 64
1, 170883, Note_off_c, 0, 42, 61
1, 170943, Note_on_c, 0, 50, 97
1, 170943, Note_on_c, 0, 62, 104
1, 170943, Note_on_c, 0, 74, 99
1, 170952, Note_on_c, 0, 38, 82
1, 170971, Note_off_c, 0, 50, 65
1, 170974, Note_off_c, 0, 62, 65
1, 170977, Note_off_c, 0, 74, 67
1, 170985, Note_off_c, 0, 38, 63
1, 171039, Note_on_c, 0, 73, 65
1, 171043, Note_on_c, 0, 49, 104
1, 171044, Note_on_c, 0, 61, 99
1, 171050, Note_on_c, 0, 37, 86
1, 171071, Poly_aftertouch_c, 0, 72, 0
1, 171077, Note_off_c, 0, 73, 67
1, 171080, Note_off_c, 0, 61, 67
1, 171087, Note_off_c, 0, 49, 67
1, 171090, Note_off_c, 0, 37, 60
1, 171164, Control_c, 0, 64, 104
1, 171178, Control_c, 0, 64, 59
1, 171201, Control_c, 0, 64, 0
1, 171209, Note_on_c, 0, 47, 95
1, 171209, Note_on_c, 0, 59, 106
1, 171210, Note_on_c, 0, 66, 103
1, 171211, Note_on_c, 0, 71, 98
1, 171216, Note_on_c, 0, 35, 82
1, 171219, Note_on_c, 0, 42, 89
1, 171319, Note_off_c, 0, 35, 62
1, 171319, Control_c, 0, 64, 27
1, 171325, Note_off_c, 0, 71, 64
1, 171334, Control_c, 0, 64, 38
1, 171339, Note_off_c, 0, 59, 51
1, 171348, Control_c, 0, 64, 53
1, 171363, Control_c, 0, 64, 68
1, 171364, Note_off_c, 0, 47, 53
1, 171378, Control_c, 0, 64, 127
1, 171401, Note_off_c, 0, 42, 58
1, 171419, Note_off_c, 0, 66, 60
1, 171632, Control_c, 0, 64, 70
1, 171646, Control_c, 0, 64, 44
1, 171661, Control_c, 0, 64, 0
1, 171675, Note_on_c, 0, 71, 93
1, 171677, Note_on_c, 0, 59, 100
1, 171678, Note_on_c, 0, 47, 94
1, 171681, Note_on_c, 0, 35, 78
1, 171682, Note_on_c, 0, 67, 87
1, 171687, Note_on_c, 0, 43, 83
1, 171715, Note_on_c, 0, 70, 49
1, 171743, Note_off_c, 0, 35, 63
1, 171750, Control_c, 0, 64, 16
1, 171752, Note_off_c, 0, 47, 62
1, 171752, Note_off_c, 0, 71, 65
1, 171757, Note_off_c, 0, 59, 59
1, 171757, Note_off_c, 0, 70, 48
1, 171764, Control_c, 0, 64, 35
1, 171779, Control_c, 0, 64, 57
1, 171794, Control_c, 0, 64, 90
1, 171809, Control_c, 0, 64, 127
1, 171857, Note_on_c, 0, 34, 69
1, 171864, Note_on_c, 0, 58, 75
1, 171865, Note_on_c, 0, 70, 70
1, 171866, Note_on_c, 0, 46, 65
1, 171891, Note_off_c, 0, 46, 64
1, 171892, Note_off_c, 0, 58, 67
1, 171905, Note_off_c, 0, 34, 63
1, 171907, Note_off_c, 0, 70, 60
1, 171908, Note_off_c, 0, 67, 57
1, 171937, Note_off_c, 0, 43, 0
1, 171971, Note_on_c, 0, 43, 14
1, 171974, Note_on_c, 0, 35, 35
1, 171977, Note_on_c, 0, 47, 57
1, 171979, Note_on_c, 0, 59, 62
1, 171984, Note_on_c, 0, 71, 57
1, 171995, Note_off_c, 0, 59, 69
1, 172005, Note_off_c, 0, 71, 67
1, 172007, Note_off_c, 0, 43, 51
1, 172014, Note_off_c, 0, 47, 54
1, 172020, Note_off_c, 0, 35, 43
1, 172072, Note_on_c, 0, 49, 74
1, 172076, Note_on_c, 0, 37, 61
1, 172078, Note_on_c, 0, 73, 83
1, 172081, Note_on_c, 0, 61, 69
1, 172103, Note_off_c, 0, 49, 67
1, 172109, Note_off_c, 0, 37, 64
1, 172109, Note_off_c, 0, 61, 69
1, 172109, Note_off_c, 0, 73, 60
1, 172174, Note_on_c, 0, 62, 77
1, 172174, Note_on_c, 0, 50, 63
1, 172175, Note_on_c, 0, 38, 64
1, 172176, Note_on_c, 0, 74, 76
1, 172198, Note_off_c, 0, 74, 71
1, 172198, Note_off_c, 0, 50, 66
1, 172199, Note_off_c, 0, 62, 69
1, 172210, Note_off_c, 0, 38, 63
1, 172268, Note_on_c, 0, 76, 81
1, 172277, Note_on_c, 0, 52, 75
1, 172278, Note_on_c, 0, 64, 64
1, 172285, Note_on_c, 0, 40, 65
1, 172292, Note_off_c, 0, 76, 69
1, 172298, Note_off_c, 0, 64, 64
1, 172305, Note_off_c, 0, 52, 70
1, 172310, Note_off_c, 0, 40, 60
1, 172350, Control_c, 0, 64, 65
1, 172365, Control_c, 0, 64, 43
1, 172380, Control_c, 0, 64, 0
1, 172384, Note_on_c, 0, 50, 82
1, 172385, Note_on_c, 0, 66, 92
1, 172386, Note_on_c, 0, 74, 82
1, 172390, Note_on_c, 0, 62, 64
1, 172396, Note_on_c, 0, 38, 67
1, 172401, Note_on_c, 0, 42, 65
1, 172401, Note_on_c, 0, 64, 49
1, 172410, Note_off_c, 0, 62, 65
1, 172422, Note_on_c, 0, 67, 60
1, 172424, Note_off_c, 0, 74, 61
1, 172425, Control_c, 0, 64, 33
1, 172428, Note_off_c, 0, 64, 55
1, 172430, Note_off_c, 0, 38, 65
1, 172439, Control_c, 0, 64, 57
1, 172443, Note_off_c, 0, 50, 63
1, 172454, Control_c, 0, 64, 127
1, 172491, Note_off_c, 0, 67, 59
1, 172499, Note_off_c, 0, 66, 57
1, 172500, Note_off_c, 0, 42, 60
1, 172543, Note_on_c, 0, 37, 62
1, 172547, Note_on_c, 0, 73, 71
1, 172550, Note_on_c, 0, 49, 50
1, 172554, Note_on_c, 0, 61, 61
1, 172569, Note_off_c, 0, 73, 68
1, 172570, Note_off_c, 0, 37, 62
1, 172574, Note_off_c, 0, 61, 65
1, 172578, Note_off_c, 0, 49, 57
1, 172636, Note_on_c, 0, 59, 79
1, 172636, Note_on_c, 0, 71, 78
1, 172638, Note_on_c, 0, 47, 72
1, 172642, Note_on_c, 0, 35, 64
1, 172657, Note_off_c, 0, 59, 69
1, 172660, Note_off_c, 0, 71, 67
1, 172665, Note_off_c, 0, 47, 67
1, 172673, Note_off_c, 0, 35, 65
1, 172731, Note_on_c, 0, 46, 83
1, 172738, Note_on_c, 0, 58, 85
1, 172739, Note_on_c, 0, 34, 76
1, 172741, Note_on_c, 0, 70, 91
1, 172763, Note_off_c, 0, 46, 66
1, 172764, Note_off_c, 0, 58, 63
1, 172772, Note_off_c, 0, 34, 65
1, 172777, Note_off_c, 0, 70, 53
1, 172836, Note_on_c, 0, 59, 88
1, 172836, Note_on_c, 0, 47, 80
1, 172838, Note_on_c, 0, 35, 67
1, 172841, Note_on_c, 0, 71, 85
1, 172857, Note_off_c, 0, 35, 65
1, 172857, Note_off_c, 0, 59, 69
1, 172858, Note_off_c, 0, 47, 72
1, 172862, Note_off_c, 0, 71, 71
1, 172925, Note_on_c, 0, 61, 89
1, 172926, Note_on_c, 0, 49, 91
1, 172926, Note_on_c, 0, 73, 91
1, 172928, Note_on_c, 0, 37, 75
1, 172949, Note_off_c, 0, 73, 69
1, 172954, Note_off_c, 0, 61, 60
1, 172973, Note_off_c, 0, 49, 63
1, 172974, Note_off_c, 0, 37, 58
1, 173024, Control_c, 0, 64, 72
1, 173039, Control_c, 0, 64, 47
1, 173050, Note_on_c, 0, 47, 94
1, 173052, Note_on_c, 0, 43, 84
1, 173052, Note_on_c, 0, 71, 93
1, 173053, Note_on_c, 0, 59, 100
1, 173054, Control_c, 0, 64, 0
1, 173058, Note_on_c, 0, 35, 75
1, 173058, Note_on_c, 0, 67, 87
1, 173093, Note_on_c, 0, 64, 34
1, 173098, Note_on_c, 0, 70, 37
1, 173102, Note_on_c, 0, 37, 33
1, 173112, Note_off_c, 0, 35, 64
1, 173114, Control_c, 0, 64, 33
1, 173119, Note_off_c, 0, 47, 63
1, 173120, Note_off_c, 0, 71, 64
1, 173128, Note_off_c, 0, 70, 56
1, 173129, Note_off_c, 0, 59, 62
1, 173129, Control_c, 0, 64, 59
1, 173133, Note_off_c, 0, 37, 58
1, 173143, Control_c, 0, 64, 127
1, 173194, Note_off_c, 0, 64, 44
1, 173209, Note_on_c, 0, 34, 68
1, 173215, Note_on_c, 0, 46, 70
1, 173220, Note_on_c, 0, 58, 72
1, 173220, Note_on_c, 0, 70, 65
1, 173236, Note_off_c, 0, 34, 67
1, 173243, Note_off_c, 0, 46, 68
1, 173245, Note_off_c, 0, 58, 68
1, 173252, Note_off_c, 0, 67, 57
1, 173256, Note_off_c, 0, 70, 64
1, 173298, Note_on_c, 0, 47, 72
1, 173312, Note_on_c, 0, 59, 68
1, 173313, Note_on_c, 0, 71, 71
1, 173316, Note_on_c, 0, 35, 35
1, 173326, Note_off_c, 0, 47, 65
1, 173328, Note_off_c, 0, 59, 68
1, 173334, Note_off_c, 0, 43, 59
1, 173338, Note_off_c, 0, 71, 69
1, 173346, Note_off_c, 0, 35, 52
1, 173398, Note_on_c, 0, 49, 81
1, 173403, Note_on_c, 0, 37, 70
1, 173406, Note_on_c, 0, 61, 81
1, 173408, Note_on_c, 0, 73, 86
1, 173429, Note_off_c, 0, 49, 63
1, 173429, Note_off_c, 0, 61, 70
1, 173436, Note_off_c, 0, 37, 63
1, 173451, Note_off_c, 0, 73, 57
1, 173498, Note_on_c, 0, 50, 74
1, 173501, Note_on_c, 0, 62, 87
1, 173504, Note_on_c, 0, 38, 65
1, 173506, Note_on_c, 0, 74, 82
1, 173521, Note_off_c, 0, 50, 67
1, 173526, Note_off_c, 0, 62, 66
1, 173528, Note_off_c, 0, 74, 67
1, 173537, Note_off_c, 0, 38, 62
1, 173596, Note_on_c, 0, 52, 85
1, 173601, Note_on_c, 0, 76, 83
1, 173602, Note_on_c, 0, 64, 75
1, 173604, Note_on_c, 0, 40, 79
1, 173619, Note_off_c, 0, 52, 72
1, 173620, Note_off_c, 0, 76, 73
1, 173625, Note_off_c, 0, 64, 68
1, 173632, Note_off_c, 0, 40, 66
1, 173670, Control_c, 0, 64, 79
1, 173685, Control_c, 0, 64, 55
1, 173699, Control_c, 0, 64, 0
1, 173707, Note_on_c, 0, 62, 81
1, 173709, Note_on_c, 0, 66, 87
1, 173709, Note_on_c, 0, 74, 76
1, 173710, Note_on_c, 0, 50, 81
1, 173724, Note_on_c, 0, 42, 68
1, 173731, Note_on_c, 0, 38, 49
1, 173732, Note_off_c, 0, 74, 67
1, 173733, Note_off_c, 0, 62, 69
1, 173743, Control_c, 0, 64, 19
1, 173748, Note_off_c, 0, 50, 62
1, 173758, Control_c, 0, 64, 45
1, 173761, Note_off_c, 0, 38, 53
1, 173773, Control_c, 0, 64, 68
1, 173788, Control_c, 0, 64, 127
1, 173797, Note_off_c, 0, 42, 60
1, 173806, Note_off_c, 0, 66, 57
1, 173831, Note_on_c, 0, 49, 73
1, 173835, Note_on_c, 0, 37, 69
1, 173840, Note_on_c, 0, 73, 77
1, 173845, Note_on_c, 0, 61, 70
1, 173857, Note_off_c, 0, 49, 69
1, 173862, Note_off_c, 0, 73, 71
1, 173866, Note_off_c, 0, 37, 65
1, 173868, Note_off_c, 0, 61, 68
1, 173930, Note_on_c, 0, 47, 79
1, 173935, Note_on_c, 0, 59, 85
1, 173938, Note_on_c, 0, 71, 77
1, 173943, Note_on_c, 0, 35, 59
1, 173954, Note_off_c, 0, 47, 68
1, 173955, Note_off_c, 0, 59, 70
1, 173959, Note_off_c, 0, 71, 73
1, 173970, Note_off_c, 0, 35, 57
1, 174019, Note_on_c, 0, 46, 85
1, 174025, Note_on_c, 0, 58, 82
1, 174026, Note_on_c, 0, 34, 77
1, 174026, Note_on_c, 0, 70, 92
1, 174045, Note_off_c, 0, 46, 68
1, 174047, Note_off_c, 0, 58, 65
1, 174055, Note_off_c, 0, 34, 67
1, 174067, Note_off_c, 0, 70, 54
1, 174115, Note_on_c, 0, 47, 85
1, 174118, Note_on_c, 0, 59, 90
1, 174118, Note_on_c, 0, 35, 70
1, 174123, Note_on_c, 0, 71, 84
1, 174135, Note_off_c, 0, 47, 73
1, 174139, Note_off_c, 0, 59, 69
1, 174142, Note_off_c, 0, 35, 63
1, 174148, Note_off_c, 0, 71, 68
1, 174219, Note_on_c, 0, 61, 92
1, 174223, Note_on_c, 0, 73, 96
1, 174225, Note_on_c, 0, 49, 98
1, 174226, Note_on_c, 0, 37, 68
1, 174258, Note_off_c, 0, 61, 68
1, 174265, Note_off_c, 0, 73, 65
1, 174267, Note_off_c, 0, 49, 65
1, 174268, Note_off_c, 0, 37, 63
1, 174329, Control_c, 0, 64, 70
1, 174344, Control_c, 0, 64, 41
1, 174354, Note_on_c, 0, 50, 94
1, 174356, Note_on_c, 0, 62, 104
1, 174357, Note_on_c, 0, 38, 84
1, 174357, Note_on_c, 0, 74, 96
1, 174358, Note_on_c, 0, 70, 94
1, 174359, Note_on_c, 0, 46, 92
1, 174359, Control_c, 0, 64, 0
1, 174384, Note_on_c, 0, 73, 52
1, 174407, Note_off_c, 0, 73, 62
1, 174414, Note_off_c, 0, 74, 67
1, 174419, Control_c, 0, 64, 20
1, 174421, Note_off_c, 0, 38, 62
1, 174428, Note_on_c, 0, 68, 33
1, 174430, Note_off_c, 0, 62, 59
1, 174431, Note_off_c, 0, 50, 59
1, 174434, Control_c, 0, 64, 44
1, 174448, Control_c, 0, 64, 67
1, 174457, Note_off_c, 0, 68, 55
1, 174463, Control_c, 0, 64, 127
1, 174493, Note_off_c, 0, 70, 62
1, 174504, Note_off_c, 0, 46, 61
1, 174526, Note_on_c, 0, 49, 86
1, 174530, Note_on_c, 0, 37, 69
1, 174535, Note_on_c, 0, 73, 75
1, 174536, Note_on_c, 0, 61, 75
1, 174549, Note_off_c, 0, 49, 72
1, 174557, Note_off_c, 0, 37, 66
1, 174560, Note_off_c, 0, 61, 69
1, 174565, Note_off_c, 0, 73, 64
1, 174618, Note_on_c, 0, 50, 73
1, 174619, Note_on_c, 0, 38, 67
1, 174619, Note_on_c, 0, 62, 88
1, 174624, Note_on_c, 0, 74, 90
1, 174642, Note_off_c, 0, 50, 68
1, 174645, Note_off_c, 0, 74, 65
1, 174647, Note_off_c, 0, 62, 66
1, 174650, Note_off_c, 0, 38, 66
1, 174713, Note_on_c, 0, 52, 85
1, 174715, Note_on_c, 0, 64, 87
1, 174717, Note_on_c, 0, 76, 91
1, 174719, Note_on_c, 0, 40, 68
1, 174736, Note_off_c, 0, 52, 72
1, 174736, Note_off_c, 0, 64, 69
1, 174739, Note_off_c, 0, 76, 67
1, 174743, Note_off_c, 0, 40, 60
1, 174809, Note_on_c, 0, 65, 87
1, 174815, Note_on_c, 0, 41, 53
1, 174817, Note_on_c, 0, 53, 59
1, 174818, Note_on_c, 0, 55, 74
1, 174819, Note_on_c, 0, 77, 77
1, 174829, Note_off_c, 0, 65, 71
1, 174830, Note_on_c, 0, 79, 59
1, 174835, Note_off_c, 0, 55, 69
1, 174839, Note_off_c, 0, 53, 67
1, 174841, Note_off_c, 0, 77, 66
1, 174842, Note_off_c, 0, 41, 58
1, 174850, Note_off_c, 0, 79, 64
1, 174901, Note_on_c, 0, 79, 90
1, 174908, Note_on_c, 0, 55, 76
1, 174911, Note_on_c, 0, 65, 70
1, 174911, Note_on_c, 0, 77, 76
1, 174913, Note_on_c, 0, 67, 65
1, 174914, Note_on_c, 0, 43, 53
1, 174922, Note_off_c, 0, 79, 67
1, 174924, Note_off_c, 0, 65, 74
1, 174928, Note_off_c, 0, 77, 69
1, 174932, Note_off_c, 0, 67, 65
1, 174949, Note_off_c, 0, 55, 68
1, 174951, Note_off_c, 0, 43, 60
1, 174976, Control_c, 0, 64, 103
1, 174991, Control_c, 0, 64, 63
1, 175005, Control_c, 0, 64, 41
1, 175016, Note_on_c, 0, 65, 72
1, 175017, Note_on_c, 0, 69, 86
1, 175020, Control_c, 0, 64, 0
1, 175021, Note_on_c, 0, 53, 68
1, 175023, Note_on_c, 0, 45, 70
1, 175023, Note_on_c, 0, 77, 69
1, 175024, Note_on_c, 0, 41, 57
1, 175026, Note_on_c, 0, 76, 76
1, 175035, Control_c, 0, 64, 15
1, 175050, Control_c, 0, 64, 41
1, 175051, Note_off_c, 0, 53, 66
1, 175054, Note_off_c, 0, 41, 66
1, 175055, Note_off_c, 0, 77, 61
1, 175057, Note_off_c, 0, 76, 56
1, 175058, Note_off_c, 0, 65, 64
1, 175065, Note_off_c, 0, 45, 65
1, 175065, Control_c, 0, 64, 63
1, 175067, Note_off_c, 0, 69, 62
1, 175079, Control_c, 0, 64, 127
1, 175131, Note_on_c, 0, 76, 84
1, 175132, Note_on_c, 0, 64, 80
1, 175134, Note_on_c, 0, 52, 72
1, 175136, Note_on_c, 0, 40, 78
1, 175152, Note_off_c, 0, 76, 69
1, 175153, Note_off_c, 0, 64, 70
1, 175156, Note_off_c, 0, 52, 67
1, 175165, Note_off_c, 0, 40, 67
1, 175219, Note_on_c, 0, 50, 85
1, 175227, Note_on_c, 0, 38, 75
1, 175227, Note_on_c, 0, 62, 82
1, 175227, Note_on_c, 0, 74, 83
1, 175241, Note_off_c, 0, 50, 72
1, 175247, Note_off_c, 0, 62, 70
1, 175247, Note_off_c, 0, 74, 69
1, 175256, Note_off_c, 0, 38, 65
1, 175318, Note_on_c, 0, 49, 86
1, 175318, Note_on_c, 0, 61, 87
1, 175319, Note_on_c, 0, 73, 99
1, 175327, Note_on_c, 0, 37, 73
1, 175339, Note_off_c, 0, 49, 73
1, 175347, Note_off_c, 0, 61, 65
1, 175358, Note_off_c, 0, 37, 64
1, 175358, Note_off_c, 0, 73, 64
1, 175408, Note_on_c, 0, 50, 74
1, 175411, Note_on_c, 0, 38, 72
1, 175413, Note_on_c, 0, 62, 85
1, 175415, Note_on_c, 0, 74, 86
1, 175433, Note_off_c, 0, 50, 67
1, 175433, Note_off_c, 0, 62, 71
1, 175438, Note_off_c, 0, 74, 66
1, 175440, Note_off_c, 0, 38, 66
1, 175507, Note_on_c, 0, 52, 89
1, 175510, Note_on_c, 0, 64, 82
1, 175510, Note_on_c, 0, 76, 88
1, 175513, Note_on_c, 0, 40, 76
1, 175529, Note_off_c, 0, 52, 70
1, 175532, Note_off_c, 0, 76, 67
1, 175534, Note_off_c, 0, 64, 67
1, 175541, Note_off_c, 0, 40, 67
1, 175584, Control_c, 0, 64, 83
1, 175599, Control_c, 0, 64, 48
1, 175613, Control_c, 0, 64, 0
1, 175614, Note_on_c, 0, 50, 93
1, 175617, Note_on_c, 0, 62, 104
1, 175618, Note_on_c, 0, 74, 95
1, 175621, Note_on_c, 0, 38, 85
1, 175622, Note_on_c, 0, 70, 91
1, 175629, Note_on_c, 0, 46, 81
1, 175656, Note_on_c, 0, 68, 50
1, 175664, Note_off_c, 0, 74, 58
1, 175665, Note_on_c, 0, 73, 26
1, 175673, Control_c, 0, 64, 28
1, 175674, Note_off_c, 0, 38, 65
1, 175675, Note_off_c, 0, 50, 60
1, 175677, Note_off_c, 0, 62, 60
1, 175695, Control_c, 0, 64, 54
1, 175704, Note_off_c, 0, 68, 63
1, 175709, Control_c, 0, 64, 127
1, 175714, Note_off_c, 0, 73, 28
1, 175742, Poly_aftertouch_c, 0, 42, 127
1, 175745, Note_off_c, 0, 70, 60
1, 175751, Note_off_c, 0, 46, 62
1, 175775, Note_on_c, 0, 73, 84
1, 175776, Poly_aftertouch_c, 0, 42, 0
1, 175778, Note_on_c, 0, 49, 81
1, 175785, Note_on_c, 0, 37, 71
1, 175785, Note_on_c, 0, 61, 69
1, 175802, Note_off_c, 0, 49, 71
1, 175808, Note_off_c, 0, 61, 70
1, 175809, Note_off_c, 0, 37, 67
1, 175816, Note_off_c, 0, 73, 64
1, 175867, Note_on_c, 0, 62, 96
1, 175868, Note_on_c, 0, 50, 75
1, 175872, Note_on_c, 0, 38, 71
1, 175872, Note_on_c, 0, 74, 89
1, 175888, Note_off_c, 0, 50, 72
1, 175891, Note_off_c, 0, 62, 65
1, 175897, Note_off_c, 0, 38, 69
1, 175897, Note_off_c, 0, 74, 63
1, 175957, Note_on_c, 0, 52, 89
1, 175960, Note_on_c, 0, 40, 79
1, 175964, Note_on_c, 0, 64, 84
1, 175966, Note_on_c, 0, 76, 85
1, 175980, Note_off_c, 0, 52, 71
1, 175986, Note_off_c, 0, 40, 67
1, 175987, Note_off_c, 0, 64, 68
1, 175988, Note_off_c, 0, 76, 66
1, 176049, Note_on_c, 0, 53, 84
1, 176058, Note_on_c, 0, 65, 85
1, 176058, Note_on_c, 0, 41, 66
1, 176060, Note_on_c, 0, 77, 88
1, 176064, Poly_aftertouch_c, 0, 74, 0
1, 176072, Note_off_c, 0, 53, 73
1, 176078, Note_off_c, 0, 77, 72
1, 176079, Note_off_c, 0, 65, 70
1, 176082, Note_off_c, 0, 41, 65
1, 176142, Note_on_c, 0, 79, 87
1, 176145, Note_on_c, 0, 67, 79
1, 176155, Note_on_c, 0, 55, 70
1, 176162, Note_on_c, 0, 43, 59
1, 176164, Note_off_c, 0, 79, 65
1, 176166, Note_off_c, 0, 67, 71
1, 176177, Note_off_c, 0, 55, 68
1, 176184, Note_on_c, 0, 77, 37
1, 176185, Note_off_c, 0, 77, 127
1, 176189, Note_off_c, 0, 43, 56
1, 176213, Control_c, 0, 64, 78
1, 176228, Control_c, 0, 64, 54
1, 176243, Control_c, 0, 64, 0
1, 176258, Note_on_c, 0, 69, 81
1, 176262, Note_on_c, 0, 53, 67
1, 176265, Note_on_c, 0, 45, 67
1, 176266, Note_on_c, 0, 65, 72
1, 176269, Note_on_c, 0, 77, 67
1, 176273, Control_c, 0, 64, 18
1, 176285, Note_off_c, 0, 65, 68
1, 176285, Note_off_c, 0, 53, 62
1, 176287, Note_off_c, 0, 77, 65
1, 176288, Note_off_c, 0, 69, 64
1, 176288, Control_c, 0, 64, 44
1, 176299, Note_off_c, 0, 45, 63
1, 176300, Note_on_c, 0, 41, 3
1, 176303, Control_c, 0, 64, 66
1, 176318, Control_c, 0, 64, 127
1, 176328, Note_off_c, 0, 41, 56
1, 176355, Poly_aftertouch_c, 0, 76, 127
1, 176360, Note_on_c, 0, 64, 81
1, 176366, Note_on_c, 0, 40, 79
1, 176368, Note_on_c, 0, 76, 13
1, 176370, Note_on_c, 0, 52, 61
1, 176380, Note_off_c, 0, 64, 70
1, 176382, Note_on_c, 0, 50, 41
1, 176395, Note_off_c, 0, 40, 66
1, 176396, Note_off_c, 0, 52, 59
1, 176398, Note_on_c, 0, 74, 16
1, 176401, Note_off_c, 0, 76, 54
1, 176412, Note_off_c, 0, 50, 52
1, 176449, Note_off_c, 0, 74, 0
1, 176460, Note_on_c, 0, 74, 73
1, 176462, Note_on_c, 0, 38, 84
1, 176462, Note_on_c, 0, 62, 91
1, 176463, Note_on_c, 0, 50, 81
1, 176481, Note_off_c, 0, 62, 73
1, 176485, Note_off_c, 0, 50, 69
1, 176487, Note_off_c, 0, 38, 67
1, 176493, Note_off_c, 0, 74, 64
1, 176517, Control_c, 0, 64, 74
1, 176532, Control_c, 0, 64, 57
1, 176547, Control_c, 0, 64, 49
1, 176553, Note_on_c, 0, 53, 91
1, 176554, Note_on_c, 0, 65, 93
1, 176554, Note_on_c, 0, 73, 83
1, 176557, Note_on_c, 0, 77, 94
1, 176560, Note_on_c, 0, 49, 80
1, 176562, Control_c, 0, 64, 59
1, 176562, Note_on_c, 0, 41, 60
1, 176571, Note_off_c, 0, 65, 74
1, 176573, Note_off_c, 0, 53, 73
1, 176575, Note_off_c, 0, 77, 68
1, 176577, Control_c, 0, 64, 98
1, 176584, Note_off_c, 0, 41, 64
1, 176586, Note_off_c, 0, 73, 60
1, 176587, Note_off_c, 0, 49, 69
1, 176592, Control_c, 0, 64, 127
1, 176624, Note_on_c, 0, 52, 14
1, 176641, Poly_aftertouch_c, 0, 46, 0
1, 176642, Poly_aftertouch_c, 0, 75, 0
1, 176648, Note_on_c, 0, 55, 94
1, 176648, Note_on_c, 0, 67, 100
1, 176651, Note_on_c, 0, 79, 94
1, 176653, Note_on_c, 0, 43, 77
1, 176655, Note_off_c, 0, 52, 42
1, 176660, Poly_aftertouch_c, 0, 46, 0
1, 176672, Note_off_c, 0, 55, 70
1, 176672, Note_off_c, 0, 67, 64
1, 176679, Note_off_c, 0, 79, 62
1, 176681, Note_off_c, 0, 43, 65
1, 176743, Note_on_c, 0, 70, 98
1, 176747, Note_on_c, 0, 46, 83
1, 176747, Note_on_c, 0, 58, 94
1, 176750, Note_on_c, 0, 82, 90
1, 176769, Note_off_c, 0, 82, 71
1, 176774, Note_off_c, 0, 70, 66
1, 176779, Note_off_c, 0, 46, 64
1, 176780, Note_off_c, 0, 58, 60
1, 176791, Note_on_c, 0, 80, 26
1, 176814, Control_c, 0, 64, 76
1, 176827, Note_off_c, 0, 80, 54
1, 176829, Control_c, 0, 64, 48
1, 176834, Poly_aftertouch_c, 0, 56, 0
1, 176843, Note_on_c, 0, 56, 55
1, 176843, Control_c, 0, 64, 0
1, 176846, Note_on_c, 0, 80, 84
1, 176849, Note_on_c, 0, 68, 101
1, 176854, Note_on_c, 0, 72, 83
1, 176855, Note_on_c, 0, 44, 81
1, 176861, Note_on_c, 0, 48, 79
1, 176873, Control_c, 0, 64, 32
1, 176878, Note_on_c, 0, 73, 48
1, 176887, Control_c, 0, 64, 57
1, 176888, Note_off_c, 0, 44, 64
1, 176890, Note_off_c, 0, 68, 65
1, 176894, Note_off_c, 0, 56, 67
1, 176894, Note_off_c, 0, 80, 67
1, 176901, Note_off_c, 0, 48, 59
1, 176902, Control_c, 0, 64, 127
1, 176905, Note_off_c, 0, 73, 59
1, 176912, Note_off_c, 0, 72, 60
1, 176952, Note_on_c, 0, 55, 81
1, 176955, Note_on_c, 0, 48, 55
1, 176958, Note_on_c, 0, 43, 75
1, 176958, Note_on_c, 0, 67, 93
1, 176958, Note_on_c, 0, 79, 86
1, 176962, Note_on_c, 0, 72, 62
1, 176973, Note_off_c, 0, 55, 71
1, 176980, Note_off_c, 0, 48, 69
1, 176981, Note_off_c, 0, 67, 64
1, 176985, Note_off_c, 0, 72, 70
1, 176988, Note_off_c, 0, 43, 64
1, 176992, Note_off_c, 0, 79, 57
1, 177042, Note_on_c, 0, 43, 85
1, 177048, Note_on_c, 0, 53, 79
1, 177051, Note_on_c, 0, 55, 64
1, 177051, Note_on_c, 0, 65, 95
1, 177060, Note_on_c, 0, 77, 89
1, 177070, Note_off_c, 0, 43, 66
1, 177072, Note_off_c, 0, 53, 69
1, 177074, Note_off_c, 0, 55, 66
1, 177080, Note_off_c, 0, 77, 69
1, 177083, Note_off_c, 0, 65, 68
1, 177112, Control_c, 0, 64, 73
1, 177127, Control_c, 0, 64, 48
1, 177141, Control_c, 0, 64, 37
1, 177145, Note_on_c, 0, 56, 92
1, 177146, Note_on_c, 0, 68, 89
1, 177150, Note_on_c, 0, 52, 79
1, 177151, Note_on_c, 0, 44, 76
1, 177154, Note_on_c, 0, 76, 70
1, 177156, Control_c, 0, 64, 54
1, 177164, Note_on_c, 0, 80, 66
1, 177164, Note_off_c, 0, 68, 66
1, 177171, Control_c, 0, 64, 91
1, 177180, Note_off_c, 0, 44, 65
1, 177180, Note_off_c, 0, 56, 65
1, 177193, Note_off_c, 0, 76, 67
1, 177193, Control_c, 0, 64, 127
1, 177200, Note_off_c, 0, 52, 63
1, 177200, Note_off_c, 0, 80, 66
1, 177224, Poly_aftertouch_c, 0, 75, 127
1, 177248, Note_on_c, 0, 70, 95
1, 177251, Note_on_c, 0, 46, 84
1, 177251, Note_on_c, 0, 58, 90
1, 177257, Poly_aftertouch_c, 0, 75, 0
1, 177260, Note_on_c, 0, 82, 81
1, 177269, Note_on_c, 0, 80, 62
1, 177273, Note_off_c, 0, 58, 67
1, 177275, Note_off_c, 0, 70, 60
1, 177279, Note_off_c, 0, 82, 70
1, 177280, Note_off_c, 0, 46, 68
1, 177291, Note_off_c, 0, 80, 64
1, 177343, Note_on_c, 0, 61, 94
1, 177345, Note_on_c, 0, 49, 68
1, 177346, Note_on_c, 0, 85, 74
1, 177352, Note_on_c, 0, 72, 83
1, 177361, Note_on_c, 0, 84, 69
1, 177361, Note_off_c, 0, 85, 69
1, 177370, Note_off_c, 0, 72, 73
1, 177377, Note_off_c, 0, 84, 67
1, 177379, Note_off_c, 0, 49, 68
1, 177381, Note_off_c, 0, 61, 64
1, 177430, Control_c, 0, 64, 67
1, 177440, Note_on_c, 0, 59, 88
1, 177441, Note_on_c, 0, 83, 98
1, 177442, Note_on_c, 0, 51, 90
1, 177442, Note_on_c, 0, 71, 96
1, 177445, Control_c, 0, 64, 47
1, 177459, Note_on_c, 0, 47, 52
1, 177460, Control_c, 0, 64, 31
1, 177465, Note_off_c, 0, 71, 67
1, 177468, Note_on_c, 0, 76, 62
1, 177468, Note_off_c, 0, 83, 64
1, 177469, Note_off_c, 0, 59, 64
1, 177474, Control_c, 0, 64, 46
1, 177479, Note_on_c, 0, 72, 31
1, 177480, Note_off_c, 0, 72, 127
1, 177486, Note_off_c, 0, 76, 67
1, 177489, Note_off_c, 0, 47, 35
1, 177489, Control_c, 0, 64, 67
1, 177495, Note_off_c, 0, 51, 66
1, 177504, Control_c, 0, 64, 127
1, 177541, Note_on_c, 0, 58, 95
1, 177543, Note_on_c, 0, 70, 91
1, 177546, Note_on_c, 0, 82, 87
1, 177556, Note_on_c, 0, 46, 72
1, 177564, Note_off_c, 0, 82, 74
1, 177566, Note_on_c, 0, 75, 29
1, 177574, Note_off_c, 0, 70, 62
1, 177575, Note_off_c, 0, 58, 60
1, 177585, Note_off_c, 0, 46, 67
1, 177606, Note_off_c, 0, 75, 41
1, 177631, Note_on_c, 0, 80, 77
1, 177635, Note_on_c, 0, 68, 81
1, 177640, Note_on_c, 0, 56, 84
1, 177644, Note_on_c, 0, 44, 83
1, 177660, Note_off_c, 0, 56, 73
1, 177660, Note_off_c, 0, 68, 64
1, 177669, Note_off_c, 0, 44, 69
1, 177677, Note_off_c, 0, 80, 59
1, 177697, Control_c, 0, 64, 74
1, 177711, Control_c, 0, 64, 45
1, 177726, Control_c, 0, 64, 0
1, 177732, Note_on_c, 0, 71, 94
1, 177734, Note_on_c, 0, 59, 89
1, 177738, Note_on_c, 0, 83, 76
1, 177739, Note_on_c, 0, 79, 82
1, 177741, Control_c, 0, 64, 18
1, 177742, Note_on_c, 0, 54, 43
1, 177742, Note_on_c, 0, 55, 75
1, 177745, Note_on_c, 0, 78, 43
1, 177751, Note_on_c, 0, 47, 53
1, 177756, Control_c, 0, 64, 48
1, 177766, Note_on_c, 0, 81, 48
1, 177766, Note_off_c, 0, 71, 63
1, 177767, Note_off_c, 0, 83, 65
1, 177771, Control_c, 0, 64, 80
1, 177772, Note_off_c, 0, 78, 39
1, 177775, Note_off_c, 0, 54, 37
1, 177779, Note_off_c, 0, 59, 49
1, 177782, Note_off_c, 0, 47, 35
1, 177784, Note_off_c, 0, 79, 61
1, 177785, Note_off_c, 0, 55, 63
1, 177785, Control_c, 0, 64, 127
1, 177793, Note_off_c, 0, 81, 34
1, 177837, Note_on_c, 0, 73, 90
1, 177839, Note_on_c, 0, 61, 99
1, 177840, Note_on_c, 0, 49, 86
1, 177840, Note_on_c, 0, 85, 101
1, 177868, Note_off_c, 0, 61, 61
1, 177871, Note_on_c, 0, 86, 54
1, 177872, Note_off_c, 0, 86, 127
1, 177874, Note_off_c, 0, 49, 64
1, 177875, Note_off_c, 0, 73, 64
1, 177877, Note_off_c, 0, 85, 63
1, 177942, Note_on_c, 0, 88, 103
1, 177944, Note_on_c, 0, 76, 101
1, 177945, Note_on_c, 0, 64, 90
1, 177952, Note_on_c, 0, 52, 85
1, 177968, Note_off_c, 0, 64, 68
1, 177969, Note_off_c, 0, 76, 64
1, 177975, Note_off_c, 0, 88, 69
1, 177976, Note_off_c, 0, 52, 70
1, 178031, Control_c, 0, 64, 88
1, 178046, Note_on_c, 0, 86, 85
1, 178046, Control_c, 0, 64, 50
1, 178049, Note_on_c, 0, 74, 101
1, 178049, Note_on_c, 0, 62, 106
1, 178053, Note_on_c, 0, 78, 101
1, 178060, Note_on_c, 0, 54, 83
1, 178061, Control_c, 0, 64, 0
1, 178062, Note_on_c, 0, 50, 73
1, 178080, Note_off_c, 0, 50, 68
1, 178089, Note_on_c, 0, 76, 37
1, 178090, Note_off_c, 0, 76, 127
1, 178090, Control_c, 0, 64, 32
1, 178095, Note_off_c, 0, 62, 63
1, 178100, Note_off_c, 0, 74, 65
1, 178103, Note_off_c, 0, 86, 61
1, 178105, Control_c, 0, 64, 60
1, 178120, Control_c, 0, 64, 127
1, 178125, Note_off_c, 0, 54, 65
1, 178151, Note_off_c, 0, 78, 62
1, 178183, Note_on_c, 0, 61, 94
1, 178183, Note_on_c, 0, 85, 100
1, 178185, Note_on_c, 0, 73, 98
1, 178187, Note_on_c, 0, 49, 87
1, 178206, Note_off_c, 0, 61, 69
1, 178210, Note_on_c, 0, 75, 49
1, 178210, Note_off_c, 0, 73, 61
1, 178214, Note_off_c, 0, 49, 65
1, 178224, Note_off_c, 0, 85, 67
1, 178235, Note_off_c, 0, 75, 61
1, 178288, Note_on_c, 0, 71, 98
1, 178288, Note_on_c, 0, 83, 97
1, 178291, Note_on_c, 0, 59, 94
1, 178293, Note_on_c, 0, 47, 89
1, 178321, Note_off_c, 0, 83, 69
1, 178323, Note_off_c, 0, 59, 63
1, 178324, Note_off_c, 0, 47, 65
1, 178334, Note_off_c, 0, 71, 60
1, 178379, Poly_aftertouch_c, 0, 72, 127
1, 178411, Poly_aftertouch_c, 0, 72, 0
1, 178416, Control_c, 0, 64, 60
1, 178431, Control_c, 0, 64, 0
1, 178434, Note_on_c, 0, 58, 100
1, 178435, Note_on_c, 0, 70, 106
1, 178439, Note_on_c, 0, 46, 94
1, 178439, Note_on_c, 0, 82, 95
1, 178440, Note_on_c, 0, 74, 92
1, 178443, Note_on_c, 0, 77, 88
1, 178468, Note_on_c, 0, 80, 53
1, 178488, Control_c, 0, 64, 51
1, 178503, Control_c, 0, 64, 127
1, 178508, Note_off_c, 0, 80, 44
1, 178516, Note_off_c, 0, 58, 61
1, 178516, Note_off_c, 0, 70, 59
1, 178522, Note_off_c, 0, 46, 63
1, 178530, Note_off_c, 0, 82, 62
1, 178547, Note_off_c, 0, 74, 62
1, 178553, Note_off_c, 0, 77, 60
1, 178618, Note_on_c, 0, 56, 92
1, 178622, Note_on_c, 0, 71, 93
1, 178622, Note_on_c, 0, 83, 100
1, 178623, Note_on_c, 0, 44, 85
1, 178646, Note_off_c, 0, 56, 65
1, 178650, Note_off_c, 0, 71, 65
1, 178661, Note_off_c, 0, 44, 60
1, 178663, Note_off_c, 0, 83, 66
1, 178756, Note_on_c, 0, 53, 91
1, 178760, Note_on_c, 0, 86, 85
1, 178760, Note_on_c, 0, 41, 74
1, 178765, Note_on_c, 0, 74, 76
1, 178776, Note_off_c, 0, 53, 73
1, 178779, Note_on_c, 0, 84, 60
1, 178780, Note_off_c, 0, 74, 71
1, 178783, Note_off_c, 0, 86, 66
1, 178790, Note_off_c, 0, 41, 68
1, 178801, Note_off_c, 0, 84, 38
1, 178860, Poly_aftertouch_c, 0, 72, 0
1, 178871, Note_on_c, 0, 91, 95
1, 178875, Note_on_c, 0, 50, 74
1, 178877, Note_on_c, 0, 79, 79
1, 178878, Note_on_c, 0, 38, 76
1, 178890, Note_off_c, 0, 79, 71
1, 178899, Note_off_c, 0, 50, 69
1, 178902, Note_off_c, 0, 38, 59
1, 178905, Note_off_c, 0, 91, 59
1, 178980, Note_on_c, 0, 94, 99
1, 178981, Note_on_c, 0, 49, 81
1, 178981, Note_on_c, 0, 82, 91
1, 178994, Note_on_c, 0, 37, 66
1, 179007, Note_off_c, 0, 49, 69
1, 179018, Note_off_c, 0, 94, 67
1, 179019, Note_off_c, 0, 82, 63
1, 179026, Note_off_c, 0, 37, 65
1, 179085, Note_on_c, 0, 47, 92
1, 179088, Note_on_c, 0, 35, 87
1, 179093, Note_on_c, 0, 83, 98
1, 179093, Note_on_c, 0, 95, 106
1, 179121, Note_off_c, 0, 35, 66
1, 179123, Note_off_c, 0, 83, 66
1, 179124, Note_off_c, 0, 95, 69
1, 179126, Note_off_c, 0, 47, 63
1, 179212, Note_on_c, 0, 95, 109
1, 179215, Note_on_c, 0, 83, 100
1, 179215, Note_on_c, 0, 45, 96
1, 179221, Note_on_c, 0, 33, 90
1, 179245, Note_off_c, 0, 83, 71
1, 179251, Note_off_c, 0, 95, 66
1, 179252, Note_off_c, 0, 45, 64
1, 179255, Note_on_c, 0, 35, 41
1, 179272, Note_off_c, 0, 33, 61
1, 179276, Note_off_c, 0, 35, 62
1, 179355, Note_on_c, 0, 83, 102
1, 179355, Note_on_c, 0, 95, 109
1, 179356, Note_on_c, 0, 44, 101
1, 179362, Note_on_c, 0, 32, 92
1, 179395, Note_off_c, 0, 83, 66
1, 179400, Note_off_c, 0, 44, 63
1, 179410, Note_off_c, 0, 95, 59
1, 179419, Note_off_c, 0, 32, 62
1, 179520, Note_on_c, 0, 95, 110
1, 179521, Note_on_c, 0, 43, 104
1, 179521, Note_on_c, 0, 83, 107
1, 179525, Note_on_c, 0, 31, 96
1, 179579, Note_off_c, 0, 31, 61
1, 179591, Note_off_c, 0, 43, 55
1, 179617, Note_off_c, 0, 95, 60
1, 179623, Note_off_c, 0, 83, 49
1, 179734, Control_c, 0, 64, 67
1, 179749, Control_c, 0, 64, 36
1, 179757, Note_on_c, 0, 86, 103
1, 179758, Note_on_c, 0, 42, 107
1, 179760, Note_on_c, 0, 30, 99
1, 179760, Note_on_c, 0, 95, 109
1, 179761, Note_on_c, 0, 83, 108
1, 179761, Note_on_c, 0, 90, 98
1, 179764, Control_c, 0, 64, 0
1, 179853, Control_c, 0, 64, 44
1, 179868, Control_c, 0, 64, 74
1, 179874, Note_off_c, 0, 95, 62
1, 179883, Control_c, 0, 64, 127
1, 179883, Note_off_c, 0, 83, 59
1, 179906, Note_off_c, 0, 30, 61
1, 179917, Note_off_c, 0, 42, 58
1, 179945, Note_off_c, 0, 86, 56
1, 179978, Note_off_c, 0, 90, 66
1, 180021, Note_on_c, 0, 46, 92
1, 180021, Note_on_c, 0, 82, 101
1, 180023, Note_on_c, 0, 94, 100
1, 180026, Note_on_c, 0, 34, 91
1, 180068, Note_off_c, 0, 82, 64
1, 180074, Note_off_c, 0, 94, 68
1, 180078, Note_off_c, 0, 46, 63
1, 180083, Note_off_c, 0, 34, 64
1, 180170, Note_on_c, 0, 47, 89
1, 180174, Note_on_c, 0, 95, 97
1, 180175, Note_on_c, 0, 35, 74
1, 180176, Note_on_c, 0, 83, 87
1, 180217, Note_off_c, 0, 35, 62
1, 180219, Note_off_c, 0, 83, 67
1, 180225, Note_off_c, 0, 47, 61
1, 180227, Note_off_c, 0, 95, 65
1, 180309, Note_on_c, 0, 82, 92
1, 180311, Note_on_c, 0, 94, 93
1, 180312, Note_on_c, 0, 48, 82
1, 180318, Note_on_c, 0, 36, 73
1, 180336, Note_off_c, 0, 48, 70
1, 180349, Note_off_c, 0, 82, 61
1, 180351, Note_off_c, 0, 94, 68
1, 180363, Note_off_c, 0, 36, 58
1, 180416, Note_on_c, 0, 49, 90
1, 180421, Note_on_c, 0, 37, 75
1, 180424, Note_on_c, 0, 81, 88
1, 180426, Note_on_c, 0, 93, 91
1, 180447, Note_off_c, 0, 49, 61
1, 180452, Note_off_c, 0, 93, 66
1, 180455, Note_off_c, 0, 81, 64
1, 180462, Note_off_c, 0, 37, 64
1, 180515, Note_on_c, 0, 38, 87
1, 180515, Note_on_c, 0, 50, 87
1, 180517, Note_on_c, 0, 92, 99
1, 180522, Note_on_c, 0, 80, 92
1, 180553, Note_off_c, 0, 50, 61
1, 180566, Note_off_c, 0, 80, 62
1, 180572, Note_off_c, 0, 38, 63
1, 180573, Note_off_c, 0, 92, 64
1, 180602, Control_c, 0, 64, 80
1, 180616, Control_c, 0, 64, 50
1, 180625, Note_on_c, 0, 49, 98
1, 180625, Note_on_c, 0, 93, 91
1, 180627, Note_on_c, 0, 81, 104
1, 180628, Note_on_c, 0, 88, 95
1, 180631, Control_c, 0, 64, 0
1, 180634, Note_on_c, 0, 37, 86
1, 180661, Control_c, 0, 64, 23
1, 180662, Note_on_c, 0, 39, 43
1, 180676, Control_c, 0, 64, 52
1, 180691, Control_c, 0, 64, 127
1, 180694, Note_off_c, 0, 39, 35
1, 180697, Note_off_c, 0, 81, 62
1, 180697, Note_off_c, 0, 49, 66
1, 180701, Note_off_c, 0, 93, 64
1, 180731, Note_off_c, 0, 37, 60
1, 180741, Poly_aftertouch_c, 0, 83, 0
1, 180746, Note_off_c, 0, 88, 66
1, 180785, Note_on_c, 0, 48, 84
1, 180789, Note_on_c, 0, 36, 71
1, 180792, Note_on_c, 0, 80, 83
1, 180792, Note_on_c, 0, 92, 89
1, 180810, Note_off_c, 0, 48, 70
1, 180817, Note_off_c, 0, 80, 62
1, 180832, Note_off_c, 0, 92, 66
1, 180851, Note_off_c, 0, 36, 45
1, 180887, Note_on_c, 0, 49, 86
1, 180891, Note_on_c, 0, 81, 85
1, 180891, Note_on_c, 0, 93, 90
1, 180897, Note_on_c, 0, 37, 66
1, 180911, Note_off_c, 0, 81, 70
1, 180915, Note_off_c, 0, 93, 65
1, 180922, Note_off_c, 0, 49, 64
1, 180935, Note_off_c, 0, 37, 62
1, 180994, Note_on_c, 0, 80, 88
1, 180996, Note_on_c, 0, 50, 78
1, 180996, Note_on_c, 0, 92, 87
1, 181001, Note_on_c, 0, 38, 75
1, 181015, Note_off_c, 0, 80, 61
1, 181021, Note_off_c, 0, 50, 68
1, 181035, Note_off_c, 0, 92, 64
1, 181039, Note_off_c, 0, 38, 61
1, 181090, Note_on_c, 0, 51, 89
1, 181093, Note_on_c, 0, 39, 77
1, 181093, Note_on_c, 0, 91, 95
1, 181095, Note_on_c, 0, 79, 87
1, 181114, Note_off_c, 0, 79, 70
1, 181117, Note_off_c, 0, 51, 66
1, 181124, Note_off_c, 0, 91, 56
1, 181125, Note_off_c, 0, 39, 66
1, 181178, Note_on_c, 0, 52, 91
1, 181179, Note_on_c, 0, 78, 96
1, 181180, Note_on_c, 0, 40, 87
1, 181183, Note_on_c, 0, 90, 95
1, 181212, Note_off_c, 0, 52, 65
1, 181221, Note_off_c, 0, 78, 67
1, 181223, Note_off_c, 0, 90, 68
1, 181233, Note_off_c, 0, 40, 63
1, 181262, Control_c, 0, 64, 61
1, 181277, Control_c, 0, 64, 27
1, 181281, Note_on_c, 0, 79, 99
1, 181283, Note_on_c, 0, 82, 95
1, 181284, Note_on_c, 0, 51, 95
1, 181286, Note_on_c, 0, 85, 89
1, 181287, Note_on_c, 0, 91, 87
1, 181290, Note_on_c, 0, 39, 84
1, 181291, Control_c, 0, 64, 0
1, 181306, Control_c, 0, 64, 19
1, 181309, Note_on_c, 0, 89, 56
1, 181320, Note_off_c, 0, 79, 64
1, 181320, Note_off_c, 0, 91, 60
1, 181321, Control_c, 0, 64, 47
1, 181333, Note_off_c, 0, 51, 67
1, 181334, Note_off_c, 0, 89, 37
1, 181336, Control_c, 0, 64, 99
1, 181351, Control_c, 0, 64, 127
1, 181362, Note_off_c, 0, 39, 62
1, 181370, Note_off_c, 0, 85, 59
1, 181379, Note_off_c, 0, 82, 57
1, 181418, Note_on_c, 0, 50, 85
1, 181423, Note_on_c, 0, 38, 77
1, 181433, Note_on_c, 0, 78, 83
1, 181437, Note_on_c, 0, 90, 85
1, 181443, Note_off_c, 0, 50, 69
1, 181452, Note_off_c, 0, 38, 62
1, 181459, Note_off_c, 0, 78, 65
1, 181468, Note_off_c, 0, 90, 67
1, 181519, Note_on_c, 0, 51, 92
1, 181527, Note_on_c, 0, 39, 78
1, 181533, Note_on_c, 0, 91, 77
1, 181534, Note_on_c, 0, 79, 68
1, 181547, Note_off_c, 0, 51, 68
1, 181552, Note_off_c, 0, 39, 68
1, 181552, Note_off_c, 0, 79, 65
1, 181554, Note_off_c, 0, 91, 68
1, 181606, Note_on_c, 0, 78, 93
1, 181612, Note_on_c, 0, 90, 86
1, 181613, Note_on_c, 0, 52, 85
1, 181615, Note_on_c, 0, 40, 84
1, 181627, Note_off_c, 0, 78, 63
1, 181633, Note_off_c, 0, 52, 74
1, 181638, Note_off_c, 0, 40, 68
1, 181641, Note_off_c, 0, 90, 65
1, 181707, Note_on_c, 0, 77, 98
1, 181707, Note_on_c, 0, 89, 97
1, 181711, Note_on_c, 0, 53, 91
1, 181716, Note_on_c, 0, 41, 75
1, 181736, Note_off_c, 0, 53, 70
1, 181738, Note_off_c, 0, 77, 64
1, 181745, Note_off_c, 0, 89, 65
1, 181755, Note_off_c, 0, 41, 58
1, 181801, Note_on_c, 0, 54, 95
1, 181804, Note_on_c, 0, 76, 94
1, 181806, Note_on_c, 0, 42, 83
1, 181806, Note_on_c, 0, 88, 92
1, 181823, Note_off_c, 0, 76, 65
1, 181831, Note_off_c, 0, 88, 63
1, 181838, Note_off_c, 0, 54, 61
1, 181850, Note_off_c, 0, 42, 60
1, 181862, Control_c, 0, 64, 75
1, 181877, Control_c, 0, 64, 50
1, 181892, Control_c, 0, 64, 0
1, 181899, Poly_aftertouch_c, 0, 85, 0
1, 181901, Note_on_c, 0, 77, 101
1, 181901, Note_on_c, 0, 82, 98
1, 181902, Note_on_c, 0, 89, 103
1, 181904, Note_on_c, 0, 85, 85
1, 181906, Note_on_c, 0, 53, 99
1, 181908, Note_on_c, 0, 41, 87
1, 181922, Control_c, 0, 64, 42
1, 181937, Control_c, 0, 64, 68
1, 181940, Note_off_c, 0, 53, 66
1, 181940, Note_off_c, 0, 77, 57
1, 181945, Note_off_c, 0, 89, 62
1, 181951, Control_c, 0, 64, 127
1, 181954, Note_off_c, 0, 41, 64
1, 181963, Note_off_c, 0, 82, 65
1, 181968, Note_off_c, 0, 85, 61
1, 182028, Note_on_c, 0, 52, 84
1, 182032, Note_on_c, 0, 40, 84
1, 182032, Note_on_c, 0, 76, 87
1, 182035, Note_on_c, 0, 88, 86
1, 182050, Note_off_c, 0, 52, 72
1, 182050, Note_off_c, 0, 76, 74
1, 182053, Note_off_c, 0, 88, 71
1, 182059, Note_off_c, 0, 40, 69
1, 182121, Note_on_c, 0, 53, 89
1, 182124, Note_on_c, 0, 41, 78
1, 182130, Note_on_c, 0, 76, 74
1, 182132, Note_on_c, 0, 88, 76
1, 182134, Note_on_c, 0, 77, 64
1, 182136, Note_on_c, 0, 89, 72
1, 182142, Note_off_c, 0, 53, 68
1, 182147, Note_off_c, 0, 76, 70
1, 182152, Note_off_c, 0, 89, 69
1, 182154, Note_off_c, 0, 88, 72
1, 182155, Note_off_c, 0, 77, 63
1, 182163, Note_off_c, 0, 41, 61
1, 182213, Note_on_c, 0, 54, 94
1, 182214, Note_on_c, 0, 75, 96
1, 182217, Note_on_c, 0, 42, 80
1, 182218, Note_on_c, 0, 87, 94
1, 182238, Note_off_c, 0, 54, 63
1, 182240, Note_off_c, 0, 75, 55
1, 182249, Note_off_c, 0, 42, 64
1, 182250, Note_off_c, 0, 87, 58
1, 182309, Note_on_c, 0, 43, 86
1, 182309, Note_on_c, 0, 55, 85
1, 182312, Note_on_c, 0, 86, 86
1, 182312, Note_on_c, 0, 74, 91
1, 182330, Note_off_c, 0, 55, 72
1, 182333, Note_off_c, 0, 74, 71
1, 182344, Note_off_c, 0, 86, 54
1, 182386, Note_on_c, 0, 44, 68
1, 182388, Note_on_c, 0, 56, 98
1, 182391, Note_on_c, 0, 75, 93
1, 182396, Note_on_c, 0, 86, 85
1, 182412, Note_off_c, 0, 75, 67
1, 182416, Note_off_c, 0, 86, 71
1, 182431, Note_off_c, 0, 43, 25
1, 182433, Note_off_c, 0, 56, 64
1, 182449, Note_off_c, 0, 44, 62
1, 182477, Control_c, 0, 64, 75
1, 182492, Control_c, 0, 64, 40
1, 182497, Note_on_c, 0, 76, 106
1, 182497, Note_on_c, 0, 88, 102
1, 182498, Note_on_c, 0, 82, 99
1, 182501, Note_on_c, 0, 55, 102
1, 182504, Note_on_c, 0, 85, 81
1, 182506, Note_on_c, 0, 43, 96
1, 182506, Poly_aftertouch_c, 0, 74, 0
1, 182506, Control_c, 0, 64, 0
1, 182534, Note_on_c, 0, 46, 36
1, 182535, Note_off_c, 0, 46, 127
1, 182536, Note_off_c, 0, 88, 64
1, 182536, Control_c, 0, 64, 31
1, 182540, Note_off_c, 0, 76, 63
1, 182542, Note_off_c, 0, 55, 66
1, 182551, Control_c, 0, 64, 60
1, 182560, Note_off_c, 0, 43, 62
1, 182562, Note_off_c, 0, 82, 65
1, 182566, Control_c, 0, 64, 127
1, 182577, Note_off_c, 0, 85, 63
1, 182614, Poly_aftertouch_c, 0, 49, 0
1, 182617, Note_on_c, 0, 54, 90
1, 182620, Note_on_c, 0, 75, 86
1, 182622, Note_on_c, 0, 87, 81
1, 182628, Note_on_c, 0, 42, 76
1, 182640, Note_off_c, 0, 87, 73
1, 182642, Note_off_c, 0, 75, 68
1, 182646, Note_off_c, 0, 54, 65
1, 182658, Note_off_c, 0, 42, 64
1, 182706, Note_on_c, 0, 88, 75
1, 182710, Note_on_c, 0, 55, 82
1, 182710, Note_on_c, 0, 76, 88
1, 182715, Note_on_c, 0, 43, 79
1, 182730, Note_off_c, 0, 76, 73
1, 182738, Note_off_c, 0, 55, 67
1, 182746, Note_off_c, 0, 88, 67
1, 182756, Note_off_c, 0, 43, 57
1, 182799, Note_on_c, 0, 56, 92
1, 182801, Note_on_c, 0, 75, 90
1, 182802, Note_on_c, 0, 87, 88
1, 182804, Note_on_c, 0, 44, 77
1, 182820, Note_off_c, 0, 75, 66
1, 182823, Note_off_c, 0, 56, 67
1, 182837, Note_off_c, 0, 44, 64
1, 182837, Note_off_c, 0, 87, 61
1, 182891, Note_on_c, 0, 57, 86
1, 182891, Note_on_c, 0, 74, 95
1, 182893, Note_on_c, 0, 45, 81
1, 182896, Note_on_c, 0, 86, 91
1, 182911, Note_off_c, 0, 74, 71
1, 182912, Note_off_c, 0, 57, 70
1, 182917, Note_off_c, 0, 86, 66
1, 182929, Note_off_c, 0, 45, 59
1, 182976, Note_on_c, 0, 85, 39
1, 182977, Note_on_c, 0, 46, 87
1, 182977, Note_on_c, 0, 58, 97
1, 182982, Note_on_c, 0, 73, 90
1, 183001, Note_off_c, 0, 73, 71
1, 183004, Note_off_c, 0, 85, 66
1, 183006, Note_off_c, 0, 58, 61
1, 183019, Note_off_c, 0, 46, 62
1, 183041, Control_c, 0, 64, 105
1, 183055, Control_c, 0, 64, 46
1, 183068, Note_on_c, 0, 74, 98
1, 183069, Note_on_c, 0, 77, 96
1, 183070, Note_on_c, 0, 59, 98
1, 183070, Control_c, 0, 64, 0
1, 183071, Note_on_c, 0, 86, 97
1, 183072, Note_on_c, 0, 47, 101
1, 183073, Note_on_c, 0, 80, 92
1, 183093, Note_on_c, 0, 57, 63
1, 183094, Note_off_c, 0, 57, 127
1, 183100, Control_c, 0, 64, 16
1, 183107, Note_off_c, 0, 74, 62
1, 183108, Note_off_c, 0, 59, 69
1, 183108, Note_off_c, 0, 86, 58
1, 183115, Control_c, 0, 64, 52
1, 183116, Note_off_c, 0, 47, 66
1, 183124, Note_off_c, 0, 77, 64
1, 183129, Control_c, 0, 64, 127
1, 183145, Note_off_c, 0, 80, 62
1, 183189, Note_on_c, 0, 58, 96
1, 183194, Note_on_c, 0, 46, 71
1, 183206, Note_on_c, 0, 73, 92
1, 183221, Note_off_c, 0, 73, 75
1, 183222, Note_on_c, 0, 86, 71
1, 183225, Note_on_c, 0, 85, 53
1, 183225, Note_off_c, 0, 58, 64
1, 183233, Note_off_c, 0, 46, 66
1, 183240, Note_off_c, 0, 86, 68
1, 183255, Note_off_c, 0, 85, 58
1, 183287, Note_on_c, 0, 59, 98
1, 183287, Note_on_c, 0, 47, 95
1, 183293, Note_on_c, 0, 74, 91
1, 183294, Note_on_c, 0, 86, 96
1, 183312, Note_off_c, 0, 59, 59
1, 183314, Note_off_c, 0, 47, 61
1, 183324, Note_off_c, 0, 74, 65
1, 183330, Note_off_c, 0, 86, 60
1, 183390, Note_on_c, 0, 85, 64
1, 183394, Note_on_c, 0, 60, 106
1, 183395, Note_on_c, 0, 73, 96
1, 183399, Note_on_c, 0, 48, 88
1, 183419, Note_on_c, 0, 86, 55
1, 183420, Note_on_c, 0, 75, 53
1, 183421, Note_off_c, 0, 75, 127
1, 183424, Note_off_c, 0, 48, 67
1, 183424, Note_off_c, 0, 60, 66
1, 183430, Note_off_c, 0, 73, 65
1, 183438, Note_off_c, 0, 85, 65
1, 183443, Note_off_c, 0, 86, 62
1, 183499, Note_on_c, 0, 61, 106
1, 183499, Poly_aftertouch_c, 0, 82, 0
1, 183502, Note_on_c, 0, 49, 103
1, 183504, Note_on_c, 0, 84, 104
1, 183505, Note_on_c, 0, 72, 106
1, 183533, Note_off_c, 0, 72, 69
1, 183534, Note_off_c, 0, 61, 70
1, 183534, Note_off_c, 0, 84, 67
1, 183540, Note_off_c, 0, 49, 67
1, 183601, Note_on_c, 0, 72, 109
1, 183606, Note_on_c, 0, 62, 101
1, 183611, Note_on_c, 0, 83, 85
1, 183612, Note_on_c, 0, 50, 91
1, 183614, Note_on_c, 0, 84, 84
1, 183632, Note_off_c, 0, 50, 72
1, 183633, Note_off_c, 0, 84, 67
1, 183633, Note_off_c, 0, 83, 66
1, 183636, Note_off_c, 0, 62, 69
1, 183640, Note_off_c, 0, 72, 64
1, 183657, Note_on_c, 0, 54, 13
1, 183701, Note_off_c, 0, 54, 45
1, 183800, Note_on_c, 0, 71, 105
1, 183802, Note_on_c, 0, 54, 90
1, 183802, Note_on_c, 0, 66, 106
1, 183803, Note_on_c, 0, 61, 78
1, 183806, Note_on_c, 0, 73, 93
1, 183808, Note_on_c, 0, 83, 91
1, 183810, Note_on_c, 0, 78, 94
1, 183821, Control_c, 0, 64, 62
1, 183835, Control_c, 0, 64, 0
1, 183841, Note_on_c, 0, 80, 49
1, 183875, Note_off_c, 0, 80, 50
1, 184124, Control_c, 0, 64, 24
1, 184136, Note_off_c, 0, 83, 54
1, 184139, Control_c, 0, 64, 45
1, 184145, Note_off_c, 0, 66, 62
1, 184154, Control_c, 0, 64, 63
1, 184168, Control_c, 0, 64, 127
1, 184214, Note_off_c, 0, 71, 58
1, 184237, Note_off_c, 0, 61, 62
1, 184244, Note_off_c, 0, 54, 58
1, 184264, Note_off_c, 0, 73, 60
1, 184268, Note_off_c, 0, 78, 58
1, 184594, Note_on_c, 0, 54, 104
1, 184596, Note_on_c, 0, 42, 94
1, 184597, Note_on_c, 0, 70, 106
1, 184597, Note_on_c, 0, 73, 95
1, 184598, Note_on_c, 0, 78, 102
1, 184599, Note_on_c, 0, 82, 98
1, 184601, Note_on_c, 0, 49, 99
1, 184613, Control_c, 0, 64, 92
1, 184628, Control_c, 0, 64, 54
1, 184643, Control_c, 0, 64, 0
1, 184768, Control_c, 0, 64, 23
1, 184783, Control_c, 0, 64, 41
1, 184798, Control_c, 0, 64, 60
1, 184813, Control_c, 0, 64, 127
1, 184874, Note_off_c, 0, 54, 62
1, 184962, Note_off_c, 0, 70, 55
1, 184990, Note_off_c, 0, 42, 53
1, 185001, Note_off_c, 0, 78, 59
1, 185013, Note_off_c, 0, 49, 37
1, 185028, Note_off_c, 0, 82, 49
1, 185043, Note_off_c, 0, 73, 53
1, 185640, Note_on_c, 0, 74, 97
1, 185642, Note_on_c, 0, 71, 98
1, 185642, Note_on_c, 0, 78, 95
1, 185642, Note_on_c, 0, 83, 96
1, 185645, Note_on_c, 0, 47, 109
1, 185647, Note_on_c, 0, 35, 92
1, 185648, Note_on_c, 0, 42, 95
1, 185724, Control_c, 0, 64, 85
1, 185739, Control_c, 0, 64, 63
1, 185754, Control_c, 0, 64, 47
1, 185769, Control_c, 0, 64, 0
1, 186354, Control_c, 0, 64, 10
1, 186369, Control_c, 0, 64, 17
1, 186384, Control_c, 0, 64, 23
1, 186399, Control_c, 0, 64, 29
1, 186414, Control_c, 0, 64, 34
1, 186429, Control_c, 0, 64, 39
1, 186444, Control_c, 0, 64, 46
1, 186459, Control_c, 0, 64, 52
1, 186473, Control_c, 0, 64, 57
1, 186488, Control_c, 0, 64, 60
1, 186503, Control_c, 0, 64, 63
1, 186518, Control_c, 0, 64, 66
1, 186533, Control_c, 0, 64, 71
1, 186547, Control_c, 0, 64, 77
1, 186562, Control_c, 0, 64, 83
1, 186577, Control_c, 0, 64, 90
1, 186592, Control_c, 0, 64, 103
1, 186606, Control_c, 0, 64, 127
1, 187415, Note_off_c, 0, 47, 35
1, 187490, Note_off_c, 0, 71, 48
1, 187578, Note_off_c, 0, 42, 58
1, 187615, Note_off_c, 0, 74, 53
1, 187648, Note_off_c, 0, 35, 63
1, 187675, Note_off_c, 0, 78, 54
1, 187734, Note_off_c, 0, 83, 58
1, 187927, Control_c, 0, 64, 119
1, 187942, Control_c, 0, 64, 110
1, 187957, Control_c, 0, 64, 108
1, 187972, Control_c, 0, 64, 105
1, 187987, Control_c, 0, 64, 101
1, 188001, Control_c, 0, 64, 95
1, 188016, Control_c, 0, 64, 90
1, 188031, Control_c, 0, 64, 85
1, 188045, Control_c, 0, 64, 81
1, 188060, Control_c, 0, 64, 77
1, 188075, Control_c, 0, 64, 73
1, 188090, Control_c, 0, 64, 69
1, 188105, Control_c, 0, 64, 66
1, 188119, Control_c, 0, 64, 63
1, 188134, Control_c, 0, 64, 61
1, 188149, Control_c, 0, 64, 59
1, 188164, Control_c, 0, 64, 56
1, 188179, Control_c, 0, 64, 53
1, 188193, Control_c, 0, 64, 51
1, 188208, Control_c, 0, 64, 49
1, 188238, Control_c, 0, 64, 49
1, 188254, Control_c, 0, 64, 48
1, 188268, Control_c, 0, 64, 46
1, 188283, Control_c, 0, 64, 45
1, 188298, Control_c, 0, 64, 44
1, 188313, Control_c, 0, 64, 42
1, 188328, Control_c, 0, 64, 41
1, 188343, Control_c, 0, 64, 39
1, 188357, Control_c, 0, 64, 36
1, 188372, Control_c, 0, 64, 33
1, 188387, Control_c, 0, 64, 30
1, 188402, Control_c, 0, 64, 27
1, 188424, Control_c, 0, 64, 25
1, 188439, Control_c, 0, 64, 22
1, 188454, Control_c, 0, 64, 18
1, 188469, Control_c, 0, 64, 14
1, 188483, Control_c, 0, 64, 0
1, 188558, End_track
0, 0, End_of_file
