0, 0, Header, 0, 1, 384
1, 0, Start_track
1, 0, Title_t, "Sonata Op. 101--Charlie Albright"
1, 0, Text_t, "2009 Piano-e-Competition audition round"
1, 0, Text_t, "captured January 2009"
1, 0, Text_t, "http://www.piano-e-competition.com/"
1, 0, Text_t, "File processed for distribution by software from Zenph Studios, Inc., http://www.zenph.com"
1, 0, Instrument_name_t, "Yamaha Disklavier Pro Mark IV concert grand piano, model DCFIIISM4PRO"
1, 0, Sequencer_specific, 39, 67, 113, 0, 1, 0, 1, 0, 83, 111, 110, 97, 116, 97, 32, 79, 112, 46, 32, 49, 48, 49, 32, 32, 67, 104, 97, 114, 108, 105, 101, 32, 65, 108, 98, 114, 105, 103, 104, 116
1, 0, Sequencer_specific, 6, 67, 113, 0, 0, 0, 69
1, 0, System_exclusive, 21, 67, 113, 126, 21, 0, 2, 2, 0, 3, 14, 1, 4, 1, 13, 13, 10, 11, 9, 2, 7, 247
1, 0, Sequencer_specific, 5, 67, 123, 12, 2, 1
1, 0, Tempo, 512820
1, 0, Time_signature, 4, 2, 24, 8
1, 0, System_exclusive, 5, 126, 127, 9, 1, 247
1, 1, System_exclusive, 8, 67, 16, 76, 0, 0, 126, 0, 247
1, 2, System_exclusive, 8, 67, 16, 76, 8, 9, 7, 1, 247
1, 3, Control_c, 0, 0, 0
1, 3, Control_c, 1, 0, 0
1, 3, Control_c, 2, 0, 0
1, 3, Control_c, 3, 0, 0
1, 3, Control_c, 4, 0, 0
1, 3, Control_c, 5, 0, 0
1, 3, Control_c, 6, 0, 0
1, 3, Control_c, 7, 0, 0
1, 3, Control_c, 8, 0, 0
1, 3, Control_c, 9, 0, 127
1, 3, Control_c, 10, 0, 0
1, 3, Control_c, 11, 0, 0
1, 3, Control_c, 12, 0, 0
1, 3, Control_c, 13, 0, 0
1, 3, Control_c, 14, 0, 0
1, 3, Control_c, 15, 0, 0
1, 4, Control_c, 0, 32, 0
1, 4, Control_c, 1, 32, 0
1, 4, Control_c, 2, 32, 0
1, 4, Control_c, 3, 32, 0
1, 4, Control_c, 4, 32, 0
1, 4, Control_c, 5, 32, 0
1, 4, Control_c, 6, 32, 0
1, 4, Control_c, 7, 32, 0
1, 4, Control_c, 8, 32, 0
1, 4, Control_c, 9, 32, 0
1, 4, Control_c, 10, 32, 0
1, 4, Control_c, 11, 32, 0
1, 4, Control_c, 12, 32, 0
1, 4, Control_c, 13, 32, 0
1, 4, Control_c, 14, 32, 0
1, 4, Control_c, 15, 32, 0
1, 5, Program_c, 0, 0
1, 5, Program_c, 1, 0
1, 5, Program_c, 2, 0
1, 5, Program_c, 3, 0
1, 5, Program_c, 4, 0
1, 5, Program_c, 5, 0
1, 5, Program_c, 6, 0
1, 5, Program_c, 7, 0
1, 5, Program_c, 8, 0
1, 5, Program_c, 9, 0
1, 5, Program_c, 10, 0
1, 5, Program_c, 11, 0
1, 5, Program_c, 12, 0
1, 5, Program_c, 13, 0
1, 5, Program_c, 14, 0
1, 5, Program_c, 15, 0
1, 6, Control_c, 0, 7, 100
1, 6, Control_c, 1, 7, 100
1, 6, Control_c, 2, 7, 100
1, 6, Control_c, 3, 7, 100
1, 6, Control_c, 4, 7, 100
1, 6, Control_c, 5, 7, 100
1, 6, Control_c, 6, 7, 100
1, 6, Control_c, 7, 7, 100
1, 6, Control_c, 8, 7, 100
1, 6, Control_c, 9, 7, 100
1, 6, Control_c, 10, 7, 100
1, 6, Control_c, 11, 7, 100
1, 6, Control_c, 12, 7, 100
1, 6, Control_c, 13, 7, 100
1, 6, Control_c, 14, 7, 100
1, 6, Control_c, 15, 7, 100
1, 117, Control_c, 0, 64, 9
1, 117, Control_c, 0, 67, 15
1, 229, Control_c, 0, 64, 18
1, 229, Control_c, 0, 67, 31
1, 341, Control_c, 0, 64, 27
1, 341, Control_c, 0, 67, 46
1, 452, Control_c, 0, 64, 37
1, 452, Control_c, 0, 67, 63
1, 564, Control_c, 0, 64, 45
1, 564, Control_c, 0, 67, 77
1, 676, Control_c, 0, 64, 55
1, 676, Control_c, 0, 67, 94
1, 787, Control_c, 0, 64, 63
1, 787, Control_c, 0, 67, 108
1, 899, Control_c, 0, 64, 74
1, 899, Control_c, 0, 67, 127
1, 1134, Note_on_c, 0, 64, 38
1, 1145, Note_on_c, 0, 59, 34
1, 1152, Note_on_c, 0, 32, 21
1, 1153, Note_on_c, 0, 44, 18
1, 1420, Control_c, 0, 64, 75
1, 1450, Control_c, 0, 64, 75
1, 1464, Control_c, 0, 64, 76
1, 1479, Control_c, 0, 64, 76
1, 1509, Control_c, 0, 64, 77
1, 1524, Control_c, 0, 64, 77
1, 1553, Control_c, 0, 64, 78
1, 1583, Control_c, 0, 64, 78
1, 1613, Control_c, 0, 64, 79
1, 1672, Control_c, 0, 64, 79
1, 1729, Note_off_c, 0, 32, 40
1, 1985, Note_off_c, 0, 44, 39
1, 2450, Control_c, 0, 64, 79
1, 2495, Control_c, 0, 64, 78
1, 2525, Control_c, 0, 64, 78
1, 2539, Control_c, 0, 64, 77
1, 2554, Control_c, 0, 64, 76
1, 2569, Control_c, 0, 64, 76
1, 2584, Control_c, 0, 64, 75
1, 2589, Note_on_c, 0, 62, 39
1, 2599, Control_c, 0, 64, 74
1, 2599, Note_on_c, 0, 35, 24
1, 2602, Note_on_c, 0, 47, 25
1, 2613, Control_c, 0, 64, 72
1, 2629, Control_c, 0, 64, 69
1, 2644, Control_c, 0, 64, 66
1, 2659, Control_c, 0, 64, 64
1, 2674, Control_c, 0, 64, 62
1, 2689, Control_c, 0, 64, 59
1, 2710, Control_c, 0, 64, 55
1, 2725, Control_c, 0, 64, 49
1, 2740, Control_c, 0, 64, 38
1, 2755, Control_c, 0, 64, 25
1, 2770, Control_c, 0, 64, 0
1, 2859, Control_c, 0, 64, 12
1, 2873, Control_c, 0, 64, 21
1, 2888, Control_c, 0, 64, 27
1, 2903, Control_c, 0, 64, 33
1, 2918, Control_c, 0, 64, 39
1, 2933, Control_c, 0, 64, 45
1, 2948, Control_c, 0, 64, 51
1, 2963, Control_c, 0, 64, 56
1, 2977, Control_c, 0, 64, 60
1, 2992, Control_c, 0, 64, 63
1, 3007, Control_c, 0, 64, 65
1, 3022, Control_c, 0, 64, 67
1, 3036, Control_c, 0, 64, 69
1, 3051, Control_c, 0, 64, 71
1, 3066, Control_c, 0, 64, 74
1, 3081, Control_c, 0, 64, 75
1, 3096, Control_c, 0, 64, 77
1, 3097, Note_off_c, 0, 59, 41
1, 3103, Note_off_c, 0, 35, 37
1, 3116, Note_off_c, 0, 64, 40
1, 3125, Control_c, 0, 64, 77
1, 3128, Note_off_c, 0, 62, 43
1, 3154, Control_c, 0, 64, 78
1, 3169, Control_c, 0, 64, 79
1, 3184, Control_c, 0, 64, 80
1, 3199, Control_c, 0, 64, 80
1, 3201, Note_off_c, 0, 47, 40
1, 4096, Control_c, 0, 64, 80
1, 4125, Control_c, 0, 64, 79
1, 4155, Control_c, 0, 64, 79
1, 4170, Control_c, 0, 64, 78
1, 4185, Control_c, 0, 64, 77
1, 4207, Control_c, 0, 64, 76
1, 4222, Control_c, 0, 64, 75
1, 4238, Control_c, 0, 64, 74
1, 4253, Control_c, 0, 64, 72
1, 4262, Note_on_c, 0, 64, 45
1, 4268, Control_c, 0, 64, 70
1, 4281, Note_on_c, 0, 60, 30
1, 4282, Control_c, 0, 64, 67
1, 4297, Control_c, 0, 64, 64
1, 4302, Note_on_c, 0, 33, 18
1, 4304, Note_on_c, 0, 45, 22
1, 4312, Control_c, 0, 64, 62
1, 4327, Control_c, 0, 64, 59
1, 4342, Control_c, 0, 64, 56
1, 4356, Control_c, 0, 64, 51
1, 4371, Control_c, 0, 64, 46
1, 4386, Control_c, 0, 64, 40
1, 4401, Control_c, 0, 64, 32
1, 4415, Control_c, 0, 64, 22
1, 4430, Control_c, 0, 64, 0
1, 4579, Control_c, 0, 64, 19
1, 4593, Control_c, 0, 64, 26
1, 4608, Control_c, 0, 64, 31
1, 4623, Control_c, 0, 64, 36
1, 4638, Control_c, 0, 64, 42
1, 4653, Control_c, 0, 64, 47
1, 4668, Control_c, 0, 64, 52
1, 4682, Control_c, 0, 64, 56
1, 4697, Control_c, 0, 64, 59
1, 4712, Control_c, 0, 64, 60
1, 4726, Control_c, 0, 64, 61
1, 4771, Control_c, 0, 64, 62
1, 4830, Control_c, 0, 64, 62
1, 4933, Control_c, 0, 64, 62
1, 5015, Control_c, 0, 64, 61
1, 5031, Control_c, 0, 64, 61
1, 5055, Note_on_c, 0, 65, 37
1, 5061, Control_c, 0, 64, 60
1, 5076, Control_c, 0, 64, 60
1, 5091, Control_c, 0, 64, 59
1, 5092, Note_off_c, 0, 64, 41
1, 5105, Control_c, 0, 64, 59
1, 5120, Control_c, 0, 64, 58
1, 5135, Control_c, 0, 64, 57
1, 5150, Control_c, 0, 64, 56
1, 5165, Control_c, 0, 64, 55
1, 5179, Control_c, 0, 64, 54
1, 5194, Control_c, 0, 64, 53
1, 5209, Control_c, 0, 64, 52
1, 5212, Note_on_c, 0, 64, 53
1, 5224, Control_c, 0, 64, 50
1, 5228, Note_off_c, 0, 65, 40
1, 5238, Control_c, 0, 64, 49
1, 5253, Control_c, 0, 64, 48
1, 5268, Control_c, 0, 64, 47
1, 5283, Control_c, 0, 64, 47
1, 5298, Control_c, 0, 64, 46
1, 5312, Control_c, 0, 64, 45
1, 5327, Control_c, 0, 64, 43
1, 5342, Control_c, 0, 64, 42
1, 5357, Control_c, 0, 64, 41
1, 5361, Note_on_c, 0, 63, 54
1, 5371, Control_c, 0, 64, 40
1, 5386, Control_c, 0, 64, 40
1, 5393, Note_off_c, 0, 64, 38
1, 5401, Control_c, 0, 64, 39
1, 5416, Control_c, 0, 64, 37
1, 5431, Control_c, 0, 64, 35
1, 5446, Control_c, 0, 64, 32
1, 5461, Control_c, 0, 64, 29
1, 5476, Control_c, 0, 64, 26
1, 5491, Control_c, 0, 64, 22
1, 5505, Control_c, 0, 64, 19
1, 5520, Control_c, 0, 64, 15
1, 5535, Control_c, 0, 64, 9
1, 5549, Control_c, 0, 64, 0
1, 5562, Note_on_c, 0, 64, 41
1, 5662, Note_off_c, 0, 63, 37
1, 5839, Control_c, 0, 64, 15
1, 5854, Control_c, 0, 64, 24
1, 5869, Control_c, 0, 64, 30
1, 5884, Control_c, 0, 64, 37
1, 5899, Control_c, 0, 64, 42
1, 5914, Control_c, 0, 64, 48
1, 5928, Control_c, 0, 64, 54
1, 5943, Control_c, 0, 64, 58
1, 5958, Control_c, 0, 64, 60
1, 5973, Control_c, 0, 64, 61
1, 5987, Control_c, 0, 64, 63
1, 6002, Control_c, 0, 64, 64
1, 6017, Control_c, 0, 64, 65
1, 6032, Control_c, 0, 64, 67
1, 6047, Control_c, 0, 64, 68
1, 6061, Control_c, 0, 64, 69
1, 6076, Control_c, 0, 64, 71
1, 6091, Control_c, 0, 64, 72
1, 6106, Control_c, 0, 64, 73
1, 6117, Note_off_c, 0, 33, 41
1, 6119, Note_off_c, 0, 45, 43
1, 6121, Control_c, 0, 64, 74
1, 6135, Control_c, 0, 64, 74
1, 6150, Control_c, 0, 64, 75
1, 6179, Control_c, 0, 64, 75
1, 6268, Note_on_c, 0, 72, 49
1, 6355, Note_off_c, 0, 64, 62
1, 6372, Control_c, 0, 64, 76
1, 6914, Control_c, 0, 64, 75
1, 6944, Control_c, 0, 64, 75
1, 6973, Control_c, 0, 64, 74
1, 6988, Control_c, 0, 64, 74
1, 7002, Control_c, 0, 64, 73
1, 7017, Note_on_c, 0, 68, 45
1, 7017, Control_c, 0, 64, 72
1, 7029, Note_on_c, 0, 35, 10
1, 7030, Note_on_c, 0, 47, 20
1, 7032, Control_c, 0, 64, 71
1, 7047, Control_c, 0, 64, 70
1, 7060, Note_on_c, 0, 64, 25
1, 7062, Control_c, 0, 64, 69
1, 7077, Control_c, 0, 64, 68
1, 7091, Control_c, 0, 64, 67
1, 7106, Control_c, 0, 64, 65
1, 7121, Control_c, 0, 64, 63
1, 7136, Control_c, 0, 64, 61
1, 7151, Control_c, 0, 64, 59
1, 7166, Control_c, 0, 64, 56
1, 7181, Control_c, 0, 64, 52
1, 7202, Control_c, 0, 64, 46
1, 7217, Control_c, 0, 64, 36
1, 7232, Control_c, 0, 64, 24
1, 7247, Control_c, 0, 64, 0
1, 7279, Note_off_c, 0, 72, 48
1, 7320, Note_off_c, 0, 60, 44
1, 7440, Control_c, 0, 64, 12
1, 7455, Control_c, 0, 64, 23
1, 7470, Control_c, 0, 64, 31
1, 7485, Control_c, 0, 64, 37
1, 7500, Control_c, 0, 64, 46
1, 7515, Control_c, 0, 64, 53
1, 7530, Control_c, 0, 64, 59
1, 7545, Control_c, 0, 64, 63
1, 7559, Control_c, 0, 64, 65
1, 7574, Control_c, 0, 64, 66
1, 7589, Control_c, 0, 64, 67
1, 7594, Note_off_c, 0, 35, 41
1, 7604, Control_c, 0, 64, 69
1, 7618, Control_c, 0, 64, 70
1, 7633, Control_c, 0, 64, 72
1, 7648, Control_c, 0, 64, 74
1, 7663, Control_c, 0, 64, 75
1, 7678, Control_c, 0, 64, 76
1, 7707, Control_c, 0, 64, 77
1, 7722, Control_c, 0, 64, 77
1, 7737, Control_c, 0, 64, 78
1, 7751, Control_c, 0, 64, 78
1, 7796, Control_c, 0, 64, 79
1, 7811, Control_c, 0, 64, 79
1, 7825, Control_c, 0, 64, 80
1, 7840, Control_c, 0, 64, 80
1, 7855, Note_off_c, 0, 47, 38
1, 7855, Control_c, 0, 64, 81
1, 7914, Control_c, 0, 64, 81
1, 8010, Control_c, 0, 64, 82
1, 8411, Control_c, 0, 64, 81
1, 8440, Control_c, 0, 64, 81
1, 8442, Note_on_c, 0, 38, 27
1, 8455, Control_c, 0, 64, 80
1, 8460, Note_on_c, 0, 50, 20
1, 8470, Control_c, 0, 64, 79
1, 8485, Control_c, 0, 64, 78
1, 8500, Control_c, 0, 64, 77
1, 8514, Control_c, 0, 64, 76
1, 8529, Control_c, 0, 64, 74
1, 8544, Control_c, 0, 64, 71
1, 8559, Control_c, 0, 64, 70
1, 8573, Control_c, 0, 64, 68
1, 8588, Control_c, 0, 64, 67
1, 8603, Control_c, 0, 64, 65
1, 8618, Control_c, 0, 64, 62
1, 8633, Control_c, 0, 64, 58
1, 8647, Control_c, 0, 64, 49
1, 8662, Control_c, 0, 64, 37
1, 8677, Control_c, 0, 64, 20
1, 8700, Control_c, 0, 64, 0
1, 8759, Control_c, 0, 64, 11
1, 8773, Control_c, 0, 64, 20
1, 8788, Control_c, 0, 64, 27
1, 8803, Control_c, 0, 64, 33
1, 8818, Control_c, 0, 64, 39
1, 8833, Control_c, 0, 64, 45
1, 8847, Control_c, 0, 64, 51
1, 8862, Control_c, 0, 64, 55
1, 8877, Control_c, 0, 64, 59
1, 8892, Control_c, 0, 64, 61
1, 8907, Control_c, 0, 64, 63
1, 8922, Control_c, 0, 64, 64
1, 8937, Control_c, 0, 64, 65
1, 8951, Control_c, 0, 64, 66
1, 8966, Control_c, 0, 64, 67
1, 8981, Control_c, 0, 64, 68
1, 8996, Control_c, 0, 64, 69
1, 9011, Control_c, 0, 64, 70
1, 9026, Control_c, 0, 64, 71
1, 9071, Control_c, 0, 64, 71
1, 9142, Note_off_c, 0, 64, 36
1, 9142, Note_on_c, 0, 71, 43
1, 9181, Note_off_c, 0, 50, 39
1, 9260, Note_off_c, 0, 68, 25
1, 9307, Note_off_c, 0, 38, 40
1, 9470, Note_on_c, 0, 69, 49
1, 9479, Note_off_c, 0, 71, 55
1, 9563, Note_off_c, 0, 69, 52
1, 9744, Control_c, 0, 64, 71
1, 9759, Control_c, 0, 64, 70
1, 9774, Control_c, 0, 64, 70
1, 9789, Control_c, 0, 64, 69
1, 9804, Control_c, 0, 64, 68
1, 9819, Control_c, 0, 64, 68
1, 9834, Control_c, 0, 64, 66
1, 9849, Control_c, 0, 64, 64
1, 9858, Note_on_c, 0, 69, 36
1, 9864, Control_c, 0, 64, 62
1, 9870, Note_on_c, 0, 64, 32
1, 9879, Control_c, 0, 64, 59
1, 9880, Note_on_c, 0, 36, 21
1, 9888, Note_on_c, 0, 48, 22
1, 9893, Control_c, 0, 64, 55
1, 9908, Control_c, 0, 64, 51
1, 9923, Control_c, 0, 64, 47
1, 9938, Control_c, 0, 64, 43
1, 9953, Control_c, 0, 64, 38
1, 9968, Control_c, 0, 64, 31
1, 9983, Control_c, 0, 64, 21
1, 9998, Control_c, 0, 64, 0
1, 10159, Control_c, 0, 64, 11
1, 10174, Control_c, 0, 64, 23
1, 10197, Control_c, 0, 64, 31
1, 10212, Control_c, 0, 64, 38
1, 10226, Control_c, 0, 64, 45
1, 10241, Control_c, 0, 64, 52
1, 10256, Control_c, 0, 64, 57
1, 10271, Control_c, 0, 64, 61
1, 10286, Control_c, 0, 64, 63
1, 10300, Control_c, 0, 64, 64
1, 10315, Control_c, 0, 64, 66
1, 10330, Control_c, 0, 64, 67
1, 10344, Control_c, 0, 64, 69
1, 10359, Control_c, 0, 64, 70
1, 10362, Note_off_c, 0, 36, 36
1, 10374, Control_c, 0, 64, 71
1, 10388, Note_off_c, 0, 64, 42
1, 10401, Note_off_c, 0, 69, 43
1, 10418, Control_c, 0, 64, 71
1, 10421, Note_off_c, 0, 48, 42
1, 10433, Control_c, 0, 64, 72
1, 10448, Control_c, 0, 64, 72
1, 11198, Control_c, 0, 64, 72
1, 11228, Control_c, 0, 64, 71
1, 11242, Control_c, 0, 64, 71
1, 11257, Control_c, 0, 64, 70
1, 11277, Note_on_c, 0, 76, 49
1, 11286, Control_c, 0, 64, 70
1, 11291, Note_on_c, 0, 72, 33
1, 11294, Note_on_c, 0, 33, 19
1, 11301, Control_c, 0, 64, 69
1, 11308, Note_on_c, 0, 64, 31
1, 11316, Control_c, 0, 64, 68
1, 11317, Note_on_c, 0, 45, 16
1, 11331, Control_c, 0, 64, 67
1, 11346, Control_c, 0, 64, 66
1, 11360, Control_c, 0, 64, 65
1, 11375, Control_c, 0, 64, 64
1, 11390, Control_c, 0, 64, 62
1, 11405, Control_c, 0, 64, 59
1, 11421, Control_c, 0, 64, 54
1, 11436, Control_c, 0, 64, 47
1, 11451, Control_c, 0, 64, 37
1, 11465, Control_c, 0, 64, 24
1, 11480, Control_c, 0, 64, 0
1, 11584, Control_c, 0, 64, 10
1, 11599, Control_c, 0, 64, 20
1, 11613, Control_c, 0, 64, 29
1, 11628, Control_c, 0, 64, 35
1, 11643, Control_c, 0, 64, 42
1, 11658, Control_c, 0, 64, 48
1, 11673, Control_c, 0, 64, 54
1, 11695, Control_c, 0, 64, 58
1, 11710, Control_c, 0, 64, 61
1, 11724, Control_c, 0, 64, 62
1, 11739, Control_c, 0, 64, 63
1, 11754, Control_c, 0, 64, 64
1, 11767, Note_off_c, 0, 33, 43
1, 11769, Control_c, 0, 64, 65
1, 11784, Control_c, 0, 64, 66
1, 11798, Control_c, 0, 64, 67
1, 11813, Control_c, 0, 64, 68
1, 11828, Control_c, 0, 64, 69
1, 11843, Control_c, 0, 64, 69
1, 11856, Note_off_c, 0, 76, 35
1, 11858, Control_c, 0, 64, 70
1, 11873, Control_c, 0, 64, 71
1, 11878, Note_off_c, 0, 64, 41
1, 11888, Note_off_c, 0, 72, 46
1, 11910, Note_off_c, 0, 45, 42
1, 11932, Control_c, 0, 64, 71
1, 12036, Control_c, 0, 64, 72
1, 12198, Control_c, 0, 64, 72
1, 12681, Control_c, 0, 64, 72
1, 12696, Control_c, 0, 64, 71
1, 12698, Note_on_c, 0, 76, 47
1, 12710, Control_c, 0, 64, 71
1, 12717, Note_on_c, 0, 41, 21
1, 12719, Note_on_c, 0, 69, 32
1, 12722, Note_on_c, 0, 64, 35
1, 12740, Control_c, 0, 64, 70
1, 12740, Note_on_c, 0, 53, 11
1, 12755, Control_c, 0, 64, 69
1, 12770, Control_c, 0, 64, 68
1, 12785, Control_c, 0, 64, 66
1, 12800, Control_c, 0, 64, 65
1, 12814, Control_c, 0, 64, 64
1, 12829, Control_c, 0, 64, 63
1, 12844, Control_c, 0, 64, 62
1, 12859, Control_c, 0, 64, 59
1, 12873, Control_c, 0, 64, 55
1, 12888, Control_c, 0, 64, 51
1, 12903, Control_c, 0, 64, 46
1, 12918, Control_c, 0, 64, 41
1, 12933, Control_c, 0, 64, 36
1, 12947, Control_c, 0, 64, 28
1, 12962, Control_c, 0, 64, 18
1, 12977, Control_c, 0, 64, 0
1, 13067, Control_c, 0, 64, 19
1, 13082, Control_c, 0, 64, 26
1, 13097, Control_c, 0, 64, 31
1, 13111, Control_c, 0, 64, 36
1, 13126, Control_c, 0, 64, 42
1, 13141, Control_c, 0, 64, 49
1, 13155, Control_c, 0, 64, 55
1, 13170, Control_c, 0, 64, 59
1, 13193, Control_c, 0, 64, 61
1, 13208, Control_c, 0, 64, 63
1, 13223, Control_c, 0, 64, 64
1, 13223, Control_c, 0, 67, 121
1, 13237, Control_c, 0, 64, 65
1, 13237, Control_c, 0, 67, 114
1, 13252, Control_c, 0, 64, 67
1, 13252, Control_c, 0, 67, 107
1, 13267, Control_c, 0, 64, 68
1, 13267, Control_c, 0, 67, 101
1, 13282, Control_c, 0, 64, 69
1, 13282, Control_c, 0, 67, 96
1, 13297, Control_c, 0, 64, 70
1, 13297, Control_c, 0, 67, 93
1, 13312, Control_c, 0, 64, 70
1, 13312, Control_c, 0, 67, 92
1, 13326, Note_off_c, 0, 64, 40
1, 13326, Control_c, 0, 64, 71
1, 13326, Control_c, 0, 67, 91
1, 13341, Control_c, 0, 64, 71
1, 13341, Control_c, 0, 67, 91
1, 13356, Control_c, 0, 64, 72
1, 13356, Control_c, 0, 67, 90
1, 13370, Control_c, 0, 64, 72
1, 13385, Control_c, 0, 64, 73
1, 13400, Control_c, 0, 67, 91
1, 13444, Control_c, 0, 67, 91
1, 13447, Note_off_c, 0, 69, 42
1, 13459, Control_c, 0, 64, 73
1, 13474, Control_c, 0, 64, 74
1, 13488, Control_c, 0, 67, 92
1, 13518, Control_c, 0, 64, 74
1, 13533, Control_c, 0, 67, 92
1, 13548, Control_c, 0, 64, 75
1, 13563, Control_c, 0, 64, 75
1, 13608, Control_c, 0, 67, 93
1, 13682, Control_c, 0, 67, 93
1, 13748, Note_off_c, 0, 76, 37
1, 13846, Control_c, 0, 67, 94
1, 14047, Note_on_c, 0, 74, 47
1, 14065, Note_on_c, 0, 62, 37
1, 14149, Control_c, 0, 67, 94
1, 14294, Note_off_c, 0, 53, 40
1, 14317, Note_off_c, 0, 41, 43
1, 14332, Note_off_c, 0, 62, 45
1, 14654, Control_c, 0, 64, 75
1, 14669, Control_c, 0, 64, 74
1, 14690, Control_c, 0, 64, 74
1, 14705, Control_c, 0, 64, 73
1, 14720, Note_on_c, 0, 76, 63
1, 14720, Control_c, 0, 64, 72
1, 14735, Control_c, 0, 64, 70
1, 14739, Note_on_c, 0, 64, 37
1, 14749, Control_c, 0, 64, 68
1, 14754, Note_on_c, 0, 40, 29
1, 14760, Note_on_c, 0, 73, 22
1, 14764, Control_c, 0, 64, 65
1, 14776, Note_on_c, 0, 52, 23
1, 14779, Control_c, 0, 64, 62
1, 14791, Note_off_c, 0, 74, 52
1, 14794, Control_c, 0, 64, 59
1, 14809, Control_c, 0, 64, 55
1, 14821, Poly_aftertouch_c, 0, 67, 127
1, 14824, Control_c, 0, 64, 49
1, 14824, Note_off_c, 0, 73, 0
1, 14824, Note_on_c, 0, 73, 3
1, 14839, Control_c, 0, 64, 40
1, 14839, Control_c, 0, 67, 95
1, 14854, Control_c, 0, 64, 26
1, 14869, Control_c, 0, 64, 0
1, 14869, Control_c, 0, 67, 95
1, 14913, Control_c, 0, 67, 96
1, 14928, Control_c, 0, 64, 25
1, 14942, Control_c, 0, 64, 37
1, 14957, Control_c, 0, 64, 48
1, 14957, Control_c, 0, 67, 96
1, 14972, Control_c, 0, 64, 56
1, 14987, Control_c, 0, 64, 62
1, 14987, Control_c, 0, 67, 97
1, 15002, Control_c, 0, 64, 66
1, 15016, Control_c, 0, 64, 69
1, 15016, Control_c, 0, 67, 97
1, 15031, Control_c, 0, 64, 71
1, 15045, Note_off_c, 0, 52, 54
1, 15046, Control_c, 0, 64, 72
1, 15046, Control_c, 0, 67, 98
1, 15060, Control_c, 0, 64, 73
1, 15061, Note_off_c, 0, 76, 65
1, 15068, Note_off_c, 0, 40, 40
1, 15075, Control_c, 0, 64, 74
1, 15090, Control_c, 0, 64, 75
1, 15090, Control_c, 0, 67, 98
1, 15102, Note_off_c, 0, 64, 41
1, 15105, Control_c, 0, 64, 75
1, 15113, Poly_aftertouch_c, 0, 67, 0
1, 15120, Control_c, 0, 64, 76
1, 15120, Control_c, 0, 67, 99
1, 15134, Control_c, 0, 64, 78
1, 15136, Note_off_c, 0, 73, 42
1, 15149, Control_c, 0, 64, 79
1, 15149, Control_c, 0, 67, 99
1, 15164, Control_c, 0, 64, 79
1, 15179, Control_c, 0, 67, 100
1, 15194, Control_c, 0, 67, 100
1, 15402, Control_c, 0, 64, 78
1, 15417, Control_c, 0, 64, 77
1, 15439, Control_c, 0, 64, 76
1, 15454, Control_c, 0, 64, 75
1, 15460, Note_on_c, 0, 77, 50
1, 15469, Control_c, 0, 64, 75
1, 15471, Note_on_c, 0, 38, 30
1, 15474, Note_on_c, 0, 74, 38
1, 15475, Note_on_c, 0, 65, 35
1, 15477, Note_on_c, 0, 69, 29
1, 15484, Control_c, 0, 64, 74
1, 15499, Control_c, 0, 64, 73
1, 15513, Control_c, 0, 64, 71
1, 15524, Poly_aftertouch_c, 0, 50, 127
1, 15525, Note_on_c, 0, 50, 3
1, 15528, Control_c, 0, 64, 68
1, 15543, Control_c, 0, 64, 65
1, 15558, Control_c, 0, 64, 63
1, 15572, Control_c, 0, 64, 61
1, 15587, Control_c, 0, 64, 59
1, 15602, Control_c, 0, 64, 56
1, 15617, Control_c, 0, 64, 52
1, 15632, Control_c, 0, 64, 46
1, 15647, Control_c, 0, 64, 40
1, 15662, Control_c, 0, 64, 31
1, 15676, Control_c, 0, 64, 18
1, 15691, Control_c, 0, 64, 0
1, 15810, Control_c, 0, 64, 14
1, 15810, Control_c, 0, 67, 101
1, 15825, Control_c, 0, 64, 26
1, 15839, Control_c, 0, 64, 34
1, 15839, Control_c, 0, 67, 101
1, 15854, Control_c, 0, 64, 42
1, 15854, Control_c, 0, 67, 102
1, 15869, Control_c, 0, 64, 49
1, 15883, Control_c, 0, 64, 56
1, 15883, Control_c, 0, 67, 102
1, 15898, Control_c, 0, 64, 60
1, 15898, Control_c, 0, 67, 103
1, 15913, Control_c, 0, 64, 63
1, 15913, Control_c, 0, 67, 104
1, 15928, Control_c, 0, 64, 65
1, 15928, Control_c, 0, 67, 106
1, 15943, Control_c, 0, 64, 66
1, 15943, Control_c, 0, 67, 109
1, 15957, Control_c, 0, 64, 67
1, 15957, Control_c, 0, 67, 112
1, 15972, Control_c, 0, 64, 69
1, 15972, Control_c, 0, 67, 115
1, 15987, Control_c, 0, 64, 71
1, 15987, Control_c, 0, 67, 118
1, 15995, Note_off_c, 0, 77, 55
1, 16002, Control_c, 0, 64, 72
1, 16002, Control_c, 0, 67, 122
1, 16006, Note_off_c, 0, 65, 41
1, 16017, Control_c, 0, 64, 74
1, 16017, Control_c, 0, 67, 126
1, 16022, Note_off_c, 0, 74, 62
1, 16024, Note_off_c, 0, 69, 51
1, 16031, Control_c, 0, 64, 75
1, 16031, Control_c, 0, 67, 127
1, 16046, Control_c, 0, 64, 76
1, 16061, Control_c, 0, 64, 77
1, 16076, Control_c, 0, 64, 77
1, 16091, Control_c, 0, 64, 78
1, 16121, Control_c, 0, 64, 78
1, 16150, Control_c, 0, 64, 79
1, 16180, Control_c, 0, 64, 79
1, 16920, Note_on_c, 0, 70, 49
1, 16946, Note_on_c, 0, 65, 37
1, 16955, Note_on_c, 0, 58, 23
1, 17067, Note_off_c, 0, 50, 40
1, 17078, Note_off_c, 0, 38, 39
1, 17113, Note_off_c, 0, 65, 45
1, 17210, Note_off_c, 0, 58, 43
1, 17411, Control_c, 0, 64, 79
1, 17470, Control_c, 0, 64, 78
1, 17500, Control_c, 0, 64, 78
1, 17515, Control_c, 0, 64, 77
1, 17529, Control_c, 0, 64, 77
1, 17544, Control_c, 0, 64, 76
1, 17559, Control_c, 0, 64, 76
1, 17574, Control_c, 0, 64, 75
1, 17589, Control_c, 0, 64, 75
1, 17602, Note_on_c, 0, 69, 51
1, 17603, Control_c, 0, 64, 74
1, 17618, Control_c, 0, 64, 73
1, 17629, Note_on_c, 0, 60, 38
1, 17632, Note_on_c, 0, 64, 35
1, 17633, Control_c, 0, 64, 72
1, 17642, Note_on_c, 0, 36, 26
1, 17647, Control_c, 0, 64, 71
1, 17662, Control_c, 0, 64, 68
1, 17664, Note_on_c, 0, 48, 20
1, 17685, Control_c, 0, 64, 65
1, 17700, Control_c, 0, 64, 62
1, 17715, Control_c, 0, 64, 56
1, 17730, Control_c, 0, 64, 43
1, 17744, Control_c, 0, 64, 25
1, 17758, Note_off_c, 0, 70, 33
1, 17759, Control_c, 0, 64, 0
1, 17834, Control_c, 0, 64, 20
1, 17849, Control_c, 0, 64, 30
1, 17864, Control_c, 0, 64, 38
1, 17878, Control_c, 0, 64, 46
1, 17893, Control_c, 0, 64, 53
1, 17908, Control_c, 0, 64, 58
1, 17913, Note_off_c, 0, 64, 41
1, 17923, Control_c, 0, 64, 62
1, 17924, Note_off_c, 0, 36, 39
1, 17938, Control_c, 0, 64, 64
1, 17953, Control_c, 0, 64, 65
1, 17954, Note_off_c, 0, 48, 42
1, 17967, Control_c, 0, 64, 66
1, 17982, Control_c, 0, 64, 66
1, 18005, Note_off_c, 0, 60, 58
1, 18012, Control_c, 0, 64, 67
1, 18027, Control_c, 0, 64, 67
1, 18219, Control_c, 0, 64, 67
1, 18249, Control_c, 0, 64, 66
1, 18278, Control_c, 0, 64, 66
1, 18293, Control_c, 0, 64, 65
1, 18308, Control_c, 0, 64, 65
1, 18323, Control_c, 0, 64, 64
1, 18338, Control_c, 0, 64, 63
1, 18346, Note_on_c, 0, 68, 49
1, 18352, Control_c, 0, 64, 61
1, 18367, Control_c, 0, 64, 60
1, 18368, Note_on_c, 0, 64, 37
1, 18369, Note_on_c, 0, 35, 22
1, 18369, Note_on_c, 0, 62, 32
1, 18382, Control_c, 0, 64, 59
1, 18385, Note_on_c, 0, 47, 25
1, 18397, Control_c, 0, 64, 56
1, 18411, Control_c, 0, 64, 53
1, 18434, Control_c, 0, 64, 48
1, 18449, Control_c, 0, 64, 43
1, 18464, Note_off_c, 0, 69, 37
1, 18464, Control_c, 0, 64, 39
1, 18478, Control_c, 0, 64, 36
1, 18493, Control_c, 0, 64, 31
1, 18508, Control_c, 0, 64, 24
1, 18523, Control_c, 0, 64, 9
1, 18538, Control_c, 0, 64, 0
1, 18687, Control_c, 0, 64, 18
1, 18701, Control_c, 0, 64, 27
1, 18716, Control_c, 0, 64, 34
1, 18731, Control_c, 0, 64, 41
1, 18746, Control_c, 0, 64, 49
1, 18761, Control_c, 0, 64, 55
1, 18775, Control_c, 0, 64, 59
1, 18790, Control_c, 0, 64, 62
1, 18791, Note_off_c, 0, 35, 40
1, 18805, Control_c, 0, 64, 63
1, 18806, Note_off_c, 0, 64, 40
1, 18819, Note_off_c, 0, 62, 41
1, 18820, Control_c, 0, 64, 64
1, 18835, Control_c, 0, 64, 65
1, 18850, Control_c, 0, 64, 66
1, 18864, Control_c, 0, 64, 67
1, 18872, Note_off_c, 0, 47, 42
1, 18879, Control_c, 0, 64, 68
1, 18894, Control_c, 0, 64, 68
1, 18908, Control_c, 0, 64, 69
1, 18923, Control_c, 0, 64, 70
1, 18938, Control_c, 0, 64, 71
1, 18961, Note_off_c, 0, 68, 38
1, 19658, Control_c, 0, 64, 70
1, 19717, Control_c, 0, 64, 70
1, 19731, Control_c, 0, 64, 69
1, 19761, Control_c, 0, 64, 69
1, 19776, Control_c, 0, 64, 68
1, 19791, Control_c, 0, 64, 67
1, 19805, Control_c, 0, 64, 65
1, 19810, Note_on_c, 0, 69, 48
1, 19820, Control_c, 0, 64, 64
1, 19829, Note_on_c, 0, 60, 31
1, 19833, Note_on_c, 0, 64, 38
1, 19835, Control_c, 0, 64, 62
1, 19850, Control_c, 0, 64, 61
1, 19856, Note_on_c, 0, 45, 10
1, 19858, Note_on_c, 0, 33, 18
1, 19865, Control_c, 0, 64, 58
1, 19879, Control_c, 0, 64, 54
1, 19894, Control_c, 0, 64, 49
1, 19909, Control_c, 0, 64, 42
1, 19931, Control_c, 0, 64, 33
1, 19946, Control_c, 0, 64, 22
1, 19961, Control_c, 0, 64, 0
1, 20079, Control_c, 0, 64, 16
1, 20094, Control_c, 0, 64, 23
1, 20109, Control_c, 0, 64, 30
1, 20124, Control_c, 0, 64, 37
1, 20139, Control_c, 0, 64, 43
1, 20154, Control_c, 0, 64, 48
1, 20169, Control_c, 0, 64, 54
1, 20184, Control_c, 0, 64, 57
1, 20198, Control_c, 0, 64, 60
1, 20214, Control_c, 0, 64, 62
1, 20228, Control_c, 0, 64, 63
1, 20243, Control_c, 0, 64, 64
1, 20258, Control_c, 0, 64, 64
1, 20288, Control_c, 0, 64, 65
1, 20303, Control_c, 0, 64, 65
1, 20318, Control_c, 0, 64, 66
1, 20333, Control_c, 0, 64, 66
1, 20371, Note_off_c, 0, 33, 40
1, 20490, Note_on_c, 0, 72, 55
1, 20499, Note_off_c, 0, 45, 44
1, 20655, Note_off_c, 0, 60, 51
1, 20657, Note_off_c, 0, 64, 40
1, 20700, Note_off_c, 0, 69, 60
1, 20735, Note_off_c, 0, 72, 63
1, 20798, Control_c, 0, 64, 67
1, 21109, Control_c, 0, 64, 66
1, 21169, Control_c, 0, 64, 66
1, 21183, Control_c, 0, 64, 65
1, 21198, Control_c, 0, 64, 64
1, 21211, Note_on_c, 0, 76, 56
1, 21213, Control_c, 0, 64, 64
1, 21224, Note_on_c, 0, 64, 36
1, 21227, Note_on_c, 0, 72, 39
1, 21228, Control_c, 0, 64, 63
1, 21235, Note_on_c, 0, 40, 31
1, 21243, Control_c, 0, 64, 62
1, 21257, Control_c, 0, 64, 61
1, 21272, Control_c, 0, 64, 58
1, 21287, Control_c, 0, 64, 55
1, 21301, Control_c, 0, 64, 51
1, 21310, Note_off_c, 0, 72, 0
1, 21310, Note_on_c, 0, 72, 3
1, 21316, Control_c, 0, 64, 45
1, 21331, Control_c, 0, 64, 39
1, 21346, Control_c, 0, 64, 31
1, 21361, Control_c, 0, 64, 19
1, 21376, Control_c, 0, 64, 0
1, 21473, Control_c, 0, 64, 18
1, 21488, Control_c, 0, 64, 28
1, 21502, Control_c, 0, 64, 36
1, 21517, Control_c, 0, 64, 43
1, 21532, Control_c, 0, 64, 50
1, 21547, Control_c, 0, 64, 56
1, 21562, Control_c, 0, 64, 61
1, 21576, Control_c, 0, 64, 64
1, 21591, Control_c, 0, 64, 65
1, 21606, Control_c, 0, 64, 65
1, 21608, Note_off_c, 0, 72, 42
1, 21957, Note_on_c, 0, 72, 39
1, 21970, Note_on_c, 0, 69, 33
1, 22259, Note_off_c, 0, 69, 41
1, 22276, Note_off_c, 0, 72, 40
1, 22311, Control_c, 0, 64, 65
1, 22562, Control_c, 0, 64, 64
1, 22637, Control_c, 0, 64, 64
1, 22682, Control_c, 0, 64, 63
1, 22711, Control_c, 0, 64, 63
1, 22726, Control_c, 0, 64, 62
1, 22741, Control_c, 0, 64, 60
1, 22756, Control_c, 0, 64, 58
1, 22768, Note_on_c, 0, 71, 37
1, 22771, Control_c, 0, 64, 56
1, 22786, Control_c, 0, 64, 53
1, 22788, Note_on_c, 0, 68, 25
1, 22801, Control_c, 0, 64, 49
1, 22816, Control_c, 0, 64, 46
1, 22830, Control_c, 0, 64, 43
1, 22845, Control_c, 0, 64, 38
1, 22860, Control_c, 0, 64, 32
1, 22874, Control_c, 0, 64, 23
1, 22889, Control_c, 0, 64, 0
1, 23030, Control_c, 0, 64, 17
1, 23045, Control_c, 0, 64, 24
1, 23060, Control_c, 0, 64, 30
1, 23074, Control_c, 0, 64, 35
1, 23089, Control_c, 0, 64, 41
1, 23104, Control_c, 0, 64, 46
1, 23119, Control_c, 0, 64, 52
1, 23134, Control_c, 0, 64, 56
1, 23148, Control_c, 0, 64, 60
1, 23163, Control_c, 0, 64, 62
1, 23178, Control_c, 0, 64, 63
1, 23193, Control_c, 0, 64, 63
1, 23203, Note_off_c, 0, 68, 40
1, 23207, Control_c, 0, 64, 64
1, 23267, Control_c, 0, 64, 64
1, 23490, Control_c, 0, 64, 64
1, 23549, Control_c, 0, 64, 63
1, 23579, Control_c, 0, 64, 63
1, 23609, Control_c, 0, 64, 62
1, 23638, Control_c, 0, 64, 61
1, 23653, Control_c, 0, 64, 60
1, 23675, Control_c, 0, 64, 59
1, 23690, Control_c, 0, 64, 58
1, 23704, Control_c, 0, 64, 56
1, 23719, Control_c, 0, 64, 54
1, 23734, Control_c, 0, 64, 51
1, 23737, Note_on_c, 0, 67, 29
1, 23749, Control_c, 0, 64, 46
1, 23764, Control_c, 0, 64, 41
1, 23779, Control_c, 0, 64, 36
1, 23793, Control_c, 0, 64, 30
1, 23808, Control_c, 0, 64, 20
1, 23823, Control_c, 0, 64, 0
1, 23868, Note_off_c, 0, 76, 38
1, 23971, Control_c, 0, 64, 16
1, 23986, Control_c, 0, 64, 23
1, 24001, Control_c, 0, 64, 29
1, 24016, Control_c, 0, 64, 34
1, 24030, Control_c, 0, 64, 41
1, 24045, Control_c, 0, 64, 46
1, 24060, Control_c, 0, 64, 52
1, 24075, Control_c, 0, 64, 56
1, 24090, Control_c, 0, 64, 60
1, 24104, Control_c, 0, 64, 62
1, 24119, Control_c, 0, 64, 63
1, 24134, Control_c, 0, 64, 64
1, 24149, Control_c, 0, 64, 64
1, 24152, Note_off_c, 0, 64, 41
1, 24164, Control_c, 0, 64, 65
1, 24178, Control_c, 0, 64, 65
1, 24189, Note_off_c, 0, 40, 42
1, 24194, Control_c, 0, 64, 66
1, 24205, Note_off_c, 0, 67, 43
1, 24209, Control_c, 0, 64, 66
1, 24218, Note_off_c, 0, 71, 44
1, 24224, Control_c, 0, 64, 67
1, 24239, Control_c, 0, 64, 67
1, 24856, Note_on_c, 0, 71, 43
1, 24870, Note_on_c, 0, 40, 27
1, 24876, Note_on_c, 0, 67, 34
1, 24890, Note_on_c, 0, 64, 23
1, 24914, Note_on_c, 0, 52, 12
1, 25380, Control_c, 0, 64, 68
1, 25438, Note_off_c, 0, 64, 39
1, 25518, Note_off_c, 0, 71, 42
1, 25534, Note_off_c, 0, 67, 42
1, 25632, Note_off_c, 0, 40, 39
1, 25632, Control_c, 0, 64, 68
1, 25642, Note_off_c, 0, 52, 42
1, 25870, Control_c, 0, 64, 69
1, 26011, Control_c, 0, 64, 69
1, 26381, Control_c, 0, 64, 69
1, 26386, Note_on_c, 0, 79, 53
1, 26399, Note_on_c, 0, 65, 33
1, 26405, Note_on_c, 0, 38, 26
1, 26405, Note_on_c, 0, 71, 25
1, 26411, Control_c, 0, 64, 68
1, 26425, Control_c, 0, 64, 67
1, 26438, Note_on_c, 0, 50, 8
1, 26455, Control_c, 0, 64, 66
1, 26470, Control_c, 0, 64, 65
1, 26485, Control_c, 0, 64, 64
1, 26499, Control_c, 0, 64, 62
1, 26514, Control_c, 0, 64, 59
1, 26529, Control_c, 0, 64, 56
1, 26544, Control_c, 0, 64, 51
1, 26559, Control_c, 0, 64, 46
1, 26573, Control_c, 0, 64, 40
1, 26589, Control_c, 0, 64, 32
1, 26604, Control_c, 0, 64, 20
1, 26619, Control_c, 0, 64, 0
1, 26759, Control_c, 0, 64, 18
1, 26774, Control_c, 0, 64, 26
1, 26789, Control_c, 0, 64, 33
1, 26804, Control_c, 0, 64, 40
1, 26819, Control_c, 0, 64, 47
1, 26834, Control_c, 0, 64, 53
1, 26848, Control_c, 0, 64, 57
1, 26863, Control_c, 0, 64, 60
1, 26878, Control_c, 0, 64, 61
1, 26893, Control_c, 0, 64, 62
1, 26908, Control_c, 0, 64, 63
1, 26922, Control_c, 0, 64, 64
1, 26937, Control_c, 0, 64, 65
1, 26952, Control_c, 0, 64, 66
1, 26967, Control_c, 0, 64, 67
1, 26982, Control_c, 0, 64, 68
1, 26996, Control_c, 0, 64, 69
1, 27011, Control_c, 0, 64, 69
1, 27019, Note_off_c, 0, 79, 40
1, 27055, Control_c, 0, 64, 70
1, 27058, Note_off_c, 0, 65, 45
1, 27070, Control_c, 0, 64, 70
1, 27098, Note_off_c, 0, 50, 39
1, 27100, Control_c, 0, 64, 71
1, 27129, Control_c, 0, 64, 71
1, 27144, Control_c, 0, 64, 72
1, 27159, Control_c, 0, 64, 72
1, 27163, Note_off_c, 0, 71, 46
1, 27218, Control_c, 0, 64, 73
1, 27233, Control_c, 0, 64, 73
1, 27263, Control_c, 0, 64, 74
1, 27293, Control_c, 0, 67, 124
1, 27296, Note_off_c, 0, 38, 38
1, 27308, Control_c, 0, 64, 74
1, 27308, Control_c, 0, 67, 118
1, 27322, Control_c, 0, 67, 113
1, 27337, Control_c, 0, 67, 109
1, 27352, Control_c, 0, 67, 104
1, 27366, Control_c, 0, 64, 75
1, 27366, Control_c, 0, 67, 100
1, 27381, Control_c, 0, 67, 97
1, 27397, Control_c, 0, 67, 94
1, 27419, Control_c, 0, 67, 91
1, 27434, Control_c, 0, 67, 89
1, 27449, Control_c, 0, 67, 87
1, 27464, Control_c, 0, 64, 75
1, 27464, Control_c, 0, 67, 86
1, 27478, Control_c, 0, 67, 85
1, 27493, Control_c, 0, 67, 85
1, 27508, Control_c, 0, 67, 84
1, 27873, Note_on_c, 0, 79, 49
1, 27874, Note_on_c, 0, 76, 35
1, 27879, Note_on_c, 0, 67, 38
1, 27886, Note_on_c, 0, 72, 28
1, 27890, Note_on_c, 0, 36, 29
1, 27892, Note_on_c, 0, 48, 27
1, 27893, Control_c, 0, 64, 75
1, 27908, Control_c, 0, 64, 74
1, 27923, Control_c, 0, 64, 74
1, 27937, Control_c, 0, 64, 73
1, 27952, Control_c, 0, 64, 71
1, 27967, Control_c, 0, 64, 69
1, 27982, Control_c, 0, 64, 67
1, 27996, Control_c, 0, 64, 65
1, 28011, Control_c, 0, 64, 63
1, 28026, Control_c, 0, 64, 61
1, 28041, Control_c, 0, 64, 59
1, 28056, Control_c, 0, 64, 56
1, 28071, Control_c, 0, 64, 51
1, 28086, Control_c, 0, 64, 46
1, 28101, Control_c, 0, 64, 40
1, 28116, Control_c, 0, 64, 33
1, 28131, Control_c, 0, 64, 23
1, 28146, Control_c, 0, 64, 0
1, 28288, Control_c, 0, 64, 11
1, 28288, Control_c, 0, 67, 84
1, 28302, Control_c, 0, 64, 22
1, 28317, Control_c, 0, 64, 29
1, 28332, Control_c, 0, 64, 36
1, 28347, Control_c, 0, 64, 43
1, 28362, Control_c, 0, 64, 49
1, 28376, Control_c, 0, 64, 55
1, 28391, Control_c, 0, 64, 58
1, 28406, Control_c, 0, 64, 61
1, 28420, Control_c, 0, 64, 62
1, 28435, Control_c, 0, 64, 64
1, 28450, Control_c, 0, 64, 64
1, 28465, Control_c, 0, 64, 65
1, 28480, Control_c, 0, 64, 66
1, 28494, Control_c, 0, 64, 67
1, 28509, Control_c, 0, 64, 68
1, 28524, Control_c, 0, 64, 69
1, 28525, Note_off_c, 0, 48, 38
1, 28554, Control_c, 0, 64, 70
1, 28569, Control_c, 0, 64, 70
1, 28577, Note_off_c, 0, 72, 41
1, 28584, Control_c, 0, 64, 71
1, 28586, Note_off_c, 0, 67, 41
1, 28599, Control_c, 0, 64, 71
1, 28613, Control_c, 0, 64, 72
1, 28618, Note_off_c, 0, 76, 38
1, 28673, Control_c, 0, 64, 72
1, 28761, Control_c, 0, 64, 73
1, 28820, Control_c, 0, 64, 73
1, 28835, Control_c, 0, 64, 74
1, 28850, Control_c, 0, 64, 74
1, 28879, Control_c, 0, 64, 75
1, 28931, Control_c, 0, 64, 75
1, 28937, Note_off_c, 0, 36, 39
1, 28945, Control_c, 0, 64, 76
1, 28991, Control_c, 0, 64, 76
1, 28999, Note_off_c, 0, 79, 48
1, 29021, Control_c, 0, 64, 77
1, 29035, Control_c, 0, 64, 77
1, 29050, Control_c, 0, 64, 78
1, 29347, Control_c, 0, 64, 77
1, 29361, Control_c, 0, 64, 76
1, 29368, Note_on_c, 0, 84, 46
1, 29373, Note_on_c, 0, 79, 28
1, 29375, Note_on_c, 0, 34, 26
1, 29376, Control_c, 0, 64, 75
1, 29378, Note_on_c, 0, 72, 38
1, 29378, Note_on_c, 0, 76, 31
1, 29383, Note_on_c, 0, 46, 29
1, 29391, Control_c, 0, 64, 73
1, 29406, Control_c, 0, 64, 72
1, 29421, Control_c, 0, 64, 70
1, 29435, Control_c, 0, 64, 68
1, 29450, Control_c, 0, 64, 66
1, 29465, Control_c, 0, 64, 64
1, 29480, Control_c, 0, 64, 62
1, 29495, Control_c, 0, 64, 61
1, 29509, Control_c, 0, 64, 59
1, 29524, Control_c, 0, 64, 57
1, 29539, Control_c, 0, 64, 54
1, 29554, Control_c, 0, 64, 51
1, 29568, Control_c, 0, 64, 46
1, 29583, Control_c, 0, 64, 40
1, 29598, Control_c, 0, 64, 32
1, 29613, Control_c, 0, 64, 21
1, 29613, Control_c, 0, 67, 84
1, 29628, Control_c, 0, 64, 0
1, 29642, Control_c, 0, 67, 85
1, 29680, Control_c, 0, 67, 86
1, 29710, Control_c, 0, 67, 87
1, 29724, Control_c, 0, 67, 88
1, 29739, Control_c, 0, 64, 16
1, 29754, Control_c, 0, 64, 24
1, 29754, Control_c, 0, 67, 89
1, 29768, Control_c, 0, 64, 31
1, 29768, Control_c, 0, 67, 89
1, 29783, Control_c, 0, 64, 36
1, 29783, Control_c, 0, 67, 90
1, 29800, Control_c, 0, 64, 41
1, 29800, Control_c, 0, 67, 90
1, 29814, Control_c, 0, 64, 47
1, 29814, Control_c, 0, 67, 91
1, 29829, Control_c, 0, 64, 53
1, 29829, Control_c, 0, 67, 92
1, 29844, Control_c, 0, 64, 57
1, 29844, Control_c, 0, 67, 93
1, 29859, Control_c, 0, 64, 59
1, 29859, Control_c, 0, 67, 94
1, 29873, Control_c, 0, 64, 61
1, 29873, Control_c, 0, 67, 95
1, 29888, Control_c, 0, 64, 62
1, 29888, Control_c, 0, 67, 95
1, 29903, Control_c, 0, 64, 63
1, 29903, Control_c, 0, 67, 96
1, 29918, Control_c, 0, 64, 64
1, 29918, Control_c, 0, 67, 97
1, 29932, Control_c, 0, 64, 65
1, 29932, Control_c, 0, 67, 98
1, 29947, Control_c, 0, 64, 67
1, 29947, Control_c, 0, 67, 102
1, 29961, Note_off_c, 0, 84, 35
1, 29962, Control_c, 0, 64, 68
1, 29962, Control_c, 0, 67, 106
1, 29977, Control_c, 0, 64, 69
1, 29977, Control_c, 0, 67, 110
1, 29991, Control_c, 0, 64, 71
1, 29991, Control_c, 0, 67, 114
1, 30006, Control_c, 0, 64, 72
1, 30006, Control_c, 0, 67, 118
1, 30009, Note_off_c, 0, 72, 40
1, 30021, Control_c, 0, 64, 73
1, 30021, Control_c, 0, 67, 124
1, 30036, Control_c, 0, 64, 74
1, 30036, Control_c, 0, 67, 127
1, 30051, Control_c, 0, 64, 76
1, 30065, Control_c, 0, 64, 76
1, 30066, Note_off_c, 0, 76, 42
1, 30077, Note_off_c, 0, 34, 33
1, 30080, Control_c, 0, 64, 77
1, 30095, Control_c, 0, 64, 78
1, 30099, Note_off_c, 0, 79, 42
1, 30110, Control_c, 0, 64, 78
1, 30125, Control_c, 0, 64, 79
1, 30158, Note_off_c, 0, 46, 38
1, 30170, Control_c, 0, 64, 80
1, 30184, Control_c, 0, 64, 80
1, 30214, Control_c, 0, 64, 81
1, 30741, Control_c, 0, 64, 80
1, 30770, Control_c, 0, 64, 80
1, 30800, Control_c, 0, 64, 79
1, 30814, Control_c, 0, 64, 79
1, 30829, Control_c, 0, 64, 78
1, 30833, Note_on_c, 0, 84, 41
1, 30844, Control_c, 0, 64, 78
1, 30848, Note_on_c, 0, 77, 30
1, 30853, Note_on_c, 0, 33, 28
1, 30859, Control_c, 0, 64, 77
1, 30869, Note_on_c, 0, 72, 32
1, 30874, Control_c, 0, 64, 75
1, 30880, Note_on_c, 0, 45, 23
1, 30888, Control_c, 0, 64, 73
1, 30903, Control_c, 0, 64, 70
1, 30918, Control_c, 0, 64, 67
1, 30933, Control_c, 0, 64, 65
1, 30948, Control_c, 0, 64, 63
1, 30962, Control_c, 0, 64, 60
1, 30977, Control_c, 0, 64, 57
1, 30992, Control_c, 0, 64, 54
1, 31007, Control_c, 0, 64, 48
1, 31022, Control_c, 0, 64, 43
1, 31037, Control_c, 0, 64, 36
1, 31052, Control_c, 0, 64, 27
1, 31067, Control_c, 0, 64, 11
1, 31081, Control_c, 0, 64, 0
1, 31222, Control_c, 0, 64, 13
1, 31237, Control_c, 0, 64, 24
1, 31252, Control_c, 0, 64, 31
1, 31267, Control_c, 0, 64, 38
1, 31281, Control_c, 0, 64, 45
1, 31284, Note_off_c, 0, 77, 41
1, 31296, Control_c, 0, 64, 51
1, 31311, Control_c, 0, 64, 57
1, 31326, Control_c, 0, 64, 60
1, 31335, Note_off_c, 0, 72, 43
1, 31340, Control_c, 0, 64, 62
1, 31350, Note_off_c, 0, 45, 44
1, 31355, Control_c, 0, 64, 63
1, 31370, Control_c, 0, 64, 64
1, 31386, Control_c, 0, 64, 65
1, 31401, Control_c, 0, 64, 67
1, 31416, Control_c, 0, 64, 68
1, 31430, Control_c, 0, 64, 69
1, 31445, Control_c, 0, 64, 70
1, 31460, Control_c, 0, 64, 71
1, 31490, Control_c, 0, 64, 72
1, 31505, Control_c, 0, 64, 72
1, 31519, Control_c, 0, 64, 73
1, 31534, Control_c, 0, 64, 74
1, 31549, Control_c, 0, 64, 74
1, 31579, Control_c, 0, 64, 75
1, 31608, Control_c, 0, 64, 75
1, 31623, Control_c, 0, 64, 76
1, 31637, Control_c, 0, 64, 76
1, 31699, Note_off_c, 0, 33, 41
1, 31788, Note_off_c, 0, 84, 34
1, 32387, Control_c, 0, 64, 76
1, 32402, Control_c, 0, 64, 75
1, 32417, Note_on_c, 0, 89, 38
1, 32417, Control_c, 0, 64, 74
1, 32425, Note_on_c, 0, 32, 19
1, 32430, Note_on_c, 0, 84, 30
1, 32432, Control_c, 0, 64, 73
1, 32432, Note_on_c, 0, 77, 29
1, 32437, Note_on_c, 0, 44, 17
1, 32447, Control_c, 0, 64, 72
1, 32461, Control_c, 0, 64, 71
1, 32476, Control_c, 0, 64, 69
1, 32491, Control_c, 0, 64, 67
1, 32506, Control_c, 0, 64, 64
1, 32521, Control_c, 0, 64, 62
1, 32535, Control_c, 0, 64, 60
1, 32550, Control_c, 0, 64, 55
1, 32565, Control_c, 0, 64, 50
1, 32579, Control_c, 0, 64, 44
1, 32594, Control_c, 0, 64, 37
1, 32609, Control_c, 0, 64, 28
1, 32624, Control_c, 0, 64, 17
1, 32639, Control_c, 0, 64, 0
1, 32750, Control_c, 0, 64, 9
1, 32765, Control_c, 0, 64, 20
1, 32780, Control_c, 0, 64, 27
1, 32794, Control_c, 0, 64, 33
1, 32809, Control_c, 0, 64, 38
1, 32824, Control_c, 0, 64, 44
1, 32839, Control_c, 0, 64, 49
1, 32854, Control_c, 0, 64, 53
1, 32868, Control_c, 0, 64, 56
1, 32883, Control_c, 0, 64, 58
1, 32898, Control_c, 0, 64, 59
1, 32913, Control_c, 0, 64, 60
1, 32928, Control_c, 0, 64, 61
1, 32942, Control_c, 0, 64, 62
1, 32957, Control_c, 0, 64, 63
1, 32972, Control_c, 0, 64, 64
1, 32988, Control_c, 0, 64, 65
1, 33003, Control_c, 0, 64, 66
1, 33017, Control_c, 0, 64, 67
1, 33024, Note_off_c, 0, 89, 43
1, 33032, Control_c, 0, 64, 67
1, 33035, Note_off_c, 0, 32, 34
1, 33047, Control_c, 0, 64, 68
1, 33053, Note_off_c, 0, 44, 35
1, 33062, Control_c, 0, 64, 68
1, 33066, Note_off_c, 0, 77, 36
1, 33077, Control_c, 0, 64, 69
1, 33091, Control_c, 0, 64, 69
1, 33106, Control_c, 0, 64, 70
1, 33117, Note_off_c, 0, 84, 40
1, 33165, Control_c, 0, 64, 70
1, 33195, Control_c, 0, 64, 71
1, 34160, Note_on_c, 0, 86, 30
1, 34164, Note_on_c, 0, 89, 28
1, 34167, Note_on_c, 0, 77, 21
1, 34168, Note_on_c, 0, 43, 22
1, 34170, Note_on_c, 0, 31, 16
1, 34171, Note_on_c, 0, 83, 29
1, 34172, Control_c, 0, 64, 70
1, 34187, Control_c, 0, 64, 70
1, 34202, Control_c, 0, 64, 69
1, 34217, Control_c, 0, 64, 68
1, 34231, Control_c, 0, 64, 67
1, 34246, Control_c, 0, 64, 66
1, 34261, Control_c, 0, 64, 64
1, 34276, Control_c, 0, 64, 62
1, 34291, Control_c, 0, 64, 58
1, 34305, Control_c, 0, 64, 53
1, 34320, Control_c, 0, 64, 47
1, 34335, Control_c, 0, 64, 40
1, 34350, Control_c, 0, 64, 34
1, 34364, Control_c, 0, 64, 26
1, 34379, Control_c, 0, 64, 15
1, 34394, Control_c, 0, 64, 0
1, 34707, Control_c, 0, 64, 12
1, 34721, Control_c, 0, 64, 19
1, 34736, Control_c, 0, 64, 25
1, 34751, Control_c, 0, 64, 30
1, 34766, Control_c, 0, 64, 35
1, 34780, Control_c, 0, 64, 41
1, 34795, Control_c, 0, 64, 46
1, 34810, Control_c, 0, 64, 49
1, 34825, Control_c, 0, 64, 52
1, 34840, Control_c, 0, 64, 55
1, 34854, Control_c, 0, 64, 57
1, 34870, Control_c, 0, 64, 59
1, 34885, Control_c, 0, 64, 60
1, 34907, Control_c, 0, 64, 61
1, 34922, Control_c, 0, 64, 62
1, 34936, Control_c, 0, 64, 62
1, 34951, Control_c, 0, 64, 63
1, 34966, Control_c, 0, 64, 63
1, 34981, Control_c, 0, 64, 64
1, 34996, Control_c, 0, 64, 65
1, 35011, Control_c, 0, 64, 65
1, 35025, Control_c, 0, 64, 66
1, 35055, Control_c, 0, 64, 66
1, 35203, Control_c, 0, 64, 67
1, 35248, Control_c, 0, 64, 67
1, 35277, Control_c, 0, 64, 68
1, 35306, Control_c, 0, 64, 68
1, 35336, Control_c, 0, 64, 69
1, 35351, Control_c, 0, 64, 69
1, 35397, Control_c, 0, 64, 70
1, 35426, Control_c, 0, 64, 70
1, 35456, Control_c, 0, 64, 71
1, 35471, Control_c, 0, 64, 71
1, 35489, Note_off_c, 0, 89, 44
1, 35545, Control_c, 0, 64, 72
1, 35555, Note_off_c, 0, 86, 42
1, 35563, Note_off_c, 0, 83, 44
1, 35575, Note_off_c, 0, 77, 40
1, 35699, Control_c, 0, 64, 72
1, 35744, Control_c, 0, 64, 73
1, 35803, Control_c, 0, 64, 73
1, 35833, Control_c, 0, 67, 127
1, 35848, Control_c, 0, 67, 124
1, 35863, Control_c, 0, 64, 74
1, 35863, Control_c, 0, 67, 121
1, 35877, Control_c, 0, 67, 119
1, 35892, Control_c, 0, 67, 116
1, 35907, Control_c, 0, 67, 113
1, 35922, Control_c, 0, 67, 111
1, 35936, Control_c, 0, 67, 108
1, 35951, Control_c, 0, 67, 104
1, 35966, Control_c, 0, 67, 100
1, 35981, Control_c, 0, 67, 95
1, 35996, Control_c, 0, 67, 91
1, 36010, Control_c, 0, 67, 86
1, 36025, Control_c, 0, 67, 81
1, 36040, Control_c, 0, 67, 77
1, 36055, Control_c, 0, 67, 71
1, 36070, Control_c, 0, 67, 66
1, 36084, Control_c, 0, 67, 59
1, 36099, Control_c, 0, 67, 53
1, 36114, Control_c, 0, 67, 48
1, 36128, Control_c, 0, 67, 44
1, 36143, Control_c, 0, 67, 40
1, 36158, Control_c, 0, 67, 37
1, 36174, Control_c, 0, 67, 34
1, 36189, Control_c, 0, 67, 31
1, 36204, Control_c, 0, 67, 29
1, 36219, Control_c, 0, 67, 28
1, 36233, Control_c, 0, 67, 26
1, 36248, Control_c, 0, 67, 26
1, 36263, Control_c, 0, 67, 25
1, 36278, Control_c, 0, 67, 25
1, 36352, Control_c, 0, 67, 24
1, 36471, Note_on_c, 0, 59, 44
1, 36495, Note_on_c, 0, 53, 36
1, 36502, Note_on_c, 0, 50, 26
1, 36715, Note_off_c, 0, 43, 42
1, 36735, Note_off_c, 0, 50, 46
1, 36746, Note_off_c, 0, 31, 40
1, 36749, Note_off_c, 0, 59, 61
1, 36759, Control_c, 0, 64, 74
1, 36762, Note_off_c, 0, 53, 50
1, 36819, Control_c, 0, 64, 75
1, 36863, Control_c, 0, 64, 75
1, 37163, Note_on_c, 0, 43, 15
1, 37165, Note_on_c, 0, 31, 30
1, 37184, Note_on_c, 0, 59, 51
1, 37197, Control_c, 0, 67, 24
1, 37207, Note_on_c, 0, 53, 41
1, 37208, Note_on_c, 0, 50, 31
1, 37256, Control_c, 0, 67, 23
1, 37271, Control_c, 0, 67, 23
1, 37286, Control_c, 0, 67, 22
1, 37301, Control_c, 0, 67, 20
1, 37316, Control_c, 0, 67, 17
1, 37330, Control_c, 0, 67, 15
1, 37345, Control_c, 0, 67, 12
1, 37360, Control_c, 0, 67, 9
1, 37374, Control_c, 0, 67, 0
1, 37434, Control_c, 0, 64, 75
1, 37612, Control_c, 0, 64, 75
1, 37656, Control_c, 0, 64, 76
1, 37671, Control_c, 0, 64, 76
1, 37686, Control_c, 0, 64, 77
1, 37700, Control_c, 0, 64, 78
1, 37715, Control_c, 0, 64, 79
1, 37730, Control_c, 0, 64, 80
1, 37745, Control_c, 0, 64, 81
1, 37758, Note_off_c, 0, 53, 46
1, 37760, Control_c, 0, 64, 81
1, 37776, Control_c, 0, 64, 82
1, 37791, Control_c, 0, 64, 83
1, 37800, Note_off_c, 0, 50, 40
1, 37805, Control_c, 0, 64, 84
1, 37820, Control_c, 0, 64, 86
1, 37835, Control_c, 0, 64, 86
1, 37850, Control_c, 0, 64, 87
1, 38376, Control_c, 0, 64, 86
1, 38391, Control_c, 0, 64, 86
1, 38405, Control_c, 0, 64, 85
1, 38420, Control_c, 0, 64, 84
1, 38434, Note_on_c, 0, 61, 54
1, 38435, Control_c, 0, 64, 83
1, 38450, Note_on_c, 0, 55, 36
1, 38450, Control_c, 0, 64, 82
1, 38452, Note_on_c, 0, 52, 46
1, 38465, Control_c, 0, 64, 80
1, 38479, Control_c, 0, 64, 78
1, 38494, Control_c, 0, 64, 76
1, 38509, Control_c, 0, 64, 74
1, 38523, Control_c, 0, 64, 71
1, 38538, Control_c, 0, 64, 69
1, 38553, Control_c, 0, 64, 66
1, 38554, Note_off_c, 0, 59, 31
1, 38569, Control_c, 0, 64, 64
1, 38584, Control_c, 0, 64, 61
1, 38599, Control_c, 0, 64, 57
1, 38614, Control_c, 0, 64, 49
1, 38629, Control_c, 0, 64, 39
1, 38651, Control_c, 0, 64, 24
1, 38666, Control_c, 0, 64, 0
1, 38799, Control_c, 0, 64, 21
1, 38814, Control_c, 0, 64, 30
1, 38829, Control_c, 0, 64, 38
1, 38844, Control_c, 0, 64, 46
1, 38859, Control_c, 0, 64, 55
1, 38874, Control_c, 0, 64, 60
1, 38889, Control_c, 0, 64, 63
1, 38903, Control_c, 0, 64, 65
1, 38918, Control_c, 0, 64, 65
1, 38947, Control_c, 0, 64, 66
1, 38962, Control_c, 0, 64, 67
1, 38977, Control_c, 0, 64, 68
1, 38981, Note_off_c, 0, 31, 36
1, 38992, Control_c, 0, 64, 69
1, 39007, Control_c, 0, 64, 70
1, 39021, Control_c, 0, 64, 71
1, 39036, Control_c, 0, 64, 72
1, 39051, Control_c, 0, 64, 72
1, 39057, Note_off_c, 0, 55, 51
1, 39081, Control_c, 0, 64, 73
1, 39110, Control_c, 0, 64, 73
1, 39136, Note_off_c, 0, 52, 42
1, 39140, Control_c, 0, 64, 74
1, 39288, Control_c, 0, 64, 74
1, 39377, Control_c, 0, 64, 75
1, 39392, Control_c, 0, 64, 75
1, 39429, Control_c, 0, 64, 76
1, 39655, Poly_aftertouch_c, 0, 31, 127
1, 39711, Control_c, 0, 64, 75
1, 39740, Control_c, 0, 64, 74
1, 39755, Control_c, 0, 64, 74
1, 39765, Note_on_c, 0, 62, 52
1, 39769, Control_c, 0, 64, 72
1, 39775, Note_on_c, 0, 57, 29
1, 39784, Control_c, 0, 64, 71
1, 39795, Note_on_c, 0, 53, 36
1, 39799, Control_c, 0, 64, 69
1, 39814, Control_c, 0, 64, 67
1, 39829, Control_c, 0, 64, 65
1, 39843, Control_c, 0, 64, 63
1, 39858, Control_c, 0, 64, 60
1, 39873, Control_c, 0, 64, 57
1, 39888, Control_c, 0, 64, 52
1, 39902, Control_c, 0, 64, 46
1, 39917, Control_c, 0, 64, 41
1, 39932, Control_c, 0, 64, 36
1, 39935, Note_off_c, 0, 61, 40
1, 39947, Control_c, 0, 64, 30
1, 39962, Control_c, 0, 64, 21
1, 39977, Control_c, 0, 64, 0
1, 40162, Control_c, 0, 64, 20
1, 40178, Control_c, 0, 64, 28
1, 40192, Control_c, 0, 64, 36
1, 40207, Control_c, 0, 64, 42
1, 40222, Control_c, 0, 64, 49
1, 40237, Control_c, 0, 64, 55
1, 40252, Control_c, 0, 64, 59
1, 40267, Control_c, 0, 64, 61
1, 40275, Poly_aftertouch_c, 0, 31, 0
1, 40281, Control_c, 0, 64, 62
1, 40296, Control_c, 0, 64, 63
1, 40311, Control_c, 0, 64, 64
1, 40326, Control_c, 0, 64, 65
1, 40340, Control_c, 0, 64, 67
1, 40344, Note_off_c, 0, 43, 44
1, 40352, Note_off_c, 0, 53, 43
1, 40355, Control_c, 0, 64, 68
1, 40370, Control_c, 0, 64, 70
1, 40385, Control_c, 0, 64, 71
1, 40400, Control_c, 0, 64, 71
1, 40412, Note_off_c, 0, 57, 41
1, 40415, Control_c, 0, 64, 72
1, 40430, Control_c, 0, 64, 72
1, 40445, Control_c, 0, 64, 73
1, 40460, Control_c, 0, 64, 74
1, 40504, Control_c, 0, 64, 74
1, 40518, Control_c, 0, 64, 75
1, 40533, Control_c, 0, 64, 75
1, 40607, Control_c, 0, 64, 76
1, 41045, Control_c, 0, 64, 75
1, 41060, Control_c, 0, 64, 74
1, 41075, Control_c, 0, 64, 74
1, 41090, Control_c, 0, 64, 72
1, 41104, Control_c, 0, 64, 71
1, 41118, Note_on_c, 0, 60, 46
1, 41119, Control_c, 0, 64, 70
1, 41134, Control_c, 0, 64, 68
1, 41145, Note_on_c, 0, 52, 31
1, 41146, Note_on_c, 0, 43, 24
1, 41148, Control_c, 0, 64, 66
1, 41154, Note_on_c, 0, 55, 28
1, 41163, Control_c, 0, 64, 64
1, 41178, Control_c, 0, 64, 61
1, 41193, Control_c, 0, 64, 58
1, 41208, Control_c, 0, 64, 52
1, 41223, Control_c, 0, 64, 43
1, 41238, Control_c, 0, 64, 29
1, 41238, Note_off_c, 0, 62, 32
1, 41253, Control_c, 0, 64, 9
1, 41267, Control_c, 0, 64, 0
1, 41342, Control_c, 0, 64, 20
1, 41356, Control_c, 0, 64, 31
1, 41371, Control_c, 0, 64, 40
1, 41386, Control_c, 0, 64, 49
1, 41401, Control_c, 0, 64, 56
1, 41415, Control_c, 0, 64, 62
1, 41430, Control_c, 0, 64, 65
1, 41445, Control_c, 0, 64, 66
1, 41475, Control_c, 0, 64, 67
1, 41489, Control_c, 0, 64, 68
1, 41502, Note_off_c, 0, 52, 52
1, 41504, Control_c, 0, 64, 69
1, 41510, Note_off_c, 0, 55, 43
1, 41519, Control_c, 0, 64, 71
1, 41534, Control_c, 0, 64, 73
1, 41548, Control_c, 0, 64, 73
1, 41593, Control_c, 0, 64, 74
1, 41643, Note_off_c, 0, 43, 42
1, 41764, Control_c, 0, 64, 73
1, 41766, Note_on_c, 0, 59, 57
1, 41780, Control_c, 0, 64, 72
1, 41792, Note_on_c, 0, 50, 33
1, 41795, Control_c, 0, 64, 71
1, 41800, Note_on_c, 0, 55, 35
1, 41804, Note_on_c, 0, 41, 29
1, 41810, Control_c, 0, 64, 69
1, 41825, Control_c, 0, 64, 68
1, 41840, Control_c, 0, 64, 66
1, 41842, Note_off_c, 0, 60, 62
1, 41854, Control_c, 0, 64, 64
1, 41869, Control_c, 0, 64, 61
1, 41884, Control_c, 0, 64, 57
1, 41899, Control_c, 0, 64, 47
1, 41914, Control_c, 0, 64, 27
1, 41928, Control_c, 0, 64, 0
1, 42002, Control_c, 0, 64, 19
1, 42017, Control_c, 0, 64, 30
1, 42032, Control_c, 0, 64, 39
1, 42046, Control_c, 0, 64, 47
1, 42061, Control_c, 0, 64, 55
1, 42076, Control_c, 0, 64, 60
1, 42081, Note_off_c, 0, 41, 51
1, 42084, Note_off_c, 0, 59, 62
1, 42088, Note_off_c, 0, 55, 44
1, 42091, Control_c, 0, 64, 64
1, 42105, Control_c, 0, 64, 66
1, 42120, Control_c, 0, 64, 67
1, 42135, Control_c, 0, 64, 67
1, 42150, Control_c, 0, 64, 68
1, 42165, Control_c, 0, 64, 69
1, 42180, Control_c, 0, 64, 71
1, 42195, Control_c, 0, 64, 74
1, 42198, Note_off_c, 0, 50, 40
1, 42209, Control_c, 0, 64, 75
1, 42269, Control_c, 0, 64, 75
1, 42284, Control_c, 0, 64, 76
1, 42313, Control_c, 0, 64, 76
1, 42489, Note_on_c, 0, 67, 61
1, 42498, Control_c, 0, 64, 76
1, 42504, Note_on_c, 0, 60, 42
1, 42508, Note_on_c, 0, 55, 49
1, 42513, Control_c, 0, 64, 75
1, 42515, Note_on_c, 0, 40, 36
1, 42516, Note_on_c, 0, 52, 35
1, 42528, Control_c, 0, 64, 74
1, 42543, Control_c, 0, 64, 73
1, 42558, Control_c, 0, 64, 71
1, 42573, Control_c, 0, 64, 69
1, 42588, Control_c, 0, 64, 67
1, 42603, Control_c, 0, 64, 65
1, 42618, Control_c, 0, 64, 63
1, 42633, Control_c, 0, 64, 61
1, 42648, Control_c, 0, 64, 58
1, 42663, Control_c, 0, 64, 52
1, 42677, Control_c, 0, 64, 43
1, 42692, Control_c, 0, 64, 34
1, 42707, Control_c, 0, 64, 20
1, 42721, Control_c, 0, 64, 0
1, 42825, Control_c, 0, 64, 19
1, 42840, Control_c, 0, 64, 29
1, 42855, Control_c, 0, 64, 37
1, 42869, Control_c, 0, 64, 47
1, 42884, Control_c, 0, 64, 54
1, 42899, Control_c, 0, 64, 60
1, 42913, Control_c, 0, 64, 65
1, 42928, Control_c, 0, 64, 67
1, 42943, Control_c, 0, 64, 69
1, 42958, Control_c, 0, 64, 70
1, 42973, Control_c, 0, 64, 72
1, 42982, Note_off_c, 0, 52, 44
1, 42987, Control_c, 0, 64, 75
1, 43002, Control_c, 0, 64, 77
1, 43007, Note_off_c, 0, 40, 40
1, 43017, Control_c, 0, 64, 79
1, 43032, Control_c, 0, 64, 81
1, 43047, Control_c, 0, 64, 83
1, 43062, Control_c, 0, 64, 84
1, 43077, Control_c, 0, 64, 86
1, 43092, Control_c, 0, 64, 88
1, 43107, Control_c, 0, 64, 89
1, 43121, Control_c, 0, 64, 90
1, 43136, Control_c, 0, 64, 91
1, 43173, Control_c, 0, 64, 91
1, 43188, Control_c, 0, 64, 92
1, 43202, Control_c, 0, 64, 93
1, 43217, Control_c, 0, 64, 95
1, 43232, Control_c, 0, 64, 96
1, 43247, Control_c, 0, 64, 97
1, 43262, Control_c, 0, 64, 97
1, 43277, Control_c, 0, 64, 99
1, 43280, Note_off_c, 0, 60, 37
1, 43292, Control_c, 0, 64, 99
1, 43306, Control_c, 0, 64, 100
1, 43321, Control_c, 0, 64, 100
1, 43358, Note_off_c, 0, 55, 52
1, 43411, Control_c, 0, 64, 101
1, 43766, Control_c, 0, 64, 100
1, 43781, Control_c, 0, 64, 99
1, 43796, Control_c, 0, 64, 97
1, 43810, Note_on_c, 0, 69, 63
1, 43810, Control_c, 0, 64, 95
1, 43825, Control_c, 0, 64, 92
1, 43840, Control_c, 0, 64, 88
1, 43846, Note_on_c, 0, 38, 30
1, 43851, Note_on_c, 0, 65, 37
1, 43852, Note_on_c, 0, 57, 42
1, 43855, Control_c, 0, 64, 85
1, 43866, Note_on_c, 0, 50, 21
1, 43869, Control_c, 0, 64, 81
1, 43891, Control_c, 0, 64, 78
1, 43906, Control_c, 0, 64, 75
1, 43921, Control_c, 0, 64, 71
1, 43936, Control_c, 0, 64, 68
1, 43950, Control_c, 0, 64, 64
1, 43965, Control_c, 0, 64, 59
1, 43972, Note_off_c, 0, 67, 29
1, 43980, Control_c, 0, 64, 49
1, 43995, Control_c, 0, 64, 35
1, 44010, Control_c, 0, 64, 8
1, 44025, Control_c, 0, 64, 0
1, 44084, Control_c, 0, 64, 19
1, 44099, Control_c, 0, 64, 31
1, 44114, Control_c, 0, 64, 43
1, 44129, Control_c, 0, 64, 53
1, 44143, Control_c, 0, 64, 61
1, 44158, Control_c, 0, 64, 67
1, 44174, Control_c, 0, 64, 72
1, 44189, Control_c, 0, 64, 73
1, 44204, Control_c, 0, 64, 74
1, 44219, Control_c, 0, 64, 76
1, 44233, Control_c, 0, 64, 79
1, 44248, Control_c, 0, 64, 83
1, 44263, Control_c, 0, 64, 86
1, 44266, Note_off_c, 0, 38, 40
1, 44278, Control_c, 0, 64, 87
1, 44292, Control_c, 0, 64, 89
1, 44307, Control_c, 0, 64, 90
1, 44322, Control_c, 0, 64, 91
1, 44337, Control_c, 0, 64, 91
1, 44426, Control_c, 0, 64, 91
1, 44440, Control_c, 0, 64, 90
1, 44455, Control_c, 0, 64, 90
1, 44470, Control_c, 0, 64, 89
1, 44484, Control_c, 0, 64, 88
1, 44490, Note_on_c, 0, 43, 49
1, 44499, Control_c, 0, 64, 87
1, 44514, Control_c, 0, 64, 86
1, 44529, Control_c, 0, 64, 85
1, 44544, Control_c, 0, 64, 83
1, 44558, Control_c, 0, 64, 82
1, 44573, Control_c, 0, 64, 79
1, 44588, Control_c, 0, 64, 74
1, 44603, Control_c, 0, 64, 65
1, 44618, Control_c, 0, 64, 55
1, 44640, Control_c, 0, 64, 37
1, 44655, Control_c, 0, 64, 8
1, 44670, Control_c, 0, 64, 0
1, 44685, Control_c, 0, 64, 26
1, 44699, Control_c, 0, 64, 41
1, 44700, Note_off_c, 0, 57, 62
1, 44714, Control_c, 0, 64, 54
1, 44729, Control_c, 0, 64, 64
1, 44744, Control_c, 0, 64, 71
1, 44759, Control_c, 0, 64, 74
1, 44824, Note_off_c, 0, 43, 60
1, 44830, Note_on_c, 0, 71, 65
1, 44845, Note_off_c, 0, 50, 41
1, 44848, Control_c, 0, 64, 75
1, 44862, Control_c, 0, 64, 75
1, 44864, Note_on_c, 0, 59, 34
1, 44907, Control_c, 0, 64, 76
1, 44922, Note_off_c, 0, 59, 59
1, 44922, Control_c, 0, 64, 77
1, 44937, Control_c, 0, 64, 78
1, 44946, Note_off_c, 0, 69, 62
1, 44952, Control_c, 0, 64, 79
1, 44959, Note_off_c, 0, 71, 63
1, 44964, Note_off_c, 0, 65, 52
1, 45234, Control_c, 0, 64, 78
1, 45263, Control_c, 0, 64, 77
1, 45278, Control_c, 0, 64, 76
1, 45293, Control_c, 0, 64, 75
1, 45307, Control_c, 0, 64, 73
1, 45320, Note_on_c, 0, 71, 60
1, 45322, Control_c, 0, 64, 72
1, 45328, Note_on_c, 0, 65, 36
1, 45330, Note_on_c, 0, 59, 45
1, 45337, Control_c, 0, 64, 70
1, 45353, Control_c, 0, 64, 67
1, 45354, Note_on_c, 0, 43, 25
1, 45368, Control_c, 0, 64, 65
1, 45378, Poly_aftertouch_c, 0, 50, 127
1, 45390, Control_c, 0, 64, 63
1, 45392, Note_on_c, 0, 50, 3
1, 45405, Control_c, 0, 64, 61
1, 45420, Control_c, 0, 64, 57
1, 45435, Control_c, 0, 64, 53
1, 45450, Control_c, 0, 64, 48
1, 45464, Control_c, 0, 64, 44
1, 45479, Control_c, 0, 64, 40
1, 45494, Control_c, 0, 64, 35
1, 45509, Control_c, 0, 64, 28
1, 45523, Control_c, 0, 64, 16
1, 45538, Control_c, 0, 64, 0
1, 45791, Control_c, 0, 64, 10
1, 45806, Control_c, 0, 64, 20
1, 45820, Control_c, 0, 64, 27
1, 45835, Control_c, 0, 64, 35
1, 45850, Control_c, 0, 64, 42
1, 45865, Control_c, 0, 64, 48
1, 45880, Control_c, 0, 64, 53
1, 45894, Control_c, 0, 64, 57
1, 45909, Control_c, 0, 64, 60
1, 45924, Control_c, 0, 64, 62
1, 45939, Control_c, 0, 64, 63
1, 45953, Control_c, 0, 64, 65
1, 45968, Control_c, 0, 64, 66
1, 45983, Control_c, 0, 64, 68
1, 45998, Control_c, 0, 64, 69
1, 46013, Control_c, 0, 64, 71
1, 46028, Control_c, 0, 64, 71
1, 46043, Control_c, 0, 64, 72
1, 46058, Control_c, 0, 64, 73
1, 46073, Control_c, 0, 64, 74
1, 46087, Control_c, 0, 64, 75
1, 46100, Control_c, 0, 64, 76
1, 46115, Control_c, 0, 64, 76
1, 46152, Control_c, 0, 64, 77
1, 46182, Control_c, 0, 64, 77
1, 46197, Control_c, 0, 64, 78
1, 46211, Control_c, 0, 64, 78
1, 46211, Control_c, 0, 67, 10
1, 46226, Control_c, 0, 67, 14
1, 46234, Note_off_c, 0, 65, 50
1, 46241, Control_c, 0, 64, 79
1, 46241, Control_c, 0, 67, 18
1, 46256, Control_c, 0, 67, 22
1, 46270, Control_c, 0, 67, 29
1, 46285, Control_c, 0, 67, 35
1, 46300, Control_c, 0, 67, 44
1, 46315, Control_c, 0, 67, 53
1, 46330, Control_c, 0, 67, 63
1, 46344, Control_c, 0, 67, 72
1, 46359, Control_c, 0, 67, 81
1, 46374, Control_c, 0, 67, 91
1, 46389, Control_c, 0, 67, 100
1, 46404, Control_c, 0, 67, 108
1, 46418, Control_c, 0, 67, 116
1, 46419, Note_off_c, 0, 50, 41
1, 46426, Note_off_c, 0, 43, 40
1, 46433, Control_c, 0, 67, 123
1, 46448, Control_c, 0, 67, 127
1, 46469, Note_off_c, 0, 59, 42
1, 46568, Control_c, 0, 64, 79
1, 46578, Note_off_c, 0, 71, 36
1, 46916, Control_c, 0, 64, 79
1, 46975, Control_c, 0, 64, 78
1, 47005, Control_c, 0, 64, 78
1, 47035, Control_c, 0, 64, 77
1, 47049, Control_c, 0, 64, 77
1, 47064, Control_c, 0, 64, 76
1, 47079, Control_c, 0, 64, 75
1, 47093, Control_c, 0, 64, 74
1, 47108, Control_c, 0, 64, 74
1, 47123, Control_c, 0, 64, 73
1, 47138, Control_c, 0, 64, 72
1, 47153, Control_c, 0, 64, 69
1, 47167, Control_c, 0, 64, 66
1, 47182, Control_c, 0, 64, 63
1, 47183, Note_on_c, 0, 72, 42
1, 47186, Note_on_c, 0, 48, 27
1, 47197, Control_c, 0, 64, 60
1, 47198, Note_on_c, 0, 60, 24
1, 47205, Note_on_c, 0, 64, 24
1, 47212, Note_on_c, 0, 36, 14
1, 47212, Control_c, 0, 64, 55
1, 47227, Control_c, 0, 64, 50
1, 47241, Control_c, 0, 64, 43
1, 47256, Control_c, 0, 64, 33
1, 47271, Control_c, 0, 64, 25
1, 47286, Control_c, 0, 64, 13
1, 47298, Note_off_c, 0, 64, 0
1, 47298, Note_on_c, 0, 64, 3
1, 47301, Control_c, 0, 64, 0
1, 47480, Control_c, 0, 64, 16
1, 47495, Control_c, 0, 64, 28
1, 47509, Control_c, 0, 64, 37
1, 47524, Control_c, 0, 64, 45
1, 47539, Control_c, 0, 64, 54
1, 47554, Control_c, 0, 64, 59
1, 47569, Control_c, 0, 64, 62
1, 47583, Control_c, 0, 64, 63
1, 47598, Control_c, 0, 64, 63
1, 47613, Control_c, 0, 64, 64
1, 47617, Note_off_c, 0, 36, 41
1, 47637, Note_off_c, 0, 48, 45
1, 47650, Control_c, 0, 64, 64
1, 47662, Note_off_c, 0, 72, 31
1, 47664, Control_c, 0, 64, 65
1, 47679, Control_c, 0, 64, 65
1, 47723, Note_off_c, 0, 64, 39
1, 47725, Note_off_c, 0, 60, 42
1, 47872, Control_c, 0, 64, 65
1, 47902, Control_c, 0, 64, 64
1, 47916, Control_c, 0, 64, 64
1, 47931, Control_c, 0, 64, 63
1, 47946, Control_c, 0, 64, 63
1, 47976, Control_c, 0, 64, 62
1, 47990, Control_c, 0, 64, 61
1, 48005, Control_c, 0, 64, 61
1, 48020, Control_c, 0, 64, 60
1, 48034, Control_c, 0, 64, 60
1, 48049, Control_c, 0, 64, 59
1, 48064, Control_c, 0, 64, 59
1, 48079, Control_c, 0, 64, 58
1, 48094, Control_c, 0, 64, 57
1, 48109, Control_c, 0, 64, 55
1, 48124, Control_c, 0, 64, 54
1, 48154, Control_c, 0, 64, 54
1, 48169, Control_c, 0, 64, 53
1, 48184, Control_c, 0, 64, 52
1, 48199, Control_c, 0, 64, 51
1, 48213, Control_c, 0, 64, 50
1, 48228, Control_c, 0, 64, 50
1, 48243, Control_c, 0, 64, 49
1, 48258, Control_c, 0, 64, 48
1, 48273, Control_c, 0, 64, 47
1, 48288, Control_c, 0, 64, 46
1, 48317, Control_c, 0, 64, 46
1, 48332, Control_c, 0, 64, 45
1, 48347, Control_c, 0, 64, 44
1, 48362, Control_c, 0, 64, 43
1, 48385, Control_c, 0, 64, 41
1, 48400, Control_c, 0, 64, 40
1, 48414, Control_c, 0, 64, 38
1, 48429, Control_c, 0, 64, 35
1, 48444, Control_c, 0, 64, 33
1, 48458, Control_c, 0, 64, 32
1, 48473, Control_c, 0, 64, 31
1, 48488, Control_c, 0, 64, 29
1, 48503, Control_c, 0, 64, 27
1, 48518, Control_c, 0, 64, 25
1, 48532, Control_c, 0, 64, 23
1, 48547, Control_c, 0, 64, 21
1, 48562, Control_c, 0, 64, 18
1, 48577, Control_c, 0, 64, 14
1, 48592, Control_c, 0, 64, 12
1, 48606, Control_c, 0, 64, 10
1, 48621, Control_c, 0, 64, 0
1, 49208, Control_c, 0, 64, 9
1, 49223, Control_c, 0, 64, 11
1, 49237, Control_c, 0, 64, 11
1, 49252, Control_c, 0, 64, 12
1, 49267, Control_c, 0, 64, 14
1, 49281, Control_c, 0, 64, 16
1, 49296, Control_c, 0, 64, 17
1, 49311, Control_c, 0, 64, 17
1, 49317, Note_on_c, 0, 43, 34
1, 49326, Control_c, 0, 64, 18
1, 49355, Control_c, 0, 64, 19
1, 49370, Control_c, 0, 64, 20
1, 49385, Control_c, 0, 64, 21
1, 49400, Control_c, 0, 64, 22
1, 49415, Control_c, 0, 64, 24
1, 49429, Control_c, 0, 64, 26
1, 49444, Control_c, 0, 64, 27
1, 49459, Control_c, 0, 64, 28
1, 49474, Control_c, 0, 64, 29
1, 49489, Control_c, 0, 64, 30
1, 49504, Control_c, 0, 64, 32
1, 49519, Control_c, 0, 64, 34
1, 49534, Control_c, 0, 64, 37
1, 49548, Control_c, 0, 64, 39
1, 49563, Control_c, 0, 64, 40
1, 49578, Control_c, 0, 64, 41
1, 49593, Control_c, 0, 64, 43
1, 49607, Control_c, 0, 64, 45
1, 49622, Control_c, 0, 64, 48
1, 49637, Control_c, 0, 64, 49
1, 49652, Control_c, 0, 64, 51
1, 49667, Control_c, 0, 64, 53
1, 49681, Control_c, 0, 64, 54
1, 49696, Control_c, 0, 64, 55
1, 49711, Control_c, 0, 64, 56
1, 49726, Control_c, 0, 64, 57
1, 49741, Control_c, 0, 64, 57
1, 49757, Control_c, 0, 64, 58
1, 49772, Control_c, 0, 64, 58
1, 49786, Control_c, 0, 64, 59
1, 49801, Control_c, 0, 64, 60
1, 49816, Control_c, 0, 64, 60
1, 49845, Control_c, 0, 64, 61
1, 49859, Control_c, 0, 64, 61
1, 49882, Control_c, 0, 64, 62
1, 49897, Control_c, 0, 64, 62
1, 49911, Control_c, 0, 64, 63
1, 49971, Control_c, 0, 64, 63
1, 49985, Control_c, 0, 64, 64
1, 50000, Control_c, 0, 64, 64
1, 50015, Control_c, 0, 64, 65
1, 50059, Control_c, 0, 64, 65
1, 50103, Control_c, 0, 64, 66
1, 50118, Control_c, 0, 64, 66
1, 50133, Control_c, 0, 64, 67
1, 50148, Control_c, 0, 64, 67
1, 50207, Control_c, 0, 64, 68
1, 50222, Control_c, 0, 64, 68
1, 50237, Control_c, 0, 64, 69
1, 50252, Control_c, 0, 64, 69
1, 50282, Control_c, 0, 64, 70
1, 50297, Control_c, 0, 64, 70
1, 50311, Control_c, 0, 64, 71
1, 50326, Control_c, 0, 64, 72
1, 50341, Control_c, 0, 64, 72
1, 50356, Control_c, 0, 64, 73
1, 50385, Control_c, 0, 64, 73
1, 50415, Control_c, 0, 64, 74
1, 50429, Control_c, 0, 64, 74
1, 50444, Control_c, 0, 64, 75
1, 50459, Control_c, 0, 64, 75
1, 50518, Control_c, 0, 64, 76
1, 50533, Control_c, 0, 64, 76
1, 50536, Note_off_c, 0, 43, 42
1, 50838, Control_c, 0, 64, 77
1, 51414, Note_on_c, 0, 43, 38
1, 51498, Control_c, 0, 64, 76
1, 51528, Control_c, 0, 64, 76
1, 51557, Control_c, 0, 64, 75
1, 51587, Control_c, 0, 64, 75
1, 51602, Control_c, 0, 64, 74
1, 51617, Control_c, 0, 64, 74
1, 51631, Control_c, 0, 64, 73
1, 51646, Control_c, 0, 64, 72
1, 51661, Control_c, 0, 64, 71
1, 51675, Control_c, 0, 64, 70
1, 51690, Control_c, 0, 64, 69
1, 51735, Control_c, 0, 64, 69
1, 51749, Control_c, 0, 64, 68
1, 51764, Control_c, 0, 64, 67
1, 51779, Control_c, 0, 64, 67
1, 51838, Control_c, 0, 64, 66
1, 51868, Control_c, 0, 64, 66
1, 51912, Control_c, 0, 64, 65
1, 51942, Control_c, 0, 64, 65
1, 51957, Control_c, 0, 64, 64
1, 51969, Note_on_c, 0, 45, 41
1, 51987, Control_c, 0, 64, 64
1, 51991, Note_off_c, 0, 43, 42
1, 52016, Control_c, 0, 64, 63
1, 52031, Control_c, 0, 64, 63
1, 52046, Control_c, 0, 64, 62
1, 52061, Control_c, 0, 64, 62
1, 52075, Control_c, 0, 64, 61
1, 52091, Control_c, 0, 64, 60
1, 52100, Note_on_c, 0, 43, 54
1, 52106, Control_c, 0, 64, 59
1, 52127, Note_off_c, 0, 45, 50
1, 52128, Control_c, 0, 64, 57
1, 52143, Control_c, 0, 64, 56
1, 52159, Control_c, 0, 64, 54
1, 52174, Control_c, 0, 64, 52
1, 52188, Control_c, 0, 64, 50
1, 52203, Control_c, 0, 64, 48
1, 52218, Control_c, 0, 64, 46
1, 52233, Control_c, 0, 64, 45
1, 52244, Note_on_c, 0, 42, 60
1, 52248, Control_c, 0, 64, 43
1, 52261, Note_off_c, 0, 43, 58
1, 52262, Control_c, 0, 64, 41
1, 52277, Control_c, 0, 64, 38
1, 52292, Control_c, 0, 64, 35
1, 52306, Control_c, 0, 64, 33
1, 52321, Control_c, 0, 64, 32
1, 52336, Control_c, 0, 64, 30
1, 52351, Control_c, 0, 64, 28
1, 52366, Control_c, 0, 64, 23
1, 52380, Control_c, 0, 64, 17
1, 52395, Control_c, 0, 64, 9
1, 52405, Note_on_c, 0, 43, 64
1, 52410, Control_c, 0, 64, 0
1, 52466, Note_off_c, 0, 42, 57
1, 52966, Note_on_c, 0, 52, 54
1, 52993, Note_off_c, 0, 43, 52
1, 53174, Control_c, 0, 64, 17
1, 53189, Control_c, 0, 64, 27
1, 53203, Control_c, 0, 64, 34
1, 53218, Control_c, 0, 64, 42
1, 53233, Control_c, 0, 64, 50
1, 53248, Control_c, 0, 64, 55
1, 53263, Control_c, 0, 64, 59
1, 53278, Control_c, 0, 64, 61
1, 53292, Control_c, 0, 64, 61
1, 53307, Control_c, 0, 64, 62
1, 53322, Control_c, 0, 64, 64
1, 53337, Control_c, 0, 64, 65
1, 53352, Control_c, 0, 64, 66
1, 53352, Control_c, 0, 67, 126
1, 53367, Control_c, 0, 64, 66
1, 53367, Control_c, 0, 67, 123
1, 53382, Control_c, 0, 67, 122
1, 53397, Control_c, 0, 67, 120
1, 53411, Control_c, 0, 67, 117
1, 53426, Control_c, 0, 64, 67
1, 53426, Control_c, 0, 67, 114
1, 53441, Control_c, 0, 67, 112
1, 53455, Control_c, 0, 67, 109
1, 53470, Control_c, 0, 67, 107
1, 53485, Control_c, 0, 67, 104
1, 53500, Control_c, 0, 67, 103
1, 53515, Control_c, 0, 67, 101
1, 53529, Control_c, 0, 67, 99
1, 53534, Note_off_c, 0, 52, 33
1, 53544, Control_c, 0, 67, 98
1, 53559, Control_c, 0, 67, 98
1, 53573, Control_c, 0, 67, 97
1, 53588, Control_c, 0, 64, 66
1, 53588, Control_c, 0, 67, 97
1, 53603, Control_c, 0, 67, 96
1, 53626, Control_c, 0, 64, 65
1, 53626, Control_c, 0, 67, 96
1, 53635, Note_on_c, 0, 67, 52
1, 53641, Control_c, 0, 64, 64
1, 53647, Note_on_c, 0, 47, 33
1, 53652, Note_on_c, 0, 62, 38
1, 53655, Control_c, 0, 64, 63
1, 53659, Note_on_c, 0, 55, 28
1, 53670, Control_c, 0, 64, 61
1, 53670, Control_c, 0, 67, 95
1, 53685, Control_c, 0, 64, 60
1, 53700, Control_c, 0, 64, 58
1, 53700, Control_c, 0, 67, 95
1, 53715, Control_c, 0, 64, 57
1, 53715, Control_c, 0, 67, 94
1, 53729, Control_c, 0, 64, 56
1, 53729, Control_c, 0, 67, 92
1, 53744, Control_c, 0, 64, 55
1, 53744, Control_c, 0, 67, 90
1, 53760, Control_c, 0, 64, 52
1, 53760, Control_c, 0, 67, 89
1, 53775, Control_c, 0, 64, 47
1, 53775, Control_c, 0, 67, 87
1, 53790, Control_c, 0, 64, 40
1, 53790, Control_c, 0, 67, 85
1, 53805, Control_c, 0, 64, 32
1, 53805, Control_c, 0, 67, 83
1, 53820, Control_c, 0, 64, 23
1, 53820, Control_c, 0, 67, 81
1, 53834, Control_c, 0, 64, 0
1, 53834, Control_c, 0, 67, 78
1, 53849, Control_c, 0, 67, 75
1, 53864, Control_c, 0, 67, 72
1, 53878, Control_c, 0, 67, 69
1, 53893, Control_c, 0, 67, 67
1, 53908, Control_c, 0, 67, 64
1, 53923, Control_c, 0, 67, 62
1, 53938, Control_c, 0, 67, 58
1, 53952, Control_c, 0, 67, 55
1, 53967, Control_c, 0, 67, 53
1, 53982, Control_c, 0, 67, 51
1, 53997, Control_c, 0, 67, 50
1, 54012, Control_c, 0, 64, 17
1, 54012, Control_c, 0, 67, 49
1, 54026, Control_c, 0, 64, 25
1, 54026, Control_c, 0, 67, 48
1, 54041, Control_c, 0, 64, 33
1, 54056, Control_c, 0, 64, 39
1, 54070, Control_c, 0, 64, 45
1, 54085, Control_c, 0, 64, 51
1, 54085, Control_c, 0, 67, 49
1, 54100, Control_c, 0, 64, 55
1, 54100, Control_c, 0, 67, 49
1, 54115, Control_c, 0, 64, 59
1, 54115, Control_c, 0, 67, 50
1, 54130, Control_c, 0, 64, 61
1, 54130, Control_c, 0, 67, 53
1, 54145, Control_c, 0, 64, 62
1, 54145, Control_c, 0, 67, 55
1, 54160, Control_c, 0, 64, 63
1, 54160, Control_c, 0, 67, 57
1, 54175, Control_c, 0, 64, 64
1, 54175, Control_c, 0, 67, 59
1, 54190, Control_c, 0, 64, 65
1, 54190, Control_c, 0, 67, 62
1, 54204, Control_c, 0, 64, 66
1, 54204, Control_c, 0, 67, 64
1, 54219, Control_c, 0, 64, 68
1, 54219, Control_c, 0, 67, 67
1, 54234, Control_c, 0, 64, 69
1, 54234, Control_c, 0, 67, 69
1, 54249, Control_c, 0, 64, 70
1, 54249, Control_c, 0, 67, 74
1, 54264, Control_c, 0, 64, 70
1, 54264, Control_c, 0, 67, 79
1, 54278, Control_c, 0, 64, 71
1, 54278, Control_c, 0, 67, 84
1, 54293, Control_c, 0, 64, 71
1, 54293, Control_c, 0, 67, 91
1, 54308, Control_c, 0, 64, 72
1, 54308, Control_c, 0, 67, 98
1, 54323, Control_c, 0, 64, 73
1, 54323, Control_c, 0, 67, 105
1, 54337, Control_c, 0, 64, 74
1, 54337, Control_c, 0, 67, 113
1, 54351, Control_c, 0, 67, 119
1, 54366, Control_c, 0, 67, 123
1, 54389, Control_c, 0, 64, 74
1, 54389, Control_c, 0, 67, 126
1, 54403, Control_c, 0, 67, 127
1, 54418, Control_c, 0, 64, 75
1, 54433, Control_c, 0, 64, 75
1, 54534, Note_off_c, 0, 47, 42
1, 54597, Control_c, 0, 67, 127
1, 54626, Control_c, 0, 67, 126
1, 54641, Control_c, 0, 67, 125
1, 54656, Control_c, 0, 67, 125
1, 54671, Control_c, 0, 67, 124
1, 54745, Control_c, 0, 64, 75
1, 54745, Control_c, 0, 67, 124
1, 54774, Control_c, 0, 64, 74
1, 54804, Control_c, 0, 64, 73
1, 54819, Control_c, 0, 64, 73
1, 54834, Control_c, 0, 64, 72
1, 54848, Control_c, 0, 64, 71
1, 54863, Control_c, 0, 64, 70
1, 54878, Control_c, 0, 64, 69
1, 54884, Note_on_c, 0, 50, 20
1, 54884, Note_on_c, 0, 65, 27
1, 54893, Control_c, 0, 64, 68
1, 54908, Control_c, 0, 64, 66
1, 54923, Control_c, 0, 64, 64
1, 54938, Control_c, 0, 64, 62
1, 54953, Control_c, 0, 64, 60
1, 54967, Control_c, 0, 64, 57
1, 54967, Control_c, 0, 67, 123
1, 54982, Control_c, 0, 64, 53
1, 54997, Control_c, 0, 64, 48
1, 55012, Control_c, 0, 64, 43
1, 55026, Control_c, 0, 64, 38
1, 55041, Control_c, 0, 64, 30
1, 55056, Control_c, 0, 64, 19
1, 55071, Control_c, 0, 64, 0
1, 55167, Control_c, 0, 64, 16
1, 55182, Control_c, 0, 64, 25
1, 55197, Control_c, 0, 64, 34
1, 55212, Control_c, 0, 64, 41
1, 55226, Control_c, 0, 64, 47
1, 55241, Control_c, 0, 64, 54
1, 55256, Control_c, 0, 64, 58
1, 55271, Control_c, 0, 64, 61
1, 55286, Control_c, 0, 64, 63
1, 55300, Control_c, 0, 64, 64
1, 55315, Note_off_c, 0, 67, 41
1, 55315, Control_c, 0, 64, 65
1, 55330, Control_c, 0, 64, 66
1, 55346, Control_c, 0, 64, 67
1, 55361, Control_c, 0, 64, 68
1, 55376, Control_c, 0, 64, 68
1, 55388, Note_off_c, 0, 62, 38
1, 55391, Control_c, 0, 64, 69
1, 55396, Note_off_c, 0, 55, 44
1, 55449, Control_c, 0, 64, 69
1, 55494, Control_c, 0, 67, 123
1, 55515, Note_off_c, 0, 50, 40
1, 55538, Control_c, 0, 67, 122
1, 55597, Control_c, 0, 67, 122
1, 55990, Control_c, 0, 64, 69
1, 56020, Control_c, 0, 64, 68
1, 56050, Control_c, 0, 64, 68
1, 56080, Control_c, 0, 64, 67
1, 56094, Control_c, 0, 64, 67
1, 56109, Control_c, 0, 64, 66
1, 56139, Control_c, 0, 64, 66
1, 56154, Control_c, 0, 64, 65
1, 56157, Note_on_c, 0, 67, 39
1, 56169, Control_c, 0, 64, 64
1, 56184, Control_c, 0, 64, 63
1, 56185, Note_on_c, 0, 55, 26
1, 56190, Note_on_c, 0, 48, 18
1, 56190, Note_on_c, 0, 64, 25
1, 56199, Control_c, 0, 64, 62
1, 56214, Control_c, 0, 64, 60
1, 56229, Control_c, 0, 64, 57
1, 56244, Control_c, 0, 64, 54
1, 56258, Control_c, 0, 64, 50
1, 56261, Note_off_c, 0, 64, 0
1, 56261, Note_on_c, 0, 64, 3
1, 56273, Control_c, 0, 64, 47
1, 56288, Control_c, 0, 64, 43
1, 56288, Note_off_c, 0, 65, 42
1, 56303, Control_c, 0, 64, 39
1, 56318, Control_c, 0, 64, 34
1, 56333, Control_c, 0, 64, 25
1, 56347, Control_c, 0, 64, 15
1, 56362, Control_c, 0, 64, 0
1, 56480, Control_c, 0, 64, 12
1, 56495, Control_c, 0, 64, 22
1, 56510, Control_c, 0, 64, 30
1, 56525, Control_c, 0, 64, 37
1, 56539, Control_c, 0, 64, 43
1, 56554, Control_c, 0, 64, 48
1, 56569, Control_c, 0, 64, 53
1, 56584, Control_c, 0, 64, 57
1, 56598, Control_c, 0, 64, 60
1, 56621, Control_c, 0, 64, 61
1, 56636, Control_c, 0, 64, 62
1, 56740, Control_c, 0, 64, 61
1, 56798, Note_on_c, 0, 69, 35
1, 56798, Control_c, 0, 64, 61
1, 56807, Note_off_c, 0, 67, 35
1, 56828, Control_c, 0, 64, 60
1, 56873, Control_c, 0, 64, 60
1, 56902, Control_c, 0, 64, 59
1, 56917, Control_c, 0, 64, 58
1, 56932, Control_c, 0, 64, 57
1, 56946, Note_on_c, 0, 67, 58
1, 56947, Note_off_c, 0, 69, 58
1, 56948, Control_c, 0, 64, 56
1, 56963, Control_c, 0, 64, 54
1, 56977, Control_c, 0, 64, 53
1, 56992, Control_c, 0, 64, 51
1, 57007, Control_c, 0, 64, 50
1, 57022, Control_c, 0, 64, 49
1, 57036, Control_c, 0, 64, 47
1, 57051, Control_c, 0, 64, 45
1, 57066, Control_c, 0, 64, 43
1, 57081, Control_c, 0, 64, 39
1, 57094, Note_on_c, 0, 66, 63
1, 57096, Control_c, 0, 64, 34
1, 57111, Control_c, 0, 64, 28
1, 57111, Control_c, 0, 67, 122
1, 57117, Note_off_c, 0, 67, 60
1, 57126, Control_c, 0, 64, 19
1, 57126, Control_c, 0, 67, 123
1, 57141, Control_c, 0, 64, 0
1, 57141, Control_c, 0, 67, 123
1, 57156, Control_c, 0, 67, 124
1, 57170, Control_c, 0, 67, 125
1, 57185, Control_c, 0, 67, 125
1, 57200, Control_c, 0, 67, 126
1, 57229, Control_c, 0, 67, 126
1, 57244, Control_c, 0, 67, 127
1, 57260, Note_on_c, 0, 67, 62
1, 57263, Note_off_c, 0, 66, 61
1, 57400, Control_c, 0, 64, 13
1, 57415, Control_c, 0, 64, 29
1, 57429, Control_c, 0, 64, 40
1, 57444, Control_c, 0, 64, 51
1, 57459, Control_c, 0, 64, 60
1, 57474, Control_c, 0, 64, 64
1, 57481, Note_off_c, 0, 64, 51
1, 57489, Control_c, 0, 64, 68
1, 57489, Control_c, 0, 67, 127
1, 57497, Note_off_c, 0, 67, 63
1, 57503, Control_c, 0, 64, 69
1, 57518, Control_c, 0, 64, 70
1, 57533, Control_c, 0, 64, 70
1, 57548, Control_c, 0, 64, 72
1, 57563, Control_c, 0, 64, 73
1, 57577, Control_c, 0, 64, 76
1, 57592, Control_c, 0, 64, 78
1, 57607, Control_c, 0, 64, 79
1, 57681, Control_c, 0, 64, 79
1, 57854, Note_on_c, 0, 88, 61
1, 57867, Note_on_c, 0, 76, 45
1, 57870, Note_on_c, 0, 79, 46
1, 57904, Control_c, 0, 67, 127
1, 57920, Note_off_c, 0, 76, 0
1, 57920, Note_on_c, 0, 76, 3
1, 57934, Control_c, 0, 67, 126
1, 57938, Note_off_c, 0, 79, 0
1, 57938, Note_on_c, 0, 79, 7
1, 57964, Control_c, 0, 67, 126
1, 57978, Control_c, 0, 67, 125
1, 57981, Note_off_c, 0, 76, 56
1, 57987, Note_off_c, 0, 88, 64
1, 57991, Note_off_c, 0, 79, 57
1, 57993, Control_c, 0, 67, 125
1, 58008, Control_c, 0, 67, 124
1, 58038, Control_c, 0, 67, 124
1, 58052, Control_c, 0, 67, 123
1, 58067, Control_c, 0, 67, 123
1, 58081, Control_c, 0, 67, 122
1, 58096, Control_c, 0, 67, 121
1, 58098, Note_off_c, 0, 55, 43
1, 58111, Control_c, 0, 67, 120
1, 58133, Control_c, 0, 67, 120
1, 58148, Control_c, 0, 67, 119
1, 58177, Control_c, 0, 67, 118
1, 58207, Control_c, 0, 67, 117
1, 58222, Control_c, 0, 67, 115
1, 58237, Control_c, 0, 67, 111
1, 58251, Control_c, 0, 67, 108
1, 58266, Control_c, 0, 67, 106
1, 58281, Control_c, 0, 67, 103
1, 58296, Control_c, 0, 67, 102
1, 58311, Control_c, 0, 67, 102
1, 58325, Control_c, 0, 67, 101
1, 58340, Control_c, 0, 67, 100
1, 58355, Control_c, 0, 67, 100
1, 58369, Control_c, 0, 67, 99
1, 58384, Control_c, 0, 67, 99
1, 58399, Control_c, 0, 67, 98
1, 58414, Control_c, 0, 64, 79
1, 58414, Control_c, 0, 67, 98
1, 58429, Control_c, 0, 64, 78
1, 58429, Control_c, 0, 67, 97
1, 58443, Control_c, 0, 64, 77
1, 58443, Control_c, 0, 67, 96
1, 58458, Control_c, 0, 64, 77
1, 58458, Control_c, 0, 67, 95
1, 58473, Control_c, 0, 64, 76
1, 58473, Control_c, 0, 67, 94
1, 58479, Note_on_c, 0, 55, 47
1, 58488, Control_c, 0, 64, 75
1, 58488, Control_c, 0, 67, 94
1, 58492, Note_on_c, 0, 83, 41
1, 58494, Note_on_c, 0, 74, 23
1, 58503, Control_c, 0, 64, 74
1, 58512, Note_on_c, 0, 71, 19
1, 58518, Control_c, 0, 64, 72
1, 58533, Control_c, 0, 64, 70
1, 58533, Control_c, 0, 67, 93
1, 58537, Note_off_c, 0, 48, 39
1, 58548, Control_c, 0, 64, 68
1, 58563, Control_c, 0, 64, 67
1, 58578, Control_c, 0, 64, 65
1, 58592, Control_c, 0, 64, 64
1, 58592, Control_c, 0, 67, 93
1, 58607, Control_c, 0, 64, 63
1, 58622, Control_c, 0, 64, 62
1, 58637, Control_c, 0, 64, 59
1, 58652, Control_c, 0, 64, 56
1, 58667, Control_c, 0, 64, 49
1, 58682, Control_c, 0, 64, 40
1, 58697, Control_c, 0, 64, 25
1, 58697, Control_c, 0, 67, 92
1, 58712, Control_c, 0, 64, 0
1, 58741, Control_c, 0, 67, 92
1, 58756, Control_c, 0, 67, 91
1, 58771, Control_c, 0, 67, 89
1, 58785, Control_c, 0, 67, 88
1, 58800, Control_c, 0, 64, 12
1, 58800, Control_c, 0, 67, 87
1, 58815, Control_c, 0, 64, 27
1, 58815, Control_c, 0, 67, 86
1, 58831, Control_c, 0, 64, 36
1, 58846, Control_c, 0, 64, 43
1, 58846, Control_c, 0, 67, 86
1, 58867, Control_c, 0, 64, 51
1, 58867, Control_c, 0, 67, 85
1, 58882, Control_c, 0, 64, 57
1, 58882, Control_c, 0, 67, 84
1, 58897, Control_c, 0, 64, 61
1, 58897, Control_c, 0, 67, 83
1, 58912, Control_c, 0, 64, 64
1, 58912, Control_c, 0, 67, 83
1, 58927, Control_c, 0, 64, 65
1, 58927, Control_c, 0, 67, 82
1, 58942, Control_c, 0, 64, 66
1, 58942, Control_c, 0, 67, 82
1, 58956, Control_c, 0, 64, 66
1, 58956, Control_c, 0, 67, 81
1, 58971, Control_c, 0, 64, 67
1, 58971, Control_c, 0, 67, 80
1, 58986, Control_c, 0, 64, 69
1, 58986, Control_c, 0, 67, 79
1, 58995, Note_off_c, 0, 71, 45
1, 59001, Control_c, 0, 64, 70
1, 59001, Control_c, 0, 67, 78
1, 59015, Note_off_c, 0, 83, 41
1, 59016, Control_c, 0, 64, 70
1, 59016, Control_c, 0, 67, 78
1, 59018, Note_off_c, 0, 74, 43
1, 59031, Control_c, 0, 64, 71
1, 59031, Control_c, 0, 67, 77
1, 59060, Control_c, 0, 67, 77
1, 59075, Control_c, 0, 64, 71
1, 59101, Note_off_c, 0, 55, 60
1, 59135, Control_c, 0, 67, 76
1, 59253, Control_c, 0, 67, 76
1, 59312, Control_c, 0, 67, 75
1, 59358, Control_c, 0, 67, 74
1, 59372, Control_c, 0, 67, 72
1, 59387, Control_c, 0, 67, 71
1, 59402, Control_c, 0, 67, 70
1, 59431, Control_c, 0, 67, 70
1, 59461, Control_c, 0, 67, 69
1, 59520, Control_c, 0, 64, 72
1, 59602, Note_on_c, 0, 86, 48
1, 59618, Note_on_c, 0, 77, 36
1, 59630, Note_on_c, 0, 74, 30
1, 59645, Control_c, 0, 67, 69
1, 59749, Control_c, 0, 64, 72
1, 59868, Control_c, 0, 64, 73
1, 59996, Note_off_c, 0, 86, 35
1, 60028, Note_off_c, 0, 77, 39
1, 60075, Control_c, 0, 67, 68
1, 60122, Note_off_c, 0, 74, 40
1, 60675, Control_c, 0, 64, 72
1, 60675, Control_c, 0, 67, 68
1, 60690, Control_c, 0, 64, 72
1, 60694, Note_on_c, 0, 84, 38
1, 60705, Control_c, 0, 64, 71
1, 60707, Note_on_c, 0, 55, 33
1, 60719, Control_c, 0, 64, 71
1, 60725, Note_on_c, 0, 76, 32
1, 60726, Note_on_c, 0, 72, 26
1, 60734, Control_c, 0, 64, 70
1, 60749, Control_c, 0, 64, 69
1, 60763, Control_c, 0, 64, 69
1, 60778, Control_c, 0, 64, 68
1, 60793, Control_c, 0, 64, 66
1, 60808, Control_c, 0, 64, 65
1, 60823, Control_c, 0, 64, 63
1, 60837, Control_c, 0, 64, 61
1, 60852, Control_c, 0, 64, 59
1, 60867, Control_c, 0, 64, 55
1, 60882, Control_c, 0, 64, 50
1, 60897, Control_c, 0, 64, 43
1, 60912, Control_c, 0, 64, 33
1, 60927, Control_c, 0, 64, 21
1, 60942, Control_c, 0, 64, 10
1, 60942, Control_c, 0, 67, 66
1, 60957, Control_c, 0, 64, 0
1, 60957, Control_c, 0, 67, 64
1, 60972, Control_c, 0, 67, 63
1, 60986, Control_c, 0, 64, 8
1, 60986, Control_c, 0, 67, 62
1, 61001, Control_c, 0, 64, 20
1, 61016, Control_c, 0, 64, 31
1, 61031, Control_c, 0, 64, 39
1, 61046, Control_c, 0, 64, 48
1, 61061, Control_c, 0, 64, 56
1, 61061, Control_c, 0, 67, 62
1, 61076, Control_c, 0, 64, 62
1, 61090, Control_c, 0, 64, 65
1, 61113, Control_c, 0, 64, 66
1, 61157, Control_c, 0, 64, 67
1, 61216, Control_c, 0, 67, 62
1, 61246, Control_c, 0, 67, 63
1, 61264, Note_on_c, 0, 57, 38
1, 61278, Note_off_c, 0, 55, 41
1, 61365, Control_c, 0, 64, 66
1, 61395, Note_on_c, 0, 55, 51
1, 61409, Control_c, 0, 64, 66
1, 61427, Note_off_c, 0, 57, 47
1, 61439, Control_c, 0, 64, 65
1, 61439, Control_c, 0, 67, 62
1, 61454, Control_c, 0, 64, 65
1, 61468, Control_c, 0, 64, 64
1, 61483, Control_c, 0, 67, 62
1, 61498, Control_c, 0, 64, 64
1, 61513, Control_c, 0, 64, 63
1, 61528, Control_c, 0, 64, 62
1, 61528, Control_c, 0, 67, 61
1, 61541, Note_on_c, 0, 54, 61
1, 61542, Control_c, 0, 64, 61
1, 61553, Note_off_c, 0, 55, 61
1, 61557, Control_c, 0, 64, 59
1, 61557, Control_c, 0, 67, 61
1, 61572, Control_c, 0, 64, 57
1, 61572, Control_c, 0, 67, 59
1, 61586, Control_c, 0, 64, 55
1, 61586, Control_c, 0, 67, 58
1, 61601, Control_c, 0, 64, 53
1, 61601, Control_c, 0, 67, 56
1, 61616, Control_c, 0, 64, 52
1, 61616, Control_c, 0, 67, 55
1, 61631, Control_c, 0, 64, 50
1, 61631, Control_c, 0, 67, 54
1, 61646, Control_c, 0, 64, 48
1, 61646, Control_c, 0, 67, 53
1, 61660, Control_c, 0, 64, 47
1, 61660, Control_c, 0, 67, 53
1, 61675, Control_c, 0, 64, 45
1, 61675, Control_c, 0, 67, 52
1, 61690, Control_c, 0, 64, 43
1, 61690, Control_c, 0, 67, 50
1, 61691, Note_on_c, 0, 55, 60
1, 61705, Control_c, 0, 64, 40
1, 61705, Control_c, 0, 67, 49
1, 61719, Control_c, 0, 64, 37
1, 61719, Control_c, 0, 67, 48
1, 61736, Control_c, 0, 64, 34
1, 61736, Control_c, 0, 67, 48
1, 61751, Control_c, 0, 64, 28
1, 61751, Control_c, 0, 67, 47
1, 61765, Note_off_c, 0, 54, 61
1, 61765, Control_c, 0, 64, 19
1, 61765, Control_c, 0, 67, 46
1, 61780, Control_c, 0, 64, 0
1, 61780, Control_c, 0, 67, 45
1, 61795, Control_c, 0, 67, 43
1, 61809, Control_c, 0, 67, 41
1, 61824, Control_c, 0, 67, 39
1, 61839, Control_c, 0, 67, 37
1, 61854, Control_c, 0, 67, 36
1, 61877, Control_c, 0, 67, 35
1, 61891, Control_c, 0, 67, 34
1, 61906, Control_c, 0, 67, 32
1, 61921, Control_c, 0, 67, 30
1, 61936, Control_c, 0, 67, 27
1, 61951, Control_c, 0, 67, 23
1, 61965, Control_c, 0, 67, 19
1, 61980, Control_c, 0, 64, 14
1, 61980, Control_c, 0, 67, 15
1, 61995, Control_c, 0, 64, 22
1, 61995, Control_c, 0, 67, 12
1, 62009, Control_c, 0, 64, 29
1, 62009, Control_c, 0, 67, 8
1, 62024, Control_c, 0, 64, 35
1, 62024, Control_c, 0, 67, 0
1, 62039, Control_c, 0, 64, 41
1, 62054, Control_c, 0, 64, 46
1, 62069, Control_c, 0, 64, 52
1, 62083, Control_c, 0, 64, 56
1, 62098, Control_c, 0, 64, 59
1, 62113, Control_c, 0, 64, 60
1, 62128, Control_c, 0, 64, 61
1, 62143, Control_c, 0, 64, 61
1, 62158, Control_c, 0, 64, 62
1, 62173, Control_c, 0, 64, 63
1, 62187, Control_c, 0, 64, 63
1, 62202, Control_c, 0, 64, 64
1, 62219, Note_on_c, 0, 64, 60
1, 62232, Control_c, 0, 64, 64
1, 62247, Control_c, 0, 64, 65
1, 62395, Control_c, 0, 64, 65
1, 62407, Note_off_c, 0, 76, 42
1, 62435, Note_off_c, 0, 55, 38
1, 62445, Note_on_c, 0, 48, 48
1, 62556, Note_off_c, 0, 64, 56
1, 62842, Note_on_c, 0, 64, 55
1, 62853, Note_on_c, 0, 79, 53
1, 63016, Note_off_c, 0, 84, 35
1, 63119, Note_off_c, 0, 72, 38
1, 63390, Note_off_c, 0, 79, 55
1, 63438, Note_on_c, 0, 81, 41
1, 63493, Control_c, 0, 64, 65
1, 63556, Note_on_c, 0, 79, 53
1, 63563, Note_off_c, 0, 81, 47
1, 63597, Control_c, 0, 64, 64
1, 63657, Control_c, 0, 64, 64
1, 63678, Note_on_c, 0, 78, 70
1, 63681, Note_off_c, 0, 79, 62
1, 63686, Control_c, 0, 64, 63
1, 63716, Control_c, 0, 64, 63
1, 63745, Control_c, 0, 64, 62
1, 63760, Control_c, 0, 64, 62
1, 63775, Control_c, 0, 64, 61
1, 63789, Control_c, 0, 64, 61
1, 63804, Control_c, 0, 64, 60
1, 63819, Control_c, 0, 64, 60
1, 63834, Control_c, 0, 64, 59
1, 63842, Note_on_c, 0, 79, 62
1, 63849, Control_c, 0, 64, 57
1, 63863, Control_c, 0, 64, 55
1, 63878, Control_c, 0, 64, 52
1, 63893, Note_off_c, 0, 78, 62
1, 63893, Control_c, 0, 64, 47
1, 63908, Control_c, 0, 64, 44
1, 63923, Control_c, 0, 64, 41
1, 63937, Control_c, 0, 64, 38
1, 63952, Control_c, 0, 64, 33
1, 63967, Control_c, 0, 64, 26
1, 63982, Control_c, 0, 64, 0
1, 64086, Control_c, 0, 64, 8
1, 64107, Control_c, 0, 64, 22
1, 64122, Control_c, 0, 64, 31
1, 64139, Control_c, 0, 64, 38
1, 64154, Control_c, 0, 64, 45
1, 64168, Control_c, 0, 64, 52
1, 64183, Control_c, 0, 64, 58
1, 64198, Control_c, 0, 64, 61
1, 64212, Control_c, 0, 64, 63
1, 64227, Control_c, 0, 64, 64
1, 64242, Control_c, 0, 64, 64
1, 64272, Control_c, 0, 64, 65
1, 64286, Control_c, 0, 64, 66
1, 64301, Control_c, 0, 64, 66
1, 64315, Note_off_c, 0, 64, 52
1, 64316, Control_c, 0, 64, 67
1, 64346, Control_c, 0, 64, 67
1, 64374, Note_on_c, 0, 88, 52
1, 64465, Control_c, 0, 64, 68
1, 64486, Note_off_c, 0, 88, 64
1, 64509, Control_c, 0, 64, 68
1, 64538, Control_c, 0, 64, 69
1, 64553, Control_c, 0, 64, 69
1, 64612, Control_c, 0, 64, 70
1, 64642, Control_c, 0, 64, 70
1, 64672, Control_c, 0, 64, 71
1, 64730, Control_c, 0, 64, 71
1, 64834, Control_c, 0, 64, 72
1, 64919, Note_on_c, 0, 88, 50
1, 64936, Note_on_c, 0, 55, 37
1, 65005, Control_c, 0, 64, 72
1, 65109, Control_c, 0, 64, 73
1, 65407, Note_off_c, 0, 55, 54
1, 65430, Note_on_c, 0, 57, 29
1, 65574, Note_on_c, 0, 55, 49
1, 65592, Note_off_c, 0, 57, 42
1, 65680, Control_c, 0, 64, 72
1, 65717, Note_on_c, 0, 54, 59
1, 65724, Control_c, 0, 64, 72
1, 65729, Note_off_c, 0, 55, 64
1, 65740, Control_c, 0, 64, 71
1, 65770, Control_c, 0, 64, 71
1, 65784, Control_c, 0, 64, 70
1, 65799, Control_c, 0, 64, 69
1, 65814, Control_c, 0, 64, 68
1, 65829, Control_c, 0, 64, 66
1, 65844, Control_c, 0, 64, 64
1, 65858, Control_c, 0, 64, 62
1, 65867, Note_on_c, 0, 55, 62
1, 65873, Control_c, 0, 64, 60
1, 65888, Control_c, 0, 64, 57
1, 65903, Control_c, 0, 64, 52
1, 65908, Note_off_c, 0, 54, 61
1, 65918, Control_c, 0, 64, 47
1, 65932, Control_c, 0, 64, 40
1, 65947, Control_c, 0, 64, 28
1, 65962, Control_c, 0, 64, 0
1, 66081, Control_c, 0, 64, 24
1, 66095, Control_c, 0, 64, 35
1, 66110, Control_c, 0, 64, 45
1, 66125, Control_c, 0, 64, 55
1, 66140, Control_c, 0, 64, 61
1, 66155, Control_c, 0, 64, 65
1, 66170, Control_c, 0, 64, 68
1, 66176, Note_off_c, 0, 48, 41
1, 66184, Control_c, 0, 64, 69
1, 66199, Control_c, 0, 64, 71
1, 66214, Control_c, 0, 64, 73
1, 66229, Control_c, 0, 64, 76
1, 66244, Control_c, 0, 64, 78
1, 66258, Control_c, 0, 64, 79
1, 66273, Control_c, 0, 64, 80
1, 66288, Control_c, 0, 64, 81
1, 66302, Control_c, 0, 64, 83
1, 66370, Control_c, 0, 64, 83
1, 66378, Note_on_c, 0, 64, 57
1, 66384, Control_c, 0, 64, 84
1, 66450, Note_off_c, 0, 64, 63
1, 66599, Note_on_c, 0, 47, 47
1, 66611, Note_off_c, 0, 79, 36
1, 66716, Note_off_c, 0, 47, 55
1, 66935, Note_on_c, 0, 64, 55
1, 66946, Note_on_c, 0, 79, 49
1, 67002, Note_off_c, 0, 88, 42
1, 67128, Note_off_c, 0, 79, 61
1, 67530, Note_on_c, 0, 81, 43
1, 67668, Note_on_c, 0, 79, 60
1, 67683, Note_off_c, 0, 81, 46
1, 67786, Control_c, 0, 64, 83
1, 67798, Note_on_c, 0, 78, 65
1, 67815, Note_off_c, 0, 79, 55
1, 67815, Control_c, 0, 64, 83
1, 67852, Control_c, 0, 64, 82
1, 67867, Control_c, 0, 64, 81
1, 67881, Control_c, 0, 64, 80
1, 67896, Control_c, 0, 64, 79
1, 67911, Control_c, 0, 64, 78
1, 67926, Control_c, 0, 64, 77
1, 67941, Control_c, 0, 64, 75
1, 67947, Note_on_c, 0, 79, 61
1, 67956, Control_c, 0, 64, 72
1, 67970, Control_c, 0, 64, 69
1, 67985, Control_c, 0, 64, 67
1, 67994, Note_off_c, 0, 78, 55
1, 68000, Control_c, 0, 64, 65
1, 68015, Control_c, 0, 64, 63
1, 68030, Control_c, 0, 64, 62
1, 68045, Control_c, 0, 64, 60
1, 68060, Control_c, 0, 64, 55
1, 68074, Control_c, 0, 64, 49
1, 68089, Control_c, 0, 64, 41
1, 68104, Control_c, 0, 64, 38
1, 68134, Control_c, 0, 64, 39
1, 68149, Control_c, 0, 64, 40
1, 68164, Control_c, 0, 64, 42
1, 68179, Control_c, 0, 64, 45
1, 68194, Control_c, 0, 64, 51
1, 68209, Control_c, 0, 64, 57
1, 68224, Control_c, 0, 64, 61
1, 68239, Control_c, 0, 64, 63
1, 68253, Control_c, 0, 64, 64
1, 68268, Control_c, 0, 64, 64
1, 68283, Control_c, 0, 64, 65
1, 68298, Control_c, 0, 64, 66
1, 68313, Control_c, 0, 64, 66
1, 68327, Control_c, 0, 64, 67
1, 68342, Control_c, 0, 64, 68
1, 68352, Note_off_c, 0, 64, 60
1, 68357, Control_c, 0, 64, 68
1, 68372, Control_c, 0, 64, 69
1, 68398, Note_off_c, 0, 55, 63
1, 68416, Control_c, 0, 64, 69
1, 68453, Note_on_c, 0, 88, 54
1, 68460, Control_c, 0, 64, 70
1, 68518, Note_off_c, 0, 88, 63
1, 68867, Control_c, 0, 64, 69
1, 68927, Control_c, 0, 64, 69
1, 68957, Control_c, 0, 64, 68
1, 68972, Control_c, 0, 64, 68
1, 68972, Note_on_c, 0, 55, 46
1, 68982, Note_on_c, 0, 88, 51
1, 68987, Control_c, 0, 64, 67
1, 69001, Control_c, 0, 64, 67
1, 69016, Control_c, 0, 64, 66
1, 69031, Control_c, 0, 64, 65
1, 69046, Control_c, 0, 64, 64
1, 69061, Control_c, 0, 64, 63
1, 69075, Control_c, 0, 64, 61
1, 69090, Control_c, 0, 64, 60
1, 69105, Control_c, 0, 64, 58
1, 69120, Control_c, 0, 64, 56
1, 69134, Control_c, 0, 64, 52
1, 69149, Control_c, 0, 64, 46
1, 69164, Control_c, 0, 64, 40
1, 69179, Control_c, 0, 64, 38
1, 69194, Control_c, 0, 64, 38
1, 69208, Control_c, 0, 64, 41
1, 69223, Control_c, 0, 64, 45
1, 69238, Control_c, 0, 64, 52
1, 69253, Control_c, 0, 64, 57
1, 69268, Control_c, 0, 64, 61
1, 69282, Control_c, 0, 64, 63
1, 69297, Control_c, 0, 64, 64
1, 69512, Note_off_c, 0, 55, 63
1, 69513, Control_c, 0, 64, 63
1, 69520, Note_on_c, 0, 57, 42
1, 69542, Control_c, 0, 64, 63
1, 69601, Control_c, 0, 64, 62
1, 69631, Control_c, 0, 64, 62
1, 69640, Note_on_c, 0, 55, 65
1, 69659, Note_off_c, 0, 57, 51
1, 69661, Control_c, 0, 64, 61
1, 69675, Control_c, 0, 64, 61
1, 69690, Control_c, 0, 64, 60
1, 69705, Control_c, 0, 64, 59
1, 69721, Control_c, 0, 64, 58
1, 69736, Control_c, 0, 64, 57
1, 69750, Control_c, 0, 64, 56
1, 69765, Control_c, 0, 64, 55
1, 69780, Control_c, 0, 64, 53
1, 69783, Note_on_c, 0, 54, 70
1, 69795, Control_c, 0, 64, 52
1, 69805, Note_off_c, 0, 55, 64
1, 69810, Control_c, 0, 64, 50
1, 69825, Control_c, 0, 64, 49
1, 69839, Control_c, 0, 64, 47
1, 69854, Control_c, 0, 64, 46
1, 69869, Control_c, 0, 64, 44
1, 69884, Control_c, 0, 64, 43
1, 69899, Control_c, 0, 64, 41
1, 69914, Control_c, 0, 64, 38
1, 69929, Control_c, 0, 64, 35
1, 69939, Note_on_c, 0, 55, 61
1, 69944, Control_c, 0, 64, 29
1, 69958, Control_c, 0, 64, 19
1, 69973, Control_c, 0, 64, 0
1, 70000, Note_off_c, 0, 54, 63
1, 70158, Control_c, 0, 64, 25
1, 70173, Control_c, 0, 64, 31
1, 70188, Control_c, 0, 64, 39
1, 70191, Note_off_c, 0, 79, 58
1, 70203, Control_c, 0, 64, 47
1, 70218, Control_c, 0, 64, 55
1, 70232, Control_c, 0, 64, 59
1, 70247, Control_c, 0, 64, 62
1, 70262, Control_c, 0, 64, 62
1, 70291, Control_c, 0, 64, 63
1, 70306, Control_c, 0, 64, 63
1, 70321, Control_c, 0, 64, 64
1, 70336, Control_c, 0, 64, 65
1, 70350, Control_c, 0, 64, 66
1, 70424, Control_c, 0, 64, 66
1, 70444, Note_on_c, 0, 64, 57
1, 70445, Note_on_c, 0, 79, 64
1, 70491, Note_off_c, 0, 64, 61
1, 70529, Control_c, 0, 64, 67
1, 70573, Control_c, 0, 64, 67
1, 70603, Control_c, 0, 64, 68
1, 70618, Control_c, 0, 64, 68
1, 70633, Control_c, 0, 64, 69
1, 70665, Note_on_c, 0, 46, 60
1, 70677, Control_c, 0, 64, 69
1, 70722, Note_off_c, 0, 79, 50
1, 70722, Control_c, 0, 64, 70
1, 70752, Control_c, 0, 64, 70
1, 70767, Note_off_c, 0, 46, 64
1, 70781, Control_c, 0, 64, 71
1, 70796, Control_c, 0, 64, 71
1, 70892, Control_c, 0, 64, 72
1, 71069, Note_on_c, 0, 64, 59
1, 71084, Note_on_c, 0, 79, 57
1, 71139, Note_off_c, 0, 55, 44
1, 71229, Note_off_c, 0, 88, 36
1, 71273, Note_off_c, 0, 79, 54
1, 71704, Note_on_c, 0, 61, 60
1, 72176, Note_on_c, 0, 58, 51
1, 72359, Control_c, 0, 64, 72
1, 72424, Note_on_c, 0, 81, 54
1, 72472, Note_off_c, 0, 81, 62
1, 72501, Note_on_c, 0, 79, 58
1, 72561, Note_off_c, 0, 79, 62
1, 72572, Note_on_c, 0, 78, 69
1, 72584, Note_off_c, 0, 64, 61
1, 72598, Note_on_c, 0, 55, 47
1, 72656, Control_c, 0, 64, 73
1, 72683, Note_off_c, 0, 61, 63
1, 72691, Note_off_c, 0, 78, 64
1, 72696, Note_on_c, 0, 79, 70
1, 72715, Control_c, 0, 64, 73
1, 72747, Note_off_c, 0, 58, 61
1, 72835, Note_off_c, 0, 55, 65
1, 72870, Note_on_c, 0, 88, 78
1, 72937, Note_off_c, 0, 88, 64
1, 73123, Control_c, 0, 64, 73
1, 73138, Control_c, 0, 64, 72
1, 73140, Note_on_c, 0, 54, 44
1, 73152, Note_on_c, 0, 45, 41
1, 73153, Control_c, 0, 64, 71
1, 73168, Control_c, 0, 64, 70
1, 73181, Note_on_c, 0, 88, 62
1, 73182, Control_c, 0, 64, 68
1, 73197, Control_c, 0, 64, 67
1, 73212, Control_c, 0, 64, 65
1, 73227, Control_c, 0, 64, 62
1, 73242, Control_c, 0, 64, 57
1, 73256, Control_c, 0, 64, 45
1, 73262, Note_off_c, 0, 79, 61
1, 73271, Control_c, 0, 64, 21
1, 73286, Control_c, 0, 64, 0
1, 73375, Control_c, 0, 64, 11
1, 73390, Control_c, 0, 64, 30
1, 73405, Control_c, 0, 64, 41
1, 73420, Control_c, 0, 64, 52
1, 73434, Control_c, 0, 64, 60
1, 73443, Note_off_c, 0, 45, 51
1, 73449, Control_c, 0, 64, 65
1, 73464, Note_off_c, 0, 54, 64
1, 73464, Control_c, 0, 64, 68
1, 73493, Control_c, 0, 64, 68
1, 73508, Control_c, 0, 64, 69
1, 73523, Control_c, 0, 64, 69
1, 73538, Control_c, 0, 64, 71
1, 73553, Control_c, 0, 64, 73
1, 73567, Control_c, 0, 64, 74
1, 73597, Control_c, 0, 64, 74
1, 73654, Note_off_c, 0, 88, 59
1, 73672, Note_on_c, 0, 87, 59
1, 73685, Control_c, 0, 64, 75
1, 73698, Note_on_c, 0, 57, 46
1, 73700, Note_on_c, 0, 78, 38
1, 73710, Note_on_c, 0, 84, 36
1, 73760, Note_off_c, 0, 84, 45
1, 73764, Note_off_c, 0, 78, 49
1, 73773, Note_off_c, 0, 87, 63
1, 73805, Control_c, 0, 64, 75
1, 73872, Control_c, 0, 64, 76
1, 73887, Control_c, 0, 64, 76
1, 73946, Control_c, 0, 64, 77
1, 74232, Note_on_c, 0, 75, 49
1, 74233, Note_on_c, 0, 60, 46
1, 74249, Note_on_c, 0, 69, 36
1, 74255, Note_on_c, 0, 66, 33
1, 74382, Note_off_c, 0, 75, 57
1, 74392, Note_off_c, 0, 69, 56
1, 74403, Note_off_c, 0, 66, 38
1, 74420, Control_c, 0, 64, 77
1, 74464, Control_c, 0, 64, 78
1, 74510, Control_c, 0, 64, 78
1, 74539, Control_c, 0, 64, 79
1, 74591, Control_c, 0, 64, 79
1, 74743, Note_on_c, 0, 63, 53
1, 74769, Control_c, 0, 67, 9
1, 74784, Control_c, 0, 67, 11
1, 74788, Note_off_c, 0, 57, 36
1, 74799, Control_c, 0, 67, 14
1, 74814, Control_c, 0, 67, 17
1, 74824, Note_off_c, 0, 60, 64
1, 74828, Control_c, 0, 67, 20
1, 74830, Note_off_c, 0, 63, 64
1, 74843, Control_c, 0, 67, 24
1, 74858, Control_c, 0, 67, 29
1, 74872, Control_c, 0, 67, 32
1, 74887, Control_c, 0, 67, 36
1, 74902, Control_c, 0, 67, 40
1, 74917, Control_c, 0, 67, 44
1, 74932, Control_c, 0, 67, 47
1, 74946, Control_c, 0, 67, 51
1, 74961, Control_c, 0, 67, 57
1, 74976, Control_c, 0, 67, 64
1, 74986, Note_on_c, 0, 65, 46
1, 74991, Control_c, 0, 64, 79
1, 74991, Control_c, 0, 67, 71
1, 75006, Control_c, 0, 67, 80
1, 75020, Control_c, 0, 64, 78
1, 75020, Control_c, 0, 67, 88
1, 75035, Control_c, 0, 64, 77
1, 75035, Control_c, 0, 67, 96
1, 75050, Control_c, 0, 64, 76
1, 75050, Control_c, 0, 67, 105
1, 75065, Control_c, 0, 64, 75
1, 75065, Control_c, 0, 67, 115
1, 75073, Note_on_c, 0, 44, 37
1, 75080, Control_c, 0, 64, 72
1, 75080, Control_c, 0, 67, 125
1, 75095, Control_c, 0, 64, 67
1, 75095, Control_c, 0, 67, 127
1, 75102, Note_on_c, 0, 71, 46
1, 75110, Control_c, 0, 64, 60
1, 75125, Control_c, 0, 64, 46
1, 75139, Control_c, 0, 64, 19
1, 75154, Control_c, 0, 64, 0
1, 75181, Note_on_c, 0, 74, 45
1, 75184, Control_c, 0, 64, 21
1, 75199, Control_c, 0, 64, 37
1, 75211, Note_off_c, 0, 44, 61
1, 75213, Control_c, 0, 64, 48
1, 75228, Control_c, 0, 64, 57
1, 75243, Control_c, 0, 64, 62
1, 75257, Control_c, 0, 64, 64
1, 75272, Control_c, 0, 64, 65
1, 75301, Control_c, 0, 64, 65
1, 75317, Control_c, 0, 64, 66
1, 75339, Control_c, 0, 64, 68
1, 75354, Control_c, 0, 64, 69
1, 75369, Control_c, 0, 64, 70
1, 75376, Note_on_c, 0, 62, 55
1, 75384, Control_c, 0, 64, 71
1, 75394, Note_on_c, 0, 77, 59
1, 75399, Control_c, 0, 64, 71
1, 75429, Control_c, 0, 64, 72
1, 75443, Control_c, 0, 64, 72
1, 75458, Control_c, 0, 64, 73
1, 75463, Note_off_c, 0, 65, 36
1, 75472, Note_off_c, 0, 71, 45
1, 75473, Control_c, 0, 64, 73
1, 75473, Note_off_c, 0, 74, 35
1, 75525, Note_off_c, 0, 77, 61
1, 75532, Control_c, 0, 64, 74
1, 75562, Control_c, 0, 64, 74
1, 75927, Note_on_c, 0, 59, 50
1, 75932, Control_c, 0, 64, 74
1, 75991, Control_c, 0, 64, 73
1, 76021, Control_c, 0, 64, 73
1, 76118, Control_c, 0, 64, 72
1, 76178, Control_c, 0, 64, 72
1, 76207, Control_c, 0, 64, 71
1, 76266, Control_c, 0, 64, 71
1, 76296, Control_c, 0, 64, 70
1, 76311, Control_c, 0, 64, 70
1, 76341, Control_c, 0, 64, 69
1, 76356, Control_c, 0, 64, 69
1, 76385, Control_c, 0, 64, 68
1, 76400, Control_c, 0, 64, 68
1, 76419, Note_on_c, 0, 56, 49
1, 76445, Control_c, 0, 64, 67
1, 76504, Control_c, 0, 64, 67
1, 76563, Control_c, 0, 64, 66
1, 76607, Control_c, 0, 64, 66
1, 76656, Note_on_c, 0, 79, 47
1, 76666, Control_c, 0, 64, 65
1, 76679, Note_off_c, 0, 79, 62
1, 76696, Control_c, 0, 64, 65
1, 76719, Note_on_c, 0, 77, 51
1, 76740, Control_c, 0, 64, 64
1, 76758, Note_off_c, 0, 77, 55
1, 76770, Control_c, 0, 64, 64
1, 76796, Note_on_c, 0, 76, 54
1, 76800, Control_c, 0, 64, 63
1, 76830, Control_c, 0, 64, 63
1, 76866, Control_c, 0, 64, 62
1, 76881, Control_c, 0, 64, 61
1, 76884, Note_on_c, 0, 53, 44
1, 76892, Note_on_c, 0, 77, 62
1, 76896, Control_c, 0, 64, 58
1, 76898, Note_off_c, 0, 76, 52
1, 76911, Control_c, 0, 64, 51
1, 76927, Control_c, 0, 64, 38
1, 76941, Control_c, 0, 64, 19
1, 76956, Control_c, 0, 64, 0
1, 76986, Control_c, 0, 64, 22
1, 77001, Control_c, 0, 64, 34
1, 77015, Control_c, 0, 64, 43
1, 77030, Control_c, 0, 64, 52
1, 77045, Control_c, 0, 64, 58
1, 77059, Control_c, 0, 64, 62
1, 77071, Note_off_c, 0, 62, 63
1, 77074, Control_c, 0, 64, 64
1, 77082, Note_off_c, 0, 59, 61
1, 77107, Note_off_c, 0, 56, 66
1, 77110, Note_off_c, 0, 53, 63
1, 77134, Control_c, 0, 64, 64
1, 77151, Note_on_c, 0, 86, 65
1, 77223, Note_off_c, 0, 86, 62
1, 77371, Control_c, 0, 64, 64
1, 77401, Control_c, 0, 64, 63
1, 77415, Control_c, 0, 64, 62
1, 77430, Control_c, 0, 64, 61
1, 77441, Note_on_c, 0, 52, 45
1, 77445, Control_c, 0, 64, 60
1, 77447, Note_on_c, 0, 86, 48
1, 77451, Note_on_c, 0, 43, 34
1, 77459, Control_c, 0, 64, 55
1, 77474, Control_c, 0, 64, 49
1, 77489, Control_c, 0, 64, 37
1, 77504, Control_c, 0, 64, 0
1, 77512, Note_off_c, 0, 77, 61
1, 77630, Control_c, 0, 64, 18
1, 77645, Control_c, 0, 64, 31
1, 77660, Control_c, 0, 64, 40
1, 77674, Control_c, 0, 64, 50
1, 77689, Control_c, 0, 64, 58
1, 77704, Control_c, 0, 64, 63
1, 77720, Control_c, 0, 64, 65
1, 77735, Control_c, 0, 64, 66
1, 77748, Note_off_c, 0, 52, 66
1, 77751, Note_off_c, 0, 43, 38
1, 77764, Control_c, 0, 64, 66
1, 77779, Control_c, 0, 64, 67
1, 77794, Control_c, 0, 64, 68
1, 77809, Control_c, 0, 64, 68
1, 77824, Control_c, 0, 64, 69
1, 77838, Control_c, 0, 64, 69
1, 77912, Control_c, 0, 64, 70
1, 77978, Note_on_c, 0, 85, 56
1, 77995, Note_on_c, 0, 55, 42
1, 77998, Note_on_c, 0, 79, 42
1, 78004, Note_on_c, 0, 76, 38
1, 78047, Note_off_c, 0, 86, 55
1, 78055, Note_off_c, 0, 76, 46
1, 78091, Note_off_c, 0, 79, 46
1, 78107, Note_off_c, 0, 85, 64
1, 78544, Note_on_c, 0, 73, 49
1, 78554, Note_on_c, 0, 58, 36
1, 78567, Note_on_c, 0, 64, 37
1, 78576, Note_on_c, 0, 67, 37
1, 78729, Note_off_c, 0, 64, 40
1, 78750, Note_off_c, 0, 73, 55
1, 78773, Note_off_c, 0, 67, 42
1, 78839, Control_c, 0, 67, 125
1, 78854, Control_c, 0, 67, 119
1, 78869, Control_c, 0, 67, 113
1, 78883, Control_c, 0, 67, 106
1, 78898, Control_c, 0, 67, 99
1, 78913, Control_c, 0, 67, 92
1, 78928, Control_c, 0, 67, 87
1, 78943, Control_c, 0, 67, 80
1, 78958, Control_c, 0, 67, 74
1, 78973, Control_c, 0, 67, 69
1, 78987, Control_c, 0, 67, 66
1, 79002, Control_c, 0, 67, 64
1, 79017, Control_c, 0, 67, 62
1, 79031, Control_c, 0, 67, 60
1, 79046, Control_c, 0, 67, 59
1, 79061, Control_c, 0, 67, 57
1, 79083, Control_c, 0, 67, 57
1, 79098, Control_c, 0, 67, 56
1, 79101, Note_on_c, 0, 61, 50
1, 79113, Control_c, 0, 67, 55
1, 79120, Note_off_c, 0, 55, 36
1, 79143, Control_c, 0, 64, 70
1, 79158, Control_c, 0, 67, 55
1, 79174, Note_off_c, 0, 61, 65
1, 79188, Note_off_c, 0, 58, 43
1, 79232, Control_c, 0, 67, 54
1, 79261, Control_c, 0, 67, 54
1, 79276, Control_c, 0, 67, 53
1, 79291, Control_c, 0, 67, 52
1, 79307, Control_c, 0, 67, 51
1, 79322, Control_c, 0, 67, 49
1, 79330, Note_on_c, 0, 63, 50
1, 79351, Control_c, 0, 67, 49
1, 79366, Control_c, 0, 64, 70
1, 79381, Control_c, 0, 64, 69
1, 79381, Control_c, 0, 67, 48
1, 79396, Control_c, 0, 64, 68
1, 79396, Control_c, 0, 67, 46
1, 79410, Note_on_c, 0, 42, 46
1, 79410, Control_c, 0, 64, 66
1, 79410, Control_c, 0, 67, 45
1, 79425, Control_c, 0, 64, 63
1, 79425, Control_c, 0, 67, 44
1, 79440, Control_c, 0, 64, 56
1, 79440, Control_c, 0, 67, 42
1, 79455, Control_c, 0, 64, 40
1, 79455, Control_c, 0, 67, 41
1, 79469, Control_c, 0, 64, 0
1, 79469, Control_c, 0, 67, 40
1, 79484, Control_c, 0, 67, 37
1, 79499, Control_c, 0, 67, 35
1, 79514, Control_c, 0, 67, 34
1, 79529, Control_c, 0, 67, 34
1, 79543, Control_c, 0, 64, 23
1, 79543, Control_c, 0, 67, 33
1, 79558, Control_c, 0, 64, 37
1, 79565, Note_off_c, 0, 42, 61
1, 79573, Control_c, 0, 64, 47
1, 79588, Control_c, 0, 64, 54
1, 79603, Control_c, 0, 64, 59
1, 79617, Control_c, 0, 64, 61
1, 79632, Control_c, 0, 64, 62
1, 79647, Control_c, 0, 64, 63
1, 79647, Control_c, 0, 67, 33
1, 79662, Control_c, 0, 64, 64
1, 79676, Control_c, 0, 64, 66
1, 79691, Control_c, 0, 64, 67
1, 79691, Control_c, 0, 67, 32
1, 79706, Control_c, 0, 64, 67
1, 79721, Control_c, 0, 64, 68
1, 79721, Control_c, 0, 67, 32
1, 79736, Control_c, 0, 67, 31
1, 79751, Note_on_c, 0, 60, 42
1, 79751, Control_c, 0, 64, 69
1, 79751, Control_c, 0, 67, 30
1, 79754, Note_on_c, 0, 75, 57
1, 79766, Control_c, 0, 64, 69
1, 79766, Control_c, 0, 67, 27
1, 79781, Control_c, 0, 67, 25
1, 79796, Control_c, 0, 64, 70
1, 79796, Control_c, 0, 67, 23
1, 79810, Control_c, 0, 67, 22
1, 79825, Control_c, 0, 67, 20
1, 79847, Control_c, 0, 67, 19
1, 79861, Control_c, 0, 67, 17
1, 79876, Control_c, 0, 67, 14
1, 79891, Control_c, 0, 67, 11
1, 79906, Control_c, 0, 64, 70
1, 79906, Control_c, 0, 67, 9
1, 79914, Note_off_c, 0, 63, 51
1, 79921, Control_c, 0, 67, 0
1, 79936, Control_c, 0, 64, 71
1, 79951, Control_c, 0, 64, 71
1, 79980, Note_off_c, 0, 75, 60
1, 80010, Control_c, 0, 64, 72
1, 80040, Control_c, 0, 64, 72
1, 80174, Control_c, 0, 64, 73
1, 80248, Control_c, 0, 64, 73
1, 80296, Note_on_c, 0, 57, 51
1, 80322, Control_c, 0, 64, 74
1, 80484, Control_c, 0, 64, 74
1, 80529, Control_c, 0, 64, 75
1, 80625, Control_c, 0, 64, 75
1, 80788, Note_on_c, 0, 54, 54
1, 80914, Note_on_c, 0, 83, 49
1, 81035, Note_on_c, 0, 81, 67
1, 81080, Note_off_c, 0, 83, 64
1, 81125, Note_on_c, 0, 80, 69
1, 81146, Note_off_c, 0, 81, 57
1, 81269, Note_on_c, 0, 51, 55
1, 81271, Note_on_c, 0, 81, 71
1, 81314, Note_off_c, 0, 80, 62
1, 81335, Note_off_c, 0, 60, 62
1, 81411, Note_off_c, 0, 57, 61
1, 81420, Note_off_c, 0, 54, 63
1, 81454, Note_on_c, 0, 72, 67
1, 81462, Note_off_c, 0, 51, 64
1, 81631, Note_on_c, 0, 84, 76
1, 81701, Control_c, 0, 64, 75
1, 81725, Note_off_c, 0, 84, 61
1, 81775, Control_c, 0, 64, 74
1, 81805, Control_c, 0, 64, 74
1, 81820, Control_c, 0, 64, 73
1, 81835, Control_c, 0, 64, 72
1, 81849, Control_c, 0, 64, 71
1, 81851, Note_on_c, 0, 50, 48
1, 81864, Control_c, 0, 64, 69
1, 81874, Note_on_c, 0, 41, 37
1, 81879, Control_c, 0, 64, 68
1, 81894, Control_c, 0, 64, 66
1, 81909, Control_c, 0, 64, 65
1, 81923, Control_c, 0, 64, 63
1, 81931, Note_on_c, 0, 84, 69
1, 81938, Control_c, 0, 64, 60
1, 81953, Control_c, 0, 64, 55
1, 81968, Control_c, 0, 64, 43
1, 81983, Control_c, 0, 64, 12
1, 81987, Note_off_c, 0, 81, 57
1, 81997, Control_c, 0, 64, 0
1, 82057, Note_off_c, 0, 72, 63
1, 82079, Control_c, 0, 64, 9
1, 82094, Control_c, 0, 64, 32
1, 82109, Control_c, 0, 64, 45
1, 82124, Control_c, 0, 64, 56
1, 82138, Control_c, 0, 64, 64
1, 82151, Note_off_c, 0, 41, 55
1, 82153, Control_c, 0, 64, 69
1, 82168, Control_c, 0, 64, 71
1, 82192, Note_off_c, 0, 50, 64
1, 82212, Control_c, 0, 64, 72
1, 82227, Control_c, 0, 64, 73
1, 82242, Control_c, 0, 64, 75
1, 82256, Control_c, 0, 64, 77
1, 82271, Control_c, 0, 64, 78
1, 82286, Control_c, 0, 64, 80
1, 82301, Control_c, 0, 64, 80
1, 82345, Control_c, 0, 64, 81
1, 82360, Control_c, 0, 64, 81
1, 82425, Note_on_c, 0, 83, 72
1, 82433, Note_on_c, 0, 80, 54
1, 82437, Note_on_c, 0, 53, 48
1, 82440, Note_on_c, 0, 74, 38
1, 82465, Note_off_c, 0, 84, 61
1, 82496, Note_off_c, 0, 74, 61
1, 82532, Note_off_c, 0, 80, 55
1, 82571, Note_off_c, 0, 83, 65
1, 82598, Control_c, 0, 64, 82
1, 82657, Control_c, 0, 64, 82
1, 82672, Control_c, 0, 64, 83
1, 82746, Control_c, 0, 64, 83
1, 82791, Control_c, 0, 64, 84
1, 82972, Note_on_c, 0, 56, 52
1, 82972, Note_on_c, 0, 71, 69
1, 82983, Note_on_c, 0, 65, 50
1, 82996, Note_on_c, 0, 62, 46
1, 83195, Note_off_c, 0, 62, 58
1, 83200, Note_off_c, 0, 71, 65
1, 83227, Note_off_c, 0, 65, 63
1, 83520, Note_on_c, 0, 59, 67
1, 83558, Note_off_c, 0, 53, 61
1, 83635, Control_c, 0, 64, 83
1, 83674, Note_off_c, 0, 59, 63
1, 83700, Note_off_c, 0, 56, 65
1, 83710, Control_c, 0, 64, 83
1, 83932, Control_c, 0, 64, 82
1, 84021, Control_c, 0, 64, 82
1, 84095, Control_c, 0, 64, 81
1, 84111, Control_c, 0, 64, 81
1, 84125, Control_c, 0, 64, 80
1, 84140, Control_c, 0, 64, 79
1, 84155, Control_c, 0, 64, 78
1, 84170, Control_c, 0, 64, 76
1, 84184, Note_on_c, 0, 50, 60
1, 84185, Control_c, 0, 64, 75
1, 84189, Note_on_c, 0, 83, 59
1, 84192, Note_on_c, 0, 80, 51
1, 84199, Control_c, 0, 64, 72
1, 84201, Note_on_c, 0, 71, 49
1, 84203, Note_on_c, 0, 40, 44
1, 84214, Control_c, 0, 64, 70
1, 84229, Control_c, 0, 64, 67
1, 84244, Control_c, 0, 64, 63
1, 84258, Control_c, 0, 64, 57
1, 84273, Control_c, 0, 64, 40
1, 84288, Control_c, 0, 64, 0
1, 84385, Control_c, 0, 64, 12
1, 84400, Control_c, 0, 64, 30
1, 84414, Control_c, 0, 64, 41
1, 84429, Control_c, 0, 64, 54
1, 84444, Control_c, 0, 64, 61
1, 84458, Control_c, 0, 64, 66
1, 84473, Control_c, 0, 64, 69
1, 84488, Control_c, 0, 64, 72
1, 84503, Note_off_c, 0, 40, 54
1, 84503, Control_c, 0, 64, 74
1, 84518, Control_c, 0, 64, 75
1, 84532, Control_c, 0, 64, 78
1, 84538, Note_off_c, 0, 50, 63
1, 84547, Control_c, 0, 64, 79
1, 84562, Control_c, 0, 64, 80
1, 84577, Control_c, 0, 64, 83
1, 84592, Control_c, 0, 64, 87
1, 84607, Control_c, 0, 64, 91
1, 84622, Control_c, 0, 64, 94
1, 84637, Control_c, 0, 64, 96
1, 84651, Control_c, 0, 64, 96
1, 84681, Control_c, 0, 64, 97
1, 84696, Control_c, 0, 64, 99
1, 84711, Control_c, 0, 64, 100
1, 84720, Note_off_c, 0, 83, 34
1, 84725, Control_c, 0, 64, 101
1, 84753, Note_on_c, 0, 52, 70
1, 84783, Note_off_c, 0, 71, 63
1, 84799, Control_c, 0, 64, 101
1, 84822, Note_off_c, 0, 80, 62
1, 85263, Note_on_c, 0, 83, 66
1, 85266, Control_c, 0, 64, 101
1, 85273, Note_on_c, 0, 74, 51
1, 85275, Note_on_c, 0, 71, 57
1, 85278, Note_on_c, 0, 56, 65
1, 85281, Control_c, 0, 64, 100
1, 85295, Control_c, 0, 64, 100
1, 85310, Control_c, 0, 64, 99
1, 85325, Control_c, 0, 64, 99
1, 85340, Control_c, 0, 64, 98
1, 85355, Control_c, 0, 64, 97
1, 85370, Control_c, 0, 64, 97
1, 85385, Control_c, 0, 64, 96
1, 85399, Control_c, 0, 64, 96
1, 85414, Control_c, 0, 64, 95
1, 85778, Note_on_c, 0, 59, 66
1, 85870, Note_off_c, 0, 52, 49
1, 85892, Note_off_c, 0, 59, 62
1, 85920, Note_off_c, 0, 56, 66
1, 86222, Control_c, 0, 64, 95
1, 86237, Control_c, 0, 64, 94
1, 86252, Control_c, 0, 64, 93
1, 86267, Control_c, 0, 64, 92
1, 86282, Control_c, 0, 64, 90
1, 86296, Control_c, 0, 64, 88
1, 86311, Control_c, 0, 64, 86
1, 86326, Control_c, 0, 64, 84
1, 86341, Control_c, 0, 64, 81
1, 86356, Control_c, 0, 64, 78
1, 86369, Note_on_c, 0, 48, 53
1, 86370, Control_c, 0, 64, 74
1, 86385, Control_c, 0, 64, 71
1, 86387, Note_on_c, 0, 40, 49
1, 86400, Control_c, 0, 64, 68
1, 86415, Control_c, 0, 64, 65
1, 86429, Control_c, 0, 64, 60
1, 86444, Control_c, 0, 64, 49
1, 86459, Control_c, 0, 64, 25
1, 86474, Control_c, 0, 64, 0
1, 86549, Control_c, 0, 64, 24
1, 86571, Control_c, 0, 64, 38
1, 86582, Note_off_c, 0, 83, 54
1, 86586, Control_c, 0, 64, 50
1, 86601, Control_c, 0, 64, 61
1, 86608, Note_off_c, 0, 74, 64
1, 86616, Control_c, 0, 64, 67
1, 86631, Control_c, 0, 64, 74
1, 86640, Note_off_c, 0, 71, 64
1, 86645, Control_c, 0, 64, 75
1, 86660, Note_off_c, 0, 40, 51
1, 86660, Control_c, 0, 64, 75
1, 86675, Control_c, 0, 64, 77
1, 86685, Note_off_c, 0, 48, 65
1, 86690, Control_c, 0, 64, 80
1, 86705, Control_c, 0, 64, 83
1, 86719, Control_c, 0, 64, 86
1, 86734, Control_c, 0, 64, 89
1, 86749, Control_c, 0, 64, 90
1, 86764, Control_c, 0, 64, 92
1, 86779, Control_c, 0, 64, 94
1, 86794, Control_c, 0, 64, 97
1, 86808, Control_c, 0, 64, 98
1, 86949, Note_on_c, 0, 81, 65
1, 86960, Note_on_c, 0, 52, 55
1, 86966, Note_on_c, 0, 69, 42
1, 86968, Note_on_c, 0, 72, 48
1, 87076, Note_off_c, 0, 81, 63
1, 87105, Control_c, 0, 64, 99
1, 87108, Note_off_c, 0, 72, 63
1, 87114, Note_off_c, 0, 69, 63
1, 87119, Control_c, 0, 64, 100
1, 87134, Control_c, 0, 64, 103
1, 87149, Control_c, 0, 64, 105
1, 87164, Control_c, 0, 64, 106
1, 87178, Control_c, 0, 64, 107
1, 87208, Control_c, 0, 64, 108
1, 87223, Control_c, 0, 64, 108
1, 87500, Note_on_c, 0, 56, 52
1, 87512, Note_on_c, 0, 76, 67
1, 87516, Note_on_c, 0, 64, 51
1, 87523, Note_on_c, 0, 72, 51
1, 87680, Note_off_c, 0, 64, 62
1, 87683, Note_off_c, 0, 76, 65
1, 87689, Note_off_c, 0, 72, 63
1, 87720, Control_c, 0, 64, 109
1, 87764, Control_c, 0, 64, 110
1, 88022, Note_on_c, 0, 76, 73
1, 88028, Note_on_c, 0, 64, 56
1, 88032, Note_on_c, 0, 72, 55
1, 88038, Note_on_c, 0, 57, 47
1, 88134, Note_off_c, 0, 64, 61
1, 88136, Note_off_c, 0, 56, 35
1, 88150, Note_off_c, 0, 57, 61
1, 88157, Note_off_c, 0, 72, 63
1, 88167, Note_off_c, 0, 52, 64
1, 88169, Note_off_c, 0, 76, 66
1, 88528, Control_c, 0, 64, 109
1, 88543, Control_c, 0, 64, 107
1, 88558, Control_c, 0, 64, 105
1, 88572, Control_c, 0, 64, 103
1, 88587, Control_c, 0, 64, 101
1, 88597, Note_on_c, 0, 47, 38
1, 88602, Control_c, 0, 64, 97
1, 88613, Note_on_c, 0, 76, 62
1, 88614, Note_on_c, 0, 40, 35
1, 88616, Control_c, 0, 64, 93
1, 88621, Note_on_c, 0, 64, 43
1, 88622, Note_on_c, 0, 72, 44
1, 88631, Control_c, 0, 64, 88
1, 88646, Control_c, 0, 64, 83
1, 88661, Control_c, 0, 64, 79
1, 88676, Control_c, 0, 64, 75
1, 88691, Control_c, 0, 64, 72
1, 88706, Control_c, 0, 64, 68
1, 88720, Control_c, 0, 64, 65
1, 88735, Control_c, 0, 64, 60
1, 88750, Control_c, 0, 64, 53
1, 88765, Control_c, 0, 64, 40
1, 88780, Control_c, 0, 64, 17
1, 88795, Control_c, 0, 64, 0
1, 88891, Control_c, 0, 64, 24
1, 88907, Control_c, 0, 64, 35
1, 88921, Control_c, 0, 64, 47
1, 88936, Control_c, 0, 64, 56
1, 88951, Control_c, 0, 64, 63
1, 88966, Control_c, 0, 64, 67
1, 88981, Control_c, 0, 64, 70
1, 88995, Control_c, 0, 64, 70
1, 89010, Control_c, 0, 64, 72
1, 89025, Control_c, 0, 64, 75
1, 89040, Control_c, 0, 64, 78
1, 89054, Control_c, 0, 64, 81
1, 89069, Control_c, 0, 64, 82
1, 89084, Control_c, 0, 64, 83
1, 89099, Control_c, 0, 64, 84
1, 89104, Note_off_c, 0, 76, 53
1, 89114, Control_c, 0, 64, 86
1, 89129, Control_c, 0, 64, 88
1, 89144, Control_c, 0, 64, 90
1, 89156, Note_off_c, 0, 64, 54
1, 89159, Control_c, 0, 64, 90
1, 89173, Note_on_c, 0, 50, 42
1, 89173, Control_c, 0, 64, 91
1, 89188, Control_c, 0, 64, 91
1, 89194, Note_off_c, 0, 72, 52
1, 89203, Control_c, 0, 64, 92
1, 89218, Control_c, 0, 64, 93
1, 89247, Control_c, 0, 64, 94
1, 89262, Control_c, 0, 64, 95
1, 89277, Control_c, 0, 64, 96
1, 89292, Control_c, 0, 64, 98
1, 89297, Note_off_c, 0, 40, 40
1, 89302, Note_off_c, 0, 47, 40
1, 89307, Control_c, 0, 64, 99
1, 89321, Control_c, 0, 64, 99
1, 89522, Note_off_c, 0, 50, 35
1, 89731, Note_on_c, 0, 74, 47
1, 89740, Note_on_c, 0, 62, 37
1, 89741, Note_on_c, 0, 52, 42
1, 89743, Note_on_c, 0, 71, 39
1, 89803, Control_c, 0, 64, 99
1, 89833, Control_c, 0, 64, 98
1, 89922, Control_c, 0, 64, 98
1, 90279, Note_on_c, 0, 56, 42
1, 90389, Note_off_c, 0, 56, 59
1, 90392, Note_off_c, 0, 52, 51
1, 90463, Control_c, 0, 67, 8
1, 90477, Control_c, 0, 67, 11
1, 90493, Control_c, 0, 64, 97
1, 90493, Control_c, 0, 67, 15
1, 90508, Control_c, 0, 64, 97
1, 90508, Control_c, 0, 67, 20
1, 90523, Control_c, 0, 64, 96
1, 90523, Control_c, 0, 67, 26
1, 90538, Control_c, 0, 64, 96
1, 90538, Control_c, 0, 67, 36
1, 90553, Control_c, 0, 67, 44
1, 90567, Control_c, 0, 64, 95
1, 90567, Control_c, 0, 67, 53
1, 90582, Control_c, 0, 67, 61
1, 90597, Control_c, 0, 64, 95
1, 90597, Control_c, 0, 67, 69
1, 90612, Control_c, 0, 67, 76
1, 90626, Control_c, 0, 64, 94
1, 90626, Control_c, 0, 67, 83
1, 90641, Control_c, 0, 64, 93
1, 90641, Control_c, 0, 67, 92
1, 90656, Control_c, 0, 67, 99
1, 90671, Control_c, 0, 64, 92
1, 90671, Control_c, 0, 67, 106
1, 90686, Control_c, 0, 64, 92
1, 90686, Control_c, 0, 67, 113
1, 90700, Control_c, 0, 67, 118
1, 90715, Control_c, 0, 64, 91
1, 90715, Control_c, 0, 67, 125
1, 90730, Control_c, 0, 64, 90
1, 90730, Control_c, 0, 67, 127
1, 90745, Control_c, 0, 64, 88
1, 90760, Control_c, 0, 64, 87
1, 90774, Control_c, 0, 64, 86
1, 90789, Control_c, 0, 64, 85
1, 90804, Control_c, 0, 64, 83
1, 90819, Control_c, 0, 64, 82
1, 90834, Control_c, 0, 64, 80
1, 90849, Control_c, 0, 64, 79
1, 90864, Control_c, 0, 64, 77
1, 90868, Note_on_c, 0, 45, 39
1, 90879, Control_c, 0, 64, 75
1, 90893, Control_c, 0, 64, 74
1, 90899, Note_on_c, 0, 40, 36
1, 90908, Control_c, 0, 64, 72
1, 90923, Control_c, 0, 64, 70
1, 90937, Control_c, 0, 64, 68
1, 90952, Control_c, 0, 64, 65
1, 90967, Control_c, 0, 64, 63
1, 90982, Control_c, 0, 64, 58
1, 90997, Control_c, 0, 64, 49
1, 91011, Control_c, 0, 64, 34
1, 91026, Control_c, 0, 64, 0
1, 91078, Control_c, 0, 64, 20
1, 91093, Control_c, 0, 64, 34
1, 91108, Control_c, 0, 64, 45
1, 91123, Control_c, 0, 64, 56
1, 91137, Control_c, 0, 64, 63
1, 91147, Note_off_c, 0, 71, 52
1, 91147, Note_off_c, 0, 74, 58
1, 91152, Control_c, 0, 64, 66
1, 91167, Control_c, 0, 64, 67
1, 91198, Note_off_c, 0, 62, 47
1, 91211, Control_c, 0, 64, 68
1, 91226, Control_c, 0, 64, 70
1, 91241, Control_c, 0, 64, 71
1, 91256, Control_c, 0, 64, 72
1, 91271, Control_c, 0, 64, 72
1, 91420, Control_c, 0, 64, 72
1, 91435, Control_c, 0, 64, 71
1, 91436, Note_on_c, 0, 72, 51
1, 91449, Control_c, 0, 64, 71
1, 91454, Note_on_c, 0, 69, 35
1, 91457, Note_on_c, 0, 60, 38
1, 91458, Note_on_c, 0, 48, 40
1, 91464, Control_c, 0, 64, 70
1, 91494, Control_c, 0, 64, 70
1, 91509, Control_c, 0, 64, 69
1, 91523, Control_c, 0, 64, 68
1, 91538, Control_c, 0, 64, 67
1, 91553, Control_c, 0, 64, 65
1, 91567, Control_c, 0, 64, 62
1, 91582, Control_c, 0, 64, 58
1, 91597, Control_c, 0, 64, 48
1, 91612, Control_c, 0, 64, 37
1, 91627, Control_c, 0, 64, 25
1, 91642, Control_c, 0, 64, 20
1, 91657, Control_c, 0, 64, 21
1, 91672, Control_c, 0, 64, 26
1, 91686, Control_c, 0, 64, 32
1, 91701, Control_c, 0, 64, 39
1, 91716, Control_c, 0, 64, 46
1, 91731, Control_c, 0, 64, 53
1, 91746, Control_c, 0, 64, 59
1, 91760, Control_c, 0, 64, 63
1, 91775, Control_c, 0, 64, 65
1, 91776, Note_off_c, 0, 48, 46
1, 91790, Control_c, 0, 64, 66
1, 91805, Control_c, 0, 64, 67
1, 91827, Control_c, 0, 64, 68
1, 91841, Control_c, 0, 64, 69
1, 91856, Control_c, 0, 64, 70
1, 91871, Control_c, 0, 64, 71
1, 91886, Control_c, 0, 64, 71
1, 91904, Note_off_c, 0, 72, 36
1, 91948, Note_off_c, 0, 60, 53
1, 91994, Note_off_c, 0, 69, 37
1, 92031, Note_on_c, 0, 51, 49
1, 92394, Note_off_c, 0, 51, 36
1, 92576, Control_c, 0, 64, 71
1, 92650, Control_c, 0, 64, 70
1, 92657, Note_on_c, 0, 69, 43
1, 92658, Note_on_c, 0, 72, 56
1, 92667, Note_on_c, 0, 60, 42
1, 92676, Note_on_c, 0, 52, 47
1, 92754, Note_off_c, 0, 40, 37
1, 92765, Note_off_c, 0, 60, 59
1, 92802, Note_off_c, 0, 72, 57
1, 92807, Note_off_c, 0, 69, 62
1, 92843, Control_c, 0, 64, 70
1, 92872, Note_off_c, 0, 52, 50
1, 92880, Note_off_c, 0, 45, 38
1, 92962, Control_c, 0, 64, 69
1, 93080, Control_c, 0, 64, 69
1, 93125, Control_c, 0, 64, 68
1, 93274, Control_c, 0, 64, 68
1, 93355, Control_c, 0, 64, 67
1, 93385, Control_c, 0, 64, 67
1, 93429, Control_c, 0, 64, 66
1, 93444, Control_c, 0, 64, 66
1, 93459, Control_c, 0, 64, 65
1, 93474, Control_c, 0, 64, 65
1, 93488, Control_c, 0, 64, 64
1, 93503, Control_c, 0, 64, 63
1, 93508, Note_on_c, 0, 72, 51
1, 93511, Note_on_c, 0, 60, 44
1, 93517, Note_on_c, 0, 42, 35
1, 93518, Control_c, 0, 64, 62
1, 93523, Note_on_c, 0, 63, 39
1, 93529, Note_on_c, 0, 40, 35
1, 93529, Note_on_c, 0, 66, 40
1, 93533, Control_c, 0, 64, 61
1, 93538, Note_on_c, 0, 69, 33
1, 93547, Control_c, 0, 64, 59
1, 93562, Control_c, 0, 64, 56
1, 93577, Control_c, 0, 64, 53
1, 93592, Control_c, 0, 64, 49
1, 93594, Note_off_c, 0, 66, 0
1, 93594, Note_on_c, 0, 66, 5
1, 93607, Control_c, 0, 64, 44
1, 93621, Control_c, 0, 64, 40
1, 93636, Control_c, 0, 64, 35
1, 93651, Control_c, 0, 64, 27
1, 93666, Control_c, 0, 64, 14
1, 93681, Control_c, 0, 64, 0
1, 93830, Control_c, 0, 64, 9
1, 93845, Control_c, 0, 64, 19
1, 93860, Control_c, 0, 64, 26
1, 93874, Control_c, 0, 64, 32
1, 93889, Control_c, 0, 64, 38
1, 93904, Control_c, 0, 64, 44
1, 93919, Control_c, 0, 64, 50
1, 93919, Control_c, 0, 67, 120
1, 93934, Control_c, 0, 64, 54
1, 93934, Control_c, 0, 67, 114
1, 93949, Control_c, 0, 64, 57
1, 93949, Control_c, 0, 67, 108
1, 93963, Control_c, 0, 64, 58
1, 93963, Control_c, 0, 67, 101
1, 93978, Control_c, 0, 64, 60
1, 93978, Control_c, 0, 67, 95
1, 93993, Control_c, 0, 64, 61
1, 93993, Control_c, 0, 67, 89
1, 94008, Control_c, 0, 64, 62
1, 94008, Control_c, 0, 67, 85
1, 94022, Control_c, 0, 64, 62
1, 94022, Control_c, 0, 67, 82
1, 94036, Control_c, 0, 64, 63
1, 94036, Control_c, 0, 67, 79
1, 94059, Control_c, 0, 64, 64
1, 94059, Control_c, 0, 67, 76
1, 94074, Control_c, 0, 64, 64
1, 94074, Control_c, 0, 67, 72
1, 94089, Control_c, 0, 64, 65
1, 94089, Control_c, 0, 67, 69
1, 94104, Control_c, 0, 64, 65
1, 94104, Control_c, 0, 67, 66
1, 94118, Control_c, 0, 64, 66
1, 94118, Control_c, 0, 67, 64
1, 94133, Control_c, 0, 67, 62
1, 94148, Control_c, 0, 67, 60
1, 94162, Control_c, 0, 67, 57
1, 94177, Control_c, 0, 64, 66
1, 94177, Control_c, 0, 67, 54
1, 94192, Control_c, 0, 67, 52
1, 94207, Control_c, 0, 67, 50
1, 94212, Note_on_c, 0, 45, 50
1, 94222, Control_c, 0, 67, 48
1, 94236, Control_c, 0, 67, 46
1, 94251, Control_c, 0, 67, 45
1, 94266, Control_c, 0, 64, 67
1, 94266, Control_c, 0, 67, 44
1, 94281, Control_c, 0, 67, 43
1, 94296, Control_c, 0, 67, 42
1, 94310, Control_c, 0, 64, 67
1, 94310, Control_c, 0, 67, 41
1, 94325, Control_c, 0, 67, 40
1, 94340, Control_c, 0, 67, 38
1, 94355, Control_c, 0, 67, 37
1, 94369, Control_c, 0, 67, 35
1, 94384, Control_c, 0, 64, 68
1, 94384, Control_c, 0, 67, 34
1, 94399, Control_c, 0, 67, 32
1, 94414, Control_c, 0, 67, 30
1, 94429, Control_c, 0, 67, 29
1, 94444, Control_c, 0, 64, 68
1, 94444, Control_c, 0, 67, 27
1, 94459, Control_c, 0, 67, 25
1, 94474, Control_c, 0, 67, 23
1, 94489, Control_c, 0, 67, 21
1, 94504, Control_c, 0, 67, 19
1, 94519, Control_c, 0, 64, 69
1, 94519, Control_c, 0, 67, 17
1, 94533, Control_c, 0, 67, 16
1, 94548, Control_c, 0, 67, 15
1, 94563, Control_c, 0, 64, 69
1, 94563, Control_c, 0, 67, 13
1, 94578, Control_c, 0, 67, 12
1, 94593, Control_c, 0, 67, 10
1, 94608, Control_c, 0, 67, 8
1, 94623, Control_c, 0, 67, 0
1, 94667, Control_c, 0, 64, 70
1, 94776, Note_on_c, 0, 48, 56
1, 94948, Note_off_c, 0, 42, 59
1, 94978, Note_off_c, 0, 45, 62
1, 94989, Note_off_c, 0, 40, 40
1, 95348, Note_on_c, 0, 51, 70
1, 95502, Note_off_c, 0, 48, 64
1, 95615, Control_c, 0, 64, 70
1, 95660, Control_c, 0, 64, 71
1, 95690, Control_c, 0, 64, 71
1, 95705, Control_c, 0, 64, 72
1, 95720, Control_c, 0, 64, 72
1, 95749, Control_c, 0, 64, 73
1, 95764, Control_c, 0, 64, 73
1, 95779, Control_c, 0, 64, 74
1, 95794, Control_c, 0, 64, 74
1, 95808, Control_c, 0, 64, 75
1, 95823, Control_c, 0, 64, 76
1, 95838, Control_c, 0, 64, 77
1, 95853, Control_c, 0, 64, 77
1, 95868, Control_c, 0, 64, 78
1, 95882, Control_c, 0, 64, 78
1, 95897, Control_c, 0, 64, 79
1, 95901, Note_on_c, 0, 54, 76
1, 95912, Control_c, 0, 64, 79
1, 95956, Control_c, 0, 64, 80
1, 95991, Note_off_c, 0, 72, 33
1, 96001, Control_c, 0, 64, 80
1, 96011, Note_off_c, 0, 60, 62
1, 96030, Control_c, 0, 64, 81
1, 96060, Control_c, 0, 64, 81
1, 96065, Note_off_c, 0, 63, 49
1, 96070, Note_off_c, 0, 66, 46
1, 96075, Control_c, 0, 64, 82
1, 96089, Note_off_c, 0, 69, 42
1, 96091, Control_c, 0, 64, 83
1, 96105, Control_c, 0, 64, 84
1, 96120, Control_c, 0, 64, 84
1, 96122, Note_off_c, 0, 51, 61
1, 96135, Control_c, 0, 64, 85
1, 96150, Control_c, 0, 64, 86
1, 96164, Control_c, 0, 64, 87
1, 96179, Control_c, 0, 64, 88
1, 96194, Control_c, 0, 64, 90
1, 96209, Control_c, 0, 64, 91
1, 96238, Control_c, 0, 64, 92
1, 96253, Control_c, 0, 64, 93
1, 96269, Control_c, 0, 64, 94
1, 96284, Control_c, 0, 64, 95
1, 96299, Control_c, 0, 64, 96
1, 96321, Control_c, 0, 64, 97
1, 96336, Control_c, 0, 64, 98
1, 96351, Control_c, 0, 64, 99
1, 96365, Control_c, 0, 64, 100
1, 96380, Control_c, 0, 64, 100
1, 96455, Note_on_c, 0, 72, 74
1, 96458, Note_on_c, 0, 57, 70
1, 96477, Note_on_c, 0, 60, 49
1, 96482, Note_on_c, 0, 66, 50
1, 96483, Note_on_c, 0, 63, 41
1, 96497, Note_on_c, 0, 69, 37
1, 96625, Note_off_c, 0, 54, 63
1, 96643, Note_off_c, 0, 60, 65
1, 96645, Note_off_c, 0, 69, 23
1, 96671, Note_off_c, 0, 63, 44
1, 96691, Note_off_c, 0, 66, 35
1, 97058, Note_on_c, 0, 60, 75
1, 97061, Note_on_c, 0, 69, 62
1, 97083, Note_on_c, 0, 63, 48
1, 97105, Note_on_c, 0, 66, 51
1, 97165, Note_off_c, 0, 72, 61
1, 97200, Note_off_c, 0, 57, 55
1, 97248, Control_c, 0, 64, 101
1, 97262, Control_c, 0, 64, 103
1, 97277, Control_c, 0, 64, 104
1, 97291, Note_off_c, 0, 60, 67
1, 97306, Control_c, 0, 64, 105
1, 97311, Note_off_c, 0, 66, 60
1, 97321, Control_c, 0, 64, 107
1, 97322, Note_off_c, 0, 63, 64
1, 97336, Control_c, 0, 64, 110
1, 97351, Control_c, 0, 64, 114
1, 97366, Control_c, 0, 64, 117
1, 97380, Control_c, 0, 64, 119
1, 97395, Control_c, 0, 64, 122
1, 97410, Control_c, 0, 64, 127
1, 97788, Note_on_c, 0, 59, 60
1, 97794, Note_on_c, 0, 68, 54
1, 97796, Control_c, 0, 64, 115
1, 97809, Note_on_c, 0, 64, 45
1, 97813, Note_on_c, 0, 52, 40
1, 97817, Note_on_c, 0, 40, 36
1, 97818, Control_c, 0, 64, 103
1, 97825, Note_on_c, 0, 47, 25
1, 97827, Note_on_c, 0, 44, 26
1, 97833, Control_c, 0, 64, 94
1, 97848, Control_c, 0, 64, 88
1, 97863, Control_c, 0, 64, 82
1, 97877, Control_c, 0, 64, 77
1, 97892, Control_c, 0, 64, 73
1, 97907, Control_c, 0, 64, 68
1, 97922, Control_c, 0, 64, 65
1, 97936, Control_c, 0, 64, 61
1, 97947, Note_off_c, 0, 69, 56
1, 97951, Control_c, 0, 64, 55
1, 97966, Control_c, 0, 64, 44
1, 97981, Control_c, 0, 64, 22
1, 97996, Control_c, 0, 64, 0
1, 98114, Control_c, 0, 64, 20
1, 98128, Control_c, 0, 64, 31
1, 98143, Control_c, 0, 64, 41
1, 98158, Control_c, 0, 64, 51
1, 98173, Control_c, 0, 64, 59
1, 98188, Control_c, 0, 64, 65
1, 98188, Control_c, 0, 67, 10
1, 98203, Control_c, 0, 64, 69
1, 98203, Control_c, 0, 67, 15
1, 98218, Control_c, 0, 64, 71
1, 98218, Control_c, 0, 67, 21
1, 98233, Control_c, 0, 64, 73
1, 98233, Control_c, 0, 67, 28
1, 98247, Control_c, 0, 64, 75
1, 98247, Control_c, 0, 67, 36
1, 98262, Control_c, 0, 64, 78
1, 98262, Control_c, 0, 67, 45
1, 98273, Note_off_c, 0, 59, 58
1, 98277, Note_off_c, 0, 64, 56
1, 98277, Control_c, 0, 64, 80
1, 98277, Control_c, 0, 67, 54
1, 98281, Note_off_c, 0, 40, 40
1, 98292, Control_c, 0, 64, 81
1, 98292, Control_c, 0, 67, 64
1, 98298, Note_off_c, 0, 68, 59
1, 98307, Control_c, 0, 64, 82
1, 98307, Control_c, 0, 67, 73
1, 98322, Control_c, 0, 64, 83
1, 98322, Control_c, 0, 67, 83
1, 98336, Control_c, 0, 64, 85
1, 98336, Control_c, 0, 67, 92
1, 98351, Control_c, 0, 64, 86
1, 98351, Control_c, 0, 67, 102
1, 98366, Control_c, 0, 64, 86
1, 98366, Control_c, 0, 67, 110
1, 98381, Control_c, 0, 67, 119
1, 98396, Control_c, 0, 67, 127
1, 98424, Note_off_c, 0, 52, 44
1, 98425, Control_c, 0, 64, 87
1, 98440, Control_c, 0, 64, 87
1, 98441, Note_off_c, 0, 44, 36
1, 98447, Note_off_c, 0, 47, 38
1, 98454, Control_c, 0, 64, 88
1, 99070, Control_c, 0, 64, 87
1, 99114, Control_c, 0, 64, 87
1, 99158, Control_c, 0, 64, 86
1, 99173, Control_c, 0, 64, 86
1, 99203, Control_c, 0, 64, 85
1, 99419, Control_c, 0, 64, 85
1, 99537, Control_c, 0, 64, 84
1, 99626, Control_c, 0, 64, 84
1, 99670, Control_c, 0, 64, 83
1, 99699, Control_c, 0, 64, 83
1, 99714, Control_c, 0, 64, 82
1, 99729, Control_c, 0, 64, 81
1, 99744, Control_c, 0, 64, 80
1, 99759, Control_c, 0, 64, 77
1, 99774, Control_c, 0, 64, 74
1, 99789, Control_c, 0, 64, 69
1, 99803, Control_c, 0, 64, 64
1, 99818, Control_c, 0, 64, 58
1, 99833, Control_c, 0, 64, 47
1, 99839, Note_on_c, 0, 68, 44
1, 99848, Control_c, 0, 64, 28
1, 99857, Note_on_c, 0, 56, 29
1, 99860, Note_on_c, 0, 64, 32
1, 99860, Note_on_c, 0, 47, 27
1, 99863, Control_c, 0, 64, 0
1, 99869, Note_on_c, 0, 40, 22
1, 99874, Note_on_c, 0, 59, 27
1, 99879, Note_on_c, 0, 52, 10
1, 99884, Note_on_c, 0, 44, 10
1, 100316, Control_c, 0, 64, 13
1, 100330, Control_c, 0, 64, 24
1, 100345, Control_c, 0, 64, 31
1, 100360, Control_c, 0, 64, 36
1, 100375, Control_c, 0, 64, 41
1, 100390, Control_c, 0, 64, 48
1, 100404, Control_c, 0, 64, 53
1, 100419, Control_c, 0, 64, 57
1, 100434, Control_c, 0, 64, 59
1, 100449, Control_c, 0, 64, 61
1, 100464, Control_c, 0, 64, 63
1, 100478, Control_c, 0, 64, 65
1, 100493, Control_c, 0, 64, 67
1, 100508, Control_c, 0, 64, 69
1, 100522, Control_c, 0, 64, 72
1, 100537, Control_c, 0, 64, 73
1, 100552, Control_c, 0, 64, 76
1, 100567, Control_c, 0, 64, 79
1, 100582, Control_c, 0, 64, 82
1, 100596, Control_c, 0, 64, 83
1, 100611, Note_off_c, 0, 59, 39
1, 100641, Control_c, 0, 64, 84
1, 100656, Control_c, 0, 64, 87
1, 100671, Control_c, 0, 64, 91
1, 100686, Control_c, 0, 64, 93
1, 100735, Note_off_c, 0, 56, 38
1, 100745, Control_c, 0, 64, 95
1, 100760, Control_c, 0, 64, 97
1, 100775, Control_c, 0, 64, 98
1, 100820, Note_off_c, 0, 64, 33
1, 100860, Note_off_c, 0, 44, 36
1, 100888, Note_off_c, 0, 40, 38
1, 100897, Note_off_c, 0, 47, 37
1, 100960, Control_c, 0, 64, 98
1, 100961, Note_off_c, 0, 52, 42
1, 100975, Control_c, 0, 64, 97
1, 100990, Control_c, 0, 64, 95
1, 101005, Control_c, 0, 64, 94
1, 101020, Control_c, 0, 64, 93
1, 101035, Control_c, 0, 64, 92
1, 101049, Control_c, 0, 64, 91
1, 101064, Control_c, 0, 64, 89
1, 101079, Control_c, 0, 64, 88
1, 101109, Control_c, 0, 64, 87
1, 101124, Control_c, 0, 64, 86
1, 101139, Control_c, 0, 64, 85
1, 101153, Control_c, 0, 64, 83
1, 101168, Control_c, 0, 64, 83
1, 101183, Control_c, 0, 64, 82
1, 101198, Control_c, 0, 64, 81
1, 101213, Control_c, 0, 64, 80
1, 101227, Control_c, 0, 64, 79
1, 101242, Control_c, 0, 64, 78
1, 101257, Control_c, 0, 64, 77
1, 101286, Control_c, 0, 64, 77
1, 101301, Control_c, 0, 64, 76
1, 101316, Control_c, 0, 64, 76
1, 101331, Control_c, 0, 64, 75
1, 101360, Control_c, 0, 64, 75
1, 101390, Control_c, 0, 64, 74
1, 101405, Control_c, 0, 64, 74
1, 101434, Control_c, 0, 64, 73
1, 101449, Control_c, 0, 64, 73
1, 101464, Control_c, 0, 64, 72
1, 101479, Control_c, 0, 64, 72
1, 101494, Control_c, 0, 64, 71
1, 101523, Control_c, 0, 64, 71
1, 101560, Control_c, 0, 64, 70
1, 101575, Control_c, 0, 64, 70
1, 101605, Control_c, 0, 64, 69
1, 101620, Control_c, 0, 64, 69
1, 101649, Control_c, 0, 64, 68
1, 101680, Control_c, 0, 64, 68
1, 101695, Control_c, 0, 64, 67
1, 101739, Control_c, 0, 64, 67
1, 101769, Control_c, 0, 64, 66
1, 101813, Control_c, 0, 64, 66
1, 101843, Control_c, 0, 64, 65
1, 101857, Control_c, 0, 64, 65
1, 101872, Control_c, 0, 64, 64
1, 101902, Control_c, 0, 64, 64
1, 101917, Control_c, 0, 64, 63
1, 101932, Control_c, 0, 64, 63
1, 101976, Control_c, 0, 64, 62
1, 102006, Control_c, 0, 64, 62
1, 102036, Control_c, 0, 64, 61
1, 102080, Control_c, 0, 64, 61
1, 102109, Control_c, 0, 64, 60
1, 102183, Control_c, 0, 64, 60
1, 102198, Control_c, 0, 64, 59
1, 102213, Control_c, 0, 64, 59
1, 102228, Control_c, 0, 64, 58
1, 102242, Control_c, 0, 64, 58
1, 102257, Control_c, 0, 64, 57
1, 102272, Control_c, 0, 64, 56
1, 102339, Control_c, 0, 64, 55
1, 102354, Control_c, 0, 64, 55
1, 102368, Control_c, 0, 64, 54
1, 102398, Control_c, 0, 64, 53
1, 102427, Control_c, 0, 64, 53
1, 102442, Control_c, 0, 64, 52
1, 102457, Control_c, 0, 64, 52
1, 102518, Control_c, 0, 64, 51
1, 102532, Control_c, 0, 64, 51
1, 102547, Control_c, 0, 64, 50
1, 102562, Control_c, 0, 64, 49
1, 102577, Control_c, 0, 64, 49
1, 102606, Control_c, 0, 64, 48
1, 102666, Control_c, 0, 64, 48
1, 102680, Control_c, 0, 64, 47
1, 102695, Control_c, 0, 64, 47
1, 102725, Control_c, 0, 64, 46
1, 102755, Control_c, 0, 64, 46
1, 102769, Control_c, 0, 64, 45
1, 102784, Control_c, 0, 64, 44
1, 102799, Control_c, 0, 64, 44
1, 102844, Control_c, 0, 64, 43
1, 102859, Control_c, 0, 64, 43
1, 102873, Control_c, 0, 64, 42
1, 102888, Control_c, 0, 64, 42
1, 102903, Control_c, 0, 64, 41
1, 102917, Control_c, 0, 64, 41
1, 102932, Control_c, 0, 64, 40
1, 102947, Control_c, 0, 64, 40
1, 102962, Control_c, 0, 64, 39
1, 102977, Control_c, 0, 64, 38
1, 102991, Control_c, 0, 64, 38
1, 103007, Control_c, 0, 64, 37
1, 103022, Control_c, 0, 64, 37
1, 103037, Control_c, 0, 64, 36
1, 103059, Control_c, 0, 64, 36
1, 103074, Control_c, 0, 64, 35
1, 103088, Control_c, 0, 64, 35
1, 103103, Control_c, 0, 64, 34
1, 103118, Control_c, 0, 64, 33
1, 103133, Control_c, 0, 64, 32
1, 103148, Control_c, 0, 64, 32
1, 103163, Control_c, 0, 64, 31
1, 103178, Control_c, 0, 64, 30
1, 103193, Control_c, 0, 64, 29
1, 103207, Control_c, 0, 64, 28
1, 103222, Control_c, 0, 64, 28
1, 103237, Control_c, 0, 64, 27
1, 103251, Control_c, 0, 64, 25
1, 103267, Control_c, 0, 64, 24
1, 103282, Control_c, 0, 64, 23
1, 103297, Control_c, 0, 64, 23
1, 103312, Control_c, 0, 64, 22
1, 103327, Control_c, 0, 64, 21
1, 103341, Control_c, 0, 64, 19
1, 103356, Control_c, 0, 64, 18
1, 103371, Control_c, 0, 64, 18
1, 103386, Control_c, 0, 64, 16
1, 103401, Control_c, 0, 64, 14
1, 103416, Control_c, 0, 64, 12
1, 103430, Control_c, 0, 64, 10
1, 103445, Control_c, 0, 64, 9
1, 103460, Control_c, 0, 64, 8
1, 103475, Control_c, 0, 64, 0
1, 103741, Control_c, 0, 64, 10
1, 103756, Control_c, 0, 64, 11
1, 103771, Control_c, 0, 64, 13
1, 103786, Control_c, 0, 64, 15
1, 103808, Control_c, 0, 64, 17
1, 103822, Control_c, 0, 64, 19
1, 103837, Control_c, 0, 64, 21
1, 103852, Control_c, 0, 64, 23
1, 103867, Control_c, 0, 64, 25
1, 103881, Control_c, 0, 64, 27
1, 103896, Control_c, 0, 64, 29
1, 103911, Control_c, 0, 64, 31
1, 103926, Control_c, 0, 64, 33
1, 103941, Control_c, 0, 64, 34
1, 103956, Control_c, 0, 64, 36
1, 103971, Control_c, 0, 64, 39
1, 103986, Control_c, 0, 64, 42
1, 104001, Control_c, 0, 64, 44
1, 104015, Control_c, 0, 64, 46
1, 104030, Control_c, 0, 64, 48
1, 104045, Control_c, 0, 64, 49
1, 104060, Control_c, 0, 64, 50
1, 104075, Control_c, 0, 64, 51
1, 104090, Control_c, 0, 64, 51
1, 104105, Control_c, 0, 64, 53
1, 104120, Control_c, 0, 64, 54
1, 104135, Control_c, 0, 64, 55
1, 104150, Control_c, 0, 64, 56
1, 104164, Control_c, 0, 64, 56
1, 104179, Control_c, 0, 64, 57
1, 104194, Control_c, 0, 64, 58
1, 104209, Control_c, 0, 64, 59
1, 104224, Control_c, 0, 64, 59
1, 104268, Control_c, 0, 64, 60
1, 104283, Control_c, 0, 64, 60
1, 104297, Control_c, 0, 64, 61
1, 104312, Control_c, 0, 64, 61
1, 104327, Control_c, 0, 64, 62
1, 104475, Control_c, 0, 64, 62
1, 104552, Note_off_c, 0, 68, 38
1, 104913, Control_c, 0, 64, 62
1, 104935, Note_on_c, 0, 64, 27
1, 105046, Control_c, 0, 64, 61
1, 105134, Control_c, 0, 64, 61
1, 105164, Control_c, 0, 64, 60
1, 105319, Control_c, 0, 64, 60
1, 105423, Control_c, 0, 64, 59
1, 105465, Note_on_c, 0, 63, 38
1, 105512, Control_c, 0, 64, 59
1, 105524, Note_off_c, 0, 64, 36
1, 105572, Control_c, 0, 64, 58
1, 105586, Control_c, 0, 64, 58
1, 105601, Control_c, 0, 64, 57
1, 105645, Control_c, 0, 64, 57
1, 105660, Control_c, 0, 64, 56
1, 105676, Control_c, 0, 64, 56
1, 105691, Control_c, 0, 64, 55
1, 105706, Control_c, 0, 64, 55
1, 105750, Control_c, 0, 64, 54
1, 105765, Control_c, 0, 64, 54
1, 105780, Note_on_c, 0, 64, 48
1, 105780, Control_c, 0, 64, 53
1, 105795, Control_c, 0, 64, 53
1, 105809, Note_off_c, 0, 63, 41
1, 105839, Control_c, 0, 64, 52
1, 105854, Control_c, 0, 64, 52
1, 105868, Control_c, 0, 64, 51
1, 105883, Control_c, 0, 64, 50
1, 105928, Control_c, 0, 64, 50
1, 105942, Control_c, 0, 64, 49
1, 105957, Control_c, 0, 64, 48
1, 105972, Control_c, 0, 64, 48
1, 106002, Control_c, 0, 64, 47
1, 106016, Control_c, 0, 64, 46
1, 106039, Control_c, 0, 64, 45
1, 106048, Note_on_c, 0, 68, 48
1, 106054, Control_c, 0, 64, 45
1, 106083, Control_c, 0, 64, 44
1, 106098, Control_c, 0, 64, 43
1, 106113, Control_c, 0, 64, 42
1, 106128, Control_c, 0, 64, 41
1, 106142, Note_off_c, 0, 64, 30
1, 106142, Control_c, 0, 64, 40
1, 106157, Control_c, 0, 64, 39
1, 106172, Control_c, 0, 64, 38
1, 106187, Control_c, 0, 64, 37
1, 106202, Control_c, 0, 64, 35
1, 106216, Control_c, 0, 64, 34
1, 106231, Control_c, 0, 64, 33
1, 106246, Control_c, 0, 64, 32
1, 106261, Control_c, 0, 64, 31
1, 106275, Control_c, 0, 64, 29
1, 106290, Control_c, 0, 64, 28
1, 106305, Control_c, 0, 64, 27
1, 106320, Control_c, 0, 64, 26
1, 106335, Control_c, 0, 64, 25
1, 106345, Note_on_c, 0, 71, 40
1, 106350, Control_c, 0, 64, 23
1, 106353, Note_off_c, 0, 68, 58
1, 106364, Control_c, 0, 64, 20
1, 106379, Control_c, 0, 64, 16
1, 106394, Control_c, 0, 64, 11
1, 106409, Control_c, 0, 64, 0
1, 106613, Note_on_c, 0, 68, 49
1, 106635, Note_off_c, 0, 71, 49
1, 106691, Control_c, 0, 64, 8
1, 106706, Control_c, 0, 64, 14
1, 106721, Control_c, 0, 64, 18
1, 106736, Control_c, 0, 64, 20
1, 106752, Control_c, 0, 64, 22
1, 106766, Control_c, 0, 64, 24
1, 106781, Control_c, 0, 64, 25
1, 106801, Note_off_c, 0, 68, 57
1, 106803, Control_c, 0, 64, 26
1, 106820, Note_on_c, 0, 67, 51
1, 106892, Control_c, 0, 64, 26
1, 106907, Control_c, 0, 64, 25
1, 106922, Control_c, 0, 64, 25
1, 106937, Control_c, 0, 64, 24
1, 106993, Note_on_c, 0, 68, 59
1, 107094, Note_off_c, 0, 67, 35
1, 107141, Note_on_c, 0, 71, 56
1, 107152, Note_off_c, 0, 68, 61
1, 107173, Control_c, 0, 64, 25
1, 107217, Control_c, 0, 64, 25
1, 107293, Note_on_c, 0, 76, 60
1, 107300, Note_off_c, 0, 71, 60
1, 107441, Note_off_c, 0, 76, 60
1, 107448, Note_on_c, 0, 71, 60
1, 107456, Control_c, 0, 64, 26
1, 107470, Control_c, 0, 64, 26
1, 107485, Control_c, 0, 64, 27
1, 107559, Note_off_c, 0, 71, 65
1, 107567, Note_on_c, 0, 70, 67
1, 107666, Note_off_c, 0, 70, 62
1, 107670, Control_c, 0, 64, 26
1, 107684, Note_on_c, 0, 71, 73
1, 107685, Control_c, 0, 64, 25
1, 107700, Control_c, 0, 64, 25
1, 107730, Control_c, 0, 64, 24
1, 107760, Control_c, 0, 64, 24
1, 107774, Control_c, 0, 64, 23
1, 107782, Note_off_c, 0, 71, 64
1, 107787, Note_on_c, 0, 76, 70
1, 107789, Control_c, 0, 64, 23
1, 107804, Control_c, 0, 64, 22
1, 107834, Control_c, 0, 64, 22
1, 107848, Control_c, 0, 64, 20
1, 107863, Control_c, 0, 64, 19
1, 107878, Control_c, 0, 64, 19
1, 107893, Control_c, 0, 64, 18
1, 107902, Note_on_c, 0, 80, 70
1, 107906, Note_off_c, 0, 76, 65
1, 107908, Control_c, 0, 64, 17
1, 107922, Control_c, 0, 64, 15
1, 107937, Control_c, 0, 64, 12
1, 107952, Control_c, 0, 64, 10
1, 107967, Control_c, 0, 64, 8
1, 107981, Control_c, 0, 64, 0
1, 108019, Note_off_c, 0, 80, 63
1, 108023, Note_on_c, 0, 76, 73
1, 108167, Note_off_c, 0, 76, 65
1, 108181, Note_on_c, 0, 75, 63
1, 108347, Note_off_c, 0, 75, 58
1, 108359, Note_on_c, 0, 76, 52
1, 108555, Note_on_c, 0, 80, 53
1, 108578, Note_off_c, 0, 76, 60
1, 108805, Note_on_c, 0, 83, 50
1, 108824, Note_off_c, 0, 80, 54
1, 109163, Note_on_c, 0, 79, 36
1, 109223, Note_off_c, 0, 83, 47
1, 109478, Note_off_c, 0, 79, 53
1, 109486, Note_on_c, 0, 80, 47
1, 109626, Control_c, 0, 64, 15
1, 109641, Control_c, 0, 64, 20
1, 109657, Control_c, 0, 64, 23
1, 109672, Control_c, 0, 64, 24
1, 109687, Control_c, 0, 64, 25
1, 109711, Note_off_c, 0, 80, 60
1, 109714, Note_on_c, 0, 83, 49
1, 109716, Control_c, 0, 64, 25
1, 109843, Control_c, 0, 64, 25
1, 109858, Control_c, 0, 64, 24
1, 109873, Control_c, 0, 64, 24
1, 109898, Note_off_c, 0, 83, 63
1, 109914, Note_on_c, 0, 75, 43
1, 109959, Note_off_c, 0, 75, 0
1, 109959, Note_on_c, 0, 75, 4
1, 110078, Note_on_c, 0, 76, 53
1, 110110, Note_off_c, 0, 75, 38
1, 110139, Control_c, 0, 64, 24
1, 110154, Control_c, 0, 64, 25
1, 110183, Control_c, 0, 64, 25
1, 110213, Note_off_c, 0, 76, 65
1, 110230, Note_on_c, 0, 80, 54
1, 110243, Control_c, 0, 64, 26
1, 110361, Note_off_c, 0, 80, 60
1, 110362, Control_c, 0, 64, 25
1, 110372, Note_on_c, 0, 70, 45
1, 110377, Control_c, 0, 64, 25
1, 110391, Control_c, 0, 64, 24
1, 110421, Control_c, 0, 64, 24
1, 110435, Control_c, 0, 64, 23
1, 110450, Control_c, 0, 64, 22
1, 110466, Control_c, 0, 64, 22
1, 110483, Note_off_c, 0, 70, 60
1, 110496, Control_c, 0, 64, 21
1, 110501, Note_on_c, 0, 71, 48
1, 110511, Control_c, 0, 64, 20
1, 110526, Control_c, 0, 64, 19
1, 110547, Control_c, 0, 64, 19
1, 110624, Note_off_c, 0, 71, 64
1, 110636, Control_c, 0, 64, 18
1, 110648, Note_on_c, 0, 76, 51
1, 110651, Control_c, 0, 64, 18
1, 110696, Control_c, 0, 64, 17
1, 110711, Control_c, 0, 64, 16
1, 110726, Control_c, 0, 64, 14
1, 110740, Control_c, 0, 64, 11
1, 110755, Control_c, 0, 64, 8
1, 110761, Note_off_c, 0, 76, 52
1, 110770, Control_c, 0, 64, 0
1, 110806, Note_on_c, 0, 67, 38
1, 110866, Note_off_c, 0, 67, 0
1, 110866, Note_on_c, 0, 67, 4
1, 110952, Note_off_c, 0, 67, 57
1, 110977, Note_on_c, 0, 68, 45
1, 111176, Note_off_c, 0, 68, 55
1, 111199, Note_on_c, 0, 71, 39
1, 111474, Note_on_c, 0, 63, 37
1, 111506, Note_off_c, 0, 71, 47
1, 111815, Note_on_c, 0, 64, 17
1, 111818, Note_off_c, 0, 63, 42
1, 112058, Control_c, 0, 64, 14
1, 112073, Control_c, 0, 64, 20
1, 112088, Control_c, 0, 64, 25
1, 112103, Control_c, 0, 64, 29
1, 112118, Control_c, 0, 64, 33
1, 112129, Note_on_c, 0, 68, 34
1, 112132, Control_c, 0, 64, 38
1, 112147, Control_c, 0, 64, 44
1, 112151, Note_off_c, 0, 64, 39
1, 112162, Control_c, 0, 64, 49
1, 112177, Control_c, 0, 64, 53
1, 112192, Control_c, 0, 64, 56
1, 112207, Control_c, 0, 64, 58
1, 112222, Control_c, 0, 64, 59
1, 112236, Control_c, 0, 64, 60
1, 112266, Control_c, 0, 64, 61
1, 112325, Control_c, 0, 64, 61
1, 112379, Note_on_c, 0, 64, 33
1, 112398, Note_off_c, 0, 68, 39
1, 112414, Control_c, 0, 64, 62
1, 112486, Note_off_c, 0, 64, 37
1, 112517, Control_c, 0, 64, 62
1, 112562, Note_on_c, 0, 59, 15
1, 112681, Note_off_c, 0, 59, 41
1, 112720, Note_on_c, 0, 56, 42
1, 112725, Control_c, 0, 64, 63
1, 112876, Note_off_c, 0, 56, 40
1, 112878, Note_on_c, 0, 52, 42
1, 113002, Note_on_c, 0, 47, 36
1, 113038, Note_off_c, 0, 52, 34
1, 113104, Control_c, 0, 67, 127
1, 113119, Control_c, 0, 67, 124
1, 113119, Note_on_c, 0, 44, 37
1, 113133, Control_c, 0, 67, 122
1, 113148, Control_c, 0, 67, 119
1, 113163, Control_c, 0, 67, 117
1, 113172, Note_off_c, 0, 44, 59
1, 113176, Note_off_c, 0, 47, 42
1, 113178, Control_c, 0, 67, 115
1, 113193, Control_c, 0, 67, 113
1, 113207, Control_c, 0, 67, 111
1, 113222, Control_c, 0, 67, 108
1, 113224, Note_on_c, 0, 40, 45
1, 113237, Control_c, 0, 67, 103
1, 113251, Control_c, 0, 67, 97
1, 113266, Control_c, 0, 67, 89
1, 113281, Control_c, 0, 67, 83
1, 113296, Control_c, 0, 67, 77
1, 113311, Control_c, 0, 67, 72
1, 113325, Control_c, 0, 67, 66
1, 113340, Control_c, 0, 67, 61
1, 113344, Note_on_c, 0, 44, 42
1, 113344, Note_off_c, 0, 40, 0
1, 113355, Control_c, 0, 67, 56
1, 113370, Control_c, 0, 67, 52
1, 113384, Control_c, 0, 67, 49
1, 113388, Poly_aftertouch_c, 0, 40, 0
1, 113399, Control_c, 0, 67, 45
1, 113414, Control_c, 0, 67, 39
1, 113429, Control_c, 0, 67, 34
1, 113444, Control_c, 0, 67, 30
1, 113446, Note_on_c, 0, 47, 55
1, 113459, Control_c, 0, 67, 27
1, 113472, Note_off_c, 0, 44, 53
1, 113474, Control_c, 0, 67, 24
1, 113489, Control_c, 0, 67, 22
1, 113504, Control_c, 0, 67, 20
1, 113519, Control_c, 0, 67, 17
1, 113539, Note_off_c, 0, 47, 62
1, 113541, Control_c, 0, 67, 15
1, 113556, Control_c, 0, 67, 14
1, 113570, Note_on_c, 0, 52, 56
1, 113571, Control_c, 0, 67, 12
1, 113585, Control_c, 0, 67, 11
1, 113600, Control_c, 0, 67, 9
1, 113615, Control_c, 0, 67, 0
1, 113700, Note_off_c, 0, 52, 61
1, 113710, Note_on_c, 0, 56, 55
1, 113852, Note_on_c, 0, 59, 64
1, 113892, Note_off_c, 0, 56, 60
1, 113930, Note_off_c, 0, 59, 62
1, 114043, Note_on_c, 0, 64, 57
1, 114380, Note_on_c, 0, 52, 36
1, 114382, Note_on_c, 0, 40, 35
1, 114394, Control_c, 0, 64, 62
1, 114423, Control_c, 0, 64, 62
1, 114438, Control_c, 0, 64, 61
1, 114454, Control_c, 0, 64, 61
1, 114469, Control_c, 0, 64, 60
1, 114484, Control_c, 0, 64, 59
1, 114498, Control_c, 0, 64, 58
1, 114513, Control_c, 0, 64, 56
1, 114528, Control_c, 0, 64, 54
1, 114543, Control_c, 0, 64, 52
1, 114558, Control_c, 0, 64, 50
1, 114573, Control_c, 0, 64, 48
1, 114587, Control_c, 0, 64, 46
1, 114602, Control_c, 0, 64, 45
1, 114607, Note_on_c, 0, 68, 47
1, 114617, Control_c, 0, 64, 45
1, 114631, Control_c, 0, 64, 44
1, 114646, Control_c, 0, 64, 43
1, 114661, Control_c, 0, 64, 41
1, 114676, Control_c, 0, 64, 38
1, 114691, Control_c, 0, 64, 33
1, 114705, Control_c, 0, 64, 24
1, 114720, Control_c, 0, 64, 0
1, 114839, Control_c, 0, 64, 24
1, 114854, Control_c, 0, 64, 33
1, 114869, Control_c, 0, 64, 41
1, 114884, Control_c, 0, 64, 48
1, 114898, Control_c, 0, 64, 53
1, 114913, Control_c, 0, 64, 58
1, 114928, Control_c, 0, 64, 59
1, 114941, Note_off_c, 0, 52, 57
1, 114943, Control_c, 0, 64, 60
1, 114972, Note_on_c, 0, 59, 47
1, 114984, Note_off_c, 0, 64, 60
1, 115016, Control_c, 0, 64, 60
1, 115038, Control_c, 0, 64, 61
1, 115053, Control_c, 0, 64, 61
1, 115098, Control_c, 0, 64, 62
1, 115112, Control_c, 0, 64, 62
1, 115127, Control_c, 0, 64, 63
1, 115171, Control_c, 0, 64, 63
1, 115200, Note_on_c, 0, 69, 61
1, 115216, Note_on_c, 0, 66, 46
1, 115226, Note_on_c, 0, 51, 35
1, 115233, Note_off_c, 0, 68, 56
1, 115302, Note_off_c, 0, 51, 55
1, 115409, Control_c, 0, 64, 63
1, 115424, Control_c, 0, 64, 62
1, 115425, Note_off_c, 0, 59, 59
1, 115426, Note_on_c, 0, 71, 72
1, 115430, Note_on_c, 0, 50, 46
1, 115438, Note_on_c, 0, 68, 55
1, 115439, Control_c, 0, 64, 61
1, 115453, Control_c, 0, 64, 57
1, 115456, Note_off_c, 0, 66, 40
1, 115459, Note_off_c, 0, 69, 52
1, 115468, Control_c, 0, 64, 47
1, 115483, Control_c, 0, 64, 31
1, 115498, Control_c, 0, 64, 0
1, 115543, Control_c, 0, 64, 19
1, 115558, Control_c, 0, 64, 30
1, 115572, Control_c, 0, 64, 37
1, 115587, Control_c, 0, 64, 43
1, 115602, Control_c, 0, 64, 48
1, 115608, Note_off_c, 0, 68, 62
1, 115617, Control_c, 0, 64, 52
1, 115626, Note_on_c, 0, 64, 60
1, 115631, Note_off_c, 0, 50, 64
1, 115632, Control_c, 0, 64, 54
1, 115646, Control_c, 0, 64, 55
1, 115691, Control_c, 0, 64, 55
1, 115720, Control_c, 0, 64, 56
1, 115735, Control_c, 0, 64, 56
1, 115787, Control_c, 0, 64, 57
1, 115802, Control_c, 0, 64, 57
1, 115828, Note_on_c, 0, 73, 74
1, 115847, Note_on_c, 0, 69, 45
1, 115847, Note_off_c, 0, 71, 61
1, 115850, Note_on_c, 0, 49, 49
1, 115915, Note_off_c, 0, 64, 60
1, 115935, Control_c, 0, 64, 57
1, 115979, Control_c, 0, 64, 56
1, 115994, Control_c, 0, 64, 56
1, 116009, Control_c, 0, 64, 55
1, 116024, Control_c, 0, 64, 54
1, 116039, Control_c, 0, 64, 51
1, 116039, Control_c, 0, 67, 8
1, 116045, Note_off_c, 0, 49, 33
1, 116055, Control_c, 0, 64, 49
1, 116055, Control_c, 0, 67, 9
1, 116070, Control_c, 0, 64, 46
1, 116070, Control_c, 0, 67, 9
1, 116084, Control_c, 0, 64, 44
1, 116084, Control_c, 0, 67, 10
1, 116085, Note_on_c, 0, 47, 36
1, 116099, Control_c, 0, 64, 43
1, 116099, Control_c, 0, 67, 10
1, 116112, Note_on_c, 0, 76, 63
1, 116114, Control_c, 0, 64, 42
1, 116114, Control_c, 0, 67, 11
1, 116129, Control_c, 0, 64, 40
1, 116129, Control_c, 0, 67, 12
1, 116144, Control_c, 0, 64, 37
1, 116144, Control_c, 0, 67, 13
1, 116149, Note_off_c, 0, 73, 64
1, 116158, Control_c, 0, 64, 31
1, 116158, Control_c, 0, 67, 13
1, 116173, Control_c, 0, 64, 24
1, 116173, Control_c, 0, 67, 14
1, 116188, Control_c, 0, 64, 12
1, 116188, Control_c, 0, 67, 15
1, 116202, Control_c, 0, 64, 0
1, 116202, Control_c, 0, 67, 17
1, 116217, Control_c, 0, 67, 20
1, 116232, Control_c, 0, 67, 24
1, 116247, Control_c, 0, 67, 30
1, 116262, Control_c, 0, 67, 37
1, 116276, Control_c, 0, 67, 44
1, 116291, Control_c, 0, 67, 51
1, 116306, Control_c, 0, 67, 58
1, 116321, Control_c, 0, 67, 65
1, 116336, Control_c, 0, 67, 72
1, 116339, Note_on_c, 0, 66, 49
1, 116350, Control_c, 0, 67, 80
1, 116365, Control_c, 0, 67, 87
1, 116380, Note_off_c, 0, 69, 64
1, 116380, Control_c, 0, 67, 94
1, 116395, Control_c, 0, 64, 9
1, 116395, Control_c, 0, 67, 102
1, 116410, Control_c, 0, 64, 22
1, 116410, Control_c, 0, 67, 109
1, 116425, Control_c, 0, 64, 31
1, 116425, Control_c, 0, 67, 117
1, 116440, Control_c, 0, 64, 41
1, 116440, Control_c, 0, 67, 125
1, 116455, Control_c, 0, 64, 48
1, 116455, Control_c, 0, 67, 127
1, 116469, Control_c, 0, 64, 53
1, 116485, Control_c, 0, 64, 57
1, 116500, Control_c, 0, 64, 59
1, 116514, Control_c, 0, 64, 59
1, 116537, Control_c, 0, 64, 60
1, 116543, Note_off_c, 0, 40, 36
1, 116566, Control_c, 0, 64, 60
1, 116581, Control_c, 0, 64, 61
1, 116596, Control_c, 0, 64, 61
1, 116610, Control_c, 0, 64, 62
1, 116625, Control_c, 0, 64, 62
1, 116628, Note_on_c, 0, 74, 49
1, 116646, Note_on_c, 0, 71, 43
1, 116704, Note_off_c, 0, 76, 61
1, 116726, Note_off_c, 0, 71, 37
1, 116734, Note_off_c, 0, 66, 38
1, 116923, Control_c, 0, 64, 62
1, 116968, Control_c, 0, 64, 61
1, 116997, Control_c, 0, 64, 60
1, 117012, Control_c, 0, 64, 59
1, 117026, Control_c, 0, 64, 57
1, 117041, Control_c, 0, 64, 55
1, 117044, Note_on_c, 0, 71, 43
1, 117056, Control_c, 0, 64, 51
1, 117059, Note_on_c, 0, 40, 23
1, 117063, Note_on_c, 0, 52, 30
1, 117071, Control_c, 0, 64, 48
1, 117075, Note_on_c, 0, 68, 25
1, 117086, Control_c, 0, 64, 44
1, 117100, Control_c, 0, 64, 41
1, 117104, Note_off_c, 0, 74, 54
1, 117115, Control_c, 0, 64, 38
1, 117130, Control_c, 0, 64, 35
1, 117145, Control_c, 0, 64, 30
1, 117160, Control_c, 0, 64, 17
1, 117174, Control_c, 0, 64, 0
1, 117218, Note_off_c, 0, 47, 45
1, 117345, Control_c, 0, 64, 20
1, 117359, Control_c, 0, 64, 31
1, 117374, Control_c, 0, 64, 40
1, 117389, Control_c, 0, 64, 48
1, 117404, Control_c, 0, 64, 55
1, 117414, Note_off_c, 0, 71, 37
1, 117419, Control_c, 0, 64, 58
1, 117426, Note_off_c, 0, 68, 40
1, 117433, Control_c, 0, 64, 60
1, 117448, Control_c, 0, 64, 60
1, 117478, Control_c, 0, 64, 61
1, 117528, Note_off_c, 0, 40, 41
1, 117596, Note_off_c, 0, 52, 44
1, 117671, Control_c, 0, 64, 60
1, 117746, Control_c, 0, 64, 60
1, 117775, Control_c, 0, 64, 59
1, 117820, Control_c, 0, 64, 59
1, 117835, Control_c, 0, 64, 58
1, 117849, Control_c, 0, 64, 57
1, 117864, Control_c, 0, 64, 56
1, 117879, Control_c, 0, 64, 55
1, 117894, Control_c, 0, 64, 54
1, 117909, Control_c, 0, 64, 53
1, 117923, Control_c, 0, 64, 52
1, 117938, Control_c, 0, 64, 51
1, 117953, Control_c, 0, 64, 50
1, 117967, Control_c, 0, 64, 49
1, 117982, Control_c, 0, 64, 47
1, 117997, Control_c, 0, 64, 45
1, 118012, Control_c, 0, 64, 45
1, 118064, Control_c, 0, 64, 43
1, 118079, Control_c, 0, 64, 41
1, 118094, Control_c, 0, 64, 40
1, 118109, Control_c, 0, 64, 39
1, 118123, Control_c, 0, 64, 38
1, 118138, Control_c, 0, 64, 36
1, 118153, Control_c, 0, 64, 33
1, 118168, Control_c, 0, 64, 30
1, 118182, Control_c, 0, 64, 28
1, 118197, Control_c, 0, 64, 26
1, 118212, Control_c, 0, 64, 22
1, 118227, Control_c, 0, 64, 18
1, 118242, Control_c, 0, 64, 13
1, 118256, Control_c, 0, 64, 9
1, 118271, Control_c, 0, 64, 0
1, 118797, Control_c, 0, 64, 10
1, 118812, Control_c, 0, 64, 14
1, 118827, Control_c, 0, 64, 16
1, 118842, Control_c, 0, 64, 17
1, 118857, Control_c, 0, 64, 18
1, 118871, Control_c, 0, 64, 21
1, 118886, Control_c, 0, 64, 24
1, 118901, Control_c, 0, 64, 27
1, 118916, Control_c, 0, 64, 29
1, 118931, Control_c, 0, 64, 31
1, 118945, Control_c, 0, 64, 34
1, 118960, Control_c, 0, 64, 37
1, 118975, Control_c, 0, 64, 40
1, 118990, Control_c, 0, 64, 43
1, 119004, Control_c, 0, 64, 46
1, 119019, Control_c, 0, 64, 48
1, 119034, Control_c, 0, 64, 50
1, 119049, Control_c, 0, 64, 52
1, 119064, Control_c, 0, 64, 53
1, 119078, Control_c, 0, 64, 54
1, 119093, Control_c, 0, 64, 55
1, 119108, Control_c, 0, 64, 56
1, 119123, Control_c, 0, 64, 57
1, 119138, Control_c, 0, 64, 57
1, 119153, Control_c, 0, 64, 58
1, 119167, Control_c, 0, 64, 58
1, 119182, Control_c, 0, 64, 59
1, 119197, Control_c, 0, 64, 59
1, 119212, Control_c, 0, 64, 60
1, 119242, Control_c, 0, 64, 60
1, 119272, Control_c, 0, 64, 61
1, 119287, Control_c, 0, 64, 61
1, 119302, Control_c, 0, 64, 62
1, 119391, Control_c, 0, 64, 62
1, 119459, Note_on_c, 0, 69, 36
1, 119724, Control_c, 0, 64, 63
1, 119753, Control_c, 0, 64, 63
1, 119839, Note_on_c, 0, 66, 34
1, 119850, Note_on_c, 0, 81, 54
1, 119896, Note_off_c, 0, 69, 62
1, 120015, Note_off_c, 0, 66, 52
1, 120080, Control_c, 0, 64, 63
1, 120095, Note_on_c, 0, 69, 46
1, 120154, Control_c, 0, 64, 62
1, 120214, Control_c, 0, 64, 62
1, 120247, Note_off_c, 0, 69, 37
1, 120258, Control_c, 0, 64, 61
1, 120280, Note_on_c, 0, 80, 69
1, 120281, Control_c, 0, 64, 61
1, 120297, Note_on_c, 0, 64, 39
1, 120355, Control_c, 0, 64, 60
1, 120365, Note_off_c, 0, 81, 57
1, 120414, Control_c, 0, 64, 60
1, 120443, Control_c, 0, 64, 59
1, 120473, Control_c, 0, 64, 59
1, 120488, Control_c, 0, 64, 58
1, 120491, Note_on_c, 0, 78, 74
1, 120503, Control_c, 0, 64, 58
1, 120512, Note_on_c, 0, 57, 31
1, 120513, Note_on_c, 0, 62, 40
1, 120518, Control_c, 0, 64, 57
1, 120527, Note_off_c, 0, 80, 64
1, 120533, Control_c, 0, 64, 56
1, 120547, Note_off_c, 0, 64, 39
1, 120548, Control_c, 0, 64, 56
1, 120562, Control_c, 0, 64, 55
1, 120577, Control_c, 0, 64, 55
1, 120592, Control_c, 0, 64, 53
1, 120607, Control_c, 0, 64, 51
1, 120622, Control_c, 0, 64, 48
1, 120637, Control_c, 0, 64, 44
1, 120651, Control_c, 0, 64, 35
1, 120666, Control_c, 0, 64, 22
1, 120681, Control_c, 0, 64, 0
1, 120710, Note_on_c, 0, 69, 41
1, 120740, Control_c, 0, 64, 23
1, 120755, Control_c, 0, 64, 32
1, 120769, Control_c, 0, 64, 39
1, 120784, Control_c, 0, 64, 46
1, 120799, Control_c, 0, 64, 52
1, 120814, Control_c, 0, 64, 55
1, 120819, Note_off_c, 0, 57, 40
1, 120829, Control_c, 0, 64, 57
1, 120845, Control_c, 0, 64, 58
1, 120860, Control_c, 0, 64, 59
1, 120874, Control_c, 0, 64, 59
1, 120880, Note_on_c, 0, 76, 70
1, 120901, Note_on_c, 0, 61, 53
1, 120907, Note_off_c, 0, 62, 36
1, 120919, Control_c, 0, 64, 60
1, 120930, Note_off_c, 0, 78, 62
1, 120940, Note_off_c, 0, 61, 66
1, 120948, Control_c, 0, 64, 60
1, 120963, Control_c, 0, 64, 61
1, 120968, Note_off_c, 0, 69, 55
1, 121074, Control_c, 0, 64, 60
1, 121104, Control_c, 0, 64, 60
1, 121119, Control_c, 0, 64, 59
1, 121134, Control_c, 0, 64, 59
1, 121147, Note_on_c, 0, 49, 40
1, 121148, Control_c, 0, 64, 58
1, 121152, Note_on_c, 0, 78, 67
1, 121156, Note_on_c, 0, 61, 22
1, 121163, Control_c, 0, 64, 56
1, 121178, Control_c, 0, 64, 53
1, 121188, Note_off_c, 0, 76, 64
1, 121192, Control_c, 0, 64, 48
1, 121207, Control_c, 0, 64, 42
1, 121222, Control_c, 0, 64, 31
1, 121237, Control_c, 0, 64, 12
1, 121252, Control_c, 0, 64, 0
1, 121311, Control_c, 0, 64, 18
1, 121326, Control_c, 0, 64, 29
1, 121341, Control_c, 0, 64, 36
1, 121355, Control_c, 0, 64, 42
1, 121370, Control_c, 0, 64, 48
1, 121385, Control_c, 0, 64, 52
1, 121400, Control_c, 0, 64, 55
1, 121401, Note_off_c, 0, 49, 40
1, 121415, Control_c, 0, 64, 57
1, 121421, Note_on_c, 0, 69, 52
1, 121430, Control_c, 0, 64, 57
1, 121443, Note_off_c, 0, 78, 63
1, 121460, Control_c, 0, 64, 58
1, 121474, Control_c, 0, 64, 58
1, 121489, Control_c, 0, 64, 59
1, 121504, Control_c, 0, 64, 59
1, 121627, Note_on_c, 0, 76, 64
1, 121647, Note_on_c, 0, 50, 35
1, 121686, Note_off_c, 0, 50, 51
1, 121687, Note_off_c, 0, 61, 45
1, 121701, Note_off_c, 0, 76, 61
1, 121712, Control_c, 0, 64, 59
1, 121742, Control_c, 0, 64, 58
1, 121809, Control_c, 0, 64, 58
1, 121823, Control_c, 0, 64, 57
1, 121838, Control_c, 0, 64, 57
1, 121853, Control_c, 0, 64, 56
1, 121868, Control_c, 0, 64, 55
1, 121883, Control_c, 0, 64, 55
1, 121897, Control_c, 0, 64, 54
1, 121912, Control_c, 0, 64, 54
1, 121927, Control_c, 0, 64, 52
1, 121928, Note_on_c, 0, 61, 35
1, 121940, Note_on_c, 0, 76, 60
1, 121940, Note_on_c, 0, 52, 41
1, 121941, Control_c, 0, 64, 49
1, 121956, Control_c, 0, 64, 42
1, 121971, Control_c, 0, 64, 30
1, 121973, Note_off_c, 0, 69, 61
1, 121986, Control_c, 0, 64, 0
1, 122045, Control_c, 0, 64, 11
1, 122060, Control_c, 0, 64, 26
1, 122075, Control_c, 0, 64, 34
1, 122090, Control_c, 0, 64, 42
1, 122104, Control_c, 0, 64, 48
1, 122119, Control_c, 0, 64, 52
1, 122134, Control_c, 0, 64, 55
1, 122148, Control_c, 0, 64, 56
1, 122193, Control_c, 0, 64, 56
1, 122223, Note_off_c, 0, 61, 43
1, 122238, Control_c, 0, 64, 55
1, 122250, Note_on_c, 0, 73, 54
1, 122253, Note_on_c, 0, 57, 39
1, 122253, Control_c, 0, 64, 52
1, 122268, Control_c, 0, 64, 46
1, 122277, Note_on_c, 0, 64, 31
1, 122282, Control_c, 0, 64, 32
1, 122285, Note_off_c, 0, 76, 47
1, 122297, Control_c, 0, 64, 0
1, 122371, Control_c, 0, 64, 22
1, 122386, Control_c, 0, 64, 31
1, 122401, Control_c, 0, 64, 39
1, 122414, Note_off_c, 0, 64, 40
1, 122415, Control_c, 0, 64, 45
1, 122422, Note_off_c, 0, 73, 62
1, 122430, Control_c, 0, 64, 50
1, 122446, Control_c, 0, 64, 54
1, 122453, Note_off_c, 0, 57, 36
1, 122461, Control_c, 0, 64, 57
1, 122476, Control_c, 0, 64, 58
1, 122491, Control_c, 0, 64, 59
1, 122542, Control_c, 0, 64, 58
1, 122587, Control_c, 0, 64, 58
1, 122601, Control_c, 0, 64, 57
1, 122616, Control_c, 0, 64, 56
1, 122631, Control_c, 0, 64, 55
1, 122646, Control_c, 0, 64, 54
1, 122660, Note_on_c, 0, 71, 43
1, 122661, Control_c, 0, 64, 53
1, 122676, Control_c, 0, 64, 51
1, 122680, Note_on_c, 0, 56, 34
1, 122682, Note_on_c, 0, 64, 35
1, 122691, Control_c, 0, 64, 48
1, 122706, Control_c, 0, 64, 44
1, 122720, Control_c, 0, 64, 37
1, 122735, Control_c, 0, 64, 28
1, 122750, Control_c, 0, 64, 0
1, 122883, Control_c, 0, 64, 24
1, 122898, Control_c, 0, 64, 34
1, 122912, Control_c, 0, 64, 42
1, 122927, Control_c, 0, 64, 50
1, 122942, Control_c, 0, 64, 57
1, 122946, Note_off_c, 0, 71, 50
1, 122953, Note_off_c, 0, 64, 42
1, 122957, Control_c, 0, 64, 60
1, 122971, Control_c, 0, 64, 61
1, 122975, Note_off_c, 0, 52, 41
1, 122986, Control_c, 0, 64, 62
1, 123064, Note_off_c, 0, 56, 45
1, 123179, Control_c, 0, 64, 61
1, 123194, Control_c, 0, 64, 61
1, 123209, Control_c, 0, 64, 60
1, 123224, Control_c, 0, 64, 59
1, 123239, Control_c, 0, 64, 58
1, 123254, Control_c, 0, 64, 58
1, 123276, Control_c, 0, 64, 57
1, 123291, Control_c, 0, 64, 56
1, 123306, Control_c, 0, 64, 54
1, 123321, Control_c, 0, 64, 52
1, 123336, Control_c, 0, 64, 51
1, 123350, Control_c, 0, 64, 51
1, 123365, Control_c, 0, 64, 50
1, 123380, Control_c, 0, 64, 48
1, 123394, Control_c, 0, 64, 47
1, 123409, Control_c, 0, 64, 46
1, 123424, Control_c, 0, 64, 45
1, 123439, Control_c, 0, 64, 45
1, 123454, Control_c, 0, 64, 43
1, 123469, Control_c, 0, 64, 42
1, 123484, Control_c, 0, 64, 41
1, 123499, Control_c, 0, 64, 40
1, 123514, Control_c, 0, 64, 39
1, 123528, Control_c, 0, 64, 37
1, 123543, Control_c, 0, 64, 35
1, 123558, Control_c, 0, 64, 34
1, 123573, Control_c, 0, 64, 32
1, 123587, Control_c, 0, 64, 30
1, 123602, Control_c, 0, 64, 28
1, 123617, Control_c, 0, 64, 26
1, 123632, Control_c, 0, 64, 24
1, 123647, Control_c, 0, 64, 22
1, 123661, Control_c, 0, 64, 19
1, 123676, Control_c, 0, 64, 16
1, 123691, Control_c, 0, 64, 14
1, 123706, Control_c, 0, 64, 13
1, 123720, Control_c, 0, 64, 11
1, 123735, Control_c, 0, 64, 0
1, 124306, Control_c, 0, 64, 8
1, 124321, Control_c, 0, 64, 14
1, 124335, Control_c, 0, 64, 17
1, 124350, Control_c, 0, 64, 20
1, 124365, Control_c, 0, 64, 22
1, 124380, Control_c, 0, 64, 26
1, 124395, Control_c, 0, 64, 30
1, 124409, Control_c, 0, 64, 34
1, 124424, Control_c, 0, 64, 37
1, 124439, Control_c, 0, 64, 39
1, 124454, Control_c, 0, 64, 41
1, 124469, Control_c, 0, 64, 43
1, 124483, Control_c, 0, 64, 45
1, 124498, Control_c, 0, 64, 47
1, 124513, Control_c, 0, 64, 49
1, 124528, Control_c, 0, 64, 51
1, 124542, Control_c, 0, 64, 53
1, 124557, Control_c, 0, 64, 55
1, 124572, Control_c, 0, 64, 58
1, 124587, Control_c, 0, 64, 59
1, 124602, Control_c, 0, 64, 60
1, 124617, Control_c, 0, 64, 60
1, 124631, Control_c, 0, 64, 61
1, 124646, Control_c, 0, 64, 62
1, 124661, Control_c, 0, 64, 62
1, 124676, Control_c, 0, 64, 63
1, 124691, Control_c, 0, 64, 63
1, 124721, Control_c, 0, 64, 64
1, 124750, Control_c, 0, 64, 64
1, 124772, Control_c, 0, 64, 65
1, 124834, Note_on_c, 0, 76, 52
1, 124834, Note_on_c, 0, 61, 34
1, 124862, Control_c, 0, 64, 65
1, 124881, Note_off_c, 0, 76, 60
1, 125277, Note_on_c, 0, 76, 41
1, 125288, Note_on_c, 0, 52, 35
1, 125288, Note_on_c, 0, 64, 19
1, 125292, Control_c, 0, 64, 65
1, 125320, Note_off_c, 0, 76, 0
1, 125320, Note_on_c, 0, 76, 11
1, 125427, Note_off_c, 0, 61, 46
1, 125483, Control_c, 0, 64, 64
1, 125564, Note_on_c, 0, 57, 30
1, 125568, Note_on_c, 0, 73, 49
1, 125594, Control_c, 0, 64, 64
1, 125655, Control_c, 0, 64, 63
1, 125714, Control_c, 0, 64, 63
1, 125729, Control_c, 0, 64, 62
1, 125743, Control_c, 0, 64, 62
1, 125758, Control_c, 0, 64, 61
1, 125773, Control_c, 0, 64, 61
1, 125788, Control_c, 0, 64, 60
1, 125803, Control_c, 0, 64, 60
1, 125818, Control_c, 0, 64, 58
1, 125833, Control_c, 0, 64, 56
1, 125848, Control_c, 0, 64, 54
1, 125862, Control_c, 0, 64, 50
1, 125877, Control_c, 0, 64, 46
1, 125892, Control_c, 0, 64, 41
1, 125906, Control_c, 0, 64, 36
1, 125908, Note_on_c, 0, 56, 26
1, 125908, Note_on_c, 0, 71, 36
1, 125921, Control_c, 0, 64, 30
1, 125926, Note_off_c, 0, 57, 35
1, 125935, Note_off_c, 0, 73, 40
1, 125936, Control_c, 0, 64, 22
1, 125951, Control_c, 0, 64, 0
1, 126118, Note_off_c, 0, 76, 38
1, 126128, Control_c, 0, 64, 20
1, 126143, Control_c, 0, 64, 30
1, 126158, Control_c, 0, 64, 39
1, 126173, Control_c, 0, 64, 47
1, 126187, Control_c, 0, 64, 54
1, 126202, Control_c, 0, 64, 58
1, 126217, Control_c, 0, 64, 60
1, 126232, Note_off_c, 0, 64, 38
1, 126232, Control_c, 0, 64, 61
1, 126271, Note_off_c, 0, 52, 43
1, 126295, Note_off_c, 0, 71, 47
1, 126322, Note_off_c, 0, 56, 44
1, 126448, Control_c, 0, 64, 60
1, 126463, Control_c, 0, 64, 60
1, 126478, Control_c, 0, 64, 59
1, 126492, Control_c, 0, 64, 59
1, 126507, Control_c, 0, 64, 58
1, 126522, Control_c, 0, 64, 57
1, 126536, Control_c, 0, 64, 54
1, 126551, Control_c, 0, 64, 51
1, 126566, Control_c, 0, 64, 45
1, 126581, Control_c, 0, 64, 38
1, 126596, Control_c, 0, 64, 31
1, 126611, Control_c, 0, 64, 24
1, 126626, Control_c, 0, 64, 15
1, 126641, Control_c, 0, 64, 0
1, 126967, Control_c, 0, 67, 124
1, 126982, Control_c, 0, 67, 114
1, 126997, Control_c, 0, 67, 102
1, 127019, Control_c, 0, 67, 91
1, 127034, Control_c, 0, 67, 79
1, 127049, Control_c, 0, 67, 68
1, 127064, Control_c, 0, 64, 16
1, 127064, Control_c, 0, 67, 59
1, 127079, Control_c, 0, 64, 21
1, 127079, Control_c, 0, 67, 50
1, 127093, Control_c, 0, 64, 25
1, 127093, Control_c, 0, 67, 42
1, 127108, Control_c, 0, 64, 29
1, 127108, Control_c, 0, 67, 36
1, 127123, Control_c, 0, 64, 32
1, 127123, Control_c, 0, 67, 31
1, 127137, Control_c, 0, 64, 36
1, 127137, Control_c, 0, 67, 26
1, 127152, Control_c, 0, 64, 41
1, 127152, Control_c, 0, 67, 23
1, 127167, Control_c, 0, 64, 46
1, 127167, Control_c, 0, 67, 19
1, 127182, Control_c, 0, 64, 50
1, 127182, Control_c, 0, 67, 16
1, 127197, Control_c, 0, 64, 53
1, 127197, Control_c, 0, 67, 14
1, 127211, Control_c, 0, 64, 55
1, 127211, Control_c, 0, 67, 12
1, 127226, Control_c, 0, 64, 57
1, 127226, Control_c, 0, 67, 11
1, 127242, Control_c, 0, 64, 59
1, 127242, Control_c, 0, 67, 9
1, 127257, Control_c, 0, 64, 60
1, 127257, Control_c, 0, 67, 9
1, 127272, Control_c, 0, 64, 60
1, 127272, Control_c, 0, 67, 8
1, 127287, Control_c, 0, 64, 61
1, 127287, Control_c, 0, 67, 8
1, 127302, Control_c, 0, 64, 61
1, 127316, Control_c, 0, 64, 62
1, 127346, Control_c, 0, 64, 62
1, 127351, Note_on_c, 0, 78, 69
1, 127360, Control_c, 0, 64, 63
1, 127365, Note_on_c, 0, 62, 44
1, 127375, Control_c, 0, 64, 63
1, 127390, Control_c, 0, 64, 64
1, 127398, Note_off_c, 0, 78, 64
1, 127405, Control_c, 0, 64, 65
1, 127420, Control_c, 0, 64, 65
1, 127449, Control_c, 0, 64, 66
1, 127479, Control_c, 0, 64, 66
1, 127508, Control_c, 0, 64, 67
1, 127553, Control_c, 0, 64, 67
1, 127672, Control_c, 0, 64, 68
1, 127705, Note_on_c, 0, 78, 77
1, 127720, Note_on_c, 0, 66, 53
1, 127731, Control_c, 0, 67, 0
1, 127767, Control_c, 0, 64, 68
1, 127797, Control_c, 0, 64, 69
1, 127827, Control_c, 0, 64, 69
1, 127857, Control_c, 0, 64, 70
1, 127872, Note_off_c, 0, 66, 54
1, 127872, Control_c, 0, 64, 70
1, 127891, Note_on_c, 0, 74, 61
1, 127901, Note_off_c, 0, 62, 58
1, 127902, Note_off_c, 0, 78, 58
1, 127913, Note_on_c, 0, 59, 46
1, 127931, Control_c, 0, 64, 71
1, 128017, Note_off_c, 0, 74, 62
1, 128022, Note_on_c, 0, 73, 71
1, 128039, Note_off_c, 0, 59, 61
1, 128077, Note_off_c, 0, 73, 63
1, 128113, Poly_aftertouch_c, 0, 57, 127
1, 128125, Control_c, 0, 64, 68
1, 128139, Control_c, 0, 64, 63
1, 128141, Poly_aftertouch_c, 0, 57, 0
1, 128148, Note_on_c, 0, 66, 70
1, 128149, Note_on_c, 0, 81, 92
1, 128154, Control_c, 0, 64, 56
1, 128156, Note_on_c, 0, 69, 77
1, 128169, Control_c, 0, 64, 44
1, 128183, Control_c, 0, 64, 29
1, 128198, Control_c, 0, 64, 25
1, 128213, Control_c, 0, 64, 31
1, 128220, Note_off_c, 0, 69, 60
1, 128228, Control_c, 0, 64, 39
1, 128243, Control_c, 0, 64, 47
1, 128250, Note_on_c, 0, 78, 72
1, 128257, Control_c, 0, 64, 54
1, 128259, Note_off_c, 0, 81, 55
1, 128261, Note_off_c, 0, 66, 61
1, 128272, Control_c, 0, 64, 58
1, 128283, Note_on_c, 0, 62, 59
1, 128287, Control_c, 0, 64, 61
1, 128301, Control_c, 0, 64, 63
1, 128316, Control_c, 0, 64, 64
1, 128322, Note_on_c, 0, 76, 76
1, 128327, Note_off_c, 0, 78, 62
1, 128331, Control_c, 0, 64, 66
1, 128343, Note_on_c, 0, 61, 41
1, 128344, Note_off_c, 0, 62, 62
1, 128346, Control_c, 0, 64, 68
1, 128361, Control_c, 0, 64, 68
1, 128366, Note_off_c, 0, 76, 67
1, 128373, Note_off_c, 0, 61, 54
1, 128375, Control_c, 0, 64, 67
1, 128390, Control_c, 0, 64, 63
1, 128405, Control_c, 0, 64, 55
1, 128412, Note_on_c, 0, 85, 90
1, 128413, Note_on_c, 0, 73, 84
1, 128417, Note_on_c, 0, 69, 80
1, 128420, Control_c, 0, 64, 41
1, 128435, Control_c, 0, 64, 30
1, 128450, Control_c, 0, 64, 33
1, 128465, Control_c, 0, 64, 43
1, 128470, Note_off_c, 0, 73, 62
1, 128480, Control_c, 0, 64, 57
1, 128483, Note_off_c, 0, 85, 64
1, 128486, Note_off_c, 0, 69, 61
1, 128487, Note_on_c, 0, 81, 79
1, 128495, Control_c, 0, 64, 65
1, 128510, Note_on_c, 0, 66, 67
1, 128516, Control_c, 0, 64, 71
1, 128531, Control_c, 0, 64, 73
1, 128563, Note_off_c, 0, 66, 63
1, 128564, Note_on_c, 0, 64, 46
1, 128564, Note_on_c, 0, 80, 80
1, 128573, Note_off_c, 0, 81, 64
1, 128589, Note_off_c, 0, 64, 57
1, 128607, Note_off_c, 0, 80, 63
1, 128620, Control_c, 0, 64, 74
1, 128635, Control_c, 0, 64, 75
1, 128650, Control_c, 0, 64, 76
1, 128754, Control_c, 0, 64, 74
1, 128763, Note_on_c, 0, 74, 61
1, 128767, Note_on_c, 0, 64, 49
1, 128769, Control_c, 0, 64, 69
1, 128772, Note_on_c, 0, 71, 53
1, 128772, Note_on_c, 0, 68, 49
1, 128778, Note_on_c, 0, 88, 94
1, 128782, Note_on_c, 0, 76, 84
1, 128783, Control_c, 0, 64, 62
1, 128798, Control_c, 0, 64, 48
1, 128813, Control_c, 0, 64, 0
1, 128893, Note_off_c, 0, 76, 49
1, 128903, Control_c, 0, 64, 29
1, 128918, Control_c, 0, 64, 41
1, 128932, Control_c, 0, 64, 50
1, 128947, Control_c, 0, 64, 57
1, 128960, Note_on_c, 0, 87, 64
1, 128962, Control_c, 0, 64, 64
1, 128975, Note_off_c, 0, 74, 58
1, 128977, Control_c, 0, 64, 68
1, 128980, Note_off_c, 0, 88, 58
1, 128992, Control_c, 0, 64, 71
1, 128999, Note_off_c, 0, 71, 59
1, 129002, Note_off_c, 0, 68, 56
1, 129006, Control_c, 0, 64, 73
1, 129011, Note_off_c, 0, 87, 66
1, 129021, Control_c, 0, 64, 74
1, 129025, Note_off_c, 0, 64, 59
1, 129036, Control_c, 0, 64, 75
1, 129046, Note_on_c, 0, 86, 59
1, 129051, Control_c, 0, 64, 77
1, 129066, Control_c, 0, 64, 78
1, 129080, Control_c, 0, 64, 81
1, 129095, Control_c, 0, 64, 85
1, 129096, Note_off_c, 0, 86, 62
1, 129097, Note_on_c, 0, 85, 69
1, 129110, Control_c, 0, 64, 91
1, 129124, Note_off_c, 0, 85, 65
1, 129124, Control_c, 0, 64, 96
1, 129139, Control_c, 0, 64, 98
1, 129143, Note_on_c, 0, 83, 64
1, 129154, Control_c, 0, 64, 99
1, 129169, Note_off_c, 0, 83, 69
1, 129169, Control_c, 0, 64, 101
1, 129184, Control_c, 0, 64, 108
1, 129198, Control_c, 0, 64, 122
1, 129202, Note_on_c, 0, 81, 64
1, 129213, Control_c, 0, 64, 127
1, 129237, Note_off_c, 0, 81, 64
1, 129242, Note_on_c, 0, 80, 75
1, 129294, Note_on_c, 0, 78, 69
1, 129302, Note_off_c, 0, 80, 63
1, 129315, Note_off_c, 0, 78, 70
1, 129323, Control_c, 0, 67, 11
1, 129338, Control_c, 0, 64, 99
1, 129338, Control_c, 0, 67, 19
1, 129343, Note_on_c, 0, 76, 66
1, 129353, Control_c, 0, 64, 63
1, 129353, Control_c, 0, 67, 39
1, 129368, Control_c, 0, 64, 37
1, 129368, Control_c, 0, 67, 70
1, 129379, Note_off_c, 0, 76, 63
1, 129383, Control_c, 0, 64, 0
1, 129383, Control_c, 0, 67, 111
1, 129385, Note_on_c, 0, 74, 60
1, 129398, Control_c, 0, 67, 127
1, 129510, Note_off_c, 0, 74, 63
1, 129529, Note_on_c, 0, 76, 55
1, 129546, Control_c, 0, 64, 17
1, 129561, Control_c, 0, 64, 28
1, 129574, Note_off_c, 0, 76, 59
1, 129576, Control_c, 0, 64, 37
1, 129591, Control_c, 0, 64, 47
1, 129594, Note_on_c, 0, 74, 51
1, 129605, Control_c, 0, 64, 56
1, 129620, Control_c, 0, 64, 62
1, 129635, Note_off_c, 0, 74, 65
1, 129636, Control_c, 0, 64, 65
1, 129651, Control_c, 0, 64, 67
1, 129655, Note_on_c, 0, 76, 58
1, 129666, Control_c, 0, 64, 69
1, 129681, Control_c, 0, 64, 71
1, 129681, Note_off_c, 0, 76, 63
1, 129696, Control_c, 0, 64, 74
1, 129697, Note_on_c, 0, 74, 50
1, 129710, Control_c, 0, 64, 78
1, 129725, Control_c, 0, 64, 82
1, 129732, Note_off_c, 0, 74, 62
1, 129733, Note_on_c, 0, 76, 59
1, 129740, Control_c, 0, 64, 86
1, 129754, Control_c, 0, 64, 88
1, 129760, Note_off_c, 0, 76, 67
1, 129769, Control_c, 0, 64, 92
1, 129780, Note_on_c, 0, 74, 65
1, 129784, Control_c, 0, 64, 96
1, 129799, Control_c, 0, 64, 101
1, 129814, Control_c, 0, 64, 105
1, 129824, Note_off_c, 0, 74, 61
1, 129828, Control_c, 0, 64, 108
1, 129833, Note_on_c, 0, 76, 69
1, 129843, Control_c, 0, 64, 110
1, 129858, Control_c, 0, 64, 113
1, 129873, Control_c, 0, 64, 117
1, 129878, Note_off_c, 0, 76, 61
1, 129888, Control_c, 0, 64, 127
1, 129893, Note_on_c, 0, 74, 59
1, 129931, Note_off_c, 0, 74, 61
1, 129943, Note_on_c, 0, 76, 61
1, 129973, Note_off_c, 0, 76, 66
1, 130004, Note_on_c, 0, 74, 63
1, 130032, Note_off_c, 0, 74, 68
1, 130053, Note_on_c, 0, 76, 61
1, 130074, Note_off_c, 0, 76, 63
1, 130101, Note_on_c, 0, 74, 64
1, 130137, Note_off_c, 0, 74, 61
1, 130142, Note_on_c, 0, 76, 74
1, 130175, Note_off_c, 0, 76, 59
1, 130200, Note_on_c, 0, 74, 59
1, 130236, Control_c, 0, 67, 125
1, 130239, Note_off_c, 0, 74, 64
1, 130246, Note_on_c, 0, 76, 69
1, 130251, Control_c, 0, 67, 117
1, 130266, Control_c, 0, 67, 108
1, 130280, Note_off_c, 0, 76, 61
1, 130280, Control_c, 0, 67, 100
1, 130295, Control_c, 0, 67, 94
1, 130305, Note_on_c, 0, 74, 56
1, 130310, Control_c, 0, 67, 89
1, 130325, Control_c, 0, 67, 84
1, 130327, Note_off_c, 0, 74, 65
1, 130340, Control_c, 0, 67, 81
1, 130345, Note_on_c, 0, 76, 63
1, 130355, Control_c, 0, 67, 78
1, 130370, Control_c, 0, 67, 74
1, 130372, Note_off_c, 0, 76, 68
1, 130385, Control_c, 0, 67, 71
1, 130398, Note_on_c, 0, 74, 66
1, 130399, Control_c, 0, 67, 68
1, 130414, Control_c, 0, 67, 65
1, 130425, Note_off_c, 0, 74, 68
1, 130430, Control_c, 0, 67, 63
1, 130435, Note_on_c, 0, 76, 77
1, 130445, Control_c, 0, 67, 59
1, 130459, Control_c, 0, 67, 54
1, 130474, Control_c, 0, 67, 51
1, 130477, Note_off_c, 0, 76, 62
1, 130489, Control_c, 0, 67, 49
1, 130493, Note_on_c, 0, 74, 60
1, 130504, Control_c, 0, 67, 48
1, 130513, Note_on_c, 0, 76, 56
1, 130518, Note_off_c, 0, 74, 70
1, 130519, Control_c, 0, 67, 47
1, 130534, Control_c, 0, 67, 46
1, 130549, Control_c, 0, 67, 45
1, 130564, Note_off_c, 0, 76, 66
1, 130577, Note_on_c, 0, 74, 63
1, 130608, Note_on_c, 0, 76, 55
1, 130623, Control_c, 0, 67, 46
1, 130652, Control_c, 0, 67, 47
1, 130667, Control_c, 0, 67, 47
1, 130690, Note_off_c, 0, 74, 25
1, 130696, Control_c, 0, 67, 48
1, 130711, Control_c, 0, 67, 48
1, 130719, Note_off_c, 0, 76, 66
1, 130721, Note_on_c, 0, 74, 50
1, 130726, Control_c, 0, 67, 49
1, 130741, Control_c, 0, 67, 49
1, 130763, Control_c, 0, 67, 50
1, 130772, Note_off_c, 0, 74, 63
1, 130778, Control_c, 0, 67, 51
1, 130793, Control_c, 0, 67, 52
1, 130808, Control_c, 0, 67, 53
1, 130820, Note_on_c, 0, 75, 74
1, 130823, Control_c, 0, 67, 54
1, 130838, Control_c, 0, 67, 54
1, 130852, Control_c, 0, 67, 56
1, 130867, Control_c, 0, 64, 92
1, 130867, Control_c, 0, 67, 58
1, 130882, Control_c, 0, 64, 69
1, 130882, Control_c, 0, 67, 59
1, 130897, Control_c, 0, 64, 57
1, 130897, Control_c, 0, 67, 61
1, 130911, Control_c, 0, 64, 35
1, 130911, Control_c, 0, 67, 63
1, 130926, Control_c, 0, 64, 0
1, 130926, Control_c, 0, 67, 64
1, 130941, Control_c, 0, 67, 66
1, 130956, Control_c, 0, 67, 67
1, 131000, Control_c, 0, 64, 26
1, 131015, Control_c, 0, 64, 36
1, 131016, Note_on_c, 0, 76, 55
1, 131030, Control_c, 0, 64, 47
1, 131032, Note_off_c, 0, 75, 58
1, 131045, Control_c, 0, 64, 57
1, 131045, Control_c, 0, 67, 66
1, 131059, Control_c, 0, 64, 65
1, 131069, Note_off_c, 0, 76, 62
1, 131074, Control_c, 0, 64, 75
1, 131074, Control_c, 0, 67, 66
1, 131089, Control_c, 0, 64, 81
1, 131089, Control_c, 0, 67, 65
1, 131100, Note_on_c, 0, 75, 48
1, 131103, Control_c, 0, 64, 82
1, 131118, Control_c, 0, 64, 83
1, 131118, Control_c, 0, 67, 64
1, 131133, Control_c, 0, 64, 86
1, 131143, Note_off_c, 0, 75, 61
1, 131148, Control_c, 0, 64, 90
1, 131148, Control_c, 0, 67, 64
1, 131163, Control_c, 0, 64, 95
1, 131163, Control_c, 0, 67, 63
1, 131164, Note_on_c, 0, 76, 51
1, 131177, Control_c, 0, 64, 99
1, 131177, Control_c, 0, 67, 63
1, 131192, Control_c, 0, 64, 103
1, 131192, Control_c, 0, 67, 62
1, 131202, Note_off_c, 0, 76, 55
1, 131207, Control_c, 0, 64, 105
1, 131207, Control_c, 0, 67, 62
1, 131222, Control_c, 0, 64, 108
1, 131222, Control_c, 0, 67, 61
1, 131228, Note_on_c, 0, 75, 50
1, 131238, Control_c, 0, 64, 110
1, 131238, Control_c, 0, 67, 61
1, 131253, Control_c, 0, 64, 114
1, 131253, Control_c, 0, 67, 60
1, 131260, Note_off_c, 0, 75, 64
1, 131268, Control_c, 0, 64, 127
1, 131275, Note_on_c, 0, 76, 60
1, 131282, Control_c, 0, 67, 60
1, 131297, Control_c, 0, 67, 59
1, 131309, Note_off_c, 0, 76, 61
1, 131312, Control_c, 0, 67, 59
1, 131327, Control_c, 0, 67, 58
1, 131341, Note_on_c, 0, 75, 59
1, 131341, Control_c, 0, 67, 58
1, 131356, Control_c, 0, 67, 57
1, 131366, Note_off_c, 0, 75, 64
1, 131371, Control_c, 0, 67, 57
1, 131386, Control_c, 0, 67, 56
1, 131389, Note_on_c, 0, 76, 54
1, 131401, Control_c, 0, 67, 56
1, 131410, Note_off_c, 0, 76, 65
1, 131416, Control_c, 0, 67, 55
1, 131431, Control_c, 0, 67, 54
1, 131435, Note_on_c, 0, 75, 63
1, 131446, Control_c, 0, 67, 53
1, 131461, Control_c, 0, 67, 50
1, 131466, Note_off_c, 0, 75, 63
1, 131475, Control_c, 0, 67, 47
1, 131489, Note_on_c, 0, 76, 56
1, 131490, Control_c, 0, 67, 45
1, 131512, Control_c, 0, 67, 43
1, 131520, Note_off_c, 0, 76, 65
1, 131526, Control_c, 0, 67, 42
1, 131538, Note_on_c, 0, 75, 62
1, 131541, Control_c, 0, 67, 40
1, 131556, Control_c, 0, 67, 37
1, 131571, Control_c, 0, 67, 34
1, 131572, Note_off_c, 0, 75, 62
1, 131586, Control_c, 0, 67, 31
1, 131595, Note_on_c, 0, 76, 62
1, 131601, Control_c, 0, 67, 29
1, 131616, Control_c, 0, 67, 27
1, 131622, Note_off_c, 0, 76, 67
1, 131631, Control_c, 0, 67, 25
1, 131634, Note_on_c, 0, 75, 61
1, 131645, Control_c, 0, 67, 22
1, 131660, Control_c, 0, 67, 18
1, 131674, Note_off_c, 0, 75, 60
1, 131675, Control_c, 0, 67, 15
1, 131684, Note_on_c, 0, 76, 64
1, 131690, Control_c, 0, 67, 13
1, 131705, Control_c, 0, 67, 12
1, 131719, Note_off_c, 0, 76, 64
1, 131720, Control_c, 0, 67, 11
1, 131730, Note_on_c, 0, 75, 65
1, 131734, Control_c, 0, 67, 10
1, 131749, Control_c, 0, 67, 8
1, 131764, Control_c, 0, 67, 0
1, 131776, Note_off_c, 0, 75, 62
1, 131780, Note_on_c, 0, 76, 61
1, 131829, Note_off_c, 0, 76, 65
1, 131836, Note_on_c, 0, 75, 63
1, 131870, Poly_aftertouch_c, 0, 76, 0
1, 131879, Note_on_c, 0, 76, 62
1, 131881, Note_off_c, 0, 75, 60
1, 131935, Note_off_c, 0, 76, 65
1, 131951, Note_on_c, 0, 75, 61
1, 131972, Poly_aftertouch_c, 0, 76, 0
1, 131980, Note_on_c, 0, 76, 63
1, 131982, Note_off_c, 0, 75, 63
1, 132027, Note_off_c, 0, 76, 65
1, 132066, Note_on_c, 0, 76, 59
1, 132091, Note_off_c, 0, 76, 68
1, 132098, Note_on_c, 0, 75, 72
1, 132121, Note_off_c, 0, 75, 69
1, 132189, Note_on_c, 0, 76, 77
1, 132261, Control_c, 0, 64, 90
1, 132275, Control_c, 0, 64, 73
1, 132290, Control_c, 0, 64, 61
1, 132305, Control_c, 0, 64, 42
1, 132320, Control_c, 0, 64, 0
1, 132394, Control_c, 0, 64, 18
1, 132409, Control_c, 0, 64, 35
1, 132410, Note_off_c, 0, 76, 65
1, 132419, Note_on_c, 0, 78, 45
1, 132424, Control_c, 0, 64, 45
1, 132438, Control_c, 0, 64, 55
1, 132453, Control_c, 0, 64, 63
1, 132468, Note_off_c, 0, 78, 49
1, 132468, Control_c, 0, 64, 73
1, 132483, Control_c, 0, 64, 83
1, 132498, Control_c, 0, 64, 87
1, 132512, Note_on_c, 0, 76, 52
1, 132513, Control_c, 0, 64, 89
1, 132528, Control_c, 0, 64, 93
1, 132539, Note_off_c, 0, 76, 57
1, 132543, Control_c, 0, 64, 103
1, 132557, Control_c, 0, 64, 117
1, 132566, Note_on_c, 0, 78, 59
1, 132572, Control_c, 0, 64, 127
1, 132599, Note_off_c, 0, 78, 67
1, 132625, Note_on_c, 0, 76, 60
1, 132661, Note_off_c, 0, 76, 61
1, 132683, Note_on_c, 0, 78, 66
1, 132708, Note_off_c, 0, 78, 65
1, 132745, Note_on_c, 0, 76, 62
1, 132771, Note_off_c, 0, 76, 60
1, 132784, Note_on_c, 0, 78, 71
1, 132816, Note_off_c, 0, 78, 67
1, 132844, Note_on_c, 0, 76, 67
1, 132877, Note_off_c, 0, 76, 60
1, 132892, Note_on_c, 0, 78, 68
1, 132915, Note_off_c, 0, 78, 66
1, 132948, Note_on_c, 0, 76, 69
1, 132975, Note_off_c, 0, 76, 61
1, 132980, Note_on_c, 0, 78, 80
1, 133020, Note_off_c, 0, 78, 61
1, 133049, Note_on_c, 0, 76, 74
1, 133082, Note_off_c, 0, 76, 62
1, 133086, Note_on_c, 0, 78, 80
1, 133114, Note_off_c, 0, 78, 64
1, 133145, Note_on_c, 0, 76, 74
1, 133172, Note_off_c, 0, 76, 60
1, 133180, Note_on_c, 0, 78, 78
1, 133209, Note_off_c, 0, 78, 64
1, 133240, Note_on_c, 0, 76, 76
1, 133267, Note_off_c, 0, 76, 60
1, 133273, Note_on_c, 0, 78, 82
1, 133309, Note_off_c, 0, 78, 60
1, 133335, Note_on_c, 0, 76, 69
1, 133361, Note_off_c, 0, 76, 59
1, 133371, Note_on_c, 0, 78, 82
1, 133401, Note_off_c, 0, 78, 65
1, 133427, Note_on_c, 0, 76, 72
1, 133461, Note_on_c, 0, 78, 79
1, 133462, Note_off_c, 0, 76, 59
1, 133500, Note_off_c, 0, 78, 62
1, 133517, Note_on_c, 0, 76, 68
1, 133550, Note_on_c, 0, 78, 78
1, 133557, Note_off_c, 0, 76, 64
1, 133595, Note_off_c, 0, 78, 64
1, 133611, Note_on_c, 0, 76, 64
1, 133645, Note_on_c, 0, 78, 82
1, 133655, Note_off_c, 0, 76, 64
1, 133696, Note_off_c, 0, 78, 65
1, 133702, Note_on_c, 0, 76, 65
1, 133764, Note_on_c, 0, 78, 86
1, 133767, Note_off_c, 0, 76, 64
1, 133774, Control_c, 0, 64, 110
1, 133780, Note_on_c, 0, 74, 90
1, 133785, Note_on_c, 0, 68, 79
1, 133787, Note_on_c, 0, 64, 74
1, 133787, Note_on_c, 0, 71, 74
1, 133789, Control_c, 0, 64, 59
1, 133795, Note_off_c, 0, 74, 75
1, 133803, Control_c, 0, 64, 0
1, 133806, Note_off_c, 0, 68, 69
1, 133809, Note_off_c, 0, 71, 71
1, 133810, Note_off_c, 0, 64, 69
1, 133812, Note_off_c, 0, 78, 67
1, 133830, Note_on_c, 0, 76, 79
1, 133893, Note_on_c, 0, 78, 73
1, 133899, Note_off_c, 0, 76, 61
1, 133972, Note_off_c, 0, 78, 65
1, 133988, Note_on_c, 0, 76, 62
1, 134012, Note_on_c, 0, 62, 96
1, 134014, Note_on_c, 0, 59, 81
1, 134017, Note_on_c, 0, 52, 84
1, 134024, Note_on_c, 0, 56, 59
1, 134031, Note_off_c, 0, 62, 74
1, 134033, Note_on_c, 0, 78, 76
1, 134034, Note_off_c, 0, 76, 65
1, 134036, Note_off_c, 0, 59, 69
1, 134038, Note_off_c, 0, 52, 72
1, 134040, Control_c, 0, 64, 41
1, 134045, Note_off_c, 0, 56, 63
1, 134054, Control_c, 0, 64, 52
1, 134069, Control_c, 0, 64, 60
1, 134084, Control_c, 0, 64, 66
1, 134085, Note_off_c, 0, 78, 64
1, 134099, Control_c, 0, 64, 78
1, 134113, Note_on_c, 0, 76, 65
1, 134114, Control_c, 0, 64, 91
1, 134129, Control_c, 0, 64, 94
1, 134143, Note_off_c, 0, 76, 63
1, 134143, Note_on_c, 0, 78, 66
1, 134158, Control_c, 0, 64, 95
1, 134173, Control_c, 0, 64, 96
1, 134188, Control_c, 0, 64, 103
1, 134190, Note_off_c, 0, 78, 62
1, 134203, Control_c, 0, 64, 122
1, 134217, Note_on_c, 0, 76, 67
1, 134218, Control_c, 0, 64, 127
1, 134242, Note_off_c, 0, 76, 56
1, 134256, Note_on_c, 0, 78, 68
1, 134284, Note_off_c, 0, 78, 68
1, 134310, Note_on_c, 0, 76, 72
1, 134336, Note_off_c, 0, 76, 58
1, 134336, Control_c, 0, 64, 80
1, 134346, Note_on_c, 0, 78, 83
1, 134351, Control_c, 0, 64, 56
1, 134366, Control_c, 0, 64, 0
1, 134381, Note_off_c, 0, 78, 63
1, 134397, Note_on_c, 0, 76, 80
1, 134436, Note_on_c, 0, 78, 82
1, 134440, Note_off_c, 0, 76, 64
1, 134441, Control_c, 0, 64, 38
1, 134456, Control_c, 0, 64, 54
1, 134470, Control_c, 0, 64, 63
1, 134478, Note_off_c, 0, 78, 65
1, 134485, Control_c, 0, 64, 68
1, 134487, Note_on_c, 0, 76, 63
1, 134507, Control_c, 0, 64, 73
1, 134522, Control_c, 0, 64, 75
1, 134537, Control_c, 0, 64, 76
1, 134538, Note_on_c, 0, 78, 81
1, 134543, Note_off_c, 0, 76, 68
1, 134552, Control_c, 0, 64, 79
1, 134567, Control_c, 0, 64, 84
1, 134580, Note_off_c, 0, 78, 64
1, 134582, Control_c, 0, 64, 92
1, 134597, Control_c, 0, 64, 99
1, 134598, Note_on_c, 0, 76, 72
1, 134611, Control_c, 0, 64, 103
1, 134626, Control_c, 0, 64, 108
1, 134630, Note_on_c, 0, 78, 79
1, 134638, Note_off_c, 0, 76, 65
1, 134641, Control_c, 0, 64, 117
1, 134656, Control_c, 0, 64, 127
1, 134673, Note_off_c, 0, 78, 64
1, 134685, Note_on_c, 0, 76, 78
1, 134725, Note_on_c, 0, 78, 89
1, 134731, Note_off_c, 0, 76, 66
1, 134765, Note_off_c, 0, 78, 67
1, 134783, Note_on_c, 0, 76, 82
1, 134819, Note_on_c, 0, 74, 40
1, 134823, Note_on_c, 0, 78, 89
1, 134826, Note_off_c, 0, 76, 68
1, 134849, Note_off_c, 0, 74, 59
1, 134862, Note_off_c, 0, 78, 66
1, 134878, Note_on_c, 0, 76, 85
1, 134921, Note_off_c, 0, 76, 68
1, 134922, Note_on_c, 0, 78, 87
1, 134963, Note_off_c, 0, 78, 64
1, 134978, Note_on_c, 0, 76, 89
1, 135020, Note_off_c, 0, 76, 67
1, 135024, Note_on_c, 0, 78, 83
1, 135063, Note_off_c, 0, 78, 62
1, 135083, Note_on_c, 0, 76, 88
1, 135126, Note_on_c, 0, 78, 91
1, 135127, Note_off_c, 0, 76, 67
1, 135184, Note_on_c, 0, 76, 77
1, 135189, Note_off_c, 0, 78, 66
1, 135258, Note_on_c, 0, 78, 96
1, 135258, Note_off_c, 0, 76, 60
1, 135259, Note_on_c, 0, 62, 94
1, 135260, Note_on_c, 0, 56, 87
1, 135260, Note_on_c, 0, 59, 86
1, 135267, Note_on_c, 0, 52, 81
1, 135271, Control_c, 0, 64, 62
1, 135276, Note_off_c, 0, 62, 74
1, 135279, Note_off_c, 0, 59, 69
1, 135282, Note_off_c, 0, 56, 72
1, 135286, Control_c, 0, 64, 0
1, 135288, Note_off_c, 0, 52, 73
1, 135309, Note_off_c, 0, 78, 65
1, 135321, Note_on_c, 0, 76, 84
1, 135372, Note_on_c, 0, 78, 80
1, 135377, Note_off_c, 0, 76, 60
1, 135452, Note_off_c, 0, 78, 65
1, 135468, Note_on_c, 0, 76, 79
1, 135483, Note_on_c, 0, 50, 92
1, 135485, Note_on_c, 0, 47, 89
1, 135490, Note_on_c, 0, 40, 84
1, 135493, Note_on_c, 0, 44, 63
1, 135500, Note_off_c, 0, 50, 71
1, 135508, Note_off_c, 0, 47, 69
1, 135514, Note_off_c, 0, 40, 68
1, 135515, Note_off_c, 0, 44, 60
1, 135516, Note_on_c, 0, 78, 78
1, 135517, Note_off_c, 0, 76, 65
1, 135523, Control_c, 0, 64, 44
1, 135538, Control_c, 0, 64, 58
1, 135553, Control_c, 0, 64, 67
1, 135565, Note_off_c, 0, 78, 65
1, 135567, Control_c, 0, 64, 75
1, 135582, Control_c, 0, 64, 92
1, 135597, Control_c, 0, 64, 127
1, 135598, Note_on_c, 0, 76, 66
1, 135622, Note_off_c, 0, 76, 62
1, 135635, Note_on_c, 0, 78, 73
1, 135662, Note_off_c, 0, 78, 65
1, 135697, Note_on_c, 0, 76, 68
1, 135733, Note_off_c, 0, 76, 59
1, 135741, Note_on_c, 0, 78, 80
1, 135763, Note_off_c, 0, 78, 73
1, 135784, Note_on_c, 0, 76, 37
1, 135796, Note_on_c, 0, 78, 90
1, 135816, Note_off_c, 0, 76, 57
1, 135842, Note_off_c, 0, 78, 67
1, 135843, Note_on_c, 0, 76, 93
1, 135863, Control_c, 0, 64, 60
1, 135878, Control_c, 0, 64, 0
1, 135881, Note_off_c, 0, 76, 71
1, 136061, Note_on_c, 0, 88, 92
1, 136064, Note_on_c, 0, 76, 91
1, 136065, Note_on_c, 0, 80, 82
1, 136067, Note_on_c, 0, 40, 71
1, 136067, Note_on_c, 0, 52, 83
1, 136070, Note_on_c, 0, 83, 67
1, 136084, Note_off_c, 0, 80, 71
1, 136085, Note_off_c, 0, 83, 71
1, 136093, Note_off_c, 0, 88, 65
1, 136093, Note_off_c, 0, 40, 63
1, 136093, Note_off_c, 0, 52, 68
1, 136094, Note_off_c, 0, 76, 69
1, 136320, Note_on_c, 0, 81, 77
1, 136325, Note_on_c, 0, 85, 94
1, 136326, Note_on_c, 0, 57, 92
1, 136328, Note_on_c, 0, 45, 75
1, 136330, Note_on_c, 0, 76, 81
1, 136331, Note_on_c, 0, 73, 87
1, 136346, Control_c, 0, 64, 31
1, 136351, Note_off_c, 0, 57, 66
1, 136352, Note_off_c, 0, 45, 67
1, 136361, Control_c, 0, 64, 55
1, 136376, Control_c, 0, 64, 71
1, 136390, Control_c, 0, 64, 93
1, 136405, Control_c, 0, 64, 127
1, 136494, Control_c, 0, 64, 68
1, 136509, Control_c, 0, 64, 40
1, 136523, Control_c, 0, 64, 0
1, 136528, Note_on_c, 0, 71, 92
1, 136536, Note_on_c, 0, 59, 67
1, 136545, Note_off_c, 0, 71, 74
1, 136553, Note_off_c, 0, 59, 65
1, 136687, Note_off_c, 0, 73, 64
1, 136693, Note_off_c, 0, 76, 62
1, 136707, Note_off_c, 0, 81, 59
1, 136726, Note_on_c, 0, 69, 93
1, 136733, Note_on_c, 0, 57, 74
1, 136737, Note_off_c, 0, 85, 64
1, 136753, Control_c, 0, 64, 38
1, 136768, Control_c, 0, 64, 50
1, 136783, Control_c, 0, 64, 54
1, 136794, Note_off_c, 0, 57, 0
1, 136794, Note_on_c, 0, 57, 44
1, 136797, Control_c, 0, 64, 56
1, 136812, Control_c, 0, 64, 61
1, 136828, Control_c, 0, 64, 67
1, 136837, Note_on_c, 0, 86, 60
1, 136843, Control_c, 0, 64, 76
1, 136858, Control_c, 0, 64, 85
1, 136861, Note_on_c, 0, 84, 45
1, 136872, Control_c, 0, 64, 90
1, 136887, Control_c, 0, 64, 92
1, 136892, Note_off_c, 0, 84, 51
1, 136902, Control_c, 0, 64, 97
1, 136907, Note_off_c, 0, 86, 60
1, 136917, Control_c, 0, 64, 109
1, 136932, Control_c, 0, 64, 127
1, 136933, Note_on_c, 0, 88, 73
1, 136982, Note_off_c, 0, 88, 66
1, 137002, Note_on_c, 0, 90, 80
1, 137022, Note_off_c, 0, 90, 72
1, 137026, Note_on_c, 0, 87, 33
1, 137059, Note_off_c, 0, 87, 56
1, 137107, Note_on_c, 0, 83, 86
1, 137111, Note_on_c, 0, 71, 74
1, 137113, Note_off_c, 0, 69, 61
1, 137125, Note_off_c, 0, 71, 72
1, 137126, Note_off_c, 0, 83, 73
1, 137131, Note_off_c, 0, 57, 59
1, 137208, Note_on_c, 0, 59, 69
1, 137298, Note_on_c, 0, 61, 74
1, 137300, Note_off_c, 0, 59, 62
1, 137372, Note_on_c, 0, 62, 83
1, 137387, Note_off_c, 0, 61, 64
1, 137449, Control_c, 0, 64, 77
1, 137464, Control_c, 0, 64, 45
1, 137465, Note_off_c, 0, 62, 64
1, 137466, Note_on_c, 0, 56, 83
1, 137479, Control_c, 0, 64, 0
1, 137678, Note_on_c, 0, 88, 82
1, 137679, Note_on_c, 0, 76, 83
1, 137694, Note_off_c, 0, 88, 75
1, 137697, Note_off_c, 0, 76, 74
1, 137871, Note_off_c, 0, 56, 66
1, 137876, Note_on_c, 0, 81, 88
1, 137877, Note_on_c, 0, 69, 78
1, 138066, Note_on_c, 0, 68, 81
1, 138071, Note_on_c, 0, 56, 69
1, 138085, Note_off_c, 0, 68, 65
1, 138087, Note_off_c, 0, 56, 67
1, 138210, Note_off_c, 0, 69, 63
1, 138227, Control_c, 0, 64, 20
1, 138250, Control_c, 0, 64, 34
1, 138262, Note_on_c, 0, 66, 75
1, 138262, Note_off_c, 0, 81, 65
1, 138265, Control_c, 0, 64, 38
1, 138268, Note_on_c, 0, 54, 66
1, 138280, Control_c, 0, 64, 44
1, 138294, Control_c, 0, 64, 54
1, 138309, Control_c, 0, 64, 62
1, 138324, Control_c, 0, 64, 70
1, 138339, Control_c, 0, 64, 79
1, 138340, Note_on_c, 0, 83, 74
1, 138354, Control_c, 0, 64, 81
1, 138368, Control_c, 0, 64, 82
1, 138383, Control_c, 0, 64, 84
1, 138398, Control_c, 0, 64, 88
1, 138414, Control_c, 0, 64, 93
1, 138429, Control_c, 0, 64, 100
1, 138433, Note_on_c, 0, 85, 85
1, 138444, Control_c, 0, 64, 107
1, 138459, Control_c, 0, 64, 127
1, 138464, Note_off_c, 0, 83, 62
1, 138510, Note_on_c, 0, 86, 85
1, 138543, Note_off_c, 0, 85, 63
1, 138546, Note_off_c, 0, 86, 65
1, 138573, Note_off_c, 0, 66, 58
1, 138606, Control_c, 0, 64, 98
1, 138621, Control_c, 0, 64, 66
1, 138625, Note_on_c, 0, 80, 86
1, 138631, Note_on_c, 0, 68, 77
1, 138636, Control_c, 0, 64, 51
1, 138651, Control_c, 0, 64, 12
1, 138666, Control_c, 0, 64, 0
1, 138710, Note_off_c, 0, 54, 59
1, 138710, Control_c, 0, 64, 37
1, 138725, Control_c, 0, 64, 50
1, 138728, Note_on_c, 0, 56, 62
1, 138735, Note_off_c, 0, 68, 58
1, 138740, Control_c, 0, 64, 61
1, 138755, Control_c, 0, 64, 70
1, 138757, Note_off_c, 0, 80, 62
1, 138770, Control_c, 0, 64, 82
1, 138784, Control_c, 0, 64, 85
1, 138797, Note_off_c, 0, 56, 67
1, 138821, Note_on_c, 0, 57, 77
1, 138829, Control_c, 0, 64, 88
1, 138843, Control_c, 0, 64, 97
1, 138858, Control_c, 0, 64, 127
1, 138907, Note_on_c, 0, 59, 77
1, 138922, Note_off_c, 0, 57, 60
1, 138962, Control_c, 0, 64, 67
1, 138977, Control_c, 0, 64, 41
1, 138977, Control_c, 0, 67, 11
1, 138999, Control_c, 0, 64, 0
1, 138999, Control_c, 0, 67, 15
1, 139010, Note_on_c, 0, 52, 78
1, 139011, Note_off_c, 0, 59, 62
1, 139014, Control_c, 0, 67, 25
1, 139029, Control_c, 0, 67, 50
1, 139034, Note_off_c, 0, 52, 69
1, 139043, Control_c, 0, 67, 78
1, 139058, Control_c, 0, 67, 103
1, 139073, Control_c, 0, 67, 125
1, 139088, Control_c, 0, 67, 127
1, 139213, Note_on_c, 0, 85, 65
1, 139237, Note_off_c, 0, 85, 69
1, 139239, Note_on_c, 0, 64, 24
1, 139244, Note_on_c, 0, 76, 39
1, 139281, Note_off_c, 0, 76, 0
1, 139281, Note_on_c, 0, 76, 21
1, 139326, Control_c, 0, 64, 8
1, 139340, Control_c, 0, 64, 20
1, 139355, Control_c, 0, 64, 28
1, 139370, Control_c, 0, 64, 36
1, 139385, Control_c, 0, 64, 48
1, 139400, Control_c, 0, 64, 57
1, 139414, Control_c, 0, 64, 62
1, 139426, Note_on_c, 0, 78, 56
1, 139429, Control_c, 0, 64, 64
1, 139444, Control_c, 0, 64, 65
1, 139472, Note_off_c, 0, 76, 47
1, 139493, Note_off_c, 0, 64, 39
1, 139506, Note_off_c, 0, 78, 52
1, 139525, Note_on_c, 0, 80, 51
1, 139533, Control_c, 0, 64, 65
1, 139575, Note_off_c, 0, 80, 54
1, 139610, Note_on_c, 0, 74, 49
1, 139613, Note_on_c, 0, 81, 54
1, 139618, Note_on_c, 0, 64, 32
1, 139652, Control_c, 0, 64, 64
1, 139666, Control_c, 0, 64, 61
1, 139667, Note_off_c, 0, 81, 58
1, 139681, Control_c, 0, 64, 54
1, 139695, Control_c, 0, 64, 41
1, 139710, Control_c, 0, 64, 23
1, 139711, Note_on_c, 0, 83, 46
1, 139725, Control_c, 0, 64, 16
1, 139747, Control_c, 0, 64, 22
1, 139762, Control_c, 0, 64, 36
1, 139777, Control_c, 0, 64, 45
1, 139783, Note_off_c, 0, 83, 62
1, 139791, Control_c, 0, 64, 53
1, 139806, Control_c, 0, 64, 57
1, 139807, Note_on_c, 0, 81, 64
1, 139821, Control_c, 0, 64, 60
1, 139836, Control_c, 0, 64, 62
1, 139851, Control_c, 0, 64, 63
1, 139871, Note_off_c, 0, 64, 40
1, 139889, Note_off_c, 0, 81, 60
1, 139902, Note_on_c, 0, 80, 66
1, 139910, Control_c, 0, 64, 63
1, 139925, Control_c, 0, 64, 64
1, 139939, Control_c, 0, 64, 65
1, 139954, Control_c, 0, 64, 66
1, 139962, Note_off_c, 0, 74, 61
1, 139969, Control_c, 0, 64, 65
1, 139983, Control_c, 0, 64, 64
1, 139988, Note_on_c, 0, 71, 58
1, 139994, Note_off_c, 0, 80, 61
1, 139998, Control_c, 0, 64, 62
1, 140002, Note_on_c, 0, 78, 74
1, 140003, Note_on_c, 0, 64, 49
1, 140015, Control_c, 0, 64, 57
1, 140030, Control_c, 0, 64, 46
1, 140044, Control_c, 0, 64, 25
1, 140059, Control_c, 0, 64, 0
1, 140074, Control_c, 0, 64, 11
1, 140088, Control_c, 0, 64, 25
1, 140091, Note_on_c, 0, 80, 77
1, 140099, Note_off_c, 0, 78, 57
1, 140103, Control_c, 0, 64, 36
1, 140118, Control_c, 0, 64, 44
1, 140133, Control_c, 0, 64, 51
1, 140148, Control_c, 0, 64, 56
1, 140162, Control_c, 0, 64, 59
1, 140171, Note_off_c, 0, 80, 62
1, 140177, Control_c, 0, 64, 60
1, 140189, Note_on_c, 0, 81, 81
1, 140192, Control_c, 0, 64, 61
1, 140212, Note_off_c, 0, 64, 54
1, 140236, Control_c, 0, 64, 61
1, 140251, Control_c, 0, 64, 62
1, 140266, Control_c, 0, 64, 62
1, 140280, Note_on_c, 0, 83, 83
1, 140281, Control_c, 0, 64, 63
1, 140285, Note_off_c, 0, 81, 61
1, 140296, Control_c, 0, 64, 63
1, 140353, Note_off_c, 0, 71, 56
1, 140365, Note_on_c, 0, 69, 69
1, 140371, Note_off_c, 0, 83, 65
1, 140373, Note_on_c, 0, 85, 81
1, 140383, Note_on_c, 0, 64, 53
1, 140385, Control_c, 0, 64, 63
1, 140400, Control_c, 0, 64, 61
1, 140414, Control_c, 0, 64, 57
1, 140429, Control_c, 0, 64, 46
1, 140445, Control_c, 0, 64, 30
1, 140460, Control_c, 0, 64, 0
1, 140475, Note_on_c, 0, 86, 80
1, 140493, Note_off_c, 0, 85, 62
1, 140526, Control_c, 0, 64, 20
1, 140541, Control_c, 0, 64, 29
1, 140556, Control_c, 0, 64, 35
1, 140570, Control_c, 0, 64, 41
1, 140578, Note_on_c, 0, 85, 80
1, 140585, Control_c, 0, 64, 47
1, 140591, Note_off_c, 0, 86, 59
1, 140600, Control_c, 0, 64, 53
1, 140615, Control_c, 0, 64, 57
1, 140620, Note_off_c, 0, 64, 37
1, 140630, Control_c, 0, 64, 61
1, 140645, Control_c, 0, 64, 63
1, 140655, Note_on_c, 0, 83, 89
1, 140660, Control_c, 0, 64, 65
1, 140675, Control_c, 0, 64, 66
1, 140684, Note_off_c, 0, 85, 63
1, 140704, Control_c, 0, 64, 64
1, 140719, Control_c, 0, 64, 58
1, 140734, Control_c, 0, 64, 45
1, 140749, Control_c, 0, 64, 26
1, 140752, Note_off_c, 0, 83, 66
1, 140756, Note_on_c, 0, 81, 87
1, 140757, Note_on_c, 0, 64, 55
1, 140760, Note_on_c, 0, 68, 63
1, 140763, Control_c, 0, 64, 9
1, 140778, Control_c, 0, 64, 14
1, 140782, Note_off_c, 0, 69, 56
1, 140793, Control_c, 0, 64, 26
1, 140809, Control_c, 0, 64, 37
1, 140824, Control_c, 0, 64, 48
1, 140838, Control_c, 0, 64, 57
1, 140848, Note_on_c, 0, 83, 85
1, 140853, Control_c, 0, 64, 65
1, 140868, Control_c, 0, 64, 76
1, 140874, Note_off_c, 0, 81, 61
1, 140883, Control_c, 0, 64, 85
1, 140898, Control_c, 0, 64, 85
1, 140910, Note_off_c, 0, 64, 59
1, 140912, Control_c, 0, 64, 77
1, 140927, Control_c, 0, 64, 64
1, 140942, Control_c, 0, 64, 48
1, 140943, Note_off_c, 0, 68, 60
1, 140948, Note_on_c, 0, 85, 80
1, 140948, Note_off_c, 0, 83, 65
1, 140957, Control_c, 0, 64, 0
1, 140962, Note_on_c, 0, 69, 48
1, 140985, Note_off_c, 0, 69, 58
1, 141024, Note_off_c, 0, 85, 64
1, 141041, Note_on_c, 0, 86, 79
1, 141132, Note_off_c, 0, 86, 59
1, 141138, Note_on_c, 0, 88, 78
1, 141157, Note_on_c, 0, 68, 56
1, 141182, Note_off_c, 0, 68, 57
1, 141228, Note_on_c, 0, 90, 77
1, 141228, Note_off_c, 0, 88, 60
1, 141345, Note_on_c, 0, 66, 58
1, 141345, Note_on_c, 0, 92, 79
1, 141350, Note_off_c, 0, 90, 57
1, 141368, Note_off_c, 0, 66, 65
1, 141438, Note_off_c, 0, 92, 56
1, 141444, Note_on_c, 0, 93, 67
1, 141539, Note_off_c, 0, 93, 51
1, 141576, Note_on_c, 0, 85, 54
1, 141578, Note_on_c, 0, 71, 50
1, 141587, Note_on_c, 0, 81, 52
1, 141591, Note_on_c, 0, 59, 25
1, 141599, Note_off_c, 0, 71, 63
1, 141629, Note_off_c, 0, 81, 58
1, 141630, Note_off_c, 0, 59, 41
1, 141682, Note_on_c, 0, 87, 62
1, 141688, Note_off_c, 0, 85, 59
1, 141920, Note_on_c, 0, 90, 62
1, 141925, Note_off_c, 0, 87, 56
1, 141936, Note_on_c, 0, 71, 36
1, 141940, Note_on_c, 0, 59, 31
1, 141942, Note_on_c, 0, 81, 44
1, 142157, Control_c, 0, 64, 26
1, 142172, Control_c, 0, 64, 39
1, 142186, Control_c, 0, 64, 50
1, 142201, Control_c, 0, 64, 59
1, 142216, Note_off_c, 0, 90, 45
1, 142216, Control_c, 0, 64, 64
1, 142226, Note_off_c, 0, 81, 46
1, 142231, Control_c, 0, 64, 67
1, 142246, Control_c, 0, 64, 69
1, 142260, Control_c, 0, 64, 71
1, 142275, Control_c, 0, 64, 73
1, 142290, Control_c, 0, 64, 75
1, 142305, Control_c, 0, 64, 76
1, 142320, Control_c, 0, 64, 77
1, 142331, Note_off_c, 0, 59, 39
1, 142335, Control_c, 0, 64, 78
1, 142350, Control_c, 0, 64, 81
1, 142365, Control_c, 0, 64, 82
1, 142379, Control_c, 0, 64, 83
1, 142603, Note_off_c, 0, 71, 44
1, 142980, Control_c, 0, 64, 82
1, 143009, Control_c, 0, 64, 82
1, 143039, Control_c, 0, 64, 81
1, 143069, Control_c, 0, 64, 81
1, 143083, Control_c, 0, 64, 80
1, 143098, Control_c, 0, 64, 79
1, 143113, Control_c, 0, 64, 78
1, 143128, Control_c, 0, 64, 77
1, 143143, Control_c, 0, 64, 76
1, 143158, Control_c, 0, 64, 75
1, 143173, Control_c, 0, 64, 74
1, 143188, Control_c, 0, 64, 72
1, 143203, Control_c, 0, 64, 69
1, 143214, Note_on_c, 0, 88, 41
1, 143218, Control_c, 0, 64, 66
1, 143225, Note_on_c, 0, 64, 28
1, 143228, Note_on_c, 0, 80, 37
1, 143232, Control_c, 0, 64, 63
1, 143244, Note_on_c, 0, 71, 27
1, 143247, Control_c, 0, 64, 60
1, 143262, Control_c, 0, 64, 56
1, 143277, Control_c, 0, 64, 49
1, 143292, Control_c, 0, 64, 39
1, 143307, Note_off_c, 0, 71, 0
1, 143307, Note_on_c, 0, 71, 3
1, 143307, Control_c, 0, 64, 23
1, 143322, Control_c, 0, 64, 0
1, 143411, Control_c, 0, 64, 18
1, 143425, Control_c, 0, 64, 27
1, 143440, Control_c, 0, 64, 34
1, 143455, Control_c, 0, 64, 40
1, 143470, Control_c, 0, 64, 48
1, 143492, Control_c, 0, 64, 55
1, 143507, Control_c, 0, 64, 60
1, 143521, Control_c, 0, 64, 63
1, 143536, Control_c, 0, 64, 65
1, 143551, Control_c, 0, 64, 66
1, 143566, Control_c, 0, 64, 68
1, 143577, Note_off_c, 0, 71, 51
1, 143581, Control_c, 0, 64, 69
1, 143596, Control_c, 0, 64, 70
1, 143601, Note_off_c, 0, 88, 45
1, 143611, Control_c, 0, 64, 70
1, 143626, Control_c, 0, 64, 71
1, 143632, Note_off_c, 0, 80, 43
1, 143638, Note_off_c, 0, 64, 41
1, 143640, Control_c, 0, 64, 71
1, 143655, Control_c, 0, 64, 72
1, 143670, Control_c, 0, 64, 73
1, 143685, Control_c, 0, 64, 73
1, 143700, Control_c, 0, 64, 74
1, 144055, Control_c, 0, 64, 74
1, 144070, Control_c, 0, 64, 76
1, 144085, Control_c, 0, 64, 79
1, 144100, Control_c, 0, 64, 83
1, 144115, Control_c, 0, 64, 88
1, 144130, Control_c, 0, 64, 93
1, 144144, Control_c, 0, 64, 97
1, 144159, Control_c, 0, 64, 99
1, 144189, Control_c, 0, 64, 97
1, 144204, Control_c, 0, 64, 87
1, 144219, Control_c, 0, 64, 72
1, 144241, Control_c, 0, 64, 60
1, 144255, Control_c, 0, 64, 28
1, 144265, Note_on_c, 0, 64, 83
1, 144270, Control_c, 0, 64, 0
1, 144277, Note_on_c, 0, 52, 67
1, 144285, Note_off_c, 0, 64, 71
1, 144299, Note_off_c, 0, 52, 63
1, 144466, Note_on_c, 0, 61, 92
1, 144482, Note_on_c, 0, 49, 71
1, 144660, Note_on_c, 0, 83, 80
1, 144673, Note_on_c, 0, 71, 53
1, 144679, Note_off_c, 0, 83, 74
1, 144695, Note_off_c, 0, 71, 64
1, 144824, Note_off_c, 0, 49, 59
1, 144834, Control_c, 0, 64, 35
1, 144834, Control_c, 0, 67, 108
1, 144841, Note_on_c, 0, 81, 88
1, 144845, Note_on_c, 0, 69, 77
1, 144849, Control_c, 0, 64, 48
1, 144849, Control_c, 0, 67, 62
1, 144861, Note_off_c, 0, 69, 70
1, 144864, Control_c, 0, 64, 55
1, 144864, Control_c, 0, 67, 9
1, 144868, Note_off_c, 0, 61, 64
1, 144868, Note_off_c, 0, 81, 60
1, 144878, Control_c, 0, 64, 59
1, 144878, Control_c, 0, 67, 0
1, 144893, Control_c, 0, 64, 63
1, 144908, Control_c, 0, 64, 69
1, 144923, Control_c, 0, 64, 80
1, 144931, Note_on_c, 0, 62, 76
1, 144938, Control_c, 0, 64, 88
1, 144952, Control_c, 0, 64, 93
1, 144967, Control_c, 0, 64, 93
1, 144990, Control_c, 0, 64, 94
1, 145004, Control_c, 0, 64, 95
1, 145019, Control_c, 0, 64, 99
1, 145021, Note_off_c, 0, 62, 62
1, 145029, Note_on_c, 0, 64, 80
1, 145034, Control_c, 0, 64, 105
1, 145049, Control_c, 0, 64, 113
1, 145064, Control_c, 0, 64, 127
1, 145102, Note_on_c, 0, 66, 86
1, 145105, Note_off_c, 0, 64, 63
1, 145133, Note_off_c, 0, 66, 63
1, 145167, Control_c, 0, 64, 107
1, 145182, Control_c, 0, 64, 75
1, 145197, Control_c, 0, 64, 60
1, 145212, Control_c, 0, 64, 28
1, 145221, Note_on_c, 0, 59, 85
1, 145225, Note_on_c, 0, 47, 74
1, 145226, Control_c, 0, 64, 0
1, 145319, Note_on_c, 0, 83, 70
1, 145404, Control_c, 0, 64, 21
1, 145413, Note_on_c, 0, 85, 77
1, 145419, Control_c, 0, 64, 41
1, 145434, Control_c, 0, 64, 50
1, 145441, Note_off_c, 0, 83, 64
1, 145444, Note_off_c, 0, 47, 64
1, 145449, Control_c, 0, 64, 57
1, 145464, Control_c, 0, 64, 64
1, 145478, Control_c, 0, 64, 84
1, 145486, Note_on_c, 0, 86, 74
1, 145493, Control_c, 0, 64, 127
1, 145497, Note_off_c, 0, 59, 63
1, 145509, Note_off_c, 0, 86, 69
1, 145519, Note_off_c, 0, 85, 64
1, 145567, Control_c, 0, 64, 79
1, 145582, Control_c, 0, 64, 52
1, 145595, Note_on_c, 0, 80, 78
1, 145598, Control_c, 0, 64, 0
1, 145605, Note_on_c, 0, 68, 73
1, 145787, Note_on_c, 0, 64, 78
1, 145802, Note_on_c, 0, 52, 64
1, 145810, Note_off_c, 0, 64, 70
1, 145825, Note_off_c, 0, 52, 62
1, 145975, Note_off_c, 0, 68, 60
1, 145989, Note_on_c, 0, 57, 82
1, 145989, Note_off_c, 0, 80, 65
1, 146001, Note_on_c, 0, 45, 67
1, 146177, Note_on_c, 0, 80, 85
1, 146183, Note_on_c, 0, 68, 70
1, 146198, Note_off_c, 0, 80, 70
1, 146200, Note_off_c, 0, 68, 65
1, 146341, Note_off_c, 0, 45, 63
1, 146362, Note_on_c, 0, 78, 89
1, 146366, Note_on_c, 0, 66, 83
1, 146375, Control_c, 0, 64, 26
1, 146390, Control_c, 0, 64, 48
1, 146391, Note_off_c, 0, 66, 66
1, 146406, Note_off_c, 0, 57, 61
1, 146406, Control_c, 0, 64, 57
1, 146417, Note_off_c, 0, 78, 65
1, 146421, Control_c, 0, 64, 62
1, 146436, Control_c, 0, 64, 65
1, 146450, Control_c, 0, 64, 72
1, 146465, Control_c, 0, 64, 80
1, 146466, Note_on_c, 0, 59, 78
1, 146487, Control_c, 0, 64, 88
1, 146502, Control_c, 0, 64, 93
1, 146517, Control_c, 0, 64, 96
1, 146532, Control_c, 0, 64, 99
1, 146547, Control_c, 0, 64, 103
1, 146557, Note_off_c, 0, 59, 63
1, 146560, Note_on_c, 0, 61, 73
1, 146562, Control_c, 0, 64, 107
1, 146576, Control_c, 0, 64, 108
1, 146591, Control_c, 0, 64, 109
1, 146606, Control_c, 0, 64, 127
1, 146623, Note_off_c, 0, 61, 67
1, 146632, Note_on_c, 0, 62, 79
1, 146653, Note_off_c, 0, 62, 68
1, 146695, Control_c, 0, 64, 105
1, 146710, Control_c, 0, 64, 73
1, 146724, Control_c, 0, 64, 58
1, 146730, Note_on_c, 0, 56, 89
1, 146732, Note_on_c, 0, 44, 80
1, 146739, Control_c, 0, 64, 14
1, 146754, Control_c, 0, 64, 0
1, 146839, Note_on_c, 0, 80, 72
1, 146923, Note_on_c, 0, 81, 74
1, 146926, Note_off_c, 0, 80, 62
1, 146961, Control_c, 0, 64, 38
1, 146976, Control_c, 0, 64, 56
1, 146991, Control_c, 0, 64, 71
1, 147006, Control_c, 0, 64, 127
1, 147012, Note_on_c, 0, 83, 76
1, 147041, Note_off_c, 0, 83, 66
1, 147044, Note_off_c, 0, 81, 47
1, 147048, Note_off_c, 0, 44, 60
1, 147080, Control_c, 0, 64, 75
1, 147085, Note_off_c, 0, 56, 65
1, 147095, Control_c, 0, 64, 50
1, 147110, Control_c, 0, 64, 0
1, 147125, Note_on_c, 0, 76, 64
1, 147137, Note_on_c, 0, 74, 51
1, 147142, Note_on_c, 0, 64, 33
1, 147143, Note_off_c, 0, 64, 127
1, 147143, Note_off_c, 0, 76, 65
1, 147161, Note_off_c, 0, 74, 39
1, 147312, Note_on_c, 0, 76, 69
1, 147319, Note_on_c, 0, 68, 63
1, 147329, Note_on_c, 0, 52, 53
1, 147459, Control_c, 0, 64, 19
1, 147474, Control_c, 0, 64, 31
1, 147481, Note_off_c, 0, 68, 49
1, 147489, Control_c, 0, 64, 38
1, 147503, Note_on_c, 0, 69, 76
1, 147504, Control_c, 0, 64, 47
1, 147508, Note_off_c, 0, 52, 60
1, 147514, Note_on_c, 0, 54, 66
1, 147519, Control_c, 0, 64, 57
1, 147531, Note_off_c, 0, 76, 63
1, 147534, Control_c, 0, 64, 66
1, 147541, Note_off_c, 0, 69, 63
1, 147548, Control_c, 0, 64, 77
1, 147563, Control_c, 0, 64, 86
1, 147578, Control_c, 0, 64, 92
1, 147593, Control_c, 0, 64, 96
1, 147593, Note_on_c, 0, 56, 69
1, 147607, Control_c, 0, 64, 105
1, 147608, Note_off_c, 0, 54, 56
1, 147622, Control_c, 0, 64, 114
1, 147652, Control_c, 0, 64, 107
1, 147667, Control_c, 0, 64, 92
1, 147676, Note_on_c, 0, 74, 85
1, 147680, Note_on_c, 0, 57, 74
1, 147681, Control_c, 0, 64, 79
1, 147683, Note_off_c, 0, 56, 65
1, 147690, Note_on_c, 0, 62, 68
1, 147696, Control_c, 0, 64, 65
1, 147710, Note_on_c, 0, 66, 62
1, 147711, Control_c, 0, 64, 54
1, 147725, Control_c, 0, 64, 28
1, 147740, Control_c, 0, 64, 0
1, 147744, Note_off_c, 0, 57, 62
1, 147768, Note_on_c, 0, 59, 77
1, 147814, Note_off_c, 0, 74, 62
1, 147839, Note_off_c, 0, 59, 61
1, 147847, Note_on_c, 0, 57, 72
1, 147865, Note_on_c, 0, 71, 81
1, 147877, Note_off_c, 0, 66, 62
1, 147906, Note_off_c, 0, 62, 63
1, 147916, Note_off_c, 0, 57, 62
1, 147918, Control_c, 0, 64, 17
1, 147920, Note_on_c, 0, 56, 77
1, 147921, Note_off_c, 0, 71, 65
1, 147932, Control_c, 0, 64, 38
1, 147947, Control_c, 0, 64, 47
1, 147962, Control_c, 0, 64, 54
1, 147984, Control_c, 0, 64, 62
1, 148000, Control_c, 0, 64, 75
1, 148015, Control_c, 0, 64, 127
1, 148018, Note_on_c, 0, 54, 65
1, 148018, Note_off_c, 0, 56, 65
1, 148046, Note_on_c, 0, 71, 78
1, 148058, Note_on_c, 0, 62, 66
1, 148085, Note_on_c, 0, 64, 14
1, 148093, Note_off_c, 0, 62, 65
1, 148101, Note_on_c, 0, 56, 68
1, 148109, Note_off_c, 0, 71, 63
1, 148112, Note_off_c, 0, 54, 64
1, 148127, Note_off_c, 0, 56, 71
1, 148130, Note_off_c, 0, 64, 49
1, 148163, Control_c, 0, 64, 80
1, 148178, Control_c, 0, 64, 56
1, 148192, Control_c, 0, 64, 0
1, 148210, Note_on_c, 0, 61, 76
1, 148216, Note_on_c, 0, 69, 68
1, 148222, Note_on_c, 0, 57, 63
1, 148231, Note_off_c, 0, 61, 70
1, 148244, Note_off_c, 0, 69, 65
1, 148271, Note_off_c, 0, 57, 61
1, 148292, Note_on_c, 0, 59, 62
1, 148293, Note_on_c, 0, 62, 78
1, 148330, Note_off_c, 0, 62, 65
1, 148374, Note_off_c, 0, 59, 58
1, 148389, Note_on_c, 0, 61, 62
1, 148398, Note_on_c, 0, 69, 76
1, 148399, Note_on_c, 0, 64, 71
1, 148433, Note_off_c, 0, 64, 62
1, 148476, Note_off_c, 0, 61, 65
1, 148486, Note_on_c, 0, 66, 61
1, 148497, Note_on_c, 0, 62, 57
1, 148548, Note_off_c, 0, 69, 62
1, 148557, Note_off_c, 0, 62, 62
1, 148561, Note_on_c, 0, 64, 57
1, 148570, Note_on_c, 0, 61, 63
1, 148602, Note_off_c, 0, 66, 57
1, 148628, Note_off_c, 0, 64, 62
1, 148640, Note_off_c, 0, 61, 61
1, 148663, Note_on_c, 0, 59, 60
1, 148663, Note_on_c, 0, 62, 47
1, 148735, Note_off_c, 0, 62, 60
1, 148747, Note_off_c, 0, 59, 62
1, 148753, Note_on_c, 0, 61, 59
1, 148753, Note_on_c, 0, 69, 66
1, 148762, Note_on_c, 0, 57, 62
1, 148780, Note_off_c, 0, 61, 61
1, 148830, Note_off_c, 0, 57, 61
1, 148835, Note_on_c, 0, 59, 61
1, 148842, Note_on_c, 0, 62, 73
1, 148851, Note_off_c, 0, 69, 59
1, 148926, Control_c, 0, 64, 31
1, 148931, Note_on_c, 0, 64, 70
1, 148932, Note_off_c, 0, 62, 64
1, 148935, Note_on_c, 0, 61, 70
1, 148941, Control_c, 0, 64, 41
1, 148956, Note_off_c, 0, 64, 66
1, 148956, Control_c, 0, 64, 46
1, 148962, Note_off_c, 0, 59, 56
1, 148971, Control_c, 0, 64, 51
1, 148985, Control_c, 0, 64, 59
1, 149000, Control_c, 0, 64, 66
1, 149015, Control_c, 0, 64, 77
1, 149021, Note_on_c, 0, 62, 82
1, 149030, Control_c, 0, 64, 87
1, 149035, Note_off_c, 0, 61, 65
1, 149045, Control_c, 0, 64, 88
1, 149090, Control_c, 0, 64, 88
1, 149092, Note_off_c, 0, 62, 62
1, 149105, Control_c, 0, 64, 82
1, 149113, Note_on_c, 0, 64, 76
1, 149118, Note_on_c, 0, 81, 85
1, 149120, Control_c, 0, 64, 72
1, 149134, Control_c, 0, 64, 61
1, 149137, Note_on_c, 0, 73, 68
1, 149149, Control_c, 0, 64, 46
1, 149164, Control_c, 0, 64, 0
1, 149197, Note_off_c, 0, 73, 0
1, 149197, Note_on_c, 0, 73, 32
1, 149200, Note_on_c, 0, 66, 83
1, 149208, Note_off_c, 0, 64, 63
1, 149252, Control_c, 0, 64, 20
1, 149267, Control_c, 0, 64, 32
1, 149282, Note_off_c, 0, 73, 58
1, 149282, Control_c, 0, 64, 43
1, 149290, Note_off_c, 0, 81, 63
1, 149292, Note_on_c, 0, 68, 82
1, 149297, Control_c, 0, 64, 54
1, 149307, Note_off_c, 0, 66, 61
1, 149312, Control_c, 0, 64, 63
1, 149326, Control_c, 0, 64, 73
1, 149341, Control_c, 0, 64, 85
1, 149356, Control_c, 0, 64, 101
1, 149368, Note_off_c, 0, 68, 62
1, 149370, Control_c, 0, 64, 127
1, 149371, Note_on_c, 0, 69, 90
1, 149444, Control_c, 0, 64, 88
1, 149447, Note_off_c, 0, 69, 59
1, 149459, Control_c, 0, 64, 64
1, 149478, Note_on_c, 0, 66, 84
1, 149481, Note_on_c, 0, 81, 90
1, 149482, Control_c, 0, 64, 39
1, 149488, Note_on_c, 0, 73, 78
1, 149496, Control_c, 0, 64, 0
1, 149543, Note_on_c, 0, 63, 65
1, 149570, Control_c, 0, 64, 40
1, 149585, Control_c, 0, 64, 62
1, 149594, Note_off_c, 0, 66, 56
1, 149601, Control_c, 0, 64, 89
1, 149616, Control_c, 0, 64, 127
1, 149624, Note_on_c, 0, 64, 73
1, 149627, Note_off_c, 0, 63, 66
1, 149631, Control_c, 0, 64, 91
1, 149646, Control_c, 0, 64, 65
1, 149661, Control_c, 0, 64, 43
1, 149668, Note_off_c, 0, 73, 61
1, 149675, Control_c, 0, 64, 0
1, 149693, Note_off_c, 0, 64, 63
1, 149720, Control_c, 0, 64, 31
1, 149733, Note_on_c, 0, 66, 69
1, 149735, Control_c, 0, 64, 55
1, 149749, Control_c, 0, 64, 82
1, 149757, Note_off_c, 0, 66, 67
1, 149764, Control_c, 0, 64, 127
1, 149793, Control_c, 0, 64, 102
1, 149808, Control_c, 0, 64, 61
1, 149814, Note_off_c, 0, 81, 59
1, 149823, Control_c, 0, 64, 21
1, 149835, Note_on_c, 0, 62, 68
1, 149838, Control_c, 0, 64, 0
1, 149838, Control_c, 0, 67, 8
1, 149842, Note_on_c, 0, 80, 73
1, 149847, Note_on_c, 0, 52, 47
1, 149853, Control_c, 0, 67, 10
1, 149854, Note_on_c, 0, 71, 58
1, 149868, Control_c, 0, 67, 13
1, 149883, Control_c, 0, 67, 16
1, 149885, Note_off_c, 0, 52, 46
1, 149898, Control_c, 0, 67, 20
1, 149912, Control_c, 0, 67, 25
1, 149920, Note_off_c, 0, 62, 63
1, 149927, Control_c, 0, 67, 31
1, 149934, Note_on_c, 0, 59, 53
1, 149942, Control_c, 0, 64, 23
1, 149942, Control_c, 0, 67, 37
1, 149957, Control_c, 0, 64, 39
1, 149957, Control_c, 0, 67, 43
1, 149972, Control_c, 0, 64, 30
1, 149972, Control_c, 0, 67, 51
1, 149987, Control_c, 0, 64, 0
1, 149987, Control_c, 0, 67, 60
1, 150001, Control_c, 0, 67, 69
1, 150002, Note_off_c, 0, 59, 61
1, 150016, Control_c, 0, 67, 80
1, 150020, Note_on_c, 0, 81, 74
1, 150023, Note_on_c, 0, 57, 62
1, 150023, Note_on_c, 0, 73, 69
1, 150031, Note_off_c, 0, 71, 62
1, 150031, Control_c, 0, 67, 97
1, 150042, Note_off_c, 0, 73, 69
1, 150045, Note_off_c, 0, 80, 62
1, 150046, Control_c, 0, 67, 112
1, 150047, Note_off_c, 0, 81, 66
1, 150061, Control_c, 0, 67, 126
1, 150075, Control_c, 0, 67, 127
1, 150086, Note_off_c, 0, 57, 58
1, 150118, Note_on_c, 0, 61, 52
1, 150184, Note_off_c, 0, 61, 65
1, 150199, Note_on_c, 0, 76, 74
1, 150202, Note_on_c, 0, 57, 60
1, 150228, Note_off_c, 0, 76, 72
1, 150244, Control_c, 0, 64, 9
1, 150259, Control_c, 0, 64, 20
1, 150273, Note_off_c, 0, 57, 62
1, 150273, Control_c, 0, 64, 0
1, 150303, Note_on_c, 0, 61, 62
1, 150336, Note_off_c, 0, 61, 67
1, 150404, Note_on_c, 0, 59, 41
1, 150407, Note_on_c, 0, 74, 66
1, 150416, Note_on_c, 0, 52, 45
1, 150562, Note_off_c, 0, 52, 60
1, 150613, Note_on_c, 0, 53, 45
1, 150618, Note_on_c, 0, 69, 44
1, 150762, Note_off_c, 0, 53, 60
1, 150774, Note_off_c, 0, 69, 60
1, 150809, Note_on_c, 0, 68, 51
1, 150821, Note_on_c, 0, 52, 44
1, 150926, Control_c, 0, 64, 22
1, 150941, Control_c, 0, 64, 36
1, 150956, Control_c, 0, 64, 46
1, 150979, Control_c, 0, 64, 55
1, 150994, Control_c, 0, 64, 61
1, 150995, Note_on_c, 0, 76, 68
1, 151009, Control_c, 0, 64, 64
1, 151011, Note_off_c, 0, 52, 65
1, 151015, Note_off_c, 0, 74, 39
1, 151023, Control_c, 0, 64, 66
1, 151036, Note_off_c, 0, 68, 37
1, 151038, Control_c, 0, 64, 68
1, 151053, Control_c, 0, 64, 68
1, 151068, Control_c, 0, 64, 70
1, 151083, Control_c, 0, 64, 72
1, 151097, Control_c, 0, 64, 74
1, 151112, Control_c, 0, 64, 75
1, 151127, Control_c, 0, 64, 75
1, 151175, Note_off_c, 0, 76, 62
1, 151186, Control_c, 0, 64, 74
1, 151186, Control_c, 0, 67, 120
1, 151202, Control_c, 0, 64, 72
1, 151202, Control_c, 0, 67, 112
1, 151205, Note_on_c, 0, 57, 56
1, 151209, Note_off_c, 0, 59, 60
1, 151217, Control_c, 0, 64, 67
1, 151217, Control_c, 0, 67, 104
1, 151226, Note_on_c, 0, 73, 43
1, 151232, Control_c, 0, 64, 62
1, 151232, Control_c, 0, 67, 98
1, 151235, Note_on_c, 0, 69, 40
1, 151245, Note_on_c, 0, 52, 41
1, 151246, Control_c, 0, 64, 52
1, 151246, Control_c, 0, 67, 92
1, 151261, Control_c, 0, 64, 32
1, 151261, Control_c, 0, 67, 87
1, 151276, Control_c, 0, 64, 0
1, 151276, Control_c, 0, 67, 81
1, 151283, Note_off_c, 0, 73, 0
1, 151283, Note_on_c, 0, 73, 18
1, 151291, Control_c, 0, 67, 75
1, 151306, Control_c, 0, 67, 69
1, 151320, Control_c, 0, 67, 66
1, 151335, Control_c, 0, 64, 22
1, 151335, Control_c, 0, 67, 62
1, 151350, Control_c, 0, 64, 32
1, 151350, Control_c, 0, 67, 57
1, 151364, Control_c, 0, 64, 40
1, 151364, Control_c, 0, 67, 52
1, 151379, Control_c, 0, 64, 49
1, 151379, Control_c, 0, 67, 45
1, 151394, Control_c, 0, 64, 57
1, 151394, Control_c, 0, 67, 40
1, 151404, Note_on_c, 0, 81, 59
1, 151409, Control_c, 0, 64, 63
1, 151409, Control_c, 0, 67, 35
1, 151424, Control_c, 0, 64, 68
1, 151424, Control_c, 0, 67, 31
1, 151439, Control_c, 0, 64, 70
1, 151439, Control_c, 0, 67, 24
1, 151454, Control_c, 0, 64, 71
1, 151454, Control_c, 0, 67, 17
1, 151469, Control_c, 0, 64, 73
1, 151469, Control_c, 0, 67, 12
1, 151483, Control_c, 0, 64, 77
1, 151483, Control_c, 0, 67, 9
1, 151498, Control_c, 0, 64, 81
1, 151498, Control_c, 0, 67, 8
1, 151513, Control_c, 0, 64, 85
1, 151513, Control_c, 0, 67, 8
1, 151528, Control_c, 0, 64, 86
1, 151543, Control_c, 0, 67, 0
1, 151558, Control_c, 0, 64, 87
1, 151572, Control_c, 0, 64, 88
1, 151585, Note_off_c, 0, 52, 60
1, 151587, Note_off_c, 0, 73, 50
1, 151587, Control_c, 0, 64, 90
1, 151590, Note_on_c, 0, 76, 59
1, 151594, Note_on_c, 0, 61, 70
1, 151602, Control_c, 0, 64, 92
1, 151617, Control_c, 0, 64, 93
1, 151646, Control_c, 0, 64, 93
1, 151661, Control_c, 0, 64, 95
1, 151674, Note_off_c, 0, 61, 64
1, 151676, Note_off_c, 0, 57, 31
1, 151676, Control_c, 0, 64, 100
1, 151691, Control_c, 0, 64, 110
1, 151706, Control_c, 0, 64, 127
1, 151787, Control_c, 0, 64, 108
1, 151798, Note_on_c, 0, 64, 78
1, 151802, Control_c, 0, 64, 63
1, 151814, Note_off_c, 0, 76, 64
1, 151817, Control_c, 0, 64, 33
1, 151821, Note_off_c, 0, 69, 51
1, 151823, Note_off_c, 0, 64, 66
1, 151832, Control_c, 0, 64, 0
1, 151838, Note_on_c, 0, 52, 23
1, 151877, Note_off_c, 0, 52, 30
1, 152005, Note_on_c, 0, 62, 70
1, 152039, Note_on_c, 0, 52, 27
1, 152184, Note_off_c, 0, 52, 59
1, 152211, Note_on_c, 0, 80, 58
1, 152226, Note_on_c, 0, 53, 33
1, 152242, Note_on_c, 0, 71, 14
1, 152250, Note_off_c, 0, 81, 54
1, 152321, Control_c, 0, 64, 9
1, 152336, Control_c, 0, 64, 20
1, 152351, Control_c, 0, 64, 28
1, 152366, Control_c, 0, 64, 38
1, 152378, Note_off_c, 0, 53, 54
1, 152381, Control_c, 0, 64, 51
1, 152395, Control_c, 0, 64, 59
1, 152402, Note_off_c, 0, 71, 41
1, 152410, Control_c, 0, 64, 64
1, 152411, Note_on_c, 0, 52, 61
1, 152425, Control_c, 0, 64, 68
1, 152440, Control_c, 0, 64, 69
1, 152442, Note_off_c, 0, 80, 33
1, 152476, Control_c, 0, 64, 70
1, 152482, Note_off_c, 0, 62, 58
1, 152491, Control_c, 0, 64, 71
1, 152580, Control_c, 0, 64, 71
1, 152595, Note_off_c, 0, 52, 64
1, 152614, Note_on_c, 0, 64, 74
1, 152615, Note_on_c, 0, 80, 55
1, 152625, Control_c, 0, 64, 72
1, 152634, Note_on_c, 0, 71, 46
1, 152640, Control_c, 0, 64, 73
1, 152655, Control_c, 0, 64, 75
1, 152669, Control_c, 0, 64, 78
1, 152677, Note_off_c, 0, 64, 63
1, 152684, Control_c, 0, 64, 80
1, 152691, Note_off_c, 0, 71, 61
1, 152699, Control_c, 0, 64, 81
1, 152758, Control_c, 0, 64, 80
1, 152773, Control_c, 0, 64, 74
1, 152788, Control_c, 0, 64, 66
1, 152804, Control_c, 0, 64, 58
1, 152813, Note_on_c, 0, 61, 69
1, 152817, Note_on_c, 0, 81, 66
1, 152818, Control_c, 0, 64, 43
1, 152833, Control_c, 0, 64, 26
1, 152843, Note_on_c, 0, 52, 47
1, 152848, Control_c, 0, 64, 27
1, 152852, Note_on_c, 0, 69, 41
1, 152863, Control_c, 0, 64, 36
1, 152875, Note_off_c, 0, 80, 61
1, 152875, Note_off_c, 0, 81, 63
1, 152878, Control_c, 0, 64, 47
1, 152882, Note_off_c, 0, 69, 56
1, 152892, Control_c, 0, 64, 57
1, 152907, Control_c, 0, 64, 64
1, 152922, Control_c, 0, 64, 68
1, 152936, Control_c, 0, 64, 70
1, 152992, Note_on_c, 0, 69, 67
1, 152996, Control_c, 0, 64, 71
1, 153011, Control_c, 0, 64, 72
1, 153025, Control_c, 0, 64, 73
1, 153040, Control_c, 0, 64, 75
1, 153055, Control_c, 0, 64, 76
1, 153062, Note_off_c, 0, 69, 63
1, 153070, Control_c, 0, 64, 77
1, 153129, Control_c, 0, 64, 78
1, 153144, Control_c, 0, 64, 79
1, 153159, Control_c, 0, 64, 80
1, 153167, Note_off_c, 0, 52, 58
1, 153179, Note_off_c, 0, 61, 57
1, 153198, Note_on_c, 0, 64, 73
1, 153221, Note_on_c, 0, 73, 48
1, 153225, Control_c, 0, 64, 80
1, 153233, Note_off_c, 0, 64, 66
1, 153240, Control_c, 0, 64, 83
1, 153249, Note_off_c, 0, 73, 58
1, 153255, Control_c, 0, 64, 87
1, 153270, Control_c, 0, 64, 95
1, 153285, Control_c, 0, 64, 110
1, 153299, Control_c, 0, 64, 127
1, 153343, Control_c, 0, 64, 107
1, 153358, Control_c, 0, 64, 76
1, 153373, Control_c, 0, 64, 60
1, 153388, Control_c, 0, 64, 29
1, 153398, Note_on_c, 0, 76, 68
1, 153403, Control_c, 0, 64, 0
1, 153406, Note_on_c, 0, 68, 64
1, 153406, Note_on_c, 0, 59, 48
1, 153423, Note_off_c, 0, 76, 69
1, 153424, Note_off_c, 0, 68, 62
1, 153427, Note_on_c, 0, 52, 37
1, 153432, Note_off_c, 0, 59, 59
1, 153455, Note_off_c, 0, 52, 52
1, 153597, Note_on_c, 0, 74, 59
1, 153606, Note_on_c, 0, 52, 24
1, 153614, Note_on_c, 0, 59, 39
1, 153627, Note_on_c, 0, 68, 49
1, 153763, Note_off_c, 0, 68, 46
1, 153791, Note_off_c, 0, 52, 54
1, 153802, Note_on_c, 0, 69, 44
1, 153816, Note_on_c, 0, 53, 40
1, 153990, Note_off_c, 0, 53, 42
1, 153994, Note_off_c, 0, 69, 56
1, 154011, Note_on_c, 0, 52, 36
1, 154035, Note_on_c, 0, 68, 40
1, 154217, Note_off_c, 0, 74, 55
1, 154220, Note_on_c, 0, 76, 49
1, 154300, Control_c, 0, 64, 14
1, 154315, Control_c, 0, 64, 30
1, 154330, Control_c, 0, 64, 40
1, 154345, Control_c, 0, 64, 50
1, 154360, Control_c, 0, 64, 58
1, 154375, Control_c, 0, 64, 62
1, 154390, Control_c, 0, 64, 64
1, 154405, Control_c, 0, 64, 64
1, 154411, Note_on_c, 0, 74, 53
1, 154420, Control_c, 0, 64, 65
1, 154435, Control_c, 0, 64, 65
1, 154450, Control_c, 0, 64, 66
1, 154458, Note_off_c, 0, 76, 37
1, 154464, Control_c, 0, 64, 67
1, 154479, Control_c, 0, 64, 67
1, 154494, Control_c, 0, 64, 68
1, 154509, Control_c, 0, 64, 69
1, 154524, Control_c, 0, 64, 69
1, 154539, Control_c, 0, 64, 70
1, 154594, Note_on_c, 0, 69, 59
1, 154602, Note_on_c, 0, 53, 48
1, 154607, Note_off_c, 0, 52, 50
1, 154607, Note_off_c, 0, 68, 53
1, 154672, Control_c, 0, 64, 69
1, 154686, Control_c, 0, 64, 67
1, 154701, Control_c, 0, 64, 65
1, 154723, Control_c, 0, 64, 62
1, 154738, Control_c, 0, 64, 57
1, 154753, Control_c, 0, 64, 48
1, 154768, Control_c, 0, 64, 31
1, 154783, Control_c, 0, 64, 0
1, 154792, Note_off_c, 0, 53, 56
1, 154802, Note_on_c, 0, 68, 52
1, 154807, Note_on_c, 0, 52, 44
1, 154808, Note_off_c, 0, 69, 59
1, 154991, Note_on_c, 0, 76, 68
1, 155023, Note_off_c, 0, 74, 59
1, 155034, Control_c, 0, 64, 23
1, 155049, Control_c, 0, 64, 37
1, 155063, Control_c, 0, 64, 51
1, 155078, Control_c, 0, 64, 60
1, 155093, Control_c, 0, 64, 66
1, 155108, Control_c, 0, 64, 70
1, 155123, Control_c, 0, 64, 71
1, 155136, Note_off_c, 0, 52, 64
1, 155167, Note_off_c, 0, 59, 50
1, 155168, Control_c, 0, 64, 72
1, 155182, Note_off_c, 0, 68, 60
1, 155183, Note_on_c, 0, 74, 74
1, 155183, Control_c, 0, 64, 72
1, 155192, Note_off_c, 0, 76, 54
1, 155198, Control_c, 0, 64, 73
1, 155213, Control_c, 0, 64, 76
1, 155227, Control_c, 0, 64, 80
1, 155242, Control_c, 0, 64, 86
1, 155257, Control_c, 0, 64, 90
1, 155272, Control_c, 0, 64, 92
1, 155287, Control_c, 0, 64, 93
1, 155302, Control_c, 0, 64, 94
1, 155346, Control_c, 0, 64, 88
1, 155355, Note_on_c, 0, 76, 82
1, 155361, Control_c, 0, 64, 75
1, 155362, Note_on_c, 0, 68, 82
1, 155366, Note_on_c, 0, 59, 72
1, 155376, Control_c, 0, 64, 62
1, 155378, Note_off_c, 0, 74, 52
1, 155381, Note_on_c, 0, 52, 65
1, 155391, Control_c, 0, 64, 46
1, 155405, Control_c, 0, 64, 13
1, 155420, Control_c, 0, 64, 0
1, 155435, Control_c, 0, 64, 25
1, 155450, Control_c, 0, 64, 44
1, 155472, Control_c, 0, 64, 61
1, 155487, Control_c, 0, 64, 88
1, 155502, Control_c, 0, 64, 127
1, 155517, Control_c, 0, 64, 105
1, 155531, Note_off_c, 0, 76, 63
1, 155531, Control_c, 0, 64, 63
1, 155539, Note_off_c, 0, 52, 60
1, 155546, Control_c, 0, 64, 34
1, 155551, Note_on_c, 0, 53, 76
1, 155555, Note_on_c, 0, 69, 67
1, 155558, Note_on_c, 0, 74, 78
1, 155561, Note_off_c, 0, 68, 50
1, 155561, Control_c, 0, 64, 0
1, 155562, Note_off_c, 0, 59, 62
1, 155579, Note_off_c, 0, 53, 69
1, 155582, Note_off_c, 0, 69, 65
1, 155732, Note_on_c, 0, 59, 90
1, 155734, Note_on_c, 0, 76, 78
1, 155736, Note_on_c, 0, 68, 86
1, 155740, Note_on_c, 0, 52, 82
1, 155757, Note_off_c, 0, 74, 53
1, 155798, Control_c, 0, 64, 29
1, 155812, Control_c, 0, 64, 49
1, 155827, Control_c, 0, 64, 56
1, 155842, Control_c, 0, 64, 61
1, 155843, Note_off_c, 0, 76, 61
1, 155847, Note_off_c, 0, 68, 59
1, 155856, Control_c, 0, 64, 67
1, 155871, Control_c, 0, 64, 89
1, 155886, Control_c, 0, 64, 127
1, 155900, Note_on_c, 0, 53, 86
1, 155907, Note_off_c, 0, 52, 47
1, 155910, Note_on_c, 0, 69, 63
1, 155910, Note_off_c, 0, 59, 63
1, 155918, Note_on_c, 0, 74, 79
1, 155937, Note_off_c, 0, 69, 67
1, 155943, Note_off_c, 0, 53, 67
1, 155961, Note_off_c, 0, 74, 62
1, 155976, Control_c, 0, 64, 105
1, 155991, Control_c, 0, 64, 78
1, 156002, Note_on_c, 0, 76, 81
1, 156006, Control_c, 0, 64, 63
1, 156021, Control_c, 0, 64, 55
1, 156035, Control_c, 0, 64, 14
1, 156050, Control_c, 0, 64, 0
1, 156092, Note_on_c, 0, 52, 93
1, 156092, Note_off_c, 0, 76, 58
1, 156094, Note_on_c, 0, 78, 90
1, 156154, Control_c, 0, 64, 34
1, 156168, Note_on_c, 0, 80, 93
1, 156169, Control_c, 0, 64, 57
1, 156175, Note_off_c, 0, 52, 66
1, 156177, Note_on_c, 0, 50, 74
1, 156184, Control_c, 0, 64, 90
1, 156190, Note_off_c, 0, 78, 64
1, 156199, Control_c, 0, 64, 127
1, 156252, Note_off_c, 0, 80, 62
1, 156256, Note_on_c, 0, 49, 97
1, 156265, Note_off_c, 0, 50, 64
1, 156265, Control_c, 0, 64, 63
1, 156280, Control_c, 0, 64, 26
1, 156283, Note_on_c, 0, 81, 92
1, 156283, Note_off_c, 0, 49, 69
1, 156295, Control_c, 0, 64, 0
1, 156347, Note_off_c, 0, 81, 0
1, 156360, Note_on_c, 0, 83, 90
1, 156366, Poly_aftertouch_c, 0, 81, 0
1, 156447, Note_on_c, 0, 40, 90
1, 156454, Note_off_c, 0, 83, 62
1, 156459, Note_on_c, 0, 85, 87
1, 156478, Note_off_c, 0, 40, 68
1, 156531, Note_on_c, 0, 86, 84
1, 156545, Note_off_c, 0, 85, 62
1, 156639, Note_on_c, 0, 88, 88
1, 156646, Note_on_c, 0, 37, 88
1, 156649, Note_on_c, 0, 76, 78
1, 156664, Note_off_c, 0, 86, 59
1, 156665, Note_off_c, 0, 88, 68
1, 156668, Note_off_c, 0, 76, 74
1, 156842, Note_on_c, 0, 71, 77
1, 156842, Note_on_c, 0, 83, 83
1, 156858, Note_off_c, 0, 83, 75
1, 156862, Note_off_c, 0, 71, 73
1, 157034, Note_on_c, 0, 81, 94
1, 157035, Note_on_c, 0, 69, 83
1, 157086, Note_off_c, 0, 37, 63
1, 157120, Note_on_c, 0, 38, 81
1, 157214, Note_on_c, 0, 40, 82
1, 157232, Note_off_c, 0, 38, 61
1, 157294, Note_on_c, 0, 42, 81
1, 157324, Note_off_c, 0, 40, 47
1, 157379, Note_off_c, 0, 42, 60
1, 157385, Note_off_c, 0, 69, 63
1, 157397, Note_on_c, 0, 35, 86
1, 157420, Note_off_c, 0, 81, 64
1, 157489, Note_on_c, 0, 83, 79
1, 157547, Control_c, 0, 64, 8
1, 157562, Control_c, 0, 64, 39
1, 157578, Control_c, 0, 64, 49
1, 157582, Note_on_c, 0, 85, 79
1, 157593, Control_c, 0, 64, 56
1, 157607, Control_c, 0, 64, 63
1, 157618, Note_off_c, 0, 83, 53
1, 157622, Control_c, 0, 64, 81
1, 157637, Control_c, 0, 64, 127
1, 157666, Note_on_c, 0, 86, 78
1, 157687, Note_off_c, 0, 35, 63
1, 157687, Note_off_c, 0, 86, 69
1, 157699, Note_off_c, 0, 85, 64
1, 157749, Control_c, 0, 64, 63
1, 157764, Control_c, 0, 64, 0
1, 157776, Note_on_c, 0, 80, 86
1, 157785, Note_on_c, 0, 68, 81
1, 157972, Note_on_c, 0, 40, 88
1, 157995, Note_off_c, 0, 40, 68
1, 158161, Note_on_c, 0, 33, 92
1, 158166, Note_off_c, 0, 68, 60
1, 158181, Note_off_c, 0, 80, 63
1, 158348, Note_on_c, 0, 80, 81
1, 158354, Note_on_c, 0, 68, 74
1, 158366, Note_off_c, 0, 80, 72
1, 158369, Note_off_c, 0, 68, 66
1, 158560, Note_on_c, 0, 78, 92
1, 158563, Note_on_c, 0, 66, 85
1, 158616, Note_off_c, 0, 33, 57
1, 158647, Note_on_c, 0, 35, 60
1, 158675, Control_c, 0, 64, 24
1, 158677, Note_on_c, 0, 36, 34
1, 158689, Control_c, 0, 64, 28
1, 158704, Control_c, 0, 64, 30
1, 158707, Note_off_c, 0, 66, 62
1, 158709, Note_off_c, 0, 36, 33
1, 158719, Control_c, 0, 64, 35
1, 158725, Note_on_c, 0, 37, 78
1, 158734, Control_c, 0, 64, 43
1, 158743, Note_off_c, 0, 35, 62
1, 158745, Note_off_c, 0, 78, 63
1, 158749, Control_c, 0, 64, 53
1, 158763, Control_c, 0, 64, 61
1, 158778, Control_c, 0, 64, 68
1, 158793, Control_c, 0, 64, 74
1, 158808, Control_c, 0, 64, 78
1, 158816, Note_on_c, 0, 38, 80
1, 158821, Note_off_c, 0, 37, 61
1, 158823, Control_c, 0, 64, 85
1, 158837, Control_c, 0, 64, 99
1, 158852, Control_c, 0, 64, 127
1, 158897, Control_c, 0, 64, 90
1, 158908, Note_off_c, 0, 38, 63
1, 158912, Note_on_c, 0, 32, 85
1, 158912, Control_c, 0, 64, 65
1, 158927, Control_c, 0, 64, 38
1, 158942, Control_c, 0, 64, 0
1, 159025, Note_on_c, 0, 80, 71
1, 159109, Note_on_c, 0, 81, 74
1, 159114, Note_off_c, 0, 80, 62
1, 159189, Note_on_c, 0, 83, 78
1, 159220, Note_off_c, 0, 83, 70
1, 159222, Note_off_c, 0, 81, 56
1, 159246, Control_c, 0, 64, 42
1, 159255, Note_off_c, 0, 32, 63
1, 159261, Control_c, 0, 64, 57
1, 159275, Control_c, 0, 64, 63
1, 159290, Control_c, 0, 64, 69
1, 159305, Control_c, 0, 64, 84
1, 159306, Note_on_c, 0, 76, 76
1, 159320, Control_c, 0, 64, 127
1, 159320, Note_on_c, 0, 64, 49
1, 159320, Note_off_c, 0, 76, 71
1, 159346, Note_off_c, 0, 64, 61
1, 159368, Note_on_c, 0, 62, 3
1, 159408, Note_off_c, 0, 62, 40
1, 159493, Note_on_c, 0, 40, 83
1, 159646, Control_c, 0, 64, 99
1, 159660, Control_c, 0, 64, 58
1, 159671, Note_on_c, 0, 42, 77
1, 159671, Note_off_c, 0, 40, 63
1, 159675, Control_c, 0, 64, 0
1, 159759, Note_on_c, 0, 44, 65
1, 159759, Note_off_c, 0, 42, 60
1, 159849, Note_on_c, 0, 52, 84
1, 159863, Note_off_c, 0, 44, 61
1, 159866, Note_on_c, 0, 45, 67
1, 159929, Note_off_c, 0, 45, 62
1, 159964, Note_on_c, 0, 47, 72
1, 159980, Control_c, 0, 67, 8
1, 159995, Control_c, 0, 67, 9
1, 160009, Control_c, 0, 67, 10
1, 160024, Control_c, 0, 67, 11
1, 160027, Note_off_c, 0, 47, 60
1, 160041, Note_off_c, 0, 52, 63
1, 160050, Note_on_c, 0, 45, 65
1, 160057, Note_on_c, 0, 54, 70
1, 160083, Control_c, 0, 67, 12
1, 160113, Note_off_c, 0, 45, 62
1, 160128, Note_on_c, 0, 44, 67
1, 160128, Control_c, 0, 67, 12
1, 160143, Note_on_c, 0, 56, 69
1, 160145, Note_off_c, 0, 54, 63
1, 160206, Note_off_c, 0, 44, 62
1, 160220, Note_on_c, 0, 42, 59
1, 160231, Note_on_c, 0, 57, 59
1, 160231, Note_off_c, 0, 56, 66
1, 160296, Note_off_c, 0, 57, 59
1, 160313, Note_on_c, 0, 59, 63
1, 160313, Note_off_c, 0, 42, 59
1, 160322, Note_on_c, 0, 44, 61
1, 160393, Note_off_c, 0, 59, 55
1, 160408, Note_on_c, 0, 57, 67
1, 160408, Note_off_c, 0, 44, 62
1, 160409, Control_c, 0, 67, 12
1, 160414, Note_on_c, 0, 45, 67
1, 160467, Note_off_c, 0, 45, 60
1, 160477, Note_off_c, 0, 57, 58
1, 160493, Note_on_c, 0, 56, 73
1, 160498, Note_on_c, 0, 47, 68
1, 160557, Control_c, 0, 67, 11
1, 160583, Note_on_c, 0, 57, 69
1, 160586, Note_on_c, 0, 49, 77
1, 160596, Note_off_c, 0, 47, 62
1, 160634, Note_off_c, 0, 56, 51
1, 160662, Note_off_c, 0, 57, 60
1, 160665, Note_off_c, 0, 49, 65
1, 160671, Note_on_c, 0, 59, 72
1, 160681, Note_on_c, 0, 50, 63
1, 160743, Control_c, 0, 67, 12
1, 160750, Note_off_c, 0, 59, 55
1, 160767, Note_off_c, 0, 50, 63
1, 160773, Control_c, 0, 67, 12
1, 160776, Note_on_c, 0, 49, 67
1, 160788, Note_on_c, 0, 57, 64
1, 160833, Control_c, 0, 67, 13
1, 160843, Note_off_c, 0, 57, 61
1, 160858, Note_off_c, 0, 49, 63
1, 160859, Note_on_c, 0, 56, 67
1, 160871, Note_on_c, 0, 47, 65
1, 160942, Note_off_c, 0, 56, 63
1, 160946, Note_off_c, 0, 47, 64
1, 160961, Note_on_c, 0, 45, 61
1, 160961, Note_on_c, 0, 54, 67
1, 161042, Note_off_c, 0, 45, 63
1, 161047, Note_off_c, 0, 54, 63
1, 161048, Note_on_c, 0, 56, 74
1, 161065, Note_on_c, 0, 47, 60
1, 161117, Note_off_c, 0, 56, 65
1, 161133, Note_on_c, 0, 57, 78
1, 161139, Note_on_c, 0, 49, 73
1, 161145, Note_off_c, 0, 47, 64
1, 161222, Note_on_c, 0, 59, 78
1, 161222, Note_off_c, 0, 57, 62
1, 161233, Note_on_c, 0, 50, 67
1, 161235, Note_off_c, 0, 49, 64
1, 161263, Control_c, 0, 67, 12
1, 161294, Note_off_c, 0, 50, 62
1, 161304, Note_on_c, 0, 61, 86
1, 161312, Note_off_c, 0, 59, 63
1, 161321, Note_on_c, 0, 52, 76
1, 161382, Note_off_c, 0, 61, 66
1, 161391, Note_on_c, 0, 62, 89
1, 161404, Note_off_c, 0, 52, 62
1, 161407, Note_on_c, 0, 54, 77
1, 161425, Control_c, 0, 67, 12
1, 161440, Control_c, 0, 67, 11
1, 161490, Note_on_c, 0, 64, 88
1, 161504, Note_off_c, 0, 62, 57
1, 161505, Note_off_c, 0, 54, 63
1, 161507, Note_on_c, 0, 56, 72
1, 161507, Control_c, 0, 67, 11
1, 161537, Control_c, 0, 67, 10
1, 161568, Note_off_c, 0, 56, 65
1, 161574, Note_on_c, 0, 66, 87
1, 161581, Note_on_c, 0, 57, 78
1, 161582, Control_c, 0, 67, 10
1, 161611, Note_off_c, 0, 64, 58
1, 161627, Control_c, 0, 67, 9
1, 161651, Note_off_c, 0, 57, 61
1, 161660, Note_on_c, 0, 68, 87
1, 161669, Note_on_c, 0, 54, 70
1, 161680, Note_off_c, 0, 66, 56
1, 161686, Control_c, 0, 67, 9
1, 161745, Note_on_c, 0, 69, 83
1, 161745, Control_c, 0, 67, 9
1, 161751, Note_on_c, 0, 51, 67
1, 161751, Note_off_c, 0, 68, 59
1, 161768, Note_off_c, 0, 54, 59
1, 161804, Control_c, 0, 67, 10
1, 161833, Note_off_c, 0, 69, 54
1, 161834, Control_c, 0, 67, 10
1, 161842, Note_on_c, 0, 68, 83
1, 161847, Note_on_c, 0, 52, 72
1, 161893, Control_c, 0, 67, 11
1, 161899, Note_off_c, 0, 51, 30
1, 161909, Note_off_c, 0, 52, 65
1, 161925, Note_on_c, 0, 69, 79
1, 161926, Note_off_c, 0, 68, 56
1, 161934, Note_on_c, 0, 54, 74
1, 161967, Control_c, 0, 67, 10
1, 161997, Control_c, 0, 67, 10
1, 161999, Note_off_c, 0, 54, 63
1, 162006, Note_off_c, 0, 69, 61
1, 162010, Note_on_c, 0, 66, 79
1, 162012, Control_c, 0, 67, 9
1, 162027, Control_c, 0, 67, 9
1, 162027, Note_on_c, 0, 50, 61
1, 162042, Control_c, 0, 67, 8
1, 162056, Control_c, 0, 67, 8
1, 162085, Note_off_c, 0, 66, 59
1, 162090, Note_on_c, 0, 62, 78
1, 162098, Note_off_c, 0, 50, 63
1, 162100, Control_c, 0, 67, 0
1, 162111, Note_on_c, 0, 47, 69
1, 162158, Note_off_c, 0, 62, 59
1, 162184, Note_on_c, 0, 64, 72
1, 162204, Note_off_c, 0, 47, 63
1, 162205, Note_on_c, 0, 49, 70
1, 162273, Note_off_c, 0, 64, 63
1, 162282, Note_on_c, 0, 66, 76
1, 162283, Note_off_c, 0, 49, 64
1, 162286, Note_on_c, 0, 50, 70
1, 162332, Note_off_c, 0, 50, 65
1, 162343, Note_off_c, 0, 66, 61
1, 162370, Note_on_c, 0, 59, 65
1, 162380, Note_on_c, 0, 52, 54
1, 162411, Note_off_c, 0, 52, 53
1, 162445, Note_off_c, 0, 59, 59
1, 162458, Note_on_c, 0, 64, 66
1, 162523, Control_c, 0, 67, 18
1, 162538, Control_c, 0, 67, 36
1, 162539, Note_on_c, 0, 45, 48
1, 162553, Note_on_c, 0, 57, 62
1, 162553, Control_c, 0, 67, 53
1, 162554, Note_off_c, 0, 64, 61
1, 162555, Note_on_c, 0, 49, 44
1, 162568, Control_c, 0, 67, 79
1, 162577, Note_off_c, 0, 57, 64
1, 162583, Control_c, 0, 67, 111
1, 162597, Control_c, 0, 67, 127
1, 162614, Note_off_c, 0, 49, 64
1, 162632, Note_on_c, 0, 50, 48
1, 162675, Note_off_c, 0, 50, 64
1, 162723, Note_on_c, 0, 52, 45
1, 162766, Note_off_c, 0, 52, 58
1, 162796, Note_on_c, 0, 54, 50
1, 162894, Note_on_c, 0, 52, 53
1, 162898, Note_off_c, 0, 54, 62
1, 162909, Note_on_c, 0, 69, 66
1, 162909, Note_off_c, 0, 45, 50
1, 162922, Note_off_c, 0, 52, 67
1, 162933, Note_on_c, 0, 61, 33
1, 162972, Note_off_c, 0, 61, 52
1, 163016, Note_on_c, 0, 62, 49
1, 163063, Note_off_c, 0, 62, 60
1, 163087, Note_on_c, 0, 64, 53
1, 163160, Note_off_c, 0, 64, 61
1, 163161, Note_off_c, 0, 69, 0
1, 163176, Note_on_c, 0, 66, 46
1, 163199, Poly_aftertouch_c, 0, 69, 127
1, 163240, Note_off_c, 0, 66, 60
1, 163285, Note_on_c, 0, 64, 56
1, 163301, Note_on_c, 0, 45, 35
1, 163307, Note_on_c, 0, 49, 38
1, 163330, Control_c, 0, 64, 22
1, 163344, Control_c, 0, 64, 29
1, 163359, Control_c, 0, 64, 36
1, 163367, Note_off_c, 0, 49, 56
1, 163367, Poly_aftertouch_c, 0, 69, 0
1, 163374, Control_c, 0, 64, 46
1, 163377, Note_off_c, 0, 64, 61
1, 163389, Control_c, 0, 64, 55
1, 163392, Note_on_c, 0, 50, 50
1, 163404, Control_c, 0, 64, 61
1, 163419, Control_c, 0, 64, 64
1, 163434, Control_c, 0, 64, 66
1, 163436, Note_off_c, 0, 50, 64
1, 163464, Control_c, 0, 64, 67
1, 163478, Control_c, 0, 64, 68
1, 163493, Control_c, 0, 64, 71
1, 163493, Note_on_c, 0, 52, 58
1, 163508, Control_c, 0, 64, 75
1, 163523, Control_c, 0, 64, 81
1, 163538, Control_c, 0, 64, 91
1, 163552, Control_c, 0, 64, 110
1, 163553, Note_off_c, 0, 52, 65
1, 163567, Control_c, 0, 64, 127
1, 163574, Note_on_c, 0, 54, 53
1, 163612, Control_c, 0, 64, 106
1, 163626, Control_c, 0, 64, 71
1, 163641, Control_c, 0, 64, 51
1, 163656, Control_c, 0, 64, 0
1, 163659, Note_off_c, 0, 45, 58
1, 163663, Note_off_c, 0, 54, 63
1, 163667, Note_on_c, 0, 69, 68
1, 163673, Note_on_c, 0, 52, 54
1, 163680, Note_on_c, 0, 61, 50
1, 163706, Note_off_c, 0, 52, 56
1, 163720, Note_off_c, 0, 61, 55
1, 163768, Note_on_c, 0, 62, 51
1, 163826, Note_off_c, 0, 62, 57
1, 163849, Note_on_c, 0, 64, 55
1, 163923, Note_off_c, 0, 64, 62
1, 163929, Note_off_c, 0, 69, 0
1, 163929, Note_on_c, 0, 69, 15
1, 163941, Note_on_c, 0, 66, 52
1, 163986, Note_off_c, 0, 66, 60
1, 164030, Note_on_c, 0, 64, 55
1, 164035, Control_c, 0, 64, 18
1, 164045, Note_on_c, 0, 50, 49
1, 164049, Control_c, 0, 64, 31
1, 164051, Note_on_c, 0, 47, 39
1, 164064, Control_c, 0, 64, 36
1, 164075, Note_off_c, 0, 69, 58
1, 164079, Control_c, 0, 64, 42
1, 164090, Note_off_c, 0, 64, 63
1, 164094, Control_c, 0, 64, 51
1, 164104, Note_off_c, 0, 50, 58
1, 164108, Control_c, 0, 64, 59
1, 164123, Note_on_c, 0, 52, 55
1, 164123, Control_c, 0, 64, 66
1, 164138, Control_c, 0, 64, 70
1, 164153, Control_c, 0, 64, 72
1, 164179, Note_off_c, 0, 52, 61
1, 164197, Control_c, 0, 64, 72
1, 164212, Note_on_c, 0, 54, 54
1, 164227, Control_c, 0, 64, 74
1, 164242, Control_c, 0, 64, 75
1, 164257, Control_c, 0, 64, 78
1, 164271, Note_off_c, 0, 54, 61
1, 164271, Control_c, 0, 64, 82
1, 164286, Control_c, 0, 64, 86
1, 164300, Note_on_c, 0, 52, 51
1, 164301, Control_c, 0, 64, 88
1, 164324, Note_off_c, 0, 52, 61
1, 164331, Control_c, 0, 64, 83
1, 164346, Control_c, 0, 64, 70
1, 164361, Control_c, 0, 64, 58
1, 164375, Control_c, 0, 64, 33
1, 164390, Control_c, 0, 64, 0
1, 164400, Note_on_c, 0, 52, 67
1, 164406, Note_on_c, 0, 68, 75
1, 164414, Note_off_c, 0, 47, 56
1, 164426, Note_off_c, 0, 52, 68
1, 164431, Note_on_c, 0, 62, 33
1, 164435, Control_c, 0, 64, 20
1, 164457, Control_c, 0, 64, 37
1, 164472, Note_off_c, 0, 62, 53
1, 164472, Control_c, 0, 64, 49
1, 164487, Control_c, 0, 64, 58
1, 164496, Note_on_c, 0, 64, 61
1, 164501, Control_c, 0, 64, 64
1, 164516, Control_c, 0, 64, 69
1, 164531, Control_c, 0, 64, 70
1, 164546, Note_off_c, 0, 68, 49
1, 164576, Control_c, 0, 64, 71
1, 164581, Note_off_c, 0, 64, 61
1, 164586, Note_on_c, 0, 66, 66
1, 164590, Control_c, 0, 64, 72
1, 164605, Control_c, 0, 64, 73
1, 164615, Note_off_c, 0, 66, 67
1, 164620, Control_c, 0, 64, 75
1, 164635, Control_c, 0, 64, 76
1, 164650, Control_c, 0, 64, 77
1, 164657, Note_on_c, 0, 64, 62
1, 164665, Control_c, 0, 64, 78
1, 164680, Control_c, 0, 64, 80
1, 164694, Note_off_c, 0, 64, 55
1, 164695, Control_c, 0, 64, 82
1, 164724, Control_c, 0, 64, 79
1, 164739, Control_c, 0, 64, 69
1, 164754, Control_c, 0, 64, 57
1, 164769, Control_c, 0, 64, 27
1, 164771, Note_on_c, 0, 76, 83
1, 164784, Note_on_c, 0, 50, 49
1, 164784, Control_c, 0, 64, 0
1, 164792, Note_on_c, 0, 47, 41
1, 164858, Control_c, 0, 64, 33
1, 164862, Note_off_c, 0, 50, 59
1, 164872, Note_on_c, 0, 52, 57
1, 164873, Control_c, 0, 64, 46
1, 164883, Note_off_c, 0, 76, 67
1, 164888, Control_c, 0, 64, 56
1, 164903, Control_c, 0, 64, 64
1, 164910, Note_on_c, 0, 64, 31
1, 164918, Control_c, 0, 64, 70
1, 164927, Note_off_c, 0, 52, 49
1, 164932, Control_c, 0, 64, 73
1, 164947, Note_off_c, 0, 64, 53
1, 164947, Control_c, 0, 64, 74
1, 164955, Note_on_c, 0, 54, 62
1, 164962, Control_c, 0, 64, 74
1, 164977, Control_c, 0, 64, 75
1, 164992, Control_c, 0, 64, 77
1, 165005, Note_off_c, 0, 54, 61
1, 165006, Control_c, 0, 64, 79
1, 165021, Control_c, 0, 64, 84
1, 165030, Note_on_c, 0, 52, 52
1, 165036, Control_c, 0, 64, 90
1, 165050, Control_c, 0, 64, 97
1, 165054, Note_off_c, 0, 52, 63
1, 165065, Control_c, 0, 64, 102
1, 165095, Control_c, 0, 64, 95
1, 165110, Control_c, 0, 64, 76
1, 165124, Control_c, 0, 64, 62
1, 165136, Note_on_c, 0, 52, 67
1, 165139, Control_c, 0, 64, 42
1, 165140, Note_on_c, 0, 68, 71
1, 165154, Note_on_c, 0, 62, 53
1, 165154, Control_c, 0, 64, 0
1, 165160, Note_off_c, 0, 47, 55
1, 165162, Note_off_c, 0, 52, 69
1, 165178, Note_off_c, 0, 62, 62
1, 165184, Control_c, 0, 64, 12
1, 165205, Control_c, 0, 64, 35
1, 165220, Control_c, 0, 64, 50
1, 165231, Note_on_c, 0, 64, 56
1, 165235, Control_c, 0, 64, 62
1, 165249, Control_c, 0, 64, 73
1, 165264, Control_c, 0, 64, 84
1, 165279, Control_c, 0, 64, 85
1, 165303, Note_off_c, 0, 64, 61
1, 165309, Control_c, 0, 64, 85
1, 165317, Note_on_c, 0, 66, 64
1, 165324, Control_c, 0, 64, 88
1, 165339, Control_c, 0, 64, 93
1, 165354, Control_c, 0, 64, 103
1, 165368, Control_c, 0, 64, 127
1, 165417, Note_on_c, 0, 64, 55
1, 165428, Note_off_c, 0, 66, 50
1, 165446, Note_off_c, 0, 68, 34
1, 165472, Control_c, 0, 64, 77
1, 165487, Control_c, 0, 64, 58
1, 165491, Note_off_c, 0, 64, 0
1, 165502, Control_c, 0, 64, 18
1, 165512, Note_on_c, 0, 69, 65
1, 165515, Note_on_c, 0, 64, 32
1, 165517, Control_c, 0, 64, 0
1, 165519, Note_on_c, 0, 45, 45
1, 165532, Note_on_c, 0, 49, 48
1, 165540, Note_off_c, 0, 64, 60
1, 165547, Note_off_c, 0, 69, 64
1, 165617, Note_on_c, 0, 50, 52
1, 165646, Note_off_c, 0, 49, 37
1, 165661, Note_off_c, 0, 50, 65
1, 165704, Note_on_c, 0, 52, 58
1, 165764, Note_off_c, 0, 52, 65
1, 165790, Note_on_c, 0, 54, 49
1, 165869, Note_off_c, 0, 45, 63
1, 165869, Note_off_c, 0, 54, 63
1, 165876, Note_on_c, 0, 69, 65
1, 165881, Note_on_c, 0, 52, 57
1, 165886, Note_on_c, 0, 61, 54
1, 165906, Note_off_c, 0, 52, 58
1, 165929, Note_off_c, 0, 61, 60
1, 165984, Note_on_c, 0, 62, 56
1, 166051, Note_off_c, 0, 62, 59
1, 166080, Note_on_c, 0, 64, 47
1, 166114, Note_off_c, 0, 69, 0
1, 166131, Note_off_c, 0, 64, 60
1, 166150, Poly_aftertouch_c, 0, 69, 127
1, 166156, Note_on_c, 0, 66, 50
1, 166235, Note_off_c, 0, 66, 59
1, 166248, Note_on_c, 0, 64, 58
1, 166256, Note_on_c, 0, 49, 50
1, 166259, Note_on_c, 0, 45, 36
1, 166265, Control_c, 0, 64, 21
1, 166280, Control_c, 0, 64, 36
1, 166284, Poly_aftertouch_c, 0, 69, 0
1, 166293, Note_off_c, 0, 64, 62
1, 166295, Control_c, 0, 64, 44
1, 166310, Note_off_c, 0, 49, 62
1, 166310, Control_c, 0, 64, 50
1, 166325, Control_c, 0, 64, 57
1, 166339, Control_c, 0, 64, 62
1, 166345, Note_on_c, 0, 50, 52
1, 166354, Control_c, 0, 64, 66
1, 166370, Control_c, 0, 64, 69
1, 166385, Control_c, 0, 64, 71
1, 166387, Note_off_c, 0, 50, 63
1, 166400, Control_c, 0, 64, 71
1, 166415, Control_c, 0, 64, 72
1, 166430, Control_c, 0, 64, 73
1, 166436, Note_on_c, 0, 52, 65
1, 166444, Control_c, 0, 64, 74
1, 166459, Control_c, 0, 64, 76
1, 166474, Control_c, 0, 64, 78
1, 166488, Control_c, 0, 64, 81
1, 166494, Note_off_c, 0, 52, 65
1, 166503, Control_c, 0, 64, 88
1, 166513, Note_on_c, 0, 54, 58
1, 166518, Control_c, 0, 64, 104
1, 166533, Control_c, 0, 64, 127
1, 166577, Control_c, 0, 64, 92
1, 166592, Control_c, 0, 64, 67
1, 166607, Control_c, 0, 64, 45
1, 166613, Note_off_c, 0, 54, 64
1, 166615, Note_on_c, 0, 52, 63
1, 166617, Note_off_c, 0, 45, 51
1, 166620, Note_on_c, 0, 69, 66
1, 166622, Control_c, 0, 64, 0
1, 166623, Note_on_c, 0, 61, 55
1, 166635, Note_off_c, 0, 52, 64
1, 166656, Note_off_c, 0, 61, 65
1, 166713, Note_on_c, 0, 62, 59
1, 166779, Note_off_c, 0, 62, 62
1, 166802, Note_on_c, 0, 64, 52
1, 166866, Note_off_c, 0, 64, 62
1, 166884, Note_on_c, 0, 66, 54
1, 166958, Note_off_c, 0, 66, 60
1, 166975, Note_on_c, 0, 64, 63
1, 166984, Note_on_c, 0, 50, 54
1, 166990, Note_on_c, 0, 47, 45
1, 166999, Control_c, 0, 64, 34
1, 167002, Note_off_c, 0, 69, 59
1, 167007, Note_off_c, 0, 64, 65
1, 167014, Control_c, 0, 64, 46
1, 167029, Control_c, 0, 64, 53
1, 167044, Control_c, 0, 64, 57
1, 167055, Note_off_c, 0, 50, 59
1, 167059, Control_c, 0, 64, 61
1, 167074, Control_c, 0, 64, 65
1, 167077, Note_on_c, 0, 52, 55
1, 167088, Control_c, 0, 64, 68
1, 167103, Control_c, 0, 64, 70
1, 167118, Control_c, 0, 64, 71
1, 167127, Note_off_c, 0, 52, 63
1, 167133, Control_c, 0, 64, 72
1, 167148, Control_c, 0, 64, 73
1, 167151, Note_on_c, 0, 54, 64
1, 167163, Control_c, 0, 64, 74
1, 167178, Control_c, 0, 64, 76
1, 167193, Control_c, 0, 64, 79
1, 167208, Control_c, 0, 64, 83
1, 167211, Note_off_c, 0, 54, 61
1, 167223, Control_c, 0, 64, 88
1, 167226, Note_on_c, 0, 52, 63
1, 167237, Control_c, 0, 64, 92
1, 167252, Control_c, 0, 64, 93
1, 167254, Note_off_c, 0, 52, 66
1, 167267, Control_c, 0, 64, 93
1, 167282, Control_c, 0, 64, 83
1, 167297, Control_c, 0, 64, 68
1, 167311, Control_c, 0, 64, 54
1, 167326, Control_c, 0, 64, 9
1, 167336, Note_on_c, 0, 68, 74
1, 167341, Control_c, 0, 64, 0
1, 167342, Note_on_c, 0, 52, 63
1, 167351, Note_on_c, 0, 62, 60
1, 167358, Note_off_c, 0, 47, 57
1, 167370, Note_off_c, 0, 52, 68
1, 167391, Note_off_c, 0, 62, 62
1, 167400, Control_c, 0, 64, 35
1, 167415, Control_c, 0, 64, 47
1, 167428, Note_on_c, 0, 64, 63
1, 167430, Control_c, 0, 64, 57
1, 167449, Note_off_c, 0, 68, 58
1, 167452, Control_c, 0, 64, 63
1, 167467, Control_c, 0, 64, 68
1, 167482, Control_c, 0, 64, 72
1, 167497, Control_c, 0, 64, 73
1, 167512, Control_c, 0, 64, 74
1, 167512, Note_off_c, 0, 64, 60
1, 167524, Note_on_c, 0, 66, 68
1, 167556, Control_c, 0, 64, 75
1, 167559, Note_off_c, 0, 66, 62
1, 167571, Control_c, 0, 64, 77
1, 167586, Control_c, 0, 64, 80
1, 167600, Note_on_c, 0, 64, 65
1, 167600, Control_c, 0, 64, 81
1, 167625, Note_off_c, 0, 64, 66
1, 167644, Control_c, 0, 64, 80
1, 167659, Control_c, 0, 64, 75
1, 167674, Control_c, 0, 64, 65
1, 167689, Control_c, 0, 64, 52
1, 167704, Control_c, 0, 64, 0
1, 167705, Note_on_c, 0, 76, 80
1, 167724, Note_on_c, 0, 52, 50
1, 167728, Note_on_c, 0, 64, 49
1, 167729, Note_on_c, 0, 49, 37
1, 167773, Note_off_c, 0, 52, 63
1, 167792, Control_c, 0, 64, 24
1, 167806, Note_off_c, 0, 76, 66
1, 167807, Note_on_c, 0, 57, 47
1, 167807, Control_c, 0, 64, 38
1, 167822, Control_c, 0, 64, 47
1, 167837, Control_c, 0, 64, 55
1, 167850, Note_off_c, 0, 57, 61
1, 167852, Control_c, 0, 64, 61
1, 167856, Note_off_c, 0, 64, 40
1, 167866, Control_c, 0, 64, 66
1, 167881, Control_c, 0, 64, 68
1, 167896, Note_on_c, 0, 52, 66
1, 167896, Control_c, 0, 64, 69
1, 167911, Control_c, 0, 64, 69
1, 167926, Control_c, 0, 64, 71
1, 167941, Control_c, 0, 64, 72
1, 167956, Control_c, 0, 64, 74
1, 167971, Control_c, 0, 64, 76
1, 167978, Note_on_c, 0, 57, 62
1, 167986, Control_c, 0, 64, 77
1, 168001, Control_c, 0, 67, 116
1, 168014, Note_off_c, 0, 57, 62
1, 168015, Control_c, 0, 67, 99
1, 168030, Note_off_c, 0, 52, 64
1, 168030, Note_off_c, 0, 49, 63
1, 168030, Control_c, 0, 67, 81
1, 168045, Control_c, 0, 64, 77
1, 168045, Control_c, 0, 67, 64
1, 168060, Control_c, 0, 67, 50
1, 168075, Control_c, 0, 64, 78
1, 168075, Control_c, 0, 67, 44
1, 168083, Note_on_c, 0, 69, 78
1, 168090, Control_c, 0, 67, 41
1, 168092, Note_on_c, 0, 64, 57
1, 168105, Control_c, 0, 67, 38
1, 168120, Control_c, 0, 67, 33
1, 168122, Note_off_c, 0, 64, 65
1, 168134, Control_c, 0, 64, 79
1, 168134, Control_c, 0, 67, 27
1, 168149, Control_c, 0, 64, 80
1, 168149, Control_c, 0, 67, 21
1, 168165, Control_c, 0, 64, 80
1, 168165, Control_c, 0, 67, 16
1, 168168, Note_on_c, 0, 66, 58
1, 168179, Control_c, 0, 67, 14
1, 168194, Note_off_c, 0, 69, 55
1, 168202, Control_c, 0, 67, 12
1, 168216, Control_c, 0, 67, 10
1, 168231, Control_c, 0, 67, 0
1, 168245, Note_off_c, 0, 66, 63
1, 168253, Note_on_c, 0, 68, 66
1, 168346, Note_on_c, 0, 66, 61
1, 168376, Note_off_c, 0, 68, 37
1, 168379, Control_c, 0, 64, 80
1, 168382, Note_off_c, 0, 66, 61
1, 168394, Control_c, 0, 64, 77
1, 168409, Control_c, 0, 64, 71
1, 168424, Control_c, 0, 64, 63
1, 168439, Control_c, 0, 64, 45
1, 168450, Note_on_c, 0, 73, 72
1, 168454, Control_c, 0, 64, 0
1, 168464, Note_on_c, 0, 51, 45
1, 168469, Note_on_c, 0, 54, 51
1, 168486, Note_on_c, 0, 66, 50
1, 168528, Note_off_c, 0, 54, 63
1, 168542, Control_c, 0, 64, 11
1, 168544, Note_on_c, 0, 57, 51
1, 168557, Control_c, 0, 64, 29
1, 168572, Control_c, 0, 64, 39
1, 168587, Control_c, 0, 64, 48
1, 168589, Note_off_c, 0, 66, 61
1, 168601, Control_c, 0, 64, 56
1, 168612, Note_off_c, 0, 57, 59
1, 168616, Control_c, 0, 64, 62
1, 168618, Note_off_c, 0, 73, 64
1, 168631, Control_c, 0, 64, 66
1, 168639, Note_on_c, 0, 54, 68
1, 168646, Control_c, 0, 64, 68
1, 168661, Control_c, 0, 64, 70
1, 168675, Control_c, 0, 64, 71
1, 168690, Control_c, 0, 64, 73
1, 168705, Control_c, 0, 64, 74
1, 168706, Note_on_c, 0, 59, 67
1, 168720, Control_c, 0, 64, 75
1, 168734, Note_off_c, 0, 59, 66
1, 168735, Control_c, 0, 64, 76
1, 168746, Note_off_c, 0, 51, 65
1, 168749, Note_off_c, 0, 54, 64
1, 168749, Control_c, 0, 64, 78
1, 168765, Control_c, 0, 64, 80
1, 168780, Control_c, 0, 64, 81
1, 168795, Control_c, 0, 64, 82
1, 168813, Note_on_c, 0, 71, 68
1, 168816, Note_on_c, 0, 72, 64
1, 168820, Note_on_c, 0, 66, 54
1, 168825, Control_c, 0, 64, 83
1, 168839, Control_c, 0, 64, 84
1, 168840, Note_off_c, 0, 72, 57
1, 168854, Control_c, 0, 64, 86
1, 168858, Note_off_c, 0, 66, 46
1, 168898, Note_on_c, 0, 68, 66
1, 168905, Note_off_c, 0, 71, 60
1, 168950, Control_c, 0, 64, 86
1, 168975, Note_off_c, 0, 68, 57
1, 168979, Note_on_c, 0, 69, 67
1, 169056, Note_off_c, 0, 69, 64
1, 169068, Note_on_c, 0, 68, 74
1, 169089, Note_off_c, 0, 68, 68
1, 169098, Control_c, 0, 64, 88
1, 169112, Control_c, 0, 64, 89
1, 169142, Control_c, 0, 64, 86
1, 169157, Control_c, 0, 64, 73
1, 169166, Note_on_c, 0, 80, 81
1, 169172, Control_c, 0, 64, 61
1, 169185, Note_on_c, 0, 52, 57
1, 169185, Note_on_c, 0, 56, 51
1, 169187, Control_c, 0, 64, 40
1, 169202, Control_c, 0, 64, 0
1, 169235, Note_off_c, 0, 56, 64
1, 169259, Note_on_c, 0, 57, 66
1, 169290, Control_c, 0, 64, 29
1, 169305, Control_c, 0, 64, 40
1, 169307, Note_off_c, 0, 80, 66
1, 169320, Control_c, 0, 64, 51
1, 169327, Note_off_c, 0, 57, 61
1, 169335, Control_c, 0, 64, 59
1, 169338, Note_on_c, 0, 56, 75
1, 169350, Control_c, 0, 64, 66
1, 169364, Control_c, 0, 64, 72
1, 169379, Control_c, 0, 64, 76
1, 169394, Control_c, 0, 64, 79
1, 169409, Control_c, 0, 64, 81
1, 169422, Note_on_c, 0, 59, 72
1, 169423, Control_c, 0, 64, 84
1, 169424, Note_off_c, 0, 52, 64
1, 169438, Control_c, 0, 64, 85
1, 169443, Note_off_c, 0, 56, 66
1, 169446, Note_off_c, 0, 59, 66
1, 169453, Control_c, 0, 64, 86
1, 169483, Control_c, 0, 64, 86
1, 169497, Control_c, 0, 64, 87
1, 169512, Control_c, 0, 64, 88
1, 169522, Note_on_c, 0, 73, 87
1, 169534, Note_on_c, 0, 68, 67
1, 169565, Note_off_c, 0, 68, 62
1, 169573, Control_c, 0, 64, 89
1, 169587, Control_c, 0, 64, 89
1, 169602, Control_c, 0, 64, 90
1, 169610, Note_on_c, 0, 69, 71
1, 169642, Note_off_c, 0, 73, 58
1, 169697, Note_off_c, 0, 69, 62
1, 169702, Note_on_c, 0, 71, 73
1, 169713, Control_c, 0, 64, 89
1, 169728, Control_c, 0, 64, 88
1, 169743, Control_c, 0, 64, 87
1, 169796, Note_on_c, 0, 69, 71
1, 169816, Note_off_c, 0, 71, 61
1, 169825, Note_off_c, 0, 69, 62
1, 169846, Control_c, 0, 64, 85
1, 169861, Control_c, 0, 64, 81
1, 169876, Control_c, 0, 64, 69
1, 169891, Control_c, 0, 64, 57
1, 169892, Note_on_c, 0, 76, 90
1, 169903, Note_on_c, 0, 57, 63
1, 169906, Control_c, 0, 64, 30
1, 169910, Note_on_c, 0, 54, 61
1, 169912, Note_on_c, 0, 69, 65
1, 169920, Control_c, 0, 64, 0
1, 169969, Note_off_c, 0, 57, 59
1, 169989, Note_on_c, 0, 59, 67
1, 169991, Note_off_c, 0, 69, 64
1, 169995, Control_c, 0, 64, 10
1, 170010, Control_c, 0, 64, 33
1, 170018, Note_off_c, 0, 76, 66
1, 170025, Control_c, 0, 64, 43
1, 170039, Control_c, 0, 64, 52
1, 170054, Control_c, 0, 64, 61
1, 170068, Note_off_c, 0, 59, 61
1, 170069, Control_c, 0, 64, 66
1, 170072, Note_on_c, 0, 57, 76
1, 170084, Control_c, 0, 64, 71
1, 170099, Control_c, 0, 64, 72
1, 170113, Control_c, 0, 64, 72
1, 170128, Control_c, 0, 64, 73
1, 170143, Control_c, 0, 64, 74
1, 170158, Control_c, 0, 64, 75
1, 170167, Note_on_c, 0, 59, 83
1, 170173, Control_c, 0, 64, 77
1, 170187, Control_c, 0, 64, 78
1, 170202, Control_c, 0, 64, 79
1, 170203, Note_off_c, 0, 57, 61
1, 170213, Note_off_c, 0, 59, 64
1, 170217, Control_c, 0, 64, 80
1, 170227, Note_off_c, 0, 54, 65
1, 170246, Control_c, 0, 64, 81
1, 170260, Note_on_c, 0, 75, 87
1, 170266, Note_on_c, 0, 69, 77
1, 170340, Note_off_c, 0, 69, 60
1, 170342, Note_on_c, 0, 71, 78
1, 170364, Note_off_c, 0, 75, 57
1, 170440, Note_on_c, 0, 73, 82
1, 170442, Note_off_c, 0, 71, 65
1, 170505, Note_off_c, 0, 73, 63
1, 170522, Note_on_c, 0, 71, 79
1, 170581, Control_c, 0, 64, 80
1, 170596, Control_c, 0, 64, 75
1, 170611, Control_c, 0, 64, 66
1, 170625, Control_c, 0, 64, 54
1, 170627, Note_on_c, 0, 83, 89
1, 170633, Note_on_c, 0, 56, 70
1, 170640, Control_c, 0, 64, 0
1, 170708, Note_on_c, 0, 57, 76
1, 170708, Note_off_c, 0, 56, 64
1, 170729, Control_c, 0, 64, 29
1, 170743, Control_c, 0, 64, 40
1, 170758, Control_c, 0, 64, 51
1, 170773, Control_c, 0, 64, 60
1, 170788, Control_c, 0, 64, 66
1, 170800, Note_off_c, 0, 57, 61
1, 170803, Control_c, 0, 64, 70
1, 170806, Note_on_c, 0, 59, 88
1, 170809, Note_off_c, 0, 71, 63
1, 170813, Note_off_c, 0, 83, 61
1, 170818, Control_c, 0, 64, 72
1, 170832, Control_c, 0, 64, 73
1, 170847, Control_c, 0, 64, 77
1, 170862, Control_c, 0, 64, 84
1, 170877, Control_c, 0, 64, 95
1, 170887, Note_on_c, 0, 57, 87
1, 170889, Note_off_c, 0, 59, 63
1, 170892, Control_c, 0, 64, 110
1, 170907, Control_c, 0, 64, 127
1, 170951, Control_c, 0, 64, 101
1, 170966, Control_c, 0, 64, 77
1, 170976, Note_on_c, 0, 56, 85
1, 170980, Control_c, 0, 64, 60
1, 170984, Note_off_c, 0, 57, 58
1, 170986, Note_on_c, 0, 83, 91
1, 170991, Note_on_c, 0, 80, 75
1, 170992, Note_on_c, 0, 71, 78
1, 170995, Control_c, 0, 64, 32
1, 170996, Note_on_c, 0, 76, 75
1, 171010, Control_c, 0, 64, 0
1, 171074, Note_on_c, 0, 59, 79
1, 171084, Control_c, 0, 64, 32
1, 171087, Note_off_c, 0, 71, 65
1, 171096, Note_off_c, 0, 56, 65
1, 171099, Control_c, 0, 64, 45
1, 171104, Note_off_c, 0, 76, 65
1, 171114, Control_c, 0, 64, 55
1, 171119, Note_off_c, 0, 80, 63
1, 171128, Control_c, 0, 64, 65
1, 171134, Note_off_c, 0, 83, 62
1, 171143, Control_c, 0, 64, 83
1, 171151, Note_off_c, 0, 59, 63
1, 171160, Control_c, 0, 64, 127
1, 171165, Note_on_c, 0, 64, 81
1, 171223, Note_off_c, 0, 64, 61
1, 171247, Note_on_c, 0, 68, 80
1, 171274, Note_off_c, 0, 68, 59
1, 171286, Control_c, 0, 64, 66
1, 171300, Control_c, 0, 64, 38
1, 171300, Control_c, 0, 67, 15
1, 171315, Control_c, 0, 64, 0
1, 171315, Control_c, 0, 67, 29
1, 171330, Control_c, 0, 67, 52
1, 171345, Control_c, 0, 67, 83
1, 171350, Note_on_c, 0, 69, 65
1, 171360, Control_c, 0, 67, 116
1, 171362, Note_on_c, 0, 83, 75
1, 171369, Note_on_c, 0, 78, 61
1, 171373, Note_on_c, 0, 75, 56
1, 171375, Control_c, 0, 67, 127
1, 171386, Note_on_c, 0, 71, 40
1, 171426, Note_off_c, 0, 69, 60
1, 171444, Note_on_c, 0, 68, 59
1, 171524, Note_off_c, 0, 68, 59
1, 171545, Note_on_c, 0, 66, 60
1, 171635, Note_on_c, 0, 68, 67
1, 171635, Note_off_c, 0, 66, 61
1, 171719, Note_on_c, 0, 69, 84
1, 171736, Note_off_c, 0, 71, 59
1, 171741, Note_off_c, 0, 68, 61
1, 171745, Control_c, 0, 64, 20
1, 171754, Note_off_c, 0, 69, 64
1, 171760, Control_c, 0, 64, 40
1, 171760, Control_c, 0, 67, 98
1, 171774, Control_c, 0, 64, 51
1, 171774, Control_c, 0, 67, 56
1, 171786, Note_off_c, 0, 78, 61
1, 171789, Control_c, 0, 64, 58
1, 171789, Control_c, 0, 67, 25
1, 171804, Control_c, 0, 64, 63
1, 171804, Control_c, 0, 67, 11
1, 171809, Note_on_c, 0, 85, 76
1, 171819, Control_c, 0, 64, 68
1, 171819, Control_c, 0, 67, 10
1, 171822, Note_off_c, 0, 83, 60
1, 171834, Control_c, 0, 64, 74
1, 171834, Control_c, 0, 67, 8
1, 171849, Control_c, 0, 64, 75
1, 171849, Control_c, 0, 67, 0
1, 171864, Control_c, 0, 64, 76
1, 171878, Control_c, 0, 64, 76
1, 171892, Note_on_c, 0, 87, 83
1, 171893, Control_c, 0, 64, 78
1, 171895, Note_off_c, 0, 75, 41
1, 171897, Note_off_c, 0, 85, 63
1, 171908, Control_c, 0, 64, 80
1, 171923, Control_c, 0, 64, 83
1, 171945, Control_c, 0, 64, 87
1, 171961, Control_c, 0, 64, 94
1, 171976, Control_c, 0, 64, 109
1, 171977, Note_on_c, 0, 85, 78
1, 171990, Control_c, 0, 64, 127
1, 172028, Note_off_c, 0, 87, 63
1, 172064, Control_c, 0, 64, 99
1, 172067, Note_on_c, 0, 83, 84
1, 172077, Note_on_c, 0, 78, 75
1, 172078, Note_off_c, 0, 85, 63
1, 172079, Control_c, 0, 64, 74
1, 172082, Note_on_c, 0, 69, 69
1, 172085, Note_on_c, 0, 75, 69
1, 172090, Note_on_c, 0, 71, 63
1, 172094, Control_c, 0, 64, 60
1, 172108, Control_c, 0, 64, 39
1, 172123, Control_c, 0, 64, 0
1, 172160, Note_off_c, 0, 69, 63
1, 172178, Note_on_c, 0, 68, 68
1, 172213, Control_c, 0, 67, 8
1, 172259, Note_off_c, 0, 68, 61
1, 172260, Note_on_c, 0, 66, 79
1, 172272, Control_c, 0, 67, 0
1, 172350, Note_on_c, 0, 68, 87
1, 172369, Note_off_c, 0, 78, 57
1, 172370, Note_off_c, 0, 66, 63
1, 172434, Note_on_c, 0, 69, 96
1, 172446, Note_off_c, 0, 71, 66
1, 172458, Note_off_c, 0, 68, 63
1, 172477, Note_off_c, 0, 69, 69
1, 172479, Control_c, 0, 64, 28
1, 172494, Control_c, 0, 64, 49
1, 172508, Control_c, 0, 64, 61
1, 172523, Note_on_c, 0, 85, 82
1, 172523, Control_c, 0, 64, 69
1, 172538, Control_c, 0, 64, 81
1, 172552, Note_off_c, 0, 83, 61
1, 172553, Control_c, 0, 64, 96
1, 172567, Control_c, 0, 64, 113
1, 172573, Note_off_c, 0, 75, 60
1, 172582, Control_c, 0, 64, 127
1, 172605, Note_off_c, 0, 85, 64
1, 172607, Note_on_c, 0, 87, 87
1, 172698, Note_on_c, 0, 85, 82
1, 172732, Note_off_c, 0, 87, 64
1, 172782, Note_off_c, 0, 85, 62
1, 172784, Control_c, 0, 64, 67
1, 172793, Note_on_c, 0, 83, 79
1, 172799, Control_c, 0, 64, 39
1, 172800, Note_on_c, 0, 69, 68
1, 172800, Note_on_c, 0, 75, 74
1, 172806, Note_on_c, 0, 71, 63
1, 172813, Control_c, 0, 64, 0
1, 172818, Note_off_c, 0, 75, 65
1, 172819, Note_off_c, 0, 69, 66
1, 172820, Note_off_c, 0, 83, 66
1, 172824, Note_off_c, 0, 71, 67
1, 172982, Note_on_c, 0, 68, 64
1, 172984, Note_on_c, 0, 85, 72
1, 172989, Note_on_c, 0, 76, 62
1, 172992, Note_on_c, 0, 71, 53
1, 173007, Note_off_c, 0, 85, 65
1, 173008, Note_off_c, 0, 76, 66
1, 173011, Note_off_c, 0, 68, 64
1, 173014, Note_off_c, 0, 71, 63
1, 173161, Note_on_c, 0, 87, 86
1, 173162, Note_on_c, 0, 69, 71
1, 173168, Note_on_c, 0, 81, 61
1, 173174, Note_on_c, 0, 78, 69
1, 173175, Note_on_c, 0, 71, 65
1, 173178, Note_on_c, 0, 66, 59
1, 173185, Note_off_c, 0, 69, 70
1, 173185, Note_off_c, 0, 81, 65
1, 173193, Note_off_c, 0, 71, 69
1, 173197, Note_off_c, 0, 87, 60
1, 173200, Note_off_c, 0, 66, 62
1, 173200, Note_off_c, 0, 78, 69
1, 173337, Note_on_c, 0, 88, 92
1, 173342, Note_on_c, 0, 68, 71
1, 173347, Note_on_c, 0, 71, 70
1, 173347, Note_on_c, 0, 80, 84
1, 173348, Note_on_c, 0, 64, 62
1, 173350, Note_on_c, 0, 83, 60
1, 173363, Note_off_c, 0, 68, 64
1, 173367, Note_off_c, 0, 64, 64
1, 173369, Note_off_c, 0, 80, 68
1, 173369, Note_off_c, 0, 83, 69
1, 173378, Note_off_c, 0, 88, 70
1, 173378, Note_off_c, 0, 71, 57
1, 173528, Note_on_c, 0, 90, 103
1, 173534, Note_on_c, 0, 87, 84
1, 173536, Note_on_c, 0, 71, 75
1, 173538, Note_on_c, 0, 66, 72
1, 173542, Note_on_c, 0, 63, 65
1, 173551, Note_off_c, 0, 87, 74
1, 173558, Note_off_c, 0, 71, 71
1, 173565, Note_off_c, 0, 63, 67
1, 173567, Note_off_c, 0, 66, 65
1, 173568, Note_off_c, 0, 90, 70
1, 173711, Note_on_c, 0, 92, 105
1, 173712, Note_on_c, 0, 64, 72
1, 173716, Note_on_c, 0, 88, 91
1, 173718, Note_on_c, 0, 71, 71
1, 173719, Note_on_c, 0, 61, 69
1, 173733, Note_off_c, 0, 88, 74
1, 173736, Note_off_c, 0, 64, 68
1, 173737, Note_off_c, 0, 71, 70
1, 173745, Note_off_c, 0, 61, 69
1, 173757, Note_off_c, 0, 92, 65
1, 173909, Note_on_c, 0, 93, 89
1, 173916, Note_on_c, 0, 71, 85
1, 173919, Note_on_c, 0, 90, 93
1, 173920, Note_on_c, 0, 59, 73
1, 173922, Note_on_c, 0, 63, 75
1, 173938, Note_off_c, 0, 71, 73
1, 173940, Note_off_c, 0, 90, 71
1, 173946, Note_off_c, 0, 59, 66
1, 173946, Note_off_c, 0, 63, 71
1, 173947, Control_c, 0, 64, 44
1, 173947, Note_off_c, 0, 93, 67
1, 173961, Control_c, 0, 64, 60
1, 173976, Control_c, 0, 64, 78
1, 173991, Control_c, 0, 64, 127
1, 174309, Control_c, 0, 64, 85
1, 174324, Control_c, 0, 64, 53
1, 174324, Control_c, 0, 67, 8
1, 174338, Control_c, 0, 64, 0
1, 174338, Control_c, 0, 67, 10
1, 174355, Control_c, 0, 67, 19
1, 174370, Control_c, 0, 67, 40
1, 174384, Control_c, 0, 67, 68
1, 174399, Control_c, 0, 67, 88
1, 174414, Control_c, 0, 67, 99
1, 174429, Control_c, 0, 67, 105
1, 174443, Control_c, 0, 67, 113
1, 174458, Control_c, 0, 67, 126
1, 174473, Control_c, 0, 67, 127
1, 174785, Note_on_c, 0, 69, 39
1, 175079, Note_off_c, 0, 69, 58
1, 175084, Note_on_c, 0, 68, 50
1, 175162, Note_on_c, 0, 66, 52
1, 175164, Note_off_c, 0, 68, 59
1, 175456, Note_off_c, 0, 66, 53
1, 175463, Note_on_c, 0, 68, 46
1, 175546, Note_off_c, 0, 68, 53
1, 175548, Note_on_c, 0, 69, 50
1, 175688, Control_c, 0, 64, 14
1, 175703, Control_c, 0, 64, 28
1, 175718, Control_c, 0, 64, 38
1, 175732, Control_c, 0, 64, 46
1, 175747, Control_c, 0, 64, 54
1, 175762, Control_c, 0, 64, 59
1, 175776, Control_c, 0, 64, 61
1, 175791, Control_c, 0, 64, 62
1, 175806, Control_c, 0, 64, 62
1, 175850, Note_off_c, 0, 69, 37
1, 175865, Control_c, 0, 64, 62
1, 175880, Control_c, 0, 64, 61
1, 175895, Control_c, 0, 64, 60
1, 175909, Control_c, 0, 64, 56
1, 175924, Control_c, 0, 64, 50
1, 175939, Note_on_c, 0, 68, 47
1, 175939, Control_c, 0, 64, 39
1, 175955, Control_c, 0, 64, 19
1, 175970, Control_c, 0, 64, 0
1, 176325, Note_on_c, 0, 73, 51
1, 176335, Note_on_c, 0, 64, 45
1, 176410, Note_off_c, 0, 68, 38
1, 176624, Note_on_c, 0, 63, 58
1, 176667, Note_off_c, 0, 64, 59
1, 176701, Note_on_c, 0, 76, 55
1, 176702, Note_on_c, 0, 61, 66
1, 176744, Note_off_c, 0, 63, 61
1, 176744, Note_off_c, 0, 73, 48
1, 176991, Note_on_c, 0, 63, 62
1, 177045, Note_off_c, 0, 61, 62
1, 177071, Note_off_c, 0, 63, 64
1, 177073, Note_on_c, 0, 64, 62
1, 177080, Note_on_c, 0, 73, 57
1, 177089, Note_on_c, 0, 68, 45
1, 177104, Note_off_c, 0, 76, 59
1, 177229, Control_c, 0, 64, 11
1, 177244, Control_c, 0, 64, 32
1, 177259, Control_c, 0, 64, 41
1, 177272, Note_off_c, 0, 73, 64
1, 177274, Control_c, 0, 64, 51
1, 177289, Control_c, 0, 64, 60
1, 177295, Note_off_c, 0, 68, 60
1, 177304, Control_c, 0, 64, 66
1, 177319, Control_c, 0, 64, 72
1, 177334, Control_c, 0, 64, 74
1, 177345, Note_off_c, 0, 64, 62
1, 177349, Control_c, 0, 64, 75
1, 177422, Control_c, 0, 64, 74
1, 177437, Control_c, 0, 64, 73
1, 177452, Control_c, 0, 64, 70
1, 177467, Control_c, 0, 64, 67
1, 177468, Note_on_c, 0, 71, 63
1, 177482, Control_c, 0, 64, 63
1, 177485, Note_on_c, 0, 66, 46
1, 177486, Note_on_c, 0, 63, 52
1, 177496, Control_c, 0, 64, 57
1, 177511, Control_c, 0, 64, 45
1, 177526, Control_c, 0, 64, 27
1, 177541, Control_c, 0, 64, 0
1, 177558, Note_off_c, 0, 66, 0
1, 177558, Note_on_c, 0, 66, 7
1, 177847, Note_on_c, 0, 54, 63
1, 178009, Control_c, 0, 64, 15
1, 178024, Control_c, 0, 64, 27
1, 178039, Control_c, 0, 64, 34
1, 178041, Note_off_c, 0, 66, 57
1, 178053, Control_c, 0, 64, 43
1, 178068, Control_c, 0, 64, 53
1, 178083, Control_c, 0, 64, 61
1, 178098, Control_c, 0, 64, 65
1, 178113, Control_c, 0, 64, 69
1, 178125, Note_off_c, 0, 54, 63
1, 178127, Note_off_c, 0, 63, 40
1, 178127, Control_c, 0, 64, 70
1, 178147, Note_on_c, 0, 53, 59
1, 178172, Control_c, 0, 64, 69
1, 178186, Control_c, 0, 64, 66
1, 178201, Control_c, 0, 64, 62
1, 178204, Note_off_c, 0, 71, 60
1, 178216, Control_c, 0, 64, 53
1, 178225, Note_on_c, 0, 70, 61
1, 178231, Note_off_c, 0, 53, 60
1, 178231, Control_c, 0, 64, 34
1, 178239, Note_on_c, 0, 54, 62
1, 178244, Note_on_c, 0, 64, 42
1, 178246, Control_c, 0, 64, 0
1, 178252, Note_on_c, 0, 61, 38
1, 178517, Note_off_c, 0, 54, 62
1, 178529, Note_on_c, 0, 52, 56
1, 178599, Note_off_c, 0, 52, 65
1, 178613, Note_off_c, 0, 64, 61
1, 178616, Note_on_c, 0, 49, 52
1, 178699, Control_c, 0, 64, 15
1, 178714, Control_c, 0, 64, 26
1, 178729, Control_c, 0, 64, 37
1, 178744, Control_c, 0, 64, 49
1, 178758, Control_c, 0, 64, 60
1, 178767, Note_off_c, 0, 61, 61
1, 178773, Control_c, 0, 64, 66
1, 178786, Note_off_c, 0, 70, 57
1, 178788, Control_c, 0, 64, 71
1, 178802, Control_c, 0, 64, 72
1, 178864, Note_off_c, 0, 49, 36
1, 178950, Control_c, 0, 64, 71
1, 178965, Control_c, 0, 64, 70
1, 178980, Control_c, 0, 64, 67
1, 178995, Control_c, 0, 64, 62
1, 179007, Note_on_c, 0, 47, 39
1, 179009, Control_c, 0, 64, 53
1, 179017, Note_on_c, 0, 71, 53
1, 179024, Control_c, 0, 64, 32
1, 179027, Note_on_c, 0, 63, 41
1, 179036, Note_on_c, 0, 66, 32
1, 179039, Control_c, 0, 64, 0
1, 179098, Control_c, 0, 64, 31
1, 179113, Control_c, 0, 64, 47
1, 179122, Note_off_c, 0, 63, 64
1, 179128, Control_c, 0, 64, 63
1, 179129, Note_off_c, 0, 71, 66
1, 179133, Note_off_c, 0, 66, 57
1, 179134, Note_off_c, 0, 47, 55
1, 179143, Control_c, 0, 64, 76
1, 179158, Control_c, 0, 64, 88
1, 179173, Control_c, 0, 64, 86
1, 179188, Control_c, 0, 64, 75
1, 179203, Control_c, 0, 64, 63
1, 179218, Control_c, 0, 64, 49
1, 179233, Control_c, 0, 64, 0
1, 179426, Note_on_c, 0, 80, 46
1, 179447, Note_on_c, 0, 68, 30
1, 179462, Note_on_c, 0, 64, 32
1, 179472, Note_on_c, 0, 76, 9
1, 179477, Control_c, 0, 64, 12
1, 179492, Control_c, 0, 64, 24
1, 179506, Control_c, 0, 64, 33
1, 179507, Note_off_c, 0, 64, 56
1, 179511, Note_off_c, 0, 68, 52
1, 179520, Note_off_c, 0, 76, 54
1, 179521, Control_c, 0, 64, 45
1, 179536, Control_c, 0, 64, 54
1, 179550, Control_c, 0, 64, 61
1, 179565, Control_c, 0, 64, 64
1, 179580, Control_c, 0, 64, 65
1, 179595, Control_c, 0, 64, 65
1, 179624, Control_c, 0, 64, 66
1, 179639, Control_c, 0, 64, 67
1, 179648, Note_off_c, 0, 80, 36
1, 179654, Control_c, 0, 64, 67
1, 179669, Control_c, 0, 64, 68
1, 179684, Control_c, 0, 64, 69
1, 179698, Note_on_c, 0, 66, 42
1, 179702, Note_on_c, 0, 78, 60
1, 179709, Note_on_c, 0, 59, 45
1, 179725, Note_off_c, 0, 66, 57
1, 179728, Control_c, 0, 64, 67
1, 179742, Note_off_c, 0, 59, 57
1, 179743, Control_c, 0, 64, 62
1, 179745, Note_off_c, 0, 78, 47
1, 179757, Control_c, 0, 64, 52
1, 179772, Control_c, 0, 64, 29
1, 179782, Note_on_c, 0, 76, 62
1, 179787, Control_c, 0, 64, 0
1, 179803, Note_on_c, 0, 56, 42
1, 179811, Note_on_c, 0, 68, 31
1, 179814, Note_on_c, 0, 64, 40
1, 179832, Control_c, 0, 64, 20
1, 179847, Control_c, 0, 64, 37
1, 179862, Control_c, 0, 64, 47
1, 179865, Note_off_c, 0, 68, 40
1, 179876, Note_off_c, 0, 64, 61
1, 179877, Control_c, 0, 64, 55
1, 179891, Control_c, 0, 64, 60
1, 179906, Control_c, 0, 64, 63
1, 179921, Control_c, 0, 64, 64
1, 179936, Control_c, 0, 64, 64
1, 179951, Control_c, 0, 64, 65
1, 179952, Note_off_c, 0, 76, 54
1, 179966, Control_c, 0, 64, 67
1, 179973, Note_off_c, 0, 56, 44
1, 179981, Control_c, 0, 64, 69
1, 179996, Control_c, 0, 64, 71
1, 180011, Control_c, 0, 64, 72
1, 180026, Control_c, 0, 64, 73
1, 180040, Control_c, 0, 64, 72
1, 180049, Note_on_c, 0, 66, 50
1, 180053, Note_on_c, 0, 78, 65
1, 180055, Control_c, 0, 64, 71
1, 180057, Note_on_c, 0, 59, 33
1, 180070, Control_c, 0, 64, 65
1, 180075, Note_off_c, 0, 66, 56
1, 180076, Note_on_c, 0, 71, 33
1, 180085, Control_c, 0, 64, 53
1, 180091, Note_off_c, 0, 59, 54
1, 180100, Control_c, 0, 64, 26
1, 180104, Note_off_c, 0, 71, 55
1, 180114, Control_c, 0, 64, 0
1, 180124, Note_off_c, 0, 78, 58
1, 180141, Note_on_c, 0, 80, 58
1, 180151, Note_on_c, 0, 68, 50
1, 180157, Note_on_c, 0, 64, 49
1, 180162, Note_on_c, 0, 76, 27
1, 180181, Control_c, 0, 64, 27
1, 180187, Note_off_c, 0, 68, 53
1, 180195, Control_c, 0, 64, 40
1, 180199, Note_off_c, 0, 64, 55
1, 180206, Note_off_c, 0, 76, 53
1, 180210, Control_c, 0, 64, 50
1, 180225, Control_c, 0, 64, 59
1, 180240, Control_c, 0, 64, 66
1, 180255, Control_c, 0, 64, 80
1, 180270, Control_c, 0, 64, 111
1, 180279, Note_off_c, 0, 80, 63
1, 180285, Control_c, 0, 64, 127
1, 180329, Control_c, 0, 64, 80
1, 180329, Control_c, 0, 67, 112
1, 180344, Control_c, 0, 64, 60
1, 180344, Control_c, 0, 67, 27
1, 180359, Control_c, 0, 64, 27
1, 180359, Control_c, 0, 67, 0
1, 180373, Control_c, 0, 64, 0
1, 180500, Note_on_c, 0, 71, 92
1, 180501, Note_on_c, 0, 81, 97
1, 180508, Note_on_c, 0, 78, 83
1, 180511, Note_on_c, 0, 75, 80
1, 180526, Note_off_c, 0, 71, 66
1, 180551, Control_c, 0, 64, 33
1, 180566, Control_c, 0, 64, 54
1, 180580, Control_c, 0, 64, 61
1, 180595, Control_c, 0, 64, 65
1, 180610, Control_c, 0, 64, 69
1, 180625, Control_c, 0, 64, 78
1, 180640, Control_c, 0, 64, 87
1, 180655, Control_c, 0, 64, 96
1, 180669, Control_c, 0, 64, 127
1, 180680, Note_on_c, 0, 57, 79
1, 180684, Note_on_c, 0, 59, 71
1, 180686, Note_off_c, 0, 75, 59
1, 180696, Note_off_c, 0, 57, 67
1, 180703, Note_off_c, 0, 59, 39
1, 180713, Note_off_c, 0, 81, 54
1, 180751, Note_on_c, 0, 83, 78
1, 180766, Note_off_c, 0, 78, 54
1, 180796, Note_off_c, 0, 83, 67
1, 180804, Control_c, 0, 64, 86
1, 180818, Control_c, 0, 64, 55
1, 180833, Control_c, 0, 64, 0
1, 180838, Note_on_c, 0, 64, 80
1, 180838, Note_on_c, 0, 76, 78
1, 180839, Note_on_c, 0, 80, 86
1, 180857, Note_off_c, 0, 76, 69
1, 180861, Note_off_c, 0, 80, 67
1, 180890, Note_off_c, 0, 64, 57
1, 181018, Note_on_c, 0, 52, 79
1, 181026, Note_on_c, 0, 88, 81
1, 181036, Note_on_c, 0, 80, 72
1, 181041, Note_off_c, 0, 52, 71
1, 181042, Note_off_c, 0, 88, 72
1, 181051, Note_off_c, 0, 80, 67
1, 181203, Note_on_c, 0, 78, 97
1, 181204, Note_on_c, 0, 59, 86
1, 181213, Note_on_c, 0, 69, 76
1, 181230, Note_off_c, 0, 78, 58
1, 181233, Note_off_c, 0, 69, 68
1, 181241, Control_c, 0, 64, 47
1, 181256, Control_c, 0, 64, 62
1, 181270, Control_c, 0, 64, 72
1, 181285, Control_c, 0, 64, 80
1, 181300, Control_c, 0, 64, 96
1, 181301, Note_off_c, 0, 59, 45
1, 181315, Control_c, 0, 64, 127
1, 181370, Note_on_c, 0, 47, 85
1, 181394, Note_off_c, 0, 47, 70
1, 181441, Note_on_c, 0, 80, 80
1, 181460, Note_on_c, 0, 71, 55
1, 181480, Note_off_c, 0, 71, 65
1, 181495, Note_off_c, 0, 80, 63
1, 181522, Control_c, 0, 64, 72
1, 181526, Note_on_c, 0, 76, 88
1, 181529, Note_on_c, 0, 68, 83
1, 181531, Note_on_c, 0, 40, 81
1, 181537, Control_c, 0, 64, 36
1, 181548, Note_off_c, 0, 76, 70
1, 181551, Note_off_c, 0, 68, 70
1, 181552, Control_c, 0, 64, 0
1, 181562, Note_off_c, 0, 40, 65
1, 181567, Control_c, 0, 67, 12
1, 181582, Control_c, 0, 67, 28
1, 181597, Control_c, 0, 67, 49
1, 181612, Control_c, 0, 67, 71
1, 181626, Control_c, 0, 67, 91
1, 181642, Control_c, 0, 67, 108
1, 181657, Control_c, 0, 67, 122
1, 181680, Control_c, 0, 67, 127
1, 181763, Note_on_c, 0, 56, 37
1, 181778, Note_on_c, 0, 52, 46
1, 181781, Note_on_c, 0, 59, 19
1, 181788, Note_off_c, 0, 56, 52
1, 181808, Note_off_c, 0, 52, 54
1, 181823, Note_off_c, 0, 59, 29
1, 182035, Note_on_c, 0, 40, 50
1, 182045, Note_on_c, 0, 71, 58
1, 182050, Control_c, 0, 64, 14
1, 182064, Control_c, 0, 64, 29
1, 182079, Control_c, 0, 64, 42
1, 182085, Note_off_c, 0, 40, 62
1, 182094, Control_c, 0, 64, 60
1, 182109, Control_c, 0, 64, 93
1, 182124, Control_c, 0, 64, 127
1, 182198, Control_c, 0, 64, 78
1, 182212, Control_c, 0, 64, 60
1, 182227, Control_c, 0, 64, 33
1, 182242, Control_c, 0, 64, 0
1, 182247, Note_on_c, 0, 56, 47
1, 182262, Note_on_c, 0, 52, 35
1, 182274, Note_off_c, 0, 56, 57
1, 182297, Note_off_c, 0, 52, 32
1, 182413, Note_on_c, 0, 56, 59
1, 182413, Note_on_c, 0, 59, 65
1, 182426, Note_on_c, 0, 52, 54
1, 182443, Note_off_c, 0, 56, 67
1, 182446, Note_off_c, 0, 59, 65
1, 182450, Note_off_c, 0, 52, 63
1, 182515, Note_off_c, 0, 71, 58
1, 182517, Note_on_c, 0, 73, 67
1, 182594, Note_on_c, 0, 56, 55
1, 182596, Note_on_c, 0, 59, 54
1, 182596, Note_on_c, 0, 75, 63
1, 182604, Note_on_c, 0, 52, 42
1, 182607, Note_off_c, 0, 73, 53
1, 182617, Note_off_c, 0, 56, 60
1, 182621, Note_off_c, 0, 59, 57
1, 182633, Note_off_c, 0, 52, 48
1, 182672, Note_on_c, 0, 76, 61
1, 182673, Note_off_c, 0, 75, 56
1, 182736, Note_off_c, 0, 76, 64
1, 182768, Control_c, 0, 64, 20
1, 182771, Note_on_c, 0, 64, 68
1, 182777, Note_on_c, 0, 40, 56
1, 182783, Note_on_c, 0, 73, 35
1, 182783, Control_c, 0, 64, 39
1, 182798, Control_c, 0, 64, 58
1, 182813, Note_off_c, 0, 40, 64
1, 182813, Control_c, 0, 64, 88
1, 182828, Control_c, 0, 64, 127
1, 182872, Control_c, 0, 64, 74
1, 182887, Control_c, 0, 64, 54
1, 182902, Control_c, 0, 64, 0
1, 182960, Note_on_c, 0, 61, 63
1, 182974, Note_on_c, 0, 52, 50
1, 182979, Note_off_c, 0, 61, 66
1, 182980, Note_on_c, 0, 57, 38
1, 183004, Note_off_c, 0, 52, 35
1, 183010, Note_off_c, 0, 57, 34
1, 183119, Note_off_c, 0, 73, 56
1, 183140, Note_on_c, 0, 57, 55
1, 183144, Note_on_c, 0, 61, 63
1, 183148, Note_on_c, 0, 52, 46
1, 183171, Note_off_c, 0, 61, 66
1, 183172, Note_off_c, 0, 57, 63
1, 183182, Note_off_c, 0, 52, 54
1, 183226, Note_on_c, 0, 66, 71
1, 183238, Note_off_c, 0, 64, 58
1, 183308, Note_on_c, 0, 68, 70
1, 183312, Note_off_c, 0, 66, 59
1, 183313, Note_on_c, 0, 61, 55
1, 183316, Note_on_c, 0, 57, 46
1, 183322, Note_on_c, 0, 52, 40
1, 183334, Note_off_c, 0, 61, 67
1, 183343, Note_off_c, 0, 57, 58
1, 183357, Note_off_c, 0, 52, 65
1, 183379, Note_on_c, 0, 69, 77
1, 183385, Note_off_c, 0, 68, 60
1, 183398, Note_off_c, 0, 69, 72
1, 183488, Control_c, 0, 64, 24
1, 183491, Note_on_c, 0, 78, 81
1, 183501, Note_on_c, 0, 40, 56
1, 183503, Control_c, 0, 64, 42
1, 183517, Control_c, 0, 64, 55
1, 183529, Note_off_c, 0, 40, 61
1, 183532, Control_c, 0, 64, 70
1, 183547, Control_c, 0, 64, 127
1, 183606, Control_c, 0, 64, 83
1, 183621, Control_c, 0, 64, 59
1, 183636, Control_c, 0, 64, 0
1, 183675, Note_on_c, 0, 57, 62
1, 183675, Note_on_c, 0, 59, 67
1, 183684, Note_on_c, 0, 54, 54
1, 183692, Note_on_c, 0, 52, 45
1, 183694, Note_off_c, 0, 59, 64
1, 183695, Note_off_c, 0, 57, 63
1, 183701, Note_off_c, 0, 52, 44
1, 183711, Note_off_c, 0, 54, 57
1, 183848, Note_on_c, 0, 54, 53
1, 183850, Note_on_c, 0, 59, 61
1, 183850, Note_on_c, 0, 57, 50
1, 183852, Note_on_c, 0, 52, 51
1, 183870, Note_off_c, 0, 59, 62
1, 183873, Note_off_c, 0, 54, 61
1, 183875, Note_off_c, 0, 57, 56
1, 183878, Note_off_c, 0, 52, 54
1, 183928, Note_on_c, 0, 80, 68
1, 183978, Note_off_c, 0, 78, 40
1, 184011, Note_on_c, 0, 57, 51
1, 184011, Note_on_c, 0, 81, 67
1, 184014, Note_on_c, 0, 54, 50
1, 184016, Note_on_c, 0, 59, 52
1, 184018, Note_off_c, 0, 80, 62
1, 184020, Note_on_c, 0, 52, 50
1, 184036, Note_off_c, 0, 57, 55
1, 184040, Note_off_c, 0, 59, 58
1, 184041, Note_off_c, 0, 54, 63
1, 184046, Note_off_c, 0, 52, 61
1, 184088, Note_on_c, 0, 83, 67
1, 184089, Note_off_c, 0, 81, 57
1, 184171, Note_off_c, 0, 83, 64
1, 184196, Note_on_c, 0, 71, 70
1, 184207, Control_c, 0, 64, 29
1, 184208, Note_on_c, 0, 80, 48
1, 184210, Note_on_c, 0, 40, 53
1, 184221, Control_c, 0, 64, 40
1, 184236, Control_c, 0, 64, 51
1, 184239, Note_off_c, 0, 40, 55
1, 184251, Control_c, 0, 64, 63
1, 184266, Control_c, 0, 64, 90
1, 184281, Control_c, 0, 64, 127
1, 184325, Control_c, 0, 64, 81
1, 184339, Control_c, 0, 64, 58
1, 184354, Control_c, 0, 64, 8
1, 184369, Control_c, 0, 64, 0
1, 184375, Note_on_c, 0, 59, 64
1, 184375, Note_on_c, 0, 56, 67
1, 184385, Note_on_c, 0, 52, 56
1, 184395, Note_off_c, 0, 56, 66
1, 184395, Note_off_c, 0, 59, 61
1, 184409, Note_off_c, 0, 52, 59
1, 184486, Note_off_c, 0, 80, 58
1, 184547, Note_on_c, 0, 56, 68
1, 184552, Note_on_c, 0, 52, 55
1, 184554, Note_on_c, 0, 59, 60
1, 184572, Note_off_c, 0, 56, 68
1, 184574, Note_off_c, 0, 59, 61
1, 184578, Note_off_c, 0, 52, 65
1, 184625, Note_off_c, 0, 71, 54
1, 184640, Note_on_c, 0, 73, 67
1, 184718, Control_c, 0, 64, 30
1, 184720, Note_on_c, 0, 56, 62
1, 184723, Note_on_c, 0, 75, 72
1, 184723, Note_on_c, 0, 59, 54
1, 184728, Note_on_c, 0, 52, 53
1, 184733, Control_c, 0, 64, 42
1, 184742, Note_off_c, 0, 56, 65
1, 184748, Note_off_c, 0, 59, 59
1, 184749, Control_c, 0, 64, 51
1, 184754, Note_off_c, 0, 52, 63
1, 184763, Control_c, 0, 64, 59
1, 184769, Note_off_c, 0, 73, 36
1, 184778, Control_c, 0, 64, 75
1, 184793, Control_c, 0, 64, 127
1, 184804, Note_on_c, 0, 76, 76
1, 184814, Note_off_c, 0, 75, 59
1, 184852, Control_c, 0, 64, 70
1, 184867, Control_c, 0, 64, 45
1, 184879, Note_off_c, 0, 76, 65
1, 184882, Control_c, 0, 64, 0
1, 184896, Note_on_c, 0, 71, 67
1, 184902, Note_on_c, 0, 40, 55
1, 184913, Note_off_c, 0, 71, 70
1, 184929, Note_off_c, 0, 40, 56
1, 185088, Note_on_c, 0, 71, 74
1, 185097, Note_on_c, 0, 59, 53
1, 185102, Note_on_c, 0, 56, 50
1, 185111, Note_on_c, 0, 52, 44
1, 185120, Note_off_c, 0, 59, 61
1, 185128, Note_off_c, 0, 56, 61
1, 185138, Note_off_c, 0, 52, 62
1, 185255, Note_on_c, 0, 56, 59
1, 185257, Note_on_c, 0, 59, 63
1, 185260, Note_on_c, 0, 52, 57
1, 185284, Note_off_c, 0, 59, 65
1, 185288, Note_off_c, 0, 56, 66
1, 185295, Note_off_c, 0, 52, 66
1, 185347, Note_on_c, 0, 73, 68
1, 185377, Note_off_c, 0, 71, 46
1, 185434, Note_on_c, 0, 59, 66
1, 185437, Note_on_c, 0, 56, 61
1, 185438, Note_on_c, 0, 75, 65
1, 185448, Note_on_c, 0, 52, 43
1, 185448, Note_off_c, 0, 73, 57
1, 185455, Note_off_c, 0, 59, 65
1, 185458, Note_off_c, 0, 56, 62
1, 185477, Note_off_c, 0, 52, 50
1, 185482, Control_c, 0, 64, 34
1, 185496, Control_c, 0, 64, 52
1, 185505, Note_on_c, 0, 76, 71
1, 185511, Control_c, 0, 64, 64
1, 185526, Control_c, 0, 64, 79
1, 185542, Control_c, 0, 64, 98
1, 185557, Control_c, 0, 64, 90
1, 185563, Note_off_c, 0, 75, 35
1, 185564, Note_off_c, 0, 76, 65
1, 185572, Control_c, 0, 64, 68
1, 185587, Control_c, 0, 64, 46
1, 185601, Control_c, 0, 64, 0
1, 185602, Note_on_c, 0, 64, 71
1, 185606, Note_on_c, 0, 40, 63
1, 185606, Note_on_c, 0, 73, 56
1, 185627, Note_off_c, 0, 64, 68
1, 185630, Note_off_c, 0, 40, 59
1, 185776, Note_on_c, 0, 64, 68
1, 185786, Note_on_c, 0, 61, 65
1, 185787, Note_on_c, 0, 57, 58
1, 185794, Note_on_c, 0, 52, 54
1, 185816, Note_off_c, 0, 61, 68
1, 185817, Note_off_c, 0, 52, 63
1, 185817, Note_off_c, 0, 57, 64
1, 185918, Note_off_c, 0, 73, 57
1, 185952, Note_on_c, 0, 57, 58
1, 185952, Note_on_c, 0, 52, 53
1, 185953, Note_on_c, 0, 61, 71
1, 185980, Note_off_c, 0, 61, 69
1, 185986, Note_off_c, 0, 57, 64
1, 185987, Note_off_c, 0, 52, 66
1, 186001, Control_c, 0, 64, 18
1, 186016, Control_c, 0, 64, 42
1, 186030, Note_on_c, 0, 66, 68
1, 186031, Control_c, 0, 64, 48
1, 186046, Control_c, 0, 64, 53
1, 186057, Note_off_c, 0, 64, 51
1, 186060, Control_c, 0, 64, 56
1, 186075, Control_c, 0, 64, 62
1, 186090, Control_c, 0, 64, 67
1, 186105, Control_c, 0, 64, 77
1, 186114, Note_on_c, 0, 68, 74
1, 186119, Control_c, 0, 64, 87
1, 186121, Note_on_c, 0, 61, 71
1, 186127, Note_on_c, 0, 57, 58
1, 186134, Note_off_c, 0, 66, 59
1, 186134, Control_c, 0, 64, 99
1, 186140, Note_on_c, 0, 52, 55
1, 186147, Note_off_c, 0, 61, 70
1, 186149, Control_c, 0, 64, 127
1, 186154, Note_off_c, 0, 57, 65
1, 186177, Note_off_c, 0, 52, 63
1, 186195, Note_on_c, 0, 69, 70
1, 186199, Note_off_c, 0, 68, 60
1, 186217, Note_off_c, 0, 69, 70
1, 186246, Control_c, 0, 64, 70
1, 186261, Control_c, 0, 64, 45
1, 186275, Control_c, 0, 64, 0
1, 186294, Note_on_c, 0, 78, 89
1, 186297, Note_on_c, 0, 40, 73
1, 186300, Note_on_c, 0, 69, 66
1, 186311, Note_off_c, 0, 78, 73
1, 186327, Note_off_c, 0, 40, 64
1, 186483, Note_on_c, 0, 57, 65
1, 186484, Note_on_c, 0, 59, 69
1, 186485, Note_on_c, 0, 78, 89
1, 186494, Note_on_c, 0, 52, 55
1, 186500, Note_on_c, 0, 54, 50
1, 186506, Note_off_c, 0, 59, 65
1, 186510, Note_off_c, 0, 57, 64
1, 186518, Note_off_c, 0, 52, 62
1, 186525, Note_off_c, 0, 54, 61
1, 186646, Note_on_c, 0, 54, 64
1, 186646, Control_c, 0, 64, 32
1, 186648, Note_off_c, 0, 69, 54
1, 186650, Note_on_c, 0, 52, 56
1, 186650, Note_on_c, 0, 59, 70
1, 186651, Note_on_c, 0, 57, 61
1, 186661, Control_c, 0, 64, 43
1, 186676, Note_off_c, 0, 59, 66
1, 186676, Control_c, 0, 64, 49
1, 186676, Control_c, 0, 67, 117
1, 186679, Note_off_c, 0, 57, 64
1, 186684, Note_off_c, 0, 52, 65
1, 186685, Note_off_c, 0, 54, 63
1, 186691, Control_c, 0, 64, 53
1, 186691, Control_c, 0, 67, 97
1, 186706, Control_c, 0, 64, 58
1, 186706, Control_c, 0, 67, 76
1, 186721, Control_c, 0, 64, 64
1, 186721, Control_c, 0, 67, 52
1, 186729, Note_on_c, 0, 80, 73
1, 186735, Control_c, 0, 64, 70
1, 186735, Control_c, 0, 67, 32
1, 186750, Control_c, 0, 64, 77
1, 186750, Control_c, 0, 67, 15
1, 186765, Control_c, 0, 64, 81
1, 186765, Control_c, 0, 67, 0
1, 186780, Control_c, 0, 64, 82
1, 186788, Note_off_c, 0, 78, 62
1, 186808, Note_on_c, 0, 81, 74
1, 186809, Control_c, 0, 64, 82
1, 186816, Note_off_c, 0, 80, 62
1, 186824, Control_c, 0, 64, 83
1, 186828, Note_on_c, 0, 59, 55
1, 186828, Note_on_c, 0, 57, 41
1, 186839, Control_c, 0, 64, 85
1, 186842, Note_on_c, 0, 52, 48
1, 186849, Note_off_c, 0, 59, 61
1, 186854, Control_c, 0, 64, 92
1, 186861, Note_off_c, 0, 57, 53
1, 186868, Note_off_c, 0, 52, 64
1, 186868, Control_c, 0, 64, 127
1, 186884, Note_on_c, 0, 83, 75
1, 186889, Poly_aftertouch_c, 0, 54, 127
1, 186925, Note_off_c, 0, 81, 63
1, 186930, Poly_aftertouch_c, 0, 54, 0
1, 186931, Note_off_c, 0, 83, 63
1, 186965, Control_c, 0, 64, 114
1, 186980, Control_c, 0, 64, 62
1, 186993, Note_on_c, 0, 80, 76
1, 186995, Control_c, 0, 64, 24
1, 186995, Note_on_c, 0, 40, 67
1, 187004, Note_on_c, 0, 71, 60
1, 187007, Note_on_c, 0, 83, 42
1, 187008, Note_off_c, 0, 83, 127
1, 187008, Note_off_c, 0, 80, 67
1, 187010, Control_c, 0, 64, 0
1, 187024, Note_off_c, 0, 71, 66
1, 187065, Note_off_c, 0, 40, 64
1, 187073, Note_on_c, 0, 42, 63
1, 187161, Note_off_c, 0, 42, 60
1, 187165, Note_on_c, 0, 44, 63
1, 187176, Note_on_c, 0, 64, 55
1, 187176, Note_on_c, 0, 68, 49
1, 187177, Note_on_c, 0, 71, 57
1, 187218, Note_off_c, 0, 68, 0
1, 187218, Note_on_c, 0, 68, 24
1, 187248, Note_off_c, 0, 44, 61
1, 187258, Note_on_c, 0, 45, 69
1, 187331, Note_off_c, 0, 45, 63
1, 187336, Control_c, 0, 64, 32
1, 187341, Note_on_c, 0, 44, 79
1, 187351, Control_c, 0, 64, 48
1, 187365, Control_c, 0, 64, 57
1, 187380, Control_c, 0, 64, 63
1, 187395, Control_c, 0, 64, 73
1, 187410, Control_c, 0, 64, 86
1, 187418, Note_on_c, 0, 45, 82
1, 187425, Control_c, 0, 64, 88
1, 187427, Note_off_c, 0, 64, 61
1, 187431, Note_off_c, 0, 44, 61
1, 187433, Note_off_c, 0, 71, 64
1, 187439, Control_c, 0, 64, 82
1, 187442, Note_off_c, 0, 68, 48
1, 187454, Control_c, 0, 64, 67
1, 187469, Control_c, 0, 64, 55
1, 187484, Control_c, 0, 64, 27
1, 187484, Note_off_c, 0, 45, 64
1, 187499, Control_c, 0, 64, 0
1, 187502, Note_on_c, 0, 47, 79
1, 187520, Note_on_c, 0, 64, 71
1, 187523, Note_on_c, 0, 71, 74
1, 187532, Note_on_c, 0, 68, 68
1, 187592, Note_on_c, 0, 49, 87
1, 187601, Note_off_c, 0, 47, 61
1, 187686, Note_on_c, 0, 47, 86
1, 187687, Note_off_c, 0, 49, 65
1, 187764, Note_on_c, 0, 49, 90
1, 187779, Note_off_c, 0, 47, 65
1, 187833, Note_off_c, 0, 64, 61
1, 187839, Note_on_c, 0, 51, 84
1, 187842, Note_off_c, 0, 71, 64
1, 187847, Note_off_c, 0, 68, 58
1, 187865, Note_off_c, 0, 49, 63
1, 187920, Note_on_c, 0, 52, 89
1, 187924, Note_off_c, 0, 51, 65
1, 187933, Note_on_c, 0, 64, 72
1, 187934, Note_on_c, 0, 71, 76
1, 187936, Note_on_c, 0, 68, 73
1, 187955, Note_off_c, 0, 71, 73
1, 187956, Note_off_c, 0, 64, 67
1, 187959, Note_off_c, 0, 68, 64
1, 187993, Note_off_c, 0, 52, 62
1, 188002, Note_on_c, 0, 51, 83
1, 188004, Note_on_c, 0, 64, 86
1, 188004, Note_on_c, 0, 71, 87
1, 188006, Note_on_c, 0, 68, 90
1, 188066, Note_off_c, 0, 51, 65
1, 188074, Note_off_c, 0, 68, 0
1, 188081, Note_on_c, 0, 52, 89
1, 188107, Note_on_c, 0, 68, 33
1, 188128, Control_c, 0, 64, 32
1, 188143, Control_c, 0, 64, 41
1, 188158, Control_c, 0, 64, 48
1, 188160, Note_off_c, 0, 64, 53
1, 188162, Note_on_c, 0, 54, 89
1, 188164, Note_off_c, 0, 68, 58
1, 188173, Control_c, 0, 64, 54
1, 188174, Note_off_c, 0, 71, 60
1, 188176, Note_off_c, 0, 52, 66
1, 188187, Control_c, 0, 64, 62
1, 188202, Control_c, 0, 64, 75
1, 188217, Control_c, 0, 64, 127
1, 188235, Note_on_c, 0, 64, 83
1, 188238, Note_on_c, 0, 56, 78
1, 188244, Note_on_c, 0, 71, 76
1, 188252, Note_off_c, 0, 54, 65
1, 188265, Note_off_c, 0, 56, 69
1, 188271, Note_off_c, 0, 64, 64
1, 188283, Note_off_c, 0, 71, 61
1, 188292, Control_c, 0, 64, 119
1, 188306, Control_c, 0, 64, 75
1, 188318, Note_on_c, 0, 57, 88
1, 188321, Control_c, 0, 64, 61
1, 188321, Note_on_c, 0, 66, 69
1, 188325, Note_on_c, 0, 54, 77
1, 188327, Note_on_c, 0, 47, 83
1, 188333, Note_on_c, 0, 63, 78
1, 188336, Control_c, 0, 64, 39
1, 188337, Note_off_c, 0, 57, 71
1, 188340, Note_on_c, 0, 71, 50
1, 188350, Note_off_c, 0, 54, 66
1, 188351, Control_c, 0, 64, 0
1, 188351, Note_off_c, 0, 47, 70
1, 188363, Note_off_c, 0, 71, 59
1, 188365, Note_off_c, 0, 63, 58
1, 188417, Note_on_c, 0, 73, 79
1, 188423, Note_off_c, 0, 66, 63
1, 188492, Control_c, 0, 64, 35
1, 188496, Note_on_c, 0, 47, 82
1, 188502, Note_on_c, 0, 35, 74
1, 188506, Note_on_c, 0, 75, 79
1, 188506, Control_c, 0, 64, 57
1, 188517, Note_off_c, 0, 47, 69
1, 188521, Control_c, 0, 64, 65
1, 188524, Note_off_c, 0, 35, 61
1, 188530, Note_off_c, 0, 73, 61
1, 188536, Control_c, 0, 64, 67
1, 188547, Note_off_c, 0, 75, 60
1, 188551, Control_c, 0, 64, 67
1, 188566, Control_c, 0, 64, 70
1, 188581, Control_c, 0, 64, 74
1, 188583, Note_on_c, 0, 76, 79
1, 188596, Control_c, 0, 64, 79
1, 188611, Control_c, 0, 64, 85
1, 188625, Control_c, 0, 64, 87
1, 188655, Control_c, 0, 64, 85
1, 188670, Control_c, 0, 64, 80
1, 188670, Note_on_c, 0, 75, 91
1, 188673, Note_off_c, 0, 76, 53
1, 188685, Control_c, 0, 64, 75
1, 188700, Control_c, 0, 64, 70
1, 188714, Control_c, 0, 64, 66
1, 188727, Note_off_c, 0, 75, 63
1, 188729, Control_c, 0, 64, 62
1, 188745, Control_c, 0, 64, 57
1, 188760, Note_on_c, 0, 76, 93
1, 188760, Control_c, 0, 64, 46
1, 188775, Control_c, 0, 64, 27
1, 188789, Control_c, 0, 64, 0
1, 188817, Note_off_c, 0, 76, 55
1, 188825, Note_on_c, 0, 35, 61
1, 188828, Poly_aftertouch_c, 0, 37, 0
1, 188834, Note_on_c, 0, 47, 83
1, 188843, Note_on_c, 0, 78, 91
1, 188908, Note_off_c, 0, 35, 63
1, 188908, Control_c, 0, 64, 22
1, 188915, Note_off_c, 0, 78, 68
1, 188916, Note_on_c, 0, 80, 91
1, 188923, Control_c, 0, 64, 38
1, 188930, Note_off_c, 0, 47, 66
1, 188937, Control_c, 0, 64, 48
1, 188952, Control_c, 0, 64, 58
1, 188967, Control_c, 0, 64, 65
1, 188982, Control_c, 0, 64, 78
1, 188997, Control_c, 0, 64, 87
1, 188999, Note_on_c, 0, 78, 106
1, 189001, Note_off_c, 0, 80, 60
1, 189011, Control_c, 0, 64, 89
1, 189026, Control_c, 0, 64, 90
1, 189041, Control_c, 0, 64, 92
1, 189055, Control_c, 0, 64, 94
1, 189070, Control_c, 0, 64, 97
1, 189079, Note_on_c, 0, 80, 95
1, 189085, Control_c, 0, 64, 98
1, 189100, Control_c, 0, 64, 100
1, 189115, Note_off_c, 0, 78, 62
1, 189115, Control_c, 0, 64, 109
1, 189129, Control_c, 0, 64, 127
1, 189163, Note_on_c, 0, 81, 85
1, 189210, Control_c, 0, 64, 107
1, 189217, Note_off_c, 0, 80, 62
1, 189225, Control_c, 0, 64, 81
1, 189240, Note_on_c, 0, 54, 83
1, 189240, Control_c, 0, 64, 64
1, 189241, Note_on_c, 0, 57, 84
1, 189247, Note_on_c, 0, 47, 77
1, 189254, Note_on_c, 0, 83, 77
1, 189254, Control_c, 0, 64, 48
1, 189261, Note_off_c, 0, 57, 70
1, 189262, Note_on_c, 0, 82, 81
1, 189263, Note_off_c, 0, 54, 70
1, 189269, Control_c, 0, 64, 0
1, 189271, Note_off_c, 0, 47, 70
1, 189277, Note_off_c, 0, 82, 71
1, 189281, Note_off_c, 0, 81, 63
1, 189295, Note_off_c, 0, 83, 68
1, 189329, Note_on_c, 0, 57, 88
1, 189331, Note_on_c, 0, 81, 95
1, 189332, Note_on_c, 0, 47, 90
1, 189332, Note_on_c, 0, 54, 85
1, 189351, Note_off_c, 0, 57, 69
1, 189353, Note_off_c, 0, 54, 70
1, 189354, Note_off_c, 0, 47, 71
1, 189359, Control_c, 0, 64, 22
1, 189374, Control_c, 0, 64, 45
1, 189389, Note_off_c, 0, 81, 0
1, 189389, Control_c, 0, 64, 56
1, 189403, Control_c, 0, 64, 63
1, 189409, Note_on_c, 0, 83, 87
1, 189416, Poly_aftertouch_c, 0, 81, 0
1, 189418, Control_c, 0, 64, 68
1, 189433, Control_c, 0, 64, 76
1, 189448, Control_c, 0, 64, 82
1, 189462, Control_c, 0, 64, 86
1, 189469, Poly_aftertouch_c, 0, 54, 127
1, 189477, Control_c, 0, 64, 87
1, 189480, Poly_aftertouch_c, 0, 47, 127
1, 189492, Control_c, 0, 64, 89
1, 189496, Note_on_c, 0, 85, 85
1, 189507, Control_c, 0, 64, 91
1, 189514, Poly_aftertouch_c, 0, 54, 0
1, 189522, Control_c, 0, 64, 92
1, 189526, Poly_aftertouch_c, 0, 47, 0
1, 189532, Note_off_c, 0, 83, 63
1, 189538, Control_c, 0, 64, 95
1, 189552, Control_c, 0, 64, 113
1, 189567, Control_c, 0, 64, 127
1, 189568, Note_on_c, 0, 87, 85
1, 189570, Note_on_c, 0, 54, 65
1, 189575, Note_on_c, 0, 47, 46
1, 189581, Note_on_c, 0, 57, 60
1, 189602, Note_off_c, 0, 47, 60
1, 189602, Note_off_c, 0, 54, 64
1, 189612, Note_off_c, 0, 85, 40
1, 189612, Note_off_c, 0, 57, 64
1, 189624, Note_off_c, 0, 87, 64
1, 189656, Control_c, 0, 64, 83
1, 189657, Note_on_c, 0, 88, 95
1, 189663, Note_on_c, 0, 76, 74
1, 189671, Control_c, 0, 64, 52
1, 189672, Note_on_c, 0, 52, 73
1, 189675, Note_off_c, 0, 88, 71
1, 189678, Note_off_c, 0, 76, 70
1, 189685, Control_c, 0, 64, 0
1, 189689, Note_on_c, 0, 80, 32
1, 189690, Note_off_c, 0, 80, 127
1, 189695, Note_on_c, 0, 53, 46
1, 189728, Note_off_c, 0, 53, 33
1, 189733, Note_off_c, 0, 52, 66
1, 189738, Note_on_c, 0, 54, 72
1, 189809, Note_off_c, 0, 54, 64
1, 189823, Note_on_c, 0, 56, 68
1, 189829, Note_on_c, 0, 80, 55
1, 189830, Note_on_c, 0, 83, 69
1, 189843, Note_on_c, 0, 76, 51
1, 189892, Note_off_c, 0, 56, 66
1, 189913, Note_on_c, 0, 57, 72
1, 189982, Note_off_c, 0, 57, 62
1, 189988, Control_c, 0, 64, 15
1, 189997, Note_on_c, 0, 56, 79
1, 189999, Note_off_c, 0, 76, 66
1, 190000, Note_off_c, 0, 83, 66
1, 190000, Note_off_c, 0, 80, 64
1, 190003, Control_c, 0, 64, 35
1, 190018, Control_c, 0, 64, 42
1, 190032, Control_c, 0, 64, 50
1, 190047, Control_c, 0, 64, 57
1, 190062, Control_c, 0, 64, 64
1, 190073, Note_on_c, 0, 57, 83
1, 190077, Control_c, 0, 64, 74
1, 190079, Note_off_c, 0, 56, 66
1, 190092, Control_c, 0, 64, 82
1, 190107, Control_c, 0, 64, 85
1, 190122, Control_c, 0, 64, 86
1, 190132, Note_off_c, 0, 57, 62
1, 190137, Control_c, 0, 64, 88
1, 190149, Note_on_c, 0, 83, 82
1, 190152, Control_c, 0, 64, 93
1, 190155, Note_on_c, 0, 59, 78
1, 190156, Note_on_c, 0, 76, 73
1, 190161, Note_on_c, 0, 80, 74
1, 190166, Control_c, 0, 64, 101
1, 190181, Control_c, 0, 64, 108
1, 190196, Control_c, 0, 64, 109
1, 190211, Control_c, 0, 64, 108
1, 190226, Control_c, 0, 64, 99
1, 190231, Note_on_c, 0, 61, 92
1, 190240, Note_off_c, 0, 59, 61
1, 190240, Control_c, 0, 64, 85
1, 190255, Control_c, 0, 64, 71
1, 190270, Control_c, 0, 64, 58
1, 190284, Control_c, 0, 64, 30
1, 190299, Control_c, 0, 64, 0
1, 190310, Note_off_c, 0, 61, 64
1, 190315, Note_on_c, 0, 59, 84
1, 190389, Control_c, 0, 64, 38
1, 190400, Note_on_c, 0, 61, 96
1, 190404, Control_c, 0, 64, 53
1, 190414, Note_off_c, 0, 59, 64
1, 190419, Control_c, 0, 64, 64
1, 190434, Control_c, 0, 64, 70
1, 190448, Control_c, 0, 64, 72
1, 190463, Control_c, 0, 64, 69
1, 190473, Note_on_c, 0, 63, 95
1, 190477, Note_off_c, 0, 76, 65
1, 190478, Control_c, 0, 64, 59
1, 190479, Note_off_c, 0, 80, 62
1, 190483, Note_off_c, 0, 83, 64
1, 190493, Control_c, 0, 64, 33
1, 190497, Note_off_c, 0, 61, 64
1, 190507, Control_c, 0, 64, 0
1, 190556, Note_on_c, 0, 64, 86
1, 190562, Note_off_c, 0, 63, 66
1, 190567, Note_on_c, 0, 83, 86
1, 190569, Note_on_c, 0, 76, 82
1, 190571, Note_on_c, 0, 80, 82
1, 190587, Note_off_c, 0, 76, 74
1, 190587, Note_off_c, 0, 83, 71
1, 190590, Note_off_c, 0, 80, 71
1, 190635, Note_on_c, 0, 63, 89
1, 190639, Note_on_c, 0, 83, 88
1, 190642, Note_on_c, 0, 80, 92
1, 190642, Note_off_c, 0, 64, 62
1, 190645, Note_on_c, 0, 76, 92
1, 190722, Note_off_c, 0, 63, 65
1, 190722, Control_c, 0, 64, 40
1, 190727, Note_on_c, 0, 64, 86
1, 190737, Control_c, 0, 64, 56
1, 190752, Control_c, 0, 64, 62
1, 190767, Control_c, 0, 64, 64
1, 190775, Note_off_c, 0, 76, 63
1, 190781, Control_c, 0, 64, 65
1, 190796, Control_c, 0, 64, 71
1, 190797, Note_off_c, 0, 83, 58
1, 190801, Note_off_c, 0, 80, 58
1, 190810, Note_on_c, 0, 66, 90
1, 190811, Control_c, 0, 64, 79
1, 190821, Note_off_c, 0, 64, 61
1, 190826, Control_c, 0, 64, 87
1, 190841, Control_c, 0, 64, 103
1, 190855, Control_c, 0, 64, 127
1, 190882, Note_on_c, 0, 76, 77
1, 190882, Note_on_c, 0, 68, 81
1, 190889, Note_on_c, 0, 83, 79
1, 190902, Note_off_c, 0, 66, 62
1, 190908, Note_off_c, 0, 76, 69
1, 190921, Note_off_c, 0, 68, 59
1, 190926, Note_off_c, 0, 83, 60
1, 190945, Control_c, 0, 64, 76
1, 190959, Note_on_c, 0, 69, 87
1, 190960, Control_c, 0, 64, 52
1, 190969, Note_on_c, 0, 75, 81
1, 190971, Note_on_c, 0, 78, 86
1, 190974, Note_on_c, 0, 66, 59
1, 190974, Control_c, 0, 64, 0
1, 190975, Note_off_c, 0, 69, 76
1, 190977, Note_on_c, 0, 59, 65
1, 190986, Note_on_c, 0, 83, 34
1, 190989, Note_on_c, 0, 60, 47
1, 190990, Note_off_c, 0, 60, 127
1, 190993, Note_off_c, 0, 66, 38
1, 190995, Note_off_c, 0, 59, 64
1, 190998, Note_off_c, 0, 75, 59
1, 191033, Note_off_c, 0, 83, 42
1, 191051, Note_on_c, 0, 85, 79
1, 191054, Note_off_c, 0, 78, 65
1, 191131, Note_on_c, 0, 59, 80
1, 191133, Note_on_c, 0, 47, 82
1, 191142, Note_on_c, 0, 87, 70
1, 191152, Note_off_c, 0, 47, 68
1, 191153, Note_off_c, 0, 59, 69
1, 191153, Note_off_c, 0, 85, 62
1, 191168, Note_off_c, 0, 87, 66
1, 191168, Control_c, 0, 64, 42
1, 191183, Control_c, 0, 64, 59
1, 191198, Control_c, 0, 64, 64
1, 191212, Note_on_c, 0, 88, 77
1, 191212, Control_c, 0, 64, 66
1, 191227, Control_c, 0, 64, 68
1, 191235, Poly_aftertouch_c, 0, 51, 0
1, 191242, Control_c, 0, 64, 72
1, 191257, Control_c, 0, 64, 77
1, 191271, Control_c, 0, 64, 83
1, 191286, Control_c, 0, 64, 88
1, 191301, Control_c, 0, 64, 93
1, 191302, Note_on_c, 0, 87, 86
1, 191312, Note_off_c, 0, 88, 64
1, 191316, Control_c, 0, 64, 103
1, 191330, Control_c, 0, 64, 127
1, 191367, Note_off_c, 0, 87, 65
1, 191383, Note_on_c, 0, 88, 88
1, 191413, Control_c, 0, 64, 97
1, 191428, Control_c, 0, 64, 71
1, 191442, Control_c, 0, 64, 56
1, 191457, Control_c, 0, 64, 11
1, 191472, Control_c, 0, 64, 0
1, 191473, Note_on_c, 0, 47, 79
1, 191473, Note_on_c, 0, 90, 98
1, 191474, Note_on_c, 0, 59, 84
1, 191497, Note_off_c, 0, 88, 61
1, 191515, Note_off_c, 0, 47, 65
1, 191530, Note_off_c, 0, 59, 64
1, 191546, Control_c, 0, 64, 34
1, 191550, Note_on_c, 0, 92, 96
1, 191551, Note_off_c, 0, 90, 68
1, 191561, Control_c, 0, 64, 47
1, 191576, Control_c, 0, 64, 57
1, 191591, Control_c, 0, 64, 64
1, 191605, Control_c, 0, 64, 73
1, 191620, Control_c, 0, 64, 84
1, 191627, Note_off_c, 0, 92, 66
1, 191630, Note_on_c, 0, 90, 99
1, 191635, Control_c, 0, 64, 88
1, 191650, Control_c, 0, 64, 92
1, 191664, Control_c, 0, 64, 98
1, 191679, Control_c, 0, 64, 108
1, 191694, Control_c, 0, 64, 127
1, 191712, Note_on_c, 0, 92, 98
1, 191749, Note_off_c, 0, 90, 65
1, 191787, Note_on_c, 0, 93, 88
1, 191842, Control_c, 0, 64, 117
1, 191846, Note_off_c, 0, 92, 66
1, 191857, Control_c, 0, 64, 69
1, 191859, Note_on_c, 0, 69, 85
1, 191862, Note_on_c, 0, 66, 79
1, 191866, Note_on_c, 0, 59, 75
1, 191872, Control_c, 0, 64, 46
1, 191874, Note_on_c, 0, 95, 98
1, 191880, Note_off_c, 0, 69, 71
1, 191884, Note_off_c, 0, 66, 69
1, 191887, Control_c, 0, 64, 0
1, 191887, Note_off_c, 0, 59, 68
1, 191895, Note_off_c, 0, 93, 67
1, 191910, Note_off_c, 0, 95, 68
1, 191955, Note_on_c, 0, 69, 90
1, 191955, Note_on_c, 0, 66, 82
1, 191955, Note_on_c, 0, 93, 104
1, 191961, Note_on_c, 0, 59, 76
1, 191971, Note_off_c, 0, 69, 74
1, 191976, Note_off_c, 0, 66, 70
1, 191977, Control_c, 0, 64, 32
1, 191978, Note_off_c, 0, 59, 68
1, 191992, Control_c, 0, 64, 50
1, 191997, Note_off_c, 0, 93, 64
1, 192007, Control_c, 0, 64, 57
1, 192022, Control_c, 0, 64, 61
1, 192033, Note_on_c, 0, 95, 100
1, 192036, Control_c, 0, 64, 63
1, 192051, Control_c, 0, 64, 68
1, 192066, Control_c, 0, 64, 73
1, 192080, Control_c, 0, 64, 77
1, 192095, Control_c, 0, 64, 81
1, 192104, Note_on_c, 0, 59, 7
1, 192110, Control_c, 0, 64, 83
1, 192112, Note_on_c, 0, 97, 95
1, 192125, Control_c, 0, 64, 87
1, 192135, Note_off_c, 0, 95, 66
1, 192140, Control_c, 0, 64, 96
1, 192162, Control_c, 0, 64, 127
1, 192166, Note_off_c, 0, 59, 0
1, 192166, Note_on_c, 0, 59, 8
1, 192193, Note_on_c, 0, 99, 90
1, 192194, Note_on_c, 0, 66, 59
1, 192196, Note_on_c, 0, 69, 46
1, 192206, Note_off_c, 0, 59, 60
1, 192207, Note_off_c, 0, 97, 65
1, 192226, Note_off_c, 0, 66, 62
1, 192228, Note_off_c, 0, 69, 54
1, 192235, Note_off_c, 0, 99, 66
1, 192251, Control_c, 0, 64, 73
1, 192266, Control_c, 0, 64, 48
1, 192280, Control_c, 0, 64, 0
1, 192297, Note_on_c, 0, 100, 100
1, 192301, Note_on_c, 0, 68, 76
1, 192303, Note_on_c, 0, 64, 62
1, 192303, Note_on_c, 0, 88, 91
1, 192311, Note_on_c, 0, 92, 83
1, 192316, Note_on_c, 0, 61, 71
1, 192331, Note_off_c, 0, 88, 63
1, 192335, Note_off_c, 0, 92, 66
1, 192343, Note_off_c, 0, 100, 71
1, 192355, Control_c, 0, 64, 41
1, 192361, Note_off_c, 0, 68, 62
1, 192369, Control_c, 0, 64, 57
1, 192372, Note_off_c, 0, 61, 66
1, 192375, Note_off_c, 0, 64, 64
1, 192384, Control_c, 0, 64, 69
1, 192399, Control_c, 0, 64, 95
1, 192414, Control_c, 0, 64, 127
1, 192651, Control_c, 0, 64, 66
1, 192666, Control_c, 0, 64, 17
1, 192680, Control_c, 0, 64, 0
1, 192726, Control_c, 0, 67, 9
1, 192741, Control_c, 0, 67, 16
1, 192756, Control_c, 0, 67, 31
1, 192771, Control_c, 0, 67, 54
1, 192785, Control_c, 0, 67, 72
1, 192800, Control_c, 0, 67, 86
1, 192815, Control_c, 0, 67, 99
1, 192830, Control_c, 0, 67, 111
1, 192845, Control_c, 0, 67, 123
1, 192859, Control_c, 0, 67, 127
1, 192889, Note_on_c, 0, 90, 49
1, 192891, Note_on_c, 0, 78, 49
1, 192893, Note_on_c, 0, 57, 44
1, 192894, Note_on_c, 0, 69, 43
1, 192908, Note_on_c, 0, 85, 26
1, 192918, Note_off_c, 0, 85, 39
1, 192923, Note_off_c, 0, 78, 36
1, 192924, Note_off_c, 0, 90, 59
1, 192927, Note_off_c, 0, 69, 58
1, 192928, Note_off_c, 0, 57, 54
1, 193086, Note_on_c, 0, 57, 44
1, 193089, Control_c, 0, 64, 28
1, 193090, Note_on_c, 0, 78, 67
1, 193091, Note_on_c, 0, 90, 69
1, 193098, Note_on_c, 0, 85, 48
1, 193101, Note_on_c, 0, 69, 37
1, 193103, Control_c, 0, 64, 38
1, 193109, Note_off_c, 0, 78, 70
1, 193114, Note_off_c, 0, 57, 56
1, 193118, Note_off_c, 0, 90, 68
1, 193118, Control_c, 0, 64, 49
1, 193121, Note_off_c, 0, 85, 58
1, 193133, Note_off_c, 0, 69, 52
1, 193133, Control_c, 0, 64, 60
1, 193148, Control_c, 0, 64, 68
1, 193163, Control_c, 0, 64, 76
1, 193177, Control_c, 0, 64, 78
1, 193207, Control_c, 0, 64, 79
1, 193237, Control_c, 0, 64, 79
1, 193282, Control_c, 0, 64, 81
1, 193296, Control_c, 0, 64, 86
1, 193311, Control_c, 0, 64, 93
1, 193326, Control_c, 0, 64, 104
1, 193341, Control_c, 0, 64, 127
1, 193415, Control_c, 0, 64, 101
1, 193429, Control_c, 0, 64, 68
1, 193444, Control_c, 0, 64, 49
1, 193459, Control_c, 0, 64, 0
1, 193642, Note_on_c, 0, 93, 75
1, 193651, Note_on_c, 0, 66, 67
1, 193654, Note_on_c, 0, 54, 63
1, 193656, Note_on_c, 0, 81, 60
1, 193669, Note_off_c, 0, 66, 65
1, 193672, Note_off_c, 0, 93, 67
1, 193677, Note_off_c, 0, 54, 62
1, 193677, Note_off_c, 0, 81, 62
1, 193824, Note_on_c, 0, 93, 80
1, 193830, Note_on_c, 0, 66, 70
1, 193833, Note_on_c, 0, 54, 52
1, 193836, Note_on_c, 0, 81, 61
1, 193844, Note_off_c, 0, 93, 70
1, 193850, Note_off_c, 0, 66, 66
1, 193855, Note_off_c, 0, 81, 63
1, 193859, Note_off_c, 0, 54, 57
1, 193999, Note_on_c, 0, 87, 70
1, 194000, Note_on_c, 0, 81, 59
1, 194003, Note_on_c, 0, 66, 57
1, 194008, Note_on_c, 0, 75, 63
1, 194016, Note_on_c, 0, 59, 50
1, 194023, Note_off_c, 0, 66, 63
1, 194027, Note_off_c, 0, 75, 63
1, 194027, Note_off_c, 0, 87, 64
1, 194030, Note_off_c, 0, 81, 65
1, 194045, Note_off_c, 0, 59, 64
1, 194175, Note_on_c, 0, 66, 54
1, 194176, Note_on_c, 0, 59, 57
1, 194181, Note_on_c, 0, 87, 69
1, 194182, Note_on_c, 0, 81, 63
1, 194185, Note_on_c, 0, 75, 58
1, 194194, Note_off_c, 0, 66, 63
1, 194203, Note_off_c, 0, 59, 64
1, 194203, Note_off_c, 0, 81, 66
1, 194205, Note_off_c, 0, 75, 63
1, 194208, Note_off_c, 0, 87, 65
1, 194351, Note_on_c, 0, 88, 75
1, 194361, Note_on_c, 0, 80, 51
1, 194364, Note_on_c, 0, 52, 52
1, 194370, Note_on_c, 0, 76, 41
1, 194373, Note_off_c, 0, 88, 68
1, 194383, Note_off_c, 0, 80, 60
1, 194391, Note_off_c, 0, 52, 58
1, 194408, Note_off_c, 0, 76, 35
1, 194546, Note_on_c, 0, 90, 71
1, 194549, Note_on_c, 0, 87, 60
1, 194553, Note_on_c, 0, 78, 57
1, 194556, Control_c, 0, 64, 31
1, 194561, Note_on_c, 0, 59, 41
1, 194567, Note_on_c, 0, 47, 32
1, 194571, Control_c, 0, 64, 39
1, 194573, Note_off_c, 0, 78, 63
1, 194574, Note_off_c, 0, 90, 69
1, 194579, Note_off_c, 0, 87, 67
1, 194586, Control_c, 0, 64, 47
1, 194590, Note_off_c, 0, 59, 53
1, 194601, Control_c, 0, 64, 56
1, 194609, Note_off_c, 0, 47, 58
1, 194616, Control_c, 0, 64, 65
1, 194630, Control_c, 0, 64, 74
1, 194645, Control_c, 0, 64, 78
1, 194660, Control_c, 0, 64, 79
1, 194674, Control_c, 0, 64, 79
1, 194689, Control_c, 0, 64, 81
1, 194704, Control_c, 0, 64, 86
1, 194719, Control_c, 0, 64, 92
1, 194734, Control_c, 0, 64, 94
1, 194748, Control_c, 0, 64, 95
1, 194763, Control_c, 0, 64, 98
1, 194778, Control_c, 0, 64, 109
1, 194793, Control_c, 0, 64, 127
1, 194897, Control_c, 0, 64, 71
1, 194912, Control_c, 0, 64, 50
1, 194927, Control_c, 0, 64, 0
1, 195312, Note_on_c, 0, 69, 48
1, 195319, Note_on_c, 0, 51, 38
1, 195321, Control_c, 0, 64, 22
1, 195324, Note_on_c, 0, 66, 33
1, 195332, Note_on_c, 0, 59, 32
1, 195335, Control_c, 0, 64, 34
1, 195350, Control_c, 0, 64, 43
1, 195358, Note_off_c, 0, 69, 62
1, 195363, Note_off_c, 0, 66, 54
1, 195365, Note_off_c, 0, 59, 53
1, 195365, Note_off_c, 0, 51, 63
1, 195365, Control_c, 0, 64, 53
1, 195380, Control_c, 0, 64, 61
1, 195395, Control_c, 0, 64, 66
1, 195410, Control_c, 0, 64, 69
1, 195424, Control_c, 0, 64, 69
1, 195439, Control_c, 0, 64, 70
1, 195484, Control_c, 0, 64, 70
1, 195498, Control_c, 0, 64, 71
1, 195513, Control_c, 0, 64, 72
1, 195528, Control_c, 0, 64, 75
1, 195543, Control_c, 0, 64, 80
1, 195558, Control_c, 0, 64, 86
1, 195572, Control_c, 0, 64, 95
1, 195587, Control_c, 0, 64, 102
1, 195602, Control_c, 0, 64, 103
1, 195617, Control_c, 0, 64, 103
1, 195631, Control_c, 0, 64, 88
1, 195646, Control_c, 0, 64, 69
1, 195661, Control_c, 0, 64, 52
1, 195676, Control_c, 0, 64, 0
1, 195863, Note_on_c, 0, 68, 44
1, 195867, Note_on_c, 0, 52, 47
1, 195869, Note_on_c, 0, 64, 41
1, 195881, Note_on_c, 0, 59, 11
1, 195896, Note_off_c, 0, 68, 54
1, 195902, Note_off_c, 0, 52, 50
1, 195907, Note_off_c, 0, 64, 52
1, 195934, Note_off_c, 0, 59, 28
1, 196073, Note_on_c, 0, 68, 61
1, 196077, Note_on_c, 0, 52, 41
1, 196078, Note_on_c, 0, 64, 40
1, 196082, Note_on_c, 0, 59, 42
1, 196084, Control_c, 0, 64, 34
1, 196099, Control_c, 0, 64, 46
1, 196105, Note_off_c, 0, 52, 62
1, 196108, Note_off_c, 0, 64, 59
1, 196110, Note_off_c, 0, 68, 59
1, 196113, Note_off_c, 0, 59, 47
1, 196114, Control_c, 0, 64, 56
1, 196128, Control_c, 0, 64, 61
1, 196143, Control_c, 0, 64, 66
1, 196158, Control_c, 0, 64, 70
1, 196173, Control_c, 0, 64, 71
1, 196233, Control_c, 0, 64, 71
1, 196247, Control_c, 0, 64, 72
1, 196262, Control_c, 0, 64, 73
1, 196277, Control_c, 0, 64, 75
1, 196292, Control_c, 0, 64, 77
1, 196307, Control_c, 0, 64, 80
1, 196321, Control_c, 0, 64, 84
1, 196336, Control_c, 0, 64, 88
1, 196351, Control_c, 0, 64, 89
1, 196366, Control_c, 0, 64, 87
1, 196381, Control_c, 0, 64, 74
1, 196395, Control_c, 0, 64, 60
1, 196410, Control_c, 0, 64, 36
1, 196425, Control_c, 0, 64, 0
1, 196605, Note_on_c, 0, 66, 60
1, 196617, Note_on_c, 0, 45, 42
1, 196621, Note_on_c, 0, 61, 42
1, 196629, Note_off_c, 0, 66, 64
1, 196633, Note_on_c, 0, 64, 13
1, 196653, Note_off_c, 0, 45, 52
1, 196653, Note_off_c, 0, 61, 56
1, 196685, Note_off_c, 0, 64, 28
1, 196781, Note_on_c, 0, 64, 52
1, 196788, Note_on_c, 0, 66, 64
1, 196790, Note_on_c, 0, 45, 37
1, 196791, Note_on_c, 0, 61, 44
1, 196814, Note_off_c, 0, 64, 65
1, 196821, Note_off_c, 0, 45, 59
1, 196821, Note_off_c, 0, 66, 64
1, 196823, Note_off_c, 0, 61, 66
1, 196967, Note_on_c, 0, 71, 53
1, 196968, Note_on_c, 0, 47, 52
1, 196973, Note_on_c, 0, 63, 51
1, 196997, Note_off_c, 0, 71, 61
1, 196999, Note_off_c, 0, 63, 60
1, 197002, Note_off_c, 0, 47, 65
1, 197149, Note_on_c, 0, 71, 53
1, 197150, Note_on_c, 0, 47, 48
1, 197150, Note_on_c, 0, 63, 40
1, 197171, Note_off_c, 0, 71, 64
1, 197180, Note_off_c, 0, 47, 59
1, 197181, Note_off_c, 0, 63, 57
1, 197312, Note_on_c, 0, 64, 54
1, 197324, Note_on_c, 0, 40, 38
1, 197338, Note_off_c, 0, 64, 60
1, 197357, Note_off_c, 0, 40, 50
1, 197513, Note_on_c, 0, 40, 14
1, 197523, Note_on_c, 0, 64, 47
1, 197568, Control_c, 0, 64, 29
1, 197582, Note_off_c, 0, 64, 61
1, 197582, Control_c, 0, 64, 41
1, 197585, Note_off_c, 0, 40, 61
1, 197597, Control_c, 0, 64, 51
1, 197612, Control_c, 0, 64, 60
1, 197627, Control_c, 0, 64, 65
1, 197642, Control_c, 0, 64, 69
1, 197656, Control_c, 0, 64, 71
1, 197671, Control_c, 0, 64, 71
1, 197686, Control_c, 0, 64, 72
1, 197700, Control_c, 0, 64, 74
1, 197715, Control_c, 0, 64, 75
1, 197730, Control_c, 0, 64, 76
1, 197745, Control_c, 0, 64, 77
1, 197760, Control_c, 0, 64, 79
1, 197774, Control_c, 0, 64, 83
1, 197789, Control_c, 0, 64, 88
1, 197804, Control_c, 0, 64, 91
1, 197819, Control_c, 0, 64, 92
1, 197848, Control_c, 0, 64, 86
1, 197863, Control_c, 0, 64, 71
1, 197878, Control_c, 0, 64, 58
1, 197893, Control_c, 0, 64, 31
1, 197908, Control_c, 0, 64, 0
1, 198110, Note_on_c, 0, 71, 46
1, 198135, Note_off_c, 0, 71, 60
1, 198334, Note_on_c, 0, 68, 48
1, 198358, Note_on_c, 0, 64, 34
1, 198358, Note_on_c, 0, 40, 28
1, 198363, Note_on_c, 0, 59, 31
1, 198367, Note_on_c, 0, 52, 29
1, 198538, Control_c, 0, 64, 13
1, 198553, Control_c, 0, 64, 27
1, 198568, Control_c, 0, 64, 38
1, 198583, Control_c, 0, 64, 50
1, 198597, Control_c, 0, 64, 59
1, 198600, Note_off_c, 0, 40, 56
1, 198612, Control_c, 0, 64, 65
1, 198614, Note_off_c, 0, 52, 57
1, 198627, Control_c, 0, 64, 71
1, 198641, Control_c, 0, 64, 72
1, 198686, Control_c, 0, 64, 72
1, 198701, Control_c, 0, 64, 73
1, 198716, Note_off_c, 0, 59, 39
1, 198716, Note_off_c, 0, 64, 49
1, 198731, Control_c, 0, 64, 73
1, 198746, Control_c, 0, 64, 74
1, 198761, Control_c, 0, 64, 74
1, 198775, Control_c, 0, 64, 75
1, 198849, Control_c, 0, 64, 75
1, 198960, Control_c, 0, 64, 76
1, 198975, Control_c, 0, 64, 76
1, 198990, Control_c, 0, 64, 77
1, 199020, Control_c, 0, 64, 77
1, 199079, Control_c, 0, 64, 74
1, 199094, Control_c, 0, 64, 67
1, 199109, Control_c, 0, 64, 55
1, 199118, Note_on_c, 0, 69, 54
1, 199124, Control_c, 0, 64, 28
1, 199130, Note_on_c, 0, 49, 49
1, 199133, Note_on_c, 0, 52, 46
1, 199138, Note_on_c, 0, 64, 33
1, 199139, Control_c, 0, 64, 0
1, 199160, Note_off_c, 0, 52, 56
1, 199183, Note_off_c, 0, 68, 54
1, 199315, Note_on_c, 0, 57, 57
1, 199337, Note_off_c, 0, 57, 61
1, 199344, Note_off_c, 0, 64, 55
1, 199501, Note_on_c, 0, 57, 52
1, 199527, Note_off_c, 0, 57, 59
1, 199697, Note_on_c, 0, 52, 54
1, 199703, Note_off_c, 0, 49, 65
1, 199723, Note_off_c, 0, 52, 56
1, 199918, Note_on_c, 0, 52, 36
1, 199918, Note_on_c, 0, 71, 60
1, 199940, Note_on_c, 0, 44, 33
1, 199949, Note_on_c, 0, 59, 31
1, 199955, Note_on_c, 0, 64, 24
1, 200000, Note_off_c, 0, 69, 60
1, 200213, Control_c, 0, 64, 16
1, 200228, Control_c, 0, 64, 27
1, 200243, Control_c, 0, 64, 38
1, 200258, Control_c, 0, 64, 50
1, 200273, Control_c, 0, 64, 58
1, 200287, Control_c, 0, 64, 62
1, 200302, Control_c, 0, 64, 65
1, 200317, Note_off_c, 0, 59, 41
1, 200317, Control_c, 0, 64, 66
1, 200332, Control_c, 0, 64, 66
1, 200347, Control_c, 0, 64, 68
1, 200361, Control_c, 0, 64, 69
1, 200376, Control_c, 0, 64, 71
1, 200397, Note_off_c, 0, 44, 51
1, 200399, Control_c, 0, 64, 71
1, 200400, Note_off_c, 0, 64, 42
1, 200441, Note_off_c, 0, 52, 57
1, 200443, Control_c, 0, 64, 72
1, 200458, Control_c, 0, 64, 73
1, 200473, Control_c, 0, 64, 74
1, 200547, Control_c, 0, 64, 74
1, 200606, Control_c, 0, 64, 75
1, 200636, Control_c, 0, 64, 75
1, 200710, Control_c, 0, 64, 75
1, 200725, Control_c, 0, 64, 72
1, 200734, Note_on_c, 0, 73, 68
1, 200740, Note_on_c, 0, 64, 48
1, 200740, Control_c, 0, 64, 67
1, 200748, Note_on_c, 0, 52, 47
1, 200752, Note_on_c, 0, 61, 44
1, 200755, Note_on_c, 0, 45, 41
1, 200755, Control_c, 0, 64, 62
1, 200770, Control_c, 0, 64, 52
1, 200785, Control_c, 0, 64, 33
1, 200794, Note_off_c, 0, 52, 65
1, 200799, Control_c, 0, 64, 0
1, 200815, Note_off_c, 0, 71, 65
1, 200921, Note_on_c, 0, 57, 64
1, 200946, Note_off_c, 0, 57, 64
1, 201079, Note_off_c, 0, 64, 59
1, 201090, Note_off_c, 0, 45, 61
1, 201114, Note_on_c, 0, 57, 70
1, 201149, Note_off_c, 0, 57, 65
1, 201286, Note_on_c, 0, 45, 61
1, 201314, Note_off_c, 0, 45, 65
1, 201405, Note_off_c, 0, 61, 50
1, 201513, Note_on_c, 0, 74, 61
1, 201523, Note_on_c, 0, 45, 35
1, 201534, Note_on_c, 0, 62, 50
1, 201536, Note_on_c, 0, 42, 42
1, 201547, Note_on_c, 0, 69, 39
1, 201581, Note_off_c, 0, 73, 51
1, 201771, Control_c, 0, 64, 21
1, 201785, Control_c, 0, 64, 33
1, 201800, Control_c, 0, 64, 42
1, 201815, Control_c, 0, 64, 51
1, 201830, Control_c, 0, 64, 57
1, 201845, Control_c, 0, 64, 62
1, 201858, Control_c, 0, 64, 64
1, 201873, Control_c, 0, 64, 65
1, 201896, Control_c, 0, 64, 66
1, 201896, Control_c, 0, 67, 116
1, 201911, Control_c, 0, 64, 67
1, 201911, Control_c, 0, 67, 102
1, 201926, Control_c, 0, 64, 68
1, 201926, Control_c, 0, 67, 90
1, 201938, Note_off_c, 0, 62, 55
1, 201940, Control_c, 0, 64, 68
1, 201940, Control_c, 0, 67, 82
1, 201941, Note_off_c, 0, 69, 62
1, 201955, Control_c, 0, 64, 69
1, 201955, Control_c, 0, 67, 74
1, 201970, Control_c, 0, 64, 70
1, 201970, Control_c, 0, 67, 69
1, 201974, Note_off_c, 0, 42, 59
1, 201985, Control_c, 0, 64, 71
1, 201985, Control_c, 0, 67, 66
1, 201999, Control_c, 0, 64, 72
1, 201999, Control_c, 0, 67, 63
1, 202014, Control_c, 0, 67, 60
1, 202026, Note_off_c, 0, 45, 41
1, 202029, Control_c, 0, 67, 57
1, 202044, Control_c, 0, 67, 54
1, 202059, Control_c, 0, 64, 73
1, 202059, Control_c, 0, 67, 53
1, 202088, Control_c, 0, 64, 73
1, 202088, Control_c, 0, 67, 54
1, 202103, Control_c, 0, 64, 74
1, 202118, Control_c, 0, 67, 54
1, 202147, Control_c, 0, 67, 55
1, 202162, Control_c, 0, 67, 55
1, 202192, Control_c, 0, 67, 56
1, 202206, Control_c, 0, 67, 57
1, 202221, Control_c, 0, 67, 57
1, 202236, Control_c, 0, 67, 58
1, 202296, Control_c, 0, 67, 58
1, 202311, Control_c, 0, 64, 72
1, 202326, Control_c, 0, 64, 69
1, 202329, Note_on_c, 0, 76, 70
1, 202341, Control_c, 0, 64, 66
1, 202346, Note_on_c, 0, 45, 51
1, 202347, Note_on_c, 0, 64, 49
1, 202348, Note_on_c, 0, 37, 39
1, 202356, Control_c, 0, 64, 61
1, 202364, Note_on_c, 0, 69, 38
1, 202370, Control_c, 0, 64, 55
1, 202385, Control_c, 0, 64, 45
1, 202398, Note_off_c, 0, 74, 62
1, 202400, Control_c, 0, 64, 29
1, 202400, Control_c, 0, 67, 59
1, 202415, Control_c, 0, 64, 0
1, 202415, Control_c, 0, 67, 58
1, 202428, Note_off_c, 0, 45, 61
1, 202460, Control_c, 0, 67, 58
1, 202519, Control_c, 0, 67, 57
1, 202536, Note_on_c, 0, 52, 66
1, 202549, Control_c, 0, 67, 56
1, 202561, Note_off_c, 0, 52, 54
1, 202563, Control_c, 0, 67, 55
1, 202578, Control_c, 0, 67, 54
1, 202593, Control_c, 0, 67, 54
1, 202607, Control_c, 0, 67, 53
1, 202622, Control_c, 0, 67, 52
1, 202645, Control_c, 0, 67, 51
1, 202660, Control_c, 0, 67, 48
1, 202674, Control_c, 0, 67, 44
1, 202689, Control_c, 0, 67, 38
1, 202704, Control_c, 0, 67, 34
1, 202719, Control_c, 0, 67, 30
1, 202725, Note_on_c, 0, 52, 67
1, 202734, Control_c, 0, 67, 27
1, 202746, Note_off_c, 0, 52, 63
1, 202749, Control_c, 0, 67, 24
1, 202756, Note_off_c, 0, 64, 63
1, 202763, Control_c, 0, 67, 20
1, 202778, Control_c, 0, 67, 18
1, 202793, Control_c, 0, 67, 18
1, 202823, Note_off_c, 0, 69, 47
1, 202896, Control_c, 0, 67, 18
1, 202910, Note_off_c, 0, 37, 58
1, 202911, Control_c, 0, 67, 19
1, 202913, Note_on_c, 0, 45, 62
1, 202940, Note_off_c, 0, 45, 65
1, 202955, Control_c, 0, 67, 20
1, 202970, Control_c, 0, 67, 20
1, 203000, Control_c, 0, 67, 21
1, 203059, Control_c, 0, 67, 21
1, 203150, Note_on_c, 0, 78, 64
1, 203160, Note_on_c, 0, 69, 40
1, 203171, Note_on_c, 0, 50, 35
1, 203175, Note_on_c, 0, 38, 36
1, 203178, Note_on_c, 0, 66, 42
1, 203208, Control_c, 0, 64, 13
1, 203223, Control_c, 0, 64, 26
1, 203238, Control_c, 0, 64, 36
1, 203253, Control_c, 0, 64, 46
1, 203264, Note_off_c, 0, 38, 58
1, 203268, Control_c, 0, 64, 56
1, 203271, Note_off_c, 0, 50, 56
1, 203274, Note_off_c, 0, 76, 65
1, 203283, Control_c, 0, 64, 63
1, 203284, Note_off_c, 0, 78, 67
1, 203297, Control_c, 0, 64, 68
1, 203312, Control_c, 0, 64, 70
1, 203327, Control_c, 0, 67, 22
1, 203342, Control_c, 0, 67, 23
1, 203393, Control_c, 0, 64, 70
1, 203393, Control_c, 0, 67, 23
1, 203396, Note_on_c, 0, 76, 71
1, 203408, Note_on_c, 0, 40, 41
1, 203408, Control_c, 0, 64, 66
1, 203408, Control_c, 0, 67, 24
1, 203413, Note_on_c, 0, 52, 55
1, 203414, Note_on_c, 0, 73, 56
1, 203423, Control_c, 0, 64, 59
1, 203423, Control_c, 0, 67, 25
1, 203438, Control_c, 0, 64, 43
1, 203438, Control_c, 0, 67, 26
1, 203452, Control_c, 0, 64, 0
1, 203452, Control_c, 0, 67, 27
1, 203467, Control_c, 0, 67, 28
1, 203482, Control_c, 0, 67, 30
1, 203491, Note_off_c, 0, 69, 63
1, 203497, Control_c, 0, 67, 35
1, 203501, Note_off_c, 0, 52, 66
1, 203512, Control_c, 0, 64, 29
1, 203512, Control_c, 0, 67, 48
1, 203527, Control_c, 0, 64, 42
1, 203527, Control_c, 0, 67, 66
1, 203533, Note_off_c, 0, 40, 63
1, 203542, Control_c, 0, 64, 54
1, 203542, Control_c, 0, 67, 85
1, 203556, Control_c, 0, 64, 62
1, 203556, Control_c, 0, 67, 103
1, 203571, Control_c, 0, 64, 68
1, 203571, Control_c, 0, 67, 121
1, 203584, Note_off_c, 0, 73, 35
1, 203586, Control_c, 0, 64, 71
1, 203586, Control_c, 0, 67, 127
1, 203645, Control_c, 0, 64, 70
1, 203656, Note_on_c, 0, 74, 56
1, 203660, Control_c, 0, 64, 69
1, 203675, Control_c, 0, 64, 66
1, 203679, Note_on_c, 0, 54, 46
1, 203683, Note_on_c, 0, 71, 52
1, 203685, Note_on_c, 0, 42, 38
1, 203690, Control_c, 0, 64, 58
1, 203705, Control_c, 0, 64, 40
1, 203712, Note_off_c, 0, 76, 64
1, 203719, Control_c, 0, 64, 0
1, 203777, Note_off_c, 0, 71, 62
1, 203793, Control_c, 0, 64, 27
1, 203808, Control_c, 0, 64, 37
1, 203809, Note_off_c, 0, 54, 63
1, 203823, Control_c, 0, 64, 47
1, 203837, Control_c, 0, 64, 56
1, 203852, Control_c, 0, 64, 62
1, 203867, Control_c, 0, 64, 66
1, 203870, Note_off_c, 0, 42, 35
1, 203882, Control_c, 0, 64, 66
1, 203942, Control_c, 0, 64, 67
1, 203986, Control_c, 0, 64, 66
1, 204001, Control_c, 0, 64, 65
1, 204006, Note_on_c, 0, 73, 50
1, 204016, Control_c, 0, 64, 63
1, 204022, Note_on_c, 0, 39, 31
1, 204028, Note_on_c, 0, 69, 41
1, 204031, Control_c, 0, 64, 60
1, 204039, Note_on_c, 0, 51, 31
1, 204046, Control_c, 0, 64, 53
1, 204048, Note_off_c, 0, 74, 38
1, 204061, Control_c, 0, 64, 39
1, 204075, Control_c, 0, 64, 0
1, 204186, Control_c, 0, 64, 18
1, 204201, Control_c, 0, 64, 32
1, 204216, Control_c, 0, 64, 43
1, 204231, Control_c, 0, 64, 53
1, 204246, Control_c, 0, 64, 60
1, 204260, Control_c, 0, 64, 64
1, 204266, Note_off_c, 0, 73, 60
1, 204272, Note_off_c, 0, 51, 43
1, 204275, Control_c, 0, 64, 66
1, 204290, Note_off_c, 0, 69, 43
1, 204305, Note_off_c, 0, 39, 39
1, 204305, Control_c, 0, 64, 67
1, 204335, Control_c, 0, 64, 68
1, 204350, Control_c, 0, 64, 68
1, 204365, Control_c, 0, 64, 69
1, 204660, Control_c, 0, 64, 69
1, 204675, Control_c, 0, 64, 68
1, 204690, Control_c, 0, 64, 67
1, 204706, Control_c, 0, 64, 66
1, 204721, Control_c, 0, 64, 64
1, 204736, Control_c, 0, 64, 63
1, 204746, Note_on_c, 0, 73, 43
1, 204751, Control_c, 0, 64, 60
1, 204755, Note_on_c, 0, 69, 36
1, 204757, Note_on_c, 0, 40, 32
1, 204765, Control_c, 0, 64, 56
1, 204780, Control_c, 0, 64, 51
1, 204782, Note_on_c, 0, 52, 22
1, 204795, Control_c, 0, 64, 44
1, 204809, Control_c, 0, 64, 36
1, 204824, Control_c, 0, 64, 26
1, 204825, Note_off_c, 0, 69, 0
1, 204825, Note_on_c, 0, 69, 7
1, 204834, Note_off_c, 0, 66, 56
1, 204839, Control_c, 0, 64, 0
1, 205098, Control_c, 0, 64, 13
1, 205113, Control_c, 0, 64, 26
1, 205128, Control_c, 0, 64, 39
1, 205143, Control_c, 0, 64, 49
1, 205158, Control_c, 0, 64, 57
1, 205172, Control_c, 0, 64, 62
1, 205187, Control_c, 0, 64, 65
1, 205202, Control_c, 0, 64, 67
1, 205213, Note_off_c, 0, 69, 43
1, 205217, Control_c, 0, 64, 68
1, 205232, Control_c, 0, 64, 69
1, 205241, Note_off_c, 0, 73, 35
1, 205247, Control_c, 0, 64, 71
1, 205262, Control_c, 0, 64, 74
1, 205277, Control_c, 0, 64, 76
1, 205282, Note_off_c, 0, 40, 40
1, 205291, Control_c, 0, 64, 78
1, 205306, Control_c, 0, 64, 78
1, 205321, Control_c, 0, 64, 79
1, 205335, Control_c, 0, 64, 79
1, 205350, Control_c, 0, 64, 80
1, 205365, Control_c, 0, 64, 80
1, 205380, Control_c, 0, 64, 81
1, 205432, Note_off_c, 0, 52, 42
1, 205439, Control_c, 0, 64, 82
1, 205559, Control_c, 0, 64, 82
1, 205729, Control_c, 0, 64, 83
1, 206571, Note_on_c, 0, 52, 32
1, 206641, Control_c, 0, 64, 82
1, 206742, Note_on_c, 0, 57, 42
1, 206759, Control_c, 0, 64, 82
1, 206788, Control_c, 0, 64, 81
1, 206818, Control_c, 0, 64, 81
1, 206833, Control_c, 0, 64, 80
1, 206848, Control_c, 0, 64, 80
1, 206863, Control_c, 0, 64, 79
1, 206878, Control_c, 0, 64, 79
1, 206885, Note_on_c, 0, 60, 44
1, 206907, Control_c, 0, 64, 78
1, 206937, Control_c, 0, 64, 78
1, 206981, Control_c, 0, 64, 77
1, 207037, Note_on_c, 0, 64, 38
1, 207041, Control_c, 0, 64, 77
1, 207116, Control_c, 0, 64, 76
1, 207152, Control_c, 0, 64, 76
1, 207182, Control_c, 0, 64, 75
1, 207211, Control_c, 0, 64, 75
1, 207226, Control_c, 0, 64, 74
1, 207246, Note_on_c, 0, 69, 42
1, 207271, Control_c, 0, 64, 74
1, 207316, Control_c, 0, 64, 73
1, 207345, Control_c, 0, 64, 73
1, 207375, Control_c, 0, 64, 72
1, 207404, Control_c, 0, 64, 72
1, 207419, Control_c, 0, 64, 71
1, 207434, Control_c, 0, 64, 71
1, 207449, Control_c, 0, 64, 70
1, 207464, Control_c, 0, 64, 70
1, 207478, Control_c, 0, 64, 69
1, 207493, Control_c, 0, 64, 68
1, 207508, Control_c, 0, 64, 67
1, 207523, Control_c, 0, 64, 67
1, 207537, Control_c, 0, 64, 66
1, 207552, Control_c, 0, 64, 65
1, 207567, Control_c, 0, 64, 64
1, 207582, Control_c, 0, 64, 63
1, 207597, Control_c, 0, 64, 61
1, 207611, Control_c, 0, 64, 57
1, 207626, Control_c, 0, 64, 54
1, 207641, Control_c, 0, 64, 49
1, 207656, Control_c, 0, 64, 44
1, 207671, Control_c, 0, 64, 39
1, 207685, Control_c, 0, 64, 35
1, 207686, Note_on_c, 0, 72, 50
1, 207700, Control_c, 0, 64, 32
1, 207715, Control_c, 0, 64, 27
1, 207730, Control_c, 0, 64, 21
1, 207745, Control_c, 0, 64, 9
1, 207760, Control_c, 0, 64, 0
1, 207916, Control_c, 0, 64, 20
1, 207931, Control_c, 0, 64, 31
1, 207946, Control_c, 0, 64, 39
1, 207960, Control_c, 0, 64, 48
1, 207975, Control_c, 0, 64, 56
1, 207990, Control_c, 0, 64, 61
1, 208005, Control_c, 0, 64, 65
1, 208020, Control_c, 0, 64, 66
1, 208034, Control_c, 0, 64, 67
1, 208049, Control_c, 0, 64, 68
1, 208064, Control_c, 0, 64, 70
1, 208079, Control_c, 0, 64, 72
1, 208094, Control_c, 0, 64, 74
1, 208109, Control_c, 0, 64, 76
1, 208124, Control_c, 0, 64, 78
1, 208124, Note_off_c, 0, 52, 43
1, 208131, Note_off_c, 0, 60, 51
1, 208138, Control_c, 0, 64, 79
1, 208153, Control_c, 0, 64, 80
1, 208160, Note_off_c, 0, 64, 36
1, 208168, Note_off_c, 0, 72, 54
1, 208168, Control_c, 0, 64, 81
1, 208183, Control_c, 0, 64, 82
1, 208191, Note_off_c, 0, 57, 35
1, 208194, Note_off_c, 0, 69, 36
1, 208198, Control_c, 0, 64, 83
1, 208213, Control_c, 0, 64, 85
1, 208227, Control_c, 0, 64, 86
1, 208272, Control_c, 0, 64, 86
1, 208287, Control_c, 0, 64, 87
1, 208301, Control_c, 0, 64, 88
1, 208316, Control_c, 0, 64, 89
1, 208331, Control_c, 0, 64, 89
1, 208360, Control_c, 0, 64, 90
1, 208375, Control_c, 0, 64, 92
1, 208390, Control_c, 0, 64, 95
1, 208405, Control_c, 0, 64, 97
1, 208420, Control_c, 0, 67, 125
1, 208434, Control_c, 0, 67, 112
1, 208449, Control_c, 0, 64, 97
1, 208449, Control_c, 0, 67, 97
1, 208464, Control_c, 0, 64, 98
1, 208464, Control_c, 0, 67, 84
1, 208479, Control_c, 0, 64, 100
1, 208479, Control_c, 0, 67, 70
1, 208494, Control_c, 0, 64, 100
1, 208494, Control_c, 0, 67, 54
1, 208508, Control_c, 0, 67, 42
1, 208523, Control_c, 0, 67, 33
1, 208538, Control_c, 0, 67, 28
1, 208553, Control_c, 0, 67, 22
1, 208568, Control_c, 0, 64, 101
1, 208568, Control_c, 0, 67, 17
1, 208583, Control_c, 0, 67, 14
1, 208598, Control_c, 0, 67, 11
1, 208612, Control_c, 0, 67, 0
1, 208828, Control_c, 0, 64, 101
1, 208843, Control_c, 0, 64, 102
1, 208857, Control_c, 0, 64, 103
1, 208887, Control_c, 0, 64, 103
1, 208917, Control_c, 0, 64, 105
1, 208931, Control_c, 0, 64, 106
1, 208946, Control_c, 0, 64, 110
1, 208961, Control_c, 0, 64, 127
1, 209080, Control_c, 0, 64, 114
1, 209080, Note_on_c, 0, 76, 101
1, 209082, Note_on_c, 0, 64, 101
1, 209084, Note_on_c, 0, 52, 93
1, 209086, Note_on_c, 0, 40, 86
1, 209095, Control_c, 0, 64, 63
1, 209105, Note_off_c, 0, 52, 73
1, 209110, Control_c, 0, 64, 25
1, 209110, Note_off_c, 0, 76, 69
1, 209112, Note_off_c, 0, 40, 67
1, 209112, Note_off_c, 0, 64, 69
1, 209124, Control_c, 0, 64, 0
1, 209289, Note_on_c, 0, 48, 94
1, 209290, Note_on_c, 0, 60, 101
1, 209292, Note_on_c, 0, 36, 81
1, 209293, Note_on_c, 0, 72, 98
1, 209307, Note_off_c, 0, 60, 74
1, 209310, Note_off_c, 0, 72, 73
1, 209316, Note_off_c, 0, 36, 66
1, 209327, Note_off_c, 0, 48, 66
1, 209331, Control_c, 0, 64, 42
1, 209346, Control_c, 0, 64, 56
1, 209361, Control_c, 0, 64, 64
1, 209383, Control_c, 0, 64, 74
1, 209398, Control_c, 0, 64, 103
1, 209413, Control_c, 0, 64, 127
1, 209710, Control_c, 0, 64, 78
1, 209724, Control_c, 0, 64, 21
1, 209739, Control_c, 0, 64, 0
1, 210132, Control_c, 0, 67, 8
1, 210147, Control_c, 0, 67, 15
1, 210162, Control_c, 0, 67, 22
1, 210177, Control_c, 0, 67, 30
1, 210192, Control_c, 0, 67, 41
1, 210206, Control_c, 0, 67, 55
1, 210221, Control_c, 0, 67, 70
1, 210236, Control_c, 0, 67, 80
1, 210251, Control_c, 0, 67, 88
1, 210266, Control_c, 0, 67, 94
1, 210280, Control_c, 0, 67, 99
1, 210295, Control_c, 0, 67, 103
1, 210311, Control_c, 0, 67, 108
1, 210326, Control_c, 0, 67, 113
1, 210341, Control_c, 0, 67, 115
1, 210355, Control_c, 0, 67, 115
1, 210370, Control_c, 0, 67, 116
1, 210385, Control_c, 0, 67, 116
1, 210400, Control_c, 0, 67, 117
1, 210415, Control_c, 0, 67, 120
1, 210429, Control_c, 0, 67, 125
1, 210444, Control_c, 0, 67, 127
1, 210680, Note_on_c, 0, 40, 36
1, 210718, Note_off_c, 0, 40, 49
1, 210904, Note_on_c, 0, 36, 41
1, 211387, Note_on_c, 0, 38, 52
1, 211400, Note_off_c, 0, 36, 49
1, 211459, Note_off_c, 0, 38, 62
1, 211480, Note_on_c, 0, 40, 51
1, 211546, Note_off_c, 0, 40, 60
1, 211546, Note_on_c, 0, 41, 49
1, 211641, Note_off_c, 0, 41, 62
1, 211665, Note_on_c, 0, 35, 48
1, 212056, Note_off_c, 0, 35, 59
1, 212258, Note_on_c, 0, 38, 47
1, 212291, Note_off_c, 0, 38, 49
1, 212476, Note_on_c, 0, 35, 50
1, 212985, Note_off_c, 0, 35, 54
1, 213000, Note_on_c, 0, 36, 47
1, 213060, Note_off_c, 0, 36, 61
1, 213081, Note_on_c, 0, 38, 55
1, 213153, Note_off_c, 0, 38, 61
1, 213174, Note_on_c, 0, 40, 56
1, 213242, Note_off_c, 0, 40, 61
1, 213260, Note_on_c, 0, 33, 63
1, 213412, Note_off_c, 0, 33, 62
1, 213448, Note_on_c, 0, 45, 55
1, 213477, Note_off_c, 0, 45, 64
1, 213637, Note_on_c, 0, 45, 58
1, 213660, Note_off_c, 0, 45, 61
1, 213829, Note_on_c, 0, 43, 61
1, 213856, Note_off_c, 0, 43, 60
1, 214039, Note_on_c, 0, 45, 59
1, 214062, Note_off_c, 0, 45, 62
1, 214228, Note_on_c, 0, 43, 60
1, 214254, Note_off_c, 0, 43, 59
1, 214402, Note_on_c, 0, 41, 65
1, 214433, Note_off_c, 0, 41, 66
1, 214442, Note_on_c, 0, 43, 67
1, 214487, Note_off_c, 0, 43, 59
1, 214508, Note_on_c, 0, 41, 59
1, 214555, Note_off_c, 0, 41, 64
1, 214569, Note_on_c, 0, 43, 66
1, 214624, Note_off_c, 0, 43, 58
1, 214635, Note_on_c, 0, 41, 54
1, 214668, Note_off_c, 0, 41, 66
1, 214679, Note_on_c, 0, 40, 64
1, 214720, Note_off_c, 0, 40, 67
1, 214731, Note_on_c, 0, 43, 32
1, 214733, Note_on_c, 0, 41, 71
1, 214761, Note_off_c, 0, 41, 68
1, 214769, Note_off_c, 0, 43, 46
1, 215003, Note_on_c, 0, 43, 56
1, 215030, Note_off_c, 0, 43, 58
1, 215197, Note_on_c, 0, 43, 57
1, 215225, Note_off_c, 0, 43, 55
1, 215393, Note_on_c, 0, 41, 56
1, 215421, Note_off_c, 0, 41, 65
1, 215576, Note_on_c, 0, 43, 63
1, 215605, Note_off_c, 0, 43, 64
1, 215772, Note_on_c, 0, 41, 56
1, 215798, Note_off_c, 0, 41, 61
1, 215960, Note_on_c, 0, 40, 58
1, 216135, Note_off_c, 0, 40, 60
1, 216139, Note_on_c, 0, 55, 71
1, 216156, Note_on_c, 0, 38, 47
1, 216161, Note_off_c, 0, 55, 69
1, 216213, Note_off_c, 0, 38, 58
1, 216240, Note_on_c, 0, 36, 44
1, 216285, Note_off_c, 0, 36, 62
1, 216335, Note_on_c, 0, 52, 69
1, 216353, Note_on_c, 0, 48, 44
1, 216409, Note_off_c, 0, 48, 62
1, 216449, Note_on_c, 0, 47, 48
1, 216494, Note_off_c, 0, 47, 63
1, 216526, Note_on_c, 0, 45, 50
1, 216600, Note_off_c, 0, 45, 59
1, 216631, Note_on_c, 0, 43, 36
1, 216712, Note_on_c, 0, 48, 54
1, 216727, Note_off_c, 0, 43, 55
1, 216800, Note_off_c, 0, 52, 61
1, 216818, Note_on_c, 0, 53, 58
1, 216902, Note_off_c, 0, 53, 62
1, 216905, Note_on_c, 0, 55, 65
1, 216985, Note_off_c, 0, 55, 63
1, 216998, Note_on_c, 0, 57, 59
1, 217063, Note_off_c, 0, 57, 60
1, 217090, Note_on_c, 0, 50, 57
1, 217165, Note_off_c, 0, 48, 62
1, 217193, Note_on_c, 0, 47, 49
1, 217250, Note_off_c, 0, 47, 63
1, 217264, Note_on_c, 0, 45, 52
1, 217336, Note_off_c, 0, 45, 62
1, 217352, Note_on_c, 0, 43, 58
1, 217397, Note_off_c, 0, 50, 65
1, 217451, Note_on_c, 0, 46, 61
1, 217452, Note_off_c, 0, 43, 62
1, 217643, Note_on_c, 0, 53, 69
1, 217670, Note_off_c, 0, 53, 67
1, 217840, Note_on_c, 0, 50, 65
1, 217898, Note_off_c, 0, 46, 65
1, 217934, Note_on_c, 0, 45, 54
1, 218002, Note_off_c, 0, 45, 60
1, 218026, Note_on_c, 0, 43, 56
1, 218089, Note_off_c, 0, 43, 59
1, 218106, Note_on_c, 0, 41, 53
1, 218184, Note_off_c, 0, 41, 61
1, 218211, Note_on_c, 0, 46, 60
1, 218292, Note_off_c, 0, 50, 60
1, 218307, Note_on_c, 0, 52, 62
1, 218385, Note_off_c, 0, 52, 63
1, 218387, Note_on_c, 0, 53, 70
1, 218476, Note_off_c, 0, 53, 62
1, 218489, Note_on_c, 0, 55, 67
1, 218550, Note_off_c, 0, 55, 64
1, 218572, Note_on_c, 0, 48, 74
1, 218628, Note_off_c, 0, 46, 65
1, 218663, Note_on_c, 0, 45, 48
1, 218742, Note_off_c, 0, 45, 59
1, 218747, Note_on_c, 0, 43, 51
1, 218747, Note_off_c, 0, 48, 65
1, 218750, Note_on_c, 0, 58, 79
1, 218774, Note_off_c, 0, 58, 68
1, 218795, Note_off_c, 0, 43, 64
1, 218821, Note_on_c, 0, 41, 51
1, 218929, Note_off_c, 0, 41, 60
1, 218932, Note_on_c, 0, 58, 81
1, 218950, Note_on_c, 0, 40, 56
1, 218957, Note_off_c, 0, 58, 67
1, 219098, Note_off_c, 0, 40, 62
1, 219122, Note_on_c, 0, 41, 40
1, 219123, Note_on_c, 0, 57, 78
1, 219145, Note_off_c, 0, 57, 68
1, 219310, Note_off_c, 0, 41, 62
1, 219311, Note_on_c, 0, 38, 56
1, 219311, Note_on_c, 0, 58, 77
1, 219336, Note_off_c, 0, 58, 67
1, 219345, Note_off_c, 0, 38, 63
1, 219495, Note_on_c, 0, 40, 67
1, 219496, Note_on_c, 0, 57, 74
1, 219520, Note_off_c, 0, 57, 67
1, 219524, Note_off_c, 0, 40, 64
1, 219659, Note_on_c, 0, 55, 76
1, 219660, Note_on_c, 0, 40, 72
1, 219688, Note_off_c, 0, 40, 66
1, 219689, Note_off_c, 0, 55, 67
1, 219704, Note_on_c, 0, 57, 66
1, 219732, Note_off_c, 0, 57, 65
1, 219749, Note_on_c, 0, 55, 59
1, 219791, Note_on_c, 0, 57, 74
1, 219814, Note_off_c, 0, 57, 66
1, 219841, Note_on_c, 0, 38, 69
1, 219871, Note_off_c, 0, 55, 58
1, 219881, Note_off_c, 0, 38, 64
1, 219884, Note_on_c, 0, 53, 61
1, 219936, Note_on_c, 0, 55, 59
1, 219944, Note_off_c, 0, 53, 64
1, 219973, Note_off_c, 0, 55, 67
1, 220037, Note_on_c, 0, 40, 60
1, 220064, Note_off_c, 0, 40, 58
1, 220217, Note_on_c, 0, 57, 78
1, 220229, Note_on_c, 0, 38, 54
1, 220239, Note_off_c, 0, 57, 68
1, 220259, Note_off_c, 0, 38, 54
1, 220396, Note_on_c, 0, 57, 80
1, 220402, Note_on_c, 0, 37, 54
1, 220416, Note_off_c, 0, 57, 69
1, 220441, Note_off_c, 0, 37, 61
1, 220453, Note_on_c, 0, 38, 65
1, 220533, Note_on_c, 0, 37, 58
1, 220578, Note_on_c, 0, 55, 65
1, 220588, Note_off_c, 0, 37, 63
1, 220610, Note_off_c, 0, 55, 68
1, 220613, Note_on_c, 0, 35, 66
1, 220625, Note_off_c, 0, 38, 63
1, 220668, Note_on_c, 0, 37, 62
1, 220674, Note_off_c, 0, 35, 60
1, 220703, Note_on_c, 0, 38, 58
1, 220713, Note_off_c, 0, 37, 67
1, 220735, Note_off_c, 0, 38, 63
1, 220768, Note_on_c, 0, 57, 75
1, 220793, Note_off_c, 0, 57, 66
1, 220946, Note_on_c, 0, 38, 62
1, 220955, Note_on_c, 0, 55, 70
1, 220972, Note_off_c, 0, 38, 57
1, 220980, Note_off_c, 0, 55, 68
1, 221121, Note_on_c, 0, 53, 63
1, 221135, Note_on_c, 0, 50, 54
1, 221281, Note_off_c, 0, 53, 63
1, 221283, Note_off_c, 0, 50, 61
1, 221294, Note_on_c, 0, 69, 74
1, 221296, Note_on_c, 0, 55, 62
1, 221308, Note_on_c, 0, 52, 48
1, 221326, Note_off_c, 0, 69, 60
1, 221338, Note_off_c, 0, 52, 60
1, 221382, Note_on_c, 0, 57, 71
1, 221383, Note_off_c, 0, 55, 64
1, 221396, Note_on_c, 0, 53, 68
1, 221406, Note_off_c, 0, 57, 65
1, 221469, Note_off_c, 0, 53, 52
1, 221475, Note_on_c, 0, 65, 81
1, 221482, Note_on_c, 0, 58, 76
1, 221502, Note_on_c, 0, 55, 55
1, 221532, Note_off_c, 0, 55, 66
1, 221552, Note_off_c, 0, 58, 66
1, 221577, Note_on_c, 0, 53, 69
1, 221587, Note_on_c, 0, 57, 61
1, 221631, Note_off_c, 0, 57, 56
1, 221647, Note_on_c, 0, 52, 65
1, 221682, Note_off_c, 0, 53, 63
1, 221689, Note_on_c, 0, 55, 64
1, 221705, Note_off_c, 0, 52, 65
1, 221762, Note_off_c, 0, 55, 65
1, 221774, Note_on_c, 0, 53, 57
1, 221825, Note_off_c, 0, 53, 63
1, 221843, Note_on_c, 0, 58, 58
1, 221845, Note_on_c, 0, 55, 52
1, 221927, Note_off_c, 0, 65, 55
1, 221948, Note_on_c, 0, 67, 63
1, 222040, Note_off_c, 0, 67, 59
1, 222041, Note_on_c, 0, 69, 69
1, 222127, Note_off_c, 0, 69, 65
1, 222131, Note_on_c, 0, 70, 68
1, 222196, Note_off_c, 0, 70, 61
1, 222214, Note_on_c, 0, 64, 63
1, 222220, Note_off_c, 0, 58, 62
1, 222275, Note_off_c, 0, 55, 64
1, 222304, Note_on_c, 0, 53, 54
1, 222309, Note_on_c, 0, 57, 62
1, 222363, Note_off_c, 0, 57, 52
1, 222378, Note_off_c, 0, 53, 63
1, 222388, Note_on_c, 0, 52, 62
1, 222421, Note_on_c, 0, 55, 60
1, 222432, Note_off_c, 0, 52, 66
1, 222463, Note_on_c, 0, 50, 49
1, 222479, Note_off_c, 0, 55, 63
1, 222496, Note_on_c, 0, 53, 65
1, 222516, Note_off_c, 0, 50, 61
1, 222537, Note_off_c, 0, 64, 60
1, 222569, Note_off_c, 0, 53, 62
1, 222576, Note_on_c, 0, 52, 55
1, 222587, Note_on_c, 0, 55, 61
1, 222754, Note_on_c, 0, 67, 69
1, 222758, Note_off_c, 0, 55, 66
1, 222761, Note_off_c, 0, 52, 66
1, 222779, Note_off_c, 0, 67, 68
1, 222911, Note_on_c, 0, 53, 74
1, 222924, Note_on_c, 0, 64, 74
1, 222933, Note_on_c, 0, 57, 28
1, 222934, Note_off_c, 0, 57, 127
1, 222954, Note_off_c, 0, 53, 63
1, 222995, Note_on_c, 0, 55, 68
1, 223001, Note_on_c, 0, 52, 70
1, 223052, Note_off_c, 0, 52, 59
1, 223058, Note_on_c, 0, 50, 57
1, 223072, Note_off_c, 0, 55, 61
1, 223097, Note_on_c, 0, 53, 70
1, 223100, Note_off_c, 0, 50, 56
1, 223167, Note_on_c, 0, 52, 60
1, 223167, Note_off_c, 0, 53, 65
1, 223197, Note_on_c, 0, 49, 42
1, 223237, Note_off_c, 0, 52, 64
1, 223243, Note_off_c, 0, 49, 64
1, 223275, Note_on_c, 0, 57, 64
1, 223278, Note_on_c, 0, 53, 50
1, 223334, Note_off_c, 0, 53, 0
1, 223334, Note_on_c, 0, 53, 16
1, 223344, Note_off_c, 0, 64, 57
1, 223375, Note_on_c, 0, 65, 65
1, 223450, Note_off_c, 0, 65, 64
1, 223457, Note_on_c, 0, 67, 70
1, 223538, Note_off_c, 0, 67, 57
1, 223545, Note_on_c, 0, 69, 70
1, 223588, Note_off_c, 0, 57, 61
1, 223597, Note_off_c, 0, 69, 64
1, 223623, Note_on_c, 0, 62, 79
1, 223699, Note_on_c, 0, 55, 70
1, 223700, Note_off_c, 0, 53, 57
1, 223715, Note_on_c, 0, 52, 60
1, 223746, Note_off_c, 0, 52, 66
1, 223770, Note_on_c, 0, 50, 60
1, 223795, Note_on_c, 0, 74, 77
1, 223796, Note_off_c, 0, 55, 61
1, 223801, Note_off_c, 0, 62, 59
1, 223806, Note_on_c, 0, 53, 71
1, 223832, Note_off_c, 0, 50, 63
1, 223839, Note_off_c, 0, 74, 63
1, 223847, Note_on_c, 0, 49, 64
1, 223882, Note_off_c, 0, 53, 64
1, 223915, Note_off_c, 0, 49, 64
1, 223916, Note_on_c, 0, 52, 52
1, 223952, Note_off_c, 0, 52, 61
1, 223963, Note_on_c, 0, 50, 65
1, 223976, Note_on_c, 0, 74, 77
1, 223981, Note_on_c, 0, 53, 75
1, 223987, Note_off_c, 0, 50, 67
1, 224003, Note_off_c, 0, 53, 68
1, 224010, Note_off_c, 0, 74, 66
1, 224158, Note_on_c, 0, 72, 75
1, 224164, Note_on_c, 0, 62, 59
1, 224178, Note_off_c, 0, 72, 71
1, 224190, Note_on_c, 0, 53, 20
1, 224344, Note_on_c, 0, 74, 76
1, 224346, Note_off_c, 0, 62, 64
1, 224361, Note_off_c, 0, 53, 58
1, 224370, Note_off_c, 0, 74, 79
1, 224530, Note_on_c, 0, 72, 76
1, 224542, Note_on_c, 0, 62, 57
1, 224548, Note_on_c, 0, 55, 48
1, 224550, Note_off_c, 0, 72, 71
1, 224566, Note_off_c, 0, 62, 61
1, 224572, Note_off_c, 0, 55, 64
1, 224703, Note_on_c, 0, 62, 61
1, 224705, Note_on_c, 0, 55, 56
1, 224706, Note_on_c, 0, 71, 76
1, 224727, Note_off_c, 0, 71, 69
1, 224732, Note_off_c, 0, 62, 65
1, 224735, Note_off_c, 0, 55, 66
1, 224754, Note_on_c, 0, 72, 67
1, 224780, Note_off_c, 0, 72, 68
1, 224794, Note_on_c, 0, 71, 71
1, 224837, Note_on_c, 0, 72, 67
1, 224856, Note_off_c, 0, 72, 67
1, 224877, Note_on_c, 0, 62, 65
1, 224887, Note_on_c, 0, 53, 57
1, 224904, Note_off_c, 0, 71, 65
1, 224906, Note_off_c, 0, 62, 67
1, 224912, Note_off_c, 0, 53, 64
1, 224920, Note_on_c, 0, 69, 70
1, 224962, Note_off_c, 0, 69, 61
1, 224966, Note_on_c, 0, 71, 65
1, 225001, Note_off_c, 0, 71, 65
1, 225059, Note_on_c, 0, 64, 68
1, 225071, Note_on_c, 0, 55, 62
1, 225086, Note_off_c, 0, 64, 67
1, 225103, Note_off_c, 0, 55, 67
1, 225266, Note_on_c, 0, 72, 74
1, 225267, Note_on_c, 0, 62, 65
1, 225279, Note_on_c, 0, 53, 48
1, 225288, Note_off_c, 0, 72, 70
1, 225297, Note_off_c, 0, 62, 66
1, 225308, Note_off_c, 0, 53, 55
1, 225455, Note_on_c, 0, 72, 79
1, 225462, Note_on_c, 0, 60, 56
1, 225471, Note_on_c, 0, 52, 47
1, 225476, Note_off_c, 0, 72, 71
1, 225645, Note_on_c, 0, 71, 80
1, 225665, Note_off_c, 0, 71, 72
1, 225829, Note_off_c, 0, 52, 64
1, 225833, Note_off_c, 0, 60, 65
1, 225837, Note_on_c, 0, 72, 81
1, 225866, Note_off_c, 0, 72, 69
1, 226021, Note_on_c, 0, 71, 79
1, 226030, Note_on_c, 0, 62, 58
1, 226037, Note_on_c, 0, 53, 50
1, 226041, Note_off_c, 0, 71, 72
1, 226052, Note_off_c, 0, 62, 64
1, 226063, Note_off_c, 0, 53, 60
1, 226191, Note_on_c, 0, 69, 77
1, 226193, Note_on_c, 0, 62, 67
1, 226208, Note_on_c, 0, 53, 43
1, 226215, Note_off_c, 0, 69, 67
1, 226226, Note_off_c, 0, 62, 63
1, 226233, Note_on_c, 0, 71, 73
1, 226248, Note_off_c, 0, 53, 52
1, 226265, Note_off_c, 0, 71, 66
1, 226291, Note_on_c, 0, 69, 66
1, 226319, Note_off_c, 0, 69, 64
1, 226329, Note_on_c, 0, 71, 61
1, 226350, Note_off_c, 0, 71, 69
1, 226358, Note_on_c, 0, 60, 59
1, 226367, Note_on_c, 0, 69, 60
1, 226370, Note_on_c, 0, 52, 53
1, 226396, Note_off_c, 0, 52, 61
1, 226399, Note_off_c, 0, 69, 62
1, 226419, Note_on_c, 0, 68, 71
1, 226432, Note_off_c, 0, 60, 60
1, 226445, Note_off_c, 0, 68, 65
1, 226468, Note_on_c, 0, 69, 73
1, 226553, Note_on_c, 0, 71, 80
1, 226560, Note_on_c, 0, 62, 70
1, 226571, Note_off_c, 0, 71, 74
1, 226572, Note_on_c, 0, 50, 46
1, 226577, Note_off_c, 0, 69, 38
1, 226587, Note_off_c, 0, 62, 67
1, 226608, Note_off_c, 0, 50, 56
1, 226742, Note_on_c, 0, 69, 79
1, 226747, Note_on_c, 0, 60, 63
1, 226759, Note_on_c, 0, 53, 46
1, 226763, Note_off_c, 0, 69, 70
1, 226774, Note_off_c, 0, 60, 67
1, 226787, Note_off_c, 0, 53, 56
1, 226897, Note_on_c, 0, 68, 78
1, 226908, Note_on_c, 0, 60, 72
1, 226916, Note_on_c, 0, 52, 70
1, 226918, Note_off_c, 0, 68, 68
1, 226935, Note_on_c, 0, 69, 56
1, 226988, Note_off_c, 0, 69, 64
1, 226992, Note_on_c, 0, 68, 80
1, 227025, Note_off_c, 0, 68, 58
1, 227045, Note_off_c, 0, 60, 63
1, 227070, Note_off_c, 0, 52, 53
1, 227077, Note_on_c, 0, 59, 50
1, 227083, Note_on_c, 0, 76, 88
1, 227103, Note_off_c, 0, 59, 57
1, 227135, Note_off_c, 0, 76, 61
1, 227163, Note_on_c, 0, 68, 70
1, 227181, Note_off_c, 0, 68, 65
1, 227271, Note_on_c, 0, 45, 62
1, 227272, Note_on_c, 0, 72, 78
1, 227292, Note_on_c, 0, 60, 50
1, 227307, Note_off_c, 0, 45, 64
1, 227315, Note_off_c, 0, 60, 60
1, 227367, Note_on_c, 0, 68, 68
1, 227373, Note_on_c, 0, 59, 50
1, 227449, Note_off_c, 0, 68, 59
1, 227457, Note_on_c, 0, 66, 62
1, 227461, Note_on_c, 0, 57, 50
1, 227464, Note_off_c, 0, 59, 40
1, 227515, Note_off_c, 0, 57, 59
1, 227520, Note_off_c, 0, 66, 63
1, 227535, Note_on_c, 0, 56, 43
1, 227559, Note_on_c, 0, 64, 52
1, 227601, Note_off_c, 0, 72, 43
1, 227627, Note_off_c, 0, 64, 57
1, 227650, Note_on_c, 0, 69, 65
1, 227657, Note_on_c, 0, 60, 53
1, 227679, Control_c, 0, 64, 14
1, 227694, Control_c, 0, 64, 19
1, 227708, Note_off_c, 0, 56, 65
1, 227709, Control_c, 0, 64, 28
1, 227723, Control_c, 0, 64, 40
1, 227729, Note_off_c, 0, 69, 64
1, 227738, Control_c, 0, 64, 53
1, 227741, Note_on_c, 0, 74, 67
1, 227753, Control_c, 0, 64, 63
1, 227768, Control_c, 0, 64, 71
1, 227780, Note_off_c, 0, 60, 62
1, 227783, Control_c, 0, 64, 77
1, 227798, Control_c, 0, 64, 78
1, 227812, Control_c, 0, 64, 78
1, 227825, Note_on_c, 0, 76, 74
1, 227827, Control_c, 0, 64, 81
1, 227831, Note_off_c, 0, 74, 61
1, 227842, Control_c, 0, 64, 88
1, 227857, Control_c, 0, 64, 101
1, 227872, Control_c, 0, 64, 127
1, 227902, Note_on_c, 0, 77, 80
1, 227922, Note_off_c, 0, 77, 71
1, 227934, Note_off_c, 0, 76, 44
1, 227961, Control_c, 0, 64, 87
1, 227976, Control_c, 0, 64, 57
1, 227991, Control_c, 0, 64, 0
1, 228020, Note_on_c, 0, 71, 63
1, 228033, Note_on_c, 0, 52, 42
1, 228078, Note_off_c, 0, 71, 0
1, 228078, Note_on_c, 0, 71, 25
1, 228108, Note_on_c, 0, 68, 56
1, 228119, Note_on_c, 0, 59, 50
1, 228197, Note_off_c, 0, 68, 58
1, 228204, Note_on_c, 0, 66, 59
1, 228209, Note_off_c, 0, 59, 60
1, 228224, Note_on_c, 0, 57, 51
1, 228257, Note_off_c, 0, 66, 61
1, 228274, Note_on_c, 0, 64, 59
1, 228282, Note_off_c, 0, 57, 56
1, 228283, Note_on_c, 0, 56, 55
1, 228367, Note_off_c, 0, 56, 62
1, 228376, Note_on_c, 0, 68, 71
1, 228380, Note_off_c, 0, 64, 60
1, 228390, Note_off_c, 0, 71, 59
1, 228391, Note_on_c, 0, 59, 62
1, 228401, Note_off_c, 0, 68, 66
1, 228561, Note_on_c, 0, 74, 75
1, 228581, Note_off_c, 0, 74, 72
1, 228686, Note_off_c, 0, 59, 57
1, 228748, Note_on_c, 0, 71, 76
1, 228835, Note_on_c, 0, 68, 65
1, 228872, Note_on_c, 0, 59, 51
1, 228937, Note_on_c, 0, 66, 62
1, 228950, Note_off_c, 0, 68, 54
1, 228958, Note_off_c, 0, 59, 60
1, 228970, Note_on_c, 0, 57, 51
1, 228997, Note_off_c, 0, 66, 63
1, 229008, Note_on_c, 0, 64, 70
1, 229015, Note_off_c, 0, 71, 62
1, 229031, Note_off_c, 0, 57, 56
1, 229032, Note_on_c, 0, 56, 64
1, 229038, Note_off_c, 0, 52, 59
1, 229076, Note_off_c, 0, 56, 67
1, 229108, Note_on_c, 0, 68, 81
1, 229117, Note_off_c, 0, 64, 58
1, 229121, Note_on_c, 0, 59, 54
1, 229155, Note_off_c, 0, 59, 53
1, 229196, Note_off_c, 0, 68, 55
1, 229198, Note_on_c, 0, 72, 78
1, 229279, Note_on_c, 0, 74, 80
1, 229285, Note_off_c, 0, 72, 59
1, 229286, Note_on_c, 0, 56, 62
1, 229302, Note_on_c, 0, 50, 42
1, 229312, Note_off_c, 0, 56, 68
1, 229329, Note_off_c, 0, 50, 59
1, 229379, Note_on_c, 0, 76, 77
1, 229390, Note_off_c, 0, 74, 57
1, 229432, Note_off_c, 0, 76, 65
1, 229458, Note_on_c, 0, 57, 58
1, 229463, Note_on_c, 0, 69, 76
1, 229470, Note_on_c, 0, 64, 63
1, 229474, Note_on_c, 0, 48, 32
1, 229475, Control_c, 0, 64, 26
1, 229489, Note_off_c, 0, 64, 64
1, 229490, Control_c, 0, 64, 41
1, 229505, Control_c, 0, 64, 50
1, 229506, Note_off_c, 0, 69, 62
1, 229519, Control_c, 0, 64, 57
1, 229534, Control_c, 0, 64, 66
1, 229549, Control_c, 0, 64, 95
1, 229563, Control_c, 0, 64, 127
1, 229630, Control_c, 0, 64, 88
1, 229645, Control_c, 0, 64, 62
1, 229646, Note_on_c, 0, 81, 90
1, 229659, Control_c, 0, 64, 29
1, 229667, Note_off_c, 0, 48, 39
1, 229674, Note_off_c, 0, 81, 65
1, 229674, Control_c, 0, 64, 0
1, 229690, Note_off_c, 0, 57, 60
1, 229728, Note_on_c, 0, 49, 55
1, 229774, Note_off_c, 0, 49, 64
1, 229830, Note_on_c, 0, 81, 86
1, 229840, Note_on_c, 0, 69, 70
1, 229841, Note_on_c, 0, 64, 51
1, 229865, Note_off_c, 0, 81, 60
1, 230021, Note_on_c, 0, 79, 73
1, 230022, Note_off_c, 0, 64, 60
1, 230025, Note_on_c, 0, 57, 59
1, 230048, Note_off_c, 0, 79, 63
1, 230191, Note_off_c, 0, 57, 61
1, 230210, Note_on_c, 0, 50, 57
1, 230217, Note_off_c, 0, 69, 58
1, 230220, Note_on_c, 0, 81, 69
1, 230236, Note_off_c, 0, 81, 67
1, 230397, Note_on_c, 0, 79, 81
1, 230407, Note_on_c, 0, 71, 69
1, 230411, Note_on_c, 0, 62, 65
1, 230427, Note_off_c, 0, 79, 56
1, 230430, Note_off_c, 0, 71, 69
1, 230452, Note_off_c, 0, 62, 63
1, 230525, Note_off_c, 0, 50, 61
1, 230570, Note_on_c, 0, 77, 61
1, 230570, Note_on_c, 0, 62, 68
1, 230581, Note_on_c, 0, 71, 47
1, 230588, Note_off_c, 0, 77, 63
1, 230606, Note_on_c, 0, 79, 73
1, 230611, Note_off_c, 0, 71, 61
1, 230629, Note_off_c, 0, 79, 69
1, 230653, Note_on_c, 0, 77, 80
1, 230705, Note_off_c, 0, 77, 61
1, 230712, Note_off_c, 0, 62, 60
1, 230735, Note_on_c, 0, 76, 70
1, 230741, Note_on_c, 0, 69, 61
1, 230748, Note_on_c, 0, 60, 51
1, 230775, Note_off_c, 0, 69, 61
1, 230820, Note_off_c, 0, 76, 62
1, 230820, Note_on_c, 0, 77, 82
1, 230902, Note_off_c, 0, 60, 62
1, 230908, Note_off_c, 0, 77, 60
1, 230922, Note_on_c, 0, 71, 72
1, 230936, Note_on_c, 0, 55, 50
1, 230937, Note_on_c, 0, 62, 57
1, 230945, Note_off_c, 0, 71, 71
1, 231109, Note_off_c, 0, 62, 62
1, 231121, Note_on_c, 0, 79, 73
1, 231126, Note_on_c, 0, 60, 58
1, 231127, Note_on_c, 0, 69, 60
1, 231140, Note_off_c, 0, 79, 67
1, 231147, Note_off_c, 0, 69, 63
1, 231311, Note_on_c, 0, 79, 74
1, 231312, Note_on_c, 0, 59, 63
1, 231312, Note_off_c, 0, 60, 65
1, 231317, Note_on_c, 0, 67, 63
1, 231332, Note_off_c, 0, 79, 69
1, 231356, Note_off_c, 0, 67, 0
1, 231379, Note_on_c, 0, 67, 36
1, 231416, Note_off_c, 0, 67, 0
1, 231416, Note_on_c, 0, 67, 9
1, 231433, Note_off_c, 0, 55, 62
1, 231504, Note_on_c, 0, 77, 71
1, 231529, Note_off_c, 0, 77, 67
1, 231667, Note_off_c, 0, 59, 54
1, 231680, Note_on_c, 0, 79, 79
1, 231688, Note_on_c, 0, 48, 59
1, 231698, Note_off_c, 0, 67, 57
1, 231700, Note_off_c, 0, 79, 69
1, 231875, Note_on_c, 0, 77, 78
1, 231880, Note_on_c, 0, 69, 62
1, 231882, Note_on_c, 0, 60, 63
1, 231896, Note_off_c, 0, 77, 71
1, 231897, Note_off_c, 0, 69, 65
1, 231919, Note_off_c, 0, 60, 59
1, 232020, Note_off_c, 0, 48, 64
1, 232048, Note_on_c, 0, 76, 78
1, 232051, Note_on_c, 0, 60, 64
1, 232066, Note_on_c, 0, 69, 51
1, 232084, Control_c, 0, 64, 30
1, 232099, Control_c, 0, 64, 37
1, 232101, Note_off_c, 0, 60, 63
1, 232105, Note_off_c, 0, 69, 62
1, 232114, Control_c, 0, 64, 45
1, 232128, Control_c, 0, 64, 55
1, 232143, Control_c, 0, 64, 62
1, 232158, Control_c, 0, 64, 68
1, 232172, Control_c, 0, 64, 73
1, 232187, Control_c, 0, 64, 74
1, 232188, Note_off_c, 0, 76, 62
1, 232202, Control_c, 0, 64, 75
1, 232217, Control_c, 0, 64, 78
1, 232230, Note_on_c, 0, 67, 70
1, 232232, Control_c, 0, 64, 85
1, 232235, Note_on_c, 0, 74, 73
1, 232238, Note_on_c, 0, 64, 58
1, 232244, Note_on_c, 0, 58, 59
1, 232246, Control_c, 0, 64, 97
1, 232261, Control_c, 0, 64, 127
1, 232312, Note_off_c, 0, 67, 59
1, 232313, Note_on_c, 0, 72, 85
1, 232335, Control_c, 0, 67, 100
1, 232350, Control_c, 0, 67, 62
1, 232355, Note_off_c, 0, 74, 62
1, 232364, Control_c, 0, 64, 94
1, 232364, Control_c, 0, 67, 24
1, 232379, Control_c, 0, 64, 67
1, 232379, Control_c, 0, 67, 0
1, 232384, Note_off_c, 0, 64, 55
1, 232388, Note_off_c, 0, 58, 57
1, 232394, Control_c, 0, 64, 51
1, 232398, Note_on_c, 0, 79, 85
1, 232402, Note_on_c, 0, 57, 60
1, 232402, Note_off_c, 0, 72, 61
1, 232409, Control_c, 0, 64, 0
1, 232413, Note_on_c, 0, 69, 59
1, 232415, Note_on_c, 0, 60, 59
1, 232423, Note_off_c, 0, 79, 64
1, 232433, Note_off_c, 0, 69, 63
1, 232449, Note_off_c, 0, 57, 57
1, 232595, Note_on_c, 0, 77, 80
1, 232603, Note_on_c, 0, 72, 71
1, 232608, Note_on_c, 0, 57, 62
1, 232632, Note_off_c, 0, 60, 63
1, 232772, Note_on_c, 0, 74, 68
1, 232782, Note_on_c, 0, 59, 74
1, 232788, Note_off_c, 0, 77, 60
1, 232793, Note_off_c, 0, 57, 62
1, 232954, Note_on_c, 0, 76, 88
1, 232955, Note_off_c, 0, 72, 64
1, 232959, Note_off_c, 0, 74, 65
1, 232968, Note_on_c, 0, 67, 72
1, 232970, Note_on_c, 0, 60, 83
1, 232973, Note_off_c, 0, 59, 63
1, 233145, Note_on_c, 0, 53, 83
1, 233145, Note_on_c, 0, 69, 74
1, 233148, Note_off_c, 0, 67, 55
1, 233151, Note_off_c, 0, 60, 66
1, 233204, Note_off_c, 0, 76, 62
1, 233337, Note_on_c, 0, 65, 86
1, 233345, Note_on_c, 0, 74, 83
1, 233354, Note_off_c, 0, 69, 65
1, 233488, Note_off_c, 0, 53, 67
1, 233523, Control_c, 0, 64, 36
1, 233526, Note_on_c, 0, 68, 88
1, 233529, Note_off_c, 0, 74, 65
1, 233538, Control_c, 0, 64, 49
1, 233553, Control_c, 0, 64, 59
1, 233567, Control_c, 0, 64, 68
1, 233582, Control_c, 0, 64, 80
1, 233597, Control_c, 0, 64, 85
1, 233611, Control_c, 0, 64, 85
1, 233626, Control_c, 0, 64, 88
1, 233641, Control_c, 0, 64, 94
1, 233656, Control_c, 0, 64, 107
1, 233671, Control_c, 0, 64, 127
1, 233703, Note_off_c, 0, 65, 60
1, 233710, Note_on_c, 0, 64, 93
1, 233712, Note_on_c, 0, 72, 80
1, 233713, Note_on_c, 0, 67, 82
1, 233732, Note_off_c, 0, 68, 57
1, 233776, Note_off_c, 0, 67, 57
1, 233804, Note_off_c, 0, 72, 58
1, 233871, Note_on_c, 0, 62, 86
1, 233879, Note_off_c, 0, 64, 62
1, 233890, Note_on_c, 0, 72, 83
1, 233890, Note_off_c, 0, 62, 73
1, 233893, Note_on_c, 0, 65, 82
1, 233952, Control_c, 0, 64, 87
1, 233967, Control_c, 0, 64, 64
1, 233977, Note_on_c, 0, 71, 78
1, 233982, Control_c, 0, 64, 41
1, 233997, Control_c, 0, 64, 0
1, 234004, Note_off_c, 0, 72, 58
1, 234007, Note_off_c, 0, 65, 63
1, 234045, Note_on_c, 0, 55, 97
1, 234055, Control_c, 0, 64, 35
1, 234062, Note_off_c, 0, 55, 77
1, 234065, Note_on_c, 0, 69, 85
1, 234070, Control_c, 0, 64, 46
1, 234071, Note_off_c, 0, 71, 66
1, 234092, Control_c, 0, 64, 44
1, 234107, Control_c, 0, 64, 24
1, 234122, Control_c, 0, 64, 0
1, 234148, Note_on_c, 0, 71, 75
1, 234151, Note_off_c, 0, 69, 63
1, 234273, Note_off_c, 0, 71, 64
1, 234277, Note_on_c, 0, 72, 86
1, 234278, Note_on_c, 0, 40, 91
1, 234286, Control_c, 0, 64, 39
1, 234294, Note_on_c, 0, 60, 69
1, 234301, Control_c, 0, 64, 52
1, 234315, Control_c, 0, 64, 62
1, 234325, Note_off_c, 0, 60, 63
1, 234330, Control_c, 0, 64, 68
1, 234345, Control_c, 0, 64, 73
1, 234360, Control_c, 0, 64, 74
1, 234360, Control_c, 0, 67, 9
1, 234361, Note_on_c, 0, 71, 76
1, 234374, Control_c, 0, 64, 72
1, 234374, Control_c, 0, 67, 10
1, 234389, Control_c, 0, 64, 66
1, 234404, Control_c, 0, 64, 54
1, 234419, Control_c, 0, 64, 21
1, 234433, Control_c, 0, 64, 0
1, 234437, Note_on_c, 0, 69, 76
1, 234437, Note_off_c, 0, 72, 61
1, 234472, Note_off_c, 0, 71, 63
1, 234478, Control_c, 0, 64, 14
1, 234493, Control_c, 0, 64, 37
1, 234493, Control_c, 0, 67, 9
1, 234499, Note_on_c, 0, 67, 79
1, 234508, Control_c, 0, 64, 51
1, 234508, Control_c, 0, 67, 9
1, 234522, Control_c, 0, 64, 62
1, 234522, Control_c, 0, 67, 8
1, 234537, Control_c, 0, 64, 71
1, 234543, Note_off_c, 0, 69, 61
1, 234552, Control_c, 0, 64, 78
1, 234567, Control_c, 0, 64, 77
1, 234582, Control_c, 0, 64, 71
1, 234597, Control_c, 0, 64, 61
1, 234600, Note_off_c, 0, 67, 63
1, 234602, Note_on_c, 0, 72, 83
1, 234612, Control_c, 0, 64, 43
1, 234627, Control_c, 0, 64, 0
1, 234671, Control_c, 0, 67, 9
1, 234681, Note_on_c, 0, 41, 83
1, 234696, Note_off_c, 0, 40, 60
1, 234701, Control_c, 0, 64, 23
1, 234715, Control_c, 0, 64, 34
1, 234730, Control_c, 0, 64, 37
1, 234738, Note_on_c, 0, 64, 62
1, 234745, Control_c, 0, 64, 34
1, 234759, Control_c, 0, 64, 23
1, 234769, Note_on_c, 0, 43, 88
1, 234773, Note_off_c, 0, 41, 62
1, 234774, Control_c, 0, 64, 9
1, 234789, Control_c, 0, 64, 0
1, 234819, Control_c, 0, 67, 8
1, 234825, Note_off_c, 0, 64, 59
1, 234857, Note_on_c, 0, 45, 83
1, 234859, Note_off_c, 0, 43, 63
1, 234871, Control_c, 0, 67, 9
1, 234901, Control_c, 0, 67, 9
1, 234911, Note_on_c, 0, 60, 7
1, 234915, Control_c, 0, 67, 10
1, 234936, Note_off_c, 0, 45, 61
1, 234948, Note_on_c, 0, 38, 91
1, 234961, Note_off_c, 0, 60, 33
1, 234989, Control_c, 0, 64, 16
1, 235004, Control_c, 0, 64, 25
1, 235019, Control_c, 0, 64, 21
1, 235033, Control_c, 0, 64, 8
1, 235036, Note_off_c, 0, 72, 57
1, 235039, Note_on_c, 0, 71, 68
1, 235048, Control_c, 0, 64, 0
1, 235048, Control_c, 0, 67, 10
1, 235061, Note_on_c, 0, 69, 29
1, 235079, Control_c, 0, 67, 11
1, 235094, Control_c, 0, 67, 11
1, 235153, Control_c, 0, 67, 10
1, 235168, Control_c, 0, 64, 18
1, 235168, Control_c, 0, 67, 10
1, 235171, Note_off_c, 0, 71, 64
1, 235182, Control_c, 0, 64, 31
1, 235182, Control_c, 0, 67, 9
1, 235185, Note_off_c, 0, 69, 50
1, 235197, Control_c, 0, 64, 43
1, 235202, Note_on_c, 0, 67, 78
1, 235212, Control_c, 0, 64, 56
1, 235212, Control_c, 0, 67, 8
1, 235227, Control_c, 0, 64, 67
1, 235227, Control_c, 0, 67, 8
1, 235242, Control_c, 0, 64, 93
1, 235246, Note_off_c, 0, 67, 63
1, 235256, Control_c, 0, 64, 122
1, 235271, Control_c, 0, 64, 127
1, 235297, Note_on_c, 0, 70, 95
1, 235301, Control_c, 0, 67, 8
1, 235345, Control_c, 0, 64, 96
1, 235345, Control_c, 0, 67, 9
1, 235360, Control_c, 0, 64, 69
1, 235360, Control_c, 0, 67, 10
1, 235375, Control_c, 0, 64, 53
1, 235375, Control_c, 0, 67, 10
1, 235390, Control_c, 0, 64, 0
1, 235390, Control_c, 0, 67, 11
1, 235400, Note_off_c, 0, 38, 36
1, 235405, Control_c, 0, 67, 11
1, 235411, Note_on_c, 0, 65, 64
1, 235420, Control_c, 0, 67, 12
1, 235444, Note_on_c, 0, 43, 91
1, 235470, Note_off_c, 0, 43, 69
1, 235485, Note_on_c, 0, 64, 50
1, 235494, Note_off_c, 0, 65, 63
1, 235551, Note_off_c, 0, 64, 63
1, 235555, Note_on_c, 0, 62, 68
1, 235569, Control_c, 0, 67, 13
1, 235629, Note_off_c, 0, 70, 58
1, 235641, Note_on_c, 0, 38, 88
1, 235694, Control_c, 0, 67, 12
1, 235709, Control_c, 0, 64, 28
1, 235724, Control_c, 0, 64, 48
1, 235727, Note_on_c, 0, 70, 86
1, 235739, Control_c, 0, 64, 57
1, 235753, Note_off_c, 0, 62, 53
1, 235754, Control_c, 0, 64, 63
1, 235768, Control_c, 0, 64, 71
1, 235783, Control_c, 0, 64, 84
1, 235784, Note_off_c, 0, 70, 62
1, 235798, Control_c, 0, 64, 90
1, 235813, Control_c, 0, 64, 90
1, 235815, Note_on_c, 0, 69, 61
1, 235828, Control_c, 0, 64, 91
1, 235828, Control_c, 0, 67, 11
1, 235843, Control_c, 0, 64, 93
1, 235843, Control_c, 0, 67, 11
1, 235858, Control_c, 0, 64, 95
1, 235873, Control_c, 0, 64, 98
1, 235873, Control_c, 0, 67, 10
1, 235888, Control_c, 0, 64, 100
1, 235893, Note_on_c, 0, 67, 74
1, 235896, Note_off_c, 0, 69, 60
1, 235903, Control_c, 0, 64, 105
1, 235903, Control_c, 0, 67, 10
1, 235917, Control_c, 0, 64, 119
1, 235932, Control_c, 0, 64, 127
1, 235932, Control_c, 0, 67, 9
1, 235949, Note_off_c, 0, 67, 61
1, 235962, Control_c, 0, 67, 9
1, 235992, Control_c, 0, 67, 8
1, 236001, Note_off_c, 0, 38, 58
1, 236006, Control_c, 0, 67, 9
1, 236013, Note_on_c, 0, 40, 75
1, 236021, Control_c, 0, 67, 10
1, 236036, Control_c, 0, 67, 10
1, 236037, Note_on_c, 0, 69, 65
1, 236051, Control_c, 0, 67, 11
1, 236066, Control_c, 0, 64, 86
1, 236066, Control_c, 0, 67, 12
1, 236080, Control_c, 0, 64, 69
1, 236083, Note_off_c, 0, 69, 66
1, 236095, Control_c, 0, 64, 51
1, 236110, Control_c, 0, 64, 0
1, 236112, Note_on_c, 0, 41, 64
1, 236119, Note_off_c, 0, 40, 59
1, 236125, Control_c, 0, 67, 12
1, 236154, Control_c, 0, 67, 12
1, 236168, Note_on_c, 0, 70, 62
1, 236169, Control_c, 0, 67, 11
1, 236179, Note_on_c, 0, 43, 84
1, 236183, Note_off_c, 0, 41, 64
1, 236184, Control_c, 0, 67, 11
1, 236199, Control_c, 0, 67, 10
1, 236213, Control_c, 0, 64, 45
1, 236228, Control_c, 0, 64, 58
1, 236242, Note_off_c, 0, 70, 59
1, 236243, Control_c, 0, 64, 68
1, 236258, Control_c, 0, 64, 83
1, 236273, Control_c, 0, 64, 127
1, 236273, Control_c, 0, 67, 11
1, 236278, Note_on_c, 0, 36, 86
1, 236283, Note_off_c, 0, 43, 60
1, 236287, Control_c, 0, 67, 11
1, 236334, Note_off_c, 0, 36, 64
1, 236339, Control_c, 0, 64, 103
1, 236339, Control_c, 0, 67, 12
1, 236351, Note_on_c, 0, 69, 73
1, 236354, Control_c, 0, 64, 78
1, 236369, Control_c, 0, 64, 65
1, 236369, Control_c, 0, 67, 13
1, 236384, Control_c, 0, 64, 50
1, 236399, Control_c, 0, 64, 13
1, 236399, Control_c, 0, 67, 13
1, 236413, Control_c, 0, 64, 0
1, 236413, Control_c, 0, 67, 14
1, 236448, Note_on_c, 0, 67, 66
1, 236454, Note_on_c, 0, 46, 79
1, 236478, Note_off_c, 0, 46, 69
1, 236489, Note_off_c, 0, 69, 64
1, 236525, Note_on_c, 0, 65, 75
1, 236543, Note_off_c, 0, 67, 56
1, 236561, Control_c, 0, 67, 13
1, 236576, Control_c, 0, 67, 13
1, 236591, Control_c, 0, 67, 12
1, 236606, Control_c, 0, 67, 12
1, 236618, Note_off_c, 0, 65, 66
1, 236621, Control_c, 0, 64, 39
1, 236621, Control_c, 0, 67, 11
1, 236623, Note_on_c, 0, 64, 80
1, 236628, Note_on_c, 0, 60, 73
1, 236630, Note_on_c, 0, 46, 92
1, 236636, Control_c, 0, 64, 52
1, 236651, Control_c, 0, 64, 60
1, 236651, Control_c, 0, 67, 12
1, 236654, Note_off_c, 0, 60, 69
1, 236658, Note_off_c, 0, 64, 59
1, 236666, Control_c, 0, 64, 62
1, 236681, Control_c, 0, 64, 61
1, 236681, Control_c, 0, 67, 12
1, 236696, Control_c, 0, 64, 56
1, 236710, Control_c, 0, 64, 40
1, 236725, Control_c, 0, 64, 0
1, 236740, Control_c, 0, 67, 12
1, 236755, Control_c, 0, 67, 11
1, 236770, Control_c, 0, 67, 10
1, 236788, Note_off_c, 0, 46, 63
1, 236812, Note_on_c, 0, 72, 84
1, 236815, Note_on_c, 0, 65, 74
1, 236821, Note_on_c, 0, 45, 82
1, 236837, Note_off_c, 0, 65, 70
1, 236901, Note_off_c, 0, 45, 64
1, 236904, Note_off_c, 0, 72, 51
1, 236985, Note_on_c, 0, 43, 84
1, 236994, Note_on_c, 0, 62, 83
1, 236994, Note_on_c, 0, 72, 88
1, 237007, Control_c, 0, 67, 11
1, 237022, Control_c, 0, 67, 11
1, 237033, Note_off_c, 0, 43, 58
1, 237043, Note_on_c, 0, 45, 73
1, 237129, Note_off_c, 0, 45, 63
1, 237133, Control_c, 0, 67, 11
1, 237134, Note_on_c, 0, 43, 76
1, 237148, Control_c, 0, 67, 10
1, 237162, Control_c, 0, 67, 10
1, 237177, Note_on_c, 0, 70, 67
1, 237177, Control_c, 0, 67, 9
1, 237178, Note_on_c, 0, 64, 54
1, 237181, Note_off_c, 0, 72, 63
1, 237190, Note_off_c, 0, 43, 64
1, 237192, Note_on_c, 0, 41, 73
1, 237192, Control_c, 0, 64, 34
1, 237192, Control_c, 0, 67, 8
1, 237194, Note_off_c, 0, 62, 62
1, 237202, Note_off_c, 0, 70, 56
1, 237203, Note_off_c, 0, 64, 57
1, 237207, Control_c, 0, 64, 48
1, 237207, Control_c, 0, 67, 8
1, 237222, Control_c, 0, 64, 57
1, 237236, Control_c, 0, 64, 64
1, 237236, Control_c, 0, 67, 8
1, 237249, Note_on_c, 0, 43, 81
1, 237251, Control_c, 0, 64, 81
1, 237251, Control_c, 0, 67, 9
1, 237256, Note_off_c, 0, 41, 65
1, 237266, Control_c, 0, 64, 115
1, 237266, Control_c, 0, 67, 10
1, 237281, Control_c, 0, 64, 127
1, 237281, Control_c, 0, 67, 10
1, 237299, Note_on_c, 0, 62, 56
1, 237310, Control_c, 0, 64, 97
1, 237310, Control_c, 0, 67, 11
1, 237325, Control_c, 0, 64, 73
1, 237325, Control_c, 0, 67, 11
1, 237340, Control_c, 0, 64, 54
1, 237355, Control_c, 0, 64, 0
1, 237355, Control_c, 0, 67, 12
1, 237364, Note_on_c, 0, 70, 86
1, 237366, Note_off_c, 0, 43, 61
1, 237366, Note_on_c, 0, 61, 84
1, 237369, Control_c, 0, 67, 12
1, 237375, Note_on_c, 0, 45, 86
1, 237378, Note_off_c, 0, 62, 63
1, 237414, Control_c, 0, 64, 28
1, 237424, Note_off_c, 0, 61, 63
1, 237429, Control_c, 0, 64, 53
1, 237429, Control_c, 0, 67, 13
1, 237432, Note_on_c, 0, 62, 69
1, 237444, Control_c, 0, 64, 66
1, 237444, Control_c, 0, 67, 14
1, 237459, Control_c, 0, 64, 86
1, 237459, Control_c, 0, 67, 15
1, 237474, Control_c, 0, 64, 90
1, 237482, Note_off_c, 0, 70, 57
1, 237489, Control_c, 0, 64, 72
1, 237504, Control_c, 0, 64, 56
1, 237512, Note_off_c, 0, 62, 59
1, 237519, Control_c, 0, 64, 12
1, 237528, Note_off_c, 0, 45, 56
1, 237533, Control_c, 0, 64, 0
1, 237534, Note_on_c, 0, 69, 75
1, 237548, Control_c, 0, 67, 14
1, 237551, Note_on_c, 0, 43, 74
1, 237563, Control_c, 0, 67, 13
1, 237578, Note_on_c, 0, 41, 36
1, 237579, Note_off_c, 0, 41, 127
1, 237579, Control_c, 0, 64, 31
1, 237579, Control_c, 0, 67, 13
1, 237593, Control_c, 0, 64, 50
1, 237596, Note_on_c, 0, 59, 51
1, 237608, Control_c, 0, 64, 65
1, 237618, Note_off_c, 0, 69, 61
1, 237623, Control_c, 0, 64, 127
1, 237637, Note_on_c, 0, 61, 74
1, 237667, Note_off_c, 0, 59, 37
1, 237677, Note_off_c, 0, 61, 68
1, 237682, Control_c, 0, 64, 104
1, 237697, Control_c, 0, 64, 72
1, 237712, Control_c, 0, 64, 52
1, 237715, Note_off_c, 0, 43, 59
1, 237721, Note_on_c, 0, 41, 58
1, 237721, Note_on_c, 0, 69, 87
1, 237726, Control_c, 0, 64, 0
1, 237727, Note_on_c, 0, 62, 78
1, 237741, Control_c, 0, 67, 12
1, 237771, Control_c, 0, 67, 13
1, 237785, Control_c, 0, 67, 13
1, 237799, Control_c, 0, 67, 15
1, 237814, Control_c, 0, 67, 15
1, 237837, Control_c, 0, 67, 16
1, 237852, Control_c, 0, 67, 16
1, 237866, Control_c, 0, 67, 17
1, 237881, Control_c, 0, 67, 17
1, 237896, Control_c, 0, 67, 19
1, 237910, Control_c, 0, 67, 22
1, 237924, Note_off_c, 0, 62, 58
1, 237925, Control_c, 0, 67, 27
1, 237927, Note_off_c, 0, 41, 57
1, 237927, Note_on_c, 0, 64, 72
1, 237931, Note_off_c, 0, 69, 59
1, 237940, Control_c, 0, 67, 35
1, 237942, Note_on_c, 0, 40, 55
1, 237955, Control_c, 0, 67, 49
1, 237970, Control_c, 0, 67, 66
1, 237984, Control_c, 0, 67, 85
1, 237997, Note_off_c, 0, 40, 63
1, 237999, Control_c, 0, 67, 105
1, 238003, Note_off_c, 0, 64, 62
1, 238010, Note_on_c, 0, 65, 63
1, 238014, Control_c, 0, 67, 123
1, 238029, Note_on_c, 0, 38, 43
1, 238029, Control_c, 0, 67, 127
1, 238043, Note_off_c, 0, 65, 64
1, 238064, Note_off_c, 0, 38, 55
1, 238140, Note_on_c, 0, 69, 50
1, 238143, Note_on_c, 0, 46, 31
1, 238153, Note_on_c, 0, 62, 39
1, 238296, Control_c, 0, 64, 18
1, 238311, Control_c, 0, 64, 22
1, 238325, Note_on_c, 0, 67, 63
1, 238326, Control_c, 0, 64, 29
1, 238338, Note_off_c, 0, 69, 60
1, 238341, Control_c, 0, 64, 37
1, 238356, Control_c, 0, 64, 47
1, 238371, Control_c, 0, 64, 56
1, 238371, Control_c, 0, 67, 120
1, 238386, Control_c, 0, 64, 62
1, 238386, Control_c, 0, 67, 111
1, 238400, Control_c, 0, 64, 65
1, 238400, Control_c, 0, 67, 105
1, 238415, Control_c, 0, 64, 66
1, 238415, Control_c, 0, 67, 99
1, 238430, Control_c, 0, 64, 67
1, 238430, Control_c, 0, 67, 92
1, 238443, Note_off_c, 0, 67, 58
1, 238445, Control_c, 0, 64, 68
1, 238445, Control_c, 0, 67, 84
1, 238460, Control_c, 0, 64, 70
1, 238460, Control_c, 0, 67, 78
1, 238474, Control_c, 0, 64, 72
1, 238474, Control_c, 0, 67, 75
1, 238489, Control_c, 0, 64, 72
1, 238489, Control_c, 0, 67, 74
1, 238504, Control_c, 0, 67, 72
1, 238517, Note_on_c, 0, 67, 73
1, 238519, Control_c, 0, 64, 71
1, 238519, Control_c, 0, 67, 68
1, 238529, Note_off_c, 0, 62, 61
1, 238533, Control_c, 0, 64, 68
1, 238533, Control_c, 0, 67, 61
1, 238548, Control_c, 0, 64, 66
1, 238548, Control_c, 0, 67, 51
1, 238563, Control_c, 0, 67, 42
1, 238585, Control_c, 0, 67, 36
1, 238600, Control_c, 0, 64, 68
1, 238600, Control_c, 0, 67, 33
1, 238615, Control_c, 0, 64, 70
1, 238615, Control_c, 0, 67, 29
1, 238630, Control_c, 0, 64, 72
1, 238630, Control_c, 0, 67, 25
1, 238645, Control_c, 0, 64, 74
1, 238645, Control_c, 0, 67, 21
1, 238660, Control_c, 0, 67, 17
1, 238675, Control_c, 0, 67, 14
1, 238689, Control_c, 0, 64, 72
1, 238689, Control_c, 0, 67, 12
1, 238699, Note_off_c, 0, 67, 59
1, 238704, Control_c, 0, 64, 68
1, 238704, Control_c, 0, 67, 10
1, 238706, Note_on_c, 0, 65, 77
1, 238714, Note_on_c, 0, 45, 62
1, 238719, Control_c, 0, 64, 63
1, 238719, Control_c, 0, 67, 0
1, 238723, Note_on_c, 0, 60, 64
1, 238733, Control_c, 0, 64, 55
1, 238744, Note_off_c, 0, 46, 40
1, 238748, Control_c, 0, 64, 40
1, 238763, Control_c, 0, 64, 14
1, 238778, Control_c, 0, 64, 0
1, 238803, Note_off_c, 0, 60, 62
1, 238807, Control_c, 0, 64, 20
1, 238822, Control_c, 0, 64, 35
1, 238837, Control_c, 0, 64, 46
1, 238844, Note_off_c, 0, 65, 62
1, 238852, Control_c, 0, 64, 55
1, 238867, Control_c, 0, 64, 61
1, 238881, Control_c, 0, 64, 63
1, 238896, Control_c, 0, 64, 64
1, 238898, Note_on_c, 0, 43, 78
1, 238903, Note_on_c, 0, 65, 81
1, 238911, Control_c, 0, 64, 63
1, 238912, Note_on_c, 0, 58, 76
1, 238915, Note_off_c, 0, 45, 62
1, 238925, Control_c, 0, 64, 59
1, 238940, Control_c, 0, 64, 49
1, 238955, Control_c, 0, 64, 20
1, 238970, Control_c, 0, 64, 0
1, 239100, Note_on_c, 0, 64, 87
1, 239107, Note_off_c, 0, 65, 43
1, 239131, Note_off_c, 0, 58, 60
1, 239139, Note_on_c, 0, 63, 27
1, 239140, Note_off_c, 0, 63, 127
1, 239179, Control_c, 0, 64, 37
1, 239194, Control_c, 0, 64, 54
1, 239208, Control_c, 0, 64, 66
1, 239223, Control_c, 0, 64, 83
1, 239228, Note_off_c, 0, 64, 60
1, 239238, Control_c, 0, 64, 111
1, 239253, Control_c, 0, 64, 127
1, 239268, Control_c, 0, 64, 114
1, 239283, Control_c, 0, 64, 86
1, 239288, Note_on_c, 0, 64, 92
1, 239295, Note_on_c, 0, 57, 80
1, 239298, Control_c, 0, 64, 67
1, 239300, Note_on_c, 0, 41, 79
1, 239313, Control_c, 0, 64, 54
1, 239315, Note_off_c, 0, 43, 61
1, 239335, Control_c, 0, 64, 23
1, 239350, Control_c, 0, 64, 0
1, 239474, Note_off_c, 0, 57, 50
1, 239483, Control_c, 0, 67, 8
1, 239488, Note_on_c, 0, 62, 83
1, 239512, Control_c, 0, 64, 20
1, 239512, Control_c, 0, 67, 8
1, 239527, Control_c, 0, 64, 37
1, 239542, Control_c, 0, 64, 47
1, 239542, Control_c, 0, 67, 9
1, 239551, Note_off_c, 0, 64, 54
1, 239557, Control_c, 0, 64, 55
1, 239564, Note_on_c, 0, 60, 88
1, 239572, Control_c, 0, 64, 65
1, 239587, Control_c, 0, 64, 97
1, 239587, Control_c, 0, 67, 8
1, 239602, Note_off_c, 0, 62, 52
1, 239602, Control_c, 0, 64, 127
1, 239602, Control_c, 0, 67, 8
1, 239602, Note_off_c, 0, 60, 69
1, 239676, Control_c, 0, 67, 8
1, 239679, Note_on_c, 0, 40, 84
1, 239683, Note_on_c, 0, 72, 89
1, 239691, Control_c, 0, 64, 62
1, 239691, Control_c, 0, 67, 9
1, 239694, Note_off_c, 0, 41, 63
1, 239703, Note_off_c, 0, 40, 66
1, 239705, Control_c, 0, 64, 14
1, 239720, Control_c, 0, 64, 0
1, 239735, Control_c, 0, 67, 10
1, 239749, Control_c, 0, 67, 11
1, 239764, Control_c, 0, 67, 10
1, 239794, Control_c, 0, 67, 10
1, 239861, Note_on_c, 0, 69, 78
1, 239867, Note_on_c, 0, 60, 76
1, 239873, Note_on_c, 0, 52, 72
1, 239889, Note_off_c, 0, 60, 71
1, 239891, Note_off_c, 0, 69, 66
1, 239894, Note_off_c, 0, 52, 66
1, 239899, Control_c, 0, 67, 9
1, 239914, Control_c, 0, 67, 10
1, 239943, Control_c, 0, 67, 10
1, 239973, Control_c, 0, 67, 10
1, 240061, Control_c, 0, 67, 9
1, 240063, Note_on_c, 0, 60, 78
1, 240067, Note_on_c, 0, 69, 85
1, 240070, Note_on_c, 0, 51, 70
1, 240084, Control_c, 0, 67, 9
1, 240129, Control_c, 0, 67, 8
1, 240143, Control_c, 0, 67, 0
1, 240158, Control_c, 0, 64, 36
1, 240173, Control_c, 0, 64, 46
1, 240187, Control_c, 0, 64, 53
1, 240202, Control_c, 0, 64, 58
1, 240217, Control_c, 0, 64, 63
1, 240232, Control_c, 0, 64, 69
1, 240247, Control_c, 0, 64, 76
1, 240252, Note_on_c, 0, 67, 90
1, 240254, Note_off_c, 0, 60, 66
1, 240255, Note_on_c, 0, 58, 74
1, 240261, Note_off_c, 0, 69, 63
1, 240261, Control_c, 0, 64, 82
1, 240270, Note_off_c, 0, 51, 55
1, 240276, Control_c, 0, 64, 88
1, 240282, Note_off_c, 0, 58, 65
1, 240291, Control_c, 0, 64, 95
1, 240305, Control_c, 0, 64, 115
1, 240308, Note_off_c, 0, 67, 60
1, 240320, Control_c, 0, 64, 127
1, 240395, Control_c, 0, 64, 96
1, 240410, Control_c, 0, 64, 70
1, 240425, Control_c, 0, 64, 56
1, 240440, Control_c, 0, 64, 18
1, 240440, Note_on_c, 0, 74, 93
1, 240448, Note_on_c, 0, 50, 46
1, 240451, Note_on_c, 0, 58, 89
1, 240451, Note_on_c, 0, 67, 78
1, 240454, Control_c, 0, 64, 0
1, 240468, Note_off_c, 0, 72, 62
1, 240471, Note_off_c, 0, 67, 70
1, 240513, Control_c, 0, 64, 35
1, 240528, Control_c, 0, 64, 52
1, 240543, Control_c, 0, 64, 68
1, 240558, Control_c, 0, 64, 127
1, 240576, Note_off_c, 0, 58, 64
1, 240602, Control_c, 0, 64, 111
1, 240617, Control_c, 0, 64, 68
1, 240627, Note_on_c, 0, 57, 82
1, 240629, Note_on_c, 0, 66, 90
1, 240632, Control_c, 0, 64, 49
1, 240648, Control_c, 0, 64, 0
1, 240651, Note_off_c, 0, 57, 70
1, 240667, Note_off_c, 0, 50, 37
1, 240699, Note_off_c, 0, 66, 60
1, 240818, Note_on_c, 0, 66, 91
1, 240830, Note_on_c, 0, 57, 90
1, 240837, Note_on_c, 0, 48, 74
1, 240891, Note_off_c, 0, 74, 60
1, 240923, Note_off_c, 0, 48, 60
1, 240973, Note_off_c, 0, 66, 60
1, 240979, Control_c, 0, 64, 31
1, 240994, Control_c, 0, 64, 41
1, 241003, Note_on_c, 0, 64, 79
1, 241009, Note_on_c, 0, 55, 81
1, 241009, Control_c, 0, 64, 48
1, 241015, Note_off_c, 0, 57, 60
1, 241024, Control_c, 0, 64, 54
1, 241039, Control_c, 0, 64, 61
1, 241054, Control_c, 0, 64, 70
1, 241069, Control_c, 0, 64, 89
1, 241074, Note_off_c, 0, 64, 62
1, 241083, Control_c, 0, 64, 101
1, 241086, Note_on_c, 0, 54, 94
1, 241089, Note_on_c, 0, 62, 77
1, 241098, Note_off_c, 0, 55, 66
1, 241098, Control_c, 0, 64, 109
1, 241110, Note_off_c, 0, 62, 68
1, 241113, Control_c, 0, 64, 113
1, 241127, Control_c, 0, 64, 114
1, 241134, Note_off_c, 0, 54, 65
1, 241157, Control_c, 0, 64, 105
1, 241172, Control_c, 0, 64, 91
1, 241187, Control_c, 0, 64, 79
1, 241201, Control_c, 0, 64, 68
1, 241216, Control_c, 0, 64, 59
1, 241229, Note_on_c, 0, 74, 99
1, 241231, Control_c, 0, 64, 39
1, 241231, Control_c, 0, 67, 8
1, 241234, Note_on_c, 0, 67, 88
1, 241236, Note_on_c, 0, 58, 92
1, 241246, Control_c, 0, 64, 0
1, 241246, Control_c, 0, 67, 8
1, 241252, Note_on_c, 0, 46, 69
1, 241290, Control_c, 0, 67, 8
1, 241334, Control_c, 0, 64, 14
1, 241349, Control_c, 0, 64, 31
1, 241363, Note_off_c, 0, 67, 59
1, 241364, Control_c, 0, 64, 41
1, 241379, Control_c, 0, 64, 51
1, 241393, Control_c, 0, 64, 60
1, 241408, Control_c, 0, 64, 67
1, 241415, Note_on_c, 0, 79, 96
1, 241423, Control_c, 0, 64, 75
1, 241426, Note_off_c, 0, 74, 70
1, 241432, Note_off_c, 0, 58, 60
1, 241438, Control_c, 0, 64, 79
1, 241446, Note_off_c, 0, 79, 67
1, 241454, Control_c, 0, 64, 79
1, 241469, Control_c, 0, 64, 81
1, 241469, Control_c, 0, 67, 0
1, 241484, Control_c, 0, 64, 84
1, 241498, Control_c, 0, 64, 88
1, 241513, Control_c, 0, 64, 90
1, 241557, Control_c, 0, 64, 86
1, 241560, Note_off_c, 0, 46, 36
1, 241580, Control_c, 0, 64, 77
1, 241595, Control_c, 0, 64, 65
1, 241610, Control_c, 0, 64, 52
1, 241613, Note_on_c, 0, 45, 76
1, 241615, Note_on_c, 0, 79, 97
1, 241622, Note_on_c, 0, 72, 83
1, 241624, Control_c, 0, 64, 15
1, 241639, Control_c, 0, 64, 0
1, 241741, Note_off_c, 0, 72, 62
1, 241743, Control_c, 0, 64, 26
1, 241757, Control_c, 0, 64, 33
1, 241772, Control_c, 0, 64, 39
1, 241787, Control_c, 0, 64, 47
1, 241791, Note_on_c, 0, 77, 98
1, 241792, Note_on_c, 0, 74, 83
1, 241794, Note_off_c, 0, 45, 64
1, 241802, Note_on_c, 0, 46, 71
1, 241802, Control_c, 0, 64, 58
1, 241805, Note_off_c, 0, 79, 64
1, 241817, Control_c, 0, 64, 67
1, 241826, Note_off_c, 0, 74, 62
1, 241832, Control_c, 0, 64, 81
1, 241835, Note_off_c, 0, 46, 68
1, 241847, Control_c, 0, 64, 90
1, 241861, Note_off_c, 0, 77, 59
1, 241861, Control_c, 0, 64, 95
1, 241876, Control_c, 0, 64, 102
1, 241891, Control_c, 0, 64, 122
1, 241906, Control_c, 0, 64, 127
1, 241950, Control_c, 0, 64, 94
1, 241965, Control_c, 0, 64, 72
1, 241979, Note_on_c, 0, 48, 83
1, 241980, Control_c, 0, 64, 57
1, 241983, Note_on_c, 0, 77, 97
1, 241987, Note_on_c, 0, 69, 91
1, 241995, Control_c, 0, 64, 21
1, 242010, Control_c, 0, 64, 0
1, 242069, Control_c, 0, 64, 28
1, 242083, Control_c, 0, 64, 40
1, 242098, Note_off_c, 0, 69, 63
1, 242098, Control_c, 0, 64, 49
1, 242113, Control_c, 0, 64, 57
1, 242128, Control_c, 0, 64, 61
1, 242143, Control_c, 0, 64, 64
1, 242146, Note_off_c, 0, 77, 58
1, 242157, Note_off_c, 0, 48, 62
1, 242157, Control_c, 0, 64, 65
1, 242172, Control_c, 0, 64, 68
1, 242174, Note_on_c, 0, 76, 92
1, 242180, Note_on_c, 0, 67, 93
1, 242185, Note_on_c, 0, 58, 86
1, 242187, Control_c, 0, 64, 75
1, 242202, Control_c, 0, 64, 92
1, 242207, Note_off_c, 0, 58, 67
1, 242216, Control_c, 0, 64, 127
1, 242219, Note_off_c, 0, 67, 65
1, 242234, Note_off_c, 0, 76, 65
1, 242293, Control_c, 0, 64, 85
1, 242308, Control_c, 0, 64, 62
1, 242329, Control_c, 0, 64, 41
1, 242344, Control_c, 0, 64, 0
1, 242359, Control_c, 0, 67, 8
1, 242363, Note_on_c, 0, 46, 83
1, 242365, Note_on_c, 0, 76, 92
1, 242366, Note_on_c, 0, 58, 88
1, 242368, Note_on_c, 0, 67, 91
1, 242389, Control_c, 0, 67, 9
1, 242404, Control_c, 0, 64, 37
1, 242419, Control_c, 0, 64, 48
1, 242419, Control_c, 0, 67, 10
1, 242430, Note_off_c, 0, 46, 63
1, 242434, Control_c, 0, 64, 58
1, 242437, Note_off_c, 0, 67, 58
1, 242448, Control_c, 0, 64, 64
1, 242448, Control_c, 0, 67, 10
1, 242463, Control_c, 0, 64, 70
1, 242469, Note_off_c, 0, 76, 64
1, 242478, Note_off_c, 0, 58, 63
1, 242478, Control_c, 0, 64, 71
1, 242478, Control_c, 0, 67, 10
1, 242507, Control_c, 0, 64, 72
1, 242507, Control_c, 0, 67, 9
1, 242522, Control_c, 0, 64, 73
1, 242522, Control_c, 0, 67, 9
1, 242537, Control_c, 0, 64, 76
1, 242546, Note_on_c, 0, 74, 85
1, 242549, Note_on_c, 0, 57, 71
1, 242549, Note_on_c, 0, 65, 84
1, 242552, Control_c, 0, 64, 78
1, 242552, Control_c, 0, 67, 8
1, 242567, Control_c, 0, 64, 79
1, 242567, Control_c, 0, 67, 0
1, 242572, Note_off_c, 0, 65, 68
1, 242581, Control_c, 0, 64, 75
1, 242589, Note_off_c, 0, 74, 64
1, 242596, Control_c, 0, 64, 64
1, 242611, Control_c, 0, 64, 51
1, 242619, Note_on_c, 0, 55, 86
1, 242625, Note_off_c, 0, 57, 62
1, 242626, Control_c, 0, 64, 34
1, 242628, Note_on_c, 0, 72, 88
1, 242641, Control_c, 0, 64, 37
1, 242655, Control_c, 0, 64, 54
1, 242656, Note_on_c, 0, 74, 27
1, 242664, Note_off_c, 0, 55, 65
1, 242670, Control_c, 0, 64, 77
1, 242684, Note_off_c, 0, 72, 65
1, 242684, Note_off_c, 0, 74, 32
1, 242685, Control_c, 0, 64, 127
1, 242729, Control_c, 0, 64, 92
1, 242730, Note_on_c, 0, 77, 98
1, 242740, Note_on_c, 0, 57, 66
1, 242742, Note_on_c, 0, 45, 75
1, 242744, Control_c, 0, 64, 62
1, 242756, Note_off_c, 0, 77, 63
1, 242756, Note_off_c, 0, 57, 65
1, 242759, Control_c, 0, 64, 35
1, 242761, Note_off_c, 0, 45, 66
1, 242774, Control_c, 0, 64, 0
1, 242912, Note_on_c, 0, 72, 90
1, 242917, Note_on_c, 0, 60, 85
1, 242918, Note_on_c, 0, 40, 70
1, 242919, Note_on_c, 0, 67, 80
1, 242937, Control_c, 0, 64, 22
1, 242940, Note_off_c, 0, 60, 67
1, 242967, Control_c, 0, 64, 0
1, 242988, Note_on_c, 0, 70, 89
1, 242993, Note_off_c, 0, 72, 60
1, 243019, Note_off_c, 0, 67, 64
1, 243028, Note_off_c, 0, 70, 67
1, 243048, Note_off_c, 0, 40, 62
1, 243048, Note_on_c, 0, 60, 9
1, 243090, Note_on_c, 0, 41, 76
1, 243090, Note_off_c, 0, 60, 0
1, 243090, Note_on_c, 0, 60, 72
1, 243090, Note_on_c, 0, 69, 95
1, 243113, Note_on_c, 0, 65, 54
1, 243122, Control_c, 0, 64, 25
1, 243129, Note_off_c, 0, 60, 65
1, 243134, Note_off_c, 0, 69, 65
1, 243137, Control_c, 0, 64, 35
1, 243138, Note_off_c, 0, 65, 38
1, 243152, Control_c, 0, 64, 12
1, 243167, Control_c, 0, 64, 0
1, 243243, Note_on_c, 0, 62, 29
1, 243270, Note_on_c, 0, 67, 89
1, 243277, Note_on_c, 0, 46, 87
1, 243282, Note_on_c, 0, 58, 73
1, 243287, Note_off_c, 0, 41, 63
1, 243301, Control_c, 0, 64, 17
1, 243310, Note_off_c, 0, 58, 64
1, 243316, Control_c, 0, 64, 0
1, 243317, Note_off_c, 0, 62, 61
1, 243347, Note_off_c, 0, 67, 60
1, 243349, Note_on_c, 0, 65, 84
1, 243379, Note_on_c, 0, 58, 20
1, 243402, Note_off_c, 0, 65, 67
1, 243414, Note_off_c, 0, 58, 30
1, 243439, Note_off_c, 0, 46, 59
1, 243450, Note_on_c, 0, 64, 86
1, 243458, Note_on_c, 0, 70, 77
1, 243465, Note_on_c, 0, 43, 78
1, 243537, Note_off_c, 0, 70, 62
1, 243538, Note_on_c, 0, 62, 88
1, 243568, Note_off_c, 0, 64, 60
1, 243635, Note_off_c, 0, 62, 64
1, 243638, Note_on_c, 0, 67, 82
1, 243645, Note_on_c, 0, 61, 81
1, 243657, Note_off_c, 0, 43, 61
1, 243659, Note_on_c, 0, 46, 90
1, 243689, Note_off_c, 0, 61, 59
1, 243722, Note_on_c, 0, 62, 89
1, 243763, Note_off_c, 0, 67, 58
1, 243836, Note_off_c, 0, 46, 64
1, 243838, Note_on_c, 0, 64, 75
1, 243844, Note_on_c, 0, 61, 72
1, 243850, Note_on_c, 0, 45, 91
1, 243858, Note_off_c, 0, 62, 59
1, 243912, Note_off_c, 0, 61, 65
1, 244042, Note_on_c, 0, 50, 97
1, 244046, Note_off_c, 0, 64, 59
1, 244052, Note_off_c, 0, 45, 59
1, 244058, Note_on_c, 0, 69, 72
1, 244066, Note_on_c, 0, 41, 51
1, 244070, Note_off_c, 0, 50, 70
1, 244101, Note_off_c, 0, 41, 36
1, 244108, Note_off_c, 0, 69, 48
1, 244286, Note_on_c, 0, 47, 94
1, 244309, Note_on_c, 0, 69, 53
1, 244319, Note_on_c, 0, 40, 61
1, 244394, Note_off_c, 0, 69, 60
1, 244404, Note_on_c, 0, 68, 56
1, 244489, Note_off_c, 0, 68, 57
1, 244504, Note_on_c, 0, 66, 48
1, 244583, Note_on_c, 0, 64, 44
1, 244604, Control_c, 0, 64, 21
1, 244619, Control_c, 0, 64, 40
1, 244634, Control_c, 0, 64, 46
1, 244649, Control_c, 0, 64, 48
1, 244663, Note_on_c, 0, 68, 62
1, 244664, Control_c, 0, 64, 51
1, 244666, Note_off_c, 0, 64, 62
1, 244666, Note_off_c, 0, 66, 51
1, 244679, Control_c, 0, 64, 57
1, 244684, Note_off_c, 0, 40, 60
1, 244690, Note_off_c, 0, 68, 62
1, 244693, Control_c, 0, 64, 63
1, 244708, Control_c, 0, 64, 67
1, 244723, Control_c, 0, 64, 70
1, 244738, Control_c, 0, 64, 72
1, 244744, Note_off_c, 0, 47, 64
1, 244753, Control_c, 0, 64, 74
1, 244765, Note_on_c, 0, 48, 82
1, 244768, Control_c, 0, 64, 75
1, 244783, Control_c, 0, 64, 77
1, 244798, Control_c, 0, 64, 79
1, 244813, Control_c, 0, 64, 81
1, 244827, Control_c, 0, 64, 83
1, 244842, Control_c, 0, 64, 84
1, 244845, Note_on_c, 0, 50, 81
1, 244857, Control_c, 0, 64, 86
1, 244872, Control_c, 0, 64, 89
1, 244879, Note_off_c, 0, 48, 59
1, 244887, Control_c, 0, 64, 93
1, 244901, Control_c, 0, 64, 99
1, 244916, Control_c, 0, 64, 106
1, 244930, Note_on_c, 0, 52, 81
1, 244931, Control_c, 0, 64, 110
1, 244938, Note_off_c, 0, 50, 62
1, 244952, Note_off_c, 0, 52, 71
1, 244961, Control_c, 0, 64, 92
1, 244975, Control_c, 0, 64, 69
1, 244975, Control_c, 0, 67, 8
1, 244990, Control_c, 0, 64, 49
1, 244990, Control_c, 0, 67, 9
1, 245005, Control_c, 0, 64, 0
1, 245005, Control_c, 0, 67, 10
1, 245020, Control_c, 0, 67, 11
1, 245035, Control_c, 0, 67, 12
1, 245036, Note_on_c, 0, 57, 77
1, 245049, Control_c, 0, 67, 12
1, 245051, Note_on_c, 0, 40, 59
1, 245056, Note_on_c, 0, 49, 66
1, 245093, Control_c, 0, 67, 13
1, 245108, Control_c, 0, 67, 14
1, 245123, Control_c, 0, 67, 15
1, 245125, Note_off_c, 0, 57, 59
1, 245132, Note_on_c, 0, 55, 66
1, 245138, Control_c, 0, 67, 17
1, 245153, Control_c, 0, 67, 19
1, 245167, Control_c, 0, 67, 21
1, 245182, Control_c, 0, 67, 25
1, 245197, Control_c, 0, 67, 28
1, 245212, Control_c, 0, 67, 30
1, 245227, Control_c, 0, 67, 31
1, 245232, Note_on_c, 0, 54, 66
1, 245242, Control_c, 0, 67, 32
1, 245245, Note_off_c, 0, 55, 57
1, 245257, Control_c, 0, 67, 33
1, 245272, Control_c, 0, 67, 34
1, 245286, Note_off_c, 0, 49, 63
1, 245286, Control_c, 0, 67, 35
1, 245301, Control_c, 0, 67, 35
1, 245323, Note_on_c, 0, 52, 64
1, 245338, Control_c, 0, 67, 36
1, 245346, Note_off_c, 0, 54, 54
1, 245353, Control_c, 0, 67, 36
1, 245367, Control_c, 0, 67, 37
1, 245382, Control_c, 0, 67, 38
1, 245397, Control_c, 0, 67, 40
1, 245407, Note_on_c, 0, 55, 79
1, 245412, Control_c, 0, 64, 10
1, 245412, Control_c, 0, 67, 41
1, 245419, Note_off_c, 0, 52, 64
1, 245427, Control_c, 0, 64, 36
1, 245443, Control_c, 0, 64, 46
1, 245443, Control_c, 0, 67, 42
1, 245446, Note_off_c, 0, 55, 69
1, 245458, Control_c, 0, 64, 54
1, 245458, Control_c, 0, 67, 42
1, 245472, Control_c, 0, 64, 58
1, 245487, Control_c, 0, 64, 63
1, 245502, Control_c, 0, 64, 67
1, 245507, Note_on_c, 0, 42, 57
1, 245517, Control_c, 0, 64, 71
1, 245517, Control_c, 0, 67, 42
1, 245531, Control_c, 0, 64, 72
1, 245531, Control_c, 0, 67, 41
1, 245546, Control_c, 0, 67, 40
1, 245561, Control_c, 0, 67, 39
1, 245576, Control_c, 0, 64, 72
1, 245576, Control_c, 0, 67, 38
1, 245591, Control_c, 0, 67, 38
1, 245604, Note_off_c, 0, 40, 41
1, 245605, Control_c, 0, 64, 73
1, 245605, Control_c, 0, 67, 37
1, 245608, Note_off_c, 0, 42, 53
1, 245610, Note_on_c, 0, 43, 59
1, 245620, Control_c, 0, 64, 73
1, 245635, Control_c, 0, 64, 74
1, 245635, Control_c, 0, 67, 37
1, 245678, Note_on_c, 0, 45, 58
1, 245680, Control_c, 0, 64, 73
1, 245687, Note_off_c, 0, 43, 60
1, 245695, Control_c, 0, 64, 66
1, 245708, Note_off_c, 0, 45, 64
1, 245710, Control_c, 0, 64, 56
1, 245710, Control_c, 0, 67, 37
1, 245724, Control_c, 0, 64, 28
1, 245724, Control_c, 0, 67, 38
1, 245739, Control_c, 0, 64, 0
1, 245739, Control_c, 0, 67, 40
1, 245754, Control_c, 0, 67, 42
1, 245769, Control_c, 0, 67, 46
1, 245784, Control_c, 0, 67, 54
1, 245797, Note_on_c, 0, 45, 54
1, 245797, Note_on_c, 0, 67, 67
1, 245799, Control_c, 0, 67, 68
1, 245814, Control_c, 0, 67, 88
1, 245817, Note_on_c, 0, 38, 40
1, 245829, Control_c, 0, 67, 106
1, 245844, Control_c, 0, 67, 123
1, 245859, Control_c, 0, 67, 127
1, 245869, Note_off_c, 0, 67, 61
1, 245889, Note_on_c, 0, 66, 60
1, 245965, Note_off_c, 0, 66, 63
1, 245972, Note_on_c, 0, 64, 64
1, 246043, Note_off_c, 0, 64, 61
1, 246057, Note_on_c, 0, 62, 63
1, 246157, Note_off_c, 0, 62, 60
1, 246160, Note_on_c, 0, 66, 70
1, 246178, Note_off_c, 0, 38, 51
1, 246178, Control_c, 0, 64, 28
1, 246186, Note_off_c, 0, 66, 66
1, 246192, Control_c, 0, 64, 41
1, 246207, Control_c, 0, 64, 50
1, 246214, Note_off_c, 0, 45, 63
1, 246222, Control_c, 0, 64, 57
1, 246237, Control_c, 0, 64, 62
1, 246239, Note_on_c, 0, 47, 70
1, 246252, Control_c, 0, 64, 66
1, 246267, Control_c, 0, 64, 71
1, 246282, Control_c, 0, 64, 73
1, 246297, Control_c, 0, 64, 74
1, 246312, Control_c, 0, 64, 75
1, 246327, Control_c, 0, 64, 77
1, 246340, Note_on_c, 0, 48, 55
1, 246341, Control_c, 0, 64, 79
1, 246356, Control_c, 0, 64, 83
1, 246363, Note_off_c, 0, 47, 0
1, 246371, Control_c, 0, 64, 89
1, 246386, Control_c, 0, 64, 95
1, 246400, Poly_aftertouch_c, 0, 47, 127
1, 246401, Control_c, 0, 64, 100
1, 246401, Note_on_c, 0, 50, 69
1, 246407, Note_off_c, 0, 48, 63
1, 246416, Control_c, 0, 64, 100
1, 246426, Note_off_c, 0, 50, 64
1, 246430, Control_c, 0, 64, 92
1, 246433, Poly_aftertouch_c, 0, 47, 0
1, 246445, Control_c, 0, 64, 72
1, 246460, Control_c, 0, 64, 58
1, 246474, Control_c, 0, 64, 28
1, 246489, Control_c, 0, 64, 0
1, 246515, Note_on_c, 0, 55, 62
1, 246518, Note_on_c, 0, 38, 58
1, 246536, Note_on_c, 0, 47, 55
1, 246581, Note_off_c, 0, 55, 51
1, 246618, Note_on_c, 0, 53, 54
1, 246688, Note_off_c, 0, 47, 38
1, 246702, Note_off_c, 0, 53, 54
1, 246710, Note_on_c, 0, 52, 54
1, 246788, Note_on_c, 0, 50, 53
1, 246837, Note_off_c, 0, 52, 53
1, 246865, Note_on_c, 0, 55, 74
1, 246869, Note_off_c, 0, 50, 62
1, 246891, Note_off_c, 0, 55, 68
1, 246968, Note_on_c, 0, 40, 59
1, 246983, Note_off_c, 0, 38, 56
1, 247057, Note_off_c, 0, 40, 57
1, 247058, Note_on_c, 0, 67, 79
1, 247059, Note_on_c, 0, 41, 48
1, 247075, Note_on_c, 0, 59, 36
1, 247078, Note_off_c, 0, 67, 68
1, 247107, Note_off_c, 0, 59, 34
1, 247115, Note_off_c, 0, 41, 62
1, 247154, Note_on_c, 0, 43, 55
1, 247281, Note_on_c, 0, 64, 74
1, 247285, Note_off_c, 0, 43, 60
1, 247286, Note_on_c, 0, 36, 58
1, 247308, Note_on_c, 0, 60, 44
1, 247313, Note_off_c, 0, 36, 58
1, 247358, Note_off_c, 0, 60, 57
1, 247383, Note_on_c, 0, 59, 49
1, 247450, Note_off_c, 0, 59, 59
1, 247480, Note_on_c, 0, 57, 43
1, 247519, Note_off_c, 0, 57, 60
1, 247554, Note_on_c, 0, 55, 54
1, 247646, Note_off_c, 0, 55, 64
1, 247659, Note_on_c, 0, 48, 49
1, 247670, Note_off_c, 0, 64, 60
1, 247673, Note_on_c, 0, 60, 69
1, 247690, Control_c, 0, 64, 14
1, 247704, Control_c, 0, 64, 20
1, 247719, Control_c, 0, 64, 29
1, 247729, Note_off_c, 0, 48, 63
1, 247734, Control_c, 0, 64, 38
1, 247749, Control_c, 0, 64, 48
1, 247758, Note_on_c, 0, 65, 77
1, 247764, Control_c, 0, 64, 57
1, 247768, Note_on_c, 0, 47, 60
1, 247779, Control_c, 0, 64, 62
1, 247787, Note_off_c, 0, 60, 57
1, 247793, Control_c, 0, 64, 64
1, 247808, Control_c, 0, 64, 65
1, 247823, Control_c, 0, 64, 66
1, 247839, Control_c, 0, 64, 67
1, 247841, Note_on_c, 0, 67, 80
1, 247848, Note_off_c, 0, 47, 60
1, 247854, Control_c, 0, 64, 70
1, 247868, Control_c, 0, 64, 75
1, 247871, Note_on_c, 0, 45, 45
1, 247877, Note_off_c, 0, 65, 64
1, 247883, Control_c, 0, 64, 81
1, 247898, Control_c, 0, 64, 86
1, 247913, Control_c, 0, 64, 88
1, 247914, Note_off_c, 0, 45, 63
1, 247915, Note_on_c, 0, 69, 82
1, 247937, Note_on_c, 0, 43, 22
1, 247942, Control_c, 0, 64, 82
1, 247957, Note_off_c, 0, 67, 60
1, 247957, Control_c, 0, 64, 73
1, 247972, Control_c, 0, 64, 63
1, 247983, Note_off_c, 0, 43, 53
1, 247987, Control_c, 0, 64, 49
1, 248002, Control_c, 0, 64, 12
1, 248011, Note_on_c, 0, 62, 81
1, 248017, Control_c, 0, 64, 0
1, 248020, Note_off_c, 0, 69, 63
1, 248026, Note_on_c, 0, 53, 64
1, 248094, Note_on_c, 0, 59, 71
1, 248178, Note_on_c, 0, 57, 79
1, 248188, Note_off_c, 0, 59, 60
1, 248253, Note_on_c, 0, 55, 79
1, 248276, Note_off_c, 0, 57, 61
1, 248305, Note_off_c, 0, 62, 64
1, 248354, Note_on_c, 0, 59, 86
1, 248390, Note_off_c, 0, 55, 64
1, 248548, Note_on_c, 0, 65, 73
1, 248572, Note_off_c, 0, 65, 70
1, 248727, Note_off_c, 0, 59, 62
1, 248729, Note_on_c, 0, 62, 76
1, 248797, Note_off_c, 0, 53, 61
1, 248831, Note_on_c, 0, 59, 63
1, 248874, Note_off_c, 0, 59, 59
1, 248914, Note_on_c, 0, 57, 71
1, 248996, Note_off_c, 0, 57, 61
1, 249001, Note_on_c, 0, 55, 68
1, 249034, Note_off_c, 0, 55, 65
1, 249046, Note_off_c, 0, 62, 62
1, 249087, Note_on_c, 0, 59, 73
1, 249090, Note_on_c, 0, 55, 65
1, 249136, Note_off_c, 0, 55, 64
1, 249152, Note_off_c, 0, 59, 61
1, 249174, Note_on_c, 0, 64, 71
1, 249176, Note_on_c, 0, 53, 69
1, 249248, Note_off_c, 0, 53, 63
1, 249250, Note_on_c, 0, 52, 75
1, 249257, Note_on_c, 0, 65, 70
1, 249259, Note_off_c, 0, 64, 59
1, 249334, Note_off_c, 0, 52, 63
1, 249337, Note_on_c, 0, 50, 65
1, 249341, Note_off_c, 0, 65, 66
1, 249345, Note_on_c, 0, 67, 75
1, 249408, Note_off_c, 0, 50, 64
1, 249410, Note_off_c, 0, 67, 57
1, 249426, Note_on_c, 0, 48, 63
1, 249427, Note_on_c, 0, 64, 79
1, 249448, Note_off_c, 0, 64, 69
1, 249449, Note_on_c, 0, 60, 72
1, 249459, Note_off_c, 0, 48, 66
1, 249518, Note_off_c, 0, 60, 64
1, 249536, Note_on_c, 0, 59, 65
1, 249598, Note_off_c, 0, 59, 61
1, 249603, Note_on_c, 0, 57, 66
1, 249612, Note_on_c, 0, 76, 86
1, 249630, Note_off_c, 0, 76, 74
1, 249666, Note_off_c, 0, 57, 62
1, 249677, Note_on_c, 0, 55, 62
1, 249788, Note_on_c, 0, 76, 84
1, 249788, Note_off_c, 0, 55, 64
1, 249806, Note_on_c, 0, 60, 61
1, 249809, Note_off_c, 0, 76, 70
1, 249975, Note_on_c, 0, 74, 83
1, 249981, Note_off_c, 0, 60, 62
1, 249989, Note_on_c, 0, 59, 59
1, 249994, Note_off_c, 0, 74, 72
1, 250099, Control_c, 0, 67, 112
1, 250114, Control_c, 0, 67, 97
1, 250129, Control_c, 0, 67, 83
1, 250144, Control_c, 0, 67, 68
1, 250148, Note_off_c, 0, 59, 63
1, 250157, Note_on_c, 0, 76, 76
1, 250159, Control_c, 0, 67, 57
1, 250163, Note_on_c, 0, 60, 53
1, 250173, Control_c, 0, 67, 48
1, 250182, Note_off_c, 0, 76, 64
1, 250185, Note_off_c, 0, 60, 60
1, 250188, Control_c, 0, 67, 40
1, 250203, Control_c, 0, 67, 35
1, 250217, Control_c, 0, 67, 32
1, 250232, Control_c, 0, 67, 29
1, 250249, Control_c, 0, 67, 25
1, 250263, Control_c, 0, 67, 22
1, 250278, Control_c, 0, 67, 20
1, 250293, Control_c, 0, 67, 18
1, 250308, Control_c, 0, 67, 16
1, 250322, Control_c, 0, 67, 14
1, 250337, Control_c, 0, 67, 11
1, 250338, Note_on_c, 0, 74, 75
1, 250339, Note_on_c, 0, 50, 73
1, 250345, Note_on_c, 0, 59, 69
1, 250352, Control_c, 0, 67, 9
1, 250359, Note_off_c, 0, 74, 71
1, 250361, Note_off_c, 0, 50, 68
1, 250364, Note_off_c, 0, 59, 65
1, 250367, Control_c, 0, 67, 8
1, 250411, Control_c, 0, 67, 0
1, 250509, Note_on_c, 0, 50, 78
1, 250512, Note_on_c, 0, 59, 78
1, 250518, Note_on_c, 0, 72, 69
1, 250542, Note_off_c, 0, 72, 68
1, 250545, Note_on_c, 0, 74, 68
1, 250550, Note_off_c, 0, 59, 62
1, 250572, Note_on_c, 0, 57, 61
1, 250589, Note_off_c, 0, 74, 66
1, 250609, Note_on_c, 0, 72, 65
1, 250610, Note_off_c, 0, 50, 60
1, 250630, Note_on_c, 0, 59, 65
1, 250650, Note_on_c, 0, 74, 61
1, 250669, Note_off_c, 0, 74, 67
1, 250688, Note_on_c, 0, 48, 90
1, 250702, Note_off_c, 0, 59, 64
1, 250712, Note_off_c, 0, 72, 57
1, 250747, Note_on_c, 0, 71, 60
1, 250754, Note_on_c, 0, 59, 66
1, 250763, Note_off_c, 0, 48, 65
1, 250798, Note_on_c, 0, 72, 68
1, 250804, Note_off_c, 0, 71, 43
1, 250836, Note_off_c, 0, 72, 61
1, 250882, Note_on_c, 0, 50, 85
1, 250889, Note_off_c, 0, 59, 63
1, 250894, Note_off_c, 0, 57, 63
1, 250908, Note_off_c, 0, 50, 66
1, 251076, Note_on_c, 0, 74, 77
1, 251079, Note_on_c, 0, 59, 73
1, 251090, Note_on_c, 0, 48, 60
1, 251096, Note_off_c, 0, 74, 71
1, 251103, Note_off_c, 0, 59, 64
1, 251116, Note_off_c, 0, 48, 37
1, 251256, Note_on_c, 0, 74, 84
1, 251263, Note_on_c, 0, 47, 74
1, 251264, Note_on_c, 0, 59, 66
1, 251290, Note_off_c, 0, 74, 66
1, 251296, Note_off_c, 0, 59, 61
1, 251455, Note_on_c, 0, 57, 74
1, 251457, Note_on_c, 0, 72, 82
1, 251476, Note_off_c, 0, 72, 67
1, 251493, Note_off_c, 0, 57, 60
1, 251647, Note_on_c, 0, 74, 82
1, 251649, Note_on_c, 0, 59, 74
1, 251662, Note_off_c, 0, 47, 64
1, 251672, Note_off_c, 0, 59, 66
1, 251680, Note_off_c, 0, 74, 66
1, 251825, Note_on_c, 0, 72, 76
1, 251829, Note_on_c, 0, 57, 75
1, 251837, Note_on_c, 0, 48, 66
1, 251850, Note_off_c, 0, 72, 65
1, 251852, Note_off_c, 0, 57, 66
1, 251865, Note_off_c, 0, 48, 67
1, 251983, Control_c, 0, 64, 14
1, 251988, Note_on_c, 0, 71, 78
1, 251995, Note_on_c, 0, 55, 83
1, 251998, Control_c, 0, 64, 32
1, 252003, Note_on_c, 0, 48, 66
1, 252013, Control_c, 0, 64, 43
1, 252018, Note_off_c, 0, 71, 65
1, 252028, Control_c, 0, 64, 53
1, 252032, Note_off_c, 0, 48, 65
1, 252034, Note_off_c, 0, 55, 66
1, 252042, Note_on_c, 0, 72, 67
1, 252042, Control_c, 0, 64, 63
1, 252065, Control_c, 0, 64, 72
1, 252080, Control_c, 0, 64, 82
1, 252094, Control_c, 0, 64, 85
1, 252100, Note_on_c, 0, 71, 69
1, 252101, Note_off_c, 0, 72, 62
1, 252128, Note_off_c, 0, 71, 59
1, 252139, Control_c, 0, 64, 79
1, 252154, Control_c, 0, 64, 66
1, 252159, Note_on_c, 0, 72, 69
1, 252166, Note_on_c, 0, 57, 85
1, 252168, Control_c, 0, 64, 55
1, 252178, Note_on_c, 0, 47, 53
1, 252183, Note_off_c, 0, 72, 69
1, 252183, Control_c, 0, 64, 36
1, 252198, Control_c, 0, 64, 26
1, 252201, Note_on_c, 0, 71, 66
1, 252205, Note_on_c, 0, 59, 63
1, 252213, Control_c, 0, 64, 38
1, 252228, Control_c, 0, 64, 53
1, 252230, Note_off_c, 0, 71, 68
1, 252241, Note_on_c, 0, 69, 79
1, 252241, Note_off_c, 0, 57, 63
1, 252242, Control_c, 0, 64, 69
1, 252247, Note_off_c, 0, 59, 60
1, 252257, Control_c, 0, 64, 127
1, 252296, Poly_aftertouch_c, 0, 48, 0
1, 252300, Note_off_c, 0, 47, 41
1, 252305, Note_on_c, 0, 67, 74
1, 252326, Note_off_c, 0, 69, 65
1, 252346, Control_c, 0, 64, 93
1, 252359, Note_on_c, 0, 53, 79
1, 252360, Control_c, 0, 64, 65
1, 252361, Note_on_c, 0, 45, 78
1, 252361, Note_on_c, 0, 72, 90
1, 252373, Note_off_c, 0, 67, 65
1, 252375, Control_c, 0, 64, 47
1, 252383, Note_off_c, 0, 53, 69
1, 252388, Note_off_c, 0, 45, 65
1, 252388, Note_off_c, 0, 72, 64
1, 252390, Control_c, 0, 64, 0
1, 252405, Note_on_c, 0, 52, 23
1, 252448, Note_off_c, 0, 52, 30
1, 252539, Note_on_c, 0, 52, 83
1, 252545, Note_on_c, 0, 72, 94
1, 252546, Note_on_c, 0, 43, 76
1, 252560, Note_off_c, 0, 52, 73
1, 252569, Note_off_c, 0, 43, 66
1, 252725, Note_off_c, 0, 72, 63
1, 252730, Note_on_c, 0, 42, 91
1, 252732, Note_on_c, 0, 50, 86
1, 252747, Control_c, 0, 64, 28
1, 252762, Control_c, 0, 64, 41
1, 252776, Control_c, 0, 64, 50
1, 252791, Control_c, 0, 64, 59
1, 252813, Control_c, 0, 64, 68
1, 252828, Control_c, 0, 64, 105
1, 252843, Control_c, 0, 64, 127
1, 252916, Note_off_c, 0, 42, 62
1, 252917, Control_c, 0, 64, 86
1, 252920, Note_on_c, 0, 40, 84
1, 252930, Note_on_c, 0, 72, 98
1, 252932, Control_c, 0, 64, 66
1, 252947, Control_c, 0, 64, 51
1, 252949, Note_off_c, 0, 50, 59
1, 252962, Control_c, 0, 64, 0
1, 253021, Note_on_c, 0, 38, 84
1, 253050, Control_c, 0, 64, 9
1, 253055, Note_off_c, 0, 40, 64
1, 253061, Note_off_c, 0, 72, 64
1, 253065, Control_c, 0, 64, 42
1, 253080, Control_c, 0, 64, 61
1, 253087, Note_off_c, 0, 38, 63
1, 253095, Control_c, 0, 64, 127
1, 253120, Note_on_c, 0, 72, 101
1, 253141, Poly_aftertouch_c, 0, 75, 0
1, 253243, Control_c, 0, 64, 115
1, 253257, Control_c, 0, 64, 69
1, 253272, Control_c, 0, 64, 53
1, 253287, Control_c, 0, 64, 0
1, 253297, Note_on_c, 0, 53, 77
1, 253299, Note_on_c, 0, 71, 84
1, 253299, Note_on_c, 0, 79, 86
1, 253309, Note_off_c, 0, 72, 58
1, 253311, Note_on_c, 0, 55, 60
1, 253323, Note_off_c, 0, 53, 69
1, 253330, Note_off_c, 0, 71, 64
1, 253339, Note_off_c, 0, 55, 36
1, 253348, Note_off_c, 0, 79, 62
1, 253475, Note_on_c, 0, 55, 86
1, 253475, Note_on_c, 0, 52, 96
1, 253479, Note_on_c, 0, 72, 94
1, 253481, Control_c, 0, 64, 10
1, 253487, Note_on_c, 0, 79, 70
1, 253496, Note_on_c, 0, 77, 69
1, 253496, Control_c, 0, 64, 43
1, 253498, Note_off_c, 0, 52, 73
1, 253502, Note_off_c, 0, 55, 70
1, 253506, Note_off_c, 0, 72, 61
1, 253509, Note_off_c, 0, 79, 59
1, 253511, Control_c, 0, 64, 57
1, 253516, Note_off_c, 0, 77, 66
1, 253525, Control_c, 0, 64, 66
1, 253537, Note_on_c, 0, 53, 13
1, 253540, Control_c, 0, 64, 75
1, 253562, Control_c, 0, 64, 90
1, 253577, Control_c, 0, 64, 109
1, 253592, Control_c, 0, 64, 127
1, 253593, Note_off_c, 0, 53, 45
1, 253636, Control_c, 0, 64, 114
1, 253651, Control_c, 0, 64, 106
1, 253656, Note_on_c, 0, 77, 89
1, 253658, Note_on_c, 0, 60, 93
1, 253663, Note_on_c, 0, 67, 92
1, 253669, Note_on_c, 0, 50, 64
1, 253674, Note_on_c, 0, 52, 78
1, 253681, Control_c, 0, 64, 127
1, 253708, Note_off_c, 0, 60, 68
1, 253720, Note_on_c, 0, 48, 86
1, 253725, Note_off_c, 0, 52, 63
1, 253737, Note_off_c, 0, 50, 56
1, 253738, Note_on_c, 0, 76, 91
1, 253743, Note_off_c, 0, 77, 60
1, 253752, Note_off_c, 0, 48, 64
1, 253770, Control_c, 0, 64, 78
1, 253774, Note_off_c, 0, 67, 61
1, 253785, Control_c, 0, 64, 53
1, 253800, Control_c, 0, 64, 0
1, 253829, Control_c, 0, 64, 12
1, 253844, Control_c, 0, 64, 50
1, 253845, Note_on_c, 0, 53, 94
1, 253848, Note_on_c, 0, 41, 84
1, 253850, Note_on_c, 0, 81, 98
1, 253854, Note_on_c, 0, 69, 93
1, 253858, Control_c, 0, 64, 127
1, 253866, Note_off_c, 0, 76, 59
1, 253876, Note_off_c, 0, 41, 69
1, 253883, Note_off_c, 0, 53, 69
1, 253884, Note_off_c, 0, 81, 66
1, 253889, Note_off_c, 0, 69, 65
1, 253918, Control_c, 0, 64, 103
1, 253932, Control_c, 0, 64, 61
1, 253947, Control_c, 0, 64, 28
1, 253947, Control_c, 0, 67, 8
1, 253962, Control_c, 0, 64, 0
1, 253962, Control_c, 0, 67, 8
1, 253977, Control_c, 0, 67, 8
1, 254051, Control_c, 0, 67, 9
1, 254053, Note_on_c, 0, 72, 76
1, 254077, Note_off_c, 0, 72, 66
1, 254125, Control_c, 0, 67, 0
1, 254184, Control_c, 0, 67, 8
1, 254199, Control_c, 0, 67, 13
1, 254214, Control_c, 0, 67, 25
1, 254229, Control_c, 0, 67, 49
1, 254234, Note_on_c, 0, 29, 54
1, 254238, Note_on_c, 0, 69, 69
1, 254244, Control_c, 0, 67, 83
1, 254259, Control_c, 0, 67, 117
1, 254268, Note_off_c, 0, 29, 55
1, 254274, Control_c, 0, 67, 127
1, 254274, Note_off_c, 0, 69, 58
1, 254340, Note_on_c, 0, 71, 58
1, 254414, Note_off_c, 0, 71, 64
1, 254443, Note_on_c, 0, 72, 56
1, 254512, Note_on_c, 0, 74, 53
1, 254554, Note_off_c, 0, 72, 35
1, 254590, Note_off_c, 0, 74, 61
1, 254605, Note_on_c, 0, 71, 73
1, 254611, Note_on_c, 0, 31, 52
1, 254628, Note_off_c, 0, 71, 72
1, 254641, Note_off_c, 0, 31, 54
1, 254797, Note_on_c, 0, 62, 50
1, 254822, Note_off_c, 0, 62, 58
1, 254970, Note_on_c, 0, 43, 64
1, 254979, Note_on_c, 0, 59, 65
1, 254996, Note_off_c, 0, 43, 65
1, 255025, Note_off_c, 0, 59, 59
1, 255076, Note_on_c, 0, 60, 51
1, 255132, Note_off_c, 0, 60, 57
1, 255162, Note_on_c, 0, 62, 55
1, 255211, Note_off_c, 0, 62, 58
1, 255249, Note_on_c, 0, 64, 50
1, 255324, Note_on_c, 0, 60, 68
1, 255326, Note_off_c, 0, 64, 60
1, 255336, Note_on_c, 0, 45, 52
1, 255353, Note_off_c, 0, 60, 68
1, 255362, Note_off_c, 0, 45, 59
1, 255510, Note_on_c, 0, 76, 69
1, 255533, Note_off_c, 0, 76, 70
1, 255706, Note_on_c, 0, 72, 70
1, 255715, Note_on_c, 0, 33, 46
1, 255746, Note_off_c, 0, 33, 53
1, 255752, Note_off_c, 0, 72, 58
1, 255804, Note_on_c, 0, 74, 57
1, 255865, Note_off_c, 0, 74, 55
1, 255892, Note_on_c, 0, 76, 58
1, 255945, Note_off_c, 0, 76, 53
1, 255982, Note_on_c, 0, 77, 61
1, 256054, Note_off_c, 0, 77, 62
1, 256065, Note_on_c, 0, 74, 65
1, 256068, Note_on_c, 0, 35, 53
1, 256085, Note_off_c, 0, 74, 69
1, 256103, Note_off_c, 0, 35, 60
1, 256242, Note_on_c, 0, 67, 64
1, 256265, Note_off_c, 0, 67, 67
1, 256424, Note_on_c, 0, 47, 70
1, 256426, Note_on_c, 0, 62, 74
1, 256430, Control_c, 0, 67, 99
1, 256444, Control_c, 0, 67, 19
1, 256450, Note_off_c, 0, 47, 67
1, 256459, Control_c, 0, 67, 0
1, 256474, Note_off_c, 0, 62, 56
1, 256516, Note_on_c, 0, 64, 58
1, 256581, Note_off_c, 0, 64, 55
1, 256601, Note_on_c, 0, 65, 64
1, 256661, Note_off_c, 0, 65, 66
1, 256685, Note_on_c, 0, 67, 48
1, 256711, Note_off_c, 0, 67, 58
1, 256789, Note_on_c, 0, 36, 91
1, 256791, Note_on_c, 0, 84, 92
1, 256795, Control_c, 0, 64, 32
1, 256797, Note_on_c, 0, 76, 88
1, 256805, Note_off_c, 0, 84, 75
1, 256809, Note_off_c, 0, 76, 74
1, 256809, Control_c, 0, 64, 57
1, 256817, Note_off_c, 0, 36, 66
1, 256824, Control_c, 0, 64, 80
1, 256839, Control_c, 0, 64, 127
1, 256957, Control_c, 0, 64, 81
1, 256972, Note_on_c, 0, 50, 93
1, 256972, Control_c, 0, 64, 52
1, 256987, Control_c, 0, 64, 0
1, 256993, Note_off_c, 0, 50, 72
1, 257157, Note_on_c, 0, 72, 95
1, 257163, Note_on_c, 0, 64, 94
1, 257164, Note_on_c, 0, 48, 82
1, 257245, Note_on_c, 0, 50, 79
1, 257248, Note_off_c, 0, 48, 66
1, 257250, Note_off_c, 0, 64, 64
1, 257254, Control_c, 0, 64, 31
1, 257256, Note_off_c, 0, 72, 65
1, 257268, Control_c, 0, 64, 42
1, 257283, Control_c, 0, 64, 46
1, 257305, Control_c, 0, 64, 50
1, 257320, Control_c, 0, 64, 56
1, 257335, Control_c, 0, 64, 63
1, 257343, Note_on_c, 0, 52, 100
1, 257350, Control_c, 0, 64, 71
1, 257357, Note_off_c, 0, 50, 66
1, 257365, Control_c, 0, 64, 85
1, 257380, Control_c, 0, 64, 103
1, 257395, Control_c, 0, 64, 127
1, 257420, Note_on_c, 0, 53, 98
1, 257455, Note_off_c, 0, 52, 59
1, 257514, Control_c, 0, 64, 69
1, 257518, Note_off_c, 0, 53, 69
1, 257523, Note_on_c, 0, 55, 89
1, 257529, Control_c, 0, 64, 43
1, 257529, Note_on_c, 0, 71, 96
1, 257535, Note_on_c, 0, 62, 92
1, 257544, Control_c, 0, 64, 0
1, 257547, Note_off_c, 0, 55, 68
1, 257662, Note_off_c, 0, 62, 63
1, 257686, Note_off_c, 0, 71, 68
1, 257702, Note_on_c, 0, 41, 84
1, 257741, Note_off_c, 0, 41, 65
1, 257899, Note_on_c, 0, 83, 93
1, 257902, Note_on_c, 0, 74, 81
1, 257904, Note_on_c, 0, 38, 80
1, 257976, Note_on_c, 0, 40, 80
1, 258006, Note_off_c, 0, 38, 63
1, 258081, Note_on_c, 0, 41, 85
1, 258104, Note_off_c, 0, 40, 62
1, 258131, Note_off_c, 0, 74, 52
1, 258156, Note_on_c, 0, 43, 94
1, 258173, Control_c, 0, 64, 13
1, 258176, Note_off_c, 0, 41, 65
1, 258188, Control_c, 0, 64, 40
1, 258203, Control_c, 0, 64, 57
1, 258218, Control_c, 0, 64, 83
1, 258233, Control_c, 0, 64, 127
1, 258257, Note_on_c, 0, 41, 91
1, 258265, Note_on_c, 0, 86, 95
1, 258270, Note_on_c, 0, 74, 89
1, 258271, Note_off_c, 0, 43, 64
1, 258280, Note_off_c, 0, 41, 70
1, 258292, Control_c, 0, 64, 76
1, 258300, Note_off_c, 0, 83, 64
1, 258307, Control_c, 0, 64, 50
1, 258322, Control_c, 0, 64, 0
1, 258433, Note_off_c, 0, 86, 63
1, 258435, Note_on_c, 0, 52, 91
1, 258449, Note_off_c, 0, 74, 68
1, 258453, Note_off_c, 0, 52, 74
1, 258624, Note_on_c, 0, 50, 73
1, 258625, Note_on_c, 0, 74, 78
1, 258626, Note_on_c, 0, 65, 78
1, 258704, Note_on_c, 0, 52, 81
1, 258719, Note_off_c, 0, 50, 60
1, 258766, Control_c, 0, 64, 20
1, 258780, Control_c, 0, 64, 25
1, 258802, Control_c, 0, 64, 31
1, 258804, Note_on_c, 0, 53, 93
1, 258817, Control_c, 0, 64, 41
1, 258819, Note_off_c, 0, 65, 58
1, 258829, Note_off_c, 0, 52, 66
1, 258832, Control_c, 0, 64, 53
1, 258847, Control_c, 0, 64, 66
1, 258862, Control_c, 0, 64, 82
1, 258876, Control_c, 0, 64, 110
1, 258882, Note_on_c, 0, 55, 96
1, 258891, Control_c, 0, 64, 127
1, 258912, Note_off_c, 0, 53, 65
1, 258975, Note_off_c, 0, 55, 68
1, 258979, Note_on_c, 0, 57, 89
1, 258983, Note_on_c, 0, 73, 100
1, 258991, Note_on_c, 0, 64, 86
1, 258995, Control_c, 0, 64, 79
1, 259005, Note_off_c, 0, 57, 60
1, 259010, Control_c, 0, 64, 56
1, 259014, Note_off_c, 0, 74, 64
1, 259025, Control_c, 0, 64, 0
1, 259145, Note_off_c, 0, 64, 63
1, 259166, Note_off_c, 0, 73, 69
1, 259169, Note_on_c, 0, 45, 85
1, 259204, Note_off_c, 0, 45, 61
1, 259341, Note_on_c, 0, 40, 77
1, 259345, Note_on_c, 0, 85, 85
1, 259359, Note_on_c, 0, 76, 72
1, 259425, Note_on_c, 0, 42, 79
1, 259448, Note_off_c, 0, 40, 64
1, 259466, Note_off_c, 0, 76, 65
1, 259521, Note_on_c, 0, 44, 84
1, 259552, Control_c, 0, 64, 24
1, 259567, Control_c, 0, 64, 31
1, 259568, Note_off_c, 0, 42, 60
1, 259582, Control_c, 0, 64, 42
1, 259597, Control_c, 0, 64, 58
1, 259606, Note_on_c, 0, 45, 88
1, 259611, Control_c, 0, 64, 127
1, 259642, Note_off_c, 0, 44, 62
1, 259685, Control_c, 0, 64, 110
1, 259700, Control_c, 0, 64, 58
1, 259711, Note_on_c, 0, 42, 89
1, 259711, Note_off_c, 0, 45, 64
1, 259715, Control_c, 0, 64, 0
1, 259723, Note_on_c, 0, 75, 79
1, 259733, Note_off_c, 0, 42, 67
1, 259905, Note_on_c, 0, 57, 70
1, 259926, Note_off_c, 0, 57, 66
1, 260111, Note_on_c, 0, 84, 66
1, 260112, Note_on_c, 0, 54, 58
1, 260130, Note_off_c, 0, 85, 62
1, 260175, Control_c, 0, 64, 28
1, 260190, Control_c, 0, 64, 34
1, 260193, Note_on_c, 0, 56, 66
1, 260194, Note_off_c, 0, 54, 58
1, 260205, Control_c, 0, 64, 40
1, 260219, Control_c, 0, 64, 48
1, 260234, Control_c, 0, 64, 57
1, 260249, Control_c, 0, 64, 63
1, 260264, Control_c, 0, 64, 67
1, 260279, Control_c, 0, 64, 74
1, 260280, Note_off_c, 0, 56, 66
1, 260295, Note_on_c, 0, 57, 71
1, 260301, Control_c, 0, 64, 77
1, 260316, Control_c, 0, 64, 81
1, 260331, Control_c, 0, 64, 91
1, 260346, Control_c, 0, 64, 127
1, 260370, Note_off_c, 0, 57, 62
1, 260385, Note_on_c, 0, 59, 74
1, 260409, Note_off_c, 0, 59, 64
1, 260415, Note_off_c, 0, 75, 60
1, 260434, Control_c, 0, 64, 102
1, 260449, Control_c, 0, 64, 64
1, 260464, Control_c, 0, 64, 30
1, 260478, Note_on_c, 0, 44, 76
1, 260479, Control_c, 0, 64, 0
1, 260480, Note_on_c, 0, 74, 74
1, 260501, Note_off_c, 0, 44, 67
1, 260668, Note_on_c, 0, 59, 63
1, 260688, Note_off_c, 0, 59, 63
1, 260856, Note_on_c, 0, 83, 72
1, 260857, Note_off_c, 0, 84, 61
1, 260861, Note_on_c, 0, 56, 59
1, 260909, Control_c, 0, 64, 19
1, 260924, Control_c, 0, 64, 33
1, 260939, Control_c, 0, 64, 38
1, 260941, Note_off_c, 0, 56, 64
1, 260948, Note_on_c, 0, 57, 67
1, 260954, Control_c, 0, 64, 43
1, 260968, Control_c, 0, 64, 51
1, 260983, Control_c, 0, 64, 59
1, 260998, Control_c, 0, 64, 65
1, 261013, Control_c, 0, 64, 71
1, 261028, Control_c, 0, 64, 74
1, 261029, Note_on_c, 0, 59, 75
1, 261049, Control_c, 0, 64, 76
1, 261054, Note_off_c, 0, 57, 57
1, 261064, Control_c, 0, 64, 78
1, 261079, Control_c, 0, 64, 83
1, 261094, Control_c, 0, 64, 94
1, 261109, Control_c, 0, 64, 127
1, 261115, Note_off_c, 0, 59, 62
1, 261127, Note_on_c, 0, 60, 81
1, 261156, Note_off_c, 0, 60, 66
1, 261198, Control_c, 0, 64, 74
1, 261213, Control_c, 0, 64, 53
1, 261216, Note_on_c, 0, 72, 88
1, 261219, Note_off_c, 0, 74, 63
1, 261222, Note_on_c, 0, 45, 79
1, 261228, Control_c, 0, 64, 0
1, 261246, Note_off_c, 0, 45, 66
1, 261396, Note_on_c, 0, 60, 81
1, 261416, Note_off_c, 0, 60, 73
1, 261580, Note_on_c, 0, 81, 82
1, 261586, Note_on_c, 0, 57, 78
1, 261608, Note_off_c, 0, 83, 64
1, 261658, Control_c, 0, 64, 22
1, 261673, Note_on_c, 0, 59, 88
1, 261673, Control_c, 0, 64, 37
1, 261687, Control_c, 0, 64, 42
1, 261700, Note_off_c, 0, 57, 61
1, 261702, Control_c, 0, 64, 49
1, 261717, Control_c, 0, 64, 56
1, 261732, Control_c, 0, 64, 63
1, 261747, Control_c, 0, 64, 74
1, 261753, Note_on_c, 0, 60, 89
1, 261762, Control_c, 0, 64, 89
1, 261769, Note_off_c, 0, 72, 57
1, 261777, Control_c, 0, 64, 103
1, 261785, Note_off_c, 0, 59, 61
1, 261798, Control_c, 0, 64, 127
1, 261838, Note_off_c, 0, 60, 68
1, 261846, Note_on_c, 0, 62, 98
1, 261887, Note_off_c, 0, 62, 68
1, 261929, Note_on_c, 0, 74, 93
1, 261937, Note_on_c, 0, 47, 96
1, 261947, Control_c, 0, 64, 66
1, 261956, Note_off_c, 0, 47, 72
1, 261962, Control_c, 0, 64, 42
1, 261977, Control_c, 0, 64, 0
1, 262106, Note_on_c, 0, 62, 97
1, 262111, Note_on_c, 0, 80, 93
1, 262131, Note_off_c, 0, 62, 68
1, 262134, Note_off_c, 0, 81, 62
1, 262261, Note_off_c, 0, 74, 63
1, 262290, Note_on_c, 0, 59, 89
1, 262291, Note_on_c, 0, 76, 90
1, 262291, Note_on_c, 0, 81, 82
1, 262296, Note_on_c, 0, 48, 87
1, 262302, Note_off_c, 0, 80, 57
1, 262318, Control_c, 0, 64, 32
1, 262324, Note_on_c, 0, 57, 47
1, 262325, Note_off_c, 0, 57, 127
1, 262326, Note_off_c, 0, 81, 64
1, 262333, Control_c, 0, 64, 50
1, 262335, Note_off_c, 0, 76, 65
1, 262347, Note_off_c, 0, 59, 62
1, 262348, Control_c, 0, 64, 59
1, 262352, Poly_aftertouch_c, 0, 57, 0
1, 262357, Note_on_c, 0, 60, 94
1, 262363, Control_c, 0, 64, 66
1, 262377, Control_c, 0, 64, 80
1, 262381, Note_off_c, 0, 48, 62
1, 262392, Control_c, 0, 64, 122
1, 262407, Control_c, 0, 64, 127
1, 262427, Note_off_c, 0, 60, 64
1, 262439, Note_on_c, 0, 52, 77
1, 262451, Note_on_c, 0, 48, 66
1, 262455, Note_on_c, 0, 64, 93
1, 262455, Note_on_c, 0, 69, 90
1, 262458, Note_off_c, 0, 52, 67
1, 262473, Note_off_c, 0, 48, 63
1, 262483, Note_off_c, 0, 64, 61
1, 262503, Note_off_c, 0, 69, 57
1, 262536, Note_on_c, 0, 66, 94
1, 262617, Note_off_c, 0, 66, 63
1, 262620, Poly_aftertouch_c, 0, 53, 127
1, 262636, Control_c, 0, 64, 104
1, 262644, Poly_aftertouch_c, 0, 50, 127
1, 262651, Control_c, 0, 64, 65
1, 262653, Note_on_c, 0, 63, 95
1, 262653, Note_on_c, 0, 69, 94
1, 262655, Note_on_c, 0, 47, 91
1, 262663, Note_on_c, 0, 54, 90
1, 262665, Poly_aftertouch_c, 0, 53, 0
1, 262666, Control_c, 0, 64, 43
1, 262673, Note_off_c, 0, 63, 73
1, 262679, Poly_aftertouch_c, 0, 50, 0
1, 262681, Control_c, 0, 64, 0
1, 262736, Note_on_c, 0, 67, 84
1, 262743, Note_on_c, 0, 49, 79
1, 262746, Note_off_c, 0, 54, 61
1, 262746, Note_off_c, 0, 47, 65
1, 262752, Note_off_c, 0, 69, 61
1, 262826, Note_on_c, 0, 51, 78
1, 262830, Note_off_c, 0, 49, 64
1, 262831, Note_on_c, 0, 66, 91
1, 262862, Note_off_c, 0, 67, 61
1, 262902, Note_on_c, 0, 52, 83
1, 262907, Note_off_c, 0, 51, 65
1, 262914, Note_on_c, 0, 64, 88
1, 262935, Note_off_c, 0, 66, 60
1, 262993, Note_off_c, 0, 52, 66
1, 262997, Note_on_c, 0, 51, 81
1, 262998, Note_on_c, 0, 54, 82
1, 263003, Note_on_c, 0, 69, 87
1, 263006, Note_off_c, 0, 64, 58
1, 263007, Control_c, 0, 64, 43
1, 263022, Note_off_c, 0, 51, 70
1, 263023, Control_c, 0, 64, 61
1, 263031, Note_off_c, 0, 54, 67
1, 263037, Note_off_c, 0, 69, 64
1, 263038, Control_c, 0, 64, 79
1, 263052, Control_c, 0, 64, 127
1, 263089, Note_on_c, 0, 52, 89
1, 263118, Note_on_c, 0, 55, 71
1, 263141, Control_c, 0, 64, 72
1, 263156, Control_c, 0, 64, 58
1, 263166, Note_off_c, 0, 52, 64
1, 263170, Control_c, 0, 64, 31
1, 263177, Note_on_c, 0, 57, 76
1, 263178, Note_on_c, 0, 54, 67
1, 263184, Note_off_c, 0, 55, 61
1, 263185, Control_c, 0, 64, 0
1, 263263, Note_on_c, 0, 59, 82
1, 263264, Note_on_c, 0, 55, 69
1, 263267, Note_off_c, 0, 54, 64
1, 263269, Note_off_c, 0, 57, 63
1, 263330, Note_off_c, 0, 59, 62
1, 263348, Note_off_c, 0, 55, 65
1, 263363, Note_on_c, 0, 57, 84
1, 263364, Note_on_c, 0, 54, 75
1, 263425, Note_off_c, 0, 57, 55
1, 263442, Note_off_c, 0, 54, 63
1, 263446, Note_on_c, 0, 55, 72
1, 263448, Note_on_c, 0, 59, 77
1, 263529, Note_off_c, 0, 55, 65
1, 263533, Note_on_c, 0, 60, 81
1, 263534, Note_off_c, 0, 59, 61
1, 263538, Note_on_c, 0, 57, 69
1, 263586, Note_off_c, 0, 60, 65
1, 263606, Note_off_c, 0, 57, 61
1, 263616, Note_on_c, 0, 59, 78
1, 263632, Note_on_c, 0, 55, 73
1, 263702, Note_off_c, 0, 59, 56
1, 263703, Note_off_c, 0, 55, 66
1, 263706, Note_on_c, 0, 60, 76
1, 263707, Note_on_c, 0, 57, 80
1, 263767, Note_off_c, 0, 57, 60
1, 263788, Note_off_c, 0, 60, 64
1, 263792, Note_on_c, 0, 59, 82
1, 263804, Note_on_c, 0, 63, 81
1, 263831, Control_c, 0, 64, 13
1, 263839, Note_off_c, 0, 63, 66
1, 263846, Control_c, 0, 64, 32
1, 263852, Note_off_c, 0, 59, 61
1, 263860, Control_c, 0, 64, 37
1, 263866, Note_on_c, 0, 64, 70
1, 263875, Control_c, 0, 64, 42
1, 263882, Note_on_c, 0, 61, 81
1, 263890, Control_c, 0, 64, 49
1, 263905, Control_c, 0, 64, 60
1, 263920, Control_c, 0, 64, 67
1, 263934, Control_c, 0, 64, 77
1, 263947, Note_off_c, 0, 64, 56
1, 263949, Control_c, 0, 64, 81
1, 263950, Note_on_c, 0, 66, 82
1, 263956, Note_on_c, 0, 63, 79
1, 263959, Note_off_c, 0, 61, 64
1, 263972, Note_off_c, 0, 66, 70
1, 263980, Note_off_c, 0, 63, 69
1, 263993, Control_c, 0, 64, 75
1, 264008, Control_c, 0, 64, 64
1, 264023, Control_c, 0, 64, 48
1, 264045, Control_c, 0, 64, 0
1, 264061, Note_on_c, 0, 64, 83
1, 264062, Note_on_c, 0, 79, 92
1, 264069, Note_on_c, 0, 67, 80
1, 264071, Note_on_c, 0, 52, 84
1, 264090, Note_off_c, 0, 67, 71
1, 264100, Note_off_c, 0, 64, 59
1, 264120, Control_c, 0, 64, 25
1, 264135, Control_c, 0, 64, 36
1, 264139, Note_on_c, 0, 78, 89
1, 264149, Control_c, 0, 64, 46
1, 264156, Note_off_c, 0, 79, 52
1, 264160, Note_on_c, 0, 54, 80
1, 264164, Control_c, 0, 64, 56
1, 264176, Note_off_c, 0, 52, 26
1, 264179, Control_c, 0, 64, 64
1, 264193, Control_c, 0, 64, 72
1, 264208, Control_c, 0, 64, 76
1, 264223, Note_on_c, 0, 76, 91
1, 264223, Control_c, 0, 64, 77
1, 264224, Note_off_c, 0, 78, 47
1, 264238, Control_c, 0, 64, 78
1, 264246, Note_on_c, 0, 55, 67
1, 264252, Note_off_c, 0, 54, 63
1, 264253, Control_c, 0, 64, 81
1, 264267, Control_c, 0, 64, 87
1, 264282, Control_c, 0, 64, 99
1, 264297, Control_c, 0, 64, 127
1, 264309, Note_on_c, 0, 75, 93
1, 264320, Note_off_c, 0, 76, 65
1, 264331, Note_on_c, 0, 57, 76
1, 264334, Note_off_c, 0, 55, 64
1, 264356, Note_off_c, 0, 75, 64
1, 264373, Note_on_c, 0, 52, 65
1, 264386, Control_c, 0, 67, 17
1, 264388, Note_off_c, 0, 57, 61
1, 264395, Note_off_c, 0, 52, 63
1, 264400, Control_c, 0, 64, 71
1, 264400, Control_c, 0, 67, 38
1, 264401, Note_on_c, 0, 76, 94
1, 264404, Note_on_c, 0, 67, 76
1, 264415, Control_c, 0, 64, 48
1, 264415, Control_c, 0, 67, 49
1, 264425, Note_off_c, 0, 67, 71
1, 264430, Control_c, 0, 64, 0
1, 264430, Control_c, 0, 67, 64
1, 264445, Control_c, 0, 67, 96
1, 264446, Note_off_c, 0, 76, 57
1, 264460, Control_c, 0, 67, 127
1, 264469, Note_on_c, 0, 66, 80
1, 264489, Note_on_c, 0, 74, 75
1, 264498, Note_off_c, 0, 66, 61
1, 264555, Note_on_c, 0, 64, 63
1, 264559, Note_off_c, 0, 74, 65
1, 264573, Note_on_c, 0, 72, 70
1, 264595, Note_off_c, 0, 64, 58
1, 264632, Note_on_c, 0, 62, 66
1, 264645, Note_off_c, 0, 72, 61
1, 264655, Note_on_c, 0, 71, 71
1, 264703, Note_off_c, 0, 62, 63
1, 264714, Note_off_c, 0, 71, 61
1, 264731, Note_on_c, 0, 64, 63
1, 264740, Note_on_c, 0, 72, 72
1, 264801, Note_off_c, 0, 64, 58
1, 264815, Note_off_c, 0, 72, 54
1, 264830, Note_on_c, 0, 62, 62
1, 264835, Note_on_c, 0, 71, 67
1, 264901, Note_off_c, 0, 62, 57
1, 264906, Note_off_c, 0, 71, 64
1, 264916, Note_on_c, 0, 60, 61
1, 264925, Note_on_c, 0, 69, 63
1, 264973, Note_off_c, 0, 69, 60
1, 264990, Note_off_c, 0, 60, 63
1, 265001, Note_on_c, 0, 68, 66
1, 265010, Note_on_c, 0, 59, 62
1, 265052, Note_off_c, 0, 59, 60
1, 265059, Note_off_c, 0, 68, 61
1, 265085, Note_on_c, 0, 69, 66
1, 265098, Note_on_c, 0, 60, 64
1, 265148, Note_off_c, 0, 60, 60
1, 265161, Note_off_c, 0, 69, 59
1, 265174, Note_on_c, 0, 59, 63
1, 265175, Note_on_c, 0, 67, 67
1, 265260, Note_on_c, 0, 57, 56
1, 265262, Note_off_c, 0, 59, 55
1, 265267, Note_off_c, 0, 67, 58
1, 265269, Note_on_c, 0, 66, 65
1, 265326, Note_on_c, 0, 55, 61
1, 265327, Control_c, 0, 67, 98
1, 265331, Note_off_c, 0, 57, 62
1, 265340, Note_off_c, 0, 66, 62
1, 265342, Control_c, 0, 67, 39
1, 265346, Note_on_c, 0, 64, 55
1, 265357, Control_c, 0, 67, 0
1, 265360, Note_off_c, 0, 55, 66
1, 265370, Note_off_c, 0, 64, 63
1, 265441, Note_on_c, 0, 72, 78
1, 265445, Note_on_c, 0, 50, 70
1, 265459, Note_on_c, 0, 57, 54
1, 265459, Note_on_c, 0, 74, 55
1, 265461, Control_c, 0, 64, 27
1, 265476, Control_c, 0, 64, 37
1, 265479, Note_off_c, 0, 74, 40
1, 265491, Control_c, 0, 64, 41
1, 265506, Control_c, 0, 64, 45
1, 265516, Note_off_c, 0, 50, 63
1, 265518, Note_off_c, 0, 57, 50
1, 265521, Control_c, 0, 64, 51
1, 265525, Note_on_c, 0, 71, 82
1, 265529, Note_on_c, 0, 52, 72
1, 265543, Control_c, 0, 64, 56
1, 265558, Control_c, 0, 64, 60
1, 265566, Note_off_c, 0, 72, 61
1, 265572, Control_c, 0, 64, 63
1, 265587, Control_c, 0, 64, 66
1, 265602, Control_c, 0, 64, 69
1, 265614, Note_on_c, 0, 69, 87
1, 265616, Note_on_c, 0, 54, 79
1, 265617, Control_c, 0, 64, 71
1, 265618, Note_off_c, 0, 52, 65
1, 265632, Control_c, 0, 64, 74
1, 265646, Control_c, 0, 64, 77
1, 265649, Note_off_c, 0, 71, 62
1, 265661, Control_c, 0, 64, 78
1, 265676, Control_c, 0, 64, 78
1, 265691, Control_c, 0, 64, 78
1, 265698, Note_off_c, 0, 54, 64
1, 265700, Note_on_c, 0, 55, 77
1, 265700, Note_on_c, 0, 67, 88
1, 265706, Control_c, 0, 64, 75
1, 265712, Note_off_c, 0, 69, 62
1, 265721, Control_c, 0, 64, 65
1, 265735, Control_c, 0, 64, 50
1, 265750, Control_c, 0, 64, 0
1, 265783, Note_on_c, 0, 54, 82
1, 265784, Note_off_c, 0, 55, 66
1, 265792, Note_off_c, 0, 67, 56
1, 265793, Note_on_c, 0, 72, 86
1, 265814, Note_on_c, 0, 57, 70
1, 265817, Note_off_c, 0, 54, 66
1, 265822, Note_off_c, 0, 72, 63
1, 265825, Control_c, 0, 64, 38
1, 265839, Control_c, 0, 64, 51
1, 265841, Note_off_c, 0, 57, 65
1, 265854, Control_c, 0, 64, 63
1, 265869, Control_c, 0, 64, 73
1, 265884, Note_on_c, 0, 59, 74
1, 265884, Control_c, 0, 64, 88
1, 265889, Note_on_c, 0, 55, 70
1, 265899, Control_c, 0, 64, 90
1, 265958, Control_c, 0, 64, 87
1, 265965, Note_on_c, 0, 57, 71
1, 265965, Note_on_c, 0, 60, 80
1, 265968, Note_off_c, 0, 59, 60
1, 265971, Note_off_c, 0, 55, 65
1, 265972, Control_c, 0, 64, 81
1, 265987, Control_c, 0, 64, 73
1, 266002, Control_c, 0, 64, 62
1, 266017, Control_c, 0, 64, 47
1, 266032, Control_c, 0, 64, 0
1, 266048, Note_on_c, 0, 62, 88
1, 266051, Note_off_c, 0, 60, 66
1, 266061, Note_off_c, 0, 57, 62
1, 266062, Note_on_c, 0, 59, 76
1, 266109, Note_off_c, 0, 62, 63
1, 266125, Note_off_c, 0, 59, 61
1, 266132, Note_on_c, 0, 57, 73
1, 266132, Note_on_c, 0, 60, 83
1, 266199, Note_off_c, 0, 60, 58
1, 266221, Note_on_c, 0, 62, 88
1, 266225, Note_on_c, 0, 59, 78
1, 266225, Note_off_c, 0, 57, 63
1, 266314, Note_on_c, 0, 64, 87
1, 266319, Note_off_c, 0, 62, 65
1, 266320, Note_off_c, 0, 59, 63
1, 266323, Note_on_c, 0, 60, 77
1, 266371, Note_off_c, 0, 64, 62
1, 266399, Note_on_c, 0, 62, 83
1, 266403, Note_off_c, 0, 60, 65
1, 266406, Note_on_c, 0, 59, 80
1, 266484, Note_on_c, 0, 64, 84
1, 266490, Note_on_c, 0, 60, 83
1, 266491, Note_off_c, 0, 59, 62
1, 266491, Note_off_c, 0, 62, 59
1, 266551, Note_off_c, 0, 60, 65
1, 266567, Note_on_c, 0, 62, 80
1, 266571, Note_off_c, 0, 64, 62
1, 266573, Note_on_c, 0, 66, 87
1, 266587, Control_c, 0, 64, 22
1, 266602, Control_c, 0, 64, 36
1, 266617, Control_c, 0, 64, 42
1, 266618, Note_off_c, 0, 62, 61
1, 266620, Note_off_c, 0, 66, 60
1, 266632, Control_c, 0, 64, 48
1, 266641, Note_on_c, 0, 67, 64
1, 266647, Control_c, 0, 64, 54
1, 266653, Note_on_c, 0, 64, 80
1, 266661, Control_c, 0, 64, 61
1, 266676, Control_c, 0, 64, 67
1, 266691, Control_c, 0, 64, 71
1, 266705, Control_c, 0, 64, 74
1, 266720, Control_c, 0, 64, 75
1, 266725, Note_on_c, 0, 66, 79
1, 266727, Note_on_c, 0, 69, 82
1, 266729, Note_off_c, 0, 64, 63
1, 266732, Note_off_c, 0, 67, 61
1, 266746, Note_off_c, 0, 69, 73
1, 266752, Note_off_c, 0, 66, 61
1, 266765, Control_c, 0, 64, 71
1, 266779, Control_c, 0, 64, 62
1, 266794, Control_c, 0, 64, 47
1, 266809, Control_c, 0, 64, 0
1, 266831, Note_on_c, 0, 67, 87
1, 266834, Note_on_c, 0, 83, 90
1, 266837, Note_on_c, 0, 55, 82
1, 266844, Note_on_c, 0, 71, 68
1, 266860, Note_off_c, 0, 71, 70
1, 266860, Note_off_c, 0, 83, 65
1, 266867, Note_off_c, 0, 55, 65
1, 266868, Control_c, 0, 64, 35
1, 266879, Note_off_c, 0, 67, 60
1, 266883, Control_c, 0, 64, 46
1, 266898, Control_c, 0, 64, 56
1, 266909, Note_on_c, 0, 81, 88
1, 266912, Note_on_c, 0, 57, 72
1, 266913, Control_c, 0, 64, 63
1, 266928, Control_c, 0, 64, 68
1, 266943, Control_c, 0, 64, 71
1, 266987, Control_c, 0, 64, 72
1, 266994, Note_on_c, 0, 59, 73
1, 266995, Note_off_c, 0, 57, 61
1, 266999, Note_on_c, 0, 79, 92
1, 267002, Control_c, 0, 64, 75
1, 267009, Note_off_c, 0, 81, 56
1, 267017, Control_c, 0, 64, 80
1, 267040, Control_c, 0, 64, 86
1, 267055, Control_c, 0, 64, 97
1, 267070, Control_c, 0, 64, 127
1, 267079, Note_on_c, 0, 78, 97
1, 267085, Note_off_c, 0, 79, 65
1, 267093, Note_off_c, 0, 59, 64
1, 267095, Note_on_c, 0, 60, 74
1, 267129, Note_off_c, 0, 78, 69
1, 267158, Control_c, 0, 64, 94
1, 267158, Control_c, 0, 67, 10
1, 267170, Note_off_c, 0, 60, 64
1, 267172, Note_on_c, 0, 79, 95
1, 267173, Control_c, 0, 64, 64
1, 267173, Control_c, 0, 67, 11
1, 267175, Note_on_c, 0, 55, 82
1, 267180, Note_on_c, 0, 71, 73
1, 267188, Control_c, 0, 64, 40
1, 267188, Control_c, 0, 67, 17
1, 267198, Note_off_c, 0, 55, 72
1, 267203, Note_off_c, 0, 71, 71
1, 267203, Control_c, 0, 64, 0
1, 267203, Control_c, 0, 67, 38
1, 267217, Control_c, 0, 67, 66
1, 267232, Control_c, 0, 67, 100
1, 267247, Control_c, 0, 67, 127
1, 267258, Note_on_c, 0, 69, 71
1, 267262, Note_on_c, 0, 78, 84
1, 267265, Note_off_c, 0, 79, 61
1, 267326, Note_off_c, 0, 69, 61
1, 267349, Note_on_c, 0, 76, 74
1, 267351, Note_on_c, 0, 67, 59
1, 267354, Note_off_c, 0, 78, 63
1, 267415, Note_off_c, 0, 76, 65
1, 267420, Note_off_c, 0, 67, 63
1, 267423, Note_on_c, 0, 66, 63
1, 267426, Note_on_c, 0, 75, 75
1, 267479, Note_off_c, 0, 75, 64
1, 267480, Note_off_c, 0, 66, 60
1, 267518, Note_on_c, 0, 67, 62
1, 267521, Note_on_c, 0, 76, 65
1, 267582, Note_off_c, 0, 67, 55
1, 267598, Note_off_c, 0, 76, 64
1, 267601, Note_on_c, 0, 66, 67
1, 267605, Note_on_c, 0, 74, 64
1, 267648, Note_off_c, 0, 66, 62
1, 267666, Note_off_c, 0, 74, 66
1, 267682, Note_on_c, 0, 72, 64
1, 267684, Note_on_c, 0, 64, 60
1, 267754, Note_off_c, 0, 64, 62
1, 267755, Note_off_c, 0, 72, 62
1, 267769, Note_on_c, 0, 62, 61
1, 267771, Note_on_c, 0, 71, 50
1, 267800, Note_off_c, 0, 71, 64
1, 267803, Control_c, 0, 67, 121
1, 267813, Note_off_c, 0, 62, 64
1, 267819, Control_c, 0, 67, 108
1, 267834, Control_c, 0, 67, 95
1, 267848, Control_c, 0, 67, 81
1, 267863, Control_c, 0, 67, 67
1, 267878, Control_c, 0, 67, 54
1, 267891, Note_on_c, 0, 64, 61
1, 267893, Control_c, 0, 67, 44
1, 267899, Note_on_c, 0, 79, 68
1, 267908, Control_c, 0, 67, 35
1, 267922, Control_c, 0, 64, 15
1, 267922, Control_c, 0, 67, 30
1, 267937, Control_c, 0, 64, 24
1, 267937, Control_c, 0, 67, 26
1, 267952, Control_c, 0, 64, 32
1, 267952, Control_c, 0, 67, 21
1, 267966, Control_c, 0, 64, 41
1, 267966, Control_c, 0, 67, 17
1, 267968, Note_off_c, 0, 64, 60
1, 267981, Control_c, 0, 64, 52
1, 267981, Control_c, 0, 67, 14
1, 267987, Note_on_c, 0, 59, 60
1, 267991, Note_on_c, 0, 74, 54
1, 267996, Control_c, 0, 64, 61
1, 267996, Control_c, 0, 67, 11
1, 268011, Control_c, 0, 64, 66
1, 268011, Control_c, 0, 67, 9
1, 268026, Control_c, 0, 64, 70
1, 268026, Control_c, 0, 67, 0
1, 268040, Control_c, 0, 64, 71
1, 268055, Control_c, 0, 64, 71
1, 268063, Note_off_c, 0, 59, 60
1, 268070, Control_c, 0, 64, 73
1, 268080, Note_on_c, 0, 57, 59
1, 268085, Control_c, 0, 64, 76
1, 268090, Note_off_c, 0, 74, 55
1, 268099, Note_on_c, 0, 72, 47
1, 268100, Control_c, 0, 64, 81
1, 268114, Control_c, 0, 64, 86
1, 268127, Note_on_c, 0, 55, 60
1, 268129, Control_c, 0, 64, 90
1, 268136, Note_off_c, 0, 57, 59
1, 268141, Note_off_c, 0, 72, 52
1, 268144, Control_c, 0, 64, 91
1, 268151, Note_off_c, 0, 55, 67
1, 268153, Note_off_c, 0, 79, 57
1, 268159, Control_c, 0, 64, 91
1, 268168, Note_on_c, 0, 71, 66
1, 268174, Control_c, 0, 64, 86
1, 268189, Control_c, 0, 64, 74
1, 268192, Note_off_c, 0, 71, 69
1, 268204, Control_c, 0, 64, 61
1, 268219, Control_c, 0, 64, 48
1, 268233, Control_c, 0, 64, 35
1, 268236, Note_on_c, 0, 57, 73
1, 268248, Control_c, 0, 64, 37
1, 268260, Note_off_c, 0, 57, 66
1, 268263, Control_c, 0, 64, 47
1, 268264, Note_on_c, 0, 72, 70
1, 268278, Control_c, 0, 64, 58
1, 268293, Control_c, 0, 64, 67
1, 268307, Control_c, 0, 64, 75
1, 268320, Note_off_c, 0, 72, 60
1, 268322, Control_c, 0, 64, 75
1, 268339, Note_on_c, 0, 81, 76
1, 268341, Note_on_c, 0, 66, 68
1, 268366, Control_c, 0, 64, 76
1, 268381, Control_c, 0, 64, 77
1, 268396, Control_c, 0, 64, 79
1, 268411, Control_c, 0, 64, 84
1, 268416, Note_on_c, 0, 67, 67
1, 268422, Note_on_c, 0, 83, 80
1, 268425, Note_off_c, 0, 66, 53
1, 268425, Control_c, 0, 64, 90
1, 268427, Note_off_c, 0, 81, 60
1, 268440, Control_c, 0, 64, 97
1, 268455, Control_c, 0, 64, 104
1, 268470, Control_c, 0, 64, 108
1, 268484, Control_c, 0, 64, 108
1, 268499, Control_c, 0, 64, 108
1, 268504, Note_off_c, 0, 67, 61
1, 268508, Note_on_c, 0, 69, 60
1, 268508, Note_on_c, 0, 84, 55
1, 268510, Note_off_c, 0, 83, 62
1, 268514, Control_c, 0, 64, 95
1, 268536, Note_off_c, 0, 69, 62
1, 268536, Note_off_c, 0, 84, 61
1, 268537, Control_c, 0, 64, 76
1, 268552, Control_c, 0, 64, 62
1, 268566, Control_c, 0, 64, 43
1, 268581, Control_c, 0, 64, 0
1, 268595, Note_on_c, 0, 78, 92
1, 268608, Note_on_c, 0, 62, 77
1, 268612, Control_c, 0, 64, 12
1, 268627, Control_c, 0, 64, 35
1, 268642, Control_c, 0, 64, 48
1, 268656, Control_c, 0, 64, 60
1, 268671, Control_c, 0, 64, 68
1, 268686, Control_c, 0, 64, 75
1, 268690, Note_on_c, 0, 72, 81
1, 268693, Note_off_c, 0, 62, 61
1, 268696, Note_on_c, 0, 57, 68
1, 268701, Note_off_c, 0, 78, 57
1, 268731, Control_c, 0, 64, 76
1, 268745, Control_c, 0, 64, 77
1, 268756, Note_on_c, 0, 55, 67
1, 268760, Control_c, 0, 64, 80
1, 268766, Note_off_c, 0, 57, 57
1, 268775, Control_c, 0, 64, 84
1, 268776, Note_on_c, 0, 71, 77
1, 268784, Note_off_c, 0, 72, 56
1, 268789, Control_c, 0, 64, 88
1, 268804, Control_c, 0, 64, 92
1, 268819, Control_c, 0, 64, 99
1, 268834, Control_c, 0, 64, 107
1, 268835, Note_off_c, 0, 55, 66
1, 268847, Note_on_c, 0, 69, 80
1, 268849, Control_c, 0, 64, 113
1, 268852, Note_off_c, 0, 71, 65
1, 268873, Note_off_c, 0, 69, 66
1, 268878, Control_c, 0, 64, 103
1, 268893, Control_c, 0, 64, 88
1, 268907, Control_c, 0, 64, 71
1, 268922, Control_c, 0, 64, 59
1, 268937, Control_c, 0, 64, 39
1, 268943, Note_on_c, 0, 71, 86
1, 268946, Note_on_c, 0, 55, 73
1, 268952, Control_c, 0, 64, 0
1, 268989, Note_off_c, 0, 55, 65
1, 268993, Note_off_c, 0, 71, 65
1, 268997, Control_c, 0, 64, 33
1, 269011, Control_c, 0, 64, 47
1, 269018, Note_on_c, 0, 64, 69
1, 269024, Note_on_c, 0, 79, 84
1, 269026, Control_c, 0, 64, 60
1, 269041, Control_c, 0, 64, 72
1, 269056, Control_c, 0, 64, 99
1, 269071, Control_c, 0, 64, 122
1, 269072, Note_off_c, 0, 64, 60
1, 269086, Control_c, 0, 64, 127
1, 269106, Note_on_c, 0, 81, 86
1, 269110, Note_on_c, 0, 66, 77
1, 269134, Note_off_c, 0, 79, 61
1, 269186, Note_on_c, 0, 83, 79
1, 269192, Note_off_c, 0, 66, 61
1, 269202, Note_on_c, 0, 67, 50
1, 269209, Note_off_c, 0, 81, 57
1, 269211, Note_off_c, 0, 83, 69
1, 269228, Note_off_c, 0, 67, 58
1, 269262, Control_c, 0, 64, 68
1, 269285, Control_c, 0, 64, 48
1, 269287, Note_on_c, 0, 76, 97
1, 269296, Note_on_c, 0, 60, 74
1, 269300, Control_c, 0, 64, 0
1, 269344, Control_c, 0, 64, 12
1, 269359, Control_c, 0, 64, 36
1, 269374, Control_c, 0, 64, 46
1, 269378, Note_on_c, 0, 71, 81
1, 269382, Note_on_c, 0, 55, 66
1, 269388, Control_c, 0, 64, 56
1, 269404, Note_off_c, 0, 60, 60
1, 269404, Control_c, 0, 64, 62
1, 269419, Control_c, 0, 64, 67
1, 269433, Note_on_c, 0, 54, 69
1, 269434, Control_c, 0, 64, 70
1, 269449, Control_c, 0, 64, 72
1, 269459, Note_on_c, 0, 69, 82
1, 269461, Note_off_c, 0, 55, 56
1, 269464, Control_c, 0, 64, 74
1, 269478, Control_c, 0, 64, 80
1, 269489, Note_off_c, 0, 71, 65
1, 269493, Control_c, 0, 64, 93
1, 269508, Note_off_c, 0, 76, 57
1, 269508, Control_c, 0, 64, 127
1, 269518, Note_on_c, 0, 52, 75
1, 269525, Note_on_c, 0, 67, 96
1, 269536, Note_off_c, 0, 69, 64
1, 269538, Note_off_c, 0, 54, 63
1, 269546, Note_off_c, 0, 52, 70
1, 269562, Note_off_c, 0, 67, 67
1, 269582, Control_c, 0, 64, 94
1, 269597, Control_c, 0, 64, 65
1, 269611, Control_c, 0, 64, 43
1, 269620, Note_on_c, 0, 69, 97
1, 269621, Note_on_c, 0, 54, 86
1, 269626, Control_c, 0, 64, 0
1, 269671, Control_c, 0, 64, 37
1, 269685, Control_c, 0, 64, 53
1, 269700, Control_c, 0, 64, 70
1, 269701, Note_on_c, 0, 78, 98
1, 269712, Note_on_c, 0, 62, 81
1, 269715, Control_c, 0, 64, 127
1, 269721, Note_off_c, 0, 69, 60
1, 269726, Note_off_c, 0, 54, 63
1, 269768, Note_off_c, 0, 62, 62
1, 269792, Note_off_c, 0, 78, 63
1, 269794, Note_on_c, 0, 79, 86
1, 269797, Note_on_c, 0, 64, 66
1, 269843, Note_on_c, 0, 66, 91
1, 269855, Note_off_c, 0, 64, 64
1, 269861, Note_off_c, 0, 66, 72
1, 269864, Note_on_c, 0, 81, 99
1, 269912, Note_off_c, 0, 79, 58
1, 269937, Control_c, 0, 64, 78
1, 269952, Control_c, 0, 64, 53
1, 269967, Control_c, 0, 64, 0
1, 269980, Note_on_c, 0, 35, 73
1, 270078, Note_on_c, 0, 37, 61
1, 270081, Note_off_c, 0, 35, 62
1, 270153, Note_off_c, 0, 81, 56
1, 270167, Note_off_c, 0, 37, 64
1, 270168, Note_on_c, 0, 79, 76
1, 270174, Note_on_c, 0, 39, 71
1, 270180, Note_on_c, 0, 71, 67
1, 270258, Note_on_c, 0, 40, 79
1, 270260, Note_off_c, 0, 39, 66
1, 270287, Control_c, 0, 64, 18
1, 270320, Note_off_c, 0, 40, 64
1, 270332, Control_c, 0, 64, 16
1, 270347, Control_c, 0, 64, 0
1, 270348, Note_on_c, 0, 42, 89
1, 270407, Note_off_c, 0, 71, 56
1, 270424, Note_on_c, 0, 43, 89
1, 270465, Note_off_c, 0, 42, 60
1, 270465, Control_c, 0, 64, 27
1, 270480, Control_c, 0, 64, 0
1, 270509, Note_on_c, 0, 45, 83
1, 270513, Note_off_c, 0, 43, 63
1, 270522, Note_on_c, 0, 78, 99
1, 270529, Note_on_c, 0, 69, 84
1, 270552, Note_off_c, 0, 79, 61
1, 270573, Note_off_c, 0, 45, 0
1, 270583, Control_c, 0, 64, 25
1, 270588, Note_on_c, 0, 47, 92
1, 270591, Note_on_c, 0, 45, 51
1, 270598, Control_c, 0, 64, 31
1, 270613, Control_c, 0, 64, 0
1, 270618, Note_off_c, 0, 45, 59
1, 270675, Note_off_c, 0, 69, 58
1, 270679, Note_on_c, 0, 49, 96
1, 270696, Note_off_c, 0, 47, 65
1, 270702, Control_c, 0, 64, 22
1, 270717, Control_c, 0, 64, 25
1, 270731, Control_c, 0, 64, 8
1, 270746, Control_c, 0, 64, 0
1, 270755, Note_on_c, 0, 51, 94
1, 270794, Note_off_c, 0, 49, 65
1, 270825, Note_off_c, 0, 78, 64
1, 270839, Note_on_c, 0, 52, 89
1, 270849, Note_off_c, 0, 51, 65
1, 270857, Control_c, 0, 64, 18
1, 270860, Note_on_c, 0, 76, 98
1, 270861, Note_on_c, 0, 67, 87
1, 270872, Control_c, 0, 64, 28
1, 270886, Control_c, 0, 64, 37
1, 270901, Control_c, 0, 64, 41
1, 270916, Note_on_c, 0, 54, 92
1, 270916, Control_c, 0, 64, 37
1, 270928, Note_off_c, 0, 52, 68
1, 270931, Control_c, 0, 64, 8
1, 270943, Note_off_c, 0, 76, 0
1, 270946, Control_c, 0, 64, 0
1, 270953, Note_off_c, 0, 54, 64
1, 270980, Poly_aftertouch_c, 0, 76, 127
1, 270991, Control_c, 0, 64, 32
1, 270997, Note_off_c, 0, 67, 61
1, 271006, Control_c, 0, 64, 49
1, 271021, Note_on_c, 0, 59, 93
1, 271021, Control_c, 0, 64, 62
1, 271027, Note_on_c, 0, 55, 91
1, 271036, Control_c, 0, 64, 74
1, 271050, Control_c, 0, 64, 81
1, 271080, Control_c, 0, 64, 80
1, 271082, Note_off_c, 0, 55, 0
1, 271095, Control_c, 0, 64, 76
1, 271102, Note_on_c, 0, 57, 92
1, 271107, Note_off_c, 0, 59, 64
1, 271110, Control_c, 0, 64, 71
1, 271119, Poly_aftertouch_c, 0, 55, 127
1, 271125, Control_c, 0, 64, 64
1, 271140, Control_c, 0, 64, 51
1, 271155, Control_c, 0, 64, 0
1, 271163, Poly_aftertouch_c, 0, 76, 0
1, 271179, Note_off_c, 0, 57, 59
1, 271183, Poly_aftertouch_c, 0, 55, 0
1, 271192, Note_on_c, 0, 59, 90
1, 271196, Note_on_c, 0, 66, 94
1, 271196, Note_on_c, 0, 75, 89
1, 271202, Poly_aftertouch_c, 0, 57, 0
1, 271213, Note_on_c, 0, 57, 46
1, 271229, Control_c, 0, 64, 16
1, 271243, Note_on_c, 0, 65, 42
1, 271244, Control_c, 0, 64, 38
1, 271251, Note_on_c, 0, 47, 94
1, 271258, Control_c, 0, 64, 57
1, 271265, Note_off_c, 0, 59, 57
1, 271273, Control_c, 0, 64, 83
1, 271274, Note_off_c, 0, 65, 57
1, 271279, Note_off_c, 0, 66, 57
1, 271288, Note_off_c, 0, 47, 65
1, 271288, Control_c, 0, 64, 127
1, 271318, Note_off_c, 0, 57, 29
1, 271332, Note_off_c, 0, 75, 56
1, 271347, Control_c, 0, 64, 95
1, 271362, Control_c, 0, 64, 53
1, 271371, Note_on_c, 0, 62, 94
1, 271373, Note_on_c, 0, 59, 91
1, 271376, Control_c, 0, 64, 0
1, 271386, Note_on_c, 0, 64, 86
1, 271388, Note_off_c, 0, 59, 75
1, 271388, Note_off_c, 0, 62, 74
1, 271459, Note_on_c, 0, 66, 84
1, 271469, Note_off_c, 0, 64, 61
1, 271569, Note_on_c, 0, 68, 87
1, 271570, Note_on_c, 0, 60, 96
1, 271578, Note_on_c, 0, 57, 81
1, 271580, Note_off_c, 0, 66, 59
1, 271623, Note_off_c, 0, 57, 61
1, 271629, Note_off_c, 0, 68, 63
1, 271648, Note_on_c, 0, 69, 93
1, 271665, Control_c, 0, 64, 11
1, 271680, Control_c, 0, 64, 38
1, 271695, Control_c, 0, 64, 46
1, 271709, Control_c, 0, 64, 51
1, 271724, Control_c, 0, 64, 54
1, 271739, Note_on_c, 0, 71, 92
1, 271739, Control_c, 0, 64, 60
1, 271752, Note_off_c, 0, 69, 64
1, 271754, Note_on_c, 0, 52, 98
1, 271754, Control_c, 0, 64, 65
1, 271769, Control_c, 0, 64, 70
1, 271772, Note_off_c, 0, 60, 67
1, 271784, Control_c, 0, 64, 74
1, 271796, Note_off_c, 0, 52, 69
1, 271799, Control_c, 0, 64, 78
1, 271814, Control_c, 0, 64, 83
1, 271819, Note_on_c, 0, 72, 103
1, 271829, Control_c, 0, 64, 88
1, 271839, Note_off_c, 0, 71, 67
1, 271844, Control_c, 0, 64, 96
1, 271859, Control_c, 0, 64, 98
1, 271880, Note_off_c, 0, 72, 67
1, 271888, Control_c, 0, 64, 96
1, 271903, Control_c, 0, 64, 85
1, 271918, Control_c, 0, 64, 70
1, 271920, Note_on_c, 0, 59, 100
1, 271922, Note_on_c, 0, 74, 98
1, 271927, Note_on_c, 0, 50, 81
1, 271933, Control_c, 0, 64, 53
1, 271948, Control_c, 0, 64, 0
1, 272003, Note_on_c, 0, 76, 100
1, 272018, Note_off_c, 0, 74, 66
1, 272037, Control_c, 0, 64, 28
1, 272049, Note_off_c, 0, 50, 62
1, 272052, Control_c, 0, 64, 39
1, 272067, Control_c, 0, 64, 51
1, 272081, Control_c, 0, 64, 61
1, 272091, Note_on_c, 0, 78, 101
1, 272096, Control_c, 0, 64, 72
1, 272111, Control_c, 0, 64, 89
1, 272115, Note_off_c, 0, 76, 68
1, 272120, Note_off_c, 0, 59, 56
1, 272125, Control_c, 0, 64, 94
1, 272140, Control_c, 0, 64, 97
1, 272155, Control_c, 0, 64, 108
1, 272169, Note_on_c, 0, 80, 99
1, 272170, Control_c, 0, 64, 127
1, 272195, Note_off_c, 0, 78, 67
1, 272224, Note_off_c, 0, 80, 69
1, 272244, Control_c, 0, 64, 93
1, 272259, Control_c, 0, 64, 62
1, 272276, Note_on_c, 0, 81, 101
1, 272281, Control_c, 0, 64, 25
1, 272283, Note_on_c, 0, 57, 95
1, 272293, Note_on_c, 0, 48, 83
1, 272296, Control_c, 0, 64, 0
1, 272319, Note_off_c, 0, 81, 68
1, 272355, Control_c, 0, 64, 35
1, 272360, Note_on_c, 0, 83, 99
1, 272370, Control_c, 0, 64, 51
1, 272372, Note_on_c, 0, 81, 54
1, 272385, Control_c, 0, 64, 65
1, 272395, Note_off_c, 0, 81, 62
1, 272400, Control_c, 0, 64, 127
1, 272414, Note_off_c, 0, 57, 62
1, 272421, Note_off_c, 0, 48, 62
1, 272463, Note_on_c, 0, 84, 100
1, 272483, Note_off_c, 0, 83, 62
1, 272541, Note_on_c, 0, 86, 98
1, 272560, Note_off_c, 0, 84, 65
1, 272608, Control_c, 0, 64, 76
1, 272623, Control_c, 0, 64, 53
1, 272637, Control_c, 0, 64, 0
1, 272654, Note_on_c, 0, 88, 98
1, 272655, Note_on_c, 0, 47, 70
1, 272663, Note_on_c, 0, 56, 96
1, 272690, Note_off_c, 0, 47, 68
1, 272708, Note_off_c, 0, 56, 59
1, 272708, Note_off_c, 0, 86, 44
1, 272711, Control_c, 0, 64, 31
1, 272712, Note_off_c, 0, 88, 66
1, 272726, Control_c, 0, 64, 43
1, 272735, Note_on_c, 0, 76, 97
1, 272741, Control_c, 0, 64, 53
1, 272756, Control_c, 0, 64, 61
1, 272770, Control_c, 0, 64, 74
1, 272785, Control_c, 0, 64, 127
1, 272863, Note_on_c, 0, 81, 92
1, 272866, Note_on_c, 0, 57, 99
1, 272869, Note_on_c, 0, 79, 81
1, 272869, Note_off_c, 0, 76, 69
1, 272872, Note_on_c, 0, 45, 90
1, 272887, Note_off_c, 0, 79, 59
1, 272893, Note_off_c, 0, 81, 67
1, 272896, Note_off_c, 0, 45, 69
1, 272899, Note_off_c, 0, 57, 68
1, 273086, Note_on_c, 0, 52, 112
1, 273104, Control_c, 0, 64, 72
1, 273113, Note_off_c, 0, 52, 73
1, 273119, Control_c, 0, 64, 30
1, 273134, Control_c, 0, 64, 0
1, 273352, Note_on_c, 0, 48, 97
1, 273396, Note_on_c, 0, 47, 20
1, 273397, Note_off_c, 0, 47, 127
1, 273561, Note_on_c, 0, 60, 95
1, 273584, Note_off_c, 0, 60, 70
1, 273791, Note_on_c, 0, 57, 99
1, 273884, Note_off_c, 0, 48, 61
1, 273900, Note_on_c, 0, 50, 55
1, 273981, Note_off_c, 0, 50, 64
1, 273987, Note_on_c, 0, 69, 88
1, 273989, Note_on_c, 0, 52, 64
1, 274006, Note_off_c, 0, 69, 69
1, 274043, Note_off_c, 0, 52, 63
1, 274065, Note_on_c, 0, 53, 63
1, 274167, Note_off_c, 0, 57, 64
1, 274173, Note_on_c, 0, 47, 90
1, 274173, Note_on_c, 0, 68, 95
1, 274187, Note_off_c, 0, 53, 66
1, 274194, Control_c, 0, 64, 14
1, 274195, Note_off_c, 0, 47, 72
1, 274209, Control_c, 0, 64, 47
1, 274222, Note_off_c, 0, 68, 66
1, 274224, Control_c, 0, 64, 59
1, 274239, Control_c, 0, 64, 64
1, 274254, Control_c, 0, 64, 69
1, 274260, Note_on_c, 0, 59, 87
1, 274269, Control_c, 0, 64, 81
1, 274283, Control_c, 0, 64, 105
1, 274298, Control_c, 0, 64, 127
1, 274347, Note_on_c, 0, 60, 92
1, 274358, Note_off_c, 0, 59, 57
1, 274434, Note_on_c, 0, 62, 96
1, 274453, Note_off_c, 0, 60, 64
1, 274461, Control_c, 0, 64, 72
1, 274475, Control_c, 0, 64, 52
1, 274490, Control_c, 0, 64, 0
1, 274499, Note_off_c, 0, 62, 67
1, 274515, Note_on_c, 0, 56, 92
1, 274572, Control_c, 0, 64, 30
1, 274587, Control_c, 0, 64, 50
1, 274601, Control_c, 0, 64, 62
1, 274610, Note_on_c, 0, 69, 94
1, 274616, Control_c, 0, 64, 60
1, 274631, Control_c, 0, 64, 43
1, 274646, Control_c, 0, 64, 0
1, 274663, Note_off_c, 0, 69, 61
1, 274684, Note_off_c, 0, 56, 65
1, 274685, Note_on_c, 0, 52, 71
1, 274690, Control_c, 0, 64, 47
1, 274701, Note_on_c, 0, 71, 85
1, 274705, Note_on_c, 0, 74, 72
1, 274705, Control_c, 0, 64, 93
1, 274720, Control_c, 0, 64, 127
1, 274722, Note_off_c, 0, 52, 62
1, 274735, Control_c, 0, 64, 97
1, 274750, Control_c, 0, 64, 57
1, 274750, Control_c, 0, 67, 26
1, 274765, Control_c, 0, 64, 0
1, 274765, Control_c, 0, 67, 43
1, 274777, Note_on_c, 0, 72, 89
1, 274780, Note_off_c, 0, 71, 68
1, 274780, Control_c, 0, 67, 64
1, 274785, Note_off_c, 0, 74, 60
1, 274794, Control_c, 0, 67, 102
1, 274797, Note_off_c, 0, 72, 68
1, 274809, Control_c, 0, 67, 127
1, 274928, Note_on_c, 0, 72, 72
1, 274937, Note_on_c, 0, 52, 44
1, 274952, Note_on_c, 0, 57, 38
1, 275108, Note_off_c, 0, 57, 38
1, 275130, Note_on_c, 0, 84, 71
1, 275137, Note_on_c, 0, 64, 51
1, 275153, Note_off_c, 0, 84, 66
1, 275159, Note_off_c, 0, 64, 61
1, 275298, Note_off_c, 0, 72, 62
1, 275331, Note_on_c, 0, 81, 65
1, 275340, Note_on_c, 0, 60, 44
1, 275380, Control_c, 0, 64, 15
1, 275395, Control_c, 0, 64, 26
1, 275410, Control_c, 0, 64, 29
1, 275418, Note_on_c, 0, 74, 63
1, 275424, Control_c, 0, 64, 34
1, 275439, Control_c, 0, 64, 43
1, 275454, Control_c, 0, 64, 54
1, 275469, Control_c, 0, 64, 64
1, 275483, Control_c, 0, 64, 71
1, 275494, Note_off_c, 0, 74, 62
1, 275495, Note_on_c, 0, 76, 76
1, 275498, Control_c, 0, 64, 77
1, 275513, Control_c, 0, 64, 80
1, 275528, Control_c, 0, 64, 81
1, 275543, Control_c, 0, 64, 83
1, 275558, Control_c, 0, 64, 86
1, 275572, Control_c, 0, 64, 88
1, 275591, Note_on_c, 0, 77, 75
1, 275601, Note_off_c, 0, 76, 62
1, 275602, Control_c, 0, 64, 81
1, 275617, Note_off_c, 0, 81, 37
1, 275617, Control_c, 0, 64, 69
1, 275632, Control_c, 0, 64, 59
1, 275646, Note_off_c, 0, 77, 63
1, 275647, Control_c, 0, 64, 41
1, 275662, Control_c, 0, 64, 0
1, 275680, Note_on_c, 0, 71, 77
1, 275691, Control_c, 0, 64, 18
1, 275695, Note_off_c, 0, 52, 57
1, 275706, Control_c, 0, 64, 35
1, 275711, Note_off_c, 0, 71, 63
1, 275721, Control_c, 0, 64, 47
1, 275727, Note_off_c, 0, 60, 65
1, 275736, Control_c, 0, 64, 56
1, 275750, Control_c, 0, 64, 62
1, 275760, Note_on_c, 0, 62, 65
1, 275765, Control_c, 0, 64, 65
1, 275773, Note_on_c, 0, 83, 73
1, 275780, Control_c, 0, 64, 67
1, 275807, Note_off_c, 0, 62, 57
1, 275811, Control_c, 0, 64, 68
1, 275826, Control_c, 0, 64, 69
1, 275840, Control_c, 0, 64, 72
1, 275844, Note_on_c, 0, 84, 75
1, 275854, Note_off_c, 0, 83, 57
1, 275855, Control_c, 0, 64, 75
1, 275858, Note_on_c, 0, 64, 62
1, 275870, Control_c, 0, 64, 78
1, 275885, Control_c, 0, 64, 82
1, 275899, Control_c, 0, 64, 92
1, 275914, Control_c, 0, 64, 127
1, 275934, Note_on_c, 0, 86, 75
1, 275936, Note_on_c, 0, 65, 57
1, 275948, Note_off_c, 0, 84, 53
1, 275955, Note_off_c, 0, 86, 68
1, 275966, Note_off_c, 0, 64, 58
1, 275975, Note_off_c, 0, 65, 64
1, 275988, Control_c, 0, 64, 86
1, 276003, Control_c, 0, 64, 59
1, 276011, Note_on_c, 0, 60, 56
1, 276026, Control_c, 0, 64, 15
1, 276037, Note_on_c, 0, 80, 76
1, 276040, Note_off_c, 0, 60, 61
1, 276040, Control_c, 0, 64, 0
1, 276212, Note_on_c, 0, 40, 62
1, 276216, Note_on_c, 0, 74, 68
1, 276238, Note_off_c, 0, 74, 72
1, 276239, Note_off_c, 0, 40, 59
1, 276416, Note_on_c, 0, 71, 62
1, 276416, Note_off_c, 0, 80, 60
1, 276428, Note_on_c, 0, 52, 52
1, 276616, Note_on_c, 0, 62, 50
1, 276618, Note_on_c, 0, 83, 62
1, 276635, Note_off_c, 0, 83, 68
1, 276641, Note_off_c, 0, 62, 59
1, 276794, Note_off_c, 0, 71, 65
1, 276821, Note_on_c, 0, 80, 68
1, 276834, Note_on_c, 0, 59, 47
1, 276848, Control_c, 0, 64, 18
1, 276863, Control_c, 0, 64, 28
1, 276878, Control_c, 0, 64, 34
1, 276893, Control_c, 0, 64, 42
1, 276908, Control_c, 0, 64, 54
1, 276917, Note_off_c, 0, 80, 58
1, 276922, Note_on_c, 0, 72, 56
1, 276923, Control_c, 0, 64, 62
1, 276938, Control_c, 0, 64, 67
1, 276953, Control_c, 0, 64, 73
1, 276968, Control_c, 0, 64, 73
1, 276991, Note_off_c, 0, 72, 58
1, 276997, Control_c, 0, 64, 74
1, 276998, Note_on_c, 0, 74, 59
1, 277012, Control_c, 0, 64, 76
1, 277027, Control_c, 0, 64, 80
1, 277041, Control_c, 0, 64, 84
1, 277056, Control_c, 0, 64, 87
1, 277080, Note_on_c, 0, 76, 74
1, 277080, Note_off_c, 0, 74, 62
1, 277086, Control_c, 0, 64, 83
1, 277101, Control_c, 0, 64, 71
1, 277116, Control_c, 0, 64, 61
1, 277130, Control_c, 0, 64, 46
1, 277135, Note_off_c, 0, 76, 66
1, 277145, Control_c, 0, 64, 23
1, 277160, Control_c, 0, 64, 17
1, 277166, Note_on_c, 0, 69, 71
1, 277175, Control_c, 0, 64, 27
1, 277188, Note_off_c, 0, 52, 63
1, 277190, Note_off_c, 0, 69, 67
1, 277190, Control_c, 0, 64, 42
1, 277204, Control_c, 0, 64, 53
1, 277219, Control_c, 0, 64, 61
1, 277229, Note_off_c, 0, 59, 60
1, 277234, Control_c, 0, 64, 65
1, 277248, Control_c, 0, 64, 68
1, 277253, Note_on_c, 0, 60, 70
1, 277260, Note_on_c, 0, 81, 68
1, 277263, Control_c, 0, 64, 68
1, 277278, Control_c, 0, 64, 69
1, 277293, Control_c, 0, 64, 69
1, 277308, Control_c, 0, 64, 72
1, 277309, Note_off_c, 0, 60, 61
1, 277322, Control_c, 0, 64, 76
1, 277337, Control_c, 0, 64, 82
1, 277339, Note_on_c, 0, 83, 72
1, 277349, Note_on_c, 0, 62, 65
1, 277349, Note_off_c, 0, 81, 49
1, 277352, Control_c, 0, 64, 90
1, 277367, Control_c, 0, 64, 100
1, 277382, Control_c, 0, 64, 127
1, 277423, Note_on_c, 0, 84, 77
1, 277424, Note_off_c, 0, 62, 61
1, 277430, Note_on_c, 0, 64, 55
1, 277439, Note_off_c, 0, 83, 61
1, 277442, Control_c, 0, 64, 101
1, 277452, Note_off_c, 0, 64, 60
1, 277453, Note_off_c, 0, 84, 63
1, 277457, Control_c, 0, 64, 69
1, 277471, Control_c, 0, 64, 47
1, 277486, Control_c, 0, 64, 0
1, 277525, Note_on_c, 0, 48, 67
1, 277525, Note_on_c, 0, 84, 72
1, 277540, Note_off_c, 0, 84, 69
1, 277549, Note_on_c, 0, 76, 38
1, 277550, Note_off_c, 0, 76, 127
1, 277605, Note_off_c, 0, 48, 57
1, 277608, Note_on_c, 0, 50, 63
1, 277692, Note_off_c, 0, 50, 64
1, 277697, Note_on_c, 0, 52, 67
1, 277703, Note_on_c, 0, 83, 75
1, 277707, Note_on_c, 0, 74, 67
1, 277724, Note_off_c, 0, 83, 73
1, 277725, Note_off_c, 0, 74, 69
1, 277778, Note_off_c, 0, 52, 63
1, 277796, Note_on_c, 0, 53, 61
1, 277885, Note_on_c, 0, 52, 79
1, 277888, Note_off_c, 0, 53, 65
1, 277889, Note_on_c, 0, 84, 79
1, 277892, Note_on_c, 0, 76, 71
1, 277907, Note_off_c, 0, 76, 70
1, 277908, Note_off_c, 0, 52, 69
1, 277909, Note_off_c, 0, 84, 70
1, 278062, Note_on_c, 0, 83, 79
1, 278063, Note_on_c, 0, 62, 80
1, 278070, Note_on_c, 0, 53, 68
1, 278073, Note_on_c, 0, 74, 64
1, 278083, Note_off_c, 0, 62, 71
1, 278083, Note_off_c, 0, 83, 68
1, 278089, Note_off_c, 0, 74, 68
1, 278091, Note_off_c, 0, 53, 67
1, 278240, Note_on_c, 0, 81, 79
1, 278243, Note_on_c, 0, 62, 86
1, 278252, Note_on_c, 0, 53, 75
1, 278253, Note_on_c, 0, 72, 63
1, 278269, Note_off_c, 0, 62, 72
1, 278271, Note_off_c, 0, 81, 63
1, 278277, Note_off_c, 0, 53, 67
1, 278306, Note_on_c, 0, 83, 59
1, 278342, Note_off_c, 0, 83, 66
1, 278358, Note_on_c, 0, 81, 71
1, 278387, Note_off_c, 0, 81, 64
1, 278405, Note_on_c, 0, 83, 67
1, 278416, Note_on_c, 0, 60, 87
1, 278418, Note_on_c, 0, 52, 86
1, 278433, Note_off_c, 0, 60, 74
1, 278439, Note_off_c, 0, 52, 72
1, 278440, Note_off_c, 0, 83, 67
1, 278442, Note_on_c, 0, 81, 71
1, 278502, Note_off_c, 0, 81, 63
1, 278509, Note_on_c, 0, 80, 78
1, 278549, Note_off_c, 0, 72, 43
1, 278553, Note_on_c, 0, 81, 76
1, 278563, Note_off_c, 0, 80, 63
1, 278595, Note_off_c, 0, 81, 64
1, 278604, Note_on_c, 0, 62, 83
1, 278612, Note_on_c, 0, 53, 75
1, 278624, Note_off_c, 0, 62, 70
1, 278631, Note_off_c, 0, 53, 66
1, 278795, Note_on_c, 0, 83, 83
1, 278800, Note_on_c, 0, 60, 73
1, 278805, Note_on_c, 0, 74, 66
1, 278811, Note_on_c, 0, 52, 60
1, 278813, Note_off_c, 0, 83, 72
1, 278822, Note_off_c, 0, 74, 69
1, 278825, Note_off_c, 0, 60, 66
1, 278834, Note_off_c, 0, 52, 61
1, 278989, Note_on_c, 0, 83, 83
1, 278992, Note_on_c, 0, 59, 67
1, 278998, Note_on_c, 0, 74, 67
1, 279003, Note_on_c, 0, 50, 50
1, 279015, Note_off_c, 0, 83, 71
1, 279021, Note_off_c, 0, 74, 69
1, 279185, Note_on_c, 0, 81, 88
1, 279195, Note_on_c, 0, 72, 66
1, 279203, Note_off_c, 0, 81, 71
1, 279211, Note_off_c, 0, 72, 66
1, 279370, Note_on_c, 0, 83, 84
1, 279374, Note_off_c, 0, 59, 63
1, 279379, Note_off_c, 0, 50, 65
1, 279382, Note_on_c, 0, 74, 63
1, 279388, Note_off_c, 0, 83, 70
1, 279399, Note_off_c, 0, 74, 68
1, 279544, Note_on_c, 0, 81, 84
1, 279552, Note_on_c, 0, 60, 75
1, 279555, Note_on_c, 0, 52, 74
1, 279558, Note_on_c, 0, 72, 64
1, 279566, Note_off_c, 0, 81, 66
1, 279569, Control_c, 0, 67, 114
1, 279573, Note_off_c, 0, 60, 71
1, 279576, Note_off_c, 0, 72, 64
1, 279582, Note_off_c, 0, 52, 70
1, 279583, Control_c, 0, 67, 92
1, 279598, Control_c, 0, 67, 69
1, 279613, Control_c, 0, 67, 59
1, 279628, Control_c, 0, 67, 55
1, 279642, Control_c, 0, 67, 53
1, 279657, Control_c, 0, 67, 51
1, 279672, Control_c, 0, 67, 47
1, 279687, Control_c, 0, 67, 43
1, 279702, Control_c, 0, 67, 39
1, 279710, Note_on_c, 0, 81, 87
1, 279716, Control_c, 0, 67, 35
1, 279727, Note_on_c, 0, 71, 65
1, 279730, Note_on_c, 0, 60, 70
1, 279731, Control_c, 0, 67, 29
1, 279735, Note_on_c, 0, 52, 72
1, 279746, Control_c, 0, 67, 21
1, 279753, Note_off_c, 0, 60, 70
1, 279767, Control_c, 0, 67, 15
1, 279770, Note_off_c, 0, 52, 69
1, 279771, Note_off_c, 0, 81, 56
1, 279775, Note_on_c, 0, 80, 76
1, 279782, Control_c, 0, 67, 11
1, 279799, Control_c, 0, 67, 10
1, 279802, Note_off_c, 0, 71, 0
1, 279802, Note_on_c, 0, 71, 27
1, 279814, Control_c, 0, 67, 9
1, 279815, Note_off_c, 0, 80, 62
1, 279828, Control_c, 0, 67, 0
1, 279829, Note_on_c, 0, 81, 67
1, 279863, Note_on_c, 0, 80, 45
1, 279879, Note_off_c, 0, 81, 0
1, 279889, Note_off_c, 0, 80, 57
1, 279895, Note_on_c, 0, 81, 59
1, 279904, Note_on_c, 0, 59, 89
1, 279907, Note_on_c, 0, 50, 83
1, 279929, Note_off_c, 0, 59, 65
1, 279931, Note_off_c, 0, 50, 70
1, 279941, Note_off_c, 0, 81, 63
1, 279943, Note_on_c, 0, 80, 65
1, 279946, Note_off_c, 0, 71, 49
1, 279980, Note_off_c, 0, 80, 63
1, 279991, Note_on_c, 0, 78, 43
1, 280017, Note_on_c, 0, 80, 71
1, 280024, Note_off_c, 0, 78, 61
1, 280069, Note_off_c, 0, 80, 62
1, 280082, Note_on_c, 0, 59, 84
1, 280086, Note_on_c, 0, 50, 77
1, 280101, Note_off_c, 0, 59, 69
1, 280107, Note_off_c, 0, 50, 68
1, 280267, Note_on_c, 0, 81, 74
1, 280267, Note_on_c, 0, 57, 67
1, 280279, Note_on_c, 0, 72, 54
1, 280282, Note_on_c, 0, 48, 53
1, 280289, Note_off_c, 0, 81, 69
1, 280302, Note_off_c, 0, 72, 60
1, 280451, Note_off_c, 0, 48, 65
1, 280455, Note_on_c, 0, 81, 85
1, 280456, Note_off_c, 0, 57, 64
1, 280465, Note_on_c, 0, 72, 66
1, 280475, Note_off_c, 0, 81, 69
1, 280482, Note_off_c, 0, 72, 65
1, 280654, Note_on_c, 0, 62, 89
1, 280654, Note_on_c, 0, 79, 99
1, 280658, Note_on_c, 0, 71, 88
1, 280662, Note_on_c, 0, 59, 73
1, 280676, Note_off_c, 0, 71, 75
1, 280680, Note_off_c, 0, 79, 64
1, 280684, Note_off_c, 0, 59, 67
1, 280688, Note_off_c, 0, 62, 64
1, 280834, Note_on_c, 0, 62, 78
1, 280840, Note_on_c, 0, 59, 64
1, 280858, Note_off_c, 0, 62, 68
1, 280864, Note_off_c, 0, 59, 65
1, 281018, Note_on_c, 0, 60, 55
1, 281033, Note_on_c, 0, 57, 48
1, 281033, Note_on_c, 0, 79, 67
1, 281046, Note_on_c, 0, 71, 50
1, 281060, Note_off_c, 0, 79, 62
1, 281068, Note_off_c, 0, 71, 62
1, 281215, Note_on_c, 0, 79, 80
1, 281224, Note_on_c, 0, 71, 62
1, 281245, Note_off_c, 0, 79, 62
1, 281247, Note_off_c, 0, 60, 65
1, 281250, Note_off_c, 0, 71, 68
1, 281253, Note_off_c, 0, 57, 62
1, 281403, Note_on_c, 0, 69, 89
1, 281406, Note_on_c, 0, 77, 84
1, 281407, Note_on_c, 0, 60, 79
1, 281412, Note_on_c, 0, 57, 78
1, 281424, Note_off_c, 0, 69, 69
1, 281438, Note_off_c, 0, 57, 68
1, 281439, Note_off_c, 0, 77, 66
1, 281444, Note_off_c, 0, 60, 66
1, 281448, Note_on_c, 0, 79, 21
1, 281449, Note_off_c, 0, 79, 127
1, 281594, Note_on_c, 0, 57, 74
1, 281594, Note_on_c, 0, 60, 71
1, 281623, Note_off_c, 0, 60, 66
1, 281630, Note_off_c, 0, 57, 61
1, 281773, Note_on_c, 0, 77, 97
1, 281776, Note_on_c, 0, 74, 86
1, 281782, Note_on_c, 0, 56, 88
1, 281783, Note_on_c, 0, 59, 85
1, 281813, Note_off_c, 0, 74, 67
1, 281821, Note_off_c, 0, 59, 65
1, 281824, Note_off_c, 0, 77, 66
1, 281830, Note_off_c, 0, 56, 64
1, 281967, Note_on_c, 0, 74, 66
1, 281967, Note_on_c, 0, 77, 68
1, 281969, Note_on_c, 0, 56, 65
1, 281969, Note_on_c, 0, 59, 67
1, 281999, Note_off_c, 0, 59, 63
1, 282004, Note_off_c, 0, 74, 62
1, 282013, Note_off_c, 0, 56, 65
1, 282014, Note_off_c, 0, 77, 54
1, 282153, Note_on_c, 0, 57, 90
1, 282154, Note_on_c, 0, 76, 95
1, 282154, Note_on_c, 0, 60, 85
1, 282155, Note_on_c, 0, 72, 90
1, 282178, Note_off_c, 0, 60, 68
1, 282187, Note_off_c, 0, 57, 66
1, 282198, Note_off_c, 0, 72, 66
1, 282207, Note_off_c, 0, 76, 65
1, 282339, Note_on_c, 0, 48, 66
1, 282343, Note_on_c, 0, 45, 61
1, 282346, Note_on_c, 0, 72, 68
1, 282351, Note_on_c, 0, 76, 65
1, 282366, Note_off_c, 0, 48, 66
1, 282375, Note_off_c, 0, 45, 64
1, 282375, Note_off_c, 0, 72, 63
1, 282388, Note_off_c, 0, 76, 61
1, 282521, Note_on_c, 0, 74, 94
1, 282524, Note_on_c, 0, 50, 95
1, 282524, Note_on_c, 0, 47, 91
1, 282526, Note_on_c, 0, 71, 94
1, 282565, Note_off_c, 0, 50, 65
1, 282566, Note_off_c, 0, 71, 65
1, 282569, Note_off_c, 0, 74, 69
1, 282570, Note_off_c, 0, 47, 65
1, 282702, Note_on_c, 0, 50, 72
1, 282707, Note_on_c, 0, 47, 70
1, 282709, Note_on_c, 0, 72, 81
1, 282715, Note_on_c, 0, 64, 74
1, 282738, Note_off_c, 0, 50, 63
1, 282739, Note_off_c, 0, 47, 66
1, 282739, Note_off_c, 0, 64, 69
1, 282762, Note_off_c, 0, 72, 63
1, 282897, Note_on_c, 0, 52, 99
1, 282897, Note_on_c, 0, 71, 92
1, 282898, Note_on_c, 0, 48, 90
1, 282900, Note_on_c, 0, 64, 85
1, 282941, Control_c, 0, 64, 23
1, 282950, Note_off_c, 0, 64, 64
1, 282950, Note_off_c, 0, 52, 67
1, 282956, Note_off_c, 0, 48, 64
1, 282956, Control_c, 0, 64, 44
1, 282965, Note_on_c, 0, 69, 87
1, 282971, Control_c, 0, 64, 59
1, 282971, Note_off_c, 0, 71, 67
1, 282986, Control_c, 0, 64, 86
1, 283001, Control_c, 0, 64, 127
1, 283004, Note_off_c, 0, 69, 66
1, 283060, Control_c, 0, 64, 80
1, 283075, Control_c, 0, 64, 55
1, 283083, Note_on_c, 0, 81, 81
1, 283084, Note_on_c, 0, 52, 84
1, 283084, Note_on_c, 0, 48, 74
1, 283090, Control_c, 0, 64, 0
1, 283091, Note_on_c, 0, 79, 64
1, 283094, Note_on_c, 0, 69, 58
1, 283097, Note_off_c, 0, 81, 70
1, 283108, Note_off_c, 0, 52, 71
1, 283110, Note_off_c, 0, 79, 64
1, 283112, Note_off_c, 0, 69, 41
1, 283113, Note_off_c, 0, 48, 66
1, 283262, Note_on_c, 0, 52, 102
1, 283264, Note_on_c, 0, 49, 95
1, 283266, Note_on_c, 0, 79, 103
1, 283266, Note_on_c, 0, 70, 101
1, 283297, Note_off_c, 0, 70, 60
1, 283298, Note_off_c, 0, 52, 70
1, 283298, Note_off_c, 0, 79, 67
1, 283302, Note_off_c, 0, 49, 66
1, 283446, Note_on_c, 0, 49, 92
1, 283447, Note_on_c, 0, 52, 99
1, 283448, Note_on_c, 0, 77, 94
1, 283453, Note_on_c, 0, 69, 88
1, 283481, Note_off_c, 0, 52, 68
1, 283487, Note_off_c, 0, 49, 66
1, 283490, Note_off_c, 0, 69, 67
1, 283493, Note_off_c, 0, 77, 65
1, 283627, Note_on_c, 0, 76, 91
1, 283630, Note_on_c, 0, 53, 97
1, 283630, Note_on_c, 0, 50, 83
1, 283631, Note_on_c, 0, 67, 90
1, 283651, Note_off_c, 0, 50, 69
1, 283651, Note_off_c, 0, 67, 72
1, 283657, Note_off_c, 0, 53, 69
1, 283660, Note_off_c, 0, 76, 67
1, 283661, Control_c, 0, 64, 26
1, 283676, Control_c, 0, 64, 44
1, 283690, Control_c, 0, 64, 54
1, 283705, Control_c, 0, 64, 61
1, 283708, Note_on_c, 0, 74, 91
1, 283712, Note_on_c, 0, 65, 82
1, 283720, Control_c, 0, 64, 74
1, 283731, Note_off_c, 0, 65, 74
1, 283735, Control_c, 0, 64, 127
1, 283746, Note_off_c, 0, 74, 70
1, 283814, Note_on_c, 0, 57, 27
1, 283818, Note_on_c, 0, 54, 79
1, 283821, Note_on_c, 0, 51, 80
1, 283821, Note_on_c, 0, 60, 95
1, 283830, Note_on_c, 0, 72, 99
1, 283830, Note_on_c, 0, 84, 90
1, 283834, Note_on_c, 0, 83, 83
1, 283839, Control_c, 0, 64, 63
1, 283844, Note_off_c, 0, 72, 76
1, 283847, Note_off_c, 0, 84, 74
1, 283852, Note_off_c, 0, 83, 74
1, 283853, Note_off_c, 0, 60, 69
1, 283854, Control_c, 0, 64, 0
1, 283856, Note_off_c, 0, 57, 64
1, 283860, Note_off_c, 0, 51, 65
1, 283864, Note_off_c, 0, 54, 63
1, 284020, Note_on_c, 0, 57, 95
1, 284026, Note_on_c, 0, 60, 84
1, 284026, Note_on_c, 0, 81, 105
1, 284028, Note_on_c, 0, 52, 91
1, 284029, Note_on_c, 0, 72, 93
1, 284044, Note_off_c, 0, 60, 73
1, 284053, Note_off_c, 0, 57, 67
1, 284056, Note_off_c, 0, 72, 65
1, 284061, Note_off_c, 0, 52, 71
1, 284062, Note_off_c, 0, 81, 68
1, 284271, Note_on_c, 0, 40, 94
1, 284274, Note_on_c, 0, 35, 85
1, 284275, Note_on_c, 0, 28, 84
1, 284275, Note_on_c, 0, 80, 107
1, 284282, Note_on_c, 0, 71, 93
1, 284303, Note_off_c, 0, 28, 65
1, 284305, Note_off_c, 0, 40, 66
1, 284306, Control_c, 0, 64, 35
1, 284310, Note_off_c, 0, 35, 67
1, 284320, Control_c, 0, 64, 50
1, 284335, Control_c, 0, 64, 58
1, 284350, Control_c, 0, 64, 65
1, 284365, Control_c, 0, 64, 75
1, 284375, Note_off_c, 0, 71, 57
1, 284380, Control_c, 0, 64, 97
1, 284394, Control_c, 0, 64, 127
1, 284514, Note_on_c, 0, 81, 100
1, 284519, Note_off_c, 0, 80, 63
1, 284522, Note_on_c, 0, 72, 90
1, 284538, Note_off_c, 0, 72, 75
1, 284545, Note_off_c, 0, 81, 69
1, 284825, Control_c, 0, 64, 76
1, 284839, Note_on_c, 0, 40, 99
1, 284840, Note_on_c, 0, 30, 90
1, 284840, Control_c, 0, 64, 50
1, 284840, Note_on_c, 0, 28, 80
1, 284843, Note_on_c, 0, 80, 105
1, 284854, Control_c, 0, 64, 0
1, 284943, Control_c, 0, 64, 32
1, 284958, Control_c, 0, 64, 50
1, 284971, Note_off_c, 0, 80, 61
1, 284973, Control_c, 0, 64, 59
1, 284987, Control_c, 0, 64, 65
1, 285010, Control_c, 0, 64, 71
1, 285019, Note_on_c, 0, 81, 90
1, 285025, Control_c, 0, 64, 85
1, 285040, Control_c, 0, 64, 97
1, 285055, Control_c, 0, 64, 108
1, 285069, Control_c, 0, 64, 122
1, 285084, Control_c, 0, 64, 127
1, 285096, Note_off_c, 0, 81, 59
1, 285123, Note_on_c, 0, 83, 88
1, 285210, Note_on_c, 0, 84, 90
1, 285243, Note_off_c, 0, 84, 64
1, 285251, Note_off_c, 0, 83, 62
1, 285327, Note_on_c, 0, 68, 100
1, 285333, Note_on_c, 0, 75, 77
1, 285356, Note_off_c, 0, 75, 66
1, 285366, Note_off_c, 0, 68, 61
1, 285411, Note_on_c, 0, 69, 82
1, 285493, Note_off_c, 0, 69, 65
1, 285496, Note_on_c, 0, 71, 81
1, 285568, Note_on_c, 0, 72, 82
1, 285578, Note_off_c, 0, 71, 64
1, 285605, Note_off_c, 0, 72, 62
1, 285618, Control_c, 0, 64, 94
1, 285633, Control_c, 0, 64, 61
1, 285648, Control_c, 0, 64, 37
1, 285654, Note_on_c, 0, 63, 95
1, 285657, Note_on_c, 0, 68, 87
1, 285663, Control_c, 0, 64, 15
1, 285677, Control_c, 0, 64, 34
1, 285690, Note_off_c, 0, 63, 64
1, 285692, Control_c, 0, 64, 53
1, 285707, Control_c, 0, 64, 68
1, 285720, Note_off_c, 0, 68, 56
1, 285722, Control_c, 0, 64, 99
1, 285734, Note_on_c, 0, 69, 85
1, 285737, Control_c, 0, 64, 127
1, 285773, Poly_aftertouch_c, 0, 70, 0
1, 285828, Note_on_c, 0, 71, 86
1, 285846, Note_off_c, 0, 69, 44
1, 285906, Note_on_c, 0, 72, 86
1, 285923, Note_off_c, 0, 72, 73
1, 285942, Note_off_c, 0, 71, 65
1, 285952, Control_c, 0, 64, 89
1, 285966, Control_c, 0, 64, 60
1, 285981, Control_c, 0, 64, 38
1, 286003, Note_on_c, 0, 56, 102
1, 286010, Control_c, 0, 64, 54
1, 286025, Control_c, 0, 64, 69
1, 286040, Control_c, 0, 64, 127
1, 286041, Note_off_c, 0, 56, 66
1, 286044, Note_on_c, 0, 63, 30
1, 286079, Poly_aftertouch_c, 0, 61, 127
1, 286087, Note_off_c, 0, 63, 52
1, 286089, Note_on_c, 0, 57, 83
1, 286122, Poly_aftertouch_c, 0, 61, 0
1, 286176, Note_on_c, 0, 59, 84
1, 286182, Note_off_c, 0, 57, 62
1, 286264, Note_on_c, 0, 60, 94
1, 286282, Note_off_c, 0, 59, 59
1, 286293, Control_c, 0, 64, 114
1, 286307, Control_c, 0, 64, 65
1, 286320, Note_off_c, 0, 60, 65
1, 286322, Control_c, 0, 64, 41
1, 286337, Control_c, 0, 64, 0
1, 286367, Note_on_c, 0, 51, 96
1, 286381, Control_c, 0, 64, 37
1, 286393, Note_off_c, 0, 51, 70
1, 286396, Control_c, 0, 64, 55
1, 286411, Control_c, 0, 64, 71
1, 286426, Control_c, 0, 64, 102
1, 286441, Control_c, 0, 64, 119
1, 286456, Control_c, 0, 64, 117
1, 286486, Control_c, 0, 64, 119
1, 286507, Control_c, 0, 64, 127
1, 286577, Note_on_c, 0, 72, 92
1, 286578, Note_on_c, 0, 69, 75
1, 286579, Note_on_c, 0, 63, 90
1, 286602, Note_off_c, 0, 63, 70
1, 286602, Note_off_c, 0, 69, 69
1, 286623, Note_off_c, 0, 72, 64
1, 286634, Note_off_c, 0, 30, 60
1, 286641, Control_c, 0, 64, 88
1, 286655, Control_c, 0, 64, 73
1, 286670, Control_c, 0, 64, 65
1, 286679, Note_off_c, 0, 40, 60
1, 286685, Control_c, 0, 64, 58
1, 286700, Control_c, 0, 64, 50
1, 286715, Control_c, 0, 64, 40
1, 286721, Note_off_c, 0, 28, 27
1, 286730, Control_c, 0, 64, 31
1, 286745, Control_c, 0, 64, 19
1, 286760, Control_c, 0, 64, 0
1, 286772, Note_on_c, 0, 69, 68
1, 286776, Note_on_c, 0, 72, 90
1, 286777, Note_on_c, 0, 32, 85
1, 286778, Note_on_c, 0, 40, 87
1, 286778, Note_on_c, 0, 63, 94
1, 286786, Note_on_c, 0, 28, 64
1, 286822, Note_off_c, 0, 63, 65
1, 286822, Note_off_c, 0, 69, 65
1, 286822, Note_off_c, 0, 72, 64
1, 286976, Note_on_c, 0, 68, 70
1, 286984, Note_on_c, 0, 71, 85
1, 286987, Note_on_c, 0, 64, 86
1, 287022, Note_off_c, 0, 68, 62
1, 287025, Note_off_c, 0, 64, 64
1, 287037, Note_off_c, 0, 71, 64
1, 287065, Note_off_c, 0, 28, 59
1, 287107, Note_off_c, 0, 40, 63
1, 287117, Note_off_c, 0, 32, 59
1, 287186, Note_on_c, 0, 33, 85
1, 287188, Note_on_c, 0, 63, 89
1, 287190, Note_on_c, 0, 71, 93
1, 287191, Note_on_c, 0, 40, 86
1, 287192, Note_on_c, 0, 66, 86
1, 287192, Note_on_c, 0, 60, 88
1, 287197, Note_on_c, 0, 28, 71
1, 287240, Note_off_c, 0, 63, 64
1, 287241, Note_off_c, 0, 60, 62
1, 287257, Note_off_c, 0, 66, 59
1, 287261, Note_off_c, 0, 71, 64
1, 287410, Note_on_c, 0, 69, 90
1, 287413, Note_on_c, 0, 63, 89
1, 287413, Note_on_c, 0, 60, 91
1, 287415, Note_on_c, 0, 66, 84
1, 287460, Note_off_c, 0, 60, 62
1, 287460, Note_off_c, 0, 63, 65
1, 287464, Note_off_c, 0, 66, 62
1, 287475, Note_off_c, 0, 69, 62
1, 287541, Note_off_c, 0, 33, 63
1, 287576, Note_off_c, 0, 28, 61
1, 287578, Note_off_c, 0, 40, 64
1, 287632, Note_on_c, 0, 69, 91
1, 287633, Note_on_c, 0, 66, 95
1, 287634, Note_on_c, 0, 35, 88
1, 287634, Note_on_c, 0, 60, 84
1, 287634, Note_on_c, 0, 63, 88
1, 287639, Note_on_c, 0, 40, 80
1, 287642, Note_on_c, 0, 28, 71
1, 287682, Note_off_c, 0, 63, 65
1, 287684, Note_off_c, 0, 60, 65
1, 287693, Note_off_c, 0, 69, 60
1, 287700, Note_off_c, 0, 66, 58
1, 287851, Control_c, 0, 64, 24
1, 287866, Control_c, 0, 64, 38
1, 287875, Note_on_c, 0, 68, 102
1, 287878, Note_on_c, 0, 59, 94
1, 287878, Note_on_c, 0, 64, 88
1, 287881, Control_c, 0, 64, 52
1, 287896, Control_c, 0, 64, 66
1, 287910, Control_c, 0, 64, 85
1, 287914, Note_off_c, 0, 59, 64
1, 287920, Note_off_c, 0, 64, 65
1, 287923, Note_off_c, 0, 68, 66
1, 287925, Control_c, 0, 64, 103
1, 287940, Control_c, 0, 64, 106
1, 287980, Note_off_c, 0, 28, 61
1, 288074, Note_off_c, 0, 40, 59
1, 288095, Control_c, 0, 64, 107
1, 288110, Control_c, 0, 64, 108
1, 288125, Control_c, 0, 64, 110
1, 288140, Control_c, 0, 64, 122
1, 288154, Control_c, 0, 64, 127
1, 288196, Note_off_c, 0, 35, 64
1, 288199, Control_c, 0, 64, 111
1, 288213, Control_c, 0, 64, 77
1, 288214, Note_on_c, 0, 28, 101
1, 288228, Control_c, 0, 64, 61
1, 288243, Control_c, 0, 64, 38
1, 288258, Control_c, 0, 64, 0
1, 288376, Control_c, 0, 64, 25
1, 288391, Control_c, 0, 64, 34
1, 288405, Control_c, 0, 64, 45
1, 288411, Note_on_c, 0, 32, 64
1, 288420, Note_on_c, 0, 40, 73
1, 288420, Control_c, 0, 64, 57
1, 288435, Control_c, 0, 64, 66
1, 288450, Control_c, 0, 64, 80
1, 288460, Note_off_c, 0, 28, 58
1, 288465, Control_c, 0, 64, 89
1, 288480, Control_c, 0, 64, 90
1, 288505, Note_off_c, 0, 32, 62
1, 288507, Note_off_c, 0, 40, 49
1, 288510, Control_c, 0, 64, 92
1, 288511, Note_on_c, 0, 35, 49
1, 288517, Note_on_c, 0, 44, 75
1, 288524, Control_c, 0, 64, 97
1, 288539, Control_c, 0, 64, 101
1, 288542, Note_off_c, 0, 35, 53
1, 288554, Control_c, 0, 64, 103
1, 288569, Control_c, 0, 64, 105
1, 288584, Control_c, 0, 64, 110
1, 288587, Note_off_c, 0, 44, 62
1, 288599, Control_c, 0, 64, 127
1, 288608, Note_on_c, 0, 47, 76
1, 288643, Note_off_c, 0, 47, 65
1, 288692, Note_on_c, 0, 40, 79
1, 288786, Note_on_c, 0, 52, 70
1, 288790, Note_on_c, 0, 44, 77
1, 288802, Note_off_c, 0, 40, 61
1, 288874, Note_on_c, 0, 56, 80
1, 288900, Note_on_c, 0, 47, 66
1, 288904, Note_off_c, 0, 44, 51
1, 288906, Note_off_c, 0, 52, 50
1, 288960, Note_on_c, 0, 59, 81
1, 288968, Note_off_c, 0, 56, 65
1, 288973, Note_off_c, 0, 47, 58
1, 289028, Note_off_c, 0, 59, 62
1, 289036, Control_c, 0, 64, 105
1, 289038, Note_on_c, 0, 40, 96
1, 289051, Control_c, 0, 64, 69
1, 289066, Control_c, 0, 64, 54
1, 289081, Control_c, 0, 64, 29
1, 289095, Control_c, 0, 64, 0
1, 289115, Note_on_c, 0, 52, 82
1, 289125, Control_c, 0, 64, 26
1, 289139, Note_on_c, 0, 44, 73
1, 289140, Control_c, 0, 64, 42
1, 289154, Control_c, 0, 64, 54
1, 289159, Note_off_c, 0, 40, 58
1, 289169, Control_c, 0, 64, 62
1, 289184, Control_c, 0, 64, 72
1, 289199, Control_c, 0, 64, 83
1, 289204, Note_on_c, 0, 56, 86
1, 289214, Control_c, 0, 64, 88
1, 289216, Note_off_c, 0, 52, 61
1, 289228, Control_c, 0, 64, 89
1, 289241, Note_on_c, 0, 47, 75
1, 289243, Control_c, 0, 64, 92
1, 289248, Note_off_c, 0, 44, 60
1, 289258, Control_c, 0, 64, 99
1, 289267, Note_off_c, 0, 47, 67
1, 289273, Control_c, 0, 64, 108
1, 289288, Control_c, 0, 64, 119
1, 289302, Note_on_c, 0, 59, 85
1, 289303, Control_c, 0, 64, 127
1, 289304, Note_off_c, 0, 56, 62
1, 289353, Note_off_c, 0, 59, 64
1, 289362, Note_on_c, 0, 61, 15
1, 289398, Note_on_c, 0, 52, 78
1, 289406, Note_on_c, 0, 53, 78
1, 289408, Note_off_c, 0, 61, 56
1, 289445, Note_off_c, 0, 52, 62
1, 289468, Note_on_c, 0, 64, 85
1, 289481, Note_off_c, 0, 53, 66
1, 289484, Note_on_c, 0, 56, 69
1, 289525, Note_on_c, 0, 57, 46
1, 289536, Note_off_c, 0, 56, 0
1, 289536, Note_on_c, 0, 56, 23
1, 289552, Note_off_c, 0, 57, 56
1, 289567, Note_on_c, 0, 68, 88
1, 289567, Note_off_c, 0, 56, 45
1, 289581, Note_off_c, 0, 64, 60
1, 289585, Note_on_c, 0, 59, 79
1, 289639, Note_off_c, 0, 68, 60
1, 289657, Note_on_c, 0, 71, 87
1, 289661, Note_off_c, 0, 59, 60
1, 289717, Note_off_c, 0, 71, 65
1, 289737, Note_on_c, 0, 52, 100
1, 289741, Control_c, 0, 64, 82
1, 289756, Control_c, 0, 64, 60
1, 289771, Control_c, 0, 64, 35
1, 289785, Control_c, 0, 64, 0
1, 289815, Control_c, 0, 64, 15
1, 289816, Note_on_c, 0, 64, 85
1, 289830, Control_c, 0, 64, 38
1, 289833, Note_on_c, 0, 56, 86
1, 289844, Control_c, 0, 64, 53
1, 289857, Note_off_c, 0, 52, 61
1, 289859, Control_c, 0, 64, 65
1, 289874, Control_c, 0, 64, 83
1, 289889, Control_c, 0, 64, 108
1, 289904, Control_c, 0, 64, 110
1, 289911, Note_on_c, 0, 68, 91
1, 289920, Note_off_c, 0, 56, 67
1, 289926, Note_off_c, 0, 64, 62
1, 289928, Note_on_c, 0, 59, 86
1, 289933, Control_c, 0, 64, 117
1, 289948, Control_c, 0, 64, 127
1, 289959, Note_off_c, 0, 59, 62
1, 289997, Note_on_c, 0, 71, 90
1, 290004, Note_off_c, 0, 68, 59
1, 290051, Note_off_c, 0, 71, 70
1, 290083, Note_on_c, 0, 64, 98
1, 290172, Note_on_c, 0, 76, 96
1, 290179, Note_on_c, 0, 68, 88
1, 290181, Note_off_c, 0, 64, 64
1, 290271, Note_off_c, 0, 68, 57
1, 290277, Note_on_c, 0, 80, 96
1, 290288, Note_off_c, 0, 76, 63
1, 290289, Note_on_c, 0, 71, 82
1, 290345, Note_off_c, 0, 80, 63
1, 290369, Note_on_c, 0, 83, 95
1, 290391, Note_off_c, 0, 71, 64
1, 290424, Note_off_c, 0, 83, 66
1, 290457, Note_on_c, 0, 64, 99
1, 290525, Note_off_c, 0, 64, 60
1, 290549, Note_on_c, 0, 76, 94
1, 290557, Note_on_c, 0, 68, 93
1, 290630, Note_off_c, 0, 68, 58
1, 290661, Note_on_c, 0, 71, 91
1, 290668, Note_on_c, 0, 80, 97
1, 290691, Note_off_c, 0, 76, 63
1, 290695, Note_off_c, 0, 71, 64
1, 290750, Note_off_c, 0, 80, 62
1, 290770, Note_on_c, 0, 83, 96
1, 290815, Note_off_c, 0, 83, 70
1, 290899, Note_on_c, 0, 88, 98
1, 290906, Note_on_c, 0, 30, 26
1, 290964, Note_off_c, 0, 30, 42
1, 291049, Note_on_c, 0, 92, 102
1, 291217, Note_on_c, 0, 40, 83
1, 291220, Note_on_c, 0, 28, 70
1, 291222, Note_on_c, 0, 95, 103
1, 291242, Note_off_c, 0, 92, 67
1, 291251, Note_off_c, 0, 28, 59
1, 291251, Note_off_c, 0, 40, 66
1, 291447, Note_on_c, 0, 100, 102
1, 291456, Note_off_c, 0, 95, 70
1, 291465, Note_off_c, 0, 88, 69
1, 291473, Note_off_c, 0, 100, 68
1, 291765, Control_c, 0, 64, 102
1, 291780, Control_c, 0, 64, 72
1, 291795, Control_c, 0, 64, 55
1, 291810, Control_c, 0, 64, 0
1, 291846, Note_on_c, 0, 81, 84
1, 291848, Note_on_c, 0, 85, 94
1, 291848, Note_on_c, 0, 76, 89
1, 291850, Note_on_c, 0, 45, 97
1, 291851, Note_on_c, 0, 33, 77
1, 291854, Note_on_c, 0, 73, 93
1, 291873, Note_off_c, 0, 33, 67
1, 291878, Note_on_c, 0, 80, 54
1, 291884, Note_off_c, 0, 45, 67
1, 291884, Control_c, 0, 64, 27
1, 291899, Control_c, 0, 64, 50
1, 291908, Note_off_c, 0, 80, 50
1, 291914, Control_c, 0, 64, 66
1, 291929, Control_c, 0, 64, 95
1, 291944, Control_c, 0, 64, 127
1, 292061, Poly_aftertouch_c, 0, 65, 127
1, 292077, Control_c, 0, 64, 57
1, 292084, Note_on_c, 0, 71, 96
1, 292088, Note_on_c, 0, 59, 93
1, 292092, Control_c, 0, 64, 0
1, 292106, Note_off_c, 0, 59, 73
1, 292107, Note_off_c, 0, 71, 68
1, 292116, Poly_aftertouch_c, 0, 65, 0
1, 292311, Note_off_c, 0, 73, 63
1, 292313, Note_off_c, 0, 76, 63
1, 292325, Note_on_c, 0, 69, 97
1, 292328, Note_on_c, 0, 57, 90
1, 292329, Note_off_c, 0, 81, 61
1, 292343, Control_c, 0, 64, 43
1, 292349, Note_off_c, 0, 85, 65
1, 292358, Control_c, 0, 64, 56
1, 292373, Control_c, 0, 64, 62
1, 292388, Control_c, 0, 64, 65
1, 292403, Control_c, 0, 64, 70
1, 292418, Control_c, 0, 64, 80
1, 292431, Note_on_c, 0, 86, 84
1, 292432, Control_c, 0, 64, 94
1, 292447, Control_c, 0, 64, 106
1, 292460, Control_c, 0, 64, 127
1, 292522, Note_off_c, 0, 86, 61
1, 292531, Note_on_c, 0, 88, 84
1, 292614, Note_on_c, 0, 90, 90
1, 292621, Note_off_c, 0, 88, 61
1, 292650, Note_off_c, 0, 90, 69
1, 292720, Note_on_c, 0, 83, 86
1, 292728, Note_on_c, 0, 71, 70
1, 292731, Note_off_c, 0, 69, 60
1, 292734, Note_off_c, 0, 83, 71
1, 292745, Note_off_c, 0, 71, 70
1, 292756, Note_off_c, 0, 57, 57
1, 292793, Note_on_c, 0, 83, 29
1, 292815, Note_off_c, 0, 83, 58
1, 292829, Note_on_c, 0, 59, 74
1, 292917, Note_on_c, 0, 61, 78
1, 292930, Note_off_c, 0, 59, 61
1, 293002, Note_off_c, 0, 61, 66
1, 293002, Note_on_c, 0, 62, 85
1, 293061, Control_c, 0, 64, 80
1, 293076, Control_c, 0, 64, 48
1, 293089, Note_on_c, 0, 56, 85
1, 293091, Control_c, 0, 64, 0
1, 293092, Note_off_c, 0, 62, 66
1, 293289, Note_on_c, 0, 88, 88
1, 293292, Note_on_c, 0, 76, 88
1, 293309, Note_off_c, 0, 76, 76
1, 293313, Note_off_c, 0, 88, 68
1, 293521, Note_on_c, 0, 69, 91
1, 293522, Note_on_c, 0, 81, 85
1, 293535, Note_off_c, 0, 56, 65
1, 293543, Note_on_c, 0, 79, 50
1, 293568, Note_off_c, 0, 79, 36
1, 293721, Note_on_c, 0, 68, 90
1, 293724, Note_on_c, 0, 56, 81
1, 293738, Note_off_c, 0, 68, 71
1, 293747, Note_off_c, 0, 56, 71
1, 293906, Note_off_c, 0, 69, 62
1, 293920, Note_on_c, 0, 66, 83
1, 293931, Note_on_c, 0, 54, 67
1, 293943, Control_c, 0, 64, 35
1, 293952, Note_off_c, 0, 81, 63
1, 293959, Control_c, 0, 64, 46
1, 293974, Control_c, 0, 64, 52
1, 293996, Control_c, 0, 64, 57
1, 294011, Control_c, 0, 64, 63
1, 294021, Note_on_c, 0, 83, 83
1, 294025, Control_c, 0, 64, 69
1, 294040, Control_c, 0, 64, 78
1, 294055, Control_c, 0, 64, 85
1, 294070, Control_c, 0, 64, 91
1, 294085, Control_c, 0, 64, 96
1, 294099, Control_c, 0, 64, 103
1, 294111, Note_on_c, 0, 85, 88
1, 294114, Control_c, 0, 64, 115
1, 294129, Control_c, 0, 64, 127
1, 294133, Note_off_c, 0, 83, 61
1, 294194, Note_on_c, 0, 86, 85
1, 294223, Note_off_c, 0, 86, 63
1, 294225, Note_off_c, 0, 85, 64
1, 294278, Control_c, 0, 64, 71
1, 294291, Note_off_c, 0, 66, 57
1, 294293, Control_c, 0, 64, 52
1, 294300, Note_on_c, 0, 80, 90
1, 294308, Control_c, 0, 64, 10
1, 294310, Note_on_c, 0, 68, 73
1, 294322, Control_c, 0, 64, 0
1, 294352, Control_c, 0, 64, 23
1, 294367, Control_c, 0, 64, 43
1, 294379, Note_off_c, 0, 54, 55
1, 294382, Control_c, 0, 64, 58
1, 294394, Note_on_c, 0, 56, 66
1, 294397, Control_c, 0, 64, 77
1, 294412, Control_c, 0, 64, 127
1, 294432, Note_off_c, 0, 68, 59
1, 294450, Note_off_c, 0, 80, 61
1, 294477, Note_off_c, 0, 56, 66
1, 294480, Note_on_c, 0, 57, 78
1, 294566, Note_on_c, 0, 59, 81
1, 294584, Note_off_c, 0, 57, 61
1, 294619, Control_c, 0, 64, 80
1, 294633, Control_c, 0, 64, 53
1, 294633, Control_c, 0, 67, 21
1, 294648, Control_c, 0, 64, 0
1, 294648, Control_c, 0, 67, 37
1, 294656, Note_on_c, 0, 52, 80
1, 294656, Note_off_c, 0, 59, 62
1, 294663, Control_c, 0, 67, 57
1, 294678, Control_c, 0, 67, 87
1, 294680, Note_off_c, 0, 52, 70
1, 294693, Control_c, 0, 67, 124
1, 294707, Control_c, 0, 67, 127
1, 294884, Note_on_c, 0, 85, 67
1, 294904, Note_on_c, 0, 76, 45
1, 294909, Note_on_c, 0, 64, 39
1, 294913, Note_off_c, 0, 85, 66
1, 295145, Control_c, 0, 64, 8
1, 295160, Control_c, 0, 64, 22
1, 295175, Control_c, 0, 64, 32
1, 295189, Control_c, 0, 64, 42
1, 295204, Control_c, 0, 64, 51
1, 295209, Note_on_c, 0, 78, 50
1, 295219, Control_c, 0, 64, 57
1, 295226, Note_off_c, 0, 64, 49
1, 295234, Control_c, 0, 64, 61
1, 295243, Note_off_c, 0, 76, 50
1, 295249, Control_c, 0, 64, 62
1, 295293, Control_c, 0, 64, 63
1, 295326, Note_on_c, 0, 80, 53
1, 295354, Note_off_c, 0, 78, 43
1, 295367, Control_c, 0, 64, 63
1, 295394, Note_off_c, 0, 80, 59
1, 295396, Control_c, 0, 64, 63
1, 295411, Control_c, 0, 64, 62
1, 295415, Note_on_c, 0, 74, 41
1, 295423, Note_on_c, 0, 81, 55
1, 295426, Control_c, 0, 64, 60
1, 295441, Control_c, 0, 64, 57
1, 295442, Note_on_c, 0, 64, 24
1, 295455, Control_c, 0, 64, 51
1, 295470, Control_c, 0, 64, 42
1, 295493, Control_c, 0, 64, 33
1, 295494, Note_off_c, 0, 81, 57
1, 295508, Control_c, 0, 64, 31
1, 295522, Control_c, 0, 64, 34
1, 295523, Note_on_c, 0, 83, 52
1, 295537, Control_c, 0, 64, 41
1, 295552, Control_c, 0, 64, 48
1, 295567, Control_c, 0, 64, 54
1, 295573, Note_off_c, 0, 83, 58
1, 295582, Control_c, 0, 64, 57
1, 295596, Control_c, 0, 64, 59
1, 295608, Note_on_c, 0, 81, 64
1, 295611, Control_c, 0, 64, 60
1, 295654, Note_off_c, 0, 64, 41
1, 295670, Control_c, 0, 64, 60
1, 295679, Note_off_c, 0, 81, 60
1, 295699, Note_on_c, 0, 80, 61
1, 295700, Control_c, 0, 64, 61
1, 295742, Note_off_c, 0, 74, 59
1, 295744, Control_c, 0, 64, 60
1, 295759, Control_c, 0, 64, 59
1, 295775, Note_off_c, 0, 80, 57
1, 295775, Control_c, 0, 64, 56
1, 295781, Note_on_c, 0, 71, 47
1, 295790, Control_c, 0, 64, 48
1, 295794, Note_on_c, 0, 78, 64
1, 295805, Control_c, 0, 64, 32
1, 295806, Note_on_c, 0, 64, 31
1, 295819, Control_c, 0, 64, 0
1, 295875, Note_off_c, 0, 78, 64
1, 295890, Note_on_c, 0, 80, 60
1, 295893, Control_c, 0, 64, 15
1, 295908, Control_c, 0, 64, 27
1, 295923, Control_c, 0, 64, 36
1, 295933, Note_off_c, 0, 80, 60
1, 295938, Control_c, 0, 64, 45
1, 295953, Control_c, 0, 64, 53
1, 295967, Note_on_c, 0, 81, 69
1, 295968, Control_c, 0, 64, 59
1, 295983, Control_c, 0, 64, 62
1, 295998, Control_c, 0, 64, 63
1, 296018, Note_off_c, 0, 64, 48
1, 296033, Note_off_c, 0, 81, 57
1, 296042, Control_c, 0, 64, 63
1, 296057, Control_c, 0, 64, 61
1, 296058, Note_on_c, 0, 83, 58
1, 296072, Control_c, 0, 64, 59
1, 296086, Control_c, 0, 64, 56
1, 296101, Control_c, 0, 64, 51
1, 296116, Control_c, 0, 64, 43
1, 296131, Control_c, 0, 64, 31
1, 296140, Note_off_c, 0, 83, 66
1, 296143, Note_off_c, 0, 71, 65
1, 296145, Control_c, 0, 64, 0
1, 296148, Note_on_c, 0, 69, 56
1, 296162, Note_on_c, 0, 85, 53
1, 296173, Note_on_c, 0, 64, 26
1, 296219, Control_c, 0, 64, 8
1, 296226, Note_off_c, 0, 85, 60
1, 296242, Control_c, 0, 64, 24
1, 296257, Control_c, 0, 64, 29
1, 296259, Note_on_c, 0, 86, 51
1, 296272, Control_c, 0, 64, 31
1, 296287, Control_c, 0, 64, 26
1, 296301, Control_c, 0, 64, 0
1, 296346, Note_off_c, 0, 86, 59
1, 296358, Note_on_c, 0, 85, 56
1, 296375, Control_c, 0, 64, 27
1, 296390, Control_c, 0, 64, 38
1, 296405, Control_c, 0, 64, 42
1, 296416, Note_off_c, 0, 64, 48
1, 296419, Control_c, 0, 64, 33
1, 296427, Note_off_c, 0, 85, 53
1, 296434, Control_c, 0, 64, 0
1, 296445, Note_on_c, 0, 83, 57
1, 296493, Control_c, 0, 64, 23
1, 296498, Note_off_c, 0, 83, 59
1, 296508, Control_c, 0, 64, 37
1, 296523, Control_c, 0, 64, 43
1, 296537, Control_c, 0, 64, 38
1, 296538, Note_on_c, 0, 81, 58
1, 296546, Note_on_c, 0, 64, 34
1, 296552, Control_c, 0, 64, 0
1, 296567, Note_on_c, 0, 68, 48
1, 296600, Note_off_c, 0, 69, 59
1, 296624, Note_off_c, 0, 81, 55
1, 296628, Control_c, 0, 64, 25
1, 296641, Note_on_c, 0, 83, 50
1, 296642, Control_c, 0, 64, 34
1, 296657, Control_c, 0, 64, 37
1, 296672, Control_c, 0, 64, 36
1, 296687, Control_c, 0, 64, 22
1, 296702, Control_c, 0, 64, 0
1, 296725, Note_off_c, 0, 64, 52
1, 296733, Note_off_c, 0, 83, 63
1, 296750, Note_off_c, 0, 68, 61
1, 296758, Note_on_c, 0, 69, 45
1, 296761, Note_on_c, 0, 85, 53
1, 296783, Note_off_c, 0, 69, 58
1, 296797, Note_off_c, 0, 85, 63
1, 296841, Note_on_c, 0, 86, 53
1, 296919, Note_off_c, 0, 86, 57
1, 296943, Note_on_c, 0, 68, 54
1, 296951, Note_on_c, 0, 88, 55
1, 296966, Note_off_c, 0, 68, 58
1, 297039, Note_off_c, 0, 88, 63
1, 297066, Note_on_c, 0, 90, 54
1, 297152, Note_on_c, 0, 66, 57
1, 297155, Note_off_c, 0, 90, 61
1, 297179, Note_off_c, 0, 66, 63
1, 297181, Note_on_c, 0, 92, 62
1, 297258, Note_off_c, 0, 92, 58
1, 297293, Note_on_c, 0, 93, 47
1, 297356, Note_off_c, 0, 93, 45
1, 297416, Note_on_c, 0, 59, 34
1, 297427, Note_on_c, 0, 85, 45
1, 297428, Note_on_c, 0, 71, 29
1, 297443, Note_on_c, 0, 81, 30
1, 297449, Note_off_c, 0, 59, 53
1, 297458, Note_off_c, 0, 71, 56
1, 297492, Note_off_c, 0, 81, 47
1, 297543, Note_off_c, 0, 85, 61
1, 297570, Note_on_c, 0, 87, 48
1, 297822, Note_off_c, 0, 87, 55
1, 297837, Note_on_c, 0, 90, 48
1, 297843, Note_on_c, 0, 59, 35
1, 297856, Note_on_c, 0, 81, 30
1, 297864, Note_on_c, 0, 71, 24
1, 298037, Control_c, 0, 64, 10
1, 298051, Control_c, 0, 64, 28
1, 298066, Control_c, 0, 64, 39
1, 298079, Note_off_c, 0, 90, 52
1, 298081, Control_c, 0, 64, 49
1, 298096, Note_off_c, 0, 81, 43
1, 298096, Control_c, 0, 64, 56
1, 298110, Control_c, 0, 64, 60
1, 298125, Control_c, 0, 64, 64
1, 298140, Control_c, 0, 64, 66
1, 298156, Control_c, 0, 64, 69
1, 298171, Control_c, 0, 64, 72
1, 298186, Control_c, 0, 64, 76
1, 298200, Control_c, 0, 64, 79
1, 298215, Control_c, 0, 64, 81
1, 298230, Control_c, 0, 64, 83
1, 298245, Control_c, 0, 64, 84
1, 298260, Control_c, 0, 64, 87
1, 298275, Control_c, 0, 64, 88
1, 298289, Control_c, 0, 64, 89
1, 298304, Control_c, 0, 64, 90
1, 298517, Note_off_c, 0, 59, 39
1, 298636, Control_c, 0, 64, 90
1, 298677, Note_off_c, 0, 71, 44
1, 299237, Control_c, 0, 64, 90
1, 299267, Control_c, 0, 64, 89
1, 299282, Control_c, 0, 64, 88
1, 299297, Control_c, 0, 64, 86
1, 299311, Control_c, 0, 64, 83
1, 299326, Control_c, 0, 64, 80
1, 299327, Note_on_c, 0, 88, 32
1, 299332, Note_on_c, 0, 64, 24
1, 299336, Note_on_c, 0, 71, 28
1, 299341, Control_c, 0, 64, 78
1, 299342, Note_on_c, 0, 80, 28
1, 299356, Control_c, 0, 64, 75
1, 299370, Control_c, 0, 64, 72
1, 299385, Control_c, 0, 64, 70
1, 299400, Control_c, 0, 64, 67
1, 299415, Control_c, 0, 64, 64
1, 299430, Control_c, 0, 64, 61
1, 299444, Control_c, 0, 64, 56
1, 299459, Control_c, 0, 64, 47
1, 299474, Control_c, 0, 64, 38
1, 299488, Control_c, 0, 64, 28
1, 299503, Control_c, 0, 64, 18
1, 299518, Control_c, 0, 64, 11
1, 299533, Control_c, 0, 64, 9
1, 299607, Control_c, 0, 64, 10
1, 299622, Control_c, 0, 64, 11
1, 299637, Control_c, 0, 64, 12
1, 299652, Control_c, 0, 64, 12
1, 299667, Control_c, 0, 64, 13
1, 299696, Control_c, 0, 64, 12
1, 299711, Control_c, 0, 64, 0
1, 299846, Control_c, 0, 64, 14
1, 299860, Control_c, 0, 64, 21
1, 299875, Control_c, 0, 64, 27
1, 299890, Control_c, 0, 64, 33
1, 299904, Control_c, 0, 64, 40
1, 299919, Control_c, 0, 64, 47
1, 299934, Control_c, 0, 64, 54
1, 299949, Control_c, 0, 64, 59
1, 299964, Control_c, 0, 64, 62
1, 299986, Control_c, 0, 64, 64
1, 300001, Control_c, 0, 64, 65
1, 300016, Control_c, 0, 64, 67
1, 300031, Control_c, 0, 64, 69
1, 300046, Control_c, 0, 64, 71
1, 300060, Control_c, 0, 64, 72
1, 300075, Control_c, 0, 64, 73
1, 300081, Note_off_c, 0, 71, 42
1, 300119, Control_c, 0, 64, 73
1, 300129, Note_off_c, 0, 88, 43
1, 300134, Control_c, 0, 64, 74
1, 300153, Note_off_c, 0, 64, 39
1, 300164, Control_c, 0, 64, 75
1, 300184, Note_off_c, 0, 80, 43
1, 300238, Control_c, 0, 64, 75
1, 300624, Control_c, 0, 64, 76
1, 300639, Control_c, 0, 64, 76
1, 300654, Control_c, 0, 64, 77
1, 300669, Control_c, 0, 64, 77
1, 300683, Control_c, 0, 64, 78
1, 300713, Control_c, 0, 64, 77
1, 300735, Control_c, 0, 64, 73
1, 300750, Control_c, 0, 64, 65
1, 300765, Control_c, 0, 64, 54
1, 300780, Control_c, 0, 64, 29
1, 300788, Note_on_c, 0, 76, 61
1, 300795, Note_on_c, 0, 40, 47
1, 300795, Control_c, 0, 64, 0
1, 300808, Note_off_c, 0, 76, 69
1, 300833, Note_off_c, 0, 40, 63
1, 301085, Note_on_c, 0, 37, 33
1, 301091, Note_on_c, 0, 40, 32
1, 301093, Note_on_c, 0, 81, 66
1, 301143, Note_off_c, 0, 40, 53
1, 301294, Note_on_c, 0, 40, 44
1, 301337, Note_off_c, 0, 40, 62
1, 301494, Note_on_c, 0, 40, 30
1, 301494, Note_off_c, 0, 81, 63
1, 301529, Control_c, 0, 64, 25
1, 301544, Control_c, 0, 64, 31
1, 301558, Control_c, 0, 64, 38
1, 301572, Note_off_c, 0, 40, 54
1, 301573, Control_c, 0, 64, 47
1, 301574, Note_off_c, 0, 37, 51
1, 301588, Control_c, 0, 64, 55
1, 301596, Note_on_c, 0, 38, 49
1, 301603, Note_on_c, 0, 80, 64
1, 301603, Control_c, 0, 64, 62
1, 301618, Control_c, 0, 64, 66
1, 301632, Control_c, 0, 64, 68
1, 301647, Control_c, 0, 64, 69
1, 301662, Control_c, 0, 64, 70
1, 301677, Control_c, 0, 64, 71
1, 301681, Note_off_c, 0, 80, 62
1, 301682, Note_on_c, 0, 69, 64
1, 301691, Control_c, 0, 64, 71
1, 301706, Control_c, 0, 64, 72
1, 301720, Note_on_c, 0, 42, 37
1, 301721, Control_c, 0, 64, 72
1, 301736, Control_c, 0, 64, 73
1, 301751, Control_c, 0, 64, 76
1, 301760, Note_off_c, 0, 42, 47
1, 301762, Note_on_c, 0, 40, 42
1, 301766, Control_c, 0, 64, 79
1, 301781, Control_c, 0, 64, 81
1, 301792, Note_off_c, 0, 38, 38
1, 301795, Control_c, 0, 64, 84
1, 301810, Control_c, 0, 64, 86
1, 301816, Poly_aftertouch_c, 0, 76, 127
1, 301825, Control_c, 0, 64, 87
1, 301845, Note_off_c, 0, 40, 56
1, 301852, Poly_aftertouch_c, 0, 76, 0
1, 301855, Control_c, 0, 64, 86
1, 301863, Note_off_c, 0, 69, 62
1, 301870, Control_c, 0, 64, 80
1, 301876, Note_on_c, 0, 35, 47
1, 301881, Note_on_c, 0, 74, 45
1, 301884, Control_c, 0, 64, 70
1, 301899, Control_c, 0, 64, 62
1, 301914, Control_c, 0, 64, 48
1, 301929, Control_c, 0, 64, 0
1, 301953, Note_on_c, 0, 68, 60
1, 301990, Note_off_c, 0, 74, 40
1, 302024, Note_on_c, 0, 40, 44
1, 302061, Note_on_c, 0, 66, 62
1, 302069, Note_off_c, 0, 68, 56
1, 302073, Note_off_c, 0, 40, 62
1, 302114, Note_off_c, 0, 66, 58
1, 302147, Note_on_c, 0, 64, 52
1, 302239, Note_on_c, 0, 40, 49
1, 302249, Note_off_c, 0, 64, 60
1, 302252, Note_on_c, 0, 62, 55
1, 302274, Note_off_c, 0, 62, 61
1, 302281, Note_off_c, 0, 40, 64
1, 302442, Note_on_c, 0, 40, 49
1, 302444, Note_on_c, 0, 73, 64
1, 302463, Note_off_c, 0, 73, 68
1, 302482, Note_off_c, 0, 40, 65
1, 302645, Note_on_c, 0, 78, 68
1, 302648, Note_on_c, 0, 40, 45
1, 302648, Note_off_c, 0, 35, 48
1, 302651, Note_on_c, 0, 33, 48
1, 302680, Note_off_c, 0, 40, 60
1, 302838, Note_on_c, 0, 40, 46
1, 302869, Note_off_c, 0, 40, 61
1, 303011, Control_c, 0, 64, 24
1, 303017, Note_on_c, 0, 40, 48
1, 303026, Note_off_c, 0, 78, 67
1, 303026, Control_c, 0, 64, 32
1, 303041, Control_c, 0, 64, 37
1, 303056, Control_c, 0, 64, 42
1, 303071, Control_c, 0, 64, 50
1, 303085, Control_c, 0, 64, 58
1, 303100, Control_c, 0, 64, 64
1, 303115, Control_c, 0, 64, 69
1, 303122, Note_on_c, 0, 76, 60
1, 303125, Note_off_c, 0, 40, 43
1, 303129, Control_c, 0, 64, 72
1, 303145, Note_off_c, 0, 33, 42
1, 303147, Note_on_c, 0, 35, 44
1, 303159, Control_c, 0, 64, 71
1, 303174, Control_c, 0, 64, 67
1, 303189, Control_c, 0, 64, 60
1, 303202, Note_off_c, 0, 76, 51
1, 303203, Control_c, 0, 64, 48
1, 303218, Control_c, 0, 64, 32
1, 303227, Note_on_c, 0, 66, 70
1, 303229, Note_off_c, 0, 35, 57
1, 303233, Control_c, 0, 64, 28
1, 303240, Note_on_c, 0, 37, 44
1, 303248, Control_c, 0, 64, 33
1, 303263, Control_c, 0, 64, 42
1, 303272, Poly_aftertouch_c, 0, 74, 127
1, 303277, Control_c, 0, 64, 54
1, 303287, Note_off_c, 0, 37, 58
1, 303292, Control_c, 0, 64, 61
1, 303298, Poly_aftertouch_c, 0, 74, 0
1, 303307, Control_c, 0, 64, 65
1, 303313, Note_on_c, 0, 73, 57
1, 303322, Note_on_c, 0, 38, 47
1, 303322, Control_c, 0, 64, 66
1, 303332, Note_off_c, 0, 73, 66
1, 303337, Note_off_c, 0, 66, 61
1, 303351, Control_c, 0, 64, 66
1, 303381, Control_c, 0, 64, 68
1, 303396, Note_off_c, 0, 38, 57
1, 303396, Control_c, 0, 64, 70
1, 303411, Control_c, 0, 64, 74
1, 303417, Note_on_c, 0, 32, 51
1, 303426, Control_c, 0, 64, 78
1, 303430, Note_on_c, 0, 71, 41
1, 303441, Control_c, 0, 64, 81
1, 303455, Control_c, 0, 64, 83
1, 303485, Control_c, 0, 64, 80
1, 303492, Note_on_c, 0, 64, 63
1, 303500, Control_c, 0, 64, 73
1, 303515, Control_c, 0, 64, 63
1, 303529, Control_c, 0, 64, 49
1, 303544, Control_c, 0, 64, 0
1, 303568, Note_off_c, 0, 64, 54
1, 303585, Note_on_c, 0, 62, 64
1, 303609, Note_on_c, 0, 40, 55
1, 303644, Note_off_c, 0, 62, 62
1, 303652, Note_off_c, 0, 40, 63
1, 303671, Note_on_c, 0, 61, 61
1, 303767, Note_off_c, 0, 61, 65
1, 303784, Note_on_c, 0, 59, 57
1, 303786, Note_on_c, 0, 40, 50
1, 303823, Note_off_c, 0, 40, 65
1, 303939, Note_off_c, 0, 71, 45
1, 303952, Note_off_c, 0, 32, 61
1, 303956, Note_off_c, 0, 59, 53
1, 303964, Note_on_c, 0, 40, 67
1, 304013, Control_c, 0, 64, 15
1, 304027, Control_c, 0, 64, 26
1, 304042, Control_c, 0, 64, 41
1, 304057, Control_c, 0, 64, 56
1, 304072, Control_c, 0, 64, 72
1, 304086, Control_c, 0, 64, 108
1, 304101, Control_c, 0, 64, 127
1, 304116, Control_c, 0, 64, 105
1, 304131, Control_c, 0, 64, 72
1, 304146, Control_c, 0, 64, 51
1, 304148, Note_off_c, 0, 40, 52
1, 304160, Control_c, 0, 64, 0
1, 304162, Note_on_c, 0, 42, 63
1, 304248, Note_off_c, 0, 42, 60
1, 304252, Note_on_c, 0, 44, 59
1, 304330, Note_off_c, 0, 44, 62
1, 304332, Note_on_c, 0, 45, 65
1, 304393, Note_off_c, 0, 45, 62
1, 304425, Note_on_c, 0, 47, 62
1, 304510, Note_off_c, 0, 47, 63
1, 304528, Note_on_c, 0, 45, 55
1, 304593, Note_off_c, 0, 45, 62
1, 304609, Note_on_c, 0, 44, 61
1, 304679, Note_off_c, 0, 44, 61
1, 304699, Note_on_c, 0, 42, 62
1, 304770, Note_off_c, 0, 42, 61
1, 304785, Note_on_c, 0, 44, 59
1, 304861, Note_on_c, 0, 45, 70
1, 304861, Note_off_c, 0, 44, 61
1, 304925, Note_off_c, 0, 45, 63
1, 304953, Note_on_c, 0, 47, 64
1, 305036, Note_on_c, 0, 49, 61
1, 305036, Note_off_c, 0, 47, 64
1, 305115, Note_off_c, 0, 49, 64
1, 305131, Note_on_c, 0, 50, 53
1, 305194, Note_off_c, 0, 50, 60
1, 305212, Note_on_c, 0, 49, 59
1, 305286, Note_off_c, 0, 49, 63
1, 305307, Note_on_c, 0, 47, 55
1, 305389, Note_on_c, 0, 52, 65
1, 305391, Note_off_c, 0, 47, 63
1, 305408, Note_on_c, 0, 45, 56
1, 305470, Note_off_c, 0, 45, 59
1, 305507, Note_on_c, 0, 47, 52
1, 305568, Note_off_c, 0, 47, 64
1, 305572, Note_off_c, 0, 52, 60
1, 305578, Note_on_c, 0, 54, 64
1, 305581, Note_on_c, 0, 45, 61
1, 305635, Note_off_c, 0, 45, 61
1, 305662, Note_off_c, 0, 54, 60
1, 305664, Note_on_c, 0, 47, 50
1, 305665, Note_on_c, 0, 56, 60
1, 305733, Note_off_c, 0, 47, 61
1, 305745, Note_off_c, 0, 56, 62
1, 305751, Note_on_c, 0, 49, 58
1, 305754, Note_on_c, 0, 57, 56
1, 305813, Note_off_c, 0, 57, 58
1, 305821, Note_off_c, 0, 49, 64
1, 305831, Note_on_c, 0, 59, 65
1, 305848, Note_on_c, 0, 50, 50
1, 305895, Note_off_c, 0, 59, 55
1, 305909, Note_off_c, 0, 50, 60
1, 305929, Note_on_c, 0, 57, 57
1, 305936, Note_on_c, 0, 49, 59
1, 306003, Note_off_c, 0, 49, 59
1, 306009, Note_off_c, 0, 57, 58
1, 306024, Note_on_c, 0, 47, 60
1, 306025, Note_on_c, 0, 56, 64
1, 306081, Note_off_c, 0, 47, 62
1, 306094, Note_off_c, 0, 56, 62
1, 306104, Note_on_c, 0, 45, 53
1, 306120, Note_on_c, 0, 54, 60
1, 306176, Note_off_c, 0, 45, 62
1, 306204, Note_off_c, 0, 54, 59
1, 306204, Note_on_c, 0, 47, 60
1, 306204, Note_on_c, 0, 56, 66
1, 306243, Control_c, 0, 64, 33
1, 306258, Control_c, 0, 64, 46
1, 306261, Note_off_c, 0, 56, 63
1, 306272, Control_c, 0, 64, 58
1, 306287, Control_c, 0, 64, 67
1, 306294, Note_on_c, 0, 49, 66
1, 306298, Note_on_c, 0, 57, 68
1, 306298, Note_off_c, 0, 47, 62
1, 306302, Control_c, 0, 64, 75
1, 306315, Note_off_c, 0, 49, 64
1, 306332, Control_c, 0, 64, 66
1, 306346, Control_c, 0, 64, 55
1, 306361, Control_c, 0, 64, 28
1, 306362, Note_off_c, 0, 57, 52
1, 306376, Control_c, 0, 64, 0
1, 306392, Note_on_c, 0, 56, 65
1, 306394, Note_on_c, 0, 59, 54
1, 306440, Note_off_c, 0, 56, 63
1, 306451, Note_off_c, 0, 59, 60
1, 306464, Note_on_c, 0, 57, 62
1, 306474, Note_on_c, 0, 61, 65
1, 306530, Note_off_c, 0, 57, 61
1, 306541, Note_off_c, 0, 61, 64
1, 306561, Note_on_c, 0, 62, 60
1, 306562, Note_on_c, 0, 59, 60
1, 306613, Note_off_c, 0, 59, 57
1, 306639, Note_off_c, 0, 62, 62
1, 306648, Note_on_c, 0, 57, 62
1, 306663, Note_on_c, 0, 61, 55
1, 306730, Note_off_c, 0, 57, 60
1, 306735, Note_off_c, 0, 61, 57
1, 306739, Note_on_c, 0, 59, 60
1, 306744, Note_on_c, 0, 56, 61
1, 306798, Note_off_c, 0, 59, 55
1, 306811, Note_off_c, 0, 56, 66
1, 306837, Note_on_c, 0, 64, 69
1, 306838, Note_on_c, 0, 54, 56
1, 306845, Note_on_c, 0, 57, 59
1, 306872, Control_c, 0, 64, 19
1, 306885, Note_off_c, 0, 57, 61
1, 306887, Control_c, 0, 64, 28
1, 306902, Control_c, 0, 64, 37
1, 306917, Control_c, 0, 64, 50
1, 306919, Note_off_c, 0, 54, 59
1, 306926, Note_on_c, 0, 59, 43
1, 306929, Note_on_c, 0, 56, 56
1, 306931, Note_off_c, 0, 64, 62
1, 306932, Control_c, 0, 64, 59
1, 306947, Control_c, 0, 64, 63
1, 306959, Note_off_c, 0, 59, 54
1, 306962, Control_c, 0, 64, 64
1, 306976, Control_c, 0, 64, 61
1, 306991, Control_c, 0, 64, 51
1, 307006, Control_c, 0, 64, 14
1, 307015, Note_on_c, 0, 61, 78
1, 307016, Note_off_c, 0, 56, 65
1, 307018, Note_on_c, 0, 57, 68
1, 307021, Control_c, 0, 64, 0
1, 307024, Note_on_c, 0, 66, 69
1, 307066, Control_c, 0, 64, 24
1, 307081, Control_c, 0, 64, 41
1, 307081, Note_off_c, 0, 57, 60
1, 307095, Control_c, 0, 64, 55
1, 307096, Note_on_c, 0, 62, 75
1, 307099, Note_off_c, 0, 61, 55
1, 307099, Note_off_c, 0, 66, 59
1, 307104, Note_on_c, 0, 68, 59
1, 307107, Note_on_c, 0, 59, 66
1, 307110, Control_c, 0, 64, 61
1, 307119, Note_off_c, 0, 62, 69
1, 307125, Control_c, 0, 64, 63
1, 307140, Note_off_c, 0, 68, 62
1, 307140, Control_c, 0, 64, 59
1, 307155, Control_c, 0, 64, 44
1, 307167, Note_off_c, 0, 59, 62
1, 307169, Control_c, 0, 64, 0
1, 307197, Note_on_c, 0, 64, 72
1, 307199, Note_on_c, 0, 69, 68
1, 307202, Note_on_c, 0, 61, 68
1, 307214, Control_c, 0, 64, 22
1, 307229, Control_c, 0, 64, 44
1, 307243, Control_c, 0, 64, 57
1, 307258, Control_c, 0, 64, 62
1, 307268, Note_off_c, 0, 69, 58
1, 307273, Control_c, 0, 64, 56
1, 307274, Note_off_c, 0, 61, 66
1, 307274, Note_off_c, 0, 64, 39
1, 307280, Note_on_c, 0, 66, 74
1, 307284, Note_on_c, 0, 71, 63
1, 307288, Control_c, 0, 64, 23
1, 307293, Note_on_c, 0, 62, 61
1, 307302, Control_c, 0, 64, 0
1, 307346, Note_off_c, 0, 66, 62
1, 307347, Control_c, 0, 64, 17
1, 307352, Note_off_c, 0, 71, 66
1, 307362, Control_c, 0, 64, 38
1, 307363, Note_on_c, 0, 69, 69
1, 307367, Note_off_c, 0, 62, 63
1, 307370, Note_on_c, 0, 61, 71
1, 307370, Note_on_c, 0, 64, 74
1, 307376, Control_c, 0, 64, 46
1, 307387, Note_off_c, 0, 69, 70
1, 307391, Control_c, 0, 64, 40
1, 307406, Control_c, 0, 64, 0
1, 307417, Note_off_c, 0, 64, 60
1, 307439, Note_off_c, 0, 61, 63
1, 307462, Note_on_c, 0, 68, 74
1, 307474, Note_on_c, 0, 59, 67
1, 307474, Control_c, 0, 64, 14
1, 307476, Note_on_c, 0, 62, 71
1, 307489, Control_c, 0, 64, 40
1, 307503, Control_c, 0, 64, 51
1, 307518, Control_c, 0, 64, 58
1, 307533, Control_c, 0, 64, 59
1, 307546, Note_off_c, 0, 62, 63
1, 307548, Control_c, 0, 64, 53
1, 307549, Note_off_c, 0, 68, 56
1, 307550, Note_on_c, 0, 61, 79
1, 307557, Note_off_c, 0, 59, 60
1, 307558, Note_on_c, 0, 66, 69
1, 307563, Control_c, 0, 64, 32
1, 307569, Note_on_c, 0, 57, 66
1, 307577, Control_c, 0, 64, 10
1, 307592, Control_c, 0, 64, 34
1, 307607, Control_c, 0, 64, 54
1, 307621, Control_c, 0, 64, 76
1, 307635, Note_on_c, 0, 68, 73
1, 307635, Note_off_c, 0, 61, 62
1, 307636, Control_c, 0, 64, 101
1, 307638, Note_off_c, 0, 66, 55
1, 307639, Note_on_c, 0, 62, 72
1, 307650, Note_off_c, 0, 57, 61
1, 307651, Control_c, 0, 64, 76
1, 307652, Note_on_c, 0, 59, 77
1, 307665, Note_off_c, 0, 68, 65
1, 307666, Note_off_c, 0, 62, 67
1, 307666, Control_c, 0, 64, 57
1, 307681, Control_c, 0, 64, 0
1, 307732, Note_on_c, 0, 64, 71
1, 307735, Note_on_c, 0, 69, 70
1, 307740, Control_c, 0, 64, 38
1, 307748, Note_on_c, 0, 61, 74
1, 307756, Control_c, 0, 64, 52
1, 307765, Note_off_c, 0, 59, 58
1, 307771, Control_c, 0, 64, 62
1, 307786, Control_c, 0, 64, 60
1, 307800, Control_c, 0, 64, 48
1, 307804, Note_off_c, 0, 69, 60
1, 307813, Note_on_c, 0, 71, 72
1, 307815, Control_c, 0, 64, 0
1, 307816, Note_on_c, 0, 66, 77
1, 307816, Note_off_c, 0, 64, 44
1, 307832, Note_on_c, 0, 62, 75
1, 307832, Note_off_c, 0, 61, 65
1, 307844, Note_off_c, 0, 71, 67
1, 307857, Note_off_c, 0, 66, 61
1, 307860, Control_c, 0, 64, 37
1, 307874, Control_c, 0, 64, 57
1, 307885, Note_off_c, 0, 62, 61
1, 307889, Control_c, 0, 64, 69
1, 307904, Control_c, 0, 64, 68
1, 307913, Note_on_c, 0, 64, 77
1, 307914, Note_on_c, 0, 68, 79
1, 307914, Note_on_c, 0, 73, 79
1, 307918, Control_c, 0, 64, 58
1, 307933, Control_c, 0, 64, 34
1, 307948, Control_c, 0, 64, 0
1, 307963, Control_c, 0, 64, 26
1, 307978, Control_c, 0, 64, 43
1, 307986, Note_off_c, 0, 68, 59
1, 307987, Note_off_c, 0, 73, 61
1, 307987, Note_on_c, 0, 66, 77
1, 307988, Note_on_c, 0, 69, 81
1, 307993, Control_c, 0, 64, 53
1, 307993, Note_on_c, 0, 74, 70
1, 307993, Note_off_c, 0, 64, 62
1, 308008, Control_c, 0, 64, 51
1, 308023, Control_c, 0, 64, 31
1, 308037, Control_c, 0, 64, 0
1, 308052, Note_off_c, 0, 66, 62
1, 308059, Note_off_c, 0, 74, 63
1, 308067, Control_c, 0, 64, 17
1, 308070, Note_off_c, 0, 69, 66
1, 308072, Note_on_c, 0, 68, 56
1, 308082, Control_c, 0, 64, 20
1, 308082, Note_on_c, 0, 64, 77
1, 308082, Note_on_c, 0, 73, 74
1, 308097, Control_c, 0, 64, 0
1, 308103, Note_off_c, 0, 68, 65
1, 308103, Note_off_c, 0, 73, 70
1, 308151, Note_off_c, 0, 64, 57
1, 308156, Control_c, 0, 64, 12
1, 308157, Note_on_c, 0, 62, 78
1, 308171, Control_c, 0, 64, 0
1, 308193, Note_on_c, 0, 71, 40
1, 308194, Note_on_c, 0, 66, 72
1, 308195, Note_on_c, 0, 69, 40
1, 308202, Note_on_c, 0, 72, 34
1, 308226, Note_off_c, 0, 71, 60
1, 308231, Note_off_c, 0, 69, 56
1, 308240, Note_off_c, 0, 72, 51
1, 308258, Note_off_c, 0, 62, 64
1, 308258, Note_on_c, 0, 61, 84
1, 308264, Note_off_c, 0, 66, 63
1, 308267, Control_c, 0, 64, 27
1, 308273, Note_on_c, 0, 64, 68
1, 308282, Control_c, 0, 64, 38
1, 308285, Note_on_c, 0, 69, 67
1, 308297, Control_c, 0, 64, 47
1, 308312, Control_c, 0, 64, 48
1, 308312, Note_on_c, 0, 71, 60
1, 308315, Note_off_c, 0, 69, 66
1, 308326, Control_c, 0, 64, 34
1, 308341, Control_c, 0, 64, 0
1, 308350, Note_on_c, 0, 62, 82
1, 308353, Note_on_c, 0, 66, 83
1, 308353, Note_off_c, 0, 64, 63
1, 308360, Note_off_c, 0, 61, 63
1, 308389, Note_off_c, 0, 71, 65
1, 308396, Note_off_c, 0, 66, 62
1, 308400, Control_c, 0, 64, 25
1, 308415, Control_c, 0, 64, 40
1, 308417, Note_off_c, 0, 62, 63
1, 308430, Control_c, 0, 64, 49
1, 308431, Note_on_c, 0, 64, 88
1, 308443, Note_on_c, 0, 67, 81
1, 308444, Control_c, 0, 64, 47
1, 308448, Note_on_c, 0, 73, 83
1, 308459, Control_c, 0, 64, 24
1, 308474, Control_c, 0, 64, 0
1, 308476, Note_off_c, 0, 67, 62
1, 308493, Note_off_c, 0, 64, 63
1, 308520, Note_on_c, 0, 66, 91
1, 308532, Note_off_c, 0, 73, 65
1, 308533, Control_c, 0, 64, 29
1, 308549, Control_c, 0, 64, 44
1, 308564, Control_c, 0, 64, 53
1, 308579, Control_c, 0, 64, 52
1, 308594, Control_c, 0, 64, 37
1, 308599, Note_on_c, 0, 67, 88
1, 308604, Note_on_c, 0, 71, 56
1, 308606, Note_on_c, 0, 72, 60
1, 308609, Control_c, 0, 64, 0
1, 308612, Note_off_c, 0, 66, 63
1, 308622, Note_on_c, 0, 77, 33
1, 308623, Note_on_c, 0, 76, 47
1, 308630, Note_off_c, 0, 72, 65
1, 308631, Note_off_c, 0, 71, 68
1, 308646, Note_off_c, 0, 77, 0
1, 308653, Control_c, 0, 64, 28
1, 308663, Note_off_c, 0, 67, 63
1, 308666, Note_on_c, 0, 77, 56
1, 308667, Control_c, 0, 64, 49
1, 308673, Note_off_c, 0, 76, 62
1, 308682, Control_c, 0, 64, 59
1, 308683, Note_on_c, 0, 69, 82
1, 308684, Note_on_c, 0, 73, 78
1, 308697, Control_c, 0, 64, 57
1, 308712, Control_c, 0, 64, 37
1, 308727, Control_c, 0, 64, 0
1, 308731, Note_off_c, 0, 77, 63
1, 308744, Note_off_c, 0, 73, 66
1, 308750, Note_off_c, 0, 69, 60
1, 308762, Note_on_c, 0, 67, 91
1, 308771, Note_on_c, 0, 71, 66
1, 308771, Control_c, 0, 64, 14
1, 308786, Control_c, 0, 64, 41
1, 308789, Note_off_c, 0, 71, 69
1, 308801, Control_c, 0, 64, 50
1, 308815, Control_c, 0, 64, 44
1, 308830, Control_c, 0, 64, 0
1, 308836, Note_on_c, 0, 74, 72
1, 308843, Note_on_c, 0, 66, 89
1, 308846, Note_on_c, 0, 69, 72
1, 308850, Note_off_c, 0, 67, 63
1, 308902, Note_off_c, 0, 74, 63
1, 308920, Control_c, 0, 64, 19
1, 308926, Note_on_c, 0, 73, 61
1, 308929, Note_on_c, 0, 64, 77
1, 308933, Note_off_c, 0, 66, 64
1, 308934, Note_off_c, 0, 69, 63
1, 308934, Control_c, 0, 64, 20
1, 308945, Note_on_c, 0, 67, 78
1, 308948, Control_c, 0, 64, 0
1, 309010, Note_on_c, 0, 74, 71
1, 309015, Note_off_c, 0, 67, 63
1, 309024, Note_on_c, 0, 66, 84
1, 309030, Note_on_c, 0, 69, 49
1, 309030, Note_off_c, 0, 73, 64
1, 309036, Note_off_c, 0, 64, 62
1, 309043, Note_off_c, 0, 74, 63
1, 309056, Note_off_c, 0, 69, 57
1, 309074, Control_c, 0, 64, 18
1, 309089, Control_c, 0, 64, 0
1, 309101, Note_on_c, 0, 67, 83
1, 309108, Note_on_c, 0, 76, 71
1, 309111, Note_on_c, 0, 71, 67
1, 309117, Note_off_c, 0, 66, 62
1, 309168, Note_off_c, 0, 67, 63
1, 309179, Note_on_c, 0, 69, 70
1, 309179, Note_off_c, 0, 71, 54
1, 309186, Note_on_c, 0, 78, 81
1, 309192, Note_on_c, 0, 73, 73
1, 309193, Note_off_c, 0, 76, 66
1, 309212, Note_off_c, 0, 78, 66
1, 309213, Note_off_c, 0, 73, 70
1, 309238, Note_off_c, 0, 69, 64
1, 309272, Note_on_c, 0, 71, 76
1, 309276, Note_on_c, 0, 79, 85
1, 309277, Note_on_c, 0, 74, 80
1, 309313, Note_off_c, 0, 74, 65
1, 309352, Note_on_c, 0, 76, 88
1, 309357, Note_off_c, 0, 71, 64
1, 309359, Note_on_c, 0, 73, 80
1, 309367, Note_off_c, 0, 79, 61
1, 309367, Note_on_c, 0, 81, 74
1, 309388, Note_off_c, 0, 76, 68
1, 309393, Note_off_c, 0, 81, 66
1, 309427, Note_off_c, 0, 73, 62
1, 309453, Note_on_c, 0, 78, 89
1, 309453, Note_on_c, 0, 81, 76
1, 309461, Note_on_c, 0, 74, 58
1, 309488, Note_off_c, 0, 81, 65
1, 309498, Note_off_c, 0, 78, 62
1, 309508, Note_off_c, 0, 74, 54
1, 309531, Note_on_c, 0, 79, 73
1, 309532, Note_on_c, 0, 76, 67
1, 309571, Note_off_c, 0, 76, 64
1, 309575, Note_off_c, 0, 79, 64
1, 309608, Control_c, 0, 64, 24
1, 309615, Note_on_c, 0, 81, 73
1, 309623, Control_c, 0, 64, 29
1, 309630, Note_on_c, 0, 74, 60
1, 309636, Note_on_c, 0, 78, 75
1, 309638, Control_c, 0, 64, 30
1, 309653, Control_c, 0, 64, 38
1, 309656, Note_off_c, 0, 81, 60
1, 309665, Note_off_c, 0, 74, 58
1, 309668, Control_c, 0, 64, 53
1, 309683, Control_c, 0, 64, 64
1, 309695, Note_off_c, 0, 78, 65
1, 309697, Control_c, 0, 64, 75
1, 309698, Note_on_c, 0, 73, 63
1, 309719, Note_on_c, 0, 76, 74
1, 309719, Control_c, 0, 64, 79
1, 309725, Note_off_c, 0, 73, 68
1, 309734, Control_c, 0, 64, 77
1, 309749, Control_c, 0, 64, 66
1, 309764, Control_c, 0, 64, 52
1, 309778, Control_c, 0, 64, 0
1, 309807, Note_on_c, 0, 81, 75
1, 309810, Note_on_c, 0, 78, 74
1, 309814, Note_off_c, 0, 76, 61
1, 309825, Note_off_c, 0, 78, 71
1, 309831, Note_off_c, 0, 81, 67
1, 309836, Note_on_c, 0, 66, 48
1, 309838, Note_on_c, 0, 62, 39
1, 309878, Note_off_c, 0, 62, 0
1, 309878, Note_on_c, 0, 62, 24
1, 309897, Note_off_c, 0, 66, 51
1, 309918, Note_on_c, 0, 67, 49
1, 309959, Note_off_c, 0, 67, 64
1, 309994, Note_on_c, 0, 69, 55
1, 310055, Note_off_c, 0, 69, 63
1, 310084, Note_on_c, 0, 71, 42
1, 310185, Note_on_c, 0, 69, 58
1, 310189, Note_off_c, 0, 71, 62
1, 310193, Note_on_c, 0, 81, 70
1, 310202, Note_off_c, 0, 62, 53
1, 310207, Note_on_c, 0, 74, 49
1, 310207, Note_off_c, 0, 69, 63
1, 310238, Note_off_c, 0, 74, 60
1, 310291, Note_on_c, 0, 76, 54
1, 310354, Note_off_c, 0, 76, 59
1, 310377, Note_on_c, 0, 78, 54
1, 310434, Note_off_c, 0, 81, 0
1, 310434, Note_off_c, 0, 78, 62
1, 310475, Note_on_c, 0, 81, 16
1, 310488, Note_on_c, 0, 79, 39
1, 310571, Note_on_c, 0, 78, 58
1, 310573, Control_c, 0, 64, 19
1, 310578, Note_on_c, 0, 66, 37
1, 310588, Control_c, 0, 64, 34
1, 310591, Note_on_c, 0, 62, 36
1, 310598, Note_off_c, 0, 78, 63
1, 310600, Note_off_c, 0, 81, 56
1, 310602, Control_c, 0, 64, 43
1, 310611, Note_off_c, 0, 79, 40
1, 310617, Control_c, 0, 64, 51
1, 310632, Control_c, 0, 64, 59
1, 310646, Control_c, 0, 64, 65
1, 310651, Note_off_c, 0, 66, 40
1, 310661, Note_on_c, 0, 67, 50
1, 310661, Control_c, 0, 64, 69
1, 310676, Control_c, 0, 64, 71
1, 310691, Control_c, 0, 64, 72
1, 310705, Note_off_c, 0, 67, 62
1, 310706, Control_c, 0, 64, 73
1, 310720, Control_c, 0, 64, 75
1, 310735, Control_c, 0, 64, 77
1, 310750, Control_c, 0, 64, 79
1, 310756, Note_on_c, 0, 69, 51
1, 310765, Control_c, 0, 64, 82
1, 310780, Control_c, 0, 64, 86
1, 310795, Control_c, 0, 64, 92
1, 310800, Note_off_c, 0, 69, 62
1, 310810, Control_c, 0, 64, 104
1, 310825, Control_c, 0, 64, 127
1, 310835, Note_on_c, 0, 71, 41
1, 310913, Control_c, 0, 64, 88
1, 310928, Control_c, 0, 64, 60
1, 310932, Note_on_c, 0, 69, 50
1, 310944, Control_c, 0, 64, 24
1, 310948, Note_on_c, 0, 81, 71
1, 310955, Note_off_c, 0, 62, 58
1, 310956, Note_off_c, 0, 69, 66
1, 310956, Note_off_c, 0, 71, 52
1, 310959, Control_c, 0, 64, 0
1, 310971, Note_on_c, 0, 74, 36
1, 311000, Note_off_c, 0, 74, 55
1, 311036, Note_on_c, 0, 76, 47
1, 311102, Note_on_c, 0, 78, 51
1, 311108, Note_off_c, 0, 76, 39
1, 311164, Note_off_c, 0, 78, 57
1, 311194, Note_on_c, 0, 79, 50
1, 311319, Note_on_c, 0, 73, 56
1, 311325, Note_on_c, 0, 67, 37
1, 311328, Note_off_c, 0, 81, 63
1, 311332, Note_on_c, 0, 64, 36
1, 311337, Control_c, 0, 64, 33
1, 311340, Note_off_c, 0, 73, 62
1, 311344, Note_off_c, 0, 79, 43
1, 311351, Control_c, 0, 64, 42
1, 311366, Control_c, 0, 64, 50
1, 311381, Control_c, 0, 64, 56
1, 311387, Note_off_c, 0, 67, 41
1, 311395, Control_c, 0, 64, 63
1, 311399, Note_on_c, 0, 69, 49
1, 311410, Control_c, 0, 64, 67
1, 311425, Control_c, 0, 64, 72
1, 311440, Control_c, 0, 64, 73
1, 311442, Note_off_c, 0, 69, 62
1, 311455, Control_c, 0, 64, 74
1, 311500, Note_on_c, 0, 71, 38
1, 311552, Note_off_c, 0, 71, 46
1, 311570, Note_on_c, 0, 69, 41
1, 311590, Note_on_c, 0, 73, 14
1, 311597, Note_off_c, 0, 69, 58
1, 311632, Control_c, 0, 64, 74
1, 311639, Note_off_c, 0, 73, 50
1, 311662, Control_c, 0, 64, 75
1, 311677, Control_c, 0, 64, 78
1, 311686, Note_on_c, 0, 69, 50
1, 311686, Note_on_c, 0, 81, 75
1, 311692, Control_c, 0, 64, 81
1, 311692, Control_c, 0, 67, 106
1, 311705, Note_off_c, 0, 64, 41
1, 311707, Control_c, 0, 64, 83
1, 311707, Control_c, 0, 67, 88
1, 311707, Note_off_c, 0, 69, 61
1, 311722, Control_c, 0, 64, 85
1, 311722, Control_c, 0, 67, 74
1, 311737, Control_c, 0, 64, 86
1, 311737, Control_c, 0, 67, 64
1, 311752, Control_c, 0, 64, 87
1, 311752, Control_c, 0, 67, 59
1, 311767, Control_c, 0, 64, 88
1, 311767, Control_c, 0, 67, 56
1, 311773, Note_on_c, 0, 79, 62
1, 311781, Control_c, 0, 64, 88
1, 311781, Control_c, 0, 67, 54
1, 311796, Control_c, 0, 67, 54
1, 311811, Control_c, 0, 67, 53
1, 311835, Note_off_c, 0, 79, 60
1, 311856, Control_c, 0, 67, 53
1, 311864, Note_on_c, 0, 73, 61
1, 311871, Control_c, 0, 67, 54
1, 311885, Control_c, 0, 67, 56
1, 311895, Note_off_c, 0, 73, 67
1, 311900, Control_c, 0, 67, 58
1, 311915, Control_c, 0, 67, 59
1, 311930, Control_c, 0, 67, 61
1, 311945, Control_c, 0, 67, 63
1, 311950, Note_on_c, 0, 79, 57
1, 311954, Note_off_c, 0, 81, 43
1, 311966, Control_c, 0, 67, 67
1, 311976, Note_off_c, 0, 79, 63
1, 311981, Control_c, 0, 67, 72
1, 311996, Control_c, 0, 67, 80
1, 312011, Control_c, 0, 67, 88
1, 312026, Control_c, 0, 67, 92
1, 312041, Control_c, 0, 67, 93
1, 312056, Control_c, 0, 67, 95
1, 312066, Note_on_c, 0, 91, 78
1, 312071, Control_c, 0, 67, 101
1, 312086, Control_c, 0, 67, 107
1, 312089, Note_off_c, 0, 91, 66
1, 312090, Note_on_c, 0, 67, 41
1, 312099, Note_on_c, 0, 64, 8
1, 312100, Control_c, 0, 67, 112
1, 312115, Control_c, 0, 64, 89
1, 312115, Control_c, 0, 67, 115
1, 312130, Control_c, 0, 64, 89
1, 312130, Control_c, 0, 67, 117
1, 312145, Control_c, 0, 64, 90
1, 312145, Control_c, 0, 67, 120
1, 312151, Note_off_c, 0, 67, 55
1, 312160, Control_c, 0, 64, 91
1, 312160, Control_c, 0, 67, 124
1, 312167, Note_on_c, 0, 69, 52
1, 312175, Control_c, 0, 64, 92
1, 312175, Control_c, 0, 67, 127
1, 312213, Note_off_c, 0, 69, 57
1, 312219, Control_c, 0, 64, 93
1, 312268, Note_on_c, 0, 71, 45
1, 312324, Note_off_c, 0, 71, 54
1, 312330, Note_on_c, 0, 69, 51
1, 312352, Note_off_c, 0, 69, 64
1, 312353, Control_c, 0, 64, 92
1, 312382, Control_c, 0, 64, 92
1, 312425, Note_on_c, 0, 69, 62
1, 312440, Note_on_c, 0, 85, 67
1, 312454, Note_off_c, 0, 69, 67
1, 312463, Note_off_c, 0, 64, 41
1, 312540, Note_on_c, 0, 79, 58
1, 312599, Note_off_c, 0, 79, 56
1, 312639, Note_on_c, 0, 73, 43
1, 312667, Note_off_c, 0, 73, 55
1, 312694, Control_c, 0, 64, 92
1, 312704, Note_on_c, 0, 79, 61
1, 312716, Control_c, 0, 64, 94
1, 312726, Note_off_c, 0, 85, 54
1, 312730, Note_off_c, 0, 79, 66
1, 312731, Control_c, 0, 64, 95
1, 312746, Control_c, 0, 64, 96
1, 312761, Control_c, 0, 64, 95
1, 312776, Control_c, 0, 64, 83
1, 312790, Control_c, 0, 64, 67
1, 312805, Control_c, 0, 64, 53
1, 312810, Note_on_c, 0, 86, 64
1, 312820, Control_c, 0, 64, 11
1, 312828, Note_on_c, 0, 78, 47
1, 312835, Control_c, 0, 64, 0
1, 312840, Note_on_c, 0, 62, 35
1, 312843, Note_on_c, 0, 66, 37
1, 312852, Note_off_c, 0, 86, 60
1, 312855, Note_off_c, 0, 78, 35
1, 312924, Note_on_c, 0, 67, 48
1, 312930, Note_off_c, 0, 66, 38
1, 312962, Note_off_c, 0, 67, 57
1, 312997, Note_on_c, 0, 69, 54
1, 313057, Note_off_c, 0, 69, 63
1, 313083, Note_on_c, 0, 71, 43
1, 313175, Note_off_c, 0, 71, 64
1, 313183, Note_on_c, 0, 81, 64
1, 313184, Note_on_c, 0, 69, 49
1, 313185, Note_off_c, 0, 62, 57
1, 313191, Note_on_c, 0, 74, 45
1, 313209, Note_off_c, 0, 69, 57
1, 313215, Note_off_c, 0, 74, 61
1, 313285, Note_on_c, 0, 76, 47
1, 313339, Note_off_c, 0, 76, 55
1, 313367, Note_on_c, 0, 78, 55
1, 313429, Note_off_c, 0, 78, 61
1, 313477, Note_on_c, 0, 79, 42
1, 313559, Note_on_c, 0, 66, 37
1, 313561, Note_on_c, 0, 78, 54
1, 313575, Note_on_c, 0, 62, 44
1, 313577, Note_off_c, 0, 79, 46
1, 313580, Note_off_c, 0, 81, 61
1, 313587, Note_off_c, 0, 78, 62
1, 313598, Control_c, 0, 64, 32
1, 313612, Control_c, 0, 64, 42
1, 313627, Control_c, 0, 64, 50
1, 313642, Control_c, 0, 64, 55
1, 313651, Note_on_c, 0, 67, 51
1, 313655, Note_off_c, 0, 66, 37
1, 313657, Control_c, 0, 64, 61
1, 313671, Control_c, 0, 64, 65
1, 313683, Note_off_c, 0, 67, 55
1, 313686, Control_c, 0, 64, 69
1, 313701, Control_c, 0, 64, 70
1, 313716, Control_c, 0, 64, 71
1, 313727, Note_on_c, 0, 69, 56
1, 313731, Control_c, 0, 64, 73
1, 313746, Control_c, 0, 64, 74
1, 313761, Control_c, 0, 64, 75
1, 313776, Control_c, 0, 64, 77
1, 313779, Note_off_c, 0, 69, 60
1, 313790, Control_c, 0, 64, 82
1, 313805, Control_c, 0, 64, 90
1, 313811, Note_on_c, 0, 71, 45
1, 313820, Control_c, 0, 64, 105
1, 313835, Control_c, 0, 64, 127
1, 313879, Control_c, 0, 64, 105
1, 313894, Control_c, 0, 64, 69
1, 313909, Control_c, 0, 64, 49
1, 313910, Note_on_c, 0, 69, 53
1, 313919, Note_off_c, 0, 71, 49
1, 313924, Control_c, 0, 64, 0
1, 313927, Note_off_c, 0, 62, 63
1, 313930, Note_off_c, 0, 69, 65
1, 313930, Note_on_c, 0, 81, 61
1, 313943, Note_on_c, 0, 74, 29
1, 313973, Note_off_c, 0, 74, 50
1, 314020, Note_on_c, 0, 76, 42
1, 314083, Note_on_c, 0, 78, 59
1, 314121, Note_off_c, 0, 76, 46
1, 314145, Note_off_c, 0, 78, 59
1, 314184, Note_on_c, 0, 79, 47
1, 314259, Note_off_c, 0, 79, 48
1, 314293, Note_on_c, 0, 73, 60
1, 314303, Control_c, 0, 64, 20
1, 314304, Note_on_c, 0, 67, 40
1, 314318, Control_c, 0, 64, 39
1, 314318, Note_off_c, 0, 73, 65
1, 314319, Note_on_c, 0, 64, 31
1, 314321, Note_off_c, 0, 81, 56
1, 314333, Control_c, 0, 64, 47
1, 314348, Control_c, 0, 64, 52
1, 314362, Control_c, 0, 64, 56
1, 314372, Note_off_c, 0, 67, 57
1, 314377, Control_c, 0, 64, 61
1, 314387, Note_on_c, 0, 69, 56
1, 314392, Control_c, 0, 64, 65
1, 314407, Control_c, 0, 64, 68
1, 314421, Control_c, 0, 64, 70
1, 314428, Note_off_c, 0, 69, 61
1, 314436, Control_c, 0, 64, 71
1, 314451, Control_c, 0, 64, 72
1, 314492, Note_on_c, 0, 71, 36
1, 314553, Note_on_c, 0, 69, 49
1, 314573, Note_off_c, 0, 71, 40
1, 314585, Note_off_c, 0, 69, 64
1, 314616, Poly_aftertouch_c, 0, 73, 127
1, 314664, Note_on_c, 0, 81, 74
1, 314671, Note_on_c, 0, 69, 46
1, 314673, Control_c, 0, 64, 72
1, 314682, Poly_aftertouch_c, 0, 73, 0
1, 314688, Control_c, 0, 64, 73
1, 314694, Note_off_c, 0, 64, 40
1, 314697, Note_off_c, 0, 69, 56
1, 314703, Control_c, 0, 64, 74
1, 314718, Control_c, 0, 64, 75
1, 314733, Control_c, 0, 64, 75
1, 314752, Note_on_c, 0, 79, 59
1, 314801, Note_off_c, 0, 79, 57
1, 314841, Note_on_c, 0, 73, 52
1, 314871, Note_off_c, 0, 73, 64
1, 314917, Note_on_c, 0, 79, 60
1, 314937, Note_off_c, 0, 79, 66
1, 314941, Note_off_c, 0, 81, 39
1, 315037, Note_on_c, 0, 91, 74
1, 315060, Note_off_c, 0, 91, 63
1, 315066, Control_c, 0, 64, 76
1, 315068, Note_on_c, 0, 67, 45
1, 315069, Note_on_c, 0, 64, 25
1, 315081, Control_c, 0, 64, 77
1, 315096, Control_c, 0, 64, 79
1, 315111, Control_c, 0, 64, 79
1, 315126, Control_c, 0, 64, 80
1, 315149, Note_on_c, 0, 69, 55
1, 315153, Note_off_c, 0, 67, 51
1, 315156, Control_c, 0, 64, 80
1, 315185, Control_c, 0, 64, 81
1, 315189, Note_off_c, 0, 69, 59
1, 315247, Note_on_c, 0, 71, 49
1, 315298, Note_off_c, 0, 71, 59
1, 315302, Note_on_c, 0, 69, 54
1, 315335, Note_off_c, 0, 69, 62
1, 315413, Note_on_c, 0, 85, 72
1, 315431, Note_on_c, 0, 69, 43
1, 315445, Note_off_c, 0, 64, 43
1, 315454, Note_on_c, 0, 73, 19
1, 315460, Note_off_c, 0, 69, 57
1, 315497, Note_off_c, 0, 73, 55
1, 315514, Note_on_c, 0, 79, 56
1, 315540, Control_c, 0, 64, 80
1, 315558, Note_off_c, 0, 79, 56
1, 315570, Control_c, 0, 64, 79
1, 315585, Control_c, 0, 64, 79
1, 315586, Note_on_c, 0, 73, 54
1, 315600, Control_c, 0, 64, 78
1, 315613, Note_off_c, 0, 73, 66
1, 315629, Control_c, 0, 64, 78
1, 315674, Control_c, 0, 64, 77
1, 315676, Note_on_c, 0, 79, 55
1, 315697, Note_off_c, 0, 79, 63
1, 315698, Note_off_c, 0, 85, 48
1, 315710, Control_c, 0, 64, 76
1, 315725, Control_c, 0, 64, 74
1, 315741, Control_c, 0, 64, 71
1, 315756, Control_c, 0, 64, 65
1, 315771, Control_c, 0, 64, 56
1, 315786, Control_c, 0, 64, 34
1, 315798, Note_on_c, 0, 86, 60
1, 315801, Control_c, 0, 64, 0
1, 315807, Note_on_c, 0, 57, 35
1, 315813, Note_on_c, 0, 54, 35
1, 315822, Note_on_c, 0, 78, 35
1, 315859, Control_c, 0, 64, 14
1, 315873, Note_off_c, 0, 57, 51
1, 315874, Note_on_c, 0, 62, 47
1, 315874, Control_c, 0, 64, 30
1, 315889, Control_c, 0, 64, 41
1, 315898, Note_off_c, 0, 86, 63
1, 315904, Control_c, 0, 64, 54
1, 315916, Note_off_c, 0, 78, 65
1, 315919, Control_c, 0, 64, 63
1, 315934, Control_c, 0, 64, 71
1, 315934, Note_off_c, 0, 62, 58
1, 315949, Control_c, 0, 64, 77
1, 315964, Control_c, 0, 64, 77
1, 315994, Note_on_c, 0, 57, 55
1, 316008, Control_c, 0, 64, 78
1, 316023, Control_c, 0, 64, 78
1, 316038, Control_c, 0, 64, 79
1, 316053, Control_c, 0, 64, 80
1, 316059, Note_on_c, 0, 62, 50
1, 316067, Control_c, 0, 64, 81
1, 316112, Note_off_c, 0, 62, 60
1, 316121, Note_off_c, 0, 54, 54
1, 316141, Control_c, 0, 67, 124
1, 316143, Note_off_c, 0, 57, 59
1, 316156, Control_c, 0, 67, 117
1, 316157, Note_on_c, 0, 74, 67
1, 316171, Control_c, 0, 67, 110
1, 316177, Note_on_c, 0, 69, 46
1, 316185, Control_c, 0, 67, 103
1, 316200, Control_c, 0, 67, 96
1, 316204, Note_off_c, 0, 69, 58
1, 316215, Control_c, 0, 67, 91
1, 316230, Control_c, 0, 67, 86
1, 316245, Note_on_c, 0, 71, 59
1, 316245, Control_c, 0, 67, 82
1, 316259, Control_c, 0, 67, 77
1, 316274, Control_c, 0, 67, 73
1, 316286, Note_off_c, 0, 74, 37
1, 316289, Control_c, 0, 67, 69
1, 316301, Note_off_c, 0, 71, 61
1, 316304, Control_c, 0, 67, 64
1, 316319, Control_c, 0, 67, 60
1, 316333, Control_c, 0, 67, 56
1, 316334, Note_on_c, 0, 69, 51
1, 316348, Control_c, 0, 67, 54
1, 316363, Control_c, 0, 67, 51
1, 316378, Control_c, 0, 67, 50
1, 316393, Control_c, 0, 67, 49
1, 316396, Note_off_c, 0, 69, 61
1, 316414, Note_on_c, 0, 71, 50
1, 316436, Note_off_c, 0, 71, 63
1, 316489, Control_c, 0, 64, 78
1, 316504, Control_c, 0, 64, 72
1, 316504, Control_c, 0, 67, 49
1, 316519, Control_c, 0, 64, 63
1, 316530, Note_on_c, 0, 83, 73
1, 316535, Control_c, 0, 64, 52
1, 316545, Note_on_c, 0, 56, 32
1, 316550, Control_c, 0, 64, 29
1, 316550, Control_c, 0, 67, 48
1, 316551, Note_on_c, 0, 59, 32
1, 316564, Control_c, 0, 64, 0
1, 316564, Control_c, 0, 67, 47
1, 316579, Control_c, 0, 67, 46
1, 316594, Control_c, 0, 67, 44
1, 316608, Control_c, 0, 64, 25
1, 316608, Control_c, 0, 67, 42
1, 316611, Note_off_c, 0, 59, 53
1, 316615, Note_on_c, 0, 62, 55
1, 316623, Control_c, 0, 64, 37
1, 316623, Control_c, 0, 67, 41
1, 316638, Control_c, 0, 64, 48
1, 316638, Control_c, 0, 67, 39
1, 316648, Note_off_c, 0, 83, 66
1, 316653, Control_c, 0, 64, 58
1, 316653, Control_c, 0, 67, 37
1, 316668, Control_c, 0, 64, 65
1, 316668, Control_c, 0, 67, 34
1, 316681, Note_off_c, 0, 62, 59
1, 316682, Control_c, 0, 64, 69
1, 316682, Control_c, 0, 67, 31
1, 316697, Control_c, 0, 64, 71
1, 316697, Control_c, 0, 67, 26
1, 316712, Control_c, 0, 64, 71
1, 316712, Control_c, 0, 67, 20
1, 316718, Note_on_c, 0, 59, 60
1, 316727, Control_c, 0, 67, 14
1, 316742, Control_c, 0, 64, 72
1, 316742, Control_c, 0, 67, 10
1, 316744, Note_off_c, 0, 56, 57
1, 316757, Control_c, 0, 64, 72
1, 316757, Control_c, 0, 67, 0
1, 316759, Note_off_c, 0, 59, 57
1, 316772, Control_c, 0, 64, 73
1, 316786, Control_c, 0, 64, 74
1, 316800, Note_on_c, 0, 64, 58
1, 316890, Note_off_c, 0, 64, 54
1, 316897, Note_on_c, 0, 76, 79
1, 316899, Note_on_c, 0, 68, 69
1, 316921, Note_off_c, 0, 68, 65
1, 316984, Note_off_c, 0, 76, 60
1, 316991, Note_on_c, 0, 73, 62
1, 317041, Note_off_c, 0, 73, 62
1, 317076, Note_on_c, 0, 71, 61
1, 317122, Note_off_c, 0, 71, 57
1, 317142, Note_on_c, 0, 73, 64
1, 317165, Note_off_c, 0, 73, 68
1, 317223, Control_c, 0, 64, 72
1, 317238, Control_c, 0, 64, 68
1, 317253, Control_c, 0, 64, 63
1, 317266, Note_on_c, 0, 85, 72
1, 317268, Control_c, 0, 64, 53
1, 317274, Note_on_c, 0, 57, 42
1, 317282, Control_c, 0, 64, 34
1, 317297, Control_c, 0, 64, 0
1, 317298, Note_on_c, 0, 61, 43
1, 317331, Note_off_c, 0, 61, 61
1, 317342, Note_off_c, 0, 57, 0
1, 317342, Note_on_c, 0, 57, 9
1, 317343, Control_c, 0, 64, 8
1, 317358, Control_c, 0, 64, 27
1, 317373, Control_c, 0, 64, 37
1, 317377, Note_on_c, 0, 64, 57
1, 317387, Control_c, 0, 64, 47
1, 317402, Control_c, 0, 64, 56
1, 317410, Note_off_c, 0, 85, 63
1, 317417, Control_c, 0, 64, 63
1, 317429, Note_off_c, 0, 64, 58
1, 317431, Control_c, 0, 64, 67
1, 317446, Control_c, 0, 64, 69
1, 317447, Note_on_c, 0, 61, 59
1, 317461, Control_c, 0, 64, 69
1, 317476, Control_c, 0, 64, 70
1, 317491, Control_c, 0, 64, 70
1, 317505, Control_c, 0, 64, 71
1, 317508, Note_off_c, 0, 57, 39
1, 317520, Control_c, 0, 64, 72
1, 317533, Note_off_c, 0, 61, 62
1, 317535, Note_on_c, 0, 64, 62
1, 317535, Control_c, 0, 64, 73
1, 317550, Control_c, 0, 64, 74
1, 317565, Control_c, 0, 64, 75
1, 317579, Control_c, 0, 64, 75
1, 317594, Control_c, 0, 64, 76
1, 317617, Note_off_c, 0, 64, 59
1, 317624, Note_on_c, 0, 76, 76
1, 317624, Control_c, 0, 64, 76
1, 317636, Note_on_c, 0, 69, 59
1, 317639, Control_c, 0, 64, 77
1, 317639, Note_on_c, 0, 73, 51
1, 317654, Control_c, 0, 64, 78
1, 317657, Note_off_c, 0, 69, 64
1, 317663, Note_off_c, 0, 73, 62
1, 317708, Note_off_c, 0, 76, 60
1, 317715, Note_on_c, 0, 74, 67
1, 317728, Control_c, 0, 64, 78
1, 317776, Note_off_c, 0, 74, 63
1, 317794, Note_on_c, 0, 73, 66
1, 317846, Note_off_c, 0, 73, 65
1, 317886, Note_on_c, 0, 74, 56
1, 317904, Note_off_c, 0, 74, 67
1, 317956, Control_c, 0, 64, 74
1, 317971, Control_c, 0, 64, 66
1, 317986, Control_c, 0, 64, 56
1, 317988, Note_on_c, 0, 62, 61
1, 317991, Note_on_c, 0, 86, 83
1, 318001, Control_c, 0, 64, 31
1, 318010, Note_on_c, 0, 59, 35
1, 318016, Control_c, 0, 64, 0
1, 318067, Note_off_c, 0, 62, 62
1, 318075, Control_c, 0, 64, 18
1, 318080, Note_on_c, 0, 64, 62
1, 318090, Control_c, 0, 64, 32
1, 318105, Control_c, 0, 64, 41
1, 318119, Control_c, 0, 64, 50
1, 318125, Note_off_c, 0, 86, 63
1, 318135, Control_c, 0, 64, 58
1, 318150, Control_c, 0, 64, 62
1, 318158, Note_off_c, 0, 64, 62
1, 318165, Control_c, 0, 64, 64
1, 318168, Note_on_c, 0, 62, 70
1, 318179, Control_c, 0, 64, 65
1, 318209, Control_c, 0, 64, 66
1, 318224, Control_c, 0, 64, 67
1, 318226, Note_off_c, 0, 59, 40
1, 318239, Control_c, 0, 64, 68
1, 318244, Note_on_c, 0, 64, 73
1, 318253, Control_c, 0, 64, 69
1, 318268, Control_c, 0, 64, 69
1, 318278, Note_off_c, 0, 62, 63
1, 318283, Control_c, 0, 64, 70
1, 318298, Control_c, 0, 64, 71
1, 318313, Control_c, 0, 64, 71
1, 318328, Control_c, 0, 64, 72
1, 318336, Note_off_c, 0, 64, 64
1, 318342, Control_c, 0, 64, 72
1, 318348, Note_on_c, 0, 71, 71
1, 318355, Note_on_c, 0, 80, 80
1, 318370, Note_off_c, 0, 71, 69
1, 318372, Control_c, 0, 64, 73
1, 318402, Control_c, 0, 64, 73
1, 318437, Poly_aftertouch_c, 0, 74, 127
1, 318446, Note_on_c, 0, 76, 72
1, 318447, Control_c, 0, 64, 74
1, 318465, Poly_aftertouch_c, 0, 74, 0
1, 318511, Note_off_c, 0, 80, 38
1, 318511, Note_off_c, 0, 76, 63
1, 318543, Note_on_c, 0, 74, 69
1, 318599, Note_off_c, 0, 74, 63
1, 318632, Note_on_c, 0, 76, 48
1, 318653, Control_c, 0, 64, 73
1, 318655, Note_off_c, 0, 76, 59
1, 318668, Control_c, 0, 64, 69
1, 318683, Control_c, 0, 64, 63
1, 318706, Control_c, 0, 64, 51
1, 318721, Control_c, 0, 64, 23
1, 318722, Note_on_c, 0, 64, 56
1, 318726, Note_on_c, 0, 88, 83
1, 318727, Note_on_c, 0, 61, 50
1, 318735, Control_c, 0, 64, 0
1, 318794, Control_c, 0, 64, 25
1, 318798, Note_off_c, 0, 64, 62
1, 318809, Control_c, 0, 64, 35
1, 318813, Note_on_c, 0, 69, 63
1, 318824, Control_c, 0, 64, 45
1, 318839, Control_c, 0, 64, 54
1, 318846, Note_off_c, 0, 88, 65
1, 318853, Control_c, 0, 64, 62
1, 318868, Control_c, 0, 64, 65
1, 318875, Note_off_c, 0, 69, 62
1, 318883, Control_c, 0, 64, 66
1, 318894, Note_on_c, 0, 64, 72
1, 318898, Control_c, 0, 64, 66
1, 318926, Note_off_c, 0, 61, 65
1, 318928, Control_c, 0, 64, 67
1, 318944, Control_c, 0, 64, 69
1, 318958, Control_c, 0, 64, 70
1, 318969, Note_off_c, 0, 64, 62
1, 318973, Control_c, 0, 64, 71
1, 318978, Note_on_c, 0, 69, 77
1, 318988, Control_c, 0, 64, 71
1, 319002, Control_c, 0, 64, 72
1, 319017, Control_c, 0, 64, 73
1, 319032, Control_c, 0, 64, 73
1, 319047, Control_c, 0, 64, 74
1, 319076, Control_c, 0, 64, 74
1, 319082, Note_on_c, 0, 73, 77
1, 319082, Note_on_c, 0, 81, 88
1, 319083, Note_off_c, 0, 69, 53
1, 319088, Note_on_c, 0, 76, 68
1, 319097, Note_off_c, 0, 73, 70
1, 319106, Control_c, 0, 64, 75
1, 319122, Note_off_c, 0, 76, 64
1, 319150, Control_c, 0, 64, 75
1, 319165, Note_on_c, 0, 78, 79
1, 319165, Control_c, 0, 64, 76
1, 319184, Note_off_c, 0, 81, 54
1, 319236, Note_off_c, 0, 78, 64
1, 319248, Note_on_c, 0, 76, 80
1, 319332, Note_on_c, 0, 78, 84
1, 319334, Note_off_c, 0, 76, 66
1, 319369, Note_off_c, 0, 78, 63
1, 319388, Control_c, 0, 64, 74
1, 319402, Control_c, 0, 64, 70
1, 319416, Control_c, 0, 64, 63
1, 319431, Control_c, 0, 64, 48
1, 319433, Note_on_c, 0, 62, 71
1, 319433, Note_on_c, 0, 88, 88
1, 319454, Control_c, 0, 64, 0
1, 319529, Note_on_c, 0, 64, 64
1, 319542, Control_c, 0, 64, 15
1, 319557, Control_c, 0, 64, 31
1, 319571, Note_off_c, 0, 88, 63
1, 319572, Control_c, 0, 64, 41
1, 319587, Control_c, 0, 64, 52
1, 319588, Note_off_c, 0, 62, 54
1, 319601, Control_c, 0, 64, 60
1, 319605, Note_on_c, 0, 68, 84
1, 319616, Control_c, 0, 64, 65
1, 319630, Note_off_c, 0, 64, 61
1, 319631, Control_c, 0, 64, 69
1, 319646, Control_c, 0, 64, 70
1, 319661, Control_c, 0, 64, 70
1, 319675, Control_c, 0, 64, 71
1, 319690, Control_c, 0, 64, 73
1, 319699, Note_on_c, 0, 71, 79
1, 319705, Control_c, 0, 64, 74
1, 319720, Control_c, 0, 64, 75
1, 319736, Control_c, 0, 64, 77
1, 319743, Note_off_c, 0, 68, 50
1, 319751, Control_c, 0, 64, 78
1, 319766, Control_c, 0, 64, 79
1, 319780, Control_c, 0, 64, 80
1, 319785, Note_off_c, 0, 71, 69
1, 319794, Note_on_c, 0, 74, 78
1, 319794, Note_on_c, 0, 80, 83
1, 319795, Control_c, 0, 64, 80
1, 319801, Note_on_c, 0, 76, 70
1, 319811, Note_off_c, 0, 74, 75
1, 319824, Control_c, 0, 64, 81
1, 319839, Control_c, 0, 64, 82
1, 319852, Note_off_c, 0, 76, 60
1, 319854, Control_c, 0, 64, 82
1, 319884, Note_on_c, 0, 78, 77
1, 319913, Note_off_c, 0, 80, 53
1, 319913, Control_c, 0, 64, 83
1, 319928, Control_c, 0, 64, 83
1, 319943, Control_c, 0, 64, 84
1, 319946, Note_off_c, 0, 78, 64
1, 319958, Control_c, 0, 64, 84
1, 319973, Control_c, 0, 64, 86
1, 319976, Note_on_c, 0, 74, 82
1, 319978, Note_on_c, 0, 76, 74
1, 319988, Control_c, 0, 64, 88
1, 320001, Note_off_c, 0, 74, 68
1, 320003, Control_c, 0, 64, 94
1, 320018, Control_c, 0, 64, 98
1, 320032, Control_c, 0, 64, 100
1, 320049, Note_off_c, 0, 76, 62
1, 320051, Note_on_c, 0, 78, 76
1, 320062, Control_c, 0, 64, 100
1, 320074, Note_off_c, 0, 78, 72
1, 320077, Control_c, 0, 64, 87
1, 320092, Control_c, 0, 64, 67
1, 320106, Control_c, 0, 64, 53
1, 320121, Control_c, 0, 64, 11
1, 320136, Control_c, 0, 64, 0
1, 320158, Note_on_c, 0, 76, 70
1, 320158, Note_on_c, 0, 88, 72
1, 320162, Note_on_c, 0, 74, 60
1, 320173, Note_on_c, 0, 80, 60
1, 320228, Note_on_c, 0, 83, 44
1, 320241, Note_off_c, 0, 74, 61
1, 320244, Note_on_c, 0, 73, 71
1, 320328, Note_off_c, 0, 73, 65
1, 320343, Note_on_c, 0, 71, 64
1, 320422, Note_on_c, 0, 73, 75
1, 320423, Note_off_c, 0, 71, 66
1, 320513, Note_on_c, 0, 74, 83
1, 320527, Note_off_c, 0, 76, 65
1, 320538, Note_off_c, 0, 73, 64
1, 320554, Note_off_c, 0, 74, 67
1, 320556, Note_off_c, 0, 83, 46
1, 320573, Control_c, 0, 64, 39
1, 320588, Control_c, 0, 64, 50
1, 320603, Control_c, 0, 64, 58
1, 320606, Note_on_c, 0, 90, 85
1, 320618, Control_c, 0, 64, 61
1, 320633, Control_c, 0, 64, 66
1, 320636, Note_off_c, 0, 88, 56
1, 320647, Control_c, 0, 64, 71
1, 320662, Control_c, 0, 64, 74
1, 320675, Note_off_c, 0, 80, 56
1, 320677, Control_c, 0, 64, 75
1, 320692, Control_c, 0, 64, 77
1, 320694, Note_on_c, 0, 92, 88
1, 320700, Note_off_c, 0, 90, 66
1, 320707, Control_c, 0, 64, 80
1, 320721, Control_c, 0, 64, 84
1, 320736, Control_c, 0, 64, 92
1, 320751, Control_c, 0, 64, 105
1, 320766, Control_c, 0, 64, 127
1, 320770, Note_on_c, 0, 90, 84
1, 320819, Note_off_c, 0, 92, 65
1, 320850, Note_on_c, 0, 83, 35
1, 320855, Control_c, 0, 64, 69
1, 320857, Note_on_c, 0, 88, 83
1, 320866, Note_on_c, 0, 80, 74
1, 320867, Note_on_c, 0, 74, 74
1, 320868, Note_on_c, 0, 76, 75
1, 320870, Control_c, 0, 64, 46
1, 320872, Note_off_c, 0, 90, 67
1, 320885, Control_c, 0, 64, 0
1, 320957, Note_off_c, 0, 74, 63
1, 320960, Note_on_c, 0, 73, 75
1, 321050, Note_on_c, 0, 71, 81
1, 321050, Note_off_c, 0, 73, 64
1, 321128, Note_on_c, 0, 73, 86
1, 321156, Note_off_c, 0, 71, 64
1, 321222, Note_on_c, 0, 74, 92
1, 321240, Note_off_c, 0, 76, 67
1, 321251, Note_off_c, 0, 73, 65
1, 321263, Control_c, 0, 64, 36
1, 321266, Note_off_c, 0, 74, 70
1, 321273, Note_off_c, 0, 83, 46
1, 321278, Control_c, 0, 64, 56
1, 321291, Note_off_c, 0, 80, 0
1, 321293, Control_c, 0, 64, 65
1, 321298, Note_on_c, 0, 90, 88
1, 321307, Control_c, 0, 64, 71
1, 321323, Control_c, 0, 64, 74
1, 321328, Note_off_c, 0, 88, 62
1, 321329, Poly_aftertouch_c, 0, 80, 127
1, 321338, Control_c, 0, 64, 81
1, 321353, Control_c, 0, 64, 89
1, 321368, Control_c, 0, 64, 93
1, 321374, Poly_aftertouch_c, 0, 80, 0
1, 321379, Note_on_c, 0, 92, 93
1, 321383, Control_c, 0, 64, 98
1, 321383, Note_off_c, 0, 90, 67
1, 321397, Control_c, 0, 64, 105
1, 321412, Control_c, 0, 64, 115
1, 321427, Control_c, 0, 64, 127
1, 321469, Note_on_c, 0, 90, 85
1, 321520, Note_off_c, 0, 92, 61
1, 321545, Control_c, 0, 64, 74
1, 321555, Note_on_c, 0, 88, 85
1, 321560, Control_c, 0, 64, 54
1, 321565, Note_off_c, 0, 90, 63
1, 321567, Note_on_c, 0, 74, 69
1, 321573, Note_on_c, 0, 76, 67
1, 321574, Note_on_c, 0, 80, 64
1, 321575, Control_c, 0, 64, 0
1, 321584, Note_off_c, 0, 74, 71
1, 321590, Note_off_c, 0, 76, 66
1, 321591, Note_off_c, 0, 80, 64
1, 321591, Note_off_c, 0, 88, 65
1, 321753, Note_on_c, 0, 73, 75
1, 321759, Note_on_c, 0, 90, 75
1, 321764, Note_on_c, 0, 76, 59
1, 321777, Note_off_c, 0, 73, 66
1, 321782, Note_off_c, 0, 76, 66
1, 321796, Note_off_c, 0, 90, 60
1, 321931, Note_on_c, 0, 92, 90
1, 321936, Note_on_c, 0, 88, 74
1, 321937, Note_on_c, 0, 80, 80
1, 321938, Note_on_c, 0, 74, 70
1, 321940, Note_on_c, 0, 71, 70
1, 321942, Note_on_c, 0, 76, 71
1, 321958, Note_off_c, 0, 88, 73
1, 321960, Note_off_c, 0, 74, 72
1, 321964, Note_off_c, 0, 76, 70
1, 321965, Note_off_c, 0, 71, 67
1, 321988, Note_off_c, 0, 92, 63
1, 321990, Note_off_c, 0, 80, 53
1, 322110, Note_on_c, 0, 93, 91
1, 322111, Note_on_c, 0, 90, 85
1, 322112, Note_on_c, 0, 81, 88
1, 322114, Note_on_c, 0, 69, 60
1, 322114, Note_on_c, 0, 73, 64
1, 322118, Note_on_c, 0, 76, 68
1, 322134, Note_off_c, 0, 69, 66
1, 322134, Note_off_c, 0, 81, 66
1, 322137, Note_off_c, 0, 76, 70
1, 322138, Note_off_c, 0, 73, 68
1, 322139, Note_off_c, 0, 90, 67
1, 322151, Note_off_c, 0, 93, 63
1, 322289, Note_on_c, 0, 95, 101
1, 322292, Note_on_c, 0, 83, 90
1, 322293, Note_on_c, 0, 92, 91
1, 322294, Note_on_c, 0, 68, 77
1, 322294, Note_on_c, 0, 76, 76
1, 322301, Note_on_c, 0, 71, 48
1, 322310, Note_off_c, 0, 83, 71
1, 322314, Note_off_c, 0, 76, 73
1, 322317, Note_off_c, 0, 92, 65
1, 322320, Note_off_c, 0, 68, 63
1, 322324, Note_off_c, 0, 71, 62
1, 322334, Note_off_c, 0, 95, 66
1, 322476, Note_on_c, 0, 97, 98
1, 322478, Note_on_c, 0, 76, 77
1, 322480, Note_on_c, 0, 85, 86
1, 322483, Note_on_c, 0, 69, 66
1, 322487, Note_on_c, 0, 93, 80
1, 322488, Note_on_c, 0, 92, 51
1, 322491, Note_on_c, 0, 66, 55
1, 322498, Note_off_c, 0, 76, 72
1, 322501, Note_off_c, 0, 85, 67
1, 322507, Note_off_c, 0, 93, 66
1, 322509, Note_off_c, 0, 69, 66
1, 322512, Note_off_c, 0, 66, 60
1, 322513, Note_off_c, 0, 92, 58
1, 322523, Note_off_c, 0, 97, 66
1, 322695, Note_on_c, 0, 98, 95
1, 322698, Note_on_c, 0, 76, 81
1, 322698, Note_on_c, 0, 95, 91
1, 322699, Note_on_c, 0, 64, 63
1, 322699, Note_on_c, 0, 86, 84
1, 322703, Note_on_c, 0, 68, 69
1, 322716, Note_off_c, 0, 95, 73
1, 322716, Control_c, 0, 64, 14
1, 322718, Note_off_c, 0, 86, 71
1, 322718, Note_off_c, 0, 64, 64
1, 322730, Note_off_c, 0, 68, 66
1, 322730, Note_off_c, 0, 76, 66
1, 322730, Note_off_c, 0, 98, 63
1, 322731, Control_c, 0, 64, 44
1, 322746, Control_c, 0, 64, 59
1, 322760, Control_c, 0, 64, 80
1, 322775, Control_c, 0, 64, 127
1, 323088, Control_c, 0, 64, 92
1, 323088, Control_c, 0, 67, 10
1, 323103, Control_c, 0, 64, 59
1, 323103, Control_c, 0, 67, 25
1, 323117, Control_c, 0, 64, 0
1, 323117, Control_c, 0, 67, 45
1, 323132, Control_c, 0, 67, 69
1, 323147, Control_c, 0, 67, 94
1, 323162, Control_c, 0, 67, 117
1, 323176, Control_c, 0, 67, 126
1, 323198, Control_c, 0, 67, 127
1, 323651, Note_on_c, 0, 74, 45
1, 323966, Note_off_c, 0, 74, 60
1, 323971, Note_on_c, 0, 73, 52
1, 324050, Note_off_c, 0, 73, 60
1, 324054, Note_on_c, 0, 71, 53
1, 324356, Note_off_c, 0, 71, 56
1, 324370, Note_on_c, 0, 73, 47
1, 324426, Note_off_c, 0, 73, 59
1, 324460, Note_on_c, 0, 74, 36
1, 324696, Control_c, 0, 64, 22
1, 324711, Control_c, 0, 64, 31
1, 324726, Control_c, 0, 64, 38
1, 324741, Control_c, 0, 64, 45
1, 324744, Note_off_c, 0, 74, 53
1, 324755, Control_c, 0, 64, 50
1, 324770, Control_c, 0, 64, 52
1, 324785, Control_c, 0, 64, 53
1, 324800, Control_c, 0, 64, 52
1, 324815, Control_c, 0, 64, 51
1, 324829, Control_c, 0, 64, 49
1, 324844, Control_c, 0, 64, 45
1, 324857, Note_on_c, 0, 73, 48
1, 324859, Control_c, 0, 64, 38
1, 324874, Control_c, 0, 64, 28
1, 324889, Control_c, 0, 64, 21
1, 324903, Control_c, 0, 64, 14
1, 324918, Control_c, 0, 64, 0
1, 325237, Note_on_c, 0, 78, 52
1, 325249, Note_on_c, 0, 69, 41
1, 325305, Note_off_c, 0, 73, 54
1, 325536, Note_on_c, 0, 68, 54
1, 325559, Note_off_c, 0, 69, 56
1, 325607, Note_on_c, 0, 81, 64
1, 325612, Note_on_c, 0, 66, 58
1, 325655, Note_off_c, 0, 78, 60
1, 325697, Note_off_c, 0, 68, 55
1, 325890, Note_on_c, 0, 68, 64
1, 325947, Note_off_c, 0, 66, 60
1, 325968, Note_off_c, 0, 68, 59
1, 325983, Note_on_c, 0, 69, 53
1, 325989, Note_on_c, 0, 78, 64
1, 326005, Note_on_c, 0, 73, 43
1, 326019, Note_off_c, 0, 81, 58
1, 326084, Note_off_c, 0, 73, 0
1, 326084, Note_on_c, 0, 73, 13
1, 326113, Control_c, 0, 64, 15
1, 326128, Control_c, 0, 64, 34
1, 326142, Control_c, 0, 64, 49
1, 326157, Control_c, 0, 64, 60
1, 326172, Control_c, 0, 64, 69
1, 326173, Note_off_c, 0, 78, 65
1, 326194, Control_c, 0, 64, 77
1, 326209, Control_c, 0, 64, 80
1, 326215, Note_off_c, 0, 73, 52
1, 326224, Control_c, 0, 64, 82
1, 326239, Control_c, 0, 64, 82
1, 326239, Note_off_c, 0, 69, 64
1, 326268, Control_c, 0, 64, 83
1, 326372, Control_c, 0, 64, 81
1, 326383, Note_on_c, 0, 76, 59
1, 326387, Control_c, 0, 64, 78
1, 326401, Control_c, 0, 64, 74
1, 326409, Note_on_c, 0, 68, 44
1, 326409, Note_on_c, 0, 71, 45
1, 326416, Control_c, 0, 64, 70
1, 326431, Control_c, 0, 64, 66
1, 326446, Control_c, 0, 64, 63
1, 326461, Control_c, 0, 64, 60
1, 326475, Control_c, 0, 64, 56
1, 326490, Control_c, 0, 64, 49
1, 326499, Note_off_c, 0, 71, 0
1, 326499, Note_on_c, 0, 71, 3
1, 326505, Control_c, 0, 64, 39
1, 326519, Control_c, 0, 64, 28
1, 326534, Control_c, 0, 64, 16
1, 326549, Control_c, 0, 64, 0
1, 326765, Note_on_c, 0, 47, 57
1, 326858, Note_off_c, 0, 71, 59
1, 326921, Control_c, 0, 64, 22
1, 326942, Control_c, 0, 64, 35
1, 326957, Control_c, 0, 64, 46
1, 326972, Control_c, 0, 64, 57
1, 326987, Control_c, 0, 64, 64
1, 327002, Control_c, 0, 64, 69
1, 327005, Note_off_c, 0, 68, 56
1, 327017, Control_c, 0, 64, 71
1, 327032, Control_c, 0, 64, 71
1, 327040, Note_off_c, 0, 47, 62
1, 327065, Note_on_c, 0, 46, 52
1, 327091, Control_c, 0, 64, 70
1, 327106, Control_c, 0, 64, 67
1, 327121, Control_c, 0, 64, 63
1, 327128, Note_off_c, 0, 76, 64
1, 327136, Control_c, 0, 64, 57
1, 327139, Note_on_c, 0, 75, 61
1, 327145, Note_on_c, 0, 66, 44
1, 327146, Note_on_c, 0, 47, 52
1, 327146, Note_on_c, 0, 69, 43
1, 327149, Note_off_c, 0, 46, 58
1, 327150, Control_c, 0, 64, 48
1, 327165, Control_c, 0, 64, 33
1, 327180, Control_c, 0, 64, 0
1, 327187, Note_off_c, 0, 66, 0
1, 327187, Note_on_c, 0, 66, 4
1, 327202, Note_off_c, 0, 69, 0
1, 327202, Note_on_c, 0, 69, 8
1, 327419, Note_off_c, 0, 47, 61
1, 327437, Note_on_c, 0, 45, 49
1, 327512, Note_off_c, 0, 45, 63
1, 327533, Note_on_c, 0, 42, 40
1, 327654, Control_c, 0, 64, 21
1, 327668, Control_c, 0, 64, 31
1, 327676, Note_off_c, 0, 69, 51
1, 327691, Control_c, 0, 64, 40
1, 327705, Control_c, 0, 64, 50
1, 327706, Note_off_c, 0, 66, 58
1, 327720, Note_off_c, 0, 75, 54
1, 327721, Control_c, 0, 64, 58
1, 327736, Control_c, 0, 64, 63
1, 327751, Control_c, 0, 64, 66
1, 327765, Control_c, 0, 64, 66
1, 327795, Control_c, 0, 64, 67
1, 327810, Control_c, 0, 64, 67
1, 327813, Note_off_c, 0, 42, 36
1, 327840, Control_c, 0, 64, 68
1, 327869, Control_c, 0, 64, 67
1, 327884, Control_c, 0, 64, 65
1, 327899, Control_c, 0, 64, 61
1, 327914, Control_c, 0, 64, 53
1, 327923, Note_on_c, 0, 40, 40
1, 327929, Control_c, 0, 64, 35
1, 327931, Note_on_c, 0, 76, 50
1, 327944, Control_c, 0, 64, 0
1, 327947, Note_on_c, 0, 64, 33
1, 327953, Note_on_c, 0, 68, 37
1, 328003, Control_c, 0, 64, 22
1, 328018, Control_c, 0, 64, 36
1, 328020, Note_off_c, 0, 64, 57
1, 328033, Control_c, 0, 64, 50
1, 328035, Note_off_c, 0, 40, 60
1, 328047, Control_c, 0, 64, 60
1, 328051, Note_off_c, 0, 68, 60
1, 328062, Control_c, 0, 64, 66
1, 328066, Note_off_c, 0, 76, 65
1, 328077, Control_c, 0, 64, 69
1, 328106, Control_c, 0, 64, 66
1, 328121, Control_c, 0, 64, 61
1, 328136, Control_c, 0, 64, 49
1, 328151, Control_c, 0, 64, 34
1, 328165, Control_c, 0, 64, 16
1, 328180, Control_c, 0, 64, 0
1, 328330, Note_on_c, 0, 85, 54
1, 328346, Note_on_c, 0, 69, 33
1, 328350, Note_on_c, 0, 73, 39
1, 328385, Poly_aftertouch_c, 0, 81, 127
1, 328403, Control_c, 0, 64, 22
1, 328412, Note_off_c, 0, 69, 64
1, 328418, Control_c, 0, 64, 33
1, 328433, Control_c, 0, 64, 42
1, 328454, Control_c, 0, 64, 50
1, 328456, Poly_aftertouch_c, 0, 81, 0
1, 328469, Note_off_c, 0, 73, 42
1, 328469, Control_c, 0, 64, 56
1, 328484, Control_c, 0, 64, 61
1, 328498, Control_c, 0, 64, 63
1, 328515, Control_c, 0, 64, 64
1, 328544, Control_c, 0, 64, 64
1, 328558, Note_off_c, 0, 85, 59
1, 328559, Control_c, 0, 64, 65
1, 328574, Control_c, 0, 64, 65
1, 328588, Control_c, 0, 64, 66
1, 328603, Control_c, 0, 64, 67
1, 328618, Note_on_c, 0, 83, 61
1, 328633, Control_c, 0, 64, 66
1, 328636, Note_on_c, 0, 71, 4
1, 328639, Note_on_c, 0, 76, 15
1, 328648, Note_on_c, 0, 64, 29
1, 328648, Control_c, 0, 64, 65
1, 328656, Note_off_c, 0, 83, 59
1, 328662, Control_c, 0, 64, 61
1, 328677, Control_c, 0, 64, 52
1, 328679, Note_off_c, 0, 76, 52
1, 328684, Note_off_c, 0, 71, 53
1, 328686, Note_off_c, 0, 64, 46
1, 328692, Control_c, 0, 64, 33
1, 328698, Note_on_c, 0, 81, 67
1, 328707, Control_c, 0, 64, 0
1, 328720, Note_on_c, 0, 69, 39
1, 328723, Note_on_c, 0, 61, 35
1, 328744, Note_on_c, 0, 73, 29
1, 328767, Control_c, 0, 64, 20
1, 328782, Control_c, 0, 64, 30
1, 328796, Control_c, 0, 64, 39
1, 328811, Control_c, 0, 64, 46
1, 328817, Note_off_c, 0, 69, 52
1, 328826, Control_c, 0, 64, 52
1, 328832, Note_off_c, 0, 73, 37
1, 328841, Control_c, 0, 64, 56
1, 328856, Control_c, 0, 64, 58
1, 328870, Control_c, 0, 64, 60
1, 328885, Control_c, 0, 64, 60
1, 328900, Control_c, 0, 64, 61
1, 328901, Note_off_c, 0, 81, 53
1, 328905, Note_off_c, 0, 61, 41
1, 328914, Control_c, 0, 64, 62
1, 328929, Control_c, 0, 64, 64
1, 328944, Control_c, 0, 64, 66
1, 328959, Control_c, 0, 64, 67
1, 328978, Note_on_c, 0, 71, 37
1, 328981, Note_on_c, 0, 83, 57
1, 328988, Control_c, 0, 64, 66
1, 329003, Control_c, 0, 64, 63
1, 329006, Note_off_c, 0, 71, 57
1, 329018, Control_c, 0, 64, 56
1, 329023, Poly_aftertouch_c, 0, 64, 127
1, 329033, Control_c, 0, 64, 39
1, 329042, Note_off_c, 0, 83, 62
1, 329048, Control_c, 0, 64, 0
1, 329053, Poly_aftertouch_c, 0, 76, 0
1, 329057, Note_on_c, 0, 85, 61
1, 329057, Poly_aftertouch_c, 0, 64, 0
1, 329080, Note_on_c, 0, 81, 27
1, 329086, Note_on_c, 0, 69, 40
1, 329087, Note_on_c, 0, 73, 51
1, 329107, Control_c, 0, 64, 21
1, 329118, Note_off_c, 0, 81, 53
1, 329119, Note_off_c, 0, 73, 58
1, 329121, Control_c, 0, 64, 33
1, 329127, Note_off_c, 0, 69, 53
1, 329136, Control_c, 0, 64, 43
1, 329151, Control_c, 0, 64, 54
1, 329166, Control_c, 0, 64, 64
1, 329181, Control_c, 0, 64, 82
1, 329203, Control_c, 0, 64, 96
1, 329214, Note_off_c, 0, 85, 63
1, 329218, Control_c, 0, 64, 97
1, 329233, Control_c, 0, 64, 95
1, 329248, Control_c, 0, 64, 85
1, 329248, Control_c, 0, 67, 78
1, 329263, Control_c, 0, 64, 73
1, 329263, Control_c, 0, 67, 11
1, 329277, Control_c, 0, 64, 61
1, 329277, Control_c, 0, 67, 0
1, 329292, Control_c, 0, 64, 44
1, 329307, Control_c, 0, 64, 0
1, 329425, Note_on_c, 0, 76, 96
1, 329429, Note_on_c, 0, 83, 88
1, 329431, Note_on_c, 0, 86, 95
1, 329458, Note_off_c, 0, 76, 70
1, 329471, Control_c, 0, 64, 23
1, 329485, Control_c, 0, 64, 42
1, 329500, Control_c, 0, 64, 50
1, 329515, Control_c, 0, 64, 54
1, 329530, Control_c, 0, 64, 57
1, 329545, Control_c, 0, 64, 61
1, 329560, Control_c, 0, 64, 64
1, 329575, Control_c, 0, 64, 67
1, 329583, Note_off_c, 0, 83, 59
1, 329588, Note_on_c, 0, 64, 89
1, 329589, Control_c, 0, 64, 69
1, 329604, Note_off_c, 0, 86, 59
1, 329604, Control_c, 0, 64, 72
1, 329608, Note_off_c, 0, 64, 69
1, 329619, Control_c, 0, 64, 77
1, 329634, Control_c, 0, 64, 85
1, 329649, Control_c, 0, 64, 105
1, 329664, Control_c, 0, 64, 127
1, 329676, Note_on_c, 0, 88, 88
1, 329694, Note_on_c, 0, 81, 59
1, 329714, Note_off_c, 0, 81, 63
1, 329715, Note_off_c, 0, 88, 63
1, 329723, Control_c, 0, 64, 97
1, 329737, Control_c, 0, 64, 62
1, 329752, Note_on_c, 0, 81, 84
1, 329752, Note_on_c, 0, 85, 89
1, 329752, Control_c, 0, 64, 0
1, 329756, Note_on_c, 0, 69, 74
1, 329778, Note_off_c, 0, 81, 65
1, 329785, Note_off_c, 0, 85, 62
1, 329798, Note_off_c, 0, 69, 51
1, 329926, Note_on_c, 0, 57, 79
1, 329940, Note_on_c, 0, 85, 79
1, 329940, Note_on_c, 0, 93, 79
1, 329955, Note_off_c, 0, 57, 68
1, 329959, Note_off_c, 0, 85, 73
1, 329960, Note_off_c, 0, 93, 69
1, 330119, Note_on_c, 0, 64, 82
1, 330120, Note_on_c, 0, 83, 91
1, 330123, Note_on_c, 0, 74, 81
1, 330140, Note_off_c, 0, 74, 76
1, 330144, Note_off_c, 0, 83, 68
1, 330146, Control_c, 0, 64, 23
1, 330160, Control_c, 0, 64, 50
1, 330175, Control_c, 0, 64, 62
1, 330190, Control_c, 0, 64, 69
1, 330205, Control_c, 0, 64, 74
1, 330220, Control_c, 0, 64, 80
1, 330226, Note_off_c, 0, 64, 60
1, 330234, Control_c, 0, 64, 88
1, 330249, Control_c, 0, 64, 95
1, 330264, Control_c, 0, 64, 102
1, 330274, Note_on_c, 0, 52, 77
1, 330279, Control_c, 0, 64, 114
1, 330293, Control_c, 0, 64, 127
1, 330297, Note_off_c, 0, 52, 71
1, 330356, Note_on_c, 0, 85, 79
1, 330389, Note_on_c, 0, 74, 30
1, 330410, Note_off_c, 0, 85, 63
1, 330421, Note_off_c, 0, 74, 55
1, 330427, Control_c, 0, 64, 74
1, 330440, Note_on_c, 0, 45, 72
1, 330441, Note_on_c, 0, 81, 90
1, 330442, Control_c, 0, 64, 51
1, 330442, Control_c, 0, 67, 22
1, 330444, Note_on_c, 0, 73, 82
1, 330457, Control_c, 0, 64, 0
1, 330457, Control_c, 0, 67, 42
1, 330459, Note_off_c, 0, 73, 71
1, 330459, Note_off_c, 0, 81, 72
1, 330466, Note_off_c, 0, 45, 65
1, 330472, Control_c, 0, 67, 47
1, 330486, Control_c, 0, 67, 58
1, 330501, Control_c, 0, 67, 82
1, 330516, Control_c, 0, 67, 116
1, 330531, Control_c, 0, 67, 127
1, 330582, Poly_aftertouch_c, 0, 73, 0
1, 330655, Note_on_c, 0, 81, 81
1, 330675, Note_off_c, 0, 81, 70
1, 330686, Note_on_c, 0, 64, 32
1, 330698, Note_on_c, 0, 57, 12
1, 330712, Note_off_c, 0, 64, 35
1, 330741, Note_off_c, 0, 57, 28
1, 330938, Note_on_c, 0, 76, 70
1, 330939, Control_c, 0, 64, 18
1, 330952, Note_on_c, 0, 45, 34
1, 330954, Control_c, 0, 64, 32
1, 330969, Control_c, 0, 64, 44
1, 330983, Control_c, 0, 64, 60
1, 330989, Note_off_c, 0, 45, 47
1, 330998, Control_c, 0, 64, 111
1, 331013, Control_c, 0, 64, 127
1, 331087, Control_c, 0, 64, 65
1, 331102, Control_c, 0, 64, 39
1, 331116, Control_c, 0, 64, 0
1, 331134, Note_on_c, 0, 64, 52
1, 331136, Note_on_c, 0, 61, 55
1, 331139, Note_on_c, 0, 57, 46
1, 331159, Note_off_c, 0, 64, 58
1, 331160, Note_off_c, 0, 61, 60
1, 331168, Note_off_c, 0, 57, 53
1, 331303, Note_on_c, 0, 61, 56
1, 331305, Note_on_c, 0, 64, 61
1, 331308, Note_on_c, 0, 57, 49
1, 331324, Note_off_c, 0, 64, 65
1, 331326, Note_off_c, 0, 61, 64
1, 331333, Note_off_c, 0, 57, 60
1, 331391, Note_on_c, 0, 78, 67
1, 331451, Note_off_c, 0, 76, 48
1, 331478, Note_on_c, 0, 61, 57
1, 331480, Note_on_c, 0, 64, 61
1, 331485, Note_on_c, 0, 57, 46
1, 331490, Note_on_c, 0, 80, 63
1, 331500, Note_off_c, 0, 61, 63
1, 331500, Note_off_c, 0, 78, 61
1, 331500, Note_off_c, 0, 64, 63
1, 331512, Note_off_c, 0, 57, 55
1, 331565, Note_on_c, 0, 81, 60
1, 331566, Note_off_c, 0, 80, 56
1, 331630, Note_off_c, 0, 81, 62
1, 331662, Note_on_c, 0, 69, 68
1, 331666, Note_on_c, 0, 45, 50
1, 331668, Note_on_c, 0, 78, 51
1, 331671, Control_c, 0, 64, 34
1, 331686, Control_c, 0, 64, 49
1, 331694, Note_off_c, 0, 45, 61
1, 331702, Control_c, 0, 64, 60
1, 331717, Control_c, 0, 64, 72
1, 331731, Control_c, 0, 64, 94
1, 331746, Control_c, 0, 64, 114
1, 331776, Control_c, 0, 64, 106
1, 331791, Control_c, 0, 64, 83
1, 331805, Control_c, 0, 64, 66
1, 331820, Control_c, 0, 64, 49
1, 331835, Control_c, 0, 64, 0
1, 331850, Note_on_c, 0, 66, 65
1, 331860, Note_on_c, 0, 62, 56
1, 331867, Note_off_c, 0, 66, 66
1, 331870, Note_on_c, 0, 57, 36
1, 331885, Note_off_c, 0, 62, 59
1, 331903, Note_off_c, 0, 57, 33
1, 332011, Note_off_c, 0, 78, 58
1, 332033, Note_on_c, 0, 57, 48
1, 332033, Note_on_c, 0, 62, 47
1, 332035, Note_on_c, 0, 66, 59
1, 332055, Note_off_c, 0, 66, 62
1, 332058, Note_off_c, 0, 57, 56
1, 332059, Note_off_c, 0, 62, 60
1, 332098, Note_off_c, 0, 69, 60
1, 332105, Note_on_c, 0, 71, 54
1, 332196, Note_on_c, 0, 62, 48
1, 332198, Note_on_c, 0, 66, 59
1, 332202, Note_on_c, 0, 73, 63
1, 332204, Note_on_c, 0, 57, 45
1, 332204, Note_off_c, 0, 71, 60
1, 332218, Note_off_c, 0, 66, 65
1, 332223, Note_off_c, 0, 62, 64
1, 332232, Note_off_c, 0, 57, 61
1, 332262, Note_off_c, 0, 73, 64
1, 332271, Note_on_c, 0, 74, 72
1, 332293, Note_off_c, 0, 74, 71
1, 332361, Control_c, 0, 64, 15
1, 332376, Control_c, 0, 64, 31
1, 332389, Note_on_c, 0, 83, 66
1, 332391, Control_c, 0, 64, 39
1, 332393, Note_on_c, 0, 45, 46
1, 332405, Control_c, 0, 64, 50
1, 332420, Control_c, 0, 64, 64
1, 332421, Note_off_c, 0, 45, 56
1, 332435, Control_c, 0, 64, 103
1, 332450, Control_c, 0, 64, 127
1, 332510, Control_c, 0, 64, 75
1, 332525, Control_c, 0, 64, 53
1, 332540, Control_c, 0, 64, 0
1, 332577, Note_on_c, 0, 62, 54
1, 332577, Note_on_c, 0, 64, 55
1, 332579, Note_on_c, 0, 59, 47
1, 332600, Note_off_c, 0, 64, 60
1, 332600, Note_off_c, 0, 62, 60
1, 332606, Note_off_c, 0, 59, 54
1, 332748, Note_on_c, 0, 64, 62
1, 332749, Note_on_c, 0, 62, 58
1, 332754, Note_on_c, 0, 57, 50
1, 332756, Note_on_c, 0, 59, 45
1, 332770, Note_off_c, 0, 62, 64
1, 332772, Note_off_c, 0, 64, 66
1, 332779, Note_off_c, 0, 57, 57
1, 332785, Note_off_c, 0, 59, 53
1, 332834, Note_on_c, 0, 85, 63
1, 332839, Note_off_c, 0, 83, 55
1, 332910, Note_on_c, 0, 62, 62
1, 332916, Note_on_c, 0, 59, 45
1, 332917, Note_on_c, 0, 64, 61
1, 332917, Note_off_c, 0, 85, 60
1, 332929, Note_on_c, 0, 86, 67
1, 332939, Note_on_c, 0, 57, 29
1, 332940, Note_off_c, 0, 62, 66
1, 332945, Note_off_c, 0, 64, 63
1, 332950, Note_off_c, 0, 59, 58
1, 332975, Note_off_c, 0, 57, 42
1, 333004, Note_off_c, 0, 86, 55
1, 333005, Note_on_c, 0, 88, 60
1, 333074, Note_off_c, 0, 88, 63
1, 333101, Note_on_c, 0, 76, 72
1, 333110, Control_c, 0, 64, 15
1, 333110, Note_on_c, 0, 45, 52
1, 333111, Note_on_c, 0, 85, 43
1, 333125, Control_c, 0, 64, 30
1, 333137, Note_off_c, 0, 45, 60
1, 333140, Control_c, 0, 64, 37
1, 333155, Control_c, 0, 64, 48
1, 333169, Control_c, 0, 64, 62
1, 333184, Control_c, 0, 64, 93
1, 333199, Control_c, 0, 64, 127
1, 333243, Control_c, 0, 64, 88
1, 333258, Control_c, 0, 64, 62
1, 333273, Control_c, 0, 64, 33
1, 333283, Note_on_c, 0, 61, 62
1, 333286, Note_on_c, 0, 64, 58
1, 333287, Control_c, 0, 64, 0
1, 333298, Note_on_c, 0, 57, 37
1, 333303, Note_off_c, 0, 61, 66
1, 333310, Note_off_c, 0, 64, 60
1, 333330, Note_off_c, 0, 57, 51
1, 333452, Note_on_c, 0, 61, 67
1, 333452, Note_off_c, 0, 85, 61
1, 333453, Note_on_c, 0, 64, 71
1, 333456, Note_on_c, 0, 57, 56
1, 333479, Note_off_c, 0, 61, 68
1, 333479, Note_off_c, 0, 64, 65
1, 333485, Note_off_c, 0, 57, 63
1, 333534, Note_on_c, 0, 78, 70
1, 333539, Note_off_c, 0, 76, 63
1, 333617, Note_on_c, 0, 61, 59
1, 333622, Note_on_c, 0, 57, 54
1, 333622, Note_on_c, 0, 64, 50
1, 333623, Note_on_c, 0, 80, 69
1, 333639, Note_off_c, 0, 61, 62
1, 333645, Note_off_c, 0, 57, 63
1, 333646, Note_off_c, 0, 64, 57
1, 333659, Note_off_c, 0, 78, 56
1, 333700, Note_on_c, 0, 81, 72
1, 333705, Note_off_c, 0, 80, 60
1, 333775, Note_off_c, 0, 81, 62
1, 333780, Note_on_c, 0, 76, 76
1, 333789, Note_on_c, 0, 45, 51
1, 333800, Note_off_c, 0, 76, 73
1, 333816, Note_off_c, 0, 45, 58
1, 333996, Note_on_c, 0, 64, 55
1, 333996, Note_on_c, 0, 76, 72
1, 334003, Note_on_c, 0, 57, 44
1, 334003, Note_on_c, 0, 61, 50
1, 334019, Note_off_c, 0, 64, 62
1, 334026, Note_off_c, 0, 61, 64
1, 334034, Note_off_c, 0, 57, 60
1, 334174, Note_on_c, 0, 61, 56
1, 334179, Note_on_c, 0, 57, 47
1, 334182, Note_on_c, 0, 64, 48
1, 334198, Note_off_c, 0, 61, 63
1, 334206, Note_off_c, 0, 57, 58
1, 334207, Note_off_c, 0, 64, 57
1, 334252, Note_on_c, 0, 78, 66
1, 334280, Note_off_c, 0, 76, 39
1, 334323, Note_on_c, 0, 61, 63
1, 334335, Note_on_c, 0, 64, 46
1, 334335, Note_on_c, 0, 80, 67
1, 334338, Note_on_c, 0, 57, 40
1, 334349, Note_off_c, 0, 61, 69
1, 334358, Note_off_c, 0, 78, 56
1, 334360, Note_off_c, 0, 64, 57
1, 334366, Note_off_c, 0, 57, 56
1, 334404, Note_on_c, 0, 81, 67
1, 334471, Note_off_c, 0, 80, 59
1, 334472, Note_off_c, 0, 81, 62
1, 334493, Note_on_c, 0, 78, 68
1, 334500, Note_on_c, 0, 69, 70
1, 334502, Note_on_c, 0, 45, 62
1, 334523, Note_off_c, 0, 69, 70
1, 334526, Note_off_c, 0, 45, 63
1, 334696, Note_on_c, 0, 69, 71
1, 334699, Note_on_c, 0, 57, 55
1, 334699, Note_on_c, 0, 66, 61
1, 334701, Note_on_c, 0, 62, 57
1, 334725, Note_off_c, 0, 57, 60
1, 334726, Note_off_c, 0, 66, 63
1, 334731, Note_off_c, 0, 62, 67
1, 334824, Note_off_c, 0, 78, 60
1, 334871, Note_on_c, 0, 66, 68
1, 334874, Note_on_c, 0, 57, 49
1, 334874, Control_c, 0, 64, 27
1, 334876, Note_on_c, 0, 62, 59
1, 334889, Control_c, 0, 64, 43
1, 334901, Note_off_c, 0, 66, 66
1, 334901, Note_off_c, 0, 57, 59
1, 334904, Note_off_c, 0, 62, 66
1, 334904, Control_c, 0, 64, 51
1, 334919, Control_c, 0, 64, 58
1, 334934, Control_c, 0, 64, 62
1, 334949, Control_c, 0, 64, 68
1, 334958, Note_off_c, 0, 69, 59
1, 334961, Note_on_c, 0, 71, 62
1, 334964, Control_c, 0, 64, 75
1, 334979, Control_c, 0, 64, 79
1, 334994, Control_c, 0, 64, 82
1, 335009, Control_c, 0, 64, 86
1, 335023, Control_c, 0, 64, 92
1, 335035, Note_on_c, 0, 66, 65
1, 335036, Note_on_c, 0, 57, 56
1, 335038, Control_c, 0, 64, 109
1, 335045, Note_on_c, 0, 62, 38
1, 335048, Note_on_c, 0, 73, 70
1, 335053, Control_c, 0, 64, 127
1, 335054, Note_off_c, 0, 66, 66
1, 335068, Note_off_c, 0, 57, 62
1, 335071, Note_off_c, 0, 62, 57
1, 335086, Note_off_c, 0, 71, 61
1, 335110, Note_on_c, 0, 74, 76
1, 335115, Note_off_c, 0, 73, 64
1, 335129, Note_off_c, 0, 74, 74
1, 335142, Control_c, 0, 64, 87
1, 335156, Control_c, 0, 64, 58
1, 335179, Control_c, 0, 64, 0
1, 335196, Note_on_c, 0, 45, 78
1, 335205, Note_on_c, 0, 83, 85
1, 335206, Note_on_c, 0, 74, 81
1, 335218, Note_off_c, 0, 45, 67
1, 335223, Note_off_c, 0, 83, 74
1, 335295, Note_off_c, 0, 74, 0
1, 335295, Note_on_c, 0, 74, 16
1, 335393, Note_on_c, 0, 62, 68
1, 335396, Note_on_c, 0, 83, 87
1, 335397, Note_on_c, 0, 64, 68
1, 335402, Note_on_c, 0, 59, 54
1, 335410, Note_on_c, 0, 57, 45
1, 335419, Note_off_c, 0, 62, 67
1, 335423, Note_off_c, 0, 64, 65
1, 335424, Note_off_c, 0, 59, 62
1, 335437, Note_off_c, 0, 57, 53
1, 335548, Control_c, 0, 64, 22
1, 335561, Note_on_c, 0, 64, 74
1, 335562, Note_on_c, 0, 57, 52
1, 335563, Note_on_c, 0, 62, 65
1, 335563, Control_c, 0, 64, 43
1, 335564, Note_on_c, 0, 59, 56
1, 335566, Note_off_c, 0, 74, 52
1, 335578, Control_c, 0, 64, 51
1, 335586, Note_off_c, 0, 64, 68
1, 335590, Note_off_c, 0, 62, 66
1, 335593, Note_off_c, 0, 59, 64
1, 335593, Control_c, 0, 64, 55
1, 335596, Note_off_c, 0, 57, 61
1, 335608, Control_c, 0, 64, 58
1, 335608, Control_c, 0, 67, 118
1, 335623, Control_c, 0, 64, 64
1, 335623, Control_c, 0, 67, 98
1, 335638, Control_c, 0, 64, 71
1, 335638, Control_c, 0, 67, 78
1, 335653, Control_c, 0, 64, 80
1, 335653, Control_c, 0, 67, 55
1, 335653, Note_on_c, 0, 85, 70
1, 335667, Control_c, 0, 64, 85
1, 335667, Control_c, 0, 67, 38
1, 335682, Control_c, 0, 64, 86
1, 335682, Control_c, 0, 67, 26
1, 335691, Note_off_c, 0, 83, 61
1, 335697, Control_c, 0, 64, 87
1, 335697, Control_c, 0, 67, 19
1, 335712, Control_c, 0, 64, 89
1, 335712, Control_c, 0, 67, 15
1, 335718, Note_on_c, 0, 86, 76
1, 335725, Note_off_c, 0, 85, 64
1, 335727, Control_c, 0, 64, 92
1, 335727, Control_c, 0, 67, 13
1, 335730, Note_on_c, 0, 62, 61
1, 335737, Note_on_c, 0, 64, 52
1, 335742, Control_c, 0, 64, 95
1, 335742, Control_c, 0, 67, 10
1, 335751, Note_on_c, 0, 57, 47
1, 335754, Note_off_c, 0, 62, 62
1, 335757, Control_c, 0, 64, 99
1, 335757, Control_c, 0, 67, 0
1, 335760, Note_off_c, 0, 64, 60
1, 335772, Control_c, 0, 64, 127
1, 335774, Note_off_c, 0, 57, 62
1, 335806, Note_on_c, 0, 88, 84
1, 335835, Note_off_c, 0, 86, 63
1, 335845, Note_off_c, 0, 88, 67
1, 335876, Control_c, 0, 64, 82
1, 335891, Control_c, 0, 64, 59
1, 335892, Note_on_c, 0, 45, 65
1, 335901, Note_on_c, 0, 88, 68
1, 335905, Note_on_c, 0, 76, 83
1, 335905, Control_c, 0, 64, 25
1, 335926, Note_off_c, 0, 76, 73
1, 335927, Control_c, 0, 64, 0
1, 335928, Note_off_c, 0, 88, 62
1, 335937, Note_off_c, 0, 45, 0
1, 335937, Note_on_c, 0, 45, 38
1, 335972, Note_off_c, 0, 45, 65
1, 336004, Note_on_c, 0, 47, 50
1, 336057, Note_off_c, 0, 47, 63
1, 336062, Note_on_c, 0, 49, 71
1, 336091, Note_on_c, 0, 69, 71
1, 336112, Note_on_c, 0, 77, 36
1, 336112, Note_on_c, 0, 76, 61
1, 336141, Note_off_c, 0, 77, 49
1, 336146, Note_off_c, 0, 49, 65
1, 336147, Note_off_c, 0, 76, 59
1, 336154, Note_on_c, 0, 50, 64
1, 336221, Note_on_c, 0, 49, 79
1, 336222, Note_off_c, 0, 50, 65
1, 336223, Control_c, 0, 64, 34
1, 336238, Control_c, 0, 64, 48
1, 336253, Control_c, 0, 64, 60
1, 336264, Note_on_c, 0, 76, 28
1, 336268, Control_c, 0, 64, 66
1, 336272, Note_off_c, 0, 69, 59
1, 336283, Control_c, 0, 64, 72
1, 336297, Control_c, 0, 64, 73
1, 336301, Note_off_c, 0, 76, 54
1, 336311, Note_on_c, 0, 50, 78
1, 336314, Note_off_c, 0, 49, 65
1, 336327, Control_c, 0, 64, 70
1, 336342, Control_c, 0, 64, 65
1, 336357, Control_c, 0, 64, 60
1, 336371, Control_c, 0, 64, 50
1, 336381, Note_off_c, 0, 50, 64
1, 336386, Control_c, 0, 64, 31
1, 336387, Note_on_c, 0, 76, 73
1, 336390, Note_on_c, 0, 52, 80
1, 336390, Note_on_c, 0, 69, 65
1, 336394, Note_on_c, 0, 73, 64
1, 336401, Control_c, 0, 64, 0
1, 336468, Note_on_c, 0, 54, 90
1, 336476, Note_off_c, 0, 52, 65
1, 336550, Control_c, 0, 64, 11
1, 336553, Note_off_c, 0, 54, 64
1, 336553, Note_on_c, 0, 52, 82
1, 336565, Control_c, 0, 64, 37
1, 336580, Control_c, 0, 64, 40
1, 336595, Control_c, 0, 64, 33
1, 336609, Control_c, 0, 64, 0
1, 336630, Note_on_c, 0, 54, 88
1, 336641, Note_off_c, 0, 52, 67
1, 336685, Note_off_c, 0, 76, 63
1, 336686, Note_off_c, 0, 69, 63
1, 336699, Note_off_c, 0, 73, 63
1, 336706, Note_on_c, 0, 56, 84
1, 336733, Note_off_c, 0, 54, 61
1, 336786, Note_on_c, 0, 57, 82
1, 336788, Note_on_c, 0, 69, 80
1, 336795, Note_off_c, 0, 56, 65
1, 336796, Note_on_c, 0, 73, 67
1, 336796, Note_on_c, 0, 76, 71
1, 336807, Note_off_c, 0, 69, 71
1, 336815, Note_off_c, 0, 73, 69
1, 336818, Note_off_c, 0, 76, 71
1, 336857, Note_on_c, 0, 56, 84
1, 336861, Note_off_c, 0, 57, 59
1, 336863, Note_on_c, 0, 69, 90
1, 336866, Note_on_c, 0, 76, 84
1, 336868, Note_on_c, 0, 73, 80
1, 336929, Note_off_c, 0, 56, 66
1, 336942, Note_on_c, 0, 57, 79
1, 337002, Control_c, 0, 64, 18
1, 337013, Note_on_c, 0, 59, 86
1, 337017, Control_c, 0, 64, 33
1, 337024, Note_off_c, 0, 76, 63
1, 337025, Note_off_c, 0, 57, 54
1, 337032, Control_c, 0, 64, 40
1, 337036, Note_off_c, 0, 69, 61
1, 337045, Note_off_c, 0, 73, 61
1, 337046, Control_c, 0, 64, 50
1, 337061, Control_c, 0, 64, 63
1, 337076, Control_c, 0, 64, 96
1, 337081, Note_on_c, 0, 61, 83
1, 337091, Control_c, 0, 64, 127
1, 337092, Note_off_c, 0, 59, 61
1, 337114, Note_on_c, 0, 69, 64
1, 337119, Note_on_c, 0, 76, 65
1, 337127, Note_off_c, 0, 61, 67
1, 337137, Note_off_c, 0, 69, 70
1, 337142, Note_off_c, 0, 76, 67
1, 337149, Note_on_c, 0, 73, 27
1, 337150, Control_c, 0, 64, 69
1, 337165, Control_c, 0, 64, 44
1, 337173, Note_on_c, 0, 62, 82
1, 337180, Control_c, 0, 64, 0
1, 337184, Note_on_c, 0, 64, 77
1, 337187, Note_off_c, 0, 73, 47
1, 337188, Note_on_c, 0, 52, 67
1, 337190, Note_off_c, 0, 62, 71
1, 337197, Note_on_c, 0, 59, 34
1, 337198, Note_off_c, 0, 59, 127
1, 337209, Note_off_c, 0, 52, 64
1, 337292, Note_on_c, 0, 66, 61
1, 337292, Note_off_c, 0, 64, 57
1, 337364, Note_on_c, 0, 52, 81
1, 337371, Note_on_c, 0, 40, 80
1, 337374, Note_off_c, 0, 66, 57
1, 337390, Note_on_c, 0, 68, 63
1, 337440, Control_c, 0, 64, 34
1, 337455, Control_c, 0, 64, 46
1, 337465, Note_on_c, 0, 69, 73
1, 337470, Control_c, 0, 64, 52
1, 337474, Note_off_c, 0, 68, 59
1, 337484, Control_c, 0, 64, 56
1, 337499, Control_c, 0, 64, 61
1, 337514, Control_c, 0, 64, 67
1, 337529, Control_c, 0, 64, 74
1, 337534, Note_off_c, 0, 40, 61
1, 337544, Control_c, 0, 64, 79
1, 337550, Note_on_c, 0, 68, 90
1, 337554, Note_off_c, 0, 69, 62
1, 337556, Note_off_c, 0, 52, 62
1, 337558, Control_c, 0, 64, 83
1, 337573, Control_c, 0, 64, 86
1, 337588, Control_c, 0, 64, 91
1, 337603, Control_c, 0, 64, 96
1, 337616, Note_off_c, 0, 68, 60
1, 337618, Control_c, 0, 64, 99
1, 337632, Control_c, 0, 64, 100
1, 337635, Note_on_c, 0, 69, 87
1, 337647, Control_c, 0, 64, 98
1, 337662, Control_c, 0, 64, 89
1, 337677, Control_c, 0, 64, 77
1, 337692, Control_c, 0, 64, 64
1, 337700, Note_on_c, 0, 52, 89
1, 337701, Note_on_c, 0, 40, 79
1, 337706, Control_c, 0, 64, 51
1, 337718, Note_on_c, 0, 71, 93
1, 337721, Control_c, 0, 64, 16
1, 337726, Note_off_c, 0, 69, 63
1, 337736, Control_c, 0, 64, 0
1, 337798, Note_on_c, 0, 73, 91
1, 337802, Note_off_c, 0, 71, 68
1, 337840, Control_c, 0, 64, 26
1, 337855, Control_c, 0, 64, 39
1, 337868, Note_off_c, 0, 73, 63
1, 337869, Control_c, 0, 64, 48
1, 337884, Note_on_c, 0, 71, 93
1, 337884, Control_c, 0, 64, 56
1, 337899, Control_c, 0, 64, 63
1, 337914, Control_c, 0, 64, 72
1, 337929, Control_c, 0, 64, 84
1, 337944, Control_c, 0, 64, 90
1, 337958, Control_c, 0, 64, 96
1, 337959, Note_on_c, 0, 73, 90
1, 337963, Note_off_c, 0, 52, 66
1, 337973, Control_c, 0, 64, 104
1, 337975, Note_off_c, 0, 40, 54
1, 337984, Note_off_c, 0, 71, 64
1, 337988, Control_c, 0, 64, 115
1, 338002, Control_c, 0, 64, 127
1, 338037, Note_on_c, 0, 74, 84
1, 338037, Note_off_c, 0, 73, 62
1, 338076, Control_c, 0, 64, 96
1, 338092, Control_c, 0, 64, 73
1, 338107, Control_c, 0, 64, 59
1, 338121, Note_on_c, 0, 76, 96
1, 338122, Control_c, 0, 64, 31
1, 338124, Note_off_c, 0, 74, 67
1, 338124, Note_on_c, 0, 50, 85
1, 338127, Note_on_c, 0, 47, 84
1, 338130, Note_on_c, 0, 40, 81
1, 338137, Control_c, 0, 64, 0
1, 338147, Note_off_c, 0, 50, 72
1, 338149, Note_off_c, 0, 47, 69
1, 338152, Note_off_c, 0, 40, 69
1, 338186, Note_off_c, 0, 76, 65
1, 338208, Note_on_c, 0, 50, 91
1, 338209, Note_on_c, 0, 40, 89
1, 338209, Note_on_c, 0, 74, 98
1, 338211, Note_on_c, 0, 47, 85
1, 338230, Note_off_c, 0, 50, 71
1, 338233, Note_off_c, 0, 47, 68
1, 338235, Note_off_c, 0, 40, 65
1, 338248, Control_c, 0, 64, 41
1, 338263, Control_c, 0, 64, 54
1, 338278, Control_c, 0, 64, 59
1, 338282, Note_on_c, 0, 76, 92
1, 338293, Control_c, 0, 64, 60
1, 338307, Control_c, 0, 64, 62
1, 338322, Control_c, 0, 64, 64
1, 338337, Control_c, 0, 64, 67
1, 338352, Control_c, 0, 64, 71
1, 338365, Note_off_c, 0, 74, 64
1, 338367, Control_c, 0, 64, 74
1, 338374, Note_on_c, 0, 78, 89
1, 338379, Poly_aftertouch_c, 0, 47, 127
1, 338381, Control_c, 0, 64, 77
1, 338396, Control_c, 0, 64, 82
1, 338406, Note_off_c, 0, 76, 64
1, 338408, Poly_aftertouch_c, 0, 47, 0
1, 338411, Control_c, 0, 64, 89
1, 338425, Control_c, 0, 64, 108
1, 338431, Note_on_c, 0, 47, 51
1, 338435, Note_on_c, 0, 40, 66
1, 338440, Control_c, 0, 64, 127
1, 338443, Note_on_c, 0, 50, 67
1, 338452, Note_on_c, 0, 80, 87
1, 338459, Note_off_c, 0, 47, 68
1, 338467, Note_off_c, 0, 40, 67
1, 338488, Note_off_c, 0, 78, 66
1, 338492, Note_off_c, 0, 50, 62
1, 338504, Note_off_c, 0, 80, 64
1, 338514, Control_c, 0, 64, 115
1, 338529, Control_c, 0, 64, 64
1, 338535, Note_on_c, 0, 81, 90
1, 338537, Note_on_c, 0, 69, 84
1, 338539, Note_on_c, 0, 45, 81
1, 338544, Control_c, 0, 64, 16
1, 338548, Note_on_c, 0, 73, 61
1, 338551, Note_off_c, 0, 69, 71
1, 338553, Note_off_c, 0, 81, 72
1, 338559, Control_c, 0, 64, 0
1, 338566, Note_on_c, 0, 76, 24
1, 338567, Note_off_c, 0, 76, 127
1, 338569, Note_off_c, 0, 73, 64
1, 338609, Note_off_c, 0, 45, 63
1, 338614, Note_on_c, 0, 47, 69
1, 338695, Note_off_c, 0, 47, 63
1, 338702, Note_on_c, 0, 49, 65
1, 338729, Note_on_c, 0, 76, 64
1, 338750, Note_on_c, 0, 69, 51
1, 338757, Note_on_c, 0, 73, 53
1, 338786, Note_off_c, 0, 49, 65
1, 338799, Note_on_c, 0, 50, 67
1, 338855, Control_c, 0, 64, 15
1, 338869, Note_off_c, 0, 50, 64
1, 338870, Control_c, 0, 64, 35
1, 338882, Note_on_c, 0, 49, 81
1, 338885, Control_c, 0, 64, 41
1, 338900, Note_off_c, 0, 69, 63
1, 338901, Control_c, 0, 64, 49
1, 338904, Note_off_c, 0, 76, 65
1, 338908, Note_off_c, 0, 73, 64
1, 338923, Control_c, 0, 64, 55
1, 338938, Control_c, 0, 64, 63
1, 338952, Control_c, 0, 64, 71
1, 338967, Control_c, 0, 64, 76
1, 338970, Note_on_c, 0, 50, 80
1, 338982, Control_c, 0, 64, 77
1, 338988, Note_off_c, 0, 49, 64
1, 339012, Control_c, 0, 64, 76
1, 339027, Control_c, 0, 64, 73
1, 339042, Control_c, 0, 64, 67
1, 339045, Note_off_c, 0, 50, 64
1, 339048, Note_on_c, 0, 52, 85
1, 339054, Note_on_c, 0, 76, 73
1, 339056, Control_c, 0, 64, 59
1, 339057, Note_on_c, 0, 69, 74
1, 339066, Note_on_c, 0, 73, 65
1, 339071, Control_c, 0, 64, 42
1, 339086, Control_c, 0, 64, 0
1, 339132, Note_on_c, 0, 54, 91
1, 339140, Note_off_c, 0, 52, 65
1, 339218, Note_on_c, 0, 52, 90
1, 339218, Note_off_c, 0, 54, 63
1, 339297, Note_on_c, 0, 54, 94
1, 339313, Note_off_c, 0, 52, 65
1, 339340, Note_off_c, 0, 69, 64
1, 339341, Note_off_c, 0, 73, 65
1, 339346, Note_off_c, 0, 76, 65
1, 339373, Note_on_c, 0, 56, 87
1, 339382, Control_c, 0, 64, 12
1, 339397, Control_c, 0, 64, 21
1, 339404, Note_off_c, 0, 54, 63
1, 339411, Control_c, 0, 64, 0
1, 339450, Note_on_c, 0, 76, 89
1, 339451, Note_on_c, 0, 57, 85
1, 339452, Note_on_c, 0, 69, 77
1, 339453, Note_on_c, 0, 73, 71
1, 339458, Note_off_c, 0, 56, 66
1, 339472, Note_off_c, 0, 76, 68
1, 339473, Note_off_c, 0, 69, 72
1, 339474, Note_off_c, 0, 73, 70
1, 339521, Note_on_c, 0, 56, 86
1, 339526, Note_on_c, 0, 73, 84
1, 339528, Note_on_c, 0, 76, 90
1, 339528, Note_off_c, 0, 57, 60
1, 339528, Note_on_c, 0, 69, 92
1, 339602, Note_off_c, 0, 56, 65
1, 339604, Control_c, 0, 64, 22
1, 339608, Note_on_c, 0, 57, 85
1, 339619, Control_c, 0, 64, 37
1, 339634, Control_c, 0, 64, 43
1, 339648, Control_c, 0, 64, 49
1, 339659, Note_off_c, 0, 69, 57
1, 339671, Control_c, 0, 64, 55
1, 339684, Note_off_c, 0, 73, 62
1, 339686, Control_c, 0, 64, 65
1, 339687, Note_on_c, 0, 59, 92
1, 339701, Control_c, 0, 64, 82
1, 339716, Control_c, 0, 64, 127
1, 339722, Note_off_c, 0, 57, 29
1, 339754, Note_on_c, 0, 61, 83
1, 339766, Note_off_c, 0, 59, 62
1, 339781, Note_on_c, 0, 73, 71
1, 339788, Note_off_c, 0, 76, 62
1, 339800, Note_off_c, 0, 61, 67
1, 339800, Note_off_c, 0, 73, 70
1, 339805, Control_c, 0, 64, 119
1, 339820, Control_c, 0, 64, 63
1, 339835, Control_c, 0, 64, 29
1, 339841, Note_on_c, 0, 59, 74
1, 339843, Note_on_c, 0, 62, 78
1, 339850, Control_c, 0, 64, 0
1, 339859, Note_off_c, 0, 59, 69
1, 339861, Note_off_c, 0, 62, 70
1, 339862, Note_on_c, 0, 76, 83
1, 339869, Note_on_c, 0, 52, 43
1, 339870, Note_off_c, 0, 52, 127
1, 339924, Note_off_c, 0, 76, 57
1, 339953, Note_on_c, 0, 78, 72
1, 340029, Note_on_c, 0, 52, 74
1, 340034, Note_on_c, 0, 64, 79
1, 340036, Note_on_c, 0, 80, 72
1, 340040, Note_off_c, 0, 78, 61
1, 340108, Note_on_c, 0, 81, 83
1, 340116, Control_c, 0, 64, 27
1, 340118, Note_off_c, 0, 80, 62
1, 340131, Control_c, 0, 64, 42
1, 340145, Control_c, 0, 64, 46
1, 340160, Control_c, 0, 64, 49
1, 340175, Control_c, 0, 64, 52
1, 340190, Control_c, 0, 64, 57
1, 340192, Note_on_c, 0, 80, 92
1, 340204, Control_c, 0, 64, 63
1, 340208, Note_off_c, 0, 81, 60
1, 340219, Control_c, 0, 64, 68
1, 340233, Note_off_c, 0, 64, 61
1, 340234, Control_c, 0, 64, 74
1, 340249, Control_c, 0, 64, 80
1, 340257, Note_off_c, 0, 52, 62
1, 340262, Note_off_c, 0, 80, 62
1, 340264, Control_c, 0, 64, 87
1, 340270, Note_on_c, 0, 81, 96
1, 340279, Control_c, 0, 64, 92
1, 340294, Control_c, 0, 64, 95
1, 340309, Control_c, 0, 64, 96
1, 340324, Control_c, 0, 64, 95
1, 340339, Control_c, 0, 64, 85
1, 340353, Control_c, 0, 64, 67
1, 340354, Note_on_c, 0, 83, 98
1, 340361, Note_off_c, 0, 81, 64
1, 340368, Control_c, 0, 64, 55
1, 340370, Note_on_c, 0, 52, 84
1, 340370, Note_on_c, 0, 64, 85
1, 340383, Control_c, 0, 64, 29
1, 340397, Control_c, 0, 64, 0
1, 340442, Note_on_c, 0, 85, 97
1, 340451, Note_off_c, 0, 83, 67
1, 340457, Note_off_c, 0, 52, 67
1, 340464, Control_c, 0, 64, 29
1, 340479, Control_c, 0, 64, 38
1, 340480, Note_off_c, 0, 64, 65
1, 340494, Control_c, 0, 64, 47
1, 340509, Control_c, 0, 64, 56
1, 340518, Note_off_c, 0, 85, 62
1, 340524, Control_c, 0, 64, 64
1, 340529, Note_on_c, 0, 83, 98
1, 340539, Control_c, 0, 64, 72
1, 340554, Control_c, 0, 64, 80
1, 340568, Control_c, 0, 64, 83
1, 340583, Control_c, 0, 64, 87
1, 340598, Control_c, 0, 64, 95
1, 340610, Note_on_c, 0, 85, 95
1, 340613, Control_c, 0, 64, 119
1, 340628, Control_c, 0, 64, 127
1, 340634, Note_off_c, 0, 83, 63
1, 340690, Note_on_c, 0, 86, 89
1, 340693, Note_off_c, 0, 85, 63
1, 340732, Control_c, 0, 64, 117
1, 340747, Control_c, 0, 64, 71
1, 340762, Control_c, 0, 64, 57
1, 340775, Note_on_c, 0, 88, 92
1, 340776, Control_c, 0, 64, 26
1, 340777, Note_on_c, 0, 71, 78
1, 340778, Note_on_c, 0, 74, 72
1, 340782, Note_on_c, 0, 64, 74
1, 340786, Note_off_c, 0, 86, 62
1, 340791, Control_c, 0, 64, 0
1, 340798, Note_off_c, 0, 74, 74
1, 340798, Note_off_c, 0, 71, 74
1, 340806, Note_off_c, 0, 64, 68
1, 340828, Note_off_c, 0, 88, 67
1, 340857, Note_on_c, 0, 86, 101
1, 340864, Note_on_c, 0, 74, 89
1, 340866, Note_on_c, 0, 64, 78
1, 340874, Note_on_c, 0, 71, 72
1, 340889, Note_off_c, 0, 64, 69
1, 340895, Note_off_c, 0, 74, 66
1, 340896, Note_off_c, 0, 71, 71
1, 340909, Control_c, 0, 64, 37
1, 340924, Control_c, 0, 64, 47
1, 340931, Note_on_c, 0, 88, 98
1, 340939, Control_c, 0, 64, 53
1, 340941, Note_off_c, 0, 86, 60
1, 340954, Control_c, 0, 64, 56
1, 340968, Control_c, 0, 64, 61
1, 340983, Control_c, 0, 64, 66
1, 340984, Note_on_c, 0, 71, 17
1, 340998, Control_c, 0, 64, 71
1, 341012, Control_c, 0, 64, 75
1, 341018, Note_on_c, 0, 90, 98
1, 341022, Note_off_c, 0, 71, 55
1, 341027, Control_c, 0, 64, 78
1, 341042, Control_c, 0, 64, 81
1, 341044, Note_off_c, 0, 88, 67
1, 341057, Control_c, 0, 64, 87
1, 341063, Note_on_c, 0, 64, 64
1, 341072, Control_c, 0, 64, 97
1, 341078, Note_on_c, 0, 74, 68
1, 341087, Note_on_c, 0, 92, 95
1, 341087, Control_c, 0, 64, 127
1, 341092, Note_off_c, 0, 64, 64
1, 341101, Note_off_c, 0, 74, 72
1, 341109, Note_off_c, 0, 90, 65
1, 341151, Note_off_c, 0, 92, 65
1, 341184, Control_c, 0, 64, 100
1, 341199, Control_c, 0, 64, 73
1, 341214, Control_c, 0, 64, 58
1, 341228, Control_c, 0, 64, 17
1, 341233, Note_on_c, 0, 93, 97
1, 341236, Note_on_c, 0, 69, 54
1, 341243, Control_c, 0, 64, 0
1, 341244, Note_on_c, 0, 85, 72
1, 341245, Note_on_c, 0, 81, 68
1, 341248, Note_on_c, 0, 66, 62
1, 341248, Note_on_c, 0, 73, 71
1, 341258, Note_on_c, 0, 79, 59
1, 341301, Note_off_c, 0, 79, 45
1, 341319, Control_c, 0, 64, 32
1, 341331, Note_off_c, 0, 93, 65
1, 341333, Control_c, 0, 64, 50
1, 341334, Note_off_c, 0, 81, 65
1, 341342, Note_off_c, 0, 73, 66
1, 341348, Control_c, 0, 64, 62
1, 341354, Note_off_c, 0, 85, 65
1, 341360, Note_off_c, 0, 66, 64
1, 341363, Control_c, 0, 64, 77
1, 341365, Note_off_c, 0, 69, 64
1, 341378, Control_c, 0, 64, 127
1, 341614, Control_c, 0, 64, 80
1, 341629, Control_c, 0, 64, 53
1, 341644, Control_c, 0, 64, 0
1, 341659, Control_c, 0, 67, 15
1, 341674, Control_c, 0, 67, 20
1, 341689, Control_c, 0, 67, 22
1, 341704, Control_c, 0, 67, 35
1, 341718, Control_c, 0, 67, 60
1, 341733, Control_c, 0, 67, 88
1, 341748, Control_c, 0, 67, 110
1, 341763, Control_c, 0, 67, 125
1, 341778, Control_c, 0, 67, 127
1, 341835, Note_on_c, 0, 83, 65
1, 341838, Note_on_c, 0, 62, 49
1, 341840, Note_on_c, 0, 78, 61
1, 341842, Note_on_c, 0, 71, 49
1, 341843, Note_on_c, 0, 50, 40
1, 341853, Note_off_c, 0, 83, 70
1, 341859, Note_off_c, 0, 78, 65
1, 341865, Note_off_c, 0, 62, 58
1, 341866, Note_off_c, 0, 71, 63
1, 341874, Note_off_c, 0, 50, 51
1, 342041, Note_on_c, 0, 83, 75
1, 342047, Note_on_c, 0, 50, 55
1, 342051, Control_c, 0, 64, 30
1, 342053, Note_on_c, 0, 78, 57
1, 342059, Note_on_c, 0, 62, 46
1, 342059, Note_on_c, 0, 71, 45
1, 342062, Note_off_c, 0, 83, 72
1, 342066, Control_c, 0, 64, 41
1, 342070, Note_off_c, 0, 50, 61
1, 342074, Note_off_c, 0, 78, 62
1, 342081, Control_c, 0, 64, 51
1, 342084, Note_off_c, 0, 71, 62
1, 342087, Note_off_c, 0, 62, 56
1, 342097, Control_c, 0, 64, 58
1, 342112, Control_c, 0, 64, 64
1, 342127, Control_c, 0, 64, 70
1, 342141, Control_c, 0, 64, 75
1, 342156, Control_c, 0, 64, 76
1, 342201, Control_c, 0, 64, 76
1, 342216, Control_c, 0, 64, 77
1, 342230, Control_c, 0, 64, 78
1, 342245, Control_c, 0, 64, 80
1, 342260, Control_c, 0, 64, 84
1, 342274, Control_c, 0, 64, 93
1, 342289, Control_c, 0, 64, 101
1, 342304, Control_c, 0, 64, 105
1, 342334, Control_c, 0, 64, 100
1, 342348, Control_c, 0, 64, 84
1, 342363, Control_c, 0, 64, 65
1, 342378, Control_c, 0, 64, 46
1, 342392, Control_c, 0, 64, 0
1, 342599, Note_on_c, 0, 86, 69
1, 342603, Note_on_c, 0, 74, 56
1, 342607, Note_on_c, 0, 47, 53
1, 342611, Note_on_c, 0, 59, 42
1, 342622, Note_off_c, 0, 74, 65
1, 342623, Note_off_c, 0, 86, 67
1, 342636, Note_off_c, 0, 47, 55
1, 342641, Note_off_c, 0, 59, 53
1, 342780, Note_on_c, 0, 86, 77
1, 342784, Note_on_c, 0, 59, 57
1, 342785, Note_on_c, 0, 47, 55
1, 342786, Note_on_c, 0, 74, 63
1, 342800, Note_off_c, 0, 86, 69
1, 342805, Note_off_c, 0, 74, 69
1, 342806, Note_off_c, 0, 59, 61
1, 342811, Note_off_c, 0, 47, 57
1, 342959, Note_on_c, 0, 80, 67
1, 342965, Note_on_c, 0, 74, 51
1, 342965, Note_on_c, 0, 68, 59
1, 342969, Note_on_c, 0, 64, 54
1, 342971, Note_on_c, 0, 52, 58
1, 342984, Note_off_c, 0, 74, 65
1, 342985, Note_off_c, 0, 80, 62
1, 342987, Note_off_c, 0, 68, 59
1, 342992, Note_off_c, 0, 64, 60
1, 342997, Note_off_c, 0, 52, 59
1, 343144, Note_on_c, 0, 80, 71
1, 343147, Note_on_c, 0, 68, 58
1, 343150, Note_on_c, 0, 52, 56
1, 343151, Note_on_c, 0, 74, 50
1, 343158, Note_on_c, 0, 64, 27
1, 343169, Note_off_c, 0, 68, 61
1, 343170, Note_off_c, 0, 80, 64
1, 343172, Note_off_c, 0, 74, 63
1, 343173, Note_off_c, 0, 52, 61
1, 343196, Note_off_c, 0, 64, 30
1, 343306, Note_on_c, 0, 81, 74
1, 343318, Note_on_c, 0, 69, 51
1, 343326, Note_on_c, 0, 73, 38
1, 343331, Note_off_c, 0, 81, 65
1, 343337, Note_on_c, 0, 57, 22
1, 343338, Note_off_c, 0, 57, 127
1, 343343, Note_off_c, 0, 69, 60
1, 343358, Note_off_c, 0, 73, 33
1, 343522, Note_on_c, 0, 83, 70
1, 343527, Note_on_c, 0, 80, 58
1, 343535, Note_on_c, 0, 40, 44
1, 343540, Note_on_c, 0, 71, 46
1, 343548, Note_on_c, 0, 52, 38
1, 343549, Control_c, 0, 64, 25
1, 343557, Note_off_c, 0, 83, 64
1, 343558, Note_off_c, 0, 80, 65
1, 343563, Control_c, 0, 64, 34
1, 343564, Note_off_c, 0, 71, 61
1, 343566, Note_off_c, 0, 40, 56
1, 343573, Note_off_c, 0, 52, 54
1, 343578, Control_c, 0, 64, 41
1, 343593, Control_c, 0, 64, 50
1, 343608, Control_c, 0, 64, 61
1, 343622, Control_c, 0, 64, 68
1, 343637, Control_c, 0, 64, 75
1, 343652, Control_c, 0, 64, 76
1, 343698, Control_c, 0, 64, 77
1, 343712, Control_c, 0, 64, 79
1, 343727, Control_c, 0, 64, 81
1, 343742, Control_c, 0, 64, 85
1, 343757, Control_c, 0, 64, 90
1, 343772, Control_c, 0, 64, 98
1, 343786, Control_c, 0, 64, 117
1, 343801, Control_c, 0, 64, 127
1, 343845, Control_c, 0, 64, 106
1, 343860, Control_c, 0, 64, 74
1, 343875, Control_c, 0, 64, 59
1, 343890, Control_c, 0, 64, 27
1, 343905, Control_c, 0, 64, 0
1, 344321, Note_on_c, 0, 56, 34
1, 344324, Note_on_c, 0, 74, 39
1, 344336, Note_on_c, 0, 64, 31
1, 344336, Note_on_c, 0, 71, 27
1, 344341, Control_c, 0, 64, 11
1, 344356, Control_c, 0, 64, 22
1, 344370, Control_c, 0, 64, 29
1, 344375, Note_off_c, 0, 64, 53
1, 344378, Note_off_c, 0, 74, 60
1, 344385, Control_c, 0, 64, 36
1, 344388, Note_off_c, 0, 71, 48
1, 344392, Note_off_c, 0, 56, 57
1, 344400, Control_c, 0, 64, 45
1, 344415, Control_c, 0, 64, 53
1, 344430, Control_c, 0, 64, 59
1, 344444, Control_c, 0, 64, 62
1, 344459, Control_c, 0, 64, 63
1, 344490, Control_c, 0, 64, 63
1, 344505, Control_c, 0, 64, 64
1, 344520, Control_c, 0, 64, 65
1, 344534, Control_c, 0, 64, 68
1, 344549, Control_c, 0, 64, 71
1, 344564, Control_c, 0, 64, 74
1, 344579, Control_c, 0, 64, 74
1, 344608, Control_c, 0, 64, 73
1, 344623, Control_c, 0, 64, 68
1, 344638, Control_c, 0, 64, 60
1, 344653, Control_c, 0, 64, 43
1, 344667, Control_c, 0, 64, 0
1, 344874, Note_on_c, 0, 73, 50
1, 344876, Note_on_c, 0, 57, 50
1, 344877, Note_on_c, 0, 69, 44
1, 344894, Note_on_c, 0, 64, 10
1, 344899, Note_off_c, 0, 73, 60
1, 344902, Note_off_c, 0, 57, 57
1, 344902, Note_off_c, 0, 69, 58
1, 344946, Note_off_c, 0, 64, 28
1, 345078, Note_on_c, 0, 73, 54
1, 345082, Note_on_c, 0, 57, 45
1, 345084, Note_on_c, 0, 64, 39
1, 345087, Note_on_c, 0, 69, 32
1, 345090, Control_c, 0, 64, 20
1, 345105, Control_c, 0, 64, 36
1, 345115, Note_off_c, 0, 57, 63
1, 345117, Note_off_c, 0, 64, 55
1, 345119, Note_off_c, 0, 69, 58
1, 345120, Control_c, 0, 64, 44
1, 345120, Note_off_c, 0, 73, 60
1, 345135, Control_c, 0, 64, 52
1, 345149, Control_c, 0, 64, 57
1, 345164, Control_c, 0, 64, 62
1, 345179, Control_c, 0, 64, 65
1, 345193, Control_c, 0, 64, 67
1, 345208, Control_c, 0, 64, 68
1, 345283, Control_c, 0, 64, 69
1, 345298, Control_c, 0, 64, 70
1, 345313, Control_c, 0, 64, 71
1, 345328, Control_c, 0, 64, 72
1, 345343, Control_c, 0, 64, 73
1, 345357, Control_c, 0, 64, 73
1, 345387, Control_c, 0, 64, 71
1, 345402, Control_c, 0, 64, 64
1, 345416, Control_c, 0, 64, 51
1, 345431, Control_c, 0, 64, 19
1, 345446, Control_c, 0, 64, 0
1, 345618, Note_on_c, 0, 50, 46
1, 345618, Note_on_c, 0, 71, 59
1, 345621, Note_on_c, 0, 66, 52
1, 345629, Note_on_c, 0, 69, 42
1, 345643, Note_off_c, 0, 50, 59
1, 345645, Note_off_c, 0, 66, 60
1, 345650, Note_off_c, 0, 71, 67
1, 345664, Note_off_c, 0, 69, 53
1, 345795, Note_on_c, 0, 50, 39
1, 345800, Note_on_c, 0, 69, 40
1, 345803, Note_on_c, 0, 71, 63
1, 345806, Note_on_c, 0, 66, 50
1, 345825, Note_off_c, 0, 50, 57
1, 345826, Note_off_c, 0, 69, 55
1, 345829, Note_off_c, 0, 66, 62
1, 345830, Note_off_c, 0, 71, 69
1, 345967, Note_on_c, 0, 76, 68
1, 345978, Note_on_c, 0, 68, 53
1, 345984, Note_on_c, 0, 52, 52
1, 345996, Note_off_c, 0, 76, 64
1, 346004, Note_off_c, 0, 68, 57
1, 346011, Note_off_c, 0, 52, 61
1, 346149, Note_on_c, 0, 68, 55
1, 346154, Note_on_c, 0, 76, 60
1, 346159, Note_on_c, 0, 52, 38
1, 346172, Note_off_c, 0, 68, 59
1, 346175, Note_off_c, 0, 76, 60
1, 346185, Note_off_c, 0, 52, 56
1, 346332, Note_on_c, 0, 69, 56
1, 346336, Note_on_c, 0, 45, 38
1, 346353, Note_off_c, 0, 69, 62
1, 346368, Note_off_c, 0, 45, 49
1, 346534, Note_on_c, 0, 45, 39
1, 346542, Note_on_c, 0, 69, 57
1, 346567, Note_off_c, 0, 69, 65
1, 346569, Note_off_c, 0, 45, 63
1, 346572, Control_c, 0, 64, 36
1, 346587, Control_c, 0, 64, 44
1, 346602, Control_c, 0, 64, 51
1, 346617, Control_c, 0, 64, 56
1, 346631, Control_c, 0, 64, 60
1, 346646, Control_c, 0, 64, 64
1, 346661, Control_c, 0, 64, 66
1, 346676, Control_c, 0, 64, 69
1, 346691, Control_c, 0, 64, 70
1, 346706, Control_c, 0, 64, 71
1, 346721, Control_c, 0, 64, 72
1, 346750, Control_c, 0, 64, 72
1, 346765, Control_c, 0, 64, 74
1, 346780, Control_c, 0, 64, 75
1, 346795, Control_c, 0, 64, 77
1, 346810, Control_c, 0, 64, 79
1, 346825, Control_c, 0, 64, 81
1, 346839, Control_c, 0, 64, 82
1, 346869, Control_c, 0, 64, 79
1, 346885, Control_c, 0, 64, 69
1, 346900, Control_c, 0, 64, 58
1, 346914, Control_c, 0, 64, 34
1, 346929, Control_c, 0, 64, 0
1, 347273, Note_on_c, 0, 35, 49
1, 347305, Note_off_c, 0, 35, 51
1, 347463, Note_on_c, 0, 40, 38
1, 347500, Note_off_c, 0, 40, 46
1, 347638, Note_on_c, 0, 40, 46
1, 347668, Note_off_c, 0, 40, 57
1, 347809, Note_on_c, 0, 33, 48
1, 347840, Note_off_c, 0, 33, 52
1, 348020, Note_on_c, 0, 33, 43
1, 348086, Control_c, 0, 64, 18
1, 348089, Note_off_c, 0, 33, 63
1, 348101, Control_c, 0, 64, 32
1, 348116, Control_c, 0, 64, 38
1, 348131, Control_c, 0, 64, 45
1, 348146, Control_c, 0, 64, 52
1, 348160, Control_c, 0, 64, 59
1, 348175, Control_c, 0, 64, 64
1, 348190, Control_c, 0, 64, 67
1, 348204, Control_c, 0, 64, 69
1, 348219, Control_c, 0, 64, 69
1, 348234, Control_c, 0, 64, 70
1, 348249, Control_c, 0, 64, 71
1, 348264, Control_c, 0, 64, 73
1, 348278, Control_c, 0, 64, 74
1, 348293, Control_c, 0, 64, 77
1, 348308, Control_c, 0, 64, 81
1, 348323, Control_c, 0, 64, 84
1, 348337, Control_c, 0, 64, 86
1, 348367, Control_c, 0, 64, 79
1, 348382, Control_c, 0, 64, 65
1, 348397, Control_c, 0, 64, 53
1, 348411, Control_c, 0, 64, 27
1, 348426, Control_c, 0, 64, 0
1, 348799, Note_on_c, 0, 64, 47
1, 348800, Note_on_c, 0, 35, 41
1, 348819, Note_on_c, 0, 62, 33
1, 348840, Note_off_c, 0, 35, 52
1, 348878, Note_off_c, 0, 62, 0
1, 348878, Note_on_c, 0, 62, 3
1, 348987, Note_on_c, 0, 40, 50
1, 349018, Note_off_c, 0, 40, 57
1, 349171, Note_on_c, 0, 40, 43
1, 349201, Note_off_c, 0, 40, 57
1, 349336, Note_on_c, 0, 33, 51
1, 349367, Note_off_c, 0, 33, 60
1, 349455, Note_off_c, 0, 64, 35
1, 349561, Note_on_c, 0, 64, 42
1, 349566, Note_on_c, 0, 33, 27
1, 349573, Note_on_c, 0, 61, 43
1, 349610, Note_off_c, 0, 62, 54
1, 349746, Control_c, 0, 64, 15
1, 349761, Control_c, 0, 64, 25
1, 349776, Control_c, 0, 64, 32
1, 349790, Control_c, 0, 64, 40
1, 349805, Control_c, 0, 64, 49
1, 349820, Control_c, 0, 64, 57
1, 349835, Control_c, 0, 64, 60
1, 349843, Note_off_c, 0, 33, 51
1, 349850, Control_c, 0, 64, 62
1, 349863, Note_off_c, 0, 64, 60
1, 349864, Control_c, 0, 64, 63
1, 349894, Control_c, 0, 64, 64
1, 349909, Control_c, 0, 64, 65
1, 349938, Control_c, 0, 64, 65
1, 350062, Note_on_c, 0, 66, 47
1, 350074, Note_off_c, 0, 61, 60
1, 350132, Control_c, 0, 64, 65
1, 350155, Note_on_c, 0, 68, 56
1, 350181, Note_off_c, 0, 66, 35
1, 350199, Control_c, 0, 64, 64
1, 350207, Note_off_c, 0, 68, 56
1, 350213, Control_c, 0, 64, 64
1, 350223, Note_on_c, 0, 69, 61
1, 350228, Control_c, 0, 64, 63
1, 350243, Control_c, 0, 64, 61
1, 350258, Control_c, 0, 64, 59
1, 350273, Control_c, 0, 64, 54
1, 350287, Control_c, 0, 64, 47
1, 350302, Note_off_c, 0, 69, 60
1, 350302, Control_c, 0, 64, 35
1, 350317, Note_on_c, 0, 68, 63
1, 350317, Control_c, 0, 64, 20
1, 350322, Note_on_c, 0, 35, 42
1, 350332, Control_c, 0, 64, 0
1, 350345, Note_on_c, 0, 62, 46
1, 350351, Note_on_c, 0, 64, 34
1, 350363, Note_off_c, 0, 35, 59
1, 350507, Note_on_c, 0, 40, 50
1, 350539, Note_off_c, 0, 40, 52
1, 350687, Note_on_c, 0, 40, 55
1, 350716, Note_off_c, 0, 40, 60
1, 350794, Note_off_c, 0, 62, 62
1, 350855, Note_on_c, 0, 33, 52
1, 350882, Note_off_c, 0, 64, 27
1, 350887, Note_off_c, 0, 33, 58
1, 351088, Note_on_c, 0, 64, 11
1, 351091, Note_on_c, 0, 69, 54
1, 351103, Note_on_c, 0, 33, 7
1, 351105, Note_on_c, 0, 61, 35
1, 351126, Note_off_c, 0, 68, 49
1, 351243, Control_c, 0, 64, 23
1, 351258, Control_c, 0, 64, 32
1, 351273, Control_c, 0, 64, 42
1, 351288, Control_c, 0, 64, 53
1, 351302, Control_c, 0, 64, 63
1, 351317, Control_c, 0, 64, 71
1, 351332, Control_c, 0, 64, 76
1, 351347, Control_c, 0, 64, 77
1, 351350, Note_off_c, 0, 61, 60
1, 351350, Note_off_c, 0, 64, 50
1, 351350, Note_off_c, 0, 69, 64
1, 351392, Control_c, 0, 64, 78
1, 351407, Control_c, 0, 64, 78
1, 351422, Control_c, 0, 64, 79
1, 351430, Note_off_c, 0, 33, 41
1, 351451, Control_c, 0, 64, 80
1, 351466, Control_c, 0, 64, 80
1, 351609, Note_on_c, 0, 71, 53
1, 351666, Control_c, 0, 64, 81
1, 351684, Note_off_c, 0, 71, 61
1, 351702, Note_on_c, 0, 73, 58
1, 351712, Control_c, 0, 64, 81
1, 351741, Control_c, 0, 64, 83
1, 351752, Note_off_c, 0, 73, 57
1, 351756, Control_c, 0, 64, 84
1, 351770, Note_on_c, 0, 76, 59
1, 351771, Control_c, 0, 64, 87
1, 351785, Control_c, 0, 64, 88
1, 351789, Note_off_c, 0, 76, 65
1, 351830, Control_c, 0, 64, 84
1, 351845, Control_c, 0, 64, 74
1, 351860, Control_c, 0, 64, 62
1, 351864, Note_on_c, 0, 64, 62
1, 351866, Note_on_c, 0, 35, 37
1, 351875, Control_c, 0, 64, 45
1, 351888, Note_on_c, 0, 62, 47
1, 351890, Control_c, 0, 64, 0
1, 351898, Note_off_c, 0, 35, 54
1, 351957, Note_off_c, 0, 62, 0
1, 351957, Note_on_c, 0, 62, 22
1, 352067, Note_on_c, 0, 40, 46
1, 352101, Note_off_c, 0, 40, 49
1, 352244, Note_on_c, 0, 40, 52
1, 352274, Note_off_c, 0, 40, 61
1, 352434, Note_on_c, 0, 33, 53
1, 352462, Note_off_c, 0, 33, 59
1, 352552, Note_off_c, 0, 64, 47
1, 352673, Note_on_c, 0, 33, 35
1, 352686, Note_on_c, 0, 64, 44
1, 352707, Note_on_c, 0, 61, 34
1, 352749, Note_off_c, 0, 62, 52
1, 352861, Control_c, 0, 64, 21
1, 352875, Control_c, 0, 64, 36
1, 352890, Control_c, 0, 64, 48
1, 352905, Control_c, 0, 64, 57
1, 352919, Control_c, 0, 64, 63
1, 352934, Control_c, 0, 64, 66
1, 352949, Control_c, 0, 64, 67
1, 352961, Note_off_c, 0, 33, 39
1, 352982, Note_off_c, 0, 64, 60
1, 352993, Control_c, 0, 64, 67
1, 353067, Control_c, 0, 64, 68
1, 353163, Control_c, 0, 64, 68
1, 353228, Note_off_c, 0, 61, 55
1, 353237, Note_on_c, 0, 66, 44
1, 353318, Note_off_c, 0, 66, 49
1, 353326, Note_on_c, 0, 68, 55
1, 353389, Note_off_c, 0, 68, 57
1, 353403, Note_on_c, 0, 69, 59
1, 353460, Control_c, 0, 64, 67
1, 353475, Control_c, 0, 64, 65
1, 353481, Note_off_c, 0, 69, 61
1, 353490, Control_c, 0, 64, 59
1, 353505, Control_c, 0, 64, 42
1, 353512, Note_on_c, 0, 68, 57
1, 353520, Control_c, 0, 64, 0
1, 353533, Note_on_c, 0, 35, 36
1, 353538, Note_on_c, 0, 62, 38
1, 353544, Note_on_c, 0, 64, 31
1, 353562, Note_off_c, 0, 35, 51
1, 353604, Note_off_c, 0, 64, 0
1, 353604, Note_on_c, 0, 64, 9
1, 353610, Note_off_c, 0, 62, 0
1, 353610, Note_on_c, 0, 62, 3
1, 353723, Note_on_c, 0, 40, 52
1, 353753, Note_off_c, 0, 40, 54
1, 353928, Note_on_c, 0, 40, 50
1, 353959, Note_off_c, 0, 40, 62
1, 354027, Note_off_c, 0, 62, 55
1, 354148, Note_on_c, 0, 33, 48
1, 354176, Note_off_c, 0, 33, 57
1, 354367, Note_off_c, 0, 64, 0
1, 354403, Poly_aftertouch_c, 0, 64, 127
1, 354455, Note_on_c, 0, 69, 46
1, 354457, Note_on_c, 0, 33, 20
1, 354491, Note_off_c, 0, 68, 55
1, 354492, Note_on_c, 0, 61, 4
1, 354721, Control_c, 0, 64, 25
1, 354736, Control_c, 0, 64, 37
1, 354751, Control_c, 0, 64, 48
1, 354766, Control_c, 0, 64, 57
1, 354780, Control_c, 0, 64, 62
1, 354795, Control_c, 0, 64, 65
1, 354810, Control_c, 0, 64, 67
1, 354825, Control_c, 0, 64, 69
1, 354840, Control_c, 0, 64, 71
1, 354854, Control_c, 0, 64, 73
1, 354869, Note_off_c, 0, 61, 43
1, 354870, Control_c, 0, 64, 75
1, 354884, Poly_aftertouch_c, 0, 64, 0
1, 354885, Control_c, 0, 64, 78
1, 354900, Control_c, 0, 64, 78
1, 354904, Note_off_c, 0, 33, 40
1, 354915, Note_off_c, 0, 69, 62
1, 354930, Control_c, 0, 64, 79
1, 354959, Control_c, 0, 64, 79
1, 354989, Control_c, 0, 64, 80
1, 355252, Note_on_c, 0, 71, 41
1, 355443, Note_on_c, 0, 73, 42
1, 355445, Note_off_c, 0, 71, 56
1, 355455, Control_c, 0, 67, 123
1, 355470, Control_c, 0, 67, 118
1, 355484, Note_off_c, 0, 73, 47
1, 355485, Control_c, 0, 67, 113
1, 355499, Control_c, 0, 67, 108
1, 355514, Control_c, 0, 67, 103
1, 355529, Control_c, 0, 67, 98
1, 355544, Control_c, 0, 67, 94
1, 355559, Control_c, 0, 67, 90
1, 355574, Control_c, 0, 67, 87
1, 355589, Control_c, 0, 67, 84
1, 355603, Control_c, 0, 67, 81
1, 355618, Control_c, 0, 67, 79
1, 355633, Control_c, 0, 67, 76
1, 355648, Control_c, 0, 67, 74
1, 355663, Note_on_c, 0, 76, 55
1, 355663, Control_c, 0, 64, 79
1, 355663, Control_c, 0, 67, 72
1, 355678, Control_c, 0, 67, 70
1, 355693, Control_c, 0, 67, 69
1, 355707, Note_off_c, 0, 76, 61
1, 355708, Control_c, 0, 67, 67
1, 355723, Control_c, 0, 67, 66
1, 355738, Control_c, 0, 64, 79
1, 355738, Control_c, 0, 67, 65
1, 355752, Control_c, 0, 67, 64
1, 355797, Control_c, 0, 64, 78
1, 355841, Control_c, 0, 64, 78
1, 355886, Control_c, 0, 64, 77
1, 355886, Control_c, 0, 67, 65
1, 355915, Control_c, 0, 64, 77
1, 355915, Control_c, 0, 67, 65
1, 355974, Control_c, 0, 64, 76
1, 356004, Control_c, 0, 64, 76
1, 356033, Control_c, 0, 64, 75
1, 356033, Control_c, 0, 67, 66
1, 356048, Control_c, 0, 64, 75
1, 356063, Control_c, 0, 64, 74
1, 356078, Control_c, 0, 64, 74
1, 356093, Control_c, 0, 64, 73
1, 356093, Control_c, 0, 67, 66
1, 356108, Control_c, 0, 64, 72
1, 356122, Control_c, 0, 64, 71
1, 356137, Control_c, 0, 64, 69
1, 356159, Control_c, 0, 64, 68
1, 356164, Note_on_c, 0, 79, 47
1, 356167, Note_on_c, 0, 45, 28
1, 356171, Note_on_c, 0, 57, 20
1, 356174, Control_c, 0, 64, 66
1, 356180, Note_on_c, 0, 67, 40
1, 356182, Note_on_c, 0, 76, 36
1, 356188, Note_on_c, 0, 52, 34
1, 356189, Control_c, 0, 64, 64
1, 356195, Note_on_c, 0, 73, 23
1, 356200, Note_on_c, 0, 49, 27
1, 356204, Control_c, 0, 64, 62
1, 356219, Control_c, 0, 64, 60
1, 356233, Control_c, 0, 64, 56
1, 356240, Note_off_c, 0, 76, 0
1, 356240, Note_on_c, 0, 76, 3
1, 356248, Control_c, 0, 64, 52
1, 356248, Control_c, 0, 67, 66
1, 356263, Control_c, 0, 64, 46
1, 356278, Control_c, 0, 64, 40
1, 356278, Control_c, 0, 67, 65
1, 356293, Control_c, 0, 64, 34
1, 356307, Control_c, 0, 64, 27
1, 356307, Control_c, 0, 67, 65
1, 356322, Control_c, 0, 64, 18
1, 356322, Control_c, 0, 67, 64
1, 356337, Control_c, 0, 64, 0
1, 356397, Control_c, 0, 67, 64
1, 356456, Control_c, 0, 67, 63
1, 356471, Control_c, 0, 67, 61
1, 356486, Control_c, 0, 67, 58
1, 356501, Control_c, 0, 67, 55
1, 356516, Control_c, 0, 67, 53
1, 356531, Control_c, 0, 67, 51
1, 356546, Control_c, 0, 67, 49
1, 356561, Control_c, 0, 67, 49
1, 356575, Control_c, 0, 67, 48
1, 356590, Control_c, 0, 67, 47
1, 356605, Control_c, 0, 67, 46
1, 356620, Control_c, 0, 67, 45
1, 356635, Control_c, 0, 67, 43
1, 356649, Control_c, 0, 67, 40
1, 356664, Control_c, 0, 67, 37
1, 356679, Control_c, 0, 67, 33
1, 356693, Control_c, 0, 67, 29
1, 356708, Control_c, 0, 67, 25
1, 356723, Control_c, 0, 64, 14
1, 356723, Control_c, 0, 67, 21
1, 356738, Control_c, 0, 64, 22
1, 356738, Control_c, 0, 67, 17
1, 356753, Control_c, 0, 64, 29
1, 356753, Control_c, 0, 67, 14
1, 356767, Control_c, 0, 64, 35
1, 356767, Control_c, 0, 67, 9
1, 356782, Control_c, 0, 64, 43
1, 356782, Control_c, 0, 67, 0
1, 356797, Control_c, 0, 64, 51
1, 356812, Control_c, 0, 64, 55
1, 356827, Control_c, 0, 64, 58
1, 356841, Control_c, 0, 64, 59
1, 356855, Control_c, 0, 64, 61
1, 356870, Control_c, 0, 64, 62
1, 356892, Control_c, 0, 64, 63
1, 356906, Control_c, 0, 64, 64
1, 356921, Control_c, 0, 64, 65
1, 356936, Control_c, 0, 64, 66
1, 356951, Control_c, 0, 64, 66
1, 356966, Control_c, 0, 64, 67
1, 356981, Control_c, 0, 64, 67
1, 356996, Control_c, 0, 64, 68
1, 357011, Control_c, 0, 64, 69
1, 357026, Control_c, 0, 64, 69
1, 357041, Control_c, 0, 64, 70
1, 357085, Control_c, 0, 64, 70
1, 357099, Control_c, 0, 64, 71
1, 357115, Note_off_c, 0, 79, 33
1, 357159, Control_c, 0, 64, 71
1, 357173, Control_c, 0, 64, 72
1, 357202, Note_off_c, 0, 76, 42
1, 357203, Control_c, 0, 64, 72
1, 357208, Note_off_c, 0, 67, 35
1, 357242, Note_off_c, 0, 73, 42
1, 357247, Control_c, 0, 64, 73
1, 357278, Control_c, 0, 64, 73
1, 357293, Control_c, 0, 64, 74
1, 357352, Control_c, 0, 64, 74
1, 357396, Control_c, 0, 64, 75
1, 357456, Control_c, 0, 64, 75
1, 357512, Note_off_c, 0, 45, 42
1, 357515, Control_c, 0, 64, 76
1, 357559, Control_c, 0, 64, 76
1, 357604, Control_c, 0, 64, 77
1, 357609, Note_off_c, 0, 57, 41
1, 357670, Control_c, 0, 64, 77
1, 357700, Control_c, 0, 64, 78
1, 357728, Note_off_c, 0, 52, 41
1, 357744, Control_c, 0, 64, 78
1, 357774, Control_c, 0, 64, 79
1, 357790, Note_off_c, 0, 49, 42
1, 357804, Control_c, 0, 64, 79
1, 357848, Control_c, 0, 64, 80
1, 357863, Control_c, 0, 64, 81
1, 357878, Control_c, 0, 64, 81
1, 357893, Control_c, 0, 64, 82
1, 357908, Control_c, 0, 64, 82
1, 357922, Control_c, 0, 64, 83
1, 357952, Control_c, 0, 64, 84
1, 357982, Control_c, 0, 64, 84
1, 358011, Control_c, 0, 64, 85
1, 358056, Control_c, 0, 64, 85
1, 358087, Control_c, 0, 64, 86
1, 358131, Control_c, 0, 64, 86
1, 358175, Control_c, 0, 64, 87
1, 358190, Control_c, 0, 64, 87
1, 358205, Control_c, 0, 64, 88
1, 358219, Control_c, 0, 64, 89
1, 358234, Control_c, 0, 64, 89
1, 358249, Control_c, 0, 64, 90
1, 358279, Control_c, 0, 64, 90
1, 358293, Control_c, 0, 64, 91
1, 358308, Control_c, 0, 64, 92
1, 358323, Control_c, 0, 64, 93
1, 358337, Control_c, 0, 64, 95
1, 358353, Control_c, 0, 64, 97
1, 358368, Control_c, 0, 64, 100
1, 358391, Control_c, 0, 64, 103
1, 358406, Control_c, 0, 64, 104
1, 358420, Control_c, 0, 64, 99
1, 358435, Control_c, 0, 64, 74
1, 358436, Note_on_c, 0, 81, 100
1, 358437, Note_on_c, 0, 45, 90
1, 358437, Note_on_c, 0, 69, 104
1, 358439, Note_on_c, 0, 33, 89
1, 358450, Control_c, 0, 64, 54
1, 358460, Note_off_c, 0, 45, 71
1, 358464, Control_c, 0, 64, 0
1, 358465, Note_off_c, 0, 81, 64
1, 358467, Note_off_c, 0, 69, 70
1, 358470, Note_off_c, 0, 33, 69
1, 358644, Note_on_c, 0, 78, 103
1, 358645, Note_on_c, 0, 66, 103
1, 358647, Note_on_c, 0, 42, 99
1, 358655, Note_on_c, 0, 30, 74
1, 358670, Note_off_c, 0, 78, 70
1, 358672, Note_off_c, 0, 66, 63
1, 358674, Note_off_c, 0, 30, 67
1, 358686, Control_c, 0, 64, 32
1, 358689, Note_off_c, 0, 42, 63
1, 358701, Control_c, 0, 64, 51
1, 358716, Control_c, 0, 64, 62
1, 358731, Control_c, 0, 64, 72
1, 358746, Control_c, 0, 64, 93
1, 358761, Control_c, 0, 64, 127
1, 359043, Control_c, 0, 64, 84
1, 359058, Control_c, 0, 64, 50
1, 359073, Control_c, 0, 64, 0
1, 359524, Control_c, 0, 67, 8
1, 359539, Control_c, 0, 67, 10
1, 359553, Control_c, 0, 67, 15
1, 359568, Control_c, 0, 67, 21
1, 359583, Control_c, 0, 67, 30
1, 359598, Control_c, 0, 67, 42
1, 359613, Control_c, 0, 67, 51
1, 359628, Control_c, 0, 67, 58
1, 359642, Control_c, 0, 67, 64
1, 359658, Control_c, 0, 67, 70
1, 359673, Control_c, 0, 67, 77
1, 359688, Control_c, 0, 67, 84
1, 359703, Control_c, 0, 67, 91
1, 359717, Control_c, 0, 67, 98
1, 359732, Control_c, 0, 67, 104
1, 359747, Control_c, 0, 67, 109
1, 359762, Control_c, 0, 67, 115
1, 359777, Control_c, 0, 67, 120
1, 359791, Control_c, 0, 67, 126
1, 359806, Control_c, 0, 67, 127
1, 360257, Note_on_c, 0, 69, 60
1, 360265, Note_on_c, 0, 57, 51
1, 360269, Note_on_c, 0, 45, 39
1, 360276, Note_on_c, 0, 33, 37
1, 360279, Note_off_c, 0, 69, 64
1, 360290, Note_off_c, 0, 57, 56
1, 360302, Note_off_c, 0, 45, 50
1, 360308, Note_off_c, 0, 33, 48
1, 360698, Note_on_c, 0, 53, 35
1, 360701, Note_on_c, 0, 65, 39
1, 360707, Note_on_c, 0, 29, 26
1, 360739, Note_on_c, 0, 41, 5
1, 360814, Control_c, 0, 64, 26
1, 360829, Control_c, 0, 64, 37
1, 360844, Control_c, 0, 64, 46
1, 360856, Note_off_c, 0, 65, 60
1, 360859, Control_c, 0, 64, 54
1, 360873, Control_c, 0, 64, 58
1, 360888, Control_c, 0, 64, 61
1, 360892, Note_off_c, 0, 53, 46
1, 360903, Control_c, 0, 64, 63
1, 360918, Control_c, 0, 64, 64
1, 360925, Note_off_c, 0, 41, 39
1, 360933, Control_c, 0, 64, 65
1, 360947, Control_c, 0, 64, 67
1, 360952, Note_off_c, 0, 29, 38
1, 360962, Control_c, 0, 64, 68
1, 360977, Control_c, 0, 64, 69
1, 361169, Control_c, 0, 64, 68
1, 361184, Control_c, 0, 64, 67
1, 361199, Control_c, 0, 64, 65
1, 361214, Control_c, 0, 64, 63
1, 361229, Control_c, 0, 64, 60
1, 361244, Control_c, 0, 64, 53
1, 361259, Control_c, 0, 64, 42
1, 361274, Control_c, 0, 64, 28
1, 361289, Control_c, 0, 64, 14
1, 361303, Control_c, 0, 64, 0
1, 362423, Note_on_c, 0, 45, 47
1, 362451, Note_off_c, 0, 45, 56
1, 362636, Note_on_c, 0, 41, 43
1, 363145, Note_off_c, 0, 41, 59
1, 363153, Note_on_c, 0, 43, 55
1, 363207, Note_off_c, 0, 43, 59
1, 363232, Note_on_c, 0, 45, 56
1, 363294, Note_off_c, 0, 45, 62
1, 363313, Note_on_c, 0, 46, 62
1, 363377, Note_off_c, 0, 46, 65
1, 363394, Note_on_c, 0, 40, 58
1, 363767, Note_off_c, 0, 40, 63
1, 363978, Note_on_c, 0, 58, 55
1, 363989, Note_on_c, 0, 43, 43
1, 364001, Note_off_c, 0, 58, 63
1, 364028, Note_off_c, 0, 43, 52
1, 364186, Note_on_c, 0, 55, 57
1, 364203, Note_on_c, 0, 40, 36
1, 364697, Note_off_c, 0, 55, 61
1, 364707, Note_on_c, 0, 57, 51
1, 364708, Note_on_c, 0, 41, 39
1, 364716, Note_off_c, 0, 40, 43
1, 364757, Note_off_c, 0, 41, 60
1, 364789, Note_on_c, 0, 43, 34
1, 364792, Note_off_c, 0, 57, 58
1, 364795, Note_on_c, 0, 58, 58
1, 364850, Note_off_c, 0, 43, 50
1, 364855, Note_off_c, 0, 58, 63
1, 364883, Note_on_c, 0, 60, 48
1, 364885, Note_on_c, 0, 45, 36
1, 364936, Note_off_c, 0, 45, 58
1, 364967, Note_off_c, 0, 60, 60
1, 364975, Note_on_c, 0, 57, 47
1, 364990, Note_on_c, 0, 41, 26
1, 365092, Control_c, 0, 64, 18
1, 365107, Control_c, 0, 64, 33
1, 365129, Control_c, 0, 64, 43
1, 365144, Control_c, 0, 64, 54
1, 365159, Control_c, 0, 64, 62
1, 365174, Control_c, 0, 64, 69
1, 365188, Control_c, 0, 64, 75
1, 365198, Note_off_c, 0, 41, 50
1, 365203, Control_c, 0, 64, 77
1, 365214, Note_off_c, 0, 57, 61
1, 365218, Control_c, 0, 64, 78
1, 365232, Control_c, 0, 64, 80
1, 365247, Control_c, 0, 64, 84
1, 365263, Control_c, 0, 64, 89
1, 365278, Control_c, 0, 64, 93
1, 365293, Control_c, 0, 64, 97
1, 365308, Control_c, 0, 64, 100
1, 365337, Control_c, 0, 64, 98
1, 365352, Control_c, 0, 64, 83
1, 365367, Control_c, 0, 64, 68
1, 365382, Control_c, 0, 64, 57
1, 365397, Control_c, 0, 64, 33
1, 365411, Control_c, 0, 64, 0
1, 365587, Note_on_c, 0, 72, 51
1, 365609, Note_off_c, 0, 72, 59
1, 365815, Note_on_c, 0, 69, 55
1, 365843, Note_on_c, 0, 53, 22
1, 365845, Note_on_c, 0, 57, 21
1, 366116, Control_c, 0, 64, 10
1, 366131, Control_c, 0, 64, 18
1, 366131, Control_c, 0, 67, 116
1, 366146, Control_c, 0, 64, 24
1, 366146, Control_c, 0, 67, 100
1, 366160, Control_c, 0, 64, 31
1, 366160, Control_c, 0, 67, 85
1, 366175, Control_c, 0, 64, 38
1, 366175, Control_c, 0, 67, 70
1, 366190, Control_c, 0, 64, 44
1, 366190, Control_c, 0, 67, 58
1, 366205, Control_c, 0, 64, 50
1, 366205, Control_c, 0, 67, 47
1, 366220, Control_c, 0, 64, 54
1, 366220, Control_c, 0, 67, 37
1, 366234, Control_c, 0, 64, 56
1, 366234, Control_c, 0, 67, 31
1, 366249, Control_c, 0, 64, 57
1, 366249, Control_c, 0, 67, 28
1, 366264, Control_c, 0, 67, 27
1, 366293, Control_c, 0, 64, 57
1, 366308, Control_c, 0, 64, 56
1, 366323, Control_c, 0, 64, 55
1, 366338, Control_c, 0, 64, 54
1, 366353, Control_c, 0, 64, 52
1, 366362, Note_on_c, 0, 71, 51
1, 366368, Control_c, 0, 64, 50
1, 366374, Note_off_c, 0, 69, 59
1, 366383, Control_c, 0, 64, 47
1, 366398, Control_c, 0, 64, 44
1, 366412, Control_c, 0, 64, 42
1, 366412, Control_c, 0, 67, 28
1, 366427, Control_c, 0, 64, 41
1, 366442, Note_off_c, 0, 71, 62
1, 366442, Control_c, 0, 64, 40
1, 366444, Note_on_c, 0, 72, 64
1, 366457, Control_c, 0, 64, 39
1, 366472, Control_c, 0, 64, 37
1, 366472, Control_c, 0, 67, 28
1, 366486, Control_c, 0, 64, 35
1, 366486, Control_c, 0, 67, 29
1, 366501, Control_c, 0, 64, 32
1, 366501, Control_c, 0, 67, 29
1, 366516, Control_c, 0, 64, 28
1, 366516, Control_c, 0, 67, 30
1, 366517, Note_on_c, 0, 74, 60
1, 366517, Note_off_c, 0, 72, 59
1, 366531, Control_c, 0, 64, 25
1, 366546, Control_c, 0, 64, 21
1, 366560, Control_c, 0, 64, 18
1, 366560, Control_c, 0, 67, 30
1, 366575, Control_c, 0, 64, 16
1, 366575, Control_c, 0, 67, 31
1, 366590, Control_c, 0, 64, 13
1, 366590, Control_c, 0, 67, 31
1, 366604, Control_c, 0, 64, 11
1, 366611, Note_off_c, 0, 74, 63
1, 366619, Control_c, 0, 64, 0
1, 366634, Note_on_c, 0, 59, 42
1, 366634, Note_on_c, 0, 68, 67
1, 366636, Note_off_c, 0, 53, 42
1, 366642, Control_c, 0, 67, 32
1, 366648, Note_on_c, 0, 52, 44
1, 366731, Control_c, 0, 67, 31
1, 366740, Note_off_c, 0, 57, 50
1, 366760, Control_c, 0, 67, 30
1, 366790, Control_c, 0, 67, 30
1, 366819, Control_c, 0, 67, 29
1, 366834, Control_c, 0, 67, 29
1, 366895, Control_c, 0, 64, 26
1, 366909, Control_c, 0, 64, 36
1, 366924, Control_c, 0, 64, 49
1, 366928, Note_off_c, 0, 68, 60
1, 366939, Control_c, 0, 64, 59
1, 366952, Note_off_c, 0, 52, 64
1, 366953, Note_off_c, 0, 59, 62
1, 366954, Control_c, 0, 64, 67
1, 366969, Control_c, 0, 64, 75
1, 366983, Control_c, 0, 64, 77
1, 367013, Control_c, 0, 67, 30
1, 367028, Control_c, 0, 64, 75
1, 367028, Control_c, 0, 67, 30
1, 367043, Control_c, 0, 64, 68
1, 367057, Control_c, 0, 64, 59
1, 367072, Control_c, 0, 64, 41
1, 367087, Control_c, 0, 64, 0
1, 367131, Control_c, 0, 67, 30
1, 367220, Control_c, 0, 67, 29
1, 367235, Control_c, 0, 67, 29
1, 367265, Control_c, 0, 67, 28
1, 367269, Note_on_c, 0, 74, 68
1, 367278, Note_on_c, 0, 59, 52
1, 367280, Control_c, 0, 67, 28
1, 367297, Note_off_c, 0, 74, 63
1, 367309, Control_c, 0, 67, 27
1, 367316, Note_off_c, 0, 59, 61
1, 367324, Control_c, 0, 67, 26
1, 367338, Control_c, 0, 67, 26
1, 367353, Control_c, 0, 67, 25
1, 367368, Control_c, 0, 67, 21
1, 367390, Control_c, 0, 67, 19
1, 367405, Control_c, 0, 67, 17
1, 367420, Control_c, 0, 67, 15
1, 367434, Control_c, 0, 67, 14
1, 367449, Control_c, 0, 67, 12
1, 367464, Control_c, 0, 67, 9
1, 367479, Control_c, 0, 67, 0
1, 367532, Note_on_c, 0, 71, 62
1, 367539, Note_on_c, 0, 52, 35
1, 367541, Note_on_c, 0, 56, 35
1, 368042, Control_c, 0, 67, 10
1, 368057, Control_c, 0, 67, 15
1, 368072, Control_c, 0, 67, 21
1, 368088, Control_c, 0, 67, 30
1, 368103, Control_c, 0, 67, 45
1, 368106, Note_on_c, 0, 73, 58
1, 368118, Control_c, 0, 67, 62
1, 368135, Note_on_c, 0, 57, 43
1, 368139, Control_c, 0, 67, 84
1, 368154, Control_c, 0, 67, 103
1, 368169, Control_c, 0, 67, 120
1, 368180, Note_off_c, 0, 71, 52
1, 368183, Note_off_c, 0, 56, 42
1, 368184, Control_c, 0, 67, 127
1, 368213, Note_off_c, 0, 57, 61
1, 368239, Note_on_c, 0, 74, 61
1, 368252, Note_off_c, 0, 73, 63
1, 368256, Note_on_c, 0, 59, 42
1, 368362, Note_off_c, 0, 59, 61
1, 368376, Note_on_c, 0, 76, 70
1, 368380, Note_on_c, 0, 61, 48
1, 368393, Note_off_c, 0, 74, 61
1, 368604, Note_on_c, 0, 74, 54
1, 368606, Note_off_c, 0, 76, 63
1, 368618, Note_off_c, 0, 61, 62
1, 368625, Note_on_c, 0, 59, 34
1, 368840, Note_off_c, 0, 52, 42
1, 368855, Note_on_c, 0, 69, 40
1, 368885, Note_on_c, 0, 53, 41
1, 369057, Note_off_c, 0, 69, 63
1, 369061, Note_on_c, 0, 68, 48
1, 369072, Note_off_c, 0, 53, 51
1, 369077, Note_on_c, 0, 52, 49
1, 369199, Control_c, 0, 64, 21
1, 369214, Control_c, 0, 64, 32
1, 369229, Control_c, 0, 64, 43
1, 369244, Control_c, 0, 64, 51
1, 369244, Control_c, 0, 67, 118
1, 369254, Note_on_c, 0, 76, 66
1, 369259, Control_c, 0, 64, 57
1, 369259, Control_c, 0, 67, 103
1, 369265, Note_off_c, 0, 74, 55
1, 369274, Control_c, 0, 64, 61
1, 369274, Control_c, 0, 67, 90
1, 369278, Note_off_c, 0, 68, 57
1, 369289, Control_c, 0, 64, 64
1, 369289, Control_c, 0, 67, 80
1, 369304, Control_c, 0, 64, 65
1, 369304, Control_c, 0, 67, 75
1, 369314, Note_off_c, 0, 52, 63
1, 369319, Control_c, 0, 64, 66
1, 369319, Control_c, 0, 67, 71
1, 369334, Control_c, 0, 64, 67
1, 369334, Control_c, 0, 67, 66
1, 369349, Control_c, 0, 64, 68
1, 369349, Control_c, 0, 67, 61
1, 369364, Control_c, 0, 64, 68
1, 369364, Control_c, 0, 67, 57
1, 369378, Control_c, 0, 67, 53
1, 369393, Control_c, 0, 67, 49
1, 369408, Control_c, 0, 67, 45
1, 369422, Control_c, 0, 67, 41
1, 369435, Note_off_c, 0, 76, 64
1, 369437, Control_c, 0, 67, 37
1, 369450, Note_on_c, 0, 57, 60
1, 369452, Control_c, 0, 67, 34
1, 369467, Control_c, 0, 67, 30
1, 369472, Note_on_c, 0, 73, 49
1, 369475, Note_on_c, 0, 69, 44
1, 369482, Control_c, 0, 64, 67
1, 369482, Control_c, 0, 67, 29
1, 369493, Note_on_c, 0, 52, 45
1, 369496, Control_c, 0, 64, 66
1, 369496, Control_c, 0, 67, 28
1, 369511, Control_c, 0, 64, 64
1, 369511, Control_c, 0, 67, 27
1, 369526, Control_c, 0, 64, 61
1, 369526, Control_c, 0, 67, 26
1, 369529, Note_off_c, 0, 59, 40
1, 369541, Control_c, 0, 64, 55
1, 369541, Control_c, 0, 67, 24
1, 369556, Control_c, 0, 64, 44
1, 369556, Control_c, 0, 67, 23
1, 369570, Control_c, 0, 64, 24
1, 369570, Control_c, 0, 67, 22
1, 369585, Control_c, 0, 64, 0
1, 369585, Control_c, 0, 67, 20
1, 369600, Control_c, 0, 67, 19
1, 369622, Control_c, 0, 67, 17
1, 369637, Note_on_c, 0, 81, 64
1, 369637, Control_c, 0, 67, 16
1, 369652, Control_c, 0, 64, 18
1, 369667, Control_c, 0, 64, 31
1, 369682, Control_c, 0, 64, 42
1, 369696, Control_c, 0, 64, 54
1, 369711, Control_c, 0, 64, 62
1, 369726, Control_c, 0, 64, 68
1, 369726, Control_c, 0, 67, 17
1, 369741, Control_c, 0, 64, 72
1, 369741, Control_c, 0, 67, 17
1, 369756, Control_c, 0, 64, 72
1, 369770, Control_c, 0, 67, 18
1, 369778, Note_off_c, 0, 52, 49
1, 369785, Control_c, 0, 64, 73
1, 369785, Control_c, 0, 67, 18
1, 369800, Control_c, 0, 64, 75
1, 369800, Control_c, 0, 67, 19
1, 369815, Control_c, 0, 64, 77
1, 369819, Note_on_c, 0, 76, 62
1, 369820, Note_off_c, 0, 73, 48
1, 369821, Note_on_c, 0, 61, 75
1, 369829, Control_c, 0, 64, 78
1, 369844, Control_c, 0, 64, 79
1, 369859, Control_c, 0, 64, 81
1, 369859, Control_c, 0, 67, 20
1, 369869, Note_off_c, 0, 57, 54
1, 369874, Control_c, 0, 64, 84
1, 369874, Control_c, 0, 67, 20
1, 369889, Control_c, 0, 64, 88
1, 369899, Note_off_c, 0, 61, 65
1, 369903, Control_c, 0, 64, 90
1, 369918, Control_c, 0, 64, 93
1, 369933, Control_c, 0, 64, 100
1, 369948, Control_c, 0, 64, 115
1, 369948, Control_c, 0, 67, 21
1, 369963, Control_c, 0, 64, 127
1, 369963, Control_c, 0, 67, 22
1, 369978, Control_c, 0, 67, 22
1, 369993, Control_c, 0, 67, 23
1, 370007, Control_c, 0, 64, 107
1, 370007, Control_c, 0, 67, 23
1, 370011, Note_on_c, 0, 64, 81
1, 370022, Control_c, 0, 64, 80
1, 370022, Control_c, 0, 67, 24
1, 370037, Control_c, 0, 64, 64
1, 370037, Control_c, 0, 67, 25
1, 370043, Note_off_c, 0, 64, 62
1, 370052, Control_c, 0, 64, 50
1, 370052, Control_c, 0, 67, 25
1, 370067, Control_c, 0, 64, 12
1, 370067, Control_c, 0, 67, 26
1, 370082, Control_c, 0, 64, 0
1, 370082, Control_c, 0, 67, 26
1, 370165, Note_off_c, 0, 76, 36
1, 370234, Note_on_c, 0, 62, 64
1, 370261, Note_off_c, 0, 69, 61
1, 370290, Poly_aftertouch_c, 0, 52, 127
1, 370319, Control_c, 0, 67, 27
1, 370332, Control_c, 0, 67, 27
1, 370451, Poly_aftertouch_c, 0, 52, 0
1, 370458, Control_c, 0, 67, 27
1, 370466, Note_on_c, 0, 80, 57
1, 370473, Control_c, 0, 64, 11
1, 370477, Note_on_c, 0, 53, 41
1, 370488, Control_c, 0, 64, 25
1, 370496, Note_on_c, 0, 71, 36
1, 370503, Control_c, 0, 64, 36
1, 370518, Control_c, 0, 64, 46
1, 370532, Control_c, 0, 64, 55
1, 370545, Note_off_c, 0, 81, 37
1, 370547, Control_c, 0, 64, 60
1, 370562, Control_c, 0, 64, 64
1, 370577, Control_c, 0, 64, 65
1, 370592, Control_c, 0, 64, 66
1, 370607, Control_c, 0, 64, 67
1, 370622, Control_c, 0, 64, 68
1, 370636, Control_c, 0, 64, 69
1, 370651, Control_c, 0, 64, 71
1, 370655, Note_on_c, 0, 52, 72
1, 370666, Control_c, 0, 64, 72
1, 370681, Control_c, 0, 64, 73
1, 370690, Note_off_c, 0, 53, 50
1, 370696, Note_off_c, 0, 62, 52
1, 370708, Note_off_c, 0, 71, 41
1, 370723, Note_off_c, 0, 80, 34
1, 370755, Control_c, 0, 67, 26
1, 370784, Control_c, 0, 67, 26
1, 370821, Note_on_c, 0, 64, 73
1, 370824, Note_on_c, 0, 71, 49
1, 370825, Note_off_c, 0, 52, 65
1, 370826, Note_on_c, 0, 80, 66
1, 370860, Control_c, 0, 67, 26
1, 370874, Control_c, 0, 64, 73
1, 370889, Control_c, 0, 67, 27
1, 370893, Note_off_c, 0, 64, 63
1, 370911, Note_off_c, 0, 71, 54
1, 370963, Control_c, 0, 64, 72
1, 370978, Control_c, 0, 64, 69
1, 370993, Control_c, 0, 64, 63
1, 371008, Control_c, 0, 64, 53
1, 371008, Control_c, 0, 67, 27
1, 371012, Note_on_c, 0, 61, 72
1, 371017, Note_on_c, 0, 81, 68
1, 371022, Control_c, 0, 64, 34
1, 371028, Note_on_c, 0, 52, 48
1, 371036, Note_on_c, 0, 69, 62
1, 371037, Control_c, 0, 64, 8
1, 371052, Control_c, 0, 64, 11
1, 371066, Control_c, 0, 64, 24
1, 371066, Control_c, 0, 67, 28
1, 371077, Note_off_c, 0, 81, 64
1, 371081, Control_c, 0, 64, 37
1, 371081, Control_c, 0, 67, 28
1, 371096, Control_c, 0, 64, 47
1, 371104, Note_off_c, 0, 80, 38
1, 371104, Note_off_c, 0, 69, 65
1, 371111, Control_c, 0, 64, 55
1, 371134, Control_c, 0, 64, 61
1, 371134, Control_c, 0, 67, 29
1, 371148, Control_c, 0, 64, 63
1, 371163, Control_c, 0, 64, 64
1, 371163, Control_c, 0, 67, 30
1, 371178, Control_c, 0, 64, 64
1, 371193, Control_c, 0, 64, 65
1, 371203, Note_on_c, 0, 69, 75
1, 371207, Control_c, 0, 64, 65
1, 371222, Control_c, 0, 67, 30
1, 371237, Control_c, 0, 64, 66
1, 371252, Control_c, 0, 64, 67
1, 371252, Control_c, 0, 67, 32
1, 371267, Control_c, 0, 64, 67
1, 371267, Control_c, 0, 67, 34
1, 371279, Note_off_c, 0, 69, 62
1, 371281, Control_c, 0, 64, 68
1, 371281, Control_c, 0, 67, 35
1, 371286, Poly_aftertouch_c, 0, 76, 127
1, 371296, Control_c, 0, 64, 68
1, 371296, Control_c, 0, 67, 37
1, 371311, Control_c, 0, 67, 40
1, 371319, Poly_aftertouch_c, 0, 76, 0
1, 371326, Control_c, 0, 64, 69
1, 371326, Control_c, 0, 67, 44
1, 371341, Control_c, 0, 64, 69
1, 371341, Control_c, 0, 67, 49
1, 371355, Control_c, 0, 64, 70
1, 371355, Control_c, 0, 67, 55
1, 371370, Control_c, 0, 64, 70
1, 371370, Control_c, 0, 67, 58
1, 371385, Control_c, 0, 64, 71
1, 371385, Control_c, 0, 67, 61
1, 371393, Note_on_c, 0, 64, 70
1, 371400, Control_c, 0, 67, 64
1, 371410, Note_on_c, 0, 73, 57
1, 371412, Note_off_c, 0, 52, 49
1, 371414, Control_c, 0, 64, 71
1, 371414, Control_c, 0, 67, 67
1, 371426, Note_off_c, 0, 64, 62
1, 371429, Control_c, 0, 64, 72
1, 371429, Control_c, 0, 67, 69
1, 371432, Note_off_c, 0, 73, 62
1, 371444, Control_c, 0, 64, 72
1, 371444, Control_c, 0, 67, 69
1, 371450, Note_off_c, 0, 61, 60
1, 371459, Control_c, 0, 64, 74
1, 371474, Control_c, 0, 64, 75
1, 371489, Control_c, 0, 64, 77
1, 371489, Control_c, 0, 67, 70
1, 371504, Control_c, 0, 64, 78
1, 371504, Control_c, 0, 67, 70
1, 371519, Control_c, 0, 64, 78
1, 371519, Control_c, 0, 67, 72
1, 371534, Control_c, 0, 64, 78
1, 371534, Control_c, 0, 67, 74
1, 371548, Control_c, 0, 64, 75
1, 371548, Control_c, 0, 67, 76
1, 371563, Control_c, 0, 64, 67
1, 371563, Control_c, 0, 67, 80
1, 371573, Note_on_c, 0, 76, 73
1, 371578, Control_c, 0, 64, 57
1, 371578, Control_c, 0, 67, 86
1, 371586, Note_on_c, 0, 59, 50
1, 371592, Note_on_c, 0, 52, 49
1, 371592, Control_c, 0, 64, 35
1, 371592, Control_c, 0, 67, 94
1, 371607, Control_c, 0, 64, 0
1, 371607, Control_c, 0, 67, 104
1, 371608, Note_on_c, 0, 68, 30
1, 371609, Note_off_c, 0, 76, 63
1, 371616, Note_off_c, 0, 59, 53
1, 371622, Control_c, 0, 67, 113
1, 371623, Note_off_c, 0, 52, 56
1, 371638, Control_c, 0, 67, 121
1, 371647, Note_off_c, 0, 68, 31
1, 371653, Control_c, 0, 67, 127
1, 371792, Note_on_c, 0, 74, 60
1, 371808, Note_on_c, 0, 52, 31
1, 371808, Note_on_c, 0, 59, 39
1, 371830, Note_on_c, 0, 68, 35
1, 371989, Note_off_c, 0, 52, 45
1, 371998, Note_on_c, 0, 69, 44
1, 372021, Note_on_c, 0, 53, 33
1, 372056, Note_off_c, 0, 68, 36
1, 372175, Note_off_c, 0, 53, 40
1, 372185, Note_on_c, 0, 52, 35
1, 372188, Note_off_c, 0, 69, 59
1, 372191, Note_on_c, 0, 68, 55
1, 372238, Control_c, 0, 64, 14
1, 372253, Control_c, 0, 64, 26
1, 372257, Note_off_c, 0, 52, 63
1, 372268, Control_c, 0, 64, 36
1, 372283, Control_c, 0, 64, 46
1, 372297, Control_c, 0, 64, 54
1, 372312, Control_c, 0, 64, 58
1, 372327, Control_c, 0, 64, 61
1, 372330, Note_off_c, 0, 59, 54
1, 372342, Control_c, 0, 64, 61
1, 372363, Note_off_c, 0, 68, 55
1, 372371, Control_c, 0, 67, 126
1, 372383, Note_on_c, 0, 76, 70
1, 372386, Control_c, 0, 64, 62
1, 372386, Control_c, 0, 67, 123
1, 372401, Control_c, 0, 64, 62
1, 372401, Control_c, 0, 67, 119
1, 372416, Control_c, 0, 67, 115
1, 372431, Control_c, 0, 67, 109
1, 372437, Note_off_c, 0, 74, 44
1, 372437, Note_off_c, 0, 76, 61
1, 372446, Control_c, 0, 64, 63
1, 372446, Control_c, 0, 67, 105
1, 372461, Control_c, 0, 67, 101
1, 372476, Control_c, 0, 67, 99
1, 372491, Control_c, 0, 67, 97
1, 372506, Control_c, 0, 67, 94
1, 372520, Control_c, 0, 67, 93
1, 372535, Control_c, 0, 67, 91
1, 372550, Control_c, 0, 64, 62
1, 372550, Control_c, 0, 67, 90
1, 372565, Control_c, 0, 64, 62
1, 372565, Control_c, 0, 67, 89
1, 372580, Control_c, 0, 64, 60
1, 372580, Control_c, 0, 67, 87
1, 372594, Note_on_c, 0, 57, 29
1, 372595, Control_c, 0, 64, 57
1, 372595, Control_c, 0, 67, 86
1, 372600, Note_on_c, 0, 73, 51
1, 372602, Note_on_c, 0, 45, 39
1, 372617, Control_c, 0, 64, 51
1, 372617, Control_c, 0, 67, 85
1, 372632, Control_c, 0, 64, 39
1, 372632, Control_c, 0, 67, 84
1, 372634, Note_on_c, 0, 64, 37
1, 372646, Control_c, 0, 64, 22
1, 372646, Control_c, 0, 67, 84
1, 372661, Control_c, 0, 64, 0
1, 372661, Control_c, 0, 67, 83
1, 372676, Control_c, 0, 67, 81
1, 372681, Note_off_c, 0, 64, 0
1, 372681, Note_on_c, 0, 64, 5
1, 372691, Control_c, 0, 64, 10
1, 372691, Control_c, 0, 67, 79
1, 372706, Control_c, 0, 64, 20
1, 372706, Control_c, 0, 67, 79
1, 372720, Control_c, 0, 64, 27
1, 372720, Control_c, 0, 67, 78
1, 372735, Control_c, 0, 64, 33
1, 372735, Control_c, 0, 67, 76
1, 372750, Control_c, 0, 64, 40
1, 372750, Control_c, 0, 67, 75
1, 372765, Control_c, 0, 64, 47
1, 372765, Control_c, 0, 67, 73
1, 372780, Control_c, 0, 64, 53
1, 372780, Control_c, 0, 67, 71
1, 372795, Control_c, 0, 64, 57
1, 372795, Control_c, 0, 67, 69
1, 372795, Note_on_c, 0, 69, 71
1, 372810, Note_on_c, 0, 49, 55
1, 372810, Control_c, 0, 64, 59
1, 372810, Control_c, 0, 67, 66
1, 372817, Note_off_c, 0, 73, 60
1, 372822, Note_off_c, 0, 45, 59
1, 372824, Control_c, 0, 64, 61
1, 372824, Control_c, 0, 67, 63
1, 372839, Control_c, 0, 64, 61
1, 372839, Control_c, 0, 67, 60
1, 372843, Note_off_c, 0, 69, 61
1, 372845, Note_off_c, 0, 64, 52
1, 372854, Control_c, 0, 64, 62
1, 372854, Control_c, 0, 67, 58
1, 372869, Control_c, 0, 64, 63
1, 372869, Control_c, 0, 67, 55
1, 372884, Control_c, 0, 64, 64
1, 372884, Control_c, 0, 67, 53
1, 372899, Control_c, 0, 64, 65
1, 372899, Control_c, 0, 67, 49
1, 372914, Control_c, 0, 64, 65
1, 372914, Control_c, 0, 67, 47
1, 372928, Control_c, 0, 64, 66
1, 372928, Control_c, 0, 67, 46
1, 372943, Control_c, 0, 67, 45
1, 372958, Control_c, 0, 64, 65
1, 372958, Control_c, 0, 67, 43
1, 372972, Control_c, 0, 64, 65
1, 372972, Control_c, 0, 67, 42
1, 372973, Note_off_c, 0, 57, 40
1, 372976, Note_on_c, 0, 66, 75
1, 372987, Control_c, 0, 64, 62
1, 372987, Control_c, 0, 67, 40
1, 372991, Note_on_c, 0, 50, 63
1, 373002, Control_c, 0, 64, 54
1, 373002, Control_c, 0, 67, 38
1, 373017, Control_c, 0, 64, 36
1, 373017, Control_c, 0, 67, 35
1, 373032, Control_c, 0, 64, 0
1, 373032, Control_c, 0, 67, 30
1, 373045, Note_off_c, 0, 49, 35
1, 373046, Control_c, 0, 67, 25
1, 373061, Control_c, 0, 67, 20
1, 373076, Control_c, 0, 64, 22
1, 373076, Control_c, 0, 67, 15
1, 373091, Control_c, 0, 64, 39
1, 373091, Control_c, 0, 67, 14
1, 373106, Control_c, 0, 64, 52
1, 373106, Control_c, 0, 67, 12
1, 373120, Control_c, 0, 64, 61
1, 373120, Control_c, 0, 67, 10
1, 373135, Control_c, 0, 64, 65
1, 373135, Control_c, 0, 67, 9
1, 373150, Control_c, 0, 64, 63
1, 373150, Control_c, 0, 67, 0
1, 373154, Note_on_c, 0, 47, 77
1, 373158, Note_on_c, 0, 68, 73
1, 373161, Note_on_c, 0, 62, 67
1, 373161, Note_off_c, 0, 50, 63
1, 373164, Control_c, 0, 64, 54
1, 373172, Note_off_c, 0, 66, 55
1, 373179, Control_c, 0, 64, 28
1, 373194, Control_c, 0, 64, 0
1, 373234, Note_off_c, 0, 62, 63
1, 373240, Control_c, 0, 64, 35
1, 373255, Control_c, 0, 64, 52
1, 373269, Control_c, 0, 64, 66
1, 373284, Control_c, 0, 64, 77
1, 373299, Control_c, 0, 64, 73
1, 373314, Control_c, 0, 64, 61
1, 373328, Note_on_c, 0, 49, 81
1, 373329, Control_c, 0, 64, 35
1, 373343, Note_off_c, 0, 47, 63
1, 373343, Control_c, 0, 64, 0
1, 373345, Note_on_c, 0, 69, 61
1, 373347, Note_on_c, 0, 64, 60
1, 373347, Note_off_c, 0, 68, 59
1, 373395, Control_c, 0, 64, 27
1, 373410, Control_c, 0, 64, 45
1, 373425, Control_c, 0, 64, 62
1, 373440, Control_c, 0, 64, 77
1, 373450, Note_off_c, 0, 49, 64
1, 373455, Control_c, 0, 64, 85
1, 373469, Control_c, 0, 64, 83
1, 373484, Control_c, 0, 64, 72
1, 373499, Control_c, 0, 64, 61
1, 373514, Control_c, 0, 64, 43
1, 373520, Note_on_c, 0, 71, 61
1, 373521, Note_off_c, 0, 69, 61
1, 373522, Note_on_c, 0, 62, 77
1, 373529, Control_c, 0, 64, 0
1, 373545, Note_on_c, 0, 66, 55
1, 373558, Note_on_c, 0, 50, 44
1, 373558, Control_c, 0, 64, 19
1, 373573, Control_c, 0, 64, 38
1, 373588, Control_c, 0, 64, 53
1, 373594, Note_off_c, 0, 50, 51
1, 373601, Note_off_c, 0, 64, 28
1, 373602, Control_c, 0, 64, 65
1, 373616, Note_off_c, 0, 62, 63
1, 373617, Control_c, 0, 64, 78
1, 373632, Control_c, 0, 64, 79
1, 373632, Control_c, 0, 67, 8
1, 373647, Control_c, 0, 64, 72
1, 373647, Control_c, 0, 67, 10
1, 373662, Control_c, 0, 64, 62
1, 373662, Control_c, 0, 67, 11
1, 373677, Control_c, 0, 64, 47
1, 373677, Control_c, 0, 67, 12
1, 373692, Control_c, 0, 64, 22
1, 373707, Control_c, 0, 64, 0
1, 373711, Note_off_c, 0, 71, 63
1, 373716, Note_on_c, 0, 69, 58
1, 373720, Note_on_c, 0, 64, 51
1, 373722, Control_c, 0, 64, 15
1, 373722, Control_c, 0, 67, 13
1, 373725, Note_on_c, 0, 61, 69
1, 373737, Control_c, 0, 64, 33
1, 373751, Control_c, 0, 64, 46
1, 373755, Note_on_c, 0, 52, 40
1, 373766, Control_c, 0, 64, 57
1, 373766, Control_c, 0, 67, 14
1, 373781, Control_c, 0, 64, 64
1, 373781, Control_c, 0, 67, 17
1, 373791, Note_off_c, 0, 66, 31
1, 373793, Note_off_c, 0, 64, 57
1, 373795, Control_c, 0, 64, 71
1, 373795, Control_c, 0, 67, 23
1, 373810, Control_c, 0, 64, 74
1, 373810, Control_c, 0, 67, 32
1, 373821, Note_off_c, 0, 69, 64
1, 373825, Control_c, 0, 67, 43
1, 373840, Control_c, 0, 64, 73
1, 373840, Control_c, 0, 67, 52
1, 373841, Note_off_c, 0, 52, 59
1, 373853, Note_off_c, 0, 61, 64
1, 373855, Control_c, 0, 64, 71
1, 373855, Control_c, 0, 67, 60
1, 373869, Control_c, 0, 64, 67
1, 373869, Control_c, 0, 67, 67
1, 373884, Control_c, 0, 64, 61
1, 373884, Control_c, 0, 67, 72
1, 373899, Control_c, 0, 64, 48
1, 373899, Control_c, 0, 67, 79
1, 373914, Control_c, 0, 64, 31
1, 373914, Control_c, 0, 67, 86
1, 373926, Note_on_c, 0, 59, 50
1, 373929, Control_c, 0, 64, 22
1, 373929, Control_c, 0, 67, 91
1, 373933, Note_on_c, 0, 68, 66
1, 373942, Note_on_c, 0, 52, 36
1, 373943, Control_c, 0, 64, 24
1, 373943, Control_c, 0, 67, 95
1, 373958, Control_c, 0, 64, 32
1, 373958, Control_c, 0, 67, 97
1, 373973, Control_c, 0, 64, 42
1, 373973, Control_c, 0, 67, 98
1, 373987, Control_c, 0, 64, 51
1, 374002, Control_c, 0, 64, 58
1, 374017, Control_c, 0, 64, 62
1, 374021, Note_on_c, 0, 76, 58
1, 374032, Control_c, 0, 64, 62
1, 374032, Control_c, 0, 67, 98
1, 374038, Note_off_c, 0, 68, 48
1, 374051, Note_off_c, 0, 59, 59
1, 374063, Note_off_c, 0, 52, 57
1, 374063, Control_c, 0, 64, 62
1, 374077, Control_c, 0, 64, 60
1, 374077, Control_c, 0, 67, 98
1, 374091, Control_c, 0, 64, 55
1, 374106, Control_c, 0, 64, 45
1, 374106, Control_c, 0, 67, 97
1, 374127, Note_off_c, 0, 76, 58
1, 374129, Control_c, 0, 64, 29
1, 374129, Control_c, 0, 67, 96
1, 374144, Control_c, 0, 64, 10
1, 374156, Note_on_c, 0, 68, 66
1, 374159, Control_c, 0, 64, 8
1, 374159, Control_c, 0, 67, 95
1, 374165, Note_on_c, 0, 59, 50
1, 374173, Control_c, 0, 64, 17
1, 374173, Control_c, 0, 67, 94
1, 374174, Note_on_c, 0, 74, 51
1, 374188, Control_c, 0, 64, 31
1, 374188, Control_c, 0, 67, 92
1, 374194, Note_on_c, 0, 52, 36
1, 374203, Control_c, 0, 64, 41
1, 374203, Control_c, 0, 67, 90
1, 374217, Control_c, 0, 64, 50
1, 374217, Control_c, 0, 67, 88
1, 374222, Note_off_c, 0, 68, 60
1, 374232, Control_c, 0, 64, 58
1, 374232, Control_c, 0, 67, 86
1, 374235, Note_on_c, 0, 76, 71
1, 374236, Note_off_c, 0, 74, 57
1, 374247, Control_c, 0, 64, 63
1, 374247, Control_c, 0, 67, 84
1, 374262, Control_c, 0, 64, 65
1, 374262, Control_c, 0, 67, 79
1, 374277, Control_c, 0, 67, 70
1, 374291, Control_c, 0, 64, 64
1, 374291, Control_c, 0, 67, 61
1, 374292, Note_on_c, 0, 69, 75
1, 374306, Control_c, 0, 64, 62
1, 374306, Control_c, 0, 67, 54
1, 374315, Note_off_c, 0, 52, 64
1, 374319, Note_off_c, 0, 76, 64
1, 374321, Control_c, 0, 64, 54
1, 374321, Control_c, 0, 67, 49
1, 374326, Note_on_c, 0, 53, 67
1, 374336, Control_c, 0, 64, 39
1, 374336, Control_c, 0, 67, 43
1, 374339, Note_on_c, 0, 74, 57
1, 374351, Control_c, 0, 64, 11
1, 374351, Control_c, 0, 67, 37
1, 374364, Note_off_c, 0, 69, 65
1, 374366, Control_c, 0, 64, 0
1, 374366, Control_c, 0, 67, 32
1, 374376, Note_on_c, 0, 76, 66
1, 374380, Control_c, 0, 67, 29
1, 374395, Control_c, 0, 64, 24
1, 374395, Control_c, 0, 67, 28
1, 374410, Control_c, 0, 64, 37
1, 374414, Note_off_c, 0, 74, 61
1, 374425, Control_c, 0, 64, 49
1, 374440, Control_c, 0, 64, 60
1, 374455, Control_c, 0, 64, 70
1, 374455, Control_c, 0, 67, 29
1, 374470, Control_c, 0, 64, 79
1, 374470, Control_c, 0, 67, 30
1, 374472, Note_on_c, 0, 68, 72
1, 374477, Note_off_c, 0, 76, 64
1, 374478, Note_on_c, 0, 52, 78
1, 374479, Note_off_c, 0, 53, 63
1, 374484, Control_c, 0, 67, 31
1, 374499, Control_c, 0, 64, 74
1, 374499, Control_c, 0, 67, 32
1, 374514, Control_c, 0, 64, 65
1, 374514, Control_c, 0, 67, 32
1, 374529, Control_c, 0, 64, 54
1, 374544, Control_c, 0, 64, 33
1, 374556, Note_on_c, 0, 73, 62
1, 374559, Control_c, 0, 64, 0
1, 374559, Control_c, 0, 67, 31
1, 374559, Note_off_c, 0, 68, 61
1, 374588, Control_c, 0, 67, 30
1, 374603, Control_c, 0, 64, 28
1, 374607, Note_on_c, 0, 74, 69
1, 374617, Control_c, 0, 64, 38
1, 374632, Control_c, 0, 64, 45
1, 374647, Control_c, 0, 64, 52
1, 374662, Control_c, 0, 64, 57
1, 374663, Note_on_c, 0, 76, 83
1, 374676, Note_off_c, 0, 52, 66
1, 374677, Control_c, 0, 64, 59
1, 374685, Note_off_c, 0, 74, 62
1, 374691, Control_c, 0, 64, 60
1, 374691, Control_c, 0, 67, 30
1, 374693, Note_off_c, 0, 73, 36
1, 374706, Control_c, 0, 64, 61
1, 374706, Control_c, 0, 67, 29
1, 374721, Control_c, 0, 67, 29
1, 374735, Control_c, 0, 64, 61
1, 374735, Control_c, 0, 67, 28
1, 374750, Control_c, 0, 67, 27
1, 374810, Control_c, 0, 67, 27
1, 374825, Control_c, 0, 64, 61
1, 374825, Control_c, 0, 67, 26
1, 374840, Control_c, 0, 64, 59
1, 374855, Control_c, 0, 64, 56
1, 374870, Note_on_c, 0, 57, 71
1, 374878, Control_c, 0, 64, 50
1, 374878, Control_c, 0, 67, 26
1, 374881, Note_on_c, 0, 73, 67
1, 374893, Control_c, 0, 64, 44
1, 374893, Control_c, 0, 67, 25
1, 374896, Note_off_c, 0, 76, 61
1, 374904, Note_on_c, 0, 69, 49
1, 374908, Control_c, 0, 64, 36
1, 374908, Control_c, 0, 67, 25
1, 374911, Note_on_c, 0, 52, 47
1, 374912, Note_off_c, 0, 59, 38
1, 374922, Control_c, 0, 64, 23
1, 374937, Control_c, 0, 64, 0
1, 374937, Control_c, 0, 67, 24
1, 374982, Control_c, 0, 67, 24
1, 374996, Control_c, 0, 67, 23
1, 375011, Control_c, 0, 67, 21
1, 375026, Control_c, 0, 67, 19
1, 375040, Control_c, 0, 67, 14
1, 375055, Control_c, 0, 67, 0
1, 375056, Note_on_c, 0, 81, 78
1, 375070, Control_c, 0, 64, 26
1, 375085, Control_c, 0, 64, 35
1, 375100, Control_c, 0, 64, 43
1, 375106, Note_off_c, 0, 52, 64
1, 375114, Control_c, 0, 64, 52
1, 375129, Control_c, 0, 64, 60
1, 375144, Control_c, 0, 64, 66
1, 375159, Control_c, 0, 64, 70
1, 375173, Control_c, 0, 64, 71
1, 375188, Control_c, 0, 64, 72
1, 375203, Control_c, 0, 64, 72
1, 375218, Control_c, 0, 64, 73
1, 375233, Control_c, 0, 64, 73
1, 375239, Note_on_c, 0, 76, 73
1, 375248, Control_c, 0, 64, 74
1, 375254, Note_on_c, 0, 61, 75
1, 375262, Note_off_c, 0, 57, 61
1, 375263, Control_c, 0, 64, 76
1, 375278, Control_c, 0, 64, 78
1, 375290, Note_off_c, 0, 73, 0
1, 375293, Control_c, 0, 64, 82
1, 375307, Control_c, 0, 64, 87
1, 375312, Note_off_c, 0, 61, 64
1, 375322, Control_c, 0, 64, 96
1, 375328, Poly_aftertouch_c, 0, 73, 127
1, 375337, Control_c, 0, 64, 117
1, 375352, Control_c, 0, 64, 127
1, 375396, Control_c, 0, 64, 114
1, 375411, Control_c, 0, 64, 81
1, 375426, Control_c, 0, 64, 61
1, 375426, Control_c, 0, 67, 16
1, 375428, Note_on_c, 0, 64, 68
1, 375440, Control_c, 0, 64, 41
1, 375440, Control_c, 0, 67, 29
1, 375445, Note_on_c, 0, 52, 51
1, 375455, Control_c, 0, 64, 0
1, 375455, Control_c, 0, 67, 48
1, 375463, Note_off_c, 0, 76, 65
1, 375470, Control_c, 0, 67, 71
1, 375474, Note_off_c, 0, 52, 57
1, 375475, Note_off_c, 0, 64, 59
1, 375476, Poly_aftertouch_c, 0, 73, 0
1, 375485, Control_c, 0, 67, 98
1, 375500, Control_c, 0, 67, 121
1, 375514, Control_c, 0, 67, 127
1, 375618, Note_on_c, 0, 52, 41
1, 375647, Note_on_c, 0, 62, 43
1, 375671, Control_c, 0, 64, 22
1, 375686, Control_c, 0, 64, 29
1, 375695, Note_off_c, 0, 52, 60
1, 375697, Note_off_c, 0, 62, 65
1, 375701, Control_c, 0, 64, 37
1, 375714, Note_on_c, 0, 64, 59
1, 375716, Note_off_c, 0, 69, 61
1, 375716, Control_c, 0, 64, 46
1, 375731, Control_c, 0, 64, 57
1, 375746, Control_c, 0, 64, 63
1, 375761, Note_off_c, 0, 64, 60
1, 375761, Control_c, 0, 64, 66
1, 375776, Control_c, 0, 64, 66
1, 375786, Note_on_c, 0, 62, 63
1, 375790, Note_on_c, 0, 80, 74
1, 375805, Control_c, 0, 64, 67
1, 375809, Note_on_c, 0, 77, 17
1, 375813, Note_on_c, 0, 71, 63
1, 375816, Note_off_c, 0, 62, 65
1, 375816, Note_off_c, 0, 81, 60
1, 375820, Control_c, 0, 64, 69
1, 375835, Control_c, 0, 64, 71
1, 375840, Note_on_c, 0, 64, 75
1, 375850, Control_c, 0, 64, 74
1, 375858, Note_off_c, 0, 77, 51
1, 375864, Control_c, 0, 64, 77
1, 375879, Control_c, 0, 64, 79
1, 375894, Control_c, 0, 64, 81
1, 375894, Control_c, 0, 67, 127
1, 375909, Note_on_c, 0, 62, 69
1, 375909, Control_c, 0, 67, 118
1, 375924, Control_c, 0, 64, 81
1, 375924, Control_c, 0, 67, 111
1, 375938, Control_c, 0, 67, 102
1, 375942, Note_off_c, 0, 71, 0
1, 375953, Control_c, 0, 64, 83
1, 375953, Control_c, 0, 67, 88
1, 375961, Note_on_c, 0, 76, 67
1, 375965, Note_on_c, 0, 71, 35
1, 375968, Control_c, 0, 64, 84
1, 375968, Control_c, 0, 67, 71
1, 375970, Note_off_c, 0, 64, 28
1, 375975, Note_off_c, 0, 62, 63
1, 375978, Note_on_c, 0, 61, 74
1, 375983, Control_c, 0, 64, 85
1, 375983, Control_c, 0, 67, 56
1, 375997, Control_c, 0, 67, 47
1, 376012, Control_c, 0, 67, 44
1, 376018, Note_off_c, 0, 80, 55
1, 376027, Control_c, 0, 64, 86
1, 376027, Control_c, 0, 67, 41
1, 376035, Note_off_c, 0, 71, 61
1, 376037, Note_on_c, 0, 62, 72
1, 376038, Note_off_c, 0, 61, 67
1, 376042, Control_c, 0, 64, 87
1, 376042, Control_c, 0, 67, 37
1, 376057, Control_c, 0, 64, 88
1, 376057, Control_c, 0, 67, 31
1, 376071, Control_c, 0, 64, 89
1, 376071, Control_c, 0, 67, 27
1, 376086, Control_c, 0, 67, 25
1, 376100, Note_on_c, 0, 64, 87
1, 376101, Control_c, 0, 67, 24
1, 376102, Note_off_c, 0, 62, 66
1, 376116, Control_c, 0, 67, 24
1, 376128, Note_on_c, 0, 80, 71
1, 376131, Control_c, 0, 64, 90
1, 376146, Note_off_c, 0, 64, 66
1, 376171, Note_on_c, 0, 71, 31
1, 376190, Control_c, 0, 67, 24
1, 376205, Note_off_c, 0, 71, 55
1, 376205, Control_c, 0, 64, 91
1, 376205, Control_c, 0, 67, 25
1, 376220, Control_c, 0, 64, 92
1, 376235, Control_c, 0, 64, 93
1, 376235, Control_c, 0, 67, 25
1, 376279, Control_c, 0, 64, 92
1, 376294, Control_c, 0, 64, 86
1, 376308, Control_c, 0, 64, 76
1, 376323, Control_c, 0, 64, 66
1, 376332, Note_off_c, 0, 76, 64
1, 376333, Note_on_c, 0, 81, 71
1, 376333, Note_on_c, 0, 61, 80
1, 376338, Control_c, 0, 64, 56
1, 376360, Control_c, 0, 64, 35
1, 376361, Note_on_c, 0, 52, 51
1, 376375, Control_c, 0, 64, 0
1, 376375, Control_c, 0, 67, 26
1, 376381, Note_on_c, 0, 69, 42
1, 376419, Control_c, 0, 67, 26
1, 376428, Note_off_c, 0, 81, 64
1, 376435, Control_c, 0, 64, 8
1, 376441, Note_off_c, 0, 80, 37
1, 376450, Control_c, 0, 64, 23
1, 376461, Note_off_c, 0, 69, 59
1, 376465, Control_c, 0, 64, 32
1, 376480, Control_c, 0, 64, 42
1, 376494, Control_c, 0, 64, 51
1, 376509, Control_c, 0, 64, 58
1, 376524, Note_on_c, 0, 76, 82
1, 376524, Control_c, 0, 64, 63
1, 376524, Control_c, 0, 67, 27
1, 376531, Note_on_c, 0, 69, 72
1, 376539, Control_c, 0, 64, 65
1, 376554, Control_c, 0, 64, 67
1, 376558, Note_off_c, 0, 69, 67
1, 376568, Control_c, 0, 64, 67
1, 376568, Control_c, 0, 67, 27
1, 376580, Note_off_c, 0, 76, 65
1, 376583, Control_c, 0, 64, 68
1, 376598, Control_c, 0, 64, 69
1, 376598, Control_c, 0, 67, 28
1, 376613, Control_c, 0, 64, 70
1, 376613, Control_c, 0, 67, 28
1, 376628, Control_c, 0, 64, 71
1, 376628, Control_c, 0, 67, 29
1, 376643, Control_c, 0, 64, 72
1, 376658, Control_c, 0, 64, 73
1, 376673, Control_c, 0, 64, 74
1, 376673, Control_c, 0, 67, 29
1, 376687, Control_c, 0, 64, 75
1, 376710, Note_on_c, 0, 73, 78
1, 376717, Control_c, 0, 64, 75
1, 376717, Note_on_c, 0, 64, 64
1, 376732, Control_c, 0, 64, 77
1, 376732, Control_c, 0, 67, 29
1, 376735, Note_off_c, 0, 61, 61
1, 376738, Note_off_c, 0, 64, 63
1, 376747, Control_c, 0, 64, 80
1, 376751, Note_off_c, 0, 73, 50
1, 376761, Control_c, 0, 64, 84
1, 376776, Control_c, 0, 64, 90
1, 376791, Control_c, 0, 64, 95
1, 376791, Control_c, 0, 67, 30
1, 376806, Control_c, 0, 64, 100
1, 376806, Control_c, 0, 67, 30
1, 376807, Note_off_c, 0, 52, 43
1, 376820, Control_c, 0, 64, 101
1, 376820, Control_c, 0, 67, 33
1, 376835, Control_c, 0, 67, 36
1, 376850, Control_c, 0, 64, 99
1, 376850, Control_c, 0, 67, 44
1, 376865, Control_c, 0, 64, 86
1, 376865, Control_c, 0, 67, 57
1, 376880, Control_c, 0, 64, 73
1, 376880, Control_c, 0, 67, 74
1, 376891, Note_on_c, 0, 76, 72
1, 376894, Control_c, 0, 64, 62
1, 376894, Control_c, 0, 67, 95
1, 376899, Note_on_c, 0, 68, 68
1, 376905, Note_on_c, 0, 59, 51
1, 376907, Note_on_c, 0, 52, 57
1, 376909, Control_c, 0, 64, 46
1, 376909, Control_c, 0, 67, 115
1, 376919, Note_off_c, 0, 68, 64
1, 376924, Control_c, 0, 64, 0
1, 376924, Control_c, 0, 67, 127
1, 376930, Note_off_c, 0, 76, 61
1, 376931, Note_off_c, 0, 52, 61
1, 376931, Note_off_c, 0, 59, 55
1, 377066, Note_on_c, 0, 59, 53
1, 377069, Note_on_c, 0, 52, 47
1, 377072, Note_on_c, 0, 74, 57
1, 377072, Control_c, 0, 64, 32
1, 377073, Note_on_c, 0, 68, 37
1, 377087, Control_c, 0, 64, 42
1, 377102, Control_c, 0, 64, 47
1, 377106, Note_off_c, 0, 68, 49
1, 377124, Control_c, 0, 64, 51
1, 377127, Note_off_c, 0, 74, 57
1, 377138, Control_c, 0, 64, 57
1, 377141, Note_on_c, 0, 76, 71
1, 377153, Control_c, 0, 64, 64
1, 377168, Control_c, 0, 64, 68
1, 377176, Note_on_c, 0, 69, 53
1, 377183, Control_c, 0, 64, 69
1, 377198, Control_c, 0, 64, 69
1, 377208, Note_off_c, 0, 76, 65
1, 377212, Control_c, 0, 64, 64
1, 377214, Note_on_c, 0, 74, 69
1, 377225, Note_off_c, 0, 52, 61
1, 377227, Control_c, 0, 64, 56
1, 377233, Note_off_c, 0, 69, 64
1, 377238, Note_on_c, 0, 53, 77
1, 377243, Control_c, 0, 64, 40
1, 377253, Note_on_c, 0, 76, 69
1, 377258, Control_c, 0, 64, 11
1, 377272, Note_off_c, 0, 74, 66
1, 377273, Control_c, 0, 64, 15
1, 377288, Control_c, 0, 64, 31
1, 377303, Control_c, 0, 64, 46
1, 377317, Control_c, 0, 64, 61
1, 377332, Control_c, 0, 64, 79
1, 377347, Control_c, 0, 64, 97
1, 377354, Note_on_c, 0, 68, 36
1, 377362, Control_c, 0, 64, 93
1, 377363, Note_off_c, 0, 76, 66
1, 377376, Note_on_c, 0, 73, 69
1, 377377, Control_c, 0, 64, 80
1, 377389, Note_off_c, 0, 53, 65
1, 377391, Control_c, 0, 64, 67
1, 377405, Note_on_c, 0, 52, 83
1, 377405, Note_off_c, 0, 68, 61
1, 377406, Control_c, 0, 64, 56
1, 377421, Control_c, 0, 64, 36
1, 377436, Control_c, 0, 64, 0
1, 377467, Note_on_c, 0, 74, 49
1, 377471, Note_on_c, 0, 76, 38
1, 377481, Control_c, 0, 64, 27
1, 377496, Control_c, 0, 64, 37
1, 377500, Note_off_c, 0, 76, 56
1, 377510, Control_c, 0, 64, 45
1, 377525, Control_c, 0, 64, 53
1, 377540, Control_c, 0, 64, 60
1, 377542, Note_off_c, 0, 59, 61
1, 377555, Note_off_c, 0, 74, 64
1, 377555, Control_c, 0, 64, 65
1, 377557, Note_on_c, 0, 76, 86
1, 377559, Note_off_c, 0, 52, 62
1, 377561, Note_off_c, 0, 73, 64
1, 377569, Control_c, 0, 64, 70
1, 377584, Control_c, 0, 64, 73
1, 377598, Note_off_c, 0, 76, 65
1, 377599, Control_c, 0, 64, 74
1, 377614, Control_c, 0, 64, 75
1, 377629, Control_c, 0, 64, 75
1, 377643, Control_c, 0, 64, 75
1, 377658, Control_c, 0, 64, 73
1, 377673, Control_c, 0, 64, 68
1, 377688, Control_c, 0, 64, 62
1, 377703, Control_c, 0, 64, 50
1, 377717, Control_c, 0, 64, 29
1, 377732, Control_c, 0, 64, 0
1, 377742, Note_on_c, 0, 61, 70
1, 377744, Note_on_c, 0, 57, 63
1, 377744, Note_on_c, 0, 74, 62
1, 377752, Note_on_c, 0, 64, 59
1, 377766, Note_off_c, 0, 74, 68
1, 377768, Note_off_c, 0, 61, 70
1, 377770, Note_on_c, 0, 73, 72
1, 377772, Note_off_c, 0, 57, 64
1, 377776, Control_c, 0, 64, 13
1, 377791, Control_c, 0, 64, 32
1, 377800, Note_off_c, 0, 73, 64
1, 377806, Control_c, 0, 64, 45
1, 377820, Control_c, 0, 64, 57
1, 377829, Note_on_c, 0, 71, 56
1, 377835, Control_c, 0, 64, 63
1, 377850, Note_off_c, 0, 71, 63
1, 377850, Control_c, 0, 64, 66
1, 377872, Control_c, 0, 64, 64
1, 377878, Note_on_c, 0, 73, 63
1, 377887, Control_c, 0, 64, 58
1, 377888, Note_off_c, 0, 64, 51
1, 377902, Control_c, 0, 64, 40
1, 377907, Note_off_c, 0, 73, 53
1, 377916, Control_c, 0, 64, 0
1, 377931, Note_on_c, 0, 69, 82
1, 377940, Note_on_c, 0, 49, 52
1, 377942, Note_on_c, 0, 64, 46
1, 377974, Note_off_c, 0, 64, 60
1, 377975, Control_c, 0, 64, 14
1, 377981, Note_off_c, 0, 69, 65
1, 377990, Control_c, 0, 64, 32
1, 378005, Control_c, 0, 64, 43
1, 378020, Control_c, 0, 64, 56
1, 378036, Control_c, 0, 64, 63
1, 378051, Control_c, 0, 64, 67
1, 378065, Control_c, 0, 64, 68
1, 378080, Control_c, 0, 64, 66
1, 378092, Note_off_c, 0, 49, 36
1, 378095, Control_c, 0, 64, 60
1, 378110, Control_c, 0, 64, 41
1, 378113, Note_on_c, 0, 66, 79
1, 378118, Note_on_c, 0, 57, 66
1, 378125, Control_c, 0, 64, 0
1, 378136, Note_on_c, 0, 50, 41
1, 378175, Note_off_c, 0, 57, 50
1, 378199, Control_c, 0, 64, 31
1, 378214, Control_c, 0, 64, 42
1, 378229, Control_c, 0, 64, 53
1, 378244, Control_c, 0, 64, 62
1, 378248, Note_off_c, 0, 50, 57
1, 378258, Control_c, 0, 64, 66
1, 378259, Note_off_c, 0, 66, 57
1, 378273, Control_c, 0, 64, 65
1, 378288, Control_c, 0, 64, 60
1, 378303, Control_c, 0, 64, 42
1, 378305, Note_on_c, 0, 68, 68
1, 378310, Note_on_c, 0, 47, 50
1, 378318, Control_c, 0, 64, 0
1, 378336, Note_on_c, 0, 62, 55
1, 378377, Control_c, 0, 64, 34
1, 378390, Poly_aftertouch_c, 0, 64, 0
1, 378391, Note_off_c, 0, 62, 58
1, 378391, Control_c, 0, 64, 51
1, 378406, Control_c, 0, 64, 62
1, 378415, Note_off_c, 0, 68, 59
1, 378421, Control_c, 0, 64, 67
1, 378451, Control_c, 0, 64, 62
1, 378465, Control_c, 0, 64, 50
1, 378480, Control_c, 0, 64, 16
1, 378484, Note_off_c, 0, 47, 60
1, 378494, Note_on_c, 0, 69, 61
1, 378495, Control_c, 0, 64, 0
1, 378501, Note_on_c, 0, 64, 46
1, 378506, Note_on_c, 0, 49, 50
1, 378539, Control_c, 0, 64, 32
1, 378554, Control_c, 0, 64, 47
1, 378570, Control_c, 0, 64, 58
1, 378578, Note_off_c, 0, 64, 39
1, 378584, Control_c, 0, 64, 62
1, 378599, Control_c, 0, 64, 59
1, 378622, Control_c, 0, 64, 45
1, 378637, Control_c, 0, 64, 0
1, 378641, Note_off_c, 0, 69, 58
1, 378681, Note_on_c, 0, 71, 63
1, 378681, Control_c, 0, 64, 22
1, 378687, Note_on_c, 0, 66, 53
1, 378691, Note_on_c, 0, 50, 54
1, 378691, Note_off_c, 0, 49, 54
1, 378696, Control_c, 0, 64, 42
1, 378710, Control_c, 0, 64, 57
1, 378721, Note_off_c, 0, 50, 65
1, 378725, Control_c, 0, 64, 72
1, 378740, Control_c, 0, 64, 96
1, 378755, Control_c, 0, 64, 88
1, 378770, Control_c, 0, 64, 67
1, 378784, Control_c, 0, 64, 49
1, 378788, Note_off_c, 0, 66, 61
1, 378792, Note_off_c, 0, 71, 58
1, 378799, Control_c, 0, 64, 40
1, 378814, Control_c, 0, 64, 52
1, 378829, Control_c, 0, 64, 74
1, 378844, Note_on_c, 0, 52, 61
1, 378845, Control_c, 0, 64, 127
1, 378849, Note_on_c, 0, 68, 73
1, 378868, Note_on_c, 0, 59, 38
1, 378869, Note_off_c, 0, 52, 60
1, 378875, Control_c, 0, 64, 68
1, 378889, Control_c, 0, 64, 42
1, 378899, Note_off_c, 0, 59, 53
1, 378904, Control_c, 0, 64, 0
1, 378923, Note_off_c, 0, 68, 57
1, 378940, Note_on_c, 0, 66, 64
1, 378944, Note_on_c, 0, 63, 60
1, 379000, Note_off_c, 0, 66, 60
1, 379004, Note_off_c, 0, 63, 53
1, 379016, Note_on_c, 0, 64, 58
1, 379030, Note_on_c, 0, 68, 65
1, 379070, Note_off_c, 0, 68, 59
1, 379076, Note_off_c, 0, 64, 62
1, 379101, Note_on_c, 0, 66, 67
1, 379110, Note_on_c, 0, 69, 68
1, 379128, Note_off_c, 0, 66, 67
1, 379148, Note_off_c, 0, 69, 61
1, 379186, Note_on_c, 0, 68, 73
1, 379196, Note_on_c, 0, 71, 61
1, 379251, Note_off_c, 0, 68, 61
1, 379262, Note_off_c, 0, 71, 63
1, 379266, Note_on_c, 0, 69, 65
1, 379290, Note_on_c, 0, 73, 55
1, 379296, Note_off_c, 0, 69, 58
1, 379329, Note_off_c, 0, 73, 62
1, 379373, Note_on_c, 0, 74, 48
1, 379376, Note_on_c, 0, 71, 59
1, 379417, Note_off_c, 0, 71, 57
1, 379441, Note_on_c, 0, 73, 65
1, 379465, Note_on_c, 0, 76, 61
1, 379466, Note_off_c, 0, 73, 64
1, 379475, Note_off_c, 0, 74, 36
1, 379508, Note_off_c, 0, 76, 63
1, 379537, Note_on_c, 0, 69, 60
1, 379543, Note_on_c, 0, 73, 65
1, 379570, Note_off_c, 0, 69, 64
1, 379602, Note_off_c, 0, 73, 57
1, 379617, Note_on_c, 0, 68, 56
1, 379636, Note_on_c, 0, 71, 51
1, 379666, Note_off_c, 0, 71, 59
1, 379694, Note_off_c, 0, 68, 59
1, 379715, Note_on_c, 0, 69, 62
1, 379716, Note_on_c, 0, 66, 61
1, 379763, Note_off_c, 0, 69, 57
1, 379802, Note_off_c, 0, 66, 61
1, 379803, Note_on_c, 0, 71, 62
1, 379806, Note_on_c, 0, 68, 63
1, 379853, Note_off_c, 0, 68, 59
1, 379856, Note_off_c, 0, 71, 64
1, 379871, Note_on_c, 0, 69, 72
1, 379883, Note_on_c, 0, 73, 55
1, 379903, Note_off_c, 0, 73, 63
1, 379918, Note_off_c, 0, 69, 62
1, 379952, Note_on_c, 0, 74, 70
1, 379973, Note_on_c, 0, 71, 63
1, 379973, Note_off_c, 0, 74, 72
1, 380040, Note_on_c, 0, 88, 88
1, 380045, Note_on_c, 0, 76, 74
1, 380045, Note_off_c, 0, 71, 62
1, 380062, Note_off_c, 0, 76, 72
1, 380069, Note_off_c, 0, 88, 59
1, 380121, Note_on_c, 0, 74, 56
1, 380169, Note_off_c, 0, 74, 61
1, 380226, Note_on_c, 0, 73, 23
1, 380228, Note_on_c, 0, 81, 87
1, 380255, Note_off_c, 0, 73, 50
1, 380268, Control_c, 0, 64, 16
1, 380283, Control_c, 0, 64, 29
1, 380298, Control_c, 0, 64, 37
1, 380310, Note_on_c, 0, 71, 38
1, 380311, Note_on_c, 0, 74, 67
1, 380312, Control_c, 0, 64, 47
1, 380319, Note_off_c, 0, 81, 62
1, 380327, Control_c, 0, 64, 56
1, 380341, Note_off_c, 0, 71, 57
1, 380342, Control_c, 0, 64, 63
1, 380355, Note_on_c, 0, 73, 52
1, 380356, Control_c, 0, 64, 68
1, 380371, Control_c, 0, 64, 71
1, 380377, Note_off_c, 0, 74, 59
1, 380386, Control_c, 0, 64, 72
1, 380401, Control_c, 0, 64, 74
1, 380403, Note_on_c, 0, 76, 62
1, 380410, Note_off_c, 0, 73, 64
1, 380416, Control_c, 0, 64, 75
1, 380432, Control_c, 0, 64, 78
1, 380447, Control_c, 0, 64, 82
1, 380461, Control_c, 0, 64, 89
1, 380462, Note_off_c, 0, 76, 58
1, 380470, Note_on_c, 0, 69, 54
1, 380476, Control_c, 0, 64, 101
1, 380491, Control_c, 0, 64, 127
1, 380492, Note_on_c, 0, 73, 54
1, 380492, Note_off_c, 0, 69, 61
1, 380515, Note_off_c, 0, 73, 62
1, 380565, Control_c, 0, 64, 107
1, 380572, Note_on_c, 0, 68, 65
1, 380576, Note_on_c, 0, 71, 66
1, 380579, Control_c, 0, 64, 71
1, 380594, Control_c, 0, 64, 52
1, 380609, Control_c, 0, 64, 0
1, 380611, Note_off_c, 0, 71, 61
1, 380650, Note_off_c, 0, 68, 60
1, 380654, Note_on_c, 0, 69, 62
1, 380655, Note_on_c, 0, 73, 43
1, 380690, Note_off_c, 0, 69, 65
1, 380709, Note_off_c, 0, 73, 60
1, 380745, Note_on_c, 0, 74, 55
1, 380751, Note_on_c, 0, 71, 55
1, 380786, Note_off_c, 0, 71, 62
1, 380815, Note_on_c, 0, 73, 64
1, 380831, Note_on_c, 0, 76, 68
1, 380843, Note_off_c, 0, 73, 64
1, 380864, Note_off_c, 0, 74, 37
1, 380900, Note_off_c, 0, 76, 63
1, 380927, Note_on_c, 0, 69, 55
1, 380929, Note_on_c, 0, 73, 68
1, 380961, Note_off_c, 0, 69, 62
1, 380992, Note_off_c, 0, 73, 61
1, 381007, Note_on_c, 0, 68, 64
1, 381017, Note_on_c, 0, 71, 67
1, 381064, Note_off_c, 0, 71, 62
1, 381083, Note_off_c, 0, 68, 59
1, 381088, Note_on_c, 0, 66, 78
1, 381096, Note_on_c, 0, 69, 68
1, 381151, Note_off_c, 0, 69, 61
1, 381173, Note_on_c, 0, 71, 73
1, 381183, Note_on_c, 0, 68, 87
1, 381198, Note_off_c, 0, 66, 62
1, 381223, Note_off_c, 0, 68, 59
1, 381255, Note_on_c, 0, 69, 68
1, 381262, Note_off_c, 0, 71, 64
1, 381263, Note_on_c, 0, 73, 62
1, 381275, Note_off_c, 0, 69, 67
1, 381282, Note_off_c, 0, 73, 67
1, 381336, Note_on_c, 0, 74, 67
1, 381353, Note_on_c, 0, 71, 52
1, 381374, Note_off_c, 0, 71, 65
1, 381403, Note_off_c, 0, 74, 66
1, 381423, Note_on_c, 0, 76, 61
1, 381424, Note_on_c, 0, 73, 70
1, 381424, Note_on_c, 0, 64, 81
1, 381445, Note_off_c, 0, 64, 71
1, 381510, Note_off_c, 0, 73, 62
1, 381514, Note_off_c, 0, 76, 35
1, 381526, Note_on_c, 0, 74, 66
1, 381614, Note_off_c, 0, 74, 68
1, 381615, Note_on_c, 0, 57, 64
1, 381618, Note_on_c, 0, 59, 63
1, 381624, Note_on_c, 0, 73, 64
1, 381628, Note_on_c, 0, 71, 60
1, 381632, Control_c, 0, 64, 32
1, 381635, Note_off_c, 0, 57, 63
1, 381638, Note_off_c, 0, 59, 61
1, 381647, Control_c, 0, 64, 45
1, 381653, Note_off_c, 0, 73, 63
1, 381662, Control_c, 0, 64, 51
1, 381677, Control_c, 0, 64, 55
1, 381691, Control_c, 0, 64, 59
1, 381706, Control_c, 0, 64, 64
1, 381711, Note_on_c, 0, 76, 71
1, 381721, Control_c, 0, 64, 69
1, 381726, Note_on_c, 0, 73, 71
1, 381727, Note_off_c, 0, 71, 59
1, 381735, Control_c, 0, 64, 73
1, 381744, Note_off_c, 0, 76, 61
1, 381750, Control_c, 0, 64, 76
1, 381753, Note_off_c, 0, 73, 61
1, 381765, Control_c, 0, 64, 79
1, 381780, Control_c, 0, 64, 86
1, 381795, Control_c, 0, 64, 99
1, 381806, Note_on_c, 0, 73, 66
1, 381809, Control_c, 0, 64, 127
1, 381834, Note_on_c, 0, 69, 55
1, 381834, Note_off_c, 0, 73, 64
1, 381856, Note_off_c, 0, 69, 62
1, 381898, Control_c, 0, 64, 83
1, 381913, Control_c, 0, 64, 60
1, 381923, Note_on_c, 0, 71, 71
1, 381928, Control_c, 0, 64, 0
1, 381932, Note_on_c, 0, 68, 68
1, 381945, Note_off_c, 0, 71, 61
1, 382003, Note_off_c, 0, 68, 60
1, 382012, Note_on_c, 0, 69, 64
1, 382014, Note_on_c, 0, 73, 53
1, 382044, Note_off_c, 0, 69, 65
1, 382058, Note_off_c, 0, 73, 49
1, 382100, Note_on_c, 0, 74, 54
1, 382104, Note_on_c, 0, 71, 50
1, 382146, Note_off_c, 0, 71, 60
1, 382170, Note_on_c, 0, 73, 61
1, 382187, Note_on_c, 0, 76, 67
1, 382196, Note_off_c, 0, 73, 62
1, 382218, Note_off_c, 0, 74, 37
1, 382229, Note_off_c, 0, 76, 65
1, 382272, Note_on_c, 0, 73, 67
1, 382286, Note_on_c, 0, 69, 51
1, 382310, Note_off_c, 0, 73, 57
1, 382312, Note_off_c, 0, 69, 57
1, 382368, Note_on_c, 0, 71, 62
1, 382370, Note_on_c, 0, 68, 61
1, 382393, Note_off_c, 0, 71, 58
1, 382410, Note_off_c, 0, 68, 59
1, 382450, Note_on_c, 0, 69, 59
1, 382456, Note_on_c, 0, 66, 70
1, 382480, Note_off_c, 0, 69, 67
1, 382493, Note_off_c, 0, 66, 59
1, 382521, Note_on_c, 0, 68, 70
1, 382536, Note_on_c, 0, 71, 61
1, 382565, Note_off_c, 0, 71, 64
1, 382566, Note_off_c, 0, 68, 53
1, 382624, Note_on_c, 0, 73, 72
1, 382628, Note_on_c, 0, 69, 64
1, 382641, Note_off_c, 0, 73, 70
1, 382648, Note_off_c, 0, 69, 67
1, 382820, Note_on_c, 0, 76, 54
1, 382840, Note_off_c, 0, 76, 64
1, 383013, Note_on_c, 0, 69, 58
1, 383033, Note_off_c, 0, 69, 63
1, 383213, Note_on_c, 0, 88, 59
1, 383235, Note_off_c, 0, 88, 66
1, 383406, Note_on_c, 0, 81, 59
1, 383425, Note_off_c, 0, 81, 62
1, 383601, Note_on_c, 0, 76, 59
1, 383621, Note_off_c, 0, 76, 67
1, 383788, Note_on_c, 0, 69, 59
1, 383807, Note_off_c, 0, 69, 63
1, 383979, Note_on_c, 0, 64, 60
1, 383998, Note_off_c, 0, 64, 65
1, 384144, Control_c, 0, 67, 123
1, 384159, Control_c, 0, 67, 105
1, 384169, Note_on_c, 0, 57, 66
1, 384174, Control_c, 0, 67, 86
1, 384189, Control_c, 0, 67, 64
1, 384194, Note_off_c, 0, 57, 65
1, 384203, Control_c, 0, 67, 41
1, 384218, Control_c, 0, 67, 19
1, 384233, Control_c, 0, 67, 0
1, 384352, Note_on_c, 0, 52, 74
1, 384378, Note_off_c, 0, 52, 68
1, 384537, Note_on_c, 0, 45, 75
1, 384563, Note_off_c, 0, 45, 65
1, 384724, Note_on_c, 0, 40, 83
1, 384748, Note_off_c, 0, 40, 68
1, 384789, Control_c, 0, 67, 8
1, 384804, Control_c, 0, 67, 12
1, 384819, Control_c, 0, 67, 15
1, 384833, Control_c, 0, 67, 18
1, 384848, Control_c, 0, 67, 22
1, 384863, Control_c, 0, 67, 26
1, 384877, Control_c, 0, 67, 32
1, 384892, Control_c, 0, 67, 40
1, 384907, Control_c, 0, 67, 52
1, 384922, Control_c, 0, 67, 65
1, 384937, Control_c, 0, 67, 80
1, 384951, Control_c, 0, 67, 97
1, 384966, Control_c, 0, 67, 119
1, 384981, Note_on_c, 0, 32, 70
1, 384981, Control_c, 0, 67, 127
1, 385033, Note_off_c, 0, 32, 60
1, 385064, Note_on_c, 0, 33, 56
1, 385137, Note_off_c, 0, 33, 65
1, 385159, Note_on_c, 0, 32, 55
1, 385222, Note_off_c, 0, 32, 63
1, 385249, Note_on_c, 0, 33, 53
1, 385313, Note_off_c, 0, 33, 64
1, 385339, Note_on_c, 0, 32, 53
1, 385410, Note_off_c, 0, 32, 62
1, 385448, Note_on_c, 0, 33, 50
1, 385502, Note_off_c, 0, 33, 64
1, 385527, Note_on_c, 0, 32, 49
1, 385591, Note_off_c, 0, 32, 62
1, 385626, Note_on_c, 0, 33, 48
1, 385680, Note_off_c, 0, 33, 65
1, 385706, Note_on_c, 0, 32, 53
1, 385756, Note_off_c, 0, 32, 61
1, 385791, Note_on_c, 0, 33, 52
1, 385857, Note_off_c, 0, 33, 64
1, 385874, Note_on_c, 0, 64, 75
1, 385875, Note_on_c, 0, 32, 59
1, 385896, Note_off_c, 0, 64, 67
1, 385953, Note_off_c, 0, 32, 60
1, 385974, Note_on_c, 0, 33, 52
1, 386054, Note_off_c, 0, 33, 65
1, 386072, Note_on_c, 0, 61, 73
1, 386078, Note_on_c, 0, 32, 53
1, 386155, Note_off_c, 0, 32, 61
1, 386165, Note_on_c, 0, 62, 73
1, 386176, Note_off_c, 0, 61, 63
1, 386184, Note_on_c, 0, 33, 48
1, 386239, Note_on_c, 0, 64, 71
1, 386240, Note_off_c, 0, 33, 65
1, 386245, Note_off_c, 0, 62, 64
1, 386257, Note_on_c, 0, 32, 52
1, 386320, Note_off_c, 0, 32, 61
1, 386327, Note_on_c, 0, 66, 77
1, 386345, Note_on_c, 0, 33, 56
1, 386364, Note_off_c, 0, 64, 62
1, 386405, Note_off_c, 0, 66, 63
1, 386408, Note_off_c, 0, 33, 64
1, 386425, Note_on_c, 0, 62, 79
1, 386432, Note_on_c, 0, 32, 60
1, 386447, Note_off_c, 0, 62, 70
1, 386495, Note_off_c, 0, 32, 59
1, 386515, Note_on_c, 0, 33, 54
1, 386588, Note_off_c, 0, 33, 65
1, 386601, Note_on_c, 0, 57, 80
1, 386605, Note_on_c, 0, 32, 59
1, 386622, Note_off_c, 0, 57, 69
1, 386676, Note_off_c, 0, 32, 62
1, 386702, Note_on_c, 0, 33, 52
1, 386751, Note_off_c, 0, 33, 63
1, 386776, Note_on_c, 0, 32, 52
1, 386787, Note_on_c, 0, 54, 76
1, 386835, Note_off_c, 0, 32, 62
1, 386848, Note_off_c, 0, 54, 63
1, 386865, Note_on_c, 0, 33, 60
1, 386876, Note_on_c, 0, 57, 68
1, 386931, Note_off_c, 0, 33, 63
1, 386959, Note_on_c, 0, 32, 58
1, 386962, Note_off_c, 0, 57, 60
1, 386965, Note_on_c, 0, 62, 72
1, 387010, Note_off_c, 0, 32, 62
1, 387036, Note_on_c, 0, 33, 58
1, 387043, Note_off_c, 0, 62, 62
1, 387046, Note_on_c, 0, 59, 67
1, 387114, Note_off_c, 0, 33, 63
1, 387136, Note_on_c, 0, 28, 65
1, 387148, Note_on_c, 0, 56, 72
1, 387150, Note_off_c, 0, 59, 62
1, 387172, Note_off_c, 0, 56, 69
1, 387239, Note_on_c, 0, 33, 53
1, 387321, Note_off_c, 0, 33, 66
1, 387334, Note_on_c, 0, 74, 76
1, 387340, Note_on_c, 0, 32, 53
1, 387352, Note_off_c, 0, 74, 74
1, 387407, Note_off_c, 0, 32, 62
1, 387443, Note_on_c, 0, 33, 49
1, 387524, Note_off_c, 0, 33, 64
1, 387543, Note_on_c, 0, 32, 52
1, 387547, Note_on_c, 0, 71, 57
1, 387550, Note_on_c, 0, 68, 53
1, 387610, Note_off_c, 0, 32, 62
1, 387641, Note_on_c, 0, 73, 60
1, 387648, Note_on_c, 0, 33, 48
1, 387693, Note_off_c, 0, 71, 58
1, 387702, Note_off_c, 0, 33, 65
1, 387710, Note_off_c, 0, 68, 61
1, 387725, Note_on_c, 0, 74, 59
1, 387729, Note_on_c, 0, 32, 58
1, 387729, Note_off_c, 0, 73, 55
1, 387783, Note_off_c, 0, 32, 61
1, 387809, Note_off_c, 0, 74, 63
1, 387814, Note_on_c, 0, 76, 65
1, 387817, Note_on_c, 0, 33, 55
1, 387861, Note_off_c, 0, 76, 66
1, 387869, Note_off_c, 0, 33, 64
1, 387907, Note_on_c, 0, 32, 56
1, 387911, Note_on_c, 0, 73, 62
1, 387914, Note_on_c, 0, 69, 56
1, 387935, Note_off_c, 0, 73, 65
1, 387956, Note_off_c, 0, 32, 61
1, 387985, Note_off_c, 0, 69, 0
1, 387988, Note_on_c, 0, 33, 50
1, 388023, Poly_aftertouch_c, 0, 69, 127
1, 388061, Note_off_c, 0, 33, 64
1, 388090, Note_on_c, 0, 32, 47
1, 388094, Note_on_c, 0, 76, 65
1, 388125, Note_off_c, 0, 76, 62
1, 388146, Note_off_c, 0, 32, 62
1, 388186, Note_on_c, 0, 33, 44
1, 388249, Note_off_c, 0, 33, 63
1, 388286, Note_on_c, 0, 32, 41
1, 388288, Note_on_c, 0, 81, 64
1, 388357, Note_off_c, 0, 32, 57
1, 388392, Note_on_c, 0, 33, 47
1, 388458, Note_off_c, 0, 33, 64
1, 388491, Note_on_c, 0, 32, 49
1, 388558, Note_off_c, 0, 32, 61
1, 388563, Control_c, 0, 64, 29
1, 388564, Note_off_c, 0, 81, 61
1, 388578, Control_c, 0, 64, 42
1, 388592, Control_c, 0, 64, 54
1, 388594, Note_on_c, 0, 33, 51
1, 388607, Control_c, 0, 64, 62
1, 388622, Control_c, 0, 64, 66
1, 388627, Poly_aftertouch_c, 0, 69, 0
1, 388646, Note_off_c, 0, 33, 63
1, 388652, Control_c, 0, 64, 65
1, 388666, Control_c, 0, 64, 60
1, 388681, Control_c, 0, 64, 47
1, 388686, Note_on_c, 0, 32, 51
1, 388696, Control_c, 0, 64, 18
1, 388711, Control_c, 0, 64, 0
1, 388730, Note_off_c, 0, 32, 61
1, 388760, Note_on_c, 0, 33, 48
1, 388840, Note_off_c, 0, 33, 61
1, 388873, Note_on_c, 0, 32, 39
1, 388883, Note_on_c, 0, 64, 50
1, 388936, Note_off_c, 0, 32, 61
1, 388957, Note_off_c, 0, 64, 62
1, 388970, Note_on_c, 0, 62, 63
1, 388981, Note_on_c, 0, 33, 46
1, 389026, Note_off_c, 0, 33, 64
1, 389038, Note_off_c, 0, 62, 64
1, 389049, Note_on_c, 0, 61, 71
1, 389065, Note_on_c, 0, 32, 52
1, 389121, Note_off_c, 0, 32, 60
1, 389148, Note_on_c, 0, 62, 73
1, 389150, Note_on_c, 0, 33, 49
1, 389164, Note_off_c, 0, 61, 64
1, 389211, Note_off_c, 0, 33, 65
1, 389219, Note_on_c, 0, 64, 72
1, 389228, Note_on_c, 0, 32, 61
1, 389231, Note_off_c, 0, 62, 61
1, 389297, Note_off_c, 0, 32, 59
1, 389303, Note_on_c, 0, 66, 79
1, 389327, Note_on_c, 0, 33, 55
1, 389342, Note_off_c, 0, 64, 60
1, 389373, Note_off_c, 0, 33, 64
1, 389394, Note_off_c, 0, 66, 62
1, 389398, Note_on_c, 0, 62, 74
1, 389419, Note_on_c, 0, 32, 52
1, 389421, Note_off_c, 0, 62, 67
1, 389470, Note_off_c, 0, 32, 60
1, 389487, Note_on_c, 0, 33, 51
1, 389569, Note_off_c, 0, 33, 61
1, 389580, Note_on_c, 0, 32, 51
1, 389594, Note_on_c, 0, 57, 65
1, 389661, Note_off_c, 0, 32, 61
1, 389664, Note_off_c, 0, 57, 62
1, 389670, Note_on_c, 0, 55, 68
1, 389677, Note_on_c, 0, 33, 48
1, 389750, Note_on_c, 0, 54, 67
1, 389758, Note_on_c, 0, 32, 54
1, 389767, Note_off_c, 0, 55, 64
1, 389772, Note_off_c, 0, 33, 62
1, 389805, Note_off_c, 0, 54, 64
1, 389810, Note_off_c, 0, 32, 56
1, 389830, Note_on_c, 0, 57, 71
1, 389877, Note_on_c, 0, 33, 39
1, 389916, Note_off_c, 0, 57, 61
1, 389917, Note_off_c, 0, 33, 64
1, 389930, Note_on_c, 0, 62, 71
1, 389946, Note_on_c, 0, 32, 55
1, 389975, Note_off_c, 0, 28, 55
1, 389997, Note_off_c, 0, 62, 62
1, 390009, Note_on_c, 0, 59, 63
1, 390025, Note_on_c, 0, 33, 57
1, 390025, Note_off_c, 0, 32, 57
1, 390086, Note_off_c, 0, 33, 64
1, 390098, Note_off_c, 0, 59, 62
1, 390101, Note_on_c, 0, 28, 61
1, 390108, Note_on_c, 0, 56, 65
1, 390135, Note_off_c, 0, 56, 69
1, 390206, Note_on_c, 0, 33, 50
1, 390287, Note_off_c, 0, 33, 64
1, 390315, Note_on_c, 0, 32, 43
1, 390331, Note_on_c, 0, 74, 51
1, 390377, Note_off_c, 0, 32, 60
1, 390399, Note_off_c, 0, 74, 65
1, 390414, Note_on_c, 0, 33, 50
1, 390420, Note_on_c, 0, 73, 56
1, 390477, Note_off_c, 0, 33, 65
1, 390495, Note_off_c, 0, 73, 62
1, 390504, Note_on_c, 0, 32, 50
1, 390522, Note_on_c, 0, 68, 52
1, 390525, Note_on_c, 0, 71, 55
1, 390555, Note_off_c, 0, 32, 60
1, 390607, Note_on_c, 0, 33, 47
1, 390651, Note_on_c, 0, 73, 40
1, 390655, Note_off_c, 0, 68, 60
1, 390662, Note_off_c, 0, 33, 64
1, 390685, Note_on_c, 0, 32, 45
1, 390694, Note_off_c, 0, 71, 54
1, 390699, Note_on_c, 0, 74, 59
1, 390711, Note_off_c, 0, 73, 41
1, 390772, Note_off_c, 0, 32, 57
1, 390792, Note_on_c, 0, 33, 48
1, 390795, Note_off_c, 0, 74, 63
1, 390805, Note_on_c, 0, 76, 60
1, 390861, Note_off_c, 0, 76, 61
1, 390866, Note_off_c, 0, 33, 63
1, 390897, Note_on_c, 0, 73, 55
1, 390898, Note_on_c, 0, 69, 52
1, 390910, Note_on_c, 0, 32, 39
1, 390927, Note_off_c, 0, 73, 59
1, 390933, Note_off_c, 0, 69, 54
1, 390951, Note_off_c, 0, 32, 58
1, 390984, Note_on_c, 0, 33, 44
1, 391060, Note_off_c, 0, 33, 63
1, 391085, Note_on_c, 0, 76, 62
1, 391089, Note_on_c, 0, 32, 38
1, 391091, Poly_aftertouch_c, 0, 69, 127
1, 391111, Note_off_c, 0, 76, 63
1, 391145, Note_off_c, 0, 32, 57
1, 391188, Note_on_c, 0, 33, 36
1, 391261, Note_off_c, 0, 33, 62
1, 391281, Note_on_c, 0, 81, 52
1, 391288, Note_on_c, 0, 32, 39
1, 391369, Note_off_c, 0, 32, 58
1, 391395, Control_c, 0, 64, 11
1, 391402, Note_on_c, 0, 33, 37
1, 391410, Control_c, 0, 64, 26
1, 391425, Control_c, 0, 64, 37
1, 391433, Note_off_c, 0, 81, 63
1, 391439, Control_c, 0, 64, 47
1, 391454, Control_c, 0, 64, 56
1, 391465, Note_off_c, 0, 33, 59
1, 391469, Control_c, 0, 64, 61
1, 391484, Control_c, 0, 64, 63
1, 391499, Control_c, 0, 64, 64
1, 391502, Note_on_c, 0, 32, 48
1, 391502, Poly_aftertouch_c, 0, 69, 0
1, 391513, Control_c, 0, 64, 65
1, 391528, Control_c, 0, 64, 65
1, 391543, Control_c, 0, 64, 66
1, 391558, Control_c, 0, 64, 66
1, 391606, Note_off_c, 0, 28, 40
1, 391619, Note_on_c, 0, 33, 39
1, 391663, Control_c, 0, 64, 65
1, 391678, Control_c, 0, 64, 64
1, 391692, Control_c, 0, 64, 63
1, 391707, Control_c, 0, 64, 60
1, 391721, Note_on_c, 0, 28, 51
1, 391722, Control_c, 0, 64, 56
1, 391732, Note_off_c, 0, 32, 33
1, 391736, Control_c, 0, 64, 51
1, 391749, Note_on_c, 0, 68, 50
1, 391751, Control_c, 0, 64, 45
1, 391762, Note_off_c, 0, 33, 41
1, 391766, Control_c, 0, 64, 38
1, 391781, Control_c, 0, 64, 33
1, 391796, Control_c, 0, 64, 31
1, 391810, Control_c, 0, 64, 29
1, 391825, Control_c, 0, 64, 26
1, 391840, Control_c, 0, 64, 21
1, 391855, Control_c, 0, 64, 13
1, 391861, Note_on_c, 0, 33, 35
1, 391869, Control_c, 0, 64, 0
1, 391938, Note_off_c, 0, 33, 56
1, 391966, Note_on_c, 0, 74, 43
1, 391973, Note_on_c, 0, 32, 38
1, 392024, Note_off_c, 0, 32, 58
1, 392063, Note_off_c, 0, 74, 54
1, 392069, Note_on_c, 0, 73, 47
1, 392073, Note_on_c, 0, 33, 31
1, 392127, Note_off_c, 0, 33, 53
1, 392150, Note_off_c, 0, 73, 57
1, 392161, Note_on_c, 0, 32, 45
1, 392179, Note_on_c, 0, 71, 50
1, 392209, Note_off_c, 0, 32, 58
1, 392242, Note_on_c, 0, 33, 44
1, 392282, Note_on_c, 0, 73, 51
1, 392326, Note_off_c, 0, 33, 57
1, 392335, Note_off_c, 0, 71, 37
1, 392351, Note_on_c, 0, 32, 37
1, 392356, Note_off_c, 0, 68, 54
1, 392367, Note_on_c, 0, 74, 47
1, 392369, Note_off_c, 0, 73, 52
1, 392428, Note_off_c, 0, 32, 56
1, 392453, Note_off_c, 0, 74, 61
1, 392473, Note_on_c, 0, 33, 37
1, 392481, Note_on_c, 0, 76, 47
1, 392562, Note_off_c, 0, 76, 47
1, 392570, Note_off_c, 0, 33, 48
1, 392586, Note_on_c, 0, 32, 36
1, 392594, Note_on_c, 0, 73, 50
1, 392601, Note_on_c, 0, 69, 38
1, 392630, Note_off_c, 0, 73, 54
1, 392661, Note_off_c, 0, 32, 56
1, 392710, Note_on_c, 0, 33, 32
1, 392807, Note_off_c, 0, 33, 46
1, 392814, Note_on_c, 0, 32, 40
1, 392822, Note_on_c, 0, 76, 51
1, 392861, Note_off_c, 0, 76, 55
1, 392916, Note_off_c, 0, 32, 54
1, 392959, Note_on_c, 0, 33, 37
1, 393089, Note_on_c, 0, 81, 48
1, 393101, Note_on_c, 0, 32, 24
1, 393105, Note_off_c, 0, 33, 46
1, 393203, Note_off_c, 0, 32, 48
1, 393241, Note_on_c, 0, 33, 31
1, 393264, Control_c, 0, 64, 16
1, 393279, Control_c, 0, 64, 23
1, 393294, Control_c, 0, 64, 28
1, 393308, Control_c, 0, 64, 34
1, 393323, Control_c, 0, 64, 39
1, 393338, Control_c, 0, 64, 44
1, 393348, Note_off_c, 0, 81, 35
1, 393353, Control_c, 0, 64, 49
1, 393368, Note_on_c, 0, 32, 32
1, 393368, Control_c, 0, 64, 53
1, 393378, Note_off_c, 0, 33, 37
1, 393382, Control_c, 0, 64, 55
1, 393397, Control_c, 0, 64, 57
1, 393412, Control_c, 0, 64, 59
1, 393427, Control_c, 0, 64, 60
1, 393442, Control_c, 0, 64, 61
1, 393444, Note_off_c, 0, 69, 40
1, 393456, Control_c, 0, 64, 62
1, 393471, Control_c, 0, 64, 62
1, 393486, Control_c, 0, 64, 63
1, 393529, Note_on_c, 0, 33, 34
1, 393537, Note_off_c, 0, 28, 39
1, 393627, Control_c, 0, 64, 62
1, 393656, Control_c, 0, 64, 62
1, 393671, Control_c, 0, 64, 61
1, 393684, Note_on_c, 0, 28, 38
1, 393686, Control_c, 0, 64, 60
1, 393701, Control_c, 0, 64, 59
1, 393715, Control_c, 0, 64, 57
1, 393722, Note_on_c, 0, 68, 44
1, 393730, Control_c, 0, 64, 55
1, 393745, Control_c, 0, 64, 52
1, 393757, Note_off_c, 0, 32, 30
1, 393760, Control_c, 0, 64, 49
1, 393764, Note_off_c, 0, 33, 41
1, 393775, Control_c, 0, 64, 46
1, 393789, Control_c, 0, 64, 44
1, 393804, Control_c, 0, 64, 42
1, 393819, Control_c, 0, 64, 41
1, 393834, Control_c, 0, 64, 39
1, 393849, Control_c, 0, 64, 38
1, 393864, Control_c, 0, 64, 37
1, 393879, Control_c, 0, 64, 35
1, 393893, Control_c, 0, 64, 34
1, 393900, Note_on_c, 0, 33, 33
1, 393908, Control_c, 0, 64, 32
1, 393923, Control_c, 0, 64, 31
1, 393938, Control_c, 0, 64, 31
1, 393953, Control_c, 0, 64, 30
1, 393968, Control_c, 0, 64, 29
1, 393982, Control_c, 0, 64, 28
1, 393997, Control_c, 0, 64, 28
1, 394013, Control_c, 0, 64, 27
1, 394028, Control_c, 0, 64, 26
1, 394043, Control_c, 0, 64, 26
1, 394057, Control_c, 0, 64, 25
1, 394072, Control_c, 0, 64, 25
1, 394087, Control_c, 0, 64, 24
1, 394096, Note_on_c, 0, 74, 28
1, 394102, Note_on_c, 0, 32, 26
1, 394105, Note_off_c, 0, 33, 45
1, 394117, Control_c, 0, 64, 24
1, 394131, Control_c, 0, 64, 23
1, 394146, Control_c, 0, 64, 22
1, 394161, Control_c, 0, 64, 22
1, 394176, Control_c, 0, 64, 21
1, 394191, Control_c, 0, 64, 21
1, 394205, Control_c, 0, 64, 20
1, 394220, Control_c, 0, 64, 20
1, 394250, Control_c, 0, 64, 19
1, 394264, Control_c, 0, 64, 19
1, 394291, Note_off_c, 0, 74, 36
1, 394294, Control_c, 0, 64, 18
1, 394300, Note_on_c, 0, 73, 45
1, 394305, Note_on_c, 0, 33, 29
1, 394309, Control_c, 0, 64, 18
1, 394320, Note_off_c, 0, 32, 39
1, 394361, Control_c, 0, 64, 17
1, 394376, Control_c, 0, 64, 17
1, 394406, Control_c, 0, 64, 16
1, 394435, Control_c, 0, 64, 16
1, 394464, Control_c, 0, 64, 15
1, 394494, Control_c, 0, 64, 15
1, 394524, Control_c, 0, 64, 14
1, 394566, Note_on_c, 0, 32, 30
1, 394566, Note_on_c, 0, 71, 40
1, 394568, Control_c, 0, 64, 14
1, 394612, Note_off_c, 0, 73, 30
1, 394612, Control_c, 0, 64, 13
1, 394636, Note_off_c, 0, 33, 45
1, 394642, Control_c, 0, 64, 13
1, 394657, Control_c, 0, 64, 12
1, 394716, Control_c, 0, 64, 12
1, 394731, Control_c, 0, 64, 11
1, 394746, Control_c, 0, 64, 11
1, 394790, Control_c, 0, 64, 10
1, 394850, Note_on_c, 0, 73, 38
1, 394850, Control_c, 0, 64, 10
1, 394866, Note_on_c, 0, 33, 24
1, 394923, Note_off_c, 0, 73, 0
1, 394923, Note_on_c, 0, 73, 3
1, 394950, Note_off_c, 0, 71, 45
1, 394954, Control_c, 0, 64, 9
1, 394964, Note_off_c, 0, 32, 40
1, 395014, Control_c, 0, 64, 9
1, 395073, Control_c, 0, 64, 8
1, 395199, Control_c, 0, 64, 8
1, 395228, Note_on_c, 0, 32, 8
1, 395228, Note_on_c, 0, 74, 34
1, 395294, Note_off_c, 0, 73, 48
1, 395302, Control_c, 0, 64, 0
1, 395844, Note_on_c, 0, 76, 32
1, 395960, Note_off_c, 0, 74, 42
1, 396006, Control_c, 0, 64, 19
1, 396021, Control_c, 0, 64, 27
1, 396035, Control_c, 0, 64, 34
1, 396050, Control_c, 0, 64, 40
1, 396065, Control_c, 0, 64, 47
1, 396080, Control_c, 0, 64, 53
1, 396095, Control_c, 0, 64, 57
1, 396109, Control_c, 0, 64, 60
1, 396124, Control_c, 0, 64, 61
1, 396139, Control_c, 0, 64, 62
1, 396154, Control_c, 0, 64, 64
1, 396169, Control_c, 0, 64, 65
1, 396183, Control_c, 0, 64, 66
1, 396198, Control_c, 0, 64, 67
1, 396228, Control_c, 0, 64, 68
1, 396236, Note_off_c, 0, 76, 45
1, 396242, Control_c, 0, 64, 68
1, 396257, Control_c, 0, 64, 69
1, 396272, Control_c, 0, 64, 69
1, 396287, Control_c, 0, 64, 70
1, 396302, Control_c, 0, 64, 70
1, 396481, Control_c, 0, 64, 71
1, 396496, Control_c, 0, 64, 71
1, 396511, Control_c, 0, 64, 72
1, 396523, Note_off_c, 0, 28, 15
1, 396525, Control_c, 0, 64, 74
1, 396540, Control_c, 0, 64, 74
1, 396540, Control_c, 0, 67, 119
1, 396555, Control_c, 0, 64, 75
1, 396555, Control_c, 0, 67, 71
1, 396555, Note_off_c, 0, 32, 39
1, 396570, Control_c, 0, 67, 34
1, 396571, Note_off_c, 0, 33, 39
1, 396583, Note_off_c, 0, 68, 39
1, 396592, Control_c, 0, 67, 9
1, 396606, Control_c, 0, 67, 0
1, 396651, Control_c, 0, 64, 76
1, 396785, Control_c, 0, 64, 76
1, 396799, Control_c, 0, 64, 78
1, 396814, Control_c, 0, 64, 81
1, 396829, Control_c, 0, 64, 85
1, 396844, Control_c, 0, 64, 88
1, 396858, Control_c, 0, 64, 85
1, 396868, Note_on_c, 0, 69, 97
1, 396871, Note_on_c, 0, 61, 93
1, 396871, Note_on_c, 0, 64, 83
1, 396873, Control_c, 0, 64, 69
1, 396874, Note_on_c, 0, 45, 91
1, 396880, Note_on_c, 0, 33, 84
1, 396888, Control_c, 0, 64, 54
1, 396896, Note_off_c, 0, 64, 68
1, 396901, Note_off_c, 0, 61, 68
1, 396903, Control_c, 0, 64, 0
1, 396911, Note_off_c, 0, 33, 70
1, 396911, Note_off_c, 0, 69, 66
1, 396913, Note_off_c, 0, 45, 66
1, 397034, Note_on_c, 0, 33, 72
1, 397034, Note_on_c, 0, 45, 70
1, 397042, Note_on_c, 0, 69, 63
1, 397044, Note_on_c, 0, 64, 59
1, 397044, Note_on_c, 0, 73, 67
1, 397046, Note_on_c, 0, 40, 57
1, 397050, Note_on_c, 0, 37, 41
1, 397061, Note_off_c, 0, 45, 64
1, 397061, Note_off_c, 0, 69, 66
1, 397063, Note_off_c, 0, 73, 63
1, 397064, Note_off_c, 0, 33, 64
1, 397065, Note_off_c, 0, 64, 62
1, 397075, Note_off_c, 0, 40, 58
1, 397080, Note_off_c, 0, 37, 57
1, 397197, Note_on_c, 0, 37, 65
1, 397198, Note_on_c, 0, 45, 81
1, 397199, Note_on_c, 0, 40, 64
1, 397200, Note_on_c, 0, 76, 91
1, 397205, Note_on_c, 0, 69, 75
1, 397206, Note_on_c, 0, 33, 65
1, 397212, Note_on_c, 0, 73, 61
1, 397229, Note_off_c, 0, 45, 66
1, 397229, Note_off_c, 0, 69, 66
1, 397232, Note_off_c, 0, 40, 62
1, 397235, Note_off_c, 0, 73, 68
1, 397239, Note_off_c, 0, 37, 62
1, 397240, Note_off_c, 0, 33, 64
1, 397242, Note_off_c, 0, 76, 67
1, 397364, Note_on_c, 0, 81, 97
1, 397366, Note_on_c, 0, 45, 94
1, 397367, Note_on_c, 0, 40, 76
1, 397367, Note_on_c, 0, 69, 86
1, 397369, Note_on_c, 0, 33, 81
1, 397369, Note_on_c, 0, 37, 75
1, 397370, Note_on_c, 0, 73, 81
1, 397384, Note_off_c, 0, 69, 75
1, 397387, Note_off_c, 0, 73, 72
1, 397392, Note_off_c, 0, 45, 68
1, 397393, Note_off_c, 0, 40, 68
1, 397394, Note_off_c, 0, 37, 66
1, 397395, Note_off_c, 0, 33, 67
1, 397401, Note_off_c, 0, 81, 54
1, 397535, Note_on_c, 0, 80, 79
1, 397541, Note_on_c, 0, 75, 81
1, 397542, Note_on_c, 0, 45, 93
1, 397542, Note_on_c, 0, 40, 82
1, 397544, Note_on_c, 0, 33, 77
1, 397546, Note_on_c, 0, 37, 74
1, 397548, Note_on_c, 0, 73, 100
1, 397554, Note_on_c, 0, 84, 82
1, 397558, Note_off_c, 0, 75, 67
1, 397565, Note_on_c, 0, 76, 70
1, 397566, Note_off_c, 0, 73, 68
1, 397570, Note_off_c, 0, 80, 66
1, 397572, Note_off_c, 0, 84, 71
1, 397575, Note_off_c, 0, 40, 68
1, 397577, Note_off_c, 0, 37, 68
1, 397578, Note_off_c, 0, 45, 65
1, 397578, Note_off_c, 0, 33, 68
1, 397581, Note_off_c, 0, 76, 68
1, 397889, Note_on_c, 0, 88, 104
1, 397892, Note_on_c, 0, 76, 98
1, 397893, Note_on_c, 0, 45, 98
1, 397893, Note_on_c, 0, 81, 97
1, 397893, Note_on_c, 0, 85, 96
1, 397897, Note_on_c, 0, 40, 91
1, 397897, Note_on_c, 0, 33, 80
1, 397900, Note_on_c, 0, 37, 79
1, 397918, Note_off_c, 0, 45, 70
1, 397920, Note_off_c, 0, 37, 68
1, 397920, Note_off_c, 0, 76, 73
1, 397921, Note_off_c, 0, 81, 70
1, 397924, Note_off_c, 0, 40, 70
1, 397925, Note_off_c, 0, 85, 65
1, 397927, Note_off_c, 0, 33, 66
1, 397927, Note_off_c, 0, 88, 69
1, 398272, Note_on_c, 0, 93, 103
1, 398273, Note_on_c, 0, 81, 103
1, 398274, Note_on_c, 0, 85, 94
1, 398275, Note_on_c, 0, 45, 97
1, 398275, Note_on_c, 0, 37, 75
1, 398276, Note_on_c, 0, 88, 94
1, 398277, Note_on_c, 0, 33, 81
1, 398280, Note_on_c, 0, 40, 86
1, 398297, Note_off_c, 0, 93, 71
1, 398297, Control_c, 0, 64, 44
1, 398298, Note_off_c, 0, 33, 69
1, 398298, Note_off_c, 0, 81, 71
1, 398301, Note_off_c, 0, 88, 73
1, 398303, Note_off_c, 0, 85, 68
1, 398307, Note_off_c, 0, 40, 66
1, 398308, Note_off_c, 0, 37, 64
1, 398311, Control_c, 0, 64, 65
1, 398312, Note_off_c, 0, 45, 66
1, 398326, Control_c, 0, 64, 127
1, 398682, Control_c, 0, 64, 59
1, 398696, Control_c, 0, 64, 0
1, 398771, End_track
0, 0, End_of_file
