0, 0, Header, 0, 1, 384
1, 0, Start_track
1, 0, Title_t, "Etude Op. 25/6--Charlie Albright"
1, 0, Text_t, "2009 Piano-e-Competition audition round"
1, 0, Text_t, "captured January 2009"
1, 0, Text_t, "http://www.piano-e-competition.com/"
1, 0, Text_t, "File processed for distribution by software from Zenph Studios, Inc., http://www.zenph.com"
1, 0, Instrument_name_t, "Yamaha Disklavier Pro Mark IV concert grand piano, model DCFIIISM4PRO"
1, 0, Sequencer_specific, 39, 67, 113, 0, 1, 0, 1, 0, 69, 116, 117, 100, 101, 32, 79, 112, 46, 32, 50, 53, 47, 54, 32, 32, 67, 104, 97, 114, 108, 105, 101, 32, 65, 108, 98, 114, 105, 103, 104, 116
1, 0, Sequencer_specific, 6, 67, 113, 0, 0, 0, 69
1, 0, System_exclusive, 21, 67, 113, 126, 21, 0, 2, 2, 0, 3, 14, 1, 4, 1, 13, 13, 10, 11, 9, 2, 7, 247
1, 0, Sequencer_specific, 5, 67, 123, 12, 2, 1
1, 0, Tempo, 512820
1, 0, Time_signature, 4, 2, 24, 8
1, 0, System_exclusive, 5, 126, 127, 9, 1, 247
1, 1, System_exclusive, 8, 67, 16, 76, 0, 0, 126, 0, 247
1, 2, System_exclusive, 8, 67, 16, 76, 8, 9, 7, 1, 247
1, 3, Control_c, 0, 0, 0
1, 3, Control_c, 1, 0, 0
1, 3, Control_c, 2, 0, 0
1, 3, Control_c, 3, 0, 0
1, 3, Control_c, 4, 0, 0
1, 3, Control_c, 5, 0, 0
1, 3, Control_c, 6, 0, 0
1, 3, Control_c, 7, 0, 0
1, 3, Control_c, 8, 0, 0
1, 3, Control_c, 9, 0, 127
1, 3, Control_c, 10, 0, 0
1, 3, Control_c, 11, 0, 0
1, 3, Control_c, 12, 0, 0
1, 3, Control_c, 13, 0, 0
1, 3, Control_c, 14, 0, 0
1, 3, Control_c, 15, 0, 0
1, 4, Control_c, 0, 32, 0
1, 4, Control_c, 1, 32, 0
1, 4, Control_c, 2, 32, 0
1, 4, Control_c, 3, 32, 0
1, 4, Control_c, 4, 32, 0
1, 4, Control_c, 5, 32, 0
1, 4, Control_c, 6, 32, 0
1, 4, Control_c, 7, 32, 0
1, 4, Control_c, 8, 32, 0
1, 4, Control_c, 9, 32, 0
1, 4, Control_c, 10, 32, 0
1, 4, Control_c, 11, 32, 0
1, 4, Control_c, 12, 32, 0
1, 4, Control_c, 13, 32, 0
1, 4, Control_c, 14, 32, 0
1, 4, Control_c, 15, 32, 0
1, 5, Program_c, 0, 0
1, 5, Program_c, 1, 0
1, 5, Program_c, 2, 0
1, 5, Program_c, 3, 0
1, 5, Program_c, 4, 0
1, 5, Program_c, 5, 0
1, 5, Program_c, 6, 0
1, 5, Program_c, 7, 0
1, 5, Program_c, 8, 0
1, 5, Program_c, 9, 0
1, 5, Program_c, 10, 0
1, 5, Program_c, 11, 0
1, 5, Program_c, 12, 0
1, 5, Program_c, 13, 0
1, 5, Program_c, 14, 0
1, 5, Program_c, 15, 0
1, 6, Control_c, 0, 7, 100
1, 6, Control_c, 1, 7, 100
1, 6, Control_c, 2, 7, 100
1, 6, Control_c, 3, 7, 100
1, 6, Control_c, 4, 7, 100
1, 6, Control_c, 5, 7, 100
1, 6, Control_c, 6, 7, 100
1, 6, Control_c, 7, 7, 100
1, 6, Control_c, 8, 7, 100
1, 6, Control_c, 9, 7, 100
1, 6, Control_c, 10, 7, 100
1, 6, Control_c, 11, 7, 100
1, 6, Control_c, 12, 7, 100
1, 6, Control_c, 13, 7, 100
1, 6, Control_c, 14, 7, 100
1, 6, Control_c, 15, 7, 100
1, 117, Control_c, 0, 64, 8
1, 117, Control_c, 0, 67, 15
1, 229, Control_c, 0, 64, 16
1, 229, Control_c, 0, 67, 31
1, 341, Control_c, 0, 64, 24
1, 341, Control_c, 0, 67, 46
1, 452, Control_c, 0, 64, 33
1, 452, Control_c, 0, 67, 63
1, 564, Control_c, 0, 64, 40
1, 564, Control_c, 0, 67, 77
1, 676, Control_c, 0, 64, 49
1, 676, Control_c, 0, 67, 94
1, 787, Control_c, 0, 64, 56
1, 787, Control_c, 0, 67, 108
1, 899, Control_c, 0, 64, 67
1, 899, Control_c, 0, 67, 127
1, 1146, Note_on_c, 0, 71, 20
1, 1149, Note_on_c, 0, 75, 12
1, 1323, Note_off_c, 0, 71, 46
1, 1331, Control_c, 0, 64, 67
1, 1341, Note_off_c, 0, 75, 36
1, 1368, Note_on_c, 0, 76, 26
1, 1382, Note_on_c, 0, 73, 13
1, 1453, Note_off_c, 0, 76, 39
1, 1465, Control_c, 0, 64, 68
1, 1480, Note_off_c, 0, 73, 46
1, 1519, Note_on_c, 0, 71, 13
1, 1541, Poly_aftertouch_c, 0, 75, 127
1, 1561, Note_off_c, 0, 71, 49
1, 1569, Control_c, 0, 64, 68
1, 1581, Poly_aftertouch_c, 0, 75, 0
1, 1592, Note_on_c, 0, 73, 41
1, 1599, Note_on_c, 0, 76, 26
1, 1642, Note_off_c, 0, 73, 56
1, 1650, Note_off_c, 0, 76, 45
1, 1694, Note_on_c, 0, 71, 29
1, 1762, Note_off_c, 0, 71, 41
1, 1769, Note_on_c, 0, 73, 40
1, 1776, Poly_aftertouch_c, 0, 75, 0
1, 1780, Note_on_c, 0, 76, 29
1, 1817, Note_off_c, 0, 73, 54
1, 1817, Note_off_c, 0, 76, 52
1, 1861, Note_on_c, 0, 71, 34
1, 1873, Control_c, 0, 64, 69
1, 1882, Poly_aftertouch_c, 0, 75, 127
1, 1899, Note_off_c, 0, 71, 52
1, 1924, Poly_aftertouch_c, 0, 75, 0
1, 1933, Note_on_c, 0, 76, 27
1, 1933, Note_on_c, 0, 73, 46
1, 1962, Note_off_c, 0, 73, 59
1, 1968, Note_off_c, 0, 76, 54
1, 2005, Note_on_c, 0, 71, 46
1, 2032, Note_off_c, 0, 71, 58
1, 2036, Control_c, 0, 64, 69
1, 2040, Note_on_c, 0, 73, 60
1, 2072, Note_on_c, 0, 76, 36
1, 2093, Note_off_c, 0, 73, 60
1, 2103, Note_off_c, 0, 76, 55
1, 2124, Note_on_c, 0, 71, 50
1, 2130, Note_on_c, 0, 75, 44
1, 2159, Note_off_c, 0, 75, 54
1, 2163, Note_off_c, 0, 71, 55
1, 2192, Note_on_c, 0, 73, 50
1, 2207, Note_on_c, 0, 76, 37
1, 2227, Note_off_c, 0, 73, 57
1, 2238, Note_off_c, 0, 76, 57
1, 2258, Note_on_c, 0, 75, 52
1, 2266, Note_on_c, 0, 71, 51
1, 2289, Note_off_c, 0, 75, 55
1, 2297, Note_off_c, 0, 71, 57
1, 2310, Note_on_c, 0, 73, 58
1, 2335, Note_on_c, 0, 76, 45
1, 2349, Note_off_c, 0, 73, 59
1, 2371, Note_off_c, 0, 76, 53
1, 2377, Control_c, 0, 64, 70
1, 2387, Note_on_c, 0, 75, 53
1, 2401, Note_on_c, 0, 71, 45
1, 2414, Note_off_c, 0, 75, 59
1, 2433, Note_off_c, 0, 71, 60
1, 2452, Note_on_c, 0, 73, 59
1, 2487, Note_on_c, 0, 76, 45
1, 2488, Note_off_c, 0, 73, 59
1, 2511, Note_off_c, 0, 76, 59
1, 2517, Note_on_c, 0, 71, 55
1, 2519, Note_on_c, 0, 75, 57
1, 2555, Note_off_c, 0, 75, 62
1, 2564, Note_off_c, 0, 71, 61
1, 2580, Note_on_c, 0, 73, 61
1, 2628, Note_on_c, 0, 76, 13
1, 2631, Note_off_c, 0, 73, 62
1, 2652, Note_on_c, 0, 75, 57
1, 2668, Note_on_c, 0, 71, 48
1, 2670, Note_off_c, 0, 76, 54
1, 2678, Note_off_c, 0, 75, 56
1, 2704, Note_off_c, 0, 71, 55
1, 2713, Note_on_c, 0, 73, 55
1, 2748, Note_on_c, 0, 76, 36
1, 2752, Note_off_c, 0, 73, 64
1, 2772, Note_on_c, 0, 75, 58
1, 2777, Note_off_c, 0, 76, 55
1, 2797, Note_on_c, 0, 71, 43
1, 2815, Note_off_c, 0, 75, 60
1, 2825, Note_off_c, 0, 71, 58
1, 2842, Note_on_c, 0, 73, 60
1, 2878, Note_off_c, 0, 73, 61
1, 2923, Note_on_c, 0, 75, 46
1, 2929, Note_on_c, 0, 71, 42
1, 2947, Poly_aftertouch_c, 0, 76, 0
1, 2956, Note_off_c, 0, 75, 54
1, 2962, Note_off_c, 0, 71, 53
1, 2985, Note_on_c, 0, 73, 58
1, 3024, Note_off_c, 0, 73, 59
1, 3047, Poly_aftertouch_c, 0, 76, 127
1, 3066, Note_on_c, 0, 75, 46
1, 3087, Note_on_c, 0, 71, 38
1, 3087, Poly_aftertouch_c, 0, 76, 0
1, 3122, Note_off_c, 0, 71, 53
1, 3126, Note_off_c, 0, 75, 48
1, 3134, Note_on_c, 0, 73, 57
1, 3186, Note_off_c, 0, 73, 57
1, 3190, Poly_aftertouch_c, 0, 76, 127
1, 3233, Poly_aftertouch_c, 0, 76, 0
1, 3239, Note_on_c, 0, 71, 35
1, 3259, Note_on_c, 0, 75, 32
1, 3280, Note_off_c, 0, 71, 50
1, 3292, Note_off_c, 0, 75, 52
1, 3311, Note_on_c, 0, 73, 43
1, 3361, Note_off_c, 0, 73, 55
1, 3361, Poly_aftertouch_c, 0, 76, 127
1, 3392, Note_on_c, 0, 75, 49
1, 3400, Note_on_c, 0, 71, 37
1, 3409, Poly_aftertouch_c, 0, 76, 0
1, 3456, Note_off_c, 0, 75, 46
1, 3469, Note_off_c, 0, 71, 42
1, 3498, Note_on_c, 0, 73, 32
1, 3522, Note_on_c, 0, 76, 34
1, 3565, Note_off_c, 0, 76, 47
1, 3602, Note_off_c, 0, 73, 41
1, 3620, Note_on_c, 0, 71, 34
1, 3620, Note_on_c, 0, 75, 28
1, 3670, Note_off_c, 0, 71, 47
1, 3708, Note_on_c, 0, 76, 36
1, 3713, Note_off_c, 0, 75, 36
1, 3715, Note_on_c, 0, 73, 33
1, 3741, Control_c, 0, 64, 69
1, 3785, Control_c, 0, 64, 69
1, 3801, Control_c, 0, 64, 68
1, 3816, Control_c, 0, 64, 68
1, 3831, Control_c, 0, 64, 67
1, 3845, Control_c, 0, 64, 66
1, 3860, Note_on_c, 0, 44, 32
1, 3860, Control_c, 0, 64, 66
1, 3875, Control_c, 0, 64, 65
1, 3885, Note_off_c, 0, 76, 43
1, 3890, Control_c, 0, 64, 64
1, 3905, Control_c, 0, 64, 62
1, 3927, Control_c, 0, 64, 60
1, 3933, Note_off_c, 0, 73, 46
1, 3942, Control_c, 0, 64, 56
1, 3957, Control_c, 0, 64, 50
1, 3972, Control_c, 0, 64, 41
1, 3980, Note_on_c, 0, 75, 12
1, 3986, Note_on_c, 0, 71, 17
1, 3986, Control_c, 0, 64, 28
1, 4001, Control_c, 0, 64, 0
1, 4057, Note_off_c, 0, 75, 54
1, 4087, Note_off_c, 0, 71, 48
1, 4105, Control_c, 0, 64, 14
1, 4109, Note_on_c, 0, 73, 31
1, 4120, Control_c, 0, 64, 24
1, 4134, Control_c, 0, 64, 32
1, 4139, Poly_aftertouch_c, 0, 76, 127
1, 4149, Control_c, 0, 64, 38
1, 4164, Control_c, 0, 64, 46
1, 4178, Control_c, 0, 64, 53
1, 4187, Poly_aftertouch_c, 0, 76, 0
1, 4191, Note_off_c, 0, 73, 48
1, 4193, Control_c, 0, 64, 59
1, 4206, Note_on_c, 0, 75, 41
1, 4208, Control_c, 0, 64, 63
1, 4217, Note_on_c, 0, 71, 33
1, 4219, Note_on_c, 0, 51, 43
1, 4223, Control_c, 0, 64, 64
1, 4238, Control_c, 0, 64, 65
1, 4252, Note_off_c, 0, 44, 51
1, 4304, Note_on_c, 0, 73, 49
1, 4313, Note_off_c, 0, 75, 31
1, 4318, Note_off_c, 0, 71, 47
1, 4325, Note_on_c, 0, 76, 19
1, 4342, Control_c, 0, 64, 66
1, 4369, Note_off_c, 0, 76, 51
1, 4374, Note_off_c, 0, 73, 51
1, 4407, Note_off_c, 0, 51, 55
1, 4412, Note_on_c, 0, 59, 43
1, 4443, Note_on_c, 0, 71, 32
1, 4447, Poly_aftertouch_c, 0, 75, 127
1, 4474, Note_off_c, 0, 71, 54
1, 4484, Poly_aftertouch_c, 0, 75, 0
1, 4488, Note_off_c, 0, 59, 61
1, 4494, Note_on_c, 0, 76, 29
1, 4504, Note_on_c, 0, 73, 35
1, 4540, Note_off_c, 0, 73, 55
1, 4547, Note_off_c, 0, 76, 46
1, 4574, Note_on_c, 0, 71, 38
1, 4575, Note_on_c, 0, 43, 53
1, 4584, Note_on_c, 0, 75, 41
1, 4594, Control_c, 0, 64, 65
1, 4618, Note_off_c, 0, 75, 55
1, 4643, Note_off_c, 0, 71, 42
1, 4649, Note_on_c, 0, 73, 49
1, 4654, Control_c, 0, 64, 65
1, 4667, Note_on_c, 0, 76, 37
1, 4676, Control_c, 0, 64, 64
1, 4690, Control_c, 0, 64, 63
1, 4705, Control_c, 0, 64, 62
1, 4714, Note_off_c, 0, 73, 59
1, 4717, Note_off_c, 0, 76, 49
1, 4720, Control_c, 0, 64, 59
1, 4735, Control_c, 0, 64, 56
1, 4742, Note_on_c, 0, 75, 43
1, 4750, Note_on_c, 0, 44, 53
1, 4750, Control_c, 0, 64, 50
1, 4765, Control_c, 0, 64, 40
1, 4769, Note_on_c, 0, 71, 41
1, 4780, Control_c, 0, 64, 22
1, 4787, Note_off_c, 0, 75, 44
1, 4788, Note_off_c, 0, 43, 37
1, 4795, Control_c, 0, 64, 0
1, 4801, Note_off_c, 0, 71, 59
1, 4834, Note_on_c, 0, 76, 26
1, 4835, Note_on_c, 0, 73, 49
1, 4868, Note_off_c, 0, 76, 54
1, 4869, Note_off_c, 0, 73, 61
1, 4869, Control_c, 0, 64, 15
1, 4883, Control_c, 0, 64, 25
1, 4895, Note_on_c, 0, 75, 50
1, 4898, Control_c, 0, 64, 32
1, 4902, Note_on_c, 0, 71, 46
1, 4913, Control_c, 0, 64, 39
1, 4925, Note_on_c, 0, 51, 51
1, 4928, Control_c, 0, 64, 46
1, 4932, Note_off_c, 0, 44, 58
1, 4935, Note_off_c, 0, 75, 55
1, 4943, Control_c, 0, 64, 52
1, 4949, Note_off_c, 0, 71, 60
1, 4957, Control_c, 0, 64, 57
1, 4961, Note_on_c, 0, 73, 59
1, 4964, Note_on_c, 0, 76, 46
1, 4972, Control_c, 0, 64, 61
1, 4987, Control_c, 0, 64, 62
1, 5001, Control_c, 0, 64, 63
1, 5019, Note_off_c, 0, 76, 50
1, 5021, Note_off_c, 0, 73, 60
1, 5045, Note_on_c, 0, 75, 56
1, 5059, Note_on_c, 0, 59, 57
1, 5061, Control_c, 0, 64, 63
1, 5071, Note_on_c, 0, 71, 42
1, 5075, Control_c, 0, 64, 64
1, 5080, Note_off_c, 0, 59, 61
1, 5080, Note_off_c, 0, 75, 50
1, 5096, Note_off_c, 0, 51, 62
1, 5102, Note_off_c, 0, 71, 55
1, 5105, Control_c, 0, 64, 64
1, 5138, Note_on_c, 0, 73, 49
1, 5140, Note_on_c, 0, 76, 37
1, 5176, Note_off_c, 0, 76, 51
1, 5177, Note_off_c, 0, 73, 56
1, 5196, Note_on_c, 0, 71, 51
1, 5209, Control_c, 0, 64, 65
1, 5216, Note_on_c, 0, 75, 46
1, 5220, Note_on_c, 0, 39, 44
1, 5257, Note_off_c, 0, 75, 50
1, 5266, Note_off_c, 0, 71, 60
1, 5275, Note_on_c, 0, 76, 54
1, 5281, Note_on_c, 0, 73, 56
1, 5313, Control_c, 0, 64, 64
1, 5321, Note_off_c, 0, 76, 57
1, 5325, Note_off_c, 0, 73, 58
1, 5327, Control_c, 0, 64, 63
1, 5342, Control_c, 0, 64, 61
1, 5351, Note_on_c, 0, 44, 61
1, 5356, Note_on_c, 0, 75, 57
1, 5357, Control_c, 0, 64, 55
1, 5358, Note_off_c, 0, 39, 59
1, 5364, Note_on_c, 0, 71, 52
1, 5372, Control_c, 0, 64, 45
1, 5387, Control_c, 0, 64, 32
1, 5398, Note_off_c, 0, 75, 49
1, 5400, Note_off_c, 0, 71, 64
1, 5403, Control_c, 0, 64, 22
1, 5424, Control_c, 0, 64, 21
1, 5438, Note_on_c, 0, 73, 62
1, 5439, Control_c, 0, 64, 25
1, 5450, Note_on_c, 0, 76, 34
1, 5454, Control_c, 0, 64, 31
1, 5469, Control_c, 0, 64, 37
1, 5484, Control_c, 0, 64, 42
1, 5495, Note_off_c, 0, 76, 46
1, 5497, Note_off_c, 0, 73, 64
1, 5498, Control_c, 0, 64, 48
1, 5506, Note_on_c, 0, 51, 60
1, 5509, Note_on_c, 0, 71, 57
1, 5510, Note_on_c, 0, 75, 61
1, 5513, Control_c, 0, 64, 52
1, 5528, Control_c, 0, 64, 55
1, 5530, Note_off_c, 0, 44, 58
1, 5543, Control_c, 0, 64, 58
1, 5552, Note_off_c, 0, 75, 57
1, 5558, Control_c, 0, 64, 59
1, 5564, Note_off_c, 0, 71, 62
1, 5573, Control_c, 0, 64, 59
1, 5576, Note_on_c, 0, 70, 63
1, 5578, Note_on_c, 0, 74, 53
1, 5588, Control_c, 0, 64, 60
1, 5603, Note_off_c, 0, 51, 64
1, 5622, Note_off_c, 0, 70, 59
1, 5623, Note_off_c, 0, 74, 51
1, 5635, Note_on_c, 0, 59, 64
1, 5647, Control_c, 0, 64, 60
1, 5649, Note_on_c, 0, 71, 62
1, 5660, Note_on_c, 0, 75, 65
1, 5667, Note_off_c, 0, 59, 64
1, 5677, Control_c, 0, 64, 60
1, 5683, Note_off_c, 0, 71, 62
1, 5706, Control_c, 0, 64, 59
1, 5716, Note_off_c, 0, 75, 62
1, 5719, Note_on_c, 0, 73, 68
1, 5721, Control_c, 0, 64, 58
1, 5736, Control_c, 0, 64, 56
1, 5737, Note_on_c, 0, 76, 48
1, 5750, Control_c, 0, 64, 54
1, 5765, Control_c, 0, 64, 50
1, 5774, Note_off_c, 0, 73, 64
1, 5780, Control_c, 0, 64, 45
1, 5782, Note_on_c, 0, 75, 56
1, 5785, Note_on_c, 0, 71, 61
1, 5790, Note_on_c, 0, 49, 56
1, 5795, Control_c, 0, 64, 41
1, 5805, Note_off_c, 0, 76, 40
1, 5810, Control_c, 0, 64, 38
1, 5824, Control_c, 0, 64, 35
1, 5838, Note_off_c, 0, 71, 64
1, 5839, Note_on_c, 0, 74, 65
1, 5839, Control_c, 0, 64, 33
1, 5843, Note_off_c, 0, 75, 62
1, 5850, Note_on_c, 0, 70, 68
1, 5854, Control_c, 0, 64, 30
1, 5869, Control_c, 0, 64, 24
1, 5884, Control_c, 0, 64, 14
1, 5898, Control_c, 0, 64, 0
1, 5904, Note_off_c, 0, 49, 54
1, 5906, Note_off_c, 0, 70, 62
1, 5915, Note_on_c, 0, 71, 66
1, 5921, Note_off_c, 0, 74, 61
1, 5922, Note_on_c, 0, 75, 59
1, 5934, Note_on_c, 0, 47, 62
1, 5964, Note_off_c, 0, 71, 63
1, 5995, Note_on_c, 0, 73, 73
1, 5997, Note_on_c, 0, 76, 56
1, 6038, Note_off_c, 0, 75, 0
1, 6047, Note_off_c, 0, 73, 64
1, 6052, Note_on_c, 0, 75, 46
1, 6065, Note_on_c, 0, 71, 57
1, 6076, Control_c, 0, 64, 12
1, 6079, Note_on_c, 0, 51, 63
1, 6087, Note_off_c, 0, 76, 47
1, 6091, Control_c, 0, 64, 20
1, 6105, Control_c, 0, 64, 30
1, 6112, Note_off_c, 0, 75, 61
1, 6112, Note_on_c, 0, 74, 56
1, 6114, Note_off_c, 0, 71, 65
1, 6120, Control_c, 0, 64, 38
1, 6127, Note_on_c, 0, 70, 65
1, 6135, Control_c, 0, 64, 46
1, 6149, Control_c, 0, 64, 53
1, 6164, Control_c, 0, 64, 58
1, 6176, Note_off_c, 0, 47, 33
1, 6187, Control_c, 0, 64, 61
1, 6191, Note_off_c, 0, 70, 61
1, 6202, Control_c, 0, 64, 62
1, 6205, Note_on_c, 0, 71, 64
1, 6210, Note_on_c, 0, 59, 67
1, 6211, Note_off_c, 0, 74, 49
1, 6214, Note_on_c, 0, 75, 62
1, 6229, Note_off_c, 0, 59, 64
1, 6232, Control_c, 0, 64, 63
1, 6238, Note_off_c, 0, 51, 64
1, 6244, Note_off_c, 0, 71, 64
1, 6269, Note_off_c, 0, 75, 61
1, 6272, Note_on_c, 0, 73, 67
1, 6311, Note_off_c, 0, 73, 56
1, 6338, Note_on_c, 0, 39, 62
1, 6348, Note_on_c, 0, 74, 49
1, 6357, Note_on_c, 0, 71, 56
1, 6379, Note_off_c, 0, 71, 59
1, 6390, Note_off_c, 0, 39, 58
1, 6395, Control_c, 0, 64, 62
1, 6410, Control_c, 0, 64, 61
1, 6413, Note_on_c, 0, 70, 66
1, 6425, Control_c, 0, 64, 58
1, 6440, Control_c, 0, 64, 49
1, 6454, Control_c, 0, 64, 33
1, 6455, Note_off_c, 0, 74, 35
1, 6469, Control_c, 0, 64, 0
1, 6493, Note_off_c, 0, 70, 61
1, 6514, Note_on_c, 0, 44, 66
1, 6521, Note_on_c, 0, 75, 45
1, 6524, Note_on_c, 0, 71, 53
1, 6528, Control_c, 0, 64, 19
1, 6543, Control_c, 0, 64, 31
1, 6548, Note_off_c, 0, 44, 66
1, 6558, Control_c, 0, 64, 39
1, 6564, Note_off_c, 0, 75, 48
1, 6572, Control_c, 0, 64, 46
1, 6587, Control_c, 0, 64, 54
1, 6592, Note_off_c, 0, 71, 64
1, 6602, Control_c, 0, 64, 58
1, 6617, Control_c, 0, 64, 62
1, 6621, Note_on_c, 0, 76, 45
1, 6625, Note_on_c, 0, 73, 60
1, 6632, Control_c, 0, 64, 63
1, 6646, Control_c, 0, 64, 64
1, 6648, Note_off_c, 0, 76, 57
1, 6661, Control_c, 0, 64, 65
1, 6676, Control_c, 0, 64, 65
1, 6687, Note_off_c, 0, 73, 60
1, 6691, Control_c, 0, 64, 66
1, 6703, Note_on_c, 0, 74, 62
1, 6706, Control_c, 0, 64, 66
1, 6716, Note_on_c, 0, 77, 58
1, 6717, Note_on_c, 0, 68, 74
1, 6720, Control_c, 0, 64, 67
1, 6735, Control_c, 0, 64, 68
1, 6746, Note_off_c, 0, 74, 58
1, 6747, Note_on_c, 0, 63, 46
1, 6750, Note_on_c, 0, 59, 18
1, 6754, Note_off_c, 0, 77, 64
1, 6762, Note_off_c, 0, 68, 52
1, 6765, Control_c, 0, 64, 68
1, 6768, Note_on_c, 0, 78, 62
1, 6776, Note_off_c, 0, 63, 58
1, 6783, Note_on_c, 0, 75, 31
1, 6797, Note_off_c, 0, 59, 52
1, 6810, Control_c, 0, 64, 69
1, 6818, Note_off_c, 0, 75, 54
1, 6819, Note_off_c, 0, 78, 56
1, 6854, Control_c, 0, 67, 126
1, 6858, Note_on_c, 0, 79, 60
1, 6860, Note_on_c, 0, 76, 56
1, 6868, Note_on_c, 0, 68, 74
1, 6869, Control_c, 0, 67, 121
1, 6870, Note_on_c, 0, 63, 68
1, 6881, Note_on_c, 0, 59, 58
1, 6884, Control_c, 0, 67, 117
1, 6898, Control_c, 0, 67, 109
1, 6903, Note_off_c, 0, 68, 58
1, 6910, Note_off_c, 0, 59, 53
1, 6911, Note_off_c, 0, 79, 56
1, 6911, Note_off_c, 0, 63, 62
1, 6912, Note_off_c, 0, 76, 60
1, 6913, Control_c, 0, 67, 102
1, 6935, Control_c, 0, 67, 94
1, 6943, Note_on_c, 0, 80, 67
1, 6947, Note_on_c, 0, 77, 63
1, 6950, Control_c, 0, 67, 87
1, 6965, Control_c, 0, 64, 69
1, 6965, Control_c, 0, 67, 82
1, 6972, Note_off_c, 0, 77, 63
1, 6980, Control_c, 0, 67, 78
1, 6991, Note_off_c, 0, 80, 63
1, 6995, Control_c, 0, 67, 74
1, 7000, Note_on_c, 0, 81, 74
1, 7010, Control_c, 0, 67, 72
1, 7017, Note_on_c, 0, 66, 73
1, 7024, Note_on_c, 0, 78, 64
1, 7025, Control_c, 0, 67, 69
1, 7026, Note_on_c, 0, 63, 69
1, 7030, Note_on_c, 0, 59, 41
1, 7040, Note_off_c, 0, 66, 61
1, 7040, Control_c, 0, 67, 67
1, 7055, Control_c, 0, 67, 64
1, 7057, Note_off_c, 0, 63, 67
1, 7063, Note_off_c, 0, 81, 63
1, 7069, Control_c, 0, 67, 63
1, 7070, Note_off_c, 0, 59, 49
1, 7075, Note_off_c, 0, 78, 65
1, 7084, Control_c, 0, 64, 68
1, 7084, Control_c, 0, 67, 62
1, 7090, Note_on_c, 0, 82, 58
1, 7094, Note_on_c, 0, 79, 65
1, 7099, Control_c, 0, 64, 62
1, 7114, Control_c, 0, 64, 53
1, 7114, Control_c, 0, 67, 61
1, 7129, Control_c, 0, 64, 37
1, 7129, Control_c, 0, 67, 61
1, 7139, Note_off_c, 0, 79, 61
1, 7144, Control_c, 0, 64, 19
1, 7144, Control_c, 0, 67, 60
1, 7147, Note_on_c, 0, 83, 66
1, 7151, Note_on_c, 0, 66, 69
1, 7159, Note_on_c, 0, 63, 64
1, 7159, Control_c, 0, 64, 18
1, 7159, Control_c, 0, 67, 59
1, 7160, Note_on_c, 0, 59, 58
1, 7163, Note_on_c, 0, 80, 67
1, 7174, Control_c, 0, 64, 25
1, 7174, Control_c, 0, 67, 58
1, 7181, Note_off_c, 0, 82, 60
1, 7188, Control_c, 0, 64, 35
1, 7188, Control_c, 0, 67, 55
1, 7193, Note_off_c, 0, 63, 67
1, 7195, Note_off_c, 0, 66, 60
1, 7203, Control_c, 0, 64, 44
1, 7203, Control_c, 0, 67, 52
1, 7218, Control_c, 0, 64, 51
1, 7218, Control_c, 0, 67, 50
1, 7218, Note_off_c, 0, 80, 62
1, 7222, Note_off_c, 0, 59, 60
1, 7224, Note_on_c, 0, 81, 77
1, 7227, Note_on_c, 0, 84, 70
1, 7233, Control_c, 0, 64, 56
1, 7233, Control_c, 0, 67, 49
1, 7243, Note_off_c, 0, 83, 56
1, 7248, Control_c, 0, 64, 58
1, 7248, Control_c, 0, 67, 47
1, 7263, Control_c, 0, 64, 60
1, 7263, Control_c, 0, 67, 44
1, 7268, Note_off_c, 0, 81, 59
1, 7276, Note_off_c, 0, 84, 63
1, 7277, Control_c, 0, 64, 60
1, 7277, Control_c, 0, 67, 40
1, 7281, Note_on_c, 0, 82, 67
1, 7284, Note_on_c, 0, 64, 74
1, 7292, Control_c, 0, 64, 61
1, 7292, Control_c, 0, 67, 35
1, 7296, Note_on_c, 0, 85, 60
1, 7307, Note_on_c, 0, 56, 47
1, 7307, Note_on_c, 0, 59, 37
1, 7307, Control_c, 0, 64, 61
1, 7307, Control_c, 0, 67, 29
1, 7317, Note_off_c, 0, 64, 61
1, 7321, Control_c, 0, 67, 27
1, 7329, Note_off_c, 0, 82, 63
1, 7333, Note_off_c, 0, 85, 66
1, 7336, Note_off_c, 0, 59, 54
1, 7336, Control_c, 0, 64, 62
1, 7336, Control_c, 0, 67, 26
1, 7337, Note_off_c, 0, 56, 61
1, 7347, Note_on_c, 0, 83, 71
1, 7351, Control_c, 0, 64, 62
1, 7351, Control_c, 0, 67, 26
1, 7354, Note_on_c, 0, 86, 68
1, 7366, Control_c, 0, 67, 25
1, 7381, Control_c, 0, 64, 63
1, 7381, Control_c, 0, 67, 25
1, 7398, Note_off_c, 0, 86, 58
1, 7399, Note_off_c, 0, 83, 59
1, 7410, Control_c, 0, 64, 63
1, 7415, Note_on_c, 0, 64, 66
1, 7418, Note_on_c, 0, 59, 60
1, 7422, Note_on_c, 0, 56, 62
1, 7423, Note_on_c, 0, 84, 73
1, 7426, Note_on_c, 0, 87, 72
1, 7442, Note_off_c, 0, 64, 66
1, 7455, Control_c, 0, 64, 64
1, 7463, Note_off_c, 0, 56, 64
1, 7467, Note_off_c, 0, 59, 57
1, 7473, Note_off_c, 0, 84, 64
1, 7484, Note_on_c, 0, 88, 70
1, 7492, Note_on_c, 0, 85, 72
1, 7499, Control_c, 0, 64, 64
1, 7502, Note_off_c, 0, 87, 64
1, 7537, Note_on_c, 0, 63, 80
1, 7543, Note_off_c, 0, 85, 62
1, 7543, Control_c, 0, 67, 25
1, 7549, Note_on_c, 0, 89, 79
1, 7551, Note_on_c, 0, 86, 73
1, 7558, Control_c, 0, 64, 64
1, 7560, Note_on_c, 0, 59, 52
1, 7564, Note_off_c, 0, 63, 65
1, 7572, Note_off_c, 0, 88, 61
1, 7573, Control_c, 0, 67, 26
1, 7579, Note_on_c, 0, 56, 31
1, 7582, Note_off_c, 0, 59, 63
1, 7588, Control_c, 0, 64, 62
1, 7588, Control_c, 0, 67, 27
1, 7598, Note_off_c, 0, 86, 61
1, 7602, Control_c, 0, 64, 57
1, 7602, Control_c, 0, 67, 28
1, 7606, Note_off_c, 0, 89, 65
1, 7614, Note_off_c, 0, 56, 45
1, 7617, Control_c, 0, 64, 47
1, 7617, Control_c, 0, 67, 29
1, 7618, Note_on_c, 0, 87, 68
1, 7621, Note_on_c, 0, 90, 66
1, 7632, Control_c, 0, 64, 23
1, 7647, Control_c, 0, 64, 0
1, 7647, Control_c, 0, 67, 29
1, 7659, Note_off_c, 0, 87, 63
1, 7662, Control_c, 0, 67, 30
1, 7671, Note_off_c, 0, 90, 64
1, 7680, Note_on_c, 0, 88, 72
1, 7684, Note_on_c, 0, 63, 74
1, 7686, Note_on_c, 0, 59, 57
1, 7688, Note_on_c, 0, 91, 79
1, 7695, Note_on_c, 0, 56, 63
1, 7698, Control_c, 0, 67, 31
1, 7710, Note_off_c, 0, 63, 71
1, 7713, Control_c, 0, 64, 23
1, 7713, Control_c, 0, 67, 31
1, 7715, Note_off_c, 0, 59, 64
1, 7724, Note_off_c, 0, 56, 66
1, 7728, Control_c, 0, 64, 32
1, 7728, Control_c, 0, 67, 32
1, 7738, Note_off_c, 0, 88, 62
1, 7743, Control_c, 0, 64, 40
1, 7743, Control_c, 0, 67, 32
1, 7745, Note_off_c, 0, 91, 59
1, 7753, Note_on_c, 0, 92, 82
1, 7758, Control_c, 0, 64, 46
1, 7758, Control_c, 0, 67, 33
1, 7758, Note_on_c, 0, 89, 69
1, 7773, Control_c, 0, 64, 52
1, 7773, Control_c, 0, 67, 34
1, 7787, Note_off_c, 0, 89, 66
1, 7788, Control_c, 0, 64, 56
1, 7788, Control_c, 0, 67, 35
1, 7803, Note_off_c, 0, 92, 67
1, 7803, Control_c, 0, 64, 59
1, 7803, Control_c, 0, 67, 36
1, 7814, Note_on_c, 0, 93, 74
1, 7816, Note_on_c, 0, 56, 62
1, 7818, Control_c, 0, 64, 61
1, 7818, Control_c, 0, 67, 37
1, 7819, Note_on_c, 0, 61, 68
1, 7825, Note_on_c, 0, 90, 75
1, 7830, Note_on_c, 0, 51, 54
1, 7832, Control_c, 0, 64, 62
1, 7832, Control_c, 0, 67, 39
1, 7838, Note_off_c, 0, 61, 69
1, 7844, Note_off_c, 0, 56, 68
1, 7847, Control_c, 0, 67, 43
1, 7860, Note_off_c, 0, 51, 58
1, 7862, Control_c, 0, 67, 50
1, 7874, Note_off_c, 0, 90, 65
1, 7874, Note_off_c, 0, 93, 63
1, 7877, Control_c, 0, 64, 62
1, 7877, Control_c, 0, 67, 59
1, 7879, Note_on_c, 0, 91, 78
1, 7892, Control_c, 0, 64, 60
1, 7892, Control_c, 0, 67, 69
1, 7895, Note_on_c, 0, 94, 69
1, 7907, Control_c, 0, 64, 57
1, 7907, Control_c, 0, 67, 78
1, 7922, Control_c, 0, 64, 49
1, 7922, Control_c, 0, 67, 84
1, 7922, Note_off_c, 0, 91, 55
1, 7937, Control_c, 0, 64, 38
1, 7937, Control_c, 0, 67, 91
1, 7951, Note_on_c, 0, 95, 75
1, 7951, Control_c, 0, 64, 20
1, 7951, Control_c, 0, 67, 98
1, 7953, Note_off_c, 0, 94, 65
1, 7957, Note_on_c, 0, 92, 68
1, 7961, Note_on_c, 0, 61, 61
1, 7966, Control_c, 0, 64, 0
1, 7966, Control_c, 0, 67, 105
1, 7974, Note_on_c, 0, 51, 46
1, 7974, Note_on_c, 0, 56, 46
1, 7981, Control_c, 0, 67, 111
1, 7984, Note_off_c, 0, 92, 68
1, 7987, Note_off_c, 0, 95, 65
1, 7995, Note_off_c, 0, 61, 63
1, 7996, Control_c, 0, 67, 117
1, 8005, Note_off_c, 0, 56, 67
1, 8011, Control_c, 0, 67, 122
1, 8017, Note_off_c, 0, 51, 64
1, 8025, Control_c, 0, 67, 127
1, 8104, Note_on_c, 0, 59, 58
1, 8106, Note_on_c, 0, 56, 53
1, 8125, Note_on_c, 0, 51, 47
1, 8128, Note_off_c, 0, 59, 64
1, 8136, Note_off_c, 0, 56, 67
1, 8152, Note_off_c, 0, 51, 59
1, 8253, Note_on_c, 0, 59, 52
1, 8256, Note_on_c, 0, 56, 51
1, 8256, Note_on_c, 0, 51, 42
1, 8262, Control_c, 0, 64, 11
1, 8277, Control_c, 0, 64, 23
1, 8291, Note_off_c, 0, 59, 64
1, 8291, Control_c, 0, 64, 30
1, 8306, Note_off_c, 0, 51, 62
1, 8306, Control_c, 0, 64, 39
1, 8308, Note_off_c, 0, 56, 64
1, 8322, Control_c, 0, 64, 47
1, 8336, Control_c, 0, 64, 55
1, 8351, Control_c, 0, 64, 59
1, 8366, Control_c, 0, 64, 62
1, 8381, Control_c, 0, 64, 64
1, 8388, Note_on_c, 0, 58, 68
1, 8396, Control_c, 0, 64, 65
1, 8406, Note_on_c, 0, 49, 52
1, 8418, Control_c, 0, 64, 66
1, 8425, Note_off_c, 0, 58, 64
1, 8433, Control_c, 0, 64, 67
1, 8434, Note_on_c, 0, 51, 36
1, 8446, Note_off_c, 0, 49, 55
1, 8448, Control_c, 0, 64, 68
1, 8463, Control_c, 0, 64, 69
1, 8464, Note_off_c, 0, 51, 54
1, 8507, Control_c, 0, 64, 68
1, 8522, Control_c, 0, 64, 64
1, 8537, Control_c, 0, 64, 57
1, 8541, Note_on_c, 0, 49, 58
1, 8544, Note_on_c, 0, 51, 58
1, 8545, Note_on_c, 0, 58, 59
1, 8551, Control_c, 0, 64, 43
1, 8566, Control_c, 0, 64, 27
1, 8581, Control_c, 0, 64, 24
1, 8585, Note_off_c, 0, 58, 59
1, 8595, Note_off_c, 0, 49, 62
1, 8597, Control_c, 0, 64, 30
1, 8605, Note_off_c, 0, 51, 62
1, 8612, Control_c, 0, 64, 38
1, 8627, Control_c, 0, 64, 46
1, 8641, Control_c, 0, 64, 53
1, 8656, Control_c, 0, 64, 57
1, 8671, Control_c, 0, 64, 58
1, 8703, Note_on_c, 0, 56, 62
1, 8711, Note_on_c, 0, 47, 48
1, 8715, Note_on_c, 0, 51, 49
1, 8730, Control_c, 0, 64, 59
1, 8744, Note_off_c, 0, 47, 58
1, 8774, Control_c, 0, 64, 58
1, 8789, Control_c, 0, 64, 56
1, 8804, Control_c, 0, 64, 54
1, 8819, Control_c, 0, 64, 49
1, 8834, Control_c, 0, 64, 42
1, 8846, Note_off_c, 0, 56, 60
1, 8849, Control_c, 0, 64, 36
1, 8864, Note_off_c, 0, 51, 60
1, 8864, Control_c, 0, 64, 30
1, 8879, Control_c, 0, 64, 23
1, 8893, Control_c, 0, 64, 14
1, 8908, Control_c, 0, 64, 0
1, 8918, Note_on_c, 0, 44, 35
1, 8956, Note_on_c, 0, 80, 42
1, 8965, Note_on_c, 0, 76, 39
1, 9023, Note_off_c, 0, 80, 61
1, 9036, Note_off_c, 0, 76, 42
1, 9037, Note_on_c, 0, 81, 49
1, 9048, Note_on_c, 0, 78, 60
1, 9071, Control_c, 0, 64, 19
1, 9086, Control_c, 0, 64, 25
1, 9096, Note_off_c, 0, 78, 62
1, 9100, Control_c, 0, 64, 32
1, 9104, Note_off_c, 0, 81, 60
1, 9114, Note_on_c, 0, 52, 53
1, 9114, Note_off_c, 0, 44, 57
1, 9115, Control_c, 0, 64, 40
1, 9130, Control_c, 0, 64, 49
1, 9136, Note_on_c, 0, 80, 50
1, 9139, Note_on_c, 0, 76, 49
1, 9145, Control_c, 0, 64, 57
1, 9157, Note_off_c, 0, 52, 64
1, 9160, Control_c, 0, 64, 62
1, 9172, Note_off_c, 0, 80, 56
1, 9180, Note_off_c, 0, 76, 52
1, 9182, Control_c, 0, 64, 64
1, 9197, Control_c, 0, 64, 65
1, 9212, Control_c, 0, 64, 65
1, 9212, Note_on_c, 0, 78, 53
1, 9223, Note_on_c, 0, 81, 43
1, 9244, Note_off_c, 0, 78, 59
1, 9253, Note_off_c, 0, 81, 53
1, 9259, Note_on_c, 0, 61, 59
1, 9260, Note_on_c, 0, 80, 62
1, 9272, Note_on_c, 0, 76, 54
1, 9288, Note_off_c, 0, 61, 67
1, 9296, Note_off_c, 0, 80, 59
1, 9319, Note_off_c, 0, 76, 58
1, 9329, Note_on_c, 0, 78, 62
1, 9336, Note_on_c, 0, 81, 56
1, 9380, Note_off_c, 0, 81, 57
1, 9382, Note_off_c, 0, 78, 62
1, 9407, Note_on_c, 0, 80, 58
1, 9409, Note_on_c, 0, 43, 56
1, 9420, Control_c, 0, 64, 65
1, 9426, Note_on_c, 0, 76, 50
1, 9435, Control_c, 0, 64, 64
1, 9439, Note_off_c, 0, 80, 60
1, 9450, Control_c, 0, 64, 64
1, 9456, Note_off_c, 0, 76, 58
1, 9464, Control_c, 0, 64, 63
1, 9475, Note_on_c, 0, 78, 61
1, 9479, Control_c, 0, 64, 61
1, 9494, Note_on_c, 0, 81, 49
1, 9494, Control_c, 0, 64, 57
1, 9509, Control_c, 0, 64, 51
1, 9520, Note_off_c, 0, 81, 56
1, 9522, Note_off_c, 0, 78, 60
1, 9524, Control_c, 0, 64, 41
1, 9539, Control_c, 0, 64, 22
1, 9543, Note_on_c, 0, 80, 52
1, 9544, Note_on_c, 0, 76, 57
1, 9553, Control_c, 0, 64, 0
1, 9570, Note_on_c, 0, 44, 57
1, 9579, Note_off_c, 0, 80, 61
1, 9587, Note_off_c, 0, 43, 48
1, 9598, Note_off_c, 0, 76, 62
1, 9610, Note_on_c, 0, 81, 48
1, 9615, Note_on_c, 0, 78, 62
1, 9657, Note_off_c, 0, 81, 61
1, 9657, Control_c, 0, 64, 20
1, 9667, Note_off_c, 0, 78, 63
1, 9672, Control_c, 0, 64, 30
1, 9679, Note_on_c, 0, 80, 57
1, 9686, Control_c, 0, 64, 38
1, 9698, Note_off_c, 0, 44, 62
1, 9698, Note_on_c, 0, 76, 51
1, 9701, Control_c, 0, 64, 47
1, 9716, Control_c, 0, 64, 54
1, 9716, Note_on_c, 0, 52, 54
1, 9720, Note_off_c, 0, 80, 59
1, 9731, Control_c, 0, 64, 60
1, 9744, Note_off_c, 0, 76, 62
1, 9746, Control_c, 0, 64, 63
1, 9752, Note_on_c, 0, 78, 59
1, 9761, Note_on_c, 0, 81, 55
1, 9761, Control_c, 0, 64, 64
1, 9776, Control_c, 0, 64, 65
1, 9800, Note_off_c, 0, 81, 63
1, 9805, Control_c, 0, 64, 65
1, 9807, Note_off_c, 0, 78, 62
1, 9809, Note_off_c, 0, 52, 0
1, 9829, Note_on_c, 0, 80, 59
1, 9844, Note_on_c, 0, 52, 18
1, 9850, Control_c, 0, 64, 66
1, 9850, Note_on_c, 0, 61, 59
1, 9859, Note_on_c, 0, 76, 50
1, 9863, Note_off_c, 0, 80, 57
1, 9871, Note_off_c, 0, 61, 63
1, 9876, Note_off_c, 0, 52, 51
1, 9886, Note_off_c, 0, 76, 62
1, 9904, Note_on_c, 0, 78, 62
1, 9904, Note_on_c, 0, 81, 52
1, 9956, Note_off_c, 0, 81, 61
1, 9970, Note_off_c, 0, 78, 64
1, 9980, Note_on_c, 0, 80, 59
1, 9986, Note_on_c, 0, 76, 59
1, 9990, Control_c, 0, 64, 65
1, 9991, Note_on_c, 0, 32, 62
1, 10005, Control_c, 0, 64, 65
1, 10020, Control_c, 0, 64, 63
1, 10025, Note_off_c, 0, 80, 61
1, 10035, Control_c, 0, 64, 58
1, 10043, Note_off_c, 0, 76, 62
1, 10050, Control_c, 0, 64, 49
1, 10053, Note_on_c, 0, 81, 54
1, 10057, Note_on_c, 0, 78, 62
1, 10065, Control_c, 0, 64, 33
1, 10079, Control_c, 0, 64, 0
1, 10102, Note_off_c, 0, 81, 49
1, 10108, Note_off_c, 0, 78, 63
1, 10110, Note_off_c, 0, 32, 62
1, 10118, Note_on_c, 0, 44, 60
1, 10123, Control_c, 0, 64, 21
1, 10126, Note_on_c, 0, 76, 52
1, 10138, Control_c, 0, 64, 32
1, 10148, Note_on_c, 0, 80, 34
1, 10153, Control_c, 0, 64, 39
1, 10161, Note_off_c, 0, 44, 63
1, 10168, Control_c, 0, 64, 46
1, 10169, Note_off_c, 0, 76, 64
1, 10182, Note_off_c, 0, 80, 51
1, 10183, Control_c, 0, 64, 51
1, 10193, Note_on_c, 0, 78, 70
1, 10199, Control_c, 0, 64, 55
1, 10205, Note_on_c, 0, 81, 43
1, 10213, Control_c, 0, 64, 58
1, 10228, Control_c, 0, 64, 60
1, 10243, Control_c, 0, 64, 61
1, 10250, Note_off_c, 0, 78, 66
1, 10253, Note_off_c, 0, 81, 42
1, 10257, Note_on_c, 0, 80, 69
1, 10258, Control_c, 0, 64, 61
1, 10273, Control_c, 0, 64, 62
1, 10274, Note_on_c, 0, 52, 55
1, 10274, Note_on_c, 0, 76, 63
1, 10299, Note_off_c, 0, 52, 64
1, 10317, Control_c, 0, 64, 62
1, 10321, Note_off_c, 0, 76, 64
1, 10327, Note_on_c, 0, 79, 61
1, 10333, Note_on_c, 0, 75, 68
1, 10335, Note_off_c, 0, 80, 54
1, 10346, Control_c, 0, 64, 63
1, 10386, Note_off_c, 0, 75, 59
1, 10392, Note_on_c, 0, 61, 67
1, 10397, Note_on_c, 0, 76, 70
1, 10402, Note_off_c, 0, 79, 58
1, 10403, Note_on_c, 0, 80, 62
1, 10420, Note_off_c, 0, 61, 68
1, 10420, Control_c, 0, 64, 62
1, 10450, Note_off_c, 0, 76, 60
1, 10450, Control_c, 0, 64, 62
1, 10465, Control_c, 0, 64, 61
1, 10467, Note_on_c, 0, 78, 77
1, 10469, Note_off_c, 0, 80, 62
1, 10471, Note_on_c, 0, 81, 69
1, 10480, Control_c, 0, 64, 61
1, 10494, Control_c, 0, 64, 60
1, 10509, Control_c, 0, 64, 59
1, 10524, Control_c, 0, 64, 58
1, 10533, Note_off_c, 0, 78, 66
1, 10534, Note_on_c, 0, 80, 68
1, 10535, Note_on_c, 0, 51, 70
1, 10536, Note_on_c, 0, 76, 74
1, 10539, Control_c, 0, 64, 55
1, 10554, Control_c, 0, 64, 51
1, 10556, Note_off_c, 0, 81, 53
1, 10569, Control_c, 0, 64, 47
1, 10584, Control_c, 0, 64, 42
1, 10588, Note_on_c, 0, 79, 72
1, 10590, Note_off_c, 0, 76, 67
1, 10590, Note_off_c, 0, 80, 64
1, 10599, Note_on_c, 0, 75, 74
1, 10599, Control_c, 0, 64, 38
1, 10613, Control_c, 0, 64, 34
1, 10628, Control_c, 0, 64, 28
1, 10643, Control_c, 0, 64, 13
1, 10654, Note_off_c, 0, 75, 62
1, 10658, Control_c, 0, 64, 0
1, 10668, Note_on_c, 0, 76, 79
1, 10678, Note_on_c, 0, 80, 73
1, 10679, Note_off_c, 0, 79, 61
1, 10685, Note_on_c, 0, 49, 69
1, 10700, Note_off_c, 0, 51, 59
1, 10727, Note_off_c, 0, 76, 57
1, 10741, Note_on_c, 0, 81, 74
1, 10742, Note_off_c, 0, 80, 63
1, 10742, Note_on_c, 0, 78, 82
1, 10798, Control_c, 0, 64, 18
1, 10805, Note_off_c, 0, 78, 66
1, 10808, Note_on_c, 0, 80, 67
1, 10810, Note_on_c, 0, 76, 70
1, 10813, Control_c, 0, 64, 24
1, 10828, Note_on_c, 0, 52, 69
1, 10828, Control_c, 0, 64, 31
1, 10831, Note_off_c, 0, 81, 60
1, 10835, Note_off_c, 0, 49, 63
1, 10843, Control_c, 0, 64, 40
1, 10858, Control_c, 0, 64, 48
1, 10860, Note_on_c, 0, 79, 70
1, 10862, Note_off_c, 0, 80, 63
1, 10868, Note_off_c, 0, 52, 65
1, 10872, Control_c, 0, 64, 55
1, 10873, Note_off_c, 0, 76, 65
1, 10885, Note_on_c, 0, 75, 73
1, 10887, Control_c, 0, 64, 59
1, 10902, Control_c, 0, 64, 61
1, 10917, Control_c, 0, 64, 62
1, 10936, Note_off_c, 0, 75, 62
1, 10938, Note_on_c, 0, 61, 73
1, 10950, Note_on_c, 0, 76, 72
1, 10961, Note_off_c, 0, 79, 60
1, 10963, Note_off_c, 0, 61, 68
1, 10965, Note_on_c, 0, 80, 77
1, 10976, Control_c, 0, 64, 63
1, 10998, Note_off_c, 0, 76, 66
1, 11007, Control_c, 0, 64, 63
1, 11022, Control_c, 0, 64, 64
1, 11025, Note_off_c, 0, 80, 63
1, 11028, Note_on_c, 0, 78, 70
1, 11056, Note_off_c, 0, 78, 67
1, 11076, Note_on_c, 0, 32, 68
1, 11081, Control_c, 0, 64, 64
1, 11091, Note_on_c, 0, 76, 61
1, 11093, Note_on_c, 0, 79, 50
1, 11123, Note_off_c, 0, 76, 60
1, 11128, Note_off_c, 0, 32, 43
1, 11140, Control_c, 0, 64, 64
1, 11141, Note_on_c, 0, 75, 73
1, 11155, Control_c, 0, 64, 62
1, 11169, Control_c, 0, 64, 52
1, 11174, Note_off_c, 0, 79, 62
1, 11184, Control_c, 0, 64, 31
1, 11199, Control_c, 0, 64, 0
1, 11215, Note_off_c, 0, 75, 59
1, 11236, Note_on_c, 0, 44, 76
1, 11241, Note_on_c, 0, 80, 57
1, 11248, Note_on_c, 0, 76, 68
1, 11258, Control_c, 0, 64, 20
1, 11266, Note_off_c, 0, 44, 68
1, 11273, Control_c, 0, 64, 34
1, 11287, Control_c, 0, 64, 42
1, 11299, Note_off_c, 0, 76, 66
1, 11302, Control_c, 0, 64, 51
1, 11317, Control_c, 0, 64, 57
1, 11323, Note_off_c, 0, 80, 62
1, 11332, Note_on_c, 0, 78, 71
1, 11332, Control_c, 0, 64, 61
1, 11347, Control_c, 0, 64, 63
1, 11356, Note_on_c, 0, 81, 58
1, 11362, Control_c, 0, 64, 65
1, 11377, Control_c, 0, 64, 66
1, 11391, Control_c, 0, 64, 66
1, 11414, Control_c, 0, 64, 67
1, 11419, Note_off_c, 0, 81, 58
1, 11429, Note_off_c, 0, 78, 67
1, 11429, Control_c, 0, 64, 67
1, 11442, Note_on_c, 0, 79, 71
1, 11452, Note_on_c, 0, 73, 73
1, 11469, Note_on_c, 0, 82, 46
1, 11473, Control_c, 0, 64, 68
1, 11477, Note_off_c, 0, 73, 64
1, 11479, Note_on_c, 0, 68, 42
1, 11488, Control_c, 0, 64, 68
1, 11496, Note_on_c, 0, 64, 19
1, 11502, Note_off_c, 0, 79, 62
1, 11510, Note_off_c, 0, 68, 53
1, 11515, Note_on_c, 0, 83, 60
1, 11517, Control_c, 0, 64, 69
1, 11529, Note_on_c, 0, 80, 71
1, 11538, Note_off_c, 0, 64, 52
1, 11586, Note_off_c, 0, 80, 62
1, 11586, Note_off_c, 0, 82, 44
1, 11596, Note_on_c, 0, 81, 73
1, 11599, Note_on_c, 0, 73, 72
1, 11604, Note_on_c, 0, 68, 50
1, 11605, Note_on_c, 0, 84, 67
1, 11614, Note_off_c, 0, 83, 28
1, 11615, Note_on_c, 0, 64, 60
1, 11637, Note_off_c, 0, 73, 59
1, 11645, Note_off_c, 0, 68, 61
1, 11648, Note_off_c, 0, 81, 60
1, 11658, Note_off_c, 0, 84, 64
1, 11660, Note_on_c, 0, 82, 66
1, 11662, Note_off_c, 0, 64, 58
1, 11675, Note_on_c, 0, 85, 59
1, 11710, Note_off_c, 0, 82, 68
1, 11712, Note_off_c, 0, 85, 58
1, 11727, Note_on_c, 0, 83, 73
1, 11737, Note_on_c, 0, 69, 76
1, 11745, Note_on_c, 0, 86, 70
1, 11759, Note_on_c, 0, 61, 52
1, 11769, Note_on_c, 0, 64, 37
1, 11780, Note_off_c, 0, 69, 61
1, 11798, Note_off_c, 0, 61, 63
1, 11798, Note_off_c, 0, 86, 61
1, 11799, Note_off_c, 0, 64, 56
1, 11800, Note_off_c, 0, 83, 65
1, 11809, Note_on_c, 0, 84, 78
1, 11818, Note_on_c, 0, 87, 67
1, 11830, Control_c, 0, 64, 68
1, 11845, Control_c, 0, 64, 64
1, 11859, Control_c, 0, 64, 56
1, 11865, Note_off_c, 0, 84, 62
1, 11874, Note_on_c, 0, 69, 84
1, 11874, Control_c, 0, 64, 39
1, 11882, Note_on_c, 0, 64, 59
1, 11882, Note_on_c, 0, 88, 61
1, 11889, Note_on_c, 0, 85, 69
1, 11889, Control_c, 0, 64, 0
1, 11889, Note_on_c, 0, 61, 59
1, 11895, Note_off_c, 0, 87, 65
1, 11921, Note_off_c, 0, 69, 66
1, 11933, Note_on_c, 0, 89, 78
1, 11933, Control_c, 0, 64, 22
1, 11938, Note_off_c, 0, 85, 65
1, 11941, Note_on_c, 0, 86, 75
1, 11946, Note_off_c, 0, 64, 62
1, 11948, Control_c, 0, 64, 35
1, 11949, Note_off_c, 0, 61, 62
1, 11958, Note_off_c, 0, 88, 64
1, 11963, Control_c, 0, 64, 45
1, 11978, Control_c, 0, 64, 53
1, 11992, Control_c, 0, 64, 58
1, 11995, Note_off_c, 0, 89, 63
1, 12004, Note_off_c, 0, 86, 62
1, 12007, Control_c, 0, 64, 61
1, 12011, Note_on_c, 0, 68, 80
1, 12016, Note_on_c, 0, 87, 66
1, 12017, Note_on_c, 0, 90, 71
1, 12020, Note_on_c, 0, 64, 62
1, 12021, Note_on_c, 0, 61, 62
1, 12022, Control_c, 0, 64, 62
1, 12037, Control_c, 0, 64, 63
1, 12051, Note_off_c, 0, 68, 56
1, 12055, Note_off_c, 0, 87, 63
1, 12062, Note_on_c, 0, 88, 78
1, 12062, Note_off_c, 0, 64, 60
1, 12064, Note_off_c, 0, 61, 54
1, 12066, Control_c, 0, 64, 63
1, 12069, Note_off_c, 0, 90, 66
1, 12081, Control_c, 0, 64, 64
1, 12082, Note_on_c, 0, 91, 73
1, 12096, Control_c, 0, 64, 65
1, 12110, Control_c, 0, 64, 65
1, 12125, Control_c, 0, 64, 66
1, 12132, Note_off_c, 0, 88, 58
1, 12137, Note_on_c, 0, 68, 82
1, 12146, Note_on_c, 0, 92, 85
1, 12147, Note_on_c, 0, 64, 71
1, 12148, Note_on_c, 0, 89, 77
1, 12149, Note_off_c, 0, 91, 58
1, 12153, Note_on_c, 0, 61, 66
1, 12163, Control_c, 0, 64, 66
1, 12163, Control_c, 0, 67, 124
1, 12178, Control_c, 0, 67, 116
1, 12181, Note_off_c, 0, 64, 66
1, 12191, Note_off_c, 0, 68, 57
1, 12192, Control_c, 0, 67, 105
1, 12195, Note_off_c, 0, 61, 64
1, 12196, Note_off_c, 0, 89, 64
1, 12207, Control_c, 0, 64, 67
1, 12207, Control_c, 0, 67, 94
1, 12222, Control_c, 0, 64, 67
1, 12222, Control_c, 0, 67, 84
1, 12223, Note_off_c, 0, 92, 67
1, 12225, Note_on_c, 0, 93, 76
1, 12228, Note_on_c, 0, 90, 77
1, 12237, Control_c, 0, 67, 78
1, 12252, Control_c, 0, 64, 68
1, 12252, Control_c, 0, 67, 74
1, 12266, Control_c, 0, 64, 69
1, 12266, Control_c, 0, 67, 70
1, 12278, Note_off_c, 0, 90, 67
1, 12281, Control_c, 0, 67, 69
1, 12282, Note_on_c, 0, 91, 88
1, 12283, Note_on_c, 0, 66, 80
1, 12292, Note_on_c, 0, 56, 59
1, 12294, Note_off_c, 0, 93, 61
1, 12296, Control_c, 0, 67, 67
1, 12297, Note_on_c, 0, 61, 62
1, 12306, Note_on_c, 0, 94, 74
1, 12311, Control_c, 0, 67, 64
1, 12325, Control_c, 0, 64, 68
1, 12325, Control_c, 0, 67, 59
1, 12330, Note_off_c, 0, 66, 61
1, 12340, Control_c, 0, 64, 65
1, 12340, Control_c, 0, 67, 56
1, 12341, Note_off_c, 0, 61, 62
1, 12345, Note_off_c, 0, 91, 59
1, 12346, Note_off_c, 0, 56, 61
1, 12352, Note_on_c, 0, 92, 86
1, 12355, Control_c, 0, 64, 59
1, 12355, Control_c, 0, 67, 55
1, 12359, Note_on_c, 0, 95, 72
1, 12370, Control_c, 0, 64, 46
1, 12370, Control_c, 0, 67, 54
1, 12384, Control_c, 0, 64, 23
1, 12384, Control_c, 0, 67, 53
1, 12385, Note_off_c, 0, 94, 66
1, 12399, Control_c, 0, 64, 0
1, 12399, Control_c, 0, 67, 51
1, 12414, Control_c, 0, 67, 50
1, 12422, Note_off_c, 0, 92, 66
1, 12423, Note_on_c, 0, 66, 75
1, 12423, Note_on_c, 0, 93, 81
1, 12429, Control_c, 0, 64, 25
1, 12429, Control_c, 0, 67, 50
1, 12432, Note_on_c, 0, 96, 77
1, 12440, Note_on_c, 0, 61, 58
1, 12444, Control_c, 0, 64, 36
1, 12444, Control_c, 0, 67, 49
1, 12451, Note_on_c, 0, 56, 46
1, 12456, Note_off_c, 0, 95, 64
1, 12459, Control_c, 0, 64, 46
1, 12459, Control_c, 0, 67, 49
1, 12466, Note_off_c, 0, 93, 63
1, 12474, Control_c, 0, 64, 53
1, 12474, Control_c, 0, 67, 48
1, 12480, Note_off_c, 0, 66, 62
1, 12487, Note_on_c, 0, 94, 60
1, 12487, Note_off_c, 0, 96, 63
1, 12488, Control_c, 0, 64, 58
1, 12488, Control_c, 0, 67, 45
1, 12489, Note_off_c, 0, 61, 62
1, 12494, Note_off_c, 0, 56, 61
1, 12503, Control_c, 0, 64, 60
1, 12503, Control_c, 0, 67, 41
1, 12518, Note_on_c, 0, 97, 63
1, 12518, Control_c, 0, 64, 60
1, 12518, Control_c, 0, 67, 38
1, 12531, Note_off_c, 0, 94, 66
1, 12533, Control_c, 0, 67, 35
1, 12548, Control_c, 0, 67, 32
1, 12559, Note_on_c, 0, 95, 77
1, 12561, Note_off_c, 0, 97, 66
1, 12563, Control_c, 0, 67, 29
1, 12564, Note_on_c, 0, 98, 79
1, 12568, Note_on_c, 0, 64, 72
1, 12575, Note_on_c, 0, 61, 59
1, 12578, Control_c, 0, 64, 61
1, 12578, Control_c, 0, 67, 26
1, 12584, Note_on_c, 0, 56, 61
1, 12593, Control_c, 0, 64, 62
1, 12593, Control_c, 0, 67, 23
1, 12608, Control_c, 0, 67, 22
1, 12623, Note_off_c, 0, 61, 57
1, 12623, Note_off_c, 0, 95, 65
1, 12623, Control_c, 0, 67, 22
1, 12625, Note_off_c, 0, 64, 56
1, 12630, Note_off_c, 0, 56, 61
1, 12635, Note_on_c, 0, 96, 72
1, 12640, Note_off_c, 0, 98, 65
1, 12652, Control_c, 0, 67, 21
1, 12667, Control_c, 0, 67, 20
1, 12676, Note_off_c, 0, 96, 60
1, 12682, Control_c, 0, 64, 62
1, 12682, Control_c, 0, 67, 19
1, 12684, Note_on_c, 0, 99, 56
1, 12697, Control_c, 0, 67, 17
1, 12706, Note_on_c, 0, 100, 79
1, 12712, Control_c, 0, 64, 62
1, 12712, Control_c, 0, 67, 16
1, 12714, Note_off_c, 0, 99, 64
1, 12715, Note_on_c, 0, 97, 83
1, 12727, Control_c, 0, 64, 61
1, 12727, Control_c, 0, 67, 15
1, 12728, Note_on_c, 0, 64, 66
1, 12730, Note_on_c, 0, 61, 62
1, 12739, Note_on_c, 0, 56, 54
1, 12741, Control_c, 0, 64, 59
1, 12741, Control_c, 0, 67, 14
1, 12745, Note_off_c, 0, 97, 63
1, 12750, Note_off_c, 0, 100, 64
1, 12756, Control_c, 0, 64, 54
1, 12756, Control_c, 0, 67, 13
1, 12763, Note_off_c, 0, 64, 64
1, 12771, Control_c, 0, 64, 46
1, 12771, Control_c, 0, 67, 13
1, 12778, Note_off_c, 0, 56, 66
1, 12782, Note_off_c, 0, 61, 60
1, 12786, Control_c, 0, 64, 35
1, 12801, Control_c, 0, 64, 17
1, 12815, Control_c, 0, 64, 0
1, 12877, Note_on_c, 0, 63, 70
1, 12887, Note_on_c, 0, 54, 53
1, 12887, Note_on_c, 0, 56, 51
1, 12896, Note_off_c, 0, 63, 67
1, 12929, Note_off_c, 0, 56, 66
1, 12930, Note_off_c, 0, 54, 51
1, 12986, Control_c, 0, 64, 9
1, 13001, Control_c, 0, 64, 20
1, 13016, Control_c, 0, 64, 29
1, 13025, Note_on_c, 0, 63, 71
1, 13030, Note_on_c, 0, 54, 56
1, 13031, Control_c, 0, 64, 37
1, 13031, Control_c, 0, 67, 12
1, 13035, Note_on_c, 0, 56, 62
1, 13046, Control_c, 0, 64, 45
1, 13046, Control_c, 0, 67, 11
1, 13060, Control_c, 0, 64, 52
1, 13060, Control_c, 0, 67, 9
1, 13075, Control_c, 0, 64, 57
1, 13075, Control_c, 0, 67, 0
1, 13076, Note_off_c, 0, 54, 64
1, 13078, Note_off_c, 0, 63, 64
1, 13090, Control_c, 0, 64, 60
1, 13094, Note_off_c, 0, 56, 64
1, 13105, Control_c, 0, 64, 60
1, 13134, Control_c, 0, 64, 61
1, 13149, Control_c, 0, 64, 61
1, 13161, Note_on_c, 0, 61, 84
1, 13164, Control_c, 0, 64, 62
1, 13177, Note_on_c, 0, 52, 68
1, 13179, Control_c, 0, 64, 63
1, 13181, Note_on_c, 0, 56, 61
1, 13194, Control_c, 0, 64, 64
1, 13208, Note_off_c, 0, 61, 64
1, 13208, Control_c, 0, 64, 65
1, 13215, Note_off_c, 0, 52, 64
1, 13228, Note_off_c, 0, 56, 66
1, 13238, Control_c, 0, 64, 66
1, 13267, Control_c, 0, 64, 66
1, 13310, Note_on_c, 0, 63, 91
1, 13312, Control_c, 0, 64, 67
1, 13317, Note_on_c, 0, 54, 68
1, 13317, Note_on_c, 0, 56, 69
1, 13341, Control_c, 0, 64, 68
1, 13349, Note_off_c, 0, 56, 68
1, 13352, Note_off_c, 0, 54, 56
1, 13355, Note_off_c, 0, 63, 66
1, 13356, Control_c, 0, 64, 69
1, 13371, Control_c, 0, 64, 69
1, 13442, Note_on_c, 0, 66, 84
1, 13454, Note_on_c, 0, 61, 70
1, 13456, Note_on_c, 0, 64, 77
1, 13478, Note_off_c, 0, 66, 57
1, 13480, Note_on_c, 0, 56, 76
1, 13510, Note_off_c, 0, 64, 63
1, 13511, Note_off_c, 0, 61, 65
1, 13543, Note_off_c, 0, 56, 65
1, 13579, Control_c, 0, 64, 68
1, 13594, Control_c, 0, 64, 63
1, 13609, Control_c, 0, 64, 54
1, 13624, Control_c, 0, 64, 32
1, 13625, Note_on_c, 0, 51, 80
1, 13639, Control_c, 0, 64, 0
1, 13640, Note_on_c, 0, 100, 77
1, 13645, Note_on_c, 0, 97, 78
1, 13717, Note_off_c, 0, 51, 65
1, 13720, Control_c, 0, 64, 24
1, 13725, Note_on_c, 0, 95, 82
1, 13735, Control_c, 0, 64, 33
1, 13737, Note_off_c, 0, 100, 64
1, 13748, Note_off_c, 0, 97, 66
1, 13750, Control_c, 0, 64, 42
1, 13764, Control_c, 0, 64, 52
1, 13766, Note_off_c, 0, 95, 67
1, 13779, Control_c, 0, 64, 58
1, 13794, Control_c, 0, 64, 62
1, 13809, Control_c, 0, 64, 64
1, 13818, Note_on_c, 0, 97, 70
1, 13824, Note_on_c, 0, 94, 73
1, 13824, Control_c, 0, 64, 65
1, 13826, Note_on_c, 0, 71, 82
1, 13831, Note_on_c, 0, 61, 72
1, 13836, Note_on_c, 0, 63, 65
1, 13839, Control_c, 0, 64, 66
1, 13845, Note_off_c, 0, 71, 72
1, 13855, Note_off_c, 0, 63, 66
1, 13859, Note_off_c, 0, 61, 68
1, 13869, Note_off_c, 0, 94, 47
1, 13880, Note_on_c, 0, 92, 65
1, 13880, Note_off_c, 0, 97, 64
1, 13883, Control_c, 0, 64, 67
1, 13899, Note_off_c, 0, 92, 64
1, 13913, Control_c, 0, 64, 67
1, 13928, Control_c, 0, 64, 68
1, 13940, Note_on_c, 0, 91, 64
1, 13943, Control_c, 0, 64, 68
1, 13952, Note_on_c, 0, 61, 82
1, 13956, Note_on_c, 0, 71, 86
1, 13958, Note_on_c, 0, 94, 71
1, 13959, Note_on_c, 0, 63, 62
1, 13987, Control_c, 0, 64, 69
1, 14002, Control_c, 0, 64, 70
1, 14015, Note_off_c, 0, 91, 60
1, 14017, Control_c, 0, 64, 72
1, 14020, Note_on_c, 0, 92, 53
1, 14023, Note_off_c, 0, 71, 64
1, 14030, Note_on_c, 0, 88, 76
1, 14032, Control_c, 0, 64, 73
1, 14044, Note_off_c, 0, 94, 65
1, 14046, Control_c, 0, 64, 75
1, 14047, Note_off_c, 0, 92, 66
1, 14061, Note_off_c, 0, 88, 63
1, 14061, Control_c, 0, 64, 76
1, 14076, Control_c, 0, 64, 77
1, 14094, Note_on_c, 0, 70, 97
1, 14120, Note_on_c, 0, 87, 55
1, 14125, Note_on_c, 0, 85, 69
1, 14135, Control_c, 0, 64, 74
1, 14150, Control_c, 0, 64, 67
1, 14164, Control_c, 0, 64, 57
1, 14180, Control_c, 0, 64, 37
1, 14195, Control_c, 0, 64, 0
1, 14199, Note_off_c, 0, 87, 35
1, 14202, Note_off_c, 0, 85, 65
1, 14203, Note_on_c, 0, 83, 69
1, 14217, Note_on_c, 0, 68, 92
1, 14221, Note_off_c, 0, 70, 35
1, 14231, Note_off_c, 0, 83, 68
1, 14240, Control_c, 0, 64, 14
1, 14255, Control_c, 0, 64, 32
1, 14269, Control_c, 0, 64, 43
1, 14284, Control_c, 0, 64, 53
1, 14284, Control_c, 0, 67, 8
1, 14292, Note_on_c, 0, 82, 69
1, 14295, Note_on_c, 0, 85, 66
1, 14299, Control_c, 0, 64, 60
1, 14299, Control_c, 0, 67, 10
1, 14313, Control_c, 0, 64, 64
1, 14313, Control_c, 0, 67, 11
1, 14328, Note_off_c, 0, 82, 62
1, 14328, Control_c, 0, 64, 66
1, 14328, Control_c, 0, 67, 13
1, 14336, Note_off_c, 0, 85, 61
1, 14343, Control_c, 0, 64, 67
1, 14343, Control_c, 0, 67, 15
1, 14349, Note_on_c, 0, 80, 57
1, 14351, Note_on_c, 0, 67, 84
1, 14358, Control_c, 0, 67, 20
1, 14366, Note_off_c, 0, 68, 59
1, 14369, Note_off_c, 0, 80, 60
1, 14373, Control_c, 0, 67, 26
1, 14387, Note_off_c, 0, 67, 63
1, 14387, Control_c, 0, 67, 33
1, 14391, Note_off_c, 0, 63, 64
1, 14402, Control_c, 0, 67, 38
1, 14417, Note_off_c, 0, 61, 62
1, 14420, Note_on_c, 0, 79, 71
1, 14425, Control_c, 0, 67, 43
1, 14438, Note_on_c, 0, 82, 61
1, 14440, Control_c, 0, 64, 68
1, 14440, Control_c, 0, 67, 49
1, 14455, Control_c, 0, 67, 55
1, 14469, Control_c, 0, 67, 60
1, 14484, Control_c, 0, 64, 68
1, 14484, Control_c, 0, 67, 64
1, 14491, Note_off_c, 0, 79, 62
1, 14498, Note_on_c, 0, 80, 37
1, 14499, Control_c, 0, 67, 70
1, 14504, Note_off_c, 0, 82, 64
1, 14504, Note_on_c, 0, 76, 74
1, 14513, Control_c, 0, 67, 78
1, 14526, Note_off_c, 0, 76, 70
1, 14528, Control_c, 0, 67, 83
1, 14530, Note_off_c, 0, 80, 52
1, 14543, Control_c, 0, 67, 86
1, 14558, Control_c, 0, 67, 91
1, 14573, Control_c, 0, 67, 98
1, 14586, Note_on_c, 0, 75, 63
1, 14587, Control_c, 0, 67, 104
1, 14602, Control_c, 0, 67, 106
1, 14617, Control_c, 0, 67, 107
1, 14632, Control_c, 0, 67, 108
1, 14634, Note_on_c, 0, 73, 63
1, 14647, Note_off_c, 0, 75, 59
1, 14647, Control_c, 0, 67, 109
1, 14662, Control_c, 0, 64, 69
1, 14662, Control_c, 0, 67, 115
1, 14667, Note_off_c, 0, 73, 59
1, 14676, Control_c, 0, 67, 123
1, 14691, Note_on_c, 0, 71, 64
1, 14691, Control_c, 0, 67, 127
1, 14706, Control_c, 0, 64, 68
1, 14721, Control_c, 0, 64, 67
1, 14736, Control_c, 0, 64, 63
1, 14745, Note_off_c, 0, 71, 62
1, 14751, Control_c, 0, 64, 55
1, 14765, Note_on_c, 0, 74, 41
1, 14766, Control_c, 0, 64, 38
1, 14766, Note_on_c, 0, 70, 76
1, 14776, Note_on_c, 0, 44, 62
1, 14780, Control_c, 0, 64, 0
1, 14795, Note_off_c, 0, 74, 57
1, 14820, Note_off_c, 0, 70, 63
1, 14821, Note_on_c, 0, 75, 70
1, 14823, Note_off_c, 0, 44, 60
1, 14825, Control_c, 0, 64, 22
1, 14839, Control_c, 0, 64, 40
1, 14843, Note_on_c, 0, 71, 71
1, 14854, Control_c, 0, 64, 55
1, 14869, Control_c, 0, 64, 67
1, 14882, Note_off_c, 0, 75, 58
1, 14884, Note_on_c, 0, 70, 76
1, 14884, Control_c, 0, 64, 82
1, 14887, Note_off_c, 0, 71, 63
1, 14899, Control_c, 0, 64, 85
1, 14903, Note_on_c, 0, 74, 54
1, 14913, Control_c, 0, 64, 77
1, 14921, Note_on_c, 0, 59, 71
1, 14925, Note_on_c, 0, 51, 66
1, 14928, Control_c, 0, 64, 65
1, 14943, Control_c, 0, 64, 52
1, 14945, Note_on_c, 0, 75, 68
1, 14946, Note_off_c, 0, 59, 65
1, 14947, Note_off_c, 0, 74, 64
1, 14951, Note_off_c, 0, 70, 62
1, 14953, Note_off_c, 0, 51, 67
1, 14958, Control_c, 0, 64, 20
1, 14968, Note_on_c, 0, 71, 72
1, 14973, Control_c, 0, 64, 0
1, 15025, Note_off_c, 0, 71, 66
1, 15025, Note_off_c, 0, 75, 61
1, 15028, Note_on_c, 0, 73, 76
1, 15034, Note_on_c, 0, 76, 68
1, 15049, Note_on_c, 0, 46, 64
1, 15096, Note_off_c, 0, 73, 63
1, 15097, Note_off_c, 0, 76, 65
1, 15104, Note_on_c, 0, 71, 66
1, 15104, Note_on_c, 0, 75, 62
1, 15162, Note_off_c, 0, 75, 51
1, 15177, Note_off_c, 0, 71, 65
1, 15181, Note_on_c, 0, 73, 67
1, 15189, Note_on_c, 0, 76, 54
1, 15198, Note_on_c, 0, 44, 59
1, 15201, Note_off_c, 0, 46, 61
1, 15225, Note_off_c, 0, 76, 56
1, 15240, Note_off_c, 0, 73, 65
1, 15254, Note_on_c, 0, 75, 64
1, 15260, Note_on_c, 0, 71, 60
1, 15277, Control_c, 0, 64, 23
1, 15292, Control_c, 0, 64, 45
1, 15296, Note_off_c, 0, 75, 61
1, 15307, Control_c, 0, 64, 59
1, 15313, Note_off_c, 0, 44, 61
1, 15314, Note_off_c, 0, 71, 65
1, 15315, Note_on_c, 0, 43, 72
1, 15317, Note_on_c, 0, 70, 69
1, 15322, Control_c, 0, 64, 75
1, 15331, Note_on_c, 0, 73, 48
1, 15336, Control_c, 0, 64, 108
1, 15341, Note_off_c, 0, 43, 66
1, 15351, Control_c, 0, 64, 106
1, 15366, Control_c, 0, 64, 79
1, 15371, Note_off_c, 0, 73, 61
1, 15381, Note_off_c, 0, 70, 63
1, 15381, Control_c, 0, 64, 59
1, 15383, Note_on_c, 0, 75, 63
1, 15396, Control_c, 0, 64, 22
1, 15398, Note_on_c, 0, 71, 62
1, 15410, Control_c, 0, 64, 0
1, 15422, Note_off_c, 0, 75, 53
1, 15448, Note_on_c, 0, 63, 63
1, 15448, Note_off_c, 0, 71, 66
1, 15452, Note_on_c, 0, 73, 69
1, 15454, Note_on_c, 0, 51, 61
1, 15465, Note_on_c, 0, 70, 50
1, 15466, Note_off_c, 0, 63, 65
1, 15475, Note_off_c, 0, 51, 65
1, 15504, Note_off_c, 0, 73, 60
1, 15522, Note_off_c, 0, 70, 63
1, 15531, Note_on_c, 0, 75, 66
1, 15534, Note_on_c, 0, 71, 65
1, 15565, Note_off_c, 0, 71, 64
1, 15603, Note_on_c, 0, 44, 57
1, 15617, Note_on_c, 0, 70, 56
1, 15621, Note_on_c, 0, 73, 54
1, 15621, Note_off_c, 0, 75, 59
1, 15627, Note_off_c, 0, 44, 61
1, 15633, Control_c, 0, 64, 22
1, 15648, Control_c, 0, 64, 30
1, 15653, Note_off_c, 0, 73, 59
1, 15662, Control_c, 0, 64, 36
1, 15663, Note_off_c, 0, 70, 63
1, 15677, Control_c, 0, 64, 43
1, 15688, Note_on_c, 0, 71, 56
1, 15692, Control_c, 0, 64, 52
1, 15696, Note_on_c, 0, 68, 57
1, 15707, Control_c, 0, 64, 60
1, 15722, Control_c, 0, 64, 64
1, 15727, Note_off_c, 0, 68, 61
1, 15733, Note_off_c, 0, 71, 63
1, 15736, Control_c, 0, 64, 66
1, 15750, Note_on_c, 0, 73, 49
1, 15758, Note_on_c, 0, 70, 64
1, 15759, Note_on_c, 0, 63, 41
1, 15761, Note_on_c, 0, 51, 59
1, 15783, Note_off_c, 0, 51, 62
1, 15791, Note_off_c, 0, 63, 56
1, 15839, Note_off_c, 0, 70, 48
1, 15843, Note_on_c, 0, 68, 52
1, 15848, Note_on_c, 0, 71, 55
1, 15864, Note_off_c, 0, 68, 62
1, 15868, Note_off_c, 0, 71, 65
1, 15870, Note_off_c, 0, 73, 34
1, 15922, Control_c, 0, 64, 65
1, 15937, Control_c, 0, 64, 63
1, 15952, Control_c, 0, 64, 59
1, 15967, Control_c, 0, 64, 48
1, 15982, Control_c, 0, 64, 29
1, 15997, Control_c, 0, 64, 0
1, 16016, Note_on_c, 0, 39, 61
1, 16033, Note_on_c, 0, 85, 56
1, 16041, Control_c, 0, 64, 18
1, 16042, Note_on_c, 0, 88, 45
1, 16056, Control_c, 0, 64, 31
1, 16071, Note_off_c, 0, 39, 65
1, 16071, Control_c, 0, 64, 38
1, 16085, Control_c, 0, 64, 44
1, 16100, Control_c, 0, 64, 50
1, 16103, Note_on_c, 0, 87, 52
1, 16104, Note_off_c, 0, 85, 43
1, 16113, Note_off_c, 0, 88, 40
1, 16115, Control_c, 0, 64, 55
1, 16125, Note_on_c, 0, 83, 58
1, 16125, Note_off_c, 0, 87, 60
1, 16130, Control_c, 0, 64, 59
1, 16145, Note_off_c, 0, 83, 67
1, 16145, Control_c, 0, 64, 61
1, 16159, Control_c, 0, 64, 63
1, 16174, Control_c, 0, 64, 64
1, 16189, Control_c, 0, 64, 66
1, 16199, Note_on_c, 0, 82, 75
1, 16200, Note_on_c, 0, 59, 71
1, 16204, Control_c, 0, 64, 67
1, 16208, Note_on_c, 0, 85, 58
1, 16209, Note_on_c, 0, 51, 55
1, 16219, Control_c, 0, 64, 68
1, 16225, Note_off_c, 0, 59, 65
1, 16232, Note_off_c, 0, 51, 63
1, 16233, Control_c, 0, 64, 69
1, 16248, Note_off_c, 0, 82, 54
1, 16248, Control_c, 0, 64, 69
1, 16260, Note_on_c, 0, 80, 77
1, 16263, Control_c, 0, 64, 70
1, 16263, Control_c, 0, 67, 118
1, 16265, Note_off_c, 0, 85, 62
1, 16270, Poly_aftertouch_c, 0, 49, 127
1, 16278, Control_c, 0, 64, 71
1, 16278, Control_c, 0, 67, 105
1, 16280, Note_off_c, 0, 80, 71
1, 16292, Control_c, 0, 64, 71
1, 16292, Control_c, 0, 67, 91
1, 16303, Poly_aftertouch_c, 0, 49, 0
1, 16307, Control_c, 0, 67, 82
1, 16322, Control_c, 0, 67, 75
1, 16331, Note_on_c, 0, 79, 75
1, 16336, Note_on_c, 0, 59, 80
1, 16337, Note_on_c, 0, 51, 63
1, 16337, Control_c, 0, 67, 69
1, 16349, Note_on_c, 0, 49, 65
1, 16352, Control_c, 0, 64, 72
1, 16352, Control_c, 0, 67, 64
1, 16353, Note_on_c, 0, 82, 66
1, 16367, Control_c, 0, 67, 60
1, 16382, Control_c, 0, 67, 55
1, 16396, Control_c, 0, 64, 72
1, 16396, Control_c, 0, 67, 54
1, 16401, Note_off_c, 0, 79, 63
1, 16411, Control_c, 0, 67, 52
1, 16414, Note_off_c, 0, 59, 58
1, 16416, Note_on_c, 0, 76, 79
1, 16426, Control_c, 0, 64, 73
1, 16426, Control_c, 0, 67, 51
1, 16432, Note_off_c, 0, 82, 63
1, 16441, Control_c, 0, 64, 74
1, 16441, Control_c, 0, 67, 49
1, 16454, Note_off_c, 0, 76, 62
1, 16456, Control_c, 0, 64, 74
1, 16456, Control_c, 0, 67, 46
1, 16471, Control_c, 0, 64, 75
1, 16471, Control_c, 0, 67, 44
1, 16480, Note_on_c, 0, 58, 93
1, 16485, Control_c, 0, 67, 43
1, 16500, Control_c, 0, 64, 75
1, 16500, Control_c, 0, 67, 42
1, 16507, Note_on_c, 0, 75, 55
1, 16515, Control_c, 0, 67, 42
1, 16523, Note_on_c, 0, 73, 77
1, 16530, Control_c, 0, 64, 76
1, 16530, Control_c, 0, 67, 41
1, 16545, Control_c, 0, 64, 77
1, 16555, Note_off_c, 0, 75, 57
1, 16559, Control_c, 0, 67, 42
1, 16574, Control_c, 0, 67, 42
1, 16588, Note_off_c, 0, 73, 64
1, 16590, Control_c, 0, 64, 76
1, 16596, Note_on_c, 0, 71, 72
1, 16605, Control_c, 0, 64, 72
1, 16609, Note_on_c, 0, 56, 97
1, 16620, Control_c, 0, 64, 62
1, 16620, Note_off_c, 0, 71, 71
1, 16623, Note_off_c, 0, 58, 63
1, 16635, Control_c, 0, 64, 46
1, 16635, Control_c, 0, 67, 43
1, 16656, Control_c, 0, 64, 0
1, 16656, Control_c, 0, 67, 44
1, 16677, Note_on_c, 0, 70, 75
1, 16686, Control_c, 0, 67, 44
1, 16701, Control_c, 0, 67, 45
1, 16702, Note_on_c, 0, 73, 54
1, 16705, Note_off_c, 0, 70, 61
1, 16715, Control_c, 0, 64, 23
1, 16730, Control_c, 0, 64, 35
1, 16730, Control_c, 0, 67, 45
1, 16733, Note_off_c, 0, 73, 62
1, 16738, Note_off_c, 0, 56, 62
1, 16742, Note_on_c, 0, 55, 97
1, 16745, Note_on_c, 0, 68, 69
1, 16745, Control_c, 0, 64, 45
1, 16760, Control_c, 0, 64, 54
1, 16764, Note_off_c, 0, 68, 65
1, 16775, Control_c, 0, 64, 59
1, 16790, Control_c, 0, 64, 62
1, 16805, Control_c, 0, 64, 63
1, 16817, Note_on_c, 0, 67, 68
1, 16820, Control_c, 0, 64, 64
1, 16832, Note_on_c, 0, 70, 54
1, 16835, Control_c, 0, 64, 64
1, 16850, Control_c, 0, 64, 66
1, 16857, Note_off_c, 0, 55, 65
1, 16864, Control_c, 0, 64, 67
1, 16864, Control_c, 0, 67, 45
1, 16879, Control_c, 0, 64, 69
1, 16884, Note_off_c, 0, 67, 40
1, 16888, Note_on_c, 0, 64, 78
1, 16890, Note_off_c, 0, 51, 62
1, 16891, Note_on_c, 0, 68, 62
1, 16894, Control_c, 0, 64, 69
1, 16906, Note_off_c, 0, 49, 64
1, 16907, Note_off_c, 0, 68, 65
1, 16908, Control_c, 0, 64, 70
1, 16908, Control_c, 0, 67, 45
1, 16909, Note_off_c, 0, 70, 61
1, 16923, Control_c, 0, 64, 71
1, 16938, Control_c, 0, 64, 72
1, 16938, Control_c, 0, 67, 46
1, 16941, Note_off_c, 0, 64, 62
1, 16953, Control_c, 0, 64, 72
1, 16953, Control_c, 0, 67, 47
1, 16968, Control_c, 0, 64, 73
1, 16982, Control_c, 0, 64, 73
1, 16997, Control_c, 0, 64, 74
1, 16997, Control_c, 0, 67, 46
1, 17000, Note_on_c, 0, 61, 75
1, 17011, Note_on_c, 0, 65, 8
1, 17012, Control_c, 0, 64, 75
1, 17027, Control_c, 0, 64, 77
1, 17042, Control_c, 0, 64, 79
1, 17052, Note_off_c, 0, 65, 54
1, 17056, Control_c, 0, 64, 82
1, 17060, Note_off_c, 0, 61, 63
1, 17065, Note_on_c, 0, 59, 66
1, 17071, Control_c, 0, 64, 84
1, 17071, Control_c, 0, 67, 47
1, 17086, Control_c, 0, 64, 84
1, 17086, Control_c, 0, 67, 49
1, 17101, Control_c, 0, 67, 52
1, 17115, Control_c, 0, 64, 83
1, 17115, Control_c, 0, 67, 55
1, 17121, Note_off_c, 0, 59, 53
1, 17130, Control_c, 0, 64, 76
1, 17130, Control_c, 0, 67, 59
1, 17145, Control_c, 0, 64, 65
1, 17145, Control_c, 0, 67, 65
1, 17149, Note_on_c, 0, 58, 67
1, 17158, Note_on_c, 0, 62, 30
1, 17160, Control_c, 0, 64, 52
1, 17160, Control_c, 0, 67, 72
1, 17164, Note_on_c, 0, 44, 79
1, 17175, Control_c, 0, 64, 24
1, 17175, Control_c, 0, 67, 79
1, 17189, Control_c, 0, 64, 0
1, 17189, Control_c, 0, 67, 85
1, 17194, Note_off_c, 0, 62, 48
1, 17204, Control_c, 0, 67, 90
1, 17219, Note_off_c, 0, 58, 63
1, 17219, Control_c, 0, 64, 28
1, 17219, Control_c, 0, 67, 94
1, 17229, Note_on_c, 0, 63, 64
1, 17231, Note_off_c, 0, 44, 61
1, 17231, Note_on_c, 0, 59, 69
1, 17234, Control_c, 0, 64, 46
1, 17234, Control_c, 0, 67, 98
1, 17249, Control_c, 0, 64, 61
1, 17249, Control_c, 0, 67, 103
1, 17264, Control_c, 0, 64, 77
1, 17264, Control_c, 0, 67, 108
1, 17279, Control_c, 0, 64, 93
1, 17279, Control_c, 0, 67, 115
1, 17285, Note_off_c, 0, 59, 60
1, 17292, Note_on_c, 0, 62, 53
1, 17294, Control_c, 0, 67, 123
1, 17308, Control_c, 0, 64, 92
1, 17308, Control_c, 0, 67, 127
1, 17311, Note_on_c, 0, 61, 69
1, 17318, Note_on_c, 0, 59, 55
1, 17322, Note_on_c, 0, 51, 74
1, 17323, Control_c, 0, 64, 89
1, 17329, Note_off_c, 0, 63, 64
1, 17334, Note_off_c, 0, 62, 62
1, 17338, Control_c, 0, 64, 84
1, 17344, Note_off_c, 0, 59, 63
1, 17349, Note_off_c, 0, 51, 68
1, 17353, Control_c, 0, 64, 77
1, 17368, Control_c, 0, 64, 68
1, 17381, Note_off_c, 0, 61, 34
1, 17382, Note_on_c, 0, 65, 71
1, 17383, Control_c, 0, 64, 56
1, 17387, Note_on_c, 0, 62, 75
1, 17398, Control_c, 0, 64, 21
1, 17420, Control_c, 0, 64, 0
1, 17434, Note_off_c, 0, 62, 54
1, 17450, Note_off_c, 0, 65, 66
1, 17454, Note_on_c, 0, 63, 67
1, 17465, Note_on_c, 0, 46, 65
1, 17465, Note_on_c, 0, 66, 61
1, 17492, Note_off_c, 0, 63, 67
1, 17494, Control_c, 0, 64, 36
1, 17498, Note_off_c, 0, 66, 66
1, 17509, Note_on_c, 0, 64, 69
1, 17509, Control_c, 0, 64, 54
1, 17524, Control_c, 0, 64, 64
1, 17530, Note_on_c, 0, 67, 69
1, 17538, Control_c, 0, 64, 67
1, 17553, Control_c, 0, 64, 65
1, 17568, Control_c, 0, 64, 61
1, 17583, Control_c, 0, 64, 38
1, 17589, Note_off_c, 0, 64, 58
1, 17589, Note_off_c, 0, 67, 61
1, 17598, Control_c, 0, 64, 0
1, 17602, Note_on_c, 0, 68, 65
1, 17604, Note_on_c, 0, 44, 55
1, 17609, Note_off_c, 0, 46, 61
1, 17625, Note_on_c, 0, 65, 62
1, 17643, Note_off_c, 0, 68, 57
1, 17657, Note_off_c, 0, 65, 66
1, 17661, Note_on_c, 0, 69, 74
1, 17689, Note_on_c, 0, 66, 59
1, 17721, Note_off_c, 0, 69, 62
1, 17743, Note_on_c, 0, 43, 67
1, 17745, Note_off_c, 0, 66, 64
1, 17746, Control_c, 0, 64, 27
1, 17750, Note_off_c, 0, 44, 61
1, 17756, Note_on_c, 0, 70, 68
1, 17761, Control_c, 0, 64, 40
1, 17765, Note_on_c, 0, 67, 59
1, 17774, Note_off_c, 0, 43, 64
1, 17776, Control_c, 0, 64, 56
1, 17791, Control_c, 0, 64, 67
1, 17805, Control_c, 0, 64, 85
1, 17818, Note_off_c, 0, 67, 61
1, 17820, Control_c, 0, 64, 97
1, 17825, Note_on_c, 0, 71, 58
1, 17835, Control_c, 0, 64, 101
1, 17839, Note_on_c, 0, 68, 62
1, 17849, Control_c, 0, 64, 103
1, 17853, Note_off_c, 0, 70, 61
1, 17864, Control_c, 0, 64, 105
1, 17879, Control_c, 0, 64, 103
1, 17894, Control_c, 0, 64, 84
1, 17896, Note_off_c, 0, 68, 60
1, 17899, Note_on_c, 0, 59, 57
1, 17905, Note_on_c, 0, 72, 71
1, 17908, Note_on_c, 0, 69, 67
1, 17909, Control_c, 0, 64, 64
1, 17911, Note_off_c, 0, 71, 56
1, 17911, Note_on_c, 0, 53, 48
1, 17920, Note_off_c, 0, 59, 62
1, 17924, Control_c, 0, 64, 43
1, 17938, Note_off_c, 0, 53, 55
1, 17938, Control_c, 0, 64, 0
1, 17946, Note_off_c, 0, 69, 60
1, 17957, Note_off_c, 0, 72, 62
1, 17972, Note_on_c, 0, 70, 53
1, 17978, Note_on_c, 0, 73, 54
1, 18021, Note_off_c, 0, 73, 59
1, 18035, Note_off_c, 0, 70, 62
1, 18052, Note_on_c, 0, 45, 52
1, 18056, Note_on_c, 0, 71, 48
1, 18057, Note_on_c, 0, 74, 53
1, 18111, Note_off_c, 0, 74, 57
1, 18126, Note_off_c, 0, 71, 66
1, 18136, Note_on_c, 0, 75, 61
1, 18162, Note_on_c, 0, 72, 56
1, 18190, Note_off_c, 0, 45, 60
1, 18196, Note_off_c, 0, 72, 62
1, 18210, Note_on_c, 0, 43, 45
1, 18218, Note_on_c, 0, 76, 57
1, 18248, Note_off_c, 0, 75, 34
1, 18258, Note_on_c, 0, 73, 50
1, 18295, Note_off_c, 0, 76, 59
1, 18298, Note_off_c, 0, 73, 60
1, 18335, Note_on_c, 0, 77, 46
1, 18336, Note_on_c, 0, 74, 45
1, 18349, Note_off_c, 0, 43, 51
1, 18412, Note_off_c, 0, 74, 54
1, 18445, Note_off_c, 0, 77, 61
1, 18456, Note_on_c, 0, 42, 34
1, 18459, Note_on_c, 0, 78, 49
1, 18474, Note_on_c, 0, 75, 39
1, 18554, Control_c, 0, 64, 19
1, 18569, Control_c, 0, 64, 28
1, 18584, Control_c, 0, 64, 34
1, 18593, Note_off_c, 0, 75, 62
1, 18599, Control_c, 0, 64, 43
1, 18605, Note_off_c, 0, 78, 66
1, 18614, Control_c, 0, 64, 55
1, 18628, Control_c, 0, 64, 65
1, 18643, Control_c, 0, 64, 75
1, 18658, Control_c, 0, 64, 83
1, 18672, Control_c, 0, 64, 87
1, 18677, Note_on_c, 0, 54, 64
1, 18687, Control_c, 0, 64, 91
1, 18692, Note_off_c, 0, 42, 55
1, 18702, Control_c, 0, 64, 101
1, 18707, Note_off_c, 0, 54, 66
1, 18717, Control_c, 0, 64, 127
1, 18732, Control_c, 0, 67, 121
1, 18746, Control_c, 0, 67, 103
1, 18761, Control_c, 0, 67, 88
1, 18776, Control_c, 0, 67, 78
1, 18791, Control_c, 0, 67, 70
1, 18807, Control_c, 0, 67, 58
1, 18821, Control_c, 0, 67, 44
1, 18836, Control_c, 0, 67, 29
1, 18851, Control_c, 0, 67, 18
1, 18866, Control_c, 0, 67, 11
1, 18880, Control_c, 0, 67, 0
1, 18885, Note_on_c, 0, 83, 91
1, 18891, Note_on_c, 0, 78, 75
1, 18891, Note_on_c, 0, 99, 74
1, 18891, Note_on_c, 0, 95, 74
1, 18905, Note_on_c, 0, 75, 65
1, 18910, Note_off_c, 0, 83, 76
1, 18914, Note_off_c, 0, 78, 73
1, 18924, Note_off_c, 0, 75, 64
1, 18966, Note_off_c, 0, 95, 59
1, 18967, Note_on_c, 0, 100, 76
1, 18975, Note_on_c, 0, 97, 77
1, 18975, Note_off_c, 0, 99, 58
1, 19024, Note_off_c, 0, 97, 64
1, 19028, Note_off_c, 0, 100, 64
1, 19042, Note_on_c, 0, 66, 78
1, 19051, Note_on_c, 0, 95, 74
1, 19058, Note_off_c, 0, 66, 69
1, 19091, Note_off_c, 0, 95, 57
1, 19102, Note_on_c, 0, 94, 82
1, 19124, Note_on_c, 0, 97, 57
1, 19145, Note_off_c, 0, 97, 62
1, 19151, Note_off_c, 0, 94, 58
1, 19178, Note_on_c, 0, 92, 80
1, 19180, Note_on_c, 0, 95, 79
1, 19188, Note_on_c, 0, 76, 80
1, 19188, Note_on_c, 0, 82, 90
1, 19204, Note_on_c, 0, 73, 52
1, 19204, Note_off_c, 0, 82, 75
1, 19212, Note_off_c, 0, 76, 67
1, 19225, Note_off_c, 0, 92, 65
1, 19228, Note_off_c, 0, 73, 61
1, 19250, Note_on_c, 0, 94, 78
1, 19252, Note_off_c, 0, 95, 66
1, 19257, Note_on_c, 0, 97, 57
1, 19293, Note_off_c, 0, 97, 63
1, 19301, Note_off_c, 0, 94, 65
1, 19320, Note_on_c, 0, 92, 80
1, 19327, Note_on_c, 0, 66, 90
1, 19343, Note_off_c, 0, 92, 69
1, 19358, Note_off_c, 0, 66, 53
1, 19391, Note_on_c, 0, 90, 76
1, 19401, Note_on_c, 0, 94, 63
1, 19454, Note_off_c, 0, 94, 65
1, 19455, Note_on_c, 0, 92, 84
1, 19458, Note_off_c, 0, 90, 67
1, 19467, Note_on_c, 0, 80, 90
1, 19470, Note_on_c, 0, 88, 74
1, 19476, Note_on_c, 0, 75, 66
1, 19479, Note_on_c, 0, 71, 66
1, 19483, Note_off_c, 0, 80, 74
1, 19497, Note_off_c, 0, 71, 69
1, 19501, Note_off_c, 0, 75, 66
1, 19540, Note_on_c, 0, 94, 75
1, 19549, Note_off_c, 0, 88, 64
1, 19550, Note_on_c, 0, 90, 78
1, 19577, Note_off_c, 0, 92, 64
1, 19598, Note_off_c, 0, 94, 66
1, 19598, Note_off_c, 0, 90, 64
1, 19607, Note_on_c, 0, 66, 92
1, 19613, Note_on_c, 0, 88, 75
1, 19657, Note_off_c, 0, 66, 56
1, 19667, Note_on_c, 0, 78, 88
1, 19671, Note_off_c, 0, 88, 56
1, 19685, Note_on_c, 0, 87, 80
1, 19707, Note_off_c, 0, 78, 66
1, 19725, Note_on_c, 0, 90, 18
1, 19737, Note_on_c, 0, 91, 35
1, 19738, Note_off_c, 0, 87, 63
1, 19746, Note_on_c, 0, 75, 75
1, 19751, Note_on_c, 0, 88, 84
1, 19753, Note_on_c, 0, 85, 80
1, 19759, Note_on_c, 0, 76, 77
1, 19762, Note_off_c, 0, 75, 65
1, 19766, Note_on_c, 0, 70, 61
1, 19774, Note_off_c, 0, 76, 72
1, 19774, Note_off_c, 0, 91, 49
1, 19780, Note_off_c, 0, 90, 55
1, 19788, Note_off_c, 0, 70, 62
1, 19804, Note_off_c, 0, 85, 65
1, 19830, Note_on_c, 0, 87, 78
1, 19840, Note_on_c, 0, 90, 66
1, 19841, Note_off_c, 0, 88, 61
1, 19871, Note_off_c, 0, 90, 68
1, 19873, Control_c, 0, 67, 11
1, 19887, Note_on_c, 0, 85, 80
1, 19888, Control_c, 0, 67, 20
1, 19890, Note_off_c, 0, 87, 63
1, 19899, Note_on_c, 0, 66, 82
1, 19903, Control_c, 0, 64, 108
1, 19903, Control_c, 0, 67, 32
1, 19906, Note_off_c, 0, 85, 72
1, 19918, Control_c, 0, 64, 63
1, 19918, Control_c, 0, 67, 53
1, 19923, Note_off_c, 0, 66, 68
1, 19932, Control_c, 0, 64, 29
1, 19932, Control_c, 0, 67, 74
1, 19947, Control_c, 0, 64, 0
1, 19947, Control_c, 0, 67, 94
1, 19958, Note_on_c, 0, 83, 71
1, 19962, Control_c, 0, 67, 113
1, 19966, Note_on_c, 0, 87, 57
1, 19977, Control_c, 0, 67, 127
1, 20021, Note_off_c, 0, 87, 57
1, 20028, Note_on_c, 0, 85, 75
1, 20030, Note_off_c, 0, 83, 67
1, 20036, Note_on_c, 0, 54, 93
1, 20040, Note_on_c, 0, 82, 65
1, 20057, Note_off_c, 0, 54, 71
1, 20087, Note_off_c, 0, 85, 64
1, 20095, Note_on_c, 0, 83, 71
1, 20099, Note_off_c, 0, 82, 56
1, 20105, Note_on_c, 0, 87, 63
1, 20158, Note_off_c, 0, 87, 63
1, 20163, Note_off_c, 0, 83, 65
1, 20177, Note_on_c, 0, 42, 76
1, 20177, Note_on_c, 0, 82, 73
1, 20183, Note_on_c, 0, 85, 36
1, 20197, Note_off_c, 0, 82, 72
1, 20199, Control_c, 0, 64, 18
1, 20202, Note_off_c, 0, 42, 65
1, 20211, Note_off_c, 0, 85, 48
1, 20214, Control_c, 0, 64, 0
1, 20250, Note_on_c, 0, 80, 71
1, 20259, Note_on_c, 0, 83, 55
1, 20303, Note_off_c, 0, 83, 65
1, 20310, Note_on_c, 0, 30, 88
1, 20320, Note_off_c, 0, 80, 64
1, 20328, Note_on_c, 0, 82, 63
1, 20331, Note_off_c, 0, 30, 67
1, 20332, Note_on_c, 0, 78, 67
1, 20369, Note_off_c, 0, 82, 55
1, 20385, Note_off_c, 0, 78, 65
1, 20387, Note_on_c, 0, 80, 73
1, 20462, Note_off_c, 0, 80, 63
1, 20463, Note_on_c, 0, 82, 40
1, 20468, Note_on_c, 0, 42, 77
1, 20479, Note_on_c, 0, 78, 72
1, 20490, Note_off_c, 0, 82, 59
1, 20493, Note_off_c, 0, 42, 65
1, 20495, Note_off_c, 0, 78, 70
1, 20548, Note_on_c, 0, 76, 65
1, 20548, Note_on_c, 0, 80, 67
1, 20602, Note_off_c, 0, 76, 0
1, 20602, Note_on_c, 0, 76, 31
1, 20607, Note_off_c, 0, 80, 63
1, 20613, Note_on_c, 0, 54, 83
1, 20613, Note_on_c, 0, 78, 71
1, 20624, Note_off_c, 0, 76, 60
1, 20629, Note_on_c, 0, 75, 64
1, 20636, Note_off_c, 0, 54, 71
1, 20637, Control_c, 0, 64, 33
1, 20645, Note_off_c, 0, 78, 59
1, 20652, Control_c, 0, 64, 39
1, 20667, Control_c, 0, 64, 43
1, 20681, Control_c, 0, 64, 48
1, 20691, Note_on_c, 0, 76, 73
1, 20696, Note_on_c, 0, 80, 52
1, 20696, Control_c, 0, 64, 55
1, 20711, Control_c, 0, 64, 61
1, 20724, Note_off_c, 0, 80, 65
1, 20726, Control_c, 0, 64, 63
1, 20736, Note_off_c, 0, 75, 28
1, 20741, Control_c, 0, 64, 61
1, 20749, Note_off_c, 0, 76, 64
1, 20752, Note_on_c, 0, 66, 80
1, 20755, Control_c, 0, 64, 54
1, 20770, Control_c, 0, 64, 36
1, 20774, Note_off_c, 0, 66, 70
1, 20785, Control_c, 0, 64, 0
1, 20811, Note_on_c, 0, 76, 69
1, 20869, Note_off_c, 0, 76, 63
1, 20907, Note_on_c, 0, 47, 67
1, 20925, Note_on_c, 0, 71, 60
1, 20928, Note_on_c, 0, 75, 43
1, 20968, Note_off_c, 0, 75, 47
1, 20981, Note_off_c, 0, 71, 62
1, 20999, Note_on_c, 0, 76, 58
1, 21017, Note_on_c, 0, 73, 60
1, 21022, Control_c, 0, 64, 24
1, 21037, Control_c, 0, 64, 30
1, 21052, Control_c, 0, 64, 37
1, 21067, Control_c, 0, 64, 46
1, 21070, Note_off_c, 0, 76, 36
1, 21073, Note_off_c, 0, 73, 62
1, 21081, Control_c, 0, 64, 54
1, 21091, Note_on_c, 0, 77, 66
1, 21094, Note_on_c, 0, 54, 62
1, 21096, Control_c, 0, 64, 61
1, 21111, Control_c, 0, 64, 66
1, 21115, Note_on_c, 0, 72, 28
1, 21124, Note_on_c, 0, 74, 17
1, 21126, Control_c, 0, 64, 69
1, 21141, Control_c, 0, 64, 70
1, 21154, Note_off_c, 0, 77, 63
1, 21158, Note_on_c, 0, 78, 68
1, 21159, Note_off_c, 0, 72, 51
1, 21163, Control_c, 0, 64, 71
1, 21169, Note_off_c, 0, 74, 56
1, 21172, Note_off_c, 0, 47, 61
1, 21174, Note_on_c, 0, 75, 50
1, 21178, Control_c, 0, 64, 72
1, 21193, Control_c, 0, 64, 74
1, 21200, Note_off_c, 0, 78, 51
1, 21207, Control_c, 0, 64, 75
1, 21222, Note_off_c, 0, 54, 63
1, 21222, Control_c, 0, 64, 76
1, 21222, Control_c, 0, 67, 118
1, 21223, Note_off_c, 0, 75, 57
1, 21224, Note_on_c, 0, 76, 67
1, 21231, Note_on_c, 0, 59, 77
1, 21237, Note_on_c, 0, 79, 63
1, 21237, Control_c, 0, 64, 77
1, 21237, Control_c, 0, 67, 106
1, 21252, Control_c, 0, 64, 79
1, 21252, Control_c, 0, 67, 95
1, 21267, Control_c, 0, 64, 80
1, 21267, Control_c, 0, 67, 88
1, 21281, Control_c, 0, 64, 80
1, 21281, Control_c, 0, 67, 82
1, 21294, Note_off_c, 0, 76, 64
1, 21294, Note_off_c, 0, 79, 60
1, 21296, Control_c, 0, 64, 81
1, 21296, Control_c, 0, 67, 78
1, 21306, Note_on_c, 0, 77, 74
1, 21311, Note_on_c, 0, 80, 66
1, 21311, Control_c, 0, 67, 74
1, 21326, Control_c, 0, 67, 72
1, 21341, Control_c, 0, 64, 81
1, 21341, Control_c, 0, 67, 71
1, 21355, Control_c, 0, 64, 82
1, 21357, Note_off_c, 0, 80, 63
1, 21359, Note_off_c, 0, 77, 60
1, 21360, Note_on_c, 0, 81, 78
1, 21361, Note_on_c, 0, 63, 82
1, 21366, Note_off_c, 0, 59, 64
1, 21371, Control_c, 0, 64, 83
1, 21383, Note_off_c, 0, 63, 72
1, 21387, Note_on_c, 0, 78, 76
1, 21416, Control_c, 0, 64, 83
1, 21441, Note_off_c, 0, 81, 62
1, 21445, Note_on_c, 0, 79, 66
1, 21445, Note_on_c, 0, 82, 79
1, 21445, Note_off_c, 0, 78, 65
1, 21504, Control_c, 0, 64, 81
1, 21504, Control_c, 0, 67, 71
1, 21512, Note_on_c, 0, 49, 89
1, 21519, Control_c, 0, 64, 75
1, 21521, Note_off_c, 0, 79, 61
1, 21521, Note_on_c, 0, 83, 69
1, 21527, Note_on_c, 0, 80, 77
1, 21534, Control_c, 0, 64, 66
1, 21549, Control_c, 0, 64, 56
1, 21562, Note_off_c, 0, 82, 63
1, 21564, Control_c, 0, 64, 38
1, 21564, Control_c, 0, 67, 70
1, 21571, Note_off_c, 0, 83, 64
1, 21578, Note_on_c, 0, 79, 62
1, 21578, Control_c, 0, 64, 0
1, 21580, Note_off_c, 0, 80, 64
1, 21593, Control_c, 0, 67, 70
1, 21608, Control_c, 0, 67, 69
1, 21622, Control_c, 0, 67, 69
1, 21631, Note_off_c, 0, 79, 49
1, 21637, Control_c, 0, 64, 19
1, 21637, Control_c, 0, 67, 68
1, 21645, Note_on_c, 0, 81, 70
1, 21652, Control_c, 0, 64, 29
1, 21652, Control_c, 0, 67, 68
1, 21653, Note_on_c, 0, 78, 66
1, 21654, Note_on_c, 0, 77, 23
1, 21667, Note_on_c, 0, 52, 75
1, 21667, Control_c, 0, 64, 36
1, 21682, Control_c, 0, 64, 44
1, 21682, Control_c, 0, 67, 67
1, 21696, Control_c, 0, 64, 52
1, 21696, Control_c, 0, 67, 66
1, 21711, Control_c, 0, 64, 58
1, 21711, Control_c, 0, 67, 63
1, 21718, Note_off_c, 0, 77, 0
1, 21718, Note_on_c, 0, 77, 60
1, 21726, Control_c, 0, 64, 61
1, 21726, Control_c, 0, 67, 61
1, 21737, Note_on_c, 0, 80, 65
1, 21740, Note_off_c, 0, 81, 63
1, 21741, Control_c, 0, 64, 64
1, 21741, Control_c, 0, 67, 59
1, 21744, Note_off_c, 0, 78, 40
1, 21756, Control_c, 0, 64, 65
1, 21756, Control_c, 0, 67, 58
1, 21763, Note_off_c, 0, 80, 68
1, 21771, Control_c, 0, 64, 65
1, 21771, Control_c, 0, 67, 55
1, 21771, Note_off_c, 0, 49, 61
1, 21771, Note_off_c, 0, 77, 63
1, 21786, Control_c, 0, 67, 54
1, 21795, Note_on_c, 0, 58, 73
1, 21795, Note_off_c, 0, 52, 64
1, 21801, Control_c, 0, 67, 52
1, 21801, Note_on_c, 0, 76, 77
1, 21816, Control_c, 0, 64, 66
1, 21816, Control_c, 0, 67, 51
1, 21825, Note_on_c, 0, 79, 66
1, 21830, Control_c, 0, 67, 51
1, 21845, Control_c, 0, 64, 66
1, 21860, Control_c, 0, 64, 67
1, 21860, Control_c, 0, 67, 50
1, 21870, Note_on_c, 0, 78, 74
1, 21872, Note_off_c, 0, 76, 65
1, 21878, Note_on_c, 0, 75, 79
1, 21886, Note_off_c, 0, 79, 63
1, 21930, Note_off_c, 0, 78, 63
1, 21941, Note_on_c, 0, 61, 76
1, 21941, Note_off_c, 0, 75, 60
1, 21953, Note_off_c, 0, 58, 62
1, 21959, Note_on_c, 0, 74, 76
1, 21966, Note_off_c, 0, 61, 67
1, 21975, Note_on_c, 0, 77, 68
1, 22012, Note_off_c, 0, 74, 63
1, 22021, Note_on_c, 0, 76, 66
1, 22030, Note_on_c, 0, 73, 76
1, 22030, Control_c, 0, 67, 51
1, 22045, Control_c, 0, 67, 51
1, 22060, Note_off_c, 0, 77, 59
1, 22060, Control_c, 0, 64, 66
1, 22060, Control_c, 0, 67, 52
1, 22075, Control_c, 0, 64, 61
1, 22075, Control_c, 0, 67, 53
1, 22089, Note_on_c, 0, 51, 76
1, 22090, Control_c, 0, 64, 50
1, 22090, Control_c, 0, 67, 54
1, 22100, Note_off_c, 0, 76, 65
1, 22103, Note_on_c, 0, 72, 75
1, 22104, Control_c, 0, 64, 27
1, 22104, Control_c, 0, 67, 54
1, 22119, Control_c, 0, 64, 0
1, 22119, Control_c, 0, 67, 55
1, 22123, Note_off_c, 0, 72, 71
1, 22134, Control_c, 0, 67, 56
1, 22135, Note_off_c, 0, 73, 38
1, 22141, Note_on_c, 0, 75, 12
1, 22142, Note_off_c, 0, 75, 127
1, 22149, Control_c, 0, 67, 57
1, 22164, Control_c, 0, 64, 25
1, 22164, Control_c, 0, 67, 58
1, 22173, Note_on_c, 0, 71, 71
1, 22174, Note_on_c, 0, 74, 61
1, 22179, Control_c, 0, 64, 38
1, 22179, Control_c, 0, 67, 59
1, 22194, Control_c, 0, 64, 48
1, 22194, Control_c, 0, 67, 62
1, 22209, Control_c, 0, 64, 54
1, 22209, Control_c, 0, 67, 65
1, 22224, Control_c, 0, 64, 52
1, 22224, Control_c, 0, 67, 71
1, 22235, Note_off_c, 0, 74, 63
1, 22239, Control_c, 0, 64, 40
1, 22239, Control_c, 0, 67, 79
1, 22242, Note_off_c, 0, 71, 65
1, 22248, Note_on_c, 0, 56, 65
1, 22250, Note_on_c, 0, 70, 72
1, 22252, Note_on_c, 0, 73, 51
1, 22253, Control_c, 0, 64, 0
1, 22253, Control_c, 0, 67, 85
1, 22268, Control_c, 0, 67, 93
1, 22275, Note_off_c, 0, 73, 65
1, 22283, Control_c, 0, 64, 14
1, 22283, Control_c, 0, 67, 101
1, 22289, Note_off_c, 0, 70, 55
1, 22298, Control_c, 0, 64, 37
1, 22298, Control_c, 0, 67, 111
1, 22313, Control_c, 0, 64, 52
1, 22313, Control_c, 0, 67, 122
1, 22318, Note_on_c, 0, 69, 73
1, 22327, Control_c, 0, 64, 58
1, 22327, Control_c, 0, 67, 127
1, 22336, Note_on_c, 0, 72, 63
1, 22342, Control_c, 0, 64, 52
1, 22357, Control_c, 0, 64, 30
1, 22358, Note_on_c, 0, 59, 59
1, 22372, Control_c, 0, 64, 0
1, 22374, Note_off_c, 0, 72, 58
1, 22387, Control_c, 0, 64, 10
1, 22393, Note_off_c, 0, 69, 63
1, 22394, Note_on_c, 0, 71, 61
1, 22401, Control_c, 0, 64, 32
1, 22403, Note_on_c, 0, 68, 69
1, 22416, Control_c, 0, 64, 44
1, 22431, Control_c, 0, 64, 47
1, 22445, Control_c, 0, 64, 38
1, 22460, Control_c, 0, 64, 25
1, 22465, Note_off_c, 0, 71, 62
1, 22467, Note_off_c, 0, 51, 61
1, 22468, Note_off_c, 0, 68, 61
1, 22472, Note_on_c, 0, 69, 68
1, 22474, Note_on_c, 0, 72, 64
1, 22475, Control_c, 0, 64, 26
1, 22490, Control_c, 0, 64, 36
1, 22505, Control_c, 0, 64, 44
1, 22519, Control_c, 0, 64, 46
1, 22525, Note_on_c, 0, 63, 56
1, 22534, Note_off_c, 0, 72, 63
1, 22534, Control_c, 0, 64, 38
1, 22537, Note_off_c, 0, 69, 63
1, 22538, Note_on_c, 0, 70, 67
1, 22543, Note_on_c, 0, 73, 68
1, 22549, Control_c, 0, 64, 16
1, 22564, Control_c, 0, 64, 18
1, 22579, Control_c, 0, 64, 22
1, 22594, Control_c, 0, 64, 23
1, 22597, Note_off_c, 0, 70, 61
1, 22604, Note_off_c, 0, 63, 53
1, 22606, Note_off_c, 0, 73, 63
1, 22609, Control_c, 0, 64, 18
1, 22611, Note_on_c, 0, 71, 67
1, 22618, Note_on_c, 0, 74, 68
1, 22624, Control_c, 0, 64, 0
1, 22675, Control_c, 0, 64, 9
1, 22686, Note_off_c, 0, 59, 60
1, 22689, Note_off_c, 0, 74, 61
1, 22690, Control_c, 0, 64, 0
1, 22703, Note_off_c, 0, 71, 67
1, 22705, Note_on_c, 0, 51, 54
1, 22712, Note_on_c, 0, 75, 68
1, 22713, Note_on_c, 0, 72, 67
1, 22717, Note_off_c, 0, 56, 61
1, 22780, Note_off_c, 0, 72, 62
1, 22788, Note_on_c, 0, 76, 65
1, 22808, Note_on_c, 0, 73, 62
1, 22832, Note_off_c, 0, 75, 51
1, 22853, Note_off_c, 0, 76, 63
1, 22856, Note_on_c, 0, 55, 51
1, 22871, Note_off_c, 0, 73, 65
1, 22880, Note_on_c, 0, 77, 61
1, 22894, Note_on_c, 0, 74, 52
1, 22947, Note_off_c, 0, 77, 61
1, 22963, Note_on_c, 0, 78, 67
1, 22964, Note_off_c, 0, 74, 66
1, 22999, Note_on_c, 0, 75, 36
1, 23050, Note_off_c, 0, 78, 57
1, 23059, Note_on_c, 0, 61, 43
1, 23069, Note_off_c, 0, 75, 57
1, 23074, Note_on_c, 0, 79, 53
1, 23089, Note_on_c, 0, 76, 53
1, 23149, Note_off_c, 0, 76, 61
1, 23161, Note_off_c, 0, 79, 54
1, 23164, Note_on_c, 0, 78, 64
1, 23165, Control_c, 0, 64, 18
1, 23180, Control_c, 0, 64, 31
1, 23193, Note_off_c, 0, 78, 68
1, 23195, Control_c, 0, 64, 42
1, 23203, Note_on_c, 0, 75, 44
1, 23210, Control_c, 0, 64, 51
1, 23217, Note_off_c, 0, 51, 61
1, 23224, Control_c, 0, 64, 59
1, 23239, Control_c, 0, 64, 62
1, 23254, Control_c, 0, 64, 63
1, 23267, Note_off_c, 0, 75, 54
1, 23268, Control_c, 0, 64, 64
1, 23273, Note_on_c, 0, 63, 55
1, 23283, Control_c, 0, 64, 64
1, 23294, Note_on_c, 0, 77, 51
1, 23298, Control_c, 0, 64, 65
1, 23303, Note_on_c, 0, 74, 52
1, 23312, Note_off_c, 0, 63, 65
1, 23313, Control_c, 0, 64, 65
1, 23318, Note_off_c, 0, 61, 63
1, 23322, Note_off_c, 0, 55, 61
1, 23357, Control_c, 0, 64, 66
1, 23401, Note_off_c, 0, 74, 63
1, 23425, Note_off_c, 0, 77, 35
1, 23427, Note_on_c, 0, 76, 47
1, 23464, Note_on_c, 0, 73, 41
1, 23481, Note_off_c, 0, 76, 0
1, 23481, Note_on_c, 0, 76, 19
1, 23528, Control_c, 0, 64, 65
1, 23572, Control_c, 0, 64, 65
1, 23587, Control_c, 0, 64, 64
1, 23601, Control_c, 0, 64, 63
1, 23616, Control_c, 0, 64, 61
1, 23631, Control_c, 0, 64, 58
1, 23636, Note_on_c, 0, 44, 37
1, 23646, Control_c, 0, 64, 53
1, 23661, Note_off_c, 0, 76, 44
1, 23661, Control_c, 0, 64, 47
1, 23676, Control_c, 0, 64, 39
1, 23691, Control_c, 0, 64, 28
1, 23706, Control_c, 0, 64, 14
1, 23720, Note_off_c, 0, 73, 47
1, 23720, Control_c, 0, 64, 0
1, 23721, Note_on_c, 0, 71, 21
1, 23735, Note_on_c, 0, 75, 24
1, 23810, Control_c, 0, 64, 11
1, 23825, Control_c, 0, 64, 22
1, 23840, Control_c, 0, 64, 29
1, 23855, Note_off_c, 0, 75, 55
1, 23855, Control_c, 0, 64, 36
1, 23870, Control_c, 0, 64, 42
1, 23879, Note_off_c, 0, 71, 42
1, 23884, Control_c, 0, 64, 49
1, 23887, Note_on_c, 0, 76, 30
1, 23891, Note_on_c, 0, 73, 38
1, 23899, Control_c, 0, 64, 54
1, 23914, Control_c, 0, 64, 57
1, 23929, Control_c, 0, 64, 60
1, 23944, Control_c, 0, 64, 60
1, 23959, Control_c, 0, 64, 61
1, 23973, Control_c, 0, 64, 61
1, 23980, Note_off_c, 0, 76, 44
1, 23986, Note_on_c, 0, 75, 43
1, 23988, Control_c, 0, 64, 62
1, 23995, Note_off_c, 0, 73, 37
1, 23999, Note_on_c, 0, 71, 36
1, 24003, Control_c, 0, 64, 62
1, 24019, Note_on_c, 0, 51, 29
1, 24023, Note_off_c, 0, 44, 34
1, 24069, Note_off_c, 0, 71, 43
1, 24079, Note_off_c, 0, 75, 36
1, 24105, Note_on_c, 0, 73, 40
1, 24109, Note_on_c, 0, 76, 27
1, 24165, Note_off_c, 0, 73, 47
1, 24166, Note_off_c, 0, 76, 46
1, 24178, Note_on_c, 0, 59, 37
1, 24194, Note_on_c, 0, 71, 44
1, 24204, Note_on_c, 0, 75, 45
1, 24252, Note_off_c, 0, 71, 44
1, 24256, Note_off_c, 0, 75, 47
1, 24277, Note_on_c, 0, 73, 50
1, 24277, Control_c, 0, 64, 62
1, 24281, Note_on_c, 0, 76, 44
1, 24292, Note_off_c, 0, 59, 35
1, 24306, Control_c, 0, 64, 61
1, 24336, Control_c, 0, 64, 61
1, 24344, Note_on_c, 0, 43, 52
1, 24364, Note_off_c, 0, 76, 39
1, 24366, Control_c, 0, 64, 60
1, 24369, Note_on_c, 0, 75, 53
1, 24380, Control_c, 0, 64, 60
1, 24385, Note_on_c, 0, 71, 39
1, 24389, Note_off_c, 0, 73, 33
1, 24395, Control_c, 0, 64, 59
1, 24410, Control_c, 0, 64, 59
1, 24423, Note_off_c, 0, 75, 47
1, 24424, Control_c, 0, 64, 58
1, 24427, Note_off_c, 0, 71, 48
1, 24435, Note_off_c, 0, 51, 40
1, 24439, Control_c, 0, 64, 57
1, 24454, Control_c, 0, 64, 55
1, 24468, Note_on_c, 0, 73, 36
1, 24469, Control_c, 0, 64, 53
1, 24484, Control_c, 0, 64, 49
1, 24498, Note_on_c, 0, 76, 17
1, 24499, Control_c, 0, 64, 44
1, 24511, Note_off_c, 0, 73, 51
1, 24513, Control_c, 0, 64, 37
1, 24516, Note_on_c, 0, 44, 54
1, 24519, Note_off_c, 0, 43, 59
1, 24528, Control_c, 0, 64, 27
1, 24538, Note_off_c, 0, 76, 45
1, 24542, Note_on_c, 0, 71, 39
1, 24543, Control_c, 0, 64, 12
1, 24546, Note_on_c, 0, 75, 48
1, 24558, Control_c, 0, 64, 0
1, 24577, Note_off_c, 0, 75, 57
1, 24612, Note_off_c, 0, 71, 44
1, 24614, Note_on_c, 0, 73, 46
1, 24618, Control_c, 0, 64, 9
1, 24633, Control_c, 0, 64, 20
1, 24648, Control_c, 0, 64, 28
1, 24651, Note_on_c, 0, 76, 18
1, 24662, Control_c, 0, 64, 35
1, 24663, Note_off_c, 0, 73, 56
1, 24673, Note_on_c, 0, 75, 57
1, 24674, Note_off_c, 0, 44, 61
1, 24677, Control_c, 0, 64, 41
1, 24686, Note_on_c, 0, 51, 53
1, 24690, Note_off_c, 0, 76, 51
1, 24692, Control_c, 0, 64, 48
1, 24695, Note_on_c, 0, 71, 38
1, 24707, Control_c, 0, 64, 55
1, 24718, Note_off_c, 0, 75, 56
1, 24722, Control_c, 0, 64, 59
1, 24737, Control_c, 0, 64, 61
1, 24744, Note_off_c, 0, 71, 52
1, 24752, Control_c, 0, 64, 62
1, 24770, Note_on_c, 0, 73, 48
1, 24798, Note_on_c, 0, 76, 14
1, 24807, Note_off_c, 0, 73, 55
1, 24827, Note_on_c, 0, 59, 61
1, 24835, Note_on_c, 0, 75, 56
1, 24841, Note_off_c, 0, 76, 53
1, 24848, Note_off_c, 0, 59, 63
1, 24851, Note_on_c, 0, 71, 44
1, 24871, Note_off_c, 0, 51, 66
1, 24876, Note_off_c, 0, 75, 53
1, 24895, Note_off_c, 0, 71, 52
1, 24908, Note_on_c, 0, 73, 61
1, 24933, Note_on_c, 0, 76, 47
1, 24964, Note_off_c, 0, 76, 55
1, 24972, Note_off_c, 0, 73, 60
1, 24978, Note_on_c, 0, 39, 65
1, 24993, Note_on_c, 0, 71, 51
1, 24995, Note_on_c, 0, 75, 57
1, 24996, Control_c, 0, 64, 62
1, 25025, Note_off_c, 0, 75, 55
1, 25057, Note_off_c, 0, 71, 60
1, 25062, Note_on_c, 0, 76, 51
1, 25070, Control_c, 0, 64, 61
1, 25077, Note_on_c, 0, 73, 58
1, 25085, Control_c, 0, 64, 60
1, 25100, Control_c, 0, 64, 57
1, 25106, Note_off_c, 0, 76, 56
1, 25114, Control_c, 0, 64, 51
1, 25118, Note_off_c, 0, 73, 58
1, 25125, Note_on_c, 0, 44, 69
1, 25129, Control_c, 0, 64, 40
1, 25139, Note_off_c, 0, 39, 64
1, 25140, Note_on_c, 0, 71, 53
1, 25144, Control_c, 0, 64, 27
1, 25146, Note_on_c, 0, 75, 45
1, 25159, Control_c, 0, 64, 11
1, 25173, Control_c, 0, 64, 0
1, 25181, Note_off_c, 0, 75, 52
1, 25188, Control_c, 0, 64, 9
1, 25194, Note_off_c, 0, 71, 62
1, 25203, Control_c, 0, 64, 18
1, 25205, Note_on_c, 0, 73, 68
1, 25214, Note_on_c, 0, 76, 47
1, 25218, Control_c, 0, 64, 26
1, 25233, Control_c, 0, 64, 33
1, 25247, Control_c, 0, 64, 38
1, 25262, Control_c, 0, 64, 43
1, 25271, Note_off_c, 0, 73, 64
1, 25274, Note_on_c, 0, 51, 66
1, 25277, Control_c, 0, 64, 48
1, 25282, Note_on_c, 0, 75, 57
1, 25292, Control_c, 0, 64, 52
1, 25294, Note_on_c, 0, 71, 55
1, 25307, Control_c, 0, 64, 54
1, 25308, Note_off_c, 0, 44, 59
1, 25315, Note_off_c, 0, 76, 42
1, 25321, Control_c, 0, 64, 56
1, 25327, Note_off_c, 0, 75, 61
1, 25333, Note_off_c, 0, 71, 66
1, 25336, Control_c, 0, 64, 56
1, 25342, Note_on_c, 0, 70, 69
1, 25342, Note_on_c, 0, 74, 64
1, 25386, Note_off_c, 0, 51, 63
1, 25399, Note_off_c, 0, 70, 61
1, 25412, Control_c, 0, 64, 56
1, 25418, Note_on_c, 0, 71, 67
1, 25419, Note_off_c, 0, 74, 57
1, 25426, Note_on_c, 0, 59, 71
1, 25432, Note_on_c, 0, 75, 63
1, 25456, Control_c, 0, 64, 55
1, 25470, Control_c, 0, 64, 55
1, 25474, Note_off_c, 0, 71, 61
1, 25477, Note_off_c, 0, 75, 58
1, 25484, Note_on_c, 0, 76, 63
1, 25485, Control_c, 0, 64, 54
1, 25488, Note_on_c, 0, 73, 73
1, 25500, Control_c, 0, 64, 54
1, 25515, Control_c, 0, 64, 52
1, 25530, Control_c, 0, 64, 50
1, 25531, Note_off_c, 0, 59, 38
1, 25545, Control_c, 0, 64, 48
1, 25554, Note_off_c, 0, 73, 63
1, 25558, Note_on_c, 0, 49, 80
1, 25559, Note_on_c, 0, 71, 61
1, 25560, Control_c, 0, 64, 46
1, 25562, Note_on_c, 0, 75, 64
1, 25575, Control_c, 0, 64, 43
1, 25590, Control_c, 0, 64, 40
1, 25605, Control_c, 0, 64, 34
1, 25610, Note_off_c, 0, 76, 44
1, 25615, Note_off_c, 0, 75, 60
1, 25616, Note_off_c, 0, 71, 66
1, 25617, Note_on_c, 0, 74, 66
1, 25619, Control_c, 0, 64, 27
1, 25622, Note_on_c, 0, 70, 72
1, 25634, Control_c, 0, 64, 13
1, 25657, Control_c, 0, 64, 0
1, 25689, Note_off_c, 0, 70, 62
1, 25706, Note_on_c, 0, 71, 68
1, 25707, Note_off_c, 0, 74, 62
1, 25712, Note_on_c, 0, 47, 70
1, 25713, Note_on_c, 0, 75, 54
1, 25720, Note_off_c, 0, 49, 63
1, 25765, Note_off_c, 0, 71, 64
1, 25768, Note_on_c, 0, 76, 63
1, 25775, Note_off_c, 0, 75, 62
1, 25776, Note_on_c, 0, 73, 77
1, 25843, Note_off_c, 0, 73, 64
1, 25844, Note_on_c, 0, 75, 58
1, 25847, Note_on_c, 0, 71, 65
1, 25856, Note_on_c, 0, 51, 74
1, 25867, Note_off_c, 0, 76, 63
1, 25879, Control_c, 0, 64, 13
1, 25891, Note_off_c, 0, 75, 58
1, 25894, Control_c, 0, 64, 28
1, 25895, Note_on_c, 0, 74, 65
1, 25901, Note_off_c, 0, 71, 66
1, 25908, Note_on_c, 0, 70, 73
1, 25908, Control_c, 0, 64, 37
1, 25923, Control_c, 0, 64, 45
1, 25938, Control_c, 0, 64, 53
1, 25953, Control_c, 0, 64, 57
1, 25962, Note_off_c, 0, 70, 62
1, 25968, Control_c, 0, 64, 59
1, 25968, Note_off_c, 0, 47, 34
1, 25974, Note_on_c, 0, 71, 74
1, 25983, Control_c, 0, 64, 60
1, 25986, Note_on_c, 0, 59, 78
1, 25987, Note_on_c, 0, 75, 74
1, 25989, Note_off_c, 0, 74, 58
1, 25997, Control_c, 0, 64, 61
1, 26007, Note_off_c, 0, 59, 68
1, 26025, Note_off_c, 0, 71, 63
1, 26030, Note_off_c, 0, 51, 58
1, 26040, Note_off_c, 0, 75, 64
1, 26041, Note_on_c, 0, 73, 73
1, 26074, Poly_aftertouch_c, 0, 53, 127
1, 26091, Note_off_c, 0, 73, 60
1, 26100, Poly_aftertouch_c, 0, 53, 0
1, 26108, Note_on_c, 0, 71, 66
1, 26114, Note_on_c, 0, 39, 71
1, 26116, Control_c, 0, 64, 61
1, 26123, Note_on_c, 0, 74, 54
1, 26131, Control_c, 0, 64, 62
1, 26164, Note_off_c, 0, 71, 58
1, 26180, Note_on_c, 0, 70, 78
1, 26185, Note_off_c, 0, 39, 56
1, 26191, Control_c, 0, 64, 61
1, 26206, Control_c, 0, 64, 58
1, 26217, Note_off_c, 0, 74, 63
1, 26220, Control_c, 0, 64, 51
1, 26235, Control_c, 0, 64, 37
1, 26250, Control_c, 0, 64, 0
1, 26281, Note_off_c, 0, 70, 59
1, 26287, Note_on_c, 0, 44, 75
1, 26299, Note_on_c, 0, 75, 62
1, 26302, Note_on_c, 0, 71, 65
1, 26323, Control_c, 0, 64, 21
1, 26338, Control_c, 0, 64, 29
1, 26343, Note_off_c, 0, 44, 61
1, 26353, Control_c, 0, 64, 36
1, 26364, Note_off_c, 0, 75, 50
1, 26368, Control_c, 0, 64, 44
1, 26376, Note_off_c, 0, 71, 62
1, 26382, Control_c, 0, 64, 51
1, 26405, Control_c, 0, 64, 57
1, 26406, Note_on_c, 0, 73, 69
1, 26409, Note_on_c, 0, 76, 51
1, 26419, Control_c, 0, 64, 60
1, 26434, Control_c, 0, 64, 62
1, 26442, Note_off_c, 0, 76, 51
1, 26449, Control_c, 0, 64, 63
1, 26484, Note_off_c, 0, 73, 38
1, 26493, Control_c, 0, 64, 63
1, 26496, Note_on_c, 0, 77, 67
1, 26496, Note_on_c, 0, 74, 60
1, 26508, Control_c, 0, 64, 64
1, 26521, Note_on_c, 0, 68, 70
1, 26523, Control_c, 0, 64, 64
1, 26543, Note_on_c, 0, 63, 46
1, 26551, Note_off_c, 0, 68, 60
1, 26553, Control_c, 0, 64, 65
1, 26554, Note_off_c, 0, 77, 63
1, 26555, Note_off_c, 0, 74, 62
1, 26562, Note_on_c, 0, 78, 64
1, 26567, Control_c, 0, 64, 65
1, 26571, Note_off_c, 0, 63, 58
1, 26573, Note_on_c, 0, 75, 53
1, 26582, Control_c, 0, 67, 121
1, 26597, Control_c, 0, 67, 113
1, 26609, Note_off_c, 0, 78, 56
1, 26611, Note_off_c, 0, 75, 60
1, 26612, Control_c, 0, 67, 104
1, 26627, Control_c, 0, 67, 96
1, 26628, Poly_aftertouch_c, 0, 59, 0
1, 26634, Note_on_c, 0, 76, 63
1, 26642, Control_c, 0, 67, 89
1, 26651, Note_on_c, 0, 79, 63
1, 26657, Control_c, 0, 67, 84
1, 26662, Note_on_c, 0, 68, 72
1, 26669, Note_on_c, 0, 63, 62
1, 26672, Control_c, 0, 67, 78
1, 26681, Note_on_c, 0, 59, 44
1, 26686, Control_c, 0, 67, 73
1, 26701, Control_c, 0, 67, 68
1, 26701, Note_off_c, 0, 76, 62
1, 26703, Note_off_c, 0, 68, 55
1, 26706, Note_off_c, 0, 79, 59
1, 26710, Note_off_c, 0, 63, 62
1, 26716, Control_c, 0, 67, 65
1, 26718, Note_off_c, 0, 59, 57
1, 26723, Note_on_c, 0, 80, 66
1, 26726, Note_on_c, 0, 77, 65
1, 26731, Control_c, 0, 67, 62
1, 26746, Control_c, 0, 67, 60
1, 26760, Note_off_c, 0, 77, 59
1, 26761, Control_c, 0, 64, 66
1, 26761, Control_c, 0, 67, 58
1, 26775, Control_c, 0, 64, 66
1, 26775, Control_c, 0, 67, 55
1, 26776, Note_off_c, 0, 80, 64
1, 26781, Note_on_c, 0, 81, 72
1, 26790, Control_c, 0, 64, 67
1, 26790, Control_c, 0, 67, 53
1, 26794, Note_on_c, 0, 78, 72
1, 26805, Note_on_c, 0, 66, 75
1, 26805, Control_c, 0, 64, 68
1, 26805, Control_c, 0, 67, 52
1, 26811, Note_on_c, 0, 59, 58
1, 26812, Note_on_c, 0, 63, 75
1, 26819, Control_c, 0, 64, 68
1, 26819, Control_c, 0, 67, 50
1, 26830, Note_off_c, 0, 66, 64
1, 26834, Control_c, 0, 67, 48
1, 26847, Note_off_c, 0, 81, 63
1, 26849, Control_c, 0, 64, 68
1, 26849, Control_c, 0, 67, 46
1, 26850, Note_off_c, 0, 59, 58
1, 26850, Note_off_c, 0, 63, 61
1, 26854, Note_off_c, 0, 78, 66
1, 26861, Note_on_c, 0, 82, 70
1, 26864, Note_on_c, 0, 79, 70
1, 26864, Control_c, 0, 64, 66
1, 26864, Control_c, 0, 67, 45
1, 26879, Control_c, 0, 64, 61
1, 26879, Control_c, 0, 67, 45
1, 26893, Control_c, 0, 64, 51
1, 26893, Control_c, 0, 67, 44
1, 26908, Control_c, 0, 64, 35
1, 26908, Control_c, 0, 67, 43
1, 26922, Note_off_c, 0, 79, 63
1, 26923, Control_c, 0, 64, 16
1, 26923, Control_c, 0, 67, 42
1, 26930, Note_on_c, 0, 66, 77
1, 26931, Note_on_c, 0, 83, 58
1, 26934, Note_on_c, 0, 80, 69
1, 26937, Control_c, 0, 64, 15
1, 26937, Control_c, 0, 67, 41
1, 26939, Note_on_c, 0, 63, 69
1, 26941, Note_on_c, 0, 59, 64
1, 26941, Note_off_c, 0, 82, 66
1, 26952, Control_c, 0, 64, 22
1, 26952, Control_c, 0, 67, 38
1, 26969, Control_c, 0, 64, 32
1, 26969, Control_c, 0, 67, 34
1, 26976, Note_off_c, 0, 63, 65
1, 26980, Note_off_c, 0, 66, 65
1, 26984, Control_c, 0, 64, 39
1, 26984, Control_c, 0, 67, 33
1, 26989, Note_off_c, 0, 80, 64
1, 26991, Note_on_c, 0, 84, 75
1, 26998, Note_on_c, 0, 81, 74
1, 26998, Control_c, 0, 64, 44
1, 26998, Control_c, 0, 67, 32
1, 27004, Note_off_c, 0, 59, 62
1, 27013, Control_c, 0, 64, 49
1, 27013, Control_c, 0, 67, 29
1, 27017, Note_off_c, 0, 83, 65
1, 27028, Control_c, 0, 64, 53
1, 27028, Control_c, 0, 67, 25
1, 27042, Control_c, 0, 64, 55
1, 27042, Control_c, 0, 67, 19
1, 27050, Note_off_c, 0, 84, 63
1, 27057, Control_c, 0, 64, 55
1, 27057, Control_c, 0, 67, 13
1, 27058, Note_off_c, 0, 81, 60
1, 27059, Note_on_c, 0, 85, 72
1, 27062, Note_on_c, 0, 64, 79
1, 27062, Note_on_c, 0, 82, 69
1, 27072, Control_c, 0, 67, 0
1, 27077, Note_on_c, 0, 56, 64
1, 27085, Note_on_c, 0, 59, 46
1, 27097, Note_off_c, 0, 64, 59
1, 27100, Note_off_c, 0, 82, 65
1, 27107, Note_off_c, 0, 56, 62
1, 27107, Note_off_c, 0, 59, 61
1, 27113, Note_on_c, 0, 83, 75
1, 27114, Note_off_c, 0, 85, 61
1, 27129, Note_on_c, 0, 86, 76
1, 27131, Control_c, 0, 64, 56
1, 27168, Note_off_c, 0, 83, 67
1, 27184, Control_c, 0, 64, 55
1, 27196, Note_on_c, 0, 64, 81
1, 27199, Note_off_c, 0, 86, 61
1, 27201, Note_on_c, 0, 59, 62
1, 27203, Note_on_c, 0, 56, 75
1, 27207, Note_on_c, 0, 84, 76
1, 27207, Note_on_c, 0, 87, 77
1, 27232, Note_off_c, 0, 64, 63
1, 27241, Note_off_c, 0, 59, 61
1, 27243, Note_off_c, 0, 56, 62
1, 27258, Note_off_c, 0, 84, 60
1, 27268, Note_on_c, 0, 85, 72
1, 27275, Note_on_c, 0, 88, 67
1, 27280, Note_off_c, 0, 87, 66
1, 27318, Note_off_c, 0, 85, 64
1, 27321, Note_on_c, 0, 89, 80
1, 27330, Note_on_c, 0, 63, 82
1, 27339, Note_on_c, 0, 56, 60
1, 27341, Note_on_c, 0, 59, 64
1, 27348, Note_off_c, 0, 88, 64
1, 27354, Note_on_c, 0, 84, 49
1, 27361, Control_c, 0, 64, 54
1, 27366, Note_off_c, 0, 63, 59
1, 27367, Note_on_c, 0, 86, 17
1, 27375, Control_c, 0, 64, 48
1, 27376, Note_off_c, 0, 84, 59
1, 27381, Note_off_c, 0, 56, 63
1, 27383, Note_off_c, 0, 59, 57
1, 27386, Note_off_c, 0, 89, 66
1, 27390, Control_c, 0, 64, 37
1, 27392, Note_on_c, 0, 90, 75
1, 27397, Note_on_c, 0, 87, 67
1, 27405, Control_c, 0, 64, 19
1, 27406, Note_off_c, 0, 86, 43
1, 27420, Control_c, 0, 64, 0
1, 27441, Note_off_c, 0, 87, 62
1, 27444, Note_on_c, 0, 88, 77
1, 27449, Note_off_c, 0, 90, 65
1, 27459, Note_on_c, 0, 63, 82
1, 27462, Note_on_c, 0, 91, 77
1, 27465, Control_c, 0, 64, 15
1, 27470, Note_on_c, 0, 59, 71
1, 27473, Note_on_c, 0, 56, 67
1, 27479, Control_c, 0, 64, 27
1, 27488, Note_off_c, 0, 63, 67
1, 27494, Control_c, 0, 64, 34
1, 27495, Note_off_c, 0, 59, 65
1, 27509, Note_off_c, 0, 56, 65
1, 27509, Control_c, 0, 64, 40
1, 27510, Note_off_c, 0, 88, 62
1, 27524, Control_c, 0, 64, 47
1, 27524, Note_off_c, 0, 91, 61
1, 27525, Note_on_c, 0, 92, 77
1, 27539, Control_c, 0, 64, 52
1, 27541, Note_on_c, 0, 89, 65
1, 27554, Control_c, 0, 64, 55
1, 27568, Control_c, 0, 64, 57
1, 27575, Note_off_c, 0, 92, 61
1, 27583, Control_c, 0, 64, 58
1, 27587, Note_on_c, 0, 93, 82
1, 27588, Note_off_c, 0, 89, 62
1, 27592, Note_on_c, 0, 56, 67
1, 27592, Note_on_c, 0, 61, 73
1, 27596, Note_on_c, 0, 51, 62
1, 27598, Control_c, 0, 64, 59
1, 27602, Note_on_c, 0, 90, 73
1, 27611, Note_off_c, 0, 61, 69
1, 27613, Control_c, 0, 64, 59
1, 27628, Note_off_c, 0, 56, 64
1, 27632, Note_off_c, 0, 90, 61
1, 27639, Note_off_c, 0, 51, 62
1, 27642, Control_c, 0, 64, 60
1, 27642, Control_c, 0, 67, 8
1, 27656, Note_off_c, 0, 93, 63
1, 27657, Control_c, 0, 67, 9
1, 27661, Note_on_c, 0, 94, 80
1, 27672, Control_c, 0, 67, 10
1, 27673, Note_on_c, 0, 91, 60
1, 27687, Control_c, 0, 67, 12
1, 27702, Control_c, 0, 64, 58
1, 27702, Control_c, 0, 67, 14
1, 27716, Control_c, 0, 64, 56
1, 27716, Control_c, 0, 67, 16
1, 27724, Note_off_c, 0, 91, 52
1, 27730, Note_on_c, 0, 95, 80
1, 27730, Note_off_c, 0, 94, 66
1, 27731, Control_c, 0, 64, 51
1, 27731, Control_c, 0, 67, 18
1, 27733, Note_on_c, 0, 61, 63
1, 27735, Note_on_c, 0, 92, 76
1, 27745, Note_on_c, 0, 56, 56
1, 27746, Control_c, 0, 64, 44
1, 27746, Control_c, 0, 67, 20
1, 27762, Control_c, 0, 64, 34
1, 27762, Control_c, 0, 67, 23
1, 27765, Note_on_c, 0, 51, 48
1, 27777, Note_off_c, 0, 61, 63
1, 27777, Control_c, 0, 64, 22
1, 27777, Control_c, 0, 67, 26
1, 27778, Note_off_c, 0, 92, 61
1, 27780, Note_off_c, 0, 95, 65
1, 27783, Note_off_c, 0, 56, 65
1, 27792, Control_c, 0, 64, 0
1, 27792, Control_c, 0, 67, 28
1, 27796, Note_off_c, 0, 51, 58
1, 27806, Control_c, 0, 67, 30
1, 27821, Control_c, 0, 67, 31
1, 27836, Control_c, 0, 67, 34
1, 27851, Control_c, 0, 67, 38
1, 27865, Control_c, 0, 67, 42
1, 27875, Note_on_c, 0, 59, 66
1, 27879, Note_on_c, 0, 56, 58
1, 27888, Control_c, 0, 67, 46
1, 27888, Note_on_c, 0, 51, 56
1, 27903, Control_c, 0, 67, 48
1, 27912, Note_off_c, 0, 59, 65
1, 27918, Control_c, 0, 67, 49
1, 27922, Note_off_c, 0, 56, 65
1, 27930, Note_off_c, 0, 51, 65
1, 27933, Control_c, 0, 67, 49
1, 27947, Control_c, 0, 67, 50
1, 27962, Control_c, 0, 67, 51
1, 27977, Control_c, 0, 67, 54
1, 27991, Control_c, 0, 67, 56
1, 28006, Control_c, 0, 67, 58
1, 28021, Control_c, 0, 67, 61
1, 28030, Note_on_c, 0, 59, 59
1, 28033, Note_on_c, 0, 56, 58
1, 28036, Control_c, 0, 67, 64
1, 28049, Note_on_c, 0, 51, 53
1, 28051, Control_c, 0, 67, 68
1, 28065, Control_c, 0, 64, 21
1, 28065, Control_c, 0, 67, 71
1, 28073, Note_off_c, 0, 59, 64
1, 28080, Control_c, 0, 64, 30
1, 28080, Control_c, 0, 67, 72
1, 28089, Note_off_c, 0, 51, 66
1, 28095, Control_c, 0, 64, 40
1, 28098, Note_off_c, 0, 56, 65
1, 28110, Control_c, 0, 64, 49
1, 28125, Control_c, 0, 64, 57
1, 28139, Control_c, 0, 64, 61
1, 28139, Control_c, 0, 67, 71
1, 28154, Control_c, 0, 64, 64
1, 28168, Note_on_c, 0, 58, 70
1, 28169, Control_c, 0, 64, 64
1, 28169, Control_c, 0, 67, 71
1, 28179, Note_on_c, 0, 51, 61
1, 28182, Note_on_c, 0, 49, 54
1, 28184, Control_c, 0, 67, 70
1, 28213, Control_c, 0, 64, 65
1, 28213, Control_c, 0, 67, 70
1, 28216, Note_off_c, 0, 58, 59
1, 28219, Note_off_c, 0, 51, 62
1, 28222, Note_off_c, 0, 49, 64
1, 28228, Control_c, 0, 64, 66
1, 28228, Control_c, 0, 67, 69
1, 28243, Control_c, 0, 64, 66
1, 28243, Control_c, 0, 67, 68
1, 28258, Control_c, 0, 64, 67
1, 28258, Control_c, 0, 67, 68
1, 28272, Control_c, 0, 67, 67
1, 28287, Control_c, 0, 64, 66
1, 28287, Control_c, 0, 67, 67
1, 28302, Control_c, 0, 64, 64
1, 28316, Note_on_c, 0, 58, 74
1, 28317, Control_c, 0, 64, 59
1, 28317, Control_c, 0, 67, 66
1, 28321, Note_on_c, 0, 49, 62
1, 28326, Note_on_c, 0, 51, 68
1, 28332, Control_c, 0, 64, 48
1, 28332, Control_c, 0, 67, 66
1, 28347, Control_c, 0, 64, 30
1, 28347, Control_c, 0, 67, 65
1, 28362, Control_c, 0, 64, 19
1, 28362, Control_c, 0, 67, 64
1, 28372, Note_off_c, 0, 58, 63
1, 28374, Note_off_c, 0, 49, 63
1, 28377, Control_c, 0, 64, 25
1, 28377, Control_c, 0, 67, 63
1, 28391, Control_c, 0, 64, 35
1, 28391, Control_c, 0, 67, 62
1, 28396, Note_off_c, 0, 51, 64
1, 28406, Control_c, 0, 64, 46
1, 28406, Control_c, 0, 67, 60
1, 28421, Control_c, 0, 64, 55
1, 28421, Control_c, 0, 67, 56
1, 28436, Control_c, 0, 64, 60
1, 28436, Control_c, 0, 67, 50
1, 28451, Control_c, 0, 64, 62
1, 28451, Control_c, 0, 67, 43
1, 28465, Control_c, 0, 64, 62
1, 28465, Control_c, 0, 67, 36
1, 28475, Note_on_c, 0, 56, 79
1, 28480, Note_on_c, 0, 51, 65
1, 28480, Control_c, 0, 64, 62
1, 28480, Control_c, 0, 67, 30
1, 28484, Note_on_c, 0, 47, 62
1, 28495, Control_c, 0, 67, 26
1, 28510, Control_c, 0, 67, 21
1, 28525, Control_c, 0, 67, 15
1, 28539, Control_c, 0, 67, 12
1, 28546, Note_off_c, 0, 47, 60
1, 28554, Control_c, 0, 67, 10
1, 28570, Control_c, 0, 67, 8
1, 28585, Control_c, 0, 67, 0
1, 28612, Note_off_c, 0, 56, 63
1, 28699, Note_on_c, 0, 44, 62
1, 28725, Control_c, 0, 64, 61
1, 28736, Note_off_c, 0, 51, 54
1, 28740, Control_c, 0, 64, 60
1, 28755, Control_c, 0, 64, 59
1, 28770, Control_c, 0, 64, 57
1, 28785, Control_c, 0, 64, 55
1, 28800, Control_c, 0, 64, 52
1, 28809, Note_on_c, 0, 77, 80
1, 28814, Control_c, 0, 64, 48
1, 28817, Note_on_c, 0, 74, 67
1, 28829, Control_c, 0, 64, 43
1, 28844, Control_c, 0, 64, 35
1, 28859, Control_c, 0, 64, 18
1, 28874, Control_c, 0, 64, 0
1, 28958, Note_off_c, 0, 77, 63
1, 28958, Note_off_c, 0, 74, 63
1, 28962, Note_on_c, 0, 79, 66
1, 28969, Note_on_c, 0, 76, 65
1, 28992, Control_c, 0, 64, 18
1, 29006, Control_c, 0, 64, 27
1, 29021, Control_c, 0, 64, 34
1, 29027, Note_off_c, 0, 79, 62
1, 29030, Note_off_c, 0, 76, 62
1, 29036, Control_c, 0, 64, 40
1, 29050, Note_on_c, 0, 77, 68
1, 29051, Control_c, 0, 64, 47
1, 29052, Note_on_c, 0, 50, 52
1, 29064, Note_on_c, 0, 74, 57
1, 29066, Control_c, 0, 64, 53
1, 29081, Control_c, 0, 64, 56
1, 29084, Note_off_c, 0, 44, 60
1, 29095, Control_c, 0, 64, 58
1, 29110, Control_c, 0, 64, 59
1, 29114, Note_off_c, 0, 74, 52
1, 29114, Note_off_c, 0, 77, 60
1, 29125, Control_c, 0, 64, 59
1, 29127, Note_on_c, 0, 79, 65
1, 29133, Note_on_c, 0, 76, 62
1, 29189, Note_off_c, 0, 79, 61
1, 29190, Note_off_c, 0, 76, 56
1, 29199, Note_on_c, 0, 59, 67
1, 29201, Note_on_c, 0, 77, 69
1, 29202, Note_on_c, 0, 74, 59
1, 29229, Control_c, 0, 64, 60
1, 29229, Note_off_c, 0, 50, 31
1, 29255, Note_off_c, 0, 74, 52
1, 29262, Note_off_c, 0, 77, 62
1, 29265, Note_off_c, 0, 59, 61
1, 29270, Note_on_c, 0, 76, 65
1, 29277, Note_on_c, 0, 79, 65
1, 29304, Control_c, 0, 64, 59
1, 29319, Control_c, 0, 64, 59
1, 29327, Note_on_c, 0, 43, 76
1, 29329, Note_off_c, 0, 76, 62
1, 29333, Control_c, 0, 64, 57
1, 29334, Note_off_c, 0, 79, 59
1, 29344, Note_on_c, 0, 77, 67
1, 29346, Note_on_c, 0, 74, 61
1, 29348, Control_c, 0, 64, 54
1, 29364, Control_c, 0, 64, 46
1, 29379, Control_c, 0, 64, 33
1, 29401, Control_c, 0, 64, 0
1, 29410, Note_off_c, 0, 74, 50
1, 29415, Note_off_c, 0, 77, 62
1, 29428, Note_on_c, 0, 76, 67
1, 29429, Note_on_c, 0, 79, 65
1, 29480, Note_off_c, 0, 79, 55
1, 29489, Note_off_c, 0, 76, 63
1, 29491, Note_on_c, 0, 44, 69
1, 29499, Note_off_c, 0, 43, 61
1, 29504, Note_on_c, 0, 74, 59
1, 29507, Note_on_c, 0, 77, 60
1, 29559, Note_off_c, 0, 77, 62
1, 29562, Note_off_c, 0, 74, 58
1, 29572, Note_on_c, 0, 79, 63
1, 29578, Note_on_c, 0, 76, 61
1, 29619, Note_off_c, 0, 79, 57
1, 29630, Note_off_c, 0, 76, 63
1, 29638, Control_c, 0, 64, 24
1, 29642, Note_on_c, 0, 74, 49
1, 29650, Note_on_c, 0, 77, 59
1, 29652, Control_c, 0, 64, 36
1, 29667, Control_c, 0, 64, 46
1, 29670, Note_on_c, 0, 50, 55
1, 29682, Note_off_c, 0, 44, 61
1, 29682, Control_c, 0, 64, 55
1, 29695, Note_off_c, 0, 74, 52
1, 29697, Control_c, 0, 64, 60
1, 29706, Note_off_c, 0, 77, 62
1, 29712, Control_c, 0, 64, 62
1, 29721, Note_on_c, 0, 79, 65
1, 29727, Control_c, 0, 64, 63
1, 29730, Note_on_c, 0, 76, 59
1, 29738, Note_off_c, 0, 50, 62
1, 29757, Note_off_c, 0, 79, 54
1, 29774, Note_off_c, 0, 76, 61
1, 29786, Control_c, 0, 64, 63
1, 29793, Note_on_c, 0, 74, 61
1, 29793, Note_on_c, 0, 59, 69
1, 29800, Note_on_c, 0, 77, 66
1, 29813, Note_off_c, 0, 59, 65
1, 29816, Control_c, 0, 64, 64
1, 29847, Note_off_c, 0, 74, 52
1, 29851, Note_off_c, 0, 77, 61
1, 29855, Note_on_c, 0, 79, 63
1, 29864, Note_on_c, 0, 76, 74
1, 29916, Note_off_c, 0, 79, 60
1, 29922, Note_off_c, 0, 76, 63
1, 29927, Note_on_c, 0, 74, 63
1, 29927, Note_on_c, 0, 38, 77
1, 29940, Note_on_c, 0, 77, 72
1, 29959, Note_off_c, 0, 38, 62
1, 29996, Note_off_c, 0, 74, 57
1, 29998, Note_off_c, 0, 77, 63
1, 30009, Note_on_c, 0, 76, 72
1, 30013, Note_on_c, 0, 79, 61
1, 30052, Control_c, 0, 64, 63
1, 30056, Note_off_c, 0, 79, 57
1, 30061, Note_off_c, 0, 76, 62
1, 30064, Note_on_c, 0, 44, 79
1, 30067, Control_c, 0, 64, 60
1, 30076, Note_on_c, 0, 74, 67
1, 30082, Note_on_c, 0, 77, 68
1, 30082, Control_c, 0, 64, 54
1, 30097, Control_c, 0, 64, 38
1, 30112, Control_c, 0, 64, 0
1, 30138, Note_off_c, 0, 77, 57
1, 30139, Note_off_c, 0, 74, 60
1, 30144, Note_on_c, 0, 76, 75
1, 30165, Note_on_c, 0, 79, 50
1, 30194, Control_c, 0, 64, 14
1, 30200, Note_off_c, 0, 76, 67
1, 30209, Control_c, 0, 64, 22
1, 30216, Note_on_c, 0, 77, 69
1, 30217, Note_on_c, 0, 74, 70
1, 30222, Note_off_c, 0, 79, 48
1, 30224, Control_c, 0, 64, 29
1, 30227, Note_on_c, 0, 50, 62
1, 30239, Control_c, 0, 64, 34
1, 30251, Note_off_c, 0, 44, 56
1, 30254, Control_c, 0, 64, 40
1, 30268, Control_c, 0, 64, 45
1, 30269, Note_off_c, 0, 77, 61
1, 30278, Note_off_c, 0, 74, 68
1, 30283, Note_on_c, 0, 76, 73
1, 30283, Control_c, 0, 64, 51
1, 30284, Note_on_c, 0, 73, 72
1, 30298, Control_c, 0, 64, 54
1, 30301, Note_off_c, 0, 50, 63
1, 30313, Control_c, 0, 64, 56
1, 30328, Control_c, 0, 64, 57
1, 30347, Note_on_c, 0, 74, 60
1, 30348, Note_off_c, 0, 73, 37
1, 30353, Note_off_c, 0, 76, 65
1, 30364, Note_on_c, 0, 77, 71
1, 30368, Note_on_c, 0, 59, 75
1, 30386, Control_c, 0, 64, 58
1, 30401, Control_c, 0, 64, 58
1, 30409, Note_off_c, 0, 77, 48
1, 30422, Note_on_c, 0, 76, 78
1, 30422, Note_on_c, 0, 79, 67
1, 30425, Note_off_c, 0, 74, 65
1, 30478, Note_off_c, 0, 59, 57
1, 30493, Note_on_c, 0, 77, 76
1, 30495, Note_off_c, 0, 76, 65
1, 30503, Note_on_c, 0, 74, 77
1, 30511, Note_on_c, 0, 49, 80
1, 30532, Note_off_c, 0, 79, 33
1, 30549, Note_off_c, 0, 77, 58
1, 30559, Note_on_c, 0, 76, 79
1, 30563, Note_off_c, 0, 74, 60
1, 30568, Note_on_c, 0, 73, 63
1, 30594, Control_c, 0, 64, 57
1, 30609, Control_c, 0, 64, 52
1, 30615, Note_off_c, 0, 73, 53
1, 30624, Control_c, 0, 64, 39
1, 30627, Note_off_c, 0, 49, 59
1, 30627, Note_off_c, 0, 76, 66
1, 30638, Note_on_c, 0, 77, 66
1, 30639, Note_on_c, 0, 74, 67
1, 30639, Control_c, 0, 64, 0
1, 30639, Control_c, 0, 67, 8
1, 30650, Note_on_c, 0, 47, 77
1, 30653, Control_c, 0, 67, 9
1, 30668, Control_c, 0, 67, 10
1, 30682, Note_off_c, 0, 77, 62
1, 30683, Control_c, 0, 67, 13
1, 30692, Note_on_c, 0, 79, 69
1, 30697, Note_off_c, 0, 74, 67
1, 30698, Control_c, 0, 67, 16
1, 30702, Note_on_c, 0, 76, 80
1, 30713, Control_c, 0, 67, 22
1, 30714, Note_off_c, 0, 79, 63
1, 30728, Control_c, 0, 67, 31
1, 30742, Control_c, 0, 67, 43
1, 30757, Control_c, 0, 67, 54
1, 30771, Note_off_c, 0, 76, 64
1, 30772, Control_c, 0, 64, 15
1, 30772, Control_c, 0, 67, 63
1, 30777, Note_on_c, 0, 74, 73
1, 30784, Note_on_c, 0, 77, 71
1, 30785, Control_c, 0, 64, 26
1, 30785, Control_c, 0, 67, 70
1, 30793, Note_on_c, 0, 50, 71
1, 30800, Control_c, 0, 64, 28
1, 30800, Control_c, 0, 67, 77
1, 30806, Note_off_c, 0, 47, 60
1, 30815, Control_c, 0, 64, 29
1, 30815, Control_c, 0, 67, 83
1, 30830, Control_c, 0, 64, 34
1, 30830, Control_c, 0, 67, 88
1, 30836, Note_off_c, 0, 77, 52
1, 30843, Note_off_c, 0, 74, 62
1, 30845, Control_c, 0, 64, 41
1, 30845, Control_c, 0, 67, 91
1, 30856, Note_on_c, 0, 76, 75
1, 30860, Control_c, 0, 64, 51
1, 30860, Control_c, 0, 67, 93
1, 30861, Note_on_c, 0, 73, 51
1, 30882, Control_c, 0, 64, 57
1, 30882, Control_c, 0, 67, 93
1, 30897, Control_c, 0, 64, 60
1, 30897, Control_c, 0, 67, 94
1, 30907, Note_on_c, 0, 59, 77
1, 30911, Control_c, 0, 64, 60
1, 30911, Control_c, 0, 67, 94
1, 30921, Note_off_c, 0, 76, 65
1, 30926, Control_c, 0, 67, 95
1, 30930, Note_off_c, 0, 50, 63
1, 30931, Note_off_c, 0, 59, 67
1, 30931, Note_off_c, 0, 73, 57
1, 30937, Note_on_c, 0, 77, 64
1, 30938, Note_on_c, 0, 74, 68
1, 30941, Control_c, 0, 64, 60
1, 30941, Control_c, 0, 67, 95
1, 30978, Note_on_c, 0, 79, 54
1, 31016, Note_off_c, 0, 74, 62
1, 31016, Control_c, 0, 67, 94
1, 31017, Note_off_c, 0, 79, 51
1, 31027, Note_on_c, 0, 76, 72
1, 31036, Note_on_c, 0, 38, 69
1, 31046, Control_c, 0, 67, 94
1, 31061, Control_c, 0, 67, 93
1, 31071, Note_off_c, 0, 77, 33
1, 31090, Control_c, 0, 67, 92
1, 31100, Note_on_c, 0, 73, 71
1, 31120, Control_c, 0, 67, 92
1, 31135, Control_c, 0, 67, 91
1, 31150, Control_c, 0, 64, 58
1, 31164, Control_c, 0, 64, 55
1, 31164, Control_c, 0, 67, 90
1, 31179, Control_c, 0, 64, 45
1, 31194, Control_c, 0, 64, 25
1, 31194, Control_c, 0, 67, 89
1, 31202, Note_off_c, 0, 76, 60
1, 31209, Control_c, 0, 64, 0
1, 31209, Control_c, 0, 67, 88
1, 31220, Note_on_c, 0, 74, 59
1, 31221, Note_off_c, 0, 73, 53
1, 31223, Control_c, 0, 67, 88
1, 31235, Note_off_c, 0, 38, 31
1, 31236, Note_on_c, 0, 44, 74
1, 31238, Control_c, 0, 67, 87
1, 31253, Control_c, 0, 67, 86
1, 31268, Note_on_c, 0, 77, 60
1, 31268, Control_c, 0, 64, 13
1, 31279, Note_off_c, 0, 44, 60
1, 31283, Control_c, 0, 64, 25
1, 31283, Control_c, 0, 67, 86
1, 31298, Control_c, 0, 64, 33
1, 31298, Control_c, 0, 67, 85
1, 31304, Note_off_c, 0, 74, 56
1, 31313, Control_c, 0, 64, 40
1, 31313, Control_c, 0, 67, 84
1, 31328, Control_c, 0, 64, 48
1, 31328, Control_c, 0, 67, 83
1, 31336, Note_on_c, 0, 75, 61
1, 31343, Control_c, 0, 64, 56
1, 31343, Control_c, 0, 67, 79
1, 31347, Note_off_c, 0, 77, 62
1, 31356, Note_on_c, 0, 78, 66
1, 31357, Control_c, 0, 64, 60
1, 31357, Control_c, 0, 67, 75
1, 31372, Control_c, 0, 64, 62
1, 31372, Control_c, 0, 67, 72
1, 31387, Control_c, 0, 64, 63
1, 31387, Control_c, 0, 67, 68
1, 31402, Control_c, 0, 67, 61
1, 31405, Note_off_c, 0, 75, 63
1, 31409, Note_off_c, 0, 78, 62
1, 31416, Control_c, 0, 67, 54
1, 31431, Control_c, 0, 67, 48
1, 31438, Note_on_c, 0, 76, 61
1, 31444, Note_on_c, 0, 71, 60
1, 31444, Note_on_c, 0, 65, 55
1, 31446, Control_c, 0, 64, 63
1, 31446, Control_c, 0, 67, 43
1, 31448, Note_on_c, 0, 79, 59
1, 31461, Control_c, 0, 67, 38
1, 31466, Note_on_c, 0, 62, 36
1, 31466, Note_off_c, 0, 71, 64
1, 31472, Note_off_c, 0, 65, 63
1, 31476, Control_c, 0, 67, 33
1, 31490, Control_c, 0, 67, 27
1, 31503, Note_off_c, 0, 62, 53
1, 31505, Control_c, 0, 67, 23
1, 31506, Note_off_c, 0, 76, 63
1, 31512, Note_off_c, 0, 79, 60
1, 31520, Control_c, 0, 64, 64
1, 31520, Control_c, 0, 67, 20
1, 31530, Note_on_c, 0, 77, 65
1, 31533, Note_on_c, 0, 80, 64
1, 31534, Control_c, 0, 67, 17
1, 31549, Control_c, 0, 67, 14
1, 31564, Note_off_c, 0, 77, 60
1, 31564, Control_c, 0, 67, 12
1, 31579, Control_c, 0, 67, 11
1, 31587, Note_off_c, 0, 80, 63
1, 31593, Note_on_c, 0, 81, 74
1, 31593, Note_on_c, 0, 71, 64
1, 31594, Control_c, 0, 67, 10
1, 31595, Note_on_c, 0, 65, 60
1, 31600, Note_on_c, 0, 62, 53
1, 31605, Note_on_c, 0, 78, 69
1, 31624, Note_off_c, 0, 71, 67
1, 31643, Note_off_c, 0, 62, 63
1, 31646, Control_c, 0, 67, 10
1, 31653, Note_off_c, 0, 65, 62
1, 31659, Note_off_c, 0, 78, 63
1, 31680, Note_off_c, 0, 81, 61
1, 31685, Note_on_c, 0, 82, 72
1, 31687, Note_on_c, 0, 79, 70
1, 31720, Control_c, 0, 64, 64
1, 31739, Note_off_c, 0, 79, 62
1, 31743, Note_on_c, 0, 70, 80
1, 31749, Control_c, 0, 64, 65
1, 31750, Note_on_c, 0, 83, 58
1, 31755, Note_on_c, 0, 62, 48
1, 31756, Note_on_c, 0, 65, 60
1, 31758, Note_on_c, 0, 80, 66
1, 31766, Control_c, 0, 64, 66
1, 31769, Note_off_c, 0, 70, 63
1, 31771, Note_off_c, 0, 82, 63
1, 31780, Control_c, 0, 64, 67
1, 31783, Note_off_c, 0, 62, 57
1, 31787, Note_off_c, 0, 65, 65
1, 31795, Control_c, 0, 64, 68
1, 31810, Note_on_c, 0, 81, 73
1, 31810, Note_off_c, 0, 80, 64
1, 31810, Control_c, 0, 67, 10
1, 31814, Note_on_c, 0, 84, 72
1, 31825, Control_c, 0, 64, 67
1, 31839, Control_c, 0, 64, 62
1, 31839, Control_c, 0, 67, 11
1, 31840, Note_off_c, 0, 83, 64
1, 31854, Control_c, 0, 64, 51
1, 31854, Control_c, 0, 67, 11
1, 31869, Control_c, 0, 64, 31
1, 31873, Note_on_c, 0, 70, 84
1, 31876, Note_on_c, 0, 62, 63
1, 31879, Note_off_c, 0, 84, 63
1, 31884, Note_on_c, 0, 65, 64
1, 31884, Note_off_c, 0, 81, 61
1, 31884, Control_c, 0, 64, 10
1, 31884, Control_c, 0, 67, 12
1, 31888, Note_on_c, 0, 85, 67
1, 31889, Note_on_c, 0, 82, 65
1, 31899, Control_c, 0, 64, 12
1, 31906, Note_off_c, 0, 70, 61
1, 31909, Note_off_c, 0, 65, 70
1, 31913, Control_c, 0, 64, 27
1, 31917, Note_off_c, 0, 62, 64
1, 31928, Control_c, 0, 64, 37
1, 31937, Note_off_c, 0, 85, 56
1, 31943, Control_c, 0, 64, 46
1, 31944, Note_off_c, 0, 82, 65
1, 31948, Note_on_c, 0, 83, 72
1, 31957, Control_c, 0, 64, 53
1, 31960, Note_on_c, 0, 86, 70
1, 31972, Control_c, 0, 64, 57
1, 31987, Control_c, 0, 64, 60
1, 32002, Note_off_c, 0, 83, 59
1, 32002, Control_c, 0, 64, 60
1, 32010, Note_on_c, 0, 68, 83
1, 32016, Note_off_c, 0, 86, 63
1, 32017, Control_c, 0, 67, 11
1, 32018, Note_on_c, 0, 87, 81
1, 32022, Note_on_c, 0, 62, 68
1, 32022, Note_on_c, 0, 84, 73
1, 32025, Note_on_c, 0, 59, 51
1, 32043, Note_off_c, 0, 68, 52
1, 32046, Control_c, 0, 67, 11
1, 32064, Note_off_c, 0, 84, 62
1, 32070, Note_off_c, 0, 59, 51
1, 32076, Control_c, 0, 64, 61
1, 32082, Note_off_c, 0, 62, 59
1, 32091, Control_c, 0, 67, 10
1, 32098, Note_on_c, 0, 85, 68
1, 32100, Note_on_c, 0, 88, 59
1, 32109, Note_off_c, 0, 87, 64
1, 32136, Control_c, 0, 64, 61
1, 32136, Control_c, 0, 67, 11
1, 32140, Note_on_c, 0, 89, 82
1, 32142, Note_off_c, 0, 85, 63
1, 32148, Note_on_c, 0, 86, 75
1, 32149, Note_on_c, 0, 68, 88
1, 32150, Control_c, 0, 67, 11
1, 32156, Note_on_c, 0, 62, 66
1, 32159, Note_on_c, 0, 59, 71
1, 32165, Control_c, 0, 64, 62
1, 32166, Note_off_c, 0, 88, 65
1, 32190, Note_off_c, 0, 62, 65
1, 32195, Note_off_c, 0, 68, 57
1, 32204, Note_off_c, 0, 59, 61
1, 32209, Note_off_c, 0, 86, 59
1, 32209, Note_off_c, 0, 89, 65
1, 32218, Note_on_c, 0, 90, 75
1, 32226, Note_on_c, 0, 87, 66
1, 32250, Note_off_c, 0, 87, 68
1, 32254, Control_c, 0, 67, 11
1, 32264, Note_on_c, 0, 88, 78
1, 32264, Note_off_c, 0, 90, 66
1, 32269, Control_c, 0, 64, 62
1, 32280, Note_on_c, 0, 66, 84
1, 32284, Control_c, 0, 64, 63
1, 32287, Note_on_c, 0, 56, 68
1, 32293, Note_on_c, 0, 59, 64
1, 32294, Note_on_c, 0, 91, 69
1, 32299, Control_c, 0, 64, 65
1, 32313, Control_c, 0, 64, 65
1, 32321, Note_off_c, 0, 88, 65
1, 32323, Note_off_c, 0, 66, 59
1, 32343, Control_c, 0, 64, 64
1, 32350, Note_off_c, 0, 56, 59
1, 32351, Note_off_c, 0, 59, 59
1, 32353, Note_on_c, 0, 92, 81
1, 32353, Note_off_c, 0, 91, 60
1, 32357, Control_c, 0, 64, 59
1, 32362, Note_on_c, 0, 89, 64
1, 32372, Control_c, 0, 64, 48
1, 32390, Note_off_c, 0, 89, 67
1, 32395, Control_c, 0, 64, 23
1, 32410, Control_c, 0, 64, 0
1, 32410, Control_c, 0, 67, 10
1, 32410, Note_on_c, 0, 66, 81
1, 32421, Note_on_c, 0, 59, 55
1, 32422, Note_on_c, 0, 56, 61
1, 32422, Note_on_c, 0, 90, 76
1, 32426, Note_off_c, 0, 92, 67
1, 32436, Note_on_c, 0, 93, 72
1, 32439, Control_c, 0, 64, 18
1, 32454, Control_c, 0, 64, 31
1, 32465, Note_off_c, 0, 66, 59
1, 32469, Control_c, 0, 64, 40
1, 32469, Control_c, 0, 67, 10
1, 32470, Note_off_c, 0, 56, 66
1, 32475, Note_off_c, 0, 90, 67
1, 32478, Note_off_c, 0, 59, 59
1, 32480, Note_on_c, 0, 91, 83
1, 32484, Control_c, 0, 64, 48
1, 32493, Note_on_c, 0, 94, 83
1, 32495, Note_off_c, 0, 93, 63
1, 32499, Control_c, 0, 64, 54
1, 32499, Control_c, 0, 67, 9
1, 32513, Control_c, 0, 64, 57
1, 32513, Control_c, 0, 67, 9
1, 32528, Control_c, 0, 64, 58
1, 32528, Control_c, 0, 67, 8
1, 32543, Note_on_c, 0, 65, 76
1, 32543, Control_c, 0, 67, 0
1, 32544, Note_off_c, 0, 91, 51
1, 32550, Note_on_c, 0, 59, 63
1, 32554, Note_on_c, 0, 56, 60
1, 32554, Note_on_c, 0, 92, 86
1, 32559, Control_c, 0, 64, 58
1, 32568, Note_on_c, 0, 95, 68
1, 32575, Note_off_c, 0, 94, 68
1, 32588, Control_c, 0, 64, 58
1, 32598, Note_off_c, 0, 65, 61
1, 32603, Control_c, 0, 64, 59
1, 32607, Note_off_c, 0, 59, 57
1, 32613, Note_off_c, 0, 92, 66
1, 32616, Note_on_c, 0, 96, 81
1, 32618, Control_c, 0, 64, 59
1, 32618, Note_off_c, 0, 56, 62
1, 32621, Note_on_c, 0, 93, 70
1, 32643, Note_off_c, 0, 95, 66
1, 32648, Control_c, 0, 64, 60
1, 32674, Note_on_c, 0, 65, 76
1, 32674, Note_off_c, 0, 96, 62
1, 32677, Note_on_c, 0, 59, 72
1, 32681, Note_on_c, 0, 56, 56
1, 32683, Note_on_c, 0, 97, 85
1, 32690, Note_off_c, 0, 93, 64
1, 32692, Control_c, 0, 64, 60
1, 32699, Note_on_c, 0, 94, 68
1, 32707, Control_c, 0, 64, 61
1, 32724, Note_off_c, 0, 65, 64
1, 32728, Note_off_c, 0, 59, 62
1, 32750, Note_off_c, 0, 97, 65
1, 32751, Note_off_c, 0, 56, 64
1, 32760, Note_on_c, 0, 95, 79
1, 32769, Note_on_c, 0, 98, 73
1, 32770, Note_off_c, 0, 94, 65
1, 32780, Control_c, 0, 64, 60
1, 32810, Control_c, 0, 64, 60
1, 32819, Note_on_c, 0, 64, 76
1, 32821, Note_on_c, 0, 56, 55
1, 32830, Note_on_c, 0, 99, 91
1, 32832, Note_on_c, 0, 53, 61
1, 32833, Note_off_c, 0, 95, 62
1, 32834, Note_off_c, 0, 98, 65
1, 32860, Note_on_c, 0, 96, 71
1, 32914, Note_on_c, 0, 100, 85
1, 32920, Note_on_c, 0, 97, 80
1, 32926, Note_off_c, 0, 64, 61
1, 32927, Note_off_c, 0, 56, 60
1, 32929, Note_off_c, 0, 96, 57
1, 32929, Control_c, 0, 64, 59
1, 32935, Note_off_c, 0, 99, 64
1, 32941, Note_off_c, 0, 53, 62
1, 32943, Control_c, 0, 64, 59
1, 32958, Control_c, 0, 64, 57
1, 32973, Control_c, 0, 64, 54
1, 32988, Control_c, 0, 64, 48
1, 33003, Control_c, 0, 64, 34
1, 33011, Note_on_c, 0, 64, 71
1, 33018, Control_c, 0, 64, 0
1, 33018, Note_on_c, 0, 53, 46
1, 33036, Note_on_c, 0, 56, 52
1, 33040, Note_on_c, 0, 101, 85
1, 33045, Note_off_c, 0, 100, 64
1, 33048, Note_on_c, 0, 98, 70
1, 33084, Note_off_c, 0, 97, 31
1, 33092, Note_off_c, 0, 64, 62
1, 33099, Note_off_c, 0, 56, 64
1, 33102, Note_off_c, 0, 98, 65
1, 33106, Control_c, 0, 64, 18
1, 33113, Note_off_c, 0, 101, 67
1, 33120, Control_c, 0, 64, 27
1, 33131, Note_off_c, 0, 53, 63
1, 33143, Control_c, 0, 64, 34
1, 33158, Control_c, 0, 64, 42
1, 33173, Control_c, 0, 64, 48
1, 33179, Note_on_c, 0, 62, 86
1, 33187, Control_c, 0, 64, 54
1, 33199, Note_on_c, 0, 53, 49
1, 33202, Control_c, 0, 64, 57
1, 33207, Note_on_c, 0, 56, 55
1, 33217, Control_c, 0, 64, 60
1, 33232, Control_c, 0, 64, 61
1, 33239, Note_off_c, 0, 62, 63
1, 33248, Note_off_c, 0, 56, 65
1, 33259, Note_off_c, 0, 53, 61
1, 33261, Control_c, 0, 64, 61
1, 33313, Note_on_c, 0, 60, 87
1, 33320, Control_c, 0, 64, 62
1, 33327, Note_on_c, 0, 56, 76
1, 33351, Note_on_c, 0, 53, 50
1, 33365, Note_off_c, 0, 60, 65
1, 33383, Note_off_c, 0, 53, 67
1, 33390, Note_off_c, 0, 56, 65
1, 33453, Note_on_c, 0, 59, 84
1, 33462, Note_on_c, 0, 55, 71
1, 33474, Note_on_c, 0, 53, 63
1, 33498, Note_off_c, 0, 55, 66
1, 33498, Note_off_c, 0, 59, 63
1, 33506, Note_off_c, 0, 53, 67
1, 33544, Control_c, 0, 64, 61
1, 33558, Control_c, 0, 64, 61
1, 33558, Control_c, 0, 67, 9
1, 33573, Control_c, 0, 64, 60
1, 33573, Control_c, 0, 67, 15
1, 33588, Control_c, 0, 64, 58
1, 33588, Control_c, 0, 67, 23
1, 33602, Control_c, 0, 64, 55
1, 33602, Control_c, 0, 67, 34
1, 33617, Control_c, 0, 64, 51
1, 33617, Control_c, 0, 67, 50
1, 33632, Control_c, 0, 64, 43
1, 33632, Control_c, 0, 67, 65
1, 33647, Control_c, 0, 64, 36
1, 33647, Control_c, 0, 67, 77
1, 33662, Control_c, 0, 64, 27
1, 33662, Control_c, 0, 67, 87
1, 33677, Control_c, 0, 64, 9
1, 33677, Control_c, 0, 67, 98
1, 33692, Control_c, 0, 64, 0
1, 33692, Control_c, 0, 67, 111
1, 33707, Control_c, 0, 67, 125
1, 33714, Note_on_c, 0, 43, 47
1, 33721, Control_c, 0, 67, 127
1, 33860, Note_on_c, 0, 98, 39
1, 33861, Note_on_c, 0, 101, 56
1, 33921, Control_c, 0, 64, 21
1, 33936, Control_c, 0, 64, 32
1, 33948, Note_off_c, 0, 43, 62
1, 33951, Control_c, 0, 64, 41
1, 33966, Control_c, 0, 64, 49
1, 33981, Control_c, 0, 64, 56
1, 33984, Note_off_c, 0, 101, 53
1, 33996, Control_c, 0, 64, 60
1, 34010, Control_c, 0, 64, 61
1, 34024, Note_off_c, 0, 98, 52
1, 34025, Control_c, 0, 64, 62
1, 34061, Note_on_c, 0, 91, 50
1, 34066, Note_on_c, 0, 95, 48
1, 34099, Control_c, 0, 64, 62
1, 34126, Note_off_c, 0, 91, 50
1, 34128, Control_c, 0, 64, 63
1, 34160, Control_c, 0, 64, 63
1, 34164, Note_off_c, 0, 95, 60
1, 34165, Note_on_c, 0, 69, 43
1, 34180, Note_on_c, 0, 100, 54
1, 34188, Note_on_c, 0, 65, 35
1, 34194, Note_on_c, 0, 59, 14
1, 34204, Note_on_c, 0, 96, 38
1, 34212, Note_off_c, 0, 69, 54
1, 34220, Note_off_c, 0, 65, 56
1, 34225, Note_off_c, 0, 100, 61
1, 34239, Note_off_c, 0, 59, 50
1, 34254, Note_off_c, 0, 96, 48
1, 34275, Note_on_c, 0, 89, 50
1, 34294, Note_on_c, 0, 93, 49
1, 34331, Note_off_c, 0, 89, 55
1, 34335, Note_off_c, 0, 93, 58
1, 34357, Note_on_c, 0, 69, 52
1, 34358, Note_on_c, 0, 59, 43
1, 34359, Note_on_c, 0, 65, 45
1, 34368, Note_on_c, 0, 98, 53
1, 34374, Note_on_c, 0, 95, 53
1, 34395, Note_off_c, 0, 98, 55
1, 34416, Note_off_c, 0, 95, 50
1, 34449, Note_on_c, 0, 88, 49
1, 34450, Note_on_c, 0, 91, 48
1, 34476, Note_off_c, 0, 88, 58
1, 34479, Note_off_c, 0, 91, 52
1, 34506, Note_on_c, 0, 93, 67
1, 34517, Note_on_c, 0, 96, 47
1, 34543, Note_off_c, 0, 96, 55
1, 34546, Note_off_c, 0, 93, 58
1, 34559, Note_off_c, 0, 65, 61
1, 34568, Note_on_c, 0, 89, 59
1, 34570, Note_on_c, 0, 86, 54
1, 34580, Note_off_c, 0, 69, 62
1, 34592, Note_off_c, 0, 86, 61
1, 34592, Note_off_c, 0, 89, 61
1, 34630, Note_off_c, 0, 59, 40
1, 34636, Note_on_c, 0, 91, 67
1, 34638, Note_on_c, 0, 95, 57
1, 34659, Note_off_c, 0, 95, 61
1, 34666, Note_off_c, 0, 91, 53
1, 34691, Note_on_c, 0, 88, 57
1, 34709, Note_on_c, 0, 84, 37
1, 34711, Note_off_c, 0, 88, 65
1, 34740, Note_off_c, 0, 84, 55
1, 34747, Note_on_c, 0, 89, 68
1, 34754, Note_on_c, 0, 93, 53
1, 34780, Note_off_c, 0, 93, 57
1, 34784, Note_off_c, 0, 89, 62
1, 34789, Control_c, 0, 64, 64
1, 34798, Note_on_c, 0, 86, 61
1, 34803, Control_c, 0, 64, 64
1, 34809, Note_on_c, 0, 83, 49
1, 34827, Note_off_c, 0, 86, 61
1, 34831, Note_off_c, 0, 83, 61
1, 34857, Note_on_c, 0, 88, 72
1, 34860, Note_on_c, 0, 67, 72
1, 34869, Note_on_c, 0, 64, 56
1, 34869, Note_on_c, 0, 91, 44
1, 34875, Note_on_c, 0, 60, 47
1, 34878, Control_c, 0, 64, 63
1, 34885, Note_off_c, 0, 67, 68
1, 34890, Note_off_c, 0, 64, 60
1, 34893, Control_c, 0, 64, 60
1, 34899, Note_off_c, 0, 91, 51
1, 34899, Note_off_c, 0, 60, 58
1, 34904, Note_off_c, 0, 88, 63
1, 34907, Control_c, 0, 64, 55
1, 34919, Note_on_c, 0, 84, 61
1, 34920, Note_on_c, 0, 81, 55
1, 34922, Control_c, 0, 64, 47
1, 34937, Control_c, 0, 64, 36
1, 34941, Note_off_c, 0, 84, 59
1, 34944, Note_off_c, 0, 81, 58
1, 34953, Control_c, 0, 64, 23
1, 34967, Control_c, 0, 64, 0
1, 34978, Note_on_c, 0, 86, 73
1, 34994, Note_on_c, 0, 69, 61
1, 35006, Note_on_c, 0, 55, 32
1, 35007, Note_off_c, 0, 55, 127
1, 35015, Note_off_c, 0, 69, 64
1, 35028, Note_off_c, 0, 86, 62
1, 35039, Note_on_c, 0, 83, 54
1, 35045, Note_on_c, 0, 79, 47
1, 35069, Note_off_c, 0, 83, 64
1, 35075, Note_off_c, 0, 79, 55
1, 35113, Note_on_c, 0, 69, 60
1, 35117, Note_on_c, 0, 84, 65
1, 35130, Note_on_c, 0, 59, 46
1, 35130, Note_on_c, 0, 65, 53
1, 35130, Control_c, 0, 64, 17
1, 35134, Note_on_c, 0, 88, 25
1, 35145, Control_c, 0, 64, 29
1, 35155, Note_off_c, 0, 69, 63
1, 35155, Note_off_c, 0, 59, 57
1, 35158, Note_off_c, 0, 65, 66
1, 35160, Control_c, 0, 64, 38
1, 35164, Note_off_c, 0, 84, 62
1, 35169, Note_off_c, 0, 88, 49
1, 35174, Control_c, 0, 64, 45
1, 35180, Note_on_c, 0, 81, 59
1, 35188, Note_on_c, 0, 77, 56
1, 35189, Control_c, 0, 64, 51
1, 35204, Control_c, 0, 64, 55
1, 35206, Note_off_c, 0, 81, 58
1, 35218, Note_off_c, 0, 77, 58
1, 35219, Control_c, 0, 64, 57
1, 35234, Control_c, 0, 64, 58
1, 35251, Note_on_c, 0, 83, 60
1, 35263, Note_on_c, 0, 86, 39
1, 35291, Note_off_c, 0, 86, 55
1, 35297, Note_off_c, 0, 83, 55
1, 35328, Note_on_c, 0, 79, 38
1, 35333, Note_on_c, 0, 76, 36
1, 35358, Note_off_c, 0, 79, 56
1, 35364, Note_off_c, 0, 76, 57
1, 35389, Note_on_c, 0, 81, 64
1, 35434, Control_c, 0, 64, 57
1, 35438, Note_off_c, 0, 81, 62
1, 35438, Poly_aftertouch_c, 0, 84, 127
1, 35448, Control_c, 0, 64, 56
1, 35460, Note_on_c, 0, 77, 50
1, 35463, Control_c, 0, 64, 52
1, 35468, Note_on_c, 0, 74, 40
1, 35478, Poly_aftertouch_c, 0, 84, 0
1, 35478, Control_c, 0, 64, 44
1, 35489, Note_off_c, 0, 77, 55
1, 35493, Control_c, 0, 64, 31
1, 35494, Note_off_c, 0, 74, 59
1, 35507, Control_c, 0, 64, 12
1, 35513, Note_on_c, 0, 67, 52
1, 35522, Control_c, 0, 64, 0
1, 35526, Note_on_c, 0, 55, 33
1, 35531, Note_on_c, 0, 79, 52
1, 35542, Note_on_c, 0, 83, 26
1, 35552, Control_c, 0, 64, 20
1, 35567, Control_c, 0, 64, 29
1, 35575, Note_off_c, 0, 79, 51
1, 35577, Note_off_c, 0, 83, 31
1, 35582, Control_c, 0, 64, 36
1, 35592, Note_off_c, 0, 67, 63
1, 35596, Note_on_c, 0, 76, 51
1, 35596, Control_c, 0, 64, 42
1, 35604, Note_on_c, 0, 72, 46
1, 35611, Control_c, 0, 64, 47
1, 35626, Note_off_c, 0, 76, 55
1, 35626, Control_c, 0, 64, 51
1, 35629, Note_off_c, 0, 72, 58
1, 35631, Note_off_c, 0, 55, 58
1, 35641, Control_c, 0, 64, 54
1, 35656, Control_c, 0, 64, 55
1, 35666, Note_on_c, 0, 77, 62
1, 35671, Control_c, 0, 64, 56
1, 35686, Control_c, 0, 64, 57
1, 35688, Note_on_c, 0, 81, 15
1, 35700, Control_c, 0, 64, 58
1, 35715, Control_c, 0, 64, 59
1, 35719, Note_off_c, 0, 77, 54
1, 35730, Control_c, 0, 64, 60
1, 35732, Note_off_c, 0, 81, 52
1, 35745, Control_c, 0, 64, 60
1, 35751, Note_on_c, 0, 74, 36
1, 35755, Note_on_c, 0, 71, 35
1, 35760, Control_c, 0, 64, 61
1, 35778, Note_off_c, 0, 74, 57
1, 35785, Note_off_c, 0, 71, 57
1, 35790, Control_c, 0, 64, 61
1, 35811, Note_on_c, 0, 79, 47
1, 35815, Note_on_c, 0, 76, 50
1, 35835, Control_c, 0, 64, 61
1, 35841, Note_off_c, 0, 79, 55
1, 35850, Control_c, 0, 64, 60
1, 35864, Note_off_c, 0, 76, 52
1, 35865, Control_c, 0, 64, 57
1, 35879, Control_c, 0, 64, 52
1, 35884, Note_on_c, 0, 72, 51
1, 35894, Control_c, 0, 64, 43
1, 35895, Note_on_c, 0, 69, 38
1, 35909, Control_c, 0, 64, 31
1, 35924, Control_c, 0, 64, 0
1, 35924, Note_off_c, 0, 69, 57
1, 35925, Note_off_c, 0, 72, 47
1, 35967, Note_on_c, 0, 55, 49
1, 35972, Note_on_c, 0, 77, 42
1, 35987, Note_on_c, 0, 74, 37
1, 35993, Note_off_c, 0, 55, 65
1, 36001, Note_off_c, 0, 77, 54
1, 36030, Note_off_c, 0, 74, 53
1, 36085, Note_on_c, 0, 67, 10
1, 36085, Note_on_c, 0, 71, 21
1, 36148, Note_off_c, 0, 67, 45
1, 36210, Note_on_c, 0, 76, 40
1, 36211, Note_on_c, 0, 48, 30
1, 36230, Note_on_c, 0, 72, 39
1, 36237, Note_off_c, 0, 71, 46
1, 36243, Control_c, 0, 64, 8
1, 36258, Control_c, 0, 64, 24
1, 36272, Note_off_c, 0, 48, 61
1, 36273, Control_c, 0, 64, 34
1, 36287, Control_c, 0, 64, 43
1, 36302, Control_c, 0, 64, 52
1, 36303, Note_off_c, 0, 72, 46
1, 36317, Control_c, 0, 64, 58
1, 36327, Note_off_c, 0, 76, 43
1, 36331, Control_c, 0, 64, 61
1, 36346, Control_c, 0, 64, 62
1, 36361, Control_c, 0, 64, 63
1, 36435, Control_c, 0, 64, 63
1, 36450, Control_c, 0, 64, 64
1, 36479, Control_c, 0, 64, 64
1, 36580, Note_on_c, 0, 41, 34
1, 36599, Control_c, 0, 64, 63
1, 36614, Control_c, 0, 64, 59
1, 36628, Control_c, 0, 64, 49
1, 36643, Control_c, 0, 64, 31
1, 36658, Control_c, 0, 64, 0
1, 36660, Note_on_c, 0, 99, 41
1, 36672, Note_on_c, 0, 96, 51
1, 36688, Control_c, 0, 64, 9
1, 36702, Control_c, 0, 64, 26
1, 36717, Control_c, 0, 64, 36
1, 36726, Note_off_c, 0, 41, 64
1, 36732, Control_c, 0, 64, 44
1, 36747, Control_c, 0, 64, 51
1, 36754, Note_off_c, 0, 96, 54
1, 36762, Control_c, 0, 64, 56
1, 36777, Control_c, 0, 64, 59
1, 36790, Note_on_c, 0, 93, 51
1, 36791, Control_c, 0, 64, 61
1, 36795, Note_off_c, 0, 99, 35
1, 36797, Note_on_c, 0, 89, 48
1, 36806, Control_c, 0, 64, 61
1, 36826, Note_off_c, 0, 93, 58
1, 36835, Control_c, 0, 64, 62
1, 36845, Note_off_c, 0, 89, 61
1, 36850, Control_c, 0, 64, 62
1, 36865, Control_c, 0, 64, 63
1, 36887, Control_c, 0, 64, 63
1, 36889, Note_on_c, 0, 98, 52
1, 36898, Note_on_c, 0, 94, 52
1, 36926, Note_on_c, 0, 67, 43
1, 36929, Note_off_c, 0, 98, 53
1, 36935, Note_on_c, 0, 63, 45
1, 36936, Note_on_c, 0, 57, 39
1, 36961, Note_off_c, 0, 67, 50
1, 36971, Note_off_c, 0, 63, 59
1, 36973, Note_off_c, 0, 57, 51
1, 36976, Control_c, 0, 64, 64
1, 36978, Note_off_c, 0, 94, 64
1, 36991, Note_on_c, 0, 91, 65
1, 37003, Note_on_c, 0, 87, 49
1, 37024, Note_off_c, 0, 91, 59
1, 37025, Note_off_c, 0, 87, 64
1, 37075, Note_on_c, 0, 93, 51
1, 37075, Note_on_c, 0, 96, 51
1, 37082, Note_on_c, 0, 57, 50
1, 37086, Note_on_c, 0, 63, 49
1, 37094, Note_on_c, 0, 67, 51
1, 37099, Note_off_c, 0, 96, 55
1, 37102, Note_off_c, 0, 93, 59
1, 37109, Control_c, 0, 64, 64
1, 37146, Note_on_c, 0, 89, 66
1, 37156, Note_on_c, 0, 86, 48
1, 37177, Note_off_c, 0, 89, 65
1, 37186, Note_off_c, 0, 86, 52
1, 37198, Control_c, 0, 64, 65
1, 37201, Note_on_c, 0, 91, 70
1, 37203, Note_on_c, 0, 94, 67
1, 37226, Note_off_c, 0, 91, 57
1, 37231, Note_off_c, 0, 94, 68
1, 37269, Note_on_c, 0, 84, 58
1, 37299, Note_off_c, 0, 84, 65
1, 37338, Note_on_c, 0, 89, 58
1, 37342, Note_off_c, 0, 67, 57
1, 37349, Note_off_c, 0, 63, 55
1, 37357, Note_on_c, 0, 93, 30
1, 37364, Note_off_c, 0, 57, 48
1, 37366, Note_off_c, 0, 89, 65
1, 37382, Note_on_c, 0, 86, 65
1, 37396, Note_off_c, 0, 93, 53
1, 37400, Note_off_c, 0, 86, 65
1, 37406, Note_on_c, 0, 82, 51
1, 37429, Note_off_c, 0, 82, 60
1, 37449, Note_on_c, 0, 91, 76
1, 37471, Note_on_c, 0, 87, 49
1, 37480, Control_c, 0, 64, 65
1, 37485, Note_off_c, 0, 91, 57
1, 37499, Note_off_c, 0, 87, 58
1, 37507, Note_on_c, 0, 84, 74
1, 37512, Note_on_c, 0, 81, 66
1, 37530, Note_off_c, 0, 84, 67
1, 37539, Note_off_c, 0, 81, 60
1, 37574, Note_on_c, 0, 89, 71
1, 37577, Note_on_c, 0, 86, 75
1, 37588, Note_on_c, 0, 62, 68
1, 37589, Note_on_c, 0, 65, 66
1, 37596, Note_on_c, 0, 58, 71
1, 37599, Note_off_c, 0, 89, 68
1, 37607, Note_off_c, 0, 65, 69
1, 37612, Note_off_c, 0, 86, 58
1, 37614, Note_off_c, 0, 62, 67
1, 37629, Note_off_c, 0, 58, 67
1, 37646, Note_on_c, 0, 79, 66
1, 37650, Note_on_c, 0, 82, 69
1, 37678, Note_off_c, 0, 79, 60
1, 37692, Note_off_c, 0, 82, 63
1, 37695, Control_c, 0, 64, 65
1, 37710, Control_c, 0, 64, 63
1, 37716, Note_on_c, 0, 67, 85
1, 37717, Note_on_c, 0, 87, 71
1, 37723, Note_on_c, 0, 84, 59
1, 37725, Control_c, 0, 64, 59
1, 37725, Note_on_c, 0, 53, 63
1, 37733, Note_off_c, 0, 67, 71
1, 37740, Control_c, 0, 64, 51
1, 37746, Note_off_c, 0, 87, 64
1, 37748, Note_off_c, 0, 53, 66
1, 37749, Note_off_c, 0, 84, 56
1, 37755, Control_c, 0, 64, 31
1, 37769, Control_c, 0, 64, 0
1, 37771, Note_on_c, 0, 81, 65
1, 37778, Note_on_c, 0, 77, 58
1, 37793, Note_off_c, 0, 81, 66
1, 37823, Note_off_c, 0, 77, 62
1, 37841, Note_on_c, 0, 67, 78
1, 37846, Note_on_c, 0, 86, 71
1, 37853, Note_on_c, 0, 63, 70
1, 37860, Note_on_c, 0, 57, 60
1, 37864, Note_on_c, 0, 82, 66
1, 37871, Note_off_c, 0, 67, 65
1, 37873, Control_c, 0, 64, 32
1, 37877, Note_off_c, 0, 86, 59
1, 37877, Note_off_c, 0, 63, 70
1, 37884, Note_off_c, 0, 57, 59
1, 37888, Control_c, 0, 64, 42
1, 37895, Note_off_c, 0, 82, 62
1, 37902, Control_c, 0, 64, 51
1, 37917, Control_c, 0, 64, 58
1, 37921, Note_on_c, 0, 79, 69
1, 37932, Control_c, 0, 64, 62
1, 37940, Note_off_c, 0, 79, 67
1, 37947, Control_c, 0, 64, 64
1, 37962, Control_c, 0, 64, 65
1, 37976, Control_c, 0, 64, 66
1, 37985, Note_on_c, 0, 84, 64
1, 37990, Note_on_c, 0, 81, 60
1, 37991, Control_c, 0, 64, 67
1, 38003, Note_off_c, 0, 84, 67
1, 38006, Control_c, 0, 64, 68
1, 38011, Note_off_c, 0, 81, 63
1, 38020, Poly_aftertouch_c, 0, 75, 0
1, 38021, Control_c, 0, 64, 68
1, 38057, Note_on_c, 0, 74, 63
1, 38061, Note_on_c, 0, 77, 63
1, 38083, Note_off_c, 0, 74, 69
1, 38086, Note_off_c, 0, 77, 57
1, 38094, Control_c, 0, 64, 69
1, 38109, Control_c, 0, 64, 69
1, 38113, Note_on_c, 0, 82, 59
1, 38115, Note_on_c, 0, 79, 65
1, 38124, Control_c, 0, 64, 71
1, 38133, Note_off_c, 0, 79, 66
1, 38133, Note_off_c, 0, 82, 64
1, 38140, Control_c, 0, 64, 72
1, 38155, Control_c, 0, 64, 74
1, 38166, Note_on_c, 0, 72, 71
1, 38170, Control_c, 0, 64, 75
1, 38201, Note_off_c, 0, 72, 56
1, 38214, Control_c, 0, 64, 71
1, 38229, Control_c, 0, 64, 63
1, 38232, Note_on_c, 0, 65, 86
1, 38232, Note_on_c, 0, 81, 69
1, 38237, Note_on_c, 0, 53, 72
1, 38244, Control_c, 0, 64, 51
1, 38259, Control_c, 0, 64, 34
1, 38263, Note_off_c, 0, 81, 65
1, 38273, Control_c, 0, 64, 28
1, 38277, Note_off_c, 0, 65, 67
1, 38279, Note_on_c, 0, 74, 61
1, 38287, Note_off_c, 0, 53, 65
1, 38288, Control_c, 0, 64, 34
1, 38303, Control_c, 0, 64, 43
1, 38305, Note_off_c, 0, 74, 62
1, 38318, Control_c, 0, 64, 55
1, 38333, Control_c, 0, 64, 62
1, 38348, Control_c, 0, 64, 65
1, 38363, Control_c, 0, 64, 67
1, 38372, Note_on_c, 0, 79, 62
1, 38385, Control_c, 0, 64, 68
1, 38399, Note_on_c, 0, 76, 61
1, 38403, Note_off_c, 0, 79, 64
1, 38418, Note_off_c, 0, 76, 67
1, 38444, Note_on_c, 0, 69, 72
1, 38444, Control_c, 0, 64, 68
1, 38459, Control_c, 0, 64, 69
1, 38488, Control_c, 0, 64, 70
1, 38490, Note_off_c, 0, 69, 60
1, 38503, Control_c, 0, 64, 71
1, 38507, Note_on_c, 0, 77, 72
1, 38518, Control_c, 0, 64, 72
1, 38527, Note_off_c, 0, 77, 64
1, 38532, Note_on_c, 0, 74, 26
1, 38533, Control_c, 0, 64, 74
1, 38548, Control_c, 0, 64, 75
1, 38562, Control_c, 0, 64, 76
1, 38565, Note_off_c, 0, 74, 54
1, 38578, Note_on_c, 0, 67, 70
1, 38583, Note_on_c, 0, 70, 66
1, 38607, Control_c, 0, 64, 72
1, 38622, Control_c, 0, 64, 67
1, 38637, Note_off_c, 0, 67, 61
1, 38637, Control_c, 0, 64, 59
1, 38645, Note_off_c, 0, 70, 58
1, 38652, Control_c, 0, 64, 44
1, 38655, Note_on_c, 0, 53, 74
1, 38658, Note_on_c, 0, 75, 71
1, 38667, Control_c, 0, 64, 0
1, 38671, Note_on_c, 0, 72, 47
1, 38679, Note_off_c, 0, 53, 68
1, 38700, Note_off_c, 0, 72, 53
1, 38714, Note_off_c, 0, 75, 57
1, 38738, Note_on_c, 0, 65, 60
1, 38738, Note_on_c, 0, 69, 51
1, 38781, Note_off_c, 0, 65, 62
1, 38816, Note_on_c, 0, 74, 70
1, 38830, Note_on_c, 0, 46, 68
1, 38838, Note_on_c, 0, 70, 65
1, 38841, Note_off_c, 0, 69, 64
1, 38844, Control_c, 0, 67, 125
1, 38850, Note_off_c, 0, 74, 64
1, 38857, Note_off_c, 0, 46, 68
1, 38859, Control_c, 0, 67, 93
1, 38865, Note_off_c, 0, 70, 67
1, 38873, Control_c, 0, 67, 61
1, 38888, Control_c, 0, 67, 41
1, 38903, Control_c, 0, 67, 28
1, 38917, Control_c, 0, 67, 23
1, 38932, Control_c, 0, 67, 21
1, 38948, Control_c, 0, 67, 21
1, 38963, Control_c, 0, 67, 19
1, 38978, Control_c, 0, 67, 17
1, 38993, Control_c, 0, 67, 15
1, 39008, Control_c, 0, 67, 11
1, 39023, Control_c, 0, 67, 0
1, 39066, Note_on_c, 0, 73, 95
1, 39067, Note_on_c, 0, 70, 92
1, 39071, Note_on_c, 0, 61, 97
1, 39074, Note_on_c, 0, 40, 70
1, 39075, Note_on_c, 0, 52, 89
1, 39087, Note_off_c, 0, 70, 67
1, 39089, Note_off_c, 0, 73, 63
1, 39090, Note_off_c, 0, 61, 75
1, 39097, Control_c, 0, 64, 32
1, 39099, Note_off_c, 0, 40, 61
1, 39105, Note_off_c, 0, 52, 68
1, 39112, Control_c, 0, 64, 43
1, 39135, Control_c, 0, 64, 52
1, 39149, Control_c, 0, 64, 60
1, 39164, Control_c, 0, 64, 66
1, 39179, Control_c, 0, 64, 75
1, 39194, Control_c, 0, 64, 79
1, 39209, Control_c, 0, 64, 82
1, 39223, Control_c, 0, 64, 88
1, 39238, Control_c, 0, 64, 96
1, 39253, Control_c, 0, 64, 108
1, 39268, Control_c, 0, 64, 127
1, 39404, Note_on_c, 0, 79, 80
1, 39406, Note_on_c, 0, 76, 80
1, 39409, Note_on_c, 0, 97, 98
1, 39415, Note_on_c, 0, 94, 82
1, 39503, Note_off_c, 0, 76, 65
1, 39540, Note_on_c, 0, 91, 90
1, 39543, Note_on_c, 0, 82, 82
1, 39544, Note_on_c, 0, 88, 83
1, 39550, Note_on_c, 0, 85, 80
1, 39560, Note_off_c, 0, 94, 63
1, 39560, Note_off_c, 0, 97, 65
1, 39564, Note_off_c, 0, 79, 58
1, 39628, Note_off_c, 0, 85, 63
1, 39643, Note_on_c, 0, 76, 74
1, 39647, Note_on_c, 0, 79, 73
1, 39647, Note_on_c, 0, 97, 90
1, 39650, Note_off_c, 0, 82, 63
1, 39650, Note_on_c, 0, 94, 87
1, 39651, Note_off_c, 0, 88, 63
1, 39659, Note_off_c, 0, 91, 61
1, 39722, Note_off_c, 0, 76, 65
1, 39737, Note_on_c, 0, 91, 79
1, 39739, Note_on_c, 0, 88, 76
1, 39741, Note_off_c, 0, 79, 61
1, 39743, Note_off_c, 0, 94, 66
1, 39747, Note_on_c, 0, 82, 77
1, 39749, Note_off_c, 0, 97, 65
1, 39753, Note_on_c, 0, 85, 72
1, 39802, Note_off_c, 0, 88, 65
1, 39818, Note_off_c, 0, 85, 59
1, 39820, Note_on_c, 0, 96, 78
1, 39822, Note_on_c, 0, 93, 85
1, 39822, Note_off_c, 0, 91, 62
1, 39829, Note_on_c, 0, 75, 71
1, 39829, Note_off_c, 0, 82, 64
1, 39833, Note_on_c, 0, 78, 72
1, 39895, Note_off_c, 0, 96, 59
1, 39907, Note_off_c, 0, 75, 58
1, 39916, Note_on_c, 0, 81, 77
1, 39919, Note_on_c, 0, 90, 86
1, 39920, Note_on_c, 0, 87, 79
1, 39921, Note_off_c, 0, 78, 65
1, 39922, Note_on_c, 0, 84, 74
1, 39923, Note_off_c, 0, 93, 63
1, 39963, Note_off_c, 0, 84, 60
1, 39967, Note_off_c, 0, 87, 65
1, 39975, Note_off_c, 0, 81, 60
1, 40002, Note_on_c, 0, 95, 92
1, 40007, Note_on_c, 0, 74, 71
1, 40008, Note_on_c, 0, 92, 84
1, 40014, Note_on_c, 0, 77, 72
1, 40015, Note_off_c, 0, 90, 69
1, 40017, Control_c, 0, 64, 101
1, 40032, Control_c, 0, 64, 71
1, 40046, Control_c, 0, 64, 55
1, 40061, Control_c, 0, 64, 35
1, 40076, Control_c, 0, 64, 25
1, 40080, Note_off_c, 0, 95, 65
1, 40090, Note_on_c, 0, 86, 80
1, 40091, Control_c, 0, 64, 32
1, 40095, Note_on_c, 0, 89, 71
1, 40096, Note_on_c, 0, 83, 69
1, 40098, Note_off_c, 0, 74, 63
1, 40105, Control_c, 0, 64, 42
1, 40106, Note_off_c, 0, 92, 60
1, 40107, Note_on_c, 0, 80, 77
1, 40110, Note_off_c, 0, 77, 64
1, 40116, Note_on_c, 0, 88, 49
1, 40120, Control_c, 0, 64, 54
1, 40132, Note_off_c, 0, 83, 64
1, 40135, Control_c, 0, 64, 64
1, 40141, Note_off_c, 0, 86, 61
1, 40150, Note_off_c, 0, 88, 51
1, 40150, Control_c, 0, 64, 72
1, 40163, Note_off_c, 0, 80, 62
1, 40165, Control_c, 0, 64, 74
1, 40166, Note_on_c, 0, 94, 81
1, 40171, Note_off_c, 0, 89, 66
1, 40173, Note_on_c, 0, 91, 77
1, 40178, Note_on_c, 0, 76, 71
1, 40184, Note_on_c, 0, 73, 61
1, 40209, Control_c, 0, 64, 75
1, 40219, Note_off_c, 0, 73, 52
1, 40224, Control_c, 0, 64, 78
1, 40239, Control_c, 0, 64, 81
1, 40242, Note_on_c, 0, 85, 76
1, 40244, Note_off_c, 0, 76, 66
1, 40245, Note_off_c, 0, 94, 64
1, 40248, Note_on_c, 0, 82, 70
1, 40253, Note_on_c, 0, 88, 70
1, 40253, Note_on_c, 0, 79, 71
1, 40253, Note_off_c, 0, 91, 60
1, 40254, Control_c, 0, 64, 84
1, 40269, Control_c, 0, 64, 85
1, 40273, Note_off_c, 0, 82, 68
1, 40306, Note_off_c, 0, 85, 60
1, 40309, Note_off_c, 0, 79, 62
1, 40326, Note_on_c, 0, 75, 76
1, 40327, Note_on_c, 0, 90, 85
1, 40329, Note_on_c, 0, 93, 80
1, 40330, Note_off_c, 0, 88, 65
1, 40332, Note_on_c, 0, 72, 60
1, 40377, Note_off_c, 0, 93, 62
1, 40380, Note_on_c, 0, 81, 74
1, 40383, Note_off_c, 0, 72, 57
1, 40399, Note_on_c, 0, 78, 84
1, 40402, Note_on_c, 0, 87, 76
1, 40402, Note_on_c, 0, 84, 85
1, 40405, Note_off_c, 0, 75, 62
1, 40408, Note_off_c, 0, 90, 66
1, 40425, Note_off_c, 0, 81, 60
1, 40463, Note_off_c, 0, 78, 67
1, 40467, Note_on_c, 0, 92, 84
1, 40469, Note_off_c, 0, 87, 67
1, 40473, Note_on_c, 0, 71, 66
1, 40476, Note_on_c, 0, 74, 65
1, 40476, Note_off_c, 0, 84, 60
1, 40476, Control_c, 0, 64, 85
1, 40485, Note_on_c, 0, 89, 65
1, 40505, Note_on_c, 0, 88, 50
1, 40535, Note_off_c, 0, 71, 64
1, 40539, Note_off_c, 0, 88, 53
1, 40542, Note_off_c, 0, 92, 64
1, 40544, Note_on_c, 0, 83, 78
1, 40546, Note_off_c, 0, 89, 65
1, 40551, Note_on_c, 0, 86, 72
1, 40552, Note_on_c, 0, 80, 71
1, 40552, Note_off_c, 0, 74, 66
1, 40553, Note_on_c, 0, 77, 76
1, 40577, Note_off_c, 0, 80, 67
1, 40589, Note_off_c, 0, 83, 64
1, 40618, Note_on_c, 0, 91, 85
1, 40619, Note_on_c, 0, 88, 84
1, 40619, Note_off_c, 0, 77, 63
1, 40629, Note_off_c, 0, 86, 64
1, 40634, Note_on_c, 0, 70, 75
1, 40642, Note_on_c, 0, 73, 71
1, 40673, Note_off_c, 0, 91, 58
1, 40688, Note_off_c, 0, 70, 55
1, 40697, Note_on_c, 0, 79, 77
1, 40697, Note_on_c, 0, 82, 86
1, 40703, Note_off_c, 0, 88, 67
1, 40709, Note_on_c, 0, 85, 77
1, 40720, Note_off_c, 0, 73, 64
1, 40721, Note_on_c, 0, 75, 69
1, 40735, Note_off_c, 0, 79, 61
1, 40747, Note_off_c, 0, 82, 63
1, 40763, Note_off_c, 0, 75, 54
1, 40763, Note_off_c, 0, 85, 68
1, 40769, Note_on_c, 0, 90, 90
1, 40776, Note_on_c, 0, 68, 77
1, 40777, Note_on_c, 0, 87, 77
1, 40810, Note_off_c, 0, 68, 57
1, 40814, Note_on_c, 0, 71, 48
1, 40828, Note_on_c, 0, 84, 77
1, 40834, Note_on_c, 0, 81, 82
1, 40834, Note_off_c, 0, 90, 65
1, 40839, Note_off_c, 0, 87, 59
1, 40840, Note_on_c, 0, 78, 83
1, 40848, Note_off_c, 0, 71, 66
1, 40867, Note_off_c, 0, 78, 68
1, 40876, Poly_aftertouch_c, 0, 72, 127
1, 40885, Note_off_c, 0, 81, 60
1, 40902, Note_on_c, 0, 89, 79
1, 40903, Note_on_c, 0, 86, 87
1, 40906, Note_off_c, 0, 84, 66
1, 40912, Poly_aftertouch_c, 0, 72, 0
1, 40913, Note_on_c, 0, 68, 48
1, 40929, Note_on_c, 0, 67, 66
1, 40932, Note_off_c, 0, 68, 64
1, 40936, Note_on_c, 0, 71, 41
1, 40960, Note_off_c, 0, 71, 61
1, 40960, Note_off_c, 0, 89, 65
1, 40962, Note_off_c, 0, 67, 59
1, 40971, Note_on_c, 0, 77, 89
1, 40973, Note_on_c, 0, 80, 83
1, 40974, Note_off_c, 0, 86, 63
1, 40982, Note_on_c, 0, 83, 73
1, 41007, Note_off_c, 0, 80, 61
1, 41022, Note_off_c, 0, 77, 63
1, 41031, Note_on_c, 0, 88, 91
1, 41039, Note_off_c, 0, 83, 63
1, 41051, Note_on_c, 0, 70, 71
1, 41055, Note_on_c, 0, 67, 66
1, 41072, Note_on_c, 0, 85, 34
1, 41082, Note_off_c, 0, 67, 65
1, 41096, Note_off_c, 0, 88, 64
1, 41102, Note_on_c, 0, 79, 86
1, 41105, Note_off_c, 0, 70, 62
1, 41106, Note_off_c, 0, 85, 54
1, 41108, Note_on_c, 0, 76, 85
1, 41147, Note_off_c, 0, 76, 67
1, 41150, Note_off_c, 0, 79, 63
1, 41153, Note_on_c, 0, 80, 40
1, 41165, Note_on_c, 0, 81, 70
1, 41169, Note_on_c, 0, 87, 84
1, 41178, Note_on_c, 0, 84, 62
1, 41182, Note_on_c, 0, 66, 76
1, 41184, Note_off_c, 0, 80, 35
1, 41188, Note_on_c, 0, 69, 56
1, 41195, Note_off_c, 0, 81, 60
1, 41204, Note_on_c, 0, 72, 24
1, 41212, Note_off_c, 0, 66, 63
1, 41217, Note_off_c, 0, 69, 67
1, 41221, Note_off_c, 0, 84, 44
1, 41223, Note_off_c, 0, 87, 65
1, 41230, Note_on_c, 0, 75, 83
1, 41233, Note_on_c, 0, 78, 88
1, 41240, Control_c, 0, 64, 86
1, 41241, Note_off_c, 0, 72, 51
1, 41251, Note_off_c, 0, 78, 70
1, 41270, Note_off_c, 0, 75, 62
1, 41290, Note_on_c, 0, 86, 83
1, 41301, Note_on_c, 0, 68, 73
1, 41312, Note_on_c, 0, 65, 68
1, 41314, Note_on_c, 0, 83, 50
1, 41338, Note_off_c, 0, 83, 60
1, 41344, Note_off_c, 0, 65, 67
1, 41348, Note_on_c, 0, 74, 79
1, 41350, Note_on_c, 0, 71, 3
1, 41353, Note_off_c, 0, 86, 63
1, 41358, Note_on_c, 0, 77, 80
1, 41358, Note_off_c, 0, 68, 59
1, 41397, Note_off_c, 0, 74, 68
1, 41398, Note_off_c, 0, 71, 53
1, 41412, Note_off_c, 0, 77, 63
1, 41442, Note_on_c, 0, 85, 80
1, 41448, Note_on_c, 0, 63, 56
1, 41448, Note_on_c, 0, 79, 57
1, 41463, Note_on_c, 0, 64, 53
1, 41470, Control_c, 0, 64, 87
1, 41472, Note_off_c, 0, 63, 63
1, 41479, Note_on_c, 0, 66, 12
1, 41481, Note_off_c, 0, 79, 48
1, 41485, Control_c, 0, 64, 87
1, 41487, Note_off_c, 0, 64, 63
1, 41498, Note_off_c, 0, 85, 60
1, 41501, Note_on_c, 0, 73, 80
1, 41513, Note_on_c, 0, 76, 70
1, 41519, Note_off_c, 0, 73, 72
1, 41528, Note_off_c, 0, 66, 50
1, 41542, Note_off_c, 0, 76, 59
1, 41559, Note_on_c, 0, 84, 90
1, 41577, Note_on_c, 0, 62, 69
1, 41585, Note_on_c, 0, 64, 61
1, 41588, Control_c, 0, 64, 87
1, 41615, Note_off_c, 0, 64, 63
1, 41621, Note_off_c, 0, 62, 63
1, 41627, Note_on_c, 0, 74, 81
1, 41628, Note_on_c, 0, 72, 74
1, 41636, Note_off_c, 0, 84, 60
1, 41669, Note_on_c, 0, 71, 31
1, 41670, Note_off_c, 0, 71, 127
1, 41677, Note_off_c, 0, 72, 59
1, 41681, Note_off_c, 0, 74, 61
1, 41699, Note_on_c, 0, 82, 82
1, 41701, Note_on_c, 0, 76, 58
1, 41704, Poly_aftertouch_c, 0, 71, 0
1, 41706, Note_on_c, 0, 62, 86
1, 41710, Note_on_c, 0, 65, 64
1, 41721, Note_off_c, 0, 76, 66
1, 41727, Note_on_c, 0, 84, 48
1, 41731, Note_on_c, 0, 83, 32
1, 41738, Note_off_c, 0, 65, 66
1, 41748, Note_off_c, 0, 62, 62
1, 41750, Note_off_c, 0, 84, 58
1, 41761, Note_off_c, 0, 83, 59
1, 41763, Note_off_c, 0, 82, 60
1, 41764, Note_on_c, 0, 72, 77
1, 41770, Note_on_c, 0, 70, 63
1, 41779, Note_on_c, 0, 71, 78
1, 41789, Note_off_c, 0, 70, 64
1, 41800, Note_off_c, 0, 71, 69
1, 41826, Note_on_c, 0, 81, 83
1, 41830, Note_on_c, 0, 83, 81
1, 41831, Note_off_c, 0, 72, 57
1, 41844, Note_on_c, 0, 60, 76
1, 41869, Control_c, 0, 64, 86
1, 41871, Note_off_c, 0, 83, 61
1, 41877, Note_on_c, 0, 78, 14
1, 41885, Note_off_c, 0, 81, 63
1, 41887, Note_off_c, 0, 60, 63
1, 41891, Note_on_c, 0, 69, 77
1, 41898, Note_on_c, 0, 71, 82
1, 41914, Control_c, 0, 64, 86
1, 41924, Poly_aftertouch_c, 0, 61, 127
1, 41929, Note_off_c, 0, 78, 27
1, 41939, Poly_aftertouch_c, 0, 64, 0
1, 41945, Note_off_c, 0, 69, 58
1, 41946, Poly_aftertouch_c, 0, 61, 0
1, 41955, Note_off_c, 0, 71, 62
1, 41963, Note_on_c, 0, 59, 82
1, 41964, Note_on_c, 0, 80, 81
1, 41973, Note_on_c, 0, 74, 46
1, 41975, Note_on_c, 0, 62, 67
1, 41982, Note_on_c, 0, 65, 46
1, 41997, Note_on_c, 0, 81, 48
1, 41998, Note_off_c, 0, 62, 58
1, 41999, Note_off_c, 0, 74, 59
1, 42008, Note_off_c, 0, 59, 58
1, 42008, Note_off_c, 0, 65, 54
1, 42020, Note_on_c, 0, 68, 87
1, 42023, Note_off_c, 0, 81, 58
1, 42031, Note_off_c, 0, 80, 59
1, 42032, Note_on_c, 0, 71, 76
1, 42086, Note_off_c, 0, 68, 59
1, 42096, Note_off_c, 0, 71, 55
1, 42097, Note_on_c, 0, 63, 78
1, 42098, Note_on_c, 0, 80, 73
1, 42101, Note_on_c, 0, 79, 70
1, 42108, Note_on_c, 0, 81, 67
1, 42118, Note_on_c, 0, 73, 40
1, 42121, Note_on_c, 0, 58, 57
1, 42136, Note_on_c, 0, 60, 51
1, 42145, Note_off_c, 0, 81, 50
1, 42151, Note_off_c, 0, 73, 53
1, 42151, Note_off_c, 0, 58, 54
1, 42165, Note_on_c, 0, 69, 78
1, 42171, Note_on_c, 0, 67, 73
1, 42172, Note_off_c, 0, 80, 64
1, 42175, Note_off_c, 0, 79, 62
1, 42180, Note_on_c, 0, 72, 35
1, 42182, Note_off_c, 0, 60, 56
1, 42187, Note_off_c, 0, 63, 63
1, 42193, Poly_aftertouch_c, 0, 57, 127
1, 42204, Control_c, 0, 64, 85
1, 42216, Note_off_c, 0, 67, 60
1, 42219, Control_c, 0, 64, 78
1, 42222, Poly_aftertouch_c, 0, 57, 0
1, 42234, Control_c, 0, 64, 64
1, 42238, Note_off_c, 0, 72, 0
1, 42238, Note_on_c, 0, 72, 41
1, 42242, Note_on_c, 0, 57, 47
1, 42243, Note_off_c, 0, 69, 65
1, 42248, Control_c, 0, 64, 50
1, 42252, Note_on_c, 0, 78, 90
1, 42263, Control_c, 0, 64, 28
1, 42271, Note_on_c, 0, 60, 40
1, 42278, Control_c, 0, 64, 16
1, 42292, Control_c, 0, 64, 24
1, 42301, Note_on_c, 0, 79, 25
1, 42307, Control_c, 0, 64, 38
1, 42313, Note_on_c, 0, 66, 72
1, 42313, Note_on_c, 0, 69, 71
1, 42314, Note_off_c, 0, 57, 61
1, 42317, Note_off_c, 0, 78, 60
1, 42322, Control_c, 0, 64, 51
1, 42324, Note_off_c, 0, 60, 61
1, 42337, Control_c, 0, 64, 63
1, 42341, Note_off_c, 0, 79, 32
1, 42352, Control_c, 0, 64, 72
1, 42360, Note_off_c, 0, 72, 0
1, 42366, Note_off_c, 0, 66, 62
1, 42366, Control_c, 0, 64, 74
1, 42377, Note_on_c, 0, 72, 52
1, 42386, Note_on_c, 0, 63, 50
1, 42389, Note_on_c, 0, 77, 85
1, 42393, Note_on_c, 0, 57, 61
1, 42393, Note_on_c, 0, 60, 50
1, 42396, Control_c, 0, 64, 73
1, 42399, Note_on_c, 0, 75, 65
1, 42399, Note_off_c, 0, 69, 62
1, 42411, Control_c, 0, 64, 72
1, 42424, Note_off_c, 0, 75, 57
1, 42443, Note_off_c, 0, 63, 64
1, 42446, Note_on_c, 0, 65, 71
1, 42447, Note_off_c, 0, 57, 60
1, 42447, Note_off_c, 0, 77, 60
1, 42451, Note_off_c, 0, 60, 63
1, 42467, Note_on_c, 0, 69, 66
1, 42484, Note_off_c, 0, 72, 0
1, 42485, Control_c, 0, 64, 71
1, 42500, Control_c, 0, 64, 68
1, 42507, Note_on_c, 0, 72, 39
1, 42507, Note_off_c, 0, 65, 62
1, 42515, Control_c, 0, 64, 62
1, 42521, Note_on_c, 0, 77, 87
1, 42530, Note_off_c, 0, 69, 65
1, 42530, Control_c, 0, 64, 52
1, 42539, Note_on_c, 0, 57, 61
1, 42539, Note_on_c, 0, 63, 50
1, 42541, Note_on_c, 0, 60, 52
1, 42545, Control_c, 0, 64, 50
1, 42559, Note_on_c, 0, 75, 33
1, 42560, Control_c, 0, 64, 54
1, 42574, Note_off_c, 0, 57, 61
1, 42574, Control_c, 0, 64, 61
1, 42589, Note_on_c, 0, 65, 72
1, 42589, Control_c, 0, 64, 67
1, 42590, Note_off_c, 0, 72, 0
1, 42596, Note_off_c, 0, 75, 44
1, 42598, Note_off_c, 0, 60, 62
1, 42601, Note_off_c, 0, 77, 61
1, 42602, Note_on_c, 0, 69, 75
1, 42604, Control_c, 0, 64, 69
1, 42613, Note_on_c, 0, 72, 18
1, 42619, Control_c, 0, 64, 63
1, 42634, Control_c, 0, 64, 50
1, 42648, Control_c, 0, 64, 26
1, 42652, Note_off_c, 0, 72, 0
1, 42652, Note_on_c, 0, 72, 23
1, 42655, Note_off_c, 0, 65, 60
1, 42658, Note_off_c, 0, 63, 0
1, 42658, Note_on_c, 0, 63, 36
1, 42661, Note_on_c, 0, 77, 88
1, 42663, Control_c, 0, 64, 16
1, 42668, Note_off_c, 0, 69, 65
1, 42673, Note_on_c, 0, 57, 60
1, 42676, Note_on_c, 0, 75, 65
1, 42678, Control_c, 0, 64, 27
1, 42680, Note_on_c, 0, 60, 53
1, 42692, Control_c, 0, 64, 43
1, 42707, Note_off_c, 0, 72, 57
1, 42707, Control_c, 0, 64, 60
1, 42711, Note_off_c, 0, 75, 52
1, 42719, Note_off_c, 0, 60, 58
1, 42722, Control_c, 0, 64, 76
1, 42730, Note_on_c, 0, 69, 77
1, 42731, Note_off_c, 0, 57, 59
1, 42732, Note_off_c, 0, 63, 61
1, 42736, Note_off_c, 0, 77, 61
1, 42737, Control_c, 0, 64, 91
1, 42742, Note_on_c, 0, 65, 73
1, 42752, Control_c, 0, 64, 83
1, 42767, Control_c, 0, 64, 66
1, 42782, Control_c, 0, 64, 51
1, 42782, Control_c, 0, 67, 8
1, 42789, Note_off_c, 0, 65, 62
1, 42797, Control_c, 0, 64, 23
1, 42797, Control_c, 0, 67, 10
1, 42808, Note_on_c, 0, 77, 82
1, 42812, Control_c, 0, 64, 0
1, 42812, Control_c, 0, 67, 11
1, 42813, Note_on_c, 0, 71, 59
1, 42814, Note_off_c, 0, 69, 65
1, 42818, Note_on_c, 0, 57, 65
1, 42820, Note_on_c, 0, 74, 57
1, 42827, Control_c, 0, 64, 20
1, 42827, Control_c, 0, 67, 14
1, 42841, Control_c, 0, 64, 36
1, 42841, Control_c, 0, 67, 17
1, 42845, Note_on_c, 0, 59, 39
1, 42864, Control_c, 0, 64, 50
1, 42864, Control_c, 0, 67, 23
1, 42868, Note_on_c, 0, 62, 29
1, 42873, Note_off_c, 0, 57, 61
1, 42879, Control_c, 0, 64, 62
1, 42879, Control_c, 0, 67, 34
1, 42879, Note_off_c, 0, 71, 0
1, 42883, Note_off_c, 0, 77, 63
1, 42885, Note_on_c, 0, 69, 75
1, 42892, Note_on_c, 0, 65, 74
1, 42893, Control_c, 0, 64, 67
1, 42893, Control_c, 0, 67, 48
1, 42900, Note_on_c, 0, 71, 31
1, 42908, Note_off_c, 0, 59, 61
1, 42908, Control_c, 0, 64, 61
1, 42908, Control_c, 0, 67, 61
1, 42923, Control_c, 0, 64, 45
1, 42923, Control_c, 0, 67, 70
1, 42931, Note_off_c, 0, 65, 60
1, 42935, Note_off_c, 0, 71, 0
1, 42935, Note_on_c, 0, 71, 17
1, 42935, Note_off_c, 0, 69, 65
1, 42938, Control_c, 0, 64, 12
1, 42938, Control_c, 0, 67, 79
1, 42953, Control_c, 0, 64, 0
1, 42953, Control_c, 0, 67, 86
1, 42956, Note_off_c, 0, 62, 0
1, 42959, Note_on_c, 0, 76, 82
1, 42967, Note_on_c, 0, 56, 71
1, 42968, Control_c, 0, 64, 24
1, 42968, Control_c, 0, 67, 94
1, 42981, Note_on_c, 0, 59, 29
1, 42983, Control_c, 0, 64, 43
1, 42983, Control_c, 0, 67, 101
1, 42992, Poly_aftertouch_c, 0, 62, 127
1, 42998, Control_c, 0, 64, 62
1, 42998, Control_c, 0, 67, 110
1, 43013, Control_c, 0, 64, 81
1, 43013, Control_c, 0, 67, 122
1, 43028, Control_c, 0, 64, 83
1, 43028, Control_c, 0, 67, 127
1, 43031, Note_on_c, 0, 68, 81
1, 43033, Note_off_c, 0, 56, 65
1, 43034, Note_on_c, 0, 64, 64
1, 43034, Note_off_c, 0, 76, 66
1, 43043, Control_c, 0, 64, 66
1, 43058, Control_c, 0, 64, 49
1, 43072, Control_c, 0, 64, 16
1, 43087, Control_c, 0, 64, 16
1, 43101, Note_off_c, 0, 74, 0
1, 43102, Control_c, 0, 64, 35
1, 43104, Note_off_c, 0, 59, 0
1, 43108, Note_off_c, 0, 64, 60
1, 43115, Note_on_c, 0, 74, 47
1, 43115, Note_on_c, 0, 76, 86
1, 43116, Control_c, 0, 64, 51
1, 43117, Note_off_c, 0, 68, 60
1, 43127, Note_on_c, 0, 59, 12
1, 43131, Control_c, 0, 64, 64
1, 43133, Note_on_c, 0, 56, 57
1, 43146, Control_c, 0, 64, 68
1, 43161, Control_c, 0, 64, 61
1, 43174, Note_off_c, 0, 56, 62
1, 43176, Control_c, 0, 64, 45
1, 43185, Note_on_c, 0, 64, 59
1, 43190, Control_c, 0, 64, 25
1, 43195, Note_off_c, 0, 59, 54
1, 43196, Note_off_c, 0, 76, 65
1, 43200, Note_on_c, 0, 68, 70
1, 43205, Control_c, 0, 64, 31
1, 43212, Note_off_c, 0, 74, 60
1, 43213, Poly_aftertouch_c, 0, 62, 0
1, 43220, Control_c, 0, 64, 38
1, 43235, Control_c, 0, 64, 40
1, 43250, Control_c, 0, 64, 36
1, 43264, Note_off_c, 0, 64, 60
1, 43264, Control_c, 0, 64, 26
1, 43276, Note_on_c, 0, 76, 81
1, 43276, Note_off_c, 0, 68, 61
1, 43279, Control_c, 0, 64, 25
1, 43293, Note_on_c, 0, 56, 51
1, 43294, Control_c, 0, 64, 36
1, 43295, Note_on_c, 0, 59, 45
1, 43299, Note_on_c, 0, 74, 40
1, 43305, Note_on_c, 0, 62, 42
1, 43309, Control_c, 0, 64, 47
1, 43323, Control_c, 0, 64, 57
1, 43334, Note_off_c, 0, 56, 63
1, 43334, Note_off_c, 0, 74, 49
1, 43338, Control_c, 0, 64, 61
1, 43339, Note_off_c, 0, 59, 63
1, 43341, Note_off_c, 0, 62, 56
1, 43358, Note_off_c, 0, 76, 64
1, 43359, Note_on_c, 0, 64, 64
1, 43359, Note_on_c, 0, 68, 69
1, 43368, Control_c, 0, 64, 59
1, 43383, Control_c, 0, 64, 52
1, 43397, Control_c, 0, 64, 40
1, 43412, Control_c, 0, 64, 27
1, 43427, Control_c, 0, 64, 24
1, 43442, Control_c, 0, 64, 29
1, 43445, Note_off_c, 0, 64, 61
1, 43446, Note_off_c, 0, 68, 60
1, 43450, Note_on_c, 0, 76, 74
1, 43455, Note_off_c, 0, 71, 59
1, 43457, Control_c, 0, 64, 39
1, 43461, Note_on_c, 0, 73, 61
1, 43463, Note_on_c, 0, 55, 54
1, 43464, Note_on_c, 0, 61, 45
1, 43466, Note_on_c, 0, 58, 47
1, 43472, Control_c, 0, 64, 53
1, 43487, Control_c, 0, 64, 62
1, 43502, Control_c, 0, 64, 68
1, 43516, Control_c, 0, 64, 67
1, 43530, Note_off_c, 0, 55, 61
1, 43531, Control_c, 0, 64, 60
1, 43538, Note_off_c, 0, 76, 62
1, 43542, Note_on_c, 0, 64, 59
1, 43543, Note_on_c, 0, 67, 66
1, 43546, Control_c, 0, 64, 43
1, 43552, Note_off_c, 0, 73, 59
1, 43552, Note_off_c, 0, 61, 53
1, 43553, Note_off_c, 0, 58, 59
1, 43557, Note_on_c, 0, 70, 61
1, 43561, Control_c, 0, 64, 0
1, 43605, Control_c, 0, 64, 26
1, 43607, Note_off_c, 0, 64, 63
1, 43627, Control_c, 0, 64, 42
1, 43636, Note_off_c, 0, 67, 60
1, 43636, Note_on_c, 0, 75, 68
1, 43642, Control_c, 0, 64, 53
1, 43643, Note_on_c, 0, 58, 33
1, 43651, Note_on_c, 0, 55, 56
1, 43652, Note_off_c, 0, 70, 59
1, 43657, Control_c, 0, 64, 57
1, 43660, Note_on_c, 0, 73, 56
1, 43664, Note_on_c, 0, 61, 27
1, 43672, Control_c, 0, 64, 49
1, 43687, Control_c, 0, 64, 27
1, 43701, Control_c, 0, 64, 0
1, 43718, Note_off_c, 0, 55, 57
1, 43731, Control_c, 0, 64, 18
1, 43739, Note_off_c, 0, 73, 51
1, 43739, Note_off_c, 0, 75, 59
1, 43744, Note_on_c, 0, 67, 59
1, 43745, Note_off_c, 0, 58, 59
1, 43746, Control_c, 0, 64, 41
1, 43749, Note_on_c, 0, 63, 56
1, 43755, Note_off_c, 0, 61, 39
1, 43758, Note_on_c, 0, 70, 60
1, 43761, Control_c, 0, 64, 56
1, 43776, Control_c, 0, 64, 66
1, 43791, Control_c, 0, 64, 64
1, 43806, Control_c, 0, 64, 52
1, 43821, Control_c, 0, 64, 15
1, 43836, Control_c, 0, 64, 0
1, 43849, Note_off_c, 0, 63, 64
1, 43855, Note_off_c, 0, 67, 55
1, 43859, Note_off_c, 0, 70, 61
1, 43864, Note_on_c, 0, 75, 62
1, 43865, Note_on_c, 0, 55, 45
1, 43865, Control_c, 0, 64, 28
1, 43868, Note_on_c, 0, 73, 56
1, 43878, Note_on_c, 0, 58, 45
1, 43880, Control_c, 0, 64, 48
1, 43885, Note_on_c, 0, 61, 39
1, 43895, Control_c, 0, 64, 63
1, 43910, Control_c, 0, 64, 72
1, 43925, Control_c, 0, 64, 64
1, 43939, Control_c, 0, 64, 49
1, 43954, Control_c, 0, 64, 0
1, 43967, Note_off_c, 0, 55, 58
1, 43968, Note_off_c, 0, 61, 56
1, 43972, Note_off_c, 0, 75, 56
1, 43984, Note_off_c, 0, 58, 59
1, 43984, Control_c, 0, 64, 31
1, 43986, Note_off_c, 0, 73, 55
1, 43991, Note_on_c, 0, 63, 47
1, 43994, Note_on_c, 0, 70, 52
1, 43997, Note_on_c, 0, 67, 42
1, 43999, Control_c, 0, 64, 49
1, 44013, Control_c, 0, 64, 65
1, 44028, Control_c, 0, 64, 80
1, 44043, Control_c, 0, 64, 69
1, 44058, Control_c, 0, 64, 57
1, 44072, Control_c, 0, 64, 31
1, 44087, Control_c, 0, 64, 0
1, 44113, Note_off_c, 0, 63, 62
1, 44126, Note_on_c, 0, 55, 38
1, 44130, Note_on_c, 0, 58, 40
1, 44132, Control_c, 0, 64, 27
1, 44139, Note_off_c, 0, 70, 59
1, 44140, Note_off_c, 0, 67, 52
1, 44146, Control_c, 0, 64, 39
1, 44149, Note_on_c, 0, 61, 26
1, 44158, Note_on_c, 0, 75, 41
1, 44161, Control_c, 0, 64, 47
1, 44163, Note_on_c, 0, 73, 39
1, 44176, Control_c, 0, 64, 53
1, 44191, Control_c, 0, 64, 57
1, 44206, Control_c, 0, 64, 59
1, 44220, Control_c, 0, 64, 61
1, 44235, Control_c, 0, 64, 61
1, 44250, Control_c, 0, 64, 62
1, 44265, Control_c, 0, 64, 62
1, 44280, Control_c, 0, 64, 63
1, 44293, Note_on_c, 0, 63, 51
1, 44294, Note_on_c, 0, 70, 47
1, 44308, Note_on_c, 0, 67, 44
1, 44313, Note_off_c, 0, 75, 35
1, 44319, Note_off_c, 0, 73, 45
1, 44325, Note_off_c, 0, 55, 43
1, 44326, Note_off_c, 0, 63, 64
1, 44332, Note_off_c, 0, 58, 61
1, 44338, Note_off_c, 0, 61, 50
1, 44396, Note_off_c, 0, 67, 52
1, 44494, Control_c, 0, 64, 62
1, 44569, Control_c, 0, 64, 62
1, 44584, Control_c, 0, 64, 61
1, 44595, Note_on_c, 0, 44, 30
1, 44599, Control_c, 0, 64, 59
1, 44614, Control_c, 0, 64, 57
1, 44629, Control_c, 0, 64, 53
1, 44643, Control_c, 0, 64, 50
1, 44658, Control_c, 0, 64, 46
1, 44670, Note_off_c, 0, 70, 60
1, 44673, Control_c, 0, 64, 43
1, 44688, Control_c, 0, 64, 39
1, 44703, Control_c, 0, 64, 33
1, 44709, Note_on_c, 0, 75, 38
1, 44713, Note_on_c, 0, 71, 31
1, 44718, Control_c, 0, 64, 18
1, 44733, Control_c, 0, 64, 0
1, 44836, Control_c, 0, 64, 22
1, 44839, Note_off_c, 0, 75, 60
1, 44841, Note_off_c, 0, 71, 47
1, 44851, Control_c, 0, 64, 31
1, 44863, Note_on_c, 0, 76, 38
1, 44866, Control_c, 0, 64, 38
1, 44881, Control_c, 0, 64, 45
1, 44883, Note_on_c, 0, 73, 37
1, 44895, Control_c, 0, 64, 52
1, 44910, Control_c, 0, 64, 58
1, 44925, Control_c, 0, 64, 60
1, 44940, Control_c, 0, 64, 61
1, 44955, Control_c, 0, 64, 62
1, 44959, Note_off_c, 0, 73, 41
1, 44968, Note_off_c, 0, 76, 46
1, 44976, Note_on_c, 0, 51, 38
1, 44989, Note_on_c, 0, 75, 40
1, 44993, Note_on_c, 0, 71, 31
1, 44999, Control_c, 0, 64, 62
1, 45004, Note_off_c, 0, 44, 39
1, 45028, Control_c, 0, 64, 63
1, 45034, Note_off_c, 0, 71, 50
1, 45042, Note_off_c, 0, 75, 42
1, 45057, Control_c, 0, 64, 63
1, 45069, Note_on_c, 0, 73, 42
1, 45072, Control_c, 0, 64, 64
1, 45073, Note_on_c, 0, 76, 45
1, 45126, Note_off_c, 0, 73, 55
1, 45135, Note_off_c, 0, 76, 44
1, 45150, Note_on_c, 0, 59, 54
1, 45157, Note_on_c, 0, 75, 52
1, 45162, Note_on_c, 0, 71, 43
1, 45208, Note_off_c, 0, 75, 54
1, 45220, Note_off_c, 0, 71, 46
1, 45222, Note_off_c, 0, 59, 62
1, 45228, Control_c, 0, 64, 63
1, 45236, Note_on_c, 0, 73, 56
1, 45240, Note_on_c, 0, 76, 51
1, 45286, Control_c, 0, 64, 63
1, 45294, Note_off_c, 0, 73, 59
1, 45297, Note_off_c, 0, 76, 58
1, 45305, Note_on_c, 0, 43, 63
1, 45324, Note_on_c, 0, 75, 56
1, 45331, Control_c, 0, 64, 62
1, 45332, Note_on_c, 0, 71, 46
1, 45338, Note_off_c, 0, 51, 42
1, 45362, Control_c, 0, 64, 62
1, 45373, Note_off_c, 0, 75, 57
1, 45377, Control_c, 0, 64, 61
1, 45377, Note_off_c, 0, 71, 49
1, 45391, Control_c, 0, 64, 59
1, 45405, Note_on_c, 0, 76, 50
1, 45406, Control_c, 0, 64, 57
1, 45420, Note_on_c, 0, 73, 49
1, 45421, Control_c, 0, 64, 55
1, 45436, Control_c, 0, 64, 52
1, 45451, Control_c, 0, 64, 48
1, 45454, Note_off_c, 0, 73, 53
1, 45454, Note_off_c, 0, 76, 55
1, 45465, Control_c, 0, 64, 41
1, 45480, Note_on_c, 0, 71, 48
1, 45480, Control_c, 0, 64, 29
1, 45481, Note_on_c, 0, 44, 57
1, 45488, Note_on_c, 0, 75, 49
1, 45491, Note_off_c, 0, 43, 54
1, 45495, Control_c, 0, 64, 8
1, 45509, Control_c, 0, 64, 0
1, 45526, Note_off_c, 0, 75, 63
1, 45528, Note_off_c, 0, 71, 61
1, 45553, Note_on_c, 0, 73, 48
1, 45562, Note_on_c, 0, 76, 47
1, 45583, Control_c, 0, 64, 11
1, 45596, Note_off_c, 0, 76, 57
1, 45598, Control_c, 0, 64, 24
1, 45599, Note_off_c, 0, 73, 63
1, 45613, Control_c, 0, 64, 33
1, 45628, Note_off_c, 0, 44, 60
1, 45628, Control_c, 0, 64, 40
1, 45630, Note_on_c, 0, 51, 60
1, 45630, Note_on_c, 0, 71, 46
1, 45641, Note_on_c, 0, 75, 49
1, 45643, Control_c, 0, 64, 48
1, 45657, Control_c, 0, 64, 54
1, 45672, Note_off_c, 0, 75, 56
1, 45672, Control_c, 0, 64, 58
1, 45673, Note_off_c, 0, 71, 49
1, 45687, Control_c, 0, 64, 60
1, 45698, Note_on_c, 0, 73, 59
1, 45698, Note_on_c, 0, 76, 50
1, 45702, Control_c, 0, 64, 61
1, 45743, Note_off_c, 0, 73, 58
1, 45748, Note_off_c, 0, 76, 54
1, 45761, Control_c, 0, 64, 61
1, 45764, Note_on_c, 0, 59, 63
1, 45767, Note_on_c, 0, 71, 55
1, 45773, Note_on_c, 0, 75, 57
1, 45784, Note_off_c, 0, 59, 64
1, 45799, Note_off_c, 0, 51, 62
1, 45806, Control_c, 0, 64, 62
1, 45814, Note_off_c, 0, 75, 61
1, 45818, Note_off_c, 0, 71, 59
1, 45843, Note_on_c, 0, 76, 54
1, 45844, Note_on_c, 0, 73, 59
1, 45901, Note_off_c, 0, 73, 58
1, 45906, Note_on_c, 0, 39, 67
1, 45907, Note_off_c, 0, 76, 53
1, 45917, Note_on_c, 0, 71, 58
1, 45931, Control_c, 0, 64, 61
1, 45933, Note_on_c, 0, 75, 58
1, 45961, Note_off_c, 0, 75, 55
1, 45961, Control_c, 0, 64, 60
1, 45976, Control_c, 0, 64, 58
1, 45979, Note_off_c, 0, 71, 59
1, 45991, Control_c, 0, 64, 55
1, 46000, Note_on_c, 0, 76, 51
1, 46006, Control_c, 0, 64, 49
1, 46008, Note_on_c, 0, 73, 58
1, 46021, Control_c, 0, 64, 39
1, 46031, Note_off_c, 0, 76, 54
1, 46035, Control_c, 0, 64, 25
1, 46036, Note_off_c, 0, 73, 60
1, 46047, Note_on_c, 0, 44, 70
1, 46050, Control_c, 0, 64, 0
1, 46053, Note_on_c, 0, 75, 59
1, 46055, Note_on_c, 0, 71, 59
1, 46074, Note_off_c, 0, 39, 63
1, 46107, Note_off_c, 0, 75, 58
1, 46109, Control_c, 0, 64, 12
1, 46117, Note_off_c, 0, 71, 64
1, 46118, Note_on_c, 0, 73, 69
1, 46120, Note_on_c, 0, 76, 60
1, 46124, Control_c, 0, 64, 24
1, 46140, Control_c, 0, 64, 32
1, 46155, Control_c, 0, 64, 40
1, 46170, Control_c, 0, 64, 48
1, 46185, Control_c, 0, 64, 53
1, 46188, Note_off_c, 0, 73, 65
1, 46197, Note_on_c, 0, 75, 66
1, 46197, Note_on_c, 0, 51, 69
1, 46199, Control_c, 0, 64, 57
1, 46206, Note_on_c, 0, 71, 54
1, 46214, Control_c, 0, 64, 60
1, 46219, Note_off_c, 0, 44, 60
1, 46229, Control_c, 0, 64, 60
1, 46231, Note_off_c, 0, 75, 59
1, 46237, Note_off_c, 0, 76, 44
1, 46244, Control_c, 0, 64, 61
1, 46244, Note_on_c, 0, 74, 69
1, 46247, Note_off_c, 0, 71, 65
1, 46258, Note_on_c, 0, 70, 72
1, 46267, Note_off_c, 0, 51, 63
1, 46288, Control_c, 0, 64, 61
1, 46312, Note_off_c, 0, 70, 61
1, 46319, Note_on_c, 0, 71, 68
1, 46325, Note_off_c, 0, 74, 62
1, 46331, Note_on_c, 0, 75, 67
1, 46332, Control_c, 0, 64, 61
1, 46340, Note_on_c, 0, 59, 74
1, 46362, Control_c, 0, 64, 60
1, 46377, Control_c, 0, 64, 59
1, 46384, Note_off_c, 0, 71, 63
1, 46387, Note_on_c, 0, 76, 69
1, 46387, Note_off_c, 0, 75, 62
1, 46392, Control_c, 0, 64, 58
1, 46393, Note_on_c, 0, 73, 77
1, 46406, Control_c, 0, 64, 56
1, 46421, Control_c, 0, 64, 53
1, 46436, Control_c, 0, 64, 50
1, 46451, Control_c, 0, 64, 46
1, 46456, Note_on_c, 0, 71, 61
1, 46456, Note_off_c, 0, 73, 64
1, 46461, Note_on_c, 0, 75, 65
1, 46465, Control_c, 0, 64, 42
1, 46470, Note_on_c, 0, 49, 72
1, 46470, Note_off_c, 0, 59, 50
1, 46480, Control_c, 0, 64, 38
1, 46491, Note_off_c, 0, 76, 61
1, 46495, Control_c, 0, 64, 35
1, 46510, Control_c, 0, 64, 31
1, 46521, Note_on_c, 0, 74, 70
1, 46521, Note_off_c, 0, 75, 62
1, 46524, Note_off_c, 0, 71, 66
1, 46525, Note_on_c, 0, 70, 78
1, 46525, Control_c, 0, 64, 26
1, 46540, Control_c, 0, 64, 20
1, 46555, Control_c, 0, 64, 0
1, 46589, Note_off_c, 0, 70, 62
1, 46597, Note_on_c, 0, 75, 65
1, 46608, Note_on_c, 0, 71, 71
1, 46608, Note_off_c, 0, 74, 63
1, 46613, Note_on_c, 0, 47, 70
1, 46613, Note_off_c, 0, 49, 61
1, 46665, Note_on_c, 0, 76, 73
1, 46665, Note_off_c, 0, 75, 61
1, 46679, Note_off_c, 0, 71, 60
1, 46682, Note_on_c, 0, 73, 81
1, 46747, Note_off_c, 0, 73, 64
1, 46748, Note_on_c, 0, 75, 66
1, 46762, Note_off_c, 0, 76, 60
1, 46763, Note_on_c, 0, 51, 65
1, 46763, Note_on_c, 0, 71, 63
1, 46800, Control_c, 0, 64, 11
1, 46802, Note_off_c, 0, 47, 58
1, 46805, Note_on_c, 0, 74, 64
1, 46808, Note_off_c, 0, 75, 61
1, 46814, Control_c, 0, 64, 18
1, 46819, Note_off_c, 0, 71, 66
1, 46826, Note_on_c, 0, 70, 70
1, 46829, Control_c, 0, 64, 26
1, 46844, Control_c, 0, 64, 34
1, 46859, Control_c, 0, 64, 42
1, 46873, Control_c, 0, 64, 49
1, 46882, Note_off_c, 0, 70, 61
1, 46885, Note_on_c, 0, 59, 67
1, 46888, Control_c, 0, 64, 54
1, 46894, Note_off_c, 0, 74, 46
1, 46894, Note_on_c, 0, 71, 67
1, 46903, Control_c, 0, 64, 57
1, 46905, Note_off_c, 0, 59, 64
1, 46912, Note_on_c, 0, 75, 64
1, 46918, Note_off_c, 0, 51, 58
1, 46918, Control_c, 0, 64, 59
1, 46948, Note_off_c, 0, 71, 62
1, 46951, Note_off_c, 0, 75, 63
1, 46987, Note_on_c, 0, 73, 58
1, 47008, Control_c, 0, 64, 59
1, 47013, Note_off_c, 0, 73, 60
1, 47022, Note_on_c, 0, 39, 67
1, 47030, Note_on_c, 0, 74, 49
1, 47068, Note_on_c, 0, 71, 41
1, 47095, Note_off_c, 0, 71, 59
1, 47113, Note_on_c, 0, 70, 69
1, 47142, Note_off_c, 0, 74, 56
1, 47152, Note_off_c, 0, 39, 37
1, 47156, Control_c, 0, 64, 58
1, 47171, Control_c, 0, 64, 55
1, 47186, Control_c, 0, 64, 45
1, 47201, Control_c, 0, 64, 21
1, 47216, Control_c, 0, 64, 0
1, 47226, Note_off_c, 0, 70, 61
1, 47234, Note_on_c, 0, 44, 62
1, 47246, Note_on_c, 0, 75, 51
1, 47255, Note_on_c, 0, 71, 50
1, 47274, Control_c, 0, 64, 17
1, 47288, Control_c, 0, 64, 28
1, 47302, Note_off_c, 0, 44, 62
1, 47303, Control_c, 0, 64, 39
1, 47312, Note_off_c, 0, 75, 51
1, 47318, Control_c, 0, 64, 47
1, 47333, Control_c, 0, 64, 54
1, 47344, Note_off_c, 0, 71, 60
1, 47348, Control_c, 0, 64, 59
1, 47352, Note_on_c, 0, 76, 46
1, 47370, Control_c, 0, 64, 61
1, 47383, Note_on_c, 0, 73, 61
1, 47385, Control_c, 0, 64, 62
1, 47398, Note_off_c, 0, 76, 48
1, 47415, Control_c, 0, 64, 62
1, 47451, Note_off_c, 0, 73, 63
1, 47459, Control_c, 0, 64, 63
1, 47469, Note_on_c, 0, 77, 59
1, 47473, Note_on_c, 0, 68, 66
1, 47474, Note_on_c, 0, 74, 62
1, 47474, Control_c, 0, 64, 63
1, 47498, Note_on_c, 0, 63, 45
1, 47502, Note_off_c, 0, 68, 51
1, 47503, Control_c, 0, 64, 64
1, 47523, Note_off_c, 0, 77, 61
1, 47532, Note_on_c, 0, 78, 64
1, 47533, Control_c, 0, 67, 121
1, 47535, Note_off_c, 0, 74, 63
1, 47537, Note_off_c, 0, 63, 60
1, 47548, Control_c, 0, 67, 111
1, 47562, Control_c, 0, 67, 104
1, 47577, Control_c, 0, 64, 64
1, 47577, Control_c, 0, 67, 100
1, 47581, Note_on_c, 0, 75, 39
1, 47585, Note_off_c, 0, 78, 52
1, 47592, Control_c, 0, 67, 97
1, 47606, Control_c, 0, 67, 94
1, 47610, Note_off_c, 0, 75, 53
1, 47616, Note_on_c, 0, 76, 61
1, 47621, Control_c, 0, 67, 89
1, 47625, Note_on_c, 0, 68, 68
1, 47629, Note_on_c, 0, 79, 56
1, 47633, Note_on_c, 0, 63, 60
1, 47636, Control_c, 0, 67, 83
1, 47651, Control_c, 0, 67, 78
1, 47655, Note_off_c, 0, 68, 57
1, 47666, Control_c, 0, 67, 75
1, 47670, Note_off_c, 0, 63, 64
1, 47671, Note_off_c, 0, 79, 61
1, 47679, Note_off_c, 0, 76, 63
1, 47681, Control_c, 0, 67, 72
1, 47696, Control_c, 0, 67, 69
1, 47703, Note_on_c, 0, 77, 65
1, 47705, Note_on_c, 0, 80, 61
1, 47711, Control_c, 0, 67, 67
1, 47726, Control_c, 0, 64, 65
1, 47726, Control_c, 0, 67, 64
1, 47732, Note_off_c, 0, 77, 64
1, 47741, Control_c, 0, 67, 61
1, 47753, Note_off_c, 0, 80, 63
1, 47756, Note_on_c, 0, 81, 71
1, 47756, Control_c, 0, 67, 59
1, 47763, Poly_aftertouch_c, 0, 59, 0
1, 47767, Note_on_c, 0, 66, 72
1, 47771, Control_c, 0, 67, 57
1, 47777, Note_on_c, 0, 78, 70
1, 47781, Note_on_c, 0, 59, 23
1, 47782, Note_on_c, 0, 63, 62
1, 47785, Control_c, 0, 67, 54
1, 47795, Note_off_c, 0, 66, 63
1, 47800, Control_c, 0, 67, 51
1, 47813, Note_off_c, 0, 81, 62
1, 47814, Note_off_c, 0, 63, 66
1, 47815, Control_c, 0, 64, 65
1, 47815, Control_c, 0, 67, 50
1, 47830, Control_c, 0, 67, 49
1, 47833, Note_off_c, 0, 59, 45
1, 47833, Note_off_c, 0, 78, 66
1, 47841, Note_on_c, 0, 79, 69
1, 47845, Control_c, 0, 64, 65
1, 47851, Note_on_c, 0, 82, 58
1, 47860, Control_c, 0, 64, 64
1, 47860, Control_c, 0, 67, 49
1, 47875, Control_c, 0, 64, 58
1, 47875, Control_c, 0, 67, 48
1, 47884, Note_off_c, 0, 79, 60
1, 47890, Control_c, 0, 64, 47
1, 47890, Control_c, 0, 67, 47
1, 47895, Note_on_c, 0, 66, 75
1, 47895, Note_on_c, 0, 83, 64
1, 47904, Control_c, 0, 64, 34
1, 47904, Control_c, 0, 67, 46
1, 47909, Note_on_c, 0, 80, 64
1, 47911, Note_on_c, 0, 63, 60
1, 47914, Note_on_c, 0, 59, 65
1, 47919, Control_c, 0, 64, 30
1, 47919, Control_c, 0, 67, 45
1, 47925, Note_off_c, 0, 82, 65
1, 47928, Note_off_c, 0, 66, 62
1, 47934, Control_c, 0, 64, 32
1, 47934, Control_c, 0, 67, 43
1, 47944, Note_off_c, 0, 63, 68
1, 47949, Control_c, 0, 64, 38
1, 47949, Control_c, 0, 67, 42
1, 47961, Note_off_c, 0, 80, 62
1, 47964, Note_on_c, 0, 81, 72
1, 47964, Control_c, 0, 64, 45
1, 47964, Control_c, 0, 67, 41
1, 47964, Note_on_c, 0, 84, 71
1, 47975, Note_off_c, 0, 59, 61
1, 47978, Note_off_c, 0, 83, 59
1, 47978, Control_c, 0, 64, 50
1, 47978, Control_c, 0, 67, 40
1, 47993, Control_c, 0, 64, 52
1, 47993, Control_c, 0, 67, 39
1, 48008, Control_c, 0, 64, 54
1, 48008, Control_c, 0, 67, 38
1, 48018, Note_off_c, 0, 81, 58
1, 48020, Note_off_c, 0, 84, 65
1, 48023, Control_c, 0, 67, 36
1, 48027, Note_on_c, 0, 64, 77
1, 48033, Note_on_c, 0, 82, 72
1, 48033, Note_on_c, 0, 85, 62
1, 48038, Control_c, 0, 67, 35
1, 48046, Note_on_c, 0, 59, 40
1, 48052, Control_c, 0, 64, 53
1, 48052, Control_c, 0, 67, 34
1, 48055, Note_on_c, 0, 56, 48
1, 48067, Note_off_c, 0, 64, 60
1, 48081, Note_off_c, 0, 82, 61
1, 48081, Note_off_c, 0, 85, 59
1, 48082, Note_on_c, 0, 83, 72
1, 48082, Control_c, 0, 67, 33
1, 48083, Note_off_c, 0, 59, 62
1, 48084, Note_off_c, 0, 56, 58
1, 48095, Note_on_c, 0, 86, 78
1, 48097, Control_c, 0, 64, 53
1, 48097, Control_c, 0, 67, 33
1, 48119, Control_c, 0, 64, 52
1, 48129, Note_off_c, 0, 83, 64
1, 48134, Control_c, 0, 64, 52
1, 48134, Control_c, 0, 67, 34
1, 48149, Control_c, 0, 67, 35
1, 48161, Note_on_c, 0, 64, 65
1, 48161, Note_off_c, 0, 86, 63
1, 48164, Control_c, 0, 67, 35
1, 48166, Note_on_c, 0, 84, 75
1, 48168, Note_on_c, 0, 56, 71
1, 48168, Note_on_c, 0, 59, 63
1, 48171, Note_on_c, 0, 87, 73
1, 48179, Control_c, 0, 67, 37
1, 48184, Note_off_c, 0, 64, 66
1, 48193, Control_c, 0, 67, 38
1, 48206, Note_off_c, 0, 59, 63
1, 48206, Note_off_c, 0, 56, 60
1, 48208, Control_c, 0, 67, 38
1, 48221, Note_off_c, 0, 84, 63
1, 48223, Control_c, 0, 67, 40
1, 48229, Note_on_c, 0, 88, 69
1, 48229, Note_on_c, 0, 85, 73
1, 48237, Control_c, 0, 67, 41
1, 48244, Note_off_c, 0, 87, 65
1, 48252, Control_c, 0, 67, 42
1, 48282, Control_c, 0, 67, 43
1, 48285, Note_off_c, 0, 85, 65
1, 48286, Note_on_c, 0, 89, 78
1, 48288, Note_on_c, 0, 63, 66
1, 48295, Note_on_c, 0, 86, 75
1, 48297, Note_on_c, 0, 56, 55
1, 48297, Control_c, 0, 67, 43
1, 48300, Note_on_c, 0, 59, 54
1, 48311, Note_off_c, 0, 88, 63
1, 48311, Control_c, 0, 64, 51
1, 48311, Control_c, 0, 67, 44
1, 48313, Note_off_c, 0, 63, 60
1, 48326, Control_c, 0, 64, 50
1, 48326, Control_c, 0, 67, 45
1, 48334, Note_off_c, 0, 59, 62
1, 48334, Note_off_c, 0, 56, 64
1, 48341, Control_c, 0, 64, 46
1, 48341, Control_c, 0, 67, 48
1, 48349, Note_off_c, 0, 89, 65
1, 48355, Note_off_c, 0, 86, 61
1, 48356, Control_c, 0, 64, 36
1, 48356, Control_c, 0, 67, 53
1, 48358, Note_on_c, 0, 90, 74
1, 48364, Note_on_c, 0, 87, 69
1, 48371, Control_c, 0, 64, 17
1, 48371, Control_c, 0, 67, 57
1, 48385, Control_c, 0, 64, 0
1, 48385, Control_c, 0, 67, 61
1, 48400, Control_c, 0, 67, 62
1, 48406, Note_on_c, 0, 63, 74
1, 48415, Control_c, 0, 67, 64
1, 48416, Note_on_c, 0, 59, 65
1, 48418, Note_off_c, 0, 90, 64
1, 48420, Note_on_c, 0, 56, 65
1, 48420, Note_on_c, 0, 88, 72
1, 48426, Note_off_c, 0, 87, 63
1, 48429, Control_c, 0, 67, 67
1, 48431, Note_on_c, 0, 91, 74
1, 48441, Note_off_c, 0, 63, 65
1, 48444, Note_off_c, 0, 59, 64
1, 48444, Control_c, 0, 64, 22
1, 48444, Control_c, 0, 67, 69
1, 48456, Note_off_c, 0, 56, 67
1, 48459, Control_c, 0, 64, 30
1, 48459, Control_c, 0, 67, 72
1, 48466, Note_off_c, 0, 88, 63
1, 48474, Control_c, 0, 64, 37
1, 48474, Control_c, 0, 67, 75
1, 48488, Note_off_c, 0, 91, 61
1, 48489, Control_c, 0, 64, 43
1, 48489, Control_c, 0, 67, 78
1, 48492, Note_on_c, 0, 92, 77
1, 48498, Note_on_c, 0, 89, 65
1, 48504, Control_c, 0, 64, 48
1, 48504, Control_c, 0, 67, 79
1, 48517, Note_off_c, 0, 89, 67
1, 48519, Control_c, 0, 64, 52
1, 48519, Control_c, 0, 67, 82
1, 48534, Control_c, 0, 64, 54
1, 48534, Control_c, 0, 67, 84
1, 48546, Note_off_c, 0, 92, 68
1, 48547, Note_on_c, 0, 61, 65
1, 48549, Control_c, 0, 64, 55
1, 48549, Control_c, 0, 67, 88
1, 48553, Note_on_c, 0, 90, 76
1, 48556, Note_on_c, 0, 93, 68
1, 48557, Note_on_c, 0, 51, 58
1, 48560, Note_on_c, 0, 56, 55
1, 48564, Control_c, 0, 67, 91
1, 48572, Note_off_c, 0, 61, 66
1, 48579, Control_c, 0, 67, 95
1, 48591, Note_off_c, 0, 56, 65
1, 48594, Note_off_c, 0, 51, 53
1, 48594, Control_c, 0, 67, 98
1, 48608, Control_c, 0, 64, 55
1, 48608, Control_c, 0, 67, 100
1, 48610, Note_off_c, 0, 90, 67
1, 48611, Note_off_c, 0, 93, 63
1, 48623, Note_on_c, 0, 91, 69
1, 48623, Control_c, 0, 64, 53
1, 48623, Control_c, 0, 67, 104
1, 48628, Note_on_c, 0, 94, 72
1, 48638, Control_c, 0, 64, 47
1, 48638, Control_c, 0, 67, 110
1, 48653, Control_c, 0, 64, 35
1, 48653, Control_c, 0, 67, 120
1, 48668, Control_c, 0, 64, 0
1, 48668, Control_c, 0, 67, 127
1, 48683, Control_c, 0, 67, 127
1, 48683, Note_off_c, 0, 91, 53
1, 48691, Note_on_c, 0, 95, 76
1, 48693, Note_off_c, 0, 94, 66
1, 48697, Note_on_c, 0, 61, 60
1, 48697, Note_on_c, 0, 92, 71
1, 48703, Note_on_c, 0, 56, 53
1, 48722, Note_on_c, 0, 51, 34
1, 48741, Note_off_c, 0, 95, 65
1, 48742, Note_off_c, 0, 61, 65
1, 48745, Note_off_c, 0, 56, 67
1, 48757, Note_off_c, 0, 92, 63
1, 48760, Note_off_c, 0, 51, 55
1, 48836, Note_on_c, 0, 59, 62
1, 48848, Note_on_c, 0, 56, 47
1, 48861, Note_on_c, 0, 51, 52
1, 48872, Note_off_c, 0, 59, 64
1, 48879, Note_off_c, 0, 56, 61
1, 48897, Note_off_c, 0, 51, 66
1, 48990, Note_on_c, 0, 56, 47
1, 48995, Note_on_c, 0, 59, 50
1, 49005, Note_on_c, 0, 51, 48
1, 49031, Control_c, 0, 64, 14
1, 49034, Note_off_c, 0, 59, 65
1, 49046, Control_c, 0, 64, 25
1, 49051, Note_off_c, 0, 51, 64
1, 49056, Note_off_c, 0, 56, 65
1, 49060, Control_c, 0, 64, 29
1, 49075, Control_c, 0, 64, 35
1, 49090, Control_c, 0, 64, 43
1, 49105, Control_c, 0, 64, 51
1, 49120, Control_c, 0, 64, 58
1, 49134, Control_c, 0, 64, 60
1, 49138, Note_on_c, 0, 58, 60
1, 49142, Note_on_c, 0, 49, 54
1, 49149, Control_c, 0, 64, 62
1, 49154, Note_on_c, 0, 51, 47
1, 49173, Note_off_c, 0, 58, 64
1, 49179, Control_c, 0, 64, 62
1, 49180, Note_off_c, 0, 49, 59
1, 49186, Note_off_c, 0, 51, 65
1, 49194, Control_c, 0, 64, 63
1, 49208, Control_c, 0, 64, 63
1, 49223, Control_c, 0, 64, 64
1, 49267, Control_c, 0, 64, 63
1, 49282, Note_on_c, 0, 58, 62
1, 49282, Control_c, 0, 64, 60
1, 49284, Note_on_c, 0, 51, 56
1, 49287, Note_on_c, 0, 49, 51
1, 49297, Control_c, 0, 64, 51
1, 49312, Control_c, 0, 64, 36
1, 49328, Control_c, 0, 64, 32
1, 49340, Note_off_c, 0, 49, 65
1, 49342, Note_off_c, 0, 58, 63
1, 49343, Control_c, 0, 64, 36
1, 49357, Control_c, 0, 64, 43
1, 49361, Note_off_c, 0, 51, 63
1, 49372, Control_c, 0, 64, 52
1, 49387, Control_c, 0, 64, 58
1, 49402, Control_c, 0, 64, 61
1, 49417, Control_c, 0, 64, 61
1, 49431, Control_c, 0, 64, 61
1, 49460, Note_on_c, 0, 56, 66
1, 49473, Note_on_c, 0, 47, 55
1, 49476, Control_c, 0, 64, 61
1, 49477, Note_on_c, 0, 51, 57
1, 49490, Control_c, 0, 64, 62
1, 49521, Control_c, 0, 64, 62
1, 49526, Note_off_c, 0, 47, 61
1, 49580, Control_c, 0, 64, 63
1, 49595, Control_c, 0, 64, 63
1, 49595, Control_c, 0, 67, 114
1, 49607, Note_off_c, 0, 56, 61
1, 49618, Control_c, 0, 67, 103
1, 49632, Control_c, 0, 67, 95
1, 49647, Control_c, 0, 67, 84
1, 49662, Control_c, 0, 67, 69
1, 49677, Control_c, 0, 67, 60
1, 49691, Control_c, 0, 67, 56
1, 49702, Note_on_c, 0, 44, 60
1, 49706, Control_c, 0, 67, 55
1, 49721, Control_c, 0, 64, 63
1, 49721, Control_c, 0, 67, 53
1, 49736, Control_c, 0, 67, 48
1, 49751, Control_c, 0, 64, 62
1, 49751, Control_c, 0, 67, 42
1, 49765, Control_c, 0, 67, 38
1, 49768, Note_off_c, 0, 51, 38
1, 49780, Control_c, 0, 64, 62
1, 49780, Control_c, 0, 67, 37
1, 49795, Control_c, 0, 64, 60
1, 49795, Control_c, 0, 67, 35
1, 49810, Control_c, 0, 64, 58
1, 49810, Control_c, 0, 67, 33
1, 49813, Note_on_c, 0, 78, 81
1, 49818, Note_on_c, 0, 75, 69
1, 49825, Control_c, 0, 64, 55
1, 49825, Control_c, 0, 67, 29
1, 49839, Control_c, 0, 64, 49
1, 49839, Control_c, 0, 67, 25
1, 49854, Control_c, 0, 64, 41
1, 49854, Control_c, 0, 67, 24
1, 49869, Control_c, 0, 64, 30
1, 49869, Control_c, 0, 67, 24
1, 49884, Control_c, 0, 64, 0
1, 49884, Control_c, 0, 67, 23
1, 49899, Control_c, 0, 67, 22
1, 49914, Control_c, 0, 67, 20
1, 49929, Control_c, 0, 67, 19
1, 49944, Control_c, 0, 67, 18
1, 49955, Note_on_c, 0, 80, 66
1, 49958, Control_c, 0, 67, 16
1, 49959, Note_off_c, 0, 78, 63
1, 49964, Note_off_c, 0, 75, 62
1, 49973, Control_c, 0, 67, 14
1, 49980, Note_on_c, 0, 76, 59
1, 49988, Control_c, 0, 64, 22
1, 49988, Control_c, 0, 67, 12
1, 50002, Control_c, 0, 64, 32
1, 50002, Control_c, 0, 67, 10
1, 50017, Control_c, 0, 64, 39
1, 50017, Control_c, 0, 67, 9
1, 50032, Control_c, 0, 64, 46
1, 50032, Control_c, 0, 67, 8
1, 50045, Note_off_c, 0, 80, 57
1, 50047, Control_c, 0, 64, 52
1, 50047, Control_c, 0, 67, 0
1, 50052, Note_off_c, 0, 76, 65
1, 50060, Note_on_c, 0, 51, 52
1, 50060, Note_on_c, 0, 78, 67
1, 50062, Control_c, 0, 64, 57
1, 50069, Note_on_c, 0, 75, 56
1, 50076, Control_c, 0, 64, 59
1, 50091, Control_c, 0, 64, 60
1, 50092, Note_off_c, 0, 44, 60
1, 50106, Control_c, 0, 64, 60
1, 50111, Note_off_c, 0, 78, 62
1, 50125, Note_off_c, 0, 75, 57
1, 50140, Note_on_c, 0, 80, 61
1, 50150, Note_on_c, 0, 76, 53
1, 50152, Control_c, 0, 64, 61
1, 50167, Control_c, 0, 64, 62
1, 50181, Control_c, 0, 64, 62
1, 50192, Note_off_c, 0, 76, 55
1, 50194, Note_off_c, 0, 80, 57
1, 50206, Note_off_c, 0, 51, 61
1, 50222, Note_on_c, 0, 60, 60
1, 50222, Note_on_c, 0, 75, 49
1, 50224, Note_on_c, 0, 78, 56
1, 50251, Note_off_c, 0, 60, 66
1, 50258, Note_off_c, 0, 78, 57
1, 50270, Note_off_c, 0, 75, 49
1, 50270, Control_c, 0, 64, 63
1, 50289, Note_on_c, 0, 76, 63
1, 50294, Note_on_c, 0, 80, 57
1, 50327, Note_off_c, 0, 76, 49
1, 50338, Note_off_c, 0, 80, 56
1, 50359, Note_on_c, 0, 78, 61
1, 50372, Note_on_c, 0, 43, 67
1, 50380, Note_on_c, 0, 75, 45
1, 50411, Note_off_c, 0, 75, 56
1, 50411, Control_c, 0, 64, 62
1, 50412, Note_off_c, 0, 78, 62
1, 50436, Note_on_c, 0, 76, 57
1, 50437, Note_on_c, 0, 80, 62
1, 50455, Control_c, 0, 64, 62
1, 50470, Control_c, 0, 64, 61
1, 50483, Note_off_c, 0, 80, 52
1, 50485, Control_c, 0, 64, 60
1, 50486, Note_off_c, 0, 76, 60
1, 50500, Control_c, 0, 64, 58
1, 50507, Note_on_c, 0, 75, 53
1, 50514, Control_c, 0, 64, 54
1, 50522, Note_on_c, 0, 78, 50
1, 50525, Note_on_c, 0, 44, 68
1, 50529, Control_c, 0, 64, 45
1, 50544, Control_c, 0, 64, 31
1, 50552, Note_off_c, 0, 78, 59
1, 50553, Note_off_c, 0, 43, 59
1, 50559, Control_c, 0, 64, 0
1, 50567, Note_off_c, 0, 75, 53
1, 50587, Note_on_c, 0, 80, 52
1, 50590, Note_on_c, 0, 76, 58
1, 50626, Note_off_c, 0, 80, 54
1, 50633, Note_off_c, 0, 76, 60
1, 50641, Note_on_c, 0, 78, 60
1, 50647, Control_c, 0, 64, 20
1, 50662, Control_c, 0, 64, 31
1, 50668, Note_on_c, 0, 75, 41
1, 50676, Note_on_c, 0, 51, 68
1, 50677, Control_c, 0, 64, 40
1, 50684, Note_off_c, 0, 44, 63
1, 50692, Control_c, 0, 64, 48
1, 50696, Note_off_c, 0, 78, 62
1, 50700, Note_off_c, 0, 75, 55
1, 50707, Control_c, 0, 64, 55
1, 50713, Note_on_c, 0, 80, 66
1, 50713, Note_off_c, 0, 51, 65
1, 50717, Note_on_c, 0, 76, 63
1, 50722, Control_c, 0, 64, 59
1, 50736, Control_c, 0, 64, 61
1, 50760, Note_off_c, 0, 76, 53
1, 50772, Note_off_c, 0, 80, 58
1, 50790, Note_on_c, 0, 75, 54
1, 50796, Control_c, 0, 64, 61
1, 50799, Note_on_c, 0, 78, 57
1, 50808, Note_on_c, 0, 60, 63
1, 50811, Control_c, 0, 64, 62
1, 50826, Note_off_c, 0, 60, 66
1, 50831, Note_off_c, 0, 78, 59
1, 50840, Control_c, 0, 64, 62
1, 50843, Note_off_c, 0, 75, 55
1, 50858, Note_on_c, 0, 76, 61
1, 50863, Note_on_c, 0, 80, 59
1, 50906, Note_off_c, 0, 80, 57
1, 50918, Note_off_c, 0, 76, 62
1, 50928, Note_on_c, 0, 78, 59
1, 50948, Note_on_c, 0, 75, 48
1, 50949, Note_on_c, 0, 39, 68
1, 50993, Note_off_c, 0, 78, 62
1, 50995, Note_off_c, 0, 75, 54
1, 51008, Note_on_c, 0, 80, 66
1, 51022, Note_on_c, 0, 76, 53
1, 51034, Control_c, 0, 64, 62
1, 51048, Control_c, 0, 64, 60
1, 51056, Note_off_c, 0, 80, 48
1, 51058, Note_off_c, 0, 76, 53
1, 51063, Control_c, 0, 64, 57
1, 51078, Control_c, 0, 64, 47
1, 51088, Note_on_c, 0, 44, 70
1, 51088, Note_on_c, 0, 78, 59
1, 51093, Control_c, 0, 64, 31
1, 51112, Note_on_c, 0, 75, 52
1, 51115, Note_off_c, 0, 39, 62
1, 51115, Control_c, 0, 64, 0
1, 51134, Note_off_c, 0, 78, 63
1, 51151, Note_off_c, 0, 75, 63
1, 51160, Note_on_c, 0, 76, 65
1, 51172, Note_on_c, 0, 80, 59
1, 51190, Control_c, 0, 64, 18
1, 51204, Control_c, 0, 64, 27
1, 51218, Note_off_c, 0, 76, 64
1, 51219, Control_c, 0, 64, 37
1, 51231, Note_on_c, 0, 78, 67
1, 51234, Note_on_c, 0, 51, 67
1, 51234, Control_c, 0, 64, 44
1, 51240, Note_on_c, 0, 75, 59
1, 51248, Note_off_c, 0, 44, 61
1, 51249, Control_c, 0, 64, 51
1, 51253, Note_off_c, 0, 80, 59
1, 51263, Control_c, 0, 64, 56
1, 51267, Note_off_c, 0, 78, 61
1, 51278, Control_c, 0, 64, 58
1, 51281, Note_off_c, 0, 75, 61
1, 51288, Note_on_c, 0, 77, 71
1, 51290, Note_off_c, 0, 51, 60
1, 51293, Control_c, 0, 64, 59
1, 51308, Note_on_c, 0, 74, 63
1, 51352, Control_c, 0, 64, 60
1, 51362, Note_on_c, 0, 60, 76
1, 51367, Control_c, 0, 64, 60
1, 51368, Note_on_c, 0, 78, 82
1, 51368, Note_off_c, 0, 74, 63
1, 51371, Note_off_c, 0, 77, 62
1, 51382, Control_c, 0, 64, 61
1, 51392, Note_on_c, 0, 75, 65
1, 51411, Control_c, 0, 67, 8
1, 51422, Note_off_c, 0, 60, 62
1, 51426, Control_c, 0, 67, 8
1, 51432, Note_off_c, 0, 78, 65
1, 51442, Note_on_c, 0, 76, 79
1, 51443, Note_off_c, 0, 75, 61
1, 51449, Note_on_c, 0, 80, 69
1, 51470, Control_c, 0, 67, 9
1, 51498, Note_off_c, 0, 76, 64
1, 51500, Control_c, 0, 64, 60
1, 51504, Note_on_c, 0, 75, 57
1, 51508, Note_on_c, 0, 49, 74
1, 51516, Note_on_c, 0, 78, 73
1, 51529, Control_c, 0, 64, 60
1, 51537, Note_off_c, 0, 80, 60
1, 51559, Control_c, 0, 64, 59
1, 51568, Note_off_c, 0, 78, 65
1, 51572, Note_off_c, 0, 75, 63
1, 51573, Note_on_c, 0, 77, 73
1, 51574, Control_c, 0, 64, 59
1, 51580, Note_on_c, 0, 74, 68
1, 51589, Control_c, 0, 64, 57
1, 51604, Control_c, 0, 64, 54
1, 51619, Control_c, 0, 64, 50
1, 51634, Control_c, 0, 64, 43
1, 51643, Note_off_c, 0, 74, 64
1, 51648, Control_c, 0, 64, 34
1, 51653, Note_off_c, 0, 77, 63
1, 51654, Note_on_c, 0, 78, 72
1, 51656, Note_on_c, 0, 48, 75
1, 51657, Note_off_c, 0, 49, 61
1, 51663, Control_c, 0, 64, 17
1, 51663, Note_on_c, 0, 75, 69
1, 51678, Control_c, 0, 64, 0
1, 51708, Control_c, 0, 67, 8
1, 51717, Note_off_c, 0, 78, 65
1, 51728, Note_on_c, 0, 80, 69
1, 51729, Note_off_c, 0, 75, 61
1, 51738, Note_on_c, 0, 76, 75
1, 51782, Control_c, 0, 64, 20
1, 51787, Note_off_c, 0, 76, 65
1, 51789, Note_on_c, 0, 75, 55
1, 51797, Control_c, 0, 64, 28
1, 51803, Note_on_c, 0, 78, 70
1, 51812, Control_c, 0, 64, 35
1, 51815, Note_on_c, 0, 51, 63
1, 51821, Note_off_c, 0, 80, 61
1, 51826, Control_c, 0, 64, 41
1, 51841, Control_c, 0, 64, 47
1, 51863, Note_off_c, 0, 78, 63
1, 51863, Control_c, 0, 64, 51
1, 51872, Note_on_c, 0, 77, 74
1, 51873, Note_off_c, 0, 75, 62
1, 51878, Control_c, 0, 64, 54
1, 51884, Note_on_c, 0, 74, 65
1, 51893, Control_c, 0, 64, 56
1, 51908, Control_c, 0, 64, 56
1, 51923, Control_c, 0, 64, 57
1, 51937, Note_off_c, 0, 48, 33
1, 51939, Note_off_c, 0, 74, 62
1, 51952, Control_c, 0, 64, 57
1, 51953, Note_on_c, 0, 60, 70
1, 51960, Note_off_c, 0, 77, 62
1, 51962, Note_on_c, 0, 78, 73
1, 51971, Note_on_c, 0, 75, 66
1, 51971, Note_off_c, 0, 60, 68
1, 51982, Control_c, 0, 64, 58
1, 51993, Note_off_c, 0, 51, 56
1, 52018, Note_off_c, 0, 78, 61
1, 52028, Note_on_c, 0, 80, 72
1, 52030, Note_off_c, 0, 75, 61
1, 52037, Note_on_c, 0, 76, 69
1, 52053, Poly_aftertouch_c, 0, 54, 0
1, 52085, Control_c, 0, 64, 59
1, 52091, Note_on_c, 0, 39, 68
1, 52095, Note_off_c, 0, 76, 65
1, 52106, Note_on_c, 0, 75, 61
1, 52125, Note_on_c, 0, 78, 66
1, 52131, Note_off_c, 0, 80, 49
1, 52145, Control_c, 0, 67, 8
1, 52175, Note_off_c, 0, 78, 58
1, 52188, Note_on_c, 0, 77, 78
1, 52188, Note_off_c, 0, 75, 61
1, 52195, Note_on_c, 0, 74, 64
1, 52203, Control_c, 0, 64, 58
1, 52218, Control_c, 0, 64, 57
1, 52233, Control_c, 0, 64, 55
1, 52248, Control_c, 0, 64, 47
1, 52254, Note_off_c, 0, 74, 60
1, 52263, Control_c, 0, 64, 31
1, 52267, Note_off_c, 0, 39, 32
1, 52278, Control_c, 0, 64, 0
1, 52278, Control_c, 0, 67, 0
1, 52301, Note_on_c, 0, 44, 73
1, 52307, Note_on_c, 0, 78, 56
1, 52312, Note_on_c, 0, 75, 70
1, 52322, Control_c, 0, 64, 15
1, 52337, Control_c, 0, 64, 27
1, 52352, Control_c, 0, 64, 35
1, 52359, Note_off_c, 0, 77, 59
1, 52361, Note_off_c, 0, 44, 63
1, 52367, Control_c, 0, 64, 45
1, 52382, Control_c, 0, 64, 52
1, 52382, Control_c, 0, 67, 8
1, 52397, Control_c, 0, 64, 57
1, 52397, Control_c, 0, 67, 8
1, 52411, Control_c, 0, 64, 59
1, 52411, Control_c, 0, 67, 9
1, 52418, Note_off_c, 0, 78, 58
1, 52426, Control_c, 0, 64, 60
1, 52427, Note_off_c, 0, 75, 54
1, 52434, Note_on_c, 0, 79, 65
1, 52444, Note_on_c, 0, 76, 59
1, 52500, Control_c, 0, 64, 60
1, 52520, Note_off_c, 0, 79, 57
1, 52542, Note_off_c, 0, 76, 65
1, 52546, Control_c, 0, 64, 61
1, 52552, Note_on_c, 0, 75, 67
1, 52552, Note_on_c, 0, 80, 71
1, 52555, Note_on_c, 0, 77, 70
1, 52560, Note_on_c, 0, 68, 54
1, 52567, Note_on_c, 0, 66, 43
1, 52590, Control_c, 0, 64, 61
1, 52614, Note_off_c, 0, 66, 48
1, 52616, Note_off_c, 0, 75, 55
1, 52623, Note_off_c, 0, 80, 63
1, 52626, Control_c, 0, 64, 62
1, 52630, Note_off_c, 0, 77, 61
1, 52635, Note_on_c, 0, 81, 72
1, 52639, Note_off_c, 0, 68, 58
1, 52648, Note_on_c, 0, 78, 73
1, 52686, Control_c, 0, 64, 62
1, 52710, Note_off_c, 0, 81, 58
1, 52724, Note_on_c, 0, 75, 74
1, 52728, Note_off_c, 0, 78, 67
1, 52729, Note_on_c, 0, 66, 57
1, 52734, Note_on_c, 0, 79, 72
1, 52734, Note_on_c, 0, 82, 77
1, 52746, Control_c, 0, 64, 63
1, 52750, Note_on_c, 0, 68, 58
1, 52775, Control_c, 0, 64, 63
1, 52783, Note_off_c, 0, 75, 60
1, 52796, Note_off_c, 0, 79, 60
1, 52802, Note_off_c, 0, 66, 62
1, 52806, Note_on_c, 0, 83, 67
1, 52809, Note_off_c, 0, 68, 53
1, 52821, Note_on_c, 0, 80, 72
1, 52844, Note_off_c, 0, 82, 63
1, 52877, Note_on_c, 0, 81, 79
1, 52878, Note_off_c, 0, 80, 63
1, 52885, Note_on_c, 0, 84, 75
1, 52892, Note_on_c, 0, 73, 72
1, 52900, Note_on_c, 0, 68, 66
1, 52904, Note_on_c, 0, 64, 53
1, 52911, Note_off_c, 0, 83, 64
1, 52923, Control_c, 0, 64, 64
1, 52941, Note_off_c, 0, 73, 61
1, 52948, Note_off_c, 0, 84, 63
1, 52950, Note_on_c, 0, 82, 79
1, 52952, Note_off_c, 0, 81, 62
1, 52957, Note_on_c, 0, 85, 70
1, 52963, Note_off_c, 0, 68, 60
1, 52978, Note_off_c, 0, 64, 57
1, 53015, Note_off_c, 0, 85, 61
1, 53022, Note_off_c, 0, 82, 56
1, 53023, Note_on_c, 0, 83, 78
1, 53033, Note_on_c, 0, 64, 52
1, 53038, Note_on_c, 0, 73, 83
1, 53038, Note_on_c, 0, 86, 77
1, 53042, Note_on_c, 0, 68, 69
1, 53094, Note_off_c, 0, 83, 65
1, 53100, Note_on_c, 0, 84, 80
1, 53100, Note_on_c, 0, 87, 85
1, 53101, Note_off_c, 0, 86, 61
1, 53111, Note_off_c, 0, 68, 59
1, 53118, Note_off_c, 0, 73, 59
1, 53123, Note_off_c, 0, 64, 63
1, 53161, Note_off_c, 0, 84, 57
1, 53176, Note_on_c, 0, 72, 84
1, 53180, Note_on_c, 0, 85, 78
1, 53182, Note_on_c, 0, 88, 69
1, 53188, Note_on_c, 0, 66, 73
1, 53190, Note_off_c, 0, 87, 65
1, 53190, Note_on_c, 0, 63, 66
1, 53225, Note_off_c, 0, 72, 63
1, 53240, Note_off_c, 0, 66, 63
1, 53243, Note_on_c, 0, 89, 80
1, 53256, Note_off_c, 0, 85, 64
1, 53257, Note_off_c, 0, 63, 61
1, 53269, Note_off_c, 0, 88, 61
1, 53303, Note_on_c, 0, 72, 82
1, 53306, Note_on_c, 0, 63, 54
1, 53306, Note_on_c, 0, 66, 71
1, 53315, Note_off_c, 0, 89, 64
1, 53317, Note_on_c, 0, 90, 90
1, 53364, Note_off_c, 0, 72, 63
1, 53385, Note_off_c, 0, 66, 62
1, 53392, Note_on_c, 0, 91, 88
1, 53395, Note_off_c, 0, 90, 69
1, 53398, Note_off_c, 0, 63, 64
1, 53406, Control_c, 0, 67, 9
1, 53446, Note_on_c, 0, 69, 86
1, 53457, Note_on_c, 0, 64, 70
1, 53463, Note_on_c, 0, 61, 64
1, 53467, Note_on_c, 0, 92, 85
1, 53469, Note_off_c, 0, 91, 62
1, 53541, Note_on_c, 0, 93, 89
1, 53542, Note_off_c, 0, 69, 62
1, 53545, Note_off_c, 0, 92, 67
1, 53554, Control_c, 0, 67, 9
1, 53559, Note_off_c, 0, 61, 63
1, 53564, Note_off_c, 0, 64, 61
1, 53576, Note_off_c, 0, 93, 63
1, 53628, Control_c, 0, 67, 9
1, 53637, Note_on_c, 0, 63, 65
1, 53640, Note_on_c, 0, 69, 75
1, 53658, Control_c, 0, 64, 63
1, 53663, Note_on_c, 0, 60, 61
1, 53673, Control_c, 0, 64, 63
1, 53688, Control_c, 0, 64, 61
1, 53702, Control_c, 0, 64, 57
1, 53717, Control_c, 0, 64, 48
1, 53717, Control_c, 0, 67, 10
1, 53732, Control_c, 0, 64, 33
1, 53738, Note_on_c, 0, 99, 81
1, 53747, Control_c, 0, 64, 0
1, 53760, Note_off_c, 0, 69, 66
1, 53769, Note_on_c, 0, 90, 50
1, 53780, Note_off_c, 0, 60, 62
1, 53787, Note_off_c, 0, 63, 64
1, 53806, Control_c, 0, 64, 9
1, 53821, Control_c, 0, 64, 22
1, 53836, Control_c, 0, 64, 30
1, 53850, Control_c, 0, 64, 38
1, 53851, Note_on_c, 0, 68, 81
1, 53863, Note_on_c, 0, 63, 53
1, 53865, Control_c, 0, 64, 45
1, 53872, Note_on_c, 0, 60, 49
1, 53880, Control_c, 0, 64, 52
1, 53894, Note_off_c, 0, 68, 55
1, 53895, Control_c, 0, 64, 57
1, 53900, Note_off_c, 0, 63, 67
1, 53908, Note_off_c, 0, 60, 53
1, 53910, Control_c, 0, 64, 60
1, 53924, Control_c, 0, 64, 60
1, 53987, Note_on_c, 0, 68, 84
1, 53992, Note_on_c, 0, 63, 72
1, 53998, Note_on_c, 0, 60, 64
1, 54013, Note_off_c, 0, 68, 57
1, 54024, Note_off_c, 0, 63, 62
1, 54027, Note_off_c, 0, 60, 66
1, 54130, Note_on_c, 0, 66, 83
1, 54137, Note_on_c, 0, 61, 69
1, 54138, Note_on_c, 0, 57, 65
1, 54155, Control_c, 0, 67, 9
1, 54173, Note_off_c, 0, 66, 57
1, 54182, Note_off_c, 0, 57, 56
1, 54185, Control_c, 0, 67, 9
1, 54189, Note_off_c, 0, 61, 62
1, 54214, Control_c, 0, 64, 61
1, 54229, Control_c, 0, 67, 9
1, 54259, Control_c, 0, 64, 60
1, 54269, Note_on_c, 0, 66, 84
1, 54273, Control_c, 0, 64, 55
1, 54278, Note_on_c, 0, 57, 68
1, 54287, Note_on_c, 0, 61, 66
1, 54288, Control_c, 0, 64, 43
1, 54303, Control_c, 0, 64, 25
1, 54303, Control_c, 0, 67, 10
1, 54318, Control_c, 0, 64, 14
1, 54333, Control_c, 0, 64, 15
1, 54341, Note_off_c, 0, 66, 62
1, 54343, Note_off_c, 0, 61, 63
1, 54347, Control_c, 0, 64, 24
1, 54362, Control_c, 0, 64, 34
1, 54377, Control_c, 0, 64, 45
1, 54392, Control_c, 0, 64, 54
1, 54399, Note_off_c, 0, 57, 40
1, 54403, Note_on_c, 0, 64, 85
1, 54406, Control_c, 0, 64, 60
1, 54407, Note_on_c, 0, 61, 64
1, 54416, Note_on_c, 0, 56, 64
1, 54421, Control_c, 0, 64, 63
1, 54436, Control_c, 0, 64, 64
1, 54472, Note_off_c, 0, 64, 60
1, 54478, Note_off_c, 0, 61, 63
1, 54480, Control_c, 0, 64, 63
1, 54495, Control_c, 0, 64, 59
1, 54495, Control_c, 0, 67, 9
1, 54497, Note_off_c, 0, 56, 63
1, 54510, Control_c, 0, 64, 49
1, 54518, Note_off_c, 0, 90, 40
1, 54525, Control_c, 0, 64, 29
1, 54540, Control_c, 0, 64, 0
1, 54543, Note_on_c, 0, 64, 79
1, 54555, Note_on_c, 0, 61, 69
1, 54555, Control_c, 0, 64, 12
1, 54562, Note_on_c, 0, 56, 51
1, 54570, Control_c, 0, 64, 30
1, 54585, Control_c, 0, 64, 42
1, 54599, Control_c, 0, 64, 54
1, 54599, Control_c, 0, 67, 10
1, 54603, Note_off_c, 0, 64, 64
1, 54614, Control_c, 0, 64, 62
1, 54620, Note_off_c, 0, 56, 60
1, 54629, Control_c, 0, 64, 67
1, 54629, Control_c, 0, 67, 10
1, 54637, Note_off_c, 0, 61, 65
1, 54644, Control_c, 0, 64, 68
1, 54659, Control_c, 0, 64, 67
1, 54659, Control_c, 0, 67, 11
1, 54673, Control_c, 0, 64, 66
1, 54688, Control_c, 0, 64, 65
1, 54697, Note_on_c, 0, 63, 80
1, 54703, Control_c, 0, 64, 66
1, 54703, Control_c, 0, 67, 11
1, 54710, Note_on_c, 0, 54, 58
1, 54710, Note_on_c, 0, 56, 68
1, 54718, Control_c, 0, 64, 67
1, 54731, Note_off_c, 0, 63, 61
1, 54733, Control_c, 0, 64, 68
1, 54747, Control_c, 0, 64, 68
1, 54760, Note_off_c, 0, 56, 65
1, 54761, Note_off_c, 0, 54, 63
1, 54762, Control_c, 0, 64, 68
1, 54777, Control_c, 0, 64, 67
1, 54821, Control_c, 0, 67, 12
1, 54836, Control_c, 0, 67, 12
1, 54873, Control_c, 0, 64, 67
1, 54903, Control_c, 0, 64, 66
1, 54918, Control_c, 0, 64, 66
1, 54934, Control_c, 0, 64, 65
1, 54934, Control_c, 0, 67, 13
1, 54948, Control_c, 0, 64, 63
1, 54963, Control_c, 0, 64, 60
1, 54978, Control_c, 0, 64, 57
1, 54984, Note_on_c, 0, 37, 64
1, 54993, Control_c, 0, 64, 53
1, 55008, Control_c, 0, 64, 48
1, 55022, Control_c, 0, 64, 42
1, 55036, Note_off_c, 0, 99, 59
1, 55037, Control_c, 0, 64, 33
1, 55052, Control_c, 0, 64, 10
1, 55054, Note_on_c, 0, 97, 59
1, 55061, Note_on_c, 0, 100, 47
1, 55067, Control_c, 0, 64, 0
1, 55067, Control_c, 0, 67, 12
1, 55126, Control_c, 0, 67, 12
1, 55127, Note_off_c, 0, 100, 60
1, 55140, Note_off_c, 0, 97, 64
1, 55141, Control_c, 0, 64, 19
1, 55145, Note_on_c, 0, 99, 67
1, 55156, Control_c, 0, 64, 30
1, 55156, Control_c, 0, 67, 11
1, 55161, Note_on_c, 0, 95, 61
1, 55170, Control_c, 0, 64, 39
1, 55185, Control_c, 0, 64, 49
1, 55200, Control_c, 0, 64, 56
1, 55204, Note_off_c, 0, 95, 61
1, 55208, Note_off_c, 0, 99, 61
1, 55215, Control_c, 0, 64, 61
1, 55226, Note_on_c, 0, 97, 70
1, 55229, Control_c, 0, 64, 63
1, 55239, Note_off_c, 0, 37, 62
1, 55244, Control_c, 0, 64, 64
1, 55252, Note_on_c, 0, 49, 70
1, 55252, Note_on_c, 0, 100, 46
1, 55259, Control_c, 0, 64, 65
1, 55259, Control_c, 0, 67, 12
1, 55274, Control_c, 0, 64, 66
1, 55274, Control_c, 0, 67, 12
1, 55282, Note_off_c, 0, 49, 67
1, 55285, Note_off_c, 0, 97, 65
1, 55289, Control_c, 0, 64, 67
1, 55300, Note_off_c, 0, 100, 62
1, 55303, Control_c, 0, 64, 68
1, 55314, Note_on_c, 0, 95, 72
1, 55318, Control_c, 0, 64, 70
1, 55333, Control_c, 0, 64, 73
1, 55334, Note_on_c, 0, 99, 28
1, 55346, Note_off_c, 0, 95, 65
1, 55348, Control_c, 0, 64, 74
1, 55348, Control_c, 0, 67, 13
1, 55355, Note_off_c, 0, 99, 37
1, 55363, Control_c, 0, 64, 74
1, 55392, Note_on_c, 0, 56, 69
1, 55394, Note_on_c, 0, 94, 73
1, 55408, Control_c, 0, 64, 75
1, 55408, Note_on_c, 0, 97, 51
1, 55422, Control_c, 0, 64, 77
1, 55437, Control_c, 0, 64, 78
1, 55437, Note_off_c, 0, 97, 51
1, 55443, Note_off_c, 0, 94, 63
1, 55452, Control_c, 0, 64, 79
1, 55470, Note_on_c, 0, 92, 74
1, 55478, Note_on_c, 0, 95, 70
1, 55496, Control_c, 0, 64, 79
1, 55503, Note_off_c, 0, 92, 64
1, 55510, Control_c, 0, 64, 81
1, 55510, Control_c, 0, 67, 12
1, 55525, Control_c, 0, 64, 82
1, 55533, Note_on_c, 0, 63, 78
1, 55540, Control_c, 0, 64, 83
1, 55542, Note_off_c, 0, 95, 65
1, 55552, Note_on_c, 0, 94, 61
1, 55579, Note_off_c, 0, 94, 68
1, 55584, Control_c, 0, 67, 12
1, 55599, Note_on_c, 0, 92, 70
1, 55607, Control_c, 0, 64, 83
1, 55607, Note_off_c, 0, 56, 62
1, 55621, Control_c, 0, 64, 84
1, 55622, Note_off_c, 0, 92, 69
1, 55665, Note_on_c, 0, 94, 68
1, 55666, Note_on_c, 0, 90, 77
1, 55673, Note_off_c, 0, 63, 65
1, 55673, Note_on_c, 0, 64, 77
1, 55681, Control_c, 0, 67, 11
1, 55702, Note_off_c, 0, 94, 56
1, 55729, Note_off_c, 0, 90, 67
1, 55738, Note_on_c, 0, 92, 74
1, 55756, Control_c, 0, 67, 12
1, 55759, Note_on_c, 0, 88, 48
1, 55771, Note_on_c, 0, 89, 31
1, 55771, Control_c, 0, 67, 12
1, 55783, Note_off_c, 0, 88, 57
1, 55800, Note_on_c, 0, 61, 82
1, 55800, Control_c, 0, 67, 13
1, 55802, Note_on_c, 0, 94, 68
1, 55807, Note_off_c, 0, 89, 54
1, 55809, Note_on_c, 0, 90, 65
1, 55828, Note_off_c, 0, 92, 62
1, 55828, Note_off_c, 0, 64, 51
1, 55835, Note_off_c, 0, 94, 65
1, 55844, Control_c, 0, 64, 84
1, 55845, Note_off_c, 0, 90, 68
1, 55854, Note_on_c, 0, 88, 73
1, 55859, Control_c, 0, 64, 85
1, 55889, Control_c, 0, 67, 13
1, 55902, Note_off_c, 0, 88, 66
1, 55904, Control_c, 0, 64, 85
1, 55904, Control_c, 0, 67, 14
1, 55918, Control_c, 0, 64, 86
1, 55931, Note_on_c, 0, 87, 72
1, 55933, Note_on_c, 0, 68, 90
1, 55933, Control_c, 0, 64, 86
1, 55940, Note_on_c, 0, 90, 49
1, 55948, Control_c, 0, 64, 87
1, 55963, Control_c, 0, 64, 88
1, 55971, Note_off_c, 0, 90, 64
1, 55978, Control_c, 0, 67, 14
1, 55979, Note_off_c, 0, 87, 65
1, 55993, Control_c, 0, 64, 88
1, 55995, Note_on_c, 0, 85, 75
1, 56001, Note_on_c, 0, 88, 75
1, 56007, Control_c, 0, 64, 89
1, 56022, Control_c, 0, 64, 89
1, 56025, Poly_aftertouch_c, 0, 63, 127
1, 56037, Control_c, 0, 64, 90
1, 56040, Note_off_c, 0, 85, 64
1, 56067, Note_on_c, 0, 70, 89
1, 56072, Note_on_c, 0, 90, 59
1, 56075, Note_off_c, 0, 61, 62
1, 56081, Note_off_c, 0, 88, 64
1, 56087, Note_on_c, 0, 87, 64
1, 56096, Poly_aftertouch_c, 0, 63, 0
1, 56096, Control_c, 0, 67, 15
1, 56119, Note_off_c, 0, 90, 59
1, 56122, Note_off_c, 0, 87, 63
1, 56127, Note_on_c, 0, 85, 76
1, 56155, Note_off_c, 0, 85, 63
1, 56189, Note_on_c, 0, 71, 82
1, 56196, Note_off_c, 0, 70, 61
1, 56206, Note_off_c, 0, 68, 59
1, 56206, Note_off_c, 0, 71, 74
1, 56215, Control_c, 0, 64, 89
1, 56216, Note_on_c, 0, 83, 73
1, 56221, Note_on_c, 0, 87, 67
1, 56230, Control_c, 0, 64, 89
1, 56244, Control_c, 0, 64, 88
1, 56244, Control_c, 0, 67, 15
1, 56275, Control_c, 0, 64, 88
1, 56275, Control_c, 0, 67, 17
1, 56278, Note_on_c, 0, 85, 67
1, 56279, Note_off_c, 0, 87, 62
1, 56285, Note_off_c, 0, 83, 66
1, 56287, Note_on_c, 0, 82, 70
1, 56290, Control_c, 0, 67, 18
1, 56305, Control_c, 0, 64, 87
1, 56305, Control_c, 0, 67, 23
1, 56319, Control_c, 0, 64, 85
1, 56319, Control_c, 0, 67, 30
1, 56334, Control_c, 0, 64, 81
1, 56334, Control_c, 0, 67, 40
1, 56337, Note_off_c, 0, 85, 63
1, 56346, Note_on_c, 0, 44, 76
1, 56347, Note_off_c, 0, 82, 63
1, 56349, Note_on_c, 0, 83, 66
1, 56355, Note_on_c, 0, 87, 57
1, 56356, Control_c, 0, 64, 71
1, 56356, Control_c, 0, 67, 49
1, 56370, Control_c, 0, 64, 62
1, 56370, Control_c, 0, 67, 57
1, 56385, Control_c, 0, 64, 45
1, 56385, Control_c, 0, 67, 64
1, 56400, Control_c, 0, 64, 29
1, 56400, Control_c, 0, 67, 69
1, 56401, Note_off_c, 0, 87, 63
1, 56410, Note_off_c, 0, 83, 67
1, 56415, Control_c, 0, 64, 27
1, 56415, Control_c, 0, 67, 73
1, 56420, Note_on_c, 0, 82, 68
1, 56430, Control_c, 0, 64, 32
1, 56430, Control_c, 0, 67, 77
1, 56443, Note_off_c, 0, 82, 69
1, 56445, Control_c, 0, 64, 40
1, 56445, Control_c, 0, 67, 82
1, 56460, Control_c, 0, 64, 49
1, 56460, Control_c, 0, 67, 85
1, 56475, Control_c, 0, 64, 57
1, 56475, Control_c, 0, 67, 89
1, 56490, Control_c, 0, 64, 61
1, 56490, Control_c, 0, 67, 94
1, 56493, Note_on_c, 0, 51, 84
1, 56499, Note_on_c, 0, 80, 66
1, 56504, Control_c, 0, 64, 62
1, 56504, Control_c, 0, 67, 99
1, 56510, Note_on_c, 0, 83, 40
1, 56520, Control_c, 0, 67, 104
1, 56535, Control_c, 0, 67, 108
1, 56543, Note_off_c, 0, 44, 61
1, 56549, Control_c, 0, 67, 112
1, 56559, Note_off_c, 0, 83, 51
1, 56564, Note_on_c, 0, 82, 42
1, 56564, Control_c, 0, 67, 115
1, 56570, Note_off_c, 0, 80, 64
1, 56579, Control_c, 0, 67, 120
1, 56580, Note_on_c, 0, 78, 71
1, 56594, Control_c, 0, 67, 125
1, 56609, Control_c, 0, 67, 127
1, 56619, Note_on_c, 0, 58, 83
1, 56621, Note_off_c, 0, 82, 64
1, 56628, Note_off_c, 0, 78, 63
1, 56634, Note_on_c, 0, 80, 66
1, 56655, Note_on_c, 0, 83, 40
1, 56668, Control_c, 0, 64, 62
1, 56681, Note_off_c, 0, 83, 57
1, 56695, Note_off_c, 0, 80, 61
1, 56698, Note_on_c, 0, 82, 42
1, 56710, Note_on_c, 0, 78, 74
1, 56713, Note_off_c, 0, 58, 61
1, 56728, Control_c, 0, 64, 61
1, 56728, Note_off_c, 0, 82, 56
1, 56734, Note_off_c, 0, 78, 71
1, 56742, Control_c, 0, 64, 61
1, 56757, Control_c, 0, 64, 59
1, 56772, Control_c, 0, 64, 56
1, 56783, Note_on_c, 0, 59, 77
1, 56787, Control_c, 0, 64, 51
1, 56791, Note_on_c, 0, 76, 66
1, 56801, Control_c, 0, 64, 41
1, 56812, Note_on_c, 0, 80, 45
1, 56816, Control_c, 0, 64, 23
1, 56831, Control_c, 0, 64, 0
1, 56840, Note_off_c, 0, 76, 0
1, 56840, Note_on_c, 0, 76, 29
1, 56845, Note_off_c, 0, 80, 55
1, 56862, Note_on_c, 0, 78, 67
1, 56862, Note_off_c, 0, 76, 60
1, 56874, Note_on_c, 0, 75, 58
1, 56904, Note_off_c, 0, 78, 64
1, 56905, Control_c, 0, 64, 9
1, 56908, Note_off_c, 0, 75, 59
1, 56920, Control_c, 0, 64, 25
1, 56930, Note_on_c, 0, 80, 51
1, 56935, Control_c, 0, 64, 35
1, 56939, Note_off_c, 0, 59, 62
1, 56940, Note_on_c, 0, 76, 63
1, 56949, Control_c, 0, 64, 45
1, 56964, Control_c, 0, 64, 53
1, 56979, Control_c, 0, 64, 58
1, 56980, Note_off_c, 0, 80, 61
1, 56987, Note_off_c, 0, 76, 65
1, 56993, Control_c, 0, 64, 61
1, 56998, Note_off_c, 0, 51, 63
1, 57007, Note_on_c, 0, 75, 67
1, 57008, Control_c, 0, 64, 63
1, 57034, Note_off_c, 0, 75, 65
1, 57038, Control_c, 0, 64, 63
1, 57099, Note_on_c, 0, 76, 54
1, 57102, Note_on_c, 0, 73, 66
1, 57135, Control_c, 0, 64, 64
1, 57140, Note_off_c, 0, 76, 56
1, 57159, Note_off_c, 0, 73, 61
1, 57178, Note_on_c, 0, 75, 58
1, 57181, Note_on_c, 0, 71, 49
1, 57202, Note_off_c, 0, 71, 62
1, 57223, Note_off_c, 0, 75, 59
1, 57249, Note_on_c, 0, 73, 53
1, 57249, Note_on_c, 0, 76, 47
1, 57324, Note_on_c, 0, 71, 49
1, 57328, Control_c, 0, 64, 63
1, 57331, Note_off_c, 0, 73, 59
1, 57336, Note_on_c, 0, 75, 57
1, 57347, Note_off_c, 0, 71, 65
1, 57359, Note_off_c, 0, 75, 62
1, 57363, Note_off_c, 0, 76, 36
1, 57372, Control_c, 0, 64, 63
1, 57402, Control_c, 0, 64, 62
1, 57417, Control_c, 0, 64, 62
1, 57432, Control_c, 0, 64, 60
1, 57446, Control_c, 0, 64, 59
1, 57461, Control_c, 0, 64, 57
1, 57476, Control_c, 0, 64, 55
1, 57491, Control_c, 0, 64, 53
1, 57506, Control_c, 0, 64, 50
1, 57515, Note_on_c, 0, 40, 44
1, 57521, Control_c, 0, 64, 45
1, 57536, Control_c, 0, 64, 39
1, 57551, Note_on_c, 0, 95, 49
1, 57551, Control_c, 0, 64, 31
1, 57565, Control_c, 0, 64, 18
1, 57570, Note_on_c, 0, 92, 51
1, 57580, Control_c, 0, 64, 0
1, 57624, Note_off_c, 0, 92, 61
1, 57639, Control_c, 0, 64, 15
1, 57640, Note_off_c, 0, 95, 38
1, 57649, Note_on_c, 0, 90, 53
1, 57652, Note_on_c, 0, 94, 51
1, 57654, Control_c, 0, 64, 24
1, 57669, Control_c, 0, 64, 32
1, 57684, Control_c, 0, 64, 39
1, 57688, Note_off_c, 0, 94, 63
1, 57690, Note_off_c, 0, 90, 64
1, 57698, Control_c, 0, 64, 46
1, 57713, Control_c, 0, 64, 53
1, 57728, Control_c, 0, 64, 57
1, 57730, Note_on_c, 0, 92, 59
1, 57736, Note_on_c, 0, 47, 55
1, 57743, Control_c, 0, 64, 59
1, 57756, Control_c, 0, 64, 61
1, 57771, Control_c, 0, 64, 61
1, 57777, Note_off_c, 0, 40, 50
1, 57777, Note_off_c, 0, 92, 60
1, 57790, Note_on_c, 0, 94, 48
1, 57798, Note_on_c, 0, 90, 67
1, 57801, Control_c, 0, 64, 62
1, 57813, Note_off_c, 0, 94, 56
1, 57815, Control_c, 0, 64, 62
1, 57816, Note_off_c, 0, 90, 68
1, 57830, Control_c, 0, 64, 63
1, 57867, Note_off_c, 0, 47, 62
1, 57867, Control_c, 0, 64, 63
1, 57872, Note_on_c, 0, 88, 76
1, 57880, Note_on_c, 0, 52, 72
1, 57897, Note_on_c, 0, 92, 48
1, 57911, Control_c, 0, 64, 64
1, 57925, Note_off_c, 0, 92, 57
1, 57926, Control_c, 0, 64, 64
1, 57941, Control_c, 0, 64, 65
1, 57943, Note_off_c, 0, 88, 65
1, 57946, Note_on_c, 0, 90, 70
1, 57954, Note_on_c, 0, 87, 63
1, 57971, Control_c, 0, 64, 65
1, 57983, Note_off_c, 0, 90, 63
1, 57986, Control_c, 0, 64, 66
1, 57988, Note_off_c, 0, 87, 62
1, 58001, Control_c, 0, 64, 66
1, 58002, Note_on_c, 0, 92, 56
1, 58013, Note_on_c, 0, 88, 58
1, 58016, Control_c, 0, 64, 67
1, 58016, Control_c, 0, 67, 126
1, 58017, Note_on_c, 0, 54, 79
1, 58030, Control_c, 0, 64, 67
1, 58030, Control_c, 0, 67, 120
1, 58036, Note_off_c, 0, 52, 60
1, 58045, Note_off_c, 0, 92, 64
1, 58045, Control_c, 0, 67, 113
1, 58055, Note_off_c, 0, 88, 60
1, 58060, Control_c, 0, 64, 68
1, 58060, Control_c, 0, 67, 105
1, 58075, Control_c, 0, 67, 98
1, 58078, Note_on_c, 0, 90, 41
1, 58088, Note_on_c, 0, 87, 62
1, 58090, Control_c, 0, 64, 68
1, 58090, Control_c, 0, 67, 92
1, 58104, Control_c, 0, 67, 88
1, 58106, Note_off_c, 0, 87, 65
1, 58108, Note_off_c, 0, 90, 57
1, 58120, Control_c, 0, 67, 85
1, 58135, Control_c, 0, 67, 81
1, 58150, Note_on_c, 0, 56, 83
1, 58150, Control_c, 0, 67, 78
1, 58164, Note_on_c, 0, 88, 56
1, 58165, Note_on_c, 0, 85, 63
1, 58165, Control_c, 0, 67, 76
1, 58180, Control_c, 0, 64, 69
1, 58180, Control_c, 0, 67, 73
1, 58185, Note_off_c, 0, 54, 63
1, 58194, Control_c, 0, 67, 69
1, 58197, Note_off_c, 0, 88, 54
1, 58209, Control_c, 0, 67, 65
1, 58220, Note_off_c, 0, 85, 63
1, 58224, Control_c, 0, 67, 61
1, 58227, Note_on_c, 0, 83, 66
1, 58234, Note_on_c, 0, 87, 61
1, 58238, Control_c, 0, 67, 58
1, 58253, Control_c, 0, 67, 55
1, 58257, Note_off_c, 0, 83, 64
1, 58268, Control_c, 0, 67, 53
1, 58279, Note_on_c, 0, 88, 61
1, 58283, Control_c, 0, 67, 49
1, 58297, Note_on_c, 0, 52, 82
1, 58298, Control_c, 0, 67, 44
1, 58302, Note_off_c, 0, 56, 64
1, 58304, Note_on_c, 0, 85, 67
1, 58305, Note_off_c, 0, 87, 62
1, 58312, Control_c, 0, 67, 39
1, 58320, Note_off_c, 0, 88, 64
1, 58327, Control_c, 0, 67, 36
1, 58329, Note_off_c, 0, 85, 69
1, 58341, Note_on_c, 0, 83, 78
1, 58342, Control_c, 0, 67, 33
1, 58357, Control_c, 0, 67, 31
1, 58372, Control_c, 0, 67, 27
1, 58382, Note_off_c, 0, 83, 65
1, 58386, Control_c, 0, 64, 69
1, 58386, Control_c, 0, 67, 21
1, 58401, Control_c, 0, 67, 17
1, 58409, Note_on_c, 0, 82, 77
1, 58413, Note_on_c, 0, 85, 61
1, 58416, Control_c, 0, 67, 15
1, 58431, Control_c, 0, 67, 13
1, 58434, Note_on_c, 0, 59, 82
1, 58442, Note_off_c, 0, 85, 55
1, 58443, Note_off_c, 0, 52, 65
1, 58445, Control_c, 0, 67, 11
1, 58460, Control_c, 0, 67, 9
1, 58464, Note_off_c, 0, 82, 65
1, 58475, Control_c, 0, 67, 9
1, 58480, Note_on_c, 0, 80, 78
1, 58485, Note_on_c, 0, 83, 68
1, 58490, Control_c, 0, 64, 70
1, 58505, Control_c, 0, 64, 70
1, 58520, Control_c, 0, 64, 71
1, 58522, Note_off_c, 0, 80, 62
1, 58534, Control_c, 0, 64, 71
1, 58541, Note_off_c, 0, 59, 60
1, 58549, Control_c, 0, 64, 72
1, 58549, Control_c, 0, 67, 9
1, 58551, Note_off_c, 0, 83, 66
1, 58555, Note_on_c, 0, 85, 48
1, 58561, Note_on_c, 0, 82, 68
1, 58561, Note_on_c, 0, 61, 95
1, 58564, Control_c, 0, 64, 72
1, 58564, Control_c, 0, 67, 10
1, 58579, Control_c, 0, 64, 73
1, 58579, Control_c, 0, 67, 10
1, 58601, Control_c, 0, 67, 11
1, 58604, Note_off_c, 0, 82, 64
1, 58604, Note_off_c, 0, 85, 62
1, 58611, Note_on_c, 0, 80, 78
1, 58616, Control_c, 0, 67, 12
1, 58631, Control_c, 0, 67, 13
1, 58638, Note_off_c, 0, 80, 65
1, 58645, Control_c, 0, 67, 14
1, 58646, Note_off_c, 0, 61, 62
1, 58660, Control_c, 0, 67, 15
1, 58675, Control_c, 0, 67, 17
1, 58690, Control_c, 0, 67, 18
1, 58692, Note_on_c, 0, 78, 77
1, 58693, Note_on_c, 0, 63, 84
1, 58705, Control_c, 0, 67, 19
1, 58707, Note_on_c, 0, 82, 65
1, 58713, Note_off_c, 0, 63, 74
1, 58719, Control_c, 0, 67, 20
1, 58734, Control_c, 0, 67, 24
1, 58749, Control_c, 0, 67, 29
1, 58752, Note_off_c, 0, 82, 61
1, 58757, Note_off_c, 0, 78, 66
1, 58764, Control_c, 0, 67, 36
1, 58764, Note_on_c, 0, 76, 73
1, 58765, Note_on_c, 0, 80, 72
1, 58779, Control_c, 0, 64, 72
1, 58779, Control_c, 0, 67, 45
1, 58794, Control_c, 0, 64, 69
1, 58794, Control_c, 0, 67, 56
1, 58809, Control_c, 0, 64, 63
1, 58809, Control_c, 0, 67, 66
1, 58812, Note_off_c, 0, 76, 63
1, 58824, Control_c, 0, 64, 53
1, 58824, Control_c, 0, 67, 76
1, 58838, Control_c, 0, 64, 26
1, 58838, Control_c, 0, 67, 89
1, 58842, Note_on_c, 0, 82, 66
1, 58845, Note_on_c, 0, 35, 74
1, 58852, Note_on_c, 0, 78, 55
1, 58853, Control_c, 0, 64, 0
1, 58853, Control_c, 0, 67, 100
1, 58858, Note_off_c, 0, 80, 47
1, 58868, Control_c, 0, 67, 112
1, 58880, Note_off_c, 0, 78, 64
1, 58883, Control_c, 0, 67, 124
1, 58895, Note_off_c, 0, 82, 62
1, 58897, Note_on_c, 0, 76, 76
1, 58898, Control_c, 0, 67, 127
1, 58913, Control_c, 0, 64, 23
1, 58928, Control_c, 0, 64, 37
1, 58943, Note_off_c, 0, 76, 58
1, 58943, Control_c, 0, 64, 48
1, 58958, Control_c, 0, 64, 57
1, 58967, Note_on_c, 0, 75, 73
1, 58973, Control_c, 0, 64, 60
1, 58982, Note_on_c, 0, 78, 53
1, 58984, Note_on_c, 0, 42, 82
1, 58987, Control_c, 0, 64, 57
1, 58991, Note_off_c, 0, 35, 63
1, 59002, Control_c, 0, 64, 47
1, 59012, Note_off_c, 0, 78, 59
1, 59017, Control_c, 0, 64, 29
1, 59023, Note_off_c, 0, 75, 60
1, 59032, Control_c, 0, 64, 23
1, 59036, Note_on_c, 0, 73, 71
1, 59047, Control_c, 0, 64, 33
1, 59047, Note_on_c, 0, 76, 69
1, 59061, Control_c, 0, 64, 50
1, 59076, Control_c, 0, 64, 64
1, 59086, Note_off_c, 0, 73, 64
1, 59091, Control_c, 0, 64, 84
1, 59101, Note_on_c, 0, 78, 70
1, 59106, Control_c, 0, 64, 95
1, 59110, Note_on_c, 0, 49, 89
1, 59119, Note_on_c, 0, 75, 62
1, 59121, Note_off_c, 0, 76, 64
1, 59121, Control_c, 0, 64, 93
1, 59135, Control_c, 0, 64, 87
1, 59150, Control_c, 0, 64, 84
1, 59167, Note_on_c, 0, 73, 77
1, 59167, Note_off_c, 0, 78, 64
1, 59176, Note_off_c, 0, 49, 66
1, 59178, Note_off_c, 0, 75, 61
1, 59200, Note_off_c, 0, 73, 62
1, 59209, Control_c, 0, 64, 84
1, 59224, Control_c, 0, 64, 76
1, 59239, Control_c, 0, 64, 62
1, 59254, Note_on_c, 0, 51, 81
1, 59254, Control_c, 0, 64, 45
1, 59259, Note_on_c, 0, 71, 64
1, 59265, Note_on_c, 0, 75, 50
1, 59268, Control_c, 0, 64, 0
1, 59328, Control_c, 0, 64, 37
1, 59332, Note_on_c, 0, 70, 70
1, 59333, Note_off_c, 0, 71, 66
1, 59347, Note_on_c, 0, 73, 59
1, 59350, Control_c, 0, 64, 55
1, 59365, Control_c, 0, 64, 66
1, 59367, Note_off_c, 0, 75, 0
1, 59373, Note_off_c, 0, 73, 63
1, 59380, Control_c, 0, 64, 76
1, 59392, Note_on_c, 0, 75, 30
1, 59393, Note_off_c, 0, 70, 61
1, 59395, Control_c, 0, 64, 74
1, 59401, Note_on_c, 0, 71, 61
1, 59409, Control_c, 0, 64, 65
1, 59424, Control_c, 0, 64, 53
1, 59439, Control_c, 0, 64, 36
1, 59451, Note_on_c, 0, 73, 67
1, 59454, Control_c, 0, 64, 40
1, 59456, Note_off_c, 0, 75, 60
1, 59462, Note_off_c, 0, 71, 65
1, 59468, Control_c, 0, 64, 54
1, 59469, Note_on_c, 0, 70, 77
1, 59476, Note_off_c, 0, 73, 66
1, 59480, Note_off_c, 0, 51, 65
1, 59483, Control_c, 0, 64, 68
1, 59488, Note_off_c, 0, 70, 72
1, 59494, Note_off_c, 0, 42, 60
1, 59498, Control_c, 0, 64, 114
1, 59513, Control_c, 0, 64, 127
1, 59547, Note_on_c, 0, 68, 77
1, 59549, Note_on_c, 0, 71, 75
1, 59557, Control_c, 0, 67, 94
1, 59572, Control_c, 0, 67, 52
1, 59587, Control_c, 0, 67, 17
1, 59602, Control_c, 0, 67, 0
1, 59619, Note_off_c, 0, 71, 66
1, 59620, Note_on_c, 0, 66, 77
1, 59623, Note_on_c, 0, 70, 60
1, 59630, Note_off_c, 0, 68, 55
1, 59647, Note_off_c, 0, 70, 64
1, 59661, Control_c, 0, 64, 99
1, 59664, Note_on_c, 0, 64, 79
1, 59668, Note_off_c, 0, 66, 63
1, 59676, Control_c, 0, 64, 88
1, 59682, Note_on_c, 0, 37, 68
1, 59691, Control_c, 0, 64, 75
1, 59706, Control_c, 0, 64, 63
1, 59721, Control_c, 0, 64, 32
1, 59730, Note_off_c, 0, 64, 63
1, 59732, Note_on_c, 0, 63, 76
1, 59732, Note_on_c, 0, 66, 62
1, 59736, Control_c, 0, 64, 0
1, 59766, Note_off_c, 0, 37, 63
1, 59788, Note_off_c, 0, 63, 60
1, 59790, Note_off_c, 0, 66, 62
1, 59797, Note_on_c, 0, 52, 86
1, 59799, Note_on_c, 0, 64, 85
1, 59803, Note_on_c, 0, 61, 86
1, 59810, Control_c, 0, 64, 44
1, 59819, Note_off_c, 0, 61, 74
1, 59820, Note_off_c, 0, 52, 73
1, 59825, Control_c, 0, 64, 72
1, 59828, Note_off_c, 0, 64, 68
1, 59840, Control_c, 0, 64, 127
1, 59884, Control_c, 0, 64, 67
1, 59899, Control_c, 0, 64, 36
1, 59914, Control_c, 0, 64, 0
1, 60030, Note_on_c, 0, 49, 88
1, 60185, Note_off_c, 0, 49, 66
1, 60196, Note_on_c, 0, 57, 85
1, 60196, Note_on_c, 0, 64, 96
1, 60196, Note_on_c, 0, 90, 92
1, 60196, Note_on_c, 0, 93, 92
1, 60204, Control_c, 0, 64, 35
1, 60218, Note_off_c, 0, 57, 70
1, 60218, Control_c, 0, 64, 58
1, 60222, Note_off_c, 0, 64, 66
1, 60233, Control_c, 0, 64, 77
1, 60248, Control_c, 0, 64, 115
1, 60263, Note_off_c, 0, 90, 67
1, 60263, Control_c, 0, 64, 127
1, 60269, Note_on_c, 0, 88, 81
1, 60279, Note_off_c, 0, 93, 60
1, 60286, Note_on_c, 0, 92, 72
1, 60344, Note_off_c, 0, 92, 65
1, 60345, Note_on_c, 0, 86, 75
1, 60346, Note_off_c, 0, 88, 67
1, 60347, Note_on_c, 0, 90, 56
1, 60367, Note_off_c, 0, 86, 69
1, 60371, Note_off_c, 0, 90, 63
1, 60411, Note_on_c, 0, 88, 76
1, 60417, Note_on_c, 0, 85, 74
1, 60484, Note_on_c, 0, 83, 73
1, 60487, Note_off_c, 0, 85, 54
1, 60489, Note_on_c, 0, 86, 62
1, 60508, Note_off_c, 0, 88, 63
1, 60531, Note_off_c, 0, 83, 62
1, 60538, Note_on_c, 0, 81, 86
1, 60542, Note_off_c, 0, 86, 61
1, 60562, Note_off_c, 0, 81, 66
1, 60620, Note_on_c, 0, 80, 84
1, 60620, Note_on_c, 0, 83, 78
1, 60669, Note_off_c, 0, 80, 63
1, 60670, Note_off_c, 0, 83, 64
1, 60675, Note_on_c, 0, 78, 78
1, 60696, Note_off_c, 0, 78, 73
1, 60740, Note_on_c, 0, 76, 80
1, 60747, Note_on_c, 0, 80, 72
1, 60803, Note_on_c, 0, 78, 55
1, 60807, Note_off_c, 0, 80, 62
1, 60813, Note_off_c, 0, 76, 62
1, 60821, Note_on_c, 0, 74, 69
1, 60822, Note_off_c, 0, 78, 68
1, 60851, Note_off_c, 0, 74, 72
1, 60889, Note_on_c, 0, 76, 67
1, 60895, Note_on_c, 0, 73, 78
1, 60950, Note_off_c, 0, 73, 64
1, 60955, Note_on_c, 0, 71, 80
1, 60984, Note_off_c, 0, 76, 60
1, 60987, Note_on_c, 0, 74, 53
1, 61022, Note_off_c, 0, 74, 66
1, 61027, Note_off_c, 0, 71, 65
1, 61033, Note_on_c, 0, 69, 79
1, 61054, Note_off_c, 0, 69, 71
1, 61071, Control_c, 0, 64, 94
1, 61086, Control_c, 0, 64, 68
1, 61086, Control_c, 0, 67, 12
1, 61096, Note_on_c, 0, 71, 55
1, 61100, Note_on_c, 0, 68, 71
1, 61101, Control_c, 0, 64, 66
1, 61101, Control_c, 0, 67, 18
1, 61115, Control_c, 0, 64, 80
1, 61115, Control_c, 0, 67, 26
1, 61130, Control_c, 0, 64, 127
1, 61130, Control_c, 0, 67, 37
1, 61137, Note_on_c, 0, 69, 42
1, 61145, Control_c, 0, 67, 49
1, 61159, Control_c, 0, 67, 63
1, 61161, Note_on_c, 0, 66, 78
1, 61174, Control_c, 0, 64, 79
1, 61174, Control_c, 0, 67, 75
1, 61183, Note_off_c, 0, 69, 58
1, 61189, Control_c, 0, 64, 55
1, 61189, Control_c, 0, 67, 87
1, 61190, Note_off_c, 0, 68, 59
1, 61195, Note_off_c, 0, 71, 45
1, 61204, Control_c, 0, 64, 36
1, 61204, Control_c, 0, 67, 100
1, 61214, Note_off_c, 0, 66, 63
1, 61219, Control_c, 0, 64, 44
1, 61219, Control_c, 0, 67, 114
1, 61230, Note_on_c, 0, 64, 69
1, 61233, Control_c, 0, 64, 64
1, 61233, Control_c, 0, 67, 127
1, 61248, Control_c, 0, 64, 85
1, 61261, Note_off_c, 0, 64, 56
1, 61263, Control_c, 0, 64, 65
1, 61278, Control_c, 0, 64, 38
1, 61289, Note_on_c, 0, 62, 70
1, 61293, Control_c, 0, 64, 0
1, 61295, Note_on_c, 0, 66, 68
1, 61324, Control_c, 0, 64, 32
1, 61338, Control_c, 0, 64, 51
1, 61348, Note_off_c, 0, 66, 64
1, 61353, Control_c, 0, 64, 51
1, 61361, Note_on_c, 0, 61, 80
1, 61364, Note_off_c, 0, 62, 65
1, 61368, Control_c, 0, 64, 10
1, 61381, Note_off_c, 0, 61, 72
1, 61382, Control_c, 0, 64, 0
1, 61427, Control_c, 0, 64, 30
1, 61440, Note_on_c, 0, 59, 62
1, 61442, Control_c, 0, 64, 12
1, 61456, Control_c, 0, 64, 0
1, 61461, Note_on_c, 0, 62, 54
1, 61492, Note_off_c, 0, 62, 58
1, 61501, Control_c, 0, 64, 16
1, 61505, Note_on_c, 0, 61, 34
1, 61507, Note_off_c, 0, 59, 62
1, 61516, Control_c, 0, 64, 12
1, 61524, Note_on_c, 0, 57, 55
1, 61530, Control_c, 0, 64, 0
1, 61534, Note_off_c, 0, 61, 59
1, 61605, Note_off_c, 0, 57, 61
1, 61635, Note_on_c, 0, 39, 42
1, 61636, Note_on_c, 0, 51, 42
1, 61638, Note_on_c, 0, 59, 53
1, 61655, Note_on_c, 0, 56, 40
1, 61805, Control_c, 0, 64, 14
1, 61819, Control_c, 0, 64, 30
1, 61834, Control_c, 0, 64, 41
1, 61843, Note_off_c, 0, 51, 65
1, 61843, Note_off_c, 0, 56, 61
1, 61844, Note_off_c, 0, 59, 62
1, 61849, Control_c, 0, 64, 55
1, 61864, Control_c, 0, 64, 63
1, 61879, Control_c, 0, 64, 68
1, 61894, Control_c, 0, 64, 70
1, 61909, Control_c, 0, 64, 71
1, 62056, Control_c, 0, 64, 70
1, 62071, Control_c, 0, 64, 69
1, 62086, Control_c, 0, 64, 69
1, 62101, Control_c, 0, 64, 68
1, 62113, Note_on_c, 0, 58, 49
1, 62117, Control_c, 0, 64, 65
1, 62118, Note_on_c, 0, 49, 40
1, 62121, Note_on_c, 0, 55, 43
1, 62132, Control_c, 0, 64, 61
1, 62147, Control_c, 0, 64, 52
1, 62161, Control_c, 0, 64, 31
1, 62176, Control_c, 0, 64, 0
1, 62249, Control_c, 0, 64, 20
1, 62264, Note_off_c, 0, 55, 63
1, 62264, Control_c, 0, 64, 33
1, 62278, Control_c, 0, 64, 43
1, 62293, Control_c, 0, 64, 53
1, 62305, Note_off_c, 0, 58, 63
1, 62308, Control_c, 0, 64, 60
1, 62312, Note_off_c, 0, 49, 63
1, 62323, Control_c, 0, 64, 64
1, 62336, Note_off_c, 0, 39, 64
1, 62345, Control_c, 0, 64, 66
1, 62360, Control_c, 0, 64, 67
1, 62375, Control_c, 0, 64, 68
1, 62405, Control_c, 0, 64, 69
1, 62419, Control_c, 0, 64, 70
1, 62434, Control_c, 0, 64, 71
1, 62449, Control_c, 0, 64, 73
1, 62508, Control_c, 0, 64, 73
1, 62672, Control_c, 0, 64, 73
1, 62701, Control_c, 0, 64, 72
1, 62716, Control_c, 0, 64, 72
1, 62731, Control_c, 0, 64, 70
1, 62745, Control_c, 0, 64, 67
1, 62760, Control_c, 0, 64, 64
1, 62775, Control_c, 0, 64, 61
1, 62790, Control_c, 0, 64, 55
1, 62796, Note_on_c, 0, 32, 33
1, 62804, Control_c, 0, 64, 49
1, 62813, Note_on_c, 0, 56, 42
1, 62819, Control_c, 0, 64, 40
1, 62834, Control_c, 0, 64, 29
1, 62849, Control_c, 0, 64, 11
1, 62864, Control_c, 0, 64, 0
1, 62939, Control_c, 0, 64, 14
1, 62953, Control_c, 0, 64, 30
1, 62968, Control_c, 0, 64, 42
1, 62973, Note_off_c, 0, 32, 58
1, 62983, Control_c, 0, 64, 55
1, 62997, Note_off_c, 0, 56, 65
1, 62999, Control_c, 0, 64, 63
1, 63014, Control_c, 0, 64, 68
1, 63028, Control_c, 0, 64, 71
1, 63073, Control_c, 0, 64, 72
1, 63095, Control_c, 0, 64, 72
1, 63125, Control_c, 0, 64, 73
1, 63155, Control_c, 0, 64, 73
1, 63169, Control_c, 0, 64, 74
1, 63182, Note_on_c, 0, 51, 27
1, 63387, Note_on_c, 0, 59, 38
1, 63403, Note_off_c, 0, 51, 45
1, 63454, Note_on_c, 0, 75, 13
1, 63473, Poly_aftertouch_c, 0, 71, 127
1, 63491, Note_off_c, 0, 59, 55
1, 63525, Control_c, 0, 64, 73
1, 63545, Poly_aftertouch_c, 0, 71, 0
1, 63550, Note_off_c, 0, 75, 36
1, 63554, Control_c, 0, 64, 73
1, 63562, Note_on_c, 0, 76, 39
1, 63569, Control_c, 0, 64, 72
1, 63594, Note_on_c, 0, 73, 27
1, 63599, Control_c, 0, 64, 72
1, 63629, Control_c, 0, 64, 71
1, 63645, Note_on_c, 0, 43, 40
1, 63655, Note_off_c, 0, 73, 43
1, 63658, Control_c, 0, 64, 71
1, 63659, Note_off_c, 0, 76, 38
1, 63670, Note_on_c, 0, 75, 46
1, 63688, Note_on_c, 0, 71, 27
1, 63703, Control_c, 0, 64, 70
1, 63718, Control_c, 0, 64, 70
1, 63723, Note_off_c, 0, 75, 59
1, 63733, Control_c, 0, 64, 69
1, 63738, Note_off_c, 0, 71, 46
1, 63748, Control_c, 0, 64, 68
1, 63762, Note_on_c, 0, 76, 43
1, 63763, Control_c, 0, 64, 66
1, 63764, Note_on_c, 0, 73, 45
1, 63777, Control_c, 0, 64, 65
1, 63792, Control_c, 0, 64, 62
1, 63807, Control_c, 0, 64, 59
1, 63822, Control_c, 0, 64, 52
1, 63823, Note_off_c, 0, 76, 42
1, 63839, Note_off_c, 0, 73, 50
1, 63844, Control_c, 0, 64, 42
1, 63858, Note_on_c, 0, 75, 48
1, 63858, Control_c, 0, 64, 29
1, 63859, Note_on_c, 0, 44, 37
1, 63867, Note_on_c, 0, 71, 34
1, 63869, Note_off_c, 0, 43, 40
1, 63873, Control_c, 0, 64, 24
1, 63888, Control_c, 0, 64, 25
1, 63900, Note_off_c, 0, 75, 59
1, 63903, Control_c, 0, 64, 29
1, 63916, Note_off_c, 0, 71, 51
1, 63918, Control_c, 0, 64, 36
1, 63933, Control_c, 0, 64, 43
1, 63948, Control_c, 0, 64, 51
1, 63948, Note_on_c, 0, 73, 44
1, 63957, Note_on_c, 0, 76, 33
1, 63963, Control_c, 0, 64, 57
1, 63978, Control_c, 0, 64, 61
1, 63992, Control_c, 0, 64, 63
1, 63995, Note_off_c, 0, 76, 52
1, 63998, Note_off_c, 0, 73, 60
1, 64004, Note_off_c, 0, 44, 55
1, 64007, Control_c, 0, 64, 64
1, 64019, Note_on_c, 0, 51, 47
1, 64022, Control_c, 0, 64, 64
1, 64025, Note_on_c, 0, 75, 45
1, 64030, Note_on_c, 0, 71, 40
1, 64052, Control_c, 0, 64, 65
1, 64059, Note_off_c, 0, 75, 54
1, 64070, Note_off_c, 0, 71, 51
1, 64081, Control_c, 0, 64, 66
1, 64096, Control_c, 0, 64, 66
1, 64098, Note_on_c, 0, 76, 45
1, 64111, Note_on_c, 0, 73, 52
1, 64126, Control_c, 0, 64, 67
1, 64144, Note_off_c, 0, 76, 46
1, 64145, Note_off_c, 0, 73, 59
1, 64165, Note_on_c, 0, 71, 56
1, 64174, Note_on_c, 0, 75, 55
1, 64175, Note_on_c, 0, 59, 11
1, 64177, Note_off_c, 0, 51, 62
1, 64184, Control_c, 0, 64, 67
1, 64198, Note_off_c, 0, 71, 63
1, 64215, Note_off_c, 0, 75, 60
1, 64221, Note_off_c, 0, 59, 52
1, 64237, Note_on_c, 0, 73, 55
1, 64243, Note_on_c, 0, 76, 48
1, 64281, Note_off_c, 0, 73, 59
1, 64282, Note_off_c, 0, 76, 50
1, 64298, Note_on_c, 0, 39, 48
1, 64299, Note_on_c, 0, 71, 53
1, 64328, Note_on_c, 0, 75, 50
1, 64345, Note_off_c, 0, 71, 55
1, 64347, Control_c, 0, 64, 67
1, 64377, Note_on_c, 0, 76, 56
1, 64377, Control_c, 0, 64, 66
1, 64381, Note_on_c, 0, 73, 54
1, 64392, Control_c, 0, 64, 66
1, 64398, Note_off_c, 0, 76, 64
1, 64401, Note_off_c, 0, 73, 64
1, 64407, Control_c, 0, 64, 65
1, 64416, Note_off_c, 0, 75, 36
1, 64422, Control_c, 0, 64, 63
1, 64437, Control_c, 0, 64, 62
1, 64452, Control_c, 0, 64, 59
1, 64464, Note_on_c, 0, 44, 58
1, 64466, Control_c, 0, 64, 54
1, 64472, Note_off_c, 0, 39, 61
1, 64481, Control_c, 0, 64, 45
1, 64482, Note_on_c, 0, 78, 58
1, 64496, Control_c, 0, 64, 33
1, 64501, Note_on_c, 0, 75, 34
1, 64511, Control_c, 0, 64, 16
1, 64526, Control_c, 0, 64, 0
1, 64532, Note_off_c, 0, 75, 57
1, 64533, Note_off_c, 0, 78, 53
1, 64556, Control_c, 0, 64, 14
1, 64568, Note_on_c, 0, 80, 53
1, 64569, Note_on_c, 0, 76, 42
1, 64571, Control_c, 0, 64, 23
1, 64593, Control_c, 0, 64, 31
1, 64607, Control_c, 0, 64, 38
1, 64622, Control_c, 0, 64, 47
1, 64623, Note_off_c, 0, 80, 58
1, 64635, Note_off_c, 0, 44, 59
1, 64636, Note_off_c, 0, 76, 44
1, 64637, Control_c, 0, 64, 53
1, 64644, Note_on_c, 0, 75, 47
1, 64645, Note_on_c, 0, 78, 57
1, 64646, Note_on_c, 0, 51, 51
1, 64652, Control_c, 0, 64, 57
1, 64667, Control_c, 0, 64, 60
1, 64681, Control_c, 0, 64, 60
1, 64685, Note_off_c, 0, 78, 55
1, 64687, Note_off_c, 0, 75, 50
1, 64726, Note_on_c, 0, 80, 65
1, 64735, Note_on_c, 0, 76, 51
1, 64758, Note_off_c, 0, 51, 61
1, 64764, Note_off_c, 0, 76, 55
1, 64771, Control_c, 0, 64, 61
1, 64783, Note_off_c, 0, 80, 60
1, 64786, Note_on_c, 0, 78, 63
1, 64789, Note_on_c, 0, 60, 55
1, 64790, Note_on_c, 0, 75, 56
1, 64821, Note_off_c, 0, 75, 55
1, 64828, Note_off_c, 0, 78, 59
1, 64830, Control_c, 0, 64, 60
1, 64856, Note_on_c, 0, 76, 61
1, 64857, Note_on_c, 0, 80, 58
1, 64889, Control_c, 0, 64, 60
1, 64904, Control_c, 0, 64, 59
1, 64914, Note_off_c, 0, 76, 62
1, 64914, Note_off_c, 0, 80, 61
1, 64919, Note_off_c, 0, 60, 57
1, 64919, Control_c, 0, 64, 59
1, 64923, Note_on_c, 0, 78, 66
1, 64929, Note_on_c, 0, 75, 50
1, 64931, Note_on_c, 0, 49, 56
1, 64933, Control_c, 0, 64, 58
1, 64974, Note_off_c, 0, 75, 51
1, 64974, Note_off_c, 0, 78, 61
1, 64978, Control_c, 0, 64, 58
1, 64991, Note_on_c, 0, 80, 65
1, 64993, Control_c, 0, 64, 57
1, 65000, Note_on_c, 0, 76, 56
1, 65007, Control_c, 0, 64, 55
1, 65022, Control_c, 0, 64, 53
1, 65037, Control_c, 0, 64, 50
1, 65052, Control_c, 0, 64, 46
1, 65058, Note_off_c, 0, 76, 57
1, 65058, Note_off_c, 0, 80, 62
1, 65067, Note_off_c, 0, 49, 56
1, 65067, Control_c, 0, 64, 41
1, 65069, Note_on_c, 0, 48, 57
1, 65074, Note_on_c, 0, 78, 64
1, 65075, Note_on_c, 0, 75, 57
1, 65081, Control_c, 0, 64, 32
1, 65096, Control_c, 0, 64, 14
1, 65111, Control_c, 0, 64, 0
1, 65119, Note_off_c, 0, 75, 61
1, 65122, Note_off_c, 0, 78, 64
1, 65126, Note_on_c, 0, 80, 69
1, 65140, Note_on_c, 0, 76, 64
1, 65200, Control_c, 0, 64, 15
1, 65201, Note_off_c, 0, 76, 65
1, 65201, Note_off_c, 0, 80, 64
1, 65209, Note_on_c, 0, 78, 69
1, 65211, Note_on_c, 0, 75, 61
1, 65215, Control_c, 0, 64, 25
1, 65218, Note_on_c, 0, 51, 57
1, 65230, Control_c, 0, 64, 32
1, 65244, Control_c, 0, 64, 39
1, 65259, Control_c, 0, 64, 45
1, 65266, Note_off_c, 0, 75, 58
1, 65266, Note_off_c, 0, 78, 66
1, 65271, Note_on_c, 0, 80, 70
1, 65274, Control_c, 0, 64, 51
1, 65279, Note_on_c, 0, 76, 61
1, 65289, Control_c, 0, 64, 55
1, 65304, Control_c, 0, 64, 58
1, 65304, Control_c, 0, 67, 122
1, 65319, Control_c, 0, 64, 58
1, 65319, Control_c, 0, 67, 108
1, 65335, Note_off_c, 0, 48, 32
1, 65342, Control_c, 0, 67, 94
1, 65353, Note_off_c, 0, 76, 62
1, 65355, Note_on_c, 0, 60, 44
1, 65357, Control_c, 0, 67, 80
1, 65361, Note_off_c, 0, 80, 62
1, 65371, Control_c, 0, 64, 59
1, 65371, Control_c, 0, 67, 68
1, 65373, Note_on_c, 0, 78, 63
1, 65379, Note_off_c, 0, 51, 64
1, 65382, Note_on_c, 0, 75, 52
1, 65382, Note_off_c, 0, 60, 56
1, 65386, Control_c, 0, 67, 59
1, 65401, Control_c, 0, 64, 59
1, 65401, Control_c, 0, 67, 54
1, 65416, Control_c, 0, 67, 51
1, 65431, Control_c, 0, 67, 49
1, 65433, Note_off_c, 0, 75, 54
1, 65435, Note_off_c, 0, 78, 64
1, 65448, Note_on_c, 0, 76, 65
1, 65456, Note_on_c, 0, 80, 67
1, 65490, Control_c, 0, 67, 50
1, 65500, Note_on_c, 0, 39, 47
1, 65504, Control_c, 0, 67, 50
1, 65517, Note_off_c, 0, 76, 64
1, 65519, Control_c, 0, 67, 51
1, 65531, Note_off_c, 0, 39, 51
1, 65534, Control_c, 0, 67, 52
1, 65537, Note_off_c, 0, 80, 61
1, 65549, Control_c, 0, 67, 53
1, 65552, Note_on_c, 0, 75, 46
1, 65553, Note_on_c, 0, 78, 65
1, 65563, Control_c, 0, 64, 59
1, 65563, Control_c, 0, 67, 54
1, 65578, Control_c, 0, 67, 55
1, 65593, Control_c, 0, 64, 58
1, 65593, Control_c, 0, 67, 55
1, 65608, Control_c, 0, 64, 58
1, 65608, Control_c, 0, 67, 56
1, 65623, Control_c, 0, 67, 56
1, 65638, Control_c, 0, 64, 57
1, 65638, Control_c, 0, 67, 57
1, 65641, Note_on_c, 0, 76, 66
1, 65651, Note_on_c, 0, 80, 67
1, 65653, Control_c, 0, 64, 57
1, 65662, Note_off_c, 0, 78, 55
1, 65668, Control_c, 0, 64, 56
1, 65668, Control_c, 0, 67, 58
1, 65683, Control_c, 0, 64, 54
1, 65690, Note_off_c, 0, 75, 38
1, 65698, Control_c, 0, 64, 53
1, 65712, Control_c, 0, 64, 51
1, 65712, Control_c, 0, 67, 58
1, 65724, Note_off_c, 0, 76, 0
1, 65727, Control_c, 0, 64, 50
1, 65727, Control_c, 0, 67, 59
1, 65742, Control_c, 0, 64, 49
1, 65742, Control_c, 0, 67, 59
1, 65756, Control_c, 0, 64, 47
1, 65756, Control_c, 0, 67, 60
1, 65760, Note_on_c, 0, 44, 38
1, 65761, Poly_aftertouch_c, 0, 76, 127
1, 65771, Control_c, 0, 64, 45
1, 65771, Control_c, 0, 67, 61
1, 65780, Note_on_c, 0, 76, 15
1, 65786, Control_c, 0, 64, 42
1, 65786, Control_c, 0, 67, 63
1, 65801, Control_c, 0, 64, 39
1, 65801, Control_c, 0, 67, 66
1, 65816, Control_c, 0, 64, 36
1, 65816, Control_c, 0, 67, 71
1, 65830, Control_c, 0, 64, 33
1, 65830, Control_c, 0, 67, 79
1, 65845, Control_c, 0, 64, 30
1, 65845, Control_c, 0, 67, 88
1, 65855, Note_off_c, 0, 76, 43
1, 65860, Control_c, 0, 64, 24
1, 65860, Control_c, 0, 67, 96
1, 65875, Control_c, 0, 64, 16
1, 65875, Control_c, 0, 67, 105
1, 65880, Note_off_c, 0, 80, 56
1, 65890, Control_c, 0, 64, 0
1, 65890, Control_c, 0, 67, 114
1, 65904, Control_c, 0, 67, 122
1, 65906, Note_on_c, 0, 78, 45
1, 65912, Note_on_c, 0, 81, 58
1, 65919, Control_c, 0, 67, 127
1, 66019, Note_off_c, 0, 78, 54
1, 66052, Control_c, 0, 64, 15
1, 66065, Note_off_c, 0, 81, 60
1, 66067, Control_c, 0, 64, 24
1, 66085, Note_on_c, 0, 80, 52
1, 66088, Control_c, 0, 64, 31
1, 66092, Note_on_c, 0, 77, 48
1, 66105, Control_c, 0, 64, 36
1, 66120, Control_c, 0, 64, 42
1, 66134, Control_c, 0, 64, 47
1, 66139, Note_off_c, 0, 80, 59
1, 66149, Control_c, 0, 64, 52
1, 66156, Note_on_c, 0, 52, 42
1, 66164, Control_c, 0, 64, 55
1, 66170, Note_off_c, 0, 77, 44
1, 66178, Control_c, 0, 64, 56
1, 66179, Note_off_c, 0, 44, 48
1, 66193, Control_c, 0, 64, 57
1, 66207, Note_on_c, 0, 79, 48
1, 66208, Note_on_c, 0, 76, 52
1, 66263, Note_off_c, 0, 76, 51
1, 66267, Control_c, 0, 64, 58
1, 66282, Note_on_c, 0, 78, 63
1, 66282, Control_c, 0, 64, 58
1, 66297, Note_on_c, 0, 75, 53
1, 66297, Control_c, 0, 64, 59
1, 66308, Note_off_c, 0, 79, 37
1, 66312, Control_c, 0, 64, 59
1, 66321, Note_off_c, 0, 78, 53
1, 66337, Note_off_c, 0, 75, 45
1, 66367, Note_on_c, 0, 61, 50
1, 66370, Note_on_c, 0, 74, 65
1, 66375, Note_off_c, 0, 52, 34
1, 66392, Note_on_c, 0, 77, 47
1, 66425, Note_off_c, 0, 77, 54
1, 66436, Note_off_c, 0, 74, 62
1, 66448, Note_on_c, 0, 76, 59
1, 66469, Note_on_c, 0, 73, 54
1, 66474, Note_off_c, 0, 76, 59
1, 66499, Note_off_c, 0, 73, 62
1, 66508, Note_on_c, 0, 77, 67
1, 66511, Note_on_c, 0, 51, 50
1, 66517, Note_off_c, 0, 61, 50
1, 66519, Control_c, 0, 64, 59
1, 66520, Note_on_c, 0, 74, 64
1, 66570, Note_off_c, 0, 77, 39
1, 66578, Note_on_c, 0, 78, 73
1, 66578, Note_off_c, 0, 74, 61
1, 66595, Note_on_c, 0, 75, 62
1, 66629, Note_off_c, 0, 78, 51
1, 66638, Control_c, 0, 64, 58
1, 66649, Note_off_c, 0, 75, 58
1, 66652, Control_c, 0, 64, 58
1, 66654, Note_on_c, 0, 76, 70
1, 66659, Note_on_c, 0, 79, 65
1, 66667, Control_c, 0, 64, 56
1, 66680, Note_on_c, 0, 49, 52
1, 66682, Control_c, 0, 64, 50
1, 66696, Control_c, 0, 64, 39
1, 66702, Note_off_c, 0, 51, 31
1, 66711, Control_c, 0, 64, 20
1, 66721, Note_off_c, 0, 76, 66
1, 66726, Note_on_c, 0, 78, 70
1, 66726, Control_c, 0, 64, 0
1, 66730, Note_off_c, 0, 79, 53
1, 66732, Note_on_c, 0, 75, 67
1, 66742, Control_c, 0, 64, 10
1, 66757, Control_c, 0, 64, 20
1, 66771, Control_c, 0, 64, 31
1, 66777, Note_off_c, 0, 78, 65
1, 66786, Control_c, 0, 64, 39
1, 66801, Note_on_c, 0, 74, 68
1, 66801, Note_off_c, 0, 75, 60
1, 66801, Control_c, 0, 64, 48
1, 66811, Note_on_c, 0, 77, 67
1, 66813, Note_on_c, 0, 52, 67
1, 66816, Control_c, 0, 64, 53
1, 66839, Control_c, 0, 64, 57
1, 66853, Control_c, 0, 64, 58
1, 66868, Control_c, 0, 64, 59
1, 66875, Note_off_c, 0, 74, 64
1, 66894, Note_on_c, 0, 76, 51
1, 66897, Note_on_c, 0, 73, 70
1, 66906, Note_off_c, 0, 77, 61
1, 66925, Note_off_c, 0, 76, 56
1, 66950, Note_on_c, 0, 61, 72
1, 66953, Note_on_c, 0, 75, 55
1, 66963, Note_off_c, 0, 73, 63
1, 66968, Note_on_c, 0, 72, 67
1, 66975, Note_off_c, 0, 61, 71
1, 66979, Note_off_c, 0, 75, 57
1, 66985, Note_off_c, 0, 52, 66
1, 66988, Control_c, 0, 64, 58
1, 67018, Note_off_c, 0, 72, 63
1, 67027, Note_on_c, 0, 74, 52
1, 67031, Note_off_c, 0, 49, 33
1, 67033, Note_on_c, 0, 71, 60
1, 67089, Note_off_c, 0, 74, 56
1, 67091, Control_c, 0, 64, 57
1, 67099, Note_off_c, 0, 71, 64
1, 67106, Note_on_c, 0, 75, 66
1, 67106, Control_c, 0, 64, 55
1, 67110, Note_on_c, 0, 72, 74
1, 67121, Control_c, 0, 64, 50
1, 67122, Note_on_c, 0, 32, 43
1, 67135, Control_c, 0, 64, 39
1, 67150, Control_c, 0, 64, 20
1, 67161, Note_off_c, 0, 32, 0
1, 67161, Note_on_c, 0, 32, 22
1, 67165, Control_c, 0, 64, 0
1, 67176, Note_off_c, 0, 72, 62
1, 67185, Note_on_c, 0, 76, 59
1, 67194, Note_on_c, 0, 73, 70
1, 67197, Note_off_c, 0, 75, 31
1, 67224, Control_c, 0, 64, 18
1, 67229, Note_off_c, 0, 76, 63
1, 67239, Control_c, 0, 64, 28
1, 67253, Note_off_c, 0, 73, 64
1, 67254, Note_on_c, 0, 44, 50
1, 67254, Control_c, 0, 64, 35
1, 67255, Note_on_c, 0, 77, 70
1, 67255, Note_off_c, 0, 32, 61
1, 67269, Note_on_c, 0, 74, 61
1, 67269, Control_c, 0, 64, 41
1, 67283, Control_c, 0, 64, 49
1, 67293, Note_off_c, 0, 44, 64
1, 67298, Control_c, 0, 64, 53
1, 67300, Poly_aftertouch_c, 0, 34, 0
1, 67313, Control_c, 0, 64, 56
1, 67319, Note_off_c, 0, 74, 64
1, 67322, Note_on_c, 0, 76, 76
1, 67324, Note_off_c, 0, 77, 59
1, 67328, Control_c, 0, 64, 58
1, 67340, Note_on_c, 0, 73, 71
1, 67343, Control_c, 0, 64, 58
1, 67373, Control_c, 0, 64, 59
1, 67383, Note_off_c, 0, 76, 66
1, 67388, Control_c, 0, 64, 59
1, 67402, Control_c, 0, 64, 60
1, 67409, Note_on_c, 0, 52, 55
1, 67412, Note_on_c, 0, 75, 52
1, 67412, Note_on_c, 0, 72, 62
1, 67430, Note_off_c, 0, 72, 64
1, 67436, Note_off_c, 0, 75, 58
1, 67444, Note_off_c, 0, 73, 34
1, 67471, Note_on_c, 0, 71, 67
1, 67476, Note_on_c, 0, 74, 60
1, 67476, Control_c, 0, 64, 60
1, 67491, Control_c, 0, 64, 61
1, 67494, Note_off_c, 0, 52, 66
1, 67506, Control_c, 0, 64, 61
1, 67534, Note_off_c, 0, 74, 64
1, 67535, Control_c, 0, 64, 62
1, 67547, Note_on_c, 0, 70, 69
1, 67547, Note_off_c, 0, 71, 59
1, 67558, Note_on_c, 0, 73, 45
1, 67586, Note_on_c, 0, 61, 50
1, 67591, Note_off_c, 0, 70, 55
1, 67593, Note_off_c, 0, 73, 57
1, 67617, Control_c, 0, 64, 61
1, 67625, Note_on_c, 0, 69, 64
1, 67632, Control_c, 0, 64, 59
1, 67647, Note_on_c, 0, 72, 55
1, 67647, Control_c, 0, 64, 58
1, 67662, Control_c, 0, 64, 56
1, 67676, Control_c, 0, 64, 53
1, 67677, Note_off_c, 0, 72, 58
1, 67691, Control_c, 0, 64, 49
1, 67693, Note_off_c, 0, 69, 65
1, 67701, Note_on_c, 0, 71, 50
1, 67707, Note_on_c, 0, 67, 64
1, 67707, Control_c, 0, 64, 43
1, 67722, Control_c, 0, 64, 37
1, 67726, Note_on_c, 0, 51, 52
1, 67737, Control_c, 0, 64, 29
1, 67751, Note_off_c, 0, 71, 59
1, 67751, Control_c, 0, 64, 19
1, 67766, Control_c, 0, 64, 0
1, 67771, Note_off_c, 0, 67, 63
1, 67772, Note_off_c, 0, 61, 38
1, 67784, Note_on_c, 0, 69, 60
1, 67790, Note_on_c, 0, 73, 55
1, 67829, Note_off_c, 0, 73, 54
1, 67846, Note_off_c, 0, 69, 63
1, 67851, Note_on_c, 0, 71, 58
1, 67868, Note_off_c, 0, 51, 54
1, 67874, Note_on_c, 0, 67, 60
1, 67886, Note_on_c, 0, 49, 50
1, 67901, Note_off_c, 0, 71, 61
1, 67933, Note_on_c, 0, 73, 51
1, 67933, Note_off_c, 0, 67, 63
1, 67946, Note_on_c, 0, 69, 56
1, 67990, Note_off_c, 0, 73, 61
1, 68006, Note_off_c, 0, 69, 64
1, 68017, Note_on_c, 0, 71, 43
1, 68020, Note_on_c, 0, 67, 60
1, 68035, Note_on_c, 0, 52, 52
1, 68074, Note_off_c, 0, 71, 49
1, 68088, Note_off_c, 0, 67, 63
1, 68095, Note_on_c, 0, 73, 60
1, 68106, Note_on_c, 0, 69, 45
1, 68136, Control_c, 0, 64, 10
1, 68151, Control_c, 0, 64, 25
1, 68166, Control_c, 0, 64, 32
1, 68166, Note_off_c, 0, 73, 59
1, 68172, Note_off_c, 0, 69, 61
1, 68181, Control_c, 0, 64, 39
1, 68190, Note_on_c, 0, 71, 39
1, 68196, Control_c, 0, 64, 46
1, 68197, Note_on_c, 0, 67, 58
1, 68210, Note_on_c, 0, 61, 61
1, 68210, Control_c, 0, 64, 53
1, 68225, Control_c, 0, 64, 57
1, 68229, Note_off_c, 0, 61, 67
1, 68240, Control_c, 0, 64, 59
1, 68255, Control_c, 0, 64, 60
1, 68258, Note_off_c, 0, 52, 58
1, 68275, Note_off_c, 0, 67, 61
1, 68279, Note_on_c, 0, 73, 61
1, 68280, Note_off_c, 0, 49, 35
1, 68288, Note_off_c, 0, 71, 52
1, 68294, Note_on_c, 0, 69, 59
1, 68335, Note_off_c, 0, 69, 59
1, 68407, Note_on_c, 0, 67, 40
1, 68407, Note_on_c, 0, 71, 40
1, 68421, Note_on_c, 0, 32, 42
1, 68422, Note_off_c, 0, 73, 32
1, 68425, Control_c, 0, 64, 59
1, 68470, Control_c, 0, 64, 59
1, 68476, Note_off_c, 0, 71, 38
1, 68500, Control_c, 0, 64, 58
1, 68501, Note_on_c, 0, 69, 51
1, 68503, Note_on_c, 0, 64, 52
1, 68509, Note_off_c, 0, 67, 46
1, 68529, Control_c, 0, 64, 58
1, 68531, Note_off_c, 0, 64, 60
1, 68544, Control_c, 0, 64, 57
1, 68559, Control_c, 0, 64, 57
1, 68571, Note_off_c, 0, 69, 57
1, 68574, Control_c, 0, 64, 56
1, 68589, Control_c, 0, 64, 55
1, 68604, Control_c, 0, 64, 53
1, 68619, Control_c, 0, 64, 51
1, 68634, Control_c, 0, 64, 47
1, 68648, Control_c, 0, 64, 42
1, 68663, Control_c, 0, 64, 32
1, 68678, Control_c, 0, 64, 0
1, 68684, Note_on_c, 0, 44, 38
1, 68690, Note_on_c, 0, 68, 47
1, 68701, Note_on_c, 0, 63, 39
1, 68784, Note_off_c, 0, 32, 58
1, 68796, Control_c, 0, 64, 18
1, 68811, Control_c, 0, 64, 33
1, 68823, Note_off_c, 0, 44, 63
1, 68826, Note_off_c, 0, 63, 57
1, 68826, Control_c, 0, 64, 43
1, 68841, Control_c, 0, 64, 53
1, 68847, Note_off_c, 0, 68, 59
1, 68855, Control_c, 0, 64, 60
1, 68870, Control_c, 0, 64, 63
1, 68885, Control_c, 0, 64, 65
1, 68974, Note_on_c, 0, 51, 38
1, 69114, Control_c, 0, 64, 65
1, 69196, Note_on_c, 0, 60, 34
1, 69203, Control_c, 0, 64, 64
1, 69236, Note_on_c, 0, 84, 45
1, 69256, Note_on_c, 0, 87, 41
1, 69277, Note_off_c, 0, 51, 38
1, 69308, Control_c, 0, 64, 64
1, 69319, Note_off_c, 0, 87, 60
1, 69322, Note_off_c, 0, 84, 58
1, 69337, Control_c, 0, 64, 63
1, 69356, Note_on_c, 0, 85, 47
1, 69364, Note_on_c, 0, 88, 36
1, 69382, Control_c, 0, 64, 63
1, 69397, Control_c, 0, 64, 62
1, 69411, Note_off_c, 0, 85, 59
1, 69412, Control_c, 0, 64, 62
1, 69430, Note_off_c, 0, 88, 42
1, 69442, Note_on_c, 0, 49, 39
1, 69445, Note_off_c, 0, 60, 41
1, 69451, Note_on_c, 0, 87, 45
1, 69455, Note_on_c, 0, 84, 51
1, 69457, Control_c, 0, 64, 61
1, 69486, Control_c, 0, 64, 61
1, 69486, Note_off_c, 0, 87, 53
1, 69489, Note_off_c, 0, 84, 53
1, 69501, Control_c, 0, 64, 60
1, 69528, Note_on_c, 0, 88, 46
1, 69532, Note_on_c, 0, 85, 48
1, 69560, Control_c, 0, 64, 60
1, 69567, Note_off_c, 0, 88, 52
1, 69568, Note_off_c, 0, 85, 55
1, 69588, Note_on_c, 0, 84, 52
1, 69590, Control_c, 0, 64, 59
1, 69598, Note_on_c, 0, 87, 51
1, 69604, Control_c, 0, 64, 57
1, 69617, Note_off_c, 0, 49, 45
1, 69618, Note_on_c, 0, 48, 47
1, 69619, Control_c, 0, 64, 54
1, 69634, Control_c, 0, 64, 49
1, 69640, Note_off_c, 0, 84, 57
1, 69642, Note_off_c, 0, 87, 64
1, 69649, Control_c, 0, 64, 40
1, 69662, Note_on_c, 0, 85, 52
1, 69664, Control_c, 0, 64, 23
1, 69665, Note_on_c, 0, 88, 44
1, 69678, Control_c, 0, 64, 0
1, 69710, Note_off_c, 0, 88, 61
1, 69710, Note_off_c, 0, 85, 59
1, 69736, Note_on_c, 0, 84, 42
1, 69738, Control_c, 0, 64, 18
1, 69749, Note_on_c, 0, 87, 52
1, 69753, Control_c, 0, 64, 26
1, 69768, Control_c, 0, 64, 32
1, 69772, Note_on_c, 0, 51, 50
1, 69781, Note_off_c, 0, 87, 62
1, 69783, Note_off_c, 0, 84, 46
1, 69783, Control_c, 0, 64, 37
1, 69797, Control_c, 0, 64, 41
1, 69811, Note_on_c, 0, 85, 54
1, 69812, Control_c, 0, 64, 46
1, 69817, Note_on_c, 0, 88, 46
1, 69835, Control_c, 0, 64, 50
1, 69850, Control_c, 0, 64, 53
1, 69856, Note_off_c, 0, 85, 63
1, 69865, Control_c, 0, 64, 55
1, 69867, Note_off_c, 0, 88, 52
1, 69879, Control_c, 0, 64, 56
1, 69884, Note_on_c, 0, 84, 57
1, 69895, Note_off_c, 0, 48, 32
1, 69896, Note_on_c, 0, 87, 59
1, 69906, Note_on_c, 0, 60, 53
1, 69927, Note_off_c, 0, 60, 59
1, 69929, Note_off_c, 0, 84, 58
1, 69943, Note_off_c, 0, 87, 61
1, 69945, Note_off_c, 0, 51, 58
1, 69958, Note_on_c, 0, 85, 63
1, 69966, Note_on_c, 0, 88, 51
1, 70005, Note_off_c, 0, 85, 61
1, 70018, Note_off_c, 0, 88, 55
1, 70037, Note_on_c, 0, 84, 58
1, 70038, Note_on_c, 0, 39, 56
1, 70059, Note_on_c, 0, 87, 55
1, 70065, Note_off_c, 0, 39, 56
1, 70082, Note_off_c, 0, 84, 52
1, 70086, Control_c, 0, 64, 57
1, 70104, Note_off_c, 0, 87, 64
1, 70112, Note_on_c, 0, 88, 59
1, 70113, Note_on_c, 0, 85, 52
1, 70117, Control_c, 0, 64, 57
1, 70131, Note_off_c, 0, 88, 65
1, 70136, Note_off_c, 0, 85, 57
1, 70161, Control_c, 0, 64, 57
1, 70176, Control_c, 0, 64, 56
1, 70191, Note_on_c, 0, 44, 54
1, 70191, Control_c, 0, 64, 56
1, 70206, Control_c, 0, 64, 55
1, 70214, Note_on_c, 0, 90, 56
1, 70217, Note_on_c, 0, 87, 53
1, 70220, Control_c, 0, 64, 52
1, 70235, Control_c, 0, 64, 47
1, 70250, Control_c, 0, 64, 37
1, 70260, Note_off_c, 0, 87, 64
1, 70264, Note_off_c, 0, 90, 54
1, 70265, Control_c, 0, 64, 23
1, 70280, Control_c, 0, 64, 0
1, 70284, Note_on_c, 0, 92, 62
1, 70291, Note_on_c, 0, 88, 54
1, 70339, Control_c, 0, 64, 14
1, 70340, Note_off_c, 0, 88, 64
1, 70345, Note_off_c, 0, 92, 62
1, 70354, Control_c, 0, 64, 23
1, 70360, Note_on_c, 0, 90, 60
1, 70364, Note_on_c, 0, 87, 53
1, 70369, Control_c, 0, 64, 29
1, 70371, Note_on_c, 0, 51, 51
1, 70384, Control_c, 0, 64, 34
1, 70398, Control_c, 0, 64, 39
1, 70404, Note_off_c, 0, 90, 65
1, 70405, Note_off_c, 0, 87, 65
1, 70407, Note_off_c, 0, 44, 61
1, 70413, Control_c, 0, 64, 44
1, 70425, Note_on_c, 0, 92, 66
1, 70428, Control_c, 0, 64, 48
1, 70430, Note_on_c, 0, 88, 59
1, 70443, Control_c, 0, 64, 53
1, 70458, Control_c, 0, 64, 55
1, 70472, Control_c, 0, 64, 56
1, 70473, Note_off_c, 0, 88, 61
1, 70478, Note_off_c, 0, 51, 65
1, 70486, Note_off_c, 0, 92, 64
1, 70493, Note_on_c, 0, 87, 65
1, 70501, Note_on_c, 0, 60, 58
1, 70503, Note_on_c, 0, 90, 62
1, 70538, Note_off_c, 0, 87, 60
1, 70542, Note_off_c, 0, 90, 66
1, 70545, Control_c, 0, 67, 120
1, 70560, Control_c, 0, 67, 112
1, 70562, Note_on_c, 0, 92, 65
1, 70576, Note_on_c, 0, 88, 63
1, 70583, Control_c, 0, 67, 102
1, 70598, Control_c, 0, 64, 56
1, 70598, Control_c, 0, 67, 90
1, 70613, Control_c, 0, 67, 81
1, 70625, Note_off_c, 0, 88, 62
1, 70627, Control_c, 0, 67, 75
1, 70634, Note_off_c, 0, 92, 65
1, 70640, Note_on_c, 0, 90, 72
1, 70642, Control_c, 0, 67, 70
1, 70644, Note_on_c, 0, 87, 64
1, 70653, Note_on_c, 0, 49, 62
1, 70657, Note_off_c, 0, 60, 57
1, 70657, Control_c, 0, 67, 64
1, 70671, Control_c, 0, 64, 55
1, 70671, Control_c, 0, 67, 60
1, 70686, Control_c, 0, 64, 55
1, 70686, Control_c, 0, 67, 58
1, 70691, Note_off_c, 0, 87, 58
1, 70698, Note_off_c, 0, 90, 65
1, 70701, Control_c, 0, 67, 58
1, 70711, Note_on_c, 0, 92, 71
1, 70717, Note_on_c, 0, 88, 71
1, 70745, Control_c, 0, 64, 54
1, 70745, Control_c, 0, 67, 58
1, 70760, Control_c, 0, 64, 54
1, 70760, Control_c, 0, 67, 59
1, 70775, Control_c, 0, 67, 59
1, 70777, Note_off_c, 0, 88, 61
1, 70785, Note_off_c, 0, 92, 66
1, 70789, Note_on_c, 0, 90, 72
1, 70790, Note_on_c, 0, 87, 68
1, 70790, Control_c, 0, 67, 60
1, 70795, Note_off_c, 0, 49, 61
1, 70799, Note_on_c, 0, 48, 54
1, 70805, Control_c, 0, 67, 60
1, 70819, Control_c, 0, 64, 53
1, 70834, Control_c, 0, 64, 51
1, 70841, Note_off_c, 0, 87, 60
1, 70849, Control_c, 0, 64, 46
1, 70850, Note_off_c, 0, 90, 66
1, 70857, Note_on_c, 0, 88, 71
1, 70858, Note_on_c, 0, 92, 74
1, 70864, Control_c, 0, 64, 37
1, 70878, Control_c, 0, 64, 23
1, 70895, Control_c, 0, 64, 0
1, 70926, Note_off_c, 0, 88, 61
1, 70937, Note_on_c, 0, 90, 74
1, 70938, Note_on_c, 0, 87, 73
1, 70938, Note_off_c, 0, 92, 65
1, 70949, Note_on_c, 0, 51, 60
1, 70954, Control_c, 0, 67, 61
1, 70969, Control_c, 0, 64, 18
1, 70969, Control_c, 0, 67, 61
1, 70983, Control_c, 0, 64, 24
1, 70983, Control_c, 0, 67, 62
1, 70991, Note_off_c, 0, 87, 61
1, 70998, Control_c, 0, 64, 29
1, 70999, Note_off_c, 0, 90, 67
1, 71004, Note_on_c, 0, 92, 72
1, 71007, Note_on_c, 0, 88, 65
1, 71013, Control_c, 0, 64, 33
1, 71013, Control_c, 0, 67, 63
1, 71028, Control_c, 0, 64, 37
1, 71028, Control_c, 0, 67, 64
1, 71043, Control_c, 0, 64, 42
1, 71043, Control_c, 0, 67, 65
1, 71057, Control_c, 0, 64, 46
1, 71057, Control_c, 0, 67, 67
1, 71072, Control_c, 0, 64, 49
1, 71072, Control_c, 0, 67, 69
1, 71076, Note_off_c, 0, 88, 56
1, 71087, Control_c, 0, 64, 52
1, 71087, Control_c, 0, 67, 74
1, 71092, Note_off_c, 0, 92, 64
1, 71098, Note_on_c, 0, 87, 65
1, 71102, Note_on_c, 0, 90, 64
1, 71102, Control_c, 0, 64, 53
1, 71102, Control_c, 0, 67, 84
1, 71105, Note_on_c, 0, 60, 27
1, 71117, Control_c, 0, 67, 98
1, 71124, Note_off_c, 0, 51, 58
1, 71130, Note_off_c, 0, 48, 36
1, 71132, Control_c, 0, 67, 110
1, 71139, Note_off_c, 0, 60, 54
1, 71147, Control_c, 0, 67, 117
1, 71162, Control_c, 0, 67, 123
1, 71168, Note_off_c, 0, 87, 62
1, 71171, Note_off_c, 0, 90, 64
1, 71176, Control_c, 0, 67, 127
1, 71187, Note_on_c, 0, 88, 58
1, 71188, Note_on_c, 0, 92, 65
1, 71236, Note_on_c, 0, 39, 55
1, 71238, Note_off_c, 0, 88, 62
1, 71263, Note_on_c, 0, 87, 51
1, 71264, Control_c, 0, 64, 54
1, 71269, Note_off_c, 0, 92, 63
1, 71278, Note_off_c, 0, 39, 48
1, 71304, Note_on_c, 0, 90, 48
1, 71367, Note_off_c, 0, 90, 64
1, 71372, Note_off_c, 0, 87, 61
1, 71387, Note_on_c, 0, 88, 54
1, 71391, Note_on_c, 0, 92, 64
1, 71406, Control_c, 0, 64, 53
1, 71421, Control_c, 0, 64, 53
1, 71480, Control_c, 0, 64, 52
1, 71494, Control_c, 0, 64, 51
1, 71509, Control_c, 0, 64, 50
1, 71524, Control_c, 0, 64, 50
1, 71529, Note_on_c, 0, 44, 37
1, 71539, Control_c, 0, 64, 49
1, 71554, Control_c, 0, 64, 49
1, 71561, Note_off_c, 0, 92, 58
1, 71568, Control_c, 0, 64, 48
1, 71583, Control_c, 0, 64, 46
1, 71598, Control_c, 0, 64, 42
1, 71600, Note_off_c, 0, 88, 42
1, 71613, Control_c, 0, 64, 38
1, 71627, Control_c, 0, 64, 34
1, 71639, Note_on_c, 0, 93, 62
1, 71642, Control_c, 0, 64, 28
1, 71646, Note_on_c, 0, 90, 38
1, 71657, Control_c, 0, 64, 20
1, 71672, Control_c, 0, 64, 0
1, 71758, Note_off_c, 0, 90, 57
1, 71770, Note_off_c, 0, 93, 59
1, 71786, Note_on_c, 0, 92, 55
1, 71806, Control_c, 0, 64, 20
1, 71821, Control_c, 0, 64, 28
1, 71836, Control_c, 0, 64, 34
1, 71838, Note_off_c, 0, 92, 61
1, 71840, Note_on_c, 0, 89, 22
1, 71851, Control_c, 0, 64, 39
1, 71865, Control_c, 0, 64, 45
1, 71879, Note_off_c, 0, 89, 54
1, 71880, Control_c, 0, 64, 52
1, 71895, Note_on_c, 0, 52, 49
1, 71895, Control_c, 0, 64, 55
1, 71910, Note_off_c, 0, 44, 50
1, 71910, Control_c, 0, 64, 57
1, 71912, Note_on_c, 0, 91, 42
1, 71925, Note_on_c, 0, 88, 36
1, 71925, Control_c, 0, 64, 58
1, 71940, Control_c, 0, 64, 59
1, 71960, Note_off_c, 0, 88, 52
1, 71997, Note_on_c, 0, 90, 51
1, 72002, Note_on_c, 0, 87, 58
1, 72009, Note_off_c, 0, 91, 39
1, 72034, Note_off_c, 0, 90, 51
1, 72071, Note_off_c, 0, 87, 59
1, 72100, Note_on_c, 0, 86, 59
1, 72111, Note_on_c, 0, 89, 43
1, 72125, Note_on_c, 0, 61, 39
1, 72151, Note_off_c, 0, 89, 54
1, 72157, Note_off_c, 0, 86, 58
1, 72159, Note_off_c, 0, 52, 37
1, 72169, Control_c, 0, 64, 59
1, 72173, Note_on_c, 0, 88, 58
1, 72194, Note_on_c, 0, 85, 48
1, 72199, Note_off_c, 0, 88, 60
1, 72229, Note_off_c, 0, 85, 58
1, 72244, Note_on_c, 0, 89, 60
1, 72255, Note_on_c, 0, 86, 61
1, 72256, Note_off_c, 0, 61, 51
1, 72259, Note_on_c, 0, 51, 48
1, 72301, Note_off_c, 0, 86, 56
1, 72302, Note_off_c, 0, 89, 48
1, 72309, Note_on_c, 0, 90, 74
1, 72327, Note_on_c, 0, 87, 61
1, 72351, Note_off_c, 0, 90, 55
1, 72374, Note_off_c, 0, 87, 58
1, 72377, Control_c, 0, 64, 60
1, 72388, Note_on_c, 0, 88, 69
1, 72389, Note_on_c, 0, 91, 71
1, 72406, Control_c, 0, 64, 59
1, 72412, Note_on_c, 0, 49, 54
1, 72421, Control_c, 0, 64, 58
1, 72434, Note_off_c, 0, 51, 35
1, 72436, Control_c, 0, 64, 53
1, 72450, Note_off_c, 0, 88, 63
1, 72450, Note_off_c, 0, 91, 60
1, 72450, Control_c, 0, 64, 42
1, 72455, Note_on_c, 0, 90, 70
1, 72465, Control_c, 0, 64, 27
1, 72470, Note_on_c, 0, 87, 67
1, 72480, Control_c, 0, 64, 0
1, 72502, Note_off_c, 0, 90, 63
1, 72511, Control_c, 0, 64, 11
1, 72524, Note_off_c, 0, 87, 56
1, 72526, Control_c, 0, 64, 23
1, 72534, Note_on_c, 0, 86, 71
1, 72539, Note_on_c, 0, 89, 66
1, 72541, Control_c, 0, 64, 32
1, 72555, Note_on_c, 0, 52, 64
1, 72555, Control_c, 0, 64, 39
1, 72570, Control_c, 0, 64, 46
1, 72585, Control_c, 0, 64, 52
1, 72592, Note_off_c, 0, 86, 59
1, 72598, Note_on_c, 0, 88, 64
1, 72600, Control_c, 0, 64, 56
1, 72614, Control_c, 0, 64, 58
1, 72615, Note_on_c, 0, 85, 68
1, 72618, Note_off_c, 0, 89, 61
1, 72629, Control_c, 0, 64, 59
1, 72655, Note_off_c, 0, 88, 63
1, 72659, Control_c, 0, 64, 58
1, 72676, Note_off_c, 0, 85, 60
1, 72683, Note_on_c, 0, 61, 69
1, 72689, Note_on_c, 0, 87, 34
1, 72702, Note_on_c, 0, 84, 61
1, 72706, Note_off_c, 0, 61, 68
1, 72718, Note_off_c, 0, 52, 66
1, 72721, Note_off_c, 0, 87, 49
1, 72722, Note_off_c, 0, 49, 51
1, 72737, Note_off_c, 0, 84, 63
1, 72743, Note_on_c, 0, 86, 64
1, 72747, Control_c, 0, 64, 58
1, 72751, Note_on_c, 0, 83, 57
1, 72797, Note_off_c, 0, 83, 61
1, 72826, Note_off_c, 0, 86, 57
1, 72841, Note_on_c, 0, 84, 71
1, 72845, Note_on_c, 0, 87, 59
1, 72851, Note_on_c, 0, 32, 56
1, 72858, Control_c, 0, 64, 57
1, 72873, Control_c, 0, 64, 55
1, 72888, Control_c, 0, 64, 51
1, 72897, Note_off_c, 0, 84, 58
1, 72902, Control_c, 0, 64, 43
1, 72917, Control_c, 0, 64, 30
1, 72929, Note_on_c, 0, 85, 60
1, 72931, Note_on_c, 0, 88, 50
1, 72932, Control_c, 0, 64, 0
1, 72938, Note_off_c, 0, 87, 59
1, 72960, Note_off_c, 0, 88, 57
1, 72977, Control_c, 0, 64, 8
1, 72985, Note_off_c, 0, 32, 62
1, 72985, Note_off_c, 0, 85, 65
1, 72992, Control_c, 0, 64, 22
1, 72995, Note_on_c, 0, 89, 59
1, 72997, Note_on_c, 0, 86, 64
1, 72999, Note_on_c, 0, 44, 56
1, 73007, Control_c, 0, 64, 30
1, 73021, Control_c, 0, 64, 37
1, 73036, Control_c, 0, 64, 42
1, 73040, Note_off_c, 0, 44, 63
1, 73042, Note_off_c, 0, 89, 40
1, 73051, Control_c, 0, 64, 47
1, 73052, Note_off_c, 0, 86, 62
1, 73061, Note_on_c, 0, 88, 59
1, 73065, Control_c, 0, 64, 51
1, 73069, Note_on_c, 0, 85, 70
1, 73080, Control_c, 0, 64, 53
1, 73095, Control_c, 0, 64, 55
1, 73110, Control_c, 0, 64, 56
1, 73125, Control_c, 0, 64, 56
1, 73127, Note_off_c, 0, 88, 64
1, 73143, Note_off_c, 0, 85, 64
1, 73149, Note_on_c, 0, 52, 60
1, 73163, Note_on_c, 0, 84, 52
1, 73172, Note_on_c, 0, 87, 21
1, 73185, Note_off_c, 0, 84, 60
1, 73212, Note_off_c, 0, 87, 30
1, 73215, Note_on_c, 0, 83, 69
1, 73223, Note_on_c, 0, 86, 50
1, 73249, Note_off_c, 0, 52, 65
1, 73296, Note_off_c, 0, 83, 60
1, 73298, Note_on_c, 0, 82, 67
1, 73303, Note_on_c, 0, 85, 34
1, 73305, Note_off_c, 0, 86, 36
1, 73325, Note_on_c, 0, 61, 48
1, 73335, Note_off_c, 0, 85, 51
1, 73348, Control_c, 0, 64, 56
1, 73350, Note_off_c, 0, 82, 47
1, 73369, Note_on_c, 0, 81, 69
1, 73389, Note_on_c, 0, 84, 47
1, 73407, Control_c, 0, 64, 55
1, 73415, Note_off_c, 0, 84, 58
1, 73422, Control_c, 0, 64, 55
1, 73436, Control_c, 0, 64, 54
1, 73443, Note_off_c, 0, 81, 60
1, 73451, Control_c, 0, 64, 52
1, 73458, Note_on_c, 0, 79, 62
1, 73461, Note_on_c, 0, 83, 42
1, 73463, Note_off_c, 0, 61, 60
1, 73466, Control_c, 0, 64, 51
1, 73473, Note_on_c, 0, 51, 46
1, 73482, Control_c, 0, 64, 50
1, 73496, Control_c, 0, 64, 49
1, 73511, Control_c, 0, 64, 49
1, 73516, Note_off_c, 0, 79, 62
1, 73516, Note_off_c, 0, 83, 46
1, 73526, Control_c, 0, 64, 47
1, 73540, Note_on_c, 0, 85, 62
1, 73541, Control_c, 0, 64, 45
1, 73545, Note_on_c, 0, 81, 60
1, 73556, Control_c, 0, 64, 41
1, 73578, Control_c, 0, 64, 38
1, 73593, Control_c, 0, 64, 34
1, 73598, Note_off_c, 0, 51, 57
1, 73608, Control_c, 0, 64, 30
1, 73612, Note_off_c, 0, 85, 58
1, 73622, Note_off_c, 0, 81, 61
1, 73623, Control_c, 0, 64, 26
1, 73633, Note_on_c, 0, 49, 43
1, 73638, Control_c, 0, 64, 20
1, 73642, Note_on_c, 0, 79, 61
1, 73645, Note_on_c, 0, 83, 22
1, 73652, Control_c, 0, 64, 14
1, 73667, Control_c, 0, 64, 0
1, 73684, Note_off_c, 0, 83, 56
1, 73703, Note_off_c, 0, 79, 56
1, 73712, Note_on_c, 0, 85, 48
1, 73725, Note_on_c, 0, 81, 44
1, 73765, Note_off_c, 0, 85, 57
1, 73782, Note_off_c, 0, 81, 61
1, 73785, Note_on_c, 0, 52, 51
1, 73785, Control_c, 0, 64, 17
1, 73800, Note_on_c, 0, 79, 53
1, 73800, Note_on_c, 0, 83, 23
1, 73800, Control_c, 0, 64, 24
1, 73815, Control_c, 0, 64, 30
1, 73830, Control_c, 0, 64, 34
1, 73844, Control_c, 0, 64, 38
1, 73859, Control_c, 0, 64, 42
1, 73866, Note_off_c, 0, 79, 59
1, 73874, Control_c, 0, 64, 46
1, 73876, Note_on_c, 0, 85, 61
1, 73889, Control_c, 0, 64, 50
1, 73897, Note_off_c, 0, 83, 42
1, 73901, Note_on_c, 0, 81, 51
1, 73904, Control_c, 0, 64, 52
1, 73919, Control_c, 0, 64, 54
1, 73934, Control_c, 0, 64, 54
1, 73946, Note_off_c, 0, 85, 52
1, 73949, Control_c, 0, 64, 55
1, 73952, Note_off_c, 0, 81, 57
1, 73969, Note_on_c, 0, 61, 59
1, 73989, Note_off_c, 0, 61, 64
1, 73991, Note_on_c, 0, 79, 51
1, 74014, Note_off_c, 0, 52, 58
1, 74020, Note_off_c, 0, 49, 40
1, 74031, Poly_aftertouch_c, 0, 83, 127
1, 74052, Control_c, 0, 64, 55
1, 74062, Note_on_c, 0, 85, 65
1, 74067, Control_c, 0, 64, 56
1, 74079, Note_on_c, 0, 81, 49
1, 74083, Poly_aftertouch_c, 0, 83, 0
1, 74094, Note_off_c, 0, 79, 41
1, 74119, Note_off_c, 0, 81, 46
1, 74175, Note_on_c, 0, 79, 37
1, 74178, Note_on_c, 0, 32, 50
1, 74186, Note_off_c, 0, 85, 33
1, 74201, Note_on_c, 0, 83, 33
1, 74201, Control_c, 0, 64, 55
1, 74259, Note_off_c, 0, 83, 45
1, 74260, Control_c, 0, 64, 55
1, 74274, Note_on_c, 0, 81, 56
1, 74274, Note_off_c, 0, 79, 45
1, 74276, Note_on_c, 0, 76, 55
1, 74299, Note_off_c, 0, 76, 62
1, 74334, Note_off_c, 0, 81, 60
1, 74372, Control_c, 0, 64, 54
1, 74387, Control_c, 0, 64, 53
1, 74401, Control_c, 0, 64, 51
1, 74416, Control_c, 0, 64, 46
1, 74431, Control_c, 0, 64, 39
1, 74445, Control_c, 0, 64, 28
1, 74456, Note_on_c, 0, 44, 42
1, 74458, Note_on_c, 0, 80, 49
1, 74460, Control_c, 0, 64, 0
1, 74466, Note_on_c, 0, 75, 42
1, 74533, Note_off_c, 0, 32, 62
1, 74549, Control_c, 0, 64, 20
1, 74564, Control_c, 0, 64, 32
1, 74575, Note_off_c, 0, 44, 62
1, 74579, Control_c, 0, 64, 40
1, 74583, Note_off_c, 0, 75, 62
1, 74593, Control_c, 0, 64, 47
1, 74608, Control_c, 0, 64, 54
1, 74619, Note_off_c, 0, 80, 62
1, 74623, Control_c, 0, 64, 59
1, 74638, Control_c, 0, 64, 61
1, 74652, Control_c, 0, 64, 62
1, 74709, Note_on_c, 0, 51, 54
1, 74712, Control_c, 0, 64, 62
1, 74742, Control_c, 0, 64, 63
1, 74757, Control_c, 0, 64, 64
1, 74757, Control_c, 0, 67, 102
1, 74771, Control_c, 0, 64, 64
1, 74771, Control_c, 0, 67, 73
1, 74786, Control_c, 0, 64, 65
1, 74786, Control_c, 0, 67, 48
1, 74801, Control_c, 0, 64, 66
1, 74801, Control_c, 0, 67, 29
1, 74816, Control_c, 0, 64, 67
1, 74816, Control_c, 0, 67, 13
1, 74831, Control_c, 0, 67, 0
1, 74891, Control_c, 0, 64, 67
1, 74968, Note_on_c, 0, 60, 58
1, 75037, Note_on_c, 0, 99, 81
1, 75042, Note_on_c, 0, 96, 81
1, 75145, Note_off_c, 0, 99, 65
1, 75204, Note_on_c, 0, 98, 78
1, 75209, Note_off_c, 0, 96, 46
1, 75210, Note_on_c, 0, 95, 80
1, 75245, Note_off_c, 0, 51, 36
1, 75314, Note_on_c, 0, 49, 61
1, 75317, Note_off_c, 0, 95, 63
1, 75323, Note_on_c, 0, 94, 77
1, 75326, Note_on_c, 0, 97, 77
1, 75331, Note_off_c, 0, 98, 64
1, 75335, Note_off_c, 0, 60, 53
1, 75376, Note_off_c, 0, 97, 65
1, 75392, Note_off_c, 0, 94, 65
1, 75418, Note_on_c, 0, 93, 81
1, 75418, Note_on_c, 0, 96, 78
1, 75496, Note_on_c, 0, 95, 79
1, 75502, Note_off_c, 0, 93, 63
1, 75510, Note_on_c, 0, 92, 77
1, 75512, Note_off_c, 0, 96, 58
1, 75522, Note_on_c, 0, 48, 65
1, 75535, Note_off_c, 0, 49, 52
1, 75596, Note_on_c, 0, 91, 76
1, 75597, Note_off_c, 0, 92, 66
1, 75598, Note_off_c, 0, 95, 65
1, 75606, Note_on_c, 0, 94, 60
1, 75618, Note_off_c, 0, 91, 65
1, 75626, Note_off_c, 0, 94, 63
1, 75666, Note_on_c, 0, 51, 75
1, 75672, Note_on_c, 0, 93, 76
1, 75674, Note_on_c, 0, 90, 70
1, 75736, Note_on_c, 0, 92, 62
1, 75751, Note_off_c, 0, 93, 63
1, 75752, Note_on_c, 0, 89, 69
1, 75753, Note_off_c, 0, 90, 58
1, 75775, Note_off_c, 0, 92, 63
1, 75781, Note_off_c, 0, 89, 65
1, 75831, Note_on_c, 0, 60, 68
1, 75831, Note_on_c, 0, 88, 76
1, 75834, Note_on_c, 0, 91, 72
1, 75848, Note_off_c, 0, 48, 50
1, 75858, Note_off_c, 0, 60, 68
1, 75859, Note_off_c, 0, 51, 64
1, 75898, Note_on_c, 0, 87, 78
1, 75900, Note_off_c, 0, 88, 67
1, 75901, Note_off_c, 0, 91, 61
1, 75906, Note_on_c, 0, 90, 63
1, 75936, Note_off_c, 0, 90, 69
1, 75953, Note_off_c, 0, 87, 63
1, 75973, Control_c, 0, 64, 67
1, 75977, Note_on_c, 0, 39, 69
1, 75979, Note_on_c, 0, 86, 79
1, 75982, Note_on_c, 0, 89, 73
1, 76017, Note_off_c, 0, 39, 66
1, 76032, Note_on_c, 0, 88, 73
1, 76032, Note_off_c, 0, 86, 58
1, 76044, Note_on_c, 0, 85, 78
1, 76056, Note_off_c, 0, 89, 57
1, 76077, Control_c, 0, 64, 64
1, 76091, Control_c, 0, 64, 58
1, 76106, Control_c, 0, 64, 49
1, 76116, Note_off_c, 0, 88, 65
1, 76116, Note_on_c, 0, 44, 72
1, 76121, Control_c, 0, 64, 38
1, 76125, Note_on_c, 0, 84, 68
1, 76125, Note_off_c, 0, 85, 61
1, 76136, Control_c, 0, 64, 36
1, 76142, Note_off_c, 0, 84, 68
1, 76151, Control_c, 0, 64, 38
1, 76165, Control_c, 0, 64, 43
1, 76180, Control_c, 0, 64, 51
1, 76184, Note_on_c, 0, 83, 70
1, 76192, Note_on_c, 0, 86, 68
1, 76195, Control_c, 0, 64, 56
1, 76210, Control_c, 0, 64, 59
1, 76225, Control_c, 0, 64, 60
1, 76246, Note_on_c, 0, 85, 65
1, 76249, Note_off_c, 0, 83, 62
1, 76256, Note_on_c, 0, 82, 83
1, 76256, Note_off_c, 0, 86, 61
1, 76268, Note_on_c, 0, 51, 66
1, 76269, Control_c, 0, 67, 8
1, 76275, Note_off_c, 0, 85, 68
1, 76282, Note_off_c, 0, 44, 59
1, 76310, Note_off_c, 0, 82, 63
1, 76322, Note_on_c, 0, 81, 80
1, 76330, Note_on_c, 0, 84, 70
1, 76365, Note_off_c, 0, 51, 64
1, 76381, Note_off_c, 0, 81, 61
1, 76386, Note_on_c, 0, 83, 67
1, 76387, Control_c, 0, 64, 60
1, 76388, Note_on_c, 0, 60, 76
1, 76402, Note_on_c, 0, 80, 75
1, 76402, Control_c, 0, 64, 59
1, 76408, Note_off_c, 0, 84, 60
1, 76455, Note_off_c, 0, 83, 65
1, 76457, Note_on_c, 0, 79, 76
1, 76467, Note_off_c, 0, 80, 64
1, 76472, Note_on_c, 0, 82, 56
1, 76479, Note_off_c, 0, 79, 69
1, 76492, Control_c, 0, 64, 59
1, 76494, Note_off_c, 0, 82, 65
1, 76523, Note_on_c, 0, 49, 84
1, 76531, Note_on_c, 0, 78, 79
1, 76538, Note_off_c, 0, 60, 64
1, 76550, Note_on_c, 0, 81, 61
1, 76574, Control_c, 0, 64, 58
1, 76587, Note_on_c, 0, 80, 63
1, 76589, Control_c, 0, 64, 58
1, 76589, Control_c, 0, 67, 8
1, 76590, Note_off_c, 0, 78, 66
1, 76598, Note_off_c, 0, 81, 55
1, 76604, Control_c, 0, 64, 57
1, 76604, Control_c, 0, 67, 9
1, 76606, Note_on_c, 0, 77, 77
1, 76627, Note_off_c, 0, 80, 62
1, 76647, Note_off_c, 0, 77, 53
1, 76664, Control_c, 0, 64, 56
1, 76669, Note_on_c, 0, 48, 81
1, 76671, Note_on_c, 0, 76, 74
1, 76678, Control_c, 0, 64, 53
1, 76678, Control_c, 0, 67, 9
1, 76680, Note_on_c, 0, 79, 72
1, 76693, Control_c, 0, 64, 48
1, 76700, Note_off_c, 0, 49, 61
1, 76708, Control_c, 0, 64, 38
1, 76708, Control_c, 0, 67, 10
1, 76722, Control_c, 0, 64, 24
1, 76737, Control_c, 0, 64, 0
1, 76740, Note_off_c, 0, 76, 66
1, 76742, Note_on_c, 0, 75, 76
1, 76744, Note_off_c, 0, 79, 63
1, 76750, Note_on_c, 0, 78, 61
1, 76774, Note_off_c, 0, 78, 67
1, 76785, Note_off_c, 0, 75, 56
1, 76796, Control_c, 0, 64, 19
1, 76809, Note_on_c, 0, 51, 81
1, 76811, Control_c, 0, 64, 27
1, 76819, Note_on_c, 0, 74, 68
1, 76826, Control_c, 0, 64, 34
1, 76826, Control_c, 0, 67, 9
1, 76827, Note_on_c, 0, 77, 69
1, 76840, Control_c, 0, 64, 41
1, 76855, Note_off_c, 0, 74, 58
1, 76855, Control_c, 0, 64, 46
1, 76869, Note_on_c, 0, 76, 65
1, 76870, Control_c, 0, 64, 50
1, 76870, Control_c, 0, 67, 9
1, 76880, Note_on_c, 0, 73, 76
1, 76885, Control_c, 0, 64, 53
1, 76885, Control_c, 0, 67, 9
1, 76900, Control_c, 0, 64, 55
1, 76900, Control_c, 0, 67, 10
1, 76901, Note_off_c, 0, 77, 53
1, 76915, Control_c, 0, 64, 57
1, 76942, Note_off_c, 0, 76, 65
1, 76946, Note_off_c, 0, 48, 63
1, 76955, Note_off_c, 0, 73, 63
1, 76956, Note_on_c, 0, 60, 84
1, 76974, Control_c, 0, 64, 57
1, 76975, Note_off_c, 0, 60, 72
1, 76989, Control_c, 0, 64, 58
1, 76995, Note_off_c, 0, 51, 65
1, 77004, Control_c, 0, 64, 58
1, 77013, Note_on_c, 0, 71, 54
1, 77013, Note_on_c, 0, 74, 69
1, 77048, Control_c, 0, 64, 59
1, 77048, Control_c, 0, 67, 9
1, 77063, Control_c, 0, 64, 59
1, 77063, Control_c, 0, 67, 10
1, 77078, Control_c, 0, 64, 60
1, 77079, Note_off_c, 0, 74, 65
1, 77085, Note_off_c, 0, 71, 64
1, 77088, Note_on_c, 0, 70, 73
1, 77091, Note_on_c, 0, 73, 55
1, 77093, Control_c, 0, 64, 61
1, 77093, Control_c, 0, 67, 10
1, 77099, Note_on_c, 0, 39, 76
1, 77107, Control_c, 0, 64, 61
1, 77123, Note_off_c, 0, 73, 60
1, 77137, Control_c, 0, 64, 61
1, 77137, Control_c, 0, 67, 11
1, 77150, Note_off_c, 0, 70, 59
1, 77152, Control_c, 0, 64, 59
1, 77152, Control_c, 0, 67, 12
1, 77166, Note_on_c, 0, 69, 75
1, 77167, Control_c, 0, 64, 56
1, 77167, Control_c, 0, 67, 13
1, 77182, Control_c, 0, 64, 50
1, 77182, Control_c, 0, 67, 14
1, 77183, Note_on_c, 0, 72, 56
1, 77196, Control_c, 0, 64, 40
1, 77196, Control_c, 0, 67, 15
1, 77211, Control_c, 0, 64, 24
1, 77211, Control_c, 0, 67, 15
1, 77216, Note_off_c, 0, 69, 62
1, 77226, Control_c, 0, 64, 0
1, 77226, Control_c, 0, 67, 16
1, 77228, Note_on_c, 0, 71, 62
1, 77246, Note_on_c, 0, 68, 69
1, 77254, Note_on_c, 0, 44, 74
1, 77255, Control_c, 0, 67, 16
1, 77262, Note_off_c, 0, 72, 38
1, 77270, Control_c, 0, 64, 16
1, 77286, Control_c, 0, 64, 28
1, 77286, Control_c, 0, 67, 17
1, 77298, Note_off_c, 0, 39, 65
1, 77301, Control_c, 0, 64, 37
1, 77305, Note_off_c, 0, 71, 66
1, 77307, Note_on_c, 0, 67, 68
1, 77322, Note_off_c, 0, 68, 59
1, 77323, Control_c, 0, 64, 47
1, 77323, Control_c, 0, 67, 18
1, 77338, Note_off_c, 0, 44, 62
1, 77338, Control_c, 0, 64, 55
1, 77338, Control_c, 0, 67, 20
1, 77341, Note_off_c, 0, 67, 67
1, 77348, Note_on_c, 0, 70, 12
1, 77353, Control_c, 0, 64, 61
1, 77353, Control_c, 0, 67, 25
1, 77368, Control_c, 0, 64, 65
1, 77368, Control_c, 0, 67, 31
1, 77383, Note_on_c, 0, 66, 80
1, 77383, Control_c, 0, 64, 67
1, 77383, Control_c, 0, 67, 40
1, 77393, Note_off_c, 0, 70, 52
1, 77395, Note_on_c, 0, 69, 65
1, 77398, Control_c, 0, 64, 68
1, 77398, Control_c, 0, 67, 49
1, 77412, Control_c, 0, 64, 68
1, 77412, Control_c, 0, 67, 56
1, 77427, Control_c, 0, 64, 69
1, 77427, Control_c, 0, 67, 65
1, 77433, Note_off_c, 0, 66, 65
1, 77442, Control_c, 0, 67, 75
1, 77449, Note_on_c, 0, 68, 55
1, 77457, Control_c, 0, 64, 68
1, 77457, Control_c, 0, 67, 88
1, 77457, Note_off_c, 0, 69, 62
1, 77460, Note_on_c, 0, 65, 71
1, 77471, Control_c, 0, 64, 66
1, 77471, Control_c, 0, 67, 102
1, 77481, Note_off_c, 0, 68, 62
1, 77486, Control_c, 0, 64, 62
1, 77486, Control_c, 0, 67, 119
1, 77491, Note_off_c, 0, 65, 63
1, 77501, Control_c, 0, 64, 57
1, 77501, Control_c, 0, 67, 127
1, 77516, Control_c, 0, 64, 46
1, 77519, Note_on_c, 0, 64, 70
1, 77526, Note_on_c, 0, 67, 75
1, 77531, Control_c, 0, 64, 35
1, 77545, Control_c, 0, 64, 28
1, 77560, Control_c, 0, 64, 24
1, 77575, Control_c, 0, 64, 23
1, 77584, Note_off_c, 0, 64, 61
1, 77584, Note_off_c, 0, 67, 63
1, 77586, Note_on_c, 0, 66, 63
1, 77590, Note_on_c, 0, 63, 74
1, 77590, Control_c, 0, 64, 20
1, 77605, Control_c, 0, 64, 12
1, 77619, Control_c, 0, 64, 0
1, 77624, Note_off_c, 0, 66, 64
1, 77640, Note_off_c, 0, 63, 61
1, 77663, Note_on_c, 0, 62, 70
1, 77679, Note_on_c, 0, 39, 59
1, 77679, Note_on_c, 0, 65, 57
1, 77710, Note_off_c, 0, 62, 57
1, 77715, Note_on_c, 0, 64, 62
1, 77729, Note_on_c, 0, 61, 74
1, 77749, Note_off_c, 0, 65, 60
1, 77752, Control_c, 0, 64, 14
1, 77767, Control_c, 0, 64, 32
1, 77782, Control_c, 0, 64, 44
1, 77797, Control_c, 0, 64, 58
1, 77805, Note_off_c, 0, 64, 61
1, 77811, Note_on_c, 0, 60, 68
1, 77812, Control_c, 0, 64, 67
1, 77812, Note_on_c, 0, 44, 71
1, 77825, Note_off_c, 0, 61, 45
1, 77827, Control_c, 0, 64, 72
1, 77829, Note_off_c, 0, 60, 68
1, 77842, Control_c, 0, 64, 68
1, 77844, Note_off_c, 0, 39, 64
1, 77850, Note_off_c, 0, 44, 63
1, 77856, Control_c, 0, 64, 59
1, 77871, Control_c, 0, 64, 35
1, 77875, Note_on_c, 0, 62, 66
1, 77877, Note_on_c, 0, 59, 71
1, 77886, Control_c, 0, 64, 0
1, 77916, Control_c, 0, 64, 27
1, 77930, Note_off_c, 0, 62, 62
1, 77930, Control_c, 0, 64, 39
1, 77938, Note_off_c, 0, 59, 61
1, 77945, Control_c, 0, 64, 42
1, 77949, Note_on_c, 0, 58, 72
1, 77953, Note_on_c, 0, 61, 48
1, 77960, Control_c, 0, 64, 38
1, 77975, Control_c, 0, 64, 23
1, 77979, Note_off_c, 0, 61, 57
1, 77990, Control_c, 0, 64, 0
1, 78000, Note_off_c, 0, 58, 60
1, 78013, Note_on_c, 0, 57, 70
1, 78027, Note_on_c, 0, 60, 64
1, 78077, Note_off_c, 0, 57, 62
1, 78086, Control_c, 0, 64, 11
1, 78095, Note_off_c, 0, 60, 61
1, 78095, Note_on_c, 0, 59, 55
1, 78101, Control_c, 0, 64, 31
1, 78102, Note_on_c, 0, 56, 71
1, 78116, Control_c, 0, 64, 44
1, 78131, Control_c, 0, 64, 55
1, 78141, Note_off_c, 0, 59, 62
1, 78146, Control_c, 0, 64, 60
1, 78160, Note_off_c, 0, 56, 65
1, 78161, Control_c, 0, 64, 59
1, 78176, Control_c, 0, 64, 50
1, 78191, Control_c, 0, 64, 20
1, 78205, Control_c, 0, 64, 0
1, 78220, Control_c, 0, 64, 9
1, 78226, Note_on_c, 0, 39, 55
1, 78226, Note_on_c, 0, 54, 82
1, 78235, Control_c, 0, 64, 19
1, 78248, Note_on_c, 0, 57, 56
1, 78250, Control_c, 0, 64, 23
1, 78265, Control_c, 0, 64, 19
1, 78273, Note_off_c, 0, 57, 61
1, 78280, Control_c, 0, 64, 0
1, 78283, Note_on_c, 0, 56, 52
1, 78285, Note_off_c, 0, 54, 64
1, 78307, Note_off_c, 0, 56, 61
1, 78331, Note_on_c, 0, 53, 30
1, 78354, Control_c, 0, 64, 32
1, 78366, Note_off_c, 0, 53, 52
1, 78368, Control_c, 0, 64, 38
1, 78369, Note_on_c, 0, 44, 66
1, 78375, Note_on_c, 0, 52, 56
1, 78375, Note_on_c, 0, 55, 54
1, 78383, Control_c, 0, 64, 32
1, 78385, Note_off_c, 0, 39, 59
1, 78398, Control_c, 0, 64, 0
1, 78422, Note_off_c, 0, 55, 50
1, 78425, Note_off_c, 0, 52, 64
1, 78459, Note_on_c, 0, 51, 64
1, 78469, Note_on_c, 0, 54, 22
1, 78486, Control_c, 0, 64, 14
1, 78501, Control_c, 0, 64, 14
1, 78510, Note_off_c, 0, 51, 64
1, 78515, Note_off_c, 0, 54, 28
1, 78516, Control_c, 0, 64, 0
1, 78536, Note_on_c, 0, 50, 54
1, 78539, Note_on_c, 0, 53, 47
1, 78561, Note_off_c, 0, 44, 61
1, 78569, Note_off_c, 0, 53, 56
1, 78577, Note_off_c, 0, 50, 64
1, 78594, Note_on_c, 0, 52, 64
1, 78617, Note_on_c, 0, 49, 57
1, 78639, Note_off_c, 0, 52, 60
1, 78665, Note_off_c, 0, 49, 65
1, 78681, Note_on_c, 0, 51, 57
1, 78697, Note_on_c, 0, 48, 51
1, 78751, Note_off_c, 0, 48, 61
1, 78772, Note_on_c, 0, 52, 37
1, 78782, Note_on_c, 0, 49, 50
1, 78790, Note_off_c, 0, 51, 29
1, 78823, Note_off_c, 0, 52, 63
1, 78832, Note_off_c, 0, 49, 66
1, 78849, Note_on_c, 0, 51, 42
1, 78858, Note_on_c, 0, 48, 39
1, 78911, Note_off_c, 0, 48, 60
1, 78915, Note_off_c, 0, 51, 62
1, 78934, Note_on_c, 0, 49, 54
1, 78947, Note_on_c, 0, 52, 39
1, 78993, Note_off_c, 0, 52, 60
1, 79001, Note_off_c, 0, 49, 60
1, 79025, Note_on_c, 0, 48, 43
1, 79040, Note_on_c, 0, 32, 49
1, 79040, Note_on_c, 0, 44, 43
1, 79045, Note_on_c, 0, 51, 51
1, 79070, Note_off_c, 0, 44, 58
1, 79073, Note_off_c, 0, 32, 60
1, 79088, Note_off_c, 0, 48, 62
1, 79090, Note_off_c, 0, 51, 65
1, 79124, Note_on_c, 0, 49, 56
1, 79134, Note_on_c, 0, 52, 18
1, 79175, Note_off_c, 0, 52, 57
1, 79187, Note_off_c, 0, 49, 61
1, 79224, Note_on_c, 0, 48, 39
1, 79227, Note_on_c, 0, 51, 37
1, 79282, Note_off_c, 0, 48, 60
1, 79289, Note_off_c, 0, 51, 63
1, 79323, Note_on_c, 0, 49, 41
1, 79326, Note_on_c, 0, 52, 26
1, 79400, Note_off_c, 0, 52, 50
1, 79410, Note_off_c, 0, 49, 58
1, 79441, Note_on_c, 0, 32, 40
1, 79443, Note_on_c, 0, 44, 35
1, 79443, Note_on_c, 0, 51, 31
1, 79453, Note_on_c, 0, 48, 22
1, 79486, Note_off_c, 0, 44, 51
1, 79489, Note_off_c, 0, 32, 57
1, 79529, Note_off_c, 0, 51, 58
1, 79536, Note_off_c, 0, 48, 49
1, 79571, Note_on_c, 0, 52, 25
1, 79580, Note_on_c, 0, 49, 33
1, 79693, Note_off_c, 0, 52, 42
1, 79714, Note_off_c, 0, 49, 50
1, 79730, Note_on_c, 0, 48, 15
1, 79740, Note_on_c, 0, 51, 28
1, 79855, Note_off_c, 0, 51, 54
1, 79867, Note_off_c, 0, 48, 51
1, 79880, Note_on_c, 0, 49, 14
1, 79886, Note_on_c, 0, 52, 40
1, 80098, Note_off_c, 0, 52, 33
1, 80133, Note_on_c, 0, 51, 32
1, 80136, Note_on_c, 0, 44, 21
1, 80137, Note_on_c, 0, 32, 20
1, 80158, Note_off_c, 0, 49, 46
1, 80158, Note_on_c, 0, 48, 15
1, 80266, Control_c, 0, 64, 19
1, 80281, Control_c, 0, 64, 32
1, 80296, Control_c, 0, 64, 41
1, 80319, Control_c, 0, 64, 51
1, 80334, Control_c, 0, 64, 57
1, 80348, Control_c, 0, 64, 60
1, 80363, Control_c, 0, 64, 61
1, 80370, Note_off_c, 0, 48, 41
1, 80374, Note_off_c, 0, 51, 44
1, 80378, Control_c, 0, 64, 61
1, 80396, Note_off_c, 0, 44, 53
1, 80409, Note_off_c, 0, 32, 41
1, 80556, Control_c, 0, 64, 62
1, 80630, Control_c, 0, 64, 61
1, 80645, Control_c, 0, 64, 60
1, 80660, Control_c, 0, 64, 57
1, 80675, Control_c, 0, 64, 51
1, 80689, Control_c, 0, 64, 44
1, 80704, Control_c, 0, 64, 38
1, 80719, Control_c, 0, 64, 34
1, 80734, Control_c, 0, 64, 32
1, 80749, Control_c, 0, 64, 28
1, 80763, Control_c, 0, 64, 24
1, 80778, Control_c, 0, 64, 18
1, 80793, Control_c, 0, 64, 12
1, 80808, Control_c, 0, 64, 0
1, 81141, Note_on_c, 0, 58, 58
1, 81153, Note_on_c, 0, 56, 49
1, 81162, Note_on_c, 0, 44, 37
1, 81164, Note_on_c, 0, 52, 48
1, 81167, Note_on_c, 0, 37, 29
1, 81229, Control_c, 0, 67, 123
1, 81244, Control_c, 0, 67, 113
1, 81259, Control_c, 0, 67, 107
1, 81274, Control_c, 0, 67, 103
1, 81290, Control_c, 0, 67, 98
1, 81305, Control_c, 0, 67, 89
1, 81319, Control_c, 0, 64, 12
1, 81319, Control_c, 0, 67, 75
1, 81334, Control_c, 0, 64, 22
1, 81334, Control_c, 0, 67, 63
1, 81349, Control_c, 0, 64, 28
1, 81349, Control_c, 0, 67, 54
1, 81364, Control_c, 0, 64, 33
1, 81364, Control_c, 0, 67, 47
1, 81378, Control_c, 0, 64, 38
1, 81378, Control_c, 0, 67, 41
1, 81393, Control_c, 0, 64, 44
1, 81393, Control_c, 0, 67, 33
1, 81408, Control_c, 0, 64, 50
1, 81408, Control_c, 0, 67, 26
1, 81423, Control_c, 0, 64, 55
1, 81423, Control_c, 0, 67, 20
1, 81437, Control_c, 0, 64, 58
1, 81437, Control_c, 0, 67, 19
1, 81452, Control_c, 0, 64, 60
1, 81467, Control_c, 0, 64, 62
1, 81482, Control_c, 0, 64, 62
1, 81497, Control_c, 0, 64, 63
1, 81511, Control_c, 0, 64, 64
1, 81526, Control_c, 0, 64, 65
1, 81541, Control_c, 0, 64, 66
1, 81556, Control_c, 0, 64, 67
1, 81571, Control_c, 0, 64, 68
1, 81586, Control_c, 0, 64, 69
1, 81599, Note_off_c, 0, 44, 34
1, 81601, Control_c, 0, 64, 70
1, 81616, Control_c, 0, 64, 71
1, 81616, Control_c, 0, 67, 19
1, 81630, Control_c, 0, 64, 72
1, 81630, Control_c, 0, 67, 20
1, 81645, Control_c, 0, 64, 73
1, 81648, Note_off_c, 0, 52, 65
1, 81660, Control_c, 0, 64, 75
1, 81675, Control_c, 0, 64, 77
1, 81690, Control_c, 0, 64, 78
1, 81690, Control_c, 0, 67, 20
1, 81704, Control_c, 0, 64, 79
1, 81719, Control_c, 0, 64, 79
1, 81719, Control_c, 0, 67, 21
1, 81734, Control_c, 0, 67, 21
1, 81749, Control_c, 0, 64, 80
1, 81749, Control_c, 0, 67, 22
1, 81764, Control_c, 0, 64, 81
1, 81764, Control_c, 0, 67, 22
1, 81778, Control_c, 0, 64, 81
1, 81778, Control_c, 0, 67, 23
1, 81793, Control_c, 0, 67, 24
1, 81815, Control_c, 0, 67, 25
1, 81830, Control_c, 0, 67, 27
1, 81845, Control_c, 0, 67, 28
1, 81860, Control_c, 0, 67, 30
1, 81875, Control_c, 0, 67, 31
1, 81890, Control_c, 0, 67, 33
1, 81904, Control_c, 0, 67, 37
1, 81919, Control_c, 0, 67, 44
1, 81934, Control_c, 0, 67, 54
1, 81949, Control_c, 0, 67, 62
1, 81964, Control_c, 0, 67, 69
1, 81978, Control_c, 0, 67, 77
1, 81993, Control_c, 0, 67, 85
1, 82008, Control_c, 0, 67, 94
1, 82023, Control_c, 0, 67, 104
1, 82037, Control_c, 0, 64, 81
1, 82037, Control_c, 0, 67, 112
1, 82052, Control_c, 0, 64, 80
1, 82052, Control_c, 0, 67, 119
1, 82067, Control_c, 0, 64, 80
1, 82067, Control_c, 0, 67, 126
1, 82083, Control_c, 0, 64, 79
1, 82083, Control_c, 0, 67, 127
1, 82098, Control_c, 0, 64, 78
1, 82113, Control_c, 0, 64, 76
1, 82127, Control_c, 0, 64, 75
1, 82142, Control_c, 0, 64, 74
1, 82157, Control_c, 0, 64, 72
1, 82172, Control_c, 0, 64, 70
1, 82187, Control_c, 0, 64, 67
1, 82194, Note_on_c, 0, 44, 30
1, 82198, Note_on_c, 0, 60, 49
1, 82200, Note_on_c, 0, 51, 37
1, 82202, Control_c, 0, 64, 64
1, 82216, Note_on_c, 0, 32, 25
1, 82216, Control_c, 0, 64, 62
1, 82231, Control_c, 0, 64, 59
1, 82246, Control_c, 0, 64, 55
1, 82260, Control_c, 0, 64, 51
1, 82275, Control_c, 0, 64, 46
1, 82290, Control_c, 0, 64, 40
1, 82305, Control_c, 0, 64, 33
1, 82320, Control_c, 0, 64, 23
1, 82328, Note_off_c, 0, 37, 35
1, 82334, Control_c, 0, 64, 0
1, 82375, Note_off_c, 0, 58, 41
1, 82468, Control_c, 0, 64, 19
1, 82483, Control_c, 0, 64, 33
1, 82498, Control_c, 0, 64, 42
1, 82513, Control_c, 0, 64, 51
1, 82527, Control_c, 0, 64, 57
1, 82542, Control_c, 0, 64, 61
1, 82564, Control_c, 0, 64, 62
1, 82578, Control_c, 0, 64, 63
1, 82623, Control_c, 0, 64, 63
1, 82626, Note_off_c, 0, 60, 50
1, 82638, Note_off_c, 0, 32, 48
1, 82684, Note_off_c, 0, 51, 54
1, 82704, Note_off_c, 0, 56, 59
1, 82786, Control_c, 0, 64, 63
1, 82805, Note_off_c, 0, 44, 38
1, 82816, Control_c, 0, 64, 62
1, 82831, Control_c, 0, 64, 61
1, 82846, Control_c, 0, 64, 60
1, 82860, Control_c, 0, 64, 56
1, 82876, Control_c, 0, 64, 52
1, 82891, Control_c, 0, 64, 47
1, 82891, Control_c, 0, 67, 125
1, 82906, Control_c, 0, 64, 42
1, 82906, Control_c, 0, 67, 118
1, 82921, Control_c, 0, 64, 36
1, 82921, Control_c, 0, 67, 111
1, 82936, Control_c, 0, 64, 31
1, 82936, Control_c, 0, 67, 100
1, 82950, Control_c, 0, 64, 27
1, 82950, Control_c, 0, 67, 90
1, 82965, Control_c, 0, 64, 18
1, 82965, Control_c, 0, 67, 80
1, 82980, Control_c, 0, 64, 0
1, 82980, Control_c, 0, 67, 70
1, 82995, Control_c, 0, 67, 60
1, 83010, Control_c, 0, 67, 50
1, 83025, Control_c, 0, 67, 38
1, 83039, Control_c, 0, 67, 23
1, 83054, Control_c, 0, 67, 11
1, 83069, Control_c, 0, 67, 0
1, 83157, Control_c, 0, 64, 16
1, 83165, Note_on_c, 0, 39, 52
1, 83172, Control_c, 0, 64, 24
1, 83187, Control_c, 0, 64, 32
1, 83201, Control_c, 0, 64, 40
1, 83216, Control_c, 0, 64, 49
1, 83231, Control_c, 0, 64, 56
1, 83243, Note_off_c, 0, 39, 65
1, 83246, Control_c, 0, 64, 61
1, 83261, Control_c, 0, 64, 63
1, 83276, Control_c, 0, 64, 64
1, 83291, Control_c, 0, 64, 65
1, 83313, Control_c, 0, 64, 65
1, 83323, Note_on_c, 0, 55, 57
1, 83328, Control_c, 0, 64, 66
1, 83343, Control_c, 0, 64, 66
1, 83357, Control_c, 0, 64, 67
1, 83372, Control_c, 0, 64, 68
1, 83387, Control_c, 0, 64, 69
1, 83402, Control_c, 0, 64, 69
1, 83425, Note_on_c, 0, 61, 67
1, 83476, Control_c, 0, 64, 70
1, 83533, Note_on_c, 0, 63, 77
1, 83565, Control_c, 0, 64, 70
1, 83744, Control_c, 0, 64, 71
1, 83788, Control_c, 0, 64, 71
1, 83803, Note_on_c, 0, 70, 72
1, 83862, Control_c, 0, 64, 72
1, 83908, Note_off_c, 0, 63, 61
1, 83921, Control_c, 0, 64, 72
1, 83951, Control_c, 0, 64, 73
1, 83979, Control_c, 0, 64, 73
1, 83994, Control_c, 0, 64, 74
1, 84024, Control_c, 0, 64, 74
1, 84061, Control_c, 0, 64, 75
1, 84076, Control_c, 0, 64, 75
1, 84105, Control_c, 0, 64, 76
1, 84149, Note_off_c, 0, 55, 60
1, 84165, Control_c, 0, 64, 76
1, 84209, Control_c, 0, 64, 77
1, 84254, Control_c, 0, 64, 77
1, 84269, Control_c, 0, 64, 78
1, 84284, Control_c, 0, 64, 78
1, 84298, Control_c, 0, 64, 79
1, 84372, Control_c, 0, 64, 79
1, 84424, Note_off_c, 0, 61, 38
1, 84431, Control_c, 0, 64, 80
1, 86226, Control_c, 0, 64, 79
1, 86308, Control_c, 0, 64, 79
1, 86367, Control_c, 0, 64, 78
1, 86382, Control_c, 0, 64, 78
1, 86397, Control_c, 0, 64, 77
1, 86412, Control_c, 0, 64, 75
1, 86424, Note_on_c, 0, 72, 50
1, 86426, Control_c, 0, 64, 73
1, 86441, Control_c, 0, 64, 70
1, 86443, Note_on_c, 0, 51, 34
1, 86445, Note_on_c, 0, 44, 30
1, 86448, Note_on_c, 0, 60, 32
1, 86451, Note_on_c, 0, 56, 30
1, 86456, Note_on_c, 0, 63, 37
1, 86456, Control_c, 0, 64, 66
1, 86471, Control_c, 0, 64, 63
1, 86486, Control_c, 0, 64, 60
1, 86500, Control_c, 0, 64, 54
1, 86510, Note_off_c, 0, 63, 0
1, 86510, Note_on_c, 0, 63, 13
1, 86515, Control_c, 0, 64, 48
1, 86530, Control_c, 0, 64, 41
1, 86544, Control_c, 0, 64, 34
1, 86559, Control_c, 0, 64, 27
1, 86574, Control_c, 0, 64, 20
1, 86586, Note_off_c, 0, 70, 50
1, 86589, Control_c, 0, 64, 8
1, 86604, Control_c, 0, 64, 0
1, 87116, Control_c, 0, 64, 15
1, 87130, Control_c, 0, 64, 24
1, 87145, Control_c, 0, 64, 31
1, 87160, Control_c, 0, 64, 37
1, 87175, Control_c, 0, 64, 45
1, 87190, Control_c, 0, 64, 52
1, 87205, Control_c, 0, 64, 56
1, 87220, Control_c, 0, 64, 59
1, 87235, Control_c, 0, 64, 61
1, 87249, Control_c, 0, 64, 62
1, 87264, Control_c, 0, 64, 64
1, 87279, Control_c, 0, 64, 65
1, 87294, Control_c, 0, 64, 67
1, 87309, Control_c, 0, 64, 69
1, 87323, Control_c, 0, 64, 71
1, 87338, Control_c, 0, 64, 72
1, 87353, Control_c, 0, 64, 74
1, 87367, Control_c, 0, 64, 75
1, 87382, Control_c, 0, 64, 76
1, 87412, Control_c, 0, 64, 76
1, 87427, Control_c, 0, 64, 77
1, 87441, Control_c, 0, 64, 78
1, 87456, Control_c, 0, 64, 79
1, 87471, Control_c, 0, 64, 80
1, 87501, Control_c, 0, 64, 80
1, 87530, Control_c, 0, 64, 81
1, 87545, Control_c, 0, 64, 81
1, 88013, Control_c, 0, 64, 81
1, 88028, Control_c, 0, 64, 80
1, 88042, Control_c, 0, 64, 79
1, 88057, Control_c, 0, 64, 79
1, 88072, Control_c, 0, 64, 78
1, 88087, Control_c, 0, 64, 78
1, 88102, Control_c, 0, 64, 77
1, 88117, Control_c, 0, 64, 76
1, 88132, Control_c, 0, 64, 75
1, 88146, Control_c, 0, 64, 74
1, 88161, Control_c, 0, 64, 74
1, 88190, Control_c, 0, 64, 73
1, 88220, Control_c, 0, 64, 72
1, 88250, Control_c, 0, 64, 72
1, 88279, Control_c, 0, 64, 71
1, 88309, Control_c, 0, 64, 71
1, 88353, Control_c, 0, 64, 70
1, 88442, Control_c, 0, 64, 70
1, 88473, Control_c, 0, 67, 9
1, 88487, Control_c, 0, 64, 69
1, 88487, Control_c, 0, 67, 11
1, 88502, Control_c, 0, 67, 13
1, 88517, Control_c, 0, 67, 14
1, 88532, Control_c, 0, 67, 15
1, 88555, Control_c, 0, 64, 69
1, 88555, Control_c, 0, 67, 17
1, 88569, Control_c, 0, 67, 19
1, 88584, Control_c, 0, 67, 20
1, 88628, Control_c, 0, 67, 21
1, 88747, Control_c, 0, 64, 68
1, 88791, Control_c, 0, 64, 68
1, 88806, Control_c, 0, 67, 22
1, 88835, Control_c, 0, 64, 67
1, 88895, Control_c, 0, 64, 67
1, 88969, Control_c, 0, 64, 66
1, 89026, Note_off_c, 0, 56, 31
1, 89028, Control_c, 0, 64, 66
1, 89073, Control_c, 0, 64, 65
1, 89111, Note_off_c, 0, 60, 16
1, 89210, Note_off_c, 0, 44, 32
1, 89327, Note_off_c, 0, 63, 24
1, 89331, Note_off_c, 0, 72, 26
1, 89333, Control_c, 0, 64, 65
1, 89377, Control_c, 0, 64, 64
1, 89437, Control_c, 0, 64, 64
1, 89496, Control_c, 0, 64, 63
1, 89540, Control_c, 0, 64, 63
1, 89614, Control_c, 0, 64, 62
1, 89643, Control_c, 0, 67, 21
1, 89658, Control_c, 0, 64, 62
1, 89703, Control_c, 0, 64, 61
1, 89709, Note_off_c, 0, 51, 35
1, 89733, Control_c, 0, 64, 61
1, 89762, Control_c, 0, 64, 60
1, 89807, Control_c, 0, 64, 60
1, 89851, Control_c, 0, 64, 59
1, 89881, Control_c, 0, 64, 59
1, 89940, Control_c, 0, 64, 58
1, 89969, Control_c, 0, 64, 58
1, 90014, Control_c, 0, 64, 57
1, 90029, Control_c, 0, 64, 57
1, 90066, Control_c, 0, 64, 56
1, 90081, Control_c, 0, 64, 56
1, 90096, Control_c, 0, 64, 55
1, 90111, Control_c, 0, 64, 55
1, 90141, Control_c, 0, 64, 54
1, 90171, Control_c, 0, 64, 53
1, 90186, Control_c, 0, 64, 52
1, 90200, Control_c, 0, 64, 51
1, 90215, Control_c, 0, 64, 51
1, 90230, Control_c, 0, 64, 50
1, 90245, Control_c, 0, 64, 50
1, 90260, Control_c, 0, 64, 49
1, 90274, Control_c, 0, 64, 48
1, 90289, Control_c, 0, 64, 47
1, 90289, Control_c, 0, 67, 21
1, 90304, Control_c, 0, 64, 46
1, 90319, Control_c, 0, 64, 45
1, 90334, Control_c, 0, 64, 43
1, 90348, Control_c, 0, 64, 41
1, 90363, Control_c, 0, 64, 39
1, 90363, Control_c, 0, 67, 20
1, 90378, Control_c, 0, 64, 37
1, 90392, Control_c, 0, 64, 36
1, 90407, Control_c, 0, 64, 33
1, 90422, Control_c, 0, 64, 29
1, 90422, Control_c, 0, 67, 20
1, 90437, Control_c, 0, 64, 27
1, 90452, Control_c, 0, 64, 25
1, 90466, Control_c, 0, 64, 22
1, 90481, Control_c, 0, 64, 19
1, 90496, Control_c, 0, 64, 14
1, 90496, Control_c, 0, 67, 19
1, 90511, Control_c, 0, 64, 0
1, 90540, Control_c, 0, 67, 18
1, 90555, Control_c, 0, 67, 17
1, 90585, Control_c, 0, 67, 16
1, 90600, Control_c, 0, 67, 16
1, 90615, Control_c, 0, 67, 15
1, 90630, Control_c, 0, 67, 15
1, 90645, Control_c, 0, 67, 13
1, 90660, Control_c, 0, 67, 13
1, 90674, Control_c, 0, 67, 12
1, 90689, Control_c, 0, 67, 11
1, 90704, Control_c, 0, 67, 10
1, 90719, Control_c, 0, 67, 9
1, 90734, Control_c, 0, 67, 8
1, 90749, Control_c, 0, 67, 0
1, 90824, End_track
0, 0, End_of_file
