0, 0, Header, 0, 1, 384
1, 0, Start_track
1, 0, Title_t, "La Campanella, by Liszt--Leeza Ali "
1, 0, Text_t, "2008 e-Piano Junior Competition virtual audition round"
1, 0, Text_t, "recorded January and February 2008"
1, 0, Text_t, "http://www.piano-e-competition.com/"
1, 0, Text_t, "File processed for distribution by software from Zenph Studios, Inc., http://www.zenph.com"
1, 0, Instrument_name_t, "Yamaha Disklavier Pro Mark IV concert grand piano, model DCFIIISM4PRO"
1, 0, Sequencer_specific, 39, 67, 113, 0, 1, 0, 1, 0, 76, 97, 32, 67, 97, 109, 112, 97, 110, 101, 108, 108, 97, 32, 32, 32, 76, 101, 101, 122, 97, 32, 65, 108, 105, 32, 32, 32, 32, 32, 32, 32
1, 0, Sequencer_specific, 6, 67, 113, 0, 0, 0, 69
1, 0, System_exclusive, 21, 67, 113, 126, 21, 0, 2, 2, 1, 9, 14, 1, 4, 0, 14, 13, 0, 10, 7, 14, 3, 247
1, 0, Sequencer_specific, 5, 67, 123, 12, 2, 1
1, 0, Tempo, 512820
1, 0, Time_signature, 4, 2, 24, 8
1, 0, System_exclusive, 5, 126, 127, 9, 1, 247
1, 1, System_exclusive, 8, 67, 16, 76, 0, 0, 126, 0, 247
1, 2, System_exclusive, 8, 67, 16, 76, 8, 9, 7, 1, 247
1, 3, Control_c, 0, 0, 0
1, 3, Control_c, 1, 0, 0
1, 3, Control_c, 2, 0, 0
1, 3, Control_c, 3, 0, 0
1, 3, Control_c, 4, 0, 0
1, 3, Control_c, 5, 0, 0
1, 3, Control_c, 6, 0, 0
1, 3, Control_c, 7, 0, 0
1, 3, Control_c, 8, 0, 0
1, 3, Control_c, 9, 0, 127
1, 3, Control_c, 10, 0, 0
1, 3, Control_c, 11, 0, 0
1, 3, Control_c, 12, 0, 0
1, 3, Control_c, 13, 0, 0
1, 3, Control_c, 14, 0, 0
1, 3, Control_c, 15, 0, 0
1, 4, Control_c, 0, 32, 0
1, 4, Control_c, 1, 32, 0
1, 4, Control_c, 2, 32, 0
1, 4, Control_c, 3, 32, 0
1, 4, Control_c, 4, 32, 0
1, 4, Control_c, 5, 32, 0
1, 4, Control_c, 6, 32, 0
1, 4, Control_c, 7, 32, 0
1, 4, Control_c, 8, 32, 0
1, 4, Control_c, 9, 32, 0
1, 4, Control_c, 10, 32, 0
1, 4, Control_c, 11, 32, 0
1, 4, Control_c, 12, 32, 0
1, 4, Control_c, 13, 32, 0
1, 4, Control_c, 14, 32, 0
1, 4, Control_c, 15, 32, 0
1, 5, Program_c, 0, 0
1, 5, Program_c, 1, 0
1, 5, Program_c, 2, 0
1, 5, Program_c, 3, 0
1, 5, Program_c, 4, 0
1, 5, Program_c, 5, 0
1, 5, Program_c, 6, 0
1, 5, Program_c, 7, 0
1, 5, Program_c, 8, 0
1, 5, Program_c, 9, 0
1, 5, Program_c, 10, 0
1, 5, Program_c, 11, 0
1, 5, Program_c, 12, 0
1, 5, Program_c, 13, 0
1, 5, Program_c, 14, 0
1, 5, Program_c, 15, 0
1, 6, Control_c, 0, 7, 100
1, 117, Control_c, 0, 67, 13
1, 229, Control_c, 0, 67, 27
1, 341, Control_c, 0, 67, 40
1, 452, Control_c, 0, 67, 55
1, 564, Control_c, 0, 67, 67
1, 676, Control_c, 0, 67, 82
1, 787, Control_c, 0, 67, 94
1, 899, Control_c, 0, 67, 111
1, 899, Control_c, 1, 7, 100
1, 899, Control_c, 2, 7, 100
1, 899, Control_c, 3, 7, 100
1, 899, Control_c, 4, 7, 100
1, 899, Control_c, 5, 7, 100
1, 899, Control_c, 6, 7, 100
1, 899, Control_c, 7, 7, 100
1, 899, Control_c, 8, 7, 100
1, 899, Control_c, 9, 7, 100
1, 899, Control_c, 10, 7, 100
1, 899, Control_c, 11, 7, 100
1, 899, Control_c, 12, 7, 100
1, 899, Control_c, 13, 7, 100
1, 899, Control_c, 14, 7, 100
1, 899, Control_c, 15, 7, 100
1, 1133, Control_c, 0, 64, 72
1, 1135, Note_on_c, 0, 75, 33
1, 1139, Note_on_c, 0, 63, 27
1, 1148, Control_c, 0, 64, 75
1, 1148, Control_c, 0, 67, 110
1, 1163, Control_c, 0, 64, 78
1, 1177, Control_c, 0, 64, 80
1, 1192, Control_c, 0, 64, 82
1, 1197, Note_off_c, 0, 63, 41
1, 1201, Note_off_c, 0, 75, 53
1, 1207, Control_c, 0, 64, 84
1, 1222, Control_c, 0, 64, 85
1, 1245, Control_c, 0, 64, 86
1, 1259, Control_c, 0, 64, 86
1, 1289, Control_c, 0, 64, 87
1, 1379, Note_on_c, 0, 75, 45
1, 1400, Note_on_c, 0, 63, 34
1, 1432, Note_off_c, 0, 75, 54
1, 1444, Note_off_c, 0, 63, 45
1, 1615, Control_c, 0, 64, 86
1, 1615, Control_c, 0, 67, 111
1, 1630, Control_c, 0, 64, 82
1, 1641, Note_on_c, 0, 75, 42
1, 1645, Control_c, 0, 64, 76
1, 1660, Control_c, 0, 64, 66
1, 1661, Note_on_c, 0, 63, 25
1, 1674, Control_c, 0, 64, 54
1, 1689, Control_c, 0, 64, 42
1, 1704, Control_c, 0, 64, 40
1, 1719, Control_c, 0, 64, 44
1, 1734, Control_c, 0, 64, 55
1, 1749, Control_c, 0, 64, 63
1, 1764, Control_c, 0, 64, 69
1, 1779, Control_c, 0, 64, 74
1, 1794, Control_c, 0, 64, 78
1, 1808, Control_c, 0, 64, 79
1, 1823, Control_c, 0, 64, 80
1, 1838, Control_c, 0, 64, 81
1, 1853, Control_c, 0, 64, 82
1, 1853, Control_c, 0, 67, 110
1, 1868, Control_c, 0, 64, 84
1, 1878, Note_on_c, 0, 99, 60
1, 1882, Control_c, 0, 64, 85
1, 1887, Note_on_c, 0, 87, 43
1, 1897, Control_c, 0, 64, 85
1, 1912, Control_c, 0, 64, 86
1, 1917, Note_off_c, 0, 87, 51
1, 1931, Note_off_c, 0, 99, 48
1, 2120, Note_on_c, 0, 99, 72
1, 2128, Note_on_c, 0, 87, 51
1, 2159, Note_off_c, 0, 87, 50
1, 2172, Control_c, 0, 64, 86
1, 2172, Control_c, 0, 67, 110
1, 2196, Note_off_c, 0, 99, 57
1, 2220, Note_off_c, 0, 63, 35
1, 2241, Note_off_c, 0, 75, 25
1, 2360, Note_on_c, 0, 99, 73
1, 2365, Note_on_c, 0, 87, 55
1, 2406, Note_off_c, 0, 87, 56
1, 2434, Note_off_c, 0, 99, 55
1, 2586, Control_c, 0, 67, 109
1, 2610, Note_on_c, 0, 75, 34
1, 2622, Note_on_c, 0, 63, 24
1, 2664, Note_off_c, 0, 63, 47
1, 2664, Note_off_c, 0, 75, 42
1, 2816, Control_c, 0, 67, 109
1, 2876, Note_on_c, 0, 63, 34
1, 2883, Note_on_c, 0, 75, 29
1, 2906, Control_c, 0, 67, 108
1, 2929, Note_off_c, 0, 75, 44
1, 2930, Note_off_c, 0, 63, 41
1, 2980, Control_c, 0, 67, 108
1, 3054, Control_c, 0, 67, 107
1, 3149, Note_on_c, 0, 75, 30
1, 3159, Note_on_c, 0, 63, 22
1, 3174, Control_c, 0, 67, 107
1, 3211, Note_off_c, 0, 63, 43
1, 3225, Note_off_c, 0, 75, 34
1, 3262, Control_c, 0, 67, 106
1, 3392, Note_on_c, 0, 99, 52
1, 3408, Note_on_c, 0, 87, 31
1, 3425, Control_c, 0, 67, 106
1, 3442, Note_off_c, 0, 99, 54
1, 3448, Note_off_c, 0, 87, 46
1, 3580, Control_c, 0, 67, 105
1, 3627, Note_on_c, 0, 99, 68
1, 3639, Note_on_c, 0, 87, 53
1, 3677, Note_off_c, 0, 87, 46
1, 3704, Note_off_c, 0, 99, 59
1, 3774, Control_c, 0, 67, 105
1, 3861, Note_on_c, 0, 99, 76
1, 3875, Note_on_c, 0, 87, 51
1, 3907, Control_c, 0, 67, 104
1, 3912, Note_off_c, 0, 87, 49
1, 3958, Note_off_c, 0, 99, 54
1, 3966, Control_c, 0, 67, 104
1, 4010, Control_c, 0, 67, 103
1, 4092, Note_on_c, 0, 75, 35
1, 4106, Note_on_c, 0, 63, 27
1, 4156, Note_off_c, 0, 63, 43
1, 4171, Note_off_c, 0, 75, 51
1, 4173, Control_c, 0, 67, 103
1, 4332, Note_on_c, 0, 99, 59
1, 4344, Note_on_c, 0, 87, 45
1, 4395, Note_off_c, 0, 87, 43
1, 4411, Note_off_c, 0, 99, 52
1, 4432, Control_c, 0, 67, 103
1, 4586, Note_on_c, 0, 99, 57
1, 4599, Note_on_c, 0, 87, 45
1, 4656, Note_off_c, 0, 87, 41
1, 4658, Note_off_c, 0, 99, 56
1, 4789, Control_c, 0, 67, 103
1, 4878, Note_on_c, 0, 63, 35
1, 4882, Note_on_c, 0, 75, 31
1, 4939, Note_off_c, 0, 63, 39
1, 4983, Note_off_c, 0, 75, 37
1, 5122, Control_c, 0, 67, 102
1, 5151, Control_c, 0, 67, 102
1, 5164, Note_on_c, 0, 99, 47
1, 5180, Note_on_c, 0, 87, 35
1, 5181, Control_c, 0, 67, 101
1, 5211, Control_c, 0, 67, 101
1, 5225, Control_c, 0, 67, 100
1, 5229, Note_off_c, 0, 87, 42
1, 5239, Note_off_c, 0, 99, 53
1, 5389, Control_c, 0, 67, 100
1, 5553, Note_on_c, 0, 87, 38
1, 5559, Note_on_c, 0, 99, 37
1, 5597, Control_c, 0, 67, 99
1, 5615, Note_off_c, 0, 99, 46
1, 5621, Note_off_c, 0, 87, 36
1, 5856, Control_c, 0, 67, 99
1, 5900, Control_c, 0, 67, 98
1, 5915, Control_c, 0, 67, 98
1, 5930, Control_c, 0, 67, 96
1, 5945, Control_c, 0, 67, 93
1, 5960, Control_c, 0, 67, 90
1, 5974, Control_c, 0, 67, 86
1, 5989, Control_c, 0, 64, 86
1, 5989, Control_c, 0, 67, 81
1, 6004, Control_c, 0, 67, 76
1, 6019, Control_c, 0, 67, 73
1, 6033, Control_c, 0, 67, 70
1, 6048, Control_c, 0, 67, 69
1, 6063, Control_c, 0, 67, 69
1, 6183, Control_c, 0, 64, 85
1, 6242, Control_c, 0, 64, 85
1, 6242, Control_c, 0, 67, 69
1, 6257, Control_c, 0, 64, 84
1, 6271, Control_c, 0, 64, 84
1, 6286, Control_c, 0, 64, 82
1, 6301, Control_c, 0, 64, 81
1, 6316, Control_c, 0, 64, 78
1, 6330, Control_c, 0, 64, 75
1, 6345, Control_c, 0, 64, 71
1, 6360, Control_c, 0, 64, 67
1, 6375, Control_c, 0, 64, 61
1, 6390, Control_c, 0, 64, 53
1, 6405, Control_c, 0, 64, 47
1, 6420, Control_c, 0, 64, 46
1, 6435, Control_c, 0, 67, 70
1, 6545, Control_c, 0, 64, 46
1, 6605, Control_c, 0, 67, 70
1, 6620, Control_c, 0, 64, 46
1, 6635, Control_c, 0, 64, 47
1, 6649, Control_c, 0, 64, 48
1, 6664, Control_c, 0, 64, 51
1, 6679, Control_c, 0, 64, 55
1, 6694, Control_c, 0, 64, 60
1, 6709, Control_c, 0, 64, 64
1, 6723, Control_c, 0, 64, 67
1, 6738, Control_c, 0, 64, 70
1, 6753, Control_c, 0, 64, 73
1, 6768, Control_c, 0, 64, 76
1, 6783, Control_c, 0, 64, 77
1, 6797, Control_c, 0, 64, 77
1, 6797, Control_c, 0, 67, 71
1, 6812, Control_c, 0, 64, 78
1, 6842, Control_c, 0, 64, 78
1, 6846, Note_on_c, 0, 75, 34
1, 6879, Note_off_c, 0, 75, 52
1, 6918, Control_c, 0, 64, 79
1, 6918, Control_c, 0, 67, 71
1, 6945, Note_on_c, 0, 87, 44
1, 6972, Note_off_c, 0, 87, 55
1, 7036, Control_c, 0, 64, 78
1, 7051, Control_c, 0, 64, 76
1, 7066, Note_on_c, 0, 87, 52
1, 7066, Control_c, 0, 64, 71
1, 7080, Control_c, 0, 64, 64
1, 7095, Control_c, 0, 64, 46
1, 7105, Note_off_c, 0, 87, 62
1, 7110, Control_c, 0, 64, 0
1, 7163, Note_on_c, 0, 99, 54
1, 7184, Control_c, 0, 67, 72
1, 7196, Note_off_c, 0, 99, 60
1, 7301, Note_on_c, 0, 87, 54
1, 7310, Control_c, 0, 67, 72
1, 7329, Note_off_c, 0, 87, 60
1, 7392, Note_on_c, 0, 99, 60
1, 7433, Note_off_c, 0, 99, 55
1, 7524, Note_on_c, 0, 85, 44
1, 7532, Control_c, 0, 64, 43
1, 7546, Note_off_c, 0, 85, 59
1, 7547, Control_c, 0, 64, 59
1, 7562, Control_c, 0, 64, 62
1, 7576, Control_c, 0, 64, 64
1, 7591, Control_c, 0, 64, 64
1, 7606, Control_c, 0, 64, 65
1, 7618, Note_on_c, 0, 99, 57
1, 7621, Control_c, 0, 64, 66
1, 7625, Note_on_c, 0, 56, 32
1, 7636, Control_c, 0, 64, 67
1, 7651, Control_c, 0, 64, 68
1, 7651, Control_c, 0, 67, 72
1, 7652, Note_off_c, 0, 99, 64
1, 7653, Note_on_c, 0, 63, 27
1, 7659, Note_off_c, 0, 56, 54
1, 7665, Control_c, 0, 64, 68
1, 7679, Control_c, 0, 64, 69
1, 7686, Note_off_c, 0, 63, 47
1, 7695, Control_c, 0, 64, 69
1, 7743, Note_on_c, 0, 83, 53
1, 7758, Note_on_c, 0, 71, 43
1, 7763, Note_off_c, 0, 83, 63
1, 7782, Note_off_c, 0, 71, 57
1, 7784, Control_c, 0, 64, 70
1, 7848, Note_on_c, 0, 99, 60
1, 7881, Note_off_c, 0, 99, 63
1, 7902, Control_c, 0, 67, 71
1, 7917, Control_c, 0, 64, 68
1, 7932, Control_c, 0, 64, 64
1, 7932, Control_c, 0, 67, 71
1, 7947, Control_c, 0, 64, 49
1, 7947, Control_c, 0, 67, 70
1, 7962, Control_c, 0, 64, 0
1, 7962, Control_c, 0, 67, 69
1, 7965, Note_on_c, 0, 83, 67
1, 7984, Control_c, 0, 67, 67
1, 7995, Note_off_c, 0, 83, 68
1, 7999, Control_c, 0, 67, 66
1, 8014, Control_c, 0, 67, 63
1, 8028, Control_c, 0, 67, 60
1, 8043, Control_c, 0, 67, 57
1, 8058, Control_c, 0, 67, 56
1, 8073, Control_c, 0, 67, 55
1, 8075, Note_on_c, 0, 99, 66
1, 8088, Control_c, 0, 67, 53
1, 8102, Note_off_c, 0, 99, 64
1, 8102, Control_c, 0, 67, 52
1, 8117, Control_c, 0, 67, 50
1, 8132, Control_c, 0, 67, 47
1, 8147, Control_c, 0, 67, 44
1, 8162, Control_c, 0, 67, 40
1, 8176, Control_c, 0, 67, 33
1, 8191, Note_on_c, 0, 82, 61
1, 8191, Control_c, 0, 67, 26
1, 8206, Control_c, 0, 67, 19
1, 8220, Note_off_c, 0, 82, 65
1, 8220, Control_c, 0, 67, 11
1, 8235, Control_c, 0, 67, 0
1, 8265, Control_c, 0, 64, 54
1, 8280, Control_c, 0, 64, 63
1, 8283, Note_on_c, 0, 99, 76
1, 8284, Note_on_c, 0, 59, 40
1, 8295, Control_c, 0, 64, 66
1, 8310, Control_c, 0, 64, 68
1, 8311, Note_off_c, 0, 59, 56
1, 8313, Note_on_c, 0, 68, 48
1, 8325, Control_c, 0, 64, 71
1, 8329, Note_off_c, 0, 99, 60
1, 8340, Control_c, 0, 64, 73
1, 8341, Note_off_c, 0, 68, 58
1, 8354, Control_c, 0, 64, 75
1, 8369, Control_c, 0, 64, 76
1, 8384, Control_c, 0, 64, 78
1, 8399, Control_c, 0, 64, 79
1, 8408, Note_on_c, 0, 80, 73
1, 8414, Control_c, 0, 64, 80
1, 8428, Control_c, 0, 64, 80
1, 8430, Note_off_c, 0, 80, 68
1, 8431, Note_on_c, 0, 75, 43
1, 8443, Control_c, 0, 64, 81
1, 8457, Note_off_c, 0, 75, 55
1, 8458, Control_c, 0, 64, 81
1, 8473, Control_c, 0, 64, 82
1, 8488, Control_c, 0, 64, 83
1, 8504, Control_c, 0, 64, 84
1, 8515, Note_on_c, 0, 99, 77
1, 8544, Note_off_c, 0, 99, 58
1, 8578, Control_c, 0, 64, 80
1, 8592, Control_c, 0, 64, 69
1, 8607, Control_c, 0, 64, 53
1, 8622, Control_c, 0, 64, 0
1, 8634, Note_on_c, 0, 79, 71
1, 8656, Note_off_c, 0, 79, 70
1, 8739, Note_on_c, 0, 99, 77
1, 8761, Note_off_c, 0, 99, 68
1, 8851, Note_on_c, 0, 80, 74
1, 8873, Note_off_c, 0, 80, 68
1, 8940, Control_c, 0, 64, 21
1, 8955, Control_c, 0, 64, 58
1, 8961, Note_on_c, 0, 63, 44
1, 8962, Note_on_c, 0, 99, 76
1, 8970, Note_on_c, 0, 70, 49
1, 8970, Control_c, 0, 64, 64
1, 8985, Control_c, 0, 64, 66
1, 8991, Note_off_c, 0, 63, 55
1, 8995, Note_off_c, 0, 70, 59
1, 8995, Note_off_c, 0, 99, 56
1, 8999, Control_c, 0, 64, 69
1, 9014, Control_c, 0, 64, 73
1, 9029, Control_c, 0, 64, 78
1, 9043, Control_c, 0, 64, 82
1, 9058, Control_c, 0, 64, 86
1, 9073, Control_c, 0, 64, 90
1, 9081, Note_on_c, 0, 82, 83
1, 9088, Control_c, 0, 64, 94
1, 9093, Note_on_c, 0, 79, 57
1, 9103, Control_c, 0, 64, 97
1, 9112, Note_off_c, 0, 79, 63
1, 9118, Control_c, 0, 64, 99
1, 9124, Note_off_c, 0, 82, 61
1, 9133, Control_c, 0, 64, 102
1, 9147, Control_c, 0, 64, 104
1, 9162, Control_c, 0, 64, 106
1, 9177, Control_c, 0, 64, 108
1, 9189, Note_on_c, 0, 99, 83
1, 9192, Control_c, 0, 64, 110
1, 9207, Control_c, 0, 64, 113
1, 9215, Note_off_c, 0, 99, 60
1, 9222, Control_c, 0, 64, 114
1, 9237, Control_c, 0, 64, 115
1, 9321, Note_on_c, 0, 75, 63
1, 9339, Note_off_c, 0, 75, 62
1, 9386, Control_c, 0, 64, 116
1, 9410, Note_on_c, 0, 99, 74
1, 9426, Note_off_c, 0, 99, 67
1, 9561, Note_on_c, 0, 75, 51
1, 9581, Note_off_c, 0, 75, 62
1, 9642, Note_on_c, 0, 87, 63
1, 9683, Note_off_c, 0, 87, 54
1, 9689, Control_c, 0, 64, 110
1, 9704, Control_c, 0, 64, 94
1, 9719, Control_c, 0, 64, 78
1, 9734, Control_c, 0, 64, 64
1, 9748, Control_c, 0, 64, 0
1, 9764, Note_on_c, 0, 70, 34
1, 9768, Note_on_c, 0, 67, 35
1, 9775, Note_on_c, 0, 76, 49
1, 9794, Note_off_c, 0, 70, 54
1, 9800, Note_off_c, 0, 67, 53
1, 9804, Note_off_c, 0, 76, 65
1, 9869, Note_on_c, 0, 87, 46
1, 9895, Note_off_c, 0, 87, 54
1, 9991, Note_on_c, 0, 75, 48
1, 10017, Note_off_c, 0, 75, 59
1, 10085, Note_on_c, 0, 87, 56
1, 10114, Note_off_c, 0, 87, 58
1, 10195, Note_on_c, 0, 73, 59
1, 10225, Note_off_c, 0, 73, 64
1, 10292, Note_on_c, 0, 87, 68
1, 10323, Note_off_c, 0, 87, 58
1, 10410, Note_on_c, 0, 71, 63
1, 10411, Note_on_c, 0, 68, 45
1, 10435, Note_off_c, 0, 71, 63
1, 10435, Note_off_c, 0, 68, 56
1, 10510, Note_on_c, 0, 87, 68
1, 10540, Note_off_c, 0, 87, 60
1, 10627, Note_on_c, 0, 71, 62
1, 10647, Note_off_c, 0, 71, 65
1, 10712, Note_on_c, 0, 87, 76
1, 10749, Note_off_c, 0, 87, 50
1, 10827, Note_on_c, 0, 70, 76
1, 10852, Note_off_c, 0, 70, 66
1, 10884, Control_c, 0, 64, 44
1, 10899, Control_c, 0, 64, 60
1, 10913, Control_c, 0, 64, 65
1, 10915, Note_on_c, 0, 87, 83
1, 10928, Control_c, 0, 64, 67
1, 10943, Control_c, 0, 64, 70
1, 10966, Control_c, 0, 64, 73
1, 10973, Note_off_c, 0, 87, 58
1, 10981, Control_c, 0, 64, 76
1, 10995, Control_c, 0, 64, 78
1, 11010, Control_c, 0, 64, 80
1, 11025, Control_c, 0, 64, 81
1, 11040, Note_on_c, 0, 68, 84
1, 11043, Note_on_c, 0, 65, 48
1, 11053, Note_on_c, 0, 62, 43
1, 11054, Control_c, 0, 64, 80
1, 11056, Note_on_c, 0, 59, 44
1, 11067, Note_off_c, 0, 65, 56
1, 11069, Control_c, 0, 64, 76
1, 11082, Note_off_c, 0, 62, 56
1, 11082, Note_off_c, 0, 68, 59
1, 11084, Note_off_c, 0, 59, 56
1, 11084, Control_c, 0, 64, 66
1, 11099, Control_c, 0, 64, 38
1, 11114, Control_c, 0, 64, 0
1, 11144, Note_on_c, 0, 87, 80
1, 11169, Note_off_c, 0, 87, 62
1, 11252, Note_on_c, 0, 67, 71
1, 11280, Note_off_c, 0, 67, 66
1, 11351, Note_on_c, 0, 87, 72
1, 11374, Note_off_c, 0, 87, 68
1, 11454, Note_on_c, 0, 68, 66
1, 11484, Note_off_c, 0, 68, 63
1, 11550, Note_on_c, 0, 87, 70
1, 11577, Note_off_c, 0, 87, 63
1, 11617, Control_c, 0, 64, 45
1, 11632, Control_c, 0, 64, 60
1, 11646, Control_c, 0, 64, 65
1, 11661, Control_c, 0, 64, 68
1, 11672, Note_on_c, 0, 70, 62
1, 11676, Control_c, 0, 64, 74
1, 11687, Note_on_c, 0, 63, 40
1, 11687, Note_on_c, 0, 67, 41
1, 11692, Control_c, 0, 64, 80
1, 11707, Control_c, 0, 64, 87
1, 11708, Note_off_c, 0, 70, 62
1, 11729, Control_c, 0, 64, 94
1, 11732, Note_off_c, 0, 63, 51
1, 11739, Note_off_c, 0, 67, 46
1, 11744, Control_c, 0, 64, 101
1, 11759, Control_c, 0, 64, 110
1, 11774, Control_c, 0, 64, 127
1, 11786, Note_on_c, 0, 87, 63
1, 11802, Note_off_c, 0, 87, 64
1, 11848, Control_c, 0, 67, 9
1, 11862, Control_c, 0, 67, 17
1, 11877, Control_c, 0, 67, 26
1, 11892, Control_c, 0, 67, 37
1, 11907, Control_c, 0, 67, 50
1, 11922, Control_c, 0, 67, 63
1, 11924, Note_on_c, 0, 63, 31
1, 11936, Control_c, 0, 67, 78
1, 11951, Control_c, 0, 67, 92
1, 11966, Control_c, 0, 67, 108
1, 11981, Control_c, 0, 67, 120
1, 11995, Control_c, 0, 67, 127
1, 12026, Note_on_c, 0, 75, 45
1, 12052, Note_off_c, 0, 75, 57
1, 12125, Note_off_c, 0, 63, 34
1, 12155, Note_on_c, 0, 75, 46
1, 12207, Note_off_c, 0, 75, 55
1, 12277, Note_on_c, 0, 87, 50
1, 12322, Note_off_c, 0, 87, 60
1, 12514, Note_on_c, 0, 87, 37
1, 12554, Note_off_c, 0, 87, 47
1, 12581, Control_c, 0, 64, 124
1, 12596, Control_c, 0, 64, 94
1, 12611, Control_c, 0, 64, 79
1, 12625, Control_c, 0, 64, 67
1, 12640, Control_c, 0, 64, 55
1, 12641, Note_on_c, 0, 99, 56
1, 12655, Control_c, 0, 64, 25
1, 12670, Control_c, 0, 64, 0
1, 12715, Note_off_c, 0, 99, 38
1, 12803, Note_on_c, 0, 87, 56
1, 12841, Note_off_c, 0, 87, 61
1, 12905, Note_on_c, 0, 99, 67
1, 12964, Note_off_c, 0, 99, 59
1, 13014, Note_on_c, 0, 85, 64
1, 13044, Note_off_c, 0, 85, 66
1, 13099, Control_c, 0, 64, 20
1, 13114, Control_c, 0, 64, 43
1, 13118, Note_on_c, 0, 99, 65
1, 13129, Control_c, 0, 64, 58
1, 13133, Note_on_c, 0, 56, 35
1, 13143, Control_c, 0, 64, 66
1, 13148, Note_off_c, 0, 99, 62
1, 13158, Control_c, 0, 64, 71
1, 13159, Note_on_c, 0, 63, 38
1, 13165, Note_off_c, 0, 56, 54
1, 13173, Control_c, 0, 64, 75
1, 13188, Control_c, 0, 64, 78
1, 13192, Note_off_c, 0, 63, 54
1, 13203, Control_c, 0, 64, 79
1, 13225, Control_c, 0, 64, 80
1, 13231, Note_on_c, 0, 83, 67
1, 13240, Control_c, 0, 64, 81
1, 13248, Note_on_c, 0, 71, 51
1, 13255, Control_c, 0, 64, 81
1, 13258, Note_off_c, 0, 83, 67
1, 13270, Control_c, 0, 64, 82
1, 13270, Note_off_c, 0, 71, 61
1, 13300, Control_c, 0, 64, 83
1, 13330, Control_c, 0, 64, 83
1, 13341, Note_on_c, 0, 99, 71
1, 13359, Control_c, 0, 64, 84
1, 13373, Note_off_c, 0, 99, 55
1, 13404, Control_c, 0, 67, 123
1, 13419, Control_c, 0, 64, 83
1, 13419, Control_c, 0, 67, 117
1, 13434, Control_c, 0, 64, 82
1, 13434, Control_c, 0, 67, 108
1, 13448, Control_c, 0, 64, 74
1, 13448, Control_c, 0, 67, 93
1, 13449, Note_on_c, 0, 83, 74
1, 13463, Control_c, 0, 64, 64
1, 13463, Control_c, 0, 67, 78
1, 13470, Note_off_c, 0, 83, 68
1, 13478, Control_c, 0, 64, 0
1, 13478, Control_c, 0, 67, 62
1, 13493, Control_c, 0, 67, 45
1, 13508, Control_c, 0, 67, 29
1, 13522, Control_c, 0, 67, 13
1, 13537, Control_c, 0, 67, 0
1, 13545, Note_on_c, 0, 99, 80
1, 13598, Note_off_c, 0, 99, 61
1, 13651, Note_on_c, 0, 82, 76
1, 13684, Note_off_c, 0, 82, 62
1, 13744, Note_on_c, 0, 99, 84
1, 13759, Control_c, 0, 64, 47
1, 13762, Note_on_c, 0, 59, 22
1, 13774, Control_c, 0, 64, 63
1, 13775, Note_on_c, 0, 68, 52
1, 13789, Control_c, 0, 64, 67
1, 13792, Note_off_c, 0, 99, 63
1, 13801, Note_off_c, 0, 59, 41
1, 13804, Control_c, 0, 64, 72
1, 13814, Note_off_c, 0, 68, 64
1, 13819, Control_c, 0, 64, 78
1, 13833, Control_c, 0, 64, 86
1, 13848, Control_c, 0, 64, 94
1, 13858, Note_on_c, 0, 80, 80
1, 13863, Control_c, 0, 64, 102
1, 13874, Note_on_c, 0, 75, 64
1, 13878, Control_c, 0, 64, 111
1, 13882, Note_off_c, 0, 80, 67
1, 13891, Note_off_c, 0, 75, 64
1, 13893, Control_c, 0, 64, 127
1, 13968, Note_on_c, 0, 99, 89
1, 14020, Note_off_c, 0, 99, 62
1, 14063, Control_c, 0, 64, 86
1, 14078, Control_c, 0, 64, 65
1, 14083, Note_on_c, 0, 79, 78
1, 14094, Control_c, 0, 64, 0
1, 14105, Note_off_c, 0, 79, 70
1, 14174, Note_on_c, 0, 99, 87
1, 14203, Note_off_c, 0, 99, 58
1, 14284, Note_on_c, 0, 80, 79
1, 14304, Note_off_c, 0, 80, 70
1, 14382, Note_on_c, 0, 63, 46
1, 14385, Note_on_c, 0, 99, 85
1, 14390, Control_c, 0, 64, 55
1, 14391, Note_on_c, 0, 70, 56
1, 14403, Control_c, 0, 64, 64
1, 14412, Note_off_c, 0, 63, 54
1, 14418, Control_c, 0, 64, 67
1, 14425, Note_off_c, 0, 70, 63
1, 14433, Control_c, 0, 64, 73
1, 14436, Note_off_c, 0, 99, 60
1, 14448, Control_c, 0, 64, 80
1, 14462, Control_c, 0, 64, 88
1, 14477, Control_c, 0, 64, 96
1, 14492, Control_c, 0, 64, 104
1, 14506, Note_on_c, 0, 82, 82
1, 14507, Control_c, 0, 64, 111
1, 14511, Note_on_c, 0, 79, 63
1, 14522, Control_c, 0, 64, 118
1, 14529, Note_off_c, 0, 79, 66
1, 14537, Control_c, 0, 64, 127
1, 14547, Note_off_c, 0, 82, 61
1, 14611, Note_on_c, 0, 99, 81
1, 14629, Note_off_c, 0, 99, 72
1, 14731, Note_on_c, 0, 75, 70
1, 14755, Note_off_c, 0, 75, 68
1, 14826, Note_on_c, 0, 99, 79
1, 14844, Note_off_c, 0, 99, 71
1, 14948, Note_on_c, 0, 75, 69
1, 14992, Note_off_c, 0, 75, 57
1, 15038, Note_on_c, 0, 87, 73
1, 15108, Control_c, 0, 64, 113
1, 15111, Note_off_c, 0, 87, 55
1, 15123, Control_c, 0, 64, 85
1, 15137, Control_c, 0, 64, 69
1, 15152, Control_c, 0, 64, 44
1, 15157, Note_on_c, 0, 67, 42
1, 15159, Note_on_c, 0, 70, 38
1, 15167, Control_c, 0, 64, 0
1, 15169, Note_on_c, 0, 76, 58
1, 15187, Note_off_c, 0, 67, 58
1, 15187, Note_off_c, 0, 70, 56
1, 15202, Note_off_c, 0, 76, 64
1, 15258, Note_on_c, 0, 87, 56
1, 15300, Note_off_c, 0, 87, 58
1, 15386, Note_on_c, 0, 75, 53
1, 15416, Note_off_c, 0, 75, 60
1, 15490, Note_on_c, 0, 87, 56
1, 15531, Note_off_c, 0, 87, 61
1, 15601, Note_on_c, 0, 73, 52
1, 15638, Note_off_c, 0, 73, 63
1, 15702, Note_on_c, 0, 87, 53
1, 15744, Note_off_c, 0, 87, 59
1, 15803, Note_on_c, 0, 68, 39
1, 15804, Note_on_c, 0, 71, 36
1, 15816, Note_on_c, 0, 75, 56
1, 15832, Note_off_c, 0, 68, 56
1, 15832, Note_off_c, 0, 71, 50
1, 15852, Note_off_c, 0, 75, 62
1, 15902, Note_on_c, 0, 87, 53
1, 15943, Note_off_c, 0, 87, 57
1, 16021, Note_on_c, 0, 80, 62
1, 16051, Note_off_c, 0, 80, 61
1, 16126, Note_on_c, 0, 83, 63
1, 16153, Note_off_c, 0, 83, 67
1, 16234, Control_c, 0, 64, 25
1, 16249, Control_c, 0, 64, 57
1, 16264, Control_c, 0, 64, 64
1, 16279, Control_c, 0, 64, 67
1, 16293, Control_c, 0, 64, 72
1, 16296, Note_on_c, 0, 87, 71
1, 16308, Control_c, 0, 64, 78
1, 16323, Control_c, 0, 64, 86
1, 16338, Control_c, 0, 64, 93
1, 16353, Control_c, 0, 64, 99
1, 16355, Note_off_c, 0, 87, 61
1, 16367, Control_c, 0, 64, 105
1, 16382, Control_c, 0, 64, 110
1, 16397, Control_c, 0, 64, 114
1, 16412, Control_c, 0, 64, 120
1, 16424, Note_on_c, 0, 99, 37
1, 16427, Control_c, 0, 64, 124
1, 16442, Control_c, 0, 64, 127
1, 16453, Note_off_c, 0, 99, 50
1, 16567, Note_on_c, 0, 75, 63
1, 16567, Note_on_c, 0, 73, 39
1, 16591, Note_on_c, 0, 63, 12
1, 16591, Control_c, 0, 64, 109
1, 16592, Note_on_c, 0, 67, 28
1, 16594, Note_off_c, 0, 73, 56
1, 16606, Control_c, 0, 64, 88
1, 16606, Note_off_c, 0, 75, 57
1, 16621, Control_c, 0, 64, 70
1, 16628, Note_off_c, 0, 67, 49
1, 16633, Note_off_c, 0, 63, 50
1, 16635, Control_c, 0, 64, 44
1, 16650, Control_c, 0, 64, 0
1, 16663, Note_on_c, 0, 87, 62
1, 16701, Note_off_c, 0, 87, 56
1, 16790, Note_on_c, 0, 79, 61
1, 16823, Note_off_c, 0, 79, 64
1, 16901, Note_on_c, 0, 82, 65
1, 16928, Note_off_c, 0, 82, 67
1, 17072, Control_c, 0, 64, 37
1, 17082, Note_on_c, 0, 87, 73
1, 17087, Control_c, 0, 64, 58
1, 17102, Control_c, 0, 64, 64
1, 17116, Control_c, 0, 64, 67
1, 17131, Control_c, 0, 64, 71
1, 17146, Control_c, 0, 64, 78
1, 17161, Control_c, 0, 64, 85
1, 17166, Note_off_c, 0, 87, 55
1, 17176, Control_c, 0, 64, 92
1, 17190, Control_c, 0, 64, 98
1, 17205, Control_c, 0, 64, 106
1, 17220, Control_c, 0, 64, 118
1, 17234, Note_on_c, 0, 99, 46
1, 17235, Control_c, 0, 64, 127
1, 17273, Note_off_c, 0, 99, 60
1, 17366, Note_on_c, 0, 56, 36
1, 17483, Note_off_c, 0, 56, 33
1, 17505, Note_on_c, 0, 63, 43
1, 17565, Note_off_c, 0, 63, 53
1, 17622, Control_c, 0, 67, 8
1, 17625, Note_on_c, 0, 71, 47
1, 17637, Control_c, 0, 67, 9
1, 17648, Note_off_c, 0, 71, 61
1, 17652, Control_c, 0, 67, 12
1, 17666, Control_c, 0, 67, 15
1, 17681, Control_c, 0, 67, 19
1, 17696, Control_c, 0, 67, 24
1, 17718, Control_c, 0, 67, 30
1, 17732, Control_c, 0, 67, 36
1, 17747, Control_c, 0, 67, 41
1, 17762, Control_c, 0, 67, 46
1, 17768, Note_on_c, 0, 80, 55
1, 17777, Control_c, 0, 67, 49
1, 17792, Control_c, 0, 67, 52
1, 17794, Note_off_c, 0, 80, 59
1, 17807, Control_c, 0, 67, 55
1, 17822, Control_c, 0, 67, 58
1, 17837, Control_c, 0, 67, 61
1, 17852, Control_c, 0, 67, 63
1, 17866, Control_c, 0, 67, 64
1, 17881, Control_c, 0, 67, 66
1, 17896, Control_c, 0, 67, 67
1, 17902, Note_on_c, 0, 75, 41
1, 17911, Control_c, 0, 67, 68
1, 17926, Control_c, 0, 67, 69
1, 17935, Note_off_c, 0, 75, 53
1, 17940, Control_c, 0, 67, 70
1, 17955, Control_c, 0, 67, 70
1, 17970, Control_c, 0, 67, 71
1, 18000, Control_c, 0, 67, 72
1, 18010, Note_on_c, 0, 87, 55
1, 18029, Control_c, 0, 67, 72
1, 18036, Note_off_c, 0, 87, 63
1, 18044, Control_c, 0, 67, 73
1, 18073, Control_c, 0, 67, 73
1, 18090, Control_c, 0, 67, 75
1, 18104, Control_c, 0, 67, 76
1, 18119, Control_c, 0, 67, 77
1, 18134, Control_c, 0, 67, 79
1, 18148, Control_c, 0, 67, 81
1, 18162, Control_c, 0, 67, 83
1, 18177, Control_c, 0, 67, 85
1, 18192, Control_c, 0, 67, 88
1, 18207, Control_c, 0, 67, 92
1, 18208, Note_on_c, 0, 99, 61
1, 18222, Control_c, 0, 67, 96
1, 18236, Control_c, 0, 67, 101
1, 18251, Control_c, 0, 67, 106
1, 18266, Control_c, 0, 67, 112
1, 18281, Control_c, 0, 67, 117
1, 18284, Note_off_c, 0, 99, 35
1, 18296, Control_c, 0, 67, 122
1, 18311, Control_c, 0, 67, 126
1, 18326, Control_c, 0, 64, 107
1, 18326, Control_c, 0, 67, 127
1, 18341, Control_c, 0, 64, 89
1, 18355, Control_c, 0, 64, 76
1, 18367, Note_on_c, 0, 87, 51
1, 18370, Control_c, 0, 64, 65
1, 18385, Control_c, 0, 64, 47
1, 18400, Control_c, 0, 64, 28
1, 18415, Control_c, 0, 64, 17
1, 18423, Note_off_c, 0, 87, 53
1, 18429, Control_c, 0, 64, 16
1, 18481, Control_c, 0, 64, 14
1, 18496, Control_c, 0, 64, 9
1, 18510, Control_c, 0, 64, 0
1, 18524, Note_on_c, 0, 99, 64
1, 18600, Note_off_c, 0, 99, 58
1, 18641, Note_on_c, 0, 87, 60
1, 18706, Note_off_c, 0, 87, 52
1, 18762, Control_c, 0, 64, 22
1, 18775, Note_on_c, 0, 99, 64
1, 18777, Control_c, 0, 64, 40
1, 18792, Control_c, 0, 64, 56
1, 18806, Control_c, 0, 64, 64
1, 18821, Control_c, 0, 64, 69
1, 18826, Note_off_c, 0, 99, 62
1, 18836, Control_c, 0, 64, 75
1, 18851, Control_c, 0, 64, 79
1, 18866, Control_c, 0, 64, 81
1, 18870, Note_on_c, 0, 85, 67
1, 18882, Control_c, 0, 64, 83
1, 18897, Control_c, 0, 64, 84
1, 18911, Control_c, 0, 64, 84
1, 18913, Note_off_c, 0, 85, 59
1, 18941, Control_c, 0, 64, 85
1, 18987, Note_on_c, 0, 85, 58
1, 18999, Note_on_c, 0, 44, 45
1, 19009, Note_on_c, 0, 83, 71
1, 19015, Control_c, 0, 64, 85
1, 19017, Note_off_c, 0, 85, 67
1, 19037, Note_off_c, 0, 44, 52
1, 19040, Note_off_c, 0, 83, 61
1, 19123, Note_on_c, 0, 99, 75
1, 19162, Note_off_c, 0, 99, 53
1, 19245, Control_c, 0, 64, 85
1, 19253, Note_on_c, 0, 83, 71
1, 19253, Note_on_c, 0, 51, 47
1, 19256, Note_on_c, 0, 59, 44
1, 19259, Control_c, 0, 64, 82
1, 19274, Control_c, 0, 64, 75
1, 19277, Note_off_c, 0, 83, 66
1, 19279, Note_off_c, 0, 51, 54
1, 19282, Note_off_c, 0, 59, 56
1, 19289, Control_c, 0, 64, 64
1, 19303, Control_c, 0, 64, 37
1, 19318, Control_c, 0, 64, 0
1, 19363, Note_on_c, 0, 99, 78
1, 19401, Note_off_c, 0, 99, 56
1, 19487, Note_on_c, 0, 82, 61
1, 19515, Note_off_c, 0, 82, 67
1, 19556, Control_c, 0, 64, 43
1, 19571, Control_c, 0, 64, 60
1, 19585, Control_c, 0, 64, 65
1, 19594, Note_on_c, 0, 99, 53
1, 19600, Control_c, 0, 64, 67
1, 19614, Note_off_c, 0, 99, 62
1, 19615, Control_c, 0, 64, 68
1, 19629, Control_c, 0, 64, 70
1, 19644, Control_c, 0, 64, 72
1, 19659, Control_c, 0, 64, 73
1, 19675, Control_c, 0, 64, 74
1, 19690, Control_c, 0, 64, 75
1, 19699, Note_on_c, 0, 47, 45
1, 19705, Control_c, 0, 64, 76
1, 19712, Note_on_c, 0, 82, 65
1, 19720, Control_c, 0, 64, 77
1, 19730, Note_off_c, 0, 47, 62
1, 19738, Note_on_c, 0, 80, 75
1, 19738, Note_off_c, 0, 82, 66
1, 19749, Control_c, 0, 64, 78
1, 19762, Note_off_c, 0, 80, 66
1, 19779, Control_c, 0, 64, 78
1, 19851, Note_on_c, 0, 99, 70
1, 19852, Control_c, 0, 64, 79
1, 19873, Note_off_c, 0, 99, 69
1, 19941, Control_c, 0, 64, 78
1, 19964, Control_c, 0, 64, 77
1, 19971, Note_on_c, 0, 63, 51
1, 19971, Note_on_c, 0, 79, 70
1, 19974, Note_on_c, 0, 56, 52
1, 19979, Control_c, 0, 64, 71
1, 19994, Control_c, 0, 64, 63
1, 19995, Note_off_c, 0, 79, 70
1, 19995, Note_off_c, 0, 63, 58
1, 19998, Note_off_c, 0, 56, 59
1, 20008, Control_c, 0, 64, 23
1, 20023, Control_c, 0, 64, 0
1, 20076, Note_on_c, 0, 99, 82
1, 20105, Note_off_c, 0, 99, 55
1, 20201, Control_c, 0, 64, 14
1, 20210, Note_on_c, 0, 80, 58
1, 20216, Control_c, 0, 64, 58
1, 20230, Control_c, 0, 64, 65
1, 20233, Note_off_c, 0, 80, 64
1, 20245, Control_c, 0, 64, 67
1, 20260, Control_c, 0, 64, 70
1, 20275, Control_c, 0, 64, 75
1, 20290, Control_c, 0, 64, 79
1, 20304, Note_on_c, 0, 99, 73
1, 20305, Control_c, 0, 64, 82
1, 20318, Note_off_c, 0, 99, 70
1, 20320, Control_c, 0, 64, 86
1, 20334, Control_c, 0, 64, 89
1, 20349, Control_c, 0, 64, 92
1, 20364, Control_c, 0, 64, 95
1, 20378, Control_c, 0, 64, 97
1, 20394, Control_c, 0, 64, 98
1, 20424, Control_c, 0, 64, 99
1, 20433, Note_on_c, 0, 79, 64
1, 20445, Note_on_c, 0, 51, 42
1, 20446, Note_on_c, 0, 80, 71
1, 20450, Note_off_c, 0, 79, 67
1, 20453, Control_c, 0, 64, 99
1, 20453, Control_c, 0, 67, 127
1, 20468, Control_c, 0, 64, 100
1, 20468, Control_c, 0, 67, 124
1, 20475, Note_off_c, 0, 51, 54
1, 20475, Note_off_c, 0, 80, 63
1, 20481, Note_on_c, 0, 82, 75
1, 20484, Control_c, 0, 64, 101
1, 20484, Control_c, 0, 67, 118
1, 20499, Control_c, 0, 67, 110
1, 20504, Note_off_c, 0, 82, 68
1, 20514, Control_c, 0, 67, 95
1, 20528, Control_c, 0, 64, 101
1, 20528, Control_c, 0, 67, 79
1, 20543, Control_c, 0, 64, 102
1, 20543, Control_c, 0, 67, 60
1, 20558, Control_c, 0, 64, 102
1, 20558, Control_c, 0, 67, 38
1, 20573, Control_c, 0, 64, 103
1, 20573, Control_c, 0, 67, 16
1, 20588, Control_c, 0, 64, 103
1, 20588, Control_c, 0, 67, 0
1, 20594, Note_on_c, 0, 99, 76
1, 20603, Control_c, 0, 64, 104
1, 20618, Note_off_c, 0, 99, 68
1, 20724, Note_on_c, 0, 75, 70
1, 20727, Note_on_c, 0, 58, 46
1, 20732, Note_on_c, 0, 67, 49
1, 20748, Note_off_c, 0, 75, 68
1, 20754, Note_off_c, 0, 58, 56
1, 20758, Note_off_c, 0, 67, 57
1, 20773, Control_c, 0, 64, 104
1, 20788, Control_c, 0, 64, 105
1, 20803, Control_c, 0, 64, 107
1, 20818, Control_c, 0, 64, 109
1, 20827, Note_on_c, 0, 99, 72
1, 20832, Control_c, 0, 64, 113
1, 20843, Note_off_c, 0, 99, 68
1, 20847, Control_c, 0, 64, 116
1, 20862, Control_c, 0, 64, 121
1, 20876, Control_c, 0, 64, 127
1, 20950, Note_on_c, 0, 75, 68
1, 20986, Note_off_c, 0, 75, 60
1, 21040, Note_on_c, 0, 87, 76
1, 21109, Note_off_c, 0, 87, 60
1, 21113, Control_c, 0, 64, 96
1, 21123, Note_on_c, 0, 78, 73
1, 21128, Control_c, 0, 64, 76
1, 21143, Control_c, 0, 64, 60
1, 21149, Note_on_c, 0, 76, 73
1, 21152, Note_on_c, 0, 67, 53
1, 21155, Note_off_c, 0, 78, 63
1, 21157, Control_c, 0, 64, 0
1, 21161, Note_on_c, 0, 70, 42
1, 21176, Note_off_c, 0, 67, 62
1, 21187, Note_off_c, 0, 70, 57
1, 21192, Note_off_c, 0, 76, 60
1, 21243, Note_on_c, 0, 87, 65
1, 21283, Note_off_c, 0, 87, 54
1, 21351, Note_on_c, 0, 68, 59
1, 21363, Note_on_c, 0, 75, 66
1, 21381, Note_off_c, 0, 68, 62
1, 21394, Note_off_c, 0, 75, 61
1, 21432, Poly_aftertouch_c, 0, 70, 0
1, 21456, Note_on_c, 0, 87, 67
1, 21515, Note_off_c, 0, 87, 49
1, 21573, Note_on_c, 0, 73, 65
1, 21603, Note_off_c, 0, 73, 65
1, 21611, Control_c, 0, 64, 22
1, 21625, Control_c, 0, 64, 52
1, 21640, Control_c, 0, 64, 60
1, 21655, Control_c, 0, 64, 63
1, 21662, Note_on_c, 0, 87, 69
1, 21670, Control_c, 0, 64, 64
1, 21685, Control_c, 0, 64, 64
1, 21688, Note_off_c, 0, 87, 68
1, 21699, Control_c, 0, 64, 65
1, 21714, Control_c, 0, 64, 66
1, 21729, Control_c, 0, 64, 67
1, 21744, Control_c, 0, 64, 67
1, 21759, Control_c, 0, 64, 68
1, 21788, Note_on_c, 0, 71, 71
1, 21788, Control_c, 0, 64, 68
1, 21798, Note_on_c, 0, 68, 38
1, 21818, Control_c, 0, 64, 69
1, 21823, Note_off_c, 0, 71, 61
1, 21829, Note_off_c, 0, 68, 52
1, 21832, Control_c, 0, 64, 69
1, 21847, Control_c, 0, 64, 70
1, 21877, Control_c, 0, 64, 70
1, 21887, Note_on_c, 0, 87, 71
1, 21906, Control_c, 0, 64, 71
1, 21927, Note_off_c, 0, 87, 55
1, 21980, Control_c, 0, 64, 70
1, 21995, Control_c, 0, 64, 66
1, 22006, Note_on_c, 0, 71, 75
1, 22010, Control_c, 0, 64, 58
1, 22015, Note_on_c, 0, 68, 37
1, 22025, Control_c, 0, 64, 0
1, 22030, Note_off_c, 0, 71, 68
1, 22045, Note_off_c, 0, 68, 54
1, 22110, Note_on_c, 0, 87, 75
1, 22150, Note_off_c, 0, 87, 57
1, 22338, Note_on_c, 0, 87, 55
1, 22357, Note_off_c, 0, 87, 62
1, 22362, Note_on_c, 0, 85, 8
1, 22386, Note_off_c, 0, 85, 48
1, 22389, Control_c, 0, 64, 48
1, 22403, Control_c, 0, 64, 59
1, 22418, Control_c, 0, 64, 63
1, 22433, Control_c, 0, 64, 65
1, 22439, Note_on_c, 0, 70, 59
1, 22445, Note_on_c, 0, 68, 83
1, 22448, Control_c, 0, 64, 68
1, 22459, Note_off_c, 0, 70, 62
1, 22460, Note_on_c, 0, 65, 47
1, 22460, Note_on_c, 0, 59, 48
1, 22463, Control_c, 0, 64, 71
1, 22466, Note_on_c, 0, 62, 42
1, 22478, Control_c, 0, 64, 75
1, 22485, Note_off_c, 0, 65, 56
1, 22486, Note_off_c, 0, 59, 57
1, 22493, Control_c, 0, 64, 79
1, 22496, Note_off_c, 0, 62, 53
1, 22496, Note_off_c, 0, 68, 59
1, 22508, Control_c, 0, 64, 82
1, 22522, Control_c, 0, 64, 83
1, 22537, Control_c, 0, 64, 84
1, 22552, Control_c, 0, 64, 85
1, 22553, Note_on_c, 0, 87, 80
1, 22567, Control_c, 0, 64, 85
1, 22579, Note_off_c, 0, 87, 59
1, 22581, Control_c, 0, 64, 86
1, 22640, Control_c, 0, 64, 83
1, 22654, Control_c, 0, 64, 75
1, 22669, Note_on_c, 0, 67, 75
1, 22669, Control_c, 0, 64, 64
1, 22672, Note_on_c, 0, 59, 38
1, 22676, Note_on_c, 0, 62, 29
1, 22677, Note_on_c, 0, 65, 29
1, 22684, Control_c, 0, 64, 0
1, 22693, Note_off_c, 0, 67, 67
1, 22698, Note_off_c, 0, 59, 54
1, 22713, Note_off_c, 0, 65, 45
1, 22716, Note_off_c, 0, 62, 44
1, 22785, Note_on_c, 0, 87, 64
1, 22795, Note_on_c, 0, 85, 29
1, 22809, Note_off_c, 0, 87, 63
1, 22827, Note_off_c, 0, 85, 58
1, 22890, Note_on_c, 0, 68, 71
1, 22892, Control_c, 0, 64, 37
1, 22907, Control_c, 0, 64, 62
1, 22917, Note_off_c, 0, 68, 67
1, 22922, Control_c, 0, 64, 67
1, 22937, Control_c, 0, 64, 72
1, 22959, Control_c, 0, 64, 77
1, 22974, Control_c, 0, 64, 82
1, 22989, Control_c, 0, 64, 86
1, 23003, Note_on_c, 0, 87, 61
1, 23003, Control_c, 0, 64, 90
1, 23018, Control_c, 0, 64, 94
1, 23020, Note_off_c, 0, 87, 63
1, 23033, Control_c, 0, 64, 97
1, 23048, Control_c, 0, 64, 100
1, 23063, Control_c, 0, 64, 102
1, 23077, Control_c, 0, 64, 104
1, 23092, Control_c, 0, 64, 105
1, 23107, Control_c, 0, 64, 106
1, 23122, Note_on_c, 0, 67, 65
1, 23122, Control_c, 0, 64, 106
1, 23145, Note_on_c, 0, 68, 69
1, 23148, Note_off_c, 0, 67, 61
1, 23152, Note_on_c, 0, 63, 47
1, 23152, Control_c, 0, 64, 107
1, 23167, Control_c, 0, 64, 107
1, 23176, Note_off_c, 0, 63, 57
1, 23184, Note_on_c, 0, 70, 77
1, 23192, Note_off_c, 0, 68, 60
1, 23196, Control_c, 0, 64, 108
1, 23205, Note_off_c, 0, 70, 68
1, 23211, Control_c, 0, 64, 108
1, 23226, Control_c, 0, 64, 109
1, 23256, Control_c, 0, 64, 109
1, 23271, Control_c, 0, 64, 110
1, 23285, Control_c, 0, 64, 110
1, 23287, Note_on_c, 0, 87, 67
1, 23300, Control_c, 0, 64, 111
1, 23303, Note_off_c, 0, 87, 66
1, 23315, Control_c, 0, 64, 112
1, 23320, Poly_aftertouch_c, 0, 70, 127
1, 23330, Control_c, 0, 64, 113
1, 23344, Control_c, 0, 64, 113
1, 23360, Poly_aftertouch_c, 0, 70, 0
1, 23374, Control_c, 0, 64, 114
1, 23402, Note_on_c, 0, 63, 66
1, 23418, Control_c, 0, 64, 115
1, 23433, Control_c, 0, 64, 116
1, 23463, Control_c, 0, 64, 117
1, 23477, Control_c, 0, 64, 118
1, 23492, Control_c, 0, 64, 120
1, 23507, Control_c, 0, 64, 121
1, 23515, Note_on_c, 0, 75, 59
1, 23527, Note_off_c, 0, 63, 55
1, 23534, Note_off_c, 0, 75, 63
1, 23537, Control_c, 0, 64, 124
1, 23581, Control_c, 0, 64, 127
1, 23624, Note_on_c, 0, 75, 59
1, 23674, Note_off_c, 0, 75, 58
1, 23736, Note_on_c, 0, 87, 58
1, 23757, Note_off_c, 0, 87, 61
1, 23856, Control_c, 0, 64, 124
1, 23886, Control_c, 0, 64, 118
1, 23900, Control_c, 0, 64, 111
1, 23915, Control_c, 0, 64, 102
1, 23918, Note_on_c, 0, 87, 55
1, 23930, Control_c, 0, 64, 90
1, 23945, Control_c, 0, 64, 79
1, 23960, Control_c, 0, 64, 69
1, 23966, Note_off_c, 0, 87, 55
1, 23974, Control_c, 0, 64, 61
1, 23989, Control_c, 0, 64, 45
1, 24004, Control_c, 0, 64, 31
1, 24019, Control_c, 0, 64, 24
1, 24034, Control_c, 0, 64, 23
1, 24049, Control_c, 0, 64, 22
1, 24060, Note_on_c, 0, 99, 61
1, 24064, Control_c, 0, 64, 21
1, 24079, Control_c, 0, 64, 19
1, 24093, Control_c, 0, 64, 14
1, 24108, Control_c, 0, 64, 9
1, 24114, Note_off_c, 0, 99, 46
1, 24123, Control_c, 0, 64, 0
1, 24225, Note_on_c, 0, 87, 52
1, 24268, Note_off_c, 0, 87, 60
1, 24328, Note_on_c, 0, 99, 62
1, 24395, Note_off_c, 0, 99, 59
1, 24434, Control_c, 0, 64, 12
1, 24457, Control_c, 0, 64, 16
1, 24460, Note_on_c, 0, 85, 68
1, 24472, Control_c, 0, 64, 26
1, 24487, Control_c, 0, 64, 42
1, 24501, Note_off_c, 0, 85, 61
1, 24502, Control_c, 0, 64, 57
1, 24517, Control_c, 0, 64, 65
1, 24532, Control_c, 0, 64, 72
1, 24547, Control_c, 0, 64, 79
1, 24562, Control_c, 0, 64, 84
1, 24574, Note_on_c, 0, 99, 39
1, 24576, Control_c, 0, 64, 85
1, 24591, Control_c, 0, 64, 86
1, 24603, Note_off_c, 0, 99, 55
1, 24621, Control_c, 0, 64, 86
1, 24636, Control_c, 0, 64, 87
1, 24672, Note_on_c, 0, 44, 50
1, 24695, Control_c, 0, 64, 87
1, 24698, Note_on_c, 0, 81, 64
1, 24702, Note_on_c, 0, 83, 61
1, 24708, Note_off_c, 0, 44, 56
1, 24714, Note_off_c, 0, 81, 67
1, 24723, Note_off_c, 0, 83, 62
1, 24800, Note_on_c, 0, 99, 75
1, 24829, Note_off_c, 0, 99, 58
1, 24887, Control_c, 0, 64, 85
1, 24902, Control_c, 0, 64, 77
1, 24916, Control_c, 0, 64, 66
1, 24918, Note_on_c, 0, 83, 77
1, 24927, Note_on_c, 0, 59, 45
1, 24928, Note_on_c, 0, 51, 45
1, 24931, Control_c, 0, 64, 0
1, 24947, Note_off_c, 0, 83, 62
1, 24954, Note_off_c, 0, 59, 55
1, 24957, Note_off_c, 0, 51, 51
1, 25021, Note_on_c, 0, 99, 81
1, 25062, Note_off_c, 0, 99, 56
1, 25138, Note_on_c, 0, 82, 70
1, 25161, Note_off_c, 0, 82, 69
1, 25238, Note_on_c, 0, 99, 78
1, 25263, Note_off_c, 0, 99, 65
1, 25265, Control_c, 0, 64, 16
1, 25280, Control_c, 0, 64, 53
1, 25295, Control_c, 0, 64, 61
1, 25310, Control_c, 0, 64, 64
1, 25325, Control_c, 0, 64, 65
1, 25340, Control_c, 0, 64, 67
1, 25354, Note_on_c, 0, 47, 48
1, 25355, Control_c, 0, 64, 69
1, 25357, Note_on_c, 0, 82, 69
1, 25369, Control_c, 0, 64, 71
1, 25372, Note_on_c, 0, 80, 76
1, 25381, Note_off_c, 0, 47, 60
1, 25381, Note_off_c, 0, 82, 67
1, 25384, Control_c, 0, 64, 73
1, 25399, Control_c, 0, 64, 75
1, 25401, Note_off_c, 0, 80, 65
1, 25414, Control_c, 0, 64, 76
1, 25429, Control_c, 0, 64, 77
1, 25444, Control_c, 0, 64, 77
1, 25459, Control_c, 0, 64, 78
1, 25471, Note_on_c, 0, 99, 89
1, 25473, Control_c, 0, 64, 78
1, 25488, Control_c, 0, 64, 79
1, 25513, Note_off_c, 0, 99, 62
1, 25562, Control_c, 0, 64, 74
1, 25577, Control_c, 0, 64, 66
1, 25591, Control_c, 0, 64, 36
1, 25595, Note_on_c, 0, 79, 75
1, 25596, Note_on_c, 0, 63, 53
1, 25606, Note_on_c, 0, 56, 47
1, 25606, Control_c, 0, 64, 0
1, 25619, Note_off_c, 0, 63, 60
1, 25619, Note_off_c, 0, 79, 70
1, 25633, Note_off_c, 0, 56, 57
1, 25699, Note_on_c, 0, 99, 86
1, 25736, Note_off_c, 0, 99, 59
1, 25825, Note_on_c, 0, 80, 71
1, 25843, Control_c, 0, 64, 52
1, 25846, Note_off_c, 0, 80, 70
1, 25858, Control_c, 0, 64, 63
1, 25873, Control_c, 0, 64, 66
1, 25888, Control_c, 0, 64, 70
1, 25903, Control_c, 0, 64, 76
1, 25917, Control_c, 0, 64, 83
1, 25923, Note_on_c, 0, 99, 69
1, 25932, Control_c, 0, 64, 89
1, 25946, Note_off_c, 0, 99, 69
1, 25954, Control_c, 0, 64, 93
1, 25969, Control_c, 0, 64, 97
1, 25984, Control_c, 0, 64, 100
1, 25998, Control_c, 0, 64, 103
1, 26013, Control_c, 0, 64, 105
1, 26028, Control_c, 0, 64, 107
1, 26043, Control_c, 0, 64, 109
1, 26056, Note_on_c, 0, 79, 67
1, 26058, Control_c, 0, 64, 110
1, 26073, Note_on_c, 0, 51, 47
1, 26074, Control_c, 0, 64, 112
1, 26083, Note_on_c, 0, 80, 71
1, 26084, Note_off_c, 0, 79, 69
1, 26089, Control_c, 0, 64, 113
1, 26103, Control_c, 0, 64, 114
1, 26104, Note_off_c, 0, 51, 58
1, 26109, Note_off_c, 0, 80, 63
1, 26111, Note_on_c, 0, 82, 77
1, 26118, Control_c, 0, 64, 115
1, 26135, Note_off_c, 0, 82, 67
1, 26177, Control_c, 0, 64, 116
1, 26217, Note_on_c, 0, 99, 85
1, 26241, Note_off_c, 0, 99, 62
1, 26344, Note_on_c, 0, 67, 54
1, 26348, Note_on_c, 0, 58, 47
1, 26348, Note_on_c, 0, 75, 69
1, 26369, Note_off_c, 0, 67, 59
1, 26374, Note_off_c, 0, 58, 57
1, 26374, Note_off_c, 0, 75, 67
1, 26440, Note_on_c, 0, 99, 91
1, 26465, Note_off_c, 0, 99, 59
1, 26571, Note_on_c, 0, 75, 71
1, 26603, Note_off_c, 0, 75, 63
1, 26654, Note_on_c, 0, 87, 74
1, 26732, Control_c, 0, 64, 113
1, 26743, Note_off_c, 0, 87, 56
1, 26747, Control_c, 0, 64, 94
1, 26762, Control_c, 0, 64, 75
1, 26766, Note_on_c, 0, 78, 75
1, 26776, Control_c, 0, 64, 53
1, 26779, Note_on_c, 0, 76, 83
1, 26791, Note_on_c, 0, 70, 53
1, 26791, Control_c, 0, 64, 0
1, 26796, Note_off_c, 0, 78, 62
1, 26803, Note_on_c, 0, 68, 44
1, 26805, Note_on_c, 0, 61, 33
1, 26812, Note_off_c, 0, 70, 61
1, 26828, Note_off_c, 0, 68, 56
1, 26833, Note_off_c, 0, 76, 65
1, 26836, Note_off_c, 0, 61, 50
1, 26892, Note_on_c, 0, 87, 60
1, 26954, Note_off_c, 0, 87, 52
1, 27010, Note_on_c, 0, 68, 44
1, 27014, Note_on_c, 0, 70, 29
1, 27019, Note_on_c, 0, 75, 63
1, 27021, Note_on_c, 0, 63, 41
1, 27043, Note_off_c, 0, 68, 53
1, 27045, Note_off_c, 0, 70, 51
1, 27050, Note_off_c, 0, 63, 55
1, 27054, Note_off_c, 0, 75, 59
1, 27107, Note_on_c, 0, 87, 60
1, 27167, Note_off_c, 0, 87, 52
1, 27223, Note_on_c, 0, 70, 37
1, 27226, Note_on_c, 0, 73, 65
1, 27233, Note_on_c, 0, 68, 36
1, 27247, Note_on_c, 0, 64, 30
1, 27253, Note_off_c, 0, 70, 56
1, 27257, Note_off_c, 0, 73, 62
1, 27266, Note_off_c, 0, 68, 54
1, 27281, Note_off_c, 0, 64, 52
1, 27326, Note_on_c, 0, 87, 57
1, 27372, Note_off_c, 0, 87, 55
1, 27446, Note_on_c, 0, 71, 46
1, 27447, Note_on_c, 0, 68, 39
1, 27453, Note_on_c, 0, 63, 40
1, 27462, Note_on_c, 0, 75, 56
1, 27471, Note_off_c, 0, 71, 56
1, 27477, Note_off_c, 0, 68, 56
1, 27482, Note_off_c, 0, 63, 53
1, 27496, Note_off_c, 0, 75, 63
1, 27553, Note_on_c, 0, 87, 54
1, 27593, Note_off_c, 0, 87, 59
1, 27678, Note_on_c, 0, 80, 62
1, 27712, Note_off_c, 0, 80, 59
1, 27779, Note_on_c, 0, 83, 68
1, 27802, Note_off_c, 0, 83, 68
1, 27867, Control_c, 0, 64, 56
1, 27882, Control_c, 0, 64, 64
1, 27897, Control_c, 0, 64, 68
1, 27907, Note_on_c, 0, 87, 89
1, 27912, Control_c, 0, 64, 74
1, 27927, Control_c, 0, 64, 83
1, 27942, Control_c, 0, 64, 93
1, 27957, Control_c, 0, 64, 105
1, 27962, Note_off_c, 0, 87, 61
1, 27972, Control_c, 0, 64, 124
1, 27986, Control_c, 0, 64, 127
1, 28020, Note_on_c, 0, 63, 43
1, 28029, Note_on_c, 0, 99, 47
1, 28052, Note_off_c, 0, 63, 55
1, 28055, Note_off_c, 0, 99, 56
1, 28067, Note_on_c, 0, 73, 48
1, 28108, Note_off_c, 0, 73, 55
1, 28119, Control_c, 0, 64, 92
1, 28134, Control_c, 0, 64, 71
1, 28149, Control_c, 0, 64, 35
1, 28154, Note_on_c, 0, 79, 48
1, 28164, Control_c, 0, 64, 0
1, 28172, Note_on_c, 0, 75, 62
1, 28177, Note_off_c, 0, 79, 59
1, 28218, Note_off_c, 0, 75, 59
1, 28274, Note_on_c, 0, 87, 57
1, 28309, Note_off_c, 0, 87, 61
1, 28402, Note_on_c, 0, 79, 48
1, 28425, Note_off_c, 0, 79, 60
1, 28492, Note_on_c, 0, 82, 64
1, 28520, Note_off_c, 0, 82, 63
1, 28602, Control_c, 0, 64, 58
1, 28616, Control_c, 0, 64, 63
1, 28631, Control_c, 0, 64, 66
1, 28633, Note_on_c, 0, 87, 85
1, 28646, Control_c, 0, 64, 70
1, 28661, Control_c, 0, 64, 77
1, 28676, Control_c, 0, 64, 86
1, 28690, Control_c, 0, 64, 99
1, 28693, Note_off_c, 0, 87, 61
1, 28705, Control_c, 0, 64, 116
1, 28720, Control_c, 0, 64, 127
1, 28750, Control_c, 0, 67, 10
1, 28751, Note_on_c, 0, 99, 69
1, 28765, Control_c, 0, 67, 19
1, 28780, Control_c, 0, 67, 30
1, 28785, Note_off_c, 0, 99, 59
1, 28795, Control_c, 0, 67, 43
1, 28809, Control_c, 0, 67, 54
1, 28824, Control_c, 0, 67, 66
1, 28839, Control_c, 0, 67, 78
1, 28854, Control_c, 0, 67, 90
1, 28869, Control_c, 0, 67, 106
1, 28879, Note_on_c, 0, 44, 48
1, 28884, Control_c, 0, 67, 119
1, 28898, Control_c, 0, 67, 127
1, 28927, Note_off_c, 0, 44, 62
1, 29006, Note_on_c, 0, 59, 50
1, 29054, Note_off_c, 0, 59, 57
1, 29128, Note_on_c, 0, 63, 49
1, 29151, Note_off_c, 0, 63, 59
1, 29216, Control_c, 0, 64, 114
1, 29231, Control_c, 0, 64, 92
1, 29245, Note_on_c, 0, 68, 53
1, 29246, Control_c, 0, 64, 77
1, 29262, Control_c, 0, 64, 65
1, 29277, Control_c, 0, 64, 42
1, 29292, Control_c, 0, 64, 0
1, 29298, Note_off_c, 0, 68, 55
1, 29370, Note_on_c, 0, 75, 51
1, 29430, Note_off_c, 0, 75, 52
1, 29486, Note_on_c, 0, 80, 44
1, 29574, Note_off_c, 0, 80, 58
1, 29617, Note_on_c, 0, 83, 42
1, 29654, Note_off_c, 0, 83, 55
1, 29768, Note_on_c, 0, 87, 27
1, 29817, Note_off_c, 0, 87, 43
1, 30006, Note_on_c, 0, 92, 48
1, 30038, Note_off_c, 0, 92, 64
1, 31188, Note_on_c, 0, 71, 42
1, 31212, Note_off_c, 0, 71, 54
1, 31301, Note_on_c, 0, 70, 55
1, 31311, Note_on_c, 0, 67, 43
1, 31323, Note_off_c, 0, 70, 62
1, 31337, Note_off_c, 0, 67, 55
1, 31388, Control_c, 0, 67, 124
1, 31403, Control_c, 0, 67, 119
1, 31418, Control_c, 0, 67, 112
1, 31430, Note_on_c, 0, 71, 74
1, 31433, Control_c, 0, 67, 104
1, 31448, Control_c, 0, 67, 91
1, 31454, Note_off_c, 0, 71, 67
1, 31462, Control_c, 0, 67, 78
1, 31477, Control_c, 0, 67, 62
1, 31492, Control_c, 0, 67, 48
1, 31507, Control_c, 0, 67, 36
1, 31522, Control_c, 0, 67, 25
1, 31536, Control_c, 0, 67, 16
1, 31551, Control_c, 0, 67, 9
1, 31553, Note_on_c, 0, 69, 60
1, 31560, Note_on_c, 0, 66, 47
1, 31566, Control_c, 0, 67, 0
1, 31582, Note_off_c, 0, 69, 63
1, 31585, Note_off_c, 0, 66, 57
1, 31677, Note_on_c, 0, 71, 76
1, 31699, Note_off_c, 0, 71, 68
1, 31700, Control_c, 0, 67, 9
1, 31715, Control_c, 0, 67, 13
1, 31730, Control_c, 0, 67, 17
1, 31745, Control_c, 0, 67, 23
1, 31759, Control_c, 0, 67, 36
1, 31774, Control_c, 0, 67, 50
1, 31789, Control_c, 0, 67, 66
1, 31793, Note_on_c, 0, 68, 53
1, 31801, Note_on_c, 0, 65, 47
1, 31804, Control_c, 0, 67, 81
1, 31817, Note_off_c, 0, 68, 61
1, 31819, Control_c, 0, 67, 92
1, 31825, Note_off_c, 0, 65, 58
1, 31833, Control_c, 0, 67, 101
1, 31848, Control_c, 0, 67, 108
1, 31863, Control_c, 0, 67, 111
1, 31877, Control_c, 0, 67, 112
1, 31922, Note_on_c, 0, 71, 60
1, 31922, Control_c, 0, 67, 112
1, 31961, Note_off_c, 0, 71, 64
1, 31974, Control_c, 0, 67, 111
1, 31989, Control_c, 0, 67, 111
1, 32004, Control_c, 0, 67, 110
1, 32019, Control_c, 0, 67, 109
1, 32033, Control_c, 0, 67, 109
1, 32038, Note_on_c, 0, 67, 44
1, 32041, Note_on_c, 0, 64, 38
1, 32063, Control_c, 0, 67, 108
1, 32064, Note_off_c, 0, 67, 56
1, 32071, Note_off_c, 0, 64, 54
1, 32078, Control_c, 0, 67, 108
1, 32092, Control_c, 0, 67, 107
1, 32122, Control_c, 0, 67, 107
1, 32137, Control_c, 0, 67, 106
1, 32148, Note_on_c, 0, 73, 64
1, 32195, Note_off_c, 0, 73, 57
1, 32206, Note_on_c, 0, 71, 63
1, 32235, Note_off_c, 0, 71, 65
1, 32258, Note_on_c, 0, 70, 62
1, 32296, Note_off_c, 0, 70, 62
1, 32310, Note_on_c, 0, 71, 76
1, 32342, Note_off_c, 0, 71, 57
1, 32383, Note_on_c, 0, 66, 54
1, 32396, Note_on_c, 0, 59, 43
1, 32402, Note_on_c, 0, 63, 39
1, 32404, Control_c, 0, 67, 106
1, 32412, Note_off_c, 0, 66, 61
1, 32422, Note_off_c, 0, 59, 57
1, 32429, Note_off_c, 0, 63, 55
1, 32494, Note_on_c, 0, 90, 70
1, 32518, Note_off_c, 0, 90, 67
1, 32582, Control_c, 0, 64, 12
1, 32597, Control_c, 0, 64, 47
1, 32612, Control_c, 0, 64, 61
1, 32626, Control_c, 0, 64, 65
1, 32630, Note_on_c, 0, 71, 64
1, 32641, Control_c, 0, 64, 69
1, 32642, Note_on_c, 0, 66, 42
1, 32645, Note_on_c, 0, 54, 36
1, 32649, Note_off_c, 0, 71, 65
1, 32651, Note_on_c, 0, 63, 24
1, 32656, Control_c, 0, 64, 73
1, 32656, Control_c, 0, 67, 105
1, 32671, Control_c, 0, 64, 75
1, 32694, Control_c, 0, 64, 77
1, 32708, Control_c, 0, 64, 79
1, 32723, Control_c, 0, 64, 80
1, 32738, Control_c, 0, 64, 81
1, 32753, Control_c, 0, 64, 81
1, 32761, Note_on_c, 0, 90, 45
1, 32768, Control_c, 0, 64, 82
1, 32782, Control_c, 0, 64, 83
1, 32784, Note_off_c, 0, 90, 59
1, 32812, Control_c, 0, 64, 83
1, 32856, Control_c, 0, 64, 83
1, 32864, Note_off_c, 0, 54, 52
1, 32871, Control_c, 0, 64, 79
1, 32875, Note_off_c, 0, 63, 58
1, 32881, Note_on_c, 0, 75, 66
1, 32882, Note_off_c, 0, 66, 55
1, 32886, Control_c, 0, 64, 70
1, 32901, Control_c, 0, 64, 59
1, 32915, Control_c, 0, 64, 0
1, 32933, Note_on_c, 0, 73, 70
1, 32943, Note_off_c, 0, 75, 62
1, 32972, Note_off_c, 0, 73, 59
1, 32986, Note_on_c, 0, 72, 69
1, 33019, Control_c, 0, 67, 105
1, 33033, Control_c, 0, 67, 104
1, 33036, Note_on_c, 0, 73, 78
1, 33041, Note_off_c, 0, 72, 63
1, 33048, Control_c, 0, 67, 102
1, 33063, Control_c, 0, 67, 100
1, 33064, Note_off_c, 0, 73, 64
1, 33078, Control_c, 0, 67, 98
1, 33093, Control_c, 0, 67, 95
1, 33108, Control_c, 0, 67, 92
1, 33111, Note_on_c, 0, 66, 57
1, 33117, Note_on_c, 0, 64, 47
1, 33122, Control_c, 0, 67, 87
1, 33123, Note_on_c, 0, 58, 45
1, 33137, Control_c, 0, 67, 83
1, 33140, Note_off_c, 0, 66, 61
1, 33143, Note_off_c, 0, 64, 57
1, 33152, Control_c, 0, 67, 81
1, 33154, Note_off_c, 0, 58, 60
1, 33167, Control_c, 0, 67, 80
1, 33196, Control_c, 0, 67, 80
1, 33206, Note_on_c, 0, 90, 76
1, 33211, Control_c, 0, 67, 79
1, 33236, Note_off_c, 0, 90, 57
1, 33240, Control_c, 0, 67, 79
1, 33256, Control_c, 0, 67, 78
1, 33271, Control_c, 0, 67, 77
1, 33286, Control_c, 0, 67, 74
1, 33301, Control_c, 0, 64, 50
1, 33301, Control_c, 0, 67, 69
1, 33316, Control_c, 0, 64, 62
1, 33316, Control_c, 0, 67, 63
1, 33330, Control_c, 0, 64, 65
1, 33330, Control_c, 0, 67, 54
1, 33340, Note_on_c, 0, 64, 46
1, 33343, Note_on_c, 0, 73, 75
1, 33345, Control_c, 0, 64, 67
1, 33345, Control_c, 0, 67, 41
1, 33346, Note_on_c, 0, 54, 50
1, 33352, Note_on_c, 0, 66, 48
1, 33360, Control_c, 0, 64, 70
1, 33360, Control_c, 0, 67, 27
1, 33367, Note_off_c, 0, 73, 68
1, 33375, Control_c, 0, 64, 72
1, 33375, Control_c, 0, 67, 13
1, 33377, Note_off_c, 0, 54, 61
1, 33377, Note_off_c, 0, 66, 57
1, 33383, Note_off_c, 0, 64, 64
1, 33390, Control_c, 0, 64, 74
1, 33390, Control_c, 0, 67, 0
1, 33404, Control_c, 0, 64, 76
1, 33419, Control_c, 0, 64, 77
1, 33442, Control_c, 0, 64, 78
1, 33456, Control_c, 0, 64, 79
1, 33471, Control_c, 0, 64, 80
1, 33478, Note_on_c, 0, 90, 55
1, 33497, Note_off_c, 0, 90, 65
1, 33545, Control_c, 0, 64, 77
1, 33560, Control_c, 0, 64, 71
1, 33575, Control_c, 0, 64, 62
1, 33590, Control_c, 0, 64, 0
1, 33609, Note_on_c, 0, 76, 43
1, 33618, Note_on_c, 0, 77, 39
1, 33642, Note_off_c, 0, 76, 65
1, 33646, Note_off_c, 0, 77, 52
1, 33651, Note_on_c, 0, 75, 65
1, 33684, Note_off_c, 0, 75, 62
1, 33706, Note_on_c, 0, 74, 57
1, 33753, Note_off_c, 0, 74, 59
1, 33761, Note_on_c, 0, 75, 67
1, 33787, Note_off_c, 0, 75, 66
1, 33867, Note_on_c, 0, 71, 35
1, 33869, Note_on_c, 0, 59, 29
1, 33871, Note_on_c, 0, 63, 32
1, 33871, Control_c, 0, 64, 32
1, 33886, Control_c, 0, 64, 56
1, 33901, Control_c, 0, 64, 62
1, 33916, Control_c, 0, 64, 64
1, 33930, Control_c, 0, 64, 66
1, 33945, Control_c, 0, 64, 68
1, 33960, Control_c, 0, 64, 71
1, 33974, Control_c, 0, 64, 74
1, 33983, Note_off_c, 0, 59, 36
1, 33989, Control_c, 0, 64, 76
1, 34004, Control_c, 0, 64, 79
1, 34005, Note_off_c, 0, 71, 57
1, 34019, Control_c, 0, 64, 81
1, 34029, Note_on_c, 0, 90, 60
1, 34034, Control_c, 0, 64, 83
1, 34050, Control_c, 0, 64, 84
1, 34059, Note_off_c, 0, 90, 67
1, 34065, Control_c, 0, 64, 85
1, 34066, Note_off_c, 0, 63, 35
1, 34079, Control_c, 0, 64, 85
1, 34109, Control_c, 0, 64, 86
1, 34339, Control_c, 0, 64, 85
1, 34368, Control_c, 0, 64, 83
1, 34372, Note_on_c, 0, 75, 65
1, 34383, Control_c, 0, 64, 79
1, 34398, Control_c, 0, 64, 71
1, 34399, Note_off_c, 0, 75, 67
1, 34412, Control_c, 0, 64, 61
1, 34427, Control_c, 0, 64, 0
1, 34504, Note_on_c, 0, 74, 62
1, 34508, Note_on_c, 0, 71, 55
1, 34528, Note_off_c, 0, 71, 62
1, 34533, Note_off_c, 0, 74, 64
1, 34625, Note_on_c, 0, 75, 86
1, 34664, Note_off_c, 0, 75, 60
1, 34750, Note_on_c, 0, 73, 63
1, 34762, Note_on_c, 0, 70, 52
1, 34777, Note_off_c, 0, 73, 67
1, 34784, Note_off_c, 0, 70, 61
1, 34888, Note_on_c, 0, 75, 84
1, 34917, Note_off_c, 0, 75, 62
1, 35015, Note_on_c, 0, 72, 57
1, 35023, Note_on_c, 0, 69, 47
1, 35034, Note_off_c, 0, 72, 61
1, 35046, Note_off_c, 0, 69, 57
1, 35143, Note_on_c, 0, 75, 77
1, 35169, Note_off_c, 0, 75, 65
1, 35259, Note_on_c, 0, 71, 56
1, 35266, Note_on_c, 0, 68, 47
1, 35280, Note_off_c, 0, 71, 63
1, 35291, Note_off_c, 0, 68, 57
1, 35375, Note_on_c, 0, 77, 66
1, 35418, Note_on_c, 0, 75, 69
1, 35419, Note_off_c, 0, 77, 59
1, 35463, Note_off_c, 0, 75, 57
1, 35476, Note_on_c, 0, 74, 68
1, 35531, Note_on_c, 0, 75, 73
1, 35534, Note_off_c, 0, 74, 64
1, 35565, Note_off_c, 0, 75, 61
1, 35584, Note_on_c, 0, 70, 67
1, 35597, Note_on_c, 0, 63, 55
1, 35599, Note_on_c, 0, 66, 52
1, 35612, Note_off_c, 0, 70, 66
1, 35628, Note_off_c, 0, 63, 62
1, 35631, Note_off_c, 0, 66, 61
1, 35710, Note_on_c, 0, 94, 87
1, 35755, Note_off_c, 0, 94, 63
1, 35837, Control_c, 0, 64, 31
1, 35851, Note_on_c, 0, 70, 53
1, 35851, Control_c, 0, 64, 57
1, 35853, Note_on_c, 0, 75, 70
1, 35856, Note_on_c, 0, 66, 44
1, 35866, Note_on_c, 0, 58, 41
1, 35866, Control_c, 0, 64, 63
1, 35878, Note_off_c, 0, 75, 68
1, 35881, Control_c, 0, 64, 66
1, 35896, Control_c, 0, 64, 70
1, 35911, Control_c, 0, 64, 77
1, 35925, Control_c, 0, 64, 82
1, 35940, Control_c, 0, 64, 87
1, 35955, Control_c, 0, 64, 92
1, 35958, Note_on_c, 0, 94, 76
1, 35970, Control_c, 0, 64, 95
1, 35984, Control_c, 0, 64, 96
1, 35988, Note_off_c, 0, 94, 58
1, 35999, Control_c, 0, 64, 97
1, 36044, Control_c, 0, 64, 96
1, 36059, Control_c, 0, 64, 87
1, 36064, Note_off_c, 0, 58, 53
1, 36074, Control_c, 0, 64, 74
1, 36087, Note_off_c, 0, 70, 56
1, 36089, Note_off_c, 0, 66, 56
1, 36089, Control_c, 0, 64, 59
1, 36104, Control_c, 0, 64, 0
1, 36106, Note_on_c, 0, 78, 68
1, 36162, Note_off_c, 0, 78, 63
1, 36163, Note_on_c, 0, 77, 64
1, 36193, Note_off_c, 0, 77, 63
1, 36211, Note_on_c, 0, 76, 65
1, 36274, Note_off_c, 0, 76, 64
1, 36275, Note_on_c, 0, 77, 82
1, 36307, Note_off_c, 0, 77, 61
1, 36320, Note_on_c, 0, 70, 66
1, 36329, Note_on_c, 0, 68, 59
1, 36339, Note_on_c, 0, 62, 45
1, 36353, Note_off_c, 0, 70, 61
1, 36366, Note_off_c, 0, 68, 59
1, 36379, Note_off_c, 0, 62, 61
1, 36441, Note_on_c, 0, 94, 89
1, 36498, Note_off_c, 0, 94, 59
1, 36571, Control_c, 0, 64, 16
1, 36584, Note_on_c, 0, 70, 55
1, 36585, Note_on_c, 0, 77, 79
1, 36586, Control_c, 0, 64, 56
1, 36590, Note_on_c, 0, 68, 51
1, 36596, Note_on_c, 0, 58, 45
1, 36600, Control_c, 0, 64, 63
1, 36614, Note_off_c, 0, 77, 65
1, 36615, Control_c, 0, 64, 66
1, 36630, Control_c, 0, 64, 68
1, 36631, Note_off_c, 0, 70, 56
1, 36639, Note_off_c, 0, 58, 59
1, 36645, Control_c, 0, 64, 72
1, 36660, Control_c, 0, 64, 76
1, 36671, Note_off_c, 0, 68, 51
1, 36674, Control_c, 0, 64, 80
1, 36689, Control_c, 0, 64, 84
1, 36696, Note_on_c, 0, 94, 76
1, 36704, Control_c, 0, 64, 87
1, 36717, Note_off_c, 0, 94, 68
1, 36719, Control_c, 0, 64, 88
1, 36734, Control_c, 0, 64, 89
1, 36793, Control_c, 0, 64, 84
1, 36807, Control_c, 0, 64, 74
1, 36822, Control_c, 0, 64, 63
1, 36837, Note_on_c, 0, 80, 71
1, 36837, Control_c, 0, 64, 0
1, 36896, Note_on_c, 0, 78, 73
1, 36900, Note_off_c, 0, 80, 63
1, 36941, Note_off_c, 0, 78, 58
1, 36951, Note_on_c, 0, 77, 63
1, 37010, Note_on_c, 0, 78, 73
1, 37015, Note_off_c, 0, 77, 63
1, 37043, Note_off_c, 0, 78, 64
1, 37090, Note_on_c, 0, 75, 42
1, 37103, Note_on_c, 0, 63, 34
1, 37103, Control_c, 0, 64, 51
1, 37109, Note_on_c, 0, 66, 32
1, 37117, Control_c, 0, 64, 60
1, 37132, Control_c, 0, 64, 63
1, 37147, Control_c, 0, 64, 64
1, 37162, Control_c, 0, 64, 65
1, 37185, Control_c, 0, 64, 67
1, 37199, Control_c, 0, 64, 69
1, 37214, Control_c, 0, 64, 71
1, 37216, Note_off_c, 0, 63, 34
1, 37229, Control_c, 0, 64, 73
1, 37244, Control_c, 0, 64, 75
1, 37260, Control_c, 0, 64, 77
1, 37272, Note_on_c, 0, 94, 63
1, 37275, Note_off_c, 0, 75, 47
1, 37275, Control_c, 0, 64, 78
1, 37290, Control_c, 0, 64, 79
1, 37304, Control_c, 0, 64, 79
1, 37306, Note_off_c, 0, 66, 40
1, 37311, Note_off_c, 0, 94, 58
1, 37349, Control_c, 0, 64, 80
1, 37541, Control_c, 0, 64, 79
1, 37555, Control_c, 0, 64, 77
1, 37570, Control_c, 0, 64, 73
1, 37585, Control_c, 0, 64, 64
1, 37586, Note_on_c, 0, 78, 69
1, 37600, Control_c, 0, 64, 0
1, 37612, Note_off_c, 0, 78, 67
1, 37704, Note_on_c, 0, 77, 72
1, 37715, Note_on_c, 0, 74, 60
1, 37728, Note_off_c, 0, 77, 68
1, 37743, Note_off_c, 0, 74, 63
1, 37835, Note_on_c, 0, 78, 91
1, 37877, Note_off_c, 0, 78, 66
1, 37964, Note_on_c, 0, 76, 70
1, 37971, Note_on_c, 0, 73, 58
1, 37988, Note_off_c, 0, 76, 70
1, 38005, Note_off_c, 0, 73, 64
1, 38104, Note_on_c, 0, 78, 76
1, 38128, Note_off_c, 0, 78, 67
1, 38224, Note_on_c, 0, 75, 51
1, 38233, Note_on_c, 0, 72, 48
1, 38250, Note_off_c, 0, 75, 58
1, 38261, Note_off_c, 0, 72, 55
1, 38351, Note_on_c, 0, 78, 76
1, 38379, Note_off_c, 0, 78, 63
1, 38468, Note_on_c, 0, 71, 50
1, 38470, Note_on_c, 0, 74, 50
1, 38491, Note_off_c, 0, 71, 59
1, 38492, Note_off_c, 0, 74, 60
1, 38570, Note_on_c, 0, 80, 67
1, 38610, Note_on_c, 0, 78, 76
1, 38632, Note_off_c, 0, 80, 62
1, 38664, Note_off_c, 0, 78, 63
1, 38685, Note_on_c, 0, 77, 65
1, 38730, Note_on_c, 0, 78, 77
1, 38744, Note_off_c, 0, 77, 64
1, 38775, Note_off_c, 0, 78, 64
1, 38791, Note_on_c, 0, 73, 73
1, 38804, Note_on_c, 0, 70, 58
1, 38807, Note_on_c, 0, 66, 56
1, 38816, Note_off_c, 0, 73, 66
1, 38831, Note_off_c, 0, 70, 62
1, 38840, Note_off_c, 0, 66, 61
1, 38899, Note_on_c, 0, 97, 88
1, 38953, Note_off_c, 0, 97, 61
1, 39037, Note_on_c, 0, 78, 79
1, 39040, Control_c, 0, 64, 19
1, 39046, Note_on_c, 0, 73, 59
1, 39054, Note_on_c, 0, 61, 53
1, 39055, Control_c, 0, 64, 58
1, 39061, Note_on_c, 0, 70, 59
1, 39068, Note_off_c, 0, 78, 65
1, 39070, Control_c, 0, 64, 64
1, 39084, Control_c, 0, 64, 66
1, 39099, Control_c, 0, 64, 69
1, 39114, Control_c, 0, 64, 73
1, 39128, Control_c, 0, 64, 76
1, 39143, Control_c, 0, 64, 80
1, 39150, Note_on_c, 0, 97, 74
1, 39158, Control_c, 0, 64, 82
1, 39173, Control_c, 0, 64, 84
1, 39174, Note_off_c, 0, 97, 63
1, 39188, Control_c, 0, 64, 85
1, 39247, Control_c, 0, 64, 82
1, 39262, Control_c, 0, 64, 71
1, 39272, Note_off_c, 0, 61, 55
1, 39276, Control_c, 0, 64, 57
1, 39285, Note_off_c, 0, 73, 58
1, 39287, Note_off_c, 0, 70, 58
1, 39291, Control_c, 0, 64, 0
1, 39323, Note_on_c, 0, 83, 44
1, 39338, Note_on_c, 0, 80, 67
1, 39347, Note_off_c, 0, 83, 58
1, 39376, Note_off_c, 0, 80, 52
1, 39396, Note_on_c, 0, 79, 67
1, 39442, Note_on_c, 0, 80, 82
1, 39448, Note_off_c, 0, 79, 64
1, 39475, Note_off_c, 0, 80, 63
1, 39514, Note_on_c, 0, 73, 75
1, 39526, Note_on_c, 0, 71, 63
1, 39540, Note_on_c, 0, 65, 50
1, 39553, Note_off_c, 0, 73, 53
1, 39556, Note_off_c, 0, 71, 64
1, 39579, Note_off_c, 0, 65, 63
1, 39627, Note_on_c, 0, 97, 88
1, 39678, Note_off_c, 0, 97, 61
1, 39765, Note_on_c, 0, 80, 87
1, 39766, Note_on_c, 0, 73, 58
1, 39771, Note_on_c, 0, 61, 48
1, 39773, Control_c, 0, 64, 41
1, 39780, Note_on_c, 0, 71, 35
1, 39788, Control_c, 0, 64, 62
1, 39796, Note_off_c, 0, 61, 58
1, 39797, Note_off_c, 0, 73, 59
1, 39803, Control_c, 0, 64, 66
1, 39809, Note_off_c, 0, 71, 49
1, 39809, Note_off_c, 0, 80, 59
1, 39818, Control_c, 0, 64, 69
1, 39833, Control_c, 0, 64, 74
1, 39848, Control_c, 0, 64, 78
1, 39863, Control_c, 0, 64, 84
1, 39878, Control_c, 0, 64, 87
1, 39879, Note_on_c, 0, 97, 85
1, 39892, Control_c, 0, 64, 90
1, 39907, Control_c, 0, 64, 90
1, 39922, Control_c, 0, 64, 91
1, 39934, Note_off_c, 0, 97, 61
1, 39966, Control_c, 0, 64, 87
1, 39981, Control_c, 0, 64, 75
1, 39996, Control_c, 0, 64, 60
1, 40003, Note_on_c, 0, 78, 58
1, 40011, Control_c, 0, 64, 0
1, 40015, Note_on_c, 0, 82, 84
1, 40031, Note_off_c, 0, 78, 66
1, 40038, Note_off_c, 0, 82, 63
1, 40122, Note_on_c, 0, 83, 77
1, 40134, Note_on_c, 0, 80, 61
1, 40136, Note_on_c, 0, 66, 58
1, 40152, Note_off_c, 0, 80, 63
1, 40173, Note_off_c, 0, 83, 62
1, 40176, Note_off_c, 0, 66, 62
1, 40270, Control_c, 0, 64, 61
1, 40271, Note_on_c, 0, 85, 90
1, 40276, Note_on_c, 0, 82, 66
1, 40284, Control_c, 0, 64, 65
1, 40292, Note_off_c, 0, 82, 67
1, 40299, Control_c, 0, 64, 67
1, 40314, Control_c, 0, 64, 70
1, 40329, Control_c, 0, 64, 75
1, 40342, Note_off_c, 0, 85, 58
1, 40343, Control_c, 0, 64, 82
1, 40358, Control_c, 0, 64, 91
1, 40373, Control_c, 0, 64, 97
1, 40380, Note_on_c, 0, 94, 51
1, 40388, Control_c, 0, 64, 99
1, 40393, Note_on_c, 0, 97, 79
1, 40417, Control_c, 0, 64, 98
1, 40422, Note_off_c, 0, 97, 58
1, 40432, Control_c, 0, 64, 92
1, 40437, Note_off_c, 0, 94, 63
1, 40448, Control_c, 0, 64, 79
1, 40463, Control_c, 0, 64, 63
1, 40478, Control_c, 0, 64, 0
1, 40523, Note_on_c, 0, 83, 74
1, 40536, Note_on_c, 0, 80, 40
1, 40565, Note_off_c, 0, 80, 49
1, 40571, Note_off_c, 0, 83, 61
1, 40640, Note_on_c, 0, 82, 74
1, 40649, Note_on_c, 0, 78, 37
1, 40673, Note_off_c, 0, 82, 60
1, 40679, Note_off_c, 0, 78, 51
1, 40765, Note_on_c, 0, 80, 81
1, 40814, Note_off_c, 0, 80, 59
1, 40872, Note_on_c, 0, 82, 85
1, 40881, Note_on_c, 0, 73, 58
1, 40882, Note_on_c, 0, 59, 50
1, 40900, Note_off_c, 0, 73, 63
1, 40906, Note_off_c, 0, 59, 57
1, 40925, Note_off_c, 0, 82, 60
1, 41012, Note_on_c, 0, 83, 92
1, 41019, Control_c, 0, 64, 17
1, 41034, Control_c, 0, 64, 56
1, 41034, Note_on_c, 0, 75, 63
1, 41048, Control_c, 0, 64, 63
1, 41052, Note_off_c, 0, 75, 63
1, 41063, Control_c, 0, 64, 64
1, 41078, Control_c, 0, 64, 66
1, 41093, Control_c, 0, 64, 68
1, 41094, Note_off_c, 0, 83, 60
1, 41107, Control_c, 0, 64, 70
1, 41122, Control_c, 0, 64, 72
1, 41126, Note_on_c, 0, 95, 83
1, 41128, Note_on_c, 0, 87, 77
1, 41137, Control_c, 0, 64, 73
1, 41154, Poly_aftertouch_c, 0, 93, 0
1, 41166, Control_c, 0, 64, 72
1, 41181, Control_c, 0, 64, 67
1, 41196, Control_c, 0, 64, 42
1, 41201, Note_off_c, 0, 87, 56
1, 41201, Note_off_c, 0, 95, 58
1, 41211, Control_c, 0, 64, 0
1, 41246, Note_on_c, 0, 73, 61
1, 41255, Note_on_c, 0, 82, 74
1, 41276, Note_off_c, 0, 73, 65
1, 41299, Note_off_c, 0, 82, 58
1, 41371, Note_on_c, 0, 80, 69
1, 41386, Note_on_c, 0, 71, 26
1, 41401, Note_off_c, 0, 80, 58
1, 41419, Control_c, 0, 67, 11
1, 41422, Note_off_c, 0, 71, 41
1, 41434, Control_c, 0, 67, 18
1, 41449, Control_c, 0, 67, 28
1, 41463, Control_c, 0, 67, 39
1, 41478, Control_c, 0, 67, 51
1, 41493, Control_c, 0, 67, 61
1, 41498, Note_on_c, 0, 78, 68
1, 41506, Note_on_c, 0, 70, 43
1, 41508, Control_c, 0, 67, 73
1, 41523, Control_c, 0, 67, 82
1, 41527, Note_off_c, 0, 78, 64
1, 41532, Note_off_c, 0, 70, 57
1, 41538, Control_c, 0, 67, 91
1, 41553, Control_c, 0, 67, 100
1, 41568, Control_c, 0, 67, 108
1, 41583, Control_c, 0, 67, 115
1, 41597, Control_c, 0, 67, 123
1, 41602, Note_on_c, 0, 80, 64
1, 41603, Note_on_c, 0, 71, 38
1, 41612, Control_c, 0, 67, 127
1, 41629, Note_off_c, 0, 80, 68
1, 41630, Note_off_c, 0, 71, 53
1, 41708, Control_c, 0, 64, 37
1, 41723, Control_c, 0, 64, 58
1, 41738, Control_c, 0, 64, 62
1, 41747, Note_on_c, 0, 73, 45
1, 41750, Note_on_c, 0, 82, 67
1, 41753, Control_c, 0, 64, 63
1, 41767, Control_c, 0, 64, 64
1, 41772, Note_off_c, 0, 73, 58
1, 41782, Control_c, 0, 64, 66
1, 41788, Note_off_c, 0, 82, 55
1, 41797, Control_c, 0, 64, 67
1, 41812, Control_c, 0, 64, 68
1, 41827, Control_c, 0, 64, 70
1, 41842, Control_c, 0, 64, 71
1, 41856, Control_c, 0, 64, 71
1, 41862, Note_on_c, 0, 94, 67
1, 41869, Note_on_c, 0, 85, 53
1, 41897, Note_off_c, 0, 94, 56
1, 41913, Note_off_c, 0, 85, 56
1, 41916, Control_c, 0, 64, 70
1, 41930, Control_c, 0, 64, 66
1, 41945, Control_c, 0, 64, 50
1, 41960, Control_c, 0, 64, 0
1, 41998, Note_on_c, 0, 80, 56
1, 42006, Note_on_c, 0, 71, 20
1, 42027, Note_off_c, 0, 80, 63
1, 42045, Note_off_c, 0, 71, 39
1, 42102, Note_on_c, 0, 78, 58
1, 42107, Note_on_c, 0, 70, 49
1, 42134, Note_off_c, 0, 70, 57
1, 42137, Note_off_c, 0, 78, 60
1, 42232, Note_on_c, 0, 68, 45
1, 42238, Note_on_c, 0, 77, 52
1, 42270, Note_off_c, 0, 77, 62
1, 42272, Note_off_c, 0, 68, 56
1, 42333, Note_on_c, 0, 70, 39
1, 42333, Note_on_c, 0, 78, 63
1, 42360, Note_off_c, 0, 70, 55
1, 42361, Control_c, 0, 64, 45
1, 42361, Note_off_c, 0, 78, 67
1, 42376, Control_c, 0, 64, 58
1, 42390, Control_c, 0, 64, 61
1, 42405, Control_c, 0, 64, 63
1, 42427, Control_c, 0, 64, 63
1, 42442, Control_c, 0, 64, 64
1, 42457, Control_c, 0, 64, 65
1, 42471, Control_c, 0, 64, 65
1, 42483, Note_on_c, 0, 71, 38
1, 42483, Note_on_c, 0, 80, 61
1, 42486, Control_c, 0, 64, 66
1, 42510, Note_off_c, 0, 80, 68
1, 42512, Note_off_c, 0, 71, 49
1, 42516, Control_c, 0, 64, 66
1, 42573, Note_on_c, 0, 92, 65
1, 42584, Note_on_c, 0, 83, 53
1, 42596, Note_off_c, 0, 92, 69
1, 42604, Note_off_c, 0, 83, 62
1, 42650, Control_c, 0, 64, 66
1, 42664, Control_c, 0, 64, 64
1, 42679, Control_c, 0, 64, 57
1, 42694, Control_c, 0, 64, 0
1, 42732, Note_on_c, 0, 75, 58
1, 42742, Note_on_c, 0, 66, 43
1, 42760, Note_off_c, 0, 75, 66
1, 42794, Note_off_c, 0, 66, 60
1, 42829, Note_on_c, 0, 77, 62
1, 42868, Note_off_c, 0, 77, 57
1, 42951, Note_on_c, 0, 54, 29
1, 42976, Control_c, 0, 64, 52
1, 42985, Note_off_c, 0, 54, 46
1, 42991, Control_c, 0, 64, 63
1, 43006, Control_c, 0, 64, 65
1, 43021, Control_c, 0, 64, 67
1, 43029, Note_on_c, 0, 78, 56
1, 43036, Control_c, 0, 64, 69
1, 43049, Note_on_c, 0, 70, 42
1, 43050, Control_c, 0, 64, 71
1, 43065, Control_c, 0, 64, 73
1, 43073, Note_off_c, 0, 78, 56
1, 43076, Note_off_c, 0, 70, 55
1, 43080, Control_c, 0, 64, 75
1, 43094, Control_c, 0, 64, 76
1, 43109, Control_c, 0, 64, 77
1, 43124, Control_c, 0, 64, 78
1, 43171, Note_on_c, 0, 90, 63
1, 43173, Note_on_c, 0, 82, 57
1, 43176, Control_c, 0, 64, 78
1, 43216, Note_off_c, 0, 82, 52
1, 43280, Control_c, 0, 64, 77
1, 43294, Control_c, 0, 64, 73
1, 43309, Control_c, 0, 64, 69
1, 43311, Note_on_c, 0, 66, 68
1, 43315, Note_off_c, 0, 90, 47
1, 43324, Control_c, 0, 64, 66
1, 43339, Control_c, 0, 64, 66
1, 43354, Control_c, 0, 64, 66
1, 43368, Control_c, 0, 64, 68
1, 43383, Control_c, 0, 64, 72
1, 43398, Control_c, 0, 64, 80
1, 43413, Control_c, 0, 64, 90
1, 43413, Note_on_c, 0, 78, 80
1, 43425, Note_off_c, 0, 66, 54
1, 43428, Control_c, 0, 64, 112
1, 43428, Control_c, 0, 67, 123
1, 43443, Control_c, 0, 64, 127
1, 43443, Control_c, 0, 67, 107
1, 43458, Control_c, 0, 67, 83
1, 43473, Control_c, 0, 67, 54
1, 43480, Note_off_c, 0, 78, 63
1, 43487, Control_c, 0, 67, 15
1, 43502, Control_c, 0, 67, 0
1, 43541, Note_on_c, 0, 67, 80
1, 43653, Note_on_c, 0, 79, 83
1, 43699, Note_off_c, 0, 79, 61
1, 43744, Note_off_c, 0, 67, 59
1, 43781, Note_on_c, 0, 68, 93
1, 43845, Note_off_c, 0, 68, 62
1, 43887, Note_on_c, 0, 80, 74
1, 43935, Note_off_c, 0, 80, 59
1, 44014, Control_c, 0, 64, 91
1, 44022, Note_on_c, 0, 92, 97
1, 44029, Control_c, 0, 64, 64
1, 44035, Note_on_c, 0, 64, 64
1, 44036, Note_on_c, 0, 68, 63
1, 44043, Control_c, 0, 64, 0
1, 44065, Note_off_c, 0, 68, 63
1, 44069, Note_off_c, 0, 64, 62
1, 44111, Note_off_c, 0, 92, 60
1, 44137, Note_on_c, 0, 80, 70
1, 44217, Note_off_c, 0, 80, 60
1, 44261, Note_on_c, 0, 63, 47
1, 44265, Note_on_c, 0, 92, 72
1, 44265, Control_c, 0, 67, 11
1, 44271, Note_on_c, 0, 68, 27
1, 44280, Control_c, 0, 67, 17
1, 44290, Note_off_c, 0, 63, 56
1, 44295, Control_c, 0, 67, 24
1, 44308, Note_off_c, 0, 68, 46
1, 44310, Control_c, 0, 67, 33
1, 44325, Control_c, 0, 67, 42
1, 44328, Note_off_c, 0, 92, 61
1, 44340, Control_c, 0, 67, 50
1, 44353, Control_c, 0, 67, 57
1, 44368, Control_c, 0, 67, 64
1, 44376, Note_on_c, 0, 78, 59
1, 44382, Control_c, 0, 67, 72
1, 44397, Control_c, 0, 67, 79
1, 44412, Control_c, 0, 67, 87
1, 44427, Note_off_c, 0, 78, 54
1, 44427, Control_c, 0, 67, 95
1, 44443, Control_c, 0, 67, 104
1, 44457, Control_c, 0, 67, 112
1, 44472, Control_c, 0, 64, 47
1, 44472, Control_c, 0, 67, 120
1, 44481, Note_on_c, 0, 68, 13
1, 44486, Note_on_c, 0, 61, 35
1, 44487, Control_c, 0, 64, 61
1, 44487, Control_c, 0, 67, 127
1, 44502, Control_c, 0, 64, 65
1, 44511, Note_on_c, 0, 92, 64
1, 44517, Control_c, 0, 64, 67
1, 44518, Note_off_c, 0, 61, 50
1, 44531, Note_off_c, 0, 68, 38
1, 44532, Control_c, 0, 64, 69
1, 44534, Note_off_c, 0, 92, 69
1, 44546, Control_c, 0, 64, 71
1, 44561, Control_c, 0, 64, 73
1, 44576, Control_c, 0, 64, 73
1, 44591, Control_c, 0, 64, 74
1, 44605, Control_c, 0, 64, 74
1, 44616, Note_on_c, 0, 76, 52
1, 44635, Control_c, 0, 64, 75
1, 44636, Note_off_c, 0, 76, 62
1, 44702, Control_c, 0, 64, 74
1, 44717, Control_c, 0, 64, 72
1, 44732, Control_c, 0, 64, 68
1, 44746, Control_c, 0, 64, 61
1, 44754, Note_on_c, 0, 102, 57
1, 44761, Control_c, 0, 64, 17
1, 44774, Note_off_c, 0, 102, 62
1, 44776, Control_c, 0, 64, 0
1, 44790, Note_on_c, 0, 75, 19
1, 44826, Note_off_c, 0, 75, 41
1, 44875, Note_on_c, 0, 80, 46
1, 44896, Note_off_c, 0, 80, 62
1, 44993, Note_on_c, 0, 100, 67
1, 45014, Note_off_c, 0, 100, 65
1, 45115, Note_on_c, 0, 80, 56
1, 45118, Note_on_c, 0, 56, 36
1, 45139, Note_off_c, 0, 80, 63
1, 45148, Note_off_c, 0, 56, 48
1, 45222, Note_on_c, 0, 99, 74
1, 45243, Note_off_c, 0, 99, 69
1, 45249, Note_on_c, 0, 72, 42
1, 45273, Note_off_c, 0, 72, 54
1, 45371, Note_on_c, 0, 80, 23
1, 45414, Note_off_c, 0, 80, 43
1, 45471, Note_on_c, 0, 97, 65
1, 45482, Note_on_c, 0, 70, 30
1, 45502, Note_off_c, 0, 97, 64
1, 45514, Note_off_c, 0, 70, 50
1, 45577, Note_on_c, 0, 80, 48
1, 45598, Note_off_c, 0, 80, 61
1, 45694, Note_on_c, 0, 99, 68
1, 45705, Note_on_c, 0, 72, 46
1, 45712, Note_off_c, 0, 99, 64
1, 45734, Note_off_c, 0, 72, 58
1, 45805, Note_on_c, 0, 82, 54
1, 45833, Note_off_c, 0, 82, 53
1, 45922, Note_on_c, 0, 100, 75
1, 45926, Control_c, 0, 64, 53
1, 45939, Note_on_c, 0, 73, 30
1, 45940, Note_off_c, 0, 100, 67
1, 45941, Control_c, 0, 64, 62
1, 45955, Control_c, 0, 64, 64
1, 45970, Note_off_c, 0, 73, 48
1, 45970, Control_c, 0, 64, 65
1, 45972, Poly_aftertouch_c, 0, 61, 127
1, 45985, Control_c, 0, 64, 66
1, 46000, Control_c, 0, 64, 67
1, 46009, Poly_aftertouch_c, 0, 61, 0
1, 46014, Control_c, 0, 64, 68
1, 46030, Control_c, 0, 64, 69
1, 46048, Note_on_c, 0, 80, 52
1, 46067, Note_off_c, 0, 80, 62
1, 46075, Control_c, 0, 64, 70
1, 46104, Control_c, 0, 64, 69
1, 46119, Control_c, 0, 64, 65
1, 46134, Control_c, 0, 64, 51
1, 46149, Control_c, 0, 64, 0
1, 46152, Note_on_c, 0, 97, 81
1, 46181, Note_on_c, 0, 76, 53
1, 46181, Note_off_c, 0, 97, 65
1, 46218, Note_off_c, 0, 76, 61
1, 46230, Control_c, 0, 64, 37
1, 46245, Control_c, 0, 64, 64
1, 46260, Control_c, 0, 64, 71
1, 46275, Control_c, 0, 64, 78
1, 46275, Control_c, 0, 67, 115
1, 46277, Note_on_c, 0, 80, 74
1, 46289, Control_c, 0, 64, 88
1, 46289, Control_c, 0, 67, 90
1, 46304, Control_c, 0, 64, 99
1, 46304, Control_c, 0, 67, 57
1, 46308, Note_off_c, 0, 80, 63
1, 46319, Control_c, 0, 64, 113
1, 46319, Control_c, 0, 67, 19
1, 46334, Control_c, 0, 64, 127
1, 46334, Control_c, 0, 67, 0
1, 46391, Note_on_c, 0, 67, 84
1, 46497, Note_on_c, 0, 79, 84
1, 46535, Note_off_c, 0, 79, 62
1, 46579, Note_off_c, 0, 67, 60
1, 46579, Poly_aftertouch_c, 0, 75, 127
1, 46583, Poly_aftertouch_c, 0, 73, 0
1, 46615, Note_on_c, 0, 66, 91
1, 46615, Poly_aftertouch_c, 0, 75, 0
1, 46684, Note_off_c, 0, 66, 61
1, 46719, Note_on_c, 0, 78, 74
1, 46741, Note_off_c, 0, 78, 69
1, 46838, Control_c, 0, 64, 89
1, 46841, Note_on_c, 0, 90, 94
1, 46846, Note_on_c, 0, 66, 78
1, 46848, Note_on_c, 0, 63, 76
1, 46853, Control_c, 0, 64, 66
1, 46868, Control_c, 0, 64, 0
1, 46872, Note_off_c, 0, 66, 66
1, 46877, Note_off_c, 0, 63, 64
1, 46928, Note_off_c, 0, 90, 60
1, 46952, Note_on_c, 0, 78, 71
1, 47038, Note_off_c, 0, 78, 58
1, 47087, Note_on_c, 0, 90, 81
1, 47090, Note_on_c, 0, 66, 59
1, 47096, Note_on_c, 0, 61, 54
1, 47123, Note_off_c, 0, 66, 62
1, 47135, Note_off_c, 0, 61, 61
1, 47139, Note_off_c, 0, 90, 63
1, 47182, Note_on_c, 0, 76, 61
1, 47212, Note_off_c, 0, 76, 65
1, 47275, Control_c, 0, 67, 14
1, 47289, Note_on_c, 0, 66, 36
1, 47290, Control_c, 0, 64, 55
1, 47290, Control_c, 0, 67, 24
1, 47305, Control_c, 0, 64, 63
1, 47305, Control_c, 0, 67, 39
1, 47306, Note_on_c, 0, 90, 60
1, 47320, Control_c, 0, 64, 65
1, 47320, Control_c, 0, 67, 58
1, 47321, Note_off_c, 0, 66, 50
1, 47324, Note_off_c, 0, 90, 65
1, 47334, Control_c, 0, 64, 67
1, 47334, Control_c, 0, 67, 81
1, 47348, Control_c, 0, 64, 68
1, 47348, Control_c, 0, 67, 108
1, 47363, Control_c, 0, 64, 69
1, 47363, Control_c, 0, 67, 127
1, 47377, Control_c, 0, 64, 71
1, 47392, Control_c, 0, 64, 73
1, 47407, Control_c, 0, 64, 73
1, 47422, Control_c, 0, 64, 74
1, 47431, Note_on_c, 0, 75, 38
1, 47458, Note_off_c, 0, 75, 53
1, 47482, Control_c, 0, 64, 70
1, 47497, Control_c, 0, 64, 63
1, 47512, Control_c, 0, 64, 28
1, 47527, Control_c, 0, 64, 0
1, 47528, Note_on_c, 0, 100, 71
1, 47535, Note_on_c, 0, 73, 53
1, 47553, Note_off_c, 0, 100, 69
1, 47565, Note_off_c, 0, 73, 62
1, 47657, Note_on_c, 0, 78, 58
1, 47688, Note_off_c, 0, 78, 64
1, 47770, Note_on_c, 0, 99, 79
1, 47789, Note_off_c, 0, 99, 70
1, 47892, Note_on_c, 0, 78, 59
1, 47921, Note_off_c, 0, 78, 64
1, 48006, Note_on_c, 0, 97, 72
1, 48030, Note_off_c, 0, 97, 67
1, 48039, Note_on_c, 0, 70, 13
1, 48082, Note_off_c, 0, 70, 47
1, 48132, Note_on_c, 0, 78, 40
1, 48159, Note_off_c, 0, 78, 53
1, 48233, Note_on_c, 0, 95, 72
1, 48239, Note_on_c, 0, 68, 47
1, 48263, Note_off_c, 0, 95, 59
1, 48270, Note_off_c, 0, 68, 53
1, 48348, Note_on_c, 0, 78, 54
1, 48376, Note_off_c, 0, 78, 64
1, 48467, Note_on_c, 0, 70, 50
1, 48471, Note_on_c, 0, 97, 77
1, 48491, Note_off_c, 0, 70, 58
1, 48491, Note_off_c, 0, 97, 70
1, 48586, Note_on_c, 0, 78, 55
1, 48608, Note_off_c, 0, 78, 64
1, 48684, Control_c, 0, 64, 36
1, 48688, Note_on_c, 0, 71, 57
1, 48696, Note_on_c, 0, 59, 37
1, 48699, Control_c, 0, 64, 62
1, 48713, Control_c, 0, 64, 66
1, 48716, Note_on_c, 0, 99, 62
1, 48722, Note_off_c, 0, 71, 62
1, 48726, Note_off_c, 0, 59, 49
1, 48728, Control_c, 0, 64, 69
1, 48731, Note_on_c, 0, 102, 31
1, 48732, Note_off_c, 0, 102, 127
1, 48737, Note_off_c, 0, 99, 66
1, 48743, Control_c, 0, 64, 71
1, 48758, Control_c, 0, 64, 74
1, 48773, Control_c, 0, 64, 76
1, 48787, Control_c, 0, 64, 77
1, 48802, Control_c, 0, 64, 78
1, 48829, Note_on_c, 0, 78, 43
1, 48856, Note_off_c, 0, 78, 56
1, 48862, Control_c, 0, 64, 76
1, 48877, Control_c, 0, 64, 68
1, 48892, Control_c, 0, 64, 45
1, 48906, Control_c, 0, 64, 0
1, 48931, Note_on_c, 0, 75, 47
1, 48969, Note_off_c, 0, 75, 63
1, 49010, Control_c, 0, 64, 58
1, 49024, Control_c, 0, 64, 65
1, 49036, Note_on_c, 0, 78, 52
1, 49039, Control_c, 0, 64, 68
1, 49039, Control_c, 0, 67, 118
1, 49054, Control_c, 0, 64, 73
1, 49054, Control_c, 0, 67, 86
1, 49059, Note_off_c, 0, 78, 59
1, 49069, Control_c, 0, 64, 78
1, 49069, Control_c, 0, 67, 48
1, 49084, Control_c, 0, 64, 82
1, 49084, Control_c, 0, 67, 0
1, 49098, Control_c, 0, 64, 87
1, 49113, Control_c, 0, 64, 92
1, 49128, Control_c, 0, 64, 97
1, 49140, Note_on_c, 0, 62, 75
1, 49143, Control_c, 0, 64, 104
1, 49165, Control_c, 0, 64, 115
1, 49180, Control_c, 0, 64, 127
1, 49247, Note_on_c, 0, 74, 77
1, 49267, Note_off_c, 0, 74, 71
1, 49307, Note_off_c, 0, 62, 59
1, 49359, Note_on_c, 0, 63, 92
1, 49427, Note_off_c, 0, 63, 61
1, 49456, Note_on_c, 0, 75, 74
1, 49482, Note_off_c, 0, 75, 66
1, 49571, Note_on_c, 0, 63, 77
1, 49583, Note_on_c, 0, 55, 63
1, 49584, Note_on_c, 0, 87, 84
1, 49625, Note_off_c, 0, 55, 57
1, 49643, Note_off_c, 0, 63, 55
1, 49664, Note_off_c, 0, 87, 60
1, 49685, Note_on_c, 0, 75, 72
1, 49765, Note_off_c, 0, 75, 60
1, 49787, Note_on_c, 0, 65, 66
1, 49795, Note_on_c, 0, 56, 57
1, 49800, Note_on_c, 0, 87, 82
1, 49816, Note_off_c, 0, 65, 64
1, 49820, Note_off_c, 0, 56, 61
1, 49881, Note_off_c, 0, 87, 60
1, 49893, Note_on_c, 0, 74, 78
1, 49970, Note_off_c, 0, 74, 60
1, 50008, Note_on_c, 0, 67, 85
1, 50012, Note_on_c, 0, 87, 77
1, 50018, Note_on_c, 0, 58, 70
1, 50018, Control_c, 0, 64, 93
1, 50033, Control_c, 0, 64, 65
1, 50036, Note_off_c, 0, 67, 63
1, 50048, Control_c, 0, 64, 0
1, 50054, Note_off_c, 0, 58, 63
1, 50077, Note_off_c, 0, 87, 60
1, 50110, Note_on_c, 0, 73, 72
1, 50174, Note_off_c, 0, 73, 59
1, 50223, Note_on_c, 0, 67, 61
1, 50227, Note_on_c, 0, 87, 62
1, 50247, Note_on_c, 0, 58, 32
1, 50257, Note_off_c, 0, 67, 64
1, 50276, Note_off_c, 0, 87, 56
1, 50277, Note_off_c, 0, 58, 48
1, 50318, Note_on_c, 0, 73, 65
1, 50382, Note_off_c, 0, 73, 59
1, 50435, Note_on_c, 0, 59, 48
1, 50436, Note_on_c, 0, 68, 55
1, 50437, Note_on_c, 0, 87, 65
1, 50466, Note_off_c, 0, 59, 57
1, 50482, Note_off_c, 0, 87, 57
1, 50494, Note_off_c, 0, 68, 47
1, 50525, Note_on_c, 0, 71, 62
1, 50558, Note_off_c, 0, 71, 62
1, 50630, Note_on_c, 0, 76, 89
1, 50635, Note_on_c, 0, 88, 81
1, 50642, Note_on_c, 0, 61, 50
1, 50655, Note_on_c, 0, 69, 50
1, 50673, Note_off_c, 0, 88, 62
1, 50677, Note_off_c, 0, 76, 62
1, 50679, Note_off_c, 0, 61, 55
1, 50680, Note_off_c, 0, 69, 58
1, 50764, Note_on_c, 0, 81, 64
1, 50764, Note_on_c, 0, 87, 65
1, 50854, Note_off_c, 0, 87, 61
1, 50856, Note_off_c, 0, 81, 62
1, 50862, Note_on_c, 0, 85, 62
1, 50865, Note_on_c, 0, 73, 66
1, 50880, Note_off_c, 0, 85, 66
1, 50893, Note_off_c, 0, 73, 64
1, 50950, Note_on_c, 0, 76, 69
1, 50952, Note_on_c, 0, 83, 71
1, 50984, Note_off_c, 0, 76, 59
1, 51067, Note_on_c, 0, 82, 70
1, 51070, Note_on_c, 0, 77, 60
1, 51071, Note_on_c, 0, 71, 65
1, 51079, Note_off_c, 0, 83, 56
1, 51087, Note_on_c, 0, 62, 38
1, 51096, Note_on_c, 0, 65, 29
1, 51098, Note_off_c, 0, 71, 67
1, 51099, Note_off_c, 0, 77, 65
1, 51118, Note_off_c, 0, 62, 53
1, 51131, Note_off_c, 0, 65, 45
1, 51145, Note_off_c, 0, 82, 43
1, 51163, Note_on_c, 0, 80, 71
1, 51220, Note_off_c, 0, 80, 57
1, 51270, Note_on_c, 0, 67, 64
1, 51271, Note_on_c, 0, 79, 82
1, 51280, Note_on_c, 0, 63, 49
1, 51294, Note_off_c, 0, 67, 62
1, 51304, Note_off_c, 0, 63, 57
1, 51363, Note_on_c, 0, 82, 78
1, 51366, Note_off_c, 0, 79, 62
1, 51381, Note_on_c, 0, 75, 62
1, 51432, Note_off_c, 0, 75, 55
1, 51488, Note_off_c, 0, 82, 34
1, 51489, Note_on_c, 0, 79, 68
1, 51497, Note_on_c, 0, 83, 60
1, 51542, Note_off_c, 0, 79, 53
1, 51567, Note_off_c, 0, 83, 57
1, 51584, Note_on_c, 0, 82, 60
1, 51592, Note_on_c, 0, 75, 47
1, 51616, Note_off_c, 0, 75, 58
1, 51637, Note_off_c, 0, 82, 58
1, 51700, Note_on_c, 0, 62, 51
1, 51741, Note_off_c, 0, 62, 62
1, 51801, Note_on_c, 0, 74, 56
1, 51840, Note_off_c, 0, 74, 57
1, 51917, Note_on_c, 0, 75, 54
1, 51931, Control_c, 0, 64, 59
1, 51946, Control_c, 0, 64, 66
1, 51952, Note_off_c, 0, 75, 62
1, 51961, Control_c, 0, 64, 73
1, 51975, Control_c, 0, 64, 85
1, 51990, Control_c, 0, 64, 105
1, 52005, Control_c, 0, 64, 127
1, 52021, Note_on_c, 0, 87, 64
1, 52113, Note_off_c, 0, 87, 57
1, 52136, Note_on_c, 0, 75, 56
1, 52138, Note_on_c, 0, 99, 87
1, 52150, Note_on_c, 0, 67, 50
1, 52186, Note_off_c, 0, 75, 53
1, 52196, Note_off_c, 0, 67, 56
1, 52238, Note_on_c, 0, 87, 77
1, 52265, Note_off_c, 0, 99, 62
1, 52334, Note_off_c, 0, 87, 61
1, 52362, Note_on_c, 0, 99, 97
1, 52366, Note_on_c, 0, 77, 64
1, 52388, Note_on_c, 0, 68, 29
1, 52394, Note_off_c, 0, 77, 65
1, 52426, Note_off_c, 0, 68, 51
1, 52463, Note_on_c, 0, 86, 82
1, 52467, Note_off_c, 0, 99, 62
1, 52485, Note_on_c, 0, 93, 22
1, 52521, Note_off_c, 0, 93, 47
1, 52539, Note_off_c, 0, 86, 61
1, 52579, Note_on_c, 0, 99, 87
1, 52592, Note_on_c, 0, 79, 65
1, 52606, Control_c, 0, 64, 92
1, 52610, Note_off_c, 0, 79, 68
1, 52618, Note_on_c, 0, 70, 35
1, 52621, Control_c, 0, 64, 69
1, 52636, Control_c, 0, 64, 9
1, 52650, Note_off_c, 0, 70, 51
1, 52651, Control_c, 0, 64, 0
1, 52660, Note_off_c, 0, 99, 62
1, 52688, Note_on_c, 0, 85, 66
1, 52755, Note_off_c, 0, 85, 59
1, 52797, Note_on_c, 0, 99, 70
1, 52818, Note_on_c, 0, 79, 42
1, 52844, Note_off_c, 0, 79, 56
1, 52862, Note_off_c, 0, 99, 61
1, 52886, Poly_aftertouch_c, 0, 70, 0
1, 52904, Note_on_c, 0, 85, 61
1, 52962, Note_off_c, 0, 85, 60
1, 53009, Note_on_c, 0, 99, 72
1, 53011, Note_on_c, 0, 80, 57
1, 53065, Note_off_c, 0, 99, 63
1, 53067, Note_off_c, 0, 80, 51
1, 53104, Note_on_c, 0, 83, 59
1, 53146, Note_off_c, 0, 83, 60
1, 53219, Note_on_c, 0, 81, 62
1, 53220, Note_on_c, 0, 100, 93
1, 53220, Note_on_c, 0, 88, 92
1, 53245, Note_on_c, 0, 73, 28
1, 53265, Note_off_c, 0, 81, 50
1, 53266, Note_off_c, 0, 88, 57
1, 53278, Note_off_c, 0, 73, 45
1, 53289, Note_off_c, 0, 100, 0
1, 53325, Poly_aftertouch_c, 0, 100, 127
1, 53336, Note_on_c, 0, 93, 70
1, 53341, Note_on_c, 0, 99, 65
1, 53348, Poly_aftertouch_c, 0, 100, 0
1, 53421, Note_off_c, 0, 99, 62
1, 53429, Note_off_c, 0, 93, 60
1, 53438, Note_on_c, 0, 97, 69
1, 53454, Note_on_c, 0, 85, 61
1, 53462, Note_off_c, 0, 97, 69
1, 53479, Note_off_c, 0, 85, 69
1, 53528, Note_on_c, 0, 95, 76
1, 53538, Note_on_c, 0, 88, 61
1, 53576, Note_off_c, 0, 88, 64
1, 53653, Note_on_c, 0, 94, 70
1, 53657, Note_on_c, 0, 89, 60
1, 53659, Note_on_c, 0, 83, 57
1, 53676, Note_off_c, 0, 95, 59
1, 53691, Note_on_c, 0, 74, 9
1, 53691, Note_off_c, 0, 83, 63
1, 53692, Note_off_c, 0, 89, 64
1, 53735, Note_off_c, 0, 94, 46
1, 53739, Note_off_c, 0, 74, 39
1, 53749, Note_on_c, 0, 92, 74
1, 53822, Note_off_c, 0, 92, 52
1, 53858, Note_on_c, 0, 91, 81
1, 53867, Note_on_c, 0, 79, 52
1, 53872, Note_on_c, 0, 75, 56
1, 53887, Note_off_c, 0, 79, 61
1, 53902, Note_off_c, 0, 75, 65
1, 53947, Note_off_c, 0, 91, 63
1, 53950, Note_on_c, 0, 94, 73
1, 53957, Note_on_c, 0, 87, 59
1, 53992, Note_off_c, 0, 87, 62
1, 54012, Note_off_c, 0, 94, 58
1, 54087, Note_on_c, 0, 62, 51
1, 54131, Note_off_c, 0, 62, 61
1, 54179, Note_on_c, 0, 74, 54
1, 54213, Note_off_c, 0, 74, 64
1, 54301, Note_on_c, 0, 63, 53
1, 54409, Note_on_c, 0, 75, 55
1, 54527, Note_on_c, 0, 99, 92
1, 54573, Note_off_c, 0, 63, 56
1, 54579, Note_off_c, 0, 75, 57
1, 54599, Note_off_c, 0, 99, 62
1, 54630, Note_on_c, 0, 87, 61
1, 54673, Note_off_c, 0, 87, 53
1, 54743, Note_on_c, 0, 63, 47
1, 54796, Note_off_c, 0, 63, 54
1, 54858, Note_on_c, 0, 75, 44
1, 54883, Note_off_c, 0, 75, 59
1, 54968, Note_on_c, 0, 64, 46
1, 55030, Control_c, 0, 67, 8
1, 55045, Control_c, 0, 67, 12
1, 55060, Control_c, 0, 67, 15
1, 55074, Control_c, 0, 67, 18
1, 55077, Note_on_c, 0, 76, 34
1, 55089, Control_c, 0, 67, 22
1, 55104, Control_c, 0, 67, 25
1, 55119, Control_c, 0, 67, 30
1, 55134, Control_c, 0, 67, 34
1, 55156, Control_c, 0, 67, 39
1, 55171, Control_c, 0, 67, 45
1, 55186, Control_c, 0, 67, 52
1, 55189, Note_on_c, 0, 99, 93
1, 55200, Control_c, 0, 67, 60
1, 55215, Control_c, 0, 67, 68
1, 55216, Note_off_c, 0, 76, 43
1, 55220, Note_off_c, 0, 64, 44
1, 55230, Control_c, 0, 67, 77
1, 55244, Control_c, 0, 67, 85
1, 55259, Note_off_c, 0, 99, 61
1, 55259, Control_c, 0, 67, 94
1, 55274, Control_c, 0, 67, 103
1, 55289, Control_c, 0, 67, 112
1, 55301, Note_on_c, 0, 87, 50
1, 55304, Control_c, 0, 67, 121
1, 55319, Control_c, 0, 67, 127
1, 55331, Note_off_c, 0, 87, 53
1, 55519, Note_on_c, 0, 76, 21
1, 55556, Note_off_c, 0, 76, 48
1, 55588, Note_on_c, 0, 65, 44
1, 55703, Note_on_c, 0, 77, 41
1, 55775, Note_off_c, 0, 77, 55
1, 55786, Note_off_c, 0, 65, 38
1, 55798, Note_on_c, 0, 99, 86
1, 55858, Note_off_c, 0, 99, 59
1, 55875, Note_on_c, 0, 87, 61
1, 55925, Note_off_c, 0, 87, 53
1, 56028, Note_on_c, 0, 66, 32
1, 56132, Note_on_c, 0, 78, 25
1, 56195, Note_off_c, 0, 78, 41
1, 56224, Note_on_c, 0, 99, 85
1, 56225, Note_off_c, 0, 66, 42
1, 56297, Note_off_c, 0, 99, 61
1, 56327, Note_on_c, 0, 87, 54
1, 56376, Note_off_c, 0, 87, 53
1, 56433, Note_on_c, 0, 67, 42
1, 56540, Note_on_c, 0, 79, 43
1, 56632, Control_c, 0, 64, 46
1, 56648, Note_off_c, 0, 67, 35
1, 56654, Control_c, 0, 64, 59
1, 56669, Control_c, 0, 64, 64
1, 56672, Note_on_c, 0, 99, 67
1, 56679, Note_off_c, 0, 79, 59
1, 56684, Control_c, 0, 64, 66
1, 56698, Control_c, 0, 64, 70
1, 56713, Control_c, 0, 64, 74
1, 56728, Control_c, 0, 64, 78
1, 56732, Note_off_c, 0, 99, 59
1, 56743, Control_c, 0, 64, 82
1, 56758, Control_c, 0, 64, 85
1, 56772, Control_c, 0, 64, 88
1, 56782, Note_on_c, 0, 87, 44
1, 56787, Control_c, 0, 64, 91
1, 56802, Control_c, 0, 64, 92
1, 56817, Control_c, 0, 64, 93
1, 56854, Note_off_c, 0, 87, 34
1, 56887, Note_on_c, 0, 68, 46
1, 56979, Control_c, 0, 67, 124
1, 56994, Control_c, 0, 67, 119
1, 57006, Note_on_c, 0, 80, 37
1, 57009, Control_c, 0, 67, 112
1, 57024, Control_c, 0, 67, 106
1, 57039, Control_c, 0, 67, 99
1, 57054, Control_c, 0, 67, 93
1, 57054, Note_off_c, 0, 80, 43
1, 57068, Control_c, 0, 67, 85
1, 57083, Control_c, 0, 67, 78
1, 57098, Control_c, 0, 67, 73
1, 57110, Note_on_c, 0, 99, 64
1, 57113, Control_c, 0, 67, 69
1, 57128, Control_c, 0, 67, 67
1, 57137, Note_off_c, 0, 68, 29
1, 57140, Note_off_c, 0, 99, 65
1, 57143, Control_c, 0, 67, 66
1, 57158, Control_c, 0, 67, 65
1, 57172, Control_c, 0, 67, 65
1, 57187, Control_c, 0, 67, 64
1, 57217, Control_c, 0, 67, 63
1, 57222, Note_on_c, 0, 81, 68
1, 57232, Control_c, 0, 67, 61
1, 57247, Control_c, 0, 67, 58
1, 57248, Note_off_c, 0, 81, 67
1, 57262, Control_c, 0, 67, 51
1, 57277, Control_c, 0, 67, 39
1, 57292, Control_c, 0, 67, 23
1, 57307, Control_c, 0, 67, 0
1, 57348, Note_on_c, 0, 99, 76
1, 57370, Note_off_c, 0, 99, 65
1, 57463, Note_on_c, 0, 82, 69
1, 57493, Note_off_c, 0, 82, 59
1, 57573, Note_on_c, 0, 99, 76
1, 57634, Note_off_c, 0, 99, 62
1, 57683, Note_on_c, 0, 84, 68
1, 57712, Note_off_c, 0, 84, 63
1, 57790, Note_on_c, 0, 99, 80
1, 57845, Note_off_c, 0, 99, 62
1, 57898, Note_on_c, 0, 84, 72
1, 57936, Note_off_c, 0, 84, 60
1, 58011, Note_on_c, 0, 99, 84
1, 58071, Note_off_c, 0, 99, 63
1, 58118, Note_on_c, 0, 85, 68
1, 58174, Note_off_c, 0, 85, 63
1, 58248, Note_on_c, 0, 99, 78
1, 58255, Control_c, 0, 67, 9
1, 58270, Control_c, 0, 64, 92
1, 58270, Control_c, 0, 67, 12
1, 58285, Control_c, 0, 67, 16
1, 58300, Control_c, 0, 67, 22
1, 58314, Note_off_c, 0, 99, 61
1, 58314, Control_c, 0, 67, 32
1, 58329, Control_c, 0, 64, 92
1, 58329, Control_c, 0, 67, 41
1, 58344, Control_c, 0, 67, 49
1, 58350, Note_on_c, 0, 86, 63
1, 58359, Control_c, 0, 67, 57
1, 58374, Control_c, 0, 64, 91
1, 58374, Control_c, 0, 67, 66
1, 58388, Control_c, 0, 67, 74
1, 58403, Control_c, 0, 67, 83
1, 58410, Note_off_c, 0, 86, 50
1, 58418, Control_c, 0, 64, 91
1, 58418, Control_c, 0, 67, 93
1, 58433, Control_c, 0, 64, 90
1, 58433, Control_c, 0, 67, 101
1, 58448, Control_c, 0, 67, 109
1, 58463, Control_c, 0, 64, 90
1, 58463, Control_c, 0, 67, 117
1, 58476, Note_on_c, 0, 99, 69
1, 58477, Control_c, 0, 64, 89
1, 58477, Control_c, 0, 67, 125
1, 58492, Control_c, 0, 67, 127
1, 58507, Control_c, 0, 64, 89
1, 58522, Control_c, 0, 64, 88
1, 58536, Control_c, 0, 64, 88
1, 58547, Note_off_c, 0, 99, 61
1, 58551, Control_c, 0, 64, 87
1, 58566, Control_c, 0, 64, 87
1, 58582, Note_on_c, 0, 87, 64
1, 58582, Control_c, 0, 64, 86
1, 58596, Control_c, 0, 64, 86
1, 58611, Control_c, 0, 64, 85
1, 58626, Control_c, 0, 64, 85
1, 58641, Control_c, 0, 64, 84
1, 58656, Control_c, 0, 64, 84
1, 58663, Note_off_c, 0, 87, 57
1, 58670, Control_c, 0, 64, 83
1, 58685, Control_c, 0, 64, 82
1, 58700, Control_c, 0, 64, 81
1, 58705, Note_on_c, 0, 99, 62
1, 58715, Control_c, 0, 64, 80
1, 58730, Control_c, 0, 64, 79
1, 58744, Control_c, 0, 64, 78
1, 58759, Control_c, 0, 64, 77
1, 58774, Control_c, 0, 64, 76
1, 58781, Note_off_c, 0, 99, 59
1, 58788, Control_c, 0, 64, 75
1, 58803, Control_c, 0, 64, 74
1, 58819, Control_c, 0, 64, 73
1, 58822, Note_on_c, 0, 87, 53
1, 58834, Control_c, 0, 64, 72
1, 58849, Control_c, 0, 64, 71
1, 58864, Control_c, 0, 64, 69
1, 58879, Control_c, 0, 64, 67
1, 58901, Control_c, 0, 64, 64
1, 58916, Control_c, 0, 64, 63
1, 58917, Note_off_c, 0, 87, 58
1, 58931, Control_c, 0, 64, 62
1, 58946, Control_c, 0, 64, 61
1, 58963, Note_on_c, 0, 99, 60
1, 59028, Note_off_c, 0, 99, 59
1, 59049, Control_c, 0, 64, 61
1, 59078, Note_on_c, 0, 87, 48
1, 59108, Control_c, 0, 64, 60
1, 59138, Control_c, 0, 64, 60
1, 59159, Note_off_c, 0, 87, 56
1, 59167, Control_c, 0, 64, 59
1, 59182, Control_c, 0, 64, 59
1, 59197, Control_c, 0, 64, 58
1, 59212, Control_c, 0, 64, 57
1, 59213, Note_on_c, 0, 99, 52
1, 59227, Control_c, 0, 64, 56
1, 59241, Control_c, 0, 64, 55
1, 59256, Control_c, 0, 64, 53
1, 59269, Note_off_c, 0, 99, 56
1, 59271, Control_c, 0, 64, 51
1, 59286, Control_c, 0, 64, 50
1, 59301, Control_c, 0, 64, 49
1, 59316, Control_c, 0, 64, 48
1, 59317, Note_on_c, 0, 87, 48
1, 59331, Control_c, 0, 64, 46
1, 59346, Control_c, 0, 64, 45
1, 59360, Control_c, 0, 64, 43
1, 59375, Control_c, 0, 64, 42
1, 59390, Note_off_c, 0, 87, 55
1, 59390, Control_c, 0, 64, 40
1, 59405, Control_c, 0, 64, 39
1, 59419, Control_c, 0, 64, 37
1, 59434, Control_c, 0, 64, 35
1, 59440, Note_on_c, 0, 99, 58
1, 59449, Control_c, 0, 64, 33
1, 59464, Control_c, 0, 64, 31
1, 59479, Control_c, 0, 64, 30
1, 59493, Control_c, 0, 64, 29
1, 59494, Note_off_c, 0, 99, 59
1, 59508, Control_c, 0, 64, 28
1, 59523, Control_c, 0, 64, 28
1, 59538, Note_on_c, 0, 87, 53
1, 59552, Control_c, 0, 64, 27
1, 59604, Note_off_c, 0, 87, 54
1, 59669, Note_on_c, 0, 99, 60
1, 59739, Note_off_c, 0, 99, 61
1, 59754, Control_c, 0, 64, 28
1, 59782, Note_on_c, 0, 87, 46
1, 59798, Control_c, 0, 64, 28
1, 59813, Control_c, 0, 64, 30
1, 59828, Control_c, 0, 64, 34
1, 59842, Control_c, 0, 64, 44
1, 59857, Control_c, 0, 64, 60
1, 59859, Note_off_c, 0, 87, 56
1, 59872, Control_c, 0, 64, 68
1, 59887, Control_c, 0, 64, 76
1, 59902, Control_c, 0, 64, 88
1, 59903, Note_on_c, 0, 99, 52
1, 59916, Control_c, 0, 64, 96
1, 59925, Note_off_c, 0, 99, 63
1, 59931, Control_c, 0, 64, 100
1, 59946, Control_c, 0, 64, 103
1, 59960, Control_c, 0, 64, 104
1, 59975, Control_c, 0, 64, 105
1, 59990, Control_c, 0, 64, 106
1, 60005, Control_c, 0, 64, 107
1, 60018, Note_on_c, 0, 87, 59
1, 60020, Control_c, 0, 64, 108
1, 60034, Control_c, 0, 64, 109
1, 60049, Control_c, 0, 64, 110
1, 60064, Control_c, 0, 64, 111
1, 60075, Note_off_c, 0, 87, 51
1, 60160, Note_on_c, 0, 75, 48
1, 60182, Note_off_c, 0, 75, 58
1, 60267, Note_on_c, 0, 87, 59
1, 60285, Control_c, 0, 64, 112
1, 60297, Note_off_c, 0, 87, 66
1, 60359, Control_c, 0, 64, 113
1, 60399, Note_on_c, 0, 99, 53
1, 60432, Note_off_c, 0, 99, 66
1, 60442, Control_c, 0, 64, 113
1, 60517, Note_on_c, 0, 87, 48
1, 60578, Note_off_c, 0, 87, 44
1, 60641, Note_on_c, 0, 75, 41
1, 60666, Note_off_c, 0, 75, 54
1, 60735, Note_on_c, 0, 87, 53
1, 60758, Note_off_c, 0, 87, 63
1, 60845, Note_on_c, 0, 99, 69
1, 60867, Note_off_c, 0, 99, 69
1, 60963, Note_on_c, 0, 87, 60
1, 60980, Note_off_c, 0, 87, 62
1, 61079, Note_on_c, 0, 75, 64
1, 61083, Poly_aftertouch_c, 0, 85, 0
1, 61113, Note_off_c, 0, 75, 59
1, 61119, Note_on_c, 0, 63, 29
1, 61121, Poly_aftertouch_c, 0, 87, 127
1, 61161, Note_off_c, 0, 63, 52
1, 61173, Poly_aftertouch_c, 0, 87, 0
1, 61186, Note_on_c, 0, 87, 44
1, 61239, Note_off_c, 0, 87, 60
1, 61315, Note_on_c, 0, 99, 84
1, 61316, Note_on_c, 0, 75, 68
1, 61333, Note_off_c, 0, 75, 66
1, 61353, Note_off_c, 0, 99, 59
1, 61435, Note_on_c, 0, 87, 64
1, 61466, Note_off_c, 0, 87, 63
1, 61549, Note_on_c, 0, 75, 65
1, 61578, Note_off_c, 0, 75, 60
1, 61641, Note_on_c, 0, 87, 64
1, 61675, Note_off_c, 0, 87, 62
1, 61745, Note_on_c, 0, 99, 85
1, 61746, Note_on_c, 0, 73, 48
1, 61769, Note_off_c, 0, 73, 59
1, 61788, Note_off_c, 0, 99, 62
1, 61856, Note_on_c, 0, 87, 72
1, 61868, Note_on_c, 0, 56, 51
1, 61900, Note_off_c, 0, 56, 56
1, 61903, Note_off_c, 0, 87, 55
1, 61968, Control_c, 0, 64, 112
1, 61979, Note_on_c, 0, 75, 69
1, 61983, Control_c, 0, 64, 99
1, 61995, Note_on_c, 0, 71, 60
1, 61998, Control_c, 0, 64, 84
1, 62014, Control_c, 0, 64, 68
1, 62014, Note_off_c, 0, 71, 64
1, 62014, Note_off_c, 0, 75, 57
1, 62029, Control_c, 0, 64, 19
1, 62043, Control_c, 0, 64, 0
1, 62086, Note_on_c, 0, 87, 58
1, 62115, Note_off_c, 0, 87, 66
1, 62189, Note_on_c, 0, 71, 54
1, 62211, Note_off_c, 0, 71, 63
1, 62219, Note_on_c, 0, 99, 35
1, 62247, Note_off_c, 0, 99, 55
1, 62309, Note_on_c, 0, 87, 52
1, 62330, Note_off_c, 0, 87, 59
1, 62407, Note_on_c, 0, 70, 55
1, 62421, Note_on_c, 0, 75, 51
1, 62428, Note_off_c, 0, 70, 62
1, 62443, Note_off_c, 0, 75, 63
1, 62501, Note_on_c, 0, 87, 51
1, 62536, Note_off_c, 0, 87, 64
1, 62591, Control_c, 0, 64, 45
1, 62606, Control_c, 0, 64, 58
1, 62621, Control_c, 0, 64, 62
1, 62622, Note_on_c, 0, 99, 71
1, 62622, Note_on_c, 0, 68, 47
1, 62641, Note_on_c, 0, 59, 33
1, 62643, Control_c, 0, 64, 64
1, 62650, Note_off_c, 0, 99, 70
1, 62655, Note_off_c, 0, 68, 57
1, 62658, Control_c, 0, 64, 65
1, 62673, Control_c, 0, 64, 66
1, 62674, Note_off_c, 0, 59, 46
1, 62687, Control_c, 0, 64, 67
1, 62702, Control_c, 0, 64, 69
1, 62717, Control_c, 0, 64, 70
1, 62732, Control_c, 0, 64, 71
1, 62738, Note_on_c, 0, 87, 57
1, 62747, Control_c, 0, 64, 72
1, 62761, Control_c, 0, 64, 72
1, 62761, Control_c, 0, 67, 119
1, 62773, Note_off_c, 0, 87, 62
1, 62776, Control_c, 0, 67, 106
1, 62791, Control_c, 0, 67, 83
1, 62807, Control_c, 0, 64, 72
1, 62807, Control_c, 0, 67, 59
1, 62822, Control_c, 0, 64, 68
1, 62822, Control_c, 0, 67, 34
1, 62836, Control_c, 0, 64, 61
1, 62836, Control_c, 0, 67, 9
1, 62841, Note_on_c, 0, 67, 54
1, 62843, Note_on_c, 0, 75, 62
1, 62851, Control_c, 0, 64, 0
1, 62851, Control_c, 0, 67, 0
1, 62862, Note_off_c, 0, 67, 60
1, 62870, Note_off_c, 0, 75, 65
1, 62932, Note_on_c, 0, 87, 65
1, 62960, Note_off_c, 0, 87, 64
1, 63033, Note_on_c, 0, 68, 64
1, 63035, Note_on_c, 0, 99, 79
1, 63053, Note_off_c, 0, 99, 71
1, 63063, Note_off_c, 0, 68, 64
1, 63143, Note_on_c, 0, 87, 64
1, 63176, Note_off_c, 0, 87, 59
1, 63236, Control_c, 0, 64, 52
1, 63251, Control_c, 0, 64, 63
1, 63252, Note_on_c, 0, 70, 71
1, 63252, Note_on_c, 0, 67, 68
1, 63252, Note_on_c, 0, 75, 63
1, 63266, Control_c, 0, 64, 66
1, 63279, Note_off_c, 0, 70, 64
1, 63281, Control_c, 0, 64, 69
1, 63281, Note_off_c, 0, 75, 65
1, 63293, Note_off_c, 0, 67, 57
1, 63296, Control_c, 0, 64, 72
1, 63310, Control_c, 0, 64, 75
1, 63325, Control_c, 0, 64, 77
1, 63337, Note_on_c, 0, 87, 59
1, 63340, Control_c, 0, 64, 80
1, 63355, Control_c, 0, 64, 82
1, 63370, Control_c, 0, 64, 84
1, 63382, Note_off_c, 0, 87, 62
1, 63391, Control_c, 0, 64, 84
1, 63406, Control_c, 0, 64, 85
1, 63436, Control_c, 0, 64, 84
1, 63451, Control_c, 0, 64, 81
1, 63465, Control_c, 0, 64, 73
1, 63468, Note_on_c, 0, 99, 67
1, 63471, Note_on_c, 0, 63, 58
1, 63480, Control_c, 0, 64, 63
1, 63495, Note_off_c, 0, 99, 68
1, 63495, Control_c, 0, 64, 0
1, 63506, Note_off_c, 0, 63, 62
1, 63510, Control_c, 0, 67, 8
1, 63577, Note_on_c, 0, 87, 56
1, 63613, Note_off_c, 0, 87, 58
1, 63644, Control_c, 0, 67, 9
1, 63659, Control_c, 0, 67, 9
1, 63674, Control_c, 0, 67, 10
1, 63680, Note_on_c, 0, 63, 43
1, 63689, Control_c, 0, 67, 13
1, 63694, Note_on_c, 0, 75, 47
1, 63704, Control_c, 0, 67, 18
1, 63707, Note_off_c, 0, 63, 53
1, 63717, Note_off_c, 0, 75, 60
1, 63719, Control_c, 0, 67, 25
1, 63733, Control_c, 0, 67, 35
1, 63748, Control_c, 0, 67, 45
1, 63763, Control_c, 0, 67, 54
1, 63778, Control_c, 0, 67, 63
1, 63793, Control_c, 0, 67, 71
1, 63794, Note_on_c, 0, 87, 36
1, 63807, Control_c, 0, 67, 79
1, 63821, Note_off_c, 0, 87, 52
1, 63822, Control_c, 0, 67, 87
1, 63837, Control_c, 0, 67, 96
1, 63852, Control_c, 0, 67, 105
1, 63867, Control_c, 0, 67, 113
1, 63881, Control_c, 0, 64, 54
1, 63881, Control_c, 0, 67, 121
1, 63896, Note_on_c, 0, 99, 66
1, 63896, Control_c, 0, 64, 62
1, 63896, Control_c, 0, 67, 127
1, 63900, Note_on_c, 0, 64, 38
1, 63911, Control_c, 0, 64, 64
1, 63919, Note_off_c, 0, 99, 65
1, 63925, Control_c, 0, 64, 65
1, 63927, Note_off_c, 0, 64, 57
1, 63940, Control_c, 0, 64, 65
1, 63955, Control_c, 0, 64, 66
1, 63970, Control_c, 0, 64, 66
1, 63985, Control_c, 0, 64, 67
1, 63999, Control_c, 0, 64, 68
1, 64014, Control_c, 0, 64, 68
1, 64026, Note_on_c, 0, 87, 36
1, 64029, Control_c, 0, 64, 69
1, 64059, Note_off_c, 0, 87, 36
1, 64088, Control_c, 0, 64, 68
1, 64103, Control_c, 0, 64, 64
1, 64112, Note_on_c, 0, 63, 53
1, 64116, Note_on_c, 0, 75, 56
1, 64118, Control_c, 0, 64, 49
1, 64140, Control_c, 0, 64, 0
1, 64141, Note_off_c, 0, 63, 60
1, 64155, Note_off_c, 0, 75, 64
1, 64215, Note_on_c, 0, 87, 50
1, 64236, Note_off_c, 0, 87, 62
1, 64313, Note_on_c, 0, 99, 74
1, 64324, Note_on_c, 0, 61, 46
1, 64335, Note_off_c, 0, 99, 69
1, 64350, Note_off_c, 0, 61, 58
1, 64439, Note_on_c, 0, 87, 58
1, 64470, Note_off_c, 0, 87, 62
1, 64512, Control_c, 0, 64, 51
1, 64516, Note_on_c, 0, 59, 59
1, 64527, Control_c, 0, 64, 62
1, 64539, Note_on_c, 0, 56, 38
1, 64542, Control_c, 0, 64, 64
1, 64542, Control_c, 0, 67, 121
1, 64543, Note_on_c, 0, 75, 57
1, 64547, Note_off_c, 0, 59, 62
1, 64556, Control_c, 0, 64, 65
1, 64556, Control_c, 0, 67, 106
1, 64568, Note_off_c, 0, 56, 55
1, 64571, Control_c, 0, 64, 66
1, 64571, Control_c, 0, 67, 80
1, 64574, Note_off_c, 0, 75, 64
1, 64586, Control_c, 0, 64, 67
1, 64586, Control_c, 0, 67, 55
1, 64601, Control_c, 0, 64, 68
1, 64601, Control_c, 0, 67, 34
1, 64616, Control_c, 0, 64, 68
1, 64616, Control_c, 0, 67, 16
1, 64621, Note_on_c, 0, 87, 48
1, 64630, Control_c, 0, 64, 69
1, 64630, Control_c, 0, 67, 0
1, 64656, Note_off_c, 0, 87, 64
1, 64660, Control_c, 0, 64, 70
1, 64675, Control_c, 0, 64, 70
1, 64725, Note_on_c, 0, 56, 47
1, 64727, Note_on_c, 0, 59, 43
1, 64729, Note_on_c, 0, 99, 76
1, 64734, Control_c, 0, 64, 70
1, 64748, Control_c, 0, 64, 67
1, 64750, Note_off_c, 0, 99, 68
1, 64755, Note_off_c, 0, 59, 58
1, 64763, Control_c, 0, 64, 63
1, 64769, Note_off_c, 0, 56, 56
1, 64778, Control_c, 0, 64, 39
1, 64793, Control_c, 0, 64, 0
1, 64857, Note_on_c, 0, 87, 45
1, 64894, Note_off_c, 0, 87, 52
1, 64939, Note_on_c, 0, 58, 62
1, 64946, Note_on_c, 0, 54, 54
1, 64946, Note_on_c, 0, 75, 70
1, 64968, Note_off_c, 0, 75, 68
1, 64971, Note_off_c, 0, 58, 64
1, 64988, Note_off_c, 0, 54, 59
1, 65034, Note_on_c, 0, 87, 67
1, 65065, Note_off_c, 0, 87, 62
1, 65111, Control_c, 0, 64, 50
1, 65126, Control_c, 0, 64, 62
1, 65141, Control_c, 0, 64, 64
1, 65150, Note_on_c, 0, 52, 65
1, 65150, Note_on_c, 0, 56, 63
1, 65156, Control_c, 0, 64, 66
1, 65162, Note_on_c, 0, 99, 63
1, 65171, Control_c, 0, 64, 68
1, 65180, Note_off_c, 0, 99, 66
1, 65182, Note_off_c, 0, 56, 62
1, 65185, Control_c, 0, 64, 71
1, 65193, Note_off_c, 0, 52, 58
1, 65200, Control_c, 0, 64, 74
1, 65216, Control_c, 0, 64, 77
1, 65231, Control_c, 0, 64, 80
1, 65246, Control_c, 0, 64, 82
1, 65260, Control_c, 0, 64, 84
1, 65265, Note_on_c, 0, 87, 38
1, 65275, Control_c, 0, 64, 86
1, 65290, Control_c, 0, 64, 88
1, 65295, Note_off_c, 0, 87, 52
1, 65305, Control_c, 0, 64, 89
1, 65349, Note_on_c, 0, 55, 75
1, 65349, Control_c, 0, 64, 89
1, 65361, Note_on_c, 0, 75, 66
1, 65364, Control_c, 0, 64, 82
1, 65378, Note_off_c, 0, 55, 66
1, 65379, Control_c, 0, 64, 69
1, 65385, Note_off_c, 0, 75, 68
1, 65394, Control_c, 0, 64, 22
1, 65409, Control_c, 0, 64, 0
1, 65432, Note_on_c, 0, 87, 63
1, 65475, Note_off_c, 0, 87, 62
1, 65540, Note_on_c, 0, 56, 73
1, 65555, Note_on_c, 0, 99, 70
1, 65568, Note_off_c, 0, 56, 62
1, 65572, Note_off_c, 0, 99, 67
1, 65665, Note_on_c, 0, 85, 61
1, 65702, Note_off_c, 0, 85, 58
1, 65761, Note_on_c, 0, 58, 83
1, 65764, Note_on_c, 0, 75, 70
1, 65765, Note_on_c, 0, 55, 76
1, 65772, Control_c, 0, 64, 48
1, 65786, Control_c, 0, 64, 63
1, 65797, Note_off_c, 0, 75, 58
1, 65801, Control_c, 0, 64, 68
1, 65816, Control_c, 0, 64, 72
1, 65831, Control_c, 0, 64, 77
1, 65846, Control_c, 0, 64, 83
1, 65854, Note_on_c, 0, 87, 62
1, 65860, Control_c, 0, 64, 88
1, 65875, Control_c, 0, 64, 93
1, 65883, Note_off_c, 0, 87, 64
1, 65890, Control_c, 0, 64, 98
1, 65894, Note_off_c, 0, 58, 59
1, 65904, Control_c, 0, 64, 102
1, 65907, Note_off_c, 0, 55, 58
1, 65919, Control_c, 0, 64, 107
1, 65934, Control_c, 0, 64, 113
1, 65946, Note_on_c, 0, 51, 80
1, 65949, Control_c, 0, 64, 127
1, 65957, Note_on_c, 0, 99, 81
1, 65974, Note_off_c, 0, 99, 71
1, 65993, Note_off_c, 0, 51, 57
1, 66079, Note_on_c, 0, 87, 46
1, 66104, Note_off_c, 0, 87, 54
1, 66181, Note_on_c, 0, 75, 54
1, 66182, Note_on_c, 0, 63, 64
1, 66213, Note_off_c, 0, 75, 64
1, 66230, Note_on_c, 0, 87, 54
1, 66244, Note_off_c, 0, 63, 53
1, 66263, Note_off_c, 0, 87, 64
1, 66291, Note_on_c, 0, 75, 90
1, 66336, Note_off_c, 0, 75, 63
1, 66505, Note_on_c, 0, 75, 75
1, 66559, Note_off_c, 0, 75, 55
1, 66587, Note_on_c, 0, 87, 66
1, 66633, Note_off_c, 0, 87, 63
1, 66659, Note_on_c, 0, 73, 64
1, 66679, Note_off_c, 0, 73, 64
1, 66697, Note_on_c, 0, 99, 86
1, 66738, Note_off_c, 0, 99, 63
1, 66797, Note_on_c, 0, 56, 41
1, 66828, Note_off_c, 0, 56, 53
1, 66892, Poly_aftertouch_c, 0, 87, 127
1, 66892, Control_c, 0, 64, 93
1, 66904, Note_on_c, 0, 71, 76
1, 66906, Control_c, 0, 64, 73
1, 66915, Note_on_c, 0, 75, 69
1, 66921, Control_c, 0, 64, 52
1, 66926, Note_off_c, 0, 71, 68
1, 66936, Control_c, 0, 64, 0
1, 66941, Note_off_c, 0, 75, 66
1, 66944, Poly_aftertouch_c, 0, 87, 0
1, 67010, Note_on_c, 0, 87, 45
1, 67031, Note_off_c, 0, 87, 60
1, 67106, Note_on_c, 0, 71, 53
1, 67113, Note_on_c, 0, 99, 73
1, 67135, Note_off_c, 0, 71, 61
1, 67141, Note_off_c, 0, 99, 69
1, 67265, Note_on_c, 0, 87, 32
1, 67308, Note_off_c, 0, 87, 44
1, 67331, Note_on_c, 0, 75, 55
1, 67347, Note_on_c, 0, 70, 24
1, 67359, Note_off_c, 0, 75, 63
1, 67384, Note_off_c, 0, 70, 48
1, 67416, Note_on_c, 0, 87, 65
1, 67445, Note_off_c, 0, 87, 64
1, 67466, Note_on_c, 0, 92, 24
1, 67467, Note_off_c, 0, 92, 127
1, 67491, Control_c, 0, 64, 55
1, 67506, Control_c, 0, 64, 64
1, 67521, Control_c, 0, 64, 66
1, 67522, Note_on_c, 0, 68, 54
1, 67533, Note_on_c, 0, 99, 76
1, 67534, Note_on_c, 0, 59, 41
1, 67536, Control_c, 0, 64, 69
1, 67546, Note_off_c, 0, 68, 62
1, 67550, Control_c, 0, 64, 71
1, 67553, Note_off_c, 0, 99, 68
1, 67563, Note_off_c, 0, 59, 55
1, 67565, Control_c, 0, 64, 73
1, 67580, Control_c, 0, 64, 73
1, 67626, Control_c, 0, 64, 74
1, 67659, Note_on_c, 0, 87, 42
1, 67692, Note_off_c, 0, 87, 53
1, 67729, Control_c, 0, 64, 73
1, 67744, Control_c, 0, 64, 71
1, 67745, Note_on_c, 0, 67, 49
1, 67749, Note_on_c, 0, 75, 60
1, 67759, Control_c, 0, 64, 66
1, 67770, Note_off_c, 0, 67, 57
1, 67773, Control_c, 0, 64, 49
1, 67779, Note_off_c, 0, 75, 65
1, 67788, Control_c, 0, 64, 0
1, 67821, Note_on_c, 0, 87, 64
1, 67850, Note_off_c, 0, 87, 64
1, 67936, Note_on_c, 0, 68, 56
1, 67946, Note_on_c, 0, 99, 69
1, 67973, Note_off_c, 0, 68, 62
1, 67976, Note_off_c, 0, 99, 66
1, 68071, Note_on_c, 0, 87, 40
1, 68101, Note_off_c, 0, 87, 53
1, 68122, Control_c, 0, 64, 34
1, 68137, Control_c, 0, 64, 59
1, 68151, Control_c, 0, 64, 64
1, 68159, Note_on_c, 0, 70, 48
1, 68161, Note_on_c, 0, 75, 56
1, 68166, Control_c, 0, 64, 66
1, 68168, Note_on_c, 0, 67, 45
1, 68181, Control_c, 0, 64, 68
1, 68184, Note_off_c, 0, 70, 57
1, 68184, Note_off_c, 0, 75, 63
1, 68196, Control_c, 0, 64, 70
1, 68205, Note_off_c, 0, 67, 51
1, 68211, Control_c, 0, 64, 72
1, 68225, Control_c, 0, 64, 74
1, 68235, Note_on_c, 0, 87, 58
1, 68240, Control_c, 0, 64, 75
1, 68255, Control_c, 0, 64, 76
1, 68256, Note_off_c, 0, 87, 62
1, 68270, Control_c, 0, 64, 76
1, 68285, Control_c, 0, 64, 77
1, 68299, Control_c, 0, 64, 77
1, 68329, Control_c, 0, 64, 78
1, 68344, Note_on_c, 0, 99, 79
1, 68344, Control_c, 0, 64, 78
1, 68351, Note_on_c, 0, 63, 55
1, 68359, Control_c, 0, 64, 79
1, 68371, Note_off_c, 0, 99, 62
1, 68377, Note_off_c, 0, 63, 59
1, 68388, Control_c, 0, 64, 79
1, 68458, Note_on_c, 0, 87, 62
1, 68509, Note_off_c, 0, 87, 61
1, 68560, Note_on_c, 0, 75, 67
1, 68592, Note_off_c, 0, 75, 64
1, 68671, Note_on_c, 0, 87, 61
1, 68709, Note_off_c, 0, 87, 43
1, 68723, Control_c, 0, 64, 78
1, 68737, Control_c, 0, 64, 73
1, 68752, Control_c, 0, 64, 66
1, 68767, Control_c, 0, 64, 14
1, 68772, Note_on_c, 0, 76, 75
1, 68781, Note_on_c, 0, 70, 54
1, 68782, Control_c, 0, 64, 0
1, 68785, Note_on_c, 0, 61, 51
1, 68787, Note_on_c, 0, 68, 54
1, 68803, Note_off_c, 0, 70, 61
1, 68811, Note_off_c, 0, 76, 62
1, 68814, Note_off_c, 0, 61, 59
1, 68818, Note_off_c, 0, 68, 62
1, 68875, Note_on_c, 0, 87, 59
1, 68920, Note_off_c, 0, 87, 54
1, 68986, Note_on_c, 0, 75, 65
1, 69000, Note_on_c, 0, 68, 39
1, 69015, Note_on_c, 0, 63, 37
1, 69022, Note_off_c, 0, 75, 61
1, 69039, Note_off_c, 0, 68, 51
1, 69046, Note_off_c, 0, 63, 53
1, 69078, Note_on_c, 0, 87, 59
1, 69079, Poly_aftertouch_c, 0, 70, 0
1, 69133, Note_off_c, 0, 87, 58
1, 69192, Note_on_c, 0, 70, 52
1, 69192, Note_on_c, 0, 73, 66
1, 69224, Note_on_c, 0, 64, 14
1, 69227, Note_off_c, 0, 73, 62
1, 69234, Note_off_c, 0, 70, 62
1, 69261, Poly_aftertouch_c, 0, 68, 127
1, 69269, Note_off_c, 0, 64, 52
1, 69287, Note_on_c, 0, 87, 63
1, 69303, Poly_aftertouch_c, 0, 68, 0
1, 69350, Note_off_c, 0, 87, 52
1, 69410, Note_on_c, 0, 71, 31
1, 69419, Note_on_c, 0, 68, 37
1, 69419, Note_on_c, 0, 75, 54
1, 69430, Note_on_c, 0, 63, 9
1, 69442, Note_off_c, 0, 71, 44
1, 69451, Note_off_c, 0, 68, 51
1, 69452, Note_off_c, 0, 75, 63
1, 69475, Note_off_c, 0, 63, 38
1, 69504, Note_on_c, 0, 87, 61
1, 69549, Note_off_c, 0, 87, 54
1, 69634, Note_on_c, 0, 80, 58
1, 69669, Note_off_c, 0, 80, 61
1, 69728, Note_on_c, 0, 83, 56
1, 69754, Note_off_c, 0, 83, 63
1, 69827, Control_c, 0, 64, 54
1, 69842, Control_c, 0, 64, 64
1, 69857, Control_c, 0, 64, 66
1, 69860, Note_on_c, 0, 87, 85
1, 69871, Control_c, 0, 64, 70
1, 69886, Control_c, 0, 64, 75
1, 69901, Control_c, 0, 64, 81
1, 69915, Note_off_c, 0, 87, 62
1, 69916, Control_c, 0, 64, 87
1, 69931, Control_c, 0, 64, 91
1, 69946, Control_c, 0, 64, 94
1, 69961, Control_c, 0, 64, 95
1, 69967, Note_on_c, 0, 99, 71
1, 69976, Control_c, 0, 64, 96
1, 69989, Note_off_c, 0, 99, 70
1, 69991, Control_c, 0, 64, 96
1, 70006, Control_c, 0, 64, 97
1, 70010, Note_on_c, 0, 63, 50
1, 70020, Control_c, 0, 64, 97
1, 70038, Note_off_c, 0, 63, 59
1, 70044, Note_on_c, 0, 73, 57
1, 70080, Control_c, 0, 64, 96
1, 70095, Control_c, 0, 64, 88
1, 70098, Note_off_c, 0, 73, 46
1, 70110, Control_c, 0, 64, 75
1, 70132, Control_c, 0, 64, 61
1, 70137, Note_on_c, 0, 79, 51
1, 70139, Note_on_c, 0, 75, 65
1, 70147, Control_c, 0, 64, 0
1, 70159, Note_off_c, 0, 79, 61
1, 70187, Note_off_c, 0, 75, 56
1, 70244, Note_on_c, 0, 87, 52
1, 70283, Note_off_c, 0, 87, 61
1, 70378, Note_on_c, 0, 79, 48
1, 70402, Note_off_c, 0, 79, 59
1, 70471, Note_on_c, 0, 82, 60
1, 70498, Note_off_c, 0, 82, 67
1, 70656, Note_on_c, 0, 87, 82
1, 70664, Control_c, 0, 64, 31
1, 70679, Control_c, 0, 64, 61
1, 70694, Control_c, 0, 64, 66
1, 70709, Control_c, 0, 64, 71
1, 70724, Control_c, 0, 64, 78
1, 70731, Note_off_c, 0, 87, 58
1, 70739, Control_c, 0, 64, 88
1, 70754, Control_c, 0, 64, 97
1, 70768, Control_c, 0, 64, 109
1, 70783, Control_c, 0, 64, 127
1, 70790, Note_on_c, 0, 99, 63
1, 70838, Note_off_c, 0, 99, 48
1, 70939, Note_on_c, 0, 56, 38
1, 71027, Note_off_c, 0, 56, 33
1, 71076, Note_on_c, 0, 63, 46
1, 71169, Note_off_c, 0, 63, 47
1, 71210, Note_on_c, 0, 71, 54
1, 71240, Note_off_c, 0, 71, 62
1, 71364, Note_on_c, 0, 80, 50
1, 71386, Note_off_c, 0, 80, 56
1, 71495, Note_on_c, 0, 75, 56
1, 71526, Note_off_c, 0, 75, 61
1, 71556, Note_on_c, 0, 87, 66
1, 71583, Note_off_c, 0, 87, 64
1, 71657, Note_on_c, 0, 87, 56
1, 71681, Note_off_c, 0, 87, 55
1, 71733, Note_on_c, 0, 87, 69
1, 71758, Note_off_c, 0, 87, 67
1, 71809, Note_on_c, 0, 87, 70
1, 71833, Note_off_c, 0, 87, 68
1, 71884, Note_on_c, 0, 99, 64
1, 71917, Note_off_c, 0, 99, 62
1, 72007, Note_on_c, 0, 87, 66
1, 72025, Note_off_c, 0, 87, 66
1, 72086, Note_on_c, 0, 87, 69
1, 72104, Note_off_c, 0, 87, 64
1, 72140, Note_on_c, 0, 99, 75
1, 72163, Note_off_c, 0, 99, 67
1, 72265, Note_on_c, 0, 85, 70
1, 72290, Note_off_c, 0, 85, 65
1, 72338, Note_on_c, 0, 85, 77
1, 72360, Note_off_c, 0, 85, 68
1, 72412, Note_on_c, 0, 97, 76
1, 72447, Note_off_c, 0, 97, 59
1, 72519, Note_on_c, 0, 44, 48
1, 72522, Note_on_c, 0, 83, 72
1, 72545, Note_off_c, 0, 83, 68
1, 72564, Note_off_c, 0, 44, 56
1, 72610, Note_on_c, 0, 83, 65
1, 72638, Note_off_c, 0, 83, 61
1, 72680, Note_on_c, 0, 95, 62
1, 72709, Note_off_c, 0, 95, 64
1, 72773, Note_on_c, 0, 59, 49
1, 72777, Note_on_c, 0, 51, 49
1, 72781, Note_on_c, 0, 83, 71
1, 72793, Control_c, 0, 64, 113
1, 72797, Note_off_c, 0, 59, 59
1, 72804, Note_off_c, 0, 51, 57
1, 72806, Note_off_c, 0, 83, 68
1, 72808, Control_c, 0, 64, 86
1, 72822, Control_c, 0, 64, 66
1, 72837, Control_c, 0, 64, 35
1, 72852, Control_c, 0, 64, 0
1, 72863, Note_on_c, 0, 83, 54
1, 72884, Note_off_c, 0, 83, 61
1, 72919, Note_on_c, 0, 95, 64
1, 72947, Note_off_c, 0, 95, 67
1, 73022, Note_on_c, 0, 82, 73
1, 73046, Note_off_c, 0, 82, 68
1, 73048, Note_on_c, 0, 51, 22
1, 73088, Note_off_c, 0, 51, 40
1, 73096, Note_on_c, 0, 82, 68
1, 73129, Note_off_c, 0, 82, 66
1, 73165, Note_on_c, 0, 94, 67
1, 73185, Note_off_c, 0, 94, 62
1, 73231, Control_c, 0, 64, 37
1, 73246, Control_c, 0, 64, 61
1, 73254, Note_on_c, 0, 47, 40
1, 73261, Control_c, 0, 64, 65
1, 73276, Control_c, 0, 64, 67
1, 73280, Note_on_c, 0, 80, 66
1, 73282, Note_off_c, 0, 47, 56
1, 73290, Control_c, 0, 64, 69
1, 73302, Note_off_c, 0, 80, 64
1, 73305, Control_c, 0, 64, 71
1, 73320, Control_c, 0, 64, 74
1, 73335, Control_c, 0, 64, 76
1, 73350, Control_c, 0, 64, 79
1, 73360, Note_on_c, 0, 80, 64
1, 73365, Control_c, 0, 64, 81
1, 73375, Note_off_c, 0, 80, 67
1, 73379, Control_c, 0, 64, 83
1, 73394, Control_c, 0, 64, 84
1, 73409, Note_on_c, 0, 92, 77
1, 73444, Note_off_c, 0, 92, 60
1, 73453, Control_c, 0, 64, 83
1, 73468, Control_c, 0, 64, 77
1, 73483, Control_c, 0, 64, 68
1, 73498, Control_c, 0, 64, 45
1, 73513, Control_c, 0, 64, 0
1, 73514, Note_on_c, 0, 63, 51
1, 73514, Note_on_c, 0, 56, 49
1, 73519, Note_on_c, 0, 79, 67
1, 73536, Note_off_c, 0, 63, 60
1, 73536, Note_off_c, 0, 79, 68
1, 73541, Note_off_c, 0, 56, 58
1, 73598, Note_on_c, 0, 79, 72
1, 73623, Note_off_c, 0, 79, 69
1, 73655, Note_on_c, 0, 91, 70
1, 73681, Note_off_c, 0, 91, 67
1, 73760, Note_on_c, 0, 80, 69
1, 73773, Note_on_c, 0, 63, 29
1, 73782, Note_off_c, 0, 80, 67
1, 73809, Note_off_c, 0, 63, 51
1, 73848, Note_on_c, 0, 80, 59
1, 73875, Note_off_c, 0, 80, 64
1, 73979, Control_c, 0, 64, 50
1, 73981, Poly_aftertouch_c, 0, 92, 127
1, 73994, Control_c, 0, 64, 62
1, 73997, Note_on_c, 0, 51, 46
1, 74008, Note_on_c, 0, 82, 73
1, 74009, Control_c, 0, 64, 65
1, 74014, Poly_aftertouch_c, 0, 92, 0
1, 74024, Control_c, 0, 64, 67
1, 74029, Note_off_c, 0, 51, 60
1, 74030, Note_off_c, 0, 82, 68
1, 74039, Control_c, 0, 64, 70
1, 74054, Control_c, 0, 64, 73
1, 74069, Control_c, 0, 64, 76
1, 74083, Control_c, 0, 64, 78
1, 74090, Note_on_c, 0, 82, 60
1, 74098, Control_c, 0, 64, 79
1, 74110, Note_off_c, 0, 82, 61
1, 74113, Control_c, 0, 64, 80
1, 74134, Note_on_c, 0, 94, 72
1, 74143, Control_c, 0, 64, 80
1, 74157, Note_off_c, 0, 94, 69
1, 74267, Note_on_c, 0, 67, 51
1, 74268, Note_on_c, 0, 75, 67
1, 74271, Note_on_c, 0, 58, 51
1, 74291, Note_off_c, 0, 67, 59
1, 74295, Note_off_c, 0, 75, 66
1, 74295, Note_off_c, 0, 58, 59
1, 74331, Note_on_c, 0, 75, 64
1, 74335, Control_c, 0, 64, 80
1, 74349, Control_c, 0, 64, 75
1, 74364, Note_off_c, 0, 75, 63
1, 74364, Control_c, 0, 64, 66
1, 74379, Control_c, 0, 64, 37
1, 74393, Control_c, 0, 64, 0
1, 74405, Note_on_c, 0, 87, 63
1, 74430, Note_off_c, 0, 87, 62
1, 74492, Note_on_c, 0, 75, 70
1, 74504, Note_on_c, 0, 67, 36
1, 74508, Note_on_c, 0, 58, 29
1, 74514, Note_off_c, 0, 75, 68
1, 74535, Note_off_c, 0, 67, 51
1, 74542, Note_off_c, 0, 58, 50
1, 74575, Note_on_c, 0, 75, 65
1, 74603, Note_off_c, 0, 75, 65
1, 74632, Note_on_c, 0, 87, 70
1, 74662, Note_off_c, 0, 87, 63
1, 74683, Control_c, 0, 64, 16
1, 74697, Control_c, 0, 64, 45
1, 74712, Control_c, 0, 64, 55
1, 74727, Control_c, 0, 64, 60
1, 74738, Note_on_c, 0, 76, 71
1, 74739, Note_on_c, 0, 55, 31
1, 74742, Control_c, 0, 64, 63
1, 74757, Control_c, 0, 64, 64
1, 74761, Note_off_c, 0, 76, 70
1, 74771, Note_off_c, 0, 55, 49
1, 74772, Control_c, 0, 64, 66
1, 74787, Control_c, 0, 64, 68
1, 74802, Control_c, 0, 64, 70
1, 74817, Control_c, 0, 64, 72
1, 74821, Note_on_c, 0, 76, 60
1, 74832, Control_c, 0, 64, 73
1, 74847, Control_c, 0, 64, 74
1, 74847, Note_off_c, 0, 76, 68
1, 74879, Note_on_c, 0, 88, 65
1, 74897, Note_off_c, 0, 88, 66
1, 74906, Control_c, 0, 64, 72
1, 74921, Control_c, 0, 64, 68
1, 74935, Control_c, 0, 64, 60
1, 74950, Control_c, 0, 64, 0
1, 74990, Note_on_c, 0, 75, 67
1, 74997, Note_on_c, 0, 63, 41
1, 75000, Note_on_c, 0, 70, 32
1, 75016, Note_off_c, 0, 75, 66
1, 75023, Note_off_c, 0, 63, 55
1, 75031, Note_off_c, 0, 70, 53
1, 75064, Note_on_c, 0, 75, 62
1, 75090, Note_off_c, 0, 75, 67
1, 75122, Note_on_c, 0, 87, 53
1, 75141, Note_off_c, 0, 87, 62
1, 75216, Control_c, 0, 64, 14
1, 75220, Note_on_c, 0, 73, 69
1, 75231, Control_c, 0, 64, 21
1, 75246, Note_off_c, 0, 73, 67
1, 75246, Control_c, 0, 64, 26
1, 75261, Control_c, 0, 64, 30
1, 75276, Control_c, 0, 64, 32
1, 75290, Control_c, 0, 64, 34
1, 75305, Control_c, 0, 64, 35
1, 75306, Note_on_c, 0, 73, 52
1, 75320, Control_c, 0, 64, 37
1, 75332, Note_off_c, 0, 73, 60
1, 75334, Control_c, 0, 64, 38
1, 75344, Note_on_c, 0, 85, 68
1, 75349, Control_c, 0, 64, 39
1, 75371, Control_c, 0, 64, 39
1, 75377, Note_off_c, 0, 85, 68
1, 75431, Control_c, 0, 64, 39
1, 75446, Control_c, 0, 64, 38
1, 75452, Note_on_c, 0, 56, 34
1, 75456, Note_on_c, 0, 71, 71
1, 75461, Control_c, 0, 64, 38
1, 75475, Control_c, 0, 64, 37
1, 75480, Note_off_c, 0, 71, 67
1, 75490, Control_c, 0, 64, 37
1, 75505, Control_c, 0, 64, 36
1, 75520, Control_c, 0, 64, 35
1, 75541, Note_on_c, 0, 71, 61
1, 75546, Note_off_c, 0, 56, 0
1, 75549, Control_c, 0, 64, 35
1, 75561, Note_off_c, 0, 71, 65
1, 75579, Control_c, 0, 64, 34
1, 75583, Poly_aftertouch_c, 0, 56, 127
1, 75595, Control_c, 0, 64, 34
1, 75604, Note_on_c, 0, 83, 63
1, 75610, Control_c, 0, 64, 33
1, 75628, Note_off_c, 0, 83, 63
1, 75639, Control_c, 0, 64, 32
1, 75691, Note_on_c, 0, 71, 53
1, 75713, Note_on_c, 0, 68, 29
1, 75719, Note_off_c, 0, 71, 66
1, 75721, Note_on_c, 0, 63, 28
1, 75743, Control_c, 0, 64, 33
1, 75750, Note_off_c, 0, 68, 47
1, 75757, Note_off_c, 0, 63, 51
1, 75757, Control_c, 0, 64, 34
1, 75772, Control_c, 0, 64, 34
1, 75777, Note_on_c, 0, 71, 60
1, 75800, Note_off_c, 0, 71, 64
1, 75802, Control_c, 0, 64, 35
1, 75831, Note_on_c, 0, 83, 62
1, 75848, Note_off_c, 0, 83, 64
1, 75920, Control_c, 0, 64, 35
1, 75926, Poly_aftertouch_c, 0, 56, 0
1, 75935, Control_c, 0, 64, 36
1, 75938, Note_on_c, 0, 70, 69
1, 75943, Note_on_c, 0, 68, 34
1, 75950, Control_c, 0, 64, 37
1, 75956, Note_on_c, 0, 63, 10
1, 75964, Note_off_c, 0, 70, 62
1, 75964, Control_c, 0, 64, 37
1, 75976, Note_off_c, 0, 68, 49
1, 75979, Control_c, 0, 64, 38
1, 75991, Note_off_c, 0, 63, 41
1, 75994, Control_c, 0, 64, 39
1, 76009, Control_c, 0, 64, 40
1, 76024, Control_c, 0, 64, 41
1, 76036, Note_on_c, 0, 70, 51
1, 76039, Control_c, 0, 64, 42
1, 76054, Control_c, 0, 64, 44
1, 76057, Note_off_c, 0, 70, 62
1, 76069, Control_c, 0, 64, 45
1, 76076, Note_on_c, 0, 82, 64
1, 76083, Control_c, 0, 64, 46
1, 76098, Control_c, 0, 64, 47
1, 76102, Note_off_c, 0, 82, 63
1, 76120, Control_c, 0, 64, 48
1, 76135, Control_c, 0, 64, 48
1, 76150, Control_c, 0, 64, 50
1, 76164, Control_c, 0, 64, 56
1, 76179, Control_c, 0, 64, 61
1, 76186, Note_on_c, 0, 59, 40
1, 76194, Control_c, 0, 64, 64
1, 76195, Note_on_c, 0, 68, 64
1, 76209, Control_c, 0, 64, 66
1, 76214, Note_off_c, 0, 68, 65
1, 76224, Control_c, 0, 64, 70
1, 76239, Control_c, 0, 64, 73
1, 76254, Control_c, 0, 64, 77
1, 76268, Control_c, 0, 64, 80
1, 76273, Note_on_c, 0, 68, 58
1, 76283, Control_c, 0, 64, 82
1, 76299, Note_off_c, 0, 68, 56
1, 76321, Note_on_c, 0, 80, 68
1, 76328, Control_c, 0, 64, 79
1, 76343, Control_c, 0, 64, 71
1, 76343, Note_off_c, 0, 80, 68
1, 76358, Control_c, 0, 64, 60
1, 76372, Control_c, 0, 64, 0
1, 76388, Note_off_c, 0, 59, 0
1, 76388, Note_on_c, 0, 59, 7
1, 76414, Note_on_c, 0, 67, 73
1, 76416, Note_on_c, 0, 65, 39
1, 76426, Note_on_c, 0, 62, 32
1, 76438, Note_off_c, 0, 67, 66
1, 76444, Note_off_c, 0, 65, 53
1, 76457, Note_off_c, 0, 62, 53
1, 76489, Note_on_c, 0, 67, 68
1, 76519, Note_off_c, 0, 67, 62
1, 76555, Note_on_c, 0, 79, 60
1, 76575, Note_off_c, 0, 79, 66
1, 76625, Note_off_c, 0, 59, 41
1, 76641, Note_on_c, 0, 62, 36
1, 76645, Note_on_c, 0, 68, 70
1, 76671, Note_off_c, 0, 68, 66
1, 76672, Note_off_c, 0, 62, 50
1, 76722, Note_on_c, 0, 68, 62
1, 76749, Note_off_c, 0, 68, 66
1, 76758, Control_c, 0, 64, 17
1, 76773, Control_c, 0, 64, 22
1, 76787, Note_on_c, 0, 80, 57
1, 76787, Control_c, 0, 64, 24
1, 76802, Control_c, 0, 64, 26
1, 76810, Note_off_c, 0, 80, 57
1, 76817, Control_c, 0, 64, 29
1, 76832, Control_c, 0, 64, 34
1, 76847, Control_c, 0, 64, 43
1, 76869, Control_c, 0, 64, 52
1, 76883, Note_on_c, 0, 51, 51
1, 76884, Control_c, 0, 64, 60
1, 76885, Note_on_c, 0, 70, 67
1, 76899, Control_c, 0, 64, 63
1, 76912, Note_off_c, 0, 70, 66
1, 76913, Control_c, 0, 64, 66
1, 76920, Note_off_c, 0, 51, 63
1, 76928, Control_c, 0, 64, 69
1, 76943, Control_c, 0, 64, 74
1, 76948, Note_on_c, 0, 70, 67
1, 76958, Control_c, 0, 64, 80
1, 76973, Control_c, 0, 64, 86
1, 76987, Control_c, 0, 64, 92
1, 76991, Note_off_c, 0, 70, 58
1, 77002, Control_c, 0, 64, 97
1, 77017, Note_on_c, 0, 82, 71
1, 77017, Control_c, 0, 64, 101
1, 77032, Control_c, 0, 64, 104
1, 77037, Note_off_c, 0, 82, 60
1, 77047, Control_c, 0, 64, 108
1, 77061, Control_c, 0, 64, 110
1, 77076, Control_c, 0, 64, 115
1, 77091, Control_c, 0, 64, 117
1, 77103, Note_on_c, 0, 67, 59
1, 77106, Control_c, 0, 64, 120
1, 77112, Note_on_c, 0, 58, 56
1, 77112, Note_on_c, 0, 63, 59
1, 77122, Note_off_c, 0, 67, 61
1, 77131, Note_off_c, 0, 63, 63
1, 77136, Control_c, 0, 64, 121
1, 77137, Note_off_c, 0, 58, 63
1, 77151, Control_c, 0, 64, 124
1, 77166, Control_c, 0, 64, 127
1, 77187, Note_on_c, 0, 63, 47
1, 77208, Note_off_c, 0, 63, 60
1, 77241, Note_on_c, 0, 75, 56
1, 77262, Note_off_c, 0, 75, 60
1, 77352, Note_on_c, 0, 75, 64
1, 77407, Note_off_c, 0, 75, 56
1, 77440, Note_on_c, 0, 75, 45
1, 77479, Note_off_c, 0, 75, 58
1, 77509, Note_on_c, 0, 75, 69
1, 77534, Note_off_c, 0, 75, 64
1, 77582, Note_on_c, 0, 87, 66
1, 77622, Note_off_c, 0, 87, 58
1, 77651, Note_on_c, 0, 87, 61
1, 77684, Note_off_c, 0, 87, 62
1, 77725, Note_on_c, 0, 99, 72
1, 77749, Note_off_c, 0, 99, 69
1, 77857, Note_on_c, 0, 86, 43
1, 77881, Note_off_c, 0, 86, 58
1, 78006, Note_on_c, 0, 99, 51
1, 78027, Note_off_c, 0, 99, 60
1, 78096, Note_on_c, 0, 85, 72
1, 78120, Note_off_c, 0, 85, 69
1, 78158, Note_on_c, 0, 85, 70
1, 78184, Note_off_c, 0, 85, 65
1, 78227, Note_on_c, 0, 97, 71
1, 78249, Note_off_c, 0, 97, 69
1, 78334, Note_on_c, 0, 83, 71
1, 78335, Note_on_c, 0, 44, 47
1, 78364, Note_off_c, 0, 83, 68
1, 78379, Note_off_c, 0, 44, 54
1, 78422, Note_on_c, 0, 83, 62
1, 78448, Note_off_c, 0, 83, 64
1, 78492, Note_on_c, 0, 95, 48
1, 78513, Note_off_c, 0, 95, 60
1, 78559, Control_c, 0, 64, 91
1, 78573, Note_on_c, 0, 83, 64
1, 78574, Control_c, 0, 64, 72
1, 78581, Note_on_c, 0, 51, 60
1, 78581, Note_on_c, 0, 59, 55
1, 78589, Control_c, 0, 64, 53
1, 78601, Note_off_c, 0, 83, 65
1, 78604, Note_off_c, 0, 51, 58
1, 78604, Control_c, 0, 64, 0
1, 78605, Note_off_c, 0, 59, 58
1, 78665, Note_on_c, 0, 83, 66
1, 78692, Note_off_c, 0, 83, 62
1, 78709, Note_on_c, 0, 95, 67
1, 78734, Note_off_c, 0, 95, 69
1, 78829, Note_on_c, 0, 82, 63
1, 78847, Note_off_c, 0, 82, 63
1, 78850, Note_on_c, 0, 59, 7
1, 78902, Note_off_c, 0, 59, 33
1, 78935, Note_on_c, 0, 82, 28
1, 78936, Note_off_c, 0, 82, 127
1, 78963, Note_on_c, 0, 94, 45
1, 78991, Note_off_c, 0, 94, 57
1, 79020, Control_c, 0, 64, 48
1, 79035, Control_c, 0, 64, 61
1, 79045, Note_on_c, 0, 47, 42
1, 79050, Control_c, 0, 64, 65
1, 79059, Note_on_c, 0, 80, 67
1, 79064, Control_c, 0, 64, 67
1, 79072, Note_off_c, 0, 47, 56
1, 79079, Control_c, 0, 64, 70
1, 79082, Note_off_c, 0, 80, 69
1, 79094, Control_c, 0, 64, 74
1, 79115, Control_c, 0, 64, 78
1, 79130, Control_c, 0, 64, 83
1, 79145, Control_c, 0, 64, 87
1, 79151, Note_on_c, 0, 80, 58
1, 79160, Control_c, 0, 64, 90
1, 79170, Note_off_c, 0, 80, 63
1, 79175, Control_c, 0, 64, 92
1, 79190, Control_c, 0, 64, 92
1, 79202, Note_on_c, 0, 92, 64
1, 79228, Note_off_c, 0, 92, 68
1, 79234, Control_c, 0, 64, 90
1, 79249, Control_c, 0, 64, 78
1, 79264, Control_c, 0, 64, 66
1, 79279, Control_c, 0, 64, 26
1, 79294, Control_c, 0, 64, 0
1, 79304, Note_on_c, 0, 79, 67
1, 79315, Note_on_c, 0, 56, 40
1, 79322, Note_off_c, 0, 79, 68
1, 79342, Note_off_c, 0, 56, 55
1, 79347, Note_on_c, 0, 63, 3
1, 79384, Note_off_c, 0, 63, 37
1, 79389, Note_on_c, 0, 79, 58
1, 79407, Note_off_c, 0, 79, 65
1, 79433, Note_on_c, 0, 91, 69
1, 79458, Note_off_c, 0, 91, 67
1, 79538, Note_on_c, 0, 80, 68
1, 79548, Note_on_c, 0, 63, 31
1, 79552, Note_on_c, 0, 56, 38
1, 79564, Note_off_c, 0, 80, 66
1, 79583, Note_off_c, 0, 63, 46
1, 79584, Note_off_c, 0, 56, 52
1, 79615, Note_on_c, 0, 80, 58
1, 79643, Note_off_c, 0, 80, 67
1, 79680, Note_on_c, 0, 92, 63
1, 79708, Note_off_c, 0, 92, 66
1, 79754, Control_c, 0, 64, 32
1, 79762, Note_on_c, 0, 51, 47
1, 79767, Note_on_c, 0, 82, 74
1, 79769, Control_c, 0, 64, 59
1, 79784, Control_c, 0, 64, 64
1, 79791, Note_off_c, 0, 51, 60
1, 79798, Control_c, 0, 64, 66
1, 79802, Note_off_c, 0, 82, 56
1, 79813, Control_c, 0, 64, 68
1, 79828, Control_c, 0, 64, 72
1, 79837, Note_on_c, 0, 82, 61
1, 79843, Control_c, 0, 64, 76
1, 79865, Control_c, 0, 64, 78
1, 79880, Control_c, 0, 64, 81
1, 79881, Note_off_c, 0, 82, 61
1, 79895, Control_c, 0, 64, 82
1, 79910, Control_c, 0, 64, 84
1, 79919, Note_on_c, 0, 94, 45
1, 79925, Control_c, 0, 64, 85
1, 79939, Control_c, 0, 64, 85
1, 79945, Note_off_c, 0, 94, 56
1, 79954, Control_c, 0, 64, 86
1, 79969, Control_c, 0, 64, 86
1, 79984, Control_c, 0, 64, 87
1, 79999, Control_c, 0, 64, 87
1, 80013, Control_c, 0, 64, 88
1, 80028, Control_c, 0, 64, 89
1, 80034, Note_on_c, 0, 58, 40
1, 80043, Control_c, 0, 64, 90
1, 80044, Note_on_c, 0, 75, 59
1, 80045, Note_on_c, 0, 67, 29
1, 80057, Control_c, 0, 64, 92
1, 80063, Note_off_c, 0, 75, 63
1, 80063, Note_off_c, 0, 58, 54
1, 80072, Control_c, 0, 64, 95
1, 80081, Note_off_c, 0, 67, 52
1, 80087, Control_c, 0, 64, 98
1, 80102, Control_c, 0, 64, 103
1, 80117, Control_c, 0, 64, 109
1, 80126, Note_on_c, 0, 75, 46
1, 80132, Control_c, 0, 64, 121
1, 80147, Control_c, 0, 64, 127
1, 80149, Note_off_c, 0, 75, 57
1, 80172, Note_on_c, 0, 87, 53
1, 80194, Note_off_c, 0, 87, 58
1, 80263, Note_on_c, 0, 75, 64
1, 80275, Note_on_c, 0, 67, 45
1, 80303, Note_off_c, 0, 67, 56
1, 80309, Note_off_c, 0, 75, 56
1, 80332, Poly_aftertouch_c, 0, 70, 127
1, 80346, Note_on_c, 0, 75, 47
1, 80371, Poly_aftertouch_c, 0, 70, 0
1, 80379, Note_off_c, 0, 75, 65
1, 80415, Note_on_c, 0, 87, 65
1, 80444, Note_off_c, 0, 87, 64
1, 80498, Note_on_c, 0, 76, 75
1, 80519, Note_on_c, 0, 68, 50
1, 80525, Note_off_c, 0, 76, 61
1, 80532, Note_on_c, 0, 71, 36
1, 80544, Note_off_c, 0, 68, 58
1, 80563, Note_off_c, 0, 71, 49
1, 80594, Note_on_c, 0, 76, 39
1, 80624, Note_off_c, 0, 76, 59
1, 80641, Note_on_c, 0, 88, 62
1, 80658, Note_off_c, 0, 88, 66
1, 80749, Note_on_c, 0, 70, 51
1, 80754, Note_on_c, 0, 66, 44
1, 80773, Note_off_c, 0, 70, 58
1, 80796, Note_off_c, 0, 66, 45
1, 80886, Poly_aftertouch_c, 0, 75, 127
1, 80926, Poly_aftertouch_c, 0, 75, 0
1, 81008, Note_on_c, 0, 68, 36
1, 81010, Note_on_c, 0, 73, 25
1, 81023, Note_on_c, 0, 72, 38
1, 81041, Poly_aftertouch_c, 0, 64, 127
1, 81044, Note_off_c, 0, 68, 50
1, 81051, Note_off_c, 0, 72, 53
1, 81068, Poly_aftertouch_c, 0, 64, 0
1, 81101, Note_off_c, 0, 73, 59
1, 81132, Control_c, 0, 64, 108
1, 81147, Control_c, 0, 64, 72
1, 81151, Note_on_c, 0, 63, 50
1, 81158, Note_on_c, 0, 68, 37
1, 81161, Control_c, 0, 64, 35
1, 81177, Control_c, 0, 64, 0
1, 81184, Note_off_c, 0, 63, 51
1, 81198, Note_on_c, 0, 71, 50
1, 81204, Note_off_c, 0, 68, 53
1, 81222, Control_c, 0, 64, 57
1, 81237, Control_c, 0, 64, 68
1, 81251, Control_c, 0, 64, 77
1, 81252, Note_on_c, 0, 75, 59
1, 81252, Note_off_c, 0, 71, 59
1, 81266, Control_c, 0, 64, 87
1, 81281, Control_c, 0, 64, 95
1, 81288, Note_off_c, 0, 75, 0
1, 81295, Control_c, 0, 64, 100
1, 81310, Control_c, 0, 64, 103
1, 81324, Poly_aftertouch_c, 0, 75, 127
1, 81325, Control_c, 0, 64, 103
1, 81340, Control_c, 0, 64, 104
1, 81354, Poly_aftertouch_c, 0, 75, 0
1, 81393, Note_on_c, 0, 87, 61
1, 81427, Note_off_c, 0, 87, 60
1, 81477, Note_on_c, 0, 76, 66
1, 81494, Note_off_c, 0, 76, 67
1, 81551, Note_on_c, 0, 76, 55
1, 81572, Note_off_c, 0, 76, 62
1, 81607, Note_on_c, 0, 87, 65
1, 81649, Note_off_c, 0, 87, 55
1, 81691, Note_on_c, 0, 77, 75
1, 81709, Note_off_c, 0, 77, 65
1, 81759, Note_on_c, 0, 77, 76
1, 81781, Note_off_c, 0, 77, 65
1, 81822, Note_on_c, 0, 87, 71
1, 81861, Note_off_c, 0, 87, 56
1, 81896, Control_c, 0, 64, 103
1, 81909, Note_on_c, 0, 78, 77
1, 81910, Control_c, 0, 64, 101
1, 81925, Control_c, 0, 64, 93
1, 81932, Note_off_c, 0, 78, 70
1, 81940, Control_c, 0, 64, 84
1, 81954, Control_c, 0, 64, 74
1, 81969, Control_c, 0, 64, 66
1, 81983, Note_on_c, 0, 78, 66
1, 81986, Control_c, 0, 64, 55
1, 82000, Control_c, 0, 64, 38
1, 82012, Note_off_c, 0, 78, 65
1, 82015, Control_c, 0, 64, 16
1, 82030, Control_c, 0, 64, 0
1, 82053, Note_on_c, 0, 87, 54
1, 82093, Note_off_c, 0, 87, 57
1, 82137, Note_on_c, 0, 79, 67
1, 82163, Note_off_c, 0, 79, 62
1, 82213, Poly_aftertouch_c, 0, 79, 0
1, 82277, Note_on_c, 0, 87, 55
1, 82306, Note_off_c, 0, 87, 52
1, 82364, Note_on_c, 0, 80, 64
1, 82395, Note_off_c, 0, 80, 61
1, 82466, Note_on_c, 0, 80, 61
1, 82498, Note_off_c, 0, 80, 62
1, 82501, Note_on_c, 0, 51, 35
1, 82525, Note_on_c, 0, 87, 63
1, 82525, Control_c, 0, 64, 26
1, 82532, Note_off_c, 0, 51, 56
1, 82540, Control_c, 0, 64, 55
1, 82555, Control_c, 0, 64, 63
1, 82555, Control_c, 0, 67, 10
1, 82565, Note_on_c, 0, 61, 21
1, 82567, Note_off_c, 0, 87, 61
1, 82570, Control_c, 0, 64, 66
1, 82570, Control_c, 0, 67, 21
1, 82585, Control_c, 0, 64, 68
1, 82585, Control_c, 0, 67, 33
1, 82600, Control_c, 0, 64, 70
1, 82600, Control_c, 0, 67, 45
1, 82604, Note_off_c, 0, 61, 53
1, 82615, Control_c, 0, 64, 72
1, 82615, Control_c, 0, 67, 57
1, 82620, Note_on_c, 0, 67, 42
1, 82624, Note_on_c, 0, 81, 57
1, 82630, Control_c, 0, 64, 73
1, 82630, Control_c, 0, 67, 68
1, 82645, Control_c, 0, 64, 74
1, 82645, Control_c, 0, 67, 79
1, 82646, Note_off_c, 0, 67, 55
1, 82659, Control_c, 0, 64, 75
1, 82659, Control_c, 0, 67, 90
1, 82667, Note_off_c, 0, 81, 0
1, 82674, Control_c, 0, 67, 100
1, 82689, Control_c, 0, 67, 109
1, 82704, Control_c, 0, 64, 75
1, 82704, Control_c, 0, 67, 117
1, 82704, Poly_aftertouch_c, 0, 81, 127
1, 82719, Control_c, 0, 67, 124
1, 82723, Poly_aftertouch_c, 0, 81, 0
1, 82733, Control_c, 0, 67, 127
1, 82775, Note_on_c, 0, 87, 53
1, 82803, Note_off_c, 0, 87, 59
1, 82863, Note_on_c, 0, 82, 65
1, 82889, Control_c, 0, 64, 75
1, 82904, Control_c, 0, 64, 71
1, 82910, Note_off_c, 0, 82, 0
1, 82919, Control_c, 0, 64, 66
1, 82934, Control_c, 0, 64, 56
1, 82947, Poly_aftertouch_c, 0, 82, 127
1, 82949, Control_c, 0, 64, 0
1, 82963, Poly_aftertouch_c, 0, 82, 0
1, 83018, Note_on_c, 0, 87, 55
1, 83059, Note_off_c, 0, 87, 57
1, 83110, Note_on_c, 0, 83, 41
1, 83135, Note_off_c, 0, 83, 56
1, 83257, Note_on_c, 0, 87, 57
1, 83285, Note_off_c, 0, 87, 54
1, 83333, Note_on_c, 0, 84, 56
1, 83350, Note_off_c, 0, 84, 63
1, 83427, Note_on_c, 0, 84, 56
1, 83445, Note_off_c, 0, 84, 61
1, 83479, Note_on_c, 0, 87, 68
1, 83512, Note_off_c, 0, 87, 57
1, 83563, Note_on_c, 0, 85, 63
1, 83588, Note_off_c, 0, 85, 61
1, 83667, Note_on_c, 0, 85, 49
1, 83688, Note_off_c, 0, 85, 61
1, 83715, Note_on_c, 0, 87, 61
1, 83732, Note_off_c, 0, 87, 65
1, 83789, Note_on_c, 0, 86, 64
1, 83808, Note_off_c, 0, 86, 61
1, 83888, Note_on_c, 0, 86, 50
1, 83909, Note_off_c, 0, 86, 60
1, 83933, Note_on_c, 0, 87, 72
1, 83950, Control_c, 0, 64, 41
1, 83955, Note_on_c, 0, 51, 38
1, 83965, Control_c, 0, 64, 62
1, 83977, Note_off_c, 0, 87, 54
1, 83980, Control_c, 0, 64, 65
1, 83983, Note_off_c, 0, 51, 57
1, 83995, Control_c, 0, 64, 68
1, 84001, Note_on_c, 0, 59, 49
1, 84010, Control_c, 0, 64, 70
1, 84011, Poly_aftertouch_c, 0, 44, 0
1, 84024, Control_c, 0, 64, 73
1, 84025, Note_off_c, 0, 59, 57
1, 84039, Control_c, 0, 64, 75
1, 84054, Control_c, 0, 64, 78
1, 84069, Control_c, 0, 64, 80
1, 84084, Control_c, 0, 64, 82
1, 84091, Note_on_c, 0, 87, 64
1, 84098, Control_c, 0, 64, 84
1, 84113, Control_c, 0, 64, 85
1, 84114, Note_off_c, 0, 87, 67
1, 84128, Control_c, 0, 64, 86
1, 84143, Control_c, 0, 64, 86
1, 84157, Control_c, 0, 64, 87
1, 84192, Note_on_c, 0, 87, 54
1, 84210, Note_off_c, 0, 87, 63
1, 84231, Control_c, 0, 64, 87
1, 84254, Note_on_c, 0, 99, 61
1, 84287, Note_off_c, 0, 99, 63
1, 84290, Control_c, 0, 64, 87
1, 84305, Control_c, 0, 64, 84
1, 84320, Control_c, 0, 64, 75
1, 84325, Note_on_c, 0, 88, 77
1, 84335, Control_c, 0, 64, 63
1, 84338, Note_off_c, 0, 88, 72
1, 84357, Control_c, 0, 64, 0
1, 84398, Note_on_c, 0, 88, 77
1, 84430, Note_off_c, 0, 88, 62
1, 84483, Note_on_c, 0, 99, 64
1, 84509, Note_off_c, 0, 99, 68
1, 84561, Note_on_c, 0, 89, 66
1, 84576, Note_off_c, 0, 89, 68
1, 84645, Note_on_c, 0, 89, 48
1, 84666, Note_off_c, 0, 89, 60
1, 84704, Note_on_c, 0, 99, 59
1, 84734, Note_off_c, 0, 99, 64
1, 84765, Note_on_c, 0, 90, 68
1, 84779, Note_off_c, 0, 90, 69
1, 84837, Note_on_c, 0, 90, 75
1, 84863, Note_off_c, 0, 90, 62
1, 84903, Note_on_c, 0, 99, 69
1, 84935, Note_off_c, 0, 99, 57
1, 84997, Note_on_c, 0, 91, 61
1, 85014, Note_off_c, 0, 91, 65
1, 85089, Note_on_c, 0, 91, 45
1, 85121, Note_off_c, 0, 91, 58
1, 85156, Note_on_c, 0, 99, 61
1, 85202, Note_off_c, 0, 99, 50
1, 85262, Note_on_c, 0, 92, 56
1, 85290, Note_off_c, 0, 92, 66
1, 85329, Control_c, 0, 64, 42
1, 85343, Control_c, 0, 64, 54
1, 85358, Control_c, 0, 64, 59
1, 85372, Note_on_c, 0, 92, 50
1, 85373, Control_c, 0, 64, 62
1, 85388, Control_c, 0, 64, 64
1, 85402, Control_c, 0, 64, 65
1, 85417, Control_c, 0, 64, 66
1, 85420, Note_off_c, 0, 92, 53
1, 85432, Control_c, 0, 64, 68
1, 85447, Control_c, 0, 64, 69
1, 85462, Control_c, 0, 64, 70
1, 85476, Control_c, 0, 64, 71
1, 85491, Control_c, 0, 64, 72
1, 85503, Note_on_c, 0, 99, 50
1, 85506, Control_c, 0, 64, 72
1, 85521, Control_c, 0, 64, 73
1, 85545, Note_off_c, 0, 99, 60
1, 85551, Control_c, 0, 64, 73
1, 85958, Control_c, 0, 64, 73
1, 85989, Control_c, 0, 64, 72
1, 86004, Control_c, 0, 64, 71
1, 86018, Control_c, 0, 64, 70
1, 86033, Control_c, 0, 64, 68
1, 86048, Control_c, 0, 64, 66
1, 86063, Control_c, 0, 64, 63
1, 86078, Control_c, 0, 64, 55
1, 86092, Control_c, 0, 64, 48
1, 86107, Control_c, 0, 64, 44
1, 86122, Control_c, 0, 64, 43
1, 86137, Control_c, 0, 64, 43
1, 86181, Control_c, 0, 64, 42
1, 86196, Control_c, 0, 64, 42
1, 86225, Control_c, 0, 64, 41
1, 86240, Control_c, 0, 64, 40
1, 86255, Control_c, 0, 64, 40
1, 86285, Control_c, 0, 64, 39
1, 86299, Control_c, 0, 64, 39
1, 86314, Control_c, 0, 64, 38
1, 86344, Control_c, 0, 64, 38
1, 86522, Control_c, 0, 64, 38
1, 86551, Control_c, 0, 64, 39
1, 86566, Control_c, 0, 64, 40
1, 86581, Control_c, 0, 64, 42
1, 86603, Control_c, 0, 64, 46
1, 86618, Control_c, 0, 64, 54
1, 86619, Note_on_c, 0, 71, 43
1, 86633, Control_c, 0, 64, 61
1, 86636, Note_on_c, 0, 68, 38
1, 86648, Control_c, 0, 64, 64
1, 86663, Control_c, 0, 64, 66
1, 86678, Control_c, 0, 64, 69
1, 86689, Note_off_c, 0, 68, 50
1, 86693, Control_c, 0, 64, 72
1, 86707, Control_c, 0, 64, 75
1, 86722, Control_c, 0, 64, 77
1, 86727, Note_off_c, 0, 71, 38
1, 86737, Control_c, 0, 64, 78
1, 86751, Control_c, 0, 64, 79
1, 86766, Control_c, 0, 64, 80
1, 86767, Note_on_c, 0, 70, 49
1, 86791, Note_on_c, 0, 67, 30
1, 86794, Note_off_c, 0, 70, 58
1, 86797, Control_c, 0, 64, 80
1, 86812, Control_c, 0, 67, 120
1, 86826, Note_off_c, 0, 67, 46
1, 86827, Control_c, 0, 67, 110
1, 86842, Control_c, 0, 67, 97
1, 86856, Control_c, 0, 67, 79
1, 86871, Control_c, 0, 64, 79
1, 86871, Control_c, 0, 67, 63
1, 86886, Control_c, 0, 64, 74
1, 86886, Control_c, 0, 67, 48
1, 86901, Control_c, 0, 64, 66
1, 86901, Control_c, 0, 67, 31
1, 86908, Note_on_c, 0, 69, 53
1, 86911, Note_on_c, 0, 71, 72
1, 86915, Note_on_c, 0, 66, 41
1, 86915, Control_c, 0, 64, 47
1, 86915, Control_c, 0, 67, 9
1, 86930, Note_off_c, 0, 69, 61
1, 86930, Control_c, 0, 64, 0
1, 86930, Control_c, 0, 67, 0
1, 86943, Note_off_c, 0, 66, 54
1, 86945, Note_off_c, 0, 71, 60
1, 87038, Note_on_c, 0, 68, 62
1, 87040, Note_on_c, 0, 71, 96
1, 87046, Note_on_c, 0, 65, 54
1, 87072, Note_off_c, 0, 68, 60
1, 87081, Note_off_c, 0, 65, 63
1, 87093, Note_off_c, 0, 71, 63
1, 87173, Note_on_c, 0, 71, 97
1, 87178, Note_on_c, 0, 67, 60
1, 87179, Note_on_c, 0, 64, 57
1, 87199, Note_off_c, 0, 67, 62
1, 87214, Note_off_c, 0, 64, 64
1, 87219, Note_off_c, 0, 71, 63
1, 87304, Note_on_c, 0, 66, 52
1, 87310, Note_on_c, 0, 63, 48
1, 87310, Note_on_c, 0, 71, 80
1, 87346, Note_off_c, 0, 63, 56
1, 87349, Note_off_c, 0, 66, 63
1, 87353, Control_c, 0, 67, 11
1, 87368, Control_c, 0, 67, 18
1, 87369, Note_off_c, 0, 71, 59
1, 87382, Control_c, 0, 67, 28
1, 87397, Control_c, 0, 67, 39
1, 87412, Control_c, 0, 67, 52
1, 87427, Control_c, 0, 67, 69
1, 87442, Control_c, 0, 67, 88
1, 87449, Note_on_c, 0, 65, 56
1, 87456, Control_c, 0, 67, 118
1, 87457, Note_on_c, 0, 71, 69
1, 87462, Note_on_c, 0, 62, 44
1, 87471, Control_c, 0, 67, 127
1, 87483, Note_off_c, 0, 65, 62
1, 87493, Note_off_c, 0, 71, 57
1, 87494, Note_off_c, 0, 62, 59
1, 87587, Note_on_c, 0, 64, 47
1, 87595, Note_on_c, 0, 61, 41
1, 87602, Note_on_c, 0, 71, 61
1, 87611, Note_off_c, 0, 64, 60
1, 87623, Note_off_c, 0, 61, 57
1, 87641, Note_off_c, 0, 71, 56
1, 87730, Note_on_c, 0, 73, 56
1, 87772, Note_off_c, 0, 73, 59
1, 87792, Note_on_c, 0, 71, 54
1, 87831, Note_off_c, 0, 71, 62
1, 87864, Note_on_c, 0, 70, 49
1, 87893, Note_off_c, 0, 70, 53
1, 87924, Note_on_c, 0, 71, 61
1, 87962, Note_off_c, 0, 71, 58
1, 88018, Note_on_c, 0, 59, 45
1, 88025, Note_on_c, 0, 66, 33
1, 88045, Note_off_c, 0, 59, 55
1, 88058, Note_off_c, 0, 66, 50
1, 88075, Note_on_c, 0, 78, 48
1, 88106, Note_off_c, 0, 78, 59
1, 88159, Note_on_c, 0, 78, 64
1, 88177, Note_off_c, 0, 78, 66
1, 88240, Note_on_c, 0, 78, 69
1, 88265, Control_c, 0, 67, 126
1, 88272, Note_off_c, 0, 78, 62
1, 88279, Control_c, 0, 67, 113
1, 88294, Control_c, 0, 67, 94
1, 88309, Control_c, 0, 67, 69
1, 88317, Note_on_c, 0, 71, 61
1, 88323, Control_c, 0, 67, 43
1, 88338, Control_c, 0, 67, 17
1, 88343, Note_on_c, 0, 66, 32
1, 88346, Note_off_c, 0, 71, 66
1, 88353, Control_c, 0, 67, 0
1, 88354, Note_on_c, 0, 54, 16
1, 88377, Note_off_c, 0, 66, 48
1, 88388, Note_on_c, 0, 83, 67
1, 88391, Note_off_c, 0, 54, 42
1, 88411, Note_off_c, 0, 83, 68
1, 88472, Note_on_c, 0, 83, 75
1, 88495, Note_off_c, 0, 83, 67
1, 88551, Note_on_c, 0, 83, 69
1, 88575, Note_off_c, 0, 83, 68
1, 88632, Note_on_c, 0, 73, 46
1, 88657, Note_off_c, 0, 73, 57
1, 88684, Note_on_c, 0, 85, 60
1, 88713, Note_off_c, 0, 85, 68
1, 88757, Note_on_c, 0, 85, 65
1, 88781, Note_off_c, 0, 85, 69
1, 88829, Note_on_c, 0, 85, 70
1, 88865, Note_off_c, 0, 85, 65
1, 88932, Note_on_c, 0, 78, 63
1, 88948, Note_on_c, 0, 66, 46
1, 88956, Note_on_c, 0, 58, 49
1, 88973, Note_off_c, 0, 78, 62
1, 88976, Note_off_c, 0, 66, 56
1, 88997, Note_off_c, 0, 58, 61
1, 89007, Note_on_c, 0, 90, 65
1, 89038, Note_off_c, 0, 90, 63
1, 89080, Note_on_c, 0, 90, 70
1, 89104, Note_off_c, 0, 90, 69
1, 89159, Note_on_c, 0, 90, 77
1, 89183, Note_off_c, 0, 90, 66
1, 89241, Note_on_c, 0, 85, 71
1, 89245, Note_on_c, 0, 66, 54
1, 89258, Note_on_c, 0, 54, 36
1, 89268, Note_off_c, 0, 66, 61
1, 89285, Note_off_c, 0, 85, 59
1, 89288, Note_off_c, 0, 54, 51
1, 89343, Note_on_c, 0, 97, 79
1, 89362, Note_on_c, 0, 90, 57
1, 89372, Note_off_c, 0, 97, 59
1, 89381, Note_off_c, 0, 90, 66
1, 89453, Note_on_c, 0, 90, 71
1, 89455, Note_on_c, 0, 97, 71
1, 89493, Note_off_c, 0, 97, 51
1, 89502, Note_off_c, 0, 90, 60
1, 89532, Control_c, 0, 64, 42
1, 89547, Control_c, 0, 64, 55
1, 89561, Note_on_c, 0, 87, 65
1, 89561, Control_c, 0, 64, 60
1, 89566, Note_on_c, 0, 59, 37
1, 89576, Control_c, 0, 64, 63
1, 89599, Control_c, 0, 64, 64
1, 89603, Note_off_c, 0, 59, 50
1, 89614, Control_c, 0, 64, 65
1, 89617, Note_off_c, 0, 87, 55
1, 89629, Control_c, 0, 64, 66
1, 89643, Control_c, 0, 64, 67
1, 89658, Control_c, 0, 64, 68
1, 89659, Note_on_c, 0, 99, 60
1, 89663, Note_on_c, 0, 90, 60
1, 89673, Control_c, 0, 64, 69
1, 89685, Note_off_c, 0, 99, 65
1, 89688, Control_c, 0, 64, 70
1, 89692, Note_off_c, 0, 90, 67
1, 89702, Control_c, 0, 64, 71
1, 89717, Control_c, 0, 64, 71
1, 89732, Control_c, 0, 64, 72
1, 89748, Note_on_c, 0, 99, 83
1, 89762, Note_on_c, 0, 90, 84
1, 89776, Control_c, 0, 64, 69
1, 89791, Control_c, 0, 64, 63
1, 89802, Note_off_c, 0, 99, 64
1, 89806, Control_c, 0, 64, 0
1, 89837, Note_off_c, 0, 90, 67
1, 89845, Note_on_c, 0, 83, 69
1, 89864, Note_on_c, 0, 75, 60
1, 89870, Note_off_c, 0, 83, 67
1, 89871, Note_on_c, 0, 66, 50
1, 89894, Note_off_c, 0, 75, 65
1, 89895, Note_off_c, 0, 66, 58
1, 90118, Control_c, 0, 64, 38
1, 90126, Note_on_c, 0, 75, 90
1, 90133, Control_c, 0, 64, 64
1, 90140, Note_on_c, 0, 71, 57
1, 90148, Control_c, 0, 64, 69
1, 90162, Note_off_c, 0, 75, 57
1, 90162, Control_c, 0, 64, 75
1, 90174, Note_off_c, 0, 71, 63
1, 90177, Control_c, 0, 64, 82
1, 90192, Control_c, 0, 64, 90
1, 90207, Control_c, 0, 64, 99
1, 90222, Control_c, 0, 64, 110
1, 90237, Control_c, 0, 64, 127
1, 90282, Note_on_c, 0, 74, 53
1, 90303, Note_off_c, 0, 74, 61
1, 90347, Control_c, 0, 64, 86
1, 90362, Control_c, 0, 64, 62
1, 90377, Control_c, 0, 64, 0
1, 90423, Note_on_c, 0, 75, 66
1, 90425, Note_on_c, 0, 73, 49
1, 90438, Note_on_c, 0, 70, 35
1, 90448, Note_off_c, 0, 73, 60
1, 90448, Note_off_c, 0, 75, 66
1, 90469, Note_off_c, 0, 70, 50
1, 90559, Note_on_c, 0, 72, 65
1, 90562, Note_on_c, 0, 75, 73
1, 90577, Note_on_c, 0, 69, 44
1, 90589, Note_off_c, 0, 72, 63
1, 90601, Note_off_c, 0, 69, 57
1, 90610, Note_off_c, 0, 75, 62
1, 90684, Note_on_c, 0, 71, 76
1, 90684, Note_on_c, 0, 75, 91
1, 90690, Note_on_c, 0, 68, 63
1, 90706, Note_off_c, 0, 71, 69
1, 90717, Note_off_c, 0, 68, 63
1, 90725, Note_off_c, 0, 75, 60
1, 90835, Note_on_c, 0, 75, 67
1, 90843, Note_on_c, 0, 70, 50
1, 90854, Note_on_c, 0, 67, 24
1, 90867, Note_off_c, 0, 70, 59
1, 90867, Note_off_c, 0, 75, 59
1, 90892, Note_off_c, 0, 67, 44
1, 90961, Note_on_c, 0, 69, 59
1, 90961, Note_on_c, 0, 75, 70
1, 90976, Note_on_c, 0, 66, 38
1, 90994, Note_off_c, 0, 69, 65
1, 91000, Note_off_c, 0, 75, 55
1, 91006, Note_off_c, 0, 66, 54
1, 91102, Note_on_c, 0, 68, 56
1, 91109, Note_on_c, 0, 65, 42
1, 91116, Note_on_c, 0, 75, 60
1, 91124, Note_off_c, 0, 68, 61
1, 91135, Note_off_c, 0, 65, 53
1, 91148, Note_off_c, 0, 75, 61
1, 91216, Note_on_c, 0, 77, 70
1, 91262, Note_on_c, 0, 75, 65
1, 91271, Note_off_c, 0, 77, 61
1, 91299, Note_off_c, 0, 75, 57
1, 91343, Note_on_c, 0, 74, 53
1, 91385, Note_off_c, 0, 74, 59
1, 91410, Note_on_c, 0, 75, 55
1, 91430, Note_off_c, 0, 75, 62
1, 91470, Note_on_c, 0, 70, 59
1, 91485, Note_on_c, 0, 63, 49
1, 91486, Note_on_c, 0, 66, 33
1, 91492, Note_off_c, 0, 70, 63
1, 91510, Note_off_c, 0, 63, 57
1, 91519, Note_off_c, 0, 66, 50
1, 91537, Note_on_c, 0, 82, 59
1, 91567, Note_off_c, 0, 82, 66
1, 91626, Note_on_c, 0, 82, 62
1, 91643, Note_off_c, 0, 82, 62
1, 91695, Note_on_c, 0, 82, 71
1, 91718, Note_off_c, 0, 82, 68
1, 91775, Note_on_c, 0, 70, 56
1, 91782, Note_on_c, 0, 75, 56
1, 91792, Note_on_c, 0, 58, 34
1, 91798, Note_off_c, 0, 70, 62
1, 91814, Note_off_c, 0, 75, 64
1, 91823, Note_off_c, 0, 58, 50
1, 91864, Note_on_c, 0, 87, 51
1, 91883, Note_off_c, 0, 87, 63
1, 91926, Note_on_c, 0, 87, 65
1, 91952, Note_off_c, 0, 87, 66
1, 91999, Note_on_c, 0, 87, 66
1, 92026, Note_off_c, 0, 87, 66
1, 92070, Note_on_c, 0, 77, 60
1, 92096, Note_off_c, 0, 77, 63
1, 92127, Note_on_c, 0, 89, 67
1, 92152, Note_off_c, 0, 89, 69
1, 92215, Note_on_c, 0, 89, 65
1, 92231, Note_off_c, 0, 89, 67
1, 92290, Note_on_c, 0, 89, 59
1, 92309, Note_off_c, 0, 89, 65
1, 92333, Control_c, 0, 64, 28
1, 92348, Control_c, 0, 64, 59
1, 92364, Control_c, 0, 64, 63
1, 92379, Control_c, 0, 64, 65
1, 92383, Note_on_c, 0, 82, 68
1, 92393, Control_c, 0, 64, 66
1, 92399, Note_on_c, 0, 70, 29
1, 92406, Note_on_c, 0, 62, 36
1, 92408, Control_c, 0, 64, 68
1, 92411, Note_on_c, 0, 68, 32
1, 92423, Control_c, 0, 64, 68
1, 92425, Note_off_c, 0, 82, 62
1, 92432, Note_off_c, 0, 70, 49
1, 92443, Note_off_c, 0, 62, 56
1, 92446, Note_off_c, 0, 68, 53
1, 92462, Note_on_c, 0, 94, 67
1, 92467, Control_c, 0, 64, 67
1, 92482, Control_c, 0, 64, 60
1, 92491, Note_off_c, 0, 94, 63
1, 92497, Control_c, 0, 64, 0
1, 92544, Note_on_c, 0, 94, 71
1, 92569, Note_off_c, 0, 94, 65
1, 92627, Note_on_c, 0, 94, 85
1, 92658, Note_off_c, 0, 94, 53
1, 92709, Note_on_c, 0, 89, 67
1, 92715, Note_on_c, 0, 70, 51
1, 92729, Note_on_c, 0, 58, 33
1, 92738, Note_off_c, 0, 70, 60
1, 92745, Note_off_c, 0, 89, 61
1, 92761, Note_off_c, 0, 58, 53
1, 92781, Poly_aftertouch_c, 0, 68, 127
1, 92802, Note_on_c, 0, 101, 81
1, 92808, Poly_aftertouch_c, 0, 68, 0
1, 92810, Note_on_c, 0, 94, 70
1, 92832, Note_off_c, 0, 94, 68
1, 92851, Note_off_c, 0, 101, 61
1, 92910, Note_on_c, 0, 101, 69
1, 92920, Note_on_c, 0, 94, 66
1, 92964, Control_c, 0, 64, 33
1, 92974, Note_off_c, 0, 94, 61
1, 92976, Note_off_c, 0, 101, 62
1, 92979, Control_c, 0, 64, 47
1, 92993, Control_c, 0, 64, 56
1, 93008, Control_c, 0, 64, 61
1, 93023, Control_c, 0, 64, 64
1, 93025, Note_on_c, 0, 90, 67
1, 93037, Note_on_c, 0, 63, 27
1, 93037, Control_c, 0, 64, 66
1, 93052, Control_c, 0, 64, 67
1, 93067, Control_c, 0, 64, 69
1, 93071, Note_off_c, 0, 63, 46
1, 93082, Control_c, 0, 64, 71
1, 93093, Note_off_c, 0, 90, 52
1, 93097, Control_c, 0, 64, 72
1, 93111, Control_c, 0, 64, 73
1, 93114, Note_on_c, 0, 94, 64
1, 93116, Note_on_c, 0, 102, 70
1, 93126, Control_c, 0, 64, 73
1, 93141, Note_off_c, 0, 102, 66
1, 93143, Note_off_c, 0, 94, 64
1, 93157, Control_c, 0, 64, 74
1, 93172, Control_c, 0, 64, 74
1, 93187, Control_c, 0, 64, 75
1, 93211, Note_on_c, 0, 102, 85
1, 93216, Control_c, 0, 64, 75
1, 93227, Note_on_c, 0, 94, 68
1, 93260, Control_c, 0, 64, 75
1, 93267, Note_off_c, 0, 102, 65
1, 93275, Control_c, 0, 64, 69
1, 93290, Control_c, 0, 64, 0
1, 93301, Note_on_c, 0, 87, 79
1, 93306, Note_off_c, 0, 94, 64
1, 93309, Note_on_c, 0, 78, 67
1, 93317, Note_on_c, 0, 70, 56
1, 93322, Note_off_c, 0, 87, 67
1, 93343, Note_off_c, 0, 78, 67
1, 93345, Note_off_c, 0, 70, 62
1, 93602, Note_on_c, 0, 78, 93
1, 93608, Control_c, 0, 64, 62
1, 93615, Note_on_c, 0, 75, 54
1, 93623, Control_c, 0, 64, 70
1, 93638, Control_c, 0, 64, 77
1, 93648, Note_off_c, 0, 78, 61
1, 93650, Note_off_c, 0, 75, 64
1, 93653, Control_c, 0, 64, 83
1, 93668, Control_c, 0, 64, 91
1, 93683, Control_c, 0, 64, 114
1, 93698, Control_c, 0, 64, 127
1, 93745, Note_on_c, 0, 77, 60
1, 93767, Note_on_c, 0, 74, 41
1, 93776, Note_off_c, 0, 77, 66
1, 93795, Note_off_c, 0, 74, 55
1, 93861, Control_c, 0, 64, 74
1, 93876, Control_c, 0, 64, 0
1, 93889, Note_on_c, 0, 78, 79
1, 93894, Note_on_c, 0, 76, 53
1, 93897, Note_on_c, 0, 73, 46
1, 93912, Note_off_c, 0, 78, 66
1, 93914, Note_off_c, 0, 76, 63
1, 93921, Note_off_c, 0, 73, 59
1, 94027, Note_on_c, 0, 75, 62
1, 94035, Note_on_c, 0, 78, 76
1, 94043, Note_on_c, 0, 72, 44
1, 94058, Note_off_c, 0, 75, 64
1, 94068, Note_off_c, 0, 72, 57
1, 94092, Note_off_c, 0, 78, 63
1, 94171, Note_on_c, 0, 78, 100
1, 94175, Note_on_c, 0, 74, 70
1, 94175, Note_on_c, 0, 71, 65
1, 94200, Note_off_c, 0, 71, 63
1, 94202, Note_off_c, 0, 74, 63
1, 94217, Note_off_c, 0, 78, 59
1, 94317, Note_on_c, 0, 73, 54
1, 94321, Note_on_c, 0, 78, 72
1, 94339, Note_on_c, 0, 70, 29
1, 94351, Note_off_c, 0, 73, 65
1, 94354, Note_off_c, 0, 78, 59
1, 94372, Note_off_c, 0, 70, 46
1, 94448, Note_on_c, 0, 78, 71
1, 94450, Note_on_c, 0, 72, 55
1, 94464, Note_on_c, 0, 69, 42
1, 94476, Note_off_c, 0, 72, 61
1, 94482, Note_off_c, 0, 78, 59
1, 94491, Note_off_c, 0, 69, 56
1, 94586, Note_on_c, 0, 78, 65
1, 94590, Note_on_c, 0, 68, 43
1, 94592, Note_on_c, 0, 71, 27
1, 94619, Note_off_c, 0, 68, 54
1, 94626, Note_off_c, 0, 78, 59
1, 94628, Note_off_c, 0, 71, 42
1, 94703, Note_on_c, 0, 80, 60
1, 94745, Note_on_c, 0, 78, 64
1, 94745, Note_off_c, 0, 80, 60
1, 94786, Note_off_c, 0, 78, 58
1, 94853, Note_on_c, 0, 77, 39
1, 94878, Note_off_c, 0, 77, 57
1, 94901, Note_on_c, 0, 78, 52
1, 94923, Note_off_c, 0, 78, 59
1, 94971, Note_on_c, 0, 73, 56
1, 94988, Note_on_c, 0, 66, 41
1, 94998, Note_off_c, 0, 73, 62
1, 95016, Note_off_c, 0, 66, 55
1, 95025, Note_on_c, 0, 85, 59
1, 95054, Note_off_c, 0, 85, 65
1, 95126, Note_on_c, 0, 85, 54
1, 95146, Note_off_c, 0, 85, 63
1, 95182, Note_on_c, 0, 85, 57
1, 95211, Note_off_c, 0, 85, 66
1, 95281, Note_on_c, 0, 73, 56
1, 95281, Note_on_c, 0, 78, 59
1, 95295, Note_on_c, 0, 61, 36
1, 95304, Note_off_c, 0, 73, 63
1, 95312, Note_off_c, 0, 78, 65
1, 95325, Note_off_c, 0, 61, 53
1, 95416, Note_on_c, 0, 90, 29
1, 95442, Note_off_c, 0, 90, 65
1, 95495, Note_on_c, 0, 90, 71
1, 95526, Note_off_c, 0, 90, 59
1, 95604, Note_on_c, 0, 80, 39
1, 95632, Note_off_c, 0, 80, 53
1, 95657, Note_on_c, 0, 92, 65
1, 95683, Note_off_c, 0, 92, 68
1, 95764, Note_on_c, 0, 92, 50
1, 95785, Note_off_c, 0, 92, 60
1, 95838, Note_on_c, 0, 92, 51
1, 95868, Note_off_c, 0, 92, 67
1, 95915, Control_c, 0, 64, 16
1, 95929, Control_c, 0, 64, 44
1, 95942, Note_on_c, 0, 73, 40
1, 95944, Control_c, 0, 64, 55
1, 95948, Note_on_c, 0, 85, 53
1, 95959, Control_c, 0, 64, 61
1, 95959, Control_c, 0, 67, 10
1, 95972, Note_on_c, 0, 65, 29
1, 95974, Control_c, 0, 64, 65
1, 95974, Control_c, 0, 67, 15
1, 95988, Control_c, 0, 64, 67
1, 95988, Control_c, 0, 67, 21
1, 96003, Control_c, 0, 64, 70
1, 96003, Control_c, 0, 67, 28
1, 96009, Note_off_c, 0, 85, 53
1, 96018, Poly_aftertouch_c, 0, 71, 127
1, 96018, Control_c, 0, 64, 73
1, 96018, Control_c, 0, 67, 33
1, 96033, Control_c, 0, 64, 76
1, 96033, Control_c, 0, 67, 36
1, 96048, Control_c, 0, 64, 79
1, 96048, Control_c, 0, 67, 39
1, 96062, Control_c, 0, 64, 82
1, 96062, Control_c, 0, 67, 40
1, 96077, Control_c, 0, 64, 85
1, 96077, Control_c, 0, 67, 42
1, 96092, Control_c, 0, 64, 87
1, 96092, Control_c, 0, 67, 43
1, 96107, Control_c, 0, 64, 88
1, 96107, Control_c, 0, 67, 45
1, 96110, Note_off_c, 0, 73, 38
1, 96120, Note_on_c, 0, 97, 55
1, 96121, Note_on_c, 0, 92, 51
1, 96122, Control_c, 0, 64, 89
1, 96122, Control_c, 0, 67, 46
1, 96130, Poly_aftertouch_c, 0, 71, 0
1, 96136, Control_c, 0, 64, 90
1, 96136, Control_c, 0, 67, 48
1, 96150, Note_off_c, 0, 65, 26
1, 96151, Control_c, 0, 64, 90
1, 96151, Control_c, 0, 67, 49
1, 96154, Note_off_c, 0, 92, 65
1, 96156, Note_off_c, 0, 97, 63
1, 96166, Control_c, 0, 64, 91
1, 96166, Control_c, 0, 67, 51
1, 96181, Control_c, 0, 67, 54
1, 96196, Control_c, 0, 67, 59
1, 96211, Control_c, 0, 64, 91
1, 96211, Control_c, 0, 67, 63
1, 96226, Control_c, 0, 67, 68
1, 96240, Control_c, 0, 67, 72
1, 96255, Control_c, 0, 67, 76
1, 96264, Note_on_c, 0, 97, 62
1, 96270, Control_c, 0, 67, 80
1, 96271, Note_on_c, 0, 92, 48
1, 96285, Control_c, 0, 67, 84
1, 96300, Control_c, 0, 67, 87
1, 96311, Note_off_c, 0, 92, 64
1, 96315, Control_c, 0, 67, 90
1, 96328, Note_off_c, 0, 97, 57
1, 96336, Control_c, 0, 67, 93
1, 96352, Control_c, 0, 67, 96
1, 96367, Control_c, 0, 67, 99
1, 96382, Control_c, 0, 67, 102
1, 96397, Control_c, 0, 67, 105
1, 96411, Control_c, 0, 67, 108
1, 96426, Control_c, 0, 67, 111
1, 96441, Control_c, 0, 67, 114
1, 96456, Note_on_c, 0, 97, 58
1, 96456, Control_c, 0, 67, 118
1, 96463, Note_on_c, 0, 73, 38
1, 96465, Note_on_c, 0, 92, 43
1, 96471, Control_c, 0, 67, 122
1, 96480, Note_on_c, 0, 61, 26
1, 96485, Control_c, 0, 67, 125
1, 96487, Note_on_c, 0, 65, 22
1, 96500, Control_c, 0, 67, 127
1, 96505, Note_off_c, 0, 92, 60
1, 96516, Note_off_c, 0, 97, 53
1, 96548, Note_off_c, 0, 65, 38
1, 96557, Note_off_c, 0, 61, 37
1, 96574, Note_off_c, 0, 73, 35
1, 96634, Note_on_c, 0, 97, 62
1, 96646, Note_on_c, 0, 92, 44
1, 96688, Note_off_c, 0, 92, 62
1, 96700, Note_off_c, 0, 97, 54
1, 96810, Note_on_c, 0, 92, 53
1, 96810, Note_on_c, 0, 97, 64
1, 96838, Note_off_c, 0, 92, 65
1, 96843, Note_off_c, 0, 97, 60
1, 97079, Note_on_c, 0, 94, 56
1, 97091, Note_on_c, 0, 97, 53
1, 97108, Note_on_c, 0, 54, 32
1, 97117, Note_off_c, 0, 94, 62
1, 97130, Note_off_c, 0, 97, 59
1, 97144, Note_off_c, 0, 54, 52
1, 97169, Note_on_c, 0, 99, 61
1, 97229, Note_off_c, 0, 99, 59
1, 97236, Note_on_c, 0, 97, 60
1, 97264, Note_on_c, 0, 93, 37
1, 97293, Note_off_c, 0, 93, 46
1, 97294, Note_off_c, 0, 97, 60
1, 97331, Note_on_c, 0, 99, 58
1, 97388, Note_off_c, 0, 99, 41
1, 97403, Note_on_c, 0, 92, 64
1, 97407, Note_on_c, 0, 97, 63
1, 97412, Control_c, 0, 64, 91
1, 97426, Note_on_c, 0, 82, 46
1, 97427, Control_c, 0, 64, 87
1, 97430, Note_off_c, 0, 92, 65
1, 97442, Control_c, 0, 64, 80
1, 97443, Note_off_c, 0, 97, 58
1, 97450, Note_off_c, 0, 82, 57
1, 97457, Control_c, 0, 64, 69
1, 97472, Control_c, 0, 64, 56
1, 97486, Control_c, 0, 64, 0
1, 97489, Note_on_c, 0, 99, 56
1, 97517, Poly_aftertouch_c, 0, 78, 0
1, 97550, Note_on_c, 0, 97, 65
1, 97550, Note_off_c, 0, 99, 56
1, 97564, Note_on_c, 0, 91, 57
1, 97570, Note_on_c, 0, 83, 41
1, 97580, Note_on_c, 0, 80, 34
1, 97591, Note_off_c, 0, 91, 64
1, 97595, Note_off_c, 0, 83, 55
1, 97616, Note_off_c, 0, 97, 61
1, 97617, Note_off_c, 0, 80, 49
1, 97641, Note_on_c, 0, 99, 58
1, 97710, Note_off_c, 0, 99, 60
1, 97711, Note_on_c, 0, 90, 60
1, 97724, Note_on_c, 0, 97, 60
1, 97734, Note_off_c, 0, 90, 60
1, 97767, Note_off_c, 0, 97, 56
1, 97805, Note_on_c, 0, 99, 69
1, 97866, Note_off_c, 0, 99, 62
1, 97874, Note_on_c, 0, 97, 68
1, 97938, Note_off_c, 0, 97, 60
1, 97956, Note_on_c, 0, 99, 59
1, 97969, Control_c, 0, 64, 34
1, 97983, Note_off_c, 0, 99, 68
1, 97984, Control_c, 0, 64, 53
1, 97999, Control_c, 0, 64, 62
1, 98014, Control_c, 0, 64, 64
1, 98029, Control_c, 0, 64, 66
1, 98032, Note_on_c, 0, 92, 71
1, 98035, Note_on_c, 0, 95, 68
1, 98044, Control_c, 0, 64, 68
1, 98058, Control_c, 0, 64, 70
1, 98060, Note_off_c, 0, 92, 59
1, 98073, Control_c, 0, 64, 72
1, 98088, Control_c, 0, 64, 73
1, 98098, Note_off_c, 0, 95, 61
1, 98103, Control_c, 0, 64, 74
1, 98112, Note_on_c, 0, 97, 68
1, 98118, Control_c, 0, 64, 75
1, 98184, Note_off_c, 0, 97, 61
1, 98191, Control_c, 0, 64, 73
1, 98193, Note_on_c, 0, 95, 58
1, 98206, Control_c, 0, 64, 67
1, 98221, Control_c, 0, 64, 54
1, 98236, Control_c, 0, 64, 0
1, 98241, Note_off_c, 0, 95, 61
1, 98279, Note_on_c, 0, 97, 50
1, 98327, Note_on_c, 0, 90, 72
1, 98341, Note_off_c, 0, 97, 63
1, 98342, Note_on_c, 0, 95, 66
1, 98363, Note_on_c, 0, 80, 26
1, 98371, Note_off_c, 0, 90, 56
1, 98387, Poly_aftertouch_c, 0, 71, 0
1, 98390, Note_off_c, 0, 95, 56
1, 98396, Note_off_c, 0, 80, 53
1, 98425, Note_on_c, 0, 97, 59
1, 98483, Note_on_c, 0, 82, 43
1, 98483, Note_on_c, 0, 89, 57
1, 98490, Note_off_c, 0, 97, 62
1, 98491, Note_on_c, 0, 95, 65
1, 98515, Note_off_c, 0, 82, 52
1, 98517, Note_off_c, 0, 89, 58
1, 98521, Note_on_c, 0, 73, 3
1, 98552, Note_off_c, 0, 95, 63
1, 98559, Note_off_c, 0, 73, 43
1, 98585, Note_on_c, 0, 97, 57
1, 98634, Note_on_c, 0, 87, 63
1, 98642, Note_off_c, 0, 97, 63
1, 98652, Note_on_c, 0, 95, 57
1, 98659, Note_on_c, 0, 75, 44
1, 98670, Note_off_c, 0, 87, 59
1, 98682, Note_off_c, 0, 75, 58
1, 98711, Note_off_c, 0, 95, 62
1, 98738, Note_on_c, 0, 97, 74
1, 98799, Note_off_c, 0, 97, 58
1, 98804, Note_on_c, 0, 95, 62
1, 98858, Note_off_c, 0, 95, 61
1, 98860, Note_on_c, 0, 97, 60
1, 98867, Control_c, 0, 64, 21
1, 98881, Control_c, 0, 64, 50
1, 98896, Control_c, 0, 64, 60
1, 98911, Control_c, 0, 64, 63
1, 98926, Control_c, 0, 64, 64
1, 98937, Note_off_c, 0, 97, 63
1, 98941, Control_c, 0, 64, 65
1, 98945, Note_on_c, 0, 49, 47
1, 98955, Control_c, 0, 64, 67
1, 98966, Note_on_c, 0, 90, 63
1, 98967, Note_on_c, 0, 94, 60
1, 98970, Control_c, 0, 64, 68
1, 98973, Note_off_c, 0, 49, 59
1, 98983, Note_off_c, 0, 90, 66
1, 98985, Control_c, 0, 64, 68
1, 98999, Note_off_c, 0, 94, 64
1, 98999, Control_c, 0, 64, 69
1, 99019, Note_on_c, 0, 95, 56
1, 99090, Note_on_c, 0, 94, 64
1, 99097, Note_off_c, 0, 95, 62
1, 99103, Note_on_c, 0, 89, 52
1, 99103, Control_c, 0, 64, 68
1, 99118, Control_c, 0, 64, 64
1, 99123, Note_off_c, 0, 89, 64
1, 99132, Control_c, 0, 64, 42
1, 99147, Control_c, 0, 64, 0
1, 99156, Note_off_c, 0, 94, 63
1, 99192, Note_on_c, 0, 95, 51
1, 99244, Note_on_c, 0, 87, 66
1, 99251, Note_off_c, 0, 95, 64
1, 99254, Note_on_c, 0, 70, 42
1, 99256, Note_on_c, 0, 94, 65
1, 99264, Note_on_c, 0, 78, 43
1, 99276, Note_off_c, 0, 87, 57
1, 99284, Note_off_c, 0, 70, 54
1, 99293, Note_off_c, 0, 78, 55
1, 99311, Note_off_c, 0, 94, 59
1, 99338, Note_on_c, 0, 95, 52
1, 99405, Note_off_c, 0, 95, 63
1, 99406, Note_on_c, 0, 94, 70
1, 99409, Note_on_c, 0, 86, 59
1, 99413, Note_on_c, 0, 80, 54
1, 99423, Note_on_c, 0, 71, 38
1, 99436, Note_off_c, 0, 86, 65
1, 99449, Note_off_c, 0, 80, 61
1, 99454, Note_off_c, 0, 71, 52
1, 99476, Note_off_c, 0, 94, 62
1, 99522, Note_on_c, 0, 95, 59
1, 99551, Note_on_c, 0, 85, 63
1, 99570, Note_off_c, 0, 95, 62
1, 99570, Note_on_c, 0, 94, 68
1, 99580, Note_on_c, 0, 73, 52
1, 99585, Note_off_c, 0, 85, 60
1, 99604, Note_off_c, 0, 73, 62
1, 99635, Note_off_c, 0, 94, 61
1, 99669, Note_on_c, 0, 95, 53
1, 99717, Note_off_c, 0, 95, 59
1, 99718, Note_on_c, 0, 94, 60
1, 99758, Note_off_c, 0, 94, 56
1, 99784, Note_on_c, 0, 95, 53
1, 99821, Control_c, 0, 64, 40
1, 99836, Control_c, 0, 64, 57
1, 99851, Control_c, 0, 64, 61
1, 99862, Note_off_c, 0, 95, 64
1, 99865, Note_on_c, 0, 92, 70
1, 99865, Note_on_c, 0, 49, 55
1, 99866, Control_c, 0, 64, 63
1, 99874, Note_on_c, 0, 89, 43
1, 99881, Control_c, 0, 64, 64
1, 99895, Control_c, 0, 64, 65
1, 99897, Note_off_c, 0, 89, 58
1, 99899, Note_off_c, 0, 49, 63
1, 99910, Control_c, 0, 64, 66
1, 99925, Control_c, 0, 64, 67
1, 99928, Note_off_c, 0, 92, 62
1, 99940, Control_c, 0, 64, 68
1, 99946, Note_on_c, 0, 94, 69
1, 99970, Control_c, 0, 64, 68
1, 99999, Control_c, 0, 64, 69
1, 100015, Note_off_c, 0, 94, 63
1, 100020, Note_on_c, 0, 87, 58
1, 100032, Note_on_c, 0, 92, 56
1, 100053, Note_off_c, 0, 87, 63
1, 100059, Control_c, 0, 64, 68
1, 100063, Note_off_c, 0, 92, 65
1, 100081, Control_c, 0, 64, 65
1, 100096, Control_c, 0, 64, 55
1, 100110, Control_c, 0, 64, 0
1, 100112, Note_on_c, 0, 94, 61
1, 100166, Note_on_c, 0, 92, 74
1, 100172, Note_off_c, 0, 94, 61
1, 100173, Note_on_c, 0, 86, 60
1, 100178, Note_on_c, 0, 77, 48
1, 100179, Note_on_c, 0, 68, 44
1, 100207, Note_off_c, 0, 86, 63
1, 100211, Note_off_c, 0, 68, 54
1, 100211, Note_off_c, 0, 77, 59
1, 100232, Note_off_c, 0, 92, 62
1, 100267, Note_on_c, 0, 94, 64
1, 100324, Note_off_c, 0, 94, 61
1, 100327, Note_on_c, 0, 85, 59
1, 100333, Note_on_c, 0, 92, 60
1, 100339, Note_on_c, 0, 78, 49
1, 100347, Note_on_c, 0, 70, 38
1, 100368, Note_off_c, 0, 92, 61
1, 100375, Note_off_c, 0, 78, 58
1, 100383, Note_off_c, 0, 70, 50
1, 100387, Note_on_c, 0, 94, 61
1, 100390, Note_off_c, 0, 85, 59
1, 100438, Note_off_c, 0, 94, 64
1, 100466, Note_on_c, 0, 92, 71
1, 100479, Note_on_c, 0, 80, 66
1, 100497, Note_on_c, 0, 83, 39
1, 100503, Note_on_c, 0, 71, 39
1, 100507, Note_off_c, 0, 80, 68
1, 100524, Note_off_c, 0, 83, 55
1, 100529, Note_off_c, 0, 71, 55
1, 100554, Note_off_c, 0, 92, 61
1, 100557, Note_on_c, 0, 87, 63
1, 100587, Note_off_c, 0, 87, 64
1, 100646, Note_on_c, 0, 88, 73
1, 100716, Note_on_c, 0, 89, 80
1, 100742, Note_off_c, 0, 88, 63
1, 100793, Control_c, 0, 67, 123
1, 100808, Control_c, 0, 64, 30
1, 100808, Control_c, 0, 67, 113
1, 100813, Note_on_c, 0, 90, 81
1, 100825, Note_on_c, 0, 73, 77
1, 100829, Note_on_c, 0, 66, 68
1, 100831, Control_c, 0, 64, 58
1, 100831, Control_c, 0, 67, 97
1, 100835, Note_off_c, 0, 89, 60
1, 100846, Control_c, 0, 64, 64
1, 100846, Control_c, 0, 67, 76
1, 100860, Control_c, 0, 64, 67
1, 100860, Control_c, 0, 67, 50
1, 100875, Control_c, 0, 64, 73
1, 100875, Control_c, 0, 67, 17
1, 100890, Control_c, 0, 64, 85
1, 100890, Control_c, 0, 67, 0
1, 100892, Note_off_c, 0, 66, 58
1, 100904, Control_c, 0, 64, 107
1, 100909, Note_off_c, 0, 73, 60
1, 100919, Control_c, 0, 64, 127
1, 100921, Note_off_c, 0, 90, 64
1, 100933, Note_on_c, 0, 92, 68
1, 100985, Note_off_c, 0, 92, 63
1, 100995, Note_on_c, 0, 90, 69
1, 101043, Note_off_c, 0, 90, 61
1, 101048, Note_on_c, 0, 92, 66
1, 101103, Note_on_c, 0, 90, 81
1, 101139, Note_off_c, 0, 92, 63
1, 101183, Note_on_c, 0, 78, 95
1, 101189, Note_off_c, 0, 90, 65
1, 101216, Control_c, 0, 64, 88
1, 101231, Control_c, 0, 64, 67
1, 101246, Control_c, 0, 64, 41
1, 101261, Control_c, 0, 64, 12
1, 101275, Control_c, 0, 64, 28
1, 101284, Note_on_c, 0, 90, 94
1, 101290, Control_c, 0, 64, 51
1, 101305, Control_c, 0, 64, 64
1, 101320, Control_c, 0, 64, 78
1, 101335, Control_c, 0, 64, 114
1, 101350, Control_c, 0, 64, 127
1, 101359, Note_on_c, 0, 92, 79
1, 101361, Note_off_c, 0, 90, 62
1, 101427, Note_off_c, 0, 78, 59
1, 101429, Note_on_c, 0, 90, 87
1, 101461, Note_off_c, 0, 92, 64
1, 101498, Control_c, 0, 64, 89
1, 101504, Note_off_c, 0, 90, 64
1, 101513, Control_c, 0, 64, 38
1, 101523, Note_on_c, 0, 79, 93
1, 101527, Control_c, 0, 64, 0
1, 101594, Control_c, 0, 64, 64
1, 101600, Note_on_c, 0, 91, 84
1, 101609, Control_c, 0, 64, 77
1, 101624, Control_c, 0, 64, 127
1, 101675, Note_on_c, 0, 92, 77
1, 101678, Note_off_c, 0, 91, 63
1, 101735, Note_on_c, 0, 91, 71
1, 101770, Note_off_c, 0, 92, 63
1, 101791, Note_off_c, 0, 79, 60
1, 101803, Note_off_c, 0, 91, 64
1, 101821, Note_on_c, 0, 80, 77
1, 101863, Note_off_c, 0, 80, 61
1, 101889, Note_on_c, 0, 92, 75
1, 101956, Note_off_c, 0, 92, 51
1, 101984, Note_on_c, 0, 93, 64
1, 102036, Poly_aftertouch_c, 0, 64, 127
1, 102040, Note_off_c, 0, 93, 51
1, 102058, Note_on_c, 0, 92, 81
1, 102073, Poly_aftertouch_c, 0, 64, 0
1, 102109, Note_on_c, 0, 80, 84
1, 102128, Note_off_c, 0, 92, 62
1, 102134, Note_on_c, 0, 94, 63
1, 102137, Note_off_c, 0, 80, 58
1, 102154, Note_off_c, 0, 94, 63
1, 102156, Note_on_c, 0, 93, 66
1, 102191, Note_off_c, 0, 93, 55
1, 102217, Poly_aftertouch_c, 0, 78, 0
1, 102236, Note_on_c, 0, 92, 67
1, 102273, Note_on_c, 0, 63, 75
1, 102292, Note_off_c, 0, 92, 62
1, 102299, Note_off_c, 0, 63, 66
1, 102301, Note_on_c, 0, 93, 65
1, 102354, Note_off_c, 0, 93, 55
1, 102396, Note_on_c, 0, 92, 84
1, 102401, Note_on_c, 0, 78, 96
1, 102451, Note_off_c, 0, 78, 62
1, 102456, Note_off_c, 0, 92, 61
1, 102468, Note_on_c, 0, 93, 64
1, 102506, Note_off_c, 0, 93, 54
1, 102554, Note_on_c, 0, 92, 71
1, 102562, Note_on_c, 0, 61, 69
1, 102608, Note_on_c, 0, 93, 71
1, 102609, Note_off_c, 0, 92, 62
1, 102621, Note_off_c, 0, 61, 60
1, 102639, Note_off_c, 0, 93, 60
1, 102698, Note_on_c, 0, 76, 72
1, 102698, Note_on_c, 0, 92, 82
1, 102721, Note_off_c, 0, 76, 71
1, 102753, Note_off_c, 0, 92, 60
1, 102757, Note_on_c, 0, 93, 66
1, 102773, Control_c, 0, 67, 8
1, 102788, Control_c, 0, 67, 13
1, 102800, Note_off_c, 0, 93, 57
1, 102803, Control_c, 0, 67, 19
1, 102818, Control_c, 0, 67, 25
1, 102833, Control_c, 0, 67, 33
1, 102847, Control_c, 0, 67, 40
1, 102858, Note_on_c, 0, 92, 55
1, 102862, Control_c, 0, 67, 50
1, 102877, Control_c, 0, 67, 60
1, 102891, Control_c, 0, 67, 70
1, 102897, Note_off_c, 0, 92, 58
1, 102905, Note_on_c, 0, 93, 66
1, 102906, Control_c, 0, 67, 82
1, 102921, Control_c, 0, 67, 95
1, 102936, Control_c, 0, 67, 110
1, 102937, Note_off_c, 0, 93, 60
1, 102951, Control_c, 0, 64, 90
1, 102951, Control_c, 0, 67, 127
1, 102965, Control_c, 0, 64, 67
1, 102980, Note_on_c, 0, 102, 72
1, 102980, Control_c, 0, 64, 0
1, 102998, Note_on_c, 0, 87, 53
1, 103001, Note_on_c, 0, 92, 65
1, 103016, Note_off_c, 0, 87, 61
1, 103040, Note_off_c, 0, 92, 56
1, 103053, Note_off_c, 0, 102, 61
1, 103059, Note_on_c, 0, 93, 51
1, 103100, Note_off_c, 0, 93, 49
1, 103150, Note_on_c, 0, 92, 61
1, 103185, Note_on_c, 0, 93, 65
1, 103186, Note_off_c, 0, 92, 56
1, 103231, Note_off_c, 0, 93, 60
1, 103278, Note_on_c, 0, 85, 64
1, 103282, Note_on_c, 0, 92, 83
1, 103283, Note_on_c, 0, 100, 78
1, 103300, Note_off_c, 0, 85, 64
1, 103320, Note_off_c, 0, 100, 58
1, 103335, Note_off_c, 0, 92, 60
1, 103350, Note_on_c, 0, 93, 65
1, 103390, Note_off_c, 0, 93, 51
1, 103441, Note_on_c, 0, 92, 67
1, 103489, Note_off_c, 0, 92, 62
1, 103495, Note_on_c, 0, 93, 61
1, 103521, Note_off_c, 0, 93, 66
1, 103573, Note_on_c, 0, 84, 74
1, 103573, Note_on_c, 0, 99, 94
1, 103574, Note_on_c, 0, 92, 89
1, 103594, Note_off_c, 0, 84, 69
1, 103637, Note_off_c, 0, 92, 61
1, 103645, Note_on_c, 0, 93, 65
1, 103661, Note_off_c, 0, 99, 58
1, 103718, Note_off_c, 0, 93, 61
1, 103737, Note_on_c, 0, 92, 68
1, 103788, Note_off_c, 0, 92, 62
1, 103798, Note_on_c, 0, 93, 50
1, 103863, Note_off_c, 0, 93, 44
1, 103882, Note_on_c, 0, 97, 65
1, 103889, Note_on_c, 0, 82, 52
1, 103907, Note_on_c, 0, 92, 59
1, 103909, Note_off_c, 0, 82, 61
1, 103940, Note_off_c, 0, 92, 62
1, 103952, Note_off_c, 0, 97, 59
1, 103968, Note_on_c, 0, 93, 61
1, 104003, Note_off_c, 0, 93, 57
1, 104044, Note_on_c, 0, 92, 58
1, 104101, Note_off_c, 0, 92, 58
1, 104115, Note_on_c, 0, 93, 51
1, 104151, Note_off_c, 0, 93, 58
1, 104188, Note_on_c, 0, 99, 66
1, 104192, Note_on_c, 0, 84, 41
1, 104206, Note_on_c, 0, 92, 46
1, 104216, Note_off_c, 0, 84, 54
1, 104236, Note_off_c, 0, 92, 53
1, 104264, Note_off_c, 0, 99, 58
1, 104265, Note_on_c, 0, 93, 50
1, 104311, Note_off_c, 0, 93, 54
1, 104336, Note_on_c, 0, 92, 56
1, 104407, Note_off_c, 0, 92, 56
1, 104417, Note_on_c, 0, 93, 52
1, 104478, Control_c, 0, 64, 45
1, 104489, Note_off_c, 0, 93, 57
1, 104493, Control_c, 0, 64, 57
1, 104508, Control_c, 0, 64, 62
1, 104523, Note_on_c, 0, 85, 44
1, 104523, Note_on_c, 0, 100, 48
1, 104523, Control_c, 0, 64, 64
1, 104529, Note_on_c, 0, 92, 48
1, 104537, Control_c, 0, 64, 65
1, 104540, Note_on_c, 0, 73, 26
1, 104552, Control_c, 0, 64, 66
1, 104569, Note_off_c, 0, 85, 55
1, 104575, Control_c, 0, 64, 67
1, 104581, Note_off_c, 0, 73, 53
1, 104588, Note_off_c, 0, 92, 57
1, 104590, Control_c, 0, 64, 69
1, 104605, Control_c, 0, 64, 70
1, 104609, Note_off_c, 0, 100, 58
1, 104619, Control_c, 0, 64, 71
1, 104634, Control_c, 0, 64, 72
1, 104635, Note_on_c, 0, 93, 45
1, 104664, Note_off_c, 0, 93, 53
1, 104678, Control_c, 0, 64, 72
1, 104709, Note_on_c, 0, 92, 50
1, 104762, Note_off_c, 0, 92, 54
1, 104781, Note_on_c, 0, 93, 33
1, 104861, Note_off_c, 0, 93, 48
1, 104900, Control_c, 0, 64, 72
1, 104914, Note_on_c, 0, 92, 33
1, 104915, Note_on_c, 0, 97, 47
1, 104915, Control_c, 0, 64, 70
1, 104930, Control_c, 0, 64, 67
1, 104945, Control_c, 0, 64, 62
1, 104953, Note_on_c, 0, 88, 25
1, 104960, Control_c, 0, 64, 48
1, 104975, Control_c, 0, 64, 23
1, 104989, Control_c, 0, 64, 12
1, 104998, Note_off_c, 0, 88, 48
1, 105003, Control_c, 0, 64, 9
1, 105018, Control_c, 0, 64, 0
1, 105058, Note_off_c, 0, 97, 45
1, 105095, Note_off_c, 0, 92, 39
1, 105414, Note_on_c, 0, 79, 74
1, 105427, Control_c, 0, 64, 21
1, 105442, Control_c, 0, 64, 38
1, 105456, Control_c, 0, 64, 52
1, 105471, Control_c, 0, 64, 61
1, 105486, Control_c, 0, 64, 64
1, 105486, Control_c, 0, 67, 118
1, 105500, Control_c, 0, 64, 66
1, 105500, Control_c, 0, 67, 106
1, 105515, Control_c, 0, 64, 69
1, 105515, Control_c, 0, 67, 90
1, 105529, Note_on_c, 0, 91, 81
1, 105530, Control_c, 0, 64, 72
1, 105530, Control_c, 0, 67, 73
1, 105545, Control_c, 0, 64, 75
1, 105545, Control_c, 0, 67, 53
1, 105560, Control_c, 0, 64, 77
1, 105560, Control_c, 0, 67, 38
1, 105574, Control_c, 0, 64, 80
1, 105574, Control_c, 0, 67, 22
1, 105589, Control_c, 0, 64, 82
1, 105589, Control_c, 0, 67, 0
1, 105604, Control_c, 0, 64, 85
1, 105611, Note_off_c, 0, 91, 62
1, 105614, Note_on_c, 0, 93, 80
1, 105619, Control_c, 0, 64, 88
1, 105634, Control_c, 0, 64, 91
1, 105649, Control_c, 0, 64, 93
1, 105664, Control_c, 0, 64, 96
1, 105679, Control_c, 0, 64, 99
1, 105684, Note_on_c, 0, 91, 86
1, 105693, Control_c, 0, 64, 103
1, 105702, Note_off_c, 0, 93, 62
1, 105708, Control_c, 0, 64, 109
1, 105723, Control_c, 0, 64, 127
1, 105747, Note_off_c, 0, 79, 62
1, 105750, Note_off_c, 0, 91, 63
1, 105755, Note_on_c, 0, 78, 77
1, 105783, Note_off_c, 0, 78, 65
1, 105818, Note_on_c, 0, 90, 77
1, 105876, Note_on_c, 0, 63, 75
1, 105899, Note_off_c, 0, 90, 64
1, 105900, Note_on_c, 0, 92, 78
1, 105905, Note_off_c, 0, 63, 62
1, 105977, Note_on_c, 0, 90, 82
1, 105979, Note_off_c, 0, 92, 61
1, 105993, Note_on_c, 0, 78, 91
1, 106045, Note_off_c, 0, 78, 62
1, 106069, Note_off_c, 0, 90, 63
1, 106072, Note_on_c, 0, 92, 78
1, 106132, Note_off_c, 0, 92, 60
1, 106144, Note_on_c, 0, 61, 81
1, 106148, Note_on_c, 0, 90, 74
1, 106197, Note_off_c, 0, 61, 61
1, 106212, Note_off_c, 0, 90, 63
1, 106221, Note_on_c, 0, 92, 73
1, 106257, Note_on_c, 0, 76, 96
1, 106290, Note_off_c, 0, 92, 62
1, 106294, Note_on_c, 0, 90, 77
1, 106300, Note_off_c, 0, 76, 66
1, 106367, Note_off_c, 0, 90, 62
1, 106373, Note_on_c, 0, 92, 69
1, 106405, Note_on_c, 0, 59, 75
1, 106429, Note_off_c, 0, 92, 58
1, 106434, Note_off_c, 0, 59, 66
1, 106458, Note_on_c, 0, 90, 67
1, 106510, Note_off_c, 0, 90, 62
1, 106513, Note_on_c, 0, 75, 90
1, 106516, Note_on_c, 0, 92, 78
1, 106522, Note_on_c, 0, 73, 58
1, 106533, Note_off_c, 0, 75, 68
1, 106541, Note_off_c, 0, 73, 64
1, 106560, Note_off_c, 0, 92, 55
1, 106599, Note_on_c, 0, 90, 68
1, 106668, Note_on_c, 0, 92, 67
1, 106669, Note_off_c, 0, 90, 61
1, 106715, Note_off_c, 0, 92, 61
1, 106760, Note_on_c, 0, 100, 74
1, 106763, Note_on_c, 0, 90, 74
1, 106779, Note_on_c, 0, 85, 73
1, 106784, Control_c, 0, 64, 86
1, 106787, Note_off_c, 0, 100, 60
1, 106794, Note_off_c, 0, 85, 69
1, 106799, Control_c, 0, 64, 69
1, 106820, Control_c, 0, 64, 53
1, 106822, Note_off_c, 0, 90, 56
1, 106835, Control_c, 0, 64, 0
1, 106838, Note_on_c, 0, 92, 67
1, 106882, Note_off_c, 0, 92, 54
1, 106921, Note_on_c, 0, 90, 50
1, 106954, Control_c, 0, 67, 9
1, 106960, Note_off_c, 0, 90, 62
1, 106969, Control_c, 0, 67, 18
1, 106984, Control_c, 0, 67, 32
1, 106985, Note_on_c, 0, 92, 51
1, 106999, Control_c, 0, 67, 49
1, 107008, Note_off_c, 0, 92, 59
1, 107013, Control_c, 0, 67, 68
1, 107028, Control_c, 0, 67, 90
1, 107037, Note_on_c, 0, 99, 80
1, 107038, Note_on_c, 0, 90, 81
1, 107043, Note_on_c, 0, 83, 64
1, 107043, Control_c, 0, 67, 117
1, 107058, Control_c, 0, 67, 127
1, 107060, Note_off_c, 0, 83, 65
1, 107106, Note_off_c, 0, 90, 61
1, 107107, Note_on_c, 0, 92, 67
1, 107114, Note_off_c, 0, 99, 58
1, 107146, Control_c, 0, 64, 22
1, 107161, Control_c, 0, 64, 59
1, 107173, Note_off_c, 0, 92, 61
1, 107176, Control_c, 0, 64, 64
1, 107186, Note_on_c, 0, 90, 63
1, 107190, Control_c, 0, 64, 68
1, 107195, Note_on_c, 0, 66, 48
1, 107205, Control_c, 0, 64, 74
1, 107220, Control_c, 0, 64, 82
1, 107222, Note_off_c, 0, 66, 56
1, 107235, Control_c, 0, 64, 92
1, 107249, Note_off_c, 0, 90, 61
1, 107250, Control_c, 0, 64, 107
1, 107259, Note_on_c, 0, 92, 55
1, 107264, Control_c, 0, 64, 127
1, 107316, Note_off_c, 0, 92, 39
1, 107317, Note_on_c, 0, 97, 81
1, 107326, Note_on_c, 0, 90, 71
1, 107329, Note_on_c, 0, 82, 61
1, 107346, Note_off_c, 0, 82, 65
1, 107394, Note_off_c, 0, 90, 62
1, 107410, Note_on_c, 0, 92, 68
1, 107483, Note_off_c, 0, 92, 59
1, 107490, Note_off_c, 0, 97, 29
1, 107508, Note_on_c, 0, 90, 54
1, 107563, Note_off_c, 0, 90, 45
1, 107569, Control_c, 0, 64, 84
1, 107584, Control_c, 0, 64, 65
1, 107585, Note_on_c, 0, 80, 67
1, 107586, Note_on_c, 0, 95, 56
1, 107599, Control_c, 0, 64, 14
1, 107604, Note_off_c, 0, 80, 66
1, 107607, Note_on_c, 0, 92, 56
1, 107613, Control_c, 0, 64, 0
1, 107634, Note_off_c, 0, 92, 64
1, 107654, Note_off_c, 0, 95, 54
1, 107659, Note_on_c, 0, 90, 63
1, 107717, Note_off_c, 0, 90, 60
1, 107718, Note_on_c, 0, 92, 64
1, 107780, Note_off_c, 0, 92, 59
1, 107821, Note_on_c, 0, 90, 71
1, 107824, Note_on_c, 0, 82, 80
1, 107825, Note_on_c, 0, 97, 74
1, 107847, Note_off_c, 0, 82, 65
1, 107867, Note_off_c, 0, 90, 62
1, 107881, Note_off_c, 0, 97, 61
1, 107887, Note_on_c, 0, 92, 65
1, 107930, Note_off_c, 0, 92, 51
1, 107956, Note_on_c, 0, 90, 59
1, 108009, Note_off_c, 0, 90, 63
1, 108028, Note_on_c, 0, 92, 51
1, 108048, Note_off_c, 0, 92, 62
1, 108074, Control_c, 0, 64, 52
1, 108077, Note_on_c, 0, 83, 72
1, 108081, Note_on_c, 0, 99, 87
1, 108084, Note_on_c, 0, 90, 86
1, 108088, Control_c, 0, 64, 66
1, 108099, Note_off_c, 0, 83, 68
1, 108103, Control_c, 0, 64, 72
1, 108110, Note_on_c, 0, 71, 12
1, 108118, Control_c, 0, 64, 81
1, 108133, Control_c, 0, 64, 90
1, 108148, Control_c, 0, 64, 97
1, 108153, Note_off_c, 0, 71, 53
1, 108158, Note_off_c, 0, 90, 63
1, 108162, Control_c, 0, 64, 102
1, 108165, Note_on_c, 0, 92, 64
1, 108177, Control_c, 0, 64, 105
1, 108192, Control_c, 0, 64, 106
1, 108206, Control_c, 0, 64, 107
1, 108221, Control_c, 0, 64, 108
1, 108236, Control_c, 0, 64, 108
1, 108255, Note_off_c, 0, 92, 58
1, 108267, Note_on_c, 0, 90, 55
1, 108280, Control_c, 0, 64, 107
1, 108286, Note_off_c, 0, 99, 24
1, 108295, Control_c, 0, 64, 96
1, 108318, Control_c, 0, 64, 81
1, 108320, Note_on_c, 0, 95, 63
1, 108333, Control_c, 0, 64, 68
1, 108349, Control_c, 0, 64, 36
1, 108352, Note_on_c, 0, 87, 57
1, 108364, Control_c, 0, 64, 0
1, 108372, Note_off_c, 0, 87, 64
1, 108379, Note_off_c, 0, 90, 59
1, 108385, Note_off_c, 0, 95, 63
1, 108701, Note_on_c, 0, 74, 45
1, 108763, Control_c, 0, 64, 22
1, 108778, Control_c, 0, 64, 48
1, 108793, Control_c, 0, 64, 57
1, 108808, Control_c, 0, 64, 61
1, 108823, Control_c, 0, 64, 63
1, 108837, Control_c, 0, 64, 65
1, 108844, Note_on_c, 0, 86, 47
1, 108852, Control_c, 0, 64, 66
1, 108867, Control_c, 0, 64, 69
1, 108882, Control_c, 0, 64, 72
1, 108897, Control_c, 0, 64, 75
1, 108904, Note_off_c, 0, 86, 54
1, 108911, Control_c, 0, 64, 79
1, 108926, Control_c, 0, 64, 84
1, 108941, Control_c, 0, 64, 88
1, 108955, Control_c, 0, 64, 92
1, 108957, Note_on_c, 0, 87, 49
1, 108970, Control_c, 0, 64, 96
1, 108985, Control_c, 0, 64, 99
1, 109000, Note_off_c, 0, 87, 59
1, 109000, Control_c, 0, 64, 103
1, 109015, Control_c, 0, 64, 105
1, 109026, Note_on_c, 0, 86, 57
1, 109029, Control_c, 0, 64, 108
1, 109044, Control_c, 0, 64, 110
1, 109054, Note_off_c, 0, 74, 33
1, 109067, Control_c, 0, 64, 112
1, 109068, Note_off_c, 0, 86, 55
1, 109082, Control_c, 0, 64, 113
1, 109089, Note_on_c, 0, 75, 43
1, 109097, Control_c, 0, 64, 114
1, 109107, Note_on_c, 0, 87, 58
1, 109111, Control_c, 0, 64, 116
1, 109115, Note_off_c, 0, 75, 55
1, 109142, Control_c, 0, 64, 117
1, 109149, Note_off_c, 0, 87, 56
1, 109192, Note_on_c, 0, 88, 56
1, 109219, Note_off_c, 0, 88, 54
1, 109266, Note_on_c, 0, 87, 49
1, 109288, Note_off_c, 0, 87, 58
1, 109316, Note_on_c, 0, 88, 61
1, 109330, Note_on_c, 0, 75, 46
1, 109354, Note_on_c, 0, 63, 35
1, 109369, Note_off_c, 0, 88, 58
1, 109378, Note_on_c, 0, 67, 19
1, 109383, Note_on_c, 0, 87, 50
1, 109421, Note_off_c, 0, 67, 50
1, 109424, Note_off_c, 0, 87, 60
1, 109437, Note_off_c, 0, 75, 31
1, 109455, Note_off_c, 0, 63, 32
1, 109477, Note_on_c, 0, 88, 45
1, 109504, Note_off_c, 0, 88, 55
1, 109528, Note_on_c, 0, 87, 54
1, 109554, Note_off_c, 0, 87, 58
1, 109602, Note_on_c, 0, 88, 47
1, 109616, Note_on_c, 0, 74, 43
1, 109629, Note_on_c, 0, 68, 41
1, 109633, Note_on_c, 0, 65, 36
1, 109637, Note_off_c, 0, 88, 49
1, 109646, Note_off_c, 0, 74, 54
1, 109658, Note_on_c, 0, 87, 50
1, 109675, Note_off_c, 0, 68, 44
1, 109678, Note_off_c, 0, 65, 43
1, 109697, Note_off_c, 0, 87, 53
1, 109742, Note_on_c, 0, 88, 46
1, 109768, Note_off_c, 0, 88, 55
1, 109799, Note_on_c, 0, 87, 48
1, 109816, Control_c, 0, 64, 116
1, 109830, Note_off_c, 0, 87, 58
1, 109830, Control_c, 0, 64, 104
1, 109845, Control_c, 0, 64, 90
1, 109860, Control_c, 0, 64, 76
1, 109870, Note_on_c, 0, 88, 52
1, 109875, Note_on_c, 0, 73, 45
1, 109875, Control_c, 0, 64, 64
1, 109882, Note_on_c, 0, 67, 38
1, 109890, Control_c, 0, 64, 44
1, 109905, Control_c, 0, 64, 12
1, 109906, Note_on_c, 0, 70, 31
1, 109919, Control_c, 0, 64, 23
1, 109923, Note_off_c, 0, 88, 54
1, 109929, Note_on_c, 0, 87, 52
1, 109935, Control_c, 0, 64, 45
1, 109950, Control_c, 0, 64, 60
1, 109965, Control_c, 0, 64, 67
1, 109974, Note_off_c, 0, 87, 56
1, 109979, Control_c, 0, 64, 76
1, 109994, Control_c, 0, 64, 87
1, 110009, Control_c, 0, 64, 97
1, 110011, Note_on_c, 0, 86, 61
1, 110024, Control_c, 0, 64, 104
1, 110039, Control_c, 0, 64, 109
1, 110054, Control_c, 0, 64, 116
1, 110060, Note_off_c, 0, 86, 55
1, 110069, Control_c, 0, 64, 127
1, 110078, Note_on_c, 0, 87, 59
1, 110095, Note_off_c, 0, 87, 63
1, 110098, Control_c, 0, 67, 123
1, 110113, Control_c, 0, 67, 116
1, 110128, Control_c, 0, 67, 105
1, 110132, Note_on_c, 0, 88, 59
1, 110143, Control_c, 0, 67, 93
1, 110157, Control_c, 0, 67, 80
1, 110172, Control_c, 0, 67, 67
1, 110175, Note_off_c, 0, 88, 59
1, 110185, Note_on_c, 0, 89, 62
1, 110187, Control_c, 0, 67, 55
1, 110202, Control_c, 0, 67, 44
1, 110216, Control_c, 0, 67, 32
1, 110228, Note_off_c, 0, 89, 58
1, 110231, Control_c, 0, 67, 14
1, 110244, Note_on_c, 0, 90, 62
1, 110245, Control_c, 0, 67, 0
1, 110271, Note_off_c, 0, 90, 68
1, 110313, Note_on_c, 0, 91, 66
1, 110346, Note_off_c, 0, 91, 57
1, 110375, Note_on_c, 0, 92, 60
1, 110401, Note_off_c, 0, 92, 68
1, 110447, Note_on_c, 0, 93, 62
1, 110487, Note_off_c, 0, 93, 57
1, 110500, Note_on_c, 0, 94, 66
1, 110525, Note_off_c, 0, 94, 68
1, 110531, Note_off_c, 0, 73, 61
1, 110531, Note_off_c, 0, 67, 39
1, 110547, Note_off_c, 0, 70, 40
1, 110605, Note_on_c, 0, 95, 9
1, 110616, Note_on_c, 0, 96, 62
1, 110650, Note_off_c, 0, 95, 56
1, 110686, Note_off_c, 0, 96, 65
1, 110734, Note_on_c, 0, 98, 50
1, 110774, Note_on_c, 0, 99, 77
1, 110776, Note_off_c, 0, 98, 50
1, 110802, Control_c, 0, 64, 71
1, 110805, Note_on_c, 0, 100, 95
1, 110808, Note_on_c, 0, 88, 98
1, 110813, Note_on_c, 0, 83, 89
1, 110817, Control_c, 0, 64, 0
1, 110819, Note_on_c, 0, 80, 80
1, 110823, Note_on_c, 0, 98, 52
1, 110846, Note_off_c, 0, 98, 61
1, 110857, Note_off_c, 0, 99, 55
1, 110876, Control_c, 0, 64, 65
1, 110878, Note_off_c, 0, 88, 65
1, 110890, Note_off_c, 0, 83, 61
1, 110891, Control_c, 0, 64, 83
1, 110904, Note_off_c, 0, 80, 61
1, 110905, Control_c, 0, 64, 127
1, 111026, Note_off_c, 0, 100, 64
1, 111033, Note_on_c, 0, 102, 79
1, 111115, Note_on_c, 0, 100, 75
1, 111149, Note_off_c, 0, 102, 63
1, 111170, Note_on_c, 0, 99, 81
1, 111190, Note_off_c, 0, 100, 64
1, 111214, Note_off_c, 0, 99, 65
1, 111237, Note_on_c, 0, 98, 67
1, 111293, Note_off_c, 0, 98, 55
1, 111307, Note_on_c, 0, 97, 69
1, 111357, Note_on_c, 0, 96, 65
1, 111372, Note_off_c, 0, 97, 62
1, 111416, Note_off_c, 0, 96, 63
1, 111422, Note_on_c, 0, 95, 64
1, 111467, Note_off_c, 0, 95, 44
1, 111492, Note_on_c, 0, 94, 65
1, 111534, Note_off_c, 0, 94, 61
1, 111565, Note_on_c, 0, 93, 64
1, 111588, Note_off_c, 0, 93, 59
1, 111636, Note_on_c, 0, 92, 56
1, 111654, Note_off_c, 0, 92, 64
1, 111707, Note_on_c, 0, 91, 41
1, 111732, Note_off_c, 0, 91, 55
1, 111754, Note_on_c, 0, 90, 58
1, 111809, Note_off_c, 0, 90, 56
1, 111829, Note_on_c, 0, 63, 34
1, 111834, Note_on_c, 0, 89, 23
1, 111869, Note_off_c, 0, 89, 53
1, 111877, Control_c, 0, 64, 101
1, 111880, Note_on_c, 0, 88, 54
1, 111881, Note_off_c, 0, 63, 45
1, 111892, Control_c, 0, 64, 75
1, 111899, Note_on_c, 0, 73, 41
1, 111907, Control_c, 0, 64, 55
1, 111920, Note_off_c, 0, 88, 63
1, 111922, Control_c, 0, 64, 0
1, 111968, Note_on_c, 0, 87, 51
1, 111980, Control_c, 0, 64, 32
1, 111995, Control_c, 0, 64, 65
1, 112005, Note_on_c, 0, 79, 44
1, 112010, Control_c, 0, 64, 73
1, 112025, Control_c, 0, 64, 83
1, 112033, Note_off_c, 0, 79, 58
1, 112040, Control_c, 0, 64, 92
1, 112053, Note_off_c, 0, 87, 60
1, 112062, Control_c, 0, 64, 96
1, 112077, Control_c, 0, 64, 100
1, 112092, Control_c, 0, 64, 103
1, 112094, Note_off_c, 0, 73, 40
1, 112106, Control_c, 0, 64, 107
1, 112121, Control_c, 0, 64, 110
1, 112136, Control_c, 0, 64, 112
1, 112151, Control_c, 0, 64, 113
1, 112166, Control_c, 0, 64, 114
1, 112225, Control_c, 0, 64, 115
1, 112284, Control_c, 0, 64, 114
1, 112299, Control_c, 0, 64, 107
1, 112310, Note_on_c, 0, 70, 44
1, 112313, Control_c, 0, 64, 89
1, 112329, Control_c, 0, 64, 73
1, 112344, Control_c, 0, 64, 57
1, 112359, Control_c, 0, 64, 0
1, 112373, Note_on_c, 0, 82, 46
1, 112415, Note_off_c, 0, 82, 60
1, 112418, Control_c, 0, 64, 48
1, 112433, Control_c, 0, 64, 65
1, 112448, Control_c, 0, 64, 72
1, 112451, Note_on_c, 0, 83, 49
1, 112455, Note_off_c, 0, 70, 57
1, 112463, Control_c, 0, 64, 79
1, 112477, Control_c, 0, 64, 83
1, 112492, Note_off_c, 0, 83, 61
1, 112492, Control_c, 0, 64, 85
1, 112507, Control_c, 0, 64, 87
1, 112510, Note_on_c, 0, 82, 64
1, 112522, Control_c, 0, 64, 88
1, 112531, Note_off_c, 0, 82, 64
1, 112537, Control_c, 0, 64, 89
1, 112552, Control_c, 0, 64, 91
1, 112567, Control_c, 0, 64, 92
1, 112582, Control_c, 0, 64, 93
1, 112585, Note_on_c, 0, 74, 62
1, 112597, Control_c, 0, 64, 94
1, 112615, Note_off_c, 0, 74, 64
1, 112626, Control_c, 0, 64, 95
1, 112639, Note_on_c, 0, 86, 65
1, 112656, Control_c, 0, 64, 95
1, 112669, Note_off_c, 0, 86, 60
1, 112698, Note_on_c, 0, 87, 64
1, 112715, Control_c, 0, 64, 96
1, 112753, Note_off_c, 0, 87, 58
1, 112759, Control_c, 0, 64, 96
1, 112765, Note_on_c, 0, 86, 74
1, 112789, Control_c, 0, 64, 97
1, 112806, Note_on_c, 0, 75, 64
1, 112811, Control_c, 0, 64, 98
1, 112826, Control_c, 0, 64, 98
1, 112830, Note_off_c, 0, 86, 49
1, 112832, Note_off_c, 0, 75, 67
1, 112841, Control_c, 0, 64, 99
1, 112856, Control_c, 0, 64, 100
1, 112868, Note_on_c, 0, 87, 57
1, 112871, Control_c, 0, 64, 101
1, 112885, Control_c, 0, 64, 102
1, 112895, Note_off_c, 0, 87, 50
1, 112900, Control_c, 0, 64, 102
1, 112915, Control_c, 0, 64, 103
1, 112929, Control_c, 0, 64, 104
1, 112932, Note_on_c, 0, 88, 61
1, 112959, Control_c, 0, 64, 101
1, 112963, Note_off_c, 0, 88, 54
1, 112974, Control_c, 0, 64, 85
1, 112989, Control_c, 0, 64, 65
1, 113000, Note_on_c, 0, 87, 49
1, 113003, Control_c, 0, 64, 0
1, 113026, Note_on_c, 0, 75, 45
1, 113041, Note_off_c, 0, 87, 59
1, 113046, Note_on_c, 0, 63, 35
1, 113050, Note_on_c, 0, 67, 36
1, 113063, Control_c, 0, 64, 36
1, 113076, Note_on_c, 0, 88, 54
1, 113077, Control_c, 0, 64, 64
1, 113092, Control_c, 0, 64, 73
1, 113107, Control_c, 0, 64, 82
1, 113113, Note_off_c, 0, 88, 60
1, 113123, Control_c, 0, 64, 93
1, 113128, Note_off_c, 0, 75, 59
1, 113131, Note_off_c, 0, 67, 50
1, 113138, Control_c, 0, 64, 99
1, 113142, Note_on_c, 0, 87, 50
1, 113152, Control_c, 0, 64, 104
1, 113165, Note_off_c, 0, 87, 57
1, 113167, Control_c, 0, 64, 106
1, 113182, Control_c, 0, 64, 108
1, 113197, Control_c, 0, 64, 109
1, 113203, Note_off_c, 0, 63, 32
1, 113209, Note_on_c, 0, 88, 55
1, 113212, Control_c, 0, 64, 109
1, 113250, Note_off_c, 0, 88, 54
1, 113269, Note_on_c, 0, 87, 52
1, 113280, Note_on_c, 0, 74, 45
1, 113285, Note_on_c, 0, 68, 46
1, 113302, Note_on_c, 0, 65, 34
1, 113309, Note_off_c, 0, 87, 58
1, 113314, Note_off_c, 0, 74, 59
1, 113330, Note_off_c, 0, 68, 45
1, 113344, Note_off_c, 0, 65, 45
1, 113346, Note_on_c, 0, 88, 56
1, 113360, Control_c, 0, 64, 110
1, 113382, Note_off_c, 0, 88, 50
1, 113413, Note_on_c, 0, 87, 50
1, 113440, Note_off_c, 0, 87, 53
1, 113464, Control_c, 0, 64, 108
1, 113479, Control_c, 0, 64, 91
1, 113488, Note_on_c, 0, 88, 52
1, 113494, Control_c, 0, 64, 73
1, 113508, Control_c, 0, 64, 52
1, 113514, Note_on_c, 0, 73, 48
1, 113518, Note_off_c, 0, 88, 52
1, 113520, Note_on_c, 0, 67, 41
1, 113523, Control_c, 0, 64, 0
1, 113536, Note_on_c, 0, 87, 53
1, 113544, Note_on_c, 0, 70, 39
1, 113588, Note_off_c, 0, 87, 55
1, 113589, Control_c, 0, 64, 63
1, 113604, Control_c, 0, 64, 71
1, 113619, Control_c, 0, 64, 80
1, 113627, Note_on_c, 0, 86, 61
1, 113634, Control_c, 0, 64, 91
1, 113649, Control_c, 0, 64, 98
1, 113664, Control_c, 0, 64, 103
1, 113672, Note_off_c, 0, 86, 56
1, 113678, Control_c, 0, 64, 106
1, 113693, Control_c, 0, 64, 108
1, 113694, Note_on_c, 0, 87, 59
1, 113708, Control_c, 0, 64, 110
1, 113712, Note_off_c, 0, 87, 63
1, 113723, Control_c, 0, 64, 113
1, 113738, Control_c, 0, 64, 116
1, 113744, Note_on_c, 0, 88, 58
1, 113752, Control_c, 0, 64, 121
1, 113767, Control_c, 0, 64, 127
1, 113801, Note_off_c, 0, 88, 59
1, 113802, Note_on_c, 0, 89, 65
1, 113834, Note_off_c, 0, 89, 64
1, 113847, Note_on_c, 0, 90, 68
1, 113874, Note_off_c, 0, 90, 66
1, 113923, Note_on_c, 0, 91, 64
1, 113956, Note_off_c, 0, 91, 52
1, 113982, Note_on_c, 0, 92, 65
1, 114004, Note_off_c, 0, 92, 69
1, 114048, Note_on_c, 0, 93, 71
1, 114098, Note_off_c, 0, 93, 61
1, 114106, Note_on_c, 0, 94, 71
1, 114109, Note_off_c, 0, 70, 59
1, 114114, Note_off_c, 0, 73, 60
1, 114120, Note_off_c, 0, 67, 38
1, 114130, Note_off_c, 0, 94, 64
1, 114173, Note_on_c, 0, 95, 62
1, 114212, Note_on_c, 0, 96, 65
1, 114220, Note_off_c, 0, 95, 53
1, 114239, Note_off_c, 0, 96, 69
1, 114243, Note_on_c, 0, 97, 70
1, 114264, Note_off_c, 0, 97, 69
1, 114325, Note_on_c, 0, 98, 66
1, 114345, Note_off_c, 0, 98, 63
1, 114352, Control_c, 0, 64, 80
1, 114367, Control_c, 0, 64, 32
1, 114377, Note_on_c, 0, 88, 102
1, 114377, Note_on_c, 0, 100, 80
1, 114382, Control_c, 0, 64, 0
1, 114385, Note_on_c, 0, 83, 90
1, 114385, Note_on_c, 0, 98, 94
1, 114388, Note_on_c, 0, 80, 83
1, 114412, Control_c, 0, 64, 60
1, 114422, Note_off_c, 0, 98, 55
1, 114427, Control_c, 0, 64, 75
1, 114442, Control_c, 0, 64, 127
1, 114442, Note_off_c, 0, 88, 66
1, 114445, Note_off_c, 0, 83, 60
1, 114458, Note_off_c, 0, 80, 60
1, 114595, Note_off_c, 0, 100, 64
1, 114609, Note_on_c, 0, 102, 69
1, 114677, Note_on_c, 0, 100, 65
1, 114701, Note_off_c, 0, 102, 63
1, 114733, Note_on_c, 0, 99, 70
1, 114738, Note_off_c, 0, 100, 64
1, 114759, Note_off_c, 0, 99, 67
1, 114785, Note_on_c, 0, 98, 59
1, 114811, Note_off_c, 0, 98, 49
1, 114841, Note_on_c, 0, 97, 69
1, 114906, Note_on_c, 0, 96, 58
1, 114913, Note_off_c, 0, 97, 62
1, 114933, Note_off_c, 0, 96, 57
1, 114957, Note_on_c, 0, 95, 66
1, 114993, Note_off_c, 0, 95, 53
1, 115035, Note_on_c, 0, 94, 61
1, 115075, Note_off_c, 0, 94, 64
1, 115119, Note_on_c, 0, 93, 52
1, 115138, Note_off_c, 0, 93, 59
1, 115174, Note_on_c, 0, 92, 63
1, 115198, Note_off_c, 0, 92, 69
1, 115247, Note_on_c, 0, 91, 63
1, 115299, Note_on_c, 0, 90, 67
1, 115300, Note_off_c, 0, 91, 48
1, 115366, Note_on_c, 0, 89, 60
1, 115378, Note_on_c, 0, 63, 65
1, 115383, Note_off_c, 0, 90, 62
1, 115384, Control_c, 0, 64, 82
1, 115396, Note_off_c, 0, 89, 66
1, 115398, Control_c, 0, 64, 57
1, 115413, Control_c, 0, 64, 0
1, 115438, Note_on_c, 0, 88, 54
1, 115440, Note_on_c, 0, 73, 62
1, 115443, Control_c, 0, 64, 44
1, 115457, Control_c, 0, 64, 69
1, 115461, Note_off_c, 0, 63, 62
1, 115467, Note_off_c, 0, 88, 49
1, 115472, Control_c, 0, 64, 92
1, 115487, Control_c, 0, 64, 127
1, 115494, Note_on_c, 0, 87, 72
1, 115514, Note_on_c, 0, 79, 96
1, 115552, Note_off_c, 0, 73, 62
1, 115561, Note_off_c, 0, 79, 62
1, 115571, Note_on_c, 0, 88, 59
1, 115581, Note_off_c, 0, 87, 57
1, 115623, Note_off_c, 0, 88, 56
1, 115635, Note_on_c, 0, 87, 48
1, 115698, Note_off_c, 0, 87, 59
1, 115710, Note_on_c, 0, 86, 56
1, 115753, Note_off_c, 0, 86, 54
1, 115786, Note_on_c, 0, 87, 41
1, 115820, Note_off_c, 0, 87, 55
1, 115863, Note_on_c, 0, 88, 56
1, 115885, Note_off_c, 0, 88, 54
1, 115895, Note_on_c, 0, 89, 40
1, 115922, Note_off_c, 0, 89, 55
1, 115931, Note_on_c, 0, 90, 65
1, 115963, Note_off_c, 0, 90, 62
1, 116006, Note_on_c, 0, 91, 60
1, 116043, Note_off_c, 0, 91, 57
1, 116066, Note_on_c, 0, 92, 66
1, 116090, Note_off_c, 0, 92, 69
1, 116141, Note_on_c, 0, 93, 57
1, 116169, Note_off_c, 0, 93, 49
1, 116193, Note_on_c, 0, 94, 66
1, 116220, Note_off_c, 0, 94, 68
1, 116259, Note_on_c, 0, 95, 61
1, 116297, Note_on_c, 0, 96, 70
1, 116308, Note_off_c, 0, 95, 59
1, 116338, Note_on_c, 0, 97, 73
1, 116340, Note_off_c, 0, 96, 59
1, 116368, Note_off_c, 0, 97, 64
1, 116418, Note_on_c, 0, 98, 80
1, 116444, Note_on_c, 0, 56, 62
1, 116476, Note_on_c, 0, 99, 85
1, 116487, Note_off_c, 0, 98, 62
1, 116503, Control_c, 0, 64, 87
1, 116511, Note_off_c, 0, 99, 67
1, 116518, Control_c, 0, 64, 51
1, 116520, Note_off_c, 0, 56, 61
1, 116533, Control_c, 0, 64, 0
1, 116554, Note_on_c, 0, 100, 106
1, 116570, Note_on_c, 0, 71, 86
1, 116570, Control_c, 0, 64, 59
1, 116585, Control_c, 0, 64, 76
1, 116600, Control_c, 0, 64, 127
1, 116628, Note_off_c, 0, 71, 63
1, 116740, Note_off_c, 0, 100, 60
1, 116764, Note_on_c, 0, 102, 73
1, 116836, Note_on_c, 0, 100, 65
1, 116858, Note_off_c, 0, 102, 63
1, 116886, Note_on_c, 0, 99, 76
1, 116898, Note_off_c, 0, 100, 64
1, 116925, Note_off_c, 0, 99, 63
1, 116955, Note_on_c, 0, 98, 52
1, 116980, Note_off_c, 0, 98, 50
1, 117009, Note_on_c, 0, 97, 64
1, 117066, Note_on_c, 0, 96, 63
1, 117080, Note_off_c, 0, 97, 62
1, 117101, Note_off_c, 0, 96, 63
1, 117121, Note_on_c, 0, 95, 67
1, 117178, Note_off_c, 0, 95, 59
1, 117193, Note_on_c, 0, 94, 69
1, 117235, Note_off_c, 0, 94, 58
1, 117283, Note_on_c, 0, 93, 49
1, 117313, Note_off_c, 0, 93, 54
1, 117342, Note_on_c, 0, 92, 62
1, 117368, Note_off_c, 0, 92, 67
1, 117416, Note_on_c, 0, 91, 60
1, 117462, Note_off_c, 0, 91, 50
1, 117476, Note_on_c, 0, 90, 57
1, 117482, Control_c, 0, 64, 117
1, 117497, Control_c, 0, 64, 73
1, 117512, Control_c, 0, 64, 42
1, 117526, Control_c, 0, 64, 0
1, 117529, Note_on_c, 0, 51, 54
1, 117539, Note_on_c, 0, 89, 55
1, 117551, Note_off_c, 0, 90, 60
1, 117556, Control_c, 0, 64, 59
1, 117564, Note_off_c, 0, 89, 64
1, 117571, Control_c, 0, 64, 71
1, 117586, Control_c, 0, 64, 88
1, 117600, Control_c, 0, 64, 127
1, 117605, Note_off_c, 0, 51, 59
1, 117614, Note_on_c, 0, 88, 55
1, 117644, Note_off_c, 0, 88, 49
1, 117681, Note_on_c, 0, 87, 63
1, 117699, Note_on_c, 0, 67, 50
1, 117736, Note_off_c, 0, 67, 61
1, 117751, Note_on_c, 0, 88, 52
1, 117760, Note_off_c, 0, 87, 46
1, 117811, Note_off_c, 0, 88, 57
1, 117816, Note_on_c, 0, 87, 49
1, 117878, Note_off_c, 0, 87, 58
1, 117891, Note_on_c, 0, 86, 59
1, 117944, Note_off_c, 0, 86, 50
1, 117990, Note_on_c, 0, 87, 25
1, 118023, Note_off_c, 0, 87, 52
1, 118040, Note_on_c, 0, 88, 67
1, 118085, Note_off_c, 0, 88, 56
1, 118089, Note_on_c, 0, 89, 55
1, 118127, Note_off_c, 0, 89, 64
1, 118135, Note_on_c, 0, 90, 68
1, 118174, Note_off_c, 0, 90, 59
1, 118216, Note_on_c, 0, 91, 68
1, 118262, Note_off_c, 0, 91, 52
1, 118277, Note_on_c, 0, 92, 70
1, 118301, Note_off_c, 0, 92, 66
1, 118348, Note_on_c, 0, 93, 65
1, 118397, Note_off_c, 0, 93, 60
1, 118408, Note_on_c, 0, 94, 68
1, 118433, Note_off_c, 0, 94, 68
1, 118477, Note_on_c, 0, 95, 58
1, 118522, Note_on_c, 0, 96, 74
1, 118545, Note_off_c, 0, 95, 57
1, 118563, Note_on_c, 0, 97, 77
1, 118576, Note_off_c, 0, 96, 64
1, 118588, Note_on_c, 0, 44, 47
1, 118609, Note_off_c, 0, 97, 64
1, 118647, Note_on_c, 0, 98, 88
1, 118701, Note_off_c, 0, 44, 60
1, 118713, Note_on_c, 0, 99, 92
1, 118743, Note_off_c, 0, 98, 61
1, 118781, Note_off_c, 0, 99, 64
1, 118826, Note_on_c, 0, 100, 106
1, 118829, Note_on_c, 0, 59, 96
1, 118858, Note_on_c, 0, 53, 44
1, 118887, Note_off_c, 0, 53, 56
1, 118893, Note_off_c, 0, 59, 65
1, 119141, Note_on_c, 0, 102, 90
1, 119170, Note_off_c, 0, 100, 50
1, 119217, Note_off_c, 0, 102, 65
1, 119264, Note_on_c, 0, 100, 99
1, 119378, Note_on_c, 0, 99, 93
1, 119400, Note_off_c, 0, 100, 64
1, 119496, Note_on_c, 0, 98, 81
1, 119518, Note_off_c, 0, 99, 62
1, 119586, Note_off_c, 0, 98, 49
1, 119598, Note_on_c, 0, 99, 66
1, 119665, Note_off_c, 0, 99, 60
1, 119683, Note_on_c, 0, 98, 68
1, 119735, Note_off_c, 0, 98, 39
1, 119750, Note_on_c, 0, 97, 72
1, 119805, Note_off_c, 0, 97, 59
1, 119815, Note_on_c, 0, 96, 66
1, 119870, Note_off_c, 0, 96, 50
1, 119891, Note_on_c, 0, 97, 67
1, 119950, Note_on_c, 0, 96, 60
1, 119954, Note_off_c, 0, 97, 60
1, 119986, Note_off_c, 0, 96, 64
1, 119995, Note_on_c, 0, 95, 67
1, 120030, Note_off_c, 0, 95, 58
1, 120049, Note_on_c, 0, 94, 73
1, 120088, Note_off_c, 0, 94, 61
1, 120115, Note_on_c, 0, 95, 66
1, 120150, Note_off_c, 0, 95, 59
1, 120160, Note_on_c, 0, 94, 73
1, 120216, Note_off_c, 0, 94, 61
1, 120225, Note_on_c, 0, 93, 67
1, 120249, Note_off_c, 0, 93, 65
1, 120284, Note_on_c, 0, 92, 65
1, 120318, Note_off_c, 0, 92, 67
1, 120329, Note_on_c, 0, 93, 60
1, 120382, Note_off_c, 0, 93, 62
1, 120389, Note_on_c, 0, 92, 68
1, 120433, Note_on_c, 0, 91, 74
1, 120440, Note_off_c, 0, 92, 63
1, 120480, Note_off_c, 0, 91, 61
1, 120502, Note_on_c, 0, 90, 62
1, 120520, Note_off_c, 0, 90, 66
1, 120543, Note_on_c, 0, 91, 60
1, 120572, Note_off_c, 0, 91, 64
1, 120586, Note_on_c, 0, 90, 77
1, 120657, Note_on_c, 0, 89, 60
1, 120660, Note_off_c, 0, 90, 63
1, 120674, Note_off_c, 0, 89, 67
1, 120717, Note_on_c, 0, 88, 71
1, 120762, Note_on_c, 0, 89, 61
1, 120762, Note_off_c, 0, 88, 52
1, 120815, Note_off_c, 0, 89, 64
1, 120824, Note_on_c, 0, 88, 55
1, 120863, Note_on_c, 0, 87, 65
1, 120868, Note_off_c, 0, 88, 63
1, 120929, Note_off_c, 0, 87, 61
1, 120933, Note_on_c, 0, 86, 64
1, 120965, Note_off_c, 0, 86, 59
1, 120993, Note_on_c, 0, 87, 54
1, 121026, Note_off_c, 0, 87, 65
1, 121065, Note_on_c, 0, 86, 66
1, 121113, Note_off_c, 0, 86, 59
1, 121129, Note_on_c, 0, 85, 62
1, 121176, Note_off_c, 0, 85, 49
1, 121185, Note_on_c, 0, 84, 63
1, 121241, Note_off_c, 0, 84, 51
1, 121254, Control_c, 0, 67, 9
1, 121259, Note_on_c, 0, 85, 59
1, 121269, Control_c, 0, 67, 14
1, 121284, Control_c, 0, 67, 20
1, 121298, Control_c, 0, 67, 27
1, 121310, Note_off_c, 0, 85, 55
1, 121313, Control_c, 0, 67, 36
1, 121328, Note_on_c, 0, 84, 52
1, 121328, Control_c, 0, 67, 45
1, 121343, Control_c, 0, 67, 54
1, 121347, Note_off_c, 0, 84, 62
1, 121358, Control_c, 0, 67, 63
1, 121362, Note_on_c, 0, 83, 66
1, 121372, Control_c, 0, 67, 72
1, 121387, Note_off_c, 0, 83, 66
1, 121387, Control_c, 0, 67, 79
1, 121402, Control_c, 0, 67, 85
1, 121417, Control_c, 0, 67, 90
1, 121429, Note_on_c, 0, 82, 57
1, 121432, Control_c, 0, 67, 94
1, 121447, Control_c, 0, 67, 98
1, 121450, Note_off_c, 0, 82, 63
1, 121462, Control_c, 0, 67, 102
1, 121471, Note_on_c, 0, 83, 60
1, 121477, Control_c, 0, 67, 105
1, 121492, Control_c, 0, 67, 108
1, 121502, Note_off_c, 0, 83, 64
1, 121507, Control_c, 0, 67, 109
1, 121522, Control_c, 0, 67, 110
1, 121522, Note_on_c, 0, 82, 67
1, 121536, Control_c, 0, 67, 111
1, 121562, Note_off_c, 0, 82, 59
1, 121569, Note_on_c, 0, 81, 59
1, 121587, Note_off_c, 0, 81, 66
1, 121633, Note_on_c, 0, 80, 66
1, 121656, Note_on_c, 0, 81, 70
1, 121662, Note_off_c, 0, 80, 65
1, 121710, Note_off_c, 0, 81, 63
1, 121718, Note_on_c, 0, 80, 63
1, 121729, Control_c, 0, 67, 111
1, 121743, Control_c, 0, 67, 112
1, 121746, Note_off_c, 0, 80, 66
1, 121758, Control_c, 0, 67, 113
1, 121763, Note_on_c, 0, 79, 68
1, 121773, Control_c, 0, 67, 115
1, 121796, Control_c, 0, 67, 119
1, 121799, Note_off_c, 0, 79, 63
1, 121811, Control_c, 0, 67, 124
1, 121825, Control_c, 0, 67, 127
1, 121835, Note_on_c, 0, 78, 61
1, 121854, Note_off_c, 0, 78, 65
1, 121882, Note_on_c, 0, 79, 66
1, 121930, Note_on_c, 0, 78, 70
1, 121942, Note_off_c, 0, 79, 62
1, 121984, Note_off_c, 0, 78, 65
1, 121992, Note_on_c, 0, 77, 62
1, 122019, Note_off_c, 0, 77, 66
1, 122049, Note_on_c, 0, 76, 58
1, 122088, Note_off_c, 0, 76, 49
1, 122103, Note_on_c, 0, 77, 66
1, 122137, Note_off_c, 0, 77, 56
1, 122150, Note_on_c, 0, 76, 59
1, 122152, Control_c, 0, 64, 113
1, 122166, Control_c, 0, 64, 106
1, 122181, Control_c, 0, 64, 100
1, 122194, Note_on_c, 0, 75, 62
1, 122196, Control_c, 0, 64, 94
1, 122210, Note_off_c, 0, 76, 59
1, 122211, Control_c, 0, 64, 90
1, 122226, Control_c, 0, 64, 86
1, 122240, Control_c, 0, 64, 81
1, 122255, Note_on_c, 0, 74, 67
1, 122255, Control_c, 0, 64, 75
1, 122259, Note_off_c, 0, 75, 61
1, 122270, Control_c, 0, 64, 68
1, 122285, Control_c, 0, 64, 61
1, 122298, Note_off_c, 0, 74, 54
1, 122300, Control_c, 0, 64, 54
1, 122314, Control_c, 0, 64, 50
1, 122323, Note_on_c, 0, 75, 55
1, 122329, Control_c, 0, 64, 49
1, 122357, Note_off_c, 0, 75, 61
1, 122395, Note_on_c, 0, 74, 55
1, 122421, Note_off_c, 0, 74, 53
1, 122446, Note_on_c, 0, 73, 63
1, 122478, Control_c, 0, 64, 49
1, 122496, Note_off_c, 0, 73, 57
1, 122506, Note_on_c, 0, 72, 63
1, 122522, Control_c, 0, 64, 50
1, 122558, Note_off_c, 0, 72, 51
1, 122586, Note_on_c, 0, 73, 57
1, 122629, Note_off_c, 0, 73, 59
1, 122642, Note_on_c, 0, 72, 55
1, 122674, Note_off_c, 0, 72, 65
1, 122687, Note_on_c, 0, 71, 57
1, 122708, Note_off_c, 0, 71, 63
1, 122723, Control_c, 0, 64, 50
1, 122751, Note_on_c, 0, 70, 62
1, 122768, Control_c, 0, 67, 124
1, 122780, Note_off_c, 0, 70, 62
1, 122781, Note_on_c, 0, 71, 66
1, 122782, Control_c, 0, 67, 112
1, 122797, Control_c, 0, 67, 94
1, 122812, Control_c, 0, 67, 73
1, 122827, Control_c, 0, 67, 51
1, 122839, Note_off_c, 0, 71, 50
1, 122842, Control_c, 0, 67, 31
1, 122845, Note_on_c, 0, 70, 71
1, 122857, Control_c, 0, 67, 8
1, 122871, Control_c, 0, 67, 0
1, 122886, Control_c, 0, 64, 51
1, 122902, Note_off_c, 0, 70, 58
1, 122911, Note_on_c, 0, 69, 58
1, 122936, Note_off_c, 0, 69, 62
1, 122960, Control_c, 0, 64, 51
1, 122967, Note_on_c, 0, 68, 62
1, 122998, Note_off_c, 0, 68, 62
1, 123016, Note_on_c, 0, 69, 55
1, 123051, Note_off_c, 0, 69, 63
1, 123063, Note_on_c, 0, 68, 58
1, 123119, Note_off_c, 0, 68, 58
1, 123121, Note_on_c, 0, 67, 56
1, 123137, Control_c, 0, 64, 52
1, 123145, Note_off_c, 0, 67, 60
1, 123152, Control_c, 0, 64, 54
1, 123167, Control_c, 0, 64, 58
1, 123173, Note_on_c, 0, 66, 50
1, 123182, Control_c, 0, 64, 64
1, 123197, Note_off_c, 0, 66, 58
1, 123197, Control_c, 0, 64, 68
1, 123212, Control_c, 0, 64, 76
1, 123212, Control_c, 0, 67, 9
1, 123227, Control_c, 0, 64, 87
1, 123227, Control_c, 0, 67, 16
1, 123228, Note_on_c, 0, 67, 60
1, 123241, Control_c, 0, 64, 95
1, 123241, Control_c, 0, 67, 26
1, 123256, Control_c, 0, 64, 101
1, 123256, Control_c, 0, 67, 39
1, 123271, Control_c, 0, 64, 105
1, 123271, Control_c, 0, 67, 50
1, 123291, Note_on_c, 0, 66, 59
1, 123293, Control_c, 0, 64, 107
1, 123293, Control_c, 0, 67, 60
1, 123302, Note_off_c, 0, 67, 57
1, 123308, Control_c, 0, 64, 108
1, 123308, Control_c, 0, 67, 69
1, 123322, Control_c, 0, 64, 109
1, 123322, Control_c, 0, 67, 77
1, 123337, Control_c, 0, 64, 110
1, 123337, Control_c, 0, 67, 85
1, 123352, Control_c, 0, 64, 110
1, 123352, Control_c, 0, 67, 92
1, 123363, Note_on_c, 0, 65, 60
1, 123367, Control_c, 0, 67, 98
1, 123379, Note_off_c, 0, 66, 58
1, 123382, Control_c, 0, 67, 104
1, 123391, Note_off_c, 0, 65, 62
1, 123396, Control_c, 0, 67, 109
1, 123411, Control_c, 0, 67, 114
1, 123426, Control_c, 0, 67, 119
1, 123441, Control_c, 0, 67, 123
1, 123456, Control_c, 0, 67, 127
1, 123561, Control_c, 0, 64, 107
1, 123575, Control_c, 0, 64, 91
1, 123590, Control_c, 0, 64, 74
1, 123605, Control_c, 0, 64, 59
1, 123609, Note_on_c, 0, 43, 34
1, 123620, Control_c, 0, 64, 0
1, 123620, Note_on_c, 0, 61, 40
1, 123626, Note_on_c, 0, 58, 36
1, 123632, Note_on_c, 0, 64, 41
1, 123680, Control_c, 0, 64, 53
1, 123694, Control_c, 0, 64, 66
1, 123709, Control_c, 0, 64, 72
1, 123710, Note_off_c, 0, 58, 59
1, 123724, Control_c, 0, 64, 79
1, 123726, Note_off_c, 0, 61, 55
1, 123730, Note_off_c, 0, 64, 61
1, 123738, Note_off_c, 0, 43, 58
1, 123738, Control_c, 0, 64, 85
1, 123753, Control_c, 0, 64, 89
1, 123768, Control_c, 0, 64, 92
1, 123783, Control_c, 0, 64, 93
1, 123798, Control_c, 0, 64, 94
1, 123812, Control_c, 0, 64, 95
1, 123827, Control_c, 0, 64, 97
1, 123842, Control_c, 0, 64, 99
1, 123857, Control_c, 0, 64, 101
1, 123872, Control_c, 0, 64, 105
1, 123886, Control_c, 0, 64, 109
1, 123901, Control_c, 0, 64, 115
1, 123916, Control_c, 0, 64, 127
1, 123942, Note_on_c, 0, 63, 44
1, 123978, Note_off_c, 0, 63, 49
1, 123988, Note_on_c, 0, 65, 48
1, 124014, Note_off_c, 0, 65, 57
1, 124056, Note_on_c, 0, 64, 54
1, 124090, Note_off_c, 0, 64, 62
1, 124134, Note_on_c, 0, 66, 40
1, 124165, Note_off_c, 0, 66, 52
1, 124178, Note_on_c, 0, 65, 60
1, 124210, Note_off_c, 0, 65, 62
1, 124249, Note_on_c, 0, 67, 61
1, 124272, Note_off_c, 0, 67, 63
1, 124279, Control_c, 0, 67, 124
1, 124294, Control_c, 0, 67, 119
1, 124297, Note_on_c, 0, 66, 54
1, 124309, Control_c, 0, 67, 113
1, 124324, Control_c, 0, 67, 106
1, 124337, Note_off_c, 0, 66, 61
1, 124339, Control_c, 0, 67, 97
1, 124354, Control_c, 0, 67, 87
1, 124368, Note_on_c, 0, 68, 68
1, 124368, Control_c, 0, 67, 76
1, 124383, Control_c, 0, 67, 67
1, 124394, Note_off_c, 0, 68, 66
1, 124398, Control_c, 0, 67, 58
1, 124413, Control_c, 0, 67, 50
1, 124428, Control_c, 0, 67, 44
1, 124429, Note_on_c, 0, 67, 66
1, 124443, Control_c, 0, 67, 38
1, 124454, Note_off_c, 0, 67, 66
1, 124458, Control_c, 0, 67, 33
1, 124472, Control_c, 0, 67, 28
1, 124479, Note_on_c, 0, 69, 79
1, 124487, Control_c, 0, 67, 22
1, 124502, Control_c, 0, 67, 15
1, 124503, Note_off_c, 0, 69, 66
1, 124516, Control_c, 0, 67, 8
1, 124531, Control_c, 0, 67, 0
1, 124545, Note_on_c, 0, 68, 76
1, 124568, Note_off_c, 0, 68, 68
1, 124588, Note_on_c, 0, 70, 86
1, 124619, Note_off_c, 0, 70, 61
1, 124648, Note_on_c, 0, 69, 80
1, 124673, Note_off_c, 0, 69, 63
1, 124693, Note_on_c, 0, 71, 86
1, 124736, Note_off_c, 0, 71, 60
1, 124757, Note_on_c, 0, 70, 90
1, 124805, Note_on_c, 0, 72, 92
1, 124816, Note_off_c, 0, 70, 60
1, 124848, Note_off_c, 0, 72, 64
1, 124861, Note_on_c, 0, 71, 86
1, 124908, Note_off_c, 0, 71, 63
1, 124909, Note_on_c, 0, 73, 85
1, 124950, Note_off_c, 0, 73, 58
1, 124962, Note_on_c, 0, 72, 85
1, 125005, Note_off_c, 0, 72, 62
1, 125015, Note_on_c, 0, 74, 92
1, 125057, Note_off_c, 0, 74, 60
1, 125072, Note_on_c, 0, 73, 79
1, 125121, Note_on_c, 0, 75, 90
1, 125126, Note_off_c, 0, 73, 60
1, 125163, Note_off_c, 0, 75, 62
1, 125183, Note_on_c, 0, 74, 67
1, 125216, Note_off_c, 0, 74, 61
1, 125228, Note_on_c, 0, 76, 79
1, 125272, Note_off_c, 0, 76, 60
1, 125294, Note_on_c, 0, 75, 80
1, 125338, Note_on_c, 0, 77, 77
1, 125349, Note_off_c, 0, 75, 58
1, 125388, Note_off_c, 0, 77, 61
1, 125395, Note_on_c, 0, 76, 72
1, 125441, Note_on_c, 0, 78, 72
1, 125451, Note_off_c, 0, 76, 63
1, 125465, Note_off_c, 0, 78, 68
1, 125500, Note_on_c, 0, 77, 76
1, 125537, Note_off_c, 0, 77, 62
1, 125567, Note_on_c, 0, 79, 74
1, 125591, Note_off_c, 0, 79, 69
1, 125630, Note_on_c, 0, 78, 76
1, 125656, Note_off_c, 0, 78, 64
1, 125677, Note_on_c, 0, 80, 75
1, 125700, Note_off_c, 0, 80, 66
1, 125725, Note_on_c, 0, 79, 80
1, 125769, Note_off_c, 0, 79, 63
1, 125782, Note_on_c, 0, 81, 86
1, 125824, Note_off_c, 0, 81, 62
1, 125836, Note_on_c, 0, 80, 86
1, 125883, Note_on_c, 0, 82, 93
1, 125883, Note_off_c, 0, 80, 63
1, 125927, Note_off_c, 0, 82, 64
1, 125939, Note_on_c, 0, 81, 91
1, 125981, Note_off_c, 0, 81, 66
1, 125989, Note_on_c, 0, 83, 98
1, 126029, Note_off_c, 0, 83, 62
1, 126054, Note_on_c, 0, 82, 93
1, 126091, Note_on_c, 0, 84, 99
1, 126120, Note_off_c, 0, 82, 52
1, 126138, Note_off_c, 0, 84, 62
1, 126143, Note_on_c, 0, 83, 89
1, 126197, Note_off_c, 0, 83, 62
1, 126199, Note_on_c, 0, 85, 91
1, 126240, Note_off_c, 0, 85, 63
1, 126246, Note_on_c, 0, 84, 83
1, 126293, Note_off_c, 0, 84, 63
1, 126313, Note_on_c, 0, 86, 96
1, 126347, Note_off_c, 0, 86, 66
1, 126365, Note_on_c, 0, 85, 93
1, 126407, Note_off_c, 0, 85, 65
1, 126422, Note_on_c, 0, 87, 96
1, 126461, Note_off_c, 0, 87, 64
1, 126473, Note_on_c, 0, 86, 87
1, 126511, Note_off_c, 0, 86, 64
1, 126528, Note_on_c, 0, 88, 99
1, 126566, Note_off_c, 0, 88, 68
1, 126586, Note_on_c, 0, 87, 90
1, 126630, Note_on_c, 0, 89, 97
1, 126632, Note_off_c, 0, 87, 64
1, 126677, Note_off_c, 0, 89, 65
1, 126684, Note_on_c, 0, 88, 80
1, 126730, Note_on_c, 0, 90, 98
1, 126750, Note_off_c, 0, 88, 65
1, 126773, Note_off_c, 0, 90, 66
1, 126798, Note_on_c, 0, 89, 92
1, 126839, Note_on_c, 0, 91, 101
1, 126839, Note_off_c, 0, 89, 65
1, 126878, Note_off_c, 0, 91, 66
1, 126905, Note_on_c, 0, 90, 94
1, 126944, Note_on_c, 0, 92, 99
1, 126955, Note_off_c, 0, 90, 65
1, 126992, Note_off_c, 0, 92, 65
1, 127023, Note_on_c, 0, 93, 73
1, 127033, Note_on_c, 0, 91, 72
1, 127055, Note_off_c, 0, 91, 70
1, 127100, Note_off_c, 0, 93, 64
1, 127122, Note_on_c, 0, 92, 92
1, 127171, Note_on_c, 0, 94, 98
1, 127174, Note_off_c, 0, 92, 62
1, 127212, Note_off_c, 0, 94, 64
1, 127232, Note_on_c, 0, 93, 90
1, 127275, Note_off_c, 0, 93, 66
1, 127284, Note_on_c, 0, 95, 98
1, 127327, Note_off_c, 0, 95, 66
1, 127347, Note_on_c, 0, 94, 92
1, 127394, Note_on_c, 0, 96, 96
1, 127440, Note_on_c, 0, 95, 80
1, 127442, Note_off_c, 0, 94, 62
1, 127443, Note_off_c, 0, 96, 65
1, 127495, Note_on_c, 0, 97, 82
1, 127521, Note_off_c, 0, 95, 62
1, 127531, Note_off_c, 0, 97, 66
1, 127546, Note_on_c, 0, 96, 79
1, 127591, Note_off_c, 0, 96, 65
1, 127603, Note_on_c, 0, 98, 90
1, 127649, Note_on_c, 0, 97, 85
1, 127656, Note_off_c, 0, 98, 61
1, 127704, Note_off_c, 0, 97, 64
1, 127715, Note_on_c, 0, 99, 84
1, 127753, Note_off_c, 0, 99, 66
1, 127766, Note_on_c, 0, 98, 87
1, 127820, Note_off_c, 0, 98, 61
1, 127838, Note_on_c, 0, 100, 98
1, 127891, Note_off_c, 0, 100, 66
1, 127894, Note_on_c, 0, 98, 99
1, 127933, Note_off_c, 0, 98, 63
1, 127952, Note_on_c, 0, 99, 92
1, 127997, Note_off_c, 0, 99, 66
1, 128008, Note_on_c, 0, 98, 103
1, 128050, Note_off_c, 0, 98, 64
1, 128069, Note_on_c, 0, 100, 98
1, 128117, Note_off_c, 0, 100, 66
1, 128124, Note_on_c, 0, 98, 104
1, 128168, Note_off_c, 0, 98, 64
1, 128189, Note_on_c, 0, 99, 95
1, 128232, Note_off_c, 0, 99, 65
1, 128243, Note_on_c, 0, 98, 104
1, 128288, Note_off_c, 0, 98, 63
1, 128305, Note_on_c, 0, 100, 99
1, 128352, Note_off_c, 0, 100, 66
1, 128362, Note_on_c, 0, 98, 106
1, 128408, Note_off_c, 0, 98, 65
1, 128425, Note_on_c, 0, 99, 94
1, 128468, Note_off_c, 0, 99, 65
1, 128479, Note_on_c, 0, 98, 106
1, 128538, Note_off_c, 0, 98, 63
1, 128552, Note_on_c, 0, 100, 97
1, 128600, Note_off_c, 0, 100, 66
1, 128610, Note_on_c, 0, 98, 111
1, 128671, Note_off_c, 0, 98, 63
1, 128679, Note_on_c, 0, 99, 97
1, 128735, Note_off_c, 0, 99, 64
1, 128738, Note_on_c, 0, 98, 104
1, 128811, Note_on_c, 0, 100, 101
1, 128826, Note_off_c, 0, 98, 62
1, 128871, Note_on_c, 0, 98, 92
1, 128926, Note_off_c, 0, 100, 66
1, 128952, Note_on_c, 0, 99, 109
1, 128966, Note_on_c, 0, 100, 56
1, 128998, Note_off_c, 0, 100, 65
1, 129045, Note_off_c, 0, 98, 61
1, 129172, Note_off_c, 0, 99, 58
1, 129183, Note_on_c, 0, 100, 76
1, 129218, Note_off_c, 0, 100, 62
1, 129261, Note_on_c, 0, 99, 74
1, 129299, Note_off_c, 0, 99, 64
1, 129328, Note_on_c, 0, 100, 87
1, 129372, Note_off_c, 0, 100, 65
1, 129388, Note_on_c, 0, 99, 81
1, 129414, Note_off_c, 0, 99, 64
1, 129445, Note_on_c, 0, 100, 98
1, 129486, Note_off_c, 0, 100, 66
1, 129500, Note_on_c, 0, 99, 100
1, 129535, Note_off_c, 0, 99, 61
1, 129558, Note_on_c, 0, 100, 107
1, 129603, Note_off_c, 0, 100, 67
1, 129614, Note_on_c, 0, 99, 103
1, 129641, Note_off_c, 0, 99, 63
1, 129672, Note_on_c, 0, 100, 105
1, 129720, Note_off_c, 0, 100, 66
1, 129728, Note_on_c, 0, 99, 100
1, 129762, Note_off_c, 0, 99, 64
1, 129789, Note_on_c, 0, 100, 106
1, 129835, Note_off_c, 0, 100, 66
1, 129844, Note_on_c, 0, 99, 105
1, 129877, Note_off_c, 0, 99, 64
1, 129907, Note_on_c, 0, 100, 110
1, 129956, Note_off_c, 0, 100, 66
1, 129963, Note_on_c, 0, 99, 106
1, 129994, Note_off_c, 0, 99, 66
1, 130033, Note_on_c, 0, 100, 103
1, 130075, Note_on_c, 0, 101, 20
1, 130076, Note_off_c, 0, 101, 127
1, 130083, Note_off_c, 0, 100, 66
1, 130085, Note_on_c, 0, 99, 113
1, 130113, Note_off_c, 0, 99, 67
1, 130147, Note_on_c, 0, 100, 106
1, 130198, Note_on_c, 0, 99, 109
1, 130198, Note_off_c, 0, 100, 67
1, 130227, Note_off_c, 0, 99, 66
1, 130260, Note_on_c, 0, 100, 109
1, 130310, Note_on_c, 0, 99, 109
1, 130310, Note_off_c, 0, 100, 67
1, 130339, Note_off_c, 0, 99, 68
1, 130370, Note_on_c, 0, 100, 107
1, 130424, Note_on_c, 0, 99, 107
1, 130424, Note_off_c, 0, 100, 64
1, 130453, Note_off_c, 0, 99, 67
1, 130484, Note_on_c, 0, 100, 110
1, 130534, Note_off_c, 0, 100, 66
1, 130543, Note_on_c, 0, 99, 105
1, 130572, Note_off_c, 0, 99, 67
1, 130597, Note_on_c, 0, 100, 104
1, 130640, Note_off_c, 0, 100, 68
1, 130653, Note_on_c, 0, 99, 108
1, 130685, Note_off_c, 0, 99, 66
1, 130711, Note_on_c, 0, 100, 104
1, 130759, Note_off_c, 0, 100, 66
1, 130760, Note_on_c, 0, 99, 113
1, 130807, Note_off_c, 0, 99, 64
1, 130825, Note_on_c, 0, 100, 109
1, 130878, Note_on_c, 0, 99, 102
1, 130879, Note_off_c, 0, 100, 67
1, 130911, Note_off_c, 0, 99, 65
1, 130939, Note_on_c, 0, 100, 108
1, 130987, Note_on_c, 0, 99, 101
1, 130989, Note_off_c, 0, 100, 67
1, 131024, Note_off_c, 0, 99, 64
1, 131046, Note_on_c, 0, 100, 102
1, 131102, Note_on_c, 0, 99, 96
1, 131105, Note_off_c, 0, 100, 67
1, 131141, Note_off_c, 0, 99, 64
1, 131160, Note_on_c, 0, 100, 99
1, 131224, Note_on_c, 0, 99, 94
1, 131230, Note_off_c, 0, 100, 66
1, 131275, Note_off_c, 0, 99, 60
1, 131277, Note_on_c, 0, 100, 90
1, 131374, Note_on_c, 0, 99, 86
1, 131386, Note_off_c, 0, 100, 63
1, 131680, Note_off_c, 0, 99, 51
1, 131767, Note_on_c, 0, 100, 59
1, 131868, Note_off_c, 0, 100, 45
1, 131921, Note_on_c, 0, 99, 61
1, 132020, Note_off_c, 0, 99, 36
1, 132037, Note_on_c, 0, 100, 52
1, 132091, Note_off_c, 0, 100, 59
1, 132128, Note_on_c, 0, 99, 45
1, 132169, Note_off_c, 0, 99, 62
1, 132212, Note_on_c, 0, 100, 50
1, 132277, Note_off_c, 0, 100, 59
1, 132299, Note_on_c, 0, 99, 51
1, 132342, Note_off_c, 0, 99, 58
1, 132389, Note_on_c, 0, 100, 46
1, 132426, Note_off_c, 0, 100, 49
1, 132458, Note_on_c, 0, 99, 52
1, 132489, Note_off_c, 0, 99, 61
1, 132527, Note_on_c, 0, 100, 46
1, 132572, Note_off_c, 0, 100, 58
1, 132600, Note_on_c, 0, 99, 39
1, 132628, Note_off_c, 0, 99, 55
1, 132737, Note_on_c, 0, 99, 50
1, 132783, Note_off_c, 0, 99, 57
1, 132831, Note_on_c, 0, 100, 32
1, 132864, Note_off_c, 0, 100, 55
1, 132903, Note_on_c, 0, 99, 44
1, 132932, Note_off_c, 0, 99, 52
1, 132950, Note_on_c, 0, 100, 54
1, 133007, Note_off_c, 0, 100, 59
1, 133012, Note_on_c, 0, 99, 64
1, 133042, Control_c, 0, 64, 108
1, 133042, Control_c, 0, 67, 19
1, 133057, Control_c, 0, 64, 77
1, 133057, Control_c, 0, 67, 40
1, 133071, Note_off_c, 0, 99, 56
1, 133072, Control_c, 0, 64, 60
1, 133072, Control_c, 0, 67, 65
1, 133087, Control_c, 0, 64, 0
1, 133087, Control_c, 0, 67, 90
1, 133102, Note_on_c, 0, 100, 50
1, 133102, Control_c, 0, 67, 119
1, 133117, Control_c, 0, 67, 127
1, 133159, Note_off_c, 0, 100, 62
1, 133199, Note_on_c, 0, 99, 32
1, 133233, Note_off_c, 0, 99, 51
1, 133261, Note_on_c, 0, 100, 33
1, 133299, Note_off_c, 0, 100, 51
1, 133320, Note_on_c, 0, 99, 51
1, 133361, Note_off_c, 0, 99, 57
1, 133386, Note_on_c, 0, 100, 50
1, 133439, Note_off_c, 0, 100, 57
1, 133466, Note_on_c, 0, 99, 41
1, 133505, Note_off_c, 0, 99, 49
1, 133535, Note_on_c, 0, 100, 43
1, 133583, Note_off_c, 0, 100, 46
1, 133614, Note_on_c, 0, 99, 37
1, 133651, Note_off_c, 0, 99, 51
1, 133684, Note_on_c, 0, 100, 39
1, 133725, Note_off_c, 0, 100, 48
1, 133747, Note_on_c, 0, 99, 48
1, 133801, Note_off_c, 0, 99, 58
1, 133833, Note_on_c, 0, 100, 44
1, 133875, Note_off_c, 0, 100, 48
1, 133915, Note_on_c, 0, 99, 43
1, 133943, Note_off_c, 0, 99, 54
1, 133974, Note_on_c, 0, 100, 50
1, 134011, Note_off_c, 0, 100, 48
1, 134038, Note_on_c, 0, 99, 43
1, 134089, Note_off_c, 0, 99, 58
1, 134109, Note_on_c, 0, 100, 45
1, 134158, Note_off_c, 0, 100, 54
1, 134206, Control_c, 0, 64, 56
1, 134208, Note_on_c, 0, 99, 36
1, 134220, Note_on_c, 0, 75, 39
1, 134221, Control_c, 0, 64, 64
1, 134236, Control_c, 0, 64, 68
1, 134240, Note_off_c, 0, 99, 53
1, 134251, Control_c, 0, 64, 73
1, 134258, Note_on_c, 0, 100, 53
1, 134261, Note_off_c, 0, 75, 58
1, 134265, Control_c, 0, 64, 80
1, 134280, Control_c, 0, 64, 87
1, 134295, Control_c, 0, 64, 92
1, 134306, Note_off_c, 0, 100, 58
1, 134310, Control_c, 0, 64, 99
1, 134325, Control_c, 0, 64, 105
1, 134332, Note_on_c, 0, 99, 46
1, 134339, Control_c, 0, 64, 116
1, 134354, Control_c, 0, 64, 127
1, 134373, Note_off_c, 0, 99, 58
1, 134477, Note_on_c, 0, 99, 49
1, 134479, Poly_aftertouch_c, 0, 100, 0
1, 134533, Note_on_c, 0, 87, 55
1, 134552, Note_off_c, 0, 87, 64
1, 134556, Note_on_c, 0, 100, 30
1, 134589, Note_off_c, 0, 100, 51
1, 134632, Note_off_c, 0, 99, 57
1, 134812, Note_on_c, 0, 99, 73
1, 134819, Note_on_c, 0, 87, 58
1, 134838, Note_off_c, 0, 87, 64
1, 134878, Note_off_c, 0, 99, 42
1, 134920, Note_on_c, 0, 100, 50
1, 134986, Note_off_c, 0, 100, 58
1, 134989, Note_on_c, 0, 85, 53
1, 135008, Note_off_c, 0, 85, 64
1, 135036, Note_on_c, 0, 99, 56
1, 135091, Poly_aftertouch_c, 0, 87, 127
1, 135120, Note_off_c, 0, 99, 57
1, 135126, Note_on_c, 0, 68, 42
1, 135126, Poly_aftertouch_c, 0, 87, 0
1, 135153, Note_off_c, 0, 68, 54
1, 135165, Note_on_c, 0, 100, 21
1, 135205, Note_off_c, 0, 100, 54
1, 135231, Note_on_c, 0, 99, 78
1, 135235, Note_on_c, 0, 87, 70
1, 135240, Note_on_c, 0, 83, 60
1, 135259, Note_off_c, 0, 83, 66
1, 135259, Note_off_c, 0, 87, 67
1, 135302, Note_off_c, 0, 99, 51
1, 135362, Note_on_c, 0, 100, 6
1, 135391, Note_off_c, 0, 100, 51
1, 135412, Note_on_c, 0, 99, 47
1, 135440, Note_off_c, 0, 99, 54
1, 135535, Note_on_c, 0, 83, 54
1, 135540, Note_on_c, 0, 99, 60
1, 135544, Note_on_c, 0, 87, 64
1, 135555, Note_off_c, 0, 83, 61
1, 135561, Note_off_c, 0, 87, 66
1, 135601, Note_off_c, 0, 99, 61
1, 135648, Note_on_c, 0, 100, 15
1, 135686, Note_off_c, 0, 100, 41
1, 135703, Note_on_c, 0, 99, 46
1, 135738, Note_off_c, 0, 99, 56
1, 135762, Poly_aftertouch_c, 0, 87, 0
1, 135780, Note_on_c, 0, 100, 36
1, 135813, Note_on_c, 0, 82, 59
1, 135817, Note_off_c, 0, 100, 53
1, 135827, Note_on_c, 0, 99, 69
1, 135833, Note_off_c, 0, 82, 62
1, 135837, Control_c, 0, 64, 88
1, 135851, Control_c, 0, 64, 69
1, 135866, Control_c, 0, 64, 54
1, 135881, Control_c, 0, 64, 0
1, 135889, Note_off_c, 0, 99, 56
1, 135912, Note_on_c, 0, 100, 54
1, 135970, Note_off_c, 0, 100, 63
1, 135997, Note_on_c, 0, 99, 51
1, 136027, Note_off_c, 0, 99, 62
1, 136037, Control_c, 0, 64, 39
1, 136051, Control_c, 0, 64, 60
1, 136066, Control_c, 0, 64, 67
1, 136081, Control_c, 0, 64, 73
1, 136087, Note_on_c, 0, 80, 65
1, 136095, Note_on_c, 0, 71, 56
1, 136096, Control_c, 0, 64, 80
1, 136104, Note_off_c, 0, 80, 68
1, 136111, Control_c, 0, 64, 85
1, 136115, Note_off_c, 0, 71, 62
1, 136117, Note_on_c, 0, 99, 58
1, 136122, Note_on_c, 0, 87, 73
1, 136125, Control_c, 0, 64, 88
1, 136137, Note_off_c, 0, 87, 67
1, 136140, Control_c, 0, 64, 91
1, 136155, Poly_aftertouch_c, 0, 100, 0
1, 136155, Control_c, 0, 64, 93
1, 136170, Control_c, 0, 64, 95
1, 136185, Control_c, 0, 64, 96
1, 136193, Note_off_c, 0, 99, 61
1, 136199, Control_c, 0, 64, 96
1, 136229, Control_c, 0, 64, 97
1, 136237, Note_on_c, 0, 100, 15
1, 136259, Control_c, 0, 64, 97
1, 136265, Note_off_c, 0, 100, 47
1, 136295, Note_on_c, 0, 99, 53
1, 136306, Note_on_c, 0, 87, 21
1, 136344, Note_off_c, 0, 87, 51
1, 136346, Note_off_c, 0, 99, 61
1, 136363, Control_c, 0, 64, 98
1, 136366, Note_on_c, 0, 100, 47
1, 136397, Note_on_c, 0, 79, 66
1, 136410, Note_off_c, 0, 100, 48
1, 136414, Note_off_c, 0, 79, 68
1, 136431, Note_on_c, 0, 99, 52
1, 136432, Note_on_c, 0, 87, 53
1, 136438, Control_c, 0, 64, 98
1, 136452, Note_off_c, 0, 87, 60
1, 136467, Control_c, 0, 64, 99
1, 136490, Note_off_c, 0, 99, 63
1, 136507, Note_on_c, 0, 100, 52
1, 136545, Note_off_c, 0, 100, 55
1, 136556, Control_c, 0, 64, 99
1, 136596, Note_on_c, 0, 99, 55
1, 136650, Note_off_c, 0, 99, 62
1, 136654, Note_on_c, 0, 80, 67
1, 136663, Note_on_c, 0, 100, 45
1, 136670, Note_off_c, 0, 80, 67
1, 136670, Poly_aftertouch_c, 0, 87, 0
1, 136708, Note_off_c, 0, 100, 61
1, 136740, Note_on_c, 0, 99, 56
1, 136806, Note_off_c, 0, 99, 61
1, 136814, Note_on_c, 0, 100, 58
1, 136815, Control_c, 0, 64, 98
1, 136830, Control_c, 0, 64, 88
1, 136845, Control_c, 0, 64, 72
1, 136860, Control_c, 0, 64, 56
1, 136869, Note_off_c, 0, 100, 61
1, 136874, Control_c, 0, 64, 0
1, 136912, Note_on_c, 0, 82, 73
1, 136916, Note_on_c, 0, 99, 70
1, 136919, Note_on_c, 0, 79, 63
1, 136921, Note_on_c, 0, 87, 62
1, 136933, Note_off_c, 0, 82, 69
1, 136933, Control_c, 0, 64, 50
1, 136937, Note_off_c, 0, 87, 66
1, 136945, Note_off_c, 0, 79, 70
1, 136948, Control_c, 0, 64, 66
1, 136963, Control_c, 0, 64, 73
1, 136978, Control_c, 0, 64, 81
1, 136980, Note_off_c, 0, 99, 63
1, 136986, Note_on_c, 0, 100, 59
1, 136992, Control_c, 0, 64, 87
1, 137007, Control_c, 0, 64, 88
1, 137022, Control_c, 0, 64, 89
1, 137051, Note_off_c, 0, 100, 63
1, 137078, Note_on_c, 0, 99, 56
1, 137133, Note_off_c, 0, 99, 62
1, 137162, Note_on_c, 0, 100, 44
1, 137172, Note_on_c, 0, 75, 74
1, 137196, Note_off_c, 0, 75, 65
1, 137196, Note_off_c, 0, 100, 51
1, 137239, Note_on_c, 0, 99, 55
1, 137302, Note_off_c, 0, 99, 62
1, 137307, Note_on_c, 0, 100, 46
1, 137322, Poly_aftertouch_c, 0, 87, 0
1, 137378, Note_off_c, 0, 100, 58
1, 137410, Note_on_c, 0, 75, 71
1, 137425, Note_on_c, 0, 87, 48
1, 137425, Note_on_c, 0, 99, 59
1, 137433, Note_off_c, 0, 75, 68
1, 137446, Note_off_c, 0, 87, 58
1, 137490, Note_off_c, 0, 99, 61
1, 137497, Note_on_c, 0, 100, 49
1, 137579, Control_c, 0, 64, 88
1, 137590, Note_off_c, 0, 100, 59
1, 137594, Control_c, 0, 64, 81
1, 137609, Control_c, 0, 64, 71
1, 137623, Control_c, 0, 64, 48
1, 137629, Note_on_c, 0, 99, 55
1, 137638, Control_c, 0, 64, 0
1, 137672, Note_on_c, 0, 76, 73
1, 137678, Note_on_c, 0, 67, 59
1, 137697, Control_c, 0, 64, 62
1, 137701, Note_off_c, 0, 99, 60
1, 137703, Note_on_c, 0, 100, 61
1, 137703, Note_off_c, 0, 76, 62
1, 137710, Note_off_c, 0, 67, 65
1, 137712, Control_c, 0, 64, 69
1, 137727, Control_c, 0, 64, 78
1, 137741, Control_c, 0, 64, 84
1, 137756, Control_c, 0, 64, 87
1, 137771, Control_c, 0, 64, 88
1, 137774, Note_off_c, 0, 100, 58
1, 137812, Note_on_c, 0, 87, 36
1, 137812, Note_on_c, 0, 99, 51
1, 137842, Note_off_c, 0, 87, 52
1, 137872, Note_off_c, 0, 99, 62
1, 137903, Note_on_c, 0, 100, 36
1, 137927, Note_on_c, 0, 75, 76
1, 137935, Note_off_c, 0, 100, 48
1, 137958, Note_off_c, 0, 75, 61
1, 137971, Note_on_c, 0, 87, 41
1, 137979, Note_on_c, 0, 99, 55
1, 137998, Note_off_c, 0, 87, 54
1, 138050, Note_off_c, 0, 99, 59
1, 138074, Note_on_c, 0, 100, 8
1, 138121, Note_off_c, 0, 100, 51
1, 138173, Note_on_c, 0, 99, 53
1, 138176, Note_on_c, 0, 73, 70
1, 138200, Note_off_c, 0, 73, 66
1, 138215, Poly_aftertouch_c, 0, 87, 127
1, 138232, Note_on_c, 0, 100, 60
1, 138237, Note_off_c, 0, 99, 63
1, 138241, Poly_aftertouch_c, 0, 87, 0
1, 138319, Note_off_c, 0, 100, 62
1, 138358, Control_c, 0, 64, 86
1, 138368, Note_on_c, 0, 99, 54
1, 138370, Note_on_c, 0, 87, 26
1, 138372, Control_c, 0, 64, 78
1, 138387, Control_c, 0, 64, 67
1, 138402, Control_c, 0, 64, 37
1, 138407, Note_off_c, 0, 87, 44
1, 138417, Control_c, 0, 64, 0
1, 138426, Note_off_c, 0, 99, 62
1, 138427, Note_on_c, 0, 71, 73
1, 138432, Note_on_c, 0, 100, 60
1, 138434, Note_on_c, 0, 68, 65
1, 138461, Control_c, 0, 64, 47
1, 138468, Note_off_c, 0, 71, 58
1, 138476, Control_c, 0, 64, 65
1, 138490, Control_c, 0, 64, 71
1, 138495, Note_off_c, 0, 68, 52
1, 138503, Note_off_c, 0, 100, 59
1, 138505, Control_c, 0, 64, 78
1, 138518, Note_on_c, 0, 87, 41
1, 138520, Control_c, 0, 64, 83
1, 138534, Note_on_c, 0, 99, 49
1, 138535, Control_c, 0, 64, 84
1, 138545, Note_off_c, 0, 87, 53
1, 138589, Note_off_c, 0, 99, 59
1, 138613, Note_on_c, 0, 100, 43
1, 138659, Note_off_c, 0, 100, 54
1, 138690, Note_on_c, 0, 87, 42
1, 138694, Note_on_c, 0, 71, 60
1, 138703, Note_on_c, 0, 99, 54
1, 138710, Note_on_c, 0, 68, 46
1, 138715, Note_off_c, 0, 87, 55
1, 138722, Note_off_c, 0, 71, 60
1, 138743, Note_off_c, 0, 68, 51
1, 138770, Note_off_c, 0, 99, 62
1, 138785, Note_on_c, 0, 100, 41
1, 138861, Note_off_c, 0, 100, 40
1, 138903, Note_on_c, 0, 99, 53
1, 138930, Note_on_c, 0, 70, 62
1, 138939, Note_on_c, 0, 66, 55
1, 138949, Note_off_c, 0, 70, 64
1, 138961, Note_off_c, 0, 66, 61
1, 138974, Note_off_c, 0, 99, 62
1, 138975, Note_on_c, 0, 100, 49
1, 139058, Note_off_c, 0, 100, 58
1, 139096, Note_on_c, 0, 99, 49
1, 139107, Note_on_c, 0, 87, 24
1, 139121, Control_c, 0, 64, 80
1, 139136, Control_c, 0, 64, 70
1, 139145, Note_off_c, 0, 87, 41
1, 139151, Control_c, 0, 64, 55
1, 139160, Note_off_c, 0, 99, 62
1, 139165, Control_c, 0, 64, 0
1, 139167, Note_on_c, 0, 100, 62
1, 139169, Note_on_c, 0, 68, 70
1, 139176, Note_on_c, 0, 64, 65
1, 139225, Control_c, 0, 64, 50
1, 139240, Control_c, 0, 64, 66
1, 139255, Note_off_c, 0, 100, 63
1, 139255, Control_c, 0, 64, 73
1, 139256, Note_on_c, 0, 87, 33
1, 139266, Note_on_c, 0, 99, 63
1, 139269, Control_c, 0, 64, 82
1, 139284, Control_c, 0, 64, 91
1, 139299, Note_off_c, 0, 87, 45
1, 139299, Control_c, 0, 64, 96
1, 139313, Control_c, 0, 64, 99
1, 139328, Control_c, 0, 64, 100
1, 139343, Control_c, 0, 64, 101
1, 139344, Note_off_c, 0, 99, 60
1, 139358, Control_c, 0, 64, 102
1, 139360, Note_on_c, 0, 100, 59
1, 139360, Note_off_c, 0, 68, 59
1, 139372, Note_off_c, 0, 64, 57
1, 139373, Control_c, 0, 64, 104
1, 139387, Control_c, 0, 64, 105
1, 139402, Control_c, 0, 64, 107
1, 139417, Control_c, 0, 64, 109
1, 139418, Note_on_c, 0, 67, 83
1, 139419, Note_on_c, 0, 87, 55
1, 139427, Note_off_c, 0, 100, 59
1, 139432, Control_c, 0, 64, 111
1, 139446, Note_on_c, 0, 99, 62
1, 139446, Control_c, 0, 64, 113
1, 139446, Control_c, 0, 67, 127
1, 139461, Control_c, 0, 64, 114
1, 139461, Control_c, 0, 67, 121
1, 139463, Note_off_c, 0, 87, 57
1, 139474, Note_off_c, 0, 67, 57
1, 139476, Control_c, 0, 64, 115
1, 139476, Control_c, 0, 67, 115
1, 139492, Control_c, 0, 64, 116
1, 139492, Control_c, 0, 67, 106
1, 139507, Control_c, 0, 64, 117
1, 139507, Control_c, 0, 67, 97
1, 139522, Control_c, 0, 67, 86
1, 139524, Note_on_c, 0, 100, 59
1, 139531, Note_off_c, 0, 99, 56
1, 139536, Control_c, 0, 67, 75
1, 139551, Control_c, 0, 67, 64
1, 139566, Control_c, 0, 67, 52
1, 139581, Control_c, 0, 67, 43
1, 139596, Control_c, 0, 67, 32
1, 139607, Note_off_c, 0, 100, 59
1, 139610, Control_c, 0, 67, 19
1, 139625, Control_c, 0, 67, 0
1, 139633, Note_on_c, 0, 99, 58
1, 139636, Note_on_c, 0, 68, 79
1, 139645, Note_on_c, 0, 87, 35
1, 139684, Note_off_c, 0, 87, 44
1, 139706, Note_off_c, 0, 68, 56
1, 139716, Note_on_c, 0, 100, 64
1, 139720, Note_off_c, 0, 99, 59
1, 139818, Note_off_c, 0, 100, 58
1, 139825, Control_c, 0, 64, 112
1, 139837, Note_on_c, 0, 99, 57
1, 139840, Control_c, 0, 64, 96
1, 139855, Control_c, 0, 64, 80
1, 139869, Control_c, 0, 64, 65
1, 139870, Note_on_c, 0, 70, 78
1, 139878, Note_on_c, 0, 67, 69
1, 139884, Control_c, 0, 64, 0
1, 139911, Note_off_c, 0, 99, 62
1, 139924, Note_on_c, 0, 100, 65
1, 139958, Control_c, 0, 64, 45
1, 139973, Control_c, 0, 64, 64
1, 139988, Control_c, 0, 64, 68
1, 140003, Note_off_c, 0, 100, 59
1, 140003, Control_c, 0, 64, 73
1, 140018, Control_c, 0, 64, 77
1, 140033, Note_on_c, 0, 99, 57
1, 140033, Control_c, 0, 64, 79
1, 140048, Control_c, 0, 64, 80
1, 140062, Control_c, 0, 64, 81
1, 140077, Control_c, 0, 64, 82
1, 140092, Control_c, 0, 64, 82
1, 140095, Note_off_c, 0, 99, 59
1, 140099, Note_on_c, 0, 63, 74
1, 140107, Control_c, 0, 64, 83
1, 140112, Note_off_c, 0, 67, 59
1, 140113, Note_off_c, 0, 70, 61
1, 140119, Note_on_c, 0, 100, 59
1, 140122, Control_c, 0, 64, 84
1, 140136, Control_c, 0, 64, 85
1, 140155, Note_off_c, 0, 63, 62
1, 140166, Control_c, 0, 64, 85
1, 140197, Note_off_c, 0, 100, 56
1, 140207, Note_on_c, 0, 99, 62
1, 140281, Note_off_c, 0, 99, 62
1, 140312, Note_on_c, 0, 100, 52
1, 140380, Note_on_c, 0, 63, 64
1, 140389, Control_c, 0, 64, 84
1, 140390, Note_off_c, 0, 100, 64
1, 140404, Control_c, 0, 64, 74
1, 140410, Note_on_c, 0, 99, 56
1, 140419, Control_c, 0, 64, 62
1, 140433, Control_c, 0, 64, 0
1, 140441, Note_on_c, 0, 75, 89
1, 140460, Note_off_c, 0, 63, 61
1, 140471, Note_off_c, 0, 99, 62
1, 140478, Control_c, 0, 64, 45
1, 140480, Note_on_c, 0, 100, 58
1, 140492, Control_c, 0, 64, 67
1, 140498, Note_off_c, 0, 75, 62
1, 140515, Control_c, 0, 64, 80
1, 140530, Control_c, 0, 64, 103
1, 140545, Control_c, 0, 64, 127
1, 140567, Note_off_c, 0, 100, 64
1, 140584, Note_on_c, 0, 99, 64
1, 140652, Note_off_c, 0, 99, 61
1, 140681, Note_on_c, 0, 75, 80
1, 140691, Note_on_c, 0, 100, 50
1, 140738, Note_off_c, 0, 75, 58
1, 140742, Note_off_c, 0, 100, 62
1, 140759, Note_on_c, 0, 99, 60
1, 140843, Note_on_c, 0, 73, 65
1, 140850, Note_off_c, 0, 99, 56
1, 140870, Note_off_c, 0, 73, 67
1, 140974, Control_c, 0, 64, 84
1, 140982, Note_on_c, 0, 56, 62
1, 140989, Control_c, 0, 64, 62
1, 141003, Control_c, 0, 64, 12
1, 141006, Note_off_c, 0, 56, 62
1, 141018, Control_c, 0, 64, 0
1, 141033, Control_c, 0, 64, 42
1, 141048, Control_c, 0, 64, 63
1, 141061, Note_on_c, 0, 100, 52
1, 141063, Control_c, 0, 64, 74
1, 141073, Note_on_c, 0, 71, 77
1, 141079, Control_c, 0, 64, 97
1, 141085, Note_on_c, 0, 99, 66
1, 141094, Control_c, 0, 64, 127
1, 141095, Note_off_c, 0, 100, 61
1, 141100, Note_off_c, 0, 71, 62
1, 141151, Note_off_c, 0, 99, 60
1, 141153, Note_on_c, 0, 87, 62
1, 141184, Note_off_c, 0, 87, 64
1, 141285, Note_on_c, 0, 71, 64
1, 141291, Note_on_c, 0, 87, 66
1, 141308, Note_off_c, 0, 71, 63
1, 141323, Note_on_c, 0, 88, 53
1, 141356, Note_off_c, 0, 88, 52
1, 141365, Note_off_c, 0, 87, 59
1, 141404, Note_on_c, 0, 75, 60
1, 141458, Note_off_c, 0, 75, 43
1, 141484, Note_on_c, 0, 87, 64
1, 141491, Note_on_c, 0, 70, 66
1, 141523, Note_off_c, 0, 70, 61
1, 141538, Note_on_c, 0, 88, 66
1, 141556, Note_off_c, 0, 87, 60
1, 141568, Note_off_c, 0, 88, 68
1, 141657, Note_on_c, 0, 87, 64
1, 141678, Control_c, 0, 64, 81
1, 141689, Note_off_c, 0, 87, 62
1, 141693, Control_c, 0, 64, 59
1, 141708, Control_c, 0, 64, 0
1, 141713, Note_on_c, 0, 68, 78
1, 141723, Note_on_c, 0, 99, 72
1, 141731, Note_on_c, 0, 59, 66
1, 141753, Control_c, 0, 64, 60
1, 141768, Control_c, 0, 64, 72
1, 141782, Control_c, 0, 64, 101
1, 141789, Note_on_c, 0, 100, 59
1, 141791, Note_off_c, 0, 99, 60
1, 141797, Control_c, 0, 64, 127
1, 141830, Note_on_c, 0, 99, 49
1, 141842, Note_off_c, 0, 100, 64
1, 141879, Note_off_c, 0, 99, 62
1, 141888, Note_on_c, 0, 87, 71
1, 141897, Note_off_c, 0, 68, 57
1, 141912, Note_off_c, 0, 87, 67
1, 141956, Note_on_c, 0, 67, 69
1, 141992, Note_on_c, 0, 87, 67
1, 142020, Note_off_c, 0, 67, 51
1, 142044, Note_on_c, 0, 88, 20
1, 142075, Note_off_c, 0, 87, 49
1, 142085, Note_off_c, 0, 59, 51
1, 142099, Note_off_c, 0, 88, 44
1, 142114, Note_on_c, 0, 75, 69
1, 142170, Note_off_c, 0, 75, 49
1, 142179, Note_on_c, 0, 68, 69
1, 142191, Note_on_c, 0, 87, 67
1, 142208, Note_off_c, 0, 68, 65
1, 142250, Note_on_c, 0, 88, 69
1, 142269, Note_off_c, 0, 87, 54
1, 142277, Note_off_c, 0, 88, 67
1, 142345, Note_on_c, 0, 87, 68
1, 142353, Control_c, 0, 64, 113
1, 142368, Control_c, 0, 64, 71
1, 142383, Control_c, 0, 64, 0
1, 142391, Note_off_c, 0, 87, 58
1, 142421, Note_on_c, 0, 70, 81
1, 142425, Note_on_c, 0, 67, 72
1, 142433, Note_on_c, 0, 99, 60
1, 142443, Control_c, 0, 64, 65
1, 142457, Control_c, 0, 64, 79
1, 142472, Control_c, 0, 64, 127
1, 142479, Note_on_c, 0, 100, 68
1, 142489, Note_off_c, 0, 99, 62
1, 142523, Note_off_c, 0, 70, 56
1, 142533, Note_off_c, 0, 100, 63
1, 142546, Note_on_c, 0, 99, 51
1, 142552, Note_off_c, 0, 67, 57
1, 142579, Note_off_c, 0, 99, 66
1, 142588, Note_on_c, 0, 87, 56
1, 142609, Note_off_c, 0, 87, 57
1, 142668, Note_on_c, 0, 63, 75
1, 142701, Note_on_c, 0, 87, 60
1, 142712, Note_off_c, 0, 63, 53
1, 142722, Note_on_c, 0, 88, 41
1, 142777, Note_off_c, 0, 88, 52
1, 142796, Note_off_c, 0, 87, 61
1, 142820, Note_on_c, 0, 75, 68
1, 142868, Note_off_c, 0, 75, 50
1, 142904, Note_on_c, 0, 63, 72
1, 142908, Note_on_c, 0, 87, 67
1, 142966, Note_off_c, 0, 63, 53
1, 142970, Note_on_c, 0, 88, 58
1, 142989, Note_off_c, 0, 88, 65
1, 142993, Note_off_c, 0, 87, 59
1, 143066, Note_on_c, 0, 87, 64
1, 143073, Control_c, 0, 64, 99
1, 143088, Control_c, 0, 64, 69
1, 143103, Control_c, 0, 64, 25
1, 143117, Note_off_c, 0, 87, 57
1, 143118, Control_c, 0, 64, 0
1, 143144, Note_on_c, 0, 68, 77
1, 143148, Control_c, 0, 64, 39
1, 143149, Note_on_c, 0, 59, 64
1, 143154, Note_on_c, 0, 99, 71
1, 143162, Control_c, 0, 64, 66
1, 143177, Control_c, 0, 64, 85
1, 143187, Note_off_c, 0, 68, 49
1, 143187, Note_off_c, 0, 59, 59
1, 143191, Control_c, 0, 64, 127
1, 143205, Note_on_c, 0, 100, 59
1, 143241, Note_off_c, 0, 99, 0
1, 143259, Note_on_c, 0, 99, 37
1, 143272, Note_off_c, 0, 100, 64
1, 143309, Note_on_c, 0, 87, 70
1, 143312, Note_off_c, 0, 99, 63
1, 143353, Note_off_c, 0, 87, 58
1, 143402, Note_on_c, 0, 66, 66
1, 143422, Note_on_c, 0, 87, 66
1, 143430, Note_on_c, 0, 60, 40
1, 143431, Note_off_c, 0, 66, 63
1, 143449, Note_on_c, 0, 88, 54
1, 143458, Note_off_c, 0, 60, 53
1, 143491, Note_off_c, 0, 88, 55
1, 143521, Note_off_c, 0, 87, 61
1, 143556, Note_on_c, 0, 75, 65
1, 143619, Note_off_c, 0, 75, 51
1, 143628, Control_c, 0, 64, 77
1, 143634, Note_on_c, 0, 87, 62
1, 143643, Note_on_c, 0, 64, 65
1, 143643, Control_c, 0, 64, 54
1, 143656, Note_on_c, 0, 61, 55
1, 143658, Control_c, 0, 64, 0
1, 143685, Note_on_c, 0, 88, 62
1, 143702, Control_c, 0, 64, 59
1, 143707, Note_off_c, 0, 87, 57
1, 143712, Note_off_c, 0, 88, 68
1, 143717, Control_c, 0, 64, 70
1, 143732, Control_c, 0, 64, 81
1, 143747, Control_c, 0, 64, 95
1, 143762, Control_c, 0, 64, 104
1, 143777, Control_c, 0, 64, 105
1, 143800, Note_on_c, 0, 87, 69
1, 143844, Note_off_c, 0, 64, 28
1, 143846, Note_off_c, 0, 87, 61
1, 143851, Control_c, 0, 64, 105
1, 143854, Note_off_c, 0, 61, 37
1, 143870, Note_on_c, 0, 63, 58
1, 143872, Note_on_c, 0, 99, 72
1, 143891, Note_off_c, 0, 63, 62
1, 143927, Note_on_c, 0, 100, 68
1, 143927, Note_off_c, 0, 99, 62
1, 143994, Note_on_c, 0, 99, 63
1, 143996, Note_off_c, 0, 100, 65
1, 144028, Control_c, 0, 64, 98
1, 144039, Note_on_c, 0, 87, 69
1, 144043, Control_c, 0, 64, 81
1, 144044, Note_off_c, 0, 99, 59
1, 144058, Control_c, 0, 64, 62
1, 144073, Control_c, 0, 64, 0
1, 144084, Note_off_c, 0, 87, 60
1, 144095, Note_on_c, 0, 80, 57
1, 144101, Note_on_c, 0, 71, 43
1, 144128, Note_off_c, 0, 71, 51
1, 144129, Note_off_c, 0, 80, 62
1, 144203, Note_on_c, 0, 83, 66
1, 144216, Note_on_c, 0, 75, 49
1, 144231, Note_off_c, 0, 83, 63
1, 144261, Note_off_c, 0, 75, 56
1, 144346, Note_on_c, 0, 80, 68
1, 144354, Note_on_c, 0, 87, 78
1, 144370, Note_off_c, 0, 80, 69
1, 144425, Note_off_c, 0, 87, 54
1, 144555, Control_c, 0, 64, 23
1, 144570, Control_c, 0, 64, 64
1, 144585, Control_c, 0, 64, 68
1, 144596, Note_on_c, 0, 99, 67
1, 144600, Control_c, 0, 64, 72
1, 144609, Note_on_c, 0, 63, 35
1, 144615, Control_c, 0, 64, 74
1, 144629, Control_c, 0, 64, 75
1, 144640, Note_off_c, 0, 63, 52
1, 144641, Note_on_c, 0, 100, 69
1, 144644, Control_c, 0, 64, 76
1, 144648, Note_off_c, 0, 99, 61
1, 144704, Control_c, 0, 64, 75
1, 144708, Note_on_c, 0, 99, 68
1, 144719, Note_off_c, 0, 100, 65
1, 144719, Control_c, 0, 64, 69
1, 144733, Control_c, 0, 64, 56
1, 144748, Control_c, 0, 64, 0
1, 144784, Note_on_c, 0, 87, 63
1, 144786, Note_off_c, 0, 99, 62
1, 144820, Note_off_c, 0, 87, 59
1, 144837, Control_c, 0, 67, 11
1, 144844, Note_on_c, 0, 79, 55
1, 144850, Note_on_c, 0, 70, 36
1, 144851, Control_c, 0, 67, 18
1, 144866, Control_c, 0, 67, 28
1, 144880, Note_off_c, 0, 70, 56
1, 144881, Control_c, 0, 67, 39
1, 144883, Note_off_c, 0, 79, 61
1, 144896, Control_c, 0, 67, 49
1, 144911, Control_c, 0, 67, 58
1, 144925, Control_c, 0, 67, 67
1, 144940, Control_c, 0, 67, 77
1, 144955, Control_c, 0, 67, 86
1, 144966, Note_on_c, 0, 82, 61
1, 144970, Control_c, 0, 67, 95
1, 144978, Note_on_c, 0, 75, 45
1, 144984, Control_c, 0, 67, 104
1, 145004, Note_off_c, 0, 82, 63
1, 145007, Control_c, 0, 67, 112
1, 145017, Note_off_c, 0, 75, 53
1, 145022, Control_c, 0, 67, 121
1, 145037, Control_c, 0, 67, 127
1, 145130, Note_on_c, 0, 87, 58
1, 145135, Note_on_c, 0, 79, 49
1, 145157, Note_off_c, 0, 79, 60
1, 145163, Note_off_c, 0, 87, 61
1, 145473, Note_on_c, 0, 56, 36
1, 145571, Control_c, 0, 64, 16
1, 145586, Control_c, 0, 64, 55
1, 145600, Control_c, 0, 64, 61
1, 145615, Control_c, 0, 64, 64
1, 145630, Control_c, 0, 64, 65
1, 145645, Control_c, 0, 64, 68
1, 145660, Control_c, 0, 64, 70
1, 145674, Control_c, 0, 64, 73
1, 145686, Note_off_c, 0, 56, 30
1, 145689, Control_c, 0, 64, 76
1, 145704, Control_c, 0, 64, 79
1, 145718, Control_c, 0, 64, 81
1, 145733, Control_c, 0, 64, 84
1, 145756, Control_c, 0, 64, 86
1, 145771, Control_c, 0, 64, 87
1, 145786, Control_c, 0, 64, 87
1, 145801, Control_c, 0, 64, 88
1, 145815, Control_c, 0, 64, 88
1, 145845, Control_c, 0, 64, 89
1, 145848, Note_on_c, 0, 63, 32
1, 145883, Note_off_c, 0, 63, 52
1, 145890, Control_c, 0, 64, 89
1, 145901, Note_on_c, 0, 71, 44
1, 145920, Control_c, 0, 64, 90
1, 145927, Note_off_c, 0, 71, 52
1, 145950, Control_c, 0, 64, 90
1, 145965, Control_c, 0, 64, 91
1, 145979, Control_c, 0, 64, 92
1, 145981, Note_on_c, 0, 80, 64
1, 145994, Control_c, 0, 64, 93
1, 145998, Note_off_c, 0, 80, 67
1, 146009, Control_c, 0, 64, 94
1, 146024, Control_c, 0, 64, 96
1, 146038, Control_c, 0, 64, 99
1, 146053, Control_c, 0, 64, 100
1, 146068, Control_c, 0, 64, 102
1, 146083, Control_c, 0, 64, 102
1, 146097, Control_c, 0, 64, 103
1, 146127, Control_c, 0, 64, 103
1, 146305, Control_c, 0, 64, 103
1, 146320, Control_c, 0, 64, 98
1, 146335, Control_c, 0, 64, 84
1, 146340, Note_on_c, 0, 75, 45
1, 146349, Control_c, 0, 64, 71
1, 146364, Control_c, 0, 64, 59
1, 146379, Control_c, 0, 64, 22
1, 146394, Control_c, 0, 64, 0
1, 146439, Control_c, 0, 64, 46
1, 146454, Control_c, 0, 64, 63
1, 146469, Control_c, 0, 64, 70
1, 146481, Note_on_c, 0, 87, 53
1, 146484, Control_c, 0, 64, 77
1, 146505, Control_c, 0, 64, 85
1, 146520, Control_c, 0, 64, 89
1, 146535, Control_c, 0, 64, 91
1, 146542, Note_off_c, 0, 75, 55
1, 146549, Control_c, 0, 64, 95
1, 146559, Note_off_c, 0, 87, 54
1, 146564, Control_c, 0, 64, 98
1, 146579, Control_c, 0, 64, 103
1, 146594, Note_on_c, 0, 88, 52
1, 146594, Control_c, 0, 64, 109
1, 146609, Control_c, 0, 64, 115
1, 146624, Control_c, 0, 64, 120
1, 146639, Control_c, 0, 64, 127
1, 146642, Note_off_c, 0, 88, 56
1, 146680, Note_on_c, 0, 87, 54
1, 146699, Note_off_c, 0, 87, 60
1, 146770, Note_on_c, 0, 87, 73
1, 146811, Note_off_c, 0, 87, 61
1, 146813, Note_on_c, 0, 99, 65
1, 146883, Note_off_c, 0, 99, 61
1, 146900, Note_on_c, 0, 100, 53
1, 146960, Note_off_c, 0, 100, 62
1, 146984, Note_on_c, 0, 99, 57
1, 147023, Note_off_c, 0, 99, 59
1, 147060, Note_on_c, 0, 87, 79
1, 147106, Note_off_c, 0, 87, 60
1, 147122, Note_on_c, 0, 99, 56
1, 147154, Note_off_c, 0, 99, 62
1, 147195, Note_on_c, 0, 100, 54
1, 147252, Note_off_c, 0, 100, 63
1, 147256, Note_on_c, 0, 99, 58
1, 147282, Note_off_c, 0, 99, 68
1, 147362, Note_on_c, 0, 85, 72
1, 147435, Note_off_c, 0, 85, 62
1, 147445, Note_on_c, 0, 97, 53
1, 147479, Note_off_c, 0, 97, 64
1, 147505, Note_on_c, 0, 99, 51
1, 147553, Note_off_c, 0, 99, 62
1, 147580, Note_on_c, 0, 97, 51
1, 147610, Note_off_c, 0, 97, 65
1, 147684, Control_c, 0, 64, 89
1, 147699, Control_c, 0, 64, 66
1, 147704, Note_on_c, 0, 83, 63
1, 147714, Control_c, 0, 64, 21
1, 147716, Note_on_c, 0, 44, 45
1, 147719, Note_on_c, 0, 32, 46
1, 147729, Control_c, 0, 64, 0
1, 147745, Note_off_c, 0, 83, 55
1, 147758, Control_c, 0, 64, 55
1, 147773, Control_c, 0, 64, 68
1, 147785, Note_on_c, 0, 95, 65
1, 147788, Control_c, 0, 64, 80
1, 147802, Control_c, 0, 64, 101
1, 147817, Control_c, 0, 64, 127
1, 147824, Note_off_c, 0, 32, 52
1, 147835, Note_off_c, 0, 44, 61
1, 147837, Note_off_c, 0, 95, 62
1, 147858, Note_on_c, 0, 97, 67
1, 147941, Note_off_c, 0, 97, 62
1, 147958, Note_on_c, 0, 95, 17
1, 148006, Note_off_c, 0, 95, 42
1, 148016, Note_on_c, 0, 83, 73
1, 148036, Note_on_c, 0, 51, 55
1, 148036, Note_on_c, 0, 63, 56
1, 148042, Note_off_c, 0, 83, 58
1, 148069, Note_on_c, 0, 59, 33
1, 148087, Note_on_c, 0, 95, 69
1, 148123, Note_off_c, 0, 63, 50
1, 148131, Note_off_c, 0, 51, 52
1, 148144, Note_off_c, 0, 95, 62
1, 148151, Note_on_c, 0, 97, 70
1, 148205, Note_off_c, 0, 97, 61
1, 148213, Note_on_c, 0, 95, 26
1, 148228, Note_on_c, 0, 94, 38
1, 148247, Note_off_c, 0, 95, 53
1, 148298, Note_on_c, 0, 63, 38
1, 148302, Note_on_c, 0, 56, 57
1, 148302, Note_off_c, 0, 59, 36
1, 148304, Note_on_c, 0, 82, 72
1, 148326, Note_off_c, 0, 94, 39
1, 148326, Note_off_c, 0, 63, 54
1, 148335, Note_off_c, 0, 56, 62
1, 148373, Note_off_c, 0, 82, 60
1, 148417, Note_on_c, 0, 94, 35
1, 148431, Note_on_c, 0, 95, 65
1, 148451, Note_off_c, 0, 94, 47
1, 148481, Note_off_c, 0, 95, 63
1, 148506, Note_on_c, 0, 94, 49
1, 148507, Control_c, 0, 64, 108
1, 148522, Control_c, 0, 64, 82
1, 148537, Control_c, 0, 64, 64
1, 148537, Note_off_c, 0, 94, 64
1, 148551, Control_c, 0, 64, 0
1, 148564, Note_on_c, 0, 35, 60
1, 148568, Note_on_c, 0, 80, 69
1, 148570, Note_on_c, 0, 47, 58
1, 148595, Note_off_c, 0, 35, 62
1, 148596, Control_c, 0, 64, 58
1, 148611, Control_c, 0, 64, 71
1, 148613, Note_off_c, 0, 47, 64
1, 148625, Control_c, 0, 64, 86
1, 148630, Note_off_c, 0, 80, 62
1, 148640, Control_c, 0, 64, 112
1, 148655, Control_c, 0, 64, 127
1, 148675, Note_on_c, 0, 92, 52
1, 148681, Note_on_c, 0, 94, 54
1, 148711, Note_off_c, 0, 94, 65
1, 148763, Note_off_c, 0, 92, 60
1, 148766, Control_c, 0, 67, 121
1, 148781, Control_c, 0, 67, 113
1, 148796, Control_c, 0, 67, 102
1, 148811, Control_c, 0, 67, 88
1, 148815, Note_on_c, 0, 79, 70
1, 148825, Control_c, 0, 67, 71
1, 148835, Note_on_c, 0, 51, 62
1, 148840, Note_on_c, 0, 63, 52
1, 148840, Control_c, 0, 67, 59
1, 148845, Note_off_c, 0, 79, 61
1, 148853, Note_on_c, 0, 59, 46
1, 148855, Control_c, 0, 67, 49
1, 148870, Control_c, 0, 67, 40
1, 148885, Control_c, 0, 67, 33
1, 148888, Note_off_c, 0, 63, 56
1, 148892, Note_off_c, 0, 51, 51
1, 148899, Control_c, 0, 67, 26
1, 148905, Note_on_c, 0, 92, 52
1, 148914, Control_c, 0, 67, 20
1, 148929, Control_c, 0, 67, 13
1, 148944, Control_c, 0, 67, 10
1, 148958, Control_c, 0, 67, 0
1, 148970, Note_off_c, 0, 59, 36
1, 148972, Note_off_c, 0, 92, 61
1, 149020, Note_on_c, 0, 91, 28
1, 149056, Note_off_c, 0, 91, 43
1, 149079, Note_on_c, 0, 56, 59
1, 149081, Note_on_c, 0, 80, 68
1, 149113, Note_off_c, 0, 56, 62
1, 149128, Note_off_c, 0, 80, 45
1, 149135, Poly_aftertouch_c, 0, 63, 127
1, 149169, Poly_aftertouch_c, 0, 63, 0
1, 149182, Note_on_c, 0, 94, 64
1, 149256, Control_c, 0, 64, 101
1, 149256, Note_off_c, 0, 94, 58
1, 149262, Note_on_c, 0, 92, 53
1, 149271, Control_c, 0, 64, 77
1, 149286, Control_c, 0, 64, 57
1, 149293, Note_off_c, 0, 92, 67
1, 149301, Control_c, 0, 64, 0
1, 149327, Note_on_c, 0, 39, 56
1, 149333, Note_on_c, 0, 51, 56
1, 149333, Note_on_c, 0, 82, 70
1, 149345, Control_c, 0, 64, 26
1, 149360, Control_c, 0, 64, 64
1, 149362, Note_off_c, 0, 39, 63
1, 149369, Note_off_c, 0, 51, 63
1, 149374, Control_c, 0, 64, 71
1, 149389, Control_c, 0, 64, 80
1, 149398, Note_off_c, 0, 82, 58
1, 149404, Control_c, 0, 64, 90
1, 149419, Control_c, 0, 64, 94
1, 149420, Note_on_c, 0, 94, 35
1, 149434, Control_c, 0, 64, 94
1, 149448, Note_off_c, 0, 94, 56
1, 149448, Control_c, 0, 64, 95
1, 149460, Note_on_c, 0, 95, 61
1, 149500, Note_off_c, 0, 95, 63
1, 149515, Note_on_c, 0, 94, 63
1, 149542, Note_off_c, 0, 94, 66
1, 149545, Control_c, 0, 64, 95
1, 149642, Note_on_c, 0, 75, 59
1, 149643, Note_on_c, 0, 67, 45
1, 149660, Note_on_c, 0, 63, 44
1, 149661, Note_on_c, 0, 55, 27
1, 149669, Note_off_c, 0, 67, 55
1, 149691, Note_off_c, 0, 75, 55
1, 149696, Note_off_c, 0, 55, 42
1, 149702, Note_on_c, 0, 87, 41
1, 149702, Note_off_c, 0, 63, 45
1, 149748, Note_off_c, 0, 87, 47
1, 149777, Note_on_c, 0, 88, 53
1, 149801, Note_off_c, 0, 88, 61
1, 149822, Note_on_c, 0, 87, 50
1, 149858, Note_off_c, 0, 87, 64
1, 149898, Note_on_c, 0, 75, 63
1, 149909, Note_on_c, 0, 67, 44
1, 149921, Note_on_c, 0, 58, 53
1, 149938, Note_off_c, 0, 67, 53
1, 149944, Note_off_c, 0, 58, 60
1, 149968, Note_off_c, 0, 75, 57
1, 149989, Note_on_c, 0, 87, 49
1, 150001, Poly_aftertouch_c, 0, 63, 0
1, 150021, Note_on_c, 0, 88, 64
1, 150049, Note_off_c, 0, 87, 48
1, 150063, Control_c, 0, 64, 95
1, 150078, Control_c, 0, 64, 86
1, 150093, Control_c, 0, 64, 69
1, 150108, Control_c, 0, 64, 27
1, 150117, Note_off_c, 0, 88, 62
1, 150122, Control_c, 0, 64, 0
1, 150144, Note_on_c, 0, 55, 61
1, 150149, Note_on_c, 0, 43, 60
1, 150153, Note_on_c, 0, 76, 73
1, 150182, Note_off_c, 0, 76, 66
1, 150182, Control_c, 0, 64, 61
1, 150183, Note_off_c, 0, 43, 63
1, 150183, Note_off_c, 0, 55, 62
1, 150196, Control_c, 0, 64, 69
1, 150211, Control_c, 0, 64, 75
1, 150226, Control_c, 0, 64, 82
1, 150248, Control_c, 0, 64, 87
1, 150263, Control_c, 0, 64, 89
1, 150278, Control_c, 0, 64, 90
1, 150288, Note_on_c, 0, 90, 65
1, 150293, Control_c, 0, 64, 90
1, 150327, Note_off_c, 0, 90, 61
1, 150337, Control_c, 0, 64, 91
1, 150359, Note_on_c, 0, 87, 41
1, 150407, Note_off_c, 0, 87, 56
1, 150426, Control_c, 0, 64, 91
1, 150439, Note_on_c, 0, 70, 62
1, 150441, Note_on_c, 0, 75, 64
1, 150457, Note_on_c, 0, 61, 44
1, 150461, Note_off_c, 0, 70, 60
1, 150474, Note_on_c, 0, 63, 22
1, 150490, Note_off_c, 0, 61, 52
1, 150513, Note_off_c, 0, 63, 53
1, 150513, Note_off_c, 0, 75, 60
1, 150520, Note_on_c, 0, 87, 57
1, 150552, Note_on_c, 0, 88, 56
1, 150587, Note_off_c, 0, 88, 67
1, 150593, Note_off_c, 0, 87, 0
1, 150630, Poly_aftertouch_c, 0, 87, 127
1, 150641, Poly_aftertouch_c, 0, 87, 0
1, 150692, Note_on_c, 0, 73, 72
1, 150704, Note_on_c, 0, 61, 40
1, 150737, Note_off_c, 0, 61, 52
1, 150782, Note_off_c, 0, 73, 60
1, 150806, Note_on_c, 0, 85, 33
1, 150857, Control_c, 0, 64, 91
1, 150871, Control_c, 0, 64, 89
1, 150886, Control_c, 0, 64, 75
1, 150890, Poly_aftertouch_c, 0, 87, 0
1, 150901, Control_c, 0, 64, 61
1, 150908, Note_off_c, 0, 85, 34
1, 150916, Control_c, 0, 64, 0
1, 150941, Note_on_c, 0, 56, 54
1, 150943, Note_on_c, 0, 44, 54
1, 150948, Note_on_c, 0, 71, 66
1, 150966, Note_off_c, 0, 71, 66
1, 150975, Note_off_c, 0, 56, 62
1, 150975, Control_c, 0, 64, 61
1, 150981, Note_off_c, 0, 44, 64
1, 150997, Control_c, 0, 64, 69
1, 151012, Control_c, 0, 64, 77
1, 151026, Control_c, 0, 64, 85
1, 151041, Control_c, 0, 64, 91
1, 151056, Control_c, 0, 64, 92
1, 151101, Control_c, 0, 64, 93
1, 151104, Note_on_c, 0, 85, 45
1, 151131, Note_off_c, 0, 85, 55
1, 151143, Note_on_c, 0, 83, 57
1, 151182, Note_off_c, 0, 83, 59
1, 151203, Note_on_c, 0, 71, 71
1, 151217, Note_on_c, 0, 63, 58
1, 151230, Note_off_c, 0, 71, 65
1, 151234, Note_on_c, 0, 68, 36
1, 151257, Note_off_c, 0, 63, 58
1, 151266, Note_off_c, 0, 68, 51
1, 151289, Note_on_c, 0, 83, 61
1, 151321, Note_on_c, 0, 85, 53
1, 151335, Note_off_c, 0, 83, 50
1, 151406, Note_off_c, 0, 85, 64
1, 151449, Note_on_c, 0, 59, 65
1, 151469, Note_on_c, 0, 70, 74
1, 151479, Note_off_c, 0, 59, 66
1, 151501, Poly_aftertouch_c, 0, 68, 127
1, 151536, Poly_aftertouch_c, 0, 68, 0
1, 151539, Note_off_c, 0, 70, 60
1, 151551, Note_on_c, 0, 82, 55
1, 151584, Note_on_c, 0, 83, 54
1, 151588, Note_off_c, 0, 82, 56
1, 151630, Note_off_c, 0, 83, 60
1, 151635, Control_c, 0, 64, 91
1, 151650, Control_c, 0, 64, 83
1, 151664, Control_c, 0, 64, 70
1, 151679, Control_c, 0, 64, 34
1, 151694, Control_c, 0, 64, 0
1, 151700, Note_on_c, 0, 40, 64
1, 151712, Note_on_c, 0, 68, 72
1, 151746, Control_c, 0, 64, 26
1, 151749, Note_off_c, 0, 40, 64
1, 151761, Control_c, 0, 64, 63
1, 151775, Control_c, 0, 64, 71
1, 151787, Note_off_c, 0, 68, 60
1, 151790, Control_c, 0, 64, 79
1, 151805, Control_c, 0, 64, 85
1, 151820, Control_c, 0, 64, 88
1, 151831, Note_on_c, 0, 82, 61
1, 151835, Control_c, 0, 64, 89
1, 151849, Note_off_c, 0, 82, 64
1, 151861, Note_on_c, 0, 80, 47
1, 151928, Note_off_c, 0, 80, 47
1, 151962, Note_on_c, 0, 67, 68
1, 151977, Note_on_c, 0, 62, 57
1, 151984, Note_off_c, 0, 67, 58
1, 151988, Note_on_c, 0, 59, 52
1, 152015, Note_off_c, 0, 62, 60
1, 152030, Note_off_c, 0, 59, 58
1, 152067, Note_on_c, 0, 80, 38
1, 152106, Note_off_c, 0, 80, 47
1, 152129, Poly_aftertouch_c, 0, 79, 127
1, 152180, Poly_aftertouch_c, 0, 79, 0
1, 152213, Note_on_c, 0, 59, 42
1, 152215, Note_on_c, 0, 68, 66
1, 152236, Note_off_c, 0, 68, 61
1, 152241, Note_off_c, 0, 59, 53
1, 152259, Poly_aftertouch_c, 0, 62, 127
1, 152300, Poly_aftertouch_c, 0, 62, 0
1, 152315, Note_on_c, 0, 80, 40
1, 152339, Note_on_c, 0, 82, 49
1, 152343, Note_off_c, 0, 80, 54
1, 152369, Control_c, 0, 64, 81
1, 152384, Control_c, 0, 64, 69
1, 152385, Note_off_c, 0, 82, 51
1, 152398, Control_c, 0, 64, 38
1, 152413, Control_c, 0, 64, 0
1, 152447, Note_on_c, 0, 39, 50
1, 152463, Note_on_c, 0, 70, 64
1, 152472, Control_c, 0, 64, 58
1, 152475, Note_off_c, 0, 39, 57
1, 152495, Control_c, 0, 64, 67
1, 152510, Control_c, 0, 64, 74
1, 152511, Poly_aftertouch_c, 0, 80, 0
1, 152524, Control_c, 0, 64, 81
1, 152530, Note_off_c, 0, 70, 61
1, 152539, Control_c, 0, 64, 86
1, 152554, Control_c, 0, 64, 88
1, 152569, Control_c, 0, 64, 88
1, 152613, Control_c, 0, 64, 89
1, 152616, Note_on_c, 0, 83, 48
1, 152627, Poly_aftertouch_c, 0, 82, 0
1, 152653, Note_on_c, 0, 82, 28
1, 152663, Note_off_c, 0, 83, 60
1, 152704, Note_off_c, 0, 82, 63
1, 152741, Note_on_c, 0, 63, 69
1, 152760, Note_on_c, 0, 58, 46
1, 152768, Note_off_c, 0, 63, 62
1, 152788, Note_off_c, 0, 58, 55
1, 152825, Note_on_c, 0, 75, 52
1, 152863, Note_off_c, 0, 75, 62
1, 152875, Note_on_c, 0, 76, 50
1, 152943, Note_on_c, 0, 75, 63
1, 152954, Note_off_c, 0, 76, 60
1, 152970, Note_off_c, 0, 75, 67
1, 153038, Note_on_c, 0, 75, 87
1, 153051, Note_on_c, 0, 70, 64
1, 153065, Note_on_c, 0, 67, 44
1, 153069, Note_off_c, 0, 75, 61
1, 153081, Note_off_c, 0, 70, 65
1, 153093, Note_off_c, 0, 67, 54
1, 153121, Note_on_c, 0, 87, 48
1, 153134, Control_c, 0, 64, 89
1, 153155, Note_off_c, 0, 87, 55
1, 153181, Note_on_c, 0, 88, 55
1, 153251, Note_on_c, 0, 87, 66
1, 153271, Note_off_c, 0, 88, 62
1, 153279, Note_off_c, 0, 87, 64
1, 153348, Control_c, 0, 64, 90
1, 153401, Note_on_c, 0, 87, 91
1, 153417, Note_on_c, 0, 82, 71
1, 153417, Note_on_c, 0, 79, 66
1, 153532, Note_on_c, 0, 99, 58
1, 153570, Note_off_c, 0, 99, 61
1, 153587, Note_on_c, 0, 100, 54
1, 153605, Note_off_c, 0, 87, 57
1, 153644, Note_off_c, 0, 100, 63
1, 153652, Note_on_c, 0, 99, 51
1, 153719, Note_on_c, 0, 87, 71
1, 153730, Note_off_c, 0, 99, 52
1, 153808, Note_on_c, 0, 99, 58
1, 153808, Note_off_c, 0, 87, 60
1, 153844, Note_on_c, 0, 100, 64
1, 153858, Note_off_c, 0, 79, 55
1, 153885, Note_off_c, 0, 82, 37
1, 153903, Note_off_c, 0, 100, 65
1, 153956, Note_off_c, 0, 99, 64
1, 154003, Note_on_c, 0, 85, 72
1, 154078, Note_off_c, 0, 85, 62
1, 154095, Note_on_c, 0, 97, 52
1, 154118, Note_off_c, 0, 97, 62
1, 154120, Note_on_c, 0, 99, 66
1, 154144, Note_off_c, 0, 99, 68
1, 154200, Control_c, 0, 64, 89
1, 154201, Note_on_c, 0, 97, 55
1, 154214, Control_c, 0, 64, 81
1, 154229, Control_c, 0, 64, 66
1, 154231, Note_off_c, 0, 97, 65
1, 154244, Control_c, 0, 64, 0
1, 154266, Note_on_c, 0, 84, 78
1, 154275, Note_on_c, 0, 32, 73
1, 154278, Note_on_c, 0, 44, 71
1, 154303, Control_c, 0, 64, 58
1, 154306, Note_off_c, 0, 44, 64
1, 154308, Note_off_c, 0, 32, 62
1, 154315, Note_off_c, 0, 84, 59
1, 154318, Control_c, 0, 64, 67
1, 154333, Control_c, 0, 64, 74
1, 154335, Note_on_c, 0, 96, 62
1, 154348, Control_c, 0, 64, 85
1, 154362, Control_c, 0, 64, 94
1, 154377, Control_c, 0, 64, 99
1, 154391, Note_off_c, 0, 96, 63
1, 154392, Control_c, 0, 64, 100
1, 154407, Control_c, 0, 64, 100
1, 154413, Note_on_c, 0, 97, 65
1, 154467, Note_on_c, 0, 96, 51
1, 154472, Note_off_c, 0, 97, 61
1, 154538, Note_on_c, 0, 84, 74
1, 154542, Note_on_c, 0, 63, 66
1, 154543, Note_on_c, 0, 51, 67
1, 154552, Note_off_c, 0, 96, 35
1, 154563, Note_on_c, 0, 60, 52
1, 154570, Control_c, 0, 64, 101
1, 154589, Note_off_c, 0, 84, 61
1, 154604, Note_off_c, 0, 63, 52
1, 154636, Note_on_c, 0, 97, 70
1, 154638, Note_off_c, 0, 51, 46
1, 154654, Note_on_c, 0, 96, 62
1, 154695, Note_off_c, 0, 97, 63
1, 154711, Note_off_c, 0, 96, 62
1, 154790, Note_off_c, 0, 60, 36
1, 154803, Note_on_c, 0, 81, 73
1, 154817, Note_on_c, 0, 57, 51
1, 154834, Note_on_c, 0, 63, 12
1, 154841, Note_off_c, 0, 57, 58
1, 154863, Note_off_c, 0, 81, 59
1, 154878, Note_off_c, 0, 63, 41
1, 154914, Note_on_c, 0, 95, 58
1, 154968, Note_off_c, 0, 95, 59
1, 154976, Note_on_c, 0, 93, 40
1, 155003, Note_off_c, 0, 93, 55
1, 155023, Control_c, 0, 64, 97
1, 155037, Control_c, 0, 64, 82
1, 155052, Control_c, 0, 64, 62
1, 155067, Control_c, 0, 64, 0
1, 155081, Note_on_c, 0, 48, 69
1, 155084, Note_on_c, 0, 36, 63
1, 155085, Note_on_c, 0, 80, 75
1, 155107, Note_off_c, 0, 48, 64
1, 155111, Note_off_c, 0, 36, 61
1, 155126, Control_c, 0, 64, 61
1, 155141, Control_c, 0, 64, 71
1, 155146, Note_off_c, 0, 80, 60
1, 155152, Note_on_c, 0, 92, 51
1, 155156, Control_c, 0, 64, 81
1, 155171, Control_c, 0, 64, 93
1, 155185, Control_c, 0, 64, 102
1, 155199, Note_off_c, 0, 92, 56
1, 155200, Control_c, 0, 64, 105
1, 155234, Note_on_c, 0, 93, 38
1, 155259, Control_c, 0, 64, 106
1, 155265, Note_off_c, 0, 93, 53
1, 155272, Note_on_c, 0, 92, 55
1, 155332, Note_off_c, 0, 92, 62
1, 155353, Note_on_c, 0, 80, 69
1, 155365, Note_on_c, 0, 69, 60
1, 155384, Note_off_c, 0, 69, 62
1, 155401, Note_on_c, 0, 57, 20
1, 155414, Note_off_c, 0, 80, 60
1, 155441, Note_off_c, 0, 57, 52
1, 155468, Note_on_c, 0, 94, 71
1, 155541, Note_off_c, 0, 94, 62
1, 155617, Note_on_c, 0, 78, 75
1, 155632, Note_on_c, 0, 57, 65
1, 155664, Note_off_c, 0, 57, 65
1, 155677, Note_off_c, 0, 78, 49
1, 155716, Note_on_c, 0, 90, 59
1, 155747, Note_on_c, 0, 92, 54
1, 155778, Note_off_c, 0, 92, 64
1, 155787, Control_c, 0, 64, 101
1, 155802, Control_c, 0, 64, 82
1, 155810, Note_off_c, 0, 90, 63
1, 155816, Control_c, 0, 64, 64
1, 155831, Control_c, 0, 64, 0
1, 155859, Note_on_c, 0, 49, 66
1, 155859, Note_on_c, 0, 76, 74
1, 155881, Note_off_c, 0, 49, 63
1, 155884, Note_on_c, 0, 37, 24
1, 155885, Note_off_c, 0, 37, 127
1, 155885, Note_off_c, 0, 76, 62
1, 155890, Control_c, 0, 64, 62
1, 155905, Control_c, 0, 64, 70
1, 155920, Control_c, 0, 64, 82
1, 155934, Control_c, 0, 64, 101
1, 155942, Note_on_c, 0, 88, 55
1, 155949, Control_c, 0, 64, 121
1, 155964, Control_c, 0, 64, 127
1, 155973, Note_off_c, 0, 88, 54
1, 156014, Note_on_c, 0, 90, 53
1, 156036, Note_on_c, 0, 88, 59
1, 156040, Note_off_c, 0, 90, 61
1, 156055, Note_off_c, 0, 88, 62
1, 156145, Note_on_c, 0, 73, 74
1, 156151, Note_on_c, 0, 69, 59
1, 156152, Note_on_c, 0, 64, 58
1, 156180, Note_off_c, 0, 69, 61
1, 156189, Note_off_c, 0, 64, 62
1, 156216, Note_off_c, 0, 73, 60
1, 156291, Note_on_c, 0, 87, 57
1, 156313, Poly_aftertouch_c, 0, 85, 127
1, 156322, Note_on_c, 0, 85, 17
1, 156333, Note_off_c, 0, 87, 57
1, 156377, Note_off_c, 0, 85, 63
1, 156428, Note_on_c, 0, 75, 63
1, 156434, Note_on_c, 0, 69, 61
1, 156443, Note_on_c, 0, 60, 46
1, 156452, Note_on_c, 0, 64, 43
1, 156477, Note_off_c, 0, 60, 47
1, 156485, Note_off_c, 0, 69, 49
1, 156498, Note_on_c, 0, 87, 64
1, 156508, Note_off_c, 0, 75, 61
1, 156561, Note_on_c, 0, 88, 53
1, 156566, Note_off_c, 0, 87, 49
1, 156631, Note_off_c, 0, 64, 30
1, 156638, Note_on_c, 0, 69, 51
1, 156639, Note_on_c, 0, 76, 72
1, 156657, Note_off_c, 0, 69, 64
1, 156664, Note_off_c, 0, 88, 48
1, 156696, Note_off_c, 0, 76, 62
1, 156717, Note_on_c, 0, 88, 39
1, 156798, Note_off_c, 0, 88, 58
1, 156811, Note_on_c, 0, 90, 68
1, 156866, Note_off_c, 0, 90, 61
1, 156911, Note_on_c, 0, 75, 81
1, 156914, Note_on_c, 0, 69, 51
1, 156922, Note_on_c, 0, 66, 63
1, 156962, Note_off_c, 0, 75, 58
1, 156968, Note_off_c, 0, 69, 55
1, 156972, Note_on_c, 0, 87, 63
1, 157015, Note_off_c, 0, 87, 58
1, 157047, Note_on_c, 0, 88, 42
1, 157047, Note_off_c, 0, 66, 34
1, 157100, Note_on_c, 0, 87, 73
1, 157125, Note_off_c, 0, 88, 62
1, 157164, Note_on_c, 0, 73, 29
1, 157167, Note_off_c, 0, 87, 58
1, 157177, Note_on_c, 0, 85, 73
1, 157198, Note_off_c, 0, 73, 48
1, 157222, Note_on_c, 0, 63, 67
1, 157233, Note_off_c, 0, 85, 58
1, 157254, Note_on_c, 0, 68, 57
1, 157270, Control_c, 0, 64, 109
1, 157279, Note_on_c, 0, 87, 53
1, 157285, Control_c, 0, 64, 86
1, 157296, Note_on_c, 0, 71, 63
1, 157300, Control_c, 0, 64, 67
1, 157304, Note_off_c, 0, 63, 59
1, 157313, Note_off_c, 0, 87, 64
1, 157314, Control_c, 0, 64, 0
1, 157333, Note_on_c, 0, 85, 68
1, 157361, Note_on_c, 0, 75, 79
1, 157373, Note_off_c, 0, 68, 35
1, 157374, Control_c, 0, 64, 52
1, 157376, Note_off_c, 0, 85, 62
1, 157384, Note_off_c, 0, 71, 60
1, 157388, Control_c, 0, 64, 69
1, 157403, Control_c, 0, 64, 80
1, 157408, Note_off_c, 0, 75, 59
1, 157418, Control_c, 0, 64, 101
1, 157432, Control_c, 0, 64, 127
1, 157452, Note_on_c, 0, 87, 47
1, 157491, Note_off_c, 0, 87, 45
1, 157570, Note_on_c, 0, 76, 70
1, 157611, Note_off_c, 0, 76, 56
1, 157613, Note_on_c, 0, 77, 58
1, 157659, Note_on_c, 0, 78, 64
1, 157667, Note_off_c, 0, 77, 57
1, 157698, Note_off_c, 0, 78, 63
1, 157699, Note_on_c, 0, 79, 63
1, 157718, Note_on_c, 0, 80, 56
1, 157725, Note_off_c, 0, 79, 66
1, 157762, Note_on_c, 0, 81, 61
1, 157798, Note_on_c, 0, 82, 68
1, 157813, Note_off_c, 0, 80, 40
1, 157823, Note_off_c, 0, 81, 55
1, 157845, Note_on_c, 0, 83, 70
1, 157863, Note_off_c, 0, 82, 62
1, 157873, Note_off_c, 0, 83, 62
1, 157892, Note_on_c, 0, 84, 63
1, 157933, Note_off_c, 0, 84, 53
1, 157962, Note_on_c, 0, 85, 62
1, 158002, Note_off_c, 0, 85, 54
1, 158049, Note_on_c, 0, 86, 64
1, 158079, Note_off_c, 0, 86, 64
1, 158095, Note_on_c, 0, 87, 58
1, 158112, Note_off_c, 0, 87, 63
1, 158169, Note_on_c, 0, 88, 57
1, 158189, Note_off_c, 0, 88, 62
1, 158199, Note_on_c, 0, 89, 61
1, 158235, Note_off_c, 0, 89, 61
1, 158243, Note_on_c, 0, 90, 68
1, 158267, Note_off_c, 0, 90, 68
1, 158318, Note_on_c, 0, 61, 64
1, 158365, Note_on_c, 0, 70, 64
1, 158390, Note_off_c, 0, 61, 61
1, 158441, Note_off_c, 0, 70, 57
1, 158449, Note_on_c, 0, 98, 94
1, 158449, Note_on_c, 0, 77, 74
1, 158471, Note_off_c, 0, 77, 69
1, 158524, Note_off_c, 0, 98, 62
1, 158595, Note_on_c, 0, 102, 70
1, 158616, Note_on_c, 0, 99, 72
1, 158661, Note_on_c, 0, 97, 74
1, 158663, Note_on_c, 0, 100, 54
1, 158696, Note_off_c, 0, 102, 64
1, 158705, Note_off_c, 0, 100, 61
1, 158706, Note_on_c, 0, 94, 72
1, 158711, Note_off_c, 0, 99, 57
1, 158756, Note_on_c, 0, 91, 70
1, 158765, Note_off_c, 0, 97, 63
1, 158774, Note_off_c, 0, 94, 63
1, 158804, Note_on_c, 0, 84, 29
1, 158805, Note_on_c, 0, 87, 65
1, 158807, Note_off_c, 0, 91, 61
1, 158834, Note_off_c, 0, 87, 62
1, 158840, Note_on_c, 0, 90, 67
1, 158856, Note_off_c, 0, 90, 69
1, 158859, Note_off_c, 0, 84, 62
1, 158905, Note_on_c, 0, 88, 72
1, 158967, Note_on_c, 0, 85, 69
1, 158992, Note_off_c, 0, 88, 57
1, 159009, Note_on_c, 0, 82, 74
1, 159033, Note_off_c, 0, 85, 61
1, 159063, Note_off_c, 0, 82, 63
1, 159064, Note_on_c, 0, 79, 74
1, 159090, Note_off_c, 0, 79, 68
1, 159123, Note_on_c, 0, 76, 57
1, 159157, Note_off_c, 0, 76, 62
1, 159163, Note_on_c, 0, 73, 62
1, 159215, Note_on_c, 0, 70, 55
1, 159217, Note_off_c, 0, 73, 60
1, 159251, Note_off_c, 0, 70, 62
1, 159254, Note_on_c, 0, 67, 66
1, 159282, Note_off_c, 0, 67, 65
1, 159312, Note_on_c, 0, 64, 60
1, 159372, Note_on_c, 0, 61, 65
1, 159416, Note_off_c, 0, 64, 59
1, 159417, Note_on_c, 0, 58, 64
1, 159478, Note_on_c, 0, 55, 74
1, 159483, Note_off_c, 0, 58, 60
1, 159485, Note_off_c, 0, 61, 50
1, 159531, Control_c, 0, 64, 69
1, 159546, Control_c, 0, 64, 0
1, 159547, Note_on_c, 0, 44, 82
1, 159549, Note_off_c, 0, 55, 63
1, 159581, Note_on_c, 0, 46, 51
1, 159608, Note_off_c, 0, 46, 57
1, 159620, Control_c, 0, 64, 62
1, 159634, Control_c, 0, 64, 80
1, 159649, Control_c, 0, 64, 127
1, 159728, Note_off_c, 0, 44, 51
1, 159842, Note_on_c, 0, 51, 50
1, 159889, Note_on_c, 0, 56, 65
1, 159927, Note_off_c, 0, 51, 58
1, 159930, Note_on_c, 0, 59, 66
1, 159941, Note_off_c, 0, 56, 57
1, 159957, Note_off_c, 0, 59, 66
1, 160003, Note_on_c, 0, 63, 59
1, 160072, Note_on_c, 0, 68, 59
1, 160074, Note_off_c, 0, 63, 62
1, 160141, Note_on_c, 0, 71, 44
1, 160147, Note_off_c, 0, 68, 59
1, 160194, Note_on_c, 0, 75, 58
1, 160203, Note_off_c, 0, 71, 52
1, 160228, Note_off_c, 0, 75, 63
1, 160290, Note_on_c, 0, 80, 62
1, 160363, Note_on_c, 0, 83, 59
1, 160381, Note_off_c, 0, 80, 55
1, 160455, Note_on_c, 0, 87, 53
1, 160515, Note_on_c, 0, 92, 58
1, 160570, Note_on_c, 0, 95, 63
1, 160601, Note_on_c, 0, 107, 84
1, 160603, Note_on_c, 0, 99, 73
1, 160634, Note_on_c, 0, 104, 88
1, 160636, Note_off_c, 0, 95, 57
1, 160664, Note_off_c, 0, 107, 63
1, 160664, Note_off_c, 0, 99, 64
1, 160671, Note_off_c, 0, 92, 55
1, 160677, Note_off_c, 0, 104, 67
1, 160742, Note_off_c, 0, 87, 42
1, 160744, Note_off_c, 0, 83, 40
1, 161510, Control_c, 0, 64, 111
1, 161525, Control_c, 0, 64, 85
1, 161540, Control_c, 0, 64, 69
1, 161555, Control_c, 0, 64, 54
1, 161570, Control_c, 0, 64, 0
1, 161762, Control_c, 0, 64, 27
1, 161777, Control_c, 0, 64, 40
1, 161792, Control_c, 0, 64, 47
1, 161806, Control_c, 0, 64, 53
1, 161821, Control_c, 0, 64, 57
1, 161836, Control_c, 0, 64, 61
1, 161852, Control_c, 0, 64, 63
1, 161867, Control_c, 0, 64, 65
1, 161882, Control_c, 0, 64, 68
1, 161897, Control_c, 0, 64, 71
1, 161910, Control_c, 0, 64, 77
1, 161925, Control_c, 0, 64, 83
1, 161940, Control_c, 0, 64, 89
1, 161954, Control_c, 0, 64, 95
1, 161963, Note_on_c, 0, 83, 77
1, 161967, Note_on_c, 0, 71, 67
1, 161969, Control_c, 0, 64, 102
1, 161971, Note_on_c, 0, 68, 53
1, 161984, Control_c, 0, 64, 109
1, 161995, Note_off_c, 0, 71, 63
1, 161999, Control_c, 0, 64, 115
1, 162014, Note_off_c, 0, 68, 53
1, 162014, Control_c, 0, 64, 124
1, 162019, Note_off_c, 0, 83, 60
1, 162029, Control_c, 0, 64, 127
1, 162163, Note_on_c, 0, 67, 47
1, 162163, Note_on_c, 0, 70, 55
1, 162166, Note_on_c, 0, 83, 87
1, 162166, Note_on_c, 0, 71, 90
1, 162177, Control_c, 0, 64, 107
1, 162187, Note_off_c, 0, 70, 62
1, 162190, Note_off_c, 0, 67, 56
1, 162190, Note_off_c, 0, 71, 66
1, 162192, Control_c, 0, 64, 88
1, 162207, Control_c, 0, 64, 73
1, 162209, Note_off_c, 0, 83, 59
1, 162229, Control_c, 0, 64, 60
1, 162244, Control_c, 0, 64, 0
1, 162322, Note_on_c, 0, 71, 92
1, 162327, Note_on_c, 0, 83, 91
1, 162359, Note_on_c, 0, 68, 33
1, 162359, Note_off_c, 0, 71, 65
1, 162363, Note_off_c, 0, 83, 62
1, 162395, Poly_aftertouch_c, 0, 66, 127
1, 162421, Poly_aftertouch_c, 0, 66, 0
1, 162428, Note_off_c, 0, 68, 0
1, 162452, Note_on_c, 0, 68, 19
1, 162455, Note_on_c, 0, 71, 94
1, 162460, Note_on_c, 0, 83, 91
1, 162466, Control_c, 0, 64, 48
1, 162480, Control_c, 0, 64, 63
1, 162489, Note_on_c, 0, 65, 45
1, 162493, Note_off_c, 0, 71, 66
1, 162495, Control_c, 0, 64, 69
1, 162499, Note_off_c, 0, 83, 61
1, 162510, Control_c, 0, 64, 76
1, 162517, Note_off_c, 0, 68, 51
1, 162525, Control_c, 0, 64, 85
1, 162540, Control_c, 0, 64, 94
1, 162554, Control_c, 0, 64, 101
1, 162562, Note_on_c, 0, 67, 54
1, 162569, Control_c, 0, 64, 111
1, 162574, Note_off_c, 0, 65, 56
1, 162582, Note_on_c, 0, 71, 97
1, 162584, Control_c, 0, 64, 127
1, 162585, Note_off_c, 0, 67, 60
1, 162589, Note_on_c, 0, 64, 27
1, 162589, Note_on_c, 0, 83, 86
1, 162622, Note_off_c, 0, 83, 61
1, 162625, Note_off_c, 0, 64, 55
1, 162625, Note_off_c, 0, 71, 63
1, 162706, Note_on_c, 0, 47, 72
1, 162718, Note_on_c, 0, 83, 87
1, 162719, Control_c, 0, 64, 90
1, 162733, Control_c, 0, 64, 71
1, 162738, Note_off_c, 0, 83, 64
1, 162738, Note_off_c, 0, 47, 64
1, 162748, Control_c, 0, 64, 49
1, 162763, Control_c, 0, 64, 0
1, 162834, Note_on_c, 0, 63, 61
1, 162837, Note_on_c, 0, 66, 59
1, 162865, Note_off_c, 0, 66, 59
1, 162866, Note_off_c, 0, 63, 64
1, 162947, Note_on_c, 0, 78, 66
1, 162950, Note_on_c, 0, 59, 61
1, 162958, Note_on_c, 0, 54, 44
1, 162959, Note_on_c, 0, 71, 57
1, 162998, Note_off_c, 0, 71, 64
1, 163007, Note_off_c, 0, 54, 62
1, 163018, Note_off_c, 0, 59, 57
1, 163022, Note_off_c, 0, 78, 39
1, 163060, Note_on_c, 0, 66, 70
1, 163079, Note_on_c, 0, 63, 40
1, 163081, Control_c, 0, 64, 24
1, 163090, Note_off_c, 0, 66, 64
1, 163096, Control_c, 0, 64, 53
1, 163108, Note_off_c, 0, 63, 52
1, 163111, Control_c, 0, 64, 61
1, 163126, Control_c, 0, 64, 64
1, 163141, Control_c, 0, 64, 66
1, 163156, Control_c, 0, 64, 68
1, 163170, Control_c, 0, 64, 69
1, 163171, Note_on_c, 0, 48, 55
1, 163173, Note_on_c, 0, 83, 85
1, 163185, Control_c, 0, 64, 71
1, 163200, Control_c, 0, 64, 73
1, 163201, Note_off_c, 0, 48, 60
1, 163215, Control_c, 0, 64, 75
1, 163224, Note_off_c, 0, 83, 61
1, 163230, Control_c, 0, 64, 76
1, 163244, Control_c, 0, 64, 78
1, 163259, Control_c, 0, 64, 80
1, 163274, Control_c, 0, 64, 81
1, 163289, Control_c, 0, 64, 83
1, 163292, Note_on_c, 0, 63, 50
1, 163302, Note_on_c, 0, 66, 51
1, 163303, Control_c, 0, 64, 84
1, 163316, Note_off_c, 0, 63, 57
1, 163326, Note_off_c, 0, 66, 57
1, 163377, Control_c, 0, 64, 83
1, 163392, Control_c, 0, 64, 78
1, 163400, Note_on_c, 0, 85, 93
1, 163408, Control_c, 0, 64, 69
1, 163412, Note_on_c, 0, 42, 62
1, 163423, Control_c, 0, 64, 54
1, 163438, Note_off_c, 0, 42, 58
1, 163438, Control_c, 0, 64, 0
1, 163442, Note_off_c, 0, 85, 59
1, 163528, Note_on_c, 0, 64, 57
1, 163529, Note_on_c, 0, 66, 55
1, 163558, Note_off_c, 0, 64, 62
1, 163568, Note_off_c, 0, 66, 62
1, 163635, Note_on_c, 0, 78, 67
1, 163645, Note_on_c, 0, 73, 63
1, 163647, Note_on_c, 0, 58, 54
1, 163673, Note_on_c, 0, 54, 15
1, 163674, Note_off_c, 0, 73, 64
1, 163702, Note_off_c, 0, 78, 46
1, 163709, Note_off_c, 0, 58, 52
1, 163724, Note_off_c, 0, 54, 40
1, 163748, Note_on_c, 0, 66, 71
1, 163753, Note_on_c, 0, 64, 28
1, 163778, Note_off_c, 0, 66, 64
1, 163788, Note_off_c, 0, 64, 51
1, 163816, Control_c, 0, 64, 43
1, 163831, Control_c, 0, 64, 61
1, 163846, Control_c, 0, 64, 66
1, 163860, Note_on_c, 0, 85, 92
1, 163860, Control_c, 0, 64, 69
1, 163870, Note_on_c, 0, 42, 52
1, 163875, Control_c, 0, 64, 72
1, 163890, Control_c, 0, 64, 75
1, 163900, Note_off_c, 0, 42, 55
1, 163905, Control_c, 0, 64, 77
1, 163910, Note_off_c, 0, 85, 63
1, 163919, Control_c, 0, 64, 78
1, 163934, Control_c, 0, 64, 80
1, 163949, Control_c, 0, 64, 81
1, 163964, Control_c, 0, 64, 83
1, 163973, Note_on_c, 0, 66, 75
1, 163979, Control_c, 0, 64, 84
1, 163994, Control_c, 0, 64, 85
1, 163999, Note_off_c, 0, 66, 66
1, 164008, Control_c, 0, 64, 86
1, 164023, Control_c, 0, 64, 86
1, 164068, Control_c, 0, 64, 86
1, 164080, Note_on_c, 0, 47, 60
1, 164082, Note_on_c, 0, 87, 93
1, 164083, Control_c, 0, 64, 84
1, 164098, Control_c, 0, 64, 80
1, 164103, Note_off_c, 0, 47, 60
1, 164107, Note_off_c, 0, 87, 65
1, 164113, Control_c, 0, 64, 74
1, 164127, Control_c, 0, 64, 65
1, 164142, Control_c, 0, 64, 0
1, 164198, Note_on_c, 0, 66, 61
1, 164235, Note_off_c, 0, 66, 62
1, 164280, Poly_aftertouch_c, 0, 63, 0
1, 164296, Note_on_c, 0, 54, 50
1, 164322, Note_off_c, 0, 54, 59
1, 164414, Note_on_c, 0, 83, 65
1, 164417, Note_on_c, 0, 47, 45
1, 164449, Note_off_c, 0, 47, 55
1, 164452, Note_on_c, 0, 84, 12
1, 164453, Note_off_c, 0, 84, 127
1, 164457, Note_off_c, 0, 83, 55
1, 164527, Note_on_c, 0, 42, 46
1, 164536, Control_c, 0, 64, 16
1, 164537, Note_on_c, 0, 87, 66
1, 164550, Control_c, 0, 64, 42
1, 164565, Control_c, 0, 64, 51
1, 164580, Control_c, 0, 64, 55
1, 164584, Note_off_c, 0, 87, 55
1, 164590, Note_off_c, 0, 42, 53
1, 164595, Control_c, 0, 64, 56
1, 164610, Control_c, 0, 64, 58
1, 164624, Control_c, 0, 64, 60
1, 164639, Control_c, 0, 64, 62
1, 164654, Control_c, 0, 64, 64
1, 164658, Note_on_c, 0, 95, 63
1, 164669, Control_c, 0, 64, 65
1, 164670, Note_on_c, 0, 35, 38
1, 164683, Control_c, 0, 64, 66
1, 164698, Control_c, 0, 64, 67
1, 164703, Note_off_c, 0, 35, 54
1, 164713, Control_c, 0, 64, 68
1, 164714, Note_off_c, 0, 95, 61
1, 164728, Control_c, 0, 64, 69
1, 164743, Control_c, 0, 64, 69
1, 164757, Control_c, 0, 64, 70
1, 164891, Control_c, 0, 64, 67
1, 164904, Control_c, 0, 64, 61
1, 164919, Control_c, 0, 64, 0
1, 165022, Control_c, 0, 64, 58
1, 165038, Control_c, 0, 64, 67
1, 165053, Control_c, 0, 64, 71
1, 165061, Note_on_c, 0, 87, 83
1, 165067, Note_on_c, 0, 71, 57
1, 165068, Control_c, 0, 64, 77
1, 165069, Note_on_c, 0, 75, 71
1, 165083, Control_c, 0, 64, 82
1, 165092, Note_off_c, 0, 75, 68
1, 165097, Control_c, 0, 64, 87
1, 165105, Note_off_c, 0, 71, 59
1, 165112, Control_c, 0, 64, 93
1, 165118, Note_off_c, 0, 87, 61
1, 165127, Control_c, 0, 64, 98
1, 165142, Control_c, 0, 64, 106
1, 165157, Control_c, 0, 64, 116
1, 165171, Control_c, 0, 64, 127
1, 165203, Note_on_c, 0, 74, 61
1, 165206, Note_on_c, 0, 75, 90
1, 165206, Note_on_c, 0, 87, 91
1, 165241, Note_off_c, 0, 74, 64
1, 165246, Note_off_c, 0, 75, 60
1, 165262, Note_off_c, 0, 87, 61
1, 165320, Note_on_c, 0, 73, 72
1, 165338, Note_on_c, 0, 87, 97
1, 165353, Note_on_c, 0, 76, 72
1, 165356, Note_on_c, 0, 75, 51
1, 165357, Note_off_c, 0, 75, 127
1, 165377, Note_off_c, 0, 73, 59
1, 165377, Note_off_c, 0, 76, 69
1, 165386, Note_off_c, 0, 87, 60
1, 165403, Poly_aftertouch_c, 0, 70, 127
1, 165443, Poly_aftertouch_c, 0, 70, 0
1, 165452, Note_on_c, 0, 72, 54
1, 165457, Note_on_c, 0, 87, 90
1, 165458, Note_on_c, 0, 69, 53
1, 165458, Note_on_c, 0, 75, 86
1, 165463, Note_on_c, 0, 73, 27
1, 165482, Note_off_c, 0, 72, 64
1, 165483, Note_off_c, 0, 75, 63
1, 165490, Note_off_c, 0, 69, 62
1, 165492, Note_off_c, 0, 87, 59
1, 165496, Note_off_c, 0, 73, 50
1, 165563, Note_on_c, 0, 71, 61
1, 165569, Note_on_c, 0, 87, 88
1, 165570, Note_on_c, 0, 68, 61
1, 165570, Note_on_c, 0, 75, 81
1, 165585, Note_off_c, 0, 71, 63
1, 165592, Note_off_c, 0, 75, 68
1, 165594, Note_off_c, 0, 68, 63
1, 165621, Note_off_c, 0, 87, 61
1, 165653, Control_c, 0, 64, 104
1, 165668, Control_c, 0, 64, 74
1, 165683, Control_c, 0, 64, 52
1, 165684, Note_on_c, 0, 87, 93
1, 165695, Note_on_c, 0, 51, 66
1, 165697, Control_c, 0, 64, 0
1, 165716, Note_off_c, 0, 51, 62
1, 165727, Note_off_c, 0, 87, 62
1, 165800, Note_on_c, 0, 70, 62
1, 165806, Note_on_c, 0, 66, 58
1, 165829, Note_off_c, 0, 66, 58
1, 165833, Note_off_c, 0, 70, 63
1, 165921, Note_on_c, 0, 82, 61
1, 165922, Note_on_c, 0, 75, 65
1, 165934, Note_on_c, 0, 63, 46
1, 165950, Control_c, 0, 64, 16
1, 165952, Note_off_c, 0, 75, 62
1, 165973, Control_c, 0, 64, 27
1, 165977, Note_off_c, 0, 63, 52
1, 165988, Note_off_c, 0, 82, 53
1, 165988, Control_c, 0, 64, 36
1, 166002, Control_c, 0, 64, 43
1, 166017, Control_c, 0, 64, 49
1, 166025, Poly_aftertouch_c, 0, 58, 0
1, 166032, Control_c, 0, 64, 55
1, 166040, Note_on_c, 0, 70, 55
1, 166046, Control_c, 0, 64, 59
1, 166061, Control_c, 0, 64, 62
1, 166062, Note_off_c, 0, 70, 62
1, 166076, Control_c, 0, 64, 64
1, 166091, Control_c, 0, 64, 66
1, 166106, Control_c, 0, 64, 69
1, 166120, Control_c, 0, 64, 73
1, 166135, Control_c, 0, 64, 79
1, 166142, Note_on_c, 0, 87, 83
1, 166143, Note_on_c, 0, 51, 54
1, 166150, Control_c, 0, 64, 83
1, 166165, Control_c, 0, 64, 87
1, 166168, Note_off_c, 0, 51, 57
1, 166176, Note_off_c, 0, 87, 56
1, 166180, Control_c, 0, 64, 90
1, 166194, Control_c, 0, 64, 92
1, 166209, Control_c, 0, 64, 94
1, 166224, Control_c, 0, 64, 96
1, 166239, Control_c, 0, 64, 98
1, 166253, Control_c, 0, 64, 99
1, 166254, Note_on_c, 0, 70, 55
1, 166274, Note_off_c, 0, 70, 64
1, 166298, Control_c, 0, 64, 98
1, 166307, Poly_aftertouch_c, 0, 66, 127
1, 166313, Control_c, 0, 64, 91
1, 166327, Control_c, 0, 64, 77
1, 166342, Control_c, 0, 64, 64
1, 166343, Poly_aftertouch_c, 0, 66, 0
1, 166357, Control_c, 0, 64, 0
1, 166360, Note_on_c, 0, 89, 82
1, 166362, Note_on_c, 0, 46, 67
1, 166386, Note_off_c, 0, 89, 64
1, 166393, Note_off_c, 0, 46, 64
1, 166498, Note_on_c, 0, 68, 56
1, 166515, Note_on_c, 0, 70, 29
1, 166523, Note_off_c, 0, 68, 59
1, 166548, Note_off_c, 0, 70, 47
1, 166565, Control_c, 0, 64, 16
1, 166578, Note_on_c, 0, 82, 66
1, 166580, Control_c, 0, 64, 27
1, 166594, Control_c, 0, 64, 33
1, 166601, Note_on_c, 0, 77, 56
1, 166607, Note_on_c, 0, 62, 55
1, 166609, Control_c, 0, 64, 36
1, 166624, Control_c, 0, 64, 39
1, 166640, Note_off_c, 0, 77, 58
1, 166640, Control_c, 0, 64, 41
1, 166653, Note_off_c, 0, 62, 56
1, 166655, Control_c, 0, 64, 44
1, 166669, Control_c, 0, 64, 47
1, 166674, Note_off_c, 0, 82, 39
1, 166684, Control_c, 0, 64, 50
1, 166697, Note_on_c, 0, 70, 50
1, 166699, Control_c, 0, 64, 53
1, 166721, Control_c, 0, 64, 57
1, 166732, Note_off_c, 0, 70, 61
1, 166736, Control_c, 0, 64, 61
1, 166751, Control_c, 0, 64, 64
1, 166760, Poly_aftertouch_c, 0, 68, 0
1, 166766, Control_c, 0, 64, 66
1, 166781, Control_c, 0, 64, 68
1, 166795, Control_c, 0, 64, 71
1, 166803, Note_on_c, 0, 46, 69
1, 166803, Note_on_c, 0, 89, 88
1, 166810, Control_c, 0, 64, 74
1, 166825, Control_c, 0, 64, 77
1, 166837, Note_off_c, 0, 46, 65
1, 166840, Control_c, 0, 64, 79
1, 166842, Note_off_c, 0, 89, 63
1, 166855, Control_c, 0, 64, 80
1, 166869, Control_c, 0, 64, 81
1, 166884, Control_c, 0, 64, 82
1, 166899, Control_c, 0, 64, 83
1, 166914, Control_c, 0, 64, 84
1, 166921, Note_on_c, 0, 70, 60
1, 166945, Note_off_c, 0, 70, 59
1, 166988, Control_c, 0, 64, 80
1, 167003, Control_c, 0, 64, 71
1, 167017, Control_c, 0, 64, 54
1, 167032, Control_c, 0, 64, 0
1, 167042, Note_on_c, 0, 87, 49
1, 167046, Note_on_c, 0, 51, 58
1, 167069, Note_off_c, 0, 87, 55
1, 167070, Note_off_c, 0, 51, 60
1, 167144, Note_on_c, 0, 70, 51
1, 167165, Note_on_c, 0, 66, 38
1, 167176, Note_off_c, 0, 70, 54
1, 167193, Note_off_c, 0, 66, 54
1, 167234, Note_on_c, 0, 58, 55
1, 167249, Note_on_c, 0, 78, 59
1, 167257, Note_off_c, 0, 58, 62
1, 167266, Note_off_c, 0, 78, 64
1, 167349, Note_on_c, 0, 87, 75
1, 167375, Note_on_c, 0, 51, 25
1, 167394, Note_off_c, 0, 87, 58
1, 167411, Note_off_c, 0, 51, 41
1, 167438, Note_on_c, 0, 46, 53
1, 167448, Control_c, 0, 64, 14
1, 167469, Note_on_c, 0, 90, 71
1, 167471, Control_c, 0, 64, 28
1, 167486, Control_c, 0, 64, 36
1, 167500, Control_c, 0, 64, 41
1, 167511, Note_off_c, 0, 90, 52
1, 167515, Control_c, 0, 64, 45
1, 167523, Note_off_c, 0, 46, 54
1, 167530, Control_c, 0, 64, 47
1, 167545, Control_c, 0, 64, 49
1, 167560, Control_c, 0, 64, 52
1, 167574, Control_c, 0, 64, 56
1, 167589, Control_c, 0, 64, 59
1, 167591, Note_on_c, 0, 99, 62
1, 167602, Note_on_c, 0, 39, 45
1, 167604, Control_c, 0, 64, 61
1, 167618, Control_c, 0, 64, 64
1, 167633, Control_c, 0, 64, 65
1, 167642, Note_off_c, 0, 39, 58
1, 167648, Control_c, 0, 64, 66
1, 167661, Note_off_c, 0, 99, 55
1, 167663, Control_c, 0, 64, 68
1, 167678, Control_c, 0, 64, 69
1, 167693, Control_c, 0, 64, 70
1, 167708, Control_c, 0, 64, 71
1, 167797, Control_c, 0, 64, 69
1, 167811, Control_c, 0, 64, 62
1, 167826, Control_c, 0, 64, 0
1, 167915, Control_c, 0, 64, 49
1, 167930, Control_c, 0, 64, 64
1, 167945, Control_c, 0, 64, 69
1, 167959, Control_c, 0, 64, 73
1, 167974, Control_c, 0, 64, 79
1, 167975, Note_on_c, 0, 75, 61
1, 167987, Note_on_c, 0, 90, 87
1, 167989, Control_c, 0, 64, 85
1, 167990, Note_on_c, 0, 78, 78
1, 168004, Control_c, 0, 64, 95
1, 168014, Note_off_c, 0, 78, 65
1, 168016, Note_off_c, 0, 75, 55
1, 168018, Control_c, 0, 64, 107
1, 168033, Control_c, 0, 64, 127
1, 168044, Note_off_c, 0, 90, 62
1, 168114, Note_on_c, 0, 77, 71
1, 168125, Note_on_c, 0, 74, 61
1, 168125, Note_on_c, 0, 90, 97
1, 168127, Note_on_c, 0, 78, 89
1, 168140, Note_off_c, 0, 77, 66
1, 168155, Note_off_c, 0, 74, 66
1, 168161, Note_off_c, 0, 78, 60
1, 168171, Note_off_c, 0, 90, 62
1, 168252, Note_on_c, 0, 76, 74
1, 168265, Note_on_c, 0, 90, 100
1, 168271, Note_on_c, 0, 78, 84
1, 168289, Note_on_c, 0, 73, 36
1, 168289, Note_off_c, 0, 76, 55
1, 168292, Note_off_c, 0, 78, 70
1, 168311, Note_off_c, 0, 90, 63
1, 168313, Note_on_c, 0, 80, 23
1, 168318, Note_off_c, 0, 73, 53
1, 168348, Note_off_c, 0, 80, 49
1, 168373, Note_on_c, 0, 75, 66
1, 168378, Note_on_c, 0, 78, 86
1, 168383, Note_on_c, 0, 90, 90
1, 168405, Note_on_c, 0, 72, 43
1, 168408, Note_off_c, 0, 90, 63
1, 168411, Note_off_c, 0, 78, 60
1, 168438, Note_off_c, 0, 72, 48
1, 168441, Note_off_c, 0, 75, 58
1, 168490, Note_on_c, 0, 71, 51
1, 168493, Note_on_c, 0, 90, 89
1, 168498, Note_on_c, 0, 74, 41
1, 168498, Note_on_c, 0, 78, 86
1, 168512, Note_off_c, 0, 71, 59
1, 168520, Note_off_c, 0, 78, 64
1, 168524, Note_off_c, 0, 74, 54
1, 168551, Note_off_c, 0, 90, 63
1, 168590, Control_c, 0, 64, 121
1, 168605, Control_c, 0, 64, 77
1, 168618, Note_on_c, 0, 90, 97
1, 168620, Control_c, 0, 64, 59
1, 168626, Note_on_c, 0, 54, 55
1, 168634, Control_c, 0, 64, 0
1, 168650, Note_off_c, 0, 54, 58
1, 168658, Note_on_c, 0, 56, 19
1, 168667, Note_off_c, 0, 90, 62
1, 168700, Note_off_c, 0, 56, 30
1, 168730, Note_on_c, 0, 70, 65
1, 168736, Note_on_c, 0, 73, 60
1, 168761, Note_off_c, 0, 70, 60
1, 168772, Note_off_c, 0, 73, 59
1, 168855, Note_on_c, 0, 66, 58
1, 168859, Note_on_c, 0, 78, 63
1, 168864, Note_on_c, 0, 85, 51
1, 168864, Note_on_c, 0, 61, 40
1, 168894, Note_off_c, 0, 61, 57
1, 168896, Note_off_c, 0, 78, 59
1, 168901, Note_off_c, 0, 66, 52
1, 168944, Note_off_c, 0, 85, 37
1, 168966, Note_on_c, 0, 73, 58
1, 168981, Control_c, 0, 64, 19
1, 168995, Note_off_c, 0, 73, 63
1, 168996, Control_c, 0, 64, 38
1, 169011, Control_c, 0, 64, 52
1, 169026, Control_c, 0, 64, 62
1, 169042, Control_c, 0, 64, 66
1, 169057, Control_c, 0, 64, 69
1, 169071, Note_on_c, 0, 54, 65
1, 169071, Control_c, 0, 64, 73
1, 169074, Note_on_c, 0, 90, 97
1, 169086, Control_c, 0, 64, 77
1, 169094, Note_off_c, 0, 54, 63
1, 169101, Control_c, 0, 64, 82
1, 169116, Control_c, 0, 64, 85
1, 169124, Note_off_c, 0, 90, 61
1, 169131, Control_c, 0, 64, 88
1, 169145, Control_c, 0, 64, 90
1, 169160, Control_c, 0, 64, 92
1, 169175, Control_c, 0, 64, 93
1, 169190, Control_c, 0, 64, 94
1, 169193, Note_on_c, 0, 73, 64
1, 169205, Control_c, 0, 64, 95
1, 169210, Note_on_c, 0, 70, 30
1, 169213, Note_off_c, 0, 73, 66
1, 169219, Control_c, 0, 64, 95
1, 169244, Note_off_c, 0, 70, 50
1, 169264, Control_c, 0, 64, 95
1, 169279, Control_c, 0, 64, 89
1, 169293, Control_c, 0, 64, 75
1, 169305, Note_on_c, 0, 49, 72
1, 169308, Note_on_c, 0, 92, 87
1, 169308, Control_c, 0, 64, 63
1, 169323, Control_c, 0, 64, 0
1, 169335, Note_off_c, 0, 49, 66
1, 169344, Note_off_c, 0, 92, 60
1, 169431, Note_on_c, 0, 73, 60
1, 169440, Note_on_c, 0, 71, 51
1, 169461, Note_off_c, 0, 73, 64
1, 169462, Note_off_c, 0, 71, 58
1, 169543, Note_on_c, 0, 85, 63
1, 169550, Note_on_c, 0, 80, 64
1, 169551, Note_on_c, 0, 65, 43
1, 169586, Note_off_c, 0, 80, 57
1, 169594, Note_off_c, 0, 65, 48
1, 169601, Note_off_c, 0, 85, 49
1, 169604, Control_c, 0, 64, 14
1, 169619, Control_c, 0, 64, 27
1, 169634, Control_c, 0, 64, 34
1, 169649, Control_c, 0, 64, 40
1, 169654, Note_on_c, 0, 73, 67
1, 169663, Control_c, 0, 64, 43
1, 169678, Control_c, 0, 64, 48
1, 169684, Note_off_c, 0, 73, 64
1, 169693, Control_c, 0, 64, 55
1, 169716, Control_c, 0, 64, 61
1, 169731, Control_c, 0, 64, 64
1, 169745, Control_c, 0, 64, 66
1, 169760, Control_c, 0, 64, 68
1, 169764, Note_on_c, 0, 92, 89
1, 169775, Control_c, 0, 64, 71
1, 169776, Note_on_c, 0, 49, 55
1, 169789, Control_c, 0, 64, 73
1, 169800, Note_off_c, 0, 49, 59
1, 169804, Control_c, 0, 64, 75
1, 169810, Note_off_c, 0, 92, 63
1, 169819, Control_c, 0, 64, 77
1, 169835, Control_c, 0, 64, 78
1, 169850, Control_c, 0, 64, 79
1, 169865, Control_c, 0, 64, 79
1, 169888, Note_on_c, 0, 73, 57
1, 169894, Control_c, 0, 64, 80
1, 169911, Note_off_c, 0, 73, 60
1, 169954, Control_c, 0, 64, 79
1, 169968, Control_c, 0, 64, 76
1, 169983, Control_c, 0, 64, 68
1, 169998, Control_c, 0, 64, 59
1, 170010, Note_on_c, 0, 56, 52
1, 170012, Control_c, 0, 64, 0
1, 170017, Note_on_c, 0, 85, 77
1, 170025, Note_on_c, 0, 92, 63
1, 170026, Note_off_c, 0, 92, 127
1, 170035, Note_on_c, 0, 90, 54
1, 170039, Note_off_c, 0, 85, 68
1, 170040, Note_on_c, 0, 94, 44
1, 170047, Note_off_c, 0, 56, 63
1, 170056, Note_off_c, 0, 90, 65
1, 170063, Note_off_c, 0, 94, 57
1, 170123, Note_on_c, 0, 85, 74
1, 170128, Note_on_c, 0, 95, 81
1, 170148, Note_off_c, 0, 85, 65
1, 170152, Note_on_c, 0, 94, 36
1, 170153, Note_off_c, 0, 94, 127
1, 170158, Note_off_c, 0, 95, 56
1, 170238, Note_on_c, 0, 85, 80
1, 170245, Note_on_c, 0, 94, 80
1, 170250, Note_on_c, 0, 97, 78
1, 170253, Note_on_c, 0, 61, 46
1, 170271, Note_off_c, 0, 85, 64
1, 170271, Note_off_c, 0, 97, 69
1, 170283, Note_off_c, 0, 94, 47
1, 170295, Note_off_c, 0, 61, 63
1, 170332, Note_on_c, 0, 70, 49
1, 170350, Note_on_c, 0, 97, 89
1, 170351, Note_on_c, 0, 85, 81
1, 170356, Note_off_c, 0, 70, 58
1, 170358, Note_on_c, 0, 94, 72
1, 170379, Note_off_c, 0, 85, 60
1, 170393, Note_off_c, 0, 94, 55
1, 170398, Control_c, 0, 64, 17
1, 170399, Note_off_c, 0, 97, 60
1, 170412, Control_c, 0, 64, 37
1, 170427, Control_c, 0, 64, 54
1, 170442, Control_c, 0, 64, 64
1, 170465, Control_c, 0, 64, 68
1, 170475, Note_on_c, 0, 85, 82
1, 170478, Note_on_c, 0, 78, 61
1, 170480, Control_c, 0, 64, 74
1, 170481, Note_on_c, 0, 95, 80
1, 170494, Control_c, 0, 64, 80
1, 170504, Note_off_c, 0, 85, 62
1, 170508, Note_off_c, 0, 95, 58
1, 170509, Control_c, 0, 64, 84
1, 170524, Control_c, 0, 64, 87
1, 170534, Note_off_c, 0, 78, 56
1, 170538, Control_c, 0, 64, 90
1, 170553, Control_c, 0, 64, 93
1, 170568, Control_c, 0, 64, 95
1, 170581, Note_on_c, 0, 85, 79
1, 170583, Control_c, 0, 64, 98
1, 170592, Note_on_c, 0, 90, 54
1, 170598, Control_c, 0, 64, 99
1, 170613, Note_on_c, 0, 94, 52
1, 170623, Note_off_c, 0, 85, 58
1, 170627, Control_c, 0, 64, 100
1, 170629, Note_off_c, 0, 90, 63
1, 170638, Note_off_c, 0, 94, 63
1, 170653, Poly_aftertouch_c, 0, 82, 0
1, 170658, Control_c, 0, 64, 98
1, 170673, Control_c, 0, 64, 90
1, 170688, Control_c, 0, 64, 74
1, 170703, Control_c, 0, 64, 61
1, 170717, Control_c, 0, 64, 0
1, 170719, Note_on_c, 0, 83, 71
1, 170720, Note_on_c, 0, 47, 57
1, 170721, Note_on_c, 0, 92, 78
1, 170727, Note_on_c, 0, 90, 56
1, 170742, Note_off_c, 0, 83, 67
1, 170744, Note_off_c, 0, 47, 60
1, 170757, Note_off_c, 0, 90, 66
1, 170760, Note_on_c, 0, 82, 17
1, 170760, Note_on_c, 0, 86, 17
1, 170766, Note_off_c, 0, 92, 58
1, 170788, Note_off_c, 0, 82, 35
1, 170802, Note_off_c, 0, 86, 29
1, 170826, Note_on_c, 0, 85, 81
1, 170826, Note_on_c, 0, 94, 71
1, 170848, Note_off_c, 0, 85, 67
1, 170851, Note_on_c, 0, 95, 51
1, 170857, Note_off_c, 0, 94, 56
1, 170860, Note_on_c, 0, 88, 45
1, 170871, Note_off_c, 0, 95, 62
1, 170885, Note_off_c, 0, 88, 54
1, 170947, Note_on_c, 0, 95, 77
1, 170950, Note_on_c, 0, 87, 80
1, 170963, Note_on_c, 0, 59, 49
1, 170972, Note_off_c, 0, 87, 64
1, 170976, Note_off_c, 0, 95, 59
1, 170978, Note_on_c, 0, 94, 23
1, 171011, Note_off_c, 0, 59, 61
1, 171013, Note_off_c, 0, 94, 32
1, 171046, Note_on_c, 0, 87, 83
1, 171060, Note_on_c, 0, 95, 76
1, 171061, Note_on_c, 0, 68, 54
1, 171066, Note_on_c, 0, 94, 21
1, 171081, Note_off_c, 0, 95, 71
1, 171084, Note_off_c, 0, 68, 61
1, 171093, Note_off_c, 0, 87, 57
1, 171099, Note_off_c, 0, 94, 50
1, 171118, Control_c, 0, 64, 24
1, 171133, Control_c, 0, 64, 56
1, 171148, Control_c, 0, 64, 64
1, 171162, Control_c, 0, 64, 67
1, 171171, Note_on_c, 0, 94, 73
1, 171177, Control_c, 0, 64, 71
1, 171180, Note_on_c, 0, 85, 67
1, 171190, Note_on_c, 0, 75, 64
1, 171192, Control_c, 0, 64, 76
1, 171201, Note_on_c, 0, 87, 52
1, 171214, Control_c, 0, 64, 82
1, 171222, Note_off_c, 0, 85, 55
1, 171229, Control_c, 0, 64, 86
1, 171232, Note_off_c, 0, 94, 56
1, 171241, Note_off_c, 0, 87, 63
1, 171243, Control_c, 0, 64, 89
1, 171251, Note_off_c, 0, 75, 48
1, 171258, Control_c, 0, 64, 91
1, 171273, Control_c, 0, 64, 93
1, 171288, Control_c, 0, 64, 94
1, 171291, Note_on_c, 0, 83, 82
1, 171300, Note_on_c, 0, 80, 42
1, 171300, Note_on_c, 0, 92, 69
1, 171303, Control_c, 0, 64, 95
1, 171312, Note_on_c, 0, 87, 66
1, 171318, Control_c, 0, 64, 96
1, 171323, Note_off_c, 0, 80, 58
1, 171334, Note_off_c, 0, 83, 61
1, 171337, Note_off_c, 0, 92, 61
1, 171350, Note_off_c, 0, 87, 58
1, 171377, Control_c, 0, 64, 92
1, 171392, Control_c, 0, 64, 81
1, 171407, Control_c, 0, 64, 69
1, 171419, Note_on_c, 0, 49, 77
1, 171422, Control_c, 0, 64, 49
1, 171431, Note_on_c, 0, 82, 74
1, 171433, Note_on_c, 0, 90, 80
1, 171437, Control_c, 0, 64, 0
1, 171448, Note_off_c, 0, 49, 67
1, 171455, Note_off_c, 0, 82, 69
1, 171458, Note_on_c, 0, 85, 32
1, 171458, Note_off_c, 0, 90, 63
1, 171490, Note_off_c, 0, 85, 48
1, 171539, Note_on_c, 0, 85, 78
1, 171550, Note_on_c, 0, 92, 68
1, 171565, Note_off_c, 0, 92, 68
1, 171587, Note_off_c, 0, 85, 62
1, 171648, Note_on_c, 0, 85, 79
1, 171654, Note_on_c, 0, 94, 77
1, 171662, Note_on_c, 0, 61, 59
1, 171674, Control_c, 0, 64, 17
1, 171676, Note_off_c, 0, 94, 67
1, 171685, Note_off_c, 0, 85, 59
1, 171689, Control_c, 0, 64, 31
1, 171704, Control_c, 0, 64, 42
1, 171708, Note_off_c, 0, 61, 58
1, 171719, Control_c, 0, 64, 53
1, 171733, Control_c, 0, 64, 61
1, 171748, Control_c, 0, 64, 64
1, 171752, Note_on_c, 0, 94, 85
1, 171753, Note_on_c, 0, 70, 59
1, 171753, Note_on_c, 0, 85, 77
1, 171763, Control_c, 0, 64, 67
1, 171777, Control_c, 0, 64, 69
1, 171787, Note_off_c, 0, 70, 63
1, 171792, Control_c, 0, 64, 71
1, 171800, Note_off_c, 0, 94, 62
1, 171801, Note_off_c, 0, 85, 61
1, 171807, Control_c, 0, 64, 73
1, 171822, Control_c, 0, 64, 74
1, 171837, Control_c, 0, 64, 75
1, 171852, Control_c, 0, 64, 76
1, 171864, Note_on_c, 0, 92, 87
1, 171866, Control_c, 0, 64, 77
1, 171882, Note_on_c, 0, 73, 62
1, 171896, Control_c, 0, 64, 77
1, 171926, Control_c, 0, 64, 78
1, 171929, Note_off_c, 0, 92, 58
1, 171932, Note_off_c, 0, 73, 61
1, 171973, Note_on_c, 0, 90, 81
1, 171986, Note_on_c, 0, 78, 57
1, 172006, Note_off_c, 0, 78, 63
1, 172060, Note_off_c, 0, 90, 62
1, 172101, Note_on_c, 0, 80, 80
1, 172101, Note_on_c, 0, 89, 59
1, 172108, Note_on_c, 0, 49, 77
1, 172129, Note_off_c, 0, 80, 60
1, 172140, Note_off_c, 0, 49, 64
1, 172161, Note_off_c, 0, 89, 62
1, 172200, Note_on_c, 0, 85, 50
1, 172209, Note_on_c, 0, 90, 75
1, 172216, Note_on_c, 0, 82, 60
1, 172238, Note_off_c, 0, 82, 62
1, 172267, Note_off_c, 0, 85, 63
1, 172269, Note_off_c, 0, 90, 63
1, 172304, Control_c, 0, 64, 77
1, 172319, Control_c, 0, 64, 73
1, 172330, Note_on_c, 0, 77, 73
1, 172333, Note_on_c, 0, 83, 72
1, 172334, Control_c, 0, 64, 66
1, 172335, Note_on_c, 0, 92, 73
1, 172343, Note_on_c, 0, 85, 54
1, 172349, Control_c, 0, 64, 43
1, 172354, Note_off_c, 0, 77, 67
1, 172356, Note_off_c, 0, 83, 65
1, 172357, Note_off_c, 0, 92, 69
1, 172364, Control_c, 0, 64, 0
1, 172374, Note_off_c, 0, 85, 66
1, 172425, Note_on_c, 0, 83, 73
1, 172432, Note_on_c, 0, 92, 67
1, 172445, Note_on_c, 0, 68, 72
1, 172452, Note_off_c, 0, 83, 63
1, 172454, Note_on_c, 0, 90, 53
1, 172458, Note_off_c, 0, 92, 66
1, 172472, Note_off_c, 0, 68, 66
1, 172474, Note_off_c, 0, 90, 63
1, 172547, Note_on_c, 0, 80, 77
1, 172558, Note_on_c, 0, 61, 66
1, 172560, Note_on_c, 0, 88, 58
1, 172566, Note_on_c, 0, 85, 48
1, 172570, Note_off_c, 0, 80, 67
1, 172579, Note_off_c, 0, 88, 64
1, 172589, Note_off_c, 0, 85, 61
1, 172606, Note_off_c, 0, 61, 61
1, 172644, Note_on_c, 0, 71, 67
1, 172649, Note_on_c, 0, 80, 88
1, 172672, Note_on_c, 0, 89, 57
1, 172676, Note_on_c, 0, 85, 55
1, 172681, Note_on_c, 0, 90, 51
1, 172689, Note_off_c, 0, 89, 69
1, 172707, Note_off_c, 0, 71, 61
1, 172711, Note_off_c, 0, 90, 60
1, 172712, Note_off_c, 0, 80, 64
1, 172718, Note_off_c, 0, 85, 65
1, 172764, Note_on_c, 0, 70, 80
1, 172770, Note_on_c, 0, 66, 73
1, 172775, Note_on_c, 0, 78, 97
1, 172779, Note_on_c, 0, 85, 88
1, 172781, Note_on_c, 0, 90, 76
1, 172789, Note_off_c, 0, 70, 67
1, 172793, Note_on_c, 0, 87, 61
1, 172794, Note_off_c, 0, 87, 127
1, 172800, Control_c, 0, 64, 58
1, 172804, Note_off_c, 0, 66, 61
1, 172812, Poly_aftertouch_c, 0, 87, 0
1, 172814, Note_on_c, 0, 77, 42
1, 172814, Control_c, 0, 64, 84
1, 172829, Control_c, 0, 64, 118
1, 172835, Note_off_c, 0, 90, 60
1, 172839, Note_off_c, 0, 77, 56
1, 172844, Control_c, 0, 64, 127
1, 172865, Note_off_c, 0, 78, 52
1, 172897, Note_off_c, 0, 85, 56
1, 172998, Note_on_c, 0, 54, 82
1, 172999, Note_on_c, 0, 42, 79
1, 173024, Note_off_c, 0, 54, 65
1, 173029, Note_off_c, 0, 42, 63
1, 173085, Note_on_c, 0, 54, 77
1, 173093, Note_on_c, 0, 42, 80
1, 173135, Note_off_c, 0, 54, 62
1, 173141, Note_off_c, 0, 42, 56
1, 173214, Note_on_c, 0, 55, 91
1, 173228, Note_on_c, 0, 43, 71
1, 173246, Note_off_c, 0, 55, 62
1, 173255, Note_off_c, 0, 43, 65
1, 173310, Note_on_c, 0, 55, 91
1, 173319, Note_on_c, 0, 43, 75
1, 173334, Control_c, 0, 64, 80
1, 173348, Note_off_c, 0, 55, 65
1, 173348, Control_c, 0, 64, 0
1, 173350, Note_off_c, 0, 43, 64
1, 173408, Control_c, 0, 64, 52
1, 173422, Control_c, 0, 64, 99
1, 173426, Note_on_c, 0, 56, 93
1, 173437, Control_c, 0, 64, 127
1, 173438, Note_on_c, 0, 44, 78
1, 173488, Note_off_c, 0, 44, 56
1, 173491, Note_off_c, 0, 56, 58
1, 173540, Note_on_c, 0, 56, 74
1, 173567, Poly_aftertouch_c, 0, 44, 0
1, 173567, Poly_aftertouch_c, 0, 46, 0
1, 173591, Note_off_c, 0, 56, 61
1, 173633, Note_on_c, 0, 68, 65
1, 173659, Note_off_c, 0, 68, 66
1, 173666, Note_on_c, 0, 56, 85
1, 173723, Note_on_c, 0, 68, 80
1, 173739, Note_off_c, 0, 56, 55
1, 173773, Note_off_c, 0, 68, 60
1, 173832, Note_on_c, 0, 68, 80
1, 173836, Note_on_c, 0, 80, 53
1, 173863, Note_off_c, 0, 68, 62
1, 173869, Note_off_c, 0, 80, 63
1, 173918, Note_on_c, 0, 56, 49
1, 173932, Note_on_c, 0, 68, 82
1, 173939, Note_on_c, 0, 80, 76
1, 173958, Note_off_c, 0, 68, 64
1, 173970, Note_off_c, 0, 80, 62
1, 173974, Note_off_c, 0, 56, 60
1, 174063, Note_on_c, 0, 80, 92
1, 174065, Note_on_c, 0, 92, 103
1, 174095, Note_off_c, 0, 80, 61
1, 174098, Note_on_c, 0, 93, 46
1, 174099, Note_off_c, 0, 93, 127
1, 174113, Control_c, 0, 67, 11
1, 174120, Note_off_c, 0, 92, 60
1, 174128, Control_c, 0, 67, 27
1, 174143, Control_c, 0, 67, 51
1, 174158, Control_c, 0, 67, 80
1, 174173, Control_c, 0, 67, 118
1, 174187, Control_c, 0, 67, 127
1, 174239, Control_c, 0, 64, 97
1, 174254, Control_c, 0, 64, 70
1, 174269, Control_c, 0, 64, 0
1, 174304, Note_on_c, 0, 80, 55
1, 174310, Note_on_c, 0, 102, 89
1, 174313, Note_on_c, 0, 90, 84
1, 174324, Note_off_c, 0, 80, 64
1, 174328, Note_off_c, 0, 102, 70
1, 174331, Note_off_c, 0, 90, 72
1, 174403, Note_on_c, 0, 90, 79
1, 174403, Note_on_c, 0, 102, 84
1, 174421, Note_on_c, 0, 80, 49
1, 174427, Note_off_c, 0, 90, 66
1, 174438, Note_off_c, 0, 102, 52
1, 174444, Note_off_c, 0, 80, 59
1, 174521, Note_on_c, 0, 80, 59
1, 174531, Note_on_c, 0, 88, 63
1, 174536, Note_on_c, 0, 101, 57
1, 174541, Note_on_c, 0, 100, 51
1, 174543, Note_on_c, 0, 89, 42
1, 174548, Note_off_c, 0, 88, 66
1, 174550, Note_off_c, 0, 80, 64
1, 174555, Note_off_c, 0, 101, 61
1, 174562, Note_off_c, 0, 100, 62
1, 174569, Note_off_c, 0, 89, 58
1, 174613, Note_on_c, 0, 88, 82
1, 174623, Note_on_c, 0, 100, 77
1, 174630, Note_on_c, 0, 80, 58
1, 174647, Note_off_c, 0, 88, 67
1, 174650, Note_off_c, 0, 100, 64
1, 174656, Note_off_c, 0, 80, 63
1, 174737, Note_on_c, 0, 80, 64
1, 174739, Note_on_c, 0, 87, 81
1, 174741, Note_on_c, 0, 99, 81
1, 174757, Note_on_c, 0, 72, 54
1, 174759, Note_off_c, 0, 87, 67
1, 174761, Note_off_c, 0, 99, 67
1, 174764, Note_off_c, 0, 80, 66
1, 174784, Note_off_c, 0, 72, 60
1, 174832, Note_on_c, 0, 87, 66
1, 174839, Note_on_c, 0, 99, 80
1, 174848, Note_on_c, 0, 80, 61
1, 174862, Note_off_c, 0, 87, 64
1, 174871, Note_off_c, 0, 99, 58
1, 174872, Note_off_c, 0, 80, 63
1, 174889, Note_on_c, 0, 72, 29
1, 174922, Note_off_c, 0, 72, 44
1, 174955, Note_on_c, 0, 80, 67
1, 174961, Note_on_c, 0, 85, 72
1, 174963, Note_on_c, 0, 97, 76
1, 174970, Note_on_c, 0, 70, 61
1, 174984, Note_off_c, 0, 80, 61
1, 174986, Note_off_c, 0, 85, 65
1, 174987, Note_off_c, 0, 97, 66
1, 175006, Note_off_c, 0, 70, 61
1, 175056, Note_on_c, 0, 85, 60
1, 175061, Note_on_c, 0, 97, 74
1, 175072, Note_on_c, 0, 80, 65
1, 175078, Note_on_c, 0, 70, 49
1, 175085, Note_off_c, 0, 85, 65
1, 175091, Note_off_c, 0, 97, 58
1, 175100, Note_off_c, 0, 80, 63
1, 175110, Note_off_c, 0, 70, 52
1, 175175, Note_on_c, 0, 99, 82
1, 175181, Note_on_c, 0, 80, 70
1, 175182, Note_on_c, 0, 87, 63
1, 175195, Note_off_c, 0, 99, 68
1, 175197, Note_on_c, 0, 72, 59
1, 175199, Note_off_c, 0, 87, 66
1, 175211, Note_off_c, 0, 80, 60
1, 175264, Note_on_c, 0, 87, 75
1, 175267, Note_on_c, 0, 99, 88
1, 175304, Note_off_c, 0, 87, 60
1, 175322, Note_off_c, 0, 72, 57
1, 175330, Note_off_c, 0, 99, 62
1, 175380, Note_on_c, 0, 80, 84
1, 175381, Note_on_c, 0, 88, 91
1, 175382, Note_on_c, 0, 100, 89
1, 175389, Note_on_c, 0, 73, 76
1, 175398, Note_off_c, 0, 80, 70
1, 175402, Control_c, 0, 64, 73
1, 175402, Control_c, 0, 67, 124
1, 175417, Control_c, 0, 64, 107
1, 175417, Control_c, 0, 67, 89
1, 175419, Note_on_c, 0, 98, 35
1, 175433, Control_c, 0, 64, 127
1, 175433, Control_c, 0, 67, 40
1, 175444, Note_off_c, 0, 73, 63
1, 175445, Note_off_c, 0, 98, 54
1, 175448, Control_c, 0, 67, 0
1, 175466, Poly_aftertouch_c, 0, 99, 0
1, 175471, Note_off_c, 0, 88, 57
1, 175485, Note_off_c, 0, 100, 63
1, 175613, Note_on_c, 0, 56, 83
1, 175616, Note_on_c, 0, 44, 80
1, 175637, Note_off_c, 0, 56, 65
1, 175646, Note_off_c, 0, 44, 66
1, 175708, Note_on_c, 0, 56, 81
1, 175715, Note_on_c, 0, 44, 80
1, 175759, Note_off_c, 0, 44, 63
1, 175762, Note_off_c, 0, 56, 60
1, 175825, Note_on_c, 0, 55, 92
1, 175840, Note_on_c, 0, 43, 71
1, 175863, Note_off_c, 0, 55, 61
1, 175868, Note_off_c, 0, 43, 65
1, 175904, Poly_aftertouch_c, 0, 44, 127
1, 175917, Note_on_c, 0, 55, 85
1, 175929, Note_on_c, 0, 43, 80
1, 175952, Note_off_c, 0, 43, 67
1, 175959, Control_c, 0, 64, 70
1, 175959, Note_off_c, 0, 55, 66
1, 175961, Poly_aftertouch_c, 0, 44, 0
1, 175974, Control_c, 0, 64, 0
1, 176018, Control_c, 0, 64, 81
1, 176033, Control_c, 0, 64, 127
1, 176034, Note_on_c, 0, 54, 93
1, 176046, Note_on_c, 0, 42, 81
1, 176081, Note_off_c, 0, 42, 55
1, 176086, Note_on_c, 0, 44, 4
1, 176087, Note_off_c, 0, 44, 127
1, 176087, Note_off_c, 0, 54, 60
1, 176126, Poly_aftertouch_c, 0, 44, 0
1, 176140, Note_on_c, 0, 54, 76
1, 176181, Note_off_c, 0, 54, 59
1, 176185, Poly_aftertouch_c, 0, 42, 0
1, 176254, Note_on_c, 0, 54, 84
1, 176254, Note_on_c, 0, 66, 70
1, 176280, Note_off_c, 0, 66, 66
1, 176301, Note_off_c, 0, 54, 57
1, 176334, Poly_aftertouch_c, 0, 42, 127
1, 176346, Note_on_c, 0, 66, 85
1, 176351, Note_on_c, 0, 54, 74
1, 176380, Poly_aftertouch_c, 0, 42, 0
1, 176400, Note_off_c, 0, 66, 59
1, 176418, Note_off_c, 0, 54, 60
1, 176435, Poly_aftertouch_c, 0, 78, 127
1, 176457, Note_on_c, 0, 78, 32
1, 176459, Note_on_c, 0, 66, 77
1, 176467, Poly_aftertouch_c, 0, 44, 127
1, 176498, Note_off_c, 0, 66, 57
1, 176504, Note_off_c, 0, 78, 62
1, 176522, Note_on_c, 0, 77, 3
1, 176550, Poly_aftertouch_c, 0, 44, 0
1, 176554, Note_on_c, 0, 66, 76
1, 176558, Note_off_c, 0, 77, 36
1, 176560, Note_on_c, 0, 78, 75
1, 176587, Note_off_c, 0, 66, 61
1, 176609, Note_off_c, 0, 78, 64
1, 176678, Control_c, 0, 67, 9
1, 176680, Note_on_c, 0, 90, 98
1, 176680, Note_on_c, 0, 78, 94
1, 176693, Control_c, 0, 67, 24
1, 176707, Control_c, 0, 67, 47
1, 176709, Note_off_c, 0, 78, 63
1, 176722, Control_c, 0, 67, 81
1, 176737, Control_c, 0, 67, 124
1, 176739, Note_off_c, 0, 90, 61
1, 176752, Control_c, 0, 67, 127
1, 176811, Control_c, 0, 64, 104
1, 176826, Control_c, 0, 64, 72
1, 176841, Control_c, 0, 64, 30
1, 176856, Control_c, 0, 64, 0
1, 176909, Note_on_c, 0, 100, 81
1, 176911, Note_on_c, 0, 78, 56
1, 176911, Note_on_c, 0, 88, 77
1, 176914, Note_on_c, 0, 73, 51
1, 176930, Note_off_c, 0, 100, 70
1, 176931, Note_off_c, 0, 78, 63
1, 176931, Note_off_c, 0, 88, 76
1, 176937, Note_off_c, 0, 73, 59
1, 177001, Note_on_c, 0, 100, 73
1, 177002, Note_on_c, 0, 88, 72
1, 177005, Note_on_c, 0, 78, 63
1, 177020, Note_on_c, 0, 73, 48
1, 177023, Note_off_c, 0, 88, 72
1, 177025, Note_off_c, 0, 100, 71
1, 177035, Note_off_c, 0, 78, 67
1, 177042, Note_off_c, 0, 73, 61
1, 177110, Note_on_c, 0, 78, 73
1, 177113, Note_on_c, 0, 99, 77
1, 177117, Note_on_c, 0, 87, 68
1, 177121, Note_on_c, 0, 71, 55
1, 177130, Note_off_c, 0, 87, 68
1, 177133, Note_off_c, 0, 78, 69
1, 177133, Note_off_c, 0, 99, 68
1, 177157, Note_off_c, 0, 71, 63
1, 177217, Note_on_c, 0, 87, 62
1, 177226, Note_on_c, 0, 99, 75
1, 177231, Note_on_c, 0, 78, 63
1, 177244, Note_off_c, 0, 87, 65
1, 177246, Note_on_c, 0, 71, 46
1, 177247, Note_off_c, 0, 99, 70
1, 177254, Note_off_c, 0, 78, 64
1, 177269, Note_off_c, 0, 71, 60
1, 177332, Note_on_c, 0, 97, 74
1, 177333, Note_on_c, 0, 78, 66
1, 177338, Note_on_c, 0, 85, 63
1, 177342, Note_on_c, 0, 70, 64
1, 177354, Note_off_c, 0, 85, 65
1, 177354, Note_off_c, 0, 97, 68
1, 177360, Note_off_c, 0, 78, 68
1, 177375, Note_off_c, 0, 70, 62
1, 177428, Note_on_c, 0, 85, 65
1, 177437, Note_on_c, 0, 97, 72
1, 177438, Note_on_c, 0, 78, 63
1, 177451, Note_off_c, 0, 85, 68
1, 177461, Note_off_c, 0, 97, 66
1, 177464, Note_on_c, 0, 70, 42
1, 177466, Note_off_c, 0, 78, 67
1, 177489, Note_off_c, 0, 70, 57
1, 177545, Note_on_c, 0, 95, 72
1, 177546, Note_on_c, 0, 78, 75
1, 177546, Note_on_c, 0, 83, 67
1, 177562, Note_off_c, 0, 83, 68
1, 177564, Note_on_c, 0, 68, 56
1, 177569, Note_off_c, 0, 78, 66
1, 177569, Note_off_c, 0, 95, 65
1, 177589, Note_off_c, 0, 68, 57
1, 177638, Note_on_c, 0, 83, 70
1, 177654, Note_on_c, 0, 78, 65
1, 177656, Note_on_c, 0, 95, 64
1, 177667, Note_off_c, 0, 83, 62
1, 177674, Note_on_c, 0, 68, 52
1, 177682, Note_off_c, 0, 78, 67
1, 177682, Note_off_c, 0, 95, 64
1, 177701, Note_off_c, 0, 68, 57
1, 177760, Note_on_c, 0, 85, 70
1, 177765, Note_on_c, 0, 78, 76
1, 177774, Note_on_c, 0, 97, 62
1, 177783, Note_off_c, 0, 85, 69
1, 177784, Note_on_c, 0, 70, 58
1, 177792, Note_off_c, 0, 97, 66
1, 177798, Note_off_c, 0, 78, 58
1, 177836, Note_off_c, 0, 70, 0
1, 177858, Note_on_c, 0, 97, 82
1, 177867, Note_on_c, 0, 85, 70
1, 177873, Poly_aftertouch_c, 0, 70, 127
1, 177888, Note_off_c, 0, 85, 69
1, 177901, Note_on_c, 0, 78, 17
1, 177905, Note_off_c, 0, 97, 59
1, 177916, Poly_aftertouch_c, 0, 70, 0
1, 177941, Note_off_c, 0, 78, 42
1, 177977, Note_on_c, 0, 87, 92
1, 177979, Note_on_c, 0, 99, 96
1, 177981, Note_on_c, 0, 78, 68
1, 177983, Control_c, 0, 64, 9
1, 177988, Note_on_c, 0, 71, 70
1, 177998, Control_c, 0, 64, 77
1, 177998, Control_c, 0, 67, 123
1, 178006, Note_off_c, 0, 78, 68
1, 178013, Control_c, 0, 64, 127
1, 178013, Control_c, 0, 67, 90
1, 178026, Note_off_c, 0, 71, 59
1, 178028, Control_c, 0, 67, 45
1, 178042, Control_c, 0, 67, 0
1, 178089, Note_off_c, 0, 99, 59
1, 178092, Note_off_c, 0, 87, 55
1, 178217, Note_on_c, 0, 53, 87
1, 178224, Note_on_c, 0, 41, 74
1, 178245, Note_off_c, 0, 53, 64
1, 178254, Note_off_c, 0, 41, 62
1, 178313, Note_on_c, 0, 53, 86
1, 178319, Note_on_c, 0, 41, 76
1, 178352, Note_off_c, 0, 41, 62
1, 178352, Note_off_c, 0, 53, 58
1, 178426, Note_on_c, 0, 52, 83
1, 178441, Note_on_c, 0, 40, 76
1, 178468, Note_off_c, 0, 40, 65
1, 178475, Note_off_c, 0, 52, 63
1, 178509, Poly_aftertouch_c, 0, 41, 0
1, 178531, Note_on_c, 0, 52, 82
1, 178540, Note_on_c, 0, 40, 74
1, 178549, Poly_aftertouch_c, 0, 41, 0
1, 178568, Note_off_c, 0, 40, 65
1, 178573, Note_off_c, 0, 52, 64
1, 178576, Control_c, 0, 64, 102
1, 178591, Control_c, 0, 64, 59
1, 178605, Control_c, 0, 64, 0
1, 178645, Note_on_c, 0, 51, 88
1, 178651, Control_c, 0, 64, 52
1, 178660, Note_on_c, 0, 39, 72
1, 178665, Control_c, 0, 64, 79
1, 178680, Control_c, 0, 64, 127
1, 178703, Note_off_c, 0, 39, 56
1, 178704, Note_off_c, 0, 51, 59
1, 178756, Note_on_c, 0, 51, 75
1, 178792, Poly_aftertouch_c, 0, 39, 0
1, 178800, Note_off_c, 0, 51, 61
1, 178883, Note_on_c, 0, 51, 85
1, 178883, Note_on_c, 0, 63, 64
1, 178908, Note_off_c, 0, 63, 66
1, 178929, Note_off_c, 0, 51, 59
1, 178969, Note_on_c, 0, 63, 81
1, 178984, Note_on_c, 0, 51, 74
1, 178993, Note_on_c, 0, 75, 59
1, 179014, Note_off_c, 0, 75, 63
1, 179015, Note_off_c, 0, 63, 61
1, 179047, Note_off_c, 0, 51, 59
1, 179084, Note_on_c, 0, 63, 86
1, 179084, Note_on_c, 0, 75, 82
1, 179114, Note_off_c, 0, 63, 55
1, 179116, Note_off_c, 0, 75, 58
1, 179184, Note_on_c, 0, 63, 88
1, 179192, Note_on_c, 0, 75, 79
1, 179208, Note_off_c, 0, 63, 66
1, 179214, Note_on_c, 0, 51, 44
1, 179217, Note_off_c, 0, 75, 64
1, 179250, Note_off_c, 0, 51, 62
1, 179309, Note_on_c, 0, 75, 96
1, 179312, Note_on_c, 0, 87, 102
1, 179350, Note_off_c, 0, 75, 63
1, 179369, Note_off_c, 0, 87, 59
1, 179584, Note_on_c, 0, 67, 74
1, 179586, Note_on_c, 0, 75, 92
1, 179586, Note_on_c, 0, 87, 98
1, 179604, Note_on_c, 0, 63, 43
1, 179613, Note_off_c, 0, 67, 63
1, 179629, Note_off_c, 0, 63, 57
1, 179629, Note_off_c, 0, 75, 60
1, 179634, Note_off_c, 0, 87, 61
1, 179700, Note_on_c, 0, 67, 73
1, 179718, Note_on_c, 0, 63, 50
1, 179718, Note_on_c, 0, 87, 90
1, 179721, Note_on_c, 0, 75, 90
1, 179740, Note_off_c, 0, 63, 59
1, 179756, Note_off_c, 0, 67, 60
1, 179764, Note_off_c, 0, 75, 59
1, 179767, Note_off_c, 0, 87, 61
1, 179834, Note_on_c, 0, 68, 74
1, 179837, Note_on_c, 0, 64, 63
1, 179850, Note_on_c, 0, 75, 89
1, 179852, Note_on_c, 0, 87, 88
1, 179861, Note_off_c, 0, 68, 62
1, 179869, Note_off_c, 0, 64, 63
1, 179893, Note_off_c, 0, 87, 59
1, 179894, Note_off_c, 0, 75, 59
1, 179939, Note_on_c, 0, 68, 83
1, 179951, Note_on_c, 0, 64, 62
1, 179955, Note_on_c, 0, 75, 81
1, 179958, Note_on_c, 0, 87, 87
1, 179983, Note_off_c, 0, 64, 65
1, 179991, Note_off_c, 0, 68, 58
1, 180002, Note_off_c, 0, 75, 61
1, 180018, Note_off_c, 0, 87, 59
1, 180058, Note_on_c, 0, 69, 87
1, 180069, Note_on_c, 0, 76, 86
1, 180070, Note_on_c, 0, 66, 73
1, 180070, Note_on_c, 0, 88, 80
1, 180092, Note_on_c, 0, 87, 47
1, 180101, Note_off_c, 0, 66, 60
1, 180105, Note_on_c, 0, 82, 36
1, 180105, Note_off_c, 0, 69, 63
1, 180113, Note_off_c, 0, 76, 64
1, 180116, Note_off_c, 0, 87, 58
1, 180124, Note_off_c, 0, 88, 62
1, 180132, Note_off_c, 0, 82, 51
1, 180173, Note_on_c, 0, 69, 77
1, 180180, Note_on_c, 0, 87, 86
1, 180183, Note_on_c, 0, 66, 71
1, 180183, Note_on_c, 0, 75, 87
1, 180214, Note_off_c, 0, 75, 65
1, 180231, Note_off_c, 0, 69, 62
1, 180232, Note_on_c, 0, 85, 24
1, 180238, Note_off_c, 0, 87, 61
1, 180251, Note_off_c, 0, 66, 55
1, 180275, Note_off_c, 0, 85, 47
1, 180296, Note_on_c, 0, 85, 73
1, 180303, Note_on_c, 0, 73, 77
1, 180308, Note_on_c, 0, 67, 75
1, 180312, Note_on_c, 0, 64, 67
1, 180326, Note_off_c, 0, 73, 67
1, 180346, Note_off_c, 0, 85, 64
1, 180389, Note_off_c, 0, 67, 57
1, 180401, Note_on_c, 0, 71, 85
1, 180403, Note_off_c, 0, 64, 59
1, 180406, Note_on_c, 0, 83, 72
1, 180424, Note_on_c, 0, 82, 42
1, 180434, Note_off_c, 0, 83, 62
1, 180440, Note_off_c, 0, 71, 59
1, 180449, Note_off_c, 0, 82, 57
1, 180519, Note_on_c, 0, 82, 83
1, 180522, Note_on_c, 0, 65, 82
1, 180524, Note_on_c, 0, 70, 79
1, 180532, Note_on_c, 0, 62, 59
1, 180548, Note_off_c, 0, 70, 67
1, 180548, Note_off_c, 0, 65, 62
1, 180549, Note_off_c, 0, 82, 55
1, 180561, Note_on_c, 0, 80, 21
1, 180563, Note_off_c, 0, 62, 64
1, 180603, Note_off_c, 0, 80, 0
1, 180615, Note_on_c, 0, 65, 72
1, 180618, Note_on_c, 0, 68, 84
1, 180618, Note_on_c, 0, 80, 62
1, 180629, Note_on_c, 0, 62, 69
1, 180663, Note_off_c, 0, 68, 57
1, 180665, Note_off_c, 0, 65, 61
1, 180677, Note_off_c, 0, 80, 61
1, 180684, Note_off_c, 0, 62, 60
1, 180687, Control_c, 0, 64, 76
1, 180702, Control_c, 0, 64, 0
1, 180727, Note_on_c, 0, 63, 94
1, 180735, Note_on_c, 0, 67, 97
1, 180738, Note_on_c, 0, 79, 88
1, 180761, Control_c, 0, 64, 68
1, 180768, Note_on_c, 0, 77, 47
1, 180771, Note_off_c, 0, 63, 66
1, 180776, Control_c, 0, 64, 90
1, 180779, Note_off_c, 0, 67, 62
1, 180791, Control_c, 0, 64, 127
1, 180794, Note_off_c, 0, 79, 62
1, 180795, Note_off_c, 0, 77, 39
1, 180979, Note_on_c, 0, 34, 67
1, 180986, Note_on_c, 0, 46, 63
1, 180996, Note_on_c, 0, 44, 39
1, 181009, Note_off_c, 0, 46, 62
1, 181014, Note_off_c, 0, 34, 62
1, 181032, Note_off_c, 0, 44, 52
1, 181080, Note_on_c, 0, 46, 71
1, 181083, Note_on_c, 0, 34, 61
1, 181107, Note_off_c, 0, 46, 65
1, 181119, Note_off_c, 0, 34, 63
1, 181188, Note_on_c, 0, 50, 88
1, 181201, Note_on_c, 0, 38, 62
1, 181216, Note_off_c, 0, 50, 65
1, 181233, Note_off_c, 0, 38, 64
1, 181245, Poly_aftertouch_c, 0, 46, 127
1, 181274, Poly_aftertouch_c, 0, 46, 0
1, 181286, Note_on_c, 0, 50, 84
1, 181301, Note_on_c, 0, 38, 80
1, 181318, Control_c, 0, 64, 99
1, 181326, Note_off_c, 0, 50, 64
1, 181330, Note_off_c, 0, 38, 62
1, 181333, Control_c, 0, 64, 61
1, 181348, Control_c, 0, 64, 0
1, 181393, Control_c, 0, 64, 62
1, 181399, Note_on_c, 0, 51, 91
1, 181408, Control_c, 0, 64, 112
1, 181413, Note_on_c, 0, 39, 64
1, 181422, Control_c, 0, 64, 127
1, 181456, Note_off_c, 0, 51, 59
1, 181460, Note_off_c, 0, 39, 55
1, 181488, Poly_aftertouch_c, 0, 38, 127
1, 181503, Note_on_c, 0, 51, 68
1, 181515, Poly_aftertouch_c, 0, 38, 0
1, 181527, Poly_aftertouch_c, 0, 39, 127
1, 181547, Note_off_c, 0, 51, 59
1, 181565, Poly_aftertouch_c, 0, 39, 0
1, 181611, Note_on_c, 0, 63, 72
1, 181637, Note_off_c, 0, 63, 66
1, 181637, Note_on_c, 0, 51, 77
1, 181663, Note_off_c, 0, 51, 66
1, 181709, Note_on_c, 0, 39, 3
1, 181715, Note_on_c, 0, 63, 84
1, 181739, Note_on_c, 0, 51, 66
1, 181744, Note_off_c, 0, 39, 50
1, 181762, Note_off_c, 0, 63, 62
1, 181787, Note_off_c, 0, 51, 60
1, 181831, Note_on_c, 0, 63, 88
1, 181834, Note_on_c, 0, 75, 50
1, 181848, Note_on_c, 0, 51, 66
1, 181861, Note_off_c, 0, 63, 59
1, 181869, Note_off_c, 0, 75, 63
1, 181873, Note_off_c, 0, 51, 67
1, 181878, Note_on_c, 0, 74, 13
1, 181929, Note_on_c, 0, 63, 89
1, 181931, Note_off_c, 0, 74, 42
1, 181937, Note_on_c, 0, 75, 79
1, 181941, Note_on_c, 0, 51, 80
1, 181967, Note_off_c, 0, 75, 60
1, 181972, Note_off_c, 0, 63, 59
1, 181988, Note_off_c, 0, 51, 59
1, 182055, Note_on_c, 0, 75, 99
1, 182061, Note_on_c, 0, 87, 95
1, 182099, Note_off_c, 0, 87, 57
1, 182105, Note_off_c, 0, 75, 60
1, 182353, Note_on_c, 0, 75, 80
1, 182353, Note_on_c, 0, 99, 93
1, 182356, Note_on_c, 0, 87, 97
1, 182367, Note_on_c, 0, 67, 64
1, 182367, Note_on_c, 0, 100, 82
1, 182377, Note_on_c, 0, 101, 65
1, 182378, Note_on_c, 0, 90, 57
1, 182379, Note_off_c, 0, 90, 127
1, 182382, Note_off_c, 0, 100, 69
1, 182395, Note_off_c, 0, 87, 62
1, 182402, Note_off_c, 0, 99, 57
1, 182403, Note_off_c, 0, 67, 58
1, 182406, Note_off_c, 0, 101, 64
1, 182420, Note_off_c, 0, 75, 58
1, 182543, Note_on_c, 0, 75, 78
1, 182553, Note_on_c, 0, 87, 99
1, 182553, Note_on_c, 0, 99, 97
1, 182558, Note_on_c, 0, 67, 50
1, 182577, Note_on_c, 0, 97, 55
1, 182578, Note_off_c, 0, 97, 127
1, 182585, Note_off_c, 0, 67, 55
1, 182594, Note_off_c, 0, 87, 62
1, 182600, Note_off_c, 0, 75, 60
1, 182615, Note_off_c, 0, 99, 61
1, 182699, Note_on_c, 0, 77, 82
1, 182716, Note_on_c, 0, 68, 63
1, 182716, Note_on_c, 0, 87, 100
1, 182716, Note_on_c, 0, 99, 93
1, 182722, Note_on_c, 0, 97, 77
1, 182746, Note_off_c, 0, 97, 65
1, 182747, Note_off_c, 0, 68, 63
1, 182747, Note_off_c, 0, 77, 60
1, 182756, Note_off_c, 0, 87, 60
1, 182773, Note_off_c, 0, 99, 62
1, 182837, Note_on_c, 0, 77, 88
1, 182845, Note_on_c, 0, 68, 68
1, 182858, Note_on_c, 0, 87, 95
1, 182858, Note_on_c, 0, 99, 96
1, 182888, Note_off_c, 0, 77, 60
1, 182889, Note_on_c, 0, 97, 36
1, 182890, Note_off_c, 0, 97, 127
1, 182898, Note_off_c, 0, 68, 49
1, 182903, Note_off_c, 0, 87, 61
1, 182938, Note_off_c, 0, 99, 61
1, 183009, Note_on_c, 0, 78, 94
1, 183010, Note_on_c, 0, 88, 100
1, 183012, Note_on_c, 0, 100, 93
1, 183022, Note_on_c, 0, 69, 65
1, 183049, Note_off_c, 0, 69, 67
1, 183053, Note_on_c, 0, 94, 30
1, 183057, Note_off_c, 0, 78, 62
1, 183057, Note_off_c, 0, 88, 66
1, 183065, Note_off_c, 0, 100, 65
1, 183082, Note_off_c, 0, 94, 54
1, 183139, Note_on_c, 0, 78, 88
1, 183148, Note_on_c, 0, 99, 86
1, 183150, Note_on_c, 0, 87, 88
1, 183190, Note_on_c, 0, 94, 24
1, 183196, Note_off_c, 0, 87, 59
1, 183203, Note_off_c, 0, 78, 61
1, 183208, Note_off_c, 0, 99, 62
1, 183229, Note_off_c, 0, 94, 42
1, 183232, Poly_aftertouch_c, 0, 70, 127
1, 183269, Note_on_c, 0, 70, 40
1, 183271, Note_on_c, 0, 79, 91
1, 183280, Note_on_c, 0, 85, 77
1, 183283, Note_on_c, 0, 97, 78
1, 183301, Note_off_c, 0, 85, 68
1, 183317, Note_off_c, 0, 97, 55
1, 183320, Note_off_c, 0, 79, 61
1, 183351, Poly_aftertouch_c, 0, 73, 0
1, 183363, Note_off_c, 0, 70, 0
1, 183379, Note_on_c, 0, 83, 87
1, 183384, Note_on_c, 0, 95, 77
1, 183385, Note_on_c, 0, 70, 31
1, 183388, Poly_aftertouch_c, 0, 73, 0
1, 183405, Note_on_c, 0, 79, 60
1, 183420, Note_off_c, 0, 83, 63
1, 183435, Note_off_c, 0, 95, 61
1, 183440, Note_off_c, 0, 79, 55
1, 183509, Note_on_c, 0, 82, 91
1, 183509, Note_on_c, 0, 94, 85
1, 183531, Note_off_c, 0, 82, 63
1, 183533, Note_on_c, 0, 77, 62
1, 183536, Note_off_c, 0, 94, 57
1, 183563, Note_on_c, 0, 73, 45
1, 183579, Note_off_c, 0, 77, 57
1, 183581, Note_off_c, 0, 70, 22
1, 183600, Note_off_c, 0, 73, 63
1, 183617, Note_on_c, 0, 80, 74
1, 183620, Note_on_c, 0, 92, 58
1, 183641, Note_off_c, 0, 80, 65
1, 183663, Note_off_c, 0, 92, 60
1, 183733, Note_on_c, 0, 75, 86
1, 183736, Note_on_c, 0, 79, 89
1, 183741, Note_on_c, 0, 70, 61
1, 183741, Note_on_c, 0, 91, 76
1, 183752, Note_off_c, 0, 75, 66
1, 183763, Note_off_c, 0, 79, 65
1, 183766, Note_off_c, 0, 91, 63
1, 183770, Note_on_c, 0, 85, 33
1, 183775, Note_off_c, 0, 70, 64
1, 183800, Note_off_c, 0, 85, 53
1, 183831, Poly_aftertouch_c, 0, 90, 0
1, 183845, Note_on_c, 0, 90, 59
1, 183849, Note_on_c, 0, 75, 65
1, 183851, Note_on_c, 0, 78, 85
1, 183873, Note_off_c, 0, 75, 67
1, 183878, Note_off_c, 0, 78, 61
1, 183906, Note_off_c, 0, 90, 63
1, 183967, Note_on_c, 0, 77, 85
1, 183973, Note_on_c, 0, 89, 74
1, 183990, Note_off_c, 0, 77, 66
1, 183993, Note_on_c, 0, 72, 46
1, 183995, Note_on_c, 0, 71, 43
1, 183998, Note_on_c, 0, 68, 43
1, 183998, Note_off_c, 0, 89, 67
1, 184016, Note_off_c, 0, 72, 59
1, 184022, Note_off_c, 0, 71, 52
1, 184026, Note_off_c, 0, 68, 54
1, 184071, Note_on_c, 0, 76, 86
1, 184082, Note_on_c, 0, 88, 72
1, 184093, Note_on_c, 0, 68, 45
1, 184101, Note_off_c, 0, 76, 63
1, 184105, Note_on_c, 0, 71, 39
1, 184109, Note_off_c, 0, 88, 68
1, 184118, Note_off_c, 0, 68, 57
1, 184133, Note_off_c, 0, 71, 53
1, 184189, Note_on_c, 0, 74, 87
1, 184196, Note_on_c, 0, 69, 71
1, 184201, Note_on_c, 0, 66, 66
1, 184201, Note_on_c, 0, 86, 61
1, 184215, Note_off_c, 0, 74, 67
1, 184219, Note_off_c, 0, 86, 64
1, 184222, Note_off_c, 0, 69, 68
1, 184230, Note_off_c, 0, 66, 66
1, 184294, Note_on_c, 0, 75, 84
1, 184296, Note_on_c, 0, 87, 83
1, 184302, Note_on_c, 0, 69, 70
1, 184318, Note_off_c, 0, 75, 62
1, 184323, Note_off_c, 0, 69, 70
1, 184350, Note_off_c, 0, 87, 60
1, 184407, Note_on_c, 0, 76, 90
1, 184408, Note_on_c, 0, 67, 78
1, 184409, Note_on_c, 0, 88, 75
1, 184421, Note_on_c, 0, 70, 75
1, 184439, Note_on_c, 0, 87, 40
1, 184442, Note_off_c, 0, 76, 65
1, 184445, Note_off_c, 0, 70, 67
1, 184457, Note_off_c, 0, 88, 63
1, 184460, Note_off_c, 0, 67, 60
1, 184469, Note_off_c, 0, 87, 53
1, 184522, Poly_aftertouch_c, 0, 86, 0
1, 184526, Note_on_c, 0, 75, 83
1, 184532, Note_on_c, 0, 87, 79
1, 184543, Note_off_c, 0, 75, 73
1, 184557, Note_off_c, 0, 87, 63
1, 184619, Note_on_c, 0, 85, 60
1, 184631, Note_on_c, 0, 73, 80
1, 184651, Note_off_c, 0, 73, 69
1, 184677, Note_on_c, 0, 67, 43
1, 184678, Note_off_c, 0, 85, 64
1, 184710, Note_off_c, 0, 67, 57
1, 184741, Note_on_c, 0, 71, 88
1, 184749, Note_on_c, 0, 83, 75
1, 184762, Note_on_c, 0, 67, 70
1, 184774, Note_off_c, 0, 71, 60
1, 184775, Note_off_c, 0, 83, 63
1, 184779, Note_on_c, 0, 64, 29
1, 184786, Note_on_c, 0, 82, 23
1, 184797, Note_off_c, 0, 67, 56
1, 184814, Note_off_c, 0, 64, 55
1, 184830, Note_off_c, 0, 82, 52
1, 184851, Note_on_c, 0, 82, 70
1, 184852, Note_on_c, 0, 70, 85
1, 184875, Note_off_c, 0, 70, 67
1, 184899, Note_off_c, 0, 82, 60
1, 184949, Note_on_c, 0, 68, 85
1, 184949, Note_on_c, 0, 80, 71
1, 184978, Note_off_c, 0, 68, 62
1, 185000, Note_off_c, 0, 80, 62
1, 185055, Note_on_c, 0, 67, 93
1, 185061, Note_on_c, 0, 63, 92
1, 185062, Note_on_c, 0, 79, 76
1, 185073, Note_on_c, 0, 58, 65
1, 185082, Note_off_c, 0, 63, 67
1, 185083, Note_off_c, 0, 79, 70
1, 185084, Note_off_c, 0, 67, 63
1, 185103, Note_off_c, 0, 58, 65
1, 185144, Poly_aftertouch_c, 0, 78, 0
1, 185154, Note_on_c, 0, 78, 65
1, 185162, Note_on_c, 0, 66, 88
1, 185163, Note_on_c, 0, 63, 80
1, 185165, Note_on_c, 0, 58, 69
1, 185166, Poly_aftertouch_c, 0, 72, 0
1, 185185, Note_off_c, 0, 66, 65
1, 185193, Note_off_c, 0, 63, 50
1, 185194, Note_off_c, 0, 58, 60
1, 185220, Note_off_c, 0, 78, 61
1, 185261, Note_on_c, 0, 65, 98
1, 185262, Note_on_c, 0, 77, 85
1, 185267, Note_on_c, 0, 59, 84
1, 185294, Note_on_c, 0, 56, 52
1, 185295, Note_off_c, 0, 65, 63
1, 185305, Note_off_c, 0, 77, 62
1, 185353, Note_off_c, 0, 56, 0
1, 185356, Note_on_c, 0, 64, 93
1, 185357, Note_on_c, 0, 76, 76
1, 185364, Note_on_c, 0, 56, 59
1, 185387, Note_on_c, 0, 73, 44
1, 185393, Note_off_c, 0, 64, 66
1, 185397, Note_on_c, 0, 69, 29
1, 185399, Note_off_c, 0, 59, 62
1, 185406, Note_off_c, 0, 76, 63
1, 185414, Note_off_c, 0, 73, 61
1, 185420, Note_off_c, 0, 56, 59
1, 185427, Note_off_c, 0, 69, 53
1, 185475, Note_on_c, 0, 57, 91
1, 185475, Note_on_c, 0, 62, 90
1, 185480, Note_on_c, 0, 74, 82
1, 185488, Note_on_c, 0, 54, 74
1, 185513, Note_off_c, 0, 57, 59
1, 185515, Note_off_c, 0, 62, 64
1, 185518, Note_off_c, 0, 74, 59
1, 185524, Note_off_c, 0, 54, 56
1, 185539, Poly_aftertouch_c, 0, 58, 127
1, 185566, Note_on_c, 0, 57, 87
1, 185572, Note_on_c, 0, 63, 90
1, 185581, Poly_aftertouch_c, 0, 58, 0
1, 185587, Note_on_c, 0, 75, 74
1, 185590, Poly_aftertouch_c, 0, 54, 127
1, 185600, Note_on_c, 0, 73, 17
1, 185606, Poly_aftertouch_c, 0, 54, 0
1, 185614, Note_on_c, 0, 62, 46
1, 185615, Note_off_c, 0, 57, 64
1, 185617, Note_off_c, 0, 63, 62
1, 185632, Note_off_c, 0, 62, 64
1, 185633, Note_off_c, 0, 75, 60
1, 185647, Note_off_c, 0, 73, 53
1, 185673, Note_on_c, 0, 58, 87
1, 185686, Note_on_c, 0, 64, 86
1, 185690, Note_on_c, 0, 65, 91
1, 185692, Note_on_c, 0, 57, 67
1, 185694, Note_on_c, 0, 55, 65
1, 185699, Note_on_c, 0, 76, 67
1, 185700, Note_on_c, 0, 70, 61
1, 185700, Note_on_c, 0, 77, 72
1, 185704, Note_on_c, 0, 75, 57
1, 185709, Note_off_c, 0, 65, 65
1, 185711, Note_off_c, 0, 57, 64
1, 185719, Note_off_c, 0, 70, 64
1, 185724, Note_off_c, 0, 77, 68
1, 185727, Note_on_c, 0, 54, 27
1, 185730, Note_off_c, 0, 76, 62
1, 185733, Note_off_c, 0, 75, 65
1, 185736, Note_off_c, 0, 58, 65
1, 185739, Note_off_c, 0, 55, 59
1, 185739, Note_off_c, 0, 64, 65
1, 185752, Note_on_c, 0, 71, 7
1, 185760, Note_off_c, 0, 54, 51
1, 185776, Poly_aftertouch_c, 0, 56, 0
1, 185786, Note_on_c, 0, 63, 59
1, 185790, Note_on_c, 0, 64, 72
1, 185794, Note_off_c, 0, 71, 39
1, 185799, Note_on_c, 0, 58, 76
1, 185799, Note_on_c, 0, 55, 62
1, 185807, Note_on_c, 0, 56, 28
1, 185812, Note_on_c, 0, 65, 52
1, 185812, Note_on_c, 0, 75, 76
1, 185820, Note_off_c, 0, 63, 59
1, 185820, Note_off_c, 0, 58, 70
1, 185828, Note_off_c, 0, 75, 64
1, 185829, Note_off_c, 0, 65, 64
1, 185833, Note_off_c, 0, 64, 61
1, 185841, Note_off_c, 0, 55, 63
1, 185841, Note_off_c, 0, 56, 59
1, 185913, Note_on_c, 0, 61, 78
1, 185913, Note_on_c, 0, 73, 77
1, 185927, Note_on_c, 0, 57, 75
1, 185931, Note_on_c, 0, 55, 68
1, 185936, Note_off_c, 0, 61, 68
1, 185945, Note_on_c, 0, 52, 47
1, 185951, Note_on_c, 0, 53, 45
1, 185953, Note_off_c, 0, 57, 65
1, 185961, Note_off_c, 0, 55, 65
1, 185963, Note_off_c, 0, 73, 62
1, 185967, Note_off_c, 0, 52, 61
1, 185978, Note_off_c, 0, 53, 55
1, 186005, Note_on_c, 0, 59, 89
1, 186013, Note_on_c, 0, 71, 75
1, 186020, Note_on_c, 0, 55, 71
1, 186039, Note_off_c, 0, 71, 66
1, 186042, Note_off_c, 0, 59, 63
1, 186070, Note_off_c, 0, 55, 58
1, 186081, Poly_aftertouch_c, 0, 57, 127
1, 186101, Poly_aftertouch_c, 0, 70, 0
1, 186103, Poly_aftertouch_c, 0, 64, 127
1, 186110, Poly_aftertouch_c, 0, 52, 127
1, 186111, Poly_aftertouch_c, 0, 57, 0
1, 186115, Note_on_c, 0, 70, 55
1, 186121, Note_on_c, 0, 58, 87
1, 186133, Poly_aftertouch_c, 0, 64, 0
1, 186139, Note_on_c, 0, 68, 53
1, 186144, Note_off_c, 0, 58, 66
1, 186145, Poly_aftertouch_c, 0, 52, 0
1, 186169, Note_off_c, 0, 68, 51
1, 186170, Note_on_c, 0, 53, 61
1, 186171, Note_off_c, 0, 70, 60
1, 186177, Note_on_c, 0, 50, 56
1, 186222, Note_on_c, 0, 56, 85
1, 186230, Note_on_c, 0, 68, 81
1, 186235, Note_off_c, 0, 50, 62
1, 186236, Note_off_c, 0, 53, 63
1, 186270, Note_off_c, 0, 56, 58
1, 186288, Note_off_c, 0, 68, 60
1, 186332, Note_on_c, 0, 55, 89
1, 186337, Note_on_c, 0, 51, 91
1, 186341, Note_on_c, 0, 67, 70
1, 186342, Note_on_c, 0, 46, 79
1, 186359, Note_off_c, 0, 55, 66
1, 186362, Note_on_c, 0, 61, 40
1, 186363, Note_off_c, 0, 51, 64
1, 186367, Note_off_c, 0, 67, 62
1, 186374, Note_off_c, 0, 46, 64
1, 186388, Note_off_c, 0, 61, 58
1, 186431, Note_on_c, 0, 66, 70
1, 186434, Note_on_c, 0, 54, 89
1, 186436, Note_on_c, 0, 51, 80
1, 186456, Note_on_c, 0, 46, 39
1, 186471, Note_off_c, 0, 54, 59
1, 186475, Note_off_c, 0, 51, 58
1, 186483, Note_off_c, 0, 46, 55
1, 186487, Note_off_c, 0, 66, 60
1, 186541, Note_on_c, 0, 53, 91
1, 186547, Note_on_c, 0, 47, 71
1, 186551, Note_on_c, 0, 65, 75
1, 186565, Note_on_c, 0, 44, 60
1, 186572, Note_off_c, 0, 53, 62
1, 186577, Note_off_c, 0, 65, 61
1, 186582, Note_on_c, 0, 58, 26
1, 186604, Note_off_c, 0, 44, 59
1, 186613, Note_off_c, 0, 47, 58
1, 186622, Note_off_c, 0, 58, 46
1, 186641, Note_on_c, 0, 47, 50
1, 186641, Note_on_c, 0, 52, 93
1, 186644, Note_on_c, 0, 64, 68
1, 186668, Note_on_c, 0, 63, 39
1, 186674, Poly_aftertouch_c, 0, 44, 127
1, 186686, Note_off_c, 0, 52, 62
1, 186690, Note_off_c, 0, 64, 62
1, 186693, Note_off_c, 0, 47, 61
1, 186694, Poly_aftertouch_c, 0, 44, 0
1, 186699, Note_off_c, 0, 63, 51
1, 186735, Poly_aftertouch_c, 0, 56, 127
1, 186760, Note_on_c, 0, 50, 85
1, 186765, Poly_aftertouch_c, 0, 56, 0
1, 186770, Note_on_c, 0, 62, 65
1, 186771, Note_on_c, 0, 45, 82
1, 186781, Note_on_c, 0, 42, 68
1, 186791, Note_off_c, 0, 62, 62
1, 186808, Note_off_c, 0, 50, 60
1, 186824, Note_off_c, 0, 45, 59
1, 186866, Note_on_c, 0, 51, 89
1, 186875, Note_on_c, 0, 45, 65
1, 186875, Note_on_c, 0, 63, 78
1, 186920, Note_on_c, 0, 61, 25
1, 186921, Note_off_c, 0, 51, 60
1, 186937, Note_off_c, 0, 45, 62
1, 186938, Control_c, 0, 64, 96
1, 186945, Note_off_c, 0, 42, 0
1, 186951, Note_off_c, 0, 63, 60
1, 186953, Control_c, 0, 64, 65
1, 186959, Note_off_c, 0, 61, 54
1, 186964, Poly_aftertouch_c, 0, 42, 0
1, 186967, Control_c, 0, 64, 0
1, 186995, Note_on_c, 0, 46, 91
1, 186995, Note_on_c, 0, 52, 98
1, 186998, Note_on_c, 0, 43, 82
1, 187005, Note_on_c, 0, 64, 74
1, 187019, Note_on_c, 0, 56, 59
1, 187027, Control_c, 0, 64, 51
1, 187028, Note_on_c, 0, 62, 62
1, 187042, Control_c, 0, 64, 68
1, 187051, Note_off_c, 0, 62, 42
1, 187057, Control_c, 0, 64, 74
1, 187063, Note_off_c, 0, 64, 63
1, 187066, Note_off_c, 0, 56, 55
1, 187066, Note_off_c, 0, 52, 64
1, 187072, Control_c, 0, 64, 83
1, 187078, Note_off_c, 0, 46, 62
1, 187083, Note_off_c, 0, 43, 61
1, 187086, Control_c, 0, 64, 96
1, 187101, Control_c, 0, 64, 115
1, 187116, Control_c, 0, 64, 127
1, 187133, Note_on_c, 0, 43, 68
1, 187135, Note_on_c, 0, 46, 82
1, 187136, Note_on_c, 0, 52, 93
1, 187145, Note_on_c, 0, 63, 84
1, 187166, Note_on_c, 0, 61, 56
1, 187191, Note_off_c, 0, 61, 59
1, 187208, Note_off_c, 0, 52, 59
1, 187217, Note_off_c, 0, 46, 61
1, 187223, Note_off_c, 0, 43, 60
1, 187225, Poly_aftertouch_c, 0, 64, 127
1, 187257, Note_on_c, 0, 46, 72
1, 187259, Note_on_c, 0, 43, 63
1, 187262, Note_on_c, 0, 52, 89
1, 187265, Poly_aftertouch_c, 0, 64, 0
1, 187270, Note_on_c, 0, 61, 84
1, 187297, Note_off_c, 0, 63, 61
1, 187339, Note_off_c, 0, 52, 61
1, 187340, Note_off_c, 0, 46, 62
1, 187341, Note_off_c, 0, 43, 62
1, 187348, Note_off_c, 0, 61, 62
1, 187395, Note_on_c, 0, 46, 78
1, 187396, Note_on_c, 0, 52, 88
1, 187401, Note_on_c, 0, 43, 76
1, 187405, Note_on_c, 0, 59, 81
1, 187435, Note_on_c, 0, 58, 46
1, 187473, Note_off_c, 0, 58, 48
1, 187477, Note_off_c, 0, 43, 61
1, 187477, Note_off_c, 0, 46, 61
1, 187490, Note_off_c, 0, 52, 61
1, 187539, Note_off_c, 0, 59, 0
1, 187543, Note_on_c, 0, 53, 68
1, 187546, Note_on_c, 0, 47, 99
1, 187554, Note_on_c, 0, 38, 89
1, 187556, Note_on_c, 0, 59, 38
1, 187560, Note_on_c, 0, 58, 81
1, 187604, Note_off_c, 0, 59, 60
1, 187649, Note_off_c, 0, 47, 62
1, 187653, Note_off_c, 0, 38, 61
1, 187671, Note_off_c, 0, 53, 61
1, 187730, Note_on_c, 0, 53, 87
1, 187732, Note_on_c, 0, 47, 100
1, 187737, Note_on_c, 0, 56, 86
1, 187739, Note_on_c, 0, 38, 87
1, 187741, Note_off_c, 0, 58, 0
1, 187760, Note_on_c, 0, 58, 26
1, 187785, Note_off_c, 0, 58, 59
1, 187816, Note_off_c, 0, 47, 62
1, 187820, Note_off_c, 0, 38, 60
1, 187826, Note_off_c, 0, 53, 60
1, 187899, Note_off_c, 0, 56, 48
1, 187938, Control_c, 0, 64, 108
1, 187953, Control_c, 0, 64, 61
1, 187954, Note_on_c, 0, 55, 100
1, 187959, Note_on_c, 0, 46, 102
1, 187968, Control_c, 0, 64, 0
1, 187969, Note_on_c, 0, 39, 87
1, 188027, Control_c, 0, 64, 56
1, 188042, Control_c, 0, 64, 90
1, 188056, Control_c, 0, 64, 127
1, 188094, Poly_aftertouch_c, 0, 37, 0
1, 188103, Note_off_c, 0, 55, 48
1, 188133, Note_off_c, 0, 46, 59
1, 188145, Note_off_c, 0, 39, 54
1, 188352, Note_on_c, 0, 50, 91
1, 188364, Note_on_c, 0, 62, 72
1, 188412, Note_off_c, 0, 62, 58
1, 188415, Note_off_c, 0, 50, 60
1, 188477, Note_on_c, 0, 50, 82
1, 188481, Poly_aftertouch_c, 0, 60, 0
1, 188522, Note_off_c, 0, 50, 59
1, 188576, Note_on_c, 0, 51, 82
1, 188577, Note_on_c, 0, 63, 82
1, 188604, Note_off_c, 0, 51, 62
1, 188615, Note_off_c, 0, 63, 49
1, 188648, Note_on_c, 0, 51, 85
1, 188676, Note_off_c, 0, 51, 64
1, 188705, Note_on_c, 0, 57, 90
1, 188729, Note_off_c, 0, 57, 68
1, 188729, Note_on_c, 0, 69, 52
1, 188751, Note_off_c, 0, 69, 59
1, 188792, Note_on_c, 0, 57, 90
1, 188839, Note_on_c, 0, 58, 86
1, 188839, Note_off_c, 0, 57, 57
1, 188840, Note_on_c, 0, 70, 86
1, 188863, Note_off_c, 0, 58, 68
1, 188880, Note_off_c, 0, 70, 52
1, 188916, Note_on_c, 0, 58, 81
1, 188937, Note_off_c, 0, 58, 69
1, 188966, Note_on_c, 0, 62, 91
1, 188979, Note_on_c, 0, 74, 72
1, 188991, Note_on_c, 0, 73, 48
1, 188993, Note_off_c, 0, 62, 63
1, 189002, Note_off_c, 0, 74, 69
1, 189015, Note_off_c, 0, 73, 59
1, 189033, Note_on_c, 0, 62, 84
1, 189051, Note_on_c, 0, 50, 65
1, 189065, Note_off_c, 0, 62, 61
1, 189065, Poly_aftertouch_c, 0, 58, 0
1, 189074, Note_off_c, 0, 50, 62
1, 189102, Note_on_c, 0, 63, 92
1, 189104, Note_on_c, 0, 75, 84
1, 189108, Poly_aftertouch_c, 0, 58, 0
1, 189115, Note_on_c, 0, 73, 44
1, 189122, Note_off_c, 0, 63, 69
1, 189138, Note_off_c, 0, 73, 63
1, 189140, Note_off_c, 0, 75, 49
1, 189173, Note_on_c, 0, 51, 73
1, 189186, Note_on_c, 0, 61, 64
1, 189190, Note_on_c, 0, 63, 65
1, 189191, Note_off_c, 0, 63, 127
1, 189206, Note_off_c, 0, 61, 65
1, 189212, Note_off_c, 0, 51, 64
1, 189236, Note_on_c, 0, 69, 96
1, 189243, Note_on_c, 0, 81, 80
1, 189253, Note_on_c, 0, 80, 64
1, 189263, Note_off_c, 0, 69, 63
1, 189265, Note_off_c, 0, 81, 68
1, 189270, Note_off_c, 0, 80, 65
1, 189290, Note_on_c, 0, 63, 18
1, 189303, Note_on_c, 0, 69, 85
1, 189325, Note_off_c, 0, 69, 67
1, 189328, Note_on_c, 0, 58, 49
1, 189331, Note_on_c, 0, 57, 41
1, 189334, Note_off_c, 0, 63, 49
1, 189348, Note_off_c, 0, 58, 65
1, 189358, Note_off_c, 0, 57, 57
1, 189367, Note_on_c, 0, 82, 88
1, 189383, Note_on_c, 0, 71, 65
1, 189401, Note_off_c, 0, 71, 65
1, 189404, Note_off_c, 0, 82, 52
1, 189419, Note_on_c, 0, 70, 52
1, 189430, Note_on_c, 0, 58, 74
1, 189447, Note_on_c, 0, 63, 53
1, 189448, Note_off_c, 0, 63, 127
1, 189463, Note_off_c, 0, 58, 62
1, 189465, Note_off_c, 0, 70, 61
1, 189471, Poly_aftertouch_c, 0, 69, 0
1, 189493, Note_on_c, 0, 74, 96
1, 189501, Note_on_c, 0, 86, 86
1, 189513, Note_on_c, 0, 80, 59
1, 189521, Note_off_c, 0, 86, 69
1, 189525, Note_on_c, 0, 85, 36
1, 189525, Note_off_c, 0, 74, 64
1, 189532, Note_off_c, 0, 80, 63
1, 189552, Note_off_c, 0, 85, 55
1, 189558, Note_on_c, 0, 74, 87
1, 189568, Note_on_c, 0, 63, 66
1, 189583, Note_off_c, 0, 74, 64
1, 189588, Note_on_c, 0, 62, 44
1, 189596, Note_off_c, 0, 63, 65
1, 189614, Note_off_c, 0, 62, 57
1, 189625, Note_on_c, 0, 87, 94
1, 189627, Note_on_c, 0, 75, 93
1, 189646, Note_off_c, 0, 75, 68
1, 189675, Note_off_c, 0, 87, 59
1, 189692, Note_on_c, 0, 75, 92
1, 189692, Note_on_c, 0, 63, 74
1, 189712, Note_off_c, 0, 75, 64
1, 189727, Note_off_c, 0, 63, 60
1, 189759, Note_on_c, 0, 81, 94
1, 189766, Note_on_c, 0, 93, 79
1, 189776, Note_on_c, 0, 92, 60
1, 189785, Note_off_c, 0, 93, 69
1, 189787, Note_off_c, 0, 81, 65
1, 189793, Note_off_c, 0, 92, 66
1, 189823, Note_on_c, 0, 81, 89
1, 189841, Note_on_c, 0, 70, 63
1, 189850, Note_on_c, 0, 69, 52
1, 189851, Note_off_c, 0, 81, 67
1, 189873, Note_off_c, 0, 70, 63
1, 189874, Note_off_c, 0, 69, 57
1, 189892, Note_on_c, 0, 94, 95
1, 189894, Note_on_c, 0, 82, 94
1, 189914, Note_off_c, 0, 82, 66
1, 189952, Note_off_c, 0, 94, 60
1, 189967, Note_on_c, 0, 82, 89
1, 189971, Note_on_c, 0, 70, 68
1, 189984, Note_off_c, 0, 82, 72
1, 189995, Note_off_c, 0, 70, 67
1, 189998, Note_on_c, 0, 73, 29
1, 190027, Note_on_c, 0, 86, 98
1, 190029, Note_off_c, 0, 73, 53
1, 190035, Note_on_c, 0, 98, 79
1, 190047, Note_on_c, 0, 97, 63
1, 190056, Note_off_c, 0, 86, 67
1, 190056, Note_off_c, 0, 98, 64
1, 190065, Note_off_c, 0, 97, 64
1, 190089, Note_on_c, 0, 86, 83
1, 190103, Note_on_c, 0, 75, 63
1, 190106, Note_on_c, 0, 84, 61
1, 190111, Note_off_c, 0, 86, 70
1, 190121, Note_off_c, 0, 75, 65
1, 190124, Note_off_c, 0, 84, 41
1, 190162, Note_on_c, 0, 99, 97
1, 190165, Note_on_c, 0, 87, 97
1, 190196, Note_off_c, 0, 87, 61
1, 190223, Note_on_c, 0, 87, 85
1, 190226, Note_on_c, 0, 75, 69
1, 190228, Note_off_c, 0, 99, 63
1, 190270, Note_off_c, 0, 87, 60
1, 190283, Note_off_c, 0, 75, 58
1, 190291, Note_on_c, 0, 98, 88
1, 190292, Note_on_c, 0, 86, 90
1, 190325, Note_off_c, 0, 86, 63
1, 190338, Note_off_c, 0, 98, 60
1, 190357, Note_on_c, 0, 86, 78
1, 190359, Note_on_c, 0, 88, 16
1, 190389, Note_on_c, 0, 74, 41
1, 190398, Note_off_c, 0, 86, 62
1, 190400, Note_off_c, 0, 88, 58
1, 190416, Note_off_c, 0, 74, 55
1, 190440, Note_on_c, 0, 87, 98
1, 190440, Note_on_c, 0, 99, 96
1, 190452, Poly_aftertouch_c, 0, 75, 127
1, 190464, Poly_aftertouch_c, 0, 82, 0
1, 190481, Poly_aftertouch_c, 0, 75, 0
1, 190482, Note_off_c, 0, 87, 63
1, 190515, Note_on_c, 0, 87, 87
1, 190519, Note_off_c, 0, 99, 62
1, 190523, Note_on_c, 0, 75, 73
1, 190576, Note_off_c, 0, 87, 61
1, 190587, Note_on_c, 0, 86, 92
1, 190588, Note_on_c, 0, 98, 86
1, 190592, Note_off_c, 0, 75, 57
1, 190630, Note_off_c, 0, 86, 65
1, 190639, Note_off_c, 0, 98, 61
1, 190659, Note_on_c, 0, 86, 83
1, 190684, Note_on_c, 0, 74, 68
1, 190720, Note_off_c, 0, 86, 64
1, 190731, Note_off_c, 0, 74, 58
1, 190756, Note_on_c, 0, 87, 81
1, 190757, Note_on_c, 0, 99, 82
1, 190814, Note_off_c, 0, 87, 59
1, 190836, Note_off_c, 0, 99, 60
1, 190877, Note_on_c, 0, 85, 79
1, 190879, Note_on_c, 0, 73, 72
1, 190907, Note_off_c, 0, 85, 59
1, 190909, Note_off_c, 0, 73, 62
1, 190962, Note_on_c, 0, 99, 72
1, 190962, Note_on_c, 0, 87, 72
1, 190997, Note_off_c, 0, 87, 56
1, 191024, Note_off_c, 0, 99, 58
1, 191053, Note_on_c, 0, 82, 77
1, 191054, Note_on_c, 0, 70, 77
1, 191082, Note_on_c, 0, 80, 39
1, 191084, Note_off_c, 0, 82, 61
1, 191086, Note_off_c, 0, 70, 58
1, 191108, Note_off_c, 0, 80, 58
1, 191117, Note_on_c, 0, 87, 71
1, 191123, Note_on_c, 0, 99, 78
1, 191153, Note_off_c, 0, 87, 54
1, 191164, Note_off_c, 0, 99, 52
1, 191188, Note_on_c, 0, 79, 91
1, 191203, Note_on_c, 0, 67, 70
1, 191224, Note_off_c, 0, 79, 65
1, 191229, Note_off_c, 0, 67, 66
1, 191251, Note_on_c, 0, 87, 82
1, 191255, Note_on_c, 0, 99, 82
1, 191301, Note_off_c, 0, 87, 60
1, 191305, Note_off_c, 0, 99, 61
1, 191319, Note_on_c, 0, 75, 94
1, 191337, Note_on_c, 0, 63, 73
1, 191366, Note_off_c, 0, 63, 64
1, 191367, Note_off_c, 0, 75, 62
1, 191384, Note_on_c, 0, 87, 80
1, 191388, Note_on_c, 0, 99, 80
1, 191429, Note_off_c, 0, 87, 57
1, 191443, Note_off_c, 0, 99, 57
1, 191459, Note_on_c, 0, 73, 95
1, 191465, Note_on_c, 0, 61, 88
1, 191508, Note_off_c, 0, 73, 63
1, 191512, Note_off_c, 0, 61, 61
1, 191514, Note_on_c, 0, 87, 85
1, 191522, Note_on_c, 0, 99, 83
1, 191564, Note_off_c, 0, 87, 61
1, 191574, Note_off_c, 0, 99, 62
1, 191588, Note_on_c, 0, 70, 97
1, 191597, Note_on_c, 0, 58, 79
1, 191646, Note_on_c, 0, 87, 81
1, 191646, Note_off_c, 0, 70, 60
1, 191647, Note_on_c, 0, 99, 83
1, 191653, Note_off_c, 0, 58, 60
1, 191697, Note_off_c, 0, 87, 62
1, 191707, Note_on_c, 0, 67, 101
1, 191713, Note_off_c, 0, 99, 62
1, 191723, Note_on_c, 0, 55, 75
1, 191750, Note_off_c, 0, 55, 67
1, 191752, Note_off_c, 0, 67, 63
1, 191768, Note_on_c, 0, 87, 82
1, 191769, Note_on_c, 0, 99, 84
1, 191812, Note_off_c, 0, 87, 63
1, 191823, Note_on_c, 0, 100, 16
1, 191823, Note_off_c, 0, 99, 62
1, 191829, Note_on_c, 0, 63, 99
1, 191853, Note_on_c, 0, 51, 67
1, 191862, Note_off_c, 0, 100, 30
1, 191864, Note_on_c, 0, 54, 44
1, 191885, Note_off_c, 0, 51, 62
1, 191886, Note_off_c, 0, 63, 61
1, 191893, Note_off_c, 0, 54, 57
1, 191906, Note_on_c, 0, 99, 94
1, 191908, Note_on_c, 0, 87, 88
1, 191957, Note_off_c, 0, 87, 60
1, 191960, Note_on_c, 0, 61, 106
1, 191967, Note_on_c, 0, 49, 88
1, 191967, Note_off_c, 0, 99, 62
1, 191984, Note_on_c, 0, 51, 53
1, 192001, Note_off_c, 0, 51, 65
1, 192009, Note_off_c, 0, 61, 65
1, 192015, Note_off_c, 0, 49, 62
1, 192031, Note_on_c, 0, 87, 94
1, 192031, Note_on_c, 0, 99, 93
1, 192079, Note_off_c, 0, 87, 62
1, 192088, Note_on_c, 0, 58, 95
1, 192092, Note_off_c, 0, 99, 63
1, 192094, Note_on_c, 0, 46, 91
1, 192144, Note_off_c, 0, 58, 62
1, 192149, Note_off_c, 0, 46, 61
1, 192154, Note_on_c, 0, 87, 97
1, 192154, Note_on_c, 0, 99, 96
1, 192220, Note_off_c, 0, 87, 61
1, 192224, Note_on_c, 0, 55, 99
1, 192230, Note_off_c, 0, 99, 63
1, 192239, Note_on_c, 0, 43, 78
1, 192249, Note_on_c, 0, 44, 54
1, 192283, Note_off_c, 0, 44, 62
1, 192291, Note_off_c, 0, 55, 61
1, 192299, Note_off_c, 0, 43, 62
1, 192301, Note_on_c, 0, 99, 100
1, 192301, Note_on_c, 0, 87, 102
1, 192345, Poly_aftertouch_c, 0, 46, 0
1, 192348, Note_on_c, 0, 97, 26
1, 192390, Note_off_c, 0, 97, 43
1, 192406, Note_off_c, 0, 87, 56
1, 192418, Note_off_c, 0, 99, 58
1, 192446, Control_c, 0, 64, 61
1, 192448, Note_on_c, 0, 51, 54
1, 192458, Note_on_c, 0, 39, 92
1, 192461, Control_c, 0, 64, 0
1, 192490, Note_on_c, 0, 99, 56
1, 192495, Note_on_c, 0, 46, 32
1, 192503, Note_on_c, 0, 40, 35
1, 192506, Control_c, 0, 64, 82
1, 192521, Control_c, 0, 64, 127
1, 192536, Note_off_c, 0, 46, 60
1, 192550, Note_off_c, 0, 99, 58
1, 192589, Note_on_c, 0, 87, 108
1, 192591, Note_on_c, 0, 99, 81
1, 192599, Note_on_c, 0, 97, 94
1, 192632, Note_off_c, 0, 40, 0
1, 192632, Note_on_c, 0, 40, 3
1, 192656, Note_off_c, 0, 97, 57
1, 192703, Note_off_c, 0, 40, 49
1, 192722, Poly_aftertouch_c, 0, 46, 0
1, 192729, Note_off_c, 0, 39, 59
1, 192764, Note_off_c, 0, 87, 51
1, 192776, Note_off_c, 0, 51, 58
1, 192941, Note_off_c, 0, 99, 36
1, 192992, Note_on_c, 0, 99, 67
1, 192999, Note_on_c, 0, 87, 73
1, 193066, Note_off_c, 0, 87, 56
1, 193104, Note_off_c, 0, 99, 58
1, 193225, Note_on_c, 0, 99, 78
1, 193231, Note_on_c, 0, 87, 68
1, 193263, Note_off_c, 0, 87, 59
1, 193290, Note_off_c, 0, 99, 59
1, 193379, Note_on_c, 0, 87, 75
1, 193385, Note_on_c, 0, 99, 86
1, 193431, Note_off_c, 0, 87, 61
1, 193451, Note_off_c, 0, 99, 51
1, 193503, Note_on_c, 0, 87, 77
1, 193504, Note_on_c, 0, 99, 78
1, 193571, Note_off_c, 0, 87, 61
1, 193596, Note_off_c, 0, 99, 61
1, 193627, Note_on_c, 0, 63, 84
1, 193649, Note_on_c, 0, 99, 92
1, 193650, Note_on_c, 0, 87, 97
1, 193730, Note_off_c, 0, 87, 61
1, 193752, Note_off_c, 0, 99, 61
1, 193799, Note_on_c, 0, 87, 97
1, 193804, Note_on_c, 0, 99, 90
1, 193817, Note_on_c, 0, 97, 71
1, 193832, Note_off_c, 0, 97, 67
1, 193904, Note_off_c, 0, 87, 59
1, 193934, Note_off_c, 0, 99, 58
1, 193945, Poly_aftertouch_c, 0, 64, 127
1, 193993, Note_on_c, 0, 75, 99
1, 193998, Note_on_c, 0, 87, 101
1, 194002, Note_on_c, 0, 99, 103
1, 194045, Note_on_c, 0, 97, 26
1, 194046, Note_off_c, 0, 97, 127
1, 194081, Note_off_c, 0, 87, 61
1, 194094, Note_off_c, 0, 99, 62
1, 194205, Note_on_c, 0, 87, 91
1, 194207, Note_on_c, 0, 99, 94
1, 194253, Note_on_c, 0, 97, 21
1, 194254, Note_off_c, 0, 97, 127
1, 194255, Note_off_c, 0, 87, 60
1, 194278, Note_off_c, 0, 99, 61
1, 194374, Note_on_c, 0, 87, 91
1, 194376, Note_on_c, 0, 99, 97
1, 194396, Note_on_c, 0, 97, 50
1, 194428, Note_off_c, 0, 97, 60
1, 194434, Note_off_c, 0, 87, 61
1, 194447, Note_off_c, 0, 99, 62
1, 194519, Note_on_c, 0, 87, 92
1, 194519, Note_on_c, 0, 99, 94
1, 194527, Note_off_c, 0, 75, 63
1, 194533, Poly_aftertouch_c, 0, 64, 0
1, 194565, Note_off_c, 0, 87, 61
1, 194578, Note_off_c, 0, 99, 63
1, 194584, Note_off_c, 0, 63, 60
1, 194660, Note_on_c, 0, 97, 93
1, 194664, Note_on_c, 0, 85, 85
1, 194685, Note_off_c, 0, 85, 68
1, 194695, Note_off_c, 0, 97, 51
1, 194759, Note_on_c, 0, 85, 85
1, 194768, Note_on_c, 0, 97, 75
1, 194813, Note_off_c, 0, 85, 63
1, 194821, Note_off_c, 0, 97, 59
1, 194855, Control_c, 0, 64, 70
1, 194870, Control_c, 0, 64, 0
1, 194883, Note_on_c, 0, 44, 97
1, 194888, Note_on_c, 0, 32, 80
1, 194899, Note_on_c, 0, 83, 98
1, 194901, Note_on_c, 0, 95, 92
1, 194914, Control_c, 0, 64, 75
1, 194925, Note_on_c, 0, 93, 53
1, 194926, Note_off_c, 0, 93, 127
1, 194929, Control_c, 0, 64, 127
1, 194931, Note_off_c, 0, 32, 60
1, 194938, Note_off_c, 0, 83, 63
1, 194940, Note_off_c, 0, 95, 64
1, 194942, Note_off_c, 0, 44, 63
1, 195011, Note_on_c, 0, 83, 81
1, 195025, Note_on_c, 0, 84, 72
1, 195039, Note_off_c, 0, 84, 44
1, 195040, Note_off_c, 0, 83, 61
1, 195050, Note_on_c, 0, 94, 20
1, 195050, Note_on_c, 0, 95, 29
1, 195081, Note_off_c, 0, 95, 52
1, 195084, Note_off_c, 0, 94, 51
1, 195135, Note_on_c, 0, 63, 87
1, 195139, Note_on_c, 0, 51, 79
1, 195140, Note_on_c, 0, 83, 82
1, 195145, Note_on_c, 0, 95, 83
1, 195171, Note_on_c, 0, 59, 43
1, 195174, Note_off_c, 0, 83, 63
1, 195175, Note_off_c, 0, 95, 65
1, 195224, Poly_aftertouch_c, 0, 92, 127
1, 195234, Poly_aftertouch_c, 0, 92, 0
1, 195236, Note_on_c, 0, 83, 89
1, 195243, Note_on_c, 0, 95, 71
1, 195253, Poly_aftertouch_c, 0, 92, 0
1, 195266, Note_on_c, 0, 93, 61
1, 195269, Note_on_c, 0, 87, 53
1, 195269, Note_off_c, 0, 63, 58
1, 195283, Note_off_c, 0, 93, 63
1, 195287, Note_off_c, 0, 95, 62
1, 195289, Note_off_c, 0, 87, 61
1, 195290, Note_off_c, 0, 83, 64
1, 195290, Poly_aftertouch_c, 0, 92, 127
1, 195329, Poly_aftertouch_c, 0, 92, 0
1, 195334, Note_off_c, 0, 51, 0
1, 195347, Note_on_c, 0, 51, 50
1, 195353, Note_on_c, 0, 63, 79
1, 195367, Note_on_c, 0, 82, 95
1, 195370, Note_on_c, 0, 94, 89
1, 195370, Note_off_c, 0, 63, 72
1, 195373, Note_on_c, 0, 56, 58
1, 195379, Note_off_c, 0, 59, 61
1, 195400, Note_off_c, 0, 56, 63
1, 195411, Note_off_c, 0, 51, 61
1, 195411, Note_off_c, 0, 94, 59
1, 195414, Note_off_c, 0, 82, 61
1, 195466, Note_on_c, 0, 82, 77
1, 195474, Note_on_c, 0, 94, 82
1, 195516, Control_c, 0, 64, 109
1, 195517, Note_off_c, 0, 82, 62
1, 195527, Note_off_c, 0, 94, 62
1, 195530, Control_c, 0, 64, 62
1, 195545, Control_c, 0, 64, 0
1, 195579, Note_on_c, 0, 35, 87
1, 195579, Note_on_c, 0, 47, 84
1, 195582, Note_on_c, 0, 48, 82
1, 195589, Control_c, 0, 64, 69
1, 195596, Note_on_c, 0, 80, 96
1, 195597, Note_on_c, 0, 92, 99
1, 195604, Control_c, 0, 64, 127
1, 195609, Note_off_c, 0, 35, 67
1, 195620, Note_off_c, 0, 48, 55
1, 195626, Note_off_c, 0, 47, 60
1, 195634, Note_off_c, 0, 80, 62
1, 195640, Note_off_c, 0, 92, 64
1, 195645, Note_on_c, 0, 90, 41
1, 195646, Note_off_c, 0, 90, 127
1, 195651, Note_on_c, 0, 90, 34
1, 195652, Note_off_c, 0, 90, 127
1, 195653, Poly_aftertouch_c, 0, 37, 127
1, 195694, Note_on_c, 0, 80, 75
1, 195698, Note_on_c, 0, 92, 72
1, 195698, Poly_aftertouch_c, 0, 37, 0
1, 195741, Note_off_c, 0, 80, 61
1, 195757, Note_off_c, 0, 92, 62
1, 195801, Note_on_c, 0, 63, 91
1, 195805, Note_on_c, 0, 51, 80
1, 195818, Note_on_c, 0, 59, 58
1, 195820, Note_on_c, 0, 79, 83
1, 195828, Note_on_c, 0, 91, 77
1, 195841, Note_off_c, 0, 79, 70
1, 195850, Note_off_c, 0, 91, 70
1, 195854, Note_off_c, 0, 63, 62
1, 195859, Note_off_c, 0, 59, 58
1, 195910, Note_on_c, 0, 79, 95
1, 195934, Note_on_c, 0, 91, 75
1, 195951, Note_off_c, 0, 79, 67
1, 195955, Note_off_c, 0, 91, 70
1, 195986, Note_on_c, 0, 59, 27
1, 195990, Poly_aftertouch_c, 0, 85, 127
1, 195992, Note_off_c, 0, 51, 0
1, 196006, Note_on_c, 0, 63, 72
1, 196012, Note_on_c, 0, 51, 42
1, 196021, Poly_aftertouch_c, 0, 85, 0
1, 196023, Note_on_c, 0, 80, 96
1, 196028, Note_off_c, 0, 63, 68
1, 196031, Note_off_c, 0, 59, 60
1, 196032, Note_on_c, 0, 92, 85
1, 196038, Note_on_c, 0, 56, 61
1, 196056, Note_off_c, 0, 51, 60
1, 196059, Note_off_c, 0, 56, 61
1, 196059, Note_off_c, 0, 92, 60
1, 196067, Note_off_c, 0, 80, 61
1, 196127, Note_on_c, 0, 80, 78
1, 196133, Note_on_c, 0, 92, 85
1, 196174, Note_off_c, 0, 80, 61
1, 196174, Control_c, 0, 64, 83
1, 196180, Note_off_c, 0, 92, 61
1, 196189, Control_c, 0, 64, 0
1, 196222, Note_on_c, 0, 51, 85
1, 196230, Note_on_c, 0, 39, 87
1, 196235, Control_c, 0, 64, 59
1, 196243, Note_on_c, 0, 82, 93
1, 196245, Note_on_c, 0, 94, 89
1, 196250, Control_c, 0, 64, 127
1, 196265, Note_off_c, 0, 39, 63
1, 196283, Note_off_c, 0, 51, 61
1, 196294, Note_off_c, 0, 94, 61
1, 196295, Note_off_c, 0, 82, 63
1, 196303, Note_on_c, 0, 90, 18
1, 196312, Note_on_c, 0, 92, 30
1, 196313, Note_off_c, 0, 92, 127
1, 196338, Note_on_c, 0, 82, 79
1, 196346, Note_on_c, 0, 94, 63
1, 196358, Note_off_c, 0, 90, 37
1, 196372, Note_off_c, 0, 94, 65
1, 196372, Note_on_c, 0, 81, 48
1, 196384, Note_off_c, 0, 82, 60
1, 196396, Note_off_c, 0, 81, 61
1, 196426, Poly_aftertouch_c, 0, 92, 0
1, 196462, Note_on_c, 0, 69, 72
1, 196464, Note_on_c, 0, 67, 67
1, 196479, Note_on_c, 0, 61, 48
1, 196479, Note_on_c, 0, 57, 48
1, 196480, Note_on_c, 0, 55, 45
1, 196482, Note_on_c, 0, 75, 87
1, 196486, Note_off_c, 0, 69, 68
1, 196487, Note_on_c, 0, 87, 74
1, 196495, Note_off_c, 0, 67, 63
1, 196499, Note_off_c, 0, 75, 72
1, 196505, Note_off_c, 0, 57, 57
1, 196505, Note_off_c, 0, 61, 60
1, 196506, Note_off_c, 0, 55, 56
1, 196509, Note_off_c, 0, 87, 68
1, 196515, Note_on_c, 0, 85, 27
1, 196548, Note_off_c, 0, 85, 51
1, 196557, Note_on_c, 0, 67, 72
1, 196565, Note_on_c, 0, 75, 86
1, 196578, Note_on_c, 0, 87, 78
1, 196580, Note_off_c, 0, 67, 63
1, 196591, Note_on_c, 0, 63, 39
1, 196591, Poly_aftertouch_c, 0, 82, 0
1, 196605, Note_off_c, 0, 75, 62
1, 196611, Note_off_c, 0, 87, 58
1, 196618, Note_off_c, 0, 63, 54
1, 196674, Note_on_c, 0, 67, 61
1, 196679, Note_on_c, 0, 69, 58
1, 196685, Note_on_c, 0, 58, 70
1, 196689, Note_on_c, 0, 63, 62
1, 196698, Note_on_c, 0, 75, 87
1, 196700, Note_off_c, 0, 69, 62
1, 196701, Note_on_c, 0, 87, 83
1, 196702, Note_off_c, 0, 67, 66
1, 196718, Note_off_c, 0, 63, 64
1, 196719, Note_off_c, 0, 75, 63
1, 196721, Note_off_c, 0, 58, 64
1, 196723, Note_off_c, 0, 87, 63
1, 196792, Note_on_c, 0, 75, 81
1, 196794, Note_on_c, 0, 87, 80
1, 196831, Note_off_c, 0, 75, 57
1, 196834, Control_c, 0, 64, 78
1, 196845, Note_off_c, 0, 87, 61
1, 196849, Control_c, 0, 64, 0
1, 196891, Note_on_c, 0, 55, 95
1, 196894, Control_c, 0, 64, 38
1, 196900, Note_on_c, 0, 43, 91
1, 196908, Note_on_c, 0, 76, 98
1, 196909, Control_c, 0, 64, 116
1, 196912, Note_on_c, 0, 51, 62
1, 196922, Note_on_c, 0, 88, 63
1, 196922, Note_off_c, 0, 55, 66
1, 196923, Control_c, 0, 64, 127
1, 196923, Note_off_c, 0, 43, 64
1, 196934, Note_on_c, 0, 86, 64
1, 196934, Note_off_c, 0, 51, 60
1, 196941, Note_on_c, 0, 80, 34
1, 196948, Note_on_c, 0, 85, 39
1, 196949, Note_off_c, 0, 85, 127
1, 196949, Note_off_c, 0, 88, 67
1, 196949, Note_off_c, 0, 76, 65
1, 196950, Note_off_c, 0, 86, 65
1, 196963, Note_off_c, 0, 80, 58
1, 196967, Note_on_c, 0, 47, 2
1, 196987, Poly_aftertouch_c, 0, 85, 0
1, 197007, Note_off_c, 0, 47, 42
1, 197010, Poly_aftertouch_c, 0, 45, 0
1, 197018, Note_on_c, 0, 76, 90
1, 197034, Note_on_c, 0, 88, 63
1, 197043, Note_off_c, 0, 76, 67
1, 197052, Note_off_c, 0, 88, 65
1, 197117, Note_on_c, 0, 70, 92
1, 197120, Note_on_c, 0, 61, 77
1, 197135, Note_on_c, 0, 63, 66
1, 197138, Note_on_c, 0, 75, 84
1, 197144, Note_on_c, 0, 87, 81
1, 197159, Note_off_c, 0, 75, 66
1, 197165, Note_off_c, 0, 63, 64
1, 197167, Note_off_c, 0, 87, 65
1, 197171, Note_off_c, 0, 70, 59
1, 197178, Note_off_c, 0, 61, 61
1, 197225, Note_on_c, 0, 70, 73
1, 197228, Note_on_c, 0, 75, 82
1, 197239, Note_on_c, 0, 87, 76
1, 197257, Note_on_c, 0, 63, 38
1, 197260, Note_off_c, 0, 70, 62
1, 197273, Note_off_c, 0, 75, 59
1, 197274, Note_off_c, 0, 87, 59
1, 197279, Note_off_c, 0, 63, 59
1, 197293, Poly_aftertouch_c, 0, 61, 127
1, 197324, Note_on_c, 0, 61, 23
1, 197334, Note_on_c, 0, 70, 62
1, 197346, Note_on_c, 0, 73, 83
1, 197350, Note_off_c, 0, 70, 67
1, 197351, Note_on_c, 0, 85, 84
1, 197361, Note_off_c, 0, 61, 65
1, 197368, Note_off_c, 0, 73, 65
1, 197377, Note_off_c, 0, 85, 59
1, 197448, Note_on_c, 0, 73, 79
1, 197458, Note_on_c, 0, 85, 75
1, 197480, Control_c, 0, 64, 104
1, 197493, Note_off_c, 0, 85, 61
1, 197494, Note_off_c, 0, 73, 57
1, 197494, Control_c, 0, 64, 45
1, 197509, Control_c, 0, 64, 0
1, 197546, Note_on_c, 0, 56, 100
1, 197553, Control_c, 0, 64, 72
1, 197555, Note_on_c, 0, 44, 83
1, 197566, Note_on_c, 0, 71, 92
1, 197568, Control_c, 0, 64, 127
1, 197570, Note_on_c, 0, 83, 82
1, 197573, Note_on_c, 0, 46, 50
1, 197587, Note_off_c, 0, 44, 66
1, 197591, Note_off_c, 0, 56, 62
1, 197603, Note_off_c, 0, 71, 63
1, 197606, Note_off_c, 0, 46, 60
1, 197618, Note_off_c, 0, 83, 61
1, 197662, Poly_aftertouch_c, 0, 51, 0
1, 197672, Note_on_c, 0, 71, 89
1, 197680, Note_on_c, 0, 83, 56
1, 197701, Note_off_c, 0, 71, 59
1, 197707, Note_off_c, 0, 83, 64
1, 197759, Note_on_c, 0, 68, 90
1, 197779, Note_on_c, 0, 63, 61
1, 197786, Note_on_c, 0, 59, 48
1, 197794, Note_on_c, 0, 71, 86
1, 197794, Note_on_c, 0, 69, 31
1, 197804, Note_on_c, 0, 83, 71
1, 197808, Note_off_c, 0, 68, 62
1, 197812, Note_off_c, 0, 63, 63
1, 197812, Note_off_c, 0, 59, 56
1, 197827, Note_off_c, 0, 69, 51
1, 197829, Note_off_c, 0, 71, 60
1, 197830, Note_off_c, 0, 83, 68
1, 197861, Poly_aftertouch_c, 0, 60, 0
1, 197875, Note_on_c, 0, 68, 78
1, 197878, Note_on_c, 0, 63, 73
1, 197887, Poly_aftertouch_c, 0, 60, 0
1, 197890, Note_on_c, 0, 71, 82
1, 197892, Note_on_c, 0, 59, 66
1, 197912, Note_on_c, 0, 83, 59
1, 197921, Note_off_c, 0, 63, 49
1, 197922, Note_off_c, 0, 59, 63
1, 197925, Note_off_c, 0, 68, 58
1, 197930, Note_off_c, 0, 71, 64
1, 197931, Note_off_c, 0, 83, 64
1, 197955, Poly_aftertouch_c, 0, 66, 127
1, 197985, Note_on_c, 0, 59, 75
1, 197992, Poly_aftertouch_c, 0, 77, 0
1, 197995, Note_on_c, 0, 68, 34
1, 198000, Poly_aftertouch_c, 0, 66, 0
1, 198011, Note_on_c, 0, 70, 81
1, 198013, Note_on_c, 0, 82, 68
1, 198015, Poly_aftertouch_c, 0, 77, 0
1, 198017, Note_off_c, 0, 68, 62
1, 198018, Note_off_c, 0, 59, 62
1, 198043, Note_off_c, 0, 82, 62
1, 198044, Note_off_c, 0, 70, 55
1, 198116, Note_on_c, 0, 70, 78
1, 198123, Note_on_c, 0, 82, 75
1, 198175, Note_off_c, 0, 70, 58
1, 198183, Control_c, 0, 64, 99
1, 198184, Note_off_c, 0, 82, 60
1, 198198, Control_c, 0, 64, 61
1, 198213, Control_c, 0, 64, 0
1, 198238, Note_on_c, 0, 40, 92
1, 198246, Note_on_c, 0, 41, 77
1, 198254, Note_on_c, 0, 68, 93
1, 198256, Note_on_c, 0, 80, 88
1, 198257, Control_c, 0, 64, 72
1, 198269, Note_off_c, 0, 41, 60
1, 198272, Control_c, 0, 64, 127
1, 198283, Note_off_c, 0, 40, 64
1, 198306, Note_off_c, 0, 68, 60
1, 198306, Note_off_c, 0, 80, 61
1, 198366, Note_on_c, 0, 68, 69
1, 198379, Note_on_c, 0, 80, 65
1, 198402, Note_off_c, 0, 68, 57
1, 198416, Note_off_c, 0, 80, 54
1, 198468, Note_on_c, 0, 62, 78
1, 198478, Note_on_c, 0, 59, 68
1, 198493, Note_on_c, 0, 67, 84
1, 198507, Note_on_c, 0, 79, 62
1, 198510, Note_off_c, 0, 59, 62
1, 198519, Note_off_c, 0, 67, 64
1, 198521, Note_off_c, 0, 62, 58
1, 198536, Note_off_c, 0, 79, 65
1, 198590, Note_on_c, 0, 67, 77
1, 198603, Note_on_c, 0, 79, 68
1, 198605, Note_on_c, 0, 62, 51
1, 198629, Note_off_c, 0, 67, 59
1, 198632, Note_off_c, 0, 79, 69
1, 198637, Note_off_c, 0, 62, 64
1, 198659, Poly_aftertouch_c, 0, 59, 127
1, 198682, Note_on_c, 0, 59, 27
1, 198700, Note_on_c, 0, 62, 59
1, 198710, Note_on_c, 0, 68, 78
1, 198716, Note_off_c, 0, 62, 67
1, 198720, Note_off_c, 0, 59, 63
1, 198724, Note_on_c, 0, 80, 60
1, 198735, Note_off_c, 0, 68, 65
1, 198743, Note_off_c, 0, 80, 64
1, 198813, Note_on_c, 0, 68, 74
1, 198813, Note_on_c, 0, 80, 76
1, 198846, Note_off_c, 0, 68, 56
1, 198864, Note_off_c, 0, 80, 60
1, 198866, Control_c, 0, 64, 75
1, 198881, Control_c, 0, 64, 0
1, 198902, Note_on_c, 0, 39, 85
1, 198933, Control_c, 0, 64, 67
1, 198939, Note_on_c, 0, 70, 92
1, 198947, Note_on_c, 0, 82, 83
1, 198948, Control_c, 0, 64, 127
1, 198968, Note_off_c, 0, 39, 61
1, 198971, Note_on_c, 0, 80, 42
1, 198977, Note_off_c, 0, 82, 59
1, 198988, Note_off_c, 0, 70, 60
1, 198996, Note_off_c, 0, 80, 57
1, 199051, Note_on_c, 0, 70, 72
1, 199054, Note_on_c, 0, 82, 90
1, 199079, Note_off_c, 0, 70, 63
1, 199114, Note_off_c, 0, 82, 61
1, 199171, Note_on_c, 0, 63, 95
1, 199184, Note_on_c, 0, 55, 73
1, 199186, Note_on_c, 0, 75, 85
1, 199188, Note_on_c, 0, 58, 45
1, 199215, Note_off_c, 0, 63, 63
1, 199223, Note_on_c, 0, 60, 18
1, 199233, Note_off_c, 0, 55, 50
1, 199234, Note_off_c, 0, 75, 61
1, 199237, Note_off_c, 0, 58, 62
1, 199271, Note_off_c, 0, 60, 40
1, 199273, Note_on_c, 0, 63, 94
1, 199276, Note_on_c, 0, 55, 57
1, 199287, Note_on_c, 0, 75, 63
1, 199290, Note_on_c, 0, 58, 62
1, 199333, Note_off_c, 0, 63, 61
1, 199339, Note_off_c, 0, 75, 60
1, 199347, Note_off_c, 0, 58, 61
1, 199351, Note_off_c, 0, 55, 55
1, 199384, Note_on_c, 0, 55, 56
1, 199386, Note_on_c, 0, 63, 85
1, 199398, Note_on_c, 0, 75, 84
1, 199400, Note_on_c, 0, 87, 79
1, 199406, Note_on_c, 0, 58, 63
1, 199416, Note_on_c, 0, 60, 12
1, 199448, Note_off_c, 0, 75, 61
1, 199451, Note_off_c, 0, 87, 61
1, 199468, Note_off_c, 0, 60, 48
1, 199468, Note_off_c, 0, 63, 56
1, 199501, Note_on_c, 0, 75, 77
1, 199509, Note_on_c, 0, 87, 79
1, 199551, Note_off_c, 0, 75, 64
1, 199559, Note_off_c, 0, 58, 36
1, 199576, Note_off_c, 0, 87, 62
1, 199591, Note_off_c, 0, 55, 34
1, 199673, Note_on_c, 0, 63, 98
1, 199677, Note_on_c, 0, 58, 82
1, 199690, Note_on_c, 0, 55, 77
1, 199703, Note_on_c, 0, 99, 101
1, 199704, Note_on_c, 0, 87, 101
1, 199731, Note_on_c, 0, 97, 51
1, 199746, Note_off_c, 0, 87, 60
1, 199755, Note_off_c, 0, 97, 60
1, 199771, Note_off_c, 0, 99, 62
1, 199922, Note_on_c, 0, 99, 104
1, 199925, Note_on_c, 0, 87, 95
1, 199938, Note_on_c, 0, 97, 67
1, 199955, Note_off_c, 0, 97, 67
1, 199958, Note_off_c, 0, 87, 62
1, 199964, Note_off_c, 0, 99, 64
1, 200071, Note_on_c, 0, 99, 99
1, 200074, Note_on_c, 0, 87, 97
1, 200109, Note_off_c, 0, 87, 63
1, 200118, Note_off_c, 0, 99, 64
1, 200119, Note_on_c, 0, 100, 26
1, 200152, Note_off_c, 0, 100, 45
1, 200191, Note_on_c, 0, 87, 94
1, 200194, Note_on_c, 0, 99, 89
1, 200220, Note_off_c, 0, 63, 59
1, 200226, Note_on_c, 0, 97, 43
1, 200227, Note_off_c, 0, 97, 127
1, 200235, Note_off_c, 0, 87, 62
1, 200244, Note_off_c, 0, 99, 63
1, 200248, Note_off_c, 0, 55, 64
1, 200251, Note_off_c, 0, 58, 62
1, 200313, Note_on_c, 0, 97, 93
1, 200317, Note_on_c, 0, 85, 94
1, 200361, Note_off_c, 0, 97, 64
1, 200363, Note_off_c, 0, 85, 63
1, 200437, Note_on_c, 0, 97, 87
1, 200438, Note_on_c, 0, 85, 77
1, 200471, Note_off_c, 0, 85, 60
1, 200493, Note_off_c, 0, 97, 62
1, 200504, Control_c, 0, 64, 97
1, 200519, Control_c, 0, 64, 63
1, 200534, Control_c, 0, 64, 0
1, 200552, Note_on_c, 0, 44, 92
1, 200558, Note_on_c, 0, 32, 84
1, 200578, Control_c, 0, 64, 66
1, 200583, Note_on_c, 0, 84, 92
1, 200587, Note_on_c, 0, 96, 89
1, 200592, Note_off_c, 0, 32, 64
1, 200593, Control_c, 0, 64, 98
1, 200608, Control_c, 0, 64, 127
1, 200611, Note_off_c, 0, 44, 63
1, 200614, Note_on_c, 0, 95, 45
1, 200615, Note_off_c, 0, 95, 127
1, 200626, Note_off_c, 0, 84, 63
1, 200630, Note_off_c, 0, 96, 62
1, 200704, Note_on_c, 0, 84, 82
1, 200718, Note_on_c, 0, 96, 66
1, 200741, Note_off_c, 0, 84, 58
1, 200745, Note_off_c, 0, 96, 69
1, 200801, Note_on_c, 0, 63, 89
1, 200814, Note_on_c, 0, 51, 69
1, 200819, Note_on_c, 0, 60, 61
1, 200834, Note_on_c, 0, 84, 88
1, 200840, Note_on_c, 0, 96, 77
1, 200855, Note_on_c, 0, 54, 36
1, 200866, Note_off_c, 0, 96, 66
1, 200873, Note_off_c, 0, 63, 61
1, 200873, Note_off_c, 0, 84, 59
1, 200884, Note_off_c, 0, 51, 59
1, 200903, Note_off_c, 0, 54, 53
1, 200914, Poly_aftertouch_c, 0, 57, 127
1, 200921, Note_on_c, 0, 84, 84
1, 200931, Note_on_c, 0, 96, 84
1, 200960, Poly_aftertouch_c, 0, 57, 0
1, 200972, Note_off_c, 0, 84, 63
1, 200977, Note_off_c, 0, 96, 63
1, 200995, Note_off_c, 0, 60, 58
1, 201048, Note_on_c, 0, 63, 70
1, 201052, Note_on_c, 0, 51, 71
1, 201057, Note_on_c, 0, 81, 89
1, 201064, Note_off_c, 0, 63, 68
1, 201066, Note_on_c, 0, 93, 78
1, 201089, Note_off_c, 0, 81, 58
1, 201091, Note_off_c, 0, 93, 63
1, 201097, Note_off_c, 0, 51, 61
1, 201111, Note_on_c, 0, 57, 3
1, 201117, Note_on_c, 0, 92, 12
1, 201118, Note_off_c, 0, 92, 127
1, 201151, Note_off_c, 0, 57, 47
1, 201172, Poly_aftertouch_c, 0, 54, 0
1, 201174, Note_on_c, 0, 81, 76
1, 201183, Note_on_c, 0, 93, 68
1, 201201, Note_off_c, 0, 93, 58
1, 201208, Note_off_c, 0, 81, 59
1, 201254, Control_c, 0, 64, 88
1, 201268, Control_c, 0, 64, 54
1, 201283, Control_c, 0, 64, 0
1, 201290, Note_on_c, 0, 48, 88
1, 201296, Note_on_c, 0, 36, 84
1, 201312, Note_on_c, 0, 80, 94
1, 201314, Note_on_c, 0, 92, 95
1, 201321, Note_on_c, 0, 47, 49
1, 201322, Note_off_c, 0, 47, 127
1, 201327, Control_c, 0, 64, 66
1, 201328, Note_off_c, 0, 36, 67
1, 201337, Note_off_c, 0, 48, 63
1, 201342, Control_c, 0, 64, 89
1, 201355, Note_on_c, 0, 90, 23
1, 201356, Note_off_c, 0, 90, 127
1, 201357, Note_off_c, 0, 80, 60
1, 201357, Control_c, 0, 64, 127
1, 201359, Note_off_c, 0, 92, 62
1, 201434, Note_on_c, 0, 80, 68
1, 201439, Note_on_c, 0, 92, 78
1, 201478, Note_off_c, 0, 80, 57
1, 201493, Note_off_c, 0, 92, 61
1, 201548, Note_on_c, 0, 69, 88
1, 201565, Note_on_c, 0, 57, 61
1, 201570, Note_on_c, 0, 63, 55
1, 201571, Note_on_c, 0, 80, 79
1, 201577, Note_on_c, 0, 92, 78
1, 201577, Note_off_c, 0, 69, 60
1, 201589, Note_on_c, 0, 61, 33
1, 201592, Note_off_c, 0, 80, 69
1, 201593, Note_off_c, 0, 63, 62
1, 201596, Note_off_c, 0, 57, 64
1, 201596, Note_off_c, 0, 92, 68
1, 201625, Note_off_c, 0, 61, 52
1, 201651, Note_on_c, 0, 69, 81
1, 201663, Note_on_c, 0, 80, 86
1, 201670, Note_on_c, 0, 92, 82
1, 201672, Note_on_c, 0, 57, 52
1, 201678, Note_on_c, 0, 63, 65
1, 201696, Note_off_c, 0, 57, 59
1, 201698, Note_off_c, 0, 69, 63
1, 201704, Note_on_c, 0, 61, 9
1, 201706, Note_off_c, 0, 63, 63
1, 201709, Note_off_c, 0, 80, 61
1, 201719, Note_off_c, 0, 92, 61
1, 201750, Note_off_c, 0, 61, 51
1, 201772, Note_on_c, 0, 57, 73
1, 201788, Note_on_c, 0, 90, 85
1, 201790, Note_on_c, 0, 63, 62
1, 201791, Note_on_c, 0, 78, 78
1, 201797, Note_on_c, 0, 69, 29
1, 201808, Note_off_c, 0, 63, 66
1, 201816, Note_off_c, 0, 57, 64
1, 201820, Note_off_c, 0, 69, 60
1, 201824, Note_off_c, 0, 78, 61
1, 201834, Note_off_c, 0, 90, 55
1, 201891, Note_on_c, 0, 78, 79
1, 201893, Note_on_c, 0, 90, 83
1, 201960, Note_off_c, 0, 78, 60
1, 201970, Note_off_c, 0, 90, 63
1, 201973, Control_c, 0, 64, 75
1, 201988, Control_c, 0, 64, 0
1, 202000, Note_on_c, 0, 49, 94
1, 202006, Note_on_c, 0, 37, 82
1, 202010, Note_on_c, 0, 76, 84
1, 202020, Note_on_c, 0, 39, 67
1, 202024, Note_on_c, 0, 88, 65
1, 202032, Control_c, 0, 64, 51
1, 202047, Control_c, 0, 64, 87
1, 202051, Note_off_c, 0, 88, 65
1, 202054, Note_off_c, 0, 39, 61
1, 202061, Control_c, 0, 64, 127
1, 202072, Note_off_c, 0, 76, 64
1, 202077, Note_off_c, 0, 37, 60
1, 202090, Note_off_c, 0, 49, 59
1, 202121, Poly_aftertouch_c, 0, 77, 0
1, 202331, Note_on_c, 0, 64, 93
1, 202337, Note_on_c, 0, 61, 91
1, 202340, Note_on_c, 0, 69, 86
1, 202346, Note_on_c, 0, 73, 79
1, 202346, Note_on_c, 0, 57, 76
1, 202348, Note_on_c, 0, 52, 76
1, 202376, Note_on_c, 0, 72, 44
1, 202424, Note_off_c, 0, 64, 59
1, 202432, Note_off_c, 0, 61, 58
1, 202435, Note_off_c, 0, 73, 59
1, 202439, Note_off_c, 0, 52, 57
1, 202446, Note_off_c, 0, 72, 56
1, 202456, Note_off_c, 0, 57, 59
1, 202471, Note_off_c, 0, 69, 55
1, 202513, Note_on_c, 0, 64, 90
1, 202514, Note_on_c, 0, 61, 97
1, 202516, Note_on_c, 0, 52, 78
1, 202518, Note_on_c, 0, 69, 58
1, 202525, Note_on_c, 0, 57, 72
1, 202527, Note_on_c, 0, 73, 79
1, 202562, Note_on_c, 0, 72, 43
1, 202587, Note_off_c, 0, 61, 60
1, 202590, Note_off_c, 0, 52, 59
1, 202591, Note_off_c, 0, 64, 62
1, 202594, Note_off_c, 0, 72, 53
1, 202614, Note_off_c, 0, 57, 60
1, 202628, Note_off_c, 0, 69, 59
1, 202672, Note_off_c, 0, 73, 0
1, 202677, Note_on_c, 0, 61, 95
1, 202682, Note_on_c, 0, 51, 84
1, 202683, Note_on_c, 0, 64, 91
1, 202687, Note_on_c, 0, 75, 79
1, 202689, Note_on_c, 0, 57, 66
1, 202692, Note_on_c, 0, 73, 35
1, 202692, Note_on_c, 0, 69, 63
1, 202734, Note_on_c, 0, 72, 21
1, 202737, Note_off_c, 0, 61, 62
1, 202739, Note_off_c, 0, 64, 62
1, 202743, Note_off_c, 0, 73, 59
1, 202743, Note_off_c, 0, 75, 60
1, 202755, Note_off_c, 0, 57, 60
1, 202761, Note_off_c, 0, 51, 56
1, 202763, Note_off_c, 0, 69, 61
1, 202773, Note_off_c, 0, 72, 41
1, 202798, Note_on_c, 0, 64, 84
1, 202799, Note_on_c, 0, 51, 63
1, 202802, Note_on_c, 0, 75, 76
1, 202804, Note_on_c, 0, 61, 95
1, 202805, Note_on_c, 0, 69, 56
1, 202817, Note_on_c, 0, 57, 63
1, 202853, Note_off_c, 0, 64, 59
1, 202855, Note_on_c, 0, 73, 34
1, 202855, Note_off_c, 0, 61, 61
1, 202856, Note_off_c, 0, 75, 61
1, 202868, Note_off_c, 0, 51, 59
1, 202882, Note_off_c, 0, 57, 60
1, 202888, Note_off_c, 0, 73, 50
1, 202891, Note_off_c, 0, 69, 61
1, 202930, Note_on_c, 0, 64, 87
1, 202932, Note_on_c, 0, 76, 81
1, 202933, Note_on_c, 0, 61, 91
1, 202943, Note_on_c, 0, 69, 54
1, 202948, Note_on_c, 0, 49, 72
1, 202958, Note_on_c, 0, 57, 46
1, 202982, Note_off_c, 0, 64, 64
1, 202983, Note_off_c, 0, 49, 61
1, 202986, Note_off_c, 0, 76, 63
1, 202987, Note_off_c, 0, 61, 63
1, 202994, Note_off_c, 0, 57, 64
1, 203008, Note_off_c, 0, 69, 61
1, 203022, Poly_aftertouch_c, 0, 74, 127
1, 203048, Note_on_c, 0, 64, 86
1, 203057, Note_on_c, 0, 76, 74
1, 203059, Note_on_c, 0, 61, 90
1, 203065, Note_on_c, 0, 69, 64
1, 203070, Note_on_c, 0, 49, 71
1, 203070, Poly_aftertouch_c, 0, 54, 0
1, 203081, Poly_aftertouch_c, 0, 74, 0
1, 203082, Note_on_c, 0, 57, 62
1, 203104, Note_on_c, 0, 51, 41
1, 203106, Poly_aftertouch_c, 0, 54, 127
1, 203109, Note_off_c, 0, 49, 56
1, 203113, Note_off_c, 0, 64, 61
1, 203115, Note_off_c, 0, 61, 62
1, 203118, Poly_aftertouch_c, 0, 74, 127
1, 203131, Note_off_c, 0, 57, 60
1, 203136, Note_off_c, 0, 51, 51
1, 203154, Poly_aftertouch_c, 0, 54, 0
1, 203158, Poly_aftertouch_c, 0, 72, 127
1, 203159, Note_off_c, 0, 76, 0
1, 203161, Poly_aftertouch_c, 0, 74, 0
1, 203171, Note_on_c, 0, 76, 39
1, 203188, Note_on_c, 0, 64, 71
1, 203192, Note_on_c, 0, 61, 91
1, 203201, Note_on_c, 0, 51, 82
1, 203231, Note_on_c, 0, 57, 53
1, 203250, Note_off_c, 0, 76, 62
1, 203251, Note_off_c, 0, 61, 61
1, 203251, Note_off_c, 0, 64, 63
1, 203260, Note_off_c, 0, 57, 67
1, 203268, Note_off_c, 0, 69, 60
1, 203270, Note_off_c, 0, 51, 57
1, 203273, Poly_aftertouch_c, 0, 72, 0
1, 203302, Note_on_c, 0, 64, 66
1, 203312, Note_on_c, 0, 51, 68
1, 203316, Note_on_c, 0, 69, 65
1, 203320, Note_on_c, 0, 61, 80
1, 203353, Note_on_c, 0, 57, 57
1, 203372, Note_off_c, 0, 61, 62
1, 203379, Note_off_c, 0, 64, 59
1, 203392, Note_off_c, 0, 57, 62
1, 203394, Poly_aftertouch_c, 0, 75, 127
1, 203408, Note_off_c, 0, 69, 61
1, 203442, Poly_aftertouch_c, 0, 75, 0
1, 203449, Note_on_c, 0, 64, 77
1, 203452, Note_on_c, 0, 73, 53
1, 203453, Note_on_c, 0, 61, 84
1, 203458, Note_on_c, 0, 69, 64
1, 203470, Note_on_c, 0, 52, 64
1, 203475, Note_on_c, 0, 57, 68
1, 203508, Note_off_c, 0, 64, 62
1, 203508, Note_off_c, 0, 51, 59
1, 203510, Note_off_c, 0, 61, 62
1, 203524, Note_off_c, 0, 73, 60
1, 203528, Note_off_c, 0, 69, 60
1, 203529, Note_off_c, 0, 57, 57
1, 203566, Poly_aftertouch_c, 0, 69, 0
1, 203568, Note_off_c, 0, 52, 0
1, 203570, Note_on_c, 0, 64, 79
1, 203574, Note_on_c, 0, 69, 61
1, 203574, Note_on_c, 0, 73, 62
1, 203580, Note_on_c, 0, 61, 73
1, 203589, Note_on_c, 0, 57, 52
1, 203590, Note_on_c, 0, 52, 19
1, 203598, Poly_aftertouch_c, 0, 54, 127
1, 203633, Note_off_c, 0, 64, 62
1, 203642, Note_off_c, 0, 61, 60
1, 203644, Note_off_c, 0, 57, 58
1, 203647, Note_off_c, 0, 52, 59
1, 203658, Note_off_c, 0, 69, 60
1, 203670, Poly_aftertouch_c, 0, 54, 0
1, 203678, Control_c, 0, 64, 90
1, 203684, Note_off_c, 0, 73, 56
1, 203693, Control_c, 0, 64, 64
1, 203707, Control_c, 0, 64, 0
1, 203711, Note_on_c, 0, 63, 97
1, 203718, Note_on_c, 0, 59, 95
1, 203721, Note_on_c, 0, 71, 69
1, 203722, Note_on_c, 0, 68, 85
1, 203723, Note_on_c, 0, 75, 78
1, 203726, Note_on_c, 0, 51, 74
1, 203729, Note_on_c, 0, 73, 41
1, 203737, Control_c, 0, 64, 32
1, 203752, Control_c, 0, 64, 69
1, 203756, Note_on_c, 0, 55, 50
1, 203762, Note_on_c, 0, 52, 30
1, 203765, Note_on_c, 0, 50, 37
1, 203767, Control_c, 0, 64, 92
1, 203781, Note_off_c, 0, 73, 55
1, 203781, Control_c, 0, 64, 127
1, 203785, Note_off_c, 0, 75, 57
1, 203786, Note_off_c, 0, 63, 62
1, 203791, Note_off_c, 0, 59, 62
1, 203798, Note_off_c, 0, 50, 52
1, 203798, Note_off_c, 0, 55, 63
1, 203799, Note_off_c, 0, 52, 49
1, 203809, Note_off_c, 0, 51, 58
1, 203816, Note_off_c, 0, 71, 61
1, 203830, Note_off_c, 0, 68, 59
1, 203911, Note_on_c, 0, 50, 61
1, 203913, Note_on_c, 0, 62, 73
1, 203916, Note_on_c, 0, 64, 81
1, 203918, Note_on_c, 0, 60, 59
1, 203935, Note_on_c, 0, 76, 58
1, 203940, Note_off_c, 0, 62, 66
1, 203945, Note_off_c, 0, 50, 63
1, 203946, Note_off_c, 0, 60, 63
1, 203961, Note_on_c, 0, 74, 40
1, 203966, Note_off_c, 0, 64, 64
1, 203966, Note_off_c, 0, 76, 65
1, 203988, Note_off_c, 0, 74, 54
1, 204051, Note_on_c, 0, 61, 86
1, 204051, Note_on_c, 0, 65, 80
1, 204064, Note_on_c, 0, 77, 66
1, 204076, Note_on_c, 0, 49, 49
1, 204084, Note_off_c, 0, 61, 59
1, 204091, Note_off_c, 0, 77, 67
1, 204093, Note_off_c, 0, 65, 60
1, 204111, Note_off_c, 0, 49, 62
1, 204133, Poly_aftertouch_c, 0, 70, 127
1, 204174, Note_on_c, 0, 66, 82
1, 204175, Note_on_c, 0, 60, 83
1, 204182, Poly_aftertouch_c, 0, 70, 0
1, 204195, Note_on_c, 0, 75, 55
1, 204197, Note_on_c, 0, 48, 58
1, 204207, Note_off_c, 0, 60, 60
1, 204209, Note_on_c, 0, 77, 38
1, 204215, Note_off_c, 0, 75, 60
1, 204230, Note_off_c, 0, 48, 63
1, 204233, Note_off_c, 0, 66, 57
1, 204243, Note_off_c, 0, 77, 51
1, 204289, Note_on_c, 0, 59, 83
1, 204290, Note_on_c, 0, 67, 85
1, 204297, Note_on_c, 0, 79, 73
1, 204323, Note_off_c, 0, 59, 62
1, 204331, Note_off_c, 0, 79, 64
1, 204332, Note_on_c, 0, 47, 21
1, 204336, Note_off_c, 0, 67, 63
1, 204373, Note_off_c, 0, 47, 43
1, 204405, Note_on_c, 0, 58, 81
1, 204410, Note_on_c, 0, 68, 86
1, 204416, Note_on_c, 0, 80, 77
1, 204420, Note_on_c, 0, 46, 59
1, 204451, Note_on_c, 0, 78, 26
1, 204456, Note_off_c, 0, 58, 60
1, 204459, Note_off_c, 0, 68, 62
1, 204462, Note_off_c, 0, 46, 58
1, 204486, Note_off_c, 0, 78, 52
1, 204509, Note_on_c, 0, 57, 80
1, 204522, Note_on_c, 0, 69, 87
1, 204529, Note_on_c, 0, 81, 68
1, 204539, Note_off_c, 0, 57, 63
1, 204558, Note_off_c, 0, 80, 59
1, 204560, Note_off_c, 0, 81, 63
1, 204563, Note_off_c, 0, 69, 64
1, 204579, Poly_aftertouch_c, 0, 47, 127
1, 204611, Poly_aftertouch_c, 0, 47, 0
1, 204622, Note_on_c, 0, 56, 85
1, 204634, Note_on_c, 0, 70, 89
1, 204636, Note_on_c, 0, 45, 26
1, 204639, Note_on_c, 0, 82, 82
1, 204658, Note_on_c, 0, 57, 44
1, 204677, Note_off_c, 0, 45, 51
1, 204677, Note_off_c, 0, 57, 64
1, 204677, Note_off_c, 0, 70, 64
1, 204680, Note_on_c, 0, 80, 33
1, 204680, Note_off_c, 0, 56, 57
1, 204710, Note_off_c, 0, 80, 52
1, 204745, Note_on_c, 0, 55, 85
1, 204753, Note_on_c, 0, 71, 81
1, 204755, Note_on_c, 0, 83, 81
1, 204766, Note_on_c, 0, 43, 56
1, 204793, Note_off_c, 0, 55, 63
1, 204794, Note_off_c, 0, 43, 56
1, 204798, Note_off_c, 0, 82, 51
1, 204799, Note_off_c, 0, 71, 62
1, 204808, Note_off_c, 0, 83, 61
1, 204843, Poly_aftertouch_c, 0, 72, 0
1, 204856, Note_on_c, 0, 72, 47
1, 204862, Note_on_c, 0, 55, 84
1, 204872, Note_on_c, 0, 84, 70
1, 204879, Note_on_c, 0, 43, 57
1, 204890, Note_on_c, 0, 78, 60
1, 204913, Note_off_c, 0, 55, 61
1, 204914, Note_off_c, 0, 43, 60
1, 204918, Note_on_c, 0, 83, 34
1, 204928, Poly_aftertouch_c, 0, 44, 127
1, 204930, Note_off_c, 0, 84, 61
1, 204932, Note_off_c, 0, 78, 63
1, 204933, Note_off_c, 0, 72, 62
1, 204946, Note_off_c, 0, 83, 56
1, 204977, Poly_aftertouch_c, 0, 44, 0
1, 205000, Note_on_c, 0, 54, 84
1, 205002, Note_on_c, 0, 73, 88
1, 205008, Note_on_c, 0, 42, 76
1, 205010, Note_on_c, 0, 85, 79
1, 205061, Note_off_c, 0, 54, 60
1, 205062, Note_off_c, 0, 73, 61
1, 205067, Note_off_c, 0, 85, 65
1, 205073, Note_off_c, 0, 42, 58
1, 205082, Poly_aftertouch_c, 0, 79, 127
1, 205109, Note_on_c, 0, 74, 87
1, 205115, Note_on_c, 0, 52, 79
1, 205116, Note_on_c, 0, 86, 78
1, 205122, Note_on_c, 0, 79, 13
1, 205132, Poly_aftertouch_c, 0, 82, 0
1, 205137, Note_on_c, 0, 44, 51
1, 205138, Note_on_c, 0, 53, 32
1, 205142, Note_on_c, 0, 41, 34
1, 205163, Note_off_c, 0, 86, 60
1, 205169, Poly_aftertouch_c, 0, 82, 127
1, 205169, Note_off_c, 0, 52, 62
1, 205174, Note_off_c, 0, 53, 53
1, 205175, Control_c, 0, 64, 124
1, 205178, Note_off_c, 0, 41, 49
1, 205178, Note_off_c, 0, 74, 59
1, 205190, Note_off_c, 0, 44, 61
1, 205190, Control_c, 0, 64, 69
1, 205201, Poly_aftertouch_c, 0, 82, 0
1, 205205, Note_off_c, 0, 79, 63
1, 205205, Control_c, 0, 64, 0
1, 205242, Note_on_c, 0, 51, 87
1, 205246, Note_on_c, 0, 75, 96
1, 205247, Note_on_c, 0, 46, 75
1, 205249, Control_c, 0, 64, 26
1, 205250, Note_on_c, 0, 87, 89
1, 205255, Note_on_c, 0, 39, 77
1, 205257, Note_on_c, 0, 79, 68
1, 205258, Note_on_c, 0, 82, 76
1, 205260, Note_on_c, 0, 80, 60
1, 205264, Control_c, 0, 64, 84
1, 205274, Note_on_c, 0, 45, 73
1, 205274, Note_on_c, 0, 85, 61
1, 205279, Control_c, 0, 64, 127
1, 205288, Note_on_c, 0, 43, 38
1, 205323, Note_off_c, 0, 85, 49
1, 205330, Note_off_c, 0, 46, 60
1, 205330, Note_off_c, 0, 51, 59
1, 205331, Note_off_c, 0, 43, 49
1, 205331, Note_off_c, 0, 45, 61
1, 205331, Note_off_c, 0, 87, 60
1, 205333, Note_off_c, 0, 75, 60
1, 205340, Note_off_c, 0, 39, 55
1, 205343, Note_off_c, 0, 80, 46
1, 205352, Note_off_c, 0, 79, 63
1, 205362, Poly_aftertouch_c, 0, 40, 127
1, 205365, Note_off_c, 0, 82, 60
1, 205377, Poly_aftertouch_c, 0, 41, 0
1, 205398, Poly_aftertouch_c, 0, 40, 0
1, 205425, Note_on_c, 0, 76, 82
1, 205430, Note_on_c, 0, 50, 69
1, 205431, Note_on_c, 0, 88, 82
1, 205434, Note_on_c, 0, 38, 59
1, 205436, Note_on_c, 0, 52, 68
1, 205458, Note_off_c, 0, 52, 61
1, 205464, Note_on_c, 0, 40, 29
1, 205466, Note_off_c, 0, 50, 63
1, 205472, Note_on_c, 0, 86, 29
1, 205472, Note_off_c, 0, 76, 64
1, 205473, Note_off_c, 0, 38, 62
1, 205478, Note_on_c, 0, 46, 5
1, 205479, Note_off_c, 0, 88, 64
1, 205502, Note_off_c, 0, 40, 54
1, 205508, Note_off_c, 0, 86, 53
1, 205515, Note_off_c, 0, 46, 43
1, 205553, Note_on_c, 0, 77, 86
1, 205558, Note_on_c, 0, 49, 84
1, 205563, Note_on_c, 0, 89, 71
1, 205574, Note_on_c, 0, 82, 62
1, 205585, Note_on_c, 0, 37, 53
1, 205587, Note_off_c, 0, 89, 68
1, 205596, Note_off_c, 0, 77, 63
1, 205604, Note_off_c, 0, 82, 64
1, 205605, Note_off_c, 0, 49, 58
1, 205620, Note_off_c, 0, 37, 58
1, 205680, Note_on_c, 0, 48, 86
1, 205680, Note_on_c, 0, 78, 86
1, 205684, Note_on_c, 0, 90, 89
1, 205705, Note_on_c, 0, 36, 48
1, 205726, Note_off_c, 0, 48, 59
1, 205737, Note_off_c, 0, 78, 61
1, 205740, Note_off_c, 0, 36, 54
1, 205754, Note_off_c, 0, 90, 63
1, 205765, Poly_aftertouch_c, 0, 44, 127
1, 205796, Note_on_c, 0, 47, 84
1, 205798, Note_on_c, 0, 79, 92
1, 205798, Poly_aftertouch_c, 0, 44, 0
1, 205804, Note_on_c, 0, 91, 79
1, 205820, Note_on_c, 0, 35, 55
1, 205837, Note_off_c, 0, 47, 62
1, 205848, Note_off_c, 0, 79, 65
1, 205849, Note_off_c, 0, 35, 54
1, 205851, Note_off_c, 0, 91, 64
1, 205875, Poly_aftertouch_c, 0, 89, 127
1, 205906, Poly_aftertouch_c, 0, 89, 0
1, 205916, Note_on_c, 0, 46, 87
1, 205922, Note_on_c, 0, 80, 85
1, 205923, Note_on_c, 0, 92, 85
1, 205936, Note_on_c, 0, 34, 63
1, 205956, Note_on_c, 0, 90, 43
1, 205979, Note_off_c, 0, 34, 58
1, 205983, Note_off_c, 0, 46, 60
1, 205983, Note_off_c, 0, 90, 56
1, 205985, Note_off_c, 0, 80, 61
1, 206032, Note_on_c, 0, 45, 87
1, 206041, Note_on_c, 0, 81, 92
1, 206046, Note_on_c, 0, 93, 84
1, 206048, Note_on_c, 0, 33, 67
1, 206079, Note_off_c, 0, 33, 61
1, 206083, Note_off_c, 0, 45, 58
1, 206084, Note_on_c, 0, 87, 46
1, 206087, Note_off_c, 0, 92, 63
1, 206093, Note_off_c, 0, 93, 62
1, 206093, Note_off_c, 0, 81, 65
1, 206105, Note_off_c, 0, 87, 57
1, 206159, Note_on_c, 0, 44, 88
1, 206167, Note_on_c, 0, 94, 92
1, 206168, Note_on_c, 0, 82, 92
1, 206176, Note_on_c, 0, 32, 67
1, 206191, Note_on_c, 0, 34, 43
1, 206193, Note_on_c, 0, 92, 62
1, 206211, Note_off_c, 0, 92, 66
1, 206227, Note_off_c, 0, 34, 60
1, 206230, Note_off_c, 0, 32, 57
1, 206234, Note_off_c, 0, 44, 61
1, 206234, Note_off_c, 0, 82, 61
1, 206289, Note_on_c, 0, 43, 88
1, 206298, Note_on_c, 0, 31, 76
1, 206299, Note_on_c, 0, 83, 88
1, 206302, Note_on_c, 0, 95, 89
1, 206329, Note_on_c, 0, 39, 42
1, 206344, Note_off_c, 0, 31, 61
1, 206346, Note_off_c, 0, 43, 61
1, 206348, Note_off_c, 0, 94, 61
1, 206355, Note_off_c, 0, 39, 57
1, 206358, Note_off_c, 0, 95, 63
1, 206359, Note_off_c, 0, 83, 61
1, 206388, Poly_aftertouch_c, 0, 34, 127
1, 206431, Poly_aftertouch_c, 0, 34, 0
1, 206436, Note_on_c, 0, 42, 90
1, 206444, Note_on_c, 0, 85, 91
1, 206444, Note_on_c, 0, 97, 92
1, 206456, Note_on_c, 0, 30, 64
1, 206469, Note_on_c, 0, 32, 54
1, 206515, Note_off_c, 0, 32, 58
1, 206525, Note_off_c, 0, 42, 59
1, 206527, Note_off_c, 0, 85, 62
1, 206532, Note_off_c, 0, 30, 60
1, 206546, Poly_aftertouch_c, 0, 94, 0
1, 206585, Note_on_c, 0, 41, 88
1, 206595, Note_on_c, 0, 29, 76
1, 206596, Note_on_c, 0, 98, 89
1, 206596, Note_on_c, 0, 86, 90
1, 206644, Note_on_c, 0, 37, 39
1, 206647, Note_on_c, 0, 96, 17
1, 206648, Note_on_c, 0, 31, 12
1, 206662, Note_on_c, 0, 92, 27
1, 206668, Note_off_c, 0, 29, 62
1, 206668, Note_off_c, 0, 41, 61
1, 206669, Poly_aftertouch_c, 0, 30, 127
1, 206675, Note_off_c, 0, 86, 61
1, 206684, Note_off_c, 0, 37, 59
1, 206685, Note_off_c, 0, 98, 56
1, 206693, Note_off_c, 0, 31, 47
1, 206695, Note_off_c, 0, 96, 31
1, 206705, Note_off_c, 0, 92, 47
1, 206708, Poly_aftertouch_c, 0, 30, 0
1, 206758, Note_off_c, 0, 97, 22
1, 206768, Note_on_c, 0, 39, 97
1, 206771, Note_on_c, 0, 87, 94
1, 206776, Note_on_c, 0, 99, 97
1, 206782, Note_on_c, 0, 27, 85
1, 206814, Note_on_c, 0, 34, 39
1, 206825, Note_off_c, 0, 99, 63
1, 206841, Note_on_c, 0, 93, 23
1, 206842, Note_off_c, 0, 87, 63
1, 206854, Note_off_c, 0, 34, 47
1, 206859, Poly_aftertouch_c, 0, 26, 127
1, 206865, Note_off_c, 0, 27, 58
1, 206871, Note_off_c, 0, 39, 61
1, 206888, Note_off_c, 0, 93, 26
1, 206899, Poly_aftertouch_c, 0, 26, 0
1, 207080, Poly_aftertouch_c, 0, 39, 127
1, 207088, Control_c, 0, 64, 90
1, 207103, Control_c, 0, 64, 57
1, 207110, Poly_aftertouch_c, 0, 39, 0
1, 207118, Control_c, 0, 64, 0
1, 207133, Note_on_c, 0, 44, 94
1, 207137, Note_on_c, 0, 59, 92
1, 207142, Note_on_c, 0, 32, 88
1, 207145, Note_on_c, 0, 68, 85
1, 207147, Note_on_c, 0, 63, 89
1, 207181, Note_on_c, 0, 34, 38
1, 207184, Control_c, 0, 64, 51
1, 207199, Control_c, 0, 64, 81
1, 207206, Note_off_c, 0, 68, 62
1, 207212, Note_off_c, 0, 59, 62
1, 207214, Note_off_c, 0, 34, 57
1, 207214, Control_c, 0, 64, 127
1, 207231, Note_off_c, 0, 32, 60
1, 207248, Note_off_c, 0, 44, 58
1, 207267, Note_off_c, 0, 63, 60
1, 207412, Note_on_c, 0, 51, 92
1, 207419, Note_on_c, 0, 39, 85
1, 207471, Note_off_c, 0, 51, 59
1, 207479, Note_off_c, 0, 39, 58
1, 207616, Note_on_c, 0, 71, 89
1, 207621, Note_on_c, 0, 63, 88
1, 207623, Note_on_c, 0, 83, 81
1, 207628, Note_on_c, 0, 76, 78
1, 207632, Note_on_c, 0, 51, 70
1, 207642, Note_off_c, 0, 63, 66
1, 207662, Note_off_c, 0, 51, 59
1, 207665, Note_off_c, 0, 71, 61
1, 207676, Note_off_c, 0, 83, 58
1, 207679, Note_off_c, 0, 76, 65
1, 207822, Note_on_c, 0, 70, 83
1, 207825, Note_on_c, 0, 44, 93
1, 207828, Note_on_c, 0, 82, 76
1, 207840, Note_on_c, 0, 34, 62
1, 207844, Note_on_c, 0, 32, 59
1, 207844, Note_on_c, 0, 80, 53
1, 207845, Note_off_c, 0, 70, 67
1, 207847, Note_off_c, 0, 44, 66
1, 207865, Note_off_c, 0, 80, 61
1, 207874, Note_off_c, 0, 32, 57
1, 207876, Note_off_c, 0, 34, 58
1, 207895, Poly_aftertouch_c, 0, 75, 127
1, 207923, Note_on_c, 0, 71, 83
1, 207926, Note_on_c, 0, 75, 26
1, 207937, Note_on_c, 0, 83, 66
1, 207945, Note_off_c, 0, 82, 57
1, 207959, Note_off_c, 0, 71, 57
1, 207962, Note_off_c, 0, 83, 66
1, 207989, Note_off_c, 0, 75, 61
1, 208056, Note_on_c, 0, 39, 85
1, 208057, Note_on_c, 0, 51, 88
1, 208063, Note_on_c, 0, 73, 83
1, 208063, Note_on_c, 0, 85, 86
1, 208120, Note_off_c, 0, 73, 59
1, 208125, Note_off_c, 0, 51, 59
1, 208138, Note_off_c, 0, 39, 59
1, 208146, Note_off_c, 0, 85, 59
1, 208269, Note_on_c, 0, 71, 79
1, 208269, Note_on_c, 0, 83, 75
1, 208274, Note_on_c, 0, 63, 89
1, 208283, Note_on_c, 0, 51, 72
1, 208288, Note_off_c, 0, 71, 71
1, 208291, Note_off_c, 0, 83, 67
1, 208293, Note_off_c, 0, 63, 70
1, 208302, Note_on_c, 0, 76, 27
1, 208337, Note_off_c, 0, 51, 54
1, 208338, Note_off_c, 0, 76, 54
1, 208372, Note_on_c, 0, 70, 79
1, 208381, Note_on_c, 0, 82, 71
1, 208396, Note_off_c, 0, 70, 66
1, 208407, Note_on_c, 0, 80, 17
1, 208408, Control_c, 0, 64, 113
1, 208422, Control_c, 0, 64, 68
1, 208437, Control_c, 0, 64, 0
1, 208438, Note_off_c, 0, 80, 49
1, 208448, Note_off_c, 0, 82, 35
1, 208471, Note_on_c, 0, 44, 92
1, 208474, Note_on_c, 0, 83, 60
1, 208476, Note_on_c, 0, 71, 78
1, 208477, Note_on_c, 0, 32, 84
1, 208482, Note_on_c, 0, 75, 82
1, 208482, Control_c, 0, 64, 61
1, 208496, Control_c, 0, 64, 75
1, 208498, Note_off_c, 0, 71, 67
1, 208504, Note_off_c, 0, 44, 58
1, 208511, Control_c, 0, 64, 127
1, 208512, Note_off_c, 0, 83, 60
1, 208513, Note_on_c, 0, 81, 18
1, 208513, Note_off_c, 0, 32, 63
1, 208526, Note_off_c, 0, 75, 64
1, 208546, Note_off_c, 0, 81, 54
1, 208589, Note_on_c, 0, 73, 84
1, 208591, Note_on_c, 0, 85, 84
1, 208612, Note_off_c, 0, 73, 66
1, 208622, Note_off_c, 0, 85, 57
1, 208704, Note_on_c, 0, 39, 85
1, 208704, Note_on_c, 0, 51, 89
1, 208710, Note_on_c, 0, 75, 87
1, 208710, Note_on_c, 0, 87, 89
1, 208761, Note_off_c, 0, 51, 60
1, 208762, Note_off_c, 0, 75, 59
1, 208770, Note_off_c, 0, 39, 60
1, 208778, Note_off_c, 0, 87, 60
1, 208907, Note_on_c, 0, 85, 90
1, 208912, Note_on_c, 0, 73, 85
1, 208930, Note_on_c, 0, 63, 89
1, 208934, Note_off_c, 0, 73, 67
1, 208937, Note_on_c, 0, 51, 76
1, 208950, Note_off_c, 0, 63, 69
1, 208950, Note_off_c, 0, 85, 58
1, 208991, Note_off_c, 0, 51, 55
1, 209017, Note_on_c, 0, 71, 82
1, 209021, Note_on_c, 0, 83, 68
1, 209038, Note_off_c, 0, 71, 68
1, 209047, Note_on_c, 0, 75, 45
1, 209049, Note_off_c, 0, 83, 63
1, 209053, Control_c, 0, 64, 104
1, 209068, Control_c, 0, 64, 63
1, 209072, Note_off_c, 0, 75, 59
1, 209083, Control_c, 0, 64, 0
1, 209109, Poly_aftertouch_c, 0, 82, 0
1, 209125, Note_on_c, 0, 44, 96
1, 209127, Control_c, 0, 64, 64
1, 209129, Note_on_c, 0, 34, 80
1, 209136, Note_on_c, 0, 70, 89
1, 209136, Note_on_c, 0, 82, 72
1, 209142, Control_c, 0, 64, 79
1, 209148, Note_off_c, 0, 44, 70
1, 209152, Note_on_c, 0, 33, 49
1, 209154, Note_off_c, 0, 70, 68
1, 209157, Control_c, 0, 64, 127
1, 209165, Note_on_c, 0, 80, 44
1, 209167, Note_off_c, 0, 34, 61
1, 209187, Note_off_c, 0, 33, 55
1, 209196, Note_off_c, 0, 80, 50
1, 209208, Note_on_c, 0, 71, 40
1, 209222, Note_on_c, 0, 75, 55
1, 209239, Note_on_c, 0, 83, 60
1, 209247, Note_off_c, 0, 82, 62
1, 209265, Note_off_c, 0, 83, 64
1, 209266, Note_off_c, 0, 71, 62
1, 209288, Note_off_c, 0, 75, 62
1, 209345, Note_on_c, 0, 51, 91
1, 209347, Note_on_c, 0, 39, 86
1, 209358, Note_on_c, 0, 73, 87
1, 209359, Note_on_c, 0, 85, 85
1, 209403, Note_off_c, 0, 73, 56
1, 209411, Note_off_c, 0, 51, 59
1, 209416, Note_off_c, 0, 39, 60
1, 209431, Note_off_c, 0, 85, 63
1, 209560, Note_on_c, 0, 71, 88
1, 209565, Note_on_c, 0, 83, 81
1, 209566, Note_on_c, 0, 63, 86
1, 209571, Note_on_c, 0, 51, 77
1, 209580, Note_off_c, 0, 71, 70
1, 209586, Note_off_c, 0, 63, 70
1, 209587, Note_on_c, 0, 76, 44
1, 209589, Note_off_c, 0, 83, 63
1, 209608, Note_off_c, 0, 51, 60
1, 209614, Note_off_c, 0, 76, 57
1, 209663, Note_on_c, 0, 70, 80
1, 209670, Note_on_c, 0, 82, 63
1, 209671, Poly_aftertouch_c, 0, 80, 127
1, 209684, Note_off_c, 0, 70, 68
1, 209727, Control_c, 0, 64, 82
1, 209738, Poly_aftertouch_c, 0, 80, 0
1, 209742, Control_c, 0, 64, 48
1, 209756, Note_off_c, 0, 82, 0
1, 209757, Control_c, 0, 64, 0
1, 209766, Note_on_c, 0, 44, 92
1, 209766, Note_on_c, 0, 71, 86
1, 209769, Note_on_c, 0, 83, 64
1, 209771, Note_on_c, 0, 32, 85
1, 209777, Note_on_c, 0, 75, 82
1, 209788, Control_c, 0, 64, 42
1, 209794, Poly_aftertouch_c, 0, 82, 127
1, 209802, Control_c, 0, 64, 72
1, 209807, Note_on_c, 0, 81, 28
1, 209808, Note_off_c, 0, 81, 127
1, 209808, Note_off_c, 0, 71, 60
1, 209810, Poly_aftertouch_c, 0, 82, 0
1, 209813, Note_off_c, 0, 44, 55
1, 209815, Note_off_c, 0, 83, 63
1, 209817, Control_c, 0, 64, 109
1, 209823, Note_off_c, 0, 32, 56
1, 209829, Note_off_c, 0, 75, 62
1, 209831, Control_c, 0, 64, 127
1, 209886, Note_on_c, 0, 82, 56
1, 209889, Note_on_c, 0, 80, 69
1, 209895, Note_on_c, 0, 68, 57
1, 209916, Note_off_c, 0, 82, 64
1, 209917, Note_off_c, 0, 68, 62
1, 209922, Note_off_c, 0, 80, 63
1, 209978, Note_on_c, 0, 51, 87
1, 209980, Note_on_c, 0, 39, 84
1, 209981, Note_on_c, 0, 68, 79
1, 209988, Note_on_c, 0, 78, 63
1, 209989, Note_on_c, 0, 80, 63
1, 209998, Note_off_c, 0, 68, 67
1, 210003, Note_off_c, 0, 51, 66
1, 210015, Note_off_c, 0, 39, 61
1, 210020, Note_off_c, 0, 78, 62
1, 210043, Note_off_c, 0, 80, 63
1, 210182, Note_on_c, 0, 63, 88
1, 210184, Note_on_c, 0, 83, 93
1, 210184, Note_on_c, 0, 95, 97
1, 210186, Note_on_c, 0, 51, 75
1, 210189, Note_on_c, 0, 87, 92
1, 210201, Note_off_c, 0, 63, 69
1, 210203, Note_on_c, 0, 93, 55
1, 210204, Note_off_c, 0, 93, 127
1, 210212, Note_off_c, 0, 83, 59
1, 210215, Note_on_c, 0, 84, 50
1, 210216, Note_off_c, 0, 84, 127
1, 210218, Note_on_c, 0, 92, 36
1, 210219, Note_off_c, 0, 92, 127
1, 210242, Note_off_c, 0, 51, 57
1, 210245, Note_off_c, 0, 87, 57
1, 210245, Note_off_c, 0, 95, 62
1, 210387, Note_on_c, 0, 82, 95
1, 210388, Note_on_c, 0, 44, 85
1, 210392, Note_on_c, 0, 94, 85
1, 210393, Note_on_c, 0, 32, 78
1, 210397, Note_on_c, 0, 92, 72
1, 210402, Note_off_c, 0, 82, 73
1, 210412, Note_off_c, 0, 44, 66
1, 210412, Note_off_c, 0, 94, 67
1, 210423, Note_off_c, 0, 92, 66
1, 210424, Note_on_c, 0, 87, 22
1, 210425, Note_off_c, 0, 32, 62
1, 210472, Note_off_c, 0, 87, 0
1, 210474, Note_on_c, 0, 83, 85
1, 210479, Note_on_c, 0, 95, 81
1, 210481, Note_on_c, 0, 87, 67
1, 210516, Note_off_c, 0, 83, 58
1, 210525, Note_off_c, 0, 95, 64
1, 210539, Note_off_c, 0, 87, 63
1, 210595, Note_on_c, 0, 51, 90
1, 210602, Note_on_c, 0, 39, 79
1, 210602, Note_on_c, 0, 85, 93
1, 210608, Note_on_c, 0, 97, 82
1, 210623, Note_on_c, 0, 94, 52
1, 210643, Note_off_c, 0, 94, 58
1, 210651, Note_off_c, 0, 85, 59
1, 210654, Note_off_c, 0, 51, 61
1, 210659, Note_off_c, 0, 39, 60
1, 210664, Note_off_c, 0, 97, 64
1, 210690, Poly_aftertouch_c, 0, 42, 127
1, 210728, Poly_aftertouch_c, 0, 42, 0
1, 210797, Note_on_c, 0, 83, 90
1, 210805, Note_on_c, 0, 95, 79
1, 210809, Note_on_c, 0, 63, 86
1, 210814, Note_on_c, 0, 51, 79
1, 210818, Note_off_c, 0, 83, 66
1, 210820, Note_on_c, 0, 92, 51
1, 210821, Note_off_c, 0, 92, 127
1, 210823, Note_off_c, 0, 95, 71
1, 210826, Note_off_c, 0, 63, 69
1, 210827, Note_on_c, 0, 87, 22
1, 210828, Note_off_c, 0, 87, 127
1, 210839, Note_off_c, 0, 51, 64
1, 210904, Note_on_c, 0, 94, 71
1, 210908, Note_on_c, 0, 82, 88
1, 210928, Note_on_c, 0, 92, 45
1, 210940, Note_off_c, 0, 82, 60
1, 210952, Note_off_c, 0, 92, 58
1, 210976, Note_off_c, 0, 94, 61
1, 211006, Note_on_c, 0, 83, 88
1, 211006, Note_on_c, 0, 95, 73
1, 211008, Note_on_c, 0, 44, 95
1, 211013, Note_on_c, 0, 32, 85
1, 211017, Note_on_c, 0, 87, 85
1, 211035, Note_off_c, 0, 44, 63
1, 211049, Note_on_c, 0, 93, 19
1, 211050, Note_off_c, 0, 93, 127
1, 211050, Note_off_c, 0, 95, 64
1, 211050, Note_off_c, 0, 83, 60
1, 211053, Note_off_c, 0, 32, 60
1, 211059, Note_off_c, 0, 87, 65
1, 211122, Note_on_c, 0, 85, 84
1, 211124, Note_on_c, 0, 97, 86
1, 211146, Note_off_c, 0, 85, 62
1, 211148, Note_off_c, 0, 97, 62
1, 211226, Note_on_c, 0, 99, 98
1, 211226, Note_on_c, 0, 51, 93
1, 211228, Note_on_c, 0, 39, 85
1, 211229, Note_on_c, 0, 87, 88
1, 211264, Note_on_c, 0, 97, 28
1, 211265, Note_off_c, 0, 97, 127
1, 211283, Note_off_c, 0, 51, 59
1, 211290, Note_off_c, 0, 39, 59
1, 211294, Note_off_c, 0, 87, 60
1, 211312, Note_off_c, 0, 99, 62
1, 211425, Note_on_c, 0, 97, 90
1, 211428, Note_on_c, 0, 85, 88
1, 211431, Note_on_c, 0, 63, 84
1, 211435, Note_on_c, 0, 51, 76
1, 211449, Note_off_c, 0, 85, 68
1, 211452, Note_off_c, 0, 63, 67
1, 211463, Note_off_c, 0, 51, 60
1, 211467, Note_off_c, 0, 97, 59
1, 211515, Note_on_c, 0, 83, 89
1, 211521, Note_on_c, 0, 95, 74
1, 211533, Note_on_c, 0, 94, 54
1, 211544, Note_on_c, 0, 87, 56
1, 211554, Note_off_c, 0, 94, 62
1, 211555, Note_off_c, 0, 83, 59
1, 211556, Note_off_c, 0, 95, 59
1, 211575, Note_off_c, 0, 87, 65
1, 211604, Poly_aftertouch_c, 0, 63, 0
1, 211618, Note_on_c, 0, 44, 96
1, 211628, Note_on_c, 0, 32, 80
1, 211633, Note_on_c, 0, 94, 89
1, 211637, Note_on_c, 0, 82, 94
1, 211652, Note_off_c, 0, 44, 65
1, 211661, Note_off_c, 0, 82, 70
1, 211662, Note_on_c, 0, 34, 29
1, 211667, Note_off_c, 0, 32, 62
1, 211670, Note_on_c, 0, 92, 44
1, 211686, Note_off_c, 0, 94, 65
1, 211695, Note_off_c, 0, 92, 56
1, 211697, Note_off_c, 0, 34, 56
1, 211727, Note_on_c, 0, 83, 74
1, 211733, Note_on_c, 0, 95, 74
1, 211737, Note_on_c, 0, 93, 48
1, 211739, Note_on_c, 0, 87, 65
1, 211759, Note_off_c, 0, 93, 61
1, 211771, Note_off_c, 0, 83, 61
1, 211780, Note_off_c, 0, 95, 63
1, 211789, Note_off_c, 0, 87, 64
1, 211837, Note_on_c, 0, 51, 90
1, 211840, Note_on_c, 0, 85, 100
1, 211842, Note_on_c, 0, 39, 82
1, 211845, Note_on_c, 0, 97, 88
1, 211855, Note_on_c, 0, 94, 70
1, 211865, Note_off_c, 0, 51, 62
1, 211869, Note_off_c, 0, 94, 68
1, 211870, Note_off_c, 0, 39, 65
1, 211903, Note_off_c, 0, 85, 62
1, 211923, Note_off_c, 0, 97, 62
1, 212022, Note_on_c, 0, 63, 83
1, 212023, Note_on_c, 0, 83, 89
1, 212028, Note_on_c, 0, 95, 75
1, 212028, Note_on_c, 0, 51, 76
1, 212031, Note_on_c, 0, 87, 69
1, 212043, Note_off_c, 0, 63, 68
1, 212046, Note_off_c, 0, 83, 66
1, 212053, Note_off_c, 0, 87, 68
1, 212062, Note_off_c, 0, 95, 59
1, 212065, Note_off_c, 0, 51, 60
1, 212117, Note_on_c, 0, 94, 46
1, 212118, Note_on_c, 0, 82, 82
1, 212171, Note_off_c, 0, 82, 63
1, 212186, Poly_aftertouch_c, 0, 92, 0
1, 212211, Poly_aftertouch_c, 0, 87, 0
1, 212224, Note_on_c, 0, 83, 88
1, 212224, Note_on_c, 0, 95, 70
1, 212228, Note_on_c, 0, 87, 46
1, 212229, Note_on_c, 0, 44, 85
1, 212230, Note_on_c, 0, 32, 82
1, 212269, Note_off_c, 0, 83, 61
1, 212269, Note_off_c, 0, 94, 61
1, 212280, Note_off_c, 0, 95, 62
1, 212281, Note_on_c, 0, 88, 33
1, 212290, Note_off_c, 0, 44, 57
1, 212300, Note_off_c, 0, 87, 60
1, 212306, Note_off_c, 0, 32, 56
1, 212309, Note_off_c, 0, 88, 49
1, 212344, Note_on_c, 0, 94, 65
1, 212346, Note_on_c, 0, 82, 66
1, 212350, Note_on_c, 0, 92, 59
1, 212363, Note_off_c, 0, 82, 66
1, 212371, Note_off_c, 0, 94, 66
1, 212394, Note_off_c, 0, 92, 46
1, 212439, Note_on_c, 0, 80, 84
1, 212442, Note_on_c, 0, 51, 88
1, 212444, Note_on_c, 0, 39, 88
1, 212452, Poly_aftertouch_c, 0, 92, 127
1, 212464, Note_off_c, 0, 51, 65
1, 212465, Note_off_c, 0, 80, 65
1, 212469, Poly_aftertouch_c, 0, 92, 0
1, 212471, Note_off_c, 0, 39, 66
1, 212640, Note_on_c, 0, 63, 95
1, 212640, Note_on_c, 0, 71, 79
1, 212641, Note_on_c, 0, 57, 97
1, 212648, Note_on_c, 0, 45, 78
1, 212663, Note_on_c, 0, 75, 55
1, 212675, Note_off_c, 0, 57, 62
1, 212682, Note_off_c, 0, 45, 63
1, 212684, Note_off_c, 0, 75, 63
1, 212706, Note_off_c, 0, 63, 59
1, 212712, Note_on_c, 0, 46, 8
1, 212733, Poly_aftertouch_c, 0, 47, 127
1, 212737, Poly_aftertouch_c, 0, 73, 127
1, 212743, Note_off_c, 0, 46, 36
1, 212760, Note_off_c, 0, 71, 55
1, 212764, Poly_aftertouch_c, 0, 47, 0
1, 212764, Poly_aftertouch_c, 0, 73, 0
1, 212837, Note_on_c, 0, 46, 85
1, 212838, Note_on_c, 0, 63, 87
1, 212839, Note_on_c, 0, 58, 83
1, 212847, Note_on_c, 0, 70, 80
1, 212858, Note_on_c, 0, 75, 61
1, 212905, Note_off_c, 0, 75, 0
1, 212938, Note_on_c, 0, 71, 77
1, 212942, Poly_aftertouch_c, 0, 75, 127
1, 212943, Note_off_c, 0, 70, 60
1, 212963, Note_off_c, 0, 58, 62
1, 212979, Note_off_c, 0, 63, 61
1, 212981, Note_off_c, 0, 46, 60
1, 212982, Poly_aftertouch_c, 0, 75, 0
1, 212989, Control_c, 0, 64, 113
1, 213004, Control_c, 0, 64, 68
1, 213008, Note_off_c, 0, 71, 62
1, 213018, Control_c, 0, 64, 0
1, 213042, Note_on_c, 0, 63, 101
1, 213047, Note_on_c, 0, 75, 81
1, 213047, Note_on_c, 0, 61, 91
1, 213049, Note_on_c, 0, 73, 77
1, 213050, Note_on_c, 0, 49, 86
1, 213077, Note_on_c, 0, 54, 39
1, 213078, Control_c, 0, 64, 66
1, 213092, Control_c, 0, 64, 90
1, 213107, Note_on_c, 0, 51, 17
1, 213107, Control_c, 0, 64, 127
1, 213111, Note_off_c, 0, 54, 51
1, 213125, Note_off_c, 0, 75, 58
1, 213125, Note_off_c, 0, 61, 62
1, 213134, Poly_aftertouch_c, 0, 72, 127
1, 213143, Note_off_c, 0, 49, 54
1, 213151, Note_off_c, 0, 63, 58
1, 213169, Note_off_c, 0, 51, 44
1, 213183, Poly_aftertouch_c, 0, 72, 0
1, 213226, Note_off_c, 0, 73, 52
1, 213262, Note_on_c, 0, 59, 93
1, 213263, Note_on_c, 0, 63, 87
1, 213276, Note_on_c, 0, 47, 64
1, 213276, Note_on_c, 0, 71, 75
1, 213288, Note_on_c, 0, 75, 56
1, 213290, Note_on_c, 0, 51, 63
1, 213310, Note_off_c, 0, 47, 65
1, 213312, Note_off_c, 0, 59, 61
1, 213323, Note_on_c, 0, 53, 37
1, 213360, Note_off_c, 0, 53, 48
1, 213362, Note_on_c, 0, 70, 85
1, 213369, Note_off_c, 0, 51, 58
1, 213391, Note_off_c, 0, 71, 57
1, 213392, Note_off_c, 0, 75, 27
1, 213401, Note_off_c, 0, 63, 59
1, 213431, Note_off_c, 0, 70, 62
1, 213444, Note_on_c, 0, 47, 64
1, 213447, Note_on_c, 0, 59, 85
1, 213450, Note_on_c, 0, 51, 49
1, 213463, Note_on_c, 0, 75, 79
1, 213464, Note_on_c, 0, 63, 86
1, 213470, Note_on_c, 0, 71, 78
1, 213476, Note_on_c, 0, 53, 34
1, 213491, Note_on_c, 0, 73, 51
1, 213499, Note_on_c, 0, 48, 25
1, 213527, Note_off_c, 0, 59, 56
1, 213529, Note_off_c, 0, 73, 62
1, 213537, Note_on_c, 0, 70, 87
1, 213574, Note_off_c, 0, 63, 59
1, 213617, Note_off_c, 0, 70, 61
1, 213622, Note_off_c, 0, 53, 40
1, 213628, Note_off_c, 0, 75, 0
1, 213630, Note_off_c, 0, 51, 59
1, 213633, Note_off_c, 0, 47, 55
1, 213644, Note_off_c, 0, 71, 0
1, 213651, Note_on_c, 0, 75, 20
1, 213661, Note_off_c, 0, 48, 38
1, 213664, Note_on_c, 0, 63, 89
1, 213672, Note_on_c, 0, 73, 39
1, 213674, Note_on_c, 0, 68, 88
1, 213681, Poly_aftertouch_c, 0, 71, 127
1, 213702, Note_off_c, 0, 73, 57
1, 213708, Note_off_c, 0, 75, 59
1, 213709, Note_off_c, 0, 63, 58
1, 213720, Poly_aftertouch_c, 0, 71, 0
1, 213738, Note_off_c, 0, 68, 63
1, 213827, Control_c, 0, 64, 70
1, 213841, Control_c, 0, 64, 0
1, 213870, Note_on_c, 0, 46, 84
1, 213870, Note_on_c, 0, 75, 91
1, 213871, Control_c, 0, 64, 60
1, 213873, Note_on_c, 0, 87, 94
1, 213875, Note_on_c, 0, 34, 78
1, 213875, Note_on_c, 0, 81, 88
1, 213893, Control_c, 0, 64, 96
1, 213902, Note_off_c, 0, 87, 60
1, 213903, Note_off_c, 0, 46, 65
1, 213904, Note_on_c, 0, 41, 39
1, 213908, Control_c, 0, 64, 127
1, 213912, Note_off_c, 0, 34, 64
1, 213926, Note_off_c, 0, 75, 60
1, 213926, Note_off_c, 0, 81, 64
1, 213941, Note_off_c, 0, 41, 50
1, 213988, Poly_aftertouch_c, 0, 78, 0
1, 214090, Note_on_c, 0, 46, 76
1, 214091, Note_on_c, 0, 58, 87
1, 214105, Note_on_c, 0, 63, 70
1, 214131, Note_on_c, 0, 75, 48
1, 214135, Note_on_c, 0, 70, 43
1, 214165, Note_on_c, 0, 71, 67
1, 214176, Note_off_c, 0, 70, 44
1, 214190, Note_off_c, 0, 58, 64
1, 214192, Note_off_c, 0, 46, 62
1, 214195, Note_off_c, 0, 75, 55
1, 214211, Note_off_c, 0, 63, 60
1, 214234, Control_c, 0, 64, 70
1, 214245, Note_off_c, 0, 71, 61
1, 214248, Control_c, 0, 64, 0
1, 214275, Note_on_c, 0, 61, 101
1, 214275, Note_on_c, 0, 63, 97
1, 214281, Note_on_c, 0, 49, 86
1, 214282, Note_on_c, 0, 75, 85
1, 214283, Note_on_c, 0, 73, 89
1, 214293, Control_c, 0, 64, 14
1, 214295, Note_on_c, 0, 54, 59
1, 214304, Note_on_c, 0, 71, 32
1, 214308, Control_c, 0, 64, 81
1, 214323, Control_c, 0, 64, 127
1, 214338, Note_off_c, 0, 54, 58
1, 214354, Note_off_c, 0, 75, 60
1, 214359, Note_off_c, 0, 61, 58
1, 214368, Note_off_c, 0, 63, 58
1, 214371, Note_off_c, 0, 49, 56
1, 214420, Note_off_c, 0, 71, 24
1, 214475, Note_off_c, 0, 73, 60
1, 214493, Note_on_c, 0, 59, 91
1, 214505, Note_on_c, 0, 63, 89
1, 214511, Note_on_c, 0, 47, 61
1, 214521, Note_on_c, 0, 51, 63
1, 214523, Note_on_c, 0, 71, 70
1, 214532, Note_off_c, 0, 59, 63
1, 214538, Note_on_c, 0, 53, 39
1, 214539, Note_on_c, 0, 75, 45
1, 214544, Note_off_c, 0, 47, 63
1, 214554, Note_off_c, 0, 51, 62
1, 214555, Note_off_c, 0, 63, 61
1, 214573, Note_off_c, 0, 53, 51
1, 214591, Note_off_c, 0, 75, 0
1, 214594, Note_on_c, 0, 63, 73
1, 214605, Note_on_c, 0, 75, 50
1, 214606, Note_on_c, 0, 70, 85
1, 214609, Note_on_c, 0, 58, 85
1, 214620, Note_on_c, 0, 46, 69
1, 214620, Note_off_c, 0, 71, 31
1, 214642, Note_on_c, 0, 51, 64
1, 214646, Note_off_c, 0, 75, 63
1, 214652, Note_off_c, 0, 63, 62
1, 214677, Note_off_c, 0, 58, 54
1, 214679, Note_off_c, 0, 51, 57
1, 214679, Note_off_c, 0, 70, 60
1, 214693, Note_off_c, 0, 46, 0
1, 214707, Poly_aftertouch_c, 0, 70, 0
1, 214713, Note_on_c, 0, 58, 58
1, 214718, Note_on_c, 0, 70, 44
1, 214719, Note_off_c, 0, 70, 127
1, 214721, Note_on_c, 0, 63, 87
1, 214722, Note_on_c, 0, 75, 80
1, 214729, Poly_aftertouch_c, 0, 46, 127
1, 214732, Note_on_c, 0, 71, 78
1, 214765, Poly_aftertouch_c, 0, 51, 127
1, 214766, Note_off_c, 0, 58, 60
1, 214773, Note_on_c, 0, 73, 27
1, 214791, Note_on_c, 0, 70, 75
1, 214804, Note_off_c, 0, 73, 49
1, 214827, Poly_aftertouch_c, 0, 51, 0
1, 214832, Note_off_c, 0, 63, 57
1, 214845, Poly_aftertouch_c, 0, 46, 0
1, 214910, Note_off_c, 0, 71, 0
1, 214916, Note_on_c, 0, 73, 42
1, 214925, Note_on_c, 0, 63, 91
1, 214936, Note_on_c, 0, 68, 88
1, 214946, Poly_aftertouch_c, 0, 71, 127
1, 214964, Note_off_c, 0, 73, 59
1, 214971, Note_off_c, 0, 63, 61
1, 214976, Note_off_c, 0, 75, 55
1, 214983, Note_off_c, 0, 70, 23
1, 215007, Poly_aftertouch_c, 0, 71, 0
1, 215009, Note_off_c, 0, 68, 62
1, 215086, Control_c, 0, 64, 73
1, 215101, Control_c, 0, 64, 0
1, 215131, Control_c, 0, 64, 43
1, 215134, Note_on_c, 0, 44, 90
1, 215138, Note_on_c, 0, 75, 90
1, 215141, Note_on_c, 0, 32, 83
1, 215142, Note_on_c, 0, 80, 92
1, 215143, Note_on_c, 0, 39, 77
1, 215146, Note_on_c, 0, 87, 89
1, 215146, Control_c, 0, 64, 81
1, 215161, Control_c, 0, 64, 127
1, 215165, Note_off_c, 0, 87, 68
1, 215166, Note_on_c, 0, 85, 51
1, 215178, Note_off_c, 0, 32, 58
1, 215183, Note_off_c, 0, 75, 61
1, 215186, Note_off_c, 0, 85, 62
1, 215190, Note_off_c, 0, 44, 61
1, 215194, Note_off_c, 0, 39, 57
1, 215197, Note_off_c, 0, 80, 63
1, 215352, Note_on_c, 0, 59, 88
1, 215368, Note_on_c, 0, 63, 77
1, 215378, Note_on_c, 0, 47, 54
1, 215383, Note_on_c, 0, 51, 58
1, 215405, Note_on_c, 0, 75, 27
1, 215408, Note_on_c, 0, 71, 42
1, 215412, Note_off_c, 0, 47, 60
1, 215427, Note_off_c, 0, 59, 60
1, 215443, Note_off_c, 0, 75, 44
1, 215465, Note_on_c, 0, 70, 81
1, 215465, Poly_aftertouch_c, 0, 54, 127
1, 215479, Note_off_c, 0, 51, 60
1, 215492, Note_off_c, 0, 63, 61
1, 215500, Poly_aftertouch_c, 0, 54, 0
1, 215501, Note_off_c, 0, 71, 55
1, 215523, Note_off_c, 0, 70, 62
1, 215559, Note_on_c, 0, 56, 90
1, 215572, Note_on_c, 0, 44, 72
1, 215572, Note_on_c, 0, 63, 84
1, 215578, Note_on_c, 0, 75, 52
1, 215587, Note_on_c, 0, 46, 47
1, 215587, Note_on_c, 0, 68, 81
1, 215590, Note_off_c, 0, 56, 58
1, 215596, Note_on_c, 0, 49, 31
1, 215598, Note_off_c, 0, 63, 63
1, 215601, Note_off_c, 0, 75, 60
1, 215621, Note_off_c, 0, 46, 61
1, 215633, Note_off_c, 0, 49, 47
1, 215634, Note_off_c, 0, 44, 59
1, 215641, Note_off_c, 0, 68, 64
1, 215652, Poly_aftertouch_c, 0, 71, 127
1, 215655, Poly_aftertouch_c, 0, 73, 127
1, 215685, Poly_aftertouch_c, 0, 73, 0
1, 215688, Poly_aftertouch_c, 0, 71, 0
1, 215732, Control_c, 0, 64, 85
1, 215746, Control_c, 0, 64, 54
1, 215761, Control_c, 0, 64, 0
1, 215776, Control_c, 0, 64, 28
1, 215778, Note_on_c, 0, 80, 98
1, 215782, Note_on_c, 0, 44, 85
1, 215784, Note_on_c, 0, 87, 91
1, 215788, Note_on_c, 0, 90, 80
1, 215791, Control_c, 0, 64, 90
1, 215793, Note_on_c, 0, 39, 77
1, 215794, Note_on_c, 0, 92, 74
1, 215802, Note_off_c, 0, 90, 72
1, 215806, Control_c, 0, 64, 127
1, 215807, Note_on_c, 0, 33, 55
1, 215808, Note_off_c, 0, 92, 71
1, 215810, Note_on_c, 0, 88, 24
1, 215813, Note_off_c, 0, 44, 59
1, 215822, Note_off_c, 0, 39, 64
1, 215828, Note_off_c, 0, 87, 62
1, 215829, Note_on_c, 0, 34, 19
1, 215830, Note_off_c, 0, 34, 127
1, 215834, Note_off_c, 0, 80, 61
1, 215834, Note_off_c, 0, 88, 60
1, 215843, Note_off_c, 0, 33, 55
1, 215875, Poly_aftertouch_c, 0, 34, 0
1, 216009, Note_on_c, 0, 59, 88
1, 216019, Note_on_c, 0, 63, 76
1, 216026, Note_on_c, 0, 71, 57
1, 216028, Note_on_c, 0, 51, 64
1, 216029, Note_on_c, 0, 47, 58
1, 216052, Note_on_c, 0, 75, 43
1, 216053, Note_off_c, 0, 59, 63
1, 216063, Note_off_c, 0, 47, 64
1, 216102, Note_on_c, 0, 70, 79
1, 216110, Note_off_c, 0, 51, 59
1, 216143, Poly_aftertouch_c, 0, 54, 0
1, 216148, Note_off_c, 0, 63, 59
1, 216179, Note_off_c, 0, 70, 60
1, 216198, Note_off_c, 0, 71, 41
1, 216202, Note_off_c, 0, 75, 0
1, 216216, Note_on_c, 0, 58, 66
1, 216230, Note_on_c, 0, 46, 58
1, 216234, Note_on_c, 0, 63, 77
1, 216237, Note_on_c, 0, 68, 83
1, 216238, Note_off_c, 0, 58, 65
1, 216239, Poly_aftertouch_c, 0, 75, 127
1, 216252, Note_off_c, 0, 63, 70
1, 216267, Note_off_c, 0, 46, 62
1, 216284, Note_off_c, 0, 68, 64
1, 216295, Poly_aftertouch_c, 0, 75, 0
1, 216342, Poly_aftertouch_c, 0, 45, 0
1, 216392, Control_c, 0, 64, 108
1, 216407, Control_c, 0, 64, 65
1, 216422, Control_c, 0, 64, 0
1, 216440, Note_on_c, 0, 44, 93
1, 216440, Note_on_c, 0, 83, 96
1, 216441, Note_on_c, 0, 87, 94
1, 216445, Note_on_c, 0, 95, 94
1, 216451, Control_c, 0, 64, 57
1, 216455, Note_on_c, 0, 93, 73
1, 216457, Note_on_c, 0, 40, 63
1, 216460, Note_on_c, 0, 32, 63
1, 216462, Note_off_c, 0, 95, 72
1, 216463, Note_off_c, 0, 83, 68
1, 216464, Note_on_c, 0, 90, 55
1, 216465, Note_off_c, 0, 90, 127
1, 216466, Control_c, 0, 64, 90
1, 216469, Note_off_c, 0, 93, 44
1, 216481, Control_c, 0, 64, 127
1, 216488, Note_off_c, 0, 40, 65
1, 216490, Note_off_c, 0, 87, 66
1, 216493, Note_off_c, 0, 32, 57
1, 216499, Note_off_c, 0, 44, 60
1, 216515, Poly_aftertouch_c, 0, 37, 127
1, 216518, Poly_aftertouch_c, 0, 34, 127
1, 216557, Poly_aftertouch_c, 0, 37, 0
1, 216562, Poly_aftertouch_c, 0, 34, 0
1, 216697, Note_on_c, 0, 59, 91
1, 216702, Note_on_c, 0, 72, 55
1, 216703, Note_on_c, 0, 63, 98
1, 216710, Note_on_c, 0, 51, 76
1, 216720, Note_on_c, 0, 47, 57
1, 216722, Note_on_c, 0, 75, 67
1, 216734, Note_on_c, 0, 71, 47
1, 216752, Note_off_c, 0, 59, 62
1, 216752, Note_off_c, 0, 47, 63
1, 216752, Note_off_c, 0, 75, 61
1, 216760, Note_off_c, 0, 71, 36
1, 216764, Note_off_c, 0, 63, 61
1, 216767, Note_on_c, 0, 73, 6
1, 216780, Note_off_c, 0, 51, 61
1, 216785, Note_on_c, 0, 49, 7
1, 216788, Note_off_c, 0, 73, 0
1, 216797, Note_off_c, 0, 72, 57
1, 216819, Poly_aftertouch_c, 0, 73, 0
1, 216819, Note_off_c, 0, 49, 41
1, 216849, Note_on_c, 0, 63, 86
1, 216851, Note_on_c, 0, 75, 76
1, 216854, Note_on_c, 0, 56, 87
1, 216855, Note_on_c, 0, 70, 63
1, 216874, Note_on_c, 0, 69, 72
1, 216875, Note_on_c, 0, 46, 52
1, 216890, Note_on_c, 0, 57, 57
1, 216898, Note_on_c, 0, 49, 28
1, 216899, Note_on_c, 0, 51, 58
1, 216914, Note_off_c, 0, 57, 61
1, 216921, Note_on_c, 0, 45, 10
1, 216922, Note_off_c, 0, 56, 58
1, 216922, Note_off_c, 0, 63, 58
1, 216928, Note_off_c, 0, 46, 60
1, 216928, Note_off_c, 0, 75, 57
1, 216937, Note_off_c, 0, 51, 58
1, 216940, Note_off_c, 0, 49, 54
1, 216953, Note_off_c, 0, 69, 58
1, 216970, Note_off_c, 0, 45, 36
1, 216979, Note_off_c, 0, 70, 38
1, 217030, Note_on_c, 0, 63, 95
1, 217034, Note_on_c, 0, 56, 93
1, 217036, Note_on_c, 0, 68, 92
1, 217036, Note_on_c, 0, 51, 83
1, 217042, Note_on_c, 0, 44, 85
1, 217042, Note_on_c, 0, 75, 76
1, 217061, Note_on_c, 0, 73, 29
1, 217084, Note_off_c, 0, 56, 61
1, 217087, Note_off_c, 0, 63, 62
1, 217101, Note_off_c, 0, 44, 61
1, 217102, Note_off_c, 0, 73, 47
1, 217107, Note_off_c, 0, 68, 65
1, 217108, Note_off_c, 0, 51, 60
1, 217139, Note_off_c, 0, 75, 60
1, 217401, Note_on_c, 0, 87, 98
1, 217405, Note_on_c, 0, 92, 97
1, 217407, Note_on_c, 0, 99, 92
1, 217408, Note_on_c, 0, 44, 93
1, 217417, Note_on_c, 0, 32, 85
1, 217417, Note_on_c, 0, 39, 80
1, 217422, Control_c, 0, 64, 90
1, 217432, Note_on_c, 0, 97, 60
1, 217436, Control_c, 0, 64, 47
1, 217451, Control_c, 0, 64, 0
1, 217464, Note_on_c, 0, 34, 28
1, 217496, Note_off_c, 0, 97, 42
1, 217496, Control_c, 0, 64, 61
1, 217510, Control_c, 0, 64, 87
1, 217525, Control_c, 0, 64, 127
1, 217533, Note_off_c, 0, 34, 38
1, 217538, Note_off_c, 0, 99, 63
1, 217576, Note_off_c, 0, 32, 58
1, 217611, Note_off_c, 0, 44, 55
1, 217647, Note_off_c, 0, 39, 58
1, 217696, Note_off_c, 0, 92, 57
1, 217734, Note_off_c, 0, 87, 50
1, 217921, Note_on_c, 0, 87, 100
1, 217921, Note_on_c, 0, 92, 95
1, 217925, Note_on_c, 0, 56, 96
1, 217925, Note_on_c, 0, 99, 97
1, 217933, Note_on_c, 0, 44, 87
1, 217934, Note_on_c, 0, 51, 88
1, 217963, Note_on_c, 0, 97, 47
1, 217991, Note_off_c, 0, 44, 61
1, 217992, Note_off_c, 0, 97, 55
1, 218004, Note_off_c, 0, 99, 63
1, 218005, Note_off_c, 0, 56, 58
1, 218019, Note_off_c, 0, 51, 59
1, 218029, Note_off_c, 0, 87, 47
1, 218083, Note_off_c, 0, 92, 63
1, 218240, Note_on_c, 0, 87, 96
1, 218240, Note_on_c, 0, 92, 93
1, 218243, Note_on_c, 0, 99, 93
1, 218254, Note_on_c, 0, 68, 93
1, 218261, Note_on_c, 0, 56, 85
1, 218269, Note_on_c, 0, 63, 78
1, 218276, Note_on_c, 0, 97, 51
1, 218295, Note_off_c, 0, 56, 58
1, 218302, Note_on_c, 0, 58, 27
1, 218304, Note_off_c, 0, 68, 61
1, 218317, Note_off_c, 0, 97, 58
1, 218329, Note_off_c, 0, 63, 61
1, 218332, Note_off_c, 0, 99, 62
1, 218334, Note_off_c, 0, 58, 52
1, 218337, Note_off_c, 0, 87, 59
1, 218398, Note_off_c, 0, 92, 61
1, 218518, Note_on_c, 0, 92, 97
1, 218520, Note_on_c, 0, 87, 94
1, 218522, Note_on_c, 0, 99, 98
1, 218523, Note_on_c, 0, 78, 89
1, 218541, Note_on_c, 0, 74, 56
1, 218547, Note_on_c, 0, 66, 65
1, 218547, Note_off_c, 0, 78, 63
1, 218557, Note_on_c, 0, 97, 50
1, 218575, Note_off_c, 0, 74, 65
1, 218591, Note_off_c, 0, 97, 50
1, 218598, Note_off_c, 0, 66, 58
1, 218616, Note_off_c, 0, 99, 61
1, 218621, Note_off_c, 0, 87, 60
1, 218625, Poly_aftertouch_c, 0, 68, 127
1, 218661, Poly_aftertouch_c, 0, 68, 0
1, 218677, Note_off_c, 0, 92, 61
1, 218715, Note_on_c, 0, 92, 78
1, 218717, Note_on_c, 0, 87, 102
1, 218723, Note_on_c, 0, 99, 93
1, 218730, Note_on_c, 0, 63, 69
1, 218731, Note_on_c, 0, 66, 61
1, 218738, Note_on_c, 0, 56, 56
1, 218745, Note_on_c, 0, 97, 61
1, 218750, Note_off_c, 0, 63, 63
1, 218750, Note_off_c, 0, 66, 63
1, 218759, Note_off_c, 0, 56, 61
1, 218761, Note_on_c, 0, 68, 23
1, 218762, Note_on_c, 0, 58, 28
1, 218768, Note_off_c, 0, 97, 57
1, 218797, Note_off_c, 0, 58, 56
1, 218800, Note_off_c, 0, 68, 48
1, 218802, Note_off_c, 0, 99, 62
1, 218821, Note_off_c, 0, 87, 58
1, 218854, Poly_aftertouch_c, 0, 55, 0
1, 218873, Note_off_c, 0, 92, 61
1, 218901, Note_on_c, 0, 92, 72
1, 218906, Note_on_c, 0, 56, 81
1, 218908, Note_on_c, 0, 87, 97
1, 218908, Note_on_c, 0, 99, 95
1, 218914, Note_on_c, 0, 46, 78
1, 218950, Note_on_c, 0, 52, 32
1, 218951, Note_off_c, 0, 46, 61
1, 218952, Note_on_c, 0, 45, 46
1, 218960, Note_off_c, 0, 56, 55
1, 218969, Poly_aftertouch_c, 0, 49, 0
1, 218970, Note_on_c, 0, 49, 12
1, 218983, Note_off_c, 0, 45, 52
1, 218988, Note_off_c, 0, 52, 51
1, 219016, Note_off_c, 0, 49, 51
1, 219031, Note_off_c, 0, 87, 57
1, 219031, Note_off_c, 0, 99, 38
1, 219084, Note_off_c, 0, 92, 59
1, 219116, Note_on_c, 0, 92, 80
1, 219123, Note_on_c, 0, 44, 94
1, 219123, Note_on_c, 0, 87, 98
1, 219124, Note_on_c, 0, 99, 88
1, 219136, Note_on_c, 0, 32, 94
1, 219140, Note_on_c, 0, 39, 85
1, 219161, Note_on_c, 0, 34, 43
1, 219170, Note_off_c, 0, 99, 65
1, 219177, Note_on_c, 0, 97, 9
1, 219194, Note_off_c, 0, 34, 55
1, 219206, Note_off_c, 0, 87, 61
1, 219209, Note_off_c, 0, 92, 65
1, 219212, Note_off_c, 0, 32, 59
1, 219218, Note_off_c, 0, 44, 60
1, 219230, Poly_aftertouch_c, 0, 37, 127
1, 219236, Note_off_c, 0, 97, 25
1, 219239, Note_off_c, 0, 39, 59
1, 219263, Poly_aftertouch_c, 0, 37, 0
1, 219512, Note_on_c, 0, 56, 99
1, 219513, Note_on_c, 0, 63, 94
1, 219515, Note_on_c, 0, 59, 95
1, 219516, Note_on_c, 0, 44, 87
1, 219518, Note_on_c, 0, 68, 82
1, 219520, Note_on_c, 0, 51, 90
1, 219544, Note_on_c, 0, 60, 50
1, 219545, Note_off_c, 0, 60, 127
1, 219545, Note_on_c, 0, 66, 59
1, 219555, Note_on_c, 0, 46, 44
1, 219570, Note_off_c, 0, 59, 65
1, 219573, Note_off_c, 0, 68, 61
1, 219583, Note_on_c, 0, 48, 24
1, 219584, Note_off_c, 0, 66, 61
1, 219592, Note_off_c, 0, 44, 60
1, 219594, Note_off_c, 0, 63, 63
1, 219596, Note_off_c, 0, 46, 61
1, 219605, Note_off_c, 0, 56, 59
1, 219625, Note_off_c, 0, 48, 45
1, 219629, Note_off_c, 0, 51, 59
1, 219986, Note_on_c, 0, 80, 98
1, 219987, Note_on_c, 0, 71, 98
1, 219992, Note_on_c, 0, 83, 87
1, 219992, Note_on_c, 0, 92, 89
1, 219995, Note_on_c, 0, 68, 87
1, 219996, Note_on_c, 0, 59, 78
1, 219998, Note_on_c, 0, 63, 83
1, 219998, Note_on_c, 0, 87, 80
1, 220023, Note_on_c, 0, 90, 56
1, 220173, Note_off_c, 0, 90, 51
1, 221246, Note_off_c, 0, 71, 62
1, 221247, Note_off_c, 0, 92, 63
1, 221252, Note_off_c, 0, 80, 62
1, 221260, Note_off_c, 0, 59, 48
1, 221265, Note_off_c, 0, 83, 63
1, 221270, Control_c, 0, 64, 84
1, 221273, Note_off_c, 0, 87, 62
1, 221274, Note_off_c, 0, 68, 63
1, 221274, Note_off_c, 0, 63, 61
1, 221284, Control_c, 0, 64, 57
1, 221299, Control_c, 0, 64, 0
1, 221299, End_track
0, 0, End_of_file
