0, 0, Header, 0, 1, 384
1, 0, Start_track
1, 0, Title_t, "Ballade No. 1, by Chopin--Leeza Ali"
1, 0, Text_t, "2008 e-Piano Junior Competition virtual audition round"
1, 0, Text_t, "recorded January and February 2008"
1, 0, Text_t, "http://www.piano-e-competition.com/"
1, 0, Text_t, "File processed for distribution by software from Zenph Studios, Inc., http://www.zenph.com"
1, 0, Instrument_name_t, "Yamaha Disklavier Pro Mark IV concert grand piano, model DCFIIISM4PRO"
1, 0, Sequencer_specific, 39, 67, 113, 0, 1, 0, 1, 0, 66, 97, 108, 108, 97, 100, 101, 32, 78, 111, 46, 32, 49, 32, 32, 32, 76, 101, 101, 122, 97, 32, 65, 108, 105, 32, 32, 32, 32, 32, 32, 32
1, 0, Sequencer_specific, 6, 67, 113, 0, 0, 0, 69
1, 0, System_exclusive, 21, 67, 113, 126, 21, 0, 2, 2, 1, 9, 14, 1, 4, 0, 14, 13, 0, 5, 9, 0, 1, 247
1, 0, Sequencer_specific, 5, 67, 123, 12, 2, 1
1, 0, Tempo, 512820
1, 0, Time_signature, 4, 2, 24, 8
1, 0, System_exclusive, 5, 126, 127, 9, 1, 247
1, 1, System_exclusive, 8, 67, 16, 76, 0, 0, 126, 0, 247
1, 2, System_exclusive, 8, 67, 16, 76, 8, 9, 7, 1, 247
1, 3, Control_c, 0, 0, 0
1, 3, Control_c, 1, 0, 0
1, 3, Control_c, 2, 0, 0
1, 3, Control_c, 3, 0, 0
1, 3, Control_c, 4, 0, 0
1, 3, Control_c, 5, 0, 0
1, 3, Control_c, 6, 0, 0
1, 3, Control_c, 7, 0, 0
1, 3, Control_c, 8, 0, 0
1, 3, Control_c, 9, 0, 127
1, 3, Control_c, 10, 0, 0
1, 3, Control_c, 11, 0, 0
1, 3, Control_c, 12, 0, 0
1, 3, Control_c, 13, 0, 0
1, 3, Control_c, 14, 0, 0
1, 3, Control_c, 15, 0, 0
1, 4, Control_c, 0, 32, 0
1, 4, Control_c, 1, 32, 0
1, 4, Control_c, 2, 32, 0
1, 4, Control_c, 3, 32, 0
1, 4, Control_c, 4, 32, 0
1, 4, Control_c, 5, 32, 0
1, 4, Control_c, 6, 32, 0
1, 4, Control_c, 7, 32, 0
1, 4, Control_c, 8, 32, 0
1, 4, Control_c, 9, 32, 0
1, 4, Control_c, 10, 32, 0
1, 4, Control_c, 11, 32, 0
1, 4, Control_c, 12, 32, 0
1, 4, Control_c, 13, 32, 0
1, 4, Control_c, 14, 32, 0
1, 4, Control_c, 15, 32, 0
1, 5, Program_c, 0, 0
1, 5, Program_c, 1, 0
1, 5, Program_c, 2, 0
1, 5, Program_c, 3, 0
1, 5, Program_c, 4, 0
1, 5, Program_c, 5, 0
1, 5, Program_c, 6, 0
1, 5, Program_c, 7, 0
1, 5, Program_c, 8, 0
1, 5, Program_c, 9, 0
1, 5, Program_c, 10, 0
1, 5, Program_c, 11, 0
1, 5, Program_c, 12, 0
1, 5, Program_c, 13, 0
1, 5, Program_c, 14, 0
1, 5, Program_c, 15, 0
1, 6, Control_c, 0, 7, 100
1, 117, Control_c, 0, 64, 7
1, 229, Control_c, 0, 64, 14
1, 341, Control_c, 0, 64, 21
1, 452, Control_c, 0, 64, 29
1, 564, Control_c, 0, 64, 35
1, 676, Control_c, 0, 64, 43
1, 787, Control_c, 0, 64, 49
1, 899, Control_c, 0, 64, 59
1, 899, Control_c, 1, 7, 100
1, 899, Control_c, 2, 7, 100
1, 899, Control_c, 3, 7, 100
1, 899, Control_c, 4, 7, 100
1, 899, Control_c, 5, 7, 100
1, 899, Control_c, 6, 7, 100
1, 899, Control_c, 7, 7, 100
1, 899, Control_c, 8, 7, 100
1, 899, Control_c, 9, 7, 100
1, 899, Control_c, 10, 7, 100
1, 899, Control_c, 11, 7, 100
1, 899, Control_c, 12, 7, 100
1, 899, Control_c, 13, 7, 100
1, 899, Control_c, 14, 7, 100
1, 899, Control_c, 15, 7, 100
1, 1129, Note_on_c, 0, 48, 83
1, 1131, Note_on_c, 0, 36, 84
1, 1131, Control_c, 0, 64, 65
1, 1153, Control_c, 0, 64, 73
1, 1168, Control_c, 0, 64, 87
1, 1183, Control_c, 0, 64, 127
1, 3592, Control_c, 0, 67, 8
1, 3798, Note_on_c, 0, 51, 55
1, 3820, Note_on_c, 0, 39, 41
1, 3829, Control_c, 0, 64, 114
1, 3829, Control_c, 0, 67, 8
1, 3835, Note_off_c, 0, 48, 36
1, 3844, Control_c, 0, 64, 83
1, 3859, Control_c, 0, 64, 67
1, 3859, Control_c, 0, 67, 9
1, 3873, Control_c, 0, 64, 50
1, 3888, Control_c, 0, 64, 0
1, 3888, Control_c, 0, 67, 9
1, 3918, Control_c, 0, 64, 14
1, 3933, Control_c, 0, 64, 52
1, 3947, Control_c, 0, 64, 65
1, 3954, Note_off_c, 0, 36, 43
1, 3962, Control_c, 0, 64, 74
1, 3977, Control_c, 0, 64, 89
1, 3977, Control_c, 0, 67, 9
1, 3991, Control_c, 0, 64, 115
1, 4006, Control_c, 0, 64, 127
1, 4006, Control_c, 0, 67, 8
1, 4021, Control_c, 0, 67, 8
1, 4036, Control_c, 0, 67, 0
1, 4286, Note_off_c, 0, 39, 32
1, 4345, Note_off_c, 0, 51, 32
1, 4431, Note_on_c, 0, 56, 57
1, 4443, Note_on_c, 0, 44, 37
1, 4488, Control_c, 0, 64, 89
1, 4502, Control_c, 0, 64, 67
1, 4517, Control_c, 0, 64, 48
1, 4532, Control_c, 0, 64, 24
1, 4547, Control_c, 0, 64, 31
1, 4562, Control_c, 0, 64, 50
1, 4577, Control_c, 0, 64, 63
1, 4592, Control_c, 0, 64, 73
1, 4607, Control_c, 0, 64, 88
1, 4621, Control_c, 0, 64, 115
1, 4636, Control_c, 0, 64, 127
1, 4777, Note_off_c, 0, 56, 32
1, 4833, Note_off_c, 0, 44, 36
1, 4856, Note_on_c, 0, 58, 66
1, 4858, Control_c, 0, 64, 108
1, 4867, Note_on_c, 0, 46, 44
1, 4873, Control_c, 0, 64, 84
1, 4895, Control_c, 0, 64, 67
1, 4910, Control_c, 0, 64, 59
1, 4925, Control_c, 0, 64, 58
1, 4940, Control_c, 0, 64, 61
1, 4955, Control_c, 0, 64, 66
1, 4969, Control_c, 0, 64, 74
1, 4984, Control_c, 0, 64, 95
1, 4999, Control_c, 0, 64, 127
1, 5014, Note_off_c, 0, 46, 57
1, 5096, Note_off_c, 0, 58, 57
1, 5188, Note_on_c, 0, 60, 71
1, 5193, Control_c, 0, 64, 95
1, 5199, Note_on_c, 0, 48, 43
1, 5207, Control_c, 0, 64, 75
1, 5222, Control_c, 0, 64, 61
1, 5237, Control_c, 0, 64, 40
1, 5266, Control_c, 0, 64, 51
1, 5281, Control_c, 0, 64, 63
1, 5296, Control_c, 0, 64, 71
1, 5311, Control_c, 0, 64, 85
1, 5325, Control_c, 0, 64, 106
1, 5340, Control_c, 0, 64, 127
1, 5369, Note_off_c, 0, 60, 55
1, 5407, Note_off_c, 0, 48, 37
1, 5471, Note_on_c, 0, 44, 44
1, 5473, Note_on_c, 0, 56, 73
1, 5578, Note_off_c, 0, 44, 45
1, 5596, Note_off_c, 0, 56, 56
1, 5763, Control_c, 0, 64, 97
1, 5775, Note_on_c, 0, 63, 71
1, 5778, Control_c, 0, 64, 73
1, 5793, Control_c, 0, 64, 57
1, 5793, Note_on_c, 0, 51, 43
1, 5808, Control_c, 0, 64, 0
1, 5838, Control_c, 0, 64, 31
1, 5852, Control_c, 0, 64, 58
1, 5867, Control_c, 0, 64, 68
1, 5882, Control_c, 0, 64, 80
1, 5897, Control_c, 0, 64, 95
1, 5912, Control_c, 0, 64, 105
1, 5927, Control_c, 0, 64, 109
1, 5942, Control_c, 0, 64, 110
1, 5957, Control_c, 0, 64, 111
1, 5972, Control_c, 0, 64, 112
1, 5981, Note_off_c, 0, 63, 50
1, 5987, Control_c, 0, 64, 113
1, 6002, Control_c, 0, 64, 113
1, 6031, Control_c, 0, 64, 114
1, 6043, Note_on_c, 0, 70, 76
1, 6047, Note_off_c, 0, 51, 32
1, 6061, Control_c, 0, 64, 115
1, 6064, Note_on_c, 0, 58, 52
1, 6100, Note_off_c, 0, 58, 59
1, 6105, Control_c, 0, 64, 116
1, 6149, Control_c, 0, 64, 117
1, 6214, Note_off_c, 0, 70, 56
1, 6282, Control_c, 0, 64, 110
1, 6297, Control_c, 0, 64, 88
1, 6312, Control_c, 0, 64, 69
1, 6315, Note_on_c, 0, 72, 74
1, 6324, Note_on_c, 0, 60, 44
1, 6327, Control_c, 0, 64, 44
1, 6342, Control_c, 0, 64, 0
1, 6372, Control_c, 0, 64, 45
1, 6393, Control_c, 0, 64, 64
1, 6408, Control_c, 0, 64, 72
1, 6423, Control_c, 0, 64, 84
1, 6438, Control_c, 0, 64, 96
1, 6453, Control_c, 0, 64, 103
1, 6467, Control_c, 0, 64, 107
1, 6483, Control_c, 0, 64, 108
1, 6498, Control_c, 0, 64, 109
1, 6502, Note_off_c, 0, 72, 53
1, 6528, Control_c, 0, 64, 109
1, 6533, Note_off_c, 0, 60, 38
1, 6590, Note_on_c, 0, 68, 82
1, 6592, Note_on_c, 0, 56, 49
1, 6696, Note_off_c, 0, 68, 54
1, 6731, Note_off_c, 0, 56, 32
1, 6840, Control_c, 0, 64, 106
1, 6854, Control_c, 0, 64, 90
1, 6866, Note_on_c, 0, 75, 76
1, 6869, Control_c, 0, 64, 69
1, 6884, Control_c, 0, 64, 47
1, 6884, Note_on_c, 0, 63, 44
1, 6899, Control_c, 0, 64, 0
1, 6929, Control_c, 0, 64, 52
1, 6944, Control_c, 0, 64, 64
1, 6959, Control_c, 0, 64, 73
1, 6973, Control_c, 0, 64, 89
1, 6988, Control_c, 0, 64, 103
1, 7003, Control_c, 0, 64, 109
1, 7017, Control_c, 0, 64, 110
1, 7032, Control_c, 0, 64, 111
1, 7042, Note_off_c, 0, 75, 56
1, 7114, Note_off_c, 0, 63, 40
1, 7156, Note_on_c, 0, 82, 83
1, 7180, Note_on_c, 0, 70, 48
1, 7224, Note_off_c, 0, 70, 54
1, 7394, Note_off_c, 0, 82, 36
1, 7532, Note_on_c, 0, 84, 76
1, 7544, Control_c, 0, 64, 110
1, 7559, Control_c, 0, 64, 94
1, 7566, Note_on_c, 0, 72, 41
1, 7574, Control_c, 0, 64, 76
1, 7588, Control_c, 0, 64, 61
1, 7603, Control_c, 0, 64, 0
1, 7662, Control_c, 0, 64, 47
1, 7677, Control_c, 0, 64, 64
1, 7692, Control_c, 0, 64, 69
1, 7707, Control_c, 0, 64, 74
1, 7722, Control_c, 0, 64, 78
1, 7737, Control_c, 0, 64, 81
1, 7752, Control_c, 0, 64, 83
1, 7766, Control_c, 0, 64, 84
1, 7781, Control_c, 0, 64, 84
1, 7796, Note_off_c, 0, 72, 32
1, 7796, Control_c, 0, 64, 85
1, 7826, Control_c, 0, 64, 85
1, 7964, Note_on_c, 0, 79, 73
1, 8000, Note_on_c, 0, 67, 32
1, 8013, Note_off_c, 0, 84, 14
1, 8026, Control_c, 0, 64, 84
1, 8040, Control_c, 0, 64, 77
1, 8055, Control_c, 0, 64, 65
1, 8070, Control_c, 0, 64, 33
1, 8085, Control_c, 0, 64, 0
1, 8115, Control_c, 0, 64, 28
1, 8129, Control_c, 0, 64, 55
1, 8144, Control_c, 0, 64, 65
1, 8159, Control_c, 0, 64, 73
1, 8173, Control_c, 0, 64, 80
1, 8188, Control_c, 0, 64, 84
1, 8203, Control_c, 0, 64, 85
1, 8218, Control_c, 0, 64, 86
1, 8233, Control_c, 0, 64, 86
1, 8247, Control_c, 0, 64, 87
1, 8282, Note_on_c, 0, 82, 75
1, 8295, Note_on_c, 0, 70, 43
1, 8300, Note_off_c, 0, 67, 39
1, 8307, Control_c, 0, 64, 85
1, 8308, Note_off_c, 0, 79, 58
1, 8323, Control_c, 0, 64, 78
1, 8337, Control_c, 0, 64, 69
1, 8352, Control_c, 0, 64, 48
1, 8367, Control_c, 0, 64, 0
1, 8396, Control_c, 0, 67, 8
1, 8411, Control_c, 0, 64, 48
1, 8411, Control_c, 0, 67, 8
1, 8426, Control_c, 0, 64, 63
1, 8426, Control_c, 0, 67, 9
1, 8441, Control_c, 0, 64, 70
1, 8441, Control_c, 0, 67, 10
1, 8456, Control_c, 0, 64, 78
1, 8456, Control_c, 0, 67, 12
1, 8470, Control_c, 0, 64, 83
1, 8470, Control_c, 0, 67, 12
1, 8485, Control_c, 0, 64, 85
1, 8485, Control_c, 0, 67, 13
1, 8500, Control_c, 0, 64, 86
1, 8500, Control_c, 0, 67, 13
1, 8515, Control_c, 0, 67, 14
1, 8530, Control_c, 0, 64, 86
1, 8530, Control_c, 0, 67, 15
1, 8545, Control_c, 0, 64, 87
1, 8545, Control_c, 0, 67, 16
1, 8559, Control_c, 0, 67, 18
1, 8574, Control_c, 0, 67, 20
1, 8589, Control_c, 0, 64, 87
1, 8589, Control_c, 0, 67, 22
1, 8593, Note_off_c, 0, 70, 37
1, 8604, Control_c, 0, 67, 26
1, 8606, Note_on_c, 0, 80, 78
1, 8616, Note_on_c, 0, 68, 40
1, 8619, Control_c, 0, 64, 88
1, 8619, Control_c, 0, 67, 29
1, 8641, Control_c, 0, 67, 33
1, 8656, Control_c, 0, 64, 88
1, 8656, Control_c, 0, 67, 37
1, 8670, Control_c, 0, 64, 89
1, 8670, Control_c, 0, 67, 42
1, 8685, Control_c, 0, 67, 46
1, 8700, Control_c, 0, 64, 89
1, 8700, Control_c, 0, 67, 51
1, 8715, Control_c, 0, 64, 90
1, 8715, Control_c, 0, 67, 55
1, 8729, Control_c, 0, 64, 90
1, 8729, Control_c, 0, 67, 59
1, 8744, Control_c, 0, 64, 91
1, 8744, Control_c, 0, 67, 63
1, 8759, Control_c, 0, 64, 91
1, 8759, Control_c, 0, 67, 66
1, 8766, Note_off_c, 0, 82, 0
1, 8774, Control_c, 0, 67, 70
1, 8788, Control_c, 0, 64, 92
1, 8788, Control_c, 0, 67, 74
1, 8803, Poly_aftertouch_c, 0, 82, 127
1, 8803, Control_c, 0, 64, 92
1, 8803, Control_c, 0, 67, 79
1, 8818, Control_c, 0, 64, 93
1, 8818, Control_c, 0, 67, 83
1, 8833, Control_c, 0, 67, 86
1, 8848, Control_c, 0, 64, 93
1, 8848, Control_c, 0, 67, 89
1, 8862, Control_c, 0, 67, 92
1, 8872, Note_off_c, 0, 68, 30
1, 8877, Control_c, 0, 67, 94
1, 8888, Poly_aftertouch_c, 0, 82, 0
1, 8892, Control_c, 0, 64, 94
1, 8892, Control_c, 0, 67, 96
1, 8907, Control_c, 0, 67, 98
1, 8921, Control_c, 0, 67, 100
1, 8936, Control_c, 0, 67, 101
1, 8939, Note_off_c, 0, 80, 38
1, 8951, Control_c, 0, 67, 102
1, 8966, Control_c, 0, 67, 103
1, 8981, Control_c, 0, 67, 104
1, 8995, Control_c, 0, 67, 105
1, 9010, Control_c, 0, 67, 106
1, 9025, Control_c, 0, 67, 106
1, 9040, Control_c, 0, 67, 107
1, 9055, Control_c, 0, 67, 108
1, 9069, Control_c, 0, 64, 94
1, 9069, Control_c, 0, 67, 108
1, 9084, Control_c, 0, 67, 109
1, 9099, Control_c, 0, 67, 110
1, 9115, Control_c, 0, 67, 111
1, 9130, Control_c, 0, 67, 112
1, 9145, Control_c, 0, 67, 113
1, 9159, Control_c, 0, 67, 114
1, 9174, Control_c, 0, 67, 115
1, 9189, Control_c, 0, 67, 117
1, 9204, Control_c, 0, 67, 119
1, 9218, Control_c, 0, 67, 121
1, 9220, Note_on_c, 0, 79, 67
1, 9222, Note_on_c, 0, 67, 34
1, 9233, Control_c, 0, 67, 122
1, 9248, Control_c, 0, 67, 124
1, 9263, Control_c, 0, 64, 94
1, 9263, Control_c, 0, 67, 125
1, 9278, Control_c, 0, 64, 92
1, 9278, Control_c, 0, 67, 127
1, 9293, Control_c, 0, 64, 86
1, 9293, Control_c, 0, 67, 127
1, 9308, Control_c, 0, 64, 76
1, 9323, Control_c, 0, 64, 65
1, 9337, Control_c, 0, 64, 39
1, 9352, Control_c, 0, 64, 0
1, 9448, Control_c, 0, 64, 19
1, 9463, Control_c, 0, 64, 54
1, 9479, Control_c, 0, 64, 63
1, 9493, Control_c, 0, 64, 65
1, 9508, Control_c, 0, 64, 67
1, 9523, Control_c, 0, 64, 68
1, 9537, Control_c, 0, 64, 70
1, 9552, Control_c, 0, 64, 71
1, 9567, Control_c, 0, 64, 73
1, 9582, Control_c, 0, 64, 75
1, 9597, Control_c, 0, 64, 76
1, 9612, Control_c, 0, 64, 77
1, 9627, Control_c, 0, 64, 78
1, 9642, Control_c, 0, 64, 79
1, 9656, Control_c, 0, 64, 80
1, 9671, Control_c, 0, 64, 81
1, 9686, Control_c, 0, 64, 81
1, 9701, Control_c, 0, 64, 82
1, 9716, Control_c, 0, 64, 82
1, 9745, Control_c, 0, 64, 83
1, 9819, Control_c, 0, 64, 83
1, 10777, Control_c, 0, 64, 82
1, 10789, Note_on_c, 0, 78, 39
1, 10791, Control_c, 0, 64, 79
1, 10804, Note_on_c, 0, 66, 25
1, 10806, Control_c, 0, 64, 72
1, 10818, Note_off_c, 0, 79, 38
1, 10821, Control_c, 0, 64, 62
1, 10836, Control_c, 0, 64, 19
1, 10851, Control_c, 0, 64, 0
1, 10858, Note_off_c, 0, 67, 33
1, 10902, Control_c, 0, 64, 28
1, 10917, Control_c, 0, 64, 54
1, 10932, Control_c, 0, 64, 64
1, 10947, Control_c, 0, 64, 67
1, 10962, Control_c, 0, 64, 70
1, 10977, Control_c, 0, 64, 73
1, 10991, Control_c, 0, 64, 74
1, 11006, Control_c, 0, 64, 74
1, 11021, Control_c, 0, 64, 75
1, 11036, Control_c, 0, 64, 75
1, 11051, Control_c, 0, 64, 76
1, 11095, Control_c, 0, 64, 76
1, 11755, Note_off_c, 0, 66, 35
1, 11803, Note_off_c, 0, 78, 30
1, 11888, Control_c, 0, 64, 76
1, 11918, Control_c, 0, 64, 75
1, 11932, Control_c, 0, 64, 74
1, 11947, Control_c, 0, 64, 73
1, 11962, Control_c, 0, 64, 71
1, 11977, Control_c, 0, 64, 69
1, 11992, Control_c, 0, 64, 66
1, 12006, Control_c, 0, 64, 62
1, 12021, Control_c, 0, 64, 54
1, 12036, Control_c, 0, 64, 45
1, 12051, Control_c, 0, 64, 39
1, 12065, Control_c, 0, 64, 37
1, 12080, Control_c, 0, 64, 36
1, 12095, Control_c, 0, 64, 36
1, 12110, Control_c, 0, 64, 34
1, 12125, Control_c, 0, 64, 32
1, 12140, Control_c, 0, 64, 31
1, 12154, Control_c, 0, 64, 28
1, 12169, Control_c, 0, 64, 26
1, 12184, Control_c, 0, 64, 22
1, 12199, Control_c, 0, 64, 16
1, 12214, Control_c, 0, 64, 0
1, 13690, Note_on_c, 0, 78, 47
1, 13695, Note_on_c, 0, 66, 24
1, 14117, Note_off_c, 0, 78, 57
1, 14119, Note_on_c, 0, 67, 36
1, 14122, Note_on_c, 0, 79, 52
1, 14137, Note_off_c, 0, 66, 38
1, 14435, Note_on_c, 0, 78, 60
1, 14441, Note_off_c, 0, 79, 61
1, 14443, Note_off_c, 0, 67, 41
1, 14445, Note_on_c, 0, 66, 34
1, 14751, Note_off_c, 0, 66, 45
1, 14751, Note_on_c, 0, 77, 63
1, 14754, Note_off_c, 0, 78, 59
1, 14760, Note_on_c, 0, 65, 39
1, 15061, Note_off_c, 0, 65, 48
1, 15073, Note_off_c, 0, 77, 58
1, 15074, Note_on_c, 0, 78, 64
1, 15094, Note_on_c, 0, 66, 35
1, 15511, Note_off_c, 0, 66, 40
1, 15522, Note_on_c, 0, 81, 64
1, 15523, Note_off_c, 0, 78, 58
1, 15529, Control_c, 0, 64, 22
1, 15534, Note_on_c, 0, 69, 30
1, 15544, Control_c, 0, 64, 36
1, 15559, Control_c, 0, 64, 48
1, 15574, Control_c, 0, 64, 58
1, 15588, Control_c, 0, 64, 63
1, 15603, Control_c, 0, 64, 65
1, 15618, Control_c, 0, 64, 67
1, 15632, Control_c, 0, 64, 69
1, 15647, Control_c, 0, 64, 71
1, 15662, Control_c, 0, 64, 72
1, 15677, Control_c, 0, 64, 73
1, 15692, Control_c, 0, 64, 74
1, 15706, Control_c, 0, 64, 74
1, 15721, Control_c, 0, 64, 75
1, 15749, Note_off_c, 0, 69, 40
1, 15754, Note_on_c, 0, 79, 69
1, 15768, Note_on_c, 0, 67, 37
1, 15773, Note_off_c, 0, 81, 54
1, 15958, Control_c, 0, 64, 73
1, 15973, Control_c, 0, 64, 68
1, 15988, Control_c, 0, 64, 62
1, 16003, Note_off_c, 0, 67, 39
1, 16003, Control_c, 0, 64, 56
1, 16003, Note_on_c, 0, 75, 63
1, 16018, Control_c, 0, 64, 58
1, 16019, Note_on_c, 0, 63, 33
1, 16021, Note_off_c, 0, 79, 56
1, 16032, Control_c, 0, 64, 63
1, 16047, Control_c, 0, 64, 67
1, 16062, Control_c, 0, 64, 72
1, 16077, Control_c, 0, 64, 79
1, 16092, Control_c, 0, 64, 84
1, 16106, Control_c, 0, 64, 86
1, 16128, Control_c, 0, 64, 89
1, 16143, Control_c, 0, 64, 90
1, 16158, Control_c, 0, 64, 91
1, 16173, Control_c, 0, 64, 93
1, 16188, Control_c, 0, 64, 94
1, 16203, Control_c, 0, 64, 95
1, 16217, Note_off_c, 0, 75, 58
1, 16217, Note_off_c, 0, 63, 39
1, 16217, Control_c, 0, 64, 95
1, 16232, Control_c, 0, 64, 96
1, 16247, Control_c, 0, 64, 96
1, 16262, Control_c, 0, 64, 97
1, 16277, Control_c, 0, 64, 97
1, 16292, Control_c, 0, 64, 98
1, 16322, Control_c, 0, 64, 99
1, 16366, Control_c, 0, 64, 99
1, 16536, Note_on_c, 0, 75, 61
1, 16559, Note_on_c, 0, 63, 35
1, 16559, Control_c, 0, 64, 98
1, 16574, Control_c, 0, 64, 91
1, 16589, Control_c, 0, 64, 80
1, 16603, Control_c, 0, 64, 68
1, 16618, Control_c, 0, 64, 53
1, 16633, Control_c, 0, 64, 0
1, 16677, Control_c, 0, 64, 39
1, 16692, Control_c, 0, 64, 61
1, 16707, Control_c, 0, 64, 68
1, 16721, Control_c, 0, 64, 74
1, 16736, Control_c, 0, 64, 81
1, 16751, Control_c, 0, 64, 85
1, 16766, Control_c, 0, 64, 87
1, 16781, Control_c, 0, 64, 89
1, 16796, Control_c, 0, 64, 90
1, 16811, Control_c, 0, 64, 91
1, 16826, Control_c, 0, 64, 92
1, 16840, Control_c, 0, 64, 94
1, 16855, Control_c, 0, 64, 96
1, 16877, Control_c, 0, 64, 97
1, 16892, Control_c, 0, 64, 99
1, 16907, Control_c, 0, 64, 100
1, 16922, Control_c, 0, 64, 101
1, 16936, Control_c, 0, 64, 104
1, 16951, Control_c, 0, 64, 106
1, 16966, Control_c, 0, 64, 110
1, 16980, Control_c, 0, 64, 113
1, 16995, Control_c, 0, 64, 117
1, 17010, Control_c, 0, 64, 121
1, 17025, Control_c, 0, 64, 127
1, 17501, Note_off_c, 0, 63, 33
1, 17580, Note_off_c, 0, 75, 30
1, 17628, Note_on_c, 0, 74, 56
1, 17649, Note_on_c, 0, 62, 36
1, 17836, Note_off_c, 0, 62, 29
1, 17896, Note_off_c, 0, 74, 32
1, 17923, Control_c, 0, 64, 124
1, 17932, Note_on_c, 0, 77, 52
1, 17937, Control_c, 0, 64, 109
1, 17941, Note_on_c, 0, 65, 38
1, 17952, Control_c, 0, 64, 98
1, 17967, Control_c, 0, 64, 84
1, 17982, Control_c, 0, 64, 71
1, 17997, Control_c, 0, 64, 59
1, 18012, Control_c, 0, 64, 0
1, 18071, Control_c, 0, 64, 46
1, 18086, Control_c, 0, 64, 61
1, 18100, Control_c, 0, 64, 66
1, 18115, Control_c, 0, 64, 71
1, 18130, Control_c, 0, 64, 74
1, 18145, Control_c, 0, 64, 77
1, 18160, Control_c, 0, 64, 78
1, 18174, Control_c, 0, 64, 79
1, 18189, Control_c, 0, 64, 79
1, 18218, Control_c, 0, 64, 80
1, 18240, Note_off_c, 0, 77, 53
1, 18248, Control_c, 0, 64, 80
1, 18259, Note_on_c, 0, 75, 53
1, 18263, Control_c, 0, 64, 81
1, 18292, Note_on_c, 0, 63, 33
1, 18293, Control_c, 0, 64, 81
1, 18311, Note_off_c, 0, 65, 28
1, 18522, Control_c, 0, 64, 81
1, 18537, Note_off_c, 0, 63, 14
1, 18537, Control_c, 0, 64, 79
1, 18551, Control_c, 0, 64, 74
1, 18566, Control_c, 0, 64, 66
1, 18575, Note_off_c, 0, 75, 37
1, 18581, Control_c, 0, 64, 51
1, 18596, Control_c, 0, 64, 0
1, 18601, Note_on_c, 0, 62, 34
1, 18602, Note_on_c, 0, 74, 41
1, 18656, Control_c, 0, 64, 49
1, 18671, Control_c, 0, 64, 64
1, 18686, Control_c, 0, 64, 69
1, 18701, Control_c, 0, 64, 74
1, 18716, Control_c, 0, 64, 78
1, 18730, Control_c, 0, 64, 80
1, 18745, Control_c, 0, 64, 82
1, 18760, Control_c, 0, 64, 83
1, 18775, Control_c, 0, 64, 83
1, 18790, Control_c, 0, 64, 84
1, 18802, Note_off_c, 0, 74, 55
1, 18805, Control_c, 0, 64, 85
1, 18814, Note_off_c, 0, 62, 36
1, 18820, Control_c, 0, 64, 86
1, 18835, Control_c, 0, 64, 87
1, 18849, Control_c, 0, 64, 87
1, 18864, Control_c, 0, 64, 88
1, 18879, Control_c, 0, 64, 89
1, 18894, Control_c, 0, 64, 89
1, 18909, Control_c, 0, 64, 90
1, 18923, Control_c, 0, 64, 90
1, 18938, Control_c, 0, 64, 91
1, 18967, Control_c, 0, 64, 91
1, 19211, Control_c, 0, 64, 88
1, 19220, Note_on_c, 0, 74, 36
1, 19226, Control_c, 0, 64, 81
1, 19240, Note_on_c, 0, 62, 25
1, 19241, Control_c, 0, 64, 70
1, 19255, Control_c, 0, 64, 60
1, 19270, Control_c, 0, 64, 33
1, 19285, Control_c, 0, 64, 23
1, 19300, Control_c, 0, 64, 34
1, 19315, Control_c, 0, 64, 51
1, 19329, Control_c, 0, 64, 61
1, 19344, Control_c, 0, 64, 68
1, 19359, Control_c, 0, 64, 75
1, 19374, Control_c, 0, 64, 81
1, 19389, Control_c, 0, 64, 84
1, 19404, Control_c, 0, 64, 84
1, 19419, Control_c, 0, 64, 85
1, 20220, Note_off_c, 0, 62, 25
1, 20257, Note_off_c, 0, 74, 30
1, 20257, Control_c, 0, 64, 84
1, 20302, Control_c, 0, 64, 84
1, 20317, Control_c, 0, 64, 83
1, 20332, Control_c, 0, 64, 81
1, 20347, Control_c, 0, 64, 79
1, 20362, Control_c, 0, 64, 76
1, 20376, Control_c, 0, 64, 71
1, 20391, Control_c, 0, 64, 65
1, 20406, Control_c, 0, 64, 56
1, 20421, Control_c, 0, 64, 38
1, 20435, Control_c, 0, 64, 31
1, 20450, Control_c, 0, 64, 31
1, 20510, Control_c, 0, 64, 30
1, 20554, Control_c, 0, 64, 29
1, 20584, Control_c, 0, 64, 28
1, 20599, Control_c, 0, 64, 28
1, 20620, Control_c, 0, 64, 27
1, 20635, Control_c, 0, 64, 26
1, 20680, Control_c, 0, 64, 25
1, 20725, Control_c, 0, 64, 24
1, 21443, Control_c, 0, 64, 25
1, 21755, Control_c, 0, 64, 26
1, 21843, Control_c, 0, 64, 27
1, 21948, Control_c, 0, 64, 28
1, 22007, Control_c, 0, 64, 28
1, 22052, Control_c, 0, 64, 29
1, 22096, Control_c, 0, 64, 30
1, 22118, Control_c, 0, 64, 31
1, 22148, Control_c, 0, 64, 31
1, 22163, Control_c, 0, 64, 32
1, 22193, Control_c, 0, 64, 32
1, 22207, Control_c, 0, 64, 33
1, 22237, Control_c, 0, 64, 34
1, 22266, Control_c, 0, 64, 34
1, 22311, Control_c, 0, 64, 35
1, 22340, Control_c, 0, 64, 35
1, 22370, Control_c, 0, 64, 36
1, 22385, Control_c, 0, 64, 36
1, 22415, Control_c, 0, 64, 37
1, 22430, Control_c, 0, 64, 37
1, 22459, Control_c, 0, 64, 38
1, 22504, Control_c, 0, 64, 38
1, 22533, Control_c, 0, 64, 39
1, 22912, Control_c, 0, 64, 39
1, 22920, Note_on_c, 0, 72, 70
1, 22927, Control_c, 0, 64, 40
1, 22930, Note_on_c, 0, 60, 33
1, 22931, Note_on_c, 0, 51, 34
1, 22933, Note_on_c, 0, 55, 36
1, 22942, Control_c, 0, 64, 41
1, 22955, Control_c, 0, 64, 43
1, 22970, Control_c, 0, 64, 48
1, 22985, Control_c, 0, 64, 55
1, 23000, Control_c, 0, 64, 62
1, 23015, Control_c, 0, 64, 66
1, 23029, Control_c, 0, 64, 71
1, 23044, Control_c, 0, 64, 78
1, 23059, Control_c, 0, 64, 85
1, 23074, Control_c, 0, 64, 90
1, 23088, Control_c, 0, 64, 95
1, 23103, Control_c, 0, 64, 101
1, 23118, Control_c, 0, 64, 107
1, 23133, Control_c, 0, 64, 118
1, 23148, Control_c, 0, 64, 127
1, 25122, Note_on_c, 0, 67, 53
1, 25195, Note_off_c, 0, 72, 36
1, 25429, Note_off_c, 0, 55, 30
1, 25476, Note_off_c, 0, 60, 30
1, 25500, Note_off_c, 0, 51, 31
1, 25676, Note_on_c, 0, 50, 45
1, 25883, Note_on_c, 0, 55, 58
1, 26108, Note_on_c, 0, 63, 62
1, 26293, Note_off_c, 0, 67, 52
1, 26593, Note_on_c, 0, 70, 72
1, 26603, Control_c, 0, 64, 117
1, 26625, Control_c, 0, 64, 85
1, 26640, Control_c, 0, 64, 69
1, 26655, Control_c, 0, 64, 54
1, 26670, Control_c, 0, 64, 41
1, 26685, Control_c, 0, 64, 42
1, 26701, Control_c, 0, 64, 50
1, 26715, Control_c, 0, 64, 60
1, 26730, Control_c, 0, 64, 66
1, 26745, Control_c, 0, 64, 76
1, 26760, Control_c, 0, 64, 94
1, 26775, Control_c, 0, 64, 111
1, 26789, Control_c, 0, 64, 127
1, 27065, Note_off_c, 0, 63, 57
1, 27172, Note_off_c, 0, 50, 29
1, 27423, Note_off_c, 0, 55, 24
1, 27760, Control_c, 0, 64, 124
1, 27775, Control_c, 0, 64, 121
1, 27790, Control_c, 0, 64, 120
1, 27804, Control_c, 0, 64, 118
1, 27834, Control_c, 0, 64, 117
1, 27938, Control_c, 0, 64, 116
1, 28805, Control_c, 0, 64, 115
1, 28961, Control_c, 0, 64, 114
1, 29035, Control_c, 0, 64, 113
1, 29065, Control_c, 0, 64, 113
1, 29095, Control_c, 0, 64, 112
1, 29110, Control_c, 0, 64, 111
1, 29140, Control_c, 0, 64, 110
1, 29155, Control_c, 0, 64, 109
1, 29169, Control_c, 0, 64, 108
1, 29184, Control_c, 0, 64, 107
1, 29199, Control_c, 0, 64, 105
1, 29214, Control_c, 0, 64, 103
1, 29228, Control_c, 0, 64, 100
1, 29243, Control_c, 0, 64, 98
1, 29258, Control_c, 0, 64, 95
1, 29273, Control_c, 0, 64, 93
1, 29288, Control_c, 0, 64, 91
1, 29302, Control_c, 0, 64, 88
1, 29317, Control_c, 0, 64, 85
1, 29332, Control_c, 0, 64, 80
1, 29347, Control_c, 0, 64, 76
1, 29362, Control_c, 0, 64, 71
1, 29376, Control_c, 0, 64, 66
1, 29391, Control_c, 0, 64, 62
1, 29406, Control_c, 0, 64, 60
1, 29421, Control_c, 0, 64, 59
1, 29495, Control_c, 0, 64, 59
1, 29524, Control_c, 0, 64, 58
1, 29539, Control_c, 0, 64, 58
1, 29569, Control_c, 0, 64, 57
1, 29584, Control_c, 0, 64, 57
1, 29599, Control_c, 0, 64, 56
1, 29635, Control_c, 0, 64, 56
1, 29650, Control_c, 0, 64, 55
1, 29665, Control_c, 0, 64, 55
1, 29680, Control_c, 0, 64, 54
1, 29695, Control_c, 0, 64, 53
1, 29724, Control_c, 0, 64, 53
1, 29739, Control_c, 0, 64, 52
1, 29962, Control_c, 0, 64, 53
1, 30007, Control_c, 0, 64, 53
1, 30096, Control_c, 0, 64, 54
1, 30140, Control_c, 0, 64, 54
1, 30214, Control_c, 0, 64, 55
1, 30288, Control_c, 0, 64, 55
1, 30318, Control_c, 0, 64, 56
1, 30370, Control_c, 0, 64, 56
1, 30384, Control_c, 0, 64, 57
1, 30414, Control_c, 0, 64, 57
1, 30429, Control_c, 0, 64, 58
1, 30445, Control_c, 0, 64, 58
1, 30459, Control_c, 0, 64, 59
1, 30474, Control_c, 0, 64, 60
1, 30481, Note_on_c, 0, 38, 36
1, 30489, Control_c, 0, 64, 61
1, 30504, Control_c, 0, 64, 63
1, 30519, Control_c, 0, 64, 65
1, 30533, Control_c, 0, 64, 68
1, 30548, Control_c, 0, 64, 74
1, 30563, Control_c, 0, 64, 82
1, 30578, Control_c, 0, 64, 92
1, 30592, Control_c, 0, 64, 100
1, 30607, Control_c, 0, 64, 107
1, 30622, Control_c, 0, 64, 116
1, 30637, Control_c, 0, 64, 127
1, 30884, Note_off_c, 0, 70, 35
1, 31488, Note_on_c, 0, 60, 43
1, 31736, Note_off_c, 0, 60, 34
1, 31748, Note_on_c, 0, 62, 42
1, 31834, Note_off_c, 0, 62, 54
1, 31881, Note_on_c, 0, 66, 52
1, 32019, Note_on_c, 0, 70, 62
1, 32043, Note_off_c, 0, 66, 35
1, 32080, Note_off_c, 0, 70, 54
1, 32144, Note_on_c, 0, 69, 65
1, 32218, Note_off_c, 0, 38, 37
1, 32252, Control_c, 0, 64, 95
1, 32267, Control_c, 0, 64, 78
1, 32282, Control_c, 0, 64, 65
1, 32297, Control_c, 0, 64, 42
1, 32308, Note_on_c, 0, 67, 63
1, 32312, Control_c, 0, 64, 0
1, 32314, Note_off_c, 0, 69, 53
1, 32490, Control_c, 0, 64, 19
1, 32505, Control_c, 0, 64, 40
1, 32519, Control_c, 0, 64, 51
1, 32534, Control_c, 0, 64, 59
1, 32549, Control_c, 0, 64, 63
1, 32564, Control_c, 0, 64, 65
1, 32578, Control_c, 0, 64, 67
1, 32593, Control_c, 0, 64, 70
1, 32615, Control_c, 0, 64, 73
1, 32626, Note_on_c, 0, 62, 41
1, 32630, Note_on_c, 0, 58, 42
1, 32630, Control_c, 0, 64, 77
1, 32633, Note_on_c, 0, 43, 41
1, 32645, Control_c, 0, 64, 81
1, 32660, Control_c, 0, 64, 86
1, 32675, Control_c, 0, 64, 91
1, 32680, Note_off_c, 0, 58, 57
1, 32690, Control_c, 0, 64, 96
1, 32695, Note_off_c, 0, 43, 53
1, 32697, Note_off_c, 0, 62, 49
1, 32705, Control_c, 0, 64, 103
1, 32720, Control_c, 0, 64, 109
1, 32734, Control_c, 0, 64, 118
1, 32749, Control_c, 0, 64, 127
1, 32904, Note_on_c, 0, 58, 51
1, 32912, Note_on_c, 0, 62, 60
1, 32916, Note_on_c, 0, 43, 45
1, 32934, Note_off_c, 0, 67, 57
1, 32935, Note_off_c, 0, 58, 63
1, 32950, Note_off_c, 0, 62, 60
1, 32963, Note_off_c, 0, 43, 60
1, 33202, Note_on_c, 0, 74, 75
1, 33209, Control_c, 0, 64, 92
1, 33223, Control_c, 0, 64, 72
1, 33238, Control_c, 0, 64, 56
1, 33253, Control_c, 0, 64, 0
1, 33379, Control_c, 0, 64, 29
1, 33394, Control_c, 0, 64, 55
1, 33408, Control_c, 0, 64, 61
1, 33423, Control_c, 0, 64, 63
1, 33438, Control_c, 0, 64, 64
1, 33453, Control_c, 0, 64, 65
1, 33468, Control_c, 0, 64, 68
1, 33482, Control_c, 0, 64, 72
1, 33497, Control_c, 0, 64, 78
1, 33504, Note_on_c, 0, 67, 46
1, 33512, Control_c, 0, 64, 85
1, 33519, Note_on_c, 0, 62, 44
1, 33526, Note_on_c, 0, 58, 37
1, 33526, Control_c, 0, 64, 93
1, 33541, Control_c, 0, 64, 103
1, 33556, Control_c, 0, 64, 115
1, 33571, Control_c, 0, 64, 127
1, 33580, Note_off_c, 0, 62, 48
1, 33593, Note_off_c, 0, 58, 41
1, 33596, Note_off_c, 0, 67, 54
1, 33792, Note_on_c, 0, 67, 39
1, 33809, Note_on_c, 0, 58, 35
1, 33817, Note_on_c, 0, 62, 30
1, 33855, Note_off_c, 0, 58, 46
1, 33913, Note_off_c, 0, 62, 33
1, 33940, Note_off_c, 0, 67, 29
1, 34064, Note_off_c, 0, 74, 47
1, 34091, Control_c, 0, 64, 107
1, 34102, Note_on_c, 0, 72, 50
1, 34112, Control_c, 0, 64, 89
1, 34127, Control_c, 0, 64, 74
1, 34142, Control_c, 0, 64, 63
1, 34157, Control_c, 0, 64, 44
1, 34171, Control_c, 0, 64, 0
1, 34291, Control_c, 0, 64, 19
1, 34306, Control_c, 0, 64, 28
1, 34320, Control_c, 0, 64, 37
1, 34335, Control_c, 0, 64, 46
1, 34350, Control_c, 0, 64, 53
1, 34365, Control_c, 0, 64, 59
1, 34380, Control_c, 0, 64, 64
1, 34395, Control_c, 0, 64, 67
1, 34410, Control_c, 0, 64, 72
1, 34424, Control_c, 0, 64, 76
1, 34433, Note_on_c, 0, 67, 36
1, 34439, Control_c, 0, 64, 81
1, 34443, Note_on_c, 0, 60, 36
1, 34454, Control_c, 0, 64, 84
1, 34464, Note_on_c, 0, 57, 33
1, 34469, Control_c, 0, 64, 88
1, 34471, Note_on_c, 0, 63, 16
1, 34484, Control_c, 0, 64, 91
1, 34498, Control_c, 0, 64, 94
1, 34513, Control_c, 0, 64, 97
1, 34517, Note_off_c, 0, 57, 42
1, 34522, Note_off_c, 0, 63, 44
1, 34528, Control_c, 0, 64, 100
1, 34538, Note_off_c, 0, 60, 46
1, 34542, Control_c, 0, 64, 102
1, 34547, Note_off_c, 0, 67, 49
1, 34557, Control_c, 0, 64, 105
1, 34572, Control_c, 0, 64, 108
1, 34587, Control_c, 0, 64, 110
1, 34602, Control_c, 0, 64, 112
1, 34616, Control_c, 0, 64, 114
1, 34631, Control_c, 0, 64, 116
1, 34646, Control_c, 0, 64, 118
1, 34661, Control_c, 0, 64, 120
1, 34677, Control_c, 0, 64, 124
1, 34692, Control_c, 0, 64, 127
1, 34803, Note_on_c, 0, 67, 37
1, 34811, Note_on_c, 0, 60, 37
1, 34818, Note_on_c, 0, 57, 35
1, 34870, Note_on_c, 0, 63, 5
1, 34878, Note_off_c, 0, 57, 47
1, 34934, Note_off_c, 0, 60, 44
1, 34955, Note_off_c, 0, 72, 39
1, 34958, Note_off_c, 0, 63, 34
1, 34992, Note_off_c, 0, 67, 39
1, 35262, Control_c, 0, 64, 120
1, 35277, Control_c, 0, 64, 110
1, 35291, Control_c, 0, 64, 101
1, 35306, Control_c, 0, 64, 91
1, 35321, Control_c, 0, 64, 80
1, 35336, Control_c, 0, 64, 70
1, 35351, Control_c, 0, 64, 60
1, 35366, Control_c, 0, 64, 31
1, 35380, Control_c, 0, 64, 0
1, 35596, Control_c, 0, 64, 26
1, 35611, Control_c, 0, 64, 45
1, 35626, Control_c, 0, 64, 57
1, 35641, Control_c, 0, 64, 64
1, 35651, Note_on_c, 0, 60, 40
1, 35656, Control_c, 0, 64, 67
1, 35670, Control_c, 0, 64, 71
1, 35685, Control_c, 0, 64, 75
1, 35700, Control_c, 0, 64, 78
1, 35715, Control_c, 0, 64, 80
1, 35729, Control_c, 0, 64, 83
1, 35744, Control_c, 0, 64, 85
1, 35759, Control_c, 0, 64, 89
1, 35774, Control_c, 0, 64, 92
1, 35789, Control_c, 0, 64, 94
1, 35803, Control_c, 0, 64, 97
1, 35818, Control_c, 0, 64, 101
1, 35833, Control_c, 0, 64, 105
1, 35848, Control_c, 0, 64, 109
1, 35863, Control_c, 0, 64, 115
1, 35877, Control_c, 0, 64, 124
1, 35892, Control_c, 0, 64, 127
1, 35984, Note_off_c, 0, 60, 55
1, 36002, Note_on_c, 0, 62, 49
1, 36008, Note_on_c, 0, 38, 36
1, 36070, Note_off_c, 0, 38, 46
1, 36086, Note_off_c, 0, 62, 56
1, 36115, Note_on_c, 0, 66, 59
1, 36236, Note_off_c, 0, 66, 53
1, 36240, Note_on_c, 0, 70, 72
1, 36247, Note_on_c, 0, 38, 48
1, 36292, Note_off_c, 0, 38, 61
1, 36306, Note_off_c, 0, 70, 57
1, 36360, Note_on_c, 0, 69, 76
1, 36508, Control_c, 0, 64, 108
1, 36511, Note_on_c, 0, 67, 71
1, 36523, Control_c, 0, 64, 89
1, 36538, Control_c, 0, 64, 74
1, 36550, Note_off_c, 0, 69, 59
1, 36552, Control_c, 0, 64, 60
1, 36567, Control_c, 0, 64, 28
1, 36582, Control_c, 0, 64, 0
1, 36730, Control_c, 0, 64, 29
1, 36744, Control_c, 0, 64, 45
1, 36759, Control_c, 0, 64, 58
1, 36774, Control_c, 0, 64, 64
1, 36789, Control_c, 0, 64, 68
1, 36804, Control_c, 0, 64, 73
1, 36807, Note_on_c, 0, 62, 42
1, 36812, Note_on_c, 0, 43, 37
1, 36813, Note_on_c, 0, 58, 46
1, 36818, Control_c, 0, 64, 79
1, 36833, Control_c, 0, 64, 83
1, 36848, Control_c, 0, 64, 89
1, 36863, Note_off_c, 0, 58, 58
1, 36863, Control_c, 0, 64, 94
1, 36878, Control_c, 0, 64, 100
1, 36879, Note_off_c, 0, 62, 55
1, 36880, Note_off_c, 0, 43, 55
1, 36893, Control_c, 0, 64, 108
1, 36908, Control_c, 0, 64, 124
1, 36923, Control_c, 0, 64, 127
1, 37075, Note_on_c, 0, 43, 41
1, 37081, Note_on_c, 0, 62, 62
1, 37093, Note_off_c, 0, 67, 56
1, 37096, Note_on_c, 0, 58, 56
1, 37145, Note_off_c, 0, 43, 54
1, 37152, Note_off_c, 0, 58, 52
1, 37192, Note_off_c, 0, 62, 58
1, 37370, Note_on_c, 0, 64, 69
1, 37420, Control_c, 0, 64, 93
1, 37435, Control_c, 0, 64, 72
1, 37449, Control_c, 0, 64, 58
1, 37464, Control_c, 0, 64, 0
1, 37641, Control_c, 0, 64, 19
1, 37656, Control_c, 0, 64, 45
1, 37671, Control_c, 0, 64, 56
1, 37686, Control_c, 0, 64, 61
1, 37701, Control_c, 0, 64, 63
1, 37716, Control_c, 0, 64, 65
1, 37729, Note_on_c, 0, 61, 36
1, 37731, Control_c, 0, 64, 69
1, 37741, Note_on_c, 0, 45, 27
1, 37746, Control_c, 0, 64, 73
1, 37748, Note_on_c, 0, 55, 33
1, 37754, Note_on_c, 0, 57, 34
1, 37760, Control_c, 0, 64, 77
1, 37775, Control_c, 0, 64, 82
1, 37790, Control_c, 0, 64, 88
1, 37805, Control_c, 0, 64, 93
1, 37817, Note_off_c, 0, 57, 47
1, 37819, Control_c, 0, 64, 98
1, 37822, Note_off_c, 0, 55, 50
1, 37832, Note_off_c, 0, 45, 37
1, 37834, Control_c, 0, 64, 104
1, 37856, Control_c, 0, 64, 108
1, 37872, Control_c, 0, 64, 113
1, 37876, Note_off_c, 0, 61, 32
1, 37887, Control_c, 0, 64, 117
1, 37902, Control_c, 0, 64, 121
1, 37917, Control_c, 0, 64, 127
1, 38053, Note_on_c, 0, 61, 40
1, 38056, Note_on_c, 0, 45, 34
1, 38087, Note_off_c, 0, 64, 49
1, 38094, Note_on_c, 0, 55, 27
1, 38097, Note_on_c, 0, 57, 26
1, 38129, Note_off_c, 0, 45, 50
1, 38158, Note_off_c, 0, 57, 43
1, 38163, Note_off_c, 0, 55, 45
1, 38212, Note_off_c, 0, 61, 33
1, 38396, Note_on_c, 0, 66, 49
1, 38479, Control_c, 0, 64, 109
1, 38494, Control_c, 0, 64, 93
1, 38509, Control_c, 0, 64, 80
1, 38524, Control_c, 0, 64, 67
1, 38538, Control_c, 0, 64, 57
1, 38553, Control_c, 0, 64, 36
1, 38568, Control_c, 0, 64, 22
1, 38680, Control_c, 0, 64, 23
1, 38695, Control_c, 0, 64, 25
1, 38710, Control_c, 0, 64, 26
1, 38725, Control_c, 0, 64, 28
1, 38740, Control_c, 0, 64, 36
1, 38754, Control_c, 0, 64, 47
1, 38769, Control_c, 0, 64, 57
1, 38784, Control_c, 0, 64, 64
1, 38788, Note_on_c, 0, 62, 32
1, 38793, Note_on_c, 0, 54, 27
1, 38799, Control_c, 0, 64, 69
1, 38812, Note_on_c, 0, 38, 24
1, 38814, Control_c, 0, 64, 76
1, 38828, Note_on_c, 0, 57, 3
1, 38828, Control_c, 0, 64, 85
1, 38843, Control_c, 0, 64, 91
1, 38858, Control_c, 0, 64, 96
1, 38872, Control_c, 0, 64, 99
1, 38887, Control_c, 0, 64, 102
1, 38902, Control_c, 0, 64, 105
1, 38917, Control_c, 0, 64, 108
1, 38918, Note_off_c, 0, 38, 37
1, 38932, Control_c, 0, 64, 110
1, 38934, Note_off_c, 0, 54, 35
1, 38941, Note_off_c, 0, 57, 33
1, 38947, Control_c, 0, 64, 113
1, 38962, Control_c, 0, 64, 115
1, 38974, Note_off_c, 0, 62, 33
1, 38977, Control_c, 0, 64, 117
1, 38992, Control_c, 0, 64, 120
1, 39006, Control_c, 0, 64, 121
1, 39021, Control_c, 0, 64, 124
1, 39036, Control_c, 0, 64, 127
1, 39214, Note_on_c, 0, 62, 38
1, 39215, Note_on_c, 0, 38, 36
1, 39227, Note_on_c, 0, 54, 30
1, 39227, Note_on_c, 0, 57, 27
1, 39378, Note_off_c, 0, 38, 35
1, 39409, Note_off_c, 0, 54, 38
1, 39435, Note_off_c, 0, 57, 36
1, 39490, Note_off_c, 0, 62, 31
1, 39549, Note_off_c, 0, 66, 51
1, 39695, Control_c, 0, 64, 124
1, 39725, Control_c, 0, 64, 121
1, 39740, Control_c, 0, 64, 120
1, 39755, Control_c, 0, 64, 118
1, 39770, Control_c, 0, 64, 116
1, 39784, Control_c, 0, 64, 113
1, 39799, Control_c, 0, 64, 110
1, 39814, Control_c, 0, 64, 105
1, 39829, Control_c, 0, 64, 101
1, 39844, Control_c, 0, 64, 95
1, 39859, Control_c, 0, 64, 89
1, 39874, Control_c, 0, 64, 81
1, 39888, Control_c, 0, 64, 73
1, 39903, Control_c, 0, 64, 65
1, 39918, Control_c, 0, 64, 52
1, 39933, Control_c, 0, 64, 37
1, 39948, Control_c, 0, 64, 27
1, 39962, Control_c, 0, 64, 24
1, 39977, Control_c, 0, 64, 23
1, 39992, Control_c, 0, 64, 22
1, 40007, Control_c, 0, 64, 17
1, 40009, Note_on_c, 0, 60, 50
1, 40021, Control_c, 0, 64, 14
1, 40088, Control_c, 0, 64, 17
1, 40103, Control_c, 0, 64, 24
1, 40118, Control_c, 0, 64, 40
1, 40133, Control_c, 0, 64, 53
1, 40148, Control_c, 0, 64, 62
1, 40162, Control_c, 0, 64, 67
1, 40177, Control_c, 0, 64, 73
1, 40192, Control_c, 0, 64, 79
1, 40207, Control_c, 0, 64, 85
1, 40221, Control_c, 0, 64, 87
1, 40236, Control_c, 0, 64, 90
1, 40251, Control_c, 0, 64, 92
1, 40267, Control_c, 0, 64, 94
1, 40282, Control_c, 0, 64, 97
1, 40296, Note_on_c, 0, 50, 36
1, 40297, Control_c, 0, 64, 100
1, 40303, Note_off_c, 0, 60, 55
1, 40303, Note_on_c, 0, 62, 54
1, 40311, Control_c, 0, 64, 104
1, 40326, Control_c, 0, 64, 108
1, 40341, Control_c, 0, 64, 113
1, 40356, Control_c, 0, 64, 120
1, 40366, Note_off_c, 0, 50, 51
1, 40371, Control_c, 0, 64, 127
1, 40397, Note_off_c, 0, 62, 56
1, 40415, Note_on_c, 0, 66, 66
1, 40536, Note_off_c, 0, 66, 57
1, 40542, Note_on_c, 0, 70, 74
1, 40549, Note_on_c, 0, 50, 36
1, 40604, Note_off_c, 0, 70, 59
1, 40625, Note_off_c, 0, 50, 50
1, 40652, Note_on_c, 0, 69, 78
1, 40800, Control_c, 0, 64, 113
1, 40805, Note_on_c, 0, 67, 75
1, 40815, Control_c, 0, 64, 92
1, 40830, Control_c, 0, 64, 76
1, 40852, Control_c, 0, 64, 64
1, 40855, Note_off_c, 0, 69, 58
1, 40867, Control_c, 0, 64, 37
1, 40881, Control_c, 0, 64, 0
1, 41045, Control_c, 0, 64, 32
1, 41060, Control_c, 0, 64, 49
1, 41075, Control_c, 0, 64, 60
1, 41090, Control_c, 0, 64, 64
1, 41104, Note_on_c, 0, 62, 48
1, 41105, Control_c, 0, 64, 68
1, 41108, Note_on_c, 0, 58, 49
1, 41120, Note_on_c, 0, 43, 38
1, 41120, Control_c, 0, 64, 72
1, 41135, Control_c, 0, 64, 76
1, 41150, Control_c, 0, 64, 81
1, 41165, Control_c, 0, 64, 87
1, 41180, Control_c, 0, 64, 93
1, 41184, Note_off_c, 0, 43, 55
1, 41186, Note_off_c, 0, 58, 52
1, 41194, Note_off_c, 0, 62, 55
1, 41194, Control_c, 0, 64, 101
1, 41209, Control_c, 0, 64, 111
1, 41224, Control_c, 0, 64, 127
1, 41379, Note_on_c, 0, 62, 64
1, 41380, Note_on_c, 0, 58, 51
1, 41387, Note_on_c, 0, 43, 45
1, 41403, Note_off_c, 0, 58, 63
1, 41406, Note_off_c, 0, 67, 54
1, 41435, Note_off_c, 0, 43, 59
1, 41436, Note_off_c, 0, 62, 58
1, 41683, Note_on_c, 0, 79, 80
1, 41689, Control_c, 0, 64, 100
1, 41704, Control_c, 0, 64, 74
1, 41719, Control_c, 0, 64, 59
1, 41734, Control_c, 0, 64, 0
1, 41793, Control_c, 0, 64, 59
1, 41808, Control_c, 0, 64, 68
1, 41823, Control_c, 0, 64, 75
1, 41838, Control_c, 0, 64, 82
1, 41853, Control_c, 0, 64, 88
1, 41868, Control_c, 0, 64, 91
1, 41883, Control_c, 0, 64, 94
1, 41898, Control_c, 0, 64, 99
1, 41913, Control_c, 0, 64, 104
1, 41928, Control_c, 0, 64, 111
1, 41943, Control_c, 0, 64, 120
1, 41957, Control_c, 0, 64, 127
1, 42002, Note_on_c, 0, 73, 55
1, 42011, Note_on_c, 0, 64, 37
1, 42023, Note_on_c, 0, 67, 40
1, 42035, Note_on_c, 0, 70, 40
1, 42054, Note_off_c, 0, 67, 51
1, 42067, Note_off_c, 0, 64, 53
1, 42067, Note_off_c, 0, 70, 53
1, 42084, Note_off_c, 0, 73, 57
1, 42271, Note_on_c, 0, 73, 60
1, 42286, Note_on_c, 0, 70, 56
1, 42291, Note_on_c, 0, 67, 39
1, 42305, Note_on_c, 0, 64, 34
1, 42320, Note_off_c, 0, 67, 53
1, 42325, Note_off_c, 0, 70, 62
1, 42343, Note_off_c, 0, 64, 54
1, 42346, Note_off_c, 0, 73, 61
1, 42385, Note_off_c, 0, 79, 58
1, 42601, Control_c, 0, 64, 111
1, 42616, Control_c, 0, 64, 80
1, 42616, Note_on_c, 0, 77, 75
1, 42631, Control_c, 0, 64, 65
1, 42646, Control_c, 0, 64, 49
1, 42661, Control_c, 0, 64, 45
1, 42676, Control_c, 0, 64, 54
1, 42691, Control_c, 0, 64, 63
1, 42706, Control_c, 0, 64, 70
1, 42721, Control_c, 0, 64, 84
1, 42736, Control_c, 0, 64, 107
1, 42750, Control_c, 0, 64, 127
1, 42987, Note_on_c, 0, 72, 57
1, 42993, Note_on_c, 0, 70, 54
1, 43014, Note_on_c, 0, 65, 39
1, 43039, Note_off_c, 0, 70, 56
1, 43058, Note_off_c, 0, 72, 57
1, 43066, Note_off_c, 0, 65, 43
1, 43282, Note_on_c, 0, 72, 67
1, 43283, Note_on_c, 0, 70, 59
1, 43299, Note_on_c, 0, 65, 39
1, 43321, Note_off_c, 0, 70, 58
1, 43348, Note_off_c, 0, 72, 60
1, 43348, Note_off_c, 0, 77, 61
1, 43352, Note_off_c, 0, 65, 50
1, 43618, Note_on_c, 0, 63, 75
1, 43618, Control_c, 0, 64, 98
1, 43633, Control_c, 0, 64, 75
1, 43648, Control_c, 0, 64, 60
1, 43662, Control_c, 0, 64, 12
1, 43677, Control_c, 0, 64, 0
1, 43692, Control_c, 0, 64, 26
1, 43707, Control_c, 0, 64, 52
1, 43722, Control_c, 0, 64, 64
1, 43736, Control_c, 0, 64, 71
1, 43751, Control_c, 0, 64, 81
1, 43766, Control_c, 0, 64, 92
1, 43780, Control_c, 0, 64, 104
1, 43795, Control_c, 0, 64, 112
1, 43800, Note_on_c, 0, 65, 74
1, 43810, Control_c, 0, 64, 120
1, 43833, Control_c, 0, 64, 127
1, 43864, Note_off_c, 0, 63, 58
1, 43971, Note_on_c, 0, 69, 74
1, 43981, Note_on_c, 0, 41, 47
1, 43987, Note_off_c, 0, 65, 57
1, 44029, Note_off_c, 0, 41, 55
1, 44102, Note_on_c, 0, 75, 81
1, 44104, Note_off_c, 0, 69, 56
1, 44188, Note_off_c, 0, 75, 58
1, 44326, Note_on_c, 0, 74, 68
1, 44335, Note_on_c, 0, 41, 45
1, 44439, Note_off_c, 0, 41, 52
1, 44584, Note_off_c, 0, 74, 35
1, 44783, Note_on_c, 0, 73, 75
1, 44839, Note_off_c, 0, 73, 58
1, 44887, Note_on_c, 0, 73, 71
1, 44923, Control_c, 0, 64, 99
1, 44937, Control_c, 0, 64, 83
1, 44952, Control_c, 0, 64, 70
1, 44967, Control_c, 0, 64, 59
1, 44982, Control_c, 0, 64, 41
1, 44997, Control_c, 0, 64, 28
1, 45011, Control_c, 0, 64, 26
1, 45116, Control_c, 0, 64, 27
1, 45131, Control_c, 0, 64, 28
1, 45146, Control_c, 0, 64, 29
1, 45160, Control_c, 0, 64, 31
1, 45175, Control_c, 0, 64, 34
1, 45190, Control_c, 0, 64, 36
1, 45205, Control_c, 0, 64, 39
1, 45220, Control_c, 0, 64, 42
1, 45234, Control_c, 0, 64, 47
1, 45249, Control_c, 0, 64, 53
1, 45264, Control_c, 0, 64, 58
1, 45279, Control_c, 0, 64, 62
1, 45294, Control_c, 0, 64, 65
1, 45308, Control_c, 0, 64, 70
1, 45323, Control_c, 0, 64, 77
1, 45340, Note_on_c, 0, 46, 40
1, 45346, Note_on_c, 0, 63, 41
1, 45346, Control_c, 0, 64, 85
1, 45350, Note_on_c, 0, 69, 50
1, 45360, Control_c, 0, 64, 94
1, 45362, Note_on_c, 0, 65, 37
1, 45375, Control_c, 0, 64, 101
1, 45390, Control_c, 0, 64, 109
1, 45403, Note_off_c, 0, 63, 47
1, 45405, Control_c, 0, 64, 127
1, 45417, Note_off_c, 0, 65, 41
1, 45421, Note_off_c, 0, 46, 51
1, 45445, Note_off_c, 0, 69, 52
1, 45606, Note_on_c, 0, 69, 59
1, 45624, Note_on_c, 0, 63, 49
1, 45630, Note_on_c, 0, 65, 52
1, 45635, Note_on_c, 0, 46, 45
1, 45650, Note_off_c, 0, 63, 59
1, 45665, Note_off_c, 0, 65, 64
1, 45685, Note_off_c, 0, 73, 34
1, 45693, Note_off_c, 0, 46, 55
1, 45693, Note_off_c, 0, 69, 60
1, 45898, Note_on_c, 0, 74, 77
1, 45939, Control_c, 0, 64, 106
1, 45954, Control_c, 0, 64, 80
1, 45969, Control_c, 0, 64, 65
1, 45983, Control_c, 0, 64, 42
1, 45998, Control_c, 0, 64, 0
1, 46110, Control_c, 0, 64, 33
1, 46125, Control_c, 0, 64, 55
1, 46139, Control_c, 0, 64, 63
1, 46154, Control_c, 0, 64, 67
1, 46168, Control_c, 0, 64, 70
1, 46182, Control_c, 0, 64, 74
1, 46197, Control_c, 0, 64, 78
1, 46200, Note_on_c, 0, 70, 49
1, 46212, Control_c, 0, 64, 82
1, 46215, Note_on_c, 0, 62, 42
1, 46217, Note_on_c, 0, 65, 39
1, 46227, Note_on_c, 0, 58, 38
1, 46227, Control_c, 0, 64, 87
1, 46242, Control_c, 0, 64, 93
1, 46256, Control_c, 0, 64, 97
1, 46271, Control_c, 0, 64, 102
1, 46275, Note_off_c, 0, 62, 52
1, 46277, Note_off_c, 0, 58, 46
1, 46277, Note_off_c, 0, 65, 53
1, 46286, Control_c, 0, 64, 106
1, 46298, Note_off_c, 0, 70, 49
1, 46301, Control_c, 0, 64, 110
1, 46316, Control_c, 0, 64, 113
1, 46331, Control_c, 0, 64, 116
1, 46345, Control_c, 0, 64, 118
1, 46360, Control_c, 0, 64, 121
1, 46390, Control_c, 0, 64, 124
1, 46420, Control_c, 0, 64, 127
1, 46493, Note_on_c, 0, 70, 43
1, 46517, Note_on_c, 0, 65, 36
1, 46521, Note_on_c, 0, 62, 35
1, 46529, Note_on_c, 0, 58, 33
1, 46563, Note_off_c, 0, 65, 44
1, 46574, Note_off_c, 0, 58, 46
1, 46575, Note_off_c, 0, 62, 41
1, 46627, Note_off_c, 0, 70, 36
1, 46804, Note_off_c, 0, 74, 54
1, 46820, Control_c, 0, 64, 116
1, 46831, Note_on_c, 0, 72, 53
1, 46843, Control_c, 0, 64, 101
1, 46858, Control_c, 0, 64, 89
1, 46873, Control_c, 0, 64, 77
1, 46887, Control_c, 0, 64, 66
1, 46902, Control_c, 0, 64, 52
1, 46916, Control_c, 0, 64, 14
1, 46930, Control_c, 0, 64, 0
1, 47019, Control_c, 0, 64, 9
1, 47034, Control_c, 0, 64, 27
1, 47049, Control_c, 0, 64, 39
1, 47064, Control_c, 0, 64, 48
1, 47079, Control_c, 0, 64, 55
1, 47094, Control_c, 0, 64, 60
1, 47109, Control_c, 0, 64, 63
1, 47123, Control_c, 0, 64, 66
1, 47138, Control_c, 0, 64, 70
1, 47152, Note_on_c, 0, 67, 35
1, 47153, Control_c, 0, 64, 74
1, 47168, Control_c, 0, 64, 77
1, 47175, Note_on_c, 0, 57, 35
1, 47177, Note_on_c, 0, 63, 26
1, 47183, Control_c, 0, 64, 80
1, 47198, Control_c, 0, 64, 83
1, 47212, Control_c, 0, 64, 85
1, 47227, Control_c, 0, 64, 88
1, 47242, Control_c, 0, 64, 90
1, 47249, Note_off_c, 0, 63, 37
1, 47254, Note_off_c, 0, 57, 45
1, 47257, Control_c, 0, 64, 91
1, 47272, Control_c, 0, 64, 93
1, 47286, Control_c, 0, 64, 94
1, 47287, Note_off_c, 0, 67, 35
1, 47301, Control_c, 0, 64, 95
1, 47316, Control_c, 0, 64, 95
1, 47330, Control_c, 0, 64, 96
1, 47360, Control_c, 0, 64, 97
1, 47375, Control_c, 0, 64, 97
1, 47547, Note_on_c, 0, 67, 36
1, 47579, Note_on_c, 0, 63, 28
1, 47585, Note_on_c, 0, 57, 24
1, 47632, Note_off_c, 0, 57, 45
1, 47638, Note_off_c, 0, 63, 40
1, 47675, Note_off_c, 0, 72, 52
1, 47692, Note_off_c, 0, 67, 35
1, 47991, Control_c, 0, 64, 96
1, 48006, Control_c, 0, 64, 96
1, 48021, Control_c, 0, 64, 95
1, 48035, Control_c, 0, 64, 91
1, 48050, Control_c, 0, 64, 86
1, 48065, Control_c, 0, 64, 79
1, 48079, Control_c, 0, 64, 71
1, 48094, Control_c, 0, 64, 63
1, 48109, Control_c, 0, 64, 50
1, 48124, Control_c, 0, 64, 28
1, 48139, Control_c, 0, 64, 20
1, 48213, Control_c, 0, 64, 19
1, 48288, Control_c, 0, 64, 23
1, 48303, Control_c, 0, 64, 33
1, 48304, Note_on_c, 0, 60, 42
1, 48325, Control_c, 0, 64, 50
1, 48340, Control_c, 0, 64, 61
1, 48355, Control_c, 0, 64, 66
1, 48369, Control_c, 0, 64, 72
1, 48384, Control_c, 0, 64, 80
1, 48399, Control_c, 0, 64, 86
1, 48414, Control_c, 0, 64, 90
1, 48429, Control_c, 0, 64, 93
1, 48444, Control_c, 0, 64, 97
1, 48458, Control_c, 0, 64, 101
1, 48473, Control_c, 0, 64, 106
1, 48488, Control_c, 0, 64, 113
1, 48502, Control_c, 0, 64, 127
1, 48524, Note_off_c, 0, 60, 57
1, 48527, Note_on_c, 0, 38, 40
1, 48542, Note_on_c, 0, 62, 52
1, 48604, Note_off_c, 0, 38, 52
1, 48631, Note_off_c, 0, 62, 56
1, 48648, Note_on_c, 0, 66, 59
1, 48764, Note_on_c, 0, 38, 48
1, 48771, Note_off_c, 0, 66, 57
1, 48772, Note_on_c, 0, 70, 74
1, 48823, Note_off_c, 0, 38, 57
1, 48838, Note_off_c, 0, 70, 55
1, 48881, Note_on_c, 0, 69, 79
1, 49027, Note_on_c, 0, 67, 75
1, 49036, Control_c, 0, 64, 118
1, 49052, Control_c, 0, 64, 83
1, 49064, Note_off_c, 0, 69, 60
1, 49067, Control_c, 0, 64, 66
1, 49088, Control_c, 0, 64, 45
1, 49103, Control_c, 0, 64, 0
1, 49222, Control_c, 0, 64, 34
1, 49237, Control_c, 0, 64, 51
1, 49252, Control_c, 0, 64, 59
1, 49267, Control_c, 0, 64, 63
1, 49281, Control_c, 0, 64, 65
1, 49296, Control_c, 0, 64, 68
1, 49311, Control_c, 0, 64, 73
1, 49325, Control_c, 0, 64, 79
1, 49329, Note_on_c, 0, 62, 51
1, 49333, Note_on_c, 0, 58, 43
1, 49334, Note_on_c, 0, 43, 42
1, 49340, Control_c, 0, 64, 87
1, 49355, Control_c, 0, 64, 98
1, 49370, Control_c, 0, 64, 117
1, 49384, Note_off_c, 0, 58, 57
1, 49385, Control_c, 0, 64, 127
1, 49407, Note_off_c, 0, 43, 55
1, 49412, Note_off_c, 0, 62, 57
1, 49590, Note_on_c, 0, 62, 67
1, 49592, Note_on_c, 0, 43, 50
1, 49611, Note_on_c, 0, 58, 37
1, 49621, Note_off_c, 0, 67, 56
1, 49639, Note_off_c, 0, 58, 55
1, 49646, Note_off_c, 0, 62, 58
1, 49651, Note_off_c, 0, 43, 58
1, 49872, Note_on_c, 0, 74, 77
1, 49911, Control_c, 0, 64, 84
1, 49926, Control_c, 0, 64, 68
1, 49941, Control_c, 0, 64, 53
1, 49955, Control_c, 0, 64, 14
1, 49970, Control_c, 0, 64, 0
1, 50045, Control_c, 0, 64, 34
1, 50060, Control_c, 0, 64, 53
1, 50074, Control_c, 0, 64, 62
1, 50089, Control_c, 0, 64, 67
1, 50104, Control_c, 0, 64, 72
1, 50119, Control_c, 0, 64, 78
1, 50134, Control_c, 0, 64, 83
1, 50146, Note_on_c, 0, 67, 49
1, 50148, Control_c, 0, 64, 88
1, 50163, Control_c, 0, 64, 94
1, 50169, Note_on_c, 0, 58, 42
1, 50170, Note_on_c, 0, 62, 41
1, 50178, Control_c, 0, 64, 101
1, 50193, Control_c, 0, 64, 111
1, 50208, Control_c, 0, 64, 127
1, 50218, Note_off_c, 0, 58, 49
1, 50225, Note_off_c, 0, 62, 54
1, 50282, Note_off_c, 0, 67, 36
1, 50425, Note_on_c, 0, 67, 44
1, 50450, Note_on_c, 0, 58, 37
1, 50450, Note_on_c, 0, 62, 36
1, 50493, Note_off_c, 0, 62, 52
1, 50496, Note_off_c, 0, 58, 53
1, 50558, Note_off_c, 0, 67, 35
1, 50727, Note_off_c, 0, 74, 51
1, 50742, Note_on_c, 0, 72, 51
1, 50808, Control_c, 0, 64, 90
1, 50823, Control_c, 0, 64, 75
1, 50838, Control_c, 0, 64, 65
1, 50853, Control_c, 0, 64, 51
1, 50867, Control_c, 0, 64, 36
1, 50882, Control_c, 0, 64, 34
1, 50957, Control_c, 0, 64, 35
1, 50971, Control_c, 0, 64, 36
1, 50986, Control_c, 0, 64, 37
1, 51001, Control_c, 0, 64, 39
1, 51016, Control_c, 0, 64, 42
1, 51031, Control_c, 0, 64, 46
1, 51045, Control_c, 0, 64, 53
1, 51060, Control_c, 0, 64, 60
1, 51075, Control_c, 0, 64, 64
1, 51090, Control_c, 0, 64, 71
1, 51094, Note_on_c, 0, 67, 31
1, 51104, Control_c, 0, 64, 79
1, 51119, Control_c, 0, 64, 89
1, 51123, Note_on_c, 0, 60, 25
1, 51125, Note_on_c, 0, 57, 25
1, 51134, Control_c, 0, 64, 96
1, 51139, Note_on_c, 0, 63, 12
1, 51149, Control_c, 0, 64, 104
1, 51164, Control_c, 0, 64, 110
1, 51178, Control_c, 0, 64, 118
1, 51193, Control_c, 0, 64, 127
1, 51197, Note_off_c, 0, 63, 43
1, 51215, Note_off_c, 0, 57, 33
1, 51232, Note_off_c, 0, 67, 41
1, 51245, Note_off_c, 0, 60, 32
1, 51430, Note_on_c, 0, 67, 34
1, 51438, Note_on_c, 0, 60, 19
1, 51465, Note_on_c, 0, 57, 30
1, 51523, Poly_aftertouch_c, 0, 63, 127
1, 51554, Note_off_c, 0, 57, 39
1, 51601, Poly_aftertouch_c, 0, 63, 0
1, 51614, Note_off_c, 0, 72, 37
1, 51620, Note_off_c, 0, 60, 33
1, 51631, Note_off_c, 0, 67, 38
1, 51899, Control_c, 0, 64, 112
1, 51914, Control_c, 0, 64, 99
1, 51928, Control_c, 0, 64, 89
1, 51943, Control_c, 0, 64, 80
1, 51958, Control_c, 0, 64, 71
1, 51973, Control_c, 0, 64, 64
1, 51988, Control_c, 0, 64, 55
1, 52002, Control_c, 0, 64, 49
1, 52017, Control_c, 0, 64, 48
1, 52306, Control_c, 0, 64, 48
1, 52321, Control_c, 0, 64, 49
1, 52336, Control_c, 0, 64, 51
1, 52349, Note_on_c, 0, 60, 42
1, 52350, Control_c, 0, 64, 56
1, 52365, Control_c, 0, 64, 61
1, 52380, Control_c, 0, 64, 65
1, 52395, Control_c, 0, 64, 70
1, 52410, Control_c, 0, 64, 78
1, 52424, Control_c, 0, 64, 86
1, 52439, Control_c, 0, 64, 93
1, 52454, Control_c, 0, 64, 97
1, 52468, Control_c, 0, 64, 101
1, 52483, Control_c, 0, 64, 104
1, 52498, Control_c, 0, 64, 107
1, 52513, Control_c, 0, 64, 109
1, 52528, Control_c, 0, 64, 112
1, 52543, Control_c, 0, 64, 115
1, 52548, Note_on_c, 0, 38, 41
1, 52554, Note_off_c, 0, 60, 51
1, 52558, Control_c, 0, 64, 124
1, 52571, Note_on_c, 0, 62, 47
1, 52573, Control_c, 0, 64, 127
1, 52626, Note_off_c, 0, 38, 50
1, 52650, Note_off_c, 0, 62, 54
1, 52679, Note_on_c, 0, 66, 56
1, 52793, Note_off_c, 0, 66, 56
1, 52804, Note_on_c, 0, 70, 63
1, 52806, Note_on_c, 0, 38, 40
1, 52867, Note_off_c, 0, 70, 56
1, 52886, Note_off_c, 0, 38, 51
1, 52907, Note_on_c, 0, 69, 69
1, 53052, Note_on_c, 0, 67, 68
1, 53085, Control_c, 0, 64, 109
1, 53088, Note_off_c, 0, 69, 51
1, 53099, Control_c, 0, 64, 95
1, 53114, Control_c, 0, 64, 82
1, 53129, Control_c, 0, 64, 71
1, 53144, Control_c, 0, 64, 62
1, 53159, Control_c, 0, 64, 46
1, 53173, Control_c, 0, 64, 30
1, 53188, Control_c, 0, 64, 28
1, 53277, Control_c, 0, 64, 28
1, 53291, Control_c, 0, 64, 31
1, 53306, Control_c, 0, 64, 34
1, 53321, Control_c, 0, 64, 41
1, 53336, Control_c, 0, 64, 51
1, 53351, Control_c, 0, 64, 59
1, 53365, Control_c, 0, 64, 65
1, 53380, Control_c, 0, 64, 71
1, 53393, Note_on_c, 0, 62, 41
1, 53395, Control_c, 0, 64, 78
1, 53401, Note_on_c, 0, 43, 35
1, 53405, Note_on_c, 0, 58, 46
1, 53410, Control_c, 0, 64, 86
1, 53425, Control_c, 0, 64, 91
1, 53440, Control_c, 0, 64, 96
1, 53455, Control_c, 0, 64, 101
1, 53459, Note_off_c, 0, 58, 56
1, 53469, Note_off_c, 0, 43, 49
1, 53470, Control_c, 0, 64, 109
1, 53485, Control_c, 0, 64, 127
1, 53491, Note_off_c, 0, 62, 50
1, 53670, Note_on_c, 0, 62, 58
1, 53675, Note_on_c, 0, 43, 40
1, 53685, Note_on_c, 0, 58, 47
1, 53685, Note_off_c, 0, 67, 54
1, 53729, Note_off_c, 0, 58, 59
1, 53740, Note_off_c, 0, 62, 58
1, 53747, Note_off_c, 0, 43, 56
1, 53961, Note_on_c, 0, 64, 70
1, 54011, Control_c, 0, 64, 111
1, 54026, Control_c, 0, 64, 85
1, 54040, Control_c, 0, 64, 69
1, 54055, Control_c, 0, 64, 55
1, 54070, Control_c, 0, 64, 29
1, 54085, Control_c, 0, 64, 0
1, 54159, Control_c, 0, 64, 24
1, 54174, Control_c, 0, 64, 40
1, 54188, Control_c, 0, 64, 51
1, 54203, Control_c, 0, 64, 58
1, 54218, Control_c, 0, 64, 62
1, 54233, Control_c, 0, 64, 65
1, 54248, Control_c, 0, 64, 68
1, 54263, Control_c, 0, 64, 74
1, 54278, Control_c, 0, 64, 79
1, 54286, Note_on_c, 0, 61, 41
1, 54293, Control_c, 0, 64, 84
1, 54306, Note_on_c, 0, 45, 37
1, 54307, Control_c, 0, 64, 88
1, 54329, Control_c, 0, 64, 93
1, 54337, Note_on_c, 0, 57, 29
1, 54343, Note_on_c, 0, 55, 29
1, 54344, Control_c, 0, 64, 99
1, 54359, Control_c, 0, 64, 112
1, 54373, Control_c, 0, 64, 127
1, 54407, Note_off_c, 0, 45, 47
1, 54479, Note_off_c, 0, 55, 35
1, 54479, Note_off_c, 0, 61, 43
1, 54489, Note_off_c, 0, 57, 39
1, 54607, Note_on_c, 0, 61, 47
1, 54614, Note_on_c, 0, 45, 30
1, 54631, Note_on_c, 0, 55, 30
1, 54634, Note_on_c, 0, 57, 33
1, 54650, Note_off_c, 0, 64, 50
1, 54676, Note_off_c, 0, 45, 53
1, 54698, Note_off_c, 0, 57, 43
1, 54701, Note_off_c, 0, 55, 47
1, 54761, Note_off_c, 0, 61, 33
1, 54953, Note_on_c, 0, 66, 48
1, 54996, Control_c, 0, 64, 109
1, 55011, Control_c, 0, 64, 92
1, 55026, Control_c, 0, 64, 80
1, 55041, Control_c, 0, 64, 67
1, 55063, Control_c, 0, 64, 59
1, 55078, Control_c, 0, 64, 46
1, 55093, Control_c, 0, 64, 38
1, 55183, Control_c, 0, 64, 38
1, 55197, Control_c, 0, 64, 39
1, 55212, Control_c, 0, 64, 40
1, 55227, Control_c, 0, 64, 40
1, 55242, Control_c, 0, 64, 41
1, 55257, Control_c, 0, 64, 43
1, 55271, Control_c, 0, 64, 45
1, 55286, Control_c, 0, 64, 49
1, 55301, Control_c, 0, 64, 56
1, 55316, Control_c, 0, 64, 62
1, 55331, Control_c, 0, 64, 67
1, 55333, Note_on_c, 0, 54, 31
1, 55339, Note_on_c, 0, 62, 32
1, 55345, Control_c, 0, 64, 77
1, 55351, Note_on_c, 0, 57, 12
1, 55354, Note_on_c, 0, 38, 32
1, 55360, Control_c, 0, 64, 89
1, 55375, Control_c, 0, 64, 101
1, 55389, Control_c, 0, 64, 113
1, 55404, Control_c, 0, 64, 127
1, 55450, Note_off_c, 0, 38, 39
1, 55467, Note_off_c, 0, 54, 33
1, 55505, Note_off_c, 0, 57, 38
1, 55531, Note_off_c, 0, 62, 33
1, 55771, Note_on_c, 0, 62, 29
1, 55774, Note_on_c, 0, 54, 25
1, 55787, Note_on_c, 0, 38, 31
1, 55789, Note_on_c, 0, 57, 15
1, 55922, Note_off_c, 0, 38, 34
1, 55936, Note_off_c, 0, 57, 34
1, 55941, Note_off_c, 0, 54, 40
1, 55976, Note_off_c, 0, 62, 32
1, 56063, Note_off_c, 0, 66, 29
1, 56391, Control_c, 0, 64, 116
1, 56406, Control_c, 0, 64, 107
1, 56421, Control_c, 0, 64, 100
1, 56436, Control_c, 0, 64, 92
1, 56451, Control_c, 0, 64, 85
1, 56466, Control_c, 0, 64, 77
1, 56480, Control_c, 0, 64, 69
1, 56495, Control_c, 0, 64, 63
1, 56510, Control_c, 0, 64, 52
1, 56525, Control_c, 0, 64, 44
1, 56540, Control_c, 0, 64, 42
1, 56739, Control_c, 0, 64, 43
1, 56754, Control_c, 0, 64, 44
1, 56768, Control_c, 0, 64, 47
1, 56783, Control_c, 0, 64, 52
1, 56798, Control_c, 0, 64, 58
1, 56813, Control_c, 0, 64, 62
1, 56828, Control_c, 0, 64, 66
1, 56842, Note_on_c, 0, 60, 36
1, 56842, Control_c, 0, 64, 72
1, 56857, Control_c, 0, 64, 80
1, 56872, Control_c, 0, 64, 87
1, 56887, Control_c, 0, 64, 91
1, 56902, Control_c, 0, 64, 94
1, 56916, Control_c, 0, 64, 96
1, 56931, Control_c, 0, 64, 99
1, 56946, Control_c, 0, 64, 102
1, 56960, Control_c, 0, 64, 106
1, 56975, Control_c, 0, 64, 112
1, 56990, Control_c, 0, 64, 121
1, 57005, Control_c, 0, 64, 127
1, 57145, Note_off_c, 0, 60, 52
1, 57168, Note_on_c, 0, 50, 26
1, 57171, Note_on_c, 0, 62, 47
1, 57232, Note_off_c, 0, 50, 47
1, 57232, Note_off_c, 0, 62, 54
1, 57275, Note_on_c, 0, 66, 54
1, 57406, Note_on_c, 0, 70, 62
1, 57408, Note_on_c, 0, 50, 36
1, 57422, Note_off_c, 0, 66, 35
1, 57443, Note_off_c, 0, 70, 58
1, 57478, Note_off_c, 0, 50, 50
1, 57515, Note_on_c, 0, 69, 70
1, 57651, Control_c, 0, 64, 108
1, 57657, Note_on_c, 0, 67, 72
1, 57665, Control_c, 0, 64, 92
1, 57680, Control_c, 0, 64, 80
1, 57695, Control_c, 0, 64, 69
1, 57703, Note_off_c, 0, 69, 32
1, 57709, Control_c, 0, 64, 60
1, 57724, Control_c, 0, 64, 41
1, 57739, Control_c, 0, 64, 31
1, 57754, Control_c, 0, 64, 31
1, 57829, Control_c, 0, 64, 32
1, 57844, Control_c, 0, 64, 34
1, 57859, Control_c, 0, 64, 36
1, 57874, Control_c, 0, 64, 40
1, 57888, Control_c, 0, 64, 47
1, 57903, Control_c, 0, 64, 55
1, 57918, Control_c, 0, 64, 63
1, 57933, Control_c, 0, 64, 68
1, 57948, Control_c, 0, 64, 75
1, 57955, Note_on_c, 0, 65, 51
1, 57961, Note_on_c, 0, 62, 40
1, 57962, Note_on_c, 0, 59, 38
1, 57962, Control_c, 0, 64, 84
1, 57964, Note_on_c, 0, 55, 43
1, 57977, Control_c, 0, 64, 94
1, 57992, Control_c, 0, 64, 102
1, 58007, Control_c, 0, 64, 112
1, 58020, Note_off_c, 0, 55, 51
1, 58022, Control_c, 0, 64, 127
1, 58024, Note_off_c, 0, 59, 54
1, 58062, Note_off_c, 0, 62, 51
1, 58069, Note_off_c, 0, 65, 53
1, 58224, Note_on_c, 0, 65, 58
1, 58236, Note_on_c, 0, 62, 46
1, 58239, Note_off_c, 0, 67, 56
1, 58251, Note_on_c, 0, 55, 35
1, 58270, Note_off_c, 0, 62, 61
1, 58282, Note_off_c, 0, 65, 60
1, 58289, Note_off_c, 0, 55, 45
1, 58294, Poly_aftertouch_c, 0, 59, 127
1, 58325, Poly_aftertouch_c, 0, 59, 0
1, 58506, Note_on_c, 0, 79, 81
1, 58572, Note_off_c, 0, 79, 62
1, 58810, Note_on_c, 0, 74, 70
1, 58811, Note_on_c, 0, 67, 68
1, 58816, Note_on_c, 0, 43, 58
1, 58820, Note_on_c, 0, 65, 56
1, 58821, Note_on_c, 0, 71, 64
1, 58848, Note_off_c, 0, 65, 57
1, 58858, Note_off_c, 0, 43, 60
1, 58889, Note_off_c, 0, 67, 54
1, 58904, Note_off_c, 0, 71, 54
1, 58945, Note_off_c, 0, 74, 57
1, 59053, Note_on_c, 0, 67, 68
1, 59053, Note_on_c, 0, 74, 78
1, 59059, Note_on_c, 0, 65, 62
1, 59060, Note_on_c, 0, 71, 65
1, 59063, Note_on_c, 0, 43, 68
1, 59087, Note_off_c, 0, 65, 61
1, 59093, Note_off_c, 0, 43, 65
1, 59095, Note_off_c, 0, 67, 59
1, 59116, Note_off_c, 0, 71, 61
1, 59132, Note_off_c, 0, 74, 61
1, 59346, Note_on_c, 0, 79, 90
1, 59386, Control_c, 0, 64, 105
1, 59401, Control_c, 0, 64, 80
1, 59416, Control_c, 0, 64, 66
1, 59432, Control_c, 0, 64, 52
1, 59446, Control_c, 0, 64, 23
1, 59461, Control_c, 0, 64, 0
1, 59550, Control_c, 0, 64, 16
1, 59572, Control_c, 0, 64, 30
1, 59587, Control_c, 0, 64, 44
1, 59602, Control_c, 0, 64, 56
1, 59616, Control_c, 0, 64, 64
1, 59631, Control_c, 0, 64, 68
1, 59631, Control_c, 0, 67, 124
1, 59646, Control_c, 0, 64, 74
1, 59646, Control_c, 0, 67, 116
1, 59661, Control_c, 0, 64, 81
1, 59661, Control_c, 0, 67, 108
1, 59676, Control_c, 0, 64, 88
1, 59676, Control_c, 0, 67, 99
1, 59678, Note_on_c, 0, 75, 73
1, 59687, Note_on_c, 0, 48, 68
1, 59688, Note_on_c, 0, 72, 66
1, 59689, Note_on_c, 0, 67, 62
1, 59691, Control_c, 0, 64, 95
1, 59691, Control_c, 0, 67, 90
1, 59691, Note_on_c, 0, 36, 66
1, 59705, Control_c, 0, 64, 105
1, 59705, Control_c, 0, 67, 82
1, 59720, Control_c, 0, 64, 118
1, 59720, Control_c, 0, 67, 75
1, 59735, Control_c, 0, 64, 127
1, 59735, Control_c, 0, 67, 69
1, 59744, Note_off_c, 0, 67, 46
1, 59750, Control_c, 0, 67, 61
1, 59753, Note_off_c, 0, 36, 60
1, 59765, Control_c, 0, 67, 52
1, 59779, Control_c, 0, 67, 41
1, 59794, Control_c, 0, 67, 28
1, 59802, Note_off_c, 0, 48, 58
1, 59806, Note_off_c, 0, 72, 38
1, 59807, Note_off_c, 0, 75, 57
1, 59809, Control_c, 0, 67, 14
1, 59824, Control_c, 0, 67, 0
1, 59923, Note_on_c, 0, 75, 79
1, 59929, Note_on_c, 0, 72, 70
1, 59932, Note_on_c, 0, 67, 68
1, 59935, Note_on_c, 0, 55, 68
1, 59944, Note_off_c, 0, 79, 62
1, 59964, Note_off_c, 0, 67, 61
1, 59968, Note_off_c, 0, 55, 65
1, 59980, Note_off_c, 0, 75, 64
1, 59986, Note_off_c, 0, 72, 61
1, 60201, Note_on_c, 0, 74, 85
1, 60224, Control_c, 0, 64, 117
1, 60239, Control_c, 0, 64, 83
1, 60254, Control_c, 0, 64, 66
1, 60269, Control_c, 0, 64, 42
1, 60284, Control_c, 0, 64, 0
1, 60365, Control_c, 0, 64, 51
1, 60380, Control_c, 0, 64, 64
1, 60394, Control_c, 0, 64, 71
1, 60409, Control_c, 0, 64, 80
1, 60424, Control_c, 0, 64, 88
1, 60439, Control_c, 0, 64, 95
1, 60454, Control_c, 0, 64, 103
1, 60457, Note_on_c, 0, 67, 78
1, 60469, Note_on_c, 0, 62, 61
1, 60469, Control_c, 0, 64, 117
1, 60469, Note_on_c, 0, 50, 80
1, 60477, Note_on_c, 0, 38, 71
1, 60483, Control_c, 0, 64, 127
1, 60541, Note_off_c, 0, 62, 55
1, 60547, Note_off_c, 0, 38, 61
1, 60585, Note_off_c, 0, 67, 57
1, 60585, Note_off_c, 0, 50, 57
1, 60712, Note_on_c, 0, 67, 78
1, 60720, Note_on_c, 0, 62, 74
1, 60722, Note_on_c, 0, 55, 71
1, 60733, Note_off_c, 0, 74, 54
1, 60751, Note_off_c, 0, 55, 64
1, 60811, Note_off_c, 0, 62, 56
1, 60907, Note_off_c, 0, 67, 57
1, 60973, Note_on_c, 0, 72, 85
1, 61032, Control_c, 0, 64, 92
1, 61047, Control_c, 0, 64, 70
1, 61069, Control_c, 0, 64, 53
1, 61084, Control_c, 0, 64, 0
1, 61217, Control_c, 0, 64, 41
1, 61232, Control_c, 0, 64, 62
1, 61247, Control_c, 0, 64, 68
1, 61250, Note_on_c, 0, 67, 69
1, 61262, Note_on_c, 0, 60, 55
1, 61262, Control_c, 0, 64, 76
1, 61262, Control_c, 0, 67, 10
1, 61277, Control_c, 0, 64, 87
1, 61277, Control_c, 0, 67, 13
1, 61282, Note_on_c, 0, 51, 57
1, 61291, Control_c, 0, 64, 104
1, 61291, Control_c, 0, 67, 16
1, 61292, Note_on_c, 0, 39, 44
1, 61306, Control_c, 0, 64, 127
1, 61306, Control_c, 0, 67, 17
1, 61310, Note_off_c, 0, 60, 54
1, 61321, Control_c, 0, 67, 20
1, 61326, Note_off_c, 0, 39, 51
1, 61336, Control_c, 0, 67, 22
1, 61338, Note_off_c, 0, 51, 56
1, 61351, Control_c, 0, 67, 22
1, 61363, Note_off_c, 0, 67, 57
1, 61395, Control_c, 0, 67, 23
1, 61410, Control_c, 0, 67, 24
1, 61425, Control_c, 0, 67, 25
1, 61439, Control_c, 0, 67, 28
1, 61454, Control_c, 0, 67, 34
1, 61469, Control_c, 0, 67, 42
1, 61483, Control_c, 0, 67, 49
1, 61498, Control_c, 0, 67, 54
1, 61513, Control_c, 0, 67, 61
1, 61518, Note_on_c, 0, 67, 63
1, 61518, Note_on_c, 0, 55, 54
1, 61528, Control_c, 0, 67, 67
1, 61531, Note_on_c, 0, 60, 50
1, 61543, Control_c, 0, 67, 75
1, 61547, Note_off_c, 0, 72, 58
1, 61549, Note_off_c, 0, 55, 62
1, 61557, Control_c, 0, 67, 83
1, 61572, Control_c, 0, 67, 91
1, 61575, Note_off_c, 0, 60, 52
1, 61586, Note_off_c, 0, 67, 59
1, 61587, Control_c, 0, 67, 98
1, 61602, Control_c, 0, 67, 104
1, 61617, Control_c, 0, 67, 112
1, 61631, Control_c, 0, 67, 118
1, 61646, Control_c, 0, 67, 124
1, 61661, Control_c, 0, 67, 127
1, 61827, Note_on_c, 0, 67, 61
1, 61877, Control_c, 0, 64, 93
1, 61892, Control_c, 0, 64, 74
1, 61906, Control_c, 0, 64, 63
1, 61921, Control_c, 0, 64, 46
1, 61936, Control_c, 0, 64, 25
1, 61951, Control_c, 0, 64, 16
1, 62070, Control_c, 0, 64, 20
1, 62085, Control_c, 0, 64, 31
1, 62100, Control_c, 0, 64, 48
1, 62114, Control_c, 0, 64, 61
1, 62129, Control_c, 0, 64, 68
1, 62141, Note_on_c, 0, 62, 41
1, 62144, Control_c, 0, 64, 77
1, 62148, Note_on_c, 0, 38, 36
1, 62150, Note_on_c, 0, 58, 38
1, 62151, Note_on_c, 0, 50, 31
1, 62159, Control_c, 0, 64, 92
1, 62174, Control_c, 0, 64, 114
1, 62188, Control_c, 0, 64, 127
1, 62195, Note_off_c, 0, 38, 48
1, 62199, Note_off_c, 0, 58, 49
1, 62226, Note_off_c, 0, 50, 55
1, 62226, Note_off_c, 0, 62, 54
1, 62453, Note_off_c, 0, 67, 52
1, 62459, Note_on_c, 0, 58, 46
1, 62462, Note_on_c, 0, 62, 50
1, 62484, Note_on_c, 0, 55, 40
1, 62499, Note_off_c, 0, 58, 62
1, 62508, Note_off_c, 0, 62, 59
1, 62520, Note_off_c, 0, 55, 61
1, 62945, Note_on_c, 0, 79, 67
1, 62951, Note_on_c, 0, 47, 58
1, 62966, Control_c, 0, 64, 99
1, 62981, Control_c, 0, 64, 83
1, 62996, Control_c, 0, 64, 71
1, 63010, Control_c, 0, 64, 65
1, 63025, Control_c, 0, 64, 64
1, 63040, Control_c, 0, 64, 65
1, 63044, Note_on_c, 0, 48, 68
1, 63054, Control_c, 0, 64, 68
1, 63069, Control_c, 0, 64, 75
1, 63083, Note_off_c, 0, 47, 62
1, 63084, Control_c, 0, 64, 85
1, 63099, Control_c, 0, 64, 95
1, 63114, Control_c, 0, 64, 107
1, 63114, Control_c, 0, 67, 124
1, 63128, Control_c, 0, 64, 127
1, 63128, Control_c, 0, 67, 116
1, 63143, Control_c, 0, 67, 101
1, 63146, Note_on_c, 0, 50, 70
1, 63158, Control_c, 0, 67, 79
1, 63159, Note_off_c, 0, 48, 59
1, 63173, Note_on_c, 0, 75, 68
1, 63173, Control_c, 0, 67, 55
1, 63185, Note_on_c, 0, 67, 49
1, 63188, Note_on_c, 0, 72, 56
1, 63188, Control_c, 0, 67, 31
1, 63202, Control_c, 0, 67, 0
1, 63219, Note_off_c, 0, 67, 49
1, 63229, Note_on_c, 0, 48, 70
1, 63250, Note_off_c, 0, 50, 60
1, 63256, Note_off_c, 0, 72, 51
1, 63259, Note_off_c, 0, 75, 58
1, 63372, Note_on_c, 0, 55, 72
1, 63377, Note_on_c, 0, 67, 57
1, 63377, Note_on_c, 0, 75, 75
1, 63378, Note_off_c, 0, 48, 58
1, 63381, Note_off_c, 0, 79, 63
1, 63382, Note_on_c, 0, 72, 71
1, 63401, Note_off_c, 0, 67, 59
1, 63404, Note_off_c, 0, 55, 64
1, 63423, Note_off_c, 0, 72, 58
1, 63432, Note_off_c, 0, 75, 61
1, 63680, Note_on_c, 0, 74, 81
1, 63682, Note_on_c, 0, 49, 70
1, 63685, Control_c, 0, 64, 94
1, 63700, Control_c, 0, 64, 70
1, 63715, Control_c, 0, 64, 45
1, 63730, Control_c, 0, 64, 0
1, 63759, Control_c, 0, 64, 42
1, 63774, Control_c, 0, 64, 61
1, 63789, Control_c, 0, 64, 69
1, 63796, Note_on_c, 0, 50, 66
1, 63804, Control_c, 0, 64, 78
1, 63819, Control_c, 0, 64, 89
1, 63833, Control_c, 0, 64, 99
1, 63835, Note_off_c, 0, 49, 61
1, 63848, Control_c, 0, 64, 105
1, 63863, Control_c, 0, 64, 107
1, 63877, Control_c, 0, 64, 107
1, 63892, Control_c, 0, 64, 108
1, 63901, Note_on_c, 0, 51, 73
1, 63903, Note_on_c, 0, 67, 72
1, 63906, Note_off_c, 0, 50, 60
1, 63914, Note_on_c, 0, 62, 58
1, 63954, Note_off_c, 0, 62, 59
1, 63995, Note_off_c, 0, 67, 57
1, 63996, Note_on_c, 0, 50, 74
1, 64002, Note_off_c, 0, 51, 59
1, 64115, Note_on_c, 0, 67, 80
1, 64123, Note_on_c, 0, 55, 76
1, 64126, Note_off_c, 0, 74, 59
1, 64127, Note_on_c, 0, 62, 67
1, 64129, Note_off_c, 0, 50, 58
1, 64150, Note_off_c, 0, 55, 67
1, 64151, Control_c, 0, 64, 108
1, 64154, Note_off_c, 0, 62, 65
1, 64181, Control_c, 0, 64, 109
1, 64194, Note_off_c, 0, 67, 51
1, 64196, Control_c, 0, 64, 109
1, 64210, Control_c, 0, 64, 110
1, 64227, Control_c, 0, 64, 110
1, 64242, Control_c, 0, 64, 111
1, 64256, Control_c, 0, 64, 112
1, 64271, Control_c, 0, 64, 113
1, 64286, Control_c, 0, 64, 113
1, 64300, Control_c, 0, 64, 114
1, 64360, Control_c, 0, 64, 107
1, 64374, Control_c, 0, 64, 87
1, 64389, Control_c, 0, 64, 68
1, 64391, Note_on_c, 0, 72, 79
1, 64393, Note_on_c, 0, 50, 71
1, 64404, Control_c, 0, 64, 40
1, 64419, Control_c, 0, 64, 0
1, 64448, Control_c, 0, 64, 12
1, 64463, Control_c, 0, 64, 58
1, 64478, Control_c, 0, 64, 68
1, 64493, Control_c, 0, 64, 77
1, 64508, Control_c, 0, 64, 88
1, 64522, Note_on_c, 0, 51, 73
1, 64523, Control_c, 0, 64, 96
1, 64524, Note_off_c, 0, 50, 61
1, 64538, Control_c, 0, 64, 99
1, 64553, Control_c, 0, 64, 101
1, 64567, Control_c, 0, 64, 101
1, 64642, Note_off_c, 0, 51, 59
1, 64648, Note_on_c, 0, 53, 71
1, 64657, Note_on_c, 0, 67, 71
1, 64663, Note_on_c, 0, 60, 61
1, 64699, Note_off_c, 0, 60, 57
1, 64739, Note_off_c, 0, 53, 61
1, 64743, Note_off_c, 0, 67, 56
1, 64747, Note_on_c, 0, 51, 75
1, 64875, Note_on_c, 0, 55, 74
1, 64881, Note_on_c, 0, 67, 71
1, 64892, Note_off_c, 0, 72, 61
1, 64898, Note_on_c, 0, 60, 57
1, 64916, Note_off_c, 0, 60, 62
1, 64924, Note_off_c, 0, 55, 54
1, 64934, Note_off_c, 0, 51, 37
1, 64940, Note_off_c, 0, 67, 60
1, 65045, Note_on_c, 0, 51, 75
1, 65049, Control_c, 0, 64, 102
1, 65125, Note_on_c, 0, 52, 82
1, 65142, Note_off_c, 0, 51, 59
1, 65174, Note_off_c, 0, 52, 60
1, 65256, Control_c, 0, 64, 95
1, 65271, Note_on_c, 0, 52, 82
1, 65271, Control_c, 0, 64, 76
1, 65272, Note_on_c, 0, 67, 83
1, 65286, Control_c, 0, 64, 55
1, 65301, Control_c, 0, 64, 0
1, 65361, Control_c, 0, 64, 36
1, 65376, Control_c, 0, 64, 63
1, 65390, Control_c, 0, 64, 69
1, 65405, Control_c, 0, 64, 75
1, 65420, Control_c, 0, 64, 84
1, 65435, Control_c, 0, 64, 94
1, 65449, Control_c, 0, 64, 99
1, 65464, Control_c, 0, 64, 101
1, 65479, Note_off_c, 0, 52, 58
1, 65479, Control_c, 0, 64, 102
1, 65502, Note_on_c, 0, 53, 68
1, 65590, Control_c, 0, 64, 102
1, 65593, Note_off_c, 0, 53, 60
1, 65596, Note_on_c, 0, 52, 72
1, 65620, Control_c, 0, 64, 103
1, 65635, Control_c, 0, 64, 104
1, 65640, Note_off_c, 0, 52, 54
1, 65650, Control_c, 0, 64, 105
1, 65665, Control_c, 0, 64, 106
1, 65675, Note_on_c, 0, 53, 61
1, 65680, Control_c, 0, 64, 107
1, 65694, Control_c, 0, 64, 107
1, 65728, Note_on_c, 0, 58, 56
1, 65733, Note_on_c, 0, 52, 72
1, 65733, Note_on_c, 0, 61, 65
1, 65733, Note_off_c, 0, 53, 63
1, 65766, Note_off_c, 0, 52, 58
1, 65770, Note_off_c, 0, 58, 61
1, 65804, Note_off_c, 0, 61, 54
1, 65820, Note_on_c, 0, 53, 71
1, 65876, Note_on_c, 0, 52, 67
1, 65885, Note_off_c, 0, 53, 62
1, 65937, Note_off_c, 0, 52, 55
1, 65949, Note_on_c, 0, 61, 61
1, 65955, Note_on_c, 0, 58, 60
1, 65960, Note_on_c, 0, 53, 69
1, 66009, Note_off_c, 0, 58, 55
1, 66025, Note_off_c, 0, 53, 62
1, 66038, Note_on_c, 0, 52, 65
1, 66073, Note_off_c, 0, 61, 36
1, 66081, Note_off_c, 0, 52, 56
1, 66106, Note_on_c, 0, 53, 70
1, 66174, Note_on_c, 0, 52, 68
1, 66177, Note_off_c, 0, 53, 57
1, 66243, Note_on_c, 0, 51, 76
1, 66248, Note_off_c, 0, 52, 62
1, 66350, Note_on_c, 0, 52, 80
1, 66362, Note_off_c, 0, 67, 31
1, 66377, Note_off_c, 0, 51, 59
1, 66472, Control_c, 0, 64, 107
1, 66483, Note_off_c, 0, 52, 50
1, 66487, Control_c, 0, 64, 106
1, 66502, Control_c, 0, 64, 102
1, 66517, Control_c, 0, 64, 93
1, 66521, Note_on_c, 0, 65, 78
1, 66523, Note_on_c, 0, 53, 80
1, 66532, Control_c, 0, 64, 79
1, 66547, Control_c, 0, 64, 68
1, 66562, Control_c, 0, 64, 51
1, 66577, Control_c, 0, 64, 0
1, 66696, Control_c, 0, 64, 47
1, 66711, Control_c, 0, 64, 62
1, 66726, Control_c, 0, 64, 66
1, 66741, Control_c, 0, 64, 68
1, 66756, Control_c, 0, 64, 72
1, 66770, Control_c, 0, 64, 76
1, 66785, Control_c, 0, 64, 81
1, 66800, Control_c, 0, 64, 87
1, 66815, Control_c, 0, 64, 92
1, 66829, Control_c, 0, 64, 99
1, 66844, Control_c, 0, 64, 106
1, 66859, Control_c, 0, 64, 117
1, 66874, Control_c, 0, 64, 127
1, 66906, Note_on_c, 0, 58, 49
1, 66906, Note_on_c, 0, 62, 46
1, 66987, Note_off_c, 0, 58, 57
1, 67004, Note_off_c, 0, 62, 57
1, 67146, Note_on_c, 0, 62, 69
1, 67150, Note_on_c, 0, 58, 65
1, 67173, Note_off_c, 0, 65, 55
1, 67182, Note_off_c, 0, 58, 64
1, 67203, Note_off_c, 0, 62, 62
1, 67406, Note_on_c, 0, 74, 88
1, 67441, Note_off_c, 0, 53, 62
1, 67673, Note_on_c, 0, 52, 84
1, 67679, Note_on_c, 0, 70, 72
1, 67682, Note_on_c, 0, 62, 66
1, 67683, Note_on_c, 0, 65, 68
1, 67687, Note_on_c, 0, 40, 71
1, 67758, Note_off_c, 0, 62, 56
1, 67786, Note_off_c, 0, 65, 55
1, 67810, Note_off_c, 0, 70, 57
1, 67812, Note_off_c, 0, 40, 57
1, 67823, Note_off_c, 0, 52, 59
1, 67972, Note_on_c, 0, 53, 81
1, 67975, Note_on_c, 0, 62, 74
1, 67978, Note_on_c, 0, 65, 71
1, 67980, Note_on_c, 0, 70, 69
1, 67982, Note_on_c, 0, 41, 72
1, 68056, Note_off_c, 0, 62, 58
1, 68071, Note_off_c, 0, 65, 59
1, 68088, Note_off_c, 0, 53, 59
1, 68115, Note_off_c, 0, 41, 49
1, 68118, Note_off_c, 0, 70, 58
1, 68162, Note_off_c, 0, 74, 37
1, 68428, Note_on_c, 0, 54, 60
1, 68430, Note_on_c, 0, 69, 71
1, 68434, Note_on_c, 0, 42, 51
1, 68436, Note_on_c, 0, 63, 69
1, 68460, Control_c, 0, 64, 93
1, 68474, Control_c, 0, 64, 70
1, 68489, Control_c, 0, 64, 48
1, 68504, Control_c, 0, 64, 0
1, 68571, Control_c, 0, 64, 55
1, 68586, Control_c, 0, 64, 66
1, 68600, Control_c, 0, 64, 71
1, 68615, Control_c, 0, 64, 77
1, 68630, Control_c, 0, 64, 82
1, 68645, Control_c, 0, 64, 84
1, 68660, Control_c, 0, 64, 86
1, 68674, Control_c, 0, 64, 87
1, 68681, Note_off_c, 0, 63, 54
1, 68689, Control_c, 0, 64, 87
1, 68708, Note_off_c, 0, 69, 58
1, 68719, Control_c, 0, 64, 88
1, 68763, Control_c, 0, 64, 88
1, 68778, Control_c, 0, 64, 89
1, 68792, Control_c, 0, 64, 91
1, 68807, Control_c, 0, 64, 92
1, 68822, Control_c, 0, 64, 94
1, 68837, Control_c, 0, 64, 96
1, 68852, Control_c, 0, 64, 99
1, 68866, Control_c, 0, 64, 102
1, 68881, Control_c, 0, 64, 105
1, 68896, Control_c, 0, 64, 108
1, 68911, Control_c, 0, 64, 110
1, 68926, Control_c, 0, 64, 110
1, 68941, Control_c, 0, 64, 111
1, 68956, Control_c, 0, 64, 112
1, 68994, Note_on_c, 0, 74, 64
1, 69015, Control_c, 0, 64, 111
1, 69030, Control_c, 0, 64, 107
1, 69036, Note_on_c, 0, 72, 68
1, 69045, Control_c, 0, 64, 96
1, 69048, Note_on_c, 0, 63, 59
1, 69060, Control_c, 0, 64, 83
1, 69066, Note_on_c, 0, 69, 54
1, 69075, Control_c, 0, 64, 71
1, 69087, Note_off_c, 0, 74, 59
1, 69090, Control_c, 0, 64, 61
1, 69105, Control_c, 0, 64, 45
1, 69120, Control_c, 0, 64, 46
1, 69134, Control_c, 0, 64, 54
1, 69149, Control_c, 0, 64, 63
1, 69164, Control_c, 0, 64, 70
1, 69179, Control_c, 0, 64, 82
1, 69194, Control_c, 0, 64, 104
1, 69206, Note_off_c, 0, 63, 55
1, 69209, Control_c, 0, 64, 127
1, 69230, Note_off_c, 0, 69, 56
1, 69273, Note_off_c, 0, 72, 51
1, 69522, Note_on_c, 0, 71, 66
1, 69541, Note_on_c, 0, 63, 50
1, 69542, Note_on_c, 0, 69, 53
1, 69557, Control_c, 0, 64, 99
1, 69572, Control_c, 0, 64, 81
1, 69587, Control_c, 0, 64, 67
1, 69602, Control_c, 0, 64, 48
1, 69616, Control_c, 0, 64, 20
1, 69646, Control_c, 0, 64, 37
1, 69661, Control_c, 0, 64, 56
1, 69676, Control_c, 0, 64, 65
1, 69690, Control_c, 0, 64, 73
1, 69705, Control_c, 0, 64, 89
1, 69720, Control_c, 0, 64, 104
1, 69735, Control_c, 0, 64, 118
1, 69749, Control_c, 0, 64, 127
1, 69775, Note_off_c, 0, 63, 37
1, 69802, Note_off_c, 0, 69, 38
1, 69811, Note_off_c, 0, 71, 55
1, 69904, Note_on_c, 0, 72, 77
1, 69918, Note_on_c, 0, 63, 51
1, 69934, Note_on_c, 0, 69, 52
1, 69960, Note_off_c, 0, 54, 37
1, 70026, Note_off_c, 0, 63, 37
1, 70099, Note_off_c, 0, 42, 32
1, 70100, Note_off_c, 0, 69, 31
1, 70110, Note_off_c, 0, 72, 59
1, 70161, Note_on_c, 0, 74, 78
1, 70168, Note_on_c, 0, 53, 64
1, 70173, Note_on_c, 0, 63, 61
1, 70174, Note_on_c, 0, 41, 59
1, 70182, Note_on_c, 0, 69, 52
1, 70287, Note_off_c, 0, 53, 59
1, 70300, Note_off_c, 0, 63, 38
1, 70339, Note_off_c, 0, 74, 59
1, 70358, Note_off_c, 0, 69, 37
1, 70368, Note_off_c, 0, 41, 34
1, 70450, Note_on_c, 0, 75, 81
1, 70465, Note_on_c, 0, 63, 59
1, 70470, Note_on_c, 0, 42, 55
1, 70471, Note_on_c, 0, 54, 59
1, 70482, Note_on_c, 0, 69, 51
1, 70625, Note_off_c, 0, 42, 35
1, 70636, Note_off_c, 0, 54, 38
1, 70642, Note_off_c, 0, 69, 43
1, 70652, Note_off_c, 0, 63, 40
1, 70687, Note_off_c, 0, 75, 52
1, 70920, Note_on_c, 0, 75, 79
1, 70923, Note_on_c, 0, 55, 47
1, 70927, Note_on_c, 0, 43, 44
1, 70935, Control_c, 0, 64, 114
1, 70950, Control_c, 0, 64, 93
1, 70965, Control_c, 0, 64, 77
1, 70980, Control_c, 0, 64, 63
1, 70995, Control_c, 0, 64, 34
1, 71009, Control_c, 0, 64, 0
1, 71024, Control_c, 0, 67, 8
1, 71039, Control_c, 0, 67, 11
1, 71054, Control_c, 0, 67, 15
1, 71069, Control_c, 0, 67, 22
1, 71084, Control_c, 0, 64, 49
1, 71084, Control_c, 0, 67, 29
1, 71099, Control_c, 0, 64, 63
1, 71099, Control_c, 0, 67, 38
1, 71113, Control_c, 0, 64, 69
1, 71113, Control_c, 0, 67, 47
1, 71128, Control_c, 0, 64, 75
1, 71128, Control_c, 0, 67, 56
1, 71143, Control_c, 0, 64, 80
1, 71143, Control_c, 0, 67, 66
1, 71158, Control_c, 0, 64, 84
1, 71158, Control_c, 0, 67, 78
1, 71173, Control_c, 0, 64, 86
1, 71173, Control_c, 0, 67, 87
1, 71187, Control_c, 0, 64, 90
1, 71187, Control_c, 0, 67, 97
1, 71202, Control_c, 0, 64, 93
1, 71202, Control_c, 0, 67, 106
1, 71217, Control_c, 0, 64, 96
1, 71217, Control_c, 0, 67, 115
1, 71232, Control_c, 0, 64, 99
1, 71232, Control_c, 0, 67, 123
1, 71247, Control_c, 0, 64, 102
1, 71247, Control_c, 0, 67, 127
1, 71261, Control_c, 0, 64, 104
1, 71276, Control_c, 0, 64, 107
1, 71291, Control_c, 0, 64, 109
1, 71306, Control_c, 0, 64, 111
1, 71320, Control_c, 0, 64, 113
1, 71328, Note_off_c, 0, 75, 50
1, 71335, Control_c, 0, 64, 116
1, 71343, Note_on_c, 0, 70, 45
1, 71350, Control_c, 0, 64, 120
1, 71362, Note_on_c, 0, 63, 39
1, 71365, Control_c, 0, 64, 127
1, 71421, Note_off_c, 0, 63, 43
1, 71478, Note_off_c, 0, 70, 34
1, 71613, Note_on_c, 0, 70, 55
1, 71635, Note_on_c, 0, 63, 39
1, 71698, Note_off_c, 0, 63, 40
1, 71734, Note_off_c, 0, 70, 35
1, 72062, Note_on_c, 0, 74, 54
1, 72069, Control_c, 0, 64, 91
1, 72084, Control_c, 0, 64, 74
1, 72094, Note_on_c, 0, 70, 29
1, 72099, Control_c, 0, 64, 63
1, 72102, Note_on_c, 0, 62, 24
1, 72114, Control_c, 0, 64, 51
1, 72137, Note_off_c, 0, 70, 46
1, 72143, Control_c, 0, 64, 56
1, 72158, Control_c, 0, 64, 62
1, 72173, Control_c, 0, 64, 69
1, 72188, Control_c, 0, 64, 78
1, 72203, Control_c, 0, 64, 92
1, 72215, Note_off_c, 0, 62, 37
1, 72219, Control_c, 0, 64, 106
1, 72233, Control_c, 0, 64, 118
1, 72248, Control_c, 0, 64, 127
1, 72405, Note_on_c, 0, 70, 36
1, 72416, Note_on_c, 0, 62, 27
1, 72491, Note_off_c, 0, 62, 39
1, 72496, Note_off_c, 0, 70, 30
1, 72510, Note_off_c, 0, 55, 36
1, 72534, Note_off_c, 0, 43, 37
1, 72683, Note_off_c, 0, 74, 36
1, 72723, Note_on_c, 0, 70, 43
1, 72751, Note_on_c, 0, 62, 31
1, 72824, Note_off_c, 0, 62, 46
1, 72869, Note_off_c, 0, 70, 34
1, 73253, Note_on_c, 0, 66, 43
1, 73257, Note_on_c, 0, 60, 37
1, 73266, Note_on_c, 0, 38, 37
1, 73275, Note_on_c, 0, 50, 29
1, 73287, Control_c, 0, 64, 114
1, 73302, Control_c, 0, 64, 99
1, 73316, Control_c, 0, 64, 86
1, 73331, Control_c, 0, 64, 73
1, 73346, Control_c, 0, 64, 64
1, 73361, Control_c, 0, 64, 48
1, 73376, Control_c, 0, 64, 43
1, 73390, Control_c, 0, 64, 44
1, 73405, Control_c, 0, 64, 51
1, 73420, Control_c, 0, 64, 59
1, 73435, Control_c, 0, 64, 64
1, 73450, Control_c, 0, 64, 70
1, 73464, Control_c, 0, 64, 80
1, 73479, Control_c, 0, 64, 91
1, 73494, Control_c, 0, 64, 98
1, 73508, Control_c, 0, 64, 102
1, 73523, Control_c, 0, 64, 104
1, 73538, Control_c, 0, 64, 104
1, 73540, Note_off_c, 0, 60, 31
1, 73553, Control_c, 0, 64, 105
1, 73582, Control_c, 0, 64, 105
1, 73612, Control_c, 0, 64, 106
1, 73619, Note_off_c, 0, 66, 31
1, 73701, Control_c, 0, 64, 106
1, 73834, Note_on_c, 0, 60, 51
1, 73904, Note_on_c, 0, 66, 47
1, 73914, Note_off_c, 0, 60, 51
1, 73945, Note_off_c, 0, 66, 54
1, 73946, Control_c, 0, 64, 106
1, 73961, Control_c, 0, 64, 101
1, 73963, Note_on_c, 0, 70, 54
1, 73976, Control_c, 0, 64, 90
1, 73991, Control_c, 0, 64, 76
1, 74006, Control_c, 0, 64, 64
1, 74020, Control_c, 0, 64, 32
1, 74023, Note_off_c, 0, 70, 52
1, 74032, Note_on_c, 0, 69, 45
1, 74035, Control_c, 0, 64, 0
1, 74095, Control_c, 0, 64, 56
1, 74110, Control_c, 0, 64, 65
1, 74124, Control_c, 0, 64, 71
1, 74139, Control_c, 0, 64, 78
1, 74154, Control_c, 0, 64, 85
1, 74169, Control_c, 0, 64, 90
1, 74184, Control_c, 0, 64, 94
1, 74199, Control_c, 0, 64, 97
1, 74205, Note_off_c, 0, 69, 57
1, 74213, Control_c, 0, 64, 99
1, 74228, Control_c, 0, 64, 102
1, 74243, Control_c, 0, 64, 103
1, 74257, Control_c, 0, 64, 104
1, 74272, Control_c, 0, 64, 106
1, 74287, Control_c, 0, 64, 107
1, 74302, Control_c, 0, 64, 108
1, 74317, Control_c, 0, 64, 109
1, 74331, Control_c, 0, 64, 111
1, 74346, Control_c, 0, 64, 113
1, 74361, Control_c, 0, 64, 115
1, 74376, Control_c, 0, 64, 117
1, 74391, Control_c, 0, 64, 121
1, 74405, Control_c, 0, 64, 127
1, 74508, Note_on_c, 0, 68, 48
1, 74509, Control_c, 0, 64, 120
1, 74514, Note_on_c, 0, 60, 39
1, 74524, Control_c, 0, 64, 100
1, 74527, Note_on_c, 0, 66, 39
1, 74546, Control_c, 0, 64, 82
1, 74561, Control_c, 0, 64, 69
1, 74576, Control_c, 0, 64, 59
1, 74591, Control_c, 0, 64, 52
1, 74607, Control_c, 0, 64, 55
1, 74622, Control_c, 0, 64, 62
1, 74632, Note_off_c, 0, 60, 54
1, 74636, Control_c, 0, 64, 68
1, 74651, Control_c, 0, 64, 80
1, 74666, Control_c, 0, 64, 99
1, 74680, Control_c, 0, 64, 127
1, 74693, Note_off_c, 0, 68, 47
1, 74711, Note_off_c, 0, 66, 40
1, 74888, Control_c, 0, 64, 117
1, 74894, Note_on_c, 0, 69, 56
1, 74902, Control_c, 0, 64, 90
1, 74908, Note_on_c, 0, 60, 39
1, 74917, Control_c, 0, 64, 73
1, 74923, Note_on_c, 0, 66, 39
1, 74932, Control_c, 0, 64, 62
1, 74947, Control_c, 0, 64, 48
1, 74962, Control_c, 0, 64, 49
1, 74977, Control_c, 0, 64, 57
1, 74992, Control_c, 0, 64, 65
1, 75007, Control_c, 0, 64, 73
1, 75022, Control_c, 0, 64, 87
1, 75036, Note_off_c, 0, 60, 32
1, 75036, Control_c, 0, 64, 108
1, 75051, Control_c, 0, 64, 121
1, 75060, Note_off_c, 0, 69, 58
1, 75066, Control_c, 0, 64, 127
1, 75077, Note_off_c, 0, 66, 35
1, 75140, Control_c, 0, 64, 111
1, 75154, Control_c, 0, 64, 91
1, 75169, Control_c, 0, 64, 75
1, 75177, Note_on_c, 0, 70, 63
1, 75184, Control_c, 0, 64, 64
1, 75194, Note_on_c, 0, 60, 36
1, 75199, Control_c, 0, 64, 55
1, 75202, Note_on_c, 0, 66, 46
1, 75213, Control_c, 0, 64, 56
1, 75228, Control_c, 0, 64, 62
1, 75243, Control_c, 0, 64, 67
1, 75258, Control_c, 0, 64, 76
1, 75273, Control_c, 0, 64, 90
1, 75295, Control_c, 0, 64, 107
1, 75310, Control_c, 0, 64, 121
1, 75325, Control_c, 0, 64, 127
1, 75332, Note_off_c, 0, 60, 40
1, 75344, Note_off_c, 0, 70, 56
1, 75373, Note_off_c, 0, 66, 40
1, 75414, Control_c, 0, 64, 99
1, 75429, Control_c, 0, 64, 81
1, 75444, Control_c, 0, 64, 66
1, 75455, Note_on_c, 0, 72, 67
1, 75458, Control_c, 0, 64, 56
1, 75461, Note_on_c, 0, 60, 45
1, 75473, Control_c, 0, 64, 56
1, 75488, Control_c, 0, 64, 60
1, 75499, Note_on_c, 0, 66, 35
1, 75502, Control_c, 0, 64, 66
1, 75517, Control_c, 0, 64, 74
1, 75532, Control_c, 0, 64, 91
1, 75547, Control_c, 0, 64, 109
1, 75562, Control_c, 0, 64, 127
1, 75618, Note_off_c, 0, 50, 47
1, 75643, Note_off_c, 0, 38, 38
1, 75643, Note_off_c, 0, 60, 16
1, 75669, Note_off_c, 0, 72, 50
1, 75692, Note_off_c, 0, 66, 39
1, 75888, Control_c, 0, 64, 112
1, 75891, Note_on_c, 0, 72, 65
1, 75902, Control_c, 0, 64, 91
1, 75908, Note_on_c, 0, 51, 38
1, 75916, Note_on_c, 0, 39, 26
1, 75917, Control_c, 0, 64, 75
1, 75932, Control_c, 0, 64, 62
1, 75947, Control_c, 0, 64, 39
1, 75962, Control_c, 0, 64, 0
1, 76021, Control_c, 0, 64, 37
1, 76043, Control_c, 0, 64, 58
1, 76058, Control_c, 0, 64, 66
1, 76073, Control_c, 0, 64, 72
1, 76088, Control_c, 0, 64, 78
1, 76103, Control_c, 0, 64, 82
1, 76118, Control_c, 0, 64, 84
1, 76133, Control_c, 0, 64, 87
1, 76148, Control_c, 0, 64, 89
1, 76163, Control_c, 0, 64, 91
1, 76178, Control_c, 0, 64, 94
1, 76192, Control_c, 0, 64, 95
1, 76208, Control_c, 0, 64, 97
1, 76223, Control_c, 0, 64, 100
1, 76228, Note_on_c, 0, 67, 39
1, 76238, Control_c, 0, 64, 104
1, 76248, Note_on_c, 0, 60, 21
1, 76253, Control_c, 0, 64, 108
1, 76267, Control_c, 0, 64, 115
1, 76282, Control_c, 0, 64, 127
1, 76287, Note_off_c, 0, 60, 47
1, 76333, Note_off_c, 0, 67, 33
1, 76474, Note_on_c, 0, 67, 47
1, 76505, Note_on_c, 0, 60, 27
1, 76532, Note_off_c, 0, 72, 54
1, 76544, Note_off_c, 0, 60, 47
1, 76572, Note_off_c, 0, 67, 56
1, 76785, Note_on_c, 0, 70, 68
1, 76807, Note_on_c, 0, 58, 43
1, 76829, Note_on_c, 0, 67, 41
1, 76873, Note_off_c, 0, 58, 47
1, 76876, Note_off_c, 0, 67, 43
1, 77079, Note_on_c, 0, 67, 46
1, 77092, Note_on_c, 0, 58, 29
1, 77096, Note_off_c, 0, 51, 39
1, 77141, Note_off_c, 0, 58, 46
1, 77169, Note_off_c, 0, 39, 35
1, 77186, Note_off_c, 0, 67, 48
1, 77347, Note_on_c, 0, 67, 47
1, 77371, Note_on_c, 0, 58, 41
1, 77407, Note_off_c, 0, 58, 55
1, 77458, Note_off_c, 0, 67, 55
1, 77704, Note_off_c, 0, 70, 22
1, 77759, Note_on_c, 0, 69, 59
1, 77762, Control_c, 0, 64, 92
1, 77770, Note_on_c, 0, 48, 38
1, 77777, Note_on_c, 0, 36, 36
1, 77777, Control_c, 0, 64, 75
1, 77792, Control_c, 0, 64, 63
1, 77808, Control_c, 0, 64, 41
1, 77823, Control_c, 0, 64, 32
1, 77837, Control_c, 0, 64, 35
1, 77852, Control_c, 0, 64, 48
1, 77867, Control_c, 0, 64, 60
1, 77882, Control_c, 0, 64, 66
1, 77897, Control_c, 0, 64, 74
1, 77911, Control_c, 0, 64, 88
1, 77926, Control_c, 0, 64, 99
1, 77941, Control_c, 0, 64, 106
1, 77956, Control_c, 0, 64, 110
1, 77971, Control_c, 0, 64, 113
1, 77985, Control_c, 0, 64, 114
1, 78015, Control_c, 0, 64, 115
1, 78029, Control_c, 0, 64, 116
1, 78044, Control_c, 0, 64, 117
1, 78059, Control_c, 0, 64, 118
1, 78074, Control_c, 0, 64, 120
1, 78095, Note_on_c, 0, 67, 55
1, 78095, Note_off_c, 0, 36, 40
1, 78125, Note_on_c, 0, 63, 39
1, 78149, Control_c, 0, 64, 121
1, 78149, Note_off_c, 0, 48, 30
1, 78167, Note_off_c, 0, 63, 47
1, 78184, Note_off_c, 0, 67, 53
1, 78337, Note_on_c, 0, 67, 68
1, 78348, Note_off_c, 0, 69, 58
1, 78355, Note_on_c, 0, 63, 53
1, 78399, Note_off_c, 0, 63, 56
1, 78402, Note_off_c, 0, 67, 60
1, 78631, Control_c, 0, 64, 118
1, 78646, Control_c, 0, 64, 107
1, 78655, Note_on_c, 0, 69, 78
1, 78660, Control_c, 0, 64, 92
1, 78675, Control_c, 0, 64, 77
1, 78679, Note_on_c, 0, 50, 42
1, 78690, Control_c, 0, 64, 63
1, 78695, Note_on_c, 0, 38, 33
1, 78705, Control_c, 0, 64, 42
1, 78720, Control_c, 0, 64, 17
1, 78734, Control_c, 0, 64, 21
1, 78748, Poly_aftertouch_c, 0, 62, 127
1, 78749, Control_c, 0, 64, 40
1, 78764, Control_c, 0, 64, 57
1, 78779, Control_c, 0, 64, 65
1, 78794, Control_c, 0, 64, 75
1, 78807, Poly_aftertouch_c, 0, 62, 0
1, 78808, Control_c, 0, 64, 87
1, 78823, Control_c, 0, 64, 100
1, 78838, Control_c, 0, 64, 109
1, 78852, Control_c, 0, 64, 117
1, 78867, Control_c, 0, 64, 124
1, 78882, Control_c, 0, 64, 127
1, 78945, Note_on_c, 0, 66, 64
1, 78952, Note_on_c, 0, 62, 47
1, 78964, Note_off_c, 0, 69, 56
1, 78998, Note_off_c, 0, 62, 58
1, 79038, Note_off_c, 0, 50, 52
1, 79045, Note_off_c, 0, 66, 58
1, 79048, Note_off_c, 0, 38, 37
1, 79152, Note_on_c, 0, 62, 49
1, 79159, Note_on_c, 0, 66, 75
1, 79186, Note_off_c, 0, 62, 61
1, 79232, Note_off_c, 0, 66, 59
1, 79272, Note_on_c, 0, 69, 83
1, 79407, Note_off_c, 0, 69, 38
1, 79444, Note_on_c, 0, 57, 64
1, 79483, Note_off_c, 0, 57, 63
1, 79488, Note_on_c, 0, 64, 69
1, 79498, Control_c, 0, 64, 95
1, 79513, Control_c, 0, 64, 76
1, 79528, Control_c, 0, 64, 60
1, 79543, Control_c, 0, 64, 0
1, 79547, Note_on_c, 0, 69, 76
1, 79575, Note_on_c, 0, 37, 50
1, 79577, Note_on_c, 0, 49, 55
1, 79581, Note_off_c, 0, 64, 58
1, 79631, Control_c, 0, 64, 60
1, 79646, Control_c, 0, 64, 67
1, 79661, Control_c, 0, 64, 75
1, 79675, Control_c, 0, 64, 86
1, 79690, Control_c, 0, 64, 101
1, 79705, Control_c, 0, 64, 118
1, 79720, Control_c, 0, 64, 127
1, 79721, Note_off_c, 0, 37, 58
1, 79747, Note_off_c, 0, 49, 59
1, 80117, Note_on_c, 0, 64, 68
1, 80133, Note_on_c, 0, 57, 56
1, 80137, Note_on_c, 0, 52, 56
1, 80277, Control_c, 0, 67, 125
1, 80292, Control_c, 0, 67, 122
1, 80307, Control_c, 0, 67, 119
1, 80322, Control_c, 0, 67, 116
1, 80329, Note_off_c, 0, 52, 57
1, 80337, Control_c, 0, 67, 112
1, 80349, Note_off_c, 0, 64, 61
1, 80352, Control_c, 0, 67, 110
1, 80358, Note_off_c, 0, 57, 60
1, 80365, Note_off_c, 0, 69, 37
1, 80366, Control_c, 0, 67, 107
1, 80381, Control_c, 0, 67, 104
1, 80396, Control_c, 0, 67, 101
1, 80411, Control_c, 0, 67, 98
1, 80425, Control_c, 0, 67, 95
1, 80440, Control_c, 0, 67, 85
1, 80455, Control_c, 0, 67, 69
1, 80470, Control_c, 0, 67, 48
1, 80480, Note_on_c, 0, 64, 76
1, 80485, Control_c, 0, 67, 28
1, 80489, Note_on_c, 0, 57, 62
1, 80499, Note_on_c, 0, 52, 55
1, 80499, Control_c, 0, 67, 0
1, 80640, Note_off_c, 0, 52, 57
1, 80662, Note_off_c, 0, 64, 60
1, 80664, Note_off_c, 0, 57, 60
1, 80763, Note_on_c, 0, 64, 83
1, 80776, Note_on_c, 0, 52, 63
1, 80778, Note_on_c, 0, 57, 67
1, 80888, Note_off_c, 0, 52, 58
1, 80925, Note_off_c, 0, 64, 59
1, 80928, Note_off_c, 0, 57, 60
1, 81025, Note_on_c, 0, 64, 86
1, 81037, Note_on_c, 0, 52, 65
1, 81038, Note_on_c, 0, 57, 72
1, 81181, Note_off_c, 0, 52, 55
1, 81207, Note_off_c, 0, 64, 58
1, 81215, Note_off_c, 0, 57, 58
1, 81367, Note_on_c, 0, 64, 71
1, 81369, Note_on_c, 0, 57, 58
1, 81371, Note_on_c, 0, 69, 92
1, 81382, Note_on_c, 0, 52, 57
1, 81485, Note_off_c, 0, 64, 62
1, 81504, Note_off_c, 0, 57, 59
1, 81539, Note_off_c, 0, 52, 61
1, 81773, Control_c, 0, 64, 117
1, 81788, Control_c, 0, 64, 72
1, 81800, Note_on_c, 0, 48, 87
1, 81803, Control_c, 0, 64, 27
1, 81806, Note_on_c, 0, 36, 76
1, 81818, Control_c, 0, 64, 0
1, 81863, Control_c, 0, 64, 62
1, 81878, Control_c, 0, 64, 71
1, 81893, Control_c, 0, 64, 85
1, 81908, Control_c, 0, 64, 127
1, 81915, Note_off_c, 0, 36, 63
1, 81941, Note_off_c, 0, 48, 61
1, 81982, Note_on_c, 0, 70, 76
1, 81983, Note_off_c, 0, 69, 59
1, 82092, Note_on_c, 0, 69, 78
1, 82096, Note_off_c, 0, 70, 59
1, 82179, Note_on_c, 0, 68, 79
1, 82190, Note_off_c, 0, 69, 60
1, 82245, Note_off_c, 0, 68, 60
1, 82284, Note_on_c, 0, 65, 79
1, 82286, Note_on_c, 0, 69, 83
1, 82296, Note_on_c, 0, 63, 67
1, 82302, Note_on_c, 0, 53, 50
1, 82304, Note_on_c, 0, 57, 56
1, 82313, Note_off_c, 0, 65, 59
1, 82328, Note_off_c, 0, 63, 61
1, 82329, Note_off_c, 0, 53, 56
1, 82343, Note_off_c, 0, 57, 61
1, 82346, Note_off_c, 0, 69, 60
1, 82400, Note_on_c, 0, 81, 70
1, 82408, Note_on_c, 0, 79, 65
1, 82448, Note_off_c, 0, 81, 59
1, 82458, Note_off_c, 0, 79, 55
1, 82506, Note_on_c, 0, 76, 70
1, 82558, Note_off_c, 0, 76, 46
1, 82592, Note_on_c, 0, 77, 81
1, 82647, Note_off_c, 0, 77, 61
1, 82710, Note_on_c, 0, 65, 68
1, 82718, Note_on_c, 0, 63, 66
1, 82718, Note_on_c, 0, 77, 85
1, 82723, Note_on_c, 0, 57, 58
1, 82736, Note_on_c, 0, 53, 36
1, 82738, Note_off_c, 0, 65, 63
1, 82752, Note_off_c, 0, 63, 60
1, 82772, Note_off_c, 0, 57, 59
1, 82780, Note_off_c, 0, 53, 49
1, 82785, Note_off_c, 0, 77, 61
1, 82894, Note_on_c, 0, 91, 87
1, 82993, Note_off_c, 0, 91, 0
1, 83001, Note_on_c, 0, 89, 84
1, 83014, Note_on_c, 0, 91, 5
1, 83060, Note_off_c, 0, 91, 38
1, 83094, Note_on_c, 0, 88, 83
1, 83197, Note_on_c, 0, 65, 69
1, 83200, Note_on_c, 0, 87, 83
1, 83204, Note_on_c, 0, 63, 69
1, 83210, Note_on_c, 0, 53, 59
1, 83212, Note_off_c, 0, 89, 61
1, 83213, Note_off_c, 0, 88, 64
1, 83216, Note_on_c, 0, 57, 57
1, 83224, Note_off_c, 0, 65, 63
1, 83243, Note_off_c, 0, 53, 64
1, 83243, Note_off_c, 0, 63, 58
1, 83253, Note_off_c, 0, 57, 63
1, 83267, Note_off_c, 0, 87, 61
1, 83297, Note_on_c, 0, 84, 76
1, 83393, Note_on_c, 0, 81, 76
1, 83398, Note_off_c, 0, 84, 53
1, 83470, Note_on_c, 0, 82, 80
1, 83482, Note_off_c, 0, 81, 60
1, 83572, Note_on_c, 0, 86, 86
1, 83573, Note_off_c, 0, 82, 60
1, 83592, Note_on_c, 0, 65, 66
1, 83595, Note_on_c, 0, 63, 69
1, 83609, Note_on_c, 0, 53, 46
1, 83611, Note_on_c, 0, 57, 51
1, 83619, Note_off_c, 0, 65, 65
1, 83623, Note_off_c, 0, 63, 62
1, 83636, Note_off_c, 0, 53, 57
1, 83640, Note_off_c, 0, 57, 58
1, 83660, Note_on_c, 0, 84, 76
1, 83691, Note_off_c, 0, 86, 59
1, 83727, Note_on_c, 0, 82, 76
1, 83759, Note_off_c, 0, 84, 60
1, 83800, Note_on_c, 0, 79, 76
1, 83821, Note_off_c, 0, 82, 61
1, 83851, Note_off_c, 0, 79, 63
1, 83885, Note_on_c, 0, 77, 69
1, 83964, Note_on_c, 0, 74, 79
1, 83967, Note_off_c, 0, 77, 58
1, 84049, Note_on_c, 0, 65, 69
1, 84056, Note_on_c, 0, 63, 67
1, 84056, Note_on_c, 0, 75, 83
1, 84057, Note_on_c, 0, 53, 64
1, 84060, Note_off_c, 0, 74, 60
1, 84069, Note_on_c, 0, 57, 50
1, 84080, Note_off_c, 0, 65, 63
1, 84084, Note_off_c, 0, 63, 65
1, 84106, Note_off_c, 0, 53, 59
1, 84109, Note_off_c, 0, 57, 63
1, 84140, Note_off_c, 0, 75, 61
1, 84180, Note_on_c, 0, 76, 74
1, 84282, Note_on_c, 0, 77, 74
1, 84282, Note_off_c, 0, 76, 61
1, 84355, Note_on_c, 0, 78, 73
1, 84358, Note_off_c, 0, 77, 60
1, 84418, Note_off_c, 0, 78, 62
1, 84419, Note_on_c, 0, 81, 73
1, 84498, Note_on_c, 0, 79, 75
1, 84531, Note_off_c, 0, 81, 60
1, 84561, Note_on_c, 0, 77, 64
1, 84573, Note_on_c, 0, 78, 42
1, 84573, Note_off_c, 0, 79, 62
1, 84577, Control_c, 0, 67, 8
1, 84608, Note_off_c, 0, 78, 48
1, 84621, Note_on_c, 0, 75, 77
1, 84624, Note_off_c, 0, 77, 62
1, 84651, Control_c, 0, 67, 8
1, 84665, Control_c, 0, 64, 107
1, 84672, Note_off_c, 0, 75, 63
1, 84680, Control_c, 0, 64, 73
1, 84695, Control_c, 0, 64, 43
1, 84695, Control_c, 0, 67, 9
1, 84710, Control_c, 0, 64, 0
1, 84716, Note_on_c, 0, 73, 89
1, 84721, Note_on_c, 0, 46, 64
1, 84722, Note_on_c, 0, 34, 57
1, 84739, Control_c, 0, 67, 9
1, 84769, Control_c, 0, 64, 63
1, 84769, Control_c, 0, 67, 10
1, 84784, Control_c, 0, 64, 70
1, 84799, Control_c, 0, 64, 79
1, 84814, Control_c, 0, 64, 90
1, 84820, Note_off_c, 0, 34, 61
1, 84829, Control_c, 0, 64, 103
1, 84838, Note_off_c, 0, 46, 62
1, 84844, Control_c, 0, 64, 118
1, 84859, Control_c, 0, 64, 127
1, 84888, Control_c, 0, 67, 9
1, 84918, Note_off_c, 0, 73, 55
1, 85074, Control_c, 0, 67, 10
1, 85326, Control_c, 0, 67, 10
1, 85439, Note_on_c, 0, 74, 82
1, 85455, Note_on_c, 0, 50, 36
1, 85458, Note_on_c, 0, 58, 46
1, 85504, Note_on_c, 0, 53, 12
1, 85610, Note_off_c, 0, 53, 30
1, 85625, Note_off_c, 0, 50, 54
1, 85724, Note_off_c, 0, 58, 34
1, 85887, Note_on_c, 0, 62, 69
1, 85893, Note_on_c, 0, 58, 56
1, 85901, Note_on_c, 0, 53, 55
1, 85965, Note_off_c, 0, 62, 58
1, 85975, Note_off_c, 0, 58, 60
1, 86002, Note_off_c, 0, 53, 60
1, 86074, Control_c, 0, 67, 11
1, 86088, Control_c, 0, 67, 11
1, 86103, Control_c, 0, 67, 12
1, 86118, Control_c, 0, 67, 12
1, 86133, Control_c, 0, 67, 13
1, 86148, Control_c, 0, 67, 13
1, 86162, Control_c, 0, 67, 14
1, 86177, Control_c, 0, 67, 14
1, 86192, Control_c, 0, 67, 15
1, 86207, Control_c, 0, 67, 16
1, 86222, Control_c, 0, 67, 16
1, 86236, Control_c, 0, 67, 17
1, 86251, Control_c, 0, 67, 19
1, 86266, Control_c, 0, 67, 21
1, 86281, Control_c, 0, 67, 24
1, 86294, Note_on_c, 0, 39, 75
1, 86295, Control_c, 0, 64, 102
1, 86295, Control_c, 0, 67, 26
1, 86310, Control_c, 0, 64, 73
1, 86310, Control_c, 0, 67, 29
1, 86325, Control_c, 0, 64, 35
1, 86325, Control_c, 0, 67, 30
1, 86340, Control_c, 0, 64, 0
1, 86340, Control_c, 0, 67, 31
1, 86370, Control_c, 0, 67, 32
1, 86400, Control_c, 0, 64, 63
1, 86415, Control_c, 0, 64, 71
1, 86415, Control_c, 0, 67, 31
1, 86430, Control_c, 0, 64, 80
1, 86430, Control_c, 0, 67, 31
1, 86444, Control_c, 0, 64, 92
1, 86444, Control_c, 0, 67, 30
1, 86459, Control_c, 0, 64, 102
1, 86459, Control_c, 0, 67, 30
1, 86462, Note_off_c, 0, 39, 60
1, 86474, Control_c, 0, 64, 109
1, 86488, Control_c, 0, 64, 115
1, 86488, Control_c, 0, 67, 29
1, 86503, Control_c, 0, 64, 117
1, 86503, Control_c, 0, 67, 28
1, 86525, Control_c, 0, 64, 118
1, 86525, Control_c, 0, 67, 28
1, 86540, Control_c, 0, 64, 120
1, 86555, Control_c, 0, 67, 27
1, 86570, Control_c, 0, 67, 27
1, 86585, Control_c, 0, 67, 26
1, 86601, Control_c, 0, 64, 121
1, 86601, Control_c, 0, 67, 26
1, 86616, Control_c, 0, 67, 25
1, 86631, Control_c, 0, 67, 25
1, 86646, Control_c, 0, 64, 124
1, 86661, Control_c, 0, 67, 24
1, 86675, Control_c, 0, 64, 127
1, 86675, Control_c, 0, 67, 24
1, 86705, Control_c, 0, 67, 23
1, 86734, Control_c, 0, 67, 23
1, 86749, Control_c, 0, 67, 22
1, 86758, Note_on_c, 0, 72, 78
1, 86764, Control_c, 0, 67, 22
1, 86774, Note_on_c, 0, 51, 54
1, 86774, Note_on_c, 0, 60, 57
1, 86793, Control_c, 0, 67, 21
1, 86794, Note_off_c, 0, 74, 50
1, 86889, Poly_aftertouch_c, 0, 54, 0
1, 86910, Note_off_c, 0, 51, 54
1, 86986, Control_c, 0, 67, 22
1, 87001, Control_c, 0, 67, 22
1, 87016, Control_c, 0, 67, 23
1, 87027, Note_off_c, 0, 72, 59
1, 87031, Control_c, 0, 67, 23
1, 87045, Control_c, 0, 67, 24
1, 87048, Note_off_c, 0, 60, 0
1, 87060, Control_c, 0, 67, 25
1, 87061, Note_on_c, 0, 60, 33
1, 87068, Note_on_c, 0, 67, 83
1, 87075, Control_c, 0, 67, 25
1, 87079, Note_on_c, 0, 63, 63
1, 87095, Note_on_c, 0, 55, 57
1, 87105, Control_c, 0, 67, 26
1, 87111, Note_off_c, 0, 63, 63
1, 87115, Note_off_c, 0, 60, 58
1, 87134, Control_c, 0, 67, 26
1, 87147, Note_off_c, 0, 55, 59
1, 87370, Note_off_c, 0, 67, 57
1, 87454, Control_c, 0, 67, 27
1, 87482, Note_on_c, 0, 70, 81
1, 87483, Control_c, 0, 67, 27
1, 87485, Note_on_c, 0, 38, 64
1, 87498, Control_c, 0, 64, 115
1, 87498, Control_c, 0, 67, 28
1, 87513, Control_c, 0, 64, 74
1, 87513, Control_c, 0, 67, 28
1, 87528, Control_c, 0, 64, 51
1, 87528, Control_c, 0, 67, 29
1, 87542, Control_c, 0, 64, 0
1, 87542, Control_c, 0, 67, 29
1, 87572, Control_c, 0, 67, 30
1, 87602, Control_c, 0, 64, 50
1, 87616, Control_c, 0, 64, 65
1, 87631, Control_c, 0, 64, 71
1, 87646, Control_c, 0, 64, 80
1, 87661, Control_c, 0, 64, 92
1, 87672, Note_off_c, 0, 38, 62
1, 87676, Control_c, 0, 64, 105
1, 87691, Control_c, 0, 64, 124
1, 87705, Control_c, 0, 64, 127
1, 87720, Control_c, 0, 67, 30
1, 87780, Control_c, 0, 67, 31
1, 88063, Note_on_c, 0, 63, 55
1, 88068, Control_c, 0, 67, 31
1, 88090, Note_on_c, 0, 55, 33
1, 88098, Control_c, 0, 67, 32
1, 88113, Control_c, 0, 67, 32
1, 88128, Control_c, 0, 67, 33
1, 88132, Note_on_c, 0, 58, 17
1, 88142, Control_c, 0, 67, 33
1, 88172, Control_c, 0, 67, 34
1, 88174, Note_off_c, 0, 55, 51
1, 88179, Note_off_c, 0, 58, 46
1, 88188, Control_c, 0, 67, 34
1, 88203, Control_c, 0, 67, 35
1, 88247, Control_c, 0, 67, 36
1, 88262, Control_c, 0, 67, 36
1, 88277, Control_c, 0, 67, 38
1, 88291, Control_c, 0, 67, 42
1, 88306, Control_c, 0, 67, 47
1, 88321, Control_c, 0, 67, 53
1, 88336, Control_c, 0, 67, 59
1, 88351, Control_c, 0, 67, 64
1, 88365, Control_c, 0, 67, 70
1, 88380, Control_c, 0, 67, 75
1, 88395, Control_c, 0, 67, 81
1, 88410, Note_off_c, 0, 63, 53
1, 88410, Control_c, 0, 67, 86
1, 88425, Control_c, 0, 67, 91
1, 88439, Control_c, 0, 67, 97
1, 88454, Control_c, 0, 67, 103
1, 88460, Note_on_c, 0, 62, 43
1, 88468, Note_off_c, 0, 70, 59
1, 88469, Control_c, 0, 67, 109
1, 88473, Note_on_c, 0, 58, 27
1, 88482, Note_on_c, 0, 55, 26
1, 88483, Control_c, 0, 67, 114
1, 88498, Control_c, 0, 67, 119
1, 88513, Control_c, 0, 67, 123
1, 88525, Note_off_c, 0, 62, 51
1, 88528, Control_c, 0, 67, 127
1, 88539, Note_off_c, 0, 55, 51
1, 88541, Note_off_c, 0, 58, 46
1, 88875, Note_on_c, 0, 66, 65
1, 88889, Note_on_c, 0, 50, 32
1, 88921, Control_c, 0, 64, 124
1, 88936, Control_c, 0, 64, 89
1, 88951, Control_c, 0, 64, 74
1, 88965, Control_c, 0, 64, 64
1, 88980, Control_c, 0, 64, 49
1, 88996, Control_c, 0, 64, 35
1, 89011, Control_c, 0, 64, 33
1, 89055, Control_c, 0, 64, 34
1, 89070, Control_c, 0, 64, 35
1, 89085, Control_c, 0, 64, 38
1, 89100, Control_c, 0, 64, 43
1, 89114, Control_c, 0, 64, 48
1, 89129, Control_c, 0, 64, 53
1, 89144, Control_c, 0, 64, 57
1, 89159, Control_c, 0, 64, 60
1, 89174, Control_c, 0, 64, 63
1, 89188, Control_c, 0, 64, 65
1, 89203, Control_c, 0, 64, 68
1, 89218, Control_c, 0, 64, 73
1, 89232, Control_c, 0, 64, 81
1, 89247, Control_c, 0, 64, 87
1, 89262, Control_c, 0, 64, 92
1, 89277, Control_c, 0, 64, 96
1, 89292, Control_c, 0, 64, 99
1, 89306, Control_c, 0, 64, 103
1, 89321, Control_c, 0, 64, 107
1, 89333, Note_on_c, 0, 58, 33
1, 89336, Control_c, 0, 64, 110
1, 89339, Note_on_c, 0, 61, 41
1, 89351, Control_c, 0, 64, 115
1, 89366, Control_c, 0, 64, 121
1, 89381, Control_c, 0, 64, 127
1, 89635, Note_off_c, 0, 61, 39
1, 89653, Note_off_c, 0, 58, 35
1, 89942, Note_on_c, 0, 60, 40
1, 89956, Note_on_c, 0, 57, 37
1, 90110, Note_off_c, 0, 57, 34
1, 90124, Note_off_c, 0, 60, 30
1, 90134, Note_off_c, 0, 50, 35
1, 90242, Note_off_c, 0, 66, 38
1, 90640, Note_on_c, 0, 67, 44
1, 90646, Note_on_c, 0, 43, 38
1, 90657, Control_c, 0, 64, 98
1, 90671, Control_c, 0, 64, 79
1, 90686, Control_c, 0, 64, 65
1, 90701, Control_c, 0, 64, 47
1, 90716, Control_c, 0, 64, 0
1, 90746, Control_c, 0, 64, 17
1, 90760, Control_c, 0, 64, 44
1, 90775, Control_c, 0, 64, 61
1, 90790, Control_c, 0, 64, 67
1, 90804, Control_c, 0, 64, 73
1, 90819, Control_c, 0, 64, 82
1, 90834, Control_c, 0, 64, 89
1, 90849, Control_c, 0, 64, 92
1, 90861, Note_off_c, 0, 43, 43
1, 90864, Control_c, 0, 64, 95
1, 90878, Control_c, 0, 64, 97
1, 90886, Note_off_c, 0, 67, 57
1, 90893, Control_c, 0, 64, 98
1, 90908, Control_c, 0, 64, 99
1, 90923, Control_c, 0, 64, 100
1, 90938, Control_c, 0, 64, 101
1, 90952, Control_c, 0, 64, 103
1, 90967, Control_c, 0, 64, 105
1, 90982, Control_c, 0, 64, 107
1, 90997, Control_c, 0, 64, 109
1, 91019, Control_c, 0, 64, 110
1, 91034, Control_c, 0, 64, 111
1, 91049, Control_c, 0, 64, 113
1, 91064, Control_c, 0, 64, 114
1, 91079, Control_c, 0, 64, 116
1, 91093, Control_c, 0, 64, 117
1, 91108, Control_c, 0, 64, 118
1, 91123, Control_c, 0, 64, 124
1, 91138, Control_c, 0, 64, 127
1, 91385, Note_on_c, 0, 82, 52
1, 91398, Note_on_c, 0, 70, 37
1, 91410, Note_on_c, 0, 65, 30
1, 91413, Note_on_c, 0, 55, 24
1, 91486, Poly_aftertouch_c, 0, 58, 127
1, 91590, Note_off_c, 0, 82, 36
1, 91627, Note_off_c, 0, 65, 31
1, 91631, Note_off_c, 0, 70, 37
1, 91679, Note_on_c, 0, 74, 43
1, 91885, Note_off_c, 0, 74, 43
1, 91906, Note_on_c, 0, 63, 34
1, 91913, Note_on_c, 0, 77, 46
1, 91967, Note_off_c, 0, 63, 43
1, 92001, Poly_aftertouch_c, 0, 58, 0
1, 92019, Note_off_c, 0, 55, 37
1, 92082, Note_off_c, 0, 77, 35
1, 92097, Note_on_c, 0, 75, 51
1, 92256, Control_c, 0, 64, 92
1, 92271, Control_c, 0, 64, 73
1, 92286, Control_c, 0, 64, 59
1, 92301, Control_c, 0, 64, 0
1, 92315, Note_on_c, 0, 42, 44
1, 92345, Control_c, 0, 64, 58
1, 92360, Control_c, 0, 64, 71
1, 92374, Control_c, 0, 64, 84
1, 92389, Control_c, 0, 64, 107
1, 92398, Note_off_c, 0, 75, 57
1, 92404, Control_c, 0, 64, 127
1, 92405, Note_off_c, 0, 42, 52
1, 92731, Note_on_c, 0, 81, 59
1, 92737, Note_on_c, 0, 63, 35
1, 92738, Note_on_c, 0, 54, 32
1, 92753, Note_on_c, 0, 69, 33
1, 92823, Note_off_c, 0, 81, 56
1, 92830, Note_off_c, 0, 69, 0
1, 92867, Poly_aftertouch_c, 0, 69, 127
1, 92890, Poly_aftertouch_c, 0, 57, 127
1, 92910, Note_off_c, 0, 63, 31
1, 92917, Note_on_c, 0, 73, 55
1, 92933, Poly_aftertouch_c, 0, 69, 0
1, 92995, Note_off_c, 0, 54, 34
1, 93086, Note_off_c, 0, 73, 49
1, 93119, Note_on_c, 0, 75, 57
1, 93133, Note_on_c, 0, 62, 37
1, 93162, Note_off_c, 0, 62, 55
1, 93175, Poly_aftertouch_c, 0, 57, 0
1, 93210, Note_off_c, 0, 75, 59
1, 93299, Note_on_c, 0, 74, 55
1, 93413, Control_c, 0, 64, 101
1, 93428, Control_c, 0, 64, 77
1, 93443, Control_c, 0, 64, 55
1, 93458, Control_c, 0, 64, 0
1, 93502, Note_on_c, 0, 43, 47
1, 93502, Control_c, 0, 64, 46
1, 93517, Control_c, 0, 64, 65
1, 93531, Control_c, 0, 64, 72
1, 93546, Control_c, 0, 64, 85
1, 93561, Control_c, 0, 64, 96
1, 93566, Note_off_c, 0, 74, 61
1, 93569, Note_off_c, 0, 43, 59
1, 93576, Control_c, 0, 64, 104
1, 93591, Control_c, 0, 64, 109
1, 93605, Control_c, 0, 64, 111
1, 93620, Control_c, 0, 64, 112
1, 93694, Control_c, 0, 64, 113
1, 93754, Control_c, 0, 64, 113
1, 93828, Control_c, 0, 64, 114
1, 93873, Control_c, 0, 64, 115
1, 93888, Note_on_c, 0, 82, 65
1, 93903, Control_c, 0, 64, 116
1, 93906, Note_on_c, 0, 70, 47
1, 93912, Note_on_c, 0, 65, 36
1, 93918, Control_c, 0, 64, 118
1, 93924, Note_on_c, 0, 55, 16
1, 93924, Note_on_c, 0, 58, 24
1, 93933, Control_c, 0, 64, 120
1, 93947, Control_c, 0, 64, 124
1, 93962, Control_c, 0, 64, 127
1, 93969, Note_off_c, 0, 70, 38
1, 93992, Note_off_c, 0, 82, 61
1, 94037, Note_off_c, 0, 55, 0
1, 94063, Note_on_c, 0, 74, 60
1, 94067, Note_off_c, 0, 58, 0
1, 94075, Poly_aftertouch_c, 0, 55, 127
1, 94104, Poly_aftertouch_c, 0, 58, 127
1, 94213, Note_off_c, 0, 74, 38
1, 94234, Note_off_c, 0, 65, 8
1, 94245, Note_on_c, 0, 63, 51
1, 94258, Note_on_c, 0, 77, 59
1, 94269, Note_off_c, 0, 63, 58
1, 94298, Poly_aftertouch_c, 0, 55, 0
1, 94316, Poly_aftertouch_c, 0, 58, 0
1, 94364, Note_off_c, 0, 77, 55
1, 94407, Note_on_c, 0, 75, 62
1, 94502, Control_c, 0, 64, 116
1, 94517, Control_c, 0, 64, 95
1, 94532, Control_c, 0, 64, 75
1, 94547, Control_c, 0, 64, 60
1, 94562, Control_c, 0, 64, 0
1, 94592, Control_c, 0, 64, 22
1, 94602, Note_on_c, 0, 41, 55
1, 94607, Control_c, 0, 64, 57
1, 94622, Control_c, 0, 64, 70
1, 94637, Control_c, 0, 64, 85
1, 94639, Note_off_c, 0, 41, 63
1, 94651, Control_c, 0, 64, 114
1, 94658, Note_off_c, 0, 75, 60
1, 94666, Control_c, 0, 64, 127
1, 94975, Note_on_c, 0, 80, 64
1, 94982, Note_on_c, 0, 63, 38
1, 94988, Note_on_c, 0, 53, 28
1, 94998, Note_on_c, 0, 68, 39
1, 95009, Note_on_c, 0, 59, 30
1, 95038, Note_off_c, 0, 68, 47
1, 95041, Note_off_c, 0, 63, 42
1, 95112, Note_off_c, 0, 80, 55
1, 95126, Note_on_c, 0, 73, 64
1, 95273, Note_on_c, 0, 56, 36
1, 95289, Note_on_c, 0, 75, 67
1, 95298, Note_on_c, 0, 62, 27
1, 95303, Note_off_c, 0, 73, 37
1, 95305, Note_off_c, 0, 59, 35
1, 95313, Note_off_c, 0, 53, 39
1, 95319, Note_off_c, 0, 56, 61
1, 95334, Note_off_c, 0, 62, 52
1, 95370, Note_off_c, 0, 75, 56
1, 95421, Note_on_c, 0, 74, 67
1, 95541, Control_c, 0, 64, 102
1, 95556, Control_c, 0, 64, 76
1, 95571, Control_c, 0, 64, 60
1, 95586, Control_c, 0, 64, 12
1, 95600, Control_c, 0, 64, 0
1, 95612, Note_on_c, 0, 39, 68
1, 95615, Control_c, 0, 64, 51
1, 95630, Control_c, 0, 64, 65
1, 95645, Control_c, 0, 64, 76
1, 95648, Note_off_c, 0, 39, 62
1, 95660, Control_c, 0, 64, 97
1, 95674, Control_c, 0, 64, 127
1, 95687, Note_off_c, 0, 74, 38
1, 95951, Note_on_c, 0, 79, 73
1, 95959, Note_on_c, 0, 51, 47
1, 95960, Note_on_c, 0, 67, 62
1, 95968, Note_on_c, 0, 62, 40
1, 95998, Note_off_c, 0, 67, 58
1, 96018, Note_off_c, 0, 51, 52
1, 96055, Note_off_c, 0, 79, 58
1, 96082, Note_on_c, 0, 71, 68
1, 96155, Note_off_c, 0, 62, 33
1, 96216, Note_off_c, 0, 71, 54
1, 96255, Note_on_c, 0, 74, 72
1, 96258, Note_on_c, 0, 60, 24
1, 96294, Note_off_c, 0, 60, 46
1, 96359, Note_off_c, 0, 74, 38
1, 96373, Note_on_c, 0, 72, 75
1, 96482, Control_c, 0, 64, 87
1, 96496, Control_c, 0, 64, 65
1, 96511, Control_c, 0, 64, 23
1, 96526, Control_c, 0, 64, 0
1, 96541, Note_off_c, 0, 72, 60
1, 96541, Note_on_c, 0, 36, 76
1, 96541, Control_c, 0, 64, 41
1, 96556, Control_c, 0, 64, 62
1, 96571, Control_c, 0, 64, 72
1, 96586, Control_c, 0, 64, 92
1, 96587, Note_off_c, 0, 36, 62
1, 96600, Control_c, 0, 64, 127
1, 96862, Note_on_c, 0, 58, 49
1, 96862, Note_on_c, 0, 72, 74
1, 96866, Note_on_c, 0, 60, 68
1, 96872, Note_on_c, 0, 51, 45
1, 96908, Note_off_c, 0, 58, 56
1, 96908, Note_off_c, 0, 60, 52
1, 96937, Note_off_c, 0, 51, 47
1, 96982, Note_on_c, 0, 68, 75
1, 96997, Note_off_c, 0, 72, 58
1, 97119, Note_off_c, 0, 68, 55
1, 97127, Note_on_c, 0, 57, 52
1, 97127, Note_on_c, 0, 70, 75
1, 97152, Note_off_c, 0, 57, 57
1, 97247, Note_on_c, 0, 69, 70
1, 97350, Control_c, 0, 64, 95
1, 97365, Control_c, 0, 64, 70
1, 97379, Control_c, 0, 64, 50
1, 97387, Note_off_c, 0, 70, 36
1, 97392, Note_off_c, 0, 69, 60
1, 97394, Control_c, 0, 64, 24
1, 97398, Note_on_c, 0, 38, 81
1, 97409, Control_c, 0, 64, 44
1, 97424, Control_c, 0, 64, 63
1, 97439, Control_c, 0, 64, 75
1, 97453, Control_c, 0, 64, 102
1, 97456, Note_off_c, 0, 38, 62
1, 97468, Control_c, 0, 64, 127
1, 97690, Note_on_c, 0, 75, 76
1, 97699, Note_on_c, 0, 63, 69
1, 97704, Note_on_c, 0, 62, 53
1, 97712, Note_on_c, 0, 50, 47
1, 97781, Note_off_c, 0, 62, 43
1, 97781, Note_off_c, 0, 63, 58
1, 97789, Poly_aftertouch_c, 0, 55, 127
1, 97822, Note_off_c, 0, 75, 61
1, 97828, Note_on_c, 0, 71, 69
1, 97840, Poly_aftertouch_c, 0, 55, 0
1, 97843, Note_off_c, 0, 50, 32
1, 97948, Note_off_c, 0, 71, 56
1, 97956, Note_on_c, 0, 54, 3
1, 97957, Note_on_c, 0, 74, 79
1, 97994, Note_off_c, 0, 54, 36
1, 98059, Note_on_c, 0, 72, 78
1, 98091, Note_off_c, 0, 74, 59
1, 98158, Control_c, 0, 64, 121
1, 98170, Note_off_c, 0, 72, 59
1, 98173, Control_c, 0, 64, 74
1, 98188, Control_c, 0, 64, 20
1, 98194, Note_on_c, 0, 38, 89
1, 98202, Control_c, 0, 64, 0
1, 98232, Control_c, 0, 64, 53
1, 98246, Control_c, 0, 64, 70
1, 98250, Note_off_c, 0, 38, 65
1, 98261, Control_c, 0, 64, 88
1, 98276, Control_c, 0, 64, 127
1, 98306, Control_c, 0, 67, 120
1, 98320, Control_c, 0, 67, 111
1, 98335, Control_c, 0, 67, 101
1, 98350, Control_c, 0, 67, 86
1, 98365, Control_c, 0, 67, 64
1, 98380, Control_c, 0, 67, 33
1, 98395, Control_c, 0, 67, 0
1, 98462, Note_on_c, 0, 57, 68
1, 98468, Note_on_c, 0, 63, 77
1, 98469, Note_on_c, 0, 67, 73
1, 98536, Note_off_c, 0, 57, 57
1, 98553, Note_off_c, 0, 63, 54
1, 98582, Note_on_c, 0, 62, 78
1, 98604, Note_off_c, 0, 67, 58
1, 98659, Note_off_c, 0, 62, 58
1, 98704, Note_on_c, 0, 50, 78
1, 98710, Note_on_c, 0, 66, 70
1, 98712, Note_on_c, 0, 61, 78
1, 98712, Note_on_c, 0, 69, 68
1, 98731, Note_off_c, 0, 50, 65
1, 98761, Note_off_c, 0, 61, 59
1, 98768, Note_off_c, 0, 66, 57
1, 98771, Note_off_c, 0, 69, 59
1, 98800, Note_on_c, 0, 60, 82
1, 98865, Note_off_c, 0, 60, 59
1, 98892, Control_c, 0, 64, 83
1, 98907, Control_c, 0, 64, 45
1, 98922, Control_c, 0, 64, 0
1, 98938, Note_on_c, 0, 58, 93
1, 98943, Note_on_c, 0, 55, 90
1, 98946, Note_on_c, 0, 67, 77
1, 98949, Note_on_c, 0, 43, 84
1, 98954, Note_on_c, 0, 70, 72
1, 98966, Control_c, 0, 64, 55
1, 98970, Note_off_c, 0, 55, 62
1, 98976, Note_off_c, 0, 43, 65
1, 98979, Note_off_c, 0, 58, 65
1, 98981, Control_c, 0, 64, 74
1, 98996, Control_c, 0, 64, 117
1, 99009, Note_off_c, 0, 67, 60
1, 99011, Control_c, 0, 64, 127
1, 99015, Note_off_c, 0, 70, 59
1, 99179, Note_on_c, 0, 70, 89
1, 99183, Note_on_c, 0, 65, 67
1, 99185, Note_on_c, 0, 55, 63
1, 99191, Note_on_c, 0, 82, 75
1, 99212, Note_on_c, 0, 80, 30
1, 99235, Note_off_c, 0, 70, 57
1, 99248, Note_off_c, 0, 82, 61
1, 99251, Note_off_c, 0, 80, 52
1, 99286, Note_on_c, 0, 74, 77
1, 99309, Note_off_c, 0, 55, 52
1, 99316, Note_off_c, 0, 65, 55
1, 99397, Note_on_c, 0, 58, 64
1, 99401, Note_on_c, 0, 77, 82
1, 99403, Note_off_c, 0, 74, 60
1, 99414, Note_on_c, 0, 63, 29
1, 99427, Note_off_c, 0, 58, 64
1, 99447, Note_off_c, 0, 63, 50
1, 99484, Note_on_c, 0, 75, 87
1, 99516, Note_off_c, 0, 77, 61
1, 99564, Note_off_c, 0, 75, 61
1, 99566, Control_c, 0, 64, 124
1, 99581, Control_c, 0, 64, 60
1, 99596, Control_c, 0, 64, 0
1, 99616, Note_on_c, 0, 54, 96
1, 99622, Note_on_c, 0, 42, 85
1, 99626, Control_c, 0, 64, 40
1, 99641, Control_c, 0, 64, 78
1, 99656, Control_c, 0, 64, 127
1, 99659, Note_off_c, 0, 42, 61
1, 99677, Note_off_c, 0, 54, 62
1, 99834, Note_on_c, 0, 63, 80
1, 99839, Note_on_c, 0, 69, 94
1, 99842, Note_on_c, 0, 81, 85
1, 99843, Note_on_c, 0, 54, 66
1, 99909, Note_off_c, 0, 63, 56
1, 99932, Note_off_c, 0, 54, 47
1, 99938, Note_off_c, 0, 81, 51
1, 99940, Note_on_c, 0, 73, 81
1, 99958, Note_off_c, 0, 69, 58
1, 100046, Note_on_c, 0, 62, 75
1, 100055, Note_on_c, 0, 75, 78
1, 100056, Note_on_c, 0, 57, 69
1, 100070, Note_off_c, 0, 62, 66
1, 100072, Note_off_c, 0, 73, 60
1, 100085, Note_off_c, 0, 57, 65
1, 100144, Note_on_c, 0, 74, 77
1, 100176, Note_off_c, 0, 75, 60
1, 100204, Note_off_c, 0, 74, 63
1, 100212, Control_c, 0, 64, 94
1, 100227, Control_c, 0, 64, 51
1, 100242, Control_c, 0, 64, 0
1, 100252, Note_on_c, 0, 55, 96
1, 100262, Note_on_c, 0, 43, 82
1, 100282, Note_off_c, 0, 43, 67
1, 100286, Control_c, 0, 64, 74
1, 100288, Note_off_c, 0, 55, 65
1, 100289, Note_on_c, 0, 51, 41
1, 100301, Control_c, 0, 64, 127
1, 100322, Note_off_c, 0, 51, 55
1, 100463, Note_on_c, 0, 65, 74
1, 100465, Note_on_c, 0, 82, 77
1, 100467, Note_on_c, 0, 70, 79
1, 100475, Note_on_c, 0, 55, 56
1, 100488, Note_off_c, 0, 82, 66
1, 100491, Note_off_c, 0, 65, 58
1, 100492, Note_off_c, 0, 70, 63
1, 100553, Note_on_c, 0, 74, 73
1, 100579, Note_off_c, 0, 55, 28
1, 100598, Poly_aftertouch_c, 0, 71, 0
1, 100643, Note_on_c, 0, 63, 41
1, 100643, Note_on_c, 0, 58, 53
1, 100643, Note_off_c, 0, 74, 60
1, 100659, Note_on_c, 0, 77, 68
1, 100666, Note_off_c, 0, 58, 62
1, 100671, Note_off_c, 0, 63, 53
1, 100733, Note_on_c, 0, 75, 75
1, 100751, Note_off_c, 0, 77, 59
1, 100792, Note_off_c, 0, 75, 62
1, 100812, Control_c, 0, 64, 67
1, 100827, Control_c, 0, 64, 0
1, 100849, Note_on_c, 0, 53, 91
1, 100856, Note_on_c, 0, 41, 80
1, 100871, Control_c, 0, 64, 64
1, 100881, Note_off_c, 0, 41, 65
1, 100886, Control_c, 0, 64, 87
1, 100890, Note_off_c, 0, 53, 61
1, 100901, Control_c, 0, 64, 127
1, 101056, Note_on_c, 0, 80, 70
1, 101058, Note_on_c, 0, 68, 79
1, 101072, Note_on_c, 0, 63, 63
1, 101075, Note_on_c, 0, 53, 48
1, 101123, Note_off_c, 0, 53, 58
1, 101135, Note_off_c, 0, 80, 63
1, 101138, Note_on_c, 0, 73, 75
1, 101157, Note_off_c, 0, 68, 58
1, 101171, Note_off_c, 0, 63, 52
1, 101237, Note_on_c, 0, 75, 72
1, 101241, Note_on_c, 0, 72, 21
1, 101242, Note_off_c, 0, 73, 59
1, 101251, Note_on_c, 0, 62, 58
1, 101259, Note_on_c, 0, 56, 66
1, 101272, Note_off_c, 0, 62, 62
1, 101280, Note_off_c, 0, 72, 40
1, 101287, Note_off_c, 0, 56, 63
1, 101315, Note_on_c, 0, 74, 77
1, 101316, Note_off_c, 0, 75, 63
1, 101391, Control_c, 0, 64, 77
1, 101405, Note_off_c, 0, 74, 48
1, 101406, Control_c, 0, 64, 0
1, 101437, Note_on_c, 0, 39, 83
1, 101450, Control_c, 0, 64, 57
1, 101464, Control_c, 0, 64, 75
1, 101466, Note_off_c, 0, 39, 66
1, 101479, Control_c, 0, 64, 127
1, 101636, Note_on_c, 0, 67, 83
1, 101636, Note_on_c, 0, 79, 78
1, 101656, Note_on_c, 0, 62, 47
1, 101677, Note_on_c, 0, 51, 10
1, 101685, Note_off_c, 0, 67, 43
1, 101716, Note_on_c, 0, 71, 75
1, 101719, Note_off_c, 0, 79, 61
1, 101724, Note_off_c, 0, 51, 49
1, 101754, Note_off_c, 0, 62, 58
1, 101818, Note_on_c, 0, 74, 74
1, 101827, Note_off_c, 0, 71, 58
1, 101871, Poly_aftertouch_c, 0, 55, 0
1, 101893, Note_on_c, 0, 72, 80
1, 101922, Note_off_c, 0, 74, 59
1, 101947, Control_c, 0, 64, 77
1, 101954, Note_off_c, 0, 72, 62
1, 101961, Control_c, 0, 64, 44
1, 101976, Control_c, 0, 64, 0
1, 101993, Note_on_c, 0, 39, 80
1, 102006, Control_c, 0, 64, 55
1, 102020, Control_c, 0, 64, 72
1, 102026, Note_off_c, 0, 39, 66
1, 102035, Control_c, 0, 64, 95
1, 102050, Control_c, 0, 64, 127
1, 102067, Note_on_c, 0, 70, 46
1, 102095, Note_off_c, 0, 70, 55
1, 102197, Note_on_c, 0, 60, 76
1, 102205, Note_on_c, 0, 72, 70
1, 102281, Note_on_c, 0, 68, 79
1, 102288, Note_off_c, 0, 60, 58
1, 102321, Note_off_c, 0, 72, 60
1, 102377, Note_on_c, 0, 70, 73
1, 102405, Note_off_c, 0, 68, 59
1, 102447, Poly_aftertouch_c, 0, 68, 0
1, 102457, Note_on_c, 0, 68, 16
1, 102464, Note_on_c, 0, 69, 74
1, 102477, Note_off_c, 0, 70, 59
1, 102486, Note_off_c, 0, 69, 68
1, 102508, Note_off_c, 0, 68, 46
1, 102744, Note_on_c, 0, 63, 69
1, 102758, Note_on_c, 0, 75, 65
1, 102817, Note_off_c, 0, 63, 58
1, 102852, Note_on_c, 0, 71, 62
1, 102857, Note_off_c, 0, 75, 60
1, 102899, Note_on_c, 0, 74, 54
1, 102944, Note_off_c, 0, 71, 62
1, 102968, Note_on_c, 0, 72, 52
1, 102968, Note_off_c, 0, 74, 61
1, 102996, Note_off_c, 0, 72, 59
1, 103132, Control_c, 0, 64, 90
1, 103147, Control_c, 0, 64, 56
1, 103161, Control_c, 0, 64, 0
1, 103187, Note_on_c, 0, 43, 63
1, 103189, Note_on_c, 0, 50, 55
1, 103203, Note_on_c, 0, 67, 67
1, 103205, Note_on_c, 0, 58, 72
1, 103206, Control_c, 0, 64, 52
1, 103212, Note_off_c, 0, 50, 60
1, 103218, Note_off_c, 0, 43, 64
1, 103221, Control_c, 0, 64, 67
1, 103232, Note_off_c, 0, 67, 65
1, 103236, Control_c, 0, 64, 77
1, 103243, Note_off_c, 0, 58, 56
1, 103251, Control_c, 0, 64, 89
1, 103266, Control_c, 0, 64, 97
1, 103281, Control_c, 0, 64, 101
1, 103296, Control_c, 0, 64, 102
1, 103388, Note_on_c, 0, 43, 58
1, 103388, Note_on_c, 0, 55, 53
1, 103397, Note_on_c, 0, 31, 51
1, 103408, Note_on_c, 0, 60, 47
1, 103415, Note_off_c, 0, 43, 55
1, 103415, Note_off_c, 0, 55, 54
1, 103435, Note_off_c, 0, 31, 49
1, 103468, Note_on_c, 0, 58, 65
1, 103471, Note_off_c, 0, 60, 53
1, 103533, Control_c, 0, 64, 102
1, 103545, Note_off_c, 0, 58, 59
1, 103548, Control_c, 0, 64, 101
1, 103555, Note_on_c, 0, 57, 65
1, 103563, Control_c, 0, 64, 98
1, 103578, Control_c, 0, 64, 93
1, 103587, Note_off_c, 0, 57, 65
1, 103592, Control_c, 0, 64, 86
1, 103592, Control_c, 0, 67, 8
1, 103607, Control_c, 0, 64, 77
1, 103607, Control_c, 0, 67, 8
1, 103622, Control_c, 0, 64, 67
1, 103628, Note_on_c, 0, 55, 69
1, 103637, Control_c, 0, 64, 53
1, 103652, Control_c, 0, 64, 0
1, 103666, Control_c, 0, 67, 9
1, 103671, Note_off_c, 0, 55, 62
1, 103711, Control_c, 0, 67, 9
1, 103726, Note_on_c, 0, 67, 71
1, 103737, Note_on_c, 0, 43, 51
1, 103743, Note_on_c, 0, 58, 57
1, 103746, Note_on_c, 0, 50, 47
1, 103748, Control_c, 0, 67, 10
1, 103763, Control_c, 0, 67, 10
1, 103764, Note_off_c, 0, 67, 63
1, 103765, Note_off_c, 0, 43, 59
1, 103770, Note_off_c, 0, 50, 56
1, 103776, Note_off_c, 0, 58, 64
1, 103778, Control_c, 0, 67, 12
1, 103792, Control_c, 0, 67, 12
1, 103807, Control_c, 0, 67, 13
1, 103823, Control_c, 0, 67, 15
1, 103838, Control_c, 0, 67, 16
1, 103853, Control_c, 0, 67, 17
1, 103867, Control_c, 0, 67, 18
1, 103882, Control_c, 0, 67, 20
1, 103897, Control_c, 0, 67, 22
1, 103912, Control_c, 0, 67, 23
1, 103927, Control_c, 0, 67, 24
1, 103932, Note_on_c, 0, 51, 54
1, 103941, Control_c, 0, 67, 24
1, 103942, Note_on_c, 0, 55, 51
1, 103951, Note_on_c, 0, 60, 64
1, 103956, Control_c, 0, 67, 25
1, 103969, Note_off_c, 0, 55, 57
1, 103971, Control_c, 0, 67, 26
1, 103985, Control_c, 0, 67, 28
1, 104000, Control_c, 0, 67, 30
1, 104004, Note_off_c, 0, 51, 61
1, 104012, Note_on_c, 0, 50, 55
1, 104015, Control_c, 0, 67, 33
1, 104029, Note_on_c, 0, 58, 67
1, 104030, Control_c, 0, 67, 34
1, 104041, Note_off_c, 0, 50, 59
1, 104041, Note_off_c, 0, 60, 57
1, 104045, Control_c, 0, 67, 36
1, 104059, Control_c, 0, 67, 38
1, 104074, Control_c, 0, 67, 39
1, 104089, Control_c, 0, 67, 40
1, 104104, Control_c, 0, 67, 40
1, 104106, Note_on_c, 0, 57, 71
1, 104112, Note_off_c, 0, 58, 62
1, 104119, Control_c, 0, 67, 41
1, 104133, Control_c, 0, 67, 41
1, 104164, Control_c, 0, 64, 38
1, 104164, Control_c, 0, 67, 40
1, 104178, Note_off_c, 0, 57, 58
1, 104179, Control_c, 0, 64, 55
1, 104179, Control_c, 0, 67, 38
1, 104187, Note_on_c, 0, 55, 73
1, 104194, Control_c, 0, 64, 62
1, 104194, Control_c, 0, 67, 34
1, 104208, Control_c, 0, 64, 65
1, 104208, Control_c, 0, 67, 28
1, 104223, Control_c, 0, 64, 67
1, 104223, Control_c, 0, 67, 21
1, 104238, Control_c, 0, 64, 71
1, 104238, Control_c, 0, 67, 0
1, 104246, Note_off_c, 0, 55, 60
1, 104253, Control_c, 0, 64, 75
1, 104262, Note_on_c, 0, 43, 67
1, 104268, Control_c, 0, 64, 80
1, 104269, Note_on_c, 0, 51, 73
1, 104273, Note_on_c, 0, 48, 65
1, 104280, Note_on_c, 0, 65, 80
1, 104282, Control_c, 0, 64, 90
1, 104297, Control_c, 0, 64, 111
1, 104312, Control_c, 0, 64, 127
1, 104353, Note_off_c, 0, 43, 60
1, 104359, Note_on_c, 0, 60, 79
1, 104372, Note_off_c, 0, 65, 61
1, 104443, Note_on_c, 0, 57, 96
1, 104455, Note_on_c, 0, 63, 75
1, 104466, Note_off_c, 0, 60, 59
1, 104493, Note_off_c, 0, 51, 61
1, 104501, Note_off_c, 0, 57, 64
1, 104519, Note_off_c, 0, 48, 60
1, 104550, Note_on_c, 0, 54, 68
1, 104561, Note_off_c, 0, 63, 59
1, 104611, Note_on_c, 0, 60, 64
1, 104614, Note_off_c, 0, 54, 62
1, 104684, Note_off_c, 0, 60, 61
1, 104686, Note_on_c, 0, 63, 68
1, 104714, Note_off_c, 0, 63, 65
1, 104781, Note_on_c, 0, 66, 73
1, 104814, Note_off_c, 0, 66, 62
1, 104872, Note_on_c, 0, 72, 69
1, 104918, Note_on_c, 0, 55, 80
1, 104932, Note_on_c, 0, 43, 56
1, 104937, Note_on_c, 0, 77, 68
1, 104944, Note_off_c, 0, 55, 66
1, 104955, Note_off_c, 0, 43, 63
1, 104967, Note_off_c, 0, 72, 53
1, 105004, Note_on_c, 0, 75, 68
1, 105074, Note_on_c, 0, 74, 70
1, 105074, Note_off_c, 0, 77, 59
1, 105083, Note_off_c, 0, 75, 63
1, 105088, Note_on_c, 0, 63, 82
1, 105099, Note_on_c, 0, 51, 66
1, 105127, Note_off_c, 0, 63, 55
1, 105129, Note_off_c, 0, 51, 63
1, 105141, Note_on_c, 0, 72, 83
1, 105150, Note_off_c, 0, 74, 61
1, 105193, Note_off_c, 0, 72, 64
1, 105250, Note_on_c, 0, 62, 78
1, 105255, Note_on_c, 0, 79, 88
1, 105257, Note_on_c, 0, 70, 89
1, 105260, Note_on_c, 0, 50, 70
1, 105272, Note_off_c, 0, 62, 69
1, 105282, Note_off_c, 0, 50, 63
1, 105291, Note_on_c, 0, 60, 26
1, 105314, Note_off_c, 0, 79, 61
1, 105320, Note_off_c, 0, 60, 55
1, 105320, Note_off_c, 0, 70, 57
1, 105439, Note_on_c, 0, 67, 75
1, 105442, Note_on_c, 0, 55, 80
1, 105448, Note_on_c, 0, 72, 71
1, 105452, Note_on_c, 0, 43, 63
1, 105469, Note_off_c, 0, 55, 66
1, 105479, Note_off_c, 0, 43, 58
1, 105512, Note_off_c, 0, 67, 44
1, 105516, Note_on_c, 0, 70, 80
1, 105554, Note_off_c, 0, 72, 59
1, 105591, Note_on_c, 0, 69, 75
1, 105612, Note_off_c, 0, 70, 59
1, 105645, Control_c, 0, 64, 104
1, 105660, Control_c, 0, 64, 78
1, 105660, Control_c, 0, 67, 9
1, 105662, Note_on_c, 0, 67, 81
1, 105665, Note_off_c, 0, 69, 60
1, 105675, Control_c, 0, 64, 62
1, 105675, Control_c, 0, 67, 11
1, 105690, Control_c, 0, 64, 0
1, 105690, Control_c, 0, 67, 12
1, 105705, Control_c, 0, 67, 12
1, 105719, Note_off_c, 0, 67, 60
1, 105719, Control_c, 0, 67, 13
1, 105749, Control_c, 0, 67, 13
1, 105761, Note_on_c, 0, 62, 64
1, 105763, Note_on_c, 0, 79, 84
1, 105768, Note_on_c, 0, 70, 80
1, 105775, Note_on_c, 0, 55, 41
1, 105790, Note_off_c, 0, 62, 65
1, 105802, Note_off_c, 0, 55, 54
1, 105809, Control_c, 0, 67, 13
1, 105823, Note_off_c, 0, 79, 64
1, 105828, Note_off_c, 0, 70, 59
1, 105839, Control_c, 0, 67, 12
1, 105868, Control_c, 0, 67, 12
1, 105913, Control_c, 0, 67, 11
1, 105945, Note_on_c, 0, 63, 61
1, 105953, Note_on_c, 0, 67, 62
1, 105957, Note_on_c, 0, 72, 71
1, 105986, Note_off_c, 0, 67, 57
1, 106014, Note_off_c, 0, 63, 58
1, 106029, Note_on_c, 0, 62, 59
1, 106036, Note_on_c, 0, 70, 77
1, 106056, Note_off_c, 0, 72, 60
1, 106061, Note_off_c, 0, 62, 63
1, 106098, Control_c, 0, 67, 11
1, 106113, Control_c, 0, 67, 10
1, 106116, Note_on_c, 0, 69, 75
1, 106130, Note_off_c, 0, 70, 61
1, 106142, Control_c, 0, 67, 10
1, 106157, Control_c, 0, 67, 9
1, 106172, Control_c, 0, 67, 8
1, 106187, Control_c, 0, 67, 0
1, 106188, Note_on_c, 0, 67, 77
1, 106217, Control_c, 0, 64, 42
1, 106221, Note_off_c, 0, 69, 38
1, 106232, Control_c, 0, 64, 57
1, 106242, Note_off_c, 0, 67, 61
1, 106247, Control_c, 0, 64, 61
1, 106261, Control_c, 0, 64, 63
1, 106276, Control_c, 0, 64, 64
1, 106277, Note_on_c, 0, 77, 92
1, 106279, Note_on_c, 0, 55, 65
1, 106284, Note_on_c, 0, 63, 76
1, 106288, Note_on_c, 0, 60, 66
1, 106291, Control_c, 0, 64, 66
1, 106306, Control_c, 0, 64, 70
1, 106321, Control_c, 0, 64, 76
1, 106335, Control_c, 0, 64, 83
1, 106350, Control_c, 0, 64, 91
1, 106365, Control_c, 0, 64, 101
1, 106367, Note_on_c, 0, 72, 75
1, 106369, Note_off_c, 0, 55, 60
1, 106378, Note_off_c, 0, 77, 62
1, 106380, Control_c, 0, 64, 115
1, 106394, Control_c, 0, 64, 127
1, 106460, Note_on_c, 0, 69, 99
1, 106468, Note_on_c, 0, 75, 79
1, 106480, Note_off_c, 0, 72, 59
1, 106512, Note_off_c, 0, 63, 61
1, 106534, Note_off_c, 0, 69, 61
1, 106548, Note_off_c, 0, 60, 59
1, 106562, Note_on_c, 0, 66, 72
1, 106573, Note_off_c, 0, 75, 60
1, 106620, Note_off_c, 0, 66, 62
1, 106624, Note_on_c, 0, 72, 71
1, 106696, Note_on_c, 0, 75, 72
1, 106696, Note_off_c, 0, 72, 63
1, 106734, Note_off_c, 0, 75, 61
1, 106794, Note_on_c, 0, 78, 79
1, 106835, Note_off_c, 0, 78, 64
1, 106873, Note_on_c, 0, 84, 72
1, 106941, Note_on_c, 0, 67, 87
1, 106943, Note_on_c, 0, 89, 80
1, 106951, Note_on_c, 0, 55, 76
1, 106978, Note_off_c, 0, 55, 68
1, 106986, Note_off_c, 0, 67, 59
1, 107007, Note_off_c, 0, 84, 57
1, 107017, Note_on_c, 0, 87, 70
1, 107097, Note_on_c, 0, 86, 74
1, 107098, Note_off_c, 0, 89, 62
1, 107108, Note_off_c, 0, 87, 63
1, 107114, Note_on_c, 0, 75, 88
1, 107117, Note_on_c, 0, 63, 81
1, 107177, Note_off_c, 0, 63, 60
1, 107178, Note_off_c, 0, 86, 63
1, 107179, Note_off_c, 0, 75, 60
1, 107182, Note_on_c, 0, 84, 86
1, 107232, Note_off_c, 0, 84, 63
1, 107281, Note_on_c, 0, 74, 94
1, 107289, Note_on_c, 0, 82, 99
1, 107292, Note_on_c, 0, 91, 90
1, 107293, Note_on_c, 0, 62, 80
1, 107331, Note_off_c, 0, 82, 65
1, 107355, Note_off_c, 0, 62, 49
1, 107356, Note_off_c, 0, 91, 64
1, 107376, Note_off_c, 0, 74, 57
1, 107537, Control_c, 0, 64, 88
1, 107552, Control_c, 0, 64, 55
1, 107566, Control_c, 0, 64, 0
1, 107606, Note_on_c, 0, 96, 101
1, 107608, Note_on_c, 0, 91, 94
1, 107610, Control_c, 0, 64, 47
1, 107617, Note_on_c, 0, 98, 75
1, 107618, Note_off_c, 0, 98, 127
1, 107625, Control_c, 0, 64, 67
1, 107639, Control_c, 0, 64, 84
1, 107654, Control_c, 0, 64, 127
1, 107697, Note_on_c, 0, 94, 85
1, 107719, Note_off_c, 0, 91, 60
1, 107767, Note_off_c, 0, 96, 55
1, 107796, Note_on_c, 0, 86, 78
1, 107821, Note_off_c, 0, 94, 62
1, 107885, Note_on_c, 0, 75, 100
1, 107894, Note_on_c, 0, 69, 79
1, 107899, Note_on_c, 0, 90, 82
1, 107901, Note_off_c, 0, 86, 49
1, 107904, Note_on_c, 0, 94, 87
1, 107905, Note_on_c, 0, 63, 69
1, 107967, Note_on_c, 0, 66, 5
1, 107974, Note_on_c, 0, 93, 79
1, 107998, Note_off_c, 0, 75, 61
1, 108023, Note_off_c, 0, 90, 59
1, 108029, Note_off_c, 0, 66, 44
1, 108032, Note_off_c, 0, 94, 61
1, 108033, Note_off_c, 0, 69, 56
1, 108039, Note_on_c, 0, 86, 80
1, 108039, Note_off_c, 0, 93, 65
1, 108064, Note_off_c, 0, 86, 66
1, 108078, Note_on_c, 0, 74, 81
1, 108136, Note_off_c, 0, 63, 57
1, 108157, Note_on_c, 0, 82, 66
1, 108186, Note_on_c, 0, 79, 46
1, 108201, Note_off_c, 0, 82, 0
1, 108209, Note_off_c, 0, 74, 59
1, 108231, Note_off_c, 0, 79, 50
1, 108233, Note_on_c, 0, 62, 64
1, 108246, Poly_aftertouch_c, 0, 82, 127
1, 108267, Note_off_c, 0, 62, 61
1, 108271, Poly_aftertouch_c, 0, 82, 0
1, 108320, Note_on_c, 0, 74, 67
1, 108347, Poly_aftertouch_c, 0, 81, 127
1, 108372, Poly_aftertouch_c, 0, 81, 0
1, 108389, Note_off_c, 0, 74, 60
1, 108390, Note_on_c, 0, 55, 82
1, 108402, Note_on_c, 0, 79, 76
1, 108409, Note_on_c, 0, 84, 70
1, 108442, Note_off_c, 0, 55, 61
1, 108461, Note_off_c, 0, 79, 61
1, 108476, Note_on_c, 0, 82, 75
1, 108495, Note_off_c, 0, 84, 61
1, 108498, Note_off_c, 0, 82, 68
1, 108560, Note_on_c, 0, 86, 80
1, 108561, Note_on_c, 0, 62, 76
1, 108630, Note_off_c, 0, 62, 59
1, 108637, Note_on_c, 0, 96, 82
1, 108649, Note_on_c, 0, 91, 77
1, 108649, Note_off_c, 0, 86, 63
1, 108716, Note_on_c, 0, 74, 83
1, 108719, Note_on_c, 0, 94, 75
1, 108739, Note_on_c, 0, 69, 58
1, 108745, Note_off_c, 0, 91, 61
1, 108772, Note_off_c, 0, 96, 62
1, 108780, Note_off_c, 0, 74, 62
1, 108783, Note_on_c, 0, 66, 24
1, 108796, Note_on_c, 0, 86, 76
1, 108808, Note_off_c, 0, 94, 62
1, 108812, Note_off_c, 0, 69, 61
1, 108818, Control_c, 0, 64, 76
1, 108820, Note_off_c, 0, 66, 49
1, 108833, Control_c, 0, 64, 0
1, 108876, Note_on_c, 0, 75, 102
1, 108877, Control_c, 0, 64, 65
1, 108885, Note_on_c, 0, 94, 85
1, 108888, Note_on_c, 0, 69, 73
1, 108888, Note_on_c, 0, 90, 81
1, 108888, Note_off_c, 0, 86, 45
1, 108890, Note_on_c, 0, 63, 82
1, 108892, Control_c, 0, 64, 99
1, 108906, Control_c, 0, 64, 127
1, 108913, Note_on_c, 0, 66, 55
1, 108950, Note_on_c, 0, 93, 74
1, 108988, Note_off_c, 0, 66, 42
1, 108997, Note_off_c, 0, 75, 59
1, 109013, Note_off_c, 0, 90, 63
1, 109015, Note_off_c, 0, 69, 58
1, 109015, Note_off_c, 0, 94, 61
1, 109016, Note_off_c, 0, 93, 65
1, 109016, Note_on_c, 0, 86, 74
1, 109040, Note_off_c, 0, 86, 68
1, 109074, Note_on_c, 0, 74, 80
1, 109132, Note_on_c, 0, 82, 67
1, 109138, Note_off_c, 0, 63, 23
1, 109143, Note_on_c, 0, 78, 59
1, 109159, Note_off_c, 0, 82, 64
1, 109175, Note_off_c, 0, 74, 59
1, 109201, Note_on_c, 0, 81, 67
1, 109211, Note_on_c, 0, 62, 64
1, 109233, Note_off_c, 0, 78, 59
1, 109250, Note_off_c, 0, 62, 58
1, 109275, Note_on_c, 0, 74, 76
1, 109275, Note_off_c, 0, 81, 62
1, 109363, Note_off_c, 0, 74, 58
1, 109367, Note_on_c, 0, 79, 71
1, 109384, Note_on_c, 0, 53, 70
1, 109386, Note_on_c, 0, 84, 65
1, 109412, Note_off_c, 0, 53, 64
1, 109418, Note_off_c, 0, 79, 62
1, 109439, Note_on_c, 0, 82, 62
1, 109450, Note_off_c, 0, 84, 61
1, 109461, Note_off_c, 0, 82, 63
1, 109519, Note_on_c, 0, 86, 73
1, 109562, Note_on_c, 0, 88, 13
1, 109596, Note_on_c, 0, 96, 78
1, 109597, Note_off_c, 0, 88, 52
1, 109603, Note_on_c, 0, 91, 76
1, 109606, Note_off_c, 0, 86, 63
1, 109666, Note_on_c, 0, 50, 73
1, 109673, Note_on_c, 0, 94, 78
1, 109690, Note_off_c, 0, 91, 62
1, 109719, Note_off_c, 0, 96, 57
1, 109742, Note_off_c, 0, 50, 59
1, 109754, Note_on_c, 0, 86, 74
1, 109767, Note_on_c, 0, 57, 22
1, 109774, Note_off_c, 0, 94, 62
1, 109806, Note_off_c, 0, 57, 48
1, 109812, Control_c, 0, 64, 71
1, 109827, Control_c, 0, 64, 0
1, 109830, Note_off_c, 0, 86, 59
1, 109843, Note_on_c, 0, 63, 100
1, 109851, Note_on_c, 0, 57, 78
1, 109857, Note_on_c, 0, 90, 84
1, 109857, Note_on_c, 0, 94, 92
1, 109857, Control_c, 0, 64, 36
1, 109862, Note_on_c, 0, 51, 74
1, 109871, Note_on_c, 0, 54, 64
1, 109871, Control_c, 0, 64, 79
1, 109880, Note_on_c, 0, 50, 49
1, 109886, Control_c, 0, 64, 127
1, 109907, Note_off_c, 0, 50, 55
1, 109916, Note_on_c, 0, 93, 76
1, 109960, Note_off_c, 0, 63, 59
1, 109970, Note_off_c, 0, 90, 64
1, 109979, Note_off_c, 0, 57, 59
1, 109983, Note_off_c, 0, 54, 58
1, 109983, Note_off_c, 0, 94, 62
1, 109984, Note_off_c, 0, 93, 65
1, 109985, Note_on_c, 0, 86, 84
1, 110012, Note_off_c, 0, 86, 65
1, 110041, Note_on_c, 0, 62, 77
1, 110083, Note_off_c, 0, 51, 57
1, 110105, Note_on_c, 0, 78, 63
1, 110149, Note_off_c, 0, 62, 52
1, 110180, Note_on_c, 0, 50, 65
1, 110185, Poly_aftertouch_c, 0, 83, 127
1, 110187, Note_on_c, 0, 81, 63
1, 110203, Note_off_c, 0, 78, 59
1, 110208, Poly_aftertouch_c, 0, 83, 0
1, 110217, Note_off_c, 0, 50, 62
1, 110241, Note_on_c, 0, 74, 73
1, 110244, Note_off_c, 0, 81, 63
1, 110274, Note_off_c, 0, 74, 60
1, 110343, Note_on_c, 0, 43, 79
1, 110351, Note_on_c, 0, 72, 74
1, 110353, Note_on_c, 0, 67, 73
1, 110375, Note_off_c, 0, 43, 65
1, 110423, Note_off_c, 0, 67, 57
1, 110424, Note_on_c, 0, 70, 73
1, 110454, Note_off_c, 0, 72, 63
1, 110478, Note_off_c, 0, 70, 59
1, 110523, Note_on_c, 0, 50, 72
1, 110533, Note_on_c, 0, 74, 73
1, 110589, Note_off_c, 0, 50, 60
1, 110603, Note_on_c, 0, 84, 73
1, 110618, Note_off_c, 0, 74, 60
1, 110629, Note_on_c, 0, 79, 70
1, 110690, Note_on_c, 0, 62, 78
1, 110697, Note_off_c, 0, 84, 59
1, 110699, Note_on_c, 0, 82, 73
1, 110720, Note_off_c, 0, 79, 60
1, 110748, Note_on_c, 0, 57, 40
1, 110751, Note_off_c, 0, 62, 60
1, 110782, Note_on_c, 0, 74, 68
1, 110790, Note_off_c, 0, 82, 61
1, 110792, Note_off_c, 0, 57, 59
1, 110813, Control_c, 0, 64, 98
1, 110828, Control_c, 0, 64, 63
1, 110843, Control_c, 0, 64, 0
1, 110849, Note_on_c, 0, 63, 98
1, 110861, Note_on_c, 0, 57, 79
1, 110862, Note_on_c, 0, 51, 77
1, 110867, Note_on_c, 0, 78, 81
1, 110869, Note_off_c, 0, 74, 39
1, 110872, Control_c, 0, 64, 60
1, 110873, Note_on_c, 0, 82, 87
1, 110887, Control_c, 0, 64, 86
1, 110895, Note_on_c, 0, 54, 55
1, 110901, Control_c, 0, 64, 127
1, 110918, Note_on_c, 0, 50, 10
1, 110933, Note_on_c, 0, 81, 68
1, 110957, Note_off_c, 0, 50, 53
1, 110960, Note_off_c, 0, 63, 59
1, 110965, Note_off_c, 0, 54, 45
1, 110976, Note_off_c, 0, 78, 61
1, 110977, Note_off_c, 0, 82, 61
1, 110980, Note_off_c, 0, 57, 59
1, 110986, Note_off_c, 0, 81, 62
1, 110990, Note_on_c, 0, 74, 68
1, 111010, Note_off_c, 0, 74, 65
1, 111050, Note_on_c, 0, 62, 78
1, 111057, Note_off_c, 0, 51, 0
1, 111112, Note_on_c, 0, 70, 41
1, 111116, Note_on_c, 0, 66, 55
1, 111131, Poly_aftertouch_c, 0, 51, 0
1, 111140, Note_off_c, 0, 70, 55
1, 111169, Note_off_c, 0, 62, 54
1, 111171, Note_on_c, 0, 69, 61
1, 111191, Note_on_c, 0, 50, 62
1, 111195, Note_off_c, 0, 66, 54
1, 111240, Note_off_c, 0, 50, 61
1, 111251, Note_on_c, 0, 62, 67
1, 111259, Note_off_c, 0, 69, 60
1, 111344, Note_on_c, 0, 67, 75
1, 111356, Note_off_c, 0, 62, 55
1, 111362, Note_on_c, 0, 41, 72
1, 111365, Note_on_c, 0, 43, 68
1, 111371, Note_on_c, 0, 72, 70
1, 111392, Note_off_c, 0, 41, 65
1, 111409, Note_off_c, 0, 67, 60
1, 111428, Note_off_c, 0, 43, 60
1, 111431, Note_on_c, 0, 70, 66
1, 111448, Note_off_c, 0, 72, 62
1, 111461, Note_off_c, 0, 70, 63
1, 111524, Note_on_c, 0, 76, 75
1, 111542, Note_on_c, 0, 50, 64
1, 111543, Note_on_c, 0, 58, 76
1, 111571, Note_off_c, 0, 58, 64
1, 111590, Note_off_c, 0, 50, 60
1, 111613, Note_off_c, 0, 76, 61
1, 111619, Note_on_c, 0, 79, 56
1, 111651, Note_on_c, 0, 81, 34
1, 111652, Note_off_c, 0, 81, 127
1, 111678, Note_on_c, 0, 86, 50
1, 111702, Note_off_c, 0, 79, 63
1, 111715, Note_on_c, 0, 82, 35
1, 111717, Note_off_c, 0, 86, 56
1, 111746, Note_off_c, 0, 82, 53
1, 111767, Note_on_c, 0, 74, 68
1, 111771, Poly_aftertouch_c, 0, 49, 127
1, 111794, Note_off_c, 0, 74, 61
1, 111798, Control_c, 0, 64, 92
1, 111811, Poly_aftertouch_c, 0, 49, 0
1, 111813, Control_c, 0, 64, 54
1, 111828, Control_c, 0, 64, 0
1, 111839, Note_on_c, 0, 49, 87
1, 111841, Note_on_c, 0, 37, 86
1, 111842, Note_on_c, 0, 83, 66
1, 111860, Note_on_c, 0, 81, 61
1, 111871, Note_on_c, 0, 44, 39
1, 111871, Note_on_c, 0, 76, 51
1, 111872, Control_c, 0, 64, 64
1, 111878, Note_off_c, 0, 81, 61
1, 111887, Control_c, 0, 64, 78
1, 111895, Note_off_c, 0, 76, 56
1, 111902, Control_c, 0, 64, 110
1, 111905, Note_off_c, 0, 44, 52
1, 111910, Note_on_c, 0, 75, 40
1, 111910, Note_off_c, 0, 83, 61
1, 111916, Control_c, 0, 64, 127
1, 111919, Note_off_c, 0, 49, 61
1, 111936, Note_off_c, 0, 75, 55
1, 111940, Note_off_c, 0, 37, 56
1, 111994, Poly_aftertouch_c, 0, 81, 127
1, 112004, Note_on_c, 0, 70, 61
1, 112019, Poly_aftertouch_c, 0, 81, 0
1, 112026, Note_on_c, 0, 50, 56
1, 112047, Note_off_c, 0, 50, 61
1, 112131, Note_on_c, 0, 74, 59
1, 112171, Note_off_c, 0, 70, 55
1, 112183, Poly_aftertouch_c, 0, 76, 0
1, 112206, Note_off_c, 0, 74, 59
1, 112209, Note_on_c, 0, 67, 73
1, 112234, Note_off_c, 0, 67, 66
1, 112236, Control_c, 0, 64, 101
1, 112251, Control_c, 0, 64, 64
1, 112266, Control_c, 0, 64, 0
1, 112294, Note_on_c, 0, 43, 74
1, 112295, Note_on_c, 0, 31, 69
1, 112301, Note_on_c, 0, 72, 86
1, 112303, Note_on_c, 0, 67, 76
1, 112310, Control_c, 0, 64, 60
1, 112325, Control_c, 0, 64, 74
1, 112333, Note_off_c, 0, 31, 62
1, 112340, Control_c, 0, 64, 104
1, 112355, Control_c, 0, 64, 127
1, 112358, Note_on_c, 0, 70, 78
1, 112359, Note_off_c, 0, 43, 60
1, 112384, Note_off_c, 0, 72, 60
1, 112396, Note_off_c, 0, 67, 59
1, 112429, Note_off_c, 0, 70, 60
1, 112440, Note_on_c, 0, 62, 59
1, 112470, Note_on_c, 0, 50, 57
1, 112486, Note_off_c, 0, 62, 0
1, 112492, Note_off_c, 0, 50, 60
1, 112510, Poly_aftertouch_c, 0, 62, 0
1, 112528, Note_on_c, 0, 69, 59
1, 112530, Note_on_c, 0, 71, 56
1, 112547, Poly_aftertouch_c, 0, 62, 127
1, 112571, Note_off_c, 0, 71, 59
1, 112601, Note_off_c, 0, 69, 52
1, 112610, Note_on_c, 0, 67, 61
1, 112613, Poly_aftertouch_c, 0, 62, 0
1, 112673, Note_off_c, 0, 67, 61
1, 112696, Note_on_c, 0, 58, 68
1, 112747, Note_off_c, 0, 58, 50
1, 112747, Control_c, 0, 64, 88
1, 112762, Control_c, 0, 64, 63
1, 112775, Note_on_c, 0, 37, 57
1, 112777, Control_c, 0, 64, 0
1, 112790, Poly_aftertouch_c, 0, 58, 0
1, 112821, Control_c, 0, 67, 10
1, 112829, Note_on_c, 0, 63, 42
1, 112836, Control_c, 0, 64, 43
1, 112836, Control_c, 0, 67, 16
1, 112842, Note_on_c, 0, 64, 34
1, 112851, Control_c, 0, 64, 65
1, 112851, Control_c, 0, 67, 23
1, 112866, Control_c, 0, 64, 71
1, 112866, Control_c, 0, 67, 32
1, 112874, Note_off_c, 0, 64, 47
1, 112880, Control_c, 0, 64, 79
1, 112880, Control_c, 0, 67, 40
1, 112895, Note_off_c, 0, 37, 54
1, 112895, Control_c, 0, 64, 86
1, 112895, Control_c, 0, 67, 49
1, 112910, Control_c, 0, 64, 90
1, 112910, Control_c, 0, 67, 57
1, 112922, Note_off_c, 0, 63, 60
1, 112925, Control_c, 0, 64, 90
1, 112925, Control_c, 0, 67, 66
1, 112938, Note_on_c, 0, 55, 65
1, 112940, Control_c, 0, 64, 91
1, 112940, Control_c, 0, 67, 71
1, 112948, Note_on_c, 0, 38, 43
1, 112956, Control_c, 0, 67, 75
1, 112971, Control_c, 0, 67, 78
1, 112978, Note_off_c, 0, 55, 60
1, 112984, Note_off_c, 0, 38, 50
1, 112985, Control_c, 0, 67, 80
1, 113000, Control_c, 0, 67, 81
1, 113015, Control_c, 0, 67, 82
1, 113030, Control_c, 0, 67, 84
1, 113044, Control_c, 0, 64, 91
1, 113044, Control_c, 0, 67, 85
1, 113052, Note_on_c, 0, 55, 58
1, 113059, Control_c, 0, 67, 87
1, 113074, Control_c, 0, 67, 89
1, 113089, Control_c, 0, 67, 91
1, 113103, Control_c, 0, 67, 93
1, 113105, Note_on_c, 0, 60, 28
1, 113118, Control_c, 0, 67, 95
1, 113127, Note_off_c, 0, 55, 45
1, 113133, Control_c, 0, 67, 98
1, 113139, Note_on_c, 0, 58, 50
1, 113148, Control_c, 0, 67, 101
1, 113150, Note_off_c, 0, 60, 43
1, 113163, Control_c, 0, 67, 104
1, 113177, Control_c, 0, 67, 107
1, 113185, Note_off_c, 0, 58, 57
1, 113192, Control_c, 0, 67, 110
1, 113200, Note_on_c, 0, 50, 64
1, 113207, Control_c, 0, 67, 113
1, 113222, Control_c, 0, 67, 116
1, 113237, Control_c, 0, 67, 119
1, 113252, Control_c, 0, 67, 120
1, 113267, Control_c, 0, 64, 89
1, 113267, Control_c, 0, 67, 121
1, 113278, Note_off_c, 0, 50, 40
1, 113282, Control_c, 0, 64, 81
1, 113282, Control_c, 0, 67, 123
1, 113296, Control_c, 0, 64, 71
1, 113296, Control_c, 0, 67, 123
1, 113298, Note_on_c, 0, 31, 48
1, 113300, Note_on_c, 0, 55, 59
1, 113311, Control_c, 0, 64, 56
1, 113311, Control_c, 0, 67, 124
1, 113317, Note_on_c, 0, 60, 57
1, 113326, Control_c, 0, 64, 0
1, 113326, Control_c, 0, 67, 124
1, 113335, Note_on_c, 0, 43, 31
1, 113341, Control_c, 0, 67, 125
1, 113344, Note_on_c, 0, 45, 15
1, 113356, Control_c, 0, 67, 126
1, 113370, Control_c, 0, 67, 127
1, 113371, Note_off_c, 0, 45, 51
1, 113385, Control_c, 0, 64, 37
1, 113394, Note_off_c, 0, 55, 57
1, 113400, Control_c, 0, 64, 64
1, 113403, Note_on_c, 0, 58, 52
1, 113414, Control_c, 0, 64, 69
1, 113419, Note_off_c, 0, 60, 54
1, 113429, Control_c, 0, 64, 76
1, 113444, Control_c, 0, 64, 83
1, 113453, Note_on_c, 0, 50, 60
1, 113453, Note_off_c, 0, 58, 58
1, 113459, Control_c, 0, 64, 89
1, 113481, Note_off_c, 0, 31, 46
1, 113481, Control_c, 0, 64, 92
1, 113496, Control_c, 0, 64, 93
1, 113514, Note_off_c, 0, 43, 37
1, 113526, Control_c, 0, 64, 94
1, 113536, Note_off_c, 0, 50, 40
1, 113548, Note_on_c, 0, 55, 55
1, 113600, Control_c, 0, 64, 95
1, 113615, Control_c, 0, 64, 97
1, 113618, Note_on_c, 0, 36, 67
1, 113621, Note_on_c, 0, 60, 66
1, 113629, Control_c, 0, 64, 102
1, 113630, Note_off_c, 0, 55, 56
1, 113635, Poly_aftertouch_c, 0, 62, 127
1, 113644, Control_c, 0, 64, 106
1, 113659, Control_c, 0, 64, 109
1, 113660, Note_off_c, 0, 36, 60
1, 113674, Control_c, 0, 64, 110
1, 113677, Poly_aftertouch_c, 0, 62, 0
1, 113689, Control_c, 0, 64, 112
1, 113703, Control_c, 0, 64, 113
1, 113714, Note_off_c, 0, 60, 59
1, 113717, Note_on_c, 0, 51, 67
1, 113718, Control_c, 0, 64, 115
1, 113733, Control_c, 0, 64, 116
1, 113747, Note_off_c, 0, 51, 61
1, 113808, Control_c, 0, 64, 109
1, 113813, Note_on_c, 0, 43, 73
1, 113817, Note_on_c, 0, 60, 74
1, 113819, Note_on_c, 0, 55, 63
1, 113822, Note_on_c, 0, 31, 67
1, 113823, Control_c, 0, 64, 91
1, 113838, Control_c, 0, 64, 76
1, 113852, Control_c, 0, 64, 63
1, 113867, Control_c, 0, 64, 0
1, 113920, Note_on_c, 0, 58, 58
1, 113926, Control_c, 0, 64, 56
1, 113938, Note_off_c, 0, 55, 59
1, 113941, Control_c, 0, 64, 69
1, 113945, Note_off_c, 0, 60, 57
1, 113952, Note_on_c, 0, 50, 62
1, 113956, Control_c, 0, 64, 79
1, 113956, Control_c, 0, 67, 127
1, 113971, Control_c, 0, 64, 95
1, 113971, Control_c, 0, 67, 121
1, 113986, Control_c, 0, 64, 127
1, 113986, Control_c, 0, 67, 110
1, 113997, Note_off_c, 0, 58, 47
1, 114000, Control_c, 0, 67, 93
1, 114015, Control_c, 0, 67, 70
1, 114030, Control_c, 0, 67, 40
1, 114045, Control_c, 0, 67, 14
1, 114047, Note_on_c, 0, 55, 73
1, 114047, Note_off_c, 0, 50, 59
1, 114056, Note_off_c, 0, 31, 58
1, 114060, Control_c, 0, 67, 0
1, 114066, Note_off_c, 0, 43, 60
1, 114067, Note_on_c, 0, 62, 59
1, 114126, Note_on_c, 0, 60, 72
1, 114128, Note_off_c, 0, 62, 56
1, 114137, Note_on_c, 0, 36, 85
1, 114163, Note_off_c, 0, 55, 46
1, 114238, Note_on_c, 0, 51, 73
1, 114253, Note_off_c, 0, 36, 62
1, 114257, Note_off_c, 0, 60, 60
1, 114291, Note_off_c, 0, 51, 61
1, 114358, Note_on_c, 0, 43, 88
1, 114359, Note_on_c, 0, 60, 92
1, 114360, Note_on_c, 0, 55, 80
1, 114361, Note_on_c, 0, 31, 82
1, 114379, Control_c, 0, 64, 80
1, 114393, Control_c, 0, 64, 55
1, 114408, Control_c, 0, 64, 0
1, 114449, Note_on_c, 0, 58, 75
1, 114468, Control_c, 0, 64, 46
1, 114483, Control_c, 0, 64, 67
1, 114490, Note_off_c, 0, 55, 57
1, 114498, Control_c, 0, 64, 76
1, 114499, Note_off_c, 0, 60, 53
1, 114513, Control_c, 0, 64, 103
1, 114526, Note_on_c, 0, 50, 72
1, 114527, Control_c, 0, 64, 127
1, 114584, Note_off_c, 0, 58, 57
1, 114617, Note_off_c, 0, 50, 61
1, 114624, Note_on_c, 0, 55, 77
1, 114635, Note_on_c, 0, 62, 68
1, 114640, Note_off_c, 0, 31, 58
1, 114657, Note_off_c, 0, 43, 60
1, 114718, Note_on_c, 0, 60, 77
1, 114739, Note_off_c, 0, 62, 56
1, 114752, Note_on_c, 0, 36, 87
1, 114763, Note_off_c, 0, 55, 57
1, 114826, Note_on_c, 0, 51, 82
1, 114841, Note_off_c, 0, 36, 54
1, 114873, Note_off_c, 0, 60, 58
1, 114881, Note_off_c, 0, 51, 59
1, 114942, Control_c, 0, 64, 92
1, 114957, Note_on_c, 0, 60, 91
1, 114957, Control_c, 0, 64, 62
1, 114958, Note_on_c, 0, 55, 83
1, 114972, Note_on_c, 0, 43, 88
1, 114974, Note_on_c, 0, 31, 80
1, 114980, Control_c, 0, 64, 0
1, 115054, Control_c, 0, 64, 66
1, 115057, Note_on_c, 0, 58, 74
1, 115067, Control_c, 0, 64, 76
1, 115082, Note_off_c, 0, 60, 54
1, 115082, Control_c, 0, 64, 97
1, 115093, Note_off_c, 0, 55, 59
1, 115097, Control_c, 0, 64, 127
1, 115145, Note_on_c, 0, 50, 67
1, 115167, Note_off_c, 0, 58, 59
1, 115210, Note_off_c, 0, 50, 61
1, 115211, Note_off_c, 0, 31, 59
1, 115221, Note_on_c, 0, 55, 73
1, 115230, Note_off_c, 0, 43, 61
1, 115232, Note_on_c, 0, 62, 71
1, 115299, Note_on_c, 0, 36, 88
1, 115312, Note_on_c, 0, 60, 78
1, 115319, Note_off_c, 0, 62, 58
1, 115339, Note_off_c, 0, 55, 59
1, 115370, Note_off_c, 0, 36, 59
1, 115428, Note_on_c, 0, 51, 83
1, 115485, Note_off_c, 0, 60, 52
1, 115501, Note_off_c, 0, 51, 61
1, 115587, Control_c, 0, 64, 84
1, 115602, Control_c, 0, 64, 46
1, 115616, Control_c, 0, 64, 0
1, 115619, Note_on_c, 0, 43, 93
1, 115619, Note_on_c, 0, 55, 97
1, 115621, Note_on_c, 0, 31, 90
1, 115658, Note_on_c, 0, 41, 36
1, 115659, Note_off_c, 0, 41, 127
1, 115661, Control_c, 0, 64, 62
1, 115676, Control_c, 0, 64, 76
1, 115690, Control_c, 0, 64, 113
1, 115699, Note_off_c, 0, 31, 60
1, 115705, Control_c, 0, 64, 127
1, 115725, Note_off_c, 0, 43, 61
1, 115839, Note_off_c, 0, 55, 55
1, 115902, Note_on_c, 0, 62, 56
1, 116010, Note_on_c, 0, 58, 63
1, 116033, Note_off_c, 0, 62, 48
1, 116048, Note_off_c, 0, 58, 65
1, 116122, Note_on_c, 0, 62, 66
1, 116182, Note_off_c, 0, 62, 56
1, 116207, Note_on_c, 0, 67, 66
1, 116271, Note_off_c, 0, 67, 57
1, 116292, Note_on_c, 0, 70, 70
1, 116317, Note_off_c, 0, 70, 66
1, 116397, Note_on_c, 0, 74, 63
1, 116434, Note_on_c, 0, 67, 68
1, 116435, Note_off_c, 0, 74, 59
1, 116452, Note_on_c, 0, 62, 56
1, 116469, Note_on_c, 0, 79, 72
1, 116500, Note_off_c, 0, 67, 57
1, 116501, Note_off_c, 0, 62, 60
1, 116542, Note_off_c, 0, 79, 59
1, 116549, Note_on_c, 0, 82, 75
1, 116587, Note_off_c, 0, 82, 60
1, 116622, Note_on_c, 0, 62, 63
1, 116639, Note_on_c, 0, 86, 77
1, 116643, Note_on_c, 0, 55, 56
1, 116692, Note_off_c, 0, 55, 54
1, 116719, Note_off_c, 0, 86, 62
1, 116722, Note_on_c, 0, 91, 69
1, 116729, Note_off_c, 0, 62, 46
1, 116782, Note_on_c, 0, 98, 79
1, 116782, Note_off_c, 0, 91, 61
1, 116786, Poly_aftertouch_c, 0, 89, 127
1, 116821, Poly_aftertouch_c, 0, 89, 0
1, 116847, Note_off_c, 0, 98, 61
1, 116863, Note_on_c, 0, 94, 86
1, 116870, Note_on_c, 0, 67, 98
1, 116877, Note_on_c, 0, 62, 86
1, 116942, Note_on_c, 0, 98, 84
1, 116982, Note_off_c, 0, 94, 59
1, 117019, Note_on_c, 0, 91, 74
1, 117036, Note_off_c, 0, 98, 61
1, 117058, Note_off_c, 0, 91, 62
1, 117106, Note_on_c, 0, 86, 64
1, 117133, Note_off_c, 0, 86, 65
1, 117196, Note_on_c, 0, 82, 70
1, 117291, Note_on_c, 0, 79, 69
1, 117294, Note_off_c, 0, 82, 59
1, 117328, Note_off_c, 0, 79, 62
1, 117373, Note_off_c, 0, 67, 60
1, 117381, Note_on_c, 0, 74, 54
1, 117396, Note_off_c, 0, 62, 58
1, 117401, Note_off_c, 0, 74, 61
1, 117460, Note_on_c, 0, 70, 68
1, 117550, Note_on_c, 0, 67, 69
1, 117553, Note_off_c, 0, 70, 58
1, 117600, Note_off_c, 0, 67, 58
1, 117630, Note_on_c, 0, 62, 70
1, 117657, Note_off_c, 0, 62, 65
1, 117729, Note_on_c, 0, 38, 92
1, 117736, Note_on_c, 0, 58, 83
1, 117836, Note_on_c, 0, 50, 85
1, 117839, Note_off_c, 0, 58, 55
1, 117884, Note_off_c, 0, 38, 62
1, 117925, Note_off_c, 0, 50, 59
1, 118004, Control_c, 0, 64, 93
1, 118013, Note_on_c, 0, 43, 95
1, 118015, Note_on_c, 0, 55, 100
1, 118018, Control_c, 0, 64, 64
1, 118020, Note_on_c, 0, 31, 83
1, 118033, Control_c, 0, 64, 0
1, 118108, Control_c, 0, 64, 63
1, 118123, Control_c, 0, 64, 73
1, 118138, Control_c, 0, 64, 89
1, 118152, Control_c, 0, 64, 127
1, 118184, Note_off_c, 0, 55, 59
1, 118215, Note_on_c, 0, 62, 58
1, 118301, Note_on_c, 0, 58, 69
1, 118338, Note_off_c, 0, 58, 64
1, 118344, Note_off_c, 0, 62, 58
1, 118399, Note_on_c, 0, 62, 62
1, 118486, Note_on_c, 0, 67, 75
1, 118493, Note_off_c, 0, 62, 58
1, 118555, Note_off_c, 0, 67, 60
1, 118570, Note_on_c, 0, 74, 78
1, 118631, Note_off_c, 0, 74, 59
1, 118635, Note_on_c, 0, 70, 75
1, 118728, Note_on_c, 0, 74, 72
1, 118739, Note_off_c, 0, 43, 52
1, 118744, Note_off_c, 0, 31, 48
1, 118755, Note_off_c, 0, 70, 57
1, 118792, Note_on_c, 0, 67, 69
1, 118802, Note_off_c, 0, 74, 60
1, 118838, Note_off_c, 0, 67, 58
1, 118896, Note_on_c, 0, 60, 42
1, 118922, Note_off_c, 0, 60, 53
1, 118959, Note_on_c, 0, 38, 88
1, 118979, Note_on_c, 0, 58, 82
1, 119005, Note_off_c, 0, 38, 61
1, 119074, Note_on_c, 0, 50, 79
1, 119088, Note_off_c, 0, 58, 58
1, 119171, Note_off_c, 0, 50, 59
1, 119197, Control_c, 0, 64, 74
1, 119212, Control_c, 0, 64, 19
1, 119217, Note_on_c, 0, 42, 93
1, 119219, Note_on_c, 0, 30, 84
1, 119221, Note_on_c, 0, 54, 89
1, 119227, Control_c, 0, 64, 0
1, 119271, Control_c, 0, 64, 59
1, 119285, Control_c, 0, 64, 71
1, 119300, Control_c, 0, 64, 89
1, 119315, Control_c, 0, 64, 127
1, 119342, Poly_aftertouch_c, 0, 32, 127
1, 119378, Note_off_c, 0, 54, 59
1, 119394, Note_on_c, 0, 62, 56
1, 119491, Note_on_c, 0, 58, 64
1, 119518, Note_off_c, 0, 58, 65
1, 119530, Note_off_c, 0, 62, 58
1, 119588, Note_on_c, 0, 62, 59
1, 119673, Note_off_c, 0, 62, 55
1, 119676, Note_on_c, 0, 66, 73
1, 119746, Note_off_c, 0, 66, 58
1, 119756, Note_on_c, 0, 74, 75
1, 119821, Note_on_c, 0, 70, 80
1, 119825, Note_off_c, 0, 74, 61
1, 119909, Note_on_c, 0, 74, 67
1, 119926, Note_off_c, 0, 70, 60
1, 119976, Note_on_c, 0, 66, 69
1, 119988, Note_off_c, 0, 74, 60
1, 120028, Note_off_c, 0, 66, 57
1, 120047, Poly_aftertouch_c, 0, 32, 0
1, 120060, Note_on_c, 0, 62, 59
1, 120063, Note_off_c, 0, 30, 61
1, 120087, Note_off_c, 0, 62, 62
1, 120142, Note_off_c, 0, 42, 36
1, 120150, Note_on_c, 0, 38, 57
1, 120176, Note_on_c, 0, 58, 64
1, 120228, Note_off_c, 0, 38, 48
1, 120247, Note_off_c, 0, 58, 58
1, 120272, Note_on_c, 0, 50, 70
1, 120370, Note_off_c, 0, 50, 56
1, 120384, Control_c, 0, 64, 105
1, 120399, Control_c, 0, 64, 74
1, 120413, Control_c, 0, 64, 53
1, 120415, Note_on_c, 0, 43, 67
1, 120427, Note_on_c, 0, 55, 73
1, 120428, Control_c, 0, 64, 0
1, 120430, Note_on_c, 0, 31, 60
1, 120487, Control_c, 0, 64, 54
1, 120502, Control_c, 0, 64, 67
1, 120517, Control_c, 0, 64, 74
1, 120532, Control_c, 0, 64, 85
1, 120546, Control_c, 0, 64, 101
1, 120561, Note_off_c, 0, 55, 57
1, 120561, Control_c, 0, 64, 120
1, 120576, Control_c, 0, 64, 127
1, 120598, Note_on_c, 0, 62, 51
1, 120609, Note_off_c, 0, 31, 57
1, 120659, Note_off_c, 0, 43, 57
1, 120688, Note_on_c, 0, 58, 61
1, 120721, Note_off_c, 0, 62, 56
1, 120725, Note_off_c, 0, 58, 65
1, 120795, Note_on_c, 0, 62, 55
1, 120847, Note_off_c, 0, 62, 53
1, 120873, Note_on_c, 0, 67, 61
1, 120940, Note_off_c, 0, 67, 58
1, 120966, Note_on_c, 0, 70, 68
1, 120993, Note_off_c, 0, 70, 66
1, 121055, Note_on_c, 0, 74, 77
1, 121131, Note_off_c, 0, 74, 59
1, 121133, Note_on_c, 0, 79, 75
1, 121195, Note_on_c, 0, 67, 82
1, 121204, Note_on_c, 0, 62, 69
1, 121212, Note_off_c, 0, 79, 63
1, 121214, Note_on_c, 0, 82, 74
1, 121262, Note_off_c, 0, 82, 61
1, 121270, Note_off_c, 0, 62, 58
1, 121275, Note_off_c, 0, 67, 59
1, 121308, Note_on_c, 0, 86, 83
1, 121366, Note_on_c, 0, 62, 67
1, 121381, Note_on_c, 0, 55, 56
1, 121393, Note_on_c, 0, 91, 85
1, 121401, Note_off_c, 0, 86, 63
1, 121452, Note_off_c, 0, 55, 49
1, 121464, Note_off_c, 0, 62, 56
1, 121479, Note_on_c, 0, 98, 79
1, 121481, Note_off_c, 0, 91, 61
1, 121550, Note_on_c, 0, 67, 96
1, 121552, Note_on_c, 0, 94, 94
1, 121557, Note_on_c, 0, 62, 90
1, 121563, Note_off_c, 0, 98, 59
1, 121603, Note_on_c, 0, 93, 61
1, 121659, Note_on_c, 0, 98, 82
1, 121665, Note_off_c, 0, 93, 63
1, 121676, Note_off_c, 0, 94, 57
1, 121750, Note_on_c, 0, 91, 73
1, 121764, Note_off_c, 0, 98, 61
1, 121799, Note_off_c, 0, 91, 62
1, 121846, Note_on_c, 0, 86, 62
1, 121862, Note_off_c, 0, 86, 65
1, 121942, Note_on_c, 0, 82, 67
1, 122004, Note_off_c, 0, 67, 57
1, 122008, Note_off_c, 0, 82, 62
1, 122027, Note_on_c, 0, 78, 37
1, 122028, Note_off_c, 0, 62, 56
1, 122047, Note_on_c, 0, 79, 47
1, 122058, Note_off_c, 0, 78, 51
1, 122069, Note_off_c, 0, 79, 61
1, 122132, Note_on_c, 0, 74, 48
1, 122155, Note_off_c, 0, 74, 59
1, 122221, Note_on_c, 0, 70, 64
1, 122305, Note_on_c, 0, 67, 70
1, 122310, Note_off_c, 0, 70, 58
1, 122368, Note_off_c, 0, 67, 60
1, 122400, Note_on_c, 0, 62, 69
1, 122441, Note_off_c, 0, 62, 58
1, 122532, Note_on_c, 0, 38, 72
1, 122535, Note_on_c, 0, 58, 78
1, 122598, Note_off_c, 0, 38, 53
1, 122644, Note_off_c, 0, 58, 57
1, 122648, Note_on_c, 0, 50, 80
1, 122771, Note_off_c, 0, 50, 58
1, 122904, Note_on_c, 0, 54, 85
1, 122911, Note_on_c, 0, 42, 73
1, 122919, Note_on_c, 0, 30, 62
1, 122925, Control_c, 0, 64, 85
1, 122940, Control_c, 0, 64, 64
1, 122955, Control_c, 0, 64, 0
1, 122970, Control_c, 0, 67, 9
1, 122985, Control_c, 0, 67, 10
1, 122999, Control_c, 0, 67, 11
1, 123014, Control_c, 0, 67, 12
1, 123029, Control_c, 0, 64, 54
1, 123029, Control_c, 0, 67, 13
1, 123044, Control_c, 0, 64, 66
1, 123044, Control_c, 0, 67, 13
1, 123059, Control_c, 0, 64, 73
1, 123074, Control_c, 0, 64, 82
1, 123089, Control_c, 0, 64, 92
1, 123104, Control_c, 0, 64, 100
1, 123119, Control_c, 0, 64, 107
1, 123119, Control_c, 0, 67, 13
1, 123133, Control_c, 0, 64, 113
1, 123148, Control_c, 0, 64, 121
1, 123163, Control_c, 0, 64, 127
1, 123178, Note_off_c, 0, 54, 57
1, 123181, Note_on_c, 0, 62, 56
1, 123214, Control_c, 0, 67, 13
1, 123289, Control_c, 0, 67, 14
1, 123306, Note_on_c, 0, 58, 60
1, 123318, Control_c, 0, 67, 14
1, 123331, Note_off_c, 0, 62, 53
1, 123343, Note_off_c, 0, 58, 64
1, 123421, Note_on_c, 0, 62, 60
1, 123488, Note_off_c, 0, 62, 51
1, 123519, Note_on_c, 0, 66, 63
1, 123527, Control_c, 0, 67, 15
1, 123571, Control_c, 0, 67, 15
1, 123581, Note_off_c, 0, 66, 48
1, 123601, Control_c, 0, 67, 16
1, 123604, Note_on_c, 0, 74, 65
1, 123616, Control_c, 0, 67, 16
1, 123630, Control_c, 0, 67, 18
1, 123645, Control_c, 0, 67, 19
1, 123660, Control_c, 0, 67, 20
1, 123674, Note_off_c, 0, 74, 57
1, 123674, Control_c, 0, 67, 22
1, 123689, Control_c, 0, 67, 23
1, 123704, Control_c, 0, 67, 23
1, 123705, Note_on_c, 0, 70, 60
1, 123719, Control_c, 0, 67, 24
1, 123798, Note_off_c, 0, 70, 49
1, 123803, Note_on_c, 0, 74, 53
1, 123878, Note_off_c, 0, 74, 56
1, 123879, Note_on_c, 0, 66, 60
1, 123933, Note_off_c, 0, 30, 35
1, 123933, Note_off_c, 0, 66, 56
1, 123959, Note_off_c, 0, 42, 37
1, 123978, Control_c, 0, 67, 23
1, 123992, Note_on_c, 0, 62, 59
1, 124024, Note_off_c, 0, 62, 64
1, 124100, Note_on_c, 0, 38, 51
1, 124123, Note_on_c, 0, 58, 67
1, 124159, Note_off_c, 0, 38, 55
1, 124201, Control_c, 0, 67, 24
1, 124232, Note_on_c, 0, 50, 73
1, 124275, Control_c, 0, 67, 24
1, 124278, Note_off_c, 0, 58, 36
1, 124356, Note_off_c, 0, 50, 56
1, 124365, Control_c, 0, 67, 25
1, 124394, Control_c, 0, 67, 25
1, 124409, Control_c, 0, 67, 26
1, 124424, Control_c, 0, 67, 27
1, 124439, Control_c, 0, 67, 30
1, 124453, Control_c, 0, 64, 104
1, 124453, Control_c, 0, 67, 34
1, 124461, Note_on_c, 0, 53, 79
1, 124463, Note_on_c, 0, 41, 47
1, 124468, Control_c, 0, 64, 79
1, 124468, Control_c, 0, 67, 38
1, 124473, Note_on_c, 0, 29, 46
1, 124483, Control_c, 0, 64, 63
1, 124483, Control_c, 0, 67, 40
1, 124497, Control_c, 0, 64, 23
1, 124497, Control_c, 0, 67, 42
1, 124512, Control_c, 0, 64, 0
1, 124512, Control_c, 0, 67, 43
1, 124527, Control_c, 0, 67, 45
1, 124542, Control_c, 0, 67, 46
1, 124557, Control_c, 0, 64, 54
1, 124557, Control_c, 0, 67, 48
1, 124571, Control_c, 0, 64, 66
1, 124571, Control_c, 0, 67, 51
1, 124586, Control_c, 0, 64, 75
1, 124586, Control_c, 0, 67, 52
1, 124601, Control_c, 0, 64, 90
1, 124601, Control_c, 0, 67, 54
1, 124616, Control_c, 0, 64, 106
1, 124616, Control_c, 0, 67, 56
1, 124630, Control_c, 0, 64, 127
1, 124630, Control_c, 0, 67, 57
1, 124645, Control_c, 0, 67, 58
1, 124660, Control_c, 0, 67, 59
1, 124675, Control_c, 0, 67, 61
1, 124690, Control_c, 0, 67, 62
1, 124712, Control_c, 0, 67, 64
1, 124727, Control_c, 0, 67, 66
1, 124742, Control_c, 0, 67, 67
1, 124757, Control_c, 0, 67, 70
1, 124761, Note_off_c, 0, 53, 51
1, 124772, Control_c, 0, 67, 72
1, 124786, Control_c, 0, 67, 74
1, 124797, Note_on_c, 0, 62, 45
1, 124802, Control_c, 0, 67, 77
1, 124817, Control_c, 0, 67, 80
1, 124831, Control_c, 0, 67, 84
1, 124846, Control_c, 0, 67, 89
1, 124861, Control_c, 0, 67, 95
1, 124876, Control_c, 0, 67, 103
1, 124891, Control_c, 0, 67, 109
1, 124905, Control_c, 0, 67, 115
1, 124920, Control_c, 0, 67, 122
1, 124924, Note_on_c, 0, 58, 59
1, 124936, Control_c, 0, 67, 127
1, 124951, Control_c, 0, 67, 127
1, 124962, Note_off_c, 0, 58, 64
1, 124975, Note_off_c, 0, 62, 39
1, 125054, Note_on_c, 0, 62, 57
1, 125119, Note_off_c, 0, 62, 48
1, 125148, Note_on_c, 0, 65, 64
1, 125196, Note_off_c, 0, 65, 52
1, 125245, Note_on_c, 0, 74, 63
1, 125327, Note_off_c, 0, 74, 59
1, 125354, Note_on_c, 0, 70, 62
1, 125364, Note_off_c, 0, 41, 38
1, 125434, Note_off_c, 0, 70, 56
1, 125455, Note_on_c, 0, 74, 59
1, 125540, Note_off_c, 0, 74, 55
1, 125562, Note_on_c, 0, 65, 57
1, 125606, Note_off_c, 0, 65, 56
1, 125673, Note_on_c, 0, 62, 50
1, 125700, Note_off_c, 0, 62, 56
1, 125814, Note_off_c, 0, 29, 33
1, 125816, Note_on_c, 0, 43, 44
1, 125822, Note_on_c, 0, 58, 61
1, 125937, Note_off_c, 0, 43, 35
1, 125956, Note_on_c, 0, 50, 61
1, 125986, Note_off_c, 0, 58, 35
1, 126076, Note_off_c, 0, 50, 52
1, 126242, Note_on_c, 0, 53, 62
1, 126252, Note_on_c, 0, 45, 44
1, 126255, Control_c, 0, 64, 118
1, 126269, Control_c, 0, 64, 95
1, 126284, Control_c, 0, 64, 80
1, 126299, Control_c, 0, 64, 64
1, 126314, Control_c, 0, 64, 28
1, 126329, Control_c, 0, 64, 0
1, 126402, Control_c, 0, 64, 56
1, 126417, Control_c, 0, 64, 66
1, 126432, Control_c, 0, 64, 71
1, 126447, Control_c, 0, 64, 78
1, 126462, Control_c, 0, 64, 85
1, 126476, Control_c, 0, 64, 89
1, 126491, Control_c, 0, 64, 94
1, 126506, Control_c, 0, 64, 98
1, 126522, Control_c, 0, 64, 102
1, 126529, Note_off_c, 0, 53, 48
1, 126537, Control_c, 0, 64, 105
1, 126547, Note_off_c, 0, 45, 34
1, 126552, Control_c, 0, 64, 109
1, 126567, Control_c, 0, 64, 120
1, 126577, Note_on_c, 0, 60, 39
1, 126581, Control_c, 0, 64, 127
1, 126705, Note_on_c, 0, 57, 50
1, 126720, Note_off_c, 0, 60, 31
1, 126752, Note_off_c, 0, 57, 61
1, 126837, Note_on_c, 0, 60, 58
1, 126910, Note_off_c, 0, 60, 56
1, 126943, Note_on_c, 0, 65, 60
1, 127022, Note_off_c, 0, 65, 58
1, 127043, Note_on_c, 0, 69, 59
1, 127082, Note_off_c, 0, 69, 60
1, 127157, Note_on_c, 0, 72, 62
1, 127225, Note_off_c, 0, 72, 57
1, 127253, Note_on_c, 0, 77, 68
1, 127330, Note_off_c, 0, 77, 56
1, 127357, Note_on_c, 0, 65, 39
1, 127366, Note_on_c, 0, 60, 42
1, 127372, Note_on_c, 0, 81, 54
1, 127404, Note_off_c, 0, 81, 65
1, 127409, Note_off_c, 0, 65, 54
1, 127423, Note_off_c, 0, 60, 55
1, 127477, Note_on_c, 0, 84, 63
1, 127569, Note_off_c, 0, 84, 53
1, 127620, Note_on_c, 0, 89, 60
1, 127643, Note_on_c, 0, 60, 29
1, 127651, Note_on_c, 0, 53, 32
1, 127723, Note_off_c, 0, 89, 56
1, 127733, Note_off_c, 0, 60, 50
1, 127772, Note_on_c, 0, 93, 57
1, 127812, Note_off_c, 0, 93, 55
1, 128143, Note_off_c, 0, 53, 24
1, 128170, Note_on_c, 0, 101, 42
1, 128198, Note_on_c, 0, 65, 29
1, 128222, Note_on_c, 0, 60, 17
1, 128312, Note_off_c, 0, 101, 53
1, 129386, Note_off_c, 0, 60, 11
1, 129409, Note_off_c, 0, 65, 25
1, 130367, Note_on_c, 0, 60, 31
1, 130392, Note_on_c, 0, 53, 17
1, 130469, Note_off_c, 0, 53, 37
1, 130524, Note_off_c, 0, 60, 32
1, 130755, Note_on_c, 0, 65, 36
1, 130777, Note_on_c, 0, 60, 17
1, 130893, Note_off_c, 0, 65, 31
1, 131003, Note_off_c, 0, 60, 29
1, 131988, Note_on_c, 0, 60, 41
1, 131994, Note_on_c, 0, 53, 36
1, 132167, Note_off_c, 0, 60, 29
1, 132200, Note_off_c, 0, 53, 26
1, 132473, Note_on_c, 0, 65, 32
1, 132482, Note_on_c, 0, 60, 35
1, 132699, Note_off_c, 0, 65, 34
1, 132714, Note_off_c, 0, 60, 32
1, 133385, Note_on_c, 0, 60, 39
1, 133389, Note_on_c, 0, 53, 31
1, 133575, Note_off_c, 0, 60, 33
1, 133595, Note_off_c, 0, 53, 36
1, 133877, Note_on_c, 0, 65, 39
1, 133895, Note_on_c, 0, 60, 31
1, 133999, Note_off_c, 0, 60, 46
1, 134052, Note_off_c, 0, 65, 36
1, 134294, Note_on_c, 0, 60, 42
1, 134318, Note_on_c, 0, 53, 33
1, 134490, Note_off_c, 0, 60, 37
1, 134520, Note_off_c, 0, 53, 24
1, 134804, Note_on_c, 0, 65, 58
1, 134825, Note_on_c, 0, 60, 44
1, 134965, Control_c, 0, 64, 96
1, 134980, Control_c, 0, 64, 79
1, 134995, Control_c, 0, 64, 64
1, 135010, Control_c, 0, 64, 42
1, 135025, Control_c, 0, 64, 0
1, 135144, Control_c, 0, 64, 24
1, 135158, Control_c, 0, 64, 49
1, 135171, Note_on_c, 0, 34, 31
1, 135173, Control_c, 0, 64, 62
1, 135195, Control_c, 0, 64, 69
1, 135210, Control_c, 0, 64, 76
1, 135225, Control_c, 0, 64, 86
1, 135239, Control_c, 0, 64, 95
1, 135254, Control_c, 0, 64, 102
1, 135269, Control_c, 0, 64, 110
1, 135285, Control_c, 0, 64, 127
1, 135409, Note_off_c, 0, 34, 25
1, 135439, Note_on_c, 0, 46, 45
1, 135479, Note_off_c, 0, 46, 62
1, 135485, Note_off_c, 0, 60, 30
1, 135708, Note_on_c, 0, 56, 43
1, 135832, Note_off_c, 0, 56, 32
1, 135892, Note_off_c, 0, 65, 27
1, 135960, Note_on_c, 0, 53, 33
1, 135962, Note_on_c, 0, 67, 63
1, 135996, Note_on_c, 0, 62, 26
1, 136170, Note_off_c, 0, 62, 18
1, 136210, Note_on_c, 0, 60, 42
1, 136229, Note_off_c, 0, 67, 46
1, 136453, Note_off_c, 0, 53, 0
1, 136491, Poly_aftertouch_c, 0, 53, 127
1, 136509, Note_off_c, 0, 60, 33
1, 136513, Note_on_c, 0, 67, 61
1, 136529, Note_on_c, 0, 58, 33
1, 136571, Note_off_c, 0, 58, 59
1, 136628, Poly_aftertouch_c, 0, 53, 0
1, 136744, Note_off_c, 0, 67, 30
1, 136963, Note_on_c, 0, 63, 53
1, 136975, Note_on_c, 0, 39, 38
1, 136976, Control_c, 0, 64, 96
1, 136991, Control_c, 0, 64, 75
1, 137006, Control_c, 0, 64, 60
1, 137021, Control_c, 0, 64, 0
1, 137094, Control_c, 0, 64, 55
1, 137109, Control_c, 0, 64, 65
1, 137124, Control_c, 0, 64, 71
1, 137139, Control_c, 0, 64, 78
1, 137154, Control_c, 0, 64, 85
1, 137168, Control_c, 0, 64, 91
1, 137183, Control_c, 0, 64, 95
1, 137198, Control_c, 0, 64, 99
1, 137213, Control_c, 0, 64, 104
1, 137228, Control_c, 0, 64, 109
1, 137242, Control_c, 0, 64, 118
1, 137257, Control_c, 0, 64, 127
1, 137305, Note_off_c, 0, 39, 30
1, 137312, Note_on_c, 0, 46, 39
1, 137379, Note_off_c, 0, 63, 53
1, 137498, Note_off_c, 0, 46, 49
1, 137538, Note_on_c, 0, 51, 39
1, 137608, Note_off_c, 0, 51, 50
1, 137781, Note_on_c, 0, 55, 39
1, 137846, Note_off_c, 0, 55, 51
1, 138008, Note_on_c, 0, 75, 64
1, 138015, Note_on_c, 0, 58, 40
1, 138174, Note_off_c, 0, 75, 36
1, 138223, Note_off_c, 0, 58, 42
1, 138226, Note_on_c, 0, 63, 47
1, 138278, Note_off_c, 0, 63, 54
1, 138309, Note_on_c, 0, 74, 69
1, 138423, Note_off_c, 0, 74, 56
1, 138423, Note_on_c, 0, 72, 67
1, 138439, Note_on_c, 0, 60, 40
1, 138441, Control_c, 0, 64, 92
1, 138456, Control_c, 0, 64, 71
1, 138463, Note_on_c, 0, 67, 36
1, 138471, Control_c, 0, 64, 58
1, 138486, Control_c, 0, 64, 17
1, 138502, Control_c, 0, 64, 0
1, 138531, Control_c, 0, 64, 41
1, 138546, Control_c, 0, 64, 59
1, 138561, Control_c, 0, 64, 69
1, 138576, Control_c, 0, 64, 79
1, 138591, Control_c, 0, 64, 95
1, 138605, Control_c, 0, 64, 112
1, 138620, Control_c, 0, 64, 127
1, 138708, Note_on_c, 0, 63, 43
1, 138710, Note_off_c, 0, 60, 34
1, 138755, Note_off_c, 0, 63, 44
1, 138792, Note_off_c, 0, 67, 31
1, 138899, Note_off_c, 0, 72, 33
1, 138958, Note_on_c, 0, 53, 45
1, 139008, Note_off_c, 0, 53, 55
1, 139302, Note_on_c, 0, 74, 64
1, 139334, Note_on_c, 0, 69, 41
1, 139347, Note_on_c, 0, 63, 29
1, 139466, Note_off_c, 0, 69, 28
1, 139562, Note_on_c, 0, 67, 40
1, 139562, Note_off_c, 0, 74, 47
1, 139719, Note_off_c, 0, 67, 35
1, 139762, Note_on_c, 0, 65, 38
1, 139776, Note_off_c, 0, 63, 43
1, 139781, Note_on_c, 0, 74, 71
1, 139791, Note_off_c, 0, 65, 52
1, 139949, Note_off_c, 0, 74, 50
1, 140039, Note_on_c, 0, 70, 65
1, 140058, Control_c, 0, 64, 97
1, 140065, Note_on_c, 0, 46, 39
1, 140073, Control_c, 0, 64, 74
1, 140087, Control_c, 0, 64, 60
1, 140102, Control_c, 0, 64, 0
1, 140163, Control_c, 0, 64, 40
1, 140177, Control_c, 0, 64, 63
1, 140192, Control_c, 0, 64, 71
1, 140207, Control_c, 0, 64, 81
1, 140221, Control_c, 0, 64, 95
1, 140236, Control_c, 0, 64, 114
1, 140251, Control_c, 0, 64, 127
1, 140274, Note_off_c, 0, 46, 51
1, 140300, Note_on_c, 0, 53, 40
1, 140327, Note_off_c, 0, 70, 59
1, 140473, Note_off_c, 0, 53, 31
1, 140530, Note_on_c, 0, 58, 42
1, 140581, Note_off_c, 0, 58, 56
1, 140762, Note_on_c, 0, 82, 77
1, 140798, Note_on_c, 0, 62, 39
1, 140932, Note_off_c, 0, 62, 34
1, 140987, Note_off_c, 0, 82, 56
1, 141013, Note_on_c, 0, 65, 53
1, 141231, Note_off_c, 0, 65, 21
1, 141244, Note_on_c, 0, 82, 82
1, 141271, Note_on_c, 0, 70, 44
1, 141324, Note_off_c, 0, 70, 53
1, 141364, Note_off_c, 0, 82, 61
1, 141580, Note_on_c, 0, 82, 77
1, 141585, Control_c, 0, 64, 104
1, 141600, Control_c, 0, 64, 78
1, 141615, Control_c, 0, 64, 63
1, 141615, Note_on_c, 0, 60, 29
1, 141630, Control_c, 0, 64, 40
1, 141644, Control_c, 0, 64, 0
1, 141689, Control_c, 0, 64, 35
1, 141705, Control_c, 0, 64, 58
1, 141719, Control_c, 0, 64, 69
1, 141734, Control_c, 0, 64, 79
1, 141749, Control_c, 0, 64, 94
1, 141764, Control_c, 0, 64, 109
1, 141779, Control_c, 0, 64, 121
1, 141794, Control_c, 0, 64, 127
1, 141839, Note_on_c, 0, 63, 45
1, 141860, Note_off_c, 0, 60, 35
1, 141885, Note_off_c, 0, 63, 45
1, 142047, Note_on_c, 0, 80, 78
1, 142056, Note_on_c, 0, 53, 43
1, 142127, Note_off_c, 0, 82, 36
1, 142161, Note_off_c, 0, 53, 46
1, 142183, Note_off_c, 0, 80, 55
1, 142301, Note_on_c, 0, 80, 76
1, 142305, Control_c, 0, 64, 117
1, 142311, Note_on_c, 0, 58, 46
1, 142319, Control_c, 0, 64, 82
1, 142334, Control_c, 0, 64, 66
1, 142349, Control_c, 0, 64, 37
1, 142364, Control_c, 0, 64, 0
1, 142408, Control_c, 0, 64, 31
1, 142423, Control_c, 0, 64, 63
1, 142438, Control_c, 0, 64, 70
1, 142453, Control_c, 0, 64, 77
1, 142468, Control_c, 0, 64, 84
1, 142483, Control_c, 0, 64, 88
1, 142498, Control_c, 0, 64, 91
1, 142513, Control_c, 0, 64, 94
1, 142525, Note_on_c, 0, 79, 75
1, 142528, Control_c, 0, 64, 96
1, 142533, Note_on_c, 0, 62, 49
1, 142543, Control_c, 0, 64, 99
1, 142558, Control_c, 0, 64, 102
1, 142567, Note_off_c, 0, 80, 59
1, 142572, Control_c, 0, 64, 106
1, 142587, Control_c, 0, 64, 110
1, 142602, Control_c, 0, 64, 116
1, 142617, Control_c, 0, 64, 127
1, 142751, Note_on_c, 0, 78, 80
1, 142763, Note_on_c, 0, 68, 48
1, 142765, Note_off_c, 0, 79, 59
1, 142844, Note_off_c, 0, 62, 28
1, 142855, Note_off_c, 0, 58, 41
1, 142900, Note_off_c, 0, 78, 59
1, 142905, Note_off_c, 0, 68, 31
1, 143025, Note_on_c, 0, 78, 73
1, 143038, Note_on_c, 0, 58, 34
1, 143039, Control_c, 0, 64, 103
1, 143054, Control_c, 0, 64, 84
1, 143069, Control_c, 0, 64, 69
1, 143084, Control_c, 0, 64, 52
1, 143098, Control_c, 0, 64, 0
1, 143128, Control_c, 0, 64, 12
1, 143143, Control_c, 0, 64, 54
1, 143157, Control_c, 0, 64, 66
1, 143172, Control_c, 0, 64, 74
1, 143187, Control_c, 0, 64, 85
1, 143202, Control_c, 0, 64, 96
1, 143217, Control_c, 0, 64, 102
1, 143231, Control_c, 0, 64, 105
1, 143246, Control_c, 0, 64, 107
1, 143261, Control_c, 0, 64, 107
1, 143285, Note_on_c, 0, 62, 45
1, 143292, Control_c, 0, 64, 108
1, 143321, Control_c, 0, 64, 108
1, 143323, Note_off_c, 0, 62, 58
1, 143351, Control_c, 0, 64, 109
1, 143395, Note_off_c, 0, 78, 56
1, 143451, Note_off_c, 0, 58, 23
1, 143507, Control_c, 0, 64, 108
1, 143511, Note_on_c, 0, 79, 72
1, 143522, Control_c, 0, 64, 102
1, 143523, Note_on_c, 0, 51, 44
1, 143536, Control_c, 0, 64, 90
1, 143551, Control_c, 0, 64, 76
1, 143566, Control_c, 0, 64, 63
1, 143580, Control_c, 0, 64, 26
1, 143595, Control_c, 0, 64, 0
1, 143640, Control_c, 0, 64, 46
1, 143654, Control_c, 0, 64, 64
1, 143669, Control_c, 0, 64, 72
1, 143684, Control_c, 0, 64, 80
1, 143699, Control_c, 0, 64, 89
1, 143714, Control_c, 0, 64, 94
1, 143729, Control_c, 0, 64, 96
1, 143743, Control_c, 0, 64, 97
1, 143758, Control_c, 0, 64, 98
1, 143766, Note_off_c, 0, 79, 63
1, 143773, Control_c, 0, 64, 99
1, 143774, Note_on_c, 0, 56, 42
1, 143781, Note_off_c, 0, 51, 36
1, 143788, Control_c, 0, 64, 99
1, 143803, Control_c, 0, 64, 101
1, 143818, Control_c, 0, 64, 102
1, 143833, Control_c, 0, 64, 104
1, 143847, Control_c, 0, 64, 106
1, 143862, Control_c, 0, 64, 107
1, 143877, Control_c, 0, 64, 108
1, 143892, Control_c, 0, 64, 109
1, 143906, Control_c, 0, 64, 110
1, 143921, Control_c, 0, 64, 110
1, 143936, Control_c, 0, 64, 111
1, 143951, Control_c, 0, 64, 112
1, 143966, Control_c, 0, 64, 113
1, 143980, Control_c, 0, 64, 113
1, 143982, Note_on_c, 0, 80, 75
1, 144010, Control_c, 0, 64, 114
1, 144018, Note_on_c, 0, 60, 44
1, 144025, Control_c, 0, 64, 115
1, 144054, Control_c, 0, 64, 116
1, 144115, Control_c, 0, 64, 117
1, 144177, Note_off_c, 0, 80, 53
1, 144191, Note_off_c, 0, 56, 35
1, 144205, Note_off_c, 0, 60, 28
1, 144217, Note_on_c, 0, 67, 45
1, 144269, Note_off_c, 0, 67, 42
1, 144291, Note_on_c, 0, 75, 76
1, 144388, Control_c, 0, 64, 115
1, 144402, Note_off_c, 0, 75, 35
1, 144402, Control_c, 0, 64, 101
1, 144404, Note_on_c, 0, 79, 75
1, 144417, Control_c, 0, 64, 85
1, 144418, Note_on_c, 0, 56, 41
1, 144432, Control_c, 0, 64, 70
1, 144447, Control_c, 0, 64, 53
1, 144462, Control_c, 0, 64, 0
1, 144521, Control_c, 0, 64, 9
1, 144536, Control_c, 0, 64, 61
1, 144551, Control_c, 0, 64, 68
1, 144566, Control_c, 0, 64, 74
1, 144581, Control_c, 0, 64, 80
1, 144595, Control_c, 0, 64, 85
1, 144610, Control_c, 0, 64, 87
1, 144625, Control_c, 0, 64, 89
1, 144640, Control_c, 0, 64, 91
1, 144655, Control_c, 0, 64, 92
1, 144660, Note_on_c, 0, 60, 45
1, 144669, Control_c, 0, 64, 94
1, 144684, Control_c, 0, 64, 96
1, 144699, Note_off_c, 0, 60, 44
1, 144699, Control_c, 0, 64, 97
1, 144714, Control_c, 0, 64, 98
1, 144728, Control_c, 0, 64, 99
1, 144743, Control_c, 0, 64, 99
1, 144745, Note_off_c, 0, 56, 22
1, 144892, Control_c, 0, 64, 93
1, 144898, Note_on_c, 0, 77, 61
1, 144900, Note_off_c, 0, 79, 44
1, 144907, Control_c, 0, 64, 82
1, 144924, Note_on_c, 0, 50, 33
1, 144930, Control_c, 0, 64, 69
1, 144945, Control_c, 0, 64, 55
1, 144959, Control_c, 0, 64, 0
1, 145004, Control_c, 0, 64, 29
1, 145018, Control_c, 0, 64, 60
1, 145033, Control_c, 0, 64, 68
1, 145048, Control_c, 0, 64, 76
1, 145063, Control_c, 0, 64, 85
1, 145078, Control_c, 0, 64, 89
1, 145092, Control_c, 0, 64, 91
1, 145107, Control_c, 0, 64, 92
1, 145122, Control_c, 0, 64, 93
1, 145137, Control_c, 0, 64, 94
1, 145151, Control_c, 0, 64, 95
1, 145166, Control_c, 0, 64, 96
1, 145180, Note_on_c, 0, 55, 40
1, 145181, Control_c, 0, 64, 97
1, 145188, Note_off_c, 0, 50, 35
1, 145196, Control_c, 0, 64, 98
1, 145211, Control_c, 0, 64, 99
1, 145392, Note_off_c, 0, 77, 28
1, 145566, Control_c, 0, 64, 94
1, 145581, Control_c, 0, 64, 81
1, 145592, Note_on_c, 0, 79, 43
1, 145596, Control_c, 0, 64, 70
1, 145605, Note_on_c, 0, 59, 28
1, 145611, Control_c, 0, 64, 57
1, 145625, Control_c, 0, 64, 0
1, 145677, Control_c, 0, 64, 12
1, 145692, Control_c, 0, 64, 56
1, 145708, Control_c, 0, 64, 66
1, 145723, Control_c, 0, 64, 74
1, 145738, Control_c, 0, 64, 83
1, 145753, Control_c, 0, 64, 88
1, 145768, Control_c, 0, 64, 90
1, 145782, Control_c, 0, 64, 91
1, 145797, Control_c, 0, 64, 92
1, 145812, Control_c, 0, 64, 93
1, 145827, Control_c, 0, 64, 94
1, 145842, Control_c, 0, 64, 95
1, 145857, Control_c, 0, 64, 95
1, 145872, Control_c, 0, 64, 96
1, 145887, Control_c, 0, 64, 96
1, 145900, Note_off_c, 0, 79, 54
1, 146049, Note_off_c, 0, 55, 7
1, 146075, Note_on_c, 0, 65, 36
1, 146091, Note_off_c, 0, 59, 36
1, 146131, Note_off_c, 0, 65, 39
1, 146160, Note_on_c, 0, 74, 57
1, 146255, Note_off_c, 0, 74, 37
1, 146256, Control_c, 0, 64, 91
1, 146268, Note_on_c, 0, 77, 65
1, 146271, Control_c, 0, 64, 79
1, 146272, Note_on_c, 0, 55, 38
1, 146286, Control_c, 0, 64, 67
1, 146301, Control_c, 0, 64, 55
1, 146316, Control_c, 0, 64, 46
1, 146331, Control_c, 0, 64, 51
1, 146346, Control_c, 0, 64, 60
1, 146361, Control_c, 0, 64, 66
1, 146375, Control_c, 0, 64, 74
1, 146390, Control_c, 0, 64, 83
1, 146405, Control_c, 0, 64, 90
1, 146427, Control_c, 0, 64, 93
1, 146442, Control_c, 0, 64, 93
1, 146456, Control_c, 0, 64, 94
1, 146488, Note_on_c, 0, 75, 75
1, 146511, Note_on_c, 0, 60, 50
1, 146512, Note_off_c, 0, 77, 56
1, 146562, Note_off_c, 0, 60, 56
1, 146680, Note_off_c, 0, 75, 50
1, 146686, Note_off_c, 0, 55, 31
1, 146718, Note_on_c, 0, 74, 77
1, 146721, Note_on_c, 0, 48, 48
1, 146886, Note_off_c, 0, 74, 55
1, 146951, Note_off_c, 0, 48, 31
1, 146964, Note_on_c, 0, 72, 66
1, 146982, Note_on_c, 0, 53, 36
1, 147034, Control_c, 0, 64, 93
1, 147040, Note_off_c, 0, 72, 39
1, 147043, Note_on_c, 0, 74, 71
1, 147049, Control_c, 0, 64, 91
1, 147064, Control_c, 0, 64, 85
1, 147079, Control_c, 0, 64, 77
1, 147094, Control_c, 0, 64, 68
1, 147109, Control_c, 0, 64, 58
1, 147124, Control_c, 0, 64, 19
1, 147139, Control_c, 0, 64, 0
1, 147142, Note_on_c, 0, 72, 76
1, 147149, Note_off_c, 0, 74, 58
1, 147230, Note_off_c, 0, 72, 61
1, 147251, Note_on_c, 0, 57, 45
1, 147261, Note_on_c, 0, 71, 72
1, 147398, Note_on_c, 0, 72, 75
1, 147405, Note_off_c, 0, 71, 57
1, 147458, Control_c, 0, 64, 19
1, 147473, Control_c, 0, 64, 26
1, 147487, Control_c, 0, 64, 31
1, 147502, Control_c, 0, 64, 35
1, 147517, Control_c, 0, 64, 37
1, 147532, Control_c, 0, 64, 40
1, 147547, Control_c, 0, 64, 43
1, 147555, Note_off_c, 0, 72, 54
1, 147559, Note_on_c, 0, 74, 74
1, 147562, Control_c, 0, 64, 49
1, 147577, Control_c, 0, 64, 54
1, 147585, Note_on_c, 0, 63, 37
1, 147592, Control_c, 0, 64, 60
1, 147606, Note_off_c, 0, 57, 34
1, 147607, Control_c, 0, 64, 65
1, 147621, Control_c, 0, 64, 68
1, 147636, Control_c, 0, 64, 73
1, 147651, Control_c, 0, 64, 79
1, 147665, Control_c, 0, 64, 86
1, 147680, Control_c, 0, 64, 92
1, 147695, Control_c, 0, 64, 99
1, 147710, Control_c, 0, 64, 108
1, 147725, Control_c, 0, 64, 127
1, 147727, Note_off_c, 0, 63, 36
1, 147735, Note_off_c, 0, 74, 57
1, 147741, Note_on_c, 0, 75, 78
1, 147845, Note_off_c, 0, 75, 59
1, 147856, Note_off_c, 0, 53, 36
1, 148140, Note_on_c, 0, 65, 67
1, 148146, Note_on_c, 0, 53, 45
1, 148162, Control_c, 0, 64, 88
1, 148167, Note_on_c, 0, 60, 47
1, 148176, Control_c, 0, 64, 69
1, 148191, Control_c, 0, 64, 52
1, 148206, Control_c, 0, 64, 0
1, 148251, Control_c, 0, 64, 16
1, 148265, Control_c, 0, 64, 59
1, 148280, Control_c, 0, 64, 68
1, 148295, Control_c, 0, 64, 76
1, 148310, Control_c, 0, 64, 85
1, 148325, Control_c, 0, 64, 92
1, 148340, Control_c, 0, 64, 95
1, 148355, Control_c, 0, 64, 99
1, 148369, Control_c, 0, 64, 102
1, 148384, Control_c, 0, 64, 105
1, 148385, Note_on_c, 0, 56, 58
1, 148385, Note_off_c, 0, 53, 56
1, 148399, Control_c, 0, 64, 110
1, 148414, Control_c, 0, 64, 117
1, 148426, Note_off_c, 0, 56, 59
1, 148429, Control_c, 0, 64, 127
1, 148589, Note_on_c, 0, 46, 64
1, 148681, Note_off_c, 0, 46, 58
1, 148687, Note_off_c, 0, 60, 33
1, 148781, Note_off_c, 0, 65, 49
1, 148870, Note_on_c, 0, 67, 76
1, 148874, Note_on_c, 0, 56, 45
1, 148905, Note_on_c, 0, 62, 44
1, 148943, Note_off_c, 0, 62, 47
1, 149111, Note_on_c, 0, 60, 55
1, 149184, Note_off_c, 0, 67, 51
1, 149336, Note_on_c, 0, 67, 70
1, 149366, Note_on_c, 0, 58, 44
1, 149373, Note_off_c, 0, 60, 34
1, 149418, Note_off_c, 0, 58, 61
1, 149471, Note_off_c, 0, 56, 36
1, 149621, Note_off_c, 0, 67, 34
1, 149723, Note_on_c, 0, 63, 61
1, 149734, Control_c, 0, 64, 97
1, 149745, Note_on_c, 0, 39, 39
1, 149749, Control_c, 0, 64, 79
1, 149764, Control_c, 0, 64, 65
1, 149779, Control_c, 0, 64, 42
1, 149794, Control_c, 0, 64, 0
1, 149867, Control_c, 0, 64, 45
1, 149882, Control_c, 0, 64, 64
1, 149897, Control_c, 0, 64, 71
1, 149912, Control_c, 0, 64, 78
1, 149927, Control_c, 0, 64, 85
1, 149941, Control_c, 0, 64, 90
1, 149956, Control_c, 0, 64, 93
1, 149971, Control_c, 0, 64, 95
1, 149986, Control_c, 0, 64, 97
1, 150001, Control_c, 0, 64, 99
1, 150015, Control_c, 0, 64, 101
1, 150021, Note_on_c, 0, 46, 41
1, 150030, Control_c, 0, 64, 103
1, 150039, Note_off_c, 0, 39, 32
1, 150045, Control_c, 0, 64, 105
1, 150060, Control_c, 0, 64, 108
1, 150075, Control_c, 0, 64, 110
1, 150090, Control_c, 0, 64, 112
1, 150102, Note_off_c, 0, 63, 59
1, 150105, Control_c, 0, 64, 114
1, 150120, Control_c, 0, 64, 117
1, 150134, Control_c, 0, 64, 121
1, 150149, Control_c, 0, 64, 127
1, 150233, Note_on_c, 0, 51, 40
1, 150236, Note_off_c, 0, 46, 31
1, 150313, Note_off_c, 0, 51, 46
1, 150456, Note_on_c, 0, 55, 36
1, 150519, Note_off_c, 0, 55, 48
1, 150725, Note_on_c, 0, 75, 58
1, 150726, Note_on_c, 0, 58, 32
1, 150891, Note_off_c, 0, 75, 33
1, 150973, Note_on_c, 0, 63, 37
1, 150994, Note_off_c, 0, 58, 39
1, 151032, Note_off_c, 0, 63, 40
1, 151044, Note_on_c, 0, 74, 61
1, 151127, Control_c, 0, 64, 115
1, 151131, Note_off_c, 0, 74, 54
1, 151142, Control_c, 0, 64, 96
1, 151155, Note_on_c, 0, 72, 57
1, 151157, Control_c, 0, 64, 81
1, 151171, Note_on_c, 0, 60, 39
1, 151171, Note_on_c, 0, 67, 42
1, 151172, Control_c, 0, 64, 68
1, 151187, Control_c, 0, 64, 53
1, 151202, Control_c, 0, 64, 0
1, 151231, Control_c, 0, 64, 32
1, 151246, Control_c, 0, 64, 56
1, 151261, Control_c, 0, 64, 65
1, 151276, Control_c, 0, 64, 74
1, 151291, Control_c, 0, 64, 87
1, 151306, Control_c, 0, 64, 101
1, 151321, Control_c, 0, 64, 113
1, 151336, Control_c, 0, 64, 124
1, 151351, Control_c, 0, 64, 127
1, 151386, Note_off_c, 0, 60, 49
1, 151407, Note_on_c, 0, 63, 43
1, 151454, Note_off_c, 0, 63, 44
1, 151479, Note_off_c, 0, 67, 35
1, 151582, Note_off_c, 0, 72, 35
1, 151604, Note_on_c, 0, 53, 54
1, 151666, Note_off_c, 0, 53, 56
1, 151850, Note_on_c, 0, 74, 70
1, 151867, Note_on_c, 0, 63, 44
1, 151893, Note_on_c, 0, 69, 28
1, 151953, Note_off_c, 0, 69, 39
1, 152053, Note_on_c, 0, 67, 55
1, 152112, Note_off_c, 0, 74, 51
1, 152221, Note_off_c, 0, 67, 33
1, 152251, Note_on_c, 0, 65, 46
1, 152254, Note_on_c, 0, 74, 74
1, 152269, Note_off_c, 0, 63, 42
1, 152276, Note_off_c, 0, 65, 56
1, 152454, Note_off_c, 0, 74, 37
1, 152517, Note_on_c, 0, 70, 74
1, 152521, Control_c, 0, 64, 98
1, 152534, Note_on_c, 0, 46, 45
1, 152535, Control_c, 0, 64, 78
1, 152550, Control_c, 0, 64, 64
1, 152565, Control_c, 0, 64, 40
1, 152579, Control_c, 0, 64, 0
1, 152609, Control_c, 0, 64, 40
1, 152624, Control_c, 0, 64, 61
1, 152639, Control_c, 0, 64, 70
1, 152653, Control_c, 0, 64, 82
1, 152668, Control_c, 0, 64, 101
1, 152683, Control_c, 0, 64, 127
1, 152737, Note_off_c, 0, 46, 56
1, 152755, Note_on_c, 0, 53, 56
1, 152820, Note_off_c, 0, 70, 60
1, 152952, Note_off_c, 0, 53, 36
1, 152992, Note_on_c, 0, 58, 67
1, 153254, Note_off_c, 0, 58, 37
1, 153285, Note_on_c, 0, 82, 84
1, 153303, Note_on_c, 0, 62, 47
1, 153414, Note_off_c, 0, 62, 49
1, 153569, Note_off_c, 0, 82, 54
1, 153580, Note_on_c, 0, 65, 65
1, 153959, Note_off_c, 0, 65, 20
1, 153997, Note_on_c, 0, 70, 46
1, 153999, Note_on_c, 0, 82, 85
1, 154090, Note_off_c, 0, 70, 47
1, 154371, Note_off_c, 0, 82, 46
1, 155052, Note_on_c, 0, 82, 45
1, 155062, Note_on_c, 0, 36, 34
1, 155077, Control_c, 0, 64, 112
1, 155092, Control_c, 0, 64, 87
1, 155107, Control_c, 0, 64, 71
1, 155122, Control_c, 0, 64, 57
1, 155136, Control_c, 0, 64, 0
1, 155211, Control_c, 0, 64, 52
1, 155226, Control_c, 0, 64, 64
1, 155241, Control_c, 0, 64, 69
1, 155255, Control_c, 0, 64, 73
1, 155271, Control_c, 0, 64, 77
1, 155286, Control_c, 0, 64, 80
1, 155300, Control_c, 0, 64, 82
1, 155315, Control_c, 0, 64, 85
1, 155330, Control_c, 0, 64, 87
1, 155345, Control_c, 0, 64, 90
1, 155360, Control_c, 0, 64, 93
1, 155375, Control_c, 0, 64, 98
1, 155390, Control_c, 0, 64, 103
1, 155411, Control_c, 0, 64, 109
1, 155426, Control_c, 0, 64, 118
1, 155441, Control_c, 0, 64, 127
1, 155450, Note_off_c, 0, 36, 38
1, 155873, Note_on_c, 0, 64, 36
1, 156112, Note_off_c, 0, 64, 37
1, 156131, Note_on_c, 0, 58, 34
1, 156331, Note_off_c, 0, 58, 18
1, 156344, Note_off_c, 0, 82, 40
1, 156350, Note_on_c, 0, 72, 50
1, 156373, Note_on_c, 0, 55, 33
1, 156606, Note_on_c, 0, 64, 37
1, 156827, Note_off_c, 0, 64, 39
1, 156848, Note_on_c, 0, 74, 53
1, 156854, Note_off_c, 0, 72, 38
1, 156856, Note_on_c, 0, 58, 34
1, 157011, Note_off_c, 0, 55, 36
1, 157177, Note_off_c, 0, 58, 31
1, 157226, Note_off_c, 0, 74, 51
1, 157254, Note_on_c, 0, 75, 54
1, 157295, Note_on_c, 0, 53, 31
1, 157305, Note_off_c, 0, 75, 54
1, 157310, Control_c, 0, 64, 112
1, 157324, Control_c, 0, 64, 95
1, 157339, Control_c, 0, 64, 82
1, 157344, Note_on_c, 0, 77, 57
1, 157354, Control_c, 0, 64, 69
1, 157369, Control_c, 0, 64, 59
1, 157384, Control_c, 0, 64, 28
1, 157399, Control_c, 0, 64, 0
1, 157408, Note_off_c, 0, 77, 51
1, 157423, Note_on_c, 0, 75, 66
1, 157491, Note_off_c, 0, 75, 55
1, 157523, Note_on_c, 0, 74, 64
1, 157541, Note_on_c, 0, 63, 31
1, 157547, Control_c, 0, 64, 12
1, 157562, Control_c, 0, 64, 32
1, 157576, Control_c, 0, 64, 43
1, 157591, Control_c, 0, 64, 50
1, 157606, Control_c, 0, 64, 54
1, 157621, Control_c, 0, 64, 57
1, 157636, Control_c, 0, 64, 58
1, 157658, Control_c, 0, 64, 59
1, 157673, Control_c, 0, 64, 60
1, 157688, Control_c, 0, 64, 60
1, 157718, Control_c, 0, 64, 61
1, 157763, Control_c, 0, 64, 61
1, 157822, Control_c, 0, 64, 62
1, 157828, Note_off_c, 0, 74, 56
1, 157837, Control_c, 0, 64, 63
1, 157842, Note_on_c, 0, 75, 54
1, 157851, Note_on_c, 0, 57, 34
1, 157852, Control_c, 0, 64, 65
1, 157867, Control_c, 0, 64, 68
1, 157881, Control_c, 0, 64, 72
1, 157896, Control_c, 0, 64, 78
1, 157906, Note_off_c, 0, 63, 38
1, 157911, Control_c, 0, 64, 83
1, 157925, Control_c, 0, 64, 87
1, 157940, Control_c, 0, 64, 90
1, 157955, Control_c, 0, 64, 94
1, 157970, Control_c, 0, 64, 96
1, 157985, Control_c, 0, 64, 99
1, 157999, Control_c, 0, 64, 102
1, 158011, Note_off_c, 0, 57, 34
1, 158014, Control_c, 0, 64, 104
1, 158029, Control_c, 0, 64, 106
1, 158037, Note_off_c, 0, 53, 37
1, 158044, Control_c, 0, 64, 108
1, 158059, Control_c, 0, 64, 110
1, 158073, Control_c, 0, 64, 113
1, 158088, Control_c, 0, 64, 114
1, 158103, Control_c, 0, 64, 116
1, 158118, Control_c, 0, 64, 117
1, 158132, Control_c, 0, 64, 118
1, 158162, Control_c, 0, 64, 120
1, 158192, Control_c, 0, 64, 121
1, 158193, Note_off_c, 0, 75, 35
1, 158311, Control_c, 0, 64, 120
1, 158325, Control_c, 0, 64, 113
1, 158340, Note_on_c, 0, 46, 35
1, 158340, Control_c, 0, 64, 100
1, 158355, Control_c, 0, 64, 87
1, 158365, Note_on_c, 0, 79, 45
1, 158370, Control_c, 0, 64, 74
1, 158385, Control_c, 0, 64, 63
1, 158407, Control_c, 0, 64, 38
1, 158421, Control_c, 0, 64, 0
1, 158466, Control_c, 0, 64, 31
1, 158482, Control_c, 0, 64, 57
1, 158496, Control_c, 0, 64, 66
1, 158511, Control_c, 0, 64, 74
1, 158526, Control_c, 0, 64, 86
1, 158541, Control_c, 0, 64, 97
1, 158555, Control_c, 0, 64, 103
1, 158570, Control_c, 0, 64, 108
1, 158585, Control_c, 0, 64, 115
1, 158600, Control_c, 0, 64, 127
1, 158616, Note_off_c, 0, 46, 40
1, 158621, Note_off_c, 0, 79, 36
1, 159037, Note_on_c, 0, 79, 43
1, 159040, Note_on_c, 0, 62, 32
1, 159305, Note_off_c, 0, 62, 34
1, 159376, Note_off_c, 0, 79, 36
1, 159688, Note_on_c, 0, 56, 21
1, 159811, Note_on_c, 0, 77, 45
1, 159831, Note_off_c, 0, 56, 39
1, 159959, Note_off_c, 0, 77, 36
1, 159972, Note_on_c, 0, 75, 56
1, 160029, Note_off_c, 0, 75, 48
1, 160260, Note_on_c, 0, 39, 35
1, 160265, Note_on_c, 0, 75, 45
1, 160276, Control_c, 0, 64, 98
1, 160290, Control_c, 0, 64, 82
1, 160305, Control_c, 0, 64, 69
1, 160320, Control_c, 0, 64, 54
1, 160335, Control_c, 0, 64, 9
1, 160350, Control_c, 0, 64, 0
1, 160394, Control_c, 0, 64, 39
1, 160409, Control_c, 0, 64, 58
1, 160424, Control_c, 0, 64, 67
1, 160439, Control_c, 0, 64, 75
1, 160453, Control_c, 0, 64, 86
1, 160468, Control_c, 0, 64, 94
1, 160483, Control_c, 0, 64, 99
1, 160498, Control_c, 0, 64, 104
1, 160513, Control_c, 0, 64, 109
1, 160527, Control_c, 0, 64, 115
1, 160542, Control_c, 0, 64, 127
1, 160573, Note_on_c, 0, 46, 45
1, 160576, Note_off_c, 0, 39, 38
1, 160623, Note_off_c, 0, 46, 59
1, 160817, Note_on_c, 0, 55, 43
1, 160875, Note_off_c, 0, 55, 51
1, 160946, Note_on_c, 0, 51, 37
1, 161099, Note_on_c, 0, 58, 41
1, 161158, Note_off_c, 0, 75, 35
1, 161161, Note_off_c, 0, 58, 55
1, 161240, Note_on_c, 0, 55, 34
1, 161444, Note_on_c, 0, 63, 42
1, 161483, Note_off_c, 0, 55, 30
1, 161509, Note_off_c, 0, 63, 43
1, 161519, Note_off_c, 0, 51, 30
1, 161744, Note_on_c, 0, 67, 43
1, 161911, Note_on_c, 0, 68, 50
1, 161916, Note_off_c, 0, 67, 39
1, 162087, Note_on_c, 0, 70, 53
1, 162088, Note_off_c, 0, 68, 41
1, 162145, Note_off_c, 0, 70, 57
1, 162168, Note_on_c, 0, 74, 50
1, 162254, Note_on_c, 0, 72, 59
1, 162256, Note_off_c, 0, 74, 49
1, 162320, Note_off_c, 0, 72, 55
1, 162344, Control_c, 0, 64, 107
1, 162359, Control_c, 0, 64, 87
1, 162360, Note_on_c, 0, 70, 58
1, 162373, Control_c, 0, 64, 72
1, 162379, Note_on_c, 0, 39, 39
1, 162388, Control_c, 0, 64, 59
1, 162403, Control_c, 0, 64, 0
1, 162432, Control_c, 0, 64, 28
1, 162447, Control_c, 0, 64, 51
1, 162462, Control_c, 0, 64, 63
1, 162478, Control_c, 0, 64, 70
1, 162493, Control_c, 0, 64, 80
1, 162508, Control_c, 0, 64, 95
1, 162522, Control_c, 0, 64, 104
1, 162537, Control_c, 0, 64, 109
1, 162549, Note_on_c, 0, 46, 53
1, 162552, Control_c, 0, 64, 112
1, 162564, Note_off_c, 0, 39, 39
1, 162567, Control_c, 0, 64, 113
1, 162582, Control_c, 0, 64, 114
1, 162594, Note_off_c, 0, 46, 62
1, 162611, Control_c, 0, 64, 115
1, 162733, Note_on_c, 0, 55, 40
1, 162782, Note_off_c, 0, 55, 50
1, 162858, Note_on_c, 0, 51, 40
1, 163032, Note_on_c, 0, 58, 37
1, 163081, Note_off_c, 0, 58, 45
1, 163115, Note_off_c, 0, 70, 36
1, 163170, Note_on_c, 0, 55, 25
1, 163394, Note_on_c, 0, 63, 33
1, 163414, Note_off_c, 0, 55, 13
1, 163448, Note_off_c, 0, 63, 42
1, 163501, Note_off_c, 0, 51, 34
1, 163683, Note_on_c, 0, 67, 42
1, 163845, Note_on_c, 0, 68, 54
1, 163855, Note_off_c, 0, 67, 40
1, 163989, Note_on_c, 0, 70, 58
1, 164007, Note_off_c, 0, 68, 33
1, 164061, Note_off_c, 0, 70, 57
1, 164079, Note_on_c, 0, 74, 57
1, 164168, Note_on_c, 0, 72, 61
1, 164195, Note_off_c, 0, 74, 35
1, 164227, Control_c, 0, 64, 113
1, 164240, Note_off_c, 0, 72, 55
1, 164242, Control_c, 0, 64, 102
1, 164257, Control_c, 0, 64, 85
1, 164272, Control_c, 0, 64, 68
1, 164285, Note_on_c, 0, 70, 54
1, 164286, Control_c, 0, 64, 45
1, 164295, Note_on_c, 0, 39, 37
1, 164301, Control_c, 0, 64, 0
1, 164360, Control_c, 0, 64, 48
1, 164375, Control_c, 0, 64, 65
1, 164398, Control_c, 0, 64, 71
1, 164413, Control_c, 0, 64, 77
1, 164427, Control_c, 0, 64, 83
1, 164442, Control_c, 0, 64, 87
1, 164457, Control_c, 0, 64, 90
1, 164472, Control_c, 0, 64, 93
1, 164473, Note_off_c, 0, 39, 42
1, 164474, Note_on_c, 0, 46, 50
1, 164487, Control_c, 0, 64, 95
1, 164501, Control_c, 0, 64, 96
1, 164516, Control_c, 0, 64, 98
1, 164519, Note_off_c, 0, 46, 63
1, 164531, Control_c, 0, 64, 99
1, 164546, Control_c, 0, 64, 100
1, 164561, Control_c, 0, 64, 101
1, 164575, Control_c, 0, 64, 103
1, 164590, Control_c, 0, 64, 105
1, 164605, Control_c, 0, 64, 107
1, 164619, Control_c, 0, 64, 109
1, 164634, Control_c, 0, 64, 111
1, 164649, Control_c, 0, 64, 114
1, 164655, Note_on_c, 0, 56, 45
1, 164664, Control_c, 0, 64, 120
1, 164679, Control_c, 0, 64, 127
1, 164691, Note_off_c, 0, 56, 48
1, 164792, Note_on_c, 0, 53, 32
1, 164960, Note_on_c, 0, 58, 38
1, 165021, Note_off_c, 0, 58, 41
1, 165093, Note_on_c, 0, 56, 36
1, 165178, Note_off_c, 0, 70, 40
1, 165300, Note_off_c, 0, 56, 34
1, 165307, Note_on_c, 0, 62, 40
1, 165410, Note_off_c, 0, 62, 36
1, 165433, Note_off_c, 0, 53, 35
1, 165616, Note_on_c, 0, 65, 45
1, 165773, Note_on_c, 0, 68, 55
1, 165781, Note_off_c, 0, 65, 42
1, 165916, Note_on_c, 0, 70, 56
1, 165938, Note_off_c, 0, 68, 33
1, 165990, Note_off_c, 0, 70, 56
1, 166003, Note_on_c, 0, 74, 60
1, 166094, Note_off_c, 0, 74, 59
1, 166100, Note_on_c, 0, 72, 66
1, 166187, Note_off_c, 0, 72, 56
1, 166206, Control_c, 0, 64, 108
1, 166221, Control_c, 0, 64, 92
1, 166227, Note_on_c, 0, 70, 63
1, 166234, Note_on_c, 0, 39, 42
1, 166236, Control_c, 0, 64, 78
1, 166251, Control_c, 0, 64, 66
1, 166265, Control_c, 0, 64, 44
1, 166280, Control_c, 0, 64, 0
1, 166309, Control_c, 0, 64, 33
1, 166324, Control_c, 0, 64, 55
1, 166339, Control_c, 0, 64, 65
1, 166354, Control_c, 0, 64, 73
1, 166369, Control_c, 0, 64, 86
1, 166383, Control_c, 0, 64, 96
1, 166398, Control_c, 0, 64, 101
1, 166413, Control_c, 0, 64, 103
1, 166428, Control_c, 0, 64, 104
1, 166431, Note_off_c, 0, 70, 60
1, 166432, Note_on_c, 0, 46, 49
1, 166443, Control_c, 0, 64, 105
1, 166459, Control_c, 0, 64, 106
1, 166461, Note_off_c, 0, 39, 37
1, 166474, Control_c, 0, 64, 107
1, 166481, Note_off_c, 0, 46, 60
1, 166488, Control_c, 0, 64, 107
1, 166503, Control_c, 0, 64, 108
1, 166518, Control_c, 0, 64, 109
1, 166548, Control_c, 0, 64, 109
1, 166612, Note_on_c, 0, 55, 45
1, 166622, Control_c, 0, 64, 110
1, 166658, Note_off_c, 0, 55, 54
1, 166726, Note_on_c, 0, 61, 57
1, 166822, Note_off_c, 0, 61, 61
1, 166832, Note_on_c, 0, 63, 65
1, 166935, Note_off_c, 0, 63, 59
1, 166936, Note_on_c, 0, 67, 62
1, 167013, Note_off_c, 0, 67, 59
1, 167019, Note_on_c, 0, 72, 67
1, 167117, Note_on_c, 0, 70, 72
1, 167144, Note_off_c, 0, 72, 55
1, 167192, Control_c, 0, 64, 109
1, 167206, Control_c, 0, 64, 95
1, 167221, Control_c, 0, 64, 78
1, 167228, Note_off_c, 0, 70, 60
1, 167229, Note_on_c, 0, 68, 73
1, 167236, Control_c, 0, 64, 63
1, 167250, Note_on_c, 0, 39, 38
1, 167251, Control_c, 0, 64, 0
1, 167326, Control_c, 0, 64, 61
1, 167341, Control_c, 0, 64, 69
1, 167355, Control_c, 0, 64, 76
1, 167370, Control_c, 0, 64, 82
1, 167393, Control_c, 0, 64, 87
1, 167408, Control_c, 0, 64, 91
1, 167423, Control_c, 0, 64, 95
1, 167427, Note_on_c, 0, 47, 53
1, 167437, Control_c, 0, 64, 98
1, 167444, Note_off_c, 0, 68, 60
1, 167452, Control_c, 0, 64, 101
1, 167458, Note_off_c, 0, 39, 38
1, 167467, Control_c, 0, 64, 103
1, 167481, Control_c, 0, 64, 104
1, 167496, Control_c, 0, 64, 105
1, 167510, Control_c, 0, 64, 105
1, 167525, Control_c, 0, 64, 106
1, 167540, Control_c, 0, 64, 107
1, 167555, Control_c, 0, 64, 108
1, 167570, Control_c, 0, 64, 110
1, 167585, Control_c, 0, 64, 113
1, 167600, Control_c, 0, 64, 120
1, 167615, Control_c, 0, 64, 127
1, 167626, Note_on_c, 0, 56, 59
1, 167779, Note_off_c, 0, 47, 22
1, 167790, Note_off_c, 0, 56, 32
1, 167807, Note_on_c, 0, 59, 63
1, 168026, Note_off_c, 0, 59, 55
1, 168027, Note_on_c, 0, 63, 62
1, 168155, Note_off_c, 0, 63, 52
1, 168261, Note_on_c, 0, 65, 63
1, 168422, Note_off_c, 0, 65, 36
1, 168640, Note_on_c, 0, 67, 52
1, 168659, Control_c, 0, 64, 98
1, 168674, Control_c, 0, 64, 77
1, 168678, Note_on_c, 0, 39, 35
1, 168689, Control_c, 0, 64, 62
1, 168703, Control_c, 0, 64, 0
1, 168792, Control_c, 0, 64, 43
1, 168807, Control_c, 0, 64, 63
1, 168822, Control_c, 0, 64, 68
1, 168837, Control_c, 0, 64, 72
1, 168853, Control_c, 0, 64, 75
1, 168868, Control_c, 0, 64, 78
1, 168890, Control_c, 0, 64, 82
1, 168905, Control_c, 0, 64, 87
1, 168920, Control_c, 0, 64, 91
1, 168934, Control_c, 0, 64, 96
1, 168949, Control_c, 0, 64, 101
1, 168956, Note_on_c, 0, 46, 40
1, 168961, Note_off_c, 0, 39, 38
1, 168964, Control_c, 0, 64, 106
1, 168978, Control_c, 0, 64, 113
1, 168993, Control_c, 0, 64, 127
1, 169015, Note_off_c, 0, 46, 58
1, 169087, Note_off_c, 0, 67, 37
1, 169207, Note_on_c, 0, 55, 21
1, 169250, Note_off_c, 0, 55, 49
1, 169334, Note_on_c, 0, 51, 38
1, 169495, Note_on_c, 0, 58, 40
1, 169551, Note_off_c, 0, 58, 57
1, 169636, Note_on_c, 0, 55, 35
1, 169822, Note_on_c, 0, 63, 40
1, 169904, Note_off_c, 0, 63, 35
1, 170005, Note_off_c, 0, 55, 15
1, 170029, Note_off_c, 0, 51, 34
1, 170086, Note_on_c, 0, 67, 62
1, 170238, Note_on_c, 0, 68, 72
1, 170245, Note_off_c, 0, 67, 57
1, 170405, Note_off_c, 0, 68, 49
1, 170411, Note_on_c, 0, 70, 65
1, 170478, Note_off_c, 0, 70, 61
1, 170480, Note_on_c, 0, 74, 69
1, 170555, Note_on_c, 0, 72, 72
1, 170595, Control_c, 0, 64, 109
1, 170606, Note_off_c, 0, 74, 50
1, 170610, Control_c, 0, 64, 88
1, 170625, Control_c, 0, 64, 70
1, 170640, Control_c, 0, 64, 54
1, 170646, Note_on_c, 0, 70, 79
1, 170654, Control_c, 0, 64, 0
1, 170665, Note_off_c, 0, 72, 61
1, 170671, Note_on_c, 0, 39, 39
1, 170699, Control_c, 0, 64, 27
1, 170713, Control_c, 0, 64, 63
1, 170728, Control_c, 0, 64, 71
1, 170743, Control_c, 0, 64, 80
1, 170758, Note_off_c, 0, 70, 61
1, 170758, Control_c, 0, 64, 91
1, 170773, Control_c, 0, 64, 97
1, 170787, Control_c, 0, 64, 102
1, 170802, Control_c, 0, 64, 105
1, 170817, Control_c, 0, 64, 106
1, 170832, Control_c, 0, 64, 107
1, 170847, Control_c, 0, 64, 107
1, 170853, Note_on_c, 0, 46, 51
1, 170870, Note_off_c, 0, 39, 34
1, 170891, Control_c, 0, 64, 108
1, 170896, Note_off_c, 0, 46, 64
1, 171034, Note_on_c, 0, 82, 82
1, 171091, Note_on_c, 0, 55, 35
1, 171144, Note_off_c, 0, 55, 46
1, 171205, Note_on_c, 0, 51, 46
1, 171383, Note_on_c, 0, 58, 35
1, 171388, Control_c, 0, 64, 108
1, 171433, Control_c, 0, 64, 109
1, 171454, Note_off_c, 0, 82, 44
1, 171463, Control_c, 0, 64, 109
1, 171477, Control_c, 0, 64, 110
1, 171492, Control_c, 0, 64, 111
1, 171507, Control_c, 0, 64, 113
1, 171522, Control_c, 0, 64, 117
1, 171536, Control_c, 0, 64, 127
1, 171552, Note_off_c, 0, 58, 41
1, 171581, Note_on_c, 0, 55, 38
1, 171968, Note_off_c, 0, 55, 28
1, 171985, Note_on_c, 0, 63, 32
1, 172671, Note_off_c, 0, 63, 38
1, 172813, Note_on_c, 0, 67, 31
1, 172824, Note_off_c, 0, 51, 29
1, 172882, Note_off_c, 0, 67, 40
1, 172921, Note_on_c, 0, 68, 45
1, 172989, Note_off_c, 0, 68, 55
1, 173027, Note_on_c, 0, 70, 52
1, 173081, Note_off_c, 0, 70, 54
1, 173111, Note_on_c, 0, 74, 45
1, 173183, Note_off_c, 0, 74, 50
1, 173192, Note_on_c, 0, 72, 56
1, 173243, Note_off_c, 0, 72, 51
1, 173271, Control_c, 0, 64, 94
1, 173286, Control_c, 0, 64, 75
1, 173296, Note_on_c, 0, 70, 53
1, 173300, Control_c, 0, 64, 62
1, 173311, Note_on_c, 0, 39, 31
1, 173315, Control_c, 0, 64, 14
1, 173330, Control_c, 0, 64, 0
1, 173382, Control_c, 0, 64, 25
1, 173397, Control_c, 0, 64, 59
1, 173412, Control_c, 0, 64, 68
1, 173414, Note_off_c, 0, 70, 58
1, 173426, Control_c, 0, 64, 75
1, 173441, Control_c, 0, 64, 84
1, 173456, Control_c, 0, 64, 91
1, 173471, Control_c, 0, 64, 97
1, 173486, Control_c, 0, 64, 105
1, 173500, Control_c, 0, 64, 112
1, 173515, Control_c, 0, 64, 124
1, 173530, Control_c, 0, 64, 127
1, 173541, Note_on_c, 0, 46, 42
1, 173542, Note_off_c, 0, 39, 40
1, 173574, Note_off_c, 0, 46, 59
1, 173765, Note_on_c, 0, 82, 63
1, 173788, Note_on_c, 0, 56, 44
1, 173852, Note_off_c, 0, 56, 48
1, 173932, Note_on_c, 0, 53, 36
1, 174108, Note_on_c, 0, 58, 41
1, 174205, Note_off_c, 0, 58, 50
1, 174273, Note_on_c, 0, 56, 42
1, 174477, Note_off_c, 0, 56, 22
1, 174503, Note_off_c, 0, 82, 34
1, 174546, Note_on_c, 0, 62, 30
1, 174766, Note_off_c, 0, 62, 39
1, 175030, Note_off_c, 0, 53, 30
1, 175129, Note_on_c, 0, 65, 26
1, 175260, Note_on_c, 0, 68, 56
1, 175263, Note_off_c, 0, 65, 37
1, 175383, Note_off_c, 0, 68, 51
1, 175396, Note_on_c, 0, 70, 58
1, 175463, Note_off_c, 0, 70, 54
1, 175477, Note_on_c, 0, 74, 57
1, 175568, Note_off_c, 0, 74, 56
1, 175571, Note_on_c, 0, 72, 61
1, 175658, Note_off_c, 0, 72, 55
1, 175658, Control_c, 0, 64, 104
1, 175673, Control_c, 0, 64, 80
1, 175688, Control_c, 0, 64, 64
1, 175696, Note_on_c, 0, 39, 32
1, 175702, Control_c, 0, 64, 0
1, 175709, Note_on_c, 0, 70, 57
1, 175762, Control_c, 0, 64, 48
1, 175776, Control_c, 0, 64, 65
1, 175791, Control_c, 0, 64, 71
1, 175806, Control_c, 0, 64, 79
1, 175821, Control_c, 0, 64, 88
1, 175836, Control_c, 0, 64, 95
1, 175851, Control_c, 0, 64, 99
1, 175866, Control_c, 0, 64, 104
1, 175873, Note_off_c, 0, 70, 60
1, 175881, Control_c, 0, 64, 106
1, 175895, Control_c, 0, 64, 108
1, 175903, Note_on_c, 0, 46, 45
1, 175910, Control_c, 0, 64, 110
1, 175925, Control_c, 0, 64, 112
1, 175926, Note_off_c, 0, 39, 41
1, 175940, Control_c, 0, 64, 113
1, 175949, Note_off_c, 0, 46, 61
1, 175955, Control_c, 0, 64, 115
1, 175969, Control_c, 0, 64, 116
1, 175984, Control_c, 0, 64, 117
1, 175999, Control_c, 0, 64, 118
1, 176059, Control_c, 0, 64, 120
1, 176104, Control_c, 0, 64, 121
1, 176107, Note_on_c, 0, 55, 40
1, 176148, Note_off_c, 0, 55, 50
1, 176204, Note_on_c, 0, 61, 58
1, 176237, Control_c, 0, 64, 124
1, 176298, Note_off_c, 0, 61, 56
1, 176306, Note_on_c, 0, 63, 64
1, 176409, Note_off_c, 0, 63, 60
1, 176423, Note_on_c, 0, 67, 60
1, 176500, Note_off_c, 0, 67, 59
1, 176507, Note_on_c, 0, 72, 70
1, 176615, Note_on_c, 0, 70, 70
1, 176629, Note_off_c, 0, 72, 53
1, 176703, Control_c, 0, 64, 120
1, 176718, Control_c, 0, 64, 107
1, 176720, Note_off_c, 0, 70, 56
1, 176733, Control_c, 0, 64, 91
1, 176736, Note_on_c, 0, 68, 70
1, 176748, Control_c, 0, 64, 73
1, 176760, Note_on_c, 0, 39, 37
1, 176763, Control_c, 0, 64, 61
1, 176777, Control_c, 0, 64, 0
1, 176867, Control_c, 0, 64, 54
1, 176882, Control_c, 0, 64, 66
1, 176897, Control_c, 0, 64, 72
1, 176912, Control_c, 0, 64, 77
1, 176927, Control_c, 0, 64, 82
1, 176941, Control_c, 0, 64, 86
1, 176956, Control_c, 0, 64, 91
1, 176964, Note_on_c, 0, 47, 45
1, 176971, Note_off_c, 0, 39, 38
1, 176971, Control_c, 0, 64, 96
1, 176986, Control_c, 0, 64, 101
1, 176993, Note_off_c, 0, 68, 57
1, 177000, Control_c, 0, 64, 107
1, 177015, Control_c, 0, 64, 113
1, 177030, Control_c, 0, 64, 121
1, 177045, Control_c, 0, 64, 127
1, 177055, Note_off_c, 0, 47, 46
1, 177228, Note_on_c, 0, 56, 47
1, 177349, Note_off_c, 0, 56, 34
1, 177432, Note_on_c, 0, 59, 50
1, 177604, Note_off_c, 0, 59, 35
1, 177629, Note_on_c, 0, 63, 58
1, 177724, Note_off_c, 0, 63, 53
1, 177826, Note_on_c, 0, 65, 60
1, 177960, Note_off_c, 0, 65, 51
1, 178128, Note_on_c, 0, 67, 51
1, 178138, Note_on_c, 0, 39, 34
1, 178141, Control_c, 0, 64, 116
1, 178156, Control_c, 0, 64, 91
1, 178171, Control_c, 0, 64, 76
1, 178186, Control_c, 0, 64, 64
1, 178201, Control_c, 0, 64, 45
1, 178215, Control_c, 0, 64, 0
1, 178260, Control_c, 0, 64, 9
1, 178275, Control_c, 0, 64, 40
1, 178289, Control_c, 0, 64, 59
1, 178304, Control_c, 0, 64, 67
1, 178319, Control_c, 0, 64, 75
1, 178334, Control_c, 0, 64, 87
1, 178349, Control_c, 0, 64, 94
1, 178364, Control_c, 0, 64, 98
1, 178379, Control_c, 0, 64, 100
1, 178388, Note_on_c, 0, 46, 44
1, 178393, Note_off_c, 0, 39, 39
1, 178393, Control_c, 0, 64, 102
1, 178408, Control_c, 0, 64, 104
1, 178423, Control_c, 0, 64, 105
1, 178437, Note_off_c, 0, 46, 60
1, 178438, Control_c, 0, 64, 107
1, 178453, Control_c, 0, 64, 108
1, 178468, Control_c, 0, 64, 108
1, 178498, Control_c, 0, 64, 109
1, 178606, Note_on_c, 0, 55, 43
1, 178669, Note_off_c, 0, 55, 52
1, 178762, Note_on_c, 0, 51, 35
1, 178844, Note_off_c, 0, 67, 38
1, 178917, Note_on_c, 0, 58, 47
1, 178981, Note_off_c, 0, 58, 53
1, 179050, Note_on_c, 0, 55, 49
1, 179212, Note_off_c, 0, 51, 0
1, 179217, Note_on_c, 0, 63, 54
1, 179250, Poly_aftertouch_c, 0, 51, 127
1, 179275, Note_off_c, 0, 63, 42
1, 179303, Poly_aftertouch_c, 0, 51, 0
1, 179328, Note_off_c, 0, 55, 26
1, 179368, Note_on_c, 0, 67, 62
1, 179505, Note_on_c, 0, 70, 75
1, 179519, Note_off_c, 0, 67, 54
1, 179521, Control_c, 0, 64, 109
1, 179592, Note_off_c, 0, 70, 60
1, 179640, Note_on_c, 0, 79, 75
1, 179769, Note_on_c, 0, 77, 76
1, 179773, Note_off_c, 0, 79, 55
1, 179897, Note_on_c, 0, 75, 79
1, 179899, Note_off_c, 0, 77, 59
1, 180009, Control_c, 0, 64, 109
1, 180024, Control_c, 0, 64, 107
1, 180040, Control_c, 0, 64, 97
1, 180050, Note_off_c, 0, 75, 55
1, 180051, Note_on_c, 0, 74, 75
1, 180055, Control_c, 0, 64, 83
1, 180065, Note_on_c, 0, 43, 42
1, 180070, Control_c, 0, 64, 70
1, 180084, Control_c, 0, 64, 55
1, 180099, Control_c, 0, 64, 0
1, 180166, Control_c, 0, 64, 50
1, 180181, Control_c, 0, 64, 65
1, 180196, Control_c, 0, 64, 73
1, 180211, Control_c, 0, 64, 86
1, 180225, Control_c, 0, 64, 96
1, 180240, Control_c, 0, 64, 101
1, 180255, Control_c, 0, 64, 106
1, 180256, Note_off_c, 0, 43, 32
1, 180270, Control_c, 0, 64, 111
1, 180285, Control_c, 0, 64, 120
1, 180287, Note_on_c, 0, 50, 46
1, 180299, Control_c, 0, 64, 127
1, 180330, Note_off_c, 0, 50, 62
1, 180441, Note_on_c, 0, 58, 53
1, 180479, Note_off_c, 0, 58, 62
1, 180570, Note_on_c, 0, 55, 62
1, 180710, Note_on_c, 0, 62, 69
1, 180835, Note_off_c, 0, 74, 34
1, 180839, Note_on_c, 0, 58, 72
1, 180867, Note_off_c, 0, 62, 48
1, 181001, Note_on_c, 0, 67, 72
1, 181134, Note_on_c, 0, 70, 78
1, 181184, Note_off_c, 0, 67, 54
1, 181259, Note_on_c, 0, 74, 76
1, 181273, Note_off_c, 0, 70, 60
1, 181294, Note_off_c, 0, 55, 39
1, 181312, Note_off_c, 0, 58, 56
1, 181377, Note_on_c, 0, 82, 80
1, 181388, Note_off_c, 0, 74, 60
1, 181466, Note_off_c, 0, 82, 61
1, 181492, Note_on_c, 0, 74, 81
1, 181616, Note_on_c, 0, 75, 83
1, 181638, Note_off_c, 0, 74, 59
1, 181709, Note_off_c, 0, 75, 61
1, 181747, Note_on_c, 0, 76, 81
1, 181753, Note_on_c, 0, 46, 53
1, 181783, Control_c, 0, 64, 103
1, 181797, Control_c, 0, 64, 71
1, 181812, Control_c, 0, 64, 50
1, 181827, Control_c, 0, 64, 0
1, 181871, Control_c, 0, 64, 31
1, 181886, Control_c, 0, 64, 64
1, 181901, Control_c, 0, 64, 74
1, 181915, Control_c, 0, 64, 84
1, 181930, Control_c, 0, 64, 95
1, 181945, Control_c, 0, 64, 103
1, 181960, Control_c, 0, 64, 110
1, 181964, Note_off_c, 0, 46, 58
1, 181969, Note_on_c, 0, 53, 55
1, 181975, Control_c, 0, 64, 117
1, 181989, Control_c, 0, 64, 127
1, 181996, Note_off_c, 0, 53, 62
1, 182126, Note_off_c, 0, 76, 58
1, 182156, Note_on_c, 0, 77, 79
1, 182158, Note_on_c, 0, 61, 55
1, 182198, Note_off_c, 0, 61, 61
1, 182308, Note_on_c, 0, 58, 71
1, 182441, Note_off_c, 0, 77, 59
1, 182464, Note_on_c, 0, 65, 72
1, 182581, Note_on_c, 0, 62, 74
1, 182598, Note_off_c, 0, 65, 56
1, 182737, Note_on_c, 0, 70, 78
1, 182856, Control_c, 0, 67, 125
1, 182867, Note_on_c, 0, 74, 78
1, 182868, Note_off_c, 0, 70, 58
1, 182869, Note_off_c, 0, 58, 53
1, 182871, Control_c, 0, 67, 120
1, 182886, Control_c, 0, 67, 115
1, 182901, Control_c, 0, 67, 109
1, 182913, Note_off_c, 0, 62, 52
1, 182916, Control_c, 0, 67, 102
1, 182930, Control_c, 0, 67, 94
1, 182945, Control_c, 0, 67, 83
1, 182960, Control_c, 0, 67, 75
1, 182975, Control_c, 0, 67, 68
1, 182987, Note_on_c, 0, 77, 82
1, 182990, Control_c, 0, 67, 63
1, 182999, Note_off_c, 0, 74, 59
1, 183004, Control_c, 0, 67, 57
1, 183019, Control_c, 0, 67, 52
1, 183034, Control_c, 0, 67, 45
1, 183049, Control_c, 0, 67, 35
1, 183063, Control_c, 0, 67, 24
1, 183073, Note_off_c, 0, 77, 58
1, 183078, Control_c, 0, 67, 13
1, 183093, Control_c, 0, 67, 0
1, 183116, Note_on_c, 0, 86, 85
1, 183245, Note_on_c, 0, 84, 81
1, 183279, Note_off_c, 0, 86, 61
1, 183369, Note_on_c, 0, 82, 90
1, 183396, Note_off_c, 0, 84, 60
1, 183501, Control_c, 0, 64, 100
1, 183516, Control_c, 0, 64, 77
1, 183518, Note_on_c, 0, 80, 85
1, 183519, Note_on_c, 0, 50, 48
1, 183531, Control_c, 0, 64, 62
1, 183546, Control_c, 0, 64, 20
1, 183553, Note_off_c, 0, 82, 60
1, 183560, Control_c, 0, 64, 0
1, 183575, Control_c, 0, 64, 36
1, 183590, Control_c, 0, 64, 58
1, 183605, Control_c, 0, 64, 67
1, 183620, Control_c, 0, 64, 78
1, 183634, Control_c, 0, 64, 96
1, 183649, Control_c, 0, 64, 127
1, 183723, Note_off_c, 0, 50, 51
1, 183736, Note_on_c, 0, 81, 86
1, 183740, Note_on_c, 0, 57, 57
1, 183747, Note_off_c, 0, 80, 61
1, 183775, Note_off_c, 0, 57, 64
1, 183893, Note_off_c, 0, 81, 56
1, 183969, Note_on_c, 0, 89, 86
1, 183989, Note_on_c, 0, 65, 52
1, 184072, Control_c, 0, 67, 10
1, 184087, Control_c, 0, 67, 12
1, 184102, Control_c, 0, 67, 15
1, 184117, Control_c, 0, 67, 18
1, 184122, Note_off_c, 0, 89, 52
1, 184132, Control_c, 0, 67, 21
1, 184147, Control_c, 0, 67, 23
1, 184156, Note_off_c, 0, 65, 40
1, 184157, Note_on_c, 0, 88, 83
1, 184162, Control_c, 0, 67, 23
1, 184172, Note_on_c, 0, 62, 47
1, 184331, Note_off_c, 0, 88, 47
1, 184338, Note_on_c, 0, 86, 77
1, 184339, Control_c, 0, 67, 24
1, 184350, Note_on_c, 0, 69, 44
1, 184369, Control_c, 0, 67, 24
1, 184383, Control_c, 0, 67, 25
1, 184398, Control_c, 0, 67, 26
1, 184413, Control_c, 0, 67, 28
1, 184428, Control_c, 0, 67, 31
1, 184443, Control_c, 0, 67, 35
1, 184457, Control_c, 0, 67, 38
1, 184472, Control_c, 0, 67, 41
1, 184482, Note_off_c, 0, 86, 61
1, 184487, Control_c, 0, 67, 45
1, 184502, Control_c, 0, 67, 49
1, 184516, Control_c, 0, 67, 52
1, 184522, Note_on_c, 0, 81, 68
1, 184531, Control_c, 0, 67, 57
1, 184535, Note_on_c, 0, 65, 43
1, 184542, Note_off_c, 0, 69, 35
1, 184546, Control_c, 0, 67, 61
1, 184561, Control_c, 0, 67, 66
1, 184576, Control_c, 0, 67, 70
1, 184588, Note_off_c, 0, 81, 62
1, 184591, Control_c, 0, 67, 75
1, 184613, Control_c, 0, 67, 79
1, 184627, Note_off_c, 0, 65, 43
1, 184628, Control_c, 0, 67, 84
1, 184642, Control_c, 0, 67, 90
1, 184657, Control_c, 0, 67, 95
1, 184672, Control_c, 0, 67, 100
1, 184687, Control_c, 0, 67, 106
1, 184702, Control_c, 0, 67, 112
1, 184716, Control_c, 0, 67, 119
1, 184731, Control_c, 0, 67, 126
1, 184733, Note_on_c, 0, 74, 29
1, 184743, Note_on_c, 0, 76, 33
1, 184746, Control_c, 0, 67, 127
1, 184778, Note_off_c, 0, 76, 53
1, 184811, Note_off_c, 0, 74, 45
1, 184887, Note_on_c, 0, 69, 44
1, 184911, Note_off_c, 0, 69, 60
1, 184966, Note_off_c, 0, 62, 40
1, 185118, Note_on_c, 0, 62, 49
1, 185314, Note_off_c, 0, 62, 38
1, 185341, Note_on_c, 0, 64, 54
1, 185434, Note_off_c, 0, 64, 50
1, 185676, Note_on_c, 0, 67, 50
1, 185748, Control_c, 0, 64, 124
1, 185762, Control_c, 0, 64, 106
1, 185777, Control_c, 0, 64, 98
1, 185792, Control_c, 0, 64, 91
1, 185807, Control_c, 0, 64, 84
1, 185822, Control_c, 0, 64, 77
1, 185837, Control_c, 0, 64, 69
1, 185852, Control_c, 0, 64, 60
1, 185867, Control_c, 0, 64, 49
1, 185881, Control_c, 0, 64, 41
1, 185896, Control_c, 0, 64, 40
1, 185955, Control_c, 0, 64, 39
1, 186015, Control_c, 0, 64, 39
1, 186042, Note_off_c, 0, 67, 52
1, 186044, Control_c, 0, 64, 38
1, 186059, Control_c, 0, 64, 38
1, 186073, Note_on_c, 0, 65, 38
1, 186073, Control_c, 0, 64, 37
1, 186111, Control_c, 0, 64, 37
1, 186200, Control_c, 0, 64, 40
1, 186214, Control_c, 0, 64, 46
1, 186229, Control_c, 0, 64, 55
1, 186244, Control_c, 0, 64, 63
1, 186259, Control_c, 0, 64, 66
1, 186274, Control_c, 0, 64, 71
1, 186288, Control_c, 0, 64, 75
1, 186303, Control_c, 0, 64, 78
1, 186318, Control_c, 0, 64, 79
1, 186348, Control_c, 0, 64, 80
1, 186511, Control_c, 0, 64, 79
1, 186526, Control_c, 0, 64, 77
1, 186528, Note_off_c, 0, 65, 30
1, 186541, Control_c, 0, 64, 72
1, 186556, Control_c, 0, 64, 65
1, 186568, Note_on_c, 0, 52, 35
1, 186571, Control_c, 0, 64, 54
1, 186585, Control_c, 0, 64, 28
1, 186600, Control_c, 0, 64, 0
1, 186764, Control_c, 0, 64, 28
1, 186778, Control_c, 0, 64, 42
1, 186793, Control_c, 0, 64, 54
1, 186808, Control_c, 0, 64, 63
1, 186822, Control_c, 0, 64, 67
1, 186829, Note_on_c, 0, 40, 37
1, 186837, Control_c, 0, 64, 73
1, 186859, Control_c, 0, 64, 78
1, 186874, Control_c, 0, 64, 82
1, 186889, Control_c, 0, 64, 86
1, 186904, Control_c, 0, 64, 90
1, 186916, Note_off_c, 0, 40, 47
1, 186919, Control_c, 0, 64, 93
1, 186934, Control_c, 0, 64, 97
1, 186949, Control_c, 0, 64, 101
1, 186964, Control_c, 0, 64, 104
1, 186978, Control_c, 0, 64, 108
1, 186993, Control_c, 0, 64, 110
1, 187008, Control_c, 0, 64, 114
1, 187023, Control_c, 0, 64, 121
1, 187037, Control_c, 0, 64, 127
1, 187178, Note_on_c, 0, 40, 36
1, 187267, Note_off_c, 0, 40, 48
1, 187748, Note_on_c, 0, 62, 45
1, 187846, Note_off_c, 0, 62, 48
1, 187888, Note_on_c, 0, 40, 36
1, 187891, Note_on_c, 0, 64, 52
1, 187941, Note_off_c, 0, 40, 47
1, 187968, Note_off_c, 0, 64, 53
1, 187995, Note_on_c, 0, 68, 64
1, 188067, Note_off_c, 0, 68, 59
1, 188106, Note_on_c, 0, 40, 38
1, 188109, Note_on_c, 0, 72, 65
1, 188207, Note_on_c, 0, 71, 69
1, 188231, Control_c, 0, 64, 124
1, 188244, Note_off_c, 0, 72, 34
1, 188246, Control_c, 0, 64, 102
1, 188251, Note_off_c, 0, 40, 35
1, 188261, Control_c, 0, 64, 90
1, 188275, Control_c, 0, 64, 78
1, 188290, Control_c, 0, 64, 67
1, 188305, Control_c, 0, 64, 57
1, 188320, Control_c, 0, 64, 32
1, 188322, Note_off_c, 0, 71, 56
1, 188335, Control_c, 0, 64, 12
1, 188341, Note_on_c, 0, 69, 62
1, 188357, Control_c, 0, 64, 0
1, 188620, Note_on_c, 0, 64, 48
1, 188639, Control_c, 0, 64, 16
1, 188643, Note_on_c, 0, 60, 39
1, 188646, Note_on_c, 0, 40, 35
1, 188654, Control_c, 0, 64, 46
1, 188669, Control_c, 0, 64, 60
1, 188683, Control_c, 0, 64, 65
1, 188698, Control_c, 0, 64, 68
1, 188705, Note_off_c, 0, 60, 55
1, 188706, Note_off_c, 0, 40, 49
1, 188706, Note_off_c, 0, 64, 59
1, 188713, Control_c, 0, 64, 71
1, 188728, Control_c, 0, 64, 75
1, 188743, Control_c, 0, 64, 77
1, 188757, Control_c, 0, 64, 78
1, 188772, Control_c, 0, 64, 79
1, 188787, Control_c, 0, 64, 80
1, 188801, Control_c, 0, 64, 82
1, 188816, Control_c, 0, 64, 83
1, 188832, Control_c, 0, 64, 84
1, 188847, Control_c, 0, 64, 85
1, 188862, Control_c, 0, 64, 87
1, 188867, Note_on_c, 0, 64, 64
1, 188870, Note_on_c, 0, 40, 40
1, 188875, Note_off_c, 0, 69, 56
1, 188877, Control_c, 0, 64, 88
1, 188883, Note_off_c, 0, 52, 45
1, 188889, Note_on_c, 0, 60, 39
1, 188892, Control_c, 0, 64, 90
1, 188901, Note_off_c, 0, 40, 50
1, 188906, Control_c, 0, 64, 93
1, 188916, Note_off_c, 0, 60, 50
1, 188921, Control_c, 0, 64, 95
1, 188922, Note_off_c, 0, 64, 61
1, 188936, Control_c, 0, 64, 96
1, 188951, Control_c, 0, 64, 96
1, 188995, Control_c, 0, 64, 97
1, 189010, Control_c, 0, 64, 97
1, 189106, Control_c, 0, 64, 96
1, 189121, Control_c, 0, 64, 87
1, 189123, Note_on_c, 0, 76, 82
1, 189136, Control_c, 0, 64, 75
1, 189151, Control_c, 0, 64, 64
1, 189162, Note_on_c, 0, 64, 40
1, 189166, Control_c, 0, 64, 36
1, 189180, Control_c, 0, 64, 0
1, 189239, Control_c, 0, 64, 52
1, 189254, Control_c, 0, 64, 65
1, 189269, Control_c, 0, 64, 71
1, 189284, Control_c, 0, 64, 77
1, 189298, Control_c, 0, 64, 82
1, 189313, Control_c, 0, 64, 84
1, 189328, Control_c, 0, 64, 86
1, 189343, Control_c, 0, 64, 88
1, 189357, Control_c, 0, 64, 89
1, 189372, Control_c, 0, 64, 90
1, 189387, Control_c, 0, 64, 91
1, 189391, Note_off_c, 0, 64, 40
1, 189396, Note_on_c, 0, 57, 42
1, 189402, Control_c, 0, 64, 92
1, 189403, Note_on_c, 0, 69, 46
1, 189410, Note_on_c, 0, 52, 30
1, 189417, Control_c, 0, 64, 93
1, 189432, Control_c, 0, 64, 93
1, 189448, Note_off_c, 0, 57, 50
1, 189452, Note_off_c, 0, 69, 42
1, 189459, Note_off_c, 0, 52, 43
1, 189462, Control_c, 0, 64, 94
1, 189670, Note_on_c, 0, 69, 46
1, 189678, Note_on_c, 0, 57, 27
1, 189697, Note_on_c, 0, 52, 6
1, 189745, Note_off_c, 0, 57, 41
1, 189754, Note_off_c, 0, 69, 33
1, 189765, Note_off_c, 0, 52, 41
1, 189938, Note_off_c, 0, 76, 36
1, 189963, Note_on_c, 0, 74, 42
1, 189973, Control_c, 0, 64, 93
1, 189988, Control_c, 0, 64, 92
1, 189995, Note_on_c, 0, 62, 25
1, 190003, Control_c, 0, 64, 88
1, 190018, Control_c, 0, 64, 81
1, 190033, Control_c, 0, 64, 73
1, 190048, Control_c, 0, 64, 64
1, 190062, Control_c, 0, 64, 48
1, 190077, Control_c, 0, 64, 0
1, 190269, Control_c, 0, 64, 24
1, 190284, Control_c, 0, 64, 43
1, 190299, Control_c, 0, 64, 58
1, 190314, Control_c, 0, 64, 64
1, 190320, Note_on_c, 0, 57, 21
1, 190327, Note_on_c, 0, 52, 6
1, 190329, Control_c, 0, 64, 69
1, 190337, Note_on_c, 0, 69, 8
1, 190338, Note_on_c, 0, 65, 9
1, 190344, Control_c, 0, 64, 74
1, 190359, Control_c, 0, 64, 80
1, 190373, Control_c, 0, 64, 84
1, 190388, Control_c, 0, 64, 88
1, 190403, Control_c, 0, 64, 92
1, 190417, Note_off_c, 0, 65, 35
1, 190418, Control_c, 0, 64, 95
1, 190433, Control_c, 0, 64, 99
1, 190444, Note_off_c, 0, 69, 32
1, 190448, Control_c, 0, 64, 102
1, 190463, Control_c, 0, 64, 106
1, 190470, Note_off_c, 0, 57, 34
1, 190478, Control_c, 0, 64, 110
1, 190493, Control_c, 0, 64, 114
1, 190502, Note_off_c, 0, 52, 33
1, 190508, Control_c, 0, 64, 117
1, 190523, Control_c, 0, 64, 120
1, 190552, Control_c, 0, 64, 121
1, 190603, Control_c, 0, 64, 124
1, 190633, Control_c, 0, 64, 127
1, 190645, Note_on_c, 0, 69, 31
1, 190663, Note_on_c, 0, 57, 21
1, 190664, Note_on_c, 0, 65, 27
1, 190676, Note_on_c, 0, 52, 27
1, 190805, Note_off_c, 0, 69, 35
1, 190822, Note_off_c, 0, 65, 30
1, 190823, Note_off_c, 0, 74, 31
1, 190845, Note_off_c, 0, 62, 37
1, 190851, Note_off_c, 0, 52, 19
1, 190857, Note_off_c, 0, 57, 36
1, 191182, Control_c, 0, 64, 113
1, 191196, Control_c, 0, 64, 101
1, 191211, Control_c, 0, 64, 92
1, 191226, Control_c, 0, 64, 84
1, 191241, Control_c, 0, 64, 77
1, 191256, Control_c, 0, 64, 69
1, 191271, Control_c, 0, 64, 62
1, 191286, Control_c, 0, 64, 53
1, 191301, Control_c, 0, 64, 50
1, 191382, Control_c, 0, 64, 49
1, 191487, Control_c, 0, 64, 49
1, 191531, Control_c, 0, 64, 48
1, 191664, Control_c, 0, 64, 49
1, 191679, Control_c, 0, 64, 52
1, 191694, Control_c, 0, 64, 59
1, 191709, Control_c, 0, 64, 64
1, 191724, Control_c, 0, 64, 68
1, 191732, Note_on_c, 0, 62, 39
1, 191739, Control_c, 0, 64, 74
1, 191753, Control_c, 0, 64, 80
1, 191768, Control_c, 0, 64, 85
1, 191783, Control_c, 0, 64, 89
1, 191798, Control_c, 0, 64, 92
1, 191813, Control_c, 0, 64, 94
1, 191827, Control_c, 0, 64, 94
1, 191842, Control_c, 0, 64, 95
1, 191857, Control_c, 0, 64, 95
1, 191887, Control_c, 0, 64, 96
1, 191916, Control_c, 0, 64, 96
1, 191931, Control_c, 0, 64, 97
1, 191933, Note_off_c, 0, 62, 51
1, 191945, Control_c, 0, 64, 98
1, 191947, Note_on_c, 0, 40, 37
1, 191950, Note_on_c, 0, 64, 50
1, 191960, Control_c, 0, 64, 99
1, 191975, Control_c, 0, 64, 101
1, 191990, Control_c, 0, 64, 101
1, 192002, Note_off_c, 0, 40, 43
1, 192005, Control_c, 0, 64, 102
1, 192022, Note_off_c, 0, 64, 54
1, 192052, Note_on_c, 0, 68, 58
1, 192080, Control_c, 0, 64, 102
1, 192133, Note_off_c, 0, 68, 46
1, 192174, Note_on_c, 0, 40, 34
1, 192179, Note_on_c, 0, 72, 56
1, 192261, Note_off_c, 0, 40, 33
1, 192265, Note_off_c, 0, 72, 47
1, 192266, Note_on_c, 0, 71, 60
1, 192279, Control_c, 0, 64, 102
1, 192309, Control_c, 0, 64, 101
1, 192323, Control_c, 0, 64, 98
1, 192338, Control_c, 0, 64, 92
1, 192353, Control_c, 0, 64, 85
1, 192368, Control_c, 0, 64, 76
1, 192375, Note_off_c, 0, 71, 54
1, 192383, Control_c, 0, 64, 66
1, 192398, Note_on_c, 0, 69, 56
1, 192398, Control_c, 0, 64, 55
1, 192413, Control_c, 0, 64, 31
1, 192428, Control_c, 0, 64, 0
1, 192652, Note_on_c, 0, 64, 50
1, 192664, Control_c, 0, 64, 57
1, 192666, Note_on_c, 0, 60, 40
1, 192677, Note_on_c, 0, 40, 32
1, 192679, Control_c, 0, 64, 64
1, 192693, Control_c, 0, 64, 68
1, 192708, Control_c, 0, 64, 71
1, 192721, Note_off_c, 0, 60, 56
1, 192723, Control_c, 0, 64, 75
1, 192728, Note_off_c, 0, 40, 45
1, 192729, Note_off_c, 0, 64, 60
1, 192738, Control_c, 0, 64, 78
1, 192753, Control_c, 0, 64, 81
1, 192767, Control_c, 0, 64, 84
1, 192782, Control_c, 0, 64, 88
1, 192797, Control_c, 0, 64, 91
1, 192812, Control_c, 0, 64, 95
1, 192828, Control_c, 0, 64, 99
1, 192851, Control_c, 0, 64, 103
1, 192866, Control_c, 0, 64, 109
1, 192878, Note_on_c, 0, 40, 47
1, 192880, Control_c, 0, 64, 116
1, 192890, Note_on_c, 0, 64, 65
1, 192895, Control_c, 0, 64, 127
1, 192902, Note_off_c, 0, 69, 58
1, 192905, Note_on_c, 0, 60, 54
1, 192928, Note_off_c, 0, 40, 59
1, 192949, Note_off_c, 0, 60, 56
1, 192950, Note_off_c, 0, 64, 62
1, 193102, Control_c, 0, 64, 110
1, 193116, Control_c, 0, 64, 92
1, 193131, Control_c, 0, 64, 77
1, 193142, Note_on_c, 0, 66, 76
1, 193146, Control_c, 0, 64, 65
1, 193161, Control_c, 0, 64, 45
1, 193173, Note_on_c, 0, 54, 39
1, 193176, Control_c, 0, 64, 0
1, 193221, Control_c, 0, 64, 49
1, 193235, Control_c, 0, 64, 64
1, 193250, Control_c, 0, 64, 71
1, 193265, Control_c, 0, 64, 82
1, 193278, Note_off_c, 0, 54, 57
1, 193280, Control_c, 0, 64, 95
1, 193295, Control_c, 0, 64, 100
1, 193310, Control_c, 0, 64, 101
1, 193324, Control_c, 0, 64, 102
1, 193339, Control_c, 0, 64, 102
1, 193354, Control_c, 0, 64, 103
1, 193369, Control_c, 0, 64, 103
1, 193384, Control_c, 0, 64, 104
1, 193404, Note_off_c, 0, 66, 37
1, 193410, Note_on_c, 0, 60, 47
1, 193413, Note_on_c, 0, 64, 47
1, 193413, Control_c, 0, 64, 104
1, 193417, Note_on_c, 0, 40, 33
1, 193417, Note_on_c, 0, 57, 39
1, 193443, Control_c, 0, 64, 105
1, 193458, Control_c, 0, 64, 105
1, 193468, Note_off_c, 0, 60, 52
1, 193470, Note_off_c, 0, 40, 44
1, 193470, Note_off_c, 0, 57, 43
1, 193507, Note_off_c, 0, 64, 55
1, 193531, Control_c, 0, 64, 106
1, 193650, Note_on_c, 0, 64, 54
1, 193665, Note_on_c, 0, 60, 49
1, 193673, Note_on_c, 0, 40, 31
1, 193675, Note_on_c, 0, 57, 39
1, 193721, Note_off_c, 0, 57, 46
1, 193733, Note_off_c, 0, 60, 50
1, 193744, Note_off_c, 0, 40, 40
1, 193754, Note_off_c, 0, 64, 49
1, 193881, Control_c, 0, 64, 105
1, 193895, Control_c, 0, 64, 104
1, 193910, Control_c, 0, 64, 93
1, 193924, Note_on_c, 0, 68, 58
1, 193925, Control_c, 0, 64, 78
1, 193938, Note_on_c, 0, 56, 41
1, 193939, Control_c, 0, 64, 65
1, 193954, Control_c, 0, 64, 30
1, 193969, Control_c, 0, 64, 0
1, 194043, Control_c, 0, 64, 27
1, 194058, Control_c, 0, 64, 63
1, 194073, Control_c, 0, 64, 68
1, 194088, Control_c, 0, 64, 72
1, 194103, Control_c, 0, 64, 75
1, 194118, Control_c, 0, 64, 78
1, 194133, Control_c, 0, 64, 81
1, 194143, Note_off_c, 0, 56, 35
1, 194144, Note_off_c, 0, 68, 51
1, 194147, Control_c, 0, 64, 84
1, 194162, Control_c, 0, 64, 88
1, 194177, Control_c, 0, 64, 91
1, 194192, Control_c, 0, 64, 94
1, 194207, Control_c, 0, 64, 95
1, 194221, Control_c, 0, 64, 97
1, 194236, Control_c, 0, 64, 98
1, 194238, Note_on_c, 0, 59, 36
1, 194239, Note_on_c, 0, 64, 38
1, 194251, Control_c, 0, 64, 99
1, 194252, Note_on_c, 0, 40, 29
1, 194265, Control_c, 0, 64, 100
1, 194280, Control_c, 0, 64, 101
1, 194295, Control_c, 0, 64, 101
1, 194310, Control_c, 0, 64, 102
1, 194323, Note_off_c, 0, 40, 38
1, 194325, Control_c, 0, 64, 102
1, 194347, Control_c, 0, 64, 103
1, 194362, Control_c, 0, 64, 103
1, 194404, Note_off_c, 0, 59, 28
1, 194407, Control_c, 0, 64, 104
1, 194428, Note_off_c, 0, 64, 26
1, 194571, Note_on_c, 0, 64, 36
1, 194576, Note_on_c, 0, 59, 35
1, 194596, Note_on_c, 0, 40, 27
1, 194722, Note_off_c, 0, 40, 24
1, 194753, Note_off_c, 0, 59, 19
1, 194884, Note_off_c, 0, 64, 36
1, 194941, Control_c, 0, 64, 103
1, 194985, Control_c, 0, 64, 103
1, 195000, Control_c, 0, 64, 102
1, 195015, Control_c, 0, 64, 102
1, 195030, Control_c, 0, 64, 101
1, 195045, Control_c, 0, 64, 99
1, 195060, Control_c, 0, 64, 97
1, 195075, Control_c, 0, 64, 94
1, 195096, Control_c, 0, 64, 91
1, 195111, Control_c, 0, 64, 86
1, 195126, Control_c, 0, 64, 80
1, 195141, Control_c, 0, 64, 74
1, 195156, Control_c, 0, 64, 67
1, 195170, Control_c, 0, 64, 61
1, 195185, Control_c, 0, 64, 55
1, 195200, Control_c, 0, 64, 52
1, 195246, Control_c, 0, 64, 51
1, 195319, Control_c, 0, 64, 51
1, 195498, Control_c, 0, 64, 52
1, 195512, Control_c, 0, 64, 55
1, 195527, Control_c, 0, 64, 60
1, 195542, Control_c, 0, 64, 64
1, 195557, Control_c, 0, 64, 68
1, 195572, Control_c, 0, 64, 72
1, 195587, Control_c, 0, 64, 76
1, 195601, Control_c, 0, 64, 79
1, 195605, Note_on_c, 0, 62, 46
1, 195616, Control_c, 0, 64, 81
1, 195631, Control_c, 0, 64, 83
1, 195646, Control_c, 0, 64, 84
1, 195661, Control_c, 0, 64, 84
1, 195675, Control_c, 0, 64, 85
1, 195690, Control_c, 0, 64, 85
1, 195749, Control_c, 0, 64, 86
1, 195764, Note_off_c, 0, 62, 37
1, 195768, Note_on_c, 0, 40, 33
1, 195771, Note_on_c, 0, 64, 56
1, 195821, Note_off_c, 0, 40, 43
1, 195856, Note_off_c, 0, 64, 52
1, 195878, Note_on_c, 0, 68, 64
1, 195963, Note_off_c, 0, 68, 55
1, 195984, Note_on_c, 0, 72, 70
1, 195987, Note_on_c, 0, 40, 40
1, 196067, Note_off_c, 0, 40, 45
1, 196068, Control_c, 0, 64, 85
1, 196079, Note_on_c, 0, 71, 75
1, 196097, Control_c, 0, 64, 85
1, 196101, Note_off_c, 0, 72, 55
1, 196112, Control_c, 0, 64, 83
1, 196127, Control_c, 0, 64, 78
1, 196142, Control_c, 0, 64, 69
1, 196157, Control_c, 0, 64, 61
1, 196172, Control_c, 0, 64, 35
1, 196187, Control_c, 0, 64, 0
1, 196204, Note_on_c, 0, 69, 68
1, 196208, Note_off_c, 0, 71, 59
1, 196239, Note_on_c, 0, 67, 32
1, 196240, Note_off_c, 0, 67, 127
1, 196423, Control_c, 0, 64, 41
1, 196438, Control_c, 0, 64, 61
1, 196453, Control_c, 0, 64, 65
1, 196455, Note_on_c, 0, 64, 52
1, 196466, Note_on_c, 0, 40, 40
1, 196466, Note_on_c, 0, 60, 38
1, 196467, Control_c, 0, 64, 67
1, 196482, Control_c, 0, 64, 69
1, 196497, Control_c, 0, 64, 71
1, 196497, Control_c, 0, 67, 124
1, 196512, Control_c, 0, 64, 72
1, 196512, Control_c, 0, 67, 113
1, 196523, Note_off_c, 0, 60, 40
1, 196524, Note_off_c, 0, 40, 57
1, 196527, Control_c, 0, 64, 74
1, 196527, Control_c, 0, 67, 100
1, 196529, Note_off_c, 0, 64, 54
1, 196541, Control_c, 0, 64, 75
1, 196541, Control_c, 0, 67, 83
1, 196556, Control_c, 0, 64, 77
1, 196556, Control_c, 0, 67, 63
1, 196571, Control_c, 0, 64, 78
1, 196571, Control_c, 0, 67, 38
1, 196594, Control_c, 0, 64, 80
1, 196594, Control_c, 0, 67, 15
1, 196609, Control_c, 0, 64, 81
1, 196609, Control_c, 0, 67, 0
1, 196623, Control_c, 0, 64, 83
1, 196638, Control_c, 0, 64, 86
1, 196653, Control_c, 0, 64, 88
1, 196667, Control_c, 0, 64, 89
1, 196681, Note_on_c, 0, 64, 59
1, 196682, Note_off_c, 0, 69, 57
1, 196682, Control_c, 0, 64, 91
1, 196683, Note_on_c, 0, 60, 53
1, 196685, Note_on_c, 0, 40, 42
1, 196697, Control_c, 0, 64, 91
1, 196706, Note_off_c, 0, 60, 58
1, 196712, Control_c, 0, 64, 92
1, 196720, Note_off_c, 0, 40, 53
1, 196724, Note_off_c, 0, 64, 65
1, 196727, Control_c, 0, 64, 93
1, 196756, Control_c, 0, 64, 94
1, 196786, Control_c, 0, 64, 94
1, 196876, Control_c, 0, 64, 93
1, 196890, Control_c, 0, 64, 87
1, 196905, Control_c, 0, 64, 76
1, 196908, Note_on_c, 0, 76, 84
1, 196920, Control_c, 0, 64, 64
1, 196935, Control_c, 0, 64, 0
1, 196943, Note_on_c, 0, 64, 54
1, 196994, Control_c, 0, 64, 38
1, 197009, Control_c, 0, 64, 63
1, 197024, Control_c, 0, 64, 71
1, 197039, Control_c, 0, 64, 79
1, 197054, Control_c, 0, 64, 85
1, 197069, Control_c, 0, 64, 88
1, 197083, Control_c, 0, 64, 90
1, 197098, Control_c, 0, 64, 92
1, 197113, Control_c, 0, 64, 93
1, 197128, Note_off_c, 0, 64, 34
1, 197128, Control_c, 0, 64, 94
1, 197143, Control_c, 0, 64, 95
1, 197149, Note_on_c, 0, 72, 76
1, 197155, Note_on_c, 0, 69, 61
1, 197157, Control_c, 0, 64, 96
1, 197172, Control_c, 0, 64, 96
1, 197173, Note_on_c, 0, 60, 52
1, 197177, Note_on_c, 0, 57, 50
1, 197194, Note_off_c, 0, 76, 58
1, 197198, Note_on_c, 0, 52, 32
1, 197224, Note_off_c, 0, 60, 54
1, 197230, Note_off_c, 0, 57, 54
1, 197231, Note_off_c, 0, 69, 56
1, 197233, Note_off_c, 0, 52, 51
1, 197276, Control_c, 0, 64, 97
1, 197280, Note_off_c, 0, 72, 56
1, 197364, Note_on_c, 0, 52, 53
1, 197382, Note_on_c, 0, 69, 73
1, 197388, Note_on_c, 0, 72, 83
1, 197399, Note_on_c, 0, 60, 50
1, 197431, Note_off_c, 0, 52, 54
1, 197445, Control_c, 0, 67, 8
1, 197451, Poly_aftertouch_c, 0, 57, 127
1, 197459, Note_off_c, 0, 69, 57
1, 197460, Control_c, 0, 67, 8
1, 197489, Control_c, 0, 67, 9
1, 197504, Poly_aftertouch_c, 0, 57, 0
1, 197504, Control_c, 0, 67, 9
1, 197519, Control_c, 0, 67, 10
1, 197521, Note_off_c, 0, 60, 34
1, 197534, Control_c, 0, 67, 10
1, 197549, Control_c, 0, 64, 96
1, 197549, Control_c, 0, 67, 12
1, 197556, Note_off_c, 0, 72, 55
1, 197564, Control_c, 0, 64, 88
1, 197564, Control_c, 0, 67, 13
1, 197579, Control_c, 0, 64, 74
1, 197579, Control_c, 0, 67, 14
1, 197593, Control_c, 0, 64, 60
1, 197593, Control_c, 0, 67, 16
1, 197608, Note_on_c, 0, 78, 86
1, 197609, Control_c, 0, 64, 0
1, 197609, Control_c, 0, 67, 19
1, 197624, Control_c, 0, 67, 22
1, 197627, Note_on_c, 0, 66, 64
1, 197639, Control_c, 0, 67, 25
1, 197654, Control_c, 0, 64, 57
1, 197654, Control_c, 0, 67, 28
1, 197668, Control_c, 0, 64, 68
1, 197668, Control_c, 0, 67, 33
1, 197683, Control_c, 0, 64, 79
1, 197683, Control_c, 0, 67, 40
1, 197698, Control_c, 0, 64, 93
1, 197698, Control_c, 0, 67, 48
1, 197713, Control_c, 0, 64, 104
1, 197713, Control_c, 0, 67, 56
1, 197723, Note_off_c, 0, 78, 61
1, 197728, Control_c, 0, 64, 107
1, 197728, Control_c, 0, 67, 64
1, 197737, Note_off_c, 0, 66, 55
1, 197743, Control_c, 0, 64, 108
1, 197743, Control_c, 0, 67, 72
1, 197757, Control_c, 0, 64, 109
1, 197757, Control_c, 0, 67, 81
1, 197772, Control_c, 0, 67, 90
1, 197787, Control_c, 0, 67, 100
1, 197802, Control_c, 0, 67, 111
1, 197817, Control_c, 0, 67, 123
1, 197831, Control_c, 0, 67, 127
1, 197974, Note_on_c, 0, 72, 51
1, 197981, Note_on_c, 0, 64, 35
1, 197993, Note_on_c, 0, 69, 38
1, 198003, Note_on_c, 0, 60, 33
1, 198007, Note_on_c, 0, 52, 34
1, 198017, Note_on_c, 0, 57, 26
1, 198059, Note_off_c, 0, 60, 40
1, 198071, Note_off_c, 0, 57, 43
1, 198073, Note_off_c, 0, 69, 35
1, 198089, Note_off_c, 0, 52, 35
1, 198126, Note_off_c, 0, 72, 37
1, 198133, Note_off_c, 0, 64, 41
1, 198261, Note_on_c, 0, 64, 42
1, 198277, Note_on_c, 0, 72, 46
1, 198282, Note_on_c, 0, 69, 29
1, 198306, Note_on_c, 0, 52, 14
1, 198318, Note_on_c, 0, 60, 20
1, 198333, Note_on_c, 0, 57, 12
1, 198381, Note_off_c, 0, 60, 36
1, 198382, Note_off_c, 0, 69, 29
1, 198413, Note_off_c, 0, 57, 35
1, 198430, Note_off_c, 0, 64, 40
1, 198458, Note_off_c, 0, 72, 36
1, 198521, Control_c, 0, 64, 108
1, 198527, Note_off_c, 0, 52, 15
1, 198640, Control_c, 0, 64, 108
1, 198669, Control_c, 0, 64, 107
1, 198684, Control_c, 0, 64, 107
1, 198699, Control_c, 0, 64, 106
1, 198714, Control_c, 0, 64, 105
1, 198729, Control_c, 0, 64, 103
1, 198743, Control_c, 0, 64, 101
1, 198758, Control_c, 0, 64, 99
1, 198773, Control_c, 0, 64, 96
1, 198788, Control_c, 0, 64, 93
1, 198802, Control_c, 0, 64, 89
1, 198817, Control_c, 0, 64, 85
1, 198840, Control_c, 0, 64, 80
1, 198854, Control_c, 0, 64, 75
1, 198869, Control_c, 0, 64, 70
1, 198884, Control_c, 0, 64, 64
1, 198899, Control_c, 0, 64, 59
1, 198914, Control_c, 0, 64, 54
1, 198929, Control_c, 0, 64, 53
1, 198988, Control_c, 0, 64, 53
1, 199061, Control_c, 0, 64, 52
1, 199106, Control_c, 0, 64, 52
1, 199121, Control_c, 0, 64, 51
1, 199344, Control_c, 0, 64, 52
1, 199358, Control_c, 0, 64, 55
1, 199373, Control_c, 0, 64, 58
1, 199379, Note_on_c, 0, 60, 35
1, 199388, Control_c, 0, 64, 62
1, 199403, Control_c, 0, 64, 65
1, 199418, Control_c, 0, 64, 68
1, 199433, Control_c, 0, 64, 71
1, 199448, Control_c, 0, 64, 73
1, 199463, Control_c, 0, 64, 75
1, 199477, Control_c, 0, 64, 77
1, 199492, Control_c, 0, 64, 78
1, 199507, Control_c, 0, 64, 79
1, 199522, Control_c, 0, 64, 80
1, 199537, Control_c, 0, 64, 81
1, 199551, Control_c, 0, 64, 82
1, 199566, Control_c, 0, 64, 83
1, 199588, Control_c, 0, 64, 84
1, 199595, Note_off_c, 0, 60, 54
1, 199603, Control_c, 0, 64, 84
1, 199618, Control_c, 0, 64, 85
1, 199620, Note_on_c, 0, 40, 37
1, 199631, Note_on_c, 0, 64, 44
1, 199632, Control_c, 0, 64, 85
1, 199647, Control_c, 0, 64, 86
1, 199683, Note_off_c, 0, 40, 55
1, 199686, Note_off_c, 0, 64, 55
1, 199692, Control_c, 0, 64, 86
1, 199725, Note_on_c, 0, 68, 50
1, 199784, Note_off_c, 0, 68, 49
1, 199829, Note_on_c, 0, 71, 56
1, 199838, Note_on_c, 0, 40, 39
1, 199873, Note_off_c, 0, 71, 52
1, 199905, Note_off_c, 0, 40, 37
1, 199922, Note_on_c, 0, 69, 64
1, 199967, Note_off_c, 0, 69, 52
1, 199973, Control_c, 0, 64, 86
1, 199988, Control_c, 0, 64, 85
1, 200004, Control_c, 0, 64, 80
1, 200019, Control_c, 0, 64, 73
1, 200033, Control_c, 0, 64, 64
1, 200038, Note_on_c, 0, 69, 52
1, 200048, Control_c, 0, 64, 49
1, 200063, Control_c, 0, 64, 0
1, 200282, Note_on_c, 0, 64, 46
1, 200285, Control_c, 0, 64, 41
1, 200296, Note_on_c, 0, 60, 34
1, 200300, Control_c, 0, 64, 56
1, 200309, Note_on_c, 0, 40, 21
1, 200315, Control_c, 0, 64, 64
1, 200337, Control_c, 0, 64, 67
1, 200352, Control_c, 0, 64, 71
1, 200365, Note_off_c, 0, 60, 50
1, 200366, Note_off_c, 0, 40, 47
1, 200367, Control_c, 0, 64, 74
1, 200372, Note_off_c, 0, 64, 50
1, 200382, Control_c, 0, 64, 75
1, 200396, Control_c, 0, 64, 77
1, 200411, Control_c, 0, 64, 78
1, 200426, Control_c, 0, 64, 79
1, 200440, Control_c, 0, 64, 80
1, 200455, Control_c, 0, 64, 81
1, 200470, Control_c, 0, 64, 82
1, 200485, Control_c, 0, 64, 84
1, 200500, Control_c, 0, 64, 85
1, 200511, Note_on_c, 0, 40, 41
1, 200515, Control_c, 0, 64, 86
1, 200519, Note_off_c, 0, 69, 57
1, 200520, Note_on_c, 0, 60, 55
1, 200520, Note_on_c, 0, 64, 61
1, 200530, Control_c, 0, 64, 86
1, 200545, Control_c, 0, 64, 87
1, 200549, Note_off_c, 0, 40, 62
1, 200556, Note_off_c, 0, 60, 62
1, 200559, Control_c, 0, 64, 87
1, 200568, Note_off_c, 0, 64, 59
1, 200619, Control_c, 0, 64, 88
1, 200707, Control_c, 0, 64, 85
1, 200722, Control_c, 0, 64, 77
1, 200737, Control_c, 0, 64, 66
1, 200751, Control_c, 0, 64, 48
1, 200766, Control_c, 0, 64, 0
1, 200771, Note_on_c, 0, 78, 77
1, 200796, Control_c, 0, 64, 40
1, 200812, Note_on_c, 0, 66, 42
1, 200812, Control_c, 0, 64, 61
1, 200827, Control_c, 0, 64, 70
1, 200842, Control_c, 0, 64, 82
1, 200856, Control_c, 0, 64, 98
1, 200871, Control_c, 0, 64, 110
1, 200877, Note_off_c, 0, 66, 54
1, 200881, Note_off_c, 0, 78, 60
1, 200886, Control_c, 0, 64, 117
1, 200901, Control_c, 0, 64, 118
1, 200916, Control_c, 0, 64, 120
1, 201018, Note_on_c, 0, 60, 49
1, 201027, Note_on_c, 0, 57, 44
1, 201030, Note_on_c, 0, 72, 59
1, 201032, Note_on_c, 0, 69, 46
1, 201039, Note_on_c, 0, 52, 35
1, 201051, Note_on_c, 0, 64, 24
1, 201052, Note_off_c, 0, 60, 54
1, 201080, Note_off_c, 0, 57, 46
1, 201090, Note_off_c, 0, 52, 45
1, 201096, Note_off_c, 0, 69, 55
1, 201098, Note_off_c, 0, 64, 52
1, 201126, Note_off_c, 0, 72, 56
1, 201209, Note_on_c, 0, 52, 53
1, 201212, Note_on_c, 0, 64, 58
1, 201221, Note_on_c, 0, 72, 69
1, 201225, Note_on_c, 0, 69, 55
1, 201236, Note_off_c, 0, 64, 64
1, 201246, Note_off_c, 0, 52, 59
1, 201249, Note_off_c, 0, 69, 63
1, 201252, Note_off_c, 0, 72, 62
1, 201263, Note_on_c, 0, 57, 13
1, 201265, Note_on_c, 0, 60, 41
1, 201305, Note_off_c, 0, 60, 44
1, 201313, Note_off_c, 0, 57, 44
1, 201382, Control_c, 0, 64, 117
1, 201397, Control_c, 0, 64, 99
1, 201412, Control_c, 0, 64, 80
1, 201427, Control_c, 0, 64, 65
1, 201436, Note_on_c, 0, 80, 88
1, 201442, Control_c, 0, 64, 34
1, 201448, Note_on_c, 0, 68, 67
1, 201456, Control_c, 0, 64, 0
1, 201486, Control_c, 0, 64, 29
1, 201501, Control_c, 0, 64, 62
1, 201516, Control_c, 0, 64, 73
1, 201519, Note_off_c, 0, 68, 62
1, 201530, Control_c, 0, 64, 85
1, 201545, Control_c, 0, 64, 97
1, 201560, Control_c, 0, 64, 103
1, 201574, Control_c, 0, 64, 104
1, 201639, Note_off_c, 0, 80, 62
1, 201664, Note_on_c, 0, 69, 56
1, 201674, Note_on_c, 0, 75, 56
1, 201692, Note_on_c, 0, 60, 47
1, 201697, Note_on_c, 0, 57, 43
1, 201699, Note_on_c, 0, 72, 37
1, 201716, Note_on_c, 0, 52, 33
1, 201736, Note_off_c, 0, 69, 53
1, 201737, Note_off_c, 0, 60, 54
1, 201743, Note_off_c, 0, 57, 54
1, 201744, Note_off_c, 0, 72, 44
1, 201760, Note_off_c, 0, 52, 46
1, 201796, Note_off_c, 0, 75, 34
1, 201880, Note_on_c, 0, 75, 49
1, 201880, Note_on_c, 0, 69, 54
1, 201890, Note_on_c, 0, 57, 26
1, 201892, Note_on_c, 0, 72, 35
1, 201907, Note_on_c, 0, 60, 32
1, 201925, Poly_aftertouch_c, 0, 52, 127
1, 201931, Note_off_c, 0, 57, 47
1, 201934, Note_off_c, 0, 72, 46
1, 201936, Note_off_c, 0, 60, 52
1, 201958, Note_off_c, 0, 69, 49
1, 201965, Poly_aftertouch_c, 0, 52, 0
1, 201993, Note_off_c, 0, 75, 36
1, 202087, Control_c, 0, 64, 102
1, 202102, Control_c, 0, 64, 92
1, 202117, Control_c, 0, 64, 80
1, 202131, Control_c, 0, 64, 68
1, 202139, Note_on_c, 0, 78, 55
1, 202146, Control_c, 0, 64, 53
1, 202161, Note_on_c, 0, 66, 37
1, 202161, Control_c, 0, 64, 0
1, 202205, Control_c, 0, 64, 36
1, 202220, Control_c, 0, 64, 59
1, 202235, Control_c, 0, 64, 67
1, 202250, Control_c, 0, 64, 73
1, 202265, Control_c, 0, 64, 79
1, 202279, Control_c, 0, 64, 82
1, 202294, Control_c, 0, 64, 83
1, 202309, Control_c, 0, 64, 83
1, 202339, Control_c, 0, 64, 84
1, 202350, Note_off_c, 0, 66, 36
1, 202461, Note_off_c, 0, 78, 29
1, 202585, Note_on_c, 0, 75, 38
1, 202593, Note_on_c, 0, 69, 32
1, 202595, Note_on_c, 0, 72, 29
1, 202604, Note_on_c, 0, 52, 26
1, 202605, Note_on_c, 0, 57, 33
1, 202615, Note_on_c, 0, 60, 28
1, 202685, Note_off_c, 0, 52, 0
1, 202722, Poly_aftertouch_c, 0, 52, 127
1, 202800, Poly_aftertouch_c, 0, 52, 0
1, 202803, Note_off_c, 0, 69, 38
1, 202806, Control_c, 0, 64, 82
1, 202810, Note_off_c, 0, 60, 34
1, 202814, Note_off_c, 0, 57, 40
1, 202821, Control_c, 0, 64, 80
1, 202823, Note_off_c, 0, 75, 57
1, 202828, Note_off_c, 0, 72, 13
1, 202835, Control_c, 0, 64, 75
1, 202850, Control_c, 0, 64, 70
1, 202865, Control_c, 0, 64, 64
1, 202880, Control_c, 0, 64, 51
1, 202895, Control_c, 0, 64, 34
1, 202909, Control_c, 0, 64, 21
1, 202909, Control_c, 0, 67, 123
1, 202924, Control_c, 0, 64, 12
1, 202924, Control_c, 0, 67, 114
1, 202939, Control_c, 0, 64, 0
1, 202939, Control_c, 0, 67, 102
1, 202953, Control_c, 0, 67, 89
1, 202968, Control_c, 0, 67, 76
1, 202983, Control_c, 0, 67, 64
1, 202998, Control_c, 0, 67, 53
1, 203013, Control_c, 0, 67, 40
1, 203028, Control_c, 0, 67, 24
1, 203043, Control_c, 0, 67, 0
1, 203057, Note_on_c, 0, 68, 73
1, 203064, Note_on_c, 0, 80, 73
1, 203087, Control_c, 0, 64, 46
1, 203089, Note_off_c, 0, 80, 65
1, 203090, Note_off_c, 0, 68, 62
1, 203102, Control_c, 0, 64, 63
1, 203117, Control_c, 0, 64, 71
1, 203132, Control_c, 0, 64, 85
1, 203147, Control_c, 0, 64, 127
1, 203152, Note_on_c, 0, 80, 93
1, 203158, Note_on_c, 0, 68, 77
1, 203215, Note_off_c, 0, 68, 61
1, 203362, Control_c, 0, 67, 9
1, 203376, Control_c, 0, 67, 16
1, 203383, Note_off_c, 0, 80, 59
1, 203391, Control_c, 0, 67, 26
1, 203394, Note_on_c, 0, 75, 62
1, 203399, Note_on_c, 0, 69, 54
1, 203406, Control_c, 0, 67, 42
1, 203409, Note_on_c, 0, 60, 50
1, 203415, Note_on_c, 0, 72, 49
1, 203421, Control_c, 0, 67, 60
1, 203422, Note_on_c, 0, 57, 43
1, 203425, Note_on_c, 0, 52, 27
1, 203436, Control_c, 0, 67, 83
1, 203450, Note_off_c, 0, 60, 60
1, 203451, Control_c, 0, 67, 103
1, 203463, Note_off_c, 0, 57, 60
1, 203463, Note_off_c, 0, 69, 57
1, 203466, Note_off_c, 0, 72, 53
1, 203466, Control_c, 0, 67, 123
1, 203474, Note_off_c, 0, 52, 44
1, 203481, Control_c, 0, 67, 127
1, 203499, Note_off_c, 0, 75, 51
1, 203594, Note_on_c, 0, 52, 46
1, 203601, Note_on_c, 0, 69, 61
1, 203603, Note_on_c, 0, 57, 30
1, 203610, Note_on_c, 0, 72, 55
1, 203613, Note_on_c, 0, 75, 69
1, 203622, Note_on_c, 0, 60, 36
1, 203629, Note_off_c, 0, 52, 51
1, 203669, Note_off_c, 0, 57, 42
1, 203669, Note_off_c, 0, 60, 53
1, 203671, Note_off_c, 0, 72, 47
1, 203675, Note_off_c, 0, 69, 55
1, 203715, Note_off_c, 0, 75, 55
1, 203836, Control_c, 0, 64, 110
1, 203850, Control_c, 0, 64, 78
1, 203861, Note_on_c, 0, 78, 59
1, 203865, Control_c, 0, 64, 64
1, 203880, Control_c, 0, 64, 45
1, 203892, Note_on_c, 0, 66, 38
1, 203895, Control_c, 0, 64, 23
1, 203925, Control_c, 0, 64, 40
1, 203940, Control_c, 0, 64, 57
1, 203955, Control_c, 0, 64, 66
1, 203970, Control_c, 0, 64, 73
1, 203984, Control_c, 0, 64, 82
1, 203999, Control_c, 0, 64, 89
1, 204014, Control_c, 0, 64, 91
1, 204029, Control_c, 0, 64, 92
1, 204042, Note_off_c, 0, 66, 49
1, 204044, Control_c, 0, 64, 92
1, 204081, Control_c, 0, 64, 93
1, 204202, Note_off_c, 0, 78, 30
1, 204289, Note_on_c, 0, 75, 44
1, 204292, Note_on_c, 0, 69, 41
1, 204302, Note_on_c, 0, 52, 34
1, 204315, Note_on_c, 0, 72, 33
1, 204320, Note_on_c, 0, 60, 34
1, 204327, Note_on_c, 0, 57, 33
1, 204506, Note_off_c, 0, 52, 36
1, 204511, Control_c, 0, 64, 92
1, 204525, Control_c, 0, 64, 91
1, 204537, Note_off_c, 0, 69, 40
1, 204540, Control_c, 0, 64, 86
1, 204541, Note_off_c, 0, 75, 58
1, 204544, Note_off_c, 0, 60, 36
1, 204545, Note_off_c, 0, 57, 39
1, 204555, Control_c, 0, 64, 76
1, 204555, Control_c, 0, 67, 127
1, 204561, Note_off_c, 0, 72, 38
1, 204570, Control_c, 0, 64, 67
1, 204570, Control_c, 0, 67, 115
1, 204585, Control_c, 0, 64, 54
1, 204585, Control_c, 0, 67, 100
1, 204599, Control_c, 0, 64, 0
1, 204599, Control_c, 0, 67, 82
1, 204614, Control_c, 0, 67, 64
1, 204629, Control_c, 0, 67, 45
1, 204644, Control_c, 0, 67, 31
1, 204659, Control_c, 0, 67, 17
1, 204673, Control_c, 0, 67, 0
1, 204757, Note_on_c, 0, 80, 80
1, 204761, Note_on_c, 0, 68, 73
1, 204786, Note_off_c, 0, 68, 64
1, 204792, Note_off_c, 0, 80, 61
1, 204792, Control_c, 0, 64, 24
1, 204808, Control_c, 0, 64, 63
1, 204830, Control_c, 0, 64, 72
1, 204845, Control_c, 0, 64, 94
1, 204852, Note_on_c, 0, 80, 89
1, 204857, Note_on_c, 0, 68, 86
1, 204860, Control_c, 0, 64, 127
1, 204925, Note_off_c, 0, 68, 58
1, 205034, Note_off_c, 0, 80, 60
1, 205038, Control_c, 0, 67, 14
1, 205053, Control_c, 0, 67, 21
1, 205068, Control_c, 0, 67, 29
1, 205083, Control_c, 0, 67, 38
1, 205094, Note_on_c, 0, 75, 65
1, 205097, Control_c, 0, 67, 48
1, 205105, Note_on_c, 0, 69, 50
1, 205106, Note_on_c, 0, 60, 52
1, 205109, Note_on_c, 0, 52, 51
1, 205112, Control_c, 0, 67, 60
1, 205114, Note_on_c, 0, 72, 48
1, 205119, Note_on_c, 0, 57, 47
1, 205127, Control_c, 0, 67, 75
1, 205142, Control_c, 0, 67, 87
1, 205153, Note_off_c, 0, 60, 55
1, 205156, Control_c, 0, 67, 99
1, 205162, Note_off_c, 0, 69, 55
1, 205163, Note_off_c, 0, 52, 56
1, 205168, Note_off_c, 0, 57, 57
1, 205171, Control_c, 0, 67, 110
1, 205186, Note_off_c, 0, 72, 47
1, 205186, Control_c, 0, 67, 119
1, 205200, Note_off_c, 0, 75, 55
1, 205201, Control_c, 0, 67, 126
1, 205216, Control_c, 0, 67, 127
1, 205305, Note_on_c, 0, 52, 32
1, 205305, Note_on_c, 0, 69, 58
1, 205310, Note_on_c, 0, 57, 33
1, 205317, Note_on_c, 0, 75, 70
1, 205322, Note_on_c, 0, 72, 56
1, 205328, Note_on_c, 0, 60, 43
1, 205341, Note_off_c, 0, 52, 49
1, 205374, Note_off_c, 0, 60, 57
1, 205374, Note_off_c, 0, 57, 43
1, 205392, Note_off_c, 0, 69, 54
1, 205394, Note_off_c, 0, 72, 49
1, 205431, Note_off_c, 0, 75, 52
1, 205541, Note_on_c, 0, 78, 79
1, 205561, Note_on_c, 0, 66, 49
1, 205579, Control_c, 0, 64, 84
1, 205594, Control_c, 0, 64, 66
1, 205609, Control_c, 0, 64, 45
1, 205624, Control_c, 0, 64, 0
1, 205654, Control_c, 0, 64, 35
1, 205669, Control_c, 0, 64, 59
1, 205684, Control_c, 0, 64, 68
1, 205699, Control_c, 0, 64, 77
1, 205713, Control_c, 0, 64, 89
1, 205728, Control_c, 0, 64, 95
1, 205743, Control_c, 0, 64, 96
1, 205744, Note_off_c, 0, 66, 58
1, 205830, Note_on_c, 0, 75, 79
1, 205834, Note_on_c, 0, 69, 74
1, 205837, Note_on_c, 0, 72, 75
1, 205841, Note_on_c, 0, 60, 63
1, 205844, Note_on_c, 0, 52, 55
1, 205852, Note_on_c, 0, 57, 55
1, 205874, Note_off_c, 0, 52, 60
1, 205894, Note_off_c, 0, 69, 59
1, 205895, Note_off_c, 0, 57, 61
1, 205905, Note_off_c, 0, 60, 59
1, 205910, Note_off_c, 0, 78, 38
1, 205911, Note_off_c, 0, 72, 61
1, 205935, Control_c, 0, 67, 123
1, 205938, Note_off_c, 0, 75, 61
1, 205950, Control_c, 0, 67, 117
1, 205965, Control_c, 0, 67, 106
1, 205979, Control_c, 0, 67, 87
1, 205994, Control_c, 0, 67, 61
1, 206009, Control_c, 0, 67, 39
1, 206024, Control_c, 0, 67, 18
1, 206039, Control_c, 0, 67, 0
1, 206113, Control_c, 0, 64, 91
1, 206128, Control_c, 0, 64, 75
1, 206134, Note_on_c, 0, 80, 81
1, 206137, Note_on_c, 0, 68, 75
1, 206143, Control_c, 0, 64, 60
1, 206158, Control_c, 0, 64, 0
1, 206168, Note_off_c, 0, 68, 62
1, 206179, Note_off_c, 0, 80, 61
1, 206217, Control_c, 0, 64, 59
1, 206226, Note_on_c, 0, 81, 102
1, 206228, Note_on_c, 0, 69, 87
1, 206232, Control_c, 0, 64, 71
1, 206246, Control_c, 0, 64, 84
1, 206261, Control_c, 0, 64, 107
1, 206276, Control_c, 0, 64, 127
1, 206277, Note_off_c, 0, 69, 62
1, 206473, Note_off_c, 0, 81, 53
1, 206509, Note_on_c, 0, 72, 89
1, 206509, Note_on_c, 0, 78, 86
1, 206515, Note_on_c, 0, 75, 81
1, 206518, Note_on_c, 0, 60, 83
1, 206520, Note_on_c, 0, 52, 74
1, 206521, Note_on_c, 0, 57, 73
1, 206552, Note_off_c, 0, 57, 63
1, 206559, Note_off_c, 0, 52, 61
1, 206571, Note_off_c, 0, 60, 57
1, 206585, Note_off_c, 0, 72, 59
1, 206613, Note_off_c, 0, 78, 60
1, 206617, Note_off_c, 0, 75, 51
1, 206761, Note_on_c, 0, 52, 69
1, 206761, Note_on_c, 0, 75, 83
1, 206762, Note_on_c, 0, 72, 92
1, 206762, Note_on_c, 0, 78, 85
1, 206767, Note_on_c, 0, 60, 79
1, 206774, Note_on_c, 0, 57, 60
1, 206799, Note_off_c, 0, 52, 62
1, 206807, Note_off_c, 0, 57, 64
1, 206821, Note_off_c, 0, 72, 60
1, 206849, Note_off_c, 0, 75, 56
1, 206892, Note_off_c, 0, 78, 47
1, 206950, Control_c, 0, 64, 98
1, 206965, Control_c, 0, 64, 66
1, 206968, Note_off_c, 0, 60, 37
1, 206980, Control_c, 0, 64, 0
1, 206994, Note_on_c, 0, 80, 94
1, 206997, Note_on_c, 0, 68, 94
1, 207024, Control_c, 0, 64, 64
1, 207038, Control_c, 0, 64, 78
1, 207053, Control_c, 0, 64, 127
1, 207080, Note_off_c, 0, 68, 61
1, 207181, Note_off_c, 0, 80, 49
1, 207274, Note_on_c, 0, 72, 93
1, 207275, Note_on_c, 0, 75, 86
1, 207275, Note_on_c, 0, 78, 91
1, 207278, Note_on_c, 0, 60, 76
1, 207292, Note_on_c, 0, 57, 63
1, 207296, Note_on_c, 0, 52, 57
1, 207336, Note_off_c, 0, 52, 61
1, 207351, Note_off_c, 0, 72, 58
1, 207366, Note_off_c, 0, 57, 56
1, 207371, Note_off_c, 0, 60, 52
1, 207376, Note_off_c, 0, 75, 59
1, 207385, Note_off_c, 0, 78, 61
1, 207445, Note_on_c, 0, 52, 70
1, 207475, Note_on_c, 0, 57, 68
1, 207512, Note_off_c, 0, 52, 59
1, 207514, Note_on_c, 0, 60, 72
1, 207576, Note_off_c, 0, 57, 58
1, 207613, Note_on_c, 0, 72, 97
1, 207614, Note_on_c, 0, 81, 99
1, 207617, Note_on_c, 0, 69, 92
1, 207619, Note_on_c, 0, 75, 83
1, 207625, Note_on_c, 0, 78, 83
1, 207657, Note_off_c, 0, 69, 67
1, 207679, Note_off_c, 0, 60, 59
1, 207684, Note_on_c, 0, 58, 15
1, 207712, Note_off_c, 0, 72, 56
1, 207729, Note_off_c, 0, 58, 53
1, 207737, Note_off_c, 0, 81, 52
1, 207749, Note_on_c, 0, 57, 4
1, 207769, Note_off_c, 0, 78, 56
1, 207787, Note_off_c, 0, 57, 41
1, 207833, Note_off_c, 0, 75, 28
1, 207973, Control_c, 0, 64, 91
1, 207988, Control_c, 0, 64, 59
1, 207997, Note_on_c, 0, 71, 97
1, 207999, Note_on_c, 0, 40, 94
1, 208003, Control_c, 0, 64, 0
1, 208005, Note_on_c, 0, 28, 81
1, 208006, Note_on_c, 0, 74, 85
1, 208006, Note_on_c, 0, 83, 84
1, 208009, Note_on_c, 0, 80, 74
1, 208018, Note_on_c, 0, 76, 63
1, 208039, Note_off_c, 0, 28, 65
1, 208058, Note_off_c, 0, 40, 64
1, 208062, Note_on_c, 0, 81, 3
1, 208063, Note_off_c, 0, 81, 127
1, 208063, Control_c, 0, 64, 62
1, 208073, Note_off_c, 0, 83, 61
1, 208078, Control_c, 0, 64, 77
1, 208081, Note_off_c, 0, 71, 60
1, 208093, Control_c, 0, 64, 127
1, 208149, Note_off_c, 0, 76, 55
1, 208154, Note_off_c, 0, 74, 56
1, 208158, Note_off_c, 0, 80, 56
1, 208255, Note_on_c, 0, 62, 79
1, 208288, Note_on_c, 0, 52, 48
1, 208335, Note_off_c, 0, 52, 42
1, 208340, Note_off_c, 0, 62, 58
1, 208454, Note_on_c, 0, 64, 88
1, 208466, Note_on_c, 0, 56, 73
1, 208497, Note_on_c, 0, 63, 42
1, 208528, Note_off_c, 0, 64, 61
1, 208594, Note_off_c, 0, 56, 58
1, 208600, Note_off_c, 0, 63, 54
1, 208673, Note_on_c, 0, 74, 100
1, 208677, Note_on_c, 0, 85, 93
1, 208680, Note_on_c, 0, 68, 94
1, 208683, Note_on_c, 0, 76, 86
1, 208687, Note_on_c, 0, 80, 81
1, 208689, Note_on_c, 0, 62, 71
1, 208716, Note_on_c, 0, 82, 49
1, 208731, Note_on_c, 0, 59, 34
1, 208760, Note_off_c, 0, 68, 60
1, 208761, Note_off_c, 0, 59, 53
1, 208763, Note_off_c, 0, 74, 56
1, 208767, Note_off_c, 0, 85, 62
1, 208777, Note_off_c, 0, 82, 53
1, 208784, Note_off_c, 0, 62, 59
1, 208788, Note_off_c, 0, 76, 60
1, 208806, Note_off_c, 0, 80, 57
1, 208865, Note_on_c, 0, 62, 58
1, 208877, Note_on_c, 0, 64, 62
1, 208936, Note_off_c, 0, 62, 55
1, 208963, Note_off_c, 0, 64, 54
1, 209039, Note_on_c, 0, 56, 59
1, 209043, Note_on_c, 0, 52, 61
1, 209044, Note_on_c, 0, 74, 84
1, 209055, Note_on_c, 0, 76, 68
1, 209055, Note_on_c, 0, 80, 75
1, 209057, Note_on_c, 0, 85, 47
1, 209058, Note_off_c, 0, 85, 127
1, 209063, Note_off_c, 0, 52, 62
1, 209067, Note_off_c, 0, 56, 58
1, 209074, Note_on_c, 0, 82, 46
1, 209075, Note_on_c, 0, 84, 49
1, 209087, Note_off_c, 0, 76, 62
1, 209096, Note_off_c, 0, 84, 58
1, 209099, Note_off_c, 0, 82, 56
1, 209105, Note_off_c, 0, 80, 61
1, 209119, Note_off_c, 0, 74, 60
1, 209242, Control_c, 0, 64, 96
1, 209257, Control_c, 0, 64, 66
1, 209272, Control_c, 0, 64, 0
1, 209284, Note_on_c, 0, 69, 89
1, 209286, Note_on_c, 0, 81, 89
1, 209292, Note_on_c, 0, 73, 79
1, 209293, Note_on_c, 0, 33, 49
1, 209301, Note_on_c, 0, 47, 47
1, 209324, Control_c, 0, 64, 34
1, 209330, Note_on_c, 0, 45, 20
1, 209336, Note_off_c, 0, 33, 46
1, 209339, Control_c, 0, 64, 65
1, 209342, Note_off_c, 0, 47, 64
1, 209354, Control_c, 0, 64, 73
1, 209369, Control_c, 0, 64, 87
1, 209372, Note_off_c, 0, 45, 30
1, 209384, Control_c, 0, 64, 106
1, 209398, Control_c, 0, 64, 127
1, 209411, Note_off_c, 0, 69, 60
1, 209453, Note_off_c, 0, 73, 61
1, 209470, Note_off_c, 0, 81, 62
1, 209494, Note_on_c, 0, 61, 70
1, 209517, Note_on_c, 0, 52, 10
1, 209520, Note_on_c, 0, 53, 39
1, 209554, Note_off_c, 0, 53, 50
1, 209569, Note_off_c, 0, 52, 49
1, 209583, Note_off_c, 0, 61, 59
1, 209660, Note_on_c, 0, 64, 84
1, 209665, Note_on_c, 0, 57, 81
1, 209735, Note_off_c, 0, 64, 59
1, 209770, Note_off_c, 0, 57, 57
1, 209855, Poly_aftertouch_c, 0, 61, 127
1, 209867, Note_on_c, 0, 61, 4
1, 209872, Note_on_c, 0, 93, 93
1, 209876, Note_on_c, 0, 81, 87
1, 209876, Note_on_c, 0, 79, 88
1, 209879, Note_on_c, 0, 85, 87
1, 209880, Note_on_c, 0, 69, 76
1, 209885, Note_on_c, 0, 91, 82
1, 209899, Note_off_c, 0, 91, 69
1, 209938, Note_off_c, 0, 69, 59
1, 209974, Note_off_c, 0, 79, 61
1, 209996, Note_off_c, 0, 81, 60
1, 210007, Note_off_c, 0, 61, 56
1, 210021, Note_off_c, 0, 93, 57
1, 210046, Note_off_c, 0, 85, 61
1, 210074, Note_on_c, 0, 64, 84
1, 210084, Note_on_c, 0, 57, 70
1, 210174, Note_off_c, 0, 64, 59
1, 210235, Note_off_c, 0, 57, 48
1, 210236, Note_on_c, 0, 61, 62
1, 210242, Note_on_c, 0, 52, 71
1, 210246, Note_on_c, 0, 80, 93
1, 210248, Note_on_c, 0, 92, 97
1, 210252, Note_on_c, 0, 85, 88
1, 210257, Note_off_c, 0, 61, 62
1, 210269, Note_off_c, 0, 52, 65
1, 210338, Note_off_c, 0, 80, 60
1, 210340, Note_off_c, 0, 92, 62
1, 210415, Note_off_c, 0, 85, 58
1, 210430, Control_c, 0, 64, 81
1, 210444, Control_c, 0, 64, 37
1, 210453, Note_on_c, 0, 78, 102
1, 210454, Note_on_c, 0, 85, 73
1, 210457, Note_on_c, 0, 47, 89
1, 210459, Control_c, 0, 64, 0
1, 210460, Note_on_c, 0, 90, 90
1, 210462, Note_on_c, 0, 35, 83
1, 210494, Note_off_c, 0, 35, 66
1, 210512, Note_off_c, 0, 47, 65
1, 210518, Control_c, 0, 64, 61
1, 210533, Control_c, 0, 64, 75
1, 210541, Note_off_c, 0, 78, 62
1, 210548, Control_c, 0, 64, 106
1, 210563, Control_c, 0, 64, 127
1, 210623, Note_off_c, 0, 85, 50
1, 210648, Note_on_c, 0, 58, 67
1, 210718, Note_off_c, 0, 90, 33
1, 210764, Note_off_c, 0, 58, 37
1, 210836, Note_on_c, 0, 63, 92
1, 210839, Note_on_c, 0, 57, 81
1, 210921, Note_off_c, 0, 63, 59
1, 211038, Note_on_c, 0, 83, 99
1, 211038, Note_on_c, 0, 92, 94
1, 211044, Note_on_c, 0, 66, 88
1, 211044, Note_on_c, 0, 87, 88
1, 211050, Note_on_c, 0, 59, 76
1, 211069, Note_off_c, 0, 57, 0
1, 211106, Poly_aftertouch_c, 0, 57, 127
1, 211116, Note_off_c, 0, 83, 61
1, 211122, Note_off_c, 0, 66, 60
1, 211131, Note_off_c, 0, 92, 58
1, 211147, Note_off_c, 0, 59, 60
1, 211150, Poly_aftertouch_c, 0, 57, 0
1, 211156, Note_off_c, 0, 87, 61
1, 211222, Note_on_c, 0, 63, 82
1, 211244, Note_on_c, 0, 57, 62
1, 211281, Note_off_c, 0, 57, 56
1, 211296, Note_off_c, 0, 63, 53
1, 211387, Note_on_c, 0, 54, 71
1, 211390, Note_on_c, 0, 92, 84
1, 211391, Note_on_c, 0, 81, 90
1, 211393, Note_on_c, 0, 59, 57
1, 211402, Note_on_c, 0, 87, 82
1, 211417, Note_off_c, 0, 54, 64
1, 211422, Note_off_c, 0, 59, 54
1, 211433, Note_off_c, 0, 92, 64
1, 211455, Note_off_c, 0, 87, 62
1, 211462, Note_off_c, 0, 81, 60
1, 211503, Poly_aftertouch_c, 0, 89, 0
1, 211599, Control_c, 0, 64, 80
1, 211614, Control_c, 0, 64, 49
1, 211624, Note_on_c, 0, 76, 97
1, 211629, Control_c, 0, 64, 0
1, 211630, Note_on_c, 0, 52, 82
1, 211630, Note_on_c, 0, 88, 93
1, 211632, Note_on_c, 0, 80, 86
1, 211633, Note_on_c, 0, 40, 74
1, 211667, Note_off_c, 0, 40, 68
1, 211673, Control_c, 0, 64, 54
1, 211688, Control_c, 0, 64, 69
1, 211697, Note_off_c, 0, 52, 63
1, 211703, Control_c, 0, 64, 81
1, 211718, Control_c, 0, 64, 99
1, 211733, Control_c, 0, 64, 127
1, 211822, Note_on_c, 0, 59, 77
1, 211825, Note_on_c, 0, 52, 69
1, 211918, Note_off_c, 0, 88, 52
1, 211923, Note_off_c, 0, 76, 37
1, 211927, Note_off_c, 0, 52, 60
1, 211929, Note_off_c, 0, 59, 59
1, 211962, Note_off_c, 0, 80, 37
1, 211992, Note_on_c, 0, 64, 88
1, 211999, Note_on_c, 0, 56, 80
1, 212075, Note_off_c, 0, 64, 60
1, 212193, Note_on_c, 0, 76, 100
1, 212195, Note_on_c, 0, 88, 97
1, 212207, Note_on_c, 0, 59, 65
1, 212210, Note_on_c, 0, 68, 74
1, 212264, Note_off_c, 0, 68, 62
1, 212288, Note_off_c, 0, 56, 17
1, 212315, Note_off_c, 0, 59, 58
1, 212390, Note_on_c, 0, 64, 85
1, 212407, Note_on_c, 0, 56, 73
1, 212408, Note_off_c, 0, 76, 60
1, 212416, Note_off_c, 0, 88, 61
1, 212520, Note_off_c, 0, 64, 61
1, 212528, Note_off_c, 0, 56, 52
1, 212574, Note_on_c, 0, 59, 67
1, 212576, Note_on_c, 0, 76, 98
1, 212578, Note_on_c, 0, 88, 97
1, 212583, Note_on_c, 0, 52, 70
1, 212603, Note_off_c, 0, 59, 64
1, 212618, Note_off_c, 0, 52, 64
1, 212692, Note_off_c, 0, 76, 59
1, 212693, Note_off_c, 0, 88, 59
1, 212794, Control_c, 0, 64, 80
1, 212808, Control_c, 0, 64, 46
1, 212823, Control_c, 0, 64, 0
1, 212828, Note_on_c, 0, 76, 93
1, 212833, Note_on_c, 0, 54, 79
1, 212833, Note_on_c, 0, 88, 97
1, 212834, Note_on_c, 0, 81, 89
1, 212837, Note_on_c, 0, 42, 72
1, 212853, Control_c, 0, 64, 47
1, 212868, Control_c, 0, 64, 72
1, 212872, Note_off_c, 0, 42, 63
1, 212882, Control_c, 0, 64, 98
1, 212890, Note_off_c, 0, 54, 61
1, 212897, Control_c, 0, 64, 127
1, 212968, Note_off_c, 0, 88, 61
1, 212988, Note_off_c, 0, 76, 58
1, 213018, Note_on_c, 0, 54, 59
1, 213036, Note_on_c, 0, 62, 64
1, 213090, Note_off_c, 0, 81, 47
1, 213098, Note_off_c, 0, 54, 59
1, 213162, Note_off_c, 0, 62, 54
1, 213220, Note_on_c, 0, 69, 62
1, 213229, Note_on_c, 0, 59, 62
1, 213232, Note_on_c, 0, 74, 85
1, 213232, Note_on_c, 0, 86, 87
1, 213238, Note_off_c, 0, 69, 64
1, 213259, Note_off_c, 0, 59, 65
1, 213275, Note_off_c, 0, 74, 59
1, 213299, Note_off_c, 0, 86, 61
1, 213419, Note_on_c, 0, 74, 87
1, 213423, Note_on_c, 0, 86, 82
1, 213426, Note_on_c, 0, 47, 77
1, 213432, Note_on_c, 0, 35, 63
1, 213447, Note_off_c, 0, 86, 66
1, 213453, Note_off_c, 0, 74, 60
1, 213455, Note_off_c, 0, 47, 67
1, 213456, Note_off_c, 0, 35, 58
1, 213465, Note_on_c, 0, 84, 11
1, 213508, Note_off_c, 0, 84, 36
1, 213516, Note_on_c, 0, 76, 89
1, 213517, Note_on_c, 0, 88, 89
1, 213549, Note_off_c, 0, 76, 61
1, 213553, Note_off_c, 0, 88, 60
1, 213599, Poly_aftertouch_c, 0, 86, 127
1, 213611, Note_on_c, 0, 86, 35
1, 213617, Note_on_c, 0, 74, 91
1, 213659, Note_off_c, 0, 74, 62
1, 213666, Note_off_c, 0, 86, 63
1, 213696, Poly_aftertouch_c, 0, 80, 127
1, 213733, Note_on_c, 0, 85, 86
1, 213736, Note_on_c, 0, 73, 86
1, 213737, Note_on_c, 0, 54, 65
1, 213739, Poly_aftertouch_c, 0, 80, 0
1, 213745, Note_on_c, 0, 62, 62
1, 213778, Note_off_c, 0, 73, 57
1, 213820, Note_off_c, 0, 85, 61
1, 213847, Note_off_c, 0, 54, 57
1, 213850, Note_on_c, 0, 74, 89
1, 213851, Note_on_c, 0, 86, 83
1, 213897, Note_off_c, 0, 86, 62
1, 213897, Note_off_c, 0, 74, 61
1, 213905, Note_off_c, 0, 62, 55
1, 213949, Note_on_c, 0, 59, 73
1, 213971, Note_on_c, 0, 78, 87
1, 213972, Note_on_c, 0, 90, 90
1, 213972, Note_off_c, 0, 59, 65
1, 214007, Note_off_c, 0, 78, 56
1, 214025, Note_off_c, 0, 90, 62
1, 214073, Note_on_c, 0, 76, 80
1, 214073, Note_on_c, 0, 88, 74
1, 214074, Note_on_c, 0, 89, 74
1, 214084, Note_on_c, 0, 77, 62
1, 214100, Note_off_c, 0, 89, 65
1, 214102, Note_off_c, 0, 77, 65
1, 214107, Note_off_c, 0, 76, 54
1, 214121, Note_off_c, 0, 88, 63
1, 214127, Control_c, 0, 64, 82
1, 214141, Control_c, 0, 64, 45
1, 214156, Control_c, 0, 64, 0
1, 214182, Note_on_c, 0, 52, 88
1, 214185, Note_on_c, 0, 74, 97
1, 214186, Note_on_c, 0, 86, 97
1, 214186, Control_c, 0, 64, 55
1, 214190, Note_on_c, 0, 40, 80
1, 214197, Note_on_c, 0, 80, 88
1, 214201, Control_c, 0, 64, 77
1, 214216, Control_c, 0, 64, 127
1, 214219, Note_off_c, 0, 40, 64
1, 214225, Note_off_c, 0, 52, 66
1, 214251, Note_off_c, 0, 74, 59
1, 214273, Note_off_c, 0, 86, 56
1, 214294, Note_off_c, 0, 80, 61
1, 214437, Note_on_c, 0, 61, 25
1, 214472, Note_off_c, 0, 61, 52
1, 214574, Note_on_c, 0, 85, 93
1, 214577, Note_on_c, 0, 68, 50
1, 214577, Note_on_c, 0, 73, 86
1, 214588, Note_on_c, 0, 56, 50
1, 214601, Note_off_c, 0, 68, 58
1, 214621, Note_off_c, 0, 56, 62
1, 214631, Note_off_c, 0, 73, 59
1, 214658, Note_off_c, 0, 85, 59
1, 214759, Note_on_c, 0, 73, 85
1, 214759, Note_on_c, 0, 85, 89
1, 214764, Note_on_c, 0, 45, 75
1, 214773, Note_on_c, 0, 33, 57
1, 214790, Note_off_c, 0, 73, 59
1, 214796, Note_off_c, 0, 45, 63
1, 214803, Note_off_c, 0, 33, 53
1, 214809, Note_off_c, 0, 85, 60
1, 214851, Note_on_c, 0, 74, 91
1, 214854, Note_on_c, 0, 86, 83
1, 214887, Note_off_c, 0, 86, 59
1, 214899, Note_off_c, 0, 74, 59
1, 214955, Note_on_c, 0, 73, 77
1, 214961, Note_on_c, 0, 85, 74
1, 214981, Note_off_c, 0, 73, 67
1, 214983, Note_on_c, 0, 72, 49
1, 215005, Note_off_c, 0, 72, 60
1, 215018, Note_off_c, 0, 85, 62
1, 215078, Note_on_c, 0, 71, 79
1, 215081, Note_on_c, 0, 84, 68
1, 215088, Note_on_c, 0, 72, 54
1, 215095, Note_on_c, 0, 54, 42
1, 215097, Note_off_c, 0, 84, 66
1, 215101, Note_off_c, 0, 71, 69
1, 215107, Note_on_c, 0, 78, 29
1, 215107, Note_off_c, 0, 72, 60
1, 215131, Note_off_c, 0, 54, 57
1, 215143, Note_off_c, 0, 78, 46
1, 215173, Note_on_c, 0, 73, 83
1, 215176, Note_on_c, 0, 85, 82
1, 215192, Note_off_c, 0, 73, 71
1, 215194, Note_on_c, 0, 82, 57
1, 215203, Note_on_c, 0, 72, 39
1, 215212, Note_off_c, 0, 82, 62
1, 215226, Note_off_c, 0, 72, 59
1, 215230, Note_off_c, 0, 85, 62
1, 215283, Note_on_c, 0, 57, 66
1, 215284, Note_on_c, 0, 76, 96
1, 215291, Note_on_c, 0, 88, 82
1, 215314, Note_on_c, 0, 87, 47
1, 215319, Note_off_c, 0, 57, 65
1, 215324, Note_off_c, 0, 76, 64
1, 215331, Note_off_c, 0, 88, 59
1, 215336, Note_off_c, 0, 87, 60
1, 215402, Note_on_c, 0, 74, 89
1, 215406, Note_on_c, 0, 86, 76
1, 215428, Note_off_c, 0, 86, 67
1, 215437, Note_on_c, 0, 85, 48
1, 215447, Note_off_c, 0, 74, 59
1, 215460, Note_off_c, 0, 85, 59
1, 215477, Control_c, 0, 64, 99
1, 215492, Control_c, 0, 64, 62
1, 215507, Control_c, 0, 64, 0
1, 215523, Note_on_c, 0, 50, 87
1, 215523, Note_on_c, 0, 85, 100
1, 215525, Note_on_c, 0, 73, 95
1, 215525, Note_on_c, 0, 38, 81
1, 215531, Note_on_c, 0, 78, 88
1, 215536, Control_c, 0, 64, 31
1, 215551, Control_c, 0, 64, 71
1, 215555, Note_off_c, 0, 38, 66
1, 215558, Note_off_c, 0, 50, 61
1, 215563, Note_on_c, 0, 72, 43
1, 215565, Note_on_c, 0, 74, 42
1, 215566, Control_c, 0, 64, 108
1, 215581, Control_c, 0, 64, 127
1, 215584, Note_off_c, 0, 85, 62
1, 215593, Note_off_c, 0, 72, 55
1, 215594, Note_off_c, 0, 74, 56
1, 215596, Note_off_c, 0, 73, 60
1, 215608, Note_off_c, 0, 78, 62
1, 215806, Note_on_c, 0, 71, 90
1, 215813, Note_on_c, 0, 83, 83
1, 215820, Note_on_c, 0, 59, 64
1, 215874, Note_on_c, 0, 54, 6
1, 215881, Note_off_c, 0, 71, 59
1, 215895, Note_off_c, 0, 83, 57
1, 215933, Poly_aftertouch_c, 0, 77, 127
1, 215935, Note_off_c, 0, 54, 0
1, 215949, Note_on_c, 0, 66, 76
1, 215950, Note_on_c, 0, 54, 49
1, 215962, Note_off_c, 0, 59, 59
1, 215972, Note_off_c, 0, 66, 67
1, 215974, Poly_aftertouch_c, 0, 77, 0
1, 215999, Note_off_c, 0, 54, 61
1, 216023, Note_on_c, 0, 70, 86
1, 216023, Note_on_c, 0, 82, 89
1, 216079, Note_off_c, 0, 70, 62
1, 216122, Control_c, 0, 64, 69
1, 216128, Note_off_c, 0, 82, 60
1, 216137, Control_c, 0, 64, 0
1, 216151, Note_on_c, 0, 71, 94
1, 216156, Note_on_c, 0, 77, 88
1, 216157, Note_on_c, 0, 49, 89
1, 216157, Note_on_c, 0, 83, 81
1, 216161, Note_on_c, 0, 37, 79
1, 216173, Note_on_c, 0, 81, 60
1, 216181, Control_c, 0, 64, 33
1, 216191, Note_off_c, 0, 81, 66
1, 216193, Note_off_c, 0, 37, 66
1, 216196, Control_c, 0, 64, 76
1, 216200, Note_off_c, 0, 71, 63
1, 216204, Note_off_c, 0, 49, 62
1, 216211, Control_c, 0, 64, 127
1, 216216, Note_off_c, 0, 83, 62
1, 216223, Note_off_c, 0, 77, 60
1, 216299, Note_on_c, 0, 72, 94
1, 216300, Note_on_c, 0, 84, 88
1, 216335, Note_on_c, 0, 78, 38
1, 216350, Note_off_c, 0, 72, 61
1, 216360, Note_off_c, 0, 84, 60
1, 216363, Note_off_c, 0, 78, 55
1, 216376, Note_on_c, 0, 61, 63
1, 216398, Note_on_c, 0, 56, 46
1, 216454, Note_off_c, 0, 61, 42
1, 216455, Note_on_c, 0, 73, 96
1, 216455, Note_on_c, 0, 85, 96
1, 216517, Note_off_c, 0, 56, 49
1, 216524, Note_off_c, 0, 73, 60
1, 216532, Note_off_c, 0, 85, 62
1, 216537, Poly_aftertouch_c, 0, 80, 127
1, 216556, Note_on_c, 0, 65, 88
1, 216564, Poly_aftertouch_c, 0, 80, 0
1, 216565, Note_on_c, 0, 59, 77
1, 216577, Note_off_c, 0, 65, 69
1, 216608, Note_off_c, 0, 59, 62
1, 216622, Note_on_c, 0, 68, 97
1, 216628, Note_on_c, 0, 80, 87
1, 216687, Note_off_c, 0, 68, 59
1, 216733, Note_off_c, 0, 80, 60
1, 216739, Poly_aftertouch_c, 0, 78, 0
1, 216804, Note_on_c, 0, 73, 14
1, 216812, Control_c, 0, 64, 70
1, 216817, Poly_aftertouch_c, 0, 69, 0
1, 216827, Control_c, 0, 64, 0
1, 216827, Note_off_c, 0, 73, 0
1, 216839, Note_on_c, 0, 42, 90
1, 216841, Note_on_c, 0, 71, 89
1, 216842, Note_on_c, 0, 73, 37
1, 216845, Note_on_c, 0, 78, 89
1, 216847, Note_on_c, 0, 69, 82
1, 216848, Note_on_c, 0, 30, 77
1, 216857, Control_c, 0, 64, 42
1, 216858, Note_on_c, 0, 83, 70
1, 216866, Note_on_c, 0, 29, 69
1, 216871, Control_c, 0, 64, 75
1, 216878, Note_on_c, 0, 37, 32
1, 216879, Note_off_c, 0, 37, 127
1, 216879, Note_on_c, 0, 81, 48
1, 216880, Note_off_c, 0, 69, 59
1, 216886, Control_c, 0, 64, 127
1, 216890, Note_off_c, 0, 83, 58
1, 216896, Note_off_c, 0, 29, 58
1, 216898, Note_off_c, 0, 30, 62
1, 216902, Note_off_c, 0, 81, 38
1, 216913, Note_off_c, 0, 71, 61
1, 216918, Note_off_c, 0, 42, 61
1, 216920, Poly_aftertouch_c, 0, 37, 0
1, 216968, Note_off_c, 0, 78, 55
1, 217099, Note_off_c, 0, 73, 46
1, 217105, Note_on_c, 0, 54, 68
1, 217111, Note_on_c, 0, 69, 97
1, 217112, Note_on_c, 0, 81, 78
1, 217139, Note_on_c, 0, 79, 55
1, 217149, Note_on_c, 0, 60, 51
1, 217160, Note_off_c, 0, 79, 64
1, 217176, Note_off_c, 0, 81, 60
1, 217180, Note_off_c, 0, 54, 57
1, 217185, Note_off_c, 0, 60, 60
1, 217217, Note_off_c, 0, 69, 58
1, 217272, Note_on_c, 0, 66, 90
1, 217280, Note_on_c, 0, 57, 75
1, 217292, Note_off_c, 0, 66, 69
1, 217319, Note_off_c, 0, 57, 60
1, 217338, Note_on_c, 0, 80, 75
1, 217427, Note_on_c, 0, 69, 56
1, 217428, Note_off_c, 0, 80, 50
1, 217433, Note_on_c, 0, 71, 63
1, 217463, Note_off_c, 0, 71, 64
1, 217470, Note_off_c, 0, 69, 62
1, 217492, Control_c, 0, 64, 75
1, 217497, Note_on_c, 0, 80, 60
1, 217506, Note_on_c, 0, 47, 94
1, 217507, Note_on_c, 0, 78, 85
1, 217507, Control_c, 0, 64, 0
1, 217516, Note_on_c, 0, 35, 84
1, 217522, Note_on_c, 0, 69, 82
1, 217522, Note_on_c, 0, 71, 76
1, 217539, Note_off_c, 0, 35, 65
1, 217561, Note_off_c, 0, 47, 65
1, 217570, Note_off_c, 0, 80, 63
1, 217574, Control_c, 0, 64, 62
1, 217590, Control_c, 0, 64, 82
1, 217592, Note_on_c, 0, 77, 22
1, 217604, Control_c, 0, 64, 127
1, 217609, Note_off_c, 0, 71, 43
1, 217613, Note_off_c, 0, 69, 61
1, 217648, Note_off_c, 0, 78, 58
1, 217650, Note_off_c, 0, 77, 39
1, 217753, Note_on_c, 0, 54, 67
1, 217756, Note_on_c, 0, 69, 74
1, 217757, Note_on_c, 0, 77, 81
1, 217765, Note_on_c, 0, 71, 76
1, 217766, Note_on_c, 0, 59, 66
1, 217793, Note_off_c, 0, 71, 62
1, 217808, Note_off_c, 0, 69, 62
1, 217835, Note_off_c, 0, 54, 55
1, 217850, Note_off_c, 0, 77, 58
1, 217884, Note_on_c, 0, 69, 81
1, 217888, Note_on_c, 0, 78, 84
1, 217901, Note_on_c, 0, 71, 68
1, 217921, Note_off_c, 0, 71, 58
1, 217935, Poly_aftertouch_c, 0, 77, 127
1, 217942, Note_off_c, 0, 69, 58
1, 217949, Note_off_c, 0, 59, 51
1, 217978, Poly_aftertouch_c, 0, 77, 0
1, 218017, Note_on_c, 0, 63, 82
1, 218018, Note_on_c, 0, 57, 80
1, 218031, Note_on_c, 0, 80, 87
1, 218032, Note_on_c, 0, 69, 79
1, 218038, Note_off_c, 0, 63, 69
1, 218040, Note_on_c, 0, 71, 79
1, 218046, Note_off_c, 0, 57, 67
1, 218088, Note_on_c, 0, 75, 24
1, 218095, Note_off_c, 0, 78, 52
1, 218098, Note_off_c, 0, 69, 56
1, 218099, Note_off_c, 0, 71, 41
1, 218106, Note_off_c, 0, 80, 60
1, 218131, Note_off_c, 0, 75, 42
1, 218156, Note_on_c, 0, 81, 86
1, 218159, Note_on_c, 0, 71, 76
1, 218165, Note_on_c, 0, 69, 71
1, 218174, Note_on_c, 0, 75, 34
1, 218192, Note_on_c, 0, 76, 58
1, 218201, Note_off_c, 0, 81, 59
1, 218212, Note_off_c, 0, 76, 64
1, 218222, Note_off_c, 0, 71, 54
1, 218228, Note_off_c, 0, 75, 61
1, 218228, Note_off_c, 0, 69, 61
1, 218337, Control_c, 0, 64, 75
1, 218346, Note_on_c, 0, 40, 93
1, 218347, Note_on_c, 0, 71, 86
1, 218348, Note_on_c, 0, 62, 93
1, 218352, Control_c, 0, 64, 0
1, 218354, Note_on_c, 0, 28, 74
1, 218355, Note_on_c, 0, 64, 84
1, 218371, Note_on_c, 0, 68, 68
1, 218380, Note_off_c, 0, 28, 65
1, 218396, Note_off_c, 0, 40, 65
1, 218404, Note_off_c, 0, 62, 60
1, 218413, Control_c, 0, 64, 64
1, 218414, Note_off_c, 0, 68, 52
1, 218414, Note_off_c, 0, 71, 56
1, 218427, Control_c, 0, 64, 81
1, 218428, Note_off_c, 0, 64, 61
1, 218442, Control_c, 0, 64, 127
1, 218555, Note_on_c, 0, 56, 76
1, 218586, Note_on_c, 0, 48, 38
1, 218602, Note_on_c, 0, 47, 14
1, 218622, Note_off_c, 0, 48, 51
1, 218644, Note_off_c, 0, 47, 53
1, 218652, Note_off_c, 0, 56, 58
1, 218720, Note_on_c, 0, 59, 95
1, 218724, Note_on_c, 0, 52, 85
1, 218805, Note_off_c, 0, 59, 59
1, 218839, Note_off_c, 0, 52, 55
1, 218898, Note_on_c, 0, 64, 104
1, 218902, Note_on_c, 0, 62, 92
1, 218905, Note_on_c, 0, 56, 86
1, 218905, Note_on_c, 0, 68, 92
1, 218907, Note_on_c, 0, 73, 88
1, 218936, Note_on_c, 0, 52, 38
1, 218959, Note_off_c, 0, 64, 63
1, 218959, Note_off_c, 0, 62, 59
1, 218961, Note_off_c, 0, 52, 57
1, 218965, Note_on_c, 0, 60, 3
1, 218966, Note_off_c, 0, 60, 127
1, 218985, Note_off_c, 0, 56, 60
1, 218991, Note_off_c, 0, 73, 60
1, 218999, Note_off_c, 0, 68, 59
1, 219001, Poly_aftertouch_c, 0, 60, 0
1, 219075, Note_on_c, 0, 52, 61
1, 219087, Note_on_c, 0, 59, 66
1, 219169, Note_off_c, 0, 59, 59
1, 219173, Poly_aftertouch_c, 0, 57, 127
1, 219176, Note_off_c, 0, 52, 57
1, 219215, Poly_aftertouch_c, 0, 57, 0
1, 219228, Note_on_c, 0, 47, 69
1, 219235, Note_on_c, 0, 64, 81
1, 219242, Note_on_c, 0, 68, 71
1, 219242, Note_on_c, 0, 73, 76
1, 219259, Note_off_c, 0, 47, 65
1, 219296, Note_off_c, 0, 64, 61
1, 219303, Note_off_c, 0, 73, 60
1, 219304, Note_off_c, 0, 68, 60
1, 219384, Control_c, 0, 64, 104
1, 219399, Control_c, 0, 64, 67
1, 219414, Control_c, 0, 64, 0
1, 219426, Note_on_c, 0, 45, 86
1, 219426, Note_on_c, 0, 57, 87
1, 219430, Note_on_c, 0, 33, 75
1, 219433, Note_on_c, 0, 61, 84
1, 219436, Note_on_c, 0, 69, 79
1, 219455, Note_off_c, 0, 45, 63
1, 219458, Control_c, 0, 64, 56
1, 219459, Note_off_c, 0, 33, 63
1, 219467, Note_off_c, 0, 57, 58
1, 219473, Control_c, 0, 64, 69
1, 219488, Control_c, 0, 64, 90
1, 219489, Note_off_c, 0, 61, 64
1, 219502, Control_c, 0, 64, 127
1, 219522, Note_off_c, 0, 69, 61
1, 219619, Note_on_c, 0, 61, 67
1, 219635, Note_on_c, 0, 53, 39
1, 219646, Note_on_c, 0, 52, 35
1, 219672, Note_off_c, 0, 53, 61
1, 219681, Note_off_c, 0, 52, 51
1, 219701, Note_off_c, 0, 61, 46
1, 219792, Note_on_c, 0, 69, 101
1, 219793, Note_on_c, 0, 57, 74
1, 219793, Note_on_c, 0, 64, 79
1, 219805, Note_on_c, 0, 73, 90
1, 219805, Note_on_c, 0, 81, 85
1, 219839, Note_off_c, 0, 69, 62
1, 219857, Note_off_c, 0, 73, 62
1, 219882, Note_off_c, 0, 81, 66
1, 219885, Note_off_c, 0, 64, 58
1, 219928, Note_off_c, 0, 57, 50
1, 219942, Poly_aftertouch_c, 0, 61, 127
1, 220011, Poly_aftertouch_c, 0, 61, 0
1, 220026, Note_on_c, 0, 61, 58
1, 220028, Note_on_c, 0, 81, 102
1, 220029, Note_on_c, 0, 69, 91
1, 220030, Note_on_c, 0, 93, 105
1, 220035, Note_on_c, 0, 85, 94
1, 220056, Note_on_c, 0, 58, 54
1, 220068, Note_on_c, 0, 91, 34
1, 220069, Note_off_c, 0, 91, 127
1, 220079, Note_off_c, 0, 69, 60
1, 220083, Note_off_c, 0, 58, 53
1, 220098, Note_off_c, 0, 81, 60
1, 220115, Note_off_c, 0, 93, 55
1, 220130, Note_off_c, 0, 61, 59
1, 220145, Note_off_c, 0, 85, 58
1, 220213, Note_on_c, 0, 57, 76
1, 220214, Note_on_c, 0, 64, 84
1, 220338, Note_off_c, 0, 64, 57
1, 220366, Note_on_c, 0, 80, 96
1, 220369, Note_off_c, 0, 57, 38
1, 220372, Note_on_c, 0, 92, 91
1, 220374, Note_on_c, 0, 52, 75
1, 220377, Note_on_c, 0, 85, 89
1, 220379, Note_on_c, 0, 61, 50
1, 220398, Note_off_c, 0, 52, 65
1, 220401, Note_off_c, 0, 61, 64
1, 220453, Note_off_c, 0, 80, 60
1, 220453, Note_off_c, 0, 92, 62
1, 220526, Note_off_c, 0, 85, 60
1, 220555, Control_c, 0, 64, 75
1, 220570, Control_c, 0, 64, 0
1, 220575, Note_on_c, 0, 78, 103
1, 220576, Note_on_c, 0, 85, 77
1, 220582, Note_on_c, 0, 90, 87
1, 220586, Note_on_c, 0, 47, 92
1, 220595, Note_on_c, 0, 35, 72
1, 220609, Note_on_c, 0, 36, 58
1, 220614, Note_off_c, 0, 47, 65
1, 220619, Note_off_c, 0, 35, 62
1, 220629, Control_c, 0, 64, 62
1, 220636, Note_off_c, 0, 36, 57
1, 220640, Note_off_c, 0, 78, 63
1, 220644, Control_c, 0, 64, 75
1, 220646, Note_on_c, 0, 88, 32
1, 220647, Note_off_c, 0, 88, 127
1, 220658, Control_c, 0, 64, 117
1, 220673, Control_c, 0, 64, 127
1, 220717, Note_off_c, 0, 85, 58
1, 220780, Note_on_c, 0, 59, 68
1, 220783, Note_on_c, 0, 54, 66
1, 220794, Note_off_c, 0, 90, 51
1, 220831, Note_off_c, 0, 54, 53
1, 220860, Note_off_c, 0, 59, 59
1, 220925, Note_on_c, 0, 63, 99
1, 220929, Note_on_c, 0, 57, 80
1, 220953, Note_on_c, 0, 58, 35
1, 220987, Note_off_c, 0, 58, 32
1, 221038, Note_off_c, 0, 63, 58
1, 221075, Note_off_c, 0, 57, 58
1, 221123, Note_on_c, 0, 66, 98
1, 221123, Note_on_c, 0, 83, 96
1, 221123, Note_on_c, 0, 92, 94
1, 221127, Note_on_c, 0, 87, 92
1, 221133, Note_on_c, 0, 59, 82
1, 221147, Note_on_c, 0, 57, 52
1, 221179, Note_on_c, 0, 56, 33
1, 221214, Note_off_c, 0, 83, 59
1, 221221, Note_off_c, 0, 56, 46
1, 221228, Note_off_c, 0, 66, 59
1, 221230, Note_off_c, 0, 57, 49
1, 221244, Note_off_c, 0, 59, 58
1, 221246, Note_off_c, 0, 92, 48
1, 221272, Note_off_c, 0, 87, 57
1, 221341, Note_on_c, 0, 63, 80
1, 221366, Note_on_c, 0, 57, 55
1, 221430, Note_off_c, 0, 57, 42
1, 221443, Note_off_c, 0, 63, 58
1, 221492, Note_on_c, 0, 54, 76
1, 221495, Note_on_c, 0, 81, 90
1, 221498, Note_on_c, 0, 59, 60
1, 221500, Note_on_c, 0, 87, 81
1, 221500, Note_on_c, 0, 92, 78
1, 221518, Note_off_c, 0, 59, 61
1, 221518, Note_off_c, 0, 92, 71
1, 221525, Note_off_c, 0, 54, 62
1, 221545, Note_off_c, 0, 81, 54
1, 221549, Note_off_c, 0, 87, 62
1, 221577, Poly_aftertouch_c, 0, 89, 127
1, 221601, Poly_aftertouch_c, 0, 89, 0
1, 221659, Control_c, 0, 64, 81
1, 221674, Control_c, 0, 64, 0
1, 221685, Note_on_c, 0, 76, 100
1, 221690, Note_on_c, 0, 52, 93
1, 221690, Note_on_c, 0, 88, 88
1, 221692, Note_on_c, 0, 80, 86
1, 221694, Note_on_c, 0, 40, 85
1, 221725, Note_off_c, 0, 40, 68
1, 221734, Control_c, 0, 64, 68
1, 221737, Note_off_c, 0, 52, 60
1, 221749, Control_c, 0, 64, 97
1, 221764, Control_c, 0, 64, 127
1, 221773, Note_off_c, 0, 76, 64
1, 221817, Note_off_c, 0, 80, 60
1, 221819, Note_off_c, 0, 88, 58
1, 221886, Note_on_c, 0, 59, 74
1, 221891, Note_on_c, 0, 52, 66
1, 221963, Note_off_c, 0, 52, 51
1, 221986, Note_off_c, 0, 59, 59
1, 222072, Note_on_c, 0, 64, 85
1, 222076, Note_on_c, 0, 56, 83
1, 222153, Note_off_c, 0, 64, 59
1, 222258, Note_off_c, 0, 56, 0
1, 222264, Note_on_c, 0, 88, 104
1, 222264, Note_on_c, 0, 59, 70
1, 222266, Note_on_c, 0, 68, 92
1, 222266, Note_on_c, 0, 100, 105
1, 222273, Note_on_c, 0, 56, 43
1, 222295, Note_on_c, 0, 92, 56
1, 222297, Note_on_c, 0, 98, 52
1, 222314, Note_off_c, 0, 92, 64
1, 222318, Note_off_c, 0, 98, 60
1, 222344, Note_off_c, 0, 68, 64
1, 222357, Note_off_c, 0, 56, 52
1, 222396, Note_off_c, 0, 59, 53
1, 222483, Note_on_c, 0, 64, 72
1, 222486, Note_off_c, 0, 88, 47
1, 222514, Note_on_c, 0, 56, 50
1, 222530, Note_off_c, 0, 100, 48
1, 222555, Note_off_c, 0, 64, 60
1, 222607, Note_on_c, 0, 59, 61
1, 222616, Note_off_c, 0, 56, 33
1, 222629, Note_on_c, 0, 52, 62
1, 222637, Note_off_c, 0, 59, 64
1, 222660, Note_off_c, 0, 52, 65
1, 222680, Note_on_c, 0, 88, 84
1, 222682, Note_on_c, 0, 100, 77
1, 222700, Note_off_c, 0, 88, 72
1, 222703, Note_off_c, 0, 100, 72
1, 222705, Control_c, 0, 64, 96
1, 222719, Control_c, 0, 64, 56
1, 222734, Control_c, 0, 64, 0
1, 222748, Note_on_c, 0, 52, 92
1, 222749, Note_on_c, 0, 88, 101
1, 222762, Note_on_c, 0, 100, 96
1, 222764, Control_c, 0, 64, 71
1, 222766, Note_on_c, 0, 40, 69
1, 222777, Note_off_c, 0, 52, 64
1, 222779, Control_c, 0, 64, 127
1, 222784, Note_off_c, 0, 100, 62
1, 222790, Note_off_c, 0, 40, 60
1, 222816, Note_off_c, 0, 88, 63
1, 222817, Note_on_c, 0, 49, 23
1, 222837, Note_off_c, 0, 49, 0
1, 222846, Poly_aftertouch_c, 0, 41, 127
1, 222859, Poly_aftertouch_c, 0, 49, 0
1, 222882, Poly_aftertouch_c, 0, 41, 0
1, 223026, Note_on_c, 0, 52, 9
1, 223052, Note_off_c, 0, 52, 56
1, 223148, Note_on_c, 0, 61, 81
1, 223195, Note_on_c, 0, 54, 43
1, 223244, Note_off_c, 0, 54, 59
1, 223268, Note_off_c, 0, 61, 60
1, 223329, Note_on_c, 0, 66, 102
1, 223336, Note_on_c, 0, 64, 91
1, 223336, Note_on_c, 0, 78, 98
1, 223346, Note_on_c, 0, 58, 87
1, 223421, Note_off_c, 0, 58, 59
1, 223437, Note_off_c, 0, 64, 59
1, 223528, Note_on_c, 0, 61, 65
1, 223533, Note_on_c, 0, 54, 53
1, 223603, Note_off_c, 0, 54, 49
1, 223609, Note_off_c, 0, 61, 56
1, 223654, Note_off_c, 0, 78, 54
1, 223671, Note_on_c, 0, 52, 63
1, 223676, Note_on_c, 0, 58, 55
1, 223698, Note_off_c, 0, 58, 62
1, 223699, Note_off_c, 0, 66, 34
1, 223705, Note_off_c, 0, 52, 61
1, 223865, Note_on_c, 0, 40, 85
1, 223865, Note_on_c, 0, 41, 88
1, 223880, Note_on_c, 0, 28, 61
1, 223891, Note_off_c, 0, 41, 65
1, 223892, Note_off_c, 0, 40, 66
1, 223898, Note_on_c, 0, 29, 34
1, 223910, Note_off_c, 0, 28, 56
1, 223941, Note_off_c, 0, 29, 49
1, 223978, Note_on_c, 0, 66, 61
1, 224039, Note_on_c, 0, 78, 63
1, 224053, Note_off_c, 0, 66, 58
1, 224100, Note_off_c, 0, 78, 58
1, 224114, Note_on_c, 0, 79, 69
1, 224148, Note_on_c, 0, 58, 64
1, 224151, Note_on_c, 0, 78, 65
1, 224168, Note_off_c, 0, 79, 64
1, 224178, Note_off_c, 0, 58, 62
1, 224204, Note_off_c, 0, 78, 62
1, 224226, Poly_aftertouch_c, 0, 53, 127
1, 224255, Poly_aftertouch_c, 0, 53, 0
1, 224318, Note_on_c, 0, 65, 76
1, 224324, Note_on_c, 0, 77, 66
1, 224332, Note_on_c, 0, 64, 73
1, 224341, Note_off_c, 0, 65, 67
1, 224348, Note_off_c, 0, 77, 62
1, 224351, Note_on_c, 0, 58, 39
1, 224367, Note_off_c, 0, 64, 54
1, 224373, Note_off_c, 0, 58, 59
1, 224404, Note_on_c, 0, 78, 86
1, 224407, Note_on_c, 0, 66, 84
1, 224425, Note_off_c, 0, 78, 67
1, 224426, Note_off_c, 0, 66, 67
1, 224510, Note_on_c, 0, 80, 81
1, 224515, Note_on_c, 0, 68, 67
1, 224521, Note_on_c, 0, 61, 67
1, 224530, Note_off_c, 0, 80, 69
1, 224533, Note_on_c, 0, 54, 55
1, 224535, Note_off_c, 0, 68, 65
1, 224600, Note_on_c, 0, 70, 71
1, 224601, Note_on_c, 0, 82, 80
1, 224628, Note_off_c, 0, 70, 65
1, 224632, Note_off_c, 0, 82, 57
1, 224646, Note_off_c, 0, 61, 51
1, 224667, Note_off_c, 0, 54, 55
1, 224701, Note_on_c, 0, 71, 79
1, 224703, Note_on_c, 0, 83, 73
1, 224721, Note_on_c, 0, 58, 66
1, 224724, Note_off_c, 0, 71, 64
1, 224724, Note_off_c, 0, 83, 69
1, 224730, Note_on_c, 0, 52, 62
1, 224747, Note_off_c, 0, 58, 65
1, 224760, Note_off_c, 0, 52, 64
1, 224786, Note_on_c, 0, 73, 87
1, 224789, Note_on_c, 0, 85, 83
1, 224810, Note_off_c, 0, 73, 59
1, 224839, Note_off_c, 0, 85, 59
1, 224885, Note_on_c, 0, 74, 86
1, 224886, Note_on_c, 0, 86, 82
1, 224912, Note_off_c, 0, 74, 58
1, 224931, Note_off_c, 0, 86, 63
1, 224967, Note_on_c, 0, 76, 71
1, 224980, Note_on_c, 0, 88, 83
1, 225007, Note_off_c, 0, 88, 65
1, 225011, Control_c, 0, 64, 76
1, 225013, Note_off_c, 0, 76, 65
1, 225026, Control_c, 0, 64, 0
1, 225072, Note_on_c, 0, 52, 98
1, 225076, Note_on_c, 0, 78, 100
1, 225078, Control_c, 0, 64, 50
1, 225085, Note_on_c, 0, 90, 97
1, 225086, Note_on_c, 0, 40, 78
1, 225093, Control_c, 0, 64, 127
1, 225109, Note_off_c, 0, 40, 69
1, 225112, Note_off_c, 0, 52, 63
1, 225113, Note_on_c, 0, 77, 51
1, 225114, Note_off_c, 0, 77, 127
1, 225123, Note_on_c, 0, 85, 12
1, 225123, Note_off_c, 0, 78, 64
1, 225127, Note_on_c, 0, 44, 13
1, 225130, Note_off_c, 0, 90, 63
1, 225153, Note_off_c, 0, 85, 49
1, 225183, Note_off_c, 0, 44, 46
1, 225280, Note_on_c, 0, 60, 62
1, 225292, Note_on_c, 0, 52, 52
1, 225327, Note_off_c, 0, 52, 61
1, 225378, Note_off_c, 0, 60, 59
1, 225450, Note_on_c, 0, 63, 93
1, 225454, Note_on_c, 0, 56, 78
1, 225532, Note_off_c, 0, 63, 58
1, 225568, Note_off_c, 0, 56, 55
1, 225633, Note_on_c, 0, 68, 100
1, 225634, Note_on_c, 0, 66, 89
1, 225636, Note_on_c, 0, 80, 98
1, 225641, Note_on_c, 0, 60, 78
1, 225711, Note_off_c, 0, 66, 59
1, 225726, Note_off_c, 0, 60, 58
1, 225761, Note_off_c, 0, 68, 56
1, 225805, Note_off_c, 0, 80, 60
1, 225822, Note_on_c, 0, 63, 71
1, 225834, Note_on_c, 0, 56, 56
1, 225874, Note_off_c, 0, 63, 56
1, 225886, Note_off_c, 0, 56, 49
1, 225958, Note_on_c, 0, 52, 68
1, 225967, Note_on_c, 0, 80, 85
1, 225976, Note_on_c, 0, 68, 69
1, 225988, Note_off_c, 0, 52, 64
1, 226010, Note_off_c, 0, 68, 53
1, 226042, Poly_aftertouch_c, 0, 60, 0
1, 226078, Control_c, 0, 64, 80
1, 226093, Control_c, 0, 64, 37
1, 226101, Note_off_c, 0, 80, 50
1, 226108, Control_c, 0, 64, 0
1, 226129, Note_on_c, 0, 41, 88
1, 226137, Note_on_c, 0, 68, 86
1, 226138, Control_c, 0, 64, 51
1, 226151, Note_on_c, 0, 40, 58
1, 226152, Note_off_c, 0, 40, 127
1, 226152, Control_c, 0, 64, 72
1, 226155, Note_off_c, 0, 41, 68
1, 226159, Note_on_c, 0, 28, 41
1, 226160, Note_off_c, 0, 28, 127
1, 226163, Note_on_c, 0, 29, 35
1, 226167, Control_c, 0, 64, 102
1, 226182, Control_c, 0, 64, 127
1, 226199, Poly_aftertouch_c, 0, 28, 0
1, 226206, Note_off_c, 0, 29, 50
1, 226230, Note_on_c, 0, 80, 78
1, 226265, Note_off_c, 0, 68, 57
1, 226317, Note_off_c, 0, 80, 61
1, 226332, Note_on_c, 0, 81, 56
1, 226334, Note_on_c, 0, 60, 70
1, 226389, Note_on_c, 0, 68, 74
1, 226402, Note_off_c, 0, 81, 64
1, 226403, Note_on_c, 0, 80, 67
1, 226410, Poly_aftertouch_c, 0, 52, 127
1, 226414, Note_off_c, 0, 68, 61
1, 226423, Note_off_c, 0, 60, 57
1, 226432, Note_off_c, 0, 80, 65
1, 226438, Poly_aftertouch_c, 0, 52, 0
1, 226506, Note_on_c, 0, 67, 88
1, 226515, Note_on_c, 0, 63, 64
1, 226520, Note_on_c, 0, 56, 59
1, 226526, Note_off_c, 0, 67, 70
1, 226529, Note_on_c, 0, 79, 53
1, 226533, Note_off_c, 0, 63, 64
1, 226558, Note_off_c, 0, 79, 63
1, 226564, Note_off_c, 0, 56, 61
1, 226605, Note_on_c, 0, 68, 88
1, 226605, Note_on_c, 0, 80, 84
1, 226623, Note_off_c, 0, 68, 66
1, 226627, Note_off_c, 0, 80, 63
1, 226703, Note_on_c, 0, 82, 86
1, 226705, Note_on_c, 0, 70, 77
1, 226709, Note_on_c, 0, 66, 70
1, 226724, Note_on_c, 0, 60, 46
1, 226730, Note_off_c, 0, 70, 68
1, 226740, Note_off_c, 0, 66, 59
1, 226749, Note_off_c, 0, 82, 42
1, 226761, Note_off_c, 0, 60, 58
1, 226789, Note_on_c, 0, 72, 87
1, 226795, Note_on_c, 0, 84, 71
1, 226816, Note_off_c, 0, 72, 63
1, 226825, Note_off_c, 0, 84, 62
1, 226897, Note_on_c, 0, 63, 73
1, 226899, Note_on_c, 0, 73, 69
1, 226900, Note_on_c, 0, 85, 68
1, 226911, Note_on_c, 0, 56, 59
1, 226927, Note_off_c, 0, 73, 64
1, 226928, Note_off_c, 0, 85, 65
1, 226975, Note_on_c, 0, 87, 86
1, 226976, Note_on_c, 0, 75, 74
1, 227000, Note_off_c, 0, 75, 66
1, 227004, Note_off_c, 0, 63, 59
1, 227019, Note_off_c, 0, 87, 58
1, 227055, Poly_aftertouch_c, 0, 85, 127
1, 227076, Note_on_c, 0, 88, 85
1, 227077, Note_on_c, 0, 52, 69
1, 227079, Poly_aftertouch_c, 0, 85, 0
1, 227079, Note_on_c, 0, 76, 83
1, 227081, Note_on_c, 0, 60, 54
1, 227105, Note_off_c, 0, 76, 65
1, 227107, Note_off_c, 0, 56, 26
1, 227108, Note_off_c, 0, 60, 53
1, 227112, Note_on_c, 0, 77, 44
1, 227113, Note_off_c, 0, 77, 127
1, 227113, Note_off_c, 0, 52, 63
1, 227117, Note_off_c, 0, 88, 63
1, 227175, Note_on_c, 0, 78, 86
1, 227183, Note_on_c, 0, 90, 90
1, 227184, Control_c, 0, 64, 111
1, 227198, Note_off_c, 0, 78, 68
1, 227198, Control_c, 0, 64, 63
1, 227201, Note_off_c, 0, 90, 71
1, 227213, Control_c, 0, 64, 0
1, 227257, Control_c, 0, 64, 62
1, 227259, Note_on_c, 0, 52, 98
1, 227262, Note_on_c, 0, 80, 92
1, 227265, Note_on_c, 0, 92, 100
1, 227272, Note_on_c, 0, 40, 77
1, 227272, Control_c, 0, 64, 127
1, 227291, Note_off_c, 0, 52, 67
1, 227308, Note_off_c, 0, 40, 62
1, 227326, Note_off_c, 0, 92, 64
1, 227327, Note_off_c, 0, 80, 61
1, 227481, Note_on_c, 0, 61, 51
1, 227513, Note_off_c, 0, 61, 49
1, 227600, Note_on_c, 0, 64, 64
1, 227613, Note_on_c, 0, 56, 68
1, 227628, Note_off_c, 0, 64, 65
1, 227644, Note_off_c, 0, 56, 62
1, 227737, Control_c, 0, 64, 105
1, 227752, Control_c, 0, 64, 63
1, 227767, Control_c, 0, 64, 0
1, 227780, Note_on_c, 0, 68, 99
1, 227783, Note_on_c, 0, 80, 98
1, 227785, Note_on_c, 0, 51, 90
1, 227797, Note_on_c, 0, 39, 74
1, 227810, Note_off_c, 0, 51, 63
1, 227812, Control_c, 0, 64, 62
1, 227826, Note_off_c, 0, 39, 64
1, 227827, Control_c, 0, 64, 89
1, 227841, Control_c, 0, 64, 127
1, 227892, Note_off_c, 0, 68, 56
1, 227926, Note_off_c, 0, 80, 59
1, 227976, Note_on_c, 0, 60, 72
1, 227979, Note_on_c, 0, 51, 51
1, 228017, Note_off_c, 0, 51, 61
1, 228092, Note_on_c, 0, 68, 81
1, 228095, Note_on_c, 0, 63, 63
1, 228098, Note_off_c, 0, 60, 60
1, 228105, Note_on_c, 0, 80, 61
1, 228109, Note_on_c, 0, 56, 60
1, 228120, Note_off_c, 0, 63, 62
1, 228138, Note_off_c, 0, 56, 63
1, 228143, Note_off_c, 0, 68, 39
1, 228178, Note_off_c, 0, 80, 60
1, 228250, Control_c, 0, 64, 108
1, 228256, Note_on_c, 0, 82, 70
1, 228264, Control_c, 0, 64, 65
1, 228267, Note_on_c, 0, 80, 83
1, 228269, Note_on_c, 0, 68, 76
1, 228279, Control_c, 0, 64, 0
1, 228286, Note_on_c, 0, 49, 94
1, 228296, Note_on_c, 0, 37, 75
1, 228308, Note_on_c, 0, 75, 36
1, 228309, Control_c, 0, 64, 12
1, 228310, Note_off_c, 0, 82, 62
1, 228313, Note_on_c, 0, 70, 30
1, 228314, Note_off_c, 0, 70, 127
1, 228322, Note_off_c, 0, 49, 56
1, 228324, Control_c, 0, 64, 69
1, 228325, Note_off_c, 0, 37, 64
1, 228337, Note_off_c, 0, 75, 54
1, 228337, Note_off_c, 0, 68, 61
1, 228338, Control_c, 0, 64, 92
1, 228342, Note_off_c, 0, 80, 60
1, 228353, Control_c, 0, 64, 127
1, 228399, Poly_aftertouch_c, 0, 39, 0
1, 228501, Note_on_c, 0, 49, 67
1, 228502, Note_on_c, 0, 79, 70
1, 228516, Note_on_c, 0, 65, 60
1, 228520, Note_on_c, 0, 67, 46
1, 228527, Note_off_c, 0, 79, 62
1, 228530, Note_on_c, 0, 56, 46
1, 228536, Note_off_c, 0, 65, 62
1, 228547, Note_off_c, 0, 49, 48
1, 228547, Note_off_c, 0, 67, 57
1, 228614, Note_on_c, 0, 68, 82
1, 228616, Note_on_c, 0, 80, 79
1, 228637, Note_off_c, 0, 80, 68
1, 228638, Note_off_c, 0, 68, 68
1, 228648, Note_off_c, 0, 56, 55
1, 228719, Note_on_c, 0, 52, 60
1, 228725, Note_on_c, 0, 82, 87
1, 228727, Note_on_c, 0, 61, 36
1, 228731, Note_on_c, 0, 70, 76
1, 228755, Note_off_c, 0, 52, 63
1, 228755, Note_off_c, 0, 70, 68
1, 228761, Note_off_c, 0, 61, 54
1, 228775, Note_off_c, 0, 82, 57
1, 228838, Note_on_c, 0, 72, 86
1, 228841, Note_on_c, 0, 84, 81
1, 228886, Note_off_c, 0, 72, 60
1, 228893, Note_off_c, 0, 84, 59
1, 228909, Control_c, 0, 64, 81
1, 228924, Control_c, 0, 64, 44
1, 228939, Control_c, 0, 64, 0
1, 228954, Note_on_c, 0, 44, 88
1, 228961, Note_on_c, 0, 32, 79
1, 228969, Control_c, 0, 64, 28
1, 228969, Note_on_c, 0, 85, 98
1, 228970, Note_on_c, 0, 73, 94
1, 228980, Note_off_c, 0, 44, 69
1, 228983, Control_c, 0, 64, 69
1, 228987, Note_off_c, 0, 32, 63
1, 228998, Control_c, 0, 64, 106
1, 229006, Note_off_c, 0, 73, 59
1, 229013, Control_c, 0, 64, 127
1, 229013, Note_off_c, 0, 85, 61
1, 229082, Note_on_c, 0, 75, 68
1, 229088, Note_on_c, 0, 87, 84
1, 229134, Note_off_c, 0, 75, 60
1, 229142, Note_off_c, 0, 87, 61
1, 229215, Note_on_c, 0, 77, 89
1, 229219, Note_on_c, 0, 89, 89
1, 229237, Note_on_c, 0, 56, 41
1, 229240, Note_off_c, 0, 77, 59
1, 229242, Note_on_c, 0, 47, 23
1, 229245, Note_off_c, 0, 89, 61
1, 229281, Note_off_c, 0, 47, 47
1, 229316, Poly_aftertouch_c, 0, 54, 0
1, 229327, Note_on_c, 0, 79, 90
1, 229332, Note_on_c, 0, 91, 81
1, 229374, Note_off_c, 0, 79, 65
1, 229374, Note_off_c, 0, 91, 61
1, 229381, Note_on_c, 0, 85, 10
1, 229425, Note_off_c, 0, 85, 40
1, 229451, Note_off_c, 0, 56, 30
1, 229452, Note_on_c, 0, 51, 76
1, 229460, Note_on_c, 0, 92, 92
1, 229461, Note_on_c, 0, 59, 48
1, 229462, Note_on_c, 0, 80, 84
1, 229481, Note_off_c, 0, 51, 65
1, 229485, Note_off_c, 0, 59, 57
1, 229489, Note_off_c, 0, 80, 61
1, 229503, Note_on_c, 0, 82, 28
1, 229507, Note_off_c, 0, 92, 62
1, 229544, Note_off_c, 0, 82, 50
1, 229583, Note_on_c, 0, 94, 94
1, 229584, Note_on_c, 0, 82, 87
1, 229653, Note_off_c, 0, 82, 61
1, 229672, Note_off_c, 0, 94, 62
1, 229674, Control_c, 0, 64, 83
1, 229689, Control_c, 0, 64, 0
1, 229708, Note_on_c, 0, 41, 92
1, 229714, Note_on_c, 0, 29, 90
1, 229720, Note_on_c, 0, 83, 97
1, 229728, Note_on_c, 0, 95, 92
1, 229733, Control_c, 0, 64, 59
1, 229747, Note_off_c, 0, 29, 64
1, 229748, Control_c, 0, 64, 79
1, 229759, Note_off_c, 0, 41, 60
1, 229762, Control_c, 0, 64, 127
1, 229775, Note_on_c, 0, 93, 4
1, 229776, Note_off_c, 0, 93, 127
1, 229776, Note_off_c, 0, 95, 60
1, 229800, Poly_aftertouch_c, 0, 37, 127
1, 229837, Poly_aftertouch_c, 0, 37, 0
1, 229931, Note_off_c, 0, 83, 32
1, 229932, Note_on_c, 0, 90, 4
1, 229982, Note_off_c, 0, 90, 36
1, 229986, Note_on_c, 0, 95, 75
1, 229999, Note_on_c, 0, 92, 72
1, 230068, Note_on_c, 0, 89, 78
1, 230108, Note_off_c, 0, 95, 53
1, 230149, Note_off_c, 0, 92, 62
1, 230151, Note_on_c, 0, 87, 81
1, 230173, Note_on_c, 0, 53, 56
1, 230180, Note_off_c, 0, 89, 63
1, 230217, Note_on_c, 0, 59, 60
1, 230227, Note_on_c, 0, 83, 75
1, 230232, Note_off_c, 0, 87, 62
1, 230236, Note_off_c, 0, 53, 60
1, 230263, Note_off_c, 0, 83, 59
1, 230271, Note_on_c, 0, 63, 69
1, 230337, Note_on_c, 0, 68, 92
1, 230343, Note_on_c, 0, 83, 63
1, 230361, Note_off_c, 0, 59, 0
1, 230374, Note_on_c, 0, 79, 61
1, 230390, Note_off_c, 0, 63, 56
1, 230397, Poly_aftertouch_c, 0, 59, 127
1, 230427, Note_on_c, 0, 77, 60
1, 230441, Note_off_c, 0, 83, 55
1, 230447, Note_on_c, 0, 56, 3
1, 230474, Note_off_c, 0, 79, 55
1, 230489, Note_off_c, 0, 68, 59
1, 230493, Note_on_c, 0, 75, 77
1, 230513, Note_off_c, 0, 77, 59
1, 230531, Poly_aftertouch_c, 0, 59, 0
1, 230557, Note_off_c, 0, 75, 61
1, 230571, Note_off_c, 0, 56, 23
1, 230594, Note_on_c, 0, 71, 52
1, 230616, Note_off_c, 0, 71, 59
1, 230693, Note_on_c, 0, 68, 63
1, 230705, Note_on_c, 0, 71, 50
1, 230745, Note_on_c, 0, 65, 72
1, 230755, Note_off_c, 0, 71, 56
1, 230795, Note_off_c, 0, 68, 56
1, 230822, Note_on_c, 0, 63, 74
1, 230831, Note_off_c, 0, 65, 58
1, 230857, Note_off_c, 0, 63, 60
1, 230882, Control_c, 0, 67, 9
1, 230897, Control_c, 0, 67, 12
1, 230897, Note_on_c, 0, 59, 66
1, 230911, Control_c, 0, 67, 18
1, 230926, Control_c, 0, 67, 24
1, 230927, Note_off_c, 0, 59, 64
1, 230941, Control_c, 0, 67, 33
1, 230956, Control_c, 0, 67, 44
1, 230971, Control_c, 0, 67, 56
1, 230985, Control_c, 0, 67, 73
1, 230999, Note_on_c, 0, 59, 59
1, 231000, Control_c, 0, 67, 88
1, 231015, Control_c, 0, 67, 103
1, 231037, Control_c, 0, 67, 120
1, 231052, Note_on_c, 0, 55, 45
1, 231052, Control_c, 0, 67, 127
1, 231073, Note_on_c, 0, 53, 72
1, 231074, Note_off_c, 0, 59, 54
1, 231098, Note_off_c, 0, 55, 56
1, 231162, Note_on_c, 0, 51, 65
1, 231164, Note_off_c, 0, 53, 60
1, 231204, Note_off_c, 0, 51, 60
1, 231234, Note_on_c, 0, 48, 66
1, 231285, Note_off_c, 0, 48, 58
1, 231344, Note_on_c, 0, 34, 47
1, 231377, Note_on_c, 0, 58, 55
1, 231383, Note_off_c, 0, 34, 60
1, 231423, Control_c, 0, 64, 91
1, 231434, Note_off_c, 0, 58, 59
1, 231438, Control_c, 0, 64, 74
1, 231449, Note_on_c, 0, 56, 61
1, 231453, Control_c, 0, 64, 60
1, 231468, Control_c, 0, 64, 0
1, 231503, Note_off_c, 0, 56, 56
1, 231511, Note_on_c, 0, 50, 49
1, 231524, Note_on_c, 0, 59, 55
1, 231540, Note_off_c, 0, 50, 60
1, 231577, Note_off_c, 0, 59, 57
1, 231595, Note_on_c, 0, 53, 50
1, 231632, Note_off_c, 0, 53, 57
1, 231663, Note_on_c, 0, 58, 46
1, 231717, Note_off_c, 0, 58, 60
1, 231738, Note_on_c, 0, 56, 54
1, 231795, Note_off_c, 0, 56, 57
1, 231815, Note_on_c, 0, 59, 59
1, 231863, Note_off_c, 0, 59, 53
1, 231886, Poly_aftertouch_c, 0, 34, 0
1, 231891, Note_on_c, 0, 53, 51
1, 231934, Note_off_c, 0, 53, 60
1, 231953, Note_on_c, 0, 50, 35
1, 231957, Note_on_c, 0, 58, 49
1, 231983, Note_off_c, 0, 50, 47
1, 232008, Note_off_c, 0, 58, 60
1, 232029, Note_on_c, 0, 56, 58
1, 232078, Note_off_c, 0, 56, 56
1, 232100, Note_on_c, 0, 59, 54
1, 232146, Note_off_c, 0, 59, 58
1, 232170, Note_on_c, 0, 53, 48
1, 232201, Note_off_c, 0, 53, 53
1, 232233, Note_on_c, 0, 34, 38
1, 232243, Note_on_c, 0, 58, 53
1, 232265, Note_off_c, 0, 34, 53
1, 232296, Note_off_c, 0, 58, 58
1, 232323, Note_on_c, 0, 56, 55
1, 232367, Note_off_c, 0, 56, 61
1, 232370, Note_on_c, 0, 50, 36
1, 232393, Note_on_c, 0, 59, 55
1, 232401, Note_off_c, 0, 50, 45
1, 232435, Note_off_c, 0, 59, 60
1, 232468, Control_c, 0, 64, 12
1, 232468, Note_on_c, 0, 53, 48
1, 232482, Control_c, 0, 64, 17
1, 232497, Control_c, 0, 64, 20
1, 232498, Note_off_c, 0, 53, 52
1, 232512, Control_c, 0, 64, 21
1, 232544, Note_on_c, 0, 58, 46
1, 232549, Control_c, 0, 64, 22
1, 232563, Control_c, 0, 64, 23
1, 232578, Control_c, 0, 64, 24
1, 232593, Note_off_c, 0, 58, 62
1, 232593, Control_c, 0, 64, 25
1, 232608, Control_c, 0, 64, 27
1, 232613, Note_on_c, 0, 56, 54
1, 232623, Control_c, 0, 64, 28
1, 232643, Note_on_c, 0, 34, 45
1, 232653, Control_c, 0, 64, 29
1, 232657, Note_off_c, 0, 56, 61
1, 232671, Note_on_c, 0, 59, 57
1, 232682, Control_c, 0, 64, 30
1, 232686, Note_off_c, 0, 34, 63
1, 232712, Control_c, 0, 64, 31
1, 232718, Note_off_c, 0, 59, 55
1, 232727, Control_c, 0, 64, 31
1, 232743, Note_on_c, 0, 53, 53
1, 232757, Control_c, 0, 64, 32
1, 232772, Control_c, 0, 64, 32
1, 232787, Control_c, 0, 64, 33
1, 232794, Note_off_c, 0, 53, 56
1, 232808, Note_on_c, 0, 50, 45
1, 232813, Note_on_c, 0, 58, 50
1, 232817, Control_c, 0, 64, 34
1, 232832, Control_c, 0, 64, 34
1, 232834, Note_off_c, 0, 50, 57
1, 232847, Control_c, 0, 64, 35
1, 232861, Control_c, 0, 64, 35
1, 232868, Note_off_c, 0, 58, 59
1, 232876, Control_c, 0, 64, 36
1, 232888, Note_on_c, 0, 56, 56
1, 232891, Control_c, 0, 64, 37
1, 232905, Control_c, 0, 64, 37
1, 232920, Control_c, 0, 64, 38
1, 232935, Note_off_c, 0, 56, 58
1, 232935, Control_c, 0, 64, 39
1, 232949, Note_on_c, 0, 59, 55
1, 232950, Control_c, 0, 64, 39
1, 232965, Control_c, 0, 64, 40
1, 232994, Control_c, 0, 64, 41
1, 232999, Note_off_c, 0, 59, 57
1, 233005, Note_on_c, 0, 53, 55
1, 233009, Control_c, 0, 64, 42
1, 233024, Control_c, 0, 64, 45
1, 233039, Control_c, 0, 64, 53
1, 233053, Control_c, 0, 64, 62
1, 233068, Control_c, 0, 64, 66
1, 233070, Note_on_c, 0, 50, 31
1, 233076, Note_off_c, 0, 53, 57
1, 233082, Note_on_c, 0, 58, 57
1, 233083, Control_c, 0, 64, 70
1, 233098, Control_c, 0, 64, 75
1, 233100, Note_off_c, 0, 50, 55
1, 233112, Control_c, 0, 64, 80
1, 233127, Control_c, 0, 64, 83
1, 233142, Control_c, 0, 64, 83
1, 233152, Note_off_c, 0, 58, 59
1, 233157, Note_on_c, 0, 56, 64
1, 233172, Control_c, 0, 64, 83
1, 233186, Control_c, 0, 64, 81
1, 233201, Control_c, 0, 64, 77
1, 233216, Control_c, 0, 64, 70
1, 233220, Note_on_c, 0, 59, 59
1, 233222, Note_on_c, 0, 65, 63
1, 233224, Note_off_c, 0, 56, 58
1, 233231, Control_c, 0, 64, 64
1, 233241, Note_off_c, 0, 65, 64
1, 233246, Control_c, 0, 64, 40
1, 233261, Control_c, 0, 64, 0
1, 233303, Note_off_c, 0, 59, 57
1, 233310, Note_on_c, 0, 53, 58
1, 233376, Note_off_c, 0, 53, 50
1, 233379, Note_on_c, 0, 58, 55
1, 233444, Note_on_c, 0, 56, 59
1, 233446, Control_c, 0, 64, 27
1, 233452, Note_off_c, 0, 58, 58
1, 233461, Control_c, 0, 64, 39
1, 233476, Control_c, 0, 64, 50
1, 233491, Control_c, 0, 64, 60
1, 233502, Note_off_c, 0, 56, 52
1, 233506, Control_c, 0, 64, 66
1, 233510, Note_on_c, 0, 59, 55
1, 233514, Note_on_c, 0, 50, 48
1, 233520, Control_c, 0, 64, 72
1, 233535, Control_c, 0, 64, 82
1, 233541, Note_off_c, 0, 50, 56
1, 233551, Control_c, 0, 64, 90
1, 233565, Note_on_c, 0, 53, 64
1, 233566, Control_c, 0, 64, 96
1, 233580, Note_off_c, 0, 59, 54
1, 233581, Control_c, 0, 64, 98
1, 233625, Control_c, 0, 64, 97
1, 233640, Note_on_c, 0, 58, 58
1, 233640, Control_c, 0, 64, 90
1, 233644, Note_off_c, 0, 53, 54
1, 233655, Control_c, 0, 64, 81
1, 233669, Note_on_c, 0, 65, 52
1, 233670, Control_c, 0, 64, 71
1, 233684, Control_c, 0, 64, 61
1, 233691, Note_off_c, 0, 65, 57
1, 233699, Control_c, 0, 64, 28
1, 233714, Control_c, 0, 64, 0
1, 233717, Note_off_c, 0, 58, 61
1, 233723, Note_on_c, 0, 56, 59
1, 233786, Note_off_c, 0, 56, 55
1, 233792, Note_on_c, 0, 59, 59
1, 233865, Note_off_c, 0, 59, 56
1, 233866, Note_on_c, 0, 53, 48
1, 233907, Control_c, 0, 64, 30
1, 233920, Note_off_c, 0, 53, 54
1, 233922, Control_c, 0, 64, 56
1, 233933, Note_on_c, 0, 58, 55
1, 233937, Control_c, 0, 64, 67
1, 233944, Note_on_c, 0, 50, 42
1, 233952, Control_c, 0, 64, 74
1, 233967, Control_c, 0, 64, 83
1, 233971, Note_off_c, 0, 50, 53
1, 233982, Control_c, 0, 64, 89
1, 233997, Control_c, 0, 64, 92
1, 234000, Note_off_c, 0, 58, 58
1, 234005, Note_on_c, 0, 56, 63
1, 234011, Control_c, 0, 64, 92
1, 234048, Control_c, 0, 64, 92
1, 234063, Control_c, 0, 64, 87
1, 234078, Control_c, 0, 64, 79
1, 234081, Note_off_c, 0, 56, 54
1, 234081, Note_on_c, 0, 59, 58
1, 234093, Control_c, 0, 64, 69
1, 234095, Note_on_c, 0, 65, 61
1, 234108, Control_c, 0, 64, 56
1, 234115, Note_off_c, 0, 65, 62
1, 234122, Control_c, 0, 64, 0
1, 234161, Note_off_c, 0, 59, 57
1, 234166, Note_on_c, 0, 53, 50
1, 234221, Note_off_c, 0, 53, 56
1, 234231, Note_on_c, 0, 58, 55
1, 234294, Note_off_c, 0, 58, 58
1, 234304, Note_on_c, 0, 56, 59
1, 234315, Control_c, 0, 64, 14
1, 234329, Control_c, 0, 64, 51
1, 234344, Control_c, 0, 64, 63
1, 234360, Control_c, 0, 64, 68
1, 234366, Note_off_c, 0, 56, 53
1, 234370, Note_on_c, 0, 50, 44
1, 234370, Note_on_c, 0, 59, 56
1, 234375, Control_c, 0, 64, 73
1, 234390, Control_c, 0, 64, 80
1, 234397, Note_off_c, 0, 50, 55
1, 234405, Control_c, 0, 64, 84
1, 234420, Control_c, 0, 64, 88
1, 234434, Control_c, 0, 64, 91
1, 234439, Note_on_c, 0, 53, 53
1, 234449, Control_c, 0, 64, 91
1, 234452, Note_off_c, 0, 59, 54
1, 234493, Control_c, 0, 64, 91
1, 234507, Note_off_c, 0, 53, 52
1, 234508, Control_c, 0, 64, 87
1, 234513, Note_on_c, 0, 58, 57
1, 234523, Control_c, 0, 64, 80
1, 234538, Control_c, 0, 64, 69
1, 234552, Control_c, 0, 64, 57
1, 234567, Control_c, 0, 64, 0
1, 234575, Note_off_c, 0, 58, 56
1, 234590, Note_on_c, 0, 56, 53
1, 234637, Note_off_c, 0, 56, 58
1, 234639, Note_on_c, 0, 59, 51
1, 234717, Note_on_c, 0, 53, 52
1, 234719, Note_off_c, 0, 59, 59
1, 234768, Note_off_c, 0, 53, 57
1, 234782, Control_c, 0, 64, 41
1, 234795, Note_on_c, 0, 34, 53
1, 234797, Control_c, 0, 64, 62
1, 234808, Note_on_c, 0, 58, 49
1, 234812, Control_c, 0, 64, 67
1, 234827, Control_c, 0, 64, 72
1, 234841, Control_c, 0, 64, 77
1, 234845, Note_off_c, 0, 58, 63
1, 234850, Note_off_c, 0, 34, 61
1, 234856, Control_c, 0, 64, 79
1, 234871, Control_c, 0, 64, 81
1, 234886, Control_c, 0, 64, 82
1, 234915, Control_c, 0, 64, 82
1, 234966, Note_on_c, 0, 58, 51
1, 235002, Note_off_c, 0, 58, 64
1, 235055, Note_on_c, 0, 62, 52
1, 235093, Control_c, 0, 67, 126
1, 235095, Note_off_c, 0, 62, 61
1, 235108, Control_c, 0, 67, 120
1, 235120, Note_on_c, 0, 59, 55
1, 235123, Control_c, 0, 67, 114
1, 235138, Control_c, 0, 67, 107
1, 235154, Control_c, 0, 67, 99
1, 235169, Control_c, 0, 67, 88
1, 235174, Note_off_c, 0, 59, 51
1, 235183, Control_c, 0, 67, 79
1, 235194, Note_on_c, 0, 62, 51
1, 235198, Control_c, 0, 67, 71
1, 235213, Control_c, 0, 67, 63
1, 235227, Control_c, 0, 67, 55
1, 235242, Control_c, 0, 67, 47
1, 235252, Note_off_c, 0, 62, 55
1, 235257, Control_c, 0, 64, 83
1, 235257, Control_c, 0, 67, 37
1, 235267, Note_on_c, 0, 61, 61
1, 235272, Control_c, 0, 67, 27
1, 235287, Control_c, 0, 67, 16
1, 235288, Note_on_c, 0, 56, 44
1, 235291, Note_on_c, 0, 46, 41
1, 235301, Note_on_c, 0, 53, 42
1, 235301, Control_c, 0, 64, 83
1, 235301, Control_c, 0, 67, 0
1, 235305, Note_off_c, 0, 61, 61
1, 235336, Note_off_c, 0, 46, 59
1, 235339, Note_on_c, 0, 65, 48
1, 235344, Note_off_c, 0, 56, 56
1, 235346, Control_c, 0, 64, 84
1, 235352, Note_off_c, 0, 53, 61
1, 235371, Note_off_c, 0, 65, 54
1, 235425, Note_on_c, 0, 62, 52
1, 235451, Note_off_c, 0, 62, 56
1, 235497, Note_on_c, 0, 68, 55
1, 235544, Note_off_c, 0, 68, 62
1, 235580, Note_on_c, 0, 64, 55
1, 235644, Note_off_c, 0, 64, 47
1, 235652, Note_on_c, 0, 68, 55
1, 235717, Note_off_c, 0, 68, 53
1, 235723, Note_on_c, 0, 65, 57
1, 235763, Note_on_c, 0, 62, 51
1, 235763, Note_off_c, 0, 65, 57
1, 235771, Note_on_c, 0, 56, 50
1, 235778, Note_on_c, 0, 53, 43
1, 235805, Note_off_c, 0, 62, 61
1, 235812, Note_off_c, 0, 53, 54
1, 235814, Note_off_c, 0, 56, 61
1, 235878, Note_on_c, 0, 67, 58
1, 235918, Note_off_c, 0, 67, 51
1, 235964, Note_on_c, 0, 71, 13
1, 236006, Note_off_c, 0, 71, 50
1, 236015, Note_on_c, 0, 68, 63
1, 236053, Note_off_c, 0, 68, 63
1, 236096, Note_on_c, 0, 74, 50
1, 236109, Control_c, 0, 64, 82
1, 236123, Control_c, 0, 64, 75
1, 236138, Control_c, 0, 64, 65
1, 236153, Control_c, 0, 64, 31
1, 236164, Note_off_c, 0, 74, 51
1, 236167, Note_on_c, 0, 65, 42
1, 236168, Control_c, 0, 64, 0
1, 236179, Note_on_c, 0, 56, 37
1, 236182, Note_on_c, 0, 70, 62
1, 236188, Note_on_c, 0, 62, 37
1, 236197, Control_c, 0, 64, 22
1, 236212, Control_c, 0, 64, 62
1, 236223, Note_off_c, 0, 70, 60
1, 236227, Control_c, 0, 64, 70
1, 236242, Control_c, 0, 64, 79
1, 236257, Control_c, 0, 64, 90
1, 236273, Note_on_c, 0, 74, 54
1, 236279, Control_c, 0, 64, 97
1, 236289, Note_off_c, 0, 65, 52
1, 236290, Note_off_c, 0, 56, 53
1, 236294, Control_c, 0, 64, 100
1, 236309, Control_c, 0, 64, 101
1, 236310, Note_off_c, 0, 62, 57
1, 236314, Note_off_c, 0, 74, 58
1, 236346, Note_on_c, 0, 71, 55
1, 236380, Note_off_c, 0, 71, 53
1, 236423, Note_on_c, 0, 74, 44
1, 236451, Note_off_c, 0, 74, 58
1, 236463, Note_on_c, 0, 73, 64
1, 236516, Note_off_c, 0, 73, 56
1, 236534, Note_on_c, 0, 77, 58
1, 236570, Note_off_c, 0, 77, 59
1, 236606, Control_c, 0, 64, 94
1, 236620, Control_c, 0, 64, 81
1, 236622, Note_on_c, 0, 68, 50
1, 236628, Note_on_c, 0, 74, 56
1, 236635, Control_c, 0, 64, 68
1, 236644, Note_on_c, 0, 58, 34
1, 236650, Control_c, 0, 64, 51
1, 236651, Note_on_c, 0, 65, 34
1, 236658, Note_off_c, 0, 74, 62
1, 236665, Control_c, 0, 64, 0
1, 236680, Control_c, 0, 64, 12
1, 236695, Control_c, 0, 64, 50
1, 236704, Note_on_c, 0, 80, 53
1, 236710, Control_c, 0, 64, 65
1, 236724, Control_c, 0, 64, 76
1, 236739, Control_c, 0, 64, 94
1, 236743, Note_off_c, 0, 80, 59
1, 236755, Control_c, 0, 64, 127
1, 236770, Note_off_c, 0, 68, 46
1, 236771, Note_off_c, 0, 65, 57
1, 236778, Note_off_c, 0, 58, 36
1, 236784, Note_on_c, 0, 76, 63
1, 236852, Note_on_c, 0, 80, 62
1, 236857, Note_off_c, 0, 76, 52
1, 236921, Note_on_c, 0, 77, 61
1, 236925, Note_off_c, 0, 80, 60
1, 236969, Note_off_c, 0, 77, 52
1, 237002, Note_on_c, 0, 83, 58
1, 237029, Control_c, 0, 64, 115
1, 237044, Control_c, 0, 64, 89
1, 237047, Note_off_c, 0, 83, 56
1, 237059, Control_c, 0, 64, 72
1, 237073, Control_c, 0, 64, 58
1, 237074, Note_on_c, 0, 68, 40
1, 237084, Note_on_c, 0, 74, 45
1, 237088, Control_c, 0, 64, 24
1, 237089, Note_on_c, 0, 65, 33
1, 237103, Control_c, 0, 64, 17
1, 237118, Control_c, 0, 64, 42
1, 237118, Note_on_c, 0, 79, 21
1, 237133, Control_c, 0, 64, 60
1, 237147, Control_c, 0, 64, 69
1, 237155, Note_on_c, 0, 83, 59
1, 237157, Note_off_c, 0, 79, 45
1, 237162, Control_c, 0, 64, 84
1, 237177, Control_c, 0, 64, 110
1, 237192, Control_c, 0, 64, 127
1, 237198, Note_off_c, 0, 68, 57
1, 237207, Note_off_c, 0, 74, 55
1, 237223, Note_off_c, 0, 65, 34
1, 237226, Note_off_c, 0, 83, 56
1, 237235, Note_on_c, 0, 80, 65
1, 237273, Note_off_c, 0, 80, 55
1, 237304, Note_on_c, 0, 86, 58
1, 237363, Note_off_c, 0, 86, 54
1, 237382, Note_on_c, 0, 82, 65
1, 237439, Note_off_c, 0, 82, 59
1, 237469, Note_on_c, 0, 86, 50
1, 237503, Control_c, 0, 64, 96
1, 237504, Note_off_c, 0, 86, 62
1, 237518, Control_c, 0, 64, 75
1, 237521, Note_on_c, 0, 77, 44
1, 237533, Note_on_c, 0, 83, 63
1, 237533, Control_c, 0, 64, 60
1, 237541, Note_on_c, 0, 74, 34
1, 237548, Control_c, 0, 64, 0
1, 237549, Note_on_c, 0, 68, 29
1, 237587, Note_off_c, 0, 83, 51
1, 237605, Note_on_c, 0, 86, 59
1, 237607, Control_c, 0, 64, 57
1, 237622, Control_c, 0, 64, 69
1, 237637, Control_c, 0, 64, 77
1, 237652, Control_c, 0, 64, 87
1, 237663, Note_off_c, 0, 77, 58
1, 237667, Control_c, 0, 64, 91
1, 237672, Note_on_c, 0, 85, 66
1, 237672, Note_off_c, 0, 86, 59
1, 237676, Note_off_c, 0, 74, 59
1, 237682, Control_c, 0, 64, 93
1, 237696, Control_c, 0, 64, 93
1, 237701, Note_off_c, 0, 68, 39
1, 237728, Note_off_c, 0, 85, 58
1, 237747, Note_on_c, 0, 89, 52
1, 237776, Note_off_c, 0, 89, 60
1, 237823, Note_on_c, 0, 86, 64
1, 237869, Note_off_c, 0, 86, 59
1, 237899, Note_on_c, 0, 92, 61
1, 237911, Control_c, 0, 64, 91
1, 237926, Control_c, 0, 64, 82
1, 237940, Note_off_c, 0, 92, 55
1, 237941, Control_c, 0, 64, 71
1, 237941, Control_c, 0, 67, 8
1, 237956, Control_c, 0, 64, 59
1, 237956, Control_c, 0, 67, 12
1, 237962, Note_on_c, 0, 80, 42
1, 237970, Control_c, 0, 64, 25
1, 237970, Control_c, 0, 67, 16
1, 237981, Note_on_c, 0, 88, 62
1, 237985, Control_c, 0, 64, 17
1, 237985, Control_c, 0, 67, 22
1, 237991, Note_on_c, 0, 77, 35
1, 238000, Control_c, 0, 64, 46
1, 238000, Control_c, 0, 67, 28
1, 238015, Control_c, 0, 64, 62
1, 238015, Control_c, 0, 67, 33
1, 238029, Control_c, 0, 64, 70
1, 238029, Control_c, 0, 67, 35
1, 238034, Poly_aftertouch_c, 0, 70, 127
1, 238044, Control_c, 0, 64, 81
1, 238044, Control_c, 0, 67, 37
1, 238045, Note_off_c, 0, 88, 54
1, 238050, Note_on_c, 0, 92, 58
1, 238059, Control_c, 0, 64, 94
1, 238059, Control_c, 0, 67, 37
1, 238074, Control_c, 0, 64, 99
1, 238074, Control_c, 0, 67, 38
1, 238087, Note_off_c, 0, 80, 51
1, 238089, Control_c, 0, 64, 100
1, 238089, Control_c, 0, 67, 39
1, 238093, Poly_aftertouch_c, 0, 70, 0
1, 238098, Note_off_c, 0, 77, 59
1, 238103, Control_c, 0, 67, 39
1, 238105, Note_on_c, 0, 89, 61
1, 238118, Control_c, 0, 67, 40
1, 238124, Note_off_c, 0, 92, 59
1, 238133, Control_c, 0, 67, 41
1, 238142, Note_off_c, 0, 89, 62
1, 238148, Control_c, 0, 67, 44
1, 238162, Control_c, 0, 67, 46
1, 238164, Note_on_c, 0, 95, 64
1, 238177, Control_c, 0, 67, 47
1, 238192, Control_c, 0, 67, 47
1, 238207, Control_c, 0, 67, 48
1, 238221, Control_c, 0, 67, 48
1, 238236, Control_c, 0, 67, 49
1, 238254, Note_off_c, 0, 95, 55
1, 238261, Note_on_c, 0, 91, 64
1, 238281, Control_c, 0, 67, 49
1, 238296, Control_c, 0, 67, 50
1, 238308, Note_off_c, 0, 91, 52
1, 238311, Control_c, 0, 67, 50
1, 238326, Control_c, 0, 67, 51
1, 238332, Note_on_c, 0, 95, 48
1, 238340, Control_c, 0, 64, 98
1, 238340, Control_c, 0, 67, 54
1, 238356, Control_c, 0, 64, 88
1, 238356, Control_c, 0, 67, 58
1, 238371, Control_c, 0, 64, 74
1, 238371, Control_c, 0, 67, 63
1, 238386, Control_c, 0, 64, 59
1, 238386, Control_c, 0, 67, 72
1, 238395, Note_off_c, 0, 95, 55
1, 238400, Control_c, 0, 64, 0
1, 238400, Control_c, 0, 67, 81
1, 238402, Note_on_c, 0, 86, 44
1, 238409, Note_on_c, 0, 94, 61
1, 238410, Note_on_c, 0, 77, 37
1, 238415, Control_c, 0, 67, 91
1, 238420, Note_on_c, 0, 80, 44
1, 238430, Control_c, 0, 67, 100
1, 238445, Control_c, 0, 64, 48
1, 238445, Control_c, 0, 67, 112
1, 238460, Control_c, 0, 64, 64
1, 238460, Control_c, 0, 67, 121
1, 238472, Note_off_c, 0, 94, 60
1, 238475, Note_on_c, 0, 92, 65
1, 238475, Control_c, 0, 64, 73
1, 238475, Control_c, 0, 67, 127
1, 238490, Control_c, 0, 64, 89
1, 238504, Control_c, 0, 64, 102
1, 238526, Control_c, 0, 64, 107
1, 238536, Note_off_c, 0, 92, 54
1, 238541, Control_c, 0, 64, 108
1, 238556, Note_on_c, 0, 95, 61
1, 238556, Control_c, 0, 64, 109
1, 238571, Control_c, 0, 64, 109
1, 238585, Control_c, 0, 64, 110
1, 238600, Control_c, 0, 64, 111
1, 238609, Note_off_c, 0, 95, 56
1, 238620, Note_on_c, 0, 89, 57
1, 238645, Control_c, 0, 64, 112
1, 238683, Note_off_c, 0, 89, 55
1, 238688, Note_on_c, 0, 94, 59
1, 238760, Note_off_c, 0, 94, 59
1, 238763, Note_on_c, 0, 92, 66
1, 238799, Note_off_c, 0, 92, 54
1, 238820, Note_on_c, 0, 96, 54
1, 238894, Note_on_c, 0, 89, 57
1, 238895, Note_off_c, 0, 96, 61
1, 238941, Note_off_c, 0, 89, 54
1, 238957, Note_on_c, 0, 94, 55
1, 239014, Note_off_c, 0, 94, 57
1, 239020, Note_on_c, 0, 92, 60
1, 239037, Note_off_c, 0, 86, 42
1, 239059, Note_off_c, 0, 92, 55
1, 239091, Note_on_c, 0, 97, 67
1, 239165, Note_off_c, 0, 97, 59
1, 239166, Note_on_c, 0, 89, 54
1, 239217, Note_off_c, 0, 89, 44
1, 239230, Note_on_c, 0, 94, 57
1, 239305, Note_on_c, 0, 92, 61
1, 239309, Note_off_c, 0, 94, 60
1, 239337, Note_off_c, 0, 92, 61
1, 239357, Note_on_c, 0, 98, 62
1, 239437, Note_on_c, 0, 89, 60
1, 239440, Note_off_c, 0, 98, 61
1, 239487, Note_off_c, 0, 89, 59
1, 239497, Note_on_c, 0, 94, 55
1, 239569, Note_on_c, 0, 92, 58
1, 239572, Note_off_c, 0, 94, 56
1, 239619, Note_off_c, 0, 92, 55
1, 239640, Note_on_c, 0, 99, 68
1, 239667, Note_on_c, 0, 84, 38
1, 239702, Note_off_c, 0, 77, 31
1, 239706, Note_on_c, 0, 75, 15
1, 239715, Note_on_c, 0, 89, 56
1, 239716, Note_off_c, 0, 99, 62
1, 239783, Note_on_c, 0, 94, 52
1, 239784, Note_off_c, 0, 89, 51
1, 239806, Note_off_c, 0, 84, 39
1, 239828, Note_on_c, 0, 92, 63
1, 239832, Note_off_c, 0, 94, 53
1, 239846, Note_off_c, 0, 75, 22
1, 239870, Note_off_c, 0, 92, 54
1, 239905, Note_on_c, 0, 100, 57
1, 239944, Note_off_c, 0, 100, 56
1, 239962, Note_on_c, 0, 89, 60
1, 239998, Note_off_c, 0, 89, 62
1, 240059, Note_on_c, 0, 101, 73
1, 240063, Note_on_c, 0, 84, 41
1, 240078, Note_on_c, 0, 75, 34
1, 240129, Note_off_c, 0, 101, 61
1, 240137, Note_off_c, 0, 84, 50
1, 240144, Note_on_c, 0, 98, 44
1, 240179, Note_off_c, 0, 98, 60
1, 240193, Note_on_c, 0, 97, 63
1, 240201, Note_off_c, 0, 75, 33
1, 240268, Note_off_c, 0, 97, 57
1, 240273, Note_on_c, 0, 100, 61
1, 240330, Note_on_c, 0, 99, 65
1, 240357, Note_off_c, 0, 100, 61
1, 240401, Note_on_c, 0, 96, 62
1, 240417, Note_off_c, 0, 99, 61
1, 240463, Note_off_c, 0, 96, 59
1, 240490, Note_on_c, 0, 95, 64
1, 240496, Note_on_c, 0, 82, 41
1, 240515, Note_on_c, 0, 74, 33
1, 240539, Note_off_c, 0, 80, 31
1, 240564, Note_on_c, 0, 98, 67
1, 240567, Note_off_c, 0, 95, 52
1, 240572, Control_c, 0, 64, 111
1, 240601, Note_off_c, 0, 74, 46
1, 240645, Note_off_c, 0, 82, 38
1, 240658, Note_on_c, 0, 96, 48
1, 240666, Note_off_c, 0, 98, 53
1, 240694, Note_off_c, 0, 96, 64
1, 240695, Note_on_c, 0, 94, 65
1, 240773, Note_off_c, 0, 94, 59
1, 240787, Note_on_c, 0, 93, 62
1, 240803, Control_c, 0, 64, 110
1, 240818, Control_c, 0, 64, 109
1, 240832, Control_c, 0, 64, 105
1, 240845, Note_on_c, 0, 96, 59
1, 240847, Control_c, 0, 64, 97
1, 240851, Note_off_c, 0, 93, 53
1, 240862, Control_c, 0, 64, 86
1, 240877, Control_c, 0, 64, 73
1, 240892, Control_c, 0, 64, 64
1, 240907, Control_c, 0, 64, 47
1, 240913, Note_on_c, 0, 95, 58
1, 240921, Control_c, 0, 64, 9
1, 240925, Note_off_c, 0, 96, 61
1, 240936, Control_c, 0, 64, 0
1, 240979, Note_on_c, 0, 92, 71
1, 240982, Note_off_c, 0, 95, 62
1, 241047, Note_off_c, 0, 92, 62
1, 241054, Control_c, 0, 64, 26
1, 241065, Note_on_c, 0, 91, 61
1, 241069, Control_c, 0, 64, 48
1, 241084, Control_c, 0, 64, 60
1, 241099, Control_c, 0, 64, 66
1, 241114, Control_c, 0, 64, 72
1, 241117, Note_off_c, 0, 91, 60
1, 241126, Note_on_c, 0, 94, 62
1, 241128, Control_c, 0, 64, 79
1, 241143, Control_c, 0, 64, 84
1, 241158, Control_c, 0, 64, 86
1, 241172, Control_c, 0, 64, 86
1, 241187, Control_c, 0, 64, 87
1, 241190, Note_off_c, 0, 94, 59
1, 241195, Note_on_c, 0, 92, 60
1, 241202, Control_c, 0, 64, 87
1, 241228, Note_off_c, 0, 92, 61
1, 241266, Note_on_c, 0, 89, 55
1, 241286, Note_off_c, 0, 89, 64
1, 241348, Note_on_c, 0, 86, 54
1, 241365, Control_c, 0, 64, 85
1, 241380, Control_c, 0, 64, 80
1, 241395, Control_c, 0, 64, 73
1, 241410, Control_c, 0, 64, 65
1, 241422, Note_off_c, 0, 86, 38
1, 241425, Control_c, 0, 64, 49
1, 241439, Control_c, 0, 64, 0
1, 241452, Note_on_c, 0, 82, 56
1, 241535, Note_off_c, 0, 82, 58
1, 241559, Note_on_c, 0, 81, 54
1, 241597, Note_off_c, 0, 81, 62
1, 241660, Note_on_c, 0, 82, 59
1, 241702, Note_off_c, 0, 82, 57
1, 241745, Note_on_c, 0, 80, 52
1, 241781, Note_off_c, 0, 80, 61
1, 241824, Note_on_c, 0, 82, 60
1, 241891, Note_off_c, 0, 82, 55
1, 241925, Note_on_c, 0, 51, 43
1, 241944, Note_on_c, 0, 78, 52
1, 241953, Note_off_c, 0, 51, 58
1, 241978, Note_off_c, 0, 78, 65
1, 242118, Poly_aftertouch_c, 0, 79, 0
1, 242147, Note_on_c, 0, 91, 58
1, 242159, Note_on_c, 0, 72, 42
1, 242197, Note_on_c, 0, 67, 28
1, 242199, Note_on_c, 0, 63, 18
1, 242230, Note_off_c, 0, 91, 58
1, 242236, Note_on_c, 0, 86, 52
1, 242269, Note_off_c, 0, 72, 41
1, 242307, Note_off_c, 0, 86, 60
1, 242309, Note_off_c, 0, 67, 45
1, 242323, Note_on_c, 0, 87, 59
1, 242332, Note_off_c, 0, 63, 46
1, 242344, Note_on_c, 0, 70, 36
1, 242363, Note_off_c, 0, 87, 56
1, 242374, Note_off_c, 0, 70, 53
1, 242405, Note_on_c, 0, 83, 60
1, 242432, Note_off_c, 0, 83, 66
1, 242484, Note_on_c, 0, 46, 43
1, 242511, Note_on_c, 0, 84, 57
1, 242513, Note_off_c, 0, 46, 52
1, 242582, Note_on_c, 0, 79, 50
1, 242586, Note_off_c, 0, 84, 58
1, 242655, Note_off_c, 0, 79, 60
1, 242671, Note_on_c, 0, 68, 40
1, 242673, Note_on_c, 0, 82, 62
1, 242674, Note_on_c, 0, 57, 30
1, 242713, Control_c, 0, 64, 35
1, 242728, Control_c, 0, 64, 60
1, 242743, Control_c, 0, 64, 65
1, 242744, Note_on_c, 0, 80, 60
1, 242758, Control_c, 0, 64, 67
1, 242761, Note_off_c, 0, 82, 57
1, 242773, Control_c, 0, 64, 68
1, 242787, Note_off_c, 0, 68, 37
1, 242788, Control_c, 0, 64, 70
1, 242800, Note_on_c, 0, 58, 42
1, 242803, Control_c, 0, 64, 71
1, 242805, Note_off_c, 0, 57, 41
1, 242812, Note_on_c, 0, 79, 56
1, 242817, Control_c, 0, 64, 72
1, 242818, Note_off_c, 0, 80, 60
1, 242832, Control_c, 0, 64, 73
1, 242841, Note_off_c, 0, 58, 63
1, 242847, Note_off_c, 0, 79, 65
1, 242847, Control_c, 0, 64, 74
1, 242862, Control_c, 0, 64, 75
1, 242904, Note_on_c, 0, 77, 55
1, 242921, Control_c, 0, 64, 73
1, 242935, Control_c, 0, 64, 67
1, 242944, Note_off_c, 0, 77, 57
1, 242950, Control_c, 0, 64, 58
1, 242958, Note_on_c, 0, 51, 43
1, 242965, Control_c, 0, 64, 0
1, 242971, Note_on_c, 0, 78, 66
1, 242987, Note_off_c, 0, 51, 53
1, 243020, Note_off_c, 0, 78, 57
1, 243065, Note_on_c, 0, 79, 64
1, 243120, Note_off_c, 0, 79, 63
1, 243146, Note_on_c, 0, 72, 40
1, 243149, Note_on_c, 0, 91, 74
1, 243149, Note_on_c, 0, 63, 40
1, 243167, Control_c, 0, 64, 50
1, 243181, Control_c, 0, 64, 62
1, 243196, Control_c, 0, 64, 65
1, 243211, Control_c, 0, 64, 67
1, 243226, Control_c, 0, 64, 68
1, 243230, Note_on_c, 0, 86, 59
1, 243241, Control_c, 0, 64, 69
1, 243245, Note_off_c, 0, 72, 52
1, 243250, Note_off_c, 0, 91, 57
1, 243256, Control_c, 0, 64, 71
1, 243271, Control_c, 0, 64, 72
1, 243286, Control_c, 0, 64, 73
1, 243293, Note_on_c, 0, 87, 68
1, 243295, Note_off_c, 0, 63, 59
1, 243301, Note_off_c, 0, 86, 57
1, 243301, Control_c, 0, 64, 75
1, 243311, Note_on_c, 0, 70, 39
1, 243315, Control_c, 0, 64, 75
1, 243330, Control_c, 0, 64, 76
1, 243340, Note_off_c, 0, 70, 54
1, 243352, Note_off_c, 0, 87, 62
1, 243374, Note_on_c, 0, 83, 64
1, 243374, Control_c, 0, 64, 76
1, 243389, Control_c, 0, 64, 73
1, 243398, Note_off_c, 0, 83, 67
1, 243404, Control_c, 0, 64, 68
1, 243419, Control_c, 0, 64, 58
1, 243434, Control_c, 0, 64, 0
1, 243471, Note_on_c, 0, 84, 69
1, 243476, Note_on_c, 0, 46, 29
1, 243513, Note_off_c, 0, 46, 32
1, 243537, Note_on_c, 0, 79, 65
1, 243552, Note_off_c, 0, 84, 59
1, 243607, Note_off_c, 0, 79, 63
1, 243624, Note_on_c, 0, 82, 66
1, 243636, Note_on_c, 0, 68, 47
1, 243690, Note_on_c, 0, 80, 62
1, 243703, Poly_aftertouch_c, 0, 57, 127
1, 243724, Note_off_c, 0, 82, 59
1, 243735, Note_off_c, 0, 68, 37
1, 243743, Note_on_c, 0, 58, 34
1, 243767, Note_on_c, 0, 79, 59
1, 243772, Poly_aftertouch_c, 0, 57, 0
1, 243781, Note_off_c, 0, 80, 60
1, 243781, Control_c, 0, 64, 45
1, 243796, Control_c, 0, 64, 60
1, 243800, Note_off_c, 0, 79, 67
1, 243811, Control_c, 0, 64, 64
1, 243814, Note_off_c, 0, 58, 62
1, 243826, Control_c, 0, 64, 66
1, 243840, Control_c, 0, 64, 67
1, 243848, Note_on_c, 0, 77, 60
1, 243855, Control_c, 0, 64, 68
1, 243870, Control_c, 0, 64, 69
1, 243892, Note_off_c, 0, 77, 52
1, 243900, Control_c, 0, 64, 68
1, 243915, Control_c, 0, 64, 66
1, 243915, Note_on_c, 0, 51, 54
1, 243921, Note_on_c, 0, 78, 66
1, 243930, Control_c, 0, 64, 58
1, 243940, Note_off_c, 0, 51, 58
1, 243945, Control_c, 0, 64, 14
1, 243954, Note_off_c, 0, 78, 65
1, 243960, Control_c, 0, 64, 0
1, 244008, Note_on_c, 0, 79, 69
1, 244049, Control_c, 0, 64, 52
1, 244061, Note_off_c, 0, 79, 62
1, 244064, Control_c, 0, 64, 64
1, 244079, Control_c, 0, 64, 67
1, 244085, Note_on_c, 0, 91, 74
1, 244094, Note_on_c, 0, 77, 51
1, 244094, Control_c, 0, 64, 71
1, 244108, Note_on_c, 0, 67, 40
1, 244109, Control_c, 0, 64, 74
1, 244119, Note_on_c, 0, 70, 33
1, 244123, Control_c, 0, 64, 76
1, 244138, Control_c, 0, 64, 78
1, 244153, Control_c, 0, 64, 79
1, 244162, Note_on_c, 0, 86, 62
1, 244168, Control_c, 0, 64, 80
1, 244189, Note_off_c, 0, 77, 53
1, 244193, Note_off_c, 0, 91, 61
1, 244197, Control_c, 0, 64, 81
1, 244212, Control_c, 0, 64, 81
1, 244226, Note_on_c, 0, 75, 41
1, 244227, Control_c, 0, 64, 82
1, 244242, Control_c, 0, 64, 82
1, 244244, Note_on_c, 0, 87, 69
1, 244246, Note_off_c, 0, 67, 61
1, 244251, Note_off_c, 0, 86, 58
1, 244253, Note_off_c, 0, 75, 55
1, 244256, Note_off_c, 0, 70, 56
1, 244257, Control_c, 0, 64, 83
1, 244271, Control_c, 0, 64, 84
1, 244301, Control_c, 0, 64, 84
1, 244305, Note_off_c, 0, 87, 57
1, 244319, Note_on_c, 0, 83, 65
1, 244345, Control_c, 0, 64, 84
1, 244347, Note_off_c, 0, 83, 64
1, 244360, Control_c, 0, 64, 77
1, 244375, Control_c, 0, 64, 66
1, 244389, Control_c, 0, 64, 41
1, 244400, Note_on_c, 0, 44, 44
1, 244404, Note_on_c, 0, 84, 72
1, 244404, Control_c, 0, 64, 0
1, 244428, Note_off_c, 0, 44, 56
1, 244434, Control_c, 0, 64, 17
1, 244449, Control_c, 0, 64, 58
1, 244463, Control_c, 0, 64, 68
1, 244478, Control_c, 0, 64, 77
1, 244485, Note_on_c, 0, 79, 62
1, 244493, Control_c, 0, 64, 89
1, 244501, Note_off_c, 0, 84, 56
1, 244515, Control_c, 0, 64, 97
1, 244530, Control_c, 0, 64, 99
1, 244562, Note_off_c, 0, 79, 61
1, 244570, Note_on_c, 0, 82, 72
1, 244574, Note_on_c, 0, 67, 46
1, 244599, Note_on_c, 0, 56, 46
1, 244637, Note_off_c, 0, 67, 56
1, 244639, Note_on_c, 0, 80, 71
1, 244654, Note_on_c, 0, 65, 48
1, 244678, Note_off_c, 0, 65, 57
1, 244687, Note_off_c, 0, 82, 59
1, 244707, Note_on_c, 0, 79, 67
1, 244710, Note_off_c, 0, 56, 59
1, 244727, Note_off_c, 0, 80, 60
1, 244747, Note_off_c, 0, 79, 61
1, 244753, Control_c, 0, 64, 98
1, 244768, Control_c, 0, 64, 89
1, 244783, Control_c, 0, 64, 75
1, 244791, Note_on_c, 0, 77, 67
1, 244798, Control_c, 0, 64, 62
1, 244812, Control_c, 0, 64, 0
1, 244836, Note_off_c, 0, 77, 53
1, 244842, Control_c, 0, 64, 29
1, 244857, Control_c, 0, 64, 60
1, 244869, Note_on_c, 0, 75, 69
1, 244872, Control_c, 0, 64, 70
1, 244887, Control_c, 0, 64, 84
1, 244898, Poly_aftertouch_c, 0, 46, 127
1, 244901, Control_c, 0, 64, 103
1, 244916, Control_c, 0, 64, 121
1, 244931, Control_c, 0, 64, 127
1, 244934, Poly_aftertouch_c, 0, 46, 0
1, 244957, Note_on_c, 0, 80, 60
1, 244960, Note_off_c, 0, 75, 58
1, 245024, Note_on_c, 0, 63, 53
1, 245034, Note_on_c, 0, 77, 59
1, 245056, Note_off_c, 0, 63, 52
1, 245078, Note_off_c, 0, 80, 52
1, 245079, Note_on_c, 0, 53, 6
1, 245112, Note_on_c, 0, 74, 65
1, 245131, Note_off_c, 0, 77, 57
1, 245156, Note_off_c, 0, 53, 38
1, 245188, Note_on_c, 0, 56, 45
1, 245205, Note_off_c, 0, 74, 58
1, 245208, Note_on_c, 0, 80, 59
1, 245215, Note_off_c, 0, 56, 53
1, 245217, Poly_aftertouch_c, 0, 62, 127
1, 245251, Note_on_c, 0, 77, 63
1, 245262, Poly_aftertouch_c, 0, 62, 0
1, 245264, Control_c, 0, 64, 124
1, 245279, Control_c, 0, 64, 99
1, 245294, Control_c, 0, 64, 78
1, 245299, Note_off_c, 0, 80, 60
1, 245309, Control_c, 0, 64, 60
1, 245324, Control_c, 0, 64, 0
1, 245337, Note_off_c, 0, 77, 57
1, 245340, Note_on_c, 0, 46, 50
1, 245342, Note_on_c, 0, 72, 72
1, 245368, Control_c, 0, 64, 44
1, 245375, Note_off_c, 0, 46, 58
1, 245383, Control_c, 0, 64, 65
1, 245398, Control_c, 0, 64, 71
1, 245412, Control_c, 0, 64, 79
1, 245420, Note_on_c, 0, 80, 66
1, 245426, Note_off_c, 0, 72, 60
1, 245427, Control_c, 0, 64, 84
1, 245442, Control_c, 0, 64, 86
1, 245457, Control_c, 0, 64, 87
1, 245465, Note_on_c, 0, 77, 57
1, 245507, Note_on_c, 0, 60, 52
1, 245510, Note_off_c, 0, 80, 52
1, 245514, Note_off_c, 0, 77, 49
1, 245538, Note_on_c, 0, 70, 66
1, 245573, Note_off_c, 0, 60, 36
1, 245584, Poly_aftertouch_c, 0, 53, 127
1, 245590, Note_on_c, 0, 56, 8
1, 245597, Note_off_c, 0, 70, 60
1, 245608, Note_on_c, 0, 80, 53
1, 245636, Poly_aftertouch_c, 0, 53, 0
1, 245649, Note_off_c, 0, 56, 44
1, 245659, Note_on_c, 0, 58, 55
1, 245661, Note_on_c, 0, 77, 45
1, 245679, Note_off_c, 0, 80, 59
1, 245682, Note_off_c, 0, 77, 59
1, 245700, Note_off_c, 0, 58, 62
1, 245790, Note_on_c, 0, 51, 51
1, 245799, Control_c, 0, 64, 84
1, 245802, Note_on_c, 0, 78, 64
1, 245814, Control_c, 0, 64, 74
1, 245817, Note_off_c, 0, 51, 56
1, 245826, Note_off_c, 0, 78, 65
1, 245828, Control_c, 0, 64, 63
1, 245843, Control_c, 0, 64, 0
1, 245880, Note_on_c, 0, 79, 64
1, 245915, Note_off_c, 0, 79, 60
1, 245965, Note_on_c, 0, 91, 70
1, 245975, Note_on_c, 0, 72, 46
1, 246038, Note_on_c, 0, 67, 8
1, 246043, Note_on_c, 0, 86, 61
1, 246055, Note_off_c, 0, 91, 59
1, 246076, Note_off_c, 0, 72, 52
1, 246089, Note_off_c, 0, 67, 47
1, 246106, Poly_aftertouch_c, 0, 64, 127
1, 246113, Note_on_c, 0, 87, 70
1, 246114, Note_on_c, 0, 70, 54
1, 246120, Note_off_c, 0, 86, 61
1, 246135, Poly_aftertouch_c, 0, 64, 0
1, 246137, Note_off_c, 0, 70, 60
1, 246163, Note_off_c, 0, 87, 57
1, 246190, Note_on_c, 0, 83, 63
1, 246216, Note_off_c, 0, 83, 66
1, 246265, Note_on_c, 0, 46, 44
1, 246273, Note_on_c, 0, 84, 67
1, 246294, Note_off_c, 0, 46, 52
1, 246341, Note_on_c, 0, 79, 65
1, 246369, Note_off_c, 0, 84, 46
1, 246413, Note_off_c, 0, 79, 61
1, 246423, Note_on_c, 0, 57, 50
1, 246423, Note_on_c, 0, 82, 66
1, 246490, Note_on_c, 0, 80, 60
1, 246490, Poly_aftertouch_c, 0, 68, 127
1, 246522, Note_off_c, 0, 82, 60
1, 246535, Poly_aftertouch_c, 0, 68, 0
1, 246550, Note_on_c, 0, 79, 63
1, 246562, Note_on_c, 0, 58, 50
1, 246565, Note_off_c, 0, 80, 61
1, 246567, Note_off_c, 0, 57, 36
1, 246583, Note_off_c, 0, 79, 66
1, 246601, Note_off_c, 0, 58, 64
1, 246623, Note_on_c, 0, 77, 64
1, 246674, Note_off_c, 0, 77, 50
1, 246697, Note_on_c, 0, 78, 66
1, 246699, Note_on_c, 0, 51, 57
1, 246729, Note_off_c, 0, 78, 63
1, 246732, Note_off_c, 0, 51, 60
1, 246784, Note_on_c, 0, 79, 71
1, 246841, Note_off_c, 0, 79, 65
1, 246867, Note_on_c, 0, 91, 77
1, 246883, Note_on_c, 0, 72, 33
1, 246884, Note_on_c, 0, 63, 37
1, 246905, Note_on_c, 0, 66, 18
1, 246943, Note_on_c, 0, 86, 63
1, 246979, Note_off_c, 0, 91, 55
1, 246982, Note_off_c, 0, 72, 40
1, 247003, Note_on_c, 0, 87, 70
1, 247005, Note_off_c, 0, 66, 37
1, 247012, Note_on_c, 0, 70, 47
1, 247021, Note_off_c, 0, 86, 59
1, 247025, Note_off_c, 0, 63, 60
1, 247036, Note_off_c, 0, 70, 57
1, 247067, Note_off_c, 0, 87, 61
1, 247080, Note_on_c, 0, 83, 68
1, 247105, Note_off_c, 0, 83, 65
1, 247163, Note_on_c, 0, 46, 46
1, 247172, Note_on_c, 0, 84, 73
1, 247190, Note_off_c, 0, 46, 57
1, 247233, Note_on_c, 0, 79, 70
1, 247254, Note_off_c, 0, 84, 58
1, 247319, Note_on_c, 0, 57, 54
1, 247320, Note_off_c, 0, 79, 61
1, 247329, Note_on_c, 0, 82, 69
1, 247339, Note_on_c, 0, 68, 44
1, 247398, Note_on_c, 0, 80, 65
1, 247438, Note_off_c, 0, 82, 59
1, 247444, Note_off_c, 0, 68, 38
1, 247460, Note_on_c, 0, 58, 53
1, 247461, Note_on_c, 0, 79, 63
1, 247464, Note_off_c, 0, 57, 51
1, 247481, Note_off_c, 0, 80, 61
1, 247494, Note_off_c, 0, 79, 65
1, 247501, Note_off_c, 0, 58, 64
1, 247548, Note_on_c, 0, 77, 64
1, 247597, Note_off_c, 0, 77, 50
1, 247618, Note_on_c, 0, 51, 48
1, 247619, Note_on_c, 0, 78, 70
1, 247645, Note_off_c, 0, 51, 58
1, 247656, Note_off_c, 0, 78, 63
1, 247704, Note_on_c, 0, 79, 71
1, 247747, Note_off_c, 0, 79, 60
1, 247784, Note_on_c, 0, 91, 78
1, 247787, Note_on_c, 0, 77, 59
1, 247796, Note_on_c, 0, 67, 46
1, 247824, Note_on_c, 0, 70, 32
1, 247856, Note_on_c, 0, 86, 63
1, 247883, Note_off_c, 0, 91, 58
1, 247891, Note_off_c, 0, 77, 55
1, 247912, Note_off_c, 0, 70, 0
1, 247912, Note_on_c, 0, 70, 3
1, 247931, Note_on_c, 0, 75, 41
1, 247934, Note_on_c, 0, 87, 65
1, 247947, Note_off_c, 0, 86, 60
1, 247957, Note_off_c, 0, 75, 54
1, 247958, Note_off_c, 0, 67, 61
1, 247960, Note_off_c, 0, 70, 59
1, 247982, Note_off_c, 0, 87, 57
1, 248002, Note_on_c, 0, 83, 68
1, 248025, Note_off_c, 0, 83, 68
1, 248089, Note_on_c, 0, 84, 73
1, 248097, Note_on_c, 0, 44, 45
1, 248125, Note_off_c, 0, 44, 58
1, 248155, Note_on_c, 0, 79, 66
1, 248171, Note_off_c, 0, 84, 53
1, 248231, Note_off_c, 0, 79, 60
1, 248247, Note_on_c, 0, 82, 70
1, 248262, Note_on_c, 0, 67, 48
1, 248297, Note_on_c, 0, 56, 18
1, 248321, Note_on_c, 0, 80, 65
1, 248324, Note_on_c, 0, 65, 38
1, 248350, Note_off_c, 0, 67, 52
1, 248356, Note_off_c, 0, 82, 61
1, 248377, Note_off_c, 0, 65, 61
1, 248393, Note_on_c, 0, 79, 63
1, 248393, Control_c, 0, 64, 49
1, 248407, Control_c, 0, 64, 61
1, 248409, Note_off_c, 0, 80, 61
1, 248411, Note_off_c, 0, 56, 56
1, 248422, Note_off_c, 0, 79, 64
1, 248422, Control_c, 0, 64, 64
1, 248437, Control_c, 0, 64, 67
1, 248452, Control_c, 0, 64, 69
1, 248460, Note_on_c, 0, 77, 68
1, 248467, Control_c, 0, 64, 71
1, 248481, Control_c, 0, 64, 72
1, 248490, Note_off_c, 0, 77, 60
1, 248529, Note_on_c, 0, 46, 58
1, 248544, Note_on_c, 0, 76, 64
1, 248556, Control_c, 0, 64, 70
1, 248565, Note_off_c, 0, 46, 64
1, 248571, Control_c, 0, 64, 65
1, 248586, Control_c, 0, 64, 42
1, 248601, Control_c, 0, 64, 0
1, 248605, Note_on_c, 0, 75, 67
1, 248607, Note_off_c, 0, 76, 65
1, 248646, Note_off_c, 0, 75, 59
1, 248684, Note_on_c, 0, 74, 65
1, 248738, Note_off_c, 0, 74, 38
1, 248753, Note_on_c, 0, 73, 70
1, 248820, Note_on_c, 0, 62, 74
1, 248830, Note_on_c, 0, 72, 72
1, 248833, Note_on_c, 0, 53, 58
1, 248836, Note_on_c, 0, 56, 57
1, 248838, Control_c, 0, 67, 117
1, 248848, Note_off_c, 0, 62, 64
1, 248848, Note_off_c, 0, 73, 60
1, 248853, Control_c, 0, 67, 101
1, 248864, Note_off_c, 0, 53, 64
1, 248868, Note_off_c, 0, 56, 62
1, 248868, Control_c, 0, 67, 78
1, 248883, Control_c, 0, 67, 48
1, 248884, Note_off_c, 0, 72, 60
1, 248898, Control_c, 0, 67, 21
1, 248908, Note_on_c, 0, 71, 72
1, 248912, Control_c, 0, 67, 0
1, 248973, Note_off_c, 0, 71, 39
1, 248976, Note_on_c, 0, 62, 85
1, 248980, Note_on_c, 0, 53, 70
1, 248982, Note_on_c, 0, 56, 69
1, 248985, Note_on_c, 0, 70, 76
1, 249024, Note_off_c, 0, 56, 63
1, 249027, Note_off_c, 0, 53, 62
1, 249028, Note_off_c, 0, 62, 58
1, 249070, Note_on_c, 0, 69, 71
1, 249076, Note_off_c, 0, 70, 61
1, 249131, Note_on_c, 0, 62, 77
1, 249136, Note_off_c, 0, 69, 56
1, 249148, Note_on_c, 0, 56, 50
1, 249152, Note_on_c, 0, 72, 70
1, 249164, Note_on_c, 0, 53, 39
1, 249170, Note_off_c, 0, 62, 55
1, 249173, Note_on_c, 0, 54, 27
1, 249190, Note_off_c, 0, 56, 62
1, 249194, Note_off_c, 0, 53, 57
1, 249208, Note_off_c, 0, 54, 42
1, 249224, Note_on_c, 0, 70, 64
1, 249238, Note_off_c, 0, 72, 56
1, 249278, Note_on_c, 0, 62, 70
1, 249288, Note_on_c, 0, 53, 59
1, 249289, Note_on_c, 0, 69, 52
1, 249291, Note_on_c, 0, 56, 59
1, 249308, Note_off_c, 0, 70, 60
1, 249313, Note_off_c, 0, 62, 61
1, 249330, Note_off_c, 0, 53, 64
1, 249338, Note_off_c, 0, 56, 58
1, 249349, Control_c, 0, 64, 51
1, 249350, Note_on_c, 0, 68, 70
1, 249355, Note_off_c, 0, 69, 61
1, 249364, Control_c, 0, 64, 61
1, 249379, Control_c, 0, 64, 64
1, 249392, Note_off_c, 0, 68, 59
1, 249394, Control_c, 0, 64, 66
1, 249409, Control_c, 0, 64, 67
1, 249423, Control_c, 0, 64, 69
1, 249438, Control_c, 0, 64, 71
1, 249441, Note_on_c, 0, 67, 67
1, 249441, Note_on_c, 0, 61, 66
1, 249453, Control_c, 0, 64, 74
1, 249453, Note_on_c, 0, 51, 60
1, 249468, Control_c, 0, 64, 76
1, 249472, Note_off_c, 0, 61, 66
1, 249483, Control_c, 0, 64, 78
1, 249490, Note_off_c, 0, 51, 63
1, 249498, Control_c, 0, 64, 80
1, 249509, Note_on_c, 0, 68, 70
1, 249510, Note_off_c, 0, 67, 59
1, 249512, Control_c, 0, 64, 81
1, 249528, Control_c, 0, 64, 81
1, 249543, Control_c, 0, 64, 82
1, 249593, Note_off_c, 0, 68, 56
1, 249594, Note_on_c, 0, 69, 56
1, 249609, Note_on_c, 0, 49, 59
1, 249617, Control_c, 0, 64, 81
1, 249617, Note_on_c, 0, 39, 54
1, 249632, Control_c, 0, 64, 74
1, 249634, Note_off_c, 0, 49, 58
1, 249635, Note_on_c, 0, 70, 64
1, 249646, Note_off_c, 0, 39, 56
1, 249647, Control_c, 0, 64, 62
1, 249653, Note_off_c, 0, 69, 61
1, 249661, Control_c, 0, 64, 0
1, 249702, Note_off_c, 0, 70, 40
1, 249714, Note_on_c, 0, 72, 67
1, 249721, Control_c, 0, 64, 37
1, 249726, Note_on_c, 0, 39, 61
1, 249735, Control_c, 0, 64, 64
1, 249757, Control_c, 0, 64, 70
1, 249767, Note_off_c, 0, 39, 63
1, 249772, Control_c, 0, 64, 79
1, 249787, Control_c, 0, 64, 87
1, 249790, Note_on_c, 0, 70, 71
1, 249790, Note_off_c, 0, 72, 61
1, 249802, Control_c, 0, 64, 92
1, 249817, Control_c, 0, 64, 94
1, 249823, Note_off_c, 0, 70, 57
1, 249885, Note_on_c, 0, 68, 73
1, 249891, Note_on_c, 0, 60, 73
1, 249917, Note_off_c, 0, 60, 65
1, 249957, Note_on_c, 0, 70, 64
1, 249963, Note_off_c, 0, 68, 60
1, 249968, Poly_aftertouch_c, 0, 56, 127
1, 250004, Poly_aftertouch_c, 0, 56, 0
1, 250046, Note_off_c, 0, 70, 60
1, 250048, Note_on_c, 0, 71, 57
1, 250056, Note_on_c, 0, 55, 56
1, 250056, Note_on_c, 0, 57, 58
1, 250068, Note_off_c, 0, 71, 60
1, 250078, Note_off_c, 0, 57, 59
1, 250079, Note_off_c, 0, 55, 59
1, 250126, Note_on_c, 0, 72, 67
1, 250184, Note_off_c, 0, 72, 41
1, 250188, Note_on_c, 0, 54, 79
1, 250194, Note_on_c, 0, 73, 69
1, 250201, Note_on_c, 0, 44, 48
1, 250216, Note_off_c, 0, 54, 65
1, 250231, Note_off_c, 0, 44, 56
1, 250276, Note_on_c, 0, 72, 67
1, 250283, Note_off_c, 0, 73, 62
1, 250305, Note_off_c, 0, 72, 63
1, 250334, Note_on_c, 0, 63, 85
1, 250351, Note_on_c, 0, 57, 55
1, 250354, Note_on_c, 0, 69, 72
1, 250354, Note_off_c, 0, 63, 69
1, 250373, Note_off_c, 0, 57, 63
1, 250426, Note_on_c, 0, 70, 69
1, 250437, Note_off_c, 0, 69, 57
1, 250503, Note_on_c, 0, 53, 73
1, 250507, Note_off_c, 0, 70, 59
1, 250516, Note_on_c, 0, 71, 52
1, 250521, Control_c, 0, 64, 93
1, 250527, Note_on_c, 0, 41, 37
1, 250531, Note_off_c, 0, 53, 66
1, 250536, Control_c, 0, 64, 83
1, 250540, Note_off_c, 0, 71, 60
1, 250544, Note_on_c, 0, 72, 45
1, 250551, Control_c, 0, 64, 65
1, 250562, Note_off_c, 0, 41, 47
1, 250565, Control_c, 0, 64, 0
1, 250573, Note_off_c, 0, 72, 55
1, 250586, Note_on_c, 0, 53, 86
1, 250596, Note_on_c, 0, 74, 60
1, 250604, Note_on_c, 0, 41, 63
1, 250625, Control_c, 0, 64, 58
1, 250629, Note_off_c, 0, 53, 63
1, 250631, Note_off_c, 0, 41, 60
1, 250640, Control_c, 0, 64, 68
1, 250655, Control_c, 0, 64, 76
1, 250664, Note_on_c, 0, 72, 64
1, 250669, Control_c, 0, 64, 89
1, 250681, Note_off_c, 0, 74, 58
1, 250684, Control_c, 0, 64, 101
1, 250699, Control_c, 0, 64, 106
1, 250714, Control_c, 0, 64, 107
1, 250719, Note_off_c, 0, 72, 52
1, 250750, Note_on_c, 0, 62, 75
1, 250759, Note_on_c, 0, 70, 69
1, 250767, Note_on_c, 0, 58, 61
1, 250777, Note_off_c, 0, 62, 64
1, 250800, Note_off_c, 0, 58, 65
1, 250826, Note_off_c, 0, 70, 60
1, 250831, Note_on_c, 0, 72, 70
1, 250904, Note_off_c, 0, 72, 60
1, 250907, Note_on_c, 0, 73, 69
1, 250911, Note_on_c, 0, 57, 82
1, 250929, Note_on_c, 0, 45, 63
1, 250932, Note_off_c, 0, 73, 68
1, 250950, Note_off_c, 0, 57, 59
1, 250956, Note_off_c, 0, 45, 61
1, 250985, Note_on_c, 0, 74, 73
1, 251056, Note_on_c, 0, 56, 81
1, 251061, Note_off_c, 0, 74, 53
1, 251066, Note_on_c, 0, 75, 74
1, 251066, Note_on_c, 0, 44, 65
1, 251090, Note_off_c, 0, 44, 60
1, 251109, Note_off_c, 0, 56, 57
1, 251135, Note_on_c, 0, 74, 65
1, 251144, Control_c, 0, 64, 104
1, 251152, Note_off_c, 0, 75, 61
1, 251159, Control_c, 0, 64, 84
1, 251167, Note_off_c, 0, 74, 62
1, 251173, Control_c, 0, 64, 65
1, 251188, Control_c, 0, 64, 0
1, 251215, Note_on_c, 0, 65, 89
1, 251222, Note_on_c, 0, 71, 75
1, 251230, Note_on_c, 0, 59, 65
1, 251233, Control_c, 0, 64, 49
1, 251254, Note_off_c, 0, 65, 60
1, 251255, Control_c, 0, 64, 68
1, 251270, Note_off_c, 0, 59, 64
1, 251270, Control_c, 0, 64, 78
1, 251285, Control_c, 0, 64, 90
1, 251300, Control_c, 0, 64, 101
1, 251305, Note_on_c, 0, 72, 65
1, 251314, Control_c, 0, 64, 107
1, 251329, Note_off_c, 0, 71, 56
1, 251329, Control_c, 0, 64, 108
1, 251346, Note_on_c, 0, 73, 66
1, 251359, Control_c, 0, 64, 108
1, 251364, Note_off_c, 0, 72, 51
1, 251374, Control_c, 0, 64, 108
1, 251386, Note_on_c, 0, 55, 83
1, 251388, Control_c, 0, 64, 96
1, 251395, Note_on_c, 0, 43, 70
1, 251403, Control_c, 0, 64, 74
1, 251415, Note_off_c, 0, 55, 64
1, 251418, Control_c, 0, 64, 31
1, 251425, Note_off_c, 0, 43, 65
1, 251425, Note_off_c, 0, 73, 62
1, 251433, Control_c, 0, 64, 0
1, 251436, Note_on_c, 0, 75, 60
1, 251469, Note_on_c, 0, 55, 84
1, 251473, Note_off_c, 0, 75, 60
1, 251477, Control_c, 0, 64, 60
1, 251486, Note_on_c, 0, 43, 74
1, 251492, Control_c, 0, 64, 72
1, 251507, Control_c, 0, 64, 92
1, 251513, Note_off_c, 0, 55, 61
1, 251520, Note_on_c, 0, 74, 67
1, 251520, Note_off_c, 0, 43, 64
1, 251522, Control_c, 0, 64, 127
1, 251591, Note_off_c, 0, 74, 57
1, 251625, Note_on_c, 0, 63, 79
1, 251629, Note_on_c, 0, 60, 69
1, 251632, Note_on_c, 0, 72, 71
1, 251650, Note_off_c, 0, 63, 64
1, 251659, Note_off_c, 0, 60, 64
1, 251701, Note_on_c, 0, 73, 74
1, 251720, Note_off_c, 0, 72, 56
1, 251776, Note_on_c, 0, 74, 60
1, 251782, Note_off_c, 0, 73, 61
1, 251785, Note_on_c, 0, 48, 89
1, 251796, Note_on_c, 0, 36, 77
1, 251822, Note_off_c, 0, 48, 62
1, 251823, Note_off_c, 0, 36, 65
1, 251839, Note_on_c, 0, 75, 73
1, 251847, Note_off_c, 0, 74, 61
1, 251861, Note_off_c, 0, 75, 68
1, 251922, Note_on_c, 0, 76, 76
1, 251996, Note_on_c, 0, 77, 76
1, 252010, Note_off_c, 0, 76, 62
1, 252069, Note_off_c, 0, 77, 60
1, 252076, Note_on_c, 0, 79, 75
1, 252078, Control_c, 0, 64, 98
1, 252093, Control_c, 0, 64, 65
1, 252094, Note_on_c, 0, 63, 85
1, 252102, Note_on_c, 0, 56, 79
1, 252108, Control_c, 0, 64, 0
1, 252147, Note_on_c, 0, 54, 20
1, 252152, Note_on_c, 0, 77, 74
1, 252152, Control_c, 0, 64, 57
1, 252157, Note_off_c, 0, 63, 62
1, 252161, Note_off_c, 0, 79, 61
1, 252167, Control_c, 0, 64, 70
1, 252176, Note_off_c, 0, 56, 59
1, 252181, Control_c, 0, 64, 82
1, 252193, Note_off_c, 0, 54, 38
1, 252196, Note_off_c, 0, 77, 59
1, 252196, Control_c, 0, 64, 104
1, 252211, Control_c, 0, 64, 127
1, 252241, Note_on_c, 0, 76, 68
1, 252243, Note_on_c, 0, 47, 73
1, 252305, Note_off_c, 0, 47, 59
1, 252308, Note_off_c, 0, 76, 54
1, 252309, Note_on_c, 0, 75, 65
1, 252358, Note_on_c, 0, 74, 70
1, 252413, Note_off_c, 0, 75, 56
1, 252434, Note_on_c, 0, 73, 72
1, 252447, Note_off_c, 0, 74, 60
1, 252463, Control_c, 0, 64, 109
1, 252478, Control_c, 0, 64, 76
1, 252486, Note_off_c, 0, 73, 61
1, 252492, Note_on_c, 0, 62, 66
1, 252493, Control_c, 0, 64, 50
1, 252502, Note_on_c, 0, 56, 68
1, 252508, Control_c, 0, 64, 0
1, 252518, Note_on_c, 0, 72, 65
1, 252528, Note_off_c, 0, 62, 56
1, 252552, Control_c, 0, 64, 57
1, 252561, Note_off_c, 0, 72, 54
1, 252567, Control_c, 0, 64, 69
1, 252573, Note_on_c, 0, 71, 70
1, 252581, Control_c, 0, 64, 78
1, 252596, Note_off_c, 0, 56, 58
1, 252596, Control_c, 0, 64, 88
1, 252611, Control_c, 0, 64, 94
1, 252626, Control_c, 0, 64, 96
1, 252641, Control_c, 0, 64, 96
1, 252644, Note_on_c, 0, 46, 57
1, 252655, Note_off_c, 0, 71, 60
1, 252658, Note_on_c, 0, 70, 67
1, 252667, Note_off_c, 0, 46, 59
1, 252728, Note_off_c, 0, 70, 60
1, 252731, Note_on_c, 0, 69, 65
1, 252791, Note_on_c, 0, 70, 53
1, 252803, Note_off_c, 0, 69, 58
1, 252857, Control_c, 0, 64, 94
1, 252865, Note_on_c, 0, 68, 62
1, 252871, Note_off_c, 0, 70, 57
1, 252871, Control_c, 0, 64, 84
1, 252886, Control_c, 0, 64, 69
1, 252901, Control_c, 0, 64, 43
1, 252914, Note_off_c, 0, 68, 53
1, 252916, Control_c, 0, 64, 0
1, 252953, Note_on_c, 0, 67, 54
1, 252959, Note_on_c, 0, 39, 58
1, 252959, Note_on_c, 0, 51, 62
1, 252960, Control_c, 0, 64, 58
1, 252975, Note_off_c, 0, 67, 60
1, 252975, Control_c, 0, 64, 69
1, 252990, Control_c, 0, 64, 79
1, 252998, Note_off_c, 0, 51, 61
1, 253004, Control_c, 0, 64, 91
1, 253009, Note_off_c, 0, 39, 59
1, 253019, Control_c, 0, 64, 98
1, 253034, Control_c, 0, 64, 101
1, 253049, Control_c, 0, 64, 102
1, 253093, Control_c, 0, 64, 102
1, 253123, Control_c, 0, 64, 103
1, 253125, Note_on_c, 0, 58, 67
1, 253131, Note_on_c, 0, 55, 81
1, 253162, Note_on_c, 0, 43, 37
1, 253164, Note_off_c, 0, 55, 64
1, 253179, Note_off_c, 0, 58, 53
1, 253197, Note_off_c, 0, 43, 53
1, 253205, Note_on_c, 0, 70, 68
1, 253240, Note_off_c, 0, 70, 62
1, 253279, Note_on_c, 0, 62, 75
1, 253292, Note_on_c, 0, 56, 83
1, 253300, Note_on_c, 0, 44, 69
1, 253337, Note_off_c, 0, 62, 56
1, 253340, Note_off_c, 0, 44, 62
1, 253342, Note_off_c, 0, 56, 55
1, 253355, Note_on_c, 0, 71, 69
1, 253404, Control_c, 0, 64, 103
1, 253407, Note_off_c, 0, 71, 54
1, 253439, Note_on_c, 0, 55, 88
1, 253441, Note_on_c, 0, 58, 73
1, 253451, Note_on_c, 0, 43, 73
1, 253480, Note_off_c, 0, 43, 65
1, 253488, Note_off_c, 0, 55, 61
1, 253512, Note_off_c, 0, 58, 62
1, 253531, Note_on_c, 0, 70, 65
1, 253561, Control_c, 0, 64, 104
1, 253574, Note_off_c, 0, 70, 56
1, 253591, Control_c, 0, 64, 105
1, 253597, Note_on_c, 0, 63, 69
1, 253600, Note_on_c, 0, 51, 83
1, 253606, Control_c, 0, 64, 108
1, 253612, Note_on_c, 0, 39, 68
1, 253620, Control_c, 0, 64, 112
1, 253625, Note_off_c, 0, 51, 66
1, 253635, Control_c, 0, 64, 127
1, 253640, Note_off_c, 0, 63, 59
1, 253647, Note_off_c, 0, 39, 60
1, 253659, Note_on_c, 0, 67, 65
1, 253732, Note_off_c, 0, 67, 58
1, 253741, Note_on_c, 0, 64, 69
1, 253759, Note_on_c, 0, 58, 85
1, 253766, Note_on_c, 0, 46, 72
1, 253785, Note_off_c, 0, 58, 65
1, 253789, Note_off_c, 0, 64, 53
1, 253801, Note_off_c, 0, 46, 63
1, 253811, Note_on_c, 0, 73, 76
1, 253865, Note_off_c, 0, 73, 63
1, 253906, Note_on_c, 0, 57, 90
1, 253907, Note_on_c, 0, 60, 71
1, 253916, Note_on_c, 0, 45, 81
1, 253943, Note_off_c, 0, 57, 61
1, 253945, Note_off_c, 0, 45, 63
1, 253971, Note_off_c, 0, 60, 59
1, 253975, Control_c, 0, 64, 102
1, 253989, Note_on_c, 0, 72, 69
1, 253990, Control_c, 0, 64, 64
1, 254005, Control_c, 0, 64, 0
1, 254050, Note_on_c, 0, 53, 96
1, 254060, Note_on_c, 0, 41, 84
1, 254065, Control_c, 0, 64, 55
1, 254068, Note_on_c, 0, 65, 90
1, 254068, Note_off_c, 0, 72, 56
1, 254080, Control_c, 0, 64, 86
1, 254088, Note_off_c, 0, 41, 66
1, 254090, Note_off_c, 0, 53, 65
1, 254092, Note_on_c, 0, 49, 31
1, 254094, Control_c, 0, 64, 127
1, 254125, Note_off_c, 0, 65, 62
1, 254129, Note_off_c, 0, 49, 50
1, 254131, Note_on_c, 0, 69, 70
1, 254187, Poly_aftertouch_c, 0, 43, 0
1, 254210, Note_on_c, 0, 58, 91
1, 254214, Note_on_c, 0, 46, 82
1, 254214, Note_on_c, 0, 64, 79
1, 254235, Note_off_c, 0, 69, 61
1, 254257, Note_off_c, 0, 46, 61
1, 254261, Note_off_c, 0, 58, 60
1, 254298, Note_on_c, 0, 73, 73
1, 254306, Note_off_c, 0, 64, 62
1, 254351, Note_off_c, 0, 73, 63
1, 254374, Note_on_c, 0, 57, 93
1, 254384, Note_on_c, 0, 45, 71
1, 254386, Note_on_c, 0, 60, 74
1, 254414, Note_off_c, 0, 57, 63
1, 254416, Note_off_c, 0, 45, 63
1, 254446, Note_off_c, 0, 60, 57
1, 254462, Note_on_c, 0, 72, 71
1, 254503, Control_c, 0, 64, 87
1, 254518, Control_c, 0, 64, 0
1, 254529, Note_on_c, 0, 53, 102
1, 254530, Note_on_c, 0, 65, 85
1, 254539, Note_on_c, 0, 41, 86
1, 254540, Note_off_c, 0, 72, 59
1, 254566, Note_off_c, 0, 41, 68
1, 254571, Note_off_c, 0, 53, 68
1, 254575, Note_on_c, 0, 49, 27
1, 254576, Note_off_c, 0, 49, 127
1, 254576, Control_c, 0, 64, 59
1, 254583, Note_off_c, 0, 65, 62
1, 254591, Control_c, 0, 64, 80
1, 254592, Note_on_c, 0, 69, 62
1, 254606, Control_c, 0, 64, 127
1, 254625, Poly_aftertouch_c, 0, 49, 0
1, 254625, Note_off_c, 0, 69, 61
1, 254688, Note_on_c, 0, 66, 81
1, 254700, Note_on_c, 0, 60, 90
1, 254712, Note_on_c, 0, 48, 72
1, 254726, Note_off_c, 0, 60, 62
1, 254738, Note_off_c, 0, 48, 65
1, 254755, Note_on_c, 0, 75, 67
1, 254766, Note_off_c, 0, 66, 59
1, 254808, Note_off_c, 0, 75, 62
1, 254841, Note_on_c, 0, 62, 70
1, 254848, Note_on_c, 0, 59, 92
1, 254856, Note_on_c, 0, 47, 76
1, 254881, Note_off_c, 0, 47, 67
1, 254884, Note_off_c, 0, 59, 62
1, 254899, Note_off_c, 0, 62, 60
1, 254926, Note_on_c, 0, 74, 73
1, 254962, Control_c, 0, 64, 103
1, 254976, Control_c, 0, 64, 60
1, 254998, Control_c, 0, 64, 0
1, 255009, Note_on_c, 0, 55, 98
1, 255009, Note_on_c, 0, 67, 85
1, 255019, Note_on_c, 0, 43, 85
1, 255020, Note_off_c, 0, 74, 58
1, 255036, Note_on_c, 0, 51, 54
1, 255043, Control_c, 0, 64, 43
1, 255047, Note_off_c, 0, 43, 66
1, 255050, Note_off_c, 0, 55, 65
1, 255057, Control_c, 0, 64, 84
1, 255059, Note_off_c, 0, 67, 65
1, 255063, Note_off_c, 0, 51, 40
1, 255069, Note_on_c, 0, 71, 68
1, 255072, Control_c, 0, 64, 127
1, 255155, Note_on_c, 0, 66, 78
1, 255170, Note_off_c, 0, 71, 60
1, 255175, Note_on_c, 0, 60, 89
1, 255183, Note_on_c, 0, 48, 75
1, 255211, Note_off_c, 0, 60, 60
1, 255212, Note_off_c, 0, 48, 64
1, 255228, Note_on_c, 0, 75, 77
1, 255246, Note_off_c, 0, 66, 60
1, 255296, Note_off_c, 0, 75, 60
1, 255319, Note_on_c, 0, 59, 94
1, 255320, Note_on_c, 0, 62, 77
1, 255327, Note_on_c, 0, 47, 79
1, 255358, Note_off_c, 0, 47, 66
1, 255360, Note_off_c, 0, 59, 65
1, 255391, Note_off_c, 0, 62, 56
1, 255405, Note_on_c, 0, 74, 70
1, 255444, Control_c, 0, 64, 80
1, 255459, Control_c, 0, 64, 0
1, 255476, Note_on_c, 0, 55, 99
1, 255477, Note_on_c, 0, 67, 86
1, 255483, Note_off_c, 0, 74, 58
1, 255486, Note_on_c, 0, 43, 91
1, 255510, Note_on_c, 0, 51, 51
1, 255511, Note_off_c, 0, 51, 127
1, 255513, Note_off_c, 0, 43, 69
1, 255516, Note_off_c, 0, 55, 65
1, 255517, Control_c, 0, 64, 81
1, 255528, Note_off_c, 0, 67, 65
1, 255532, Control_c, 0, 64, 127
1, 255542, Note_on_c, 0, 71, 60
1, 255583, Note_off_c, 0, 71, 52
1, 255625, Note_on_c, 0, 68, 80
1, 255645, Note_on_c, 0, 62, 78
1, 255665, Note_on_c, 0, 50, 49
1, 255671, Note_on_c, 0, 64, 30
1, 255672, Note_off_c, 0, 64, 127
1, 255672, Note_off_c, 0, 62, 64
1, 255691, Note_off_c, 0, 50, 55
1, 255702, Note_off_c, 0, 68, 62
1, 255704, Note_on_c, 0, 77, 63
1, 255737, Note_on_c, 0, 76, 40
1, 255751, Note_off_c, 0, 77, 53
1, 255761, Poly_aftertouch_c, 0, 52, 0
1, 255775, Note_off_c, 0, 76, 53
1, 255795, Note_on_c, 0, 64, 69
1, 255809, Note_on_c, 0, 61, 88
1, 255835, Note_on_c, 0, 51, 48
1, 255838, Note_off_c, 0, 61, 61
1, 255860, Note_off_c, 0, 51, 56
1, 255867, Note_on_c, 0, 76, 68
1, 255876, Note_off_c, 0, 64, 60
1, 255910, Control_c, 0, 64, 83
1, 255926, Control_c, 0, 64, 17
1, 255941, Control_c, 0, 64, 0
1, 255943, Note_on_c, 0, 57, 94
1, 255950, Note_on_c, 0, 69, 84
1, 255953, Note_on_c, 0, 45, 87
1, 255966, Note_off_c, 0, 76, 63
1, 255970, Note_on_c, 0, 55, 61
1, 255971, Note_off_c, 0, 55, 127
1, 255971, Control_c, 0, 64, 44
1, 255984, Note_off_c, 0, 57, 65
1, 255985, Control_c, 0, 64, 73
1, 255990, Note_off_c, 0, 45, 60
1, 256000, Control_c, 0, 64, 127
1, 256017, Note_off_c, 0, 69, 53
1, 256036, Note_on_c, 0, 73, 76
1, 256101, Note_on_c, 0, 64, 86
1, 256125, Note_off_c, 0, 64, 64
1, 256128, Note_on_c, 0, 70, 80
1, 256134, Note_on_c, 0, 52, 36
1, 256137, Note_off_c, 0, 73, 59
1, 256150, Note_off_c, 0, 70, 67
1, 256169, Note_off_c, 0, 52, 50
1, 256186, Note_on_c, 0, 71, 39
1, 256199, Note_on_c, 0, 78, 62
1, 256215, Note_off_c, 0, 71, 52
1, 256224, Note_on_c, 0, 79, 54
1, 256244, Note_off_c, 0, 79, 63
1, 256251, Note_on_c, 0, 63, 93
1, 256263, Note_on_c, 0, 51, 70
1, 256286, Note_on_c, 0, 66, 81
1, 256289, Note_off_c, 0, 51, 64
1, 256296, Note_off_c, 0, 63, 60
1, 256329, Note_off_c, 0, 78, 0
1, 256344, Note_on_c, 0, 78, 36
1, 256347, Note_off_c, 0, 66, 60
1, 256385, Note_on_c, 0, 71, 59
1, 256388, Note_off_c, 0, 78, 62
1, 256428, Note_on_c, 0, 60, 89
1, 256429, Note_on_c, 0, 48, 79
1, 256456, Note_off_c, 0, 60, 60
1, 256458, Note_on_c, 0, 75, 73
1, 256458, Note_off_c, 0, 71, 61
1, 256465, Note_off_c, 0, 48, 57
1, 256486, Note_off_c, 0, 75, 61
1, 256553, Note_on_c, 0, 72, 80
1, 256620, Note_off_c, 0, 72, 59
1, 256637, Note_on_c, 0, 81, 67
1, 256667, Note_off_c, 0, 81, 65
1, 256673, Control_c, 0, 64, 75
1, 256688, Control_c, 0, 64, 0
1, 256715, Note_on_c, 0, 73, 99
1, 256721, Note_on_c, 0, 78, 93
1, 256721, Note_on_c, 0, 49, 94
1, 256722, Note_on_c, 0, 85, 85
1, 256734, Note_on_c, 0, 37, 82
1, 256734, Note_on_c, 0, 81, 65
1, 256742, Note_on_c, 0, 83, 56
1, 256749, Control_c, 0, 64, 73
1, 256756, Note_off_c, 0, 49, 63
1, 256759, Note_off_c, 0, 85, 59
1, 256761, Note_off_c, 0, 37, 64
1, 256764, Control_c, 0, 64, 127
1, 256765, Note_off_c, 0, 83, 58
1, 256770, Note_on_c, 0, 77, 59
1, 256788, Note_off_c, 0, 78, 58
1, 256795, Note_off_c, 0, 73, 50
1, 256797, Note_off_c, 0, 81, 62
1, 256799, Note_off_c, 0, 77, 66
1, 256833, Poly_aftertouch_c, 0, 72, 0
1, 257024, Note_on_c, 0, 72, 69
1, 257064, Note_on_c, 0, 69, 90
1, 257075, Note_on_c, 0, 61, 70
1, 257083, Note_on_c, 0, 66, 73
1, 257086, Note_on_c, 0, 57, 61
1, 257086, Note_on_c, 0, 73, 72
1, 257086, Note_off_c, 0, 72, 57
1, 257108, Note_off_c, 0, 69, 64
1, 257111, Note_off_c, 0, 66, 62
1, 257118, Note_off_c, 0, 57, 64
1, 257122, Note_off_c, 0, 61, 59
1, 257147, Note_off_c, 0, 73, 61
1, 257156, Note_on_c, 0, 75, 67
1, 257170, Note_on_c, 0, 69, 87
1, 257180, Note_off_c, 0, 75, 66
1, 257183, Note_on_c, 0, 61, 61
1, 257185, Note_on_c, 0, 57, 68
1, 257189, Note_on_c, 0, 66, 74
1, 257218, Note_off_c, 0, 57, 62
1, 257242, Note_off_c, 0, 69, 61
1, 257244, Note_on_c, 0, 77, 81
1, 257251, Note_off_c, 0, 66, 61
1, 257252, Note_off_c, 0, 61, 61
1, 257317, Note_on_c, 0, 78, 77
1, 257325, Note_on_c, 0, 69, 93
1, 257326, Note_off_c, 0, 77, 55
1, 257338, Note_on_c, 0, 61, 73
1, 257341, Note_on_c, 0, 66, 76
1, 257342, Note_on_c, 0, 57, 58
1, 257371, Note_off_c, 0, 57, 64
1, 257385, Note_off_c, 0, 78, 63
1, 257386, Note_off_c, 0, 69, 61
1, 257387, Note_on_c, 0, 80, 74
1, 257394, Note_off_c, 0, 61, 62
1, 257396, Note_off_c, 0, 66, 59
1, 257432, Note_off_c, 0, 80, 62
1, 257463, Note_on_c, 0, 81, 78
1, 257475, Note_on_c, 0, 69, 93
1, 257489, Note_on_c, 0, 57, 39
1, 257489, Note_on_c, 0, 61, 72
1, 257493, Note_on_c, 0, 66, 74
1, 257536, Note_off_c, 0, 57, 60
1, 257545, Note_off_c, 0, 81, 61
1, 257552, Note_on_c, 0, 83, 68
1, 257573, Note_off_c, 0, 69, 0
1, 257585, Note_on_c, 0, 69, 55
1, 257600, Note_on_c, 0, 85, 80
1, 257607, Note_off_c, 0, 83, 62
1, 257619, Note_on_c, 0, 57, 64
1, 257653, Note_off_c, 0, 57, 62
1, 257665, Note_off_c, 0, 69, 61
1, 257682, Note_on_c, 0, 87, 75
1, 257682, Note_off_c, 0, 66, 59
1, 257683, Note_off_c, 0, 61, 61
1, 257689, Note_off_c, 0, 85, 65
1, 257714, Note_off_c, 0, 87, 62
1, 257719, Control_c, 0, 64, 69
1, 257734, Control_c, 0, 64, 0
1, 257754, Note_on_c, 0, 69, 103
1, 257767, Note_on_c, 0, 61, 82
1, 257770, Note_on_c, 0, 89, 88
1, 257770, Note_on_c, 0, 66, 69
1, 257773, Note_on_c, 0, 57, 46
1, 257779, Control_c, 0, 64, 50
1, 257793, Control_c, 0, 64, 70
1, 257794, Note_on_c, 0, 67, 58
1, 257798, Note_on_c, 0, 63, 39
1, 257801, Note_on_c, 0, 59, 46
1, 257803, Note_off_c, 0, 66, 0
1, 257803, Note_on_c, 0, 66, 45
1, 257808, Control_c, 0, 64, 96
1, 257823, Control_c, 0, 64, 127
1, 257834, Note_off_c, 0, 89, 64
1, 257835, Note_off_c, 0, 67, 0
1, 257835, Note_on_c, 0, 67, 16
1, 257838, Note_on_c, 0, 90, 78
1, 257842, Note_off_c, 0, 59, 44
1, 257854, Note_off_c, 0, 63, 38
1, 257879, Note_off_c, 0, 67, 47
1, 257904, Note_on_c, 0, 92, 67
1, 257922, Note_off_c, 0, 90, 62
1, 257929, Note_off_c, 0, 92, 66
1, 257976, Note_on_c, 0, 93, 74
1, 258046, Note_on_c, 0, 90, 71
1, 258077, Note_off_c, 0, 93, 51
1, 258110, Note_on_c, 0, 85, 67
1, 258116, Note_off_c, 0, 69, 61
1, 258117, Note_off_c, 0, 90, 65
1, 258132, Note_off_c, 0, 85, 70
1, 258172, Note_off_c, 0, 66, 56
1, 258190, Note_on_c, 0, 81, 40
1, 258208, Poly_aftertouch_c, 0, 63, 127
1, 258215, Note_off_c, 0, 81, 56
1, 258219, Note_off_c, 0, 61, 58
1, 258240, Note_off_c, 0, 57, 36
1, 258244, Poly_aftertouch_c, 0, 63, 0
1, 258256, Note_on_c, 0, 78, 68
1, 258282, Poly_aftertouch_c, 0, 79, 0
1, 258327, Note_on_c, 0, 73, 74
1, 258336, Note_off_c, 0, 78, 61
1, 258380, Note_off_c, 0, 73, 56
1, 258397, Note_on_c, 0, 69, 69
1, 258420, Note_off_c, 0, 69, 68
1, 258469, Note_on_c, 0, 49, 91
1, 258475, Note_on_c, 0, 37, 79
1, 258491, Note_on_c, 0, 66, 60
1, 258499, Note_off_c, 0, 49, 62
1, 258509, Note_off_c, 0, 37, 63
1, 258558, Note_on_c, 0, 61, 75
1, 258575, Note_off_c, 0, 66, 56
1, 258602, Control_c, 0, 64, 71
1, 258616, Control_c, 0, 64, 0
1, 258621, Note_off_c, 0, 61, 57
1, 258636, Note_on_c, 0, 48, 100
1, 258646, Note_on_c, 0, 57, 86
1, 258648, Note_on_c, 0, 36, 83
1, 258671, Note_off_c, 0, 36, 66
1, 258673, Note_off_c, 0, 48, 66
1, 258675, Control_c, 0, 64, 57
1, 258690, Control_c, 0, 64, 81
1, 258696, Note_on_c, 0, 44, 26
1, 258697, Note_off_c, 0, 44, 127
1, 258705, Control_c, 0, 64, 127
1, 258730, Poly_aftertouch_c, 0, 44, 0
1, 258733, Note_on_c, 0, 66, 69
1, 258736, Note_off_c, 0, 57, 55
1, 258765, Poly_aftertouch_c, 0, 37, 0
1, 258813, Note_on_c, 0, 63, 68
1, 258829, Note_off_c, 0, 66, 59
1, 258837, Note_off_c, 0, 63, 66
1, 258838, Note_on_c, 0, 69, 53
1, 258870, Note_on_c, 0, 63, 83
1, 258871, Note_off_c, 0, 69, 63
1, 258873, Note_on_c, 0, 54, 67
1, 258900, Note_on_c, 0, 57, 28
1, 258914, Note_off_c, 0, 54, 57
1, 258915, Note_off_c, 0, 63, 55
1, 258931, Note_on_c, 0, 69, 82
1, 258936, Note_off_c, 0, 57, 52
1, 258961, Note_on_c, 0, 63, 91
1, 258975, Note_on_c, 0, 54, 74
1, 258989, Note_on_c, 0, 57, 62
1, 259025, Note_off_c, 0, 69, 56
1, 259033, Note_off_c, 0, 63, 62
1, 259043, Note_off_c, 0, 54, 55
1, 259043, Note_on_c, 0, 78, 66
1, 259057, Note_off_c, 0, 57, 61
1, 259119, Note_on_c, 0, 63, 100
1, 259126, Note_on_c, 0, 75, 73
1, 259129, Note_on_c, 0, 54, 84
1, 259133, Note_on_c, 0, 57, 74
1, 259150, Note_off_c, 0, 78, 61
1, 259162, Note_on_c, 0, 81, 66
1, 259165, Note_off_c, 0, 63, 64
1, 259173, Note_off_c, 0, 75, 61
1, 259184, Note_off_c, 0, 57, 57
1, 259188, Note_off_c, 0, 81, 67
1, 259192, Note_off_c, 0, 54, 60
1, 259265, Note_on_c, 0, 81, 52
1, 259269, Note_on_c, 0, 79, 68
1, 259296, Note_off_c, 0, 79, 67
1, 259331, Note_off_c, 0, 81, 58
1, 259348, Note_on_c, 0, 90, 74
1, 259411, Note_on_c, 0, 48, 94
1, 259419, Note_on_c, 0, 36, 81
1, 259426, Note_on_c, 0, 87, 78
1, 259434, Note_off_c, 0, 90, 60
1, 259450, Note_off_c, 0, 36, 64
1, 259454, Note_off_c, 0, 48, 61
1, 259460, Note_on_c, 0, 47, 19
1, 259461, Note_off_c, 0, 47, 127
1, 259505, Note_on_c, 0, 93, 79
1, 259506, Poly_aftertouch_c, 0, 47, 0
1, 259511, Note_off_c, 0, 87, 61
1, 259535, Control_c, 0, 64, 72
1, 259550, Control_c, 0, 64, 0
1, 259553, Note_off_c, 0, 93, 63
1, 259585, Note_on_c, 0, 47, 101
1, 259590, Note_on_c, 0, 90, 92
1, 259594, Control_c, 0, 64, 36
1, 259595, Note_on_c, 0, 35, 85
1, 259609, Control_c, 0, 64, 87
1, 259619, Note_off_c, 0, 35, 64
1, 259621, Note_off_c, 0, 47, 67
1, 259624, Control_c, 0, 64, 127
1, 259661, Note_on_c, 0, 93, 67
1, 259670, Poly_aftertouch_c, 0, 42, 127
1, 259674, Poly_aftertouch_c, 0, 37, 127
1, 259711, Note_on_c, 0, 87, 70
1, 259714, Poly_aftertouch_c, 0, 42, 0
1, 259714, Poly_aftertouch_c, 0, 37, 0
1, 259722, Note_off_c, 0, 90, 60
1, 259728, Note_off_c, 0, 93, 63
1, 259731, Poly_aftertouch_c, 0, 39, 0
1, 259762, Note_off_c, 0, 87, 62
1, 259798, Note_on_c, 0, 81, 56
1, 259815, Note_off_c, 0, 81, 65
1, 259832, Note_on_c, 0, 63, 65
1, 259839, Note_on_c, 0, 54, 50
1, 259842, Note_on_c, 0, 56, 64
1, 259855, Note_off_c, 0, 63, 55
1, 259860, Note_on_c, 0, 65, 44
1, 259871, Note_on_c, 0, 64, 27
1, 259874, Note_off_c, 0, 56, 62
1, 259886, Note_off_c, 0, 65, 54
1, 259890, Note_on_c, 0, 78, 67
1, 259890, Note_off_c, 0, 54, 60
1, 259906, Note_off_c, 0, 64, 54
1, 259935, Note_on_c, 0, 63, 89
1, 259943, Note_on_c, 0, 54, 59
1, 259973, Note_on_c, 0, 81, 64
1, 259987, Note_on_c, 0, 56, 10
1, 259993, Note_on_c, 0, 53, 37
1, 260009, Note_off_c, 0, 63, 61
1, 260022, Note_off_c, 0, 78, 48
1, 260028, Note_off_c, 0, 53, 47
1, 260030, Note_off_c, 0, 54, 58
1, 260039, Note_off_c, 0, 56, 46
1, 260095, Note_on_c, 0, 63, 102
1, 260098, Note_on_c, 0, 75, 82
1, 260104, Note_on_c, 0, 54, 80
1, 260104, Note_on_c, 0, 57, 81
1, 260119, Note_off_c, 0, 81, 62
1, 260136, Note_off_c, 0, 63, 66
1, 260154, Note_off_c, 0, 57, 60
1, 260170, Note_off_c, 0, 75, 60
1, 260171, Poly_aftertouch_c, 0, 58, 0
1, 260173, Note_off_c, 0, 54, 60
1, 260185, Note_on_c, 0, 69, 65
1, 260206, Poly_aftertouch_c, 0, 58, 0
1, 260210, Note_off_c, 0, 69, 63
1, 260286, Note_on_c, 0, 66, 67
1, 260334, Note_on_c, 0, 69, 36
1, 260402, Control_c, 0, 64, 82
1, 260405, Note_on_c, 0, 63, 70
1, 260406, Note_off_c, 0, 66, 55
1, 260412, Note_on_c, 0, 47, 86
1, 260417, Control_c, 0, 64, 46
1, 260432, Control_c, 0, 64, 0
1, 260433, Note_off_c, 0, 69, 61
1, 260433, Note_on_c, 0, 35, 61
1, 260467, Note_on_c, 0, 57, 74
1, 260470, Note_off_c, 0, 35, 60
1, 260481, Note_off_c, 0, 63, 56
1, 260486, Note_off_c, 0, 47, 62
1, 260502, Note_off_c, 0, 57, 62
1, 260558, Note_on_c, 0, 46, 99
1, 260563, Note_on_c, 0, 58, 92
1, 260566, Control_c, 0, 64, 82
1, 260567, Note_on_c, 0, 34, 88
1, 260572, Note_on_c, 0, 63, 88
1, 260581, Control_c, 0, 64, 127
1, 260581, Note_on_c, 0, 70, 70
1, 260587, Poly_aftertouch_c, 0, 67, 127
1, 260602, Note_on_c, 0, 68, 45
1, 260611, Note_off_c, 0, 70, 63
1, 260619, Note_off_c, 0, 58, 58
1, 260630, Poly_aftertouch_c, 0, 67, 0
1, 260632, Note_off_c, 0, 68, 54
1, 260633, Note_off_c, 0, 34, 59
1, 260639, Note_off_c, 0, 63, 60
1, 260647, Note_off_c, 0, 46, 61
1, 260730, Control_c, 0, 67, 13
1, 260744, Control_c, 0, 67, 23
1, 260759, Control_c, 0, 67, 35
1, 260774, Control_c, 0, 67, 50
1, 260789, Control_c, 0, 67, 65
1, 260804, Control_c, 0, 64, 108
1, 260804, Control_c, 0, 67, 83
1, 260818, Control_c, 0, 64, 77
1, 260818, Control_c, 0, 67, 108
1, 260833, Control_c, 0, 64, 58
1, 260833, Control_c, 0, 67, 127
1, 260848, Control_c, 0, 64, 0
1, 260878, Note_on_c, 0, 57, 57
1, 260933, Note_off_c, 0, 57, 55
1, 260940, Note_on_c, 0, 58, 51
1, 260970, Note_off_c, 0, 58, 62
1, 261008, Note_on_c, 0, 60, 44
1, 261045, Note_off_c, 0, 60, 64
1, 261046, Note_on_c, 0, 62, 56
1, 261081, Note_off_c, 0, 62, 63
1, 261122, Note_on_c, 0, 63, 66
1, 261159, Note_off_c, 0, 63, 58
1, 261191, Note_on_c, 0, 64, 59
1, 261255, Note_off_c, 0, 64, 53
1, 261270, Note_on_c, 0, 63, 51
1, 261274, Note_on_c, 0, 67, 54
1, 261311, Note_on_c, 0, 60, 23
1, 261318, Note_off_c, 0, 67, 60
1, 261337, Note_on_c, 0, 65, 61
1, 261360, Note_off_c, 0, 60, 43
1, 261362, Note_on_c, 0, 56, 22
1, 261363, Note_on_c, 0, 58, 46
1, 261371, Note_off_c, 0, 63, 62
1, 261380, Note_off_c, 0, 65, 55
1, 261408, Note_on_c, 0, 62, 52
1, 261424, Note_on_c, 0, 67, 60
1, 261448, Note_off_c, 0, 58, 58
1, 261460, Note_off_c, 0, 56, 36
1, 261490, Note_off_c, 0, 62, 55
1, 261496, Note_off_c, 0, 67, 59
1, 261499, Note_on_c, 0, 65, 64
1, 261562, Note_on_c, 0, 63, 60
1, 261571, Note_off_c, 0, 65, 59
1, 261585, Note_on_c, 0, 72, 58
1, 261600, Note_off_c, 0, 63, 61
1, 261601, Note_on_c, 0, 58, 27
1, 261636, Note_off_c, 0, 58, 47
1, 261651, Note_on_c, 0, 70, 65
1, 261685, Note_off_c, 0, 70, 64
1, 261685, Note_off_c, 0, 72, 53
1, 261741, Note_on_c, 0, 69, 64
1, 261803, Note_on_c, 0, 70, 72
1, 261806, Note_off_c, 0, 69, 59
1, 261830, Note_off_c, 0, 70, 64
1, 261860, Note_on_c, 0, 72, 59
1, 261930, Note_on_c, 0, 74, 65
1, 261936, Note_off_c, 0, 72, 62
1, 261959, Note_off_c, 0, 74, 64
1, 261992, Note_on_c, 0, 75, 76
1, 262027, Note_off_c, 0, 75, 57
1, 262060, Note_on_c, 0, 76, 65
1, 262110, Note_off_c, 0, 76, 47
1, 262131, Note_on_c, 0, 75, 63
1, 262138, Note_on_c, 0, 79, 64
1, 262170, Note_on_c, 0, 69, 28
1, 262172, Note_on_c, 0, 72, 40
1, 262176, Note_off_c, 0, 79, 55
1, 262195, Note_on_c, 0, 77, 68
1, 262226, Note_off_c, 0, 75, 61
1, 262255, Note_off_c, 0, 72, 52
1, 262259, Note_on_c, 0, 70, 47
1, 262262, Note_off_c, 0, 77, 50
1, 262272, Note_on_c, 0, 74, 48
1, 262279, Note_on_c, 0, 79, 67
1, 262281, Note_off_c, 0, 69, 32
1, 262286, Note_on_c, 0, 68, 34
1, 262322, Note_off_c, 0, 70, 55
1, 262334, Note_off_c, 0, 68, 45
1, 262354, Note_off_c, 0, 79, 62
1, 262362, Note_on_c, 0, 77, 71
1, 262373, Note_off_c, 0, 74, 51
1, 262423, Note_on_c, 0, 75, 66
1, 262429, Note_off_c, 0, 77, 60
1, 262431, Note_on_c, 0, 84, 65
1, 262432, Note_on_c, 0, 67, 44
1, 262451, Note_on_c, 0, 70, 46
1, 262458, Note_off_c, 0, 67, 56
1, 262468, Note_off_c, 0, 75, 58
1, 262474, Note_off_c, 0, 70, 58
1, 262504, Note_on_c, 0, 82, 69
1, 262528, Note_off_c, 0, 84, 58
1, 262528, Note_off_c, 0, 82, 68
1, 262573, Note_on_c, 0, 81, 73
1, 262635, Note_on_c, 0, 82, 71
1, 262636, Note_off_c, 0, 81, 60
1, 262664, Note_off_c, 0, 82, 61
1, 262703, Note_on_c, 0, 84, 64
1, 262763, Note_on_c, 0, 86, 70
1, 262772, Note_off_c, 0, 84, 62
1, 262793, Note_off_c, 0, 86, 65
1, 262820, Note_on_c, 0, 87, 80
1, 262854, Note_off_c, 0, 87, 57
1, 262872, Note_on_c, 0, 88, 76
1, 262942, Note_off_c, 0, 88, 62
1, 262952, Note_on_c, 0, 91, 69
1, 262954, Note_on_c, 0, 87, 62
1, 263016, Note_on_c, 0, 84, 27
1, 263016, Note_off_c, 0, 91, 62
1, 263020, Note_on_c, 0, 89, 70
1, 263040, Note_off_c, 0, 87, 62
1, 263066, Note_on_c, 0, 82, 46
1, 263067, Note_on_c, 0, 80, 36
1, 263070, Note_off_c, 0, 84, 41
1, 263082, Note_off_c, 0, 89, 58
1, 263085, Note_on_c, 0, 86, 55
1, 263097, Note_on_c, 0, 91, 66
1, 263148, Note_off_c, 0, 82, 60
1, 263156, Note_on_c, 0, 89, 68
1, 263158, Note_off_c, 0, 80, 61
1, 263177, Note_off_c, 0, 86, 62
1, 263179, Note_off_c, 0, 91, 60
1, 263183, Control_c, 0, 64, 12
1, 263198, Control_c, 0, 64, 35
1, 263213, Control_c, 0, 64, 53
1, 263228, Control_c, 0, 64, 64
1, 263236, Note_on_c, 0, 87, 75
1, 263237, Note_on_c, 0, 94, 90
1, 263249, Note_off_c, 0, 89, 65
1, 263250, Control_c, 0, 64, 69
1, 263256, Note_on_c, 0, 79, 47
1, 263259, Note_on_c, 0, 82, 59
1, 263261, Note_off_c, 0, 87, 66
1, 263264, Control_c, 0, 64, 76
1, 263278, Note_off_c, 0, 79, 60
1, 263279, Note_off_c, 0, 82, 65
1, 263279, Control_c, 0, 64, 87
1, 263283, Note_off_c, 0, 94, 65
1, 263294, Control_c, 0, 64, 97
1, 263309, Control_c, 0, 64, 109
1, 263324, Control_c, 0, 64, 127
1, 263407, Note_on_c, 0, 81, 69
1, 263443, Control_c, 0, 64, 110
1, 263457, Control_c, 0, 64, 85
1, 263463, Note_off_c, 0, 81, 59
1, 263472, Control_c, 0, 64, 68
1, 263485, Note_on_c, 0, 82, 42
1, 263487, Control_c, 0, 64, 34
1, 263502, Control_c, 0, 64, 0
1, 263512, Note_off_c, 0, 82, 37
1, 263522, Note_on_c, 0, 84, 58
1, 263523, Note_on_c, 0, 83, 35
1, 263550, Note_off_c, 0, 83, 55
1, 263574, Note_on_c, 0, 86, 66
1, 263579, Note_off_c, 0, 84, 62
1, 263601, Note_off_c, 0, 86, 66
1, 263647, Note_on_c, 0, 87, 83
1, 263687, Note_off_c, 0, 87, 59
1, 263708, Note_on_c, 0, 88, 68
1, 263779, Note_off_c, 0, 88, 59
1, 263788, Note_on_c, 0, 91, 69
1, 263794, Note_on_c, 0, 87, 67
1, 263848, Note_off_c, 0, 91, 62
1, 263851, Note_on_c, 0, 89, 69
1, 263878, Note_off_c, 0, 87, 59
1, 263889, Poly_aftertouch_c, 0, 81, 127
1, 263914, Note_off_c, 0, 89, 56
1, 263927, Note_on_c, 0, 82, 40
1, 263928, Poly_aftertouch_c, 0, 81, 0
1, 263929, Note_on_c, 0, 91, 65
1, 263932, Note_on_c, 0, 80, 49
1, 263933, Note_on_c, 0, 86, 60
1, 263987, Note_off_c, 0, 82, 61
1, 264001, Note_on_c, 0, 89, 71
1, 264012, Note_off_c, 0, 86, 61
1, 264028, Note_off_c, 0, 91, 60
1, 264038, Note_off_c, 0, 80, 59
1, 264057, Note_on_c, 0, 87, 84
1, 264063, Note_on_c, 0, 94, 88
1, 264073, Note_on_c, 0, 79, 57
1, 264073, Control_c, 0, 64, 26
1, 264076, Note_off_c, 0, 89, 65
1, 264080, Note_on_c, 0, 82, 74
1, 264087, Control_c, 0, 64, 62
1, 264093, Note_off_c, 0, 79, 66
1, 264094, Note_off_c, 0, 87, 62
1, 264101, Note_off_c, 0, 82, 68
1, 264102, Control_c, 0, 64, 68
1, 264110, Note_off_c, 0, 94, 65
1, 264117, Control_c, 0, 64, 78
1, 264132, Control_c, 0, 64, 90
1, 264147, Control_c, 0, 64, 116
1, 264161, Control_c, 0, 64, 127
1, 264176, Control_c, 0, 67, 120
1, 264191, Control_c, 0, 67, 98
1, 264206, Control_c, 0, 67, 61
1, 264221, Control_c, 0, 67, 23
1, 264236, Control_c, 0, 67, 0
1, 264355, Note_on_c, 0, 89, 100
1, 264404, Note_on_c, 0, 91, 10
1, 264405, Note_off_c, 0, 91, 127
1, 264416, Note_on_c, 0, 100, 8
1, 264440, Note_off_c, 0, 100, 35
1, 264484, Note_off_c, 0, 89, 61
1, 264561, Control_c, 0, 64, 78
1, 264576, Control_c, 0, 64, 49
1, 264582, Note_on_c, 0, 69, 98
1, 264588, Note_on_c, 0, 101, 106
1, 264591, Control_c, 0, 64, 0
1, 264595, Note_on_c, 0, 60, 77
1, 264597, Note_on_c, 0, 65, 77
1, 264600, Note_on_c, 0, 63, 77
1, 264605, Control_c, 0, 64, 30
1, 264620, Control_c, 0, 64, 67
1, 264635, Control_c, 0, 64, 96
1, 264650, Control_c, 0, 64, 127
1, 264687, Poly_aftertouch_c, 0, 62, 127
1, 264730, Poly_aftertouch_c, 0, 62, 0
1, 264735, Note_on_c, 0, 100, 75
1, 264797, Note_on_c, 0, 99, 71
1, 264839, Note_off_c, 0, 100, 59
1, 264839, Note_off_c, 0, 101, 53
1, 264878, Note_off_c, 0, 99, 62
1, 264885, Note_on_c, 0, 98, 39
1, 264914, Note_off_c, 0, 98, 35
1, 264933, Note_on_c, 0, 96, 51
1, 264954, Note_off_c, 0, 96, 60
1, 264987, Note_on_c, 0, 94, 76
1, 265041, Note_on_c, 0, 93, 72
1, 265067, Note_off_c, 0, 65, 55
1, 265071, Note_off_c, 0, 69, 58
1, 265094, Note_off_c, 0, 63, 56
1, 265101, Note_off_c, 0, 94, 64
1, 265109, Note_off_c, 0, 60, 57
1, 265110, Note_on_c, 0, 91, 72
1, 265129, Note_off_c, 0, 93, 63
1, 265158, Note_off_c, 0, 91, 50
1, 265180, Note_on_c, 0, 89, 67
1, 265207, Note_off_c, 0, 89, 63
1, 265255, Note_on_c, 0, 88, 68
1, 265297, Note_on_c, 0, 87, 69
1, 265350, Note_off_c, 0, 88, 63
1, 265353, Note_on_c, 0, 86, 72
1, 265378, Note_off_c, 0, 87, 61
1, 265386, Note_off_c, 0, 86, 60
1, 265430, Note_on_c, 0, 84, 69
1, 265457, Note_off_c, 0, 84, 61
1, 265511, Note_on_c, 0, 82, 76
1, 265573, Note_on_c, 0, 81, 77
1, 265605, Note_on_c, 0, 47, 42
1, 265643, Note_on_c, 0, 79, 79
1, 265652, Note_off_c, 0, 82, 61
1, 265663, Note_on_c, 0, 51, 60
1, 265673, Note_off_c, 0, 81, 64
1, 265706, Note_off_c, 0, 47, 36
1, 265723, Note_off_c, 0, 79, 61
1, 265726, Note_on_c, 0, 77, 78
1, 265756, Note_on_c, 0, 56, 74
1, 265766, Note_off_c, 0, 77, 51
1, 265788, Note_off_c, 0, 51, 58
1, 265807, Note_on_c, 0, 76, 82
1, 265875, Note_on_c, 0, 63, 102
1, 265888, Note_on_c, 0, 75, 92
1, 265923, Note_off_c, 0, 76, 64
1, 265928, Note_on_c, 0, 53, 36
1, 266057, Note_on_c, 0, 73, 74
1, 266061, Note_off_c, 0, 75, 58
1, 266068, Note_off_c, 0, 63, 59
1, 266087, Note_off_c, 0, 56, 25
1, 266115, Note_off_c, 0, 73, 61
1, 266148, Note_on_c, 0, 71, 74
1, 266150, Note_off_c, 0, 53, 38
1, 266231, Note_off_c, 0, 71, 61
1, 266243, Note_on_c, 0, 69, 60
1, 266298, Note_on_c, 0, 68, 78
1, 266334, Note_off_c, 0, 69, 59
1, 266378, Note_on_c, 0, 66, 72
1, 266396, Note_off_c, 0, 68, 60
1, 266455, Note_off_c, 0, 66, 61
1, 266459, Note_on_c, 0, 65, 75
1, 266524, Note_off_c, 0, 65, 57
1, 266528, Note_on_c, 0, 63, 81
1, 266564, Note_on_c, 0, 35, 96
1, 266608, Note_on_c, 0, 61, 78
1, 266638, Note_off_c, 0, 63, 61
1, 266680, Note_off_c, 0, 61, 64
1, 266709, Note_on_c, 0, 59, 75
1, 266791, Note_on_c, 0, 58, 65
1, 266791, Note_off_c, 0, 59, 60
1, 266853, Note_on_c, 0, 56, 73
1, 266919, Note_off_c, 0, 58, 59
1, 266932, Note_on_c, 0, 54, 80
1, 266966, Note_off_c, 0, 56, 58
1, 267017, Note_off_c, 0, 54, 60
1, 267031, Note_on_c, 0, 53, 80
1, 267109, Note_off_c, 0, 53, 53
1, 267111, Note_on_c, 0, 51, 78
1, 267194, Note_on_c, 0, 49, 78
1, 267227, Note_off_c, 0, 51, 59
1, 267260, Note_off_c, 0, 49, 62
1, 267293, Note_on_c, 0, 47, 77
1, 267381, Note_on_c, 0, 46, 78
1, 267404, Note_off_c, 0, 47, 59
1, 267466, Note_on_c, 0, 44, 79
1, 267531, Note_off_c, 0, 46, 60
1, 267556, Note_on_c, 0, 42, 82
1, 267595, Note_off_c, 0, 44, 62
1, 267649, Note_off_c, 0, 42, 60
1, 267661, Note_on_c, 0, 41, 77
1, 267699, Note_off_c, 0, 35, 57
1, 267748, Note_on_c, 0, 39, 83
1, 267758, Note_off_c, 0, 41, 58
1, 267843, Note_on_c, 0, 37, 81
1, 267884, Note_off_c, 0, 39, 58
1, 267945, Note_on_c, 0, 35, 86
1, 267964, Note_off_c, 0, 37, 59
1, 268076, Note_off_c, 0, 35, 58
1, 268099, Control_c, 0, 64, 95
1, 268114, Control_c, 0, 64, 57
1, 268114, Control_c, 0, 67, 10
1, 268127, Note_on_c, 0, 34, 91
1, 268129, Control_c, 0, 64, 0
1, 268129, Control_c, 0, 67, 11
1, 268133, Note_on_c, 0, 22, 86
1, 268144, Control_c, 0, 67, 12
1, 268173, Control_c, 0, 64, 53
1, 268188, Control_c, 0, 64, 81
1, 268197, Note_on_c, 0, 30, 7
1, 268203, Control_c, 0, 64, 127
1, 268203, Control_c, 0, 67, 11
1, 268218, Control_c, 0, 67, 10
1, 268233, Control_c, 0, 67, 9
1, 268247, Control_c, 0, 67, 0
1, 268251, Note_off_c, 0, 30, 45
1, 268449, Note_off_c, 0, 22, 58
1, 268506, Note_off_c, 0, 34, 60
1, 268752, Note_on_c, 0, 41, 75
1, 268886, Note_on_c, 0, 46, 78
1, 268944, Note_off_c, 0, 41, 56
1, 269024, Note_on_c, 0, 50, 79
1, 269035, Note_off_c, 0, 46, 61
1, 269140, Note_on_c, 0, 46, 77
1, 269169, Note_off_c, 0, 50, 56
1, 269241, Note_on_c, 0, 41, 76
1, 269277, Note_off_c, 0, 46, 62
1, 269379, Note_off_c, 0, 41, 60
1, 269386, Note_on_c, 0, 67, 84
1, 269395, Note_on_c, 0, 34, 70
1, 269396, Note_on_c, 0, 58, 74
1, 269407, Note_on_c, 0, 62, 68
1, 269490, Note_on_c, 0, 41, 61
1, 269491, Note_off_c, 0, 34, 59
1, 269573, Note_on_c, 0, 46, 70
1, 269598, Note_off_c, 0, 58, 58
1, 269613, Note_off_c, 0, 41, 59
1, 269634, Note_off_c, 0, 62, 52
1, 269641, Note_on_c, 0, 50, 72
1, 269645, Note_off_c, 0, 67, 58
1, 269738, Note_on_c, 0, 56, 87
1, 269741, Note_on_c, 0, 67, 89
1, 269743, Note_on_c, 0, 41, 71
1, 269747, Note_on_c, 0, 62, 79
1, 269753, Note_off_c, 0, 50, 59
1, 269785, Note_off_c, 0, 46, 62
1, 269798, Note_off_c, 0, 41, 61
1, 269859, Note_off_c, 0, 56, 56
1, 269886, Note_off_c, 0, 67, 48
1, 269928, Note_off_c, 0, 62, 49
1, 270010, Note_on_c, 0, 63, 84
1, 270016, Note_on_c, 0, 55, 80
1, 270019, Control_c, 0, 64, 95
1, 270033, Control_c, 0, 64, 69
1, 270034, Note_on_c, 0, 39, 64
1, 270048, Control_c, 0, 64, 26
1, 270063, Control_c, 0, 64, 0
1, 270107, Control_c, 0, 64, 54
1, 270122, Control_c, 0, 64, 68
1, 270137, Control_c, 0, 64, 78
1, 270149, Note_on_c, 0, 46, 65
1, 270151, Control_c, 0, 64, 101
1, 270166, Control_c, 0, 64, 127
1, 270168, Note_off_c, 0, 39, 56
1, 270218, Note_off_c, 0, 55, 60
1, 270248, Note_on_c, 0, 51, 71
1, 270287, Note_off_c, 0, 63, 61
1, 270304, Note_off_c, 0, 46, 57
1, 270349, Note_on_c, 0, 55, 73
1, 270358, Note_off_c, 0, 51, 59
1, 270444, Note_off_c, 0, 55, 49
1, 270454, Note_on_c, 0, 51, 61
1, 270490, Note_on_c, 0, 75, 87
1, 270494, Note_on_c, 0, 63, 89
1, 270501, Note_on_c, 0, 67, 75
1, 270515, Note_on_c, 0, 46, 70
1, 270527, Note_off_c, 0, 51, 59
1, 270538, Note_on_c, 0, 73, 43
1, 270613, Note_off_c, 0, 46, 60
1, 270644, Note_on_c, 0, 39, 62
1, 270659, Note_off_c, 0, 73, 37
1, 270698, Note_on_c, 0, 46, 55
1, 270702, Note_off_c, 0, 39, 54
1, 270802, Note_on_c, 0, 51, 69
1, 270847, Note_off_c, 0, 46, 57
1, 270858, Note_off_c, 0, 75, 37
1, 270893, Note_off_c, 0, 51, 58
1, 270899, Note_on_c, 0, 58, 70
1, 270902, Note_off_c, 0, 63, 50
1, 270917, Note_off_c, 0, 67, 54
1, 270966, Note_off_c, 0, 58, 62
1, 270978, Note_on_c, 0, 51, 42
1, 270987, Note_on_c, 0, 74, 79
1, 270990, Note_on_c, 0, 63, 81
1, 271002, Note_on_c, 0, 70, 72
1, 271042, Note_on_c, 0, 46, 65
1, 271080, Note_off_c, 0, 51, 31
1, 271123, Note_off_c, 0, 63, 57
1, 271140, Note_off_c, 0, 74, 56
1, 271142, Note_off_c, 0, 70, 56
1, 271184, Note_off_c, 0, 46, 61
1, 271185, Note_on_c, 0, 41, 69
1, 271197, Control_c, 0, 64, 120
1, 271200, Note_on_c, 0, 72, 79
1, 271206, Note_on_c, 0, 63, 82
1, 271212, Control_c, 0, 64, 78
1, 271217, Note_on_c, 0, 70, 64
1, 271227, Control_c, 0, 64, 58
1, 271241, Control_c, 0, 64, 0
1, 271286, Control_c, 0, 64, 36
1, 271286, Control_c, 0, 67, 8
1, 271295, Note_on_c, 0, 48, 62
1, 271301, Control_c, 0, 64, 65
1, 271301, Control_c, 0, 67, 9
1, 271307, Note_off_c, 0, 41, 57
1, 271315, Control_c, 0, 64, 74
1, 271330, Control_c, 0, 64, 85
1, 271330, Control_c, 0, 67, 9
1, 271345, Control_c, 0, 64, 98
1, 271345, Control_c, 0, 67, 10
1, 271360, Control_c, 0, 64, 103
1, 271375, Control_c, 0, 64, 104
1, 271390, Control_c, 0, 67, 10
1, 271405, Control_c, 0, 64, 105
1, 271405, Control_c, 0, 67, 11
1, 271420, Control_c, 0, 67, 12
1, 271423, Note_on_c, 0, 52, 68
1, 271434, Control_c, 0, 67, 14
1, 271449, Control_c, 0, 64, 105
1, 271449, Control_c, 0, 67, 17
1, 271471, Control_c, 0, 67, 21
1, 271476, Note_off_c, 0, 52, 58
1, 271485, Note_off_c, 0, 48, 49
1, 271486, Control_c, 0, 67, 27
1, 271501, Control_c, 0, 64, 106
1, 271501, Control_c, 0, 67, 34
1, 271516, Control_c, 0, 67, 41
1, 271521, Note_on_c, 0, 58, 70
1, 271522, Note_off_c, 0, 63, 56
1, 271530, Control_c, 0, 67, 46
1, 271545, Control_c, 0, 64, 106
1, 271545, Control_c, 0, 67, 50
1, 271561, Control_c, 0, 67, 52
1, 271576, Control_c, 0, 67, 53
1, 271591, Control_c, 0, 64, 107
1, 271599, Note_off_c, 0, 58, 62
1, 271604, Note_off_c, 0, 70, 49
1, 271661, Note_on_c, 0, 50, 38
1, 271663, Note_on_c, 0, 51, 4
1, 271664, Control_c, 0, 67, 52
1, 271679, Control_c, 0, 67, 52
1, 271694, Note_off_c, 0, 50, 52
1, 271701, Note_on_c, 0, 48, 68
1, 271709, Control_c, 0, 67, 51
1, 271715, Note_off_c, 0, 51, 45
1, 271739, Control_c, 0, 67, 51
1, 271747, Note_off_c, 0, 72, 16
1, 271753, Control_c, 0, 67, 50
1, 271768, Control_c, 0, 67, 50
1, 271783, Control_c, 0, 67, 49
1, 271798, Control_c, 0, 67, 49
1, 271801, Note_off_c, 0, 48, 59
1, 271806, Note_on_c, 0, 74, 93
1, 271813, Control_c, 0, 67, 48
1, 271822, Note_on_c, 0, 65, 65
1, 271827, Note_on_c, 0, 69, 65
1, 271828, Note_on_c, 0, 41, 66
1, 271828, Control_c, 0, 67, 47
1, 271843, Control_c, 0, 67, 46
1, 271857, Control_c, 0, 67, 45
1, 271872, Control_c, 0, 67, 44
1, 271887, Control_c, 0, 67, 42
1, 271902, Control_c, 0, 67, 41
1, 271917, Control_c, 0, 67, 40
1, 271921, Note_on_c, 0, 48, 66
1, 271923, Note_off_c, 0, 41, 58
1, 271932, Control_c, 0, 67, 39
1, 271947, Control_c, 0, 67, 36
1, 271962, Control_c, 0, 67, 31
1, 271977, Control_c, 0, 67, 26
1, 271992, Control_c, 0, 67, 19
1, 272007, Control_c, 0, 67, 11
1, 272008, Note_on_c, 0, 51, 73
1, 272019, Note_off_c, 0, 65, 53
1, 272021, Control_c, 0, 67, 0
1, 272033, Note_off_c, 0, 74, 56
1, 272046, Note_off_c, 0, 48, 57
1, 272061, Note_off_c, 0, 69, 38
1, 272091, Note_on_c, 0, 57, 75
1, 272143, Note_off_c, 0, 51, 0
1, 272158, Note_on_c, 0, 51, 42
1, 272186, Note_on_c, 0, 74, 84
1, 272189, Note_on_c, 0, 63, 83
1, 272195, Note_on_c, 0, 69, 73
1, 272203, Note_off_c, 0, 57, 59
1, 272207, Note_on_c, 0, 48, 68
1, 272257, Note_off_c, 0, 51, 60
1, 272265, Note_off_c, 0, 48, 58
1, 272276, Note_off_c, 0, 63, 60
1, 272324, Note_off_c, 0, 74, 51
1, 272346, Note_off_c, 0, 69, 51
1, 272398, Control_c, 0, 64, 104
1, 272413, Control_c, 0, 64, 92
1, 272414, Note_on_c, 0, 70, 85
1, 272420, Note_on_c, 0, 62, 72
1, 272428, Control_c, 0, 64, 75
1, 272443, Control_c, 0, 64, 61
1, 272451, Note_on_c, 0, 46, 51
1, 272458, Control_c, 0, 64, 0
1, 272517, Control_c, 0, 64, 47
1, 272532, Control_c, 0, 64, 66
1, 272536, Note_on_c, 0, 53, 60
1, 272546, Control_c, 0, 64, 73
1, 272561, Control_c, 0, 64, 82
1, 272567, Note_off_c, 0, 46, 60
1, 272576, Control_c, 0, 64, 90
1, 272591, Control_c, 0, 64, 94
1, 272606, Control_c, 0, 64, 96
1, 272616, Note_off_c, 0, 62, 58
1, 272621, Control_c, 0, 64, 97
1, 272636, Control_c, 0, 64, 97
1, 272636, Note_on_c, 0, 58, 72
1, 272651, Control_c, 0, 64, 98
1, 272667, Note_off_c, 0, 53, 58
1, 272680, Control_c, 0, 64, 99
1, 272695, Control_c, 0, 64, 99
1, 272702, Note_off_c, 0, 70, 60
1, 272710, Control_c, 0, 64, 101
1, 272725, Note_off_c, 0, 58, 58
1, 272725, Control_c, 0, 64, 102
1, 272734, Note_on_c, 0, 62, 68
1, 272740, Control_c, 0, 64, 104
1, 272755, Control_c, 0, 64, 104
1, 272770, Control_c, 0, 64, 105
1, 272785, Control_c, 0, 64, 106
1, 272800, Control_c, 0, 64, 107
1, 272811, Note_on_c, 0, 58, 59
1, 272815, Control_c, 0, 64, 109
1, 272830, Control_c, 0, 64, 112
1, 272835, Note_off_c, 0, 62, 46
1, 272844, Control_c, 0, 64, 115
1, 272859, Control_c, 0, 64, 120
1, 272874, Control_c, 0, 64, 127
1, 272879, Note_on_c, 0, 53, 73
1, 272891, Note_off_c, 0, 58, 60
1, 272983, Note_off_c, 0, 53, 49
1, 273006, Note_on_c, 0, 82, 93
1, 273015, Note_on_c, 0, 70, 83
1, 273026, Note_on_c, 0, 46, 58
1, 273080, Note_off_c, 0, 46, 60
1, 273084, Note_on_c, 0, 53, 55
1, 273166, Note_off_c, 0, 70, 59
1, 273172, Note_on_c, 0, 58, 65
1, 273187, Note_off_c, 0, 53, 59
1, 273215, Note_off_c, 0, 82, 58
1, 273268, Note_on_c, 0, 65, 61
1, 273290, Note_off_c, 0, 58, 0
1, 273320, Note_on_c, 0, 58, 30
1, 273321, Note_off_c, 0, 65, 53
1, 273378, Note_on_c, 0, 83, 88
1, 273381, Note_on_c, 0, 71, 83
1, 273405, Note_off_c, 0, 58, 61
1, 273407, Note_off_c, 0, 71, 64
1, 273408, Note_on_c, 0, 53, 63
1, 273450, Note_off_c, 0, 83, 60
1, 273486, Note_off_c, 0, 53, 59
1, 273547, Control_c, 0, 64, 94
1, 273562, Control_c, 0, 64, 66
1, 273569, Note_on_c, 0, 72, 90
1, 273572, Note_on_c, 0, 84, 84
1, 273577, Control_c, 0, 64, 0
1, 273585, Note_on_c, 0, 46, 53
1, 273595, Note_on_c, 0, 82, 51
1, 273613, Note_off_c, 0, 72, 59
1, 273621, Control_c, 0, 64, 63
1, 273635, Control_c, 0, 64, 76
1, 273643, Note_off_c, 0, 82, 45
1, 273646, Note_off_c, 0, 84, 58
1, 273650, Control_c, 0, 64, 110
1, 273658, Note_on_c, 0, 55, 49
1, 273660, Note_off_c, 0, 46, 57
1, 273665, Control_c, 0, 64, 127
1, 273688, Note_off_c, 0, 55, 61
1, 273737, Note_on_c, 0, 85, 70
1, 273748, Note_on_c, 0, 82, 64
1, 273786, Note_off_c, 0, 82, 54
1, 273801, Note_off_c, 0, 85, 63
1, 273813, Note_on_c, 0, 60, 26
1, 273814, Note_on_c, 0, 59, 33
1, 273843, Note_on_c, 0, 84, 71
1, 273846, Note_off_c, 0, 59, 49
1, 273848, Note_off_c, 0, 60, 46
1, 273852, Note_on_c, 0, 76, 65
1, 273870, Note_on_c, 0, 77, 56
1, 273870, Note_on_c, 0, 64, 63
1, 273876, Note_off_c, 0, 84, 56
1, 273891, Note_off_c, 0, 77, 59
1, 273918, Note_off_c, 0, 64, 53
1, 273943, Note_on_c, 0, 83, 70
1, 273957, Note_on_c, 0, 82, 68
1, 273962, Note_off_c, 0, 76, 59
1, 273974, Note_on_c, 0, 60, 18
1, 273985, Note_on_c, 0, 55, 39
1, 273988, Note_off_c, 0, 82, 56
1, 274014, Note_off_c, 0, 55, 53
1, 274016, Note_off_c, 0, 60, 38
1, 274017, Note_on_c, 0, 76, 59
1, 274041, Note_off_c, 0, 83, 45
1, 274050, Note_on_c, 0, 84, 54
1, 274068, Note_off_c, 0, 84, 63
1, 274070, Note_off_c, 0, 76, 64
1, 274128, Note_on_c, 0, 80, 91
1, 274151, Note_on_c, 0, 46, 58
1, 274157, Note_on_c, 0, 86, 48
1, 274165, Note_off_c, 0, 80, 66
1, 274178, Note_off_c, 0, 86, 62
1, 274198, Note_off_c, 0, 46, 63
1, 274237, Note_on_c, 0, 80, 90
1, 274238, Note_on_c, 0, 92, 96
1, 274256, Note_off_c, 0, 80, 66
1, 274281, Note_off_c, 0, 92, 52
1, 274335, Note_on_c, 0, 60, 29
1, 274371, Note_off_c, 0, 60, 50
1, 274379, Note_on_c, 0, 65, 66
1, 274439, Note_off_c, 0, 65, 57
1, 274481, Note_on_c, 0, 60, 53
1, 274515, Note_off_c, 0, 60, 63
1, 274523, Note_on_c, 0, 56, 61
1, 274554, Note_off_c, 0, 56, 63
1, 274557, Note_on_c, 0, 75, 82
1, 274558, Note_on_c, 0, 84, 79
1, 274609, Note_off_c, 0, 75, 60
1, 274621, Note_off_c, 0, 84, 58
1, 274718, Control_c, 0, 64, 95
1, 274720, Note_on_c, 0, 46, 56
1, 274722, Note_on_c, 0, 82, 90
1, 274726, Note_on_c, 0, 74, 80
1, 274733, Control_c, 0, 64, 68
1, 274747, Control_c, 0, 64, 39
1, 274762, Control_c, 0, 64, 0
1, 274791, Control_c, 0, 64, 58
1, 274806, Control_c, 0, 64, 73
1, 274812, Note_off_c, 0, 46, 60
1, 274821, Control_c, 0, 64, 98
1, 274824, Note_on_c, 0, 53, 54
1, 274836, Control_c, 0, 64, 127
1, 274849, Note_on_c, 0, 84, 74
1, 274858, Note_on_c, 0, 80, 72
1, 274862, Note_off_c, 0, 82, 57
1, 274864, Note_off_c, 0, 74, 29
1, 274887, Note_on_c, 0, 56, 61
1, 274906, Note_off_c, 0, 84, 59
1, 274917, Note_off_c, 0, 53, 55
1, 274964, Note_off_c, 0, 56, 55
1, 274964, Note_off_c, 0, 80, 33
1, 274972, Note_on_c, 0, 82, 72
1, 274973, Note_on_c, 0, 74, 65
1, 274976, Note_on_c, 0, 62, 57
1, 274992, Note_on_c, 0, 72, 26
1, 275015, Note_off_c, 0, 62, 53
1, 275029, Note_off_c, 0, 72, 44
1, 275051, Note_on_c, 0, 81, 72
1, 275056, Note_off_c, 0, 82, 59
1, 275057, Note_on_c, 0, 56, 52
1, 275061, Note_off_c, 0, 74, 60
1, 275068, Note_on_c, 0, 80, 54
1, 275097, Note_off_c, 0, 81, 59
1, 275098, Note_on_c, 0, 53, 56
1, 275101, Note_off_c, 0, 80, 61
1, 275103, Note_off_c, 0, 56, 60
1, 275146, Note_on_c, 0, 82, 79
1, 275160, Note_on_c, 0, 74, 60
1, 275178, Note_off_c, 0, 74, 65
1, 275189, Note_off_c, 0, 82, 58
1, 275205, Note_off_c, 0, 53, 53
1, 275250, Note_on_c, 0, 46, 54
1, 275258, Note_on_c, 0, 82, 84
1, 275264, Note_on_c, 0, 79, 69
1, 275274, Note_on_c, 0, 81, 68
1, 275278, Note_off_c, 0, 82, 70
1, 275282, Note_off_c, 0, 79, 69
1, 275285, Note_on_c, 0, 83, 55
1, 275289, Note_off_c, 0, 81, 67
1, 275302, Note_off_c, 0, 83, 64
1, 275305, Note_off_c, 0, 46, 59
1, 275321, Note_on_c, 0, 51, 55
1, 275351, Note_on_c, 0, 77, 82
1, 275355, Note_on_c, 0, 79, 70
1, 275369, Note_off_c, 0, 77, 70
1, 275379, Note_off_c, 0, 79, 69
1, 275384, Note_on_c, 0, 89, 45
1, 275389, Note_on_c, 0, 81, 12
1, 275405, Note_on_c, 0, 55, 59
1, 275406, Note_off_c, 0, 51, 58
1, 275411, Note_off_c, 0, 89, 57
1, 275435, Note_off_c, 0, 81, 36
1, 275457, Note_off_c, 0, 55, 55
1, 275505, Note_on_c, 0, 63, 64
1, 275533, Note_off_c, 0, 63, 66
1, 275581, Note_on_c, 0, 55, 43
1, 275619, Note_on_c, 0, 51, 49
1, 275623, Note_off_c, 0, 55, 60
1, 275654, Note_on_c, 0, 82, 83
1, 275658, Note_on_c, 0, 74, 81
1, 275713, Note_off_c, 0, 74, 60
1, 275771, Note_off_c, 0, 51, 31
1, 275781, Note_off_c, 0, 82, 59
1, 275822, Control_c, 0, 64, 86
1, 275837, Control_c, 0, 64, 62
1, 275841, Note_on_c, 0, 80, 87
1, 275843, Note_on_c, 0, 72, 84
1, 275852, Control_c, 0, 64, 0
1, 275852, Note_on_c, 0, 46, 49
1, 275897, Control_c, 0, 64, 53
1, 275912, Control_c, 0, 64, 68
1, 275927, Control_c, 0, 64, 81
1, 275930, Note_off_c, 0, 72, 59
1, 275942, Control_c, 0, 64, 104
1, 275964, Control_c, 0, 64, 127
1, 275969, Note_on_c, 0, 51, 46
1, 275985, Note_off_c, 0, 46, 47
1, 276010, Note_on_c, 0, 75, 76
1, 276012, Note_on_c, 0, 82, 74
1, 276017, Note_off_c, 0, 80, 60
1, 276059, Note_on_c, 0, 56, 55
1, 276080, Note_off_c, 0, 82, 55
1, 276085, Note_off_c, 0, 51, 50
1, 276115, Note_off_c, 0, 56, 50
1, 276117, Note_on_c, 0, 72, 71
1, 276118, Note_off_c, 0, 75, 61
1, 276121, Note_on_c, 0, 80, 73
1, 276150, Note_on_c, 0, 60, 52
1, 276181, Note_off_c, 0, 60, 52
1, 276210, Note_on_c, 0, 79, 71
1, 276214, Note_off_c, 0, 80, 60
1, 276216, Note_off_c, 0, 72, 60
1, 276224, Note_on_c, 0, 75, 60
1, 276234, Note_on_c, 0, 56, 48
1, 276252, Note_on_c, 0, 51, 50
1, 276262, Note_off_c, 0, 75, 56
1, 276269, Note_off_c, 0, 56, 61
1, 276299, Note_on_c, 0, 80, 77
1, 276301, Note_off_c, 0, 79, 50
1, 276311, Note_on_c, 0, 72, 70
1, 276341, Note_off_c, 0, 72, 62
1, 276353, Note_off_c, 0, 80, 61
1, 276378, Note_off_c, 0, 51, 49
1, 276392, Note_on_c, 0, 46, 57
1, 276417, Note_on_c, 0, 80, 82
1, 276422, Note_on_c, 0, 77, 75
1, 276443, Note_off_c, 0, 77, 70
1, 276445, Note_off_c, 0, 80, 63
1, 276486, Note_off_c, 0, 46, 56
1, 276504, Note_on_c, 0, 53, 52
1, 276509, Note_on_c, 0, 77, 95
1, 276523, Note_on_c, 0, 89, 80
1, 276553, Note_off_c, 0, 77, 60
1, 276562, Note_off_c, 0, 89, 60
1, 276601, Note_on_c, 0, 56, 57
1, 276610, Note_off_c, 0, 53, 52
1, 276676, Note_off_c, 0, 56, 53
1, 276681, Note_on_c, 0, 62, 59
1, 276760, Note_off_c, 0, 62, 48
1, 276773, Note_on_c, 0, 56, 43
1, 276818, Note_on_c, 0, 80, 85
1, 276821, Note_on_c, 0, 77, 88
1, 276849, Note_on_c, 0, 53, 62
1, 276856, Note_off_c, 0, 56, 54
1, 276927, Note_off_c, 0, 77, 54
1, 276932, Note_off_c, 0, 53, 53
1, 276968, Note_off_c, 0, 80, 56
1, 277009, Control_c, 0, 64, 115
1, 277022, Note_on_c, 0, 79, 88
1, 277024, Control_c, 0, 64, 76
1, 277028, Note_on_c, 0, 77, 86
1, 277030, Note_on_c, 0, 47, 58
1, 277039, Control_c, 0, 64, 46
1, 277053, Control_c, 0, 64, 0
1, 277113, Control_c, 0, 64, 62
1, 277128, Control_c, 0, 64, 69
1, 277142, Control_c, 0, 64, 77
1, 277146, Note_off_c, 0, 47, 58
1, 277155, Note_on_c, 0, 53, 56
1, 277157, Control_c, 0, 64, 87
1, 277172, Control_c, 0, 64, 95
1, 277173, Note_off_c, 0, 77, 56
1, 277186, Control_c, 0, 64, 97
1, 277201, Control_c, 0, 64, 98
1, 277210, Note_off_c, 0, 79, 60
1, 277232, Note_on_c, 0, 82, 68
1, 277234, Note_on_c, 0, 55, 52
1, 277254, Note_off_c, 0, 53, 52
1, 277265, Note_on_c, 0, 80, 83
1, 277283, Note_off_c, 0, 55, 58
1, 277285, Note_on_c, 0, 77, 80
1, 277316, Note_on_c, 0, 62, 58
1, 277375, Note_off_c, 0, 82, 37
1, 277379, Control_c, 0, 64, 98
1, 277404, Note_off_c, 0, 77, 57
1, 277417, Note_on_c, 0, 55, 51
1, 277437, Note_off_c, 0, 62, 34
1, 277453, Control_c, 0, 64, 99
1, 277471, Note_off_c, 0, 80, 57
1, 277500, Note_on_c, 0, 53, 61
1, 277513, Note_off_c, 0, 55, 53
1, 277521, Note_on_c, 0, 79, 77
1, 277524, Note_on_c, 0, 77, 75
1, 277586, Note_off_c, 0, 79, 63
1, 277587, Note_off_c, 0, 77, 61
1, 277609, Note_off_c, 0, 53, 49
1, 277654, Control_c, 0, 64, 98
1, 277669, Control_c, 0, 64, 84
1, 277678, Note_on_c, 0, 48, 52
1, 277682, Note_on_c, 0, 79, 84
1, 277683, Control_c, 0, 64, 68
1, 277691, Note_on_c, 0, 75, 71
1, 277698, Control_c, 0, 64, 23
1, 277713, Control_c, 0, 64, 0
1, 277766, Note_on_c, 0, 51, 53
1, 277772, Control_c, 0, 64, 65
1, 277781, Note_off_c, 0, 48, 53
1, 277787, Control_c, 0, 64, 73
1, 277802, Control_c, 0, 64, 84
1, 277812, Note_off_c, 0, 75, 59
1, 277817, Control_c, 0, 64, 97
1, 277831, Control_c, 0, 64, 108
1, 277834, Note_off_c, 0, 79, 57
1, 277846, Control_c, 0, 64, 113
1, 277852, Note_on_c, 0, 55, 60
1, 277856, Note_off_c, 0, 51, 59
1, 277861, Control_c, 0, 64, 114
1, 277870, Note_on_c, 0, 80, 89
1, 277875, Note_on_c, 0, 75, 76
1, 277891, Control_c, 0, 64, 115
1, 277905, Note_off_c, 0, 55, 53
1, 277921, Control_c, 0, 64, 116
1, 277937, Note_on_c, 0, 63, 59
1, 277965, Control_c, 0, 64, 117
1, 277970, Note_off_c, 0, 75, 59
1, 277980, Note_off_c, 0, 80, 60
1, 278014, Note_off_c, 0, 63, 60
1, 278039, Note_on_c, 0, 54, 61
1, 278042, Note_on_c, 0, 81, 84
1, 278046, Note_on_c, 0, 75, 87
1, 278085, Note_on_c, 0, 51, 60
1, 278100, Note_off_c, 0, 81, 63
1, 278125, Note_off_c, 0, 75, 62
1, 278140, Note_off_c, 0, 54, 54
1, 278153, Note_off_c, 0, 51, 60
1, 278224, Control_c, 0, 64, 116
1, 278239, Control_c, 0, 64, 106
1, 278254, Control_c, 0, 64, 86
1, 278268, Note_on_c, 0, 50, 63
1, 278269, Control_c, 0, 64, 65
1, 278272, Note_on_c, 0, 70, 81
1, 278273, Note_on_c, 0, 77, 73
1, 278274, Note_on_c, 0, 68, 78
1, 278276, Note_on_c, 0, 82, 80
1, 278285, Control_c, 0, 64, 0
1, 278304, Note_on_c, 0, 80, 50
1, 278329, Control_c, 0, 64, 31
1, 278344, Control_c, 0, 64, 65
1, 278359, Control_c, 0, 64, 77
1, 278363, Note_on_c, 0, 56, 63
1, 278374, Control_c, 0, 64, 109
1, 278378, Note_off_c, 0, 50, 53
1, 278389, Control_c, 0, 64, 127
1, 278461, Note_on_c, 0, 58, 63
1, 278496, Note_off_c, 0, 80, 17
1, 278550, Note_off_c, 0, 56, 35
1, 278550, Note_off_c, 0, 58, 59
1, 278554, Note_on_c, 0, 65, 65
1, 278565, Note_off_c, 0, 70, 39
1, 278572, Note_off_c, 0, 77, 57
1, 278601, Note_off_c, 0, 82, 34
1, 278639, Note_on_c, 0, 58, 56
1, 278651, Note_off_c, 0, 65, 54
1, 278652, Note_off_c, 0, 68, 31
1, 278698, Note_on_c, 0, 56, 70
1, 278719, Note_off_c, 0, 58, 61
1, 278755, Note_off_c, 0, 56, 60
1, 278818, Note_on_c, 0, 68, 93
1, 278821, Note_on_c, 0, 82, 88
1, 278825, Note_on_c, 0, 74, 80
1, 278828, Note_on_c, 0, 46, 74
1, 278836, Note_on_c, 0, 79, 71
1, 278842, Note_on_c, 0, 70, 59
1, 278864, Note_off_c, 0, 70, 60
1, 278898, Note_on_c, 0, 53, 60
1, 278912, Note_off_c, 0, 46, 61
1, 278934, Note_off_c, 0, 82, 61
1, 278997, Note_on_c, 0, 58, 70
1, 279026, Note_off_c, 0, 68, 32
1, 279036, Note_off_c, 0, 53, 60
1, 279066, Note_on_c, 0, 62, 65
1, 279074, Note_off_c, 0, 74, 24
1, 279100, Note_off_c, 0, 79, 37
1, 279153, Note_off_c, 0, 62, 58
1, 279160, Note_on_c, 0, 68, 88
1, 279167, Note_on_c, 0, 74, 78
1, 279173, Note_on_c, 0, 82, 77
1, 279176, Note_on_c, 0, 53, 71
1, 279186, Note_off_c, 0, 58, 62
1, 279191, Note_on_c, 0, 78, 47
1, 279201, Note_on_c, 0, 70, 34
1, 279210, Note_off_c, 0, 53, 64
1, 279233, Note_off_c, 0, 70, 53
1, 279241, Note_off_c, 0, 82, 63
1, 279244, Note_off_c, 0, 78, 50
1, 279292, Note_off_c, 0, 68, 58
1, 279361, Note_off_c, 0, 74, 44
1, 279389, Control_c, 0, 64, 101
1, 279404, Control_c, 0, 64, 69
1, 279405, Note_on_c, 0, 67, 83
1, 279405, Note_on_c, 0, 75, 87
1, 279415, Note_on_c, 0, 39, 56
1, 279419, Control_c, 0, 64, 0
1, 279478, Control_c, 0, 64, 62
1, 279493, Control_c, 0, 64, 72
1, 279507, Control_c, 0, 64, 88
1, 279510, Note_on_c, 0, 46, 60
1, 279512, Note_off_c, 0, 39, 60
1, 279522, Control_c, 0, 64, 127
1, 279534, Note_off_c, 0, 67, 59
1, 279575, Note_on_c, 0, 51, 65
1, 279599, Note_off_c, 0, 46, 58
1, 279615, Note_off_c, 0, 75, 63
1, 279627, Note_off_c, 0, 51, 55
1, 279647, Note_on_c, 0, 55, 60
1, 279680, Note_off_c, 0, 55, 65
1, 279757, Note_on_c, 0, 58, 63
1, 279822, Note_on_c, 0, 63, 78
1, 279845, Note_off_c, 0, 58, 59
1, 279925, Note_on_c, 0, 75, 93
1, 279927, Note_on_c, 0, 67, 77
1, 279927, Note_on_c, 0, 79, 92
1, 279928, Note_on_c, 0, 87, 85
1, 280015, Note_off_c, 0, 67, 52
1, 280059, Note_on_c, 0, 58, 67
1, 280064, Note_off_c, 0, 63, 62
1, 280070, Note_off_c, 0, 87, 61
1, 280092, Note_off_c, 0, 58, 66
1, 280178, Note_on_c, 0, 53, 60
1, 280189, Note_off_c, 0, 79, 54
1, 280207, Note_on_c, 0, 55, 11
1, 280222, Note_off_c, 0, 75, 46
1, 280255, Note_off_c, 0, 55, 37
1, 280267, Note_off_c, 0, 53, 57
1, 280273, Note_on_c, 0, 50, 53
1, 280297, Note_on_c, 0, 46, 71
1, 280302, Note_on_c, 0, 75, 91
1, 280303, Note_on_c, 0, 86, 87
1, 280311, Note_on_c, 0, 82, 83
1, 280315, Note_off_c, 0, 50, 60
1, 280355, Note_on_c, 0, 84, 18
1, 280391, Note_off_c, 0, 84, 40
1, 280395, Note_off_c, 0, 75, 60
1, 280401, Note_off_c, 0, 86, 61
1, 280424, Note_off_c, 0, 82, 61
1, 280431, Note_off_c, 0, 46, 54
1, 280434, Control_c, 0, 64, 117
1, 280454, Note_on_c, 0, 41, 68
1, 280455, Control_c, 0, 64, 65
1, 280470, Control_c, 0, 64, 0
1, 280474, Note_on_c, 0, 75, 97
1, 280474, Poly_aftertouch_c, 0, 82, 0
1, 280476, Note_on_c, 0, 84, 92
1, 280480, Note_on_c, 0, 82, 75
1, 280529, Control_c, 0, 64, 41
1, 280541, Note_off_c, 0, 41, 61
1, 280544, Control_c, 0, 64, 71
1, 280550, Note_on_c, 0, 48, 59
1, 280559, Control_c, 0, 64, 90
1, 280574, Control_c, 0, 64, 127
1, 280637, Note_on_c, 0, 51, 65
1, 280648, Note_off_c, 0, 75, 53
1, 280673, Note_off_c, 0, 48, 60
1, 280711, Note_off_c, 0, 51, 58
1, 280726, Note_off_c, 0, 84, 48
1, 280739, Note_on_c, 0, 58, 69
1, 280765, Note_off_c, 0, 82, 38
1, 280796, Note_off_c, 0, 58, 62
1, 280803, Note_on_c, 0, 51, 58
1, 280880, Note_on_c, 0, 48, 71
1, 280908, Note_off_c, 0, 51, 58
1, 280970, Note_off_c, 0, 48, 59
1, 280993, Note_on_c, 0, 41, 75
1, 280997, Note_on_c, 0, 86, 101
1, 281005, Note_on_c, 0, 77, 90
1, 281010, Note_on_c, 0, 81, 85
1, 281095, Note_on_c, 0, 48, 69
1, 281096, Note_off_c, 0, 41, 56
1, 281104, Note_off_c, 0, 77, 57
1, 281141, Note_off_c, 0, 86, 54
1, 281147, Note_off_c, 0, 81, 55
1, 281176, Note_on_c, 0, 51, 73
1, 281221, Note_off_c, 0, 48, 60
1, 281264, Note_on_c, 0, 57, 75
1, 281351, Note_on_c, 0, 75, 96
1, 281356, Note_on_c, 0, 81, 85
1, 281356, Note_on_c, 0, 86, 87
1, 281373, Note_off_c, 0, 57, 61
1, 281384, Note_on_c, 0, 48, 73
1, 281406, Note_off_c, 0, 51, 61
1, 281411, Note_off_c, 0, 48, 66
1, 281463, Note_off_c, 0, 75, 60
1, 281510, Note_off_c, 0, 86, 54
1, 281529, Note_off_c, 0, 81, 53
1, 281575, Control_c, 0, 64, 85
1, 281590, Note_on_c, 0, 34, 72
1, 281590, Control_c, 0, 64, 60
1, 281597, Note_on_c, 0, 74, 93
1, 281597, Note_on_c, 0, 82, 98
1, 281605, Control_c, 0, 64, 0
1, 281650, Control_c, 0, 64, 60
1, 281665, Control_c, 0, 64, 72
1, 281680, Control_c, 0, 64, 94
1, 281695, Control_c, 0, 64, 127
1, 281701, Note_off_c, 0, 34, 60
1, 281737, Note_on_c, 0, 46, 36
1, 281745, Note_off_c, 0, 74, 43
1, 281772, Note_off_c, 0, 46, 51
1, 281843, Note_on_c, 0, 53, 63
1, 281880, Note_off_c, 0, 82, 47
1, 281954, Note_on_c, 0, 58, 66
1, 281958, Note_off_c, 0, 53, 61
1, 282023, Note_off_c, 0, 58, 62
1, 282055, Note_on_c, 0, 62, 62
1, 282087, Note_off_c, 0, 62, 62
1, 282181, Note_on_c, 0, 65, 40
1, 282184, Note_on_c, 0, 64, 41
1, 282213, Note_off_c, 0, 64, 57
1, 282223, Note_off_c, 0, 65, 61
1, 282305, Note_on_c, 0, 82, 99
1, 282306, Note_on_c, 0, 94, 101
1, 282316, Note_on_c, 0, 74, 76
1, 282398, Note_off_c, 0, 74, 50
1, 282425, Note_on_c, 0, 70, 60
1, 282483, Note_off_c, 0, 70, 61
1, 282494, Note_on_c, 0, 65, 61
1, 282526, Note_off_c, 0, 65, 63
1, 282614, Note_on_c, 0, 62, 64
1, 282646, Note_off_c, 0, 82, 57
1, 282669, Note_off_c, 0, 94, 54
1, 282681, Note_off_c, 0, 62, 53
1, 282704, Note_on_c, 0, 58, 66
1, 282765, Note_on_c, 0, 54, 67
1, 282781, Note_on_c, 0, 82, 91
1, 282781, Note_on_c, 0, 94, 97
1, 282783, Note_off_c, 0, 58, 61
1, 282829, Note_off_c, 0, 54, 60
1, 282866, Note_off_c, 0, 82, 61
1, 282887, Note_off_c, 0, 94, 61
1, 282951, Note_on_c, 0, 94, 95
1, 282953, Note_on_c, 0, 46, 66
1, 282954, Note_on_c, 0, 82, 104
1, 282955, Control_c, 0, 64, 89
1, 282970, Control_c, 0, 64, 65
1, 282983, Note_on_c, 0, 92, 52
1, 282985, Control_c, 0, 64, 0
1, 283007, Note_off_c, 0, 92, 55
1, 283029, Control_c, 0, 64, 54
1, 283044, Control_c, 0, 64, 69
1, 283058, Control_c, 0, 64, 83
1, 283074, Control_c, 0, 64, 118
1, 283074, Control_c, 0, 67, 10
1, 283089, Control_c, 0, 64, 127
1, 283089, Control_c, 0, 67, 14
1, 283093, Note_off_c, 0, 46, 57
1, 283099, Note_on_c, 0, 52, 55
1, 283104, Control_c, 0, 67, 22
1, 283119, Control_c, 0, 67, 29
1, 283134, Control_c, 0, 67, 37
1, 283148, Control_c, 0, 67, 45
1, 283163, Control_c, 0, 67, 51
1, 283173, Note_off_c, 0, 94, 56
1, 283178, Control_c, 0, 67, 57
1, 283193, Control_c, 0, 67, 63
1, 283208, Control_c, 0, 67, 69
1, 283209, Note_on_c, 0, 55, 59
1, 283222, Control_c, 0, 67, 75
1, 283224, Note_off_c, 0, 52, 53
1, 283230, Note_off_c, 0, 82, 60
1, 283237, Control_c, 0, 67, 81
1, 283252, Control_c, 0, 67, 87
1, 283267, Control_c, 0, 67, 94
1, 283281, Control_c, 0, 67, 100
1, 283292, Note_off_c, 0, 55, 58
1, 283296, Control_c, 0, 67, 107
1, 283309, Note_on_c, 0, 60, 61
1, 283311, Control_c, 0, 67, 112
1, 283326, Control_c, 0, 67, 117
1, 283341, Control_c, 0, 67, 121
1, 283355, Control_c, 0, 67, 125
1, 283370, Control_c, 0, 67, 127
1, 283400, Note_off_c, 0, 60, 49
1, 283425, Note_on_c, 0, 55, 56
1, 283475, Note_on_c, 0, 52, 61
1, 283481, Note_off_c, 0, 55, 57
1, 283583, Note_off_c, 0, 52, 52
1, 283626, Note_on_c, 0, 72, 88
1, 283628, Note_on_c, 0, 46, 56
1, 283647, Note_on_c, 0, 60, 71
1, 283674, Note_off_c, 0, 60, 62
1, 283733, Note_off_c, 0, 46, 58
1, 283737, Note_on_c, 0, 52, 56
1, 283816, Note_on_c, 0, 55, 55
1, 283838, Note_off_c, 0, 72, 59
1, 283854, Note_off_c, 0, 52, 56
1, 283898, Note_off_c, 0, 55, 56
1, 283901, Note_on_c, 0, 60, 65
1, 283994, Note_off_c, 0, 60, 53
1, 284012, Note_on_c, 0, 55, 46
1, 284036, Note_on_c, 0, 74, 83
1, 284044, Note_on_c, 0, 62, 77
1, 284065, Note_off_c, 0, 55, 59
1, 284068, Note_on_c, 0, 52, 59
1, 284068, Note_off_c, 0, 62, 66
1, 284124, Note_off_c, 0, 74, 59
1, 284157, Note_off_c, 0, 52, 57
1, 284229, Control_c, 0, 64, 85
1, 284244, Control_c, 0, 64, 67
1, 284247, Note_on_c, 0, 75, 84
1, 284253, Note_on_c, 0, 46, 55
1, 284259, Control_c, 0, 64, 47
1, 284261, Note_on_c, 0, 63, 61
1, 284274, Control_c, 0, 64, 26
1, 284289, Control_c, 0, 64, 35
1, 284292, Note_off_c, 0, 63, 65
1, 284303, Control_c, 0, 64, 59
1, 284318, Control_c, 0, 64, 69
1, 284333, Control_c, 0, 64, 83
1, 284348, Control_c, 0, 64, 127
1, 284377, Note_off_c, 0, 46, 59
1, 284381, Note_off_c, 0, 75, 57
1, 284392, Note_on_c, 0, 53, 48
1, 284427, Note_on_c, 0, 77, 57
1, 284491, Note_off_c, 0, 77, 58
1, 284500, Note_on_c, 0, 75, 66
1, 284507, Note_on_c, 0, 57, 53
1, 284517, Note_off_c, 0, 53, 53
1, 284546, Note_off_c, 0, 75, 50
1, 284574, Note_off_c, 0, 57, 57
1, 284603, Note_on_c, 0, 60, 53
1, 284605, Note_on_c, 0, 77, 66
1, 284644, Note_off_c, 0, 77, 58
1, 284652, Note_on_c, 0, 75, 67
1, 284679, Note_off_c, 0, 75, 66
1, 284689, Note_off_c, 0, 60, 48
1, 284719, Note_on_c, 0, 57, 51
1, 284741, Note_on_c, 0, 74, 77
1, 284753, Note_on_c, 0, 62, 75
1, 284786, Note_off_c, 0, 62, 61
1, 284800, Note_off_c, 0, 74, 59
1, 284830, Note_off_c, 0, 57, 50
1, 284853, Note_on_c, 0, 53, 56
1, 284887, Note_on_c, 0, 75, 84
1, 284894, Note_on_c, 0, 63, 75
1, 284909, Note_off_c, 0, 53, 55
1, 284911, Note_off_c, 0, 63, 66
1, 284947, Note_on_c, 0, 76, 33
1, 284988, Note_off_c, 0, 75, 59
1, 284988, Note_off_c, 0, 76, 49
1, 285053, Control_c, 0, 64, 95
1, 285068, Control_c, 0, 64, 71
1, 285078, Note_on_c, 0, 79, 85
1, 285083, Control_c, 0, 64, 52
1, 285086, Note_on_c, 0, 67, 71
1, 285090, Note_on_c, 0, 46, 49
1, 285093, Note_on_c, 0, 74, 58
1, 285098, Control_c, 0, 64, 0
1, 285120, Note_off_c, 0, 67, 58
1, 285127, Control_c, 0, 64, 40
1, 285142, Control_c, 0, 64, 64
1, 285157, Control_c, 0, 64, 77
1, 285172, Control_c, 0, 64, 105
1, 285187, Control_c, 0, 64, 127
1, 285242, Note_on_c, 0, 53, 55
1, 285245, Note_off_c, 0, 46, 55
1, 285249, Note_on_c, 0, 68, 89
1, 285287, Note_off_c, 0, 79, 65
1, 285325, Note_off_c, 0, 74, 18
1, 285355, Note_off_c, 0, 68, 58
1, 285376, Note_off_c, 0, 53, 55
1, 285390, Note_on_c, 0, 79, 82
1, 285394, Note_on_c, 0, 56, 56
1, 285406, Note_on_c, 0, 74, 73
1, 285547, Note_off_c, 0, 56, 49
1, 285582, Note_on_c, 0, 70, 78
1, 285603, Note_on_c, 0, 62, 47
1, 285707, Note_off_c, 0, 70, 58
1, 285760, Note_off_c, 0, 62, 32
1, 285777, Note_on_c, 0, 56, 43
1, 285796, Note_off_c, 0, 74, 40
1, 285819, Note_off_c, 0, 79, 46
1, 285827, Note_on_c, 0, 68, 66
1, 285919, Note_off_c, 0, 68, 57
1, 285968, Note_on_c, 0, 53, 42
1, 285974, Note_off_c, 0, 56, 38
1, 285980, Note_on_c, 0, 77, 67
1, 286019, Note_off_c, 0, 53, 61
1, 286103, Note_on_c, 0, 75, 74
1, 286122, Note_off_c, 0, 77, 55
1, 286195, Note_off_c, 0, 75, 59
1, 286340, Note_on_c, 0, 75, 64
1, 286351, Control_c, 0, 64, 81
1, 286360, Note_on_c, 0, 67, 46
1, 286366, Control_c, 0, 64, 63
1, 286366, Note_on_c, 0, 39, 34
1, 286381, Control_c, 0, 64, 0
1, 286447, Control_c, 0, 64, 9
1, 286462, Control_c, 0, 64, 63
1, 286477, Control_c, 0, 64, 70
1, 286492, Control_c, 0, 64, 79
1, 286506, Control_c, 0, 64, 85
1, 286521, Control_c, 0, 64, 89
1, 286536, Control_c, 0, 64, 90
1, 286551, Control_c, 0, 64, 91
1, 286566, Control_c, 0, 64, 93
1, 286580, Control_c, 0, 64, 95
1, 286590, Note_on_c, 0, 46, 48
1, 286591, Note_off_c, 0, 39, 35
1, 286595, Control_c, 0, 64, 96
1, 286610, Control_c, 0, 64, 98
1, 286625, Control_c, 0, 64, 99
1, 286640, Control_c, 0, 64, 100
1, 286655, Control_c, 0, 64, 101
1, 286685, Control_c, 0, 64, 101
1, 286698, Note_off_c, 0, 46, 50
1, 286714, Control_c, 0, 64, 102
1, 286723, Note_on_c, 0, 51, 45
1, 286729, Control_c, 0, 64, 102
1, 286744, Control_c, 0, 64, 103
1, 286759, Control_c, 0, 64, 104
1, 286773, Control_c, 0, 64, 106
1, 286777, Note_off_c, 0, 51, 57
1, 286788, Control_c, 0, 64, 107
1, 286803, Control_c, 0, 64, 108
1, 286817, Control_c, 0, 64, 109
1, 286832, Control_c, 0, 64, 110
1, 286841, Note_on_c, 0, 55, 49
1, 286847, Control_c, 0, 64, 111
1, 286862, Control_c, 0, 64, 112
1, 286875, Note_off_c, 0, 75, 56
1, 286877, Control_c, 0, 64, 113
1, 286892, Control_c, 0, 64, 115
1, 286902, Note_off_c, 0, 55, 57
1, 286906, Control_c, 0, 64, 116
1, 286921, Control_c, 0, 64, 117
1, 286936, Control_c, 0, 64, 118
1, 286950, Control_c, 0, 64, 120
1, 286965, Control_c, 0, 64, 124
1, 286973, Note_on_c, 0, 51, 36
1, 286980, Control_c, 0, 64, 127
1, 287005, Note_off_c, 0, 51, 55
1, 287027, Note_on_c, 0, 46, 55
1, 287062, Note_off_c, 0, 67, 35
1, 287128, Note_off_c, 0, 46, 54
1, 287144, Note_on_c, 0, 39, 59
1, 287220, Note_off_c, 0, 39, 56
1, 287257, Note_on_c, 0, 46, 55
1, 287272, Note_on_c, 0, 67, 64
1, 287354, Note_on_c, 0, 68, 72
1, 287356, Note_off_c, 0, 46, 54
1, 287363, Note_on_c, 0, 51, 55
1, 287364, Note_off_c, 0, 67, 54
1, 287419, Note_off_c, 0, 51, 52
1, 287437, Note_on_c, 0, 70, 73
1, 287450, Note_off_c, 0, 68, 59
1, 287472, Note_on_c, 0, 58, 51
1, 287507, Note_on_c, 0, 74, 69
1, 287516, Note_off_c, 0, 58, 60
1, 287516, Note_off_c, 0, 70, 61
1, 287555, Note_on_c, 0, 51, 51
1, 287595, Note_on_c, 0, 72, 71
1, 287601, Note_off_c, 0, 51, 57
1, 287638, Note_on_c, 0, 46, 52
1, 287641, Note_off_c, 0, 74, 53
1, 287670, Control_c, 0, 64, 121
1, 287685, Control_c, 0, 64, 99
1, 287696, Note_on_c, 0, 70, 83
1, 287700, Control_c, 0, 64, 80
1, 287715, Control_c, 0, 64, 63
1, 287724, Note_off_c, 0, 72, 59
1, 287729, Control_c, 0, 64, 0
1, 287731, Note_off_c, 0, 46, 55
1, 287757, Note_on_c, 0, 39, 52
1, 287788, Control_c, 0, 64, 60
1, 287803, Control_c, 0, 64, 69
1, 287818, Control_c, 0, 64, 79
1, 287833, Control_c, 0, 64, 91
1, 287838, Note_off_c, 0, 39, 55
1, 287847, Control_c, 0, 64, 104
1, 287863, Control_c, 0, 64, 117
1, 287877, Note_on_c, 0, 46, 53
1, 287878, Control_c, 0, 64, 124
1, 287893, Control_c, 0, 64, 127
1, 287980, Note_on_c, 0, 51, 54
1, 287987, Note_off_c, 0, 46, 54
1, 288041, Note_off_c, 0, 51, 52
1, 288090, Note_on_c, 0, 58, 60
1, 288133, Note_off_c, 0, 58, 56
1, 288173, Note_on_c, 0, 51, 42
1, 288214, Note_off_c, 0, 51, 59
1, 288221, Note_on_c, 0, 46, 62
1, 288331, Note_off_c, 0, 46, 55
1, 288350, Note_on_c, 0, 39, 53
1, 288384, Note_off_c, 0, 39, 61
1, 288417, Note_on_c, 0, 46, 42
1, 288429, Note_off_c, 0, 70, 53
1, 288481, Note_on_c, 0, 67, 64
1, 288533, Note_on_c, 0, 51, 55
1, 288535, Note_off_c, 0, 46, 56
1, 288557, Note_on_c, 0, 68, 76
1, 288572, Note_off_c, 0, 67, 50
1, 288610, Note_off_c, 0, 51, 53
1, 288637, Note_on_c, 0, 70, 76
1, 288647, Note_on_c, 0, 58, 54
1, 288649, Note_off_c, 0, 68, 59
1, 288706, Note_off_c, 0, 58, 57
1, 288712, Note_on_c, 0, 51, 36
1, 288726, Note_on_c, 0, 74, 70
1, 288733, Note_off_c, 0, 70, 60
1, 288768, Note_off_c, 0, 51, 58
1, 288783, Note_on_c, 0, 46, 61
1, 288798, Note_on_c, 0, 72, 74
1, 288871, Note_off_c, 0, 74, 36
1, 288871, Control_c, 0, 64, 124
1, 288886, Control_c, 0, 64, 105
1, 288900, Note_on_c, 0, 70, 88
1, 288900, Control_c, 0, 64, 85
1, 288915, Control_c, 0, 64, 67
1, 288919, Note_off_c, 0, 46, 38
1, 288925, Note_off_c, 0, 72, 60
1, 288926, Note_on_c, 0, 39, 56
1, 288930, Control_c, 0, 64, 20
1, 288944, Control_c, 0, 64, 0
1, 289004, Control_c, 0, 64, 46
1, 289019, Control_c, 0, 64, 66
1, 289034, Control_c, 0, 64, 73
1, 289042, Note_on_c, 0, 46, 53
1, 289043, Note_off_c, 0, 39, 57
1, 289049, Control_c, 0, 64, 83
1, 289064, Control_c, 0, 64, 91
1, 289078, Control_c, 0, 64, 95
1, 289093, Control_c, 0, 64, 96
1, 289108, Control_c, 0, 64, 97
1, 289137, Control_c, 0, 64, 98
1, 289148, Note_on_c, 0, 50, 59
1, 289152, Control_c, 0, 64, 99
1, 289167, Control_c, 0, 64, 99
1, 289182, Control_c, 0, 64, 101
1, 289186, Note_off_c, 0, 46, 50
1, 289197, Control_c, 0, 64, 102
1, 289211, Control_c, 0, 64, 103
1, 289222, Note_off_c, 0, 50, 59
1, 289226, Control_c, 0, 64, 104
1, 289241, Control_c, 0, 64, 105
1, 289256, Control_c, 0, 64, 106
1, 289260, Note_on_c, 0, 56, 68
1, 289271, Control_c, 0, 64, 107
1, 289285, Control_c, 0, 64, 109
1, 289300, Control_c, 0, 64, 109
1, 289315, Control_c, 0, 64, 110
1, 289323, Note_off_c, 0, 56, 58
1, 289344, Control_c, 0, 64, 111
1, 289350, Note_on_c, 0, 50, 59
1, 289374, Control_c, 0, 64, 112
1, 289406, Note_off_c, 0, 50, 57
1, 289410, Note_on_c, 0, 46, 64
1, 289514, Note_off_c, 0, 46, 58
1, 289521, Note_on_c, 0, 39, 65
1, 289546, Control_c, 0, 64, 113
1, 289603, Note_on_c, 0, 46, 56
1, 289613, Note_off_c, 0, 39, 58
1, 289654, Note_off_c, 0, 70, 45
1, 289710, Note_on_c, 0, 65, 73
1, 289719, Note_on_c, 0, 50, 59
1, 289749, Note_off_c, 0, 46, 47
1, 289797, Note_on_c, 0, 68, 77
1, 289815, Note_off_c, 0, 65, 52
1, 289815, Note_on_c, 0, 56, 60
1, 289815, Note_off_c, 0, 50, 53
1, 289842, Control_c, 0, 67, 125
1, 289856, Control_c, 0, 67, 124
1, 289871, Control_c, 0, 67, 122
1, 289873, Note_on_c, 0, 70, 76
1, 289875, Note_off_c, 0, 56, 58
1, 289876, Note_on_c, 0, 50, 33
1, 289886, Control_c, 0, 67, 121
1, 289901, Note_off_c, 0, 68, 58
1, 289901, Control_c, 0, 67, 119
1, 289916, Control_c, 0, 67, 117
1, 289931, Control_c, 0, 67, 116
1, 289942, Note_off_c, 0, 50, 57
1, 289946, Control_c, 0, 67, 114
1, 289947, Note_on_c, 0, 46, 63
1, 289960, Control_c, 0, 67, 113
1, 289964, Note_on_c, 0, 74, 79
1, 289970, Note_off_c, 0, 70, 61
1, 289975, Control_c, 0, 67, 111
1, 289990, Control_c, 0, 67, 109
1, 290005, Control_c, 0, 67, 106
1, 290020, Control_c, 0, 67, 103
1, 290034, Control_c, 0, 64, 112
1, 290034, Control_c, 0, 67, 100
1, 290044, Note_on_c, 0, 72, 76
1, 290049, Control_c, 0, 64, 108
1, 290049, Control_c, 0, 67, 94
1, 290064, Control_c, 0, 64, 93
1, 290064, Control_c, 0, 67, 88
1, 290079, Control_c, 0, 64, 77
1, 290079, Control_c, 0, 67, 81
1, 290085, Note_off_c, 0, 46, 48
1, 290093, Control_c, 0, 64, 63
1, 290093, Control_c, 0, 67, 74
1, 290108, Note_on_c, 0, 39, 57
1, 290108, Control_c, 0, 64, 0
1, 290108, Control_c, 0, 67, 66
1, 290117, Note_off_c, 0, 74, 50
1, 290123, Control_c, 0, 67, 57
1, 290128, Note_on_c, 0, 70, 84
1, 290138, Control_c, 0, 67, 47
1, 290152, Note_off_c, 0, 72, 63
1, 290153, Control_c, 0, 64, 26
1, 290153, Control_c, 0, 67, 32
1, 290167, Control_c, 0, 64, 61
1, 290167, Control_c, 0, 67, 13
1, 290190, Control_c, 0, 64, 70
1, 290190, Control_c, 0, 67, 0
1, 290205, Control_c, 0, 64, 81
1, 290220, Control_c, 0, 64, 96
1, 290235, Note_on_c, 0, 46, 55
1, 290235, Control_c, 0, 64, 124
1, 290239, Note_off_c, 0, 39, 52
1, 290249, Control_c, 0, 64, 127
1, 290256, Note_off_c, 0, 70, 61
1, 290345, Note_on_c, 0, 51, 59
1, 290376, Note_off_c, 0, 46, 51
1, 290430, Note_off_c, 0, 51, 55
1, 290457, Note_on_c, 0, 55, 58
1, 290461, Note_on_c, 0, 61, 72
1, 290515, Note_off_c, 0, 55, 58
1, 290536, Note_off_c, 0, 61, 63
1, 290545, Note_on_c, 0, 63, 74
1, 290564, Note_on_c, 0, 51, 50
1, 290603, Note_off_c, 0, 63, 63
1, 290617, Note_off_c, 0, 51, 56
1, 290619, Note_on_c, 0, 67, 67
1, 290626, Note_on_c, 0, 46, 55
1, 290694, Note_on_c, 0, 72, 75
1, 290703, Note_off_c, 0, 67, 59
1, 290738, Note_off_c, 0, 46, 55
1, 290775, Note_on_c, 0, 70, 76
1, 290827, Control_c, 0, 64, 84
1, 290840, Note_on_c, 0, 39, 48
1, 290842, Control_c, 0, 64, 63
1, 290852, Note_off_c, 0, 72, 58
1, 290855, Note_on_c, 0, 68, 79
1, 290856, Control_c, 0, 64, 0
1, 290898, Note_off_c, 0, 70, 60
1, 290915, Control_c, 0, 64, 42
1, 290938, Control_c, 0, 64, 67
1, 290953, Control_c, 0, 64, 77
1, 290968, Control_c, 0, 64, 89
1, 290983, Control_c, 0, 64, 104
1, 290997, Control_c, 0, 64, 118
1, 290998, Note_off_c, 0, 39, 53
1, 291012, Control_c, 0, 64, 127
1, 291041, Note_on_c, 0, 47, 49
1, 291048, Note_off_c, 0, 68, 60
1, 291173, Note_off_c, 0, 47, 52
1, 291189, Note_on_c, 0, 51, 55
1, 291290, Note_off_c, 0, 51, 56
1, 291332, Note_on_c, 0, 59, 73
1, 291344, Note_on_c, 0, 56, 53
1, 291480, Note_on_c, 0, 51, 48
1, 291489, Note_on_c, 0, 63, 74
1, 291501, Note_off_c, 0, 59, 58
1, 291504, Note_off_c, 0, 56, 30
1, 291606, Note_off_c, 0, 63, 58
1, 291635, Note_off_c, 0, 51, 36
1, 291652, Note_on_c, 0, 47, 43
1, 291661, Note_on_c, 0, 65, 72
1, 291713, Note_off_c, 0, 47, 60
1, 291838, Note_off_c, 0, 65, 57
1, 291944, Note_on_c, 0, 67, 72
1, 291949, Note_on_c, 0, 39, 46
1, 291955, Control_c, 0, 64, 94
1, 291969, Control_c, 0, 64, 71
1, 291984, Control_c, 0, 64, 51
1, 291999, Control_c, 0, 64, 0
1, 292073, Control_c, 0, 64, 17
1, 292088, Control_c, 0, 64, 63
1, 292103, Control_c, 0, 64, 69
1, 292117, Control_c, 0, 64, 77
1, 292132, Control_c, 0, 64, 83
1, 292147, Control_c, 0, 64, 88
1, 292161, Control_c, 0, 64, 94
1, 292176, Control_c, 0, 64, 102
1, 292191, Control_c, 0, 64, 114
1, 292200, Note_off_c, 0, 39, 35
1, 292206, Control_c, 0, 64, 127
1, 292212, Note_on_c, 0, 46, 49
1, 292401, Note_on_c, 0, 51, 58
1, 292415, Note_off_c, 0, 46, 51
1, 292444, Note_off_c, 0, 67, 48
1, 292548, Note_off_c, 0, 51, 56
1, 292557, Note_on_c, 0, 55, 66
1, 292673, Note_on_c, 0, 51, 71
1, 292676, Note_off_c, 0, 55, 54
1, 292765, Note_on_c, 0, 46, 66
1, 292776, Note_off_c, 0, 51, 58
1, 292876, Note_on_c, 0, 39, 68
1, 292887, Note_off_c, 0, 46, 59
1, 292943, Note_on_c, 0, 46, 44
1, 292955, Note_off_c, 0, 39, 56
1, 293008, Note_on_c, 0, 67, 74
1, 293065, Note_on_c, 0, 51, 63
1, 293088, Note_on_c, 0, 68, 80
1, 293091, Note_off_c, 0, 46, 54
1, 293107, Note_off_c, 0, 67, 58
1, 293149, Note_off_c, 0, 51, 57
1, 293167, Note_on_c, 0, 70, 76
1, 293168, Note_on_c, 0, 58, 65
1, 293205, Note_off_c, 0, 68, 58
1, 293235, Note_off_c, 0, 58, 62
1, 293254, Note_on_c, 0, 51, 52
1, 293258, Note_on_c, 0, 74, 80
1, 293271, Note_off_c, 0, 70, 61
1, 293314, Note_on_c, 0, 46, 65
1, 293314, Note_off_c, 0, 51, 59
1, 293340, Note_on_c, 0, 72, 73
1, 293378, Control_c, 0, 64, 112
1, 293392, Control_c, 0, 64, 73
1, 293407, Control_c, 0, 64, 25
1, 293422, Control_c, 0, 64, 0
1, 293425, Note_on_c, 0, 70, 86
1, 293434, Note_off_c, 0, 46, 60
1, 293439, Note_on_c, 0, 39, 63
1, 293439, Note_off_c, 0, 74, 62
1, 293451, Control_c, 0, 64, 30
1, 293455, Note_off_c, 0, 72, 63
1, 293468, Control_c, 0, 64, 65
1, 293482, Control_c, 0, 64, 76
1, 293484, Note_off_c, 0, 70, 64
1, 293497, Control_c, 0, 64, 104
1, 293512, Control_c, 0, 64, 127
1, 293547, Note_off_c, 0, 39, 56
1, 293554, Note_on_c, 0, 46, 59
1, 293632, Note_on_c, 0, 82, 90
1, 293667, Note_on_c, 0, 51, 67
1, 293702, Note_off_c, 0, 46, 57
1, 293709, Note_on_c, 0, 94, 94
1, 293712, Note_off_c, 0, 82, 42
1, 293738, Note_on_c, 0, 92, 45
1, 293763, Note_off_c, 0, 51, 59
1, 293763, Note_off_c, 0, 92, 57
1, 293767, Note_on_c, 0, 55, 67
1, 293776, Note_off_c, 0, 94, 63
1, 293827, Note_off_c, 0, 55, 60
1, 293854, Note_on_c, 0, 51, 49
1, 293917, Note_off_c, 0, 51, 57
1, 293925, Note_on_c, 0, 46, 58
1, 294039, Note_off_c, 0, 46, 60
1, 294046, Note_on_c, 0, 39, 56
1, 294123, Note_off_c, 0, 39, 55
1, 294125, Note_on_c, 0, 46, 50
1, 294200, Note_on_c, 0, 67, 75
1, 294231, Note_on_c, 0, 51, 60
1, 294244, Note_off_c, 0, 46, 56
1, 294281, Note_on_c, 0, 68, 81
1, 294295, Note_off_c, 0, 51, 56
1, 294303, Note_off_c, 0, 67, 58
1, 294333, Note_on_c, 0, 58, 65
1, 294353, Note_on_c, 0, 70, 81
1, 294390, Note_on_c, 0, 51, 36
1, 294394, Note_off_c, 0, 68, 59
1, 294399, Note_off_c, 0, 58, 60
1, 294432, Note_on_c, 0, 74, 77
1, 294451, Note_off_c, 0, 70, 60
1, 294470, Note_off_c, 0, 51, 59
1, 294473, Note_on_c, 0, 46, 62
1, 294520, Note_on_c, 0, 72, 76
1, 294571, Control_c, 0, 64, 114
1, 294586, Control_c, 0, 64, 71
1, 294596, Note_off_c, 0, 46, 59
1, 294601, Control_c, 0, 64, 50
1, 294603, Note_on_c, 0, 70, 83
1, 294609, Note_on_c, 0, 39, 63
1, 294614, Note_off_c, 0, 74, 61
1, 294616, Control_c, 0, 64, 21
1, 294630, Control_c, 0, 64, 31
1, 294631, Note_off_c, 0, 72, 63
1, 294645, Control_c, 0, 64, 57
1, 294660, Note_off_c, 0, 70, 64
1, 294660, Control_c, 0, 64, 69
1, 294682, Control_c, 0, 64, 88
1, 294697, Control_c, 0, 64, 127
1, 294724, Note_on_c, 0, 46, 63
1, 294729, Note_off_c, 0, 39, 56
1, 294804, Note_on_c, 0, 82, 93
1, 294815, Note_on_c, 0, 50, 63
1, 294865, Note_off_c, 0, 82, 61
1, 294873, Note_off_c, 0, 46, 57
1, 294888, Note_on_c, 0, 94, 98
1, 294897, Note_off_c, 0, 50, 57
1, 294914, Note_on_c, 0, 56, 72
1, 294966, Note_off_c, 0, 94, 62
1, 294990, Note_off_c, 0, 56, 56
1, 295013, Note_on_c, 0, 50, 50
1, 295062, Note_off_c, 0, 50, 58
1, 295073, Note_on_c, 0, 46, 60
1, 295198, Note_off_c, 0, 46, 59
1, 295222, Note_on_c, 0, 39, 55
1, 295306, Note_on_c, 0, 46, 59
1, 295306, Note_off_c, 0, 39, 53
1, 295403, Note_on_c, 0, 65, 75
1, 295410, Note_off_c, 0, 46, 58
1, 295413, Note_on_c, 0, 50, 56
1, 295469, Note_off_c, 0, 50, 57
1, 295493, Note_on_c, 0, 68, 81
1, 295518, Note_on_c, 0, 56, 56
1, 295520, Note_off_c, 0, 65, 58
1, 295563, Note_off_c, 0, 56, 61
1, 295582, Note_on_c, 0, 70, 78
1, 295586, Note_on_c, 0, 50, 48
1, 295623, Note_off_c, 0, 68, 59
1, 295649, Note_off_c, 0, 50, 56
1, 295660, Note_on_c, 0, 74, 78
1, 295662, Note_on_c, 0, 46, 57
1, 295675, Note_off_c, 0, 70, 60
1, 295684, Control_c, 0, 67, 8
1, 295713, Control_c, 0, 67, 0
1, 295750, Note_on_c, 0, 72, 74
1, 295795, Note_off_c, 0, 46, 51
1, 295802, Control_c, 0, 67, 8
1, 295806, Note_off_c, 0, 74, 49
1, 295846, Control_c, 0, 67, 8
1, 295852, Note_on_c, 0, 70, 87
1, 295862, Note_on_c, 0, 39, 51
1, 295862, Control_c, 0, 67, 9
1, 295872, Note_off_c, 0, 72, 59
1, 295877, Control_c, 0, 64, 109
1, 295877, Control_c, 0, 67, 9
1, 295892, Control_c, 0, 64, 78
1, 295892, Control_c, 0, 67, 10
1, 295907, Control_c, 0, 64, 62
1, 295907, Control_c, 0, 67, 10
1, 295922, Control_c, 0, 64, 28
1, 295922, Control_c, 0, 67, 11
1, 295936, Control_c, 0, 64, 16
1, 295936, Control_c, 0, 67, 12
1, 295951, Control_c, 0, 64, 42
1, 295966, Control_c, 0, 64, 62
1, 295981, Control_c, 0, 64, 74
1, 295981, Control_c, 0, 67, 12
1, 295996, Control_c, 0, 64, 94
1, 296010, Control_c, 0, 64, 127
1, 296025, Control_c, 0, 67, 13
1, 296027, Note_off_c, 0, 39, 55
1, 296028, Note_on_c, 0, 46, 51
1, 296041, Note_off_c, 0, 70, 61
1, 296128, Control_c, 0, 67, 13
1, 296145, Note_on_c, 0, 51, 55
1, 296156, Note_off_c, 0, 46, 53
1, 296158, Control_c, 0, 67, 14
1, 296173, Control_c, 0, 67, 14
1, 296210, Control_c, 0, 67, 15
1, 296225, Control_c, 0, 67, 15
1, 296240, Control_c, 0, 67, 16
1, 296254, Control_c, 0, 67, 16
1, 296261, Note_off_c, 0, 51, 49
1, 296277, Note_on_c, 0, 61, 68
1, 296284, Control_c, 0, 67, 17
1, 296296, Note_on_c, 0, 55, 48
1, 296358, Note_off_c, 0, 61, 62
1, 296358, Control_c, 0, 67, 16
1, 296362, Note_off_c, 0, 55, 52
1, 296363, Note_on_c, 0, 63, 72
1, 296411, Note_on_c, 0, 51, 51
1, 296459, Note_on_c, 0, 67, 63
1, 296470, Note_off_c, 0, 63, 60
1, 296497, Note_off_c, 0, 51, 54
1, 296513, Note_on_c, 0, 46, 50
1, 296532, Note_on_c, 0, 72, 66
1, 296540, Note_off_c, 0, 67, 59
1, 296611, Note_off_c, 0, 46, 52
1, 296621, Note_on_c, 0, 70, 75
1, 296640, Control_c, 0, 67, 16
1, 296685, Control_c, 0, 67, 16
1, 296710, Note_off_c, 0, 72, 36
1, 296724, Note_on_c, 0, 68, 79
1, 296730, Control_c, 0, 64, 109
1, 296730, Control_c, 0, 67, 17
1, 296737, Note_on_c, 0, 39, 48
1, 296745, Control_c, 0, 64, 80
1, 296745, Control_c, 0, 67, 18
1, 296748, Note_off_c, 0, 70, 59
1, 296759, Control_c, 0, 64, 62
1, 296759, Control_c, 0, 67, 18
1, 296774, Control_c, 0, 64, 0
1, 296774, Control_c, 0, 67, 19
1, 296789, Control_c, 0, 67, 20
1, 296804, Control_c, 0, 67, 21
1, 296819, Control_c, 0, 67, 21
1, 296833, Control_c, 0, 64, 31
1, 296833, Control_c, 0, 67, 22
1, 296848, Control_c, 0, 64, 65
1, 296863, Control_c, 0, 64, 74
1, 296877, Control_c, 0, 64, 86
1, 296877, Control_c, 0, 67, 21
1, 296892, Control_c, 0, 64, 100
1, 296896, Note_off_c, 0, 39, 42
1, 296907, Control_c, 0, 64, 113
1, 296907, Control_c, 0, 67, 21
1, 296922, Control_c, 0, 64, 127
1, 296937, Note_on_c, 0, 47, 49
1, 296945, Control_c, 0, 67, 20
1, 296974, Control_c, 0, 67, 20
1, 296987, Note_off_c, 0, 68, 59
1, 297004, Control_c, 0, 67, 19
1, 297104, Note_on_c, 0, 51, 53
1, 297107, Note_off_c, 0, 47, 37
1, 297225, Control_c, 0, 67, 20
1, 297255, Note_off_c, 0, 51, 35
1, 297263, Note_on_c, 0, 59, 69
1, 297270, Control_c, 0, 67, 20
1, 297292, Note_on_c, 0, 56, 45
1, 297344, Control_c, 0, 67, 21
1, 297408, Note_on_c, 0, 51, 44
1, 297422, Note_on_c, 0, 63, 72
1, 297428, Note_off_c, 0, 56, 32
1, 297433, Control_c, 0, 67, 21
1, 297440, Note_off_c, 0, 59, 56
1, 297464, Control_c, 0, 67, 22
1, 297508, Control_c, 0, 67, 22
1, 297553, Control_c, 0, 67, 23
1, 297562, Note_off_c, 0, 63, 53
1, 297568, Control_c, 0, 67, 23
1, 297591, Note_off_c, 0, 51, 33
1, 297597, Control_c, 0, 67, 24
1, 297611, Note_on_c, 0, 47, 38
1, 297612, Control_c, 0, 67, 24
1, 297613, Note_on_c, 0, 65, 71
1, 297626, Control_c, 0, 67, 25
1, 297641, Control_c, 0, 67, 25
1, 297656, Control_c, 0, 67, 26
1, 297663, Note_off_c, 0, 47, 60
1, 297671, Control_c, 0, 67, 26
1, 297693, Control_c, 0, 67, 27
1, 297708, Control_c, 0, 67, 28
1, 297723, Control_c, 0, 67, 31
1, 297738, Control_c, 0, 67, 34
1, 297753, Control_c, 0, 67, 37
1, 297768, Control_c, 0, 67, 40
1, 297782, Control_c, 0, 67, 42
1, 297794, Note_off_c, 0, 65, 52
1, 297797, Control_c, 0, 67, 45
1, 297812, Control_c, 0, 67, 47
1, 297827, Control_c, 0, 67, 50
1, 297841, Control_c, 0, 67, 52
1, 297856, Control_c, 0, 67, 55
1, 297871, Control_c, 0, 67, 58
1, 297886, Control_c, 0, 67, 61
1, 297901, Control_c, 0, 67, 63
1, 297915, Control_c, 0, 67, 66
1, 297930, Control_c, 0, 67, 69
1, 297932, Note_on_c, 0, 67, 62
1, 297934, Note_on_c, 0, 39, 37
1, 297945, Control_c, 0, 64, 113
1, 297945, Control_c, 0, 67, 72
1, 297960, Control_c, 0, 64, 91
1, 297960, Control_c, 0, 67, 76
1, 297975, Control_c, 0, 64, 77
1, 297975, Control_c, 0, 67, 81
1, 297989, Control_c, 0, 64, 66
1, 297989, Control_c, 0, 67, 87
1, 298004, Control_c, 0, 64, 49
1, 298004, Control_c, 0, 67, 93
1, 298019, Control_c, 0, 64, 0
1, 298019, Control_c, 0, 67, 102
1, 298033, Control_c, 0, 67, 111
1, 298048, Control_c, 0, 67, 119
1, 298063, Control_c, 0, 67, 127
1, 298093, Control_c, 0, 64, 36
1, 298108, Control_c, 0, 64, 57
1, 298122, Control_c, 0, 64, 65
1, 298137, Control_c, 0, 64, 71
1, 298152, Control_c, 0, 64, 80
1, 298167, Control_c, 0, 64, 86
1, 298182, Control_c, 0, 64, 89
1, 298197, Control_c, 0, 64, 93
1, 298212, Control_c, 0, 64, 96
1, 298214, Note_off_c, 0, 39, 37
1, 298224, Note_on_c, 0, 46, 42
1, 298226, Control_c, 0, 64, 100
1, 298241, Control_c, 0, 64, 105
1, 298257, Control_c, 0, 64, 112
1, 298272, Control_c, 0, 64, 118
1, 298286, Control_c, 0, 64, 127
1, 298400, Note_off_c, 0, 46, 36
1, 298407, Note_on_c, 0, 51, 39
1, 298500, Note_off_c, 0, 51, 53
1, 298566, Note_on_c, 0, 55, 40
1, 298602, Note_off_c, 0, 67, 47
1, 298649, Note_off_c, 0, 55, 52
1, 298713, Note_on_c, 0, 51, 40
1, 298774, Note_off_c, 0, 51, 51
1, 298824, Note_on_c, 0, 46, 46
1, 298975, Note_off_c, 0, 46, 36
1, 298981, Note_on_c, 0, 39, 48
1, 299078, Note_off_c, 0, 39, 49
1, 299100, Note_on_c, 0, 46, 52
1, 299111, Note_on_c, 0, 67, 69
1, 299245, Note_on_c, 0, 70, 79
1, 299246, Note_off_c, 0, 46, 54
1, 299247, Note_on_c, 0, 51, 54
1, 299266, Note_off_c, 0, 67, 55
1, 299338, Note_off_c, 0, 70, 59
1, 299354, Note_off_c, 0, 51, 50
1, 299375, Note_on_c, 0, 79, 80
1, 299395, Note_on_c, 0, 58, 54
1, 299471, Note_off_c, 0, 58, 59
1, 299497, Note_on_c, 0, 77, 79
1, 299503, Note_on_c, 0, 51, 56
1, 299565, Note_off_c, 0, 79, 57
1, 299607, Note_off_c, 0, 51, 57
1, 299616, Note_on_c, 0, 75, 82
1, 299631, Note_on_c, 0, 46, 52
1, 299673, Note_off_c, 0, 77, 56
1, 299774, Note_on_c, 0, 70, 80
1, 299782, Note_off_c, 0, 46, 36
1, 299791, Note_on_c, 0, 39, 50
1, 299798, Control_c, 0, 64, 91
1, 299813, Control_c, 0, 64, 71
1, 299816, Note_off_c, 0, 75, 37
1, 299828, Control_c, 0, 64, 44
1, 299843, Control_c, 0, 64, 0
1, 299925, Control_c, 0, 64, 62
1, 299940, Control_c, 0, 64, 69
1, 299955, Control_c, 0, 64, 77
1, 299956, Note_on_c, 0, 46, 44
1, 299970, Control_c, 0, 64, 86
1, 299973, Note_off_c, 0, 39, 46
1, 299984, Control_c, 0, 64, 93
1, 299999, Control_c, 0, 64, 97
1, 300014, Control_c, 0, 64, 99
1, 300028, Control_c, 0, 64, 99
1, 300043, Control_c, 0, 64, 100
1, 300058, Control_c, 0, 64, 100
1, 300088, Control_c, 0, 64, 101
1, 300100, Note_on_c, 0, 51, 60
1, 300108, Note_off_c, 0, 46, 53
1, 300117, Control_c, 0, 64, 101
1, 300147, Control_c, 0, 64, 102
1, 300201, Note_off_c, 0, 51, 55
1, 300233, Note_on_c, 0, 55, 64
1, 300281, Control_c, 0, 64, 102
1, 300325, Control_c, 0, 64, 103
1, 300328, Note_off_c, 0, 55, 49
1, 300354, Control_c, 0, 64, 103
1, 300355, Note_on_c, 0, 51, 61
1, 300369, Control_c, 0, 64, 104
1, 300399, Control_c, 0, 64, 105
1, 300414, Control_c, 0, 64, 106
1, 300428, Control_c, 0, 64, 108
1, 300443, Control_c, 0, 64, 111
1, 300454, Note_on_c, 0, 46, 63
1, 300458, Control_c, 0, 64, 115
1, 300463, Note_off_c, 0, 51, 56
1, 300473, Control_c, 0, 64, 121
1, 300488, Control_c, 0, 64, 127
1, 300595, Note_off_c, 0, 46, 60
1, 300600, Note_on_c, 0, 39, 68
1, 300719, Note_off_c, 0, 70, 57
1, 300730, Note_on_c, 0, 46, 61
1, 300732, Note_off_c, 0, 39, 58
1, 300749, Note_on_c, 0, 67, 73
1, 300892, Note_on_c, 0, 70, 79
1, 300899, Note_on_c, 0, 51, 63
1, 300917, Note_off_c, 0, 46, 52
1, 300923, Note_off_c, 0, 67, 57
1, 301030, Note_off_c, 0, 70, 59
1, 301048, Note_off_c, 0, 51, 54
1, 301062, Note_on_c, 0, 79, 79
1, 301081, Note_on_c, 0, 58, 61
1, 301227, Note_off_c, 0, 58, 56
1, 301228, Note_on_c, 0, 51, 56
1, 301236, Note_on_c, 0, 77, 80
1, 301336, Note_off_c, 0, 79, 37
1, 301426, Note_on_c, 0, 75, 82
1, 301430, Note_on_c, 0, 46, 60
1, 301453, Note_off_c, 0, 77, 58
1, 301467, Note_off_c, 0, 51, 35
1, 301598, Note_off_c, 0, 75, 51
1, 301616, Note_off_c, 0, 46, 37
1, 301786, Note_on_c, 0, 43, 41
1, 301833, Note_on_c, 0, 74, 67
1, 301881, Control_c, 0, 64, 90
1, 301896, Control_c, 0, 64, 70
1, 301911, Control_c, 0, 64, 37
1, 301926, Control_c, 0, 64, 0
1, 302015, Control_c, 0, 64, 60
1, 302030, Control_c, 0, 64, 67
1, 302045, Control_c, 0, 64, 72
1, 302060, Control_c, 0, 64, 77
1, 302074, Control_c, 0, 64, 82
1, 302089, Control_c, 0, 64, 86
1, 302104, Control_c, 0, 64, 92
1, 302118, Control_c, 0, 64, 102
1, 302133, Control_c, 0, 64, 111
1, 302148, Control_c, 0, 64, 127
1, 302173, Note_on_c, 0, 50, 39
1, 302194, Note_off_c, 0, 43, 30
1, 302240, Note_off_c, 0, 50, 57
1, 302340, Note_on_c, 0, 55, 45
1, 302385, Note_off_c, 0, 55, 58
1, 302488, Note_on_c, 0, 58, 44
1, 302569, Note_off_c, 0, 58, 53
1, 302639, Note_on_c, 0, 62, 44
1, 302766, Note_off_c, 0, 62, 36
1, 302773, Note_on_c, 0, 58, 45
1, 302846, Note_off_c, 0, 58, 47
1, 302943, Note_on_c, 0, 67, 46
1, 303013, Note_off_c, 0, 74, 34
1, 303040, Note_off_c, 0, 67, 45
1, 303103, Note_on_c, 0, 62, 43
1, 303107, Note_on_c, 0, 70, 54
1, 303187, Note_off_c, 0, 62, 50
1, 303256, Note_on_c, 0, 74, 66
1, 303256, Note_on_c, 0, 58, 35
1, 303259, Note_off_c, 0, 70, 36
1, 303288, Note_off_c, 0, 58, 52
1, 303366, Note_off_c, 0, 74, 53
1, 303396, Note_on_c, 0, 82, 78
1, 303414, Note_on_c, 0, 55, 32
1, 303473, Note_off_c, 0, 55, 45
1, 303474, Note_off_c, 0, 82, 60
1, 303536, Note_on_c, 0, 81, 86
1, 303645, Note_off_c, 0, 81, 52
1, 303683, Note_on_c, 0, 43, 62
1, 303691, Note_on_c, 0, 79, 81
1, 303694, Note_on_c, 0, 81, 34
1, 303739, Note_off_c, 0, 81, 55
1, 303823, Note_off_c, 0, 43, 36
1, 303833, Note_off_c, 0, 79, 59
1, 303848, Note_on_c, 0, 31, 57
1, 303857, Note_on_c, 0, 74, 79
1, 303891, Control_c, 0, 64, 85
1, 303905, Control_c, 0, 64, 65
1, 303920, Control_c, 0, 64, 0
1, 303980, Control_c, 0, 64, 55
1, 303994, Control_c, 0, 64, 69
1, 304009, Control_c, 0, 64, 79
1, 304014, Note_off_c, 0, 31, 58
1, 304024, Control_c, 0, 64, 92
1, 304039, Control_c, 0, 64, 104
1, 304046, Note_on_c, 0, 43, 58
1, 304054, Control_c, 0, 64, 113
1, 304068, Control_c, 0, 64, 118
1, 304083, Control_c, 0, 64, 121
1, 304084, Note_off_c, 0, 43, 62
1, 304098, Control_c, 0, 64, 127
1, 304345, Note_on_c, 0, 55, 44
1, 304375, Note_off_c, 0, 55, 56
1, 304479, Note_on_c, 0, 58, 41
1, 304565, Note_off_c, 0, 58, 51
1, 304604, Note_on_c, 0, 62, 44
1, 304726, Note_off_c, 0, 62, 36
1, 304729, Note_off_c, 0, 74, 24
1, 304760, Note_on_c, 0, 70, 50
1, 304800, Note_off_c, 0, 70, 47
1, 304885, Note_on_c, 0, 70, 75
1, 304923, Note_on_c, 0, 67, 37
1, 304973, Note_off_c, 0, 67, 41
1, 305022, Note_on_c, 0, 74, 79
1, 305029, Note_off_c, 0, 70, 59
1, 305048, Note_on_c, 0, 62, 46
1, 305105, Note_off_c, 0, 62, 51
1, 305174, Note_off_c, 0, 74, 48
1, 305176, Note_on_c, 0, 82, 85
1, 305178, Note_on_c, 0, 58, 50
1, 305208, Note_off_c, 0, 58, 63
1, 305242, Note_off_c, 0, 82, 61
1, 305310, Note_on_c, 0, 55, 47
1, 305318, Note_on_c, 0, 81, 83
1, 305372, Note_off_c, 0, 55, 50
1, 305412, Note_off_c, 0, 81, 53
1, 305456, Note_on_c, 0, 79, 78
1, 305464, Note_on_c, 0, 50, 47
1, 305580, Control_c, 0, 64, 116
1, 305584, Note_off_c, 0, 50, 51
1, 305595, Control_c, 0, 64, 83
1, 305610, Control_c, 0, 64, 64
1, 305622, Note_on_c, 0, 43, 42
1, 305622, Note_on_c, 0, 74, 69
1, 305624, Note_off_c, 0, 79, 58
1, 305625, Control_c, 0, 64, 0
1, 305669, Control_c, 0, 64, 17
1, 305683, Control_c, 0, 64, 63
1, 305698, Control_c, 0, 64, 71
1, 305713, Control_c, 0, 64, 81
1, 305728, Control_c, 0, 64, 92
1, 305743, Control_c, 0, 64, 101
1, 305757, Control_c, 0, 64, 108
1, 305772, Control_c, 0, 64, 113
1, 305787, Control_c, 0, 64, 117
1, 305802, Control_c, 0, 64, 120
1, 305817, Control_c, 0, 64, 127
1, 305831, Note_off_c, 0, 74, 59
1, 305836, Note_on_c, 0, 50, 46
1, 305840, Note_on_c, 0, 70, 62
1, 305848, Note_off_c, 0, 43, 32
1, 305877, Note_off_c, 0, 50, 61
1, 306004, Note_off_c, 0, 70, 34
1, 306126, Note_on_c, 0, 74, 48
1, 306144, Note_on_c, 0, 62, 35
1, 306213, Note_off_c, 0, 62, 52
1, 306321, Note_off_c, 0, 74, 35
1, 306412, Note_on_c, 0, 82, 58
1, 306561, Note_off_c, 0, 82, 29
1, 306636, Note_on_c, 0, 81, 49
1, 306814, Note_off_c, 0, 81, 43
1, 306825, Note_on_c, 0, 79, 44
1, 306924, Note_off_c, 0, 79, 51
1, 306984, Note_on_c, 0, 74, 54
1, 307128, Note_off_c, 0, 74, 34
1, 307166, Note_on_c, 0, 70, 43
1, 307305, Note_off_c, 0, 70, 31
1, 307356, Note_on_c, 0, 74, 43
1, 307474, Note_off_c, 0, 74, 29
1, 307569, Note_on_c, 0, 82, 48
1, 307627, Note_off_c, 0, 82, 41
1, 307784, Note_on_c, 0, 81, 54
1, 307939, Note_off_c, 0, 81, 38
1, 307962, Note_on_c, 0, 79, 61
1, 308057, Note_off_c, 0, 79, 58
1, 308189, Note_on_c, 0, 74, 56
1, 308379, Note_off_c, 0, 74, 55
1, 308398, Note_on_c, 0, 81, 58
1, 308541, Note_off_c, 0, 81, 56
1, 308602, Note_on_c, 0, 84, 53
1, 308769, Control_c, 0, 64, 114
1, 308783, Control_c, 0, 64, 104
1, 308798, Control_c, 0, 64, 96
1, 308813, Control_c, 0, 64, 89
1, 308815, Note_on_c, 0, 82, 54
1, 308828, Control_c, 0, 64, 82
1, 308836, Note_off_c, 0, 84, 34
1, 308842, Control_c, 0, 64, 75
1, 308857, Control_c, 0, 64, 69
1, 308872, Control_c, 0, 64, 63
1, 308887, Control_c, 0, 64, 55
1, 308902, Control_c, 0, 64, 48
1, 308924, Control_c, 0, 64, 46
1, 309007, Note_off_c, 0, 82, 55
1, 309045, Note_on_c, 0, 79, 46
1, 309220, Control_c, 0, 64, 47
1, 309234, Note_off_c, 0, 79, 58
1, 309249, Control_c, 0, 64, 47
1, 309279, Note_on_c, 0, 75, 41
1, 309308, Control_c, 0, 64, 48
1, 309353, Control_c, 0, 64, 48
1, 309382, Control_c, 0, 64, 49
1, 309428, Control_c, 0, 64, 49
1, 309443, Control_c, 0, 64, 50
1, 309457, Control_c, 0, 64, 51
1, 309472, Control_c, 0, 64, 52
1, 309487, Control_c, 0, 64, 55
1, 309499, Note_on_c, 0, 70, 41
1, 309502, Control_c, 0, 64, 59
1, 309510, Note_off_c, 0, 75, 39
1, 309517, Control_c, 0, 64, 63
1, 309531, Control_c, 0, 64, 68
1, 309546, Control_c, 0, 64, 74
1, 309561, Control_c, 0, 64, 81
1, 309576, Control_c, 0, 64, 87
1, 309591, Control_c, 0, 64, 91
1, 309605, Control_c, 0, 64, 95
1, 309620, Control_c, 0, 64, 99
1, 309635, Control_c, 0, 64, 102
1, 309649, Note_off_c, 0, 70, 50
1, 309650, Control_c, 0, 64, 105
1, 309672, Control_c, 0, 64, 106
1, 309687, Control_c, 0, 64, 107
1, 309702, Control_c, 0, 64, 108
1, 309717, Control_c, 0, 64, 109
1, 309732, Control_c, 0, 64, 109
1, 309754, Note_on_c, 0, 67, 42
1, 309792, Control_c, 0, 64, 110
1, 309820, Note_off_c, 0, 67, 50
1, 310022, Note_on_c, 0, 60, 49
1, 310282, Note_off_c, 0, 60, 37
1, 310283, Note_on_c, 0, 62, 55
1, 310602, Note_off_c, 0, 62, 53
1, 310614, Control_c, 0, 64, 109
1, 310629, Control_c, 0, 64, 109
1, 310632, Note_on_c, 0, 65, 45
1, 310644, Control_c, 0, 64, 107
1, 310659, Control_c, 0, 64, 104
1, 310674, Control_c, 0, 64, 99
1, 310688, Control_c, 0, 64, 94
1, 310703, Control_c, 0, 64, 90
1, 310718, Control_c, 0, 64, 85
1, 310733, Control_c, 0, 64, 81
1, 310748, Control_c, 0, 64, 77
1, 310762, Control_c, 0, 64, 72
1, 310777, Control_c, 0, 64, 68
1, 310792, Control_c, 0, 64, 63
1, 310806, Control_c, 0, 64, 57
1, 310821, Control_c, 0, 64, 52
1, 310836, Control_c, 0, 64, 51
1, 311133, Note_off_c, 0, 65, 30
1, 311134, Note_on_c, 0, 63, 36
1, 311185, Control_c, 0, 64, 50
1, 311200, Control_c, 0, 64, 49
1, 311215, Control_c, 0, 64, 48
1, 311230, Control_c, 0, 64, 46
1, 311244, Control_c, 0, 64, 44
1, 311259, Control_c, 0, 64, 41
1, 311274, Control_c, 0, 64, 36
1, 311289, Control_c, 0, 64, 30
1, 311304, Control_c, 0, 64, 21
1, 311319, Control_c, 0, 64, 0
1, 311842, Note_on_c, 0, 50, 13
1, 311850, Note_off_c, 0, 63, 37
1, 312082, Control_c, 0, 64, 9
1, 312097, Control_c, 0, 64, 51
1, 312112, Control_c, 0, 64, 60
1, 312127, Control_c, 0, 64, 64
1, 312142, Control_c, 0, 64, 66
1, 312157, Control_c, 0, 64, 67
1, 312171, Control_c, 0, 64, 69
1, 312186, Control_c, 0, 64, 72
1, 312198, Note_on_c, 0, 38, 33
1, 312201, Control_c, 0, 64, 75
1, 312216, Control_c, 0, 64, 80
1, 312231, Control_c, 0, 64, 85
1, 312246, Control_c, 0, 64, 90
1, 312260, Control_c, 0, 64, 96
1, 312275, Control_c, 0, 64, 102
1, 312290, Control_c, 0, 64, 109
1, 312305, Control_c, 0, 64, 118
1, 312319, Note_off_c, 0, 38, 32
1, 312320, Control_c, 0, 64, 127
1, 312471, Note_on_c, 0, 38, 40
1, 312678, Note_off_c, 0, 38, 29
1, 313118, Note_on_c, 0, 60, 42
1, 313243, Note_off_c, 0, 60, 38
1, 313257, Note_on_c, 0, 38, 35
1, 313279, Note_on_c, 0, 62, 43
1, 313306, Note_off_c, 0, 38, 44
1, 313328, Note_off_c, 0, 62, 57
1, 313372, Note_on_c, 0, 66, 54
1, 313457, Note_off_c, 0, 66, 43
1, 313501, Note_on_c, 0, 38, 38
1, 313510, Note_on_c, 0, 70, 56
1, 313553, Note_off_c, 0, 70, 60
1, 313611, Note_on_c, 0, 69, 62
1, 313629, Note_off_c, 0, 38, 36
1, 313654, Control_c, 0, 64, 118
1, 313669, Control_c, 0, 64, 99
1, 313684, Control_c, 0, 64, 84
1, 313699, Control_c, 0, 64, 73
1, 313713, Control_c, 0, 64, 63
1, 313728, Control_c, 0, 64, 45
1, 313732, Note_off_c, 0, 69, 55
1, 313743, Control_c, 0, 64, 0
1, 313749, Note_on_c, 0, 67, 58
1, 313936, Control_c, 0, 64, 19
1, 313950, Control_c, 0, 64, 37
1, 313965, Control_c, 0, 64, 50
1, 313980, Control_c, 0, 64, 61
1, 313995, Control_c, 0, 64, 66
1, 314010, Control_c, 0, 64, 70
1, 314016, Note_on_c, 0, 62, 42
1, 314023, Note_on_c, 0, 58, 42
1, 314024, Control_c, 0, 64, 76
1, 314034, Note_on_c, 0, 38, 38
1, 314039, Control_c, 0, 64, 81
1, 314054, Control_c, 0, 64, 84
1, 314069, Control_c, 0, 64, 86
1, 314076, Note_off_c, 0, 58, 56
1, 314084, Control_c, 0, 64, 88
1, 314098, Control_c, 0, 64, 90
1, 314100, Note_off_c, 0, 38, 51
1, 314113, Control_c, 0, 64, 91
1, 314115, Note_off_c, 0, 62, 36
1, 314128, Control_c, 0, 64, 92
1, 314150, Control_c, 0, 64, 94
1, 314165, Control_c, 0, 64, 95
1, 314180, Control_c, 0, 64, 97
1, 314195, Control_c, 0, 64, 99
1, 314210, Control_c, 0, 64, 100
1, 314225, Control_c, 0, 64, 101
1, 314240, Control_c, 0, 64, 102
1, 314255, Control_c, 0, 64, 102
1, 314262, Note_off_c, 0, 67, 56
1, 314264, Note_on_c, 0, 62, 58
1, 314270, Control_c, 0, 64, 103
1, 314273, Note_on_c, 0, 38, 38
1, 314275, Note_on_c, 0, 58, 42
1, 314284, Note_off_c, 0, 50, 37
1, 314285, Control_c, 0, 64, 104
1, 314300, Note_off_c, 0, 58, 57
1, 314306, Note_off_c, 0, 62, 59
1, 314311, Note_off_c, 0, 38, 53
1, 314329, Control_c, 0, 64, 104
1, 314388, Control_c, 0, 64, 105
1, 314477, Control_c, 0, 64, 104
1, 314492, Control_c, 0, 64, 100
1, 314507, Control_c, 0, 64, 90
1, 314522, Note_on_c, 0, 74, 74
1, 314522, Control_c, 0, 64, 78
1, 314536, Control_c, 0, 64, 66
1, 314545, Note_on_c, 0, 62, 39
1, 314551, Control_c, 0, 64, 49
1, 314566, Control_c, 0, 64, 0
1, 314625, Control_c, 0, 64, 24
1, 314640, Control_c, 0, 64, 58
1, 314655, Control_c, 0, 64, 67
1, 314669, Control_c, 0, 64, 73
1, 314684, Control_c, 0, 64, 80
1, 314699, Control_c, 0, 64, 82
1, 314714, Control_c, 0, 64, 84
1, 314729, Control_c, 0, 64, 84
1, 314744, Control_c, 0, 64, 85
1, 314759, Control_c, 0, 64, 86
1, 314773, Control_c, 0, 64, 87
1, 314788, Note_on_c, 0, 67, 48
1, 314788, Control_c, 0, 64, 88
1, 314789, Note_off_c, 0, 62, 39
1, 314803, Control_c, 0, 64, 88
1, 314816, Note_on_c, 0, 55, 32
1, 314818, Control_c, 0, 64, 89
1, 314819, Note_on_c, 0, 50, 25
1, 314833, Control_c, 0, 64, 89
1, 314847, Control_c, 0, 64, 90
1, 314862, Control_c, 0, 64, 90
1, 314871, Note_off_c, 0, 55, 42
1, 314877, Control_c, 0, 64, 91
1, 314884, Note_off_c, 0, 67, 38
1, 314899, Control_c, 0, 64, 92
1, 314899, Note_off_c, 0, 50, 36
1, 314914, Control_c, 0, 64, 92
1, 314929, Control_c, 0, 64, 93
1, 314944, Control_c, 0, 64, 94
1, 314959, Control_c, 0, 64, 94
1, 314974, Control_c, 0, 64, 95
1, 314988, Control_c, 0, 64, 95
1, 315018, Control_c, 0, 64, 96
1, 315074, Note_on_c, 0, 67, 43
1, 315078, Control_c, 0, 64, 96
1, 315108, Note_on_c, 0, 55, 32
1, 315111, Note_on_c, 0, 50, 25
1, 315170, Note_off_c, 0, 50, 41
1, 315177, Note_off_c, 0, 55, 39
1, 315193, Note_off_c, 0, 67, 36
1, 315323, Note_off_c, 0, 74, 42
1, 315389, Control_c, 0, 64, 95
1, 315400, Note_on_c, 0, 72, 44
1, 315403, Control_c, 0, 64, 92
1, 315416, Note_on_c, 0, 60, 38
1, 315418, Control_c, 0, 64, 87
1, 315433, Control_c, 0, 64, 79
1, 315448, Control_c, 0, 64, 72
1, 315463, Control_c, 0, 64, 64
1, 315477, Control_c, 0, 64, 51
1, 315492, Control_c, 0, 64, 39
1, 315507, Control_c, 0, 64, 35
1, 315537, Control_c, 0, 64, 36
1, 315552, Control_c, 0, 64, 36
1, 315567, Control_c, 0, 64, 37
1, 315582, Control_c, 0, 64, 38
1, 315596, Control_c, 0, 64, 39
1, 315611, Control_c, 0, 64, 39
1, 315641, Control_c, 0, 64, 40
1, 315663, Control_c, 0, 64, 41
1, 315677, Control_c, 0, 64, 42
1, 315692, Control_c, 0, 64, 44
1, 315707, Control_c, 0, 64, 46
1, 315722, Control_c, 0, 64, 48
1, 315737, Control_c, 0, 64, 50
1, 315752, Control_c, 0, 64, 54
1, 315766, Control_c, 0, 64, 60
1, 315781, Control_c, 0, 64, 65
1, 315788, Note_on_c, 0, 67, 34
1, 315796, Control_c, 0, 64, 70
1, 315801, Note_on_c, 0, 63, 26
1, 315811, Control_c, 0, 64, 76
1, 315814, Note_on_c, 0, 50, 7
1, 315826, Control_c, 0, 64, 83
1, 315835, Note_on_c, 0, 55, 3
1, 315841, Control_c, 0, 64, 88
1, 315856, Control_c, 0, 64, 91
1, 315871, Control_c, 0, 64, 94
1, 315886, Control_c, 0, 64, 96
1, 315897, Note_off_c, 0, 67, 35
1, 315901, Control_c, 0, 64, 97
1, 315903, Note_off_c, 0, 63, 35
1, 315914, Note_off_c, 0, 55, 37
1, 315915, Control_c, 0, 64, 98
1, 315957, Note_off_c, 0, 50, 29
1, 315960, Control_c, 0, 64, 98
1, 316155, Note_on_c, 0, 67, 30
1, 316163, Note_on_c, 0, 50, 15
1, 316176, Note_on_c, 0, 63, 24
1, 316184, Note_on_c, 0, 55, 26
1, 316288, Note_off_c, 0, 63, 27
1, 316315, Note_off_c, 0, 60, 30
1, 316318, Note_off_c, 0, 67, 37
1, 316320, Note_off_c, 0, 72, 37
1, 316326, Note_off_c, 0, 55, 23
1, 316327, Note_off_c, 0, 50, 22
1, 316590, Control_c, 0, 64, 98
1, 316650, Control_c, 0, 64, 97
1, 316665, Control_c, 0, 64, 96
1, 316680, Control_c, 0, 64, 95
1, 316695, Control_c, 0, 64, 94
1, 316710, Control_c, 0, 64, 92
1, 316724, Control_c, 0, 64, 90
1, 316739, Control_c, 0, 64, 88
1, 316754, Control_c, 0, 64, 86
1, 316768, Control_c, 0, 64, 85
1, 316783, Control_c, 0, 64, 83
1, 316798, Control_c, 0, 64, 82
1, 316813, Control_c, 0, 64, 81
1, 316828, Control_c, 0, 64, 79
1, 316843, Control_c, 0, 64, 78
1, 316857, Control_c, 0, 64, 76
1, 316872, Control_c, 0, 64, 74
1, 316887, Control_c, 0, 64, 72
1, 316902, Control_c, 0, 64, 70
1, 316917, Control_c, 0, 64, 67
1, 316932, Control_c, 0, 64, 64
1, 316947, Control_c, 0, 64, 61
1, 316962, Control_c, 0, 64, 59
1, 316976, Control_c, 0, 64, 58
1, 317065, Control_c, 0, 64, 58
1, 317109, Control_c, 0, 64, 57
1, 317147, Control_c, 0, 64, 57
1, 317162, Control_c, 0, 64, 56
1, 317176, Control_c, 0, 64, 55
1, 317191, Control_c, 0, 64, 55
1, 317206, Control_c, 0, 64, 54
1, 317235, Control_c, 0, 64, 54
1, 317249, Control_c, 0, 64, 53
1, 317294, Control_c, 0, 64, 53
1, 317382, Control_c, 0, 64, 53
1, 317397, Control_c, 0, 64, 54
1, 317412, Control_c, 0, 64, 56
1, 317428, Control_c, 0, 64, 60
1, 317441, Note_on_c, 0, 60, 31
1, 317443, Control_c, 0, 64, 64
1, 317458, Control_c, 0, 64, 66
1, 317472, Control_c, 0, 64, 69
1, 317487, Control_c, 0, 64, 72
1, 317502, Control_c, 0, 64, 75
1, 317517, Control_c, 0, 64, 78
1, 317531, Control_c, 0, 64, 80
1, 317546, Control_c, 0, 64, 82
1, 317561, Control_c, 0, 64, 83
1, 317576, Control_c, 0, 64, 84
1, 317591, Control_c, 0, 64, 84
1, 317621, Control_c, 0, 64, 85
1, 317635, Control_c, 0, 64, 86
1, 317650, Control_c, 0, 64, 86
1, 317665, Control_c, 0, 64, 87
1, 317680, Control_c, 0, 64, 87
1, 317697, Note_off_c, 0, 60, 35
1, 317698, Note_on_c, 0, 38, 41
1, 317724, Control_c, 0, 64, 88
1, 317727, Note_on_c, 0, 62, 37
1, 317781, Note_off_c, 0, 38, 51
1, 317787, Note_off_c, 0, 62, 57
1, 317813, Control_c, 0, 64, 88
1, 317828, Note_on_c, 0, 66, 53
1, 317940, Note_off_c, 0, 66, 36
1, 317958, Note_on_c, 0, 70, 54
1, 317960, Note_on_c, 0, 38, 40
1, 317997, Note_off_c, 0, 70, 57
1, 318038, Note_off_c, 0, 38, 39
1, 318062, Note_on_c, 0, 69, 60
1, 318145, Control_c, 0, 64, 88
1, 318160, Control_c, 0, 64, 87
1, 318175, Control_c, 0, 64, 84
1, 318190, Control_c, 0, 64, 79
1, 318196, Note_off_c, 0, 69, 55
1, 318205, Control_c, 0, 64, 73
1, 318220, Control_c, 0, 64, 66
1, 318221, Note_on_c, 0, 67, 50
1, 318235, Control_c, 0, 64, 52
1, 318250, Control_c, 0, 64, 17
1, 318265, Control_c, 0, 64, 0
1, 318399, Control_c, 0, 64, 35
1, 318413, Control_c, 0, 64, 50
1, 318428, Control_c, 0, 64, 61
1, 318443, Control_c, 0, 64, 66
1, 318458, Control_c, 0, 64, 71
1, 318472, Control_c, 0, 64, 77
1, 318487, Control_c, 0, 64, 82
1, 318494, Note_on_c, 0, 38, 32
1, 318502, Control_c, 0, 64, 84
1, 318509, Note_on_c, 0, 62, 37
1, 318512, Note_on_c, 0, 58, 43
1, 318517, Control_c, 0, 64, 86
1, 318532, Control_c, 0, 64, 88
1, 318546, Control_c, 0, 64, 89
1, 318561, Control_c, 0, 64, 90
1, 318570, Note_off_c, 0, 58, 56
1, 318576, Control_c, 0, 64, 91
1, 318585, Note_off_c, 0, 38, 45
1, 318591, Control_c, 0, 64, 93
1, 318598, Note_off_c, 0, 62, 45
1, 318606, Control_c, 0, 64, 95
1, 318620, Control_c, 0, 64, 97
1, 318635, Control_c, 0, 64, 99
1, 318658, Control_c, 0, 64, 100
1, 318672, Control_c, 0, 64, 101
1, 318687, Control_c, 0, 64, 101
1, 318702, Control_c, 0, 64, 102
1, 318735, Note_off_c, 0, 67, 50
1, 318746, Control_c, 0, 64, 102
1, 318767, Note_on_c, 0, 62, 50
1, 318780, Note_on_c, 0, 38, 41
1, 318791, Control_c, 0, 64, 103
1, 318795, Note_on_c, 0, 58, 38
1, 318823, Note_off_c, 0, 38, 47
1, 318834, Note_off_c, 0, 58, 49
1, 318835, Control_c, 0, 64, 103
1, 318843, Note_off_c, 0, 62, 49
1, 319029, Control_c, 0, 64, 102
1, 319043, Control_c, 0, 64, 97
1, 319057, Note_on_c, 0, 64, 57
1, 319058, Control_c, 0, 64, 87
1, 319065, Note_on_c, 0, 52, 42
1, 319073, Control_c, 0, 64, 76
1, 319088, Control_c, 0, 64, 65
1, 319102, Control_c, 0, 64, 45
1, 319117, Control_c, 0, 64, 0
1, 319177, Control_c, 0, 64, 17
1, 319192, Control_c, 0, 64, 56
1, 319206, Control_c, 0, 64, 67
1, 319221, Control_c, 0, 64, 75
1, 319236, Control_c, 0, 64, 85
1, 319251, Control_c, 0, 64, 90
1, 319258, Note_off_c, 0, 52, 32
1, 319266, Control_c, 0, 64, 92
1, 319281, Control_c, 0, 64, 93
1, 319295, Control_c, 0, 64, 94
1, 319310, Control_c, 0, 64, 95
1, 319325, Control_c, 0, 64, 96
1, 319340, Control_c, 0, 64, 97
1, 319355, Control_c, 0, 64, 97
1, 319359, Note_on_c, 0, 61, 46
1, 319369, Control_c, 0, 64, 98
1, 319379, Note_on_c, 0, 38, 34
1, 319379, Note_on_c, 0, 55, 30
1, 319384, Control_c, 0, 64, 99
1, 319400, Note_on_c, 0, 57, 33
1, 319406, Control_c, 0, 64, 99
1, 319421, Control_c, 0, 64, 100
1, 319436, Control_c, 0, 64, 101
1, 319438, Note_off_c, 0, 38, 45
1, 319454, Note_off_c, 0, 57, 44
1, 319458, Note_off_c, 0, 55, 49
1, 319466, Control_c, 0, 64, 101
1, 319480, Control_c, 0, 64, 102
1, 319535, Note_off_c, 0, 61, 28
1, 319549, Note_off_c, 0, 64, 29
1, 319554, Control_c, 0, 64, 102
1, 319633, Note_on_c, 0, 61, 43
1, 319657, Note_on_c, 0, 38, 31
1, 319660, Note_on_c, 0, 55, 21
1, 319716, Note_off_c, 0, 55, 45
1, 319728, Note_off_c, 0, 38, 36
1, 319764, Note_off_c, 0, 61, 35
1, 319895, Control_c, 0, 64, 102
1, 319910, Control_c, 0, 64, 98
1, 319925, Control_c, 0, 64, 88
1, 319934, Note_on_c, 0, 66, 51
1, 319940, Control_c, 0, 64, 76
1, 319951, Note_on_c, 0, 54, 34
1, 319955, Control_c, 0, 64, 65
1, 319970, Control_c, 0, 64, 39
1, 319984, Control_c, 0, 64, 0
1, 320058, Control_c, 0, 64, 45
1, 320073, Control_c, 0, 64, 64
1, 320087, Note_off_c, 0, 66, 54
1, 320088, Control_c, 0, 64, 68
1, 320103, Control_c, 0, 64, 73
1, 320117, Control_c, 0, 64, 76
1, 320132, Control_c, 0, 64, 79
1, 320154, Control_c, 0, 64, 81
1, 320158, Note_off_c, 0, 54, 39
1, 320169, Control_c, 0, 64, 84
1, 320184, Control_c, 0, 64, 86
1, 320199, Control_c, 0, 64, 89
1, 320214, Control_c, 0, 64, 91
1, 320229, Control_c, 0, 64, 94
1, 320244, Control_c, 0, 64, 97
1, 320259, Control_c, 0, 64, 100
1, 320274, Control_c, 0, 64, 102
1, 320288, Control_c, 0, 64, 105
1, 320303, Control_c, 0, 64, 107
1, 320318, Control_c, 0, 64, 109
1, 320333, Control_c, 0, 64, 112
1, 320348, Control_c, 0, 64, 114
1, 320363, Control_c, 0, 64, 116
1, 320378, Control_c, 0, 64, 117
1, 320392, Control_c, 0, 64, 118
1, 320407, Control_c, 0, 64, 120
1, 320420, Note_on_c, 0, 38, 36
1, 320422, Control_c, 0, 64, 121
1, 320427, Note_on_c, 0, 62, 40
1, 320430, Note_on_c, 0, 57, 39
1, 320451, Control_c, 0, 64, 124
1, 320500, Note_off_c, 0, 57, 51
1, 320502, Note_off_c, 0, 38, 37
1, 320525, Control_c, 0, 64, 127
1, 320563, Note_off_c, 0, 62, 36
1, 320718, Note_on_c, 0, 62, 34
1, 320721, Note_on_c, 0, 38, 30
1, 320724, Note_on_c, 0, 57, 38
1, 320825, Note_off_c, 0, 57, 44
1, 320923, Note_off_c, 0, 38, 29
1, 320938, Note_off_c, 0, 62, 35
1, 320948, Control_c, 0, 64, 124
1, 321096, Control_c, 0, 64, 121
1, 321141, Control_c, 0, 64, 120
1, 321156, Control_c, 0, 64, 118
1, 321171, Control_c, 0, 64, 117
1, 321186, Control_c, 0, 64, 116
1, 321200, Control_c, 0, 64, 114
1, 321215, Control_c, 0, 64, 112
1, 321230, Control_c, 0, 64, 109
1, 321245, Control_c, 0, 64, 107
1, 321260, Control_c, 0, 64, 103
1, 321274, Control_c, 0, 64, 99
1, 321289, Control_c, 0, 64, 95
1, 321304, Control_c, 0, 64, 90
1, 321319, Control_c, 0, 64, 85
1, 321334, Control_c, 0, 64, 80
1, 321348, Control_c, 0, 64, 74
1, 321363, Control_c, 0, 64, 67
1, 321378, Control_c, 0, 64, 61
1, 321392, Control_c, 0, 64, 54
1, 321409, Control_c, 0, 64, 49
1, 321424, Control_c, 0, 64, 49
1, 321757, Control_c, 0, 64, 49
1, 321786, Control_c, 0, 64, 50
1, 321801, Control_c, 0, 64, 51
1, 321815, Control_c, 0, 64, 54
1, 321830, Control_c, 0, 64, 58
1, 321845, Control_c, 0, 64, 62
1, 321860, Control_c, 0, 64, 65
1, 321873, Note_on_c, 0, 60, 39
1, 321875, Control_c, 0, 64, 69
1, 321889, Control_c, 0, 64, 74
1, 321904, Control_c, 0, 64, 80
1, 321919, Control_c, 0, 64, 84
1, 321934, Control_c, 0, 64, 87
1, 321949, Control_c, 0, 64, 89
1, 321964, Control_c, 0, 64, 89
1, 321979, Control_c, 0, 64, 90
1, 321994, Control_c, 0, 64, 90
1, 322002, Note_off_c, 0, 60, 56
1, 322008, Control_c, 0, 64, 91
1, 322017, Note_on_c, 0, 38, 43
1, 322023, Control_c, 0, 64, 91
1, 322026, Note_on_c, 0, 62, 50
1, 322038, Control_c, 0, 64, 92
1, 322053, Control_c, 0, 64, 92
1, 322068, Control_c, 0, 64, 93
1, 322090, Note_off_c, 0, 62, 49
1, 322096, Note_off_c, 0, 38, 48
1, 322097, Control_c, 0, 64, 93
1, 322121, Note_on_c, 0, 66, 57
1, 322196, Note_off_c, 0, 66, 50
1, 322244, Note_on_c, 0, 70, 51
1, 322261, Note_on_c, 0, 38, 41
1, 322268, Note_off_c, 0, 70, 59
1, 322339, Note_on_c, 0, 69, 75
1, 322346, Note_off_c, 0, 38, 38
1, 322461, Control_c, 0, 64, 93
1, 322476, Control_c, 0, 64, 91
1, 322490, Note_on_c, 0, 67, 73
1, 322491, Control_c, 0, 64, 86
1, 322506, Control_c, 0, 64, 77
1, 322520, Control_c, 0, 64, 68
1, 322535, Control_c, 0, 64, 58
1, 322542, Note_off_c, 0, 69, 38
1, 322550, Control_c, 0, 64, 30
1, 322565, Control_c, 0, 64, 0
1, 322727, Control_c, 0, 64, 24
1, 322742, Control_c, 0, 64, 43
1, 322757, Control_c, 0, 64, 56
1, 322766, Note_on_c, 0, 62, 49
1, 322767, Note_on_c, 0, 38, 34
1, 322772, Control_c, 0, 64, 64
1, 322780, Note_on_c, 0, 58, 40
1, 322786, Control_c, 0, 64, 71
1, 322801, Control_c, 0, 64, 79
1, 322816, Control_c, 0, 64, 87
1, 322831, Control_c, 0, 64, 91
1, 322834, Note_off_c, 0, 38, 49
1, 322835, Note_off_c, 0, 58, 58
1, 322846, Control_c, 0, 64, 94
1, 322857, Note_off_c, 0, 62, 53
1, 322861, Control_c, 0, 64, 96
1, 322876, Control_c, 0, 64, 98
1, 322891, Control_c, 0, 64, 100
1, 322906, Control_c, 0, 64, 102
1, 322920, Control_c, 0, 64, 105
1, 322935, Control_c, 0, 64, 107
1, 322950, Control_c, 0, 64, 110
1, 322964, Control_c, 0, 64, 115
1, 322979, Control_c, 0, 64, 120
1, 322994, Control_c, 0, 64, 127
1, 323000, Note_on_c, 0, 38, 46
1, 323003, Note_on_c, 0, 62, 64
1, 323016, Note_on_c, 0, 58, 50
1, 323022, Note_off_c, 0, 67, 49
1, 323043, Note_off_c, 0, 58, 56
1, 323046, Note_off_c, 0, 38, 51
1, 323060, Note_off_c, 0, 62, 57
1, 323239, Control_c, 0, 64, 118
1, 323254, Control_c, 0, 64, 99
1, 323260, Note_on_c, 0, 74, 88
1, 323268, Control_c, 0, 64, 84
1, 323283, Control_c, 0, 64, 70
1, 323298, Control_c, 0, 64, 54
1, 323299, Note_on_c, 0, 62, 37
1, 323313, Control_c, 0, 64, 0
1, 323372, Control_c, 0, 64, 55
1, 323386, Control_c, 0, 64, 69
1, 323401, Control_c, 0, 64, 78
1, 323416, Control_c, 0, 64, 89
1, 323431, Control_c, 0, 64, 94
1, 323446, Control_c, 0, 64, 96
1, 323460, Control_c, 0, 64, 96
1, 323475, Control_c, 0, 64, 97
1, 323490, Control_c, 0, 64, 97
1, 323494, Note_off_c, 0, 62, 36
1, 323505, Control_c, 0, 64, 98
1, 323511, Note_on_c, 0, 70, 70
1, 323520, Note_on_c, 0, 67, 58
1, 323525, Note_on_c, 0, 58, 47
1, 323544, Note_off_c, 0, 74, 56
1, 323550, Control_c, 0, 64, 98
1, 323555, Note_on_c, 0, 55, 20
1, 323563, Note_on_c, 0, 50, 7
1, 323575, Note_off_c, 0, 58, 56
1, 323579, Control_c, 0, 64, 99
1, 323595, Note_off_c, 0, 55, 51
1, 323606, Note_off_c, 0, 67, 55
1, 323609, Note_off_c, 0, 50, 51
1, 323624, Control_c, 0, 64, 99
1, 323633, Note_off_c, 0, 70, 58
1, 323698, Control_c, 0, 64, 100
1, 323735, Note_on_c, 0, 50, 34
1, 323745, Note_on_c, 0, 70, 81
1, 323752, Note_on_c, 0, 67, 62
1, 323759, Note_on_c, 0, 55, 20
1, 323768, Note_on_c, 0, 58, 40
1, 323776, Note_off_c, 0, 50, 46
1, 323806, Note_off_c, 0, 67, 51
1, 323815, Note_off_c, 0, 55, 43
1, 323828, Note_off_c, 0, 58, 41
1, 323869, Note_off_c, 0, 70, 56
1, 324003, Control_c, 0, 64, 99
1, 324018, Control_c, 0, 64, 99
1, 324032, Control_c, 0, 64, 95
1, 324037, Note_on_c, 0, 76, 78
1, 324047, Control_c, 0, 64, 88
1, 324062, Note_on_c, 0, 64, 34
1, 324062, Control_c, 0, 64, 79
1, 324077, Control_c, 0, 64, 67
1, 324092, Control_c, 0, 64, 53
1, 324107, Control_c, 0, 64, 0
1, 324196, Control_c, 0, 64, 43
1, 324210, Control_c, 0, 64, 63
1, 324225, Control_c, 0, 64, 69
1, 324240, Control_c, 0, 64, 74
1, 324255, Control_c, 0, 64, 78
1, 324270, Control_c, 0, 64, 80
1, 324284, Control_c, 0, 64, 82
1, 324286, Note_off_c, 0, 64, 43
1, 324299, Control_c, 0, 64, 84
1, 324314, Control_c, 0, 64, 86
1, 324329, Control_c, 0, 64, 87
1, 324344, Control_c, 0, 64, 89
1, 324358, Control_c, 0, 64, 91
1, 324373, Control_c, 0, 64, 93
1, 324388, Control_c, 0, 64, 95
1, 324402, Control_c, 0, 64, 96
1, 324417, Control_c, 0, 64, 98
1, 324432, Control_c, 0, 64, 99
1, 324447, Control_c, 0, 64, 101
1, 324450, Note_on_c, 0, 70, 46
1, 324462, Note_on_c, 0, 67, 37
1, 324462, Control_c, 0, 64, 102
1, 324477, Control_c, 0, 64, 103
1, 324489, Note_on_c, 0, 58, 37
1, 324492, Control_c, 0, 64, 104
1, 324503, Note_on_c, 0, 55, 28
1, 324507, Note_on_c, 0, 50, 24
1, 324547, Note_off_c, 0, 70, 48
1, 324551, Control_c, 0, 64, 104
1, 324552, Note_off_c, 0, 58, 40
1, 324557, Note_off_c, 0, 55, 43
1, 324560, Note_off_c, 0, 50, 43
1, 324580, Note_off_c, 0, 67, 34
1, 324748, Note_on_c, 0, 70, 38
1, 324754, Note_on_c, 0, 67, 34
1, 324779, Note_off_c, 0, 76, 37
1, 324804, Note_on_c, 0, 50, 28
1, 324806, Note_on_c, 0, 58, 31
1, 324881, Poly_aftertouch_c, 0, 55, 127
1, 324893, Note_off_c, 0, 70, 35
1, 324903, Note_off_c, 0, 67, 37
1, 324950, Poly_aftertouch_c, 0, 55, 0
1, 324960, Note_off_c, 0, 50, 28
1, 324971, Note_off_c, 0, 58, 20
1, 325166, Control_c, 0, 64, 104
1, 325211, Control_c, 0, 64, 103
1, 325226, Control_c, 0, 64, 100
1, 325240, Control_c, 0, 64, 95
1, 325255, Control_c, 0, 64, 90
1, 325270, Control_c, 0, 64, 82
1, 325285, Control_c, 0, 64, 76
1, 325299, Control_c, 0, 64, 69
1, 325314, Control_c, 0, 64, 61
1, 325329, Control_c, 0, 64, 46
1, 325344, Control_c, 0, 64, 21
1, 325359, Control_c, 0, 64, 0
1, 325604, Control_c, 0, 64, 19
1, 325619, Control_c, 0, 64, 26
1, 325634, Control_c, 0, 64, 31
1, 325649, Control_c, 0, 64, 36
1, 325663, Control_c, 0, 64, 41
1, 325678, Control_c, 0, 64, 44
1, 325693, Control_c, 0, 64, 47
1, 325708, Control_c, 0, 64, 50
1, 325723, Control_c, 0, 64, 52
1, 325738, Control_c, 0, 64, 55
1, 325752, Control_c, 0, 64, 58
1, 325767, Control_c, 0, 64, 62
1, 325782, Control_c, 0, 64, 65
1, 325797, Control_c, 0, 64, 69
1, 325812, Control_c, 0, 64, 73
1, 325818, Note_on_c, 0, 58, 47
1, 325827, Control_c, 0, 64, 78
1, 325842, Control_c, 0, 64, 81
1, 325856, Control_c, 0, 64, 84
1, 325871, Control_c, 0, 64, 87
1, 325886, Control_c, 0, 64, 90
1, 325901, Control_c, 0, 64, 93
1, 325916, Control_c, 0, 64, 96
1, 325930, Control_c, 0, 64, 99
1, 325945, Control_c, 0, 64, 101
1, 325960, Control_c, 0, 64, 103
1, 325975, Control_c, 0, 64, 105
1, 325988, Note_off_c, 0, 58, 35
1, 325989, Control_c, 0, 64, 108
1, 325997, Note_on_c, 0, 38, 44
1, 325998, Note_on_c, 0, 61, 55
1, 326004, Control_c, 0, 64, 110
1, 326019, Control_c, 0, 64, 113
1, 326034, Control_c, 0, 64, 118
1, 326049, Control_c, 0, 64, 127
1, 326065, Note_off_c, 0, 38, 52
1, 326075, Note_off_c, 0, 61, 56
1, 326096, Note_on_c, 0, 64, 59
1, 326185, Note_off_c, 0, 64, 49
1, 326220, Note_on_c, 0, 69, 60
1, 326233, Note_on_c, 0, 38, 35
1, 326286, Note_off_c, 0, 38, 45
1, 326304, Note_off_c, 0, 69, 58
1, 326310, Note_on_c, 0, 67, 66
1, 326360, Note_off_c, 0, 67, 54
1, 326368, Control_c, 0, 64, 112
1, 326383, Control_c, 0, 64, 95
1, 326398, Control_c, 0, 64, 80
1, 326412, Control_c, 0, 64, 68
1, 326427, Control_c, 0, 64, 53
1, 326438, Note_on_c, 0, 67, 59
1, 326442, Control_c, 0, 64, 0
1, 326575, Control_c, 0, 64, 14
1, 326590, Control_c, 0, 64, 37
1, 326605, Control_c, 0, 64, 47
1, 326620, Control_c, 0, 64, 55
1, 326635, Control_c, 0, 64, 62
1, 326650, Control_c, 0, 64, 66
1, 326665, Control_c, 0, 64, 69
1, 326667, Note_on_c, 0, 64, 48
1, 326675, Note_on_c, 0, 58, 33
1, 326679, Control_c, 0, 64, 74
1, 326689, Note_on_c, 0, 38, 34
1, 326694, Control_c, 0, 64, 78
1, 326697, Note_on_c, 0, 61, 30
1, 326709, Control_c, 0, 64, 82
1, 326724, Control_c, 0, 64, 85
1, 326730, Note_off_c, 0, 58, 50
1, 326738, Control_c, 0, 64, 90
1, 326752, Note_off_c, 0, 38, 50
1, 326753, Control_c, 0, 64, 94
1, 326757, Note_off_c, 0, 64, 55
1, 326760, Note_off_c, 0, 61, 41
1, 326768, Control_c, 0, 64, 99
1, 326783, Control_c, 0, 64, 104
1, 326798, Control_c, 0, 64, 110
1, 326812, Control_c, 0, 64, 117
1, 326827, Control_c, 0, 64, 127
1, 326897, Note_on_c, 0, 64, 62
1, 326898, Note_on_c, 0, 58, 46
1, 326900, Note_off_c, 0, 67, 39
1, 326903, Note_on_c, 0, 61, 48
1, 326922, Note_off_c, 0, 58, 59
1, 326928, Note_on_c, 0, 38, 31
1, 326933, Note_off_c, 0, 61, 62
1, 326940, Note_off_c, 0, 64, 57
1, 326967, Note_off_c, 0, 38, 52
1, 327118, Control_c, 0, 64, 98
1, 327133, Control_c, 0, 64, 81
1, 327148, Control_c, 0, 64, 65
1, 327162, Control_c, 0, 64, 44
1, 327171, Note_on_c, 0, 74, 64
1, 327177, Control_c, 0, 64, 0
1, 327187, Note_on_c, 0, 64, 38
1, 327222, Control_c, 0, 64, 35
1, 327236, Control_c, 0, 64, 58
1, 327251, Control_c, 0, 64, 68
1, 327266, Control_c, 0, 64, 78
1, 327281, Control_c, 0, 64, 91
1, 327296, Control_c, 0, 64, 103
1, 327310, Control_c, 0, 64, 108
1, 327316, Note_off_c, 0, 64, 36
1, 327325, Control_c, 0, 64, 111
1, 327340, Control_c, 0, 64, 114
1, 327354, Control_c, 0, 64, 117
1, 327369, Control_c, 0, 64, 121
1, 327384, Note_off_c, 0, 74, 59
1, 327384, Control_c, 0, 64, 127
1, 327434, Note_on_c, 0, 55, 50
1, 327434, Note_on_c, 0, 58, 56
1, 327448, Note_on_c, 0, 50, 44
1, 327457, Note_on_c, 0, 73, 42
1, 327493, Note_off_c, 0, 55, 56
1, 327496, Note_off_c, 0, 50, 55
1, 327497, Note_off_c, 0, 58, 47
1, 327520, Poly_aftertouch_c, 0, 67, 127
1, 327548, Note_off_c, 0, 73, 59
1, 327556, Poly_aftertouch_c, 0, 67, 0
1, 327656, Note_on_c, 0, 50, 29
1, 327659, Note_on_c, 0, 67, 61
1, 327659, Note_on_c, 0, 70, 64
1, 327660, Note_on_c, 0, 73, 73
1, 327671, Note_on_c, 0, 58, 46
1, 327678, Note_on_c, 0, 55, 33
1, 327681, Note_off_c, 0, 67, 62
1, 327692, Note_off_c, 0, 70, 61
1, 327695, Note_off_c, 0, 50, 43
1, 327710, Note_off_c, 0, 73, 46
1, 327720, Note_off_c, 0, 58, 56
1, 327726, Note_off_c, 0, 55, 45
1, 327821, Control_c, 0, 64, 118
1, 327836, Control_c, 0, 64, 88
1, 327851, Control_c, 0, 64, 70
1, 327866, Control_c, 0, 64, 49
1, 327872, Note_on_c, 0, 78, 89
1, 327881, Control_c, 0, 64, 0
1, 327890, Note_on_c, 0, 66, 56
1, 327926, Control_c, 0, 64, 58
1, 327940, Control_c, 0, 64, 73
1, 327955, Control_c, 0, 64, 87
1, 327970, Control_c, 0, 64, 105
1, 327984, Control_c, 0, 64, 121
1, 327991, Note_off_c, 0, 66, 57
1, 327999, Control_c, 0, 64, 127
1, 328102, Note_off_c, 0, 78, 59
1, 328119, Note_on_c, 0, 67, 50
1, 328120, Note_on_c, 0, 73, 59
1, 328125, Note_on_c, 0, 70, 57
1, 328128, Note_on_c, 0, 58, 50
1, 328143, Note_on_c, 0, 50, 37
1, 328155, Note_on_c, 0, 55, 31
1, 328179, Note_off_c, 0, 58, 54
1, 328181, Note_off_c, 0, 50, 52
1, 328190, Note_off_c, 0, 67, 50
1, 328191, Note_off_c, 0, 55, 51
1, 328200, Note_off_c, 0, 70, 49
1, 328208, Note_off_c, 0, 73, 55
1, 328325, Note_on_c, 0, 50, 23
1, 328331, Note_on_c, 0, 67, 51
1, 328331, Note_on_c, 0, 73, 63
1, 328334, Note_on_c, 0, 55, 29
1, 328341, Note_on_c, 0, 70, 56
1, 328357, Note_on_c, 0, 58, 38
1, 328370, Note_off_c, 0, 50, 48
1, 328383, Note_off_c, 0, 67, 50
1, 328387, Note_off_c, 0, 55, 46
1, 328391, Note_off_c, 0, 70, 58
1, 328396, Note_off_c, 0, 58, 54
1, 328414, Note_off_c, 0, 73, 53
1, 328599, Control_c, 0, 64, 117
1, 328614, Control_c, 0, 64, 98
1, 328629, Control_c, 0, 64, 79
1, 328631, Note_on_c, 0, 76, 57
1, 328642, Note_on_c, 0, 64, 37
1, 328644, Control_c, 0, 64, 65
1, 328659, Control_c, 0, 64, 37
1, 328674, Control_c, 0, 64, 0
1, 328718, Control_c, 0, 64, 17
1, 328733, Control_c, 0, 64, 61
1, 328748, Control_c, 0, 64, 68
1, 328763, Control_c, 0, 64, 74
1, 328778, Control_c, 0, 64, 79
1, 328793, Control_c, 0, 64, 82
1, 328807, Control_c, 0, 64, 83
1, 328822, Control_c, 0, 64, 84
1, 328837, Control_c, 0, 64, 85
1, 328852, Control_c, 0, 64, 86
1, 328856, Note_off_c, 0, 64, 38
1, 328867, Control_c, 0, 64, 88
1, 328881, Control_c, 0, 64, 89
1, 328896, Control_c, 0, 64, 90
1, 328911, Control_c, 0, 64, 91
1, 328925, Control_c, 0, 64, 92
1, 328940, Control_c, 0, 64, 93
1, 328955, Control_c, 0, 64, 93
1, 328976, Note_off_c, 0, 76, 33
1, 329017, Note_on_c, 0, 73, 45
1, 329034, Note_on_c, 0, 67, 37
1, 329035, Note_on_c, 0, 58, 39
1, 329045, Note_on_c, 0, 70, 29
1, 329060, Note_on_c, 0, 55, 27
1, 329070, Note_on_c, 0, 50, 19
1, 329140, Note_off_c, 0, 50, 38
1, 329211, Note_off_c, 0, 67, 38
1, 329219, Note_off_c, 0, 73, 59
1, 329224, Note_off_c, 0, 58, 40
1, 329237, Note_off_c, 0, 70, 39
1, 329239, Note_off_c, 0, 55, 20
1, 329244, Control_c, 0, 64, 93
1, 329258, Control_c, 0, 64, 92
1, 329273, Control_c, 0, 64, 90
1, 329288, Control_c, 0, 64, 85
1, 329303, Control_c, 0, 64, 78
1, 329318, Control_c, 0, 64, 70
1, 329333, Control_c, 0, 64, 60
1, 329347, Control_c, 0, 64, 32
1, 329362, Control_c, 0, 64, 0
1, 329508, Note_on_c, 0, 78, 76
1, 329510, Note_on_c, 0, 66, 67
1, 329534, Note_off_c, 0, 78, 65
1, 329538, Note_off_c, 0, 66, 65
1, 329571, Control_c, 0, 64, 23
1, 329586, Control_c, 0, 64, 62
1, 329595, Note_on_c, 0, 78, 93
1, 329601, Control_c, 0, 64, 68
1, 329604, Note_on_c, 0, 66, 70
1, 329616, Control_c, 0, 64, 74
1, 329630, Control_c, 0, 64, 80
1, 329645, Control_c, 0, 64, 87
1, 329660, Control_c, 0, 64, 96
1, 329669, Note_off_c, 0, 66, 56
1, 329675, Control_c, 0, 64, 109
1, 329690, Control_c, 0, 64, 127
1, 329818, Note_off_c, 0, 78, 59
1, 329880, Note_on_c, 0, 73, 56
1, 329882, Note_on_c, 0, 67, 44
1, 329882, Note_on_c, 0, 70, 57
1, 329883, Note_on_c, 0, 58, 53
1, 329887, Note_on_c, 0, 50, 42
1, 329904, Note_on_c, 0, 55, 41
1, 329927, Note_off_c, 0, 67, 53
1, 329932, Note_off_c, 0, 58, 57
1, 329937, Note_off_c, 0, 50, 54
1, 329937, Note_off_c, 0, 55, 58
1, 329941, Note_off_c, 0, 70, 49
1, 329967, Note_off_c, 0, 73, 53
1, 330073, Note_on_c, 0, 50, 33
1, 330083, Note_on_c, 0, 55, 28
1, 330090, Note_on_c, 0, 73, 65
1, 330095, Note_on_c, 0, 70, 48
1, 330103, Note_on_c, 0, 67, 33
1, 330116, Note_on_c, 0, 58, 28
1, 330118, Note_off_c, 0, 50, 49
1, 330145, Note_off_c, 0, 67, 47
1, 330145, Note_off_c, 0, 70, 55
1, 330153, Note_off_c, 0, 58, 49
1, 330170, Note_off_c, 0, 73, 55
1, 330173, Note_off_c, 0, 55, 39
1, 330349, Control_c, 0, 64, 111
1, 330358, Note_on_c, 0, 64, 40
1, 330364, Note_on_c, 0, 76, 56
1, 330364, Control_c, 0, 64, 87
1, 330379, Control_c, 0, 64, 71
1, 330394, Control_c, 0, 64, 60
1, 330409, Control_c, 0, 64, 27
1, 330424, Control_c, 0, 64, 0
1, 330453, Control_c, 0, 64, 28
1, 330468, Control_c, 0, 64, 49
1, 330483, Control_c, 0, 64, 61
1, 330497, Control_c, 0, 64, 66
1, 330512, Control_c, 0, 64, 74
1, 330527, Control_c, 0, 64, 81
1, 330542, Control_c, 0, 64, 85
1, 330557, Control_c, 0, 64, 87
1, 330571, Control_c, 0, 64, 87
1, 330586, Control_c, 0, 64, 88
1, 330593, Note_off_c, 0, 64, 38
1, 330601, Control_c, 0, 64, 89
1, 330616, Control_c, 0, 64, 89
1, 330638, Control_c, 0, 64, 90
1, 330723, Note_off_c, 0, 76, 32
1, 330755, Note_on_c, 0, 73, 45
1, 330774, Note_on_c, 0, 67, 37
1, 330780, Note_on_c, 0, 50, 29
1, 330781, Note_on_c, 0, 70, 33
1, 330787, Note_on_c, 0, 58, 32
1, 330807, Note_on_c, 0, 55, 19
1, 330900, Note_off_c, 0, 50, 25
1, 330928, Note_off_c, 0, 67, 33
1, 330939, Note_off_c, 0, 55, 24
1, 330949, Note_off_c, 0, 73, 40
1, 330952, Note_off_c, 0, 58, 41
1, 330961, Note_off_c, 0, 70, 31
1, 331025, Control_c, 0, 64, 89
1, 331040, Control_c, 0, 64, 85
1, 331055, Control_c, 0, 64, 78
1, 331070, Control_c, 0, 64, 69
1, 331084, Control_c, 0, 64, 59
1, 331099, Control_c, 0, 64, 0
1, 331197, Note_on_c, 0, 78, 80
1, 331212, Note_on_c, 0, 66, 64
1, 331223, Note_off_c, 0, 78, 64
1, 331243, Note_off_c, 0, 66, 64
1, 331247, Control_c, 0, 64, 57
1, 331247, Control_c, 0, 67, 126
1, 331262, Control_c, 0, 64, 67
1, 331262, Control_c, 0, 67, 109
1, 331276, Control_c, 0, 64, 75
1, 331276, Control_c, 0, 67, 87
1, 331278, Note_on_c, 0, 78, 97
1, 331291, Control_c, 0, 64, 89
1, 331291, Control_c, 0, 67, 63
1, 331305, Note_on_c, 0, 66, 73
1, 331306, Control_c, 0, 64, 105
1, 331306, Control_c, 0, 67, 37
1, 331321, Control_c, 0, 64, 127
1, 331321, Control_c, 0, 67, 12
1, 331336, Control_c, 0, 67, 0
1, 331363, Note_off_c, 0, 66, 56
1, 331457, Note_off_c, 0, 78, 60
1, 331525, Note_on_c, 0, 73, 66
1, 331526, Note_on_c, 0, 70, 67
1, 331527, Note_on_c, 0, 67, 62
1, 331531, Note_on_c, 0, 58, 54
1, 331539, Note_on_c, 0, 50, 43
1, 331550, Note_on_c, 0, 55, 41
1, 331578, Note_off_c, 0, 50, 59
1, 331580, Note_off_c, 0, 58, 57
1, 331585, Note_off_c, 0, 67, 54
1, 331593, Note_off_c, 0, 55, 58
1, 331612, Note_off_c, 0, 70, 56
1, 331637, Note_off_c, 0, 73, 56
1, 331729, Note_on_c, 0, 67, 70
1, 331734, Note_on_c, 0, 55, 43
1, 331734, Note_on_c, 0, 70, 69
1, 331734, Note_on_c, 0, 73, 84
1, 331743, Note_on_c, 0, 58, 56
1, 331745, Note_on_c, 0, 50, 26
1, 331789, Note_off_c, 0, 50, 45
1, 331792, Note_off_c, 0, 55, 56
1, 331803, Note_off_c, 0, 67, 58
1, 331820, Note_off_c, 0, 58, 54
1, 331828, Note_off_c, 0, 70, 58
1, 331848, Note_off_c, 0, 73, 59
1, 331941, Note_on_c, 0, 76, 88
1, 331950, Control_c, 0, 64, 109
1, 331959, Note_on_c, 0, 64, 63
1, 331965, Control_c, 0, 64, 77
1, 331980, Control_c, 0, 64, 58
1, 331980, Control_c, 0, 67, 9
1, 331995, Control_c, 0, 64, 0
1, 331995, Control_c, 0, 67, 10
1, 332010, Control_c, 0, 67, 11
1, 332054, Control_c, 0, 64, 61
1, 332069, Control_c, 0, 64, 69
1, 332084, Control_c, 0, 64, 76
1, 332099, Control_c, 0, 64, 84
1, 332114, Control_c, 0, 64, 88
1, 332114, Control_c, 0, 67, 10
1, 332130, Note_off_c, 0, 64, 53
1, 332136, Control_c, 0, 64, 90
1, 332136, Control_c, 0, 67, 10
1, 332150, Control_c, 0, 64, 91
1, 332150, Control_c, 0, 67, 9
1, 332165, Control_c, 0, 64, 92
1, 332165, Control_c, 0, 67, 8
1, 332180, Control_c, 0, 64, 93
1, 332180, Control_c, 0, 67, 0
1, 332195, Control_c, 0, 64, 94
1, 332200, Note_on_c, 0, 73, 82
1, 332203, Note_on_c, 0, 67, 76
1, 332206, Note_on_c, 0, 70, 73
1, 332210, Control_c, 0, 64, 95
1, 332220, Note_on_c, 0, 50, 49
1, 332220, Note_off_c, 0, 76, 64
1, 332222, Note_on_c, 0, 58, 58
1, 332224, Control_c, 0, 64, 96
1, 332233, Note_on_c, 0, 55, 43
1, 332239, Control_c, 0, 64, 96
1, 332247, Note_off_c, 0, 50, 57
1, 332254, Control_c, 0, 64, 97
1, 332259, Note_off_c, 0, 67, 56
1, 332261, Note_off_c, 0, 55, 56
1, 332263, Note_off_c, 0, 58, 62
1, 332269, Control_c, 0, 64, 98
1, 332281, Note_off_c, 0, 70, 59
1, 332299, Control_c, 0, 64, 98
1, 332307, Note_off_c, 0, 73, 61
1, 332313, Control_c, 0, 64, 99
1, 332328, Control_c, 0, 64, 99
1, 332343, Control_c, 0, 64, 100
1, 332358, Control_c, 0, 64, 100
1, 332373, Control_c, 0, 64, 101
1, 332417, Control_c, 0, 64, 101
1, 332447, Control_c, 0, 64, 102
1, 332491, Control_c, 0, 64, 101
1, 332494, Note_on_c, 0, 78, 83
1, 332506, Control_c, 0, 64, 91
1, 332521, Control_c, 0, 64, 77
1, 332536, Control_c, 0, 64, 63
1, 332537, Note_off_c, 0, 78, 61
1, 332550, Control_c, 0, 64, 0
1, 332580, Control_c, 0, 64, 9
1, 332591, Note_on_c, 0, 81, 101
1, 332596, Control_c, 0, 64, 62
1, 332611, Control_c, 0, 64, 75
1, 332618, Note_on_c, 0, 71, 63
1, 332626, Control_c, 0, 64, 99
1, 332635, Note_on_c, 0, 69, 46
1, 332635, Note_off_c, 0, 71, 66
1, 332640, Control_c, 0, 64, 127
1, 332647, Note_off_c, 0, 81, 59
1, 332660, Note_off_c, 0, 69, 56
1, 332908, Note_on_c, 0, 64, 75
1, 332908, Note_on_c, 0, 76, 83
1, 332909, Note_on_c, 0, 70, 80
1, 332912, Note_on_c, 0, 73, 76
1, 332925, Note_on_c, 0, 58, 59
1, 332929, Note_on_c, 0, 61, 53
1, 332935, Note_off_c, 0, 64, 66
1, 332942, Note_off_c, 0, 70, 57
1, 332954, Note_off_c, 0, 61, 63
1, 332955, Note_off_c, 0, 58, 64
1, 332971, Note_off_c, 0, 73, 56
1, 333011, Note_off_c, 0, 76, 45
1, 333103, Poly_aftertouch_c, 0, 58, 127
1, 333135, Poly_aftertouch_c, 0, 58, 0
1, 333158, Note_on_c, 0, 70, 86
1, 333160, Note_on_c, 0, 76, 80
1, 333168, Note_on_c, 0, 64, 63
1, 333168, Note_on_c, 0, 73, 77
1, 333172, Note_on_c, 0, 58, 42
1, 333189, Note_on_c, 0, 61, 21
1, 333199, Note_off_c, 0, 70, 57
1, 333199, Note_off_c, 0, 58, 62
1, 333199, Note_off_c, 0, 64, 65
1, 333226, Note_off_c, 0, 61, 55
1, 333232, Note_off_c, 0, 73, 58
1, 333369, Note_off_c, 0, 76, 22
1, 333372, Control_c, 0, 64, 109
1, 333387, Control_c, 0, 64, 74
1, 333403, Control_c, 0, 64, 48
1, 333412, Note_on_c, 0, 79, 97
1, 333416, Note_on_c, 0, 67, 82
1, 333418, Control_c, 0, 64, 0
1, 333447, Control_c, 0, 64, 34
1, 333462, Control_c, 0, 64, 64
1, 333467, Note_off_c, 0, 67, 61
1, 333477, Control_c, 0, 64, 80
1, 333492, Control_c, 0, 64, 113
1, 333507, Control_c, 0, 64, 127
1, 333559, Note_off_c, 0, 79, 61
1, 333718, Note_on_c, 0, 64, 78
1, 333722, Note_on_c, 0, 70, 84
1, 333726, Note_on_c, 0, 73, 76
1, 333727, Note_on_c, 0, 58, 68
1, 333731, Note_on_c, 0, 61, 64
1, 333738, Note_on_c, 0, 76, 70
1, 333739, Note_on_c, 0, 77, 70
1, 333752, Note_off_c, 0, 64, 58
1, 333759, Note_off_c, 0, 58, 64
1, 333760, Note_off_c, 0, 61, 66
1, 333765, Note_off_c, 0, 70, 57
1, 333774, Note_off_c, 0, 73, 63
1, 333865, Note_off_c, 0, 77, 37
1, 333875, Note_off_c, 0, 76, 33
1, 334042, Note_on_c, 0, 81, 103
1, 334049, Note_on_c, 0, 69, 88
1, 334089, Note_off_c, 0, 69, 61
1, 334133, Note_off_c, 0, 81, 57
1, 334411, Control_c, 0, 64, 81
1, 334425, Control_c, 0, 64, 58
1, 334430, Note_on_c, 0, 38, 91
1, 334430, Note_on_c, 0, 70, 94
1, 334432, Note_on_c, 0, 82, 92
1, 334436, Note_on_c, 0, 74, 91
1, 334436, Note_on_c, 0, 26, 77
1, 334440, Control_c, 0, 64, 0
1, 334461, Note_off_c, 0, 26, 62
1, 334485, Control_c, 0, 64, 48
1, 334487, Note_off_c, 0, 38, 64
1, 334496, Note_off_c, 0, 82, 61
1, 334500, Control_c, 0, 64, 67
1, 334515, Control_c, 0, 64, 77
1, 334516, Note_off_c, 0, 70, 59
1, 334530, Control_c, 0, 64, 98
1, 334544, Control_c, 0, 64, 127
1, 334549, Note_off_c, 0, 74, 51
1, 334811, Note_on_c, 0, 58, 88
1, 334817, Note_on_c, 0, 50, 75
1, 334856, Note_off_c, 0, 50, 60
1, 334859, Note_off_c, 0, 58, 64
1, 334962, Note_on_c, 0, 86, 84
1, 334968, Note_on_c, 0, 94, 85
1, 335031, Note_off_c, 0, 86, 60
1, 335068, Note_off_c, 0, 94, 61
1, 335133, Note_on_c, 0, 62, 83
1, 335133, Note_on_c, 0, 87, 92
1, 335133, Note_on_c, 0, 96, 91
1, 335141, Note_on_c, 0, 55, 80
1, 335175, Note_off_c, 0, 55, 61
1, 335184, Note_off_c, 0, 62, 61
1, 335202, Note_off_c, 0, 96, 62
1, 335247, Note_off_c, 0, 87, 54
1, 335281, Note_on_c, 0, 86, 90
1, 335287, Note_on_c, 0, 94, 78
1, 335348, Note_off_c, 0, 94, 63
1, 335351, Note_off_c, 0, 86, 61
1, 335425, Note_on_c, 0, 67, 84
1, 335427, Note_on_c, 0, 84, 98
1, 335434, Note_on_c, 0, 58, 63
1, 335440, Note_on_c, 0, 93, 84
1, 335459, Note_off_c, 0, 93, 68
1, 335467, Note_off_c, 0, 67, 56
1, 335478, Note_off_c, 0, 58, 53
1, 335483, Note_off_c, 0, 84, 58
1, 335563, Note_on_c, 0, 92, 85
1, 335571, Note_on_c, 0, 82, 84
1, 335628, Note_off_c, 0, 92, 64
1, 335653, Note_off_c, 0, 82, 60
1, 335718, Note_on_c, 0, 62, 87
1, 335722, Note_on_c, 0, 81, 95
1, 335724, Note_on_c, 0, 90, 95
1, 335725, Note_on_c, 0, 55, 81
1, 335776, Note_off_c, 0, 62, 58
1, 335778, Note_off_c, 0, 55, 56
1, 335780, Note_off_c, 0, 81, 60
1, 335801, Note_off_c, 0, 90, 63
1, 335869, Note_on_c, 0, 82, 86
1, 335878, Note_on_c, 0, 91, 83
1, 335963, Note_off_c, 0, 91, 63
1, 335992, Note_off_c, 0, 82, 59
1, 336040, Note_on_c, 0, 58, 77
1, 336042, Note_on_c, 0, 81, 100
1, 336046, Note_on_c, 0, 50, 70
1, 336047, Note_on_c, 0, 89, 97
1, 336062, Note_off_c, 0, 58, 67
1, 336078, Note_off_c, 0, 50, 65
1, 336150, Note_off_c, 0, 89, 54
1, 336158, Note_off_c, 0, 81, 49
1, 336308, Note_on_c, 0, 79, 74
1, 336312, Note_on_c, 0, 87, 79
1, 336331, Note_off_c, 0, 79, 70
1, 336333, Note_off_c, 0, 87, 68
1, 336338, Control_c, 0, 64, 65
1, 336353, Control_c, 0, 64, 0
1, 336365, Note_on_c, 0, 38, 94
1, 336367, Note_on_c, 0, 26, 83
1, 336373, Note_on_c, 0, 79, 100
1, 336376, Note_on_c, 0, 87, 97
1, 336397, Control_c, 0, 64, 58
1, 336402, Note_off_c, 0, 26, 63
1, 336412, Control_c, 0, 64, 75
1, 336427, Note_off_c, 0, 38, 63
1, 336427, Control_c, 0, 64, 127
1, 336448, Note_off_c, 0, 79, 62
1, 336449, Note_off_c, 0, 87, 64
1, 336480, Poly_aftertouch_c, 0, 34, 0
1, 336545, Note_on_c, 0, 86, 80
1, 336550, Note_on_c, 0, 78, 79
1, 336632, Note_off_c, 0, 86, 61
1, 336673, Note_off_c, 0, 78, 61
1, 336698, Note_on_c, 0, 60, 95
1, 336702, Note_on_c, 0, 75, 97
1, 336705, Note_on_c, 0, 50, 77
1, 336705, Note_on_c, 0, 84, 92
1, 336712, Note_on_c, 0, 54, 73
1, 336740, Note_off_c, 0, 50, 62
1, 336745, Note_off_c, 0, 54, 61
1, 336745, Note_off_c, 0, 60, 60
1, 336781, Note_off_c, 0, 84, 55
1, 336781, Note_off_c, 0, 75, 60
1, 336841, Note_on_c, 0, 82, 86
1, 336843, Note_on_c, 0, 74, 81
1, 336902, Note_off_c, 0, 74, 60
1, 336911, Note_off_c, 0, 82, 60
1, 336981, Note_on_c, 0, 72, 98
1, 336983, Note_on_c, 0, 81, 93
1, 336985, Note_on_c, 0, 62, 88
1, 336992, Note_on_c, 0, 60, 76
1, 336995, Note_on_c, 0, 54, 77
1, 337025, Note_off_c, 0, 72, 63
1, 337029, Note_off_c, 0, 81, 63
1, 337031, Note_off_c, 0, 62, 64
1, 337046, Note_off_c, 0, 60, 56
1, 337060, Note_off_c, 0, 54, 58
1, 337125, Note_on_c, 0, 70, 83
1, 337134, Note_on_c, 0, 79, 71
1, 337186, Note_off_c, 0, 79, 64
1, 337211, Note_off_c, 0, 70, 59
1, 337268, Note_on_c, 0, 78, 73
1, 337274, Note_on_c, 0, 66, 95
1, 337274, Note_on_c, 0, 68, 89
1, 337284, Note_on_c, 0, 60, 71
1, 337321, Note_off_c, 0, 68, 58
1, 337343, Note_on_c, 0, 72, 17
1, 337351, Note_off_c, 0, 66, 59
1, 337364, Note_off_c, 0, 78, 60
1, 337366, Note_off_c, 0, 60, 57
1, 337406, Note_off_c, 0, 72, 0
1, 337417, Note_on_c, 0, 72, 55
1, 337420, Note_on_c, 0, 75, 65
1, 337450, Note_off_c, 0, 75, 65
1, 337458, Note_off_c, 0, 72, 63
1, 337526, Note_on_c, 0, 74, 80
1, 337540, Note_on_c, 0, 72, 69
1, 337571, Note_off_c, 0, 72, 57
1, 337584, Note_off_c, 0, 74, 59
1, 337659, Control_c, 0, 64, 117
1, 337674, Control_c, 0, 64, 74
1, 337681, Note_on_c, 0, 62, 91
1, 337682, Note_on_c, 0, 74, 84
1, 337687, Note_on_c, 0, 60, 81
1, 337688, Control_c, 0, 64, 47
1, 337694, Note_on_c, 0, 54, 69
1, 337703, Control_c, 0, 64, 0
1, 337709, Note_on_c, 0, 71, 33
1, 337733, Note_on_c, 0, 70, 27
1, 337733, Control_c, 0, 64, 61
1, 337737, Note_off_c, 0, 71, 51
1, 337748, Note_off_c, 0, 74, 58
1, 337748, Control_c, 0, 64, 74
1, 337763, Control_c, 0, 64, 101
1, 337777, Control_c, 0, 64, 127
1, 337802, Note_on_c, 0, 74, 67
1, 337810, Note_on_c, 0, 69, 82
1, 337811, Note_off_c, 0, 70, 59
1, 337846, Note_off_c, 0, 74, 58
1, 337852, Note_off_c, 0, 69, 58
1, 337937, Note_on_c, 0, 74, 92
1, 337955, Note_on_c, 0, 67, 70
1, 337955, Note_on_c, 0, 68, 52
1, 337987, Note_off_c, 0, 67, 58
1, 337994, Note_off_c, 0, 68, 54
1, 338026, Note_off_c, 0, 74, 59
1, 338100, Note_off_c, 0, 62, 59
1, 338100, Note_off_c, 0, 60, 59
1, 338123, Note_on_c, 0, 69, 93
1, 338129, Note_on_c, 0, 74, 86
1, 338139, Note_off_c, 0, 54, 59
1, 338210, Note_off_c, 0, 69, 49
1, 338228, Note_off_c, 0, 74, 59
1, 338289, Control_c, 0, 64, 90
1, 338304, Control_c, 0, 64, 63
1, 338318, Control_c, 0, 64, 0
1, 338319, Note_on_c, 0, 74, 93
1, 338322, Note_on_c, 0, 70, 87
1, 338327, Note_on_c, 0, 60, 93
1, 338335, Note_on_c, 0, 54, 78
1, 338339, Note_on_c, 0, 50, 75
1, 338377, Control_c, 0, 64, 64
1, 338392, Control_c, 0, 64, 74
1, 338407, Control_c, 0, 64, 87
1, 338422, Control_c, 0, 64, 103
1, 338424, Note_off_c, 0, 74, 58
1, 338436, Control_c, 0, 64, 109
1, 338451, Control_c, 0, 64, 110
1, 338470, Note_off_c, 0, 70, 50
1, 338538, Note_on_c, 0, 74, 92
1, 338547, Note_on_c, 0, 69, 91
1, 338555, Control_c, 0, 64, 110
1, 338585, Control_c, 0, 64, 111
1, 338600, Control_c, 0, 64, 112
1, 338611, Note_off_c, 0, 74, 56
1, 338615, Control_c, 0, 64, 113
1, 338623, Note_off_c, 0, 69, 51
1, 338630, Control_c, 0, 64, 116
1, 338644, Control_c, 0, 64, 121
1, 338659, Control_c, 0, 64, 127
1, 338787, Note_on_c, 0, 74, 97
1, 338794, Note_on_c, 0, 72, 94
1, 338871, Note_off_c, 0, 74, 56
1, 338913, Note_off_c, 0, 72, 57
1, 339116, Note_on_c, 0, 74, 104
1, 339121, Note_on_c, 0, 70, 95
1, 339170, Note_off_c, 0, 60, 60
1, 339196, Note_off_c, 0, 50, 63
1, 339204, Note_off_c, 0, 54, 61
1, 339256, Note_off_c, 0, 74, 0
1, 339282, Note_off_c, 0, 70, 58
1, 339342, Poly_aftertouch_c, 0, 74, 0
1, 339393, Control_c, 0, 64, 116
1, 339408, Control_c, 0, 64, 82
1, 339423, Control_c, 0, 64, 64
1, 339438, Control_c, 0, 64, 0
1, 339540, Note_on_c, 0, 74, 102
1, 339542, Note_on_c, 0, 67, 110
1, 339542, Note_on_c, 0, 43, 95
1, 339551, Note_on_c, 0, 31, 81
1, 339556, Control_c, 0, 64, 63
1, 339566, Note_on_c, 0, 33, 60
1, 339571, Note_on_c, 0, 39, 58
1, 339571, Control_c, 0, 64, 80
1, 339585, Control_c, 0, 64, 127
1, 339592, Note_off_c, 0, 31, 64
1, 339593, Note_off_c, 0, 33, 58
1, 339599, Note_off_c, 0, 67, 66
1, 339602, Note_off_c, 0, 39, 56
1, 339623, Note_off_c, 0, 43, 62
1, 339638, Note_off_c, 0, 74, 58
1, 339908, Note_on_c, 0, 94, 84
1, 339921, Note_on_c, 0, 86, 71
1, 339934, Control_c, 0, 64, 89
1, 339949, Control_c, 0, 64, 67
1, 339962, Note_off_c, 0, 94, 63
1, 339964, Control_c, 0, 64, 14
1, 339977, Note_off_c, 0, 86, 55
1, 339979, Control_c, 0, 64, 0
1, 339997, Note_on_c, 0, 81, 70
1, 340046, Note_off_c, 0, 81, 59
1, 340085, Note_on_c, 0, 67, 60
1, 340106, Note_off_c, 0, 67, 63
1, 340110, Note_on_c, 0, 58, 50
1, 340117, Note_on_c, 0, 62, 21
1, 340144, Note_on_c, 0, 86, 58
1, 340145, Note_off_c, 0, 58, 64
1, 340148, Note_on_c, 0, 82, 70
1, 340157, Note_off_c, 0, 62, 44
1, 340158, Note_on_c, 0, 91, 51
1, 340173, Note_off_c, 0, 82, 67
1, 340177, Note_off_c, 0, 91, 63
1, 340186, Note_off_c, 0, 86, 62
1, 340237, Note_on_c, 0, 46, 76
1, 340242, Note_on_c, 0, 91, 83
1, 340255, Note_on_c, 0, 82, 81
1, 340272, Note_off_c, 0, 46, 65
1, 340296, Note_off_c, 0, 91, 65
1, 340330, Note_off_c, 0, 82, 62
1, 340335, Note_on_c, 0, 78, 70
1, 340390, Note_off_c, 0, 78, 54
1, 340433, Note_on_c, 0, 67, 46
1, 340460, Note_off_c, 0, 67, 56
1, 340466, Note_on_c, 0, 82, 63
1, 340478, Note_on_c, 0, 79, 61
1, 340481, Note_on_c, 0, 86, 58
1, 340506, Note_off_c, 0, 79, 68
1, 340508, Note_off_c, 0, 86, 67
1, 340521, Note_off_c, 0, 82, 59
1, 340571, Note_on_c, 0, 50, 64
1, 340571, Note_on_c, 0, 86, 85
1, 340577, Note_on_c, 0, 79, 86
1, 340581, Note_on_c, 0, 82, 65
1, 340604, Note_off_c, 0, 50, 64
1, 340629, Note_off_c, 0, 86, 63
1, 340644, Note_off_c, 0, 79, 62
1, 340645, Note_off_c, 0, 82, 60
1, 340662, Note_on_c, 0, 73, 73
1, 340713, Note_off_c, 0, 73, 58
1, 340744, Note_on_c, 0, 67, 53
1, 340762, Note_on_c, 0, 58, 40
1, 340782, Note_off_c, 0, 67, 63
1, 340787, Note_on_c, 0, 82, 63
1, 340791, Note_on_c, 0, 74, 65
1, 340793, Note_off_c, 0, 58, 57
1, 340819, Note_off_c, 0, 74, 66
1, 340823, Note_off_c, 0, 82, 60
1, 340891, Note_on_c, 0, 82, 78
1, 340892, Note_on_c, 0, 55, 67
1, 340895, Note_on_c, 0, 74, 80
1, 340914, Note_on_c, 0, 78, 28
1, 340915, Note_off_c, 0, 78, 127
1, 340920, Note_on_c, 0, 79, 38
1, 340931, Note_off_c, 0, 55, 59
1, 340950, Control_c, 0, 64, 14
1, 340961, Note_off_c, 0, 79, 63
1, 340964, Control_c, 0, 64, 19
1, 340974, Note_on_c, 0, 70, 72
1, 340975, Note_off_c, 0, 74, 61
1, 340977, Note_off_c, 0, 82, 59
1, 340979, Control_c, 0, 64, 23
1, 340994, Control_c, 0, 64, 27
1, 341009, Note_off_c, 0, 70, 61
1, 341009, Control_c, 0, 64, 28
1, 341054, Note_on_c, 0, 67, 43
1, 341061, Note_on_c, 0, 57, 50
1, 341082, Note_off_c, 0, 67, 54
1, 341096, Note_off_c, 0, 57, 64
1, 341119, Note_on_c, 0, 75, 63
1, 341122, Note_on_c, 0, 84, 58
1, 341130, Note_on_c, 0, 79, 36
1, 341148, Note_off_c, 0, 84, 63
1, 341149, Note_off_c, 0, 75, 65
1, 341157, Note_off_c, 0, 79, 58
1, 341164, Control_c, 0, 64, 28
1, 341195, Control_c, 0, 64, 28
1, 341203, Note_on_c, 0, 45, 60
1, 341211, Note_on_c, 0, 84, 79
1, 341220, Note_on_c, 0, 75, 76
1, 341227, Note_off_c, 0, 45, 60
1, 341265, Note_off_c, 0, 84, 56
1, 341283, Note_off_c, 0, 75, 61
1, 341289, Note_on_c, 0, 74, 73
1, 341298, Control_c, 0, 64, 29
1, 341334, Note_off_c, 0, 74, 58
1, 341363, Note_on_c, 0, 67, 54
1, 341372, Control_c, 0, 64, 30
1, 341379, Note_on_c, 0, 60, 39
1, 341379, Note_on_c, 0, 73, 67
1, 341389, Note_off_c, 0, 67, 58
1, 341393, Note_on_c, 0, 63, 32
1, 341403, Control_c, 0, 64, 31
1, 341411, Note_off_c, 0, 60, 57
1, 341424, Note_off_c, 0, 63, 49
1, 341441, Note_off_c, 0, 73, 59
1, 341447, Note_on_c, 0, 72, 74
1, 341448, Control_c, 0, 64, 31
1, 341477, Control_c, 0, 64, 32
1, 341479, Note_off_c, 0, 72, 61
1, 341492, Control_c, 0, 64, 32
1, 341507, Control_c, 0, 64, 33
1, 341536, Control_c, 0, 64, 34
1, 341540, Note_on_c, 0, 84, 69
1, 341547, Note_on_c, 0, 75, 71
1, 341547, Note_on_c, 0, 79, 56
1, 341548, Note_on_c, 0, 57, 26
1, 341575, Note_off_c, 0, 84, 58
1, 341578, Note_off_c, 0, 79, 67
1, 341579, Note_off_c, 0, 57, 47
1, 341610, Note_off_c, 0, 75, 59
1, 341625, Note_on_c, 0, 74, 68
1, 341626, Control_c, 0, 64, 34
1, 341655, Control_c, 0, 64, 35
1, 341675, Note_off_c, 0, 74, 51
1, 341700, Control_c, 0, 64, 35
1, 341703, Note_on_c, 0, 73, 69
1, 341712, Note_on_c, 0, 66, 37
1, 341714, Control_c, 0, 64, 36
1, 341715, Note_on_c, 0, 60, 38
1, 341729, Control_c, 0, 64, 36
1, 341740, Note_off_c, 0, 60, 51
1, 341744, Note_off_c, 0, 66, 50
1, 341744, Control_c, 0, 64, 37
1, 341758, Note_off_c, 0, 73, 55
1, 341784, Note_on_c, 0, 72, 65
1, 341814, Note_off_c, 0, 72, 63
1, 341833, Control_c, 0, 64, 37
1, 341869, Note_on_c, 0, 84, 72
1, 341870, Note_on_c, 0, 50, 35
1, 341874, Note_on_c, 0, 79, 57
1, 341878, Note_on_c, 0, 75, 68
1, 341885, Control_c, 0, 64, 38
1, 341898, Note_off_c, 0, 84, 62
1, 341903, Note_off_c, 0, 50, 36
1, 341904, Note_off_c, 0, 79, 67
1, 341929, Control_c, 0, 64, 38
1, 341939, Note_off_c, 0, 75, 61
1, 341942, Note_on_c, 0, 74, 77
1, 341987, Control_c, 0, 64, 39
1, 342002, Control_c, 0, 64, 39
1, 342010, Note_off_c, 0, 74, 48
1, 342017, Control_c, 0, 64, 40
1, 342025, Note_on_c, 0, 73, 72
1, 342035, Note_on_c, 0, 66, 48
1, 342046, Control_c, 0, 64, 40
1, 342049, Note_on_c, 0, 60, 35
1, 342061, Control_c, 0, 64, 41
1, 342074, Note_off_c, 0, 66, 50
1, 342081, Note_off_c, 0, 73, 61
1, 342091, Note_off_c, 0, 60, 46
1, 342124, Note_on_c, 0, 72, 71
1, 342150, Control_c, 0, 64, 40
1, 342166, Note_off_c, 0, 72, 61
1, 342179, Note_on_c, 0, 81, 44
1, 342181, Control_c, 0, 64, 40
1, 342201, Note_on_c, 0, 57, 34
1, 342204, Note_on_c, 0, 74, 36
1, 342218, Note_off_c, 0, 81, 64
1, 342225, Control_c, 0, 64, 39
1, 342231, Note_on_c, 0, 72, 46
1, 342234, Note_off_c, 0, 57, 52
1, 342240, Control_c, 0, 64, 39
1, 342253, Note_off_c, 0, 72, 62
1, 342279, Note_off_c, 0, 74, 62
1, 342285, Control_c, 0, 64, 42
1, 342299, Control_c, 0, 64, 52
1, 342314, Control_c, 0, 64, 62
1, 342317, Note_on_c, 0, 70, 90
1, 342329, Note_on_c, 0, 74, 65
1, 342329, Control_c, 0, 64, 66
1, 342332, Note_on_c, 0, 82, 77
1, 342333, Note_on_c, 0, 67, 54
1, 342344, Note_on_c, 0, 62, 44
1, 342344, Control_c, 0, 64, 71
1, 342354, Note_on_c, 0, 55, 53
1, 342356, Note_off_c, 0, 67, 59
1, 342356, Note_off_c, 0, 70, 57
1, 342359, Control_c, 0, 64, 77
1, 342371, Note_off_c, 0, 62, 55
1, 342373, Note_off_c, 0, 74, 59
1, 342374, Control_c, 0, 64, 84
1, 342379, Note_off_c, 0, 55, 60
1, 342389, Control_c, 0, 64, 91
1, 342397, Note_off_c, 0, 82, 64
1, 342403, Control_c, 0, 64, 96
1, 342418, Control_c, 0, 64, 99
1, 342433, Control_c, 0, 64, 102
1, 342448, Control_c, 0, 64, 106
1, 342463, Control_c, 0, 64, 110
1, 342477, Control_c, 0, 64, 113
1, 342492, Control_c, 0, 64, 114
1, 342522, Control_c, 0, 64, 106
1, 342536, Control_c, 0, 64, 87
1, 342551, Control_c, 0, 64, 70
1, 342565, Note_on_c, 0, 43, 50
1, 342565, Note_on_c, 0, 94, 82
1, 342566, Control_c, 0, 64, 43
1, 342568, Note_on_c, 0, 86, 81
1, 342581, Control_c, 0, 64, 0
1, 342595, Note_off_c, 0, 43, 35
1, 342612, Note_on_c, 0, 92, 5
1, 342629, Note_off_c, 0, 94, 63
1, 342645, Note_off_c, 0, 86, 65
1, 342648, Note_on_c, 0, 81, 73
1, 342657, Note_off_c, 0, 92, 53
1, 342684, Note_off_c, 0, 81, 61
1, 342729, Note_on_c, 0, 67, 66
1, 342741, Note_on_c, 0, 58, 56
1, 342759, Note_off_c, 0, 67, 65
1, 342774, Note_off_c, 0, 58, 64
1, 342788, Note_on_c, 0, 91, 71
1, 342790, Note_on_c, 0, 82, 75
1, 342793, Note_on_c, 0, 86, 60
1, 342811, Note_off_c, 0, 91, 68
1, 342814, Note_off_c, 0, 82, 64
1, 342823, Note_off_c, 0, 86, 64
1, 342890, Note_on_c, 0, 91, 88
1, 342891, Note_on_c, 0, 82, 89
1, 342893, Note_on_c, 0, 46, 58
1, 342917, Note_off_c, 0, 46, 61
1, 342924, Note_on_c, 0, 86, 50
1, 342938, Note_off_c, 0, 91, 63
1, 342945, Note_off_c, 0, 86, 62
1, 342973, Note_on_c, 0, 78, 77
1, 342974, Note_off_c, 0, 82, 62
1, 343030, Note_off_c, 0, 78, 61
1, 343047, Note_on_c, 0, 67, 65
1, 343053, Note_on_c, 0, 58, 56
1, 343077, Note_off_c, 0, 67, 63
1, 343084, Note_off_c, 0, 58, 64
1, 343101, Note_on_c, 0, 82, 65
1, 343103, Note_on_c, 0, 79, 70
1, 343111, Note_on_c, 0, 86, 58
1, 343132, Note_off_c, 0, 79, 65
1, 343140, Note_off_c, 0, 86, 67
1, 343141, Note_off_c, 0, 82, 61
1, 343198, Note_on_c, 0, 50, 62
1, 343202, Note_on_c, 0, 86, 85
1, 343209, Note_on_c, 0, 79, 85
1, 343213, Note_on_c, 0, 82, 69
1, 343229, Note_off_c, 0, 50, 65
1, 343254, Note_off_c, 0, 86, 62
1, 343277, Note_off_c, 0, 79, 60
1, 343280, Note_off_c, 0, 82, 57
1, 343285, Note_on_c, 0, 73, 74
1, 343343, Note_off_c, 0, 73, 60
1, 343365, Note_on_c, 0, 67, 68
1, 343383, Note_on_c, 0, 58, 44
1, 343394, Note_off_c, 0, 67, 63
1, 343414, Note_off_c, 0, 58, 62
1, 343419, Note_on_c, 0, 82, 65
1, 343426, Note_on_c, 0, 74, 62
1, 343454, Note_on_c, 0, 79, 27
1, 343456, Note_off_c, 0, 74, 64
1, 343465, Note_off_c, 0, 82, 61
1, 343488, Note_off_c, 0, 79, 47
1, 343515, Note_on_c, 0, 55, 70
1, 343515, Control_c, 0, 64, 12
1, 343522, Note_on_c, 0, 82, 75
1, 343522, Note_on_c, 0, 74, 86
1, 343530, Control_c, 0, 64, 19
1, 343545, Control_c, 0, 64, 24
1, 343558, Note_on_c, 0, 79, 59
1, 343559, Control_c, 0, 64, 28
1, 343569, Note_off_c, 0, 55, 56
1, 343574, Control_c, 0, 64, 30
1, 343588, Note_on_c, 0, 70, 79
1, 343589, Control_c, 0, 64, 32
1, 343601, Note_off_c, 0, 74, 59
1, 343604, Control_c, 0, 64, 33
1, 343614, Note_off_c, 0, 82, 60
1, 343615, Note_off_c, 0, 79, 59
1, 343619, Control_c, 0, 64, 35
1, 343647, Note_off_c, 0, 70, 61
1, 343648, Control_c, 0, 64, 35
1, 343672, Note_on_c, 0, 67, 57
1, 343689, Note_on_c, 0, 57, 55
1, 343692, Note_off_c, 0, 67, 61
1, 343723, Note_off_c, 0, 57, 63
1, 343734, Note_on_c, 0, 75, 71
1, 343740, Note_on_c, 0, 79, 56
1, 343744, Note_on_c, 0, 84, 57
1, 343760, Note_off_c, 0, 75, 64
1, 343768, Note_off_c, 0, 84, 62
1, 343772, Note_off_c, 0, 79, 66
1, 343827, Control_c, 0, 64, 36
1, 343828, Note_on_c, 0, 45, 66
1, 343832, Note_on_c, 0, 84, 85
1, 343836, Note_on_c, 0, 75, 87
1, 343858, Note_off_c, 0, 45, 64
1, 343876, Note_on_c, 0, 79, 24
1, 343893, Note_off_c, 0, 84, 62
1, 343913, Note_on_c, 0, 74, 80
1, 343914, Note_off_c, 0, 79, 45
1, 343916, Note_off_c, 0, 75, 63
1, 343945, Control_c, 0, 64, 36
1, 343968, Note_off_c, 0, 74, 57
1, 343992, Note_on_c, 0, 67, 55
1, 343997, Note_on_c, 0, 73, 76
1, 344013, Note_on_c, 0, 63, 41
1, 344013, Note_off_c, 0, 67, 58
1, 344041, Note_off_c, 0, 63, 55
1, 344075, Note_off_c, 0, 73, 62
1, 344079, Note_on_c, 0, 72, 72
1, 344117, Note_off_c, 0, 72, 57
1, 344145, Control_c, 0, 64, 37
1, 344159, Note_on_c, 0, 84, 84
1, 344166, Note_on_c, 0, 57, 51
1, 344166, Note_on_c, 0, 79, 69
1, 344174, Note_on_c, 0, 75, 72
1, 344200, Note_off_c, 0, 79, 64
1, 344201, Note_off_c, 0, 57, 62
1, 344212, Note_off_c, 0, 84, 62
1, 344249, Note_on_c, 0, 74, 78
1, 344249, Note_off_c, 0, 75, 62
1, 344264, Control_c, 0, 64, 37
1, 344285, Note_off_c, 0, 74, 60
1, 344329, Note_on_c, 0, 73, 72
1, 344329, Note_on_c, 0, 66, 52
1, 344342, Note_on_c, 0, 60, 36
1, 344353, Note_off_c, 0, 66, 59
1, 344368, Control_c, 0, 64, 38
1, 344370, Note_off_c, 0, 60, 47
1, 344395, Note_off_c, 0, 73, 59
1, 344399, Note_on_c, 0, 72, 74
1, 344433, Note_off_c, 0, 72, 58
1, 344471, Control_c, 0, 64, 38
1, 344475, Note_on_c, 0, 50, 57
1, 344484, Note_on_c, 0, 84, 75
1, 344493, Note_on_c, 0, 79, 69
1, 344496, Note_on_c, 0, 75, 73
1, 344500, Control_c, 0, 64, 39
1, 344506, Note_off_c, 0, 50, 61
1, 344515, Control_c, 0, 64, 39
1, 344521, Note_off_c, 0, 79, 67
1, 344528, Note_off_c, 0, 84, 61
1, 344560, Control_c, 0, 64, 40
1, 344562, Note_off_c, 0, 75, 62
1, 344565, Note_on_c, 0, 74, 77
1, 344591, Control_c, 0, 64, 40
1, 344605, Control_c, 0, 64, 41
1, 344620, Control_c, 0, 64, 42
1, 344631, Note_off_c, 0, 74, 48
1, 344635, Control_c, 0, 64, 42
1, 344642, Note_on_c, 0, 66, 56
1, 344646, Note_on_c, 0, 73, 75
1, 344649, Note_on_c, 0, 60, 48
1, 344649, Control_c, 0, 64, 43
1, 344679, Control_c, 0, 64, 43
1, 344681, Note_off_c, 0, 66, 59
1, 344698, Note_off_c, 0, 60, 56
1, 344723, Note_off_c, 0, 73, 48
1, 344726, Note_on_c, 0, 72, 74
1, 344789, Note_on_c, 0, 81, 74
1, 344789, Note_off_c, 0, 72, 61
1, 344801, Note_on_c, 0, 57, 48
1, 344833, Note_on_c, 0, 74, 55
1, 344842, Note_off_c, 0, 81, 64
1, 344852, Note_off_c, 0, 57, 60
1, 344864, Control_c, 0, 64, 43
1, 344886, Note_on_c, 0, 72, 53
1, 344891, Note_off_c, 0, 74, 59
1, 344895, Note_on_c, 0, 71, 43
1, 344908, Note_off_c, 0, 72, 61
1, 344909, Control_c, 0, 64, 45
1, 344921, Note_off_c, 0, 71, 55
1, 344924, Control_c, 0, 64, 52
1, 344939, Control_c, 0, 64, 61
1, 344954, Control_c, 0, 64, 65
1, 344961, Note_on_c, 0, 73, 81
1, 344969, Note_on_c, 0, 70, 77
1, 344969, Control_c, 0, 64, 69
1, 344970, Note_on_c, 0, 82, 77
1, 344976, Note_on_c, 0, 67, 64
1, 344981, Note_on_c, 0, 62, 59
1, 344984, Control_c, 0, 64, 73
1, 344993, Note_off_c, 0, 70, 67
1, 344999, Control_c, 0, 64, 77
1, 345005, Note_off_c, 0, 67, 62
1, 345009, Note_on_c, 0, 55, 38
1, 345011, Note_off_c, 0, 62, 62
1, 345012, Note_off_c, 0, 73, 66
1, 345013, Control_c, 0, 64, 80
1, 345028, Control_c, 0, 64, 84
1, 345042, Note_off_c, 0, 55, 45
1, 345043, Control_c, 0, 64, 86
1, 345054, Note_off_c, 0, 82, 63
1, 345057, Control_c, 0, 64, 88
1, 345072, Control_c, 0, 64, 89
1, 345087, Control_c, 0, 64, 89
1, 345131, Control_c, 0, 64, 86
1, 345146, Control_c, 0, 64, 76
1, 345161, Control_c, 0, 64, 63
1, 345176, Control_c, 0, 64, 37
1, 345178, Note_on_c, 0, 80, 78
1, 345186, Note_on_c, 0, 48, 57
1, 345191, Control_c, 0, 64, 40
1, 345206, Control_c, 0, 64, 59
1, 345216, Note_off_c, 0, 48, 62
1, 345221, Control_c, 0, 64, 68
1, 345236, Control_c, 0, 64, 80
1, 345242, Note_off_c, 0, 80, 53
1, 345250, Control_c, 0, 64, 118
1, 345257, Note_on_c, 0, 92, 74
1, 345259, Poly_aftertouch_c, 0, 88, 127
1, 345262, Note_on_c, 0, 87, 72
1, 345265, Control_c, 0, 64, 127
1, 345296, Poly_aftertouch_c, 0, 88, 0
1, 345325, Note_off_c, 0, 92, 62
1, 345342, Note_on_c, 0, 80, 86
1, 345348, Note_off_c, 0, 87, 63
1, 345379, Note_off_c, 0, 80, 63
1, 345418, Note_on_c, 0, 67, 73
1, 345428, Note_on_c, 0, 63, 65
1, 345440, Note_on_c, 0, 56, 54
1, 345441, Note_off_c, 0, 67, 63
1, 345457, Note_off_c, 0, 63, 65
1, 345465, Note_off_c, 0, 56, 58
1, 345533, Control_c, 0, 64, 110
1, 345547, Control_c, 0, 64, 70
1, 345562, Control_c, 0, 64, 23
1, 345575, Note_on_c, 0, 66, 88
1, 345577, Control_c, 0, 64, 0
1, 345595, Note_on_c, 0, 50, 45
1, 345614, Control_c, 0, 64, 17
1, 345629, Note_off_c, 0, 50, 55
1, 345629, Control_c, 0, 64, 64
1, 345644, Control_c, 0, 64, 75
1, 345659, Control_c, 0, 64, 90
1, 345659, Note_on_c, 0, 69, 73
1, 345661, Note_off_c, 0, 66, 60
1, 345674, Control_c, 0, 64, 104
1, 345688, Control_c, 0, 64, 112
1, 345695, Note_off_c, 0, 69, 55
1, 345703, Control_c, 0, 64, 113
1, 345728, Note_on_c, 0, 78, 18
1, 345733, Control_c, 0, 64, 114
1, 345754, Note_on_c, 0, 66, 73
1, 345757, Note_on_c, 0, 64, 51
1, 345777, Control_c, 0, 64, 115
1, 345778, Note_on_c, 0, 59, 51
1, 345780, Note_off_c, 0, 66, 64
1, 345781, Note_off_c, 0, 64, 59
1, 345792, Note_off_c, 0, 78, 0
1, 345802, Note_off_c, 0, 59, 59
1, 345805, Note_on_c, 0, 78, 45
1, 345806, Control_c, 0, 64, 116
1, 345810, Note_on_c, 0, 69, 32
1, 345821, Control_c, 0, 64, 117
1, 345835, Note_off_c, 0, 69, 58
1, 345842, Note_off_c, 0, 78, 64
1, 345909, Note_on_c, 0, 45, 62
1, 345921, Note_on_c, 0, 79, 68
1, 345925, Note_on_c, 0, 81, 77
1, 345934, Note_off_c, 0, 45, 60
1, 345975, Note_on_c, 0, 91, 69
1, 345975, Note_off_c, 0, 81, 52
1, 345976, Note_off_c, 0, 79, 60
1, 346005, Note_on_c, 0, 82, 71
1, 346037, Note_off_c, 0, 91, 63
1, 346061, Note_off_c, 0, 82, 62
1, 346069, Note_on_c, 0, 79, 70
1, 346073, Note_on_c, 0, 62, 59
1, 346084, Note_off_c, 0, 79, 69
1, 346104, Note_on_c, 0, 55, 33
1, 346104, Note_off_c, 0, 62, 62
1, 346118, Control_c, 0, 64, 118
1, 346139, Note_off_c, 0, 55, 45
1, 346152, Note_on_c, 0, 79, 65
1, 346162, Control_c, 0, 64, 115
1, 346163, Note_on_c, 0, 70, 74
1, 346178, Control_c, 0, 64, 94
1, 346191, Note_off_c, 0, 79, 57
1, 346193, Note_off_c, 0, 70, 65
1, 346193, Control_c, 0, 64, 72
1, 346207, Control_c, 0, 64, 27
1, 346222, Control_c, 0, 64, 0
1, 346246, Note_on_c, 0, 48, 63
1, 346255, Note_on_c, 0, 68, 84
1, 346267, Control_c, 0, 64, 44
1, 346282, Note_off_c, 0, 48, 63
1, 346282, Control_c, 0, 64, 66
1, 346296, Control_c, 0, 64, 75
1, 346311, Control_c, 0, 64, 87
1, 346326, Control_c, 0, 64, 101
1, 346333, Note_off_c, 0, 68, 58
1, 346341, Control_c, 0, 64, 112
1, 346360, Note_on_c, 0, 75, 60
1, 346362, Note_on_c, 0, 80, 68
1, 346363, Control_c, 0, 64, 115
1, 346377, Note_off_c, 0, 75, 64
1, 346377, Control_c, 0, 64, 116
1, 346379, Note_off_c, 0, 80, 67
1, 346407, Control_c, 0, 64, 117
1, 346422, Control_c, 0, 64, 124
1, 346427, Note_on_c, 0, 63, 71
1, 346436, Control_c, 0, 64, 127
1, 346440, Note_on_c, 0, 80, 79
1, 346443, Note_on_c, 0, 56, 45
1, 346451, Note_off_c, 0, 63, 67
1, 346473, Note_off_c, 0, 56, 52
1, 346485, Note_on_c, 0, 82, 34
1, 346514, Note_on_c, 0, 92, 78
1, 346514, Note_off_c, 0, 82, 53
1, 346519, Note_off_c, 0, 80, 60
1, 346528, Note_on_c, 0, 87, 72
1, 346575, Note_off_c, 0, 92, 62
1, 346593, Note_on_c, 0, 80, 82
1, 346602, Note_off_c, 0, 87, 61
1, 346624, Note_off_c, 0, 80, 62
1, 346710, Note_on_c, 0, 67, 77
1, 346723, Note_on_c, 0, 63, 59
1, 346732, Note_off_c, 0, 67, 67
1, 346736, Note_on_c, 0, 56, 52
1, 346749, Note_off_c, 0, 63, 66
1, 346762, Note_off_c, 0, 56, 60
1, 346820, Poly_aftertouch_c, 0, 70, 127
1, 346821, Control_c, 0, 64, 109
1, 346836, Control_c, 0, 64, 71
1, 346849, Poly_aftertouch_c, 0, 70, 0
1, 346851, Control_c, 0, 64, 23
1, 346860, Note_on_c, 0, 66, 90
1, 346866, Control_c, 0, 64, 0
1, 346873, Note_on_c, 0, 50, 64
1, 346905, Note_off_c, 0, 50, 63
1, 346910, Control_c, 0, 64, 55
1, 346925, Control_c, 0, 64, 67
1, 346935, Note_on_c, 0, 69, 70
1, 346939, Note_off_c, 0, 66, 60
1, 346940, Control_c, 0, 64, 77
1, 346954, Control_c, 0, 64, 85
1, 346971, Control_c, 0, 64, 90
1, 346985, Control_c, 0, 64, 92
1, 347000, Control_c, 0, 64, 92
1, 347029, Note_on_c, 0, 62, 66
1, 347030, Control_c, 0, 64, 93
1, 347035, Note_on_c, 0, 66, 77
1, 347044, Control_c, 0, 64, 93
1, 347056, Note_on_c, 0, 57, 52
1, 347058, Note_off_c, 0, 62, 65
1, 347059, Control_c, 0, 64, 94
1, 347074, Control_c, 0, 64, 96
1, 347075, Note_off_c, 0, 69, 0
1, 347081, Note_off_c, 0, 57, 57
1, 347085, Note_off_c, 0, 66, 61
1, 347087, Note_on_c, 0, 69, 37
1, 347089, Control_c, 0, 64, 98
1, 347102, Note_on_c, 0, 78, 52
1, 347111, Control_c, 0, 64, 99
1, 347116, Note_off_c, 0, 69, 60
1, 347126, Control_c, 0, 64, 100
1, 347140, Control_c, 0, 64, 101
1, 347141, Note_off_c, 0, 78, 64
1, 347148, Poly_aftertouch_c, 0, 60, 0
1, 347170, Control_c, 0, 64, 101
1, 347185, Control_c, 0, 64, 102
1, 347203, Note_on_c, 0, 43, 62
1, 347215, Control_c, 0, 64, 102
1, 347221, Note_on_c, 0, 79, 68
1, 347222, Note_on_c, 0, 81, 76
1, 347230, Control_c, 0, 64, 103
1, 347232, Note_off_c, 0, 43, 61
1, 347245, Control_c, 0, 64, 104
1, 347274, Control_c, 0, 64, 104
1, 347276, Note_off_c, 0, 81, 43
1, 347282, Note_off_c, 0, 79, 58
1, 347289, Control_c, 0, 64, 105
1, 347290, Note_on_c, 0, 91, 71
1, 347301, Note_on_c, 0, 82, 73
1, 347304, Control_c, 0, 64, 106
1, 347319, Control_c, 0, 64, 106
1, 347333, Control_c, 0, 64, 107
1, 347343, Note_off_c, 0, 91, 63
1, 347348, Control_c, 0, 64, 108
1, 347363, Control_c, 0, 64, 108
1, 347367, Note_off_c, 0, 82, 64
1, 347370, Note_on_c, 0, 79, 77
1, 347371, Note_on_c, 0, 62, 56
1, 347378, Control_c, 0, 64, 109
1, 347385, Note_on_c, 0, 55, 48
1, 347385, Note_off_c, 0, 79, 70
1, 347393, Control_c, 0, 64, 110
1, 347398, Note_off_c, 0, 62, 59
1, 347407, Control_c, 0, 64, 111
1, 347414, Note_off_c, 0, 55, 58
1, 347422, Control_c, 0, 64, 112
1, 347448, Note_on_c, 0, 79, 63
1, 347468, Note_on_c, 0, 70, 75
1, 347481, Control_c, 0, 64, 111
1, 347495, Note_off_c, 0, 70, 67
1, 347496, Control_c, 0, 64, 94
1, 347503, Note_off_c, 0, 79, 63
1, 347511, Control_c, 0, 64, 71
1, 347525, Control_c, 0, 64, 0
1, 347549, Note_on_c, 0, 47, 71
1, 347555, Note_on_c, 0, 65, 89
1, 347582, Note_off_c, 0, 47, 65
1, 347585, Control_c, 0, 64, 62
1, 347600, Control_c, 0, 64, 72
1, 347614, Control_c, 0, 64, 88
1, 347629, Control_c, 0, 64, 127
1, 347631, Note_on_c, 0, 68, 73
1, 347634, Note_off_c, 0, 65, 60
1, 347653, Note_on_c, 0, 77, 67
1, 347653, Note_off_c, 0, 68, 68
1, 347659, Poly_aftertouch_c, 0, 72, 127
1, 347680, Note_off_c, 0, 77, 66
1, 347692, Poly_aftertouch_c, 0, 72, 0
1, 347737, Note_on_c, 0, 77, 85
1, 347742, Note_on_c, 0, 54, 65
1, 347746, Note_on_c, 0, 62, 66
1, 347769, Note_on_c, 0, 56, 41
1, 347790, Note_off_c, 0, 54, 59
1, 347808, Note_off_c, 0, 62, 53
1, 347816, Note_on_c, 0, 89, 76
1, 347823, Note_on_c, 0, 53, 29
1, 347826, Note_off_c, 0, 77, 62
1, 347829, Note_on_c, 0, 80, 73
1, 347835, Note_off_c, 0, 56, 37
1, 347868, Note_off_c, 0, 53, 52
1, 347876, Note_off_c, 0, 89, 63
1, 347896, Note_off_c, 0, 80, 63
1, 347911, Note_on_c, 0, 48, 56
1, 347913, Note_on_c, 0, 77, 55
1, 347932, Note_off_c, 0, 77, 64
1, 347936, Note_off_c, 0, 48, 59
1, 347995, Note_on_c, 0, 68, 80
1, 347995, Note_on_c, 0, 75, 74
1, 348038, Note_off_c, 0, 68, 49
1, 348039, Note_off_c, 0, 75, 47
1, 348053, Control_c, 0, 64, 83
1, 348068, Control_c, 0, 64, 44
1, 348082, Control_c, 0, 64, 0
1, 348099, Note_on_c, 0, 63, 94
1, 348106, Note_on_c, 0, 51, 82
1, 348109, Note_on_c, 0, 60, 78
1, 348156, Control_c, 0, 64, 72
1, 348157, Note_on_c, 0, 68, 74
1, 348160, Note_on_c, 0, 75, 70
1, 348166, Note_off_c, 0, 63, 62
1, 348171, Note_off_c, 0, 60, 60
1, 348171, Control_c, 0, 64, 95
1, 348181, Note_off_c, 0, 51, 57
1, 348186, Control_c, 0, 64, 127
1, 348199, Note_off_c, 0, 75, 61
1, 348223, Note_off_c, 0, 68, 57
1, 348259, Note_on_c, 0, 62, 82
1, 348262, Note_on_c, 0, 50, 86
1, 348328, Note_off_c, 0, 62, 57
1, 348335, Note_off_c, 0, 50, 60
1, 348343, Note_on_c, 0, 68, 77
1, 348362, Note_on_c, 0, 74, 65
1, 348369, Note_off_c, 0, 68, 66
1, 348381, Note_off_c, 0, 74, 65
1, 348427, Note_on_c, 0, 59, 79
1, 348435, Note_on_c, 0, 74, 83
1, 348441, Note_on_c, 0, 56, 63
1, 348444, Note_on_c, 0, 53, 63
1, 348485, Note_off_c, 0, 59, 60
1, 348511, Note_off_c, 0, 56, 58
1, 348512, Note_off_c, 0, 53, 54
1, 348514, Note_off_c, 0, 74, 59
1, 348515, Note_on_c, 0, 80, 76
1, 348526, Note_on_c, 0, 86, 64
1, 348556, Note_off_c, 0, 86, 65
1, 348594, Note_off_c, 0, 80, 62
1, 348599, Note_on_c, 0, 51, 77
1, 348600, Note_on_c, 0, 74, 76
1, 348622, Note_off_c, 0, 74, 70
1, 348676, Note_off_c, 0, 51, 57
1, 348688, Note_on_c, 0, 68, 71
1, 348696, Note_on_c, 0, 72, 64
1, 348697, Control_c, 0, 64, 98
1, 348711, Control_c, 0, 64, 72
1, 348726, Control_c, 0, 64, 0
1, 348735, Note_off_c, 0, 68, 53
1, 348738, Note_off_c, 0, 72, 55
1, 348759, Note_on_c, 0, 60, 70
1, 348765, Note_on_c, 0, 56, 69
1, 348786, Note_off_c, 0, 60, 65
1, 348792, Note_off_c, 0, 56, 63
1, 348833, Note_on_c, 0, 68, 77
1, 348846, Note_on_c, 0, 72, 54
1, 348872, Note_off_c, 0, 72, 61
1, 348892, Note_off_c, 0, 68, 58
1, 348926, Note_on_c, 0, 60, 79
1, 348931, Note_on_c, 0, 42, 77
1, 348934, Control_c, 0, 64, 65
1, 348948, Control_c, 0, 64, 77
1, 348959, Note_off_c, 0, 42, 62
1, 348963, Control_c, 0, 64, 89
1, 348978, Control_c, 0, 64, 99
1, 348993, Control_c, 0, 64, 106
1, 349001, Note_off_c, 0, 60, 59
1, 349007, Note_on_c, 0, 63, 70
1, 349008, Control_c, 0, 64, 127
1, 349009, Note_on_c, 0, 72, 62
1, 349024, Note_off_c, 0, 63, 66
1, 349043, Note_off_c, 0, 72, 65
1, 349093, Note_on_c, 0, 63, 67
1, 349102, Note_on_c, 0, 72, 85
1, 349110, Note_on_c, 0, 54, 51
1, 349131, Note_on_c, 0, 60, 42
1, 349146, Note_off_c, 0, 54, 51
1, 349151, Note_off_c, 0, 63, 46
1, 349153, Note_off_c, 0, 60, 59
1, 349184, Note_off_c, 0, 72, 59
1, 349191, Note_on_c, 0, 75, 70
1, 349192, Note_on_c, 0, 84, 76
1, 349253, Note_off_c, 0, 84, 60
1, 349272, Note_on_c, 0, 55, 63
1, 349275, Note_on_c, 0, 62, 54
1, 349275, Note_on_c, 0, 72, 83
1, 349279, Note_off_c, 0, 75, 62
1, 349287, Note_on_c, 0, 58, 44
1, 349296, Note_off_c, 0, 62, 60
1, 349302, Note_off_c, 0, 55, 63
1, 349314, Note_off_c, 0, 58, 56
1, 349334, Control_c, 0, 64, 92
1, 349355, Control_c, 0, 64, 67
1, 349358, Note_off_c, 0, 72, 61
1, 349360, Note_on_c, 0, 84, 73
1, 349361, Note_on_c, 0, 75, 71
1, 349372, Control_c, 0, 64, 0
1, 349392, Note_off_c, 0, 84, 58
1, 349443, Note_off_c, 0, 75, 58
1, 349454, Note_on_c, 0, 70, 82
1, 349478, Note_on_c, 0, 45, 10
1, 349524, Note_on_c, 0, 74, 69
1, 349525, Note_off_c, 0, 45, 27
1, 349531, Note_off_c, 0, 70, 63
1, 349532, Note_on_c, 0, 82, 60
1, 349569, Note_off_c, 0, 82, 57
1, 349573, Note_off_c, 0, 74, 60
1, 349618, Note_on_c, 0, 48, 65
1, 349624, Control_c, 0, 64, 67
1, 349625, Note_on_c, 0, 70, 89
1, 349638, Control_c, 0, 64, 91
1, 349649, Note_off_c, 0, 48, 62
1, 349653, Control_c, 0, 64, 127
1, 349669, Note_on_c, 0, 82, 65
1, 349704, Note_off_c, 0, 70, 61
1, 349705, Note_on_c, 0, 74, 69
1, 349731, Note_off_c, 0, 82, 62
1, 349735, Note_off_c, 0, 74, 61
1, 349790, Note_on_c, 0, 67, 68
1, 349796, Note_on_c, 0, 69, 78
1, 349811, Note_on_c, 0, 57, 42
1, 349814, Note_on_c, 0, 63, 37
1, 349814, Note_off_c, 0, 67, 63
1, 349841, Note_off_c, 0, 57, 53
1, 349845, Note_off_c, 0, 63, 52
1, 349873, Note_on_c, 0, 81, 71
1, 349874, Note_off_c, 0, 69, 62
1, 349880, Note_on_c, 0, 72, 75
1, 349925, Note_off_c, 0, 81, 61
1, 349932, Note_off_c, 0, 72, 59
1, 349960, Note_on_c, 0, 50, 59
1, 349969, Note_on_c, 0, 67, 68
1, 349981, Note_off_c, 0, 50, 60
1, 350050, Note_on_c, 0, 79, 64
1, 350050, Note_on_c, 0, 70, 77
1, 350053, Note_off_c, 0, 67, 60
1, 350101, Note_off_c, 0, 79, 59
1, 350110, Note_off_c, 0, 70, 59
1, 350127, Note_on_c, 0, 66, 68
1, 350143, Note_on_c, 0, 57, 49
1, 350158, Note_on_c, 0, 62, 43
1, 350171, Note_off_c, 0, 57, 58
1, 350189, Note_off_c, 0, 66, 48
1, 350196, Note_on_c, 0, 69, 81
1, 350199, Note_off_c, 0, 62, 59
1, 350208, Note_on_c, 0, 78, 76
1, 350209, Control_c, 0, 64, 86
1, 350224, Control_c, 0, 64, 61
1, 350236, Note_off_c, 0, 69, 53
1, 350239, Control_c, 0, 64, 0
1, 350279, Note_off_c, 0, 78, 61
1, 350286, Note_on_c, 0, 67, 90
1, 350291, Note_on_c, 0, 62, 73
1, 350298, Control_c, 0, 64, 63
1, 350299, Note_on_c, 0, 70, 95
1, 350303, Note_on_c, 0, 79, 82
1, 350307, Note_on_c, 0, 58, 63
1, 350309, Note_on_c, 0, 55, 57
1, 350311, Note_off_c, 0, 67, 66
1, 350313, Control_c, 0, 64, 73
1, 350318, Note_off_c, 0, 62, 64
1, 350328, Control_c, 0, 64, 86
1, 350342, Note_off_c, 0, 55, 63
1, 350342, Note_off_c, 0, 58, 64
1, 350342, Control_c, 0, 64, 101
1, 350347, Note_off_c, 0, 70, 64
1, 350357, Control_c, 0, 64, 112
1, 350358, Note_off_c, 0, 79, 65
1, 350372, Control_c, 0, 64, 115
1, 350387, Control_c, 0, 64, 116
1, 350506, Control_c, 0, 64, 117
1, 350521, Note_on_c, 0, 80, 82
1, 350526, Note_on_c, 0, 48, 66
1, 350559, Note_off_c, 0, 48, 64
1, 350565, Control_c, 0, 64, 118
1, 350580, Control_c, 0, 64, 120
1, 350605, Note_on_c, 0, 92, 77
1, 350606, Note_off_c, 0, 80, 59
1, 350609, Control_c, 0, 64, 121
1, 350610, Note_on_c, 0, 87, 71
1, 350624, Control_c, 0, 64, 124
1, 350639, Control_c, 0, 64, 127
1, 350678, Note_off_c, 0, 92, 58
1, 350691, Note_on_c, 0, 80, 82
1, 350699, Note_off_c, 0, 87, 62
1, 350721, Note_off_c, 0, 80, 63
1, 350746, Note_on_c, 0, 67, 74
1, 350762, Note_on_c, 0, 63, 58
1, 350763, Note_on_c, 0, 56, 59
1, 350773, Note_off_c, 0, 67, 64
1, 350783, Note_off_c, 0, 63, 63
1, 350795, Note_off_c, 0, 56, 61
1, 350868, Control_c, 0, 64, 94
1, 350883, Control_c, 0, 64, 72
1, 350898, Control_c, 0, 64, 0
1, 350917, Note_on_c, 0, 50, 65
1, 350918, Note_on_c, 0, 66, 86
1, 350942, Control_c, 0, 64, 22
1, 350952, Note_off_c, 0, 50, 64
1, 350957, Control_c, 0, 64, 64
1, 350973, Control_c, 0, 64, 75
1, 350988, Control_c, 0, 64, 91
1, 350996, Note_on_c, 0, 69, 73
1, 350998, Note_off_c, 0, 66, 60
1, 351003, Control_c, 0, 64, 127
1, 351087, Note_on_c, 0, 62, 43
1, 351090, Note_on_c, 0, 66, 76
1, 351092, Note_on_c, 0, 57, 52
1, 351099, Poly_aftertouch_c, 0, 78, 127
1, 351100, Note_off_c, 0, 69, 0
1, 351115, Note_off_c, 0, 62, 54
1, 351117, Note_off_c, 0, 57, 61
1, 351121, Note_on_c, 0, 69, 22
1, 351122, Note_off_c, 0, 66, 60
1, 351138, Note_on_c, 0, 78, 18
1, 351156, Note_off_c, 0, 69, 51
1, 351177, Note_off_c, 0, 78, 64
1, 351228, Note_on_c, 0, 43, 61
1, 351251, Note_on_c, 0, 79, 68
1, 351254, Note_off_c, 0, 43, 57
1, 351259, Note_on_c, 0, 81, 78
1, 351282, Note_off_c, 0, 81, 65
1, 351301, Note_off_c, 0, 79, 60
1, 351308, Note_on_c, 0, 91, 58
1, 351344, Note_on_c, 0, 82, 66
1, 351372, Note_off_c, 0, 91, 63
1, 351396, Note_on_c, 0, 79, 82
1, 351396, Note_off_c, 0, 82, 63
1, 351406, Note_on_c, 0, 62, 61
1, 351418, Note_off_c, 0, 79, 68
1, 351433, Note_off_c, 0, 62, 62
1, 351446, Note_on_c, 0, 58, 9
1, 351491, Note_off_c, 0, 58, 51
1, 351506, Control_c, 0, 64, 98
1, 351510, Poly_aftertouch_c, 0, 55, 0
1, 351521, Control_c, 0, 64, 69
1, 351535, Control_c, 0, 64, 0
1, 351563, Note_on_c, 0, 48, 69
1, 351573, Note_on_c, 0, 68, 88
1, 351603, Control_c, 0, 64, 62
1, 351603, Note_off_c, 0, 48, 64
1, 351618, Control_c, 0, 64, 72
1, 351632, Control_c, 0, 64, 85
1, 351647, Control_c, 0, 64, 106
1, 351662, Control_c, 0, 64, 127
1, 351674, Note_on_c, 0, 75, 74
1, 351681, Note_off_c, 0, 68, 60
1, 351694, Note_on_c, 0, 80, 68
1, 351706, Note_off_c, 0, 75, 61
1, 351720, Note_off_c, 0, 80, 68
1, 351750, Note_on_c, 0, 63, 81
1, 351755, Note_on_c, 0, 56, 73
1, 351803, Note_off_c, 0, 63, 61
1, 351853, Note_off_c, 0, 56, 58
1, 351910, Note_on_c, 0, 50, 80
1, 351999, Note_off_c, 0, 50, 57
1, 352047, Note_on_c, 0, 51, 50
1, 352197, Note_on_c, 0, 50, 74
1, 352202, Note_on_c, 0, 66, 78
1, 352225, Note_off_c, 0, 51, 28
1, 352230, Note_off_c, 0, 50, 61
1, 352264, Note_off_c, 0, 66, 60
1, 352265, Note_on_c, 0, 69, 55
1, 352285, Note_off_c, 0, 69, 62
1, 352290, Note_on_c, 0, 78, 64
1, 352309, Note_off_c, 0, 78, 65
1, 352367, Note_on_c, 0, 58, 62
1, 352372, Note_on_c, 0, 62, 58
1, 352378, Note_on_c, 0, 78, 87
1, 352403, Note_off_c, 0, 62, 61
1, 352405, Note_off_c, 0, 58, 63
1, 352426, Note_off_c, 0, 78, 63
1, 352441, Note_on_c, 0, 82, 70
1, 352485, Control_c, 0, 64, 98
1, 352490, Note_on_c, 0, 90, 27
1, 352494, Note_off_c, 0, 82, 61
1, 352499, Control_c, 0, 64, 67
1, 352514, Control_c, 0, 64, 0
1, 352525, Note_off_c, 0, 90, 56
1, 352539, Note_on_c, 0, 45, 70
1, 352550, Note_on_c, 0, 79, 91
1, 352559, Control_c, 0, 64, 59
1, 352571, Note_off_c, 0, 45, 65
1, 352575, Control_c, 0, 64, 77
1, 352589, Control_c, 0, 64, 127
1, 352607, Note_on_c, 0, 91, 29
1, 352634, Note_on_c, 0, 82, 80
1, 352635, Note_off_c, 0, 79, 62
1, 352673, Note_off_c, 0, 91, 63
1, 352694, Note_on_c, 0, 55, 60
1, 352702, Note_on_c, 0, 79, 75
1, 352705, Note_off_c, 0, 82, 64
1, 352721, Note_off_c, 0, 79, 72
1, 352724, Note_off_c, 0, 55, 62
1, 352750, Poly_aftertouch_c, 0, 62, 127
1, 352785, Poly_aftertouch_c, 0, 62, 0
1, 352801, Note_on_c, 0, 70, 81
1, 352805, Note_on_c, 0, 79, 63
1, 352825, Note_off_c, 0, 70, 65
1, 352830, Note_off_c, 0, 79, 69
1, 352841, Control_c, 0, 64, 69
1, 352856, Control_c, 0, 64, 0
1, 352889, Note_on_c, 0, 47, 91
1, 352893, Note_on_c, 0, 65, 88
1, 352899, Note_on_c, 0, 35, 78
1, 352911, Note_off_c, 0, 47, 71
1, 352914, Control_c, 0, 64, 64
1, 352921, Note_off_c, 0, 35, 65
1, 352929, Control_c, 0, 64, 77
1, 352944, Control_c, 0, 64, 108
1, 352959, Control_c, 0, 64, 127
1, 352968, Note_on_c, 0, 68, 71
1, 352970, Note_off_c, 0, 65, 59
1, 352978, Poly_aftertouch_c, 0, 42, 127
1, 352983, Note_on_c, 0, 77, 52
1, 352994, Note_off_c, 0, 68, 66
1, 353013, Poly_aftertouch_c, 0, 42, 0
1, 353016, Note_off_c, 0, 77, 64
1, 353079, Note_on_c, 0, 77, 82
1, 353147, Note_on_c, 0, 89, 65
1, 353147, Note_off_c, 0, 77, 62
1, 353157, Note_on_c, 0, 80, 72
1, 353174, Control_c, 0, 64, 72
1, 353189, Control_c, 0, 64, 0
1, 353193, Note_off_c, 0, 89, 65
1, 353216, Note_off_c, 0, 80, 63
1, 353216, Note_on_c, 0, 48, 92
1, 353224, Note_on_c, 0, 36, 79
1, 353233, Control_c, 0, 64, 68
1, 353239, Note_off_c, 0, 48, 69
1, 353247, Note_on_c, 0, 44, 40
1, 353248, Control_c, 0, 64, 127
1, 353251, Note_off_c, 0, 36, 65
1, 353269, Note_on_c, 0, 77, 2
1, 353280, Note_off_c, 0, 44, 55
1, 353302, Note_on_c, 0, 67, 71
1, 353304, Note_on_c, 0, 68, 44
1, 353309, Note_on_c, 0, 75, 60
1, 353311, Note_off_c, 0, 77, 50
1, 353337, Note_on_c, 0, 69, 15
1, 353344, Note_off_c, 0, 75, 47
1, 353362, Note_off_c, 0, 69, 0
1, 353388, Note_off_c, 0, 67, 57
1, 353391, Poly_aftertouch_c, 0, 69, 0
1, 353393, Poly_aftertouch_c, 0, 71, 0
1, 353394, Note_on_c, 0, 63, 78
1, 353402, Note_on_c, 0, 51, 73
1, 353403, Note_off_c, 0, 68, 29
1, 353411, Note_off_c, 0, 63, 66
1, 353418, Note_on_c, 0, 61, 55
1, 353420, Note_off_c, 0, 51, 64
1, 353441, Note_off_c, 0, 61, 61
1, 353459, Note_on_c, 0, 66, 81
1, 353463, Note_on_c, 0, 75, 52
1, 353484, Note_off_c, 0, 75, 63
1, 353501, Control_c, 0, 64, 101
1, 353516, Control_c, 0, 64, 57
1, 353519, Note_off_c, 0, 66, 61
1, 353531, Control_c, 0, 64, 0
1, 353554, Note_on_c, 0, 50, 96
1, 353558, Note_on_c, 0, 62, 83
1, 353564, Note_on_c, 0, 38, 81
1, 353575, Control_c, 0, 64, 70
1, 353585, Note_off_c, 0, 50, 61
1, 353588, Note_on_c, 0, 40, 47
1, 353590, Control_c, 0, 64, 127
1, 353597, Note_off_c, 0, 38, 64
1, 353618, Note_off_c, 0, 40, 59
1, 353629, Note_off_c, 0, 62, 59
1, 353634, Note_on_c, 0, 66, 77
1, 353658, Note_off_c, 0, 66, 67
1, 353672, Note_on_c, 0, 74, 46
1, 353693, Note_off_c, 0, 74, 61
1, 353726, Note_on_c, 0, 74, 82
1, 353731, Note_on_c, 0, 54, 65
1, 353758, Note_on_c, 0, 58, 4
1, 353758, Note_off_c, 0, 54, 64
1, 353803, Note_off_c, 0, 74, 61
1, 353805, Note_on_c, 0, 78, 74
1, 353805, Note_off_c, 0, 58, 53
1, 353818, Note_on_c, 0, 86, 70
1, 353849, Control_c, 0, 64, 84
1, 353863, Control_c, 0, 64, 0
1, 353876, Note_off_c, 0, 86, 58
1, 353880, Note_off_c, 0, 78, 65
1, 353880, Note_on_c, 0, 74, 81
1, 353885, Note_on_c, 0, 52, 101
1, 353892, Note_on_c, 0, 40, 84
1, 353898, Note_off_c, 0, 74, 71
1, 353908, Note_off_c, 0, 52, 67
1, 353908, Control_c, 0, 64, 32
1, 353914, Note_off_c, 0, 40, 66
1, 353923, Control_c, 0, 64, 82
1, 353928, Note_on_c, 0, 50, 17
1, 353929, Note_off_c, 0, 50, 127
1, 353937, Control_c, 0, 64, 127
1, 353967, Poly_aftertouch_c, 0, 50, 0
1, 353974, Poly_aftertouch_c, 0, 42, 127
1, 353979, Note_on_c, 0, 65, 74
1, 353986, Note_on_c, 0, 73, 65
1, 353998, Poly_aftertouch_c, 0, 42, 0
1, 354023, Note_off_c, 0, 73, 56
1, 354044, Note_on_c, 0, 56, 67
1, 354061, Note_off_c, 0, 65, 30
1, 354062, Note_on_c, 0, 61, 54
1, 354083, Note_off_c, 0, 61, 62
1, 354101, Note_off_c, 0, 56, 58
1, 354113, Poly_aftertouch_c, 0, 70, 0
1, 354146, Note_on_c, 0, 64, 69
1, 354146, Note_on_c, 0, 73, 53
1, 354175, Control_c, 0, 64, 83
1, 354178, Note_off_c, 0, 73, 66
1, 354190, Control_c, 0, 64, 55
1, 354205, Control_c, 0, 64, 0
1, 354209, Note_off_c, 0, 64, 54
1, 354250, Control_c, 0, 64, 62
1, 354252, Note_on_c, 0, 60, 64
1, 354256, Note_on_c, 0, 54, 63
1, 354259, Note_on_c, 0, 42, 60
1, 354265, Control_c, 0, 64, 77
1, 354280, Control_c, 0, 64, 127
1, 354292, Note_off_c, 0, 42, 63
1, 354292, Note_off_c, 0, 54, 62
1, 354327, Note_off_c, 0, 60, 59
1, 354332, Note_on_c, 0, 63, 58
1, 354341, Note_on_c, 0, 72, 67
1, 354353, Note_off_c, 0, 63, 61
1, 354365, Note_off_c, 0, 72, 67
1, 354421, Note_on_c, 0, 54, 65
1, 354423, Note_on_c, 0, 63, 79
1, 354427, Note_on_c, 0, 72, 83
1, 354463, Note_on_c, 0, 60, 40
1, 354498, Note_on_c, 0, 84, 74
1, 354507, Note_off_c, 0, 63, 59
1, 354507, Note_off_c, 0, 72, 61
1, 354509, Note_on_c, 0, 75, 74
1, 354526, Note_off_c, 0, 60, 58
1, 354533, Note_off_c, 0, 54, 59
1, 354566, Note_off_c, 0, 84, 60
1, 354600, Note_on_c, 0, 63, 97
1, 354606, Note_on_c, 0, 71, 82
1, 354608, Note_on_c, 0, 55, 73
1, 354621, Note_off_c, 0, 63, 67
1, 354621, Note_off_c, 0, 75, 60
1, 354643, Note_off_c, 0, 55, 64
1, 354676, Poly_aftertouch_c, 0, 56, 127
1, 354681, Poly_aftertouch_c, 0, 54, 127
1, 354693, Note_on_c, 0, 75, 71
1, 354694, Note_on_c, 0, 83, 66
1, 354697, Note_off_c, 0, 71, 61
1, 354713, Poly_aftertouch_c, 0, 54, 0
1, 354716, Poly_aftertouch_c, 0, 56, 0
1, 354742, Note_off_c, 0, 75, 63
1, 354747, Note_off_c, 0, 83, 62
1, 354781, Note_on_c, 0, 55, 90
1, 354788, Note_on_c, 0, 72, 86
1, 354795, Note_on_c, 0, 43, 70
1, 354831, Note_on_c, 0, 45, 34
1, 354834, Note_off_c, 0, 43, 54
1, 354851, Note_off_c, 0, 55, 61
1, 354873, Note_on_c, 0, 75, 74
1, 354880, Note_on_c, 0, 84, 63
1, 354887, Note_off_c, 0, 72, 61
1, 354909, Control_c, 0, 64, 81
1, 354915, Note_off_c, 0, 45, 58
1, 354924, Control_c, 0, 64, 0
1, 354928, Note_off_c, 0, 84, 59
1, 354936, Note_off_c, 0, 75, 62
1, 354944, Poly_aftertouch_c, 0, 48, 0
1, 354958, Note_on_c, 0, 56, 96
1, 354964, Note_on_c, 0, 44, 86
1, 354974, Note_on_c, 0, 72, 96
1, 354983, Control_c, 0, 64, 49
1, 354990, Note_on_c, 0, 46, 49
1, 354998, Note_on_c, 0, 84, 55
1, 354998, Control_c, 0, 64, 91
1, 355007, Note_on_c, 0, 75, 40
1, 355013, Control_c, 0, 64, 127
1, 355019, Note_off_c, 0, 44, 64
1, 355019, Note_off_c, 0, 56, 64
1, 355022, Note_off_c, 0, 46, 37
1, 355024, Note_on_c, 0, 83, 31
1, 355026, Note_off_c, 0, 84, 64
1, 355030, Note_off_c, 0, 72, 62
1, 355063, Note_off_c, 0, 83, 45
1, 355065, Note_off_c, 0, 75, 61
1, 355130, Note_on_c, 0, 56, 85
1, 355131, Note_on_c, 0, 75, 91
1, 355133, Note_on_c, 0, 66, 91
1, 355147, Note_on_c, 0, 87, 74
1, 355169, Note_on_c, 0, 85, 48
1, 355173, Note_on_c, 0, 63, 36
1, 355201, Note_off_c, 0, 66, 59
1, 355201, Note_off_c, 0, 87, 61
1, 355207, Note_off_c, 0, 75, 60
1, 355214, Note_off_c, 0, 63, 45
1, 355215, Note_off_c, 0, 56, 55
1, 355216, Note_off_c, 0, 85, 58
1, 355222, Note_on_c, 0, 78, 76
1, 355288, Note_on_c, 0, 66, 92
1, 355293, Note_on_c, 0, 86, 64
1, 355302, Note_on_c, 0, 74, 74
1, 355303, Note_on_c, 0, 63, 73
1, 355306, Note_on_c, 0, 57, 68
1, 355317, Note_on_c, 0, 76, 61
1, 355319, Note_off_c, 0, 78, 63
1, 355320, Note_off_c, 0, 66, 58
1, 355334, Note_off_c, 0, 63, 66
1, 355344, Note_off_c, 0, 76, 64
1, 355347, Note_off_c, 0, 57, 64
1, 355359, Note_off_c, 0, 86, 62
1, 355385, Note_off_c, 0, 74, 62
1, 355386, Note_on_c, 0, 78, 65
1, 355429, Note_off_c, 0, 78, 59
1, 355462, Note_on_c, 0, 57, 91
1, 355472, Note_on_c, 0, 45, 81
1, 355474, Note_on_c, 0, 75, 89
1, 355476, Note_on_c, 0, 78, 36
1, 355488, Note_on_c, 0, 87, 53
1, 355493, Note_on_c, 0, 55, 42
1, 355494, Note_off_c, 0, 55, 127
1, 355506, Note_on_c, 0, 46, 23
1, 355510, Note_off_c, 0, 78, 47
1, 355522, Poly_aftertouch_c, 0, 55, 0
1, 355529, Note_off_c, 0, 57, 62
1, 355540, Note_off_c, 0, 45, 44
1, 355553, Note_on_c, 0, 78, 68
1, 355553, Note_off_c, 0, 87, 59
1, 355564, Note_off_c, 0, 46, 53
1, 355577, Note_off_c, 0, 75, 60
1, 355584, Control_c, 0, 64, 90
1, 355599, Control_c, 0, 64, 37
1, 355614, Control_c, 0, 64, 0
1, 355617, Note_off_c, 0, 78, 62
1, 355629, Note_on_c, 0, 58, 94
1, 355635, Note_on_c, 0, 46, 93
1, 355646, Note_on_c, 0, 87, 76
1, 355648, Note_on_c, 0, 56, 71
1, 355648, Note_on_c, 0, 75, 91
1, 355658, Control_c, 0, 64, 73
1, 355669, Note_off_c, 0, 56, 63
1, 355673, Control_c, 0, 64, 127
1, 355678, Note_on_c, 0, 78, 44
1, 355678, Note_on_c, 0, 85, 42
1, 355681, Note_on_c, 0, 45, 32
1, 355689, Note_off_c, 0, 58, 64
1, 355693, Note_off_c, 0, 46, 60
1, 355705, Note_off_c, 0, 87, 63
1, 355708, Note_off_c, 0, 85, 63
1, 355719, Note_off_c, 0, 75, 61
1, 355720, Note_off_c, 0, 45, 45
1, 355734, Note_off_c, 0, 78, 64
1, 355788, Note_on_c, 0, 58, 88
1, 355791, Note_on_c, 0, 66, 97
1, 355806, Note_on_c, 0, 78, 87
1, 355812, Note_on_c, 0, 90, 88
1, 355862, Note_off_c, 0, 66, 58
1, 355880, Note_off_c, 0, 78, 62
1, 355883, Note_off_c, 0, 58, 54
1, 355886, Note_off_c, 0, 90, 65
1, 355895, Note_on_c, 0, 80, 46
1, 355947, Note_on_c, 0, 66, 96
1, 355962, Note_on_c, 0, 59, 70
1, 355964, Note_on_c, 0, 63, 70
1, 355968, Note_on_c, 0, 77, 87
1, 355988, Note_off_c, 0, 66, 61
1, 355991, Note_off_c, 0, 63, 66
1, 355996, Note_off_c, 0, 80, 62
1, 355998, Note_off_c, 0, 59, 61
1, 356000, Note_on_c, 0, 89, 29
1, 356006, Note_on_c, 0, 88, 25
1, 356031, Note_off_c, 0, 89, 49
1, 356043, Note_off_c, 0, 88, 51
1, 356046, Note_off_c, 0, 77, 63
1, 356047, Note_on_c, 0, 80, 59
1, 356059, Poly_aftertouch_c, 0, 87, 127
1, 356092, Poly_aftertouch_c, 0, 87, 0
1, 356098, Note_off_c, 0, 80, 61
1, 356125, Note_on_c, 0, 59, 95
1, 356131, Note_on_c, 0, 47, 88
1, 356139, Note_on_c, 0, 78, 93
1, 356154, Note_on_c, 0, 90, 71
1, 356175, Note_off_c, 0, 59, 62
1, 356181, Note_off_c, 0, 47, 59
1, 356208, Note_on_c, 0, 81, 53
1, 356213, Note_off_c, 0, 90, 61
1, 356239, Note_off_c, 0, 78, 61
1, 356244, Control_c, 0, 64, 108
1, 356259, Control_c, 0, 64, 64
1, 356267, Note_off_c, 0, 81, 65
1, 356274, Control_c, 0, 64, 0
1, 356292, Note_on_c, 0, 60, 96
1, 356298, Note_on_c, 0, 48, 89
1, 356311, Note_on_c, 0, 56, 69
1, 356313, Note_on_c, 0, 78, 97
1, 356314, Note_on_c, 0, 90, 91
1, 356319, Control_c, 0, 64, 61
1, 356330, Note_off_c, 0, 48, 60
1, 356331, Note_off_c, 0, 56, 64
1, 356333, Control_c, 0, 64, 127
1, 356339, Note_off_c, 0, 60, 62
1, 356350, Note_on_c, 0, 81, 48
1, 356382, Note_off_c, 0, 90, 63
1, 356387, Note_off_c, 0, 78, 63
1, 356403, Note_off_c, 0, 81, 65
1, 356460, Note_on_c, 0, 69, 87
1, 356478, Note_on_c, 0, 81, 98
1, 356480, Note_on_c, 0, 60, 47
1, 356495, Note_on_c, 0, 93, 72
1, 356510, Note_on_c, 0, 62, 19
1, 356518, Note_off_c, 0, 93, 66
1, 356542, Poly_aftertouch_c, 0, 59, 127
1, 356551, Note_on_c, 0, 84, 58
1, 356555, Note_off_c, 0, 60, 51
1, 356563, Note_off_c, 0, 81, 62
1, 356573, Poly_aftertouch_c, 0, 59, 0
1, 356590, Poly_aftertouch_c, 0, 83, 0
1, 356603, Note_off_c, 0, 84, 62
1, 356606, Note_off_c, 0, 69, 54
1, 356647, Note_off_c, 0, 62, 25
1, 356658, Note_on_c, 0, 82, 99
1, 356669, Note_on_c, 0, 94, 75
1, 356676, Note_on_c, 0, 92, 66
1, 356703, Note_on_c, 0, 90, 36
1, 356706, Note_off_c, 0, 92, 60
1, 356718, Note_off_c, 0, 94, 61
1, 356723, Note_off_c, 0, 82, 63
1, 356728, Note_on_c, 0, 86, 34
1, 356735, Note_off_c, 0, 90, 53
1, 356754, Note_off_c, 0, 86, 54
1, 356795, Note_on_c, 0, 62, 40
1, 356809, Note_on_c, 0, 84, 94
1, 356823, Note_on_c, 0, 87, 57
1, 356823, Note_off_c, 0, 62, 54
1, 356836, Note_on_c, 0, 96, 69
1, 356837, Note_on_c, 0, 66, 3
1, 356849, Note_on_c, 0, 95, 53
1, 356850, Note_off_c, 0, 87, 61
1, 356864, Note_off_c, 0, 96, 63
1, 356869, Note_off_c, 0, 95, 62
1, 356876, Note_off_c, 0, 66, 37
1, 356909, Note_on_c, 0, 87, 87
1, 356925, Note_off_c, 0, 84, 58
1, 356948, Control_c, 0, 64, 90
1, 356963, Control_c, 0, 64, 54
1, 356965, Note_off_c, 0, 87, 64
1, 356977, Control_c, 0, 64, 0
1, 357005, Note_on_c, 0, 58, 99
1, 357007, Control_c, 0, 64, 39
1, 357011, Note_on_c, 0, 46, 89
1, 357012, Note_on_c, 0, 84, 97
1, 357021, Note_on_c, 0, 95, 84
1, 357022, Control_c, 0, 64, 78
1, 357037, Control_c, 0, 64, 127
1, 357049, Note_on_c, 0, 93, 43
1, 357061, Note_off_c, 0, 58, 62
1, 357065, Note_off_c, 0, 46, 59
1, 357072, Note_off_c, 0, 93, 53
1, 357073, Note_on_c, 0, 87, 47
1, 357074, Note_off_c, 0, 95, 64
1, 357091, Note_off_c, 0, 84, 64
1, 357135, Note_off_c, 0, 87, 62
1, 357177, Note_on_c, 0, 65, 85
1, 357178, Note_on_c, 0, 82, 91
1, 357193, Note_on_c, 0, 61, 57
1, 357198, Note_on_c, 0, 53, 55
1, 357210, Note_on_c, 0, 55, 47
1, 357216, Note_off_c, 0, 61, 63
1, 357218, Note_off_c, 0, 65, 58
1, 357235, Note_off_c, 0, 53, 64
1, 357237, Note_off_c, 0, 55, 55
1, 357239, Note_on_c, 0, 86, 21
1, 357240, Note_on_c, 0, 94, 6
1, 357272, Note_off_c, 0, 82, 62
1, 357288, Note_off_c, 0, 94, 38
1, 357303, Control_c, 0, 64, 97
1, 357318, Note_off_c, 0, 86, 63
1, 357318, Control_c, 0, 64, 50
1, 357333, Control_c, 0, 64, 0
1, 357355, Note_on_c, 0, 60, 97
1, 357358, Note_on_c, 0, 82, 101
1, 357360, Note_on_c, 0, 48, 88
1, 357362, Note_on_c, 0, 94, 85
1, 357364, Control_c, 0, 64, 44
1, 357371, Note_on_c, 0, 92, 83
1, 357378, Note_on_c, 0, 50, 62
1, 357379, Note_off_c, 0, 50, 127
1, 357379, Control_c, 0, 64, 86
1, 357381, Note_on_c, 0, 56, 56
1, 357393, Control_c, 0, 64, 127
1, 357395, Note_off_c, 0, 60, 63
1, 357398, Note_off_c, 0, 92, 57
1, 357410, Note_off_c, 0, 48, 58
1, 357410, Note_off_c, 0, 56, 56
1, 357429, Note_on_c, 0, 86, 54
1, 357442, Note_off_c, 0, 82, 61
1, 357442, Note_off_c, 0, 94, 62
1, 357457, Note_off_c, 0, 86, 67
1, 357523, Note_on_c, 0, 67, 86
1, 357531, Note_on_c, 0, 81, 89
1, 357541, Note_on_c, 0, 57, 67
1, 357547, Note_off_c, 0, 81, 73
1, 357556, Note_on_c, 0, 93, 65
1, 357573, Note_on_c, 0, 63, 14
1, 357573, Note_off_c, 0, 67, 58
1, 357589, Note_on_c, 0, 84, 74
1, 357590, Note_off_c, 0, 57, 61
1, 357619, Note_off_c, 0, 63, 53
1, 357624, Note_on_c, 0, 89, 3
1, 357632, Poly_aftertouch_c, 0, 55, 0
1, 357652, Control_c, 0, 64, 101
1, 357659, Note_off_c, 0, 89, 51
1, 357661, Note_off_c, 0, 84, 61
1, 357663, Note_off_c, 0, 93, 62
1, 357667, Control_c, 0, 64, 62
1, 357682, Control_c, 0, 64, 0
1, 357685, Poly_aftertouch_c, 0, 81, 0
1, 357708, Note_on_c, 0, 62, 96
1, 357711, Note_on_c, 0, 81, 89
1, 357714, Note_on_c, 0, 50, 84
1, 357726, Control_c, 0, 64, 45
1, 357727, Note_on_c, 0, 93, 65
1, 357732, Note_on_c, 0, 91, 54
1, 357739, Note_off_c, 0, 62, 59
1, 357741, Note_off_c, 0, 50, 66
1, 357741, Control_c, 0, 64, 88
1, 357743, Note_on_c, 0, 58, 32
1, 357744, Note_off_c, 0, 58, 127
1, 357756, Control_c, 0, 64, 127
1, 357765, Note_on_c, 0, 52, 26
1, 357769, Note_off_c, 0, 91, 46
1, 357774, Poly_aftertouch_c, 0, 58, 0
1, 357783, Note_on_c, 0, 84, 67
1, 357784, Note_off_c, 0, 93, 53
1, 357806, Note_off_c, 0, 81, 62
1, 357824, Note_off_c, 0, 52, 37
1, 357830, Note_off_c, 0, 84, 62
1, 357872, Note_on_c, 0, 70, 79
1, 357881, Note_on_c, 0, 62, 61
1, 357888, Note_on_c, 0, 79, 91
1, 357899, Note_off_c, 0, 70, 65
1, 357911, Note_off_c, 0, 62, 63
1, 357952, Note_on_c, 0, 82, 75
1, 357985, Note_off_c, 0, 79, 62
1, 358008, Control_c, 0, 64, 78
1, 358023, Control_c, 0, 64, 0
1, 358049, Note_on_c, 0, 62, 88
1, 358051, Note_on_c, 0, 50, 85
1, 358052, Note_on_c, 0, 91, 74
1, 358062, Note_on_c, 0, 79, 91
1, 358065, Note_on_c, 0, 60, 64
1, 358067, Control_c, 0, 64, 65
1, 358071, Note_on_c, 0, 58, 53
1, 358072, Note_off_c, 0, 62, 65
1, 358079, Note_off_c, 0, 50, 65
1, 358082, Control_c, 0, 64, 99
1, 358085, Note_off_c, 0, 60, 39
1, 358089, Note_on_c, 0, 88, 60
1, 358097, Control_c, 0, 64, 127
1, 358098, Note_off_c, 0, 58, 59
1, 358119, Note_off_c, 0, 91, 64
1, 358121, Note_off_c, 0, 88, 68
1, 358125, Poly_aftertouch_c, 0, 54, 127
1, 358137, Note_off_c, 0, 79, 64
1, 358155, Note_off_c, 0, 82, 61
1, 358164, Poly_aftertouch_c, 0, 54, 0
1, 358223, Note_on_c, 0, 74, 81
1, 358238, Note_on_c, 0, 86, 59
1, 358283, Note_on_c, 0, 78, 65
1, 358291, Note_off_c, 0, 74, 61
1, 358334, Note_off_c, 0, 86, 62
1, 358343, Note_off_c, 0, 78, 61
1, 358357, Control_c, 0, 64, 70
1, 358372, Control_c, 0, 64, 0
1, 358397, Note_on_c, 0, 58, 92
1, 358403, Note_on_c, 0, 46, 89
1, 358417, Control_c, 0, 64, 77
1, 358432, Control_c, 0, 64, 127
1, 358458, Note_off_c, 0, 46, 62
1, 358461, Note_off_c, 0, 58, 62
1, 358494, Poly_aftertouch_c, 0, 56, 0
1, 358497, Note_on_c, 0, 82, 81
1, 358524, Poly_aftertouch_c, 0, 56, 0
1, 358578, Note_on_c, 0, 86, 73
1, 358581, Note_on_c, 0, 67, 87
1, 358586, Note_on_c, 0, 94, 79
1, 358591, Note_on_c, 0, 55, 71
1, 358592, Note_off_c, 0, 82, 62
1, 358611, Note_on_c, 0, 62, 45
1, 358627, Note_off_c, 0, 67, 60
1, 358630, Note_off_c, 0, 55, 60
1, 358637, Note_off_c, 0, 62, 55
1, 358664, Note_on_c, 0, 82, 83
1, 358671, Note_off_c, 0, 86, 63
1, 358684, Note_off_c, 0, 94, 60
1, 358713, Control_c, 0, 64, 65
1, 358727, Control_c, 0, 64, 0
1, 358737, Note_off_c, 0, 82, 0
1, 358757, Note_on_c, 0, 94, 82
1, 358758, Note_on_c, 0, 60, 88
1, 358758, Note_on_c, 0, 62, 83
1, 358759, Note_on_c, 0, 85, 83
1, 358761, Note_on_c, 0, 50, 86
1, 358772, Control_c, 0, 64, 65
1, 358775, Poly_aftertouch_c, 0, 82, 0
1, 358781, Note_on_c, 0, 51, 54
1, 358787, Control_c, 0, 64, 127
1, 358787, Note_on_c, 0, 92, 60
1, 358787, Note_off_c, 0, 60, 55
1, 358788, Note_on_c, 0, 90, 64
1, 358792, Note_on_c, 0, 57, 28
1, 358793, Note_off_c, 0, 62, 58
1, 358798, Note_off_c, 0, 50, 58
1, 358810, Note_off_c, 0, 51, 39
1, 358811, Note_off_c, 0, 92, 61
1, 358824, Note_off_c, 0, 57, 55
1, 358840, Note_off_c, 0, 94, 64
1, 358843, Note_off_c, 0, 90, 54
1, 358845, Note_on_c, 0, 82, 62
1, 358848, Note_off_c, 0, 85, 65
1, 358874, Note_off_c, 0, 82, 63
1, 358926, Note_on_c, 0, 67, 80
1, 358929, Note_on_c, 0, 93, 85
1, 358930, Note_on_c, 0, 84, 79
1, 358936, Note_on_c, 0, 57, 50
1, 358948, Note_on_c, 0, 63, 47
1, 358948, Note_off_c, 0, 67, 66
1, 358974, Note_off_c, 0, 63, 58
1, 358980, Note_off_c, 0, 57, 63
1, 359004, Note_off_c, 0, 93, 54
1, 359005, Note_on_c, 0, 81, 77
1, 359032, Note_off_c, 0, 84, 60
1, 359055, Control_c, 0, 64, 99
1, 359064, Note_off_c, 0, 81, 64
1, 359070, Control_c, 0, 64, 58
1, 359091, Control_c, 0, 64, 0
1, 359109, Note_on_c, 0, 62, 98
1, 359111, Note_on_c, 0, 93, 94
1, 359112, Note_on_c, 0, 84, 94
1, 359116, Note_on_c, 0, 50, 84
1, 359131, Note_on_c, 0, 58, 47
1, 359136, Control_c, 0, 64, 71
1, 359140, Note_off_c, 0, 62, 62
1, 359142, Note_off_c, 0, 50, 68
1, 359146, Note_on_c, 0, 54, 28
1, 359148, Note_on_c, 0, 89, 46
1, 359151, Control_c, 0, 64, 127
1, 359154, Note_off_c, 0, 58, 61
1, 359156, Note_on_c, 0, 52, 33
1, 359174, Note_off_c, 0, 89, 56
1, 359183, Note_off_c, 0, 54, 53
1, 359189, Note_on_c, 0, 60, 14
1, 359192, Note_off_c, 0, 93, 62
1, 359210, Note_off_c, 0, 52, 46
1, 359214, Note_off_c, 0, 84, 61
1, 359225, Note_off_c, 0, 60, 38
1, 359276, Note_on_c, 0, 63, 72
1, 359281, Note_on_c, 0, 70, 68
1, 359291, Note_on_c, 0, 91, 79
1, 359299, Note_off_c, 0, 70, 65
1, 359300, Note_on_c, 0, 82, 81
1, 359317, Note_on_c, 0, 88, 27
1, 359321, Note_off_c, 0, 63, 60
1, 359343, Note_off_c, 0, 88, 53
1, 359372, Note_off_c, 0, 91, 56
1, 359395, Note_on_c, 0, 79, 62
1, 359401, Note_off_c, 0, 82, 62
1, 359414, Note_off_c, 0, 79, 63
1, 359417, Control_c, 0, 64, 68
1, 359432, Control_c, 0, 64, 0
1, 359452, Note_on_c, 0, 62, 95
1, 359461, Note_on_c, 0, 91, 92
1, 359462, Note_on_c, 0, 50, 79
1, 359464, Note_on_c, 0, 82, 91
1, 359474, Note_off_c, 0, 62, 64
1, 359476, Control_c, 0, 64, 65
1, 359486, Note_on_c, 0, 88, 51
1, 359490, Note_off_c, 0, 50, 62
1, 359491, Control_c, 0, 64, 127
1, 359493, Note_on_c, 0, 58, 33
1, 359515, Note_on_c, 0, 53, 1
1, 359532, Note_off_c, 0, 58, 49
1, 359532, Note_off_c, 0, 88, 44
1, 359549, Note_off_c, 0, 91, 62
1, 359559, Note_off_c, 0, 53, 36
1, 359562, Poly_aftertouch_c, 0, 86, 127
1, 359571, Note_off_c, 0, 82, 63
1, 359589, Poly_aftertouch_c, 0, 86, 0
1, 359635, Poly_aftertouch_c, 0, 79, 0
1, 359655, Note_on_c, 0, 86, 80
1, 359658, Note_on_c, 0, 78, 83
1, 359733, Note_on_c, 0, 74, 85
1, 359759, Control_c, 0, 64, 82
1, 359766, Note_off_c, 0, 78, 61
1, 359768, Note_off_c, 0, 86, 55
1, 359774, Control_c, 0, 64, 0
1, 359785, Note_off_c, 0, 74, 63
1, 359811, Note_on_c, 0, 58, 99
1, 359818, Note_on_c, 0, 46, 84
1, 359840, Control_c, 0, 64, 82
1, 359852, Note_off_c, 0, 46, 69
1, 359855, Control_c, 0, 64, 127
1, 359861, Note_on_c, 0, 54, 19
1, 359865, Note_off_c, 0, 58, 65
1, 359899, Note_on_c, 0, 86, 87
1, 359902, Note_off_c, 0, 54, 49
1, 359938, Note_on_c, 0, 94, 37
1, 359988, Note_off_c, 0, 94, 0
1, 359988, Note_on_c, 0, 94, 38
1, 359991, Note_on_c, 0, 98, 79
1, 359994, Note_on_c, 0, 91, 66
1, 359997, Note_off_c, 0, 86, 63
1, 360018, Note_on_c, 0, 92, 48
1, 360037, Note_on_c, 0, 78, 47
1, 360042, Note_off_c, 0, 92, 37
1, 360055, Note_off_c, 0, 98, 61
1, 360066, Note_on_c, 0, 86, 79
1, 360090, Note_off_c, 0, 91, 64
1, 360092, Note_off_c, 0, 78, 60
1, 360098, Note_off_c, 0, 94, 63
1, 360103, Note_off_c, 0, 86, 64
1, 360135, Note_on_c, 0, 86, 88
1, 360144, Note_on_c, 0, 82, 90
1, 360146, Note_on_c, 0, 79, 80
1, 360176, Note_off_c, 0, 86, 66
1, 360194, Note_on_c, 0, 74, 53
1, 360197, Note_off_c, 0, 82, 65
1, 360207, Note_off_c, 0, 79, 65
1, 360225, Note_off_c, 0, 74, 65
1, 360278, Note_on_c, 0, 86, 68
1, 360299, Note_on_c, 0, 79, 71
1, 360304, Note_on_c, 0, 82, 70
1, 360340, Note_off_c, 0, 86, 62
1, 360343, Note_on_c, 0, 68, 58
1, 360347, Note_on_c, 0, 74, 79
1, 360363, Note_off_c, 0, 79, 63
1, 360373, Note_off_c, 0, 82, 60
1, 360383, Note_off_c, 0, 68, 61
1, 360390, Note_off_c, 0, 74, 64
1, 360426, Note_on_c, 0, 74, 85
1, 360444, Note_on_c, 0, 67, 74
1, 360446, Note_on_c, 0, 71, 78
1, 360477, Note_off_c, 0, 74, 63
1, 360484, Note_off_c, 0, 71, 53
1, 360497, Note_on_c, 0, 62, 40
1, 360504, Note_on_c, 0, 65, 45
1, 360521, Note_off_c, 0, 67, 61
1, 360531, Note_off_c, 0, 65, 55
1, 360533, Note_off_c, 0, 62, 61
1, 360543, Poly_aftertouch_c, 0, 70, 0
1, 360572, Note_on_c, 0, 67, 66
1, 360590, Note_on_c, 0, 70, 58
1, 360597, Note_on_c, 0, 74, 54
1, 360617, Note_off_c, 0, 74, 62
1, 360643, Note_on_c, 0, 62, 81
1, 360653, Note_off_c, 0, 67, 59
1, 360662, Note_off_c, 0, 70, 59
1, 360679, Note_off_c, 0, 62, 62
1, 360733, Note_on_c, 0, 62, 81
1, 360735, Note_on_c, 0, 58, 71
1, 360738, Note_on_c, 0, 55, 73
1, 360755, Note_on_c, 0, 59, 69
1, 360765, Note_on_c, 0, 50, 67
1, 360772, Note_off_c, 0, 62, 64
1, 360786, Note_off_c, 0, 59, 47
1, 360812, Note_off_c, 0, 55, 62
1, 360817, Note_off_c, 0, 58, 48
1, 360822, Note_off_c, 0, 50, 62
1, 360847, Note_on_c, 0, 62, 59
1, 360856, Poly_aftertouch_c, 0, 53, 127
1, 360865, Note_on_c, 0, 55, 55
1, 360866, Note_on_c, 0, 58, 50
1, 360884, Poly_aftertouch_c, 0, 53, 0
1, 360906, Note_off_c, 0, 62, 55
1, 360915, Note_on_c, 0, 50, 84
1, 360970, Note_off_c, 0, 58, 58
1, 360972, Note_off_c, 0, 55, 60
1, 360999, Note_on_c, 0, 42, 93
1, 361005, Note_off_c, 0, 50, 57
1, 361012, Note_on_c, 0, 30, 70
1, 361013, Note_on_c, 0, 32, 65
1, 361023, Note_off_c, 0, 42, 67
1, 361039, Note_off_c, 0, 30, 65
1, 361064, Note_off_c, 0, 32, 39
1, 361073, Note_on_c, 0, 43, 97
1, 361084, Note_on_c, 0, 31, 79
1, 361111, Note_on_c, 0, 34, 37
1, 361115, Note_on_c, 0, 64, 61
1, 361124, Note_on_c, 0, 58, 71
1, 361124, Note_off_c, 0, 43, 64
1, 361125, Note_on_c, 0, 33, 11
1, 361125, Note_on_c, 0, 55, 58
1, 361129, Note_off_c, 0, 31, 62
1, 361147, Note_off_c, 0, 34, 50
1, 361166, Note_off_c, 0, 64, 59
1, 361175, Note_off_c, 0, 33, 38
1, 361186, Note_on_c, 0, 50, 82
1, 361213, Note_off_c, 0, 58, 61
1, 361222, Note_off_c, 0, 55, 60
1, 361258, Note_on_c, 0, 49, 101
1, 361261, Note_off_c, 0, 50, 59
1, 361264, Note_on_c, 0, 37, 76
1, 361268, Note_on_c, 0, 39, 70
1, 361286, Note_off_c, 0, 49, 65
1, 361300, Note_off_c, 0, 39, 63
1, 361303, Note_off_c, 0, 37, 62
1, 361344, Note_on_c, 0, 50, 93
1, 361354, Note_on_c, 0, 38, 76
1, 361375, Note_on_c, 0, 55, 56
1, 361389, Note_on_c, 0, 58, 73
1, 361393, Note_off_c, 0, 50, 61
1, 361396, Note_off_c, 0, 38, 62
1, 361397, Note_on_c, 0, 64, 49
1, 361419, Note_off_c, 0, 64, 62
1, 361462, Note_on_c, 0, 50, 79
1, 361477, Poly_aftertouch_c, 0, 60, 0
1, 361504, Note_off_c, 0, 58, 59
1, 361542, Note_on_c, 0, 42, 96
1, 361550, Note_on_c, 0, 30, 80
1, 361552, Note_on_c, 0, 32, 76
1, 361561, Note_off_c, 0, 50, 59
1, 361582, Note_on_c, 0, 37, 34
1, 361583, Note_off_c, 0, 37, 127
1, 361589, Note_off_c, 0, 32, 62
1, 361589, Note_off_c, 0, 55, 0
1, 361596, Note_off_c, 0, 42, 59
1, 361598, Note_off_c, 0, 30, 59
1, 361626, Poly_aftertouch_c, 0, 55, 127
1, 361629, Poly_aftertouch_c, 0, 37, 0
1, 361638, Note_on_c, 0, 41, 89
1, 361645, Note_on_c, 0, 30, 43
1, 361659, Note_on_c, 0, 58, 61
1, 361663, Note_on_c, 0, 31, 56
1, 361663, Note_off_c, 0, 30, 67
1, 361665, Note_on_c, 0, 29, 45
1, 361667, Note_on_c, 0, 64, 52
1, 361674, Note_on_c, 0, 55, 3
1, 361681, Note_off_c, 0, 41, 62
1, 361697, Note_off_c, 0, 31, 61
1, 361704, Note_off_c, 0, 29, 52
1, 361715, Note_off_c, 0, 64, 55
1, 361717, Poly_aftertouch_c, 0, 60, 127
1, 361742, Note_on_c, 0, 50, 80
1, 361769, Poly_aftertouch_c, 0, 60, 0
1, 361773, Note_off_c, 0, 58, 59
1, 361812, Note_off_c, 0, 55, 39
1, 361817, Note_off_c, 0, 50, 57
1, 361824, Note_on_c, 0, 49, 101
1, 361833, Note_on_c, 0, 37, 82
1, 361836, Note_on_c, 0, 39, 78
1, 361854, Note_off_c, 0, 49, 58
1, 361858, Note_off_c, 0, 37, 64
1, 361882, Note_off_c, 0, 39, 0
1, 361911, Note_on_c, 0, 50, 71
1, 361914, Note_on_c, 0, 38, 64
1, 361926, Note_on_c, 0, 48, 69
1, 361937, Poly_aftertouch_c, 0, 39, 0
1, 361937, Note_off_c, 0, 50, 66
1, 361947, Note_on_c, 0, 55, 58
1, 361947, Note_off_c, 0, 48, 63
1, 361949, Poly_aftertouch_c, 0, 44, 0
1, 361957, Note_off_c, 0, 38, 62
1, 361967, Note_on_c, 0, 58, 68
1, 361971, Note_on_c, 0, 64, 43
1, 361998, Note_off_c, 0, 64, 57
1, 362019, Poly_aftertouch_c, 0, 37, 0
1, 362051, Note_on_c, 0, 50, 56
1, 362066, Note_off_c, 0, 58, 57
1, 362096, Note_off_c, 0, 55, 58
1, 362161, Control_c, 0, 64, 116
1, 362166, Note_off_c, 0, 50, 60
1, 362176, Control_c, 0, 64, 58
1, 362191, Control_c, 0, 64, 0
1, 362191, Note_on_c, 0, 38, 94
1, 362199, Note_on_c, 0, 26, 86
1, 362229, Note_on_c, 0, 34, 37
1, 362234, Note_on_c, 0, 28, 39
1, 362235, Note_off_c, 0, 28, 127
1, 362235, Control_c, 0, 64, 35
1, 362250, Control_c, 0, 64, 83
1, 362264, Note_on_c, 0, 56, 34
1, 362265, Control_c, 0, 64, 127
1, 362268, Note_off_c, 0, 34, 52
1, 362291, Note_on_c, 0, 54, 27
1, 362312, Note_off_c, 0, 56, 56
1, 362337, Note_off_c, 0, 54, 48
1, 362417, Note_off_c, 0, 26, 52
1, 362452, Note_off_c, 0, 38, 60
1, 362673, Note_on_c, 0, 54, 61
1, 362713, Note_off_c, 0, 54, 62
1, 362753, Note_on_c, 0, 55, 67
1, 362826, Note_off_c, 0, 55, 54
1, 362843, Note_on_c, 0, 56, 63
1, 362892, Note_off_c, 0, 56, 56
1, 362922, Note_on_c, 0, 57, 69
1, 362987, Note_off_c, 0, 57, 57
1, 362995, Note_on_c, 0, 58, 67
1, 363020, Note_off_c, 0, 58, 66
1, 363061, Note_on_c, 0, 59, 70
1, 363127, Note_on_c, 0, 60, 66
1, 363133, Note_off_c, 0, 59, 60
1, 363178, Note_on_c, 0, 61, 65
1, 363180, Note_off_c, 0, 60, 59
1, 363219, Note_off_c, 0, 61, 61
1, 363249, Note_on_c, 0, 62, 68
1, 363303, Note_off_c, 0, 62, 55
1, 363315, Note_on_c, 0, 63, 66
1, 363341, Note_off_c, 0, 63, 65
1, 363386, Note_on_c, 0, 64, 67
1, 363437, Note_on_c, 0, 65, 57
1, 363447, Note_off_c, 0, 64, 62
1, 363473, Note_off_c, 0, 65, 63
1, 363476, Note_on_c, 0, 66, 75
1, 363500, Note_off_c, 0, 66, 66
1, 363508, Note_on_c, 0, 64, 86
1, 363515, Note_on_c, 0, 61, 75
1, 363516, Note_on_c, 0, 55, 71
1, 363518, Note_on_c, 0, 58, 70
1, 363559, Note_on_c, 0, 67, 67
1, 363560, Note_off_c, 0, 55, 57
1, 363575, Note_off_c, 0, 64, 61
1, 363595, Note_off_c, 0, 61, 57
1, 363598, Note_off_c, 0, 58, 59
1, 363616, Note_off_c, 0, 67, 51
1, 363618, Poly_aftertouch_c, 0, 65, 0
1, 363655, Note_on_c, 0, 68, 61
1, 363692, Note_off_c, 0, 68, 59
1, 363696, Note_on_c, 0, 64, 60
1, 363709, Note_on_c, 0, 55, 46
1, 363732, Note_on_c, 0, 61, 52
1, 363733, Note_on_c, 0, 69, 67
1, 363738, Note_on_c, 0, 58, 35
1, 363738, Note_off_c, 0, 64, 63
1, 363764, Note_off_c, 0, 55, 49
1, 363767, Note_off_c, 0, 61, 63
1, 363774, Note_off_c, 0, 58, 51
1, 363778, Note_off_c, 0, 69, 54
1, 363796, Note_on_c, 0, 70, 72
1, 363804, Note_on_c, 0, 66, 99
1, 363822, Note_on_c, 0, 61, 76
1, 363822, Note_off_c, 0, 70, 66
1, 363834, Note_on_c, 0, 56, 54
1, 363839, Note_on_c, 0, 58, 67
1, 363840, Poly_aftertouch_c, 0, 55, 127
1, 363857, Note_on_c, 0, 71, 76
1, 363861, Poly_aftertouch_c, 0, 55, 0
1, 363882, Note_off_c, 0, 66, 58
1, 363887, Note_on_c, 0, 72, 44
1, 363902, Note_off_c, 0, 61, 59
1, 363902, Note_off_c, 0, 56, 54
1, 363914, Note_off_c, 0, 58, 60
1, 363925, Note_off_c, 0, 72, 0
1, 363925, Note_on_c, 0, 72, 22
1, 363929, Note_off_c, 0, 71, 59
1, 363970, Note_on_c, 0, 73, 63
1, 363970, Note_off_c, 0, 72, 63
1, 364026, Note_off_c, 0, 73, 59
1, 364052, Note_on_c, 0, 74, 61
1, 364093, Note_off_c, 0, 74, 57
1, 364111, Note_on_c, 0, 75, 71
1, 364126, Note_on_c, 0, 64, 100
1, 364134, Note_off_c, 0, 75, 67
1, 364137, Note_on_c, 0, 61, 85
1, 364140, Note_on_c, 0, 55, 76
1, 364141, Note_on_c, 0, 58, 78
1, 364173, Note_on_c, 0, 76, 77
1, 364189, Note_off_c, 0, 64, 61
1, 364195, Note_off_c, 0, 55, 47
1, 364218, Note_off_c, 0, 61, 58
1, 364227, Note_off_c, 0, 58, 60
1, 364246, Poly_aftertouch_c, 0, 62, 0
1, 364246, Note_off_c, 0, 76, 58
1, 364254, Note_on_c, 0, 77, 65
1, 364287, Note_off_c, 0, 77, 59
1, 364302, Note_on_c, 0, 78, 62
1, 364306, Note_on_c, 0, 64, 70
1, 364354, Note_on_c, 0, 58, 61
1, 364356, Note_off_c, 0, 78, 58
1, 364358, Note_on_c, 0, 55, 32
1, 364362, Note_on_c, 0, 61, 50
1, 364369, Note_off_c, 0, 64, 61
1, 364385, Note_off_c, 0, 55, 55
1, 364386, Note_off_c, 0, 58, 62
1, 364392, Note_off_c, 0, 61, 66
1, 364393, Note_on_c, 0, 79, 66
1, 364430, Note_off_c, 0, 79, 53
1, 364435, Note_on_c, 0, 66, 97
1, 364449, Note_on_c, 0, 55, 73
1, 364454, Note_on_c, 0, 80, 71
1, 364455, Note_on_c, 0, 61, 81
1, 364460, Note_on_c, 0, 58, 71
1, 364497, Note_off_c, 0, 80, 60
1, 364537, Note_off_c, 0, 55, 58
1, 364538, Note_on_c, 0, 81, 63
1, 364543, Note_off_c, 0, 66, 58
1, 364549, Note_off_c, 0, 61, 58
1, 364555, Note_off_c, 0, 58, 59
1, 364564, Note_off_c, 0, 81, 51
1, 364605, Note_on_c, 0, 82, 66
1, 364620, Note_off_c, 0, 82, 66
1, 364662, Note_on_c, 0, 83, 72
1, 364722, Note_on_c, 0, 84, 66
1, 364725, Note_off_c, 0, 83, 59
1, 364758, Note_off_c, 0, 84, 59
1, 364765, Note_on_c, 0, 85, 70
1, 364791, Note_on_c, 0, 64, 100
1, 364802, Note_on_c, 0, 61, 83
1, 364804, Note_on_c, 0, 55, 78
1, 364808, Note_on_c, 0, 58, 73
1, 364812, Note_off_c, 0, 85, 62
1, 364838, Note_on_c, 0, 86, 78
1, 364896, Note_off_c, 0, 86, 59
1, 364910, Note_on_c, 0, 87, 70
1, 364933, Note_off_c, 0, 87, 67
1, 364981, Note_on_c, 0, 88, 75
1, 365041, Note_on_c, 0, 89, 65
1, 365053, Note_off_c, 0, 88, 55
1, 365089, Note_on_c, 0, 90, 72
1, 365091, Note_off_c, 0, 89, 61
1, 365142, Note_off_c, 0, 90, 63
1, 365172, Note_on_c, 0, 91, 77
1, 365222, Note_off_c, 0, 91, 60
1, 365233, Note_on_c, 0, 92, 75
1, 365266, Note_off_c, 0, 92, 61
1, 365309, Note_on_c, 0, 93, 76
1, 365315, Note_off_c, 0, 61, 57
1, 365318, Note_off_c, 0, 55, 59
1, 365323, Note_off_c, 0, 58, 57
1, 365323, Note_off_c, 0, 64, 57
1, 365366, Note_off_c, 0, 93, 62
1, 365370, Note_on_c, 0, 94, 76
1, 365390, Note_off_c, 0, 94, 70
1, 365440, Note_on_c, 0, 95, 73
1, 365497, Note_on_c, 0, 96, 69
1, 365509, Note_off_c, 0, 95, 58
1, 365535, Note_on_c, 0, 97, 75
1, 365543, Note_off_c, 0, 96, 62
1, 365545, Note_on_c, 0, 50, 62
1, 365579, Note_off_c, 0, 97, 65
1, 365611, Note_on_c, 0, 57, 59
1, 365628, Note_on_c, 0, 98, 77
1, 365628, Note_off_c, 0, 50, 60
1, 365650, Note_on_c, 0, 60, 68
1, 365676, Poly_aftertouch_c, 0, 54, 127
1, 365682, Note_off_c, 0, 98, 61
1, 365703, Poly_aftertouch_c, 0, 54, 0
1, 365717, Note_on_c, 0, 67, 96
1, 365720, Note_on_c, 0, 99, 103
1, 365751, Note_on_c, 0, 100, 56
1, 365769, Note_off_c, 0, 100, 63
1, 365903, Note_off_c, 0, 99, 63
1, 365931, Note_on_c, 0, 98, 105
1, 365969, Note_on_c, 0, 101, 43
1, 365998, Note_off_c, 0, 101, 54
1, 366004, Poly_aftertouch_c, 0, 99, 127
1, 366024, Poly_aftertouch_c, 0, 99, 0
1, 366094, Note_off_c, 0, 98, 58
1, 366116, Note_on_c, 0, 101, 105
1, 366272, Note_on_c, 0, 99, 84
1, 366308, Note_off_c, 0, 101, 58
1, 366364, Note_on_c, 0, 98, 81
1, 366397, Note_off_c, 0, 99, 62
1, 366435, Note_off_c, 0, 98, 60
1, 366437, Note_on_c, 0, 96, 78
1, 366519, Note_off_c, 0, 96, 39
1, 366521, Note_on_c, 0, 95, 79
1, 366592, Note_on_c, 0, 98, 86
1, 366612, Note_off_c, 0, 95, 62
1, 366668, Note_on_c, 0, 96, 78
1, 366745, Note_on_c, 0, 94, 34
1, 366749, Note_off_c, 0, 98, 48
1, 366749, Note_on_c, 0, 95, 54
1, 366759, Note_off_c, 0, 96, 65
1, 366772, Note_on_c, 0, 93, 74
1, 366799, Note_off_c, 0, 94, 64
1, 366799, Note_off_c, 0, 95, 61
1, 366817, Note_off_c, 0, 93, 64
1, 366841, Note_on_c, 0, 91, 69
1, 366905, Note_off_c, 0, 91, 49
1, 366916, Note_on_c, 0, 90, 73
1, 366937, Note_off_c, 0, 90, 70
1, 366966, Note_on_c, 0, 93, 71
1, 367026, Note_on_c, 0, 91, 72
1, 367074, Note_on_c, 0, 89, 43
1, 367082, Note_off_c, 0, 93, 59
1, 367112, Note_off_c, 0, 91, 63
1, 367124, Note_on_c, 0, 87, 76
1, 367148, Note_off_c, 0, 89, 63
1, 367186, Note_off_c, 0, 87, 63
1, 367188, Note_on_c, 0, 86, 70
1, 367255, Note_on_c, 0, 89, 72
1, 367261, Note_off_c, 0, 86, 59
1, 367293, Note_on_c, 0, 87, 72
1, 367361, Note_off_c, 0, 89, 41
1, 367369, Note_off_c, 0, 87, 64
1, 367373, Note_on_c, 0, 86, 68
1, 367407, Note_off_c, 0, 86, 61
1, 367423, Note_on_c, 0, 84, 66
1, 367483, Note_off_c, 0, 84, 55
1, 367487, Note_on_c, 0, 83, 69
1, 367513, Note_off_c, 0, 67, 54
1, 367535, Note_off_c, 0, 57, 40
1, 367537, Note_off_c, 0, 83, 55
1, 367541, Note_off_c, 0, 60, 55
1, 367545, Note_on_c, 0, 86, 73
1, 367613, Note_on_c, 0, 84, 66
1, 367657, Note_on_c, 0, 82, 73
1, 367703, Note_off_c, 0, 84, 60
1, 367712, Note_on_c, 0, 81, 76
1, 367715, Note_off_c, 0, 86, 61
1, 367722, Note_off_c, 0, 82, 62
1, 367762, Note_on_c, 0, 66, 99
1, 367768, Note_off_c, 0, 81, 59
1, 367798, Note_on_c, 0, 79, 71
1, 367841, Note_off_c, 0, 66, 61
1, 367861, Note_off_c, 0, 79, 53
1, 367894, Note_on_c, 0, 78, 59
1, 367923, Note_off_c, 0, 78, 66
1, 367953, Note_on_c, 0, 81, 70
1, 368019, Note_on_c, 0, 79, 63
1, 368059, Note_off_c, 0, 81, 58
1, 368072, Note_on_c, 0, 77, 62
1, 368096, Note_off_c, 0, 79, 63
1, 368124, Note_on_c, 0, 75, 65
1, 368135, Note_off_c, 0, 77, 60
1, 368186, Note_off_c, 0, 75, 60
1, 368187, Note_on_c, 0, 74, 61
1, 368254, Note_on_c, 0, 77, 65
1, 368269, Note_off_c, 0, 74, 58
1, 368292, Note_on_c, 0, 75, 64
1, 368338, Note_off_c, 0, 77, 49
1, 368367, Note_off_c, 0, 75, 59
1, 368377, Note_on_c, 0, 74, 42
1, 368404, Note_off_c, 0, 74, 56
1, 368415, Note_on_c, 0, 72, 62
1, 368473, Note_off_c, 0, 72, 51
1, 368481, Note_on_c, 0, 71, 66
1, 368540, Note_off_c, 0, 71, 59
1, 368545, Note_on_c, 0, 74, 57
1, 368617, Note_on_c, 0, 72, 58
1, 368635, Note_on_c, 0, 73, 29
1, 368659, Note_on_c, 0, 70, 69
1, 368667, Note_off_c, 0, 73, 54
1, 368683, Note_off_c, 0, 72, 61
1, 368697, Note_off_c, 0, 74, 52
1, 368719, Note_on_c, 0, 69, 66
1, 368737, Note_off_c, 0, 70, 59
1, 368757, Note_off_c, 0, 69, 59
1, 368796, Note_on_c, 0, 67, 66
1, 368843, Note_off_c, 0, 67, 52
1, 368868, Note_on_c, 0, 66, 63
1, 368934, Note_off_c, 0, 66, 56
1, 368946, Note_on_c, 0, 69, 63
1, 369001, Note_on_c, 0, 67, 66
1, 369040, Note_off_c, 0, 69, 59
1, 369048, Note_on_c, 0, 65, 65
1, 369068, Note_off_c, 0, 67, 59
1, 369110, Note_on_c, 0, 63, 66
1, 369124, Note_off_c, 0, 65, 57
1, 369170, Note_off_c, 0, 63, 61
1, 369180, Note_on_c, 0, 62, 52
1, 369239, Note_on_c, 0, 65, 66
1, 369243, Note_off_c, 0, 62, 57
1, 369275, Note_on_c, 0, 63, 67
1, 369318, Note_off_c, 0, 65, 31
1, 369339, Note_on_c, 0, 62, 53
1, 369341, Note_off_c, 0, 63, 60
1, 369374, Note_off_c, 0, 62, 59
1, 369387, Note_on_c, 0, 60, 64
1, 369438, Note_off_c, 0, 60, 42
1, 369459, Note_on_c, 0, 59, 59
1, 369491, Note_off_c, 0, 59, 64
1, 369507, Note_on_c, 0, 62, 50
1, 369572, Note_on_c, 0, 60, 68
1, 369630, Note_on_c, 0, 58, 65
1, 369640, Note_off_c, 0, 60, 60
1, 369663, Note_off_c, 0, 62, 56
1, 369674, Note_on_c, 0, 57, 66
1, 369696, Note_off_c, 0, 58, 61
1, 369706, Note_off_c, 0, 57, 63
1, 369745, Note_on_c, 0, 55, 64
1, 369790, Note_off_c, 0, 55, 51
1, 369806, Note_on_c, 0, 54, 67
1, 369857, Note_on_c, 0, 51, 69
1, 369895, Note_off_c, 0, 54, 59
1, 369919, Note_on_c, 0, 50, 67
1, 369949, Note_off_c, 0, 51, 59
1, 369965, Note_off_c, 0, 50, 58
1, 369998, Note_on_c, 0, 48, 63
1, 370049, Note_off_c, 0, 48, 57
1, 370054, Note_on_c, 0, 46, 69
1, 370117, Note_on_c, 0, 45, 76
1, 370141, Note_off_c, 0, 46, 60
1, 370176, Note_off_c, 0, 45, 58
1, 370195, Note_on_c, 0, 43, 73
1, 370256, Control_c, 0, 64, 113
1, 370264, Note_on_c, 0, 42, 69
1, 370264, Note_off_c, 0, 43, 58
1, 370271, Control_c, 0, 64, 105
1, 370285, Control_c, 0, 64, 98
1, 370300, Control_c, 0, 64, 91
1, 370323, Control_c, 0, 64, 83
1, 370335, Note_on_c, 0, 39, 71
1, 370338, Control_c, 0, 64, 74
1, 370353, Control_c, 0, 64, 66
1, 370367, Control_c, 0, 64, 55
1, 370368, Note_off_c, 0, 42, 60
1, 370382, Control_c, 0, 64, 28
1, 370386, Note_on_c, 0, 38, 70
1, 370397, Control_c, 0, 64, 0
1, 370407, Note_off_c, 0, 39, 61
1, 370433, Note_off_c, 0, 38, 60
1, 370463, Note_on_c, 0, 36, 70
1, 370516, Note_on_c, 0, 34, 68
1, 370528, Note_off_c, 0, 36, 48
1, 370585, Note_on_c, 0, 33, 75
1, 370606, Note_off_c, 0, 34, 61
1, 370637, Note_off_c, 0, 33, 61
1, 370657, Note_on_c, 0, 31, 97
1, 371953, Control_c, 0, 64, 20
1, 371968, Control_c, 0, 64, 30
1, 371983, Control_c, 0, 64, 37
1, 371997, Control_c, 0, 64, 43
1, 372012, Control_c, 0, 64, 48
1, 372027, Control_c, 0, 64, 53
1, 372042, Control_c, 0, 64, 56
1, 372057, Control_c, 0, 64, 59
1, 372071, Control_c, 0, 64, 62
1, 372086, Control_c, 0, 64, 63
1, 372101, Control_c, 0, 64, 64
1, 372116, Control_c, 0, 64, 65
1, 372131, Control_c, 0, 64, 66
1, 372145, Control_c, 0, 64, 68
1, 372160, Control_c, 0, 64, 70
1, 372175, Control_c, 0, 64, 75
1, 372189, Control_c, 0, 64, 79
1, 372204, Control_c, 0, 64, 84
1, 372219, Control_c, 0, 64, 90
1, 372231, Note_on_c, 0, 33, 45
1, 372234, Control_c, 0, 64, 96
1, 372237, Note_on_c, 0, 45, 49
1, 372249, Control_c, 0, 64, 103
1, 372264, Control_c, 0, 64, 114
1, 372270, Note_on_c, 0, 34, 56
1, 372278, Control_c, 0, 64, 127
1, 372287, Note_off_c, 0, 33, 56
1, 372296, Note_off_c, 0, 45, 59
1, 372302, Note_on_c, 0, 46, 63
1, 372328, Note_on_c, 0, 36, 60
1, 372331, Note_off_c, 0, 31, 32
1, 372333, Note_off_c, 0, 46, 63
1, 372353, Note_off_c, 0, 34, 59
1, 372365, Note_off_c, 0, 36, 63
1, 372379, Note_on_c, 0, 38, 56
1, 372384, Note_on_c, 0, 48, 66
1, 372423, Note_off_c, 0, 38, 56
1, 372437, Note_off_c, 0, 48, 56
1, 372453, Note_on_c, 0, 50, 61
1, 372466, Note_on_c, 0, 40, 53
1, 372494, Note_off_c, 0, 50, 61
1, 372508, Note_on_c, 0, 52, 42
1, 372517, Note_off_c, 0, 40, 60
1, 372532, Note_on_c, 0, 42, 60
1, 372542, Note_off_c, 0, 52, 56
1, 372548, Note_on_c, 0, 54, 66
1, 372571, Note_off_c, 0, 42, 62
1, 372585, Note_off_c, 0, 54, 64
1, 372599, Note_on_c, 0, 43, 54
1, 372628, Note_on_c, 0, 55, 57
1, 372633, Note_off_c, 0, 43, 52
1, 372669, Note_on_c, 0, 45, 60
1, 372690, Note_on_c, 0, 57, 62
1, 372693, Note_off_c, 0, 55, 60
1, 372709, Note_off_c, 0, 45, 59
1, 372711, Note_on_c, 0, 46, 55
1, 372729, Note_off_c, 0, 57, 61
1, 372737, Note_on_c, 0, 58, 64
1, 372762, Note_off_c, 0, 46, 61
1, 372762, Note_off_c, 0, 58, 66
1, 372763, Note_on_c, 0, 48, 63
1, 372797, Note_off_c, 0, 48, 63
1, 372831, Note_on_c, 0, 60, 62
1, 372832, Note_on_c, 0, 50, 52
1, 372868, Note_off_c, 0, 60, 61
1, 372869, Note_off_c, 0, 50, 55
1, 372887, Note_on_c, 0, 62, 54
1, 372894, Note_on_c, 0, 52, 54
1, 372934, Note_off_c, 0, 62, 56
1, 372939, Note_on_c, 0, 64, 45
1, 372946, Note_off_c, 0, 52, 58
1, 372952, Note_on_c, 0, 63, 15
1, 372958, Note_on_c, 0, 54, 63
1, 372970, Note_off_c, 0, 64, 61
1, 372980, Note_on_c, 0, 66, 66
1, 372989, Note_off_c, 0, 54, 65
1, 372994, Note_off_c, 0, 63, 52
1, 373006, Note_off_c, 0, 66, 65
1, 373037, Note_on_c, 0, 55, 51
1, 373050, Note_on_c, 0, 67, 60
1, 373086, Note_off_c, 0, 55, 48
1, 373095, Note_on_c, 0, 57, 58
1, 373109, Note_on_c, 0, 69, 61
1, 373125, Note_off_c, 0, 57, 62
1, 373128, Note_on_c, 0, 58, 61
1, 373134, Note_off_c, 0, 67, 45
1, 373147, Note_off_c, 0, 69, 59
1, 373164, Note_on_c, 0, 70, 40
1, 373192, Note_off_c, 0, 70, 56
1, 373193, Note_on_c, 0, 60, 51
1, 373200, Note_off_c, 0, 58, 59
1, 373213, Note_off_c, 0, 60, 60
1, 373235, Note_on_c, 0, 72, 66
1, 373258, Note_on_c, 0, 62, 40
1, 373290, Note_off_c, 0, 62, 51
1, 373298, Note_off_c, 0, 72, 59
1, 373299, Note_on_c, 0, 74, 57
1, 373313, Note_on_c, 0, 64, 49
1, 373333, Note_on_c, 0, 76, 58
1, 373342, Note_off_c, 0, 74, 62
1, 373355, Note_off_c, 0, 64, 62
1, 373366, Note_on_c, 0, 66, 70
1, 373369, Note_on_c, 0, 78, 67
1, 373384, Note_off_c, 0, 76, 60
1, 373411, Note_on_c, 0, 79, 97
1, 373413, Note_on_c, 0, 67, 101
1, 373439, Note_off_c, 0, 66, 63
1, 373464, Note_off_c, 0, 78, 62
1, 373465, Note_off_c, 0, 79, 66
1, 373483, Note_off_c, 0, 67, 61
1, 373866, Control_c, 0, 64, 84
1, 373881, Control_c, 0, 64, 66
1, 373896, Control_c, 0, 64, 28
1, 373910, Control_c, 0, 64, 0
1, 374043, Control_c, 0, 67, 9
1, 374066, Control_c, 0, 67, 14
1, 374081, Control_c, 0, 67, 22
1, 374095, Control_c, 0, 67, 31
1, 374110, Control_c, 0, 67, 44
1, 374125, Control_c, 0, 67, 58
1, 374141, Control_c, 0, 67, 74
1, 374156, Control_c, 0, 67, 91
1, 374171, Control_c, 0, 67, 106
1, 374185, Control_c, 0, 67, 121
1, 374200, Control_c, 0, 67, 127
1, 374630, Control_c, 0, 64, 9
1, 374645, Control_c, 0, 64, 19
1, 374659, Control_c, 0, 64, 23
1, 374674, Control_c, 0, 64, 26
1, 374689, Control_c, 0, 64, 28
1, 374704, Control_c, 0, 64, 29
1, 374719, Control_c, 0, 64, 31
1, 374733, Control_c, 0, 64, 32
1, 374748, Control_c, 0, 64, 33
1, 374763, Control_c, 0, 64, 34
1, 374777, Control_c, 0, 64, 35
1, 374792, Control_c, 0, 64, 36
1, 374815, Control_c, 0, 64, 37
1, 374830, Control_c, 0, 64, 37
1, 374845, Control_c, 0, 64, 38
1, 374859, Control_c, 0, 64, 38
1, 374874, Control_c, 0, 64, 39
1, 374889, Control_c, 0, 64, 40
1, 374904, Control_c, 0, 64, 42
1, 374918, Control_c, 0, 64, 43
1, 374934, Control_c, 0, 64, 44
1, 374949, Control_c, 0, 64, 44
1, 374964, Control_c, 0, 64, 45
1, 374994, Control_c, 0, 64, 45
1, 375008, Control_c, 0, 64, 46
1, 375038, Control_c, 0, 64, 46
1, 375068, Control_c, 0, 64, 47
1, 375082, Control_c, 0, 64, 47
1, 375112, Control_c, 0, 64, 48
1, 375141, Control_c, 0, 64, 48
1, 375142, Note_on_c, 0, 43, 35
1, 375143, Note_on_c, 0, 58, 28
1, 375152, Note_on_c, 0, 50, 22
1, 375154, Note_on_c, 0, 31, 29
1, 375167, Note_on_c, 0, 55, 22
1, 375171, Control_c, 0, 64, 49
1, 375200, Control_c, 0, 64, 50
1, 375215, Control_c, 0, 64, 52
1, 375230, Control_c, 0, 64, 55
1, 375245, Control_c, 0, 64, 58
1, 375260, Control_c, 0, 64, 61
1, 375274, Control_c, 0, 64, 63
1, 375289, Control_c, 0, 64, 64
1, 375304, Control_c, 0, 64, 65
1, 375319, Control_c, 0, 64, 67
1, 375334, Control_c, 0, 64, 68
1, 375349, Control_c, 0, 64, 70
1, 375364, Control_c, 0, 64, 72
1, 375379, Control_c, 0, 64, 74
1, 375393, Control_c, 0, 64, 76
1, 375408, Control_c, 0, 64, 78
1, 375423, Control_c, 0, 64, 79
1, 375438, Control_c, 0, 64, 80
1, 375453, Control_c, 0, 64, 81
1, 375468, Control_c, 0, 64, 82
1, 375482, Control_c, 0, 64, 82
1, 375497, Control_c, 0, 64, 83
1, 375512, Control_c, 0, 64, 83
1, 375526, Control_c, 0, 64, 84
1, 375541, Control_c, 0, 64, 84
1, 375563, Control_c, 0, 64, 85
1, 375578, Control_c, 0, 64, 86
1, 375593, Control_c, 0, 64, 87
1, 375608, Control_c, 0, 64, 87
1, 375623, Control_c, 0, 64, 88
1, 375637, Control_c, 0, 64, 89
1, 375652, Control_c, 0, 64, 90
1, 375667, Control_c, 0, 64, 90
1, 375681, Control_c, 0, 64, 91
1, 375711, Control_c, 0, 64, 92
1, 375726, Control_c, 0, 64, 93
1, 375742, Control_c, 0, 64, 94
1, 375756, Control_c, 0, 64, 95
1, 375771, Control_c, 0, 64, 96
1, 375786, Control_c, 0, 64, 98
1, 375801, Control_c, 0, 64, 100
1, 375816, Control_c, 0, 64, 102
1, 375830, Control_c, 0, 64, 105
1, 375845, Control_c, 0, 64, 107
1, 375860, Control_c, 0, 64, 109
1, 375875, Control_c, 0, 64, 113
1, 375890, Control_c, 0, 64, 116
1, 375904, Control_c, 0, 64, 120
1, 375919, Control_c, 0, 64, 127
1, 375942, Note_off_c, 0, 31, 30
1, 376011, Note_off_c, 0, 43, 34
1, 376011, Note_off_c, 0, 50, 30
1, 376082, Note_off_c, 0, 55, 34
1, 376091, Note_off_c, 0, 58, 35
1, 376587, Note_on_c, 0, 50, 35
1, 376589, Note_on_c, 0, 31, 34
1, 376594, Note_on_c, 0, 58, 42
1, 376599, Note_on_c, 0, 43, 34
1, 376648, Poly_aftertouch_c, 0, 55, 127
1, 376652, Note_off_c, 0, 50, 42
1, 376664, Note_off_c, 0, 43, 53
1, 376666, Note_off_c, 0, 58, 52
1, 376669, Note_off_c, 0, 31, 38
1, 376690, Poly_aftertouch_c, 0, 55, 0
1, 376821, Note_on_c, 0, 58, 44
1, 376824, Note_on_c, 0, 50, 32
1, 376825, Note_on_c, 0, 43, 35
1, 376832, Control_c, 0, 64, 104
1, 376833, Note_on_c, 0, 31, 36
1, 376833, Note_on_c, 0, 55, 24
1, 376846, Control_c, 0, 64, 90
1, 376861, Control_c, 0, 64, 79
1, 376876, Control_c, 0, 64, 69
1, 376891, Control_c, 0, 64, 60
1, 376905, Control_c, 0, 64, 49
1, 376920, Control_c, 0, 64, 48
1, 376935, Control_c, 0, 64, 53
1, 376950, Control_c, 0, 64, 61
1, 376965, Control_c, 0, 64, 66
1, 376979, Control_c, 0, 64, 73
1, 376994, Control_c, 0, 64, 82
1, 377009, Control_c, 0, 64, 90
1, 377024, Control_c, 0, 64, 93
1, 377039, Control_c, 0, 64, 94
1, 377058, Note_off_c, 0, 31, 27
1, 377061, Note_off_c, 0, 43, 33
1, 377105, Note_off_c, 0, 50, 40
1, 377135, Note_off_c, 0, 58, 34
1, 377155, Note_off_c, 0, 55, 10
1, 377432, Control_c, 0, 64, 94
1, 377462, Control_c, 0, 64, 93
1, 377477, Control_c, 0, 64, 92
1, 377492, Control_c, 0, 64, 90
1, 377507, Control_c, 0, 64, 86
1, 377522, Control_c, 0, 64, 83
1, 377536, Control_c, 0, 64, 79
1, 377551, Control_c, 0, 64, 75
1, 377566, Control_c, 0, 64, 71
1, 377581, Control_c, 0, 64, 67
1, 377596, Control_c, 0, 64, 63
1, 377610, Control_c, 0, 64, 57
1, 377625, Control_c, 0, 64, 53
1, 377640, Control_c, 0, 64, 50
1, 377655, Control_c, 0, 64, 49
1, 377670, Control_c, 0, 64, 48
1, 377699, Control_c, 0, 64, 48
1, 377758, Control_c, 0, 64, 47
1, 378001, Control_c, 0, 64, 48
1, 378016, Control_c, 0, 64, 48
1, 378031, Control_c, 0, 64, 49
1, 378045, Control_c, 0, 64, 51
1, 378060, Control_c, 0, 64, 53
1, 378075, Control_c, 0, 64, 56
1, 378090, Control_c, 0, 64, 61
1, 378105, Control_c, 0, 64, 65
1, 378121, Control_c, 0, 64, 69
1, 378121, Control_c, 0, 67, 122
1, 378136, Control_c, 0, 64, 76
1, 378136, Control_c, 0, 67, 111
1, 378145, Note_on_c, 0, 50, 90
1, 378150, Control_c, 0, 64, 84
1, 378150, Control_c, 0, 67, 96
1, 378157, Note_on_c, 0, 38, 79
1, 378165, Control_c, 0, 64, 91
1, 378165, Control_c, 0, 67, 75
1, 378180, Control_c, 0, 64, 96
1, 378180, Control_c, 0, 67, 47
1, 378195, Control_c, 0, 64, 101
1, 378195, Control_c, 0, 67, 19
1, 378210, Control_c, 0, 64, 108
1, 378210, Control_c, 0, 67, 0
1, 378224, Control_c, 0, 64, 116
1, 378239, Control_c, 0, 64, 127
1, 378314, Note_off_c, 0, 38, 58
1, 378359, Note_on_c, 0, 55, 84
1, 378360, Note_on_c, 0, 43, 74
1, 378390, Note_off_c, 0, 50, 57
1, 378473, Note_on_c, 0, 57, 71
1, 378482, Note_off_c, 0, 55, 60
1, 378483, Note_on_c, 0, 45, 69
1, 378491, Note_off_c, 0, 43, 57
1, 378555, Note_off_c, 0, 57, 60
1, 378567, Note_on_c, 0, 60, 69
1, 378582, Note_on_c, 0, 48, 70
1, 378604, Note_off_c, 0, 45, 59
1, 378629, Note_on_c, 0, 58, 77
1, 378662, Note_off_c, 0, 60, 56
1, 378671, Note_off_c, 0, 48, 61
1, 378684, Note_off_c, 0, 58, 60
1, 378707, Note_on_c, 0, 46, 92
1, 378708, Note_on_c, 0, 58, 77
1, 378789, Note_off_c, 0, 46, 60
1, 378794, Note_off_c, 0, 58, 62
1, 379018, Control_c, 0, 64, 93
1, 379033, Control_c, 0, 64, 75
1, 379047, Control_c, 0, 64, 62
1, 379062, Control_c, 0, 64, 0
1, 379182, Note_on_c, 0, 31, 93
1, 379182, Note_on_c, 0, 46, 96
1, 379195, Control_c, 0, 64, 64
1, 379210, Control_c, 0, 64, 73
1, 379225, Control_c, 0, 64, 89
1, 379239, Control_c, 0, 64, 127
1, 379522, Note_off_c, 0, 46, 60
1, 379569, Note_off_c, 0, 31, 36
1, 379627, Note_on_c, 0, 33, 37
1, 379637, Note_on_c, 0, 48, 53
1, 379645, Note_on_c, 0, 50, 48
1, 379659, Note_on_c, 0, 34, 50
1, 379686, Note_off_c, 0, 33, 57
1, 379695, Note_on_c, 0, 36, 62
1, 379706, Note_off_c, 0, 48, 59
1, 379725, Note_off_c, 0, 34, 58
1, 379738, Note_off_c, 0, 36, 62
1, 379748, Note_on_c, 0, 52, 62
1, 379749, Note_on_c, 0, 38, 61
1, 379752, Note_off_c, 0, 50, 59
1, 379798, Note_off_c, 0, 38, 51
1, 379817, Note_off_c, 0, 52, 62
1, 379823, Note_on_c, 0, 54, 67
1, 379838, Note_on_c, 0, 40, 55
1, 379857, Note_off_c, 0, 54, 63
1, 379888, Note_off_c, 0, 40, 62
1, 379894, Note_on_c, 0, 55, 68
1, 379897, Note_on_c, 0, 42, 57
1, 379927, Note_off_c, 0, 42, 62
1, 379962, Note_on_c, 0, 43, 44
1, 379963, Note_off_c, 0, 55, 60
1, 379966, Note_on_c, 0, 57, 66
1, 379993, Note_off_c, 0, 43, 53
1, 380006, Note_off_c, 0, 57, 59
1, 380020, Note_on_c, 0, 45, 51
1, 380022, Note_on_c, 0, 58, 61
1, 380058, Note_off_c, 0, 58, 65
1, 380064, Note_off_c, 0, 45, 49
1, 380083, Note_on_c, 0, 46, 48
1, 380107, Note_on_c, 0, 60, 68
1, 380118, Note_on_c, 0, 48, 60
1, 380127, Note_off_c, 0, 46, 63
1, 380157, Note_off_c, 0, 48, 60
1, 380165, Note_on_c, 0, 62, 61
1, 380166, Note_off_c, 0, 60, 58
1, 380205, Note_off_c, 0, 62, 56
1, 380209, Note_on_c, 0, 50, 19
1, 380220, Note_on_c, 0, 64, 52
1, 380249, Note_off_c, 0, 50, 52
1, 380258, Note_on_c, 0, 52, 47
1, 380261, Note_off_c, 0, 64, 63
1, 380273, Note_on_c, 0, 66, 63
1, 380297, Note_off_c, 0, 52, 60
1, 380301, Note_off_c, 0, 66, 65
1, 380315, Note_on_c, 0, 54, 56
1, 380336, Note_on_c, 0, 67, 65
1, 380345, Note_off_c, 0, 54, 61
1, 380396, Note_off_c, 0, 67, 60
1, 380398, Note_on_c, 0, 69, 64
1, 380406, Note_on_c, 0, 55, 13
1, 380431, Note_off_c, 0, 69, 61
1, 380444, Note_on_c, 0, 57, 50
1, 380446, Note_off_c, 0, 55, 41
1, 380449, Note_on_c, 0, 70, 63
1, 380473, Note_off_c, 0, 57, 62
1, 380478, Note_off_c, 0, 70, 64
1, 380491, Note_on_c, 0, 58, 57
1, 380530, Note_on_c, 0, 72, 64
1, 380539, Note_off_c, 0, 58, 54
1, 380542, Note_on_c, 0, 60, 52
1, 380564, Note_off_c, 0, 60, 61
1, 380580, Note_on_c, 0, 74, 60
1, 380581, Note_off_c, 0, 72, 59
1, 380606, Note_on_c, 0, 62, 48
1, 380622, Note_on_c, 0, 76, 64
1, 380631, Note_off_c, 0, 62, 56
1, 380637, Note_off_c, 0, 74, 57
1, 380662, Note_on_c, 0, 64, 59
1, 380678, Note_on_c, 0, 78, 67
1, 380679, Note_off_c, 0, 76, 60
1, 380703, Note_off_c, 0, 78, 67
1, 380720, Note_off_c, 0, 64, 59
1, 380737, Note_on_c, 0, 66, 52
1, 380745, Note_on_c, 0, 79, 56
1, 380759, Note_off_c, 0, 66, 62
1, 380808, Note_on_c, 0, 81, 68
1, 380810, Note_off_c, 0, 79, 61
1, 380822, Note_on_c, 0, 67, 25
1, 380840, Note_off_c, 0, 81, 59
1, 380848, Note_on_c, 0, 82, 66
1, 380860, Note_off_c, 0, 67, 51
1, 380867, Note_on_c, 0, 69, 58
1, 380872, Note_off_c, 0, 82, 68
1, 380907, Note_off_c, 0, 69, 58
1, 380908, Control_c, 0, 67, 8
1, 380920, Note_on_c, 0, 70, 51
1, 380923, Control_c, 0, 67, 11
1, 380935, Note_on_c, 0, 84, 64
1, 380938, Control_c, 0, 67, 13
1, 380953, Control_c, 0, 67, 14
1, 380961, Note_off_c, 0, 70, 61
1, 380965, Note_on_c, 0, 72, 46
1, 380983, Control_c, 0, 67, 13
1, 380991, Note_off_c, 0, 72, 56
1, 380994, Note_off_c, 0, 84, 59
1, 380999, Note_on_c, 0, 86, 60
1, 381030, Note_off_c, 0, 86, 63
1, 381032, Note_on_c, 0, 88, 62
1, 381042, Note_on_c, 0, 74, 16
1, 381042, Control_c, 0, 67, 13
1, 381063, Note_off_c, 0, 88, 67
1, 381077, Note_on_c, 0, 90, 61
1, 381079, Note_on_c, 0, 76, 56
1, 381081, Note_off_c, 0, 74, 53
1, 381086, Control_c, 0, 67, 13
1, 381093, Note_off_c, 0, 90, 65
1, 381116, Control_c, 0, 67, 13
1, 381147, Note_on_c, 0, 91, 69
1, 381159, Note_off_c, 0, 76, 60
1, 381162, Note_on_c, 0, 78, 70
1, 381190, Control_c, 0, 67, 12
1, 381191, Note_on_c, 0, 93, 71
1, 381194, Note_off_c, 0, 91, 63
1, 381204, Control_c, 0, 67, 12
1, 381219, Control_c, 0, 67, 11
1, 381223, Note_on_c, 0, 94, 95
1, 381234, Note_on_c, 0, 79, 103
1, 381234, Control_c, 0, 67, 12
1, 381251, Note_off_c, 0, 93, 65
1, 381266, Note_off_c, 0, 78, 62
1, 381278, Note_off_c, 0, 94, 65
1, 381291, Note_off_c, 0, 79, 64
1, 381293, Control_c, 0, 67, 11
1, 381308, Control_c, 0, 67, 10
1, 381324, Control_c, 0, 67, 9
1, 381339, Control_c, 0, 67, 0
1, 381790, Control_c, 0, 64, 114
1, 381805, Control_c, 0, 64, 84
1, 381819, Control_c, 0, 64, 67
1, 381834, Control_c, 0, 64, 43
1, 381849, Control_c, 0, 64, 0
1, 381923, Control_c, 0, 67, 8
1, 381938, Control_c, 0, 67, 14
1, 381953, Control_c, 0, 67, 23
1, 381967, Control_c, 0, 67, 36
1, 381982, Control_c, 0, 67, 48
1, 381997, Control_c, 0, 67, 62
1, 382011, Control_c, 0, 67, 77
1, 382026, Control_c, 0, 67, 91
1, 382041, Control_c, 0, 67, 103
1, 382056, Control_c, 0, 67, 115
1, 382071, Control_c, 0, 67, 124
1, 382086, Control_c, 0, 67, 127
1, 382849, Control_c, 0, 64, 14
1, 382864, Control_c, 0, 64, 25
1, 382879, Control_c, 0, 64, 28
1, 382894, Control_c, 0, 64, 31
1, 382910, Control_c, 0, 64, 32
1, 382925, Control_c, 0, 64, 33
1, 382954, Control_c, 0, 64, 34
1, 383090, Note_on_c, 0, 62, 29
1, 383110, Control_c, 0, 64, 34
1, 383118, Note_on_c, 0, 31, 31
1, 383125, Note_on_c, 0, 50, 15
1, 383126, Control_c, 0, 64, 36
1, 383130, Note_on_c, 0, 43, 30
1, 383132, Note_on_c, 0, 58, 31
1, 383141, Control_c, 0, 64, 43
1, 383155, Control_c, 0, 64, 54
1, 383170, Control_c, 0, 64, 61
1, 383185, Control_c, 0, 64, 64
1, 383200, Control_c, 0, 64, 68
1, 383215, Control_c, 0, 64, 71
1, 383229, Control_c, 0, 64, 75
1, 383244, Control_c, 0, 64, 78
1, 383259, Control_c, 0, 64, 82
1, 383273, Control_c, 0, 64, 84
1, 383288, Control_c, 0, 64, 86
1, 383303, Control_c, 0, 64, 87
1, 383318, Control_c, 0, 64, 88
1, 383333, Control_c, 0, 64, 89
1, 383347, Control_c, 0, 64, 91
1, 383362, Control_c, 0, 64, 92
1, 383377, Control_c, 0, 64, 93
1, 383391, Control_c, 0, 64, 94
1, 383406, Control_c, 0, 64, 95
1, 383421, Control_c, 0, 64, 97
1, 383436, Control_c, 0, 64, 99
1, 383451, Control_c, 0, 64, 102
1, 383466, Control_c, 0, 64, 104
1, 383481, Control_c, 0, 64, 106
1, 383496, Control_c, 0, 64, 109
1, 383510, Control_c, 0, 64, 112
1, 383525, Control_c, 0, 64, 116
1, 383540, Control_c, 0, 64, 127
1, 383916, Note_off_c, 0, 62, 37
1, 383923, Note_off_c, 0, 58, 15
1, 383959, Note_off_c, 0, 43, 37
1, 384022, Note_off_c, 0, 31, 34
1, 384034, Note_off_c, 0, 50, 34
1, 384531, Note_on_c, 0, 31, 44
1, 384542, Note_on_c, 0, 62, 44
1, 384545, Note_on_c, 0, 43, 41
1, 384549, Note_on_c, 0, 50, 49
1, 384566, Note_on_c, 0, 58, 41
1, 384593, Note_off_c, 0, 50, 58
1, 384596, Note_on_c, 0, 55, 17
1, 384606, Note_off_c, 0, 43, 55
1, 384611, Note_off_c, 0, 31, 53
1, 384628, Note_off_c, 0, 58, 53
1, 384640, Note_off_c, 0, 55, 41
1, 384644, Note_off_c, 0, 62, 54
1, 384771, Control_c, 0, 64, 96
1, 384783, Note_on_c, 0, 62, 50
1, 384786, Note_on_c, 0, 58, 42
1, 384786, Control_c, 0, 64, 80
1, 384788, Note_on_c, 0, 50, 38
1, 384788, Note_on_c, 0, 55, 26
1, 384792, Note_on_c, 0, 43, 34
1, 384801, Control_c, 0, 64, 67
1, 384810, Note_on_c, 0, 31, 22
1, 384816, Control_c, 0, 64, 54
1, 384831, Control_c, 0, 64, 25
1, 384845, Control_c, 0, 64, 22
1, 384860, Control_c, 0, 64, 34
1, 384875, Control_c, 0, 64, 52
1, 384890, Control_c, 0, 64, 63
1, 384905, Control_c, 0, 64, 69
1, 384919, Control_c, 0, 64, 78
1, 384934, Control_c, 0, 64, 88
1, 384949, Control_c, 0, 64, 92
1, 384963, Control_c, 0, 64, 94
1, 384977, Note_off_c, 0, 31, 35
1, 384990, Note_off_c, 0, 43, 31
1, 385006, Note_off_c, 0, 62, 37
1, 385036, Note_off_c, 0, 50, 25
1, 385052, Control_c, 0, 64, 94
1, 385054, Note_off_c, 0, 55, 32
1, 385064, Note_off_c, 0, 58, 23
1, 385357, Control_c, 0, 64, 94
1, 385475, Control_c, 0, 64, 93
1, 385520, Control_c, 0, 64, 93
1, 385535, Control_c, 0, 64, 92
1, 385549, Control_c, 0, 64, 91
1, 385564, Control_c, 0, 64, 89
1, 385579, Control_c, 0, 64, 84
1, 385594, Control_c, 0, 64, 78
1, 385609, Control_c, 0, 64, 71
1, 385624, Control_c, 0, 64, 63
1, 385639, Control_c, 0, 64, 49
1, 385654, Control_c, 0, 64, 32
1, 385668, Control_c, 0, 64, 25
1, 385860, Control_c, 0, 64, 26
1, 385875, Control_c, 0, 64, 27
1, 385890, Control_c, 0, 67, 126
1, 385905, Control_c, 0, 64, 28
1, 385905, Control_c, 0, 67, 123
1, 385920, Control_c, 0, 67, 120
1, 385934, Control_c, 0, 64, 28
1, 385934, Control_c, 0, 67, 117
1, 385949, Control_c, 0, 67, 114
1, 385964, Control_c, 0, 64, 29
1, 385964, Control_c, 0, 67, 112
1, 385979, Control_c, 0, 64, 31
1, 385979, Control_c, 0, 67, 111
1, 385994, Control_c, 0, 64, 31
1, 385994, Control_c, 0, 67, 110
1, 386008, Control_c, 0, 64, 32
1, 386023, Control_c, 0, 64, 32
1, 386046, Control_c, 0, 64, 33
1, 386061, Control_c, 0, 64, 34
1, 386075, Control_c, 0, 64, 34
1, 386090, Control_c, 0, 64, 36
1, 386105, Control_c, 0, 64, 45
1, 386105, Control_c, 0, 67, 109
1, 386114, Note_on_c, 0, 62, 89
1, 386120, Control_c, 0, 64, 58
1, 386120, Control_c, 0, 67, 106
1, 386124, Note_on_c, 0, 50, 74
1, 386135, Control_c, 0, 64, 66
1, 386135, Control_c, 0, 67, 97
1, 386150, Control_c, 0, 64, 78
1, 386150, Control_c, 0, 67, 81
1, 386164, Control_c, 0, 64, 104
1, 386164, Control_c, 0, 67, 59
1, 386166, Note_on_c, 0, 58, 28
1, 386179, Control_c, 0, 64, 127
1, 386179, Control_c, 0, 67, 33
1, 386194, Control_c, 0, 67, 0
1, 386213, Note_off_c, 0, 58, 45
1, 386244, Note_off_c, 0, 50, 57
1, 386298, Note_off_c, 0, 62, 53
1, 386309, Note_on_c, 0, 67, 85
1, 386318, Note_on_c, 0, 55, 66
1, 386423, Note_off_c, 0, 55, 60
1, 386441, Note_on_c, 0, 70, 77
1, 386462, Note_off_c, 0, 67, 56
1, 386467, Note_on_c, 0, 58, 58
1, 386530, Note_on_c, 0, 75, 68
1, 386542, Note_off_c, 0, 70, 59
1, 386555, Note_off_c, 0, 58, 60
1, 386565, Note_on_c, 0, 63, 72
1, 386599, Note_off_c, 0, 75, 63
1, 386602, Note_on_c, 0, 74, 77
1, 386619, Note_off_c, 0, 63, 62
1, 386624, Note_off_c, 0, 74, 68
1, 386678, Note_on_c, 0, 62, 94
1, 386678, Note_on_c, 0, 74, 107
1, 386756, Note_off_c, 0, 62, 56
1, 386760, Note_off_c, 0, 74, 68
1, 387210, Control_c, 0, 64, 95
1, 387225, Control_c, 0, 64, 65
1, 387238, Note_on_c, 0, 100, 95
1, 387240, Control_c, 0, 64, 0
1, 387241, Note_on_c, 0, 34, 74
1, 387261, Note_on_c, 0, 88, 94
1, 387270, Note_on_c, 0, 46, 86
1, 387278, Note_on_c, 0, 93, 58
1, 387284, Control_c, 0, 64, 42
1, 387297, Note_off_c, 0, 93, 59
1, 387299, Control_c, 0, 64, 69
1, 387314, Control_c, 0, 64, 84
1, 387329, Control_c, 0, 64, 127
1, 387469, Note_off_c, 0, 88, 57
1, 387508, Note_off_c, 0, 34, 47
1, 387521, Note_off_c, 0, 46, 59
1, 387631, Note_off_c, 0, 100, 32
1, 387760, Note_on_c, 0, 35, 81
1, 387770, Note_on_c, 0, 99, 92
1, 387786, Note_on_c, 0, 87, 96
1, 387795, Note_on_c, 0, 100, 67
1, 387802, Note_on_c, 0, 47, 87
1, 387815, Note_off_c, 0, 100, 61
1, 387870, Note_on_c, 0, 38, 24
1, 387886, Poly_aftertouch_c, 0, 36, 127
1, 387937, Note_off_c, 0, 38, 43
1, 387941, Poly_aftertouch_c, 0, 36, 0
1, 387952, Note_off_c, 0, 35, 58
1, 387975, Note_off_c, 0, 47, 63
1, 387993, Note_off_c, 0, 99, 59
1, 388021, Note_off_c, 0, 87, 61
1, 388165, Note_on_c, 0, 36, 85
1, 388170, Note_on_c, 0, 98, 89
1, 388190, Note_on_c, 0, 86, 98
1, 388196, Note_on_c, 0, 96, 76
1, 388204, Note_on_c, 0, 48, 82
1, 388211, Note_off_c, 0, 96, 70
1, 388271, Poly_aftertouch_c, 0, 39, 127
1, 388286, Poly_aftertouch_c, 0, 43, 127
1, 388313, Note_off_c, 0, 98, 58
1, 388322, Note_off_c, 0, 48, 60
1, 388331, Note_off_c, 0, 86, 62
1, 388336, Note_off_c, 0, 36, 53
1, 388403, Poly_aftertouch_c, 0, 39, 0
1, 388432, Poly_aftertouch_c, 0, 43, 0
1, 388470, Note_on_c, 0, 37, 75
1, 388480, Note_on_c, 0, 97, 97
1, 388494, Note_on_c, 0, 85, 96
1, 388508, Note_on_c, 0, 39, 55
1, 388510, Note_on_c, 0, 49, 81
1, 388515, Note_on_c, 0, 96, 56
1, 388523, Note_on_c, 0, 98, 51
1, 388543, Note_off_c, 0, 98, 60
1, 388551, Note_off_c, 0, 96, 48
1, 388554, Note_on_c, 0, 36, 10
1, 388584, Note_off_c, 0, 36, 58
1, 388647, Note_off_c, 0, 37, 57
1, 388656, Note_off_c, 0, 49, 60
1, 388662, Note_off_c, 0, 85, 62
1, 388677, Note_off_c, 0, 97, 61
1, 388679, Note_off_c, 0, 39, 42
1, 388730, Note_on_c, 0, 38, 85
1, 388738, Note_on_c, 0, 96, 90
1, 388756, Note_on_c, 0, 84, 90
1, 388760, Note_on_c, 0, 50, 83
1, 388790, Note_on_c, 0, 90, 17
1, 388797, Note_on_c, 0, 95, 28
1, 388828, Note_off_c, 0, 90, 51
1, 388834, Note_off_c, 0, 95, 52
1, 388835, Note_off_c, 0, 38, 61
1, 388843, Note_off_c, 0, 50, 61
1, 388861, Note_off_c, 0, 84, 59
1, 388861, Note_off_c, 0, 96, 63
1, 388890, Poly_aftertouch_c, 0, 45, 0
1, 388923, Note_on_c, 0, 39, 80
1, 388934, Note_on_c, 0, 95, 87
1, 388948, Note_on_c, 0, 51, 80
1, 388948, Note_on_c, 0, 83, 92
1, 389007, Note_off_c, 0, 83, 62
1, 389032, Poly_aftertouch_c, 0, 40, 127
1, 389037, Note_off_c, 0, 51, 60
1, 389037, Poly_aftertouch_c, 0, 38, 127
1, 389046, Note_off_c, 0, 95, 63
1, 389060, Note_off_c, 0, 39, 58
1, 389069, Poly_aftertouch_c, 0, 46, 0
1, 389070, Poly_aftertouch_c, 0, 38, 0
1, 389070, Poly_aftertouch_c, 0, 40, 0
1, 389107, Note_on_c, 0, 52, 92
1, 389110, Note_on_c, 0, 82, 98
1, 389111, Note_on_c, 0, 94, 89
1, 389124, Note_on_c, 0, 40, 62
1, 389138, Note_on_c, 0, 92, 51
1, 389138, Note_on_c, 0, 41, 51
1, 389162, Note_off_c, 0, 92, 58
1, 389164, Note_off_c, 0, 52, 61
1, 389165, Note_off_c, 0, 40, 64
1, 389165, Note_off_c, 0, 41, 58
1, 389183, Note_off_c, 0, 82, 61
1, 389197, Poly_aftertouch_c, 0, 42, 127
1, 389199, Note_off_c, 0, 94, 62
1, 389234, Note_on_c, 0, 53, 85
1, 389240, Poly_aftertouch_c, 0, 42, 0
1, 389240, Note_on_c, 0, 41, 76
1, 389247, Note_on_c, 0, 93, 93
1, 389249, Note_on_c, 0, 81, 100
1, 389271, Note_on_c, 0, 87, 54
1, 389273, Note_on_c, 0, 49, 43
1, 389274, Note_on_c, 0, 92, 40
1, 389284, Note_off_c, 0, 53, 63
1, 389285, Note_off_c, 0, 41, 58
1, 389302, Note_off_c, 0, 87, 58
1, 389302, Note_off_c, 0, 92, 56
1, 389303, Note_off_c, 0, 81, 64
1, 389309, Note_off_c, 0, 49, 52
1, 389311, Note_off_c, 0, 93, 62
1, 389377, Note_on_c, 0, 54, 93
1, 389377, Note_on_c, 0, 92, 91
1, 389383, Note_on_c, 0, 80, 98
1, 389391, Note_on_c, 0, 42, 73
1, 389451, Note_off_c, 0, 54, 61
1, 389451, Poly_aftertouch_c, 0, 87, 127
1, 389457, Note_off_c, 0, 80, 62
1, 389458, Poly_aftertouch_c, 0, 49, 127
1, 389460, Note_off_c, 0, 42, 59
1, 389472, Control_c, 0, 64, 85
1, 389480, Note_off_c, 0, 92, 62
1, 389485, Poly_aftertouch_c, 0, 49, 0
1, 389487, Poly_aftertouch_c, 0, 87, 0
1, 389487, Control_c, 0, 64, 16
1, 389501, Control_c, 0, 64, 0
1, 389514, Note_on_c, 0, 55, 97
1, 389521, Note_on_c, 0, 79, 104
1, 389523, Note_on_c, 0, 91, 96
1, 389524, Note_on_c, 0, 43, 81
1, 389531, Control_c, 0, 64, 27
1, 389538, Note_on_c, 0, 85, 69
1, 389546, Control_c, 0, 64, 70
1, 389560, Control_c, 0, 64, 103
1, 389561, Note_off_c, 0, 85, 64
1, 389568, Note_off_c, 0, 55, 64
1, 389575, Control_c, 0, 64, 127
1, 389576, Note_off_c, 0, 43, 60
1, 389579, Note_off_c, 0, 91, 62
1, 389580, Note_off_c, 0, 79, 64
1, 389586, Poly_aftertouch_c, 0, 44, 127
1, 389600, Poly_aftertouch_c, 0, 46, 127
1, 389621, Poly_aftertouch_c, 0, 44, 0
1, 389629, Poly_aftertouch_c, 0, 46, 0
1, 389659, Note_on_c, 0, 54, 89
1, 389664, Note_on_c, 0, 78, 92
1, 389665, Note_on_c, 0, 90, 90
1, 389674, Note_on_c, 0, 42, 72
1, 389705, Note_off_c, 0, 54, 59
1, 389705, Note_off_c, 0, 42, 62
1, 389709, Note_off_c, 0, 78, 62
1, 389732, Note_off_c, 0, 90, 63
1, 389767, Note_on_c, 0, 53, 86
1, 389767, Note_on_c, 0, 77, 92
1, 389779, Note_on_c, 0, 89, 86
1, 389788, Note_on_c, 0, 41, 67
1, 389791, Note_on_c, 0, 42, 51
1, 389805, Note_off_c, 0, 53, 64
1, 389813, Note_off_c, 0, 42, 63
1, 389817, Note_off_c, 0, 77, 64
1, 389818, Note_off_c, 0, 41, 65
1, 389821, Note_on_c, 0, 52, 23
1, 389824, Note_off_c, 0, 89, 64
1, 389863, Note_off_c, 0, 52, 46
1, 389880, Note_on_c, 0, 52, 76
1, 389890, Note_on_c, 0, 76, 91
1, 389892, Note_on_c, 0, 88, 78
1, 389895, Note_on_c, 0, 40, 75
1, 389918, Note_off_c, 0, 88, 65
1, 389922, Note_off_c, 0, 40, 65
1, 389922, Note_off_c, 0, 52, 62
1, 389924, Note_off_c, 0, 76, 64
1, 389981, Poly_aftertouch_c, 0, 81, 127
1, 389994, Note_on_c, 0, 75, 83
1, 389995, Note_on_c, 0, 87, 79
1, 389997, Note_on_c, 0, 51, 78
1, 390003, Note_on_c, 0, 85, 65
1, 390003, Poly_aftertouch_c, 0, 81, 0
1, 390006, Note_on_c, 0, 39, 65
1, 390010, Note_on_c, 0, 49, 65
1, 390012, Note_on_c, 0, 74, 64
1, 390027, Note_off_c, 0, 87, 62
1, 390029, Note_off_c, 0, 51, 63
1, 390030, Note_off_c, 0, 74, 67
1, 390031, Note_off_c, 0, 49, 63
1, 390032, Note_on_c, 0, 80, 24
1, 390039, Note_off_c, 0, 75, 58
1, 390045, Note_off_c, 0, 39, 59
1, 390066, Note_off_c, 0, 80, 47
1, 390067, Note_off_c, 0, 85, 58
1, 390086, Note_on_c, 0, 86, 20
1, 390088, Note_on_c, 0, 50, 92
1, 390090, Note_on_c, 0, 74, 94
1, 390110, Note_on_c, 0, 38, 62
1, 390122, Note_on_c, 0, 85, 7
1, 390127, Note_off_c, 0, 50, 61
1, 390130, Note_off_c, 0, 74, 65
1, 390136, Note_off_c, 0, 86, 64
1, 390141, Note_off_c, 0, 38, 60
1, 390179, Note_off_c, 0, 85, 33
1, 390195, Note_on_c, 0, 85, 76
1, 390198, Note_on_c, 0, 73, 93
1, 390200, Note_on_c, 0, 49, 85
1, 390210, Note_on_c, 0, 37, 72
1, 390246, Note_off_c, 0, 73, 61
1, 390247, Note_off_c, 0, 49, 58
1, 390250, Note_off_c, 0, 37, 61
1, 390271, Note_off_c, 0, 85, 62
1, 390280, Poly_aftertouch_c, 0, 80, 0
1, 390301, Note_on_c, 0, 48, 86
1, 390301, Note_on_c, 0, 72, 93
1, 390303, Note_on_c, 0, 84, 89
1, 390331, Note_on_c, 0, 36, 44
1, 390334, Note_on_c, 0, 78, 38
1, 390335, Note_on_c, 0, 47, 45
1, 390335, Note_off_c, 0, 48, 61
1, 390338, Note_off_c, 0, 72, 57
1, 390349, Note_off_c, 0, 84, 60
1, 390362, Note_off_c, 0, 47, 59
1, 390364, Note_off_c, 0, 36, 54
1, 390367, Note_off_c, 0, 78, 53
1, 390402, Note_on_c, 0, 47, 84
1, 390411, Note_on_c, 0, 35, 71
1, 390412, Note_on_c, 0, 83, 86
1, 390417, Note_on_c, 0, 71, 87
1, 390434, Note_on_c, 0, 42, 52
1, 390435, Note_on_c, 0, 72, 56
1, 390449, Note_off_c, 0, 72, 67
1, 390450, Note_off_c, 0, 71, 62
1, 390456, Note_off_c, 0, 83, 60
1, 390462, Note_off_c, 0, 35, 59
1, 390472, Note_off_c, 0, 42, 62
1, 390473, Note_off_c, 0, 47, 63
1, 390519, Note_on_c, 0, 82, 85
1, 390522, Note_on_c, 0, 70, 88
1, 390550, Note_on_c, 0, 80, 53
1, 390557, Note_off_c, 0, 70, 56
1, 390572, Note_on_c, 0, 46, 73
1, 390575, Note_off_c, 0, 80, 57
1, 390584, Poly_aftertouch_c, 0, 35, 127
1, 390593, Note_off_c, 0, 82, 60
1, 390609, Poly_aftertouch_c, 0, 72, 0
1, 390618, Note_on_c, 0, 34, 45
1, 390631, Note_on_c, 0, 69, 90
1, 390632, Poly_aftertouch_c, 0, 35, 0
1, 390635, Note_on_c, 0, 81, 80
1, 390657, Note_on_c, 0, 80, 40
1, 390658, Note_on_c, 0, 75, 56
1, 390669, Note_off_c, 0, 46, 62
1, 390674, Note_off_c, 0, 69, 61
1, 390680, Note_off_c, 0, 81, 61
1, 390683, Note_off_c, 0, 80, 55
1, 390688, Note_off_c, 0, 75, 63
1, 390736, Note_on_c, 0, 68, 93
1, 390742, Note_on_c, 0, 80, 84
1, 390763, Note_on_c, 0, 78, 60
1, 390770, Note_on_c, 0, 33, 34
1, 390778, Note_off_c, 0, 68, 55
1, 390783, Note_on_c, 0, 44, 5
1, 390795, Note_off_c, 0, 78, 48
1, 390800, Note_off_c, 0, 80, 61
1, 390805, Note_off_c, 0, 33, 50
1, 390805, Control_c, 0, 64, 71
1, 390814, Note_off_c, 0, 34, 47
1, 390820, Control_c, 0, 64, 0
1, 390831, Note_off_c, 0, 44, 42
1, 390843, Note_on_c, 0, 43, 92
1, 390843, Note_on_c, 0, 67, 75
1, 390852, Note_on_c, 0, 79, 87
1, 390853, Note_on_c, 0, 31, 86
1, 390859, Note_on_c, 0, 39, 72
1, 390861, Note_on_c, 0, 69, 60
1, 390868, Note_on_c, 0, 81, 48
1, 390869, Note_off_c, 0, 81, 127
1, 390873, Note_on_c, 0, 32, 47
1, 390879, Control_c, 0, 64, 68
1, 390884, Note_on_c, 0, 78, 40
1, 390884, Note_off_c, 0, 69, 54
1, 390894, Note_off_c, 0, 39, 63
1, 390894, Control_c, 0, 64, 127
1, 390897, Note_off_c, 0, 67, 63
1, 390903, Note_off_c, 0, 31, 60
1, 390911, Note_off_c, 0, 32, 49
1, 390915, Note_off_c, 0, 43, 61
1, 390918, Note_off_c, 0, 78, 33
1, 390923, Note_off_c, 0, 79, 61
1, 391443, Note_on_c, 0, 82, 107
1, 391445, Note_on_c, 0, 67, 98
1, 391446, Note_on_c, 0, 94, 90
1, 391449, Note_on_c, 0, 62, 87
1, 391451, Note_on_c, 0, 86, 92
1, 391453, Note_on_c, 0, 91, 85
1, 391455, Note_on_c, 0, 55, 80
1, 391483, Note_on_c, 0, 90, 38
1, 391498, Note_on_c, 0, 56, 31
1, 391499, Note_off_c, 0, 94, 64
1, 391511, Note_off_c, 0, 90, 36
1, 391514, Note_off_c, 0, 91, 65
1, 391520, Note_off_c, 0, 67, 61
1, 391523, Note_off_c, 0, 55, 61
1, 391524, Note_off_c, 0, 82, 62
1, 391529, Note_off_c, 0, 62, 58
1, 391532, Note_off_c, 0, 86, 66
1, 391536, Note_off_c, 0, 56, 50
1, 392065, Note_on_c, 0, 55, 101
1, 392068, Note_on_c, 0, 43, 98
1, 392073, Note_on_c, 0, 31, 88
1, 393607, Control_c, 0, 64, 89
1, 393622, Control_c, 0, 64, 61
1, 393625, Note_off_c, 0, 31, 62
1, 393630, Note_off_c, 0, 43, 65
1, 393637, Control_c, 0, 64, 0
1, 393639, Note_off_c, 0, 55, 67
1, 395780, Control_c, 0, 64, 16
1, 395795, Control_c, 0, 64, 24
1, 395810, Control_c, 0, 64, 28
1, 395825, Control_c, 0, 64, 30
1, 395839, Control_c, 0, 64, 31
1, 395854, Control_c, 0, 64, 32
1, 395869, Control_c, 0, 64, 34
1, 395884, Control_c, 0, 64, 36
1, 395899, Control_c, 0, 64, 37
1, 395914, Control_c, 0, 64, 39
1, 395928, Control_c, 0, 64, 40
1, 395943, Control_c, 0, 64, 42
1, 395958, Control_c, 0, 64, 43
1, 395973, Control_c, 0, 64, 44
1, 395988, Control_c, 0, 64, 45
1, 396002, Control_c, 0, 64, 46
1, 396017, Control_c, 0, 64, 46
1, 396032, Control_c, 0, 64, 48
1, 396046, Control_c, 0, 64, 48
1, 396061, Control_c, 0, 64, 49
1, 396076, Control_c, 0, 64, 50
1, 396091, Control_c, 0, 64, 50
1, 396106, Control_c, 0, 64, 51
1, 396135, Control_c, 0, 64, 52
1, 396150, Control_c, 0, 64, 52
1, 396343, Control_c, 0, 64, 52
1, 396358, Control_c, 0, 64, 51
1, 396372, Control_c, 0, 64, 50
1, 396387, Control_c, 0, 64, 47
1, 396402, Control_c, 0, 64, 32
1, 396417, Control_c, 0, 64, 0
1, 396417, End_track
0, 0, End_of_file
