0, 0, Header, 0, 1, 384
1, 0, Start_track
1, 0, Title_t, "Feux d'artifice--A. Arciglione  "
1, 0, Text_t, "2006 International Piano-e-Competition Recital Round"
1, 0, Text_t, "St. Paul, Minnesota, July 2006"
1, 0, Text_t, "http://www.piano-e-competition.com/"
1, 0, Instrument_name_t, "Yamaha Disklavier Pro Mark IV concert grand piano"
1, 0, Sequencer_specific, 39, 67, 113, 0, 1, 0, 1, 0, 70, 101, 117, 120, 32, 100, 39, 97, 114, 116, 105, 102, 105, 99, 101, 32, 65, 110, 103, 101, 108, 111, 65, 114, 99, 105, 103, 108, 105, 111, 110, 101
1, 0, Sequencer_specific, 6, 67, 113, 0, 0, 0, 69
1, 0, System_exclusive, 21, 67, 113, 126, 21, 0, 2, 2, 0, 10, 10, 12, 4, 4, 10, 12, 3, 11, 3, 12, 2, 247
1, 0, Sequencer_specific, 5, 67, 123, 12, 2, 1
1, 0, Tempo, 512820
1, 0, Time_signature, 4, 2, 24, 8
1, 0, System_exclusive, 5, 126, 127, 9, 1, 247
1, 1, System_exclusive, 8, 67, 16, 76, 0, 0, 126, 0, 247
1, 2, System_exclusive, 8, 67, 16, 76, 8, 9, 7, 1, 247
1, 3, Control_c, 0, 0, 0
1, 4, Control_c, 0, 32, 0
1, 5, Program_c, 0, 0
1, 6, Control_c, 0, 7, 100
1, 95, Control_c, 0, 64, 6
1, 184, Control_c, 0, 64, 13
1, 273, Control_c, 0, 64, 19
1, 362, Control_c, 0, 64, 27
1, 452, Control_c, 0, 64, 32
1, 541, Control_c, 0, 64, 40
1, 630, Control_c, 0, 64, 45
1, 719, Control_c, 0, 64, 55
1, 910, Note_on_c, 0, 65, 48
1, 910, Control_c, 0, 64, 62
1, 925, Control_c, 0, 64, 63
1, 940, Control_c, 0, 64, 65
1, 955, Control_c, 0, 64, 67
1, 969, Control_c, 0, 64, 70
1, 984, Control_c, 0, 64, 73
1, 986, Note_on_c, 0, 67, 36
1, 999, Control_c, 0, 64, 77
1, 1002, Note_off_c, 0, 65, 61
1, 1014, Control_c, 0, 64, 79
1, 1029, Control_c, 0, 64, 81
1, 1035, Note_off_c, 0, 67, 59
1, 1044, Control_c, 0, 64, 82
1, 1051, Note_on_c, 0, 69, 30
1, 1059, Control_c, 0, 64, 84
1, 1074, Control_c, 0, 64, 86
1, 1080, Note_on_c, 0, 70, 26
1, 1082, Note_off_c, 0, 69, 47
1, 1089, Control_c, 0, 64, 89
1, 1103, Control_c, 0, 64, 91
1, 1117, Note_off_c, 0, 70, 42
1, 1118, Control_c, 0, 64, 92
1, 1130, Note_on_c, 0, 68, 48
1, 1133, Control_c, 0, 64, 93
1, 1169, Note_off_c, 0, 68, 57
1, 1190, Note_on_c, 0, 66, 46
1, 1214, Note_off_c, 0, 66, 60
1, 1230, Control_c, 0, 64, 93
1, 1253, Note_on_c, 0, 65, 53
1, 1259, Control_c, 0, 64, 94
1, 1274, Control_c, 0, 64, 95
1, 1289, Control_c, 0, 64, 96
1, 1306, Note_off_c, 0, 65, 49
1, 1318, Control_c, 0, 64, 98
1, 1321, Note_on_c, 0, 67, 43
1, 1368, Note_off_c, 0, 67, 61
1, 1375, Note_on_c, 0, 69, 45
1, 1403, Note_off_c, 0, 69, 61
1, 1429, Note_on_c, 0, 70, 50
1, 1454, Note_off_c, 0, 70, 61
1, 1473, Note_on_c, 0, 68, 61
1, 1482, Control_c, 0, 64, 94
1, 1497, Control_c, 0, 64, 91
1, 1506, Note_off_c, 0, 68, 65
1, 1512, Control_c, 0, 64, 89
1, 1528, Note_on_c, 0, 66, 51
1, 1551, Note_off_c, 0, 66, 62
1, 1580, Note_on_c, 0, 65, 54
1, 1600, Control_c, 0, 64, 90
1, 1615, Control_c, 0, 64, 91
1, 1630, Control_c, 0, 64, 91
1, 1639, Note_off_c, 0, 65, 48
1, 1641, Note_on_c, 0, 67, 46
1, 1659, Control_c, 0, 64, 92
1, 1680, Note_off_c, 0, 67, 63
1, 1688, Note_on_c, 0, 69, 51
1, 1721, Note_off_c, 0, 69, 65
1, 1755, Note_on_c, 0, 70, 46
1, 1777, Control_c, 0, 64, 91
1, 1778, Note_off_c, 0, 70, 55
1, 1791, Note_on_c, 0, 68, 61
1, 1792, Control_c, 0, 64, 89
1, 1807, Control_c, 0, 64, 85
1, 1822, Note_off_c, 0, 68, 66
1, 1822, Control_c, 0, 64, 82
1, 1837, Control_c, 0, 64, 81
1, 1849, Note_on_c, 0, 66, 51
1, 1867, Control_c, 0, 64, 81
1, 1871, Note_off_c, 0, 66, 62
1, 1881, Control_c, 0, 64, 82
1, 1902, Note_on_c, 0, 65, 49
1, 1904, Control_c, 0, 64, 83
1, 1919, Control_c, 0, 64, 85
1, 1935, Control_c, 0, 64, 87
1, 1944, Note_off_c, 0, 65, 58
1, 1949, Note_on_c, 0, 67, 51
1, 1949, Control_c, 0, 64, 88
1, 1964, Control_c, 0, 64, 89
1, 1979, Control_c, 0, 64, 90
1, 1990, Note_off_c, 0, 67, 63
1, 2004, Note_on_c, 0, 69, 47
1, 2008, Control_c, 0, 64, 90
1, 2037, Note_off_c, 0, 69, 64
1, 2067, Note_on_c, 0, 70, 49
1, 2088, Note_off_c, 0, 70, 62
1, 2111, Note_on_c, 0, 68, 60
1, 2112, Control_c, 0, 64, 90
1, 2127, Control_c, 0, 64, 89
1, 2142, Control_c, 0, 64, 86
1, 2147, Note_off_c, 0, 68, 65
1, 2156, Control_c, 0, 64, 82
1, 2171, Note_on_c, 0, 66, 54
1, 2171, Control_c, 0, 64, 78
1, 2186, Control_c, 0, 64, 76
1, 2196, Note_off_c, 0, 66, 64
1, 2213, Note_on_c, 0, 65, 49
1, 2215, Control_c, 0, 64, 77
1, 2230, Control_c, 0, 64, 79
1, 2245, Control_c, 0, 64, 83
1, 2253, Note_on_c, 0, 67, 52
1, 2260, Control_c, 0, 64, 86
1, 2269, Note_off_c, 0, 65, 55
1, 2275, Control_c, 0, 64, 90
1, 2290, Control_c, 0, 64, 92
1, 2298, Note_off_c, 0, 67, 57
1, 2305, Control_c, 0, 64, 93
1, 2305, Note_on_c, 0, 69, 48
1, 2335, Control_c, 0, 64, 93
1, 2341, Note_off_c, 0, 69, 64
1, 2379, Control_c, 0, 64, 94
1, 2384, Note_on_c, 0, 70, 37
1, 2414, Note_off_c, 0, 70, 46
1, 2423, Note_on_c, 0, 68, 58
1, 2453, Control_c, 0, 64, 93
1, 2454, Note_off_c, 0, 68, 67
1, 2467, Control_c, 0, 64, 93
1, 2479, Note_on_c, 0, 66, 57
1, 2482, Control_c, 0, 64, 89
1, 2497, Control_c, 0, 64, 83
1, 2504, Note_off_c, 0, 66, 64
1, 2512, Control_c, 0, 64, 78
1, 2513, Note_on_c, 0, 65, 55
1, 2527, Control_c, 0, 64, 76
1, 2542, Control_c, 0, 64, 76
1, 2555, Note_on_c, 0, 67, 51
1, 2556, Control_c, 0, 64, 77
1, 2570, Note_off_c, 0, 65, 59
1, 2571, Control_c, 0, 64, 78
1, 2586, Control_c, 0, 64, 81
1, 2600, Control_c, 0, 64, 85
1, 2609, Note_on_c, 0, 69, 53
1, 2611, Note_off_c, 0, 67, 61
1, 2615, Control_c, 0, 64, 88
1, 2630, Control_c, 0, 64, 91
1, 2648, Note_off_c, 0, 69, 65
1, 2653, Control_c, 0, 64, 92
1, 2668, Control_c, 0, 64, 93
1, 2679, Note_on_c, 0, 70, 54
1, 2682, Control_c, 0, 64, 93
1, 2697, Control_c, 0, 64, 94
1, 2711, Note_off_c, 0, 70, 64
1, 2729, Note_on_c, 0, 68, 58
1, 2743, Control_c, 0, 64, 94
1, 2759, Note_off_c, 0, 68, 66
1, 2779, Note_on_c, 0, 66, 57
1, 2787, Control_c, 0, 64, 94
1, 2802, Control_c, 0, 64, 92
1, 2809, Note_off_c, 0, 66, 66
1, 2817, Control_c, 0, 64, 91
1, 2829, Note_on_c, 0, 65, 53
1, 2865, Note_on_c, 0, 67, 55
1, 2889, Note_off_c, 0, 65, 46
1, 2912, Note_off_c, 0, 67, 61
1, 2920, Note_on_c, 0, 69, 52
1, 2950, Note_off_c, 0, 69, 66
1, 2989, Note_on_c, 0, 70, 55
1, 3013, Note_off_c, 0, 70, 62
1, 3035, Note_on_c, 0, 68, 56
1, 3053, Control_c, 0, 64, 90
1, 3057, Note_off_c, 0, 68, 62
1, 3068, Control_c, 0, 64, 85
1, 3083, Control_c, 0, 64, 79
1, 3098, Control_c, 0, 64, 76
1, 3102, Note_on_c, 0, 66, 55
1, 3128, Note_off_c, 0, 66, 62
1, 3128, Control_c, 0, 64, 77
1, 3135, Note_on_c, 0, 65, 45
1, 3142, Control_c, 0, 64, 81
1, 3157, Control_c, 0, 64, 86
1, 3172, Note_on_c, 0, 67, 56
1, 3172, Control_c, 0, 64, 93
1, 3187, Control_c, 0, 64, 100
1, 3189, Note_off_c, 0, 65, 52
1, 3202, Control_c, 0, 64, 108
1, 3211, Note_off_c, 0, 67, 62
1, 3216, Control_c, 0, 64, 115
1, 3231, Control_c, 0, 64, 121
1, 3238, Note_on_c, 0, 69, 38
1, 3246, Control_c, 0, 64, 127
1, 3265, Note_off_c, 0, 69, 56
1, 3277, Note_on_c, 0, 70, 53
1, 3321, Note_off_c, 0, 70, 55
1, 3330, Note_on_c, 0, 68, 58
1, 3386, Note_off_c, 0, 68, 58
1, 3402, Control_c, 0, 64, 116
1, 3417, Note_on_c, 0, 66, 46
1, 3417, Control_c, 0, 64, 101
1, 3431, Control_c, 0, 64, 90
1, 3438, Note_off_c, 0, 66, 64
1, 3446, Control_c, 0, 64, 86
1, 3449, Note_on_c, 0, 86, 80
1, 3452, Note_on_c, 0, 74, 74
1, 3463, Note_on_c, 0, 65, 54
1, 3476, Note_off_c, 0, 74, 68
1, 3482, Note_off_c, 0, 86, 59
1, 3491, Control_c, 0, 64, 88
1, 3505, Control_c, 0, 64, 94
1, 3507, Note_off_c, 0, 65, 63
1, 3521, Control_c, 0, 64, 100
1, 3536, Control_c, 0, 64, 107
1, 3546, Note_on_c, 0, 69, 41
1, 3551, Control_c, 0, 64, 115
1, 3566, Control_c, 0, 64, 127
1, 3574, Note_off_c, 0, 69, 50
1, 3615, Note_on_c, 0, 70, 45
1, 3640, Note_off_c, 0, 70, 56
1, 3654, Note_on_c, 0, 68, 58
1, 3677, Note_off_c, 0, 68, 65
1, 3688, Note_on_c, 0, 66, 50
1, 3710, Note_off_c, 0, 66, 61
1, 3734, Note_on_c, 0, 65, 58
1, 3792, Note_on_c, 0, 67, 52
1, 3813, Note_off_c, 0, 65, 59
1, 3837, Note_off_c, 0, 67, 61
1, 3851, Note_on_c, 0, 69, 51
1, 3872, Note_off_c, 0, 69, 63
1, 3903, Note_on_c, 0, 70, 47
1, 3924, Note_off_c, 0, 70, 59
1, 3939, Note_on_c, 0, 68, 63
1, 3968, Note_off_c, 0, 68, 67
1, 3994, Note_on_c, 0, 66, 62
1, 4023, Note_off_c, 0, 66, 67
1, 4069, Control_c, 0, 64, 121
1, 4069, Note_on_c, 0, 65, 57
1, 4084, Control_c, 0, 64, 101
1, 4099, Control_c, 0, 64, 92
1, 4109, Note_on_c, 0, 67, 54
1, 4113, Control_c, 0, 64, 89
1, 4123, Note_off_c, 0, 65, 48
1, 4128, Control_c, 0, 64, 88
1, 4156, Note_off_c, 0, 67, 62
1, 4163, Note_on_c, 0, 69, 53
1, 4165, Control_c, 0, 64, 89
1, 4180, Control_c, 0, 64, 91
1, 4188, Note_off_c, 0, 69, 65
1, 4195, Control_c, 0, 64, 96
1, 4210, Control_c, 0, 64, 99
1, 4214, Note_on_c, 0, 70, 55
1, 4224, Control_c, 0, 64, 102
1, 4239, Note_off_c, 0, 70, 61
1, 4239, Control_c, 0, 64, 104
1, 4257, Note_on_c, 0, 68, 64
1, 4286, Note_off_c, 0, 68, 67
1, 4308, Note_on_c, 0, 66, 62
1, 4338, Note_off_c, 0, 66, 67
1, 4344, Control_c, 0, 64, 102
1, 4359, Control_c, 0, 64, 94
1, 4374, Control_c, 0, 64, 86
1, 4380, Note_on_c, 0, 65, 47
1, 4388, Control_c, 0, 64, 80
1, 4415, Note_on_c, 0, 67, 55
1, 4418, Control_c, 0, 64, 80
1, 4428, Note_off_c, 0, 65, 62
1, 4433, Control_c, 0, 64, 82
1, 4448, Control_c, 0, 64, 87
1, 4451, Note_off_c, 0, 67, 66
1, 4463, Control_c, 0, 64, 91
1, 4463, Note_on_c, 0, 69, 57
1, 4477, Control_c, 0, 64, 96
1, 4482, Note_off_c, 0, 69, 62
1, 4492, Control_c, 0, 64, 101
1, 4502, Note_on_c, 0, 70, 57
1, 4522, Control_c, 0, 64, 103
1, 4546, Note_off_c, 0, 70, 59
1, 4548, Note_on_c, 0, 68, 64
1, 4598, Note_off_c, 0, 68, 55
1, 4669, Control_c, 0, 64, 97
1, 4684, Control_c, 0, 64, 86
1, 4692, Note_on_c, 0, 92, 85
1, 4693, Note_on_c, 0, 80, 73
1, 4694, Note_on_c, 0, 65, 47
1, 4699, Control_c, 0, 64, 76
1, 4713, Control_c, 0, 64, 70
1, 4719, Note_off_c, 0, 80, 65
1, 4720, Note_off_c, 0, 92, 64
1, 4728, Control_c, 0, 64, 68
1, 4731, Note_off_c, 0, 65, 59
1, 4743, Control_c, 0, 64, 69
1, 4758, Control_c, 0, 64, 72
1, 4760, Note_on_c, 0, 69, 54
1, 4773, Control_c, 0, 64, 76
1, 4785, Note_off_c, 0, 69, 64
1, 4788, Control_c, 0, 64, 82
1, 4803, Control_c, 0, 64, 87
1, 4818, Control_c, 0, 64, 91
1, 4833, Control_c, 0, 64, 93
1, 4846, Note_on_c, 0, 70, 30
1, 4847, Control_c, 0, 64, 95
1, 4862, Control_c, 0, 64, 98
1, 4877, Control_c, 0, 64, 101
1, 4890, Note_on_c, 0, 68, 65
1, 4892, Note_off_c, 0, 70, 43
1, 4899, Control_c, 0, 64, 105
1, 4914, Control_c, 0, 64, 109
1, 4919, Note_off_c, 0, 68, 66
1, 4928, Control_c, 0, 64, 111
1, 4933, Note_on_c, 0, 66, 57
1, 4958, Control_c, 0, 64, 114
1, 4959, Note_off_c, 0, 66, 64
1, 5020, Note_on_c, 0, 65, 52
1, 5047, Control_c, 0, 64, 112
1, 5048, Note_on_c, 0, 67, 52
1, 5062, Control_c, 0, 64, 102
1, 5071, Note_off_c, 0, 65, 61
1, 5077, Control_c, 0, 64, 92
1, 5092, Control_c, 0, 64, 84
1, 5096, Note_off_c, 0, 67, 59
1, 5107, Note_on_c, 0, 69, 49
1, 5107, Control_c, 0, 64, 81
1, 5122, Control_c, 0, 64, 80
1, 5131, Note_off_c, 0, 69, 63
1, 5137, Control_c, 0, 64, 81
1, 5152, Control_c, 0, 64, 82
1, 5165, Note_on_c, 0, 70, 50
1, 5166, Control_c, 0, 64, 84
1, 5181, Control_c, 0, 64, 86
1, 5186, Note_off_c, 0, 70, 60
1, 5196, Control_c, 0, 64, 89
1, 5201, Note_on_c, 0, 68, 64
1, 5211, Control_c, 0, 64, 91
1, 5222, Note_off_c, 0, 68, 66
1, 5226, Control_c, 0, 64, 91
1, 5241, Control_c, 0, 64, 92
1, 5248, Note_on_c, 0, 66, 61
1, 5271, Control_c, 0, 64, 92
1, 5278, Note_off_c, 0, 66, 65
1, 5323, Note_on_c, 0, 65, 61
1, 5330, Control_c, 0, 64, 90
1, 5344, Control_c, 0, 64, 85
1, 5359, Control_c, 0, 64, 79
1, 5366, Note_on_c, 0, 67, 53
1, 5367, Note_off_c, 0, 65, 55
1, 5374, Control_c, 0, 64, 74
1, 5389, Control_c, 0, 64, 71
1, 5408, Note_off_c, 0, 67, 62
1, 5414, Note_on_c, 0, 69, 55
1, 5418, Control_c, 0, 64, 73
1, 5433, Control_c, 0, 64, 75
1, 5443, Note_off_c, 0, 69, 66
1, 5448, Control_c, 0, 64, 78
1, 5463, Control_c, 0, 64, 81
1, 5464, Note_on_c, 0, 70, 57
1, 5478, Control_c, 0, 64, 83
1, 5492, Control_c, 0, 64, 86
1, 5494, Note_off_c, 0, 70, 66
1, 5507, Note_on_c, 0, 68, 66
1, 5507, Control_c, 0, 64, 87
1, 5522, Control_c, 0, 64, 89
1, 5536, Note_off_c, 0, 68, 66
1, 5536, Control_c, 0, 64, 90
1, 5551, Control_c, 0, 64, 91
1, 5563, Note_on_c, 0, 66, 57
1, 5566, Control_c, 0, 64, 92
1, 5584, Note_off_c, 0, 66, 64
1, 5596, Control_c, 0, 64, 91
1, 5611, Control_c, 0, 64, 87
1, 5625, Control_c, 0, 64, 80
1, 5631, Note_on_c, 0, 65, 54
1, 5648, Control_c, 0, 64, 73
1, 5663, Control_c, 0, 64, 69
1, 5679, Note_on_c, 0, 67, 55
1, 5692, Control_c, 0, 64, 71
1, 5693, Note_off_c, 0, 65, 62
1, 5707, Control_c, 0, 64, 76
1, 5709, Note_off_c, 0, 67, 65
1, 5722, Control_c, 0, 64, 82
1, 5737, Control_c, 0, 64, 88
1, 5738, Note_on_c, 0, 69, 41
1, 5746, Note_on_c, 0, 70, 46
1, 5751, Control_c, 0, 64, 96
1, 5761, Note_off_c, 0, 69, 58
1, 5766, Control_c, 0, 64, 101
1, 5782, Control_c, 0, 64, 105
1, 5797, Control_c, 0, 64, 108
1, 5799, Note_on_c, 0, 68, 62
1, 5804, Note_off_c, 0, 70, 53
1, 5826, Control_c, 0, 64, 110
1, 5846, Note_off_c, 0, 68, 55
1, 5873, Note_on_c, 0, 66, 39
1, 5900, Control_c, 0, 64, 105
1, 5903, Note_off_c, 0, 66, 54
1, 5916, Control_c, 0, 64, 95
1, 5931, Control_c, 0, 64, 86
1, 5944, Note_on_c, 0, 65, 51
1, 5946, Control_c, 0, 64, 80
1, 5956, Note_on_c, 0, 98, 85
1, 5957, Note_on_c, 0, 86, 71
1, 5960, Control_c, 0, 64, 79
1, 5975, Control_c, 0, 64, 80
1, 5980, Note_off_c, 0, 86, 68
1, 5982, Note_off_c, 0, 65, 66
1, 5990, Control_c, 0, 64, 83
1, 5992, Note_off_c, 0, 98, 63
1, 6004, Note_on_c, 0, 69, 52
1, 6005, Control_c, 0, 64, 88
1, 6020, Control_c, 0, 64, 93
1, 6025, Note_off_c, 0, 69, 62
1, 6034, Control_c, 0, 64, 99
1, 6049, Control_c, 0, 64, 104
1, 6064, Control_c, 0, 64, 108
1, 6079, Control_c, 0, 64, 111
1, 6085, Note_on_c, 0, 70, 52
1, 6094, Control_c, 0, 64, 115
1, 6108, Note_off_c, 0, 70, 60
1, 6109, Control_c, 0, 64, 117
1, 6123, Control_c, 0, 64, 121
1, 6132, Note_on_c, 0, 68, 58
1, 6138, Control_c, 0, 64, 126
1, 6151, Note_off_c, 0, 68, 66
1, 6160, Note_on_c, 0, 66, 57
1, 6192, Note_off_c, 0, 66, 64
1, 6242, Control_c, 0, 64, 122
1, 6246, Note_on_c, 0, 65, 56
1, 6257, Control_c, 0, 64, 108
1, 6272, Control_c, 0, 64, 95
1, 6280, Note_off_c, 0, 65, 66
1, 6283, Note_on_c, 0, 67, 56
1, 6287, Control_c, 0, 64, 83
1, 6301, Control_c, 0, 64, 76
1, 6316, Control_c, 0, 64, 72
1, 6331, Control_c, 0, 64, 72
1, 6332, Note_off_c, 0, 67, 63
1, 6336, Note_on_c, 0, 69, 51
1, 6346, Control_c, 0, 64, 74
1, 6359, Note_off_c, 0, 69, 64
1, 6360, Control_c, 0, 64, 77
1, 6372, Note_on_c, 0, 70, 56
1, 6375, Control_c, 0, 64, 82
1, 6398, Control_c, 0, 64, 87
1, 6411, Note_off_c, 0, 70, 65
1, 6412, Control_c, 0, 64, 91
1, 6418, Note_on_c, 0, 68, 69
1, 6427, Control_c, 0, 64, 95
1, 6442, Control_c, 0, 64, 99
1, 6454, Note_off_c, 0, 68, 62
1, 6457, Control_c, 0, 64, 101
1, 6472, Control_c, 0, 64, 104
1, 6481, Note_on_c, 0, 66, 60
1, 6487, Control_c, 0, 64, 106
1, 6501, Note_off_c, 0, 66, 64
1, 6501, Control_c, 0, 64, 108
1, 6531, Control_c, 0, 64, 111
1, 6559, Note_on_c, 0, 65, 61
1, 6592, Note_off_c, 0, 65, 66
1, 6603, Note_on_c, 0, 67, 62
1, 6605, Control_c, 0, 64, 106
1, 6620, Control_c, 0, 64, 96
1, 6635, Control_c, 0, 64, 87
1, 6649, Control_c, 0, 64, 81
1, 6656, Note_on_c, 0, 69, 54
1, 6656, Note_off_c, 0, 67, 64
1, 6664, Control_c, 0, 64, 78
1, 6681, Note_on_c, 0, 70, 62
1, 6684, Note_off_c, 0, 69, 64
1, 6693, Control_c, 0, 64, 80
1, 6708, Control_c, 0, 64, 82
1, 6711, Note_off_c, 0, 70, 64
1, 6721, Note_on_c, 0, 68, 70
1, 6725, Control_c, 0, 64, 86
1, 6739, Control_c, 0, 64, 90
1, 6754, Note_off_c, 0, 68, 62
1, 6754, Control_c, 0, 64, 94
1, 6769, Control_c, 0, 64, 97
1, 6778, Note_on_c, 0, 66, 61
1, 6784, Control_c, 0, 64, 101
1, 6798, Control_c, 0, 64, 103
1, 6809, Note_off_c, 0, 66, 64
1, 6858, Control_c, 0, 64, 94
1, 6863, Note_on_c, 0, 65, 57
1, 6872, Control_c, 0, 64, 85
1, 6887, Control_c, 0, 64, 77
1, 6896, Note_on_c, 0, 67, 58
1, 6898, Note_off_c, 0, 65, 66
1, 6902, Control_c, 0, 64, 74
1, 6916, Control_c, 0, 64, 74
1, 6931, Note_off_c, 0, 67, 66
1, 6931, Control_c, 0, 64, 77
1, 6945, Note_on_c, 0, 69, 63
1, 6946, Control_c, 0, 64, 81
1, 6961, Control_c, 0, 64, 87
1, 6962, Note_off_c, 0, 69, 64
1, 6970, Note_on_c, 0, 70, 58
1, 6976, Control_c, 0, 64, 94
1, 6991, Control_c, 0, 64, 99
1, 7006, Control_c, 0, 64, 103
1, 7012, Note_off_c, 0, 70, 59
1, 7013, Note_on_c, 0, 68, 67
1, 7035, Control_c, 0, 64, 105
1, 7059, Note_off_c, 0, 68, 61
1, 7082, Note_on_c, 0, 66, 49
1, 7113, Note_off_c, 0, 66, 57
1, 7146, Control_c, 0, 64, 100
1, 7161, Control_c, 0, 64, 88
1, 7167, Note_on_c, 0, 65, 56
1, 7176, Control_c, 0, 64, 76
1, 7179, Note_on_c, 0, 80, 74
1, 7179, Note_on_c, 0, 92, 81
1, 7191, Control_c, 0, 64, 67
1, 7204, Note_off_c, 0, 80, 66
1, 7205, Control_c, 0, 64, 66
1, 7209, Note_off_c, 0, 65, 65
1, 7213, Note_off_c, 0, 92, 62
1, 7220, Control_c, 0, 64, 68
1, 7235, Control_c, 0, 64, 73
1, 7250, Control_c, 0, 64, 81
1, 7256, Note_on_c, 0, 69, 26
1, 7265, Control_c, 0, 64, 91
1, 7280, Control_c, 0, 64, 105
1, 7289, Note_off_c, 0, 69, 53
1, 7295, Control_c, 0, 64, 117
1, 7307, Note_on_c, 0, 70, 51
1, 7310, Control_c, 0, 64, 127
1, 7331, Note_off_c, 0, 70, 57
1, 7354, Note_on_c, 0, 68, 62
1, 7375, Note_off_c, 0, 68, 65
1, 7387, Note_on_c, 0, 66, 47
1, 7411, Note_off_c, 0, 66, 59
1, 7483, Note_on_c, 0, 65, 56
1, 7502, Control_c, 0, 64, 101
1, 7518, Control_c, 0, 64, 89
1, 7519, Note_off_c, 0, 65, 65
1, 7526, Note_on_c, 0, 67, 51
1, 7533, Control_c, 0, 64, 80
1, 7547, Control_c, 0, 64, 75
1, 7560, Note_off_c, 0, 67, 66
1, 7562, Control_c, 0, 64, 75
1, 7571, Note_on_c, 0, 69, 53
1, 7577, Control_c, 0, 64, 76
1, 7592, Control_c, 0, 64, 79
1, 7596, Note_off_c, 0, 69, 64
1, 7603, Note_on_c, 0, 70, 52
1, 7607, Control_c, 0, 64, 83
1, 7621, Control_c, 0, 64, 87
1, 7629, Note_off_c, 0, 70, 62
1, 7636, Control_c, 0, 64, 92
1, 7641, Note_on_c, 0, 68, 66
1, 7651, Control_c, 0, 64, 96
1, 7666, Control_c, 0, 64, 100
1, 7674, Note_off_c, 0, 68, 63
1, 7681, Control_c, 0, 64, 104
1, 7695, Control_c, 0, 64, 107
1, 7702, Note_on_c, 0, 66, 55
1, 7723, Note_off_c, 0, 66, 63
1, 7725, Control_c, 0, 64, 109
1, 7769, Control_c, 0, 64, 103
1, 7784, Control_c, 0, 64, 93
1, 7795, Note_on_c, 0, 65, 57
1, 7799, Control_c, 0, 64, 86
1, 7813, Control_c, 0, 64, 83
1, 7828, Note_off_c, 0, 65, 66
1, 7837, Note_on_c, 0, 67, 56
1, 7843, Control_c, 0, 64, 84
1, 7858, Control_c, 0, 64, 86
1, 7868, Note_on_c, 0, 69, 59
1, 7873, Note_off_c, 0, 67, 60
1, 7873, Control_c, 0, 64, 91
1, 7895, Control_c, 0, 64, 96
1, 7904, Note_off_c, 0, 69, 66
1, 7910, Control_c, 0, 64, 101
1, 7925, Control_c, 0, 64, 104
1, 7929, Note_on_c, 0, 70, 53
1, 7955, Note_off_c, 0, 70, 58
1, 7964, Note_on_c, 0, 68, 64
1, 7992, Note_off_c, 0, 68, 65
1, 8028, Control_c, 0, 64, 100
1, 8033, Note_on_c, 0, 66, 56
1, 8043, Control_c, 0, 64, 91
1, 8058, Note_off_c, 0, 66, 62
1, 8058, Control_c, 0, 64, 82
1, 8073, Control_c, 0, 64, 77
1, 8088, Control_c, 0, 64, 77
1, 8103, Control_c, 0, 64, 79
1, 8103, Note_on_c, 0, 65, 51
1, 8118, Control_c, 0, 64, 84
1, 8132, Control_c, 0, 64, 93
1, 8141, Note_off_c, 0, 65, 65
1, 8147, Control_c, 0, 64, 108
1, 8162, Control_c, 0, 64, 127
1, 8162, Note_on_c, 0, 69, 63
1, 8168, Note_on_c, 0, 67, 52
1, 8189, Note_off_c, 0, 67, 66
1, 8192, Note_off_c, 0, 69, 66
1, 8234, Note_on_c, 0, 70, 54
1, 8276, Note_on_c, 0, 68, 63
1, 8277, Note_off_c, 0, 70, 55
1, 8333, Note_off_c, 0, 68, 61
1, 8358, Note_on_c, 0, 66, 43
1, 8380, Note_off_c, 0, 66, 61
1, 8400, Control_c, 0, 64, 88
1, 8415, Control_c, 0, 64, 72
1, 8416, Note_on_c, 0, 62, 88
1, 8419, Note_on_c, 0, 65, 62
1, 8423, Note_on_c, 0, 60, 83
1, 8430, Control_c, 0, 64, 65
1, 8444, Control_c, 0, 64, 66
1, 8454, Note_off_c, 0, 65, 65
1, 8459, Control_c, 0, 64, 73
1, 8463, Note_on_c, 0, 67, 57
1, 8463, Note_off_c, 0, 62, 66
1, 8466, Note_off_c, 0, 60, 63
1, 8474, Control_c, 0, 64, 94
1, 8486, Note_off_c, 0, 67, 65
1, 8489, Control_c, 0, 64, 127
1, 8499, Note_on_c, 0, 69, 49
1, 8519, Note_off_c, 0, 69, 64
1, 8553, Note_on_c, 0, 70, 67
1, 8615, Note_on_c, 0, 68, 63
1, 8617, Note_off_c, 0, 70, 62
1, 8661, Note_off_c, 0, 68, 62
1, 8668, Note_on_c, 0, 66, 49
1, 8688, Control_c, 0, 64, 104
1, 8702, Note_off_c, 0, 66, 66
1, 8703, Control_c, 0, 64, 89
1, 8718, Control_c, 0, 64, 87
1, 8733, Control_c, 0, 64, 89
1, 8736, Note_on_c, 0, 65, 54
1, 8748, Control_c, 0, 64, 99
1, 8762, Control_c, 0, 64, 127
1, 8772, Note_off_c, 0, 65, 65
1, 8781, Note_on_c, 0, 67, 57
1, 8818, Note_on_c, 0, 69, 65
1, 8819, Note_off_c, 0, 67, 65
1, 8845, Note_off_c, 0, 69, 66
1, 8889, Note_on_c, 0, 70, 70
1, 8943, Note_off_c, 0, 70, 61
1, 8949, Note_on_c, 0, 68, 58
1, 8967, Note_on_c, 0, 66, 39
1, 8970, Note_off_c, 0, 68, 61
1, 9030, Control_c, 0, 64, 85
1, 9044, Control_c, 0, 64, 67
1, 9051, Note_on_c, 0, 32, 87
1, 9051, Note_off_c, 0, 66, 40
1, 9059, Control_c, 0, 64, 56
1, 9074, Control_c, 0, 64, 58
1, 9088, Control_c, 0, 64, 63
1, 9094, Note_off_c, 0, 32, 63
1, 9103, Control_c, 0, 64, 69
1, 9119, Control_c, 0, 64, 80
1, 9132, Note_on_c, 0, 70, 48
1, 9134, Control_c, 0, 64, 95
1, 9149, Control_c, 0, 64, 109
1, 9164, Control_c, 0, 64, 114
1, 9179, Control_c, 0, 64, 116
1, 9189, Note_off_c, 0, 70, 56
1, 9196, Note_on_c, 0, 68, 61
1, 9241, Note_off_c, 0, 68, 56
1, 9266, Note_on_c, 0, 66, 48
1, 9297, Control_c, 0, 64, 106
1, 9308, Note_off_c, 0, 66, 63
1, 9311, Control_c, 0, 64, 94
1, 9326, Control_c, 0, 64, 84
1, 9341, Control_c, 0, 64, 77
1, 9354, Note_on_c, 0, 65, 34
1, 9356, Control_c, 0, 64, 74
1, 9371, Control_c, 0, 64, 73
1, 9393, Control_c, 0, 64, 75
1, 9393, Note_off_c, 0, 65, 50
1, 9408, Control_c, 0, 64, 77
1, 9409, Note_on_c, 0, 67, 45
1, 9423, Control_c, 0, 64, 80
1, 9434, Note_on_c, 0, 69, 57
1, 9435, Note_off_c, 0, 67, 57
1, 9438, Control_c, 0, 64, 83
1, 9453, Control_c, 0, 64, 84
1, 9462, Note_off_c, 0, 69, 63
1, 9467, Control_c, 0, 64, 85
1, 9482, Control_c, 0, 64, 86
1, 9497, Control_c, 0, 64, 87
1, 9511, Control_c, 0, 64, 87
1, 9518, Note_on_c, 0, 70, 54
1, 9526, Control_c, 0, 64, 88
1, 9541, Control_c, 0, 64, 88
1, 9556, Control_c, 0, 64, 89
1, 9571, Control_c, 0, 64, 90
1, 9574, Note_off_c, 0, 70, 52
1, 9599, Note_on_c, 0, 68, 40
1, 9628, Note_on_c, 0, 66, 41
1, 9647, Note_off_c, 0, 68, 44
1, 9661, Note_off_c, 0, 66, 62
1, 9674, Control_c, 0, 64, 87
1, 9689, Control_c, 0, 64, 80
1, 9704, Control_c, 0, 64, 72
1, 9713, Note_on_c, 0, 65, 28
1, 9718, Note_on_c, 0, 98, 73
1, 9718, Control_c, 0, 64, 65
1, 9732, Note_on_c, 0, 86, 55
1, 9733, Control_c, 0, 64, 62
1, 9746, Note_off_c, 0, 65, 44
1, 9746, Note_off_c, 0, 98, 66
1, 9748, Control_c, 0, 64, 63
1, 9755, Note_off_c, 0, 86, 64
1, 9757, Note_on_c, 0, 67, 31
1, 9763, Control_c, 0, 64, 67
1, 9769, Note_on_c, 0, 69, 52
1, 9778, Control_c, 0, 64, 73
1, 9787, Note_off_c, 0, 67, 47
1, 9793, Control_c, 0, 64, 81
1, 9800, Note_off_c, 0, 69, 66
1, 9808, Control_c, 0, 64, 89
1, 9823, Control_c, 0, 64, 95
1, 9837, Control_c, 0, 64, 98
1, 9844, Note_on_c, 0, 70, 47
1, 9867, Note_off_c, 0, 70, 60
1, 9867, Control_c, 0, 64, 101
1, 9903, Note_on_c, 0, 68, 46
1, 9912, Control_c, 0, 64, 103
1, 9923, Note_on_c, 0, 66, 44
1, 9928, Note_off_c, 0, 68, 55
1, 9947, Note_off_c, 0, 66, 50
1, 10016, Control_c, 0, 64, 94
1, 10025, Note_on_c, 0, 65, 53
1, 10031, Control_c, 0, 64, 82
1, 10046, Control_c, 0, 64, 73
1, 10058, Note_on_c, 0, 67, 53
1, 10061, Control_c, 0, 64, 66
1, 10064, Note_off_c, 0, 65, 57
1, 10076, Control_c, 0, 64, 65
1, 10090, Control_c, 0, 64, 67
1, 10100, Note_off_c, 0, 67, 63
1, 10105, Control_c, 0, 64, 71
1, 10108, Note_on_c, 0, 69, 52
1, 10120, Control_c, 0, 64, 76
1, 10127, Note_on_c, 0, 70, 58
1, 10140, Note_off_c, 0, 69, 63
1, 10142, Control_c, 0, 64, 83
1, 10156, Control_c, 0, 64, 89
1, 10168, Note_off_c, 0, 70, 64
1, 10171, Control_c, 0, 64, 92
1, 10177, Note_on_c, 0, 68, 67
1, 10186, Control_c, 0, 64, 95
1, 10209, Note_off_c, 0, 68, 66
1, 10216, Control_c, 0, 64, 97
1, 10225, Note_on_c, 0, 66, 67
1, 10252, Note_off_c, 0, 66, 67
1, 10290, Control_c, 0, 64, 93
1, 10305, Control_c, 0, 64, 83
1, 10308, Note_on_c, 0, 65, 62
1, 10320, Control_c, 0, 64, 72
1, 10334, Control_c, 0, 64, 63
1, 10349, Control_c, 0, 64, 59
1, 10353, Note_on_c, 0, 67, 63
1, 10356, Note_off_c, 0, 65, 62
1, 10364, Control_c, 0, 64, 62
1, 10379, Control_c, 0, 64, 68
1, 10394, Control_c, 0, 64, 77
1, 10396, Note_off_c, 0, 67, 64
1, 10401, Note_on_c, 0, 69, 61
1, 10408, Control_c, 0, 64, 90
1, 10421, Note_on_c, 0, 70, 67
1, 10423, Control_c, 0, 64, 104
1, 10425, Note_off_c, 0, 69, 68
1, 10438, Control_c, 0, 64, 113
1, 10453, Control_c, 0, 64, 121
1, 10458, Note_off_c, 0, 70, 61
1, 10467, Note_on_c, 0, 68, 71
1, 10467, Control_c, 0, 64, 127
1, 10489, Note_off_c, 0, 68, 69
1, 10513, Note_on_c, 0, 66, 66
1, 10536, Note_off_c, 0, 66, 69
1, 10541, Control_c, 0, 64, 104
1, 10556, Control_c, 0, 64, 84
1, 10571, Control_c, 0, 64, 67
1, 10586, Control_c, 0, 64, 60
1, 10596, Note_on_c, 0, 65, 59
1, 10601, Control_c, 0, 64, 62
1, 10616, Control_c, 0, 64, 66
1, 10630, Control_c, 0, 64, 74
1, 10631, Note_on_c, 0, 67, 62
1, 10638, Note_off_c, 0, 65, 59
1, 10645, Control_c, 0, 64, 88
1, 10660, Control_c, 0, 64, 111
1, 10671, Note_on_c, 0, 69, 63
1, 10673, Note_off_c, 0, 67, 63
1, 10675, Control_c, 0, 64, 127
1, 10696, Note_off_c, 0, 69, 69
1, 10706, Note_on_c, 0, 70, 61
1, 10756, Note_on_c, 0, 68, 69
1, 10762, Note_off_c, 0, 70, 56
1, 10812, Note_off_c, 0, 68, 61
1, 10839, Control_c, 0, 64, 98
1, 10841, Note_on_c, 0, 66, 37
1, 10854, Control_c, 0, 64, 74
1, 10864, Note_off_c, 0, 66, 50
1, 10869, Control_c, 0, 64, 54
1, 10887, Note_on_c, 0, 65, 55
1, 10888, Note_on_c, 0, 62, 91
1, 10890, Control_c, 0, 64, 45
1, 10896, Note_on_c, 0, 60, 88
1, 10905, Control_c, 0, 64, 55
1, 10919, Note_off_c, 0, 60, 70
1, 10920, Control_c, 0, 64, 66
1, 10923, Note_off_c, 0, 65, 66
1, 10929, Note_off_c, 0, 62, 67
1, 10935, Control_c, 0, 64, 83
1, 10939, Note_on_c, 0, 67, 56
1, 10950, Control_c, 0, 64, 127
1, 10959, Note_off_c, 0, 67, 63
1, 10967, Note_on_c, 0, 69, 53
1, 10988, Note_off_c, 0, 69, 62
1, 11028, Note_on_c, 0, 70, 63
1, 11085, Note_on_c, 0, 68, 63
1, 11085, Note_off_c, 0, 70, 60
1, 11112, Note_off_c, 0, 68, 68
1, 11120, Note_on_c, 0, 66, 57
1, 11143, Control_c, 0, 64, 94
1, 11155, Note_off_c, 0, 66, 65
1, 11158, Control_c, 0, 64, 79
1, 11173, Control_c, 0, 64, 73
1, 11181, Note_on_c, 0, 65, 59
1, 11188, Control_c, 0, 64, 75
1, 11203, Control_c, 0, 64, 84
1, 11218, Control_c, 0, 64, 96
1, 11227, Note_off_c, 0, 65, 63
1, 11231, Note_on_c, 0, 67, 64
1, 11232, Control_c, 0, 64, 127
1, 11266, Note_off_c, 0, 67, 60
1, 11269, Note_on_c, 0, 69, 72
1, 11313, Note_off_c, 0, 69, 59
1, 11354, Note_on_c, 0, 70, 72
1, 11397, Note_on_c, 0, 68, 73
1, 11406, Note_off_c, 0, 70, 63
1, 11412, Note_on_c, 0, 66, 58
1, 11447, Note_off_c, 0, 68, 57
1, 11483, Control_c, 0, 64, 101
1, 11498, Control_c, 0, 64, 75
1, 11514, Control_c, 0, 64, 61
1, 11529, Control_c, 0, 64, 52
1, 11531, Note_on_c, 0, 32, 89
1, 11544, Control_c, 0, 64, 56
1, 11559, Control_c, 0, 64, 64
1, 11567, Note_off_c, 0, 66, 35
1, 11574, Control_c, 0, 64, 74
1, 11577, Note_off_c, 0, 32, 62
1, 11588, Control_c, 0, 64, 90
1, 11603, Control_c, 0, 64, 127
1, 11614, Note_on_c, 0, 70, 57
1, 11662, Note_off_c, 0, 70, 60
1, 11687, Note_on_c, 0, 68, 63
1, 11724, Note_off_c, 0, 68, 62
1, 11752, Note_on_c, 0, 66, 40
1, 11773, Control_c, 0, 64, 121
1, 11779, Note_off_c, 0, 66, 58
1, 11787, Control_c, 0, 64, 91
1, 11802, Control_c, 0, 64, 76
1, 11815, Note_on_c, 0, 65, 48
1, 11817, Control_c, 0, 64, 66
1, 11832, Control_c, 0, 64, 61
1, 11847, Control_c, 0, 64, 63
1, 11848, Note_off_c, 0, 65, 65
1, 11855, Note_on_c, 0, 67, 61
1, 11862, Control_c, 0, 64, 67
1, 11876, Control_c, 0, 64, 72
1, 11884, Note_off_c, 0, 67, 66
1, 11891, Control_c, 0, 64, 78
1, 11904, Note_on_c, 0, 69, 50
1, 11906, Control_c, 0, 64, 85
1, 11921, Control_c, 0, 64, 89
1, 11926, Note_off_c, 0, 69, 61
1, 11936, Control_c, 0, 64, 91
1, 11951, Control_c, 0, 64, 92
1, 11966, Control_c, 0, 64, 92
1, 11975, Note_on_c, 0, 70, 58
1, 11995, Control_c, 0, 64, 93
1, 12010, Control_c, 0, 64, 93
1, 12025, Control_c, 0, 64, 94
1, 12034, Note_off_c, 0, 70, 51
1, 12039, Control_c, 0, 64, 94
1, 12051, Note_on_c, 0, 68, 46
1, 12054, Control_c, 0, 64, 95
1, 12081, Note_on_c, 0, 66, 43
1, 12083, Note_off_c, 0, 68, 58
1, 12084, Control_c, 0, 64, 94
1, 12099, Control_c, 0, 64, 89
1, 12110, Note_off_c, 0, 66, 56
1, 12113, Control_c, 0, 64, 80
1, 12128, Control_c, 0, 64, 72
1, 12140, Note_on_c, 0, 65, 44
1, 12143, Control_c, 0, 64, 68
1, 12155, Note_on_c, 0, 98, 74
1, 12158, Control_c, 0, 64, 70
1, 12165, Note_on_c, 0, 86, 61
1, 12167, Note_off_c, 0, 65, 61
1, 12173, Control_c, 0, 64, 75
1, 12181, Note_off_c, 0, 98, 67
1, 12186, Note_on_c, 0, 96, 24
1, 12187, Control_c, 0, 64, 82
1, 12192, Note_off_c, 0, 86, 67
1, 12193, Note_on_c, 0, 67, 37
1, 12202, Control_c, 0, 64, 92
1, 12213, Note_on_c, 0, 69, 56
1, 12217, Control_c, 0, 64, 105
1, 12218, Note_off_c, 0, 67, 58
1, 12225, Note_off_c, 0, 96, 48
1, 12231, Control_c, 0, 64, 127
1, 12235, Note_off_c, 0, 69, 62
1, 12268, Note_on_c, 0, 70, 58
1, 12293, Note_off_c, 0, 70, 60
1, 12328, Note_on_c, 0, 68, 59
1, 12348, Note_on_c, 0, 66, 49
1, 12348, Note_off_c, 0, 68, 64
1, 12371, Note_off_c, 0, 66, 61
1, 12418, Control_c, 0, 64, 107
1, 12433, Control_c, 0, 64, 87
1, 12445, Note_on_c, 0, 65, 58
1, 12448, Control_c, 0, 64, 73
1, 12462, Control_c, 0, 64, 62
1, 12477, Control_c, 0, 64, 60
1, 12492, Control_c, 0, 64, 63
1, 12498, Note_off_c, 0, 65, 53
1, 12499, Note_on_c, 0, 67, 49
1, 12507, Control_c, 0, 64, 67
1, 12522, Control_c, 0, 64, 74
1, 12535, Note_off_c, 0, 67, 66
1, 12536, Control_c, 0, 64, 86
1, 12544, Note_on_c, 0, 69, 49
1, 12551, Control_c, 0, 64, 101
1, 12564, Note_on_c, 0, 70, 58
1, 12566, Note_off_c, 0, 69, 63
1, 12566, Control_c, 0, 64, 114
1, 12581, Control_c, 0, 64, 117
1, 12590, Note_off_c, 0, 70, 58
1, 12614, Note_on_c, 0, 68, 54
1, 12635, Note_off_c, 0, 68, 62
1, 12654, Note_on_c, 0, 66, 59
1, 12680, Note_off_c, 0, 66, 64
1, 12729, Control_c, 0, 64, 114
1, 12744, Control_c, 0, 64, 98
1, 12752, Note_on_c, 0, 65, 61
1, 12759, Control_c, 0, 64, 81
1, 12774, Control_c, 0, 64, 69
1, 12789, Control_c, 0, 64, 62
1, 12798, Note_off_c, 0, 65, 57
1, 12804, Note_on_c, 0, 67, 46
1, 12818, Control_c, 0, 64, 65
1, 12833, Control_c, 0, 64, 68
1, 12842, Note_off_c, 0, 67, 65
1, 12847, Note_on_c, 0, 69, 49
1, 12848, Control_c, 0, 64, 73
1, 12859, Note_on_c, 0, 70, 54
1, 12862, Control_c, 0, 64, 82
1, 12875, Note_off_c, 0, 69, 64
1, 12877, Control_c, 0, 64, 89
1, 12892, Control_c, 0, 64, 93
1, 12896, Note_off_c, 0, 70, 63
1, 12907, Note_on_c, 0, 68, 65
1, 12907, Control_c, 0, 64, 94
1, 12922, Control_c, 0, 64, 95
1, 12936, Control_c, 0, 64, 96
1, 12938, Note_off_c, 0, 68, 65
1, 12962, Note_on_c, 0, 66, 53
1, 12985, Note_off_c, 0, 66, 63
1, 12996, Control_c, 0, 64, 93
1, 13010, Control_c, 0, 64, 83
1, 13025, Control_c, 0, 64, 73
1, 13040, Control_c, 0, 64, 66
1, 13042, Note_on_c, 0, 65, 50
1, 13054, Control_c, 0, 64, 64
1, 13069, Control_c, 0, 64, 67
1, 13084, Control_c, 0, 64, 71
1, 13091, Note_on_c, 0, 67, 50
1, 13094, Note_off_c, 0, 65, 56
1, 13100, Control_c, 0, 64, 76
1, 13115, Control_c, 0, 64, 84
1, 13133, Note_off_c, 0, 67, 67
1, 13137, Control_c, 0, 64, 89
1, 13145, Note_on_c, 0, 69, 54
1, 13152, Control_c, 0, 64, 93
1, 13167, Control_c, 0, 64, 94
1, 13173, Note_off_c, 0, 69, 67
1, 13177, Note_on_c, 0, 70, 55
1, 13182, Control_c, 0, 64, 95
1, 13211, Note_off_c, 0, 70, 64
1, 13212, Control_c, 0, 64, 95
1, 13219, Note_on_c, 0, 68, 63
1, 13252, Note_off_c, 0, 68, 64
1, 13273, Note_on_c, 0, 66, 56
1, 13286, Control_c, 0, 64, 94
1, 13293, Note_off_c, 0, 66, 64
1, 13301, Control_c, 0, 64, 82
1, 13316, Control_c, 0, 64, 68
1, 13328, Note_on_c, 0, 65, 46
1, 13331, Control_c, 0, 64, 53
1, 13346, Control_c, 0, 64, 32
1, 13360, Control_c, 0, 64, 0
1, 13375, Control_c, 0, 64, 40
1, 13381, Note_on_c, 0, 67, 52
1, 13390, Note_off_c, 0, 65, 62
1, 13390, Control_c, 0, 64, 57
1, 13404, Control_c, 0, 64, 69
1, 13419, Note_off_c, 0, 67, 66
1, 13419, Control_c, 0, 64, 80
1, 13434, Note_on_c, 0, 69, 49
1, 13434, Control_c, 0, 64, 94
1, 13449, Control_c, 0, 64, 103
1, 13457, Note_off_c, 0, 69, 55
1, 13459, Note_on_c, 0, 70, 51
1, 13464, Control_c, 0, 64, 107
1, 13488, Note_off_c, 0, 70, 57
1, 13493, Control_c, 0, 64, 109
1, 13510, Note_on_c, 0, 68, 34
1, 13538, Control_c, 0, 64, 111
1, 13544, Note_off_c, 0, 68, 55
1, 13583, Note_on_c, 0, 66, 19
1, 13623, Note_off_c, 0, 66, 39
1, 13628, Note_on_c, 0, 65, 51
1, 13641, Control_c, 0, 64, 109
1, 13649, Note_on_c, 0, 86, 78
1, 13656, Note_on_c, 0, 74, 69
1, 13672, Note_off_c, 0, 86, 63
1, 13674, Note_off_c, 0, 65, 62
1, 13677, Note_off_c, 0, 74, 62
1, 13723, Note_on_c, 0, 69, 36
1, 13753, Note_off_c, 0, 69, 48
1, 13788, Note_on_c, 0, 70, 37
1, 13816, Note_off_c, 0, 70, 51
1, 13823, Note_on_c, 0, 68, 57
1, 13844, Note_off_c, 0, 68, 64
1, 13844, Note_on_c, 0, 66, 53
1, 13885, Note_off_c, 0, 66, 64
1, 13886, Control_c, 0, 64, 111
1, 13947, Note_on_c, 0, 65, 51
1, 13961, Control_c, 0, 64, 101
1, 13976, Control_c, 0, 64, 95
1, 13990, Control_c, 0, 64, 94
1, 13992, Note_on_c, 0, 67, 52
1, 14003, Note_off_c, 0, 65, 52
1, 14005, Control_c, 0, 64, 94
1, 14019, Control_c, 0, 64, 100
1, 14029, Note_off_c, 0, 67, 65
1, 14033, Control_c, 0, 64, 112
1, 14042, Note_on_c, 0, 69, 59
1, 14048, Control_c, 0, 64, 127
1, 14059, Note_off_c, 0, 69, 65
1, 14090, Note_on_c, 0, 70, 49
1, 14131, Note_on_c, 0, 68, 66
1, 14133, Note_off_c, 0, 70, 58
1, 14185, Note_off_c, 0, 68, 59
1, 14215, Note_on_c, 0, 66, 46
1, 14240, Note_off_c, 0, 66, 60
1, 14271, Note_on_c, 0, 65, 51
1, 14285, Control_c, 0, 64, 94
1, 14291, Note_on_c, 0, 92, 77
1, 14297, Note_on_c, 0, 80, 65
1, 14300, Control_c, 0, 64, 83
1, 14311, Note_off_c, 0, 92, 71
1, 14313, Note_off_c, 0, 80, 65
1, 14315, Control_c, 0, 64, 80
1, 14321, Note_off_c, 0, 65, 64
1, 14332, Note_on_c, 0, 67, 50
1, 14345, Control_c, 0, 64, 82
1, 14358, Note_on_c, 0, 69, 56
1, 14358, Note_off_c, 0, 67, 55
1, 14360, Control_c, 0, 64, 88
1, 14374, Control_c, 0, 64, 96
1, 14382, Note_off_c, 0, 69, 65
1, 14389, Control_c, 0, 64, 106
1, 14404, Control_c, 0, 64, 115
1, 14419, Control_c, 0, 64, 121
1, 14425, Note_on_c, 0, 70, 56
1, 14433, Control_c, 0, 64, 126
1, 14451, Note_off_c, 0, 70, 56
1, 14482, Note_on_c, 0, 68, 58
1, 14503, Note_off_c, 0, 68, 61
1, 14509, Note_on_c, 0, 66, 49
1, 14533, Note_off_c, 0, 66, 59
1, 14596, Control_c, 0, 64, 109
1, 14601, Note_on_c, 0, 65, 64
1, 14611, Control_c, 0, 64, 96
1, 14633, Control_c, 0, 64, 88
1, 14644, Note_off_c, 0, 65, 63
1, 14647, Note_on_c, 0, 67, 54
1, 14648, Control_c, 0, 64, 86
1, 14663, Control_c, 0, 64, 87
1, 14678, Control_c, 0, 64, 91
1, 14693, Control_c, 0, 64, 102
1, 14693, Note_off_c, 0, 67, 64
1, 14696, Note_on_c, 0, 69, 63
1, 14708, Control_c, 0, 64, 127
1, 14717, Note_off_c, 0, 69, 65
1, 14732, Note_on_c, 0, 70, 49
1, 14776, Note_on_c, 0, 68, 67
1, 14778, Note_off_c, 0, 70, 56
1, 14820, Note_off_c, 0, 68, 56
1, 14841, Note_on_c, 0, 66, 56
1, 14879, Note_off_c, 0, 66, 62
1, 14901, Control_c, 0, 64, 108
1, 14916, Control_c, 0, 64, 101
1, 14919, Note_on_c, 0, 65, 48
1, 14938, Note_on_c, 0, 98, 81
1, 14944, Note_on_c, 0, 86, 74
1, 14945, Control_c, 0, 64, 108
1, 14946, Note_off_c, 0, 65, 64
1, 14960, Control_c, 0, 64, 127
1, 14962, Note_off_c, 0, 98, 68
1, 14965, Note_off_c, 0, 86, 66
1, 14968, Note_on_c, 0, 67, 50
1, 14987, Note_on_c, 0, 69, 63
1, 14989, Note_off_c, 0, 67, 63
1, 15015, Note_off_c, 0, 69, 66
1, 15063, Note_on_c, 0, 70, 59
1, 15087, Note_off_c, 0, 70, 58
1, 15120, Note_on_c, 0, 68, 60
1, 15144, Note_on_c, 0, 66, 57
1, 15144, Note_off_c, 0, 68, 65
1, 15167, Note_off_c, 0, 66, 64
1, 15236, Note_on_c, 0, 65, 56
1, 15271, Control_c, 0, 64, 97
1, 15272, Note_off_c, 0, 65, 64
1, 15273, Note_on_c, 0, 67, 59
1, 15286, Control_c, 0, 64, 94
1, 15301, Control_c, 0, 64, 95
1, 15315, Note_off_c, 0, 67, 64
1, 15316, Control_c, 0, 64, 105
1, 15325, Note_on_c, 0, 69, 61
1, 15330, Control_c, 0, 64, 127
1, 15344, Note_off_c, 0, 69, 64
1, 15355, Note_on_c, 0, 70, 56
1, 15400, Note_on_c, 0, 68, 65
1, 15408, Note_off_c, 0, 70, 61
1, 15438, Note_off_c, 0, 68, 64
1, 15467, Note_on_c, 0, 66, 52
1, 15499, Note_off_c, 0, 66, 66
1, 15529, Note_on_c, 0, 65, 49
1, 15561, Control_c, 0, 64, 94
1, 15564, Note_on_c, 0, 92, 86
1, 15564, Note_on_c, 0, 80, 75
1, 15574, Note_off_c, 0, 65, 61
1, 15576, Control_c, 0, 64, 87
1, 15584, Note_off_c, 0, 92, 72
1, 15588, Note_off_c, 0, 80, 69
1, 15589, Note_on_c, 0, 67, 50
1, 15605, Control_c, 0, 64, 91
1, 15610, Note_on_c, 0, 69, 59
1, 15612, Note_off_c, 0, 67, 59
1, 15620, Control_c, 0, 64, 105
1, 15634, Note_off_c, 0, 69, 66
1, 15635, Control_c, 0, 64, 127
1, 15684, Note_on_c, 0, 70, 51
1, 15707, Note_off_c, 0, 70, 59
1, 15722, Note_on_c, 0, 68, 66
1, 15746, Note_off_c, 0, 68, 69
1, 15750, Note_on_c, 0, 66, 56
1, 15772, Note_off_c, 0, 66, 61
1, 15874, Note_on_c, 0, 65, 51
1, 15901, Control_c, 0, 64, 109
1, 15902, Note_on_c, 0, 67, 59
1, 15913, Note_off_c, 0, 65, 65
1, 15916, Control_c, 0, 64, 107
1, 15945, Control_c, 0, 64, 122
1, 15951, Note_off_c, 0, 67, 63
1, 15960, Note_on_c, 0, 69, 60
1, 15960, Control_c, 0, 64, 127
1, 15980, Note_off_c, 0, 69, 64
1, 15990, Note_on_c, 0, 70, 59
1, 16031, Note_off_c, 0, 70, 57
1, 16032, Note_on_c, 0, 68, 67
1, 16071, Note_off_c, 0, 68, 60
1, 16097, Note_on_c, 0, 66, 54
1, 16133, Note_off_c, 0, 66, 67
1, 16161, Note_on_c, 0, 65, 51
1, 16175, Control_c, 0, 64, 109
1, 16190, Control_c, 0, 64, 91
1, 16196, Note_on_c, 0, 86, 89
1, 16200, Note_off_c, 0, 65, 65
1, 16202, Note_on_c, 0, 74, 80
1, 16205, Control_c, 0, 64, 88
1, 16213, Note_on_c, 0, 67, 56
1, 16220, Control_c, 0, 64, 89
1, 16226, Note_off_c, 0, 74, 67
1, 16227, Note_off_c, 0, 86, 60
1, 16231, Note_on_c, 0, 69, 69
1, 16235, Control_c, 0, 64, 99
1, 16236, Note_off_c, 0, 67, 61
1, 16249, Control_c, 0, 64, 127
1, 16268, Note_off_c, 0, 69, 60
1, 16311, Note_on_c, 0, 70, 61
1, 16335, Note_off_c, 0, 70, 56
1, 16359, Note_on_c, 0, 68, 69
1, 16381, Note_on_c, 0, 66, 58
1, 16384, Note_off_c, 0, 68, 67
1, 16412, Note_off_c, 0, 66, 66
1, 16487, Note_on_c, 0, 65, 59
1, 16527, Note_on_c, 0, 67, 60
1, 16533, Control_c, 0, 64, 109
1, 16545, Note_off_c, 0, 65, 59
1, 16548, Control_c, 0, 64, 104
1, 16577, Control_c, 0, 64, 113
1, 16577, Note_on_c, 0, 69, 68
1, 16578, Note_off_c, 0, 67, 63
1, 16592, Control_c, 0, 64, 127
1, 16598, Note_off_c, 0, 69, 72
1, 16631, Note_on_c, 0, 70, 52
1, 16669, Note_off_c, 0, 70, 61
1, 16674, Note_on_c, 0, 68, 68
1, 16720, Note_off_c, 0, 68, 61
1, 16755, Note_on_c, 0, 66, 50
1, 16782, Note_off_c, 0, 66, 63
1, 16809, Note_on_c, 0, 65, 51
1, 16814, Note_on_c, 0, 92, 88
1, 16814, Control_c, 0, 64, 94
1, 16816, Note_on_c, 0, 80, 76
1, 16828, Control_c, 0, 64, 79
1, 16839, Note_off_c, 0, 80, 68
1, 16843, Control_c, 0, 64, 74
1, 16846, Note_off_c, 0, 65, 66
1, 16853, Note_on_c, 0, 67, 60
1, 16853, Note_off_c, 0, 92, 65
1, 16858, Control_c, 0, 64, 77
1, 16881, Control_c, 0, 64, 85
1, 16889, Note_off_c, 0, 67, 66
1, 16896, Control_c, 0, 64, 103
1, 16897, Note_on_c, 0, 69, 58
1, 16910, Control_c, 0, 64, 127
1, 16920, Note_off_c, 0, 69, 64
1, 16959, Note_on_c, 0, 70, 66
1, 16990, Note_off_c, 0, 70, 62
1, 17010, Note_on_c, 0, 68, 73
1, 17032, Note_off_c, 0, 68, 70
1, 17042, Note_on_c, 0, 66, 58
1, 17065, Note_off_c, 0, 66, 64
1, 17125, Note_on_c, 0, 65, 67
1, 17148, Control_c, 0, 64, 96
1, 17163, Control_c, 0, 64, 84
1, 17165, Note_on_c, 0, 67, 62
1, 17178, Control_c, 0, 64, 82
1, 17182, Note_off_c, 0, 65, 64
1, 17192, Control_c, 0, 64, 83
1, 17207, Control_c, 0, 64, 88
1, 17215, Note_off_c, 0, 67, 66
1, 17218, Note_on_c, 0, 69, 66
1, 17222, Control_c, 0, 64, 98
1, 17237, Control_c, 0, 64, 127
1, 17243, Note_off_c, 0, 69, 66
1, 17256, Note_on_c, 0, 70, 63
1, 17309, Note_on_c, 0, 68, 70
1, 17320, Note_off_c, 0, 70, 59
1, 17365, Note_off_c, 0, 68, 63
1, 17379, Note_on_c, 0, 66, 58
1, 17412, Note_off_c, 0, 66, 63
1, 17431, Note_on_c, 0, 65, 59
1, 17450, Note_on_c, 0, 98, 93
1, 17454, Note_on_c, 0, 86, 81
1, 17469, Note_off_c, 0, 65, 64
1, 17472, Note_off_c, 0, 98, 66
1, 17474, Note_off_c, 0, 86, 71
1, 17497, Note_on_c, 0, 67, 43
1, 17513, Note_on_c, 0, 69, 60
1, 17520, Note_off_c, 0, 67, 59
1, 17537, Note_off_c, 0, 69, 67
1, 17579, Note_on_c, 0, 70, 63
1, 17606, Note_off_c, 0, 70, 63
1, 17631, Note_on_c, 0, 68, 69
1, 17658, Note_off_c, 0, 68, 67
1, 17662, Note_on_c, 0, 66, 54
1, 17686, Note_off_c, 0, 66, 63
1, 17740, Note_on_c, 0, 65, 63
1, 17763, Control_c, 0, 64, 98
1, 17776, Note_on_c, 0, 67, 66
1, 17777, Control_c, 0, 64, 92
1, 17781, Note_off_c, 0, 65, 62
1, 17807, Control_c, 0, 64, 97
1, 17822, Control_c, 0, 64, 113
1, 17826, Note_off_c, 0, 67, 65
1, 17829, Note_on_c, 0, 69, 68
1, 17837, Control_c, 0, 64, 127
1, 17852, Note_off_c, 0, 69, 69
1, 17883, Note_on_c, 0, 70, 60
1, 17919, Note_on_c, 0, 68, 69
1, 17927, Note_off_c, 0, 70, 60
1, 17975, Note_off_c, 0, 68, 63
1, 17987, Note_on_c, 0, 66, 54
1, 18021, Note_off_c, 0, 66, 64
1, 18030, Control_c, 0, 64, 116
1, 18045, Control_c, 0, 64, 79
1, 18047, Note_on_c, 0, 65, 57
1, 18055, Note_on_c, 0, 92, 91
1, 18057, Note_on_c, 0, 80, 76
1, 18060, Control_c, 0, 64, 66
1, 18074, Control_c, 0, 64, 63
1, 18078, Note_off_c, 0, 80, 70
1, 18089, Note_off_c, 0, 92, 63
1, 18089, Control_c, 0, 64, 70
1, 18093, Note_off_c, 0, 65, 64
1, 18104, Control_c, 0, 64, 88
1, 18112, Note_on_c, 0, 67, 55
1, 18119, Control_c, 0, 64, 127
1, 18131, Note_off_c, 0, 67, 66
1, 18139, Note_on_c, 0, 69, 54
1, 18157, Note_off_c, 0, 69, 64
1, 18193, Control_c, 0, 67, 122
1, 18205, Note_on_c, 0, 70, 54
1, 18208, Control_c, 0, 67, 114
1, 18223, Control_c, 0, 67, 108
1, 18226, Note_off_c, 0, 70, 59
1, 18238, Control_c, 0, 67, 101
1, 18253, Control_c, 0, 67, 93
1, 18253, Note_on_c, 0, 68, 69
1, 18267, Control_c, 0, 67, 83
1, 18274, Note_off_c, 0, 68, 67
1, 18279, Note_on_c, 0, 66, 61
1, 18282, Control_c, 0, 67, 73
1, 18297, Control_c, 0, 67, 60
1, 18304, Note_off_c, 0, 66, 64
1, 18312, Control_c, 0, 67, 51
1, 18327, Control_c, 0, 67, 41
1, 18341, Control_c, 0, 67, 31
1, 18356, Control_c, 0, 64, 93
1, 18356, Control_c, 0, 67, 19
1, 18357, Note_on_c, 0, 65, 68
1, 18378, Control_c, 0, 64, 82
1, 18378, Control_c, 0, 67, 0
1, 18393, Note_on_c, 0, 67, 58
1, 18399, Note_off_c, 0, 65, 65
1, 18408, Control_c, 0, 64, 92
1, 18423, Control_c, 0, 64, 127
1, 18440, Note_on_c, 0, 69, 71
1, 18444, Note_off_c, 0, 67, 65
1, 18465, Note_off_c, 0, 69, 69
1, 18493, Note_on_c, 0, 70, 66
1, 18525, Note_off_c, 0, 70, 63
1, 18532, Note_on_c, 0, 68, 76
1, 18563, Note_off_c, 0, 68, 64
1, 18576, Note_on_c, 0, 66, 71
1, 18604, Note_off_c, 0, 66, 67
1, 18634, Note_on_c, 0, 65, 79
1, 18677, Note_on_c, 0, 67, 71
1, 18685, Note_off_c, 0, 65, 63
1, 18717, Note_on_c, 0, 69, 74
1, 18723, Note_off_c, 0, 67, 66
1, 18747, Note_off_c, 0, 69, 63
1, 18773, Note_on_c, 0, 70, 70
1, 18810, Note_on_c, 0, 68, 78
1, 18819, Note_off_c, 0, 70, 58
1, 18854, Note_on_c, 0, 66, 75
1, 18855, Note_off_c, 0, 68, 65
1, 18876, Note_off_c, 0, 66, 67
1, 18917, Note_on_c, 0, 77, 78
1, 18962, Note_on_c, 0, 79, 80
1, 18971, Note_off_c, 0, 77, 62
1, 19001, Note_on_c, 0, 81, 85
1, 19017, Note_off_c, 0, 79, 68
1, 19034, Note_off_c, 0, 81, 65
1, 19050, Note_on_c, 0, 82, 81
1, 19090, Note_on_c, 0, 80, 85
1, 19102, Note_off_c, 0, 82, 63
1, 19138, Note_off_c, 0, 80, 67
1, 19141, Note_on_c, 0, 78, 79
1, 19162, Note_off_c, 0, 78, 69
1, 19195, Note_on_c, 0, 77, 83
1, 19235, Note_on_c, 0, 79, 85
1, 19245, Note_off_c, 0, 77, 64
1, 19279, Note_on_c, 0, 81, 92
1, 19290, Note_off_c, 0, 79, 70
1, 19312, Note_off_c, 0, 81, 69
1, 19348, Note_on_c, 0, 82, 48
1, 19357, Note_on_c, 0, 80, 84
1, 19371, Note_off_c, 0, 82, 58
1, 19398, Note_on_c, 0, 78, 83
1, 19406, Note_off_c, 0, 80, 65
1, 19439, Note_off_c, 0, 78, 62
1, 19470, Note_on_c, 0, 89, 88
1, 19505, Note_on_c, 0, 91, 83
1, 19517, Note_off_c, 0, 89, 65
1, 19550, Note_on_c, 0, 93, 92
1, 19566, Note_off_c, 0, 91, 67
1, 19585, Note_off_c, 0, 93, 69
1, 19597, Note_on_c, 0, 94, 91
1, 19633, Note_on_c, 0, 92, 81
1, 19648, Note_off_c, 0, 94, 66
1, 19670, Note_on_c, 0, 90, 86
1, 19674, Note_off_c, 0, 92, 68
1, 19707, Note_off_c, 0, 90, 67
1, 19722, Note_on_c, 0, 89, 94
1, 19761, Note_on_c, 0, 91, 84
1, 19773, Note_off_c, 0, 89, 65
1, 19815, Note_on_c, 0, 93, 90
1, 19819, Note_off_c, 0, 91, 69
1, 19846, Note_off_c, 0, 93, 68
1, 19858, Note_on_c, 0, 94, 91
1, 19892, Note_on_c, 0, 92, 86
1, 19908, Note_off_c, 0, 94, 65
1, 19934, Note_on_c, 0, 91, 72
1, 19940, Note_on_c, 0, 90, 87
1, 19940, Note_off_c, 0, 92, 65
1, 19949, Note_off_c, 0, 91, 66
1, 19976, Note_off_c, 0, 90, 67
1, 19998, Note_on_c, 0, 89, 97
1, 20032, Note_off_c, 0, 89, 68
1, 20033, Note_on_c, 0, 91, 82
1, 20086, Note_on_c, 0, 93, 91
1, 20098, Note_off_c, 0, 91, 69
1, 20116, Note_off_c, 0, 93, 69
1, 20134, Note_on_c, 0, 94, 89
1, 20165, Note_on_c, 0, 92, 87
1, 20181, Note_off_c, 0, 94, 66
1, 20215, Note_on_c, 0, 90, 90
1, 20217, Note_off_c, 0, 92, 67
1, 20250, Note_off_c, 0, 90, 67
1, 20277, Note_on_c, 0, 89, 89
1, 20315, Note_on_c, 0, 91, 91
1, 20325, Note_off_c, 0, 89, 66
1, 20369, Note_off_c, 0, 91, 70
1, 20369, Note_on_c, 0, 93, 93
1, 20398, Note_off_c, 0, 93, 71
1, 20403, Note_on_c, 0, 94, 87
1, 20429, Note_on_c, 0, 92, 90
1, 20451, Note_off_c, 0, 94, 65
1, 20482, Note_on_c, 0, 90, 76
1, 20483, Note_off_c, 0, 92, 66
1, 20528, Note_off_c, 0, 90, 64
1, 20573, Note_on_c, 0, 94, 104
1, 20700, Note_on_c, 0, 92, 70
1, 20712, Note_off_c, 0, 94, 69
1, 20741, Note_on_c, 0, 90, 75
1, 20756, Note_off_c, 0, 92, 67
1, 20780, Note_on_c, 0, 87, 83
1, 20781, Note_off_c, 0, 90, 67
1, 20812, Note_on_c, 0, 85, 80
1, 20824, Note_off_c, 0, 87, 67
1, 20847, Note_on_c, 0, 82, 85
1, 20848, Note_off_c, 0, 85, 68
1, 20872, Note_on_c, 0, 80, 82
1, 20886, Note_off_c, 0, 82, 66
1, 20897, Note_on_c, 0, 78, 81
1, 20911, Note_off_c, 0, 80, 65
1, 20927, Note_on_c, 0, 75, 86
1, 20933, Note_off_c, 0, 78, 67
1, 20954, Note_on_c, 0, 73, 84
1, 20966, Note_off_c, 0, 75, 67
1, 20989, Note_on_c, 0, 70, 86
1, 20994, Note_off_c, 0, 73, 66
1, 21013, Note_on_c, 0, 68, 83
1, 21030, Note_off_c, 0, 70, 66
1, 21039, Note_on_c, 0, 66, 80
1, 21055, Note_off_c, 0, 68, 67
1, 21070, Note_on_c, 0, 63, 88
1, 21079, Note_off_c, 0, 66, 63
1, 21099, Note_on_c, 0, 61, 80
1, 21100, Control_c, 0, 67, 20
1, 21111, Note_off_c, 0, 63, 66
1, 21130, Control_c, 0, 67, 23
1, 21132, Note_on_c, 0, 58, 84
1, 21141, Note_off_c, 0, 61, 63
1, 21156, Note_on_c, 0, 56, 81
1, 21159, Control_c, 0, 67, 25
1, 21176, Note_off_c, 0, 58, 68
1, 21180, Note_on_c, 0, 54, 80
1, 21204, Note_off_c, 0, 56, 65
1, 21220, Note_on_c, 0, 51, 84
1, 21234, Note_off_c, 0, 54, 65
1, 21253, Note_on_c, 0, 49, 73
1, 21275, Note_off_c, 0, 51, 66
1, 21278, Control_c, 0, 67, 27
1, 21295, Note_on_c, 0, 46, 83
1, 21308, Note_off_c, 0, 49, 64
1, 21323, Note_on_c, 0, 44, 77
1, 21340, Note_off_c, 0, 46, 66
1, 21345, Note_on_c, 0, 42, 81
1, 21371, Note_off_c, 0, 44, 67
1, 21387, Note_on_c, 0, 39, 88
1, 21389, Note_off_c, 0, 42, 66
1, 21413, Note_on_c, 0, 37, 81
1, 21415, Note_off_c, 0, 39, 68
1, 21439, Note_off_c, 0, 37, 66
1, 21442, Note_on_c, 0, 34, 79
1, 21466, Note_on_c, 0, 32, 79
1, 21478, Note_off_c, 0, 34, 63
1, 21490, Note_on_c, 0, 30, 79
1, 21493, Control_c, 0, 67, 29
1, 21497, Note_off_c, 0, 32, 64
1, 21508, Control_c, 0, 67, 31
1, 21523, Control_c, 0, 67, 33
1, 21525, Note_off_c, 0, 30, 65
1, 21530, Note_on_c, 0, 27, 77
1, 21538, Control_c, 0, 67, 37
1, 21552, Control_c, 0, 67, 41
1, 21567, Control_c, 0, 67, 44
1, 21568, Note_off_c, 0, 27, 64
1, 21572, Note_on_c, 0, 25, 72
1, 21582, Control_c, 0, 67, 46
1, 21597, Control_c, 0, 67, 48
1, 21612, Control_c, 0, 67, 50
1, 21621, Note_off_c, 0, 25, 64
1, 21626, Control_c, 0, 67, 51
1, 21641, Control_c, 0, 67, 51
1, 21700, Control_c, 0, 67, 52
1, 21732, Note_on_c, 0, 22, 82
1, 21759, Control_c, 0, 64, 97
1, 21759, Control_c, 0, 67, 51
1, 21771, Note_off_c, 0, 22, 63
1, 21774, Control_c, 0, 64, 82
1, 21789, Control_c, 0, 64, 69
1, 21804, Control_c, 0, 64, 58
1, 21818, Control_c, 0, 64, 45
1, 21833, Control_c, 0, 64, 31
1, 21833, Control_c, 0, 67, 50
1, 21848, Control_c, 0, 64, 0
1, 21848, Control_c, 0, 67, 50
1, 21862, Control_c, 0, 67, 49
1, 21877, Control_c, 0, 67, 48
1, 21909, Control_c, 0, 67, 48
1, 21936, Note_on_c, 0, 61, 79
1, 21937, Note_on_c, 0, 59, 71
1, 21964, Note_off_c, 0, 59, 67
1, 21972, Note_off_c, 0, 61, 65
1, 21982, Control_c, 0, 64, 32
1, 21982, Control_c, 0, 67, 50
1, 21997, Control_c, 0, 64, 54
1, 21997, Control_c, 0, 67, 52
1, 22012, Control_c, 0, 64, 67
1, 22012, Control_c, 0, 67, 54
1, 22027, Control_c, 0, 64, 76
1, 22027, Control_c, 0, 67, 57
1, 22041, Control_c, 0, 64, 83
1, 22041, Control_c, 0, 67, 60
1, 22056, Control_c, 0, 64, 85
1, 22071, Control_c, 0, 67, 59
1, 22101, Control_c, 0, 64, 84
1, 22123, Control_c, 0, 64, 81
1, 22138, Control_c, 0, 64, 75
1, 22138, Control_c, 0, 67, 60
1, 22153, Control_c, 0, 64, 69
1, 22153, Control_c, 0, 67, 61
1, 22167, Control_c, 0, 64, 64
1, 22167, Control_c, 0, 67, 63
1, 22182, Control_c, 0, 64, 58
1, 22182, Control_c, 0, 67, 68
1, 22197, Control_c, 0, 64, 51
1, 22197, Control_c, 0, 67, 72
1, 22212, Control_c, 0, 64, 43
1, 22212, Control_c, 0, 67, 76
1, 22227, Control_c, 0, 64, 34
1, 22227, Control_c, 0, 67, 79
1, 22241, Control_c, 0, 64, 0
1, 22241, Control_c, 0, 67, 80
1, 22256, Control_c, 0, 67, 80
1, 22300, Control_c, 0, 67, 80
1, 22640, Control_c, 0, 67, 80
1, 22655, Control_c, 0, 67, 81
1, 22670, Control_c, 0, 67, 81
1, 22686, Control_c, 0, 67, 82
1, 22701, Control_c, 0, 67, 82
1, 22745, Control_c, 0, 67, 83
1, 22760, Control_c, 0, 67, 87
1, 22775, Control_c, 0, 67, 91
1, 22790, Control_c, 0, 67, 94
1, 22804, Control_c, 0, 67, 96
1, 22834, Control_c, 0, 67, 99
1, 22886, Control_c, 0, 67, 101
1, 23079, Control_c, 0, 67, 103
1, 23123, Control_c, 0, 67, 108
1, 23138, Control_c, 0, 67, 114
1, 23153, Control_c, 0, 67, 119
1, 23168, Control_c, 0, 67, 123
1, 23183, Control_c, 0, 67, 127
1, 23212, Control_c, 0, 64, 46
1, 23227, Control_c, 0, 64, 62
1, 23242, Control_c, 0, 64, 66
1, 23249, Note_on_c, 0, 61, 54
1, 23250, Note_on_c, 0, 59, 49
1, 23257, Control_c, 0, 64, 69
1, 23271, Control_c, 0, 64, 70
1, 23281, Note_off_c, 0, 61, 63
1, 23284, Note_off_c, 0, 59, 64
1, 23286, Control_c, 0, 64, 71
1, 23330, Control_c, 0, 64, 70
1, 23345, Control_c, 0, 64, 69
1, 23360, Control_c, 0, 64, 66
1, 23375, Control_c, 0, 64, 64
1, 23389, Control_c, 0, 64, 60
1, 23404, Control_c, 0, 64, 56
1, 23419, Control_c, 0, 64, 50
1, 23434, Control_c, 0, 64, 47
1, 23449, Control_c, 0, 64, 45
1, 23463, Control_c, 0, 64, 43
1, 23478, Control_c, 0, 64, 41
1, 23494, Control_c, 0, 64, 38
1, 23509, Control_c, 0, 64, 34
1, 23524, Control_c, 0, 64, 31
1, 23538, Control_c, 0, 64, 0
1, 24110, Control_c, 0, 64, 30
1, 24385, Note_on_c, 0, 59, 45
1, 24409, Note_off_c, 0, 59, 59
1, 24435, Note_on_c, 0, 61, 54
1, 24465, Note_off_c, 0, 61, 62
1, 24489, Note_on_c, 0, 59, 55
1, 24523, Note_off_c, 0, 59, 65
1, 24548, Note_on_c, 0, 61, 59
1, 24579, Note_off_c, 0, 61, 63
1, 24608, Note_on_c, 0, 59, 57
1, 24635, Note_off_c, 0, 59, 66
1, 24647, Note_on_c, 0, 61, 68
1, 24674, Note_off_c, 0, 61, 66
1, 24718, Note_on_c, 0, 60, 61
1, 24751, Note_off_c, 0, 60, 67
1, 24774, Note_on_c, 0, 63, 55
1, 24784, Note_on_c, 0, 61, 36
1, 24806, Note_off_c, 0, 63, 64
1, 24817, Note_off_c, 0, 61, 45
1, 24841, Note_on_c, 0, 60, 64
1, 24870, Note_off_c, 0, 60, 67
1, 24887, Note_on_c, 0, 63, 57
1, 24913, Note_off_c, 0, 63, 64
1, 24949, Note_on_c, 0, 60, 59
1, 24981, Note_off_c, 0, 60, 66
1, 24985, Note_on_c, 0, 63, 64
1, 25013, Note_off_c, 0, 63, 68
1, 25064, Note_on_c, 0, 59, 61
1, 25093, Note_off_c, 0, 59, 67
1, 25115, Note_on_c, 0, 61, 62
1, 25142, Note_on_c, 0, 60, 20
1, 25146, Note_off_c, 0, 61, 65
1, 25180, Note_off_c, 0, 60, 43
1, 25181, Note_on_c, 0, 59, 57
1, 25213, Note_off_c, 0, 59, 65
1, 25233, Note_on_c, 0, 61, 62
1, 25263, Note_off_c, 0, 61, 64
1, 25298, Note_on_c, 0, 59, 57
1, 25326, Note_off_c, 0, 59, 64
1, 25327, Note_on_c, 0, 61, 66
1, 25357, Note_off_c, 0, 61, 66
1, 25416, Note_on_c, 0, 60, 60
1, 25443, Note_on_c, 0, 63, 62
1, 25443, Note_off_c, 0, 60, 66
1, 25455, Note_on_c, 0, 61, 40
1, 25473, Note_off_c, 0, 63, 67
1, 25484, Note_off_c, 0, 61, 49
1, 25521, Note_on_c, 0, 60, 62
1, 25550, Note_off_c, 0, 60, 70
1, 25558, Note_on_c, 0, 63, 58
1, 25592, Note_off_c, 0, 63, 65
1, 25604, Note_on_c, 0, 61, 2
1, 25622, Note_on_c, 0, 60, 63
1, 25650, Note_off_c, 0, 61, 32
1, 25652, Note_off_c, 0, 60, 67
1, 25666, Note_on_c, 0, 63, 52
1, 25666, Control_c, 0, 64, 0
1, 25691, Note_off_c, 0, 63, 60
1, 25744, Note_on_c, 0, 59, 65
1, 25770, Note_off_c, 0, 59, 67
1, 25779, Note_on_c, 0, 61, 53
1, 25792, Note_on_c, 0, 60, 40
1, 25802, Note_off_c, 0, 61, 61
1, 25820, Note_off_c, 0, 60, 55
1, 25861, Note_on_c, 0, 59, 58
1, 25886, Note_on_c, 0, 61, 72
1, 25892, Note_off_c, 0, 59, 67
1, 25914, Note_off_c, 0, 61, 66
1, 25973, Note_on_c, 0, 60, 60
1, 26004, Note_off_c, 0, 60, 66
1, 26013, Note_on_c, 0, 63, 60
1, 26015, Note_on_c, 0, 61, 61
1, 26045, Note_off_c, 0, 63, 66
1, 26047, Note_off_c, 0, 61, 63
1, 26097, Note_on_c, 0, 59, 70
1, 26124, Note_off_c, 0, 59, 66
1, 26130, Note_on_c, 0, 61, 65
1, 26161, Note_off_c, 0, 61, 65
1, 26216, Note_on_c, 0, 59, 62
1, 26222, Poly_aftertouch_c, 0, 60, 0
1, 26241, Note_on_c, 0, 61, 70
1, 26243, Note_off_c, 0, 59, 68
1, 26271, Note_off_c, 0, 61, 64
1, 26315, Note_on_c, 0, 60, 69
1, 26346, Note_off_c, 0, 60, 67
1, 26364, Note_on_c, 0, 63, 57
1, 26378, Note_on_c, 0, 61, 48
1, 26387, Note_off_c, 0, 63, 62
1, 26403, Note_off_c, 0, 61, 57
1, 26438, Note_on_c, 0, 59, 70
1, 26465, Note_off_c, 0, 59, 65
1, 26480, Note_on_c, 0, 61, 68
1, 26508, Note_off_c, 0, 61, 66
1, 26509, Note_on_c, 0, 60, 31
1, 26542, Note_off_c, 0, 60, 46
1, 26557, Note_on_c, 0, 59, 69
1, 26583, Note_off_c, 0, 59, 68
1, 26589, Note_on_c, 0, 61, 71
1, 26626, Note_off_c, 0, 61, 64
1, 26669, Note_on_c, 0, 60, 65
1, 26702, Note_off_c, 0, 60, 67
1, 26708, Note_on_c, 0, 63, 62
1, 26740, Note_off_c, 0, 63, 65
1, 26782, Note_on_c, 0, 59, 71
1, 26815, Note_off_c, 0, 59, 64
1, 26826, Note_on_c, 0, 61, 49
1, 26842, Note_on_c, 0, 60, 42
1, 26858, Note_off_c, 0, 61, 63
1, 26870, Note_off_c, 0, 60, 57
1, 26903, Note_on_c, 0, 59, 70
1, 26935, Note_on_c, 0, 61, 75
1, 26936, Note_off_c, 0, 59, 67
1, 26981, Note_off_c, 0, 61, 53
1, 27009, Note_on_c, 0, 60, 59
1, 27013, Note_on_c, 0, 63, 72
1, 27036, Note_off_c, 0, 60, 67
1, 27038, Note_off_c, 0, 63, 68
1, 27137, Note_on_c, 0, 71, 63
1, 27155, Note_off_c, 0, 71, 67
1, 27168, Note_on_c, 0, 73, 61
1, 27189, Note_off_c, 0, 73, 65
1, 27243, Note_on_c, 0, 71, 67
1, 27270, Note_off_c, 0, 71, 68
1, 27276, Note_on_c, 0, 73, 68
1, 27299, Note_off_c, 0, 73, 70
1, 27361, Note_on_c, 0, 71, 70
1, 27386, Note_off_c, 0, 71, 69
1, 27387, Note_on_c, 0, 73, 79
1, 27408, Note_off_c, 0, 73, 69
1, 27460, Note_on_c, 0, 72, 70
1, 27484, Note_off_c, 0, 72, 68
1, 27502, Note_on_c, 0, 75, 63
1, 27506, Note_on_c, 0, 73, 62
1, 27525, Note_off_c, 0, 73, 65
1, 27528, Control_c, 0, 64, 31
1, 27529, Note_off_c, 0, 75, 67
1, 27582, Note_on_c, 0, 72, 70
1, 27604, Note_off_c, 0, 72, 70
1, 27606, Note_on_c, 0, 75, 70
1, 27611, Note_on_c, 0, 73, 64
1, 27635, Note_off_c, 0, 75, 64
1, 27638, Note_off_c, 0, 73, 67
1, 27693, Note_on_c, 0, 72, 69
1, 27716, Note_off_c, 0, 72, 68
1, 27717, Note_on_c, 0, 75, 67
1, 27720, Control_c, 0, 64, 0
1, 27721, Note_on_c, 0, 73, 53
1, 27743, Note_off_c, 0, 73, 62
1, 27744, Note_off_c, 0, 75, 67
1, 27799, Note_on_c, 0, 71, 71
1, 27824, Control_c, 0, 64, 38
1, 27828, Note_off_c, 0, 71, 64
1, 27836, Note_on_c, 0, 73, 67
1, 27839, Control_c, 0, 64, 49
1, 27854, Control_c, 0, 64, 58
1, 27857, Note_on_c, 0, 72, 47
1, 27863, Note_off_c, 0, 73, 67
1, 27869, Control_c, 0, 64, 62
1, 27878, Note_off_c, 0, 72, 59
1, 27884, Control_c, 0, 64, 62
1, 27926, Note_on_c, 0, 71, 57
1, 27947, Note_off_c, 0, 71, 64
1, 27951, Note_on_c, 0, 73, 77
1, 27975, Note_off_c, 0, 73, 65
1, 27986, Note_on_c, 0, 72, 14
1, 28009, Note_off_c, 0, 72, 34
1, 28025, Note_on_c, 0, 71, 63
1, 28046, Control_c, 0, 64, 62
1, 28051, Note_off_c, 0, 71, 68
1, 28059, Note_on_c, 0, 73, 72
1, 28061, Control_c, 0, 64, 61
1, 28076, Control_c, 0, 64, 58
1, 28081, Note_off_c, 0, 73, 70
1, 28091, Control_c, 0, 64, 54
1, 28113, Control_c, 0, 64, 51
1, 28127, Note_on_c, 0, 72, 75
1, 28128, Control_c, 0, 64, 51
1, 28143, Control_c, 0, 64, 54
1, 28158, Control_c, 0, 64, 56
1, 28162, Note_off_c, 0, 72, 64
1, 28169, Note_on_c, 0, 75, 67
1, 28173, Control_c, 0, 64, 59
1, 28184, Note_on_c, 0, 73, 51
1, 28187, Control_c, 0, 64, 60
1, 28195, Note_off_c, 0, 75, 68
1, 28202, Control_c, 0, 64, 60
1, 28208, Note_off_c, 0, 73, 58
1, 28245, Control_c, 0, 64, 61
1, 28254, Note_on_c, 0, 72, 69
1, 28260, Control_c, 0, 64, 62
1, 28274, Note_on_c, 0, 75, 70
1, 28275, Control_c, 0, 64, 63
1, 28276, Note_off_c, 0, 72, 70
1, 28277, Note_on_c, 0, 73, 61
1, 28291, Control_c, 0, 64, 65
1, 28298, Note_off_c, 0, 73, 63
1, 28302, Note_off_c, 0, 75, 66
1, 28306, Control_c, 0, 64, 65
1, 28321, Control_c, 0, 64, 66
1, 28350, Note_on_c, 0, 72, 69
1, 28350, Control_c, 0, 64, 66
1, 28366, Note_on_c, 0, 75, 68
1, 28375, Note_off_c, 0, 72, 69
1, 28382, Note_on_c, 0, 73, 42
1, 28394, Note_off_c, 0, 75, 66
1, 28409, Note_off_c, 0, 73, 54
1, 28409, Control_c, 0, 64, 66
1, 28424, Control_c, 0, 64, 65
1, 28439, Control_c, 0, 64, 62
1, 28453, Control_c, 0, 64, 59
1, 28454, Note_on_c, 0, 71, 79
1, 28468, Control_c, 0, 64, 58
1, 28485, Note_off_c, 0, 71, 65
1, 28486, Note_on_c, 0, 73, 68
1, 28498, Control_c, 0, 64, 60
1, 28513, Note_off_c, 0, 73, 66
1, 28513, Control_c, 0, 64, 62
1, 28519, Note_on_c, 0, 72, 34
1, 28528, Control_c, 0, 64, 63
1, 28541, Note_off_c, 0, 72, 36
1, 28543, Control_c, 0, 64, 65
1, 28558, Control_c, 0, 64, 66
1, 28572, Note_on_c, 0, 71, 74
1, 28572, Control_c, 0, 64, 67
1, 28587, Control_c, 0, 64, 69
1, 28593, Note_off_c, 0, 71, 70
1, 28602, Control_c, 0, 64, 71
1, 28604, Note_on_c, 0, 73, 68
1, 28617, Control_c, 0, 64, 73
1, 28625, Note_off_c, 0, 73, 66
1, 28632, Control_c, 0, 64, 75
1, 28647, Control_c, 0, 64, 76
1, 28669, Note_on_c, 0, 72, 72
1, 28691, Control_c, 0, 64, 74
1, 28699, Note_off_c, 0, 72, 66
1, 28701, Note_on_c, 0, 73, 61
1, 28706, Note_on_c, 0, 75, 68
1, 28706, Control_c, 0, 64, 69
1, 28721, Control_c, 0, 64, 64
1, 28730, Note_off_c, 0, 75, 67
1, 28733, Note_off_c, 0, 73, 61
1, 28735, Control_c, 0, 64, 62
1, 28765, Control_c, 0, 64, 64
1, 28780, Control_c, 0, 64, 66
1, 28782, Note_on_c, 0, 71, 81
1, 28795, Control_c, 0, 64, 69
1, 28809, Control_c, 0, 64, 71
1, 28811, Note_off_c, 0, 71, 66
1, 28820, Note_on_c, 0, 73, 73
1, 28824, Control_c, 0, 64, 73
1, 28839, Control_c, 0, 64, 74
1, 28843, Note_off_c, 0, 73, 69
1, 28856, Note_on_c, 0, 72, 27
1, 28888, Note_off_c, 0, 72, 33
1, 28902, Note_on_c, 0, 71, 79
1, 28921, Control_c, 0, 64, 74
1, 28933, Note_off_c, 0, 71, 65
1, 28935, Note_on_c, 0, 73, 85
1, 28965, Note_off_c, 0, 73, 64
1, 28994, Control_c, 0, 64, 73
1, 29006, Note_on_c, 0, 72, 75
1, 29009, Control_c, 0, 64, 69
1, 29024, Control_c, 0, 64, 65
1, 29032, Note_off_c, 0, 72, 64
1, 29039, Control_c, 0, 64, 64
1, 29039, Control_c, 0, 67, 121
1, 29040, Note_on_c, 0, 75, 70
1, 29053, Control_c, 0, 64, 66
1, 29053, Control_c, 0, 67, 114
1, 29059, Note_on_c, 0, 73, 54
1, 29065, Note_off_c, 0, 75, 68
1, 29068, Control_c, 0, 64, 68
1, 29068, Control_c, 0, 67, 107
1, 29084, Control_c, 0, 64, 71
1, 29084, Control_c, 0, 67, 100
1, 29085, Note_off_c, 0, 73, 59
1, 29099, Control_c, 0, 64, 75
1, 29099, Control_c, 0, 67, 93
1, 29114, Control_c, 0, 64, 78
1, 29114, Control_c, 0, 67, 89
1, 29118, Note_on_c, 0, 71, 84
1, 29129, Control_c, 0, 64, 79
1, 29129, Control_c, 0, 67, 86
1, 29144, Control_c, 0, 64, 79
1, 29144, Control_c, 0, 67, 84
1, 29154, Note_off_c, 0, 71, 63
1, 29157, Note_on_c, 0, 73, 77
1, 29158, Control_c, 0, 64, 77
1, 29158, Control_c, 0, 67, 82
1, 29173, Control_c, 0, 64, 74
1, 29173, Control_c, 0, 67, 80
1, 29180, Note_on_c, 0, 72, 46
1, 29188, Control_c, 0, 64, 71
1, 29188, Control_c, 0, 67, 76
1, 29190, Note_off_c, 0, 73, 64
1, 29203, Note_off_c, 0, 72, 48
1, 29203, Control_c, 0, 64, 72
1, 29203, Control_c, 0, 67, 71
1, 29218, Control_c, 0, 64, 73
1, 29218, Control_c, 0, 67, 64
1, 29226, Note_on_c, 0, 71, 83
1, 29232, Control_c, 0, 64, 77
1, 29232, Control_c, 0, 67, 55
1, 29247, Control_c, 0, 64, 81
1, 29247, Control_c, 0, 67, 43
1, 29252, Note_off_c, 0, 71, 67
1, 29262, Control_c, 0, 64, 83
1, 29262, Control_c, 0, 67, 29
1, 29270, Note_on_c, 0, 73, 86
1, 29276, Control_c, 0, 67, 0
1, 29291, Control_c, 0, 64, 83
1, 29306, Note_off_c, 0, 73, 62
1, 29306, Control_c, 0, 64, 81
1, 29321, Control_c, 0, 64, 81
1, 29331, Note_on_c, 0, 72, 76
1, 29360, Note_off_c, 0, 72, 64
1, 29369, Note_on_c, 0, 75, 80
1, 29380, Control_c, 0, 64, 78
1, 29395, Control_c, 0, 64, 73
1, 29398, Note_off_c, 0, 75, 63
1, 29410, Control_c, 0, 64, 70
1, 29440, Control_c, 0, 64, 72
1, 29441, Note_on_c, 0, 71, 85
1, 29455, Control_c, 0, 64, 75
1, 29470, Control_c, 0, 64, 81
1, 29479, Note_off_c, 0, 71, 60
1, 29484, Control_c, 0, 64, 89
1, 29490, Note_on_c, 0, 73, 75
1, 29499, Control_c, 0, 64, 98
1, 29514, Note_off_c, 0, 73, 66
1, 29514, Control_c, 0, 64, 103
1, 29516, Note_on_c, 0, 72, 39
1, 29546, Note_on_c, 0, 71, 82
1, 29547, Note_off_c, 0, 72, 42
1, 29582, Note_off_c, 0, 71, 67
1, 29588, Control_c, 0, 64, 97
1, 29591, Note_on_c, 0, 73, 85
1, 29610, Control_c, 0, 64, 81
1, 29625, Control_c, 0, 64, 69
1, 29634, Note_on_c, 0, 75, 67
1, 29640, Control_c, 0, 64, 60
1, 29642, Note_on_c, 0, 72, 69
1, 29653, Note_off_c, 0, 73, 63
1, 29655, Control_c, 0, 64, 62
1, 29662, Note_off_c, 0, 72, 70
1, 29669, Control_c, 0, 64, 87
1, 29672, Note_off_c, 0, 75, 65
1, 29684, Control_c, 0, 64, 127
1, 29762, Note_on_c, 0, 83, 86
1, 29783, Note_off_c, 0, 83, 68
1, 29791, Note_on_c, 0, 85, 89
1, 29811, Note_off_c, 0, 85, 69
1, 29820, Note_on_c, 0, 84, 51
1, 29845, Note_off_c, 0, 84, 55
1, 29864, Note_on_c, 0, 83, 90
1, 29896, Note_off_c, 0, 83, 65
1, 29904, Note_on_c, 0, 85, 94
1, 29930, Note_off_c, 0, 85, 64
1, 29956, Note_on_c, 0, 84, 81
1, 29992, Note_off_c, 0, 84, 66
1, 30008, Note_on_c, 0, 87, 85
1, 30018, Note_on_c, 0, 85, 80
1, 30033, Note_off_c, 0, 85, 70
1, 30037, Note_off_c, 0, 87, 63
1, 30040, Control_c, 0, 64, 111
1, 30055, Control_c, 0, 64, 82
1, 30065, Note_on_c, 0, 83, 96
1, 30070, Control_c, 0, 64, 70
1, 30085, Control_c, 0, 64, 71
1, 30099, Control_c, 0, 64, 88
1, 30105, Note_off_c, 0, 83, 64
1, 30111, Note_on_c, 0, 85, 95
1, 30114, Control_c, 0, 64, 127
1, 30129, Note_on_c, 0, 84, 70
1, 30148, Note_off_c, 0, 84, 67
1, 30148, Note_off_c, 0, 85, 67
1, 30172, Note_on_c, 0, 83, 93
1, 30208, Note_on_c, 0, 85, 96
1, 30219, Note_off_c, 0, 83, 66
1, 30268, Note_on_c, 0, 84, 74
1, 30268, Note_on_c, 0, 87, 85
1, 30270, Note_off_c, 0, 85, 65
1, 30291, Note_off_c, 0, 84, 70
1, 30297, Note_off_c, 0, 87, 65
1, 30386, Note_on_c, 0, 95, 98
1, 30422, Note_off_c, 0, 95, 67
1, 30424, Note_on_c, 0, 97, 89
1, 30440, Note_on_c, 0, 96, 67
1, 30449, Note_off_c, 0, 97, 64
1, 30459, Note_off_c, 0, 96, 67
1, 30494, Note_on_c, 0, 95, 110
1, 30533, Note_on_c, 0, 97, 102
1, 30534, Note_off_c, 0, 95, 69
1, 30568, Note_off_c, 0, 97, 65
1, 30588, Note_on_c, 0, 96, 100
1, 30629, Note_off_c, 0, 96, 66
1, 30640, Note_on_c, 0, 99, 96
1, 30644, Note_on_c, 0, 97, 90
1, 30663, Note_off_c, 0, 97, 71
1, 30679, Note_off_c, 0, 99, 65
1, 30696, Note_on_c, 0, 95, 103
1, 30734, Note_off_c, 0, 95, 67
1, 30746, Note_on_c, 0, 97, 102
1, 30765, Note_on_c, 0, 96, 55
1, 30781, Note_off_c, 0, 97, 65
1, 30788, Note_off_c, 0, 96, 59
1, 30803, Note_on_c, 0, 95, 98
1, 30847, Note_on_c, 0, 97, 98
1, 30862, Note_off_c, 0, 95, 62
1, 30865, Note_on_c, 0, 96, 90
1, 30894, Note_on_c, 0, 99, 76
1, 30896, Note_off_c, 0, 96, 66
1, 30908, Note_off_c, 0, 97, 66
1, 30929, Note_off_c, 0, 99, 63
1, 31085, Control_c, 0, 64, 110
1, 31100, Note_on_c, 0, 100, 83
1, 31108, Control_c, 0, 64, 65
1, 31123, Control_c, 0, 64, 0
1, 31164, Note_on_c, 0, 98, 72
1, 31196, Control_c, 0, 64, 35
1, 31211, Control_c, 0, 64, 61
1, 31212, Note_on_c, 0, 96, 80
1, 31225, Note_off_c, 0, 100, 68
1, 31226, Control_c, 0, 64, 86
1, 31238, Note_on_c, 0, 94, 79
1, 31242, Control_c, 0, 64, 127
1, 31254, Note_off_c, 0, 98, 64
1, 31279, Note_off_c, 0, 96, 64
1, 31291, Note_on_c, 0, 91, 83
1, 31303, Note_on_c, 0, 88, 72
1, 31315, Note_off_c, 0, 94, 66
1, 31320, Note_off_c, 0, 91, 63
1, 31347, Note_on_c, 0, 86, 68
1, 31360, Note_off_c, 0, 88, 63
1, 31385, Note_off_c, 0, 86, 62
1, 31386, Note_on_c, 0, 84, 72
1, 31429, Note_on_c, 0, 82, 62
1, 31456, Note_off_c, 0, 84, 56
1, 31457, Note_on_c, 0, 79, 69
1, 31497, Note_off_c, 0, 82, 60
1, 31520, Note_on_c, 0, 76, 72
1, 31523, Note_off_c, 0, 79, 60
1, 31579, Note_on_c, 0, 74, 55
1, 31606, Note_off_c, 0, 76, 62
1, 31610, Note_on_c, 0, 72, 59
1, 31626, Note_off_c, 0, 74, 56
1, 31631, Note_on_c, 0, 70, 69
1, 31644, Note_off_c, 0, 72, 60
1, 31676, Note_off_c, 0, 70, 61
1, 31688, Note_on_c, 0, 67, 59
1, 31743, Note_on_c, 0, 70, 55
1, 31756, Note_off_c, 0, 67, 59
1, 31786, Note_on_c, 0, 72, 61
1, 31802, Note_off_c, 0, 70, 64
1, 31825, Note_on_c, 0, 74, 64
1, 31840, Note_off_c, 0, 72, 62
1, 31871, Note_on_c, 0, 76, 58
1, 31872, Note_off_c, 0, 74, 61
1, 31893, Note_on_c, 0, 79, 60
1, 31897, Note_off_c, 0, 76, 65
1, 31953, Note_on_c, 0, 82, 63
1, 31971, Note_off_c, 0, 79, 63
1, 31986, Note_on_c, 0, 84, 67
1, 32014, Note_on_c, 0, 86, 68
1, 32019, Note_off_c, 0, 82, 63
1, 32049, Note_off_c, 0, 84, 63
1, 32063, Note_on_c, 0, 88, 62
1, 32068, Note_off_c, 0, 86, 63
1, 32081, Note_on_c, 0, 91, 75
1, 32085, Note_off_c, 0, 88, 66
1, 32130, Note_on_c, 0, 94, 74
1, 32135, Note_off_c, 0, 91, 62
1, 32177, Note_on_c, 0, 96, 84
1, 32192, Note_off_c, 0, 94, 66
1, 32206, Note_on_c, 0, 98, 79
1, 32239, Note_off_c, 0, 96, 66
1, 32272, Note_on_c, 0, 100, 84
1, 32274, Note_off_c, 0, 98, 66
1, 32343, Note_on_c, 0, 98, 83
1, 32367, Note_on_c, 0, 96, 85
1, 32384, Note_off_c, 0, 100, 68
1, 32415, Note_on_c, 0, 94, 80
1, 32427, Note_off_c, 0, 98, 65
1, 32454, Note_on_c, 0, 91, 78
1, 32456, Note_off_c, 0, 96, 65
1, 32485, Note_off_c, 0, 94, 66
1, 32493, Note_on_c, 0, 88, 73
1, 32496, Note_off_c, 0, 91, 66
1, 32534, Note_on_c, 0, 86, 64
1, 32548, Note_off_c, 0, 88, 62
1, 32567, Note_on_c, 0, 84, 69
1, 32567, Note_off_c, 0, 86, 61
1, 32606, Note_on_c, 0, 82, 66
1, 32647, Note_on_c, 0, 79, 60
1, 32656, Note_off_c, 0, 84, 51
1, 32685, Note_on_c, 0, 77, 62
1, 32692, Note_off_c, 0, 79, 57
1, 32704, Note_off_c, 0, 82, 61
1, 32761, Note_off_c, 0, 77, 65
1, 32788, Note_on_c, 0, 72, 46
1, 32805, Note_on_c, 0, 70, 69
1, 32817, Note_off_c, 0, 72, 61
1, 32842, Note_off_c, 0, 70, 63
1, 32844, Poly_aftertouch_c, 0, 74, 0
1, 32861, Note_on_c, 0, 67, 60
1, 32892, Poly_aftertouch_c, 0, 74, 0
1, 32918, Note_on_c, 0, 70, 65
1, 32935, Note_off_c, 0, 67, 61
1, 32966, Note_on_c, 0, 72, 65
1, 32980, Note_off_c, 0, 70, 62
1, 32996, Note_on_c, 0, 74, 67
1, 33032, Note_off_c, 0, 72, 61
1, 33038, Note_on_c, 0, 76, 76
1, 33062, Note_off_c, 0, 74, 63
1, 33077, Note_on_c, 0, 79, 62
1, 33086, Note_off_c, 0, 76, 64
1, 33125, Note_on_c, 0, 82, 65
1, 33145, Note_off_c, 0, 79, 64
1, 33157, Note_on_c, 0, 84, 67
1, 33184, Note_on_c, 0, 86, 71
1, 33199, Note_off_c, 0, 82, 62
1, 33219, Note_on_c, 0, 88, 68
1, 33226, Note_off_c, 0, 84, 62
1, 33243, Note_off_c, 0, 86, 62
1, 33246, Note_on_c, 0, 91, 79
1, 33279, Note_off_c, 0, 88, 64
1, 33297, Note_on_c, 0, 94, 77
1, 33299, Note_off_c, 0, 91, 60
1, 33333, Note_on_c, 0, 96, 77
1, 33366, Note_off_c, 0, 94, 65
1, 33384, Note_on_c, 0, 98, 76
1, 33410, Note_off_c, 0, 96, 65
1, 33440, Note_on_c, 0, 100, 84
1, 33444, Note_off_c, 0, 98, 66
1, 33507, Note_on_c, 0, 98, 77
1, 33524, Note_on_c, 0, 96, 83
1, 33566, Note_off_c, 0, 100, 62
1, 33571, Note_on_c, 0, 94, 86
1, 33583, Note_off_c, 0, 98, 65
1, 33602, Note_on_c, 0, 91, 79
1, 33603, Note_off_c, 0, 96, 66
1, 33628, Note_on_c, 0, 88, 70
1, 33628, Note_off_c, 0, 94, 66
1, 33628, Note_off_c, 0, 91, 66
1, 33646, Note_on_c, 0, 86, 67
1, 33666, Note_on_c, 0, 84, 67
1, 33677, Note_off_c, 0, 86, 58
1, 33712, Note_off_c, 0, 88, 65
1, 33722, Note_on_c, 0, 79, 68
1, 33766, Note_off_c, 0, 84, 64
1, 33769, Note_off_c, 0, 79, 66
1, 33795, Note_on_c, 0, 76, 72
1, 33835, Note_on_c, 0, 74, 68
1, 33886, Note_off_c, 0, 76, 56
1, 33887, Note_on_c, 0, 72, 61
1, 33931, Note_on_c, 0, 70, 76
1, 33967, Note_off_c, 0, 72, 57
1, 33967, Note_off_c, 0, 74, 37
1, 33992, Note_on_c, 0, 60, 88
1, 34008, Note_on_c, 0, 62, 55
1, 34022, Note_off_c, 0, 60, 68
1, 34031, Note_off_c, 0, 62, 61
1, 34032, Note_off_c, 0, 70, 61
1, 34045, Note_on_c, 0, 67, 97
1, 34153, Note_on_c, 0, 70, 79
1, 34221, Note_on_c, 0, 72, 68
1, 34231, Note_off_c, 0, 67, 59
1, 34238, Note_off_c, 0, 70, 62
1, 34253, Note_on_c, 0, 74, 57
1, 34281, Note_on_c, 0, 76, 65
1, 34302, Note_off_c, 0, 72, 64
1, 34311, Note_off_c, 0, 76, 67
1, 34312, Note_off_c, 0, 74, 65
1, 34388, Note_on_c, 0, 79, 50
1, 34427, Note_on_c, 0, 82, 62
1, 34444, Note_off_c, 0, 79, 58
1, 34463, Note_on_c, 0, 84, 58
1, 34488, Note_off_c, 0, 82, 57
1, 34490, Note_off_c, 0, 84, 63
1, 34495, Note_on_c, 0, 86, 64
1, 34507, Note_on_c, 0, 91, 75
1, 34525, Note_off_c, 0, 86, 64
1, 34534, Note_on_c, 0, 88, 57
1, 34556, Note_off_c, 0, 91, 63
1, 34560, Note_on_c, 0, 94, 71
1, 34571, Note_off_c, 0, 88, 62
1, 34595, Note_on_c, 0, 96, 80
1, 34613, Note_off_c, 0, 94, 66
1, 34638, Note_on_c, 0, 98, 74
1, 34666, Note_off_c, 0, 96, 65
1, 34691, Note_on_c, 0, 100, 85
1, 34695, Note_off_c, 0, 98, 67
1, 34757, Note_on_c, 0, 98, 76
1, 34780, Note_on_c, 0, 96, 80
1, 34825, Note_off_c, 0, 100, 67
1, 34829, Note_on_c, 0, 94, 86
1, 34854, Note_off_c, 0, 98, 65
1, 34876, Note_on_c, 0, 91, 76
1, 34881, Note_off_c, 0, 96, 65
1, 34903, Note_on_c, 0, 88, 69
1, 34907, Note_off_c, 0, 94, 66
1, 34917, Note_off_c, 0, 91, 65
1, 34938, Note_on_c, 0, 86, 66
1, 34961, Note_off_c, 0, 88, 62
1, 34972, Note_on_c, 0, 84, 67
1, 34991, Note_off_c, 0, 86, 58
1, 35005, Note_on_c, 0, 82, 65
1, 35040, Note_on_c, 0, 79, 61
1, 35056, Note_off_c, 0, 84, 52
1, 35083, Note_off_c, 0, 82, 62
1, 35094, Note_off_c, 0, 79, 58
1, 35096, Note_on_c, 0, 76, 63
1, 35148, Note_on_c, 0, 74, 66
1, 35172, Note_off_c, 0, 76, 62
1, 35183, Note_on_c, 0, 72, 59
1, 35207, Note_off_c, 0, 74, 60
1, 35217, Note_on_c, 0, 70, 65
1, 35220, Note_off_c, 0, 72, 57
1, 35252, Note_off_c, 0, 70, 64
1, 35266, Note_on_c, 0, 67, 60
1, 35318, Note_on_c, 0, 70, 59
1, 35330, Note_off_c, 0, 67, 60
1, 35354, Note_on_c, 0, 72, 67
1, 35382, Note_off_c, 0, 70, 64
1, 35390, Note_on_c, 0, 74, 70
1, 35422, Note_off_c, 0, 72, 61
1, 35446, Note_off_c, 0, 74, 63
1, 35454, Note_on_c, 0, 79, 60
1, 35455, Note_on_c, 0, 76, 50
1, 35482, Note_off_c, 0, 76, 52
1, 35504, Note_on_c, 0, 82, 66
1, 35523, Note_off_c, 0, 79, 64
1, 35530, Note_on_c, 0, 84, 73
1, 35563, Note_on_c, 0, 86, 69
1, 35568, Note_off_c, 0, 82, 64
1, 35603, Note_off_c, 0, 84, 65
1, 35612, Note_on_c, 0, 88, 71
1, 35624, Note_off_c, 0, 86, 64
1, 35643, Note_on_c, 0, 91, 79
1, 35643, Note_off_c, 0, 88, 66
1, 35694, Note_on_c, 0, 94, 76
1, 35700, Note_off_c, 0, 91, 63
1, 35730, Note_on_c, 0, 96, 82
1, 35748, Note_off_c, 0, 94, 66
1, 35767, Note_on_c, 0, 98, 79
1, 35801, Note_off_c, 0, 96, 65
1, 35825, Note_on_c, 0, 100, 89
1, 35836, Note_off_c, 0, 98, 65
1, 35882, Note_on_c, 0, 98, 70
1, 35906, Note_on_c, 0, 96, 82
1, 35950, Note_off_c, 0, 100, 68
1, 35957, Note_on_c, 0, 94, 89
1, 35976, Note_off_c, 0, 98, 65
1, 35985, Note_on_c, 0, 88, 66
1, 35991, Note_on_c, 0, 91, 75
1, 35995, Note_off_c, 0, 96, 63
1, 36008, Note_on_c, 0, 86, 64
1, 36013, Note_off_c, 0, 91, 69
1, 36016, Note_off_c, 0, 94, 67
1, 36019, Note_on_c, 0, 85, 75
1, 36044, Note_off_c, 0, 86, 55
1, 36054, Note_off_c, 0, 88, 65
1, 36070, Note_off_c, 0, 85, 65
1, 36084, Note_on_c, 0, 79, 61
1, 36101, Note_on_c, 0, 84, 41
1, 36126, Note_off_c, 0, 79, 66
1, 36132, Note_off_c, 0, 84, 47
1, 36185, Note_on_c, 0, 76, 56
1, 36198, Note_on_c, 0, 74, 74
1, 36223, Note_off_c, 0, 76, 63
1, 36251, Note_on_c, 0, 72, 59
1, 36284, Note_off_c, 0, 74, 61
1, 36285, Note_on_c, 0, 70, 72
1, 36292, Note_off_c, 0, 72, 58
1, 36328, Note_on_c, 0, 60, 89
1, 36369, Note_off_c, 0, 70, 62
1, 36384, Note_on_c, 0, 69, 94
1, 36395, Note_off_c, 0, 60, 62
1, 36415, Note_off_c, 0, 69, 69
1, 36463, Note_on_c, 0, 67, 91
1, 36537, Note_on_c, 0, 70, 84
1, 36557, Note_off_c, 0, 67, 55
1, 36595, Note_on_c, 0, 72, 64
1, 36616, Note_on_c, 0, 74, 70
1, 36627, Note_off_c, 0, 70, 64
1, 36630, Poly_aftertouch_c, 0, 73, 127
1, 36645, Note_off_c, 0, 72, 62
1, 36657, Note_on_c, 0, 76, 63
1, 36668, Note_off_c, 0, 74, 64
1, 36670, Poly_aftertouch_c, 0, 73, 0
1, 36683, Note_off_c, 0, 76, 66
1, 36728, Note_on_c, 0, 84, 68
1, 36752, Note_on_c, 0, 83, 32
1, 36767, Note_on_c, 0, 86, 60
1, 36785, Note_off_c, 0, 83, 43
1, 36795, Note_off_c, 0, 84, 63
1, 36797, Note_on_c, 0, 88, 58
1, 36809, Note_off_c, 0, 86, 54
1, 36812, Note_on_c, 0, 91, 85
1, 36817, Note_off_c, 0, 88, 62
1, 36862, Note_on_c, 0, 94, 76
1, 36894, Note_on_c, 0, 96, 78
1, 36897, Note_off_c, 0, 91, 63
1, 36943, Note_on_c, 0, 98, 82
1, 36957, Note_off_c, 0, 94, 59
1, 36973, Note_off_c, 0, 96, 65
1, 36995, Note_off_c, 0, 98, 64
1, 37017, Control_c, 0, 64, 96
1, 37032, Control_c, 0, 64, 62
1, 37047, Control_c, 0, 64, 0
1, 37115, Control_c, 0, 64, 34
1, 37130, Control_c, 0, 64, 58
1, 37144, Control_c, 0, 64, 76
1, 37146, Note_on_c, 0, 65, 67
1, 37159, Control_c, 0, 64, 99
1, 37174, Control_c, 0, 64, 127
1, 37212, Note_off_c, 0, 65, 65
1, 37234, Note_on_c, 0, 71, 66
1, 37277, Note_on_c, 0, 73, 71
1, 37298, Note_on_c, 0, 61, 79
1, 37307, Note_off_c, 0, 71, 64
1, 37325, Note_on_c, 0, 75, 68
1, 37336, Note_off_c, 0, 73, 65
1, 37344, Note_off_c, 0, 61, 57
1, 37355, Note_off_c, 0, 75, 67
1, 37384, Poly_aftertouch_c, 0, 60, 127
1, 37405, Note_on_c, 0, 70, 106
1, 37414, Note_on_c, 0, 77, 58
1, 37415, Poly_aftertouch_c, 0, 60, 0
1, 37442, Note_off_c, 0, 70, 70
1, 37453, Note_off_c, 0, 77, 60
1, 37458, Note_on_c, 0, 83, 74
1, 37477, Note_on_c, 0, 85, 78
1, 37487, Poly_aftertouch_c, 0, 76, 0
1, 37491, Note_on_c, 0, 68, 95
1, 37500, Note_off_c, 0, 83, 59
1, 37542, Note_off_c, 0, 85, 64
1, 37547, Note_on_c, 0, 90, 82
1, 37551, Note_off_c, 0, 68, 65
1, 37558, Control_c, 0, 64, 91
1, 37570, Note_on_c, 0, 71, 80
1, 37573, Control_c, 0, 64, 55
1, 37588, Control_c, 0, 64, 0
1, 37618, Note_on_c, 0, 88, 77
1, 37623, Note_off_c, 0, 71, 66
1, 37633, Note_off_c, 0, 90, 64
1, 37640, Note_on_c, 0, 69, 68
1, 37644, Note_on_c, 0, 86, 77
1, 37647, Control_c, 0, 64, 47
1, 37662, Control_c, 0, 64, 68
1, 37667, Note_on_c, 0, 62, 69
1, 37676, Note_off_c, 0, 69, 64
1, 37677, Note_off_c, 0, 88, 64
1, 37677, Control_c, 0, 64, 100
1, 37684, Note_on_c, 0, 84, 77
1, 37691, Control_c, 0, 64, 127
1, 37697, Note_off_c, 0, 62, 65
1, 37714, Note_on_c, 0, 78, 78
1, 37719, Note_off_c, 0, 86, 61
1, 37733, Note_off_c, 0, 84, 65
1, 37738, Note_off_c, 0, 78, 66
1, 37772, Note_on_c, 0, 76, 65
1, 37799, Note_off_c, 0, 76, 66
1, 37806, Note_on_c, 0, 74, 68
1, 37839, Note_off_c, 0, 74, 68
1, 37869, Note_on_c, 0, 72, 33
1, 37889, Note_on_c, 0, 66, 56
1, 37899, Note_off_c, 0, 72, 35
1, 37910, Note_off_c, 0, 66, 56
1, 38060, Note_on_c, 0, 100, 76
1, 38070, Control_c, 0, 64, 89
1, 38085, Control_c, 0, 64, 55
1, 38096, Note_on_c, 0, 98, 80
1, 38100, Control_c, 0, 64, 0
1, 38126, Note_on_c, 0, 96, 82
1, 38134, Note_off_c, 0, 100, 68
1, 38156, Note_on_c, 0, 94, 85
1, 38159, Control_c, 0, 64, 51
1, 38164, Note_off_c, 0, 98, 65
1, 38174, Control_c, 0, 64, 78
1, 38189, Control_c, 0, 64, 127
1, 38198, Note_off_c, 0, 96, 65
1, 38204, Note_on_c, 0, 91, 80
1, 38219, Note_off_c, 0, 94, 67
1, 38235, Note_on_c, 0, 88, 76
1, 38241, Note_off_c, 0, 91, 65
1, 38265, Note_on_c, 0, 86, 69
1, 38294, Note_off_c, 0, 86, 60
1, 38296, Note_off_c, 0, 88, 59
1, 38299, Note_on_c, 0, 84, 66
1, 38346, Note_on_c, 0, 82, 39
1, 38358, Note_on_c, 0, 79, 63
1, 38377, Note_off_c, 0, 82, 49
1, 38394, Note_off_c, 0, 84, 62
1, 38402, Note_off_c, 0, 79, 64
1, 38427, Note_on_c, 0, 76, 67
1, 38464, Note_on_c, 0, 74, 72
1, 38511, Note_on_c, 0, 72, 63
1, 38512, Note_off_c, 0, 76, 55
1, 38540, Note_on_c, 0, 70, 78
1, 38562, Note_off_c, 0, 74, 49
1, 38578, Note_off_c, 0, 72, 59
1, 38595, Note_on_c, 0, 60, 88
1, 38618, Note_off_c, 0, 60, 70
1, 38636, Note_off_c, 0, 70, 63
1, 38643, Note_on_c, 0, 67, 97
1, 38721, Note_on_c, 0, 70, 82
1, 38776, Note_off_c, 0, 67, 53
1, 38782, Note_on_c, 0, 72, 70
1, 38802, Note_off_c, 0, 70, 64
1, 38812, Note_on_c, 0, 74, 63
1, 38840, Note_on_c, 0, 76, 70
1, 38862, Note_off_c, 0, 72, 64
1, 38866, Note_off_c, 0, 76, 69
1, 38871, Note_off_c, 0, 74, 65
1, 38919, Note_on_c, 0, 79, 72
1, 38961, Note_on_c, 0, 82, 63
1, 38976, Note_off_c, 0, 79, 64
1, 38985, Note_on_c, 0, 84, 70
1, 39020, Note_on_c, 0, 86, 64
1, 39021, Note_off_c, 0, 82, 62
1, 39049, Note_off_c, 0, 84, 59
1, 39053, Note_on_c, 0, 91, 79
1, 39058, Note_off_c, 0, 86, 60
1, 39059, Note_on_c, 0, 88, 66
1, 39085, Note_off_c, 0, 88, 68
1, 39099, Note_on_c, 0, 94, 76
1, 39112, Note_off_c, 0, 91, 54
1, 39124, Note_on_c, 0, 96, 84
1, 39139, Note_off_c, 0, 94, 68
1, 39178, Note_on_c, 0, 98, 77
1, 39196, Note_off_c, 0, 96, 65
1, 39202, Note_on_c, 0, 100, 92
1, 39235, Control_c, 0, 64, 91
1, 39250, Control_c, 0, 64, 79
1, 39261, Note_off_c, 0, 98, 0
1, 39261, Note_on_c, 0, 98, 17
1, 39265, Control_c, 0, 64, 79
1, 39274, Note_on_c, 0, 96, 89
1, 39280, Control_c, 0, 64, 88
1, 39295, Control_c, 0, 64, 127
1, 39312, Note_off_c, 0, 100, 67
1, 39319, Note_on_c, 0, 94, 94
1, 39321, Note_on_c, 0, 88, 68
1, 39353, Note_on_c, 0, 86, 67
1, 39355, Note_off_c, 0, 98, 60
1, 39363, Note_on_c, 0, 91, 88
1, 39369, Note_off_c, 0, 96, 65
1, 39392, Note_off_c, 0, 94, 67
1, 39402, Note_off_c, 0, 91, 64
1, 39407, Note_on_c, 0, 84, 56
1, 39407, Note_off_c, 0, 88, 66
1, 39412, Note_on_c, 0, 83, 55
1, 39412, Note_off_c, 0, 86, 63
1, 39432, Note_on_c, 0, 82, 58
1, 39435, Note_on_c, 0, 79, 69
1, 39439, Note_off_c, 0, 84, 66
1, 39439, Note_off_c, 0, 83, 66
1, 39453, Note_off_c, 0, 82, 59
1, 39466, Note_off_c, 0, 79, 67
1, 39509, Note_on_c, 0, 88, 89
1, 39544, Note_on_c, 0, 86, 73
1, 39554, Control_c, 0, 64, 90
1, 39569, Control_c, 0, 64, 79
1, 39573, Note_on_c, 0, 84, 82
1, 39584, Note_off_c, 0, 88, 57
1, 39584, Control_c, 0, 64, 78
1, 39599, Control_c, 0, 64, 83
1, 39608, Note_on_c, 0, 76, 66
1, 39609, Note_on_c, 0, 82, 76
1, 39614, Control_c, 0, 64, 93
1, 39620, Note_off_c, 0, 86, 61
1, 39629, Control_c, 0, 64, 127
1, 39644, Note_on_c, 0, 74, 67
1, 39646, Note_on_c, 0, 79, 75
1, 39650, Note_off_c, 0, 84, 61
1, 39662, Note_off_c, 0, 82, 66
1, 39687, Note_off_c, 0, 76, 57
1, 39694, Note_off_c, 0, 79, 65
1, 39704, Note_on_c, 0, 72, 52
1, 39712, Note_off_c, 0, 74, 60
1, 39731, Note_on_c, 0, 70, 53
1, 39741, Note_off_c, 0, 72, 64
1, 39746, Note_on_c, 0, 67, 60
1, 39761, Note_off_c, 0, 70, 66
1, 39777, Note_off_c, 0, 67, 67
1, 39836, Note_on_c, 0, 76, 64
1, 39879, Note_on_c, 0, 74, 62
1, 39880, Control_c, 0, 67, 20
1, 39895, Control_c, 0, 64, 87
1, 39895, Control_c, 0, 67, 23
1, 39898, Note_on_c, 0, 72, 65
1, 39899, Note_off_c, 0, 76, 57
1, 39910, Control_c, 0, 64, 70
1, 39910, Control_c, 0, 67, 25
1, 39925, Control_c, 0, 64, 59
1, 39932, Note_off_c, 0, 74, 58
1, 39937, Note_on_c, 0, 70, 63
1, 39939, Control_c, 0, 64, 53
1, 39939, Control_c, 0, 67, 28
1, 39942, Note_on_c, 0, 64, 43
1, 39954, Control_c, 0, 64, 58
1, 39969, Control_c, 0, 64, 65
1, 39969, Control_c, 0, 67, 31
1, 39970, Note_on_c, 0, 67, 61
1, 39974, Note_off_c, 0, 64, 54
1, 39974, Note_off_c, 0, 72, 55
1, 39983, Note_on_c, 0, 62, 53
1, 39984, Control_c, 0, 64, 73
1, 39984, Control_c, 0, 67, 34
1, 39999, Control_c, 0, 64, 84
1, 39999, Control_c, 0, 67, 38
1, 40009, Note_off_c, 0, 67, 62
1, 40013, Control_c, 0, 64, 96
1, 40013, Control_c, 0, 67, 41
1, 40015, Note_off_c, 0, 70, 64
1, 40020, Note_off_c, 0, 62, 62
1, 40028, Control_c, 0, 64, 102
1, 40028, Control_c, 0, 67, 44
1, 40043, Control_c, 0, 64, 105
1, 40043, Control_c, 0, 67, 46
1, 40058, Control_c, 0, 64, 107
1, 40073, Control_c, 0, 67, 47
1, 40076, Note_on_c, 0, 58, 41
1, 40095, Control_c, 0, 64, 109
1, 40095, Control_c, 0, 67, 47
1, 40103, Note_on_c, 0, 55, 50
1, 40110, Control_c, 0, 67, 50
1, 40112, Note_off_c, 0, 58, 61
1, 40125, Control_c, 0, 67, 54
1, 40129, Note_off_c, 0, 55, 60
1, 40139, Control_c, 0, 67, 60
1, 40154, Control_c, 0, 67, 67
1, 40169, Control_c, 0, 67, 73
1, 40184, Control_c, 0, 67, 79
1, 40199, Control_c, 0, 67, 84
1, 40213, Control_c, 0, 67, 90
1, 40228, Control_c, 0, 67, 95
1, 40243, Control_c, 0, 64, 106
1, 40243, Control_c, 0, 67, 100
1, 40258, Control_c, 0, 64, 94
1, 40258, Control_c, 0, 67, 107
1, 40259, Note_on_c, 0, 76, 51
1, 40274, Control_c, 0, 64, 74
1, 40274, Control_c, 0, 67, 115
1, 40283, Note_on_c, 0, 74, 54
1, 40288, Control_c, 0, 64, 57
1, 40288, Control_c, 0, 67, 125
1, 40292, Note_off_c, 0, 76, 61
1, 40303, Control_c, 0, 64, 0
1, 40303, Control_c, 0, 67, 127
1, 40314, Note_on_c, 0, 72, 57
1, 40329, Note_off_c, 0, 74, 55
1, 40354, Note_on_c, 0, 70, 63
1, 40362, Control_c, 0, 64, 36
1, 40377, Control_c, 0, 64, 61
1, 40384, Note_off_c, 0, 72, 61
1, 40392, Control_c, 0, 64, 72
1, 40394, Note_on_c, 0, 64, 44
1, 40400, Note_on_c, 0, 67, 53
1, 40407, Control_c, 0, 64, 79
1, 40422, Note_off_c, 0, 70, 64
1, 40422, Control_c, 0, 64, 85
1, 40425, Note_off_c, 0, 67, 65
1, 40428, Note_off_c, 0, 64, 56
1, 40436, Control_c, 0, 64, 87
1, 40449, Note_on_c, 0, 62, 43
1, 40451, Control_c, 0, 64, 89
1, 40466, Control_c, 0, 64, 91
1, 40476, Note_off_c, 0, 62, 57
1, 40481, Control_c, 0, 64, 91
1, 40486, Note_on_c, 0, 60, 48
1, 40496, Control_c, 0, 64, 92
1, 40511, Control_c, 0, 64, 92
1, 40535, Note_off_c, 0, 60, 59
1, 40541, Control_c, 0, 64, 93
1, 40586, Note_on_c, 0, 55, 50
1, 40615, Control_c, 0, 64, 92
1, 40630, Control_c, 0, 64, 90
1, 40644, Control_c, 0, 64, 88
1, 40659, Control_c, 0, 64, 86
1, 40666, Note_on_c, 0, 48, 62
1, 40674, Control_c, 0, 64, 85
1, 40692, Note_off_c, 0, 48, 69
1, 40721, Note_on_c, 0, 58, 47
1, 40722, Note_off_c, 0, 55, 57
1, 40762, Control_c, 0, 64, 86
1, 40768, Note_on_c, 0, 61, 51
1, 40777, Control_c, 0, 64, 86
1, 40780, Note_off_c, 0, 58, 60
1, 40812, Note_off_c, 0, 61, 61
1, 40843, Note_on_c, 0, 62, 41
1, 40844, Control_c, 0, 64, 87
1, 40869, Note_off_c, 0, 62, 58
1, 40879, Note_on_c, 0, 64, 47
1, 40922, Note_on_c, 0, 67, 61
1, 40925, Note_off_c, 0, 64, 60
1, 40966, Note_on_c, 0, 70, 73
1, 40986, Note_off_c, 0, 67, 46
1, 40991, Control_c, 0, 64, 85
1, 41000, Note_on_c, 0, 73, 73
1, 41006, Control_c, 0, 64, 82
1, 41021, Control_c, 0, 64, 81
1, 41033, Note_off_c, 0, 70, 65
1, 41036, Control_c, 0, 64, 81
1, 41051, Control_c, 0, 64, 85
1, 41056, Note_on_c, 0, 74, 70
1, 41065, Note_off_c, 0, 73, 65
1, 41066, Control_c, 0, 64, 87
1, 41089, Note_off_c, 0, 74, 60
1, 41094, Note_on_c, 0, 76, 74
1, 41096, Control_c, 0, 64, 85
1, 41110, Control_c, 0, 64, 81
1, 41125, Control_c, 0, 64, 79
1, 41164, Note_on_c, 0, 74, 61
1, 41170, Control_c, 0, 64, 80
1, 41181, Note_off_c, 0, 76, 61
1, 41185, Control_c, 0, 64, 81
1, 41198, Note_on_c, 0, 72, 61
1, 41227, Note_off_c, 0, 74, 58
1, 41229, Note_on_c, 0, 64, 27
1, 41239, Note_on_c, 0, 70, 64
1, 41265, Note_off_c, 0, 64, 49
1, 41268, Note_off_c, 0, 72, 61
1, 41274, Control_c, 0, 64, 80
1, 41276, Note_on_c, 0, 67, 51
1, 41279, Note_on_c, 0, 62, 42
1, 41289, Control_c, 0, 64, 79
1, 41304, Note_off_c, 0, 67, 68
1, 41306, Note_off_c, 0, 70, 64
1, 41317, Note_off_c, 0, 62, 51
1, 41328, Note_on_c, 0, 60, 42
1, 41363, Control_c, 0, 64, 81
1, 41375, Note_off_c, 0, 60, 63
1, 41378, Control_c, 0, 64, 81
1, 41392, Control_c, 0, 64, 82
1, 41414, Note_on_c, 0, 55, 55
1, 41422, Control_c, 0, 64, 80
1, 41437, Control_c, 0, 64, 77
1, 41452, Control_c, 0, 64, 75
1, 41466, Control_c, 0, 64, 74
1, 41491, Note_on_c, 0, 48, 68
1, 41496, Control_c, 0, 64, 75
1, 41510, Control_c, 0, 64, 78
1, 41511, Note_off_c, 0, 55, 59
1, 41518, Note_off_c, 0, 48, 67
1, 41519, Note_on_c, 0, 58, 30
1, 41525, Control_c, 0, 64, 81
1, 41540, Control_c, 0, 64, 84
1, 41555, Control_c, 0, 64, 86
1, 41570, Control_c, 0, 64, 88
1, 41572, Note_on_c, 0, 61, 49
1, 41590, Note_off_c, 0, 58, 62
1, 41592, Control_c, 0, 64, 88
1, 41612, Note_off_c, 0, 61, 63
1, 41622, Control_c, 0, 64, 89
1, 41626, Note_on_c, 0, 62, 51
1, 41659, Note_off_c, 0, 62, 65
1, 41674, Note_on_c, 0, 64, 48
1, 41718, Note_off_c, 0, 64, 58
1, 41719, Note_on_c, 0, 67, 65
1, 41769, Note_on_c, 0, 70, 76
1, 41784, Control_c, 0, 64, 88
1, 41788, Note_off_c, 0, 67, 55
1, 41799, Control_c, 0, 64, 86
1, 41805, Note_on_c, 0, 73, 74
1, 41814, Control_c, 0, 64, 79
1, 41829, Control_c, 0, 64, 71
1, 41834, Note_off_c, 0, 70, 64
1, 41843, Control_c, 0, 64, 69
1, 41859, Note_on_c, 0, 74, 65
1, 41860, Control_c, 0, 64, 70
1, 41861, Note_off_c, 0, 73, 65
1, 41875, Control_c, 0, 64, 76
1, 41889, Control_c, 0, 64, 81
1, 41891, Note_off_c, 0, 74, 61
1, 41895, Note_on_c, 0, 76, 77
1, 41904, Control_c, 0, 64, 82
1, 41919, Control_c, 0, 64, 81
1, 41933, Control_c, 0, 64, 79
1, 41948, Control_c, 0, 64, 77
1, 41960, Note_on_c, 0, 74, 58
1, 41963, Control_c, 0, 64, 77
1, 41977, Note_off_c, 0, 76, 61
1, 41993, Note_on_c, 0, 72, 63
1, 41993, Control_c, 0, 64, 77
1, 42007, Control_c, 0, 64, 78
1, 42021, Note_off_c, 0, 74, 60
1, 42022, Control_c, 0, 64, 79
1, 42031, Note_on_c, 0, 70, 66
1, 42037, Control_c, 0, 64, 80
1, 42052, Control_c, 0, 64, 80
1, 42058, Note_off_c, 0, 72, 61
1, 42067, Control_c, 0, 64, 81
1, 42081, Note_on_c, 0, 67, 52
1, 42084, Note_on_c, 0, 62, 46
1, 42096, Note_off_c, 0, 70, 63
1, 42103, Note_off_c, 0, 67, 66
1, 42114, Note_off_c, 0, 62, 55
1, 42116, Poly_aftertouch_c, 0, 64, 0
1, 42128, Note_on_c, 0, 60, 50
1, 42179, Note_off_c, 0, 60, 53
1, 42215, Control_c, 0, 64, 79
1, 42227, Poly_aftertouch_c, 0, 58, 127
1, 42230, Control_c, 0, 64, 75
1, 42237, Note_on_c, 0, 55, 53
1, 42245, Control_c, 0, 64, 69
1, 42259, Control_c, 0, 64, 66
1, 42265, Poly_aftertouch_c, 0, 58, 0
1, 42283, Note_on_c, 0, 48, 69
1, 42289, Control_c, 0, 64, 68
1, 42304, Control_c, 0, 64, 72
1, 42310, Note_off_c, 0, 48, 66
1, 42312, Note_off_c, 0, 55, 60
1, 42319, Control_c, 0, 64, 76
1, 42323, Note_on_c, 0, 58, 34
1, 42341, Control_c, 0, 64, 81
1, 42356, Control_c, 0, 64, 85
1, 42371, Control_c, 0, 64, 88
1, 42375, Note_on_c, 0, 61, 52
1, 42383, Note_off_c, 0, 58, 64
1, 42386, Control_c, 0, 64, 88
1, 42411, Note_off_c, 0, 61, 63
1, 42422, Note_on_c, 0, 62, 51
1, 42456, Note_off_c, 0, 62, 64
1, 42471, Note_on_c, 0, 64, 39
1, 42503, Note_off_c, 0, 64, 53
1, 42532, Note_on_c, 0, 67, 52
1, 42598, Note_on_c, 0, 70, 56
1, 42606, Note_off_c, 0, 67, 49
1, 42629, Note_on_c, 0, 73, 63
1, 42637, Control_c, 0, 64, 86
1, 42645, Note_off_c, 0, 70, 55
1, 42653, Control_c, 0, 64, 79
1, 42668, Control_c, 0, 64, 67
1, 42682, Control_c, 0, 64, 57
1, 42697, Control_c, 0, 64, 48
1, 42699, Note_off_c, 0, 73, 62
1, 42711, Note_on_c, 0, 74, 46
1, 42712, Control_c, 0, 64, 51
1, 42727, Control_c, 0, 64, 58
1, 42737, Note_off_c, 0, 74, 53
1, 42739, Note_on_c, 0, 76, 68
1, 42742, Control_c, 0, 64, 63
1, 42756, Control_c, 0, 64, 71
1, 42771, Control_c, 0, 64, 78
1, 42786, Control_c, 0, 64, 86
1, 42801, Control_c, 0, 64, 90
1, 42815, Note_on_c, 0, 74, 60
1, 42816, Control_c, 0, 64, 93
1, 42830, Control_c, 0, 64, 95
1, 42833, Note_off_c, 0, 76, 56
1, 42845, Note_on_c, 0, 72, 61
1, 42845, Control_c, 0, 64, 97
1, 42860, Control_c, 0, 64, 100
1, 42875, Control_c, 0, 64, 102
1, 42877, Note_off_c, 0, 74, 42
1, 42890, Control_c, 0, 64, 105
1, 42905, Control_c, 0, 64, 109
1, 42910, Note_on_c, 0, 70, 52
1, 42919, Note_on_c, 0, 64, 19
1, 42920, Control_c, 0, 64, 113
1, 42934, Note_off_c, 0, 72, 53
1, 42934, Control_c, 0, 64, 126
1, 42958, Note_on_c, 0, 67, 49
1, 42960, Note_off_c, 0, 64, 44
1, 42967, Note_on_c, 0, 62, 37
1, 42976, Note_off_c, 0, 70, 59
1, 42990, Note_off_c, 0, 67, 66
1, 43000, Note_off_c, 0, 62, 54
1, 43015, Note_on_c, 0, 60, 44
1, 43069, Note_off_c, 0, 60, 58
1, 43132, Note_on_c, 0, 55, 46
1, 43230, Note_on_c, 0, 48, 52
1, 43259, Note_off_c, 0, 48, 64
1, 43277, Note_on_c, 0, 58, 39
1, 43307, Note_off_c, 0, 55, 58
1, 43348, Note_on_c, 0, 60, 39
1, 43359, Note_off_c, 0, 58, 63
1, 43395, Note_off_c, 0, 60, 51
1, 43397, Note_on_c, 0, 62, 42
1, 43451, Note_on_c, 0, 64, 42
1, 43482, Note_off_c, 0, 62, 47
1, 43508, Note_on_c, 0, 67, 45
1, 43508, Note_off_c, 0, 64, 57
1, 43577, Note_on_c, 0, 70, 57
1, 43667, Note_on_c, 0, 72, 42
1, 43706, Note_on_c, 0, 74, 57
1, 43712, Control_c, 0, 67, 109
1, 43727, Control_c, 0, 67, 88
1, 43742, Control_c, 0, 67, 66
1, 43746, Note_off_c, 0, 67, 36
1, 43757, Control_c, 0, 67, 45
1, 43772, Control_c, 0, 67, 21
1, 43780, Note_off_c, 0, 72, 52
1, 43786, Control_c, 0, 67, 0
1, 43797, Note_off_c, 0, 70, 40
1, 43807, Note_off_c, 0, 74, 59
1, 43817, Note_on_c, 0, 76, 54
1, 43867, Note_off_c, 0, 76, 56
1, 44031, Control_c, 0, 64, 90
1, 44046, Control_c, 0, 64, 61
1, 44048, Note_on_c, 0, 31, 92
1, 44061, Control_c, 0, 64, 0
1, 44103, Note_on_c, 0, 65, 100
1, 44103, Note_on_c, 0, 73, 88
1, 44105, Control_c, 0, 64, 47
1, 44106, Note_on_c, 0, 77, 95
1, 44120, Control_c, 0, 64, 71
1, 44135, Control_c, 0, 64, 127
1, 44142, Note_off_c, 0, 65, 67
1, 44152, Note_off_c, 0, 73, 66
1, 44162, Note_off_c, 0, 77, 65
1, 44208, Note_off_c, 0, 31, 58
1, 44213, Note_on_c, 0, 43, 68
1, 44217, Poly_aftertouch_c, 0, 75, 0
1, 44228, Note_on_c, 0, 71, 90
1, 44233, Note_on_c, 0, 83, 100
1, 44261, Note_off_c, 0, 43, 64
1, 44270, Note_off_c, 0, 71, 66
1, 44270, Note_off_c, 0, 83, 68
1, 44396, Note_on_c, 0, 49, 36
1, 44425, Note_on_c, 0, 51, 51
1, 44432, Note_off_c, 0, 49, 52
1, 44464, Note_off_c, 0, 51, 63
1, 44482, Note_on_c, 0, 53, 48
1, 44526, Note_off_c, 0, 53, 58
1, 44542, Note_on_c, 0, 59, 42
1, 44580, Note_on_c, 0, 61, 51
1, 44584, Note_off_c, 0, 59, 64
1, 44619, Note_off_c, 0, 61, 61
1, 44623, Note_on_c, 0, 63, 63
1, 44675, Note_off_c, 0, 63, 62
1, 44684, Note_on_c, 0, 65, 69
1, 44729, Note_on_c, 0, 63, 55
1, 44741, Note_off_c, 0, 65, 63
1, 44773, Note_on_c, 0, 61, 72
1, 44787, Note_off_c, 0, 63, 64
1, 44828, Note_on_c, 0, 59, 71
1, 44830, Note_off_c, 0, 61, 64
1, 44856, Note_on_c, 0, 53, 71
1, 44872, Note_off_c, 0, 59, 62
1, 44895, Note_off_c, 0, 53, 60
1, 44900, Note_on_c, 0, 51, 77
1, 44937, Note_off_c, 0, 51, 63
1, 44942, Note_on_c, 0, 49, 64
1, 44977, Note_off_c, 0, 49, 64
1, 44987, Note_on_c, 0, 43, 71
1, 45048, Note_on_c, 0, 49, 77
1, 45057, Note_off_c, 0, 43, 61
1, 45091, Note_on_c, 0, 51, 72
1, 45098, Note_off_c, 0, 49, 65
1, 45136, Note_off_c, 0, 51, 64
1, 45138, Note_on_c, 0, 53, 72
1, 45151, Note_on_c, 0, 59, 66
1, 45178, Note_off_c, 0, 53, 62
1, 45206, Note_off_c, 0, 59, 63
1, 45208, Note_on_c, 0, 61, 69
1, 45245, Note_on_c, 0, 63, 74
1, 45267, Note_off_c, 0, 61, 61
1, 45290, Note_off_c, 0, 63, 65
1, 45294, Note_on_c, 0, 65, 81
1, 45355, Note_on_c, 0, 63, 75
1, 45379, Note_off_c, 0, 65, 65
1, 45401, Note_on_c, 0, 61, 84
1, 45406, Note_off_c, 0, 63, 68
1, 45423, Note_on_c, 0, 53, 58
1, 45438, Note_on_c, 0, 59, 72
1, 45444, Note_off_c, 0, 61, 64
1, 45483, Note_on_c, 0, 51, 67
1, 45486, Note_off_c, 0, 59, 65
1, 45486, Note_off_c, 0, 53, 59
1, 45539, Note_off_c, 0, 51, 63
1, 45544, Note_on_c, 0, 49, 75
1, 45587, Note_off_c, 0, 49, 65
1, 45658, Note_on_c, 0, 43, 66
1, 45707, Note_off_c, 0, 43, 60
1, 45713, Note_on_c, 0, 31, 96
1, 45722, Control_c, 0, 64, 81
1, 45737, Control_c, 0, 64, 42
1, 45751, Control_c, 0, 64, 0
1, 45764, Note_on_c, 0, 73, 92
1, 45769, Note_on_c, 0, 65, 102
1, 45775, Note_on_c, 0, 77, 92
1, 45796, Control_c, 0, 64, 57
1, 45807, Note_on_c, 0, 75, 46
1, 45808, Note_off_c, 0, 65, 68
1, 45810, Control_c, 0, 64, 98
1, 45811, Note_off_c, 0, 73, 67
1, 45825, Control_c, 0, 64, 127
1, 45826, Note_off_c, 0, 77, 68
1, 45832, Note_off_c, 0, 75, 57
1, 45855, Note_off_c, 0, 31, 60
1, 45880, Note_on_c, 0, 43, 68
1, 45923, Note_on_c, 0, 73, 94
1, 45927, Note_on_c, 0, 85, 97
1, 45928, Note_off_c, 0, 43, 64
1, 45949, Note_off_c, 0, 73, 65
1, 45950, Note_off_c, 0, 85, 64
1, 46017, Note_on_c, 0, 71, 100
1, 46020, Note_on_c, 0, 83, 92
1, 46020, Note_on_c, 0, 49, 62
1, 46035, Note_off_c, 0, 83, 71
1, 46051, Note_off_c, 0, 71, 61
1, 46054, Note_off_c, 0, 49, 67
1, 46066, Note_on_c, 0, 51, 62
1, 46122, Note_on_c, 0, 53, 55
1, 46132, Note_off_c, 0, 51, 60
1, 46184, Note_on_c, 0, 59, 51
1, 46201, Note_off_c, 0, 53, 55
1, 46229, Note_off_c, 0, 59, 59
1, 46258, Note_on_c, 0, 61, 48
1, 46298, Note_off_c, 0, 61, 61
1, 46305, Note_on_c, 0, 63, 63
1, 46351, Note_on_c, 0, 65, 66
1, 46363, Note_off_c, 0, 63, 0
1, 46383, Note_on_c, 0, 63, 48
1, 46407, Note_off_c, 0, 65, 62
1, 46437, Note_on_c, 0, 61, 64
1, 46457, Note_off_c, 0, 63, 62
1, 46485, Note_on_c, 0, 59, 64
1, 46492, Note_off_c, 0, 61, 63
1, 46506, Note_on_c, 0, 53, 59
1, 46527, Note_off_c, 0, 59, 61
1, 46544, Note_off_c, 0, 53, 62
1, 46547, Note_on_c, 0, 51, 73
1, 46574, Note_off_c, 0, 51, 68
1, 46585, Note_on_c, 0, 49, 65
1, 46620, Note_off_c, 0, 49, 65
1, 46634, Note_on_c, 0, 43, 69
1, 46696, Note_on_c, 0, 49, 69
1, 46704, Note_off_c, 0, 43, 60
1, 46729, Note_on_c, 0, 51, 75
1, 46735, Note_off_c, 0, 49, 65
1, 46768, Note_off_c, 0, 51, 66
1, 46775, Note_on_c, 0, 53, 76
1, 46789, Note_on_c, 0, 59, 64
1, 46810, Note_off_c, 0, 53, 64
1, 46844, Note_on_c, 0, 61, 70
1, 46845, Note_off_c, 0, 59, 64
1, 46881, Note_on_c, 0, 63, 79
1, 46894, Note_off_c, 0, 61, 60
1, 46924, Note_off_c, 0, 63, 65
1, 46926, Note_on_c, 0, 65, 79
1, 46978, Note_on_c, 0, 63, 77
1, 46989, Note_off_c, 0, 65, 66
1, 47024, Note_on_c, 0, 61, 78
1, 47036, Note_off_c, 0, 63, 65
1, 47048, Note_on_c, 0, 53, 64
1, 47057, Note_on_c, 0, 59, 75
1, 47063, Note_off_c, 0, 61, 65
1, 47107, Note_on_c, 0, 51, 72
1, 47107, Note_off_c, 0, 59, 62
1, 47111, Note_off_c, 0, 53, 60
1, 47145, Note_off_c, 0, 51, 63
1, 47173, Note_on_c, 0, 49, 50
1, 47188, Note_on_c, 0, 48, 61
1, 47199, Note_off_c, 0, 49, 62
1, 47220, Note_off_c, 0, 48, 66
1, 47257, Note_on_c, 0, 43, 74
1, 47308, Note_off_c, 0, 43, 60
1, 47322, Note_on_c, 0, 31, 85
1, 47323, Control_c, 0, 64, 85
1, 47338, Control_c, 0, 64, 49
1, 47353, Control_c, 0, 64, 0
1, 47364, Note_on_c, 0, 73, 96
1, 47367, Note_on_c, 0, 65, 106
1, 47368, Note_on_c, 0, 77, 93
1, 47382, Control_c, 0, 64, 33
1, 47384, Note_on_c, 0, 71, 60
1, 47393, Note_off_c, 0, 31, 62
1, 47397, Control_c, 0, 64, 66
1, 47403, Note_off_c, 0, 71, 62
1, 47406, Note_off_c, 0, 65, 68
1, 47409, Note_on_c, 0, 43, 75
1, 47412, Note_off_c, 0, 73, 69
1, 47412, Control_c, 0, 64, 127
1, 47425, Note_off_c, 0, 77, 66
1, 47461, Note_off_c, 0, 43, 64
1, 47599, Note_on_c, 0, 50, 53
1, 47631, Note_off_c, 0, 50, 63
1, 47669, Note_on_c, 0, 53, 26
1, 47677, Note_on_c, 0, 52, 13
1, 47703, Note_on_c, 0, 59, 61
1, 47706, Note_off_c, 0, 53, 43
1, 47722, Note_off_c, 0, 52, 52
1, 47740, Note_off_c, 0, 59, 63
1, 47742, Note_on_c, 0, 73, 101
1, 47745, Note_on_c, 0, 85, 103
1, 47786, Note_off_c, 0, 73, 62
1, 47787, Note_on_c, 0, 61, 62
1, 47799, Note_off_c, 0, 85, 64
1, 47822, Note_off_c, 0, 61, 62
1, 47831, Note_on_c, 0, 63, 65
1, 47863, Note_off_c, 0, 63, 63
1, 47880, Note_on_c, 0, 65, 71
1, 47907, Note_off_c, 0, 65, 69
1, 47962, Note_on_c, 0, 53, 77
1, 47981, Note_on_c, 0, 71, 102
1, 47983, Control_c, 0, 64, 109
1, 47984, Note_on_c, 0, 83, 96
1, 47997, Control_c, 0, 64, 113
1, 48012, Control_c, 0, 64, 127
1, 48017, Note_on_c, 0, 59, 63
1, 48022, Note_off_c, 0, 71, 69
1, 48038, Note_off_c, 0, 83, 62
1, 48045, Note_off_c, 0, 53, 59
1, 48048, Note_on_c, 0, 61, 81
1, 48080, Note_off_c, 0, 59, 62
1, 48103, Note_on_c, 0, 63, 79
1, 48121, Note_off_c, 0, 61, 61
1, 48151, Note_off_c, 0, 63, 62
1, 48157, Note_on_c, 0, 71, 72
1, 48198, Note_off_c, 0, 71, 56
1, 48249, Note_on_c, 0, 73, 83
1, 48253, Note_on_c, 0, 75, 106
1, 48257, Note_on_c, 0, 87, 97
1, 48259, Note_on_c, 0, 77, 89
1, 48275, Note_on_c, 0, 83, 69
1, 48282, Note_off_c, 0, 77, 65
1, 48291, Note_off_c, 0, 83, 66
1, 48296, Note_off_c, 0, 87, 68
1, 48300, Note_off_c, 0, 73, 63
1, 48326, Note_off_c, 0, 75, 63
1, 48360, Note_on_c, 0, 77, 69
1, 48418, Note_on_c, 0, 75, 66
1, 48422, Note_off_c, 0, 77, 62
1, 48436, Note_off_c, 0, 75, 65
1, 48451, Note_on_c, 0, 74, 54
1, 48473, Note_off_c, 0, 74, 58
1, 48500, Note_on_c, 0, 72, 44
1, 48524, Note_off_c, 0, 72, 49
1, 48626, Note_on_c, 0, 73, 105
1, 48628, Note_on_c, 0, 85, 103
1, 48637, Note_on_c, 0, 69, 10
1, 48655, Note_on_c, 0, 65, 53
1, 48661, Note_off_c, 0, 73, 65
1, 48662, Note_off_c, 0, 85, 68
1, 48665, Note_on_c, 0, 64, 44
1, 48682, Note_off_c, 0, 69, 39
1, 48686, Note_off_c, 0, 65, 65
1, 48690, Note_off_c, 0, 64, 62
1, 48727, Note_on_c, 0, 61, 56
1, 48750, Note_off_c, 0, 61, 62
1, 48811, Note_on_c, 0, 59, 65
1, 48875, Note_on_c, 0, 53, 63
1, 48880, Note_off_c, 0, 59, 59
1, 48892, Note_on_c, 0, 67, 99
1, 48896, Note_on_c, 0, 79, 99
1, 48902, Note_on_c, 0, 51, 70
1, 48930, Note_off_c, 0, 53, 63
1, 48933, Note_on_c, 0, 49, 79
1, 48939, Note_off_c, 0, 79, 66
1, 48941, Note_off_c, 0, 67, 65
1, 48948, Note_off_c, 0, 51, 64
1, 48960, Note_off_c, 0, 49, 69
1, 49169, Control_c, 0, 64, 100
1, 49184, Control_c, 0, 64, 59
1, 49192, Note_on_c, 0, 31, 94
1, 49199, Control_c, 0, 64, 0
1, 49209, Note_on_c, 0, 65, 101
1, 49211, Note_on_c, 0, 73, 93
1, 49215, Note_on_c, 0, 77, 94
1, 49244, Control_c, 0, 64, 60
1, 49247, Note_off_c, 0, 65, 66
1, 49251, Note_off_c, 0, 73, 62
1, 49259, Control_c, 0, 64, 127
1, 49261, Note_off_c, 0, 77, 67
1, 49278, Note_on_c, 0, 75, 3
1, 49278, Note_off_c, 0, 75, 127
1, 49281, Note_off_c, 0, 31, 59
1, 49304, Note_on_c, 0, 43, 73
1, 49322, Note_on_c, 0, 71, 97
1, 49326, Note_on_c, 0, 83, 104
1, 49329, Note_off_c, 0, 43, 65
1, 49353, Note_off_c, 0, 71, 71
1, 49356, Note_off_c, 0, 83, 67
1, 49439, Note_on_c, 0, 49, 55
1, 49467, Note_on_c, 0, 51, 64
1, 49469, Note_off_c, 0, 49, 64
1, 49510, Note_off_c, 0, 51, 63
1, 49513, Note_on_c, 0, 53, 63
1, 49558, Note_on_c, 0, 59, 61
1, 49562, Note_off_c, 0, 53, 58
1, 49588, Note_off_c, 0, 59, 65
1, 49603, Note_on_c, 0, 61, 62
1, 49637, Note_off_c, 0, 61, 64
1, 49648, Note_on_c, 0, 63, 41
1, 49663, Note_on_c, 0, 62, 59
1, 49679, Note_off_c, 0, 63, 55
1, 49686, Note_off_c, 0, 62, 61
1, 49706, Note_on_c, 0, 65, 56
1, 49708, Note_on_c, 0, 64, 55
1, 49742, Note_off_c, 0, 64, 63
1, 49755, Note_on_c, 0, 63, 75
1, 49758, Note_off_c, 0, 65, 64
1, 49764, Note_on_c, 0, 61, 68
1, 49779, Note_off_c, 0, 63, 69
1, 49840, Note_on_c, 0, 59, 68
1, 49845, Note_off_c, 0, 61, 60
1, 49873, Poly_aftertouch_c, 0, 62, 0
1, 49885, Note_on_c, 0, 53, 36
1, 49902, Note_on_c, 0, 51, 70
1, 49902, Note_off_c, 0, 59, 60
1, 49919, Note_off_c, 0, 53, 47
1, 49927, Note_off_c, 0, 51, 67
1, 49963, Note_on_c, 0, 49, 45
1, 49979, Note_on_c, 0, 43, 75
1, 49997, Note_off_c, 0, 49, 53
1, 50033, Note_on_c, 0, 49, 71
1, 50065, Note_on_c, 0, 51, 73
1, 50066, Note_off_c, 0, 43, 61
1, 50092, Note_off_c, 0, 49, 63
1, 50109, Note_on_c, 0, 59, 66
1, 50115, Note_on_c, 0, 53, 72
1, 50125, Note_off_c, 0, 51, 60
1, 50139, Note_off_c, 0, 53, 66
1, 50154, Note_on_c, 0, 61, 73
1, 50190, Note_on_c, 0, 63, 76
1, 50193, Note_off_c, 0, 59, 62
1, 50220, Note_off_c, 0, 61, 65
1, 50227, Note_on_c, 0, 65, 77
1, 50238, Note_off_c, 0, 63, 66
1, 50259, Note_off_c, 0, 65, 65
1, 50309, Note_on_c, 0, 55, 81
1, 50365, Note_on_c, 0, 61, 76
1, 50391, Note_off_c, 0, 55, 62
1, 50402, Note_on_c, 0, 63, 83
1, 50440, Note_off_c, 0, 61, 61
1, 50447, Note_on_c, 0, 71, 69
1, 50449, Note_on_c, 0, 58, 6
1, 50454, Note_on_c, 0, 65, 81
1, 50458, Note_off_c, 0, 63, 65
1, 50482, Note_off_c, 0, 58, 44
1, 50482, Note_off_c, 0, 65, 66
1, 50487, Note_on_c, 0, 73, 82
1, 50526, Note_on_c, 0, 75, 82
1, 50532, Note_off_c, 0, 71, 62
1, 50554, Note_off_c, 0, 73, 68
1, 50564, Note_on_c, 0, 77, 83
1, 50579, Note_off_c, 0, 75, 69
1, 50602, Note_off_c, 0, 77, 66
1, 50644, Note_on_c, 0, 67, 94
1, 50697, Note_on_c, 0, 73, 81
1, 50732, Note_off_c, 0, 67, 60
1, 50738, Note_on_c, 0, 75, 83
1, 50759, Note_on_c, 0, 74, 39
1, 50762, Note_off_c, 0, 73, 63
1, 50768, Note_on_c, 0, 83, 74
1, 50784, Note_off_c, 0, 75, 68
1, 50786, Note_on_c, 0, 77, 74
1, 50791, Note_off_c, 0, 74, 48
1, 50807, Note_on_c, 0, 85, 84
1, 50809, Note_off_c, 0, 77, 68
1, 50848, Note_off_c, 0, 83, 58
1, 50850, Note_on_c, 0, 87, 89
1, 50882, Note_off_c, 0, 85, 67
1, 50894, Note_on_c, 0, 89, 90
1, 50899, Note_off_c, 0, 87, 69
1, 50933, Note_off_c, 0, 89, 66
1, 50964, Note_on_c, 0, 79, 87
1, 51028, Note_on_c, 0, 86, 78
1, 51049, Note_off_c, 0, 79, 45
1, 51056, Note_on_c, 0, 88, 81
1, 51063, Note_on_c, 0, 95, 79
1, 51089, Note_off_c, 0, 86, 62
1, 51090, Note_on_c, 0, 89, 76
1, 51099, Note_off_c, 0, 88, 65
1, 51120, Note_on_c, 0, 97, 80
1, 51136, Note_off_c, 0, 95, 59
1, 51139, Note_off_c, 0, 89, 62
1, 51167, Note_on_c, 0, 99, 81
1, 51185, Note_off_c, 0, 97, 65
1, 51212, Note_off_c, 0, 99, 64
1, 51281, Note_on_c, 0, 101, 98
1, 51290, Control_c, 0, 64, 100
1, 51305, Control_c, 0, 64, 66
1, 51327, Control_c, 0, 64, 0
1, 51348, Note_on_c, 0, 99, 84
1, 51379, Note_on_c, 0, 97, 85
1, 51406, Note_on_c, 0, 95, 83
1, 51416, Control_c, 0, 64, 36
1, 51422, Note_off_c, 0, 101, 63
1, 51430, Control_c, 0, 64, 57
1, 51445, Note_off_c, 0, 99, 64
1, 51446, Control_c, 0, 64, 67
1, 51451, Note_off_c, 0, 97, 66
1, 51452, Note_on_c, 0, 94, 69
1, 51454, Note_on_c, 0, 89, 79
1, 51461, Control_c, 0, 64, 75
1, 51465, Note_off_c, 0, 95, 66
1, 51476, Control_c, 0, 64, 87
1, 51484, Note_on_c, 0, 92, 70
1, 51491, Control_c, 0, 64, 108
1, 51495, Note_off_c, 0, 94, 63
1, 51499, Note_off_c, 0, 89, 65
1, 51506, Control_c, 0, 64, 127
1, 51509, Note_on_c, 0, 90, 80
1, 51518, Note_off_c, 0, 92, 63
1, 51543, Note_on_c, 0, 87, 80
1, 51550, Note_off_c, 0, 90, 66
1, 51584, Note_off_c, 0, 87, 64
1, 51615, Note_on_c, 0, 89, 92
1, 51639, Control_c, 0, 64, 112
1, 51654, Control_c, 0, 64, 85
1, 51663, Note_on_c, 0, 87, 87
1, 51669, Control_c, 0, 64, 74
1, 51683, Control_c, 0, 64, 73
1, 51686, Note_on_c, 0, 85, 83
1, 51698, Control_c, 0, 64, 75
1, 51712, Note_on_c, 0, 83, 83
1, 51713, Control_c, 0, 64, 83
1, 51718, Note_off_c, 0, 89, 62
1, 51728, Control_c, 0, 64, 100
1, 51743, Control_c, 0, 64, 103
1, 51748, Note_off_c, 0, 87, 65
1, 51756, Note_on_c, 0, 82, 73
1, 51758, Control_c, 0, 64, 101
1, 51761, Note_on_c, 0, 77, 75
1, 51762, Note_off_c, 0, 85, 65
1, 51772, Control_c, 0, 64, 98
1, 51775, Note_off_c, 0, 83, 64
1, 51787, Control_c, 0, 64, 95
1, 51802, Control_c, 0, 64, 95
1, 51806, Note_off_c, 0, 77, 65
1, 51818, Note_off_c, 0, 82, 60
1, 51834, Note_on_c, 0, 79, 65
1, 51846, Control_c, 0, 64, 92
1, 51859, Note_on_c, 0, 75, 71
1, 51861, Control_c, 0, 64, 82
1, 51862, Note_off_c, 0, 79, 69
1, 51876, Control_c, 0, 64, 73
1, 51891, Control_c, 0, 64, 70
1, 51898, Note_off_c, 0, 75, 62
1, 51906, Control_c, 0, 64, 72
1, 51920, Control_c, 0, 64, 73
1, 51920, Control_c, 0, 67, 19
1, 51931, Note_on_c, 0, 77, 78
1, 51935, Control_c, 0, 64, 71
1, 51950, Control_c, 0, 64, 66
1, 51964, Control_c, 0, 64, 62
1, 51964, Control_c, 0, 67, 22
1, 51976, Note_on_c, 0, 75, 72
1, 51979, Control_c, 0, 64, 61
1, 51994, Control_c, 0, 64, 65
1, 51994, Control_c, 0, 67, 25
1, 51999, Note_on_c, 0, 73, 75
1, 52009, Control_c, 0, 64, 70
1, 52009, Control_c, 0, 67, 28
1, 52017, Note_off_c, 0, 77, 62
1, 52024, Control_c, 0, 64, 77
1, 52026, Note_on_c, 0, 71, 73
1, 52038, Control_c, 0, 67, 31
1, 52045, Note_off_c, 0, 75, 63
1, 52053, Control_c, 0, 64, 75
1, 52074, Note_off_c, 0, 73, 66
1, 52076, Control_c, 0, 64, 75
1, 52076, Control_c, 0, 67, 32
1, 52080, Note_on_c, 0, 65, 74
1, 52091, Control_c, 0, 67, 33
1, 52092, Note_off_c, 0, 71, 63
1, 52095, Note_on_c, 0, 70, 59
1, 52116, Note_off_c, 0, 65, 65
1, 52120, Control_c, 0, 67, 34
1, 52135, Control_c, 0, 64, 71
1, 52135, Control_c, 0, 67, 35
1, 52140, Note_off_c, 0, 70, 54
1, 52150, Control_c, 0, 64, 65
1, 52150, Control_c, 0, 67, 36
1, 52151, Note_on_c, 0, 68, 47
1, 52162, Note_on_c, 0, 66, 66
1, 52165, Control_c, 0, 64, 57
1, 52165, Control_c, 0, 67, 40
1, 52179, Control_c, 0, 64, 57
1, 52179, Control_c, 0, 67, 42
1, 52180, Note_off_c, 0, 68, 65
1, 52191, Note_off_c, 0, 66, 66
1, 52194, Control_c, 0, 64, 62
1, 52194, Control_c, 0, 67, 43
1, 52196, Note_on_c, 0, 63, 62
1, 52209, Control_c, 0, 64, 66
1, 52209, Control_c, 0, 67, 44
1, 52224, Note_off_c, 0, 63, 66
1, 52224, Control_c, 0, 64, 70
1, 52224, Control_c, 0, 67, 45
1, 52239, Control_c, 0, 64, 72
1, 52239, Control_c, 0, 67, 48
1, 52255, Control_c, 0, 64, 73
1, 52255, Control_c, 0, 67, 51
1, 52269, Control_c, 0, 64, 76
1, 52269, Control_c, 0, 67, 53
1, 52279, Note_on_c, 0, 65, 66
1, 52284, Control_c, 0, 64, 82
1, 52284, Control_c, 0, 67, 56
1, 52299, Control_c, 0, 67, 58
1, 52314, Control_c, 0, 64, 74
1, 52314, Control_c, 0, 67, 60
1, 52315, Note_on_c, 0, 63, 64
1, 52329, Control_c, 0, 64, 61
1, 52329, Control_c, 0, 67, 63
1, 52339, Note_off_c, 0, 65, 62
1, 52343, Control_c, 0, 64, 48
1, 52343, Control_c, 0, 67, 67
1, 52345, Note_on_c, 0, 61, 64
1, 52358, Control_c, 0, 64, 52
1, 52358, Control_c, 0, 67, 72
1, 52373, Control_c, 0, 64, 60
1, 52373, Control_c, 0, 67, 79
1, 52384, Note_on_c, 0, 59, 57
1, 52384, Note_off_c, 0, 63, 62
1, 52388, Control_c, 0, 64, 68
1, 52388, Control_c, 0, 67, 85
1, 52402, Control_c, 0, 64, 72
1, 52402, Control_c, 0, 67, 90
1, 52411, Note_off_c, 0, 61, 58
1, 52417, Note_off_c, 0, 59, 63
1, 52417, Control_c, 0, 64, 73
1, 52417, Control_c, 0, 67, 93
1, 52427, Note_on_c, 0, 53, 47
1, 52432, Control_c, 0, 64, 71
1, 52432, Control_c, 0, 67, 96
1, 52447, Control_c, 0, 64, 70
1, 52448, Note_on_c, 0, 58, 44
1, 52454, Note_off_c, 0, 53, 59
1, 52462, Control_c, 0, 64, 69
1, 52462, Control_c, 0, 67, 98
1, 52491, Control_c, 0, 64, 71
1, 52495, Note_off_c, 0, 58, 61
1, 52506, Control_c, 0, 64, 73
1, 52519, Note_on_c, 0, 54, 45
1, 52521, Control_c, 0, 64, 74
1, 52521, Control_c, 0, 67, 101
1, 52536, Control_c, 0, 64, 74
1, 52536, Control_c, 0, 67, 104
1, 52541, Poly_aftertouch_c, 0, 55, 0
1, 52545, Note_off_c, 0, 54, 60
1, 52548, Note_on_c, 0, 51, 52
1, 52551, Control_c, 0, 64, 75
1, 52551, Control_c, 0, 67, 107
1, 52581, Note_off_c, 0, 51, 64
1, 52610, Control_c, 0, 64, 74
1, 52640, Control_c, 0, 64, 74
1, 52640, Control_c, 0, 67, 109
1, 52655, Control_c, 0, 64, 71
1, 52655, Control_c, 0, 67, 112
1, 52660, Note_on_c, 0, 65, 60
1, 52669, Control_c, 0, 64, 65
1, 52669, Control_c, 0, 67, 121
1, 52684, Control_c, 0, 64, 52
1, 52684, Control_c, 0, 67, 127
1, 52699, Control_c, 0, 64, 0
1, 52701, Note_on_c, 0, 63, 64
1, 52717, Note_off_c, 0, 65, 62
1, 52744, Note_on_c, 0, 61, 61
1, 52768, Note_off_c, 0, 63, 64
1, 52773, Control_c, 0, 64, 35
1, 52786, Note_on_c, 0, 59, 54
1, 52787, Control_c, 0, 64, 53
1, 52797, Note_off_c, 0, 61, 63
1, 52802, Control_c, 0, 64, 65
1, 52824, Note_off_c, 0, 59, 65
1, 52825, Control_c, 0, 64, 71
1, 52840, Control_c, 0, 64, 74
1, 52855, Control_c, 0, 64, 75
1, 52861, Note_on_c, 0, 58, 49
1, 52869, Control_c, 0, 64, 76
1, 52884, Control_c, 0, 64, 76
1, 52899, Control_c, 0, 64, 77
1, 52900, Note_off_c, 0, 58, 63
1, 52906, Note_on_c, 0, 56, 52
1, 52928, Control_c, 0, 64, 77
1, 52939, Note_off_c, 0, 56, 60
1, 52947, Note_on_c, 0, 54, 54
1, 52998, Note_off_c, 0, 54, 59
1, 53032, Control_c, 0, 64, 77
1, 53039, Note_on_c, 0, 51, 43
1, 53048, Control_c, 0, 64, 75
1, 53063, Control_c, 0, 64, 73
1, 53078, Control_c, 0, 64, 71
1, 53087, Note_on_c, 0, 44, 59
1, 53114, Note_off_c, 0, 44, 66
1, 53137, Control_c, 0, 64, 72
1, 53151, Control_c, 0, 64, 74
1, 53166, Control_c, 0, 64, 75
1, 53181, Control_c, 0, 64, 76
1, 53203, Note_off_c, 0, 51, 58
1, 53207, Note_on_c, 0, 54, 14
1, 53225, Control_c, 0, 64, 75
1, 53230, Note_on_c, 0, 56, 47
1, 53240, Control_c, 0, 64, 74
1, 53248, Note_off_c, 0, 54, 52
1, 53255, Control_c, 0, 64, 73
1, 53292, Note_off_c, 0, 56, 55
1, 53295, Note_on_c, 0, 58, 43
1, 53314, Control_c, 0, 64, 74
1, 53329, Control_c, 0, 64, 75
1, 53330, Note_off_c, 0, 58, 64
1, 53356, Note_on_c, 0, 59, 53
1, 53359, Control_c, 0, 64, 74
1, 53374, Control_c, 0, 64, 72
1, 53389, Control_c, 0, 64, 69
1, 53394, Note_off_c, 0, 59, 60
1, 53403, Control_c, 0, 64, 68
1, 53406, Note_on_c, 0, 61, 53
1, 53418, Control_c, 0, 64, 69
1, 53429, Note_on_c, 0, 63, 69
1, 53433, Control_c, 0, 64, 71
1, 53448, Control_c, 0, 64, 76
1, 53452, Note_off_c, 0, 61, 57
1, 53463, Control_c, 0, 64, 82
1, 53472, Note_off_c, 0, 63, 63
1, 53478, Control_c, 0, 64, 87
1, 53478, Note_on_c, 0, 65, 68
1, 53492, Control_c, 0, 64, 89
1, 53507, Control_c, 0, 64, 89
1, 53522, Control_c, 0, 64, 83
1, 53526, Note_on_c, 0, 63, 62
1, 53536, Control_c, 0, 64, 77
1, 53547, Note_off_c, 0, 65, 63
1, 53551, Control_c, 0, 64, 73
1, 53568, Note_on_c, 0, 61, 70
1, 53582, Note_off_c, 0, 63, 63
1, 53588, Control_c, 0, 64, 74
1, 53603, Control_c, 0, 64, 77
1, 53618, Control_c, 0, 64, 78
1, 53619, Note_on_c, 0, 59, 57
1, 53619, Note_off_c, 0, 61, 63
1, 53648, Note_off_c, 0, 59, 68
1, 53655, Note_on_c, 0, 58, 49
1, 53693, Note_off_c, 0, 58, 63
1, 53696, Note_on_c, 0, 56, 51
1, 53702, Poly_aftertouch_c, 0, 53, 0
1, 53707, Control_c, 0, 64, 79
1, 53730, Note_off_c, 0, 56, 50
1, 53731, Note_on_c, 0, 54, 50
1, 53737, Control_c, 0, 64, 79
1, 53751, Control_c, 0, 64, 80
1, 53766, Control_c, 0, 64, 80
1, 53781, Note_off_c, 0, 54, 62
1, 53812, Note_on_c, 0, 51, 53
1, 53825, Control_c, 0, 64, 76
1, 53841, Control_c, 0, 64, 70
1, 53856, Control_c, 0, 64, 65
1, 53871, Note_on_c, 0, 44, 54
1, 53871, Control_c, 0, 64, 64
1, 53886, Control_c, 0, 64, 66
1, 53896, Note_on_c, 0, 54, 49
1, 53899, Note_off_c, 0, 44, 65
1, 53901, Control_c, 0, 64, 69
1, 53915, Control_c, 0, 64, 73
1, 53930, Control_c, 0, 64, 79
1, 53943, Note_off_c, 0, 51, 49
1, 53945, Control_c, 0, 64, 82
1, 53946, Note_on_c, 0, 56, 53
1, 53955, Note_off_c, 0, 54, 60
1, 53960, Control_c, 0, 64, 84
1, 54002, Note_off_c, 0, 56, 56
1, 54021, Note_on_c, 0, 58, 30
1, 54051, Note_off_c, 0, 58, 51
1, 54157, Note_on_c, 0, 59, 37
1, 54167, Control_c, 0, 64, 84
1, 54199, Note_off_c, 0, 59, 46
1, 54207, Note_on_c, 0, 61, 38
1, 54211, Control_c, 0, 64, 83
1, 54226, Control_c, 0, 64, 83
1, 54234, Note_on_c, 0, 63, 53
1, 54240, Note_off_c, 0, 61, 53
1, 54241, Control_c, 0, 64, 82
1, 54256, Control_c, 0, 64, 80
1, 54268, Note_off_c, 0, 63, 65
1, 54271, Control_c, 0, 64, 77
1, 54276, Note_on_c, 0, 65, 60
1, 54285, Control_c, 0, 64, 73
1, 54300, Control_c, 0, 64, 68
1, 54322, Control_c, 0, 64, 61
1, 54337, Control_c, 0, 64, 53
1, 54344, Note_off_c, 0, 65, 57
1, 54352, Control_c, 0, 64, 47
1, 54359, Note_on_c, 0, 63, 52
1, 54366, Control_c, 0, 64, 45
1, 54372, Note_on_c, 0, 61, 48
1, 54381, Control_c, 0, 64, 47
1, 54396, Control_c, 0, 64, 51
1, 54401, Note_off_c, 0, 63, 64
1, 54411, Control_c, 0, 64, 55
1, 54426, Control_c, 0, 64, 59
1, 54441, Control_c, 0, 64, 64
1, 54456, Control_c, 0, 64, 67
1, 54463, Note_off_c, 0, 61, 61
1, 54467, Note_on_c, 0, 60, 45
1, 54471, Control_c, 0, 64, 69
1, 54486, Note_on_c, 0, 58, 32
1, 54486, Control_c, 0, 64, 71
1, 54500, Control_c, 0, 64, 72
1, 54515, Note_off_c, 0, 60, 61
1, 54515, Control_c, 0, 64, 73
1, 54527, Note_off_c, 0, 58, 50
1, 54530, Control_c, 0, 64, 73
1, 54545, Control_c, 0, 64, 74
1, 54551, Note_on_c, 0, 54, 44
1, 54560, Control_c, 0, 64, 74
1, 54587, Note_off_c, 0, 54, 64
1, 54624, Note_on_c, 0, 51, 39
1, 54664, Note_off_c, 0, 51, 62
1, 54679, Control_c, 0, 64, 73
1, 54694, Control_c, 0, 64, 70
1, 54704, Note_on_c, 0, 44, 47
1, 54709, Control_c, 0, 64, 66
1, 54724, Control_c, 0, 64, 63
1, 54739, Control_c, 0, 64, 62
1, 54754, Control_c, 0, 64, 63
1, 54769, Control_c, 0, 64, 65
1, 54783, Control_c, 0, 64, 67
1, 54784, Note_on_c, 0, 51, 39
1, 54790, Note_off_c, 0, 44, 53
1, 54798, Control_c, 0, 64, 69
1, 54813, Control_c, 0, 64, 72
1, 54828, Control_c, 0, 64, 75
1, 54830, Note_on_c, 0, 54, 49
1, 54835, Note_off_c, 0, 51, 45
1, 54843, Control_c, 0, 64, 77
1, 54857, Control_c, 0, 64, 78
1, 54872, Control_c, 0, 64, 79
1, 54885, Note_off_c, 0, 54, 57
1, 54887, Control_c, 0, 64, 80
1, 54902, Control_c, 0, 64, 80
1, 54909, Note_on_c, 0, 56, 44
1, 54930, Note_on_c, 0, 60, 42
1, 54931, Control_c, 0, 64, 81
1, 54940, Note_off_c, 0, 56, 56
1, 54974, Note_off_c, 0, 60, 52
1, 54992, Note_on_c, 0, 61, 39
1, 55028, Note_off_c, 0, 61, 55
1, 55030, Note_on_c, 0, 63, 52
1, 55073, Note_off_c, 0, 63, 65
1, 55091, Note_on_c, 0, 65, 48
1, 55130, Note_off_c, 0, 65, 55
1, 55178, Note_on_c, 0, 63, 35
1, 55191, Note_on_c, 0, 61, 44
1, 55210, Note_off_c, 0, 63, 53
1, 55245, Note_off_c, 0, 61, 61
1, 55276, Note_on_c, 0, 60, 45
1, 55280, Note_on_c, 0, 58, 17
1, 55321, Note_on_c, 0, 54, 51
1, 55325, Note_off_c, 0, 58, 52
1, 55329, Note_off_c, 0, 60, 61
1, 55373, Note_off_c, 0, 54, 60
1, 55413, Control_c, 0, 64, 80
1, 55427, Control_c, 0, 64, 77
1, 55428, Note_on_c, 0, 51, 34
1, 55443, Control_c, 0, 64, 71
1, 55458, Control_c, 0, 64, 62
1, 55466, Note_off_c, 0, 51, 50
1, 55473, Control_c, 0, 64, 42
1, 55487, Control_c, 0, 64, 0
1, 55489, Note_on_c, 0, 44, 53
1, 55564, Note_on_c, 0, 51, 48
1, 55591, Note_off_c, 0, 44, 54
1, 55591, Control_c, 0, 64, 38
1, 55606, Control_c, 0, 64, 59
1, 55621, Control_c, 0, 64, 71
1, 55621, Note_on_c, 0, 54, 52
1, 55621, Note_off_c, 0, 51, 55
1, 55636, Control_c, 0, 64, 80
1, 55651, Control_c, 0, 64, 94
1, 55663, Note_off_c, 0, 54, 62
1, 55666, Control_c, 0, 64, 109
1, 55680, Control_c, 0, 64, 127
1, 55700, Note_on_c, 0, 56, 10
1, 55753, Note_off_c, 0, 56, 49
1, 55804, Note_on_c, 0, 60, 43
1, 55836, Note_on_c, 0, 70, 75
1, 55842, Note_off_c, 0, 60, 58
1, 55848, Note_on_c, 0, 61, 52
1, 55857, Note_off_c, 0, 70, 72
1, 55881, Note_off_c, 0, 61, 63
1, 55895, Control_c, 0, 64, 109
1, 55898, Note_on_c, 0, 70, 71
1, 55910, Control_c, 0, 64, 97
1, 55922, Note_off_c, 0, 70, 68
1, 55925, Control_c, 0, 64, 94
1, 55939, Note_on_c, 0, 65, 46
1, 55953, Control_c, 0, 64, 94
1, 55968, Control_c, 0, 64, 97
1, 55970, Note_on_c, 0, 63, 18
1, 55973, Note_off_c, 0, 65, 55
1, 55979, Note_on_c, 0, 75, 65
1, 55983, Control_c, 0, 64, 104
1, 55998, Control_c, 0, 64, 119
1, 56006, Note_on_c, 0, 61, 35
1, 56009, Note_off_c, 0, 63, 48
1, 56012, Control_c, 0, 64, 127
1, 56015, Note_off_c, 0, 75, 61
1, 56067, Note_on_c, 0, 60, 38
1, 56071, Note_off_c, 0, 61, 54
1, 56104, Note_off_c, 0, 60, 49
1, 56232, Note_on_c, 0, 54, 56
1, 56232, Poly_aftertouch_c, 0, 58, 127
1, 56263, Poly_aftertouch_c, 0, 58, 0
1, 56270, Note_off_c, 0, 54, 62
1, 56306, Note_on_c, 0, 51, 32
1, 56339, Note_off_c, 0, 51, 52
1, 56374, Note_on_c, 0, 44, 43
1, 56428, Note_off_c, 0, 44, 53
1, 56439, Note_on_c, 0, 51, 37
1, 56456, Note_on_c, 0, 54, 58
1, 56479, Note_off_c, 0, 51, 46
1, 56497, Note_off_c, 0, 54, 62
1, 56526, Note_on_c, 0, 56, 19
1, 56581, Note_off_c, 0, 56, 42
1, 56611, Note_on_c, 0, 60, 59
1, 56656, Note_on_c, 0, 61, 63
1, 56658, Note_off_c, 0, 60, 61
1, 56693, Note_off_c, 0, 61, 61
1, 56715, Note_on_c, 0, 63, 47
1, 56736, Note_on_c, 0, 65, 62
1, 56740, Note_off_c, 0, 63, 58
1, 56785, Note_off_c, 0, 65, 59
1, 56821, Note_on_c, 0, 63, 32
1, 56834, Note_on_c, 0, 61, 53
1, 56849, Note_off_c, 0, 63, 55
1, 56891, Note_off_c, 0, 61, 57
1, 56922, Poly_aftertouch_c, 0, 60, 127
1, 56963, Poly_aftertouch_c, 0, 60, 0
1, 56966, Note_on_c, 0, 58, 42
1, 57001, Note_off_c, 0, 58, 51
1, 57022, Note_on_c, 0, 94, 77
1, 57047, Note_off_c, 0, 94, 69
1, 57058, Control_c, 0, 64, 91
1, 57072, Note_on_c, 0, 94, 77
1, 57073, Control_c, 0, 64, 82
1, 57103, Control_c, 0, 64, 87
1, 57110, Note_on_c, 0, 44, 61
1, 57112, Note_off_c, 0, 94, 67
1, 57118, Control_c, 0, 64, 100
1, 57133, Control_c, 0, 64, 104
1, 57137, Note_on_c, 0, 99, 81
1, 57147, Note_off_c, 0, 44, 63
1, 57152, Note_on_c, 0, 54, 55
1, 57161, Note_off_c, 0, 99, 68
1, 57162, Control_c, 0, 64, 98
1, 57177, Control_c, 0, 64, 93
1, 57184, Note_off_c, 0, 54, 62
1, 57192, Control_c, 0, 64, 89
1, 57207, Control_c, 0, 64, 89
1, 57222, Control_c, 0, 64, 89
1, 57237, Control_c, 0, 64, 91
1, 57252, Control_c, 0, 64, 95
1, 57266, Control_c, 0, 64, 100
1, 57267, Note_on_c, 0, 82, 76
1, 57283, Note_off_c, 0, 82, 64
1, 57314, Note_on_c, 0, 60, 41
1, 57317, Control_c, 0, 64, 97
1, 57332, Control_c, 0, 64, 96
1, 57379, Note_off_c, 0, 60, 55
1, 57383, Note_on_c, 0, 87, 76
1, 57392, Control_c, 0, 64, 94
1, 57407, Control_c, 0, 64, 91
1, 57413, Note_on_c, 0, 61, 30
1, 57422, Control_c, 0, 64, 88
1, 57434, Note_off_c, 0, 87, 60
1, 57454, Note_off_c, 0, 61, 47
1, 57466, Control_c, 0, 64, 89
1, 57477, Note_on_c, 0, 63, 39
1, 57481, Control_c, 0, 64, 91
1, 57487, Note_on_c, 0, 72, 67
1, 57496, Control_c, 0, 64, 94
1, 57510, Control_c, 0, 64, 98
1, 57523, Note_off_c, 0, 72, 59
1, 57525, Control_c, 0, 64, 100
1, 57532, Note_off_c, 0, 63, 55
1, 57598, Note_on_c, 0, 65, 27
1, 57648, Note_off_c, 0, 65, 44
1, 57663, Note_on_c, 0, 70, 70
1, 57666, Note_on_c, 0, 63, 48
1, 57673, Control_c, 0, 64, 96
1, 57681, Note_off_c, 0, 70, 66
1, 57688, Control_c, 0, 64, 83
1, 57703, Control_c, 0, 64, 70
1, 57707, Note_off_c, 0, 63, 62
1, 57717, Control_c, 0, 64, 60
1, 57724, Note_on_c, 0, 61, 43
1, 57728, Note_on_c, 0, 70, 71
1, 57732, Control_c, 0, 64, 61
1, 57747, Note_off_c, 0, 70, 72
1, 57747, Control_c, 0, 64, 67
1, 57762, Note_on_c, 0, 60, 50
1, 57762, Control_c, 0, 64, 79
1, 57776, Note_off_c, 0, 61, 62
1, 57777, Control_c, 0, 64, 105
1, 57786, Note_off_c, 0, 60, 61
1, 57791, Control_c, 0, 64, 127
1, 57799, Note_on_c, 0, 77, 68
1, 57851, Note_off_c, 0, 77, 63
1, 57856, Note_on_c, 0, 75, 68
1, 57857, Note_on_c, 0, 58, 38
1, 57902, Note_off_c, 0, 75, 63
1, 57905, Note_off_c, 0, 58, 49
1, 57922, Note_on_c, 0, 54, 54
1, 57949, Note_off_c, 0, 54, 64
1, 58060, Note_on_c, 0, 44, 40
1, 58100, Note_on_c, 0, 51, 35
1, 58110, Note_off_c, 0, 44, 46
1, 58145, Note_off_c, 0, 51, 58
1, 58155, Note_on_c, 0, 54, 51
1, 58190, Note_off_c, 0, 54, 64
1, 58218, Note_on_c, 0, 56, 17
1, 58267, Note_off_c, 0, 56, 51
1, 58291, Note_on_c, 0, 60, 61
1, 58328, Note_off_c, 0, 60, 66
1, 58331, Note_on_c, 0, 61, 66
1, 58363, Note_off_c, 0, 61, 66
1, 58379, Note_on_c, 0, 63, 65
1, 58406, Note_off_c, 0, 63, 67
1, 58411, Note_on_c, 0, 65, 65
1, 58475, Note_off_c, 0, 65, 61
1, 58480, Note_on_c, 0, 63, 63
1, 58506, Note_off_c, 0, 63, 69
1, 58515, Note_on_c, 0, 61, 54
1, 58553, Note_on_c, 0, 60, 57
1, 58584, Note_off_c, 0, 60, 66
1, 58587, Note_off_c, 0, 61, 58
1, 58645, Note_on_c, 0, 58, 54
1, 58658, Note_on_c, 0, 94, 84
1, 58671, Note_off_c, 0, 58, 56
1, 58675, Note_off_c, 0, 94, 73
1, 58689, Control_c, 0, 64, 100
1, 58700, Note_on_c, 0, 94, 87
1, 58703, Control_c, 0, 64, 72
1, 58718, Control_c, 0, 64, 66
1, 58733, Control_c, 0, 64, 70
1, 58739, Note_off_c, 0, 94, 66
1, 58748, Control_c, 0, 64, 82
1, 58763, Control_c, 0, 64, 122
1, 58770, Note_on_c, 0, 99, 81
1, 58778, Control_c, 0, 64, 127
1, 58784, Note_on_c, 0, 44, 58
1, 58790, Note_off_c, 0, 99, 71
1, 58793, Poly_aftertouch_c, 0, 51, 127
1, 58817, Note_on_c, 0, 54, 25
1, 58821, Note_off_c, 0, 44, 60
1, 58847, Poly_aftertouch_c, 0, 51, 0
1, 58854, Note_on_c, 0, 56, 52
1, 58857, Note_off_c, 0, 54, 59
1, 58879, Note_off_c, 0, 56, 59
1, 58893, Note_on_c, 0, 82, 86
1, 58918, Note_off_c, 0, 82, 58
1, 58975, Note_on_c, 0, 60, 51
1, 59006, Note_on_c, 0, 87, 77
1, 59034, Note_off_c, 0, 60, 56
1, 59050, Note_off_c, 0, 87, 62
1, 59059, Note_on_c, 0, 61, 39
1, 59097, Note_on_c, 0, 63, 42
1, 59123, Note_off_c, 0, 61, 40
1, 59142, Note_on_c, 0, 72, 61
1, 59142, Note_off_c, 0, 63, 61
1, 59160, Note_on_c, 0, 65, 50
1, 59184, Note_off_c, 0, 72, 53
1, 59189, Note_off_c, 0, 65, 54
1, 59372, Note_on_c, 0, 42, 59
1, 59377, Control_c, 0, 64, 82
1, 59392, Control_c, 0, 64, 58
1, 59407, Control_c, 0, 64, 0
1, 59461, Note_on_c, 0, 49, 61
1, 59482, Control_c, 0, 64, 52
1, 59493, Note_off_c, 0, 42, 63
1, 59497, Control_c, 0, 64, 68
1, 59511, Control_c, 0, 64, 80
1, 59517, Note_off_c, 0, 49, 64
1, 59520, Note_on_c, 0, 52, 62
1, 59526, Control_c, 0, 64, 106
1, 59541, Control_c, 0, 64, 127
1, 59542, Note_off_c, 0, 52, 64
1, 59547, Note_on_c, 0, 70, 67
1, 59610, Note_on_c, 0, 54, 64
1, 59634, Note_off_c, 0, 54, 64
1, 59635, Note_on_c, 0, 56, 74
1, 59636, Note_off_c, 0, 70, 58
1, 59643, Note_on_c, 0, 78, 82
1, 59662, Note_off_c, 0, 56, 64
1, 59687, Note_on_c, 0, 59, 63
1, 59701, Note_on_c, 0, 61, 73
1, 59703, Note_off_c, 0, 78, 65
1, 59706, Note_off_c, 0, 59, 65
1, 59725, Note_off_c, 0, 61, 67
1, 59748, Note_on_c, 0, 76, 88
1, 59787, Note_on_c, 0, 64, 69
1, 59794, Note_off_c, 0, 76, 65
1, 59812, Note_off_c, 0, 64, 68
1, 59839, Note_on_c, 0, 65, 73
1, 59856, Note_on_c, 0, 79, 88
1, 59890, Control_c, 0, 64, 83
1, 59896, Note_off_c, 0, 65, 63
1, 59901, Note_on_c, 0, 62, 64
1, 59905, Control_c, 0, 64, 63
1, 59912, Note_off_c, 0, 79, 61
1, 59920, Control_c, 0, 64, 53
1, 59935, Control_c, 0, 64, 58
1, 59949, Control_c, 0, 64, 65
1, 59955, Note_on_c, 0, 77, 72
1, 59956, Note_off_c, 0, 62, 62
1, 59964, Note_on_c, 0, 56, 67
1, 59964, Control_c, 0, 64, 78
1, 59964, Control_c, 0, 67, 123
1, 59979, Control_c, 0, 64, 119
1, 59979, Control_c, 0, 67, 87
1, 59994, Control_c, 0, 64, 127
1, 59994, Control_c, 0, 67, 52
1, 59997, Note_off_c, 0, 56, 65
1, 60009, Control_c, 0, 67, 19
1, 60024, Control_c, 0, 67, 0
1, 60059, Note_off_c, 0, 77, 59
1, 60078, Note_on_c, 0, 71, 63
1, 60096, Note_on_c, 0, 53, 36
1, 60108, Note_off_c, 0, 71, 65
1, 60133, Note_off_c, 0, 53, 62
1, 60137, Note_on_c, 0, 50, 40
1, 60164, Note_on_c, 0, 44, 53
1, 60170, Note_off_c, 0, 50, 50
1, 60191, Note_off_c, 0, 44, 62
1, 60358, Control_c, 0, 64, 81
1, 60373, Control_c, 0, 64, 45
1, 60386, Note_on_c, 0, 60, 64
1, 60388, Note_on_c, 0, 72, 73
1, 60388, Control_c, 0, 64, 0
1, 60388, Note_on_c, 0, 68, 56
1, 60392, Note_on_c, 0, 38, 62
1, 60405, Note_off_c, 0, 60, 63
1, 60409, Note_on_c, 0, 44, 69
1, 60409, Note_off_c, 0, 68, 61
1, 60411, Note_off_c, 0, 72, 66
1, 60432, Control_c, 0, 64, 68
1, 60443, Note_off_c, 0, 38, 64
1, 60447, Control_c, 0, 64, 127
1, 60452, Note_off_c, 0, 44, 61
1, 60464, Note_on_c, 0, 50, 70
1, 60477, Note_on_c, 0, 68, 80
1, 60483, Note_on_c, 0, 80, 85
1, 60487, Note_off_c, 0, 50, 66
1, 60490, Note_on_c, 0, 70, 72
1, 60496, Note_off_c, 0, 68, 72
1, 60506, Note_off_c, 0, 70, 68
1, 60512, Note_off_c, 0, 80, 50
1, 60572, Note_on_c, 0, 54, 67
1, 60587, Poly_aftertouch_c, 0, 81, 0
1, 60633, Note_on_c, 0, 56, 78
1, 60650, Note_off_c, 0, 54, 62
1, 60685, Note_on_c, 0, 60, 77
1, 60722, Note_off_c, 0, 56, 62
1, 60758, Note_off_c, 0, 60, 63
1, 60767, Note_on_c, 0, 62, 75
1, 60767, Note_on_c, 0, 72, 89
1, 60772, Note_on_c, 0, 84, 91
1, 60773, Note_on_c, 0, 80, 72
1, 60784, Note_off_c, 0, 72, 70
1, 60788, Note_off_c, 0, 80, 69
1, 60790, Note_off_c, 0, 62, 67
1, 60807, Note_off_c, 0, 84, 68
1, 60860, Note_on_c, 0, 66, 73
1, 60871, Note_on_c, 0, 80, 89
1, 60874, Note_on_c, 0, 92, 98
1, 60901, Note_on_c, 0, 68, 80
1, 60903, Note_off_c, 0, 80, 62
1, 60904, Note_off_c, 0, 92, 64
1, 60934, Note_off_c, 0, 66, 64
1, 60941, Note_on_c, 0, 72, 87
1, 60961, Note_off_c, 0, 68, 66
1, 60995, Note_off_c, 0, 72, 68
1, 60996, Note_on_c, 0, 74, 88
1, 61031, Note_off_c, 0, 74, 67
1, 61151, Control_c, 0, 64, 90
1, 61166, Control_c, 0, 64, 62
1, 61181, Control_c, 0, 64, 0
1, 61185, Note_on_c, 0, 83, 102
1, 61189, Note_on_c, 0, 90, 97
1, 61190, Note_on_c, 0, 95, 101
1, 61196, Note_on_c, 0, 87, 84
1, 61210, Control_c, 0, 64, 41
1, 61225, Control_c, 0, 64, 65
1, 61238, Note_off_c, 0, 95, 65
1, 61240, Control_c, 0, 64, 101
1, 61241, Note_off_c, 0, 83, 61
1, 61249, Note_off_c, 0, 87, 61
1, 61255, Control_c, 0, 64, 127
1, 61257, Note_off_c, 0, 90, 64
1, 61317, Note_on_c, 0, 81, 96
1, 61325, Note_on_c, 0, 90, 76
1, 61330, Note_on_c, 0, 87, 78
1, 61345, Note_off_c, 0, 90, 70
1, 61345, Note_on_c, 0, 93, 45
1, 61350, Note_off_c, 0, 87, 71
1, 61356, Note_off_c, 0, 81, 63
1, 61358, Control_c, 0, 64, 86
1, 61371, Note_off_c, 0, 93, 52
1, 61373, Control_c, 0, 64, 67
1, 61388, Control_c, 0, 64, 49
1, 61402, Control_c, 0, 64, 0
1, 61421, Note_on_c, 0, 87, 91
1, 61425, Note_on_c, 0, 85, 86
1, 61440, Note_off_c, 0, 87, 69
1, 61458, Note_off_c, 0, 85, 65
1, 61563, Note_on_c, 0, 71, 99
1, 61568, Note_on_c, 0, 78, 87
1, 61570, Note_on_c, 0, 83, 93
1, 61576, Note_on_c, 0, 75, 76
1, 61580, Control_c, 0, 64, 66
1, 61595, Control_c, 0, 64, 113
1, 61609, Note_off_c, 0, 71, 67
1, 61610, Control_c, 0, 64, 127
1, 61615, Note_off_c, 0, 83, 65
1, 61631, Note_off_c, 0, 78, 62
1, 61634, Note_off_c, 0, 75, 61
1, 61681, Note_on_c, 0, 69, 92
1, 61688, Note_on_c, 0, 78, 74
1, 61692, Note_on_c, 0, 75, 63
1, 61702, Note_on_c, 0, 81, 56
1, 61711, Note_off_c, 0, 78, 71
1, 61722, Note_off_c, 0, 81, 61
1, 61731, Note_off_c, 0, 69, 64
1, 61732, Note_off_c, 0, 75, 64
1, 61774, Note_on_c, 0, 75, 69
1, 61779, Note_on_c, 0, 73, 85
1, 61795, Note_off_c, 0, 75, 72
1, 61812, Note_off_c, 0, 73, 66
1, 61824, Control_c, 0, 64, 86
1, 61840, Control_c, 0, 64, 63
1, 61855, Control_c, 0, 64, 0
1, 62047, Note_on_c, 0, 60, 87
1, 62055, Note_on_c, 0, 72, 78
1, 62064, Note_on_c, 0, 38, 63
1, 62065, Note_on_c, 0, 66, 64
1, 62066, Note_off_c, 0, 60, 74
1, 62078, Control_c, 0, 64, 65
1, 62084, Note_off_c, 0, 66, 63
1, 62088, Note_off_c, 0, 72, 68
1, 62093, Control_c, 0, 64, 127
1, 62097, Note_on_c, 0, 44, 65
1, 62110, Note_off_c, 0, 38, 63
1, 62138, Note_on_c, 0, 50, 74
1, 62140, Note_off_c, 0, 44, 65
1, 62155, Note_on_c, 0, 68, 88
1, 62160, Note_on_c, 0, 80, 85
1, 62160, Poly_aftertouch_c, 0, 69, 0
1, 62165, Note_on_c, 0, 70, 71
1, 62167, Note_off_c, 0, 50, 67
1, 62172, Note_off_c, 0, 68, 73
1, 62179, Note_off_c, 0, 80, 55
1, 62180, Note_off_c, 0, 70, 68
1, 62194, Note_on_c, 0, 81, 36
1, 62227, Note_off_c, 0, 81, 57
1, 62251, Note_on_c, 0, 54, 63
1, 62303, Note_on_c, 0, 56, 80
1, 62334, Note_off_c, 0, 54, 63
1, 62358, Note_on_c, 0, 60, 78
1, 62396, Note_off_c, 0, 56, 62
1, 62426, Note_on_c, 0, 72, 97
1, 62430, Note_on_c, 0, 80, 76
1, 62430, Note_on_c, 0, 84, 96
1, 62433, Note_off_c, 0, 60, 64
1, 62439, Note_on_c, 0, 62, 71
1, 62451, Note_off_c, 0, 80, 70
1, 62453, Note_on_c, 0, 78, 47
1, 62455, Note_off_c, 0, 72, 62
1, 62465, Note_off_c, 0, 62, 68
1, 62468, Note_off_c, 0, 84, 65
1, 62472, Note_on_c, 0, 82, 21
1, 62478, Note_off_c, 0, 78, 60
1, 62518, Note_off_c, 0, 82, 54
1, 62530, Note_on_c, 0, 80, 104
1, 62535, Note_on_c, 0, 92, 103
1, 62545, Note_on_c, 0, 65, 78
1, 62570, Note_off_c, 0, 80, 67
1, 62578, Note_on_c, 0, 67, 70
1, 62578, Note_off_c, 0, 92, 66
1, 62616, Note_on_c, 0, 72, 83
1, 62620, Note_off_c, 0, 65, 62
1, 62645, Note_off_c, 0, 67, 63
1, 62675, Note_on_c, 0, 74, 82
1, 62679, Note_off_c, 0, 72, 66
1, 62716, Note_off_c, 0, 74, 61
1, 62797, Control_c, 0, 64, 122
1, 62811, Control_c, 0, 64, 72
1, 62826, Control_c, 0, 64, 37
1, 62841, Control_c, 0, 64, 0
1, 62847, Note_on_c, 0, 83, 106
1, 62850, Note_on_c, 0, 95, 97
1, 62851, Note_on_c, 0, 90, 92
1, 62857, Note_on_c, 0, 87, 88
1, 62871, Control_c, 0, 64, 38
1, 62886, Control_c, 0, 64, 63
1, 62899, Note_off_c, 0, 83, 66
1, 62901, Control_c, 0, 64, 104
1, 62906, Note_off_c, 0, 95, 65
1, 62915, Control_c, 0, 64, 127
1, 62923, Note_off_c, 0, 90, 63
1, 62933, Note_off_c, 0, 87, 63
1, 62975, Note_on_c, 0, 81, 91
1, 62979, Note_on_c, 0, 90, 77
1, 62986, Note_on_c, 0, 87, 63
1, 62989, Control_c, 0, 64, 110
1, 63004, Note_off_c, 0, 90, 68
1, 63004, Control_c, 0, 64, 83
1, 63019, Control_c, 0, 64, 67
1, 63020, Note_off_c, 0, 81, 63
1, 63020, Note_off_c, 0, 87, 65
1, 63034, Control_c, 0, 64, 52
1, 63048, Control_c, 0, 64, 0
1, 63086, Note_on_c, 0, 87, 80
1, 63091, Note_on_c, 0, 85, 77
1, 63107, Note_off_c, 0, 87, 71
1, 63115, Note_off_c, 0, 85, 69
1, 63211, Control_c, 0, 64, 54
1, 63214, Note_on_c, 0, 71, 97
1, 63218, Note_on_c, 0, 83, 88
1, 63226, Control_c, 0, 64, 73
1, 63228, Note_on_c, 0, 75, 77
1, 63228, Note_on_c, 0, 78, 78
1, 63240, Control_c, 0, 64, 122
1, 63255, Control_c, 0, 64, 127
1, 63260, Note_off_c, 0, 71, 66
1, 63264, Note_off_c, 0, 83, 65
1, 63284, Note_off_c, 0, 78, 60
1, 63309, Note_off_c, 0, 75, 56
1, 63346, Note_on_c, 0, 69, 85
1, 63354, Note_on_c, 0, 78, 61
1, 63369, Note_on_c, 0, 75, 20
1, 63386, Note_off_c, 0, 78, 66
1, 63396, Note_off_c, 0, 69, 60
1, 63396, Control_c, 0, 64, 90
1, 63405, Note_off_c, 0, 75, 48
1, 63411, Control_c, 0, 64, 76
1, 63427, Control_c, 0, 64, 66
1, 63440, Poly_aftertouch_c, 0, 81, 0
1, 63442, Control_c, 0, 64, 56
1, 63457, Control_c, 0, 64, 44
1, 63464, Note_on_c, 0, 75, 55
1, 63470, Note_on_c, 0, 73, 55
1, 63472, Control_c, 0, 64, 33
1, 63485, Note_off_c, 0, 75, 63
1, 63486, Control_c, 0, 64, 0
1, 63500, Note_off_c, 0, 73, 65
1, 63664, Control_c, 0, 64, 50
1, 63678, Note_on_c, 0, 71, 54
1, 63679, Control_c, 0, 64, 68
1, 63682, Note_on_c, 0, 66, 50
1, 63689, Note_on_c, 0, 59, 34
1, 63689, Note_on_c, 0, 63, 42
1, 63694, Control_c, 0, 64, 87
1, 63700, Note_off_c, 0, 71, 60
1, 63708, Control_c, 0, 64, 127
1, 63715, Note_off_c, 0, 66, 58
1, 63720, Note_off_c, 0, 63, 59
1, 63721, Note_off_c, 0, 59, 50
1, 63783, Control_c, 0, 64, 100
1, 63789, Note_on_c, 0, 69, 54
1, 63797, Control_c, 0, 64, 84
1, 63798, Note_on_c, 0, 57, 40
1, 63810, Note_off_c, 0, 69, 61
1, 63812, Control_c, 0, 64, 71
1, 63817, Note_on_c, 0, 66, 20
1, 63827, Control_c, 0, 64, 60
1, 63830, Note_on_c, 0, 63, 8
1, 63832, Note_off_c, 0, 57, 54
1, 63842, Control_c, 0, 64, 45
1, 63849, Note_off_c, 0, 66, 32
1, 63857, Control_c, 0, 64, 0
1, 63900, Note_on_c, 0, 61, 50
1, 63914, Note_off_c, 0, 63, 52
1, 63931, Note_off_c, 0, 61, 53
1, 64004, Control_c, 0, 64, 53
1, 64017, Note_on_c, 0, 61, 62
1, 64019, Control_c, 0, 64, 70
1, 64024, Note_on_c, 0, 73, 63
1, 64030, Note_on_c, 0, 68, 58
1, 64034, Control_c, 0, 64, 85
1, 64056, Note_off_c, 0, 61, 61
1, 64057, Control_c, 0, 64, 116
1, 64066, Note_off_c, 0, 73, 62
1, 64069, Note_on_c, 0, 65, 28
1, 64072, Control_c, 0, 64, 127
1, 64076, Note_off_c, 0, 68, 61
1, 64117, Note_off_c, 0, 65, 39
1, 64142, Note_on_c, 0, 59, 57
1, 64144, Note_on_c, 0, 68, 50
1, 64145, Control_c, 0, 64, 111
1, 64160, Control_c, 0, 64, 93
1, 64163, Note_off_c, 0, 59, 62
1, 64166, Note_on_c, 0, 71, 35
1, 64167, Note_off_c, 0, 68, 61
1, 64175, Control_c, 0, 64, 79
1, 64191, Control_c, 0, 64, 63
1, 64197, Note_off_c, 0, 71, 47
1, 64205, Control_c, 0, 64, 38
1, 64221, Control_c, 0, 64, 0
1, 64251, Note_on_c, 0, 63, 50
1, 64261, Note_on_c, 0, 61, 40
1, 64276, Note_off_c, 0, 63, 60
1, 64291, Note_off_c, 0, 61, 48
1, 64340, Control_c, 0, 64, 43
1, 64355, Control_c, 0, 64, 64
1, 64369, Note_on_c, 0, 71, 67
1, 64370, Control_c, 0, 64, 76
1, 64371, Note_on_c, 0, 59, 65
1, 64372, Note_on_c, 0, 63, 52
1, 64380, Note_on_c, 0, 66, 54
1, 64384, Control_c, 0, 64, 99
1, 64396, Note_off_c, 0, 71, 61
1, 64399, Control_c, 0, 64, 127
1, 64400, Note_off_c, 0, 59, 68
1, 64418, Note_off_c, 0, 66, 62
1, 64419, Note_off_c, 0, 63, 62
1, 64461, Note_on_c, 0, 57, 78
1, 64480, Note_on_c, 0, 69, 51
1, 64486, Note_off_c, 0, 57, 69
1, 64489, Note_on_c, 0, 71, 50
1, 64502, Control_c, 0, 64, 103
1, 64504, Note_on_c, 0, 63, 12
1, 64507, Note_off_c, 0, 69, 65
1, 64510, Note_off_c, 0, 71, 63
1, 64517, Control_c, 0, 64, 82
1, 64532, Control_c, 0, 64, 66
1, 64543, Note_off_c, 0, 63, 45
1, 64547, Control_c, 0, 64, 45
1, 64562, Control_c, 0, 64, 0
1, 64579, Note_on_c, 0, 63, 54
1, 64588, Note_on_c, 0, 61, 50
1, 64610, Note_off_c, 0, 63, 65
1, 64612, Note_off_c, 0, 61, 59
1, 64680, Control_c, 0, 64, 47
1, 64695, Control_c, 0, 64, 71
1, 64702, Note_on_c, 0, 71, 95
1, 64702, Note_on_c, 0, 83, 90
1, 64704, Note_on_c, 0, 78, 78
1, 64710, Control_c, 0, 64, 93
1, 64712, Note_on_c, 0, 75, 79
1, 64725, Control_c, 0, 64, 127
1, 64740, Note_off_c, 0, 71, 65
1, 64742, Note_off_c, 0, 75, 57
1, 64755, Note_off_c, 0, 83, 62
1, 64785, Note_off_c, 0, 78, 0
1, 64805, Note_on_c, 0, 69, 86
1, 64806, Note_on_c, 0, 78, 51
1, 64827, Note_off_c, 0, 69, 65
1, 64828, Note_on_c, 0, 75, 59
1, 64832, Note_on_c, 0, 83, 62
1, 64834, Note_on_c, 0, 81, 45
1, 64835, Control_c, 0, 64, 116
1, 64841, Note_off_c, 0, 78, 65
1, 64844, Note_off_c, 0, 75, 66
1, 64848, Note_off_c, 0, 83, 66
1, 64850, Control_c, 0, 64, 81
1, 64860, Note_off_c, 0, 81, 57
1, 64865, Control_c, 0, 64, 62
1, 64880, Control_c, 0, 64, 0
1, 64910, Note_on_c, 0, 75, 73
1, 64921, Note_on_c, 0, 73, 72
1, 64943, Note_off_c, 0, 73, 69
1, 64946, Note_off_c, 0, 75, 63
1, 65014, Control_c, 0, 64, 43
1, 65029, Control_c, 0, 64, 62
1, 65037, Note_on_c, 0, 83, 96
1, 65039, Note_on_c, 0, 90, 90
1, 65044, Note_on_c, 0, 95, 85
1, 65044, Control_c, 0, 64, 80
1, 65045, Note_on_c, 0, 87, 85
1, 65059, Control_c, 0, 64, 127
1, 65078, Note_off_c, 0, 83, 64
1, 65082, Note_off_c, 0, 87, 60
1, 65083, Note_off_c, 0, 95, 65
1, 65090, Note_off_c, 0, 90, 63
1, 65147, Note_on_c, 0, 81, 90
1, 65151, Note_on_c, 0, 90, 76
1, 65156, Note_on_c, 0, 87, 79
1, 65163, Control_c, 0, 64, 94
1, 65170, Note_off_c, 0, 90, 71
1, 65175, Note_off_c, 0, 87, 71
1, 65176, Note_off_c, 0, 81, 60
1, 65177, Control_c, 0, 64, 77
1, 65192, Control_c, 0, 64, 63
1, 65207, Control_c, 0, 64, 50
1, 65222, Control_c, 0, 64, 33
1, 65237, Control_c, 0, 64, 0
1, 65248, Note_on_c, 0, 87, 70
1, 65249, Note_on_c, 0, 85, 72
1, 65272, Note_off_c, 0, 85, 70
1, 65273, Note_off_c, 0, 87, 67
1, 65340, Control_c, 0, 64, 37
1, 65355, Control_c, 0, 64, 58
1, 65367, Note_on_c, 0, 71, 76
1, 65367, Note_on_c, 0, 83, 74
1, 65369, Control_c, 0, 64, 73
1, 65378, Note_on_c, 0, 78, 63
1, 65382, Note_on_c, 0, 75, 56
1, 65384, Control_c, 0, 64, 93
1, 65396, Note_off_c, 0, 71, 62
1, 65399, Control_c, 0, 64, 127
1, 65405, Note_off_c, 0, 78, 67
1, 65409, Note_off_c, 0, 83, 60
1, 65427, Note_off_c, 0, 75, 55
1, 65458, Control_c, 0, 64, 116
1, 65471, Note_on_c, 0, 69, 78
1, 65473, Control_c, 0, 64, 93
1, 65478, Note_on_c, 0, 78, 72
1, 65482, Note_on_c, 0, 75, 55
1, 65488, Control_c, 0, 64, 77
1, 65500, Note_off_c, 0, 78, 70
1, 65502, Note_off_c, 0, 69, 61
1, 65503, Control_c, 0, 64, 66
1, 65511, Note_off_c, 0, 75, 66
1, 65518, Control_c, 0, 64, 54
1, 65533, Control_c, 0, 64, 37
1, 65555, Control_c, 0, 64, 0
1, 65562, Note_on_c, 0, 73, 63
1, 65568, Note_on_c, 0, 75, 48
1, 65588, Note_off_c, 0, 73, 67
1, 65592, Note_off_c, 0, 75, 56
1, 65703, Control_c, 0, 64, 33
1, 65714, Note_on_c, 0, 59, 60
1, 65714, Note_on_c, 0, 71, 60
1, 65718, Control_c, 0, 64, 59
1, 65727, Note_on_c, 0, 66, 53
1, 65732, Control_c, 0, 64, 77
1, 65741, Note_off_c, 0, 71, 60
1, 65745, Note_on_c, 0, 63, 38
1, 65747, Note_off_c, 0, 59, 64
1, 65747, Control_c, 0, 64, 102
1, 65747, Control_c, 0, 67, 21
1, 65761, Note_off_c, 0, 66, 64
1, 65762, Control_c, 0, 64, 127
1, 65762, Control_c, 0, 67, 26
1, 65774, Note_off_c, 0, 63, 57
1, 65777, Control_c, 0, 67, 30
1, 65792, Control_c, 0, 67, 32
1, 65807, Control_c, 0, 67, 32
1, 65813, Note_on_c, 0, 57, 76
1, 65819, Note_on_c, 0, 66, 70
1, 65821, Note_on_c, 0, 63, 55
1, 65822, Control_c, 0, 64, 88
1, 65837, Control_c, 0, 64, 70
1, 65840, Note_off_c, 0, 57, 69
1, 65845, Note_off_c, 0, 66, 68
1, 65852, Control_c, 0, 64, 53
1, 65853, Note_off_c, 0, 63, 66
1, 65867, Control_c, 0, 64, 0
1, 65912, Note_on_c, 0, 61, 60
1, 65924, Note_on_c, 0, 63, 46
1, 65941, Note_off_c, 0, 61, 64
1, 65950, Note_off_c, 0, 63, 55
1, 65956, Control_c, 0, 67, 32
1, 66015, Control_c, 0, 64, 43
1, 66015, Control_c, 0, 67, 33
1, 66022, Note_on_c, 0, 69, 55
1, 66026, Note_on_c, 0, 57, 62
1, 66029, Note_on_c, 0, 61, 51
1, 66030, Control_c, 0, 64, 62
1, 66030, Control_c, 0, 67, 35
1, 66034, Note_on_c, 0, 64, 50
1, 66045, Control_c, 0, 64, 73
1, 66045, Control_c, 0, 67, 42
1, 66056, Note_off_c, 0, 57, 65
1, 66059, Note_off_c, 0, 69, 52
1, 66060, Control_c, 0, 64, 84
1, 66060, Control_c, 0, 67, 52
1, 66064, Note_off_c, 0, 61, 63
1, 66066, Note_off_c, 0, 64, 63
1, 66074, Control_c, 0, 64, 96
1, 66074, Control_c, 0, 67, 58
1, 66089, Control_c, 0, 67, 63
1, 66104, Control_c, 0, 67, 68
1, 66118, Control_c, 0, 64, 93
1, 66118, Control_c, 0, 67, 73
1, 66126, Note_on_c, 0, 55, 69
1, 66133, Control_c, 0, 64, 84
1, 66133, Control_c, 0, 67, 80
1, 66137, Note_on_c, 0, 64, 52
1, 66147, Note_off_c, 0, 55, 62
1, 66148, Control_c, 0, 64, 73
1, 66148, Control_c, 0, 67, 88
1, 66151, Note_on_c, 0, 61, 47
1, 66161, Note_off_c, 0, 64, 58
1, 66163, Control_c, 0, 64, 63
1, 66163, Control_c, 0, 67, 96
1, 66178, Control_c, 0, 64, 40
1, 66178, Control_c, 0, 67, 101
1, 66192, Control_c, 0, 64, 0
1, 66192, Control_c, 0, 67, 105
1, 66207, Note_off_c, 0, 61, 0
1, 66207, Control_c, 0, 67, 107
1, 66224, Note_on_c, 0, 61, 30
1, 66230, Note_on_c, 0, 59, 51
1, 66237, Control_c, 0, 67, 113
1, 66251, Note_off_c, 0, 61, 60
1, 66252, Control_c, 0, 67, 120
1, 66258, Note_off_c, 0, 59, 64
1, 66266, Control_c, 0, 67, 127
1, 66333, Control_c, 0, 64, 31
1, 66348, Control_c, 0, 64, 51
1, 66350, Note_on_c, 0, 67, 53
1, 66356, Note_on_c, 0, 63, 52
1, 66358, Note_on_c, 0, 55, 46
1, 66363, Control_c, 0, 64, 65
1, 66368, Note_on_c, 0, 60, 40
1, 66373, Note_off_c, 0, 67, 64
1, 66378, Control_c, 0, 64, 71
1, 66385, Note_off_c, 0, 55, 53
1, 66393, Control_c, 0, 64, 74
1, 66402, Note_off_c, 0, 63, 56
1, 66403, Note_off_c, 0, 60, 55
1, 66436, Control_c, 0, 64, 73
1, 66451, Control_c, 0, 64, 70
1, 66459, Note_on_c, 0, 66, 62
1, 66460, Note_on_c, 0, 54, 54
1, 66460, Note_on_c, 0, 63, 22
1, 66466, Control_c, 0, 64, 65
1, 66481, Control_c, 0, 64, 56
1, 66485, Note_off_c, 0, 54, 59
1, 66490, Note_off_c, 0, 63, 51
1, 66491, Note_off_c, 0, 66, 64
1, 66496, Control_c, 0, 64, 37
1, 66510, Control_c, 0, 64, 0
1, 66544, Note_on_c, 0, 59, 52
1, 66545, Note_on_c, 0, 57, 53
1, 66567, Note_off_c, 0, 59, 64
1, 66571, Note_off_c, 0, 57, 63
1, 66645, Control_c, 0, 64, 42
1, 66659, Control_c, 0, 64, 59
1, 66663, Note_on_c, 0, 57, 59
1, 66665, Note_on_c, 0, 69, 65
1, 66670, Note_on_c, 0, 64, 56
1, 66671, Note_on_c, 0, 61, 58
1, 66674, Control_c, 0, 64, 67
1, 66689, Control_c, 0, 64, 71
1, 66692, Note_off_c, 0, 69, 65
1, 66697, Note_off_c, 0, 57, 65
1, 66704, Control_c, 0, 64, 73
1, 66704, Note_off_c, 0, 64, 63
1, 66707, Note_off_c, 0, 61, 63
1, 66763, Control_c, 0, 64, 71
1, 66764, Note_on_c, 0, 55, 69
1, 66770, Note_on_c, 0, 64, 52
1, 66778, Control_c, 0, 64, 65
1, 66785, Note_on_c, 0, 61, 52
1, 66793, Note_off_c, 0, 55, 67
1, 66793, Control_c, 0, 64, 57
1, 66801, Note_off_c, 0, 64, 64
1, 66808, Control_c, 0, 64, 34
1, 66821, Note_off_c, 0, 61, 63
1, 66822, Control_c, 0, 64, 0
1, 66860, Note_on_c, 0, 58, 58
1, 66864, Note_on_c, 0, 60, 48
1, 66888, Note_off_c, 0, 60, 58
1, 66892, Note_off_c, 0, 58, 65
1, 66940, Control_c, 0, 64, 47
1, 66940, Control_c, 0, 67, 119
1, 66955, Control_c, 0, 64, 62
1, 66955, Control_c, 0, 67, 102
1, 66970, Control_c, 0, 64, 70
1, 66970, Control_c, 0, 67, 80
1, 66973, Note_on_c, 0, 60, 51
1, 66975, Note_on_c, 0, 63, 64
1, 66975, Note_on_c, 0, 55, 61
1, 66977, Note_on_c, 0, 67, 57
1, 66985, Control_c, 0, 64, 75
1, 66985, Control_c, 0, 67, 53
1, 66997, Note_off_c, 0, 67, 65
1, 67000, Control_c, 0, 64, 77
1, 67000, Control_c, 0, 67, 0
1, 67007, Note_off_c, 0, 55, 64
1, 67014, Control_c, 0, 64, 78
1, 67018, Note_off_c, 0, 60, 60
1, 67067, Control_c, 0, 64, 76
1, 67082, Control_c, 0, 64, 71
1, 67083, Note_on_c, 0, 66, 74
1, 67090, Note_on_c, 0, 54, 59
1, 67096, Control_c, 0, 64, 65
1, 67111, Control_c, 0, 64, 55
1, 67112, Note_off_c, 0, 54, 61
1, 67115, Note_off_c, 0, 63, 58
1, 67118, Note_off_c, 0, 66, 63
1, 67126, Control_c, 0, 64, 0
1, 67187, Note_on_c, 0, 57, 59
1, 67188, Note_on_c, 0, 59, 54
1, 67210, Note_off_c, 0, 57, 62
1, 67217, Note_off_c, 0, 59, 65
1, 67290, Control_c, 0, 64, 35
1, 67303, Note_on_c, 0, 69, 71
1, 67304, Note_on_c, 0, 62, 80
1, 67304, Note_on_c, 0, 74, 82
1, 67304, Control_c, 0, 64, 59
1, 67314, Note_on_c, 0, 66, 63
1, 67319, Control_c, 0, 64, 68
1, 67334, Control_c, 0, 64, 77
1, 67335, Note_off_c, 0, 62, 66
1, 67343, Note_off_c, 0, 66, 63
1, 67347, Note_off_c, 0, 69, 58
1, 67347, Note_off_c, 0, 74, 59
1, 67348, Control_c, 0, 64, 99
1, 67363, Control_c, 0, 64, 127
1, 67414, Note_on_c, 0, 60, 63
1, 67423, Note_on_c, 0, 66, 61
1, 67424, Note_on_c, 0, 69, 44
1, 67424, Control_c, 0, 64, 101
1, 67435, Note_off_c, 0, 60, 65
1, 67439, Control_c, 0, 64, 76
1, 67439, Control_c, 0, 67, 26
1, 67443, Note_off_c, 0, 69, 59
1, 67453, Control_c, 0, 64, 60
1, 67453, Control_c, 0, 67, 35
1, 67463, Note_off_c, 0, 66, 50
1, 67468, Control_c, 0, 64, 31
1, 67468, Control_c, 0, 67, 45
1, 67483, Control_c, 0, 64, 0
1, 67483, Control_c, 0, 67, 54
1, 67498, Control_c, 0, 67, 59
1, 67500, Note_on_c, 0, 63, 54
1, 67500, Note_on_c, 0, 65, 52
1, 67513, Control_c, 0, 67, 65
1, 67524, Note_off_c, 0, 65, 59
1, 67527, Control_c, 0, 67, 70
1, 67535, Note_off_c, 0, 63, 64
1, 67542, Control_c, 0, 67, 74
1, 67557, Control_c, 0, 67, 75
1, 67572, Control_c, 0, 67, 76
1, 67631, Control_c, 0, 67, 76
1, 67646, Control_c, 0, 67, 77
1, 67661, Control_c, 0, 64, 31
1, 67661, Control_c, 0, 67, 79
1, 67676, Control_c, 0, 64, 57
1, 67676, Control_c, 0, 67, 87
1, 67678, Note_on_c, 0, 63, 54
1, 67691, Control_c, 0, 64, 69
1, 67691, Control_c, 0, 67, 102
1, 67698, Note_on_c, 0, 67, 4
1, 67706, Control_c, 0, 64, 76
1, 67706, Control_c, 0, 67, 127
1, 67720, Control_c, 0, 64, 82
1, 67725, Note_off_c, 0, 63, 53
1, 67730, Note_on_c, 0, 60, 3
1, 67735, Control_c, 0, 64, 83
1, 67738, Note_off_c, 0, 60, 0
1, 67750, Control_c, 0, 64, 83
1, 67755, Note_off_c, 0, 67, 25
1, 67764, Control_c, 0, 64, 80
1, 67768, Note_on_c, 0, 63, 32
1, 67768, Note_on_c, 0, 66, 71
1, 67771, Poly_aftertouch_c, 0, 60, 0
1, 67779, Control_c, 0, 64, 72
1, 67799, Note_on_c, 0, 54, 38
1, 67801, Control_c, 0, 64, 64
1, 67805, Note_off_c, 0, 63, 60
1, 67805, Note_off_c, 0, 66, 65
1, 67816, Control_c, 0, 64, 48
1, 67831, Note_off_c, 0, 54, 46
1, 67831, Control_c, 0, 64, 0
1, 67865, Note_on_c, 0, 59, 56
1, 67874, Note_on_c, 0, 57, 44
1, 67894, Note_off_c, 0, 59, 65
1, 67901, Note_off_c, 0, 57, 54
1, 67979, Control_c, 0, 64, 34
1, 67983, Note_on_c, 0, 69, 64
1, 67987, Note_on_c, 0, 57, 56
1, 67990, Note_on_c, 0, 64, 55
1, 67994, Control_c, 0, 64, 59
1, 67998, Note_on_c, 0, 61, 50
1, 68009, Control_c, 0, 64, 68
1, 68013, Note_off_c, 0, 69, 62
1, 68013, Note_off_c, 0, 57, 64
1, 68024, Note_off_c, 0, 64, 65
1, 68024, Control_c, 0, 64, 71
1, 68034, Note_off_c, 0, 61, 64
1, 68038, Control_c, 0, 64, 73
1, 68068, Control_c, 0, 64, 72
1, 68083, Control_c, 0, 64, 69
1, 68093, Note_on_c, 0, 55, 66
1, 68097, Control_c, 0, 64, 63
1, 68105, Note_on_c, 0, 64, 51
1, 68112, Control_c, 0, 64, 54
1, 68114, Note_on_c, 0, 61, 45
1, 68118, Note_off_c, 0, 55, 61
1, 68124, Note_off_c, 0, 64, 65
1, 68127, Control_c, 0, 64, 0
1, 68152, Note_off_c, 0, 61, 57
1, 68183, Note_on_c, 0, 58, 59
1, 68191, Note_on_c, 0, 60, 49
1, 68216, Note_off_c, 0, 60, 61
1, 68217, Note_off_c, 0, 58, 65
1, 68276, Control_c, 0, 64, 34
1, 68291, Control_c, 0, 64, 61
1, 68292, Note_on_c, 0, 67, 53
1, 68293, Note_on_c, 0, 60, 51
1, 68301, Note_on_c, 0, 63, 57
1, 68302, Note_on_c, 0, 55, 44
1, 68306, Control_c, 0, 64, 72
1, 68313, Note_off_c, 0, 67, 63
1, 68321, Control_c, 0, 64, 79
1, 68332, Note_off_c, 0, 60, 64
1, 68332, Note_off_c, 0, 55, 52
1, 68336, Control_c, 0, 64, 85
1, 68350, Control_c, 0, 64, 86
1, 68358, Note_off_c, 0, 63, 0
1, 68380, Control_c, 0, 64, 85
1, 68391, Note_on_c, 0, 54, 51
1, 68392, Note_on_c, 0, 66, 67
1, 68394, Control_c, 0, 64, 81
1, 68403, Poly_aftertouch_c, 0, 63, 0
1, 68409, Control_c, 0, 64, 71
1, 68418, Note_off_c, 0, 54, 55
1, 68421, Note_off_c, 0, 66, 67
1, 68424, Control_c, 0, 64, 58
1, 68439, Control_c, 0, 64, 0
1, 68485, Note_on_c, 0, 59, 59
1, 68488, Note_on_c, 0, 57, 54
1, 68512, Note_off_c, 0, 57, 60
1, 68514, Note_off_c, 0, 59, 66
1, 68600, Note_on_c, 0, 74, 74
1, 68609, Note_on_c, 0, 62, 61
1, 68609, Control_c, 0, 64, 52
1, 68613, Note_on_c, 0, 66, 55
1, 68616, Note_on_c, 0, 69, 44
1, 68624, Control_c, 0, 64, 67
1, 68627, Note_off_c, 0, 74, 63
1, 68630, Note_off_c, 0, 62, 63
1, 68639, Control_c, 0, 64, 72
1, 68645, Note_off_c, 0, 69, 57
1, 68650, Note_off_c, 0, 66, 64
1, 68654, Control_c, 0, 64, 76
1, 68698, Control_c, 0, 64, 74
1, 68704, Note_on_c, 0, 60, 60
1, 68711, Note_on_c, 0, 69, 57
1, 68713, Control_c, 0, 64, 70
1, 68715, Note_on_c, 0, 72, 59
1, 68723, Note_on_c, 0, 66, 48
1, 68724, Note_off_c, 0, 60, 65
1, 68728, Control_c, 0, 64, 64
1, 68733, Note_off_c, 0, 69, 64
1, 68743, Control_c, 0, 64, 51
1, 68743, Note_off_c, 0, 72, 66
1, 68746, Note_off_c, 0, 66, 59
1, 68758, Control_c, 0, 64, 0
1, 68810, Note_on_c, 0, 63, 50
1, 68812, Note_on_c, 0, 65, 52
1, 68835, Note_off_c, 0, 65, 60
1, 68840, Note_off_c, 0, 63, 63
1, 68906, Control_c, 0, 64, 30
1, 68906, Control_c, 0, 67, 110
1, 68920, Control_c, 0, 64, 53
1, 68920, Control_c, 0, 67, 87
1, 68926, Note_on_c, 0, 79, 66
1, 68935, Control_c, 0, 64, 69
1, 68935, Control_c, 0, 67, 58
1, 68937, Note_on_c, 0, 75, 58
1, 68942, Note_on_c, 0, 67, 39
1, 68949, Note_on_c, 0, 72, 41
1, 68950, Control_c, 0, 64, 85
1, 68950, Control_c, 0, 67, 35
1, 68960, Note_off_c, 0, 79, 66
1, 68965, Control_c, 0, 64, 127
1, 68965, Control_c, 0, 67, 0
1, 68972, Note_off_c, 0, 67, 52
1, 68976, Note_off_c, 0, 72, 59
1, 69002, Note_off_c, 0, 75, 0
1, 69033, Note_on_c, 0, 78, 65
1, 69036, Note_on_c, 0, 66, 53
1, 69038, Poly_aftertouch_c, 0, 75, 0
1, 69040, Control_c, 0, 64, 119
1, 69055, Control_c, 0, 64, 88
1, 69057, Note_off_c, 0, 66, 61
1, 69057, Note_off_c, 0, 78, 68
1, 69070, Control_c, 0, 64, 69
1, 69085, Control_c, 0, 64, 54
1, 69099, Control_c, 0, 64, 0
1, 69133, Note_on_c, 0, 69, 56
1, 69134, Note_on_c, 0, 71, 52
1, 69152, Note_off_c, 0, 69, 63
1, 69155, Note_off_c, 0, 71, 61
1, 69232, Note_on_c, 0, 79, 77
1, 69232, Control_c, 0, 64, 45
1, 69236, Note_on_c, 0, 71, 57
1, 69238, Note_on_c, 0, 67, 64
1, 69245, Note_on_c, 0, 74, 59
1, 69247, Control_c, 0, 64, 64
1, 69262, Control_c, 0, 64, 75
1, 69265, Note_off_c, 0, 79, 64
1, 69268, Note_off_c, 0, 67, 65
1, 69276, Note_off_c, 0, 71, 62
1, 69277, Control_c, 0, 64, 91
1, 69284, Note_off_c, 0, 74, 61
1, 69299, Control_c, 0, 64, 103
1, 69314, Control_c, 0, 64, 109
1, 69346, Note_on_c, 0, 65, 74
1, 69354, Note_on_c, 0, 77, 66
1, 69356, Note_on_c, 0, 74, 55
1, 69358, Control_c, 0, 64, 107
1, 69367, Note_on_c, 0, 71, 52
1, 69372, Note_off_c, 0, 65, 67
1, 69373, Control_c, 0, 64, 99
1, 69388, Note_off_c, 0, 71, 64
1, 69388, Note_off_c, 0, 74, 65
1, 69388, Control_c, 0, 64, 89
1, 69396, Note_off_c, 0, 77, 59
1, 69403, Control_c, 0, 64, 77
1, 69417, Control_c, 0, 64, 63
1, 69433, Control_c, 0, 64, 37
1, 69435, Note_on_c, 0, 70, 65
1, 69445, Note_on_c, 0, 68, 59
1, 69448, Control_c, 0, 64, 0
1, 69461, Note_off_c, 0, 70, 69
1, 69467, Note_off_c, 0, 68, 65
1, 69541, Note_on_c, 0, 79, 84
1, 69551, Note_on_c, 0, 67, 70
1, 69551, Control_c, 0, 64, 52
1, 69552, Note_on_c, 0, 75, 69
1, 69557, Note_on_c, 0, 72, 59
1, 69566, Control_c, 0, 64, 72
1, 69573, Note_off_c, 0, 67, 66
1, 69580, Note_off_c, 0, 79, 64
1, 69581, Control_c, 0, 64, 101
1, 69593, Note_off_c, 0, 72, 59
1, 69596, Control_c, 0, 64, 127
1, 69608, Note_off_c, 0, 75, 63
1, 69644, Note_on_c, 0, 78, 86
1, 69646, Note_on_c, 0, 66, 78
1, 69660, Note_on_c, 0, 75, 27
1, 69685, Note_off_c, 0, 78, 67
1, 69689, Note_off_c, 0, 66, 58
1, 69692, Note_off_c, 0, 75, 47
1, 69700, Control_c, 0, 64, 112
1, 69715, Control_c, 0, 64, 80
1, 69730, Control_c, 0, 64, 59
1, 69742, Note_on_c, 0, 71, 58
1, 69744, Control_c, 0, 64, 0
1, 69745, Note_on_c, 0, 69, 62
1, 69772, Note_off_c, 0, 71, 66
1, 69772, Note_off_c, 0, 69, 67
1, 69840, Note_on_c, 0, 67, 77
1, 69843, Note_on_c, 0, 71, 72
1, 69844, Note_on_c, 0, 74, 74
1, 69845, Note_on_c, 0, 79, 72
1, 69849, Control_c, 0, 64, 38
1, 69864, Control_c, 0, 64, 69
1, 69870, Note_off_c, 0, 67, 62
1, 69871, Note_off_c, 0, 71, 65
1, 69875, Note_off_c, 0, 79, 67
1, 69879, Control_c, 0, 64, 102
1, 69881, Note_on_c, 0, 77, 31
1, 69882, Note_off_c, 0, 74, 59
1, 69894, Control_c, 0, 64, 127
1, 69913, Note_off_c, 0, 77, 58
1, 69937, Note_on_c, 0, 65, 87
1, 69941, Note_on_c, 0, 74, 78
1, 69947, Note_on_c, 0, 77, 65
1, 69959, Note_on_c, 0, 71, 61
1, 69977, Note_off_c, 0, 71, 65
1, 69979, Note_off_c, 0, 65, 64
1, 69990, Note_on_c, 0, 70, 63
1, 69990, Note_off_c, 0, 74, 62
1, 69993, Note_on_c, 0, 68, 61
1, 70003, Note_off_c, 0, 77, 64
1, 70022, Note_off_c, 0, 70, 67
1, 70025, Note_off_c, 0, 68, 65
1, 70027, Control_c, 0, 64, 97
1, 70049, Control_c, 0, 64, 65
1, 70064, Control_c, 0, 64, 0
1, 70134, Note_on_c, 0, 79, 81
1, 70138, Control_c, 0, 64, 42
1, 70139, Note_on_c, 0, 67, 72
1, 70140, Note_on_c, 0, 75, 68
1, 70144, Note_on_c, 0, 72, 66
1, 70150, Note_on_c, 0, 69, 62
1, 70153, Control_c, 0, 64, 73
1, 70162, Note_off_c, 0, 67, 70
1, 70167, Control_c, 0, 64, 127
1, 70168, Note_off_c, 0, 69, 64
1, 70169, Note_off_c, 0, 79, 66
1, 70176, Note_off_c, 0, 72, 58
1, 70189, Note_off_c, 0, 75, 61
1, 70241, Note_on_c, 0, 78, 83
1, 70243, Note_on_c, 0, 66, 77
1, 70257, Note_on_c, 0, 75, 40
1, 70284, Note_off_c, 0, 75, 57
1, 70291, Note_off_c, 0, 78, 65
1, 70295, Note_on_c, 0, 83, 85
1, 70298, Note_on_c, 0, 81, 78
1, 70299, Note_off_c, 0, 66, 61
1, 70306, Note_off_c, 0, 83, 75
1, 70319, Note_off_c, 0, 81, 70
1, 70433, Control_c, 0, 64, 74
1, 70447, Control_c, 0, 64, 43
1, 70462, Note_on_c, 0, 79, 87
1, 70462, Control_c, 0, 64, 0
1, 70463, Note_on_c, 0, 71, 89
1, 70464, Note_on_c, 0, 74, 81
1, 70468, Note_on_c, 0, 67, 78
1, 70477, Control_c, 0, 64, 40
1, 70478, Note_on_c, 0, 69, 65
1, 70488, Note_off_c, 0, 67, 72
1, 70491, Control_c, 0, 64, 63
1, 70494, Note_off_c, 0, 69, 65
1, 70502, Note_off_c, 0, 71, 59
1, 70502, Note_off_c, 0, 79, 64
1, 70506, Control_c, 0, 64, 82
1, 70511, Note_off_c, 0, 74, 62
1, 70521, Control_c, 0, 64, 127
1, 70553, Note_on_c, 0, 65, 97
1, 70557, Note_on_c, 0, 74, 71
1, 70563, Note_on_c, 0, 77, 78
1, 70566, Note_on_c, 0, 71, 68
1, 70604, Note_off_c, 0, 71, 62
1, 70605, Note_off_c, 0, 65, 62
1, 70607, Note_off_c, 0, 74, 59
1, 70613, Note_on_c, 0, 82, 93
1, 70618, Note_on_c, 0, 80, 86
1, 70627, Note_off_c, 0, 77, 63
1, 70628, Note_off_c, 0, 82, 73
1, 70639, Note_off_c, 0, 80, 67
1, 70729, Control_c, 0, 64, 102
1, 70744, Control_c, 0, 64, 64
1, 70757, Note_on_c, 0, 79, 77
1, 70759, Control_c, 0, 64, 0
1, 70761, Note_on_c, 0, 75, 77
1, 70764, Note_on_c, 0, 67, 73
1, 70765, Note_on_c, 0, 72, 77
1, 70766, Note_on_c, 0, 69, 76
1, 70770, Note_on_c, 0, 71, 73
1, 70792, Note_off_c, 0, 69, 71
1, 70794, Note_off_c, 0, 67, 67
1, 70797, Note_off_c, 0, 71, 67
1, 70811, Note_off_c, 0, 79, 66
1, 70811, Control_c, 0, 64, 52
1, 70823, Note_off_c, 0, 72, 59
1, 70826, Control_c, 0, 64, 74
1, 70833, Note_off_c, 0, 75, 63
1, 70841, Control_c, 0, 64, 104
1, 70856, Control_c, 0, 64, 127
1, 70873, Note_on_c, 0, 78, 94
1, 70875, Note_on_c, 0, 66, 92
1, 70880, Note_on_c, 0, 75, 65
1, 70904, Note_off_c, 0, 75, 68
1, 70916, Note_on_c, 0, 83, 94
1, 70917, Note_on_c, 0, 81, 85
1, 70931, Note_off_c, 0, 83, 74
1, 70936, Note_off_c, 0, 81, 72
1, 70941, Note_off_c, 0, 66, 64
1, 70947, Note_on_c, 0, 80, 37
1, 70947, Note_off_c, 0, 80, 127
1, 70955, Note_off_c, 0, 78, 64
1, 71062, Control_c, 0, 64, 64
1, 71077, Control_c, 0, 64, 0
1, 71080, Note_on_c, 0, 79, 91
1, 71087, Note_on_c, 0, 70, 91
1, 71090, Note_on_c, 0, 71, 74
1, 71090, Note_on_c, 0, 74, 76
1, 71096, Note_on_c, 0, 67, 65
1, 71101, Note_on_c, 0, 68, 62
1, 71110, Note_off_c, 0, 70, 66
1, 71113, Note_off_c, 0, 67, 67
1, 71122, Control_c, 0, 64, 43
1, 71122, Note_off_c, 0, 68, 39
1, 71125, Note_off_c, 0, 71, 62
1, 71137, Control_c, 0, 64, 72
1, 71149, Note_off_c, 0, 79, 61
1, 71152, Control_c, 0, 64, 111
1, 71167, Control_c, 0, 64, 127
1, 71167, Note_on_c, 0, 65, 86
1, 71182, Note_on_c, 0, 71, 54
1, 71190, Note_off_c, 0, 65, 70
1, 71209, Note_off_c, 0, 71, 65
1, 71223, Note_off_c, 0, 74, 64
1, 71280, Note_on_c, 0, 82, 97
1, 71281, Note_on_c, 0, 80, 85
1, 71294, Note_on_c, 0, 79, 66
1, 71295, Note_off_c, 0, 82, 74
1, 71302, Note_off_c, 0, 80, 69
1, 71313, Note_off_c, 0, 79, 64
1, 71668, Note_on_c, 0, 94, 104
1, 71670, Note_on_c, 0, 92, 97
1, 71705, Note_off_c, 0, 92, 69
1, 71705, Note_off_c, 0, 94, 72
1, 72034, Control_c, 0, 67, 19
1, 72049, Control_c, 0, 67, 22
1, 72063, Control_c, 0, 67, 24
1, 72078, Control_c, 0, 67, 26
1, 72093, Control_c, 0, 67, 28
1, 72108, Control_c, 0, 67, 30
1, 72123, Control_c, 0, 67, 33
1, 72137, Control_c, 0, 67, 35
1, 72152, Control_c, 0, 67, 38
1, 72167, Control_c, 0, 67, 41
1, 72182, Control_c, 0, 67, 44
1, 72197, Control_c, 0, 67, 46
1, 72213, Control_c, 0, 67, 49
1, 72228, Control_c, 0, 67, 52
1, 72242, Control_c, 0, 67, 54
1, 72257, Control_c, 0, 67, 57
1, 72272, Control_c, 0, 67, 58
1, 72293, Control_c, 0, 67, 60
1, 72308, Control_c, 0, 67, 61
1, 72323, Control_c, 0, 67, 63
1, 72338, Control_c, 0, 67, 65
1, 72353, Control_c, 0, 67, 67
1, 72368, Control_c, 0, 67, 69
1, 72383, Control_c, 0, 67, 71
1, 72398, Control_c, 0, 67, 73
1, 72413, Control_c, 0, 67, 77
1, 72428, Control_c, 0, 67, 80
1, 72442, Control_c, 0, 67, 84
1, 72457, Control_c, 0, 64, 112
1, 72457, Control_c, 0, 67, 89
1, 72472, Control_c, 0, 64, 88
1, 72472, Control_c, 0, 67, 95
1, 72486, Control_c, 0, 64, 71
1, 72486, Control_c, 0, 67, 103
1, 72496, Note_on_c, 0, 32, 35
1, 72501, Control_c, 0, 64, 57
1, 72501, Control_c, 0, 67, 113
1, 72516, Control_c, 0, 64, 0
1, 72516, Control_c, 0, 67, 122
1, 72531, Control_c, 0, 67, 127
1, 72605, Control_c, 0, 64, 41
1, 72620, Control_c, 0, 64, 61
1, 72634, Control_c, 0, 64, 72
1, 72649, Control_c, 0, 64, 81
1, 72664, Control_c, 0, 64, 96
1, 72678, Control_c, 0, 64, 117
1, 72693, Control_c, 0, 64, 127
1, 72718, Note_off_c, 0, 32, 38
1, 72877, Note_on_c, 0, 62, 27
1, 72882, Note_on_c, 0, 60, 45
1, 72952, Note_off_c, 0, 60, 60
1, 72977, Note_off_c, 0, 62, 60
1, 73006, Note_on_c, 0, 72, 46
1, 73021, Note_on_c, 0, 74, 35
1, 73028, Note_off_c, 0, 72, 54
1, 73061, Note_off_c, 0, 74, 52
1, 73116, Note_on_c, 0, 68, 56
1, 73135, Note_on_c, 0, 66, 42
1, 73152, Note_off_c, 0, 68, 65
1, 73161, Note_off_c, 0, 66, 59
1, 73200, Note_on_c, 0, 76, 42
1, 73220, Control_c, 0, 67, 114
1, 73226, Note_on_c, 0, 74, 49
1, 73232, Note_off_c, 0, 76, 0
1, 73232, Note_on_c, 0, 76, 19
1, 73235, Control_c, 0, 67, 104
1, 73250, Control_c, 0, 67, 94
1, 73265, Control_c, 0, 67, 82
1, 73280, Note_off_c, 0, 74, 41
1, 73280, Control_c, 0, 67, 71
1, 73289, Note_off_c, 0, 76, 62
1, 73295, Control_c, 0, 67, 59
1, 73309, Control_c, 0, 67, 48
1, 73318, Note_on_c, 0, 88, 72
1, 73324, Control_c, 0, 67, 34
1, 73326, Note_on_c, 0, 86, 59
1, 73339, Control_c, 0, 67, 19
1, 73350, Note_off_c, 0, 88, 66
1, 73352, Note_off_c, 0, 86, 65
1, 73354, Control_c, 0, 67, 0
1, 73516, Control_c, 0, 64, 115
1, 73531, Control_c, 0, 64, 105
1, 73546, Control_c, 0, 64, 101
1, 73561, Control_c, 0, 64, 97
1, 73575, Control_c, 0, 64, 94
1, 73590, Control_c, 0, 64, 90
1, 73605, Control_c, 0, 64, 87
1, 73620, Control_c, 0, 64, 83
1, 73635, Control_c, 0, 64, 80
1, 73650, Control_c, 0, 64, 74
1, 73665, Control_c, 0, 64, 67
1, 73680, Control_c, 0, 64, 58
1, 73694, Control_c, 0, 64, 36
1, 73709, Control_c, 0, 64, 0
1, 73749, Note_on_c, 0, 82, 100
1, 73752, Note_on_c, 0, 80, 88
1, 73786, Note_off_c, 0, 80, 69
1, 73790, Control_c, 0, 64, 40
1, 73793, Note_off_c, 0, 82, 69
1, 73805, Control_c, 0, 64, 64
1, 73821, Control_c, 0, 64, 92
1, 73836, Control_c, 0, 64, 127
1, 73864, Note_on_c, 0, 94, 102
1, 73867, Note_on_c, 0, 92, 96
1, 73900, Note_off_c, 0, 94, 71
1, 73901, Note_off_c, 0, 92, 69
1, 73999, Control_c, 0, 67, 20
1, 74028, Control_c, 0, 67, 23
1, 74043, Control_c, 0, 67, 25
1, 74058, Control_c, 0, 67, 28
1, 74073, Control_c, 0, 67, 31
1, 74088, Control_c, 0, 67, 37
1, 74103, Control_c, 0, 67, 42
1, 74118, Control_c, 0, 67, 45
1, 74132, Control_c, 0, 67, 47
1, 74147, Control_c, 0, 67, 48
1, 74162, Control_c, 0, 67, 49
1, 74177, Control_c, 0, 67, 49
1, 74192, Control_c, 0, 67, 50
1, 74206, Control_c, 0, 67, 51
1, 74221, Control_c, 0, 67, 55
1, 74236, Control_c, 0, 67, 60
1, 74251, Control_c, 0, 67, 62
1, 74265, Control_c, 0, 67, 64
1, 74280, Control_c, 0, 67, 66
1, 74295, Control_c, 0, 67, 68
1, 74310, Control_c, 0, 67, 72
1, 74325, Control_c, 0, 67, 76
1, 74339, Control_c, 0, 67, 81
1, 74354, Control_c, 0, 67, 85
1, 74369, Control_c, 0, 67, 88
1, 74384, Control_c, 0, 67, 91
1, 74399, Control_c, 0, 67, 93
1, 74413, Control_c, 0, 67, 96
1, 74428, Control_c, 0, 67, 100
1, 74443, Control_c, 0, 67, 105
1, 74458, Control_c, 0, 67, 109
1, 74472, Control_c, 0, 67, 114
1, 74487, Control_c, 0, 67, 119
1, 74502, Control_c, 0, 67, 124
1, 74517, Control_c, 0, 67, 127
1, 74583, Control_c, 0, 64, 111
1, 74598, Control_c, 0, 64, 97
1, 74615, Control_c, 0, 64, 87
1, 74629, Control_c, 0, 64, 77
1, 74644, Control_c, 0, 64, 67
1, 74645, Note_on_c, 0, 26, 31
1, 74659, Control_c, 0, 64, 53
1, 74675, Control_c, 0, 64, 37
1, 74689, Control_c, 0, 64, 0
1, 74719, Control_c, 0, 64, 32
1, 74734, Control_c, 0, 64, 36
1, 74749, Control_c, 0, 64, 42
1, 74763, Control_c, 0, 64, 54
1, 74778, Control_c, 0, 64, 64
1, 74793, Control_c, 0, 64, 71
1, 74808, Control_c, 0, 64, 78
1, 74823, Control_c, 0, 64, 86
1, 74837, Control_c, 0, 64, 92
1, 74852, Control_c, 0, 64, 102
1, 74862, Note_off_c, 0, 26, 51
1, 74867, Control_c, 0, 64, 116
1, 74881, Control_c, 0, 64, 127
1, 75006, Note_on_c, 0, 62, 34
1, 75008, Note_on_c, 0, 60, 49
1, 75083, Note_off_c, 0, 60, 63
1, 75101, Note_off_c, 0, 62, 61
1, 75122, Note_on_c, 0, 74, 48
1, 75145, Note_on_c, 0, 72, 16
1, 75146, Note_off_c, 0, 74, 58
1, 75183, Note_off_c, 0, 72, 30
1, 75234, Note_on_c, 0, 68, 55
1, 75249, Note_on_c, 0, 66, 41
1, 75271, Note_off_c, 0, 68, 64
1, 75283, Note_off_c, 0, 66, 56
1, 75333, Note_on_c, 0, 76, 24
1, 75355, Note_on_c, 0, 74, 50
1, 75393, Note_off_c, 0, 74, 44
1, 75457, Note_on_c, 0, 88, 60
1, 75472, Note_on_c, 0, 86, 41
1, 75494, Note_off_c, 0, 88, 60
1, 75497, Note_off_c, 0, 86, 57
1, 75504, Note_off_c, 0, 76, 42
1, 75613, Note_on_c, 0, 82, 75
1, 75614, Note_on_c, 0, 80, 71
1, 75667, Note_off_c, 0, 82, 62
1, 75670, Note_off_c, 0, 80, 62
1, 75848, Note_on_c, 0, 62, 26
1, 75853, Note_on_c, 0, 60, 28
1, 75894, Note_off_c, 0, 60, 53
1, 75902, Note_off_c, 0, 62, 58
1, 75941, Note_on_c, 0, 74, 33
1, 75953, Note_on_c, 0, 72, 23
1, 75971, Note_off_c, 0, 74, 55
1, 75979, Note_off_c, 0, 72, 45
1, 76040, Note_on_c, 0, 68, 55
1, 76052, Note_on_c, 0, 66, 40
1, 76081, Note_off_c, 0, 68, 61
1, 76085, Note_off_c, 0, 66, 55
1, 76160, Note_on_c, 0, 76, 42
1, 76168, Note_on_c, 0, 74, 50
1, 76244, Note_off_c, 0, 74, 34
1, 76248, Note_on_c, 0, 88, 56
1, 76258, Note_off_c, 0, 76, 48
1, 76264, Note_on_c, 0, 86, 50
1, 76281, Note_off_c, 0, 88, 67
1, 76287, Note_off_c, 0, 86, 60
1, 76380, Note_on_c, 0, 82, 73
1, 76380, Note_on_c, 0, 80, 71
1, 76422, Note_off_c, 0, 82, 59
1, 76434, Note_off_c, 0, 80, 62
1, 76546, Note_on_c, 0, 60, 41
1, 76560, Note_on_c, 0, 62, 47
1, 76609, Note_off_c, 0, 62, 51
1, 76613, Note_off_c, 0, 60, 56
1, 76650, Note_on_c, 0, 72, 39
1, 76653, Note_on_c, 0, 74, 46
1, 76683, Note_off_c, 0, 74, 61
1, 76685, Note_off_c, 0, 72, 64
1, 76732, Note_on_c, 0, 68, 55
1, 76740, Note_on_c, 0, 66, 53
1, 76782, Note_off_c, 0, 68, 60
1, 76784, Note_off_c, 0, 66, 63
1, 76869, Note_on_c, 0, 76, 37
1, 76881, Note_on_c, 0, 74, 39
1, 76940, Note_off_c, 0, 74, 38
1, 76959, Note_off_c, 0, 76, 49
1, 76970, Note_on_c, 0, 88, 54
1, 76976, Note_on_c, 0, 86, 45
1, 77001, Note_off_c, 0, 88, 67
1, 77003, Note_off_c, 0, 86, 57
1, 77090, Note_on_c, 0, 82, 66
1, 77092, Note_on_c, 0, 80, 61
1, 77146, Note_off_c, 0, 82, 62
1, 77149, Note_off_c, 0, 80, 60
1, 77261, Note_on_c, 0, 60, 44
1, 77265, Note_on_c, 0, 62, 42
1, 77318, Note_off_c, 0, 60, 64
1, 77325, Note_off_c, 0, 62, 61
1, 77370, Note_on_c, 0, 74, 34
1, 77371, Note_on_c, 0, 72, 33
1, 77398, Note_off_c, 0, 72, 61
1, 77400, Note_off_c, 0, 74, 56
1, 77449, Note_on_c, 0, 68, 54
1, 77459, Note_on_c, 0, 66, 38
1, 77492, Note_off_c, 0, 66, 55
1, 77501, Note_off_c, 0, 68, 60
1, 77582, Note_on_c, 0, 76, 35
1, 77589, Note_on_c, 0, 74, 49
1, 77707, Note_off_c, 0, 74, 34
1, 77714, Note_on_c, 0, 88, 48
1, 77721, Note_on_c, 0, 86, 50
1, 77728, Note_off_c, 0, 76, 34
1, 77746, Note_off_c, 0, 86, 60
1, 77748, Note_off_c, 0, 88, 66
1, 77838, Note_on_c, 0, 82, 60
1, 77843, Note_on_c, 0, 80, 58
1, 77892, Note_off_c, 0, 82, 60
1, 77898, Note_off_c, 0, 80, 59
1, 78021, Note_on_c, 0, 60, 39
1, 78039, Note_on_c, 0, 62, 48
1, 78097, Note_off_c, 0, 62, 44
1, 78127, Note_off_c, 0, 60, 41
1, 78141, Note_on_c, 0, 72, 44
1, 78170, Note_on_c, 0, 74, 40
1, 78199, Note_off_c, 0, 72, 59
1, 78199, Note_off_c, 0, 74, 59
1, 78299, Note_on_c, 0, 68, 42
1, 78304, Note_on_c, 0, 66, 38
1, 78463, Note_on_c, 0, 74, 27
1, 78466, Note_on_c, 0, 76, 22
1, 78515, Note_off_c, 0, 68, 33
1, 78590, Note_off_c, 0, 66, 39
1, 78617, Note_on_c, 0, 86, 42
1, 78617, Note_off_c, 0, 74, 40
1, 78618, Note_on_c, 0, 88, 51
1, 78623, Note_off_c, 0, 76, 39
1, 78655, Note_off_c, 0, 88, 62
1, 78667, Note_off_c, 0, 86, 60
1, 79167, Control_c, 0, 64, 96
1, 79168, Note_on_c, 0, 32, 38
1, 79181, Control_c, 0, 64, 79
1, 79196, Control_c, 0, 64, 65
1, 79211, Control_c, 0, 64, 49
1, 79226, Control_c, 0, 64, 0
1, 79258, Note_on_c, 0, 85, 70
1, 79329, Control_c, 0, 64, 34
1, 79344, Control_c, 0, 64, 56
1, 79359, Control_c, 0, 64, 67
1, 79370, Note_off_c, 0, 32, 57
1, 79373, Control_c, 0, 64, 73
1, 79388, Control_c, 0, 64, 81
1, 79404, Control_c, 0, 64, 90
1, 79419, Control_c, 0, 64, 102
1, 79434, Control_c, 0, 64, 127
1, 79504, Note_on_c, 0, 80, 55
1, 79573, Note_on_c, 0, 78, 55
1, 79589, Note_off_c, 0, 85, 59
1, 79623, Note_on_c, 0, 74, 57
1, 79625, Note_off_c, 0, 80, 62
1, 79644, Note_off_c, 0, 74, 64
1, 79644, Note_off_c, 0, 78, 62
1, 79651, Note_on_c, 0, 73, 55
1, 79704, Note_off_c, 0, 73, 55
1, 79706, Note_on_c, 0, 68, 53
1, 79744, Note_on_c, 0, 66, 49
1, 79773, Note_off_c, 0, 68, 48
1, 79804, Note_on_c, 0, 62, 45
1, 79835, Note_off_c, 0, 66, 58
1, 79883, Note_off_c, 0, 62, 60
1, 80178, Note_on_c, 0, 73, 57
1, 80228, Note_on_c, 0, 68, 60
1, 80262, Note_off_c, 0, 73, 54
1, 80282, Note_on_c, 0, 66, 51
1, 80300, Note_on_c, 0, 61, 37
1, 80303, Note_off_c, 0, 68, 62
1, 80315, Note_on_c, 0, 62, 58
1, 80337, Note_off_c, 0, 66, 61
1, 80339, Note_off_c, 0, 61, 49
1, 80346, Note_off_c, 0, 62, 63
1, 80352, Note_on_c, 0, 56, 55
1, 80414, Note_on_c, 0, 54, 40
1, 80414, Note_off_c, 0, 56, 49
1, 80446, Note_on_c, 0, 50, 39
1, 80476, Note_off_c, 0, 54, 52
1, 80494, Note_off_c, 0, 50, 50
1, 80861, Note_on_c, 0, 72, 59
1, 80907, Note_on_c, 0, 68, 63
1, 80907, Note_off_c, 0, 72, 54
1, 80956, Note_on_c, 0, 66, 57
1, 80966, Note_on_c, 0, 60, 41
1, 80968, Note_off_c, 0, 68, 63
1, 80988, Note_on_c, 0, 62, 59
1, 81018, Note_on_c, 0, 56, 54
1, 81018, Note_off_c, 0, 66, 60
1, 81019, Note_off_c, 0, 60, 58
1, 81021, Note_off_c, 0, 62, 64
1, 81066, Note_off_c, 0, 56, 56
1, 81074, Note_on_c, 0, 54, 47
1, 81111, Note_on_c, 0, 50, 48
1, 81135, Note_off_c, 0, 54, 60
1, 81138, Note_off_c, 0, 50, 61
1, 81539, Note_on_c, 0, 84, 66
1, 81581, Note_on_c, 0, 80, 70
1, 81594, Note_off_c, 0, 84, 59
1, 81630, Note_on_c, 0, 78, 60
1, 81643, Note_off_c, 0, 80, 64
1, 81666, Note_on_c, 0, 72, 44
1, 81675, Note_on_c, 0, 74, 58
1, 81687, Note_off_c, 0, 78, 62
1, 81700, Note_off_c, 0, 74, 63
1, 81725, Note_on_c, 0, 68, 53
1, 81732, Note_off_c, 0, 72, 49
1, 81795, Note_on_c, 0, 66, 36
1, 81797, Note_off_c, 0, 68, 39
1, 81838, Note_on_c, 0, 62, 47
1, 81901, Note_off_c, 0, 66, 47
1, 81916, Note_off_c, 0, 62, 56
1, 82311, Control_c, 0, 64, 85
1, 82325, Control_c, 0, 64, 57
1, 82339, Note_on_c, 0, 32, 39
1, 82340, Control_c, 0, 64, 0
1, 82382, Note_on_c, 0, 85, 68
1, 82399, Control_c, 0, 64, 40
1, 82403, Note_off_c, 0, 32, 61
1, 82414, Control_c, 0, 64, 62
1, 82429, Control_c, 0, 64, 82
1, 82444, Control_c, 0, 64, 127
1, 82458, Note_on_c, 0, 80, 65
1, 82492, Note_off_c, 0, 85, 63
1, 82500, Note_on_c, 0, 78, 63
1, 82539, Note_off_c, 0, 80, 64
1, 82542, Note_on_c, 0, 74, 58
1, 82563, Note_off_c, 0, 74, 65
1, 82563, Note_off_c, 0, 78, 64
1, 82634, Note_on_c, 0, 73, 31
1, 82667, Note_on_c, 0, 68, 49
1, 82683, Note_off_c, 0, 73, 48
1, 82714, Note_on_c, 0, 66, 44
1, 82730, Note_off_c, 0, 68, 50
1, 82760, Note_on_c, 0, 62, 30
1, 82800, Note_off_c, 0, 66, 58
1, 82837, Note_off_c, 0, 62, 59
1, 83107, Note_on_c, 0, 73, 60
1, 83159, Note_on_c, 0, 68, 58
1, 83194, Note_off_c, 0, 73, 59
1, 83206, Note_on_c, 0, 66, 54
1, 83226, Note_on_c, 0, 61, 27
1, 83238, Note_on_c, 0, 62, 57
1, 83258, Note_off_c, 0, 68, 59
1, 83265, Note_off_c, 0, 61, 50
1, 83267, Note_off_c, 0, 62, 63
1, 83269, Note_on_c, 0, 56, 49
1, 83275, Note_off_c, 0, 66, 61
1, 83329, Note_on_c, 0, 54, 39
1, 83338, Note_off_c, 0, 56, 44
1, 83363, Note_on_c, 0, 50, 36
1, 83385, Note_off_c, 0, 54, 59
1, 83397, Note_off_c, 0, 50, 54
1, 83737, Note_on_c, 0, 74, 67
1, 83785, Note_on_c, 0, 68, 63
1, 83822, Note_on_c, 0, 56, 51
1, 83823, Note_on_c, 0, 66, 63
1, 83825, Note_off_c, 0, 74, 58
1, 83863, Note_off_c, 0, 56, 62
1, 83871, Note_on_c, 0, 62, 58
1, 83889, Note_off_c, 0, 68, 61
1, 83900, Note_off_c, 0, 66, 61
1, 83901, Note_off_c, 0, 62, 64
1, 83909, Note_on_c, 0, 54, 44
1, 83959, Note_on_c, 0, 50, 49
1, 83961, Note_off_c, 0, 54, 61
1, 83991, Note_off_c, 0, 50, 63
1, 84353, Note_on_c, 0, 86, 69
1, 84402, Note_on_c, 0, 80, 66
1, 84435, Note_off_c, 0, 86, 61
1, 84449, Note_on_c, 0, 78, 64
1, 84492, Note_off_c, 0, 80, 63
1, 84495, Note_on_c, 0, 74, 59
1, 84524, Note_off_c, 0, 74, 66
1, 84525, Note_off_c, 0, 78, 63
1, 84625, Note_on_c, 0, 66, 36
1, 84708, Note_on_c, 0, 62, 33
1, 84745, Note_off_c, 0, 66, 51
1, 84771, Note_off_c, 0, 62, 58
1, 85099, Control_c, 0, 64, 87
1, 85114, Control_c, 0, 64, 63
1, 85129, Control_c, 0, 64, 0
1, 85143, Note_on_c, 0, 47, 44
1, 85147, Note_on_c, 0, 35, 52
1, 85172, Control_c, 0, 64, 35
1, 85180, Note_off_c, 0, 35, 62
1, 85187, Control_c, 0, 64, 59
1, 85198, Note_off_c, 0, 47, 65
1, 85202, Control_c, 0, 64, 79
1, 85205, Note_on_c, 0, 90, 63
1, 85216, Control_c, 0, 64, 127
1, 85278, Note_on_c, 0, 85, 66
1, 85290, Note_off_c, 0, 90, 54
1, 85324, Note_on_c, 0, 80, 65
1, 85353, Note_off_c, 0, 85, 64
1, 85354, Note_on_c, 0, 78, 62
1, 85375, Note_off_c, 0, 80, 63
1, 85382, Note_off_c, 0, 78, 66
1, 85461, Poly_aftertouch_c, 0, 74, 127
1, 85472, Note_on_c, 0, 73, 58
1, 85497, Note_on_c, 0, 68, 59
1, 85497, Poly_aftertouch_c, 0, 74, 0
1, 85504, Note_off_c, 0, 73, 63
1, 85538, Note_off_c, 0, 68, 58
1, 85542, Note_on_c, 0, 66, 51
1, 85578, Note_off_c, 0, 66, 64
1, 85897, Note_on_c, 0, 78, 56
1, 85934, Note_on_c, 0, 73, 62
1, 85937, Note_off_c, 0, 78, 54
1, 85970, Note_on_c, 0, 68, 67
1, 86000, Note_off_c, 0, 73, 61
1, 86019, Note_on_c, 0, 66, 56
1, 86043, Note_on_c, 0, 62, 43
1, 86045, Note_off_c, 0, 68, 63
1, 86054, Note_off_c, 0, 66, 64
1, 86080, Note_off_c, 0, 62, 49
1, 86091, Note_on_c, 0, 61, 54
1, 86145, Note_on_c, 0, 56, 55
1, 86155, Note_off_c, 0, 61, 51
1, 86186, Note_off_c, 0, 56, 60
1, 86193, Note_on_c, 0, 54, 47
1, 86222, Note_off_c, 0, 54, 60
1, 86483, Control_c, 0, 64, 89
1, 86498, Control_c, 0, 64, 59
1, 86512, Note_on_c, 0, 76, 64
1, 86521, Control_c, 0, 64, 0
1, 86525, Note_on_c, 0, 38, 51
1, 86530, Note_on_c, 0, 50, 50
1, 86558, Note_off_c, 0, 38, 63
1, 86563, Note_on_c, 0, 72, 64
1, 86565, Control_c, 0, 64, 49
1, 86569, Note_off_c, 0, 50, 64
1, 86578, Note_off_c, 0, 76, 62
1, 86580, Control_c, 0, 64, 71
1, 86596, Control_c, 0, 64, 127
1, 86601, Note_on_c, 0, 68, 69
1, 86629, Note_on_c, 0, 64, 53
1, 86644, Note_off_c, 0, 72, 57
1, 86658, Note_off_c, 0, 64, 64
1, 86673, Note_off_c, 0, 68, 63
1, 86702, Note_on_c, 0, 62, 59
1, 86735, Note_off_c, 0, 62, 64
1, 86770, Note_on_c, 0, 60, 47
1, 86795, Note_off_c, 0, 60, 60
1, 86831, Note_on_c, 0, 54, 61
1, 86870, Note_off_c, 0, 54, 64
1, 87143, Note_on_c, 0, 88, 69
1, 87188, Note_on_c, 0, 84, 72
1, 87199, Note_off_c, 0, 88, 62
1, 87228, Note_on_c, 0, 80, 74
1, 87264, Note_off_c, 0, 84, 62
1, 87272, Note_on_c, 0, 76, 62
1, 87301, Note_off_c, 0, 80, 64
1, 87305, Note_off_c, 0, 76, 65
1, 87315, Note_on_c, 0, 74, 62
1, 87358, Note_off_c, 0, 74, 57
1, 87371, Note_on_c, 0, 72, 60
1, 87425, Note_on_c, 0, 68, 54
1, 87430, Note_off_c, 0, 72, 46
1, 87482, Note_off_c, 0, 68, 52
1, 87485, Note_on_c, 0, 66, 45
1, 87522, Note_off_c, 0, 66, 61
1, 87818, Control_c, 0, 64, 75
1, 87833, Control_c, 0, 64, 49
1, 87848, Control_c, 0, 64, 0
1, 87852, Note_on_c, 0, 49, 45
1, 87854, Note_on_c, 0, 37, 43
1, 87892, Note_off_c, 0, 37, 59
1, 87892, Control_c, 0, 64, 54
1, 87907, Note_on_c, 0, 92, 62
1, 87907, Control_c, 0, 64, 77
1, 87911, Note_off_c, 0, 49, 64
1, 87922, Control_c, 0, 64, 127
1, 87961, Note_on_c, 0, 87, 70
1, 87970, Note_off_c, 0, 92, 62
1, 88018, Note_on_c, 0, 82, 73
1, 88038, Note_off_c, 0, 87, 64
1, 88053, Note_on_c, 0, 80, 62
1, 88065, Note_off_c, 0, 82, 63
1, 88071, Note_off_c, 0, 80, 65
1, 88127, Note_on_c, 0, 76, 19
1, 88155, Note_on_c, 0, 75, 57
1, 88167, Note_off_c, 0, 76, 38
1, 88191, Note_off_c, 0, 75, 63
1, 88192, Note_on_c, 0, 70, 55
1, 88228, Note_off_c, 0, 70, 66
1, 88229, Note_on_c, 0, 68, 52
1, 88257, Note_off_c, 0, 68, 65
1, 88513, Note_on_c, 0, 80, 61
1, 88559, Note_on_c, 0, 75, 63
1, 88568, Note_off_c, 0, 80, 54
1, 88600, Note_on_c, 0, 70, 67
1, 88604, Note_off_c, 0, 75, 61
1, 88645, Note_on_c, 0, 68, 56
1, 88656, Note_off_c, 0, 70, 65
1, 88667, Note_off_c, 0, 68, 62
1, 88696, Note_on_c, 0, 64, 3
1, 88704, Note_on_c, 0, 63, 54
1, 88733, Note_off_c, 0, 64, 50
1, 88745, Note_off_c, 0, 63, 61
1, 88772, Note_on_c, 0, 58, 30
1, 88795, Note_on_c, 0, 56, 42
1, 88807, Note_off_c, 0, 58, 48
1, 88826, Note_off_c, 0, 56, 52
1, 89094, Control_c, 0, 64, 81
1, 89109, Control_c, 0, 64, 42
1, 89124, Note_on_c, 0, 78, 66
1, 89124, Control_c, 0, 64, 0
1, 89137, Note_on_c, 0, 40, 50
1, 89148, Note_on_c, 0, 52, 47
1, 89166, Note_on_c, 0, 74, 65
1, 89168, Control_c, 0, 64, 51
1, 89170, Note_off_c, 0, 40, 63
1, 89177, Note_off_c, 0, 52, 59
1, 89183, Control_c, 0, 64, 74
1, 89192, Note_off_c, 0, 78, 60
1, 89198, Control_c, 0, 64, 127
1, 89210, Note_on_c, 0, 70, 67
1, 89232, Note_on_c, 0, 66, 59
1, 89246, Note_off_c, 0, 74, 59
1, 89263, Note_off_c, 0, 66, 65
1, 89267, Note_off_c, 0, 70, 64
1, 89303, Note_on_c, 0, 64, 53
1, 89335, Note_off_c, 0, 64, 65
1, 89365, Note_on_c, 0, 62, 44
1, 89389, Note_off_c, 0, 62, 59
1, 89426, Note_on_c, 0, 56, 61
1, 89460, Note_off_c, 0, 56, 62
1, 89732, Note_on_c, 0, 90, 67
1, 89773, Note_on_c, 0, 86, 68
1, 89803, Note_off_c, 0, 90, 62
1, 89813, Note_on_c, 0, 82, 71
1, 89846, Note_off_c, 0, 86, 63
1, 89851, Note_on_c, 0, 78, 58
1, 89871, Note_off_c, 0, 82, 62
1, 89880, Note_off_c, 0, 78, 66
1, 89894, Note_on_c, 0, 74, 43
1, 89920, Note_off_c, 0, 74, 56
1, 89953, Note_on_c, 0, 72, 44
1, 89981, Note_off_c, 0, 72, 54
1, 90011, Note_on_c, 0, 68, 39
1, 90061, Note_on_c, 0, 66, 43
1, 90072, Note_off_c, 0, 68, 42
1, 90110, Note_off_c, 0, 66, 50
1, 90895, Note_on_c, 0, 96, 56
1, 90903, Note_on_c, 0, 88, 38
1, 90912, Note_on_c, 0, 24, 34
1, 90913, Note_on_c, 0, 84, 46
1, 90913, Note_on_c, 0, 91, 44
1, 90918, Control_c, 0, 64, 88
1, 90921, Note_on_c, 0, 36, 28
1, 90932, Note_on_c, 0, 31, 26
1, 90933, Control_c, 0, 64, 69
1, 90948, Control_c, 0, 64, 50
1, 90963, Control_c, 0, 64, 0
1, 91133, Control_c, 0, 64, 45
1, 91148, Control_c, 0, 64, 60
1, 91162, Control_c, 0, 64, 67
1, 91177, Control_c, 0, 64, 72
1, 91192, Control_c, 0, 64, 79
1, 91206, Control_c, 0, 64, 94
1, 91221, Control_c, 0, 64, 127
1, 91246, Note_off_c, 0, 96, 57
1, 91321, Note_off_c, 0, 91, 62
1, 91339, Note_off_c, 0, 88, 60
1, 91352, Note_off_c, 0, 84, 60
1, 91817, Note_on_c, 0, 48, 37
1, 91829, Note_off_c, 0, 36, 40
1, 91834, Note_off_c, 0, 31, 34
1, 91857, Note_off_c, 0, 24, 39
1, 91894, Note_off_c, 0, 48, 39
1, 91898, Note_on_c, 0, 50, 37
1, 91945, Note_off_c, 0, 50, 53
1, 91979, Note_on_c, 0, 52, 60
1, 92002, Note_off_c, 0, 52, 59
1, 92029, Note_on_c, 0, 53, 64
1, 92050, Note_off_c, 0, 53, 61
1, 92068, Note_on_c, 0, 55, 56
1, 92090, Note_off_c, 0, 55, 61
1, 92100, Note_on_c, 0, 57, 54
1, 92120, Note_on_c, 0, 59, 55
1, 92120, Note_off_c, 0, 59, 127
1, 92126, Note_off_c, 0, 57, 62
1, 92139, Note_on_c, 0, 60, 60
1, 92155, Note_on_c, 0, 62, 69
1, 92161, Note_off_c, 0, 60, 43
1, 92175, Note_off_c, 0, 62, 64
1, 92182, Note_on_c, 0, 64, 58
1, 92182, Note_off_c, 0, 64, 127
1, 92205, Note_on_c, 0, 65, 60
1, 92205, Note_off_c, 0, 65, 127
1, 92228, Note_on_c, 0, 67, 56
1, 92228, Note_off_c, 0, 67, 127
1, 92251, Note_on_c, 0, 69, 56
1, 92251, Note_off_c, 0, 69, 127
1, 92271, Note_on_c, 0, 71, 63
1, 92292, Note_off_c, 0, 71, 39
1, 92294, Note_on_c, 0, 72, 69
1, 92309, Note_off_c, 0, 72, 67
1, 92312, Control_c, 0, 64, 82
1, 92326, Control_c, 0, 64, 57
1, 92341, Control_c, 0, 64, 0
1, 92350, Note_on_c, 0, 54, 49
1, 92351, Note_on_c, 0, 66, 51
1, 92353, Note_on_c, 0, 61, 45
1, 92363, Note_on_c, 0, 58, 43
1, 92415, Control_c, 0, 64, 47
1, 92430, Control_c, 0, 64, 66
1, 92445, Control_c, 0, 64, 80
1, 92451, Note_off_c, 0, 54, 63
1, 92458, Note_off_c, 0, 66, 62
1, 92459, Control_c, 0, 64, 127
1, 92464, Note_off_c, 0, 58, 63
1, 92465, Note_off_c, 0, 61, 62
1, 92474, Control_c, 0, 67, 108
1, 92489, Control_c, 0, 67, 88
1, 92512, Control_c, 0, 67, 71
1, 92527, Control_c, 0, 67, 57
1, 92541, Control_c, 0, 67, 44
1, 92556, Control_c, 0, 67, 33
1, 92571, Control_c, 0, 67, 0
1, 92757, Note_on_c, 0, 64, 71
1, 92757, Note_on_c, 0, 76, 77
1, 92763, Note_on_c, 0, 68, 69
1, 92771, Note_on_c, 0, 71, 61
1, 92779, Note_off_c, 0, 64, 70
1, 92786, Note_off_c, 0, 68, 68
1, 92787, Note_off_c, 0, 76, 62
1, 92790, Note_off_c, 0, 71, 63
1, 92793, Control_c, 0, 64, 72
1, 92808, Control_c, 0, 64, 41
1, 92823, Control_c, 0, 64, 0
1, 92842, Note_on_c, 0, 70, 67
1, 92855, Note_on_c, 0, 62, 52
1, 92855, Note_on_c, 0, 65, 53
1, 92857, Note_on_c, 0, 58, 51
1, 92868, Control_c, 0, 67, 28
1, 92883, Control_c, 0, 67, 36
1, 92897, Control_c, 0, 67, 43
1, 92912, Control_c, 0, 67, 50
1, 92927, Control_c, 0, 67, 57
1, 92942, Control_c, 0, 67, 64
1, 92957, Control_c, 0, 67, 71
1, 92972, Control_c, 0, 67, 76
1, 92987, Control_c, 0, 67, 81
1, 93002, Control_c, 0, 67, 86
1, 93017, Control_c, 0, 67, 91
1, 93032, Control_c, 0, 67, 95
1, 93046, Control_c, 0, 67, 97
1, 93061, Control_c, 0, 67, 99
1, 93136, Control_c, 0, 67, 101
1, 93150, Control_c, 0, 67, 105
1, 93165, Control_c, 0, 64, 38
1, 93165, Control_c, 0, 67, 111
1, 93180, Control_c, 0, 64, 52
1, 93180, Control_c, 0, 67, 119
1, 93194, Control_c, 0, 64, 63
1, 93194, Control_c, 0, 67, 127
1, 93209, Control_c, 0, 64, 67
1, 93223, Note_off_c, 0, 70, 63
1, 93224, Control_c, 0, 64, 70
1, 93239, Control_c, 0, 64, 75
1, 93258, Note_off_c, 0, 65, 61
1, 93261, Control_c, 0, 64, 81
1, 93276, Control_c, 0, 64, 87
1, 93290, Note_off_c, 0, 62, 60
1, 93291, Control_c, 0, 64, 91
1, 93306, Control_c, 0, 64, 93
1, 93321, Control_c, 0, 64, 94
1, 93324, Note_off_c, 0, 58, 62
1, 93395, Control_c, 0, 64, 93
1, 93409, Control_c, 0, 64, 93
1, 93424, Control_c, 0, 64, 92
1, 93439, Control_c, 0, 64, 90
1, 93454, Control_c, 0, 64, 87
1, 93469, Control_c, 0, 64, 84
1, 93483, Control_c, 0, 64, 81
1, 93498, Control_c, 0, 64, 78
1, 93513, Control_c, 0, 64, 75
1, 93528, Control_c, 0, 64, 72
1, 93543, Control_c, 0, 64, 69
1, 93557, Control_c, 0, 64, 66
1, 93572, Control_c, 0, 64, 63
1, 93587, Control_c, 0, 64, 60
1, 93601, Control_c, 0, 64, 57
1, 93616, Control_c, 0, 64, 55
1, 93631, Control_c, 0, 64, 51
1, 93646, Control_c, 0, 64, 46
1, 93661, Control_c, 0, 64, 36
1, 93675, Control_c, 0, 64, 0
1, 93826, Note_on_c, 0, 96, 52
1, 93839, Note_on_c, 0, 88, 35
1, 93845, Note_on_c, 0, 91, 46
1, 93846, Note_on_c, 0, 24, 33
1, 93850, Note_on_c, 0, 84, 42
1, 93852, Note_on_c, 0, 31, 26
1, 93862, Note_on_c, 0, 36, 26
1, 93914, Control_c, 0, 64, 31
1, 93929, Control_c, 0, 64, 42
1, 93944, Control_c, 0, 64, 54
1, 93959, Control_c, 0, 64, 62
1, 93973, Control_c, 0, 64, 66
1, 93988, Control_c, 0, 64, 69
1, 94010, Control_c, 0, 64, 73
1, 94024, Control_c, 0, 64, 78
1, 94039, Control_c, 0, 64, 85
1, 94054, Control_c, 0, 64, 93
1, 94057, Note_off_c, 0, 96, 60
1, 94069, Control_c, 0, 64, 102
1, 94084, Control_c, 0, 64, 116
1, 94099, Control_c, 0, 64, 127
1, 94124, Note_off_c, 0, 91, 61
1, 94139, Note_off_c, 0, 88, 44
1, 94153, Note_off_c, 0, 84, 61
1, 94333, Note_off_c, 0, 36, 38
1, 94343, Note_off_c, 0, 24, 38
1, 94380, Note_off_c, 0, 31, 36
1, 94585, Note_on_c, 0, 48, 50
1, 94646, Note_off_c, 0, 48, 61
1, 94690, Note_on_c, 0, 50, 45
1, 94719, Note_off_c, 0, 50, 55
1, 94734, Note_on_c, 0, 52, 57
1, 94765, Note_off_c, 0, 52, 60
1, 94774, Note_on_c, 0, 53, 59
1, 94796, Note_off_c, 0, 53, 60
1, 94804, Note_on_c, 0, 55, 59
1, 94827, Note_off_c, 0, 55, 62
1, 94832, Note_on_c, 0, 57, 56
1, 94853, Note_on_c, 0, 59, 57
1, 94856, Note_off_c, 0, 57, 63
1, 94876, Note_off_c, 0, 59, 64
1, 94877, Note_on_c, 0, 60, 56
1, 94877, Note_off_c, 0, 60, 127
1, 94897, Note_on_c, 0, 62, 62
1, 94919, Note_off_c, 0, 62, 41
1, 94920, Note_on_c, 0, 64, 53
1, 94920, Note_off_c, 0, 64, 127
1, 94940, Note_on_c, 0, 65, 58
1, 94940, Note_off_c, 0, 65, 127
1, 94961, Note_on_c, 0, 67, 55
1, 94961, Note_off_c, 0, 67, 127
1, 94979, Note_on_c, 0, 69, 56
1, 94979, Note_off_c, 0, 69, 127
1, 94999, Note_on_c, 0, 71, 66
1, 95020, Note_off_c, 0, 71, 40
1, 95022, Note_on_c, 0, 72, 71
1, 95026, Control_c, 0, 64, 81
1, 95036, Note_off_c, 0, 72, 66
1, 95041, Control_c, 0, 64, 55
1, 95056, Control_c, 0, 64, 0
1, 95088, Note_on_c, 0, 61, 50
1, 95088, Note_on_c, 0, 66, 58
1, 95103, Note_on_c, 0, 54, 54
1, 95109, Note_on_c, 0, 58, 47
1, 95115, Control_c, 0, 64, 39
1, 95130, Control_c, 0, 64, 60
1, 95145, Control_c, 0, 64, 74
1, 95160, Control_c, 0, 64, 90
1, 95174, Control_c, 0, 64, 127
1, 95251, Note_off_c, 0, 54, 60
1, 95262, Note_off_c, 0, 66, 59
1, 95266, Note_off_c, 0, 58, 63
1, 95273, Note_off_c, 0, 61, 62
1, 95452, Note_on_c, 0, 76, 77
1, 95455, Note_on_c, 0, 64, 66
1, 95460, Note_on_c, 0, 68, 66
1, 95470, Note_on_c, 0, 71, 58
1, 95471, Control_c, 0, 64, 78
1, 95482, Note_off_c, 0, 64, 67
1, 95483, Note_off_c, 0, 68, 67
1, 95486, Control_c, 0, 64, 49
1, 95497, Note_off_c, 0, 71, 59
1, 95507, Note_off_c, 0, 76, 64
1, 95509, Control_c, 0, 64, 0
1, 95553, Control_c, 0, 64, 58
1, 95555, Note_on_c, 0, 70, 74
1, 95557, Note_on_c, 0, 62, 60
1, 95559, Note_on_c, 0, 65, 65
1, 95562, Note_on_c, 0, 58, 56
1, 95568, Control_c, 0, 64, 83
1, 95583, Control_c, 0, 64, 127
1, 95593, Note_off_c, 0, 65, 66
1, 95597, Note_off_c, 0, 62, 62
1, 95599, Note_off_c, 0, 70, 62
1, 95603, Note_off_c, 0, 58, 62
1, 95656, Control_c, 0, 64, 89
1, 95671, Control_c, 0, 64, 68
1, 95685, Control_c, 0, 64, 38
1, 95700, Control_c, 0, 64, 0
1, 95834, Note_on_c, 0, 79, 80
1, 95834, Control_c, 0, 64, 41
1, 95840, Note_on_c, 0, 67, 71
1, 95842, Note_on_c, 0, 71, 66
1, 95843, Note_on_c, 0, 74, 63
1, 95845, Note_on_c, 0, 59, 60
1, 95849, Control_c, 0, 64, 69
1, 95851, Note_on_c, 0, 55, 55
1, 95851, Note_on_c, 0, 62, 53
1, 95863, Control_c, 0, 64, 98
1, 95865, Note_off_c, 0, 67, 68
1, 95868, Note_off_c, 0, 71, 68
1, 95876, Note_off_c, 0, 74, 64
1, 95878, Control_c, 0, 64, 127
1, 95880, Note_off_c, 0, 62, 63
1, 95892, Note_off_c, 0, 59, 62
1, 95897, Note_off_c, 0, 79, 67
1, 95902, Note_off_c, 0, 55, 61
1, 96026, Control_c, 0, 64, 99
1, 96041, Control_c, 0, 64, 80
1, 96056, Control_c, 0, 64, 66
1, 96070, Control_c, 0, 64, 51
1, 96085, Control_c, 0, 64, 0
1, 96460, Note_on_c, 0, 27, 38
1, 96461, Note_on_c, 0, 34, 29
1, 96461, Note_on_c, 0, 87, 40
1, 96463, Note_on_c, 0, 39, 33
1, 96464, Note_on_c, 0, 90, 39
1, 96464, Control_c, 0, 64, 50
1, 96466, Note_on_c, 0, 94, 45
1, 96468, Note_on_c, 0, 99, 50
1, 96479, Control_c, 0, 64, 72
1, 96494, Control_c, 0, 64, 92
1, 96508, Control_c, 0, 64, 127
1, 96522, Note_off_c, 0, 27, 62
1, 96524, Note_off_c, 0, 99, 62
1, 96527, Note_off_c, 0, 90, 63
1, 96527, Note_off_c, 0, 94, 65
1, 96535, Note_off_c, 0, 34, 59
1, 96537, Note_off_c, 0, 87, 63
1, 96549, Note_off_c, 0, 39, 60
1, 97097, Note_on_c, 0, 51, 47
1, 97131, Note_off_c, 0, 51, 63
1, 97166, Note_on_c, 0, 54, 39
1, 97190, Note_on_c, 0, 56, 60
1, 97214, Note_off_c, 0, 54, 53
1, 97239, Note_on_c, 0, 58, 56
1, 97255, Note_off_c, 0, 56, 60
1, 97267, Note_on_c, 0, 61, 67
1, 97273, Note_off_c, 0, 58, 64
1, 97305, Note_off_c, 0, 61, 61
1, 97310, Note_on_c, 0, 63, 54
1, 97335, Note_on_c, 0, 66, 59
1, 97337, Note_off_c, 0, 63, 64
1, 97372, Note_on_c, 0, 68, 68
1, 97405, Note_off_c, 0, 66, 52
1, 97413, Note_on_c, 0, 70, 71
1, 97435, Control_c, 0, 64, 118
1, 97443, Note_on_c, 0, 73, 68
1, 97443, Note_off_c, 0, 68, 59
1, 97449, Control_c, 0, 64, 77
1, 97464, Control_c, 0, 64, 52
1, 97476, Note_off_c, 0, 70, 59
1, 97479, Control_c, 0, 64, 0
1, 97491, Note_on_c, 0, 75, 73
1, 97515, Note_off_c, 0, 73, 62
1, 97527, Note_off_c, 0, 75, 63
1, 97533, Note_on_c, 0, 61, 43
1, 97542, Note_on_c, 0, 69, 43
1, 97552, Note_on_c, 0, 64, 44
1, 97558, Note_on_c, 0, 57, 34
1, 97568, Control_c, 0, 64, 48
1, 97583, Control_c, 0, 64, 68
1, 97598, Control_c, 0, 64, 85
1, 97613, Control_c, 0, 64, 127
1, 97654, Note_off_c, 0, 69, 61
1, 97655, Note_off_c, 0, 57, 61
1, 97661, Note_off_c, 0, 64, 60
1, 97677, Note_off_c, 0, 61, 61
1, 97947, Control_c, 0, 64, 106
1, 97959, Note_on_c, 0, 79, 86
1, 97962, Note_on_c, 0, 74, 66
1, 97962, Note_on_c, 0, 67, 71
1, 97962, Control_c, 0, 64, 66
1, 97965, Note_on_c, 0, 71, 64
1, 97977, Control_c, 0, 64, 0
1, 97979, Note_off_c, 0, 67, 69
1, 97983, Note_off_c, 0, 71, 67
1, 97985, Note_off_c, 0, 74, 66
1, 97997, Note_off_c, 0, 79, 63
1, 98046, Note_on_c, 0, 61, 53
1, 98048, Note_on_c, 0, 73, 70
1, 98054, Note_on_c, 0, 65, 64
1, 98056, Note_on_c, 0, 68, 62
1, 98125, Control_c, 0, 64, 44
1, 98140, Control_c, 0, 64, 57
1, 98155, Control_c, 0, 64, 67
1, 98170, Control_c, 0, 64, 82
1, 98185, Control_c, 0, 64, 127
1, 98193, Note_off_c, 0, 73, 62
1, 98236, Note_off_c, 0, 68, 61
1, 98242, Note_off_c, 0, 65, 60
1, 98269, Note_off_c, 0, 61, 55
1, 98518, Control_c, 0, 64, 119
1, 98532, Control_c, 0, 64, 103
1, 98547, Control_c, 0, 64, 94
1, 98562, Control_c, 0, 64, 86
1, 98578, Control_c, 0, 64, 77
1, 98593, Control_c, 0, 64, 70
1, 98608, Control_c, 0, 64, 63
1, 98622, Control_c, 0, 64, 56
1, 98636, Control_c, 0, 64, 51
1, 98651, Control_c, 0, 64, 47
1, 98665, Control_c, 0, 64, 42
1, 98680, Control_c, 0, 64, 32
1, 98695, Control_c, 0, 64, 0
1, 98812, Note_on_c, 0, 87, 47
1, 98813, Note_on_c, 0, 27, 45
1, 98813, Note_on_c, 0, 34, 35
1, 98814, Note_on_c, 0, 99, 56
1, 98818, Note_on_c, 0, 90, 42
1, 98823, Note_on_c, 0, 39, 41
1, 98828, Control_c, 0, 64, 32
1, 98831, Note_on_c, 0, 94, 48
1, 98843, Control_c, 0, 64, 51
1, 98858, Control_c, 0, 64, 69
1, 98867, Note_off_c, 0, 27, 64
1, 98868, Note_off_c, 0, 99, 62
1, 98869, Note_off_c, 0, 94, 66
1, 98873, Control_c, 0, 64, 94
1, 98874, Note_off_c, 0, 90, 62
1, 98883, Note_off_c, 0, 87, 62
1, 98884, Note_off_c, 0, 34, 62
1, 98888, Control_c, 0, 64, 127
1, 98897, Note_off_c, 0, 39, 61
1, 99440, Note_on_c, 0, 51, 53
1, 99480, Note_off_c, 0, 51, 63
1, 99506, Note_on_c, 0, 54, 40
1, 99520, Note_on_c, 0, 56, 62
1, 99547, Note_off_c, 0, 54, 49
1, 99560, Note_on_c, 0, 58, 65
1, 99579, Note_off_c, 0, 56, 61
1, 99593, Note_on_c, 0, 61, 63
1, 99612, Note_off_c, 0, 58, 62
1, 99625, Note_off_c, 0, 61, 64
1, 99632, Note_on_c, 0, 63, 55
1, 99646, Note_on_c, 0, 66, 67
1, 99664, Note_off_c, 0, 63, 64
1, 99691, Note_on_c, 0, 68, 65
1, 99720, Note_off_c, 0, 66, 53
1, 99725, Control_c, 0, 64, 89
1, 99730, Note_on_c, 0, 70, 69
1, 99740, Control_c, 0, 64, 66
1, 99749, Note_off_c, 0, 68, 64
1, 99755, Control_c, 0, 64, 0
1, 99757, Note_on_c, 0, 73, 71
1, 99789, Note_off_c, 0, 70, 64
1, 99793, Note_on_c, 0, 75, 69
1, 99813, Note_off_c, 0, 73, 64
1, 99819, Note_off_c, 0, 75, 69
1, 99838, Note_on_c, 0, 61, 47
1, 99843, Note_on_c, 0, 69, 44
1, 99852, Note_on_c, 0, 57, 46
1, 99852, Note_on_c, 0, 64, 44
1, 99873, Control_c, 0, 64, 51
1, 99888, Control_c, 0, 64, 65
1, 99903, Control_c, 0, 64, 75
1, 99917, Control_c, 0, 64, 90
1, 99932, Control_c, 0, 64, 114
1, 99947, Control_c, 0, 64, 127
1, 99954, Note_off_c, 0, 69, 60
1, 99967, Note_off_c, 0, 57, 60
1, 99973, Note_off_c, 0, 64, 62
1, 99983, Note_off_c, 0, 61, 62
1, 100193, Control_c, 0, 64, 101
1, 100208, Control_c, 0, 64, 63
1, 100213, Note_on_c, 0, 79, 83
1, 100216, Note_on_c, 0, 67, 57
1, 100220, Note_on_c, 0, 74, 62
1, 100222, Note_on_c, 0, 71, 54
1, 100223, Control_c, 0, 64, 0
1, 100238, Note_off_c, 0, 67, 38
1, 100244, Note_off_c, 0, 71, 60
1, 100246, Note_off_c, 0, 74, 66
1, 100257, Note_off_c, 0, 79, 68
1, 100293, Note_on_c, 0, 61, 52
1, 100297, Note_on_c, 0, 68, 64
1, 100297, Control_c, 0, 64, 45
1, 100299, Note_on_c, 0, 73, 68
1, 100302, Note_on_c, 0, 65, 62
1, 100312, Control_c, 0, 64, 67
1, 100326, Control_c, 0, 64, 88
1, 100341, Control_c, 0, 64, 127
1, 100369, Note_off_c, 0, 73, 62
1, 100379, Note_off_c, 0, 61, 50
1, 100418, Note_off_c, 0, 68, 62
1, 100433, Note_off_c, 0, 65, 55
1, 100654, Note_on_c, 0, 97, 88
1, 100670, Note_on_c, 0, 85, 64
1, 100704, Note_off_c, 0, 85, 61
1, 100754, Note_off_c, 0, 97, 66
1, 101283, Control_c, 0, 64, 109
1, 101298, Control_c, 0, 64, 81
1, 101307, Note_on_c, 0, 29, 39
1, 101313, Control_c, 0, 64, 64
1, 101327, Control_c, 0, 64, 46
1, 101342, Control_c, 0, 64, 0
1, 101357, Control_c, 0, 64, 34
1, 101372, Control_c, 0, 64, 46
1, 101387, Control_c, 0, 64, 59
1, 101402, Control_c, 0, 64, 71
1, 101414, Note_off_c, 0, 29, 61
1, 101416, Control_c, 0, 64, 88
1, 101431, Control_c, 0, 64, 127
1, 101447, Note_on_c, 0, 99, 49
1, 101631, Note_on_c, 0, 97, 65
1, 101634, Note_off_c, 0, 99, 58
1, 101673, Note_on_c, 0, 95, 66
1, 101694, Note_off_c, 0, 97, 61
1, 101701, Note_on_c, 0, 92, 72
1, 101710, Note_off_c, 0, 95, 63
1, 101718, Note_on_c, 0, 85, 75
1, 101729, Note_off_c, 0, 92, 66
1, 101739, Note_on_c, 0, 83, 61
1, 101739, Note_off_c, 0, 85, 71
1, 101783, Note_on_c, 0, 75, 52
1, 101792, Note_on_c, 0, 73, 61
1, 101805, Note_off_c, 0, 83, 63
1, 101838, Note_on_c, 0, 71, 59
1, 101845, Note_off_c, 0, 75, 61
1, 101852, Note_off_c, 0, 73, 63
1, 101867, Note_off_c, 0, 71, 67
1, 101888, Note_on_c, 0, 87, 47
1, 101909, Note_on_c, 0, 85, 71
1, 101944, Note_off_c, 0, 87, 63
1, 101947, Note_on_c, 0, 83, 75
1, 101971, Note_on_c, 0, 80, 75
1, 101983, Note_off_c, 0, 85, 63
1, 102005, Note_on_c, 0, 71, 50
1, 102011, Note_off_c, 0, 83, 62
1, 102030, Note_on_c, 0, 73, 67
1, 102037, Note_off_c, 0, 80, 63
1, 102049, Note_off_c, 0, 73, 66
1, 102055, Note_on_c, 0, 63, 57
1, 102073, Note_on_c, 0, 61, 56
1, 102081, Note_off_c, 0, 71, 62
1, 102110, Note_on_c, 0, 59, 52
1, 102122, Note_off_c, 0, 63, 61
1, 102131, Note_off_c, 0, 61, 61
1, 102143, Note_off_c, 0, 59, 65
1, 102170, Note_on_c, 0, 75, 46
1, 102225, Note_on_c, 0, 73, 59
1, 102243, Note_off_c, 0, 75, 56
1, 102269, Note_on_c, 0, 71, 67
1, 102287, Note_on_c, 0, 59, 46
1, 102299, Note_off_c, 0, 73, 57
1, 102308, Note_on_c, 0, 68, 64
1, 102341, Note_on_c, 0, 61, 39
1, 102355, Note_on_c, 0, 51, 48
1, 102356, Note_off_c, 0, 71, 63
1, 102368, Note_off_c, 0, 68, 62
1, 102375, Note_off_c, 0, 59, 57
1, 102375, Note_off_c, 0, 61, 48
1, 102398, Note_on_c, 0, 49, 38
1, 102431, Note_on_c, 0, 47, 43
1, 102433, Note_off_c, 0, 49, 56
1, 102436, Note_off_c, 0, 51, 59
1, 102461, Note_off_c, 0, 47, 56
1, 102749, Note_on_c, 0, 61, 72
1, 102776, Note_off_c, 0, 61, 65
1, 102812, Note_on_c, 0, 80, 89
1, 102840, Note_on_c, 0, 68, 64
1, 103427, Note_on_c, 0, 35, 57
1, 103486, Note_off_c, 0, 68, 60
1, 103511, Note_off_c, 0, 35, 58
1, 103545, Note_off_c, 0, 80, 63
1, 103996, Control_c, 0, 64, 92
1, 104010, Control_c, 0, 64, 67
1, 104025, Control_c, 0, 64, 44
1, 104030, Note_on_c, 0, 29, 47
1, 104040, Control_c, 0, 64, 0
1, 104070, Control_c, 0, 64, 34
1, 104085, Control_c, 0, 64, 58
1, 104095, Note_off_c, 0, 29, 63
1, 104100, Control_c, 0, 64, 77
1, 104115, Control_c, 0, 64, 118
1, 104129, Control_c, 0, 64, 127
1, 104131, Note_on_c, 0, 99, 52
1, 104213, Note_on_c, 0, 97, 63
1, 104249, Note_off_c, 0, 99, 58
1, 104279, Note_on_c, 0, 95, 68
1, 104302, Note_off_c, 0, 97, 57
1, 104317, Note_on_c, 0, 92, 68
1, 104321, Note_off_c, 0, 95, 63
1, 104338, Note_on_c, 0, 85, 80
1, 104343, Note_off_c, 0, 92, 68
1, 104359, Note_off_c, 0, 85, 71
1, 104383, Note_on_c, 0, 83, 61
1, 104410, Note_on_c, 0, 73, 59
1, 104413, Note_on_c, 0, 75, 55
1, 104433, Note_off_c, 0, 83, 62
1, 104451, Note_off_c, 0, 75, 62
1, 104460, Note_on_c, 0, 71, 56
1, 104470, Note_off_c, 0, 73, 63
1, 104496, Note_off_c, 0, 71, 66
1, 104497, Note_on_c, 0, 87, 50
1, 104520, Note_on_c, 0, 85, 71
1, 104560, Note_off_c, 0, 87, 63
1, 104562, Note_on_c, 0, 83, 76
1, 104582, Note_on_c, 0, 80, 80
1, 104596, Note_off_c, 0, 85, 63
1, 104623, Note_off_c, 0, 83, 64
1, 104631, Note_on_c, 0, 73, 69
1, 104636, Note_on_c, 0, 71, 50
1, 104644, Note_off_c, 0, 80, 62
1, 104662, Note_off_c, 0, 73, 64
1, 104681, Note_on_c, 0, 63, 53
1, 104693, Note_on_c, 0, 61, 60
1, 104698, Note_off_c, 0, 71, 62
1, 104727, Note_on_c, 0, 59, 55
1, 104737, Note_off_c, 0, 63, 58
1, 104750, Note_off_c, 0, 61, 60
1, 104761, Note_off_c, 0, 59, 64
1, 104837, Note_on_c, 0, 73, 54
1, 104848, Control_c, 0, 64, 116
1, 104863, Control_c, 0, 64, 99
1, 104866, Note_on_c, 0, 70, 54
1, 104890, Note_off_c, 0, 70, 58
1, 104892, Note_on_c, 0, 71, 64
1, 104893, Note_on_c, 0, 59, 47
1, 104907, Control_c, 0, 64, 111
1, 104915, Note_off_c, 0, 73, 59
1, 104922, Note_on_c, 0, 68, 69
1, 104922, Control_c, 0, 64, 127
1, 104955, Note_on_c, 0, 61, 40
1, 104957, Note_off_c, 0, 59, 59
1, 104967, Note_on_c, 0, 51, 47
1, 104979, Note_off_c, 0, 68, 62
1, 104979, Note_off_c, 0, 71, 63
1, 104981, Note_off_c, 0, 61, 55
1, 104986, Note_on_c, 0, 49, 48
1, 105004, Note_on_c, 0, 47, 52
1, 105018, Note_off_c, 0, 51, 58
1, 105022, Note_off_c, 0, 49, 59
1, 105030, Note_off_c, 0, 47, 63
1, 105307, Note_on_c, 0, 61, 79
1, 105331, Note_off_c, 0, 61, 67
1, 105349, Note_on_c, 0, 82, 86
1, 105373, Note_off_c, 0, 82, 65
1, 105382, Note_on_c, 0, 70, 36
1, 105409, Note_off_c, 0, 70, 55
1, 105416, Note_on_c, 0, 68, 93
1, 106036, Control_c, 0, 64, 116
1, 106051, Control_c, 0, 64, 89
1, 106054, Note_on_c, 0, 35, 58
1, 106065, Control_c, 0, 64, 74
1, 106080, Control_c, 0, 64, 63
1, 106095, Control_c, 0, 64, 54
1, 106110, Control_c, 0, 64, 52
1, 106124, Control_c, 0, 64, 56
1, 106139, Control_c, 0, 64, 61
1, 106153, Control_c, 0, 64, 65
1, 106168, Control_c, 0, 64, 70
1, 106183, Control_c, 0, 64, 77
1, 106186, Note_off_c, 0, 35, 61
1, 106198, Control_c, 0, 64, 84
1, 106213, Control_c, 0, 64, 89
1, 106228, Control_c, 0, 64, 92
1, 106243, Control_c, 0, 64, 94
1, 106257, Control_c, 0, 64, 96
1, 106287, Control_c, 0, 64, 99
1, 106346, Control_c, 0, 64, 101
1, 106524, Control_c, 0, 64, 98
1, 106538, Control_c, 0, 64, 95
1, 106554, Control_c, 0, 64, 92
1, 106569, Control_c, 0, 64, 88
1, 106584, Control_c, 0, 64, 83
1, 106599, Control_c, 0, 64, 78
1, 106614, Control_c, 0, 64, 72
1, 106628, Control_c, 0, 64, 65
1, 106643, Control_c, 0, 64, 56
1, 106658, Control_c, 0, 64, 45
1, 106673, Control_c, 0, 64, 31
1, 106687, Control_c, 0, 64, 0
1, 106757, Note_on_c, 0, 29, 38
1, 106873, Control_c, 0, 64, 40
1, 106887, Control_c, 0, 64, 56
1, 106900, Note_off_c, 0, 29, 58
1, 106902, Control_c, 0, 64, 66
1, 106917, Control_c, 0, 64, 71
1, 106932, Control_c, 0, 64, 78
1, 106947, Control_c, 0, 64, 90
1, 106961, Control_c, 0, 64, 117
1, 106976, Control_c, 0, 64, 127
1, 107039, Note_off_c, 0, 68, 57
1, 107213, Control_c, 0, 67, 122
1, 107228, Control_c, 0, 67, 114
1, 107243, Control_c, 0, 67, 104
1, 107258, Control_c, 0, 67, 96
1, 107272, Control_c, 0, 67, 88
1, 107277, Note_on_c, 0, 61, 52
1, 107287, Control_c, 0, 67, 79
1, 107302, Control_c, 0, 67, 67
1, 107317, Control_c, 0, 67, 51
1, 107319, Note_off_c, 0, 61, 60
1, 107332, Control_c, 0, 67, 34
1, 107348, Control_c, 0, 67, 0
1, 107400, Note_on_c, 0, 82, 88
1, 107410, Note_on_c, 0, 70, 69
1, 107436, Note_off_c, 0, 70, 69
1, 107453, Note_off_c, 0, 82, 62
1, 107498, Note_on_c, 0, 68, 91
1, 107534, Note_off_c, 0, 68, 64
1, 107558, Note_on_c, 0, 83, 94
1, 107561, Note_on_c, 0, 71, 90
1, 107595, Note_off_c, 0, 71, 66
1, 107596, Note_off_c, 0, 83, 66
1, 107635, Note_on_c, 0, 69, 95
1, 107671, Note_off_c, 0, 69, 69
1, 107704, Note_on_c, 0, 62, 95
1, 107771, Control_c, 0, 64, 102
1, 107785, Control_c, 0, 64, 67
1, 107800, Control_c, 0, 64, 0
1, 107948, Control_c, 0, 64, 40
1, 107963, Control_c, 0, 64, 59
1, 107978, Control_c, 0, 64, 66
1, 107993, Control_c, 0, 64, 68
1, 108008, Control_c, 0, 64, 70
1, 108023, Control_c, 0, 64, 72
1, 108037, Control_c, 0, 64, 78
1, 108052, Control_c, 0, 64, 86
1, 108067, Control_c, 0, 64, 98
1, 108082, Control_c, 0, 64, 127
1, 108588, Note_on_c, 0, 69, 44
1, 108678, Note_off_c, 0, 62, 57
1, 108696, Note_on_c, 0, 72, 51
1, 108698, Note_off_c, 0, 69, 62
1, 108724, Note_off_c, 0, 72, 65
1, 108739, Note_on_c, 0, 75, 59
1, 108768, Note_on_c, 0, 78, 73
1, 108799, Note_off_c, 0, 75, 62
1, 108807, Note_on_c, 0, 81, 74
1, 108842, Note_off_c, 0, 78, 66
1, 108850, Note_on_c, 0, 84, 78
1, 108850, Note_off_c, 0, 81, 66
1, 108873, Note_off_c, 0, 84, 71
1, 108910, Note_on_c, 0, 87, 71
1, 108964, Note_on_c, 0, 90, 76
1, 108966, Note_off_c, 0, 87, 66
1, 109004, Note_on_c, 0, 89, 82
1, 109012, Note_off_c, 0, 90, 63
1, 109046, Note_on_c, 0, 93, 88
1, 109067, Note_off_c, 0, 89, 60
1, 109084, Note_on_c, 0, 96, 92
1, 109124, Note_off_c, 0, 93, 66
1, 109132, Note_on_c, 0, 101, 97
1, 109154, Note_off_c, 0, 96, 67
1, 109623, Control_c, 0, 67, 19
1, 109839, Control_c, 0, 67, 21
1, 109898, Control_c, 0, 67, 24
1, 109927, Control_c, 0, 67, 27
1, 109972, Control_c, 0, 67, 30
1, 109987, Control_c, 0, 67, 33
1, 110002, Control_c, 0, 67, 39
1, 110017, Control_c, 0, 67, 46
1, 110031, Control_c, 0, 67, 53
1, 110046, Control_c, 0, 67, 61
1, 110061, Control_c, 0, 67, 68
1, 110076, Control_c, 0, 67, 73
1, 110091, Control_c, 0, 67, 78
1, 110105, Control_c, 0, 67, 83
1, 110120, Control_c, 0, 67, 88
1, 110135, Control_c, 0, 67, 92
1, 110149, Control_c, 0, 67, 96
1, 110164, Control_c, 0, 67, 100
1, 110179, Control_c, 0, 67, 105
1, 110194, Control_c, 0, 67, 109
1, 110209, Control_c, 0, 67, 113
1, 110223, Control_c, 0, 67, 118
1, 110238, Control_c, 0, 67, 123
1, 110253, Control_c, 0, 67, 127
1, 110285, Note_on_c, 0, 90, 36
1, 110446, Note_on_c, 0, 96, 38
1, 110470, Note_on_c, 0, 87, 38
1, 110492, Note_off_c, 0, 90, 44
1, 110494, Note_off_c, 0, 101, 31
1, 110524, Note_off_c, 0, 96, 48
1, 110538, Note_off_c, 0, 87, 54
1, 110550, Note_on_c, 0, 93, 25
1, 110586, Note_off_c, 0, 93, 51
1, 110619, Note_on_c, 0, 89, 41
1, 110623, Note_on_c, 0, 84, 29
1, 110683, Note_off_c, 0, 89, 38
1, 110705, Note_on_c, 0, 101, 42
1, 110710, Note_off_c, 0, 84, 39
1, 110720, Note_on_c, 0, 90, 39
1, 110752, Note_off_c, 0, 101, 46
1, 110767, Note_off_c, 0, 90, 48
1, 110786, Note_on_c, 0, 96, 37
1, 110792, Note_on_c, 0, 87, 34
1, 110831, Note_off_c, 0, 96, 47
1, 110839, Note_off_c, 0, 87, 51
1, 110849, Note_on_c, 0, 93, 45
1, 110877, Note_off_c, 0, 93, 61
1, 110879, Note_on_c, 0, 84, 30
1, 110890, Note_on_c, 0, 89, 57
1, 110929, Note_off_c, 0, 89, 60
1, 110953, Note_off_c, 0, 84, 41
1, 110971, Note_on_c, 0, 90, 44
1, 110984, Note_on_c, 0, 101, 36
1, 111004, Note_off_c, 0, 90, 55
1, 111020, Note_off_c, 0, 101, 50
1, 111031, Note_on_c, 0, 96, 44
1, 111060, Note_on_c, 0, 87, 21
1, 111071, Note_off_c, 0, 96, 51
1, 111091, Note_on_c, 0, 93, 40
1, 111098, Note_on_c, 0, 84, 36
1, 111100, Note_off_c, 0, 87, 45
1, 111115, Note_on_c, 0, 89, 59
1, 111120, Note_off_c, 0, 93, 53
1, 111147, Note_off_c, 0, 84, 52
1, 111152, Note_off_c, 0, 89, 59
1, 111161, Note_on_c, 0, 90, 42
1, 111197, Note_on_c, 0, 101, 48
1, 111204, Note_off_c, 0, 90, 61
1, 111226, Note_on_c, 0, 87, 34
1, 111245, Note_off_c, 0, 101, 47
1, 111265, Note_on_c, 0, 96, 38
1, 111297, Note_off_c, 0, 96, 55
1, 111315, Note_on_c, 0, 93, 44
1, 111321, Note_off_c, 0, 87, 50
1, 111339, Note_off_c, 0, 93, 52
1, 111340, Note_on_c, 0, 89, 58
1, 111343, Note_on_c, 0, 84, 21
1, 111376, Note_off_c, 0, 89, 59
1, 111410, Note_off_c, 0, 84, 43
1, 111418, Note_on_c, 0, 101, 58
1, 111426, Control_c, 0, 64, 110
1, 111427, Note_on_c, 0, 92, 43
1, 111441, Control_c, 0, 64, 106
1, 111459, Note_off_c, 0, 101, 47
1, 111462, Note_off_c, 0, 92, 50
1, 111464, Note_on_c, 0, 90, 44
1, 111477, Note_on_c, 0, 96, 50
1, 111485, Control_c, 0, 64, 113
1, 111494, Note_off_c, 0, 90, 53
1, 111500, Control_c, 0, 64, 127
1, 111512, Note_on_c, 0, 87, 44
1, 111513, Note_off_c, 0, 96, 57
1, 111518, Note_on_c, 0, 93, 54
1, 111544, Note_off_c, 0, 87, 60
1, 111548, Note_on_c, 0, 89, 67
1, 111549, Note_off_c, 0, 93, 64
1, 111557, Note_on_c, 0, 84, 42
1, 111590, Note_off_c, 0, 89, 59
1, 111612, Note_on_c, 0, 92, 50
1, 111613, Note_off_c, 0, 84, 58
1, 111625, Note_on_c, 0, 101, 58
1, 111633, Control_c, 0, 64, 116
1, 111650, Note_off_c, 0, 92, 62
1, 111651, Note_on_c, 0, 90, 47
1, 111662, Note_off_c, 0, 101, 58
1, 111668, Note_on_c, 0, 96, 55
1, 111677, Control_c, 0, 64, 127
1, 111683, Note_off_c, 0, 90, 59
1, 111686, Note_on_c, 0, 87, 40
1, 111705, Note_off_c, 0, 96, 63
1, 111714, Note_on_c, 0, 93, 57
1, 111731, Note_off_c, 0, 87, 63
1, 111737, Note_on_c, 0, 89, 70
1, 111737, Note_off_c, 0, 93, 67
1, 111738, Note_on_c, 0, 84, 54
1, 111781, Note_off_c, 0, 89, 61
1, 111792, Note_off_c, 0, 84, 61
1, 111793, Note_on_c, 0, 92, 53
1, 111808, Note_on_c, 0, 101, 72
1, 111823, Note_on_c, 0, 90, 55
1, 111826, Note_off_c, 0, 92, 63
1, 111853, Note_on_c, 0, 96, 66
1, 111859, Note_off_c, 0, 90, 62
1, 111860, Note_on_c, 0, 87, 53
1, 111875, Note_off_c, 0, 101, 58
1, 111900, Note_off_c, 0, 87, 61
1, 111904, Note_off_c, 0, 96, 64
1, 111907, Note_on_c, 0, 93, 67
1, 111921, Note_on_c, 0, 89, 76
1, 111926, Note_on_c, 0, 84, 47
1, 111936, Note_off_c, 0, 93, 59
1, 111949, Note_off_c, 0, 84, 61
1, 111957, Note_on_c, 0, 92, 60
1, 111975, Note_off_c, 0, 89, 63
1, 111991, Note_on_c, 0, 101, 81
1, 111997, Note_on_c, 0, 90, 55
1, 112015, Note_off_c, 0, 92, 65
1, 112024, Note_on_c, 0, 87, 67
1, 112026, Note_on_c, 0, 96, 70
1, 112032, Note_off_c, 0, 90, 65
1, 112041, Control_c, 0, 64, 116
1, 112046, Note_on_c, 0, 84, 57
1, 112056, Control_c, 0, 64, 119
1, 112058, Note_off_c, 0, 87, 65
1, 112062, Note_off_c, 0, 101, 64
1, 112069, Note_on_c, 0, 93, 70
1, 112070, Note_off_c, 0, 84, 65
1, 112071, Control_c, 0, 64, 127
1, 112078, Note_off_c, 0, 96, 65
1, 112091, Note_off_c, 0, 93, 70
1, 112091, Note_on_c, 0, 89, 73
1, 112118, Note_off_c, 0, 89, 66
1, 112160, Control_c, 0, 64, 113
1, 112175, Control_c, 0, 64, 93
1, 112175, Note_on_c, 0, 80, 65
1, 112181, Note_on_c, 0, 89, 82
1, 112190, Control_c, 0, 64, 91
1, 112205, Note_on_c, 0, 78, 66
1, 112205, Control_c, 0, 64, 109
1, 112207, Note_off_c, 0, 80, 60
1, 112220, Control_c, 0, 64, 127
1, 112223, Note_on_c, 0, 84, 69
1, 112234, Control_c, 0, 67, 111
1, 112240, Note_on_c, 0, 75, 55
1, 112247, Note_off_c, 0, 78, 59
1, 112249, Control_c, 0, 67, 90
1, 112261, Note_off_c, 0, 89, 65
1, 112264, Control_c, 0, 67, 66
1, 112267, Note_off_c, 0, 84, 57
1, 112275, Note_on_c, 0, 81, 63
1, 112279, Control_c, 0, 67, 39
1, 112285, Note_on_c, 0, 83, 56
1, 112288, Note_off_c, 0, 75, 59
1, 112292, Note_on_c, 0, 72, 60
1, 112294, Control_c, 0, 67, 0
1, 112296, Note_on_c, 0, 77, 76
1, 112303, Note_off_c, 0, 83, 61
1, 112313, Note_off_c, 0, 81, 57
1, 112332, Note_on_c, 0, 80, 69
1, 112336, Note_off_c, 0, 77, 64
1, 112339, Note_off_c, 0, 72, 60
1, 112354, Note_on_c, 0, 89, 86
1, 112369, Note_on_c, 0, 78, 62
1, 112388, Note_off_c, 0, 80, 64
1, 112391, Note_on_c, 0, 84, 80
1, 112404, Note_on_c, 0, 75, 66
1, 112407, Note_off_c, 0, 78, 63
1, 112417, Note_on_c, 0, 81, 76
1, 112425, Note_off_c, 0, 89, 62
1, 112430, Note_off_c, 0, 75, 69
1, 112439, Note_on_c, 0, 72, 38
1, 112443, Note_off_c, 0, 84, 65
1, 112456, Note_on_c, 0, 77, 76
1, 112461, Note_off_c, 0, 81, 65
1, 112468, Note_off_c, 0, 72, 43
1, 112482, Note_off_c, 0, 77, 67
1, 112500, Control_c, 0, 64, 104
1, 112515, Control_c, 0, 64, 87
1, 112524, Note_on_c, 0, 68, 83
1, 112530, Control_c, 0, 64, 89
1, 112541, Note_on_c, 0, 77, 80
1, 112545, Control_c, 0, 64, 127
1, 112562, Note_on_c, 0, 66, 65
1, 112571, Note_off_c, 0, 68, 62
1, 112576, Note_on_c, 0, 72, 67
1, 112617, Note_off_c, 0, 77, 64
1, 112618, Note_on_c, 0, 63, 58
1, 112618, Note_off_c, 0, 66, 59
1, 112624, Note_on_c, 0, 69, 75
1, 112634, Control_c, 0, 64, 103
1, 112637, Note_off_c, 0, 72, 60
1, 112639, Note_on_c, 0, 60, 70
1, 112649, Control_c, 0, 64, 88
1, 112651, Note_off_c, 0, 63, 65
1, 112652, Note_on_c, 0, 65, 84
1, 112664, Control_c, 0, 64, 89
1, 112670, Note_off_c, 0, 69, 60
1, 112679, Control_c, 0, 64, 118
1, 112693, Control_c, 0, 64, 127
1, 112698, Note_off_c, 0, 65, 65
1, 112701, Note_off_c, 0, 60, 63
1, 112703, Note_on_c, 0, 68, 70
1, 112723, Note_on_c, 0, 77, 87
1, 112738, Note_on_c, 0, 66, 71
1, 112741, Note_off_c, 0, 68, 67
1, 112764, Note_on_c, 0, 72, 75
1, 112772, Note_on_c, 0, 63, 62
1, 112776, Note_off_c, 0, 66, 58
1, 112797, Note_on_c, 0, 69, 74
1, 112802, Note_off_c, 0, 77, 62
1, 112810, Poly_aftertouch_c, 0, 74, 127
1, 112819, Note_off_c, 0, 63, 60
1, 112831, Note_on_c, 0, 65, 80
1, 112833, Note_off_c, 0, 72, 63
1, 112846, Poly_aftertouch_c, 0, 74, 0
1, 112849, Note_off_c, 0, 69, 60
1, 112883, Note_off_c, 0, 65, 65
1, 112892, Note_on_c, 0, 68, 74
1, 112910, Note_on_c, 0, 77, 79
1, 112929, Note_off_c, 0, 68, 62
1, 112957, Note_on_c, 0, 66, 62
1, 112998, Note_on_c, 0, 65, 73
1, 112998, Note_off_c, 0, 66, 62
1, 113004, Note_off_c, 0, 77, 58
1, 113008, Note_on_c, 0, 63, 71
1, 113030, Note_off_c, 0, 65, 68
1, 113048, Note_on_c, 0, 69, 62
1, 113049, Note_on_c, 0, 66, 60
1, 113061, Note_on_c, 0, 72, 70
1, 113084, Note_on_c, 0, 68, 75
1, 113084, Note_off_c, 0, 69, 62
1, 113093, Note_off_c, 0, 63, 60
1, 113105, Note_on_c, 0, 77, 74
1, 113106, Note_off_c, 0, 72, 65
1, 113111, Note_off_c, 0, 66, 61
1, 113123, Note_off_c, 0, 77, 73
1, 113129, Note_off_c, 0, 68, 58
1, 113149, Note_on_c, 0, 75, 55
1, 113162, Note_on_c, 0, 77, 81
1, 113168, Note_off_c, 0, 75, 62
1, 113184, Poly_aftertouch_c, 0, 74, 0
1, 113210, Note_on_c, 0, 81, 79
1, 113210, Note_off_c, 0, 77, 64
1, 113224, Note_on_c, 0, 78, 75
1, 113242, Note_on_c, 0, 84, 88
1, 113264, Note_off_c, 0, 81, 65
1, 113275, Note_off_c, 0, 78, 64
1, 113279, Note_on_c, 0, 80, 72
1, 113284, Note_off_c, 0, 84, 68
1, 113285, Note_on_c, 0, 89, 73
1, 113303, Note_on_c, 0, 86, 19
1, 113306, Note_off_c, 0, 80, 66
1, 113308, Note_off_c, 0, 89, 68
1, 113342, Note_on_c, 0, 89, 92
1, 113343, Note_on_c, 0, 87, 65
1, 113346, Note_off_c, 0, 86, 46
1, 113383, Note_off_c, 0, 87, 60
1, 113390, Note_on_c, 0, 93, 88
1, 113400, Note_off_c, 0, 89, 61
1, 113426, Note_on_c, 0, 96, 90
1, 113437, Note_on_c, 0, 90, 68
1, 113469, Note_off_c, 0, 93, 65
1, 113480, Note_on_c, 0, 98, 69
1, 113481, Note_on_c, 0, 101, 100
1, 113491, Note_off_c, 0, 96, 69
1, 113492, Note_on_c, 0, 92, 81
1, 113498, Note_off_c, 0, 90, 52
1, 113498, Note_off_c, 0, 98, 66
1, 113516, Note_off_c, 0, 101, 67
1, 113529, Note_off_c, 0, 92, 66
1, 113894, Control_c, 0, 67, 20
1, 113924, Control_c, 0, 67, 23
1, 113953, Control_c, 0, 67, 26
1, 113983, Control_c, 0, 67, 29
1, 113997, Control_c, 0, 67, 33
1, 114012, Control_c, 0, 67, 37
1, 114027, Control_c, 0, 67, 43
1, 114042, Control_c, 0, 67, 50
1, 114057, Control_c, 0, 67, 58
1, 114071, Control_c, 0, 67, 67
1, 114086, Control_c, 0, 67, 74
1, 114101, Control_c, 0, 67, 81
1, 114115, Control_c, 0, 67, 87
1, 114130, Control_c, 0, 67, 95
1, 114145, Control_c, 0, 67, 103
1, 114160, Control_c, 0, 67, 111
1, 114175, Control_c, 0, 67, 122
1, 114190, Control_c, 0, 67, 127
1, 114242, Control_c, 0, 64, 98
1, 114257, Control_c, 0, 64, 76
1, 114271, Control_c, 0, 64, 59
1, 114286, Control_c, 0, 64, 0
1, 114291, Note_on_c, 0, 29, 39
1, 114335, Note_on_c, 0, 99, 50
1, 114360, Control_c, 0, 64, 47
1, 114375, Control_c, 0, 64, 67
1, 114385, Note_off_c, 0, 29, 63
1, 114390, Control_c, 0, 64, 84
1, 114405, Control_c, 0, 64, 127
1, 114542, Note_on_c, 0, 97, 67
1, 114554, Note_off_c, 0, 99, 61
1, 114575, Note_on_c, 0, 95, 71
1, 114602, Note_off_c, 0, 97, 62
1, 114612, Note_on_c, 0, 92, 76
1, 114625, Note_off_c, 0, 95, 65
1, 114637, Note_on_c, 0, 85, 78
1, 114652, Note_off_c, 0, 92, 62
1, 114659, Note_off_c, 0, 85, 69
1, 114664, Note_on_c, 0, 83, 67
1, 114694, Note_on_c, 0, 75, 63
1, 114708, Note_on_c, 0, 73, 63
1, 114709, Note_off_c, 0, 83, 65
1, 114746, Note_off_c, 0, 75, 61
1, 114747, Note_on_c, 0, 71, 57
1, 114757, Note_off_c, 0, 73, 61
1, 114778, Note_off_c, 0, 71, 67
1, 114798, Note_on_c, 0, 87, 46
1, 114842, Note_off_c, 0, 87, 64
1, 114866, Note_on_c, 0, 83, 62
1, 114869, Note_on_c, 0, 84, 63
1, 114889, Note_on_c, 0, 80, 70
1, 114901, Note_off_c, 0, 84, 62
1, 114922, Note_off_c, 0, 83, 64
1, 114940, Note_on_c, 0, 71, 44
1, 114947, Note_on_c, 0, 73, 70
1, 114951, Note_off_c, 0, 80, 63
1, 114979, Note_off_c, 0, 73, 70
1, 114984, Note_on_c, 0, 63, 55
1, 114995, Note_off_c, 0, 71, 64
1, 115009, Note_on_c, 0, 61, 50
1, 115028, Note_on_c, 0, 59, 59
1, 115034, Note_off_c, 0, 63, 61
1, 115056, Note_off_c, 0, 61, 62
1, 115060, Note_off_c, 0, 59, 65
1, 115150, Note_on_c, 0, 75, 46
1, 115171, Note_on_c, 0, 73, 59
1, 115218, Note_off_c, 0, 75, 62
1, 115223, Note_on_c, 0, 71, 65
1, 115253, Note_off_c, 0, 73, 59
1, 115255, Note_on_c, 0, 68, 61
1, 115260, Note_on_c, 0, 59, 43
1, 115302, Note_on_c, 0, 61, 42
1, 115324, Note_off_c, 0, 71, 61
1, 115329, Note_off_c, 0, 61, 58
1, 115330, Note_on_c, 0, 51, 42
1, 115341, Note_on_c, 0, 49, 43
1, 115341, Note_off_c, 0, 59, 48
1, 115341, Note_off_c, 0, 68, 62
1, 115365, Note_on_c, 0, 47, 51
1, 115388, Note_off_c, 0, 49, 57
1, 115392, Note_off_c, 0, 51, 57
1, 115401, Note_off_c, 0, 47, 62
1, 115675, Note_on_c, 0, 61, 74
1, 115700, Note_off_c, 0, 61, 68
1, 115755, Note_on_c, 0, 80, 85
1, 115785, Note_on_c, 0, 68, 61
1, 116318, Control_c, 0, 64, 122
1, 116348, Control_c, 0, 64, 118
1, 116363, Control_c, 0, 64, 116
1, 116378, Control_c, 0, 64, 112
1, 116393, Control_c, 0, 64, 107
1, 116408, Control_c, 0, 64, 98
1, 116423, Control_c, 0, 64, 90
1, 116438, Control_c, 0, 64, 83
1, 116453, Control_c, 0, 64, 77
1, 116457, Note_on_c, 0, 35, 55
1, 116474, Control_c, 0, 64, 73
1, 116489, Control_c, 0, 64, 72
1, 116504, Control_c, 0, 64, 73
1, 116518, Control_c, 0, 64, 77
1, 116533, Control_c, 0, 64, 83
1, 116548, Control_c, 0, 64, 91
1, 116563, Control_c, 0, 64, 104
1, 116576, Note_off_c, 0, 35, 57
1, 116576, Note_off_c, 0, 68, 61
1, 116578, Control_c, 0, 64, 127
1, 116670, Note_off_c, 0, 80, 62
1, 116978, Control_c, 0, 64, 107
1, 116993, Control_c, 0, 64, 81
1, 117008, Control_c, 0, 64, 62
1, 117022, Control_c, 0, 64, 46
1, 117031, Note_on_c, 0, 29, 45
1, 117037, Control_c, 0, 64, 44
1, 117052, Control_c, 0, 64, 56
1, 117067, Control_c, 0, 64, 69
1, 117081, Note_off_c, 0, 29, 64
1, 117082, Control_c, 0, 64, 93
1, 117096, Control_c, 0, 64, 127
1, 117162, Note_on_c, 0, 99, 53
1, 117272, Note_on_c, 0, 97, 65
1, 117290, Note_off_c, 0, 99, 60
1, 117310, Note_on_c, 0, 95, 70
1, 117332, Note_off_c, 0, 97, 63
1, 117335, Note_on_c, 0, 92, 75
1, 117352, Note_off_c, 0, 95, 63
1, 117365, Note_on_c, 0, 85, 77
1, 117372, Note_off_c, 0, 92, 63
1, 117386, Note_off_c, 0, 85, 72
1, 117388, Note_on_c, 0, 83, 67
1, 117428, Note_off_c, 0, 83, 64
1, 117429, Note_on_c, 0, 75, 52
1, 117439, Note_on_c, 0, 73, 52
1, 117450, Note_off_c, 0, 75, 59
1, 117460, Note_on_c, 0, 71, 67
1, 117471, Note_off_c, 0, 73, 51
1, 117504, Note_off_c, 0, 71, 60
1, 117540, Note_on_c, 0, 87, 41
1, 117570, Note_on_c, 0, 85, 66
1, 117591, Note_on_c, 0, 83, 77
1, 117599, Note_off_c, 0, 87, 61
1, 117624, Note_on_c, 0, 80, 72
1, 117646, Note_off_c, 0, 85, 63
1, 117659, Note_on_c, 0, 71, 51
1, 117663, Note_off_c, 0, 83, 64
1, 117670, Note_on_c, 0, 73, 74
1, 117687, Note_off_c, 0, 80, 64
1, 117700, Note_off_c, 0, 73, 62
1, 117713, Note_on_c, 0, 63, 51
1, 117722, Note_on_c, 0, 61, 57
1, 117738, Note_off_c, 0, 71, 61
1, 117755, Note_on_c, 0, 59, 55
1, 117778, Note_off_c, 0, 63, 60
1, 117785, Note_off_c, 0, 61, 61
1, 117790, Note_off_c, 0, 59, 62
1, 117993, Poly_aftertouch_c, 0, 73, 127
1, 118002, Note_on_c, 0, 59, 38
1, 118030, Poly_aftertouch_c, 0, 73, 0
1, 118043, Note_on_c, 0, 71, 57
1, 118071, Note_off_c, 0, 59, 51
1, 118086, Note_on_c, 0, 51, 40
1, 118093, Note_on_c, 0, 68, 63
1, 118096, Note_on_c, 0, 61, 55
1, 118119, Note_on_c, 0, 49, 36
1, 118138, Note_off_c, 0, 71, 55
1, 118146, Note_on_c, 0, 47, 50
1, 118152, Note_off_c, 0, 61, 60
1, 118155, Note_off_c, 0, 68, 62
1, 118176, Note_off_c, 0, 49, 59
1, 118176, Note_off_c, 0, 51, 56
1, 118178, Note_off_c, 0, 47, 65
1, 118429, Note_on_c, 0, 61, 73
1, 118456, Note_off_c, 0, 61, 64
1, 118497, Note_on_c, 0, 82, 81
1, 118518, Note_off_c, 0, 82, 71
1, 118534, Note_on_c, 0, 68, 91
1, 119091, Control_c, 0, 64, 121
1, 119106, Control_c, 0, 64, 101
1, 119120, Control_c, 0, 64, 90
1, 119135, Control_c, 0, 64, 82
1, 119150, Control_c, 0, 64, 77
1, 119165, Control_c, 0, 64, 75
1, 119172, Note_on_c, 0, 35, 49
1, 119180, Control_c, 0, 64, 76
1, 119195, Control_c, 0, 64, 78
1, 119210, Control_c, 0, 64, 82
1, 119225, Control_c, 0, 64, 88
1, 119239, Control_c, 0, 64, 94
1, 119242, Note_off_c, 0, 35, 57
1, 119254, Control_c, 0, 64, 99
1, 119269, Control_c, 0, 64, 104
1, 119284, Control_c, 0, 64, 107
1, 119299, Control_c, 0, 64, 112
1, 119313, Control_c, 0, 64, 115
1, 119329, Control_c, 0, 64, 117
1, 119359, Control_c, 0, 64, 121
1, 119389, Control_c, 0, 64, 126
1, 119736, Control_c, 0, 64, 118
1, 119751, Control_c, 0, 64, 113
1, 119766, Control_c, 0, 64, 108
1, 119781, Control_c, 0, 64, 104
1, 119796, Control_c, 0, 64, 98
1, 119810, Control_c, 0, 64, 94
1, 119825, Control_c, 0, 64, 89
1, 119840, Control_c, 0, 64, 84
1, 119855, Control_c, 0, 64, 77
1, 119869, Control_c, 0, 64, 67
1, 119884, Control_c, 0, 64, 53
1, 119899, Control_c, 0, 64, 0
1, 119934, Note_on_c, 0, 29, 40
1, 120062, Control_c, 0, 64, 45
1, 120077, Control_c, 0, 64, 61
1, 120088, Note_off_c, 0, 29, 59
1, 120092, Control_c, 0, 64, 69
1, 120107, Control_c, 0, 64, 75
1, 120122, Control_c, 0, 64, 81
1, 120137, Control_c, 0, 64, 87
1, 120152, Control_c, 0, 64, 96
1, 120167, Control_c, 0, 64, 122
1, 120182, Control_c, 0, 64, 127
1, 120211, Note_off_c, 0, 68, 58
1, 120439, Note_on_c, 0, 61, 52
1, 120480, Note_off_c, 0, 61, 61
1, 120559, Control_c, 0, 67, 112
1, 120574, Control_c, 0, 67, 89
1, 120583, Note_on_c, 0, 82, 88
1, 120589, Note_on_c, 0, 70, 73
1, 120589, Control_c, 0, 67, 66
1, 120604, Control_c, 0, 67, 50
1, 120619, Control_c, 0, 67, 37
1, 120622, Note_off_c, 0, 70, 62
1, 120633, Control_c, 0, 67, 25
1, 120636, Note_off_c, 0, 82, 64
1, 120648, Control_c, 0, 67, 0
1, 120670, Note_on_c, 0, 68, 87
1, 120707, Note_off_c, 0, 68, 65
1, 120745, Note_on_c, 0, 83, 95
1, 120745, Note_on_c, 0, 71, 98
1, 120780, Note_off_c, 0, 71, 67
1, 120784, Note_off_c, 0, 83, 65
1, 120808, Note_on_c, 0, 69, 88
1, 120828, Note_off_c, 0, 69, 69
1, 120871, Note_on_c, 0, 62, 87
1, 120915, Control_c, 0, 64, 73
1, 120930, Control_c, 0, 64, 36
1, 120945, Control_c, 0, 64, 0
1, 121012, Control_c, 0, 64, 32
1, 121027, Control_c, 0, 64, 63
1, 121041, Control_c, 0, 64, 78
1, 121056, Control_c, 0, 64, 105
1, 121071, Control_c, 0, 64, 127
1, 121076, Note_off_c, 0, 62, 59
1, 121223, Note_on_c, 0, 63, 73
1, 121267, Note_off_c, 0, 63, 59
1, 121308, Note_on_c, 0, 72, 89
1, 121310, Note_on_c, 0, 84, 96
1, 121343, Note_off_c, 0, 72, 62
1, 121352, Note_off_c, 0, 84, 64
1, 121390, Note_on_c, 0, 70, 99
1, 121428, Note_off_c, 0, 70, 68
1, 121448, Note_on_c, 0, 85, 98
1, 121450, Note_on_c, 0, 73, 94
1, 121488, Note_off_c, 0, 73, 64
1, 121491, Note_off_c, 0, 85, 67
1, 121519, Note_on_c, 0, 71, 98
1, 121563, Note_off_c, 0, 71, 70
1, 121593, Note_on_c, 0, 64, 89
1, 121678, Control_c, 0, 64, 121
1, 121693, Control_c, 0, 64, 81
1, 121715, Control_c, 0, 64, 66
1, 121730, Control_c, 0, 64, 53
1, 121746, Control_c, 0, 64, 40
1, 121761, Control_c, 0, 64, 0
1, 121820, Control_c, 0, 67, 22
1, 121835, Control_c, 0, 67, 24
1, 121864, Control_c, 0, 67, 28
1, 121879, Control_c, 0, 67, 32
1, 121894, Control_c, 0, 67, 39
1, 121909, Control_c, 0, 67, 50
1, 121924, Control_c, 0, 67, 59
1, 121938, Control_c, 0, 64, 35
1, 121938, Control_c, 0, 67, 67
1, 121953, Control_c, 0, 64, 45
1, 121953, Control_c, 0, 67, 72
1, 121968, Control_c, 0, 64, 53
1, 121968, Control_c, 0, 67, 76
1, 121983, Control_c, 0, 64, 57
1, 121983, Control_c, 0, 67, 80
1, 121998, Control_c, 0, 64, 60
1, 121998, Control_c, 0, 67, 83
1, 122012, Control_c, 0, 64, 61
1, 122012, Control_c, 0, 67, 86
1, 122027, Control_c, 0, 64, 63
1, 122027, Control_c, 0, 67, 90
1, 122042, Control_c, 0, 64, 64
1, 122042, Control_c, 0, 67, 93
1, 122057, Control_c, 0, 64, 66
1, 122057, Control_c, 0, 67, 96
1, 122057, Note_off_c, 0, 64, 58
1, 122072, Control_c, 0, 64, 67
1, 122072, Control_c, 0, 67, 99
1, 122086, Control_c, 0, 64, 69
1, 122086, Control_c, 0, 67, 102
1, 122101, Control_c, 0, 64, 70
1, 122101, Control_c, 0, 67, 105
1, 122116, Control_c, 0, 64, 72
1, 122116, Control_c, 0, 67, 108
1, 122131, Control_c, 0, 64, 73
1, 122131, Control_c, 0, 67, 111
1, 122146, Control_c, 0, 64, 75
1, 122146, Control_c, 0, 67, 113
1, 122161, Control_c, 0, 64, 77
1, 122176, Control_c, 0, 64, 78
1, 122176, Control_c, 0, 67, 116
1, 122191, Control_c, 0, 64, 80
1, 122205, Control_c, 0, 64, 81
1, 122220, Control_c, 0, 64, 82
1, 122220, Control_c, 0, 67, 120
1, 122235, Control_c, 0, 64, 82
1, 122249, Control_c, 0, 64, 83
1, 122249, Control_c, 0, 67, 123
1, 122264, Control_c, 0, 64, 83
1, 122294, Control_c, 0, 67, 125
1, 122353, Control_c, 0, 64, 84
1, 122382, Control_c, 0, 67, 127
1, 122687, Control_c, 0, 64, 83
1, 122761, Control_c, 0, 64, 81
1, 122771, Note_on_c, 0, 63, 28
1, 122776, Control_c, 0, 64, 78
1, 122791, Control_c, 0, 64, 74
1, 122805, Control_c, 0, 64, 71
1, 122820, Control_c, 0, 64, 70
1, 122865, Control_c, 0, 64, 71
1, 122879, Control_c, 0, 64, 73
1, 122894, Control_c, 0, 64, 76
1, 122903, Note_off_c, 0, 63, 52
1, 122909, Control_c, 0, 64, 77
1, 122924, Control_c, 0, 64, 78
1, 122936, Note_on_c, 0, 65, 40
1, 122956, Note_on_c, 0, 64, 13
1, 122999, Control_c, 0, 64, 78
1, 123003, Note_off_c, 0, 64, 48
1, 123028, Control_c, 0, 64, 79
1, 123046, Note_off_c, 0, 65, 52
1, 123051, Note_on_c, 0, 63, 30
1, 123058, Control_c, 0, 64, 79
1, 123067, Note_on_c, 0, 73, 31
1, 123085, Note_off_c, 0, 63, 52
1, 123118, Note_off_c, 0, 73, 49
1, 123121, Note_on_c, 0, 64, 41
1, 123152, Note_on_c, 0, 71, 40
1, 123183, Note_off_c, 0, 64, 51
1, 123228, Control_c, 0, 64, 78
1, 123243, Control_c, 0, 64, 75
1, 123245, Note_on_c, 0, 62, 35
1, 123248, Note_on_c, 0, 75, 52
1, 123258, Control_c, 0, 64, 72
1, 123273, Control_c, 0, 64, 67
1, 123279, Note_off_c, 0, 62, 59
1, 123287, Control_c, 0, 64, 63
1, 123302, Control_c, 0, 64, 60
1, 123310, Note_off_c, 0, 71, 37
1, 123329, Note_on_c, 0, 64, 25
1, 123332, Control_c, 0, 64, 62
1, 123341, Note_on_c, 0, 74, 47
1, 123348, Control_c, 0, 64, 65
1, 123363, Control_c, 0, 64, 67
1, 123365, Note_off_c, 0, 64, 54
1, 123378, Control_c, 0, 64, 69
1, 123381, Note_off_c, 0, 75, 32
1, 123392, Control_c, 0, 64, 73
1, 123394, Note_on_c, 0, 62, 39
1, 123407, Control_c, 0, 64, 76
1, 123422, Control_c, 0, 64, 79
1, 123430, Note_on_c, 0, 66, 47
1, 123437, Control_c, 0, 64, 81
1, 123446, Note_off_c, 0, 62, 61
1, 123448, Note_off_c, 0, 74, 57
1, 123452, Control_c, 0, 64, 82
1, 123461, Note_off_c, 0, 66, 56
1, 123467, Control_c, 0, 64, 84
1, 123481, Control_c, 0, 64, 85
1, 123490, Note_on_c, 0, 64, 32
1, 123496, Control_c, 0, 64, 86
1, 123526, Control_c, 0, 64, 86
1, 123571, Control_c, 0, 64, 85
1, 123572, Note_off_c, 0, 64, 54
1, 123585, Control_c, 0, 64, 79
1, 123600, Control_c, 0, 64, 74
1, 123604, Note_on_c, 0, 63, 44
1, 123615, Control_c, 0, 64, 69
1, 123629, Control_c, 0, 64, 66
1, 123649, Note_off_c, 0, 63, 63
1, 123659, Control_c, 0, 64, 68
1, 123674, Control_c, 0, 64, 70
1, 123689, Control_c, 0, 64, 73
1, 123690, Note_on_c, 0, 67, 46
1, 123701, Note_on_c, 0, 64, 23
1, 123703, Control_c, 0, 64, 75
1, 123718, Control_c, 0, 64, 77
1, 123733, Control_c, 0, 64, 79
1, 123735, Note_off_c, 0, 64, 46
1, 123748, Control_c, 0, 64, 81
1, 123759, Note_on_c, 0, 63, 50
1, 123762, Control_c, 0, 64, 83
1, 123777, Note_on_c, 0, 75, 53
1, 123777, Control_c, 0, 64, 84
1, 123792, Control_c, 0, 64, 85
1, 123797, Note_off_c, 0, 63, 64
1, 123822, Note_off_c, 0, 67, 33
1, 123822, Control_c, 0, 64, 85
1, 123828, Note_on_c, 0, 64, 51
1, 123861, Note_on_c, 0, 73, 55
1, 123870, Note_off_c, 0, 75, 58
1, 123896, Note_off_c, 0, 64, 42
1, 123896, Control_c, 0, 64, 84
1, 123911, Control_c, 0, 64, 80
1, 123926, Control_c, 0, 64, 73
1, 123941, Control_c, 0, 64, 66
1, 123941, Note_on_c, 0, 62, 45
1, 123941, Note_on_c, 0, 77, 54
1, 123962, Control_c, 0, 64, 59
1, 123977, Control_c, 0, 64, 54
1, 123985, Note_off_c, 0, 62, 64
1, 123992, Control_c, 0, 64, 55
1, 123994, Note_off_c, 0, 73, 56
1, 124007, Control_c, 0, 64, 59
1, 124012, Note_off_c, 0, 77, 63
1, 124022, Control_c, 0, 64, 63
1, 124033, Note_on_c, 0, 64, 26
1, 124036, Control_c, 0, 64, 68
1, 124037, Note_on_c, 0, 76, 52
1, 124051, Control_c, 0, 64, 74
1, 124066, Control_c, 0, 64, 79
1, 124070, Note_off_c, 0, 64, 55
1, 124081, Control_c, 0, 64, 83
1, 124090, Note_on_c, 0, 62, 44
1, 124096, Control_c, 0, 64, 86
1, 124110, Note_on_c, 0, 68, 56
1, 124110, Control_c, 0, 64, 87
1, 124126, Control_c, 0, 64, 88
1, 124137, Note_off_c, 0, 62, 61
1, 124137, Note_off_c, 0, 76, 60
1, 124141, Control_c, 0, 64, 89
1, 124146, Note_off_c, 0, 68, 64
1, 124156, Control_c, 0, 64, 89
1, 124186, Control_c, 0, 64, 90
1, 124196, Note_on_c, 0, 64, 33
1, 124245, Note_off_c, 0, 64, 41
1, 124245, Control_c, 0, 64, 89
1, 124259, Control_c, 0, 64, 88
1, 124274, Control_c, 0, 64, 83
1, 124289, Note_on_c, 0, 63, 44
1, 124289, Control_c, 0, 64, 75
1, 124304, Control_c, 0, 64, 68
1, 124319, Control_c, 0, 64, 63
1, 124334, Control_c, 0, 64, 61
1, 124334, Note_off_c, 0, 63, 63
1, 124349, Control_c, 0, 64, 62
1, 124364, Control_c, 0, 64, 65
1, 124366, Note_on_c, 0, 72, 15
1, 124367, Note_on_c, 0, 74, 24
1, 124379, Control_c, 0, 64, 68
1, 124384, Note_on_c, 0, 64, 30
1, 124394, Control_c, 0, 64, 73
1, 124402, Note_off_c, 0, 72, 42
1, 124405, Note_off_c, 0, 74, 52
1, 124408, Control_c, 0, 64, 77
1, 124412, Note_off_c, 0, 64, 53
1, 124423, Control_c, 0, 64, 81
1, 124427, Note_on_c, 0, 86, 56
1, 124436, Note_on_c, 0, 63, 52
1, 124438, Control_c, 0, 64, 84
1, 124452, Control_c, 0, 64, 86
1, 124454, Note_on_c, 0, 84, 31
1, 124467, Control_c, 0, 64, 87
1, 124479, Note_off_c, 0, 63, 61
1, 124482, Control_c, 0, 64, 88
1, 124492, Note_on_c, 0, 72, 60
1, 124505, Note_on_c, 0, 64, 54
1, 124505, Note_on_c, 0, 74, 45
1, 124513, Note_off_c, 0, 72, 62
1, 124531, Note_off_c, 0, 74, 51
1, 124541, Control_c, 0, 64, 87
1, 124553, Note_off_c, 0, 86, 50
1, 124556, Control_c, 0, 64, 81
1, 124560, Note_off_c, 0, 64, 51
1, 124571, Control_c, 0, 64, 74
1, 124573, Note_off_c, 0, 84, 41
1, 124585, Control_c, 0, 64, 67
1, 124600, Control_c, 0, 64, 64
1, 124611, Note_on_c, 0, 62, 42
1, 124615, Control_c, 0, 64, 65
1, 124630, Control_c, 0, 64, 68
1, 124645, Control_c, 0, 64, 71
1, 124647, Note_off_c, 0, 62, 62
1, 124659, Control_c, 0, 64, 74
1, 124667, Note_on_c, 0, 86, 66
1, 124669, Note_on_c, 0, 84, 66
1, 124674, Control_c, 0, 64, 77
1, 124679, Note_on_c, 0, 64, 43
1, 124689, Control_c, 0, 64, 80
1, 124712, Control_c, 0, 64, 83
1, 124722, Note_off_c, 0, 84, 47
1, 124724, Note_off_c, 0, 64, 63
1, 124727, Control_c, 0, 64, 85
1, 124728, Note_off_c, 0, 86, 60
1, 124741, Control_c, 0, 64, 86
1, 124752, Note_on_c, 0, 62, 47
1, 124756, Control_c, 0, 64, 87
1, 124761, Note_on_c, 0, 98, 69
1, 124771, Control_c, 0, 64, 87
1, 124781, Note_on_c, 0, 96, 48
1, 124785, Control_c, 0, 64, 88
1, 124788, Note_off_c, 0, 62, 62
1, 124800, Control_c, 0, 64, 89
1, 124815, Control_c, 0, 64, 89
1, 124820, Note_on_c, 0, 86, 58
1, 124826, Note_off_c, 0, 96, 56
1, 124826, Note_on_c, 0, 84, 74
1, 124828, Note_off_c, 0, 98, 60
1, 124832, Note_on_c, 0, 64, 51
1, 124848, Note_off_c, 0, 84, 65
1, 124853, Note_off_c, 0, 86, 64
1, 124859, Control_c, 0, 64, 88
1, 124874, Control_c, 0, 64, 82
1, 124888, Note_off_c, 0, 64, 51
1, 124888, Control_c, 0, 64, 72
1, 124903, Control_c, 0, 64, 64
1, 124912, Note_on_c, 0, 63, 65
1, 124918, Control_c, 0, 64, 57
1, 124934, Control_c, 0, 64, 58
1, 124948, Control_c, 0, 64, 62
1, 124963, Control_c, 0, 64, 67
1, 124965, Note_on_c, 0, 86, 76
1, 124969, Note_off_c, 0, 63, 62
1, 124977, Note_on_c, 0, 84, 77
1, 124978, Control_c, 0, 64, 77
1, 124992, Note_off_c, 0, 86, 0
1, 124992, Note_on_c, 0, 86, 47
1, 124993, Control_c, 0, 64, 88
1, 124996, Note_on_c, 0, 64, 55
1, 125008, Control_c, 0, 64, 99
1, 125011, Note_off_c, 0, 84, 47
1, 125023, Control_c, 0, 64, 107
1, 125029, Note_off_c, 0, 86, 62
1, 125034, Note_off_c, 0, 64, 62
1, 125038, Control_c, 0, 64, 113
1, 125047, Note_on_c, 0, 98, 80
1, 125052, Note_on_c, 0, 63, 61
1, 125052, Control_c, 0, 64, 117
1, 125061, Note_on_c, 0, 96, 70
1, 125067, Control_c, 0, 64, 119
1, 125082, Control_c, 0, 64, 122
1, 125100, Note_off_c, 0, 98, 65
1, 125100, Note_off_c, 0, 63, 51
1, 125115, Note_off_c, 0, 96, 60
1, 125119, Note_on_c, 0, 84, 81
1, 125120, Note_on_c, 0, 86, 53
1, 125130, Note_on_c, 0, 64, 58
1, 125139, Note_off_c, 0, 84, 72
1, 125139, Note_off_c, 0, 86, 62
1, 125142, Control_c, 0, 64, 109
1, 125156, Control_c, 0, 64, 92
1, 125171, Note_off_c, 0, 64, 58
1, 125171, Control_c, 0, 64, 78
1, 125186, Control_c, 0, 64, 66
1, 125200, Control_c, 0, 64, 60
1, 125215, Control_c, 0, 64, 61
1, 125216, Note_on_c, 0, 62, 49
1, 125230, Control_c, 0, 64, 64
1, 125245, Control_c, 0, 64, 69
1, 125253, Note_off_c, 0, 62, 64
1, 125260, Control_c, 0, 64, 76
1, 125274, Control_c, 0, 64, 84
1, 125280, Note_on_c, 0, 74, 43
1, 125281, Note_on_c, 0, 64, 47
1, 125288, Note_on_c, 0, 72, 59
1, 125289, Control_c, 0, 64, 88
1, 125304, Control_c, 0, 64, 91
1, 125318, Note_off_c, 0, 64, 62
1, 125319, Control_c, 0, 64, 92
1, 125320, Note_off_c, 0, 72, 48
1, 125334, Control_c, 0, 64, 93
1, 125341, Note_off_c, 0, 74, 57
1, 125343, Note_on_c, 0, 62, 55
1, 125351, Note_on_c, 0, 86, 66
1, 125381, Note_off_c, 0, 62, 61
1, 125411, Note_off_c, 0, 86, 58
1, 125435, Note_on_c, 0, 72, 55
1, 125455, Note_on_c, 0, 64, 37
1, 125464, Note_off_c, 0, 72, 63
1, 125521, Poly_aftertouch_c, 0, 74, 0
1, 125526, Note_off_c, 0, 64, 39
1, 125534, Control_c, 0, 64, 91
1, 125549, Control_c, 0, 64, 84
1, 125563, Control_c, 0, 64, 74
1, 125568, Note_on_c, 0, 63, 45
1, 125578, Control_c, 0, 64, 63
1, 125594, Control_c, 0, 64, 55
1, 125608, Control_c, 0, 64, 54
1, 125613, Note_off_c, 0, 63, 63
1, 125623, Control_c, 0, 64, 58
1, 125638, Control_c, 0, 64, 62
1, 125653, Control_c, 0, 64, 67
1, 125660, Note_on_c, 0, 65, 58
1, 125663, Note_on_c, 0, 64, 25
1, 125668, Control_c, 0, 64, 73
1, 125682, Control_c, 0, 64, 82
1, 125693, Note_off_c, 0, 64, 53
1, 125697, Control_c, 0, 64, 86
1, 125712, Control_c, 0, 64, 88
1, 125716, Note_on_c, 0, 63, 55
1, 125728, Control_c, 0, 64, 88
1, 125732, Note_on_c, 0, 73, 58
1, 125735, Note_off_c, 0, 65, 62
1, 125753, Note_off_c, 0, 63, 64
1, 125758, Control_c, 0, 64, 89
1, 125786, Note_on_c, 0, 64, 54
1, 125806, Note_off_c, 0, 73, 59
1, 125809, Note_on_c, 0, 71, 64
1, 125817, Control_c, 0, 64, 87
1, 125827, Note_off_c, 0, 64, 61
1, 125831, Control_c, 0, 64, 80
1, 125846, Control_c, 0, 64, 70
1, 125861, Control_c, 0, 64, 61
1, 125869, Note_on_c, 0, 62, 50
1, 125876, Control_c, 0, 64, 51
1, 125889, Note_on_c, 0, 75, 64
1, 125891, Control_c, 0, 64, 52
1, 125905, Control_c, 0, 64, 57
1, 125908, Note_off_c, 0, 71, 54
1, 125908, Note_off_c, 0, 62, 63
1, 125920, Control_c, 0, 64, 62
1, 125935, Control_c, 0, 64, 67
1, 125950, Control_c, 0, 64, 73
1, 125954, Note_on_c, 0, 74, 67
1, 125954, Note_off_c, 0, 75, 55
1, 125955, Note_on_c, 0, 64, 43
1, 125965, Control_c, 0, 64, 79
1, 125979, Control_c, 0, 64, 83
1, 125983, Note_off_c, 0, 64, 59
1, 125994, Control_c, 0, 64, 84
1, 126009, Control_c, 0, 64, 85
1, 126011, Note_on_c, 0, 62, 53
1, 126024, Control_c, 0, 64, 85
1, 126026, Note_off_c, 0, 74, 60
1, 126039, Control_c, 0, 64, 86
1, 126041, Note_on_c, 0, 66, 60
1, 126054, Control_c, 0, 64, 86
1, 126060, Note_off_c, 0, 62, 62
1, 126069, Control_c, 0, 64, 87
1, 126075, Note_off_c, 0, 66, 63
1, 126084, Control_c, 0, 64, 88
1, 126090, Note_on_c, 0, 64, 45
1, 126142, Control_c, 0, 64, 87
1, 126157, Control_c, 0, 64, 84
1, 126169, Note_off_c, 0, 64, 53
1, 126172, Control_c, 0, 64, 75
1, 126187, Control_c, 0, 64, 67
1, 126204, Note_on_c, 0, 63, 53
1, 126209, Control_c, 0, 64, 59
1, 126224, Control_c, 0, 64, 53
1, 126239, Control_c, 0, 64, 54
1, 126253, Note_off_c, 0, 63, 62
1, 126254, Control_c, 0, 64, 59
1, 126266, Note_on_c, 0, 67, 53
1, 126269, Control_c, 0, 64, 63
1, 126284, Control_c, 0, 64, 69
1, 126287, Note_on_c, 0, 64, 46
1, 126298, Control_c, 0, 64, 76
1, 126313, Control_c, 0, 64, 82
1, 126325, Note_off_c, 0, 64, 63
1, 126328, Control_c, 0, 64, 85
1, 126343, Control_c, 0, 64, 86
1, 126346, Note_on_c, 0, 63, 61
1, 126353, Note_on_c, 0, 75, 63
1, 126357, Control_c, 0, 64, 87
1, 126372, Control_c, 0, 64, 88
1, 126373, Note_off_c, 0, 67, 55
1, 126391, Note_off_c, 0, 63, 53
1, 126417, Control_c, 0, 64, 88
1, 126425, Note_on_c, 0, 64, 54
1, 126434, Note_on_c, 0, 73, 61
1, 126446, Control_c, 0, 64, 88
1, 126455, Note_off_c, 0, 75, 54
1, 126461, Control_c, 0, 64, 83
1, 126466, Note_off_c, 0, 64, 62
1, 126476, Control_c, 0, 64, 73
1, 126491, Control_c, 0, 64, 63
1, 126503, Note_on_c, 0, 77, 57
1, 126505, Control_c, 0, 64, 53
1, 126520, Note_on_c, 0, 62, 43
1, 126520, Control_c, 0, 64, 47
1, 126536, Control_c, 0, 64, 49
1, 126542, Note_off_c, 0, 73, 49
1, 126551, Control_c, 0, 64, 56
1, 126566, Note_off_c, 0, 62, 60
1, 126566, Control_c, 0, 64, 62
1, 126567, Note_off_c, 0, 77, 62
1, 126580, Control_c, 0, 64, 68
1, 126585, Note_on_c, 0, 76, 61
1, 126591, Note_on_c, 0, 64, 37
1, 126595, Control_c, 0, 64, 74
1, 126610, Control_c, 0, 64, 80
1, 126625, Control_c, 0, 64, 83
1, 126633, Note_off_c, 0, 64, 47
1, 126640, Control_c, 0, 64, 84
1, 126654, Control_c, 0, 64, 85
1, 126665, Note_on_c, 0, 68, 59
1, 126666, Note_on_c, 0, 62, 50
1, 126669, Control_c, 0, 64, 85
1, 126675, Note_off_c, 0, 76, 60
1, 126684, Control_c, 0, 64, 86
1, 126699, Control_c, 0, 64, 87
1, 126706, Note_off_c, 0, 68, 58
1, 126714, Control_c, 0, 64, 87
1, 126721, Note_off_c, 0, 62, 54
1, 126763, Note_on_c, 0, 64, 41
1, 126807, Note_off_c, 0, 64, 50
1, 126832, Control_c, 0, 64, 85
1, 126847, Control_c, 0, 64, 78
1, 126855, Note_on_c, 0, 61, 55
1, 126862, Control_c, 0, 64, 68
1, 126877, Control_c, 0, 64, 59
1, 126892, Control_c, 0, 64, 54
1, 126904, Note_off_c, 0, 61, 60
1, 126907, Control_c, 0, 64, 56
1, 126910, Note_on_c, 0, 71, 58
1, 126921, Control_c, 0, 64, 60
1, 126936, Control_c, 0, 64, 64
1, 126941, Note_on_c, 0, 63, 47
1, 126958, Control_c, 0, 64, 69
1, 126972, Control_c, 0, 64, 75
1, 126978, Note_off_c, 0, 63, 60
1, 126987, Control_c, 0, 64, 82
1, 126999, Note_on_c, 0, 79, 71
1, 127002, Control_c, 0, 64, 86
1, 127011, Note_on_c, 0, 61, 57
1, 127013, Note_off_c, 0, 71, 62
1, 127017, Control_c, 0, 64, 87
1, 127032, Control_c, 0, 64, 88
1, 127044, Note_off_c, 0, 61, 65
1, 127047, Control_c, 0, 64, 88
1, 127062, Control_c, 0, 64, 89
1, 127063, Note_on_c, 0, 63, 64
1, 127075, Note_on_c, 0, 77, 71
1, 127076, Control_c, 0, 64, 89
1, 127077, Note_off_c, 0, 79, 64
1, 127105, Note_off_c, 0, 63, 57
1, 127105, Control_c, 0, 64, 90
1, 127119, Control_c, 0, 64, 89
1, 127134, Control_c, 0, 64, 84
1, 127148, Note_on_c, 0, 60, 54
1, 127149, Control_c, 0, 64, 74
1, 127155, Note_off_c, 0, 77, 63
1, 127158, Note_on_c, 0, 80, 75
1, 127164, Control_c, 0, 64, 63
1, 127178, Control_c, 0, 64, 52
1, 127180, Note_off_c, 0, 60, 67
1, 127208, Control_c, 0, 64, 58
1, 127214, Note_on_c, 0, 62, 50
1, 127217, Note_on_c, 0, 78, 79
1, 127223, Control_c, 0, 64, 64
1, 127225, Note_off_c, 0, 80, 65
1, 127238, Control_c, 0, 64, 72
1, 127242, Note_off_c, 0, 62, 59
1, 127252, Control_c, 0, 64, 82
1, 127261, Note_on_c, 0, 60, 62
1, 127267, Control_c, 0, 64, 91
1, 127280, Note_off_c, 0, 78, 65
1, 127282, Control_c, 0, 64, 99
1, 127287, Note_on_c, 0, 70, 73
1, 127297, Control_c, 0, 64, 103
1, 127299, Note_off_c, 0, 60, 62
1, 127312, Control_c, 0, 64, 105
1, 127321, Note_off_c, 0, 70, 62
1, 127324, Note_on_c, 0, 62, 54
1, 127345, Note_off_c, 0, 62, 61
1, 127357, Control_c, 0, 64, 107
1, 127381, Note_on_c, 0, 68, 71
1, 127387, Control_c, 0, 64, 103
1, 127401, Control_c, 0, 64, 89
1, 127416, Control_c, 0, 64, 75
1, 127431, Control_c, 0, 64, 64
1, 127446, Note_off_c, 0, 68, 64
1, 127446, Control_c, 0, 64, 59
1, 127451, Note_on_c, 0, 66, 74
1, 127461, Control_c, 0, 64, 61
1, 127465, Note_on_c, 0, 72, 56
1, 127476, Control_c, 0, 64, 68
1, 127491, Control_c, 0, 64, 76
1, 127500, Note_off_c, 0, 72, 62
1, 127506, Control_c, 0, 64, 88
1, 127508, Note_off_c, 0, 66, 62
1, 127521, Control_c, 0, 64, 98
1, 127523, Note_on_c, 0, 58, 70
1, 127527, Note_on_c, 0, 74, 63
1, 127536, Control_c, 0, 64, 104
1, 127558, Note_off_c, 0, 74, 63
1, 127583, Note_off_c, 0, 58, 64
1, 127597, Note_on_c, 0, 72, 55
1, 127607, Note_on_c, 0, 66, 73
1, 127620, Note_off_c, 0, 72, 65
1, 127649, Note_on_c, 0, 74, 66
1, 127673, Note_off_c, 0, 74, 69
1, 127677, Note_on_c, 0, 68, 77
1, 127681, Note_off_c, 0, 66, 61
1, 127703, Note_off_c, 0, 68, 72
1, 127720, Control_c, 0, 64, 98
1, 127735, Control_c, 0, 64, 84
1, 127750, Control_c, 0, 64, 71
1, 127765, Control_c, 0, 64, 61
1, 127778, Note_on_c, 0, 70, 72
1, 127780, Control_c, 0, 64, 53
1, 127794, Control_c, 0, 64, 57
1, 127809, Control_c, 0, 64, 62
1, 127824, Control_c, 0, 64, 68
1, 127829, Note_on_c, 0, 62, 56
1, 127839, Control_c, 0, 64, 76
1, 127847, Note_on_c, 0, 78, 74
1, 127854, Control_c, 0, 64, 83
1, 127868, Control_c, 0, 64, 88
1, 127875, Note_off_c, 0, 70, 56
1, 127883, Note_off_c, 0, 62, 58
1, 127883, Control_c, 0, 64, 89
1, 127898, Control_c, 0, 64, 89
1, 127916, Note_on_c, 0, 80, 68
1, 127934, Note_on_c, 0, 60, 39
1, 127938, Note_off_c, 0, 78, 60
1, 127972, Note_off_c, 0, 80, 63
1, 127980, Note_off_c, 0, 60, 64
1, 128016, Note_on_c, 0, 62, 43
1, 128046, Note_off_c, 0, 62, 55
1, 128061, Control_c, 0, 64, 88
1, 128075, Control_c, 0, 64, 78
1, 128090, Control_c, 0, 64, 67
1, 128104, Note_on_c, 0, 61, 58
1, 128105, Control_c, 0, 64, 55
1, 128121, Control_c, 0, 64, 42
1, 128136, Control_c, 0, 64, 41
1, 128151, Control_c, 0, 64, 48
1, 128154, Note_off_c, 0, 61, 60
1, 128166, Control_c, 0, 64, 60
1, 128177, Note_on_c, 0, 71, 63
1, 128180, Note_on_c, 0, 63, 60
1, 128180, Control_c, 0, 64, 67
1, 128195, Control_c, 0, 64, 75
1, 128210, Control_c, 0, 64, 83
1, 128224, Control_c, 0, 64, 87
1, 128225, Note_off_c, 0, 63, 58
1, 128239, Control_c, 0, 64, 88
1, 128251, Note_on_c, 0, 61, 60
1, 128251, Note_on_c, 0, 79, 71
1, 128254, Control_c, 0, 64, 89
1, 128265, Note_off_c, 0, 71, 60
1, 128269, Control_c, 0, 64, 90
1, 128284, Control_c, 0, 64, 91
1, 128288, Note_off_c, 0, 61, 63
1, 128299, Control_c, 0, 64, 91
1, 128314, Control_c, 0, 64, 92
1, 128321, Note_on_c, 0, 63, 62
1, 128325, Note_off_c, 0, 79, 64
1, 128326, Note_on_c, 0, 77, 71
1, 128343, Control_c, 0, 64, 93
1, 128355, Note_off_c, 0, 63, 64
1, 128373, Control_c, 0, 64, 91
1, 128386, Note_on_c, 0, 60, 59
1, 128388, Control_c, 0, 64, 79
1, 128400, Note_off_c, 0, 77, 63
1, 128401, Note_on_c, 0, 80, 78
1, 128403, Control_c, 0, 64, 65
1, 128417, Control_c, 0, 64, 45
1, 128422, Note_off_c, 0, 60, 65
1, 128432, Control_c, 0, 64, 0
1, 128466, Note_on_c, 0, 62, 48
1, 128468, Note_on_c, 0, 78, 79
1, 128469, Control_c, 0, 64, 46
1, 128484, Control_c, 0, 64, 64
1, 128492, Note_off_c, 0, 80, 64
1, 128498, Note_off_c, 0, 62, 63
1, 128498, Control_c, 0, 64, 78
1, 128513, Control_c, 0, 64, 92
1, 128520, Note_on_c, 0, 60, 52
1, 128528, Control_c, 0, 64, 107
1, 128539, Note_on_c, 0, 70, 76
1, 128540, Note_off_c, 0, 78, 64
1, 128543, Control_c, 0, 64, 116
1, 128555, Note_off_c, 0, 60, 66
1, 128558, Control_c, 0, 64, 127
1, 128578, Note_off_c, 0, 70, 61
1, 128632, Note_on_c, 0, 68, 76
1, 128662, Control_c, 0, 64, 116
1, 128677, Control_c, 0, 64, 89
1, 128692, Control_c, 0, 64, 72
1, 128699, Note_on_c, 0, 66, 74
1, 128706, Note_off_c, 0, 68, 65
1, 128707, Control_c, 0, 64, 60
1, 128708, Note_on_c, 0, 72, 36
1, 128722, Control_c, 0, 64, 48
1, 128735, Note_off_c, 0, 72, 56
1, 128737, Control_c, 0, 64, 53
1, 128751, Control_c, 0, 64, 63
1, 128761, Note_on_c, 0, 74, 47
1, 128764, Note_off_c, 0, 66, 62
1, 128766, Control_c, 0, 64, 77
1, 128775, Note_on_c, 0, 58, 74
1, 128781, Control_c, 0, 64, 92
1, 128796, Control_c, 0, 64, 127
1, 128810, Note_off_c, 0, 74, 62
1, 128825, Note_on_c, 0, 72, 66
1, 128844, Note_off_c, 0, 58, 62
1, 128859, Note_on_c, 0, 66, 74
1, 128862, Note_off_c, 0, 72, 59
1, 128894, Note_on_c, 0, 74, 64
1, 128922, Note_off_c, 0, 74, 68
1, 128925, Note_on_c, 0, 68, 77
1, 128933, Note_off_c, 0, 66, 63
1, 128946, Note_off_c, 0, 68, 70
1, 128974, Control_c, 0, 64, 91
1, 128989, Control_c, 0, 64, 70
1, 129004, Control_c, 0, 64, 51
1, 129011, Note_on_c, 0, 70, 75
1, 129019, Control_c, 0, 64, 0
1, 129048, Control_c, 0, 64, 46
1, 129059, Note_on_c, 0, 62, 45
1, 129063, Control_c, 0, 64, 64
1, 129078, Control_c, 0, 64, 75
1, 129081, Note_on_c, 0, 78, 71
1, 129090, Note_off_c, 0, 70, 62
1, 129093, Control_c, 0, 64, 83
1, 129108, Control_c, 0, 64, 89
1, 129122, Control_c, 0, 64, 90
1, 129129, Note_off_c, 0, 62, 62
1, 129137, Control_c, 0, 64, 90
1, 129139, Note_on_c, 0, 80, 76
1, 129157, Note_off_c, 0, 78, 59
1, 129160, Note_on_c, 0, 60, 58
1, 129166, Control_c, 0, 64, 91
1, 129203, Note_off_c, 0, 80, 63
1, 129212, Note_off_c, 0, 60, 63
1, 129222, Note_on_c, 0, 70, 64
1, 129238, Note_off_c, 0, 70, 69
1, 129267, Note_on_c, 0, 62, 51
1, 129278, Control_c, 0, 64, 89
1, 129293, Control_c, 0, 64, 77
1, 129294, Note_off_c, 0, 62, 58
1, 129308, Control_c, 0, 64, 63
1, 129322, Control_c, 0, 64, 35
1, 129327, Note_on_c, 0, 60, 64
1, 129328, Note_on_c, 0, 68, 59
1, 129337, Control_c, 0, 64, 0
1, 129367, Note_off_c, 0, 68, 66
1, 129367, Control_c, 0, 64, 30
1, 129376, Note_off_c, 0, 60, 61
1, 129381, Control_c, 0, 64, 51
1, 129393, Note_on_c, 0, 66, 67
1, 129395, Note_on_c, 0, 62, 50
1, 129396, Control_c, 0, 64, 66
1, 129411, Control_c, 0, 64, 72
1, 129426, Control_c, 0, 64, 76
1, 129441, Control_c, 0, 64, 78
1, 129446, Note_off_c, 0, 62, 59
1, 129449, Note_off_c, 0, 66, 63
1, 129455, Control_c, 0, 64, 80
1, 129470, Control_c, 0, 64, 81
1, 129477, Note_on_c, 0, 58, 64
1, 129484, Note_on_c, 0, 60, 62
1, 129485, Control_c, 0, 64, 82
1, 129500, Control_c, 0, 64, 82
1, 129522, Note_off_c, 0, 60, 64
1, 129530, Control_c, 0, 64, 83
1, 129536, Note_on_c, 0, 66, 62
1, 129551, Note_off_c, 0, 58, 63
1, 129557, Note_on_c, 0, 62, 61
1, 129560, Control_c, 0, 64, 83
1, 129589, Control_c, 0, 64, 83
1, 129592, Note_off_c, 0, 62, 63
1, 129595, Note_off_c, 0, 66, 63
1, 129604, Control_c, 0, 64, 79
1, 129609, Note_on_c, 0, 68, 75
1, 129619, Control_c, 0, 64, 70
1, 129634, Control_c, 0, 64, 59
1, 129634, Note_on_c, 0, 60, 57
1, 129648, Control_c, 0, 64, 45
1, 129663, Control_c, 0, 64, 50
1, 129672, Note_off_c, 0, 68, 64
1, 129676, Note_on_c, 0, 66, 70
1, 129678, Note_off_c, 0, 60, 64
1, 129678, Control_c, 0, 64, 60
1, 129692, Control_c, 0, 64, 71
1, 129703, Note_on_c, 0, 62, 53
1, 129707, Control_c, 0, 64, 84
1, 129723, Control_c, 0, 64, 113
1, 129738, Control_c, 0, 64, 127
1, 129739, Note_off_c, 0, 66, 61
1, 129742, Note_off_c, 0, 62, 64
1, 129749, Note_on_c, 0, 60, 58
1, 129753, Note_on_c, 0, 58, 70
1, 129774, Note_off_c, 0, 60, 71
1, 129818, Note_off_c, 0, 58, 57
1, 129849, Note_on_c, 0, 54, 70
1, 129896, Note_on_c, 0, 48, 73
1, 129901, Control_c, 0, 64, 82
1, 129908, Note_off_c, 0, 54, 64
1, 129911, Note_on_c, 0, 56, 76
1, 129915, Control_c, 0, 64, 60
1, 129915, Control_c, 0, 67, 109
1, 129930, Control_c, 0, 64, 0
1, 129930, Control_c, 0, 67, 70
1, 129953, Control_c, 0, 67, 34
1, 129959, Note_off_c, 0, 48, 66
1, 129968, Note_on_c, 0, 50, 66
1, 129968, Control_c, 0, 64, 51
1, 129968, Control_c, 0, 67, 0
1, 129982, Note_off_c, 0, 56, 64
1, 129983, Control_c, 0, 64, 73
1, 129989, Note_on_c, 0, 54, 71
1, 129997, Control_c, 0, 64, 93
1, 130012, Control_c, 0, 64, 127
1, 130020, Note_off_c, 0, 50, 61
1, 130027, Note_off_c, 0, 54, 63
1, 130050, Note_on_c, 0, 48, 63
1, 130062, Note_on_c, 0, 46, 59
1, 130099, Note_off_c, 0, 48, 63
1, 130123, Note_on_c, 0, 54, 75
1, 130126, Note_on_c, 0, 50, 55
1, 130133, Note_off_c, 0, 46, 62
1, 130159, Note_off_c, 0, 50, 63
1, 130183, Note_off_c, 0, 54, 64
1, 130189, Note_on_c, 0, 48, 66
1, 130190, Control_c, 0, 64, 78
1, 130192, Note_on_c, 0, 56, 79
1, 130204, Control_c, 0, 64, 58
1, 130219, Control_c, 0, 64, 38
1, 130234, Control_c, 0, 64, 50
1, 130242, Note_off_c, 0, 48, 58
1, 130249, Control_c, 0, 64, 67
1, 130251, Note_on_c, 0, 54, 69
1, 130257, Note_off_c, 0, 56, 63
1, 130260, Note_on_c, 0, 50, 57
1, 130264, Control_c, 0, 64, 94
1, 130278, Control_c, 0, 64, 127
1, 130305, Note_off_c, 0, 54, 62
1, 130309, Note_off_c, 0, 50, 56
1, 130325, Note_on_c, 0, 46, 73
1, 130335, Note_on_c, 0, 48, 63
1, 130368, Note_off_c, 0, 48, 65
1, 130412, Note_off_c, 0, 46, 54
1, 130424, Note_on_c, 0, 42, 66
1, 130486, Note_off_c, 0, 42, 63
1, 130486, Control_c, 0, 64, 100
1, 130491, Note_on_c, 0, 44, 75
1, 130500, Note_on_c, 0, 36, 72
1, 130501, Control_c, 0, 64, 61
1, 130516, Control_c, 0, 64, 0
1, 130551, Note_off_c, 0, 44, 65
1, 130552, Note_off_c, 0, 36, 62
1, 130558, Note_on_c, 0, 38, 56
1, 130558, Note_on_c, 0, 42, 69
1, 130561, Control_c, 0, 64, 37
1, 130576, Control_c, 0, 64, 81
1, 130588, Note_off_c, 0, 42, 65
1, 130591, Control_c, 0, 64, 127
1, 130607, Note_off_c, 0, 38, 62
1, 130630, Note_on_c, 0, 36, 50
1, 130639, Note_on_c, 0, 34, 58
1, 130686, Note_off_c, 0, 36, 61
1, 130701, Note_on_c, 0, 38, 54
1, 130702, Note_on_c, 0, 42, 63
1, 130710, Note_off_c, 0, 34, 59
1, 130741, Note_off_c, 0, 38, 62
1, 130776, Note_off_c, 0, 42, 63
1, 130784, Note_on_c, 0, 44, 82
1, 130791, Control_c, 0, 64, 91
1, 130791, Note_on_c, 0, 36, 74
1, 130806, Control_c, 0, 64, 69
1, 130820, Control_c, 0, 64, 60
1, 130835, Control_c, 0, 64, 62
1, 130842, Note_off_c, 0, 36, 62
1, 130850, Control_c, 0, 64, 68
1, 130854, Note_on_c, 0, 42, 70
1, 130854, Note_off_c, 0, 44, 64
1, 130865, Control_c, 0, 64, 83
1, 130868, Note_on_c, 0, 38, 47
1, 130880, Control_c, 0, 64, 127
1, 130905, Note_off_c, 0, 38, 61
1, 130916, Note_on_c, 0, 36, 62
1, 130923, Note_on_c, 0, 34, 63
1, 130923, Note_off_c, 0, 42, 62
1, 130982, Note_off_c, 0, 36, 60
1, 130999, Note_on_c, 0, 38, 59
1, 130999, Note_on_c, 0, 42, 64
1, 131011, Note_off_c, 0, 34, 59
1, 131032, Note_off_c, 0, 38, 64
1, 131065, Note_off_c, 0, 42, 62
1, 131072, Control_c, 0, 64, 78
1, 131084, Note_on_c, 0, 44, 83
1, 131087, Control_c, 0, 64, 61
1, 131089, Note_on_c, 0, 36, 72
1, 131101, Control_c, 0, 64, 54
1, 131116, Control_c, 0, 64, 60
1, 131131, Control_c, 0, 64, 70
1, 131135, Note_off_c, 0, 36, 62
1, 131145, Control_c, 0, 64, 89
1, 131152, Note_on_c, 0, 38, 47
1, 131156, Note_on_c, 0, 42, 74
1, 131156, Note_off_c, 0, 44, 64
1, 131160, Control_c, 0, 64, 127
1, 131194, Note_off_c, 0, 38, 61
1, 131209, Note_off_c, 0, 42, 63
1, 131211, Note_on_c, 0, 36, 66
1, 131216, Note_on_c, 0, 34, 66
1, 131268, Note_off_c, 0, 36, 61
1, 131284, Note_on_c, 0, 38, 64
1, 131297, Note_on_c, 0, 42, 66
1, 131305, Note_off_c, 0, 34, 60
1, 131318, Note_off_c, 0, 38, 64
1, 131338, Note_off_c, 0, 42, 60
1, 131354, Control_c, 0, 64, 98
1, 131369, Control_c, 0, 64, 71
1, 131378, Note_on_c, 0, 44, 88
1, 131378, Note_on_c, 0, 36, 78
1, 131384, Control_c, 0, 64, 62
1, 131414, Control_c, 0, 64, 68
1, 131429, Control_c, 0, 64, 81
1, 131441, Note_off_c, 0, 36, 61
1, 131446, Note_on_c, 0, 38, 50
1, 131450, Control_c, 0, 64, 127
1, 131451, Note_on_c, 0, 42, 68
1, 131453, Note_off_c, 0, 44, 66
1, 131497, Note_off_c, 0, 42, 62
1, 131505, Note_on_c, 0, 34, 68
1, 131512, Note_off_c, 0, 38, 62
1, 131520, Note_on_c, 0, 36, 69
1, 131580, Note_off_c, 0, 36, 60
1, 131581, Note_on_c, 0, 42, 69
1, 131590, Note_off_c, 0, 34, 61
1, 131594, Note_on_c, 0, 38, 59
1, 131625, Note_off_c, 0, 38, 64
1, 131634, Note_off_c, 0, 42, 61
1, 131658, Control_c, 0, 64, 96
1, 131664, Note_on_c, 0, 44, 92
1, 131673, Control_c, 0, 64, 74
1, 131674, Note_on_c, 0, 36, 85
1, 131687, Control_c, 0, 64, 68
1, 131702, Control_c, 0, 64, 70
1, 131717, Control_c, 0, 64, 78
1, 131730, Note_off_c, 0, 36, 62
1, 131732, Control_c, 0, 64, 99
1, 131736, Note_on_c, 0, 42, 74
1, 131740, Note_off_c, 0, 44, 65
1, 131743, Note_on_c, 0, 38, 59
1, 131747, Control_c, 0, 64, 127
1, 131780, Note_off_c, 0, 42, 61
1, 131789, Note_on_c, 0, 34, 67
1, 131799, Note_off_c, 0, 38, 61
1, 131806, Note_on_c, 0, 36, 76
1, 131869, Note_on_c, 0, 42, 71
1, 131870, Note_off_c, 0, 36, 63
1, 131871, Note_off_c, 0, 34, 61
1, 131904, Note_on_c, 0, 38, 41
1, 131914, Note_off_c, 0, 42, 60
1, 131938, Note_off_c, 0, 38, 56
1, 131939, Control_c, 0, 64, 98
1, 131954, Control_c, 0, 64, 74
1, 131958, Note_on_c, 0, 44, 93
1, 131963, Note_on_c, 0, 36, 95
1, 131968, Control_c, 0, 64, 63
1, 131983, Control_c, 0, 64, 63
1, 131998, Control_c, 0, 64, 71
1, 132013, Control_c, 0, 64, 92
1, 132021, Note_off_c, 0, 44, 66
1, 132025, Note_on_c, 0, 42, 67
1, 132028, Control_c, 0, 64, 127
1, 132033, Note_off_c, 0, 36, 61
1, 132040, Note_on_c, 0, 38, 66
1, 132081, Note_on_c, 0, 34, 69
1, 132084, Note_off_c, 0, 42, 62
1, 132096, Note_on_c, 0, 36, 80
1, 132100, Note_off_c, 0, 38, 63
1, 132161, Note_on_c, 0, 42, 66
1, 132161, Note_off_c, 0, 34, 61
1, 132163, Note_off_c, 0, 36, 61
1, 132209, Note_on_c, 0, 38, 30
1, 132224, Note_off_c, 0, 42, 62
1, 132229, Control_c, 0, 64, 103
1, 132244, Control_c, 0, 64, 73
1, 132250, Note_off_c, 0, 38, 52
1, 132254, Note_on_c, 0, 44, 97
1, 132254, Note_on_c, 0, 36, 96
1, 132259, Control_c, 0, 64, 58
1, 132288, Control_c, 0, 64, 68
1, 132303, Control_c, 0, 64, 90
1, 132316, Note_on_c, 0, 42, 69
1, 132317, Control_c, 0, 64, 127
1, 132323, Note_off_c, 0, 36, 62
1, 132330, Note_on_c, 0, 38, 76
1, 132332, Note_off_c, 0, 44, 64
1, 132373, Note_off_c, 0, 42, 64
1, 132381, Note_on_c, 0, 34, 63
1, 132392, Note_on_c, 0, 36, 75
1, 132392, Note_off_c, 0, 38, 63
1, 132454, Note_off_c, 0, 34, 61
1, 132457, Note_on_c, 0, 42, 69
1, 132466, Note_off_c, 0, 36, 61
1, 132490, Note_on_c, 0, 38, 56
1, 132514, Note_off_c, 0, 42, 62
1, 132517, Note_off_c, 0, 38, 65
1, 132538, Note_on_c, 0, 44, 95
1, 132549, Note_on_c, 0, 36, 83
1, 132591, Note_off_c, 0, 36, 64
1, 132596, Note_on_c, 0, 40, 55
1, 132599, Note_on_c, 0, 38, 57
1, 132600, Note_on_c, 0, 42, 79
1, 132627, Note_off_c, 0, 44, 61
1, 132656, Note_on_c, 0, 36, 75
1, 132660, Note_off_c, 0, 40, 61
1, 132661, Note_off_c, 0, 42, 63
1, 132671, Note_on_c, 0, 34, 57
1, 132685, Note_off_c, 0, 38, 63
1, 132712, Note_off_c, 0, 36, 63
1, 132733, Note_off_c, 0, 34, 60
1, 132741, Note_on_c, 0, 42, 76
1, 132911, Note_off_c, 0, 42, 61
1, 132963, Control_c, 0, 64, 85
1, 132978, Control_c, 0, 64, 40
1, 132993, Control_c, 0, 64, 0
1, 133006, Note_on_c, 0, 22, 115
1, 133067, Control_c, 0, 64, 64
1, 133083, Control_c, 0, 64, 77
1, 133097, Control_c, 0, 64, 99
1, 133112, Control_c, 0, 64, 127
1, 133169, Note_off_c, 0, 22, 20
1, 133179, Note_on_c, 0, 24, 18
1, 133277, Note_off_c, 0, 24, 57
1, 133281, Note_on_c, 0, 34, 58
1, 133313, Note_off_c, 0, 34, 64
1, 133331, Note_on_c, 0, 36, 44
1, 133331, Note_on_c, 0, 38, 38
1, 133368, Note_on_c, 0, 46, 69
1, 133380, Note_off_c, 0, 36, 58
1, 133390, Note_off_c, 0, 38, 58
1, 133437, Note_on_c, 0, 50, 68
1, 133455, Note_on_c, 0, 48, 37
1, 133455, Note_off_c, 0, 46, 63
1, 133463, Note_off_c, 0, 50, 64
1, 133474, Poly_aftertouch_c, 0, 34, 0
1, 133486, Note_off_c, 0, 48, 55
1, 133508, Note_on_c, 0, 34, 20
1, 133548, Note_on_c, 0, 35, 27
1, 133554, Note_on_c, 0, 36, 52
1, 133581, Note_on_c, 0, 46, 82
1, 133586, Note_off_c, 0, 36, 63
1, 133589, Note_off_c, 0, 35, 57
1, 133602, Note_off_c, 0, 34, 62
1, 133627, Note_on_c, 0, 48, 53
1, 133630, Note_off_c, 0, 46, 63
1, 133640, Note_on_c, 0, 50, 54
1, 133681, Note_on_c, 0, 58, 77
1, 133737, Note_on_c, 0, 60, 74
1, 133739, Note_off_c, 0, 50, 59
1, 133748, Note_off_c, 0, 48, 47
1, 133765, Note_on_c, 0, 62, 78
1, 133781, Note_off_c, 0, 58, 65
1, 133797, Note_off_c, 0, 60, 65
1, 133801, Note_off_c, 0, 62, 63
1, 133816, Note_on_c, 0, 46, 66
1, 133834, Note_on_c, 0, 48, 64
1, 133873, Note_off_c, 0, 48, 65
1, 133888, Note_on_c, 0, 58, 80
1, 133900, Note_off_c, 0, 46, 62
1, 133920, Note_off_c, 0, 58, 59
1, 133943, Note_on_c, 0, 60, 52
1, 133946, Note_on_c, 0, 62, 47
1, 133984, Note_on_c, 0, 70, 76
1, 134020, Note_on_c, 0, 72, 75
1, 134036, Note_off_c, 0, 60, 61
1, 134040, Note_off_c, 0, 62, 60
1, 134066, Note_on_c, 0, 74, 85
1, 134074, Note_off_c, 0, 70, 66
1, 134094, Note_off_c, 0, 72, 66
1, 134111, Note_off_c, 0, 74, 66
1, 134313, Note_on_c, 0, 84, 108
1, 134319, Note_on_c, 0, 60, 87
1, 134320, Note_on_c, 0, 72, 94
1, 134379, Control_c, 0, 64, 72
1, 134386, Note_on_c, 0, 79, 102
1, 134387, Note_on_c, 0, 91, 107
1, 134388, Note_on_c, 0, 67, 83
1, 134394, Control_c, 0, 64, 0
1, 134409, Note_off_c, 0, 72, 63
1, 134409, Note_off_c, 0, 84, 66
1, 134520, Control_c, 0, 64, 72
1, 134535, Control_c, 0, 64, 127
1, 134536, Note_off_c, 0, 91, 57
1, 134539, Note_off_c, 0, 67, 68
1, 134564, Note_off_c, 0, 60, 64
1, 134576, Note_off_c, 0, 79, 59
1, 134994, Note_on_c, 0, 28, 100
1, 135035, Note_off_c, 0, 28, 65
1, 135045, Note_on_c, 0, 26, 4
1, 135101, Note_off_c, 0, 26, 46
1, 135668, Control_c, 0, 64, 84
1, 135683, Control_c, 0, 64, 46
1, 135685, Note_on_c, 0, 22, 111
1, 135698, Control_c, 0, 64, 0
1, 135730, Note_off_c, 0, 22, 60
1, 135742, Control_c, 0, 64, 47
1, 135757, Control_c, 0, 64, 82
1, 135772, Control_c, 0, 64, 127
1, 135871, Poly_aftertouch_c, 0, 22, 0
1, 135875, Note_on_c, 0, 24, 54
1, 135936, Note_off_c, 0, 24, 61
1, 135948, Note_on_c, 0, 34, 66
1, 135978, Note_off_c, 0, 34, 63
1, 135995, Note_on_c, 0, 36, 61
1, 136001, Note_on_c, 0, 38, 62
1, 136049, Note_on_c, 0, 46, 75
1, 136069, Note_off_c, 0, 36, 60
1, 136076, Note_off_c, 0, 38, 62
1, 136112, Note_on_c, 0, 48, 64
1, 136115, Note_on_c, 0, 50, 72
1, 136132, Note_off_c, 0, 46, 64
1, 136142, Note_off_c, 0, 48, 64
1, 136142, Note_off_c, 0, 50, 68
1, 136161, Note_on_c, 0, 34, 51
1, 136174, Note_on_c, 0, 36, 70
1, 136214, Note_off_c, 0, 36, 64
1, 136223, Note_on_c, 0, 46, 84
1, 136236, Note_off_c, 0, 34, 61
1, 136255, Note_off_c, 0, 46, 64
1, 136290, Note_on_c, 0, 48, 59
1, 136301, Note_on_c, 0, 50, 59
1, 136338, Note_on_c, 0, 58, 72
1, 136379, Note_on_c, 0, 60, 76
1, 136387, Note_off_c, 0, 50, 60
1, 136389, Note_off_c, 0, 48, 62
1, 136413, Note_on_c, 0, 62, 78
1, 136425, Note_off_c, 0, 58, 65
1, 136439, Note_off_c, 0, 60, 65
1, 136450, Note_off_c, 0, 62, 62
1, 136453, Note_on_c, 0, 46, 61
1, 136465, Note_on_c, 0, 48, 58
1, 136527, Note_off_c, 0, 48, 62
1, 136533, Note_on_c, 0, 58, 79
1, 136550, Note_off_c, 0, 46, 60
1, 136555, Note_on_c, 0, 62, 60
1, 136559, Note_on_c, 0, 60, 67
1, 136567, Note_off_c, 0, 58, 61
1, 136603, Note_on_c, 0, 70, 75
1, 136648, Note_on_c, 0, 72, 69
1, 136656, Note_off_c, 0, 60, 51
1, 136668, Note_off_c, 0, 62, 59
1, 136703, Note_on_c, 0, 74, 84
1, 136707, Note_off_c, 0, 70, 66
1, 136726, Note_off_c, 0, 72, 64
1, 136744, Note_off_c, 0, 74, 62
1, 136958, Note_on_c, 0, 84, 95
1, 136966, Note_on_c, 0, 72, 84
1, 136971, Note_on_c, 0, 60, 76
1, 137009, Note_off_c, 0, 72, 66
1, 137023, Note_on_c, 0, 93, 86
1, 137024, Note_on_c, 0, 69, 83
1, 137028, Note_off_c, 0, 60, 65
1, 137049, Note_off_c, 0, 84, 66
1, 137067, Note_off_c, 0, 93, 68
1, 137086, Note_off_c, 0, 69, 68
1, 137095, Note_on_c, 0, 79, 98
1, 137095, Note_on_c, 0, 91, 103
1, 137097, Note_on_c, 0, 67, 91
1, 137122, Control_c, 0, 64, 73
1, 137137, Control_c, 0, 64, 0
1, 137241, Control_c, 0, 64, 63
1, 137256, Control_c, 0, 64, 88
1, 137258, Note_off_c, 0, 91, 64
1, 137271, Control_c, 0, 64, 127
1, 137286, Note_off_c, 0, 67, 69
1, 137286, Note_off_c, 0, 79, 61
1, 137916, Control_c, 0, 64, 80
1, 137930, Control_c, 0, 64, 48
1, 137945, Control_c, 0, 64, 0
1, 137953, Note_on_c, 0, 60, 66
1, 137954, Note_on_c, 0, 59, 66
1, 137984, Note_off_c, 0, 59, 64
1, 137990, Control_c, 0, 64, 42
1, 138004, Control_c, 0, 64, 62
1, 138007, Note_off_c, 0, 60, 65
1, 138019, Control_c, 0, 64, 81
1, 138029, Note_on_c, 0, 84, 88
1, 138030, Note_on_c, 0, 72, 78
1, 138034, Control_c, 0, 64, 127
1, 138052, Note_off_c, 0, 72, 65
1, 138085, Note_off_c, 0, 84, 62
1, 138171, Note_on_c, 0, 69, 83
1, 138228, Note_off_c, 0, 69, 64
1, 138259, Note_on_c, 0, 93, 91
1, 138260, Note_on_c, 0, 81, 94
1, 138297, Note_off_c, 0, 81, 66
1, 138300, Note_off_c, 0, 93, 66
1, 138336, Note_on_c, 0, 67, 95
1, 138385, Note_off_c, 0, 67, 66
1, 138390, Note_on_c, 0, 91, 98
1, 138391, Note_on_c, 0, 79, 91
1, 138409, Note_off_c, 0, 79, 74
1, 138431, Note_off_c, 0, 91, 62
1, 138471, Note_on_c, 0, 70, 100
1, 138511, Note_on_c, 0, 82, 101
1, 138512, Note_on_c, 0, 94, 94
1, 138514, Note_off_c, 0, 70, 67
1, 138545, Note_off_c, 0, 82, 61
1, 138553, Note_off_c, 0, 94, 66
1, 138574, Note_on_c, 0, 68, 92
1, 138606, Note_on_c, 0, 92, 87
1, 138613, Note_off_c, 0, 68, 66
1, 138614, Note_on_c, 0, 80, 87
1, 138632, Note_off_c, 0, 80, 70
1, 138653, Note_off_c, 0, 92, 67
1, 138680, Note_on_c, 0, 61, 74
1, 138715, Note_on_c, 0, 85, 98
1, 138717, Note_on_c, 0, 73, 100
1, 138738, Note_off_c, 0, 73, 64
1, 138759, Note_off_c, 0, 85, 66
1, 138880, Note_off_c, 0, 61, 20
1, 138984, Control_c, 0, 64, 91
1, 138999, Control_c, 0, 64, 56
1, 139011, Note_on_c, 0, 71, 102
1, 139013, Control_c, 0, 64, 0
1, 139018, Note_on_c, 0, 83, 107
1, 139020, Note_on_c, 0, 95, 103
1, 139087, Control_c, 0, 64, 36
1, 139101, Control_c, 0, 64, 63
1, 139116, Control_c, 0, 64, 94
1, 139131, Control_c, 0, 64, 127
1, 139145, Note_off_c, 0, 95, 63
1, 139149, Note_off_c, 0, 71, 63
1, 139197, Note_off_c, 0, 83, 59
1, 139384, Control_c, 0, 67, 19
1, 139399, Control_c, 0, 67, 22
1, 139428, Control_c, 0, 67, 25
1, 139443, Control_c, 0, 67, 27
1, 139458, Control_c, 0, 67, 30
1, 139473, Control_c, 0, 67, 36
1, 139488, Control_c, 0, 67, 44
1, 139502, Control_c, 0, 67, 54
1, 139517, Control_c, 0, 67, 67
1, 139522, Note_on_c, 0, 58, 52
1, 139532, Control_c, 0, 67, 81
1, 139547, Control_c, 0, 67, 94
1, 139562, Control_c, 0, 67, 107
1, 139576, Control_c, 0, 67, 121
1, 139591, Control_c, 0, 67, 127
1, 139629, Note_on_c, 0, 70, 56
1, 139683, Note_off_c, 0, 58, 53
1, 139699, Note_on_c, 0, 56, 58
1, 139763, Note_on_c, 0, 68, 55
1, 139788, Note_off_c, 0, 70, 56
1, 139808, Note_off_c, 0, 56, 60
1, 139825, Note_on_c, 0, 49, 53
1, 139829, Note_off_c, 0, 68, 62
1, 139836, Note_on_c, 0, 61, 63
1, 139856, Note_off_c, 0, 49, 65
1, 139868, Note_off_c, 0, 61, 65
1, 139942, Note_on_c, 0, 46, 71
1, 139982, Note_on_c, 0, 58, 60
1, 140014, Note_off_c, 0, 46, 61
1, 140034, Note_on_c, 0, 44, 66
1, 140066, Note_on_c, 0, 56, 69
1, 140069, Note_off_c, 0, 58, 62
1, 140120, Note_off_c, 0, 44, 64
1, 140124, Note_off_c, 0, 56, 63
1, 140129, Note_on_c, 0, 37, 62
1, 140151, Note_on_c, 0, 49, 73
1, 140159, Note_off_c, 0, 37, 63
1, 140184, Note_off_c, 0, 49, 64
1, 140240, Note_on_c, 0, 34, 74
1, 140306, Note_on_c, 0, 46, 63
1, 140327, Note_off_c, 0, 34, 56
1, 140335, Note_on_c, 0, 32, 65
1, 140355, Control_c, 0, 67, 93
1, 140370, Control_c, 0, 67, 55
1, 140384, Control_c, 0, 67, 0
1, 140392, Note_off_c, 0, 46, 62
1, 140408, Note_on_c, 0, 44, 61
1, 140427, Note_on_c, 0, 25, 62
1, 140429, Note_off_c, 0, 32, 61
1, 140483, Note_off_c, 0, 25, 62
1, 140491, Note_off_c, 0, 44, 0
1, 140493, Note_on_c, 0, 46, 40
1, 140508, Note_on_c, 0, 37, 67
1, 140528, Poly_aftertouch_c, 0, 44, 127
1, 140611, Note_off_c, 0, 37, 54
1, 140655, Poly_aftertouch_c, 0, 44, 0
1, 140681, Note_off_c, 0, 46, 46
1, 140699, Note_on_c, 0, 22, 109
1, 140703, Control_c, 0, 64, 87
1, 140718, Control_c, 0, 64, 52
1, 140732, Note_off_c, 0, 22, 62
1, 140732, Control_c, 0, 64, 0
1, 140771, Note_on_c, 0, 23, 2
1, 140792, Control_c, 0, 64, 43
1, 140793, Note_off_c, 0, 23, 43
1, 140806, Control_c, 0, 64, 67
1, 140821, Control_c, 0, 64, 96
1, 140836, Control_c, 0, 64, 127
1, 140891, Note_on_c, 0, 24, 55
1, 140948, Note_off_c, 0, 24, 63
1, 140961, Note_on_c, 0, 34, 64
1, 140980, Note_on_c, 0, 36, 43
1, 140986, Note_on_c, 0, 38, 53
1, 140991, Note_off_c, 0, 34, 63
1, 141025, Note_on_c, 0, 46, 73
1, 141039, Note_off_c, 0, 36, 61
1, 141049, Note_off_c, 0, 38, 63
1, 141099, Note_on_c, 0, 48, 60
1, 141102, Note_on_c, 0, 50, 70
1, 141111, Note_off_c, 0, 46, 64
1, 141127, Note_off_c, 0, 48, 66
1, 141131, Note_off_c, 0, 50, 67
1, 141155, Note_on_c, 0, 34, 51
1, 141177, Note_on_c, 0, 36, 64
1, 141224, Note_on_c, 0, 46, 79
1, 141226, Note_off_c, 0, 36, 60
1, 141233, Note_off_c, 0, 34, 60
1, 141256, Note_off_c, 0, 46, 66
1, 141282, Note_on_c, 0, 48, 63
1, 141283, Note_on_c, 0, 50, 52
1, 141320, Note_on_c, 0, 58, 74
1, 141361, Note_on_c, 0, 60, 78
1, 141365, Note_off_c, 0, 48, 62
1, 141369, Note_off_c, 0, 50, 62
1, 141396, Note_on_c, 0, 62, 76
1, 141403, Note_off_c, 0, 58, 66
1, 141416, Note_off_c, 0, 60, 68
1, 141430, Note_off_c, 0, 62, 63
1, 141441, Note_on_c, 0, 46, 66
1, 141457, Note_on_c, 0, 48, 70
1, 141518, Note_on_c, 0, 58, 78
1, 141520, Note_off_c, 0, 46, 60
1, 141523, Note_off_c, 0, 48, 62
1, 141544, Note_off_c, 0, 58, 66
1, 141567, Note_on_c, 0, 62, 55
1, 141568, Note_on_c, 0, 60, 65
1, 141608, Note_on_c, 0, 70, 76
1, 141643, Note_on_c, 0, 72, 80
1, 141668, Note_off_c, 0, 60, 62
1, 141678, Note_off_c, 0, 62, 58
1, 141685, Note_on_c, 0, 74, 89
1, 141693, Note_off_c, 0, 70, 67
1, 141709, Note_off_c, 0, 72, 66
1, 141725, Note_off_c, 0, 74, 66
1, 141951, Note_on_c, 0, 84, 100
1, 141959, Note_on_c, 0, 60, 86
1, 141960, Note_on_c, 0, 72, 89
1, 142008, Control_c, 0, 64, 69
1, 142023, Control_c, 0, 64, 0
1, 142023, Note_on_c, 0, 79, 107
1, 142024, Note_on_c, 0, 91, 108
1, 142029, Note_on_c, 0, 67, 87
1, 142045, Note_off_c, 0, 72, 67
1, 142050, Note_off_c, 0, 84, 65
1, 142123, Note_off_c, 0, 91, 61
1, 142126, Control_c, 0, 64, 31
1, 142136, Note_off_c, 0, 79, 60
1, 142137, Note_off_c, 0, 67, 67
1, 142141, Control_c, 0, 64, 80
1, 142144, Note_off_c, 0, 60, 53
1, 142155, Control_c, 0, 64, 127
1, 142638, Note_on_c, 0, 28, 98
1, 142687, Note_off_c, 0, 28, 65
1, 143284, Note_on_c, 0, 22, 118
1, 143290, Control_c, 0, 64, 65
1, 143305, Control_c, 0, 64, 0
1, 143324, Note_off_c, 0, 22, 61
1, 143347, Note_on_c, 0, 23, 17
1, 143364, Control_c, 0, 64, 42
1, 143368, Note_off_c, 0, 23, 45
1, 143379, Control_c, 0, 64, 76
1, 143394, Control_c, 0, 64, 127
1, 143471, Note_on_c, 0, 24, 51
1, 143517, Note_off_c, 0, 24, 61
1, 143531, Note_on_c, 0, 34, 67
1, 143553, Note_on_c, 0, 36, 53
1, 143558, Note_on_c, 0, 38, 58
1, 143561, Note_off_c, 0, 34, 63
1, 143603, Note_on_c, 0, 46, 73
1, 143617, Note_off_c, 0, 36, 61
1, 143629, Note_off_c, 0, 38, 62
1, 143667, Note_on_c, 0, 50, 71
1, 143680, Note_on_c, 0, 48, 47
1, 143690, Note_off_c, 0, 46, 63
1, 143692, Note_off_c, 0, 50, 65
1, 143710, Note_off_c, 0, 48, 55
1, 143715, Note_on_c, 0, 34, 46
1, 143732, Note_on_c, 0, 36, 63
1, 143776, Note_off_c, 0, 34, 58
1, 143776, Note_off_c, 0, 36, 63
1, 143777, Note_on_c, 0, 46, 80
1, 143807, Note_off_c, 0, 46, 65
1, 143827, Note_on_c, 0, 50, 46
1, 143830, Note_on_c, 0, 48, 53
1, 143878, Note_on_c, 0, 58, 75
1, 143917, Note_on_c, 0, 60, 75
1, 143925, Note_off_c, 0, 48, 61
1, 143942, Note_off_c, 0, 50, 57
1, 143956, Note_on_c, 0, 62, 77
1, 143966, Note_off_c, 0, 58, 66
1, 143975, Note_off_c, 0, 60, 67
1, 143993, Note_on_c, 0, 46, 64
1, 143993, Note_off_c, 0, 62, 63
1, 144008, Note_on_c, 0, 48, 65
1, 144062, Note_on_c, 0, 58, 86
1, 144076, Note_off_c, 0, 46, 63
1, 144077, Note_off_c, 0, 48, 61
1, 144100, Note_off_c, 0, 58, 62
1, 144111, Note_on_c, 0, 62, 54
1, 144125, Note_on_c, 0, 60, 63
1, 144140, Note_off_c, 0, 62, 0
1, 144140, Note_on_c, 0, 62, 40
1, 144172, Note_on_c, 0, 70, 76
1, 144174, Note_off_c, 0, 60, 42
1, 144205, Note_on_c, 0, 71, 72
1, 144210, Note_on_c, 0, 72, 75
1, 144220, Note_off_c, 0, 62, 60
1, 144252, Note_off_c, 0, 70, 61
1, 144258, Note_on_c, 0, 74, 82
1, 144264, Note_off_c, 0, 71, 64
1, 144285, Note_off_c, 0, 72, 66
1, 144309, Note_off_c, 0, 74, 67
1, 144503, Note_on_c, 0, 84, 98
1, 144506, Note_on_c, 0, 72, 88
1, 144510, Note_on_c, 0, 60, 83
1, 144547, Note_off_c, 0, 72, 65
1, 144559, Note_on_c, 0, 69, 83
1, 144565, Note_on_c, 0, 93, 93
1, 144565, Note_off_c, 0, 60, 61
1, 144583, Note_off_c, 0, 84, 67
1, 144613, Note_off_c, 0, 93, 67
1, 144632, Note_on_c, 0, 67, 89
1, 144632, Note_on_c, 0, 79, 105
1, 144632, Note_on_c, 0, 91, 98
1, 144633, Note_off_c, 0, 69, 68
1, 144655, Control_c, 0, 64, 94
1, 144669, Control_c, 0, 64, 53
1, 144684, Control_c, 0, 64, 0
1, 144773, Control_c, 0, 64, 35
1, 144783, Note_off_c, 0, 91, 63
1, 144788, Control_c, 0, 64, 76
1, 144793, Note_off_c, 0, 67, 69
1, 144803, Control_c, 0, 64, 127
1, 144821, Note_off_c, 0, 79, 61
1, 145566, Control_c, 0, 64, 90
1, 145581, Note_on_c, 0, 60, 68
1, 145581, Control_c, 0, 64, 61
1, 145596, Control_c, 0, 64, 0
1, 145640, Control_c, 0, 64, 42
1, 145653, Note_off_c, 0, 60, 64
1, 145655, Control_c, 0, 64, 62
1, 145677, Control_c, 0, 64, 78
1, 145692, Control_c, 0, 64, 126
1, 145697, Note_on_c, 0, 84, 80
1, 145700, Note_on_c, 0, 72, 62
1, 145718, Note_off_c, 0, 72, 65
1, 145747, Note_off_c, 0, 84, 63
1, 145815, Note_on_c, 0, 69, 75
1, 145870, Note_off_c, 0, 69, 62
1, 145911, Note_on_c, 0, 93, 84
1, 145912, Note_on_c, 0, 81, 80
1, 145947, Note_off_c, 0, 81, 61
1, 145950, Note_off_c, 0, 93, 63
1, 145996, Note_on_c, 0, 67, 83
1, 146051, Note_off_c, 0, 67, 62
1, 146059, Note_on_c, 0, 91, 85
1, 146061, Note_on_c, 0, 79, 81
1, 146082, Note_off_c, 0, 79, 72
1, 146088, Note_off_c, 0, 91, 56
1, 146142, Note_on_c, 0, 70, 89
1, 146185, Note_on_c, 0, 82, 90
1, 146186, Note_off_c, 0, 70, 65
1, 146187, Note_on_c, 0, 94, 92
1, 146220, Note_off_c, 0, 82, 60
1, 146229, Note_off_c, 0, 94, 65
1, 146246, Note_on_c, 0, 68, 85
1, 146282, Note_off_c, 0, 68, 61
1, 146288, Note_on_c, 0, 92, 97
1, 146294, Note_on_c, 0, 80, 93
1, 146324, Note_off_c, 0, 80, 65
1, 146326, Note_off_c, 0, 92, 67
1, 146353, Note_on_c, 0, 61, 74
1, 146396, Note_on_c, 0, 87, 90
1, 146402, Note_on_c, 0, 75, 82
1, 146405, Note_off_c, 0, 61, 61
1, 146421, Note_off_c, 0, 87, 73
1, 146423, Note_on_c, 0, 85, 61
1, 146423, Note_on_c, 0, 73, 78
1, 146432, Note_off_c, 0, 75, 60
1, 146446, Note_off_c, 0, 73, 69
1, 146449, Note_off_c, 0, 85, 58
1, 146456, Control_c, 0, 64, 114
1, 146470, Control_c, 0, 64, 64
1, 146483, Note_on_c, 0, 62, 90
1, 146485, Control_c, 0, 64, 0
1, 146524, Note_on_c, 0, 74, 92
1, 146527, Note_on_c, 0, 86, 81
1, 146531, Note_on_c, 0, 84, 77
1, 146531, Control_c, 0, 64, 38
1, 146533, Note_off_c, 0, 62, 64
1, 146545, Control_c, 0, 64, 71
1, 146552, Note_off_c, 0, 74, 66
1, 146554, Note_off_c, 0, 84, 67
1, 146560, Control_c, 0, 64, 127
1, 146569, Note_off_c, 0, 86, 64
1, 146632, Note_on_c, 0, 71, 97
1, 146669, Note_on_c, 0, 83, 94
1, 146670, Note_on_c, 0, 95, 92
1, 146675, Note_off_c, 0, 71, 69
1, 146699, Note_off_c, 0, 83, 63
1, 146706, Note_off_c, 0, 95, 65
1, 146739, Note_on_c, 0, 69, 105
1, 146780, Note_on_c, 0, 81, 95
1, 146782, Note_on_c, 0, 93, 98
1, 146789, Note_off_c, 0, 69, 64
1, 146811, Note_off_c, 0, 81, 62
1, 146816, Note_off_c, 0, 93, 65
1, 146858, Note_on_c, 0, 72, 99
1, 146892, Note_on_c, 0, 84, 103
1, 146894, Note_on_c, 0, 96, 106
1, 146902, Note_off_c, 0, 72, 67
1, 146921, Note_off_c, 0, 84, 69
1, 146928, Note_off_c, 0, 96, 67
1, 146963, Note_on_c, 0, 70, 89
1, 147001, Note_on_c, 0, 94, 102
1, 147006, Note_on_c, 0, 82, 96
1, 147016, Note_off_c, 0, 70, 63
1, 147019, Note_on_c, 0, 69, 46
1, 147019, Note_off_c, 0, 82, 74
1, 147037, Note_on_c, 0, 92, 38
1, 147040, Note_off_c, 0, 69, 64
1, 147040, Note_off_c, 0, 94, 63
1, 147066, Note_on_c, 0, 63, 80
1, 147069, Note_off_c, 0, 92, 54
1, 147104, Note_on_c, 0, 87, 93
1, 147108, Note_on_c, 0, 75, 82
1, 147113, Note_off_c, 0, 63, 62
1, 147123, Note_off_c, 0, 87, 69
1, 147129, Note_off_c, 0, 75, 69
1, 147324, Control_c, 0, 64, 91
1, 147339, Control_c, 0, 64, 49
1, 147354, Control_c, 0, 64, 0
1, 147370, Note_on_c, 0, 27, 84
1, 147370, Note_on_c, 0, 84, 107
1, 147371, Note_on_c, 0, 96, 110
1, 147373, Note_on_c, 0, 39, 86
1, 147376, Note_on_c, 0, 91, 80
1, 147379, Note_on_c, 0, 87, 87
1, 147391, Note_on_c, 0, 93, 74
1, 147399, Note_off_c, 0, 27, 66
1, 147406, Note_off_c, 0, 39, 61
1, 147413, Control_c, 0, 64, 64
1, 147416, Note_off_c, 0, 93, 64
1, 147428, Control_c, 0, 64, 127
1, 147433, Note_off_c, 0, 91, 63
1, 147436, Note_off_c, 0, 96, 64
1, 147450, Note_off_c, 0, 87, 63
1, 147453, Note_off_c, 0, 84, 63
1, 147672, Note_on_c, 0, 82, 100
1, 147675, Note_on_c, 0, 87, 88
1, 147677, Note_on_c, 0, 94, 85
1, 147680, Note_on_c, 0, 91, 74
1, 147698, Note_off_c, 0, 94, 70
1, 147700, Note_off_c, 0, 91, 71
1, 147715, Note_off_c, 0, 87, 67
1, 147722, Note_off_c, 0, 82, 60
1, 147849, Note_on_c, 0, 67, 84
1, 147852, Note_on_c, 0, 64, 72
1, 147853, Note_on_c, 0, 61, 77
1, 147854, Note_on_c, 0, 55, 75
1, 147863, Note_on_c, 0, 58, 68
1, 147868, Note_off_c, 0, 67, 73
1, 147875, Note_off_c, 0, 64, 70
1, 147894, Note_off_c, 0, 58, 67
1, 147895, Note_off_c, 0, 61, 65
1, 147901, Note_off_c, 0, 55, 63
1, 147914, Note_on_c, 0, 75, 96
1, 147924, Note_on_c, 0, 82, 87
1, 147924, Note_on_c, 0, 87, 96
1, 147940, Note_on_c, 0, 79, 53
1, 147949, Note_off_c, 0, 75, 67
1, 147950, Note_off_c, 0, 82, 65
1, 147964, Note_off_c, 0, 79, 61
1, 147967, Note_off_c, 0, 87, 69
1, 148162, Control_c, 0, 64, 73
1, 148177, Control_c, 0, 64, 0
1, 148202, Note_on_c, 0, 85, 110
1, 148203, Note_on_c, 0, 28, 82
1, 148206, Note_on_c, 0, 40, 90
1, 148206, Note_on_c, 0, 97, 105
1, 148207, Note_on_c, 0, 92, 92
1, 148213, Note_on_c, 0, 88, 84
1, 148221, Control_c, 0, 64, 48
1, 148236, Control_c, 0, 64, 75
1, 148238, Note_off_c, 0, 28, 66
1, 148238, Note_off_c, 0, 88, 63
1, 148251, Control_c, 0, 64, 127
1, 148257, Note_off_c, 0, 40, 64
1, 148262, Note_off_c, 0, 92, 63
1, 148268, Note_off_c, 0, 97, 68
1, 148291, Poly_aftertouch_c, 0, 94, 127
1, 148298, Note_off_c, 0, 85, 59
1, 148321, Poly_aftertouch_c, 0, 94, 0
1, 148450, Note_on_c, 0, 83, 104
1, 148450, Note_on_c, 0, 92, 85
1, 148454, Note_on_c, 0, 95, 91
1, 148457, Note_on_c, 0, 88, 69
1, 148473, Note_off_c, 0, 92, 70
1, 148479, Note_off_c, 0, 88, 70
1, 148486, Note_off_c, 0, 95, 63
1, 148494, Note_off_c, 0, 83, 65
1, 148634, Note_on_c, 0, 68, 96
1, 148636, Note_on_c, 0, 65, 76
1, 148642, Note_on_c, 0, 56, 68
1, 148642, Note_on_c, 0, 62, 73
1, 148649, Note_on_c, 0, 59, 58
1, 148682, Note_off_c, 0, 68, 67
1, 148688, Note_off_c, 0, 65, 66
1, 148694, Note_on_c, 0, 76, 102
1, 148697, Note_on_c, 0, 83, 76
1, 148699, Note_off_c, 0, 62, 64
1, 148700, Note_on_c, 0, 88, 94
1, 148703, Note_on_c, 0, 80, 89
1, 148706, Note_off_c, 0, 59, 61
1, 148710, Note_off_c, 0, 56, 62
1, 148727, Note_off_c, 0, 76, 70
1, 148730, Note_off_c, 0, 83, 68
1, 148742, Note_off_c, 0, 80, 62
1, 148754, Note_off_c, 0, 88, 66
1, 148894, Note_on_c, 0, 90, 20
1, 148926, Control_c, 0, 64, 121
1, 148935, Note_off_c, 0, 90, 52
1, 148941, Control_c, 0, 64, 65
1, 148956, Control_c, 0, 64, 0
1, 148975, Note_on_c, 0, 86, 109
1, 148977, Note_on_c, 0, 98, 103
1, 148978, Poly_aftertouch_c, 0, 94, 0
1, 148979, Note_on_c, 0, 29, 89
1, 148980, Note_on_c, 0, 41, 98
1, 148981, Note_on_c, 0, 89, 84
1, 148983, Note_on_c, 0, 93, 93
1, 149001, Control_c, 0, 64, 46
1, 149015, Control_c, 0, 64, 79
1, 149021, Note_off_c, 0, 29, 63
1, 149023, Note_on_c, 0, 95, 28
1, 149030, Control_c, 0, 64, 127
1, 149031, Note_off_c, 0, 41, 64
1, 149043, Note_off_c, 0, 98, 66
1, 149054, Note_off_c, 0, 86, 61
1, 149061, Note_off_c, 0, 95, 51
1, 149074, Note_off_c, 0, 93, 54
1, 149075, Note_off_c, 0, 89, 62
1, 149202, Note_on_c, 0, 84, 104
1, 149207, Note_on_c, 0, 96, 88
1, 149211, Note_on_c, 0, 89, 84
1, 149211, Note_on_c, 0, 93, 70
1, 149234, Note_off_c, 0, 93, 68
1, 149240, Note_off_c, 0, 89, 63
1, 149246, Note_off_c, 0, 96, 63
1, 149252, Note_off_c, 0, 84, 69
1, 149362, Note_on_c, 0, 66, 85
1, 149366, Note_on_c, 0, 69, 90
1, 149368, Note_on_c, 0, 63, 81
1, 149371, Note_on_c, 0, 57, 72
1, 149379, Note_on_c, 0, 60, 67
1, 149390, Note_off_c, 0, 69, 65
1, 149412, Note_off_c, 0, 66, 65
1, 149417, Note_off_c, 0, 60, 68
1, 149418, Note_off_c, 0, 57, 63
1, 149419, Note_off_c, 0, 63, 66
1, 149433, Note_on_c, 0, 77, 100
1, 149439, Note_on_c, 0, 84, 81
1, 149442, Note_on_c, 0, 81, 86
1, 149444, Note_on_c, 0, 89, 92
1, 149462, Note_off_c, 0, 81, 69
1, 149465, Note_on_c, 0, 86, 67
1, 149468, Note_off_c, 0, 77, 67
1, 149470, Note_off_c, 0, 84, 66
1, 149482, Note_off_c, 0, 86, 64
1, 149493, Note_off_c, 0, 89, 66
1, 149687, Poly_aftertouch_c, 0, 87, 0
1, 149689, Control_c, 0, 64, 87
1, 149704, Control_c, 0, 64, 47
1, 149716, Note_on_c, 0, 87, 104
1, 149717, Note_on_c, 0, 42, 104
1, 149718, Note_on_c, 0, 30, 86
1, 149719, Control_c, 0, 64, 0
1, 149721, Note_on_c, 0, 99, 102
1, 149726, Note_on_c, 0, 94, 97
1, 149728, Note_on_c, 0, 90, 85
1, 149763, Note_off_c, 0, 30, 63
1, 149763, Control_c, 0, 64, 64
1, 149778, Control_c, 0, 64, 112
1, 149781, Note_off_c, 0, 42, 64
1, 149793, Control_c, 0, 64, 127
1, 149795, Note_off_c, 0, 99, 64
1, 149798, Note_off_c, 0, 87, 60
1, 149828, Note_off_c, 0, 94, 62
1, 149957, Note_off_c, 0, 90, 0
1, 149962, Note_on_c, 0, 85, 105
1, 149966, Note_on_c, 0, 90, 77
1, 149969, Note_on_c, 0, 94, 92
1, 149969, Note_on_c, 0, 97, 98
1, 150003, Note_off_c, 0, 94, 69
1, 150009, Note_off_c, 0, 90, 66
1, 150011, Note_off_c, 0, 85, 68
1, 150012, Note_off_c, 0, 97, 64
1, 150020, Note_on_c, 0, 98, 22
1, 150020, Note_off_c, 0, 98, 127
1, 150202, Note_on_c, 0, 70, 100
1, 150204, Note_on_c, 0, 58, 76
1, 150205, Note_on_c, 0, 67, 77
1, 150206, Note_on_c, 0, 61, 73
1, 150210, Note_on_c, 0, 64, 73
1, 150233, Note_off_c, 0, 58, 67
1, 150240, Note_off_c, 0, 70, 70
1, 150246, Note_on_c, 0, 78, 105
1, 150250, Note_on_c, 0, 85, 94
1, 150250, Note_on_c, 0, 90, 98
1, 150255, Note_on_c, 0, 82, 90
1, 150255, Note_off_c, 0, 61, 64
1, 150274, Note_off_c, 0, 64, 52
1, 150287, Note_off_c, 0, 67, 56
1, 150295, Note_off_c, 0, 90, 67
1, 150311, Note_off_c, 0, 85, 68
1, 150312, Note_off_c, 0, 78, 63
1, 150313, Note_off_c, 0, 82, 64
1, 150964, Control_c, 0, 64, 96
1, 150965, Note_on_c, 0, 21, 102
1, 150979, Control_c, 0, 64, 57
1, 150993, Control_c, 0, 64, 0
1, 151053, Control_c, 0, 64, 62
1, 151068, Control_c, 0, 64, 84
1, 151083, Control_c, 0, 64, 127
1, 151135, Note_off_c, 0, 21, 65
1, 151746, Note_on_c, 0, 104, 105
1, 151779, Note_on_c, 0, 105, 67
1, 151783, Note_on_c, 0, 103, 76
1, 151801, Note_off_c, 0, 105, 66
1, 151815, Note_on_c, 0, 101, 67
1, 151821, Note_on_c, 0, 102, 62
1, 151844, Note_off_c, 0, 104, 66
1, 151849, Note_off_c, 0, 103, 67
1, 151860, Note_on_c, 0, 100, 72
1, 151887, Note_off_c, 0, 101, 66
1, 151889, Note_on_c, 0, 99, 86
1, 151893, Note_on_c, 0, 98, 80
1, 151901, Note_off_c, 0, 102, 65
1, 151913, Note_off_c, 0, 100, 71
1, 151918, Note_on_c, 0, 97, 76
1, 151922, Note_on_c, 0, 96, 76
1, 151934, Note_off_c, 0, 98, 60
1, 151934, Note_off_c, 0, 99, 65
1, 151943, Note_on_c, 0, 95, 79
1, 151943, Note_off_c, 0, 96, 70
1, 151946, Note_on_c, 0, 94, 89
1, 151956, Note_off_c, 0, 97, 64
1, 151959, Note_off_c, 0, 95, 68
1, 151961, Note_on_c, 0, 93, 82
1, 151966, Note_on_c, 0, 92, 87
1, 151976, Note_off_c, 0, 93, 71
1, 151979, Note_on_c, 0, 91, 81
1, 151982, Note_off_c, 0, 94, 67
1, 151984, Note_on_c, 0, 90, 86
1, 151990, Note_off_c, 0, 92, 69
1, 151993, Note_off_c, 0, 91, 71
1, 151996, Note_on_c, 0, 89, 79
1, 152005, Note_on_c, 0, 87, 92
1, 152005, Note_off_c, 0, 90, 66
1, 152010, Note_on_c, 0, 88, 78
1, 152010, Note_off_c, 0, 89, 70
1, 152021, Note_on_c, 0, 85, 89
1, 152022, Note_on_c, 0, 86, 84
1, 152025, Note_off_c, 0, 88, 71
1, 152036, Note_off_c, 0, 86, 71
1, 152039, Note_on_c, 0, 84, 80
1, 152039, Note_off_c, 0, 87, 66
1, 152044, Note_on_c, 0, 82, 91
1, 152046, Note_off_c, 0, 85, 65
1, 152053, Note_off_c, 0, 84, 69
1, 152055, Note_on_c, 0, 83, 72
1, 152057, Note_on_c, 0, 80, 90
1, 152068, Note_on_c, 0, 81, 71
1, 152070, Note_off_c, 0, 83, 68
1, 152074, Note_on_c, 0, 78, 90
1, 152079, Note_off_c, 0, 82, 59
1, 152084, Note_on_c, 0, 79, 74
1, 152084, Note_off_c, 0, 81, 67
1, 152092, Note_off_c, 0, 78, 73
1, 152093, Note_off_c, 0, 80, 58
1, 152095, Note_on_c, 0, 75, 83
1, 152100, Note_on_c, 0, 77, 61
1, 152101, Note_off_c, 0, 79, 68
1, 152110, Note_on_c, 0, 73, 93
1, 152113, Note_on_c, 0, 76, 63
1, 152117, Note_off_c, 0, 75, 66
1, 152119, Note_off_c, 0, 77, 65
1, 152127, Note_off_c, 0, 73, 73
1, 152130, Note_on_c, 0, 74, 58
1, 152131, Note_off_c, 0, 76, 67
1, 152131, Note_on_c, 0, 70, 85
1, 152146, Note_on_c, 0, 68, 91
1, 152148, Note_on_c, 0, 72, 46
1, 152149, Note_off_c, 0, 74, 63
1, 152152, Note_off_c, 0, 70, 67
1, 152158, Note_on_c, 0, 71, 51
1, 152162, Note_on_c, 0, 66, 85
1, 152170, Note_off_c, 0, 72, 59
1, 152174, Note_off_c, 0, 68, 54
1, 152175, Note_on_c, 0, 69, 44
1, 152181, Note_off_c, 0, 66, 71
1, 152182, Note_on_c, 0, 63, 87
1, 152182, Note_off_c, 0, 71, 61
1, 152191, Note_on_c, 0, 67, 38
1, 152197, Note_on_c, 0, 65, 47
1, 152199, Note_on_c, 0, 61, 89
1, 152201, Note_off_c, 0, 69, 58
1, 152202, Note_on_c, 0, 64, 48
1, 152202, Note_off_c, 0, 63, 69
1, 152211, Note_on_c, 0, 62, 57
1, 152217, Note_off_c, 0, 61, 72
1, 152222, Note_on_c, 0, 58, 78
1, 152222, Note_off_c, 0, 67, 54
1, 152223, Note_off_c, 0, 65, 60
1, 152223, Note_on_c, 0, 60, 53
1, 152224, Note_off_c, 0, 64, 61
1, 152233, Note_on_c, 0, 59, 50
1, 152233, Note_off_c, 0, 62, 63
1, 152235, Note_on_c, 0, 56, 89
1, 152245, Note_off_c, 0, 58, 70
1, 152247, Note_on_c, 0, 57, 54
1, 152247, Note_off_c, 0, 60, 62
1, 152250, Note_on_c, 0, 54, 92
1, 152254, Note_on_c, 0, 55, 53
1, 152255, Note_off_c, 0, 56, 71
1, 152256, Note_off_c, 0, 59, 62
1, 152266, Note_on_c, 0, 53, 54
1, 152268, Note_off_c, 0, 54, 73
1, 152274, Note_on_c, 0, 51, 89
1, 152274, Note_off_c, 0, 57, 60
1, 152275, Note_on_c, 0, 52, 62
1, 152277, Note_off_c, 0, 55, 62
1, 152285, Note_on_c, 0, 50, 61
1, 152289, Note_off_c, 0, 53, 61
1, 152290, Note_on_c, 0, 49, 89
1, 152295, Note_off_c, 0, 51, 70
1, 152299, Note_off_c, 0, 52, 60
1, 152301, Note_on_c, 0, 48, 59
1, 152308, Note_off_c, 0, 50, 62
1, 152311, Note_off_c, 0, 49, 70
1, 152314, Note_on_c, 0, 46, 83
1, 152315, Note_on_c, 0, 47, 52
1, 152327, Note_off_c, 0, 48, 60
1, 152333, Note_on_c, 0, 44, 83
1, 152335, Note_on_c, 0, 45, 43
1, 152337, Note_off_c, 0, 46, 67
1, 152339, Note_off_c, 0, 47, 61
1, 152355, Note_on_c, 0, 42, 69
1, 152358, Note_off_c, 0, 44, 66
1, 152360, Note_on_c, 0, 43, 26
1, 152361, Note_off_c, 0, 45, 58
1, 152381, Note_off_c, 0, 42, 66
1, 152400, Note_off_c, 0, 43, 43
1, 152922, Control_c, 0, 64, 115
1, 152937, Control_c, 0, 64, 105
1, 152952, Control_c, 0, 64, 101
1, 152967, Control_c, 0, 64, 97
1, 152981, Control_c, 0, 64, 95
1, 152996, Control_c, 0, 64, 94
1, 153011, Control_c, 0, 64, 93
1, 153025, Control_c, 0, 64, 92
1, 153040, Control_c, 0, 64, 91
1, 153055, Control_c, 0, 64, 91
1, 153070, Control_c, 0, 64, 90
1, 153100, Control_c, 0, 64, 90
1, 153115, Control_c, 0, 64, 89
1, 153167, Control_c, 0, 64, 89
1, 153255, Control_c, 0, 64, 88
1, 153314, Control_c, 0, 64, 88
1, 153344, Control_c, 0, 64, 87
1, 153374, Control_c, 0, 64, 87
1, 153389, Control_c, 0, 64, 86
1, 153404, Control_c, 0, 64, 85
1, 153419, Control_c, 0, 64, 84
1, 153433, Control_c, 0, 64, 84
1, 153448, Control_c, 0, 64, 83
1, 153463, Control_c, 0, 64, 82
1, 153478, Control_c, 0, 64, 81
1, 153493, Control_c, 0, 64, 81
1, 153507, Control_c, 0, 64, 80
1, 153522, Control_c, 0, 64, 79
1, 153537, Control_c, 0, 64, 79
1, 153552, Control_c, 0, 64, 78
1, 153567, Control_c, 0, 64, 78
1, 153581, Control_c, 0, 64, 77
1, 153596, Control_c, 0, 64, 77
1, 153626, Control_c, 0, 64, 76
1, 153640, Control_c, 0, 64, 76
1, 153670, Control_c, 0, 64, 75
1, 153701, Control_c, 0, 64, 75
1, 153716, Control_c, 0, 64, 74
1, 153745, Control_c, 0, 64, 74
1, 153760, Control_c, 0, 64, 73
1, 153790, Control_c, 0, 64, 73
1, 153804, Control_c, 0, 64, 72
1, 153819, Control_c, 0, 64, 72
1, 153848, Control_c, 0, 64, 71
1, 153863, Control_c, 0, 64, 71
1, 153893, Control_c, 0, 64, 70
1, 153916, Control_c, 0, 64, 70
1, 153930, Control_c, 0, 64, 69
1, 153960, Control_c, 0, 64, 69
1, 153989, Control_c, 0, 64, 68
1, 154004, Control_c, 0, 64, 68
1, 154034, Control_c, 0, 64, 67
1, 154078, Control_c, 0, 64, 67
1, 154123, Control_c, 0, 64, 66
1, 154152, Control_c, 0, 64, 66
1, 154197, Control_c, 0, 64, 65
1, 154227, Control_c, 0, 64, 65
1, 154241, Control_c, 0, 64, 64
1, 154256, Control_c, 0, 64, 64
1, 154271, Control_c, 0, 64, 63
1, 154301, Control_c, 0, 64, 63
1, 154330, Control_c, 0, 64, 62
1, 154360, Control_c, 0, 64, 62
1, 154389, Control_c, 0, 64, 61
1, 154479, Control_c, 0, 64, 61
1, 154509, Control_c, 0, 64, 60
1, 154539, Control_c, 0, 64, 60
1, 154553, Control_c, 0, 64, 59
1, 154583, Control_c, 0, 64, 58
1, 154598, Control_c, 0, 64, 57
1, 154612, Control_c, 0, 64, 56
1, 154627, Control_c, 0, 64, 55
1, 154642, Control_c, 0, 64, 55
1, 154665, Control_c, 0, 64, 54
1, 154679, Control_c, 0, 64, 53
1, 154694, Control_c, 0, 64, 51
1, 154709, Control_c, 0, 64, 50
1, 154724, Control_c, 0, 64, 49
1, 154739, Control_c, 0, 64, 47
1, 154754, Control_c, 0, 64, 45
1, 154768, Control_c, 0, 64, 42
1, 154783, Control_c, 0, 64, 40
1, 154798, Control_c, 0, 64, 38
1, 154812, Control_c, 0, 64, 35
1, 154827, Control_c, 0, 64, 31
1, 154842, Control_c, 0, 64, 0
1, 155117, Note_on_c, 0, 53, 54
1, 155168, Control_c, 0, 64, 45
1, 155170, Note_on_c, 0, 55, 65
1, 155172, Note_off_c, 0, 53, 61
1, 155183, Control_c, 0, 64, 60
1, 155197, Control_c, 0, 64, 68
1, 155212, Control_c, 0, 64, 73
1, 155214, Note_off_c, 0, 55, 62
1, 155215, Note_on_c, 0, 57, 69
1, 155227, Control_c, 0, 64, 78
1, 155242, Control_c, 0, 64, 84
1, 155244, Note_off_c, 0, 57, 68
1, 155247, Note_on_c, 0, 58, 69
1, 155257, Control_c, 0, 64, 91
1, 155273, Control_c, 0, 64, 101
1, 155288, Control_c, 0, 64, 113
1, 155302, Control_c, 0, 64, 127
1, 155309, Note_on_c, 0, 56, 71
1, 155321, Note_off_c, 0, 58, 61
1, 155350, Note_on_c, 0, 54, 69
1, 155372, Note_off_c, 0, 56, 57
1, 155415, Note_on_c, 0, 50, 64
1, 155417, Note_off_c, 0, 54, 63
1, 155443, Control_c, 0, 67, 19
1, 155449, Note_off_c, 0, 50, 64
1, 155473, Control_c, 0, 64, 107
1, 155473, Control_c, 0, 67, 23
1, 155487, Control_c, 0, 64, 96
1, 155502, Control_c, 0, 64, 88
1, 155517, Control_c, 0, 64, 82
1, 155532, Control_c, 0, 64, 77
1, 155532, Control_c, 0, 67, 25
1, 155546, Control_c, 0, 64, 73
1, 155561, Control_c, 0, 64, 69
1, 155576, Control_c, 0, 64, 66
1, 155590, Control_c, 0, 64, 62
1, 155605, Control_c, 0, 64, 60
1, 155605, Control_c, 0, 67, 27
1, 155620, Control_c, 0, 64, 59
1, 155634, Control_c, 0, 64, 58
1, 155649, Control_c, 0, 64, 57
1, 155664, Control_c, 0, 64, 56
1, 155679, Control_c, 0, 64, 54
1, 155694, Control_c, 0, 64, 51
1, 155708, Control_c, 0, 64, 48
1, 155723, Control_c, 0, 64, 45
1, 155738, Control_c, 0, 64, 42
1, 155753, Control_c, 0, 64, 39
1, 155768, Control_c, 0, 64, 37
1, 155783, Control_c, 0, 64, 35
1, 155797, Control_c, 0, 64, 33
1, 155812, Control_c, 0, 64, 32
1, 155827, Control_c, 0, 64, 32
1, 155842, Control_c, 0, 67, 29
1, 155901, Control_c, 0, 64, 30
1, 155916, Control_c, 0, 64, 0
1, 155945, Control_c, 0, 67, 31
1, 155960, Control_c, 0, 67, 35
1, 155975, Control_c, 0, 67, 40
1, 155990, Control_c, 0, 67, 44
1, 156005, Control_c, 0, 67, 48
1, 156019, Control_c, 0, 67, 50
1, 156034, Control_c, 0, 67, 52
1, 156049, Control_c, 0, 67, 53
1, 156064, Control_c, 0, 67, 54
1, 156472, Control_c, 0, 67, 55
1, 156487, Control_c, 0, 67, 55
1, 156502, Control_c, 0, 67, 56
1, 156517, Control_c, 0, 67, 56
1, 156531, Control_c, 0, 67, 57
1, 156546, Control_c, 0, 67, 64
1, 156561, Control_c, 0, 67, 75
1, 156575, Control_c, 0, 64, 30
1, 156575, Control_c, 0, 67, 85
1, 156587, Note_on_c, 0, 53, 31
1, 156590, Control_c, 0, 64, 39
1, 156590, Control_c, 0, 67, 96
1, 156605, Control_c, 0, 64, 48
1, 156605, Control_c, 0, 67, 107
1, 156620, Control_c, 0, 64, 57
1, 156620, Control_c, 0, 67, 116
1, 156631, Note_on_c, 0, 55, 42
1, 156635, Control_c, 0, 64, 63
1, 156635, Control_c, 0, 67, 124
1, 156649, Note_off_c, 0, 53, 51
1, 156650, Control_c, 0, 64, 67
1, 156650, Control_c, 0, 67, 127
1, 156665, Control_c, 0, 64, 70
1, 156680, Note_on_c, 0, 57, 54
1, 156680, Control_c, 0, 64, 75
1, 156695, Control_c, 0, 64, 79
1, 156706, Note_off_c, 0, 55, 57
1, 156710, Control_c, 0, 64, 81
1, 156724, Control_c, 0, 64, 83
1, 156725, Note_off_c, 0, 57, 62
1, 156731, Note_on_c, 0, 58, 47
1, 156739, Control_c, 0, 64, 84
1, 156754, Control_c, 0, 64, 84
1, 156768, Control_c, 0, 64, 85
1, 156771, Note_off_c, 0, 58, 63
1, 156787, Note_on_c, 0, 56, 56
1, 156813, Control_c, 0, 64, 84
1, 156836, Note_off_c, 0, 56, 54
1, 156838, Note_on_c, 0, 54, 49
1, 156842, Control_c, 0, 64, 84
1, 156857, Control_c, 0, 64, 83
1, 156873, Control_c, 0, 64, 82
1, 156876, Note_off_c, 0, 54, 63
1, 156888, Control_c, 0, 64, 80
1, 156906, Note_on_c, 0, 50, 46
1, 156910, Control_c, 0, 64, 79
1, 156925, Control_c, 0, 64, 78
1, 156940, Control_c, 0, 64, 77
1, 156943, Note_off_c, 0, 50, 63
1, 156954, Control_c, 0, 64, 74
1, 156969, Control_c, 0, 64, 72
1, 156984, Control_c, 0, 64, 69
1, 156999, Control_c, 0, 64, 66
1, 157014, Control_c, 0, 64, 63
1, 157029, Control_c, 0, 64, 59
1, 157043, Control_c, 0, 64, 55
1, 157058, Control_c, 0, 64, 52
1, 157073, Control_c, 0, 64, 50
1, 157088, Control_c, 0, 64, 48
1, 157103, Control_c, 0, 64, 45
1, 157118, Control_c, 0, 64, 40
1, 157133, Control_c, 0, 64, 35
1, 157147, Control_c, 0, 64, 31
1, 157162, Control_c, 0, 64, 0
1, 157970, Control_c, 0, 64, 32
1, 157985, Control_c, 0, 64, 39
1, 158000, Control_c, 0, 64, 46
1, 158015, Control_c, 0, 64, 56
1, 158029, Control_c, 0, 64, 63
1, 158036, Note_on_c, 0, 41, 3
1, 158044, Control_c, 0, 64, 66
1, 158059, Control_c, 0, 64, 68
1, 158065, Note_on_c, 0, 43, 30
1, 158074, Control_c, 0, 64, 71
1, 158089, Control_c, 0, 64, 76
1, 158099, Note_off_c, 0, 41, 40
1, 158103, Control_c, 0, 64, 80
1, 158118, Control_c, 0, 64, 83
1, 158121, Note_on_c, 0, 45, 46
1, 158133, Control_c, 0, 64, 85
1, 158147, Control_c, 0, 64, 86
1, 158162, Control_c, 0, 64, 88
1, 158175, Note_off_c, 0, 43, 50
1, 158177, Control_c, 0, 64, 89
1, 158192, Control_c, 0, 64, 89
1, 158199, Note_off_c, 0, 45, 62
1, 158207, Control_c, 0, 64, 90
1, 158248, Note_on_c, 0, 46, 22
1, 158283, Note_on_c, 0, 44, 44
1, 158290, Note_off_c, 0, 46, 56
1, 158295, Control_c, 0, 64, 89
1, 158310, Control_c, 0, 64, 89
1, 158319, Note_on_c, 0, 42, 50
1, 158325, Control_c, 0, 64, 88
1, 158328, Note_off_c, 0, 44, 47
1, 158340, Control_c, 0, 64, 86
1, 158355, Control_c, 0, 64, 85
1, 158360, Note_off_c, 0, 42, 61
1, 158370, Control_c, 0, 64, 83
1, 158385, Control_c, 0, 64, 81
1, 158397, Note_on_c, 0, 38, 49
1, 158407, Control_c, 0, 64, 78
1, 158422, Control_c, 0, 64, 75
1, 158436, Control_c, 0, 64, 72
1, 158439, Note_off_c, 0, 38, 63
1, 158451, Control_c, 0, 64, 67
1, 158466, Control_c, 0, 64, 62
1, 158482, Control_c, 0, 64, 55
1, 158497, Control_c, 0, 64, 50
1, 158512, Control_c, 0, 64, 48
1, 158542, Control_c, 0, 64, 47
1, 158557, Control_c, 0, 64, 46
1, 158571, Control_c, 0, 64, 43
1, 158586, Control_c, 0, 64, 40
1, 158601, Control_c, 0, 64, 38
1, 158616, Control_c, 0, 64, 38
1, 158631, Control_c, 0, 64, 37
1, 158645, Control_c, 0, 64, 37
1, 158660, Control_c, 0, 64, 36
1, 158675, Control_c, 0, 64, 36
1, 158690, Control_c, 0, 64, 35
1, 158734, Control_c, 0, 64, 34
1, 159045, Control_c, 0, 64, 35
1, 159119, Control_c, 0, 64, 35
1, 159246, Control_c, 0, 64, 36
1, 159321, Control_c, 0, 64, 36
1, 159395, Control_c, 0, 64, 37
1, 159439, Control_c, 0, 64, 37
1, 159468, Control_c, 0, 64, 38
1, 159528, Control_c, 0, 64, 38
1, 159557, Control_c, 0, 64, 39
1, 159657, Note_on_c, 0, 35, 48
1, 159694, Note_off_c, 0, 35, 63
1, 159720, Control_c, 0, 64, 38
1, 159794, Control_c, 0, 64, 38
1, 159922, Note_on_c, 0, 34, 47
1, 159959, Note_off_c, 0, 34, 64
1, 160203, Note_on_c, 0, 33, 33
1, 160245, Note_off_c, 0, 33, 52
1, 160670, Note_on_c, 0, 32, 30
1, 160715, Note_off_c, 0, 32, 57
1, 160728, Control_c, 0, 64, 38
1, 160740, Note_on_c, 0, 25, 33
1, 160742, Control_c, 0, 64, 39
1, 160757, Control_c, 0, 64, 42
1, 160772, Control_c, 0, 64, 46
1, 160787, Control_c, 0, 64, 51
1, 160802, Control_c, 0, 64, 58
1, 160816, Control_c, 0, 64, 61
1, 160831, Control_c, 0, 64, 64
1, 160846, Control_c, 0, 64, 66
1, 160861, Control_c, 0, 64, 69
1, 160877, Control_c, 0, 64, 74
1, 160892, Control_c, 0, 64, 78
1, 160907, Control_c, 0, 64, 81
1, 160921, Control_c, 0, 64, 84
1, 160936, Control_c, 0, 64, 88
1, 160951, Control_c, 0, 64, 92
1, 160966, Control_c, 0, 64, 96
1, 160980, Control_c, 0, 64, 102
1, 160995, Control_c, 0, 64, 106
1, 161010, Control_c, 0, 64, 111
1, 161025, Control_c, 0, 64, 117
1, 161035, Note_off_c, 0, 25, 40
1, 161040, Control_c, 0, 64, 127
1, 161086, Poly_aftertouch_c, 0, 32, 127
1, 161142, Poly_aftertouch_c, 0, 32, 0
1, 161206, Note_on_c, 0, 25, 22
1, 161276, Note_off_c, 0, 25, 40
1, 161321, Note_on_c, 0, 32, 9
1, 161420, Note_off_c, 0, 32, 37
1, 161462, Note_on_c, 0, 25, 21
1, 161535, Note_off_c, 0, 25, 42
1, 161557, Note_on_c, 0, 32, 15
1, 161670, Note_on_c, 0, 25, 26
1, 161727, Note_off_c, 0, 32, 0
1, 161754, Note_off_c, 0, 25, 38
1, 161765, Poly_aftertouch_c, 0, 32, 127
1, 161841, Note_on_c, 0, 25, 23
1, 161848, Poly_aftertouch_c, 0, 32, 0
1, 161959, Note_on_c, 0, 32, 6
1, 161962, Note_off_c, 0, 25, 32
1, 162039, Note_off_c, 0, 32, 38
1, 162045, Note_on_c, 0, 25, 5
1, 162117, Note_off_c, 0, 25, 43
1, 162147, Note_on_c, 0, 32, 17
1, 162167, Control_c, 0, 64, 122
1, 162182, Control_c, 0, 64, 119
1, 162218, Note_off_c, 0, 32, 41
1, 162226, Control_c, 0, 64, 117
1, 162253, Note_on_c, 0, 25, 37
1, 162308, Note_off_c, 0, 25, 45
1, 162329, Control_c, 0, 64, 114
1, 162354, Note_on_c, 0, 32, 12
1, 162407, Note_off_c, 0, 32, 47
1, 162439, Note_on_c, 0, 25, 35
1, 162448, Control_c, 0, 64, 112
1, 162488, Note_off_c, 0, 25, 48
1, 162493, Control_c, 0, 64, 110
1, 162574, Poly_aftertouch_c, 0, 32, 127
1, 162630, Note_on_c, 0, 25, 30
1, 162677, Note_off_c, 0, 25, 49
1, 162680, Poly_aftertouch_c, 0, 32, 0
1, 162716, Poly_aftertouch_c, 0, 32, 127
1, 162775, Poly_aftertouch_c, 0, 32, 0
1, 162806, Note_on_c, 0, 25, 25
1, 162819, Control_c, 0, 64, 112
1, 162847, Note_off_c, 0, 25, 52
1, 162863, Control_c, 0, 64, 115
1, 162910, Poly_aftertouch_c, 0, 32, 127
1, 162916, Control_c, 0, 64, 118
1, 162945, Control_c, 0, 64, 122
1, 162952, Poly_aftertouch_c, 0, 32, 0
1, 162960, Control_c, 0, 64, 126
1, 162980, Note_on_c, 0, 25, 24
1, 163027, Note_off_c, 0, 25, 52
1, 163097, Poly_aftertouch_c, 0, 32, 127
1, 163142, Note_on_c, 0, 25, 5
1, 163193, Note_on_c, 0, 35, 57
1, 163195, Note_off_c, 0, 25, 50
1, 163210, Poly_aftertouch_c, 0, 32, 0
1, 163238, Note_off_c, 0, 35, 58
1, 163246, Note_on_c, 0, 34, 50
1, 163282, Note_off_c, 0, 34, 63
1, 163313, Note_on_c, 0, 33, 53
1, 163346, Control_c, 0, 64, 122
1, 163360, Control_c, 0, 64, 101
1, 163371, Note_on_c, 0, 32, 50
1, 163372, Note_off_c, 0, 33, 56
1, 163375, Control_c, 0, 64, 88
1, 163390, Control_c, 0, 64, 75
1, 163405, Control_c, 0, 64, 62
1, 163420, Control_c, 0, 64, 43
1, 163435, Control_c, 0, 64, 0
1, 163475, Note_off_c, 0, 32, 53
1, 163539, Control_c, 0, 64, 33
1, 163554, Control_c, 0, 64, 43
1, 163568, Control_c, 0, 64, 55
1, 163583, Control_c, 0, 64, 61
1, 163598, Control_c, 0, 64, 63
1, 163613, Control_c, 0, 64, 64
1, 163628, Control_c, 0, 64, 65
1, 163649, Control_c, 0, 64, 66
1, 163664, Control_c, 0, 64, 69
1, 163679, Control_c, 0, 64, 71
1, 163680, Poly_aftertouch_c, 0, 32, 127
1, 163694, Control_c, 0, 64, 74
1, 163709, Control_c, 0, 64, 78
1, 163721, Poly_aftertouch_c, 0, 32, 0
1, 163724, Control_c, 0, 64, 82
1, 163739, Control_c, 0, 64, 86
1, 163742, Poly_aftertouch_c, 0, 25, 127
1, 163753, Control_c, 0, 64, 90
1, 163768, Control_c, 0, 64, 96
1, 163783, Control_c, 0, 64, 100
1, 163798, Control_c, 0, 64, 103
1, 163813, Control_c, 0, 64, 107
1, 163828, Control_c, 0, 64, 112
1, 163832, Poly_aftertouch_c, 0, 25, 0
1, 163843, Control_c, 0, 64, 119
1, 163858, Control_c, 0, 64, 127
1, 163873, Note_on_c, 0, 32, 23
1, 163918, Note_off_c, 0, 32, 50
1, 163938, Note_on_c, 0, 25, 33
1, 164015, Note_off_c, 0, 25, 40
1, 164022, Note_on_c, 0, 32, 32
1, 164083, Note_off_c, 0, 32, 42
1, 164091, Note_on_c, 0, 25, 26
1, 164189, Note_on_c, 0, 32, 14
1, 164231, Note_off_c, 0, 25, 0
1, 164251, Note_off_c, 0, 32, 40
1, 164256, Note_on_c, 0, 25, 17
1, 164362, Note_on_c, 0, 32, 12
1, 164406, Note_off_c, 0, 25, 0
1, 164444, Poly_aftertouch_c, 0, 25, 127
1, 164472, Note_off_c, 0, 32, 31
1, 164563, Poly_aftertouch_c, 0, 32, 127
1, 164707, Poly_aftertouch_c, 0, 32, 0
1, 164743, Poly_aftertouch_c, 0, 32, 127
1, 164747, Note_on_c, 0, 32, 3
1, 164774, Poly_aftertouch_c, 0, 25, 0
1, 164804, Note_on_c, 0, 25, 9
1, 164826, Note_off_c, 0, 32, 37
1, 164923, Note_on_c, 0, 32, 4
1, 164956, Note_off_c, 0, 25, 0
1, 164994, Poly_aftertouch_c, 0, 25, 127
1, 165075, Note_off_c, 0, 32, 0
1, 165113, Note_on_c, 0, 32, 3
1, 165160, Poly_aftertouch_c, 0, 25, 0
1, 165179, Note_on_c, 0, 25, 27
1, 165179, Note_off_c, 0, 32, 42
1, 165247, Note_off_c, 0, 25, 48
1, 165323, Poly_aftertouch_c, 0, 32, 127
1, 165351, Note_on_c, 0, 25, 22
1, 165375, Poly_aftertouch_c, 0, 32, 0
1, 165416, Note_off_c, 0, 25, 44
1, 165471, Poly_aftertouch_c, 0, 32, 127
1, 165475, Note_on_c, 0, 32, 3
1, 165524, Note_off_c, 0, 32, 45
1, 165536, Note_on_c, 0, 25, 34
1, 165613, Note_off_c, 0, 25, 43
1, 165670, Note_on_c, 0, 79, 60
1, 165687, Poly_aftertouch_c, 0, 32, 127
1, 165705, Note_off_c, 0, 79, 64
1, 165918, Poly_aftertouch_c, 0, 32, 0
1, 165939, Note_on_c, 0, 25, 33
1, 165964, Note_on_c, 0, 79, 60
1, 166057, Note_off_c, 0, 25, 37
1, 166096, Poly_aftertouch_c, 0, 32, 127
1, 166153, Poly_aftertouch_c, 0, 32, 0
1, 166183, Note_on_c, 0, 25, 28
1, 166247, Note_off_c, 0, 25, 50
1, 166336, Poly_aftertouch_c, 0, 32, 127
1, 166384, Poly_aftertouch_c, 0, 32, 0
1, 166406, Note_on_c, 0, 25, 26
1, 166464, Note_off_c, 0, 25, 44
1, 166526, Poly_aftertouch_c, 0, 32, 127
1, 166576, Note_on_c, 0, 25, 25
1, 166579, Poly_aftertouch_c, 0, 32, 0
1, 166648, Note_off_c, 0, 25, 43
1, 166707, Poly_aftertouch_c, 0, 32, 127
1, 166760, Poly_aftertouch_c, 0, 32, 0
1, 166768, Note_on_c, 0, 25, 11
1, 166831, Note_off_c, 0, 25, 46
1, 166857, Note_on_c, 0, 32, 18
1, 166883, Note_off_c, 0, 79, 59
1, 166915, Note_off_c, 0, 32, 44
1, 166979, Note_on_c, 0, 25, 17
1, 167030, Note_off_c, 0, 25, 47
1, 167101, Poly_aftertouch_c, 0, 32, 127
1, 167148, Poly_aftertouch_c, 0, 32, 0
1, 167174, Note_on_c, 0, 25, 32
1, 167253, Note_off_c, 0, 25, 40
1, 167313, Poly_aftertouch_c, 0, 32, 127
1, 167367, Poly_aftertouch_c, 0, 32, 0
1, 167370, Note_on_c, 0, 25, 17
1, 167495, Note_off_c, 0, 25, 35
1, 167524, Poly_aftertouch_c, 0, 32, 127
1, 167579, Note_on_c, 0, 79, 70
1, 167597, Poly_aftertouch_c, 0, 32, 0
1, 167614, Note_on_c, 0, 25, 17
1, 167679, Note_off_c, 0, 25, 44
1, 167743, Poly_aftertouch_c, 0, 32, 127
1, 167792, Poly_aftertouch_c, 0, 32, 0
1, 167842, Note_on_c, 0, 25, 19
1, 167893, Note_off_c, 0, 25, 48
1, 167977, Poly_aftertouch_c, 0, 32, 127
1, 168028, Poly_aftertouch_c, 0, 32, 0
1, 168053, Note_on_c, 0, 25, 23
1, 168093, Note_on_c, 0, 76, 68
1, 168126, Note_off_c, 0, 79, 65
1, 168156, Note_off_c, 0, 25, 39
1, 168195, Note_on_c, 0, 32, 3
1, 168241, Note_off_c, 0, 32, 44
1, 168335, Poly_aftertouch_c, 0, 25, 127
1, 168377, Poly_aftertouch_c, 0, 25, 0
1, 168422, Poly_aftertouch_c, 0, 32, 127
1, 168473, Poly_aftertouch_c, 0, 32, 0
1, 168512, Note_on_c, 0, 25, 21
1, 168571, Note_off_c, 0, 25, 46
1, 168673, Poly_aftertouch_c, 0, 32, 127
1, 168707, Poly_aftertouch_c, 0, 32, 0
1, 168720, Note_on_c, 0, 25, 27
1, 168803, Note_off_c, 0, 25, 40
1, 168803, Note_off_c, 0, 76, 62
1, 168825, Note_on_c, 0, 72, 59
1, 168869, Poly_aftertouch_c, 0, 32, 127
1, 169001, Note_off_c, 0, 72, 58
1, 169009, Note_on_c, 0, 74, 67
1, 169021, Note_on_c, 0, 60, 42
1, 169035, Note_on_c, 0, 25, 41
1, 169090, Note_off_c, 0, 25, 54
1, 169090, Poly_aftertouch_c, 0, 32, 0
1, 169127, Poly_aftertouch_c, 0, 32, 127
1, 169153, Note_off_c, 0, 60, 62
1, 169164, Note_on_c, 0, 67, 55
1, 169183, Poly_aftertouch_c, 0, 32, 0
1, 169250, Poly_aftertouch_c, 0, 25, 127
1, 169299, Poly_aftertouch_c, 0, 25, 0
1, 169356, Poly_aftertouch_c, 0, 32, 127
1, 169392, Poly_aftertouch_c, 0, 32, 0
1, 169395, Note_on_c, 0, 25, 26
1, 169459, Note_off_c, 0, 25, 49
1, 169507, Poly_aftertouch_c, 0, 32, 127
1, 169570, Poly_aftertouch_c, 0, 32, 0
1, 169597, Note_on_c, 0, 25, 26
1, 169671, Note_off_c, 0, 25, 45
1, 169720, Note_on_c, 0, 32, 8
1, 169775, Note_off_c, 0, 32, 48
1, 169820, Note_on_c, 0, 25, 14
1, 169870, Note_off_c, 0, 25, 53
1, 169942, Poly_aftertouch_c, 0, 32, 127
1, 169988, Poly_aftertouch_c, 0, 32, 0
1, 170018, Note_on_c, 0, 25, 24
1, 170073, Note_off_c, 0, 25, 46
1, 170134, Poly_aftertouch_c, 0, 32, 127
1, 170135, Note_on_c, 0, 32, 3
1, 170177, Note_off_c, 0, 67, 41
1, 170208, Note_off_c, 0, 32, 37
1, 170218, Note_on_c, 0, 60, 41
1, 170222, Note_on_c, 0, 25, 35
1, 170282, Note_off_c, 0, 25, 52
1, 170284, Note_on_c, 0, 69, 46
1, 170317, Note_on_c, 0, 32, 11
1, 170357, Note_off_c, 0, 60, 37
1, 170378, Note_off_c, 0, 32, 45
1, 170384, Note_on_c, 0, 67, 46
1, 170411, Note_on_c, 0, 25, 32
1, 170464, Note_off_c, 0, 69, 35
1, 170464, Note_off_c, 0, 25, 50
1, 170612, Note_on_c, 0, 25, 15
1, 170631, Poly_aftertouch_c, 0, 32, 0
1, 170669, Poly_aftertouch_c, 0, 32, 127
1, 170670, Note_off_c, 0, 25, 42
1, 170733, Poly_aftertouch_c, 0, 32, 0
1, 170744, Note_on_c, 0, 25, 16
1, 170827, Note_off_c, 0, 25, 40
1, 170842, Note_on_c, 0, 32, 10
1, 170911, Note_off_c, 0, 32, 40
1, 170934, Note_on_c, 0, 25, 16
1, 170994, Note_off_c, 0, 25, 45
1, 171023, Note_on_c, 0, 32, 13
1, 171089, Note_off_c, 0, 32, 40
1, 171178, Poly_aftertouch_c, 0, 25, 127
1, 171231, Note_on_c, 0, 32, 20
1, 171239, Poly_aftertouch_c, 0, 25, 0
1, 171297, Note_off_c, 0, 32, 42
1, 171337, Note_on_c, 0, 25, 4
1, 171402, Note_off_c, 0, 25, 43
1, 171454, Poly_aftertouch_c, 0, 32, 127
1, 171508, Poly_aftertouch_c, 0, 32, 0
1, 171518, Note_on_c, 0, 25, 20
1, 171573, Note_off_c, 0, 25, 45
1, 171623, Poly_aftertouch_c, 0, 32, 127
1, 171676, Poly_aftertouch_c, 0, 32, 0
1, 171705, Note_on_c, 0, 25, 10
1, 171754, Note_off_c, 0, 25, 50
1, 171823, Poly_aftertouch_c, 0, 32, 127
1, 171865, Poly_aftertouch_c, 0, 32, 0
1, 171909, Note_on_c, 0, 25, 10
1, 171957, Note_off_c, 0, 67, 38
1, 171971, Note_off_c, 0, 25, 43
1, 172002, Poly_aftertouch_c, 0, 32, 127
1, 172034, Note_off_c, 0, 74, 51
1, 172051, Poly_aftertouch_c, 0, 32, 0
1, 172065, Note_on_c, 0, 25, 7
1, 172130, Note_off_c, 0, 25, 45
1, 172152, Note_on_c, 0, 32, 14
1, 172218, Note_off_c, 0, 32, 40
1, 172259, Note_on_c, 0, 25, 21
1, 172324, Note_off_c, 0, 25, 44
1, 172336, Note_on_c, 0, 32, 26
1, 172397, Note_off_c, 0, 32, 43
1, 172447, Note_on_c, 0, 25, 10
1, 172503, Note_off_c, 0, 25, 45
1, 172520, Note_on_c, 0, 32, 10
1, 172580, Note_off_c, 0, 32, 44
1, 172605, Note_on_c, 0, 25, 24
1, 172668, Note_off_c, 0, 25, 48
1, 172700, Note_on_c, 0, 32, 12
1, 172759, Note_off_c, 0, 32, 43
1, 172811, Note_on_c, 0, 25, 25
1, 172873, Note_off_c, 0, 25, 44
1, 172897, Note_on_c, 0, 67, 50
1, 172898, Note_on_c, 0, 32, 26
1, 172952, Note_off_c, 0, 32, 44
1, 172993, Note_on_c, 0, 25, 20
1, 173057, Note_off_c, 0, 25, 44
1, 173130, Poly_aftertouch_c, 0, 32, 127
1, 173183, Poly_aftertouch_c, 0, 32, 0
1, 173185, Note_on_c, 0, 25, 23
1, 173258, Note_off_c, 0, 25, 42
1, 173294, Poly_aftertouch_c, 0, 32, 127
1, 173373, Poly_aftertouch_c, 0, 32, 0
1, 173431, Note_on_c, 0, 25, 12
1, 173512, Note_off_c, 0, 25, 40
1, 173555, Poly_aftertouch_c, 0, 32, 127
1, 173602, Poly_aftertouch_c, 0, 32, 0
1, 173614, Note_on_c, 0, 25, 21
1, 173643, Note_on_c, 0, 72, 60
1, 173731, Note_off_c, 0, 25, 36
1, 173778, Note_off_c, 0, 67, 39
1, 173783, Poly_aftertouch_c, 0, 32, 127
1, 173830, Poly_aftertouch_c, 0, 32, 0
1, 173839, Note_on_c, 0, 25, 19
1, 173908, Note_off_c, 0, 25, 43
1, 173966, Poly_aftertouch_c, 0, 32, 127
1, 174017, Poly_aftertouch_c, 0, 32, 0
1, 174032, Note_on_c, 0, 25, 26
1, 174117, Note_off_c, 0, 25, 40
1, 174190, Poly_aftertouch_c, 0, 32, 127
1, 174234, Note_on_c, 0, 25, 21
1, 174234, Poly_aftertouch_c, 0, 32, 0
1, 174321, Note_off_c, 0, 25, 40
1, 174372, Poly_aftertouch_c, 0, 32, 127
1, 174424, Poly_aftertouch_c, 0, 32, 0
1, 174458, Note_on_c, 0, 25, 22
1, 174544, Note_off_c, 0, 25, 39
1, 174605, Poly_aftertouch_c, 0, 32, 127
1, 174665, Poly_aftertouch_c, 0, 32, 0
1, 174692, Note_on_c, 0, 25, 23
1, 174882, Poly_aftertouch_c, 0, 32, 127
1, 174884, Note_on_c, 0, 32, 3
1, 174886, Note_off_c, 0, 25, 32
1, 174960, Note_on_c, 0, 25, 11
1, 174968, Note_off_c, 0, 32, 36
1, 174974, Note_on_c, 0, 74, 75
1, 175119, Note_off_c, 0, 72, 28
1, 175122, Note_off_c, 0, 25, 42
1, 175147, Poly_aftertouch_c, 0, 32, 127
1, 175200, Poly_aftertouch_c, 0, 32, 0
1, 175235, Note_on_c, 0, 25, 27
1, 175295, Note_off_c, 0, 25, 46
1, 175389, Poly_aftertouch_c, 0, 32, 127
1, 175423, Poly_aftertouch_c, 0, 32, 0
1, 175438, Note_on_c, 0, 25, 32
1, 175574, Poly_aftertouch_c, 0, 32, 127
1, 175588, Note_off_c, 0, 25, 0
1, 175632, Poly_aftertouch_c, 0, 25, 127
1, 175635, Poly_aftertouch_c, 0, 32, 0
1, 175761, Poly_aftertouch_c, 0, 25, 0
1, 175817, Poly_aftertouch_c, 0, 32, 127
1, 175847, Note_on_c, 0, 60, 37
1, 175856, Poly_aftertouch_c, 0, 32, 0
1, 175863, Note_on_c, 0, 25, 23
1, 175933, Note_off_c, 0, 25, 42
1, 176083, Note_on_c, 0, 69, 46
1, 176103, Note_on_c, 0, 25, 32
1, 176112, Note_off_c, 0, 60, 33
1, 176157, Note_off_c, 0, 25, 57
1, 176178, Note_on_c, 0, 32, 11
1, 176229, Note_off_c, 0, 32, 37
1, 176252, Note_on_c, 0, 67, 55
1, 176256, Note_off_c, 0, 74, 62
1, 176273, Note_off_c, 0, 69, 60
1, 176285, Note_off_c, 0, 67, 65
1, 176573, Note_on_c, 0, 65, 42
1, 176589, Note_on_c, 0, 61, 43
1, 176595, Note_on_c, 0, 56, 42
1, 176600, Note_off_c, 0, 65, 60
1, 176628, Note_off_c, 0, 61, 63
1, 176639, Note_on_c, 0, 76, 73
1, 176648, Note_off_c, 0, 56, 62
1, 176675, Note_on_c, 0, 70, 49
1, 176756, Note_on_c, 0, 68, 51
1, 176855, Note_off_c, 0, 68, 0
1, 176869, Note_on_c, 0, 61, 35
1, 176884, Note_off_c, 0, 70, 30
1, 176892, Poly_aftertouch_c, 0, 68, 127
1, 176956, Note_on_c, 0, 25, 34
1, 177026, Note_off_c, 0, 25, 44
1, 177081, Poly_aftertouch_c, 0, 32, 127
1, 177146, Poly_aftertouch_c, 0, 32, 0
1, 177162, Note_on_c, 0, 25, 37
1, 177174, Note_off_c, 0, 61, 38
1, 177230, Note_off_c, 0, 25, 50
1, 177317, Poly_aftertouch_c, 0, 32, 127
1, 177339, Poly_aftertouch_c, 0, 68, 0
1, 177358, Poly_aftertouch_c, 0, 32, 0
1, 177387, Note_on_c, 0, 25, 15
1, 177435, Note_off_c, 0, 25, 50
1, 177503, Poly_aftertouch_c, 0, 32, 127
1, 177551, Poly_aftertouch_c, 0, 32, 0
1, 177558, Note_off_c, 0, 76, 62
1, 177585, Note_on_c, 0, 25, 18
1, 177627, Note_off_c, 0, 25, 52
1, 177707, Poly_aftertouch_c, 0, 32, 127
1, 177813, Note_on_c, 0, 25, 12
1, 177836, Poly_aftertouch_c, 0, 32, 0
1, 177871, Note_off_c, 0, 25, 51
1, 177880, Poly_aftertouch_c, 0, 32, 127
1, 177988, Note_on_c, 0, 97, 41
1, 177994, Note_on_c, 0, 85, 42
1, 178010, Note_on_c, 0, 25, 27
1, 178051, Note_off_c, 0, 85, 62
1, 178062, Note_off_c, 0, 97, 64
1, 178066, Note_off_c, 0, 25, 45
1, 178175, Poly_aftertouch_c, 0, 32, 0
1, 178178, Note_on_c, 0, 25, 13
1, 178227, Note_off_c, 0, 25, 47
1, 178270, Poly_aftertouch_c, 0, 32, 127
1, 178351, Poly_aftertouch_c, 0, 32, 0
1, 178366, Note_on_c, 0, 25, 32
1, 178421, Note_off_c, 0, 25, 45
1, 178467, Poly_aftertouch_c, 0, 32, 127
1, 178521, Poly_aftertouch_c, 0, 32, 0
1, 178554, Note_on_c, 0, 25, 11
1, 178607, Note_off_c, 0, 25, 46
1, 178655, Poly_aftertouch_c, 0, 32, 127
1, 178712, Poly_aftertouch_c, 0, 32, 0
1, 178738, Note_on_c, 0, 25, 13
1, 178795, Note_off_c, 0, 25, 46
1, 178816, Note_on_c, 0, 32, 15
1, 178876, Note_off_c, 0, 32, 43
1, 178918, Note_on_c, 0, 25, 14
1, 178986, Note_off_c, 0, 25, 42
1, 179036, Poly_aftertouch_c, 0, 32, 127
1, 179083, Poly_aftertouch_c, 0, 32, 0
1, 179094, Note_on_c, 0, 25, 7
1, 179176, Note_off_c, 0, 25, 40
1, 179224, Poly_aftertouch_c, 0, 32, 127
1, 179274, Poly_aftertouch_c, 0, 32, 0
1, 179276, Note_on_c, 0, 25, 12
1, 179343, Note_off_c, 0, 25, 44
1, 179400, Poly_aftertouch_c, 0, 32, 127
1, 179451, Poly_aftertouch_c, 0, 32, 0
1, 179478, Note_on_c, 0, 25, 13
1, 179537, Note_off_c, 0, 25, 44
1, 179593, Poly_aftertouch_c, 0, 32, 127
1, 179644, Poly_aftertouch_c, 0, 32, 0
1, 179660, Note_on_c, 0, 25, 12
1, 179770, Poly_aftertouch_c, 0, 32, 127
1, 179803, Note_off_c, 0, 25, 0
1, 179824, Note_on_c, 0, 25, 18
1, 179828, Poly_aftertouch_c, 0, 32, 0
1, 179962, Poly_aftertouch_c, 0, 32, 127
1, 179988, Note_off_c, 0, 25, 0
1, 180016, Poly_aftertouch_c, 0, 32, 0
1, 180025, Poly_aftertouch_c, 0, 25, 127
1, 180033, Note_on_c, 0, 25, 3
1, 180113, Note_off_c, 0, 25, 39
1, 180114, Note_on_c, 0, 32, 11
1, 180315, Note_off_c, 0, 32, 33
1, 180317, Note_on_c, 0, 25, 21
1, 180324, Note_on_c, 0, 97, 43
1, 180333, Note_on_c, 0, 85, 38
1, 180387, Note_off_c, 0, 97, 61
1, 180390, Note_off_c, 0, 25, 43
1, 180397, Note_off_c, 0, 85, 53
1, 180417, Poly_aftertouch_c, 0, 32, 127
1, 180519, Poly_aftertouch_c, 0, 32, 0
1, 180557, Note_on_c, 0, 25, 9
1, 180620, Note_off_c, 0, 25, 43
1, 180622, Poly_aftertouch_c, 0, 32, 127
1, 180700, Poly_aftertouch_c, 0, 32, 0
1, 180712, Note_on_c, 0, 25, 15
1, 180801, Note_off_c, 0, 25, 38
1, 180813, Poly_aftertouch_c, 0, 32, 127
1, 180912, Poly_aftertouch_c, 0, 32, 0
1, 180924, Note_on_c, 0, 25, 4
1, 181000, Note_on_c, 0, 32, 9
1, 181006, Note_off_c, 0, 25, 40
1, 181164, Poly_aftertouch_c, 0, 25, 127
1, 181168, Note_on_c, 0, 25, 3
1, 181187, Note_off_c, 0, 32, 0
1, 181224, Poly_aftertouch_c, 0, 32, 127
1, 181229, Note_off_c, 0, 25, 42
1, 181390, Poly_aftertouch_c, 0, 32, 0
1, 181406, Poly_aftertouch_c, 0, 25, 127
1, 181410, Note_on_c, 0, 25, 3
1, 181460, Note_off_c, 0, 25, 45
1, 181497, Poly_aftertouch_c, 0, 32, 127
1, 181773, Poly_aftertouch_c, 0, 32, 0
1, 181788, Note_on_c, 0, 25, 34
1, 181835, Note_off_c, 0, 25, 59
1, 181978, Control_c, 0, 64, 117
1, 181993, Control_c, 0, 64, 113
1, 182008, Control_c, 0, 64, 109
1, 182023, Control_c, 0, 64, 106
1, 182037, Control_c, 0, 64, 102
1, 182052, Control_c, 0, 64, 98
1, 182067, Control_c, 0, 64, 94
1, 182081, Control_c, 0, 64, 91
1, 182096, Control_c, 0, 64, 87
1, 182111, Control_c, 0, 64, 84
1, 182126, Control_c, 0, 64, 81
1, 182141, Control_c, 0, 64, 77
1, 182155, Control_c, 0, 64, 74
1, 182170, Control_c, 0, 64, 71
1, 182185, Control_c, 0, 64, 69
1, 182200, Control_c, 0, 64, 67
1, 182214, Control_c, 0, 64, 67
1, 182259, Control_c, 0, 64, 66
1, 182370, Control_c, 0, 64, 66
1, 182400, Control_c, 0, 64, 65
1, 182429, Control_c, 0, 64, 65
1, 182446, Control_c, 0, 64, 64
1, 182475, Control_c, 0, 64, 63
1, 182505, Control_c, 0, 64, 63
1, 182519, Control_c, 0, 64, 62
1, 182534, Control_c, 0, 64, 62
1, 182593, Control_c, 0, 64, 61
1, 182742, Control_c, 0, 64, 61
1, 183638, Control_c, 0, 64, 61
1, 184179, Control_c, 0, 64, 62
1, 185046, Control_c, 0, 64, 61
1, 185498, Control_c, 0, 64, 61
1, 185571, Control_c, 0, 64, 60
1, 185601, Control_c, 0, 67, 120
1, 185616, Control_c, 0, 67, 110
1, 185632, Control_c, 0, 67, 100
1, 185647, Control_c, 0, 64, 60
1, 185647, Control_c, 0, 67, 90
1, 185661, Control_c, 0, 67, 80
1, 185676, Control_c, 0, 67, 69
1, 185691, Control_c, 0, 64, 59
1, 185691, Control_c, 0, 67, 55
1, 185706, Control_c, 0, 67, 42
1, 185721, Control_c, 0, 64, 59
1, 185721, Control_c, 0, 67, 26
1, 185735, Control_c, 0, 67, 0
1, 185750, Control_c, 0, 64, 58
1, 185765, Control_c, 0, 64, 58
1, 185780, Control_c, 0, 64, 57
1, 185795, Control_c, 0, 64, 56
1, 185809, Control_c, 0, 64, 54
1, 185824, Control_c, 0, 64, 53
1, 185839, Control_c, 0, 64, 51
1, 185854, Control_c, 0, 64, 49
1, 185869, Control_c, 0, 64, 45
1, 185884, Control_c, 0, 64, 35
1, 185899, Control_c, 0, 64, 0
1, 185899, End_track
0, 0, End_of_file
