0, 0, Header, 0, 1, 384
1, 0, Start_track
1, 0, Title_t, "Mikrokosmos 5+6--M. Benabdallah "
1, 0, Text_t, "2006 International Piano-e-Competition Recital Round"
1, 0, Text_t, "St. Paul, Minnesota, July 2006"
1, 0, Text_t, "http://www.piano-e-competition.com/"
1, 0, Instrument_name_t, "Yamaha Disklavier Pro Mark IV concert grand piano"
1, 0, Sequencer_specific, 39, 67, 113, 0, 1, 0, 1, 0, 77, 105, 107, 114, 111, 107, 111, 115, 109, 111, 115, 32, 53, 43, 54, 32, 77, 46, 32, 66, 101, 110, 97, 98, 100, 97, 108, 108, 97, 104, 32, 32
1, 0, Sequencer_specific, 6, 67, 113, 0, 0, 0, 69
1, 0, System_exclusive, 21, 67, 113, 126, 21, 0, 2, 2, 0, 10, 10, 12, 4, 4, 10, 14, 12, 3, 2, 15, 4, 247
1, 0, Sequencer_specific, 5, 67, 123, 12, 2, 1
1, 0, Tempo, 512820
1, 0, Time_signature, 4, 2, 24, 8
1, 0, System_exclusive, 5, 126, 127, 9, 1, 247
1, 1, System_exclusive, 8, 67, 16, 76, 0, 0, 126, 0, 247
1, 2, System_exclusive, 8, 67, 16, 76, 8, 9, 7, 1, 247
1, 3, Control_c, 0, 0, 0
1, 4, Control_c, 0, 32, 0
1, 5, Program_c, 0, 0
1, 6, Control_c, 0, 7, 100
1, 95, Control_c, 0, 67, 3
1, 184, Control_c, 0, 67, 6
1, 273, Control_c, 0, 67, 9
1, 362, Control_c, 0, 67, 12
1, 452, Control_c, 0, 67, 15
1, 541, Control_c, 0, 67, 18
1, 630, Control_c, 0, 67, 21
1, 719, Control_c, 0, 67, 24
1, 904, Note_on_c, 0, 48, 78
1, 904, Note_on_c, 0, 54, 81
1, 910, Note_on_c, 0, 55, 76
1, 910, Note_on_c, 0, 74, 88
1, 911, Note_on_c, 0, 67, 82
1, 912, Control_c, 0, 67, 0
1, 913, Note_on_c, 0, 69, 84
1, 927, Control_c, 0, 64, 81
1, 941, Control_c, 0, 64, 127
1, 955, Note_off_c, 0, 55, 60
1, 959, Note_off_c, 0, 48, 63
1, 970, Note_off_c, 0, 67, 62
1, 976, Note_off_c, 0, 69, 62
1, 981, Note_off_c, 0, 74, 60
1, 1011, Note_off_c, 0, 54, 50
1, 1016, Note_on_c, 0, 67, 84
1, 1017, Note_on_c, 0, 74, 78
1, 1019, Note_on_c, 0, 55, 65
1, 1022, Note_on_c, 0, 52, 73
1, 1024, Note_on_c, 0, 48, 60
1, 1027, Note_on_c, 0, 71, 84
1, 1060, Control_c, 0, 64, 116
1, 1074, Control_c, 0, 64, 74
1, 1089, Control_c, 0, 64, 51
1, 1104, Control_c, 0, 64, 38
1, 1119, Control_c, 0, 64, 46
1, 1134, Control_c, 0, 64, 55
1, 1149, Control_c, 0, 64, 59
1, 1164, Control_c, 0, 64, 61
1, 1178, Control_c, 0, 64, 65
1, 1193, Control_c, 0, 64, 69
1, 1208, Control_c, 0, 64, 71
1, 1211, Note_off_c, 0, 55, 50
1, 1214, Note_off_c, 0, 74, 59
1, 1224, Note_off_c, 0, 67, 59
1, 1228, Note_off_c, 0, 48, 37
1, 1245, Note_off_c, 0, 71, 65
1, 1246, Note_off_c, 0, 52, 59
1, 1268, Control_c, 0, 64, 72
1, 1278, Note_on_c, 0, 48, 60
1, 1283, Control_c, 0, 64, 74
1, 1283, Note_on_c, 0, 50, 77
1, 1292, Note_on_c, 0, 55, 74
1, 1292, Note_on_c, 0, 72, 85
1, 1295, Note_on_c, 0, 67, 83
1, 1298, Note_on_c, 0, 74, 82
1, 1298, Control_c, 0, 64, 75
1, 1324, Note_off_c, 0, 55, 65
1, 1327, Note_off_c, 0, 67, 64
1, 1327, Control_c, 0, 64, 68
1, 1332, Note_off_c, 0, 74, 61
1, 1335, Note_off_c, 0, 48, 64
1, 1337, Note_off_c, 0, 50, 63
1, 1339, Note_off_c, 0, 72, 65
1, 1342, Control_c, 0, 64, 47
1, 1357, Control_c, 0, 64, 0
1, 1386, Note_on_c, 0, 74, 93
1, 1387, Note_on_c, 0, 67, 86
1, 1391, Note_on_c, 0, 55, 82
1, 1392, Note_on_c, 0, 52, 83
1, 1393, Note_on_c, 0, 48, 65
1, 1393, Note_on_c, 0, 71, 83
1, 1446, Control_c, 0, 64, 54
1, 1461, Control_c, 0, 64, 63
1, 1476, Control_c, 0, 64, 64
1, 1505, Control_c, 0, 64, 65
1, 1520, Control_c, 0, 64, 67
1, 1532, Note_off_c, 0, 74, 58
1, 1535, Note_off_c, 0, 55, 57
1, 1535, Control_c, 0, 64, 70
1, 1539, Note_off_c, 0, 48, 60
1, 1550, Control_c, 0, 64, 71
1, 1555, Note_off_c, 0, 67, 61
1, 1560, Note_off_c, 0, 52, 60
1, 1579, Control_c, 0, 64, 67
1, 1590, Note_off_c, 0, 71, 62
1, 1594, Control_c, 0, 64, 55
1, 1616, Control_c, 0, 64, 0
1, 1617, Note_on_c, 0, 54, 83
1, 1620, Note_on_c, 0, 69, 91
1, 1625, Note_on_c, 0, 48, 70
1, 1626, Note_on_c, 0, 55, 75
1, 1627, Note_on_c, 0, 74, 88
1, 1629, Note_on_c, 0, 67, 80
1, 1661, Control_c, 0, 64, 55
1, 1676, Control_c, 0, 64, 69
1, 1679, Note_off_c, 0, 55, 62
1, 1689, Note_off_c, 0, 48, 61
1, 1690, Control_c, 0, 64, 81
1, 1705, Control_c, 0, 64, 88
1, 1720, Control_c, 0, 64, 89
1, 1735, Control_c, 0, 64, 91
1, 1750, Note_off_c, 0, 74, 57
1, 1750, Control_c, 0, 64, 93
1, 1754, Note_off_c, 0, 67, 48
1, 1764, Note_off_c, 0, 54, 60
1, 1764, Control_c, 0, 64, 94
1, 1779, Control_c, 0, 64, 96
1, 1794, Control_c, 0, 64, 100
1, 1796, Note_off_c, 0, 69, 60
1, 1809, Control_c, 0, 64, 104
1, 1838, Control_c, 0, 64, 81
1, 1853, Control_c, 0, 64, 57
1, 1853, Control_c, 0, 67, 20
1, 1857, Note_on_c, 0, 55, 78
1, 1858, Note_on_c, 0, 48, 72
1, 1858, Note_on_c, 0, 67, 96
1, 1858, Note_on_c, 0, 52, 75
1, 1862, Note_on_c, 0, 74, 89
1, 1868, Control_c, 0, 64, 0
1, 1893, Note_off_c, 0, 55, 62
1, 1900, Note_off_c, 0, 74, 65
1, 1902, Note_off_c, 0, 52, 63
1, 1903, Note_off_c, 0, 67, 65
1, 1903, Note_off_c, 0, 48, 60
1, 1912, Control_c, 0, 64, 56
1, 1912, Control_c, 0, 67, 0
1, 1927, Control_c, 0, 64, 69
1, 1927, Control_c, 0, 67, 20
1, 1942, Control_c, 0, 64, 72
1, 1942, Control_c, 0, 67, 24
1, 1962, Note_on_c, 0, 67, 77
1, 1964, Note_on_c, 0, 69, 85
1, 1968, Note_on_c, 0, 74, 84
1, 1969, Note_on_c, 0, 54, 78
1, 1971, Control_c, 0, 64, 70
1, 1977, Note_on_c, 0, 55, 68
1, 1985, Note_on_c, 0, 48, 56
1, 2000, Note_off_c, 0, 69, 61
1, 2001, Control_c, 0, 67, 22
1, 2002, Note_off_c, 0, 74, 62
1, 2007, Note_off_c, 0, 48, 65
1, 2009, Note_off_c, 0, 55, 64
1, 2009, Note_off_c, 0, 67, 61
1, 2015, Note_off_c, 0, 54, 62
1, 2047, Control_c, 0, 64, 70
1, 2076, Note_on_c, 0, 67, 79
1, 2076, Note_on_c, 0, 74, 89
1, 2082, Note_on_c, 0, 48, 65
1, 2082, Note_on_c, 0, 69, 79
1, 2083, Note_on_c, 0, 54, 78
1, 2085, Note_on_c, 0, 55, 70
1, 2108, Note_off_c, 0, 69, 62
1, 2111, Note_off_c, 0, 67, 62
1, 2114, Note_off_c, 0, 74, 64
1, 2116, Note_off_c, 0, 54, 63
1, 2117, Note_off_c, 0, 55, 62
1, 2119, Note_off_c, 0, 48, 62
1, 2165, Control_c, 0, 64, 71
1, 2176, Note_on_c, 0, 67, 82
1, 2178, Note_on_c, 0, 74, 86
1, 2180, Note_on_c, 0, 54, 81
1, 2180, Control_c, 0, 64, 72
1, 2180, Note_on_c, 0, 69, 83
1, 2181, Note_on_c, 0, 55, 70
1, 2189, Note_on_c, 0, 48, 76
1, 2195, Control_c, 0, 64, 73
1, 2199, Note_off_c, 0, 69, 67
1, 2203, Note_off_c, 0, 67, 66
1, 2206, Note_off_c, 0, 55, 68
1, 2207, Note_off_c, 0, 74, 64
1, 2210, Note_off_c, 0, 54, 62
1, 2210, Control_c, 0, 64, 74
1, 2218, Note_off_c, 0, 48, 65
1, 2225, Control_c, 0, 64, 74
1, 2254, Control_c, 0, 64, 75
1, 2269, Control_c, 0, 64, 76
1, 2284, Control_c, 0, 64, 77
1, 2328, Control_c, 0, 64, 78
1, 2343, Control_c, 0, 64, 80
1, 2365, Control_c, 0, 64, 81
1, 2395, Control_c, 0, 64, 76
1, 2410, Control_c, 0, 64, 70
1, 2421, Note_on_c, 0, 74, 92
1, 2421, Note_on_c, 0, 67, 80
1, 2423, Note_on_c, 0, 69, 83
1, 2424, Control_c, 0, 64, 70
1, 2426, Note_on_c, 0, 54, 84
1, 2428, Note_on_c, 0, 55, 76
1, 2430, Note_on_c, 0, 48, 78
1, 2439, Control_c, 0, 64, 72
1, 2439, Control_c, 0, 67, 20
1, 2448, Note_off_c, 0, 69, 66
1, 2449, Note_off_c, 0, 67, 67
1, 2454, Note_off_c, 0, 55, 66
1, 2454, Control_c, 0, 64, 79
1, 2454, Note_off_c, 0, 48, 68
1, 2455, Note_off_c, 0, 54, 64
1, 2456, Note_off_c, 0, 74, 63
1, 2469, Control_c, 0, 64, 86
1, 2484, Control_c, 0, 64, 87
1, 2499, Control_c, 0, 64, 87
1, 2513, Control_c, 0, 64, 86
1, 2543, Control_c, 0, 64, 87
1, 2558, Control_c, 0, 64, 88
1, 2573, Control_c, 0, 64, 91
1, 2587, Control_c, 0, 64, 92
1, 2587, Control_c, 0, 67, 0
1, 2657, Note_on_c, 0, 74, 94
1, 2658, Note_on_c, 0, 67, 83
1, 2660, Note_on_c, 0, 55, 83
1, 2660, Note_on_c, 0, 69, 82
1, 2662, Note_on_c, 0, 54, 79
1, 2663, Note_on_c, 0, 48, 78
1, 2679, Note_off_c, 0, 69, 68
1, 2682, Note_off_c, 0, 55, 68
1, 2682, Note_off_c, 0, 67, 65
1, 2687, Note_off_c, 0, 54, 67
1, 2689, Note_off_c, 0, 48, 69
1, 2690, Note_off_c, 0, 74, 62
1, 2765, Control_c, 0, 64, 93
1, 2809, Control_c, 0, 64, 93
1, 2824, Control_c, 0, 64, 94
1, 2840, Control_c, 0, 64, 96
1, 2869, Control_c, 0, 64, 98
1, 2884, Note_on_c, 0, 74, 89
1, 2885, Note_on_c, 0, 54, 73
1, 2885, Note_on_c, 0, 69, 85
1, 2886, Note_on_c, 0, 67, 74
1, 2886, Note_on_c, 0, 55, 71
1, 2898, Note_on_c, 0, 48, 63
1, 2899, Control_c, 0, 64, 101
1, 2907, Note_off_c, 0, 54, 66
1, 2913, Note_off_c, 0, 67, 65
1, 2918, Note_off_c, 0, 69, 61
1, 2919, Note_off_c, 0, 55, 64
1, 2919, Note_off_c, 0, 74, 61
1, 2925, Note_off_c, 0, 48, 68
1, 2974, Control_c, 0, 64, 82
1, 2984, Note_on_c, 0, 74, 89
1, 2989, Control_c, 0, 64, 61
1, 2990, Note_on_c, 0, 54, 84
1, 2990, Note_on_c, 0, 67, 79
1, 2991, Note_on_c, 0, 69, 80
1, 2992, Note_on_c, 0, 55, 79
1, 3000, Note_on_c, 0, 48, 81
1, 3003, Control_c, 0, 64, 0
1, 3015, Note_off_c, 0, 67, 65
1, 3024, Note_off_c, 0, 55, 61
1, 3027, Note_off_c, 0, 74, 66
1, 3027, Note_off_c, 0, 54, 61
1, 3027, Note_off_c, 0, 69, 61
1, 3028, Note_off_c, 0, 48, 67
1, 3033, Control_c, 0, 64, 36
1, 3048, Control_c, 0, 64, 64
1, 3062, Control_c, 0, 64, 85
1, 3062, Control_c, 0, 67, 22
1, 3077, Control_c, 0, 64, 127
1, 3098, Note_on_c, 0, 54, 94
1, 3104, Note_on_c, 0, 67, 78
1, 3104, Note_on_c, 0, 69, 79
1, 3116, Note_on_c, 0, 74, 77
1, 3125, Note_on_c, 0, 55, 64
1, 3134, Note_on_c, 0, 48, 55
1, 3134, Note_off_c, 0, 54, 64
1, 3145, Note_off_c, 0, 55, 63
1, 3146, Note_off_c, 0, 67, 58
1, 3153, Note_off_c, 0, 74, 60
1, 3154, Note_off_c, 0, 48, 64
1, 3155, Note_off_c, 0, 69, 62
1, 3174, Control_c, 0, 67, 24
1, 3204, Control_c, 0, 67, 22
1, 3248, Control_c, 0, 67, 25
1, 3262, Control_c, 0, 67, 29
1, 3277, Control_c, 0, 67, 31
1, 3307, Control_c, 0, 67, 28
1, 3333, Note_on_c, 0, 54, 76
1, 3337, Note_on_c, 0, 74, 81
1, 3337, Note_on_c, 0, 69, 77
1, 3340, Note_on_c, 0, 67, 70
1, 3351, Note_on_c, 0, 55, 57
1, 3351, Control_c, 0, 67, 31
1, 3356, Note_on_c, 0, 48, 60
1, 3366, Control_c, 0, 64, 91
1, 3369, Note_off_c, 0, 67, 63
1, 3372, Note_off_c, 0, 69, 62
1, 3381, Note_off_c, 0, 54, 61
1, 3381, Note_off_c, 0, 55, 64
1, 3381, Control_c, 0, 64, 60
1, 3381, Control_c, 0, 67, 27
1, 3381, Note_off_c, 0, 74, 64
1, 3384, Note_off_c, 0, 48, 65
1, 3396, Control_c, 0, 64, 0
1, 3411, Control_c, 0, 67, 25
1, 3426, Control_c, 0, 67, 27
1, 3441, Control_c, 0, 67, 31
1, 3443, Note_on_c, 0, 52, 76
1, 3444, Note_on_c, 0, 67, 83
1, 3444, Note_on_c, 0, 74, 80
1, 3447, Note_on_c, 0, 48, 72
1, 3447, Note_on_c, 0, 55, 77
1, 3448, Note_on_c, 0, 71, 73
1, 3455, Control_c, 0, 67, 32
1, 3457, Note_on_c, 0, 69, 76
1, 3470, Control_c, 0, 67, 28
1, 3471, Note_off_c, 0, 55, 67
1, 3474, Note_off_c, 0, 48, 65
1, 3477, Note_off_c, 0, 67, 63
1, 3482, Note_off_c, 0, 69, 66
1, 3484, Note_off_c, 0, 71, 64
1, 3485, Control_c, 0, 64, 41
1, 3485, Control_c, 0, 67, 25
1, 3486, Note_off_c, 0, 52, 62
1, 3486, Note_off_c, 0, 74, 63
1, 3500, Control_c, 0, 64, 50
1, 3515, Control_c, 0, 64, 56
1, 3530, Control_c, 0, 64, 59
1, 3530, Control_c, 0, 67, 29
1, 3531, Note_on_c, 0, 48, 76
1, 3539, Note_on_c, 0, 67, 86
1, 3540, Note_on_c, 0, 50, 84
1, 3540, Note_on_c, 0, 55, 79
1, 3541, Note_on_c, 0, 72, 95
1, 3544, Control_c, 0, 64, 60
1, 3547, Note_on_c, 0, 74, 74
1, 3559, Control_c, 0, 64, 59
1, 3559, Control_c, 0, 67, 26
1, 3563, Note_off_c, 0, 48, 65
1, 3569, Note_off_c, 0, 55, 64
1, 3569, Note_off_c, 0, 74, 67
1, 3574, Control_c, 0, 64, 59
1, 3574, Control_c, 0, 67, 22
1, 3582, Note_off_c, 0, 72, 65
1, 3585, Note_off_c, 0, 67, 64
1, 3587, Note_off_c, 0, 50, 63
1, 3588, Control_c, 0, 64, 58
1, 3588, Control_c, 0, 67, 0
1, 3603, Control_c, 0, 64, 48
1, 3618, Control_c, 0, 64, 0
1, 3643, Note_on_c, 0, 67, 92
1, 3643, Note_on_c, 0, 74, 97
1, 3646, Note_on_c, 0, 55, 84
1, 3647, Note_on_c, 0, 71, 90
1, 3648, Note_on_c, 0, 48, 76
1, 3648, Note_on_c, 0, 52, 82
1, 3708, Control_c, 0, 64, 55
1, 3723, Control_c, 0, 64, 63
1, 3738, Control_c, 0, 64, 68
1, 3752, Control_c, 0, 64, 72
1, 3759, Note_off_c, 0, 55, 55
1, 3767, Control_c, 0, 64, 77
1, 3774, Note_off_c, 0, 48, 55
1, 3776, Note_off_c, 0, 52, 54
1, 3782, Control_c, 0, 64, 79
1, 3784, Note_off_c, 0, 74, 58
1, 3797, Control_c, 0, 64, 82
1, 3802, Note_off_c, 0, 67, 60
1, 3811, Control_c, 0, 64, 86
1, 3826, Control_c, 0, 64, 90
1, 3841, Control_c, 0, 64, 91
1, 3843, Note_off_c, 0, 71, 58
1, 3878, Note_on_c, 0, 67, 82
1, 3878, Note_on_c, 0, 69, 85
1, 3879, Note_on_c, 0, 74, 89
1, 3880, Note_on_c, 0, 54, 87
1, 3883, Note_on_c, 0, 48, 81
1, 3888, Note_on_c, 0, 55, 73
1, 3893, Control_c, 0, 64, 92
1, 3906, Note_off_c, 0, 74, 64
1, 3906, Note_off_c, 0, 67, 64
1, 3908, Note_off_c, 0, 48, 69
1, 3908, Control_c, 0, 64, 102
1, 3912, Note_off_c, 0, 55, 69
1, 3915, Note_off_c, 0, 69, 60
1, 3920, Note_off_c, 0, 54, 66
1, 3923, Control_c, 0, 64, 127
1, 4100, Control_c, 0, 64, 71
1, 4107, Note_on_c, 0, 55, 78
1, 4109, Note_on_c, 0, 48, 78
1, 4109, Note_on_c, 0, 52, 75
1, 4112, Note_on_c, 0, 67, 94
1, 4115, Note_on_c, 0, 72, 80
1, 4115, Control_c, 0, 64, 0
1, 4117, Note_on_c, 0, 74, 85
1, 4135, Note_on_c, 0, 71, 58
1, 4153, Note_off_c, 0, 71, 39
1, 4154, Note_off_c, 0, 67, 61
1, 4156, Note_off_c, 0, 55, 62
1, 4159, Note_off_c, 0, 52, 62
1, 4159, Control_c, 0, 64, 58
1, 4161, Note_off_c, 0, 48, 62
1, 4162, Note_off_c, 0, 72, 63
1, 4162, Note_off_c, 0, 74, 62
1, 4174, Control_c, 0, 64, 80
1, 4189, Control_c, 0, 64, 122
1, 4204, Control_c, 0, 64, 127
1, 4219, Note_on_c, 0, 67, 83
1, 4222, Note_on_c, 0, 72, 77
1, 4224, Note_on_c, 0, 52, 75
1, 4224, Note_on_c, 0, 74, 78
1, 4228, Note_on_c, 0, 55, 67
1, 4231, Note_on_c, 0, 48, 63
1, 4247, Note_off_c, 0, 67, 65
1, 4252, Note_off_c, 0, 52, 63
1, 4253, Note_off_c, 0, 74, 60
1, 4256, Note_off_c, 0, 55, 65
1, 4258, Note_off_c, 0, 48, 69
1, 4258, Note_off_c, 0, 72, 62
1, 4449, Note_on_c, 0, 67, 86
1, 4454, Note_on_c, 0, 48, 67
1, 4454, Note_on_c, 0, 52, 68
1, 4456, Note_on_c, 0, 72, 81
1, 4458, Note_on_c, 0, 74, 82
1, 4460, Note_on_c, 0, 55, 66
1, 4487, Note_off_c, 0, 74, 61
1, 4490, Note_off_c, 0, 55, 66
1, 4494, Note_off_c, 0, 52, 63
1, 4495, Note_off_c, 0, 48, 63
1, 4496, Note_off_c, 0, 67, 64
1, 4501, Note_off_c, 0, 72, 60
1, 4545, Control_c, 0, 64, 96
1, 4556, Note_on_c, 0, 67, 90
1, 4556, Note_on_c, 0, 72, 83
1, 4556, Note_on_c, 0, 74, 97
1, 4557, Note_on_c, 0, 52, 93
1, 4557, Note_on_c, 0, 55, 91
1, 4560, Control_c, 0, 64, 64
1, 4562, Note_on_c, 0, 48, 83
1, 4575, Control_c, 0, 64, 0
1, 4612, Control_c, 0, 64, 56
1, 4627, Control_c, 0, 64, 73
1, 4641, Control_c, 0, 64, 111
1, 4641, Control_c, 0, 67, 19
1, 4656, Control_c, 0, 64, 127
1, 4656, Control_c, 0, 67, 25
1, 4701, Control_c, 0, 67, 22
1, 4705, Note_off_c, 0, 48, 56
1, 4709, Note_off_c, 0, 55, 60
1, 4715, Note_off_c, 0, 52, 56
1, 4723, Note_off_c, 0, 74, 59
1, 4727, Note_off_c, 0, 67, 59
1, 4733, Note_off_c, 0, 72, 62
1, 4745, Control_c, 0, 67, 25
1, 4775, Control_c, 0, 67, 22
1, 4809, Note_on_c, 0, 67, 73
1, 4810, Note_on_c, 0, 48, 69
1, 4812, Note_on_c, 0, 72, 67
1, 4816, Note_on_c, 0, 74, 67
1, 4819, Note_on_c, 0, 55, 58
1, 4821, Note_on_c, 0, 52, 49
1, 4832, Note_off_c, 0, 67, 68
1, 4833, Note_off_c, 0, 48, 68
1, 4833, Control_c, 0, 67, 27
1, 4835, Note_off_c, 0, 55, 67
1, 4835, Note_off_c, 0, 72, 68
1, 4836, Note_off_c, 0, 74, 65
1, 4847, Note_off_c, 0, 52, 56
1, 4863, Control_c, 0, 67, 23
1, 4878, Control_c, 0, 67, 21
1, 4908, Control_c, 0, 67, 24
1, 4911, Note_on_c, 0, 55, 60
1, 4911, Note_on_c, 0, 74, 77
1, 4913, Note_on_c, 0, 52, 72
1, 4913, Note_on_c, 0, 67, 79
1, 4919, Note_on_c, 0, 72, 72
1, 4922, Control_c, 0, 67, 27
1, 4924, Note_on_c, 0, 48, 62
1, 4934, Note_off_c, 0, 74, 67
1, 4934, Note_off_c, 0, 52, 68
1, 4937, Note_off_c, 0, 67, 69
1, 4939, Note_off_c, 0, 55, 68
1, 4944, Note_off_c, 0, 72, 69
1, 4949, Note_off_c, 0, 48, 70
1, 4967, Control_c, 0, 67, 25
1, 5012, Control_c, 0, 67, 28
1, 5041, Control_c, 0, 67, 26
1, 5056, Control_c, 0, 67, 23
1, 5086, Control_c, 0, 67, 21
1, 5100, Control_c, 0, 67, 24
1, 5128, Note_on_c, 0, 67, 89
1, 5130, Control_c, 0, 67, 21
1, 5132, Note_on_c, 0, 48, 78
1, 5132, Note_on_c, 0, 55, 76
1, 5133, Note_on_c, 0, 72, 88
1, 5133, Note_on_c, 0, 74, 86
1, 5134, Note_on_c, 0, 52, 74
1, 5145, Control_c, 0, 67, 0
1, 5170, Note_off_c, 0, 52, 64
1, 5170, Note_off_c, 0, 67, 66
1, 5176, Note_off_c, 0, 74, 61
1, 5176, Note_off_c, 0, 55, 61
1, 5177, Note_off_c, 0, 72, 63
1, 5183, Note_off_c, 0, 48, 61
1, 5232, Note_on_c, 0, 55, 85
1, 5235, Control_c, 0, 64, 102
1, 5236, Note_on_c, 0, 52, 93
1, 5236, Note_on_c, 0, 67, 99
1, 5238, Note_on_c, 0, 48, 80
1, 5239, Note_on_c, 0, 74, 96
1, 5240, Note_on_c, 0, 72, 90
1, 5265, Control_c, 0, 64, 127
1, 5320, Note_off_c, 0, 55, 51
1, 5328, Note_off_c, 0, 48, 59
1, 5377, Note_off_c, 0, 74, 58
1, 5381, Note_off_c, 0, 67, 60
1, 5388, Note_off_c, 0, 52, 32
1, 5404, Note_off_c, 0, 72, 60
1, 5485, Note_on_c, 0, 67, 84
1, 5487, Note_on_c, 0, 48, 66
1, 5489, Note_on_c, 0, 55, 66
1, 5490, Note_on_c, 0, 52, 69
1, 5492, Note_on_c, 0, 72, 79
1, 5495, Note_on_c, 0, 74, 77
1, 5518, Note_off_c, 0, 55, 65
1, 5520, Note_off_c, 0, 72, 62
1, 5522, Note_off_c, 0, 74, 66
1, 5522, Note_off_c, 0, 52, 61
1, 5527, Note_off_c, 0, 67, 60
1, 5528, Note_off_c, 0, 48, 62
1, 5590, Note_on_c, 0, 74, 88
1, 5590, Note_on_c, 0, 67, 91
1, 5596, Note_on_c, 0, 72, 88
1, 5599, Note_on_c, 0, 52, 82
1, 5600, Note_on_c, 0, 48, 87
1, 5600, Note_on_c, 0, 55, 88
1, 5623, Note_off_c, 0, 72, 59
1, 5626, Note_off_c, 0, 74, 65
1, 5627, Note_off_c, 0, 67, 63
1, 5630, Note_off_c, 0, 52, 65
1, 5632, Note_off_c, 0, 55, 60
1, 5637, Note_off_c, 0, 48, 66
1, 5822, Note_on_c, 0, 67, 96
1, 5824, Note_on_c, 0, 48, 92
1, 5824, Note_on_c, 0, 55, 94
1, 5826, Note_on_c, 0, 72, 93
1, 5827, Note_on_c, 0, 74, 94
1, 5831, Note_on_c, 0, 52, 82
1, 5861, Note_off_c, 0, 48, 69
1, 5861, Note_off_c, 0, 55, 68
1, 5867, Note_off_c, 0, 67, 64
1, 5867, Note_off_c, 0, 52, 60
1, 5869, Note_off_c, 0, 74, 61
1, 5879, Note_off_c, 0, 72, 62
1, 6046, Note_on_c, 0, 55, 94
1, 6048, Note_on_c, 0, 67, 92
1, 6051, Note_on_c, 0, 48, 75
1, 6051, Note_on_c, 0, 72, 94
1, 6051, Note_on_c, 0, 74, 92
1, 6054, Note_on_c, 0, 52, 75
1, 6085, Note_on_c, 0, 47, 31
1, 6085, Note_off_c, 0, 47, 127
1, 6089, Note_off_c, 0, 52, 61
1, 6089, Note_off_c, 0, 48, 65
1, 6091, Note_off_c, 0, 67, 66
1, 6091, Note_off_c, 0, 72, 65
1, 6091, Note_off_c, 0, 74, 62
1, 6092, Note_off_c, 0, 55, 64
1, 6127, Poly_aftertouch_c, 0, 47, 0
1, 6160, Note_on_c, 0, 55, 97
1, 6165, Note_on_c, 0, 48, 89
1, 6165, Note_on_c, 0, 67, 95
1, 6168, Note_on_c, 0, 52, 93
1, 6169, Note_on_c, 0, 74, 94
1, 6171, Note_on_c, 0, 72, 91
1, 6199, Control_c, 0, 67, 22
1, 6200, Note_off_c, 0, 52, 64
1, 6201, Note_off_c, 0, 48, 67
1, 6201, Note_off_c, 0, 55, 66
1, 6212, Note_off_c, 0, 74, 64
1, 6213, Note_off_c, 0, 67, 59
1, 6228, Control_c, 0, 67, 27
1, 6231, Note_off_c, 0, 72, 59
1, 6243, Control_c, 0, 67, 37
1, 6258, Control_c, 0, 67, 58
1, 6273, Control_c, 0, 64, 87
1, 6273, Control_c, 0, 67, 95
1, 6288, Control_c, 0, 64, 68
1, 6288, Control_c, 0, 67, 127
1, 6303, Control_c, 0, 64, 53
1, 6317, Control_c, 0, 64, 0
1, 6407, Note_on_c, 0, 69, 64
1, 6417, Note_on_c, 0, 67, 62
1, 6423, Note_on_c, 0, 62, 56
1, 6446, Note_off_c, 0, 67, 67
1, 6446, Note_off_c, 0, 62, 63
1, 6455, Note_off_c, 0, 69, 62
1, 6522, Note_on_c, 0, 62, 66
1, 6526, Note_on_c, 0, 67, 70
1, 6530, Note_on_c, 0, 71, 67
1, 6577, Note_off_c, 0, 67, 0
1, 6584, Control_c, 0, 64, 53
1, 6598, Control_c, 0, 64, 61
1, 6608, Note_off_c, 0, 62, 0
1, 6613, Poly_aftertouch_c, 0, 67, 127
1, 6613, Control_c, 0, 64, 62
1, 6642, Note_on_c, 0, 67, 2
1, 6645, Poly_aftertouch_c, 0, 62, 127
1, 6673, Control_c, 0, 64, 63
1, 6684, Note_off_c, 0, 71, 63
1, 6696, Note_off_c, 0, 67, 62
1, 6700, Poly_aftertouch_c, 0, 62, 0
1, 6759, Note_on_c, 0, 72, 69
1, 6762, Control_c, 0, 64, 63
1, 6775, Note_on_c, 0, 62, 54
1, 6777, Control_c, 0, 64, 64
1, 6779, Note_on_c, 0, 67, 37
1, 6788, Note_off_c, 0, 72, 62
1, 6800, Note_off_c, 0, 62, 62
1, 6805, Note_off_c, 0, 67, 49
1, 6806, Control_c, 0, 64, 62
1, 6821, Control_c, 0, 64, 52
1, 6836, Control_c, 0, 64, 0
1, 6871, Note_on_c, 0, 71, 74
1, 6874, Note_on_c, 0, 50, 72
1, 6876, Note_on_c, 0, 62, 70
1, 6881, Note_on_c, 0, 55, 67
1, 6884, Note_on_c, 0, 60, 67
1, 6891, Note_on_c, 0, 67, 52
1, 6906, Note_off_c, 0, 50, 66
1, 6907, Note_off_c, 0, 55, 66
1, 6911, Note_off_c, 0, 60, 69
1, 6976, Note_on_c, 0, 55, 68
1, 6984, Note_on_c, 0, 60, 69
1, 6990, Note_on_c, 0, 52, 66
1, 7009, Note_off_c, 0, 67, 52
1, 7021, Note_off_c, 0, 62, 56
1, 7027, Note_off_c, 0, 71, 60
1, 7033, Note_off_c, 0, 55, 0
1, 7054, Note_on_c, 0, 55, 45
1, 7096, Note_on_c, 0, 69, 69
1, 7096, Control_c, 0, 64, 46
1, 7098, Note_on_c, 0, 62, 59
1, 7108, Note_on_c, 0, 67, 55
1, 7110, Control_c, 0, 64, 53
1, 7125, Control_c, 0, 64, 54
1, 7128, Note_off_c, 0, 60, 60
1, 7132, Note_off_c, 0, 52, 61
1, 7133, Note_off_c, 0, 55, 61
1, 7140, Control_c, 0, 64, 55
1, 7148, Note_off_c, 0, 62, 49
1, 7155, Control_c, 0, 64, 57
1, 7170, Control_c, 0, 64, 60
1, 7185, Control_c, 0, 64, 61
1, 7202, Note_on_c, 0, 54, 68
1, 7206, Note_on_c, 0, 60, 61
1, 7209, Note_on_c, 0, 55, 47
1, 7221, Note_off_c, 0, 69, 60
1, 7233, Note_off_c, 0, 67, 60
1, 7239, Note_off_c, 0, 54, 60
1, 7242, Note_off_c, 0, 60, 66
1, 7244, Note_off_c, 0, 55, 64
1, 7244, Control_c, 0, 64, 61
1, 7259, Control_c, 0, 64, 50
1, 7274, Control_c, 0, 64, 0
1, 7314, Note_on_c, 0, 67, 72
1, 7315, Note_on_c, 0, 60, 69
1, 7316, Note_on_c, 0, 55, 66
1, 7320, Note_on_c, 0, 62, 64
1, 7328, Note_on_c, 0, 52, 60
1, 7347, Note_off_c, 0, 67, 63
1, 7349, Note_off_c, 0, 62, 67
1, 7368, Note_off_c, 0, 55, 0
1, 7406, Poly_aftertouch_c, 0, 55, 127
1, 7418, Note_on_c, 0, 62, 72
1, 7423, Note_on_c, 0, 67, 62
1, 7424, Note_on_c, 0, 69, 61
1, 7449, Note_off_c, 0, 62, 63
1, 7450, Note_off_c, 0, 67, 67
1, 7452, Note_off_c, 0, 69, 67
1, 7454, Note_off_c, 0, 52, 62
1, 7456, Note_off_c, 0, 60, 56
1, 7491, Poly_aftertouch_c, 0, 55, 0
1, 7521, Note_on_c, 0, 50, 73
1, 7532, Note_on_c, 0, 67, 68
1, 7535, Note_on_c, 0, 60, 53
1, 7537, Note_on_c, 0, 55, 44
1, 7538, Note_on_c, 0, 69, 68
1, 7541, Note_on_c, 0, 62, 63
1, 7555, Control_c, 0, 64, 40
1, 7561, Note_off_c, 0, 67, 65
1, 7564, Note_off_c, 0, 69, 65
1, 7569, Note_off_c, 0, 60, 67
1, 7570, Note_off_c, 0, 55, 64
1, 7570, Control_c, 0, 64, 52
1, 7571, Note_off_c, 0, 62, 63
1, 7575, Note_off_c, 0, 50, 60
1, 7585, Control_c, 0, 64, 56
1, 7608, Control_c, 0, 64, 55
1, 7623, Control_c, 0, 64, 56
1, 7638, Control_c, 0, 64, 57
1, 7641, Note_on_c, 0, 62, 64
1, 7648, Note_on_c, 0, 69, 62
1, 7653, Control_c, 0, 64, 59
1, 7653, Note_on_c, 0, 67, 56
1, 7668, Control_c, 0, 64, 60
1, 7672, Note_off_c, 0, 62, 62
1, 7677, Note_off_c, 0, 69, 63
1, 7679, Note_off_c, 0, 67, 66
1, 7683, Control_c, 0, 64, 61
1, 7698, Control_c, 0, 64, 62
1, 7713, Control_c, 0, 64, 64
1, 7742, Note_on_c, 0, 52, 74
1, 7742, Control_c, 0, 64, 56
1, 7748, Note_on_c, 0, 55, 66
1, 7750, Note_on_c, 0, 60, 67
1, 7757, Control_c, 0, 64, 0
1, 7774, Note_off_c, 0, 52, 65
1, 7778, Note_off_c, 0, 55, 66
1, 7778, Note_off_c, 0, 60, 68
1, 7850, Note_on_c, 0, 69, 73
1, 7853, Note_on_c, 0, 67, 54
1, 7854, Note_on_c, 0, 55, 63
1, 7856, Note_on_c, 0, 54, 60
1, 7856, Note_on_c, 0, 62, 64
1, 7876, Note_on_c, 0, 60, 46
1, 7882, Note_off_c, 0, 55, 65
1, 7885, Note_off_c, 0, 62, 67
1, 7885, Note_off_c, 0, 67, 65
1, 7886, Note_off_c, 0, 69, 61
1, 7888, Note_off_c, 0, 54, 64
1, 7890, Control_c, 0, 64, 41
1, 7904, Note_off_c, 0, 60, 55
1, 7905, Control_c, 0, 64, 43
1, 7934, Control_c, 0, 64, 43
1, 7949, Note_on_c, 0, 55, 61
1, 7949, Control_c, 0, 64, 48
1, 7952, Note_on_c, 0, 54, 71
1, 7964, Control_c, 0, 64, 56
1, 7975, Note_on_c, 0, 60, 50
1, 7978, Note_off_c, 0, 54, 68
1, 7978, Control_c, 0, 64, 59
1, 7980, Note_off_c, 0, 55, 66
1, 7993, Control_c, 0, 64, 60
1, 8000, Note_off_c, 0, 60, 59
1, 8051, Note_on_c, 0, 54, 71
1, 8055, Note_on_c, 0, 55, 67
1, 8058, Note_on_c, 0, 62, 64
1, 8060, Note_on_c, 0, 69, 70
1, 8061, Note_on_c, 0, 67, 58
1, 8067, Control_c, 0, 64, 60
1, 8068, Note_on_c, 0, 60, 69
1, 8084, Note_off_c, 0, 54, 64
1, 8085, Note_off_c, 0, 55, 66
1, 8089, Note_off_c, 0, 62, 65
1, 8090, Note_off_c, 0, 69, 62
1, 8091, Note_off_c, 0, 67, 65
1, 8094, Note_off_c, 0, 60, 71
1, 8171, Control_c, 0, 64, 61
1, 8187, Control_c, 0, 64, 61
1, 8276, Control_c, 0, 64, 62
1, 8279, Note_on_c, 0, 62, 74
1, 8282, Note_on_c, 0, 54, 79
1, 8282, Note_on_c, 0, 69, 73
1, 8284, Note_on_c, 0, 67, 65
1, 8294, Note_on_c, 0, 55, 58
1, 8297, Note_on_c, 0, 60, 61
1, 8309, Note_off_c, 0, 62, 66
1, 8311, Note_off_c, 0, 67, 67
1, 8313, Note_off_c, 0, 69, 61
1, 8316, Note_off_c, 0, 54, 61
1, 8317, Note_off_c, 0, 55, 63
1, 8320, Control_c, 0, 64, 62
1, 8328, Note_off_c, 0, 60, 67
1, 8335, Control_c, 0, 64, 63
1, 8357, Control_c, 0, 64, 64
1, 8372, Control_c, 0, 64, 65
1, 8386, Control_c, 0, 64, 65
1, 8462, Control_c, 0, 64, 66
1, 8476, Control_c, 0, 64, 67
1, 8491, Control_c, 0, 64, 68
1, 8506, Control_c, 0, 64, 70
1, 8521, Control_c, 0, 64, 73
1, 8522, Note_on_c, 0, 62, 71
1, 8525, Note_on_c, 0, 55, 61
1, 8525, Note_on_c, 0, 69, 75
1, 8526, Note_on_c, 0, 54, 79
1, 8529, Note_on_c, 0, 60, 71
1, 8531, Note_on_c, 0, 67, 67
1, 8536, Control_c, 0, 64, 80
1, 8547, Note_off_c, 0, 62, 67
1, 8550, Control_c, 0, 64, 94
1, 8553, Note_off_c, 0, 54, 68
1, 8553, Note_off_c, 0, 55, 65
1, 8553, Note_off_c, 0, 60, 68
1, 8554, Note_off_c, 0, 67, 69
1, 8556, Note_off_c, 0, 69, 60
1, 8565, Control_c, 0, 64, 127
1, 8580, Control_c, 0, 67, 123
1, 8595, Control_c, 0, 67, 96
1, 8610, Control_c, 0, 67, 87
1, 8625, Control_c, 0, 67, 94
1, 8655, Control_c, 0, 67, 90
1, 8669, Control_c, 0, 67, 82
1, 8684, Control_c, 0, 67, 77
1, 8699, Control_c, 0, 67, 81
1, 8714, Control_c, 0, 67, 84
1, 8729, Control_c, 0, 67, 84
1, 8744, Control_c, 0, 67, 80
1, 8749, Note_on_c, 0, 69, 79
1, 8756, Note_on_c, 0, 74, 75
1, 8758, Control_c, 0, 67, 74
1, 8762, Note_on_c, 0, 79, 67
1, 8773, Control_c, 0, 64, 85
1, 8773, Control_c, 0, 67, 73
1, 8781, Note_off_c, 0, 74, 67
1, 8788, Control_c, 0, 64, 71
1, 8788, Control_c, 0, 67, 78
1, 8789, Note_off_c, 0, 69, 60
1, 8795, Note_off_c, 0, 79, 66
1, 8802, Control_c, 0, 64, 64
1, 8802, Control_c, 0, 67, 82
1, 8817, Control_c, 0, 64, 59
1, 8817, Control_c, 0, 67, 81
1, 8832, Control_c, 0, 64, 55
1, 8832, Control_c, 0, 67, 77
1, 8847, Control_c, 0, 67, 73
1, 8858, Note_on_c, 0, 71, 82
1, 8862, Control_c, 0, 64, 57
1, 8862, Control_c, 0, 67, 73
1, 8863, Note_on_c, 0, 79, 84
1, 8866, Note_on_c, 0, 74, 75
1, 8876, Control_c, 0, 64, 56
1, 8876, Control_c, 0, 67, 77
1, 8885, Note_off_c, 0, 71, 61
1, 8887, Note_off_c, 0, 74, 69
1, 8891, Control_c, 0, 64, 53
1, 8891, Control_c, 0, 67, 81
1, 8893, Note_off_c, 0, 79, 65
1, 8906, Control_c, 0, 64, 47
1, 8920, Control_c, 0, 64, 43
1, 8920, Control_c, 0, 67, 77
1, 8935, Control_c, 0, 64, 45
1, 8935, Control_c, 0, 67, 72
1, 8950, Control_c, 0, 64, 46
1, 8950, Control_c, 0, 67, 72
1, 8954, Note_on_c, 0, 72, 88
1, 8956, Note_on_c, 0, 79, 90
1, 8962, Note_on_c, 0, 74, 79
1, 8965, Control_c, 0, 64, 38
1, 8965, Control_c, 0, 67, 77
1, 8979, Control_c, 0, 64, 0
1, 8979, Control_c, 0, 67, 81
1, 8982, Note_off_c, 0, 74, 70
1, 8992, Note_off_c, 0, 72, 64
1, 8995, Note_off_c, 0, 79, 66
1, 9009, Control_c, 0, 67, 78
1, 9024, Control_c, 0, 67, 75
1, 9054, Control_c, 0, 67, 78
1, 9058, Note_on_c, 0, 71, 97
1, 9059, Note_on_c, 0, 79, 97
1, 9066, Note_on_c, 0, 74, 80
1, 9068, Control_c, 0, 67, 81
1, 9105, Control_c, 0, 67, 77
1, 9109, Note_off_c, 0, 74, 0
1, 9120, Control_c, 0, 64, 58
1, 9120, Control_c, 0, 67, 75
1, 9134, Control_c, 0, 64, 65
1, 9146, Poly_aftertouch_c, 0, 74, 127
1, 9149, Control_c, 0, 64, 67
1, 9149, Control_c, 0, 67, 80
1, 9161, Note_on_c, 0, 50, 82
1, 9164, Control_c, 0, 64, 71
1, 9164, Control_c, 0, 67, 82
1, 9167, Note_on_c, 0, 48, 76
1, 9168, Note_off_c, 0, 71, 58
1, 9170, Note_on_c, 0, 43, 70
1, 9179, Control_c, 0, 64, 77
1, 9179, Control_c, 0, 67, 80
1, 9194, Control_c, 0, 64, 85
1, 9194, Control_c, 0, 67, 74
1, 9195, Note_off_c, 0, 48, 68
1, 9200, Note_off_c, 0, 43, 63
1, 9206, Note_off_c, 0, 50, 61
1, 9206, Poly_aftertouch_c, 0, 74, 0
1, 9206, Note_off_c, 0, 79, 59
1, 9209, Control_c, 0, 64, 89
1, 9209, Control_c, 0, 67, 65
1, 9224, Control_c, 0, 64, 91
1, 9224, Control_c, 0, 67, 50
1, 9239, Control_c, 0, 64, 93
1, 9239, Control_c, 0, 67, 46
1, 9254, Control_c, 0, 64, 94
1, 9254, Control_c, 0, 67, 45
1, 9267, Note_on_c, 0, 69, 86
1, 9267, Note_on_c, 0, 79, 80
1, 9269, Note_on_c, 0, 74, 79
1, 9269, Control_c, 0, 64, 95
1, 9269, Control_c, 0, 67, 37
1, 9272, Note_on_c, 0, 52, 84
1, 9275, Note_on_c, 0, 43, 79
1, 9281, Note_on_c, 0, 48, 72
1, 9284, Control_c, 0, 67, 0
1, 9298, Control_c, 0, 64, 101
1, 9312, Note_off_c, 0, 48, 65
1, 9313, Control_c, 0, 64, 127
1, 9314, Note_off_c, 0, 52, 63
1, 9320, Note_off_c, 0, 43, 63
1, 9340, Note_off_c, 0, 69, 53
1, 9361, Note_off_c, 0, 79, 64
1, 9374, Note_on_c, 0, 43, 64
1, 9379, Note_on_c, 0, 54, 84
1, 9382, Note_on_c, 0, 48, 73
1, 9388, Note_off_c, 0, 74, 60
1, 9413, Note_off_c, 0, 48, 60
1, 9418, Control_c, 0, 64, 67
1, 9422, Note_off_c, 0, 43, 63
1, 9427, Note_off_c, 0, 54, 64
1, 9432, Control_c, 0, 64, 0
1, 9477, Note_on_c, 0, 72, 88
1, 9480, Note_on_c, 0, 79, 92
1, 9484, Note_on_c, 0, 74, 84
1, 9492, Control_c, 0, 64, 59
1, 9503, Note_off_c, 0, 74, 69
1, 9506, Control_c, 0, 64, 72
1, 9513, Note_off_c, 0, 72, 66
1, 9515, Note_off_c, 0, 79, 64
1, 9521, Control_c, 0, 64, 85
1, 9536, Control_c, 0, 64, 95
1, 9550, Control_c, 0, 64, 96
1, 9581, Note_on_c, 0, 48, 68
1, 9581, Note_on_c, 0, 52, 82
1, 9583, Note_on_c, 0, 72, 95
1, 9585, Note_on_c, 0, 79, 93
1, 9588, Note_on_c, 0, 43, 75
1, 9591, Note_on_c, 0, 74, 86
1, 9610, Control_c, 0, 64, 99
1, 9611, Note_off_c, 0, 72, 63
1, 9613, Note_off_c, 0, 74, 69
1, 9614, Note_off_c, 0, 79, 63
1, 9620, Note_off_c, 0, 43, 66
1, 9621, Note_off_c, 0, 48, 64
1, 9624, Control_c, 0, 64, 105
1, 9626, Note_off_c, 0, 52, 60
1, 9639, Control_c, 0, 64, 116
1, 9654, Control_c, 0, 64, 127
1, 9820, Note_on_c, 0, 72, 73
1, 9821, Note_on_c, 0, 79, 80
1, 9829, Note_on_c, 0, 52, 66
1, 9830, Note_on_c, 0, 43, 65
1, 9831, Note_on_c, 0, 74, 63
1, 9832, Note_on_c, 0, 48, 59
1, 9859, Note_off_c, 0, 74, 67
1, 9867, Note_off_c, 0, 52, 65
1, 9872, Note_off_c, 0, 43, 60
1, 9872, Note_off_c, 0, 48, 63
1, 9873, Note_off_c, 0, 72, 60
1, 9873, Note_off_c, 0, 79, 60
1, 10046, Note_on_c, 0, 48, 67
1, 10048, Note_on_c, 0, 79, 83
1, 10049, Note_on_c, 0, 72, 73
1, 10051, Note_on_c, 0, 52, 65
1, 10053, Note_on_c, 0, 74, 74
1, 10054, Note_on_c, 0, 43, 59
1, 10074, Note_off_c, 0, 48, 66
1, 10075, Note_off_c, 0, 52, 69
1, 10076, Note_off_c, 0, 72, 65
1, 10076, Note_off_c, 0, 74, 67
1, 10082, Note_off_c, 0, 79, 60
1, 10084, Note_off_c, 0, 43, 67
1, 10274, Note_on_c, 0, 72, 79
1, 10275, Note_on_c, 0, 79, 85
1, 10279, Note_on_c, 0, 48, 73
1, 10279, Note_on_c, 0, 74, 81
1, 10280, Note_on_c, 0, 52, 77
1, 10283, Note_on_c, 0, 43, 69
1, 10301, Note_off_c, 0, 74, 67
1, 10303, Note_off_c, 0, 72, 63
1, 10303, Note_off_c, 0, 79, 64
1, 10305, Note_off_c, 0, 48, 69
1, 10309, Note_off_c, 0, 52, 67
1, 10313, Note_off_c, 0, 43, 64
1, 10492, Note_on_c, 0, 72, 83
1, 10495, Note_on_c, 0, 79, 84
1, 10496, Note_on_c, 0, 48, 69
1, 10497, Note_on_c, 0, 74, 83
1, 10497, Note_on_c, 0, 52, 76
1, 10499, Note_on_c, 0, 43, 73
1, 10528, Note_off_c, 0, 48, 65
1, 10532, Note_off_c, 0, 52, 61
1, 10533, Note_off_c, 0, 74, 60
1, 10538, Note_off_c, 0, 72, 64
1, 10539, Note_off_c, 0, 43, 61
1, 10539, Note_off_c, 0, 79, 66
1, 10613, Note_on_c, 0, 79, 95
1, 10614, Note_on_c, 0, 72, 86
1, 10616, Note_on_c, 0, 48, 87
1, 10616, Note_on_c, 0, 74, 90
1, 10618, Note_on_c, 0, 52, 84
1, 10619, Note_on_c, 0, 43, 80
1, 10636, Note_off_c, 0, 48, 72
1, 10638, Note_off_c, 0, 74, 66
1, 10643, Note_off_c, 0, 52, 67
1, 10644, Note_off_c, 0, 72, 62
1, 10645, Note_off_c, 0, 43, 65
1, 10653, Note_off_c, 0, 79, 65
1, 10979, Note_on_c, 0, 72, 68
1, 10980, Note_on_c, 0, 79, 73
1, 10983, Note_on_c, 0, 60, 53
1, 10983, Note_on_c, 0, 64, 68
1, 10985, Note_on_c, 0, 55, 56
1, 10989, Note_on_c, 0, 74, 54
1, 11006, Note_off_c, 0, 72, 64
1, 11008, Note_off_c, 0, 64, 69
1, 11008, Note_off_c, 0, 74, 63
1, 11014, Note_off_c, 0, 60, 68
1, 11015, Note_off_c, 0, 79, 61
1, 11017, Note_off_c, 0, 55, 63
1, 11189, Note_on_c, 0, 72, 83
1, 11191, Note_on_c, 0, 60, 74
1, 11192, Note_on_c, 0, 64, 71
1, 11195, Note_on_c, 0, 79, 85
1, 11199, Note_on_c, 0, 55, 65
1, 11202, Note_on_c, 0, 74, 74
1, 11218, Note_off_c, 0, 64, 67
1, 11223, Note_off_c, 0, 60, 65
1, 11224, Note_off_c, 0, 74, 68
1, 11229, Note_off_c, 0, 55, 62
1, 11236, Note_off_c, 0, 72, 64
1, 11240, Note_off_c, 0, 79, 65
1, 11403, Note_on_c, 0, 72, 87
1, 11410, Note_on_c, 0, 79, 88
1, 11411, Note_on_c, 0, 55, 75
1, 11411, Note_on_c, 0, 74, 86
1, 11412, Note_on_c, 0, 64, 77
1, 11414, Note_on_c, 0, 60, 78
1, 11450, Note_off_c, 0, 60, 65
1, 11451, Note_off_c, 0, 72, 65
1, 11457, Note_off_c, 0, 74, 62
1, 11462, Note_off_c, 0, 55, 63
1, 11462, Note_off_c, 0, 64, 64
1, 11462, Note_off_c, 0, 79, 64
1, 11515, Note_on_c, 0, 64, 90
1, 11515, Note_on_c, 0, 72, 101
1, 11516, Note_on_c, 0, 79, 97
1, 11518, Note_on_c, 0, 74, 101
1, 11519, Note_on_c, 0, 55, 93
1, 11522, Note_on_c, 0, 60, 90
1, 11540, Note_off_c, 0, 60, 72
1, 11544, Note_off_c, 0, 55, 66
1, 11547, Note_off_c, 0, 64, 69
1, 11555, Note_off_c, 0, 72, 65
1, 11578, Note_off_c, 0, 74, 42
1, 11602, Note_off_c, 0, 79, 59
1, 11861, Note_on_c, 0, 79, 91
1, 11862, Note_on_c, 0, 72, 80
1, 11867, Note_on_c, 0, 76, 83
1, 11868, Note_on_c, 0, 74, 84
1, 11870, Note_on_c, 0, 67, 74
1, 11901, Note_off_c, 0, 72, 62
1, 11902, Note_off_c, 0, 67, 65
1, 11907, Note_off_c, 0, 74, 60
1, 11910, Note_off_c, 0, 76, 63
1, 11911, Note_off_c, 0, 79, 66
1, 11966, Note_on_c, 0, 72, 98
1, 11968, Note_on_c, 0, 67, 90
1, 11975, Note_on_c, 0, 76, 102
1, 11977, Note_on_c, 0, 74, 103
1, 11977, Note_on_c, 0, 79, 103
1, 11990, Note_off_c, 0, 72, 67
1, 11995, Note_off_c, 0, 67, 66
1, 11996, Note_off_c, 0, 74, 68
1, 12003, Note_off_c, 0, 76, 67
1, 12005, Note_off_c, 0, 79, 65
1, 12079, Control_c, 0, 67, 25
1, 12101, Control_c, 0, 67, 33
1, 12116, Control_c, 0, 67, 51
1, 12131, Control_c, 0, 67, 80
1, 12146, Control_c, 0, 67, 92
1, 12160, Control_c, 0, 67, 95
1, 12205, Control_c, 0, 67, 94
1, 12235, Control_c, 0, 67, 93
1, 12249, Control_c, 0, 67, 91
1, 12264, Control_c, 0, 67, 89
1, 12279, Control_c, 0, 67, 88
1, 12294, Control_c, 0, 64, 85
1, 12294, Control_c, 0, 67, 83
1, 12309, Control_c, 0, 64, 45
1, 12309, Control_c, 0, 67, 76
1, 12324, Control_c, 0, 64, 0
1, 12324, Control_c, 0, 67, 61
1, 12335, Note_on_c, 0, 43, 92
1, 12336, Note_on_c, 0, 48, 95
1, 12337, Note_on_c, 0, 55, 90
1, 12339, Control_c, 0, 64, 40
1, 12339, Control_c, 0, 67, 38
1, 12339, Note_on_c, 0, 50, 89
1, 12342, Note_on_c, 0, 52, 85
1, 12353, Control_c, 0, 64, 73
1, 12353, Control_c, 0, 67, 30
1, 12367, Note_off_c, 0, 50, 66
1, 12368, Control_c, 0, 64, 127
1, 12368, Control_c, 0, 67, 37
1, 12370, Note_off_c, 0, 48, 67
1, 12372, Note_off_c, 0, 52, 66
1, 12373, Note_off_c, 0, 43, 64
1, 12376, Note_off_c, 0, 55, 66
1, 12383, Control_c, 0, 67, 46
1, 12398, Control_c, 0, 67, 57
1, 12413, Control_c, 0, 67, 60
1, 12428, Control_c, 0, 67, 59
1, 12443, Control_c, 0, 67, 60
1, 12458, Control_c, 0, 67, 67
1, 12473, Control_c, 0, 67, 87
1, 12488, Control_c, 0, 67, 106
1, 12503, Control_c, 0, 67, 112
1, 12517, Control_c, 0, 64, 92
1, 12517, Control_c, 0, 67, 123
1, 12532, Control_c, 0, 64, 56
1, 12532, Control_c, 0, 67, 127
1, 12547, Control_c, 0, 64, 0
1, 12825, Note_on_c, 0, 61, 59
1, 12828, Note_on_c, 0, 66, 64
1, 12832, Note_on_c, 0, 71, 65
1, 12833, Note_on_c, 0, 55, 55
1, 12833, Note_on_c, 0, 62, 52
1, 12843, Note_on_c, 0, 64, 55
1, 12867, Note_off_c, 0, 61, 63
1, 12868, Note_off_c, 0, 66, 61
1, 12871, Note_off_c, 0, 62, 63
1, 12876, Note_off_c, 0, 64, 65
1, 12878, Note_off_c, 0, 55, 62
1, 12878, Note_off_c, 0, 71, 61
1, 12958, Note_on_c, 0, 59, 46
1, 12958, Note_on_c, 0, 67, 54
1, 12959, Note_on_c, 0, 71, 48
1, 12963, Note_on_c, 0, 64, 49
1, 12970, Note_on_c, 0, 62, 49
1, 12980, Note_on_c, 0, 55, 26
1, 13013, Control_c, 0, 64, 33
1, 13028, Control_c, 0, 64, 42
1, 13042, Control_c, 0, 64, 50
1, 13057, Control_c, 0, 64, 58
1, 13072, Control_c, 0, 64, 64
1, 13087, Control_c, 0, 64, 66
1, 13099, Note_off_c, 0, 64, 58
1, 13101, Control_c, 0, 64, 67
1, 13106, Note_off_c, 0, 71, 51
1, 13127, Note_off_c, 0, 59, 30
1, 13129, Note_off_c, 0, 67, 62
1, 13130, Note_off_c, 0, 62, 39
1, 13140, Note_off_c, 0, 55, 34
1, 13146, Control_c, 0, 64, 68
1, 13161, Control_c, 0, 64, 69
1, 13175, Control_c, 0, 64, 70
1, 13185, Note_on_c, 0, 69, 67
1, 13186, Note_on_c, 0, 64, 51
1, 13187, Note_on_c, 0, 55, 45
1, 13203, Note_on_c, 0, 57, 51
1, 13206, Note_on_c, 0, 62, 39
1, 13214, Note_on_c, 0, 71, 10
1, 13221, Control_c, 0, 64, 68
1, 13222, Note_off_c, 0, 64, 64
1, 13228, Note_off_c, 0, 57, 58
1, 13229, Note_off_c, 0, 55, 60
1, 13230, Note_off_c, 0, 69, 57
1, 13236, Control_c, 0, 64, 59
1, 13239, Note_off_c, 0, 62, 48
1, 13251, Control_c, 0, 64, 0
1, 13254, Note_off_c, 0, 71, 40
1, 13295, Note_on_c, 0, 71, 47
1, 13307, Note_on_c, 0, 64, 54
1, 13308, Note_on_c, 0, 67, 52
1, 13311, Note_on_c, 0, 62, 59
1, 13316, Note_on_c, 0, 55, 32
1, 13316, Note_on_c, 0, 59, 47
1, 13354, Control_c, 0, 64, 36
1, 13369, Control_c, 0, 64, 43
1, 13384, Control_c, 0, 64, 56
1, 13398, Control_c, 0, 64, 65
1, 13413, Control_c, 0, 64, 71
1, 13429, Control_c, 0, 64, 74
1, 13438, Note_off_c, 0, 71, 54
1, 13444, Control_c, 0, 64, 74
1, 13447, Note_off_c, 0, 59, 53
1, 13454, Note_off_c, 0, 64, 47
1, 13459, Control_c, 0, 64, 75
1, 13465, Note_off_c, 0, 62, 37
1, 13473, Control_c, 0, 64, 78
1, 13478, Note_off_c, 0, 55, 39
1, 13481, Note_off_c, 0, 67, 62
1, 13488, Control_c, 0, 64, 81
1, 13503, Control_c, 0, 64, 82
1, 13517, Control_c, 0, 64, 79
1, 13522, Note_on_c, 0, 61, 61
1, 13532, Control_c, 0, 64, 64
1, 13540, Note_on_c, 0, 66, 48
1, 13544, Note_on_c, 0, 64, 49
1, 13546, Note_on_c, 0, 71, 48
1, 13547, Control_c, 0, 64, 35
1, 13562, Control_c, 0, 64, 0
1, 13564, Note_on_c, 0, 55, 13
1, 13566, Note_on_c, 0, 62, 38
1, 13599, Control_c, 0, 64, 48
1, 13608, Note_off_c, 0, 62, 51
1, 13614, Control_c, 0, 64, 65
1, 13620, Note_off_c, 0, 55, 45
1, 13629, Control_c, 0, 64, 75
1, 13630, Note_off_c, 0, 61, 56
1, 13644, Control_c, 0, 64, 82
1, 13652, Note_off_c, 0, 64, 28
1, 13659, Control_c, 0, 64, 83
1, 13673, Control_c, 0, 64, 84
1, 13686, Note_off_c, 0, 66, 55
1, 13688, Control_c, 0, 64, 86
1, 13703, Control_c, 0, 64, 87
1, 13707, Note_off_c, 0, 71, 35
1, 13717, Control_c, 0, 64, 88
1, 13732, Control_c, 0, 64, 90
1, 13747, Control_c, 0, 64, 92
1, 13762, Control_c, 0, 64, 91
1, 13770, Note_on_c, 0, 55, 55
1, 13771, Note_on_c, 0, 64, 67
1, 13776, Note_on_c, 0, 59, 49
1, 13777, Control_c, 0, 64, 75
1, 13785, Note_on_c, 0, 62, 49
1, 13788, Note_on_c, 0, 71, 54
1, 13792, Control_c, 0, 64, 56
1, 13800, Note_off_c, 0, 64, 63
1, 13806, Control_c, 0, 64, 0
1, 13809, Note_off_c, 0, 62, 58
1, 13811, Note_off_c, 0, 55, 59
1, 13811, Note_off_c, 0, 59, 64
1, 13811, Note_off_c, 0, 71, 60
1, 13868, Note_on_c, 0, 66, 69
1, 13869, Note_on_c, 0, 61, 70
1, 13869, Note_on_c, 0, 64, 65
1, 13891, Note_on_c, 0, 71, 54
1, 13899, Note_on_c, 0, 62, 35
1, 13904, Note_off_c, 0, 64, 62
1, 13904, Note_off_c, 0, 66, 62
1, 13911, Note_off_c, 0, 71, 61
1, 13914, Note_off_c, 0, 61, 54
1, 13929, Note_off_c, 0, 62, 47
1, 13955, Control_c, 0, 64, 35
1, 13969, Control_c, 0, 64, 38
1, 13972, Note_on_c, 0, 64, 67
1, 13972, Note_on_c, 0, 67, 65
1, 13981, Note_on_c, 0, 55, 19
1, 13981, Note_on_c, 0, 71, 64
1, 13984, Control_c, 0, 64, 39
1, 13987, Note_on_c, 0, 59, 51
1, 13994, Note_on_c, 0, 62, 51
1, 14006, Note_off_c, 0, 64, 61
1, 14009, Note_off_c, 0, 71, 68
1, 14011, Note_off_c, 0, 67, 65
1, 14014, Note_off_c, 0, 59, 62
1, 14014, Control_c, 0, 64, 40
1, 14017, Note_off_c, 0, 55, 60
1, 14020, Note_off_c, 0, 62, 59
1, 14029, Control_c, 0, 64, 39
1, 14044, Control_c, 0, 64, 37
1, 14059, Control_c, 0, 64, 35
1, 14074, Control_c, 0, 64, 0
1, 14084, Note_on_c, 0, 64, 65
1, 14085, Note_on_c, 0, 69, 71
1, 14100, Note_on_c, 0, 62, 55
1, 14103, Note_on_c, 0, 55, 41
1, 14109, Note_on_c, 0, 57, 51
1, 14113, Note_off_c, 0, 64, 65
1, 14117, Note_on_c, 0, 71, 24
1, 14122, Note_off_c, 0, 69, 61
1, 14124, Note_off_c, 0, 62, 63
1, 14129, Note_off_c, 0, 55, 55
1, 14133, Note_off_c, 0, 57, 59
1, 14154, Note_off_c, 0, 71, 48
1, 14200, Note_on_c, 0, 64, 63
1, 14206, Note_on_c, 0, 55, 60
1, 14206, Note_on_c, 0, 71, 54
1, 14210, Note_on_c, 0, 62, 45
1, 14217, Note_on_c, 0, 67, 58
1, 14221, Control_c, 0, 64, 53
1, 14230, Note_on_c, 0, 59, 51
1, 14236, Control_c, 0, 64, 67
1, 14251, Control_c, 0, 64, 77
1, 14266, Control_c, 0, 64, 85
1, 14281, Control_c, 0, 64, 88
1, 14295, Control_c, 0, 64, 90
1, 14307, Note_off_c, 0, 62, 29
1, 14310, Control_c, 0, 64, 92
1, 14325, Control_c, 0, 64, 96
1, 14344, Note_off_c, 0, 71, 57
1, 14347, Control_c, 0, 64, 104
1, 14351, Note_off_c, 0, 55, 36
1, 14362, Control_c, 0, 64, 116
1, 14363, Note_off_c, 0, 64, 36
1, 14374, Note_off_c, 0, 59, 35
1, 14375, Note_off_c, 0, 67, 57
1, 14377, Control_c, 0, 64, 127
1, 14421, Note_on_c, 0, 61, 69
1, 14436, Note_on_c, 0, 66, 65
1, 14441, Note_on_c, 0, 62, 52
1, 14443, Note_on_c, 0, 64, 59
1, 14444, Note_on_c, 0, 55, 41
1, 14446, Note_on_c, 0, 71, 60
1, 14463, Note_off_c, 0, 61, 57
1, 14464, Note_off_c, 0, 66, 65
1, 14465, Control_c, 0, 64, 107
1, 14467, Note_off_c, 0, 64, 65
1, 14468, Note_off_c, 0, 62, 62
1, 14473, Note_off_c, 0, 71, 64
1, 14478, Note_off_c, 0, 55, 58
1, 14480, Control_c, 0, 64, 73
1, 14495, Control_c, 0, 64, 53
1, 14510, Control_c, 0, 64, 0
1, 14527, Note_on_c, 0, 64, 81
1, 14544, Note_on_c, 0, 62, 63
1, 14546, Note_on_c, 0, 59, 57
1, 14546, Note_on_c, 0, 71, 63
1, 14549, Note_on_c, 0, 55, 37
1, 14563, Note_off_c, 0, 64, 62
1, 14566, Note_off_c, 0, 71, 66
1, 14574, Note_off_c, 0, 62, 64
1, 14577, Note_off_c, 0, 55, 49
1, 14578, Note_off_c, 0, 59, 66
1, 14629, Note_on_c, 0, 64, 69
1, 14634, Note_on_c, 0, 66, 74
1, 14634, Note_on_c, 0, 71, 71
1, 14643, Note_on_c, 0, 61, 65
1, 14652, Note_on_c, 0, 62, 43
1, 14656, Note_off_c, 0, 64, 67
1, 14658, Note_off_c, 0, 66, 67
1, 14660, Note_off_c, 0, 71, 69
1, 14662, Note_on_c, 0, 55, 37
1, 14672, Note_off_c, 0, 61, 65
1, 14679, Note_off_c, 0, 62, 54
1, 14693, Note_off_c, 0, 55, 48
1, 14703, Control_c, 0, 64, 44
1, 14718, Control_c, 0, 64, 61
1, 14733, Control_c, 0, 64, 69
1, 14735, Note_on_c, 0, 61, 72
1, 14739, Note_on_c, 0, 66, 82
1, 14742, Note_on_c, 0, 64, 60
1, 14747, Control_c, 0, 64, 71
1, 14758, Note_on_c, 0, 62, 51
1, 14766, Note_on_c, 0, 71, 35
1, 14772, Note_off_c, 0, 64, 52
1, 14774, Note_off_c, 0, 61, 57
1, 14777, Control_c, 0, 64, 72
1, 14786, Note_off_c, 0, 62, 56
1, 14790, Note_off_c, 0, 66, 61
1, 14792, Control_c, 0, 64, 72
1, 14798, Note_off_c, 0, 71, 53
1, 14807, Control_c, 0, 64, 74
1, 14822, Control_c, 0, 64, 77
1, 14837, Control_c, 0, 64, 81
1, 14852, Control_c, 0, 64, 86
1, 14867, Control_c, 0, 64, 88
1, 14882, Control_c, 0, 64, 90
1, 14896, Control_c, 0, 64, 92
1, 14911, Control_c, 0, 64, 92
1, 14925, Control_c, 0, 64, 93
1, 14953, Note_on_c, 0, 61, 62
1, 14953, Note_on_c, 0, 64, 66
1, 14956, Note_on_c, 0, 55, 58
1, 14960, Note_on_c, 0, 66, 64
1, 14962, Note_on_c, 0, 62, 57
1, 14962, Note_on_c, 0, 71, 58
1, 14982, Note_off_c, 0, 61, 64
1, 14984, Note_off_c, 0, 71, 61
1, 14988, Note_off_c, 0, 66, 62
1, 14990, Note_off_c, 0, 55, 65
1, 14991, Note_off_c, 0, 64, 61
1, 14992, Note_off_c, 0, 62, 66
1, 15169, Control_c, 0, 64, 93
1, 15184, Control_c, 0, 64, 94
1, 15189, Note_on_c, 0, 64, 73
1, 15195, Note_on_c, 0, 71, 71
1, 15197, Note_on_c, 0, 62, 65
1, 15197, Note_on_c, 0, 69, 70
1, 15198, Note_on_c, 0, 57, 69
1, 15199, Control_c, 0, 64, 94
1, 15202, Note_on_c, 0, 55, 57
1, 15214, Control_c, 0, 64, 100
1, 15227, Note_off_c, 0, 71, 62
1, 15227, Note_off_c, 0, 57, 65
1, 15227, Note_off_c, 0, 62, 66
1, 15229, Control_c, 0, 64, 127
1, 15231, Note_off_c, 0, 64, 59
1, 15233, Note_off_c, 0, 55, 62
1, 15243, Note_off_c, 0, 69, 60
1, 15273, Control_c, 0, 64, 75
1, 15287, Control_c, 0, 64, 0
1, 15302, Note_on_c, 0, 64, 79
1, 15303, Note_on_c, 0, 61, 77
1, 15303, Note_on_c, 0, 66, 78
1, 15303, Note_on_c, 0, 71, 79
1, 15305, Note_on_c, 0, 62, 73
1, 15311, Note_on_c, 0, 55, 74
1, 15347, Control_c, 0, 64, 60
1, 15359, Note_off_c, 0, 61, 62
1, 15360, Note_off_c, 0, 66, 60
1, 15361, Note_off_c, 0, 62, 58
1, 15362, Control_c, 0, 64, 69
1, 15391, Control_c, 0, 64, 65
1, 15406, Control_c, 0, 64, 64
1, 15421, Control_c, 0, 64, 65
1, 15428, Note_off_c, 0, 55, 28
1, 15431, Note_off_c, 0, 71, 54
1, 15433, Note_off_c, 0, 64, 48
1, 15436, Control_c, 0, 64, 67
1, 15466, Control_c, 0, 64, 66
1, 15481, Control_c, 0, 64, 64
1, 15495, Control_c, 0, 64, 61
1, 15510, Control_c, 0, 64, 57
1, 15525, Control_c, 0, 64, 47
1, 15528, Note_on_c, 0, 59, 57
1, 15533, Note_on_c, 0, 62, 50
1, 15537, Note_on_c, 0, 55, 38
1, 15539, Note_on_c, 0, 64, 56
1, 15539, Note_on_c, 0, 67, 56
1, 15540, Control_c, 0, 64, 0
1, 15555, Note_on_c, 0, 71, 44
1, 15563, Note_off_c, 0, 59, 64
1, 15566, Note_off_c, 0, 64, 63
1, 15566, Note_off_c, 0, 55, 58
1, 15568, Note_off_c, 0, 62, 64
1, 15568, Note_off_c, 0, 67, 66
1, 15579, Note_off_c, 0, 71, 56
1, 15632, Note_on_c, 0, 61, 66
1, 15639, Note_on_c, 0, 66, 70
1, 15645, Note_on_c, 0, 64, 64
1, 15652, Note_on_c, 0, 71, 55
1, 15660, Note_on_c, 0, 55, 41
1, 15660, Note_on_c, 0, 62, 32
1, 15665, Note_off_c, 0, 61, 63
1, 15666, Note_off_c, 0, 64, 65
1, 15668, Note_off_c, 0, 66, 63
1, 15672, Note_off_c, 0, 71, 62
1, 15693, Note_off_c, 0, 55, 33
1, 15698, Note_off_c, 0, 62, 43
1, 15740, Note_on_c, 0, 64, 81
1, 15742, Note_on_c, 0, 71, 77
1, 15743, Note_on_c, 0, 55, 62
1, 15744, Note_on_c, 0, 62, 71
1, 15748, Note_on_c, 0, 69, 77
1, 15749, Note_on_c, 0, 57, 76
1, 15764, Control_c, 0, 64, 65
1, 15772, Note_off_c, 0, 55, 65
1, 15774, Note_off_c, 0, 64, 63
1, 15774, Note_off_c, 0, 71, 64
1, 15779, Note_off_c, 0, 57, 66
1, 15779, Control_c, 0, 64, 79
1, 15781, Note_off_c, 0, 62, 63
1, 15785, Note_off_c, 0, 69, 59
1, 15793, Control_c, 0, 64, 81
1, 15844, Control_c, 0, 64, 77
1, 15859, Control_c, 0, 64, 64
1, 15864, Note_on_c, 0, 61, 68
1, 15867, Note_on_c, 0, 66, 70
1, 15874, Control_c, 0, 64, 0
1, 15891, Note_on_c, 0, 64, 35
1, 15892, Note_on_c, 0, 55, 14
1, 15934, Control_c, 0, 64, 56
1, 15937, Poly_aftertouch_c, 0, 71, 127
1, 15949, Control_c, 0, 64, 65
1, 15964, Control_c, 0, 64, 67
1, 15965, Poly_aftertouch_c, 0, 62, 127
1, 15987, Poly_aftertouch_c, 0, 71, 0
1, 15993, Control_c, 0, 64, 68
1, 15996, Poly_aftertouch_c, 0, 62, 0
1, 16000, Note_off_c, 0, 55, 35
1, 16008, Control_c, 0, 64, 68
1, 16012, Note_off_c, 0, 66, 58
1, 16013, Note_off_c, 0, 61, 23
1, 16023, Control_c, 0, 64, 69
1, 16024, Note_off_c, 0, 64, 41
1, 16037, Control_c, 0, 64, 69
1, 16085, Note_on_c, 0, 57, 73
1, 16086, Note_on_c, 0, 62, 77
1, 16090, Note_on_c, 0, 64, 84
1, 16091, Note_on_c, 0, 71, 82
1, 16095, Note_on_c, 0, 69, 78
1, 16097, Control_c, 0, 64, 66
1, 16101, Note_on_c, 0, 55, 60
1, 16111, Control_c, 0, 64, 49
1, 16121, Note_off_c, 0, 62, 63
1, 16122, Note_off_c, 0, 57, 64
1, 16124, Note_off_c, 0, 55, 60
1, 16126, Control_c, 0, 64, 0
1, 16130, Note_off_c, 0, 71, 64
1, 16132, Note_off_c, 0, 64, 62
1, 16139, Note_off_c, 0, 69, 60
1, 16204, Note_on_c, 0, 61, 78
1, 16204, Note_on_c, 0, 64, 82
1, 16205, Note_on_c, 0, 66, 84
1, 16206, Note_on_c, 0, 55, 68
1, 16206, Note_on_c, 0, 71, 83
1, 16215, Control_c, 0, 64, 39
1, 16219, Note_on_c, 0, 62, 66
1, 16230, Control_c, 0, 64, 81
1, 16244, Control_c, 0, 64, 127
1, 16248, Note_off_c, 0, 55, 61
1, 16251, Note_off_c, 0, 64, 61
1, 16253, Note_off_c, 0, 62, 56
1, 16267, Note_off_c, 0, 66, 61
1, 16270, Note_off_c, 0, 71, 64
1, 16271, Note_off_c, 0, 61, 57
1, 16393, Control_c, 0, 64, 124
1, 16408, Control_c, 0, 64, 73
1, 16423, Control_c, 0, 64, 0
1, 16458, Note_on_c, 0, 76, 74
1, 16462, Note_on_c, 0, 78, 69
1, 16483, Note_off_c, 0, 76, 66
1, 16487, Note_on_c, 0, 83, 27
1, 16489, Note_off_c, 0, 78, 66
1, 16514, Note_off_c, 0, 83, 49
1, 16572, Control_c, 0, 64, 39
1, 16576, Note_on_c, 0, 76, 64
1, 16577, Note_on_c, 0, 83, 67
1, 16589, Note_on_c, 0, 79, 57
1, 16594, Control_c, 0, 64, 51
1, 16609, Control_c, 0, 64, 52
1, 16623, Control_c, 0, 64, 52
1, 16638, Control_c, 0, 64, 55
1, 16653, Control_c, 0, 64, 61
1, 16667, Control_c, 0, 64, 64
1, 16682, Control_c, 0, 64, 66
1, 16694, Note_off_c, 0, 76, 26
1, 16713, Note_off_c, 0, 83, 61
1, 16730, Note_off_c, 0, 79, 63
1, 16757, Control_c, 0, 64, 66
1, 16792, Note_on_c, 0, 81, 72
1, 16810, Note_on_c, 0, 76, 53
1, 16831, Control_c, 0, 64, 67
1, 16832, Note_off_c, 0, 76, 58
1, 16832, Note_off_c, 0, 81, 59
1, 16846, Control_c, 0, 64, 67
1, 16860, Control_c, 0, 64, 65
1, 16875, Control_c, 0, 64, 55
1, 16886, Note_on_c, 0, 83, 44
1, 16890, Control_c, 0, 64, 0
1, 16896, Note_on_c, 0, 69, 59
1, 16897, Note_on_c, 0, 76, 72
1, 16903, Note_on_c, 0, 79, 62
1, 16906, Note_on_c, 0, 74, 56
1, 16907, Note_on_c, 0, 67, 38
1, 16925, Note_off_c, 0, 69, 66
1, 16930, Note_off_c, 0, 74, 62
1, 16935, Note_off_c, 0, 67, 56
1, 16961, Note_off_c, 0, 76, 0
1, 16998, Poly_aftertouch_c, 0, 76, 127
1, 17010, Note_on_c, 0, 74, 66
1, 17021, Note_on_c, 0, 67, 58
1, 17021, Note_on_c, 0, 71, 58
1, 17023, Note_off_c, 0, 83, 59
1, 17048, Poly_aftertouch_c, 0, 76, 0
1, 17049, Note_off_c, 0, 79, 63
1, 17067, Control_c, 0, 64, 45
1, 17082, Control_c, 0, 64, 57
1, 17097, Control_c, 0, 64, 61
1, 17127, Note_on_c, 0, 78, 63
1, 17135, Note_on_c, 0, 76, 58
1, 17139, Note_on_c, 0, 83, 60
1, 17141, Control_c, 0, 64, 62
1, 17144, Note_off_c, 0, 71, 57
1, 17156, Control_c, 0, 64, 63
1, 17162, Note_off_c, 0, 74, 51
1, 17171, Note_off_c, 0, 67, 53
1, 17171, Control_c, 0, 64, 63
1, 17178, Note_off_c, 0, 76, 54
1, 17186, Control_c, 0, 64, 64
1, 17217, Control_c, 0, 64, 64
1, 17221, Note_on_c, 0, 73, 77
1, 17228, Note_off_c, 0, 78, 28
1, 17231, Control_c, 0, 64, 66
1, 17242, Note_on_c, 0, 74, 54
1, 17244, Note_off_c, 0, 83, 52
1, 17246, Control_c, 0, 64, 68
1, 17260, Note_on_c, 0, 67, 41
1, 17261, Control_c, 0, 64, 70
1, 17267, Note_off_c, 0, 74, 63
1, 17276, Control_c, 0, 64, 71
1, 17281, Note_off_c, 0, 73, 60
1, 17286, Note_off_c, 0, 67, 53
1, 17290, Control_c, 0, 64, 69
1, 17305, Control_c, 0, 64, 60
1, 17320, Control_c, 0, 64, 0
1, 17345, Note_on_c, 0, 74, 79
1, 17347, Note_on_c, 0, 76, 67
1, 17350, Note_on_c, 0, 83, 69
1, 17352, Note_on_c, 0, 71, 70
1, 17357, Note_on_c, 0, 67, 56
1, 17374, Note_off_c, 0, 76, 66
1, 17379, Note_off_c, 0, 83, 62
1, 17395, Note_off_c, 0, 67, 57
1, 17405, Note_off_c, 0, 74, 54
1, 17417, Control_c, 0, 64, 43
1, 17432, Control_c, 0, 64, 53
1, 17438, Note_on_c, 0, 78, 77
1, 17446, Control_c, 0, 64, 57
1, 17452, Note_on_c, 0, 76, 68
1, 17458, Note_on_c, 0, 83, 60
1, 17461, Control_c, 0, 64, 60
1, 17476, Note_off_c, 0, 71, 62
1, 17476, Control_c, 0, 64, 62
1, 17478, Note_off_c, 0, 83, 65
1, 17482, Note_off_c, 0, 76, 64
1, 17484, Note_off_c, 0, 78, 61
1, 17490, Control_c, 0, 64, 63
1, 17535, Control_c, 0, 64, 62
1, 17550, Note_on_c, 0, 83, 74
1, 17550, Control_c, 0, 64, 56
1, 17554, Note_on_c, 0, 76, 72
1, 17554, Note_on_c, 0, 79, 69
1, 17556, Note_on_c, 0, 69, 72
1, 17564, Note_on_c, 0, 74, 63
1, 17564, Control_c, 0, 64, 42
1, 17567, Note_on_c, 0, 67, 30
1, 17579, Control_c, 0, 64, 0
1, 17590, Note_off_c, 0, 76, 64
1, 17597, Note_off_c, 0, 79, 62
1, 17600, Note_off_c, 0, 74, 61
1, 17600, Note_off_c, 0, 83, 61
1, 17606, Note_off_c, 0, 67, 51
1, 17609, Control_c, 0, 64, 37
1, 17613, Note_off_c, 0, 69, 61
1, 17624, Control_c, 0, 64, 58
1, 17639, Control_c, 0, 64, 66
1, 17654, Control_c, 0, 64, 69
1, 17654, Note_on_c, 0, 81, 86
1, 17659, Note_on_c, 0, 76, 74
1, 17689, Note_on_c, 0, 83, 23
1, 17693, Note_off_c, 0, 76, 61
1, 17709, Note_off_c, 0, 81, 65
1, 17713, Control_c, 0, 64, 69
1, 17728, Control_c, 0, 64, 69
1, 17731, Note_off_c, 0, 83, 37
1, 17743, Control_c, 0, 64, 62
1, 17758, Control_c, 0, 64, 39
1, 17765, Note_on_c, 0, 67, 71
1, 17770, Note_on_c, 0, 74, 71
1, 17772, Control_c, 0, 64, 0
1, 17774, Note_on_c, 0, 76, 79
1, 17780, Note_on_c, 0, 83, 73
1, 17788, Note_on_c, 0, 79, 66
1, 17809, Note_off_c, 0, 74, 61
1, 17816, Control_c, 0, 64, 44
1, 17818, Note_off_c, 0, 67, 58
1, 17831, Control_c, 0, 64, 62
1, 17846, Control_c, 0, 64, 67
1, 17861, Control_c, 0, 64, 67
1, 17871, Note_on_c, 0, 67, 52
1, 17875, Note_on_c, 0, 74, 65
1, 17876, Control_c, 0, 64, 67
1, 17877, Note_on_c, 0, 69, 77
1, 17892, Note_off_c, 0, 76, 52
1, 17900, Note_off_c, 0, 83, 60
1, 17907, Note_off_c, 0, 67, 63
1, 17910, Note_off_c, 0, 74, 63
1, 17928, Note_off_c, 0, 79, 61
1, 17930, Note_off_c, 0, 69, 62
1, 17970, Note_on_c, 0, 67, 64
1, 17975, Note_on_c, 0, 69, 47
1, 17980, Control_c, 0, 64, 67
1, 17985, Note_on_c, 0, 74, 55
1, 17988, Note_on_c, 0, 76, 85
1, 17989, Note_on_c, 0, 71, 77
1, 17991, Note_on_c, 0, 78, 81
1, 17993, Note_on_c, 0, 83, 79
1, 18003, Note_off_c, 0, 69, 67
1, 18012, Note_off_c, 0, 67, 62
1, 18026, Control_c, 0, 64, 68
1, 18032, Note_off_c, 0, 74, 60
1, 18037, Note_off_c, 0, 71, 62
1, 18039, Note_off_c, 0, 76, 62
1, 18051, Note_off_c, 0, 83, 62
1, 18056, Note_off_c, 0, 78, 61
1, 18070, Control_c, 0, 64, 69
1, 18092, Note_on_c, 0, 73, 86
1, 18092, Control_c, 0, 64, 70
1, 18098, Note_on_c, 0, 67, 39
1, 18107, Control_c, 0, 64, 71
1, 18122, Note_off_c, 0, 67, 55
1, 18122, Control_c, 0, 64, 72
1, 18140, Note_off_c, 0, 73, 63
1, 18152, Control_c, 0, 64, 69
1, 18167, Control_c, 0, 64, 58
1, 18181, Control_c, 0, 64, 0
1, 18195, Note_on_c, 0, 76, 86
1, 18200, Note_on_c, 0, 74, 83
1, 18202, Note_on_c, 0, 67, 77
1, 18203, Note_on_c, 0, 83, 79
1, 18240, Control_c, 0, 64, 48
1, 18243, Note_off_c, 0, 76, 62
1, 18245, Note_off_c, 0, 83, 60
1, 18255, Control_c, 0, 64, 63
1, 18270, Control_c, 0, 64, 68
1, 18285, Control_c, 0, 64, 68
1, 18300, Note_on_c, 0, 78, 82
1, 18300, Control_c, 0, 64, 69
1, 18305, Note_on_c, 0, 76, 69
1, 18307, Note_off_c, 0, 67, 56
1, 18309, Note_on_c, 0, 83, 65
1, 18314, Control_c, 0, 64, 70
1, 18329, Control_c, 0, 64, 71
1, 18332, Note_off_c, 0, 74, 38
1, 18338, Note_off_c, 0, 76, 62
1, 18338, Note_off_c, 0, 83, 64
1, 18347, Note_off_c, 0, 78, 64
1, 18374, Control_c, 0, 64, 71
1, 18388, Control_c, 0, 64, 68
1, 18403, Control_c, 0, 64, 66
1, 18415, Note_on_c, 0, 76, 84
1, 18418, Control_c, 0, 64, 65
1, 18420, Note_on_c, 0, 74, 77
1, 18422, Note_on_c, 0, 79, 77
1, 18426, Note_on_c, 0, 83, 76
1, 18427, Note_on_c, 0, 69, 68
1, 18439, Note_on_c, 0, 67, 54
1, 18447, Control_c, 0, 64, 65
1, 18452, Note_off_c, 0, 83, 64
1, 18454, Note_off_c, 0, 76, 58
1, 18455, Note_off_c, 0, 74, 61
1, 18461, Note_off_c, 0, 67, 65
1, 18462, Note_off_c, 0, 69, 63
1, 18462, Control_c, 0, 64, 67
1, 18466, Note_off_c, 0, 79, 64
1, 18477, Control_c, 0, 64, 68
1, 18492, Control_c, 0, 64, 70
1, 18506, Control_c, 0, 64, 71
1, 18521, Note_on_c, 0, 81, 84
1, 18521, Control_c, 0, 64, 72
1, 18524, Note_on_c, 0, 76, 74
1, 18554, Note_off_c, 0, 76, 59
1, 18569, Note_off_c, 0, 81, 65
1, 18581, Control_c, 0, 64, 70
1, 18596, Control_c, 0, 64, 61
1, 18611, Control_c, 0, 64, 0
1, 18627, Note_on_c, 0, 74, 67
1, 18632, Note_on_c, 0, 83, 64
1, 18634, Note_on_c, 0, 67, 63
1, 18638, Note_on_c, 0, 76, 83
1, 18668, Note_off_c, 0, 74, 63
1, 18669, Note_off_c, 0, 76, 61
1, 18670, Control_c, 0, 64, 57
1, 18673, Note_off_c, 0, 67, 58
1, 18678, Note_off_c, 0, 83, 64
1, 18685, Control_c, 0, 64, 71
1, 18700, Control_c, 0, 64, 80
1, 18714, Control_c, 0, 64, 83
1, 18739, Note_on_c, 0, 83, 70
1, 18740, Note_on_c, 0, 76, 78
1, 18753, Note_on_c, 0, 74, 64
1, 18760, Note_on_c, 0, 67, 56
1, 18765, Note_off_c, 0, 76, 64
1, 18777, Note_off_c, 0, 74, 59
1, 18783, Note_off_c, 0, 83, 62
1, 18790, Note_off_c, 0, 67, 64
1, 18987, Note_on_c, 0, 83, 78
1, 18993, Note_on_c, 0, 74, 69
1, 18997, Note_on_c, 0, 67, 60
1, 18999, Note_on_c, 0, 76, 68
1, 19016, Note_off_c, 0, 76, 66
1, 19025, Note_off_c, 0, 74, 61
1, 19027, Note_off_c, 0, 67, 64
1, 19030, Note_off_c, 0, 83, 61
1, 19182, Control_c, 0, 64, 83
1, 19220, Note_on_c, 0, 83, 73
1, 19221, Note_on_c, 0, 76, 73
1, 19223, Note_on_c, 0, 74, 70
1, 19234, Note_on_c, 0, 67, 52
1, 19246, Note_off_c, 0, 76, 66
1, 19249, Note_off_c, 0, 83, 60
1, 19253, Note_off_c, 0, 74, 64
1, 19261, Note_off_c, 0, 67, 61
1, 19344, Control_c, 0, 64, 84
1, 19359, Control_c, 0, 64, 84
1, 19374, Control_c, 0, 64, 85
1, 19389, Control_c, 0, 64, 85
1, 19448, Control_c, 0, 64, 86
1, 19454, Note_on_c, 0, 74, 64
1, 19454, Note_on_c, 0, 83, 70
1, 19457, Note_on_c, 0, 76, 72
1, 19462, Control_c, 0, 64, 87
1, 19463, Note_on_c, 0, 67, 49
1, 19472, Note_off_c, 0, 74, 65
1, 19474, Note_off_c, 0, 76, 67
1, 19476, Note_off_c, 0, 83, 65
1, 19477, Control_c, 0, 64, 90
1, 19485, Note_off_c, 0, 67, 60
1, 19492, Control_c, 0, 64, 91
1, 19536, Control_c, 0, 64, 92
1, 19551, Control_c, 0, 64, 92
1, 19566, Control_c, 0, 64, 94
1, 19588, Control_c, 0, 64, 97
1, 19671, Note_on_c, 0, 74, 72
1, 19672, Note_on_c, 0, 83, 76
1, 19676, Note_on_c, 0, 76, 77
1, 19687, Note_on_c, 0, 67, 51
1, 19693, Control_c, 0, 64, 99
1, 19699, Note_off_c, 0, 76, 65
1, 19704, Note_off_c, 0, 74, 59
1, 19708, Note_off_c, 0, 83, 58
1, 19709, Note_off_c, 0, 67, 60
1, 19782, Control_c, 0, 64, 102
1, 19788, Note_on_c, 0, 76, 82
1, 19790, Note_on_c, 0, 83, 78
1, 19794, Note_on_c, 0, 67, 59
1, 19794, Note_on_c, 0, 74, 71
1, 19806, Note_off_c, 0, 76, 73
1, 19809, Note_off_c, 0, 83, 70
1, 19810, Note_off_c, 0, 74, 64
1, 19811, Control_c, 0, 64, 106
1, 19815, Note_off_c, 0, 67, 60
1, 19826, Control_c, 0, 64, 120
1, 19841, Control_c, 0, 64, 127
1, 20160, Note_on_c, 0, 64, 62
1, 20170, Note_on_c, 0, 55, 47
1, 20171, Note_on_c, 0, 71, 60
1, 20173, Note_on_c, 0, 62, 52
1, 20191, Note_off_c, 0, 64, 65
1, 20201, Note_off_c, 0, 62, 61
1, 20201, Note_off_c, 0, 71, 66
1, 20211, Note_off_c, 0, 55, 62
1, 20395, Note_on_c, 0, 62, 64
1, 20395, Note_on_c, 0, 64, 66
1, 20398, Note_on_c, 0, 55, 49
1, 20399, Note_on_c, 0, 71, 69
1, 20423, Note_off_c, 0, 55, 61
1, 20424, Note_off_c, 0, 64, 65
1, 20426, Note_off_c, 0, 62, 65
1, 20429, Note_off_c, 0, 71, 66
1, 20619, Note_on_c, 0, 62, 72
1, 20620, Note_on_c, 0, 55, 72
1, 20621, Note_on_c, 0, 71, 78
1, 20622, Note_on_c, 0, 64, 74
1, 20655, Note_off_c, 0, 55, 59
1, 20658, Note_off_c, 0, 62, 58
1, 20664, Note_off_c, 0, 64, 58
1, 20671, Note_off_c, 0, 71, 63
1, 20731, Note_on_c, 0, 62, 79
1, 20735, Note_on_c, 0, 64, 80
1, 20736, Note_on_c, 0, 71, 78
1, 20740, Note_on_c, 0, 55, 73
1, 20751, Note_off_c, 0, 62, 71
1, 20754, Note_off_c, 0, 64, 71
1, 20757, Note_off_c, 0, 71, 71
1, 20768, Note_off_c, 0, 55, 65
1, 21101, Note_on_c, 0, 50, 68
1, 21106, Note_on_c, 0, 52, 68
1, 21106, Note_on_c, 0, 59, 61
1, 21110, Note_on_c, 0, 43, 58
1, 21138, Note_off_c, 0, 50, 61
1, 21145, Note_off_c, 0, 52, 62
1, 21147, Note_off_c, 0, 43, 64
1, 21156, Note_off_c, 0, 59, 62
1, 21206, Control_c, 0, 64, 76
1, 21213, Note_on_c, 0, 59, 74
1, 21218, Note_on_c, 0, 52, 89
1, 21219, Note_on_c, 0, 50, 98
1, 21221, Control_c, 0, 64, 68
1, 21222, Note_on_c, 0, 43, 86
1, 21236, Control_c, 0, 64, 73
1, 21250, Control_c, 0, 64, 94
1, 21255, Note_off_c, 0, 50, 64
1, 21259, Note_off_c, 0, 43, 61
1, 21265, Control_c, 0, 64, 127
1, 21277, Note_off_c, 0, 52, 55
1, 21313, Note_off_c, 0, 59, 61
1, 21576, Note_on_c, 0, 50, 81
1, 21580, Note_on_c, 0, 59, 76
1, 21582, Note_on_c, 0, 52, 84
1, 21583, Note_on_c, 0, 43, 71
1, 21591, Control_c, 0, 64, 84
1, 21606, Control_c, 0, 64, 53
1, 21611, Note_off_c, 0, 50, 61
1, 21613, Note_off_c, 0, 43, 65
1, 21621, Control_c, 0, 64, 0
1, 21621, Control_c, 0, 67, 118
1, 21624, Note_off_c, 0, 52, 62
1, 21627, Note_off_c, 0, 59, 65
1, 21636, Control_c, 0, 67, 94
1, 21650, Control_c, 0, 67, 71
1, 21665, Control_c, 0, 67, 62
1, 21680, Control_c, 0, 67, 62
1, 21687, Note_on_c, 0, 50, 95
1, 21691, Note_on_c, 0, 52, 97
1, 21693, Note_on_c, 0, 43, 85
1, 21693, Note_on_c, 0, 59, 87
1, 21695, Control_c, 0, 64, 71
1, 21710, Control_c, 0, 64, 127
1, 21710, Control_c, 0, 67, 61
1, 21724, Control_c, 0, 67, 61
1, 21726, Note_off_c, 0, 50, 65
1, 21728, Note_off_c, 0, 43, 63
1, 21783, Control_c, 0, 67, 60
1, 21798, Control_c, 0, 67, 60
1, 21813, Control_c, 0, 67, 59
1, 21880, Control_c, 0, 67, 57
1, 21895, Control_c, 0, 67, 49
1, 21902, Note_off_c, 0, 59, 60
1, 21906, Note_off_c, 0, 52, 60
1, 21910, Control_c, 0, 67, 32
1, 21925, Control_c, 0, 67, 0
1, 21961, Poly_aftertouch_c, 0, 43, 0
1, 22014, Control_c, 0, 64, 85
1, 22024, Note_on_c, 0, 50, 95
1, 22027, Note_on_c, 0, 43, 87
1, 22029, Control_c, 0, 64, 58
1, 22030, Note_on_c, 0, 52, 95
1, 22030, Note_on_c, 0, 59, 92
1, 22044, Control_c, 0, 64, 34
1, 22059, Control_c, 0, 64, 50
1, 22063, Note_off_c, 0, 50, 65
1, 22069, Note_off_c, 0, 52, 61
1, 22073, Note_off_c, 0, 43, 62
1, 22074, Control_c, 0, 64, 64
1, 22088, Control_c, 0, 64, 71
1, 22097, Note_off_c, 0, 59, 53
1, 22103, Control_c, 0, 64, 67
1, 22103, Control_c, 0, 67, 19
1, 22118, Control_c, 0, 64, 54
1, 22133, Control_c, 0, 64, 0
1, 22133, Control_c, 0, 67, 0
1, 22140, Note_on_c, 0, 50, 86
1, 22152, Note_on_c, 0, 43, 67
1, 22163, Note_off_c, 0, 50, 69
1, 22182, Note_off_c, 0, 43, 64
1, 22192, Control_c, 0, 67, 20
1, 22248, Note_on_c, 0, 50, 83
1, 22249, Note_on_c, 0, 43, 77
1, 22277, Note_off_c, 0, 50, 65
1, 22282, Note_off_c, 0, 43, 68
1, 22325, Control_c, 0, 67, 0
1, 22355, Control_c, 0, 67, 21
1, 22361, Note_on_c, 0, 50, 100
1, 22364, Note_on_c, 0, 59, 95
1, 22366, Note_on_c, 0, 43, 88
1, 22367, Note_on_c, 0, 52, 96
1, 22370, Control_c, 0, 64, 49
1, 22370, Control_c, 0, 67, 24
1, 22385, Control_c, 0, 64, 127
1, 22385, Control_c, 0, 67, 26
1, 22399, Note_off_c, 0, 50, 64
1, 22402, Note_off_c, 0, 43, 64
1, 22414, Control_c, 0, 67, 22
1, 22440, Note_off_c, 0, 52, 63
1, 22459, Note_off_c, 0, 59, 63
1, 22459, Control_c, 0, 67, 26
1, 22469, Note_on_c, 0, 50, 101
1, 22474, Note_on_c, 0, 43, 91
1, 22499, Note_off_c, 0, 50, 69
1, 22502, Note_off_c, 0, 43, 68
1, 22503, Control_c, 0, 67, 22
1, 22532, Control_c, 0, 67, 27
1, 22547, Control_c, 0, 67, 38
1, 22562, Control_c, 0, 64, 92
1, 22562, Control_c, 0, 67, 60
1, 22584, Control_c, 0, 64, 56
1, 22584, Control_c, 0, 67, 79
1, 22599, Control_c, 0, 64, 0
1, 22599, Control_c, 0, 67, 81
1, 22614, Control_c, 0, 67, 80
1, 22629, Control_c, 0, 67, 81
1, 22644, Control_c, 0, 67, 87
1, 22659, Control_c, 0, 67, 103
1, 22674, Control_c, 0, 67, 123
1, 22688, Control_c, 0, 67, 127
1, 22792, Control_c, 0, 67, 125
1, 22837, Control_c, 0, 67, 127
1, 22882, Control_c, 0, 67, 124
1, 22943, Note_on_c, 0, 64, 58
1, 22947, Note_on_c, 0, 59, 46
1, 22954, Note_on_c, 0, 57, 50
1, 22974, Note_off_c, 0, 59, 60
1, 22976, Note_off_c, 0, 64, 63
1, 22981, Note_off_c, 0, 57, 60
1, 23000, Control_c, 0, 67, 126
1, 23062, Note_on_c, 0, 57, 61
1, 23064, Note_on_c, 0, 60, 54
1, 23064, Note_on_c, 0, 64, 53
1, 23177, Control_c, 0, 64, 46
1, 23192, Control_c, 0, 64, 56
1, 23207, Control_c, 0, 64, 59
1, 23222, Control_c, 0, 64, 59
1, 23226, Note_off_c, 0, 57, 52
1, 23226, Note_off_c, 0, 60, 59
1, 23226, Note_off_c, 0, 64, 59
1, 23237, Control_c, 0, 64, 58
1, 23252, Control_c, 0, 64, 59
1, 23267, Control_c, 0, 64, 60
1, 23282, Control_c, 0, 64, 60
1, 23288, Note_on_c, 0, 62, 68
1, 23292, Note_on_c, 0, 57, 53
1, 23297, Control_c, 0, 64, 61
1, 23329, Note_off_c, 0, 62, 62
1, 23335, Note_off_c, 0, 57, 65
1, 23362, Control_c, 0, 64, 60
1, 23377, Control_c, 0, 64, 52
1, 23392, Note_on_c, 0, 64, 55
1, 23392, Control_c, 0, 64, 0
1, 23398, Note_on_c, 0, 48, 75
1, 23402, Note_on_c, 0, 57, 70
1, 23407, Note_on_c, 0, 60, 52
1, 23410, Note_on_c, 0, 53, 61
1, 23426, Note_off_c, 0, 48, 65
1, 23439, Note_off_c, 0, 53, 65
1, 23508, Note_on_c, 0, 50, 73
1, 23511, Note_on_c, 0, 53, 64
1, 23520, Note_off_c, 0, 64, 59
1, 23553, Note_off_c, 0, 57, 56
1, 23555, Control_c, 0, 64, 39
1, 23565, Note_off_c, 0, 60, 63
1, 23570, Control_c, 0, 64, 39
1, 23585, Control_c, 0, 64, 39
1, 23601, Control_c, 0, 64, 39
1, 23616, Control_c, 0, 64, 41
1, 23621, Note_on_c, 0, 57, 42
1, 23626, Note_on_c, 0, 59, 55
1, 23630, Note_on_c, 0, 64, 63
1, 23631, Control_c, 0, 64, 44
1, 23633, Note_off_c, 0, 50, 61
1, 23645, Control_c, 0, 64, 45
1, 23651, Note_off_c, 0, 53, 50
1, 23675, Control_c, 0, 64, 46
1, 23690, Control_c, 0, 64, 48
1, 23705, Control_c, 0, 64, 52
1, 23720, Note_on_c, 0, 52, 73
1, 23720, Control_c, 0, 64, 56
1, 23734, Control_c, 0, 64, 58
1, 23737, Note_off_c, 0, 57, 56
1, 23741, Note_off_c, 0, 64, 60
1, 23749, Note_on_c, 0, 53, 50
1, 23749, Control_c, 0, 64, 59
1, 23762, Note_off_c, 0, 59, 61
1, 23768, Note_off_c, 0, 52, 60
1, 23774, Note_off_c, 0, 53, 57
1, 23778, Control_c, 0, 64, 54
1, 23793, Control_c, 0, 64, 0
1, 23835, Note_on_c, 0, 57, 72
1, 23836, Note_on_c, 0, 53, 79
1, 23839, Note_on_c, 0, 50, 71
1, 23841, Note_on_c, 0, 64, 61
1, 23863, Note_off_c, 0, 57, 65
1, 23867, Control_c, 0, 64, 40
1, 23869, Note_off_c, 0, 64, 66
1, 23882, Control_c, 0, 64, 46
1, 23897, Control_c, 0, 64, 41
1, 23912, Control_c, 0, 64, 39
1, 23926, Control_c, 0, 64, 43
1, 23932, Note_on_c, 0, 59, 65
1, 23935, Note_on_c, 0, 57, 57
1, 23939, Note_on_c, 0, 64, 59
1, 23941, Control_c, 0, 64, 49
1, 23956, Control_c, 0, 64, 54
1, 23962, Note_off_c, 0, 59, 66
1, 23967, Note_off_c, 0, 57, 65
1, 23968, Note_off_c, 0, 64, 67
1, 23970, Control_c, 0, 64, 57
1, 23973, Note_off_c, 0, 50, 58
1, 23973, Note_off_c, 0, 53, 54
1, 23985, Control_c, 0, 64, 56
1, 24000, Control_c, 0, 64, 52
1, 24015, Control_c, 0, 64, 45
1, 24030, Control_c, 0, 64, 35
1, 24042, Note_on_c, 0, 57, 70
1, 24045, Control_c, 0, 64, 0
1, 24049, Note_on_c, 0, 60, 62
1, 24056, Note_on_c, 0, 64, 53
1, 24057, Note_on_c, 0, 48, 65
1, 24060, Control_c, 0, 64, 33
1, 24064, Note_on_c, 0, 53, 55
1, 24078, Note_off_c, 0, 57, 64
1, 24082, Control_c, 0, 64, 40
1, 24090, Note_off_c, 0, 60, 66
1, 24094, Note_off_c, 0, 64, 58
1, 24097, Control_c, 0, 64, 47
1, 24102, Note_off_c, 0, 48, 63
1, 24106, Note_off_c, 0, 53, 64
1, 24112, Control_c, 0, 64, 51
1, 24126, Control_c, 0, 64, 51
1, 24141, Control_c, 0, 64, 52
1, 24156, Control_c, 0, 64, 53
1, 24157, Note_on_c, 0, 57, 65
1, 24160, Note_on_c, 0, 62, 68
1, 24171, Control_c, 0, 64, 54
1, 24185, Note_off_c, 0, 57, 65
1, 24185, Control_c, 0, 64, 56
1, 24191, Note_off_c, 0, 62, 63
1, 24200, Control_c, 0, 64, 58
1, 24215, Control_c, 0, 64, 59
1, 24230, Control_c, 0, 64, 58
1, 24245, Control_c, 0, 64, 51
1, 24260, Control_c, 0, 64, 0
1, 24270, Note_on_c, 0, 47, 69
1, 24277, Note_on_c, 0, 53, 66
1, 24300, Note_off_c, 0, 47, 66
1, 24304, Note_off_c, 0, 53, 65
1, 24378, Note_on_c, 0, 48, 70
1, 24380, Note_on_c, 0, 53, 58
1, 24380, Note_on_c, 0, 71, 71
1, 24383, Note_on_c, 0, 76, 66
1, 24385, Note_on_c, 0, 69, 54
1, 24407, Note_off_c, 0, 48, 65
1, 24407, Note_off_c, 0, 71, 68
1, 24409, Note_off_c, 0, 69, 64
1, 24412, Note_off_c, 0, 76, 62
1, 24415, Note_off_c, 0, 53, 64
1, 24475, Note_on_c, 0, 50, 76
1, 24477, Note_on_c, 0, 72, 72
1, 24480, Note_on_c, 0, 69, 72
1, 24482, Note_on_c, 0, 76, 68
1, 24498, Note_on_c, 0, 53, 50
1, 24502, Note_off_c, 0, 50, 68
1, 24505, Note_off_c, 0, 69, 67
1, 24510, Note_off_c, 0, 76, 66
1, 24513, Note_off_c, 0, 72, 61
1, 24524, Note_off_c, 0, 53, 57
1, 24569, Note_on_c, 0, 52, 78
1, 24578, Note_on_c, 0, 74, 88
1, 24581, Note_on_c, 0, 69, 77
1, 24588, Note_on_c, 0, 76, 72
1, 24591, Note_off_c, 0, 52, 69
1, 24606, Note_off_c, 0, 69, 63
1, 24611, Note_off_c, 0, 76, 69
1, 24618, Note_off_c, 0, 74, 63
1, 24678, Note_on_c, 0, 76, 90
1, 24680, Note_on_c, 0, 69, 89
1, 24683, Note_on_c, 0, 72, 84
1, 24719, Control_c, 0, 64, 60
1, 24734, Control_c, 0, 64, 64
1, 24749, Control_c, 0, 64, 58
1, 24764, Control_c, 0, 64, 0
1, 24798, Note_on_c, 0, 53, 71
1, 24808, Control_c, 0, 64, 34
1, 24812, Note_on_c, 0, 60, 51
1, 24831, Control_c, 0, 64, 60
1, 24835, Note_off_c, 0, 76, 53
1, 24841, Note_off_c, 0, 53, 60
1, 24846, Control_c, 0, 64, 63
1, 24850, Note_off_c, 0, 60, 54
1, 24850, Note_off_c, 0, 69, 58
1, 24861, Control_c, 0, 64, 59
1, 24875, Control_c, 0, 64, 49
1, 24880, Note_off_c, 0, 72, 59
1, 24890, Control_c, 0, 64, 0
1, 24905, Control_c, 0, 64, 34
1, 24909, Note_on_c, 0, 69, 58
1, 24915, Note_on_c, 0, 71, 70
1, 24920, Control_c, 0, 64, 50
1, 24923, Note_on_c, 0, 76, 71
1, 24927, Note_on_c, 0, 55, 54
1, 24930, Note_on_c, 0, 60, 64
1, 24934, Control_c, 0, 64, 60
1, 24940, Note_on_c, 0, 57, 57
1, 24949, Control_c, 0, 64, 62
1, 24964, Control_c, 0, 64, 60
1, 24966, Note_off_c, 0, 57, 59
1, 24966, Note_off_c, 0, 60, 62
1, 24967, Note_off_c, 0, 55, 65
1, 24979, Control_c, 0, 64, 59
1, 24985, Note_off_c, 0, 69, 0
1, 24994, Control_c, 0, 64, 60
1, 24998, Note_off_c, 0, 71, 0
1, 25008, Control_c, 0, 64, 62
1, 25017, Note_on_c, 0, 60, 59
1, 25022, Poly_aftertouch_c, 0, 69, 127
1, 25023, Note_on_c, 0, 57, 85
1, 25023, Control_c, 0, 64, 64
1, 25035, Poly_aftertouch_c, 0, 71, 127
1, 25038, Control_c, 0, 64, 65
1, 25049, Note_off_c, 0, 76, 61
1, 25049, Note_off_c, 0, 60, 64
1, 25050, Note_off_c, 0, 57, 67
1, 25053, Control_c, 0, 64, 66
1, 25064, Poly_aftertouch_c, 0, 71, 0
1, 25069, Poly_aftertouch_c, 0, 69, 0
1, 25082, Control_c, 0, 64, 63
1, 25097, Control_c, 0, 64, 39
1, 25112, Control_c, 0, 64, 0
1, 25113, Note_on_c, 0, 59, 88
1, 25122, Note_on_c, 0, 60, 80
1, 25137, Note_on_c, 0, 69, 85
1, 25142, Note_on_c, 0, 76, 84
1, 25172, Control_c, 0, 64, 51
1, 25184, Note_off_c, 0, 76, 63
1, 25185, Note_off_c, 0, 69, 62
1, 25187, Control_c, 0, 64, 61
1, 25202, Control_c, 0, 64, 61
1, 25217, Control_c, 0, 64, 59
1, 25222, Note_off_c, 0, 60, 62
1, 25231, Control_c, 0, 64, 60
1, 25237, Note_off_c, 0, 59, 60
1, 25241, Note_on_c, 0, 69, 69
1, 25246, Control_c, 0, 64, 63
1, 25247, Note_on_c, 0, 71, 74
1, 25251, Note_on_c, 0, 76, 74
1, 25261, Control_c, 0, 64, 64
1, 25270, Note_off_c, 0, 71, 69
1, 25276, Control_c, 0, 64, 65
1, 25282, Note_off_c, 0, 69, 60
1, 25282, Note_off_c, 0, 76, 64
1, 25291, Control_c, 0, 64, 65
1, 25306, Control_c, 0, 64, 59
1, 25321, Control_c, 0, 64, 0
1, 25345, Note_on_c, 0, 55, 69
1, 25350, Note_on_c, 0, 60, 67
1, 25350, Note_on_c, 0, 69, 65
1, 25353, Note_on_c, 0, 72, 72
1, 25360, Note_on_c, 0, 76, 65
1, 25380, Note_off_c, 0, 69, 63
1, 25380, Control_c, 0, 64, 51
1, 25381, Note_off_c, 0, 76, 66
1, 25385, Note_off_c, 0, 72, 62
1, 25387, Note_off_c, 0, 60, 66
1, 25395, Control_c, 0, 64, 67
1, 25395, Note_off_c, 0, 55, 62
1, 25410, Control_c, 0, 64, 71
1, 25439, Control_c, 0, 64, 69
1, 25444, Note_on_c, 0, 69, 70
1, 25448, Note_on_c, 0, 74, 77
1, 25469, Note_off_c, 0, 69, 69
1, 25469, Control_c, 0, 64, 70
1, 25477, Note_off_c, 0, 74, 63
1, 25478, Note_on_c, 0, 76, 28
1, 25484, Control_c, 0, 64, 71
1, 25498, Control_c, 0, 64, 73
1, 25513, Control_c, 0, 64, 72
1, 25514, Note_off_c, 0, 76, 32
1, 25528, Control_c, 0, 64, 62
1, 25542, Control_c, 0, 64, 0
1, 25546, Note_on_c, 0, 53, 76
1, 25552, Note_on_c, 0, 60, 75
1, 25588, Note_off_c, 0, 53, 64
1, 25589, Note_off_c, 0, 60, 66
1, 25595, Control_c, 0, 64, 34
1, 25610, Control_c, 0, 64, 60
1, 25624, Control_c, 0, 64, 67
1, 25639, Control_c, 0, 64, 66
1, 25654, Control_c, 0, 64, 61
1, 25669, Control_c, 0, 64, 57
1, 25673, Note_on_c, 0, 55, 74
1, 25675, Note_on_c, 0, 83, 70
1, 25676, Note_on_c, 0, 88, 70
1, 25677, Note_on_c, 0, 81, 67
1, 25683, Note_on_c, 0, 60, 55
1, 25684, Control_c, 0, 64, 59
1, 25698, Control_c, 0, 64, 65
1, 25699, Note_off_c, 0, 55, 65
1, 25701, Note_off_c, 0, 83, 66
1, 25707, Note_off_c, 0, 81, 65
1, 25712, Note_off_c, 0, 60, 65
1, 25713, Control_c, 0, 64, 68
1, 25718, Note_off_c, 0, 88, 64
1, 25728, Control_c, 0, 64, 67
1, 25743, Control_c, 0, 64, 59
1, 25757, Control_c, 0, 64, 0
1, 25775, Note_on_c, 0, 57, 79
1, 25779, Note_on_c, 0, 81, 83
1, 25780, Note_on_c, 0, 84, 81
1, 25783, Note_on_c, 0, 60, 62
1, 25784, Note_on_c, 0, 88, 72
1, 25802, Control_c, 0, 64, 46
1, 25808, Note_off_c, 0, 57, 63
1, 25813, Note_off_c, 0, 81, 63
1, 25813, Note_off_c, 0, 88, 64
1, 25817, Control_c, 0, 64, 65
1, 25819, Note_off_c, 0, 60, 61
1, 25819, Note_off_c, 0, 84, 62
1, 25831, Control_c, 0, 64, 74
1, 25846, Control_c, 0, 64, 73
1, 25861, Control_c, 0, 64, 67
1, 25864, Note_on_c, 0, 59, 75
1, 25876, Control_c, 0, 64, 59
1, 25879, Note_on_c, 0, 86, 93
1, 25880, Note_on_c, 0, 81, 85
1, 25890, Note_off_c, 0, 59, 67
1, 25891, Control_c, 0, 64, 58
1, 25896, Note_on_c, 0, 88, 72
1, 25905, Control_c, 0, 64, 64
1, 25908, Note_off_c, 0, 81, 65
1, 25918, Note_off_c, 0, 88, 70
1, 25920, Control_c, 0, 64, 66
1, 25925, Note_off_c, 0, 86, 66
1, 25935, Control_c, 0, 64, 59
1, 25950, Control_c, 0, 64, 0
1, 25980, Note_on_c, 0, 81, 101
1, 25980, Note_on_c, 0, 88, 102
1, 25981, Note_on_c, 0, 84, 101
1, 26010, Control_c, 0, 64, 60
1, 26025, Control_c, 0, 64, 75
1, 26040, Control_c, 0, 64, 74
1, 26054, Control_c, 0, 64, 67
1, 26069, Control_c, 0, 64, 57
1, 26084, Control_c, 0, 64, 56
1, 26092, Note_on_c, 0, 62, 73
1, 26098, Note_on_c, 0, 69, 65
1, 26099, Control_c, 0, 64, 64
1, 26105, Note_off_c, 0, 81, 53
1, 26114, Note_off_c, 0, 88, 61
1, 26114, Control_c, 0, 64, 71
1, 26125, Note_off_c, 0, 69, 65
1, 26129, Control_c, 0, 64, 75
1, 26132, Note_off_c, 0, 62, 56
1, 26143, Control_c, 0, 64, 72
1, 26159, Control_c, 0, 64, 63
1, 26173, Control_c, 0, 64, 48
1, 26181, Note_off_c, 0, 84, 44
1, 26188, Control_c, 0, 64, 36
1, 26201, Note_on_c, 0, 81, 76
1, 26203, Control_c, 0, 64, 51
1, 26205, Note_on_c, 0, 64, 75
1, 26205, Note_on_c, 0, 88, 79
1, 26206, Note_on_c, 0, 83, 73
1, 26215, Note_on_c, 0, 69, 71
1, 26218, Control_c, 0, 64, 64
1, 26233, Control_c, 0, 64, 71
1, 26242, Note_off_c, 0, 83, 56
1, 26248, Control_c, 0, 64, 74
1, 26249, Note_off_c, 0, 64, 62
1, 26251, Note_off_c, 0, 69, 60
1, 26258, Note_off_c, 0, 88, 64
1, 26281, Note_off_c, 0, 81, 60
1, 26292, Control_c, 0, 64, 75
1, 26307, Control_c, 0, 64, 78
1, 26312, Note_on_c, 0, 69, 75
1, 26313, Note_on_c, 0, 65, 93
1, 26329, Control_c, 0, 64, 83
1, 26344, Control_c, 0, 64, 91
1, 26359, Control_c, 0, 64, 97
1, 26364, Note_off_c, 0, 65, 62
1, 26365, Note_off_c, 0, 69, 61
1, 26373, Control_c, 0, 64, 95
1, 26373, Control_c, 0, 67, 103
1, 26388, Control_c, 0, 64, 75
1, 26388, Control_c, 0, 67, 30
1, 26403, Control_c, 0, 64, 40
1, 26403, Control_c, 0, 67, 23
1, 26418, Control_c, 0, 64, 0
1, 26418, Control_c, 0, 67, 33
1, 26423, Note_on_c, 0, 69, 86
1, 26430, Note_on_c, 0, 64, 86
1, 26433, Control_c, 0, 67, 48
1, 26448, Control_c, 0, 64, 43
1, 26448, Control_c, 0, 67, 54
1, 26462, Control_c, 0, 64, 68
1, 26462, Control_c, 0, 67, 52
1, 26477, Note_off_c, 0, 69, 59
1, 26477, Control_c, 0, 64, 84
1, 26477, Control_c, 0, 67, 48
1, 26492, Control_c, 0, 64, 86
1, 26492, Control_c, 0, 67, 50
1, 26507, Control_c, 0, 64, 80
1, 26507, Control_c, 0, 67, 56
1, 26522, Control_c, 0, 64, 76
1, 26522, Control_c, 0, 67, 60
1, 26524, Note_off_c, 0, 64, 41
1, 26537, Control_c, 0, 64, 79
1, 26537, Control_c, 0, 67, 66
1, 26543, Note_on_c, 0, 71, 74
1, 26552, Control_c, 0, 64, 88
1, 26552, Control_c, 0, 67, 62
1, 26553, Note_on_c, 0, 76, 62
1, 26567, Control_c, 0, 64, 109
1, 26567, Control_c, 0, 67, 56
1, 26578, Note_off_c, 0, 71, 62
1, 26581, Control_c, 0, 64, 127
1, 26581, Control_c, 0, 67, 52
1, 26583, Note_off_c, 0, 76, 66
1, 26596, Control_c, 0, 67, 54
1, 26611, Control_c, 0, 67, 61
1, 26626, Control_c, 0, 64, 115
1, 26626, Control_c, 0, 67, 65
1, 26641, Control_c, 0, 64, 84
1, 26641, Control_c, 0, 67, 65
1, 26654, Note_on_c, 0, 62, 68
1, 26655, Control_c, 0, 64, 69
1, 26655, Control_c, 0, 67, 57
1, 26656, Note_on_c, 0, 72, 78
1, 26660, Note_on_c, 0, 69, 67
1, 26662, Note_on_c, 0, 76, 78
1, 26670, Control_c, 0, 64, 64
1, 26670, Control_c, 0, 67, 48
1, 26685, Control_c, 0, 64, 66
1, 26685, Control_c, 0, 67, 41
1, 26689, Note_off_c, 0, 69, 64
1, 26692, Note_off_c, 0, 72, 63
1, 26699, Control_c, 0, 64, 71
1, 26699, Control_c, 0, 67, 44
1, 26706, Note_off_c, 0, 62, 65
1, 26706, Note_off_c, 0, 76, 62
1, 26714, Control_c, 0, 64, 76
1, 26714, Control_c, 0, 67, 48
1, 26729, Control_c, 0, 64, 77
1, 26729, Control_c, 0, 67, 49
1, 26744, Control_c, 0, 64, 78
1, 26744, Control_c, 0, 67, 45
1, 26757, Note_on_c, 0, 74, 73
1, 26759, Control_c, 0, 64, 83
1, 26759, Control_c, 0, 67, 35
1, 26764, Note_on_c, 0, 72, 80
1, 26773, Control_c, 0, 64, 96
1, 26773, Control_c, 0, 67, 19
1, 26786, Note_on_c, 0, 76, 36
1, 26788, Control_c, 0, 64, 127
1, 26788, Control_c, 0, 67, 0
1, 26807, Note_off_c, 0, 72, 58
1, 26807, Note_off_c, 0, 74, 61
1, 26817, Note_off_c, 0, 76, 55
1, 26834, Control_c, 0, 64, 69
1, 26849, Control_c, 0, 64, 0
1, 26855, Note_on_c, 0, 69, 86
1, 26856, Note_on_c, 0, 76, 96
1, 26861, Note_on_c, 0, 72, 68
1, 26869, Note_on_c, 0, 71, 81
1, 26893, Control_c, 0, 64, 51
1, 26893, Control_c, 0, 67, 23
1, 26908, Control_c, 0, 64, 74
1, 26908, Control_c, 0, 67, 30
1, 26922, Control_c, 0, 64, 92
1, 26922, Control_c, 0, 67, 32
1, 26937, Control_c, 0, 64, 93
1, 26937, Control_c, 0, 67, 29
1, 26952, Control_c, 0, 64, 82
1, 26952, Control_c, 0, 67, 24
1, 26965, Note_on_c, 0, 50, 84
1, 26967, Control_c, 0, 64, 77
1, 26972, Note_off_c, 0, 71, 57
1, 26982, Control_c, 0, 64, 80
1, 26982, Control_c, 0, 67, 28
1, 26988, Note_on_c, 0, 57, 58
1, 26995, Note_off_c, 0, 69, 58
1, 26995, Note_off_c, 0, 76, 58
1, 26996, Control_c, 0, 64, 88
1, 26996, Control_c, 0, 67, 31
1, 27003, Note_on_c, 0, 55, 42
1, 27009, Note_off_c, 0, 50, 61
1, 27011, Control_c, 0, 64, 96
1, 27011, Control_c, 0, 67, 33
1, 27018, Note_off_c, 0, 57, 64
1, 27035, Note_off_c, 0, 55, 51
1, 27041, Control_c, 0, 64, 88
1, 27041, Control_c, 0, 67, 26
1, 27056, Control_c, 0, 64, 78
1, 27056, Control_c, 0, 67, 21
1, 27077, Note_on_c, 0, 52, 80
1, 27078, Control_c, 0, 64, 71
1, 27079, Note_on_c, 0, 57, 80
1, 27093, Control_c, 0, 64, 70
1, 27093, Control_c, 0, 67, 24
1, 27094, Note_on_c, 0, 76, 82
1, 27095, Note_on_c, 0, 69, 78
1, 27100, Note_on_c, 0, 71, 77
1, 27103, Note_off_c, 0, 72, 60
1, 27108, Control_c, 0, 64, 70
1, 27108, Control_c, 0, 67, 29
1, 27121, Note_off_c, 0, 57, 62
1, 27122, Note_off_c, 0, 52, 60
1, 27122, Control_c, 0, 64, 71
1, 27137, Control_c, 0, 67, 31
1, 27148, Note_off_c, 0, 69, 52
1, 27152, Control_c, 0, 67, 23
1, 27167, Control_c, 0, 67, 0
1, 27179, Note_on_c, 0, 53, 83
1, 27181, Note_on_c, 0, 57, 63
1, 27182, Control_c, 0, 64, 72
1, 27196, Control_c, 0, 64, 73
1, 27196, Control_c, 0, 67, 22
1, 27201, Note_off_c, 0, 76, 62
1, 27203, Note_off_c, 0, 71, 48
1, 27208, Note_off_c, 0, 53, 66
1, 27211, Control_c, 0, 64, 74
1, 27211, Control_c, 0, 67, 26
1, 27212, Note_off_c, 0, 57, 66
1, 27226, Control_c, 0, 64, 75
1, 27241, Control_c, 0, 67, 20
1, 27256, Control_c, 0, 64, 74
1, 27256, Control_c, 0, 67, 0
1, 27270, Control_c, 0, 64, 66
1, 27285, Note_on_c, 0, 57, 78
1, 27285, Control_c, 0, 64, 0
1, 27287, Note_on_c, 0, 52, 85
1, 27294, Note_on_c, 0, 69, 90
1, 27301, Note_on_c, 0, 76, 89
1, 27315, Control_c, 0, 67, 22
1, 27330, Control_c, 0, 67, 26
1, 27331, Note_off_c, 0, 52, 61
1, 27334, Note_off_c, 0, 57, 65
1, 27334, Note_off_c, 0, 76, 62
1, 27339, Note_off_c, 0, 69, 66
1, 27345, Control_c, 0, 64, 62
1, 27345, Control_c, 0, 67, 0
1, 27360, Control_c, 0, 64, 76
1, 27375, Control_c, 0, 64, 89
1, 27390, Control_c, 0, 64, 92
1, 27392, Note_on_c, 0, 71, 89
1, 27402, Note_on_c, 0, 76, 74
1, 27410, Note_on_c, 0, 69, 63
1, 27419, Control_c, 0, 64, 94
1, 27425, Note_off_c, 0, 76, 64
1, 27428, Note_off_c, 0, 69, 66
1, 27434, Control_c, 0, 64, 97
1, 27436, Note_off_c, 0, 71, 64
1, 27448, Control_c, 0, 64, 101
1, 27478, Control_c, 0, 64, 85
1, 27493, Control_c, 0, 64, 68
1, 27494, Note_on_c, 0, 69, 86
1, 27502, Note_on_c, 0, 72, 88
1, 27504, Note_on_c, 0, 57, 82
1, 27507, Note_on_c, 0, 50, 82
1, 27508, Note_on_c, 0, 76, 87
1, 27508, Control_c, 0, 64, 62
1, 27522, Control_c, 0, 64, 66
1, 27530, Note_off_c, 0, 57, 70
1, 27533, Note_off_c, 0, 50, 67
1, 27537, Control_c, 0, 64, 78
1, 27544, Note_off_c, 0, 69, 64
1, 27544, Note_off_c, 0, 72, 62
1, 27552, Control_c, 0, 64, 97
1, 27553, Note_off_c, 0, 76, 60
1, 27582, Control_c, 0, 64, 72
1, 27598, Control_c, 0, 64, 53
1, 27604, Note_on_c, 0, 69, 80
1, 27609, Note_on_c, 0, 74, 84
1, 27613, Control_c, 0, 64, 0
1, 27631, Note_on_c, 0, 76, 45
1, 27643, Note_off_c, 0, 69, 61
1, 27647, Note_off_c, 0, 74, 62
1, 27661, Note_off_c, 0, 76, 46
1, 27715, Control_c, 0, 67, 45
1, 27724, Note_on_c, 0, 57, 91
1, 27726, Note_on_c, 0, 67, 90
1, 27727, Note_on_c, 0, 48, 80
1, 27727, Note_on_c, 0, 76, 96
1, 27728, Note_on_c, 0, 55, 82
1, 27729, Note_on_c, 0, 50, 77
1, 27730, Note_on_c, 0, 74, 81
1, 27730, Control_c, 0, 64, 71
1, 27730, Control_c, 0, 67, 60
1, 27733, Note_on_c, 0, 69, 84
1, 27744, Control_c, 0, 64, 127
1, 27744, Control_c, 0, 67, 49
1, 27747, Note_off_c, 0, 55, 71
1, 27750, Note_off_c, 0, 57, 67
1, 27750, Note_off_c, 0, 69, 69
1, 27751, Note_off_c, 0, 50, 67
1, 27753, Note_off_c, 0, 48, 70
1, 27759, Control_c, 0, 67, 44
1, 27763, Note_off_c, 0, 74, 60
1, 27764, Note_off_c, 0, 67, 65
1, 27767, Note_off_c, 0, 76, 64
1, 27774, Control_c, 0, 67, 39
1, 27789, Control_c, 0, 67, 42
1, 27804, Control_c, 0, 67, 47
1, 27826, Control_c, 0, 67, 42
1, 27841, Control_c, 0, 67, 34
1, 27843, Note_on_c, 0, 50, 64
1, 27845, Note_on_c, 0, 57, 70
1, 27846, Note_on_c, 0, 67, 74
1, 27846, Note_on_c, 0, 74, 71
1, 27852, Note_on_c, 0, 48, 57
1, 27852, Note_on_c, 0, 55, 46
1, 27852, Note_on_c, 0, 69, 59
1, 27855, Note_on_c, 0, 76, 61
1, 27856, Control_c, 0, 67, 22
1, 27862, Note_off_c, 0, 57, 66
1, 27863, Note_off_c, 0, 74, 67
1, 27866, Note_off_c, 0, 67, 63
1, 27866, Note_off_c, 0, 69, 70
1, 27871, Control_c, 0, 67, 0
1, 27872, Note_off_c, 0, 50, 63
1, 27872, Note_off_c, 0, 48, 70
1, 27874, Note_off_c, 0, 76, 62
1, 27875, Note_off_c, 0, 55, 59
1, 27886, Control_c, 0, 67, 22
1, 27900, Control_c, 0, 67, 27
1, 27915, Control_c, 0, 67, 23
1, 27930, Control_c, 0, 67, 0
1, 28071, Note_on_c, 0, 48, 82
1, 28071, Note_on_c, 0, 67, 80
1, 28076, Note_on_c, 0, 55, 69
1, 28076, Note_on_c, 0, 74, 76
1, 28076, Note_on_c, 0, 76, 78
1, 28077, Note_on_c, 0, 50, 72
1, 28079, Note_on_c, 0, 57, 73
1, 28082, Note_on_c, 0, 69, 78
1, 28092, Note_off_c, 0, 67, 68
1, 28093, Note_off_c, 0, 55, 67
1, 28095, Note_off_c, 0, 48, 66
1, 28095, Note_off_c, 0, 57, 69
1, 28097, Note_off_c, 0, 69, 69
1, 28097, Note_off_c, 0, 76, 70
1, 28098, Note_off_c, 0, 74, 69
1, 28104, Note_off_c, 0, 50, 66
1, 28292, Note_on_c, 0, 48, 81
1, 28292, Note_on_c, 0, 57, 82
1, 28295, Note_on_c, 0, 50, 81
1, 28298, Note_on_c, 0, 67, 87
1, 28298, Note_on_c, 0, 76, 84
1, 28299, Note_on_c, 0, 55, 83
1, 28299, Note_on_c, 0, 74, 83
1, 28301, Note_on_c, 0, 69, 84
1, 28321, Note_off_c, 0, 55, 71
1, 28323, Note_off_c, 0, 69, 70
1, 28326, Note_off_c, 0, 67, 66
1, 28328, Note_off_c, 0, 74, 62
1, 28330, Note_off_c, 0, 57, 62
1, 28336, Note_off_c, 0, 76, 60
1, 28349, Note_off_c, 0, 50, 58
1, 28360, Note_off_c, 0, 48, 62
1, 28401, Note_on_c, 0, 74, 91
1, 28402, Note_on_c, 0, 67, 94
1, 28403, Note_on_c, 0, 69, 95
1, 28405, Note_on_c, 0, 76, 87
1, 28547, Note_off_c, 0, 67, 58
1, 28554, Note_off_c, 0, 69, 55
1, 28589, Note_off_c, 0, 76, 61
1, 28602, Note_off_c, 0, 74, 62
1, 28610, Note_on_c, 0, 50, 100
1, 28612, Note_on_c, 0, 48, 90
1, 28615, Note_on_c, 0, 43, 84
1, 28618, Note_on_c, 0, 45, 87
1, 28635, Control_c, 0, 67, 32
1, 28644, Note_off_c, 0, 43, 65
1, 28645, Note_off_c, 0, 45, 66
1, 28645, Note_off_c, 0, 50, 68
1, 28647, Note_off_c, 0, 48, 63
1, 28649, Control_c, 0, 67, 29
1, 28693, Control_c, 0, 67, 32
1, 28708, Control_c, 0, 67, 34
1, 28722, Note_on_c, 0, 79, 95
1, 28736, Note_on_c, 0, 74, 73
1, 28738, Control_c, 0, 67, 32
1, 28742, Note_on_c, 0, 72, 66
1, 28744, Note_off_c, 0, 79, 69
1, 28748, Note_on_c, 0, 81, 45
1, 28748, Note_off_c, 0, 81, 127
1, 28753, Note_off_c, 0, 74, 65
1, 28753, Control_c, 0, 67, 30
1, 28761, Note_off_c, 0, 72, 65
1, 28782, Control_c, 0, 67, 32
1, 28797, Control_c, 0, 67, 36
1, 28812, Control_c, 0, 67, 41
1, 28827, Control_c, 0, 67, 45
1, 28841, Control_c, 0, 67, 42
1, 28856, Control_c, 0, 67, 40
1, 28871, Control_c, 0, 67, 39
1, 28886, Control_c, 0, 67, 40
1, 28901, Control_c, 0, 67, 42
1, 28916, Control_c, 0, 67, 43
1, 28931, Control_c, 0, 67, 43
1, 28943, Note_on_c, 0, 57, 80
1, 28946, Control_c, 0, 67, 41
1, 28952, Note_on_c, 0, 74, 73
1, 28954, Note_on_c, 0, 69, 81
1, 28957, Note_on_c, 0, 48, 61
1, 28959, Note_on_c, 0, 72, 74
1, 28960, Control_c, 0, 67, 40
1, 28963, Note_on_c, 0, 52, 71
1, 28964, Note_on_c, 0, 50, 64
1, 28970, Note_on_c, 0, 55, 49
1, 28975, Control_c, 0, 67, 41
1, 28979, Note_off_c, 0, 57, 59
1, 28979, Note_off_c, 0, 69, 66
1, 28980, Note_off_c, 0, 72, 70
1, 28983, Note_off_c, 0, 74, 64
1, 28990, Control_c, 0, 67, 42
1, 28991, Note_off_c, 0, 48, 65
1, 28993, Note_off_c, 0, 50, 64
1, 28996, Note_off_c, 0, 52, 64
1, 28996, Note_off_c, 0, 55, 59
1, 29005, Control_c, 0, 67, 44
1, 29020, Control_c, 0, 67, 45
1, 29035, Control_c, 0, 67, 45
1, 29049, Control_c, 0, 67, 44
1, 29064, Control_c, 0, 67, 44
1, 29093, Control_c, 0, 67, 43
1, 29138, Control_c, 0, 67, 44
1, 29167, Control_c, 0, 67, 44
1, 29173, Note_on_c, 0, 48, 77
1, 29175, Note_on_c, 0, 67, 84
1, 29175, Note_on_c, 0, 50, 78
1, 29177, Note_on_c, 0, 55, 71
1, 29178, Note_on_c, 0, 74, 76
1, 29179, Note_on_c, 0, 76, 81
1, 29180, Note_on_c, 0, 69, 77
1, 29181, Note_on_c, 0, 57, 67
1, 29182, Control_c, 0, 67, 41
1, 29198, Control_c, 0, 67, 39
1, 29201, Note_off_c, 0, 69, 69
1, 29202, Note_off_c, 0, 67, 66
1, 29203, Note_off_c, 0, 55, 69
1, 29205, Note_off_c, 0, 48, 65
1, 29205, Note_off_c, 0, 57, 69
1, 29207, Note_off_c, 0, 76, 62
1, 29208, Note_off_c, 0, 50, 64
1, 29211, Note_off_c, 0, 74, 63
1, 29228, Control_c, 0, 67, 42
1, 29243, Control_c, 0, 67, 44
1, 29272, Control_c, 0, 67, 43
1, 29287, Control_c, 0, 67, 41
1, 29302, Control_c, 0, 67, 38
1, 29339, Control_c, 0, 67, 42
1, 29354, Control_c, 0, 67, 44
1, 29369, Control_c, 0, 67, 44
1, 29384, Control_c, 0, 67, 42
1, 29398, Control_c, 0, 67, 39
1, 29402, Note_on_c, 0, 55, 86
1, 29409, Note_on_c, 0, 48, 75
1, 29411, Note_on_c, 0, 67, 84
1, 29411, Note_on_c, 0, 50, 75
1, 29412, Note_on_c, 0, 57, 82
1, 29413, Note_on_c, 0, 76, 82
1, 29413, Control_c, 0, 67, 35
1, 29414, Note_on_c, 0, 74, 82
1, 29414, Note_on_c, 0, 69, 83
1, 29428, Control_c, 0, 67, 34
1, 29432, Note_off_c, 0, 55, 64
1, 29433, Note_off_c, 0, 69, 72
1, 29434, Note_off_c, 0, 50, 68
1, 29434, Note_off_c, 0, 57, 70
1, 29436, Note_off_c, 0, 48, 69
1, 29436, Note_off_c, 0, 76, 67
1, 29440, Note_off_c, 0, 67, 62
1, 29442, Note_off_c, 0, 74, 61
1, 29443, Control_c, 0, 67, 36
1, 29458, Control_c, 0, 67, 38
1, 29472, Control_c, 0, 67, 39
1, 29487, Control_c, 0, 67, 38
1, 29502, Control_c, 0, 67, 36
1, 29516, Control_c, 0, 67, 32
1, 29531, Control_c, 0, 67, 27
1, 29576, Control_c, 0, 67, 30
1, 29605, Control_c, 0, 67, 25
1, 29617, Note_on_c, 0, 50, 82
1, 29617, Note_on_c, 0, 55, 82
1, 29619, Note_on_c, 0, 48, 78
1, 29619, Note_on_c, 0, 57, 85
1, 29620, Control_c, 0, 67, 0
1, 29622, Note_on_c, 0, 76, 89
1, 29622, Note_on_c, 0, 69, 87
1, 29624, Note_on_c, 0, 67, 88
1, 29624, Note_on_c, 0, 74, 85
1, 29646, Note_off_c, 0, 67, 70
1, 29646, Note_off_c, 0, 55, 67
1, 29646, Note_off_c, 0, 69, 64
1, 29647, Note_off_c, 0, 57, 64
1, 29649, Note_off_c, 0, 74, 64
1, 29659, Note_off_c, 0, 48, 61
1, 29661, Note_off_c, 0, 76, 59
1, 29662, Note_off_c, 0, 50, 62
1, 29724, Note_on_c, 0, 74, 96
1, 29726, Note_on_c, 0, 67, 93
1, 29726, Note_on_c, 0, 69, 98
1, 29727, Note_on_c, 0, 76, 92
1, 29748, Note_off_c, 0, 69, 61
1, 29751, Note_off_c, 0, 67, 62
1, 29764, Note_off_c, 0, 76, 60
1, 29765, Note_off_c, 0, 74, 65
1, 29825, Note_on_c, 0, 57, 96
1, 29827, Note_on_c, 0, 50, 88
1, 29828, Note_on_c, 0, 48, 89
1, 29834, Note_on_c, 0, 55, 84
1, 29849, Note_off_c, 0, 55, 69
1, 29852, Note_off_c, 0, 57, 68
1, 29855, Note_off_c, 0, 50, 62
1, 29856, Note_off_c, 0, 48, 68
1, 29857, Control_c, 0, 64, 81
1, 29872, Control_c, 0, 64, 0
1, 29901, Control_c, 0, 64, 47
1, 29915, Control_c, 0, 64, 81
1, 29930, Note_on_c, 0, 79, 108
1, 29930, Note_on_c, 0, 86, 106
1, 29930, Control_c, 0, 64, 127
1, 29934, Note_on_c, 0, 88, 97
1, 29937, Note_on_c, 0, 81, 94
1, 29942, Note_off_c, 0, 79, 81
1, 29944, Note_off_c, 0, 86, 76
1, 29949, Note_off_c, 0, 88, 75
1, 29950, Note_off_c, 0, 81, 44
1, 29958, Note_on_c, 0, 77, 45
1, 29958, Note_off_c, 0, 77, 127
1, 30020, Control_c, 0, 67, 27
1, 30035, Control_c, 0, 67, 45
1, 30050, Control_c, 0, 67, 52
1, 30053, Note_on_c, 0, 43, 104
1, 30053, Note_on_c, 0, 45, 97
1, 30060, Note_on_c, 0, 36, 81
1, 30070, Note_on_c, 0, 38, 77
1, 30072, Control_c, 0, 67, 50
1, 30078, Note_off_c, 0, 43, 72
1, 30079, Note_off_c, 0, 45, 72
1, 30087, Control_c, 0, 67, 48
1, 30093, Note_off_c, 0, 36, 65
1, 30093, Note_off_c, 0, 38, 64
1, 30102, Control_c, 0, 67, 50
1, 30117, Control_c, 0, 67, 57
1, 30132, Control_c, 0, 67, 65
1, 30146, Control_c, 0, 67, 78
1, 30161, Control_c, 0, 67, 80
1, 30176, Control_c, 0, 67, 76
1, 30191, Control_c, 0, 67, 75
1, 30206, Control_c, 0, 67, 77
1, 30220, Control_c, 0, 67, 80
1, 30235, Control_c, 0, 67, 82
1, 30250, Control_c, 0, 67, 82
1, 30264, Control_c, 0, 67, 78
1, 30279, Control_c, 0, 67, 76
1, 30281, Note_on_c, 0, 67, 83
1, 30285, Note_on_c, 0, 69, 82
1, 30287, Note_on_c, 0, 76, 79
1, 30288, Note_on_c, 0, 74, 81
1, 30294, Control_c, 0, 67, 77
1, 30304, Note_off_c, 0, 69, 71
1, 30309, Note_off_c, 0, 76, 69
1, 30309, Control_c, 0, 67, 82
1, 30314, Note_off_c, 0, 67, 63
1, 30318, Note_off_c, 0, 74, 62
1, 30324, Control_c, 0, 67, 84
1, 30353, Control_c, 0, 67, 81
1, 30368, Control_c, 0, 67, 77
1, 30383, Control_c, 0, 67, 76
1, 30398, Control_c, 0, 67, 78
1, 30413, Control_c, 0, 67, 81
1, 30427, Control_c, 0, 67, 82
1, 30457, Control_c, 0, 67, 79
1, 30472, Control_c, 0, 67, 76
1, 30487, Control_c, 0, 67, 75
1, 30496, Note_on_c, 0, 57, 82
1, 30502, Control_c, 0, 67, 76
1, 30508, Note_on_c, 0, 67, 85
1, 30513, Note_on_c, 0, 48, 62
1, 30514, Note_on_c, 0, 74, 75
1, 30515, Note_on_c, 0, 50, 51
1, 30516, Note_on_c, 0, 76, 76
1, 30516, Control_c, 0, 67, 79
1, 30518, Note_off_c, 0, 57, 69
1, 30519, Note_on_c, 0, 69, 75
1, 30529, Note_on_c, 0, 52, 43
1, 30531, Control_c, 0, 67, 80
1, 30533, Note_off_c, 0, 69, 70
1, 30537, Note_off_c, 0, 74, 68
1, 30538, Note_off_c, 0, 67, 62
1, 30539, Note_off_c, 0, 76, 68
1, 30543, Note_off_c, 0, 48, 65
1, 30545, Note_off_c, 0, 50, 63
1, 30558, Note_off_c, 0, 52, 53
1, 30561, Control_c, 0, 67, 79
1, 30576, Control_c, 0, 67, 77
1, 30591, Control_c, 0, 67, 76
1, 30606, Control_c, 0, 67, 75
1, 30620, Control_c, 0, 67, 77
1, 30635, Control_c, 0, 67, 78
1, 30665, Control_c, 0, 67, 78
1, 30680, Control_c, 0, 67, 76
1, 30695, Control_c, 0, 67, 74
1, 30718, Note_on_c, 0, 55, 76
1, 30719, Note_on_c, 0, 50, 81
1, 30722, Note_on_c, 0, 48, 75
1, 30722, Note_on_c, 0, 57, 79
1, 30723, Note_on_c, 0, 67, 83
1, 30725, Control_c, 0, 67, 77
1, 30728, Note_on_c, 0, 74, 81
1, 30732, Note_on_c, 0, 76, 73
1, 30733, Note_on_c, 0, 69, 76
1, 30739, Note_off_c, 0, 55, 69
1, 30739, Control_c, 0, 67, 78
1, 30741, Note_off_c, 0, 57, 72
1, 30742, Note_off_c, 0, 50, 69
1, 30743, Note_off_c, 0, 48, 72
1, 30747, Note_off_c, 0, 67, 69
1, 30749, Note_off_c, 0, 74, 67
1, 30750, Note_off_c, 0, 69, 66
1, 30752, Note_off_c, 0, 76, 70
1, 30769, Control_c, 0, 67, 77
1, 30785, Control_c, 0, 67, 75
1, 30800, Control_c, 0, 67, 72
1, 30822, Control_c, 0, 67, 71
1, 30837, Control_c, 0, 67, 73
1, 30851, Control_c, 0, 67, 76
1, 30866, Control_c, 0, 67, 76
1, 30895, Control_c, 0, 67, 75
1, 30910, Control_c, 0, 67, 70
1, 30925, Control_c, 0, 67, 66
1, 30940, Control_c, 0, 67, 64
1, 30950, Note_on_c, 0, 55, 85
1, 30958, Note_on_c, 0, 57, 90
1, 30958, Note_on_c, 0, 67, 86
1, 30959, Note_on_c, 0, 50, 75
1, 30961, Note_on_c, 0, 48, 75
1, 30963, Note_on_c, 0, 74, 79
1, 30964, Note_on_c, 0, 76, 80
1, 30967, Note_on_c, 0, 69, 84
1, 30970, Control_c, 0, 67, 57
1, 30976, Note_off_c, 0, 57, 72
1, 30976, Note_off_c, 0, 55, 65
1, 30984, Control_c, 0, 67, 26
1, 30985, Note_off_c, 0, 48, 66
1, 30985, Note_off_c, 0, 50, 63
1, 30999, Control_c, 0, 67, 0
1, 31000, Note_off_c, 0, 69, 43
1, 31029, Control_c, 0, 64, 79
1, 31044, Control_c, 0, 64, 0
1, 31060, Note_on_c, 0, 55, 100
1, 31064, Note_on_c, 0, 57, 102
1, 31065, Note_on_c, 0, 48, 83
1, 31065, Note_on_c, 0, 50, 85
1, 31074, Control_c, 0, 67, 21
1, 31081, Note_off_c, 0, 67, 62
1, 31085, Note_off_c, 0, 76, 61
1, 31088, Control_c, 0, 64, 49
1, 31088, Control_c, 0, 67, 0
1, 31103, Control_c, 0, 64, 80
1, 31104, Note_off_c, 0, 74, 60
1, 31118, Control_c, 0, 64, 127
1, 31162, Control_c, 0, 67, 20
1, 31177, Control_c, 0, 67, 0
1, 31178, Note_on_c, 0, 67, 72
1, 31181, Note_on_c, 0, 74, 67
1, 31191, Note_on_c, 0, 69, 57
1, 31193, Note_on_c, 0, 76, 51
1, 31193, Note_off_c, 0, 55, 33
1, 31199, Note_off_c, 0, 57, 54
1, 31203, Note_off_c, 0, 48, 50
1, 31205, Note_off_c, 0, 67, 68
1, 31211, Note_off_c, 0, 69, 61
1, 31217, Note_off_c, 0, 76, 58
1, 31220, Note_off_c, 0, 50, 51
1, 31226, Note_off_c, 0, 74, 58
1, 31386, Note_on_c, 0, 55, 72
1, 31390, Note_on_c, 0, 50, 68
1, 31393, Note_on_c, 0, 57, 85
1, 31396, Note_on_c, 0, 67, 80
1, 31397, Note_on_c, 0, 69, 81
1, 31398, Note_on_c, 0, 48, 66
1, 31399, Note_on_c, 0, 76, 84
1, 31399, Note_on_c, 0, 74, 76
1, 31411, Note_off_c, 0, 57, 72
1, 31415, Note_off_c, 0, 55, 63
1, 31421, Note_off_c, 0, 50, 64
1, 31432, Note_off_c, 0, 48, 62
1, 31473, Control_c, 0, 64, 79
1, 31488, Control_c, 0, 64, 45
1, 31488, Note_on_c, 0, 55, 101
1, 31493, Note_on_c, 0, 57, 94
1, 31494, Note_on_c, 0, 48, 90
1, 31495, Note_on_c, 0, 50, 84
1, 31503, Control_c, 0, 64, 0
1, 31503, Control_c, 0, 67, 34
1, 31511, Note_off_c, 0, 69, 33
1, 31511, Note_off_c, 0, 76, 55
1, 31518, Note_off_c, 0, 67, 52
1, 31518, Control_c, 0, 64, 54
1, 31518, Control_c, 0, 67, 66
1, 31531, Note_off_c, 0, 74, 58
1, 31533, Control_c, 0, 64, 82
1, 31533, Control_c, 0, 67, 76
1, 31537, Note_off_c, 0, 55, 62
1, 31539, Note_off_c, 0, 57, 64
1, 31543, Note_off_c, 0, 48, 62
1, 31548, Control_c, 0, 64, 127
1, 31548, Control_c, 0, 67, 70
1, 31553, Note_off_c, 0, 50, 60
1, 31569, Control_c, 0, 67, 63
1, 31585, Control_c, 0, 67, 55
1, 31600, Control_c, 0, 67, 60
1, 31612, Note_on_c, 0, 74, 69
1, 31615, Control_c, 0, 67, 66
1, 31619, Note_on_c, 0, 67, 66
1, 31623, Note_on_c, 0, 76, 64
1, 31627, Note_on_c, 0, 69, 54
1, 31640, Note_off_c, 0, 67, 71
1, 31642, Note_off_c, 0, 76, 65
1, 31645, Control_c, 0, 67, 57
1, 31653, Note_off_c, 0, 69, 57
1, 31660, Control_c, 0, 67, 48
1, 31662, Note_off_c, 0, 74, 62
1, 31674, Control_c, 0, 67, 30
1, 31689, Control_c, 0, 67, 0
1, 31704, Control_c, 0, 67, 22
1, 31718, Control_c, 0, 67, 24
1, 31733, Control_c, 0, 67, 0
1, 31836, Note_on_c, 0, 57, 91
1, 31837, Control_c, 0, 64, 85
1, 31840, Note_on_c, 0, 48, 81
1, 31840, Note_on_c, 0, 50, 88
1, 31846, Note_on_c, 0, 55, 86
1, 31847, Note_on_c, 0, 79, 98
1, 31848, Note_on_c, 0, 81, 98
1, 31849, Note_on_c, 0, 88, 87
1, 31850, Note_on_c, 0, 86, 83
1, 31852, Control_c, 0, 64, 65
1, 31859, Note_off_c, 0, 55, 71
1, 31862, Note_off_c, 0, 48, 73
1, 31864, Note_off_c, 0, 50, 68
1, 31865, Note_off_c, 0, 57, 64
1, 31866, Note_off_c, 0, 81, 68
1, 31867, Control_c, 0, 64, 68
1, 31871, Note_off_c, 0, 86, 68
1, 31873, Note_off_c, 0, 79, 66
1, 31879, Note_off_c, 0, 88, 64
1, 31882, Control_c, 0, 64, 93
1, 31882, Control_c, 0, 67, 30
1, 31897, Control_c, 0, 64, 127
1, 31897, Control_c, 0, 67, 41
1, 31911, Control_c, 0, 67, 43
1, 31926, Control_c, 0, 67, 40
1, 31941, Control_c, 0, 67, 40
1, 31956, Control_c, 0, 67, 41
1, 31962, Note_on_c, 0, 79, 82
1, 31968, Note_on_c, 0, 86, 67
1, 31971, Control_c, 0, 67, 43
1, 31974, Note_on_c, 0, 81, 58
1, 31977, Note_off_c, 0, 79, 70
1, 31985, Control_c, 0, 67, 44
1, 31994, Note_off_c, 0, 81, 62
1, 31995, Note_off_c, 0, 86, 65
1, 31999, Poly_aftertouch_c, 0, 55, 0
1, 32000, Control_c, 0, 67, 43
1, 32015, Control_c, 0, 67, 39
1, 32030, Control_c, 0, 67, 37
1, 32044, Control_c, 0, 67, 37
1, 32055, Poly_aftertouch_c, 0, 88, 0
1, 32059, Control_c, 0, 67, 41
1, 32074, Control_c, 0, 67, 43
1, 32075, Note_on_c, 0, 86, 74
1, 32078, Note_on_c, 0, 88, 47
1, 32078, Note_on_c, 0, 81, 74
1, 32081, Note_on_c, 0, 79, 62
1, 32089, Control_c, 0, 67, 37
1, 32100, Note_off_c, 0, 81, 58
1, 32103, Note_off_c, 0, 86, 65
1, 32104, Control_c, 0, 67, 0
1, 32105, Note_off_c, 0, 79, 67
1, 32105, Note_off_c, 0, 88, 66
1, 32133, Control_c, 0, 64, 92
1, 32148, Control_c, 0, 64, 46
1, 32163, Control_c, 0, 64, 0
1, 32171, Note_on_c, 0, 67, 93
1, 32176, Note_on_c, 0, 62, 85
1, 32177, Note_on_c, 0, 69, 92
1, 32177, Note_on_c, 0, 60, 86
1, 32178, Control_c, 0, 67, 27
1, 32179, Note_on_c, 0, 81, 90
1, 32180, Note_on_c, 0, 79, 96
1, 32180, Note_on_c, 0, 88, 91
1, 32185, Note_on_c, 0, 86, 84
1, 32192, Control_c, 0, 64, 58
1, 32192, Control_c, 0, 67, 40
1, 32195, Note_off_c, 0, 69, 68
1, 32198, Note_off_c, 0, 62, 66
1, 32203, Note_off_c, 0, 67, 67
1, 32207, Note_off_c, 0, 86, 66
1, 32207, Control_c, 0, 64, 120
1, 32207, Control_c, 0, 67, 37
1, 32210, Note_off_c, 0, 60, 63
1, 32212, Note_off_c, 0, 81, 62
1, 32218, Note_off_c, 0, 79, 61
1, 32222, Control_c, 0, 64, 127
1, 32222, Control_c, 0, 67, 30
1, 32227, Note_off_c, 0, 88, 64
1, 32236, Control_c, 0, 67, 24
1, 32266, Control_c, 0, 67, 31
1, 32281, Control_c, 0, 67, 35
1, 32284, Note_on_c, 0, 88, 69
1, 32290, Note_on_c, 0, 79, 73
1, 32294, Note_on_c, 0, 86, 65
1, 32295, Note_on_c, 0, 62, 64
1, 32295, Note_on_c, 0, 81, 64
1, 32296, Note_on_c, 0, 67, 55
1, 32296, Control_c, 0, 67, 32
1, 32311, Note_on_c, 0, 69, 42
1, 32317, Note_off_c, 0, 67, 71
1, 32318, Control_c, 0, 67, 21
1, 32320, Note_off_c, 0, 79, 69
1, 32320, Note_on_c, 0, 60, 32
1, 32320, Note_off_c, 0, 81, 64
1, 32323, Note_off_c, 0, 88, 63
1, 32324, Note_off_c, 0, 86, 66
1, 32325, Note_off_c, 0, 62, 69
1, 32333, Control_c, 0, 67, 0
1, 32336, Note_off_c, 0, 69, 57
1, 32347, Note_off_c, 0, 60, 59
1, 32378, Control_c, 0, 67, 21
1, 32394, Control_c, 0, 67, 0
1, 32403, Note_on_c, 0, 69, 74
1, 32408, Note_on_c, 0, 86, 75
1, 32409, Note_on_c, 0, 79, 77
1, 32409, Note_on_c, 0, 62, 70
1, 32409, Note_on_c, 0, 81, 77
1, 32410, Note_on_c, 0, 88, 80
1, 32421, Note_off_c, 0, 69, 70
1, 32423, Control_c, 0, 64, 60
1, 32429, Note_off_c, 0, 79, 71
1, 32430, Note_off_c, 0, 88, 71
1, 32432, Note_off_c, 0, 81, 66
1, 32433, Note_off_c, 0, 86, 68
1, 32436, Note_off_c, 0, 62, 67
1, 32438, Control_c, 0, 64, 0
1, 32442, Poly_aftertouch_c, 0, 67, 0
1, 32494, Note_on_c, 0, 60, 40
1, 32494, Note_on_c, 0, 69, 96
1, 32496, Note_on_c, 0, 79, 106
1, 32496, Note_on_c, 0, 81, 107
1, 32497, Note_on_c, 0, 67, 83
1, 32497, Note_on_c, 0, 88, 101
1, 32497, Control_c, 0, 64, 49
1, 32497, Control_c, 0, 67, 33
1, 32498, Note_on_c, 0, 62, 94
1, 32500, Note_on_c, 0, 86, 99
1, 32512, Control_c, 0, 64, 127
1, 32512, Control_c, 0, 67, 29
1, 32527, Control_c, 0, 67, 26
1, 32533, Note_off_c, 0, 69, 61
1, 32533, Note_off_c, 0, 81, 65
1, 32535, Note_off_c, 0, 67, 62
1, 32538, Note_off_c, 0, 79, 62
1, 32541, Note_off_c, 0, 60, 64
1, 32543, Note_off_c, 0, 86, 63
1, 32544, Note_off_c, 0, 62, 58
1, 32547, Note_off_c, 0, 88, 65
1, 32556, Control_c, 0, 67, 32
1, 32571, Control_c, 0, 67, 36
1, 32586, Control_c, 0, 67, 38
1, 32601, Control_c, 0, 67, 30
1, 32615, Control_c, 0, 67, 0
1, 32617, Note_on_c, 0, 86, 66
1, 32619, Note_on_c, 0, 88, 67
1, 32622, Note_on_c, 0, 62, 62
1, 32622, Note_on_c, 0, 69, 57
1, 32623, Note_on_c, 0, 67, 63
1, 32630, Note_on_c, 0, 60, 48
1, 32630, Note_on_c, 0, 79, 54
1, 32633, Note_on_c, 0, 81, 46
1, 32636, Note_off_c, 0, 86, 66
1, 32636, Note_off_c, 0, 69, 69
1, 32639, Note_off_c, 0, 88, 65
1, 32640, Note_off_c, 0, 67, 67
1, 32646, Note_off_c, 0, 62, 68
1, 32646, Note_off_c, 0, 79, 67
1, 32655, Note_off_c, 0, 60, 60
1, 32658, Note_off_c, 0, 81, 58
1, 32675, Control_c, 0, 64, 64
1, 32690, Control_c, 0, 64, 0
1, 32704, Note_on_c, 0, 69, 93
1, 32706, Note_on_c, 0, 81, 111
1, 32706, Note_on_c, 0, 88, 93
1, 32708, Note_on_c, 0, 86, 92
1, 32709, Note_on_c, 0, 62, 91
1, 32709, Note_on_c, 0, 67, 87
1, 32713, Note_on_c, 0, 79, 96
1, 32713, Note_on_c, 0, 60, 85
1, 32734, Control_c, 0, 64, 64
1, 32734, Control_c, 0, 67, 33
1, 32736, Note_on_c, 0, 83, 48
1, 32747, Note_off_c, 0, 67, 61
1, 32749, Control_c, 0, 64, 127
1, 32749, Control_c, 0, 67, 36
1, 32750, Note_off_c, 0, 69, 62
1, 32756, Note_off_c, 0, 79, 60
1, 32758, Note_off_c, 0, 60, 62
1, 32758, Note_off_c, 0, 88, 65
1, 32759, Note_off_c, 0, 62, 63
1, 32759, Note_off_c, 0, 81, 59
1, 32761, Note_off_c, 0, 83, 42
1, 32764, Control_c, 0, 67, 25
1, 32770, Note_off_c, 0, 86, 59
1, 32779, Control_c, 0, 67, 0
1, 32819, Note_on_c, 0, 81, 83
1, 32824, Note_on_c, 0, 86, 66
1, 32824, Note_on_c, 0, 88, 69
1, 32824, Note_on_c, 0, 79, 87
1, 32826, Note_on_c, 0, 67, 70
1, 32829, Note_on_c, 0, 69, 77
1, 32831, Note_on_c, 0, 62, 70
1, 32838, Note_on_c, 0, 60, 48
1, 32838, Control_c, 0, 67, 26
1, 32844, Note_off_c, 0, 67, 68
1, 32850, Note_off_c, 0, 69, 66
1, 32850, Note_off_c, 0, 88, 68
1, 32853, Note_off_c, 0, 79, 51
1, 32853, Note_off_c, 0, 81, 62
1, 32853, Note_off_c, 0, 86, 65
1, 32853, Control_c, 0, 67, 19
1, 32855, Note_off_c, 0, 60, 69
1, 32855, Note_off_c, 0, 62, 68
1, 32867, Control_c, 0, 67, 0
1, 32905, Poly_aftertouch_c, 0, 89, 0
1, 32928, Note_on_c, 0, 69, 83
1, 32933, Note_on_c, 0, 62, 83
1, 32933, Note_on_c, 0, 67, 56
1, 32935, Note_on_c, 0, 88, 85
1, 32936, Note_on_c, 0, 81, 86
1, 32938, Note_on_c, 0, 60, 57
1, 32940, Note_on_c, 0, 86, 84
1, 32941, Note_on_c, 0, 79, 91
1, 32956, Control_c, 0, 64, 82
1, 32958, Note_off_c, 0, 67, 68
1, 32966, Note_off_c, 0, 69, 62
1, 32966, Note_off_c, 0, 79, 58
1, 32966, Note_off_c, 0, 81, 68
1, 32970, Note_off_c, 0, 60, 65
1, 32971, Control_c, 0, 64, 0
1, 32973, Note_off_c, 0, 62, 59
1, 32973, Note_off_c, 0, 86, 60
1, 32973, Note_off_c, 0, 88, 62
1, 33041, Note_on_c, 0, 69, 93
1, 33041, Note_on_c, 0, 67, 92
1, 33042, Note_on_c, 0, 79, 115
1, 33044, Note_on_c, 0, 81, 114
1, 33044, Note_on_c, 0, 60, 86
1, 33044, Note_on_c, 0, 62, 91
1, 33044, Note_on_c, 0, 88, 105
1, 33045, Note_on_c, 0, 86, 102
1, 33082, Control_c, 0, 64, 127
1, 33085, Note_off_c, 0, 67, 65
1, 33085, Note_off_c, 0, 81, 53
1, 33089, Note_off_c, 0, 69, 62
1, 33093, Note_off_c, 0, 60, 61
1, 33097, Control_c, 0, 67, 56
1, 33098, Note_off_c, 0, 79, 65
1, 33104, Note_off_c, 0, 88, 65
1, 33108, Note_off_c, 0, 62, 60
1, 33108, Note_off_c, 0, 86, 64
1, 33112, Control_c, 0, 67, 101
1, 33127, Control_c, 0, 67, 97
1, 33141, Control_c, 0, 67, 81
1, 33152, Note_on_c, 0, 69, 92
1, 33155, Note_on_c, 0, 81, 103
1, 33155, Note_on_c, 0, 86, 89
1, 33155, Note_on_c, 0, 67, 93
1, 33156, Control_c, 0, 67, 49
1, 33157, Note_on_c, 0, 79, 100
1, 33158, Note_on_c, 0, 62, 75
1, 33158, Note_on_c, 0, 88, 92
1, 33158, Note_on_c, 0, 60, 82
1, 33171, Control_c, 0, 67, 29
1, 33181, Note_off_c, 0, 69, 66
1, 33181, Note_off_c, 0, 67, 54
1, 33187, Control_c, 0, 67, 39
1, 33190, Note_off_c, 0, 81, 64
1, 33193, Note_off_c, 0, 79, 68
1, 33193, Note_off_c, 0, 86, 64
1, 33194, Note_off_c, 0, 60, 62
1, 33194, Note_off_c, 0, 88, 66
1, 33202, Note_off_c, 0, 62, 61
1, 33202, Control_c, 0, 67, 61
1, 33217, Control_c, 0, 67, 85
1, 33232, Control_c, 0, 67, 88
1, 33246, Control_c, 0, 67, 86
1, 33261, Control_c, 0, 67, 87
1, 33276, Control_c, 0, 67, 92
1, 33290, Control_c, 0, 67, 102
1, 33305, Control_c, 0, 67, 119
1, 33320, Control_c, 0, 67, 123
1, 33335, Control_c, 0, 67, 118
1, 33364, Control_c, 0, 67, 123
1, 33379, Control_c, 0, 67, 126
1, 33394, Control_c, 0, 64, 100
1, 33409, Control_c, 0, 64, 76
1, 33424, Control_c, 0, 64, 65
1, 33438, Control_c, 0, 64, 58
1, 33438, Control_c, 0, 67, 123
1, 33453, Control_c, 0, 64, 53
1, 33468, Control_c, 0, 64, 48
1, 33468, Control_c, 0, 67, 126
1, 33482, Control_c, 0, 64, 38
1, 33497, Control_c, 0, 64, 0
1, 33542, Control_c, 0, 67, 124
1, 33764, Control_c, 0, 67, 121
1, 35789, Control_c, 0, 67, 119
1, 36315, Control_c, 0, 67, 117
1, 36479, Control_c, 0, 67, 113
1, 36494, Control_c, 0, 67, 107
1, 36508, Control_c, 0, 67, 102
1, 36568, Control_c, 0, 67, 104
1, 36598, Control_c, 0, 67, 106
1, 36627, Control_c, 0, 67, 108
1, 36731, Control_c, 0, 67, 106
1, 36764, Note_on_c, 0, 68, 63
1, 36773, Note_on_c, 0, 66, 58
1, 36774, Note_on_c, 0, 56, 50
1, 36778, Note_on_c, 0, 54, 47
1, 36860, Note_off_c, 0, 56, 54
1, 36872, Control_c, 0, 67, 111
1, 36876, Note_on_c, 0, 65, 76
1, 36877, Note_off_c, 0, 54, 63
1, 36878, Note_off_c, 0, 66, 30
1, 36879, Note_on_c, 0, 57, 69
1, 36883, Note_on_c, 0, 69, 76
1, 36885, Note_on_c, 0, 53, 68
1, 36887, Control_c, 0, 64, 35
1, 36902, Control_c, 0, 64, 54
1, 36902, Control_c, 0, 67, 108
1, 36905, Note_off_c, 0, 68, 61
1, 36916, Control_c, 0, 64, 0
1, 36931, Note_off_c, 0, 65, 61
1, 36941, Note_off_c, 0, 57, 60
1, 36946, Control_c, 0, 67, 111
1, 36951, Note_off_c, 0, 53, 53
1, 36960, Control_c, 0, 67, 113
1, 36973, Note_off_c, 0, 69, 59
1, 36982, Note_on_c, 0, 54, 47
1, 36983, Note_on_c, 0, 68, 65
1, 36987, Note_on_c, 0, 56, 54
1, 36990, Control_c, 0, 67, 110
1, 37002, Note_on_c, 0, 66, 47
1, 37046, Note_off_c, 0, 54, 52
1, 37049, Control_c, 0, 67, 114
1, 37071, Note_off_c, 0, 56, 58
1, 37080, Note_off_c, 0, 66, 59
1, 37092, Note_on_c, 0, 57, 55
1, 37094, Control_c, 0, 67, 110
1, 37095, Note_on_c, 0, 53, 53
1, 37098, Note_off_c, 0, 68, 63
1, 37101, Note_on_c, 0, 65, 58
1, 37103, Note_on_c, 0, 69, 67
1, 37138, Control_c, 0, 67, 113
1, 37140, Note_off_c, 0, 65, 63
1, 37149, Note_off_c, 0, 53, 59
1, 37149, Note_off_c, 0, 57, 58
1, 37173, Note_off_c, 0, 69, 61
1, 37185, Note_on_c, 0, 54, 42
1, 37198, Note_on_c, 0, 56, 51
1, 37199, Control_c, 0, 67, 110
1, 37201, Note_on_c, 0, 68, 59
1, 37203, Note_on_c, 0, 66, 51
1, 37224, Note_off_c, 0, 54, 50
1, 37243, Control_c, 0, 67, 115
1, 37265, Note_off_c, 0, 66, 48
1, 37272, Control_c, 0, 67, 113
1, 37278, Note_off_c, 0, 56, 56
1, 37287, Control_c, 0, 67, 110
1, 37293, Note_off_c, 0, 68, 62
1, 37298, Note_on_c, 0, 57, 51
1, 37299, Note_on_c, 0, 65, 59
1, 37301, Note_on_c, 0, 53, 40
1, 37313, Note_on_c, 0, 69, 54
1, 37331, Control_c, 0, 67, 113
1, 37336, Note_off_c, 0, 65, 63
1, 37343, Note_off_c, 0, 53, 49
1, 37358, Note_off_c, 0, 57, 61
1, 37363, Note_off_c, 0, 69, 55
1, 37379, Note_on_c, 0, 54, 47
1, 37390, Note_on_c, 0, 66, 56
1, 37390, Control_c, 0, 67, 109
1, 37397, Note_on_c, 0, 68, 61
1, 37406, Note_on_c, 0, 56, 43
1, 37416, Note_off_c, 0, 54, 57
1, 37435, Control_c, 0, 67, 114
1, 37465, Control_c, 0, 67, 111
1, 37469, Note_off_c, 0, 66, 40
1, 37480, Control_c, 0, 67, 107
1, 37489, Note_off_c, 0, 68, 61
1, 37495, Note_on_c, 0, 53, 56
1, 37495, Note_on_c, 0, 57, 60
1, 37498, Note_on_c, 0, 65, 65
1, 37501, Note_on_c, 0, 69, 63
1, 37504, Note_off_c, 0, 56, 42
1, 37524, Control_c, 0, 67, 112
1, 37532, Note_off_c, 0, 65, 63
1, 37557, Note_off_c, 0, 69, 53
1, 37558, Note_off_c, 0, 57, 54
1, 37567, Note_off_c, 0, 53, 58
1, 37576, Control_c, 0, 67, 108
1, 37596, Note_on_c, 0, 70, 71
1, 37601, Note_on_c, 0, 68, 62
1, 37609, Note_on_c, 0, 58, 57
1, 37619, Note_on_c, 0, 56, 43
1, 37620, Control_c, 0, 67, 110
1, 37635, Control_c, 0, 67, 114
1, 37665, Control_c, 0, 67, 110
1, 37679, Note_off_c, 0, 58, 58
1, 37688, Note_off_c, 0, 68, 60
1, 37690, Note_on_c, 0, 71, 86
1, 37692, Note_on_c, 0, 67, 76
1, 37693, Note_on_c, 0, 55, 78
1, 37693, Note_off_c, 0, 70, 62
1, 37694, Note_off_c, 0, 56, 59
1, 37694, Control_c, 0, 67, 107
1, 37697, Note_on_c, 0, 59, 72
1, 37709, Control_c, 0, 64, 54
1, 37709, Control_c, 0, 67, 109
1, 37724, Control_c, 0, 64, 0
1, 37724, Control_c, 0, 67, 115
1, 37735, Note_off_c, 0, 67, 63
1, 37743, Note_off_c, 0, 55, 61
1, 37757, Note_off_c, 0, 59, 62
1, 37769, Control_c, 0, 67, 112
1, 37775, Note_on_c, 0, 70, 70
1, 37775, Note_off_c, 0, 71, 59
1, 37783, Control_c, 0, 67, 110
1, 37788, Note_on_c, 0, 68, 60
1, 37796, Note_on_c, 0, 58, 53
1, 37799, Note_on_c, 0, 56, 50
1, 37813, Control_c, 0, 67, 113
1, 37828, Control_c, 0, 67, 116
1, 37857, Control_c, 0, 67, 114
1, 37870, Note_off_c, 0, 58, 53
1, 37872, Control_c, 0, 67, 112
1, 37876, Note_off_c, 0, 56, 55
1, 37877, Note_off_c, 0, 68, 54
1, 37884, Note_off_c, 0, 70, 63
1, 37887, Control_c, 0, 67, 109
1, 37894, Note_on_c, 0, 71, 69
1, 37897, Note_on_c, 0, 55, 54
1, 37903, Note_on_c, 0, 67, 55
1, 37906, Note_on_c, 0, 59, 48
1, 37917, Control_c, 0, 67, 116
1, 37939, Note_off_c, 0, 67, 64
1, 37960, Note_off_c, 0, 59, 57
1, 37961, Control_c, 0, 67, 114
1, 37962, Note_off_c, 0, 55, 55
1, 37969, Note_off_c, 0, 71, 60
1, 37977, Control_c, 0, 67, 112
1, 37988, Note_on_c, 0, 70, 62
1, 37993, Note_on_c, 0, 68, 63
1, 37999, Note_on_c, 0, 56, 48
1, 38001, Note_on_c, 0, 58, 49
1, 38021, Control_c, 0, 67, 116
1, 38039, Note_off_c, 0, 68, 57
1, 38055, Note_off_c, 0, 56, 44
1, 38066, Control_c, 0, 67, 114
1, 38074, Note_off_c, 0, 58, 53
1, 38080, Control_c, 0, 67, 110
1, 38088, Note_off_c, 0, 70, 48
1, 38097, Note_on_c, 0, 67, 55
1, 38100, Note_on_c, 0, 55, 58
1, 38103, Note_on_c, 0, 71, 62
1, 38105, Note_on_c, 0, 59, 50
1, 38110, Control_c, 0, 67, 113
1, 38125, Control_c, 0, 67, 116
1, 38134, Note_off_c, 0, 67, 61
1, 38145, Note_off_c, 0, 55, 58
1, 38149, Note_off_c, 0, 59, 58
1, 38154, Control_c, 0, 67, 114
1, 38167, Note_off_c, 0, 71, 62
1, 38168, Control_c, 0, 67, 112
1, 38180, Note_on_c, 0, 68, 56
1, 38183, Note_on_c, 0, 56, 47
1, 38183, Control_c, 0, 67, 108
1, 38192, Note_on_c, 0, 70, 55
1, 38206, Note_on_c, 0, 58, 42
1, 38213, Control_c, 0, 67, 114
1, 38228, Control_c, 0, 67, 116
1, 38240, Note_off_c, 0, 56, 51
1, 38258, Control_c, 0, 67, 113
1, 38268, Note_off_c, 0, 68, 43
1, 38270, Note_off_c, 0, 58, 57
1, 38273, Control_c, 0, 67, 109
1, 38287, Note_off_c, 0, 70, 60
1, 38287, Control_c, 0, 67, 106
1, 38291, Note_on_c, 0, 55, 58
1, 38304, Note_on_c, 0, 67, 58
1, 38306, Note_on_c, 0, 71, 69
1, 38306, Note_on_c, 0, 59, 51
1, 38309, Control_c, 0, 67, 109
1, 38324, Control_c, 0, 67, 115
1, 38334, Note_off_c, 0, 55, 63
1, 38335, Note_off_c, 0, 67, 65
1, 38353, Note_off_c, 0, 59, 57
1, 38365, Note_off_c, 0, 71, 60
1, 38368, Control_c, 0, 67, 113
1, 38383, Note_on_c, 0, 68, 72
1, 38383, Control_c, 0, 67, 110
1, 38392, Note_on_c, 0, 66, 60
1, 38395, Note_on_c, 0, 54, 59
1, 38397, Note_on_c, 0, 56, 63
1, 38413, Control_c, 0, 67, 114
1, 38428, Control_c, 0, 67, 117
1, 38432, Note_off_c, 0, 56, 59
1, 38433, Note_off_c, 0, 54, 63
1, 38454, Note_off_c, 0, 66, 56
1, 38458, Control_c, 0, 67, 114
1, 38473, Control_c, 0, 67, 111
1, 38480, Note_off_c, 0, 68, 64
1, 38487, Control_c, 0, 67, 108
1, 38490, Note_on_c, 0, 65, 85
1, 38490, Note_on_c, 0, 69, 84
1, 38491, Note_on_c, 0, 53, 77
1, 38493, Note_on_c, 0, 57, 75
1, 38502, Control_c, 0, 64, 39
1, 38502, Control_c, 0, 67, 111
1, 38517, Control_c, 0, 64, 0
1, 38517, Control_c, 0, 67, 118
1, 38531, Control_c, 0, 67, 124
1, 38538, Note_off_c, 0, 65, 62
1, 38544, Note_off_c, 0, 53, 59
1, 38545, Note_off_c, 0, 57, 57
1, 38546, Control_c, 0, 67, 126
1, 38561, Control_c, 0, 67, 124
1, 38562, Note_off_c, 0, 69, 60
1, 38571, Note_on_c, 0, 54, 60
1, 38576, Note_on_c, 0, 68, 69
1, 38576, Control_c, 0, 67, 120
1, 38580, Note_on_c, 0, 66, 54
1, 38587, Note_on_c, 0, 56, 54
1, 38605, Control_c, 0, 67, 122
1, 38612, Note_off_c, 0, 54, 59
1, 38620, Control_c, 0, 67, 127
1, 38635, Note_off_c, 0, 66, 54
1, 38669, Note_off_c, 0, 56, 60
1, 38675, Note_off_c, 0, 68, 63
1, 38679, Control_c, 0, 67, 124
1, 38684, Note_on_c, 0, 53, 55
1, 38696, Note_on_c, 0, 65, 57
1, 38697, Note_on_c, 0, 57, 50
1, 38697, Note_on_c, 0, 69, 56
1, 38709, Control_c, 0, 67, 127
1, 38732, Note_off_c, 0, 65, 64
1, 38738, Note_off_c, 0, 69, 57
1, 38747, Note_off_c, 0, 57, 62
1, 38750, Note_off_c, 0, 53, 56
1, 38787, Note_on_c, 0, 68, 66
1, 38794, Note_on_c, 0, 58, 60
1, 38794, Note_on_c, 0, 70, 61
1, 38806, Note_off_c, 0, 68, 63
1, 38809, Note_on_c, 0, 56, 35
1, 38833, Note_off_c, 0, 58, 60
1, 38859, Note_off_c, 0, 56, 41
1, 38885, Note_on_c, 0, 55, 79
1, 38887, Note_off_c, 0, 70, 61
1, 38887, Note_on_c, 0, 71, 88
1, 38889, Note_on_c, 0, 67, 80
1, 38889, Control_c, 0, 67, 125
1, 38891, Note_on_c, 0, 59, 75
1, 38903, Control_c, 0, 64, 51
1, 38903, Control_c, 0, 67, 127
1, 38918, Control_c, 0, 64, 60
1, 38933, Control_c, 0, 64, 0
1, 38938, Note_off_c, 0, 67, 61
1, 38941, Note_off_c, 0, 55, 62
1, 38947, Note_off_c, 0, 59, 62
1, 38967, Note_off_c, 0, 71, 61
1, 38970, Note_on_c, 0, 70, 65
1, 38971, Note_on_c, 0, 68, 68
1, 38972, Note_on_c, 0, 56, 64
1, 38980, Note_on_c, 0, 58, 44
1, 39052, Note_off_c, 0, 68, 54
1, 39053, Note_off_c, 0, 58, 50
1, 39066, Note_off_c, 0, 56, 55
1, 39087, Note_off_c, 0, 70, 61
1, 39092, Note_on_c, 0, 55, 51
1, 39093, Note_on_c, 0, 67, 50
1, 39096, Note_on_c, 0, 59, 61
1, 39097, Note_on_c, 0, 71, 65
1, 39121, Note_off_c, 0, 55, 63
1, 39129, Note_off_c, 0, 67, 65
1, 39143, Note_off_c, 0, 71, 59
1, 39154, Note_off_c, 0, 59, 57
1, 39184, Note_on_c, 0, 68, 54
1, 39190, Note_on_c, 0, 66, 49
1, 39195, Note_on_c, 0, 56, 49
1, 39203, Note_on_c, 0, 54, 42
1, 39246, Note_off_c, 0, 66, 51
1, 39251, Control_c, 0, 64, 51
1, 39266, Control_c, 0, 64, 62
1, 39271, Note_off_c, 0, 54, 39
1, 39272, Note_off_c, 0, 68, 63
1, 39275, Note_off_c, 0, 56, 58
1, 39279, Note_on_c, 0, 65, 67
1, 39281, Control_c, 0, 64, 65
1, 39291, Note_on_c, 0, 69, 60
1, 39294, Note_on_c, 0, 57, 65
1, 39296, Control_c, 0, 64, 67
1, 39301, Note_on_c, 0, 53, 58
1, 39310, Control_c, 0, 64, 68
1, 39324, Note_off_c, 0, 65, 54
1, 39325, Control_c, 0, 64, 71
1, 39340, Control_c, 0, 64, 75
1, 39343, Note_off_c, 0, 69, 50
1, 39352, Note_off_c, 0, 57, 53
1, 39355, Control_c, 0, 64, 78
1, 39368, Note_on_c, 0, 68, 78
1, 39370, Control_c, 0, 64, 81
1, 39372, Note_off_c, 0, 53, 55
1, 39373, Note_on_c, 0, 70, 75
1, 39385, Note_on_c, 0, 56, 70
1, 39385, Control_c, 0, 64, 88
1, 39385, Control_c, 0, 67, 123
1, 39391, Note_on_c, 0, 58, 62
1, 39400, Control_c, 0, 64, 110
1, 39400, Control_c, 0, 67, 120
1, 39414, Control_c, 0, 64, 127
1, 39414, Control_c, 0, 67, 103
1, 39428, Note_off_c, 0, 68, 62
1, 39429, Control_c, 0, 67, 72
1, 39438, Note_off_c, 0, 56, 58
1, 39441, Note_off_c, 0, 58, 53
1, 39444, Control_c, 0, 67, 45
1, 39459, Control_c, 0, 67, 46
1, 39462, Note_on_c, 0, 71, 89
1, 39463, Note_on_c, 0, 67, 80
1, 39466, Note_on_c, 0, 55, 79
1, 39467, Note_off_c, 0, 70, 65
1, 39469, Note_on_c, 0, 59, 78
1, 39474, Control_c, 0, 67, 58
1, 39489, Control_c, 0, 64, 68
1, 39489, Control_c, 0, 67, 80
1, 39503, Control_c, 0, 64, 0
1, 39503, Control_c, 0, 67, 112
1, 39506, Note_off_c, 0, 55, 60
1, 39507, Note_off_c, 0, 67, 63
1, 39513, Note_off_c, 0, 59, 62
1, 39518, Control_c, 0, 67, 126
1, 39532, Note_off_c, 0, 71, 61
1, 39549, Note_on_c, 0, 68, 80
1, 39558, Note_on_c, 0, 66, 61
1, 39573, Note_on_c, 0, 54, 55
1, 39574, Note_on_c, 0, 56, 57
1, 39615, Note_off_c, 0, 54, 60
1, 39618, Note_off_c, 0, 56, 59
1, 39641, Note_off_c, 0, 66, 37
1, 39655, Note_off_c, 0, 68, 60
1, 39665, Note_on_c, 0, 65, 58
1, 39665, Note_on_c, 0, 69, 61
1, 39672, Note_on_c, 0, 57, 71
1, 39684, Note_on_c, 0, 53, 54
1, 39702, Note_off_c, 0, 69, 58
1, 39704, Note_off_c, 0, 65, 64
1, 39719, Note_off_c, 0, 57, 57
1, 39741, Note_off_c, 0, 53, 51
1, 39752, Note_on_c, 0, 70, 68
1, 39755, Note_on_c, 0, 68, 68
1, 39768, Note_on_c, 0, 56, 58
1, 39769, Note_on_c, 0, 58, 57
1, 39802, Note_off_c, 0, 68, 61
1, 39808, Control_c, 0, 64, 41
1, 39823, Control_c, 0, 64, 50
1, 39824, Note_off_c, 0, 58, 55
1, 39825, Note_off_c, 0, 56, 50
1, 39838, Control_c, 0, 64, 57
1, 39852, Control_c, 0, 64, 61
1, 39859, Note_on_c, 0, 59, 77
1, 39859, Note_off_c, 0, 70, 63
1, 39862, Note_on_c, 0, 67, 74
1, 39862, Note_on_c, 0, 55, 72
1, 39863, Note_on_c, 0, 71, 71
1, 39867, Control_c, 0, 64, 65
1, 39882, Control_c, 0, 64, 71
1, 39887, Note_on_c, 0, 72, 52
1, 39897, Control_c, 0, 64, 78
1, 39900, Note_off_c, 0, 67, 61
1, 39904, Note_off_c, 0, 71, 65
1, 39911, Note_off_c, 0, 59, 64
1, 39912, Control_c, 0, 64, 87
1, 39912, Control_c, 0, 67, 104
1, 39912, Note_off_c, 0, 72, 38
1, 39923, Note_off_c, 0, 55, 61
1, 39926, Control_c, 0, 64, 104
1, 39926, Control_c, 0, 67, 74
1, 39941, Control_c, 0, 64, 127
1, 39941, Control_c, 0, 67, 57
1, 39950, Note_on_c, 0, 73, 89
1, 39951, Note_on_c, 0, 58, 71
1, 39954, Note_on_c, 0, 61, 75
1, 39956, Note_on_c, 0, 70, 78
1, 39956, Control_c, 0, 67, 54
1, 39971, Control_c, 0, 67, 54
1, 39985, Control_c, 0, 67, 48
1, 39991, Note_off_c, 0, 70, 46
1, 39992, Note_on_c, 0, 71, 37
1, 40000, Control_c, 0, 67, 34
1, 40015, Control_c, 0, 67, 26
1, 40019, Note_off_c, 0, 58, 61
1, 40020, Note_off_c, 0, 61, 58
1, 40021, Note_off_c, 0, 71, 53
1, 40030, Control_c, 0, 67, 34
1, 40037, Note_on_c, 0, 57, 83
1, 40043, Note_on_c, 0, 74, 89
1, 40044, Note_on_c, 0, 62, 82
1, 40045, Control_c, 0, 67, 51
1, 40046, Note_on_c, 0, 69, 86
1, 40047, Note_off_c, 0, 73, 58
1, 40060, Control_c, 0, 67, 85
1, 40075, Control_c, 0, 64, 69
1, 40075, Control_c, 0, 67, 117
1, 40082, Note_off_c, 0, 57, 63
1, 40083, Note_off_c, 0, 62, 61
1, 40087, Note_off_c, 0, 74, 65
1, 40090, Control_c, 0, 64, 0
1, 40090, Control_c, 0, 67, 123
1, 40091, Note_off_c, 0, 69, 60
1, 40134, Control_c, 0, 67, 125
1, 40139, Note_on_c, 0, 70, 68
1, 40144, Note_on_c, 0, 56, 71
1, 40148, Note_on_c, 0, 58, 63
1, 40149, Control_c, 0, 67, 127
1, 40157, Note_on_c, 0, 68, 36
1, 40157, Note_off_c, 0, 68, 127
1, 40187, Note_off_c, 0, 58, 63
1, 40192, Note_off_c, 0, 56, 50
1, 40240, Note_on_c, 0, 67, 41
1, 40241, Note_off_c, 0, 70, 62
1, 40245, Note_on_c, 0, 71, 67
1, 40252, Note_on_c, 0, 55, 62
1, 40255, Note_on_c, 0, 59, 55
1, 40291, Note_off_c, 0, 59, 62
1, 40291, Note_off_c, 0, 67, 61
1, 40309, Note_off_c, 0, 71, 59
1, 40322, Note_off_c, 0, 55, 60
1, 40330, Note_on_c, 0, 68, 54
1, 40336, Note_on_c, 0, 58, 56
1, 40336, Note_on_c, 0, 70, 43
1, 40348, Note_on_c, 0, 56, 32
1, 40383, Note_off_c, 0, 58, 57
1, 40394, Note_off_c, 0, 56, 44
1, 40414, Note_off_c, 0, 68, 37
1, 40431, Note_off_c, 0, 70, 62
1, 40436, Note_on_c, 0, 67, 55
1, 40443, Note_on_c, 0, 71, 66
1, 40446, Note_on_c, 0, 55, 56
1, 40446, Note_on_c, 0, 59, 50
1, 40474, Note_off_c, 0, 67, 61
1, 40482, Note_off_c, 0, 55, 63
1, 40494, Note_off_c, 0, 59, 60
1, 40500, Note_off_c, 0, 71, 61
1, 40524, Note_on_c, 0, 68, 66
1, 40529, Note_on_c, 0, 58, 57
1, 40530, Note_on_c, 0, 70, 59
1, 40548, Note_on_c, 0, 56, 37
1, 40578, Note_off_c, 0, 56, 54
1, 40578, Note_off_c, 0, 58, 61
1, 40616, Control_c, 0, 64, 39
1, 40620, Note_off_c, 0, 68, 60
1, 40627, Note_off_c, 0, 70, 63
1, 40631, Note_on_c, 0, 55, 67
1, 40631, Control_c, 0, 64, 48
1, 40637, Note_on_c, 0, 59, 60
1, 40637, Note_on_c, 0, 67, 65
1, 40637, Note_on_c, 0, 71, 70
1, 40646, Control_c, 0, 64, 50
1, 40661, Control_c, 0, 64, 51
1, 40663, Note_off_c, 0, 71, 67
1, 40672, Note_off_c, 0, 67, 60
1, 40675, Control_c, 0, 64, 53
1, 40682, Note_off_c, 0, 59, 60
1, 40690, Control_c, 0, 64, 55
1, 40700, Note_off_c, 0, 55, 59
1, 40705, Control_c, 0, 64, 58
1, 40720, Note_on_c, 0, 58, 63
1, 40720, Control_c, 0, 64, 59
1, 40723, Note_on_c, 0, 73, 76
1, 40727, Note_on_c, 0, 70, 72
1, 40731, Note_on_c, 0, 61, 59
1, 40735, Control_c, 0, 64, 59
1, 40765, Control_c, 0, 64, 61
1, 40780, Control_c, 0, 64, 62
1, 40789, Note_off_c, 0, 70, 61
1, 40792, Note_off_c, 0, 58, 62
1, 40806, Note_off_c, 0, 61, 60
1, 40808, Note_on_c, 0, 57, 80
1, 40809, Control_c, 0, 64, 57
1, 40813, Note_on_c, 0, 62, 78
1, 40818, Note_on_c, 0, 74, 89
1, 40819, Note_on_c, 0, 69, 81
1, 40824, Control_c, 0, 64, 40
1, 40825, Note_off_c, 0, 73, 62
1, 40839, Control_c, 0, 64, 0
1, 40854, Control_c, 0, 64, 47
1, 40860, Note_off_c, 0, 69, 62
1, 40868, Control_c, 0, 64, 68
1, 40882, Note_off_c, 0, 74, 58
1, 40883, Control_c, 0, 64, 91
1, 40893, Note_off_c, 0, 57, 59
1, 40896, Note_off_c, 0, 62, 37
1, 40898, Control_c, 0, 64, 127
1, 40905, Note_on_c, 0, 63, 76
1, 40906, Note_on_c, 0, 75, 87
1, 40907, Note_on_c, 0, 61, 74
1, 40908, Note_on_c, 0, 73, 87
1, 40913, Control_c, 0, 67, 121
1, 40927, Control_c, 0, 67, 115
1, 40942, Control_c, 0, 67, 117
1, 40950, Note_off_c, 0, 61, 57
1, 40966, Note_off_c, 0, 63, 60
1, 40971, Note_off_c, 0, 73, 62
1, 40972, Control_c, 0, 67, 119
1, 40994, Note_on_c, 0, 60, 85
1, 40995, Note_on_c, 0, 64, 78
1, 40997, Note_off_c, 0, 75, 65
1, 40998, Note_on_c, 0, 72, 90
1, 41001, Control_c, 0, 64, 91
1, 41005, Note_on_c, 0, 76, 90
1, 41016, Control_c, 0, 64, 50
1, 41016, Control_c, 0, 67, 123
1, 41031, Control_c, 0, 64, 0
1, 41031, Control_c, 0, 67, 127
1, 41041, Note_off_c, 0, 60, 65
1, 41041, Note_off_c, 0, 64, 64
1, 41046, Note_off_c, 0, 72, 64
1, 41075, Note_off_c, 0, 76, 62
1, 41088, Note_on_c, 0, 75, 74
1, 41090, Note_on_c, 0, 61, 62
1, 41090, Note_on_c, 0, 63, 65
1, 41090, Note_on_c, 0, 73, 73
1, 41130, Note_off_c, 0, 61, 59
1, 41146, Note_off_c, 0, 63, 61
1, 41148, Note_off_c, 0, 73, 62
1, 41152, Note_off_c, 0, 75, 58
1, 41194, Note_on_c, 0, 76, 71
1, 41195, Note_on_c, 0, 60, 58
1, 41196, Note_on_c, 0, 72, 61
1, 41197, Note_on_c, 0, 64, 58
1, 41241, Note_off_c, 0, 72, 63
1, 41243, Note_off_c, 0, 60, 56
1, 41261, Note_off_c, 0, 64, 60
1, 41271, Note_off_c, 0, 76, 62
1, 41283, Note_on_c, 0, 61, 44
1, 41285, Note_on_c, 0, 75, 56
1, 41287, Note_on_c, 0, 73, 61
1, 41288, Note_on_c, 0, 63, 56
1, 41376, Note_off_c, 0, 63, 60
1, 41378, Note_off_c, 0, 61, 48
1, 41379, Note_off_c, 0, 73, 59
1, 41388, Note_on_c, 0, 60, 58
1, 41389, Note_on_c, 0, 72, 66
1, 41393, Note_off_c, 0, 75, 62
1, 41399, Note_on_c, 0, 76, 70
1, 41403, Note_on_c, 0, 64, 55
1, 41420, Note_off_c, 0, 60, 66
1, 41433, Note_off_c, 0, 72, 63
1, 41446, Note_off_c, 0, 64, 56
1, 41454, Note_off_c, 0, 76, 61
1, 41485, Note_on_c, 0, 73, 73
1, 41486, Note_on_c, 0, 58, 66
1, 41487, Note_on_c, 0, 70, 65
1, 41490, Note_on_c, 0, 61, 63
1, 41532, Note_off_c, 0, 58, 59
1, 41546, Note_off_c, 0, 61, 59
1, 41555, Note_off_c, 0, 70, 57
1, 41573, Note_off_c, 0, 73, 62
1, 41574, Note_on_c, 0, 69, 72
1, 41575, Note_on_c, 0, 57, 73
1, 41581, Note_on_c, 0, 62, 72
1, 41582, Note_on_c, 0, 74, 75
1, 41603, Control_c, 0, 64, 44
1, 41618, Note_off_c, 0, 69, 60
1, 41618, Control_c, 0, 64, 61
1, 41632, Note_off_c, 0, 57, 62
1, 41632, Note_off_c, 0, 74, 58
1, 41632, Control_c, 0, 64, 43
1, 41640, Note_off_c, 0, 62, 55
1, 41647, Control_c, 0, 64, 0
1, 41670, Note_on_c, 0, 75, 73
1, 41671, Note_on_c, 0, 73, 75
1, 41674, Note_on_c, 0, 63, 68
1, 41678, Note_on_c, 0, 61, 61
1, 41713, Note_off_c, 0, 61, 60
1, 41726, Note_off_c, 0, 63, 60
1, 41757, Note_off_c, 0, 73, 53
1, 41764, Note_on_c, 0, 72, 83
1, 41765, Note_on_c, 0, 60, 77
1, 41765, Note_on_c, 0, 64, 75
1, 41766, Note_on_c, 0, 76, 88
1, 41770, Note_off_c, 0, 75, 64
1, 41815, Note_off_c, 0, 72, 63
1, 41819, Note_off_c, 0, 60, 64
1, 41822, Note_off_c, 0, 64, 62
1, 41853, Note_on_c, 0, 75, 70
1, 41854, Note_on_c, 0, 61, 70
1, 41856, Note_on_c, 0, 73, 75
1, 41856, Note_off_c, 0, 76, 60
1, 41857, Note_on_c, 0, 63, 66
1, 41894, Note_off_c, 0, 61, 61
1, 41906, Note_off_c, 0, 63, 58
1, 41948, Note_off_c, 0, 73, 38
1, 41954, Note_off_c, 0, 75, 63
1, 41958, Note_on_c, 0, 60, 62
1, 41961, Note_on_c, 0, 72, 67
1, 41961, Note_on_c, 0, 76, 77
1, 41965, Note_on_c, 0, 64, 57
1, 41998, Note_off_c, 0, 76, 63
1, 42004, Note_off_c, 0, 60, 61
1, 42004, Note_off_c, 0, 72, 64
1, 42024, Note_off_c, 0, 64, 60
1, 42054, Note_on_c, 0, 61, 61
1, 42059, Note_on_c, 0, 78, 81
1, 42060, Note_on_c, 0, 63, 60
1, 42061, Note_on_c, 0, 75, 79
1, 42122, Note_off_c, 0, 75, 61
1, 42139, Note_off_c, 0, 61, 58
1, 42143, Note_on_c, 0, 60, 71
1, 42143, Note_off_c, 0, 63, 63
1, 42150, Note_on_c, 0, 74, 79
1, 42151, Note_on_c, 0, 79, 88
1, 42154, Note_on_c, 0, 64, 67
1, 42163, Note_off_c, 0, 78, 62
1, 42178, Note_off_c, 0, 60, 68
1, 42194, Note_off_c, 0, 74, 65
1, 42196, Note_off_c, 0, 64, 60
1, 42205, Note_off_c, 0, 79, 62
1, 42243, Note_on_c, 0, 75, 72
1, 42245, Note_on_c, 0, 58, 71
1, 42246, Note_on_c, 0, 73, 71
1, 42250, Note_on_c, 0, 61, 70
1, 42296, Note_off_c, 0, 58, 62
1, 42304, Note_off_c, 0, 61, 57
1, 42309, Note_off_c, 0, 73, 54
1, 42327, Note_off_c, 0, 75, 62
1, 42339, Note_on_c, 0, 57, 72
1, 42341, Note_on_c, 0, 72, 70
1, 42342, Note_on_c, 0, 76, 79
1, 42345, Note_on_c, 0, 62, 69
1, 42376, Note_off_c, 0, 72, 58
1, 42382, Note_off_c, 0, 76, 63
1, 42402, Note_off_c, 0, 57, 58
1, 42407, Note_off_c, 0, 62, 56
1, 42435, Note_on_c, 0, 78, 78
1, 42436, Note_on_c, 0, 75, 79
1, 42440, Note_on_c, 0, 61, 67
1, 42440, Note_on_c, 0, 63, 68
1, 42481, Note_off_c, 0, 63, 61
1, 42490, Note_off_c, 0, 61, 53
1, 42494, Note_off_c, 0, 75, 61
1, 42527, Note_on_c, 0, 64, 72
1, 42528, Note_on_c, 0, 60, 62
1, 42530, Note_on_c, 0, 79, 85
1, 42530, Note_off_c, 0, 78, 57
1, 42531, Note_on_c, 0, 74, 80
1, 42559, Note_off_c, 0, 60, 67
1, 42566, Note_off_c, 0, 64, 62
1, 42571, Note_off_c, 0, 74, 64
1, 42585, Note_off_c, 0, 79, 64
1, 42619, Note_on_c, 0, 58, 73
1, 42619, Note_on_c, 0, 61, 71
1, 42619, Note_on_c, 0, 75, 72
1, 42624, Note_on_c, 0, 73, 78
1, 42670, Note_off_c, 0, 58, 56
1, 42678, Note_off_c, 0, 73, 61
1, 42679, Note_off_c, 0, 61, 61
1, 42702, Note_off_c, 0, 75, 65
1, 42703, Note_on_c, 0, 57, 80
1, 42708, Note_on_c, 0, 76, 84
1, 42711, Note_on_c, 0, 62, 78
1, 42711, Note_on_c, 0, 72, 79
1, 42750, Note_off_c, 0, 72, 61
1, 42755, Note_off_c, 0, 57, 63
1, 42755, Note_off_c, 0, 76, 65
1, 42761, Note_off_c, 0, 62, 58
1, 42803, Control_c, 0, 64, 49
1, 42809, Note_on_c, 0, 63, 78
1, 42810, Note_on_c, 0, 61, 75
1, 42810, Note_on_c, 0, 75, 85
1, 42812, Note_on_c, 0, 78, 83
1, 42818, Control_c, 0, 64, 34
1, 42833, Control_c, 0, 64, 0
1, 42845, Note_off_c, 0, 61, 61
1, 42863, Note_off_c, 0, 63, 61
1, 42864, Note_off_c, 0, 75, 63
1, 42881, Note_off_c, 0, 78, 64
1, 42904, Note_on_c, 0, 64, 77
1, 42908, Note_on_c, 0, 59, 55
1, 42909, Note_on_c, 0, 74, 87
1, 42909, Note_on_c, 0, 79, 88
1, 42919, Note_on_c, 0, 60, 58
1, 42936, Note_off_c, 0, 59, 66
1, 42940, Note_off_c, 0, 60, 62
1, 42953, Note_off_c, 0, 64, 60
1, 42953, Note_off_c, 0, 74, 62
1, 42974, Note_off_c, 0, 79, 62
1, 42991, Note_on_c, 0, 61, 85
1, 42992, Note_on_c, 0, 58, 75
1, 42994, Note_on_c, 0, 78, 84
1, 42995, Note_on_c, 0, 75, 80
1, 43032, Note_off_c, 0, 58, 63
1, 43044, Note_off_c, 0, 61, 61
1, 43054, Note_off_c, 0, 75, 61
1, 43069, Control_c, 0, 67, 84
1, 43080, Note_on_c, 0, 62, 90
1, 43081, Note_off_c, 0, 78, 62
1, 43084, Control_c, 0, 67, 0
1, 43085, Note_on_c, 0, 57, 93
1, 43087, Note_on_c, 0, 74, 90
1, 43090, Note_on_c, 0, 79, 90
1, 43110, Note_off_c, 0, 62, 69
1, 43111, Note_off_c, 0, 57, 68
1, 43114, Control_c, 0, 67, 21
1, 43129, Control_c, 0, 67, 26
1, 43136, Note_off_c, 0, 74, 63
1, 43158, Control_c, 0, 67, 23
1, 43163, Note_off_c, 0, 79, 64
1, 43173, Control_c, 0, 67, 21
1, 43181, Note_on_c, 0, 78, 81
1, 43182, Note_on_c, 0, 75, 76
1, 43203, Control_c, 0, 67, 31
1, 43218, Control_c, 0, 67, 41
1, 43233, Control_c, 0, 67, 48
1, 43234, Note_off_c, 0, 75, 63
1, 43248, Control_c, 0, 67, 46
1, 43263, Control_c, 0, 67, 43
1, 43277, Control_c, 0, 67, 40
1, 43278, Note_off_c, 0, 78, 60
1, 43284, Note_on_c, 0, 74, 80
1, 43284, Note_on_c, 0, 79, 82
1, 43292, Control_c, 0, 67, 43
1, 43307, Control_c, 0, 67, 49
1, 43321, Control_c, 0, 67, 50
1, 43334, Note_off_c, 0, 74, 63
1, 43336, Control_c, 0, 67, 51
1, 43351, Control_c, 0, 67, 48
1, 43366, Control_c, 0, 67, 42
1, 43368, Note_off_c, 0, 79, 52
1, 43375, Note_on_c, 0, 78, 88
1, 43379, Note_on_c, 0, 75, 76
1, 43380, Note_on_c, 0, 61, 81
1, 43381, Note_on_c, 0, 66, 80
1, 43381, Control_c, 0, 67, 39
1, 43395, Control_c, 0, 67, 41
1, 43410, Control_c, 0, 67, 46
1, 43425, Control_c, 0, 67, 46
1, 43430, Note_off_c, 0, 66, 62
1, 43434, Note_off_c, 0, 61, 62
1, 43436, Note_on_c, 0, 76, 18
1, 43439, Note_off_c, 0, 75, 60
1, 43439, Control_c, 0, 67, 42
1, 43454, Control_c, 0, 67, 35
1, 43468, Note_off_c, 0, 78, 59
1, 43469, Control_c, 0, 67, 19
1, 43473, Note_on_c, 0, 65, 95
1, 43474, Note_on_c, 0, 74, 84
1, 43474, Note_on_c, 0, 79, 78
1, 43477, Note_off_c, 0, 76, 37
1, 43479, Note_on_c, 0, 62, 87
1, 43484, Control_c, 0, 64, 61
1, 43484, Control_c, 0, 67, 0
1, 43498, Note_off_c, 0, 62, 71
1, 43499, Control_c, 0, 64, 56
1, 43499, Control_c, 0, 67, 19
1, 43503, Note_off_c, 0, 65, 66
1, 43513, Control_c, 0, 64, 0
1, 43513, Control_c, 0, 67, 25
1, 43523, Note_off_c, 0, 74, 64
1, 43528, Control_c, 0, 67, 28
1, 43566, Control_c, 0, 67, 25
1, 43567, Note_on_c, 0, 75, 81
1, 43571, Note_on_c, 0, 78, 83
1, 43571, Note_off_c, 0, 79, 65
1, 43597, Control_c, 0, 67, 28
1, 43612, Control_c, 0, 67, 37
1, 43622, Note_off_c, 0, 75, 64
1, 43626, Control_c, 0, 67, 47
1, 43641, Control_c, 0, 67, 49
1, 43656, Control_c, 0, 67, 47
1, 43663, Note_off_c, 0, 78, 60
1, 43664, Note_on_c, 0, 79, 89
1, 43665, Note_on_c, 0, 74, 83
1, 43671, Control_c, 0, 67, 42
1, 43686, Control_c, 0, 67, 39
1, 43700, Control_c, 0, 67, 43
1, 43715, Control_c, 0, 67, 49
1, 43716, Note_off_c, 0, 74, 62
1, 43730, Control_c, 0, 67, 50
1, 43744, Control_c, 0, 67, 50
1, 43751, Note_on_c, 0, 78, 94
1, 43752, Note_on_c, 0, 75, 82
1, 43753, Note_on_c, 0, 63, 78
1, 43755, Note_on_c, 0, 61, 74
1, 43758, Note_off_c, 0, 79, 63
1, 43759, Control_c, 0, 67, 48
1, 43774, Control_c, 0, 67, 43
1, 43789, Control_c, 0, 67, 41
1, 43796, Note_off_c, 0, 75, 66
1, 43804, Control_c, 0, 67, 48
1, 43818, Control_c, 0, 67, 55
1, 43830, Note_off_c, 0, 63, 61
1, 43830, Note_off_c, 0, 78, 63
1, 43833, Note_off_c, 0, 61, 60
1, 43833, Control_c, 0, 67, 62
1, 43842, Note_on_c, 0, 64, 79
1, 43846, Note_on_c, 0, 74, 93
1, 43848, Control_c, 0, 67, 63
1, 43849, Note_on_c, 0, 60, 78
1, 43849, Note_on_c, 0, 79, 96
1, 43863, Control_c, 0, 67, 61
1, 43864, Note_off_c, 0, 74, 73
1, 43867, Note_off_c, 0, 79, 71
1, 43878, Control_c, 0, 67, 56
1, 43890, Note_off_c, 0, 60, 56
1, 43901, Note_off_c, 0, 64, 61
1, 43907, Control_c, 0, 67, 65
1, 43922, Control_c, 0, 67, 74
1, 43937, Control_c, 0, 67, 80
1, 43947, Note_on_c, 0, 61, 72
1, 43948, Note_on_c, 0, 63, 71
1, 43966, Control_c, 0, 67, 78
1, 43981, Control_c, 0, 67, 74
1, 43996, Control_c, 0, 67, 74
1, 44011, Control_c, 0, 67, 82
1, 44026, Control_c, 0, 67, 87
1, 44032, Note_off_c, 0, 63, 56
1, 44035, Note_off_c, 0, 61, 34
1, 44041, Control_c, 0, 67, 89
1, 44043, Note_on_c, 0, 60, 79
1, 44048, Note_on_c, 0, 74, 99
1, 44049, Note_on_c, 0, 64, 62
1, 44050, Note_on_c, 0, 79, 100
1, 44056, Control_c, 0, 67, 88
1, 44070, Control_c, 0, 67, 85
1, 44085, Control_c, 0, 67, 81
1, 44100, Control_c, 0, 67, 82
1, 44102, Note_off_c, 0, 74, 54
1, 44115, Note_off_c, 0, 64, 55
1, 44115, Control_c, 0, 67, 89
1, 44123, Note_off_c, 0, 60, 43
1, 44130, Control_c, 0, 67, 91
1, 44132, Note_on_c, 0, 63, 76
1, 44138, Note_on_c, 0, 75, 86
1, 44144, Control_c, 0, 67, 91
1, 44145, Note_on_c, 0, 61, 61
1, 44145, Note_on_c, 0, 78, 84
1, 44157, Note_off_c, 0, 79, 65
1, 44159, Control_c, 0, 67, 90
1, 44174, Control_c, 0, 67, 88
1, 44177, Note_off_c, 0, 75, 64
1, 44181, Note_off_c, 0, 78, 64
1, 44189, Control_c, 0, 67, 85
1, 44193, Note_off_c, 0, 61, 50
1, 44197, Note_off_c, 0, 63, 59
1, 44204, Control_c, 0, 67, 87
1, 44218, Control_c, 0, 67, 92
1, 44233, Control_c, 0, 67, 94
1, 44234, Note_on_c, 0, 60, 73
1, 44239, Note_on_c, 0, 64, 66
1, 44248, Control_c, 0, 67, 94
1, 44262, Control_c, 0, 67, 91
1, 44277, Control_c, 0, 67, 89
1, 44300, Control_c, 0, 67, 86
1, 44308, Note_off_c, 0, 60, 56
1, 44315, Control_c, 0, 64, 40
1, 44315, Control_c, 0, 67, 88
1, 44324, Note_off_c, 0, 64, 59
1, 44330, Control_c, 0, 64, 35
1, 44330, Control_c, 0, 67, 94
1, 44331, Note_on_c, 0, 63, 63
1, 44332, Note_on_c, 0, 75, 84
1, 44332, Note_on_c, 0, 78, 87
1, 44334, Note_on_c, 0, 61, 70
1, 44344, Control_c, 0, 64, 0
1, 44344, Control_c, 0, 67, 96
1, 44359, Control_c, 0, 67, 95
1, 44375, Control_c, 0, 67, 94
1, 44390, Control_c, 0, 67, 93
1, 44404, Note_off_c, 0, 75, 59
1, 44405, Control_c, 0, 67, 89
1, 44418, Note_off_c, 0, 61, 61
1, 44419, Note_on_c, 0, 74, 88
1, 44419, Control_c, 0, 67, 88
1, 44421, Note_on_c, 0, 60, 69
1, 44424, Note_off_c, 0, 78, 64
1, 44425, Note_off_c, 0, 63, 63
1, 44427, Note_on_c, 0, 79, 92
1, 44434, Control_c, 0, 67, 93
1, 44440, Note_on_c, 0, 64, 70
1, 44447, Note_off_c, 0, 60, 69
1, 44449, Control_c, 0, 67, 97
1, 44467, Note_off_c, 0, 74, 66
1, 44474, Note_off_c, 0, 79, 65
1, 44479, Control_c, 0, 67, 96
1, 44482, Note_off_c, 0, 64, 55
1, 44493, Control_c, 0, 67, 95
1, 44508, Control_c, 0, 67, 91
1, 44515, Note_on_c, 0, 75, 90
1, 44517, Note_on_c, 0, 73, 95
1, 44523, Control_c, 0, 67, 90
1, 44525, Note_on_c, 0, 58, 77
1, 44526, Note_on_c, 0, 61, 83
1, 44538, Control_c, 0, 67, 94
1, 44553, Control_c, 0, 67, 99
1, 44567, Note_off_c, 0, 73, 64
1, 44567, Control_c, 0, 64, 51
1, 44582, Control_c, 0, 64, 55
1, 44583, Note_off_c, 0, 61, 62
1, 44591, Note_off_c, 0, 58, 60
1, 44597, Control_c, 0, 64, 0
1, 44607, Note_on_c, 0, 57, 85
1, 44607, Note_on_c, 0, 72, 94
1, 44608, Note_on_c, 0, 76, 98
1, 44612, Note_on_c, 0, 62, 80
1, 44612, Control_c, 0, 67, 96
1, 44622, Note_off_c, 0, 75, 64
1, 44627, Control_c, 0, 67, 94
1, 44639, Note_off_c, 0, 72, 66
1, 44641, Control_c, 0, 67, 98
1, 44643, Note_off_c, 0, 76, 67
1, 44653, Note_off_c, 0, 57, 65
1, 44656, Control_c, 0, 67, 103
1, 44671, Control_c, 0, 67, 107
1, 44704, Note_on_c, 0, 61, 78
1, 44706, Note_on_c, 0, 58, 73
1, 44715, Control_c, 0, 67, 104
1, 44718, Note_off_c, 0, 62, 58
1, 44730, Control_c, 0, 67, 101
1, 44739, Note_off_c, 0, 58, 64
1, 44759, Note_off_c, 0, 61, 63
1, 44760, Control_c, 0, 67, 107
1, 44794, Note_on_c, 0, 57, 79
1, 44801, Note_on_c, 0, 62, 72
1, 44813, Note_on_c, 0, 74, 95
1, 44813, Note_on_c, 0, 79, 95
1, 44819, Control_c, 0, 67, 104
1, 44834, Control_c, 0, 67, 100
1, 44849, Note_off_c, 0, 57, 64
1, 44849, Control_c, 0, 64, 55
1, 44862, Note_off_c, 0, 62, 59
1, 44864, Control_c, 0, 64, 0
1, 44864, Control_c, 0, 67, 107
1, 44878, Control_c, 0, 67, 109
1, 44882, Note_off_c, 0, 74, 62
1, 44890, Note_on_c, 0, 61, 75
1, 44893, Note_on_c, 0, 58, 71
1, 44907, Note_on_c, 0, 75, 89
1, 44907, Note_on_c, 0, 78, 85
1, 44923, Control_c, 0, 67, 106
1, 44923, Note_off_c, 0, 79, 65
1, 44938, Control_c, 0, 67, 103
1, 44938, Note_off_c, 0, 58, 62
1, 44942, Note_off_c, 0, 75, 65
1, 44945, Note_off_c, 0, 61, 62
1, 44947, Note_off_c, 0, 78, 65
1, 44967, Control_c, 0, 67, 108
1, 44982, Control_c, 0, 67, 111
1, 44990, Note_on_c, 0, 62, 72
1, 44992, Note_on_c, 0, 57, 72
1, 45011, Control_c, 0, 67, 108
1, 45048, Control_c, 0, 67, 103
1, 45061, Note_off_c, 0, 57, 51
1, 45078, Control_c, 0, 67, 106
1, 45079, Note_off_c, 0, 62, 54
1, 45093, Control_c, 0, 67, 109
1, 45093, Note_on_c, 0, 58, 66
1, 45097, Note_on_c, 0, 61, 69
1, 45099, Note_on_c, 0, 78, 89
1, 45103, Note_on_c, 0, 75, 78
1, 45123, Control_c, 0, 67, 107
1, 45153, Control_c, 0, 67, 104
1, 45183, Note_off_c, 0, 75, 64
1, 45183, Note_on_c, 0, 57, 74
1, 45184, Note_off_c, 0, 58, 59
1, 45187, Note_on_c, 0, 62, 76
1, 45188, Note_on_c, 0, 74, 82
1, 45190, Note_off_c, 0, 61, 62
1, 45191, Note_on_c, 0, 79, 85
1, 45197, Control_c, 0, 67, 109
1, 45202, Note_off_c, 0, 78, 63
1, 45238, Note_off_c, 0, 57, 63
1, 45241, Note_off_c, 0, 79, 63
1, 45243, Note_off_c, 0, 74, 61
1, 45248, Note_off_c, 0, 62, 60
1, 45257, Control_c, 0, 67, 106
1, 45272, Control_c, 0, 67, 104
1, 45279, Note_on_c, 0, 56, 80
1, 45281, Note_on_c, 0, 75, 87
1, 45282, Note_on_c, 0, 58, 79
1, 45286, Note_on_c, 0, 73, 82
1, 45302, Control_c, 0, 67, 109
1, 45316, Control_c, 0, 67, 111
1, 45332, Note_off_c, 0, 56, 61
1, 45339, Note_off_c, 0, 58, 61
1, 45342, Note_off_c, 0, 73, 60
1, 45361, Control_c, 0, 67, 108
1, 45365, Note_on_c, 0, 55, 85
1, 45368, Note_on_c, 0, 59, 83
1, 45370, Note_on_c, 0, 76, 92
1, 45370, Note_on_c, 0, 72, 90
1, 45376, Control_c, 0, 67, 106
1, 45386, Note_off_c, 0, 75, 63
1, 45390, Control_c, 0, 64, 43
1, 45405, Control_c, 0, 64, 57
1, 45405, Control_c, 0, 67, 111
1, 45406, Note_off_c, 0, 72, 66
1, 45412, Note_off_c, 0, 76, 65
1, 45420, Control_c, 0, 64, 0
1, 45420, Control_c, 0, 67, 114
1, 45421, Note_off_c, 0, 59, 64
1, 45431, Note_off_c, 0, 55, 54
1, 45457, Note_on_c, 0, 56, 82
1, 45460, Note_on_c, 0, 58, 81
1, 45479, Control_c, 0, 67, 111
1, 45504, Note_off_c, 0, 56, 60
1, 45509, Control_c, 0, 67, 115
1, 45511, Note_off_c, 0, 58, 65
1, 45523, Control_c, 0, 67, 118
1, 45555, Note_on_c, 0, 55, 80
1, 45556, Note_on_c, 0, 59, 72
1, 45567, Note_on_c, 0, 78, 93
1, 45568, Note_on_c, 0, 75, 89
1, 45582, Control_c, 0, 67, 114
1, 45606, Note_off_c, 0, 55, 64
1, 45612, Control_c, 0, 67, 118
1, 45614, Note_off_c, 0, 59, 63
1, 45627, Control_c, 0, 67, 120
1, 45649, Note_on_c, 0, 56, 79
1, 45651, Note_on_c, 0, 58, 78
1, 45665, Note_off_c, 0, 75, 58
1, 45666, Note_on_c, 0, 74, 78
1, 45666, Note_on_c, 0, 79, 93
1, 45671, Control_c, 0, 67, 118
1, 45680, Note_off_c, 0, 78, 63
1, 45684, Note_off_c, 0, 58, 64
1, 45686, Control_c, 0, 67, 114
1, 45695, Note_off_c, 0, 74, 67
1, 45699, Note_off_c, 0, 56, 63
1, 45701, Note_off_c, 0, 79, 66
1, 45713, Note_on_c, 0, 76, 12
1, 45713, Note_off_c, 0, 76, 127
1, 45716, Control_c, 0, 67, 118
1, 45731, Control_c, 0, 67, 123
1, 45744, Note_on_c, 0, 55, 79
1, 45749, Note_on_c, 0, 59, 73
1, 45776, Control_c, 0, 67, 121
1, 45797, Control_c, 0, 67, 118
1, 45805, Note_off_c, 0, 55, 62
1, 45812, Control_c, 0, 67, 115
1, 45827, Control_c, 0, 67, 117
1, 45829, Note_off_c, 0, 59, 0
1, 45841, Control_c, 0, 67, 123
1, 45849, Note_on_c, 0, 74, 87
1, 45851, Note_on_c, 0, 79, 89
1, 45858, Note_on_c, 0, 56, 75
1, 45858, Note_on_c, 0, 58, 80
1, 45870, Poly_aftertouch_c, 0, 59, 0
1, 45871, Control_c, 0, 64, 41
1, 45886, Control_c, 0, 64, 53
1, 45894, Note_off_c, 0, 56, 60
1, 45901, Control_c, 0, 64, 0
1, 45901, Control_c, 0, 67, 118
1, 45911, Note_off_c, 0, 58, 64
1, 45916, Control_c, 0, 67, 115
1, 45928, Note_off_c, 0, 74, 62
1, 45943, Note_on_c, 0, 75, 83
1, 45946, Note_on_c, 0, 55, 75
1, 45946, Control_c, 0, 67, 122
1, 45950, Note_on_c, 0, 59, 75
1, 45951, Note_off_c, 0, 79, 64
1, 45953, Note_on_c, 0, 77, 71
1, 45979, Note_off_c, 0, 77, 65
1, 45988, Note_off_c, 0, 75, 64
1, 45991, Control_c, 0, 64, 37
1, 46003, Note_off_c, 0, 55, 63
1, 46006, Control_c, 0, 64, 0
1, 46006, Control_c, 0, 67, 119
1, 46020, Control_c, 0, 67, 117
1, 46036, Note_on_c, 0, 72, 85
1, 46037, Note_on_c, 0, 76, 75
1, 46044, Note_on_c, 0, 55, 62
1, 46050, Control_c, 0, 67, 123
1, 46065, Control_c, 0, 67, 125
1, 46071, Note_off_c, 0, 59, 64
1, 46080, Control_c, 0, 64, 36
1, 46083, Note_off_c, 0, 55, 65
1, 46089, Note_off_c, 0, 72, 64
1, 46095, Control_c, 0, 64, 0
1, 46095, Control_c, 0, 67, 123
1, 46110, Control_c, 0, 67, 121
1, 46124, Control_c, 0, 67, 118
1, 46129, Note_on_c, 0, 53, 89
1, 46130, Note_on_c, 0, 73, 91
1, 46131, Note_on_c, 0, 75, 85
1, 46138, Note_off_c, 0, 76, 65
1, 46145, Note_on_c, 0, 59, 56
1, 46154, Control_c, 0, 67, 124
1, 46160, Note_off_c, 0, 73, 66
1, 46164, Note_off_c, 0, 75, 65
1, 46166, Note_on_c, 0, 55, 15
1, 46166, Note_off_c, 0, 55, 127
1, 46168, Note_off_c, 0, 59, 59
1, 46169, Control_c, 0, 67, 127
1, 46180, Note_off_c, 0, 53, 62
1, 46184, Control_c, 0, 64, 40
1, 46199, Control_c, 0, 64, 0
1, 46216, Note_on_c, 0, 54, 87
1, 46227, Note_on_c, 0, 56, 76
1, 46228, Control_c, 0, 67, 124
1, 46243, Control_c, 0, 67, 121
1, 46258, Control_c, 0, 67, 123
1, 46262, Note_off_c, 0, 56, 63
1, 46267, Note_off_c, 0, 54, 65
1, 46272, Control_c, 0, 67, 127
1, 46312, Note_on_c, 0, 53, 82
1, 46318, Note_on_c, 0, 73, 98
1, 46318, Note_on_c, 0, 57, 80
1, 46319, Note_on_c, 0, 75, 91
1, 46332, Control_c, 0, 67, 124
1, 46346, Control_c, 0, 67, 120
1, 46363, Note_off_c, 0, 73, 64
1, 46377, Control_c, 0, 64, 51
1, 46377, Control_c, 0, 67, 126
1, 46392, Control_c, 0, 64, 44
1, 46406, Control_c, 0, 64, 0
1, 46408, Note_on_c, 0, 76, 76
1, 46410, Note_on_c, 0, 54, 79
1, 46411, Note_on_c, 0, 72, 89
1, 46411, Note_off_c, 0, 75, 56
1, 46411, Note_on_c, 0, 56, 82
1, 46420, Note_off_c, 0, 57, 60
1, 46422, Note_off_c, 0, 53, 58
1, 46436, Control_c, 0, 67, 124
1, 46441, Note_off_c, 0, 72, 68
1, 46447, Note_off_c, 0, 76, 67
1, 46451, Control_c, 0, 67, 120
1, 46452, Note_off_c, 0, 54, 61
1, 46458, Note_off_c, 0, 56, 63
1, 46480, Control_c, 0, 64, 55
1, 46480, Control_c, 0, 67, 127
1, 46495, Control_c, 0, 64, 46
1, 46506, Note_on_c, 0, 53, 80
1, 46510, Control_c, 0, 64, 0
1, 46511, Note_on_c, 0, 57, 74
1, 46562, Control_c, 0, 67, 124
1, 46570, Note_off_c, 0, 53, 62
1, 46570, Note_off_c, 0, 57, 53
1, 46592, Control_c, 0, 64, 53
1, 46592, Control_c, 0, 67, 127
1, 46605, Note_on_c, 0, 54, 80
1, 46606, Note_on_c, 0, 56, 80
1, 46607, Control_c, 0, 64, 44
1, 46607, Note_on_c, 0, 68, 88
1, 46607, Note_on_c, 0, 70, 86
1, 46621, Control_c, 0, 64, 0
1, 46649, Note_off_c, 0, 54, 60
1, 46652, Note_off_c, 0, 56, 58
1, 46666, Note_off_c, 0, 68, 63
1, 46692, Note_on_c, 0, 53, 85
1, 46697, Note_on_c, 0, 67, 83
1, 46698, Note_on_c, 0, 57, 80
1, 46698, Note_on_c, 0, 71, 88
1, 46703, Note_off_c, 0, 70, 65
1, 46718, Note_off_c, 0, 67, 70
1, 46728, Note_off_c, 0, 71, 66
1, 46739, Note_off_c, 0, 53, 62
1, 46747, Note_off_c, 0, 57, 63
1, 46750, Note_on_c, 0, 55, 13
1, 46750, Note_off_c, 0, 55, 127
1, 46789, Note_on_c, 0, 54, 81
1, 46791, Note_on_c, 0, 56, 77
1, 46826, Note_off_c, 0, 54, 61
1, 46836, Note_off_c, 0, 56, 61
1, 46879, Note_on_c, 0, 53, 84
1, 46882, Note_on_c, 0, 57, 80
1, 46892, Note_on_c, 0, 76, 96
1, 46893, Note_on_c, 0, 72, 89
1, 46929, Note_off_c, 0, 53, 63
1, 46936, Note_off_c, 0, 57, 64
1, 46954, Note_off_c, 0, 72, 61
1, 46971, Note_on_c, 0, 54, 78
1, 46978, Note_on_c, 0, 56, 78
1, 46988, Note_on_c, 0, 73, 84
1, 46989, Note_on_c, 0, 75, 79
1, 46992, Control_c, 0, 64, 46
1, 46996, Note_off_c, 0, 76, 65
1, 47007, Control_c, 0, 64, 0
1, 47013, Note_off_c, 0, 73, 65
1, 47020, Note_off_c, 0, 54, 63
1, 47022, Note_off_c, 0, 75, 65
1, 47030, Note_off_c, 0, 56, 59
1, 47073, Note_on_c, 0, 57, 83
1, 47075, Note_on_c, 0, 53, 71
1, 47096, Control_c, 0, 64, 44
1, 47111, Control_c, 0, 64, 0
1, 47120, Note_off_c, 0, 57, 64
1, 47124, Note_off_c, 0, 53, 61
1, 47161, Note_on_c, 0, 54, 83
1, 47165, Note_on_c, 0, 70, 87
1, 47165, Note_on_c, 0, 68, 85
1, 47167, Note_on_c, 0, 56, 76
1, 47210, Note_off_c, 0, 54, 63
1, 47222, Note_off_c, 0, 68, 63
1, 47223, Note_off_c, 0, 56, 61
1, 47257, Note_on_c, 0, 67, 80
1, 47258, Note_on_c, 0, 71, 84
1, 47260, Note_on_c, 0, 53, 83
1, 47260, Note_on_c, 0, 57, 81
1, 47266, Note_off_c, 0, 70, 62
1, 47290, Note_off_c, 0, 67, 66
1, 47299, Note_off_c, 0, 71, 67
1, 47311, Control_c, 0, 64, 41
1, 47314, Note_off_c, 0, 53, 62
1, 47315, Note_off_c, 0, 57, 63
1, 47326, Control_c, 0, 64, 42
1, 47341, Control_c, 0, 64, 0
1, 47359, Note_on_c, 0, 54, 81
1, 47361, Note_on_c, 0, 56, 81
1, 47403, Note_off_c, 0, 54, 63
1, 47412, Note_off_c, 0, 56, 61
1, 47414, Control_c, 0, 64, 39
1, 47429, Control_c, 0, 64, 52
1, 47444, Control_c, 0, 64, 45
1, 47455, Note_on_c, 0, 73, 92
1, 47456, Note_on_c, 0, 53, 86
1, 47456, Note_on_c, 0, 75, 84
1, 47459, Control_c, 0, 64, 0
1, 47461, Note_on_c, 0, 57, 83
1, 47504, Note_off_c, 0, 53, 64
1, 47505, Note_off_c, 0, 57, 61
1, 47540, Note_off_c, 0, 73, 61
1, 47540, Note_on_c, 0, 72, 76
1, 47542, Note_on_c, 0, 76, 82
1, 47545, Note_on_c, 0, 54, 79
1, 47548, Control_c, 0, 64, 36
1, 47549, Note_on_c, 0, 56, 83
1, 47552, Note_off_c, 0, 75, 60
1, 47564, Control_c, 0, 64, 0
1, 47574, Note_off_c, 0, 72, 66
1, 47582, Note_off_c, 0, 76, 65
1, 47594, Note_off_c, 0, 54, 61
1, 47603, Note_off_c, 0, 56, 62
1, 47651, Note_on_c, 0, 53, 78
1, 47651, Note_on_c, 0, 57, 77
1, 47653, Control_c, 0, 64, 40
1, 47667, Control_c, 0, 64, 38
1, 47682, Control_c, 0, 64, 0
1, 47691, Note_off_c, 0, 53, 62
1, 47698, Note_off_c, 0, 57, 62
1, 47735, Note_on_c, 0, 73, 82
1, 47737, Note_on_c, 0, 70, 79
1, 47737, Note_on_c, 0, 54, 83
1, 47740, Note_on_c, 0, 56, 75
1, 47771, Control_c, 0, 64, 37
1, 47785, Control_c, 0, 64, 33
1, 47786, Note_off_c, 0, 54, 62
1, 47787, Note_off_c, 0, 56, 60
1, 47800, Control_c, 0, 64, 0
1, 47825, Note_off_c, 0, 70, 64
1, 47827, Note_on_c, 0, 74, 80
1, 47831, Note_on_c, 0, 69, 67
1, 47832, Note_on_c, 0, 53, 84
1, 47833, Note_on_c, 0, 57, 78
1, 47836, Note_off_c, 0, 73, 62
1, 47853, Note_off_c, 0, 69, 69
1, 47855, Note_off_c, 0, 74, 67
1, 47871, Note_on_c, 0, 55, 38
1, 47876, Note_off_c, 0, 53, 61
1, 47879, Note_off_c, 0, 57, 63
1, 47908, Note_off_c, 0, 55, 34
1, 47922, Note_on_c, 0, 54, 78
1, 47930, Note_on_c, 0, 56, 81
1, 47963, Note_off_c, 0, 54, 62
1, 47972, Note_off_c, 0, 56, 60
1, 48020, Note_on_c, 0, 67, 80
1, 48021, Note_on_c, 0, 71, 85
1, 48024, Note_on_c, 0, 53, 80
1, 48025, Note_on_c, 0, 57, 82
1, 48077, Note_off_c, 0, 57, 62
1, 48082, Note_off_c, 0, 53, 62
1, 48101, Note_off_c, 0, 67, 58
1, 48116, Note_on_c, 0, 56, 89
1, 48118, Note_on_c, 0, 54, 84
1, 48129, Poly_aftertouch_c, 0, 67, 0
1, 48132, Note_off_c, 0, 71, 66
1, 48156, Note_on_c, 0, 69, 41
1, 48163, Note_off_c, 0, 54, 63
1, 48164, Note_off_c, 0, 56, 63
1, 48167, Poly_aftertouch_c, 0, 67, 0
1, 48181, Note_off_c, 0, 69, 54
1, 48211, Note_on_c, 0, 57, 86
1, 48216, Note_on_c, 0, 52, 81
1, 48253, Note_off_c, 0, 52, 64
1, 48256, Note_off_c, 0, 57, 62
1, 48292, Note_on_c, 0, 68, 83
1, 48294, Note_on_c, 0, 66, 81
1, 48302, Note_on_c, 0, 51, 84
1, 48304, Note_on_c, 0, 54, 89
1, 48338, Note_off_c, 0, 51, 64
1, 48346, Note_off_c, 0, 54, 65
1, 48376, Note_off_c, 0, 66, 46
1, 48387, Control_c, 0, 64, 52
1, 48391, Note_on_c, 0, 55, 97
1, 48395, Note_on_c, 0, 65, 81
1, 48396, Note_on_c, 0, 50, 96
1, 48399, Note_on_c, 0, 69, 79
1, 48402, Control_c, 0, 64, 45
1, 48407, Note_off_c, 0, 68, 65
1, 48416, Control_c, 0, 64, 0
1, 48424, Note_off_c, 0, 50, 65
1, 48424, Note_off_c, 0, 55, 66
1, 48454, Note_off_c, 0, 65, 61
1, 48490, Control_c, 0, 64, 52
1, 48494, Note_on_c, 0, 66, 75
1, 48494, Note_on_c, 0, 68, 85
1, 48497, Note_off_c, 0, 69, 63
1, 48505, Control_c, 0, 64, 0
1, 48545, Note_off_c, 0, 66, 62
1, 48587, Note_on_c, 0, 69, 78
1, 48589, Note_off_c, 0, 68, 64
1, 48591, Note_on_c, 0, 65, 76
1, 48594, Control_c, 0, 64, 44
1, 48608, Note_on_c, 0, 51, 72
1, 48608, Control_c, 0, 64, 0
1, 48609, Note_on_c, 0, 54, 80
1, 48657, Note_off_c, 0, 51, 60
1, 48661, Note_off_c, 0, 65, 57
1, 48663, Note_off_c, 0, 54, 64
1, 48682, Note_on_c, 0, 68, 82
1, 48682, Control_c, 0, 64, 43
1, 48686, Note_on_c, 0, 66, 71
1, 48688, Note_off_c, 0, 69, 62
1, 48689, Note_on_c, 0, 55, 77
1, 48694, Note_on_c, 0, 50, 77
1, 48697, Control_c, 0, 64, 56
1, 48712, Control_c, 0, 64, 42
1, 48717, Note_off_c, 0, 55, 68
1, 48720, Note_off_c, 0, 50, 68
1, 48727, Control_c, 0, 64, 0
1, 48760, Note_off_c, 0, 66, 52
1, 48779, Note_on_c, 0, 65, 77
1, 48792, Note_on_c, 0, 69, 72
1, 48796, Note_off_c, 0, 68, 59
1, 48809, Control_c, 0, 64, 46
1, 48823, Control_c, 0, 64, 38
1, 48838, Control_c, 0, 64, 0
1, 48854, Note_off_c, 0, 65, 58
1, 48884, Note_off_c, 0, 69, 61
1, 48887, Note_on_c, 0, 66, 65
1, 48887, Note_on_c, 0, 68, 80
1, 48896, Note_on_c, 0, 49, 73
1, 48897, Note_on_c, 0, 51, 69
1, 48941, Note_off_c, 0, 49, 59
1, 48944, Note_off_c, 0, 51, 57
1, 48971, Note_off_c, 0, 66, 51
1, 48976, Note_on_c, 0, 52, 81
1, 48978, Note_on_c, 0, 65, 72
1, 48979, Note_on_c, 0, 48, 79
1, 48984, Note_on_c, 0, 69, 70
1, 48987, Note_off_c, 0, 68, 58
1, 49003, Note_off_c, 0, 48, 67
1, 49004, Note_off_c, 0, 52, 66
1, 49043, Note_off_c, 0, 65, 60
1, 49075, Note_off_c, 0, 69, 62
1, 49077, Note_on_c, 0, 68, 77
1, 49081, Note_on_c, 0, 66, 67
1, 49169, Note_on_c, 0, 49, 78
1, 49170, Note_on_c, 0, 46, 72
1, 49174, Note_on_c, 0, 65, 74
1, 49175, Note_off_c, 0, 66, 59
1, 49180, Note_on_c, 0, 69, 72
1, 49182, Note_off_c, 0, 68, 61
1, 49204, Note_off_c, 0, 46, 68
1, 49204, Note_off_c, 0, 49, 65
1, 49235, Note_off_c, 0, 65, 61
1, 49259, Note_on_c, 0, 50, 77
1, 49260, Note_on_c, 0, 45, 78
1, 49266, Note_on_c, 0, 68, 74
1, 49269, Note_off_c, 0, 69, 61
1, 49275, Note_on_c, 0, 66, 68
1, 49281, Note_off_c, 0, 50, 66
1, 49289, Note_off_c, 0, 45, 69
1, 49359, Note_off_c, 0, 66, 59
1, 49362, Note_on_c, 0, 65, 75
1, 49366, Note_on_c, 0, 69, 69
1, 49367, Note_off_c, 0, 68, 63
1, 49421, Note_off_c, 0, 65, 60
1, 49454, Note_off_c, 0, 69, 61
1, 49459, Note_on_c, 0, 68, 75
1, 49461, Control_c, 0, 64, 40
1, 49468, Note_on_c, 0, 44, 65
1, 49469, Note_on_c, 0, 46, 66
1, 49470, Note_on_c, 0, 66, 63
1, 49476, Control_c, 0, 64, 0
1, 49523, Note_off_c, 0, 44, 52
1, 49524, Note_off_c, 0, 46, 53
1, 49550, Note_off_c, 0, 66, 62
1, 49551, Note_on_c, 0, 43, 71
1, 49555, Note_on_c, 0, 47, 68
1, 49558, Note_on_c, 0, 65, 82
1, 49561, Note_on_c, 0, 69, 66
1, 49564, Note_off_c, 0, 68, 63
1, 49572, Control_c, 0, 64, 40
1, 49578, Note_off_c, 0, 65, 71
1, 49579, Note_off_c, 0, 69, 65
1, 49587, Note_off_c, 0, 43, 64
1, 49587, Control_c, 0, 64, 0
1, 49593, Note_off_c, 0, 47, 62
1, 49649, Note_on_c, 0, 46, 66
1, 49651, Note_on_c, 0, 44, 66
1, 49684, Note_off_c, 0, 44, 63
1, 49696, Note_off_c, 0, 46, 59
1, 49746, Note_on_c, 0, 47, 65
1, 49751, Note_on_c, 0, 43, 66
1, 49758, Note_on_c, 0, 53, 69
1, 49761, Note_on_c, 0, 57, 70
1, 49797, Note_off_c, 0, 47, 60
1, 49801, Note_off_c, 0, 43, 57
1, 49803, Note_on_c, 0, 59, 21
1, 49803, Note_off_c, 0, 59, 127
1, 49807, Note_off_c, 0, 53, 53
1, 49839, Note_on_c, 0, 46, 68
1, 49840, Note_off_c, 0, 57, 61
1, 49845, Note_on_c, 0, 56, 71
1, 49846, Note_on_c, 0, 54, 68
1, 49854, Note_on_c, 0, 44, 41
1, 49866, Note_off_c, 0, 46, 66
1, 49881, Note_off_c, 0, 54, 63
1, 49893, Note_off_c, 0, 44, 32
1, 49932, Note_off_c, 0, 56, 59
1, 49943, Note_on_c, 0, 53, 66
1, 49959, Note_on_c, 0, 57, 65
1, 49973, Control_c, 0, 64, 49
1, 49988, Control_c, 0, 64, 46
1, 49993, Note_off_c, 0, 53, 59
1, 50003, Control_c, 0, 64, 0
1, 50028, Note_off_c, 0, 57, 59
1, 50030, Note_on_c, 0, 54, 76
1, 50032, Note_on_c, 0, 56, 77
1, 50041, Note_on_c, 0, 68, 53
1, 50041, Note_off_c, 0, 68, 127
1, 50046, Note_on_c, 0, 69, 62
1, 50047, Control_c, 0, 64, 34
1, 50053, Note_on_c, 0, 67, 50
1, 50062, Control_c, 0, 64, 46
1, 50067, Note_off_c, 0, 69, 65
1, 50077, Note_off_c, 0, 67, 59
1, 50077, Control_c, 0, 64, 48
1, 50092, Control_c, 0, 64, 38
1, 50095, Note_off_c, 0, 54, 62
1, 50106, Control_c, 0, 64, 0
1, 50128, Note_on_c, 0, 53, 69
1, 50131, Note_on_c, 0, 65, 79
1, 50136, Note_on_c, 0, 57, 76
1, 50138, Note_on_c, 0, 69, 60
1, 50144, Note_on_c, 0, 67, 55
1, 50145, Note_off_c, 0, 56, 60
1, 50153, Note_off_c, 0, 65, 70
1, 50156, Note_off_c, 0, 69, 63
1, 50164, Note_off_c, 0, 67, 63
1, 50181, Note_off_c, 0, 53, 60
1, 50221, Note_off_c, 0, 57, 63
1, 50223, Note_on_c, 0, 54, 67
1, 50226, Note_on_c, 0, 56, 73
1, 50309, Note_off_c, 0, 54, 58
1, 50326, Note_on_c, 0, 53, 74
1, 50328, Note_on_c, 0, 57, 76
1, 50329, Note_off_c, 0, 56, 61
1, 50390, Note_off_c, 0, 53, 61
1, 50412, Note_off_c, 0, 57, 61
1, 50419, Note_on_c, 0, 56, 77
1, 50420, Note_on_c, 0, 54, 73
1, 50426, Note_on_c, 0, 44, 81
1, 50431, Note_on_c, 0, 46, 78
1, 50453, Note_off_c, 0, 44, 69
1, 50462, Note_off_c, 0, 46, 67
1, 50497, Note_off_c, 0, 54, 59
1, 50505, Note_on_c, 0, 47, 91
1, 50512, Note_on_c, 0, 43, 80
1, 50519, Note_on_c, 0, 53, 80
1, 50521, Note_on_c, 0, 57, 79
1, 50529, Note_off_c, 0, 56, 60
1, 50532, Note_off_c, 0, 47, 68
1, 50534, Note_off_c, 0, 43, 67
1, 50581, Note_off_c, 0, 53, 60
1, 50612, Note_off_c, 0, 57, 62
1, 50617, Note_on_c, 0, 54, 72
1, 50617, Note_on_c, 0, 56, 81
1, 50679, Note_off_c, 0, 54, 62
1, 50708, Note_on_c, 0, 53, 77
1, 50709, Note_off_c, 0, 56, 57
1, 50715, Note_on_c, 0, 57, 81
1, 50772, Note_off_c, 0, 53, 62
1, 50799, Note_on_c, 0, 56, 90
1, 50799, Note_on_c, 0, 54, 81
1, 50805, Note_off_c, 0, 57, 63
1, 50808, Note_on_c, 0, 68, 87
1, 50812, Note_on_c, 0, 70, 77
1, 50836, Note_off_c, 0, 68, 62
1, 50842, Note_off_c, 0, 70, 64
1, 50867, Note_off_c, 0, 54, 63
1, 50892, Note_on_c, 0, 67, 91
1, 50894, Note_on_c, 0, 69, 91
1, 50898, Note_on_c, 0, 53, 81
1, 50898, Note_on_c, 0, 57, 83
1, 50909, Note_off_c, 0, 56, 58
1, 50910, Note_off_c, 0, 69, 75
1, 50919, Note_off_c, 0, 67, 64
1, 50952, Note_off_c, 0, 53, 63
1, 50995, Note_on_c, 0, 56, 84
1, 50998, Note_on_c, 0, 54, 73
1, 50999, Note_off_c, 0, 57, 64
1, 51067, Note_off_c, 0, 54, 62
1, 51100, Note_off_c, 0, 56, 61
1, 51100, Note_on_c, 0, 57, 79
1, 51103, Note_on_c, 0, 53, 67
1, 51144, Control_c, 0, 64, 36
1, 51159, Control_c, 0, 64, 0
1, 51165, Note_off_c, 0, 53, 60
1, 51191, Note_off_c, 0, 57, 60
1, 51198, Note_on_c, 0, 54, 64
1, 51198, Note_on_c, 0, 56, 74
1, 51248, Control_c, 0, 67, 120
1, 51262, Control_c, 0, 67, 116
1, 51281, Note_off_c, 0, 54, 58
1, 51302, Note_on_c, 0, 53, 69
1, 51302, Note_off_c, 0, 56, 59
1, 51306, Note_on_c, 0, 57, 71
1, 51322, Control_c, 0, 67, 114
1, 51336, Control_c, 0, 67, 112
1, 51356, Note_off_c, 0, 53, 61
1, 51382, Note_on_c, 0, 44, 88
1, 51383, Note_on_c, 0, 46, 92
1, 51383, Note_off_c, 0, 57, 59
1, 51395, Note_on_c, 0, 54, 74
1, 51396, Note_on_c, 0, 56, 79
1, 51410, Control_c, 0, 67, 108
1, 51414, Note_off_c, 0, 44, 67
1, 51419, Note_off_c, 0, 46, 65
1, 51425, Control_c, 0, 67, 99
1, 51440, Control_c, 0, 67, 76
1, 51454, Control_c, 0, 67, 60
1, 51460, Note_off_c, 0, 54, 62
1, 51469, Note_on_c, 0, 47, 94
1, 51469, Control_c, 0, 67, 57
1, 51474, Note_on_c, 0, 43, 94
1, 51488, Note_on_c, 0, 53, 83
1, 51491, Note_on_c, 0, 57, 79
1, 51496, Note_off_c, 0, 56, 60
1, 51497, Note_off_c, 0, 43, 71
1, 51498, Note_off_c, 0, 47, 67
1, 51499, Control_c, 0, 64, 47
1, 51499, Control_c, 0, 67, 52
1, 51514, Control_c, 0, 64, 51
1, 51514, Control_c, 0, 67, 39
1, 51529, Control_c, 0, 64, 0
1, 51529, Control_c, 0, 67, 0
1, 51547, Note_off_c, 0, 53, 62
1, 51586, Note_on_c, 0, 54, 73
1, 51586, Note_off_c, 0, 57, 62
1, 51587, Note_on_c, 0, 56, 75
1, 51654, Note_off_c, 0, 54, 62
1, 51687, Note_on_c, 0, 53, 76
1, 51688, Note_off_c, 0, 56, 60
1, 51689, Note_on_c, 0, 57, 77
1, 51746, Note_off_c, 0, 53, 62
1, 51792, Note_on_c, 0, 54, 74
1, 51792, Note_off_c, 0, 57, 61
1, 51796, Note_on_c, 0, 56, 78
1, 51852, Note_off_c, 0, 54, 62
1, 51891, Note_on_c, 0, 53, 80
1, 51896, Note_on_c, 0, 57, 80
1, 51899, Note_off_c, 0, 56, 61
1, 51939, Note_off_c, 0, 57, 61
1, 51940, Note_off_c, 0, 53, 63
1, 52006, Note_on_c, 0, 56, 91
1, 52007, Note_on_c, 0, 54, 90
1, 52009, Note_on_c, 0, 42, 86
1, 52009, Note_on_c, 0, 44, 91
1, 52042, Note_off_c, 0, 42, 65
1, 52046, Note_off_c, 0, 44, 64
1, 52055, Note_off_c, 0, 54, 61
1, 52063, Note_off_c, 0, 56, 62
1, 52132, Note_on_c, 0, 45, 93
1, 52134, Note_on_c, 0, 41, 85
1, 52136, Note_on_c, 0, 53, 92
1, 52139, Note_on_c, 0, 57, 92
1, 52146, Control_c, 0, 64, 41
1, 52153, Note_off_c, 0, 45, 71
1, 52155, Note_off_c, 0, 41, 66
1, 52155, Note_off_c, 0, 53, 70
1, 52160, Note_off_c, 0, 57, 70
1, 52160, Control_c, 0, 64, 127
1, 52160, Control_c, 0, 67, 41
1, 52175, Control_c, 0, 67, 40
1, 52190, Control_c, 0, 67, 36
1, 52204, Control_c, 0, 67, 39
1, 52219, Control_c, 0, 67, 40
1, 52234, Control_c, 0, 67, 42
1, 52249, Control_c, 0, 67, 41
1, 52264, Control_c, 0, 67, 38
1, 52293, Control_c, 0, 67, 39
1, 52298, Note_on_c, 0, 68, 86
1, 52300, Note_on_c, 0, 66, 78
1, 52308, Control_c, 0, 67, 40
1, 52309, Note_on_c, 0, 54, 76
1, 52319, Note_on_c, 0, 56, 74
1, 52323, Control_c, 0, 64, 122
1, 52337, Control_c, 0, 64, 80
1, 52337, Control_c, 0, 67, 39
1, 52354, Control_c, 0, 64, 62
1, 52354, Control_c, 0, 67, 33
1, 52368, Control_c, 0, 64, 0
1, 52368, Control_c, 0, 67, 0
1, 52388, Note_off_c, 0, 54, 53
1, 52411, Note_off_c, 0, 66, 62
1, 52419, Note_off_c, 0, 68, 61
1, 52428, Note_on_c, 0, 53, 86
1, 52430, Note_on_c, 0, 69, 92
1, 52432, Note_on_c, 0, 57, 87
1, 52433, Note_on_c, 0, 65, 94
1, 52437, Note_off_c, 0, 56, 60
1, 52456, Control_c, 0, 64, 72
1, 52456, Control_c, 0, 67, 33
1, 52471, Control_c, 0, 64, 71
1, 52471, Control_c, 0, 67, 36
1, 52476, Note_off_c, 0, 53, 63
1, 52480, Note_off_c, 0, 57, 63
1, 52486, Control_c, 0, 64, 0
1, 52491, Note_off_c, 0, 65, 60
1, 52501, Control_c, 0, 67, 36
1, 52516, Control_c, 0, 67, 39
1, 52538, Control_c, 0, 67, 44
1, 52543, Note_on_c, 0, 54, 61
1, 52545, Note_on_c, 0, 68, 74
1, 52545, Note_off_c, 0, 69, 63
1, 52553, Control_c, 0, 67, 53
1, 52555, Note_on_c, 0, 56, 66
1, 52562, Note_on_c, 0, 66, 64
1, 52568, Control_c, 0, 67, 68
1, 52582, Control_c, 0, 67, 80
1, 52596, Note_off_c, 0, 56, 58
1, 52597, Control_c, 0, 67, 87
1, 52612, Control_c, 0, 67, 92
1, 52627, Note_off_c, 0, 54, 36
1, 52627, Control_c, 0, 67, 99
1, 52641, Control_c, 0, 67, 112
1, 52653, Note_on_c, 0, 53, 58
1, 52653, Note_off_c, 0, 66, 51
1, 52656, Control_c, 0, 67, 127
1, 52659, Note_off_c, 0, 68, 60
1, 52666, Note_on_c, 0, 65, 68
1, 52667, Note_on_c, 0, 69, 65
1, 52668, Note_on_c, 0, 57, 48
1, 52691, Note_off_c, 0, 53, 61
1, 52706, Note_off_c, 0, 65, 63
1, 52712, Note_off_c, 0, 57, 59
1, 52745, Note_off_c, 0, 69, 61
1, 52760, Note_on_c, 0, 54, 36
1, 52761, Note_on_c, 0, 68, 55
1, 52763, Note_on_c, 0, 56, 40
1, 52770, Note_on_c, 0, 66, 59
1, 52796, Note_off_c, 0, 54, 51
1, 52829, Note_off_c, 0, 66, 51
1, 52832, Note_off_c, 0, 56, 41
1, 52856, Note_off_c, 0, 68, 57
1, 52859, Note_on_c, 0, 53, 55
1, 52861, Note_on_c, 0, 65, 64
1, 52867, Note_on_c, 0, 57, 44
1, 52870, Note_on_c, 0, 69, 61
1, 52899, Note_off_c, 0, 53, 62
1, 52900, Note_off_c, 0, 65, 62
1, 52909, Note_off_c, 0, 57, 62
1, 52930, Note_off_c, 0, 69, 57
1, 52954, Note_on_c, 0, 54, 35
1, 52954, Note_on_c, 0, 56, 45
1, 52956, Note_on_c, 0, 66, 50
1, 52960, Note_on_c, 0, 68, 60
1, 53022, Note_off_c, 0, 54, 37
1, 53036, Note_off_c, 0, 56, 60
1, 53037, Note_off_c, 0, 66, 43
1, 53050, Note_on_c, 0, 53, 60
1, 53051, Note_on_c, 0, 57, 60
1, 53054, Note_off_c, 0, 68, 61
1, 53057, Note_on_c, 0, 65, 70
1, 53057, Note_on_c, 0, 69, 71
1, 53090, Note_off_c, 0, 65, 63
1, 53096, Note_off_c, 0, 69, 64
1, 53100, Note_off_c, 0, 57, 58
1, 53130, Note_off_c, 0, 53, 59
1, 53142, Note_on_c, 0, 56, 73
1, 53144, Note_on_c, 0, 70, 83
1, 53145, Note_on_c, 0, 58, 64
1, 53149, Note_on_c, 0, 68, 81
1, 53204, Note_off_c, 0, 56, 52
1, 53229, Note_off_c, 0, 68, 55
1, 53243, Note_on_c, 0, 59, 83
1, 53244, Note_on_c, 0, 55, 86
1, 53248, Note_off_c, 0, 58, 64
1, 53249, Note_on_c, 0, 71, 87
1, 53249, Note_on_c, 0, 67, 86
1, 53258, Note_off_c, 0, 70, 63
1, 53264, Control_c, 0, 64, 65
1, 53271, Note_on_c, 0, 72, 67
1, 53271, Note_off_c, 0, 72, 127
1, 53287, Control_c, 0, 64, 74
1, 53301, Note_off_c, 0, 55, 64
1, 53301, Note_off_c, 0, 59, 65
1, 53302, Control_c, 0, 64, 54
1, 53307, Note_off_c, 0, 67, 66
1, 53317, Control_c, 0, 64, 0
1, 53345, Note_off_c, 0, 71, 62
1, 53351, Note_on_c, 0, 70, 72
1, 53352, Note_on_c, 0, 56, 66
1, 53357, Note_on_c, 0, 68, 65
1, 53365, Note_on_c, 0, 58, 62
1, 53407, Note_off_c, 0, 56, 51
1, 53407, Note_off_c, 0, 68, 53
1, 53444, Note_off_c, 0, 58, 58
1, 53458, Note_off_c, 0, 70, 51
1, 53460, Note_on_c, 0, 55, 59
1, 53468, Note_on_c, 0, 71, 69
1, 53470, Note_on_c, 0, 59, 52
1, 53474, Note_on_c, 0, 67, 60
1, 53512, Note_off_c, 0, 59, 61
1, 53514, Note_off_c, 0, 55, 54
1, 53514, Note_off_c, 0, 67, 61
1, 53545, Note_off_c, 0, 71, 61
1, 53558, Note_on_c, 0, 56, 41
1, 53570, Note_on_c, 0, 58, 46
1, 53571, Note_on_c, 0, 68, 50
1, 53573, Note_on_c, 0, 70, 57
1, 53602, Note_off_c, 0, 56, 45
1, 53615, Note_off_c, 0, 58, 55
1, 53636, Note_off_c, 0, 68, 47
1, 53648, Note_off_c, 0, 70, 56
1, 53661, Note_on_c, 0, 67, 63
1, 53666, Note_on_c, 0, 59, 50
1, 53668, Note_on_c, 0, 55, 48
1, 53670, Note_on_c, 0, 71, 68
1, 53706, Note_off_c, 0, 67, 61
1, 53714, Note_off_c, 0, 55, 57
1, 53714, Note_off_c, 0, 59, 56
1, 53732, Note_off_c, 0, 71, 60
1, 53749, Note_on_c, 0, 56, 45
1, 53754, Note_on_c, 0, 58, 42
1, 53761, Note_on_c, 0, 70, 57
1, 53763, Note_on_c, 0, 68, 53
1, 53833, Note_off_c, 0, 56, 35
1, 53839, Note_off_c, 0, 68, 62
1, 53847, Note_off_c, 0, 58, 61
1, 53848, Note_on_c, 0, 55, 61
1, 53851, Note_on_c, 0, 67, 68
1, 53851, Note_off_c, 0, 70, 63
1, 53854, Note_on_c, 0, 59, 57
1, 53863, Note_on_c, 0, 71, 70
1, 53882, Note_off_c, 0, 55, 65
1, 53898, Note_off_c, 0, 67, 62
1, 53902, Note_off_c, 0, 59, 55
1, 53926, Note_off_c, 0, 71, 61
1, 53946, Note_on_c, 0, 68, 75
1, 53948, Note_on_c, 0, 56, 73
1, 53949, Note_on_c, 0, 66, 67
1, 53951, Note_on_c, 0, 54, 65
1, 53986, Note_off_c, 0, 54, 64
1, 54009, Note_off_c, 0, 56, 57
1, 54020, Note_off_c, 0, 66, 58
1, 54044, Note_on_c, 0, 57, 87
1, 54045, Note_on_c, 0, 65, 90
1, 54047, Note_on_c, 0, 69, 86
1, 54051, Note_on_c, 0, 53, 66
1, 54051, Control_c, 0, 64, 75
1, 54053, Note_off_c, 0, 68, 63
1, 54066, Control_c, 0, 64, 98
1, 54071, Note_on_c, 0, 52, 57
1, 54081, Control_c, 0, 64, 84
1, 54090, Note_off_c, 0, 65, 66
1, 54095, Control_c, 0, 64, 56
1, 54096, Note_off_c, 0, 52, 36
1, 54096, Note_off_c, 0, 57, 64
1, 54103, Note_off_c, 0, 53, 63
1, 54110, Control_c, 0, 64, 0
1, 54120, Note_off_c, 0, 69, 59
1, 54138, Note_on_c, 0, 68, 68
1, 54149, Note_on_c, 0, 66, 55
1, 54150, Note_on_c, 0, 56, 55
1, 54155, Note_on_c, 0, 54, 52
1, 54191, Note_off_c, 0, 54, 62
1, 54221, Note_off_c, 0, 56, 48
1, 54230, Note_off_c, 0, 66, 35
1, 54249, Note_off_c, 0, 68, 57
1, 54260, Note_on_c, 0, 69, 61
1, 54265, Note_on_c, 0, 57, 56
1, 54265, Note_on_c, 0, 65, 55
1, 54274, Note_on_c, 0, 53, 42
1, 54299, Note_off_c, 0, 69, 59
1, 54301, Note_off_c, 0, 65, 66
1, 54311, Note_off_c, 0, 57, 57
1, 54319, Note_off_c, 0, 53, 54
1, 54365, Note_on_c, 0, 68, 67
1, 54365, Note_on_c, 0, 70, 66
1, 54382, Note_on_c, 0, 58, 50
1, 54385, Note_on_c, 0, 56, 32
1, 54429, Note_off_c, 0, 68, 49
1, 54431, Note_off_c, 0, 58, 58
1, 54453, Note_on_c, 0, 71, 93
1, 54454, Note_off_c, 0, 70, 55
1, 54455, Note_on_c, 0, 67, 85
1, 54457, Note_on_c, 0, 55, 82
1, 54459, Note_on_c, 0, 59, 77
1, 54466, Control_c, 0, 64, 37
1, 54473, Note_off_c, 0, 56, 45
1, 54480, Control_c, 0, 64, 76
1, 54495, Control_c, 0, 64, 71
1, 54501, Note_off_c, 0, 67, 64
1, 54505, Note_off_c, 0, 55, 65
1, 54508, Note_off_c, 0, 59, 62
1, 54510, Control_c, 0, 64, 53
1, 54525, Control_c, 0, 64, 0
1, 54534, Note_off_c, 0, 71, 62
1, 54543, Note_on_c, 0, 70, 70
1, 54549, Note_on_c, 0, 68, 63
1, 54560, Note_on_c, 0, 58, 48
1, 54578, Note_on_c, 0, 56, 46
1, 54631, Note_off_c, 0, 58, 60
1, 54634, Note_off_c, 0, 56, 58
1, 54639, Note_off_c, 0, 68, 60
1, 54650, Note_off_c, 0, 70, 61
1, 54656, Note_on_c, 0, 67, 62
1, 54662, Note_on_c, 0, 71, 62
1, 54668, Note_on_c, 0, 55, 54
1, 54671, Note_on_c, 0, 59, 53
1, 54692, Note_off_c, 0, 55, 60
1, 54696, Note_off_c, 0, 67, 62
1, 54713, Note_off_c, 0, 59, 59
1, 54729, Note_off_c, 0, 71, 60
1, 54763, Note_on_c, 0, 66, 54
1, 54763, Control_c, 0, 64, 45
1, 54765, Note_on_c, 0, 56, 52
1, 54769, Note_on_c, 0, 68, 55
1, 54780, Note_on_c, 0, 54, 50
1, 54785, Control_c, 0, 64, 42
1, 54800, Control_c, 0, 64, 40
1, 54815, Note_off_c, 0, 54, 55
1, 54815, Control_c, 0, 64, 43
1, 54822, Note_off_c, 0, 66, 54
1, 54823, Note_off_c, 0, 56, 53
1, 54829, Control_c, 0, 64, 49
1, 54844, Control_c, 0, 64, 55
1, 54858, Note_on_c, 0, 65, 74
1, 54859, Control_c, 0, 64, 59
1, 54860, Note_off_c, 0, 68, 58
1, 54867, Note_on_c, 0, 57, 72
1, 54869, Note_on_c, 0, 69, 72
1, 54872, Note_on_c, 0, 53, 69
1, 54874, Control_c, 0, 64, 60
1, 54889, Control_c, 0, 64, 62
1, 54903, Control_c, 0, 64, 64
1, 54911, Note_off_c, 0, 65, 60
1, 54918, Control_c, 0, 64, 66
1, 54928, Note_off_c, 0, 57, 62
1, 54933, Control_c, 0, 64, 67
1, 54938, Note_off_c, 0, 69, 60
1, 54948, Control_c, 0, 64, 69
1, 54950, Note_on_c, 0, 70, 78
1, 54952, Note_on_c, 0, 56, 75
1, 54954, Note_on_c, 0, 68, 84
1, 54957, Note_on_c, 0, 58, 72
1, 54958, Note_off_c, 0, 53, 61
1, 54963, Control_c, 0, 64, 73
1, 54978, Control_c, 0, 64, 82
1, 54993, Control_c, 0, 64, 116
1, 54993, Control_c, 0, 67, 125
1, 55008, Control_c, 0, 64, 127
1, 55008, Control_c, 0, 67, 96
1, 55022, Control_c, 0, 67, 76
1, 55036, Note_off_c, 0, 68, 56
1, 55037, Control_c, 0, 67, 69
1, 55043, Note_on_c, 0, 67, 82
1, 55044, Note_on_c, 0, 55, 80
1, 55045, Note_on_c, 0, 59, 80
1, 55045, Note_on_c, 0, 71, 90
1, 55052, Control_c, 0, 67, 70
1, 55057, Note_off_c, 0, 56, 60
1, 55057, Note_off_c, 0, 58, 62
1, 55059, Note_off_c, 0, 70, 63
1, 55067, Control_c, 0, 67, 74
1, 55082, Control_c, 0, 67, 80
1, 55086, Note_off_c, 0, 55, 62
1, 55089, Note_off_c, 0, 59, 65
1, 55092, Note_off_c, 0, 67, 66
1, 55097, Control_c, 0, 64, 73
1, 55097, Control_c, 0, 67, 92
1, 55111, Control_c, 0, 64, 0
1, 55111, Control_c, 0, 67, 114
1, 55126, Control_c, 0, 67, 127
1, 55133, Note_off_c, 0, 71, 62
1, 55144, Note_on_c, 0, 68, 73
1, 55148, Note_on_c, 0, 54, 76
1, 55151, Note_on_c, 0, 66, 65
1, 55172, Note_on_c, 0, 56, 45
1, 55193, Note_off_c, 0, 54, 58
1, 55201, Note_off_c, 0, 56, 54
1, 55226, Note_off_c, 0, 66, 39
1, 55255, Note_off_c, 0, 68, 55
1, 55259, Note_on_c, 0, 53, 57
1, 55264, Note_on_c, 0, 65, 56
1, 55271, Note_on_c, 0, 57, 52
1, 55274, Note_on_c, 0, 69, 49
1, 55300, Note_off_c, 0, 65, 65
1, 55311, Note_off_c, 0, 69, 55
1, 55319, Note_off_c, 0, 57, 45
1, 55350, Note_off_c, 0, 53, 57
1, 55353, Note_on_c, 0, 70, 68
1, 55370, Note_on_c, 0, 58, 40
1, 55384, Note_on_c, 0, 56, 20
1, 55401, Note_off_c, 0, 58, 34
1, 55403, Note_off_c, 0, 70, 62
1, 55428, Note_off_c, 0, 56, 49
1, 55444, Note_on_c, 0, 59, 69
1, 55451, Note_on_c, 0, 71, 83
1, 55452, Control_c, 0, 64, 40
1, 55461, Note_on_c, 0, 55, 64
1, 55467, Control_c, 0, 64, 58
1, 55470, Note_on_c, 0, 67, 55
1, 55482, Control_c, 0, 64, 69
1, 55492, Note_off_c, 0, 67, 64
1, 55496, Control_c, 0, 64, 79
1, 55499, Note_off_c, 0, 71, 63
1, 55502, Note_off_c, 0, 59, 64
1, 55511, Control_c, 0, 64, 91
1, 55533, Control_c, 0, 64, 116
1, 55536, Note_off_c, 0, 55, 62
1, 55541, Note_on_c, 0, 58, 73
1, 55548, Control_c, 0, 64, 127
1, 55549, Note_on_c, 0, 61, 80
1, 55554, Note_on_c, 0, 73, 92
1, 55555, Note_on_c, 0, 70, 87
1, 55604, Note_off_c, 0, 70, 64
1, 55604, Note_off_c, 0, 61, 60
1, 55608, Note_off_c, 0, 58, 62
1, 55635, Note_on_c, 0, 57, 92
1, 55637, Note_on_c, 0, 64, 80
1, 55641, Note_on_c, 0, 74, 96
1, 55644, Note_on_c, 0, 69, 92
1, 55648, Note_off_c, 0, 73, 64
1, 55649, Note_on_c, 0, 62, 74
1, 55666, Note_off_c, 0, 62, 66
1, 55673, Note_off_c, 0, 57, 68
1, 55675, Note_off_c, 0, 64, 66
1, 55682, Control_c, 0, 64, 76
1, 55687, Note_off_c, 0, 69, 63
1, 55688, Note_off_c, 0, 74, 67
1, 55697, Control_c, 0, 64, 0
1, 55738, Note_on_c, 0, 70, 80
1, 55743, Note_on_c, 0, 58, 66
1, 55744, Note_on_c, 0, 56, 68
1, 55771, Note_off_c, 0, 56, 67
1, 55773, Note_off_c, 0, 58, 63
1, 55798, Note_off_c, 0, 70, 63
1, 55839, Note_on_c, 0, 55, 75
1, 55842, Note_on_c, 0, 59, 69
1, 55842, Note_on_c, 0, 67, 29
1, 55854, Note_on_c, 0, 71, 57
1, 55866, Note_off_c, 0, 59, 68
1, 55872, Note_on_c, 0, 72, 48
1, 55872, Note_off_c, 0, 55, 57
1, 55897, Note_off_c, 0, 72, 49
1, 55912, Note_off_c, 0, 67, 57
1, 55912, Note_off_c, 0, 71, 62
1, 55933, Note_on_c, 0, 56, 61
1, 55940, Note_on_c, 0, 58, 56
1, 55941, Note_on_c, 0, 68, 68
1, 55943, Note_on_c, 0, 70, 60
1, 55971, Note_off_c, 0, 56, 63
1, 55975, Note_off_c, 0, 58, 64
1, 55980, Note_off_c, 0, 68, 62
1, 56024, Note_off_c, 0, 70, 61
1, 56030, Note_on_c, 0, 55, 69
1, 56033, Note_on_c, 0, 71, 71
1, 56038, Note_on_c, 0, 67, 60
1, 56043, Note_on_c, 0, 59, 57
1, 56084, Note_off_c, 0, 59, 60
1, 56092, Note_off_c, 0, 55, 60
1, 56097, Note_off_c, 0, 67, 63
1, 56105, Note_off_c, 0, 71, 58
1, 56125, Note_on_c, 0, 68, 66
1, 56131, Note_on_c, 0, 56, 48
1, 56132, Note_on_c, 0, 70, 65
1, 56136, Note_on_c, 0, 58, 56
1, 56188, Note_off_c, 0, 56, 46
1, 56206, Note_off_c, 0, 68, 57
1, 56213, Note_off_c, 0, 58, 62
1, 56221, Note_off_c, 0, 70, 63
1, 56221, Note_on_c, 0, 71, 78
1, 56223, Note_on_c, 0, 55, 68
1, 56228, Note_on_c, 0, 59, 63
1, 56229, Note_on_c, 0, 67, 67
1, 56255, Note_off_c, 0, 67, 66
1, 56258, Note_off_c, 0, 71, 65
1, 56260, Note_off_c, 0, 59, 63
1, 56312, Note_off_c, 0, 55, 58
1, 56318, Note_on_c, 0, 73, 79
1, 56321, Note_on_c, 0, 61, 71
1, 56322, Note_on_c, 0, 70, 78
1, 56325, Note_on_c, 0, 58, 65
1, 56341, Control_c, 0, 64, 35
1, 56356, Note_off_c, 0, 58, 67
1, 56357, Control_c, 0, 64, 45
1, 56372, Control_c, 0, 64, 57
1, 56382, Note_off_c, 0, 61, 60
1, 56382, Note_off_c, 0, 70, 61
1, 56387, Control_c, 0, 64, 64
1, 56401, Control_c, 0, 64, 66
1, 56410, Note_on_c, 0, 69, 81
1, 56412, Note_on_c, 0, 57, 78
1, 56412, Note_on_c, 0, 74, 89
1, 56412, Note_on_c, 0, 62, 80
1, 56416, Control_c, 0, 64, 67
1, 56421, Note_off_c, 0, 73, 62
1, 56431, Control_c, 0, 64, 70
1, 56445, Note_on_c, 0, 58, 34
1, 56446, Control_c, 0, 64, 76
1, 56460, Note_off_c, 0, 57, 63
1, 56461, Control_c, 0, 64, 86
1, 56462, Note_off_c, 0, 62, 62
1, 56462, Note_off_c, 0, 69, 63
1, 56475, Control_c, 0, 64, 100
1, 56476, Note_off_c, 0, 58, 55
1, 56490, Control_c, 0, 64, 127
1, 56492, Note_off_c, 0, 74, 61
1, 56503, Note_on_c, 0, 61, 81
1, 56503, Note_on_c, 0, 63, 87
1, 56504, Note_on_c, 0, 75, 88
1, 56505, Control_c, 0, 67, 124
1, 56508, Note_on_c, 0, 73, 85
1, 56520, Control_c, 0, 67, 106
1, 56534, Control_c, 0, 67, 74
1, 56549, Note_off_c, 0, 61, 63
1, 56549, Control_c, 0, 67, 58
1, 56564, Control_c, 0, 67, 62
1, 56570, Note_off_c, 0, 63, 60
1, 56579, Control_c, 0, 67, 69
1, 56584, Note_off_c, 0, 73, 60
1, 56588, Note_on_c, 0, 64, 88
1, 56591, Note_on_c, 0, 61, 68
1, 56594, Control_c, 0, 67, 69
1, 56595, Note_on_c, 0, 60, 83
1, 56595, Note_on_c, 0, 72, 90
1, 56596, Note_on_c, 0, 76, 92
1, 56600, Note_off_c, 0, 75, 65
1, 56611, Note_off_c, 0, 61, 38
1, 56623, Control_c, 0, 64, 74
1, 56623, Control_c, 0, 67, 71
1, 56627, Note_off_c, 0, 60, 64
1, 56629, Note_off_c, 0, 64, 67
1, 56638, Control_c, 0, 64, 0
1, 56638, Control_c, 0, 67, 83
1, 56643, Note_off_c, 0, 72, 65
1, 56653, Control_c, 0, 67, 115
1, 56668, Control_c, 0, 67, 127
1, 56671, Note_off_c, 0, 76, 56
1, 56683, Note_on_c, 0, 61, 64
1, 56690, Note_on_c, 0, 75, 74
1, 56695, Note_on_c, 0, 63, 66
1, 56696, Note_on_c, 0, 73, 76
1, 56728, Note_off_c, 0, 63, 63
1, 56730, Note_off_c, 0, 61, 59
1, 56753, Note_off_c, 0, 73, 61
1, 56780, Note_off_c, 0, 75, 39
1, 56792, Note_on_c, 0, 60, 62
1, 56793, Note_on_c, 0, 76, 72
1, 56795, Note_on_c, 0, 64, 61
1, 56797, Note_on_c, 0, 72, 63
1, 56835, Note_off_c, 0, 64, 58
1, 56841, Note_off_c, 0, 72, 62
1, 56850, Note_off_c, 0, 60, 61
1, 56876, Note_off_c, 0, 76, 60
1, 56889, Note_on_c, 0, 61, 53
1, 56892, Note_on_c, 0, 73, 62
1, 56892, Note_on_c, 0, 75, 64
1, 56899, Note_on_c, 0, 63, 56
1, 56939, Note_off_c, 0, 63, 62
1, 56941, Note_off_c, 0, 61, 51
1, 56981, Note_off_c, 0, 73, 59
1, 56984, Note_off_c, 0, 75, 61
1, 56989, Note_on_c, 0, 72, 64
1, 56994, Note_on_c, 0, 76, 72
1, 56995, Note_on_c, 0, 60, 59
1, 56999, Note_on_c, 0, 64, 56
1, 57032, Note_off_c, 0, 60, 67
1, 57038, Note_off_c, 0, 72, 63
1, 57045, Note_off_c, 0, 64, 59
1, 57061, Note_off_c, 0, 76, 62
1, 57091, Note_on_c, 0, 70, 64
1, 57091, Note_on_c, 0, 73, 68
1, 57092, Note_on_c, 0, 58, 65
1, 57098, Note_on_c, 0, 61, 62
1, 57136, Note_off_c, 0, 58, 57
1, 57149, Control_c, 0, 64, 46
1, 57151, Note_off_c, 0, 61, 50
1, 57164, Control_c, 0, 64, 56
1, 57166, Note_off_c, 0, 70, 60
1, 57179, Control_c, 0, 64, 60
1, 57182, Note_on_c, 0, 69, 78
1, 57186, Note_on_c, 0, 74, 83
1, 57187, Note_on_c, 0, 57, 78
1, 57187, Note_off_c, 0, 73, 63
1, 57191, Note_on_c, 0, 62, 72
1, 57194, Control_c, 0, 64, 61
1, 57209, Control_c, 0, 64, 62
1, 57223, Control_c, 0, 64, 63
1, 57228, Note_off_c, 0, 69, 61
1, 57235, Note_off_c, 0, 62, 59
1, 57235, Note_off_c, 0, 74, 64
1, 57238, Control_c, 0, 64, 64
1, 57249, Note_off_c, 0, 57, 58
1, 57268, Control_c, 0, 64, 65
1, 57271, Note_on_c, 0, 75, 83
1, 57275, Note_on_c, 0, 73, 84
1, 57277, Note_on_c, 0, 61, 77
1, 57283, Note_on_c, 0, 63, 73
1, 57283, Control_c, 0, 64, 67
1, 57297, Control_c, 0, 64, 70
1, 57312, Control_c, 0, 64, 75
1, 57327, Control_c, 0, 64, 82
1, 57327, Control_c, 0, 67, 123
1, 57338, Note_off_c, 0, 73, 61
1, 57342, Control_c, 0, 64, 112
1, 57342, Control_c, 0, 67, 121
1, 57357, Control_c, 0, 64, 127
1, 57357, Control_c, 0, 67, 111
1, 57361, Note_on_c, 0, 64, 86
1, 57362, Note_on_c, 0, 60, 88
1, 57365, Note_on_c, 0, 72, 92
1, 57367, Note_on_c, 0, 76, 95
1, 57368, Note_off_c, 0, 63, 57
1, 57371, Control_c, 0, 67, 96
1, 57378, Note_off_c, 0, 75, 64
1, 57386, Control_c, 0, 67, 93
1, 57393, Note_off_c, 0, 61, 30
1, 57401, Control_c, 0, 67, 99
1, 57413, Note_off_c, 0, 64, 64
1, 57413, Note_off_c, 0, 60, 63
1, 57414, Note_off_c, 0, 72, 65
1, 57416, Control_c, 0, 64, 97
1, 57416, Control_c, 0, 67, 105
1, 57431, Control_c, 0, 64, 62
1, 57431, Control_c, 0, 67, 108
1, 57446, Control_c, 0, 64, 0
1, 57448, Note_off_c, 0, 76, 55
1, 57456, Note_on_c, 0, 61, 67
1, 57462, Note_on_c, 0, 75, 79
1, 57464, Note_on_c, 0, 73, 80
1, 57502, Note_off_c, 0, 61, 61
1, 57505, Control_c, 0, 67, 117
1, 57506, Note_on_c, 0, 63, 24
1, 57517, Note_off_c, 0, 73, 62
1, 57520, Control_c, 0, 67, 126
1, 57547, Note_off_c, 0, 63, 41
1, 57563, Note_on_c, 0, 76, 80
1, 57564, Note_off_c, 0, 75, 63
1, 57570, Note_on_c, 0, 72, 63
1, 57576, Note_on_c, 0, 64, 62
1, 57589, Note_on_c, 0, 60, 36
1, 57601, Note_on_c, 0, 62, 36
1, 57606, Note_off_c, 0, 72, 61
1, 57615, Note_off_c, 0, 76, 65
1, 57619, Note_off_c, 0, 60, 56
1, 57622, Note_off_c, 0, 64, 59
1, 57635, Note_off_c, 0, 62, 44
1, 57638, Control_c, 0, 67, 124
1, 57658, Note_on_c, 0, 61, 68
1, 57663, Note_on_c, 0, 78, 86
1, 57664, Note_on_c, 0, 63, 59
1, 57664, Note_on_c, 0, 75, 84
1, 57706, Note_off_c, 0, 61, 58
1, 57713, Note_off_c, 0, 63, 53
1, 57720, Note_off_c, 0, 75, 62
1, 57727, Control_c, 0, 67, 126
1, 57738, Note_on_c, 0, 60, 75
1, 57741, Note_on_c, 0, 64, 74
1, 57751, Note_on_c, 0, 79, 90
1, 57753, Note_on_c, 0, 74, 88
1, 57758, Note_off_c, 0, 78, 64
1, 57787, Note_off_c, 0, 60, 66
1, 57789, Note_off_c, 0, 64, 63
1, 57804, Note_off_c, 0, 74, 67
1, 57808, Note_off_c, 0, 79, 66
1, 57849, Note_on_c, 0, 58, 76
1, 57857, Note_on_c, 0, 61, 67
1, 57857, Note_on_c, 0, 75, 69
1, 57859, Note_on_c, 0, 73, 78
1, 57868, Control_c, 0, 64, 34
1, 57881, Note_off_c, 0, 61, 55
1, 57882, Control_c, 0, 64, 0
1, 57887, Note_off_c, 0, 58, 62
1, 57907, Note_off_c, 0, 73, 55
1, 57942, Note_on_c, 0, 57, 74
1, 57944, Note_off_c, 0, 75, 62
1, 57947, Note_on_c, 0, 76, 81
1, 57950, Note_on_c, 0, 62, 75
1, 57955, Note_on_c, 0, 72, 67
1, 57972, Control_c, 0, 64, 42
1, 57987, Note_off_c, 0, 76, 62
1, 57987, Control_c, 0, 64, 0
1, 57988, Note_off_c, 0, 62, 58
1, 57989, Note_off_c, 0, 72, 57
1, 58029, Note_off_c, 0, 57, 42
1, 58041, Note_on_c, 0, 63, 77
1, 58043, Note_on_c, 0, 78, 79
1, 58045, Note_on_c, 0, 61, 69
1, 58048, Note_on_c, 0, 75, 73
1, 58072, Note_off_c, 0, 61, 67
1, 58073, Note_off_c, 0, 63, 65
1, 58104, Note_off_c, 0, 75, 53
1, 58135, Note_on_c, 0, 64, 76
1, 58135, Note_on_c, 0, 79, 86
1, 58138, Note_on_c, 0, 74, 78
1, 58138, Note_off_c, 0, 78, 63
1, 58143, Note_on_c, 0, 60, 59
1, 58150, Note_on_c, 0, 59, 58
1, 58169, Note_off_c, 0, 59, 63
1, 58170, Note_off_c, 0, 64, 60
1, 58173, Note_off_c, 0, 60, 66
1, 58178, Note_off_c, 0, 74, 63
1, 58187, Note_off_c, 0, 79, 64
1, 58224, Note_on_c, 0, 58, 78
1, 58225, Note_on_c, 0, 75, 74
1, 58229, Note_on_c, 0, 61, 76
1, 58230, Note_on_c, 0, 73, 79
1, 58276, Note_off_c, 0, 58, 62
1, 58278, Note_off_c, 0, 61, 58
1, 58284, Control_c, 0, 64, 51
1, 58286, Note_off_c, 0, 73, 62
1, 58298, Control_c, 0, 64, 49
1, 58310, Note_off_c, 0, 75, 61
1, 58313, Control_c, 0, 64, 0
1, 58313, Note_on_c, 0, 57, 80
1, 58315, Note_on_c, 0, 62, 77
1, 58321, Note_on_c, 0, 72, 79
1, 58333, Note_on_c, 0, 76, 58
1, 58347, Note_on_c, 0, 77, 36
1, 58356, Note_off_c, 0, 57, 64
1, 58358, Note_off_c, 0, 76, 65
1, 58362, Note_off_c, 0, 62, 61
1, 58362, Note_off_c, 0, 72, 58
1, 58376, Note_off_c, 0, 77, 50
1, 58387, Control_c, 0, 64, 43
1, 58402, Control_c, 0, 64, 56
1, 58412, Note_on_c, 0, 61, 81
1, 58413, Note_on_c, 0, 78, 85
1, 58417, Note_on_c, 0, 75, 77
1, 58417, Control_c, 0, 64, 36
1, 58432, Control_c, 0, 64, 0
1, 58444, Note_off_c, 0, 61, 63
1, 58449, Note_on_c, 0, 64, 16
1, 58468, Note_off_c, 0, 75, 62
1, 58492, Note_off_c, 0, 64, 0
1, 58492, Note_on_c, 0, 64, 51
1, 58492, Note_off_c, 0, 78, 50
1, 58498, Note_on_c, 0, 59, 84
1, 58504, Note_on_c, 0, 79, 91
1, 58506, Note_on_c, 0, 74, 86
1, 58552, Note_off_c, 0, 64, 64
1, 58560, Note_off_c, 0, 74, 63
1, 58563, Note_off_c, 0, 59, 54
1, 58574, Note_off_c, 0, 79, 63
1, 58597, Note_on_c, 0, 61, 90
1, 58600, Note_on_c, 0, 78, 83
1, 58602, Note_on_c, 0, 58, 74
1, 58604, Note_on_c, 0, 75, 76
1, 58639, Note_off_c, 0, 58, 64
1, 58643, Note_off_c, 0, 61, 64
1, 58660, Note_off_c, 0, 75, 63
1, 58689, Note_off_c, 0, 78, 62
1, 58691, Note_on_c, 0, 62, 97
1, 58693, Note_on_c, 0, 79, 90
1, 58697, Note_on_c, 0, 74, 89
1, 58697, Note_on_c, 0, 57, 90
1, 58716, Note_off_c, 0, 57, 72
1, 58719, Note_off_c, 0, 62, 68
1, 58741, Note_off_c, 0, 74, 63
1, 58776, Note_off_c, 0, 79, 62
1, 58790, Note_on_c, 0, 75, 76
1, 58790, Note_on_c, 0, 78, 83
1, 58844, Note_off_c, 0, 75, 62
1, 58889, Note_on_c, 0, 79, 82
1, 58890, Note_on_c, 0, 74, 78
1, 58892, Note_off_c, 0, 78, 63
1, 58939, Note_off_c, 0, 74, 53
1, 58978, Note_on_c, 0, 75, 80
1, 58981, Note_on_c, 0, 61, 77
1, 58984, Note_off_c, 0, 79, 64
1, 58984, Note_on_c, 0, 78, 84
1, 58986, Note_on_c, 0, 66, 80
1, 59031, Note_off_c, 0, 66, 64
1, 59035, Note_off_c, 0, 61, 61
1, 59045, Note_off_c, 0, 75, 63
1, 59062, Control_c, 0, 64, 52
1, 59075, Note_on_c, 0, 65, 92
1, 59077, Note_on_c, 0, 74, 83
1, 59077, Control_c, 0, 64, 0
1, 59077, Note_on_c, 0, 62, 91
1, 59079, Note_on_c, 0, 79, 92
1, 59081, Note_off_c, 0, 78, 56
1, 59097, Note_off_c, 0, 62, 70
1, 59098, Note_off_c, 0, 65, 67
1, 59130, Note_off_c, 0, 74, 58
1, 59171, Note_off_c, 0, 79, 63
1, 59172, Note_on_c, 0, 75, 77
1, 59172, Note_on_c, 0, 78, 87
1, 59237, Note_off_c, 0, 75, 59
1, 59276, Note_on_c, 0, 74, 86
1, 59278, Note_on_c, 0, 79, 88
1, 59283, Note_off_c, 0, 78, 63
1, 59329, Note_off_c, 0, 74, 59
1, 59365, Note_on_c, 0, 63, 83
1, 59368, Note_on_c, 0, 75, 82
1, 59368, Note_on_c, 0, 78, 93
1, 59369, Note_on_c, 0, 61, 72
1, 59369, Note_off_c, 0, 79, 60
1, 59420, Note_off_c, 0, 61, 57
1, 59425, Control_c, 0, 64, 46
1, 59428, Note_off_c, 0, 75, 63
1, 59440, Control_c, 0, 64, 52
1, 59452, Note_on_c, 0, 64, 78
1, 59454, Control_c, 0, 64, 0
1, 59455, Note_on_c, 0, 60, 78
1, 59458, Note_off_c, 0, 63, 57
1, 59460, Note_on_c, 0, 74, 91
1, 59461, Note_on_c, 0, 79, 98
1, 59466, Note_off_c, 0, 78, 46
1, 59484, Note_off_c, 0, 74, 68
1, 59488, Note_off_c, 0, 79, 67
1, 59490, Note_off_c, 0, 60, 65
1, 59500, Note_off_c, 0, 64, 62
1, 59547, Note_on_c, 0, 61, 79
1, 59559, Note_on_c, 0, 63, 70
1, 59592, Note_off_c, 0, 63, 61
1, 59603, Note_off_c, 0, 61, 61
1, 59645, Note_on_c, 0, 60, 79
1, 59646, Note_on_c, 0, 64, 61
1, 59665, Note_on_c, 0, 74, 93
1, 59666, Note_on_c, 0, 79, 95
1, 59691, Note_off_c, 0, 60, 56
1, 59692, Control_c, 0, 64, 36
1, 59707, Control_c, 0, 64, 51
1, 59715, Note_off_c, 0, 64, 0
1, 59720, Note_off_c, 0, 74, 61
1, 59722, Control_c, 0, 64, 0
1, 59734, Note_on_c, 0, 64, 34
1, 59738, Note_on_c, 0, 61, 79
1, 59750, Note_on_c, 0, 63, 66
1, 59757, Note_off_c, 0, 64, 61
1, 59761, Note_on_c, 0, 75, 81
1, 59761, Note_on_c, 0, 78, 84
1, 59772, Note_off_c, 0, 79, 64
1, 59789, Note_off_c, 0, 75, 63
1, 59789, Note_off_c, 0, 63, 61
1, 59795, Note_off_c, 0, 61, 61
1, 59797, Note_off_c, 0, 78, 64
1, 59845, Note_on_c, 0, 64, 70
1, 59847, Note_on_c, 0, 60, 74
1, 59893, Note_off_c, 0, 60, 58
1, 59934, Note_on_c, 0, 75, 83
1, 59935, Note_on_c, 0, 78, 84
1, 59946, Note_on_c, 0, 61, 69
1, 59949, Note_on_c, 0, 63, 72
1, 59951, Note_off_c, 0, 64, 63
1, 60004, Control_c, 0, 64, 51
1, 60024, Note_off_c, 0, 61, 56
1, 60025, Control_c, 0, 64, 0
1, 60029, Note_on_c, 0, 60, 79
1, 60030, Note_off_c, 0, 75, 64
1, 60030, Note_off_c, 0, 63, 58
1, 60034, Note_on_c, 0, 74, 89
1, 60039, Note_off_c, 0, 78, 64
1, 60041, Note_on_c, 0, 79, 86
1, 60057, Note_on_c, 0, 64, 54
1, 60066, Note_off_c, 0, 60, 66
1, 60084, Note_off_c, 0, 74, 63
1, 60087, Note_off_c, 0, 64, 58
1, 60087, Note_off_c, 0, 79, 65
1, 60126, Note_on_c, 0, 75, 92
1, 60132, Note_on_c, 0, 58, 82
1, 60133, Note_on_c, 0, 73, 87
1, 60134, Note_on_c, 0, 61, 81
1, 60184, Note_off_c, 0, 58, 63
1, 60185, Note_off_c, 0, 73, 63
1, 60189, Note_off_c, 0, 61, 62
1, 60203, Control_c, 0, 64, 40
1, 60218, Control_c, 0, 64, 0
1, 60219, Note_on_c, 0, 72, 88
1, 60220, Note_on_c, 0, 62, 82
1, 60222, Note_on_c, 0, 76, 91
1, 60224, Note_on_c, 0, 57, 77
1, 60236, Note_off_c, 0, 75, 65
1, 60246, Note_on_c, 0, 55, 60
1, 60246, Note_off_c, 0, 55, 127
1, 60251, Note_off_c, 0, 72, 67
1, 60264, Note_off_c, 0, 76, 62
1, 60269, Note_off_c, 0, 62, 64
1, 60274, Note_off_c, 0, 57, 65
1, 60316, Note_on_c, 0, 61, 81
1, 60317, Note_on_c, 0, 58, 84
1, 60361, Note_off_c, 0, 58, 61
1, 60370, Note_off_c, 0, 61, 61
1, 60409, Note_on_c, 0, 57, 83
1, 60415, Note_on_c, 0, 62, 80
1, 60429, Note_on_c, 0, 74, 93
1, 60430, Note_on_c, 0, 79, 97
1, 60459, Note_off_c, 0, 57, 65
1, 60466, Note_off_c, 0, 62, 55
1, 60471, Control_c, 0, 64, 55
1, 60485, Control_c, 0, 64, 55
1, 60494, Note_off_c, 0, 74, 48
1, 60500, Control_c, 0, 64, 0
1, 60503, Note_on_c, 0, 58, 77
1, 60509, Note_on_c, 0, 61, 71
1, 60520, Note_on_c, 0, 78, 88
1, 60522, Note_on_c, 0, 75, 87
1, 60533, Note_off_c, 0, 79, 64
1, 60552, Note_off_c, 0, 75, 64
1, 60558, Note_off_c, 0, 58, 63
1, 60558, Note_off_c, 0, 78, 67
1, 60567, Note_off_c, 0, 61, 61
1, 60602, Note_on_c, 0, 57, 79
1, 60608, Note_on_c, 0, 62, 72
1, 60662, Note_off_c, 0, 57, 63
1, 60681, Note_off_c, 0, 62, 53
1, 60705, Note_on_c, 0, 58, 62
1, 60708, Note_on_c, 0, 75, 85
1, 60710, Note_on_c, 0, 78, 84
1, 60713, Note_on_c, 0, 61, 59
1, 60783, Note_off_c, 0, 61, 59
1, 60789, Control_c, 0, 64, 36
1, 60804, Control_c, 0, 64, 44
1, 60805, Note_on_c, 0, 74, 85
1, 60808, Note_off_c, 0, 75, 63
1, 60810, Note_on_c, 0, 79, 85
1, 60814, Note_on_c, 0, 57, 69
1, 60815, Note_off_c, 0, 58, 63
1, 60816, Note_on_c, 0, 62, 69
1, 60819, Control_c, 0, 64, 0
1, 60826, Note_off_c, 0, 78, 60
1, 60853, Note_off_c, 0, 74, 64
1, 60857, Note_off_c, 0, 79, 67
1, 60875, Note_off_c, 0, 57, 60
1, 60899, Note_on_c, 0, 61, 80
1, 60903, Note_off_c, 0, 62, 53
1, 60904, Note_on_c, 0, 75, 95
1, 60907, Note_on_c, 0, 58, 71
1, 60910, Note_on_c, 0, 73, 87
1, 60962, Note_off_c, 0, 58, 58
1, 60962, Note_off_c, 0, 61, 61
1, 60975, Note_off_c, 0, 73, 52
1, 60987, Note_on_c, 0, 57, 79
1, 60993, Note_on_c, 0, 76, 93
1, 60994, Note_on_c, 0, 72, 91
1, 60999, Note_on_c, 0, 62, 79
1, 61010, Note_off_c, 0, 75, 64
1, 61026, Note_off_c, 0, 72, 68
1, 61035, Note_off_c, 0, 76, 65
1, 61039, Note_off_c, 0, 57, 63
1, 61041, Note_off_c, 0, 62, 56
1, 61088, Note_on_c, 0, 58, 77
1, 61091, Note_on_c, 0, 56, 74
1, 61136, Note_off_c, 0, 56, 53
1, 61145, Note_off_c, 0, 58, 63
1, 61183, Note_on_c, 0, 55, 75
1, 61187, Note_on_c, 0, 59, 73
1, 61193, Note_on_c, 0, 78, 94
1, 61195, Note_on_c, 0, 75, 92
1, 61205, Control_c, 0, 64, 35
1, 61220, Control_c, 0, 64, 0
1, 61239, Note_off_c, 0, 59, 60
1, 61247, Note_off_c, 0, 55, 55
1, 61279, Note_off_c, 0, 75, 43
1, 61280, Note_on_c, 0, 58, 73
1, 61284, Note_on_c, 0, 56, 78
1, 61286, Note_on_c, 0, 79, 94
1, 61286, Note_off_c, 0, 78, 65
1, 61290, Note_on_c, 0, 74, 86
1, 61314, Note_off_c, 0, 74, 67
1, 61321, Note_off_c, 0, 56, 59
1, 61323, Note_off_c, 0, 79, 67
1, 61335, Note_off_c, 0, 58, 64
1, 61378, Note_on_c, 0, 55, 71
1, 61379, Note_on_c, 0, 59, 67
1, 61430, Note_off_c, 0, 55, 59
1, 61437, Note_off_c, 0, 59, 58
1, 61481, Note_on_c, 0, 56, 67
1, 61484, Note_on_c, 0, 58, 68
1, 61484, Note_on_c, 0, 74, 84
1, 61487, Note_on_c, 0, 79, 80
1, 61524, Control_c, 0, 64, 42
1, 61529, Note_off_c, 0, 56, 59
1, 61536, Note_on_c, 0, 81, 24
1, 61536, Note_off_c, 0, 81, 127
1, 61536, Note_off_c, 0, 58, 59
1, 61554, Control_c, 0, 64, 0
1, 61578, Note_on_c, 0, 55, 74
1, 61580, Note_on_c, 0, 59, 66
1, 61581, Note_off_c, 0, 74, 61
1, 61585, Note_on_c, 0, 78, 87
1, 61589, Note_on_c, 0, 75, 81
1, 61591, Note_off_c, 0, 79, 65
1, 61632, Note_off_c, 0, 78, 65
1, 61634, Note_off_c, 0, 75, 62
1, 61635, Note_off_c, 0, 55, 60
1, 61641, Note_off_c, 0, 59, 62
1, 61673, Note_on_c, 0, 72, 88
1, 61676, Note_on_c, 0, 58, 71
1, 61680, Note_on_c, 0, 56, 70
1, 61681, Note_on_c, 0, 76, 91
1, 61721, Note_off_c, 0, 56, 58
1, 61729, Note_off_c, 0, 58, 62
1, 61735, Note_off_c, 0, 72, 63
1, 61760, Note_on_c, 0, 55, 80
1, 61766, Note_on_c, 0, 59, 74
1, 61766, Note_on_c, 0, 75, 91
1, 61771, Note_on_c, 0, 73, 92
1, 61778, Note_off_c, 0, 76, 65
1, 61800, Note_off_c, 0, 73, 64
1, 61803, Note_off_c, 0, 75, 68
1, 61807, Note_off_c, 0, 59, 63
1, 61813, Note_off_c, 0, 55, 64
1, 61860, Note_on_c, 0, 54, 80
1, 61862, Note_on_c, 0, 56, 79
1, 61900, Note_off_c, 0, 54, 60
1, 61911, Note_off_c, 0, 56, 61
1, 61952, Note_on_c, 0, 53, 82
1, 61956, Note_on_c, 0, 57, 80
1, 61959, Note_on_c, 0, 75, 95
1, 61961, Note_on_c, 0, 73, 97
1, 62002, Note_off_c, 0, 53, 64
1, 62008, Note_off_c, 0, 57, 63
1, 62026, Note_off_c, 0, 73, 57
1, 62048, Note_on_c, 0, 54, 80
1, 62049, Note_on_c, 0, 56, 82
1, 62053, Note_on_c, 0, 72, 85
1, 62054, Note_on_c, 0, 76, 90
1, 62066, Note_off_c, 0, 75, 63
1, 62083, Note_off_c, 0, 54, 61
1, 62088, Note_off_c, 0, 72, 65
1, 62092, Note_off_c, 0, 76, 66
1, 62093, Note_off_c, 0, 56, 61
1, 62141, Note_on_c, 0, 53, 85
1, 62141, Note_on_c, 0, 57, 82
1, 62185, Note_off_c, 0, 53, 62
1, 62189, Note_off_c, 0, 57, 62
1, 62236, Note_on_c, 0, 54, 79
1, 62243, Note_on_c, 0, 56, 72
1, 62252, Note_on_c, 0, 70, 89
1, 62264, Note_on_c, 0, 68, 81
1, 62289, Note_off_c, 0, 56, 58
1, 62293, Note_off_c, 0, 54, 61
1, 62339, Note_on_c, 0, 53, 78
1, 62339, Note_off_c, 0, 68, 59
1, 62344, Note_on_c, 0, 57, 81
1, 62352, Note_on_c, 0, 67, 81
1, 62355, Note_on_c, 0, 71, 87
1, 62360, Note_off_c, 0, 70, 64
1, 62378, Note_off_c, 0, 67, 65
1, 62383, Note_off_c, 0, 57, 63
1, 62385, Note_off_c, 0, 71, 67
1, 62391, Note_off_c, 0, 53, 64
1, 62436, Note_on_c, 0, 54, 75
1, 62454, Note_on_c, 0, 56, 62
1, 62482, Note_off_c, 0, 54, 59
1, 62490, Note_off_c, 0, 56, 61
1, 62530, Note_on_c, 0, 53, 83
1, 62540, Note_on_c, 0, 57, 72
1, 62548, Note_on_c, 0, 72, 87
1, 62548, Note_on_c, 0, 76, 90
1, 62582, Note_off_c, 0, 57, 57
1, 62585, Note_off_c, 0, 53, 63
1, 62614, Note_off_c, 0, 72, 61
1, 62625, Note_on_c, 0, 54, 74
1, 62638, Note_on_c, 0, 56, 71
1, 62641, Note_on_c, 0, 73, 81
1, 62642, Note_on_c, 0, 75, 80
1, 62643, Control_c, 0, 64, 50
1, 62652, Note_off_c, 0, 76, 62
1, 62658, Control_c, 0, 64, 43
1, 62665, Note_off_c, 0, 73, 66
1, 62672, Control_c, 0, 64, 0
1, 62673, Note_off_c, 0, 75, 64
1, 62677, Note_off_c, 0, 54, 63
1, 62686, Note_off_c, 0, 56, 58
1, 62731, Note_on_c, 0, 53, 77
1, 62734, Note_on_c, 0, 57, 74
1, 62762, Control_c, 0, 64, 41
1, 62777, Control_c, 0, 64, 0
1, 62779, Note_off_c, 0, 57, 61
1, 62784, Note_off_c, 0, 53, 60
1, 62821, Note_on_c, 0, 70, 85
1, 62822, Note_on_c, 0, 54, 78
1, 62823, Note_on_c, 0, 68, 81
1, 62825, Note_on_c, 0, 56, 78
1, 62872, Note_off_c, 0, 54, 61
1, 62877, Note_off_c, 0, 56, 62
1, 62880, Control_c, 0, 64, 33
1, 62895, Control_c, 0, 64, 0
1, 62896, Note_off_c, 0, 68, 52
1, 62912, Note_on_c, 0, 67, 81
1, 62915, Note_on_c, 0, 53, 84
1, 62916, Note_on_c, 0, 57, 80
1, 62916, Note_on_c, 0, 71, 86
1, 62930, Note_off_c, 0, 70, 65
1, 62936, Note_off_c, 0, 67, 68
1, 62947, Note_off_c, 0, 71, 66
1, 62963, Note_off_c, 0, 57, 62
1, 62964, Note_off_c, 0, 53, 62
1, 62984, Control_c, 0, 64, 34
1, 62999, Control_c, 0, 64, 41
1, 63017, Note_on_c, 0, 54, 72
1, 63021, Control_c, 0, 64, 0
1, 63022, Note_on_c, 0, 56, 75
1, 63062, Note_off_c, 0, 54, 59
1, 63076, Note_off_c, 0, 56, 61
1, 63113, Note_on_c, 0, 53, 83
1, 63113, Note_on_c, 0, 75, 84
1, 63116, Note_on_c, 0, 73, 85
1, 63117, Note_on_c, 0, 57, 76
1, 63125, Control_c, 0, 64, 34
1, 63139, Control_c, 0, 64, 0
1, 63165, Note_off_c, 0, 57, 62
1, 63166, Note_off_c, 0, 53, 62
1, 63205, Note_on_c, 0, 72, 75
1, 63207, Note_off_c, 0, 73, 63
1, 63208, Note_on_c, 0, 54, 72
1, 63210, Note_on_c, 0, 76, 83
1, 63214, Note_on_c, 0, 56, 71
1, 63220, Note_off_c, 0, 75, 61
1, 63235, Note_off_c, 0, 72, 66
1, 63243, Note_off_c, 0, 76, 66
1, 63250, Note_off_c, 0, 54, 60
1, 63257, Note_off_c, 0, 56, 60
1, 63306, Note_on_c, 0, 53, 74
1, 63312, Note_on_c, 0, 57, 71
1, 63354, Note_off_c, 0, 57, 59
1, 63360, Note_off_c, 0, 53, 58
1, 63400, Note_on_c, 0, 54, 67
1, 63400, Note_on_c, 0, 73, 80
1, 63401, Note_on_c, 0, 70, 79
1, 63404, Note_on_c, 0, 56, 69
1, 63439, Note_off_c, 0, 54, 61
1, 63461, Note_off_c, 0, 56, 59
1, 63490, Note_on_c, 0, 69, 74
1, 63491, Note_off_c, 0, 70, 64
1, 63493, Note_on_c, 0, 53, 71
1, 63493, Note_on_c, 0, 74, 77
1, 63500, Note_on_c, 0, 57, 67
1, 63512, Note_off_c, 0, 73, 62
1, 63522, Note_off_c, 0, 69, 65
1, 63530, Note_off_c, 0, 74, 63
1, 63551, Note_off_c, 0, 57, 57
1, 63564, Note_off_c, 0, 53, 61
1, 63584, Control_c, 0, 64, 36
1, 63594, Note_on_c, 0, 56, 71
1, 63598, Note_on_c, 0, 54, 56
1, 63599, Control_c, 0, 64, 0
1, 63635, Note_off_c, 0, 54, 65
1, 63648, Note_off_c, 0, 56, 59
1, 63685, Note_on_c, 0, 67, 70
1, 63685, Note_on_c, 0, 71, 83
1, 63689, Note_on_c, 0, 53, 73
1, 63691, Note_on_c, 0, 57, 69
1, 63733, Note_off_c, 0, 67, 51
1, 63765, Note_off_c, 0, 53, 58
1, 63780, Note_off_c, 0, 57, 49
1, 63788, Note_on_c, 0, 54, 63
1, 63789, Note_on_c, 0, 70, 75
1, 63789, Note_on_c, 0, 56, 73
1, 63789, Note_on_c, 0, 68, 75
1, 63792, Note_off_c, 0, 71, 64
1, 63812, Note_off_c, 0, 68, 70
1, 63814, Note_off_c, 0, 70, 68
1, 63829, Note_off_c, 0, 54, 60
1, 63845, Note_off_c, 0, 56, 59
1, 63873, Note_on_c, 0, 53, 79
1, 63881, Note_on_c, 0, 57, 78
1, 63916, Note_off_c, 0, 57, 60
1, 63921, Note_off_c, 0, 53, 60
1, 63967, Note_on_c, 0, 51, 84
1, 63971, Note_on_c, 0, 68, 88
1, 63973, Note_on_c, 0, 54, 80
1, 63977, Note_on_c, 0, 66, 79
1, 64004, Note_off_c, 0, 51, 62
1, 64015, Note_off_c, 0, 54, 61
1, 64033, Note_off_c, 0, 66, 61
1, 64058, Note_on_c, 0, 55, 96
1, 64059, Note_on_c, 0, 50, 95
1, 64064, Note_on_c, 0, 65, 80
1, 64066, Control_c, 0, 64, 40
1, 64070, Note_on_c, 0, 69, 78
1, 64070, Note_off_c, 0, 68, 59
1, 64081, Control_c, 0, 64, 60
1, 64084, Note_off_c, 0, 55, 68
1, 64093, Note_off_c, 0, 50, 64
1, 64096, Control_c, 0, 64, 0
1, 64119, Note_off_c, 0, 65, 64
1, 64156, Note_off_c, 0, 69, 61
1, 64164, Note_on_c, 0, 68, 80
1, 64168, Note_on_c, 0, 66, 67
1, 64260, Note_off_c, 0, 66, 57
1, 64266, Note_on_c, 0, 51, 79
1, 64266, Note_off_c, 0, 68, 59
1, 64269, Note_on_c, 0, 54, 77
1, 64270, Note_on_c, 0, 69, 72
1, 64272, Note_on_c, 0, 65, 74
1, 64305, Note_off_c, 0, 51, 63
1, 64317, Note_off_c, 0, 54, 60
1, 64331, Note_off_c, 0, 65, 60
1, 64349, Note_off_c, 0, 69, 60
1, 64354, Note_on_c, 0, 50, 84
1, 64356, Note_on_c, 0, 55, 74
1, 64362, Note_on_c, 0, 68, 73
1, 64378, Note_on_c, 0, 66, 61
1, 64379, Note_off_c, 0, 55, 70
1, 64383, Note_off_c, 0, 50, 68
1, 64450, Note_off_c, 0, 66, 58
1, 64463, Note_off_c, 0, 68, 61
1, 64466, Note_on_c, 0, 69, 71
1, 64467, Note_on_c, 0, 65, 69
1, 64514, Note_off_c, 0, 65, 61
1, 64550, Note_off_c, 0, 69, 55
1, 64564, Control_c, 0, 64, 41
1, 64569, Note_on_c, 0, 68, 66
1, 64579, Note_on_c, 0, 49, 72
1, 64579, Control_c, 0, 64, 0
1, 64580, Note_on_c, 0, 51, 76
1, 64581, Note_on_c, 0, 66, 59
1, 64618, Note_off_c, 0, 49, 60
1, 64619, Note_off_c, 0, 51, 61
1, 64643, Note_off_c, 0, 66, 57
1, 64655, Note_on_c, 0, 52, 82
1, 64658, Note_on_c, 0, 48, 81
1, 64663, Note_on_c, 0, 65, 72
1, 64663, Note_off_c, 0, 68, 59
1, 64671, Note_on_c, 0, 69, 64
1, 64678, Note_off_c, 0, 52, 70
1, 64681, Note_off_c, 0, 48, 69
1, 64725, Note_off_c, 0, 65, 55
1, 64754, Note_off_c, 0, 69, 62
1, 64759, Note_on_c, 0, 68, 74
1, 64765, Note_on_c, 0, 66, 62
1, 64842, Note_off_c, 0, 66, 54
1, 64859, Note_on_c, 0, 46, 77
1, 64861, Note_on_c, 0, 65, 73
1, 64862, Note_on_c, 0, 49, 77
1, 64864, Note_off_c, 0, 68, 62
1, 64866, Note_on_c, 0, 69, 69
1, 64893, Note_off_c, 0, 46, 65
1, 64895, Note_off_c, 0, 49, 66
1, 64924, Note_off_c, 0, 65, 56
1, 64942, Note_on_c, 0, 50, 85
1, 64948, Note_on_c, 0, 45, 79
1, 64949, Note_on_c, 0, 68, 76
1, 64950, Note_off_c, 0, 69, 61
1, 64952, Note_on_c, 0, 66, 68
1, 64964, Note_off_c, 0, 50, 70
1, 64973, Note_off_c, 0, 45, 66
1, 65044, Note_off_c, 0, 66, 57
1, 65050, Note_on_c, 0, 65, 73
1, 65056, Note_on_c, 0, 69, 70
1, 65060, Note_off_c, 0, 68, 62
1, 65109, Note_off_c, 0, 65, 58
1, 65130, Note_off_c, 0, 69, 55
1, 65154, Note_on_c, 0, 68, 78
1, 65158, Note_on_c, 0, 66, 73
1, 65158, Note_on_c, 0, 44, 72
1, 65165, Note_on_c, 0, 46, 65
1, 65230, Note_off_c, 0, 46, 52
1, 65235, Note_off_c, 0, 66, 61
1, 65235, Note_off_c, 0, 44, 59
1, 65240, Note_on_c, 0, 47, 72
1, 65243, Note_on_c, 0, 43, 70
1, 65243, Note_on_c, 0, 69, 80
1, 65245, Note_on_c, 0, 65, 87
1, 65262, Note_off_c, 0, 68, 63
1, 65269, Note_off_c, 0, 69, 72
1, 65274, Note_off_c, 0, 65, 71
1, 65283, Note_off_c, 0, 43, 68
1, 65283, Note_off_c, 0, 47, 64
1, 65342, Note_on_c, 0, 46, 76
1, 65354, Note_on_c, 0, 44, 59
1, 65374, Note_off_c, 0, 46, 67
1, 65379, Note_off_c, 0, 44, 62
1, 65444, Note_on_c, 0, 47, 58
1, 65445, Note_on_c, 0, 43, 65
1, 65459, Note_on_c, 0, 53, 71
1, 65462, Note_on_c, 0, 57, 77
1, 65501, Note_on_c, 0, 59, 25
1, 65501, Note_off_c, 0, 59, 127
1, 65516, Note_off_c, 0, 53, 59
1, 65535, Note_off_c, 0, 43, 55
1, 65539, Note_on_c, 0, 44, 70
1, 65545, Note_on_c, 0, 56, 76
1, 65547, Note_off_c, 0, 57, 64
1, 65548, Note_on_c, 0, 54, 71
1, 65562, Note_off_c, 0, 44, 67
1, 65562, Note_off_c, 0, 47, 66
1, 65585, Note_off_c, 0, 54, 60
1, 65637, Note_off_c, 0, 56, 58
1, 65638, Note_on_c, 0, 53, 74
1, 65648, Note_on_c, 0, 57, 77
1, 65697, Note_off_c, 0, 53, 61
1, 65713, Note_off_c, 0, 57, 54
1, 65732, Note_on_c, 0, 54, 77
1, 65733, Note_on_c, 0, 56, 80
1, 65742, Note_on_c, 0, 70, 91
1, 65745, Note_on_c, 0, 68, 84
1, 65769, Note_off_c, 0, 68, 61
1, 65787, Note_off_c, 0, 70, 62
1, 65802, Note_off_c, 0, 54, 60
1, 65834, Note_on_c, 0, 53, 73
1, 65835, Note_on_c, 0, 57, 75
1, 65836, Note_on_c, 0, 67, 69
1, 65846, Note_off_c, 0, 56, 60
1, 65849, Note_on_c, 0, 65, 67
1, 65859, Note_off_c, 0, 67, 70
1, 65868, Note_off_c, 0, 65, 65
1, 65884, Note_off_c, 0, 53, 62
1, 65939, Note_on_c, 0, 54, 63
1, 65939, Note_off_c, 0, 57, 64
1, 65941, Note_on_c, 0, 56, 73
1, 65950, Control_c, 0, 64, 36
1, 65965, Control_c, 0, 64, 0
1, 66021, Note_off_c, 0, 54, 62
1, 66038, Note_off_c, 0, 56, 61
1, 66040, Note_on_c, 0, 53, 65
1, 66043, Note_on_c, 0, 57, 72
1, 66095, Note_off_c, 0, 53, 59
1, 66127, Note_off_c, 0, 57, 61
1, 66129, Note_on_c, 0, 56, 81
1, 66134, Note_on_c, 0, 54, 75
1, 66139, Note_on_c, 0, 46, 83
1, 66141, Note_on_c, 0, 44, 78
1, 66178, Note_off_c, 0, 44, 63
1, 66193, Note_off_c, 0, 46, 63
1, 66213, Note_off_c, 0, 54, 54
1, 66216, Note_on_c, 0, 47, 88
1, 66225, Note_on_c, 0, 43, 83
1, 66230, Note_on_c, 0, 53, 73
1, 66234, Note_on_c, 0, 57, 82
1, 66239, Note_off_c, 0, 56, 61
1, 66244, Note_off_c, 0, 47, 68
1, 66249, Note_off_c, 0, 43, 66
1, 66287, Note_off_c, 0, 53, 63
1, 66305, Note_off_c, 0, 57, 53
1, 66328, Note_on_c, 0, 56, 78
1, 66329, Note_on_c, 0, 54, 72
1, 66343, Control_c, 0, 64, 34
1, 66358, Control_c, 0, 64, 0
1, 66409, Note_off_c, 0, 54, 58
1, 66424, Note_on_c, 0, 53, 76
1, 66426, Note_off_c, 0, 56, 57
1, 66430, Note_on_c, 0, 57, 73
1, 66446, Control_c, 0, 64, 41
1, 66461, Control_c, 0, 64, 37
1, 66476, Control_c, 0, 64, 0
1, 66486, Note_off_c, 0, 53, 61
1, 66514, Note_on_c, 0, 68, 86
1, 66516, Note_on_c, 0, 56, 88
1, 66517, Note_on_c, 0, 54, 76
1, 66518, Note_on_c, 0, 70, 82
1, 66523, Note_off_c, 0, 57, 64
1, 66535, Control_c, 0, 64, 44
1, 66550, Control_c, 0, 64, 51
1, 66553, Note_off_c, 0, 68, 63
1, 66562, Note_off_c, 0, 70, 64
1, 66565, Control_c, 0, 64, 46
1, 66579, Control_c, 0, 64, 0
1, 66585, Note_off_c, 0, 54, 62
1, 66606, Note_on_c, 0, 67, 92
1, 66612, Note_on_c, 0, 69, 84
1, 66615, Note_on_c, 0, 53, 77
1, 66617, Note_on_c, 0, 57, 82
1, 66621, Note_off_c, 0, 56, 60
1, 66627, Note_off_c, 0, 69, 74
1, 66632, Note_off_c, 0, 67, 64
1, 66666, Note_off_c, 0, 53, 63
1, 66715, Note_off_c, 0, 57, 63
1, 66716, Note_on_c, 0, 54, 73
1, 66717, Note_on_c, 0, 56, 80
1, 66797, Note_off_c, 0, 54, 59
1, 66822, Note_off_c, 0, 56, 60
1, 66825, Note_on_c, 0, 53, 68
1, 66830, Note_on_c, 0, 57, 73
1, 66887, Note_off_c, 0, 53, 61
1, 66901, Note_off_c, 0, 57, 61
1, 66925, Note_on_c, 0, 54, 54
1, 66925, Note_on_c, 0, 56, 66
1, 67000, Note_off_c, 0, 54, 61
1, 67024, Note_on_c, 0, 53, 68
1, 67024, Note_off_c, 0, 56, 60
1, 67027, Note_on_c, 0, 57, 65
1, 67033, Control_c, 0, 67, 121
1, 67072, Note_off_c, 0, 53, 58
1, 67092, Control_c, 0, 67, 115
1, 67095, Note_off_c, 0, 57, 54
1, 67107, Control_c, 0, 67, 104
1, 67113, Note_on_c, 0, 46, 94
1, 67114, Note_on_c, 0, 56, 83
1, 67116, Note_on_c, 0, 44, 88
1, 67118, Note_on_c, 0, 54, 75
1, 67122, Control_c, 0, 67, 91
1, 67137, Control_c, 0, 67, 89
1, 67146, Note_off_c, 0, 44, 68
1, 67155, Note_off_c, 0, 46, 65
1, 67167, Control_c, 0, 67, 82
1, 67181, Control_c, 0, 67, 55
1, 67191, Note_off_c, 0, 54, 61
1, 67196, Control_c, 0, 67, 0
1, 67201, Note_on_c, 0, 47, 96
1, 67206, Note_on_c, 0, 43, 88
1, 67216, Note_on_c, 0, 53, 89
1, 67218, Note_on_c, 0, 57, 82
1, 67229, Note_off_c, 0, 47, 66
1, 67230, Note_off_c, 0, 43, 70
1, 67237, Note_off_c, 0, 56, 57
1, 67267, Note_off_c, 0, 53, 63
1, 67319, Note_on_c, 0, 54, 73
1, 67320, Note_off_c, 0, 57, 61
1, 67321, Note_on_c, 0, 56, 80
1, 67410, Note_off_c, 0, 54, 52
1, 67414, Note_on_c, 0, 53, 80
1, 67418, Note_on_c, 0, 57, 81
1, 67419, Note_off_c, 0, 56, 62
1, 67468, Note_off_c, 0, 53, 62
1, 67515, Note_on_c, 0, 54, 87
1, 67516, Note_on_c, 0, 56, 91
1, 67525, Note_off_c, 0, 57, 59
1, 67587, Note_off_c, 0, 54, 61
1, 67623, Note_on_c, 0, 53, 87
1, 67624, Note_on_c, 0, 57, 87
1, 67638, Note_off_c, 0, 56, 62
1, 67656, Note_off_c, 0, 53, 67
1, 67659, Note_off_c, 0, 57, 64
1, 67760, Note_on_c, 0, 44, 93
1, 67760, Note_on_c, 0, 42, 90
1, 67765, Note_on_c, 0, 56, 98
1, 67766, Note_on_c, 0, 54, 91
1, 67790, Note_off_c, 0, 44, 67
1, 67794, Note_off_c, 0, 42, 63
1, 67807, Note_off_c, 0, 54, 61
1, 67811, Note_off_c, 0, 56, 64
1, 67950, Note_on_c, 0, 45, 98
1, 67952, Note_on_c, 0, 41, 87
1, 67952, Note_on_c, 0, 53, 97
1, 67955, Note_on_c, 0, 57, 94
1, 67959, Control_c, 0, 64, 54
1, 67974, Control_c, 0, 64, 127
1, 67980, Note_off_c, 0, 45, 68
1, 67980, Note_off_c, 0, 41, 67
1, 67987, Note_off_c, 0, 53, 66
1, 67990, Note_off_c, 0, 57, 65
1, 68018, Control_c, 0, 67, 33
1, 68033, Control_c, 0, 67, 40
1, 68048, Control_c, 0, 67, 41
1, 68063, Control_c, 0, 67, 41
1, 68077, Control_c, 0, 67, 42
1, 68092, Control_c, 0, 67, 46
1, 68107, Control_c, 0, 67, 55
1, 68121, Control_c, 0, 67, 58
1, 68136, Control_c, 0, 67, 57
1, 68151, Control_c, 0, 67, 56
1, 68166, Control_c, 0, 67, 55
1, 68181, Control_c, 0, 67, 58
1, 68196, Control_c, 0, 67, 59
1, 68225, Control_c, 0, 67, 57
1, 68240, Control_c, 0, 67, 54
1, 68263, Control_c, 0, 64, 106
1, 68263, Control_c, 0, 67, 53
1, 68278, Control_c, 0, 64, 81
1, 68278, Control_c, 0, 67, 53
1, 68292, Control_c, 0, 64, 67
1, 68292, Control_c, 0, 67, 55
1, 68307, Control_c, 0, 64, 54
1, 68307, Control_c, 0, 67, 56
1, 68322, Control_c, 0, 64, 36
1, 68338, Control_c, 0, 64, 0
1, 68353, Control_c, 0, 67, 55
1, 68368, Control_c, 0, 67, 54
1, 68397, Control_c, 0, 67, 55
1, 68412, Control_c, 0, 67, 55
1, 70911, Control_c, 0, 64, 34
1, 70926, Control_c, 0, 64, 34
1, 70955, Control_c, 0, 64, 35
1, 70970, Control_c, 0, 64, 35
1, 71000, Control_c, 0, 64, 36
1, 71029, Control_c, 0, 64, 36
1, 71161, Control_c, 0, 64, 36
1, 71220, Control_c, 0, 64, 35
1, 71257, Control_c, 0, 64, 35
1, 71316, Control_c, 0, 64, 34
1, 71331, Control_c, 0, 64, 34
1, 71361, Control_c, 0, 67, 55
1, 71391, Control_c, 0, 67, 54
1, 71480, Control_c, 0, 64, 34
1, 71495, Control_c, 0, 64, 35
1, 71509, Control_c, 0, 64, 37
1, 71509, Control_c, 0, 67, 54
1, 71525, Control_c, 0, 64, 39
1, 71540, Control_c, 0, 64, 41
1, 71555, Control_c, 0, 64, 0
1, 71599, Control_c, 0, 67, 53
1, 71614, Control_c, 0, 67, 53
1, 71629, Control_c, 0, 67, 53
1, 71673, Control_c, 0, 67, 54
1, 71703, Control_c, 0, 67, 54
1, 71717, Control_c, 0, 67, 55
1, 71732, Control_c, 0, 67, 56
1, 71747, Control_c, 0, 67, 56
1, 71756, Note_on_c, 0, 55, 73
1, 71761, Note_on_c, 0, 43, 72
1, 71787, Note_off_c, 0, 55, 64
1, 71799, Note_off_c, 0, 43, 64
1, 72014, Note_on_c, 0, 60, 75
1, 72018, Note_on_c, 0, 48, 75
1, 72022, Control_c, 0, 67, 56
1, 72037, Control_c, 0, 67, 55
1, 72074, Note_off_c, 0, 48, 63
1, 72085, Note_off_c, 0, 60, 64
1, 72103, Note_on_c, 0, 62, 79
1, 72103, Note_on_c, 0, 50, 79
1, 72125, Control_c, 0, 67, 54
1, 72155, Control_c, 0, 67, 55
1, 72157, Note_off_c, 0, 50, 62
1, 72170, Control_c, 0, 67, 56
1, 72185, Note_off_c, 0, 62, 58
1, 72195, Note_on_c, 0, 64, 78
1, 72199, Control_c, 0, 67, 56
1, 72204, Note_on_c, 0, 52, 72
1, 72214, Control_c, 0, 67, 55
1, 72229, Control_c, 0, 67, 54
1, 72258, Control_c, 0, 67, 58
1, 72273, Control_c, 0, 67, 61
1, 72283, Note_on_c, 0, 66, 85
1, 72288, Control_c, 0, 67, 60
1, 72292, Note_off_c, 0, 64, 61
1, 72295, Note_on_c, 0, 54, 75
1, 72303, Control_c, 0, 67, 57
1, 72306, Note_off_c, 0, 52, 61
1, 72318, Control_c, 0, 67, 56
1, 72329, Note_off_c, 0, 54, 63
1, 72348, Control_c, 0, 67, 58
1, 72363, Control_c, 0, 67, 63
1, 72378, Control_c, 0, 67, 66
1, 72386, Note_on_c, 0, 67, 75
1, 72386, Note_on_c, 0, 55, 74
1, 72390, Note_off_c, 0, 66, 64
1, 72393, Control_c, 0, 67, 63
1, 72407, Control_c, 0, 67, 61
1, 72422, Control_c, 0, 67, 60
1, 72437, Control_c, 0, 67, 61
1, 72452, Control_c, 0, 67, 65
1, 72467, Control_c, 0, 67, 67
1, 72482, Control_c, 0, 67, 64
1, 72497, Control_c, 0, 67, 61
1, 72511, Control_c, 0, 67, 60
1, 72526, Control_c, 0, 67, 60
1, 72541, Control_c, 0, 67, 64
1, 72556, Control_c, 0, 67, 67
1, 72571, Control_c, 0, 67, 64
1, 72586, Control_c, 0, 67, 60
1, 72600, Control_c, 0, 67, 58
1, 72610, Note_on_c, 0, 69, 80
1, 72612, Note_on_c, 0, 57, 72
1, 72613, Note_off_c, 0, 67, 64
1, 72615, Control_c, 0, 67, 57
1, 72623, Note_off_c, 0, 55, 62
1, 72630, Control_c, 0, 64, 55
1, 72630, Control_c, 0, 67, 60
1, 72645, Control_c, 0, 64, 62
1, 72645, Control_c, 0, 67, 62
1, 72658, Note_off_c, 0, 57, 65
1, 72660, Control_c, 0, 64, 62
1, 72660, Control_c, 0, 67, 61
1, 72674, Control_c, 0, 67, 58
1, 72689, Control_c, 0, 64, 63
1, 72689, Control_c, 0, 67, 57
1, 72704, Control_c, 0, 64, 64
1, 72718, Control_c, 0, 64, 66
1, 72718, Control_c, 0, 67, 60
1, 72733, Control_c, 0, 64, 67
1, 72733, Control_c, 0, 67, 62
1, 72756, Control_c, 0, 64, 68
1, 72756, Control_c, 0, 67, 62
1, 72771, Control_c, 0, 64, 70
1, 72771, Control_c, 0, 67, 59
1, 72786, Control_c, 0, 64, 72
1, 72786, Control_c, 0, 67, 58
1, 72799, Note_off_c, 0, 69, 59
1, 72800, Control_c, 0, 64, 73
1, 72815, Control_c, 0, 64, 65
1, 72815, Control_c, 0, 67, 62
1, 72830, Note_on_c, 0, 63, 83
1, 72830, Control_c, 0, 64, 0
1, 72830, Control_c, 0, 67, 66
1, 72845, Control_c, 0, 67, 64
1, 72860, Control_c, 0, 67, 60
1, 72874, Control_c, 0, 67, 58
1, 72904, Control_c, 0, 67, 62
1, 72919, Control_c, 0, 67, 65
1, 72933, Control_c, 0, 67, 64
1, 72948, Control_c, 0, 67, 61
1, 72963, Control_c, 0, 67, 59
1, 72978, Control_c, 0, 67, 58
1, 72993, Control_c, 0, 67, 60
1, 73007, Control_c, 0, 67, 64
1, 73037, Control_c, 0, 67, 60
1, 73049, Note_on_c, 0, 55, 77
1, 73052, Control_c, 0, 67, 57
1, 73067, Control_c, 0, 64, 51
1, 73067, Control_c, 0, 67, 56
1, 73081, Control_c, 0, 64, 54
1, 73081, Control_c, 0, 67, 57
1, 73096, Note_off_c, 0, 55, 60
1, 73096, Control_c, 0, 64, 55
1, 73096, Control_c, 0, 67, 62
1, 73111, Control_c, 0, 64, 56
1, 73111, Control_c, 0, 67, 64
1, 73127, Control_c, 0, 64, 57
1, 73127, Control_c, 0, 67, 61
1, 73134, Note_off_c, 0, 63, 64
1, 73142, Control_c, 0, 64, 58
1, 73142, Control_c, 0, 67, 57
1, 73156, Control_c, 0, 67, 55
1, 73171, Control_c, 0, 67, 54
1, 73186, Control_c, 0, 64, 59
1, 73186, Control_c, 0, 67, 58
1, 73201, Control_c, 0, 64, 59
1, 73201, Control_c, 0, 67, 61
1, 73216, Control_c, 0, 64, 60
1, 73216, Control_c, 0, 67, 60
1, 73230, Control_c, 0, 64, 61
1, 73230, Control_c, 0, 67, 56
1, 73245, Control_c, 0, 64, 62
1, 73245, Control_c, 0, 67, 54
1, 73260, Control_c, 0, 64, 63
1, 73271, Note_on_c, 0, 62, 81
1, 73275, Control_c, 0, 64, 64
1, 73275, Control_c, 0, 67, 57
1, 73290, Control_c, 0, 67, 59
1, 73304, Control_c, 0, 64, 63
1, 73304, Control_c, 0, 67, 58
1, 73319, Control_c, 0, 64, 62
1, 73319, Control_c, 0, 67, 53
1, 73334, Control_c, 0, 67, 49
1, 73335, Note_on_c, 0, 63, 70
1, 73336, Note_off_c, 0, 62, 63
1, 73348, Control_c, 0, 64, 62
1, 73348, Control_c, 0, 67, 46
1, 73363, Control_c, 0, 64, 60
1, 73363, Control_c, 0, 67, 47
1, 73378, Control_c, 0, 64, 57
1, 73378, Control_c, 0, 67, 49
1, 73393, Control_c, 0, 64, 56
1, 73393, Control_c, 0, 67, 48
1, 73404, Note_on_c, 0, 62, 72
1, 73408, Control_c, 0, 67, 44
1, 73416, Note_off_c, 0, 63, 63
1, 73422, Control_c, 0, 64, 56
1, 73422, Control_c, 0, 67, 36
1, 73437, Control_c, 0, 64, 55
1, 73437, Control_c, 0, 67, 27
1, 73452, Control_c, 0, 64, 51
1, 73467, Control_c, 0, 64, 43
1, 73471, Note_on_c, 0, 43, 63
1, 73474, Note_off_c, 0, 62, 64
1, 73481, Note_on_c, 0, 60, 78
1, 73482, Control_c, 0, 64, 37
1, 73504, Control_c, 0, 64, 38
1, 73504, Control_c, 0, 67, 21
1, 73506, Note_off_c, 0, 43, 65
1, 73519, Control_c, 0, 64, 38
1, 73519, Control_c, 0, 67, 0
1, 73534, Control_c, 0, 64, 0
1, 73534, Note_off_c, 0, 60, 63
1, 73593, Note_on_c, 0, 62, 77
1, 73640, Note_off_c, 0, 62, 62
1, 73701, Note_on_c, 0, 60, 77
1, 73922, Note_on_c, 0, 48, 75
1, 73957, Note_off_c, 0, 48, 65
1, 74127, Note_off_c, 0, 60, 52
1, 74172, Note_on_c, 0, 36, 69
1, 74205, Note_off_c, 0, 36, 64
1, 74434, Note_on_c, 0, 60, 81
1, 74470, Note_off_c, 0, 60, 62
1, 74678, Note_on_c, 0, 67, 79
1, 74683, Note_on_c, 0, 55, 61
1, 74773, Note_off_c, 0, 67, 64
1, 74781, Note_on_c, 0, 69, 77
1, 74782, Note_on_c, 0, 57, 69
1, 74789, Note_off_c, 0, 55, 63
1, 74862, Control_c, 0, 67, 20
1, 74871, Note_on_c, 0, 71, 88
1, 74871, Note_off_c, 0, 69, 60
1, 74876, Control_c, 0, 67, 0
1, 74880, Note_on_c, 0, 59, 73
1, 74885, Note_off_c, 0, 57, 65
1, 74950, Control_c, 0, 67, 23
1, 74968, Note_on_c, 0, 73, 90
1, 74978, Note_on_c, 0, 61, 78
1, 74979, Note_off_c, 0, 71, 63
1, 74980, Control_c, 0, 67, 0
1, 74998, Note_off_c, 0, 59, 61
1, 75047, Control_c, 0, 67, 23
1, 75062, Control_c, 0, 67, 26
1, 75066, Note_off_c, 0, 73, 67
1, 75072, Note_on_c, 0, 74, 90
1, 75076, Control_c, 0, 67, 22
1, 75081, Note_on_c, 0, 62, 82
1, 75083, Note_off_c, 0, 61, 61
1, 75091, Control_c, 0, 67, 19
1, 75106, Control_c, 0, 67, 0
1, 75135, Control_c, 0, 67, 23
1, 75150, Control_c, 0, 67, 30
1, 75165, Control_c, 0, 67, 32
1, 75180, Control_c, 0, 67, 27
1, 75194, Control_c, 0, 67, 25
1, 75239, Control_c, 0, 67, 31
1, 75254, Control_c, 0, 67, 33
1, 75269, Control_c, 0, 67, 28
1, 75284, Control_c, 0, 64, 41
1, 75284, Control_c, 0, 67, 25
1, 75296, Note_on_c, 0, 76, 90
1, 75296, Note_on_c, 0, 64, 78
1, 75299, Control_c, 0, 64, 44
1, 75299, Control_c, 0, 67, 23
1, 75302, Note_off_c, 0, 74, 63
1, 75313, Control_c, 0, 64, 52
1, 75319, Note_off_c, 0, 62, 61
1, 75328, Control_c, 0, 64, 61
1, 75328, Control_c, 0, 67, 27
1, 75336, Note_off_c, 0, 64, 64
1, 75343, Control_c, 0, 64, 66
1, 75343, Control_c, 0, 67, 33
1, 75358, Control_c, 0, 64, 68
1, 75358, Control_c, 0, 67, 32
1, 75373, Control_c, 0, 64, 69
1, 75373, Control_c, 0, 67, 28
1, 75388, Control_c, 0, 64, 69
1, 75388, Control_c, 0, 67, 25
1, 75402, Control_c, 0, 64, 70
1, 75417, Control_c, 0, 64, 73
1, 75430, Note_off_c, 0, 76, 62
1, 75432, Control_c, 0, 64, 76
1, 75432, Control_c, 0, 67, 33
1, 75446, Control_c, 0, 64, 82
1, 75446, Control_c, 0, 67, 39
1, 75461, Control_c, 0, 64, 89
1, 75476, Control_c, 0, 64, 95
1, 75476, Control_c, 0, 67, 36
1, 75491, Control_c, 0, 64, 91
1, 75491, Control_c, 0, 67, 35
1, 75505, Note_on_c, 0, 70, 89
1, 75506, Control_c, 0, 64, 68
1, 75506, Control_c, 0, 67, 37
1, 75522, Control_c, 0, 64, 0
1, 75522, Control_c, 0, 67, 43
1, 75536, Control_c, 0, 67, 52
1, 75551, Control_c, 0, 67, 58
1, 75566, Control_c, 0, 67, 55
1, 75581, Control_c, 0, 67, 52
1, 75596, Control_c, 0, 67, 51
1, 75610, Control_c, 0, 67, 56
1, 75625, Control_c, 0, 67, 63
1, 75640, Control_c, 0, 67, 72
1, 75655, Control_c, 0, 67, 74
1, 75670, Control_c, 0, 67, 69
1, 75685, Control_c, 0, 67, 66
1, 75714, Control_c, 0, 67, 73
1, 75727, Note_on_c, 0, 62, 79
1, 75729, Control_c, 0, 67, 79
1, 75751, Control_c, 0, 67, 81
1, 75766, Control_c, 0, 67, 76
1, 75778, Note_off_c, 0, 62, 61
1, 75781, Control_c, 0, 67, 71
1, 75796, Control_c, 0, 67, 67
1, 75811, Control_c, 0, 67, 68
1, 75825, Control_c, 0, 64, 36
1, 75825, Control_c, 0, 67, 77
1, 75840, Control_c, 0, 64, 46
1, 75840, Control_c, 0, 67, 82
1, 75855, Control_c, 0, 64, 51
1, 75855, Control_c, 0, 67, 80
1, 75862, Note_off_c, 0, 70, 63
1, 75869, Control_c, 0, 64, 53
1, 75869, Control_c, 0, 67, 74
1, 75884, Control_c, 0, 67, 70
1, 75899, Control_c, 0, 64, 53
1, 75899, Control_c, 0, 67, 69
1, 75914, Control_c, 0, 64, 54
1, 75914, Control_c, 0, 67, 74
1, 75929, Control_c, 0, 64, 55
1, 75929, Control_c, 0, 67, 81
1, 75943, Control_c, 0, 67, 84
1, 75958, Control_c, 0, 67, 80
1, 75960, Note_on_c, 0, 69, 77
1, 75973, Control_c, 0, 67, 74
1, 75988, Control_c, 0, 64, 54
1, 75988, Control_c, 0, 67, 72
1, 76003, Control_c, 0, 64, 51
1, 76003, Control_c, 0, 67, 74
1, 76014, Note_on_c, 0, 70, 71
1, 76017, Control_c, 0, 64, 50
1, 76017, Control_c, 0, 67, 81
1, 76018, Note_off_c, 0, 69, 62
1, 76032, Control_c, 0, 67, 86
1, 76047, Control_c, 0, 67, 85
1, 76062, Control_c, 0, 64, 48
1, 76062, Control_c, 0, 67, 79
1, 76077, Control_c, 0, 64, 44
1, 76077, Control_c, 0, 67, 73
1, 76084, Note_on_c, 0, 69, 68
1, 76092, Control_c, 0, 64, 39
1, 76092, Control_c, 0, 67, 72
1, 76094, Note_off_c, 0, 70, 65
1, 76106, Control_c, 0, 64, 39
1, 76106, Control_c, 0, 67, 79
1, 76121, Control_c, 0, 64, 40
1, 76121, Control_c, 0, 67, 86
1, 76136, Control_c, 0, 64, 39
1, 76136, Control_c, 0, 67, 89
1, 76148, Note_on_c, 0, 50, 69
1, 76151, Control_c, 0, 64, 37
1, 76151, Control_c, 0, 67, 85
1, 76157, Note_off_c, 0, 69, 64
1, 76163, Note_on_c, 0, 67, 78
1, 76166, Control_c, 0, 64, 0
1, 76166, Control_c, 0, 67, 79
1, 76174, Note_off_c, 0, 50, 65
1, 76181, Control_c, 0, 67, 73
1, 76208, Note_off_c, 0, 67, 62
1, 76211, Control_c, 0, 67, 79
1, 76225, Control_c, 0, 67, 86
1, 76240, Control_c, 0, 67, 89
1, 76255, Control_c, 0, 67, 85
1, 76264, Note_on_c, 0, 69, 84
1, 76269, Control_c, 0, 67, 79
1, 76284, Control_c, 0, 67, 74
1, 76299, Control_c, 0, 67, 77
1, 76306, Note_off_c, 0, 69, 63
1, 76315, Control_c, 0, 67, 85
1, 76330, Control_c, 0, 67, 93
1, 76345, Control_c, 0, 67, 96
1, 76359, Control_c, 0, 67, 90
1, 76374, Control_c, 0, 67, 83
1, 76381, Note_on_c, 0, 67, 77
1, 76389, Control_c, 0, 67, 81
1, 76404, Control_c, 0, 67, 89
1, 76419, Control_c, 0, 67, 96
1, 76433, Control_c, 0, 67, 103
1, 76448, Control_c, 0, 67, 101
1, 76463, Control_c, 0, 67, 94
1, 76478, Control_c, 0, 67, 85
1, 76500, Control_c, 0, 67, 81
1, 76515, Control_c, 0, 67, 90
1, 76530, Control_c, 0, 67, 97
1, 76545, Control_c, 0, 67, 104
1, 76560, Control_c, 0, 67, 100
1, 76574, Control_c, 0, 67, 91
1, 76589, Control_c, 0, 67, 82
1, 76604, Control_c, 0, 67, 87
1, 76606, Note_on_c, 0, 55, 79
1, 76619, Control_c, 0, 67, 96
1, 76634, Control_c, 0, 67, 102
1, 76639, Note_off_c, 0, 55, 65
1, 76648, Control_c, 0, 67, 100
1, 76663, Control_c, 0, 67, 90
1, 76678, Control_c, 0, 67, 79
1, 76692, Control_c, 0, 67, 74
1, 76707, Control_c, 0, 67, 85
1, 76722, Control_c, 0, 67, 92
1, 76737, Control_c, 0, 67, 89
1, 76752, Control_c, 0, 67, 80
1, 76766, Control_c, 0, 67, 70
1, 76781, Control_c, 0, 67, 67
1, 76796, Control_c, 0, 67, 75
1, 76811, Control_c, 0, 67, 77
1, 76822, Note_off_c, 0, 67, 47
1, 76826, Control_c, 0, 67, 70
1, 76840, Control_c, 0, 67, 59
1, 76855, Control_c, 0, 67, 43
1, 76862, Note_on_c, 0, 43, 70
1, 76870, Control_c, 0, 67, 34
1, 76887, Note_off_c, 0, 43, 65
1, 76899, Control_c, 0, 67, 33
1, 76914, Control_c, 0, 67, 22
1, 76929, Control_c, 0, 67, 0
1, 77133, Note_on_c, 0, 67, 86
1, 77190, Note_off_c, 0, 67, 63
1, 77406, Note_on_c, 0, 36, 76
1, 77427, Control_c, 0, 64, 45
1, 77427, Control_c, 0, 67, 25
1, 77436, Note_on_c, 0, 75, 61
1, 77442, Control_c, 0, 64, 77
1, 77451, Note_on_c, 0, 76, 77
1, 77457, Control_c, 0, 64, 78
1, 77457, Control_c, 0, 67, 23
1, 77466, Note_off_c, 0, 75, 0
1, 77466, Note_on_c, 0, 75, 25
1, 77468, Note_off_c, 0, 36, 61
1, 77472, Control_c, 0, 64, 76
1, 77487, Control_c, 0, 64, 69
1, 77487, Control_c, 0, 67, 25
1, 77501, Control_c, 0, 64, 67
1, 77501, Control_c, 0, 67, 29
1, 77516, Control_c, 0, 64, 68
1, 77520, Note_off_c, 0, 76, 60
1, 77522, Note_on_c, 0, 74, 76
1, 77531, Control_c, 0, 64, 68
1, 77561, Control_c, 0, 67, 31
1, 77576, Control_c, 0, 67, 37
1, 77583, Note_off_c, 0, 75, 30
1, 77590, Control_c, 0, 67, 50
1, 77605, Control_c, 0, 64, 69
1, 77605, Control_c, 0, 67, 57
1, 77620, Control_c, 0, 64, 66
1, 77627, Note_on_c, 0, 48, 76
1, 77632, Note_on_c, 0, 72, 77
1, 77635, Control_c, 0, 64, 54
1, 77635, Control_c, 0, 67, 56
1, 77649, Control_c, 0, 64, 0
1, 77649, Control_c, 0, 67, 56
1, 77655, Note_off_c, 0, 74, 63
1, 77663, Note_off_c, 0, 48, 64
1, 77664, Control_c, 0, 67, 61
1, 77679, Control_c, 0, 67, 68
1, 77694, Control_c, 0, 67, 73
1, 77709, Control_c, 0, 67, 72
1, 77719, Note_on_c, 0, 70, 87
1, 77721, Note_off_c, 0, 72, 63
1, 77723, Control_c, 0, 67, 70
1, 77738, Control_c, 0, 67, 71
1, 77753, Control_c, 0, 67, 75
1, 77768, Control_c, 0, 67, 80
1, 77783, Control_c, 0, 67, 82
1, 77797, Control_c, 0, 67, 78
1, 77803, Note_off_c, 0, 70, 66
1, 77812, Note_on_c, 0, 36, 66
1, 77812, Control_c, 0, 67, 76
1, 77813, Note_on_c, 0, 68, 90
1, 77826, Control_c, 0, 67, 77
1, 77841, Control_c, 0, 67, 83
1, 77849, Note_off_c, 0, 36, 64
1, 77856, Control_c, 0, 67, 90
1, 77871, Control_c, 0, 67, 93
1, 77886, Control_c, 0, 64, 42
1, 77886, Control_c, 0, 67, 91
1, 77901, Control_c, 0, 64, 0
1, 77901, Control_c, 0, 67, 89
1, 77931, Control_c, 0, 67, 94
1, 77946, Control_c, 0, 67, 99
1, 77961, Control_c, 0, 67, 101
1, 77975, Control_c, 0, 67, 95
1, 77998, Control_c, 0, 64, 57
1, 77998, Control_c, 0, 67, 91
1, 78013, Control_c, 0, 64, 60
1, 78013, Control_c, 0, 67, 90
1, 78027, Control_c, 0, 64, 60
1, 78027, Control_c, 0, 67, 96
1, 78033, Note_on_c, 0, 66, 79
1, 78038, Note_on_c, 0, 48, 75
1, 78042, Control_c, 0, 64, 60
1, 78042, Control_c, 0, 67, 101
1, 78057, Control_c, 0, 64, 63
1, 78068, Note_off_c, 0, 48, 67
1, 78069, Note_off_c, 0, 68, 30
1, 78071, Control_c, 0, 64, 65
1, 78071, Control_c, 0, 67, 99
1, 78086, Control_c, 0, 64, 66
1, 78086, Control_c, 0, 67, 93
1, 78101, Control_c, 0, 64, 67
1, 78101, Control_c, 0, 67, 89
1, 78116, Control_c, 0, 64, 67
1, 78116, Control_c, 0, 67, 91
1, 78131, Control_c, 0, 64, 68
1, 78131, Control_c, 0, 67, 95
1, 78145, Control_c, 0, 64, 68
1, 78160, Control_c, 0, 64, 69
1, 78160, Control_c, 0, 67, 93
1, 78175, Control_c, 0, 67, 89
1, 78190, Control_c, 0, 64, 70
1, 78190, Control_c, 0, 67, 88
1, 78205, Control_c, 0, 64, 75
1, 78205, Control_c, 0, 67, 92
1, 78219, Note_off_c, 0, 66, 55
1, 78220, Control_c, 0, 64, 84
1, 78220, Control_c, 0, 67, 97
1, 78235, Control_c, 0, 64, 97
1, 78250, Control_c, 0, 64, 106
1, 78262, Note_on_c, 0, 36, 69
1, 78264, Control_c, 0, 64, 90
1, 78264, Control_c, 0, 67, 94
1, 78279, Control_c, 0, 64, 64
1, 78279, Control_c, 0, 67, 93
1, 78285, Note_on_c, 0, 65, 83
1, 78294, Control_c, 0, 64, 0
1, 78294, Control_c, 0, 67, 95
1, 78309, Control_c, 0, 67, 98
1, 78334, Note_off_c, 0, 65, 63
1, 78347, Note_off_c, 0, 36, 41
1, 78373, Note_on_c, 0, 67, 79
1, 78436, Note_off_c, 0, 67, 62
1, 78442, Control_c, 0, 67, 96
1, 78471, Control_c, 0, 67, 99
1, 78474, Note_on_c, 0, 69, 61
1, 78482, Note_on_c, 0, 48, 65
1, 78515, Note_off_c, 0, 48, 65
1, 78560, Control_c, 0, 67, 103
1, 78575, Control_c, 0, 67, 107
1, 78604, Control_c, 0, 67, 105
1, 78679, Control_c, 0, 67, 99
1, 78679, Note_on_c, 0, 36, 67
1, 78694, Control_c, 0, 67, 92
1, 78694, Note_off_c, 0, 69, 62
1, 78709, Control_c, 0, 64, 45
1, 78709, Control_c, 0, 67, 83
1, 78718, Note_off_c, 0, 36, 65
1, 78724, Control_c, 0, 64, 60
1, 78724, Control_c, 0, 67, 77
1, 78747, Control_c, 0, 64, 63
1, 78762, Control_c, 0, 67, 75
1, 78776, Control_c, 0, 67, 67
1, 78791, Control_c, 0, 67, 49
1, 78806, Control_c, 0, 67, 27
1, 78821, Control_c, 0, 64, 63
1, 78821, Control_c, 0, 67, 0
1, 78836, Control_c, 0, 64, 60
1, 78850, Control_c, 0, 64, 44
1, 78865, Control_c, 0, 64, 0
1, 78897, Note_on_c, 0, 48, 71
1, 78898, Note_on_c, 0, 60, 83
1, 78928, Note_off_c, 0, 48, 70
1, 78950, Note_off_c, 0, 60, 64
1, 79101, Note_on_c, 0, 68, 84
1, 79102, Note_on_c, 0, 36, 69
1, 79144, Note_off_c, 0, 36, 63
1, 79176, Control_c, 0, 67, 19
1, 79186, Note_on_c, 0, 67, 78
1, 79220, Control_c, 0, 67, 0
1, 79235, Control_c, 0, 67, 20
1, 79250, Control_c, 0, 67, 23
1, 79265, Control_c, 0, 67, 30
1, 79266, Note_off_c, 0, 68, 43
1, 79280, Control_c, 0, 67, 32
1, 79284, Note_on_c, 0, 65, 77
1, 79294, Control_c, 0, 67, 32
1, 79296, Note_on_c, 0, 48, 71
1, 79306, Note_off_c, 0, 67, 65
1, 79331, Note_off_c, 0, 48, 66
1, 79340, Control_c, 0, 67, 33
1, 79355, Control_c, 0, 67, 36
1, 79369, Control_c, 0, 67, 40
1, 79377, Note_on_c, 0, 63, 80
1, 79380, Note_off_c, 0, 65, 65
1, 79384, Control_c, 0, 67, 40
1, 79399, Control_c, 0, 67, 38
1, 79413, Control_c, 0, 67, 37
1, 79428, Control_c, 0, 67, 39
1, 79443, Control_c, 0, 67, 43
1, 79458, Control_c, 0, 67, 48
1, 79469, Note_off_c, 0, 63, 63
1, 79473, Control_c, 0, 67, 48
1, 79475, Note_on_c, 0, 61, 87
1, 79494, Note_on_c, 0, 36, 66
1, 79495, Control_c, 0, 67, 46
1, 79510, Control_c, 0, 67, 45
1, 79526, Control_c, 0, 64, 58
1, 79526, Control_c, 0, 67, 45
1, 79530, Note_off_c, 0, 36, 64
1, 79540, Control_c, 0, 64, 61
1, 79540, Control_c, 0, 67, 51
1, 79555, Control_c, 0, 64, 55
1, 79555, Control_c, 0, 67, 58
1, 79570, Control_c, 0, 64, 41
1, 79570, Control_c, 0, 67, 63
1, 79585, Control_c, 0, 64, 34
1, 79585, Control_c, 0, 67, 61
1, 79600, Control_c, 0, 64, 50
1, 79600, Control_c, 0, 67, 58
1, 79615, Control_c, 0, 64, 62
1, 79630, Control_c, 0, 64, 68
1, 79630, Control_c, 0, 67, 62
1, 79644, Control_c, 0, 64, 69
1, 79644, Control_c, 0, 67, 70
1, 79659, Control_c, 0, 67, 82
1, 79673, Note_off_c, 0, 61, 54
1, 79674, Control_c, 0, 64, 67
1, 79674, Control_c, 0, 67, 84
1, 79689, Control_c, 0, 64, 67
1, 79689, Control_c, 0, 67, 81
1, 79691, Note_on_c, 0, 59, 81
1, 79703, Note_on_c, 0, 48, 72
1, 79704, Control_c, 0, 64, 66
1, 79704, Control_c, 0, 67, 80
1, 79718, Control_c, 0, 64, 62
1, 79718, Control_c, 0, 67, 80
1, 79731, Note_off_c, 0, 48, 65
1, 79733, Control_c, 0, 64, 46
1, 79733, Control_c, 0, 67, 85
1, 79746, Note_off_c, 0, 59, 64
1, 79748, Control_c, 0, 64, 0
1, 79748, Control_c, 0, 67, 97
1, 79763, Control_c, 0, 67, 109
1, 79792, Control_c, 0, 64, 55
1, 79792, Control_c, 0, 67, 107
1, 79807, Control_c, 0, 64, 60
1, 79807, Control_c, 0, 67, 105
1, 79822, Control_c, 0, 64, 55
1, 79827, Poly_aftertouch_c, 0, 63, 127
1, 79836, Control_c, 0, 64, 42
1, 79836, Control_c, 0, 67, 111
1, 79851, Control_c, 0, 64, 0
1, 79851, Control_c, 0, 67, 118
1, 79866, Control_c, 0, 67, 121
1, 79881, Control_c, 0, 64, 40
1, 79881, Control_c, 0, 67, 119
1, 79896, Control_c, 0, 64, 55
1, 79896, Control_c, 0, 67, 117
1, 79898, Note_on_c, 0, 36, 68
1, 79906, Note_on_c, 0, 58, 75
1, 79910, Control_c, 0, 64, 50
1, 79912, Poly_aftertouch_c, 0, 63, 0
1, 79925, Control_c, 0, 64, 0
1, 79925, Control_c, 0, 67, 120
1, 79940, Control_c, 0, 67, 127
1, 79942, Note_off_c, 0, 36, 61
1, 79954, Note_off_c, 0, 58, 62
1, 79994, Note_on_c, 0, 60, 75
1, 80065, Note_off_c, 0, 60, 64
1, 80080, Note_on_c, 0, 62, 72
1, 80089, Note_on_c, 0, 48, 62
1, 80118, Note_off_c, 0, 48, 64
1, 80289, Control_c, 0, 64, 41
1, 80292, Note_on_c, 0, 35, 65
1, 80304, Note_off_c, 0, 62, 62
1, 80304, Control_c, 0, 64, 53
1, 80319, Control_c, 0, 64, 47
1, 80327, Note_off_c, 0, 35, 63
1, 80334, Control_c, 0, 64, 0
1, 80408, Control_c, 0, 64, 38
1, 80423, Control_c, 0, 64, 0
1, 80497, Note_on_c, 0, 47, 55
1, 80509, Note_on_c, 0, 53, 64
1, 80529, Note_off_c, 0, 47, 65
1, 80553, Note_off_c, 0, 53, 59
1, 80716, Note_on_c, 0, 34, 59
1, 80726, Note_on_c, 0, 61, 65
1, 80751, Note_off_c, 0, 34, 64
1, 80811, Note_on_c, 0, 60, 66
1, 80906, Note_on_c, 0, 46, 62
1, 80909, Note_off_c, 0, 61, 35
1, 80917, Note_on_c, 0, 58, 73
1, 80921, Note_off_c, 0, 60, 64
1, 80941, Note_off_c, 0, 46, 64
1, 81016, Note_off_c, 0, 58, 63
1, 81017, Note_on_c, 0, 56, 74
1, 81099, Note_off_c, 0, 56, 62
1, 81099, Note_on_c, 0, 34, 66
1, 81116, Note_on_c, 0, 54, 72
1, 81134, Note_off_c, 0, 34, 64
1, 81245, Control_c, 0, 64, 38
1, 81260, Control_c, 0, 64, 0
1, 81293, Note_off_c, 0, 54, 57
1, 81312, Note_on_c, 0, 52, 73
1, 81316, Note_on_c, 0, 46, 67
1, 81335, Control_c, 0, 64, 53
1, 81344, Note_off_c, 0, 46, 65
1, 81350, Control_c, 0, 64, 53
1, 81359, Note_off_c, 0, 52, 60
1, 81364, Control_c, 0, 64, 0
1, 81519, Note_on_c, 0, 33, 75
1, 81521, Note_on_c, 0, 51, 69
1, 81556, Note_off_c, 0, 51, 66
1, 81557, Note_off_c, 0, 33, 63
1, 81600, Note_on_c, 0, 53, 72
1, 81677, Note_off_c, 0, 53, 63
1, 81699, Note_on_c, 0, 55, 81
1, 81702, Note_on_c, 0, 45, 78
1, 81740, Note_off_c, 0, 45, 68
1, 81904, Control_c, 0, 67, 107
1, 81910, Note_on_c, 0, 29, 86
1, 81946, Note_off_c, 0, 29, 64
1, 81949, Control_c, 0, 67, 103
1, 81964, Control_c, 0, 67, 93
1, 81979, Control_c, 0, 67, 66
1, 81994, Control_c, 0, 67, 34
1, 82009, Control_c, 0, 67, 28
1, 82053, Control_c, 0, 67, 21
1, 82068, Control_c, 0, 67, 0
1, 82110, Note_on_c, 0, 41, 81
1, 82119, Note_on_c, 0, 57, 86
1, 82138, Note_off_c, 0, 55, 63
1, 82144, Note_off_c, 0, 41, 66
1, 82161, Note_off_c, 0, 57, 64
1, 82319, Note_on_c, 0, 51, 89
1, 82546, Note_on_c, 0, 43, 90
1, 82550, Control_c, 0, 64, 65
1, 82564, Control_c, 0, 64, 88
1, 82579, Control_c, 0, 64, 90
1, 82588, Note_off_c, 0, 43, 65
1, 82594, Control_c, 0, 64, 89
1, 82596, Note_off_c, 0, 51, 64
1, 82609, Control_c, 0, 64, 85
1, 82743, Control_c, 0, 64, 84
1, 82754, Note_on_c, 0, 50, 93
1, 82758, Control_c, 0, 64, 71
1, 82773, Control_c, 0, 64, 48
1, 82788, Control_c, 0, 64, 0
1, 82793, Note_on_c, 0, 51, 77
1, 82802, Note_off_c, 0, 50, 62
1, 82869, Note_on_c, 0, 50, 80
1, 82884, Note_off_c, 0, 51, 64
1, 82940, Note_off_c, 0, 50, 62
1, 82944, Note_on_c, 0, 31, 82
1, 82945, Note_on_c, 0, 48, 92
1, 82977, Note_off_c, 0, 31, 66
1, 82988, Note_off_c, 0, 48, 67
1, 83037, Note_on_c, 0, 50, 94
1, 83076, Note_off_c, 0, 50, 65
1, 83143, Note_on_c, 0, 48, 91
1, 83374, Note_on_c, 0, 36, 89
1, 83420, Note_off_c, 0, 36, 62
1, 83615, Note_on_c, 0, 24, 90
1, 83640, Control_c, 0, 64, 61
1, 83640, Control_c, 0, 67, 23
1, 83654, Note_off_c, 0, 24, 62
1, 83655, Control_c, 0, 64, 75
1, 83655, Control_c, 0, 67, 0
1, 83670, Control_c, 0, 64, 66
1, 83675, Note_off_c, 0, 48, 65
1, 83684, Control_c, 0, 64, 0
1, 83684, Control_c, 0, 67, 21
1, 83699, Control_c, 0, 67, 27
1, 83714, Control_c, 0, 67, 36
1, 83729, Control_c, 0, 67, 38
1, 83744, Control_c, 0, 64, 51
1, 83744, Control_c, 0, 67, 37
1, 83758, Control_c, 0, 67, 36
1, 83773, Control_c, 0, 64, 0
1, 83773, Control_c, 0, 67, 35
1, 83803, Control_c, 0, 67, 36
1, 83833, Control_c, 0, 67, 36
1, 83848, Control_c, 0, 67, 35
1, 83851, Note_on_c, 0, 43, 80
1, 83863, Control_c, 0, 67, 36
1, 83877, Control_c, 0, 67, 37
1, 83892, Control_c, 0, 67, 38
1, 83904, Note_off_c, 0, 43, 64
1, 83907, Control_c, 0, 67, 38
1, 83937, Control_c, 0, 67, 38
1, 83951, Control_c, 0, 67, 37
1, 83966, Control_c, 0, 67, 38
1, 83988, Control_c, 0, 67, 39
1, 84003, Control_c, 0, 67, 39
1, 84033, Control_c, 0, 67, 39
1, 84048, Control_c, 0, 67, 38
1, 84062, Control_c, 0, 67, 37
1, 84075, Note_on_c, 0, 48, 67
1, 84092, Control_c, 0, 67, 39
1, 84151, Control_c, 0, 67, 38
1, 84153, Note_on_c, 0, 50, 76
1, 84168, Note_off_c, 0, 48, 63
1, 84181, Control_c, 0, 67, 38
1, 84196, Control_c, 0, 67, 39
1, 84210, Control_c, 0, 67, 39
1, 84230, Note_off_c, 0, 50, 62
1, 84247, Note_on_c, 0, 72, 84
1, 84252, Note_on_c, 0, 70, 79
1, 84256, Note_on_c, 0, 52, 79
1, 84293, Note_off_c, 0, 72, 62
1, 84294, Note_off_c, 0, 70, 61
1, 84345, Note_on_c, 0, 54, 76
1, 84353, Note_off_c, 0, 52, 62
1, 84430, Note_on_c, 0, 55, 80
1, 84453, Note_off_c, 0, 54, 60
1, 84463, Control_c, 0, 67, 39
1, 84478, Control_c, 0, 67, 38
1, 84493, Control_c, 0, 67, 38
1, 84504, Note_off_c, 0, 55, 63
1, 84516, Note_on_c, 0, 52, 85
1, 84552, Control_c, 0, 67, 37
1, 84568, Control_c, 0, 67, 36
1, 84582, Control_c, 0, 67, 35
1, 84598, Note_on_c, 0, 72, 78
1, 84602, Note_on_c, 0, 69, 75
1, 84605, Note_on_c, 0, 54, 86
1, 84612, Control_c, 0, 67, 36
1, 84623, Note_off_c, 0, 52, 63
1, 84626, Control_c, 0, 67, 38
1, 84629, Note_off_c, 0, 69, 64
1, 84641, Note_off_c, 0, 72, 60
1, 84641, Control_c, 0, 67, 38
1, 84656, Control_c, 0, 67, 37
1, 84659, Note_off_c, 0, 54, 64
1, 84671, Control_c, 0, 67, 36
1, 84682, Note_on_c, 0, 57, 91
1, 84686, Control_c, 0, 67, 35
1, 84700, Control_c, 0, 67, 36
1, 84715, Control_c, 0, 67, 39
1, 84738, Control_c, 0, 67, 40
1, 84753, Control_c, 0, 67, 37
1, 84763, Note_off_c, 0, 57, 60
1, 84767, Control_c, 0, 67, 34
1, 84782, Control_c, 0, 67, 33
1, 84789, Note_on_c, 0, 51, 93
1, 84797, Control_c, 0, 67, 34
1, 84812, Control_c, 0, 67, 38
1, 84827, Control_c, 0, 67, 43
1, 84841, Control_c, 0, 67, 45
1, 84856, Control_c, 0, 67, 43
1, 84886, Control_c, 0, 67, 45
1, 84900, Control_c, 0, 67, 49
1, 84915, Control_c, 0, 67, 59
1, 84930, Control_c, 0, 67, 69
1, 84945, Control_c, 0, 67, 68
1, 84960, Control_c, 0, 67, 66
1, 84990, Control_c, 0, 67, 69
1, 85004, Control_c, 0, 67, 72
1, 85010, Note_on_c, 0, 67, 76
1, 85012, Note_on_c, 0, 72, 71
1, 85014, Note_on_c, 0, 70, 71
1, 85019, Control_c, 0, 64, 58
1, 85019, Control_c, 0, 67, 71
1, 85034, Control_c, 0, 64, 54
1, 85034, Control_c, 0, 67, 67
1, 85036, Note_off_c, 0, 67, 66
1, 85043, Note_off_c, 0, 70, 66
1, 85048, Note_off_c, 0, 72, 63
1, 85049, Control_c, 0, 64, 40
1, 85049, Control_c, 0, 67, 65
1, 85064, Control_c, 0, 64, 0
1, 85079, Control_c, 0, 64, 38
1, 85079, Control_c, 0, 67, 67
1, 85094, Control_c, 0, 64, 57
1, 85094, Control_c, 0, 67, 70
1, 85109, Control_c, 0, 64, 67
1, 85124, Control_c, 0, 64, 69
1, 85124, Control_c, 0, 67, 66
1, 85139, Control_c, 0, 67, 63
1, 85153, Control_c, 0, 67, 61
1, 85158, Note_off_c, 0, 51, 59
1, 85168, Control_c, 0, 64, 73
1, 85168, Control_c, 0, 67, 59
1, 85183, Control_c, 0, 64, 87
1, 85183, Control_c, 0, 67, 57
1, 85198, Control_c, 0, 64, 127
1, 85198, Control_c, 0, 67, 54
1, 85204, Note_on_c, 0, 50, 79
1, 85213, Control_c, 0, 67, 47
1, 85228, Control_c, 0, 64, 85
1, 85228, Control_c, 0, 67, 34
1, 85243, Control_c, 0, 64, 50
1, 85243, Control_c, 0, 67, 25
1, 85257, Control_c, 0, 64, 0
1, 85264, Note_off_c, 0, 50, 52
1, 85266, Note_on_c, 0, 51, 89
1, 85272, Control_c, 0, 67, 31
1, 85287, Control_c, 0, 67, 35
1, 85302, Control_c, 0, 64, 34
1, 85315, Control_c, 0, 64, 38
1, 85315, Control_c, 0, 67, 31
1, 85329, Control_c, 0, 64, 0
1, 85329, Control_c, 0, 67, 28
1, 85338, Note_off_c, 0, 51, 56
1, 85347, Note_on_c, 0, 50, 86
1, 85374, Note_on_c, 0, 72, 74
1, 85374, Control_c, 0, 67, 34
1, 85380, Note_on_c, 0, 69, 68
1, 85389, Control_c, 0, 67, 35
1, 85389, Note_on_c, 0, 66, 71
1, 85395, Note_off_c, 0, 50, 63
1, 85399, Note_on_c, 0, 43, 78
1, 85403, Note_off_c, 0, 69, 69
1, 85404, Control_c, 0, 67, 32
1, 85413, Note_off_c, 0, 66, 69
1, 85416, Note_off_c, 0, 72, 62
1, 85419, Control_c, 0, 67, 27
1, 85434, Control_c, 0, 67, 24
1, 85475, Note_off_c, 0, 43, 63
1, 85476, Note_on_c, 0, 50, 83
1, 85485, Control_c, 0, 67, 27
1, 85500, Control_c, 0, 67, 24
1, 85515, Control_c, 0, 67, 0
1, 85572, Note_off_c, 0, 50, 62
1, 85575, Note_on_c, 0, 48, 89
1, 85767, Control_c, 0, 67, 22
1, 85790, Note_on_c, 0, 70, 79
1, 85791, Note_on_c, 0, 66, 84
1, 85791, Note_on_c, 0, 75, 82
1, 85796, Control_c, 0, 67, 0
1, 85822, Note_off_c, 0, 66, 63
1, 85823, Note_off_c, 0, 70, 66
1, 85855, Control_c, 0, 67, 23
1, 85856, Note_off_c, 0, 75, 61
1, 85870, Control_c, 0, 67, 25
1, 85901, Control_c, 0, 67, 21
1, 85916, Control_c, 0, 67, 19
1, 85960, Control_c, 0, 67, 28
1, 85975, Control_c, 0, 67, 30
1, 85990, Control_c, 0, 67, 28
1, 86004, Control_c, 0, 67, 25
1, 86013, Note_off_c, 0, 48, 60
1, 86019, Control_c, 0, 67, 23
1, 86030, Note_on_c, 0, 64, 80
1, 86033, Note_on_c, 0, 72, 82
1, 86036, Note_on_c, 0, 67, 76
1, 86049, Control_c, 0, 67, 28
1, 86058, Note_off_c, 0, 64, 65
1, 86061, Note_off_c, 0, 67, 67
1, 86064, Control_c, 0, 64, 52
1, 86064, Control_c, 0, 67, 36
1, 86074, Note_off_c, 0, 72, 65
1, 86078, Control_c, 0, 64, 59
1, 86078, Control_c, 0, 67, 43
1, 86093, Control_c, 0, 64, 51
1, 86093, Control_c, 0, 67, 42
1, 86108, Control_c, 0, 64, 0
1, 86108, Control_c, 0, 67, 38
1, 86123, Control_c, 0, 67, 36
1, 86152, Control_c, 0, 67, 42
1, 86167, Control_c, 0, 64, 46
1, 86167, Control_c, 0, 67, 47
1, 86182, Control_c, 0, 64, 58
1, 86182, Control_c, 0, 67, 51
1, 86197, Control_c, 0, 64, 55
1, 86197, Control_c, 0, 67, 50
1, 86212, Control_c, 0, 64, 0
1, 86212, Control_c, 0, 67, 47
1, 86234, Control_c, 0, 67, 45
1, 86251, Note_on_c, 0, 48, 80
1, 86264, Control_c, 0, 67, 53
1, 86278, Control_c, 0, 67, 61
1, 86293, Control_c, 0, 64, 46
1, 86293, Control_c, 0, 67, 69
1, 86300, Note_off_c, 0, 48, 64
1, 86308, Control_c, 0, 64, 50
1, 86323, Control_c, 0, 64, 39
1, 86323, Control_c, 0, 67, 64
1, 86337, Control_c, 0, 64, 0
1, 86337, Control_c, 0, 67, 60
1, 86352, Control_c, 0, 67, 57
1, 86367, Control_c, 0, 67, 61
1, 86382, Control_c, 0, 67, 68
1, 86397, Control_c, 0, 64, 40
1, 86397, Control_c, 0, 67, 69
1, 86411, Control_c, 0, 64, 49
1, 86411, Control_c, 0, 67, 69
1, 86426, Control_c, 0, 64, 45
1, 86426, Control_c, 0, 67, 65
1, 86441, Control_c, 0, 64, 0
1, 86441, Control_c, 0, 67, 60
1, 86456, Control_c, 0, 67, 57
1, 86465, Note_on_c, 0, 55, 83
1, 86471, Control_c, 0, 67, 64
1, 86486, Control_c, 0, 67, 72
1, 86501, Control_c, 0, 67, 77
1, 86516, Control_c, 0, 67, 76
1, 86530, Control_c, 0, 67, 72
1, 86545, Control_c, 0, 67, 66
1, 86555, Note_on_c, 0, 57, 84
1, 86560, Control_c, 0, 67, 60
1, 86560, Note_off_c, 0, 55, 64
1, 86575, Control_c, 0, 67, 64
1, 86590, Control_c, 0, 67, 73
1, 86604, Control_c, 0, 67, 79
1, 86634, Control_c, 0, 67, 75
1, 86635, Note_off_c, 0, 57, 64
1, 86642, Note_on_c, 0, 79, 86
1, 86645, Note_on_c, 0, 77, 78
1, 86646, Note_on_c, 0, 59, 78
1, 86649, Control_c, 0, 67, 68
1, 86664, Control_c, 0, 67, 61
1, 86678, Control_c, 0, 67, 64
1, 86689, Note_off_c, 0, 79, 64
1, 86692, Note_off_c, 0, 77, 63
1, 86694, Control_c, 0, 67, 74
1, 86709, Control_c, 0, 67, 82
1, 86724, Control_c, 0, 67, 82
1, 86735, Note_on_c, 0, 61, 80
1, 86739, Note_off_c, 0, 59, 64
1, 86739, Control_c, 0, 67, 80
1, 86754, Control_c, 0, 67, 73
1, 86768, Control_c, 0, 67, 67
1, 86783, Control_c, 0, 67, 70
1, 86798, Control_c, 0, 67, 79
1, 86814, Control_c, 0, 67, 84
1, 86825, Note_on_c, 0, 62, 79
1, 86828, Control_c, 0, 67, 85
1, 86832, Note_off_c, 0, 61, 61
1, 86843, Control_c, 0, 67, 81
1, 86858, Control_c, 0, 67, 74
1, 86873, Control_c, 0, 67, 65
1, 86881, Note_off_c, 0, 62, 64
1, 86888, Control_c, 0, 67, 66
1, 86902, Control_c, 0, 67, 75
1, 86904, Note_on_c, 0, 59, 83
1, 86917, Control_c, 0, 67, 77
1, 86932, Control_c, 0, 67, 74
1, 86946, Control_c, 0, 67, 68
1, 86961, Control_c, 0, 67, 57
1, 86984, Control_c, 0, 67, 35
1, 86997, Note_on_c, 0, 79, 82
1, 86999, Note_on_c, 0, 61, 85
1, 86999, Control_c, 0, 67, 32
1, 86999, Note_on_c, 0, 76, 81
1, 87014, Control_c, 0, 67, 42
1, 87016, Note_off_c, 0, 59, 63
1, 87028, Control_c, 0, 67, 45
1, 87040, Note_off_c, 0, 76, 65
1, 87043, Control_c, 0, 64, 35
1, 87043, Control_c, 0, 67, 43
1, 87048, Note_off_c, 0, 79, 64
1, 87055, Note_off_c, 0, 61, 62
1, 87058, Control_c, 0, 64, 0
1, 87058, Control_c, 0, 67, 36
1, 87073, Control_c, 0, 67, 26
1, 87076, Note_on_c, 0, 64, 88
1, 87088, Control_c, 0, 67, 0
1, 87117, Control_c, 0, 67, 21
1, 87147, Control_c, 0, 67, 0
1, 87157, Note_off_c, 0, 64, 51
1, 87175, Note_on_c, 0, 58, 96
1, 87309, Control_c, 0, 67, 20
1, 87324, Control_c, 0, 67, 0
1, 87398, Control_c, 0, 64, 60
1, 87407, Note_on_c, 0, 79, 75
1, 87408, Note_on_c, 0, 74, 73
1, 87408, Note_on_c, 0, 77, 72
1, 87413, Control_c, 0, 64, 64
1, 87428, Control_c, 0, 64, 60
1, 87431, Note_off_c, 0, 74, 69
1, 87434, Note_off_c, 0, 79, 67
1, 87439, Note_off_c, 0, 77, 66
1, 87443, Control_c, 0, 64, 56
1, 87458, Control_c, 0, 64, 55
1, 87472, Control_c, 0, 64, 60
1, 87487, Control_c, 0, 64, 65
1, 87503, Control_c, 0, 64, 68
1, 87518, Control_c, 0, 64, 69
1, 87538, Note_off_c, 0, 58, 59
1, 87547, Control_c, 0, 64, 71
1, 87562, Control_c, 0, 64, 79
1, 87577, Control_c, 0, 64, 96
1, 87578, Note_on_c, 0, 57, 80
1, 87592, Control_c, 0, 64, 98
1, 87607, Control_c, 0, 64, 74
1, 87607, Control_c, 0, 67, 20
1, 87622, Control_c, 0, 64, 40
1, 87622, Control_c, 0, 67, 0
1, 87626, Note_off_c, 0, 57, 65
1, 87637, Control_c, 0, 64, 0
1, 87645, Note_on_c, 0, 58, 89
1, 87681, Control_c, 0, 67, 28
1, 87695, Control_c, 0, 67, 41
1, 87702, Note_off_c, 0, 58, 64
1, 87710, Control_c, 0, 67, 45
1, 87731, Note_on_c, 0, 57, 82
1, 87732, Control_c, 0, 67, 39
1, 87747, Control_c, 0, 67, 31
1, 87762, Control_c, 0, 67, 24
1, 87775, Note_on_c, 0, 79, 87
1, 87776, Note_off_c, 0, 57, 65
1, 87777, Control_c, 0, 67, 33
1, 87779, Note_on_c, 0, 50, 76
1, 87783, Note_on_c, 0, 73, 83
1, 87787, Note_on_c, 0, 76, 56
1, 87792, Control_c, 0, 67, 45
1, 87805, Note_off_c, 0, 73, 70
1, 87806, Control_c, 0, 67, 54
1, 87808, Note_off_c, 0, 76, 61
1, 87816, Note_off_c, 0, 79, 65
1, 87821, Control_c, 0, 67, 54
1, 87836, Control_c, 0, 67, 47
1, 87851, Control_c, 0, 67, 41
1, 87856, Note_on_c, 0, 57, 89
1, 87861, Note_off_c, 0, 50, 57
1, 87866, Control_c, 0, 67, 41
1, 87881, Control_c, 0, 67, 50
1, 87896, Control_c, 0, 67, 59
1, 87910, Control_c, 0, 67, 61
1, 87925, Control_c, 0, 67, 57
1, 87937, Note_off_c, 0, 57, 59
1, 87940, Control_c, 0, 67, 49
1, 87955, Control_c, 0, 67, 43
1, 87962, Note_on_c, 0, 55, 94
1, 87970, Control_c, 0, 67, 50
1, 87984, Control_c, 0, 67, 60
1, 87999, Control_c, 0, 67, 68
1, 88014, Control_c, 0, 67, 70
1, 88029, Control_c, 0, 67, 66
1, 88044, Control_c, 0, 67, 61
1, 88058, Control_c, 0, 67, 63
1, 88073, Control_c, 0, 67, 75
1, 88088, Control_c, 0, 67, 90
1, 88102, Control_c, 0, 67, 100
1, 88132, Control_c, 0, 67, 93
1, 88147, Control_c, 0, 67, 89
1, 88162, Control_c, 0, 67, 95
1, 88176, Note_on_c, 0, 82, 89
1, 88176, Control_c, 0, 67, 105
1, 88179, Note_on_c, 0, 73, 86
1, 88182, Note_on_c, 0, 77, 74
1, 88191, Control_c, 0, 67, 113
1, 88208, Note_off_c, 0, 73, 62
1, 88208, Note_off_c, 0, 77, 68
1, 88221, Control_c, 0, 67, 108
1, 88227, Note_off_c, 0, 82, 61
1, 88236, Control_c, 0, 67, 101
1, 88251, Control_c, 0, 67, 98
1, 88266, Control_c, 0, 67, 106
1, 88280, Control_c, 0, 67, 114
1, 88296, Control_c, 0, 67, 117
1, 88325, Control_c, 0, 67, 111
1, 88340, Control_c, 0, 67, 104
1, 88355, Control_c, 0, 67, 101
1, 88370, Control_c, 0, 67, 106
1, 88385, Control_c, 0, 67, 112
1, 88421, Note_on_c, 0, 79, 90
1, 88429, Note_off_c, 0, 55, 61
1, 88429, Control_c, 0, 67, 107
1, 88432, Note_on_c, 0, 74, 73
1, 88444, Control_c, 0, 67, 101
1, 88453, Note_off_c, 0, 79, 67
1, 88456, Note_off_c, 0, 74, 69
1, 88459, Control_c, 0, 67, 99
1, 88480, Control_c, 0, 67, 108
1, 88495, Control_c, 0, 67, 118
1, 88510, Control_c, 0, 67, 124
1, 88540, Control_c, 0, 67, 118
1, 88555, Control_c, 0, 67, 113
1, 88584, Control_c, 0, 67, 121
1, 88599, Control_c, 0, 67, 127
1, 88629, Control_c, 0, 67, 124
1, 88644, Control_c, 0, 67, 120
1, 88644, Note_on_c, 0, 55, 80
1, 88659, Control_c, 0, 67, 118
1, 88673, Control_c, 0, 67, 122
1, 88680, Note_off_c, 0, 55, 64
1, 88688, Control_c, 0, 67, 127
1, 88747, Control_c, 0, 67, 123
1, 88762, Control_c, 0, 67, 121
1, 88777, Control_c, 0, 67, 125
1, 88792, Control_c, 0, 67, 127
1, 88862, Note_on_c, 0, 63, 57
1, 88866, Control_c, 0, 67, 124
1, 88880, Control_c, 0, 67, 127
1, 88953, Note_off_c, 0, 63, 62
1, 88954, Note_on_c, 0, 62, 68
1, 88954, Control_c, 0, 67, 121
1, 88969, Control_c, 0, 67, 113
1, 88984, Control_c, 0, 67, 116
1, 88999, Control_c, 0, 67, 124
1, 89014, Control_c, 0, 67, 126
1, 89029, Control_c, 0, 67, 124
1, 89043, Control_c, 0, 67, 121
1, 89044, Note_off_c, 0, 62, 61
1, 89046, Note_on_c, 0, 60, 65
1, 89049, Note_on_c, 0, 77, 66
1, 89055, Note_on_c, 0, 76, 67
1, 89058, Control_c, 0, 67, 114
1, 89073, Control_c, 0, 67, 109
1, 89087, Note_off_c, 0, 76, 62
1, 89087, Note_off_c, 0, 77, 60
1, 89088, Control_c, 0, 67, 114
1, 89103, Control_c, 0, 67, 123
1, 89127, Note_on_c, 0, 58, 70
1, 89129, Note_off_c, 0, 60, 65
1, 89148, Control_c, 0, 67, 120
1, 89163, Control_c, 0, 67, 113
1, 89178, Control_c, 0, 67, 110
1, 89193, Control_c, 0, 67, 115
1, 89207, Control_c, 0, 67, 125
1, 89229, Control_c, 0, 67, 127
1, 89230, Note_on_c, 0, 56, 76
1, 89232, Note_off_c, 0, 58, 62
1, 89234, Note_on_c, 0, 71, 72
1, 89234, Note_on_c, 0, 72, 70
1, 89258, Note_off_c, 0, 72, 67
1, 89259, Control_c, 0, 67, 122
1, 89273, Note_off_c, 0, 71, 60
1, 89274, Control_c, 0, 67, 117
1, 89303, Control_c, 0, 67, 123
1, 89318, Control_c, 0, 67, 127
1, 89377, Control_c, 0, 67, 125
1, 89407, Control_c, 0, 67, 127
1, 89432, Note_on_c, 0, 54, 77
1, 89437, Note_on_c, 0, 76, 73
1, 89437, Note_on_c, 0, 77, 68
1, 89437, Note_off_c, 0, 56, 62
1, 89464, Note_off_c, 0, 77, 65
1, 89470, Note_off_c, 0, 76, 62
1, 89482, Control_c, 0, 67, 125
1, 89494, Note_off_c, 0, 54, 58
1, 89496, Control_c, 0, 67, 122
1, 89511, Control_c, 0, 67, 127
1, 89570, Control_c, 0, 67, 125
1, 89585, Control_c, 0, 67, 119
1, 89614, Control_c, 0, 67, 127
1, 89641, Note_on_c, 0, 72, 74
1, 89643, Note_on_c, 0, 71, 75
1, 89645, Note_on_c, 0, 53, 65
1, 89671, Note_off_c, 0, 72, 63
1, 89677, Note_off_c, 0, 71, 63
1, 89688, Control_c, 0, 67, 121
1, 89715, Note_on_c, 0, 55, 50
1, 89718, Control_c, 0, 67, 127
1, 89738, Note_off_c, 0, 53, 63
1, 89784, Note_off_c, 0, 55, 61
1, 89808, Note_on_c, 0, 57, 81
1, 89808, Control_c, 0, 67, 123
1, 89818, Note_on_c, 0, 76, 71
1, 89819, Note_on_c, 0, 77, 71
1, 89822, Control_c, 0, 67, 127
1, 89847, Note_off_c, 0, 77, 63
1, 89848, Note_off_c, 0, 76, 63
1, 89880, Note_off_c, 0, 57, 0
1, 89897, Note_on_c, 0, 57, 48
1, 89913, Control_c, 0, 67, 125
1, 89927, Control_c, 0, 67, 127
1, 90009, Control_c, 0, 67, 125
1, 90024, Control_c, 0, 67, 121
1, 90028, Note_on_c, 0, 72, 72
1, 90031, Note_on_c, 0, 71, 76
1, 90039, Control_c, 0, 67, 125
1, 90050, Note_off_c, 0, 57, 63
1, 90051, Note_off_c, 0, 72, 67
1, 90053, Control_c, 0, 67, 127
1, 90054, Note_off_c, 0, 71, 68
1, 90127, Control_c, 0, 67, 125
1, 90142, Control_c, 0, 67, 127
1, 90227, Note_on_c, 0, 48, 82
1, 90239, Note_on_c, 0, 80, 82
1, 90239, Note_on_c, 0, 81, 79
1, 90261, Note_off_c, 0, 81, 69
1, 90278, Note_off_c, 0, 48, 64
1, 90278, Note_off_c, 0, 80, 65
1, 90458, Note_on_c, 0, 56, 71
1, 90537, Note_on_c, 0, 55, 72
1, 90538, Note_off_c, 0, 56, 60
1, 90618, Note_off_c, 0, 55, 60
1, 90626, Note_on_c, 0, 53, 71
1, 90641, Note_on_c, 0, 77, 66
1, 90642, Note_on_c, 0, 76, 69
1, 90676, Note_off_c, 0, 76, 61
1, 90686, Note_off_c, 0, 77, 56
1, 90720, Note_on_c, 0, 51, 74
1, 90722, Note_off_c, 0, 53, 62
1, 90812, Note_on_c, 0, 49, 77
1, 90817, Note_on_c, 0, 69, 71
1, 90819, Note_off_c, 0, 51, 62
1, 90824, Note_on_c, 0, 70, 71
1, 90856, Note_off_c, 0, 70, 61
1, 90865, Note_off_c, 0, 69, 58
1, 91009, Control_c, 0, 64, 36
1, 91011, Note_on_c, 0, 47, 75
1, 91018, Note_on_c, 0, 77, 69
1, 91020, Note_on_c, 0, 76, 75
1, 91023, Note_off_c, 0, 49, 62
1, 91024, Control_c, 0, 64, 0
1, 91053, Note_off_c, 0, 77, 61
1, 91054, Note_off_c, 0, 76, 63
1, 91059, Note_off_c, 0, 47, 64
1, 91220, Note_on_c, 0, 46, 72
1, 91233, Note_on_c, 0, 69, 70
1, 91233, Note_on_c, 0, 70, 73
1, 91273, Note_off_c, 0, 70, 58
1, 91278, Note_off_c, 0, 69, 57
1, 91312, Note_on_c, 0, 48, 75
1, 91318, Note_off_c, 0, 46, 64
1, 91387, Note_on_c, 0, 77, 68
1, 91390, Note_on_c, 0, 50, 79
1, 91390, Note_on_c, 0, 76, 72
1, 91392, Note_off_c, 0, 48, 61
1, 91431, Note_off_c, 0, 76, 59
1, 91431, Note_off_c, 0, 77, 62
1, 91603, Note_on_c, 0, 69, 72
1, 91603, Note_on_c, 0, 70, 80
1, 91623, Note_off_c, 0, 70, 72
1, 91625, Note_off_c, 0, 69, 70
1, 91646, Note_off_c, 0, 50, 56
1, 91801, Note_on_c, 0, 41, 74
1, 91803, Note_on_c, 0, 81, 89
1, 91808, Note_on_c, 0, 82, 85
1, 91835, Note_off_c, 0, 82, 65
1, 91837, Note_off_c, 0, 81, 66
1, 91839, Note_on_c, 0, 49, 36
1, 91839, Note_off_c, 0, 49, 127
1, 91848, Note_off_c, 0, 41, 62
1, 92024, Note_on_c, 0, 49, 74
1, 92069, Control_c, 0, 64, 41
1, 92084, Control_c, 0, 64, 43
1, 92099, Control_c, 0, 64, 0
1, 92103, Note_off_c, 0, 49, 65
1, 92104, Note_on_c, 0, 48, 74
1, 92189, Note_off_c, 0, 48, 57
1, 92191, Note_on_c, 0, 46, 84
1, 92202, Note_on_c, 0, 70, 86
1, 92207, Note_on_c, 0, 68, 77
1, 92242, Note_off_c, 0, 68, 56
1, 92250, Note_off_c, 0, 70, 62
1, 92276, Note_off_c, 0, 46, 60
1, 92287, Note_on_c, 0, 44, 83
1, 92374, Note_on_c, 0, 42, 90
1, 92380, Note_on_c, 0, 82, 85
1, 92384, Note_on_c, 0, 80, 83
1, 92387, Note_off_c, 0, 44, 65
1, 92403, Control_c, 0, 67, 119
1, 92418, Control_c, 0, 67, 108
1, 92428, Note_off_c, 0, 82, 64
1, 92442, Note_off_c, 0, 80, 59
1, 92463, Control_c, 0, 67, 105
1, 92478, Control_c, 0, 67, 95
1, 92492, Control_c, 0, 67, 80
1, 92507, Control_c, 0, 67, 67
1, 92522, Control_c, 0, 67, 64
1, 92531, Note_off_c, 0, 42, 59
1, 92537, Control_c, 0, 67, 62
1, 92552, Control_c, 0, 67, 51
1, 92566, Control_c, 0, 67, 23
1, 92581, Control_c, 0, 67, 0
1, 92585, Note_on_c, 0, 70, 77
1, 92586, Note_on_c, 0, 68, 83
1, 92588, Note_on_c, 0, 40, 78
1, 92605, Note_off_c, 0, 70, 72
1, 92611, Note_off_c, 0, 68, 66
1, 92635, Note_off_c, 0, 40, 62
1, 92777, Note_on_c, 0, 39, 90
1, 92788, Control_c, 0, 67, 40
1, 92803, Control_c, 0, 64, 62
1, 92803, Control_c, 0, 67, 79
1, 92818, Control_c, 0, 64, 64
1, 92818, Control_c, 0, 67, 81
1, 92833, Control_c, 0, 64, 0
1, 92833, Control_c, 0, 67, 79
1, 92847, Control_c, 0, 67, 76
1, 92867, Note_on_c, 0, 41, 82
1, 92877, Control_c, 0, 67, 78
1, 92879, Note_off_c, 0, 39, 63
1, 92892, Control_c, 0, 67, 80
1, 92907, Control_c, 0, 67, 73
1, 92922, Control_c, 0, 67, 60
1, 92937, Control_c, 0, 67, 34
1, 92947, Note_on_c, 0, 43, 89
1, 92951, Control_c, 0, 67, 0
1, 92965, Note_off_c, 0, 41, 62
1, 92974, Note_on_c, 0, 75, 77
1, 92975, Note_on_c, 0, 73, 82
1, 92996, Note_off_c, 0, 75, 70
1, 93000, Note_off_c, 0, 73, 64
1, 93166, Note_on_c, 0, 63, 89
1, 93180, Note_on_c, 0, 61, 77
1, 93187, Note_off_c, 0, 63, 68
1, 93202, Note_off_c, 0, 61, 69
1, 93366, Note_on_c, 0, 45, 95
1, 93390, Note_off_c, 0, 43, 63
1, 93403, Note_off_c, 0, 45, 66
1, 93575, Note_on_c, 0, 39, 96
1, 93582, Control_c, 0, 64, 54
1, 93582, Control_c, 0, 67, 22
1, 93596, Control_c, 0, 64, 0
1, 93596, Control_c, 0, 67, 0
1, 93640, Control_c, 0, 67, 25
1, 93655, Control_c, 0, 67, 27
1, 93670, Control_c, 0, 67, 23
1, 93685, Control_c, 0, 67, 20
1, 93737, Control_c, 0, 67, 26
1, 93767, Control_c, 0, 67, 23
1, 93782, Control_c, 0, 67, 19
1, 93786, Note_on_c, 0, 56, 89
1, 93787, Note_on_c, 0, 58, 78
1, 93787, Note_on_c, 0, 59, 81
1, 93796, Control_c, 0, 67, 0
1, 93807, Note_off_c, 0, 59, 71
1, 93812, Note_off_c, 0, 56, 67
1, 93816, Note_off_c, 0, 58, 68
1, 93891, Note_off_c, 0, 39, 59
1, 93945, Control_c, 0, 64, 48
1, 93960, Control_c, 0, 64, 42
1, 93975, Control_c, 0, 64, 0
1, 93985, Note_on_c, 0, 38, 80
1, 94041, Note_off_c, 0, 38, 64
1, 94052, Note_on_c, 0, 39, 79
1, 94123, Note_on_c, 0, 38, 74
1, 94127, Note_off_c, 0, 39, 60
1, 94186, Note_on_c, 0, 71, 81
1, 94192, Note_on_c, 0, 69, 78
1, 94198, Note_on_c, 0, 31, 90
1, 94200, Note_on_c, 0, 67, 67
1, 94210, Note_off_c, 0, 38, 64
1, 94217, Note_off_c, 0, 69, 63
1, 94221, Note_off_c, 0, 71, 68
1, 94224, Note_off_c, 0, 67, 68
1, 94227, Note_on_c, 0, 29, 52
1, 94227, Note_off_c, 0, 29, 127
1, 94269, Note_off_c, 0, 31, 50
1, 94273, Note_on_c, 0, 38, 90
1, 94373, Note_on_c, 0, 36, 95
1, 94388, Note_off_c, 0, 38, 63
1, 94604, Control_c, 0, 64, 43
1, 94615, Note_on_c, 0, 74, 91
1, 94619, Note_on_c, 0, 69, 79
1, 94619, Note_on_c, 0, 72, 86
1, 94619, Control_c, 0, 64, 41
1, 94634, Control_c, 0, 64, 0
1, 94642, Note_off_c, 0, 69, 67
1, 94645, Note_off_c, 0, 74, 67
1, 94650, Note_off_c, 0, 72, 68
1, 94709, Control_c, 0, 64, 41
1, 94724, Control_c, 0, 64, 50
1, 94724, Control_c, 0, 67, 21
1, 94739, Control_c, 0, 64, 0
1, 94739, Control_c, 0, 67, 27
1, 94754, Control_c, 0, 67, 25
1, 94813, Control_c, 0, 67, 30
1, 94842, Control_c, 0, 67, 25
1, 94857, Control_c, 0, 67, 22
1, 94887, Note_on_c, 0, 55, 86
1, 94887, Control_c, 0, 67, 26
1, 94890, Note_on_c, 0, 59, 83
1, 94891, Note_on_c, 0, 60, 80
1, 94902, Control_c, 0, 67, 33
1, 94912, Note_off_c, 0, 55, 67
1, 94917, Control_c, 0, 67, 38
1, 94918, Note_off_c, 0, 59, 68
1, 94930, Note_off_c, 0, 60, 66
1, 94932, Control_c, 0, 67, 38
1, 94947, Control_c, 0, 67, 33
1, 94961, Control_c, 0, 64, 34
1, 94976, Control_c, 0, 64, 58
1, 94976, Control_c, 0, 67, 36
1, 94991, Control_c, 0, 64, 62
1, 94991, Control_c, 0, 67, 43
1, 95006, Control_c, 0, 64, 57
1, 95006, Control_c, 0, 67, 57
1, 95021, Control_c, 0, 64, 44
1, 95021, Control_c, 0, 67, 63
1, 95035, Control_c, 0, 64, 0
1, 95035, Control_c, 0, 67, 56
1, 95049, Note_off_c, 0, 36, 60
1, 95051, Control_c, 0, 64, 35
1, 95051, Control_c, 0, 67, 52
1, 95066, Control_c, 0, 64, 40
1, 95066, Control_c, 0, 67, 50
1, 95081, Control_c, 0, 64, 0
1, 95081, Control_c, 0, 67, 51
1, 95095, Control_c, 0, 67, 55
1, 95110, Control_c, 0, 67, 55
1, 95125, Control_c, 0, 67, 50
1, 95140, Control_c, 0, 67, 47
1, 95154, Control_c, 0, 67, 46
1, 95169, Control_c, 0, 67, 54
1, 95184, Control_c, 0, 67, 63
1, 95199, Control_c, 0, 67, 78
1, 95221, Control_c, 0, 67, 92
1, 95236, Control_c, 0, 67, 96
1, 95266, Control_c, 0, 67, 101
1, 95281, Control_c, 0, 67, 114
1, 95294, Note_on_c, 0, 79, 69
1, 95295, Control_c, 0, 67, 127
1, 95329, Note_off_c, 0, 79, 65
1, 95417, Note_on_c, 0, 87, 70
1, 95474, Note_off_c, 0, 87, 63
1, 95502, Note_on_c, 0, 86, 67
1, 95594, Note_off_c, 0, 86, 63
1, 95596, Note_on_c, 0, 84, 67
1, 95616, Note_on_c, 0, 52, 60
1, 95622, Note_on_c, 0, 53, 59
1, 95655, Note_off_c, 0, 52, 61
1, 95657, Note_off_c, 0, 53, 63
1, 95661, Note_off_c, 0, 84, 62
1, 95685, Note_on_c, 0, 82, 72
1, 95715, Note_off_c, 0, 82, 65
1, 95756, Control_c, 0, 64, 36
1, 95771, Control_c, 0, 64, 52
1, 95785, Control_c, 0, 64, 49
1, 95786, Note_on_c, 0, 80, 72
1, 95800, Control_c, 0, 64, 45
1, 95803, Note_on_c, 0, 47, 48
1, 95804, Note_on_c, 0, 48, 53
1, 95815, Control_c, 0, 64, 48
1, 95830, Control_c, 0, 64, 57
1, 95844, Note_off_c, 0, 47, 62
1, 95844, Control_c, 0, 64, 64
1, 95847, Note_off_c, 0, 48, 60
1, 95850, Note_off_c, 0, 80, 58
1, 95859, Control_c, 0, 64, 69
1, 95876, Note_on_c, 0, 82, 70
1, 95904, Control_c, 0, 64, 68
1, 95933, Control_c, 0, 64, 67
1, 95941, Note_off_c, 0, 82, 61
1, 95948, Control_c, 0, 64, 62
1, 95971, Control_c, 0, 64, 49
1, 95973, Note_on_c, 0, 78, 81
1, 95986, Control_c, 0, 64, 0
1, 95992, Note_on_c, 0, 53, 57
1, 95996, Note_on_c, 0, 52, 49
1, 96025, Note_off_c, 0, 78, 65
1, 96028, Note_off_c, 0, 53, 63
1, 96030, Control_c, 0, 64, 50
1, 96039, Note_off_c, 0, 52, 62
1, 96044, Control_c, 0, 64, 46
1, 96059, Control_c, 0, 64, 0
1, 96070, Note_on_c, 0, 80, 73
1, 96125, Note_off_c, 0, 80, 63
1, 96165, Note_on_c, 0, 48, 58
1, 96165, Note_on_c, 0, 77, 74
1, 96173, Note_on_c, 0, 47, 50
1, 96201, Note_off_c, 0, 48, 64
1, 96205, Note_off_c, 0, 47, 66
1, 96206, Note_off_c, 0, 77, 60
1, 96254, Note_on_c, 0, 79, 81
1, 96305, Note_off_c, 0, 79, 64
1, 96350, Note_on_c, 0, 53, 56
1, 96355, Note_on_c, 0, 81, 74
1, 96356, Note_on_c, 0, 52, 47
1, 96389, Note_off_c, 0, 53, 62
1, 96394, Note_off_c, 0, 52, 63
1, 96557, Note_on_c, 0, 47, 52
1, 96562, Note_on_c, 0, 48, 52
1, 96593, Note_off_c, 0, 47, 64
1, 96593, Note_off_c, 0, 48, 66
1, 96778, Control_c, 0, 64, 41
1, 96792, Control_c, 0, 64, 58
1, 96803, Note_on_c, 0, 56, 72
1, 96806, Note_on_c, 0, 57, 56
1, 96807, Control_c, 0, 64, 58
1, 96822, Control_c, 0, 64, 55
1, 96830, Note_off_c, 0, 56, 66
1, 96837, Control_c, 0, 64, 57
1, 96842, Note_off_c, 0, 57, 66
1, 96852, Control_c, 0, 64, 61
1, 96858, Note_off_c, 0, 81, 62
1, 96866, Control_c, 0, 64, 63
1, 96881, Control_c, 0, 64, 61
1, 96896, Control_c, 0, 64, 54
1, 96901, Note_on_c, 0, 72, 67
1, 96911, Control_c, 0, 64, 41
1, 96926, Control_c, 0, 64, 0
1, 96937, Note_off_c, 0, 72, 64
1, 96940, Control_c, 0, 64, 43
1, 96955, Control_c, 0, 64, 49
1, 96970, Control_c, 0, 64, 44
1, 96985, Control_c, 0, 64, 34
1, 96995, Note_on_c, 0, 80, 75
1, 97000, Control_c, 0, 64, 0
1, 97046, Note_off_c, 0, 80, 64
1, 97086, Note_on_c, 0, 79, 72
1, 97172, Note_off_c, 0, 79, 63
1, 97178, Note_on_c, 0, 52, 60
1, 97181, Note_on_c, 0, 77, 75
1, 97185, Note_on_c, 0, 53, 55
1, 97212, Note_off_c, 0, 52, 64
1, 97217, Note_off_c, 0, 53, 64
1, 97226, Note_off_c, 0, 77, 65
1, 97268, Note_on_c, 0, 75, 74
1, 97294, Note_off_c, 0, 75, 67
1, 97366, Note_on_c, 0, 45, 56
1, 97370, Note_on_c, 0, 73, 74
1, 97372, Control_c, 0, 64, 47
1, 97386, Note_on_c, 0, 47, 33
1, 97387, Control_c, 0, 64, 64
1, 97402, Note_off_c, 0, 45, 64
1, 97402, Control_c, 0, 64, 70
1, 97416, Control_c, 0, 64, 71
1, 97420, Note_off_c, 0, 47, 44
1, 97437, Note_off_c, 0, 73, 57
1, 97468, Control_c, 0, 64, 72
1, 97469, Note_on_c, 0, 75, 67
1, 97497, Control_c, 0, 64, 71
1, 97512, Control_c, 0, 64, 62
1, 97527, Control_c, 0, 64, 0
1, 97533, Note_off_c, 0, 75, 62
1, 97557, Note_on_c, 0, 53, 58
1, 97563, Note_on_c, 0, 71, 77
1, 97568, Note_on_c, 0, 52, 48
1, 97587, Control_c, 0, 64, 40
1, 97596, Note_off_c, 0, 53, 64
1, 97599, Note_off_c, 0, 52, 63
1, 97602, Control_c, 0, 64, 56
1, 97616, Control_c, 0, 64, 62
1, 97621, Note_off_c, 0, 71, 64
1, 97631, Control_c, 0, 64, 63
1, 97651, Note_on_c, 0, 73, 78
1, 97676, Control_c, 0, 64, 61
1, 97690, Control_c, 0, 64, 47
1, 97705, Control_c, 0, 64, 0
1, 97711, Note_off_c, 0, 73, 60
1, 97736, Note_on_c, 0, 46, 71
1, 97742, Note_on_c, 0, 70, 78
1, 97779, Note_off_c, 0, 46, 62
1, 97781, Note_off_c, 0, 70, 64
1, 97828, Note_on_c, 0, 72, 75
1, 97883, Note_off_c, 0, 72, 64
1, 97928, Note_on_c, 0, 74, 77
1, 97930, Note_on_c, 0, 53, 62
1, 97939, Note_on_c, 0, 52, 47
1, 97962, Note_off_c, 0, 53, 64
1, 97965, Note_off_c, 0, 52, 58
1, 98120, Control_c, 0, 64, 36
1, 98128, Note_on_c, 0, 46, 75
1, 98135, Control_c, 0, 64, 54
1, 98138, Note_on_c, 0, 45, 48
1, 98150, Control_c, 0, 64, 50
1, 98156, Note_off_c, 0, 46, 66
1, 98165, Note_off_c, 0, 45, 50
1, 98165, Control_c, 0, 64, 42
1, 98180, Control_c, 0, 64, 35
1, 98195, Control_c, 0, 64, 44
1, 98217, Control_c, 0, 64, 57
1, 98232, Control_c, 0, 64, 64
1, 98246, Control_c, 0, 64, 65
1, 98291, Control_c, 0, 64, 67
1, 98306, Control_c, 0, 64, 71
1, 98320, Control_c, 0, 64, 78
1, 98335, Control_c, 0, 64, 75
1, 98350, Control_c, 0, 64, 60
1, 98353, Note_on_c, 0, 58, 87
1, 98356, Note_on_c, 0, 57, 80
1, 98365, Control_c, 0, 64, 0
1, 98383, Note_off_c, 0, 57, 67
1, 98395, Note_off_c, 0, 58, 61
1, 98398, Note_off_c, 0, 74, 61
1, 98424, Control_c, 0, 64, 43
1, 98439, Control_c, 0, 64, 40
1, 98454, Control_c, 0, 64, 0
1, 98457, Note_on_c, 0, 65, 77
1, 98499, Note_off_c, 0, 65, 62
1, 98513, Control_c, 0, 64, 41
1, 98543, Control_c, 0, 64, 0
1, 98553, Note_on_c, 0, 73, 71
1, 98619, Note_off_c, 0, 73, 60
1, 98643, Note_on_c, 0, 72, 69
1, 98723, Note_off_c, 0, 72, 62
1, 98732, Note_on_c, 0, 70, 76
1, 98750, Note_on_c, 0, 58, 72
1, 98782, Note_off_c, 0, 70, 66
1, 98785, Note_off_c, 0, 58, 62
1, 98821, Note_on_c, 0, 68, 76
1, 98848, Note_off_c, 0, 68, 67
1, 98922, Note_on_c, 0, 44, 79
1, 98928, Note_on_c, 0, 46, 83
1, 98928, Note_on_c, 0, 66, 69
1, 98943, Control_c, 0, 64, 47
1, 98966, Control_c, 0, 64, 60
1, 98977, Note_off_c, 0, 46, 62
1, 98981, Control_c, 0, 64, 55
1, 98982, Note_off_c, 0, 44, 62
1, 98988, Note_off_c, 0, 66, 61
1, 98995, Control_c, 0, 64, 33
1, 99010, Control_c, 0, 64, 0
1, 99024, Note_on_c, 0, 68, 70
1, 99069, Control_c, 0, 64, 47
1, 99084, Control_c, 0, 64, 45
1, 99089, Note_off_c, 0, 68, 62
1, 99099, Control_c, 0, 64, 0
1, 99131, Note_on_c, 0, 64, 75
1, 99136, Note_on_c, 0, 58, 76
1, 99166, Note_off_c, 0, 58, 65
1, 99182, Note_off_c, 0, 64, 63
1, 99220, Note_on_c, 0, 66, 77
1, 99293, Note_off_c, 0, 66, 62
1, 99313, Note_on_c, 0, 63, 78
1, 99315, Note_on_c, 0, 43, 74
1, 99322, Note_on_c, 0, 46, 78
1, 99349, Note_off_c, 0, 63, 64
1, 99353, Note_off_c, 0, 46, 68
1, 99356, Note_off_c, 0, 43, 63
1, 99404, Note_on_c, 0, 65, 84
1, 99417, Note_on_c, 0, 66, 27
1, 99417, Note_off_c, 0, 66, 127
1, 99489, Note_on_c, 0, 67, 80
1, 99489, Note_off_c, 0, 65, 64
1, 99509, Note_on_c, 0, 58, 74
1, 99534, Note_off_c, 0, 58, 69
1, 99542, Note_on_c, 0, 56, 39
1, 99572, Note_off_c, 0, 56, 35
1, 99662, Control_c, 0, 67, 113
1, 99676, Control_c, 0, 67, 106
1, 99691, Control_c, 0, 67, 113
1, 99694, Note_on_c, 0, 46, 90
1, 99706, Note_on_c, 0, 42, 79
1, 99714, Control_c, 0, 67, 109
1, 99729, Control_c, 0, 64, 55
1, 99729, Control_c, 0, 67, 95
1, 99744, Control_c, 0, 64, 67
1, 99744, Control_c, 0, 67, 62
1, 99745, Note_off_c, 0, 46, 67
1, 99753, Note_off_c, 0, 42, 61
1, 99758, Control_c, 0, 64, 58
1, 99758, Control_c, 0, 67, 0
1, 99773, Control_c, 0, 64, 0
1, 99798, Note_on_c, 0, 65, 88
1, 99805, Note_off_c, 0, 67, 64
1, 99817, Control_c, 0, 64, 41
1, 99832, Control_c, 0, 64, 64
1, 99847, Control_c, 0, 64, 68
1, 99862, Control_c, 0, 64, 63
1, 99876, Control_c, 0, 64, 39
1, 99884, Note_off_c, 0, 65, 58
1, 99887, Note_on_c, 0, 58, 82
1, 99891, Control_c, 0, 64, 0
1, 99894, Note_on_c, 0, 67, 92
1, 99912, Note_off_c, 0, 58, 69
1, 99927, Note_on_c, 0, 59, 29
1, 99927, Note_off_c, 0, 59, 127
1, 99965, Note_off_c, 0, 67, 64
1, 99986, Note_on_c, 0, 69, 85
1, 100016, Note_off_c, 0, 69, 66
1, 100082, Note_on_c, 0, 63, 96
1, 100289, Note_on_c, 0, 41, 85
1, 100295, Note_on_c, 0, 45, 89
1, 100322, Control_c, 0, 64, 53
1, 100332, Note_off_c, 0, 41, 64
1, 100333, Note_off_c, 0, 45, 65
1, 100337, Control_c, 0, 64, 71
1, 100352, Control_c, 0, 64, 66
1, 100361, Note_off_c, 0, 63, 65
1, 100367, Control_c, 0, 64, 56
1, 100381, Control_c, 0, 64, 0
1, 100411, Control_c, 0, 64, 43
1, 100425, Control_c, 0, 64, 61
1, 100440, Control_c, 0, 64, 63
1, 100463, Control_c, 0, 64, 61
1, 100478, Control_c, 0, 64, 58
1, 100493, Control_c, 0, 64, 59
1, 100507, Control_c, 0, 64, 62
1, 100517, Note_on_c, 0, 65, 91
1, 100522, Control_c, 0, 64, 63
1, 100537, Control_c, 0, 64, 57
1, 100552, Control_c, 0, 64, 0
1, 100574, Note_on_c, 0, 63, 90
1, 100600, Note_off_c, 0, 65, 65
1, 100639, Note_on_c, 0, 62, 84
1, 100645, Note_off_c, 0, 63, 66
1, 100708, Note_off_c, 0, 62, 62
1, 100714, Note_on_c, 0, 60, 88
1, 100723, Note_on_c, 0, 47, 92
1, 100724, Note_on_c, 0, 43, 89
1, 100751, Note_off_c, 0, 43, 68
1, 100753, Note_off_c, 0, 60, 67
1, 100753, Note_off_c, 0, 47, 68
1, 100820, Note_on_c, 0, 62, 92
1, 100857, Note_off_c, 0, 62, 65
1, 100942, Note_on_c, 0, 60, 94
1, 101184, Note_on_c, 0, 48, 99
1, 101238, Note_off_c, 0, 48, 65
1, 101479, Note_on_c, 0, 36, 92
1, 101498, Note_off_c, 0, 60, 64
1, 101508, Control_c, 0, 64, 39
1, 101523, Control_c, 0, 64, 51
1, 101537, Note_on_c, 0, 39, 15
1, 101537, Control_c, 0, 64, 39
1, 101544, Note_off_c, 0, 36, 63
1, 101552, Control_c, 0, 64, 0
1, 101590, Note_off_c, 0, 39, 29
1, 101611, Control_c, 0, 67, 20
1, 101626, Control_c, 0, 64, 37
1, 101626, Control_c, 0, 67, 0
1, 101641, Control_c, 0, 64, 0
1, 101686, Control_c, 0, 67, 21
1, 101700, Control_c, 0, 67, 24
1, 101715, Control_c, 0, 64, 35
1, 101730, Control_c, 0, 64, 0
1, 101730, Control_c, 0, 67, 22
1, 101745, Control_c, 0, 67, 20
1, 101789, Control_c, 0, 67, 24
1, 101894, Control_c, 0, 67, 27
1, 101924, Control_c, 0, 67, 29
1, 102094, Control_c, 0, 67, 31
1, 102109, Control_c, 0, 64, 34
1, 102124, Control_c, 0, 64, 35
1, 102139, Control_c, 0, 64, 36
1, 102153, Control_c, 0, 64, 36
1, 102212, Control_c, 0, 64, 37
1, 102227, Control_c, 0, 64, 37
1, 102242, Control_c, 0, 64, 38
1, 102286, Control_c, 0, 64, 38
1, 102345, Control_c, 0, 64, 39
1, 102360, Control_c, 0, 64, 39
1, 102375, Control_c, 0, 64, 40
1, 102390, Control_c, 0, 64, 40
1, 102404, Control_c, 0, 64, 41
1, 102419, Control_c, 0, 64, 42
1, 102449, Control_c, 0, 64, 42
1, 102478, Control_c, 0, 64, 43
1, 102478, Control_c, 0, 67, 32
1, 102493, Control_c, 0, 64, 43
1, 102568, Control_c, 0, 64, 44
1, 102583, Control_c, 0, 64, 45
1, 102597, Control_c, 0, 67, 32
1, 102642, Control_c, 0, 67, 33
1, 102672, Control_c, 0, 64, 45
1, 102687, Control_c, 0, 64, 46
1, 102687, Control_c, 0, 67, 33
1, 102709, Control_c, 0, 64, 46
1, 102709, Control_c, 0, 67, 34
1, 102724, Control_c, 0, 67, 36
1, 102739, Control_c, 0, 67, 40
1, 102753, Control_c, 0, 67, 42
1, 102768, Control_c, 0, 64, 47
1, 102768, Control_c, 0, 67, 42
1, 102798, Control_c, 0, 64, 47
1, 102827, Control_c, 0, 67, 43
1, 102842, Control_c, 0, 67, 43
1, 102932, Control_c, 0, 67, 44
1, 102961, Control_c, 0, 67, 44
1, 102976, Control_c, 0, 64, 48
1, 103065, Control_c, 0, 64, 48
1, 103109, Control_c, 0, 67, 44
1, 103183, Control_c, 0, 67, 43
1, 103213, Control_c, 0, 67, 43
1, 103287, Control_c, 0, 67, 42
1, 103316, Control_c, 0, 67, 42
1, 103331, Control_c, 0, 64, 49
1, 103376, Control_c, 0, 64, 49
1, 103391, Control_c, 0, 64, 50
1, 103406, Control_c, 0, 64, 52
1, 103420, Control_c, 0, 64, 53
1, 103420, Control_c, 0, 67, 41
1, 103435, Control_c, 0, 64, 54
1, 103457, Control_c, 0, 64, 55
1, 103457, Control_c, 0, 67, 42
1, 103473, Control_c, 0, 64, 56
1, 103503, Control_c, 0, 64, 56
1, 103518, Control_c, 0, 67, 41
1, 103532, Control_c, 0, 64, 57
1, 103606, Control_c, 0, 64, 57
1, 103606, Control_c, 0, 67, 41
1, 103621, Control_c, 0, 67, 40
1, 103636, Control_c, 0, 64, 58
1, 103650, Control_c, 0, 67, 41
1, 103665, Control_c, 0, 67, 41
1, 103680, Control_c, 0, 64, 58
1, 103710, Control_c, 0, 67, 41
1, 103739, Control_c, 0, 64, 59
1, 103754, Control_c, 0, 64, 59
1, 103769, Control_c, 0, 64, 60
1, 103784, Control_c, 0, 64, 60
1, 103784, Control_c, 0, 67, 40
1, 103799, Control_c, 0, 67, 40
1, 103814, Control_c, 0, 67, 39
1, 103829, Control_c, 0, 64, 61
1, 103829, Control_c, 0, 67, 39
1, 103844, Control_c, 0, 64, 62
1, 103858, Control_c, 0, 64, 62
1, 103873, Control_c, 0, 64, 63
1, 103888, Control_c, 0, 64, 63
1, 103888, Control_c, 0, 67, 38
1, 103902, Control_c, 0, 64, 64
1, 103932, Control_c, 0, 64, 64
1, 103947, Control_c, 0, 64, 65
1, 103962, Control_c, 0, 64, 65
1, 103962, Control_c, 0, 67, 39
1, 104036, Control_c, 0, 67, 40
1, 104050, Control_c, 0, 64, 66
1, 104050, Control_c, 0, 67, 40
1, 104080, Control_c, 0, 64, 67
1, 104094, Control_c, 0, 64, 67
1, 104109, Control_c, 0, 64, 68
1, 104124, Control_c, 0, 64, 68
1, 104139, Control_c, 0, 64, 69
1, 104139, Control_c, 0, 67, 42
1, 104154, Control_c, 0, 64, 70
1, 104154, Control_c, 0, 67, 42
1, 104169, Control_c, 0, 64, 71
1, 104184, Control_c, 0, 64, 71
1, 104206, Control_c, 0, 64, 72
1, 104221, Control_c, 0, 64, 73
1, 104221, Control_c, 0, 67, 43
1, 104236, Control_c, 0, 64, 75
1, 104236, Control_c, 0, 67, 44
1, 104250, Control_c, 0, 64, 77
1, 104250, Control_c, 0, 67, 46
1, 104265, Control_c, 0, 64, 78
1, 104265, Control_c, 0, 67, 52
1, 104281, Control_c, 0, 64, 80
1, 104281, Control_c, 0, 67, 62
1, 104296, Control_c, 0, 64, 83
1, 104296, Control_c, 0, 67, 71
1, 104311, Control_c, 0, 64, 87
1, 104311, Control_c, 0, 67, 79
1, 104325, Control_c, 0, 64, 92
1, 104325, Control_c, 0, 67, 91
1, 104340, Control_c, 0, 64, 97
1, 104340, Control_c, 0, 67, 105
1, 104355, Control_c, 0, 64, 103
1, 104355, Control_c, 0, 67, 122
1, 104370, Control_c, 0, 64, 111
1, 104370, Control_c, 0, 67, 127
1, 104385, Control_c, 0, 64, 124
1, 104399, Control_c, 0, 64, 127
1, 104681, Control_c, 0, 64, 113
1, 104696, Control_c, 0, 64, 97
1, 104700, Note_on_c, 0, 55, 45
1, 104711, Control_c, 0, 64, 92
1, 104725, Control_c, 0, 64, 90
1, 104815, Control_c, 0, 64, 91
1, 104830, Control_c, 0, 64, 91
1, 104845, Control_c, 0, 64, 92
1, 104874, Control_c, 0, 64, 92
1, 104889, Control_c, 0, 64, 94
1, 104898, Note_on_c, 0, 62, 51
1, 104904, Control_c, 0, 64, 96
1, 104918, Control_c, 0, 64, 99
1, 104933, Control_c, 0, 64, 101
1, 104940, Note_off_c, 0, 62, 60
1, 104956, Control_c, 0, 64, 104
1, 104956, Note_off_c, 0, 55, 37
1, 104971, Control_c, 0, 64, 107
1, 104985, Control_c, 0, 64, 112
1, 105000, Control_c, 0, 64, 127
1, 105278, Note_on_c, 0, 55, 51
1, 105451, Note_on_c, 0, 62, 44
1, 105499, Note_off_c, 0, 55, 35
1, 105517, Note_off_c, 0, 62, 48
1, 105829, Note_on_c, 0, 55, 52
1, 105992, Note_off_c, 0, 55, 50
1, 106031, Note_on_c, 0, 62, 19
1, 106080, Note_off_c, 0, 62, 46
1, 106368, Note_on_c, 0, 55, 40
1, 106568, Note_on_c, 0, 62, 34
1, 106625, Note_off_c, 0, 55, 30
1, 106716, Note_on_c, 0, 69, 69
1, 106731, Note_off_c, 0, 62, 33
1, 106879, Note_on_c, 0, 55, 51
1, 106884, Note_on_c, 0, 79, 68
1, 106899, Control_c, 0, 64, 100
1, 106914, Control_c, 0, 64, 89
1, 106928, Control_c, 0, 64, 89
1, 106958, Control_c, 0, 64, 90
1, 106973, Control_c, 0, 64, 91
1, 106988, Control_c, 0, 64, 91
1, 107002, Control_c, 0, 64, 92
1, 107017, Control_c, 0, 64, 95
1, 107031, Control_c, 0, 64, 99
1, 107046, Control_c, 0, 64, 101
1, 107055, Note_on_c, 0, 78, 69
1, 107055, Note_off_c, 0, 79, 61
1, 107063, Note_on_c, 0, 62, 33
1, 107109, Note_off_c, 0, 55, 36
1, 107119, Note_on_c, 0, 76, 77
1, 107120, Control_c, 0, 64, 103
1, 107129, Note_off_c, 0, 78, 64
1, 107147, Note_off_c, 0, 62, 49
1, 107150, Control_c, 0, 64, 106
1, 107164, Control_c, 0, 64, 110
1, 107179, Control_c, 0, 64, 122
1, 107201, Note_on_c, 0, 74, 81
1, 107201, Control_c, 0, 64, 127
1, 107210, Note_off_c, 0, 76, 64
1, 107237, Note_off_c, 0, 74, 61
1, 107363, Note_on_c, 0, 72, 82
1, 107364, Note_on_c, 0, 55, 55
1, 107379, Control_c, 0, 64, 91
1, 107394, Control_c, 0, 64, 72
1, 107409, Control_c, 0, 64, 68
1, 107424, Control_c, 0, 64, 70
1, 107438, Control_c, 0, 64, 74
1, 107453, Control_c, 0, 64, 80
1, 107469, Control_c, 0, 64, 85
1, 107484, Control_c, 0, 64, 90
1, 107498, Control_c, 0, 64, 100
1, 107513, Control_c, 0, 64, 109
1, 107522, Note_off_c, 0, 72, 64
1, 107523, Note_on_c, 0, 74, 82
1, 107526, Note_on_c, 0, 62, 58
1, 107528, Control_c, 0, 64, 93
1, 107543, Control_c, 0, 64, 69
1, 107546, Note_off_c, 0, 74, 68
1, 107558, Control_c, 0, 64, 36
1, 107573, Control_c, 0, 64, 0
1, 107662, Control_c, 0, 64, 41
1, 107676, Control_c, 0, 64, 59
1, 107679, Note_on_c, 0, 74, 84
1, 107691, Control_c, 0, 64, 63
1, 107697, Note_off_c, 0, 55, 36
1, 107712, Note_off_c, 0, 74, 64
1, 107721, Control_c, 0, 64, 64
1, 107736, Control_c, 0, 64, 66
1, 107750, Control_c, 0, 64, 70
1, 107765, Control_c, 0, 64, 73
1, 107781, Control_c, 0, 64, 74
1, 107798, Note_off_c, 0, 62, 33
1, 107811, Control_c, 0, 64, 75
1, 107825, Control_c, 0, 64, 75
1, 107826, Note_on_c, 0, 55, 57
1, 107840, Control_c, 0, 64, 73
1, 107852, Note_on_c, 0, 76, 77
1, 107855, Control_c, 0, 64, 63
1, 107869, Control_c, 0, 64, 0
1, 107893, Note_off_c, 0, 76, 62
1, 107898, Note_on_c, 0, 77, 72
1, 107957, Note_on_c, 0, 76, 69
1, 107966, Note_off_c, 0, 77, 65
1, 108007, Note_on_c, 0, 62, 49
1, 108011, Control_c, 0, 64, 45
1, 108023, Note_off_c, 0, 76, 64
1, 108025, Control_c, 0, 64, 50
1, 108031, Note_on_c, 0, 77, 60
1, 108040, Control_c, 0, 64, 41
1, 108053, Note_on_c, 0, 76, 59
1, 108055, Control_c, 0, 64, 0
1, 108066, Note_off_c, 0, 77, 56
1, 108130, Note_off_c, 0, 76, 63
1, 108139, Note_on_c, 0, 74, 75
1, 108173, Control_c, 0, 64, 43
1, 108188, Control_c, 0, 64, 63
1, 108203, Control_c, 0, 64, 67
1, 108208, Note_off_c, 0, 55, 36
1, 108217, Control_c, 0, 64, 68
1, 108263, Control_c, 0, 64, 68
1, 108278, Control_c, 0, 64, 69
1, 108292, Control_c, 0, 64, 71
1, 108307, Control_c, 0, 64, 73
1, 108322, Note_on_c, 0, 55, 57
1, 108322, Control_c, 0, 64, 76
1, 108337, Control_c, 0, 64, 80
1, 108352, Control_c, 0, 64, 86
1, 108359, Note_off_c, 0, 62, 42
1, 108366, Control_c, 0, 64, 92
1, 108381, Control_c, 0, 64, 98
1, 108396, Control_c, 0, 64, 105
1, 108411, Control_c, 0, 64, 127
1, 108470, Note_off_c, 0, 69, 55
1, 108488, Note_off_c, 0, 74, 60
1, 108503, Note_on_c, 0, 62, 45
1, 108512, Note_off_c, 0, 55, 40
1, 108549, Note_off_c, 0, 62, 58
1, 108785, Note_on_c, 0, 55, 55
1, 108833, Note_on_c, 0, 79, 88
1, 108840, Note_on_c, 0, 69, 67
1, 108848, Control_c, 0, 64, 79
1, 108863, Control_c, 0, 64, 63
1, 108878, Control_c, 0, 64, 51
1, 108907, Control_c, 0, 64, 57
1, 108922, Control_c, 0, 64, 65
1, 108937, Control_c, 0, 64, 72
1, 108952, Control_c, 0, 64, 81
1, 108966, Control_c, 0, 64, 85
1, 109004, Note_on_c, 0, 62, 53
1, 109011, Control_c, 0, 64, 86
1, 109019, Note_on_c, 0, 78, 72
1, 109025, Control_c, 0, 64, 90
1, 109031, Note_off_c, 0, 55, 54
1, 109035, Note_off_c, 0, 79, 58
1, 109040, Control_c, 0, 64, 100
1, 109055, Control_c, 0, 64, 127
1, 109080, Note_on_c, 0, 76, 84
1, 109112, Note_off_c, 0, 78, 64
1, 109156, Note_on_c, 0, 74, 92
1, 109160, Note_off_c, 0, 76, 63
1, 109194, Note_off_c, 0, 74, 62
1, 109229, Note_off_c, 0, 62, 17
1, 109311, Note_on_c, 0, 55, 61
1, 109323, Control_c, 0, 64, 80
1, 109323, Note_on_c, 0, 72, 86
1, 109338, Control_c, 0, 64, 58
1, 109352, Control_c, 0, 64, 42
1, 109367, Control_c, 0, 64, 52
1, 109382, Control_c, 0, 64, 64
1, 109397, Control_c, 0, 64, 75
1, 109412, Control_c, 0, 64, 88
1, 109427, Control_c, 0, 64, 95
1, 109448, Control_c, 0, 64, 98
1, 109463, Control_c, 0, 64, 101
1, 109478, Control_c, 0, 64, 97
1, 109487, Note_on_c, 0, 71, 78
1, 109493, Note_on_c, 0, 62, 57
1, 109493, Control_c, 0, 64, 67
1, 109495, Note_off_c, 0, 72, 64
1, 109496, Note_off_c, 0, 69, 61
1, 109507, Note_off_c, 0, 71, 72
1, 109508, Control_c, 0, 64, 0
1, 109648, Note_on_c, 0, 67, 88
1, 109672, Note_off_c, 0, 67, 68
1, 109682, Note_off_c, 0, 55, 59
1, 109806, Note_on_c, 0, 55, 58
1, 109807, Note_off_c, 0, 62, 58
1, 109814, Note_on_c, 0, 69, 83
1, 109819, Control_c, 0, 64, 42
1, 109834, Control_c, 0, 64, 54
1, 109848, Control_c, 0, 64, 63
1, 109856, Note_off_c, 0, 69, 63
1, 109864, Note_on_c, 0, 70, 70
1, 109864, Control_c, 0, 64, 67
1, 109879, Control_c, 0, 64, 70
1, 109923, Note_on_c, 0, 69, 71
1, 109931, Note_off_c, 0, 70, 63
1, 109938, Control_c, 0, 64, 70
1, 109953, Control_c, 0, 64, 71
1, 109967, Note_off_c, 0, 69, 60
1, 109968, Note_on_c, 0, 70, 59
1, 109968, Control_c, 0, 64, 71
1, 109983, Control_c, 0, 64, 72
1, 109986, Note_on_c, 0, 62, 54
1, 110028, Control_c, 0, 64, 71
1, 110031, Note_on_c, 0, 69, 67
1, 110037, Note_off_c, 0, 70, 65
1, 110043, Control_c, 0, 64, 70
1, 110057, Control_c, 0, 64, 65
1, 110072, Control_c, 0, 64, 53
1, 110087, Control_c, 0, 64, 0
1, 110113, Note_off_c, 0, 69, 63
1, 110127, Note_on_c, 0, 67, 73
1, 110161, Note_off_c, 0, 55, 37
1, 110199, Control_c, 0, 64, 47
1, 110213, Control_c, 0, 64, 62
1, 110228, Control_c, 0, 64, 66
1, 110243, Control_c, 0, 64, 67
1, 110272, Control_c, 0, 64, 67
1, 110287, Control_c, 0, 64, 68
1, 110302, Control_c, 0, 64, 70
1, 110312, Note_on_c, 0, 55, 54
1, 110317, Note_off_c, 0, 62, 59
1, 110317, Control_c, 0, 64, 71
1, 110332, Control_c, 0, 64, 73
1, 110346, Control_c, 0, 64, 75
1, 110361, Control_c, 0, 64, 79
1, 110376, Control_c, 0, 64, 88
1, 110391, Control_c, 0, 64, 98
1, 110406, Control_c, 0, 64, 112
1, 110420, Control_c, 0, 64, 127
1, 110484, Note_off_c, 0, 67, 46
1, 110488, Note_on_c, 0, 62, 56
1, 110504, Note_off_c, 0, 55, 40
1, 110522, Note_off_c, 0, 62, 64
1, 110785, Note_on_c, 0, 62, 82
1, 110786, Note_on_c, 0, 55, 63
1, 110791, Control_c, 0, 64, 94
1, 110806, Control_c, 0, 64, 71
1, 110821, Control_c, 0, 64, 62
1, 110835, Control_c, 0, 64, 61
1, 110850, Control_c, 0, 64, 64
1, 110865, Control_c, 0, 64, 68
1, 110880, Control_c, 0, 64, 71
1, 110894, Control_c, 0, 64, 73
1, 110909, Control_c, 0, 64, 75
1, 110924, Control_c, 0, 64, 79
1, 110947, Control_c, 0, 64, 84
1, 110962, Control_c, 0, 64, 90
1, 110966, Note_on_c, 0, 67, 74
1, 110976, Control_c, 0, 64, 92
1, 110989, Note_off_c, 0, 67, 69
1, 110991, Control_c, 0, 64, 93
1, 111006, Control_c, 0, 64, 94
1, 111020, Control_c, 0, 64, 97
1, 111035, Control_c, 0, 64, 102
1, 111050, Control_c, 0, 64, 107
1, 111068, Note_off_c, 0, 55, 32
1, 111080, Control_c, 0, 64, 109
1, 111109, Control_c, 0, 64, 111
1, 111135, Note_on_c, 0, 69, 81
1, 111194, Note_on_c, 0, 71, 79
1, 111213, Control_c, 0, 64, 113
1, 111227, Control_c, 0, 64, 115
1, 111229, Note_off_c, 0, 62, 39
1, 111242, Control_c, 0, 64, 124
1, 111257, Control_c, 0, 64, 127
1, 111269, Note_on_c, 0, 55, 72
1, 111271, Note_on_c, 0, 72, 86
1, 111272, Control_c, 0, 64, 119
1, 111280, Note_off_c, 0, 71, 64
1, 111287, Control_c, 0, 64, 85
1, 111302, Control_c, 0, 64, 64
1, 111317, Control_c, 0, 64, 42
1, 111332, Control_c, 0, 64, 40
1, 111347, Control_c, 0, 64, 52
1, 111361, Control_c, 0, 64, 63
1, 111376, Control_c, 0, 64, 66
1, 111391, Control_c, 0, 64, 65
1, 111406, Control_c, 0, 64, 63
1, 111420, Control_c, 0, 64, 64
1, 111428, Note_off_c, 0, 72, 64
1, 111429, Note_on_c, 0, 74, 86
1, 111435, Control_c, 0, 64, 64
1, 111439, Note_on_c, 0, 62, 59
1, 111450, Note_off_c, 0, 74, 71
1, 111450, Control_c, 0, 64, 58
1, 111466, Control_c, 0, 64, 0
1, 111591, Note_on_c, 0, 74, 86
1, 111618, Note_off_c, 0, 74, 63
1, 111638, Note_off_c, 0, 55, 59
1, 111755, Note_off_c, 0, 62, 62
1, 111756, Note_on_c, 0, 76, 84
1, 111758, Note_on_c, 0, 55, 69
1, 111770, Control_c, 0, 64, 37
1, 111785, Control_c, 0, 64, 55
1, 111799, Control_c, 0, 64, 50
1, 111807, Note_off_c, 0, 76, 63
1, 111813, Note_on_c, 0, 77, 75
1, 111814, Control_c, 0, 64, 46
1, 111829, Control_c, 0, 64, 49
1, 111843, Control_c, 0, 64, 56
1, 111858, Control_c, 0, 64, 62
1, 111873, Control_c, 0, 64, 64
1, 111876, Note_on_c, 0, 76, 76
1, 111878, Note_off_c, 0, 77, 63
1, 111888, Control_c, 0, 64, 64
1, 111903, Control_c, 0, 64, 63
1, 111908, Note_on_c, 0, 62, 55
1, 111917, Control_c, 0, 64, 62
1, 111932, Control_c, 0, 64, 63
1, 111933, Note_off_c, 0, 76, 64
1, 111942, Note_on_c, 0, 77, 66
1, 111947, Control_c, 0, 64, 63
1, 111977, Control_c, 0, 64, 63
1, 111982, Note_on_c, 0, 76, 69
1, 111988, Note_off_c, 0, 77, 64
1, 111991, Control_c, 0, 64, 61
1, 112006, Control_c, 0, 64, 58
1, 112021, Control_c, 0, 64, 52
1, 112035, Control_c, 0, 64, 0
1, 112046, Note_off_c, 0, 76, 63
1, 112056, Note_on_c, 0, 74, 82
1, 112110, Control_c, 0, 64, 52
1, 112125, Control_c, 0, 64, 64
1, 112131, Note_off_c, 0, 55, 41
1, 112140, Control_c, 0, 64, 67
1, 112154, Control_c, 0, 64, 68
1, 112199, Control_c, 0, 64, 69
1, 112238, Note_on_c, 0, 55, 63
1, 112241, Note_off_c, 0, 62, 62
1, 112243, Control_c, 0, 64, 69
1, 112259, Control_c, 0, 64, 70
1, 112274, Control_c, 0, 64, 74
1, 112289, Control_c, 0, 64, 80
1, 112304, Control_c, 0, 64, 87
1, 112318, Control_c, 0, 64, 91
1, 112333, Control_c, 0, 64, 94
1, 112348, Control_c, 0, 64, 96
1, 112363, Control_c, 0, 64, 102
1, 112378, Control_c, 0, 64, 124
1, 112385, Note_off_c, 0, 69, 58
1, 112393, Control_c, 0, 64, 127
1, 112405, Note_on_c, 0, 62, 65
1, 112429, Note_off_c, 0, 74, 54
1, 112440, Note_off_c, 0, 55, 41
1, 112444, Note_off_c, 0, 62, 66
1, 112586, Poly_aftertouch_c, 0, 74, 127
1, 112681, Control_c, 0, 64, 77
1, 112685, Note_on_c, 0, 55, 69
1, 112693, Note_on_c, 0, 62, 74
1, 112696, Control_c, 0, 64, 59
1, 112706, Poly_aftertouch_c, 0, 74, 0
1, 112711, Control_c, 0, 64, 49
1, 112717, Note_off_c, 0, 62, 69
1, 112726, Control_c, 0, 64, 56
1, 112740, Control_c, 0, 64, 65
1, 112742, Poly_aftertouch_c, 0, 74, 127
1, 112755, Control_c, 0, 64, 74
1, 112770, Control_c, 0, 64, 81
1, 112777, Poly_aftertouch_c, 0, 74, 0
1, 112814, Control_c, 0, 64, 81
1, 112829, Control_c, 0, 64, 82
1, 112844, Control_c, 0, 64, 84
1, 112858, Control_c, 0, 64, 85
1, 112860, Note_on_c, 0, 62, 62
1, 112864, Note_on_c, 0, 67, 80
1, 112873, Note_off_c, 0, 55, 45
1, 112889, Note_off_c, 0, 62, 66
1, 112903, Control_c, 0, 64, 87
1, 112918, Control_c, 0, 64, 93
1, 112932, Control_c, 0, 64, 100
1, 112947, Control_c, 0, 64, 106
1, 112977, Control_c, 0, 64, 111
1, 112992, Control_c, 0, 64, 127
1, 113011, Note_off_c, 0, 67, 65
1, 113028, Note_on_c, 0, 62, 77
1, 113085, Note_off_c, 0, 62, 60
1, 113102, Note_on_c, 0, 67, 79
1, 113155, Note_on_c, 0, 55, 74
1, 113155, Note_on_c, 0, 69, 80
1, 113156, Note_off_c, 0, 67, 65
1, 113156, Control_c, 0, 64, 77
1, 113171, Control_c, 0, 64, 57
1, 113194, Control_c, 0, 64, 35
1, 113209, Control_c, 0, 64, 41
1, 113223, Control_c, 0, 64, 54
1, 113238, Control_c, 0, 64, 64
1, 113253, Control_c, 0, 64, 69
1, 113268, Control_c, 0, 64, 70
1, 113297, Control_c, 0, 64, 71
1, 113312, Control_c, 0, 64, 73
1, 113327, Control_c, 0, 64, 74
1, 113333, Note_on_c, 0, 71, 87
1, 113342, Note_on_c, 0, 62, 63
1, 113359, Note_off_c, 0, 55, 60
1, 113365, Note_off_c, 0, 69, 42
1, 113370, Note_off_c, 0, 62, 66
1, 113374, Note_off_c, 0, 71, 66
1, 113386, Control_c, 0, 64, 76
1, 113401, Control_c, 0, 64, 79
1, 113415, Control_c, 0, 64, 84
1, 113430, Control_c, 0, 64, 87
1, 113445, Control_c, 0, 64, 87
1, 113460, Control_c, 0, 64, 88
1, 113475, Control_c, 0, 64, 89
1, 113490, Control_c, 0, 64, 90
1, 113493, Note_on_c, 0, 71, 72
1, 113505, Control_c, 0, 64, 92
1, 113520, Control_c, 0, 64, 95
1, 113526, Note_off_c, 0, 71, 67
1, 113534, Note_on_c, 0, 69, 14
1, 113534, Note_off_c, 0, 69, 127
1, 113535, Control_c, 0, 64, 97
1, 113550, Control_c, 0, 64, 103
1, 113564, Control_c, 0, 64, 127
1, 113573, Poly_aftertouch_c, 0, 69, 0
1, 113623, Control_c, 0, 64, 89
1, 113624, Note_on_c, 0, 55, 78
1, 113638, Control_c, 0, 64, 58
1, 113646, Note_on_c, 0, 69, 88
1, 113653, Control_c, 0, 64, 0
1, 113681, Note_on_c, 0, 70, 77
1, 113682, Note_off_c, 0, 69, 62
1, 113697, Control_c, 0, 64, 60
1, 113712, Control_c, 0, 64, 73
1, 113727, Control_c, 0, 64, 80
1, 113747, Note_on_c, 0, 69, 73
1, 113770, Control_c, 0, 64, 82
1, 113778, Note_off_c, 0, 70, 0
1, 113785, Control_c, 0, 64, 87
1, 113790, Note_on_c, 0, 70, 55
1, 113794, Note_off_c, 0, 69, 63
1, 113799, Control_c, 0, 64, 96
1, 113813, Note_on_c, 0, 62, 65
1, 113814, Control_c, 0, 64, 106
1, 113840, Note_on_c, 0, 69, 70
1, 113842, Note_off_c, 0, 62, 66
1, 113844, Control_c, 0, 64, 109
1, 113852, Note_off_c, 0, 70, 64
1, 113854, Note_off_c, 0, 55, 63
1, 113860, Control_c, 0, 64, 127
1, 113860, Control_c, 0, 67, 121
1, 113874, Control_c, 0, 67, 94
1, 113889, Control_c, 0, 67, 87
1, 113904, Note_off_c, 0, 69, 61
1, 113904, Control_c, 0, 67, 90
1, 113917, Note_on_c, 0, 67, 93
1, 113919, Control_c, 0, 67, 88
1, 113941, Control_c, 0, 67, 82
1, 113956, Control_c, 0, 67, 73
1, 113971, Control_c, 0, 67, 56
1, 113985, Control_c, 0, 67, 49
1, 114029, Control_c, 0, 67, 45
1, 114044, Control_c, 0, 67, 27
1, 114059, Control_c, 0, 67, 0
1, 114104, Control_c, 0, 64, 72
1, 114114, Note_on_c, 0, 55, 92
1, 114119, Control_c, 0, 64, 50
1, 114134, Control_c, 0, 64, 48
1, 114149, Control_c, 0, 64, 62
1, 114164, Control_c, 0, 64, 90
1, 114179, Control_c, 0, 64, 127
1, 114289, Note_on_c, 0, 50, 86
1, 114298, Note_off_c, 0, 67, 61
1, 114307, Note_on_c, 0, 69, 74
1, 114312, Note_off_c, 0, 55, 58
1, 114351, Note_off_c, 0, 69, 63
1, 114363, Note_on_c, 0, 71, 84
1, 114399, Note_off_c, 0, 71, 59
1, 114432, Note_on_c, 0, 72, 80
1, 114485, Note_off_c, 0, 72, 65
1, 114486, Note_on_c, 0, 74, 82
1, 114533, Note_on_c, 0, 76, 90
1, 114533, Note_off_c, 0, 74, 65
1, 114583, Note_on_c, 0, 77, 82
1, 114586, Note_off_c, 0, 76, 67
1, 114609, Note_off_c, 0, 50, 50
1, 114632, Note_on_c, 0, 43, 96
1, 114637, Control_c, 0, 64, 117
1, 114652, Control_c, 0, 64, 60
1, 114665, Note_on_c, 0, 79, 94
1, 114666, Note_on_c, 0, 69, 85
1, 114667, Control_c, 0, 64, 0
1, 114682, Note_off_c, 0, 77, 65
1, 114749, Control_c, 0, 64, 54
1, 114764, Control_c, 0, 64, 70
1, 114778, Control_c, 0, 64, 78
1, 114793, Control_c, 0, 64, 86
1, 114808, Control_c, 0, 64, 94
1, 114823, Control_c, 0, 64, 111
1, 114838, Control_c, 0, 64, 127
1, 114870, Note_on_c, 0, 50, 68
1, 114877, Note_on_c, 0, 78, 81
1, 114897, Note_off_c, 0, 79, 62
1, 114903, Note_off_c, 0, 43, 61
1, 114912, Note_off_c, 0, 50, 61
1, 114930, Note_on_c, 0, 76, 85
1, 114962, Note_off_c, 0, 78, 62
1, 114999, Note_off_c, 0, 76, 65
1, 115000, Note_on_c, 0, 74, 88
1, 115040, Note_off_c, 0, 74, 65
1, 115157, Note_on_c, 0, 55, 88
1, 115162, Note_on_c, 0, 72, 93
1, 115178, Control_c, 0, 64, 74
1, 115193, Control_c, 0, 64, 59
1, 115208, Control_c, 0, 64, 61
1, 115223, Control_c, 0, 64, 71
1, 115238, Control_c, 0, 64, 114
1, 115252, Control_c, 0, 64, 127
1, 115320, Note_on_c, 0, 62, 85
1, 115323, Note_on_c, 0, 74, 90
1, 115324, Note_off_c, 0, 55, 63
1, 115327, Note_off_c, 0, 72, 61
1, 115344, Note_off_c, 0, 74, 69
1, 115351, Note_off_c, 0, 62, 63
1, 115481, Note_on_c, 0, 74, 100
1, 115526, Note_off_c, 0, 74, 65
1, 115617, Control_c, 0, 64, 62
1, 115632, Control_c, 0, 64, 0
1, 115632, Control_c, 0, 67, 20
1, 115638, Note_on_c, 0, 43, 92
1, 115647, Control_c, 0, 67, 27
1, 115654, Note_on_c, 0, 76, 85
1, 115662, Control_c, 0, 64, 38
1, 115662, Control_c, 0, 67, 23
1, 115676, Control_c, 0, 64, 71
1, 115676, Control_c, 0, 67, 21
1, 115691, Control_c, 0, 64, 127
1, 115699, Note_off_c, 0, 76, 64
1, 115707, Note_on_c, 0, 77, 79
1, 115721, Control_c, 0, 67, 25
1, 115750, Control_c, 0, 67, 21
1, 115765, Control_c, 0, 67, 0
1, 115776, Note_off_c, 0, 77, 66
1, 115780, Note_on_c, 0, 76, 80
1, 115791, Note_on_c, 0, 50, 68
1, 115822, Note_off_c, 0, 50, 66
1, 115823, Note_off_c, 0, 43, 61
1, 115840, Note_off_c, 0, 69, 59
1, 115911, Note_off_c, 0, 76, 51
1, 115944, Note_on_c, 0, 74, 83
1, 115952, Note_on_c, 0, 69, 81
1, 115958, Control_c, 0, 64, 73
1, 115973, Control_c, 0, 64, 62
1, 115988, Control_c, 0, 64, 63
1, 116001, Note_off_c, 0, 69, 63
1, 116002, Control_c, 0, 64, 75
1, 116017, Control_c, 0, 64, 127
1, 116116, Note_on_c, 0, 55, 82
1, 116116, Note_on_c, 0, 69, 87
1, 116150, Control_c, 0, 64, 115
1, 116155, Note_off_c, 0, 69, 65
1, 116165, Control_c, 0, 64, 127
1, 116281, Note_on_c, 0, 71, 79
1, 116283, Note_on_c, 0, 62, 85
1, 116292, Control_c, 0, 64, 83
1, 116305, Note_off_c, 0, 62, 70
1, 116307, Control_c, 0, 64, 62
1, 116307, Note_off_c, 0, 55, 65
1, 116319, Note_off_c, 0, 71, 65
1, 116321, Note_on_c, 0, 72, 70
1, 116322, Control_c, 0, 64, 57
1, 116337, Control_c, 0, 64, 72
1, 116343, Note_off_c, 0, 74, 61
1, 116352, Control_c, 0, 64, 127
1, 116393, Note_on_c, 0, 71, 84
1, 116401, Note_off_c, 0, 72, 64
1, 116444, Note_off_c, 0, 71, 64
1, 116450, Note_on_c, 0, 72, 82
1, 116500, Note_off_c, 0, 72, 65
1, 116508, Note_on_c, 0, 71, 83
1, 116544, Control_c, 0, 64, 79
1, 116549, Note_off_c, 0, 71, 64
1, 116558, Control_c, 0, 64, 0
1, 116579, Note_on_c, 0, 43, 92
1, 116580, Note_on_c, 0, 79, 97
1, 116584, Note_on_c, 0, 69, 92
1, 116618, Control_c, 0, 64, 61
1, 116632, Control_c, 0, 64, 81
1, 116647, Control_c, 0, 64, 101
1, 116662, Control_c, 0, 64, 106
1, 116692, Control_c, 0, 64, 127
1, 116772, Note_on_c, 0, 78, 81
1, 116775, Note_on_c, 0, 50, 79
1, 116779, Note_off_c, 0, 79, 63
1, 116785, Note_off_c, 0, 43, 61
1, 116808, Note_off_c, 0, 50, 63
1, 116824, Note_on_c, 0, 76, 84
1, 116844, Note_off_c, 0, 78, 63
1, 116886, Note_off_c, 0, 76, 63
1, 116890, Note_on_c, 0, 74, 94
1, 116933, Note_off_c, 0, 74, 68
1, 117070, Control_c, 0, 64, 78
1, 117070, Control_c, 0, 67, 23
1, 117071, Note_on_c, 0, 55, 82
1, 117075, Note_on_c, 0, 72, 100
1, 117085, Control_c, 0, 64, 45
1, 117085, Control_c, 0, 67, 20
1, 117100, Control_c, 0, 64, 0
1, 117100, Control_c, 0, 67, 0
1, 117115, Control_c, 0, 64, 49
1, 117130, Control_c, 0, 64, 74
1, 117145, Control_c, 0, 64, 127
1, 117156, Note_off_c, 0, 69, 59
1, 117233, Note_on_c, 0, 62, 76
1, 117234, Note_on_c, 0, 71, 89
1, 117249, Note_off_c, 0, 72, 64
1, 117249, Note_off_c, 0, 55, 63
1, 117258, Note_off_c, 0, 71, 68
1, 117263, Note_off_c, 0, 62, 64
1, 117392, Note_on_c, 0, 67, 91
1, 117428, Note_off_c, 0, 67, 65
1, 117515, Control_c, 0, 64, 105
1, 117529, Control_c, 0, 64, 67
1, 117542, Note_on_c, 0, 43, 82
1, 117544, Control_c, 0, 64, 35
1, 117553, Note_on_c, 0, 69, 90
1, 117559, Control_c, 0, 64, 47
1, 117569, Note_on_c, 0, 70, 75
1, 117574, Control_c, 0, 64, 64
1, 117578, Note_off_c, 0, 69, 65
1, 117589, Control_c, 0, 64, 88
1, 117604, Control_c, 0, 64, 127
1, 117657, Note_on_c, 0, 69, 75
1, 117663, Note_off_c, 0, 70, 63
1, 117712, Note_on_c, 0, 70, 74
1, 117714, Note_on_c, 0, 50, 77
1, 117716, Note_off_c, 0, 69, 63
1, 117752, Note_off_c, 0, 50, 62
1, 117754, Note_off_c, 0, 43, 61
1, 117761, Note_off_c, 0, 70, 67
1, 117776, Note_on_c, 0, 69, 67
1, 117799, Note_off_c, 0, 69, 69
1, 117864, Control_c, 0, 64, 93
1, 117870, Note_on_c, 0, 67, 77
1, 117878, Control_c, 0, 64, 66
1, 117882, Note_on_c, 0, 60, 62
1, 117886, Note_on_c, 0, 66, 54
1, 117893, Control_c, 0, 64, 51
1, 117899, Note_on_c, 0, 62, 50
1, 117905, Note_off_c, 0, 60, 61
1, 117908, Control_c, 0, 64, 59
1, 117910, Note_off_c, 0, 66, 38
1, 117923, Control_c, 0, 64, 71
1, 117928, Note_off_c, 0, 62, 54
1, 117938, Control_c, 0, 64, 107
1, 117938, Control_c, 0, 67, 22
1, 117952, Control_c, 0, 64, 127
1, 117967, Control_c, 0, 67, 0
1, 118025, Note_on_c, 0, 62, 70
1, 118030, Note_on_c, 0, 55, 83
1, 118072, Note_off_c, 0, 62, 63
1, 118093, Note_off_c, 0, 55, 58
1, 118185, Note_on_c, 0, 64, 84
1, 118185, Note_on_c, 0, 50, 84
1, 118207, Note_off_c, 0, 50, 69
1, 118230, Note_off_c, 0, 64, 65
1, 118239, Note_on_c, 0, 65, 78
1, 118264, Note_off_c, 0, 67, 58
1, 118301, Note_on_c, 0, 64, 79
1, 118304, Note_off_c, 0, 65, 65
1, 118353, Note_on_c, 0, 65, 78
1, 118355, Note_off_c, 0, 64, 64
1, 118400, Note_off_c, 0, 65, 65
1, 118406, Note_on_c, 0, 64, 76
1, 118459, Note_off_c, 0, 64, 64
1, 118478, Control_c, 0, 64, 59
1, 118482, Note_on_c, 0, 43, 83
1, 118489, Note_on_c, 0, 62, 96
1, 118493, Control_c, 0, 64, 0
1, 118508, Control_c, 0, 67, 28
1, 118523, Control_c, 0, 67, 24
1, 118537, Control_c, 0, 64, 47
1, 118537, Control_c, 0, 67, 0
1, 118552, Control_c, 0, 64, 75
1, 118567, Control_c, 0, 64, 109
1, 118582, Control_c, 0, 64, 127
1, 118596, Control_c, 0, 67, 22
1, 118611, Control_c, 0, 67, 24
1, 118626, Control_c, 0, 67, 19
1, 118641, Control_c, 0, 67, 0
1, 118652, Note_off_c, 0, 62, 59
1, 118655, Note_on_c, 0, 50, 77
1, 118655, Note_on_c, 0, 67, 89
1, 118680, Note_off_c, 0, 43, 60
1, 118680, Note_off_c, 0, 50, 68
1, 118687, Note_off_c, 0, 67, 65
1, 118814, Note_on_c, 0, 69, 94
1, 118874, Note_on_c, 0, 71, 85
1, 118942, Note_on_c, 0, 55, 82
1, 118942, Note_on_c, 0, 72, 96
1, 118952, Note_off_c, 0, 71, 64
1, 118953, Control_c, 0, 64, 107
1, 118968, Control_c, 0, 64, 65
1, 118983, Control_c, 0, 64, 40
1, 118998, Control_c, 0, 64, 54
1, 119013, Control_c, 0, 64, 71
1, 119027, Control_c, 0, 64, 127
1, 119109, Note_off_c, 0, 72, 63
1, 119114, Note_on_c, 0, 62, 84
1, 119115, Note_on_c, 0, 74, 95
1, 119133, Note_off_c, 0, 55, 61
1, 119134, Note_off_c, 0, 74, 70
1, 119140, Note_off_c, 0, 62, 67
1, 119273, Note_on_c, 0, 74, 98
1, 119311, Note_off_c, 0, 74, 68
1, 119420, Control_c, 0, 64, 103
1, 119425, Note_on_c, 0, 43, 87
1, 119434, Control_c, 0, 64, 64
1, 119442, Note_on_c, 0, 76, 76
1, 119450, Control_c, 0, 64, 0
1, 119451, Note_on_c, 0, 74, 75
1, 119465, Control_c, 0, 64, 47
1, 119471, Note_off_c, 0, 74, 59
1, 119480, Control_c, 0, 64, 68
1, 119482, Note_off_c, 0, 76, 63
1, 119494, Note_on_c, 0, 77, 73
1, 119495, Control_c, 0, 64, 114
1, 119510, Control_c, 0, 64, 127
1, 119559, Note_on_c, 0, 76, 84
1, 119565, Note_off_c, 0, 77, 66
1, 119576, Note_on_c, 0, 50, 71
1, 119607, Note_off_c, 0, 43, 60
1, 119607, Note_off_c, 0, 76, 64
1, 119609, Note_off_c, 0, 50, 63
1, 119631, Note_off_c, 0, 69, 54
1, 119648, Note_on_c, 0, 76, 58
1, 119684, Note_off_c, 0, 76, 65
1, 119741, Note_on_c, 0, 74, 95
1, 119747, Note_on_c, 0, 69, 91
1, 119747, Control_c, 0, 64, 71
1, 119762, Control_c, 0, 64, 44
1, 119776, Control_c, 0, 64, 36
1, 119789, Note_off_c, 0, 69, 65
1, 119791, Control_c, 0, 64, 55
1, 119806, Control_c, 0, 64, 71
1, 119821, Control_c, 0, 64, 94
1, 119821, Control_c, 0, 67, 19
1, 119836, Control_c, 0, 64, 127
1, 119836, Control_c, 0, 67, 0
1, 119907, Note_on_c, 0, 55, 85
1, 119908, Note_on_c, 0, 69, 87
1, 119954, Note_off_c, 0, 69, 63
1, 120065, Control_c, 0, 64, 98
1, 120074, Note_on_c, 0, 71, 81
1, 120075, Note_off_c, 0, 55, 56
1, 120075, Note_on_c, 0, 62, 80
1, 120080, Control_c, 0, 64, 95
1, 120095, Control_c, 0, 64, 103
1, 120096, Note_off_c, 0, 62, 71
1, 120107, Note_on_c, 0, 72, 76
1, 120109, Control_c, 0, 64, 127
1, 120114, Note_off_c, 0, 71, 59
1, 120143, Note_off_c, 0, 74, 57
1, 120178, Note_on_c, 0, 71, 81
1, 120188, Note_off_c, 0, 72, 62
1, 120226, Note_off_c, 0, 71, 65
1, 120233, Note_on_c, 0, 72, 64
1, 120274, Note_on_c, 0, 71, 51
1, 120291, Note_off_c, 0, 72, 62
1, 120320, Note_off_c, 0, 71, 65
1, 120347, Control_c, 0, 64, 73
1, 120362, Control_c, 0, 64, 0
1, 120370, Note_on_c, 0, 74, 86
1, 120373, Note_on_c, 0, 43, 75
1, 120386, Note_on_c, 0, 69, 71
1, 120406, Note_on_c, 0, 45, 36
1, 120406, Note_off_c, 0, 45, 127
1, 120406, Control_c, 0, 64, 34
1, 120406, Control_c, 0, 67, 23
1, 120421, Control_c, 0, 64, 60
1, 120421, Control_c, 0, 67, 35
1, 120436, Control_c, 0, 64, 73
1, 120436, Control_c, 0, 67, 50
1, 120445, Note_off_c, 0, 69, 48
1, 120451, Control_c, 0, 64, 78
1, 120451, Control_c, 0, 67, 58
1, 120465, Control_c, 0, 67, 58
1, 120480, Control_c, 0, 64, 78
1, 120480, Control_c, 0, 67, 57
1, 120495, Control_c, 0, 64, 81
1, 120495, Control_c, 0, 67, 59
1, 120511, Control_c, 0, 64, 82
1, 120511, Control_c, 0, 67, 65
1, 120525, Control_c, 0, 67, 75
1, 120540, Control_c, 0, 67, 81
1, 120547, Note_on_c, 0, 67, 82
1, 120555, Control_c, 0, 67, 81
1, 120564, Note_on_c, 0, 50, 69
1, 120570, Control_c, 0, 67, 79
1, 120573, Note_off_c, 0, 43, 0
1, 120573, Note_on_c, 0, 43, 3
1, 120585, Control_c, 0, 67, 78
1, 120593, Note_off_c, 0, 50, 64
1, 120595, Note_off_c, 0, 43, 54
1, 120599, Control_c, 0, 64, 82
1, 120599, Control_c, 0, 67, 78
1, 120605, Note_off_c, 0, 67, 59
1, 120614, Control_c, 0, 67, 80
1, 120617, Note_on_c, 0, 62, 85
1, 120644, Control_c, 0, 67, 79
1, 120645, Note_off_c, 0, 74, 54
1, 120648, Note_off_c, 0, 62, 65
1, 120659, Control_c, 0, 64, 83
1, 120659, Control_c, 0, 67, 77
1, 120681, Control_c, 0, 64, 85
1, 120681, Control_c, 0, 67, 75
1, 120692, Note_on_c, 0, 67, 90
1, 120696, Control_c, 0, 64, 88
1, 120696, Control_c, 0, 67, 74
1, 120711, Control_c, 0, 64, 91
1, 120725, Control_c, 0, 64, 93
1, 120725, Control_c, 0, 67, 75
1, 120740, Control_c, 0, 64, 96
1, 120755, Control_c, 0, 64, 106
1, 120770, Control_c, 0, 64, 127
1, 120799, Control_c, 0, 67, 76
1, 120814, Control_c, 0, 67, 80
1, 120829, Control_c, 0, 67, 82
1, 120839, Note_on_c, 0, 55, 78
1, 120843, Note_on_c, 0, 69, 86
1, 120844, Control_c, 0, 64, 67
1, 120859, Control_c, 0, 64, 0
1, 120870, Note_off_c, 0, 67, 63
1, 120894, Note_off_c, 0, 69, 65
1, 120903, Control_c, 0, 64, 61
1, 120903, Control_c, 0, 67, 84
1, 120918, Control_c, 0, 64, 76
1, 120918, Control_c, 0, 67, 90
1, 120933, Control_c, 0, 64, 91
1, 120933, Control_c, 0, 67, 101
1, 120948, Control_c, 0, 64, 94
1, 120948, Control_c, 0, 67, 106
1, 120963, Control_c, 0, 64, 92
1, 120978, Control_c, 0, 64, 92
1, 120993, Control_c, 0, 64, 93
1, 121007, Note_on_c, 0, 71, 90
1, 121007, Control_c, 0, 64, 98
1, 121008, Note_on_c, 0, 62, 75
1, 121022, Control_c, 0, 64, 102
1, 121029, Note_off_c, 0, 55, 61
1, 121042, Note_off_c, 0, 62, 63
1, 121047, Note_off_c, 0, 71, 66
1, 121082, Control_c, 0, 64, 106
1, 121082, Control_c, 0, 67, 104
1, 121097, Control_c, 0, 64, 122
1, 121112, Control_c, 0, 64, 127
1, 121157, Note_on_c, 0, 71, 80
1, 121171, Control_c, 0, 67, 101
1, 121200, Note_off_c, 0, 71, 65
1, 121303, Control_c, 0, 64, 74
1, 121309, Note_on_c, 0, 43, 74
1, 121315, Note_on_c, 0, 69, 82
1, 121318, Control_c, 0, 64, 42
1, 121333, Control_c, 0, 64, 0
1, 121343, Note_on_c, 0, 70, 72
1, 121347, Note_off_c, 0, 69, 59
1, 121348, Control_c, 0, 64, 45
1, 121362, Control_c, 0, 64, 67
1, 121377, Control_c, 0, 64, 94
1, 121392, Control_c, 0, 64, 127
1, 121392, Control_c, 0, 67, 104
1, 121434, Note_off_c, 0, 70, 64
1, 121437, Note_on_c, 0, 69, 72
1, 121459, Control_c, 0, 67, 106
1, 121476, Note_on_c, 0, 50, 68
1, 121478, Note_off_c, 0, 69, 60
1, 121479, Note_on_c, 0, 70, 66
1, 121507, Note_off_c, 0, 50, 65
1, 121523, Note_off_c, 0, 70, 66
1, 121526, Note_off_c, 0, 43, 61
1, 121535, Note_on_c, 0, 69, 74
1, 121562, Control_c, 0, 67, 109
1, 121565, Note_off_c, 0, 69, 62
1, 121577, Control_c, 0, 67, 111
1, 121622, Control_c, 0, 64, 104
1, 121637, Control_c, 0, 64, 65
1, 121640, Note_on_c, 0, 65, 85
1, 121646, Note_on_c, 0, 67, 70
1, 121652, Control_c, 0, 64, 40
1, 121666, Control_c, 0, 64, 37
1, 121666, Control_c, 0, 67, 113
1, 121669, Note_off_c, 0, 65, 66
1, 121681, Control_c, 0, 64, 50
1, 121696, Control_c, 0, 64, 63
1, 121711, Control_c, 0, 64, 68
1, 121711, Control_c, 0, 67, 117
1, 121726, Control_c, 0, 64, 69
1, 121726, Control_c, 0, 67, 122
1, 121741, Control_c, 0, 64, 70
1, 121741, Control_c, 0, 67, 127
1, 121755, Control_c, 0, 64, 72
1, 121770, Control_c, 0, 64, 74
1, 121785, Control_c, 0, 64, 70
1, 121799, Note_on_c, 0, 55, 67
1, 121800, Control_c, 0, 64, 58
1, 121810, Note_on_c, 0, 65, 76
1, 121815, Control_c, 0, 64, 0
1, 121832, Note_off_c, 0, 65, 69
1, 121860, Control_c, 0, 64, 59
1, 121875, Control_c, 0, 64, 70
1, 121890, Control_c, 0, 64, 76
1, 121919, Control_c, 0, 64, 75
1, 121949, Control_c, 0, 64, 76
1, 121971, Note_on_c, 0, 64, 66
1, 121971, Note_off_c, 0, 55, 54
1, 121978, Control_c, 0, 64, 73
1, 121979, Note_on_c, 0, 50, 64
1, 121993, Control_c, 0, 64, 63
1, 122008, Control_c, 0, 64, 38
1, 122010, Note_off_c, 0, 64, 54
1, 122011, Note_off_c, 0, 50, 62
1, 122023, Control_c, 0, 64, 0
1, 122024, Note_on_c, 0, 65, 54
1, 122038, Control_c, 0, 64, 50
1, 122052, Control_c, 0, 64, 68
1, 122067, Control_c, 0, 64, 82
1, 122082, Control_c, 0, 64, 85
1, 122096, Control_c, 0, 64, 79
1, 122098, Note_on_c, 0, 64, 71
1, 122099, Note_off_c, 0, 65, 65
1, 122111, Control_c, 0, 64, 69
1, 122126, Control_c, 0, 64, 68
1, 122141, Control_c, 0, 64, 73
1, 122144, Note_off_c, 0, 64, 60
1, 122156, Control_c, 0, 64, 81
1, 122171, Note_on_c, 0, 65, 69
1, 122178, Control_c, 0, 64, 90
1, 122193, Control_c, 0, 64, 93
1, 122194, Note_off_c, 0, 67, 30
1, 122221, Note_off_c, 0, 65, 64
1, 122228, Note_on_c, 0, 64, 72
1, 122263, Note_off_c, 0, 64, 61
1, 122267, Control_c, 0, 64, 94
1, 122311, Control_c, 0, 64, 91
1, 122326, Control_c, 0, 64, 77
1, 122333, Note_on_c, 0, 43, 56
1, 122341, Control_c, 0, 64, 59
1, 122356, Control_c, 0, 64, 0
1, 122362, Note_on_c, 0, 69, 73
1, 122373, Note_on_c, 0, 62, 61
1, 122430, Control_c, 0, 64, 49
1, 122445, Control_c, 0, 64, 67
1, 122459, Control_c, 0, 64, 74
1, 122474, Control_c, 0, 64, 75
1, 122489, Control_c, 0, 64, 74
1, 122504, Control_c, 0, 64, 74
1, 122534, Control_c, 0, 64, 74
1, 122591, Note_on_c, 0, 74, 67
1, 122607, Note_off_c, 0, 69, 60
1, 122615, Note_on_c, 0, 50, 42
1, 122636, Note_off_c, 0, 74, 60
1, 122638, Control_c, 0, 64, 75
1, 122698, Control_c, 0, 64, 75
1, 122713, Control_c, 0, 64, 76
1, 122714, Note_off_c, 0, 43, 35
1, 122727, Control_c, 0, 64, 76
1, 122772, Note_on_c, 0, 69, 68
1, 122772, Control_c, 0, 64, 77
1, 122787, Control_c, 0, 64, 77
1, 122802, Control_c, 0, 64, 78
1, 122809, Note_off_c, 0, 50, 59
1, 122817, Control_c, 0, 64, 81
1, 122832, Control_c, 0, 64, 82
1, 122847, Control_c, 0, 64, 83
1, 122873, Note_off_c, 0, 62, 35
1, 122876, Control_c, 0, 64, 83
1, 122891, Control_c, 0, 64, 84
1, 122906, Control_c, 0, 64, 85
1, 122923, Note_on_c, 0, 74, 66
1, 122927, Control_c, 0, 64, 85
1, 122933, Note_off_c, 0, 69, 61
1, 122952, Note_off_c, 0, 74, 64
1, 123076, Control_c, 0, 64, 85
1, 123078, Note_on_c, 0, 69, 61
1, 123180, Control_c, 0, 64, 84
1, 123218, Note_on_c, 0, 74, 65
1, 123220, Note_off_c, 0, 69, 59
1, 123224, Control_c, 0, 64, 84
1, 123236, Note_on_c, 0, 62, 44
1, 123238, Control_c, 0, 64, 83
1, 123250, Note_off_c, 0, 74, 63
1, 123253, Control_c, 0, 64, 82
1, 123327, Control_c, 0, 64, 81
1, 123336, Note_off_c, 0, 62, 43
1, 123342, Control_c, 0, 64, 79
1, 123357, Note_on_c, 0, 69, 66
1, 123357, Control_c, 0, 64, 78
1, 123365, Note_on_c, 0, 67, 53
1, 123431, Control_c, 0, 64, 77
1, 123476, Note_off_c, 0, 69, 0
1, 123476, Note_on_c, 0, 69, 13
1, 123480, Note_off_c, 0, 67, 35
1, 123498, Note_on_c, 0, 74, 65
1, 123503, Note_on_c, 0, 62, 47
1, 123512, Note_off_c, 0, 69, 59
1, 123530, Note_off_c, 0, 74, 63
1, 123617, Note_off_c, 0, 62, 51
1, 123625, Control_c, 0, 64, 76
1, 123625, Note_on_c, 0, 69, 66
1, 123634, Note_on_c, 0, 67, 48
1, 123640, Control_c, 0, 64, 75
1, 123655, Control_c, 0, 64, 74
1, 123691, Control_c, 0, 64, 75
1, 123721, Control_c, 0, 64, 75
1, 123752, Note_off_c, 0, 67, 35
1, 123771, Note_on_c, 0, 62, 52
1, 123775, Note_on_c, 0, 74, 64
1, 123791, Note_off_c, 0, 69, 61
1, 123795, Control_c, 0, 64, 76
1, 123802, Note_off_c, 0, 74, 66
1, 123810, Control_c, 0, 64, 76
1, 123825, Control_c, 0, 64, 77
1, 123869, Note_off_c, 0, 62, 48
1, 123869, Control_c, 0, 64, 76
1, 123884, Control_c, 0, 64, 76
1, 123899, Control_c, 0, 64, 74
1, 123908, Note_on_c, 0, 72, 66
1, 123911, Note_on_c, 0, 67, 49
1, 123914, Control_c, 0, 64, 71
1, 123929, Control_c, 0, 64, 68
1, 123943, Control_c, 0, 64, 67
1, 123961, Note_off_c, 0, 72, 63
1, 123967, Note_on_c, 0, 74, 72
1, 123973, Control_c, 0, 64, 68
1, 123988, Control_c, 0, 64, 68
1, 124003, Control_c, 0, 64, 69
1, 124006, Note_off_c, 0, 67, 35
1, 124017, Control_c, 0, 64, 70
1, 124023, Note_on_c, 0, 62, 56
1, 124029, Note_off_c, 0, 74, 60
1, 124030, Note_on_c, 0, 72, 66
1, 124047, Control_c, 0, 64, 69
1, 124062, Control_c, 0, 64, 67
1, 124076, Control_c, 0, 64, 66
1, 124082, Note_on_c, 0, 71, 70
1, 124093, Note_off_c, 0, 72, 55
1, 124113, Note_off_c, 0, 62, 34
1, 124121, Control_c, 0, 64, 66
1, 124135, Note_on_c, 0, 67, 57
1, 124135, Control_c, 0, 64, 67
1, 124148, Note_off_c, 0, 71, 63
1, 124150, Control_c, 0, 64, 68
1, 124152, Note_on_c, 0, 69, 67
1, 124180, Control_c, 0, 64, 68
1, 124195, Control_c, 0, 64, 69
1, 124236, Note_off_c, 0, 67, 48
1, 124264, Note_on_c, 0, 62, 57
1, 124266, Note_off_c, 0, 69, 55
1, 124275, Note_on_c, 0, 74, 70
1, 124284, Control_c, 0, 64, 70
1, 124305, Note_off_c, 0, 74, 64
1, 124363, Note_off_c, 0, 62, 49
1, 124392, Note_on_c, 0, 67, 53
1, 124403, Control_c, 0, 64, 70
1, 124409, Note_on_c, 0, 76, 80
1, 124499, Control_c, 0, 64, 71
1, 124514, Note_off_c, 0, 67, 36
1, 124524, Note_on_c, 0, 62, 56
1, 124552, Note_off_c, 0, 76, 63
1, 124603, Control_c, 0, 64, 71
1, 124631, Note_off_c, 0, 62, 31
1, 124650, Note_on_c, 0, 67, 52
1, 124663, Note_on_c, 0, 74, 75
1, 124719, Note_on_c, 0, 72, 78
1, 124720, Note_off_c, 0, 74, 63
1, 124764, Note_on_c, 0, 62, 63
1, 124765, Note_off_c, 0, 72, 60
1, 124771, Note_on_c, 0, 71, 81
1, 124779, Note_off_c, 0, 67, 36
1, 124791, Note_off_c, 0, 71, 72
1, 124883, Note_off_c, 0, 62, 50
1, 124892, Note_on_c, 0, 67, 60
1, 124904, Note_on_c, 0, 69, 87
1, 125000, Note_off_c, 0, 67, 55
1, 125017, Note_on_c, 0, 62, 67
1, 125026, Note_on_c, 0, 79, 78
1, 125026, Note_off_c, 0, 69, 55
1, 125034, Note_on_c, 0, 78, 76
1, 125034, Control_c, 0, 64, 72
1, 125051, Note_off_c, 0, 79, 68
1, 125059, Note_off_c, 0, 78, 67
1, 125145, Note_off_c, 0, 62, 59
1, 125169, Note_on_c, 0, 69, 78
1, 125176, Note_on_c, 0, 67, 58
1, 125208, Note_on_c, 0, 71, 77
1, 125217, Note_off_c, 0, 69, 63
1, 125254, Note_on_c, 0, 72, 77
1, 125266, Note_off_c, 0, 71, 64
1, 125268, Note_off_c, 0, 67, 53
1, 125284, Note_on_c, 0, 62, 66
1, 125297, Note_on_c, 0, 74, 86
1, 125308, Note_off_c, 0, 72, 65
1, 125321, Note_off_c, 0, 74, 68
1, 125400, Note_off_c, 0, 62, 54
1, 125423, Note_on_c, 0, 67, 63
1, 125434, Note_on_c, 0, 76, 93
1, 125527, Note_on_c, 0, 62, 69
1, 125539, Note_off_c, 0, 67, 35
1, 125572, Note_off_c, 0, 76, 65
1, 125686, Note_on_c, 0, 74, 79
1, 125737, Control_c, 0, 64, 72
1, 125743, Note_off_c, 0, 74, 62
1, 125750, Note_on_c, 0, 72, 70
1, 125782, Control_c, 0, 64, 73
1, 125793, Note_off_c, 0, 72, 52
1, 125796, Control_c, 0, 64, 74
1, 125805, Note_on_c, 0, 74, 78
1, 125851, Note_off_c, 0, 62, 51
1, 125854, Note_on_c, 0, 72, 63
1, 125868, Note_on_c, 0, 67, 60
1, 125876, Note_off_c, 0, 74, 63
1, 125886, Control_c, 0, 64, 73
1, 125895, Note_on_c, 0, 71, 89
1, 125901, Control_c, 0, 64, 71
1, 125922, Note_off_c, 0, 72, 62
1, 125923, Control_c, 0, 64, 68
1, 125953, Control_c, 0, 64, 68
1, 125954, Note_off_c, 0, 71, 66
1, 125956, Note_on_c, 0, 69, 80
1, 125968, Control_c, 0, 64, 69
1, 125975, Note_on_c, 0, 62, 61
1, 125983, Control_c, 0, 64, 71
1, 125998, Control_c, 0, 64, 72
1, 125999, Note_off_c, 0, 67, 46
1, 126012, Control_c, 0, 64, 73
1, 126051, Note_off_c, 0, 69, 62
1, 126057, Control_c, 0, 64, 74
1, 126068, Note_on_c, 0, 78, 85
1, 126071, Control_c, 0, 64, 74
1, 126072, Note_on_c, 0, 79, 83
1, 126086, Control_c, 0, 64, 76
1, 126093, Note_off_c, 0, 79, 70
1, 126101, Control_c, 0, 64, 78
1, 126108, Note_off_c, 0, 78, 62
1, 126116, Control_c, 0, 64, 79
1, 126145, Control_c, 0, 64, 81
1, 126160, Control_c, 0, 64, 83
1, 126175, Control_c, 0, 64, 85
1, 126186, Note_off_c, 0, 62, 55
1, 126190, Control_c, 0, 64, 86
1, 126194, Note_on_c, 0, 55, 64
1, 126205, Control_c, 0, 64, 80
1, 126219, Control_c, 0, 64, 64
1, 126229, Note_on_c, 0, 74, 76
1, 126234, Control_c, 0, 64, 37
1, 126249, Control_c, 0, 64, 0
1, 126251, Note_off_c, 0, 74, 69
1, 126278, Control_c, 0, 64, 52
1, 126279, Note_on_c, 0, 76, 73
1, 126293, Control_c, 0, 64, 67
1, 126308, Control_c, 0, 64, 77
1, 126323, Note_off_c, 0, 76, 64
1, 126323, Control_c, 0, 64, 81
1, 126329, Note_on_c, 0, 74, 74
1, 126350, Note_on_c, 0, 62, 55
1, 126353, Note_on_c, 0, 72, 83
1, 126379, Note_off_c, 0, 74, 63
1, 126398, Note_on_c, 0, 71, 75
1, 126406, Note_off_c, 0, 72, 63
1, 126448, Note_on_c, 0, 69, 87
1, 126451, Note_on_c, 0, 64, 62
1, 126455, Note_off_c, 0, 62, 60
1, 126457, Note_off_c, 0, 71, 65
1, 126486, Control_c, 0, 64, 82
1, 126501, Control_c, 0, 64, 83
1, 126516, Note_off_c, 0, 69, 60
1, 126545, Control_c, 0, 64, 83
1, 126560, Control_c, 0, 64, 85
1, 126567, Note_on_c, 0, 79, 88
1, 126569, Note_off_c, 0, 64, 60
1, 126570, Note_on_c, 0, 78, 93
1, 126575, Note_on_c, 0, 62, 69
1, 126575, Control_c, 0, 64, 88
1, 126585, Note_off_c, 0, 79, 71
1, 126589, Control_c, 0, 64, 94
1, 126591, Note_off_c, 0, 78, 68
1, 126604, Control_c, 0, 64, 97
1, 126680, Note_off_c, 0, 55, 37
1, 126704, Note_off_c, 0, 62, 52
1, 126709, Note_on_c, 0, 67, 58
1, 126716, Control_c, 0, 64, 81
1, 126731, Control_c, 0, 64, 64
1, 126746, Control_c, 0, 64, 0
1, 126755, Note_on_c, 0, 74, 71
1, 126780, Note_off_c, 0, 74, 67
1, 126791, Control_c, 0, 64, 46
1, 126796, Note_on_c, 0, 76, 60
1, 126806, Control_c, 0, 64, 62
1, 126821, Control_c, 0, 64, 69
1, 126832, Note_on_c, 0, 62, 56
1, 126834, Note_off_c, 0, 76, 65
1, 126835, Control_c, 0, 64, 68
1, 126838, Note_on_c, 0, 74, 81
1, 126850, Control_c, 0, 64, 67
1, 126852, Note_off_c, 0, 67, 52
1, 126880, Note_on_c, 0, 72, 74
1, 126890, Note_off_c, 0, 74, 63
1, 126894, Control_c, 0, 64, 68
1, 126909, Control_c, 0, 64, 69
1, 126911, Note_on_c, 0, 71, 78
1, 126922, Note_off_c, 0, 72, 61
1, 126943, Note_off_c, 0, 62, 61
1, 126952, Note_on_c, 0, 64, 57
1, 126962, Note_on_c, 0, 69, 81
1, 126962, Note_off_c, 0, 71, 66
1, 126968, Control_c, 0, 64, 69
1, 126983, Control_c, 0, 64, 71
1, 126998, Control_c, 0, 64, 74
1, 127012, Control_c, 0, 64, 74
1, 127045, Note_off_c, 0, 69, 60
1, 127072, Control_c, 0, 64, 76
1, 127075, Note_on_c, 0, 79, 83
1, 127084, Note_on_c, 0, 62, 57
1, 127085, Note_on_c, 0, 78, 72
1, 127086, Note_off_c, 0, 64, 57
1, 127086, Control_c, 0, 64, 78
1, 127098, Note_off_c, 0, 79, 69
1, 127101, Control_c, 0, 64, 79
1, 127107, Note_off_c, 0, 78, 69
1, 127146, Control_c, 0, 64, 78
1, 127160, Control_c, 0, 64, 75
1, 127175, Control_c, 0, 64, 70
1, 127190, Control_c, 0, 64, 63
1, 127205, Control_c, 0, 64, 51
1, 127206, Note_off_c, 0, 62, 53
1, 127208, Note_on_c, 0, 55, 60
1, 127220, Control_c, 0, 64, 0
1, 127237, Note_on_c, 0, 74, 67
1, 127250, Control_c, 0, 64, 34
1, 127263, Note_off_c, 0, 74, 67
1, 127265, Control_c, 0, 64, 48
1, 127279, Control_c, 0, 64, 60
1, 127286, Note_on_c, 0, 76, 66
1, 127294, Control_c, 0, 64, 65
1, 127309, Control_c, 0, 64, 65
1, 127323, Note_off_c, 0, 76, 64
1, 127328, Note_on_c, 0, 74, 72
1, 127364, Note_on_c, 0, 62, 48
1, 127366, Note_on_c, 0, 72, 79
1, 127379, Note_off_c, 0, 74, 64
1, 127403, Note_on_c, 0, 71, 75
1, 127419, Note_off_c, 0, 72, 64
1, 127450, Control_c, 0, 64, 67
1, 127454, Note_on_c, 0, 69, 83
1, 127458, Note_off_c, 0, 71, 66
1, 127465, Control_c, 0, 64, 70
1, 127474, Note_off_c, 0, 62, 57
1, 127480, Note_on_c, 0, 64, 56
1, 127480, Control_c, 0, 64, 73
1, 127495, Control_c, 0, 64, 74
1, 127524, Control_c, 0, 64, 75
1, 127539, Control_c, 0, 64, 77
1, 127542, Note_off_c, 0, 69, 53
1, 127554, Control_c, 0, 64, 80
1, 127569, Control_c, 0, 64, 86
1, 127578, Note_on_c, 0, 79, 84
1, 127581, Note_on_c, 0, 78, 89
1, 127584, Note_off_c, 0, 64, 61
1, 127584, Control_c, 0, 64, 90
1, 127592, Note_on_c, 0, 62, 71
1, 127597, Note_off_c, 0, 79, 73
1, 127599, Control_c, 0, 64, 92
1, 127603, Note_off_c, 0, 78, 67
1, 127613, Control_c, 0, 64, 94
1, 127628, Control_c, 0, 64, 95
1, 127631, Note_off_c, 0, 55, 14
1, 127643, Control_c, 0, 64, 98
1, 127658, Control_c, 0, 64, 101
1, 127688, Note_on_c, 0, 67, 71
1, 127709, Note_off_c, 0, 62, 55
1, 127727, Note_on_c, 0, 74, 81
1, 127747, Control_c, 0, 64, 93
1, 127751, Note_off_c, 0, 74, 65
1, 127762, Control_c, 0, 64, 81
1, 127774, Note_on_c, 0, 76, 83
1, 127777, Control_c, 0, 64, 69
1, 127791, Control_c, 0, 64, 57
1, 127806, Control_c, 0, 64, 0
1, 127821, Note_on_c, 0, 74, 83
1, 127824, Note_off_c, 0, 76, 67
1, 127830, Note_on_c, 0, 62, 60
1, 127834, Note_off_c, 0, 67, 58
1, 127846, Note_on_c, 0, 72, 83
1, 127869, Note_off_c, 0, 74, 66
1, 127880, Note_on_c, 0, 71, 83
1, 127880, Control_c, 0, 64, 39
1, 127895, Control_c, 0, 64, 57
1, 127897, Note_off_c, 0, 72, 65
1, 127909, Control_c, 0, 64, 68
1, 127922, Note_on_c, 0, 64, 67
1, 127924, Control_c, 0, 64, 75
1, 127927, Note_off_c, 0, 62, 59
1, 127934, Note_on_c, 0, 69, 89
1, 127939, Control_c, 0, 64, 81
1, 127944, Note_off_c, 0, 71, 65
1, 127954, Control_c, 0, 64, 81
1, 127983, Control_c, 0, 64, 82
1, 127998, Control_c, 0, 64, 83
1, 128013, Control_c, 0, 64, 89
1, 128027, Control_c, 0, 64, 97
1, 128042, Control_c, 0, 64, 103
1, 128043, Note_off_c, 0, 69, 61
1, 128056, Note_on_c, 0, 62, 72
1, 128057, Control_c, 0, 64, 107
1, 128059, Note_on_c, 0, 79, 91
1, 128061, Note_on_c, 0, 78, 92
1, 128062, Note_off_c, 0, 64, 61
1, 128072, Control_c, 0, 64, 127
1, 128081, Note_off_c, 0, 79, 69
1, 128098, Note_off_c, 0, 78, 60
1, 128181, Note_off_c, 0, 62, 57
1, 128185, Note_on_c, 0, 67, 79
1, 128219, Note_on_c, 0, 74, 85
1, 128241, Note_off_c, 0, 74, 67
1, 128263, Note_on_c, 0, 76, 81
1, 128315, Note_on_c, 0, 74, 84
1, 128316, Note_on_c, 0, 62, 73
1, 128317, Control_c, 0, 64, 111
1, 128322, Note_off_c, 0, 76, 64
1, 128332, Control_c, 0, 64, 74
1, 128343, Note_on_c, 0, 72, 83
1, 128343, Note_off_c, 0, 67, 52
1, 128347, Control_c, 0, 64, 45
1, 128362, Note_off_c, 0, 74, 66
1, 128362, Control_c, 0, 64, 0
1, 128378, Note_on_c, 0, 71, 86
1, 128397, Note_off_c, 0, 72, 62
1, 128406, Control_c, 0, 67, 121
1, 128421, Control_c, 0, 67, 100
1, 128434, Note_on_c, 0, 69, 93
1, 128436, Control_c, 0, 67, 86
1, 128438, Note_on_c, 0, 64, 76
1, 128443, Note_off_c, 0, 62, 58
1, 128451, Control_c, 0, 64, 60
1, 128451, Control_c, 0, 67, 86
1, 128454, Note_off_c, 0, 71, 63
1, 128465, Control_c, 0, 64, 73
1, 128465, Control_c, 0, 67, 87
1, 128480, Control_c, 0, 64, 90
1, 128480, Control_c, 0, 67, 84
1, 128495, Control_c, 0, 64, 127
1, 128495, Control_c, 0, 67, 78
1, 128510, Control_c, 0, 67, 69
1, 128525, Control_c, 0, 67, 67
1, 128539, Control_c, 0, 67, 68
1, 128554, Control_c, 0, 67, 67
1, 128569, Control_c, 0, 67, 64
1, 128583, Control_c, 0, 67, 59
1, 128598, Control_c, 0, 67, 55
1, 128600, Note_on_c, 0, 62, 79
1, 128609, Note_off_c, 0, 64, 61
1, 128643, Control_c, 0, 67, 54
1, 128648, Note_off_c, 0, 69, 56
1, 128657, Control_c, 0, 67, 52
1, 128672, Control_c, 0, 67, 50
1, 128687, Control_c, 0, 67, 50
1, 128702, Control_c, 0, 67, 50
1, 128731, Control_c, 0, 67, 51
1, 128746, Control_c, 0, 64, 67
1, 128746, Control_c, 0, 67, 52
1, 128760, Note_on_c, 0, 67, 77
1, 128761, Control_c, 0, 64, 0
1, 128761, Control_c, 0, 67, 55
1, 128767, Note_on_c, 0, 69, 92
1, 128773, Note_off_c, 0, 62, 60
1, 128776, Control_c, 0, 67, 59
1, 128791, Control_c, 0, 67, 60
1, 128806, Control_c, 0, 64, 48
1, 128821, Control_c, 0, 64, 69
1, 128836, Control_c, 0, 64, 89
1, 128850, Control_c, 0, 64, 127
1, 128850, Control_c, 0, 67, 63
1, 128865, Control_c, 0, 67, 66
1, 128880, Control_c, 0, 67, 67
1, 128931, Control_c, 0, 67, 68
1, 128941, Note_off_c, 0, 69, 59
1, 128946, Control_c, 0, 67, 71
1, 128961, Control_c, 0, 67, 75
1, 128980, Note_on_c, 0, 62, 58
1, 128980, Note_off_c, 0, 67, 55
1, 129006, Control_c, 0, 67, 77
1, 129020, Control_c, 0, 67, 84
1, 129036, Control_c, 0, 67, 94
1, 129051, Control_c, 0, 67, 96
1, 129066, Control_c, 0, 67, 95
1, 129081, Control_c, 0, 67, 94
1, 129095, Control_c, 0, 67, 94
1, 129110, Control_c, 0, 67, 96
1, 129125, Control_c, 0, 64, 94
1, 129140, Control_c, 0, 64, 56
1, 129142, Note_on_c, 0, 55, 70
1, 129142, Note_off_c, 0, 62, 60
1, 129155, Control_c, 0, 64, 0
1, 129162, Note_on_c, 0, 76, 84
1, 129169, Control_c, 0, 64, 46
1, 129184, Control_c, 0, 64, 62
1, 129184, Control_c, 0, 67, 100
1, 129199, Control_c, 0, 64, 82
1, 129199, Control_c, 0, 67, 110
1, 129214, Control_c, 0, 64, 88
1, 129214, Control_c, 0, 67, 121
1, 129214, Note_off_c, 0, 76, 61
1, 129228, Note_on_c, 0, 77, 69
1, 129229, Control_c, 0, 64, 84
1, 129229, Control_c, 0, 67, 125
1, 129244, Control_c, 0, 64, 72
1, 129259, Control_c, 0, 64, 70
1, 129274, Control_c, 0, 64, 71
1, 129288, Note_off_c, 0, 77, 65
1, 129288, Control_c, 0, 64, 73
1, 129288, Control_c, 0, 67, 127
1, 129295, Note_on_c, 0, 76, 58
1, 129318, Control_c, 0, 64, 72
1, 129343, Note_on_c, 0, 62, 49
1, 129347, Note_on_c, 0, 74, 59
1, 129348, Control_c, 0, 64, 73
1, 129362, Control_c, 0, 64, 75
1, 129375, Note_off_c, 0, 76, 59
1, 129377, Control_c, 0, 64, 76
1, 129378, Note_off_c, 0, 74, 65
1, 129392, Control_c, 0, 64, 74
1, 129396, Note_on_c, 0, 72, 57
1, 129404, Note_off_c, 0, 55, 51
1, 129406, Control_c, 0, 64, 55
1, 129421, Control_c, 0, 64, 0
1, 129423, Note_off_c, 0, 62, 42
1, 129426, Note_off_c, 0, 72, 66
1, 129454, Note_on_c, 0, 64, 71
1, 129461, Note_on_c, 0, 74, 81
1, 129466, Control_c, 0, 64, 43
1, 129480, Control_c, 0, 64, 63
1, 129495, Control_c, 0, 64, 66
1, 129510, Control_c, 0, 64, 63
1, 129513, Note_off_c, 0, 74, 66
1, 129516, Note_on_c, 0, 76, 78
1, 129518, Note_off_c, 0, 64, 54
1, 129525, Control_c, 0, 64, 62
1, 129540, Control_c, 0, 64, 65
1, 129554, Control_c, 0, 64, 69
1, 129569, Control_c, 0, 64, 71
1, 129575, Note_on_c, 0, 74, 71
1, 129577, Note_off_c, 0, 76, 64
1, 129599, Control_c, 0, 64, 70
1, 129614, Control_c, 0, 64, 71
1, 129622, Note_on_c, 0, 62, 45
1, 129629, Control_c, 0, 64, 71
1, 129632, Note_off_c, 0, 74, 60
1, 129639, Note_on_c, 0, 72, 59
1, 129643, Control_c, 0, 64, 74
1, 129666, Control_c, 0, 64, 76
1, 129676, Note_off_c, 0, 72, 66
1, 129677, Note_on_c, 0, 71, 70
1, 129680, Control_c, 0, 64, 73
1, 129695, Control_c, 0, 64, 58
1, 129700, Note_off_c, 0, 71, 70
1, 129709, Note_off_c, 0, 62, 60
1, 129710, Control_c, 0, 64, 0
1, 129733, Note_on_c, 0, 66, 74
1, 129755, Control_c, 0, 64, 40
1, 129766, Note_on_c, 0, 74, 75
1, 129769, Control_c, 0, 64, 60
1, 129784, Control_c, 0, 64, 61
1, 129799, Control_c, 0, 64, 55
1, 129804, Note_off_c, 0, 66, 55
1, 129813, Control_c, 0, 64, 49
1, 129829, Control_c, 0, 64, 56
1, 129844, Control_c, 0, 64, 64
1, 129859, Note_on_c, 0, 62, 50
1, 129859, Control_c, 0, 64, 70
1, 129869, Note_on_c, 0, 72, 81
1, 129874, Control_c, 0, 64, 72
1, 129885, Note_off_c, 0, 74, 63
1, 129889, Control_c, 0, 64, 71
1, 129903, Control_c, 0, 64, 67
1, 129906, Note_off_c, 0, 72, 63
1, 129918, Control_c, 0, 64, 67
1, 129925, Note_on_c, 0, 71, 48
1, 129957, Note_off_c, 0, 62, 58
1, 129960, Note_off_c, 0, 71, 68
1, 129962, Note_on_c, 0, 69, 73
1, 129963, Control_c, 0, 64, 64
1, 129977, Note_on_c, 0, 67, 67
1, 129978, Control_c, 0, 64, 41
1, 129992, Control_c, 0, 64, 0
1, 130010, Note_off_c, 0, 69, 62
1, 130015, Note_on_c, 0, 71, 76
1, 130036, Note_off_c, 0, 67, 52
1, 130037, Control_c, 0, 64, 56
1, 130052, Control_c, 0, 64, 74
1, 130067, Control_c, 0, 64, 86
1, 130069, Note_on_c, 0, 72, 84
1, 130069, Note_off_c, 0, 71, 68
1, 130082, Control_c, 0, 64, 89
1, 130084, Note_on_c, 0, 62, 69
1, 130111, Control_c, 0, 64, 97
1, 130126, Control_c, 0, 64, 127
1, 130129, Note_off_c, 0, 62, 54
1, 130135, Note_on_c, 0, 74, 88
1, 130141, Note_off_c, 0, 72, 64
1, 130153, Note_off_c, 0, 74, 73
1, 130181, Note_on_c, 0, 62, 51
1, 130215, Control_c, 0, 64, 105
1, 130229, Control_c, 0, 64, 73
1, 130234, Note_off_c, 0, 62, 57
1, 130245, Control_c, 0, 64, 48
1, 130260, Control_c, 0, 64, 0
1, 130277, Note_on_c, 0, 55, 65
1, 130289, Note_on_c, 0, 76, 90
1, 130304, Control_c, 0, 64, 60
1, 130319, Control_c, 0, 64, 69
1, 130334, Control_c, 0, 64, 72
1, 130340, Note_off_c, 0, 76, 62
1, 130346, Note_on_c, 0, 77, 75
1, 130392, Note_on_c, 0, 76, 74
1, 130397, Note_off_c, 0, 77, 65
1, 130430, Control_c, 0, 64, 73
1, 130437, Note_on_c, 0, 74, 77
1, 130440, Note_on_c, 0, 62, 60
1, 130442, Note_off_c, 0, 55, 56
1, 130458, Note_off_c, 0, 76, 64
1, 130475, Control_c, 0, 64, 72
1, 130484, Note_off_c, 0, 74, 63
1, 130487, Note_on_c, 0, 72, 74
1, 130490, Control_c, 0, 64, 67
1, 130498, Note_off_c, 0, 62, 49
1, 130505, Control_c, 0, 64, 45
1, 130519, Control_c, 0, 64, 0
1, 130520, Note_off_c, 0, 72, 66
1, 130543, Note_on_c, 0, 64, 67
1, 130557, Note_on_c, 0, 74, 86
1, 130563, Control_c, 0, 64, 49
1, 130578, Control_c, 0, 64, 65
1, 130593, Control_c, 0, 64, 73
1, 130605, Note_on_c, 0, 76, 83
1, 130607, Note_off_c, 0, 74, 65
1, 130608, Control_c, 0, 64, 74
1, 130623, Control_c, 0, 64, 73
1, 130653, Note_on_c, 0, 74, 70
1, 130653, Control_c, 0, 64, 75
1, 130668, Control_c, 0, 64, 77
1, 130672, Note_off_c, 0, 76, 64
1, 130683, Control_c, 0, 64, 79
1, 130688, Note_off_c, 0, 64, 55
1, 130692, Note_on_c, 0, 62, 59
1, 130705, Note_on_c, 0, 72, 68
1, 130718, Note_off_c, 0, 74, 61
1, 130749, Note_on_c, 0, 71, 69
1, 130755, Note_off_c, 0, 72, 63
1, 130757, Control_c, 0, 64, 72
1, 130772, Control_c, 0, 64, 56
1, 130773, Note_off_c, 0, 71, 69
1, 130786, Control_c, 0, 64, 0
1, 130787, Note_off_c, 0, 62, 58
1, 130808, Note_on_c, 0, 66, 73
1, 130819, Note_on_c, 0, 72, 78
1, 130841, Note_on_c, 0, 71, 61
1, 130846, Control_c, 0, 64, 59
1, 130860, Control_c, 0, 64, 62
1, 130861, Note_off_c, 0, 71, 37
1, 130864, Note_off_c, 0, 66, 61
1, 130873, Note_off_c, 0, 72, 65
1, 130874, Note_on_c, 0, 74, 77
1, 130875, Control_c, 0, 64, 60
1, 130890, Control_c, 0, 64, 55
1, 130905, Control_c, 0, 64, 59
1, 130916, Note_on_c, 0, 72, 64
1, 130920, Control_c, 0, 64, 65
1, 130934, Control_c, 0, 64, 69
1, 130939, Note_off_c, 0, 74, 65
1, 130943, Note_on_c, 0, 62, 42
1, 130949, Control_c, 0, 64, 71
1, 130961, Note_on_c, 0, 71, 71
1, 130991, Note_off_c, 0, 72, 63
1, 130994, Control_c, 0, 64, 73
1, 131009, Control_c, 0, 64, 74
1, 131015, Note_on_c, 0, 69, 77
1, 131015, Note_off_c, 0, 71, 65
1, 131024, Control_c, 0, 64, 75
1, 131039, Control_c, 0, 64, 69
1, 131050, Note_off_c, 0, 62, 41
1, 131053, Control_c, 0, 64, 44
1, 131067, Note_on_c, 0, 67, 66
1, 131068, Note_off_c, 0, 69, 64
1, 131068, Control_c, 0, 64, 0
1, 131071, Note_on_c, 0, 71, 83
1, 131113, Control_c, 0, 64, 54
1, 131116, Note_on_c, 0, 72, 79
1, 131125, Note_off_c, 0, 71, 66
1, 131127, Control_c, 0, 64, 71
1, 131142, Control_c, 0, 64, 82
1, 131164, Note_off_c, 0, 67, 58
1, 131164, Control_c, 0, 64, 91
1, 131178, Note_on_c, 0, 74, 87
1, 131179, Control_c, 0, 64, 96
1, 131188, Note_off_c, 0, 72, 63
1, 131194, Control_c, 0, 64, 127
1, 131200, Note_on_c, 0, 62, 55
1, 131209, Note_off_c, 0, 74, 62
1, 131247, Note_on_c, 0, 76, 78
1, 131302, Note_off_c, 0, 76, 62
1, 131316, Note_on_c, 0, 77, 85
1, 131327, Note_off_c, 0, 62, 58
1, 131328, Control_c, 0, 64, 92
1, 131342, Control_c, 0, 64, 56
1, 131348, Note_on_c, 0, 55, 56
1, 131357, Control_c, 0, 64, 0
1, 131398, Note_off_c, 0, 77, 59
1, 131401, Control_c, 0, 64, 58
1, 131407, Note_on_c, 0, 79, 79
1, 131416, Control_c, 0, 64, 69
1, 131432, Control_c, 0, 64, 71
1, 131447, Control_c, 0, 64, 70
1, 131462, Control_c, 0, 64, 71
1, 131465, Note_off_c, 0, 79, 64
1, 131476, Control_c, 0, 64, 72
1, 131480, Note_on_c, 0, 77, 62
1, 131491, Control_c, 0, 64, 75
1, 131506, Control_c, 0, 64, 77
1, 131527, Note_on_c, 0, 76, 64
1, 131527, Note_off_c, 0, 77, 57
1, 131533, Note_on_c, 0, 62, 54
1, 131539, Note_off_c, 0, 55, 37
1, 131550, Control_c, 0, 64, 73
1, 131554, Note_off_c, 0, 76, 68
1, 131563, Note_on_c, 0, 74, 68
1, 131565, Control_c, 0, 64, 60
1, 131580, Control_c, 0, 64, 0
1, 131587, Note_off_c, 0, 62, 52
1, 131593, Note_off_c, 0, 74, 67
1, 131624, Note_on_c, 0, 67, 70
1, 131628, Note_on_c, 0, 76, 87
1, 131639, Control_c, 0, 64, 46
1, 131654, Control_c, 0, 64, 67
1, 131669, Control_c, 0, 64, 72
1, 131682, Note_off_c, 0, 76, 65
1, 131684, Note_off_c, 0, 67, 62
1, 131686, Note_on_c, 0, 77, 76
1, 131698, Control_c, 0, 64, 72
1, 131713, Control_c, 0, 64, 72
1, 131742, Control_c, 0, 64, 73
1, 131748, Note_off_c, 0, 77, 65
1, 131751, Note_on_c, 0, 76, 77
1, 131757, Control_c, 0, 64, 73
1, 131772, Note_on_c, 0, 62, 49
1, 131787, Control_c, 0, 64, 74
1, 131793, Note_on_c, 0, 74, 69
1, 131801, Control_c, 0, 64, 75
1, 131807, Note_off_c, 0, 76, 62
1, 131816, Control_c, 0, 64, 77
1, 131828, Note_on_c, 0, 72, 74
1, 131833, Note_off_c, 0, 74, 62
1, 131846, Control_c, 0, 64, 68
1, 131854, Note_off_c, 0, 72, 68
1, 131861, Control_c, 0, 64, 0
1, 131861, Note_off_c, 0, 62, 62
1, 131878, Note_on_c, 0, 66, 67
1, 131891, Note_on_c, 0, 74, 83
1, 131927, Control_c, 0, 64, 45
1, 131942, Control_c, 0, 64, 64
1, 131953, Note_on_c, 0, 76, 81
1, 131954, Note_off_c, 0, 74, 65
1, 131957, Note_off_c, 0, 66, 55
1, 131957, Control_c, 0, 64, 65
1, 131972, Control_c, 0, 64, 60
1, 131986, Control_c, 0, 64, 54
1, 132001, Control_c, 0, 64, 59
1, 132004, Note_on_c, 0, 74, 74
1, 132010, Note_on_c, 0, 62, 56
1, 132016, Control_c, 0, 64, 66
1, 132023, Note_off_c, 0, 76, 64
1, 132031, Control_c, 0, 64, 73
1, 132046, Control_c, 0, 64, 75
1, 132056, Note_on_c, 0, 72, 70
1, 132061, Control_c, 0, 64, 71
1, 132076, Control_c, 0, 64, 56
1, 132077, Note_off_c, 0, 74, 62
1, 132090, Control_c, 0, 64, 0
1, 132094, Note_on_c, 0, 71, 74
1, 132100, Note_off_c, 0, 62, 60
1, 132102, Note_off_c, 0, 72, 63
1, 132117, Note_off_c, 0, 71, 71
1, 132144, Note_on_c, 0, 64, 61
1, 132164, Control_c, 0, 64, 49
1, 132167, Note_on_c, 0, 72, 71
1, 132179, Control_c, 0, 64, 68
1, 132189, Note_on_c, 0, 71, 62
1, 132193, Note_off_c, 0, 64, 59
1, 132194, Control_c, 0, 64, 82
1, 132197, Note_on_c, 0, 74, 87
1, 132208, Control_c, 0, 64, 87
1, 132210, Note_off_c, 0, 71, 61
1, 132216, Note_off_c, 0, 72, 61
1, 132239, Control_c, 0, 64, 89
1, 132250, Note_on_c, 0, 72, 57
1, 132254, Control_c, 0, 64, 95
1, 132254, Control_c, 0, 67, 118
1, 132269, Control_c, 0, 64, 105
1, 132269, Control_c, 0, 67, 122
1, 132276, Note_on_c, 0, 62, 55
1, 132278, Note_off_c, 0, 74, 62
1, 132280, Note_on_c, 0, 71, 79
1, 132284, Control_c, 0, 64, 127
1, 132284, Control_c, 0, 67, 127
1, 132310, Note_off_c, 0, 72, 64
1, 132313, Control_c, 0, 67, 125
1, 132328, Control_c, 0, 67, 122
1, 132333, Note_on_c, 0, 69, 71
1, 132347, Note_off_c, 0, 71, 63
1, 132356, Note_off_c, 0, 62, 57
1, 132357, Note_off_c, 0, 69, 67
1, 132357, Control_c, 0, 64, 81
1, 132357, Control_c, 0, 67, 126
1, 132372, Control_c, 0, 64, 50
1, 132386, Note_on_c, 0, 67, 65
1, 132387, Control_c, 0, 64, 0
1, 132417, Control_c, 0, 67, 123
1, 132431, Note_on_c, 0, 71, 78
1, 132431, Control_c, 0, 64, 42
1, 132431, Control_c, 0, 67, 114
1, 132446, Control_c, 0, 64, 63
1, 132446, Control_c, 0, 67, 111
1, 132461, Note_off_c, 0, 71, 62
1, 132461, Control_c, 0, 64, 67
1, 132461, Control_c, 0, 67, 119
1, 132472, Note_on_c, 0, 72, 85
1, 132476, Control_c, 0, 67, 126
1, 132491, Control_c, 0, 64, 68
1, 132491, Control_c, 0, 67, 122
1, 132505, Control_c, 0, 64, 71
1, 132505, Control_c, 0, 67, 113
1, 132508, Note_off_c, 0, 67, 55
1, 132520, Control_c, 0, 64, 76
1, 132520, Control_c, 0, 67, 103
1, 132529, Note_on_c, 0, 74, 72
1, 132532, Note_on_c, 0, 62, 54
1, 132535, Control_c, 0, 64, 81
1, 132535, Control_c, 0, 67, 98
1, 132550, Note_off_c, 0, 72, 63
1, 132550, Control_c, 0, 64, 85
1, 132550, Control_c, 0, 67, 105
1, 132560, Note_on_c, 0, 76, 77
1, 132565, Control_c, 0, 64, 89
1, 132565, Control_c, 0, 67, 110
1, 132580, Control_c, 0, 64, 99
1, 132580, Control_c, 0, 67, 106
1, 132595, Control_c, 0, 64, 127
1, 132595, Control_c, 0, 67, 100
1, 132599, Note_off_c, 0, 74, 65
1, 132604, Note_on_c, 0, 78, 92
1, 132616, Note_off_c, 0, 76, 66
1, 132624, Control_c, 0, 64, 76
1, 132624, Control_c, 0, 67, 103
1, 132636, Note_off_c, 0, 62, 62
1, 132636, Note_off_c, 0, 78, 64
1, 132639, Control_c, 0, 64, 0
1, 132639, Control_c, 0, 67, 111
1, 132661, Control_c, 0, 67, 114
1, 132664, Note_on_c, 0, 64, 50
1, 132676, Control_c, 0, 67, 110
1, 132691, Control_c, 0, 67, 102
1, 132705, Control_c, 0, 67, 94
1, 132720, Control_c, 0, 67, 92
1, 132728, Note_on_c, 0, 69, 77
1, 132735, Control_c, 0, 67, 99
1, 132764, Control_c, 0, 64, 54
1, 132779, Control_c, 0, 64, 64
1, 132779, Control_c, 0, 67, 94
1, 132787, Note_off_c, 0, 64, 58
1, 132788, Note_on_c, 0, 62, 57
1, 132794, Control_c, 0, 64, 69
1, 132794, Control_c, 0, 67, 90
1, 132809, Control_c, 0, 64, 71
1, 132809, Control_c, 0, 67, 91
1, 132824, Control_c, 0, 64, 72
1, 132824, Control_c, 0, 67, 94
1, 132839, Control_c, 0, 64, 72
1, 132839, Control_c, 0, 67, 95
1, 132854, Control_c, 0, 64, 73
1, 132854, Control_c, 0, 67, 91
1, 132869, Control_c, 0, 64, 75
1, 132869, Control_c, 0, 67, 85
1, 132884, Control_c, 0, 64, 79
1, 132884, Control_c, 0, 67, 69
1, 132889, Note_off_c, 0, 69, 60
1, 132899, Control_c, 0, 64, 89
1, 132899, Control_c, 0, 67, 52
1, 132913, Control_c, 0, 64, 120
1, 132913, Control_c, 0, 67, 52
1, 132928, Control_c, 0, 64, 127
1, 132931, Note_on_c, 0, 55, 65
1, 132931, Note_off_c, 0, 62, 55
1, 132943, Control_c, 0, 67, 50
1, 132957, Control_c, 0, 67, 43
1, 132972, Control_c, 0, 67, 28
1, 132982, Note_on_c, 0, 71, 82
1, 132987, Control_c, 0, 67, 20
1, 133026, Note_on_c, 0, 72, 83
1, 133031, Note_off_c, 0, 71, 65
1, 133048, Control_c, 0, 67, 0
1, 133073, Note_on_c, 0, 74, 85
1, 133077, Control_c, 0, 64, 111
1, 133077, Control_c, 0, 67, 23
1, 133083, Note_on_c, 0, 62, 55
1, 133092, Control_c, 0, 64, 63
1, 133094, Note_off_c, 0, 72, 64
1, 133107, Control_c, 0, 64, 0
1, 133114, Note_on_c, 0, 76, 84
1, 133139, Note_off_c, 0, 74, 66
1, 133149, Note_off_c, 0, 76, 63
1, 133151, Control_c, 0, 67, 28
1, 133152, Note_on_c, 0, 78, 88
1, 133166, Control_c, 0, 67, 30
1, 133174, Note_off_c, 0, 55, 36
1, 133189, Note_off_c, 0, 78, 62
1, 133209, Note_off_c, 0, 62, 59
1, 133231, Note_on_c, 0, 64, 52
1, 133247, Note_on_c, 0, 69, 78
1, 133255, Control_c, 0, 64, 47
1, 133255, Control_c, 0, 67, 32
1, 133270, Control_c, 0, 64, 56
1, 133285, Control_c, 0, 64, 60
1, 133285, Control_c, 0, 67, 30
1, 133300, Control_c, 0, 64, 62
1, 133315, Control_c, 0, 64, 66
1, 133329, Control_c, 0, 64, 72
1, 133344, Control_c, 0, 64, 79
1, 133359, Control_c, 0, 64, 85
1, 133373, Control_c, 0, 64, 89
1, 133373, Control_c, 0, 67, 26
1, 133376, Note_off_c, 0, 64, 61
1, 133388, Control_c, 0, 64, 100
1, 133388, Control_c, 0, 67, 23
1, 133402, Note_on_c, 0, 62, 68
1, 133409, Note_off_c, 0, 69, 62
1, 133411, Control_c, 0, 64, 127
1, 133470, Control_c, 0, 67, 0
1, 133501, Note_on_c, 0, 67, 82
1, 133518, Note_off_c, 0, 62, 61
1, 133529, Note_on_c, 0, 71, 83
1, 133573, Note_on_c, 0, 72, 85
1, 133584, Note_off_c, 0, 71, 65
1, 133617, Note_on_c, 0, 74, 82
1, 133640, Note_off_c, 0, 72, 63
1, 133647, Control_c, 0, 64, 85
1, 133659, Note_on_c, 0, 62, 58
1, 133660, Note_on_c, 0, 76, 78
1, 133662, Control_c, 0, 64, 59
1, 133662, Control_c, 0, 67, 21
1, 133668, Note_off_c, 0, 67, 55
1, 133677, Control_c, 0, 64, 0
1, 133677, Control_c, 0, 67, 34
1, 133687, Note_off_c, 0, 74, 64
1, 133692, Control_c, 0, 67, 44
1, 133700, Note_off_c, 0, 76, 67
1, 133700, Note_on_c, 0, 78, 85
1, 133721, Control_c, 0, 67, 42
1, 133748, Note_off_c, 0, 78, 63
1, 133751, Control_c, 0, 67, 43
1, 133766, Control_c, 0, 67, 45
1, 133781, Control_c, 0, 67, 46
1, 133796, Control_c, 0, 67, 45
1, 133807, Note_off_c, 0, 62, 59
1, 133809, Note_on_c, 0, 69, 71
1, 133811, Note_on_c, 0, 64, 52
1, 133811, Control_c, 0, 67, 43
1, 133826, Control_c, 0, 64, 44
1, 133826, Control_c, 0, 67, 43
1, 133841, Control_c, 0, 64, 59
1, 133856, Control_c, 0, 64, 65
1, 133856, Control_c, 0, 67, 44
1, 133871, Control_c, 0, 64, 70
1, 133885, Control_c, 0, 64, 75
1, 133885, Control_c, 0, 67, 43
1, 133900, Control_c, 0, 64, 79
1, 133900, Control_c, 0, 67, 42
1, 133915, Control_c, 0, 64, 81
1, 133915, Control_c, 0, 67, 41
1, 133930, Control_c, 0, 64, 85
1, 133945, Control_c, 0, 64, 92
1, 133945, Control_c, 0, 67, 42
1, 133960, Control_c, 0, 64, 120
1, 133968, Note_on_c, 0, 62, 59
1, 133974, Note_off_c, 0, 64, 55
1, 133975, Control_c, 0, 64, 127
1, 133975, Control_c, 0, 67, 40
1, 133985, Note_off_c, 0, 69, 58
1, 133990, Control_c, 0, 67, 37
1, 134004, Control_c, 0, 67, 35
1, 134034, Control_c, 0, 67, 34
1, 134049, Control_c, 0, 67, 29
1, 134061, Note_on_c, 0, 55, 82
1, 134064, Control_c, 0, 67, 0
1, 134067, Note_off_c, 0, 62, 61
1, 134106, Note_on_c, 0, 71, 81
1, 134156, Note_on_c, 0, 72, 85
1, 134168, Note_off_c, 0, 71, 65
1, 134189, Note_on_c, 0, 74, 83
1, 134204, Control_c, 0, 64, 92
1, 134204, Control_c, 0, 67, 20
1, 134209, Note_on_c, 0, 62, 75
1, 134214, Note_off_c, 0, 72, 65
1, 134219, Control_c, 0, 64, 58
1, 134234, Control_c, 0, 64, 0
1, 134239, Note_on_c, 0, 76, 86
1, 134249, Control_c, 0, 67, 23
1, 134262, Note_off_c, 0, 74, 64
1, 134264, Control_c, 0, 67, 27
1, 134269, Note_on_c, 0, 78, 91
1, 134275, Note_off_c, 0, 76, 57
1, 134278, Control_c, 0, 67, 35
1, 134293, Control_c, 0, 67, 45
1, 134307, Note_off_c, 0, 78, 66
1, 134308, Control_c, 0, 67, 53
1, 134323, Control_c, 0, 67, 55
1, 134337, Control_c, 0, 67, 55
1, 134352, Control_c, 0, 67, 54
1, 134353, Note_on_c, 0, 64, 73
1, 134365, Note_on_c, 0, 69, 83
1, 134365, Note_off_c, 0, 62, 59
1, 134367, Control_c, 0, 64, 47
1, 134382, Control_c, 0, 64, 59
1, 134382, Control_c, 0, 67, 54
1, 134397, Control_c, 0, 64, 68
1, 134397, Control_c, 0, 67, 53
1, 134402, Note_off_c, 0, 55, 54
1, 134411, Control_c, 0, 64, 73
1, 134426, Control_c, 0, 64, 76
1, 134441, Control_c, 0, 64, 76
1, 134456, Control_c, 0, 64, 77
1, 134456, Control_c, 0, 67, 52
1, 134470, Control_c, 0, 67, 51
1, 134485, Control_c, 0, 64, 78
1, 134485, Control_c, 0, 67, 49
1, 134500, Control_c, 0, 64, 80
1, 134500, Control_c, 0, 67, 48
1, 134515, Control_c, 0, 64, 83
1, 134518, Note_on_c, 0, 62, 82
1, 134522, Note_off_c, 0, 64, 60
1, 134529, Control_c, 0, 64, 86
1, 134544, Control_c, 0, 64, 92
1, 134552, Note_off_c, 0, 69, 56
1, 134559, Control_c, 0, 64, 100
1, 134559, Control_c, 0, 67, 45
1, 134574, Control_c, 0, 64, 115
1, 134574, Control_c, 0, 67, 40
1, 134589, Control_c, 0, 64, 127
1, 134589, Control_c, 0, 67, 32
1, 134604, Control_c, 0, 67, 21
1, 134644, Note_on_c, 0, 67, 85
1, 134664, Note_off_c, 0, 62, 62
1, 134664, Control_c, 0, 64, 67
1, 134675, Note_on_c, 0, 71, 80
1, 134679, Control_c, 0, 64, 0
1, 134717, Note_on_c, 0, 72, 75
1, 134723, Control_c, 0, 64, 53
1, 134723, Control_c, 0, 67, 25
1, 134730, Note_off_c, 0, 71, 66
1, 134738, Control_c, 0, 64, 67
1, 134750, Note_on_c, 0, 74, 80
1, 134753, Control_c, 0, 64, 76
1, 134753, Control_c, 0, 67, 22
1, 134768, Control_c, 0, 64, 79
1, 134783, Control_c, 0, 64, 83
1, 134784, Note_off_c, 0, 72, 62
1, 134797, Control_c, 0, 64, 97
1, 134797, Control_c, 0, 67, 24
1, 134804, Note_on_c, 0, 76, 83
1, 134806, Note_on_c, 0, 62, 75
1, 134812, Control_c, 0, 64, 127
1, 134812, Control_c, 0, 67, 26
1, 134827, Note_off_c, 0, 74, 65
1, 134827, Control_c, 0, 67, 22
1, 134833, Note_on_c, 0, 78, 92
1, 134840, Note_off_c, 0, 76, 67
1, 134842, Control_c, 0, 67, 0
1, 134880, Note_off_c, 0, 78, 67
1, 134883, Note_off_c, 0, 67, 37
1, 134908, Control_c, 0, 64, 101
1, 134923, Control_c, 0, 64, 59
1, 134938, Control_c, 0, 64, 0
1, 134939, Note_on_c, 0, 69, 95
1, 134947, Note_on_c, 0, 64, 74
1, 134972, Note_off_c, 0, 62, 60
1, 134997, Control_c, 0, 64, 59
1, 135012, Control_c, 0, 64, 65
1, 135027, Control_c, 0, 64, 69
1, 135042, Control_c, 0, 64, 79
1, 135057, Control_c, 0, 64, 106
1, 135072, Control_c, 0, 64, 127
1, 135107, Note_on_c, 0, 62, 92
1, 135119, Note_off_c, 0, 64, 58
1, 135148, Note_off_c, 0, 69, 59
1, 135249, Note_on_c, 0, 67, 94
1, 135262, Note_off_c, 0, 62, 60
1, 135264, Control_c, 0, 64, 93
1, 135276, Note_on_c, 0, 71, 90
1, 135278, Control_c, 0, 64, 54
1, 135293, Control_c, 0, 64, 0
1, 135323, Control_c, 0, 64, 48
1, 135337, Note_on_c, 0, 72, 84
1, 135338, Control_c, 0, 64, 71
1, 135345, Note_off_c, 0, 71, 64
1, 135352, Control_c, 0, 64, 104
1, 135367, Control_c, 0, 64, 127
1, 135402, Note_on_c, 0, 74, 86
1, 135423, Note_off_c, 0, 72, 65
1, 135435, Note_off_c, 0, 67, 62
1, 135438, Note_on_c, 0, 62, 76
1, 135454, Note_on_c, 0, 76, 80
1, 135483, Note_off_c, 0, 74, 64
1, 135488, Note_off_c, 0, 62, 64
1, 135516, Note_on_c, 0, 78, 88
1, 135543, Note_off_c, 0, 76, 66
1, 135590, Note_off_c, 0, 78, 63
1, 135591, Control_c, 0, 64, 91
1, 135591, Control_c, 0, 67, 22
1, 135605, Note_on_c, 0, 72, 94
1, 135606, Control_c, 0, 64, 53
1, 135606, Control_c, 0, 67, 0
1, 135608, Note_on_c, 0, 55, 89
1, 135621, Control_c, 0, 64, 0
1, 135658, Control_c, 0, 64, 42
1, 135673, Control_c, 0, 64, 69
1, 135688, Control_c, 0, 64, 127
1, 135695, Note_on_c, 0, 74, 96
1, 135705, Note_off_c, 0, 72, 63
1, 135778, Note_on_c, 0, 76, 90
1, 135790, Note_off_c, 0, 74, 64
1, 135799, Note_on_c, 0, 50, 85
1, 135812, Note_off_c, 0, 55, 62
1, 135854, Note_on_c, 0, 78, 95
1, 135862, Note_off_c, 0, 76, 63
1, 135924, Control_c, 0, 64, 85
1, 135939, Control_c, 0, 64, 0
1, 135951, Note_on_c, 0, 79, 105
1, 135975, Note_off_c, 0, 78, 63
1, 136048, Note_on_c, 0, 43, 99
1, 136058, Control_c, 0, 64, 75
1, 136070, Note_off_c, 0, 50, 62
1, 136072, Note_on_c, 0, 69, 82
1, 136073, Control_c, 0, 64, 127
1, 136094, Note_off_c, 0, 43, 65
1, 136396, Note_on_c, 0, 78, 87
1, 136430, Note_off_c, 0, 79, 58
1, 136480, Note_on_c, 0, 76, 89
1, 136515, Note_off_c, 0, 78, 62
1, 136551, Note_on_c, 0, 74, 97
1, 136555, Note_off_c, 0, 76, 65
1, 136588, Note_off_c, 0, 74, 67
1, 136650, Poly_aftertouch_c, 0, 77, 0
1, 136804, Note_on_c, 0, 38, 96
1, 136804, Note_on_c, 0, 72, 98
1, 137044, Control_c, 0, 64, 91
1, 137059, Control_c, 0, 64, 47
1, 137073, Note_on_c, 0, 31, 95
1, 137074, Control_c, 0, 64, 0
1, 137074, Control_c, 0, 67, 37
1, 137080, Note_on_c, 0, 74, 91
1, 137085, Note_off_c, 0, 72, 65
1, 137088, Note_off_c, 0, 38, 59
1, 137088, Control_c, 0, 67, 47
1, 137103, Control_c, 0, 64, 64
1, 137103, Control_c, 0, 67, 44
1, 137117, Note_off_c, 0, 31, 63
1, 137118, Control_c, 0, 64, 127
1, 137118, Control_c, 0, 67, 43
1, 137120, Note_off_c, 0, 74, 68
1, 137155, Control_c, 0, 67, 45
1, 137170, Control_c, 0, 67, 45
1, 137200, Control_c, 0, 67, 42
1, 137215, Control_c, 0, 67, 38
1, 137229, Control_c, 0, 67, 34
1, 137244, Control_c, 0, 67, 31
1, 137274, Control_c, 0, 67, 33
1, 137318, Control_c, 0, 67, 27
1, 137333, Control_c, 0, 67, 0
1, 137370, Note_on_c, 0, 74, 98
1, 137408, Note_off_c, 0, 74, 67
1, 137585, Control_c, 0, 64, 81
1, 137599, Control_c, 0, 64, 0
1, 137605, Note_on_c, 0, 54, 97
1, 137629, Control_c, 0, 67, 29
1, 137639, Note_on_c, 0, 76, 91
1, 137644, Control_c, 0, 64, 60
1, 137644, Control_c, 0, 67, 25
1, 137659, Control_c, 0, 64, 102
1, 137659, Control_c, 0, 67, 0
1, 137673, Control_c, 0, 64, 127
1, 137708, Note_off_c, 0, 76, 64
1, 137711, Note_on_c, 0, 77, 77
1, 137805, Note_on_c, 0, 50, 49
1, 137805, Note_off_c, 0, 54, 54
1, 137808, Note_off_c, 0, 77, 65
1, 137817, Note_on_c, 0, 76, 71
1, 137875, Note_off_c, 0, 76, 65
1, 137896, Note_on_c, 0, 77, 63
1, 137953, Note_on_c, 0, 76, 77
1, 137954, Note_off_c, 0, 77, 65
1, 137980, Note_on_c, 0, 53, 86
1, 137984, Note_on_c, 0, 43, 82
1, 137987, Note_off_c, 0, 50, 59
1, 137993, Note_on_c, 0, 74, 95
1, 137994, Note_off_c, 0, 76, 67
1, 138008, Control_c, 0, 64, 72
1, 138023, Control_c, 0, 64, 0
1, 138026, Note_off_c, 0, 74, 67
1, 138180, Note_on_c, 0, 50, 77
1, 138180, Note_on_c, 0, 77, 87
1, 138190, Note_off_c, 0, 53, 40
1, 138218, Note_off_c, 0, 77, 64
1, 138238, Note_off_c, 0, 43, 62
1, 138333, Control_c, 0, 64, 41
1, 138333, Control_c, 0, 67, 31
1, 138343, Note_on_c, 0, 54, 96
1, 138348, Control_c, 0, 64, 127
1, 138348, Control_c, 0, 67, 34
1, 138351, Note_on_c, 0, 76, 84
1, 138354, Note_on_c, 0, 43, 80
1, 138363, Control_c, 0, 67, 28
1, 138368, Note_off_c, 0, 50, 58
1, 138377, Control_c, 0, 67, 25
1, 138392, Control_c, 0, 67, 21
1, 138398, Note_off_c, 0, 76, 66
1, 138400, Note_on_c, 0, 77, 75
1, 138446, Note_off_c, 0, 54, 59
1, 138452, Control_c, 0, 67, 0
1, 138483, Note_off_c, 0, 43, 53
1, 138494, Note_on_c, 0, 76, 79
1, 138495, Note_off_c, 0, 77, 63
1, 138514, Note_on_c, 0, 50, 53
1, 138543, Note_off_c, 0, 76, 61
1, 138587, Note_on_c, 0, 77, 47
1, 138615, Note_off_c, 0, 77, 64
1, 138624, Note_on_c, 0, 76, 77
1, 138653, Note_on_c, 0, 43, 76
1, 138656, Note_on_c, 0, 55, 82
1, 138657, Note_off_c, 0, 50, 60
1, 138673, Note_on_c, 0, 77, 93
1, 138681, Note_off_c, 0, 76, 63
1, 138683, Control_c, 0, 64, 85
1, 138698, Control_c, 0, 64, 0
1, 138707, Note_off_c, 0, 77, 69
1, 138738, Note_off_c, 0, 55, 55
1, 138814, Note_on_c, 0, 51, 63
1, 138827, Note_off_c, 0, 43, 61
1, 138833, Note_on_c, 0, 74, 88
1, 138839, Note_on_c, 0, 50, 76
1, 138848, Note_off_c, 0, 51, 52
1, 138870, Note_off_c, 0, 74, 64
1, 138975, Note_on_c, 0, 54, 87
1, 138975, Note_off_c, 0, 50, 61
1, 138980, Control_c, 0, 67, 23
1, 138983, Note_on_c, 0, 76, 88
1, 138994, Note_on_c, 0, 43, 67
1, 138994, Control_c, 0, 64, 76
1, 138994, Control_c, 0, 67, 28
1, 139009, Control_c, 0, 64, 127
1, 139009, Control_c, 0, 67, 0
1, 139030, Note_off_c, 0, 76, 64
1, 139036, Note_off_c, 0, 54, 63
1, 139038, Note_on_c, 0, 77, 80
1, 139100, Note_on_c, 0, 76, 88
1, 139105, Note_off_c, 0, 77, 67
1, 139117, Note_on_c, 0, 50, 64
1, 139134, Note_on_c, 0, 74, 92
1, 139148, Note_off_c, 0, 76, 63
1, 139184, Note_off_c, 0, 74, 64
1, 139273, Note_on_c, 0, 77, 88
1, 139275, Control_c, 0, 64, 94
1, 139278, Note_on_c, 0, 49, 78
1, 139279, Note_off_c, 0, 50, 59
1, 139290, Control_c, 0, 64, 65
1, 139305, Control_c, 0, 64, 48
1, 139311, Note_off_c, 0, 77, 68
1, 139319, Control_c, 0, 64, 56
1, 139334, Control_c, 0, 64, 69
1, 139349, Control_c, 0, 64, 99
1, 139364, Control_c, 0, 64, 127
1, 139433, Note_on_c, 0, 50, 84
1, 139446, Note_on_c, 0, 76, 85
1, 139452, Note_off_c, 0, 49, 58
1, 139453, Note_off_c, 0, 69, 55
1, 139462, Control_c, 0, 64, 92
1, 139476, Control_c, 0, 64, 56
1, 139491, Control_c, 0, 64, 0
1, 139492, Note_off_c, 0, 76, 66
1, 139505, Note_on_c, 0, 77, 76
1, 139521, Control_c, 0, 64, 54
1, 139536, Control_c, 0, 64, 74
1, 139549, Note_off_c, 0, 50, 58
1, 139550, Control_c, 0, 64, 100
1, 139552, Note_on_c, 0, 76, 90
1, 139557, Note_off_c, 0, 77, 64
1, 139564, Note_on_c, 0, 52, 83
1, 139565, Control_c, 0, 64, 127
1, 139568, Note_on_c, 0, 74, 95
1, 139578, Note_off_c, 0, 76, 63
1, 139634, Note_off_c, 0, 52, 60
1, 139707, Note_on_c, 0, 52, 62
1, 139707, Note_off_c, 0, 74, 60
1, 139718, Note_on_c, 0, 72, 92
1, 139740, Note_off_c, 0, 43, 40
1, 139743, Note_off_c, 0, 52, 61
1, 139785, Note_off_c, 0, 72, 59
1, 139832, Control_c, 0, 64, 115
1, 139847, Control_c, 0, 64, 58
1, 139862, Control_c, 0, 64, 0
1, 139874, Note_on_c, 0, 33, 89
1, 139882, Note_on_c, 0, 79, 83
1, 139886, Note_on_c, 0, 69, 89
1, 139888, Note_on_c, 0, 31, 76
1, 139900, Note_off_c, 0, 33, 67
1, 139906, Control_c, 0, 64, 61
1, 139906, Control_c, 0, 67, 19
1, 139917, Note_off_c, 0, 31, 64
1, 139921, Control_c, 0, 64, 85
1, 139921, Control_c, 0, 67, 0
1, 139936, Control_c, 0, 64, 127
1, 139965, Control_c, 0, 67, 20
1, 139979, Control_c, 0, 67, 24
1, 140023, Control_c, 0, 67, 20
1, 140065, Note_on_c, 0, 50, 79
1, 140066, Note_on_c, 0, 78, 81
1, 140068, Control_c, 0, 67, 24
1, 140074, Note_off_c, 0, 79, 62
1, 140093, Note_on_c, 0, 48, 46
1, 140093, Note_off_c, 0, 48, 127
1, 140097, Control_c, 0, 67, 20
1, 140110, Note_on_c, 0, 76, 87
1, 140112, Control_c, 0, 67, 0
1, 140123, Poly_aftertouch_c, 0, 48, 0
1, 140126, Note_off_c, 0, 78, 62
1, 140193, Note_on_c, 0, 74, 94
1, 140197, Note_off_c, 0, 50, 62
1, 140200, Note_off_c, 0, 76, 64
1, 140202, Note_on_c, 0, 52, 82
1, 140208, Control_c, 0, 64, 117
1, 140225, Control_c, 0, 64, 71
1, 140239, Control_c, 0, 64, 57
1, 140247, Note_off_c, 0, 74, 62
1, 140254, Control_c, 0, 64, 59
1, 140269, Control_c, 0, 64, 71
1, 140284, Control_c, 0, 64, 93
1, 140284, Control_c, 0, 67, 21
1, 140298, Control_c, 0, 64, 127
1, 140313, Control_c, 0, 67, 19
1, 140328, Control_c, 0, 67, 0
1, 140348, Note_on_c, 0, 50, 86
1, 140354, Note_on_c, 0, 72, 93
1, 140372, Control_c, 0, 67, 20
1, 140384, Note_off_c, 0, 69, 62
1, 140402, Control_c, 0, 67, 0
1, 140489, Note_off_c, 0, 50, 61
1, 140494, Note_on_c, 0, 71, 90
1, 140497, Note_off_c, 0, 52, 38
1, 140498, Note_on_c, 0, 53, 86
1, 140500, Note_on_c, 0, 43, 80
1, 140506, Control_c, 0, 64, 92
1, 140518, Note_off_c, 0, 72, 63
1, 140520, Note_off_c, 0, 71, 70
1, 140521, Control_c, 0, 64, 49
1, 140536, Control_c, 0, 64, 0
1, 140653, Note_off_c, 0, 53, 61
1, 140654, Control_c, 0, 67, 19
1, 140655, Note_on_c, 0, 50, 74
1, 140655, Note_on_c, 0, 67, 89
1, 140669, Control_c, 0, 67, 24
1, 140682, Note_off_c, 0, 67, 65
1, 140684, Control_c, 0, 67, 31
1, 140713, Control_c, 0, 67, 28
1, 140729, Control_c, 0, 67, 24
1, 140759, Control_c, 0, 67, 29
1, 140773, Control_c, 0, 67, 32
1, 140788, Control_c, 0, 67, 33
1, 140799, Note_on_c, 0, 54, 87
1, 140803, Control_c, 0, 64, 62
1, 140803, Control_c, 0, 67, 33
1, 140806, Note_on_c, 0, 69, 89
1, 140817, Control_c, 0, 64, 93
1, 140817, Control_c, 0, 67, 30
1, 140827, Note_on_c, 0, 70, 74
1, 140828, Note_off_c, 0, 50, 56
1, 140832, Control_c, 0, 64, 127
1, 140832, Control_c, 0, 67, 24
1, 140847, Control_c, 0, 67, 21
1, 140855, Note_off_c, 0, 69, 58
1, 140862, Control_c, 0, 67, 30
1, 140877, Control_c, 0, 67, 39
1, 140899, Control_c, 0, 67, 43
1, 140911, Note_off_c, 0, 54, 58
1, 140914, Control_c, 0, 67, 41
1, 140916, Note_on_c, 0, 69, 69
1, 140925, Note_off_c, 0, 70, 64
1, 140929, Control_c, 0, 67, 37
1, 140944, Control_c, 0, 67, 29
1, 140955, Note_on_c, 0, 50, 63
1, 140959, Control_c, 0, 67, 24
1, 140959, Note_on_c, 0, 70, 60
1, 140973, Control_c, 0, 67, 31
1, 140977, Note_off_c, 0, 69, 64
1, 140988, Control_c, 0, 67, 40
1, 141003, Control_c, 0, 67, 47
1, 141015, Note_off_c, 0, 43, 57
1, 141019, Control_c, 0, 67, 43
1, 141033, Note_on_c, 0, 69, 70
1, 141033, Control_c, 0, 67, 37
1, 141046, Note_off_c, 0, 70, 66
1, 141048, Control_c, 0, 67, 0
1, 141097, Note_on_c, 0, 53, 79
1, 141101, Note_on_c, 0, 43, 71
1, 141103, Note_on_c, 0, 67, 92
1, 141110, Note_off_c, 0, 69, 62
1, 141111, Note_off_c, 0, 50, 60
1, 141132, Note_off_c, 0, 67, 64
1, 141137, Control_c, 0, 64, 66
1, 141152, Control_c, 0, 64, 0
1, 141221, Note_off_c, 0, 53, 57
1, 141242, Note_on_c, 0, 50, 74
1, 141254, Note_on_c, 0, 71, 92
1, 141278, Note_off_c, 0, 71, 67
1, 141283, Note_off_c, 0, 43, 63
1, 141285, Control_c, 0, 67, 23
1, 141300, Control_c, 0, 67, 28
1, 141314, Control_c, 0, 67, 30
1, 141329, Control_c, 0, 67, 27
1, 141344, Control_c, 0, 67, 21
1, 141359, Control_c, 0, 67, 0
1, 141374, Control_c, 0, 67, 25
1, 141388, Control_c, 0, 67, 35
1, 141394, Note_on_c, 0, 54, 89
1, 141400, Note_on_c, 0, 69, 86
1, 141403, Note_on_c, 0, 43, 72
1, 141403, Control_c, 0, 64, 53
1, 141403, Control_c, 0, 67, 41
1, 141412, Note_off_c, 0, 50, 59
1, 141418, Control_c, 0, 64, 73
1, 141418, Control_c, 0, 67, 43
1, 141424, Note_on_c, 0, 70, 79
1, 141433, Control_c, 0, 64, 94
1, 141433, Control_c, 0, 67, 39
1, 141439, Note_off_c, 0, 69, 58
1, 141448, Control_c, 0, 64, 127
1, 141448, Control_c, 0, 67, 29
1, 141463, Control_c, 0, 67, 22
1, 141478, Control_c, 0, 67, 28
1, 141493, Control_c, 0, 67, 37
1, 141497, Note_on_c, 0, 69, 70
1, 141501, Note_off_c, 0, 54, 60
1, 141507, Control_c, 0, 67, 40
1, 141516, Note_off_c, 0, 70, 61
1, 141522, Control_c, 0, 67, 38
1, 141534, Note_on_c, 0, 50, 65
1, 141537, Control_c, 0, 67, 33
1, 141547, Note_off_c, 0, 43, 59
1, 141549, Note_on_c, 0, 70, 60
1, 141552, Control_c, 0, 67, 21
1, 141559, Note_off_c, 0, 69, 62
1, 141567, Control_c, 0, 67, 0
1, 141596, Control_c, 0, 67, 25
1, 141615, Note_on_c, 0, 69, 71
1, 141648, Control_c, 0, 67, 0
1, 141672, Note_on_c, 0, 43, 75
1, 141674, Note_off_c, 0, 70, 54
1, 141677, Note_on_c, 0, 53, 81
1, 141690, Note_on_c, 0, 71, 92
1, 141695, Note_off_c, 0, 69, 63
1, 141697, Note_off_c, 0, 50, 57
1, 141716, Note_off_c, 0, 71, 68
1, 141722, Control_c, 0, 64, 68
1, 141737, Control_c, 0, 64, 0
1, 141770, Note_off_c, 0, 53, 60
1, 141826, Control_c, 0, 67, 23
1, 141829, Note_on_c, 0, 50, 74
1, 141841, Control_c, 0, 67, 21
1, 141845, Note_on_c, 0, 67, 80
1, 141856, Control_c, 0, 67, 0
1, 141865, Note_off_c, 0, 67, 72
1, 141876, Note_off_c, 0, 43, 62
1, 141901, Control_c, 0, 67, 24
1, 141916, Control_c, 0, 67, 30
1, 141931, Control_c, 0, 67, 34
1, 141945, Control_c, 0, 67, 34
1, 141960, Control_c, 0, 67, 28
1, 141975, Control_c, 0, 67, 0
1, 141978, Note_on_c, 0, 54, 85
1, 141986, Note_on_c, 0, 69, 95
1, 141992, Note_off_c, 0, 50, 62
1, 141995, Note_on_c, 0, 43, 66
1, 142005, Control_c, 0, 64, 62
1, 142005, Control_c, 0, 67, 28
1, 142017, Note_off_c, 0, 69, 62
1, 142019, Control_c, 0, 64, 89
1, 142019, Control_c, 0, 67, 38
1, 142020, Note_on_c, 0, 70, 66
1, 142034, Control_c, 0, 64, 127
1, 142034, Control_c, 0, 67, 44
1, 142049, Control_c, 0, 67, 45
1, 142056, Note_off_c, 0, 54, 61
1, 142063, Control_c, 0, 67, 37
1, 142078, Control_c, 0, 67, 28
1, 142084, Note_on_c, 0, 69, 84
1, 142093, Control_c, 0, 67, 20
1, 142104, Note_off_c, 0, 70, 63
1, 142108, Control_c, 0, 67, 27
1, 142121, Note_on_c, 0, 50, 63
1, 142123, Control_c, 0, 67, 37
1, 142137, Control_c, 0, 67, 42
1, 142143, Note_on_c, 0, 70, 68
1, 142151, Note_off_c, 0, 69, 63
1, 142152, Control_c, 0, 67, 41
1, 142167, Control_c, 0, 67, 32
1, 142182, Control_c, 0, 67, 0
1, 142202, Note_off_c, 0, 70, 67
1, 142204, Note_on_c, 0, 69, 72
1, 142253, Note_on_c, 0, 52, 80
1, 142260, Note_on_c, 0, 67, 91
1, 142268, Note_off_c, 0, 69, 63
1, 142270, Note_off_c, 0, 50, 59
1, 142284, Note_off_c, 0, 67, 65
1, 142299, Control_c, 0, 64, 67
1, 142314, Control_c, 0, 64, 0
1, 142343, Control_c, 0, 67, 19
1, 142373, Control_c, 0, 67, 0
1, 142413, Note_on_c, 0, 50, 78
1, 142416, Note_on_c, 0, 71, 87
1, 142418, Note_off_c, 0, 52, 45
1, 142440, Control_c, 0, 67, 20
1, 142441, Note_off_c, 0, 71, 66
1, 142484, Control_c, 0, 67, 0
1, 142559, Note_off_c, 0, 50, 58
1, 142562, Note_on_c, 0, 69, 82
1, 142565, Note_on_c, 0, 49, 77
1, 142582, Note_on_c, 0, 70, 83
1, 142587, Control_c, 0, 64, 63
1, 142599, Note_off_c, 0, 69, 58
1, 142602, Control_c, 0, 64, 89
1, 142619, Control_c, 0, 64, 127
1, 142652, Note_on_c, 0, 69, 73
1, 142655, Note_off_c, 0, 70, 65
1, 142686, Note_on_c, 0, 50, 75
1, 142689, Note_off_c, 0, 49, 38
1, 142707, Note_on_c, 0, 67, 86
1, 142709, Note_off_c, 0, 69, 64
1, 142723, Note_off_c, 0, 50, 63
1, 142729, Note_off_c, 0, 43, 40
1, 142759, Note_off_c, 0, 67, 64
1, 142826, Control_c, 0, 64, 92
1, 142840, Control_c, 0, 64, 57
1, 142851, Note_on_c, 0, 31, 87
1, 142852, Note_on_c, 0, 62, 89
1, 142855, Control_c, 0, 64, 0
1, 142878, Note_off_c, 0, 31, 68
1, 142885, Control_c, 0, 64, 58
1, 142900, Control_c, 0, 64, 83
1, 142914, Control_c, 0, 64, 127
1, 142991, Note_off_c, 0, 62, 58
1, 143005, Note_on_c, 0, 67, 89
1, 143010, Note_on_c, 0, 50, 85
1, 143040, Note_off_c, 0, 67, 68
1, 143159, Note_off_c, 0, 50, 60
1, 143165, Note_on_c, 0, 69, 90
1, 143170, Note_on_c, 0, 52, 74
1, 143174, Control_c, 0, 64, 104
1, 143189, Control_c, 0, 64, 81
1, 143204, Control_c, 0, 64, 80
1, 143218, Control_c, 0, 64, 92
1, 143233, Control_c, 0, 64, 127
1, 143235, Note_on_c, 0, 72, 75
1, 143236, Note_on_c, 0, 71, 87
1, 143281, Note_off_c, 0, 52, 53
1, 143283, Note_on_c, 0, 50, 86
1, 143300, Note_off_c, 0, 71, 63
1, 143445, Note_off_c, 0, 72, 58
1, 143448, Note_off_c, 0, 50, 59
1, 143451, Note_on_c, 0, 74, 98
1, 143452, Note_on_c, 0, 43, 81
1, 143454, Note_on_c, 0, 53, 84
1, 143482, Note_off_c, 0, 74, 66
1, 143487, Control_c, 0, 64, 64
1, 143502, Control_c, 0, 64, 0
1, 143612, Note_on_c, 0, 50, 79
1, 143612, Note_on_c, 0, 77, 92
1, 143620, Note_off_c, 0, 53, 56
1, 143645, Note_off_c, 0, 77, 68
1, 143764, Note_on_c, 0, 54, 92
1, 143775, Note_on_c, 0, 76, 89
1, 143781, Note_off_c, 0, 50, 58
1, 143782, Control_c, 0, 64, 62
1, 143797, Control_c, 0, 64, 127
1, 143807, Note_on_c, 0, 77, 63
1, 143819, Note_off_c, 0, 76, 63
1, 143836, Note_off_c, 0, 54, 55
1, 143856, Control_c, 0, 67, 23
1, 143888, Note_on_c, 0, 76, 66
1, 143892, Note_off_c, 0, 77, 65
1, 143894, Control_c, 0, 67, 19
1, 143907, Note_on_c, 0, 74, 58
1, 143908, Control_c, 0, 67, 0
1, 143919, Note_on_c, 0, 50, 69
1, 143928, Note_off_c, 0, 74, 38
1, 143948, Note_off_c, 0, 76, 63
1, 143953, Control_c, 0, 67, 22
1, 143958, Note_on_c, 0, 77, 70
1, 143968, Control_c, 0, 67, 25
1, 143997, Control_c, 0, 67, 20
1, 144011, Note_on_c, 0, 76, 74
1, 144012, Control_c, 0, 67, 0
1, 144044, Note_off_c, 0, 77, 61
1, 144052, Note_on_c, 0, 53, 75
1, 144056, Note_on_c, 0, 74, 90
1, 144056, Control_c, 0, 67, 23
1, 144060, Note_off_c, 0, 50, 60
1, 144063, Note_off_c, 0, 76, 64
1, 144071, Control_c, 0, 67, 30
1, 144086, Control_c, 0, 67, 36
1, 144091, Note_off_c, 0, 74, 66
1, 144101, Control_c, 0, 64, 79
1, 144101, Control_c, 0, 67, 34
1, 144116, Control_c, 0, 64, 0
1, 144116, Control_c, 0, 67, 30
1, 144131, Control_c, 0, 67, 28
1, 144146, Control_c, 0, 67, 33
1, 144160, Control_c, 0, 67, 41
1, 144174, Note_off_c, 0, 53, 58
1, 144175, Control_c, 0, 67, 51
1, 144190, Control_c, 0, 67, 62
1, 144204, Note_on_c, 0, 50, 69
1, 144205, Control_c, 0, 67, 60
1, 144211, Note_off_c, 0, 43, 59
1, 144219, Note_on_c, 0, 71, 91
1, 144220, Control_c, 0, 67, 57
1, 144235, Control_c, 0, 67, 56
1, 144250, Control_c, 0, 67, 62
1, 144255, Note_off_c, 0, 71, 66
1, 144265, Control_c, 0, 67, 73
1, 144280, Control_c, 0, 67, 91
1, 144295, Control_c, 0, 67, 99
1, 144324, Control_c, 0, 67, 94
1, 144339, Control_c, 0, 67, 93
1, 144354, Control_c, 0, 67, 97
1, 144357, Note_on_c, 0, 73, 88
1, 144359, Note_on_c, 0, 52, 94
1, 144361, Note_on_c, 0, 43, 78
1, 144368, Note_off_c, 0, 50, 60
1, 144369, Control_c, 0, 64, 41
1, 144369, Control_c, 0, 67, 106
1, 144384, Control_c, 0, 64, 87
1, 144384, Control_c, 0, 67, 115
1, 144399, Control_c, 0, 64, 127
1, 144402, Note_on_c, 0, 74, 85
1, 144405, Note_off_c, 0, 73, 64
1, 144413, Control_c, 0, 67, 110
1, 144428, Control_c, 0, 67, 103
1, 144443, Control_c, 0, 67, 94
1, 144457, Control_c, 0, 67, 97
1, 144471, Note_on_c, 0, 73, 83
1, 144471, Note_off_c, 0, 74, 64
1, 144472, Control_c, 0, 67, 106
1, 144482, Note_off_c, 0, 52, 57
1, 144487, Control_c, 0, 67, 112
1, 144502, Control_c, 0, 67, 107
1, 144507, Note_on_c, 0, 50, 70
1, 144517, Control_c, 0, 67, 99
1, 144527, Note_off_c, 0, 73, 59
1, 144531, Control_c, 0, 67, 82
1, 144546, Control_c, 0, 67, 56
1, 144557, Note_on_c, 0, 74, 74
1, 144561, Control_c, 0, 67, 53
1, 144576, Control_c, 0, 67, 64
1, 144583, Note_off_c, 0, 74, 66
1, 144590, Control_c, 0, 67, 71
1, 144595, Note_on_c, 0, 73, 84
1, 144605, Control_c, 0, 67, 64
1, 144613, Note_off_c, 0, 73, 71
1, 144620, Control_c, 0, 67, 55
1, 144635, Note_on_c, 0, 53, 76
1, 144643, Control_c, 0, 67, 36
1, 144647, Note_off_c, 0, 50, 57
1, 144653, Note_on_c, 0, 74, 89
1, 144657, Control_c, 0, 67, 0
1, 144672, Control_c, 0, 64, 105
1, 144672, Control_c, 0, 67, 28
1, 144687, Control_c, 0, 64, 63
1, 144687, Control_c, 0, 67, 46
1, 144688, Note_off_c, 0, 74, 67
1, 144699, Poly_aftertouch_c, 0, 72, 0
1, 144702, Control_c, 0, 64, 0
1, 144702, Control_c, 0, 67, 64
1, 144717, Control_c, 0, 67, 63
1, 144731, Control_c, 0, 67, 56
1, 144746, Control_c, 0, 67, 50
1, 144761, Control_c, 0, 67, 49
1, 144776, Control_c, 0, 67, 63
1, 144790, Control_c, 0, 67, 76
1, 144797, Note_on_c, 0, 50, 70
1, 144799, Note_on_c, 0, 77, 90
1, 144799, Note_off_c, 0, 53, 54
1, 144799, Note_on_c, 0, 53, 14
1, 144799, Note_off_c, 0, 53, 127
1, 144805, Control_c, 0, 67, 87
1, 144813, Note_off_c, 0, 43, 60
1, 144820, Control_c, 0, 67, 84
1, 144831, Note_off_c, 0, 77, 65
1, 144835, Control_c, 0, 67, 75
1, 144850, Control_c, 0, 67, 67
1, 144864, Control_c, 0, 67, 70
1, 144879, Control_c, 0, 67, 81
1, 144894, Control_c, 0, 67, 88
1, 144909, Control_c, 0, 67, 89
1, 144924, Control_c, 0, 67, 82
1, 144938, Control_c, 0, 67, 71
1, 144945, Note_on_c, 0, 49, 82
1, 144946, Note_on_c, 0, 43, 68
1, 144953, Control_c, 0, 64, 42
1, 144953, Control_c, 0, 67, 59
1, 144959, Note_on_c, 0, 76, 77
1, 144963, Note_off_c, 0, 50, 57
1, 144968, Control_c, 0, 64, 74
1, 144968, Control_c, 0, 67, 65
1, 144974, Note_on_c, 0, 77, 63
1, 144983, Control_c, 0, 64, 82
1, 144983, Control_c, 0, 67, 83
1, 144990, Note_off_c, 0, 76, 64
1, 144998, Control_c, 0, 64, 82
1, 144998, Control_c, 0, 67, 105
1, 145013, Control_c, 0, 64, 75
1, 145013, Control_c, 0, 67, 114
1, 145028, Control_c, 0, 64, 74
1, 145028, Control_c, 0, 67, 106
1, 145043, Control_c, 0, 64, 78
1, 145043, Control_c, 0, 67, 90
1, 145057, Note_on_c, 0, 76, 87
1, 145058, Control_c, 0, 64, 87
1, 145058, Control_c, 0, 67, 61
1, 145070, Note_off_c, 0, 77, 53
1, 145073, Control_c, 0, 64, 90
1, 145073, Control_c, 0, 67, 50
1, 145084, Note_on_c, 0, 50, 85
1, 145088, Control_c, 0, 64, 81
1, 145088, Control_c, 0, 67, 63
1, 145092, Note_on_c, 0, 74, 87
1, 145098, Note_off_c, 0, 76, 65
1, 145102, Note_off_c, 0, 49, 59
1, 145102, Control_c, 0, 64, 65
1, 145102, Control_c, 0, 67, 75
1, 145117, Control_c, 0, 64, 40
1, 145117, Control_c, 0, 67, 78
1, 145129, Note_off_c, 0, 74, 62
1, 145132, Control_c, 0, 64, 38
1, 145132, Control_c, 0, 67, 69
1, 145147, Control_c, 0, 64, 63
1, 145147, Control_c, 0, 67, 56
1, 145162, Control_c, 0, 64, 84
1, 145162, Control_c, 0, 67, 34
1, 145177, Control_c, 0, 64, 120
1, 145177, Control_c, 0, 67, 29
1, 145192, Control_c, 0, 64, 99
1, 145192, Control_c, 0, 67, 41
1, 145206, Control_c, 0, 64, 67
1, 145206, Control_c, 0, 67, 49
1, 145221, Control_c, 0, 64, 0
1, 145221, Control_c, 0, 67, 50
1, 145235, Note_on_c, 0, 73, 94
1, 145236, Control_c, 0, 67, 43
1, 145240, Note_on_c, 0, 52, 79
1, 145248, Note_off_c, 0, 50, 60
1, 145251, Control_c, 0, 64, 60
1, 145251, Control_c, 0, 67, 33
1, 145266, Control_c, 0, 64, 86
1, 145266, Control_c, 0, 67, 24
1, 145269, Note_off_c, 0, 69, 63
1, 145280, Control_c, 0, 64, 127
1, 145280, Control_c, 0, 67, 31
1, 145281, Note_off_c, 0, 73, 66
1, 145295, Control_c, 0, 67, 45
1, 145310, Control_c, 0, 67, 60
1, 145325, Control_c, 0, 67, 64
1, 145340, Control_c, 0, 67, 56
1, 145354, Control_c, 0, 67, 45
1, 145369, Control_c, 0, 67, 30
1, 145390, Note_off_c, 0, 52, 58
1, 145395, Note_on_c, 0, 71, 84
1, 145400, Note_on_c, 0, 50, 78
1, 145406, Control_c, 0, 67, 40
1, 145421, Control_c, 0, 67, 44
1, 145432, Note_off_c, 0, 71, 57
1, 145435, Note_on_c, 0, 69, 75
1, 145436, Control_c, 0, 67, 45
1, 145451, Control_c, 0, 67, 39
1, 145466, Control_c, 0, 67, 31
1, 145481, Control_c, 0, 64, 124
1, 145481, Control_c, 0, 67, 20
1, 145486, Note_on_c, 0, 71, 80
1, 145490, Note_off_c, 0, 69, 63
1, 145495, Control_c, 0, 64, 75
1, 145495, Control_c, 0, 67, 0
1, 145510, Control_c, 0, 64, 52
1, 145510, Control_c, 0, 67, 24
1, 145522, Note_on_c, 0, 53, 82
1, 145525, Control_c, 0, 64, 0
1, 145525, Control_c, 0, 67, 27
1, 145528, Note_off_c, 0, 50, 59
1, 145531, Note_on_c, 0, 73, 96
1, 145540, Control_c, 0, 64, 49
1, 145540, Control_c, 0, 67, 23
1, 145541, Note_off_c, 0, 71, 62
1, 145555, Control_c, 0, 64, 70
1, 145555, Control_c, 0, 67, 0
1, 145569, Control_c, 0, 64, 113
1, 145584, Control_c, 0, 64, 127
1, 145606, Note_off_c, 0, 53, 52
1, 145668, Note_on_c, 0, 50, 87
1, 145678, Note_on_c, 0, 74, 86
1, 145681, Note_off_c, 0, 43, 54
1, 145697, Note_off_c, 0, 73, 56
1, 145706, Note_off_c, 0, 50, 62
1, 145758, Note_off_c, 0, 74, 54
1, 145791, Control_c, 0, 64, 69
1, 145807, Control_c, 0, 64, 0
1, 145819, Note_on_c, 0, 31, 94
1, 145830, Note_on_c, 0, 62, 76
1, 145844, Note_off_c, 0, 31, 70
1, 145851, Control_c, 0, 64, 58
1, 145866, Control_c, 0, 64, 79
1, 145881, Control_c, 0, 64, 127
1, 145896, Control_c, 0, 67, 26
1, 145910, Control_c, 0, 67, 28
1, 145925, Control_c, 0, 67, 26
1, 145940, Control_c, 0, 67, 22
1, 145962, Note_off_c, 0, 62, 60
1, 145985, Control_c, 0, 67, 26
1, 146001, Note_on_c, 0, 53, 88
1, 146009, Note_on_c, 0, 67, 77
1, 146029, Control_c, 0, 64, 104
1, 146029, Control_c, 0, 67, 23
1, 146044, Control_c, 0, 64, 72
1, 146059, Control_c, 0, 64, 61
1, 146066, Note_on_c, 0, 62, 87
1, 146071, Note_off_c, 0, 67, 65
1, 146074, Control_c, 0, 64, 63
1, 146074, Control_c, 0, 67, 25
1, 146089, Control_c, 0, 64, 71
1, 146101, Note_off_c, 0, 53, 46
1, 146103, Note_on_c, 0, 51, 79
1, 146104, Control_c, 0, 64, 84
1, 146114, Note_off_c, 0, 62, 64
1, 146119, Control_c, 0, 64, 108
1, 146119, Control_c, 0, 67, 22
1, 146122, Note_on_c, 0, 52, 81
1, 146140, Note_on_c, 0, 67, 87
1, 146141, Control_c, 0, 64, 127
1, 146141, Control_c, 0, 67, 0
1, 146216, Note_off_c, 0, 51, 51
1, 146283, Note_on_c, 0, 49, 88
1, 146291, Note_on_c, 0, 69, 91
1, 146300, Note_off_c, 0, 52, 59
1, 146315, Note_off_c, 0, 67, 63
1, 146399, Poly_aftertouch_c, 0, 71, 0
1, 146410, Note_off_c, 0, 49, 65
1, 146427, Note_on_c, 0, 71, 78
1, 146428, Note_on_c, 0, 50, 88
1, 146447, Note_off_c, 0, 69, 60
1, 146452, Control_c, 0, 64, 75
1, 146452, Control_c, 0, 67, 20
1, 146467, Control_c, 0, 64, 0
1, 146467, Control_c, 0, 67, 34
1, 146471, Note_off_c, 0, 71, 67
1, 146482, Control_c, 0, 67, 45
1, 146497, Control_c, 0, 67, 44
1, 146511, Control_c, 0, 67, 40
1, 146526, Control_c, 0, 67, 38
1, 146541, Control_c, 0, 67, 39
1, 146555, Control_c, 0, 67, 50
1, 146570, Control_c, 0, 67, 58
1, 146573, Note_off_c, 0, 50, 61
1, 146576, Note_on_c, 0, 53, 75
1, 146585, Control_c, 0, 67, 64
1, 146592, Note_on_c, 0, 74, 86
1, 146601, Control_c, 0, 67, 64
1, 146616, Control_c, 0, 67, 61
1, 146623, Note_off_c, 0, 74, 67
1, 146631, Control_c, 0, 67, 59
1, 146646, Control_c, 0, 67, 63
1, 146660, Control_c, 0, 67, 70
1, 146675, Control_c, 0, 67, 78
1, 146690, Control_c, 0, 67, 81
1, 146705, Control_c, 0, 67, 76
1, 146719, Control_c, 0, 67, 68
1, 146733, Control_c, 0, 67, 64
1, 146739, Note_on_c, 0, 52, 85
1, 146740, Note_on_c, 0, 73, 91
1, 146748, Control_c, 0, 64, 74
1, 146748, Control_c, 0, 67, 71
1, 146763, Control_c, 0, 64, 127
1, 146763, Control_c, 0, 67, 78
1, 146778, Control_c, 0, 67, 85
1, 146789, Note_off_c, 0, 73, 63
1, 146790, Note_on_c, 0, 74, 56
1, 146793, Control_c, 0, 67, 86
1, 146800, Note_off_c, 0, 53, 35
1, 146807, Control_c, 0, 67, 79
1, 146822, Control_c, 0, 67, 67
1, 146837, Control_c, 0, 67, 42
1, 146852, Control_c, 0, 67, 23
1, 146858, Note_on_c, 0, 73, 79
1, 146867, Control_c, 0, 67, 32
1, 146867, Note_off_c, 0, 74, 64
1, 146889, Control_c, 0, 67, 37
1, 146899, Note_on_c, 0, 43, 76
1, 146904, Control_c, 0, 67, 37
1, 146919, Control_c, 0, 67, 32
1, 146932, Note_off_c, 0, 73, 63
1, 146933, Note_on_c, 0, 74, 69
1, 146933, Control_c, 0, 67, 22
1, 146948, Control_c, 0, 67, 0
1, 146974, Note_on_c, 0, 73, 62
1, 146989, Note_off_c, 0, 74, 62
1, 147019, Note_on_c, 0, 71, 90
1, 147023, Note_off_c, 0, 73, 67
1, 147028, Note_on_c, 0, 50, 83
1, 147038, Note_off_c, 0, 52, 59
1, 147052, Control_c, 0, 64, 85
1, 147054, Note_off_c, 0, 71, 67
1, 147067, Control_c, 0, 64, 46
1, 147082, Control_c, 0, 64, 0
1, 147082, Control_c, 0, 67, 23
1, 147097, Control_c, 0, 67, 28
1, 147126, Control_c, 0, 67, 24
1, 147141, Control_c, 0, 67, 0
1, 147169, Note_on_c, 0, 67, 86
1, 147171, Control_c, 0, 67, 21
1, 147172, Note_on_c, 0, 53, 71
1, 147179, Note_off_c, 0, 50, 61
1, 147185, Control_c, 0, 67, 32
1, 147194, Note_off_c, 0, 67, 66
1, 147200, Control_c, 0, 67, 39
1, 147215, Control_c, 0, 67, 43
1, 147230, Control_c, 0, 67, 41
1, 147245, Control_c, 0, 67, 35
1, 147259, Control_c, 0, 67, 34
1, 147274, Control_c, 0, 67, 38
1, 147275, Note_off_c, 0, 43, 58
1, 147289, Control_c, 0, 67, 43
1, 147304, Control_c, 0, 67, 43
1, 147316, Note_on_c, 0, 69, 91
1, 147319, Control_c, 0, 67, 36
1, 147323, Note_on_c, 0, 49, 80
1, 147333, Control_c, 0, 64, 64
1, 147333, Control_c, 0, 67, 31
1, 147338, Note_off_c, 0, 53, 63
1, 147348, Control_c, 0, 64, 71
1, 147348, Control_c, 0, 67, 25
1, 147350, Note_on_c, 0, 70, 69
1, 147362, Note_off_c, 0, 69, 49
1, 147363, Control_c, 0, 64, 74
1, 147363, Control_c, 0, 67, 23
1, 147377, Control_c, 0, 64, 77
1, 147377, Control_c, 0, 67, 30
1, 147392, Control_c, 0, 64, 84
1, 147408, Control_c, 0, 64, 105
1, 147408, Control_c, 0, 67, 22
1, 147417, Note_on_c, 0, 69, 72
1, 147423, Control_c, 0, 64, 127
1, 147423, Control_c, 0, 67, 0
1, 147441, Note_off_c, 0, 70, 64
1, 147450, Note_on_c, 0, 43, 83
1, 147474, Note_on_c, 0, 70, 59
1, 147487, Note_off_c, 0, 69, 62
1, 147512, Control_c, 0, 64, 93
1, 147527, Control_c, 0, 64, 63
1, 147541, Note_on_c, 0, 69, 68
1, 147542, Control_c, 0, 64, 39
1, 147556, Control_c, 0, 64, 54
1, 147570, Note_off_c, 0, 70, 60
1, 147571, Control_c, 0, 64, 65
1, 147586, Control_c, 0, 64, 65
1, 147586, Control_c, 0, 67, 21
1, 147597, Note_on_c, 0, 54, 91
1, 147600, Control_c, 0, 64, 60
1, 147611, Note_on_c, 0, 67, 89
1, 147615, Control_c, 0, 64, 48
1, 147615, Control_c, 0, 67, 0
1, 147616, Note_off_c, 0, 69, 60
1, 147638, Control_c, 0, 64, 39
1, 147653, Control_c, 0, 64, 49
1, 147653, Control_c, 0, 67, 20
1, 147668, Control_c, 0, 64, 58
1, 147668, Control_c, 0, 67, 27
1, 147682, Control_c, 0, 64, 61
1, 147682, Control_c, 0, 67, 34
1, 147697, Control_c, 0, 64, 62
1, 147697, Control_c, 0, 67, 34
1, 147712, Control_c, 0, 67, 29
1, 147722, Note_off_c, 0, 54, 56
1, 147727, Control_c, 0, 64, 66
1, 147727, Control_c, 0, 67, 26
1, 147742, Control_c, 0, 64, 76
1, 147756, Control_c, 0, 64, 88
1, 147756, Control_c, 0, 67, 29
1, 147764, Note_on_c, 0, 53, 84
1, 147771, Control_c, 0, 67, 37
1, 147774, Note_off_c, 0, 49, 60
1, 147779, Note_on_c, 0, 74, 70
1, 147781, Note_off_c, 0, 67, 62
1, 147785, Note_on_c, 0, 76, 70
1, 147786, Control_c, 0, 64, 71
1, 147786, Control_c, 0, 67, 38
1, 147800, Note_off_c, 0, 76, 66
1, 147800, Control_c, 0, 64, 44
1, 147800, Control_c, 0, 67, 37
1, 147803, Note_off_c, 0, 74, 67
1, 147815, Control_c, 0, 64, 0
1, 147815, Control_c, 0, 67, 33
1, 147830, Control_c, 0, 67, 30
1, 147860, Control_c, 0, 67, 33
1, 147875, Control_c, 0, 67, 40
1, 147890, Control_c, 0, 67, 43
1, 147903, Note_off_c, 0, 43, 58
1, 147904, Control_c, 0, 67, 42
1, 147917, Note_on_c, 0, 52, 74
1, 147919, Control_c, 0, 67, 37
1, 147922, Note_on_c, 0, 73, 86
1, 147934, Note_off_c, 0, 53, 55
1, 147934, Control_c, 0, 67, 31
1, 147949, Control_c, 0, 64, 59
1, 147949, Control_c, 0, 67, 25
1, 147964, Control_c, 0, 64, 66
1, 147970, Note_on_c, 0, 74, 70
1, 147973, Note_off_c, 0, 73, 64
1, 147979, Control_c, 0, 64, 69
1, 147979, Control_c, 0, 67, 34
1, 147994, Control_c, 0, 64, 70
1, 147994, Control_c, 0, 67, 35
1, 148008, Control_c, 0, 64, 69
1, 148008, Control_c, 0, 67, 34
1, 148023, Control_c, 0, 64, 69
1, 148023, Control_c, 0, 67, 29
1, 148038, Control_c, 0, 67, 22
1, 148039, Note_on_c, 0, 73, 81
1, 148042, Note_off_c, 0, 74, 64
1, 148053, Control_c, 0, 67, 0
1, 148065, Note_on_c, 0, 43, 72
1, 148068, Control_c, 0, 64, 69
1, 148082, Control_c, 0, 64, 68
1, 148097, Control_c, 0, 64, 62
1, 148101, Note_off_c, 0, 73, 62
1, 148112, Control_c, 0, 64, 0
1, 148117, Note_on_c, 0, 74, 61
1, 148148, Note_on_c, 0, 73, 70
1, 148173, Note_off_c, 0, 74, 64
1, 148195, Note_on_c, 0, 50, 80
1, 148197, Note_on_c, 0, 71, 81
1, 148211, Note_off_c, 0, 52, 62
1, 148217, Control_c, 0, 64, 36
1, 148217, Control_c, 0, 67, 19
1, 148230, Note_off_c, 0, 73, 63
1, 148232, Control_c, 0, 64, 59
1, 148232, Control_c, 0, 67, 0
1, 148247, Control_c, 0, 64, 65
1, 148262, Control_c, 0, 64, 66
1, 148277, Control_c, 0, 67, 21
1, 148292, Control_c, 0, 67, 29
1, 148306, Control_c, 0, 64, 66
1, 148306, Control_c, 0, 67, 35
1, 148321, Control_c, 0, 64, 67
1, 148321, Control_c, 0, 67, 37
1, 148331, Note_off_c, 0, 50, 62
1, 148335, Note_on_c, 0, 53, 71
1, 148336, Control_c, 0, 67, 36
1, 148339, Note_on_c, 0, 67, 78
1, 148340, Note_off_c, 0, 71, 64
1, 148350, Control_c, 0, 64, 66
1, 148350, Control_c, 0, 67, 32
1, 148361, Note_off_c, 0, 67, 68
1, 148365, Control_c, 0, 64, 59
1, 148365, Control_c, 0, 67, 34
1, 148387, Control_c, 0, 64, 0
1, 148387, Control_c, 0, 67, 44
1, 148402, Control_c, 0, 67, 58
1, 148417, Control_c, 0, 67, 70
1, 148432, Control_c, 0, 67, 73
1, 148447, Control_c, 0, 67, 72
1, 148462, Control_c, 0, 67, 70
1, 148477, Control_c, 0, 67, 71
1, 148488, Note_on_c, 0, 69, 79
1, 148492, Control_c, 0, 67, 78
1, 148497, Note_on_c, 0, 49, 66
1, 148506, Control_c, 0, 67, 92
1, 148521, Control_c, 0, 64, 34
1, 148521, Control_c, 0, 67, 105
1, 148530, Note_on_c, 0, 70, 72
1, 148536, Control_c, 0, 64, 0
1, 148536, Control_c, 0, 67, 113
1, 148537, Note_off_c, 0, 69, 60
1, 148558, Note_off_c, 0, 43, 58
1, 148565, Control_c, 0, 64, 37
1, 148565, Control_c, 0, 67, 111
1, 148575, Note_off_c, 0, 53, 47
1, 148580, Control_c, 0, 64, 42
1, 148580, Control_c, 0, 67, 113
1, 148589, Note_on_c, 0, 69, 72
1, 148595, Control_c, 0, 64, 46
1, 148595, Control_c, 0, 67, 122
1, 148607, Note_off_c, 0, 70, 65
1, 148610, Control_c, 0, 64, 41
1, 148610, Control_c, 0, 67, 127
1, 148613, Note_off_c, 0, 49, 62
1, 148619, Note_on_c, 0, 52, 61
1, 148624, Control_c, 0, 64, 0
1, 148638, Note_on_c, 0, 67, 75
1, 148649, Note_off_c, 0, 69, 63
1, 148780, Note_on_c, 0, 43, 64
1, 148787, Note_on_c, 0, 71, 73
1, 148787, Control_c, 0, 64, 38
1, 148793, Note_off_c, 0, 67, 61
1, 148802, Control_c, 0, 64, 43
1, 148817, Control_c, 0, 64, 45
1, 148832, Control_c, 0, 64, 47
1, 148846, Control_c, 0, 64, 52
1, 148861, Control_c, 0, 64, 58
1, 148876, Control_c, 0, 64, 61
1, 148891, Control_c, 0, 64, 62
1, 148921, Control_c, 0, 64, 61
1, 148931, Note_on_c, 0, 53, 63
1, 148933, Note_on_c, 0, 67, 69
1, 148936, Control_c, 0, 64, 52
1, 148940, Note_off_c, 0, 71, 63
1, 148950, Control_c, 0, 64, 0
1, 148952, Note_off_c, 0, 52, 59
1, 148956, Note_off_c, 0, 67, 69
1, 149082, Note_on_c, 0, 69, 71
1, 149087, Note_on_c, 0, 49, 54
1, 149104, Note_on_c, 0, 70, 75
1, 149115, Note_off_c, 0, 69, 60
1, 149147, Note_off_c, 0, 53, 49
1, 149177, Note_on_c, 0, 69, 67
1, 149180, Note_off_c, 0, 70, 65
1, 149204, Note_off_c, 0, 49, 61
1, 149225, Note_on_c, 0, 52, 49
1, 149227, Note_on_c, 0, 67, 72
1, 149229, Note_off_c, 0, 69, 61
1, 149378, Note_on_c, 0, 50, 65
1, 149378, Note_on_c, 0, 71, 76
1, 149379, Note_off_c, 0, 52, 62
1, 149395, Note_off_c, 0, 67, 53
1, 149502, Note_off_c, 0, 50, 61
1, 149518, Note_on_c, 0, 53, 62
1, 149531, Note_on_c, 0, 67, 67
1, 149537, Note_off_c, 0, 71, 62
1, 149555, Note_off_c, 0, 67, 69
1, 149672, Note_on_c, 0, 49, 58
1, 149680, Note_on_c, 0, 69, 73
1, 149705, Note_off_c, 0, 53, 39
1, 149714, Note_on_c, 0, 70, 69
1, 149726, Note_off_c, 0, 69, 56
1, 149759, Note_off_c, 0, 43, 42
1, 149768, Note_on_c, 0, 69, 59
1, 149778, Note_off_c, 0, 49, 59
1, 149782, Note_off_c, 0, 70, 65
1, 149788, Note_on_c, 0, 52, 50
1, 149817, Note_on_c, 0, 67, 64
1, 149827, Note_off_c, 0, 69, 63
1, 149973, Note_off_c, 0, 67, 51
1, 149977, Note_on_c, 0, 43, 52
1, 149979, Note_on_c, 0, 70, 72
1, 150001, Note_off_c, 0, 70, 70
1, 150125, Note_on_c, 0, 49, 67
1, 150130, Note_on_c, 0, 69, 74
1, 150131, Note_off_c, 0, 52, 44
1, 150161, Note_on_c, 0, 70, 75
1, 150169, Note_off_c, 0, 69, 61
1, 150218, Note_on_c, 0, 69, 67
1, 150237, Note_off_c, 0, 70, 65
1, 150262, Note_on_c, 0, 53, 74
1, 150263, Note_off_c, 0, 49, 63
1, 150271, Note_on_c, 0, 67, 83
1, 150286, Note_off_c, 0, 69, 63
1, 150300, Control_c, 0, 64, 48
1, 150315, Control_c, 0, 64, 62
1, 150329, Control_c, 0, 64, 61
1, 150344, Control_c, 0, 64, 57
1, 150359, Control_c, 0, 64, 57
1, 150374, Control_c, 0, 64, 60
1, 150389, Control_c, 0, 64, 67
1, 150403, Control_c, 0, 64, 74
1, 150414, Note_on_c, 0, 50, 86
1, 150417, Note_on_c, 0, 70, 90
1, 150418, Control_c, 0, 64, 75
1, 150429, Note_off_c, 0, 67, 63
1, 150433, Control_c, 0, 64, 61
1, 150433, Control_c, 0, 67, 114
1, 150437, Note_off_c, 0, 53, 57
1, 150447, Control_c, 0, 64, 0
1, 150447, Control_c, 0, 67, 87
1, 150454, Note_off_c, 0, 70, 65
1, 150462, Control_c, 0, 67, 69
1, 150477, Control_c, 0, 67, 71
1, 150492, Control_c, 0, 67, 72
1, 150507, Control_c, 0, 67, 67
1, 150521, Control_c, 0, 67, 59
1, 150536, Control_c, 0, 67, 42
1, 150551, Control_c, 0, 67, 27
1, 150565, Note_on_c, 0, 49, 82
1, 150573, Note_off_c, 0, 50, 62
1, 150578, Note_on_c, 0, 69, 85
1, 150596, Note_on_c, 0, 70, 86
1, 150596, Control_c, 0, 67, 21
1, 150611, Control_c, 0, 67, 0
1, 150625, Note_off_c, 0, 69, 58
1, 150668, Note_on_c, 0, 69, 66
1, 150682, Note_off_c, 0, 70, 67
1, 150724, Note_on_c, 0, 53, 91
1, 150733, Note_on_c, 0, 67, 89
1, 150737, Note_off_c, 0, 69, 65
1, 150737, Control_c, 0, 64, 56
1, 150739, Note_off_c, 0, 49, 62
1, 150751, Control_c, 0, 64, 75
1, 150781, Control_c, 0, 64, 70
1, 150796, Control_c, 0, 64, 62
1, 150826, Control_c, 0, 64, 69
1, 150841, Control_c, 0, 64, 82
1, 150856, Control_c, 0, 64, 99
1, 150870, Control_c, 0, 64, 111
1, 150885, Control_c, 0, 64, 117
1, 150888, Note_on_c, 0, 70, 91
1, 150890, Note_on_c, 0, 52, 86
1, 150900, Control_c, 0, 64, 127
1, 150900, Note_off_c, 0, 53, 62
1, 150903, Note_off_c, 0, 67, 65
1, 150925, Note_off_c, 0, 70, 67
1, 150930, Control_c, 0, 64, 90
1, 150945, Control_c, 0, 64, 58
1, 150959, Control_c, 0, 64, 0
1, 151059, Note_on_c, 0, 54, 86
1, 151065, Note_on_c, 0, 69, 88
1, 151069, Note_off_c, 0, 52, 63
1, 151102, Note_on_c, 0, 70, 79
1, 151111, Note_off_c, 0, 69, 62
1, 151162, Note_off_c, 0, 70, 67
1, 151163, Note_on_c, 0, 69, 75
1, 151188, Note_off_c, 0, 43, 43
1, 151193, Note_off_c, 0, 54, 63
1, 151207, Note_off_c, 0, 69, 64
1, 151240, Note_on_c, 0, 67, 96
1, 151382, Control_c, 0, 64, 41
1, 151398, Control_c, 0, 64, 57
1, 151413, Control_c, 0, 64, 62
1, 151428, Control_c, 0, 64, 67
1, 151443, Control_c, 0, 64, 78
1, 151444, Note_on_c, 0, 55, 90
1, 151457, Control_c, 0, 64, 127
1, 151490, Note_off_c, 0, 55, 63
1, 151648, Note_off_c, 0, 67, 60
1, 151656, Note_on_c, 0, 43, 89
1, 151696, Note_off_c, 0, 43, 66
1, 151735, Note_on_c, 0, 69, 87
1, 151810, Note_on_c, 0, 71, 91
1, 151878, Note_on_c, 0, 31, 91
1, 151896, Note_on_c, 0, 72, 99
1, 151897, Note_off_c, 0, 71, 48
1, 151906, Note_off_c, 0, 31, 66
1, 151964, Note_off_c, 0, 72, 62
1, 151988, Note_on_c, 0, 74, 94
1, 152049, Control_c, 0, 67, 19
1, 152079, Control_c, 0, 67, 0
1, 152086, Note_on_c, 0, 76, 100
1, 152102, Note_off_c, 0, 74, 52
1, 152108, Control_c, 0, 67, 20
1, 152131, Control_c, 0, 67, 24
1, 152146, Control_c, 0, 67, 29
1, 152158, Note_off_c, 0, 76, 61
1, 152175, Control_c, 0, 67, 27
1, 152221, Control_c, 0, 67, 29
1, 152266, Control_c, 0, 67, 27
1, 152310, Control_c, 0, 67, 32
1, 152324, Control_c, 0, 67, 36
1, 152339, Control_c, 0, 67, 38
1, 152349, Note_on_c, 0, 77, 84
1, 152352, Note_on_c, 0, 55, 74
1, 152353, Note_on_c, 0, 62, 80
1, 152369, Control_c, 0, 67, 38
1, 152384, Control_c, 0, 64, 97
1, 152384, Control_c, 0, 67, 39
1, 152398, Control_c, 0, 64, 63
1, 152398, Control_c, 0, 67, 46
1, 152413, Control_c, 0, 64, 0
1, 152413, Control_c, 0, 67, 60
1, 152428, Control_c, 0, 67, 68
1, 152443, Control_c, 0, 67, 68
1, 152458, Control_c, 0, 67, 67
1, 152472, Control_c, 0, 67, 68
1, 152487, Control_c, 0, 67, 71
1, 152502, Control_c, 0, 67, 76
1, 152531, Control_c, 0, 67, 74
1, 152546, Control_c, 0, 67, 73
1, 152561, Control_c, 0, 67, 74
1, 152576, Control_c, 0, 67, 78
1, 152591, Control_c, 0, 67, 81
1, 152605, Control_c, 0, 67, 81
1, 152620, Control_c, 0, 67, 79
1, 152635, Control_c, 0, 67, 77
1, 152665, Control_c, 0, 67, 80
1, 152680, Control_c, 0, 67, 81
1, 152695, Control_c, 0, 67, 79
1, 152710, Control_c, 0, 67, 77
1, 152724, Control_c, 0, 67, 76
1, 152739, Control_c, 0, 67, 75
1, 152754, Control_c, 0, 67, 78
1, 152769, Control_c, 0, 67, 79
1, 152798, Control_c, 0, 67, 77
1, 152813, Control_c, 0, 67, 76
1, 152828, Control_c, 0, 67, 75
1, 152842, Control_c, 0, 67, 77
1, 152857, Control_c, 0, 67, 79
1, 152894, Control_c, 0, 67, 77
1, 152909, Control_c, 0, 67, 75
1, 152924, Control_c, 0, 67, 75
1, 152939, Control_c, 0, 67, 76
1, 152954, Control_c, 0, 67, 77
1, 152969, Control_c, 0, 67, 76
1, 152984, Control_c, 0, 67, 75
1, 152999, Control_c, 0, 67, 73
1, 153014, Control_c, 0, 67, 72
1, 153029, Control_c, 0, 67, 74
1, 153044, Control_c, 0, 67, 75
1, 153073, Control_c, 0, 67, 74
1, 153088, Control_c, 0, 67, 72
1, 153103, Control_c, 0, 67, 72
1, 153118, Control_c, 0, 67, 73
1, 153133, Control_c, 0, 67, 73
1, 153162, Control_c, 0, 67, 72
1, 153177, Control_c, 0, 67, 70
1, 153207, Control_c, 0, 67, 71
1, 153221, Control_c, 0, 67, 71
1, 153251, Control_c, 0, 67, 70
1, 153266, Control_c, 0, 67, 68
1, 153295, Control_c, 0, 67, 69
1, 153310, Control_c, 0, 67, 70
1, 153339, Control_c, 0, 67, 69
1, 153354, Control_c, 0, 67, 67
1, 153369, Control_c, 0, 67, 67
1, 153384, Control_c, 0, 67, 68
1, 153413, Control_c, 0, 67, 67
1, 153428, Control_c, 0, 67, 65
1, 153443, Control_c, 0, 67, 63
1, 153459, Control_c, 0, 67, 61
1, 153473, Control_c, 0, 67, 62
1, 153488, Control_c, 0, 67, 62
1, 153518, Control_c, 0, 67, 61
1, 153533, Control_c, 0, 67, 60
1, 153562, Control_c, 0, 67, 62
1, 153629, Control_c, 0, 67, 61
1, 153659, Control_c, 0, 67, 62
1, 153673, Control_c, 0, 67, 62
1, 153747, Control_c, 0, 67, 63
1, 153762, Control_c, 0, 67, 64
1, 153808, Control_c, 0, 67, 64
1, 153838, Control_c, 0, 67, 64
1, 153852, Control_c, 0, 67, 66
1, 153867, Control_c, 0, 67, 66
1, 153896, Control_c, 0, 67, 66
1, 153926, Control_c, 0, 67, 66
1, 153941, Control_c, 0, 67, 68
1, 153956, Control_c, 0, 67, 69
1, 153971, Control_c, 0, 67, 69
1, 153985, Control_c, 0, 67, 68
1, 154015, Control_c, 0, 64, 35
1, 154030, Control_c, 0, 64, 38
1, 154030, Control_c, 0, 67, 69
1, 154045, Control_c, 0, 64, 41
1, 154045, Control_c, 0, 67, 69
1, 154060, Control_c, 0, 64, 44
1, 154060, Control_c, 0, 67, 69
1, 154075, Control_c, 0, 64, 46
1, 154075, Control_c, 0, 67, 68
1, 154089, Control_c, 0, 64, 47
1, 154089, Control_c, 0, 67, 67
1, 154104, Control_c, 0, 64, 48
1, 154119, Control_c, 0, 64, 49
1, 154119, Control_c, 0, 67, 69
1, 154134, Control_c, 0, 64, 49
1, 154134, Control_c, 0, 67, 70
1, 154149, Control_c, 0, 64, 50
1, 154163, Control_c, 0, 64, 51
1, 154163, Control_c, 0, 67, 69
1, 154178, Control_c, 0, 64, 52
1, 154178, Control_c, 0, 67, 68
1, 154193, Control_c, 0, 64, 52
1, 154208, Control_c, 0, 67, 69
1, 154223, Control_c, 0, 64, 53
1, 154223, Control_c, 0, 67, 70
1, 154237, Control_c, 0, 64, 53
1, 154237, Control_c, 0, 67, 70
1, 154252, Control_c, 0, 64, 54
1, 154252, Control_c, 0, 67, 70
1, 154267, Control_c, 0, 64, 55
1, 154282, Control_c, 0, 64, 55
1, 154282, Control_c, 0, 67, 69
1, 154296, Control_c, 0, 64, 56
1, 154311, Control_c, 0, 67, 70
1, 154326, Control_c, 0, 67, 71
1, 154341, Control_c, 0, 64, 56
1, 154378, Control_c, 0, 64, 57
1, 154378, Control_c, 0, 67, 70
1, 154393, Control_c, 0, 64, 57
1, 154408, Control_c, 0, 64, 58
1, 154408, Control_c, 0, 67, 71
1, 154422, Control_c, 0, 64, 58
1, 154467, Control_c, 0, 64, 59
1, 154467, Control_c, 0, 67, 70
1, 154482, Control_c, 0, 64, 59
1, 154496, Control_c, 0, 64, 60
1, 154496, Control_c, 0, 67, 71
1, 154511, Control_c, 0, 67, 71
1, 154526, Control_c, 0, 64, 60
1, 154556, Control_c, 0, 67, 71
1, 154585, Control_c, 0, 64, 61
1, 154601, Control_c, 0, 67, 72
1, 154631, Control_c, 0, 64, 61
1, 154646, Control_c, 0, 67, 71
1, 154675, Control_c, 0, 64, 62
1, 154690, Control_c, 0, 67, 71
1, 154734, Control_c, 0, 64, 62
1, 154749, Control_c, 0, 67, 71
1, 154808, Control_c, 0, 67, 71
1, 154853, Control_c, 0, 67, 71
1, 154883, Control_c, 0, 67, 71
1, 154898, Control_c, 0, 67, 72
1, 154927, Control_c, 0, 67, 71
1, 154942, Control_c, 0, 67, 71
1, 154985, Control_c, 0, 67, 71
1, 155000, Control_c, 0, 67, 72
1, 155030, Control_c, 0, 67, 71
1, 155074, Control_c, 0, 67, 71
1, 155141, Control_c, 0, 67, 71
1, 155186, Control_c, 0, 67, 71
1, 155333, Control_c, 0, 64, 62
1, 155453, Control_c, 0, 67, 71
1, 155764, Control_c, 0, 64, 61
1, 155823, Control_c, 0, 64, 61
1, 155853, Control_c, 0, 64, 60
1, 155875, Control_c, 0, 64, 60
1, 155905, Control_c, 0, 64, 59
1, 155920, Control_c, 0, 64, 59
1, 155935, Control_c, 0, 64, 58
1, 155949, Control_c, 0, 64, 57
1, 155964, Control_c, 0, 64, 57
1, 155979, Control_c, 0, 64, 56
1, 155994, Control_c, 0, 64, 55
1, 156006, Note_off_c, 0, 69, 53
1, 156009, Control_c, 0, 64, 54
1, 156018, Note_off_c, 0, 55, 59
1, 156021, Note_off_c, 0, 62, 58
1, 156023, Control_c, 0, 64, 54
1, 156038, Control_c, 0, 64, 53
1, 156039, Note_off_c, 0, 77, 52
1, 156053, Control_c, 0, 64, 51
1, 156053, Control_c, 0, 67, 70
1, 156067, Control_c, 0, 64, 49
1, 156082, Control_c, 0, 64, 44
1, 156097, Control_c, 0, 64, 37
1, 156112, Control_c, 0, 64, 34
1, 156141, Control_c, 0, 67, 70
1, 156156, Control_c, 0, 64, 33
1, 156171, Control_c, 0, 64, 0
1, 156276, Control_c, 0, 67, 69
1, 156668, Control_c, 0, 64, 34
1, 156683, Control_c, 0, 64, 35
1, 156698, Control_c, 0, 64, 36
1, 156743, Control_c, 0, 64, 37
1, 156758, Control_c, 0, 64, 38
1, 156772, Control_c, 0, 64, 39
1, 156787, Control_c, 0, 64, 39
1, 156846, Control_c, 0, 64, 40
1, 156861, Control_c, 0, 64, 41
1, 156876, Control_c, 0, 64, 41
1, 156890, Control_c, 0, 64, 42
1, 156905, Control_c, 0, 64, 43
1, 156964, Control_c, 0, 64, 43
1, 157069, Control_c, 0, 64, 44
1, 157099, Control_c, 0, 64, 44
1, 157158, Control_c, 0, 64, 45
1, 157173, Control_c, 0, 67, 70
1, 157202, Control_c, 0, 64, 45
1, 157217, Control_c, 0, 64, 46
1, 157387, Control_c, 0, 64, 46
1, 157476, Control_c, 0, 64, 47
1, 157506, Control_c, 0, 64, 47
1, 157624, Control_c, 0, 64, 48
1, 157624, Control_c, 0, 67, 70
1, 157653, Control_c, 0, 67, 71
1, 157698, Control_c, 0, 64, 48
1, 157742, Control_c, 0, 64, 49
1, 157772, Control_c, 0, 67, 71
1, 157788, Control_c, 0, 64, 49
1, 157817, Control_c, 0, 67, 72
1, 157891, Control_c, 0, 64, 50
1, 157891, Control_c, 0, 67, 72
1, 157921, Control_c, 0, 64, 50
1, 157935, Control_c, 0, 67, 73
1, 157950, Control_c, 0, 64, 51
1, 157980, Control_c, 0, 64, 51
1, 157995, Control_c, 0, 64, 52
1, 157995, Control_c, 0, 67, 73
1, 158010, Control_c, 0, 64, 53
1, 158010, Control_c, 0, 67, 74
1, 158025, Control_c, 0, 64, 53
1, 158040, Control_c, 0, 64, 54
1, 158040, Control_c, 0, 67, 74
1, 158054, Control_c, 0, 64, 55
1, 158054, Control_c, 0, 67, 76
1, 158069, Control_c, 0, 64, 56
1, 158069, Control_c, 0, 67, 78
1, 158084, Control_c, 0, 67, 78
1, 158099, Control_c, 0, 64, 56
1, 158099, Control_c, 0, 67, 79
1, 158121, Control_c, 0, 67, 79
1, 158135, Control_c, 0, 67, 80
1, 158150, Control_c, 0, 64, 57
1, 158165, Control_c, 0, 64, 57
1, 158165, Control_c, 0, 67, 80
1, 158180, Control_c, 0, 64, 58
1, 158180, Control_c, 0, 67, 81
1, 158195, Control_c, 0, 64, 58
1, 158195, Control_c, 0, 67, 81
1, 158209, Control_c, 0, 64, 59
1, 158209, Control_c, 0, 67, 83
1, 158224, Control_c, 0, 67, 84
1, 158239, Control_c, 0, 64, 59
1, 158239, Control_c, 0, 67, 85
1, 158254, Control_c, 0, 64, 60
1, 158254, Control_c, 0, 67, 87
1, 158269, Control_c, 0, 67, 88
1, 158284, Control_c, 0, 64, 60
1, 158284, Control_c, 0, 67, 90
1, 158299, Control_c, 0, 64, 61
1, 158299, Control_c, 0, 67, 90
1, 158314, Control_c, 0, 67, 91
1, 158329, Control_c, 0, 67, 92
1, 158343, Control_c, 0, 64, 61
1, 158343, Control_c, 0, 67, 94
1, 158358, Control_c, 0, 64, 62
1, 158358, Control_c, 0, 67, 96
1, 158387, Control_c, 0, 64, 62
1, 158387, Control_c, 0, 67, 100
1, 158402, Control_c, 0, 67, 102
1, 158417, Control_c, 0, 64, 63
1, 158417, Control_c, 0, 67, 105
1, 158432, Control_c, 0, 64, 63
1, 158447, Control_c, 0, 67, 107
1, 158461, Control_c, 0, 64, 64
1, 158506, Control_c, 0, 64, 64
1, 158535, Control_c, 0, 64, 65
1, 158550, Control_c, 0, 67, 109
1, 158565, Control_c, 0, 64, 65
1, 158565, Control_c, 0, 67, 112
1, 158581, Control_c, 0, 64, 66
1, 158581, Control_c, 0, 67, 115
1, 158596, Control_c, 0, 64, 66
1, 158596, Control_c, 0, 67, 117
1, 158611, Control_c, 0, 64, 67
1, 158611, Control_c, 0, 67, 120
1, 158626, Control_c, 0, 64, 67
1, 158626, Control_c, 0, 67, 123
1, 158640, Control_c, 0, 64, 68
1, 158640, Control_c, 0, 67, 127
1, 158655, Control_c, 0, 64, 69
1, 158670, Control_c, 0, 64, 69
1, 158684, Control_c, 0, 64, 70
1, 158700, Control_c, 0, 64, 71
1, 158715, Control_c, 0, 64, 72
1, 158730, Control_c, 0, 64, 72
1, 158745, Control_c, 0, 64, 73
1, 158759, Control_c, 0, 64, 74
1, 158774, Control_c, 0, 64, 74
1, 158789, Control_c, 0, 64, 75
1, 158803, Control_c, 0, 64, 76
1, 158818, Control_c, 0, 64, 77
1, 158833, Control_c, 0, 64, 78
1, 158848, Control_c, 0, 64, 78
1, 158871, Control_c, 0, 64, 79
1, 158885, Control_c, 0, 64, 80
1, 158900, Control_c, 0, 64, 81
1, 158915, Control_c, 0, 64, 83
1, 158930, Control_c, 0, 64, 86
1, 158945, Control_c, 0, 64, 88
1, 158959, Control_c, 0, 64, 91
1, 158974, Control_c, 0, 64, 93
1, 158989, Control_c, 0, 64, 95
1, 159004, Control_c, 0, 64, 98
1, 159018, Control_c, 0, 64, 102
1, 159033, Control_c, 0, 64, 108
1, 159048, Control_c, 0, 64, 115
1, 159063, Control_c, 0, 64, 122
1, 159078, Control_c, 0, 64, 127
1, 162130, Note_on_c, 0, 70, 47
1, 162136, Note_on_c, 0, 69, 42
1, 162143, Note_on_c, 0, 67, 40
1, 162146, Note_on_c, 0, 68, 29
1, 162177, Control_c, 0, 64, 91
1, 162192, Control_c, 0, 64, 76
1, 162207, Control_c, 0, 64, 66
1, 162222, Control_c, 0, 64, 57
1, 162236, Control_c, 0, 64, 50
1, 162251, Control_c, 0, 64, 51
1, 162266, Control_c, 0, 64, 55
1, 162281, Control_c, 0, 64, 60
1, 162281, Note_on_c, 0, 71, 44
1, 162296, Control_c, 0, 64, 64
1, 162301, Note_on_c, 0, 66, 22
1, 162310, Control_c, 0, 64, 69
1, 162325, Control_c, 0, 64, 74
1, 162327, Note_off_c, 0, 70, 47
1, 162335, Note_off_c, 0, 69, 39
1, 162340, Control_c, 0, 64, 77
1, 162354, Control_c, 0, 64, 79
1, 162369, Control_c, 0, 64, 82
1, 162376, Note_off_c, 0, 67, 24
1, 162384, Control_c, 0, 64, 88
1, 162399, Control_c, 0, 64, 93
1, 162414, Control_c, 0, 64, 100
1, 162417, Note_off_c, 0, 68, 24
1, 162428, Control_c, 0, 64, 109
1, 162443, Control_c, 0, 64, 127
1, 162466, Note_off_c, 0, 71, 40
1, 162481, Note_off_c, 0, 66, 34
1, 163009, Note_on_c, 0, 70, 55
1, 163012, Note_on_c, 0, 67, 50
1, 163014, Note_on_c, 0, 69, 50
1, 163021, Note_on_c, 0, 68, 41
1, 163044, Control_c, 0, 64, 103
1, 163059, Control_c, 0, 64, 89
1, 163074, Control_c, 0, 64, 78
1, 163089, Control_c, 0, 64, 67
1, 163104, Control_c, 0, 64, 58
1, 163119, Control_c, 0, 64, 53
1, 163133, Control_c, 0, 64, 57
1, 163148, Control_c, 0, 64, 62
1, 163155, Note_off_c, 0, 69, 24
1, 163163, Control_c, 0, 64, 65
1, 163170, Note_on_c, 0, 71, 47
1, 163173, Note_on_c, 0, 66, 41
1, 163177, Control_c, 0, 64, 68
1, 163192, Control_c, 0, 64, 71
1, 163198, Note_off_c, 0, 70, 51
1, 163207, Control_c, 0, 64, 74
1, 163222, Control_c, 0, 64, 78
1, 163225, Note_off_c, 0, 67, 35
1, 163237, Control_c, 0, 64, 82
1, 163251, Control_c, 0, 64, 88
1, 163262, Note_off_c, 0, 68, 28
1, 163266, Control_c, 0, 64, 96
1, 163281, Control_c, 0, 64, 108
1, 163296, Control_c, 0, 64, 127
1, 163361, Note_off_c, 0, 66, 32
1, 163364, Note_off_c, 0, 71, 36
1, 163971, Note_on_c, 0, 70, 62
1, 163988, Note_on_c, 0, 69, 52
1, 163992, Note_on_c, 0, 67, 47
1, 163998, Note_on_c, 0, 68, 42
1, 164001, Control_c, 0, 64, 104
1, 164016, Control_c, 0, 64, 84
1, 164031, Control_c, 0, 64, 70
1, 164046, Control_c, 0, 64, 60
1, 164061, Control_c, 0, 64, 43
1, 164075, Control_c, 0, 64, 0
1, 164127, Control_c, 0, 64, 38
1, 164140, Note_off_c, 0, 69, 36
1, 164141, Control_c, 0, 64, 52
1, 164144, Note_on_c, 0, 66, 51
1, 164149, Note_on_c, 0, 71, 53
1, 164156, Control_c, 0, 64, 63
1, 164171, Control_c, 0, 64, 70
1, 164187, Control_c, 0, 64, 75
1, 164195, Note_off_c, 0, 67, 35
1, 164201, Note_off_c, 0, 70, 38
1, 164202, Control_c, 0, 64, 79
1, 164217, Control_c, 0, 64, 83
1, 164220, Note_off_c, 0, 68, 31
1, 164231, Control_c, 0, 64, 89
1, 164246, Control_c, 0, 64, 99
1, 164261, Control_c, 0, 64, 120
1, 164276, Control_c, 0, 64, 127
1, 164292, Note_off_c, 0, 71, 57
1, 164354, Note_off_c, 0, 66, 37
1, 165295, Note_on_c, 0, 68, 44
1, 165298, Note_on_c, 0, 74, 54
1, 165301, Note_on_c, 0, 63, 42
1, 165307, Note_on_c, 0, 67, 45
1, 165307, Control_c, 0, 64, 102
1, 165313, Note_on_c, 0, 69, 46
1, 165313, Note_on_c, 0, 70, 40
1, 165321, Control_c, 0, 64, 86
1, 165336, Control_c, 0, 64, 73
1, 165351, Control_c, 0, 64, 61
1, 165366, Control_c, 0, 64, 0
1, 165498, Control_c, 0, 64, 39
1, 165513, Control_c, 0, 64, 54
1, 165528, Control_c, 0, 64, 62
1, 165542, Control_c, 0, 64, 65
1, 165557, Control_c, 0, 64, 66
1, 165572, Control_c, 0, 64, 67
1, 165587, Control_c, 0, 64, 68
1, 165609, Control_c, 0, 64, 71
1, 165624, Control_c, 0, 64, 75
1, 165639, Control_c, 0, 64, 80
1, 165653, Control_c, 0, 64, 85
1, 165668, Control_c, 0, 64, 91
1, 165683, Control_c, 0, 64, 98
1, 165698, Control_c, 0, 64, 110
1, 165712, Control_c, 0, 64, 127
1, 165811, Note_off_c, 0, 69, 30
1, 165905, Note_off_c, 0, 68, 38
1, 165950, Note_off_c, 0, 70, 37
1, 165954, Note_off_c, 0, 74, 35
1, 165955, Note_off_c, 0, 67, 42
1, 166127, Note_off_c, 0, 63, 40
1, 167119, Note_on_c, 0, 86, 45
1, 167125, Note_on_c, 0, 51, 37
1, 167128, Note_on_c, 0, 75, 31
1, 167131, Note_on_c, 0, 62, 34
1, 167256, Note_off_c, 0, 86, 51
1, 167266, Note_off_c, 0, 75, 43
1, 167355, Note_off_c, 0, 51, 31
1, 167389, Note_off_c, 0, 62, 25
1, 168971, Note_on_c, 0, 67, 62
1, 168972, Note_on_c, 0, 68, 59
1, 168991, Control_c, 0, 64, 116
1, 169006, Control_c, 0, 64, 83
1, 169021, Control_c, 0, 64, 65
1, 169036, Control_c, 0, 64, 45
1, 169051, Control_c, 0, 64, 0
1, 169095, Control_c, 0, 64, 47
1, 169110, Control_c, 0, 64, 61
1, 169119, Note_on_c, 0, 66, 52
1, 169125, Control_c, 0, 64, 67
1, 169139, Control_c, 0, 64, 72
1, 169154, Control_c, 0, 64, 75
1, 169169, Control_c, 0, 64, 76
1, 169184, Control_c, 0, 64, 78
1, 169199, Control_c, 0, 64, 80
1, 169213, Control_c, 0, 64, 85
1, 169228, Control_c, 0, 64, 92
1, 169243, Control_c, 0, 64, 102
1, 169258, Control_c, 0, 64, 127
1, 169715, Note_on_c, 0, 69, 60
1, 169715, Note_on_c, 0, 70, 63
1, 169740, Control_c, 0, 64, 93
1, 169754, Control_c, 0, 64, 76
1, 169769, Control_c, 0, 64, 71
1, 169784, Control_c, 0, 64, 70
1, 169799, Control_c, 0, 64, 72
1, 169814, Control_c, 0, 64, 75
1, 169829, Control_c, 0, 64, 79
1, 169844, Control_c, 0, 64, 83
1, 169859, Control_c, 0, 64, 87
1, 169868, Note_on_c, 0, 71, 54
1, 169874, Control_c, 0, 64, 91
1, 169877, Note_off_c, 0, 69, 36
1, 169888, Control_c, 0, 64, 95
1, 169903, Control_c, 0, 64, 100
1, 169918, Control_c, 0, 64, 105
1, 169933, Control_c, 0, 64, 111
1, 169948, Control_c, 0, 64, 127
1, 169948, Note_off_c, 0, 70, 38
1, 169969, Note_off_c, 0, 68, 34
1, 169992, Note_off_c, 0, 67, 36
1, 170056, Note_off_c, 0, 66, 34
1, 170461, Note_on_c, 0, 67, 69
1, 170461, Note_on_c, 0, 68, 68
1, 170473, Control_c, 0, 64, 102
1, 170488, Control_c, 0, 64, 78
1, 170503, Control_c, 0, 64, 66
1, 170518, Control_c, 0, 64, 61
1, 170532, Control_c, 0, 64, 57
1, 170547, Control_c, 0, 64, 59
1, 170562, Control_c, 0, 64, 63
1, 170578, Control_c, 0, 64, 69
1, 170588, Note_off_c, 0, 71, 60
1, 170592, Control_c, 0, 64, 76
1, 170607, Note_on_c, 0, 66, 64
1, 170607, Control_c, 0, 64, 83
1, 170622, Control_c, 0, 64, 88
1, 170637, Control_c, 0, 64, 96
1, 170652, Control_c, 0, 64, 127
1, 170656, Note_off_c, 0, 68, 30
1, 170696, Note_off_c, 0, 67, 37
1, 170772, Note_off_c, 0, 66, 36
1, 171229, Note_on_c, 0, 70, 71
1, 171230, Note_on_c, 0, 67, 56
1, 171234, Note_on_c, 0, 68, 45
1, 171239, Note_on_c, 0, 69, 66
1, 171251, Control_c, 0, 64, 91
1, 171266, Control_c, 0, 64, 73
1, 171281, Control_c, 0, 64, 59
1, 171296, Control_c, 0, 64, 0
1, 171373, Note_on_c, 0, 66, 55
1, 171382, Note_on_c, 0, 71, 64
1, 171384, Note_off_c, 0, 69, 43
1, 171385, Control_c, 0, 64, 37
1, 171397, Note_off_c, 0, 67, 55
1, 171400, Control_c, 0, 64, 57
1, 171415, Note_off_c, 0, 70, 63
1, 171415, Control_c, 0, 64, 67
1, 171430, Control_c, 0, 64, 72
1, 171442, Note_off_c, 0, 68, 34
1, 171445, Control_c, 0, 64, 73
1, 171460, Control_c, 0, 64, 74
1, 171474, Control_c, 0, 64, 79
1, 171489, Control_c, 0, 64, 89
1, 171504, Control_c, 0, 64, 127
1, 171549, Note_off_c, 0, 71, 50
1, 171628, Note_off_c, 0, 66, 27
1, 172258, Note_on_c, 0, 74, 57
1, 172258, Note_on_c, 0, 68, 40
1, 172260, Note_on_c, 0, 63, 44
1, 172264, Note_on_c, 0, 67, 44
1, 172267, Note_on_c, 0, 69, 32
1, 172267, Note_on_c, 0, 70, 47
1, 172267, Control_c, 0, 64, 98
1, 172282, Control_c, 0, 64, 78
1, 172297, Control_c, 0, 64, 65
1, 172312, Control_c, 0, 64, 43
1, 172327, Control_c, 0, 64, 0
1, 172482, Control_c, 0, 64, 36
1, 172497, Control_c, 0, 64, 53
1, 172512, Control_c, 0, 64, 63
1, 172527, Control_c, 0, 64, 68
1, 172542, Control_c, 0, 64, 72
1, 172557, Control_c, 0, 64, 76
1, 172571, Control_c, 0, 64, 81
1, 172586, Control_c, 0, 64, 90
1, 172601, Control_c, 0, 64, 108
1, 172615, Control_c, 0, 64, 127
1, 172688, Note_off_c, 0, 69, 40
1, 172752, Note_off_c, 0, 70, 57
1, 172753, Note_off_c, 0, 67, 41
1, 172772, Note_off_c, 0, 68, 42
1, 172775, Note_off_c, 0, 74, 35
1, 172809, Note_off_c, 0, 63, 59
1, 173766, Note_on_c, 0, 91, 54
1, 173776, Note_on_c, 0, 80, 59
1, 173786, Note_on_c, 0, 67, 24
1, 173791, Note_on_c, 0, 56, 40
1, 173894, Note_off_c, 0, 80, 48
1, 174002, Note_off_c, 0, 67, 38
1, 174007, Note_off_c, 0, 91, 32
1, 174394, Note_off_c, 0, 56, 40
1, 175224, Note_on_c, 0, 86, 50
1, 175229, Note_on_c, 0, 75, 48
1, 175233, Control_c, 0, 64, 99
1, 175248, Note_on_c, 0, 62, 45
1, 175248, Control_c, 0, 64, 79
1, 175249, Note_on_c, 0, 51, 40
1, 175263, Control_c, 0, 64, 66
1, 175278, Control_c, 0, 64, 53
1, 175292, Control_c, 0, 64, 0
1, 175359, Control_c, 0, 64, 50
1, 175375, Control_c, 0, 64, 66
1, 175385, Note_off_c, 0, 75, 53
1, 175389, Control_c, 0, 64, 75
1, 175404, Control_c, 0, 64, 82
1, 175410, Note_off_c, 0, 86, 59
1, 175419, Control_c, 0, 64, 89
1, 175433, Control_c, 0, 64, 105
1, 175448, Control_c, 0, 64, 127
1, 175485, Note_off_c, 0, 62, 55
1, 175494, Note_off_c, 0, 51, 36
1, 175906, Note_on_c, 0, 70, 67
1, 175913, Note_on_c, 0, 69, 59
1, 175919, Note_on_c, 0, 67, 55
1, 175920, Note_on_c, 0, 68, 49
1, 175937, Control_c, 0, 64, 100
1, 175951, Control_c, 0, 64, 79
1, 175966, Control_c, 0, 64, 67
1, 175981, Control_c, 0, 64, 54
1, 175996, Control_c, 0, 64, 34
1, 176008, Note_off_c, 0, 69, 49
1, 176011, Control_c, 0, 64, 0
1, 176026, Control_c, 0, 64, 47
1, 176031, Note_on_c, 0, 71, 67
1, 176040, Control_c, 0, 64, 60
1, 176044, Note_on_c, 0, 66, 48
1, 176044, Note_off_c, 0, 70, 65
1, 176055, Control_c, 0, 64, 69
1, 176062, Note_off_c, 0, 67, 52
1, 176070, Control_c, 0, 64, 76
1, 176092, Control_c, 0, 64, 81
1, 176094, Note_off_c, 0, 68, 35
1, 176107, Control_c, 0, 64, 84
1, 176122, Control_c, 0, 64, 87
1, 176137, Control_c, 0, 64, 95
1, 176151, Control_c, 0, 64, 109
1, 176156, Note_off_c, 0, 71, 37
1, 176167, Control_c, 0, 64, 127
1, 176218, Note_off_c, 0, 66, 22
1, 176701, Control_c, 0, 64, 107
1, 176709, Note_on_c, 0, 74, 61
1, 176712, Note_on_c, 0, 70, 50
1, 176716, Control_c, 0, 64, 79
1, 176727, Note_on_c, 0, 63, 40
1, 176730, Control_c, 0, 64, 61
1, 176734, Note_on_c, 0, 67, 38
1, 176735, Note_on_c, 0, 68, 38
1, 176735, Note_on_c, 0, 69, 36
1, 176745, Control_c, 0, 64, 0
1, 176842, Control_c, 0, 64, 37
1, 176856, Control_c, 0, 64, 58
1, 176871, Control_c, 0, 64, 70
1, 176886, Control_c, 0, 64, 78
1, 176901, Control_c, 0, 64, 83
1, 176912, Note_off_c, 0, 69, 48
1, 176916, Control_c, 0, 64, 84
1, 176930, Control_c, 0, 64, 88
1, 176936, Note_off_c, 0, 70, 63
1, 176945, Control_c, 0, 64, 97
1, 176947, Note_off_c, 0, 67, 37
1, 176955, Note_off_c, 0, 63, 58
1, 176961, Control_c, 0, 64, 127
1, 176965, Note_off_c, 0, 74, 58
1, 176971, Note_off_c, 0, 68, 43
1, 177436, Note_on_c, 0, 84, 75
1, 177445, Note_on_c, 0, 67, 44
1, 177447, Note_on_c, 0, 56, 49
1, 177449, Note_on_c, 0, 73, 60
1, 177465, Control_c, 0, 64, 92
1, 177479, Control_c, 0, 64, 79
1, 177494, Control_c, 0, 64, 69
1, 177509, Control_c, 0, 64, 62
1, 177523, Control_c, 0, 64, 52
1, 177538, Control_c, 0, 64, 53
1, 177553, Control_c, 0, 64, 60
1, 177568, Control_c, 0, 64, 67
1, 177591, Control_c, 0, 64, 73
1, 177605, Control_c, 0, 64, 78
1, 177620, Control_c, 0, 64, 82
1, 177635, Control_c, 0, 64, 87
1, 177650, Control_c, 0, 64, 100
1, 177660, Note_off_c, 0, 67, 47
1, 177665, Control_c, 0, 64, 127
1, 177741, Note_off_c, 0, 73, 51
1, 177773, Note_off_c, 0, 56, 60
1, 177803, Note_off_c, 0, 84, 57
1, 178258, Control_c, 0, 64, 97
1, 178268, Note_on_c, 0, 86, 59
1, 178273, Control_c, 0, 64, 78
1, 178277, Note_on_c, 0, 62, 42
1, 178283, Note_on_c, 0, 51, 43
1, 178284, Note_on_c, 0, 75, 42
1, 178288, Control_c, 0, 64, 64
1, 178302, Control_c, 0, 64, 45
1, 178317, Control_c, 0, 64, 0
1, 178399, Control_c, 0, 64, 47
1, 178403, Poly_aftertouch_c, 0, 82, 0
1, 178414, Control_c, 0, 64, 63
1, 178428, Control_c, 0, 64, 75
1, 178443, Control_c, 0, 64, 87
1, 178458, Control_c, 0, 64, 100
1, 178465, Note_off_c, 0, 75, 62
1, 178473, Control_c, 0, 64, 119
1, 178476, Note_off_c, 0, 86, 58
1, 178488, Control_c, 0, 64, 127
1, 178508, Note_off_c, 0, 62, 55
1, 178518, Note_off_c, 0, 51, 41
1, 178973, Note_on_c, 0, 70, 60
1, 178981, Note_on_c, 0, 69, 50
1, 178983, Note_on_c, 0, 67, 52
1, 178992, Note_on_c, 0, 68, 46
1, 179037, Control_c, 0, 64, 95
1, 179052, Control_c, 0, 64, 76
1, 179067, Control_c, 0, 64, 63
1, 179089, Control_c, 0, 64, 46
1, 179104, Control_c, 0, 64, 0
1, 179105, Note_on_c, 0, 71, 59
1, 179111, Note_on_c, 0, 66, 43
1, 179133, Control_c, 0, 64, 34
1, 179148, Control_c, 0, 64, 52
1, 179151, Note_off_c, 0, 70, 57
1, 179152, Note_off_c, 0, 69, 26
1, 179163, Control_c, 0, 64, 65
1, 179178, Control_c, 0, 64, 75
1, 179179, Note_off_c, 0, 67, 51
1, 179192, Control_c, 0, 64, 84
1, 179207, Control_c, 0, 64, 88
1, 179222, Control_c, 0, 64, 91
1, 179237, Control_c, 0, 64, 98
1, 179252, Control_c, 0, 64, 114
1, 179255, Note_off_c, 0, 68, 37
1, 179267, Control_c, 0, 64, 127
1, 179322, Note_off_c, 0, 71, 35
1, 179341, Note_off_c, 0, 66, 35
1, 179898, Note_on_c, 0, 74, 54
1, 179905, Note_on_c, 0, 69, 47
1, 179907, Note_on_c, 0, 70, 46
1, 179911, Control_c, 0, 64, 91
1, 179913, Note_on_c, 0, 63, 44
1, 179914, Note_on_c, 0, 68, 43
1, 179916, Note_on_c, 0, 67, 39
1, 179926, Control_c, 0, 64, 70
1, 179940, Control_c, 0, 64, 55
1, 179955, Control_c, 0, 64, 0
1, 180045, Control_c, 0, 64, 53
1, 180059, Control_c, 0, 64, 65
1, 180074, Control_c, 0, 64, 74
1, 180089, Control_c, 0, 64, 81
1, 180104, Control_c, 0, 64, 87
1, 180107, Note_off_c, 0, 68, 46
1, 180110, Note_off_c, 0, 67, 36
1, 180119, Control_c, 0, 64, 93
1, 180119, Note_off_c, 0, 69, 36
1, 180133, Control_c, 0, 64, 100
1, 180149, Control_c, 0, 64, 110
1, 180161, Note_off_c, 0, 70, 55
1, 180164, Control_c, 0, 64, 127
1, 180175, Note_off_c, 0, 63, 61
1, 180191, Note_off_c, 0, 74, 54
1, 180798, Note_on_c, 0, 84, 72
1, 180800, Note_on_c, 0, 55, 53
1, 180807, Note_on_c, 0, 44, 47
1, 180808, Note_on_c, 0, 73, 55
1, 180823, Control_c, 0, 64, 104
1, 180837, Control_c, 0, 64, 82
1, 180852, Control_c, 0, 64, 67
1, 180867, Control_c, 0, 64, 51
1, 180882, Control_c, 0, 64, 0
1, 180927, Control_c, 0, 64, 36
1, 180942, Control_c, 0, 64, 57
1, 180957, Control_c, 0, 64, 69
1, 180972, Control_c, 0, 64, 79
1, 180987, Control_c, 0, 64, 86
1, 181001, Control_c, 0, 64, 88
1, 181016, Control_c, 0, 64, 94
1, 181031, Control_c, 0, 64, 103
1, 181046, Control_c, 0, 64, 127
1, 181110, Note_off_c, 0, 84, 42
1, 181216, Note_off_c, 0, 73, 50
1, 181518, Note_on_c, 0, 81, 78
1, 181531, Note_on_c, 0, 70, 62
1, 181738, Note_off_c, 0, 44, 60
1, 181748, Note_off_c, 0, 55, 59
1, 181776, Note_off_c, 0, 70, 58
1, 182256, Note_on_c, 0, 79, 78
1, 182262, Note_on_c, 0, 57, 45
1, 182265, Note_on_c, 0, 46, 48
1, 182267, Note_on_c, 0, 68, 60
1, 182274, Note_off_c, 0, 81, 56
1, 182292, Control_c, 0, 64, 112
1, 182307, Control_c, 0, 64, 80
1, 182321, Control_c, 0, 64, 66
1, 182336, Control_c, 0, 64, 53
1, 182351, Control_c, 0, 64, 40
1, 182366, Control_c, 0, 64, 41
1, 182381, Control_c, 0, 64, 49
1, 182395, Control_c, 0, 64, 59
1, 182410, Control_c, 0, 64, 68
1, 182425, Control_c, 0, 64, 76
1, 182440, Control_c, 0, 64, 83
1, 182455, Control_c, 0, 64, 86
1, 182469, Control_c, 0, 64, 89
1, 182484, Control_c, 0, 64, 93
1, 182499, Control_c, 0, 64, 101
1, 182514, Control_c, 0, 64, 127
1, 182632, Note_off_c, 0, 68, 39
1, 182722, Note_off_c, 0, 79, 39
1, 183003, Note_on_c, 0, 77, 60
1, 183014, Note_on_c, 0, 66, 51
1, 183025, Control_c, 0, 64, 110
1, 183040, Control_c, 0, 64, 87
1, 183055, Control_c, 0, 64, 76
1, 183070, Control_c, 0, 64, 72
1, 183100, Control_c, 0, 64, 73
1, 183115, Control_c, 0, 64, 76
1, 183130, Control_c, 0, 64, 79
1, 183144, Control_c, 0, 64, 82
1, 183159, Control_c, 0, 64, 84
1, 183174, Control_c, 0, 64, 87
1, 183189, Control_c, 0, 64, 90
1, 183204, Control_c, 0, 64, 94
1, 183218, Control_c, 0, 64, 98
1, 183226, Note_off_c, 0, 46, 60
1, 183233, Control_c, 0, 64, 102
1, 183248, Control_c, 0, 64, 106
1, 183249, Note_off_c, 0, 66, 55
1, 183253, Note_off_c, 0, 77, 55
1, 183261, Note_off_c, 0, 57, 55
1, 183263, Control_c, 0, 64, 109
1, 183277, Control_c, 0, 64, 114
1, 183292, Control_c, 0, 64, 124
1, 183307, Control_c, 0, 64, 127
1, 183782, Note_on_c, 0, 60, 43
1, 183789, Control_c, 0, 64, 109
1, 183797, Note_on_c, 0, 79, 59
1, 183799, Note_on_c, 0, 68, 48
1, 183804, Control_c, 0, 64, 85
1, 183805, Note_on_c, 0, 49, 44
1, 183819, Control_c, 0, 64, 70
1, 183834, Control_c, 0, 64, 57
1, 183848, Control_c, 0, 64, 0
1, 183893, Control_c, 0, 64, 36
1, 183908, Control_c, 0, 64, 57
1, 183923, Control_c, 0, 64, 67
1, 183938, Control_c, 0, 64, 76
1, 183953, Control_c, 0, 64, 85
1, 183967, Control_c, 0, 64, 91
1, 183982, Control_c, 0, 64, 98
1, 183991, Note_off_c, 0, 79, 57
1, 183997, Control_c, 0, 64, 112
1, 184012, Control_c, 0, 64, 127
1, 184033, Note_off_c, 0, 49, 58
1, 184121, Note_off_c, 0, 60, 46
1, 184169, Note_off_c, 0, 68, 43
1, 184793, Note_on_c, 0, 74, 46
1, 184803, Note_on_c, 0, 62, 37
1, 184814, Note_on_c, 0, 63, 44
1, 184820, Note_on_c, 0, 51, 37
1, 184820, Control_c, 0, 64, 96
1, 184835, Control_c, 0, 64, 81
1, 184849, Control_c, 0, 64, 68
1, 184864, Control_c, 0, 64, 56
1, 184879, Control_c, 0, 64, 0
1, 184983, Control_c, 0, 64, 42
1, 184998, Control_c, 0, 64, 61
1, 185012, Control_c, 0, 64, 68
1, 185027, Control_c, 0, 64, 74
1, 185042, Control_c, 0, 64, 78
1, 185057, Control_c, 0, 64, 80
1, 185079, Control_c, 0, 64, 83
1, 185094, Control_c, 0, 64, 88
1, 185109, Control_c, 0, 64, 98
1, 185124, Control_c, 0, 64, 116
1, 185139, Control_c, 0, 64, 127
1, 185202, Note_off_c, 0, 62, 36
1, 185261, Note_off_c, 0, 51, 40
1, 185261, Note_off_c, 0, 63, 41
1, 185580, Note_off_c, 0, 74, 37
1, 185878, Note_on_c, 0, 72, 54
1, 185884, Note_on_c, 0, 73, 48
1, 186015, Note_on_c, 0, 71, 49
1, 186525, Note_on_c, 0, 75, 67
1, 186528, Note_on_c, 0, 74, 65
1, 186630, Note_off_c, 0, 74, 56
1, 186677, Note_on_c, 0, 76, 51
1, 186679, Note_off_c, 0, 73, 40
1, 186700, Note_off_c, 0, 75, 63
1, 186738, Note_off_c, 0, 72, 38
1, 186780, Note_off_c, 0, 71, 36
1, 186850, Note_off_c, 0, 76, 36
1, 187213, Note_on_c, 0, 75, 74
1, 187217, Note_on_c, 0, 74, 67
1, 187223, Note_on_c, 0, 72, 60
1, 187224, Note_on_c, 0, 73, 56
1, 187324, Note_off_c, 0, 74, 52
1, 187364, Note_on_c, 0, 71, 60
1, 187368, Note_on_c, 0, 76, 61
1, 187406, Note_off_c, 0, 75, 60
1, 187424, Note_off_c, 0, 72, 38
1, 187424, Note_off_c, 0, 73, 36
1, 187522, Note_off_c, 0, 71, 37
1, 187544, Note_off_c, 0, 76, 35
1, 188133, Control_c, 0, 64, 105
1, 188141, Note_on_c, 0, 79, 68
1, 188147, Note_on_c, 0, 75, 55
1, 188147, Note_on_c, 0, 73, 52
1, 188149, Control_c, 0, 64, 83
1, 188153, Note_on_c, 0, 74, 51
1, 188155, Note_on_c, 0, 72, 50
1, 188157, Note_on_c, 0, 68, 51
1, 188164, Control_c, 0, 64, 67
1, 188178, Control_c, 0, 64, 50
1, 188193, Control_c, 0, 64, 0
1, 188356, Control_c, 0, 64, 39
1, 188370, Control_c, 0, 64, 53
1, 188385, Control_c, 0, 64, 63
1, 188400, Control_c, 0, 64, 66
1, 188415, Control_c, 0, 64, 68
1, 188430, Control_c, 0, 64, 70
1, 188445, Control_c, 0, 64, 73
1, 188460, Control_c, 0, 64, 79
1, 188475, Control_c, 0, 64, 87
1, 188478, Note_off_c, 0, 73, 58
1, 188489, Control_c, 0, 64, 104
1, 188504, Control_c, 0, 64, 127
1, 188549, Note_off_c, 0, 74, 36
1, 188571, Note_off_c, 0, 72, 42
1, 188615, Note_off_c, 0, 79, 55
1, 188636, Note_off_c, 0, 68, 62
1, 188638, Note_off_c, 0, 75, 37
1, 189732, Note_on_c, 0, 90, 47
1, 189754, Note_on_c, 0, 53, 32
1, 189901, Note_off_c, 0, 90, 31
1, 190057, Note_off_c, 0, 53, 25
1, 191339, Note_on_c, 0, 72, 56
1, 191341, Note_on_c, 0, 73, 45
1, 191381, Control_c, 0, 64, 99
1, 191396, Control_c, 0, 64, 77
1, 191411, Control_c, 0, 64, 67
1, 191426, Control_c, 0, 64, 64
1, 191440, Control_c, 0, 64, 63
1, 191455, Control_c, 0, 64, 64
1, 191470, Control_c, 0, 64, 67
1, 191485, Control_c, 0, 64, 71
1, 191500, Control_c, 0, 64, 75
1, 191505, Note_on_c, 0, 71, 39
1, 191514, Control_c, 0, 64, 76
1, 191529, Control_c, 0, 64, 77
1, 191544, Control_c, 0, 64, 80
1, 191559, Control_c, 0, 64, 85
1, 191574, Control_c, 0, 64, 97
1, 191588, Control_c, 0, 64, 120
1, 191603, Control_c, 0, 64, 127
1, 191960, Note_on_c, 0, 75, 71
1, 191964, Note_on_c, 0, 74, 70
1, 192068, Note_off_c, 0, 74, 58
1, 192083, Note_on_c, 0, 76, 62
1, 192108, Note_off_c, 0, 75, 60
1, 192188, Note_off_c, 0, 76, 56
1, 192529, Note_on_c, 0, 77, 77
1, 192530, Note_on_c, 0, 78, 75
1, 192576, Note_off_c, 0, 73, 46
1, 192598, Note_off_c, 0, 71, 63
1, 192615, Note_off_c, 0, 72, 41
1, 192671, Note_on_c, 0, 79, 69
1, 192671, Note_off_c, 0, 78, 64
1, 192673, Note_off_c, 0, 77, 55
1, 193071, Note_on_c, 0, 74, 78
1, 193074, Note_on_c, 0, 75, 70
1, 193200, Note_on_c, 0, 73, 61
1, 193369, Note_off_c, 0, 75, 57
1, 193579, Note_off_c, 0, 74, 9
1, 193653, Note_on_c, 0, 77, 77
1, 193659, Note_on_c, 0, 76, 75
1, 193687, Note_off_c, 0, 79, 57
1, 193760, Note_off_c, 0, 76, 61
1, 193776, Note_on_c, 0, 78, 61
1, 193810, Note_off_c, 0, 77, 55
1, 193831, Note_off_c, 0, 73, 57
1, 194311, Note_off_c, 0, 78, 34
1, 194347, Note_on_c, 0, 75, 68
1, 194350, Note_on_c, 0, 73, 55
1, 194354, Note_on_c, 0, 74, 67
1, 194362, Note_on_c, 0, 72, 56
1, 194376, Control_c, 0, 64, 84
1, 194391, Control_c, 0, 64, 64
1, 194406, Control_c, 0, 64, 0
1, 194472, Note_on_c, 0, 76, 58
1, 194495, Control_c, 0, 64, 41
1, 194498, Note_on_c, 0, 71, 43
1, 194501, Note_off_c, 0, 74, 37
1, 194509, Control_c, 0, 64, 58
1, 194517, Note_off_c, 0, 75, 55
1, 194525, Control_c, 0, 64, 69
1, 194538, Note_off_c, 0, 72, 36
1, 194540, Control_c, 0, 64, 78
1, 194543, Note_off_c, 0, 73, 33
1, 194555, Control_c, 0, 64, 86
1, 194570, Control_c, 0, 64, 88
1, 194584, Control_c, 0, 64, 91
1, 194599, Control_c, 0, 64, 99
1, 194614, Control_c, 0, 64, 127
1, 194678, Note_off_c, 0, 76, 33
1, 194689, Note_off_c, 0, 71, 37
1, 195251, Note_on_c, 0, 68, 46
1, 195251, Note_on_c, 0, 79, 56
1, 195255, Note_on_c, 0, 75, 47
1, 195258, Note_on_c, 0, 73, 42
1, 195258, Control_c, 0, 64, 103
1, 195262, Note_on_c, 0, 74, 49
1, 195262, Note_on_c, 0, 72, 46
1, 195273, Control_c, 0, 64, 80
1, 195288, Control_c, 0, 64, 64
1, 195302, Control_c, 0, 64, 36
1, 195317, Control_c, 0, 64, 0
1, 195452, Control_c, 0, 64, 55
1, 195467, Control_c, 0, 64, 64
1, 195481, Control_c, 0, 64, 69
1, 195496, Control_c, 0, 64, 73
1, 195511, Control_c, 0, 64, 76
1, 195525, Control_c, 0, 64, 78
1, 195540, Control_c, 0, 64, 82
1, 195563, Control_c, 0, 64, 93
1, 195578, Control_c, 0, 64, 120
1, 195593, Control_c, 0, 64, 127
1, 195603, Note_off_c, 0, 73, 37
1, 195660, Note_off_c, 0, 74, 37
1, 195691, Note_off_c, 0, 72, 41
1, 195715, Note_off_c, 0, 75, 61
1, 195744, Note_off_c, 0, 79, 38
1, 195746, Note_off_c, 0, 68, 58
1, 196691, Note_on_c, 0, 95, 47
1, 196717, Note_on_c, 0, 46, 46
1, 197520, Note_on_c, 0, 90, 44
1, 197522, Note_on_c, 0, 53, 34
1, 197541, Note_off_c, 0, 95, 37
1, 197633, Note_off_c, 0, 90, 63
1, 197725, Note_off_c, 0, 46, 34
1, 197844, Note_off_c, 0, 53, 38
1, 198315, Note_on_c, 0, 80, 70
1, 198331, Note_on_c, 0, 79, 56
1, 198465, Note_on_c, 0, 81, 58
1, 198480, Note_off_c, 0, 80, 56
1, 198552, Note_off_c, 0, 79, 0
1, 198589, Poly_aftertouch_c, 0, 79, 127
1, 198706, Poly_aftertouch_c, 0, 79, 0
1, 198880, Note_on_c, 0, 77, 68
1, 198883, Note_on_c, 0, 78, 69
1, 199015, Note_on_c, 0, 76, 67
1, 199021, Note_off_c, 0, 81, 40
1, 199066, Note_off_c, 0, 77, 47
1, 199092, Note_off_c, 0, 78, 49
1, 199113, Note_off_c, 0, 76, 60
1, 199410, Note_on_c, 0, 81, 82
1, 199415, Note_on_c, 0, 82, 79
1, 199549, Note_on_c, 0, 80, 67
1, 199850, Note_off_c, 0, 82, 58
1, 199906, Note_on_c, 0, 84, 86
1, 199906, Note_on_c, 0, 83, 85
1, 199951, Note_off_c, 0, 81, 54
1, 200020, Note_off_c, 0, 83, 62
1, 200025, Note_on_c, 0, 85, 71
1, 200049, Note_off_c, 0, 84, 62
1, 200095, Note_off_c, 0, 80, 54
1, 200391, Note_on_c, 0, 82, 87
1, 200398, Note_on_c, 0, 81, 75
1, 200434, Note_off_c, 0, 85, 60
1, 200497, Note_on_c, 0, 83, 68
1, 200502, Note_off_c, 0, 82, 63
1, 200831, Note_on_c, 0, 78, 83
1, 200838, Note_on_c, 0, 79, 86
1, 200910, Note_off_c, 0, 81, 26
1, 200961, Note_off_c, 0, 78, 63
1, 200962, Note_on_c, 0, 77, 62
1, 200964, Note_off_c, 0, 79, 60
1, 201013, Note_off_c, 0, 77, 64
1, 201265, Note_on_c, 0, 76, 78
1, 201270, Note_on_c, 0, 77, 75
1, 201359, Note_off_c, 0, 83, 55
1, 201373, Note_on_c, 0, 75, 65
1, 201701, Note_on_c, 0, 78, 81
1, 201704, Note_on_c, 0, 79, 86
1, 201716, Note_off_c, 0, 77, 60
1, 201777, Note_off_c, 0, 76, 33
1, 201809, Note_off_c, 0, 78, 45
1, 201813, Note_on_c, 0, 80, 69
1, 201820, Note_off_c, 0, 79, 62
1, 201936, Note_off_c, 0, 75, 32
1, 202193, Note_on_c, 0, 77, 77
1, 202193, Note_on_c, 0, 76, 77
1, 202214, Note_off_c, 0, 80, 60
1, 202303, Note_on_c, 0, 78, 68
1, 202308, Note_off_c, 0, 77, 60
1, 202674, Note_on_c, 0, 74, 73
1, 202676, Note_on_c, 0, 75, 60
1, 202816, Note_on_c, 0, 73, 53
1, 202845, Note_off_c, 0, 74, 56
1, 202880, Note_off_c, 0, 75, 37
1, 202925, Note_off_c, 0, 73, 28
1, 203072, Note_off_c, 0, 76, 47
1, 203260, Note_on_c, 0, 73, 69
1, 203263, Note_on_c, 0, 74, 67
1, 203433, Note_on_c, 0, 72, 52
1, 203436, Note_off_c, 0, 73, 59
1, 203472, Note_off_c, 0, 74, 31
1, 203566, Note_off_c, 0, 72, 53
1, 203641, Note_off_c, 0, 78, 40
1, 203999, Note_on_c, 0, 73, 42
1, 203999, Note_on_c, 0, 75, 60
1, 204002, Note_on_c, 0, 72, 52
1, 204005, Note_on_c, 0, 74, 58
1, 204036, Control_c, 0, 64, 81
1, 204051, Control_c, 0, 64, 62
1, 204065, Control_c, 0, 64, 0
1, 204158, Note_on_c, 0, 76, 55
1, 204170, Note_on_c, 0, 71, 43
1, 204185, Control_c, 0, 64, 42
1, 204193, Note_off_c, 0, 74, 36
1, 204198, Note_off_c, 0, 75, 51
1, 204200, Control_c, 0, 64, 60
1, 204215, Control_c, 0, 64, 68
1, 204230, Control_c, 0, 64, 72
1, 204242, Note_off_c, 0, 72, 29
1, 204244, Control_c, 0, 64, 74
1, 204259, Control_c, 0, 64, 78
1, 204274, Control_c, 0, 64, 86
1, 204278, Note_off_c, 0, 73, 20
1, 204288, Control_c, 0, 64, 101
1, 204303, Control_c, 0, 64, 127
1, 204354, Note_off_c, 0, 76, 39
1, 204363, Note_off_c, 0, 71, 36
1, 205038, Control_c, 0, 64, 103
1, 205042, Note_on_c, 0, 79, 54
1, 205046, Note_on_c, 0, 73, 39
1, 205049, Note_on_c, 0, 68, 41
1, 205053, Control_c, 0, 64, 88
1, 205054, Note_on_c, 0, 75, 44
1, 205057, Note_on_c, 0, 74, 43
1, 205068, Note_on_c, 0, 72, 33
1, 205068, Control_c, 0, 64, 75
1, 205083, Control_c, 0, 64, 63
1, 205098, Control_c, 0, 64, 44
1, 205112, Control_c, 0, 64, 0
1, 205260, Control_c, 0, 64, 46
1, 205275, Control_c, 0, 64, 58
1, 205297, Control_c, 0, 64, 64
1, 205311, Control_c, 0, 64, 67
1, 205326, Control_c, 0, 64, 71
1, 205341, Control_c, 0, 64, 74
1, 205356, Control_c, 0, 64, 77
1, 205371, Control_c, 0, 64, 80
1, 205385, Control_c, 0, 64, 85
1, 205400, Control_c, 0, 64, 94
1, 205415, Control_c, 0, 64, 112
1, 205430, Control_c, 0, 64, 127
1, 205435, Note_off_c, 0, 73, 42
1, 205523, Note_off_c, 0, 74, 27
1, 205538, Note_off_c, 0, 72, 38
1, 205567, Note_off_c, 0, 79, 35
1, 205609, Note_off_c, 0, 75, 41
1, 205679, Note_off_c, 0, 68, 41
1, 206569, Note_on_c, 0, 53, 30
1, 206575, Note_on_c, 0, 83, 52
1, 207922, Note_on_c, 0, 90, 48
1, 207925, Note_on_c, 0, 46, 43
1, 207940, Note_off_c, 0, 83, 53
1, 207980, Note_off_c, 0, 53, 40
1, 208422, Note_off_c, 0, 90, 42
1, 209517, Note_on_c, 0, 71, 42
1, 209517, Note_on_c, 0, 58, 34
1, 209588, Note_off_c, 0, 46, 38
1, 210057, Note_off_c, 0, 71, 36
1, 210408, Note_off_c, 0, 58, 34
1, 211556, Note_on_c, 0, 66, 63
1, 211556, Note_on_c, 0, 65, 57
1, 211585, Control_c, 0, 64, 98
1, 211600, Control_c, 0, 64, 78
1, 211614, Control_c, 0, 64, 66
1, 211629, Control_c, 0, 64, 53
1, 211644, Control_c, 0, 64, 0
1, 212051, Control_c, 0, 64, 35
1, 212066, Control_c, 0, 64, 37
1, 212080, Control_c, 0, 64, 37
1, 212111, Control_c, 0, 64, 38
1, 212126, Control_c, 0, 64, 39
1, 212141, Control_c, 0, 64, 41
1, 212155, Control_c, 0, 64, 43
1, 212170, Control_c, 0, 64, 44
1, 212176, Note_on_c, 0, 67, 60
1, 212185, Control_c, 0, 64, 44
1, 212200, Control_c, 0, 64, 45
1, 212215, Control_c, 0, 64, 45
1, 212229, Control_c, 0, 64, 46
1, 212244, Control_c, 0, 64, 48
1, 212259, Control_c, 0, 64, 49
1, 212274, Control_c, 0, 64, 49
1, 212319, Control_c, 0, 64, 50
1, 212334, Control_c, 0, 64, 51
1, 212348, Control_c, 0, 64, 52
1, 212363, Control_c, 0, 64, 53
1, 212378, Control_c, 0, 64, 54
1, 212408, Control_c, 0, 64, 54
1, 212437, Control_c, 0, 64, 55
1, 212452, Control_c, 0, 64, 55
1, 212526, Control_c, 0, 64, 56
1, 212541, Control_c, 0, 64, 56
1, 212570, Control_c, 0, 64, 57
1, 212600, Control_c, 0, 64, 57
1, 212644, Control_c, 0, 64, 58
1, 212659, Control_c, 0, 64, 58
1, 212671, Note_on_c, 0, 64, 54
1, 212673, Control_c, 0, 64, 59
1, 212703, Control_c, 0, 64, 60
1, 212718, Control_c, 0, 64, 60
1, 212733, Control_c, 0, 64, 61
1, 212747, Control_c, 0, 64, 61
1, 212762, Control_c, 0, 64, 62
1, 212784, Control_c, 0, 64, 63
1, 212799, Control_c, 0, 64, 63
1, 212807, Note_off_c, 0, 65, 35
1, 212814, Control_c, 0, 64, 64
1, 212829, Control_c, 0, 64, 64
1, 212843, Control_c, 0, 64, 65
1, 212858, Control_c, 0, 64, 65
1, 212873, Control_c, 0, 64, 66
1, 212904, Control_c, 0, 64, 67
1, 213141, Control_c, 0, 64, 66
1, 213156, Control_c, 0, 64, 65
1, 213170, Control_c, 0, 64, 64
1, 213171, Note_on_c, 0, 65, 63
1, 213177, Note_on_c, 0, 69, 66
1, 213185, Control_c, 0, 64, 63
1, 213200, Control_c, 0, 64, 62
1, 213207, Note_off_c, 0, 67, 63
1, 213215, Control_c, 0, 64, 60
1, 213230, Control_c, 0, 64, 55
1, 213244, Control_c, 0, 64, 49
1, 213259, Control_c, 0, 64, 41
1, 213274, Control_c, 0, 64, 38
1, 213289, Control_c, 0, 64, 38
1, 213303, Control_c, 0, 64, 39
1, 213318, Control_c, 0, 64, 40
1, 213347, Note_off_c, 0, 64, 33
1, 213348, Control_c, 0, 64, 39
1, 213407, Control_c, 0, 64, 39
1, 213422, Control_c, 0, 64, 37
1, 213437, Control_c, 0, 64, 36
1, 213481, Control_c, 0, 64, 35
1, 213496, Control_c, 0, 64, 33
1, 213511, Control_c, 0, 64, 0
1, 213607, Control_c, 0, 64, 33
1, 213622, Control_c, 0, 64, 34
1, 213637, Control_c, 0, 64, 35
1, 213651, Control_c, 0, 64, 36
1, 213666, Control_c, 0, 64, 36
1, 213667, Note_on_c, 0, 68, 66
1, 213681, Control_c, 0, 64, 37
1, 213697, Control_c, 0, 64, 38
1, 213705, Note_off_c, 0, 69, 59
1, 213712, Control_c, 0, 64, 38
1, 213726, Control_c, 0, 64, 39
1, 213756, Control_c, 0, 64, 39
1, 213800, Control_c, 0, 64, 40
1, 213815, Control_c, 0, 64, 41
1, 213845, Control_c, 0, 64, 41
1, 213875, Control_c, 0, 64, 42
1, 214008, Control_c, 0, 64, 41
1, 214053, Control_c, 0, 64, 42
1, 214067, Control_c, 0, 64, 44
1, 214082, Control_c, 0, 64, 46
1, 214097, Control_c, 0, 64, 50
1, 214112, Control_c, 0, 64, 55
1, 214118, Note_on_c, 0, 63, 60
1, 214126, Control_c, 0, 64, 61
1, 214141, Control_c, 0, 64, 64
1, 214156, Control_c, 0, 64, 67
1, 214171, Control_c, 0, 64, 68
1, 214186, Control_c, 0, 64, 71
1, 214200, Control_c, 0, 64, 76
1, 214215, Control_c, 0, 64, 83
1, 214230, Control_c, 0, 64, 92
1, 214245, Control_c, 0, 64, 102
1, 214260, Control_c, 0, 64, 117
1, 214282, Control_c, 0, 64, 127
1, 214291, Note_off_c, 0, 66, 61
1, 214295, Note_off_c, 0, 65, 34
1, 214572, Note_on_c, 0, 65, 73
1, 214579, Control_c, 0, 64, 104
1, 214594, Control_c, 0, 64, 75
1, 214595, Note_on_c, 0, 66, 72
1, 214609, Control_c, 0, 64, 61
1, 214623, Control_c, 0, 64, 0
1, 214683, Control_c, 0, 64, 39
1, 214688, Note_off_c, 0, 68, 54
1, 214698, Control_c, 0, 64, 58
1, 214712, Control_c, 0, 64, 67
1, 214727, Control_c, 0, 64, 72
1, 214742, Control_c, 0, 64, 74
1, 214757, Control_c, 0, 64, 74
1, 214772, Control_c, 0, 64, 75
1, 214787, Control_c, 0, 64, 76
1, 214802, Control_c, 0, 64, 77
1, 214816, Control_c, 0, 64, 80
1, 214831, Control_c, 0, 64, 83
1, 214847, Control_c, 0, 64, 85
1, 214862, Control_c, 0, 64, 87
1, 214876, Control_c, 0, 64, 88
1, 214891, Control_c, 0, 64, 89
1, 214906, Control_c, 0, 64, 90
1, 214921, Control_c, 0, 64, 91
1, 214936, Control_c, 0, 64, 91
1, 214950, Control_c, 0, 64, 92
1, 214965, Control_c, 0, 64, 94
1, 214980, Control_c, 0, 64, 97
1, 214995, Control_c, 0, 64, 100
1, 215010, Control_c, 0, 64, 103
1, 215031, Control_c, 0, 64, 106
1, 215047, Note_on_c, 0, 67, 79
1, 215061, Control_c, 0, 64, 109
1, 215076, Control_c, 0, 64, 112
1, 215091, Control_c, 0, 64, 119
1, 215106, Control_c, 0, 64, 127
1, 215559, Note_on_c, 0, 70, 75
1, 215624, Note_off_c, 0, 67, 56
1, 215627, Note_off_c, 0, 63, 41
1, 216061, Note_on_c, 0, 69, 61
1, 216070, Note_on_c, 0, 61, 51
1, 216076, Control_c, 0, 64, 111
1, 216092, Control_c, 0, 64, 80
1, 216093, Note_off_c, 0, 70, 59
1, 216107, Control_c, 0, 64, 64
1, 216121, Control_c, 0, 64, 47
1, 216136, Control_c, 0, 64, 0
1, 216151, Control_c, 0, 64, 38
1, 216166, Control_c, 0, 64, 49
1, 216181, Control_c, 0, 64, 62
1, 216195, Control_c, 0, 64, 69
1, 216210, Control_c, 0, 64, 75
1, 216225, Control_c, 0, 64, 81
1, 216240, Control_c, 0, 64, 83
1, 216255, Control_c, 0, 64, 85
1, 216261, Note_off_c, 0, 65, 38
1, 216269, Control_c, 0, 64, 88
1, 216284, Control_c, 0, 64, 98
1, 216299, Control_c, 0, 64, 120
1, 216314, Control_c, 0, 64, 127
1, 216459, Note_off_c, 0, 66, 37
1, 216576, Note_on_c, 0, 65, 79
1, 216602, Control_c, 0, 64, 85
1, 216617, Control_c, 0, 64, 69
1, 216632, Control_c, 0, 64, 59
1, 216647, Control_c, 0, 64, 52
1, 216662, Control_c, 0, 64, 53
1, 216665, Note_off_c, 0, 69, 25
1, 216677, Control_c, 0, 64, 59
1, 216692, Control_c, 0, 64, 64
1, 216707, Control_c, 0, 64, 70
1, 216721, Control_c, 0, 64, 75
1, 216736, Control_c, 0, 64, 78
1, 216751, Control_c, 0, 64, 78
1, 216781, Control_c, 0, 64, 79
1, 216795, Control_c, 0, 64, 81
1, 216810, Control_c, 0, 64, 83
1, 216825, Control_c, 0, 64, 84
1, 216839, Control_c, 0, 64, 85
1, 216854, Control_c, 0, 64, 86
1, 216869, Control_c, 0, 64, 87
1, 216884, Control_c, 0, 64, 89
1, 216900, Control_c, 0, 64, 91
1, 216915, Control_c, 0, 64, 92
1, 216930, Control_c, 0, 64, 93
1, 216944, Control_c, 0, 64, 94
1, 216959, Control_c, 0, 64, 95
1, 216989, Control_c, 0, 64, 98
1, 217048, Control_c, 0, 64, 100
1, 217077, Control_c, 0, 64, 103
1, 217093, Control_c, 0, 64, 105
1, 217108, Control_c, 0, 64, 107
1, 217109, Note_on_c, 0, 66, 72
1, 217123, Control_c, 0, 64, 111
1, 217137, Control_c, 0, 64, 114
1, 217152, Control_c, 0, 64, 119
1, 217167, Control_c, 0, 64, 127
1, 217342, Note_off_c, 0, 61, 35
1, 217624, Note_on_c, 0, 62, 64
1, 217678, Control_c, 0, 64, 81
1, 217693, Control_c, 0, 64, 67
1, 217708, Control_c, 0, 64, 60
1, 217738, Control_c, 0, 64, 64
1, 217753, Control_c, 0, 64, 69
1, 217768, Control_c, 0, 64, 75
1, 217783, Control_c, 0, 64, 83
1, 217798, Control_c, 0, 64, 86
1, 217813, Control_c, 0, 64, 88
1, 217828, Control_c, 0, 64, 90
1, 217842, Control_c, 0, 64, 93
1, 217857, Control_c, 0, 64, 95
1, 217872, Control_c, 0, 64, 98
1, 217886, Control_c, 0, 64, 100
1, 217916, Control_c, 0, 64, 102
1, 217946, Control_c, 0, 64, 104
1, 218005, Control_c, 0, 64, 106
1, 218087, Control_c, 0, 64, 108
1, 218173, Note_on_c, 0, 69, 60
1, 218279, Control_c, 0, 64, 111
1, 218456, Control_c, 0, 64, 113
1, 218805, Control_c, 0, 64, 110
1, 218820, Control_c, 0, 64, 106
1, 218835, Control_c, 0, 64, 102
1, 218850, Control_c, 0, 64, 98
1, 218865, Control_c, 0, 64, 92
1, 218880, Control_c, 0, 64, 83
1, 218882, Note_on_c, 0, 60, 38
1, 218887, Note_on_c, 0, 71, 54
1, 218895, Control_c, 0, 64, 76
1, 218898, Note_off_c, 0, 62, 46
1, 218910, Control_c, 0, 64, 68
1, 218913, Note_off_c, 0, 69, 59
1, 218924, Control_c, 0, 64, 59
1, 218939, Control_c, 0, 64, 43
1, 218954, Control_c, 0, 64, 0
1, 219131, Control_c, 0, 64, 44
1, 219146, Control_c, 0, 64, 56
1, 219161, Control_c, 0, 64, 63
1, 219176, Control_c, 0, 64, 69
1, 219190, Control_c, 0, 64, 73
1, 219205, Control_c, 0, 64, 76
1, 219220, Control_c, 0, 64, 78
1, 219235, Control_c, 0, 64, 82
1, 219249, Control_c, 0, 64, 87
1, 219264, Control_c, 0, 64, 98
1, 219279, Control_c, 0, 64, 119
1, 219295, Control_c, 0, 64, 127
1, 219369, Note_off_c, 0, 60, 37
1, 219398, Note_off_c, 0, 66, 37
1, 219426, Note_off_c, 0, 65, 41
1, 219443, Note_off_c, 0, 71, 43
1, 220192, Note_on_c, 0, 78, 48
1, 220242, Note_on_c, 0, 80, 47
1, 220277, Note_off_c, 0, 78, 57
1, 220319, Note_on_c, 0, 81, 39
1, 220331, Note_off_c, 0, 80, 40
1, 220364, Note_off_c, 0, 81, 49
1, 220376, Note_on_c, 0, 82, 25
1, 220412, Note_on_c, 0, 83, 52
1, 220425, Note_off_c, 0, 82, 45
1, 220453, Note_off_c, 0, 83, 58
1, 220463, Note_on_c, 0, 84, 55
1, 220509, Note_off_c, 0, 84, 56
1, 220525, Note_on_c, 0, 85, 55
1, 220564, Note_on_c, 0, 86, 51
1, 220566, Note_off_c, 0, 85, 63
1, 220645, Note_on_c, 0, 89, 52
1, 220654, Note_off_c, 0, 86, 58
1, 220685, Note_off_c, 0, 89, 46
1, 221692, Note_on_c, 0, 72, 35
1, 221738, Note_off_c, 0, 72, 48
1, 221738, Note_on_c, 0, 74, 43
1, 221783, Note_off_c, 0, 74, 57
1, 221850, Note_on_c, 0, 76, 43
1, 221879, Note_off_c, 0, 76, 53
1, 221890, Note_on_c, 0, 77, 50
1, 221938, Note_off_c, 0, 77, 60
1, 221945, Note_on_c, 0, 78, 39
1, 221980, Note_off_c, 0, 78, 52
1, 222001, Note_on_c, 0, 79, 56
1, 222058, Note_on_c, 0, 80, 60
1, 222078, Note_off_c, 0, 79, 55
1, 222144, Note_on_c, 0, 83, 49
1, 222158, Note_off_c, 0, 80, 61
1, 222190, Note_off_c, 0, 83, 55
1, 223029, Note_on_c, 0, 71, 72
1, 223083, Control_c, 0, 64, 104
1, 223098, Control_c, 0, 64, 86
1, 223113, Control_c, 0, 64, 76
1, 223128, Control_c, 0, 64, 68
1, 223142, Control_c, 0, 64, 62
1, 223157, Control_c, 0, 64, 53
1, 223172, Control_c, 0, 64, 46
1, 223187, Control_c, 0, 64, 45
1, 223217, Control_c, 0, 64, 46
1, 223269, Control_c, 0, 64, 46
1, 223285, Control_c, 0, 64, 47
1, 223344, Control_c, 0, 64, 47
1, 223388, Control_c, 0, 64, 48
1, 223462, Control_c, 0, 64, 47
1, 223477, Control_c, 0, 64, 45
1, 223492, Control_c, 0, 64, 43
1, 223506, Control_c, 0, 64, 41
1, 223521, Control_c, 0, 64, 37
1, 223536, Control_c, 0, 64, 35
1, 223551, Control_c, 0, 64, 36
1, 223566, Control_c, 0, 64, 41
1, 223578, Note_on_c, 0, 65, 56
1, 223581, Control_c, 0, 64, 51
1, 223596, Control_c, 0, 64, 61
1, 223610, Control_c, 0, 64, 66
1, 223625, Control_c, 0, 64, 71
1, 223640, Control_c, 0, 64, 74
1, 223655, Control_c, 0, 64, 78
1, 223670, Control_c, 0, 64, 82
1, 223685, Control_c, 0, 64, 87
1, 223700, Control_c, 0, 64, 94
1, 223714, Control_c, 0, 64, 104
1, 223729, Control_c, 0, 64, 127
1, 224031, Note_off_c, 0, 65, 36
1, 224069, Note_on_c, 0, 66, 64
1, 224212, Note_off_c, 0, 71, 37
1, 224564, Note_on_c, 0, 65, 67
1, 225046, Note_on_c, 0, 60, 55
1, 225074, Note_on_c, 0, 71, 69
1, 225107, Control_c, 0, 64, 85
1, 225122, Control_c, 0, 64, 66
1, 225137, Control_c, 0, 64, 45
1, 225152, Control_c, 0, 64, 0
1, 225226, Control_c, 0, 64, 38
1, 225241, Control_c, 0, 64, 56
1, 225256, Control_c, 0, 64, 66
1, 225271, Control_c, 0, 64, 69
1, 225285, Control_c, 0, 64, 69
1, 225315, Control_c, 0, 64, 70
1, 225330, Control_c, 0, 64, 73
1, 225345, Control_c, 0, 64, 77
1, 225360, Control_c, 0, 64, 81
1, 225375, Control_c, 0, 64, 84
1, 225390, Control_c, 0, 64, 88
1, 225404, Control_c, 0, 64, 94
1, 225419, Control_c, 0, 64, 101
1, 225434, Control_c, 0, 64, 113
1, 225449, Control_c, 0, 64, 127
1, 225599, Note_on_c, 0, 69, 64
1, 225653, Note_off_c, 0, 71, 53
1, 225741, Note_off_c, 0, 60, 37
1, 226072, Note_off_c, 0, 66, 37
1, 226079, Note_on_c, 0, 60, 56
1, 226361, Note_off_c, 0, 65, 56
1, 226600, Note_on_c, 0, 66, 74
1, 226720, Note_off_c, 0, 69, 39
1, 227134, Note_on_c, 0, 68, 77
1, 227142, Note_on_c, 0, 65, 69
1, 227174, Control_c, 0, 64, 100
1, 227189, Control_c, 0, 64, 78
1, 227204, Control_c, 0, 64, 66
1, 227219, Control_c, 0, 64, 62
1, 227234, Control_c, 0, 64, 65
1, 227248, Control_c, 0, 64, 72
1, 227263, Control_c, 0, 64, 79
1, 227279, Control_c, 0, 64, 83
1, 227294, Control_c, 0, 64, 85
1, 227309, Control_c, 0, 64, 89
1, 227324, Control_c, 0, 64, 98
1, 227339, Control_c, 0, 64, 127
1, 227650, Control_c, 0, 64, 86
1, 227655, Note_on_c, 0, 62, 66
1, 227655, Note_on_c, 0, 69, 75
1, 227665, Control_c, 0, 64, 68
1, 227667, Note_off_c, 0, 60, 60
1, 227679, Control_c, 0, 64, 59
1, 227694, Control_c, 0, 64, 54
1, 227709, Control_c, 0, 64, 57
1, 227724, Control_c, 0, 64, 61
1, 227726, Note_off_c, 0, 68, 57
1, 227739, Control_c, 0, 64, 66
1, 227761, Control_c, 0, 64, 71
1, 227776, Control_c, 0, 64, 78
1, 227791, Control_c, 0, 64, 83
1, 227805, Control_c, 0, 64, 85
1, 227820, Control_c, 0, 64, 87
1, 227835, Control_c, 0, 64, 91
1, 227850, Control_c, 0, 64, 95
1, 227865, Control_c, 0, 64, 102
1, 227879, Control_c, 0, 64, 114
1, 227894, Control_c, 0, 64, 127
1, 228221, Control_c, 0, 64, 106
1, 228234, Note_on_c, 0, 71, 75
1, 228235, Note_on_c, 0, 60, 55
1, 228236, Control_c, 0, 64, 73
1, 228251, Control_c, 0, 64, 57
1, 228266, Control_c, 0, 64, 0
1, 228280, Note_off_c, 0, 62, 54
1, 228282, Note_off_c, 0, 69, 60
1, 228325, Control_c, 0, 64, 38
1, 228340, Control_c, 0, 64, 60
1, 228354, Control_c, 0, 64, 68
1, 228369, Control_c, 0, 64, 72
1, 228384, Control_c, 0, 64, 74
1, 228399, Control_c, 0, 64, 75
1, 228414, Control_c, 0, 64, 78
1, 228428, Control_c, 0, 64, 81
1, 228443, Control_c, 0, 64, 85
1, 228458, Control_c, 0, 64, 88
1, 228473, Control_c, 0, 64, 92
1, 228488, Control_c, 0, 64, 96
1, 228510, Control_c, 0, 64, 99
1, 228540, Control_c, 0, 64, 102
1, 228599, Control_c, 0, 64, 104
1, 228821, Control_c, 0, 64, 98
1, 228836, Control_c, 0, 64, 91
1, 228851, Control_c, 0, 64, 86
1, 228866, Control_c, 0, 64, 80
1, 228878, Note_on_c, 0, 73, 64
1, 228881, Control_c, 0, 64, 73
1, 228886, Note_on_c, 0, 58, 53
1, 228889, Note_off_c, 0, 60, 58
1, 228896, Control_c, 0, 64, 65
1, 228898, Note_off_c, 0, 71, 62
1, 228911, Control_c, 0, 64, 55
1, 228925, Control_c, 0, 64, 35
1, 228940, Control_c, 0, 64, 0
1, 229089, Control_c, 0, 64, 51
1, 229103, Control_c, 0, 64, 62
1, 229118, Control_c, 0, 64, 65
1, 229133, Control_c, 0, 64, 68
1, 229148, Control_c, 0, 64, 73
1, 229163, Control_c, 0, 64, 79
1, 229177, Control_c, 0, 64, 87
1, 229192, Control_c, 0, 64, 98
1, 229207, Control_c, 0, 64, 127
1, 229260, Note_off_c, 0, 65, 37
1, 229295, Note_off_c, 0, 66, 56
1, 229357, Note_off_c, 0, 58, 61
1, 229417, Note_off_c, 0, 73, 52
1, 230176, Note_on_c, 0, 90, 39
1, 230183, Note_on_c, 0, 79, 38
1, 230200, Note_on_c, 0, 49, 36
1, 230204, Note_on_c, 0, 38, 33
1, 230304, Note_off_c, 0, 79, 49
1, 230324, Note_off_c, 0, 90, 38
1, 230395, Note_off_c, 0, 49, 37
1, 230395, Note_off_c, 0, 38, 37
1, 231350, Note_on_c, 0, 73, 63
1, 231358, Note_on_c, 0, 66, 50
1, 231364, Note_on_c, 0, 58, 47
1, 231364, Note_on_c, 0, 65, 51
1, 231494, Note_off_c, 0, 66, 52
1, 231558, Note_off_c, 0, 65, 37
1, 231654, Note_off_c, 0, 58, 63
1, 231688, Note_off_c, 0, 73, 49
1, 232350, Note_on_c, 0, 90, 58
1, 232362, Note_on_c, 0, 49, 40
1, 232362, Note_on_c, 0, 79, 51
1, 232371, Note_on_c, 0, 38, 41
1, 232440, Note_off_c, 0, 79, 52
1, 232471, Note_off_c, 0, 90, 58
1, 232508, Note_off_c, 0, 49, 36
1, 232530, Note_off_c, 0, 38, 33
1, 233219, Note_on_c, 0, 73, 73
1, 233221, Note_on_c, 0, 65, 65
1, 233227, Note_on_c, 0, 58, 61
1, 233227, Note_on_c, 0, 66, 63
1, 233344, Note_off_c, 0, 66, 61
1, 233365, Note_off_c, 0, 65, 62
1, 233441, Note_off_c, 0, 58, 64
1, 233489, Note_off_c, 0, 73, 59
1, 233993, Note_on_c, 0, 49, 61
1, 233998, Note_on_c, 0, 90, 79
1, 234005, Note_on_c, 0, 38, 58
1, 234005, Note_on_c, 0, 79, 74
1, 234076, Note_off_c, 0, 79, 59
1, 234100, Note_off_c, 0, 38, 61
1, 234118, Note_off_c, 0, 90, 62
1, 234150, Note_off_c, 0, 49, 54
1, 234721, Note_on_c, 0, 73, 84
1, 234723, Note_on_c, 0, 66, 80
1, 234725, Note_on_c, 0, 65, 80
1, 234729, Note_on_c, 0, 58, 72
1, 234880, Note_off_c, 0, 66, 60
1, 234881, Note_off_c, 0, 65, 61
1, 234949, Note_off_c, 0, 58, 66
1, 234982, Note_off_c, 0, 73, 66
1, 235019, Control_c, 0, 67, 122
1, 235033, Control_c, 0, 67, 115
1, 235048, Control_c, 0, 67, 110
1, 235064, Control_c, 0, 67, 107
1, 235109, Control_c, 0, 67, 105
1, 235123, Control_c, 0, 67, 102
1, 235138, Control_c, 0, 67, 100
1, 235197, Control_c, 0, 67, 98
1, 235212, Control_c, 0, 67, 95
1, 235227, Control_c, 0, 67, 91
1, 235249, Control_c, 0, 67, 91
1, 235280, Control_c, 0, 67, 90
1, 235295, Control_c, 0, 67, 88
1, 235310, Control_c, 0, 67, 84
1, 235325, Control_c, 0, 67, 83
1, 235354, Control_c, 0, 67, 83
1, 235369, Control_c, 0, 67, 82
1, 235384, Control_c, 0, 67, 79
1, 235394, Note_on_c, 0, 49, 76
1, 235394, Note_on_c, 0, 90, 91
1, 235399, Note_on_c, 0, 38, 70
1, 235399, Control_c, 0, 67, 75
1, 235403, Note_on_c, 0, 79, 82
1, 235413, Control_c, 0, 67, 74
1, 235428, Control_c, 0, 67, 73
1, 235443, Control_c, 0, 67, 71
1, 235458, Control_c, 0, 67, 65
1, 235472, Control_c, 0, 67, 57
1, 235480, Note_off_c, 0, 38, 62
1, 235487, Control_c, 0, 67, 53
1, 235493, Note_off_c, 0, 79, 60
1, 235502, Control_c, 0, 67, 52
1, 235517, Control_c, 0, 67, 50
1, 235519, Note_off_c, 0, 90, 63
1, 235530, Note_off_c, 0, 49, 62
1, 235532, Control_c, 0, 67, 48
1, 235546, Control_c, 0, 67, 42
1, 235561, Control_c, 0, 67, 38
1, 235576, Control_c, 0, 67, 37
1, 235650, Control_c, 0, 67, 37
1, 235695, Control_c, 0, 67, 36
1, 235710, Control_c, 0, 67, 35
1, 235725, Control_c, 0, 67, 32
1, 235739, Control_c, 0, 67, 27
1, 235769, Control_c, 0, 67, 24
1, 235783, Control_c, 0, 67, 0
1, 236024, Note_on_c, 0, 73, 95
1, 236026, Note_on_c, 0, 66, 84
1, 236032, Note_on_c, 0, 65, 89
1, 236038, Note_on_c, 0, 58, 80
1, 236201, Note_off_c, 0, 65, 61
1, 236213, Note_off_c, 0, 66, 57
1, 236266, Note_off_c, 0, 58, 61
1, 236658, Note_on_c, 0, 70, 92
1, 236660, Note_on_c, 0, 62, 84
1, 236661, Note_on_c, 0, 63, 86
1, 236664, Note_on_c, 0, 55, 82
1, 236666, Control_c, 0, 64, 98
1, 236680, Control_c, 0, 64, 63
1, 236692, Note_off_c, 0, 73, 61
1, 236695, Control_c, 0, 64, 0
1, 236777, Control_c, 0, 64, 58
1, 236789, Note_off_c, 0, 62, 63
1, 236792, Control_c, 0, 64, 66
1, 236807, Control_c, 0, 64, 72
1, 236821, Control_c, 0, 64, 82
1, 236825, Note_off_c, 0, 55, 65
1, 236827, Note_off_c, 0, 63, 63
1, 236836, Control_c, 0, 64, 116
1, 236851, Control_c, 0, 64, 127
1, 236897, Note_off_c, 0, 70, 61
1, 237270, Note_on_c, 0, 40, 72
1, 237275, Note_on_c, 0, 87, 96
1, 237276, Note_on_c, 0, 51, 75
1, 237281, Note_on_c, 0, 76, 78
1, 237311, Note_off_c, 0, 76, 59
1, 237340, Note_off_c, 0, 40, 60
1, 237364, Note_off_c, 0, 87, 61
1, 237385, Note_off_c, 0, 51, 62
1, 237853, Note_on_c, 0, 62, 82
1, 237855, Note_on_c, 0, 63, 89
1, 237855, Note_on_c, 0, 70, 94
1, 237858, Note_on_c, 0, 55, 76
1, 237882, Control_c, 0, 64, 87
1, 237897, Control_c, 0, 64, 51
1, 237912, Control_c, 0, 64, 0
1, 237971, Control_c, 0, 64, 55
1, 237978, Note_off_c, 0, 62, 63
1, 237985, Control_c, 0, 64, 70
1, 238000, Control_c, 0, 64, 86
1, 238014, Note_off_c, 0, 63, 61
1, 238015, Control_c, 0, 64, 112
1, 238028, Note_off_c, 0, 55, 63
1, 238030, Control_c, 0, 64, 127
1, 238059, Control_c, 0, 67, 21
1, 238074, Control_c, 0, 67, 25
1, 238086, Note_off_c, 0, 70, 62
1, 238430, Note_on_c, 0, 40, 76
1, 238432, Note_on_c, 0, 51, 79
1, 238442, Note_on_c, 0, 85, 96
1, 238446, Note_on_c, 0, 74, 82
1, 238495, Note_off_c, 0, 40, 61
1, 238498, Note_off_c, 0, 74, 59
1, 238534, Note_off_c, 0, 51, 62
1, 238539, Note_off_c, 0, 85, 60
1, 238735, Control_c, 0, 67, 27
1, 239004, Note_on_c, 0, 70, 84
1, 239005, Note_on_c, 0, 62, 82
1, 239007, Note_on_c, 0, 63, 81
1, 239009, Note_on_c, 0, 55, 76
1, 239038, Control_c, 0, 64, 79
1, 239053, Control_c, 0, 64, 56
1, 239068, Control_c, 0, 64, 0
1, 239097, Control_c, 0, 67, 29
1, 239112, Control_c, 0, 64, 39
1, 239114, Note_off_c, 0, 62, 63
1, 239127, Control_c, 0, 64, 63
1, 239141, Control_c, 0, 64, 80
1, 239146, Note_off_c, 0, 63, 62
1, 239147, Note_off_c, 0, 55, 65
1, 239156, Control_c, 0, 64, 104
1, 239171, Control_c, 0, 64, 127
1, 239186, Control_c, 0, 67, 31
1, 239201, Note_off_c, 0, 70, 66
1, 239201, Control_c, 0, 67, 35
1, 239215, Control_c, 0, 67, 36
1, 239230, Control_c, 0, 67, 36
1, 239245, Control_c, 0, 67, 35
1, 239276, Control_c, 0, 67, 36
1, 239291, Control_c, 0, 67, 37
1, 239320, Control_c, 0, 67, 36
1, 239335, Control_c, 0, 67, 35
1, 239379, Control_c, 0, 67, 36
1, 239424, Control_c, 0, 67, 35
1, 239469, Control_c, 0, 67, 36
1, 239513, Control_c, 0, 67, 35
1, 239546, Note_on_c, 0, 42, 71
1, 239548, Note_on_c, 0, 83, 80
1, 239550, Note_on_c, 0, 53, 66
1, 239557, Note_on_c, 0, 72, 74
1, 239557, Control_c, 0, 67, 36
1, 239572, Control_c, 0, 67, 37
1, 239593, Note_off_c, 0, 72, 62
1, 239602, Control_c, 0, 67, 37
1, 239615, Note_off_c, 0, 83, 65
1, 239617, Control_c, 0, 67, 36
1, 239619, Note_off_c, 0, 42, 61
1, 239644, Note_off_c, 0, 53, 61
1, 239661, Control_c, 0, 67, 37
1, 239705, Control_c, 0, 67, 37
1, 239743, Control_c, 0, 67, 37
1, 239757, Control_c, 0, 67, 38
1, 239772, Control_c, 0, 67, 39
1, 239787, Control_c, 0, 67, 38
1, 239802, Control_c, 0, 67, 38
1, 239817, Control_c, 0, 67, 37
1, 239832, Control_c, 0, 67, 38
1, 239846, Control_c, 0, 67, 39
1, 239861, Control_c, 0, 67, 40
1, 239876, Control_c, 0, 67, 41
1, 239906, Control_c, 0, 67, 41
1, 239935, Control_c, 0, 67, 42
1, 239979, Control_c, 0, 67, 41
1, 239994, Control_c, 0, 67, 40
1, 240024, Control_c, 0, 67, 41
1, 240038, Control_c, 0, 67, 41
1, 240069, Control_c, 0, 67, 40
1, 240114, Control_c, 0, 67, 42
1, 240119, Note_on_c, 0, 62, 61
1, 240125, Note_on_c, 0, 70, 74
1, 240126, Note_on_c, 0, 55, 57
1, 240128, Control_c, 0, 67, 44
1, 240132, Note_on_c, 0, 63, 64
1, 240143, Control_c, 0, 64, 96
1, 240143, Control_c, 0, 67, 45
1, 240158, Control_c, 0, 64, 67
1, 240158, Control_c, 0, 67, 45
1, 240173, Control_c, 0, 64, 36
1, 240187, Control_c, 0, 64, 0
1, 240187, Control_c, 0, 67, 46
1, 240202, Control_c, 0, 67, 49
1, 240217, Control_c, 0, 67, 54
1, 240232, Control_c, 0, 64, 37
1, 240232, Control_c, 0, 67, 56
1, 240247, Control_c, 0, 64, 59
1, 240259, Note_off_c, 0, 62, 62
1, 240262, Control_c, 0, 64, 70
1, 240264, Note_off_c, 0, 63, 62
1, 240277, Control_c, 0, 64, 81
1, 240277, Control_c, 0, 67, 58
1, 240292, Control_c, 0, 64, 101
1, 240292, Control_c, 0, 67, 62
1, 240307, Control_c, 0, 64, 127
1, 240307, Control_c, 0, 67, 71
1, 240310, Note_off_c, 0, 55, 63
1, 240322, Control_c, 0, 67, 78
1, 240330, Note_off_c, 0, 70, 64
1, 240336, Control_c, 0, 67, 80
1, 240366, Control_c, 0, 67, 80
1, 240381, Control_c, 0, 67, 83
1, 240396, Control_c, 0, 67, 92
1, 240411, Control_c, 0, 67, 99
1, 240470, Control_c, 0, 67, 101
1, 240492, Control_c, 0, 67, 104
1, 240507, Control_c, 0, 67, 109
1, 240522, Control_c, 0, 67, 112
1, 240581, Control_c, 0, 67, 117
1, 240596, Control_c, 0, 67, 124
1, 240611, Control_c, 0, 67, 127
1, 240733, Note_on_c, 0, 54, 45
1, 240736, Note_on_c, 0, 82, 53
1, 240755, Note_on_c, 0, 43, 37
1, 240759, Control_c, 0, 64, 96
1, 240774, Control_c, 0, 64, 76
1, 240775, Note_on_c, 0, 71, 38
1, 240788, Control_c, 0, 64, 61
1, 240803, Control_c, 0, 64, 34
1, 240818, Control_c, 0, 64, 0
1, 240908, Control_c, 0, 64, 52
1, 240923, Control_c, 0, 64, 64
1, 240938, Control_c, 0, 64, 71
1, 240952, Control_c, 0, 64, 78
1, 240967, Control_c, 0, 64, 83
1, 240982, Control_c, 0, 64, 88
1, 240997, Control_c, 0, 64, 102
1, 241011, Control_c, 0, 64, 127
1, 241031, Note_off_c, 0, 82, 49
1, 241049, Note_off_c, 0, 71, 42
1, 241114, Note_off_c, 0, 43, 37
1, 241131, Note_off_c, 0, 54, 37
1, 241766, Note_on_c, 0, 70, 44
1, 241777, Note_on_c, 0, 59, 39
1, 241785, Note_on_c, 0, 54, 34
1, 241788, Control_c, 0, 64, 115
1, 241803, Control_c, 0, 64, 91
1, 241809, Note_on_c, 0, 43, 14
1, 241818, Control_c, 0, 64, 75
1, 241833, Control_c, 0, 64, 64
1, 241848, Control_c, 0, 64, 50
1, 241863, Control_c, 0, 64, 34
1, 241877, Control_c, 0, 64, 34
1, 241892, Control_c, 0, 64, 40
1, 241907, Control_c, 0, 64, 50
1, 241922, Control_c, 0, 64, 61
1, 241937, Control_c, 0, 64, 68
1, 241951, Control_c, 0, 64, 74
1, 241966, Control_c, 0, 64, 77
1, 241988, Control_c, 0, 64, 80
1, 242003, Control_c, 0, 64, 83
1, 242018, Control_c, 0, 64, 87
1, 242032, Control_c, 0, 64, 96
1, 242047, Control_c, 0, 64, 122
1, 242062, Control_c, 0, 64, 127
1, 242129, Note_off_c, 0, 59, 31
1, 242130, Note_off_c, 0, 54, 32
1, 242162, Note_off_c, 0, 70, 40
1, 242296, Note_off_c, 0, 43, 38
1, 243030, Note_on_c, 0, 42, 32
1, 243040, Note_on_c, 0, 58, 42
1, 243052, Note_on_c, 0, 47, 32
1, 243059, Note_on_c, 0, 31, 27
1, 243079, Control_c, 0, 64, 112
1, 243094, Control_c, 0, 64, 96
1, 243108, Control_c, 0, 64, 86
1, 243123, Control_c, 0, 64, 77
1, 243138, Control_c, 0, 64, 68
1, 243153, Control_c, 0, 64, 61
1, 243168, Control_c, 0, 64, 52
1, 243182, Control_c, 0, 64, 42
1, 243197, Control_c, 0, 64, 37
1, 243258, Control_c, 0, 64, 37
1, 243272, Control_c, 0, 64, 36
1, 243302, Control_c, 0, 64, 36
1, 243502, Control_c, 0, 64, 36
1, 243531, Control_c, 0, 64, 37
1, 243546, Control_c, 0, 64, 37
1, 243576, Control_c, 0, 64, 38
1, 243591, Control_c, 0, 64, 39
1, 243605, Control_c, 0, 64, 41
1, 243620, Control_c, 0, 64, 43
1, 243635, Control_c, 0, 64, 44
1, 243650, Control_c, 0, 64, 45
1, 243665, Control_c, 0, 64, 46
1, 243679, Control_c, 0, 64, 49
1, 243694, Control_c, 0, 64, 53
1, 243709, Control_c, 0, 64, 58
1, 243723, Control_c, 0, 64, 61
1, 243738, Control_c, 0, 64, 62
1, 243753, Control_c, 0, 64, 62
1, 243768, Control_c, 0, 64, 63
1, 243783, Control_c, 0, 64, 65
1, 243797, Control_c, 0, 64, 67
1, 243812, Control_c, 0, 64, 69
1, 243827, Control_c, 0, 64, 72
1, 243842, Control_c, 0, 64, 74
1, 243857, Control_c, 0, 64, 77
1, 243872, Control_c, 0, 64, 80
1, 243887, Control_c, 0, 64, 84
1, 243901, Control_c, 0, 64, 86
1, 243916, Control_c, 0, 64, 89
1, 243931, Control_c, 0, 64, 95
1, 243946, Control_c, 0, 64, 106
1, 243961, Control_c, 0, 64, 127
1, 244027, Note_off_c, 0, 31, 35
1, 244049, Note_off_c, 0, 47, 40
1, 244074, Note_off_c, 0, 42, 38
1, 244151, Note_off_c, 0, 58, 37
1, 244809, Note_on_c, 0, 59, 37
1, 244824, Note_on_c, 0, 55, 31
1, 244830, Note_on_c, 0, 58, 33
1, 244840, Note_on_c, 0, 54, 24
1, 244984, Note_off_c, 0, 58, 35
1, 244995, Note_off_c, 0, 54, 41
1, 245113, Note_off_c, 0, 59, 41
1, 245158, Note_off_c, 0, 55, 38
1, 245566, Note_on_c, 0, 58, 46
1, 245571, Note_on_c, 0, 31, 26
1, 245574, Note_on_c, 0, 47, 39
1, 245576, Note_on_c, 0, 42, 35
1, 245736, Note_off_c, 0, 31, 37
1, 245782, Note_off_c, 0, 42, 42
1, 245791, Note_off_c, 0, 47, 31
1, 245818, Note_off_c, 0, 58, 35
1, 246261, Note_on_c, 0, 54, 36
1, 246265, Note_on_c, 0, 59, 55
1, 246271, Note_on_c, 0, 58, 37
1, 246276, Note_on_c, 0, 55, 47
1, 246375, Note_off_c, 0, 58, 47
1, 246430, Note_off_c, 0, 59, 55
1, 246432, Note_off_c, 0, 54, 42
1, 246497, Note_off_c, 0, 55, 38
1, 246959, Note_on_c, 0, 58, 55
1, 246964, Note_on_c, 0, 42, 46
1, 246972, Note_on_c, 0, 47, 48
1, 246983, Note_on_c, 0, 31, 40
1, 247120, Note_off_c, 0, 31, 36
1, 247151, Note_off_c, 0, 42, 60
1, 247157, Note_off_c, 0, 47, 38
1, 247195, Note_off_c, 0, 58, 37
1, 247651, Note_on_c, 0, 59, 53
1, 247652, Note_on_c, 0, 55, 49
1, 247654, Note_on_c, 0, 54, 42
1, 247660, Note_on_c, 0, 58, 42
1, 247747, Note_off_c, 0, 58, 54
1, 247811, Note_off_c, 0, 54, 36
1, 247825, Note_off_c, 0, 55, 54
1, 247827, Note_off_c, 0, 59, 57
1, 248370, Note_on_c, 0, 58, 54
1, 248379, Note_on_c, 0, 42, 37
1, 248385, Note_on_c, 0, 47, 44
1, 248395, Note_on_c, 0, 31, 36
1, 248395, Control_c, 0, 64, 114
1, 248410, Control_c, 0, 64, 87
1, 248425, Control_c, 0, 64, 71
1, 248439, Control_c, 0, 64, 60
1, 248454, Control_c, 0, 64, 49
1, 248469, Control_c, 0, 64, 50
1, 248484, Control_c, 0, 64, 56
1, 248499, Control_c, 0, 64, 62
1, 248513, Control_c, 0, 64, 67
1, 248528, Note_off_c, 0, 31, 53
1, 248528, Control_c, 0, 64, 73
1, 248543, Control_c, 0, 64, 80
1, 248558, Control_c, 0, 64, 86
1, 248573, Control_c, 0, 64, 89
1, 248587, Control_c, 0, 64, 94
1, 248602, Control_c, 0, 64, 100
1, 248617, Control_c, 0, 64, 111
1, 248620, Note_off_c, 0, 42, 47
1, 248632, Control_c, 0, 64, 127
1, 248638, Note_off_c, 0, 58, 33
1, 248658, Note_off_c, 0, 47, 35
1, 249106, Note_on_c, 0, 56, 63
1, 249109, Note_on_c, 0, 51, 44
1, 249116, Note_on_c, 0, 55, 44
1, 249119, Note_on_c, 0, 52, 47
1, 249158, Control_c, 0, 64, 103
1, 249173, Control_c, 0, 64, 83
1, 249188, Control_c, 0, 64, 71
1, 249203, Control_c, 0, 64, 64
1, 249217, Control_c, 0, 64, 56
1, 249232, Control_c, 0, 64, 53
1, 249247, Control_c, 0, 64, 57
1, 249261, Control_c, 0, 64, 64
1, 249276, Control_c, 0, 64, 71
1, 249291, Note_off_c, 0, 55, 57
1, 249291, Control_c, 0, 64, 80
1, 249306, Control_c, 0, 64, 87
1, 249321, Control_c, 0, 64, 90
1, 249336, Control_c, 0, 64, 91
1, 249336, Note_off_c, 0, 51, 59
1, 249351, Control_c, 0, 64, 94
1, 249365, Note_off_c, 0, 52, 52
1, 249365, Control_c, 0, 64, 100
1, 249371, Note_off_c, 0, 56, 57
1, 249380, Control_c, 0, 64, 111
1, 249395, Control_c, 0, 64, 127
1, 250070, Control_c, 0, 64, 106
1, 250077, Note_on_c, 0, 47, 42
1, 250079, Note_on_c, 0, 58, 45
1, 250085, Control_c, 0, 64, 92
1, 250095, Note_on_c, 0, 43, 37
1, 250099, Control_c, 0, 64, 80
1, 250101, Note_on_c, 0, 54, 32
1, 250114, Control_c, 0, 64, 69
1, 250129, Control_c, 0, 64, 57
1, 250144, Control_c, 0, 64, 0
1, 250240, Control_c, 0, 64, 43
1, 250255, Control_c, 0, 64, 63
1, 250270, Control_c, 0, 64, 72
1, 250285, Control_c, 0, 64, 78
1, 250299, Control_c, 0, 64, 83
1, 250314, Control_c, 0, 64, 87
1, 250329, Control_c, 0, 64, 94
1, 250344, Control_c, 0, 64, 112
1, 250359, Control_c, 0, 64, 127
1, 250382, Note_off_c, 0, 43, 40
1, 250397, Note_off_c, 0, 47, 37
1, 250463, Note_off_c, 0, 54, 37
1, 250533, Note_off_c, 0, 58, 56
1, 251020, Note_on_c, 0, 68, 38
1, 251036, Note_on_c, 0, 67, 48
1, 251090, Note_on_c, 0, 66, 50
1, 251188, Note_off_c, 0, 68, 41
1, 251191, Note_off_c, 0, 66, 57
1, 251197, Note_off_c, 0, 67, 38
1, 251334, Note_on_c, 0, 69, 44
1, 251377, Note_on_c, 0, 70, 43
1, 251381, Note_off_c, 0, 69, 55
1, 251404, Note_on_c, 0, 71, 56
1, 251422, Note_off_c, 0, 70, 64
1, 251501, Note_off_c, 0, 71, 61
1, 251619, Note_on_c, 0, 80, 61
1, 251658, Note_on_c, 0, 79, 60
1, 251697, Note_on_c, 0, 78, 68
1, 251702, Note_off_c, 0, 80, 56
1, 251731, Note_off_c, 0, 78, 67
1, 251735, Note_off_c, 0, 79, 63
1, 251899, Note_on_c, 0, 81, 63
1, 251934, Note_on_c, 0, 82, 60
1, 251943, Note_off_c, 0, 81, 61
1, 251969, Note_on_c, 0, 83, 71
1, 251991, Note_off_c, 0, 82, 62
1, 252033, Note_off_c, 0, 83, 59
1, 252176, Note_on_c, 0, 80, 62
1, 252223, Note_on_c, 0, 79, 59
1, 252272, Note_off_c, 0, 80, 45
1, 252272, Note_on_c, 0, 78, 64
1, 252293, Note_off_c, 0, 79, 63
1, 252298, Note_off_c, 0, 78, 68
1, 252476, Note_on_c, 0, 81, 59
1, 252513, Note_on_c, 0, 82, 67
1, 252516, Note_off_c, 0, 81, 62
1, 252561, Note_on_c, 0, 83, 66
1, 252570, Note_off_c, 0, 82, 61
1, 252597, Note_off_c, 0, 83, 59
1, 252908, Note_on_c, 0, 75, 53
1, 253064, Note_off_c, 0, 75, 57
1, 253078, Note_on_c, 0, 78, 43
1, 253129, Note_off_c, 0, 78, 57
1, 253164, Note_on_c, 0, 79, 44
1, 253216, Note_off_c, 0, 79, 62
1, 253230, Note_on_c, 0, 80, 46
1, 253262, Note_off_c, 0, 80, 58
1, 253280, Note_on_c, 0, 81, 59
1, 253343, Note_on_c, 0, 82, 63
1, 253366, Note_off_c, 0, 81, 52
1, 253408, Note_on_c, 0, 83, 61
1, 253417, Note_off_c, 0, 82, 62
1, 253494, Note_on_c, 0, 86, 59
1, 253501, Note_off_c, 0, 83, 63
1, 253502, Note_on_c, 0, 98, 64
1, 253521, Note_off_c, 0, 86, 56
1, 253525, Note_on_c, 0, 88, 40
1, 253529, Note_off_c, 0, 98, 68
1, 253554, Note_off_c, 0, 88, 37
1, 255354, Note_on_c, 0, 59, 44
1, 255357, Note_on_c, 0, 55, 44
1, 255357, Control_c, 0, 64, 90
1, 255361, Note_on_c, 0, 58, 41
1, 255366, Note_on_c, 0, 54, 36
1, 255372, Control_c, 0, 64, 73
1, 255386, Control_c, 0, 64, 62
1, 255401, Control_c, 0, 64, 47
1, 255416, Control_c, 0, 64, 34
1, 255430, Control_c, 0, 64, 38
1, 255445, Control_c, 0, 64, 49
1, 255467, Control_c, 0, 64, 60
1, 255482, Control_c, 0, 64, 68
1, 255497, Control_c, 0, 64, 74
1, 255512, Control_c, 0, 64, 79
1, 255518, Note_off_c, 0, 58, 37
1, 255527, Control_c, 0, 64, 82
1, 255542, Control_c, 0, 64, 88
1, 255556, Control_c, 0, 64, 94
1, 255568, Note_off_c, 0, 59, 57
1, 255571, Control_c, 0, 64, 104
1, 255577, Note_off_c, 0, 54, 39
1, 255586, Control_c, 0, 64, 127
1, 255638, Note_off_c, 0, 55, 46
1, 256026, Note_on_c, 0, 58, 52
1, 256037, Note_on_c, 0, 47, 42
1, 256049, Note_on_c, 0, 42, 37
1, 256059, Note_on_c, 0, 31, 33
1, 256061, Control_c, 0, 64, 99
1, 256075, Control_c, 0, 64, 78
1, 256090, Control_c, 0, 64, 66
1, 256105, Control_c, 0, 64, 59
1, 256120, Control_c, 0, 64, 55
1, 256135, Control_c, 0, 64, 61
1, 256150, Control_c, 0, 64, 67
1, 256165, Control_c, 0, 64, 76
1, 256179, Control_c, 0, 64, 87
1, 256194, Control_c, 0, 64, 96
1, 256216, Control_c, 0, 64, 101
1, 256228, Note_off_c, 0, 31, 37
1, 256231, Control_c, 0, 64, 108
1, 256246, Control_c, 0, 64, 127
1, 256264, Note_off_c, 0, 47, 37
1, 256284, Note_off_c, 0, 42, 41
1, 256305, Note_off_c, 0, 58, 37
1, 256646, Note_on_c, 0, 56, 57
1, 256649, Note_on_c, 0, 55, 50
1, 256664, Note_on_c, 0, 52, 38
1, 256669, Note_on_c, 0, 51, 41
1, 256675, Control_c, 0, 64, 102
1, 256690, Control_c, 0, 64, 84
1, 256704, Control_c, 0, 64, 75
1, 256719, Control_c, 0, 64, 71
1, 256734, Control_c, 0, 64, 71
1, 256749, Control_c, 0, 64, 72
1, 256764, Control_c, 0, 64, 75
1, 256779, Control_c, 0, 64, 80
1, 256788, Note_off_c, 0, 55, 56
1, 256794, Control_c, 0, 64, 88
1, 256809, Control_c, 0, 64, 97
1, 256815, Note_off_c, 0, 52, 61
1, 256824, Control_c, 0, 64, 112
1, 256839, Control_c, 0, 64, 127
1, 256854, Note_off_c, 0, 51, 55
1, 257036, Note_off_c, 0, 56, 35
1, 257269, Note_on_c, 0, 43, 56
1, 257274, Note_on_c, 0, 54, 55
1, 257285, Note_on_c, 0, 32, 44
1, 257306, Control_c, 0, 64, 88
1, 257321, Control_c, 0, 64, 68
1, 257335, Control_c, 0, 64, 56
1, 257350, Control_c, 0, 64, 45
1, 257365, Control_c, 0, 64, 48
1, 257380, Control_c, 0, 64, 56
1, 257395, Control_c, 0, 64, 64
1, 257409, Control_c, 0, 64, 72
1, 257424, Control_c, 0, 64, 87
1, 257430, Note_off_c, 0, 32, 58
1, 257439, Control_c, 0, 64, 107
1, 257454, Control_c, 0, 64, 127
1, 257465, Note_off_c, 0, 54, 56
1, 257492, Note_off_c, 0, 43, 59
1, 257884, Note_on_c, 0, 55, 49
1, 257884, Note_on_c, 0, 56, 61
1, 257894, Note_on_c, 0, 52, 49
1, 257897, Note_on_c, 0, 51, 44
1, 257906, Control_c, 0, 64, 99
1, 257921, Control_c, 0, 64, 78
1, 257936, Control_c, 0, 64, 71
1, 257950, Control_c, 0, 64, 69
1, 257965, Control_c, 0, 64, 71
1, 257980, Control_c, 0, 64, 75
1, 257995, Control_c, 0, 64, 79
1, 258010, Control_c, 0, 64, 84
1, 258025, Control_c, 0, 64, 91
1, 258027, Note_off_c, 0, 55, 60
1, 258040, Control_c, 0, 64, 100
1, 258055, Note_off_c, 0, 51, 60
1, 258055, Control_c, 0, 64, 122
1, 258064, Note_off_c, 0, 52, 59
1, 258070, Control_c, 0, 64, 127
1, 258142, Note_off_c, 0, 56, 50
1, 258557, Note_on_c, 0, 57, 63
1, 258570, Note_on_c, 0, 46, 54
1, 258573, Note_on_c, 0, 44, 51
1, 258577, Note_on_c, 0, 33, 47
1, 258582, Control_c, 0, 64, 93
1, 258597, Control_c, 0, 64, 71
1, 258612, Control_c, 0, 64, 56
1, 258627, Control_c, 0, 64, 0
1, 258671, Control_c, 0, 64, 40
1, 258686, Control_c, 0, 64, 58
1, 258701, Control_c, 0, 64, 69
1, 258716, Control_c, 0, 64, 80
1, 258730, Control_c, 0, 64, 89
1, 258745, Control_c, 0, 64, 91
1, 258760, Control_c, 0, 64, 94
1, 258774, Control_c, 0, 64, 99
1, 258789, Control_c, 0, 64, 107
1, 258804, Control_c, 0, 64, 127
1, 258903, Note_off_c, 0, 57, 55
1, 258936, Note_off_c, 0, 46, 33
1, 259234, Note_on_c, 0, 51, 53
1, 259237, Note_on_c, 0, 55, 57
1, 259286, Control_c, 0, 64, 112
1, 259301, Control_c, 0, 64, 87
1, 259316, Control_c, 0, 64, 76
1, 259330, Control_c, 0, 64, 70
1, 259360, Control_c, 0, 64, 72
1, 259375, Control_c, 0, 64, 75
1, 259390, Control_c, 0, 64, 79
1, 259404, Control_c, 0, 64, 82
1, 259419, Control_c, 0, 64, 87
1, 259434, Control_c, 0, 64, 94
1, 259447, Note_off_c, 0, 55, 48
1, 259449, Control_c, 0, 64, 102
1, 259464, Control_c, 0, 64, 112
1, 259469, Note_off_c, 0, 33, 60
1, 259478, Control_c, 0, 64, 127
1, 259530, Note_off_c, 0, 44, 48
1, 259642, Note_off_c, 0, 51, 33
1, 260080, Note_on_c, 0, 54, 52
1, 260084, Note_on_c, 0, 35, 44
1, 260088, Note_on_c, 0, 46, 39
1, 260094, Control_c, 0, 64, 98
1, 260094, Note_on_c, 0, 43, 45
1, 260109, Control_c, 0, 64, 80
1, 260124, Control_c, 0, 64, 62
1, 260138, Control_c, 0, 64, 34
1, 260153, Control_c, 0, 64, 0
1, 260257, Control_c, 0, 64, 42
1, 260272, Control_c, 0, 64, 59
1, 260287, Control_c, 0, 64, 65
1, 260301, Control_c, 0, 64, 68
1, 260316, Control_c, 0, 64, 70
1, 260331, Control_c, 0, 64, 72
1, 260345, Control_c, 0, 64, 76
1, 260360, Control_c, 0, 64, 82
1, 260375, Control_c, 0, 64, 90
1, 260390, Control_c, 0, 64, 100
1, 260405, Control_c, 0, 64, 110
1, 260419, Control_c, 0, 64, 127
1, 260753, Note_off_c, 0, 43, 33
1, 260846, Note_off_c, 0, 35, 36
1, 260970, Note_off_c, 0, 46, 43
1, 261079, Note_off_c, 0, 54, 34
1, 261820, Note_on_c, 0, 73, 42
1, 261930, Note_on_c, 0, 72, 49
1, 262031, Note_on_c, 0, 71, 40
1, 262032, Note_off_c, 0, 72, 36
1, 262053, Note_off_c, 0, 73, 34
1, 262070, Note_on_c, 0, 68, 62
1, 262078, Note_off_c, 0, 71, 54
1, 262113, Note_off_c, 0, 68, 58
1, 262154, Note_on_c, 0, 74, 53
1, 262214, Note_on_c, 0, 75, 54
1, 262240, Note_off_c, 0, 74, 47
1, 262278, Note_on_c, 0, 76, 61
1, 262334, Note_off_c, 0, 75, 59
1, 262362, Note_on_c, 0, 79, 54
1, 262414, Note_off_c, 0, 76, 60
1, 262416, Note_on_c, 0, 82, 73
1, 262437, Note_on_c, 0, 69, 47
1, 262440, Note_off_c, 0, 79, 64
1, 262446, Note_off_c, 0, 82, 60
1, 262500, Note_on_c, 0, 68, 60
1, 262564, Note_off_c, 0, 69, 36
1, 262567, Note_on_c, 0, 67, 63
1, 262576, Note_off_c, 0, 68, 57
1, 262651, Note_on_c, 0, 64, 58
1, 262661, Note_off_c, 0, 67, 61
1, 262697, Note_off_c, 0, 64, 63
1, 262700, Note_on_c, 0, 70, 70
1, 262774, Note_on_c, 0, 71, 68
1, 262775, Note_off_c, 0, 70, 60
1, 262803, Note_on_c, 0, 72, 24
1, 262839, Note_off_c, 0, 72, 0
1, 262839, Note_on_c, 0, 72, 15
1, 262866, Note_off_c, 0, 71, 63
1, 262918, Note_on_c, 0, 75, 72
1, 262961, Note_off_c, 0, 72, 48
1, 262999, Note_on_c, 0, 65, 72
1, 263002, Note_on_c, 0, 78, 80
1, 263026, Note_off_c, 0, 75, 64
1, 263042, Note_off_c, 0, 78, 59
1, 263158, Note_on_c, 0, 64, 69
1, 263295, Note_on_c, 0, 63, 69
1, 263447, Note_on_c, 0, 60, 73
1, 263620, Note_on_c, 0, 66, 74
1, 263963, Note_on_c, 0, 67, 84
1, 264312, Note_on_c, 0, 68, 84
1, 264401, Control_c, 0, 67, 124
1, 264416, Control_c, 0, 67, 119
1, 264431, Control_c, 0, 67, 115
1, 264453, Control_c, 0, 67, 112
1, 264468, Control_c, 0, 67, 108
1, 264483, Control_c, 0, 67, 103
1, 264498, Control_c, 0, 67, 96
1, 264513, Control_c, 0, 67, 89
1, 264527, Control_c, 0, 67, 84
1, 264542, Control_c, 0, 67, 80
1, 264557, Control_c, 0, 67, 75
1, 264572, Control_c, 0, 67, 69
1, 264587, Control_c, 0, 67, 62
1, 264601, Control_c, 0, 67, 58
1, 264616, Control_c, 0, 67, 54
1, 264631, Control_c, 0, 67, 52
1, 264646, Control_c, 0, 67, 47
1, 264660, Control_c, 0, 67, 38
1, 264675, Control_c, 0, 67, 28
1, 264688, Note_on_c, 0, 71, 84
1, 264690, Control_c, 0, 67, 19
1, 264705, Control_c, 0, 67, 0
1, 265209, Note_on_c, 0, 74, 92
1, 265380, Note_off_c, 0, 64, 52
1, 265380, Note_off_c, 0, 65, 35
1, 265383, Note_off_c, 0, 60, 60
1, 265428, Note_off_c, 0, 63, 59
1, 266110, Note_on_c, 0, 48, 79
1, 266115, Control_c, 0, 64, 106
1, 266130, Control_c, 0, 64, 78
1, 266145, Control_c, 0, 64, 63
1, 266160, Control_c, 0, 64, 34
1, 266174, Control_c, 0, 64, 0
1, 266199, Note_off_c, 0, 48, 65
1, 266307, Control_c, 0, 67, 20
1, 266381, Control_c, 0, 67, 22
1, 266396, Control_c, 0, 67, 27
1, 266486, Control_c, 0, 67, 32
1, 266501, Control_c, 0, 67, 35
1, 266515, Control_c, 0, 67, 35
1, 266530, Control_c, 0, 67, 34
1, 266560, Control_c, 0, 67, 36
1, 266575, Control_c, 0, 67, 37
1, 266589, Control_c, 0, 67, 39
1, 266619, Control_c, 0, 67, 40
1, 266634, Control_c, 0, 67, 45
1, 266649, Control_c, 0, 67, 55
1, 266664, Control_c, 0, 67, 66
1, 266679, Control_c, 0, 67, 73
1, 266701, Control_c, 0, 67, 76
1, 266730, Control_c, 0, 67, 77
1, 266745, Control_c, 0, 67, 80
1, 266760, Control_c, 0, 67, 89
1, 266775, Control_c, 0, 67, 95
1, 266789, Control_c, 0, 67, 97
1, 266819, Control_c, 0, 67, 100
1, 266834, Control_c, 0, 64, 43
1, 266834, Control_c, 0, 67, 106
1, 266848, Control_c, 0, 64, 52
1, 266848, Control_c, 0, 67, 114
1, 266863, Control_c, 0, 64, 56
1, 266863, Control_c, 0, 67, 116
1, 266878, Control_c, 0, 64, 58
1, 266923, Control_c, 0, 64, 58
1, 266923, Control_c, 0, 67, 118
1, 266938, Control_c, 0, 64, 60
1, 266953, Control_c, 0, 64, 61
1, 266968, Control_c, 0, 64, 62
1, 266983, Control_c, 0, 64, 63
1, 266997, Control_c, 0, 64, 64
1, 267012, Control_c, 0, 64, 65
1, 267012, Control_c, 0, 67, 122
1, 267027, Control_c, 0, 64, 66
1, 267041, Control_c, 0, 64, 67
1, 267056, Control_c, 0, 64, 68
1, 267071, Control_c, 0, 64, 69
1, 267086, Control_c, 0, 64, 71
1, 267086, Control_c, 0, 67, 124
1, 267101, Control_c, 0, 64, 74
1, 267101, Control_c, 0, 67, 126
1, 267115, Control_c, 0, 64, 77
1, 267130, Control_c, 0, 64, 80
1, 267145, Control_c, 0, 64, 82
1, 267159, Control_c, 0, 64, 85
1, 267174, Control_c, 0, 64, 88
1, 267189, Control_c, 0, 64, 94
1, 267204, Control_c, 0, 64, 100
1, 267220, Control_c, 0, 64, 106
1, 267235, Control_c, 0, 64, 115
1, 267250, Control_c, 0, 64, 127
1, 267939, Note_off_c, 0, 67, 51
1, 267954, Note_on_c, 0, 73, 51
1, 267965, Note_off_c, 0, 66, 37
1, 267982, Control_c, 0, 64, 96
1, 267983, Note_off_c, 0, 74, 52
1, 267995, Note_off_c, 0, 71, 35
1, 267996, Control_c, 0, 64, 82
1, 268012, Control_c, 0, 64, 71
1, 268023, Note_off_c, 0, 68, 35
1, 268027, Control_c, 0, 64, 62
1, 268042, Control_c, 0, 64, 48
1, 268057, Control_c, 0, 64, 0
1, 268524, Control_c, 0, 64, 34
1, 268539, Control_c, 0, 64, 35
1, 268554, Control_c, 0, 64, 37
1, 268568, Control_c, 0, 64, 38
1, 268583, Control_c, 0, 64, 40
1, 268598, Control_c, 0, 64, 43
1, 268612, Control_c, 0, 64, 48
1, 268627, Control_c, 0, 64, 52
1, 268642, Control_c, 0, 64, 55
1, 268657, Control_c, 0, 64, 57
1, 268686, Control_c, 0, 64, 57
1, 268701, Control_c, 0, 64, 58
1, 268716, Control_c, 0, 64, 60
1, 268730, Control_c, 0, 64, 63
1, 268745, Control_c, 0, 64, 64
1, 268761, Control_c, 0, 64, 65
1, 268776, Control_c, 0, 64, 65
1, 268791, Control_c, 0, 64, 66
1, 268807, Control_c, 0, 64, 67
1, 268822, Control_c, 0, 64, 68
1, 268836, Control_c, 0, 64, 70
1, 268851, Control_c, 0, 64, 72
1, 268866, Control_c, 0, 64, 73
1, 268881, Control_c, 0, 64, 74
1, 268896, Control_c, 0, 64, 75
1, 268910, Control_c, 0, 64, 77
1, 268925, Control_c, 0, 64, 79
1, 268947, Control_c, 0, 64, 81
1, 268962, Control_c, 0, 64, 83
1, 268977, Control_c, 0, 64, 86
1, 268992, Control_c, 0, 64, 88
1, 269007, Control_c, 0, 64, 91
1, 269022, Control_c, 0, 64, 94
1, 269036, Control_c, 0, 64, 98
1, 269051, Control_c, 0, 64, 104
1, 269066, Control_c, 0, 64, 114
1, 269081, Control_c, 0, 64, 127
1, 269609, Note_off_c, 0, 73, 32
1, 269931, Control_c, 0, 64, 109
1, 269946, Control_c, 0, 64, 98
1, 269948, Note_on_c, 0, 72, 50
1, 269961, Control_c, 0, 64, 90
1, 269976, Control_c, 0, 64, 80
1, 269990, Control_c, 0, 64, 72
1, 270005, Control_c, 0, 64, 64
1, 270020, Control_c, 0, 64, 55
1, 270035, Control_c, 0, 64, 45
1, 270050, Control_c, 0, 64, 40
1, 270065, Control_c, 0, 64, 40
1, 270110, Control_c, 0, 64, 40
1, 270139, Control_c, 0, 64, 41
1, 270183, Control_c, 0, 64, 41
1, 270198, Control_c, 0, 64, 42
1, 270213, Control_c, 0, 64, 42
1, 270228, Control_c, 0, 64, 43
1, 270257, Control_c, 0, 64, 43
1, 270287, Control_c, 0, 64, 45
1, 270302, Control_c, 0, 64, 45
1, 270317, Control_c, 0, 64, 46
1, 270331, Control_c, 0, 64, 46
1, 270390, Control_c, 0, 64, 47
1, 270421, Control_c, 0, 64, 47
1, 270520, Note_on_c, 0, 69, 46
1, 270577, Control_c, 0, 64, 48
1, 270592, Control_c, 0, 64, 51
1, 270606, Control_c, 0, 64, 55
1, 270621, Control_c, 0, 64, 60
1, 270636, Control_c, 0, 64, 63
1, 270651, Control_c, 0, 64, 65
1, 270666, Control_c, 0, 64, 66
1, 270680, Control_c, 0, 64, 70
1, 270695, Control_c, 0, 64, 75
1, 270710, Control_c, 0, 64, 79
1, 270725, Control_c, 0, 64, 82
1, 270740, Control_c, 0, 64, 83
1, 270754, Control_c, 0, 64, 84
1, 270769, Control_c, 0, 64, 85
1, 270784, Control_c, 0, 64, 87
1, 270799, Control_c, 0, 64, 91
1, 270813, Control_c, 0, 64, 94
1, 270828, Control_c, 0, 64, 96
1, 270858, Control_c, 0, 64, 98
1, 270888, Control_c, 0, 64, 102
1, 270902, Control_c, 0, 64, 104
1, 270947, Control_c, 0, 64, 106
1, 270984, Note_on_c, 0, 65, 59
1, 270992, Control_c, 0, 64, 108
1, 271022, Control_c, 0, 64, 111
1, 271066, Control_c, 0, 64, 115
1, 271081, Control_c, 0, 64, 122
1, 271096, Control_c, 0, 64, 127
1, 271415, Control_c, 0, 64, 104
1, 271421, Note_on_c, 0, 71, 61
1, 271424, Note_on_c, 0, 68, 54
1, 271430, Control_c, 0, 64, 87
1, 271445, Control_c, 0, 64, 75
1, 271460, Control_c, 0, 64, 64
1, 271475, Control_c, 0, 64, 47
1, 271478, Note_off_c, 0, 69, 34
1, 271482, Note_off_c, 0, 72, 39
1, 271490, Control_c, 0, 64, 0
1, 271549, Control_c, 0, 64, 46
1, 271563, Control_c, 0, 64, 59
1, 271578, Control_c, 0, 64, 66
1, 271593, Control_c, 0, 64, 71
1, 271608, Control_c, 0, 64, 74
1, 271623, Control_c, 0, 64, 76
1, 271637, Control_c, 0, 64, 77
1, 271652, Control_c, 0, 64, 78
1, 271667, Control_c, 0, 64, 80
1, 271682, Control_c, 0, 64, 82
1, 271697, Control_c, 0, 64, 84
1, 271711, Control_c, 0, 64, 85
1, 271726, Control_c, 0, 64, 87
1, 271741, Control_c, 0, 64, 89
1, 271755, Control_c, 0, 64, 90
1, 271770, Control_c, 0, 64, 92
1, 271785, Control_c, 0, 64, 92
1, 271800, Control_c, 0, 64, 93
1, 271815, Control_c, 0, 64, 94
1, 271830, Control_c, 0, 64, 95
1, 271844, Control_c, 0, 64, 96
1, 271855, Note_on_c, 0, 69, 68
1, 271874, Control_c, 0, 64, 99
1, 271904, Control_c, 0, 64, 101
1, 271919, Control_c, 0, 64, 103
1, 271941, Control_c, 0, 64, 106
1, 271955, Control_c, 0, 64, 111
1, 271970, Control_c, 0, 64, 119
1, 271985, Control_c, 0, 64, 127
1, 272134, Note_off_c, 0, 71, 12
1, 272262, Note_on_c, 0, 64, 72
1, 272295, Note_off_c, 0, 65, 41
1, 272324, Note_off_c, 0, 68, 41
1, 272700, Note_on_c, 0, 68, 64
1, 272704, Control_c, 0, 64, 95
1, 272716, Note_on_c, 0, 72, 70
1, 272719, Control_c, 0, 64, 76
1, 272734, Control_c, 0, 64, 63
1, 272749, Control_c, 0, 64, 44
1, 272760, Note_off_c, 0, 69, 55
1, 272764, Control_c, 0, 64, 0
1, 272809, Control_c, 0, 64, 46
1, 272824, Control_c, 0, 64, 60
1, 272839, Control_c, 0, 64, 67
1, 272854, Control_c, 0, 64, 73
1, 272869, Control_c, 0, 64, 77
1, 272883, Control_c, 0, 64, 78
1, 272898, Control_c, 0, 64, 79
1, 272913, Control_c, 0, 64, 80
1, 272928, Control_c, 0, 64, 82
1, 272943, Control_c, 0, 64, 85
1, 272957, Control_c, 0, 64, 89
1, 272972, Control_c, 0, 64, 95
1, 272987, Control_c, 0, 64, 100
1, 273001, Control_c, 0, 64, 106
1, 273016, Control_c, 0, 64, 114
1, 273031, Control_c, 0, 64, 127
1, 273107, Note_on_c, 0, 69, 65
1, 273142, Note_off_c, 0, 64, 55
1, 273290, Note_off_c, 0, 72, 29
1, 273504, Note_on_c, 0, 63, 62
1, 273528, Control_c, 0, 64, 104
1, 273543, Control_c, 0, 64, 78
1, 273558, Control_c, 0, 64, 64
1, 273573, Control_c, 0, 64, 47
1, 273588, Control_c, 0, 64, 38
1, 273603, Control_c, 0, 64, 42
1, 273618, Control_c, 0, 64, 52
1, 273633, Control_c, 0, 64, 60
1, 273648, Control_c, 0, 64, 65
1, 273663, Control_c, 0, 64, 68
1, 273678, Control_c, 0, 64, 71
1, 273693, Control_c, 0, 64, 73
1, 273707, Control_c, 0, 64, 77
1, 273722, Control_c, 0, 64, 81
1, 273737, Control_c, 0, 64, 85
1, 273751, Control_c, 0, 64, 87
1, 273759, Note_off_c, 0, 69, 37
1, 273766, Control_c, 0, 64, 88
1, 273781, Control_c, 0, 64, 90
1, 273796, Control_c, 0, 64, 92
1, 273811, Control_c, 0, 64, 97
1, 273825, Control_c, 0, 64, 105
1, 273840, Control_c, 0, 64, 122
1, 273855, Control_c, 0, 64, 127
1, 273870, Control_c, 0, 67, 124
1, 273924, Note_on_c, 0, 74, 73
1, 273944, Control_c, 0, 67, 119
1, 273958, Control_c, 0, 67, 112
1, 273973, Control_c, 0, 67, 105
1, 273988, Control_c, 0, 67, 100
1, 274003, Control_c, 0, 67, 96
1, 274018, Control_c, 0, 67, 93
1, 274032, Control_c, 0, 67, 91
1, 274047, Control_c, 0, 67, 87
1, 274062, Control_c, 0, 67, 83
1, 274077, Control_c, 0, 67, 79
1, 274092, Control_c, 0, 67, 76
1, 274106, Control_c, 0, 67, 74
1, 274121, Control_c, 0, 67, 73
1, 274136, Control_c, 0, 67, 73
1, 274150, Control_c, 0, 67, 72
1, 274165, Note_off_c, 0, 63, 38
1, 274165, Control_c, 0, 67, 71
1, 274187, Control_c, 0, 67, 69
1, 274202, Control_c, 0, 67, 69
1, 274232, Control_c, 0, 67, 68
1, 274247, Control_c, 0, 67, 67
1, 274262, Control_c, 0, 67, 67
1, 274276, Control_c, 0, 67, 66
1, 274291, Control_c, 0, 67, 66
1, 274306, Control_c, 0, 67, 65
1, 274321, Control_c, 0, 67, 65
1, 274330, Note_on_c, 0, 69, 66
1, 274336, Control_c, 0, 67, 64
1, 274350, Control_c, 0, 67, 61
1, 274365, Control_c, 0, 67, 60
1, 274380, Control_c, 0, 67, 59
1, 274529, Control_c, 0, 67, 60
1, 274544, Control_c, 0, 67, 61
1, 274559, Control_c, 0, 67, 63
1, 274567, Note_off_c, 0, 74, 37
1, 274618, Control_c, 0, 67, 63
1, 274633, Control_c, 0, 67, 64
1, 274647, Control_c, 0, 67, 65
1, 274700, Note_on_c, 0, 63, 53
1, 274707, Control_c, 0, 67, 65
1, 274721, Control_c, 0, 67, 66
1, 274736, Control_c, 0, 67, 67
1, 274751, Control_c, 0, 64, 81
1, 274763, Note_on_c, 0, 73, 68
1, 274766, Control_c, 0, 64, 56
1, 274781, Control_c, 0, 64, 0
1, 274802, Note_off_c, 0, 68, 51
1, 274810, Note_off_c, 0, 69, 48
1, 274825, Control_c, 0, 67, 67
1, 274855, Control_c, 0, 64, 45
1, 274870, Control_c, 0, 64, 62
1, 274885, Control_c, 0, 64, 70
1, 274899, Control_c, 0, 64, 75
1, 274914, Control_c, 0, 64, 79
1, 274914, Control_c, 0, 67, 68
1, 274936, Control_c, 0, 64, 81
1, 274951, Control_c, 0, 64, 84
1, 274966, Control_c, 0, 64, 88
1, 274980, Control_c, 0, 64, 94
1, 274995, Control_c, 0, 64, 102
1, 275010, Control_c, 0, 64, 119
1, 275025, Control_c, 0, 64, 127
1, 275144, Control_c, 0, 67, 67
1, 275151, Note_off_c, 0, 73, 57
1, 275200, Note_on_c, 0, 68, 55
1, 275225, Note_off_c, 0, 63, 55
1, 275264, Control_c, 0, 67, 67
1, 275337, Control_c, 0, 67, 66
1, 275367, Control_c, 0, 67, 66
1, 275574, Control_c, 0, 67, 66
1, 275600, Note_on_c, 0, 63, 61
1, 275633, Control_c, 0, 67, 67
1, 275648, Control_c, 0, 64, 116
1, 275648, Control_c, 0, 67, 68
1, 275662, Note_on_c, 0, 69, 68
1, 275663, Control_c, 0, 64, 85
1, 275685, Control_c, 0, 64, 75
1, 275700, Control_c, 0, 64, 70
1, 275715, Control_c, 0, 64, 69
1, 275729, Control_c, 0, 64, 70
1, 275740, Note_off_c, 0, 68, 36
1, 275744, Control_c, 0, 64, 71
1, 275759, Control_c, 0, 64, 74
1, 275759, Control_c, 0, 67, 68
1, 275774, Control_c, 0, 64, 77
1, 275774, Control_c, 0, 67, 69
1, 275789, Control_c, 0, 64, 81
1, 275803, Control_c, 0, 64, 84
1, 275818, Control_c, 0, 64, 86
1, 275833, Control_c, 0, 64, 88
1, 275848, Control_c, 0, 64, 92
1, 275848, Control_c, 0, 67, 70
1, 275863, Control_c, 0, 64, 98
1, 275863, Control_c, 0, 67, 71
1, 275878, Control_c, 0, 64, 108
1, 275878, Control_c, 0, 67, 72
1, 275893, Control_c, 0, 64, 127
1, 275937, Control_c, 0, 67, 73
1, 275952, Control_c, 0, 67, 73
1, 275967, Control_c, 0, 67, 74
1, 275997, Control_c, 0, 67, 74
1, 276012, Control_c, 0, 67, 75
1, 276027, Control_c, 0, 67, 76
1, 276042, Control_c, 0, 67, 79
1, 276056, Control_c, 0, 67, 83
1, 276062, Note_on_c, 0, 72, 75
1, 276071, Control_c, 0, 67, 85
1, 276079, Note_on_c, 0, 68, 61
1, 276116, Control_c, 0, 67, 86
1, 276131, Control_c, 0, 67, 87
1, 276145, Control_c, 0, 67, 91
1, 276160, Control_c, 0, 67, 95
1, 276175, Control_c, 0, 67, 96
1, 276324, Control_c, 0, 67, 98
1, 276450, Control_c, 0, 67, 95
1, 276494, Control_c, 0, 67, 96
1, 276550, Note_on_c, 0, 74, 74
1, 276553, Control_c, 0, 64, 100
1, 276561, Note_on_c, 0, 65, 54
1, 276567, Note_off_c, 0, 72, 62
1, 276568, Control_c, 0, 64, 76
1, 276568, Control_c, 0, 67, 98
1, 276583, Control_c, 0, 64, 63
1, 276583, Control_c, 0, 67, 100
1, 276593, Note_off_c, 0, 63, 56
1, 276598, Control_c, 0, 64, 47
1, 276598, Control_c, 0, 67, 104
1, 276613, Control_c, 0, 64, 0
1, 276627, Control_c, 0, 67, 106
1, 276642, Control_c, 0, 64, 42
1, 276642, Control_c, 0, 67, 108
1, 276657, Control_c, 0, 64, 57
1, 276657, Control_c, 0, 67, 114
1, 276671, Control_c, 0, 64, 66
1, 276671, Control_c, 0, 67, 121
1, 276686, Control_c, 0, 64, 72
1, 276686, Control_c, 0, 67, 126
1, 276701, Control_c, 0, 64, 79
1, 276716, Control_c, 0, 64, 86
1, 276731, Control_c, 0, 64, 91
1, 276745, Control_c, 0, 64, 95
1, 276760, Control_c, 0, 64, 101
1, 276775, Control_c, 0, 64, 113
1, 276790, Control_c, 0, 64, 127
1, 277132, Control_c, 0, 64, 100
1, 277147, Control_c, 0, 64, 84
1, 277150, Note_on_c, 0, 76, 65
1, 277159, Note_on_c, 0, 61, 45
1, 277161, Note_off_c, 0, 74, 57
1, 277162, Control_c, 0, 64, 71
1, 277183, Control_c, 0, 64, 59
1, 277198, Control_c, 0, 64, 37
1, 277205, Note_off_c, 0, 65, 39
1, 277213, Control_c, 0, 64, 0
1, 277317, Control_c, 0, 64, 49
1, 277332, Control_c, 0, 64, 62
1, 277347, Control_c, 0, 64, 67
1, 277362, Control_c, 0, 64, 72
1, 277376, Control_c, 0, 64, 75
1, 277391, Control_c, 0, 64, 78
1, 277406, Control_c, 0, 64, 83
1, 277421, Control_c, 0, 64, 91
1, 277433, Note_off_c, 0, 68, 53
1, 277436, Control_c, 0, 64, 106
1, 277450, Control_c, 0, 64, 127
1, 277475, Note_off_c, 0, 69, 37
1, 277513, Note_off_c, 0, 76, 51
1, 277535, Note_off_c, 0, 61, 60
1, 278456, Note_on_c, 0, 56, 33
1, 278464, Note_on_c, 0, 93, 38
1, 278465, Note_on_c, 0, 45, 31
1, 278474, Note_on_c, 0, 82, 35
1, 278566, Note_off_c, 0, 93, 53
1, 278587, Note_off_c, 0, 82, 38
1, 278634, Note_off_c, 0, 56, 37
1, 278649, Note_off_c, 0, 45, 37
1, 279919, Control_c, 0, 64, 113
1, 279934, Control_c, 0, 64, 104
1, 279949, Control_c, 0, 64, 94
1, 279964, Control_c, 0, 64, 86
1, 279967, Note_on_c, 0, 69, 53
1, 279978, Control_c, 0, 64, 79
1, 279994, Control_c, 0, 64, 71
1, 280009, Control_c, 0, 64, 64
1, 280024, Control_c, 0, 64, 52
1, 280039, Control_c, 0, 64, 0
1, 280194, Control_c, 0, 67, 123
1, 280209, Control_c, 0, 67, 121
1, 280283, Control_c, 0, 67, 119
1, 280327, Control_c, 0, 64, 35
1, 280342, Control_c, 0, 64, 43
1, 280357, Control_c, 0, 64, 47
1, 280372, Control_c, 0, 64, 52
1, 280387, Control_c, 0, 64, 56
1, 280401, Control_c, 0, 64, 59
1, 280401, Control_c, 0, 67, 121
1, 280416, Control_c, 0, 64, 59
1, 280445, Control_c, 0, 64, 60
1, 280460, Control_c, 0, 64, 62
1, 280475, Control_c, 0, 64, 64
1, 280490, Control_c, 0, 64, 66
1, 280505, Control_c, 0, 64, 68
1, 280519, Note_on_c, 0, 74, 60
1, 280519, Control_c, 0, 64, 69
1, 280534, Control_c, 0, 64, 70
1, 280549, Control_c, 0, 64, 72
1, 280564, Control_c, 0, 64, 76
1, 280579, Control_c, 0, 64, 82
1, 280593, Control_c, 0, 64, 86
1, 280608, Control_c, 0, 64, 90
1, 280623, Control_c, 0, 64, 95
1, 280623, Control_c, 0, 67, 119
1, 280638, Control_c, 0, 64, 108
1, 280653, Control_c, 0, 64, 127
1, 280653, Control_c, 0, 67, 122
1, 280832, Control_c, 0, 67, 124
1, 280928, Control_c, 0, 67, 127
1, 280957, Note_off_c, 0, 69, 59
1, 280978, Note_on_c, 0, 63, 55
1, 281363, Note_on_c, 0, 68, 63
1, 281368, Note_on_c, 0, 69, 70
1, 281372, Control_c, 0, 64, 117
1, 281386, Control_c, 0, 64, 86
1, 281401, Control_c, 0, 64, 70
1, 281416, Control_c, 0, 64, 59
1, 281431, Control_c, 0, 64, 44
1, 281446, Control_c, 0, 64, 36
1, 281461, Control_c, 0, 64, 41
1, 281461, Note_off_c, 0, 74, 51
1, 281476, Control_c, 0, 64, 50
1, 281491, Control_c, 0, 64, 60
1, 281506, Control_c, 0, 64, 66
1, 281521, Control_c, 0, 64, 71
1, 281535, Control_c, 0, 64, 74
1, 281550, Control_c, 0, 64, 75
1, 281565, Control_c, 0, 64, 76
1, 281580, Control_c, 0, 64, 79
1, 281580, Control_c, 0, 67, 125
1, 281596, Control_c, 0, 64, 84
1, 281611, Control_c, 0, 64, 90
1, 281626, Control_c, 0, 64, 98
1, 281640, Control_c, 0, 64, 112
1, 281655, Control_c, 0, 64, 127
1, 281678, Control_c, 0, 67, 123
1, 281789, Note_on_c, 0, 76, 84
1, 281855, Control_c, 0, 67, 120
1, 281924, Note_off_c, 0, 69, 36
1, 281944, Control_c, 0, 67, 118
1, 282003, Control_c, 0, 67, 116
1, 282018, Control_c, 0, 67, 114
1, 282033, Control_c, 0, 67, 109
1, 282048, Control_c, 0, 67, 103
1, 282171, Note_on_c, 0, 61, 63
1, 282210, Control_c, 0, 64, 94
1, 282215, Note_on_c, 0, 69, 78
1, 282221, Note_off_c, 0, 63, 54
1, 282225, Control_c, 0, 64, 75
1, 282239, Control_c, 0, 64, 65
1, 282245, Note_off_c, 0, 76, 61
1, 282254, Control_c, 0, 64, 62
1, 282269, Control_c, 0, 64, 65
1, 282284, Control_c, 0, 64, 68
1, 282298, Control_c, 0, 64, 73
1, 282313, Control_c, 0, 64, 78
1, 282328, Control_c, 0, 64, 82
1, 282343, Control_c, 0, 64, 85
1, 282358, Control_c, 0, 64, 89
1, 282373, Control_c, 0, 64, 96
1, 282388, Control_c, 0, 64, 108
1, 282403, Control_c, 0, 64, 127
1, 282557, Note_off_c, 0, 68, 41
1, 282574, Control_c, 0, 67, 101
1, 282647, Note_on_c, 0, 78, 85
1, 282662, Control_c, 0, 67, 99
1, 282677, Control_c, 0, 67, 96
1, 282692, Control_c, 0, 67, 94
1, 282722, Control_c, 0, 67, 93
1, 282737, Control_c, 0, 67, 90
1, 282752, Control_c, 0, 67, 82
1, 282766, Control_c, 0, 67, 77
1, 282781, Control_c, 0, 67, 75
1, 282796, Control_c, 0, 67, 74
1, 282811, Control_c, 0, 67, 72
1, 282826, Control_c, 0, 67, 67
1, 282840, Control_c, 0, 67, 60
1, 282855, Control_c, 0, 67, 56
1, 282870, Control_c, 0, 67, 56
1, 282885, Control_c, 0, 67, 55
1, 282889, Note_off_c, 0, 69, 48
1, 282900, Control_c, 0, 67, 51
1, 282914, Control_c, 0, 67, 45
1, 282929, Control_c, 0, 67, 41
1, 282944, Control_c, 0, 67, 39
1, 282958, Control_c, 0, 67, 37
1, 282973, Control_c, 0, 67, 33
1, 282988, Control_c, 0, 67, 26
1, 283003, Control_c, 0, 67, 0
1, 283053, Note_on_c, 0, 68, 81
1, 283152, Note_off_c, 0, 61, 39
1, 283437, Note_on_c, 0, 59, 78
1, 283441, Control_c, 0, 64, 93
1, 283456, Control_c, 0, 64, 68
1, 283461, Note_off_c, 0, 68, 62
1, 283470, Control_c, 0, 64, 54
1, 283485, Control_c, 0, 64, 48
1, 283500, Control_c, 0, 64, 53
1, 283515, Control_c, 0, 64, 62
1, 283530, Control_c, 0, 64, 72
1, 283545, Control_c, 0, 64, 84
1, 283559, Control_c, 0, 64, 98
1, 283574, Control_c, 0, 64, 112
1, 283589, Control_c, 0, 64, 127
1, 283807, Note_on_c, 0, 68, 79
1, 283841, Control_c, 0, 64, 89
1, 283842, Note_on_c, 0, 69, 80
1, 283856, Control_c, 0, 64, 66
1, 283870, Control_c, 0, 64, 46
1, 283885, Control_c, 0, 64, 0
1, 283900, Control_c, 0, 64, 34
1, 283920, Note_off_c, 0, 78, 54
1, 283923, Control_c, 0, 64, 49
1, 283937, Control_c, 0, 64, 64
1, 283952, Control_c, 0, 64, 73
1, 283967, Control_c, 0, 64, 81
1, 283982, Control_c, 0, 64, 87
1, 283998, Control_c, 0, 64, 90
1, 284012, Control_c, 0, 64, 94
1, 284027, Control_c, 0, 64, 102
1, 284042, Control_c, 0, 64, 127
1, 284267, Note_on_c, 0, 79, 94
1, 284278, Note_off_c, 0, 59, 61
1, 284385, Note_off_c, 0, 69, 56
1, 284729, Note_on_c, 0, 58, 71
1, 284730, Control_c, 0, 64, 96
1, 284737, Note_on_c, 0, 69, 79
1, 284744, Control_c, 0, 64, 71
1, 284759, Control_c, 0, 64, 58
1, 284774, Control_c, 0, 64, 54
1, 284790, Control_c, 0, 64, 59
1, 284805, Control_c, 0, 64, 63
1, 284820, Control_c, 0, 64, 68
1, 284834, Control_c, 0, 64, 82
1, 284841, Note_off_c, 0, 79, 63
1, 284849, Control_c, 0, 64, 108
1, 284864, Control_c, 0, 64, 127
1, 285297, Note_on_c, 0, 57, 75
1, 285303, Note_off_c, 0, 58, 59
1, 285323, Control_c, 0, 64, 99
1, 285330, Note_on_c, 0, 80, 89
1, 285338, Control_c, 0, 64, 76
1, 285352, Control_c, 0, 64, 59
1, 285367, Control_c, 0, 64, 0
1, 285479, Control_c, 0, 64, 47
1, 285494, Control_c, 0, 64, 60
1, 285494, Control_c, 0, 67, 19
1, 285508, Control_c, 0, 64, 68
1, 285508, Control_c, 0, 67, 25
1, 285523, Control_c, 0, 64, 76
1, 285538, Control_c, 0, 64, 84
1, 285553, Control_c, 0, 64, 91
1, 285567, Control_c, 0, 64, 103
1, 285583, Control_c, 0, 64, 127
1, 285583, Control_c, 0, 67, 30
1, 285598, Control_c, 0, 67, 37
1, 285613, Control_c, 0, 67, 43
1, 285618, Note_off_c, 0, 68, 61
1, 285628, Control_c, 0, 67, 43
1, 285637, Note_off_c, 0, 69, 37
1, 285672, Control_c, 0, 67, 47
1, 285687, Control_c, 0, 67, 59
1, 285702, Control_c, 0, 67, 74
1, 285717, Control_c, 0, 67, 79
1, 285724, Note_off_c, 0, 57, 60
1, 285727, Note_off_c, 0, 80, 61
1, 285731, Control_c, 0, 67, 79
1, 285761, Control_c, 0, 67, 82
1, 285776, Control_c, 0, 67, 87
1, 285790, Control_c, 0, 67, 92
1, 285850, Control_c, 0, 67, 94
1, 285864, Control_c, 0, 67, 98
1, 285938, Control_c, 0, 67, 100
1, 286132, Control_c, 0, 67, 102
1, 286147, Control_c, 0, 67, 104
1, 286243, Control_c, 0, 67, 106
1, 286496, Control_c, 0, 67, 108
1, 286511, Control_c, 0, 67, 111
1, 286541, Note_on_c, 0, 53, 47
1, 286546, Note_on_c, 0, 95, 71
1, 286547, Note_on_c, 0, 42, 44
1, 286556, Note_on_c, 0, 84, 66
1, 286597, Note_off_c, 0, 84, 62
1, 286630, Note_off_c, 0, 95, 58
1, 286658, Note_off_c, 0, 53, 56
1, 286858, Note_off_c, 0, 42, 39
1, 287185, Control_c, 0, 67, 108
1, 287274, Control_c, 0, 67, 105
1, 287348, Control_c, 0, 67, 103
1, 287363, Control_c, 0, 67, 101
1, 287408, Control_c, 0, 67, 99
1, 287423, Control_c, 0, 67, 96
1, 287437, Control_c, 0, 67, 88
1, 287452, Control_c, 0, 67, 76
1, 287467, Control_c, 0, 67, 64
1, 287482, Control_c, 0, 67, 51
1, 287497, Control_c, 0, 67, 40
1, 287511, Control_c, 0, 67, 30
1, 287526, Control_c, 0, 67, 21
1, 287541, Control_c, 0, 67, 0
1, 287785, Control_c, 0, 64, 92
1, 287800, Control_c, 0, 64, 67
1, 287815, Control_c, 0, 64, 37
1, 287829, Control_c, 0, 64, 0
1, 287842, Note_on_c, 0, 63, 61
1, 287874, Control_c, 0, 64, 43
1, 287889, Control_c, 0, 64, 64
1, 287903, Control_c, 0, 64, 77
1, 287918, Control_c, 0, 64, 89
1, 287933, Control_c, 0, 64, 97
1, 287948, Control_c, 0, 64, 107
1, 287962, Control_c, 0, 64, 127
1, 287965, Note_on_c, 0, 65, 63
1, 288024, Note_on_c, 0, 66, 75
1, 288037, Note_off_c, 0, 65, 62
1, 288072, Note_on_c, 0, 67, 75
1, 288075, Note_off_c, 0, 66, 63
1, 288102, Note_on_c, 0, 68, 70
1, 288135, Note_off_c, 0, 67, 63
1, 288140, Note_on_c, 0, 69, 68
1, 288177, Note_on_c, 0, 70, 73
1, 288212, Note_off_c, 0, 69, 64
1, 288218, Note_off_c, 0, 68, 55
1, 288248, Note_on_c, 0, 71, 68
1, 288280, Note_off_c, 0, 70, 65
1, 288289, Control_c, 0, 64, 85
1, 288304, Control_c, 0, 64, 65
1, 288318, Control_c, 0, 64, 0
1, 288333, Note_on_c, 0, 74, 78
1, 288360, Note_off_c, 0, 71, 64
1, 288459, Control_c, 0, 64, 37
1, 288474, Control_c, 0, 64, 57
1, 288489, Control_c, 0, 64, 67
1, 288503, Control_c, 0, 64, 74
1, 288518, Control_c, 0, 64, 81
1, 288533, Control_c, 0, 64, 88
1, 288533, Control_c, 0, 67, 19
1, 288548, Control_c, 0, 64, 103
1, 288563, Control_c, 0, 64, 127
1, 288578, Note_off_c, 0, 74, 64
1, 288594, Note_off_c, 0, 63, 63
1, 288622, Control_c, 0, 67, 22
1, 288770, Control_c, 0, 67, 20
1, 288918, Note_on_c, 0, 80, 76
1, 288919, Note_on_c, 0, 57, 55
1, 288949, Control_c, 0, 67, 0
1, 288994, Control_c, 0, 67, 19
1, 289020, Note_off_c, 0, 57, 60
1, 289021, Note_off_c, 0, 80, 65
1, 289038, Control_c, 0, 67, 0
1, 289502, Note_on_c, 0, 42, 52
1, 289507, Note_on_c, 0, 95, 70
1, 289514, Note_on_c, 0, 53, 52
1, 289518, Note_on_c, 0, 84, 68
1, 289549, Note_off_c, 0, 84, 64
1, 289563, Note_off_c, 0, 95, 64
1, 289603, Note_off_c, 0, 42, 62
1, 289615, Note_off_c, 0, 53, 56
1, 290027, Note_on_c, 0, 74, 76
1, 290034, Note_on_c, 0, 69, 67
1, 290036, Note_on_c, 0, 68, 68
1, 290037, Note_on_c, 0, 63, 64
1, 290127, Note_off_c, 0, 68, 63
1, 290132, Note_off_c, 0, 69, 62
1, 290156, Note_off_c, 0, 74, 63
1, 290168, Note_off_c, 0, 63, 63
1, 290213, Note_on_c, 0, 69, 31
1, 290275, Note_off_c, 0, 69, 41
1, 290507, Note_on_c, 0, 57, 79
1, 290512, Note_on_c, 0, 80, 94
1, 290609, Note_off_c, 0, 57, 61
1, 290639, Note_off_c, 0, 80, 67
1, 290988, Control_c, 0, 64, 102
1, 290990, Note_on_c, 0, 42, 76
1, 290994, Note_on_c, 0, 53, 80
1, 290997, Note_on_c, 0, 95, 89
1, 291003, Control_c, 0, 64, 90
1, 291003, Note_on_c, 0, 84, 91
1, 291018, Control_c, 0, 64, 89
1, 291021, Poly_aftertouch_c, 0, 51, 127
1, 291033, Control_c, 0, 64, 91
1, 291047, Control_c, 0, 64, 98
1, 291062, Control_c, 0, 64, 127
1, 291064, Note_off_c, 0, 42, 62
1, 291066, Poly_aftertouch_c, 0, 51, 0
1, 291066, Note_off_c, 0, 84, 60
1, 291071, Note_off_c, 0, 95, 65
1, 291106, Note_off_c, 0, 53, 64
1, 291467, Note_on_c, 0, 68, 85
1, 291467, Note_on_c, 0, 74, 91
1, 291471, Note_on_c, 0, 63, 80
1, 291474, Note_on_c, 0, 69, 81
1, 291540, Note_off_c, 0, 68, 64
1, 291574, Note_off_c, 0, 63, 64
1, 291584, Note_off_c, 0, 74, 65
1, 291711, Note_off_c, 0, 69, 58
1, 291913, Note_on_c, 0, 57, 87
1, 291923, Note_on_c, 0, 80, 106
1, 291982, Note_off_c, 0, 57, 61
1, 292021, Note_off_c, 0, 80, 62
1, 292377, Note_on_c, 0, 42, 85
1, 292380, Note_on_c, 0, 53, 95
1, 292383, Control_c, 0, 64, 106
1, 292391, Note_on_c, 0, 95, 95
1, 292394, Note_on_c, 0, 84, 100
1, 292398, Control_c, 0, 64, 67
1, 292413, Control_c, 0, 64, 57
1, 292427, Control_c, 0, 64, 61
1, 292442, Control_c, 0, 64, 68
1, 292454, Note_off_c, 0, 42, 63
1, 292457, Control_c, 0, 64, 84
1, 292461, Note_off_c, 0, 95, 65
1, 292471, Control_c, 0, 64, 127
1, 292483, Note_off_c, 0, 53, 64
1, 292485, Note_off_c, 0, 84, 63
1, 292823, Note_on_c, 0, 74, 94
1, 292824, Note_on_c, 0, 68, 95
1, 292824, Note_on_c, 0, 63, 82
1, 292829, Note_on_c, 0, 69, 89
1, 292873, Note_off_c, 0, 68, 69
1, 292911, Note_off_c, 0, 63, 64
1, 293039, Note_off_c, 0, 69, 60
1, 293057, Note_off_c, 0, 74, 62
1, 293272, Note_on_c, 0, 53, 98
1, 293273, Note_on_c, 0, 42, 94
1, 293279, Control_c, 0, 64, 96
1, 293293, Control_c, 0, 64, 53
1, 293308, Control_c, 0, 64, 0
1, 293367, Control_c, 0, 64, 58
1, 293382, Control_c, 0, 64, 73
1, 293397, Control_c, 0, 64, 95
1, 293412, Control_c, 0, 64, 127
1, 293742, Note_off_c, 0, 42, 61
1, 293754, Note_on_c, 0, 84, 96
1, 293754, Note_on_c, 0, 95, 98
1, 293781, Note_off_c, 0, 53, 60
1, 293814, Poly_aftertouch_c, 0, 49, 127
1, 293844, Poly_aftertouch_c, 0, 49, 0
1, 294229, Note_on_c, 0, 65, 94
1, 294234, Note_on_c, 0, 54, 82
1, 294250, Control_c, 0, 64, 82
1, 294265, Control_c, 0, 64, 56
1, 294280, Control_c, 0, 64, 0
1, 294283, Note_off_c, 0, 95, 62
1, 294321, Note_off_c, 0, 84, 59
1, 294324, Control_c, 0, 64, 58
1, 294339, Control_c, 0, 64, 71
1, 294354, Control_c, 0, 64, 91
1, 294370, Control_c, 0, 64, 127
1, 294736, Note_on_c, 0, 83, 96
1, 294739, Note_on_c, 0, 72, 92
1, 294800, Note_off_c, 0, 65, 60
1, 294869, Note_off_c, 0, 54, 60
1, 295370, Note_on_c, 0, 53, 80
1, 295376, Note_on_c, 0, 42, 77
1, 295393, Control_c, 0, 64, 71
1, 295393, Control_c, 0, 67, 19
1, 295408, Control_c, 0, 64, 0
1, 295408, Control_c, 0, 67, 21
1, 295423, Control_c, 0, 67, 27
1, 295438, Control_c, 0, 67, 34
1, 295452, Control_c, 0, 67, 37
1, 295496, Control_c, 0, 67, 38
1, 295511, Control_c, 0, 64, 45
1, 295511, Control_c, 0, 67, 43
1, 295526, Control_c, 0, 64, 58
1, 295526, Control_c, 0, 67, 54
1, 295541, Control_c, 0, 64, 65
1, 295541, Control_c, 0, 67, 61
1, 295556, Control_c, 0, 64, 71
1, 295556, Control_c, 0, 67, 61
1, 295570, Control_c, 0, 64, 76
1, 295585, Control_c, 0, 64, 79
1, 295600, Control_c, 0, 64, 82
1, 295600, Control_c, 0, 67, 64
1, 295608, Note_off_c, 0, 83, 50
1, 295614, Note_off_c, 0, 72, 52
1, 295614, Control_c, 0, 64, 85
1, 295614, Control_c, 0, 67, 73
1, 295629, Control_c, 0, 64, 90
1, 295629, Control_c, 0, 67, 78
1, 295644, Control_c, 0, 64, 99
1, 295659, Control_c, 0, 64, 124
1, 295659, Control_c, 0, 67, 77
1, 295674, Control_c, 0, 64, 127
1, 295689, Control_c, 0, 67, 78
1, 295704, Control_c, 0, 67, 80
1, 295719, Control_c, 0, 67, 80
1, 295748, Control_c, 0, 67, 80
1, 295793, Control_c, 0, 67, 81
1, 295822, Control_c, 0, 67, 80
1, 295837, Control_c, 0, 67, 79
1, 295882, Control_c, 0, 67, 79
1, 295918, Control_c, 0, 67, 79
1, 295933, Control_c, 0, 67, 78
1, 295963, Control_c, 0, 67, 79
1, 295979, Control_c, 0, 67, 80
1, 296018, Note_on_c, 0, 83, 92
1, 296023, Control_c, 0, 67, 79
1, 296026, Note_on_c, 0, 72, 78
1, 296038, Control_c, 0, 64, 115
1, 296053, Control_c, 0, 64, 82
1, 296053, Control_c, 0, 67, 80
1, 296067, Control_c, 0, 64, 70
1, 296067, Control_c, 0, 67, 80
1, 296082, Control_c, 0, 64, 67
1, 296097, Control_c, 0, 64, 70
1, 296112, Control_c, 0, 64, 73
1, 296112, Control_c, 0, 67, 79
1, 296127, Control_c, 0, 64, 76
1, 296142, Control_c, 0, 64, 79
1, 296142, Control_c, 0, 67, 80
1, 296157, Control_c, 0, 64, 83
1, 296157, Control_c, 0, 67, 81
1, 296172, Control_c, 0, 64, 91
1, 296172, Control_c, 0, 67, 82
1, 296187, Control_c, 0, 64, 106
1, 296201, Control_c, 0, 64, 127
1, 296201, Control_c, 0, 67, 81
1, 296216, Control_c, 0, 67, 81
1, 296245, Control_c, 0, 67, 81
1, 296251, Note_off_c, 0, 72, 59
1, 296260, Control_c, 0, 67, 82
1, 296267, Note_off_c, 0, 83, 55
1, 296305, Control_c, 0, 67, 82
1, 296334, Control_c, 0, 67, 82
1, 296349, Control_c, 0, 67, 83
1, 296393, Control_c, 0, 67, 82
1, 296408, Control_c, 0, 67, 82
1, 296437, Control_c, 0, 67, 84
1, 296482, Control_c, 0, 67, 83
1, 296526, Control_c, 0, 67, 84
1, 296527, Note_on_c, 0, 81, 80
1, 296535, Note_on_c, 0, 70, 75
1, 296541, Control_c, 0, 64, 112
1, 296541, Control_c, 0, 67, 84
1, 296556, Control_c, 0, 64, 77
1, 296571, Control_c, 0, 64, 61
1, 296571, Control_c, 0, 67, 84
1, 296586, Control_c, 0, 64, 39
1, 296601, Control_c, 0, 64, 43
1, 296616, Control_c, 0, 64, 59
1, 296616, Control_c, 0, 67, 85
1, 296631, Control_c, 0, 64, 70
1, 296631, Control_c, 0, 67, 86
1, 296652, Control_c, 0, 64, 81
1, 296652, Control_c, 0, 67, 87
1, 296667, Control_c, 0, 64, 90
1, 296682, Control_c, 0, 64, 94
1, 296697, Control_c, 0, 64, 99
1, 296712, Control_c, 0, 64, 104
1, 296714, Note_off_c, 0, 70, 54
1, 296726, Control_c, 0, 64, 115
1, 296726, Control_c, 0, 67, 88
1, 296741, Control_c, 0, 64, 127
1, 296741, Control_c, 0, 67, 90
1, 296772, Control_c, 0, 67, 89
1, 296816, Control_c, 0, 67, 90
1, 296825, Note_off_c, 0, 81, 55
1, 296831, Control_c, 0, 67, 91
1, 296846, Control_c, 0, 67, 92
1, 296875, Control_c, 0, 67, 91
1, 296920, Control_c, 0, 67, 92
1, 296950, Control_c, 0, 67, 91
1, 296965, Control_c, 0, 67, 90
1, 296994, Control_c, 0, 67, 91
1, 297009, Control_c, 0, 67, 92
1, 297033, Note_on_c, 0, 79, 77
1, 297039, Control_c, 0, 64, 111
1, 297039, Control_c, 0, 67, 91
1, 297045, Note_on_c, 0, 68, 67
1, 297054, Control_c, 0, 64, 78
1, 297054, Control_c, 0, 67, 90
1, 297068, Control_c, 0, 64, 65
1, 297083, Control_c, 0, 64, 59
1, 297083, Control_c, 0, 67, 91
1, 297098, Control_c, 0, 64, 61
1, 297098, Control_c, 0, 67, 92
1, 297113, Control_c, 0, 64, 65
1, 297128, Control_c, 0, 64, 70
1, 297142, Control_c, 0, 64, 76
1, 297142, Control_c, 0, 67, 91
1, 297157, Control_c, 0, 64, 84
1, 297160, Note_off_c, 0, 42, 61
1, 297172, Control_c, 0, 64, 91
1, 297172, Control_c, 0, 67, 92
1, 297187, Control_c, 0, 64, 98
1, 297187, Control_c, 0, 67, 93
1, 297197, Note_off_c, 0, 53, 59
1, 297202, Control_c, 0, 64, 103
1, 297216, Control_c, 0, 64, 109
1, 297231, Control_c, 0, 64, 115
1, 297231, Control_c, 0, 67, 92
1, 297246, Control_c, 0, 64, 127
1, 297246, Control_c, 0, 67, 91
1, 297252, Note_off_c, 0, 68, 54
1, 297275, Control_c, 0, 67, 92
1, 297290, Control_c, 0, 67, 94
1, 297323, Note_off_c, 0, 79, 59
1, 297334, Control_c, 0, 67, 93
1, 297349, Control_c, 0, 67, 93
1, 297379, Control_c, 0, 67, 93
1, 297416, Control_c, 0, 67, 93
1, 297431, Control_c, 0, 67, 92
1, 297461, Control_c, 0, 67, 93
1, 297475, Control_c, 0, 67, 94
1, 297490, Control_c, 0, 67, 94
1, 297505, Control_c, 0, 67, 94
1, 297520, Control_c, 0, 67, 93
1, 297565, Control_c, 0, 67, 94
1, 297569, Note_on_c, 0, 77, 65
1, 297580, Note_on_c, 0, 66, 57
1, 297580, Control_c, 0, 64, 114
1, 297580, Control_c, 0, 67, 94
1, 297582, Note_on_c, 0, 57, 52
1, 297585, Note_on_c, 0, 46, 47
1, 297595, Control_c, 0, 64, 78
1, 297610, Control_c, 0, 64, 61
1, 297610, Control_c, 0, 67, 94
1, 297625, Control_c, 0, 64, 0
1, 297625, Control_c, 0, 67, 93
1, 297654, Control_c, 0, 67, 94
1, 297669, Control_c, 0, 67, 95
1, 297683, Control_c, 0, 64, 56
1, 297683, Control_c, 0, 67, 99
1, 297698, Control_c, 0, 64, 70
1, 297713, Control_c, 0, 64, 85
1, 297728, Control_c, 0, 64, 103
1, 297743, Control_c, 0, 64, 109
1, 297743, Control_c, 0, 67, 101
1, 297757, Control_c, 0, 64, 111
1, 297772, Control_c, 0, 64, 117
1, 297772, Control_c, 0, 67, 107
1, 297787, Control_c, 0, 64, 127
1, 297796, Note_off_c, 0, 77, 55
1, 297814, Note_off_c, 0, 66, 37
1, 297847, Control_c, 0, 67, 109
1, 297862, Control_c, 0, 67, 112
1, 297877, Control_c, 0, 67, 116
1, 298053, Control_c, 0, 67, 118
1, 298124, Note_on_c, 0, 79, 70
1, 298145, Note_on_c, 0, 68, 56
1, 298150, Control_c, 0, 64, 109
1, 298150, Control_c, 0, 67, 120
1, 298164, Control_c, 0, 64, 81
1, 298164, Control_c, 0, 67, 123
1, 298179, Control_c, 0, 64, 68
1, 298194, Control_c, 0, 64, 64
1, 298202, Note_off_c, 0, 46, 25
1, 298209, Control_c, 0, 64, 65
1, 298223, Control_c, 0, 64, 69
1, 298238, Control_c, 0, 64, 74
1, 298238, Control_c, 0, 67, 127
1, 298253, Control_c, 0, 64, 81
1, 298268, Control_c, 0, 64, 89
1, 298271, Note_off_c, 0, 79, 64
1, 298283, Control_c, 0, 64, 98
1, 298297, Control_c, 0, 64, 103
1, 298312, Control_c, 0, 64, 107
1, 298316, Note_off_c, 0, 57, 46
1, 298327, Control_c, 0, 64, 111
1, 298342, Control_c, 0, 64, 113
1, 298373, Control_c, 0, 64, 117
1, 298387, Control_c, 0, 64, 127
1, 298404, Note_off_c, 0, 68, 49
1, 298713, Control_c, 0, 64, 122
1, 298720, Note_on_c, 0, 74, 62
1, 298728, Control_c, 0, 64, 95
1, 298743, Control_c, 0, 64, 77
1, 298748, Note_on_c, 0, 63, 36
1, 298758, Control_c, 0, 64, 62
1, 298773, Control_c, 0, 64, 0
1, 298861, Control_c, 0, 64, 34
1, 298876, Control_c, 0, 64, 57
1, 298899, Control_c, 0, 64, 67
1, 298914, Control_c, 0, 64, 72
1, 298928, Control_c, 0, 64, 74
1, 298943, Control_c, 0, 64, 75
1, 298958, Control_c, 0, 64, 76
1, 298972, Control_c, 0, 64, 77
1, 298987, Control_c, 0, 64, 80
1, 299002, Control_c, 0, 64, 84
1, 299017, Control_c, 0, 64, 87
1, 299032, Control_c, 0, 64, 91
1, 299046, Control_c, 0, 64, 95
1, 299061, Control_c, 0, 64, 98
1, 299070, Note_off_c, 0, 63, 59
1, 299076, Control_c, 0, 64, 100
1, 299106, Control_c, 0, 64, 104
1, 299120, Control_c, 0, 64, 107
1, 299135, Control_c, 0, 64, 111
1, 299150, Control_c, 0, 64, 114
1, 299166, Control_c, 0, 64, 119
1, 299181, Control_c, 0, 64, 127
1, 299215, Note_off_c, 0, 74, 61
1, 299248, Note_on_c, 0, 67, 45
1, 299257, Note_on_c, 0, 56, 45
1, 299359, Note_off_c, 0, 56, 54
1, 299408, Note_off_c, 0, 67, 36
1, 299758, Note_on_c, 0, 91, 70
1, 299772, Note_on_c, 0, 58, 44
1, 299779, Note_on_c, 0, 80, 56
1, 299781, Control_c, 0, 64, 83
1, 299782, Note_on_c, 0, 69, 41
1, 299795, Control_c, 0, 64, 66
1, 299810, Control_c, 0, 64, 48
1, 299825, Control_c, 0, 64, 0
1, 299855, Control_c, 0, 64, 34
1, 299869, Control_c, 0, 64, 60
1, 299884, Control_c, 0, 64, 71
1, 299899, Control_c, 0, 64, 82
1, 299914, Control_c, 0, 64, 89
1, 299929, Note_off_c, 0, 58, 61
1, 299929, Control_c, 0, 64, 91
1, 299943, Control_c, 0, 64, 93
1, 299959, Control_c, 0, 64, 98
1, 299963, Note_off_c, 0, 69, 56
1, 299974, Control_c, 0, 64, 108
1, 299989, Control_c, 0, 64, 127
1, 300274, Note_off_c, 0, 91, 39
1, 300276, Note_on_c, 0, 61, 44
1, 300276, Note_on_c, 0, 72, 43
1, 300398, Note_off_c, 0, 80, 49
1, 300427, Note_off_c, 0, 61, 37
1, 300430, Note_off_c, 0, 72, 35
1, 300816, Note_on_c, 0, 86, 53
1, 300827, Control_c, 0, 64, 122
1, 300829, Note_on_c, 0, 75, 37
1, 300831, Note_on_c, 0, 74, 40
1, 300837, Note_on_c, 0, 63, 38
1, 300841, Control_c, 0, 64, 90
1, 300856, Control_c, 0, 64, 73
1, 300871, Control_c, 0, 64, 60
1, 300886, Control_c, 0, 64, 42
1, 300901, Control_c, 0, 64, 0
1, 300930, Control_c, 0, 64, 42
1, 300945, Control_c, 0, 64, 57
1, 300959, Control_c, 0, 64, 68
1, 300974, Control_c, 0, 64, 77
1, 300989, Control_c, 0, 64, 85
1, 300998, Note_off_c, 0, 86, 59
1, 301004, Control_c, 0, 64, 88
1, 301019, Control_c, 0, 64, 89
1, 301033, Control_c, 0, 64, 90
1, 301048, Control_c, 0, 64, 91
1, 301063, Control_c, 0, 64, 92
1, 301068, Note_off_c, 0, 75, 47
1, 301070, Note_off_c, 0, 74, 42
1, 301078, Control_c, 0, 64, 94
1, 301093, Control_c, 0, 64, 96
1, 301108, Control_c, 0, 64, 100
1, 301123, Control_c, 0, 64, 103
1, 301145, Control_c, 0, 64, 106
1, 301189, Control_c, 0, 64, 109
1, 301204, Control_c, 0, 64, 111
1, 301219, Control_c, 0, 64, 115
1, 301248, Control_c, 0, 64, 117
1, 301275, Note_off_c, 0, 63, 60
1, 301323, Control_c, 0, 64, 115
1, 301338, Control_c, 0, 64, 99
1, 301352, Control_c, 0, 64, 82
1, 301353, Note_on_c, 0, 79, 66
1, 301367, Control_c, 0, 64, 66
1, 301373, Note_on_c, 0, 68, 45
1, 301382, Control_c, 0, 64, 53
1, 301397, Control_c, 0, 64, 33
1, 301412, Control_c, 0, 64, 0
1, 301427, Control_c, 0, 64, 35
1, 301441, Control_c, 0, 64, 47
1, 301456, Control_c, 0, 64, 60
1, 301471, Control_c, 0, 64, 71
1, 301486, Control_c, 0, 64, 81
1, 301501, Control_c, 0, 64, 89
1, 301515, Control_c, 0, 64, 91
1, 301530, Control_c, 0, 64, 92
1, 301545, Control_c, 0, 64, 95
1, 301561, Control_c, 0, 64, 101
1, 301576, Control_c, 0, 64, 106
1, 301580, Note_off_c, 0, 68, 55
1, 301590, Control_c, 0, 64, 111
1, 301602, Note_off_c, 0, 79, 60
1, 301605, Control_c, 0, 64, 115
1, 301620, Control_c, 0, 64, 124
1, 301635, Control_c, 0, 64, 127
1, 301890, Note_on_c, 0, 81, 61
1, 301895, Control_c, 0, 64, 95
1, 301902, Note_on_c, 0, 67, 43
1, 301907, Note_on_c, 0, 70, 39
1, 301910, Control_c, 0, 64, 77
1, 301915, Note_on_c, 0, 56, 42
1, 301925, Control_c, 0, 64, 65
1, 301939, Control_c, 0, 64, 52
1, 301954, Control_c, 0, 64, 38
1, 301969, Control_c, 0, 64, 40
1, 301983, Control_c, 0, 64, 49
1, 301998, Control_c, 0, 64, 58
1, 302013, Control_c, 0, 64, 65
1, 302028, Control_c, 0, 64, 71
1, 302043, Control_c, 0, 64, 78
1, 302057, Control_c, 0, 64, 84
1, 302072, Control_c, 0, 64, 88
1, 302087, Control_c, 0, 64, 92
1, 302102, Control_c, 0, 64, 96
1, 302117, Control_c, 0, 64, 101
1, 302124, Note_off_c, 0, 70, 41
1, 302131, Control_c, 0, 64, 103
1, 302145, Note_off_c, 0, 81, 44
1, 302161, Control_c, 0, 64, 107
1, 302176, Control_c, 0, 64, 112
1, 302190, Control_c, 0, 64, 127
1, 302412, Note_off_c, 0, 67, 38
1, 302426, Note_on_c, 0, 84, 58
1, 302443, Note_on_c, 0, 73, 36
1, 302468, Note_off_c, 0, 84, 0
1, 302494, Note_on_c, 0, 84, 24
1, 302530, Note_off_c, 0, 56, 61
1, 302639, Note_off_c, 0, 73, 42
1, 302694, Note_off_c, 0, 84, 24
1, 303013, Control_c, 0, 64, 100
1, 303016, Note_on_c, 0, 86, 52
1, 303019, Note_on_c, 0, 62, 38
1, 303022, Note_on_c, 0, 51, 39
1, 303028, Control_c, 0, 64, 81
1, 303030, Note_on_c, 0, 75, 37
1, 303043, Control_c, 0, 64, 67
1, 303058, Control_c, 0, 64, 52
1, 303073, Control_c, 0, 64, 34
1, 303087, Control_c, 0, 64, 0
1, 303102, Control_c, 0, 64, 42
1, 303117, Control_c, 0, 64, 56
1, 303132, Control_c, 0, 64, 66
1, 303147, Control_c, 0, 64, 78
1, 303163, Control_c, 0, 64, 95
1, 303177, Control_c, 0, 64, 104
1, 303179, Note_off_c, 0, 62, 57
1, 303192, Control_c, 0, 64, 108
1, 303207, Control_c, 0, 64, 115
1, 303221, Control_c, 0, 64, 127
1, 303236, Note_off_c, 0, 51, 53
1, 303554, Control_c, 0, 64, 108
1, 303563, Note_on_c, 0, 55, 51
1, 303569, Control_c, 0, 64, 80
1, 303572, Note_on_c, 0, 44, 51
1, 303584, Note_off_c, 0, 86, 55
1, 303584, Control_c, 0, 64, 65
1, 303599, Control_c, 0, 64, 54
1, 303614, Control_c, 0, 64, 51
1, 303628, Control_c, 0, 64, 58
1, 303643, Control_c, 0, 64, 65
1, 303658, Control_c, 0, 64, 75
1, 303673, Control_c, 0, 64, 86
1, 303688, Control_c, 0, 64, 95
1, 303702, Control_c, 0, 64, 99
1, 303717, Note_off_c, 0, 75, 41
1, 303717, Control_c, 0, 64, 102
1, 303732, Control_c, 0, 64, 108
1, 303747, Control_c, 0, 64, 127
1, 303758, Note_off_c, 0, 44, 37
1, 303770, Note_off_c, 0, 55, 55
1, 304089, Control_c, 0, 64, 87
1, 304097, Note_on_c, 0, 79, 55
1, 304101, Note_on_c, 0, 57, 48
1, 304104, Note_on_c, 0, 68, 48
1, 304104, Control_c, 0, 64, 67
1, 304110, Note_on_c, 0, 46, 41
1, 304126, Control_c, 0, 64, 48
1, 304141, Control_c, 0, 64, 0
1, 304171, Control_c, 0, 64, 36
1, 304185, Control_c, 0, 64, 55
1, 304200, Control_c, 0, 64, 68
1, 304215, Control_c, 0, 64, 80
1, 304230, Control_c, 0, 64, 96
1, 304245, Control_c, 0, 64, 107
1, 304259, Control_c, 0, 64, 110
1, 304277, Note_off_c, 0, 57, 60
1, 304283, Note_off_c, 0, 46, 37
1, 304289, Control_c, 0, 64, 112
1, 304304, Control_c, 0, 64, 116
1, 304319, Control_c, 0, 64, 127
1, 304645, Control_c, 0, 64, 91
1, 304646, Note_on_c, 0, 60, 45
1, 304659, Control_c, 0, 64, 71
1, 304664, Note_on_c, 0, 49, 32
1, 304674, Control_c, 0, 64, 60
1, 304689, Control_c, 0, 64, 51
1, 304701, Note_off_c, 0, 68, 37
1, 304703, Control_c, 0, 64, 53
1, 304718, Control_c, 0, 64, 60
1, 304733, Control_c, 0, 64, 65
1, 304749, Control_c, 0, 64, 73
1, 304764, Control_c, 0, 64, 80
1, 304779, Control_c, 0, 64, 87
1, 304794, Control_c, 0, 64, 92
1, 304804, Note_off_c, 0, 79, 43
1, 304808, Control_c, 0, 64, 98
1, 304823, Control_c, 0, 64, 105
1, 304832, Note_off_c, 0, 60, 58
1, 304838, Control_c, 0, 64, 108
1, 304841, Note_off_c, 0, 49, 41
1, 304890, Control_c, 0, 64, 112
1, 304905, Control_c, 0, 64, 119
1, 304920, Control_c, 0, 64, 127
1, 305216, Control_c, 0, 64, 104
1, 305220, Note_on_c, 0, 51, 39
1, 305221, Note_on_c, 0, 62, 40
1, 305231, Control_c, 0, 64, 82
1, 305245, Control_c, 0, 64, 65
1, 305260, Control_c, 0, 64, 48
1, 305275, Control_c, 0, 64, 0
1, 305293, Poly_aftertouch_c, 0, 74, 127
1, 305305, Control_c, 0, 64, 36
1, 305314, Poly_aftertouch_c, 0, 63, 127
1, 305320, Control_c, 0, 64, 55
1, 305320, Poly_aftertouch_c, 0, 74, 0
1, 305334, Control_c, 0, 64, 67
1, 305349, Control_c, 0, 64, 79
1, 305364, Control_c, 0, 64, 86
1, 305365, Poly_aftertouch_c, 0, 63, 0
1, 305379, Control_c, 0, 64, 86
1, 305394, Control_c, 0, 64, 87
1, 305408, Control_c, 0, 64, 88
1, 305423, Control_c, 0, 64, 89
1, 305438, Control_c, 0, 64, 91
1, 305453, Control_c, 0, 64, 92
1, 305468, Control_c, 0, 64, 94
1, 305482, Control_c, 0, 64, 97
1, 305497, Control_c, 0, 64, 101
1, 305512, Control_c, 0, 64, 107
1, 305526, Control_c, 0, 64, 111
1, 305541, Control_c, 0, 64, 115
1, 305557, Control_c, 0, 64, 122
1, 305572, Control_c, 0, 64, 127
1, 305731, Note_off_c, 0, 62, 32
1, 305780, Note_on_c, 0, 67, 49
1, 305803, Note_on_c, 0, 56, 40
1, 305892, Note_off_c, 0, 51, 49
1, 305913, Note_off_c, 0, 67, 56
1, 305945, Note_off_c, 0, 56, 40
1, 306379, Note_on_c, 0, 69, 44
1, 306387, Control_c, 0, 64, 91
1, 306395, Note_on_c, 0, 55, 36
1, 306397, Note_on_c, 0, 44, 38
1, 306402, Control_c, 0, 64, 74
1, 306407, Note_on_c, 0, 58, 33
1, 306417, Control_c, 0, 64, 62
1, 306432, Control_c, 0, 64, 44
1, 306447, Control_c, 0, 64, 0
1, 306462, Control_c, 0, 64, 37
1, 306477, Control_c, 0, 64, 49
1, 306492, Control_c, 0, 64, 61
1, 306506, Control_c, 0, 64, 70
1, 306521, Control_c, 0, 64, 81
1, 306536, Control_c, 0, 64, 90
1, 306551, Control_c, 0, 64, 94
1, 306566, Control_c, 0, 64, 98
1, 306580, Control_c, 0, 64, 104
1, 306595, Control_c, 0, 64, 112
1, 306610, Control_c, 0, 64, 127
1, 306612, Note_off_c, 0, 58, 42
1, 306617, Note_off_c, 0, 69, 34
1, 306941, Note_off_c, 0, 44, 42
1, 307036, Note_off_c, 0, 55, 38
1, 307060, Note_on_c, 0, 72, 38
1, 307069, Control_c, 0, 64, 107
1, 307078, Note_on_c, 0, 61, 31
1, 307084, Control_c, 0, 64, 90
1, 307098, Control_c, 0, 64, 76
1, 307120, Control_c, 0, 64, 65
1, 307135, Control_c, 0, 64, 53
1, 307151, Control_c, 0, 64, 0
1, 307196, Control_c, 0, 64, 36
1, 307210, Control_c, 0, 64, 47
1, 307225, Control_c, 0, 64, 57
1, 307240, Control_c, 0, 64, 65
1, 307255, Control_c, 0, 64, 71
1, 307270, Control_c, 0, 64, 79
1, 307284, Control_c, 0, 64, 89
1, 307299, Control_c, 0, 64, 98
1, 307314, Control_c, 0, 64, 109
1, 307327, Note_off_c, 0, 61, 41
1, 307329, Control_c, 0, 64, 127
1, 307379, Note_off_c, 0, 72, 39
1, 307625, Control_c, 0, 64, 104
1, 307640, Control_c, 0, 64, 91
1, 307655, Control_c, 0, 64, 84
1, 307669, Control_c, 0, 64, 79
1, 307684, Control_c, 0, 64, 75
1, 307699, Control_c, 0, 64, 70
1, 307714, Control_c, 0, 64, 65
1, 307729, Control_c, 0, 64, 60
1, 307743, Control_c, 0, 64, 55
1, 307758, Control_c, 0, 64, 55
1, 307833, Control_c, 0, 64, 54
1, 307959, Control_c, 0, 64, 55
1, 307974, Control_c, 0, 64, 55
1, 308048, Control_c, 0, 64, 56
1, 308063, Control_c, 0, 64, 56
1, 308078, Control_c, 0, 64, 57
1, 308152, Control_c, 0, 64, 57
1, 308167, Control_c, 0, 64, 58
1, 308182, Control_c, 0, 64, 58
1, 308211, Control_c, 0, 64, 59
1, 308226, Control_c, 0, 64, 61
1, 308241, Control_c, 0, 64, 63
1, 308256, Poly_aftertouch_c, 0, 68, 127
1, 308256, Control_c, 0, 64, 66
1, 308256, Note_on_c, 0, 67, 38
1, 308271, Control_c, 0, 64, 68
1, 308286, Control_c, 0, 64, 71
1, 308300, Control_c, 0, 64, 74
1, 308315, Control_c, 0, 64, 79
1, 308329, Note_on_c, 0, 66, 42
1, 308330, Control_c, 0, 64, 85
1, 308344, Control_c, 0, 64, 96
1, 308359, Control_c, 0, 64, 108
1, 308374, Control_c, 0, 64, 124
1, 308389, Control_c, 0, 64, 127
1, 309228, Note_on_c, 0, 69, 35
1, 309263, Note_off_c, 0, 69, 52
1, 309277, Note_on_c, 0, 70, 44
1, 309311, Note_on_c, 0, 71, 43
1, 309342, Note_off_c, 0, 70, 55
1, 309441, Note_off_c, 0, 71, 37
1, 309550, Poly_aftertouch_c, 0, 68, 0
1, 309566, Note_off_c, 0, 67, 35
1, 309870, Note_off_c, 0, 66, 33
1, 310146, Note_on_c, 0, 81, 43
1, 310192, Note_on_c, 0, 82, 48
1, 310197, Note_off_c, 0, 81, 45
1, 310247, Note_off_c, 0, 82, 58
1, 310249, Note_on_c, 0, 83, 43
1, 310317, Note_off_c, 0, 83, 53
1, 310604, Note_on_c, 0, 80, 45
1, 310612, Note_on_c, 0, 81, 48
1, 310647, Note_off_c, 0, 81, 52
1, 310656, Note_on_c, 0, 82, 53
1, 310658, Note_on_c, 0, 79, 52
1, 310683, Note_off_c, 0, 82, 65
1, 310696, Note_on_c, 0, 83, 56
1, 310704, Note_off_c, 0, 80, 29
1, 310723, Note_on_c, 0, 78, 37
1, 310760, Note_off_c, 0, 79, 45
1, 310767, Note_off_c, 0, 83, 52
1, 310776, Note_off_c, 0, 78, 61
1, 311087, Note_on_c, 0, 80, 48
1, 311088, Note_on_c, 0, 81, 47
1, 311122, Note_on_c, 0, 82, 61
1, 311130, Note_off_c, 0, 81, 51
1, 311154, Note_off_c, 0, 82, 67
1, 311160, Note_on_c, 0, 79, 44
1, 311183, Note_off_c, 0, 80, 52
1, 311186, Note_on_c, 0, 78, 62
1, 311191, Note_on_c, 0, 83, 66
1, 311197, Note_off_c, 0, 79, 56
1, 311219, Note_off_c, 0, 83, 66
1, 311222, Note_off_c, 0, 78, 59
1, 311518, Control_c, 0, 67, 124
1, 311533, Control_c, 0, 67, 116
1, 311548, Control_c, 0, 67, 110
1, 311577, Control_c, 0, 67, 108
1, 311592, Control_c, 0, 67, 106
1, 311607, Control_c, 0, 67, 98
1, 311629, Control_c, 0, 67, 94
1, 311659, Control_c, 0, 67, 94
1, 311689, Control_c, 0, 64, 101
1, 311692, Note_on_c, 0, 75, 55
1, 311703, Control_c, 0, 64, 76
1, 311718, Control_c, 0, 64, 64
1, 311718, Control_c, 0, 67, 95
1, 311733, Control_c, 0, 64, 58
1, 311733, Control_c, 0, 67, 97
1, 311748, Control_c, 0, 64, 60
1, 311763, Control_c, 0, 64, 63
1, 311765, Note_off_c, 0, 75, 61
1, 311773, Note_on_c, 0, 78, 46
1, 311777, Control_c, 0, 64, 67
1, 311792, Control_c, 0, 64, 72
1, 311800, Note_off_c, 0, 78, 61
1, 311807, Control_c, 0, 64, 76
1, 311820, Note_on_c, 0, 79, 55
1, 311821, Control_c, 0, 64, 78
1, 311821, Control_c, 0, 67, 99
1, 311836, Control_c, 0, 64, 78
1, 311851, Control_c, 0, 64, 82
1, 311857, Note_off_c, 0, 79, 61
1, 311866, Control_c, 0, 64, 90
1, 311870, Note_on_c, 0, 80, 57
1, 311881, Control_c, 0, 64, 107
1, 311896, Control_c, 0, 64, 127
1, 311905, Note_off_c, 0, 80, 62
1, 311926, Control_c, 0, 67, 101
1, 311929, Note_on_c, 0, 81, 63
1, 311977, Note_on_c, 0, 82, 71
1, 311985, Note_off_c, 0, 81, 61
1, 312015, Control_c, 0, 67, 104
1, 312036, Note_on_c, 0, 83, 62
1, 312051, Note_off_c, 0, 82, 62
1, 312099, Note_on_c, 0, 86, 71
1, 312119, Note_off_c, 0, 83, 61
1, 312222, Note_off_c, 0, 86, 29
1, 312237, Note_on_c, 0, 98, 68
1, 312285, Note_off_c, 0, 98, 64
1, 313392, Control_c, 0, 67, 102
1, 313586, Control_c, 0, 64, 82
1, 313601, Control_c, 0, 64, 69
1, 313615, Note_on_c, 0, 69, 42
1, 313616, Control_c, 0, 64, 66
1, 313631, Control_c, 0, 64, 70
1, 313646, Control_c, 0, 64, 77
1, 313661, Control_c, 0, 64, 88
1, 313671, Note_off_c, 0, 69, 60
1, 313675, Control_c, 0, 64, 97
1, 313689, Control_c, 0, 64, 100
1, 313708, Note_on_c, 0, 71, 26
1, 313734, Control_c, 0, 64, 104
1, 313736, Note_on_c, 0, 72, 34
1, 313749, Control_c, 0, 64, 109
1, 313754, Note_off_c, 0, 71, 46
1, 313763, Control_c, 0, 64, 122
1, 313778, Control_c, 0, 64, 127
1, 313786, Note_on_c, 0, 73, 53
1, 313791, Note_off_c, 0, 72, 59
1, 313810, Note_off_c, 0, 73, 59
1, 313819, Note_on_c, 0, 74, 56
1, 313877, Note_off_c, 0, 74, 56
1, 313959, Note_on_c, 0, 76, 42
1, 314028, Note_on_c, 0, 77, 60
1, 314073, Note_off_c, 0, 77, 0
1, 314073, Note_on_c, 0, 77, 22
1, 314076, Note_off_c, 0, 76, 30
1, 314096, Note_on_c, 0, 80, 72
1, 314117, Note_off_c, 0, 77, 57
1, 314677, Note_on_c, 0, 63, 41
1, 314685, Note_on_c, 0, 86, 61
1, 314716, Note_off_c, 0, 80, 54
1, 314716, Note_off_c, 0, 86, 62
1, 314811, Note_off_c, 0, 63, 50
1, 315262, Note_on_c, 0, 69, 49
1, 315306, Note_off_c, 0, 69, 60
1, 315326, Note_on_c, 0, 71, 49
1, 315363, Note_on_c, 0, 72, 55
1, 315369, Note_off_c, 0, 71, 59
1, 315415, Note_off_c, 0, 72, 60
1, 315417, Note_on_c, 0, 73, 65
1, 315438, Note_off_c, 0, 73, 66
1, 315439, Note_on_c, 0, 74, 59
1, 315476, Note_off_c, 0, 74, 61
1, 315486, Note_on_c, 0, 75, 71
1, 315539, Note_off_c, 0, 75, 62
1, 315568, Note_on_c, 0, 76, 68
1, 315601, Note_off_c, 0, 76, 61
1, 315625, Note_on_c, 0, 77, 68
1, 315706, Note_off_c, 0, 77, 64
1, 315722, Note_on_c, 0, 80, 65
1, 315891, Control_c, 0, 67, 100
1, 315994, Note_off_c, 0, 80, 55
1, 316275, Note_on_c, 0, 51, 48
1, 316277, Note_on_c, 0, 98, 70
1, 316328, Note_off_c, 0, 98, 65
1, 316355, Note_off_c, 0, 51, 60
1, 316810, Note_on_c, 0, 69, 48
1, 316845, Note_off_c, 0, 69, 55
1, 316873, Note_on_c, 0, 71, 58
1, 316907, Note_off_c, 0, 71, 64
1, 316917, Note_on_c, 0, 72, 59
1, 316960, Note_off_c, 0, 72, 62
1, 316961, Note_on_c, 0, 73, 68
1, 316980, Note_off_c, 0, 73, 66
1, 316983, Note_on_c, 0, 74, 69
1, 317026, Note_off_c, 0, 74, 59
1, 317042, Note_on_c, 0, 75, 68
1, 317079, Note_off_c, 0, 75, 58
1, 317110, Note_on_c, 0, 76, 72
1, 317138, Control_c, 0, 67, 98
1, 317148, Note_off_c, 0, 76, 63
1, 317159, Note_on_c, 0, 77, 74
1, 317271, Note_on_c, 0, 80, 82
1, 317271, Note_off_c, 0, 77, 63
1, 317803, Note_on_c, 0, 63, 62
1, 317812, Note_on_c, 0, 86, 81
1, 317846, Note_off_c, 0, 80, 64
1, 317865, Note_off_c, 0, 86, 64
1, 317887, Note_off_c, 0, 63, 61
1, 318286, Control_c, 0, 67, 96
1, 318315, Control_c, 0, 67, 95
1, 318331, Note_on_c, 0, 69, 51
1, 318353, Control_c, 0, 67, 95
1, 318380, Note_off_c, 0, 69, 63
1, 318388, Note_on_c, 0, 71, 61
1, 318415, Note_on_c, 0, 72, 72
1, 318424, Note_off_c, 0, 71, 64
1, 318472, Control_c, 0, 67, 94
1, 318478, Note_off_c, 0, 72, 63
1, 318479, Note_on_c, 0, 73, 72
1, 318495, Note_on_c, 0, 74, 75
1, 318497, Note_off_c, 0, 73, 67
1, 318502, Control_c, 0, 67, 94
1, 318531, Control_c, 0, 67, 93
1, 318546, Note_off_c, 0, 74, 62
1, 318546, Control_c, 0, 67, 93
1, 318552, Note_on_c, 0, 75, 78
1, 318561, Control_c, 0, 67, 92
1, 318576, Note_off_c, 0, 75, 64
1, 318591, Control_c, 0, 67, 92
1, 318605, Control_c, 0, 67, 90
1, 318614, Note_on_c, 0, 76, 83
1, 318620, Control_c, 0, 67, 85
1, 318635, Control_c, 0, 67, 78
1, 318650, Control_c, 0, 67, 73
1, 318660, Note_off_c, 0, 76, 66
1, 318665, Note_on_c, 0, 77, 79
1, 318665, Control_c, 0, 67, 69
1, 318679, Control_c, 0, 67, 65
1, 318694, Control_c, 0, 67, 61
1, 318709, Control_c, 0, 67, 57
1, 318724, Control_c, 0, 67, 56
1, 318737, Note_on_c, 0, 80, 94
1, 318737, Note_off_c, 0, 77, 66
1, 318753, Control_c, 0, 67, 55
1, 318768, Control_c, 0, 67, 54
1, 318783, Control_c, 0, 67, 52
1, 318798, Control_c, 0, 67, 50
1, 318812, Control_c, 0, 67, 50
1, 318827, Control_c, 0, 67, 49
1, 318842, Control_c, 0, 67, 46
1, 318857, Control_c, 0, 67, 38
1, 318872, Control_c, 0, 67, 24
1, 318886, Control_c, 0, 67, 0
1, 319059, Note_off_c, 0, 80, 56
1, 319258, Note_on_c, 0, 51, 84
1, 319271, Note_on_c, 0, 98, 98
1, 319311, Note_off_c, 0, 98, 67
1, 319315, Note_off_c, 0, 51, 61
1, 319797, Note_on_c, 0, 69, 64
1, 319860, Note_on_c, 0, 71, 75
1, 319864, Note_off_c, 0, 69, 64
1, 319891, Note_on_c, 0, 72, 79
1, 319891, Note_off_c, 0, 71, 64
1, 319950, Note_off_c, 0, 72, 66
1, 319950, Note_on_c, 0, 73, 77
1, 319950, Note_on_c, 0, 74, 75
1, 319971, Note_off_c, 0, 73, 71
1, 319998, Note_off_c, 0, 74, 63
1, 320009, Note_on_c, 0, 75, 77
1, 320052, Note_off_c, 0, 75, 63
1, 320068, Note_on_c, 0, 76, 88
1, 320122, Note_off_c, 0, 76, 66
1, 320123, Note_on_c, 0, 77, 85
1, 320184, Note_off_c, 0, 77, 65
1, 320196, Note_on_c, 0, 80, 99
1, 320691, Note_on_c, 0, 63, 94
1, 320716, Note_on_c, 0, 86, 99
1, 320729, Note_off_c, 0, 80, 66
1, 320745, Note_off_c, 0, 63, 62
1, 320754, Note_off_c, 0, 86, 69
1, 321675, Note_on_c, 0, 69, 59
1, 321738, Note_on_c, 0, 71, 67
1, 321744, Note_off_c, 0, 69, 60
1, 321756, Note_on_c, 0, 72, 81
1, 321775, Note_off_c, 0, 71, 62
1, 321811, Note_on_c, 0, 73, 91
1, 321817, Note_off_c, 0, 72, 66
1, 321831, Note_off_c, 0, 73, 67
1, 321847, Note_on_c, 0, 74, 72
1, 321894, Note_off_c, 0, 74, 62
1, 321902, Note_on_c, 0, 75, 72
1, 321930, Note_off_c, 0, 75, 66
1, 321950, Note_on_c, 0, 76, 87
1, 322005, Note_on_c, 0, 77, 78
1, 322005, Note_off_c, 0, 76, 66
1, 322070, Note_on_c, 0, 80, 99
1, 322073, Note_off_c, 0, 77, 67
1, 322275, Control_c, 0, 64, 117
1, 322290, Control_c, 0, 64, 100
1, 322305, Control_c, 0, 64, 93
1, 322320, Control_c, 0, 64, 88
1, 322335, Control_c, 0, 64, 82
1, 322350, Control_c, 0, 64, 75
1, 322365, Control_c, 0, 64, 68
1, 322380, Control_c, 0, 64, 63
1, 322395, Control_c, 0, 64, 59
1, 322410, Control_c, 0, 64, 57
1, 322424, Control_c, 0, 64, 53
1, 322439, Control_c, 0, 64, 49
1, 322454, Control_c, 0, 64, 44
1, 322469, Control_c, 0, 64, 36
1, 322484, Control_c, 0, 64, 0
1, 322691, Control_c, 0, 67, 20
1, 322705, Control_c, 0, 67, 26
1, 322720, Control_c, 0, 64, 45
1, 322720, Control_c, 0, 67, 30
1, 322735, Control_c, 0, 64, 56
1, 322735, Control_c, 0, 67, 32
1, 322750, Control_c, 0, 64, 60
1, 322750, Control_c, 0, 67, 32
1, 322765, Control_c, 0, 64, 63
1, 322765, Control_c, 0, 67, 33
1, 322779, Control_c, 0, 64, 67
1, 322779, Control_c, 0, 67, 38
1, 322794, Control_c, 0, 64, 71
1, 322794, Control_c, 0, 67, 49
1, 322809, Control_c, 0, 64, 74
1, 322809, Control_c, 0, 67, 63
1, 322824, Control_c, 0, 64, 78
1, 322824, Control_c, 0, 67, 72
1, 322839, Control_c, 0, 64, 85
1, 322839, Control_c, 0, 67, 78
1, 322861, Control_c, 0, 64, 96
1, 322861, Control_c, 0, 67, 84
1, 322876, Control_c, 0, 64, 120
1, 322876, Control_c, 0, 67, 94
1, 322891, Control_c, 0, 64, 127
1, 322891, Control_c, 0, 67, 107
1, 322905, Control_c, 0, 67, 119
1, 322920, Control_c, 0, 67, 127
1, 323011, Note_off_c, 0, 80, 44
1, 323627, Note_on_c, 0, 91, 64
1, 323637, Note_on_c, 0, 80, 54
1, 323640, Control_c, 0, 64, 111
1, 323649, Note_on_c, 0, 60, 44
1, 323650, Note_on_c, 0, 49, 40
1, 323654, Control_c, 0, 64, 88
1, 323669, Control_c, 0, 64, 75
1, 323684, Control_c, 0, 64, 64
1, 323699, Control_c, 0, 64, 51
1, 323714, Control_c, 0, 64, 0
1, 323876, Control_c, 0, 64, 42
1, 323891, Control_c, 0, 64, 55
1, 323906, Control_c, 0, 64, 62
1, 323922, Control_c, 0, 64, 64
1, 323937, Control_c, 0, 64, 65
1, 323951, Control_c, 0, 64, 67
1, 323966, Control_c, 0, 64, 69
1, 323981, Control_c, 0, 64, 71
1, 323996, Control_c, 0, 64, 74
1, 324011, Control_c, 0, 64, 78
1, 324025, Control_c, 0, 64, 82
1, 324040, Control_c, 0, 64, 86
1, 324055, Control_c, 0, 64, 93
1, 324070, Control_c, 0, 64, 102
1, 324085, Control_c, 0, 64, 127
1, 324307, Note_off_c, 0, 91, 35
1, 324373, Note_off_c, 0, 49, 41
1, 324571, Note_off_c, 0, 60, 42
1, 324573, Note_off_c, 0, 80, 39
1, 325421, Note_on_c, 0, 86, 48
1, 325428, Note_on_c, 0, 75, 43
1, 325441, Note_on_c, 0, 62, 36
1, 325449, Control_c, 0, 64, 102
1, 325459, Note_on_c, 0, 51, 34
1, 325464, Control_c, 0, 64, 85
1, 325479, Control_c, 0, 64, 75
1, 325493, Control_c, 0, 64, 66
1, 325508, Control_c, 0, 64, 56
1, 325524, Control_c, 0, 64, 36
1, 325539, Control_c, 0, 64, 0
1, 325841, Control_c, 0, 64, 38
1, 325856, Control_c, 0, 64, 46
1, 325871, Control_c, 0, 64, 54
1, 325886, Control_c, 0, 64, 60
1, 325901, Control_c, 0, 64, 62
1, 325930, Control_c, 0, 64, 62
1, 325945, Control_c, 0, 64, 63
1, 325960, Control_c, 0, 64, 64
1, 325975, Control_c, 0, 64, 65
1, 325990, Control_c, 0, 64, 66
1, 326005, Control_c, 0, 64, 67
1, 326019, Control_c, 0, 64, 67
1, 326034, Control_c, 0, 64, 68
1, 326049, Control_c, 0, 64, 69
1, 326064, Control_c, 0, 64, 70
1, 326079, Control_c, 0, 64, 72
1, 326094, Control_c, 0, 64, 73
1, 326109, Control_c, 0, 64, 74
1, 326123, Control_c, 0, 64, 75
1, 326138, Control_c, 0, 64, 77
1, 326153, Control_c, 0, 64, 79
1, 326168, Control_c, 0, 64, 81
1, 326183, Control_c, 0, 64, 82
1, 326197, Control_c, 0, 64, 84
1, 326212, Control_c, 0, 64, 86
1, 326227, Control_c, 0, 64, 89
1, 326241, Control_c, 0, 64, 93
1, 326256, Control_c, 0, 64, 97
1, 326271, Control_c, 0, 64, 102
1, 326286, Control_c, 0, 64, 108
1, 326301, Control_c, 0, 64, 120
1, 326317, Control_c, 0, 64, 127
1, 326910, Note_off_c, 0, 86, 36
1, 327042, Poly_aftertouch_c, 0, 54, 127
1, 327074, Note_off_c, 0, 75, 29
1, 328566, Note_on_c, 0, 68, 36
1, 328569, Note_on_c, 0, 69, 31
1, 332127, Note_off_c, 0, 68, 20
1, 332244, Note_off_c, 0, 69, 22
1, 332427, Note_off_c, 0, 51, 25
1, 332647, Note_off_c, 0, 62, 28
1, 332774, Control_c, 0, 64, 124
1, 332789, Control_c, 0, 64, 119
1, 332804, Control_c, 0, 64, 116
1, 332819, Control_c, 0, 64, 114
1, 332837, Poly_aftertouch_c, 0, 54, 0
1, 332848, Control_c, 0, 64, 111
1, 332863, Control_c, 0, 64, 109
1, 332893, Control_c, 0, 64, 106
1, 332907, Control_c, 0, 64, 104
1, 332937, Control_c, 0, 64, 100
1, 332966, Control_c, 0, 64, 98
1, 332996, Control_c, 0, 64, 95
1, 333011, Control_c, 0, 64, 94
1, 333026, Control_c, 0, 64, 93
1, 333040, Control_c, 0, 64, 91
1, 333055, Control_c, 0, 64, 90
1, 333070, Control_c, 0, 64, 89
1, 333085, Control_c, 0, 64, 88
1, 333100, Control_c, 0, 64, 86
1, 333114, Control_c, 0, 64, 85
1, 333129, Control_c, 0, 64, 84
1, 333144, Control_c, 0, 64, 82
1, 333159, Control_c, 0, 64, 82
1, 333174, Control_c, 0, 64, 81
1, 333188, Control_c, 0, 64, 79
1, 333203, Control_c, 0, 64, 78
1, 333218, Control_c, 0, 64, 77
1, 333233, Control_c, 0, 64, 76
1, 333248, Control_c, 0, 64, 75
1, 333263, Control_c, 0, 64, 75
1, 333278, Control_c, 0, 64, 74
1, 333293, Control_c, 0, 64, 73
1, 333307, Control_c, 0, 64, 73
1, 333329, Control_c, 0, 64, 72
1, 333344, Control_c, 0, 64, 72
1, 333358, Control_c, 0, 64, 71
1, 333388, Control_c, 0, 64, 71
1, 333403, Control_c, 0, 64, 70
1, 333418, Control_c, 0, 64, 70
1, 333433, Control_c, 0, 64, 69
1, 333448, Control_c, 0, 64, 69
1, 333463, Control_c, 0, 64, 68
1, 333478, Control_c, 0, 64, 68
1, 333493, Control_c, 0, 64, 67
1, 333523, Control_c, 0, 64, 66
1, 333537, Control_c, 0, 64, 66
1, 333552, Control_c, 0, 64, 65
1, 333567, Control_c, 0, 64, 65
1, 333597, Control_c, 0, 64, 64
1, 333627, Control_c, 0, 64, 64
1, 333656, Control_c, 0, 64, 63
1, 333686, Control_c, 0, 64, 63
1, 333701, Control_c, 0, 64, 62
1, 333716, Control_c, 0, 64, 62
1, 333775, Control_c, 0, 64, 61
1, 333789, Control_c, 0, 64, 61
1, 333804, Control_c, 0, 64, 60
1, 333834, Control_c, 0, 64, 59
1, 333863, Control_c, 0, 64, 59
1, 333878, Control_c, 0, 64, 58
1, 333893, Control_c, 0, 64, 58
1, 333908, Control_c, 0, 64, 57
1, 333923, Control_c, 0, 64, 56
1, 333967, Control_c, 0, 64, 56
1, 333981, Control_c, 0, 64, 55
1, 333996, Control_c, 0, 64, 54
1, 334011, Control_c, 0, 64, 54
1, 334041, Control_c, 0, 64, 53
1, 334071, Control_c, 0, 64, 53
1, 334108, Control_c, 0, 64, 52
1, 334123, Control_c, 0, 64, 52
1, 334137, Control_c, 0, 64, 51
1, 334181, Control_c, 0, 64, 51
1, 334211, Control_c, 0, 64, 50
1, 334241, Control_c, 0, 64, 50
1, 334434, Control_c, 0, 64, 50
1, 334524, Control_c, 0, 64, 51
1, 334553, Control_c, 0, 64, 51
1, 334612, Control_c, 0, 64, 52
1, 334627, Control_c, 0, 64, 52
1, 334717, Control_c, 0, 64, 53
1, 334776, Control_c, 0, 64, 53
1, 334805, Control_c, 0, 64, 54
1, 334902, Control_c, 0, 64, 54
1, 334946, Control_c, 0, 64, 55
1, 335199, Control_c, 0, 64, 55
1, 335858, Control_c, 0, 64, 56
1, 336665, Control_c, 0, 64, 55
1, 337429, Control_c, 0, 64, 56
1, 337534, Control_c, 0, 64, 55
1, 337548, Control_c, 0, 64, 54
1, 337563, Control_c, 0, 64, 52
1, 337578, Control_c, 0, 64, 50
1, 337593, Control_c, 0, 64, 44
1, 337608, Control_c, 0, 64, 0
1, 337622, Control_c, 0, 67, 123
1, 337637, Control_c, 0, 67, 116
1, 337697, Control_c, 0, 67, 114
1, 337712, Control_c, 0, 67, 111
1, 337727, Control_c, 0, 67, 106
1, 337742, Control_c, 0, 67, 101
1, 337756, Control_c, 0, 67, 93
1, 337771, Control_c, 0, 67, 82
1, 337786, Control_c, 0, 67, 74
1, 337801, Control_c, 0, 64, 51
1, 337801, Control_c, 0, 67, 72
1, 337803, Note_on_c, 0, 57, 87
1, 337808, Note_on_c, 0, 50, 78
1, 337810, Note_on_c, 0, 56, 73
1, 337823, Control_c, 0, 64, 115
1, 337823, Control_c, 0, 67, 71
1, 337838, Control_c, 0, 64, 127
1, 337838, Control_c, 0, 67, 69
1, 337843, Note_off_c, 0, 56, 66
1, 337850, Note_off_c, 0, 50, 61
1, 337853, Control_c, 0, 67, 67
1, 337858, Note_off_c, 0, 57, 61
1, 337868, Control_c, 0, 67, 64
1, 337883, Control_c, 0, 67, 61
1, 337928, Note_on_c, 0, 56, 60
1, 337943, Note_on_c, 0, 50, 48
1, 337956, Control_c, 0, 67, 60
1, 337958, Note_off_c, 0, 56, 58
1, 337964, Note_off_c, 0, 50, 61
1, 337993, Poly_aftertouch_c, 0, 57, 127
1, 338001, Control_c, 0, 67, 61
1, 338016, Control_c, 0, 67, 61
1, 338044, Note_on_c, 0, 56, 68
1, 338050, Note_on_c, 0, 50, 51
1, 338051, Note_on_c, 0, 57, 21
1, 338072, Note_off_c, 0, 56, 65
1, 338078, Note_off_c, 0, 50, 59
1, 338087, Note_off_c, 0, 57, 58
1, 338170, Note_on_c, 0, 50, 53
1, 338170, Note_on_c, 0, 56, 62
1, 338187, Note_on_c, 0, 57, 54
1, 338194, Note_off_c, 0, 56, 63
1, 338203, Note_off_c, 0, 50, 59
1, 338208, Note_off_c, 0, 57, 64
1, 338268, Control_c, 0, 67, 62
1, 338282, Note_on_c, 0, 56, 56
1, 338282, Note_on_c, 0, 57, 61
1, 338282, Control_c, 0, 67, 62
1, 338300, Note_on_c, 0, 50, 49
1, 338319, Note_off_c, 0, 57, 59
1, 338320, Note_off_c, 0, 56, 61
1, 338327, Note_off_c, 0, 50, 59
1, 338402, Note_on_c, 0, 56, 63
1, 338416, Note_on_c, 0, 50, 52
1, 338419, Note_on_c, 0, 57, 45
1, 338432, Control_c, 0, 67, 62
1, 338439, Note_off_c, 0, 56, 60
1, 338446, Note_off_c, 0, 57, 56
1, 338450, Note_off_c, 0, 50, 57
1, 338476, Control_c, 0, 67, 62
1, 338519, Note_on_c, 0, 56, 62
1, 338520, Control_c, 0, 67, 61
1, 338540, Note_on_c, 0, 57, 50
1, 338542, Note_on_c, 0, 50, 43
1, 338554, Note_off_c, 0, 56, 62
1, 338565, Control_c, 0, 67, 62
1, 338568, Note_off_c, 0, 50, 57
1, 338569, Note_off_c, 0, 57, 56
1, 338587, Control_c, 0, 67, 63
1, 338617, Control_c, 0, 67, 62
1, 338632, Control_c, 0, 67, 61
1, 338646, Note_on_c, 0, 56, 62
1, 338647, Control_c, 0, 67, 60
1, 338661, Note_on_c, 0, 57, 52
1, 338665, Note_on_c, 0, 50, 47
1, 338674, Note_off_c, 0, 56, 65
1, 338676, Control_c, 0, 67, 62
1, 338688, Note_off_c, 0, 57, 61
1, 338691, Control_c, 0, 67, 63
1, 338698, Note_off_c, 0, 50, 50
1, 338720, Control_c, 0, 67, 61
1, 338735, Control_c, 0, 67, 60
1, 338755, Note_on_c, 0, 56, 71
1, 338769, Note_on_c, 0, 57, 65
1, 338779, Control_c, 0, 67, 63
1, 338784, Note_on_c, 0, 50, 48
1, 338787, Note_off_c, 0, 56, 57
1, 338794, Control_c, 0, 67, 64
1, 338799, Note_off_c, 0, 57, 65
1, 338809, Note_off_c, 0, 50, 57
1, 338809, Control_c, 0, 67, 63
1, 338824, Control_c, 0, 67, 60
1, 338839, Control_c, 0, 67, 59
1, 338868, Control_c, 0, 67, 60
1, 338882, Note_on_c, 0, 56, 61
1, 338883, Control_c, 0, 67, 63
1, 338885, Note_on_c, 0, 57, 55
1, 338896, Note_on_c, 0, 50, 47
1, 338897, Control_c, 0, 67, 64
1, 338906, Note_off_c, 0, 56, 59
1, 338908, Note_off_c, 0, 57, 61
1, 338912, Control_c, 0, 67, 62
1, 338921, Note_off_c, 0, 50, 56
1, 338927, Control_c, 0, 67, 61
1, 338942, Control_c, 0, 67, 60
1, 338971, Control_c, 0, 67, 62
1, 338984, Note_on_c, 0, 56, 67
1, 338986, Control_c, 0, 67, 64
1, 338992, Note_on_c, 0, 57, 55
1, 339013, Note_on_c, 0, 50, 48
1, 339015, Note_off_c, 0, 56, 61
1, 339016, Control_c, 0, 67, 63
1, 339026, Note_off_c, 0, 57, 62
1, 339031, Control_c, 0, 67, 62
1, 339040, Note_off_c, 0, 50, 57
1, 339046, Control_c, 0, 67, 62
1, 339076, Control_c, 0, 67, 64
1, 339091, Control_c, 0, 67, 65
1, 339106, Note_on_c, 0, 56, 59
1, 339115, Note_on_c, 0, 57, 52
1, 339120, Control_c, 0, 67, 63
1, 339132, Note_off_c, 0, 56, 59
1, 339135, Control_c, 0, 67, 62
1, 339141, Note_off_c, 0, 57, 63
1, 339150, Control_c, 0, 67, 61
1, 339151, Note_on_c, 0, 50, 12
1, 339180, Control_c, 0, 67, 63
1, 339181, Note_off_c, 0, 50, 0
1, 339195, Control_c, 0, 67, 65
1, 339195, Poly_aftertouch_c, 0, 50, 0
1, 339208, Note_on_c, 0, 56, 72
1, 339210, Control_c, 0, 67, 64
1, 339219, Note_on_c, 0, 57, 67
1, 339220, Note_on_c, 0, 50, 19
1, 339225, Control_c, 0, 67, 62
1, 339239, Note_off_c, 0, 56, 58
1, 339240, Control_c, 0, 67, 60
1, 339250, Note_off_c, 0, 57, 62
1, 339255, Control_c, 0, 67, 59
1, 339259, Note_off_c, 0, 50, 60
1, 339284, Control_c, 0, 67, 61
1, 339299, Control_c, 0, 67, 64
1, 339314, Control_c, 0, 67, 63
1, 339335, Control_c, 0, 67, 60
1, 339342, Note_on_c, 0, 56, 59
1, 339350, Control_c, 0, 67, 58
1, 339364, Note_off_c, 0, 56, 60
1, 339365, Control_c, 0, 67, 57
1, 339370, Note_on_c, 0, 57, 30
1, 339377, Note_on_c, 0, 50, 25
1, 339400, Note_off_c, 0, 57, 54
1, 339410, Control_c, 0, 67, 58
1, 339425, Control_c, 0, 67, 57
1, 339439, Control_c, 0, 67, 52
1, 339441, Note_on_c, 0, 56, 68
1, 339445, Note_off_c, 0, 50, 0
1, 339454, Control_c, 0, 67, 40
1, 339460, Note_on_c, 0, 50, 36
1, 339469, Control_c, 0, 67, 28
1, 339470, Note_on_c, 0, 57, 51
1, 339474, Note_off_c, 0, 56, 60
1, 339484, Control_c, 0, 67, 23
1, 339495, Note_off_c, 0, 57, 63
1, 339499, Note_off_c, 0, 50, 60
1, 339514, Control_c, 0, 67, 19
1, 339528, Control_c, 0, 67, 0
1, 339568, Note_on_c, 0, 56, 68
1, 339578, Note_on_c, 0, 50, 55
1, 339578, Note_on_c, 0, 57, 52
1, 339591, Note_off_c, 0, 56, 67
1, 339604, Note_off_c, 0, 57, 61
1, 339608, Note_off_c, 0, 50, 64
1, 339661, Control_c, 0, 64, 119
1, 339662, Note_on_c, 0, 38, 103
1, 339669, Note_on_c, 0, 56, 80
1, 339675, Note_on_c, 0, 50, 75
1, 339675, Note_on_c, 0, 57, 73
1, 339676, Control_c, 0, 64, 76
1, 339691, Control_c, 0, 64, 69
1, 339697, Note_off_c, 0, 56, 65
1, 339703, Note_on_c, 0, 39, 24
1, 339706, Control_c, 0, 64, 70
1, 339707, Note_off_c, 0, 57, 66
1, 339711, Note_off_c, 0, 50, 59
1, 339720, Control_c, 0, 64, 79
1, 339735, Control_c, 0, 64, 127
1, 339748, Note_off_c, 0, 39, 40
1, 339789, Note_on_c, 0, 56, 69
1, 339797, Note_on_c, 0, 57, 56
1, 339798, Note_on_c, 0, 50, 56
1, 339812, Note_off_c, 0, 56, 66
1, 339821, Note_off_c, 0, 38, 36
1, 339824, Note_off_c, 0, 57, 66
1, 339831, Note_off_c, 0, 50, 63
1, 339905, Note_on_c, 0, 56, 70
1, 339920, Note_on_c, 0, 50, 59
1, 339931, Note_on_c, 0, 57, 45
1, 339932, Note_off_c, 0, 56, 65
1, 339947, Note_off_c, 0, 57, 66
1, 339949, Note_off_c, 0, 50, 64
1, 340016, Note_on_c, 0, 56, 65
1, 340021, Note_on_c, 0, 57, 55
1, 340024, Note_on_c, 0, 50, 61
1, 340043, Note_off_c, 0, 56, 65
1, 340054, Note_off_c, 0, 50, 63
1, 340055, Note_off_c, 0, 57, 63
1, 340140, Note_on_c, 0, 56, 66
1, 340158, Note_on_c, 0, 50, 47
1, 340160, Note_on_c, 0, 57, 40
1, 340167, Note_off_c, 0, 56, 63
1, 340181, Note_off_c, 0, 50, 60
1, 340186, Note_off_c, 0, 57, 57
1, 340244, Note_on_c, 0, 56, 74
1, 340245, Note_on_c, 0, 50, 79
1, 340248, Control_c, 0, 64, 89
1, 340250, Note_on_c, 0, 57, 76
1, 340253, Note_on_c, 0, 38, 109
1, 340263, Control_c, 0, 64, 60
1, 340271, Note_off_c, 0, 56, 63
1, 340277, Control_c, 0, 64, 35
1, 340280, Note_off_c, 0, 57, 65
1, 340288, Note_off_c, 0, 50, 59
1, 340292, Control_c, 0, 64, 46
1, 340307, Control_c, 0, 64, 61
1, 340322, Control_c, 0, 64, 83
1, 340337, Control_c, 0, 64, 127
1, 340372, Note_on_c, 0, 56, 69
1, 340386, Note_on_c, 0, 57, 56
1, 340393, Note_on_c, 0, 50, 47
1, 340399, Note_off_c, 0, 56, 65
1, 340414, Note_off_c, 0, 57, 64
1, 340415, Note_off_c, 0, 50, 61
1, 340482, Note_on_c, 0, 56, 66
1, 340489, Note_on_c, 0, 50, 63
1, 340492, Note_on_c, 0, 57, 62
1, 340512, Note_off_c, 0, 56, 64
1, 340521, Note_off_c, 0, 57, 66
1, 340524, Note_off_c, 0, 50, 62
1, 340598, Note_on_c, 0, 56, 72
1, 340605, Note_on_c, 0, 50, 67
1, 340616, Note_on_c, 0, 57, 61
1, 340617, Note_off_c, 0, 38, 0
1, 340625, Note_off_c, 0, 56, 64
1, 340638, Note_off_c, 0, 50, 61
1, 340639, Note_off_c, 0, 57, 65
1, 340652, Poly_aftertouch_c, 0, 38, 127
1, 340718, Note_on_c, 0, 57, 67
1, 340718, Note_on_c, 0, 56, 75
1, 340721, Note_on_c, 0, 50, 66
1, 340724, Poly_aftertouch_c, 0, 38, 0
1, 340745, Note_off_c, 0, 56, 64
1, 340748, Note_off_c, 0, 57, 64
1, 340748, Note_off_c, 0, 50, 66
1, 340796, Control_c, 0, 64, 95
1, 340818, Control_c, 0, 64, 64
1, 340818, Control_c, 0, 67, 19
1, 340824, Note_on_c, 0, 56, 80
1, 340825, Note_on_c, 0, 38, 115
1, 340829, Note_on_c, 0, 50, 80
1, 340833, Control_c, 0, 64, 59
1, 340833, Control_c, 0, 67, 23
1, 340835, Note_on_c, 0, 57, 80
1, 340847, Control_c, 0, 64, 68
1, 340847, Control_c, 0, 67, 20
1, 340849, Note_off_c, 0, 56, 63
1, 340850, Note_off_c, 0, 38, 69
1, 340859, Note_off_c, 0, 57, 69
1, 340862, Control_c, 0, 64, 95
1, 340865, Note_off_c, 0, 50, 61
1, 340877, Control_c, 0, 64, 127
1, 340877, Control_c, 0, 67, 0
1, 340906, Control_c, 0, 67, 20
1, 340921, Control_c, 0, 67, 22
1, 340940, Note_on_c, 0, 56, 85
1, 340951, Control_c, 0, 67, 19
1, 340953, Note_on_c, 0, 57, 58
1, 340966, Note_off_c, 0, 56, 62
1, 340966, Control_c, 0, 67, 0
1, 340969, Note_on_c, 0, 50, 49
1, 340983, Note_off_c, 0, 57, 65
1, 340995, Control_c, 0, 67, 20
1, 340997, Note_off_c, 0, 50, 57
1, 341010, Control_c, 0, 67, 22
1, 341070, Control_c, 0, 64, 83
1, 341071, Note_on_c, 0, 50, 63
1, 341072, Note_on_c, 0, 57, 58
1, 341076, Note_on_c, 0, 56, 57
1, 341085, Control_c, 0, 64, 47
1, 341092, Note_off_c, 0, 57, 64
1, 341097, Note_off_c, 0, 50, 63
1, 341099, Control_c, 0, 64, 0
1, 341102, Note_off_c, 0, 56, 56
1, 341144, Control_c, 0, 67, 20
1, 341171, Note_on_c, 0, 62, 68
1, 341176, Note_on_c, 0, 56, 71
1, 341176, Note_on_c, 0, 57, 59
1, 341180, Note_on_c, 0, 50, 65
1, 341198, Note_off_c, 0, 62, 68
1, 341204, Note_off_c, 0, 56, 65
1, 341207, Note_on_c, 0, 71, 16
1, 341210, Note_off_c, 0, 50, 63
1, 341211, Note_off_c, 0, 57, 65
1, 341236, Note_off_c, 0, 71, 34
1, 341283, Note_on_c, 0, 56, 68
1, 341288, Note_on_c, 0, 50, 66
1, 341290, Note_on_c, 0, 64, 82
1, 341294, Note_on_c, 0, 71, 79
1, 341302, Note_on_c, 0, 57, 55
1, 341314, Note_off_c, 0, 56, 64
1, 341314, Note_off_c, 0, 64, 67
1, 341318, Note_off_c, 0, 71, 67
1, 341321, Note_off_c, 0, 50, 63
1, 341326, Note_off_c, 0, 57, 61
1, 341392, Note_on_c, 0, 56, 80
1, 341394, Note_on_c, 0, 50, 74
1, 341394, Note_on_c, 0, 57, 76
1, 341398, Note_on_c, 0, 65, 86
1, 341405, Note_on_c, 0, 72, 76
1, 341407, Note_on_c, 0, 71, 74
1, 341410, Control_c, 0, 67, 0
1, 341419, Note_off_c, 0, 65, 70
1, 341420, Note_off_c, 0, 56, 65
1, 341422, Note_off_c, 0, 57, 65
1, 341425, Note_off_c, 0, 50, 64
1, 341426, Note_off_c, 0, 72, 70
1, 341429, Note_off_c, 0, 71, 70
1, 341469, Control_c, 0, 67, 20
1, 341484, Control_c, 0, 64, 67
1, 341484, Control_c, 0, 67, 25
1, 341499, Note_on_c, 0, 67, 96
1, 341500, Note_on_c, 0, 56, 80
1, 341500, Control_c, 0, 64, 71
1, 341502, Note_on_c, 0, 57, 79
1, 341503, Note_on_c, 0, 50, 76
1, 341506, Note_on_c, 0, 74, 100
1, 341514, Control_c, 0, 64, 48
1, 341525, Note_off_c, 0, 56, 66
1, 341529, Note_off_c, 0, 57, 65
1, 341529, Control_c, 0, 64, 0
1, 341531, Note_off_c, 0, 50, 64
1, 341546, Note_off_c, 0, 67, 59
1, 341582, Control_c, 0, 67, 28
1, 341596, Control_c, 0, 67, 31
1, 341611, Control_c, 0, 67, 32
1, 341614, Note_off_c, 0, 74, 41
1, 341623, Note_on_c, 0, 56, 71
1, 341629, Note_on_c, 0, 68, 86
1, 341633, Note_on_c, 0, 57, 62
1, 341639, Note_on_c, 0, 50, 47
1, 341648, Note_off_c, 0, 56, 65
1, 341661, Note_off_c, 0, 57, 64
1, 341666, Note_off_c, 0, 50, 58
1, 341685, Control_c, 0, 67, 33
1, 341724, Note_on_c, 0, 56, 69
1, 341729, Control_c, 0, 67, 32
1, 341738, Note_on_c, 0, 57, 62
1, 341738, Note_on_c, 0, 66, 75
1, 341744, Note_on_c, 0, 50, 60
1, 341758, Note_off_c, 0, 56, 62
1, 341767, Note_off_c, 0, 68, 60
1, 341768, Note_off_c, 0, 57, 65
1, 341772, Note_off_c, 0, 50, 65
1, 341806, Note_off_c, 0, 66, 62
1, 341843, Note_on_c, 0, 57, 60
1, 341843, Note_on_c, 0, 69, 74
1, 341844, Note_on_c, 0, 56, 68
1, 341845, Note_on_c, 0, 50, 64
1, 341866, Note_off_c, 0, 69, 69
1, 341873, Note_off_c, 0, 50, 65
1, 341875, Note_off_c, 0, 56, 63
1, 341875, Note_off_c, 0, 57, 64
1, 341893, Control_c, 0, 67, 30
1, 341949, Note_on_c, 0, 56, 72
1, 341950, Note_on_c, 0, 67, 78
1, 341952, Note_on_c, 0, 50, 63
1, 341954, Note_on_c, 0, 57, 67
1, 341977, Note_off_c, 0, 56, 65
1, 341985, Note_off_c, 0, 57, 64
1, 341985, Note_off_c, 0, 50, 63
1, 342002, Note_on_c, 0, 65, 84
1, 342012, Note_off_c, 0, 67, 65
1, 342048, Note_on_c, 0, 64, 87
1, 342049, Note_off_c, 0, 65, 66
1, 342057, Note_on_c, 0, 56, 84
1, 342065, Note_on_c, 0, 50, 65
1, 342065, Note_on_c, 0, 57, 63
1, 342078, Note_off_c, 0, 64, 66
1, 342082, Note_off_c, 0, 56, 66
1, 342092, Note_off_c, 0, 50, 65
1, 342094, Note_off_c, 0, 57, 66
1, 342173, Note_on_c, 0, 50, 68
1, 342173, Note_on_c, 0, 57, 69
1, 342175, Note_on_c, 0, 56, 77
1, 342175, Control_c, 0, 64, 37
1, 342177, Note_on_c, 0, 62, 95
1, 342189, Control_c, 0, 64, 61
1, 342200, Note_off_c, 0, 56, 66
1, 342202, Note_off_c, 0, 57, 66
1, 342204, Control_c, 0, 64, 60
1, 342206, Note_off_c, 0, 50, 64
1, 342219, Control_c, 0, 64, 50
1, 342234, Control_c, 0, 64, 0
1, 342278, Control_c, 0, 64, 39
1, 342280, Note_on_c, 0, 56, 70
1, 342287, Note_on_c, 0, 57, 67
1, 342294, Control_c, 0, 64, 43
1, 342295, Note_on_c, 0, 50, 54
1, 342308, Note_off_c, 0, 56, 65
1, 342309, Control_c, 0, 64, 41
1, 342325, Note_off_c, 0, 57, 66
1, 342331, Control_c, 0, 64, 40
1, 342333, Note_off_c, 0, 50, 64
1, 342346, Control_c, 0, 64, 39
1, 342376, Control_c, 0, 64, 40
1, 342391, Control_c, 0, 64, 41
1, 342400, Note_on_c, 0, 56, 77
1, 342405, Control_c, 0, 64, 41
1, 342406, Note_on_c, 0, 57, 61
1, 342411, Note_on_c, 0, 50, 60
1, 342426, Note_off_c, 0, 56, 65
1, 342436, Note_off_c, 0, 57, 65
1, 342439, Note_off_c, 0, 50, 64
1, 342494, Control_c, 0, 64, 41
1, 342512, Note_on_c, 0, 56, 76
1, 342517, Note_on_c, 0, 57, 62
1, 342521, Note_on_c, 0, 68, 79
1, 342522, Note_on_c, 0, 50, 56
1, 342524, Control_c, 0, 64, 41
1, 342543, Note_off_c, 0, 56, 63
1, 342551, Note_off_c, 0, 57, 64
1, 342551, Note_off_c, 0, 50, 63
1, 342583, Control_c, 0, 64, 41
1, 342629, Note_on_c, 0, 56, 74
1, 342630, Note_on_c, 0, 57, 61
1, 342632, Note_on_c, 0, 66, 72
1, 342633, Note_on_c, 0, 50, 56
1, 342639, Note_off_c, 0, 68, 60
1, 342642, Control_c, 0, 64, 42
1, 342657, Note_off_c, 0, 56, 65
1, 342657, Control_c, 0, 64, 43
1, 342663, Note_off_c, 0, 50, 64
1, 342664, Note_off_c, 0, 57, 64
1, 342671, Control_c, 0, 64, 43
1, 342716, Control_c, 0, 64, 43
1, 342731, Control_c, 0, 64, 38
1, 342736, Note_on_c, 0, 56, 74
1, 342739, Note_on_c, 0, 50, 64
1, 342741, Note_on_c, 0, 57, 63
1, 342742, Note_on_c, 0, 69, 74
1, 342745, Control_c, 0, 64, 0
1, 342747, Note_off_c, 0, 66, 61
1, 342763, Note_off_c, 0, 56, 65
1, 342769, Note_off_c, 0, 50, 64
1, 342773, Note_off_c, 0, 57, 65
1, 342773, Note_off_c, 0, 69, 61
1, 342847, Note_on_c, 0, 56, 72
1, 342849, Note_on_c, 0, 57, 73
1, 342851, Note_on_c, 0, 50, 64
1, 342862, Note_on_c, 0, 67, 80
1, 342880, Note_off_c, 0, 56, 64
1, 342882, Note_off_c, 0, 50, 62
1, 342882, Note_off_c, 0, 57, 64
1, 342891, Note_on_c, 0, 69, 78
1, 342912, Note_off_c, 0, 67, 65
1, 342946, Note_on_c, 0, 71, 92
1, 342954, Note_on_c, 0, 56, 79
1, 342957, Note_on_c, 0, 50, 62
1, 342963, Note_off_c, 0, 69, 63
1, 342964, Note_on_c, 0, 57, 66
1, 342980, Note_off_c, 0, 56, 66
1, 342988, Note_off_c, 0, 50, 64
1, 342993, Note_off_c, 0, 71, 66
1, 342993, Note_off_c, 0, 57, 65
1, 343073, Note_on_c, 0, 57, 76
1, 343076, Note_on_c, 0, 56, 83
1, 343078, Note_on_c, 0, 50, 72
1, 343083, Note_on_c, 0, 72, 99
1, 343106, Note_off_c, 0, 56, 63
1, 343109, Control_c, 0, 64, 49
1, 343109, Note_off_c, 0, 57, 64
1, 343118, Note_off_c, 0, 50, 61
1, 343124, Control_c, 0, 64, 81
1, 343139, Control_c, 0, 64, 92
1, 343154, Control_c, 0, 64, 91
1, 343168, Control_c, 0, 64, 85
1, 343183, Control_c, 0, 64, 83
1, 343186, Note_on_c, 0, 56, 80
1, 343194, Note_on_c, 0, 57, 73
1, 343195, Note_on_c, 0, 50, 71
1, 343210, Note_off_c, 0, 56, 67
1, 343213, Note_off_c, 0, 72, 63
1, 343213, Control_c, 0, 64, 82
1, 343220, Note_off_c, 0, 57, 69
1, 343220, Note_off_c, 0, 62, 62
1, 343225, Note_off_c, 0, 50, 64
1, 343228, Control_c, 0, 64, 74
1, 343242, Control_c, 0, 64, 56
1, 343257, Control_c, 0, 64, 0
1, 343301, Note_on_c, 0, 50, 71
1, 343301, Note_on_c, 0, 56, 80
1, 343305, Note_on_c, 0, 57, 76
1, 343308, Note_on_c, 0, 74, 101
1, 343327, Note_off_c, 0, 56, 66
1, 343331, Control_c, 0, 67, 32
1, 343332, Note_off_c, 0, 57, 67
1, 343336, Note_off_c, 0, 50, 66
1, 343347, Note_off_c, 0, 74, 66
1, 343416, Note_on_c, 0, 56, 76
1, 343425, Note_on_c, 0, 68, 93
1, 343427, Note_on_c, 0, 57, 64
1, 343432, Note_on_c, 0, 50, 54
1, 343442, Note_off_c, 0, 56, 65
1, 343458, Note_off_c, 0, 57, 65
1, 343460, Note_off_c, 0, 50, 62
1, 343464, Control_c, 0, 67, 33
1, 343493, Control_c, 0, 67, 33
1, 343528, Note_on_c, 0, 56, 68
1, 343531, Note_on_c, 0, 57, 68
1, 343536, Note_on_c, 0, 50, 63
1, 343540, Note_on_c, 0, 66, 78
1, 343553, Control_c, 0, 67, 33
1, 343564, Note_off_c, 0, 57, 63
1, 343564, Note_off_c, 0, 68, 60
1, 343565, Note_off_c, 0, 56, 63
1, 343569, Note_off_c, 0, 50, 64
1, 343583, Control_c, 0, 67, 32
1, 343601, Note_off_c, 0, 66, 62
1, 343643, Note_on_c, 0, 69, 77
1, 343645, Note_on_c, 0, 56, 72
1, 343649, Note_on_c, 0, 50, 67
1, 343654, Note_on_c, 0, 57, 59
1, 343673, Note_off_c, 0, 56, 64
1, 343675, Note_off_c, 0, 69, 66
1, 343678, Note_off_c, 0, 50, 64
1, 343684, Note_off_c, 0, 57, 64
1, 343753, Note_on_c, 0, 67, 84
1, 343754, Note_on_c, 0, 56, 75
1, 343759, Note_on_c, 0, 50, 67
1, 343759, Note_on_c, 0, 57, 75
1, 343790, Note_off_c, 0, 56, 64
1, 343792, Note_off_c, 0, 57, 62
1, 343795, Note_off_c, 0, 50, 63
1, 343812, Note_on_c, 0, 65, 85
1, 343824, Note_off_c, 0, 67, 65
1, 343827, Control_c, 0, 67, 33
1, 343871, Note_on_c, 0, 64, 76
1, 343873, Note_off_c, 0, 65, 66
1, 343877, Note_on_c, 0, 62, 76
1, 343880, Note_on_c, 0, 56, 78
1, 343890, Note_on_c, 0, 57, 69
1, 343893, Note_on_c, 0, 50, 60
1, 343893, Note_off_c, 0, 64, 71
1, 343902, Note_off_c, 0, 62, 69
1, 343905, Note_off_c, 0, 56, 66
1, 343919, Note_off_c, 0, 57, 66
1, 343923, Note_off_c, 0, 50, 64
1, 343984, Note_on_c, 0, 56, 74
1, 343988, Note_on_c, 0, 63, 104
1, 343988, Note_on_c, 0, 57, 80
1, 343991, Note_on_c, 0, 50, 77
1, 343991, Control_c, 0, 64, 44
1, 344006, Control_c, 0, 64, 67
1, 344018, Note_off_c, 0, 57, 65
1, 344021, Control_c, 0, 64, 67
1, 344023, Note_off_c, 0, 56, 61
1, 344024, Note_off_c, 0, 50, 63
1, 344036, Control_c, 0, 64, 65
1, 344050, Control_c, 0, 64, 63
1, 344050, Control_c, 0, 67, 33
1, 344065, Control_c, 0, 64, 62
1, 344100, Note_on_c, 0, 56, 79
1, 344114, Note_on_c, 0, 57, 59
1, 344120, Note_on_c, 0, 50, 57
1, 344124, Note_off_c, 0, 56, 65
1, 344140, Note_off_c, 0, 57, 64
1, 344149, Note_off_c, 0, 50, 61
1, 344154, Control_c, 0, 67, 33
1, 344169, Control_c, 0, 64, 63
1, 344213, Control_c, 0, 67, 33
1, 344217, Note_on_c, 0, 57, 67
1, 344218, Note_on_c, 0, 56, 80
1, 344220, Note_off_c, 0, 63, 60
1, 344228, Control_c, 0, 64, 62
1, 344230, Note_on_c, 0, 50, 62
1, 344242, Control_c, 0, 64, 56
1, 344244, Note_off_c, 0, 56, 64
1, 344249, Note_off_c, 0, 57, 66
1, 344257, Control_c, 0, 64, 0
1, 344257, Control_c, 0, 67, 33
1, 344259, Note_off_c, 0, 50, 64
1, 344316, Control_c, 0, 67, 33
1, 344327, Note_on_c, 0, 56, 78
1, 344331, Control_c, 0, 67, 34
1, 344333, Note_on_c, 0, 50, 69
1, 344336, Note_on_c, 0, 57, 80
1, 344337, Note_on_c, 0, 66, 91
1, 344354, Note_off_c, 0, 56, 65
1, 344359, Note_off_c, 0, 57, 69
1, 344363, Note_off_c, 0, 50, 66
1, 344363, Note_off_c, 0, 66, 63
1, 344447, Note_on_c, 0, 56, 76
1, 344447, Note_on_c, 0, 57, 83
1, 344453, Note_on_c, 0, 65, 98
1, 344456, Note_on_c, 0, 50, 69
1, 344474, Note_off_c, 0, 56, 66
1, 344477, Note_off_c, 0, 57, 63
1, 344483, Note_off_c, 0, 50, 64
1, 344508, Note_on_c, 0, 64, 82
1, 344524, Control_c, 0, 67, 34
1, 344540, Note_off_c, 0, 65, 66
1, 344571, Note_on_c, 0, 56, 78
1, 344574, Note_on_c, 0, 50, 59
1, 344574, Note_on_c, 0, 62, 77
1, 344579, Note_on_c, 0, 57, 74
1, 344584, Note_off_c, 0, 64, 63
1, 344590, Control_c, 0, 67, 34
1, 344597, Note_off_c, 0, 56, 67
1, 344605, Note_off_c, 0, 57, 68
1, 344611, Note_off_c, 0, 50, 64
1, 344618, Note_on_c, 0, 60, 82
1, 344624, Note_off_c, 0, 62, 64
1, 344655, Note_off_c, 0, 60, 67
1, 344677, Note_on_c, 0, 57, 87
1, 344678, Note_on_c, 0, 56, 86
1, 344678, Note_on_c, 0, 62, 99
1, 344686, Note_on_c, 0, 50, 78
1, 344695, Control_c, 0, 64, 68
1, 344706, Note_off_c, 0, 56, 66
1, 344709, Note_off_c, 0, 57, 64
1, 344710, Note_off_c, 0, 62, 69
1, 344710, Control_c, 0, 64, 67
1, 344713, Note_off_c, 0, 50, 68
1, 344725, Control_c, 0, 64, 0
1, 344739, Control_c, 0, 67, 34
1, 344754, Control_c, 0, 67, 36
1, 344769, Control_c, 0, 67, 38
1, 344784, Control_c, 0, 67, 40
1, 344799, Control_c, 0, 67, 43
1, 344802, Note_on_c, 0, 56, 75
1, 344808, Note_on_c, 0, 57, 63
1, 344814, Control_c, 0, 67, 45
1, 344817, Note_on_c, 0, 50, 54
1, 344826, Note_off_c, 0, 56, 65
1, 344829, Control_c, 0, 67, 47
1, 344838, Note_off_c, 0, 57, 65
1, 344844, Control_c, 0, 67, 48
1, 344845, Note_off_c, 0, 50, 60
1, 344859, Control_c, 0, 67, 48
1, 344873, Control_c, 0, 67, 49
1, 344903, Note_on_c, 0, 56, 76
1, 344909, Note_on_c, 0, 57, 69
1, 344918, Control_c, 0, 67, 48
1, 344919, Note_on_c, 0, 50, 67
1, 344933, Control_c, 0, 67, 48
1, 344942, Note_off_c, 0, 56, 59
1, 344945, Note_off_c, 0, 57, 65
1, 344947, Control_c, 0, 67, 47
1, 344951, Note_off_c, 0, 50, 62
1, 345027, Note_on_c, 0, 50, 71
1, 345036, Note_on_c, 0, 56, 67
1, 345041, Note_on_c, 0, 57, 62
1, 345064, Note_off_c, 0, 56, 64
1, 345064, Note_off_c, 0, 50, 63
1, 345070, Note_off_c, 0, 57, 65
1, 345130, Note_on_c, 0, 56, 84
1, 345138, Note_on_c, 0, 57, 74
1, 345145, Note_on_c, 0, 50, 67
1, 345163, Note_off_c, 0, 56, 64
1, 345172, Note_off_c, 0, 57, 66
1, 345177, Note_off_c, 0, 50, 64
1, 345199, Control_c, 0, 67, 47
1, 345214, Control_c, 0, 67, 46
1, 345245, Note_on_c, 0, 38, 105
1, 345249, Note_on_c, 0, 50, 80
1, 345249, Note_on_c, 0, 56, 85
1, 345254, Note_on_c, 0, 57, 76
1, 345267, Note_on_c, 0, 39, 59
1, 345273, Note_off_c, 0, 56, 66
1, 345273, Control_c, 0, 64, 77
1, 345273, Control_c, 0, 67, 46
1, 345282, Note_off_c, 0, 57, 67
1, 345284, Note_off_c, 0, 50, 64
1, 345288, Control_c, 0, 64, 127
1, 345288, Control_c, 0, 67, 46
1, 345291, Note_off_c, 0, 38, 64
1, 345298, Note_off_c, 0, 39, 58
1, 345311, Control_c, 0, 67, 47
1, 345326, Control_c, 0, 67, 48
1, 345369, Note_on_c, 0, 56, 78
1, 345370, Control_c, 0, 67, 47
1, 345383, Note_on_c, 0, 57, 66
1, 345384, Control_c, 0, 67, 46
1, 345386, Note_on_c, 0, 50, 62
1, 345398, Note_off_c, 0, 56, 60
1, 345407, Note_off_c, 0, 57, 69
1, 345414, Control_c, 0, 67, 46
1, 345422, Note_off_c, 0, 50, 59
1, 345429, Control_c, 0, 67, 45
1, 345458, Control_c, 0, 67, 45
1, 345473, Control_c, 0, 67, 44
1, 345486, Note_on_c, 0, 56, 83
1, 345489, Control_c, 0, 67, 43
1, 345499, Note_on_c, 0, 57, 67
1, 345504, Control_c, 0, 67, 42
1, 345508, Note_off_c, 0, 56, 65
1, 345511, Note_on_c, 0, 50, 58
1, 345519, Control_c, 0, 67, 39
1, 345522, Note_off_c, 0, 57, 69
1, 345534, Control_c, 0, 67, 36
1, 345538, Note_off_c, 0, 50, 62
1, 345549, Control_c, 0, 67, 31
1, 345563, Control_c, 0, 67, 24
1, 345578, Control_c, 0, 67, 0
1, 345598, Note_on_c, 0, 56, 83
1, 345611, Note_on_c, 0, 50, 69
1, 345614, Note_on_c, 0, 57, 66
1, 345620, Note_off_c, 0, 56, 67
1, 345638, Note_off_c, 0, 57, 69
1, 345641, Note_off_c, 0, 50, 63
1, 345652, Control_c, 0, 64, 96
1, 345667, Control_c, 0, 64, 73
1, 345682, Control_c, 0, 64, 55
1, 345696, Control_c, 0, 64, 0
1, 345709, Note_on_c, 0, 56, 77
1, 345720, Note_on_c, 0, 50, 67
1, 345723, Note_on_c, 0, 57, 67
1, 345732, Note_off_c, 0, 56, 66
1, 345748, Note_off_c, 0, 50, 64
1, 345750, Note_off_c, 0, 57, 66
1, 345821, Note_on_c, 0, 57, 79
1, 345822, Note_on_c, 0, 38, 112
1, 345823, Note_on_c, 0, 50, 74
1, 345823, Note_on_c, 0, 56, 82
1, 345830, Control_c, 0, 67, 19
1, 345844, Note_off_c, 0, 38, 71
1, 345845, Control_c, 0, 64, 82
1, 345845, Control_c, 0, 67, 29
1, 345848, Note_off_c, 0, 56, 66
1, 345860, Note_off_c, 0, 50, 63
1, 345860, Note_off_c, 0, 57, 62
1, 345860, Control_c, 0, 64, 127
1, 345860, Control_c, 0, 67, 0
1, 345919, Control_c, 0, 67, 19
1, 345934, Control_c, 0, 67, 0
1, 345939, Note_on_c, 0, 56, 74
1, 345949, Note_on_c, 0, 57, 71
1, 345956, Note_on_c, 0, 50, 56
1, 345961, Note_off_c, 0, 56, 67
1, 345973, Note_off_c, 0, 57, 69
1, 345984, Note_off_c, 0, 50, 64
1, 346052, Note_on_c, 0, 56, 79
1, 346054, Note_on_c, 0, 50, 69
1, 346072, Note_on_c, 0, 57, 65
1, 346081, Note_off_c, 0, 56, 68
1, 346092, Note_off_c, 0, 50, 63
1, 346096, Note_off_c, 0, 57, 69
1, 346149, Control_c, 0, 64, 102
1, 346163, Control_c, 0, 64, 88
1, 346168, Note_on_c, 0, 56, 79
1, 346174, Note_on_c, 0, 57, 68
1, 346176, Note_on_c, 0, 50, 64
1, 346178, Control_c, 0, 64, 74
1, 346191, Note_off_c, 0, 56, 68
1, 346193, Control_c, 0, 64, 58
1, 346200, Note_off_c, 0, 50, 68
1, 346201, Note_off_c, 0, 57, 68
1, 346208, Control_c, 0, 64, 0
1, 346277, Note_on_c, 0, 56, 83
1, 346287, Note_on_c, 0, 57, 75
1, 346292, Note_on_c, 0, 50, 65
1, 346302, Note_off_c, 0, 56, 66
1, 346310, Note_off_c, 0, 57, 68
1, 346318, Note_off_c, 0, 50, 65
1, 346372, Control_c, 0, 67, 37
1, 346382, Note_on_c, 0, 38, 110
1, 346385, Note_on_c, 0, 50, 80
1, 346385, Note_on_c, 0, 56, 87
1, 346385, Note_on_c, 0, 57, 83
1, 346386, Control_c, 0, 67, 66
1, 346401, Control_c, 0, 64, 75
1, 346401, Control_c, 0, 67, 68
1, 346402, Note_off_c, 0, 38, 73
1, 346414, Note_off_c, 0, 56, 64
1, 346416, Note_off_c, 0, 57, 65
1, 346416, Control_c, 0, 64, 127
1, 346416, Control_c, 0, 67, 68
1, 346418, Note_off_c, 0, 50, 64
1, 346430, Control_c, 0, 67, 70
1, 346445, Control_c, 0, 67, 75
1, 346460, Control_c, 0, 67, 84
1, 346475, Control_c, 0, 67, 94
1, 346490, Control_c, 0, 67, 95
1, 346495, Note_on_c, 0, 56, 80
1, 346505, Control_c, 0, 67, 94
1, 346512, Note_on_c, 0, 57, 60
1, 346516, Note_on_c, 0, 50, 51
1, 346518, Note_off_c, 0, 56, 62
1, 346519, Control_c, 0, 67, 93
1, 346534, Control_c, 0, 67, 92
1, 346545, Note_off_c, 0, 50, 63
1, 346545, Note_off_c, 0, 57, 59
1, 346549, Control_c, 0, 67, 93
1, 346564, Control_c, 0, 67, 94
1, 346579, Control_c, 0, 67, 95
1, 346609, Control_c, 0, 64, 76
1, 346623, Note_on_c, 0, 50, 66
1, 346623, Control_c, 0, 64, 0
1, 346623, Control_c, 0, 67, 94
1, 346626, Note_on_c, 0, 57, 70
1, 346626, Note_on_c, 0, 56, 67
1, 346637, Control_c, 0, 67, 94
1, 346640, Note_on_c, 0, 81, 91
1, 346641, Note_on_c, 0, 74, 85
1, 346659, Note_off_c, 0, 56, 62
1, 346659, Note_off_c, 0, 74, 71
1, 346660, Note_off_c, 0, 81, 69
1, 346661, Note_off_c, 0, 57, 59
1, 346671, Note_off_c, 0, 50, 55
1, 346739, Note_on_c, 0, 56, 71
1, 346743, Note_on_c, 0, 57, 63
1, 346744, Note_on_c, 0, 76, 92
1, 346745, Note_on_c, 0, 83, 95
1, 346747, Note_on_c, 0, 50, 53
1, 346769, Note_off_c, 0, 56, 64
1, 346772, Note_off_c, 0, 76, 65
1, 346776, Note_off_c, 0, 57, 64
1, 346781, Note_off_c, 0, 83, 65
1, 346782, Note_off_c, 0, 50, 62
1, 346856, Note_on_c, 0, 56, 80
1, 346857, Note_on_c, 0, 57, 78
1, 346859, Note_on_c, 0, 77, 98
1, 346859, Note_on_c, 0, 84, 104
1, 346868, Note_on_c, 0, 50, 69
1, 346887, Note_off_c, 0, 56, 65
1, 346889, Note_off_c, 0, 77, 65
1, 346889, Note_off_c, 0, 84, 65
1, 346891, Note_off_c, 0, 57, 65
1, 346898, Note_off_c, 0, 50, 66
1, 346911, Control_c, 0, 67, 94
1, 346926, Control_c, 0, 67, 95
1, 346941, Control_c, 0, 64, 57
1, 346956, Control_c, 0, 64, 89
1, 346956, Control_c, 0, 67, 97
1, 346961, Note_on_c, 0, 79, 99
1, 346964, Note_on_c, 0, 86, 99
1, 346966, Note_on_c, 0, 57, 87
1, 346967, Note_on_c, 0, 56, 89
1, 346970, Note_on_c, 0, 50, 84
1, 346970, Control_c, 0, 64, 71
1, 346985, Control_c, 0, 64, 0
1, 346995, Note_off_c, 0, 56, 65
1, 346995, Note_off_c, 0, 57, 64
1, 346996, Note_off_c, 0, 79, 70
1, 347000, Control_c, 0, 67, 99
1, 347003, Note_off_c, 0, 50, 65
1, 347003, Note_off_c, 0, 86, 63
1, 347044, Control_c, 0, 67, 102
1, 347082, Note_on_c, 0, 80, 87
1, 347085, Note_on_c, 0, 56, 75
1, 347096, Note_on_c, 0, 57, 59
1, 347100, Note_on_c, 0, 50, 49
1, 347111, Note_off_c, 0, 56, 64
1, 347122, Note_off_c, 0, 57, 65
1, 347128, Note_off_c, 0, 50, 62
1, 347149, Control_c, 0, 67, 104
1, 347184, Note_on_c, 0, 56, 72
1, 347194, Note_on_c, 0, 57, 68
1, 347194, Note_on_c, 0, 78, 81
1, 347207, Note_on_c, 0, 50, 61
1, 347209, Note_off_c, 0, 80, 62
1, 347223, Note_off_c, 0, 57, 66
1, 347226, Note_off_c, 0, 56, 61
1, 347237, Note_off_c, 0, 50, 64
1, 347279, Note_off_c, 0, 78, 61
1, 347296, Note_on_c, 0, 81, 82
1, 347298, Note_on_c, 0, 56, 72
1, 347300, Note_on_c, 0, 57, 67
1, 347310, Note_on_c, 0, 50, 61
1, 347321, Note_off_c, 0, 81, 65
1, 347327, Note_off_c, 0, 56, 65
1, 347330, Note_off_c, 0, 57, 65
1, 347339, Note_off_c, 0, 50, 64
1, 347410, Note_on_c, 0, 56, 74
1, 347411, Note_on_c, 0, 79, 84
1, 347414, Note_on_c, 0, 50, 66
1, 347415, Note_on_c, 0, 57, 79
1, 347441, Note_off_c, 0, 56, 63
1, 347442, Note_off_c, 0, 57, 66
1, 347444, Note_off_c, 0, 50, 63
1, 347453, Note_on_c, 0, 77, 83
1, 347467, Note_off_c, 0, 79, 66
1, 347500, Note_on_c, 0, 76, 95
1, 347501, Note_off_c, 0, 77, 66
1, 347516, Note_on_c, 0, 56, 78
1, 347518, Note_on_c, 0, 50, 66
1, 347528, Note_on_c, 0, 57, 61
1, 347535, Note_off_c, 0, 76, 70
1, 347542, Note_off_c, 0, 56, 66
1, 347546, Note_off_c, 0, 50, 64
1, 347565, Note_off_c, 0, 57, 64
1, 347631, Control_c, 0, 67, 101
1, 347633, Note_on_c, 0, 56, 83
1, 347634, Note_on_c, 0, 57, 80
1, 347635, Note_on_c, 0, 50, 69
1, 347646, Control_c, 0, 64, 50
1, 347649, Note_on_c, 0, 74, 100
1, 347661, Control_c, 0, 64, 78
1, 347662, Note_off_c, 0, 56, 65
1, 347663, Note_off_c, 0, 57, 66
1, 347674, Note_off_c, 0, 50, 61
1, 347676, Control_c, 0, 64, 88
1, 347691, Control_c, 0, 64, 88
1, 347705, Control_c, 0, 64, 87
1, 347747, Note_on_c, 0, 56, 80
1, 347748, Note_off_c, 0, 74, 68
1, 347750, Note_on_c, 0, 57, 71
1, 347753, Note_on_c, 0, 50, 65
1, 347774, Note_off_c, 0, 57, 69
1, 347776, Note_off_c, 0, 56, 64
1, 347780, Control_c, 0, 64, 75
1, 347782, Note_off_c, 0, 50, 65
1, 347794, Control_c, 0, 64, 40
1, 347809, Control_c, 0, 64, 0
1, 347862, Note_on_c, 0, 56, 81
1, 347863, Note_on_c, 0, 50, 71
1, 347863, Note_on_c, 0, 57, 81
1, 347865, Note_on_c, 0, 69, 103
1, 347893, Note_off_c, 0, 56, 63
1, 347896, Note_on_c, 0, 67, 57
1, 347896, Note_off_c, 0, 67, 127
1, 347898, Note_off_c, 0, 57, 64
1, 347899, Control_c, 0, 64, 35
1, 347902, Note_off_c, 0, 50, 63
1, 347914, Control_c, 0, 64, 68
1, 347929, Control_c, 0, 64, 74
1, 347944, Control_c, 0, 64, 74
1, 347944, Control_c, 0, 67, 103
1, 347958, Control_c, 0, 64, 70
1, 347973, Control_c, 0, 64, 68
1, 347982, Note_on_c, 0, 56, 80
1, 347988, Note_on_c, 0, 57, 67
1, 347992, Note_on_c, 0, 50, 61
1, 347994, Note_on_c, 0, 75, 77
1, 348008, Note_off_c, 0, 56, 66
1, 348012, Note_off_c, 0, 57, 69
1, 348017, Control_c, 0, 64, 66
1, 348021, Note_off_c, 0, 50, 64
1, 348032, Control_c, 0, 64, 60
1, 348047, Control_c, 0, 64, 45
1, 348062, Control_c, 0, 64, 0
1, 348091, Control_c, 0, 64, 41
1, 348094, Note_on_c, 0, 56, 71
1, 348099, Note_on_c, 0, 50, 62
1, 348100, Note_on_c, 0, 57, 72
1, 348102, Note_on_c, 0, 73, 82
1, 348106, Control_c, 0, 64, 49
1, 348121, Control_c, 0, 64, 48
1, 348126, Note_off_c, 0, 75, 60
1, 348127, Note_off_c, 0, 56, 63
1, 348131, Note_off_c, 0, 57, 64
1, 348134, Note_off_c, 0, 50, 64
1, 348136, Control_c, 0, 64, 42
1, 348150, Control_c, 0, 64, 40
1, 348165, Control_c, 0, 64, 43
1, 348180, Control_c, 0, 64, 48
1, 348195, Control_c, 0, 64, 52
1, 348208, Note_off_c, 0, 73, 62
1, 348209, Note_on_c, 0, 76, 81
1, 348209, Control_c, 0, 64, 50
1, 348214, Note_on_c, 0, 56, 71
1, 348218, Note_on_c, 0, 50, 59
1, 348218, Note_on_c, 0, 57, 65
1, 348224, Control_c, 0, 64, 34
1, 348239, Control_c, 0, 64, 0
1, 348240, Note_off_c, 0, 56, 65
1, 348244, Note_off_c, 0, 76, 64
1, 348248, Note_off_c, 0, 50, 64
1, 348248, Note_off_c, 0, 57, 66
1, 348328, Note_on_c, 0, 56, 74
1, 348329, Note_on_c, 0, 57, 74
1, 348332, Note_on_c, 0, 50, 68
1, 348334, Note_on_c, 0, 74, 89
1, 348361, Note_off_c, 0, 56, 65
1, 348363, Note_off_c, 0, 57, 63
1, 348364, Note_on_c, 0, 76, 85
1, 348368, Note_off_c, 0, 50, 64
1, 348386, Note_off_c, 0, 74, 65
1, 348420, Note_on_c, 0, 78, 94
1, 348433, Note_off_c, 0, 76, 66
1, 348436, Note_on_c, 0, 56, 76
1, 348441, Note_on_c, 0, 57, 67
1, 348442, Note_on_c, 0, 50, 62
1, 348462, Note_off_c, 0, 56, 66
1, 348466, Note_off_c, 0, 78, 66
1, 348469, Note_off_c, 0, 57, 66
1, 348471, Note_off_c, 0, 50, 64
1, 348540, Note_on_c, 0, 57, 82
1, 348541, Note_on_c, 0, 56, 85
1, 348542, Note_on_c, 0, 50, 79
1, 348546, Note_on_c, 0, 79, 102
1, 348573, Control_c, 0, 64, 37
1, 348576, Note_off_c, 0, 56, 63
1, 348580, Note_off_c, 0, 57, 62
1, 348581, Note_off_c, 0, 50, 61
1, 348588, Control_c, 0, 64, 100
1, 348603, Note_on_c, 0, 52, 13
1, 348603, Control_c, 0, 64, 127
1, 348635, Note_off_c, 0, 69, 60
1, 348641, Note_off_c, 0, 79, 70
1, 348659, Note_off_c, 0, 52, 43
1, 348659, Note_on_c, 0, 56, 80
1, 348659, Note_on_c, 0, 57, 78
1, 348665, Note_on_c, 0, 50, 68
1, 348680, Note_off_c, 0, 56, 70
1, 348683, Note_off_c, 0, 57, 69
1, 348689, Note_off_c, 0, 50, 68
1, 348737, Control_c, 0, 64, 73
1, 348752, Control_c, 0, 64, 0
1, 348766, Note_on_c, 0, 50, 80
1, 348767, Note_on_c, 0, 56, 78
1, 348767, Note_on_c, 0, 57, 82
1, 348768, Note_on_c, 0, 86, 104
1, 348794, Note_off_c, 0, 56, 64
1, 348794, Note_off_c, 0, 57, 62
1, 348801, Note_off_c, 0, 50, 63
1, 348806, Note_off_c, 0, 86, 66
1, 348840, Control_c, 0, 67, 105
1, 348883, Note_on_c, 0, 56, 75
1, 348886, Note_on_c, 0, 57, 72
1, 348888, Note_on_c, 0, 50, 66
1, 348893, Note_on_c, 0, 80, 93
1, 348908, Note_off_c, 0, 56, 65
1, 348910, Note_off_c, 0, 57, 67
1, 348913, Note_off_c, 0, 50, 64
1, 348983, Note_on_c, 0, 56, 72
1, 348987, Note_on_c, 0, 50, 65
1, 348990, Note_on_c, 0, 57, 72
1, 349000, Note_on_c, 0, 78, 82
1, 349021, Note_off_c, 0, 56, 61
1, 349023, Note_off_c, 0, 80, 59
1, 349023, Note_off_c, 0, 50, 63
1, 349024, Note_off_c, 0, 57, 61
1, 349112, Note_on_c, 0, 81, 87
1, 349116, Note_on_c, 0, 56, 72
1, 349116, Note_on_c, 0, 57, 75
1, 349119, Note_on_c, 0, 50, 67
1, 349119, Note_off_c, 0, 78, 61
1, 349137, Note_off_c, 0, 81, 65
1, 349142, Note_off_c, 0, 56, 64
1, 349144, Note_off_c, 0, 57, 67
1, 349148, Note_off_c, 0, 50, 64
1, 349221, Note_on_c, 0, 56, 77
1, 349226, Note_on_c, 0, 57, 81
1, 349227, Note_on_c, 0, 50, 68
1, 349235, Note_on_c, 0, 72, 87
1, 349256, Note_off_c, 0, 57, 66
1, 349256, Note_off_c, 0, 56, 63
1, 349259, Note_off_c, 0, 50, 64
1, 349283, Note_on_c, 0, 74, 82
1, 349287, Note_off_c, 0, 72, 66
1, 349330, Note_on_c, 0, 76, 98
1, 349337, Note_on_c, 0, 56, 83
1, 349342, Note_off_c, 0, 74, 65
1, 349344, Note_on_c, 0, 50, 70
1, 349344, Note_on_c, 0, 57, 71
1, 349361, Note_off_c, 0, 56, 66
1, 349364, Note_off_c, 0, 76, 70
1, 349369, Note_off_c, 0, 57, 66
1, 349370, Note_off_c, 0, 50, 64
1, 349445, Note_on_c, 0, 57, 82
1, 349449, Note_on_c, 0, 50, 74
1, 349452, Note_on_c, 0, 56, 81
1, 349456, Note_on_c, 0, 77, 95
1, 349475, Note_off_c, 0, 56, 68
1, 349485, Note_off_c, 0, 57, 62
1, 349485, Control_c, 0, 64, 65
1, 349486, Note_off_c, 0, 50, 63
1, 349500, Control_c, 0, 64, 93
1, 349515, Control_c, 0, 64, 106
1, 349545, Control_c, 0, 64, 101
1, 349562, Note_on_c, 0, 56, 82
1, 349569, Note_on_c, 0, 57, 76
1, 349574, Note_on_c, 0, 50, 70
1, 349589, Note_off_c, 0, 57, 69
1, 349598, Note_off_c, 0, 56, 60
1, 349599, Note_off_c, 0, 50, 66
1, 349639, Note_off_c, 0, 77, 64
1, 349678, Note_on_c, 0, 50, 71
1, 349678, Note_on_c, 0, 56, 84
1, 349679, Note_on_c, 0, 57, 79
1, 349693, Control_c, 0, 67, 103
1, 349700, Note_off_c, 0, 56, 68
1, 349706, Note_off_c, 0, 50, 61
1, 349710, Note_off_c, 0, 57, 65
1, 349723, Control_c, 0, 64, 104
1, 349737, Control_c, 0, 64, 116
1, 349752, Control_c, 0, 64, 127
1, 349760, Note_on_c, 0, 65, 84
1, 349785, Note_off_c, 0, 65, 67
1, 349788, Note_on_c, 0, 56, 93
1, 349788, Note_on_c, 0, 57, 96
1, 349792, Note_on_c, 0, 50, 89
1, 349796, Control_c, 0, 64, 76
1, 349816, Note_off_c, 0, 57, 69
1, 349819, Control_c, 0, 64, 34
1, 349820, Note_off_c, 0, 50, 68
1, 349820, Note_off_c, 0, 56, 69
1, 349834, Control_c, 0, 64, 0
1, 349893, Control_c, 0, 67, 105
1, 349908, Note_on_c, 0, 67, 90
1, 349952, Control_c, 0, 67, 107
1, 349965, Note_on_c, 0, 69, 84
1, 349965, Note_off_c, 0, 67, 65
1, 349995, Note_on_c, 0, 70, 85
1, 350025, Note_off_c, 0, 69, 65
1, 350061, Note_on_c, 0, 72, 89
1, 350066, Note_off_c, 0, 70, 70
1, 350114, Control_c, 0, 64, 48
1, 350120, Note_on_c, 0, 67, 92
1, 350129, Control_c, 0, 64, 62
1, 350133, Note_off_c, 0, 72, 67
1, 350144, Control_c, 0, 64, 0
1, 350149, Note_off_c, 0, 67, 67
1, 350233, Control_c, 0, 67, 109
1, 350237, Note_on_c, 0, 63, 80
1, 350242, Note_on_c, 0, 64, 74
1, 350246, Note_on_c, 0, 57, 71
1, 350266, Note_off_c, 0, 63, 62
1, 350268, Note_off_c, 0, 64, 66
1, 350275, Note_off_c, 0, 57, 67
1, 350361, Note_on_c, 0, 63, 75
1, 350364, Note_on_c, 0, 64, 74
1, 350369, Note_on_c, 0, 57, 69
1, 350386, Note_off_c, 0, 63, 69
1, 350395, Note_off_c, 0, 64, 63
1, 350399, Note_off_c, 0, 57, 67
1, 350468, Note_on_c, 0, 63, 81
1, 350475, Note_on_c, 0, 64, 69
1, 350477, Note_on_c, 0, 57, 67
1, 350491, Note_off_c, 0, 63, 67
1, 350502, Note_off_c, 0, 64, 67
1, 350506, Note_off_c, 0, 57, 66
1, 350581, Note_on_c, 0, 63, 83
1, 350583, Note_on_c, 0, 57, 76
1, 350585, Note_on_c, 0, 64, 75
1, 350603, Note_off_c, 0, 63, 69
1, 350612, Note_off_c, 0, 64, 63
1, 350615, Note_off_c, 0, 57, 64
1, 350672, Control_c, 0, 64, 58
1, 350681, Note_on_c, 0, 63, 92
1, 350686, Control_c, 0, 64, 127
1, 350687, Note_on_c, 0, 45, 107
1, 350687, Note_on_c, 0, 64, 78
1, 350695, Note_on_c, 0, 57, 78
1, 350706, Note_off_c, 0, 45, 73
1, 350708, Note_off_c, 0, 63, 61
1, 350716, Control_c, 0, 67, 107
1, 350719, Note_off_c, 0, 64, 62
1, 350721, Note_off_c, 0, 57, 68
1, 350771, Poly_aftertouch_c, 0, 43, 127
1, 350800, Poly_aftertouch_c, 0, 46, 0
1, 350803, Note_on_c, 0, 63, 80
1, 350805, Control_c, 0, 67, 104
1, 350806, Poly_aftertouch_c, 0, 43, 0
1, 350808, Note_on_c, 0, 57, 64
1, 350812, Note_on_c, 0, 64, 70
1, 350833, Note_off_c, 0, 63, 64
1, 350838, Note_off_c, 0, 64, 65
1, 350841, Note_off_c, 0, 57, 61
1, 350850, Control_c, 0, 67, 102
1, 350879, Control_c, 0, 67, 100
1, 350894, Control_c, 0, 67, 96
1, 350909, Control_c, 0, 67, 84
1, 350915, Note_on_c, 0, 63, 82
1, 350923, Control_c, 0, 67, 66
1, 350925, Note_on_c, 0, 64, 73
1, 350925, Note_on_c, 0, 57, 77
1, 350934, Note_off_c, 0, 63, 68
1, 350938, Control_c, 0, 67, 39
1, 350950, Note_off_c, 0, 64, 65
1, 350953, Note_off_c, 0, 57, 67
1, 350953, Control_c, 0, 67, 0
1, 351012, Control_c, 0, 64, 110
1, 351027, Control_c, 0, 64, 74
1, 351029, Note_on_c, 0, 63, 80
1, 351031, Note_on_c, 0, 64, 78
1, 351036, Note_on_c, 0, 57, 72
1, 351037, Note_on_c, 0, 45, 100
1, 351042, Control_c, 0, 64, 63
1, 351057, Note_off_c, 0, 63, 65
1, 351057, Control_c, 0, 64, 65
1, 351062, Note_off_c, 0, 45, 67
1, 351062, Note_off_c, 0, 64, 59
1, 351073, Control_c, 0, 64, 78
1, 351076, Note_off_c, 0, 57, 65
1, 351088, Control_c, 0, 64, 127
1, 351158, Note_on_c, 0, 63, 73
1, 351162, Note_on_c, 0, 57, 69
1, 351166, Note_on_c, 0, 64, 68
1, 351181, Note_off_c, 0, 63, 69
1, 351196, Note_off_c, 0, 57, 58
1, 351202, Note_off_c, 0, 64, 64
1, 351274, Note_on_c, 0, 63, 74
1, 351280, Note_on_c, 0, 64, 67
1, 351286, Note_on_c, 0, 57, 62
1, 351306, Note_off_c, 0, 63, 67
1, 351316, Note_off_c, 0, 64, 60
1, 351320, Note_off_c, 0, 57, 67
1, 351397, Note_on_c, 0, 63, 74
1, 351412, Note_on_c, 0, 57, 65
1, 351414, Note_on_c, 0, 64, 56
1, 351426, Note_off_c, 0, 63, 65
1, 351437, Note_off_c, 0, 57, 68
1, 351437, Note_off_c, 0, 64, 64
1, 351504, Note_on_c, 0, 63, 81
1, 351516, Note_on_c, 0, 64, 69
1, 351517, Note_on_c, 0, 57, 69
1, 351545, Note_off_c, 0, 63, 62
1, 351545, Note_off_c, 0, 57, 67
1, 351546, Note_off_c, 0, 64, 63
1, 351611, Note_on_c, 0, 63, 83
1, 351615, Note_on_c, 0, 64, 72
1, 351619, Note_on_c, 0, 45, 101
1, 351637, Note_on_c, 0, 57, 56
1, 351640, Note_off_c, 0, 63, 66
1, 351640, Note_off_c, 0, 45, 71
1, 351640, Note_off_c, 0, 64, 64
1, 351643, Note_on_c, 0, 46, 52
1, 351643, Note_off_c, 0, 46, 127
1, 351663, Note_off_c, 0, 57, 57
1, 351733, Note_on_c, 0, 63, 78
1, 351739, Note_on_c, 0, 57, 61
1, 351741, Note_on_c, 0, 64, 64
1, 351764, Note_off_c, 0, 63, 63
1, 351771, Note_off_c, 0, 57, 64
1, 351775, Note_off_c, 0, 64, 64
1, 351790, Control_c, 0, 67, 27
1, 351805, Control_c, 0, 67, 36
1, 351820, Control_c, 0, 67, 42
1, 351834, Control_c, 0, 67, 44
1, 351849, Control_c, 0, 67, 45
1, 351854, Note_on_c, 0, 64, 67
1, 351855, Note_on_c, 0, 57, 63
1, 351856, Note_on_c, 0, 63, 67
1, 351864, Control_c, 0, 67, 49
1, 351880, Control_c, 0, 67, 61
1, 351883, Note_off_c, 0, 64, 62
1, 351885, Note_off_c, 0, 63, 67
1, 351891, Note_off_c, 0, 57, 61
1, 351895, Control_c, 0, 67, 78
1, 351910, Control_c, 0, 67, 91
1, 351924, Control_c, 0, 67, 99
1, 351939, Control_c, 0, 64, 82
1, 351939, Control_c, 0, 67, 107
1, 351954, Control_c, 0, 64, 63
1, 351954, Control_c, 0, 67, 118
1, 351964, Note_on_c, 0, 69, 79
1, 351968, Control_c, 0, 64, 57
1, 351968, Control_c, 0, 67, 127
1, 351983, Control_c, 0, 64, 62
1, 351998, Control_c, 0, 64, 70
1, 352013, Control_c, 0, 64, 81
1, 352028, Control_c, 0, 64, 94
1, 352050, Control_c, 0, 64, 98
1, 352065, Control_c, 0, 64, 100
1, 352080, Control_c, 0, 64, 104
1, 352109, Note_on_c, 0, 73, 83
1, 352109, Note_off_c, 0, 69, 54
1, 352110, Note_on_c, 0, 63, 60
1, 352115, Note_on_c, 0, 64, 60
1, 352118, Note_on_c, 0, 57, 64
1, 352125, Control_c, 0, 64, 96
1, 352126, Note_on_c, 0, 75, 79
1, 352139, Control_c, 0, 64, 91
1, 352154, Control_c, 0, 64, 90
1, 352166, Note_off_c, 0, 73, 63
1, 352169, Control_c, 0, 64, 91
1, 352174, Note_off_c, 0, 64, 51
1, 352175, Note_off_c, 0, 57, 49
1, 352177, Note_off_c, 0, 63, 56
1, 352183, Control_c, 0, 64, 93
1, 352198, Control_c, 0, 64, 97
1, 352199, Note_on_c, 0, 76, 91
1, 352213, Control_c, 0, 64, 100
1, 352215, Note_on_c, 0, 69, 77
1, 352223, Note_off_c, 0, 75, 63
1, 352228, Control_c, 0, 64, 103
1, 352243, Control_c, 0, 64, 115
1, 352244, Note_off_c, 0, 69, 65
1, 352256, Note_off_c, 0, 76, 67
1, 352257, Control_c, 0, 64, 127
1, 352287, Control_c, 0, 64, 112
1, 352302, Control_c, 0, 64, 83
1, 352316, Note_on_c, 0, 63, 64
1, 352317, Control_c, 0, 64, 68
1, 352321, Note_on_c, 0, 73, 85
1, 352321, Note_on_c, 0, 75, 85
1, 352325, Note_on_c, 0, 64, 58
1, 352332, Note_on_c, 0, 57, 54
1, 352332, Control_c, 0, 64, 64
1, 352347, Control_c, 0, 64, 68
1, 352362, Control_c, 0, 64, 78
1, 352364, Note_off_c, 0, 64, 61
1, 352369, Note_off_c, 0, 57, 63
1, 352369, Note_off_c, 0, 63, 61
1, 352376, Control_c, 0, 64, 98
1, 352385, Note_off_c, 0, 73, 56
1, 352391, Control_c, 0, 64, 127
1, 352434, Note_on_c, 0, 69, 81
1, 352434, Note_on_c, 0, 76, 89
1, 352445, Note_off_c, 0, 75, 62
1, 352488, Note_off_c, 0, 69, 63
1, 352532, Note_off_c, 0, 76, 40
1, 352541, Note_on_c, 0, 73, 83
1, 352545, Note_on_c, 0, 63, 56
1, 352547, Note_on_c, 0, 75, 77
1, 352556, Note_on_c, 0, 64, 57
1, 352561, Note_on_c, 0, 57, 51
1, 352587, Note_off_c, 0, 63, 60
1, 352588, Note_off_c, 0, 73, 61
1, 352591, Note_off_c, 0, 64, 65
1, 352594, Note_off_c, 0, 75, 60
1, 352595, Note_off_c, 0, 57, 62
1, 352670, Note_on_c, 0, 73, 85
1, 352672, Note_on_c, 0, 69, 78
1, 352674, Control_c, 0, 64, 108
1, 352689, Control_c, 0, 64, 103
1, 352748, Control_c, 0, 64, 105
1, 352769, Note_off_c, 0, 69, 45
1, 352782, Note_on_c, 0, 64, 60
1, 352784, Note_on_c, 0, 71, 82
1, 352785, Note_on_c, 0, 63, 63
1, 352785, Note_on_c, 0, 57, 58
1, 352824, Note_off_c, 0, 73, 60
1, 352827, Note_off_c, 0, 64, 56
1, 352828, Note_off_c, 0, 63, 62
1, 352836, Note_off_c, 0, 71, 64
1, 352837, Note_off_c, 0, 57, 60
1, 352907, Note_on_c, 0, 69, 77
1, 352910, Note_on_c, 0, 73, 84
1, 352978, Control_c, 0, 64, 107
1, 352982, Note_off_c, 0, 69, 54
1, 353009, Note_on_c, 0, 75, 78
1, 353018, Note_on_c, 0, 63, 62
1, 353022, Note_on_c, 0, 64, 64
1, 353031, Note_on_c, 0, 57, 57
1, 353035, Note_off_c, 0, 73, 61
1, 353058, Note_off_c, 0, 75, 63
1, 353061, Note_off_c, 0, 63, 55
1, 353065, Note_off_c, 0, 64, 56
1, 353074, Note_off_c, 0, 57, 60
1, 353137, Note_on_c, 0, 76, 84
1, 353140, Control_c, 0, 64, 109
1, 353143, Note_on_c, 0, 69, 73
1, 353185, Control_c, 0, 64, 112
1, 353199, Control_c, 0, 64, 115
1, 353214, Control_c, 0, 64, 124
1, 353229, Control_c, 0, 64, 127
1, 353241, Note_off_c, 0, 76, 63
1, 353244, Note_on_c, 0, 75, 71
1, 353247, Note_on_c, 0, 63, 62
1, 353249, Note_off_c, 0, 69, 51
1, 353251, Note_on_c, 0, 64, 63
1, 353261, Note_on_c, 0, 57, 55
1, 353270, Note_off_c, 0, 75, 67
1, 353288, Note_off_c, 0, 63, 60
1, 353292, Note_off_c, 0, 64, 59
1, 353293, Note_off_c, 0, 57, 64
1, 353366, Note_on_c, 0, 69, 77
1, 353367, Note_on_c, 0, 73, 79
1, 353468, Note_off_c, 0, 69, 56
1, 353472, Note_on_c, 0, 63, 62
1, 353479, Note_on_c, 0, 64, 61
1, 353481, Note_on_c, 0, 71, 82
1, 353491, Note_on_c, 0, 57, 52
1, 353515, Note_off_c, 0, 64, 60
1, 353520, Note_off_c, 0, 63, 61
1, 353523, Note_off_c, 0, 57, 62
1, 353526, Note_off_c, 0, 71, 62
1, 353536, Note_off_c, 0, 73, 24
1, 353599, Note_on_c, 0, 69, 82
1, 353606, Note_on_c, 0, 73, 79
1, 353652, Note_off_c, 0, 69, 61
1, 353661, Note_off_c, 0, 73, 61
1, 353697, Control_c, 0, 67, 123
1, 353703, Note_on_c, 0, 63, 63
1, 353708, Note_on_c, 0, 64, 61
1, 353712, Note_on_c, 0, 75, 82
1, 353712, Control_c, 0, 67, 120
1, 353718, Note_on_c, 0, 57, 57
1, 353727, Control_c, 0, 67, 114
1, 353736, Note_off_c, 0, 63, 63
1, 353742, Control_c, 0, 67, 103
1, 353746, Note_off_c, 0, 64, 63
1, 353751, Note_off_c, 0, 57, 65
1, 353756, Control_c, 0, 67, 89
1, 353760, Note_off_c, 0, 75, 62
1, 353771, Control_c, 0, 67, 74
1, 353786, Control_c, 0, 67, 62
1, 353801, Control_c, 0, 67, 51
1, 353816, Control_c, 0, 67, 34
1, 353825, Note_on_c, 0, 76, 91
1, 353827, Note_on_c, 0, 69, 88
1, 353830, Control_c, 0, 67, 0
1, 353844, Note_off_c, 0, 76, 73
1, 353848, Note_off_c, 0, 69, 70
1, 353944, Note_on_c, 0, 63, 55
1, 353947, Note_on_c, 0, 64, 59
1, 353953, Note_on_c, 0, 57, 54
1, 353976, Note_off_c, 0, 63, 65
1, 353999, Note_off_c, 0, 57, 57
1, 354002, Note_off_c, 0, 64, 60
1, 354058, Note_on_c, 0, 45, 102
1, 354078, Note_off_c, 0, 45, 71
1, 354192, Note_on_c, 0, 64, 61
1, 354198, Note_on_c, 0, 63, 63
1, 354215, Note_on_c, 0, 57, 50
1, 354233, Note_off_c, 0, 63, 64
1, 354240, Note_off_c, 0, 64, 58
1, 354252, Note_off_c, 0, 57, 62
1, 354309, Note_on_c, 0, 69, 87
1, 354433, Note_off_c, 0, 69, 62
1, 354434, Note_on_c, 0, 63, 65
1, 354442, Note_on_c, 0, 57, 55
1, 354443, Note_on_c, 0, 64, 62
1, 354448, Note_on_c, 0, 73, 80
1, 354477, Note_on_c, 0, 75, 83
1, 354490, Note_off_c, 0, 57, 58
1, 354494, Note_off_c, 0, 64, 51
1, 354496, Note_off_c, 0, 63, 61
1, 354503, Note_off_c, 0, 73, 61
1, 354550, Note_on_c, 0, 76, 90
1, 354556, Note_on_c, 0, 69, 77
1, 354563, Note_off_c, 0, 75, 64
1, 354606, Note_off_c, 0, 69, 60
1, 354651, Note_off_c, 0, 76, 62
1, 354665, Note_on_c, 0, 63, 66
1, 354669, Note_on_c, 0, 64, 61
1, 354669, Note_on_c, 0, 73, 87
1, 354669, Note_on_c, 0, 75, 84
1, 354671, Note_on_c, 0, 57, 61
1, 354700, Note_off_c, 0, 63, 61
1, 354703, Note_off_c, 0, 64, 58
1, 354706, Note_off_c, 0, 57, 60
1, 354707, Note_off_c, 0, 73, 64
1, 354710, Note_off_c, 0, 75, 66
1, 354786, Note_on_c, 0, 78, 101
1, 354788, Note_on_c, 0, 69, 84
1, 354817, Note_on_c, 0, 71, 52
1, 354817, Note_off_c, 0, 71, 127
1, 354893, Note_off_c, 0, 69, 31
1, 354897, Note_on_c, 0, 63, 56
1, 354901, Note_on_c, 0, 64, 55
1, 354903, Note_on_c, 0, 75, 81
1, 354904, Note_off_c, 0, 78, 60
1, 354905, Note_on_c, 0, 57, 56
1, 354907, Note_on_c, 0, 73, 79
1, 354930, Note_off_c, 0, 73, 67
1, 354940, Note_off_c, 0, 64, 58
1, 354943, Note_off_c, 0, 63, 62
1, 354947, Note_off_c, 0, 75, 63
1, 354949, Note_off_c, 0, 57, 59
1, 355024, Note_on_c, 0, 73, 92
1, 355026, Note_on_c, 0, 69, 77
1, 355059, Control_c, 0, 64, 95
1, 355075, Control_c, 0, 64, 85
1, 355090, Control_c, 0, 64, 85
1, 355105, Control_c, 0, 64, 89
1, 355120, Control_c, 0, 64, 96
1, 355134, Control_c, 0, 64, 104
1, 355143, Note_on_c, 0, 63, 59
1, 355147, Note_on_c, 0, 71, 84
1, 355149, Control_c, 0, 64, 106
1, 355150, Note_on_c, 0, 64, 60
1, 355151, Note_on_c, 0, 57, 58
1, 355151, Note_off_c, 0, 69, 49
1, 355170, Note_off_c, 0, 73, 58
1, 355179, Control_c, 0, 64, 111
1, 355190, Note_off_c, 0, 64, 58
1, 355191, Note_off_c, 0, 71, 66
1, 355193, Note_off_c, 0, 63, 59
1, 355194, Control_c, 0, 64, 119
1, 355195, Note_off_c, 0, 57, 56
1, 355208, Control_c, 0, 64, 127
1, 355260, Note_on_c, 0, 69, 89
1, 355264, Note_on_c, 0, 73, 93
1, 355340, Note_off_c, 0, 69, 60
1, 355369, Note_on_c, 0, 75, 91
1, 355375, Note_on_c, 0, 63, 71
1, 355378, Note_on_c, 0, 64, 71
1, 355382, Note_on_c, 0, 57, 69
1, 355393, Note_off_c, 0, 73, 61
1, 355407, Note_off_c, 0, 75, 67
1, 355423, Note_off_c, 0, 63, 60
1, 355426, Note_off_c, 0, 64, 57
1, 355429, Note_off_c, 0, 57, 58
1, 355446, Control_c, 0, 64, 96
1, 355461, Control_c, 0, 64, 88
1, 355475, Control_c, 0, 64, 90
1, 355486, Note_on_c, 0, 69, 90
1, 355487, Note_on_c, 0, 78, 98
1, 355490, Control_c, 0, 64, 106
1, 355505, Control_c, 0, 64, 127
1, 355579, Control_c, 0, 67, 19
1, 355593, Note_on_c, 0, 63, 66
1, 355599, Note_on_c, 0, 64, 62
1, 355605, Note_on_c, 0, 57, 63
1, 355605, Note_on_c, 0, 75, 75
1, 355608, Note_on_c, 0, 73, 72
1, 355608, Control_c, 0, 67, 21
1, 355611, Note_off_c, 0, 69, 59
1, 355611, Note_off_c, 0, 78, 62
1, 355632, Note_off_c, 0, 73, 69
1, 355636, Note_off_c, 0, 75, 65
1, 355638, Control_c, 0, 67, 19
1, 355639, Note_off_c, 0, 57, 61
1, 355639, Note_off_c, 0, 63, 58
1, 355639, Note_off_c, 0, 64, 61
1, 355653, Control_c, 0, 67, 0
1, 355727, Note_on_c, 0, 73, 86
1, 355730, Note_on_c, 0, 69, 76
1, 355830, Note_off_c, 0, 69, 56
1, 355838, Note_on_c, 0, 63, 71
1, 355840, Note_on_c, 0, 64, 67
1, 355844, Note_on_c, 0, 57, 61
1, 355850, Note_on_c, 0, 71, 86
1, 355855, Note_off_c, 0, 73, 53
1, 355877, Note_off_c, 0, 63, 61
1, 355877, Note_off_c, 0, 64, 61
1, 355885, Note_off_c, 0, 57, 63
1, 355895, Note_off_c, 0, 71, 62
1, 355961, Note_on_c, 0, 69, 92
1, 355967, Note_on_c, 0, 73, 93
1, 355987, Control_c, 0, 64, 107
1, 356002, Control_c, 0, 64, 74
1, 356016, Note_off_c, 0, 69, 62
1, 356017, Control_c, 0, 64, 65
1, 356031, Control_c, 0, 64, 69
1, 356046, Control_c, 0, 64, 90
1, 356061, Control_c, 0, 64, 127
1, 356073, Note_on_c, 0, 63, 78
1, 356073, Note_off_c, 0, 73, 0
1, 356076, Note_on_c, 0, 64, 77
1, 356082, Note_on_c, 0, 57, 71
1, 356084, Note_on_c, 0, 75, 91
1, 356102, Note_off_c, 0, 63, 63
1, 356103, Note_on_c, 0, 73, 22
1, 356103, Note_off_c, 0, 64, 65
1, 356109, Note_off_c, 0, 57, 68
1, 356131, Note_off_c, 0, 75, 66
1, 356144, Note_off_c, 0, 73, 53
1, 356201, Note_on_c, 0, 69, 97
1, 356240, Note_off_c, 0, 69, 65
1, 356307, Note_on_c, 0, 63, 74
1, 356311, Note_on_c, 0, 64, 75
1, 356320, Note_on_c, 0, 57, 63
1, 356340, Note_off_c, 0, 63, 61
1, 356353, Note_off_c, 0, 57, 64
1, 356355, Note_off_c, 0, 64, 58
1, 356416, Note_on_c, 0, 81, 97
1, 356419, Note_on_c, 0, 80, 95
1, 356440, Note_off_c, 0, 80, 65
1, 356440, Note_off_c, 0, 81, 64
1, 356535, Note_on_c, 0, 63, 61
1, 356539, Note_on_c, 0, 64, 64
1, 356559, Note_on_c, 0, 57, 53
1, 356577, Note_off_c, 0, 63, 64
1, 356589, Note_off_c, 0, 64, 59
1, 356598, Note_off_c, 0, 57, 60
1, 356681, Note_on_c, 0, 45, 101
1, 356693, Note_on_c, 0, 47, 65
1, 356702, Note_off_c, 0, 45, 67
1, 356714, Note_off_c, 0, 47, 61
1, 356795, Note_on_c, 0, 63, 57
1, 356799, Note_on_c, 0, 64, 65
1, 356801, Note_on_c, 0, 57, 62
1, 356831, Note_off_c, 0, 63, 64
1, 356833, Note_off_c, 0, 64, 58
1, 356837, Note_off_c, 0, 57, 62
1, 356912, Note_on_c, 0, 69, 86
1, 356913, Control_c, 0, 64, 81
1, 356928, Control_c, 0, 64, 73
1, 356943, Control_c, 0, 64, 76
1, 356958, Control_c, 0, 64, 94
1, 356973, Control_c, 0, 64, 127
1, 357037, Note_on_c, 0, 63, 72
1, 357042, Note_on_c, 0, 64, 72
1, 357042, Note_off_c, 0, 69, 62
1, 357048, Note_on_c, 0, 57, 65
1, 357049, Note_on_c, 0, 73, 87
1, 357081, Note_on_c, 0, 75, 82
1, 357094, Note_off_c, 0, 63, 61
1, 357095, Note_off_c, 0, 57, 57
1, 357100, Note_off_c, 0, 64, 61
1, 357102, Note_off_c, 0, 73, 62
1, 357152, Note_on_c, 0, 76, 99
1, 357156, Note_on_c, 0, 69, 88
1, 357170, Note_off_c, 0, 75, 63
1, 357197, Note_off_c, 0, 69, 64
1, 357198, Note_off_c, 0, 76, 64
1, 357265, Note_on_c, 0, 63, 75
1, 357271, Note_on_c, 0, 75, 92
1, 357275, Note_on_c, 0, 64, 64
1, 357277, Note_on_c, 0, 73, 88
1, 357282, Note_on_c, 0, 57, 65
1, 357310, Note_off_c, 0, 73, 59
1, 357316, Note_off_c, 0, 64, 61
1, 357321, Note_off_c, 0, 75, 65
1, 357323, Note_off_c, 0, 57, 62
1, 357330, Note_off_c, 0, 63, 61
1, 357396, Note_on_c, 0, 69, 84
1, 357414, Note_off_c, 0, 69, 72
1, 357506, Note_on_c, 0, 63, 68
1, 357517, Note_on_c, 0, 64, 70
1, 357522, Note_on_c, 0, 57, 54
1, 357559, Note_off_c, 0, 63, 62
1, 357562, Note_off_c, 0, 64, 59
1, 357569, Note_off_c, 0, 57, 61
1, 357630, Note_on_c, 0, 45, 100
1, 357648, Note_off_c, 0, 45, 73
1, 357743, Note_on_c, 0, 63, 67
1, 357748, Note_on_c, 0, 64, 61
1, 357757, Note_on_c, 0, 57, 54
1, 357787, Note_off_c, 0, 63, 56
1, 357798, Note_off_c, 0, 57, 57
1, 357799, Note_off_c, 0, 64, 58
1, 357861, Note_on_c, 0, 81, 101
1, 357864, Note_on_c, 0, 80, 93
1, 357881, Note_off_c, 0, 81, 68
1, 357882, Note_off_c, 0, 80, 69
1, 357979, Note_on_c, 0, 63, 64
1, 357983, Note_on_c, 0, 64, 72
1, 357985, Note_on_c, 0, 57, 68
1, 358014, Note_off_c, 0, 63, 65
1, 358016, Note_off_c, 0, 64, 61
1, 358020, Note_off_c, 0, 57, 61
1, 358100, Note_on_c, 0, 69, 79
1, 358115, Control_c, 0, 64, 90
1, 358129, Control_c, 0, 64, 65
1, 358144, Control_c, 0, 64, 59
1, 358159, Control_c, 0, 64, 66
1, 358174, Control_c, 0, 64, 82
1, 358189, Control_c, 0, 64, 127
1, 358223, Note_on_c, 0, 73, 83
1, 358232, Note_on_c, 0, 63, 64
1, 358236, Note_on_c, 0, 64, 67
1, 358240, Note_on_c, 0, 57, 61
1, 358241, Note_off_c, 0, 69, 62
1, 358273, Note_on_c, 0, 75, 87
1, 358280, Note_off_c, 0, 73, 62
1, 358305, Note_off_c, 0, 63, 58
1, 358306, Note_off_c, 0, 64, 58
1, 358308, Control_c, 0, 64, 87
1, 358310, Note_off_c, 0, 57, 59
1, 358323, Control_c, 0, 64, 77
1, 358329, Note_on_c, 0, 78, 101
1, 358335, Note_on_c, 0, 69, 93
1, 358337, Control_c, 0, 64, 82
1, 358346, Note_off_c, 0, 75, 66
1, 358352, Control_c, 0, 64, 106
1, 358367, Control_c, 0, 64, 127
1, 358397, Control_c, 0, 67, 19
1, 358426, Note_off_c, 0, 69, 59
1, 358445, Note_on_c, 0, 71, 74
1, 358446, Note_on_c, 0, 64, 63
1, 358449, Note_on_c, 0, 63, 63
1, 358464, Note_on_c, 0, 57, 53
1, 358469, Note_off_c, 0, 78, 58
1, 358486, Note_off_c, 0, 63, 61
1, 358492, Note_off_c, 0, 71, 63
1, 358495, Note_off_c, 0, 64, 59
1, 358499, Note_off_c, 0, 57, 63
1, 358530, Control_c, 0, 67, 0
1, 358575, Note_on_c, 0, 69, 81
1, 358657, Note_off_c, 0, 69, 51
1, 358684, Note_on_c, 0, 73, 83
1, 358694, Note_on_c, 0, 63, 67
1, 358698, Note_on_c, 0, 64, 66
1, 358703, Note_on_c, 0, 57, 64
1, 358738, Note_on_c, 0, 75, 84
1, 358744, Note_off_c, 0, 73, 62
1, 358765, Note_off_c, 0, 63, 59
1, 358765, Note_off_c, 0, 64, 58
1, 358768, Note_off_c, 0, 57, 55
1, 358777, Note_on_c, 0, 76, 50
1, 358797, Note_on_c, 0, 78, 100
1, 358801, Note_on_c, 0, 69, 92
1, 358803, Control_c, 0, 64, 102
1, 358813, Note_off_c, 0, 76, 66
1, 358815, Note_off_c, 0, 75, 66
1, 358818, Control_c, 0, 64, 65
1, 358833, Control_c, 0, 64, 37
1, 358848, Control_c, 0, 64, 49
1, 358848, Control_c, 0, 67, 20
1, 358863, Control_c, 0, 64, 68
1, 358878, Control_c, 0, 64, 127
1, 358914, Note_on_c, 0, 63, 72
1, 358922, Note_on_c, 0, 64, 65
1, 358925, Note_off_c, 0, 69, 56
1, 358926, Note_on_c, 0, 71, 71
1, 358939, Note_on_c, 0, 57, 56
1, 358955, Note_off_c, 0, 64, 59
1, 358961, Note_off_c, 0, 63, 59
1, 358961, Note_off_c, 0, 78, 57
1, 358970, Note_off_c, 0, 57, 64
1, 358971, Note_off_c, 0, 71, 64
1, 359101, Control_c, 0, 67, 0
1, 359158, Note_on_c, 0, 63, 60
1, 359159, Note_on_c, 0, 73, 85
1, 359164, Note_on_c, 0, 64, 62
1, 359165, Note_on_c, 0, 57, 61
1, 359183, Note_off_c, 0, 73, 63
1, 359200, Note_on_c, 0, 75, 88
1, 359221, Note_off_c, 0, 64, 56
1, 359221, Note_off_c, 0, 63, 60
1, 359225, Note_off_c, 0, 57, 55
1, 359249, Control_c, 0, 67, 19
1, 359255, Note_on_c, 0, 78, 100
1, 359261, Note_on_c, 0, 69, 95
1, 359280, Note_off_c, 0, 75, 63
1, 359363, Poly_aftertouch_c, 0, 79, 0
1, 359376, Note_on_c, 0, 63, 70
1, 359377, Note_on_c, 0, 64, 69
1, 359383, Note_on_c, 0, 71, 77
1, 359386, Note_off_c, 0, 78, 62
1, 359392, Note_on_c, 0, 57, 57
1, 359392, Note_off_c, 0, 69, 57
1, 359426, Note_off_c, 0, 71, 64
1, 359429, Note_off_c, 0, 57, 62
1, 359435, Note_off_c, 0, 63, 60
1, 359437, Note_off_c, 0, 64, 60
1, 359471, Control_c, 0, 67, 0
1, 359497, Note_on_c, 0, 78, 97
1, 359504, Note_on_c, 0, 69, 93
1, 359605, Note_off_c, 0, 69, 57
1, 359612, Note_on_c, 0, 63, 60
1, 359620, Note_on_c, 0, 64, 63
1, 359626, Note_on_c, 0, 71, 70
1, 359632, Note_on_c, 0, 57, 59
1, 359665, Note_off_c, 0, 78, 59
1, 359671, Note_off_c, 0, 64, 54
1, 359671, Note_off_c, 0, 63, 62
1, 359675, Note_off_c, 0, 57, 54
1, 359679, Note_off_c, 0, 71, 65
1, 359742, Note_on_c, 0, 69, 93
1, 359862, Note_on_c, 0, 63, 62
1, 359867, Note_on_c, 0, 73, 77
1, 359868, Note_off_c, 0, 69, 60
1, 359871, Note_on_c, 0, 57, 56
1, 359874, Note_on_c, 0, 64, 54
1, 359913, Note_off_c, 0, 64, 56
1, 359915, Note_off_c, 0, 73, 61
1, 359918, Note_off_c, 0, 57, 52
1, 359928, Note_on_c, 0, 75, 80
1, 359930, Note_off_c, 0, 63, 61
1, 359973, Note_on_c, 0, 78, 101
1, 359975, Note_on_c, 0, 69, 99
1, 359996, Note_off_c, 0, 75, 65
1, 360026, Note_on_c, 0, 77, 60
1, 360095, Note_on_c, 0, 71, 74
1, 360100, Note_on_c, 0, 63, 65
1, 360105, Note_off_c, 0, 78, 62
1, 360106, Note_on_c, 0, 64, 64
1, 360109, Note_off_c, 0, 77, 64
1, 360121, Note_on_c, 0, 57, 54
1, 360121, Note_off_c, 0, 69, 57
1, 360147, Note_off_c, 0, 71, 66
1, 360156, Note_off_c, 0, 57, 62
1, 360163, Note_off_c, 0, 63, 60
1, 360169, Note_off_c, 0, 64, 57
1, 360225, Note_on_c, 0, 78, 99
1, 360228, Note_on_c, 0, 69, 95
1, 360347, Note_on_c, 0, 63, 66
1, 360357, Note_on_c, 0, 71, 75
1, 360359, Note_on_c, 0, 64, 62
1, 360367, Note_on_c, 0, 57, 58
1, 360369, Note_off_c, 0, 69, 54
1, 360371, Note_off_c, 0, 78, 58
1, 360389, Note_off_c, 0, 63, 57
1, 360391, Note_off_c, 0, 64, 60
1, 360401, Note_off_c, 0, 57, 62
1, 360413, Note_off_c, 0, 71, 64
1, 360589, Note_on_c, 0, 63, 67
1, 360595, Note_on_c, 0, 64, 65
1, 360595, Note_on_c, 0, 57, 66
1, 360597, Note_on_c, 0, 69, 81
1, 360598, Note_on_c, 0, 71, 82
1, 360634, Note_off_c, 0, 64, 60
1, 360641, Note_off_c, 0, 63, 60
1, 360643, Note_off_c, 0, 57, 58
1, 360660, Note_off_c, 0, 69, 60
1, 360714, Note_on_c, 0, 78, 93
1, 360740, Note_off_c, 0, 71, 64
1, 360815, Note_off_c, 0, 78, 44
1, 360824, Note_on_c, 0, 63, 75
1, 360828, Note_on_c, 0, 64, 78
1, 360832, Note_on_c, 0, 57, 73
1, 360835, Note_on_c, 0, 71, 87
1, 360840, Note_on_c, 0, 69, 79
1, 360863, Note_off_c, 0, 71, 64
1, 360864, Note_off_c, 0, 69, 64
1, 360877, Note_off_c, 0, 63, 60
1, 360878, Note_off_c, 0, 57, 62
1, 360878, Note_off_c, 0, 64, 61
1, 360950, Note_on_c, 0, 81, 104
1, 360953, Note_on_c, 0, 80, 92
1, 360971, Note_off_c, 0, 80, 71
1, 360974, Note_off_c, 0, 81, 67
1, 361080, Note_on_c, 0, 63, 66
1, 361084, Note_on_c, 0, 64, 66
1, 361095, Note_on_c, 0, 57, 57
1, 361122, Note_off_c, 0, 63, 60
1, 361140, Note_off_c, 0, 57, 61
1, 361144, Note_off_c, 0, 64, 61
1, 361200, Note_on_c, 0, 45, 98
1, 361219, Note_off_c, 0, 45, 72
1, 361304, Note_on_c, 0, 63, 74
1, 361305, Note_on_c, 0, 64, 73
1, 361317, Note_on_c, 0, 57, 63
1, 361341, Note_off_c, 0, 63, 58
1, 361355, Note_off_c, 0, 64, 61
1, 361359, Note_off_c, 0, 57, 58
1, 361430, Note_on_c, 0, 69, 96
1, 361432, Note_on_c, 0, 78, 108
1, 361436, Control_c, 0, 64, 90
1, 361451, Control_c, 0, 64, 93
1, 361467, Control_c, 0, 64, 127
1, 361474, Note_off_c, 0, 69, 63
1, 361546, Note_off_c, 0, 78, 59
1, 361566, Note_on_c, 0, 63, 75
1, 361569, Note_on_c, 0, 57, 74
1, 361569, Note_on_c, 0, 64, 77
1, 361570, Note_on_c, 0, 76, 79
1, 361596, Note_on_c, 0, 75, 84
1, 361614, Note_off_c, 0, 63, 60
1, 361619, Note_off_c, 0, 64, 61
1, 361622, Note_off_c, 0, 57, 61
1, 361623, Note_off_c, 0, 76, 67
1, 361666, Note_on_c, 0, 73, 94
1, 361692, Note_off_c, 0, 75, 62
1, 361760, Note_off_c, 0, 73, 60
1, 361799, Note_on_c, 0, 71, 98
1, 361802, Note_on_c, 0, 63, 73
1, 361808, Note_on_c, 0, 64, 78
1, 361809, Note_on_c, 0, 57, 78
1, 361814, Control_c, 0, 64, 109
1, 361829, Control_c, 0, 64, 101
1, 361844, Control_c, 0, 64, 127
1, 361853, Note_off_c, 0, 71, 60
1, 361856, Note_off_c, 0, 63, 61
1, 361859, Note_off_c, 0, 64, 60
1, 361868, Note_off_c, 0, 57, 55
1, 361907, Note_on_c, 0, 81, 103
1, 361915, Note_on_c, 0, 80, 93
1, 361933, Note_off_c, 0, 80, 69
1, 361934, Note_off_c, 0, 81, 69
1, 362050, Note_on_c, 0, 63, 66
1, 362053, Note_on_c, 0, 57, 53
1, 362057, Note_on_c, 0, 64, 70
1, 362091, Note_off_c, 0, 63, 60
1, 362108, Note_off_c, 0, 57, 62
1, 362125, Control_c, 0, 67, 20
1, 362155, Control_c, 0, 64, 65
1, 362160, Note_off_c, 0, 64, 31
1, 362162, Note_on_c, 0, 41, 86
1, 362162, Note_on_c, 0, 43, 89
1, 362163, Note_on_c, 0, 48, 92
1, 362169, Control_c, 0, 64, 0
1, 362184, Note_on_c, 0, 50, 54
1, 362184, Note_off_c, 0, 50, 127
1, 362184, Control_c, 0, 67, 22
1, 362199, Control_c, 0, 67, 27
1, 362214, Control_c, 0, 64, 47
1, 362214, Control_c, 0, 67, 34
1, 362228, Control_c, 0, 64, 69
1, 362228, Control_c, 0, 67, 35
1, 362243, Control_c, 0, 64, 89
1, 362243, Control_c, 0, 67, 34
1, 362259, Control_c, 0, 64, 109
1, 362259, Control_c, 0, 67, 34
1, 362274, Control_c, 0, 64, 127
1, 362291, Note_on_c, 0, 64, 72
1, 362291, Note_on_c, 0, 63, 66
1, 362297, Note_off_c, 0, 41, 60
1, 362299, Note_on_c, 0, 57, 68
1, 362303, Control_c, 0, 67, 34
1, 362307, Note_off_c, 0, 43, 60
1, 362318, Control_c, 0, 67, 32
1, 362327, Note_off_c, 0, 48, 63
1, 362333, Control_c, 0, 67, 29
1, 362348, Note_off_c, 0, 64, 61
1, 362348, Control_c, 0, 67, 27
1, 362360, Note_off_c, 0, 57, 56
1, 362377, Note_off_c, 0, 63, 41
1, 362437, Control_c, 0, 67, 25
1, 362550, Note_on_c, 0, 63, 88
1, 362553, Note_on_c, 0, 57, 84
1, 362553, Note_on_c, 0, 64, 88
1, 362592, Control_c, 0, 67, 0
1, 362634, Note_off_c, 0, 57, 61
1, 362637, Note_off_c, 0, 63, 56
1, 362644, Note_off_c, 0, 64, 45
1, 362665, Note_on_c, 0, 81, 100
1, 362669, Note_on_c, 0, 80, 96
1, 362681, Note_off_c, 0, 81, 74
1, 362685, Note_off_c, 0, 80, 74
1, 362795, Note_on_c, 0, 63, 75
1, 362802, Note_on_c, 0, 57, 79
1, 362804, Note_on_c, 0, 64, 83
1, 362904, Control_c, 0, 64, 78
1, 362918, Control_c, 0, 64, 0
1, 362925, Note_on_c, 0, 48, 102
1, 362926, Note_on_c, 0, 41, 93
1, 362926, Note_off_c, 0, 63, 55
1, 362947, Note_off_c, 0, 57, 60
1, 362951, Note_off_c, 0, 64, 52
1, 362992, Control_c, 0, 64, 53
1, 363007, Control_c, 0, 64, 67
1, 363022, Control_c, 0, 64, 78
1, 363036, Control_c, 0, 64, 94
1, 363052, Control_c, 0, 64, 127
1, 363063, Note_on_c, 0, 63, 68
1, 363066, Note_on_c, 0, 64, 79
1, 363069, Note_on_c, 0, 57, 67
1, 363075, Note_off_c, 0, 41, 61
1, 363096, Note_off_c, 0, 48, 64
1, 363120, Note_off_c, 0, 64, 62
1, 363126, Note_off_c, 0, 63, 61
1, 363142, Note_off_c, 0, 57, 59
1, 363335, Note_on_c, 0, 63, 93
1, 363339, Note_on_c, 0, 64, 87
1, 363340, Note_on_c, 0, 57, 81
1, 363418, Note_off_c, 0, 57, 62
1, 363418, Note_off_c, 0, 63, 59
1, 363422, Note_off_c, 0, 64, 55
1, 363443, Note_on_c, 0, 80, 105
1, 363444, Note_on_c, 0, 81, 105
1, 363458, Note_off_c, 0, 81, 73
1, 363471, Note_off_c, 0, 80, 64
1, 363539, Poly_aftertouch_c, 0, 63, 0
1, 363577, Note_on_c, 0, 63, 52
1, 363583, Note_on_c, 0, 57, 76
1, 363585, Note_on_c, 0, 64, 83
1, 363683, Control_c, 0, 64, 77
1, 363698, Control_c, 0, 64, 0
1, 363716, Note_on_c, 0, 48, 99
1, 363718, Note_on_c, 0, 41, 95
1, 363729, Note_off_c, 0, 63, 61
1, 363733, Note_off_c, 0, 64, 58
1, 363736, Note_off_c, 0, 57, 54
1, 363801, Control_c, 0, 64, 60
1, 363816, Control_c, 0, 64, 65
1, 363831, Control_c, 0, 64, 68
1, 363846, Control_c, 0, 64, 79
1, 363862, Note_on_c, 0, 64, 74
1, 363862, Control_c, 0, 64, 122
1, 363864, Note_on_c, 0, 57, 67
1, 363867, Note_on_c, 0, 63, 74
1, 363876, Control_c, 0, 64, 127
1, 363892, Note_off_c, 0, 41, 61
1, 363915, Note_off_c, 0, 48, 66
1, 363915, Note_off_c, 0, 64, 61
1, 363920, Note_off_c, 0, 63, 61
1, 363931, Note_off_c, 0, 57, 60
1, 364114, Note_on_c, 0, 63, 94
1, 364118, Note_on_c, 0, 64, 90
1, 364118, Note_on_c, 0, 57, 85
1, 364157, Note_off_c, 0, 64, 66
1, 364164, Note_off_c, 0, 63, 63
1, 364169, Note_off_c, 0, 57, 65
1, 364241, Note_on_c, 0, 81, 99
1, 364244, Note_on_c, 0, 80, 96
1, 364283, Control_c, 0, 64, 63
1, 364298, Control_c, 0, 64, 0
1, 364385, Note_on_c, 0, 52, 93
1, 364518, Note_off_c, 0, 52, 64
1, 364531, Note_on_c, 0, 53, 95
1, 364534, Note_on_c, 0, 46, 102
1, 364535, Control_c, 0, 67, 54
1, 364550, Control_c, 0, 64, 59
1, 364550, Control_c, 0, 67, 58
1, 364561, Note_off_c, 0, 81, 67
1, 364564, Note_off_c, 0, 80, 63
1, 364565, Control_c, 0, 64, 68
1, 364565, Control_c, 0, 67, 60
1, 364580, Control_c, 0, 64, 45
1, 364580, Control_c, 0, 67, 62
1, 364595, Control_c, 0, 64, 0
1, 364595, Control_c, 0, 67, 71
1, 364609, Control_c, 0, 67, 85
1, 364624, Control_c, 0, 67, 95
1, 364639, Control_c, 0, 67, 95
1, 364655, Control_c, 0, 67, 92
1, 364700, Control_c, 0, 67, 92
1, 364714, Control_c, 0, 67, 92
1, 364729, Control_c, 0, 67, 90
1, 364744, Control_c, 0, 67, 89
1, 364758, Control_c, 0, 67, 90
1, 364773, Control_c, 0, 67, 91
1, 364810, Control_c, 0, 67, 89
1, 364825, Note_on_c, 0, 69, 89
1, 364825, Control_c, 0, 67, 86
1, 364830, Note_on_c, 0, 68, 89
1, 364840, Control_c, 0, 67, 84
1, 364855, Control_c, 0, 67, 85
1, 364870, Control_c, 0, 67, 87
1, 364884, Control_c, 0, 67, 86
1, 364899, Control_c, 0, 67, 85
1, 364914, Control_c, 0, 67, 83
1, 364929, Control_c, 0, 67, 82
1, 364934, Note_off_c, 0, 46, 57
1, 364936, Note_on_c, 0, 52, 87
1, 364944, Control_c, 0, 67, 82
1, 364957, Note_off_c, 0, 53, 59
1, 364958, Control_c, 0, 64, 36
1, 364958, Control_c, 0, 67, 73
1, 364973, Control_c, 0, 64, 0
1, 364973, Control_c, 0, 67, 32
1, 364979, Note_off_c, 0, 52, 66
1, 364988, Control_c, 0, 67, 0
1, 365077, Control_c, 0, 67, 20
1, 365084, Note_on_c, 0, 53, 98
1, 365085, Note_on_c, 0, 46, 97
1, 365092, Control_c, 0, 67, 50
1, 365106, Control_c, 0, 67, 52
1, 365121, Control_c, 0, 64, 127
1, 365121, Control_c, 0, 67, 50
1, 365150, Control_c, 0, 67, 54
1, 365165, Control_c, 0, 67, 60
1, 365171, Note_off_c, 0, 69, 63
1, 365177, Note_off_c, 0, 68, 65
1, 365180, Control_c, 0, 67, 65
1, 365210, Control_c, 0, 67, 63
1, 365224, Control_c, 0, 67, 62
1, 365239, Control_c, 0, 67, 61
1, 365254, Control_c, 0, 67, 63
1, 365269, Control_c, 0, 67, 64
1, 365284, Control_c, 0, 67, 64
1, 365299, Control_c, 0, 67, 62
1, 365314, Control_c, 0, 67, 61
1, 365329, Control_c, 0, 64, 87
1, 365343, Control_c, 0, 64, 74
1, 365343, Control_c, 0, 67, 62
1, 365358, Note_on_c, 0, 57, 74
1, 365358, Control_c, 0, 64, 67
1, 365358, Note_on_c, 0, 56, 77
1, 365363, Note_on_c, 0, 59, 70
1, 365373, Control_c, 0, 64, 65
1, 365373, Control_c, 0, 67, 57
1, 365388, Control_c, 0, 67, 52
1, 365403, Control_c, 0, 64, 61
1, 365403, Control_c, 0, 67, 45
1, 365418, Control_c, 0, 64, 41
1, 365418, Control_c, 0, 67, 39
1, 365432, Control_c, 0, 64, 0
1, 365432, Control_c, 0, 67, 33
1, 365438, Note_off_c, 0, 46, 61
1, 365442, Note_off_c, 0, 59, 56
1, 365447, Control_c, 0, 67, 0
1, 365460, Note_on_c, 0, 52, 80
1, 365472, Note_off_c, 0, 53, 53
1, 365490, Note_off_c, 0, 52, 67
1, 365614, Note_on_c, 0, 46, 92
1, 365614, Note_on_c, 0, 53, 93
1, 365618, Control_c, 0, 64, 72
1, 365618, Control_c, 0, 67, 57
1, 365633, Control_c, 0, 64, 94
1, 365633, Control_c, 0, 67, 61
1, 365662, Control_c, 0, 64, 91
1, 365662, Control_c, 0, 67, 64
1, 365677, Control_c, 0, 64, 86
1, 365677, Control_c, 0, 67, 71
1, 365692, Control_c, 0, 67, 94
1, 365700, Note_off_c, 0, 56, 63
1, 365707, Control_c, 0, 64, 86
1, 365707, Control_c, 0, 67, 113
1, 365722, Control_c, 0, 64, 79
1, 365722, Control_c, 0, 67, 117
1, 365737, Control_c, 0, 64, 69
1, 365745, Note_off_c, 0, 57, 61
1, 365746, Note_on_c, 0, 52, 59
1, 365750, Note_off_c, 0, 53, 62
1, 365752, Control_c, 0, 64, 58
1, 365758, Note_off_c, 0, 46, 64
1, 365767, Control_c, 0, 64, 33
1, 365767, Control_c, 0, 67, 120
1, 365777, Note_off_c, 0, 52, 64
1, 365781, Control_c, 0, 64, 0
1, 365781, Control_c, 0, 67, 127
1, 365879, Note_on_c, 0, 53, 73
1, 365880, Note_on_c, 0, 46, 69
1, 365944, Control_c, 0, 64, 35
1, 365959, Control_c, 0, 64, 40
1, 365973, Control_c, 0, 64, 45
1, 365988, Control_c, 0, 64, 47
1, 366002, Note_off_c, 0, 53, 61
1, 366003, Note_off_c, 0, 46, 62
1, 366003, Control_c, 0, 64, 48
1, 366015, Note_on_c, 0, 52, 46
1, 366018, Control_c, 0, 64, 48
1, 366033, Control_c, 0, 64, 44
1, 366044, Note_off_c, 0, 52, 53
1, 366048, Control_c, 0, 64, 37
1, 366062, Control_c, 0, 64, 0
1, 366132, Note_on_c, 0, 53, 61
1, 366133, Note_on_c, 0, 46, 57
1, 366226, Control_c, 0, 64, 34
1, 366241, Control_c, 0, 64, 35
1, 366246, Note_off_c, 0, 53, 58
1, 366248, Note_on_c, 0, 52, 55
1, 366250, Note_off_c, 0, 46, 58
1, 366256, Control_c, 0, 64, 36
1, 366271, Control_c, 0, 64, 37
1, 366293, Control_c, 0, 64, 38
1, 366299, Note_off_c, 0, 52, 61
1, 366308, Control_c, 0, 64, 39
1, 366353, Control_c, 0, 64, 38
1, 366394, Note_on_c, 0, 53, 57
1, 366397, Note_on_c, 0, 46, 48
1, 366397, Control_c, 0, 64, 39
1, 366411, Control_c, 0, 64, 39
1, 366456, Control_c, 0, 64, 40
1, 366471, Control_c, 0, 64, 41
1, 366485, Control_c, 0, 64, 42
1, 366494, Note_on_c, 0, 52, 59
1, 366496, Note_off_c, 0, 53, 57
1, 366500, Control_c, 0, 64, 43
1, 366512, Note_off_c, 0, 46, 62
1, 366515, Control_c, 0, 64, 45
1, 366530, Control_c, 0, 64, 46
1, 366530, Note_off_c, 0, 52, 61
1, 366545, Control_c, 0, 64, 48
1, 366560, Control_c, 0, 64, 48
1, 366590, Control_c, 0, 64, 48
1, 366604, Control_c, 0, 64, 44
1, 366619, Control_c, 0, 64, 36
1, 366634, Control_c, 0, 64, 0
1, 366638, Note_on_c, 0, 53, 55
1, 366643, Note_on_c, 0, 46, 53
1, 366678, Control_c, 0, 64, 37
1, 366693, Control_c, 0, 64, 41
1, 366708, Control_c, 0, 64, 43
1, 366723, Control_c, 0, 64, 43
1, 366730, Note_off_c, 0, 53, 60
1, 366741, Note_off_c, 0, 46, 56
1, 366742, Note_on_c, 0, 52, 54
1, 366752, Control_c, 0, 64, 44
1, 366767, Control_c, 0, 64, 45
1, 366782, Note_off_c, 0, 52, 59
1, 366782, Control_c, 0, 64, 46
1, 366797, Control_c, 0, 64, 47
1, 366826, Control_c, 0, 64, 46
1, 366841, Control_c, 0, 64, 44
1, 366856, Control_c, 0, 64, 43
1, 366885, Control_c, 0, 64, 43
1, 366886, Note_on_c, 0, 74, 62
1, 366887, Note_on_c, 0, 46, 45
1, 366891, Note_on_c, 0, 53, 46
1, 366915, Control_c, 0, 64, 43
1, 366929, Control_c, 0, 64, 42
1, 366959, Control_c, 0, 64, 43
1, 366974, Control_c, 0, 64, 44
1, 366981, Note_off_c, 0, 53, 56
1, 366989, Note_on_c, 0, 52, 53
1, 366989, Control_c, 0, 64, 45
1, 366997, Note_off_c, 0, 46, 49
1, 367004, Control_c, 0, 64, 45
1, 367017, Note_on_c, 0, 69, 57
1, 367018, Note_off_c, 0, 74, 57
1, 367040, Note_off_c, 0, 52, 60
1, 367041, Control_c, 0, 64, 45
1, 367049, Note_off_c, 0, 69, 64
1, 367057, Control_c, 0, 64, 44
1, 367072, Control_c, 0, 64, 43
1, 367087, Control_c, 0, 64, 42
1, 367101, Control_c, 0, 64, 41
1, 367116, Control_c, 0, 64, 41
1, 367130, Note_on_c, 0, 74, 72
1, 367131, Control_c, 0, 64, 40
1, 367134, Note_on_c, 0, 53, 59
1, 367136, Note_on_c, 0, 46, 51
1, 367175, Control_c, 0, 64, 41
1, 367190, Control_c, 0, 64, 41
1, 367220, Control_c, 0, 64, 42
1, 367226, Note_off_c, 0, 46, 46
1, 367234, Control_c, 0, 64, 43
1, 367237, Note_off_c, 0, 53, 56
1, 367238, Note_on_c, 0, 52, 58
1, 367245, Note_on_c, 0, 79, 68
1, 367247, Note_off_c, 0, 74, 61
1, 367249, Control_c, 0, 64, 45
1, 367264, Control_c, 0, 64, 46
1, 367275, Note_off_c, 0, 52, 60
1, 367276, Note_off_c, 0, 79, 63
1, 367279, Control_c, 0, 64, 46
1, 367308, Control_c, 0, 64, 46
1, 367323, Control_c, 0, 64, 33
1, 367338, Control_c, 0, 64, 0
1, 367361, Note_on_c, 0, 46, 55
1, 367364, Note_on_c, 0, 74, 71
1, 367365, Note_on_c, 0, 53, 55
1, 367419, Note_off_c, 0, 46, 51
1, 367427, Control_c, 0, 64, 36
1, 367442, Control_c, 0, 64, 51
1, 367457, Control_c, 0, 64, 60
1, 367472, Control_c, 0, 64, 63
1, 367473, Note_off_c, 0, 53, 37
1, 367475, Note_on_c, 0, 52, 56
1, 367479, Note_on_c, 0, 69, 58
1, 367481, Note_off_c, 0, 74, 59
1, 367505, Note_off_c, 0, 52, 64
1, 367511, Note_off_c, 0, 69, 63
1, 367546, Control_c, 0, 64, 61
1, 367560, Control_c, 0, 64, 49
1, 367575, Control_c, 0, 64, 0
1, 367591, Note_on_c, 0, 71, 72
1, 367594, Note_on_c, 0, 53, 58
1, 367603, Note_on_c, 0, 46, 48
1, 367649, Control_c, 0, 64, 50
1, 367654, Note_off_c, 0, 46, 52
1, 367664, Control_c, 0, 64, 59
1, 367678, Control_c, 0, 64, 60
1, 367704, Note_off_c, 0, 53, 52
1, 367708, Control_c, 0, 64, 61
1, 367716, Note_off_c, 0, 71, 64
1, 367720, Note_on_c, 0, 72, 66
1, 367722, Note_on_c, 0, 52, 51
1, 367723, Control_c, 0, 64, 62
1, 367738, Control_c, 0, 64, 61
1, 367752, Control_c, 0, 64, 57
1, 367773, Note_on_c, 0, 74, 76
1, 367775, Control_c, 0, 64, 38
1, 367783, Note_off_c, 0, 72, 63
1, 367790, Control_c, 0, 64, 0
1, 367819, Note_off_c, 0, 52, 60
1, 367824, Note_on_c, 0, 46, 59
1, 367832, Note_off_c, 0, 74, 65
1, 367838, Note_on_c, 0, 76, 81
1, 367841, Note_on_c, 0, 53, 48
1, 367873, Note_off_c, 0, 46, 53
1, 367901, Note_on_c, 0, 74, 71
1, 367906, Note_off_c, 0, 76, 64
1, 367927, Note_off_c, 0, 53, 56
1, 367940, Note_on_c, 0, 52, 57
1, 367952, Note_on_c, 0, 72, 73
1, 367973, Note_off_c, 0, 74, 63
1, 367988, Note_off_c, 0, 52, 55
1, 367991, Note_on_c, 0, 71, 72
1, 368011, Note_off_c, 0, 72, 62
1, 368050, Note_on_c, 0, 46, 60
1, 368050, Note_on_c, 0, 69, 76
1, 368051, Note_off_c, 0, 71, 65
1, 368052, Note_on_c, 0, 53, 62
1, 368079, Note_off_c, 0, 69, 64
1, 368166, Note_off_c, 0, 46, 35
1, 368169, Note_on_c, 0, 52, 62
1, 368170, Note_on_c, 0, 79, 77
1, 368181, Note_off_c, 0, 53, 52
1, 368275, Note_off_c, 0, 52, 60
1, 368283, Note_on_c, 0, 46, 54
1, 368288, Note_on_c, 0, 74, 77
1, 368288, Note_off_c, 0, 79, 65
1, 368295, Note_on_c, 0, 53, 57
1, 368339, Control_c, 0, 64, 34
1, 368345, Note_off_c, 0, 46, 51
1, 368354, Control_c, 0, 64, 37
1, 368383, Note_off_c, 0, 53, 38
1, 368396, Note_off_c, 0, 74, 57
1, 368399, Note_on_c, 0, 52, 63
1, 368402, Note_on_c, 0, 69, 73
1, 368414, Control_c, 0, 64, 39
1, 368427, Note_off_c, 0, 52, 65
1, 368429, Control_c, 0, 64, 41
1, 368436, Note_off_c, 0, 69, 64
1, 368444, Control_c, 0, 64, 42
1, 368458, Control_c, 0, 64, 35
1, 368473, Control_c, 0, 64, 0
1, 368506, Note_on_c, 0, 46, 71
1, 368506, Note_on_c, 0, 53, 68
1, 368508, Note_on_c, 0, 71, 82
1, 368625, Note_off_c, 0, 46, 43
1, 368642, Note_off_c, 0, 53, 56
1, 368643, Control_c, 0, 64, 40
1, 368646, Note_off_c, 0, 71, 63
1, 368646, Note_on_c, 0, 52, 59
1, 368652, Note_on_c, 0, 72, 73
1, 368659, Control_c, 0, 64, 47
1, 368673, Control_c, 0, 64, 52
1, 368688, Note_off_c, 0, 52, 60
1, 368688, Control_c, 0, 64, 53
1, 368697, Note_on_c, 0, 74, 79
1, 368703, Control_c, 0, 64, 51
1, 368705, Note_off_c, 0, 72, 58
1, 368718, Control_c, 0, 64, 38
1, 368733, Control_c, 0, 64, 0
1, 368739, Note_on_c, 0, 46, 68
1, 368757, Note_on_c, 0, 53, 61
1, 368763, Note_off_c, 0, 74, 66
1, 368767, Note_on_c, 0, 76, 83
1, 368805, Note_off_c, 0, 46, 46
1, 368828, Note_off_c, 0, 76, 67
1, 368834, Note_on_c, 0, 74, 75
1, 368852, Note_off_c, 0, 53, 56
1, 368859, Note_on_c, 0, 52, 63
1, 368873, Note_on_c, 0, 72, 80
1, 368898, Note_off_c, 0, 74, 63
1, 368911, Control_c, 0, 64, 44
1, 368925, Control_c, 0, 64, 42
1, 368927, Note_on_c, 0, 71, 80
1, 368940, Control_c, 0, 64, 0
1, 368942, Note_off_c, 0, 72, 55
1, 368974, Note_on_c, 0, 46, 76
1, 368978, Note_on_c, 0, 53, 73
1, 368978, Note_off_c, 0, 52, 51
1, 368986, Note_on_c, 0, 69, 86
1, 368987, Note_off_c, 0, 71, 65
1, 369014, Control_c, 0, 64, 35
1, 369029, Control_c, 0, 64, 43
1, 369044, Control_c, 0, 64, 50
1, 369059, Control_c, 0, 64, 56
1, 369073, Control_c, 0, 64, 59
1, 369088, Control_c, 0, 64, 60
1, 369091, Note_off_c, 0, 46, 60
1, 369097, Note_on_c, 0, 52, 74
1, 369108, Note_off_c, 0, 53, 60
1, 369130, Note_off_c, 0, 52, 64
1, 369143, Note_off_c, 0, 69, 60
1, 369176, Control_c, 0, 64, 58
1, 369191, Control_c, 0, 64, 43
1, 369205, Control_c, 0, 64, 0
1, 369210, Note_on_c, 0, 47, 76
1, 369210, Note_on_c, 0, 53, 82
1, 369245, Note_on_c, 0, 69, 80
1, 369331, Control_c, 0, 64, 46
1, 369346, Control_c, 0, 64, 50
1, 369359, Note_on_c, 0, 52, 66
1, 369361, Control_c, 0, 64, 51
1, 369372, Note_off_c, 0, 53, 58
1, 369376, Control_c, 0, 64, 52
1, 369378, Note_off_c, 0, 47, 61
1, 369391, Control_c, 0, 64, 54
1, 369396, Note_off_c, 0, 52, 64
1, 369405, Control_c, 0, 64, 56
1, 369420, Control_c, 0, 64, 58
1, 369435, Control_c, 0, 64, 58
1, 369481, Control_c, 0, 64, 55
1, 369495, Control_c, 0, 64, 43
1, 369496, Note_on_c, 0, 51, 62
1, 369502, Note_on_c, 0, 47, 56
1, 369510, Control_c, 0, 64, 0
1, 369584, Control_c, 0, 64, 36
1, 369599, Control_c, 0, 64, 46
1, 369606, Note_on_c, 0, 52, 52
1, 369608, Note_off_c, 0, 47, 60
1, 369614, Control_c, 0, 64, 53
1, 369628, Control_c, 0, 64, 55
1, 369637, Note_off_c, 0, 69, 59
1, 369651, Note_off_c, 0, 52, 63
1, 369654, Note_off_c, 0, 51, 48
1, 369673, Control_c, 0, 64, 54
1, 369688, Control_c, 0, 64, 48
1, 369702, Control_c, 0, 64, 0
1, 369745, Note_on_c, 0, 53, 59
1, 369746, Note_on_c, 0, 47, 48
1, 369746, Note_on_c, 0, 67, 65
1, 369851, Control_c, 0, 64, 34
1, 369854, Note_off_c, 0, 53, 33
1, 369861, Note_off_c, 0, 47, 56
1, 369863, Note_on_c, 0, 72, 63
1, 369865, Note_on_c, 0, 52, 55
1, 369866, Control_c, 0, 64, 41
1, 369874, Note_off_c, 0, 67, 63
1, 369880, Control_c, 0, 64, 47
1, 369893, Note_off_c, 0, 72, 65
1, 369895, Control_c, 0, 64, 49
1, 369898, Note_off_c, 0, 52, 64
1, 369910, Control_c, 0, 64, 41
1, 369925, Control_c, 0, 64, 0
1, 369975, Note_on_c, 0, 51, 62
1, 369983, Note_on_c, 0, 67, 78
1, 370000, Note_on_c, 0, 47, 43
1, 370095, Note_on_c, 0, 52, 58
1, 370105, Note_on_c, 0, 62, 70
1, 370105, Note_off_c, 0, 47, 53
1, 370110, Control_c, 0, 64, 41
1, 370115, Note_off_c, 0, 51, 60
1, 370117, Note_off_c, 0, 67, 62
1, 370125, Control_c, 0, 64, 47
1, 370137, Note_off_c, 0, 52, 64
1, 370140, Control_c, 0, 64, 50
1, 370145, Note_off_c, 0, 62, 60
1, 370154, Control_c, 0, 64, 47
1, 370169, Control_c, 0, 64, 0
1, 370216, Note_on_c, 0, 67, 77
1, 370222, Note_on_c, 0, 53, 62
1, 370223, Note_on_c, 0, 47, 61
1, 370289, Control_c, 0, 64, 33
1, 370303, Control_c, 0, 64, 41
1, 370318, Control_c, 0, 64, 49
1, 370333, Control_c, 0, 64, 54
1, 370340, Note_on_c, 0, 72, 68
1, 370342, Note_off_c, 0, 47, 62
1, 370345, Note_on_c, 0, 52, 59
1, 370346, Note_off_c, 0, 53, 56
1, 370348, Control_c, 0, 64, 57
1, 370359, Note_off_c, 0, 67, 63
1, 370363, Control_c, 0, 64, 57
1, 370374, Note_off_c, 0, 72, 65
1, 370377, Note_off_c, 0, 52, 64
1, 370392, Control_c, 0, 64, 56
1, 370407, Control_c, 0, 64, 43
1, 370422, Control_c, 0, 64, 0
1, 370453, Note_on_c, 0, 51, 59
1, 370467, Note_on_c, 0, 69, 73
1, 370474, Note_on_c, 0, 47, 47
1, 370548, Note_off_c, 0, 47, 52
1, 370581, Note_on_c, 0, 67, 68
1, 370584, Control_c, 0, 64, 40
1, 370585, Note_off_c, 0, 69, 60
1, 370599, Note_on_c, 0, 52, 59
1, 370600, Control_c, 0, 64, 50
1, 370602, Note_off_c, 0, 51, 57
1, 370615, Control_c, 0, 64, 54
1, 370630, Control_c, 0, 64, 54
1, 370644, Control_c, 0, 64, 52
1, 370646, Note_off_c, 0, 67, 62
1, 370648, Note_on_c, 0, 65, 72
1, 370659, Control_c, 0, 64, 42
1, 370674, Control_c, 0, 64, 0
1, 370685, Note_on_c, 0, 47, 62
1, 370688, Note_off_c, 0, 65, 64
1, 370688, Note_on_c, 0, 64, 68
1, 370691, Note_on_c, 0, 53, 63
1, 370697, Note_off_c, 0, 52, 56
1, 370737, Note_on_c, 0, 65, 74
1, 370740, Note_off_c, 0, 64, 61
1, 370802, Note_off_c, 0, 65, 65
1, 370802, Note_on_c, 0, 67, 75
1, 370819, Note_on_c, 0, 52, 66
1, 370827, Note_off_c, 0, 53, 59
1, 370827, Note_off_c, 0, 47, 62
1, 370850, Note_off_c, 0, 52, 65
1, 370855, Note_off_c, 0, 67, 64
1, 370857, Note_on_c, 0, 69, 77
1, 370859, Control_c, 0, 64, 42
1, 370874, Control_c, 0, 64, 51
1, 370889, Control_c, 0, 64, 55
1, 370903, Note_on_c, 0, 67, 81
1, 370903, Control_c, 0, 64, 52
1, 370915, Note_off_c, 0, 69, 65
1, 370918, Control_c, 0, 64, 36
1, 370921, Note_on_c, 0, 51, 74
1, 370933, Control_c, 0, 64, 0
1, 370935, Note_on_c, 0, 47, 54
1, 370936, Note_off_c, 0, 67, 67
1, 371031, Note_on_c, 0, 62, 76
1, 371034, Note_off_c, 0, 47, 47
1, 371035, Note_on_c, 0, 52, 67
1, 371064, Note_off_c, 0, 51, 56
1, 371068, Control_c, 0, 64, 38
1, 371082, Control_c, 0, 64, 47
1, 371097, Control_c, 0, 64, 51
1, 371141, Control_c, 0, 64, 49
1, 371147, Note_on_c, 0, 47, 58
1, 371149, Note_on_c, 0, 53, 59
1, 371150, Note_on_c, 0, 67, 79
1, 371152, Note_off_c, 0, 62, 60
1, 371156, Note_off_c, 0, 52, 60
1, 371156, Control_c, 0, 64, 37
1, 371171, Control_c, 0, 64, 0
1, 371246, Control_c, 0, 64, 42
1, 371261, Control_c, 0, 64, 52
1, 371261, Note_on_c, 0, 72, 71
1, 371263, Note_off_c, 0, 47, 61
1, 371265, Note_on_c, 0, 52, 67
1, 371265, Note_off_c, 0, 53, 59
1, 371274, Note_off_c, 0, 67, 64
1, 371275, Control_c, 0, 64, 55
1, 371290, Control_c, 0, 64, 55
1, 371291, Note_off_c, 0, 72, 63
1, 371295, Note_off_c, 0, 52, 65
1, 371334, Control_c, 0, 64, 54
1, 371349, Control_c, 0, 64, 49
1, 371364, Control_c, 0, 64, 0
1, 371374, Note_on_c, 0, 51, 70
1, 371381, Note_on_c, 0, 65, 77
1, 371389, Note_on_c, 0, 47, 56
1, 371444, Note_off_c, 0, 47, 54
1, 371452, Control_c, 0, 64, 37
1, 371467, Control_c, 0, 64, 44
1, 371482, Control_c, 0, 64, 48
1, 371497, Control_c, 0, 64, 49
1, 371508, Note_on_c, 0, 52, 67
1, 371511, Note_on_c, 0, 64, 71
1, 371518, Note_off_c, 0, 65, 62
1, 371519, Control_c, 0, 64, 49
1, 371521, Note_off_c, 0, 51, 61
1, 371534, Control_c, 0, 64, 50
1, 371549, Control_c, 0, 64, 51
1, 371564, Control_c, 0, 64, 51
1, 371578, Note_on_c, 0, 62, 67
1, 371579, Control_c, 0, 64, 43
1, 371580, Note_off_c, 0, 64, 61
1, 371593, Control_c, 0, 64, 0
1, 371604, Note_on_c, 0, 47, 62
1, 371613, Note_on_c, 0, 53, 64
1, 371613, Note_off_c, 0, 62, 66
1, 371615, Note_on_c, 0, 60, 71
1, 371621, Note_off_c, 0, 52, 61
1, 371672, Note_on_c, 0, 62, 76
1, 371675, Note_off_c, 0, 60, 64
1, 371709, Note_off_c, 0, 47, 64
1, 371712, Control_c, 0, 64, 45
1, 371722, Note_off_c, 0, 53, 57
1, 371726, Control_c, 0, 64, 55
1, 371729, Note_on_c, 0, 52, 51
1, 371729, Note_on_c, 0, 64, 77
1, 371729, Note_off_c, 0, 62, 64
1, 371741, Control_c, 0, 64, 58
1, 371755, Note_off_c, 0, 52, 56
1, 371756, Control_c, 0, 64, 57
1, 371771, Control_c, 0, 64, 56
1, 371784, Note_off_c, 0, 64, 64
1, 371785, Note_on_c, 0, 65, 86
1, 371786, Control_c, 0, 64, 50
1, 371800, Control_c, 0, 64, 0
1, 371833, Note_on_c, 0, 49, 70
1, 371833, Note_off_c, 0, 65, 65
1, 371834, Note_on_c, 0, 62, 88
1, 371839, Note_on_c, 0, 53, 70
1, 371905, Control_c, 0, 64, 34
1, 371920, Control_c, 0, 64, 53
1, 371935, Control_c, 0, 64, 60
1, 371949, Control_c, 0, 64, 62
1, 371955, Note_on_c, 0, 54, 77
1, 371976, Note_off_c, 0, 53, 60
1, 371981, Note_off_c, 0, 49, 60
1, 372013, Note_off_c, 0, 54, 64
1, 372054, Control_c, 0, 64, 62
1, 372063, Note_off_c, 0, 62, 61
1, 372067, Note_on_c, 0, 55, 83
1, 372068, Note_on_c, 0, 49, 81
1, 372083, Control_c, 0, 64, 62
1, 372097, Control_c, 0, 64, 55
1, 372112, Control_c, 0, 64, 0
1, 372123, Note_on_c, 0, 62, 73
1, 372230, Control_c, 0, 64, 38
1, 372232, Note_on_c, 0, 54, 67
1, 372240, Note_off_c, 0, 55, 56
1, 372245, Note_off_c, 0, 49, 60
1, 372245, Control_c, 0, 64, 45
1, 372260, Control_c, 0, 64, 50
1, 372282, Control_c, 0, 64, 52
1, 372297, Control_c, 0, 64, 53
1, 372301, Note_off_c, 0, 54, 63
1, 372312, Control_c, 0, 64, 54
1, 372327, Control_c, 0, 64, 53
1, 372372, Note_on_c, 0, 53, 59
1, 372381, Note_on_c, 0, 49, 55
1, 372416, Control_c, 0, 64, 54
1, 372472, Note_on_c, 0, 54, 76
1, 372489, Control_c, 0, 64, 54
1, 372498, Note_off_c, 0, 53, 60
1, 372504, Control_c, 0, 64, 56
1, 372516, Note_off_c, 0, 49, 63
1, 372519, Control_c, 0, 64, 58
1, 372520, Note_off_c, 0, 62, 60
1, 372534, Control_c, 0, 64, 59
1, 372548, Control_c, 0, 64, 61
1, 372553, Note_off_c, 0, 54, 62
1, 372563, Control_c, 0, 64, 63
1, 372575, Note_on_c, 0, 55, 87
1, 372578, Control_c, 0, 64, 63
1, 372585, Note_on_c, 0, 49, 78
1, 372593, Control_c, 0, 64, 60
1, 372608, Control_c, 0, 64, 43
1, 372618, Note_on_c, 0, 62, 84
1, 372623, Control_c, 0, 64, 0
1, 372727, Control_c, 0, 64, 34
1, 372742, Control_c, 0, 64, 39
1, 372748, Note_on_c, 0, 54, 69
1, 372768, Note_off_c, 0, 55, 57
1, 372771, Note_off_c, 0, 49, 62
1, 372787, Control_c, 0, 64, 40
1, 372802, Control_c, 0, 64, 45
1, 372807, Note_off_c, 0, 54, 63
1, 372817, Control_c, 0, 64, 51
1, 372832, Control_c, 0, 64, 54
1, 372846, Control_c, 0, 64, 55
1, 372876, Control_c, 0, 64, 55
1, 372880, Note_on_c, 0, 53, 65
1, 372889, Note_on_c, 0, 49, 62
1, 372936, Control_c, 0, 64, 56
1, 372965, Control_c, 0, 64, 56
1, 372977, Note_on_c, 0, 54, 81
1, 372980, Control_c, 0, 64, 57
1, 372995, Control_c, 0, 64, 58
1, 373007, Note_off_c, 0, 53, 62
1, 373010, Control_c, 0, 64, 58
1, 373028, Note_off_c, 0, 49, 64
1, 373032, Control_c, 0, 64, 59
1, 373039, Note_off_c, 0, 62, 60
1, 373046, Control_c, 0, 64, 61
1, 373055, Note_off_c, 0, 54, 64
1, 373061, Control_c, 0, 64, 63
1, 373076, Control_c, 0, 64, 64
1, 373091, Control_c, 0, 64, 65
1, 373094, Note_on_c, 0, 55, 84
1, 373103, Note_on_c, 0, 49, 80
1, 373106, Control_c, 0, 64, 61
1, 373121, Note_on_c, 0, 62, 91
1, 373121, Control_c, 0, 64, 39
1, 373136, Control_c, 0, 64, 0
1, 373210, Control_c, 0, 64, 52
1, 373224, Control_c, 0, 64, 59
1, 373226, Note_on_c, 0, 54, 78
1, 373235, Note_off_c, 0, 55, 61
1, 373239, Control_c, 0, 64, 62
1, 373254, Control_c, 0, 64, 63
1, 373256, Note_off_c, 0, 49, 63
1, 373269, Control_c, 0, 64, 64
1, 373284, Control_c, 0, 64, 66
1, 373288, Note_off_c, 0, 54, 63
1, 373298, Control_c, 0, 64, 67
1, 373328, Control_c, 0, 64, 64
1, 373341, Note_on_c, 0, 55, 101
1, 373343, Control_c, 0, 64, 52
1, 373344, Note_on_c, 0, 50, 90
1, 373358, Control_c, 0, 64, 0
1, 373372, Control_c, 0, 67, 121
1, 373383, Note_on_c, 0, 51, 31
1, 373383, Note_off_c, 0, 51, 127
1, 373387, Control_c, 0, 67, 97
1, 373402, Control_c, 0, 64, 35
1, 373402, Control_c, 0, 67, 85
1, 373416, Control_c, 0, 64, 58
1, 373416, Control_c, 0, 67, 84
1, 373431, Control_c, 0, 64, 66
1, 373448, Control_c, 0, 64, 69
1, 373448, Control_c, 0, 67, 84
1, 373461, Note_on_c, 0, 56, 91
1, 373462, Control_c, 0, 64, 70
1, 373462, Control_c, 0, 67, 83
1, 373467, Note_off_c, 0, 55, 63
1, 373474, Note_off_c, 0, 50, 64
1, 373477, Control_c, 0, 64, 72
1, 373477, Control_c, 0, 67, 82
1, 373492, Control_c, 0, 64, 75
1, 373492, Control_c, 0, 67, 81
1, 373507, Control_c, 0, 64, 77
1, 373507, Control_c, 0, 67, 80
1, 373512, Note_off_c, 0, 56, 62
1, 373515, Note_off_c, 0, 62, 63
1, 373521, Control_c, 0, 64, 78
1, 373521, Control_c, 0, 67, 75
1, 373536, Control_c, 0, 64, 79
1, 373536, Control_c, 0, 67, 61
1, 373551, Control_c, 0, 64, 78
1, 373551, Control_c, 0, 67, 41
1, 373566, Control_c, 0, 64, 71
1, 373566, Control_c, 0, 67, 23
1, 373576, Note_on_c, 0, 57, 96
1, 373577, Note_on_c, 0, 51, 90
1, 373581, Control_c, 0, 64, 53
1, 373581, Control_c, 0, 67, 0
1, 373588, Note_on_c, 0, 62, 93
1, 373595, Control_c, 0, 64, 0
1, 373639, Control_c, 0, 64, 34
1, 373654, Control_c, 0, 64, 65
1, 373669, Control_c, 0, 64, 79
1, 373684, Control_c, 0, 64, 94
1, 373699, Control_c, 0, 64, 122
1, 373714, Control_c, 0, 64, 127
1, 373714, Note_on_c, 0, 58, 87
1, 373720, Note_off_c, 0, 57, 66
1, 373735, Note_off_c, 0, 51, 59
1, 373737, Note_on_c, 0, 56, 59
1, 373768, Note_off_c, 0, 56, 62
1, 373782, Note_off_c, 0, 62, 61
1, 373793, Note_off_c, 0, 58, 61
1, 373845, Note_on_c, 0, 59, 92
1, 373849, Note_on_c, 0, 52, 93
1, 373881, Note_on_c, 0, 60, 30
1, 373884, Control_c, 0, 64, 101
1, 373884, Control_c, 0, 67, 49
1, 373899, Control_c, 0, 64, 51
1, 373899, Control_c, 0, 67, 69
1, 373914, Control_c, 0, 64, 0
1, 373914, Control_c, 0, 67, 62
1, 373917, Note_off_c, 0, 60, 55
1, 373928, Control_c, 0, 67, 55
1, 373943, Control_c, 0, 67, 48
1, 373973, Control_c, 0, 67, 52
1, 373988, Control_c, 0, 67, 52
1, 373997, Note_on_c, 0, 58, 85
1, 374016, Note_off_c, 0, 59, 55
1, 374047, Control_c, 0, 67, 53
1, 374062, Control_c, 0, 67, 54
1, 374092, Control_c, 0, 67, 54
1, 374107, Control_c, 0, 67, 52
1, 374114, Note_on_c, 0, 41, 98
1, 374121, Control_c, 0, 67, 51
1, 374122, Note_on_c, 0, 36, 81
1, 374125, Note_on_c, 0, 35, 90
1, 374125, Note_off_c, 0, 58, 62
1, 374136, Control_c, 0, 64, 43
1, 374136, Control_c, 0, 67, 50
1, 374151, Control_c, 0, 64, 75
1, 374151, Control_c, 0, 67, 49
1, 374155, Note_off_c, 0, 52, 59
1, 374166, Control_c, 0, 64, 112
1, 374166, Control_c, 0, 67, 45
1, 374181, Control_c, 0, 64, 127
1, 374181, Control_c, 0, 67, 34
1, 374195, Control_c, 0, 67, 0
1, 374230, Note_off_c, 0, 35, 58
1, 374247, Note_on_c, 0, 58, 90
1, 374257, Note_on_c, 0, 52, 76
1, 374368, Note_on_c, 0, 59, 96
1, 374388, Note_off_c, 0, 58, 62
1, 374418, Control_c, 0, 64, 97
1, 374418, Control_c, 0, 67, 24
1, 374433, Control_c, 0, 64, 57
1, 374433, Control_c, 0, 67, 0
1, 374448, Control_c, 0, 64, 0
1, 374449, Note_off_c, 0, 36, 57
1, 374471, Note_off_c, 0, 41, 35
1, 374492, Note_on_c, 0, 58, 95
1, 374528, Note_off_c, 0, 59, 63
1, 374624, Note_on_c, 0, 43, 97
1, 374628, Note_on_c, 0, 36, 95
1, 374632, Note_off_c, 0, 58, 60
1, 374648, Control_c, 0, 64, 54
1, 374651, Note_off_c, 0, 52, 60
1, 374663, Control_c, 0, 64, 83
1, 374677, Control_c, 0, 64, 101
1, 374692, Control_c, 0, 64, 104
1, 374722, Control_c, 0, 64, 122
1, 374737, Control_c, 0, 64, 127
1, 374749, Note_on_c, 0, 58, 93
1, 374760, Note_on_c, 0, 52, 80
1, 374878, Note_on_c, 0, 59, 96
1, 374890, Note_off_c, 0, 58, 58
1, 374915, Control_c, 0, 67, 26
1, 374930, Control_c, 0, 67, 22
1, 374944, Control_c, 0, 67, 0
1, 374961, Note_off_c, 0, 36, 58
1, 374967, Note_off_c, 0, 43, 60
1, 374987, Note_on_c, 0, 58, 99
1, 375015, Note_off_c, 0, 59, 65
1, 375019, Poly_aftertouch_c, 0, 39, 127
1, 375049, Poly_aftertouch_c, 0, 39, 0
1, 375064, Control_c, 0, 64, 74
1, 375079, Control_c, 0, 64, 0
1, 375097, Note_off_c, 0, 52, 48
1, 375108, Note_off_c, 0, 58, 62
1, 375118, Note_on_c, 0, 43, 99
1, 375121, Note_on_c, 0, 36, 92
1, 375147, Note_on_c, 0, 38, 47
1, 375147, Note_off_c, 0, 38, 127
1, 375153, Control_c, 0, 64, 39
1, 375167, Control_c, 0, 64, 58
1, 375182, Control_c, 0, 64, 60
1, 375197, Control_c, 0, 64, 59
1, 375212, Control_c, 0, 64, 61
1, 375227, Control_c, 0, 64, 64
1, 375241, Control_c, 0, 64, 65
1, 375253, Note_on_c, 0, 59, 98
1, 375264, Control_c, 0, 64, 66
1, 375264, Note_on_c, 0, 52, 87
1, 375293, Control_c, 0, 64, 67
1, 375308, Control_c, 0, 64, 69
1, 375323, Control_c, 0, 64, 72
1, 375338, Control_c, 0, 64, 73
1, 375353, Control_c, 0, 64, 75
1, 375367, Control_c, 0, 64, 77
1, 375382, Control_c, 0, 64, 86
1, 375397, Control_c, 0, 64, 100
1, 375398, Note_on_c, 0, 58, 95
1, 375411, Control_c, 0, 64, 97
1, 375420, Note_off_c, 0, 59, 64
1, 375426, Note_off_c, 0, 43, 63
1, 375426, Control_c, 0, 64, 67
1, 375432, Note_off_c, 0, 36, 62
1, 375441, Control_c, 0, 64, 0
1, 375516, Note_off_c, 0, 52, 59
1, 375518, Note_off_c, 0, 58, 62
1, 375538, Note_on_c, 0, 43, 96
1, 375539, Note_on_c, 0, 36, 100
1, 375691, Note_on_c, 0, 59, 94
1, 375692, Note_on_c, 0, 52, 91
1, 375695, Note_off_c, 0, 36, 63
1, 375708, Control_c, 0, 64, 61
1, 375723, Control_c, 0, 64, 127
1, 375723, Control_c, 0, 67, 28
1, 375723, Note_off_c, 0, 43, 64
1, 375738, Control_c, 0, 67, 0
1, 375855, Note_on_c, 0, 58, 94
1, 375884, Note_off_c, 0, 59, 64
1, 375963, Note_off_c, 0, 52, 59
1, 375965, Note_off_c, 0, 58, 60
1, 376027, Control_c, 0, 64, 77
1, 376042, Note_on_c, 0, 76, 95
1, 376042, Control_c, 0, 64, 0
1, 376124, Note_on_c, 0, 74, 92
1, 376148, Note_off_c, 0, 76, 67
1, 376198, Note_on_c, 0, 73, 93
1, 376249, Note_off_c, 0, 74, 60
1, 376267, Note_on_c, 0, 71, 93
1, 376308, Note_off_c, 0, 73, 62
1, 376330, Note_off_c, 0, 71, 67
1, 376350, Note_on_c, 0, 44, 85
1, 376350, Note_on_c, 0, 47, 89
1, 376352, Note_on_c, 0, 40, 79
1, 376353, Control_c, 0, 64, 63
1, 376353, Control_c, 0, 67, 28
1, 376354, Note_on_c, 0, 37, 85
1, 376368, Control_c, 0, 64, 127
1, 376368, Control_c, 0, 67, 0
1, 376397, Control_c, 0, 64, 90
1, 376412, Control_c, 0, 64, 76
1, 376427, Control_c, 0, 64, 75
1, 376441, Control_c, 0, 64, 75
1, 376445, Note_off_c, 0, 37, 61
1, 376462, Note_off_c, 0, 40, 61
1, 376471, Control_c, 0, 64, 68
1, 376480, Note_off_c, 0, 44, 63
1, 376486, Control_c, 0, 64, 0
1, 376489, Note_off_c, 0, 47, 66
1, 376509, Note_on_c, 0, 69, 90
1, 376580, Note_on_c, 0, 67, 87
1, 376595, Note_off_c, 0, 69, 64
1, 376657, Note_on_c, 0, 66, 90
1, 376693, Note_off_c, 0, 67, 64
1, 376722, Note_on_c, 0, 64, 83
1, 376764, Note_off_c, 0, 66, 62
1, 376811, Note_on_c, 0, 59, 93
1, 376811, Note_on_c, 0, 52, 89
1, 376811, Note_on_c, 0, 56, 89
1, 376814, Note_on_c, 0, 49, 84
1, 376815, Note_off_c, 0, 64, 62
1, 376882, Note_off_c, 0, 59, 62
1, 376884, Note_off_c, 0, 49, 61
1, 376900, Note_off_c, 0, 52, 57
1, 376909, Note_off_c, 0, 56, 54
1, 376985, Note_on_c, 0, 51, 90
1, 376988, Note_on_c, 0, 59, 97
1, 376990, Note_on_c, 0, 56, 93
1, 376996, Note_on_c, 0, 49, 85
1, 376996, Poly_aftertouch_c, 0, 66, 127
1, 377012, Note_on_c, 0, 52, 72
1, 377013, Control_c, 0, 64, 42
1, 377028, Control_c, 0, 64, 77
1, 377043, Control_c, 0, 64, 96
1, 377058, Control_c, 0, 64, 101
1, 377061, Note_off_c, 0, 51, 59
1, 377061, Poly_aftertouch_c, 0, 66, 0
1, 377087, Control_c, 0, 64, 106
1, 377102, Control_c, 0, 64, 127
1, 377107, Note_off_c, 0, 59, 61
1, 377120, Note_off_c, 0, 56, 60
1, 377133, Note_off_c, 0, 52, 63
1, 377143, Note_on_c, 0, 62, 91
1, 377161, Control_c, 0, 64, 72
1, 377162, Note_off_c, 0, 49, 64
1, 377176, Control_c, 0, 64, 0
1, 377202, Note_off_c, 0, 62, 60
1, 377215, Note_on_c, 0, 64, 86
1, 377281, Note_on_c, 0, 66, 90
1, 377287, Note_off_c, 0, 64, 65
1, 377360, Note_on_c, 0, 67, 91
1, 377409, Note_off_c, 0, 66, 32
1, 377523, Note_on_c, 0, 37, 86
1, 377525, Note_on_c, 0, 47, 94
1, 377527, Note_on_c, 0, 44, 85
1, 377527, Note_off_c, 0, 67, 64
1, 377529, Note_on_c, 0, 40, 83
1, 377540, Control_c, 0, 64, 48
1, 377555, Control_c, 0, 64, 45
1, 377569, Control_c, 0, 64, 0
1, 377652, Note_off_c, 0, 37, 59
1, 377657, Note_off_c, 0, 40, 60
1, 377679, Note_off_c, 0, 44, 63
1, 377688, Note_on_c, 0, 69, 87
1, 377690, Note_off_c, 0, 47, 55
1, 377764, Note_on_c, 0, 67, 86
1, 377780, Note_off_c, 0, 69, 63
1, 377839, Note_on_c, 0, 66, 88
1, 377881, Note_off_c, 0, 67, 65
1, 377912, Note_on_c, 0, 64, 95
1, 377948, Note_off_c, 0, 66, 63
1, 378041, Note_on_c, 0, 47, 98
1, 378043, Control_c, 0, 67, 21
1, 378044, Note_on_c, 0, 40, 82
1, 378045, Note_on_c, 0, 37, 82
1, 378045, Note_on_c, 0, 44, 83
1, 378054, Note_off_c, 0, 64, 55
1, 378058, Control_c, 0, 64, 66
1, 378058, Control_c, 0, 67, 0
1, 378073, Control_c, 0, 64, 127
1, 378075, Note_off_c, 0, 37, 67
1, 378084, Note_off_c, 0, 40, 63
1, 378103, Note_off_c, 0, 47, 66
1, 378104, Note_off_c, 0, 44, 64
1, 378304, Control_c, 0, 64, 69
1, 378319, Control_c, 0, 64, 0
1, 378319, Control_c, 0, 67, 28
1, 378326, Note_on_c, 0, 59, 74
1, 378332, Note_on_c, 0, 56, 89
1, 378333, Note_on_c, 0, 49, 89
1, 378334, Note_on_c, 0, 52, 83
1, 378349, Control_c, 0, 67, 25
1, 378379, Control_c, 0, 64, 58
1, 378393, Control_c, 0, 64, 80
1, 378393, Control_c, 0, 67, 28
1, 378408, Control_c, 0, 64, 100
1, 378408, Control_c, 0, 67, 35
1, 378423, Control_c, 0, 64, 127
1, 378423, Control_c, 0, 67, 41
1, 378437, Control_c, 0, 67, 42
1, 378452, Control_c, 0, 67, 41
1, 378467, Control_c, 0, 67, 40
1, 378482, Control_c, 0, 67, 41
1, 378497, Control_c, 0, 67, 43
1, 378511, Control_c, 0, 67, 44
1, 378531, Note_off_c, 0, 49, 61
1, 378531, Note_on_c, 0, 88, 91
1, 378537, Note_off_c, 0, 52, 61
1, 378541, Control_c, 0, 67, 43
1, 378553, Note_off_c, 0, 56, 61
1, 378562, Note_off_c, 0, 59, 63
1, 378585, Control_c, 0, 67, 44
1, 378599, Note_on_c, 0, 86, 84
1, 378600, Control_c, 0, 67, 45
1, 378609, Note_off_c, 0, 88, 63
1, 378615, Control_c, 0, 67, 45
1, 378630, Control_c, 0, 67, 44
1, 378644, Control_c, 0, 67, 43
1, 378665, Note_on_c, 0, 85, 92
1, 378674, Control_c, 0, 67, 44
1, 378689, Control_c, 0, 67, 45
1, 378693, Note_off_c, 0, 86, 65
1, 378719, Control_c, 0, 67, 45
1, 378731, Note_on_c, 0, 83, 92
1, 378734, Control_c, 0, 67, 44
1, 378744, Note_off_c, 0, 85, 65
1, 378778, Control_c, 0, 67, 45
1, 378793, Control_c, 0, 67, 44
1, 378808, Control_c, 0, 67, 43
1, 378808, Note_on_c, 0, 85, 96
1, 378818, Note_off_c, 0, 83, 63
1, 378823, Control_c, 0, 67, 42
1, 378852, Control_c, 0, 67, 43
1, 378867, Note_off_c, 0, 85, 69
1, 378867, Control_c, 0, 67, 44
1, 378877, Note_on_c, 0, 86, 86
1, 378882, Control_c, 0, 67, 44
1, 378897, Control_c, 0, 67, 42
1, 378941, Control_c, 0, 67, 45
1, 378945, Note_on_c, 0, 88, 90
1, 378949, Note_on_c, 0, 71, 93
1, 378952, Note_on_c, 0, 64, 80
1, 378952, Note_on_c, 0, 68, 81
1, 378955, Control_c, 0, 67, 46
1, 378957, Note_on_c, 0, 61, 75
1, 378970, Control_c, 0, 67, 45
1, 378985, Control_c, 0, 64, 111
1, 378985, Control_c, 0, 67, 44
1, 378986, Note_off_c, 0, 61, 63
1, 378993, Note_off_c, 0, 68, 62
1, 378997, Note_off_c, 0, 71, 62
1, 379000, Control_c, 0, 64, 63
1, 379000, Control_c, 0, 67, 44
1, 379002, Note_off_c, 0, 64, 61
1, 379023, Control_c, 0, 64, 0
1, 379023, Control_c, 0, 67, 44
1, 379029, Note_on_c, 0, 83, 94
1, 379038, Note_off_c, 0, 86, 33
1, 379038, Control_c, 0, 67, 46
1, 379053, Control_c, 0, 67, 47
1, 379059, Note_off_c, 0, 88, 65
1, 379068, Control_c, 0, 67, 47
1, 379082, Control_c, 0, 67, 46
1, 379090, Note_off_c, 0, 83, 65
1, 379103, Note_on_c, 0, 72, 96
1, 379105, Note_on_c, 0, 62, 82
1, 379110, Note_on_c, 0, 65, 82
1, 379111, Note_on_c, 0, 69, 80
1, 379112, Control_c, 0, 67, 47
1, 379127, Control_c, 0, 67, 48
1, 379138, Note_on_c, 0, 70, 39
1, 379138, Note_off_c, 0, 70, 127
1, 379142, Control_c, 0, 67, 50
1, 379152, Note_off_c, 0, 72, 63
1, 379157, Control_c, 0, 67, 50
1, 379163, Note_off_c, 0, 69, 64
1, 379169, Note_off_c, 0, 62, 60
1, 379172, Control_c, 0, 67, 49
1, 379173, Note_off_c, 0, 65, 65
1, 379186, Control_c, 0, 67, 49
1, 379216, Control_c, 0, 67, 49
1, 379231, Control_c, 0, 67, 50
1, 379261, Note_on_c, 0, 71, 89
1, 379265, Note_on_c, 0, 64, 81
1, 379273, Note_on_c, 0, 68, 84
1, 379275, Note_on_c, 0, 61, 78
1, 379275, Control_c, 0, 67, 50
1, 379282, Note_on_c, 0, 81, 92
1, 379290, Control_c, 0, 64, 37
1, 379290, Control_c, 0, 67, 49
1, 379305, Control_c, 0, 64, 37
1, 379305, Control_c, 0, 67, 50
1, 379320, Control_c, 0, 64, 38
1, 379320, Control_c, 0, 67, 51
1, 379330, Note_off_c, 0, 71, 63
1, 379334, Control_c, 0, 64, 45
1, 379334, Control_c, 0, 67, 52
1, 379344, Note_on_c, 0, 83, 87
1, 379348, Note_off_c, 0, 81, 63
1, 379349, Control_c, 0, 64, 55
1, 379349, Control_c, 0, 67, 52
1, 379352, Note_off_c, 0, 68, 60
1, 379357, Note_off_c, 0, 64, 62
1, 379364, Control_c, 0, 64, 62
1, 379376, Note_off_c, 0, 61, 62
1, 379379, Control_c, 0, 64, 65
1, 379379, Control_c, 0, 67, 51
1, 379423, Control_c, 0, 67, 52
1, 379425, Note_on_c, 0, 81, 92
1, 379438, Control_c, 0, 67, 53
1, 379457, Note_off_c, 0, 83, 62
1, 379467, Control_c, 0, 67, 52
1, 379482, Control_c, 0, 64, 65
1, 379482, Control_c, 0, 67, 51
1, 379490, Note_off_c, 0, 81, 67
1, 379497, Control_c, 0, 64, 64
1, 379497, Control_c, 0, 67, 51
1, 379498, Note_on_c, 0, 79, 81
1, 379512, Control_c, 0, 64, 62
1, 379512, Control_c, 0, 67, 51
1, 379527, Control_c, 0, 64, 60
1, 379527, Control_c, 0, 67, 53
1, 379542, Control_c, 0, 64, 58
1, 379556, Control_c, 0, 64, 54
1, 379556, Control_c, 0, 67, 52
1, 379571, Control_c, 0, 64, 45
1, 379571, Control_c, 0, 67, 52
1, 379576, Note_on_c, 0, 78, 93
1, 379580, Note_on_c, 0, 49, 73
1, 379580, Note_on_c, 0, 59, 77
1, 379581, Note_on_c, 0, 52, 78
1, 379583, Note_off_c, 0, 79, 65
1, 379586, Control_c, 0, 64, 0
1, 379586, Control_c, 0, 67, 51
1, 379587, Note_on_c, 0, 56, 78
1, 379588, Note_on_c, 0, 80, 62
1, 379601, Control_c, 0, 67, 52
1, 379608, Note_off_c, 0, 80, 66
1, 379612, Note_off_c, 0, 49, 66
1, 379616, Control_c, 0, 67, 54
1, 379631, Control_c, 0, 67, 57
1, 379632, Note_off_c, 0, 59, 63
1, 379639, Note_off_c, 0, 52, 63
1, 379644, Note_off_c, 0, 56, 61
1, 379646, Control_c, 0, 67, 58
1, 379652, Note_on_c, 0, 76, 90
1, 379670, Note_off_c, 0, 78, 62
1, 379705, Control_c, 0, 67, 60
1, 379720, Control_c, 0, 67, 62
1, 379725, Note_on_c, 0, 48, 80
1, 379729, Note_on_c, 0, 58, 80
1, 379732, Note_on_c, 0, 51, 67
1, 379734, Control_c, 0, 67, 63
1, 379738, Note_on_c, 0, 55, 71
1, 379749, Control_c, 0, 67, 62
1, 379771, Control_c, 0, 67, 61
1, 379801, Control_c, 0, 64, 34
1, 379801, Control_c, 0, 67, 63
1, 379803, Note_off_c, 0, 48, 64
1, 379812, Note_off_c, 0, 58, 61
1, 379813, Note_off_c, 0, 55, 62
1, 379816, Control_c, 0, 64, 52
1, 379816, Control_c, 0, 67, 65
1, 379822, Note_off_c, 0, 76, 55
1, 379825, Note_off_c, 0, 51, 63
1, 379831, Control_c, 0, 64, 60
1, 379831, Control_c, 0, 67, 66
1, 379846, Control_c, 0, 64, 62
1, 379846, Control_c, 0, 67, 64
1, 379861, Control_c, 0, 64, 61
1, 379861, Control_c, 0, 67, 63
1, 379876, Control_c, 0, 67, 63
1, 379890, Control_c, 0, 64, 61
1, 379890, Control_c, 0, 67, 63
1, 379902, Note_on_c, 0, 59, 77
1, 379905, Control_c, 0, 64, 57
1, 379905, Control_c, 0, 67, 64
1, 379908, Note_on_c, 0, 49, 77
1, 379908, Note_on_c, 0, 52, 62
1, 379909, Note_on_c, 0, 56, 68
1, 379909, Note_on_c, 0, 74, 87
1, 379920, Control_c, 0, 64, 42
1, 379935, Control_c, 0, 64, 0
1, 379935, Control_c, 0, 67, 63
1, 379945, Note_on_c, 0, 53, 32
1, 379950, Control_c, 0, 67, 62
1, 379973, Note_on_c, 0, 76, 87
1, 379977, Note_off_c, 0, 74, 62
1, 379985, Note_off_c, 0, 53, 34
1, 379995, Control_c, 0, 67, 65
1, 380009, Control_c, 0, 67, 66
1, 380039, Control_c, 0, 67, 64
1, 380053, Note_on_c, 0, 78, 89
1, 380054, Control_c, 0, 67, 63
1, 380062, Note_off_c, 0, 76, 64
1, 380083, Control_c, 0, 67, 64
1, 380098, Control_c, 0, 67, 65
1, 380104, Note_off_c, 0, 78, 69
1, 380126, Note_on_c, 0, 79, 91
1, 380128, Control_c, 0, 67, 63
1, 380143, Control_c, 0, 67, 62
1, 380172, Control_c, 0, 67, 63
1, 380187, Control_c, 0, 67, 65
1, 380214, Note_off_c, 0, 79, 68
1, 380215, Note_on_c, 0, 81, 90
1, 380216, Control_c, 0, 67, 62
1, 380230, Note_off_c, 0, 52, 59
1, 380231, Control_c, 0, 67, 59
1, 380246, Control_c, 0, 67, 57
1, 380253, Note_off_c, 0, 49, 63
1, 380260, Note_off_c, 0, 59, 62
1, 380261, Control_c, 0, 64, 35
1, 380271, Note_off_c, 0, 56, 62
1, 380276, Control_c, 0, 64, 61
1, 380276, Control_c, 0, 67, 60
1, 380290, Note_on_c, 0, 79, 94
1, 380290, Control_c, 0, 64, 65
1, 380290, Control_c, 0, 67, 61
1, 380302, Note_off_c, 0, 81, 63
1, 380305, Control_c, 0, 64, 66
1, 380305, Control_c, 0, 67, 60
1, 380320, Control_c, 0, 64, 67
1, 380320, Control_c, 0, 67, 58
1, 380334, Control_c, 0, 64, 68
1, 380334, Control_c, 0, 67, 58
1, 380349, Control_c, 0, 64, 71
1, 380349, Control_c, 0, 67, 59
1, 380362, Note_on_c, 0, 78, 90
1, 380364, Control_c, 0, 64, 75
1, 380364, Control_c, 0, 67, 61
1, 380379, Control_c, 0, 64, 80
1, 380379, Control_c, 0, 67, 63
1, 380394, Control_c, 0, 64, 85
1, 380394, Control_c, 0, 67, 62
1, 380401, Note_off_c, 0, 79, 63
1, 380409, Control_c, 0, 64, 92
1, 380409, Control_c, 0, 67, 60
1, 380424, Control_c, 0, 64, 100
1, 380439, Control_c, 0, 64, 112
1, 380439, Control_c, 0, 67, 61
1, 380442, Note_on_c, 0, 76, 90
1, 380454, Control_c, 0, 64, 127
1, 380454, Control_c, 0, 67, 63
1, 380469, Control_c, 0, 67, 65
1, 380483, Control_c, 0, 64, 116
1, 380498, Control_c, 0, 64, 82
1, 380498, Control_c, 0, 67, 63
1, 380519, Note_off_c, 0, 78, 58
1, 380520, Control_c, 0, 64, 61
1, 380520, Control_c, 0, 67, 62
1, 380522, Note_on_c, 0, 61, 77
1, 380531, Note_on_c, 0, 51, 64
1, 380531, Note_on_c, 0, 58, 66
1, 380534, Control_c, 0, 64, 0
1, 380537, Note_on_c, 0, 56, 60
1, 380549, Control_c, 0, 67, 63
1, 380564, Control_c, 0, 67, 64
1, 380579, Control_c, 0, 64, 42
1, 380579, Control_c, 0, 67, 65
1, 380594, Control_c, 0, 64, 61
1, 380594, Control_c, 0, 67, 65
1, 380598, Note_off_c, 0, 76, 64
1, 380609, Control_c, 0, 64, 69
1, 380609, Control_c, 0, 67, 64
1, 380624, Control_c, 0, 64, 74
1, 380639, Control_c, 0, 64, 76
1, 380654, Control_c, 0, 64, 78
1, 380654, Control_c, 0, 67, 65
1, 380669, Control_c, 0, 64, 81
1, 380669, Control_c, 0, 67, 66
1, 380684, Control_c, 0, 64, 83
1, 380684, Control_c, 0, 67, 65
1, 380693, Note_on_c, 0, 78, 87
1, 380699, Control_c, 0, 64, 84
1, 380699, Control_c, 0, 67, 63
1, 380711, Note_off_c, 0, 56, 59
1, 380713, Control_c, 0, 64, 86
1, 380713, Control_c, 0, 67, 62
1, 380716, Note_off_c, 0, 58, 62
1, 380716, Note_off_c, 0, 61, 56
1, 380719, Note_off_c, 0, 51, 61
1, 380728, Control_c, 0, 64, 88
1, 380743, Control_c, 0, 64, 93
1, 380758, Control_c, 0, 64, 100
1, 380758, Control_c, 0, 67, 65
1, 380762, Note_on_c, 0, 76, 84
1, 380773, Control_c, 0, 64, 112
1, 380773, Control_c, 0, 67, 66
1, 380788, Control_c, 0, 64, 124
1, 380788, Control_c, 0, 67, 65
1, 380802, Control_c, 0, 64, 127
1, 380802, Control_c, 0, 67, 64
1, 380817, Control_c, 0, 64, 119
1, 380832, Control_c, 0, 64, 90
1, 380838, Note_on_c, 0, 61, 76
1, 380842, Note_on_c, 0, 51, 73
1, 380844, Note_on_c, 0, 58, 70
1, 380844, Note_on_c, 0, 56, 68
1, 380847, Control_c, 0, 64, 70
1, 380847, Control_c, 0, 67, 66
1, 380862, Control_c, 0, 64, 51
1, 380862, Control_c, 0, 67, 67
1, 380877, Control_c, 0, 64, 0
1, 380890, Note_off_c, 0, 78, 45
1, 380892, Control_c, 0, 67, 67
1, 380904, Note_off_c, 0, 76, 62
1, 380906, Control_c, 0, 64, 56
1, 380921, Control_c, 0, 64, 70
1, 380921, Control_c, 0, 67, 67
1, 380936, Control_c, 0, 64, 84
1, 380936, Control_c, 0, 67, 69
1, 380948, Note_off_c, 0, 51, 60
1, 380950, Control_c, 0, 64, 99
1, 380950, Control_c, 0, 67, 75
1, 380965, Control_c, 0, 64, 105
1, 380965, Control_c, 0, 67, 79
1, 380975, Note_off_c, 0, 58, 63
1, 380980, Control_c, 0, 64, 111
1, 380980, Control_c, 0, 67, 79
1, 380981, Note_off_c, 0, 56, 61
1, 380990, Note_off_c, 0, 61, 57
1, 380995, Control_c, 0, 64, 127
1, 380995, Control_c, 0, 67, 77
1, 381010, Note_on_c, 0, 78, 84
1, 381010, Control_c, 0, 67, 76
1, 381024, Control_c, 0, 67, 76
1, 381039, Control_c, 0, 67, 77
1, 381054, Control_c, 0, 67, 78
1, 381069, Control_c, 0, 67, 77
1, 381079, Note_on_c, 0, 76, 89
1, 381084, Control_c, 0, 67, 77
1, 381113, Control_c, 0, 67, 78
1, 381128, Control_c, 0, 67, 80
1, 381143, Control_c, 0, 64, 74
1, 381143, Control_c, 0, 67, 81
1, 381149, Note_on_c, 0, 61, 73
1, 381151, Note_on_c, 0, 63, 82
1, 381157, Control_c, 0, 64, 50
1, 381157, Control_c, 0, 67, 80
1, 381160, Note_on_c, 0, 53, 69
1, 381172, Control_c, 0, 64, 0
1, 381172, Control_c, 0, 67, 79
1, 381193, Note_off_c, 0, 78, 28
1, 381202, Control_c, 0, 64, 35
1, 381217, Note_off_c, 0, 76, 62
1, 381217, Control_c, 0, 64, 61
1, 381217, Control_c, 0, 67, 80
1, 381232, Control_c, 0, 64, 73
1, 381232, Control_c, 0, 67, 82
1, 381254, Control_c, 0, 64, 83
1, 381254, Control_c, 0, 67, 83
1, 381269, Control_c, 0, 64, 90
1, 381284, Control_c, 0, 64, 92
1, 381284, Control_c, 0, 67, 82
1, 381299, Control_c, 0, 64, 99
1, 381313, Control_c, 0, 64, 112
1, 381328, Control_c, 0, 64, 127
1, 381332, Note_on_c, 0, 78, 87
1, 381346, Note_off_c, 0, 53, 53
1, 381353, Note_off_c, 0, 61, 59
1, 381357, Control_c, 0, 67, 81
1, 381360, Note_off_c, 0, 63, 53
1, 381372, Control_c, 0, 67, 79
1, 381402, Note_on_c, 0, 76, 87
1, 381402, Control_c, 0, 67, 81
1, 381417, Control_c, 0, 67, 83
1, 381433, Control_c, 0, 67, 84
1, 381462, Control_c, 0, 64, 96
1, 381462, Control_c, 0, 67, 83
1, 381477, Control_c, 0, 64, 65
1, 381477, Control_c, 0, 67, 82
1, 381483, Note_on_c, 0, 61, 77
1, 381488, Note_on_c, 0, 63, 78
1, 381489, Note_on_c, 0, 53, 71
1, 381492, Control_c, 0, 64, 45
1, 381507, Control_c, 0, 64, 46
1, 381522, Note_off_c, 0, 78, 30
1, 381522, Control_c, 0, 64, 62
1, 381522, Control_c, 0, 67, 84
1, 381536, Note_off_c, 0, 76, 64
1, 381536, Control_c, 0, 64, 78
1, 381536, Control_c, 0, 67, 85
1, 381551, Control_c, 0, 64, 127
1, 381607, Note_off_c, 0, 53, 59
1, 381625, Control_c, 0, 67, 85
1, 381640, Note_off_c, 0, 63, 62
1, 381640, Control_c, 0, 67, 85
1, 381652, Note_on_c, 0, 78, 87
1, 381655, Control_c, 0, 67, 82
1, 381661, Note_off_c, 0, 61, 58
1, 381670, Control_c, 0, 67, 81
1, 381700, Control_c, 0, 67, 82
1, 381715, Control_c, 0, 67, 84
1, 381723, Note_on_c, 0, 76, 89
1, 381729, Control_c, 0, 67, 84
1, 381744, Control_c, 0, 67, 83
1, 381759, Control_c, 0, 67, 81
1, 381774, Control_c, 0, 67, 81
1, 381775, Note_off_c, 0, 78, 56
1, 381788, Control_c, 0, 67, 82
1, 381803, Note_on_c, 0, 65, 85
1, 381803, Control_c, 0, 64, 101
1, 381803, Control_c, 0, 67, 85
1, 381804, Note_on_c, 0, 55, 74
1, 381806, Note_on_c, 0, 60, 82
1, 381818, Control_c, 0, 64, 66
1, 381818, Control_c, 0, 67, 86
1, 381833, Control_c, 0, 64, 0
1, 381847, Control_c, 0, 67, 85
1, 381877, Control_c, 0, 64, 54
1, 381877, Control_c, 0, 67, 85
1, 381892, Control_c, 0, 64, 69
1, 381892, Control_c, 0, 67, 87
1, 381906, Control_c, 0, 64, 85
1, 381906, Control_c, 0, 67, 89
1, 381907, Note_off_c, 0, 76, 58
1, 381921, Control_c, 0, 64, 111
1, 381921, Control_c, 0, 67, 90
1, 381936, Control_c, 0, 64, 127
1, 381951, Control_c, 0, 67, 90
1, 381964, Note_on_c, 0, 81, 84
1, 381989, Note_off_c, 0, 60, 63
1, 381990, Note_off_c, 0, 65, 60
1, 381991, Note_off_c, 0, 55, 58
1, 382033, Note_off_c, 0, 81, 65
1, 382033, Control_c, 0, 67, 89
1, 382043, Note_on_c, 0, 76, 88
1, 382048, Control_c, 0, 67, 89
1, 382077, Control_c, 0, 67, 89
1, 382092, Control_c, 0, 67, 91
1, 382121, Control_c, 0, 67, 90
1, 382126, Note_on_c, 0, 65, 81
1, 382131, Note_on_c, 0, 55, 69
1, 382131, Note_on_c, 0, 60, 73
1, 382136, Control_c, 0, 64, 93
1, 382136, Control_c, 0, 67, 89
1, 382151, Control_c, 0, 64, 66
1, 382166, Control_c, 0, 64, 36
1, 382166, Control_c, 0, 67, 89
1, 382180, Control_c, 0, 64, 39
1, 382180, Control_c, 0, 67, 91
1, 382195, Control_c, 0, 64, 59
1, 382195, Control_c, 0, 67, 92
1, 382210, Control_c, 0, 64, 73
1, 382226, Control_c, 0, 64, 94
1, 382241, Control_c, 0, 64, 127
1, 382248, Note_off_c, 0, 76, 43
1, 382271, Control_c, 0, 67, 92
1, 382284, Note_off_c, 0, 60, 61
1, 382287, Note_on_c, 0, 75, 71
1, 382296, Note_off_c, 0, 65, 59
1, 382299, Note_off_c, 0, 55, 59
1, 382315, Control_c, 0, 67, 92
1, 382359, Control_c, 0, 67, 93
1, 382362, Note_on_c, 0, 70, 78
1, 382374, Control_c, 0, 67, 94
1, 382379, Note_off_c, 0, 75, 61
1, 382389, Control_c, 0, 67, 97
1, 382418, Control_c, 0, 67, 100
1, 382433, Control_c, 0, 64, 100
1, 382433, Control_c, 0, 67, 106
1, 382448, Control_c, 0, 64, 69
1, 382448, Control_c, 0, 67, 116
1, 382452, Note_on_c, 0, 59, 57
1, 382454, Note_on_c, 0, 65, 69
1, 382459, Note_on_c, 0, 55, 56
1, 382463, Control_c, 0, 64, 0
1, 382463, Control_c, 0, 67, 127
1, 382537, Control_c, 0, 64, 38
1, 382552, Control_c, 0, 64, 63
1, 382567, Control_c, 0, 64, 73
1, 382582, Control_c, 0, 64, 80
1, 382597, Control_c, 0, 64, 82
1, 382611, Control_c, 0, 64, 83
1, 382626, Control_c, 0, 64, 84
1, 382633, Note_off_c, 0, 70, 62
1, 382635, Note_on_c, 0, 68, 65
1, 382656, Control_c, 0, 64, 83
1, 382671, Control_c, 0, 64, 75
1, 382685, Control_c, 0, 64, 62
1, 382700, Control_c, 0, 64, 0
1, 382701, Note_off_c, 0, 68, 62
1, 382706, Note_off_c, 0, 65, 60
1, 382719, Note_on_c, 0, 73, 69
1, 382761, Note_off_c, 0, 59, 64
1, 382774, Note_off_c, 0, 55, 63
1, 382782, Control_c, 0, 64, 57
1, 382797, Control_c, 0, 64, 71
1, 382811, Control_c, 0, 64, 89
1, 382826, Control_c, 0, 64, 127
1, 382868, Note_off_c, 0, 73, 59
1, 382929, Control_c, 0, 64, 85
1, 382944, Control_c, 0, 64, 67
1, 382959, Control_c, 0, 64, 44
1, 382974, Control_c, 0, 64, 0
1, 382981, Note_on_c, 0, 48, 32
1, 382987, Note_on_c, 0, 52, 30
1, 382990, Note_on_c, 0, 45, 29
1, 383256, Control_c, 0, 64, 53
1, 383271, Control_c, 0, 64, 60
1, 383286, Control_c, 0, 64, 62
1, 383315, Control_c, 0, 64, 63
1, 383330, Control_c, 0, 64, 64
1, 383345, Control_c, 0, 64, 64
1, 383359, Control_c, 0, 64, 65
1, 383389, Control_c, 0, 64, 65
1, 383404, Control_c, 0, 64, 66
1, 383419, Control_c, 0, 64, 67
1, 383433, Control_c, 0, 64, 68
1, 383448, Control_c, 0, 64, 70
1, 383463, Control_c, 0, 64, 71
1, 383478, Control_c, 0, 64, 72
1, 383493, Control_c, 0, 64, 73
1, 383515, Control_c, 0, 64, 74
1, 383530, Control_c, 0, 64, 75
1, 383545, Control_c, 0, 64, 76
1, 383559, Control_c, 0, 64, 78
1, 383574, Control_c, 0, 64, 79
1, 383589, Control_c, 0, 64, 81
1, 383604, Control_c, 0, 64, 82
1, 383619, Control_c, 0, 64, 83
1, 383633, Control_c, 0, 64, 84
1, 383663, Control_c, 0, 64, 84
1, 383677, Control_c, 0, 64, 85
1, 383796, Control_c, 0, 64, 84
1, 383811, Control_c, 0, 64, 81
1, 383827, Control_c, 0, 64, 76
1, 383842, Control_c, 0, 64, 71
1, 383856, Control_c, 0, 64, 65
1, 383861, Note_off_c, 0, 52, 37
1, 383866, Note_on_c, 0, 56, 36
1, 383871, Control_c, 0, 64, 59
1, 383886, Control_c, 0, 64, 48
1, 383887, Note_on_c, 0, 51, 12
1, 383901, Control_c, 0, 64, 0
1, 383902, Note_off_c, 0, 45, 43
1, 383906, Note_on_c, 0, 47, 34
1, 383910, Note_off_c, 0, 48, 42
1, 384353, Control_c, 0, 64, 37
1, 384368, Control_c, 0, 64, 49
1, 384382, Control_c, 0, 64, 56
1, 384397, Control_c, 0, 64, 59
1, 384412, Control_c, 0, 64, 60
1, 384427, Control_c, 0, 64, 61
1, 384442, Control_c, 0, 64, 62
1, 384456, Control_c, 0, 64, 63
1, 384471, Control_c, 0, 64, 63
1, 384486, Control_c, 0, 64, 64
1, 384500, Control_c, 0, 64, 65
1, 384515, Control_c, 0, 64, 66
1, 384530, Control_c, 0, 64, 68
1, 384545, Control_c, 0, 64, 70
1, 384560, Control_c, 0, 64, 72
1, 384574, Control_c, 0, 64, 74
1, 384589, Control_c, 0, 64, 77
1, 384604, Control_c, 0, 64, 80
1, 384620, Control_c, 0, 64, 82
1, 384635, Control_c, 0, 64, 84
1, 384650, Control_c, 0, 64, 85
1, 384665, Control_c, 0, 64, 87
1, 384679, Control_c, 0, 64, 88
1, 384694, Control_c, 0, 64, 90
1, 384707, Note_off_c, 0, 47, 55
1, 384709, Control_c, 0, 64, 93
1, 384723, Control_c, 0, 64, 95
1, 384753, Control_c, 0, 64, 98
1, 384783, Control_c, 0, 64, 100
1, 384797, Control_c, 0, 64, 102
1, 384895, Note_off_c, 0, 51, 41
1, 384901, Control_c, 0, 64, 94
1, 384909, Note_off_c, 0, 56, 40
1, 384916, Control_c, 0, 64, 80
1, 384931, Control_c, 0, 64, 68
1, 384946, Control_c, 0, 64, 56
1, 384947, Note_on_c, 0, 48, 39
1, 384961, Control_c, 0, 64, 46
1, 384964, Note_on_c, 0, 40, 15
1, 384964, Note_on_c, 0, 45, 20
1, 384976, Control_c, 0, 64, 41
1, 384991, Control_c, 0, 64, 41
1, 385042, Control_c, 0, 64, 39
1, 385057, Control_c, 0, 64, 34
1, 385072, Control_c, 0, 64, 0
1, 385311, Note_on_c, 0, 59, 49
1, 385321, Note_on_c, 0, 51, 43
1, 385321, Note_on_c, 0, 56, 35
1, 385338, Control_c, 0, 64, 50
1, 385342, Note_off_c, 0, 48, 53
1, 385351, Note_off_c, 0, 45, 52
1, 385353, Control_c, 0, 64, 63
1, 385354, Note_off_c, 0, 40, 49
1, 385368, Control_c, 0, 64, 67
1, 385383, Control_c, 0, 64, 72
1, 385397, Control_c, 0, 64, 76
1, 385412, Control_c, 0, 64, 81
1, 385428, Control_c, 0, 64, 85
1, 385443, Control_c, 0, 64, 91
1, 385458, Control_c, 0, 64, 104
1, 385473, Control_c, 0, 64, 127
1, 385587, Note_off_c, 0, 51, 53
1, 385630, Note_off_c, 0, 59, 61
1, 385655, Note_off_c, 0, 56, 40
1, 385678, Note_on_c, 0, 40, 64
1, 385678, Note_on_c, 0, 45, 73
1, 385681, Control_c, 0, 64, 97
1, 385682, Note_on_c, 0, 36, 69
1, 385695, Control_c, 0, 64, 68
1, 385710, Control_c, 0, 64, 46
1, 385725, Control_c, 0, 64, 0
1, 385762, Control_c, 0, 67, 121
1, 385777, Control_c, 0, 67, 116
1, 385793, Note_off_c, 0, 40, 62
1, 385801, Note_off_c, 0, 36, 61
1, 385806, Note_off_c, 0, 45, 64
1, 385880, Control_c, 0, 67, 120
1, 385910, Control_c, 0, 67, 122
1, 385969, Control_c, 0, 67, 124
1, 386058, Control_c, 0, 67, 126
1, 386243, Note_on_c, 0, 55, 36
1, 386243, Note_on_c, 0, 61, 52
1, 386260, Note_on_c, 0, 46, 31
1, 386263, Note_on_c, 0, 51, 38
1, 386325, Control_c, 0, 64, 35
1, 386340, Control_c, 0, 64, 56
1, 386355, Control_c, 0, 64, 63
1, 386369, Control_c, 0, 64, 65
1, 386384, Control_c, 0, 64, 66
1, 386415, Note_on_c, 0, 66, 58
1, 386443, Control_c, 0, 64, 65
1, 386458, Control_c, 0, 64, 64
1, 386473, Control_c, 0, 64, 62
1, 386495, Control_c, 0, 64, 58
1, 386510, Control_c, 0, 64, 47
1, 386525, Control_c, 0, 64, 0
1, 386553, Note_off_c, 0, 66, 59
1, 386568, Note_on_c, 0, 65, 64
1, 386569, Control_c, 0, 64, 35
1, 386584, Control_c, 0, 64, 41
1, 386599, Control_c, 0, 64, 51
1, 386614, Control_c, 0, 64, 60
1, 386629, Control_c, 0, 64, 64
1, 386643, Control_c, 0, 64, 65
1, 386712, Note_off_c, 0, 65, 63
1, 386715, Note_on_c, 0, 68, 61
1, 386732, Control_c, 0, 64, 63
1, 386747, Control_c, 0, 64, 62
1, 386791, Control_c, 0, 64, 61
1, 386836, Control_c, 0, 64, 61
1, 386866, Control_c, 0, 64, 60
1, 386880, Note_on_c, 0, 67, 59
1, 386881, Control_c, 0, 64, 58
1, 386881, Note_off_c, 0, 68, 60
1, 386895, Control_c, 0, 64, 52
1, 386910, Control_c, 0, 64, 43
1, 386925, Control_c, 0, 64, 0
1, 386943, Note_on_c, 0, 65, 59
1, 386959, Note_off_c, 0, 67, 60
1, 387008, Note_on_c, 0, 63, 71
1, 387024, Note_off_c, 0, 65, 62
1, 387049, Note_off_c, 0, 63, 62
1, 387262, Note_on_c, 0, 64, 54
1, 387289, Control_c, 0, 64, 48
1, 387304, Control_c, 0, 64, 62
1, 387319, Control_c, 0, 64, 69
1, 387333, Control_c, 0, 64, 76
1, 387348, Control_c, 0, 64, 81
1, 387363, Control_c, 0, 64, 83
1, 387368, Note_off_c, 0, 64, 60
1, 387378, Control_c, 0, 64, 85
1, 387393, Control_c, 0, 64, 88
1, 387407, Control_c, 0, 64, 93
1, 387422, Control_c, 0, 64, 100
1, 387437, Control_c, 0, 64, 109
1, 387451, Control_c, 0, 64, 127
1, 387570, Control_c, 0, 64, 105
1, 387585, Control_c, 0, 64, 86
1, 387599, Control_c, 0, 64, 81
1, 387602, Note_on_c, 0, 66, 60
1, 387629, Control_c, 0, 64, 82
1, 387644, Control_c, 0, 64, 85
1, 387659, Control_c, 0, 64, 86
1, 387733, Control_c, 0, 64, 86
1, 387752, Note_on_c, 0, 65, 62
1, 387763, Control_c, 0, 64, 86
1, 387792, Control_c, 0, 64, 83
1, 387796, Note_off_c, 0, 66, 43
1, 387803, Note_off_c, 0, 65, 62
1, 387807, Control_c, 0, 64, 78
1, 387811, Note_on_c, 0, 63, 72
1, 387822, Control_c, 0, 64, 71
1, 387837, Control_c, 0, 64, 63
1, 387852, Control_c, 0, 64, 54
1, 387867, Control_c, 0, 64, 41
1, 387882, Control_c, 0, 64, 0
1, 387891, Note_on_c, 0, 64, 60
1, 387936, Note_off_c, 0, 63, 28
1, 387960, Note_on_c, 0, 66, 64
1, 387960, Note_off_c, 0, 64, 62
1, 388057, Note_on_c, 0, 68, 72
1, 388059, Note_off_c, 0, 66, 57
1, 388082, Control_c, 0, 64, 40
1, 388097, Control_c, 0, 64, 57
1, 388112, Control_c, 0, 64, 64
1, 388127, Control_c, 0, 64, 65
1, 388216, Control_c, 0, 64, 65
1, 388230, Note_on_c, 0, 67, 62
1, 388230, Control_c, 0, 64, 63
1, 388245, Control_c, 0, 64, 60
1, 388260, Control_c, 0, 64, 57
1, 388268, Note_off_c, 0, 68, 35
1, 388274, Control_c, 0, 64, 53
1, 388289, Control_c, 0, 64, 48
1, 388301, Note_on_c, 0, 65, 50
1, 388304, Control_c, 0, 64, 39
1, 388305, Note_off_c, 0, 67, 63
1, 388319, Control_c, 0, 64, 0
1, 388368, Note_off_c, 0, 65, 49
1, 388368, Note_on_c, 0, 63, 68
1, 388405, Note_off_c, 0, 63, 64
1, 388457, Note_on_c, 0, 66, 59
1, 388530, Note_off_c, 0, 66, 62
1, 388544, Note_on_c, 0, 64, 53
1, 388617, Control_c, 0, 64, 50
1, 388632, Control_c, 0, 64, 62
1, 388646, Control_c, 0, 64, 66
1, 388661, Control_c, 0, 64, 69
1, 388676, Control_c, 0, 64, 73
1, 388690, Control_c, 0, 64, 77
1, 388705, Control_c, 0, 64, 81
1, 388719, Note_off_c, 0, 64, 58
1, 388720, Control_c, 0, 64, 85
1, 388743, Control_c, 0, 64, 88
1, 388758, Control_c, 0, 64, 91
1, 388772, Control_c, 0, 64, 92
1, 388787, Control_c, 0, 64, 93
1, 388800, Note_off_c, 0, 61, 58
1, 388802, Control_c, 0, 64, 94
1, 388817, Control_c, 0, 64, 94
1, 388832, Control_c, 0, 64, 95
1, 388846, Control_c, 0, 64, 96
1, 388905, Control_c, 0, 64, 86
1, 388909, Note_on_c, 0, 65, 59
1, 388920, Control_c, 0, 64, 72
1, 388935, Control_c, 0, 64, 55
1, 388950, Control_c, 0, 64, 0
1, 388971, Note_on_c, 0, 63, 63
1, 388983, Note_off_c, 0, 65, 59
1, 389036, Note_on_c, 0, 61, 63
1, 389037, Note_off_c, 0, 63, 62
1, 389074, Note_off_c, 0, 61, 63
1, 389107, Note_on_c, 0, 59, 50
1, 389156, Note_off_c, 0, 59, 62
1, 389182, Note_on_c, 0, 63, 62
1, 389363, Note_on_c, 0, 66, 54
1, 389372, Note_off_c, 0, 63, 57
1, 389398, Note_off_c, 0, 66, 64
1, 389538, Note_on_c, 0, 61, 60
1, 389571, Note_off_c, 0, 61, 64
1, 389710, Note_on_c, 0, 61, 53
1, 389736, Note_off_c, 0, 61, 61
1, 389885, Note_on_c, 0, 63, 56
1, 390076, Note_on_c, 0, 61, 46
1, 390082, Note_off_c, 0, 63, 56
1, 390115, Note_off_c, 0, 61, 64
1, 390146, Note_on_c, 0, 59, 43
1, 390186, Note_off_c, 0, 59, 61
1, 390224, Note_on_c, 0, 63, 58
1, 390419, Note_on_c, 0, 66, 53
1, 390444, Note_off_c, 0, 63, 56
1, 390444, Note_off_c, 0, 66, 61
1, 390616, Note_on_c, 0, 61, 42
1, 390832, Note_on_c, 0, 63, 42
1, 390835, Note_off_c, 0, 61, 59
1, 390877, Note_off_c, 0, 63, 59
1, 390914, Note_on_c, 0, 59, 35
1, 390949, Note_off_c, 0, 59, 55
1, 390998, Note_on_c, 0, 61, 52
1, 391026, Note_off_c, 0, 61, 61
1, 391288, Note_on_c, 0, 61, 42
1, 391317, Note_off_c, 0, 61, 58
1, 391630, Note_on_c, 0, 61, 42
1, 391659, Note_off_c, 0, 61, 58
1, 392111, Note_on_c, 0, 61, 37
1, 392141, Note_off_c, 0, 61, 55
1, 392281, Note_off_c, 0, 46, 45
1, 392340, Note_off_c, 0, 51, 38
1, 392348, Note_off_c, 0, 55, 40
1, 392630, Note_on_c, 0, 56, 86
1, 392633, Note_on_c, 0, 52, 79
1, 392635, Control_c, 0, 64, 63
1, 392636, Note_on_c, 0, 47, 66
1, 392650, Control_c, 0, 64, 127
1, 392650, Control_c, 0, 67, 101
1, 392659, Note_off_c, 0, 52, 67
1, 392660, Note_off_c, 0, 56, 63
1, 392664, Control_c, 0, 67, 72
1, 392666, Note_off_c, 0, 47, 65
1, 392679, Control_c, 0, 67, 58
1, 392694, Control_c, 0, 67, 53
1, 392709, Control_c, 0, 67, 49
1, 392724, Control_c, 0, 67, 48
1, 392768, Control_c, 0, 64, 103
1, 392768, Control_c, 0, 67, 49
1, 392783, Control_c, 0, 64, 79
1, 392788, Note_on_c, 0, 84, 71
1, 392794, Note_on_c, 0, 85, 58
1, 392798, Control_c, 0, 64, 65
1, 392813, Control_c, 0, 64, 48
1, 392813, Control_c, 0, 67, 50
1, 392827, Control_c, 0, 64, 0
1, 392827, Control_c, 0, 67, 52
1, 392828, Note_off_c, 0, 84, 59
1, 392830, Note_off_c, 0, 85, 64
1, 392842, Control_c, 0, 67, 53
1, 392857, Control_c, 0, 67, 54
1, 392872, Control_c, 0, 64, 52
1, 392887, Control_c, 0, 64, 66
1, 392902, Control_c, 0, 64, 72
1, 392902, Control_c, 0, 67, 53
1, 392917, Control_c, 0, 64, 72
1, 392917, Control_c, 0, 67, 54
1, 392932, Control_c, 0, 67, 55
1, 392934, Note_on_c, 0, 85, 72
1, 392971, Note_off_c, 0, 85, 59
1, 392976, Control_c, 0, 67, 54
1, 393020, Control_c, 0, 67, 55
1, 393064, Control_c, 0, 67, 54
1, 393067, Note_on_c, 0, 85, 79
1, 393068, Note_on_c, 0, 84, 76
1, 393102, Note_off_c, 0, 84, 60
1, 393124, Note_off_c, 0, 85, 62
1, 393219, Note_on_c, 0, 85, 58
1, 393235, Control_c, 0, 64, 73
1, 393264, Control_c, 0, 64, 74
1, 393267, Note_off_c, 0, 85, 63
1, 393294, Control_c, 0, 64, 74
1, 393294, Control_c, 0, 67, 53
1, 393309, Control_c, 0, 67, 52
1, 393324, Control_c, 0, 64, 75
1, 393338, Control_c, 0, 64, 76
1, 393353, Control_c, 0, 64, 77
1, 393358, Note_on_c, 0, 85, 80
1, 393368, Control_c, 0, 64, 78
1, 393369, Note_on_c, 0, 84, 75
1, 393382, Control_c, 0, 64, 78
1, 393382, Control_c, 0, 67, 51
1, 393397, Control_c, 0, 64, 79
1, 393397, Control_c, 0, 67, 51
1, 393407, Poly_aftertouch_c, 0, 89, 127
1, 393409, Note_off_c, 0, 85, 64
1, 393410, Note_off_c, 0, 84, 56
1, 393413, Control_c, 0, 64, 80
1, 393428, Control_c, 0, 64, 81
1, 393453, Poly_aftertouch_c, 0, 87, 0
1, 393458, Control_c, 0, 64, 81
1, 393473, Control_c, 0, 67, 50
1, 393481, Poly_aftertouch_c, 0, 89, 0
1, 393487, Control_c, 0, 64, 82
1, 393487, Control_c, 0, 67, 50
1, 393502, Control_c, 0, 64, 82
1, 393517, Control_c, 0, 64, 83
1, 393519, Poly_aftertouch_c, 0, 89, 127
1, 393524, Note_on_c, 0, 85, 64
1, 393547, Control_c, 0, 64, 84
1, 393556, Note_off_c, 0, 85, 63
1, 393561, Control_c, 0, 64, 84
1, 393561, Control_c, 0, 67, 49
1, 393576, Control_c, 0, 67, 48
1, 393591, Control_c, 0, 64, 85
1, 393631, Poly_aftertouch_c, 0, 89, 0
1, 393632, Note_on_c, 0, 56, 78
1, 393633, Note_on_c, 0, 84, 80
1, 393634, Note_on_c, 0, 85, 84
1, 393635, Note_on_c, 0, 47, 68
1, 393641, Note_on_c, 0, 52, 67
1, 393650, Control_c, 0, 67, 47
1, 393657, Note_off_c, 0, 56, 66
1, 393664, Note_off_c, 0, 84, 60
1, 393665, Note_off_c, 0, 47, 65
1, 393666, Note_on_c, 0, 87, 35
1, 393668, Poly_aftertouch_c, 0, 89, 127
1, 393670, Note_off_c, 0, 52, 65
1, 393680, Control_c, 0, 67, 48
1, 393687, Note_off_c, 0, 85, 63
1, 393695, Control_c, 0, 67, 50
1, 393701, Note_off_c, 0, 87, 47
1, 393725, Control_c, 0, 64, 82
1, 393740, Control_c, 0, 64, 77
1, 393754, Control_c, 0, 64, 73
1, 393769, Control_c, 0, 64, 71
1, 393769, Control_c, 0, 67, 52
1, 393784, Note_on_c, 0, 85, 72
1, 393784, Control_c, 0, 64, 71
1, 393784, Control_c, 0, 67, 52
1, 393799, Control_c, 0, 64, 70
1, 393835, Note_off_c, 0, 85, 63
1, 393859, Control_c, 0, 67, 53
1, 393874, Control_c, 0, 67, 53
1, 393903, Control_c, 0, 67, 53
1, 393918, Control_c, 0, 67, 52
1, 393920, Note_on_c, 0, 85, 67
1, 393928, Note_on_c, 0, 84, 69
1, 393960, Note_off_c, 0, 84, 60
1, 393962, Control_c, 0, 64, 70
1, 393970, Note_off_c, 0, 85, 63
1, 394029, Control_c, 0, 67, 53
1, 394044, Control_c, 0, 67, 53
1, 394059, Control_c, 0, 67, 54
1, 394060, Note_on_c, 0, 85, 63
1, 394097, Note_off_c, 0, 85, 62
1, 394103, Control_c, 0, 67, 54
1, 394180, Poly_aftertouch_c, 0, 89, 0
1, 394187, Note_on_c, 0, 56, 87
1, 394187, Note_on_c, 0, 85, 89
1, 394188, Note_on_c, 0, 84, 82
1, 394191, Note_on_c, 0, 47, 69
1, 394201, Note_on_c, 0, 52, 68
1, 394202, Note_on_c, 0, 89, 9
1, 394217, Note_off_c, 0, 47, 66
1, 394221, Note_on_c, 0, 87, 48
1, 394222, Control_c, 0, 64, 69
1, 394222, Control_c, 0, 67, 54
1, 394224, Note_off_c, 0, 56, 61
1, 394225, Note_off_c, 0, 52, 66
1, 394231, Note_off_c, 0, 84, 60
1, 394248, Note_off_c, 0, 87, 55
1, 394250, Note_off_c, 0, 85, 65
1, 394263, Note_off_c, 0, 89, 33
1, 394311, Control_c, 0, 67, 55
1, 394341, Note_on_c, 0, 89, 38
1, 394348, Note_on_c, 0, 85, 68
1, 394380, Note_off_c, 0, 85, 65
1, 394385, Note_off_c, 0, 89, 48
1, 394430, Control_c, 0, 67, 54
1, 394444, Control_c, 0, 67, 54
1, 394456, Note_on_c, 0, 85, 89
1, 394459, Control_c, 0, 67, 53
1, 394460, Note_on_c, 0, 84, 83
1, 394505, Note_off_c, 0, 84, 62
1, 394518, Note_off_c, 0, 85, 66
1, 394518, Control_c, 0, 67, 52
1, 394533, Control_c, 0, 67, 51
1, 394562, Control_c, 0, 67, 52
1, 394577, Control_c, 0, 64, 70
1, 394577, Control_c, 0, 67, 53
1, 394579, Note_on_c, 0, 85, 89
1, 394592, Control_c, 0, 67, 53
1, 394607, Control_c, 0, 64, 70
1, 394607, Control_c, 0, 67, 52
1, 394622, Control_c, 0, 64, 71
1, 394622, Control_c, 0, 67, 52
1, 394635, Note_off_c, 0, 85, 65
1, 394636, Control_c, 0, 64, 71
1, 394651, Control_c, 0, 64, 72
1, 394666, Control_c, 0, 64, 73
1, 394666, Control_c, 0, 67, 51
1, 394681, Control_c, 0, 64, 74
1, 394681, Control_c, 0, 67, 47
1, 394696, Control_c, 0, 64, 78
1, 394696, Control_c, 0, 67, 36
1, 394710, Note_on_c, 0, 56, 87
1, 394710, Control_c, 0, 64, 86
1, 394710, Control_c, 0, 67, 0
1, 394713, Note_on_c, 0, 85, 86
1, 394717, Note_on_c, 0, 84, 85
1, 394717, Note_on_c, 0, 47, 71
1, 394723, Note_on_c, 0, 52, 74
1, 394725, Control_c, 0, 64, 86
1, 394740, Note_off_c, 0, 56, 69
1, 394747, Control_c, 0, 64, 69
1, 394751, Note_off_c, 0, 84, 66
1, 394755, Note_off_c, 0, 47, 65
1, 394756, Note_off_c, 0, 52, 65
1, 394762, Control_c, 0, 64, 34
1, 394763, Note_on_c, 0, 87, 12
1, 394768, Note_off_c, 0, 85, 66
1, 394777, Control_c, 0, 64, 0
1, 394779, Note_off_c, 0, 87, 35
1, 394872, Note_on_c, 0, 82, 89
1, 394932, Note_off_c, 0, 82, 63
1, 394935, Note_on_c, 0, 83, 70
1, 394987, Note_on_c, 0, 85, 90
1, 394998, Note_off_c, 0, 83, 64
1, 395025, Note_off_c, 0, 85, 64
1, 395112, Note_on_c, 0, 53, 82
1, 395114, Note_on_c, 0, 47, 79
1, 395118, Note_on_c, 0, 52, 73
1, 395133, Note_off_c, 0, 53, 71
1, 395135, Note_off_c, 0, 47, 67
1, 395141, Note_off_c, 0, 52, 66
1, 395246, Note_on_c, 0, 85, 84
1, 395266, Note_off_c, 0, 85, 70
1, 395370, Note_on_c, 0, 83, 83
1, 395431, Note_on_c, 0, 82, 91
1, 395441, Note_off_c, 0, 83, 65
1, 395474, Control_c, 0, 64, 34
1, 395494, Note_on_c, 0, 54, 94
1, 395495, Note_on_c, 0, 47, 75
1, 395496, Control_c, 0, 64, 61
1, 395498, Note_on_c, 0, 80, 95
1, 395504, Note_on_c, 0, 52, 72
1, 395504, Note_off_c, 0, 82, 62
1, 395511, Control_c, 0, 64, 0
1, 395525, Note_off_c, 0, 47, 67
1, 395531, Note_off_c, 0, 52, 67
1, 395536, Note_off_c, 0, 54, 65
1, 395545, Note_off_c, 0, 80, 68
1, 395561, Note_on_c, 0, 82, 86
1, 395623, Note_on_c, 0, 76, 88
1, 395628, Note_off_c, 0, 82, 63
1, 395653, Note_off_c, 0, 76, 67
1, 395749, Note_on_c, 0, 47, 79
1, 395749, Note_on_c, 0, 55, 88
1, 395755, Note_on_c, 0, 76, 91
1, 395756, Note_on_c, 0, 52, 75
1, 395779, Note_off_c, 0, 55, 67
1, 395781, Note_off_c, 0, 47, 67
1, 395785, Note_off_c, 0, 76, 66
1, 395786, Note_off_c, 0, 52, 65
1, 395903, Note_on_c, 0, 47, 90
1, 395905, Note_on_c, 0, 56, 100
1, 395909, Note_on_c, 0, 52, 81
1, 395912, Control_c, 0, 67, 35
1, 395927, Control_c, 0, 67, 126
1, 395956, Control_c, 0, 64, 71
1, 395971, Control_c, 0, 64, 77
1, 395986, Control_c, 0, 64, 65
1, 396000, Control_c, 0, 64, 36
1, 396002, Poly_aftertouch_c, 0, 55, 0
1, 396015, Control_c, 0, 64, 0
1, 396038, Note_on_c, 0, 82, 87
1, 396045, Control_c, 0, 64, 38
1, 396061, Control_c, 0, 64, 41
1, 396075, Control_c, 0, 64, 40
1, 396090, Control_c, 0, 64, 43
1, 396103, Note_off_c, 0, 82, 60
1, 396105, Control_c, 0, 64, 50
1, 396112, Note_on_c, 0, 84, 63
1, 396113, Note_off_c, 0, 56, 58
1, 396120, Control_c, 0, 64, 51
1, 396130, Note_off_c, 0, 47, 54
1, 396130, Note_off_c, 0, 84, 64
1, 396133, Poly_aftertouch_c, 0, 83, 127
1, 396134, Control_c, 0, 64, 48
1, 396136, Note_off_c, 0, 52, 58
1, 396149, Control_c, 0, 64, 42
1, 396164, Control_c, 0, 64, 36
1, 396166, Note_on_c, 0, 85, 99
1, 396179, Control_c, 0, 64, 34
1, 396193, Poly_aftertouch_c, 0, 83, 0
1, 396194, Control_c, 0, 64, 0
1, 396223, Control_c, 0, 67, 116
1, 396246, Control_c, 0, 67, 63
1, 396261, Control_c, 0, 67, 0
1, 396305, Note_on_c, 0, 47, 88
1, 396306, Note_on_c, 0, 53, 89
1, 396307, Note_on_c, 0, 52, 84
1, 396336, Note_off_c, 0, 85, 62
1, 396364, Control_c, 0, 64, 45
1, 396379, Control_c, 0, 64, 55
1, 396394, Control_c, 0, 64, 50
1, 396408, Control_c, 0, 64, 49
1, 396423, Control_c, 0, 64, 52
1, 396438, Control_c, 0, 64, 54
1, 396442, Note_on_c, 0, 83, 91
1, 396453, Control_c, 0, 64, 52
1, 396464, Note_off_c, 0, 53, 58
1, 396468, Control_c, 0, 64, 51
1, 396485, Note_off_c, 0, 47, 59
1, 396487, Note_off_c, 0, 52, 60
1, 396497, Control_c, 0, 64, 52
1, 396507, Note_on_c, 0, 82, 88
1, 396512, Control_c, 0, 64, 53
1, 396518, Note_off_c, 0, 83, 65
1, 396527, Control_c, 0, 64, 52
1, 396542, Control_c, 0, 64, 46
1, 396557, Control_c, 0, 64, 0
1, 396567, Note_on_c, 0, 80, 95
1, 396573, Note_off_c, 0, 82, 63
1, 396619, Note_off_c, 0, 80, 67
1, 396628, Note_on_c, 0, 82, 89
1, 396687, Note_on_c, 0, 76, 93
1, 396691, Control_c, 0, 64, 56
1, 396691, Control_c, 0, 67, 26
1, 396692, Note_on_c, 0, 54, 92
1, 396694, Note_on_c, 0, 47, 78
1, 396694, Note_off_c, 0, 82, 65
1, 396697, Note_on_c, 0, 52, 80
1, 396706, Control_c, 0, 64, 70
1, 396706, Control_c, 0, 67, 0
1, 396720, Control_c, 0, 64, 69
1, 396725, Note_off_c, 0, 76, 67
1, 396735, Control_c, 0, 64, 64
1, 396750, Control_c, 0, 64, 60
1, 396765, Control_c, 0, 64, 59
1, 396780, Control_c, 0, 64, 61
1, 396785, Note_off_c, 0, 54, 61
1, 396803, Note_off_c, 0, 47, 53
1, 396831, Note_on_c, 0, 82, 98
1, 396839, Control_c, 0, 64, 61
1, 396843, Note_off_c, 0, 52, 58
1, 396854, Control_c, 0, 64, 62
1, 396869, Control_c, 0, 64, 61
1, 396884, Control_c, 0, 64, 57
1, 396895, Note_on_c, 0, 83, 90
1, 396898, Note_off_c, 0, 82, 64
1, 396898, Control_c, 0, 64, 37
1, 396913, Control_c, 0, 64, 0
1, 396953, Note_on_c, 0, 85, 97
1, 396962, Note_off_c, 0, 83, 64
1, 397001, Note_off_c, 0, 85, 68
1, 397083, Note_on_c, 0, 47, 73
1, 397088, Note_on_c, 0, 55, 83
1, 397090, Note_on_c, 0, 52, 76
1, 397096, Note_on_c, 0, 83, 93
1, 397099, Control_c, 0, 64, 50
1, 397113, Control_c, 0, 64, 76
1, 397124, Note_off_c, 0, 52, 63
1, 397126, Note_off_c, 0, 47, 63
1, 397126, Note_off_c, 0, 55, 62
1, 397128, Control_c, 0, 64, 74
1, 397143, Control_c, 0, 64, 66
1, 397157, Control_c, 0, 64, 50
1, 397161, Note_on_c, 0, 82, 98
1, 397172, Control_c, 0, 64, 0
1, 397176, Note_off_c, 0, 83, 65
1, 397223, Note_on_c, 0, 80, 93
1, 397224, Note_off_c, 0, 82, 65
1, 397266, Note_off_c, 0, 80, 68
1, 397280, Note_on_c, 0, 82, 93
1, 397346, Note_on_c, 0, 76, 97
1, 397347, Note_on_c, 0, 47, 70
1, 397349, Note_on_c, 0, 56, 94
1, 397350, Control_c, 0, 64, 61
1, 397352, Note_on_c, 0, 52, 64
1, 397352, Note_off_c, 0, 82, 64
1, 397364, Control_c, 0, 64, 79
1, 397364, Control_c, 0, 67, 23
1, 397378, Note_off_c, 0, 76, 67
1, 397379, Control_c, 0, 64, 81
1, 397379, Control_c, 0, 67, 0
1, 397394, Control_c, 0, 64, 78
1, 397410, Control_c, 0, 64, 69
1, 397425, Control_c, 0, 64, 67
1, 397456, Note_off_c, 0, 47, 57
1, 397469, Control_c, 0, 64, 66
1, 397483, Note_off_c, 0, 56, 41
1, 397484, Control_c, 0, 64, 62
1, 397487, Note_on_c, 0, 75, 94
1, 397499, Control_c, 0, 64, 48
1, 397507, Note_off_c, 0, 52, 61
1, 397514, Control_c, 0, 64, 0
1, 397552, Note_on_c, 0, 76, 89
1, 397554, Note_off_c, 0, 75, 63
1, 397612, Note_on_c, 0, 78, 92
1, 397634, Note_off_c, 0, 76, 65
1, 397744, Note_on_c, 0, 55, 88
1, 397746, Note_on_c, 0, 48, 82
1, 397749, Note_on_c, 0, 50, 81
1, 397759, Note_off_c, 0, 78, 67
1, 397816, Control_c, 0, 64, 70
1, 397831, Control_c, 0, 64, 86
1, 397846, Control_c, 0, 64, 85
1, 397860, Control_c, 0, 64, 80
1, 397875, Control_c, 0, 64, 74
1, 397901, Note_on_c, 0, 77, 77
1, 397902, Note_on_c, 0, 76, 84
1, 397906, Note_off_c, 0, 55, 57
1, 397919, Note_off_c, 0, 50, 62
1, 397919, Note_off_c, 0, 48, 59
1, 397919, Control_c, 0, 64, 73
1, 397967, Note_off_c, 0, 76, 61
1, 397973, Note_off_c, 0, 77, 61
1, 398012, Note_on_c, 0, 55, 96
1, 398018, Note_on_c, 0, 48, 87
1, 398020, Note_on_c, 0, 51, 86
1, 398038, Control_c, 0, 64, 67
1, 398053, Control_c, 0, 64, 52
1, 398068, Control_c, 0, 64, 0
1, 398157, Control_c, 0, 64, 49
1, 398158, Note_on_c, 0, 76, 97
1, 398172, Control_c, 0, 64, 63
1, 398178, Note_off_c, 0, 51, 62
1, 398186, Control_c, 0, 64, 64
1, 398202, Control_c, 0, 64, 62
1, 398215, Note_off_c, 0, 55, 61
1, 398217, Control_c, 0, 64, 61
1, 398219, Note_on_c, 0, 75, 85
1, 398229, Note_off_c, 0, 48, 54
1, 398232, Control_c, 0, 64, 62
1, 398241, Note_off_c, 0, 76, 63
1, 398247, Control_c, 0, 64, 64
1, 398262, Control_c, 0, 64, 65
1, 398288, Note_on_c, 0, 73, 91
1, 398291, Control_c, 0, 64, 61
1, 398291, Note_off_c, 0, 75, 65
1, 398306, Control_c, 0, 64, 0
1, 398342, Note_off_c, 0, 73, 66
1, 398350, Note_on_c, 0, 75, 88
1, 398396, Control_c, 0, 64, 36
1, 398396, Note_on_c, 0, 48, 73
1, 398398, Note_on_c, 0, 55, 84
1, 398398, Note_on_c, 0, 52, 75
1, 398408, Note_on_c, 0, 69, 87
1, 398410, Control_c, 0, 64, 62
1, 398417, Note_off_c, 0, 75, 65
1, 398425, Control_c, 0, 64, 74
1, 398440, Control_c, 0, 64, 77
1, 398441, Note_off_c, 0, 69, 66
1, 398470, Control_c, 0, 64, 75
1, 398482, Note_off_c, 0, 52, 61
1, 398493, Note_off_c, 0, 48, 54
1, 398498, Note_off_c, 0, 55, 55
1, 398536, Control_c, 0, 64, 74
1, 398542, Note_on_c, 0, 68, 87
1, 398551, Control_c, 0, 64, 64
1, 398563, Note_on_c, 0, 69, 66
1, 398566, Control_c, 0, 64, 0
1, 398590, Note_off_c, 0, 68, 62
1, 398590, Note_off_c, 0, 69, 68
1, 398591, Note_on_c, 0, 70, 91
1, 398640, Control_c, 0, 64, 51
1, 398655, Control_c, 0, 64, 61
1, 398656, Note_on_c, 0, 71, 89
1, 398665, Note_on_c, 0, 53, 77
1, 398666, Note_on_c, 0, 48, 74
1, 398667, Note_on_c, 0, 55, 80
1, 398670, Control_c, 0, 64, 66
1, 398678, Note_off_c, 0, 70, 64
1, 398684, Control_c, 0, 64, 68
1, 398688, Note_off_c, 0, 71, 68
1, 398707, Note_off_c, 0, 55, 59
1, 398709, Note_off_c, 0, 53, 59
1, 398710, Note_off_c, 0, 48, 62
1, 398773, Control_c, 0, 64, 67
1, 398788, Control_c, 0, 64, 60
1, 398800, Note_on_c, 0, 69, 94
1, 398802, Control_c, 0, 64, 0
1, 398865, Note_on_c, 0, 68, 95
1, 398881, Note_off_c, 0, 69, 65
1, 398891, Control_c, 0, 64, 63
1, 398906, Control_c, 0, 64, 67
1, 398909, Note_on_c, 0, 48, 65
1, 398914, Note_on_c, 0, 55, 69
1, 398917, Note_on_c, 0, 54, 68
1, 398929, Note_on_c, 0, 66, 88
1, 398932, Note_off_c, 0, 68, 67
1, 398968, Note_off_c, 0, 66, 66
1, 398979, Note_on_c, 0, 68, 88
1, 399025, Control_c, 0, 64, 63
1, 399040, Note_off_c, 0, 68, 60
1, 399040, Control_c, 0, 64, 47
1, 399045, Note_on_c, 0, 62, 92
1, 399055, Control_c, 0, 64, 0
1, 399091, Note_off_c, 0, 62, 65
1, 399096, Note_off_c, 0, 55, 61
1, 399114, Note_off_c, 0, 54, 49
1, 399114, Control_c, 0, 64, 43
1, 399120, Note_off_c, 0, 48, 56
1, 399129, Control_c, 0, 64, 50
1, 399129, Control_c, 0, 67, 22
1, 399144, Control_c, 0, 64, 49
1, 399144, Control_c, 0, 67, 25
1, 399159, Control_c, 0, 64, 48
1, 399159, Control_c, 0, 67, 23
1, 399174, Control_c, 0, 64, 49
1, 399174, Control_c, 0, 67, 0
1, 399189, Control_c, 0, 64, 50
1, 399194, Note_on_c, 0, 62, 91
1, 399204, Control_c, 0, 64, 51
1, 399218, Control_c, 0, 64, 51
1, 399218, Control_c, 0, 67, 19
1, 399240, Control_c, 0, 64, 50
1, 399240, Control_c, 0, 67, 22
1, 399251, Note_off_c, 0, 62, 63
1, 399270, Control_c, 0, 64, 51
1, 399285, Control_c, 0, 64, 51
1, 399285, Control_c, 0, 67, 0
1, 399314, Control_c, 0, 64, 50
1, 399332, Note_on_c, 0, 62, 88
1, 399344, Control_c, 0, 64, 50
1, 399344, Control_c, 0, 67, 21
1, 399359, Control_c, 0, 64, 50
1, 399373, Control_c, 0, 64, 51
1, 399373, Control_c, 0, 67, 19
1, 399388, Control_c, 0, 67, 0
1, 399395, Note_off_c, 0, 62, 64
1, 399433, Control_c, 0, 67, 21
1, 399465, Note_on_c, 0, 62, 96
1, 399478, Control_c, 0, 64, 50
1, 399478, Control_c, 0, 67, 0
1, 399493, Control_c, 0, 64, 49
1, 399522, Control_c, 0, 64, 50
1, 399522, Control_c, 0, 67, 20
1, 399523, Note_off_c, 0, 62, 63
1, 399537, Control_c, 0, 64, 49
1, 399551, Control_c, 0, 64, 49
1, 399566, Control_c, 0, 64, 48
1, 399595, Note_on_c, 0, 62, 88
1, 399596, Control_c, 0, 64, 49
1, 399611, Control_c, 0, 64, 48
1, 399611, Control_c, 0, 67, 22
1, 399625, Control_c, 0, 64, 47
1, 399640, Control_c, 0, 64, 46
1, 399652, Note_off_c, 0, 62, 64
1, 399655, Control_c, 0, 64, 45
1, 399655, Control_c, 0, 67, 20
1, 399669, Control_c, 0, 67, 0
1, 399684, Control_c, 0, 64, 44
1, 399699, Control_c, 0, 64, 43
1, 399714, Control_c, 0, 64, 44
1, 399725, Note_on_c, 0, 62, 93
1, 399729, Control_c, 0, 64, 46
1, 399743, Control_c, 0, 64, 51
1, 399758, Control_c, 0, 64, 55
1, 399775, Note_off_c, 0, 62, 64
1, 399788, Control_c, 0, 64, 55
1, 399804, Control_c, 0, 64, 55
1, 399819, Control_c, 0, 64, 56
1, 399834, Control_c, 0, 64, 57
1, 399847, Note_on_c, 0, 62, 96
1, 399892, Control_c, 0, 64, 58
1, 399907, Control_c, 0, 64, 60
1, 399919, Note_off_c, 0, 62, 60
1, 399922, Control_c, 0, 64, 63
1, 399937, Control_c, 0, 64, 65
1, 399952, Control_c, 0, 64, 67
1, 399974, Control_c, 0, 64, 68
1, 399989, Control_c, 0, 64, 69
1, 399993, Note_on_c, 0, 48, 77
1, 399997, Note_on_c, 0, 62, 86
1, 400004, Control_c, 0, 64, 67
1, 400019, Control_c, 0, 64, 53
1, 400034, Control_c, 0, 64, 0
1, 400052, Note_off_c, 0, 62, 64
1, 400059, Note_on_c, 0, 50, 77
1, 400100, Note_off_c, 0, 48, 64
1, 400119, Note_on_c, 0, 55, 77
1, 400128, Note_on_c, 0, 62, 89
1, 400131, Note_on_c, 0, 51, 76
1, 400134, Note_on_c, 0, 58, 97
1, 400157, Note_off_c, 0, 50, 63
1, 400190, Note_off_c, 0, 62, 60
1, 400211, Control_c, 0, 64, 45
1, 400226, Control_c, 0, 64, 46
1, 400241, Control_c, 0, 64, 45
1, 400256, Control_c, 0, 64, 47
1, 400271, Control_c, 0, 64, 52
1, 400280, Note_on_c, 0, 62, 64
1, 400286, Control_c, 0, 64, 59
1, 400300, Control_c, 0, 64, 63
1, 400330, Note_off_c, 0, 62, 61
1, 400360, Control_c, 0, 64, 64
1, 400374, Control_c, 0, 64, 66
1, 400389, Control_c, 0, 64, 67
1, 400404, Control_c, 0, 64, 68
1, 400418, Note_on_c, 0, 62, 62
1, 400434, Control_c, 0, 64, 69
1, 400448, Control_c, 0, 64, 71
1, 400463, Control_c, 0, 64, 73
1, 400464, Note_off_c, 0, 62, 61
1, 400478, Control_c, 0, 64, 75
1, 400493, Control_c, 0, 64, 76
1, 400507, Control_c, 0, 64, 78
1, 400515, Note_off_c, 0, 55, 59
1, 400522, Control_c, 0, 64, 81
1, 400530, Note_off_c, 0, 51, 62
1, 400537, Control_c, 0, 64, 85
1, 400552, Control_c, 0, 64, 91
1, 400555, Note_on_c, 0, 62, 69
1, 400566, Control_c, 0, 64, 95
1, 400571, Note_off_c, 0, 58, 60
1, 400581, Control_c, 0, 64, 100
1, 400591, Note_off_c, 0, 62, 59
1, 400597, Control_c, 0, 64, 107
1, 400612, Control_c, 0, 64, 117
1, 400627, Control_c, 0, 64, 127
1, 400677, Note_on_c, 0, 62, 71
1, 400769, Note_off_c, 0, 62, 59
1, 400797, Control_c, 0, 64, 78
1, 400809, Note_on_c, 0, 60, 79
1, 400811, Note_on_c, 0, 56, 81
1, 400811, Note_on_c, 0, 65, 89
1, 400812, Control_c, 0, 64, 50
1, 400813, Note_on_c, 0, 63, 85
1, 400827, Control_c, 0, 64, 0
1, 400857, Control_c, 0, 64, 59
1, 400871, Control_c, 0, 64, 81
1, 400871, Control_c, 0, 67, 23
1, 400886, Control_c, 0, 64, 127
1, 400886, Control_c, 0, 67, 30
1, 400901, Control_c, 0, 67, 33
1, 400916, Control_c, 0, 67, 32
1, 400927, Note_off_c, 0, 56, 56
1, 400935, Note_off_c, 0, 60, 62
1, 400954, Note_on_c, 0, 62, 73
1, 400960, Control_c, 0, 67, 34
1, 400965, Note_off_c, 0, 65, 37
1, 400969, Note_off_c, 0, 63, 60
1, 400975, Control_c, 0, 67, 37
1, 400990, Control_c, 0, 67, 44
1, 401004, Note_off_c, 0, 62, 59
1, 401004, Control_c, 0, 67, 47
1, 401019, Control_c, 0, 67, 46
1, 401064, Control_c, 0, 67, 47
1, 401082, Note_on_c, 0, 62, 70
1, 401093, Control_c, 0, 67, 44
1, 401108, Control_c, 0, 67, 41
1, 401123, Control_c, 0, 67, 39
1, 401134, Note_off_c, 0, 62, 58
1, 401138, Control_c, 0, 67, 39
1, 401153, Control_c, 0, 67, 40
1, 401168, Control_c, 0, 67, 41
1, 401183, Control_c, 0, 67, 40
1, 401197, Control_c, 0, 64, 70
1, 401197, Control_c, 0, 67, 39
1, 401198, Note_on_c, 0, 68, 87
1, 401201, Note_on_c, 0, 61, 78
1, 401204, Note_on_c, 0, 65, 84
1, 401212, Control_c, 0, 64, 0
1, 401212, Control_c, 0, 67, 40
1, 401227, Control_c, 0, 67, 43
1, 401242, Control_c, 0, 67, 45
1, 401256, Control_c, 0, 67, 45
1, 401271, Control_c, 0, 64, 60
1, 401286, Control_c, 0, 64, 74
1, 401286, Control_c, 0, 67, 45
1, 401301, Control_c, 0, 64, 78
1, 401301, Control_c, 0, 67, 45
1, 401316, Control_c, 0, 64, 79
1, 401316, Control_c, 0, 67, 47
1, 401330, Control_c, 0, 67, 49
1, 401337, Note_on_c, 0, 62, 67
1, 401345, Control_c, 0, 67, 50
1, 401350, Note_off_c, 0, 65, 61
1, 401384, Note_off_c, 0, 62, 58
1, 401391, Control_c, 0, 67, 49
1, 401476, Note_on_c, 0, 62, 54
1, 401487, Control_c, 0, 67, 48
1, 401502, Control_c, 0, 67, 48
1, 401515, Note_off_c, 0, 62, 61
1, 401517, Control_c, 0, 67, 47
1, 401561, Control_c, 0, 67, 48
1, 401576, Control_c, 0, 67, 47
1, 401591, Control_c, 0, 67, 47
1, 401595, Note_on_c, 0, 65, 64
1, 401606, Control_c, 0, 67, 46
1, 401620, Control_c, 0, 64, 79
1, 401620, Control_c, 0, 67, 47
1, 401635, Control_c, 0, 64, 80
1, 401647, Note_off_c, 0, 61, 59
1, 401650, Control_c, 0, 64, 82
1, 401650, Control_c, 0, 67, 46
1, 401665, Control_c, 0, 64, 83
1, 401665, Control_c, 0, 67, 45
1, 401669, Note_off_c, 0, 65, 61
1, 401679, Control_c, 0, 64, 85
1, 401694, Control_c, 0, 64, 89
1, 401697, Note_off_c, 0, 68, 58
1, 401709, Control_c, 0, 64, 97
1, 401724, Control_c, 0, 64, 113
1, 401725, Note_on_c, 0, 62, 65
1, 401739, Control_c, 0, 64, 127
1, 401753, Control_c, 0, 67, 45
1, 401760, Note_off_c, 0, 62, 59
1, 401768, Control_c, 0, 67, 44
1, 401783, Control_c, 0, 67, 44
1, 401798, Control_c, 0, 67, 43
1, 401827, Control_c, 0, 67, 43
1, 401842, Control_c, 0, 67, 41
1, 401843, Note_on_c, 0, 62, 73
1, 401857, Control_c, 0, 67, 40
1, 401871, Control_c, 0, 67, 38
1, 401900, Note_off_c, 0, 62, 59
1, 401946, Control_c, 0, 67, 39
1, 401961, Control_c, 0, 64, 88
1, 401961, Control_c, 0, 67, 40
1, 401964, Note_on_c, 0, 66, 83
1, 401968, Note_on_c, 0, 73, 85
1, 401969, Note_on_c, 0, 65, 83
1, 401970, Note_on_c, 0, 70, 76
1, 401976, Control_c, 0, 64, 61
1, 401976, Control_c, 0, 67, 41
1, 401991, Control_c, 0, 64, 0
1, 401991, Control_c, 0, 67, 42
1, 402006, Control_c, 0, 64, 38
1, 402020, Control_c, 0, 64, 61
1, 402035, Control_c, 0, 64, 82
1, 402035, Control_c, 0, 67, 42
1, 402050, Control_c, 0, 64, 127
1, 402050, Control_c, 0, 67, 43
1, 402065, Control_c, 0, 67, 45
1, 402070, Note_off_c, 0, 66, 61
1, 402098, Note_off_c, 0, 70, 61
1, 402104, Note_on_c, 0, 62, 73
1, 402105, Note_off_c, 0, 65, 36
1, 402109, Control_c, 0, 67, 45
1, 402124, Control_c, 0, 67, 44
1, 402126, Note_off_c, 0, 73, 62
1, 402139, Control_c, 0, 67, 43
1, 402152, Note_off_c, 0, 62, 55
1, 402247, Note_on_c, 0, 62, 60
1, 402298, Note_off_c, 0, 62, 56
1, 402310, Control_c, 0, 67, 42
1, 402354, Control_c, 0, 64, 96
1, 402354, Control_c, 0, 67, 44
1, 402364, Note_on_c, 0, 71, 74
1, 402367, Note_on_c, 0, 78, 77
1, 402368, Note_on_c, 0, 65, 77
1, 402369, Control_c, 0, 64, 62
1, 402369, Control_c, 0, 67, 44
1, 402371, Note_on_c, 0, 75, 69
1, 402384, Control_c, 0, 64, 0
1, 402414, Control_c, 0, 67, 43
1, 402429, Control_c, 0, 64, 58
1, 402443, Control_c, 0, 64, 72
1, 402458, Control_c, 0, 64, 85
1, 402458, Control_c, 0, 67, 45
1, 402473, Control_c, 0, 64, 89
1, 402473, Control_c, 0, 67, 45
1, 402491, Note_on_c, 0, 62, 67
1, 402496, Note_off_c, 0, 65, 58
1, 402517, Control_c, 0, 67, 45
1, 402532, Control_c, 0, 64, 89
1, 402545, Note_off_c, 0, 62, 55
1, 402606, Control_c, 0, 67, 44
1, 402629, Note_on_c, 0, 65, 75
1, 402650, Control_c, 0, 64, 90
1, 402672, Note_off_c, 0, 71, 53
1, 402680, Control_c, 0, 64, 90
1, 402683, Note_off_c, 0, 75, 64
1, 402694, Control_c, 0, 64, 91
1, 402699, Note_off_c, 0, 65, 55
1, 402709, Control_c, 0, 64, 92
1, 402709, Control_c, 0, 67, 43
1, 402724, Control_c, 0, 64, 93
1, 402736, Note_off_c, 0, 78, 62
1, 402739, Control_c, 0, 64, 95
1, 402754, Control_c, 0, 64, 98
1, 402756, Note_on_c, 0, 62, 64
1, 402769, Control_c, 0, 64, 102
1, 402769, Control_c, 0, 67, 44
1, 402784, Control_c, 0, 64, 112
1, 402789, Note_off_c, 0, 62, 64
1, 402799, Control_c, 0, 64, 127
1, 402799, Control_c, 0, 67, 43
1, 402813, Control_c, 0, 67, 42
1, 402896, Note_on_c, 0, 62, 54
1, 402928, Note_off_c, 0, 62, 57
1, 402962, Control_c, 0, 67, 43
1, 402999, Control_c, 0, 67, 42
1, 403014, Control_c, 0, 64, 79
1, 403025, Note_on_c, 0, 65, 74
1, 403029, Note_on_c, 0, 80, 70
1, 403029, Control_c, 0, 64, 63
1, 403032, Note_on_c, 0, 83, 72
1, 403033, Note_on_c, 0, 76, 51
1, 403044, Control_c, 0, 64, 56
1, 403059, Control_c, 0, 64, 59
1, 403059, Control_c, 0, 67, 44
1, 403073, Control_c, 0, 64, 65
1, 403079, Note_on_c, 0, 64, 73
1, 403079, Note_off_c, 0, 76, 63
1, 403083, Note_off_c, 0, 83, 65
1, 403088, Control_c, 0, 64, 76
1, 403094, Note_off_c, 0, 65, 61
1, 403097, Note_off_c, 0, 80, 63
1, 403103, Control_c, 0, 64, 86
1, 403118, Control_c, 0, 64, 96
1, 403132, Control_c, 0, 64, 108
1, 403141, Note_off_c, 0, 64, 61
1, 403147, Note_on_c, 0, 62, 77
1, 403147, Control_c, 0, 64, 127
1, 403147, Control_c, 0, 67, 44
1, 403162, Control_c, 0, 67, 45
1, 403192, Control_c, 0, 67, 43
1, 403198, Note_off_c, 0, 62, 62
1, 403237, Control_c, 0, 67, 44
1, 403251, Control_c, 0, 67, 44
1, 403266, Control_c, 0, 67, 45
1, 403278, Note_on_c, 0, 65, 89
1, 403281, Control_c, 0, 64, 80
1, 403281, Control_c, 0, 67, 44
1, 403281, Note_on_c, 0, 78, 79
1, 403284, Note_on_c, 0, 85, 88
1, 403285, Note_on_c, 0, 82, 84
1, 403296, Control_c, 0, 64, 61
1, 403296, Control_c, 0, 67, 43
1, 403311, Control_c, 0, 64, 53
1, 403313, Note_off_c, 0, 78, 58
1, 403325, Control_c, 0, 64, 61
1, 403325, Control_c, 0, 67, 42
1, 403330, Note_on_c, 0, 64, 78
1, 403332, Note_off_c, 0, 82, 62
1, 403332, Note_off_c, 0, 85, 62
1, 403339, Note_off_c, 0, 65, 63
1, 403340, Control_c, 0, 64, 74
1, 403340, Control_c, 0, 67, 43
1, 403355, Control_c, 0, 64, 112
1, 403355, Control_c, 0, 67, 43
1, 403370, Control_c, 0, 64, 127
1, 403385, Control_c, 0, 67, 42
1, 403392, Note_on_c, 0, 62, 78
1, 403394, Note_off_c, 0, 64, 65
1, 403399, Control_c, 0, 67, 40
1, 403414, Control_c, 0, 67, 39
1, 403451, Note_off_c, 0, 62, 62
1, 403473, Control_c, 0, 67, 36
1, 403488, Control_c, 0, 67, 31
1, 403503, Control_c, 0, 64, 80
1, 403503, Control_c, 0, 67, 0
1, 403517, Control_c, 0, 64, 65
1, 403518, Note_on_c, 0, 65, 89
1, 403526, Note_on_c, 0, 87, 95
1, 403529, Note_on_c, 0, 80, 82
1, 403532, Control_c, 0, 64, 64
1, 403548, Control_c, 0, 64, 79
1, 403551, Note_on_c, 0, 83, 70
1, 403551, Note_on_c, 0, 84, 67
1, 403563, Control_c, 0, 64, 127
1, 403576, Note_off_c, 0, 83, 66
1, 403580, Note_on_c, 0, 64, 87
1, 403583, Note_off_c, 0, 65, 65
1, 403584, Note_off_c, 0, 80, 62
1, 403587, Note_off_c, 0, 84, 61
1, 403594, Note_off_c, 0, 87, 61
1, 403642, Note_on_c, 0, 62, 78
1, 403645, Note_off_c, 0, 64, 66
1, 403695, Note_off_c, 0, 62, 62
1, 403733, Control_c, 0, 64, 70
1, 403748, Control_c, 0, 64, 0
1, 403774, Note_on_c, 0, 65, 93
1, 403777, Note_on_c, 0, 81, 84
1, 403781, Note_on_c, 0, 88, 99
1, 403785, Note_on_c, 0, 84, 84
1, 403794, Control_c, 0, 64, 57
1, 403794, Control_c, 0, 67, 19
1, 403809, Control_c, 0, 64, 88
1, 403809, Control_c, 0, 67, 0
1, 403822, Note_off_c, 0, 65, 66
1, 403823, Control_c, 0, 64, 127
1, 403824, Note_off_c, 0, 81, 65
1, 403829, Note_off_c, 0, 88, 63
1, 403841, Note_on_c, 0, 64, 86
1, 403848, Note_off_c, 0, 84, 60
1, 403896, Note_off_c, 0, 64, 64
1, 403913, Note_on_c, 0, 62, 80
1, 403967, Note_off_c, 0, 62, 63
1, 403971, Note_on_c, 0, 66, 85
1, 403992, Note_off_c, 0, 66, 70
1, 404030, Note_on_c, 0, 68, 95
1, 404030, Control_c, 0, 64, 76
1, 404045, Control_c, 0, 64, 0
1, 404046, Note_off_c, 0, 68, 72
1, 404075, Note_on_c, 0, 67, 34
1, 404075, Note_off_c, 0, 67, 127
1, 404179, Control_c, 0, 64, 77
1, 404179, Control_c, 0, 67, 22
1, 404185, Note_on_c, 0, 55, 101
1, 404186, Note_on_c, 0, 67, 99
1, 404194, Control_c, 0, 64, 127
1, 404194, Control_c, 0, 67, 0
1, 404218, Note_off_c, 0, 55, 66
1, 404221, Note_off_c, 0, 67, 66
1, 404326, Note_on_c, 0, 89, 96
1, 404336, Note_on_c, 0, 83, 76
1, 404337, Note_on_c, 0, 73, 91
1, 404337, Note_on_c, 0, 86, 79
1, 404353, Note_on_c, 0, 77, 57
1, 404379, Note_off_c, 0, 77, 55
1, 404381, Note_off_c, 0, 89, 61
1, 404390, Note_off_c, 0, 86, 62
1, 404406, Note_off_c, 0, 83, 60
1, 404455, Note_off_c, 0, 73, 52
1, 404468, Note_on_c, 0, 71, 89
1, 404566, Note_off_c, 0, 71, 61
1, 404586, Note_on_c, 0, 89, 88
1, 404587, Note_on_c, 0, 74, 86
1, 404591, Note_on_c, 0, 86, 74
1, 404597, Note_on_c, 0, 83, 65
1, 404600, Note_on_c, 0, 77, 53
1, 404621, Note_off_c, 0, 77, 62
1, 404623, Note_off_c, 0, 74, 67
1, 404629, Note_off_c, 0, 89, 60
1, 404633, Note_off_c, 0, 86, 62
1, 404645, Note_off_c, 0, 83, 62
1, 404720, Note_on_c, 0, 67, 91
1, 404771, Note_on_c, 0, 69, 79
1, 404834, Note_on_c, 0, 71, 94
1, 404835, Note_on_c, 0, 89, 85
1, 404837, Note_off_c, 0, 69, 64
1, 404843, Note_on_c, 0, 77, 51
1, 404844, Note_on_c, 0, 83, 71
1, 404850, Note_on_c, 0, 86, 66
1, 404864, Note_off_c, 0, 77, 61
1, 404873, Note_off_c, 0, 71, 64
1, 404877, Note_off_c, 0, 89, 60
1, 404878, Note_off_c, 0, 86, 65
1, 404894, Note_off_c, 0, 83, 62
1, 404960, Note_on_c, 0, 73, 105
1, 405078, Note_on_c, 0, 89, 81
1, 405085, Note_on_c, 0, 83, 66
1, 405094, Note_on_c, 0, 86, 59
1, 405116, Note_off_c, 0, 73, 51
1, 405118, Note_off_c, 0, 89, 56
1, 405133, Note_off_c, 0, 86, 56
1, 405142, Note_off_c, 0, 83, 61
1, 405220, Note_on_c, 0, 71, 94
1, 405301, Note_off_c, 0, 67, 60
1, 405338, Note_on_c, 0, 89, 75
1, 405341, Note_on_c, 0, 74, 85
1, 405343, Note_off_c, 0, 71, 64
1, 405348, Note_on_c, 0, 83, 61
1, 405356, Note_on_c, 0, 86, 55
1, 405363, Note_off_c, 0, 89, 64
1, 405371, Note_off_c, 0, 74, 62
1, 405383, Note_off_c, 0, 83, 55
1, 405383, Note_off_c, 0, 86, 65
1, 405427, Poly_aftertouch_c, 0, 77, 0
1, 405471, Note_on_c, 0, 67, 89
1, 405511, Note_on_c, 0, 69, 83
1, 405583, Note_on_c, 0, 89, 88
1, 405591, Note_off_c, 0, 69, 62
1, 405594, Note_on_c, 0, 71, 87
1, 405594, Note_on_c, 0, 86, 69
1, 405597, Note_on_c, 0, 83, 72
1, 405627, Note_off_c, 0, 86, 61
1, 405627, Note_off_c, 0, 89, 61
1, 405629, Note_off_c, 0, 71, 60
1, 405642, Note_off_c, 0, 83, 60
1, 405654, Poly_aftertouch_c, 0, 77, 127
1, 405685, Poly_aftertouch_c, 0, 77, 0
1, 405721, Note_on_c, 0, 73, 99
1, 405845, Note_on_c, 0, 89, 85
1, 405853, Note_on_c, 0, 83, 68
1, 405857, Note_on_c, 0, 86, 67
1, 405896, Note_off_c, 0, 89, 62
1, 405908, Note_off_c, 0, 86, 59
1, 405911, Note_off_c, 0, 83, 60
1, 405929, Poly_aftertouch_c, 0, 77, 0
1, 405940, Note_off_c, 0, 73, 60
1, 405950, Poly_aftertouch_c, 0, 77, 0
1, 405952, Note_off_c, 0, 67, 60
1, 405985, Note_on_c, 0, 69, 94
1, 406023, Note_off_c, 0, 69, 70
1, 406104, Note_on_c, 0, 89, 77
1, 406111, Note_on_c, 0, 86, 66
1, 406112, Note_on_c, 0, 83, 61
1, 406151, Note_off_c, 0, 89, 60
1, 406153, Note_off_c, 0, 86, 60
1, 406158, Note_off_c, 0, 83, 59
1, 406188, Control_c, 0, 64, 109
1, 406203, Control_c, 0, 64, 64
1, 406217, Control_c, 0, 64, 38
1, 406232, Control_c, 0, 64, 59
1, 406232, Control_c, 0, 67, 29
1, 406236, Note_on_c, 0, 55, 99
1, 406240, Note_on_c, 0, 67, 95
1, 406247, Control_c, 0, 64, 84
1, 406247, Control_c, 0, 67, 21
1, 406261, Control_c, 0, 64, 127
1, 406261, Control_c, 0, 67, 0
1, 406271, Note_off_c, 0, 55, 66
1, 406275, Note_off_c, 0, 67, 63
1, 406371, Note_on_c, 0, 89, 84
1, 406382, Note_on_c, 0, 73, 88
1, 406385, Note_on_c, 0, 83, 70
1, 406387, Note_on_c, 0, 86, 66
1, 406418, Note_off_c, 0, 89, 62
1, 406424, Note_off_c, 0, 73, 63
1, 406427, Note_off_c, 0, 86, 58
1, 406451, Note_off_c, 0, 83, 56
1, 406504, Note_on_c, 0, 71, 84
1, 406537, Poly_aftertouch_c, 0, 72, 0
1, 406594, Note_off_c, 0, 71, 63
1, 406625, Note_on_c, 0, 89, 88
1, 406626, Note_on_c, 0, 74, 93
1, 406635, Note_on_c, 0, 83, 74
1, 406636, Note_on_c, 0, 86, 72
1, 406663, Note_off_c, 0, 74, 68
1, 406671, Note_off_c, 0, 89, 64
1, 406689, Note_off_c, 0, 86, 61
1, 406689, Note_off_c, 0, 83, 63
1, 406727, Poly_aftertouch_c, 0, 77, 0
1, 406758, Note_on_c, 0, 73, 97
1, 406884, Note_on_c, 0, 71, 84
1, 406890, Note_on_c, 0, 89, 88
1, 406896, Note_off_c, 0, 73, 56
1, 406899, Note_on_c, 0, 83, 74
1, 406903, Note_on_c, 0, 86, 64
1, 406933, Note_off_c, 0, 89, 64
1, 406940, Note_off_c, 0, 71, 65
1, 406941, Note_on_c, 0, 69, 78
1, 406943, Note_off_c, 0, 86, 59
1, 406961, Note_off_c, 0, 83, 61
1, 407004, Note_off_c, 0, 69, 64
1, 407005, Note_on_c, 0, 67, 79
1, 407059, Note_on_c, 0, 69, 74
1, 407113, Note_on_c, 0, 89, 90
1, 407121, Note_on_c, 0, 83, 71
1, 407122, Note_on_c, 0, 71, 94
1, 407122, Note_off_c, 0, 69, 62
1, 407130, Note_on_c, 0, 86, 70
1, 407143, Note_on_c, 0, 77, 31
1, 407150, Note_off_c, 0, 71, 64
1, 407158, Note_off_c, 0, 89, 64
1, 407162, Note_off_c, 0, 86, 62
1, 407175, Note_off_c, 0, 77, 53
1, 407181, Note_off_c, 0, 83, 62
1, 407258, Note_on_c, 0, 73, 104
1, 407371, Note_on_c, 0, 89, 84
1, 407381, Note_on_c, 0, 83, 74
1, 407381, Note_on_c, 0, 86, 72
1, 407408, Note_on_c, 0, 77, 7
1, 407416, Note_off_c, 0, 89, 62
1, 407425, Note_off_c, 0, 86, 57
1, 407435, Note_off_c, 0, 83, 62
1, 407446, Note_off_c, 0, 77, 0
1, 407478, Poly_aftertouch_c, 0, 77, 0
1, 407493, Note_off_c, 0, 73, 54
1, 407509, Note_on_c, 0, 78, 81
1, 407529, Note_off_c, 0, 67, 64
1, 407550, Note_off_c, 0, 78, 62
1, 407625, Note_on_c, 0, 89, 89
1, 407633, Note_on_c, 0, 69, 93
1, 407633, Note_on_c, 0, 83, 74
1, 407639, Note_on_c, 0, 86, 65
1, 407651, Note_on_c, 0, 77, 40
1, 407672, Note_off_c, 0, 89, 63
1, 407673, Note_off_c, 0, 86, 61
1, 407680, Note_off_c, 0, 77, 54
1, 407686, Note_off_c, 0, 83, 62
1, 407747, Note_off_c, 0, 69, 63
1, 407761, Note_on_c, 0, 67, 83
1, 407824, Note_off_c, 0, 67, 62
1, 407827, Note_on_c, 0, 69, 83
1, 407884, Note_on_c, 0, 89, 83
1, 407885, Note_on_c, 0, 71, 95
1, 407885, Note_off_c, 0, 69, 56
1, 407894, Note_on_c, 0, 83, 69
1, 407896, Note_on_c, 0, 77, 50
1, 407903, Note_on_c, 0, 86, 67
1, 407911, Note_off_c, 0, 71, 70
1, 407918, Note_off_c, 0, 77, 59
1, 407922, Note_off_c, 0, 89, 60
1, 407931, Note_off_c, 0, 86, 65
1, 407942, Note_off_c, 0, 83, 62
1, 408006, Note_on_c, 0, 67, 96
1, 408137, Note_on_c, 0, 69, 86
1, 408142, Note_off_c, 0, 67, 62
1, 408153, Note_on_c, 0, 89, 83
1, 408162, Note_on_c, 0, 77, 60
1, 408167, Note_on_c, 0, 83, 66
1, 408167, Note_on_c, 0, 86, 68
1, 408188, Note_on_c, 0, 71, 82
1, 408194, Note_off_c, 0, 77, 60
1, 408200, Note_off_c, 0, 89, 60
1, 408216, Note_off_c, 0, 69, 61
1, 408217, Note_off_c, 0, 86, 55
1, 408224, Note_off_c, 0, 83, 60
1, 408257, Note_on_c, 0, 73, 93
1, 408277, Note_off_c, 0, 71, 65
1, 408295, Note_off_c, 0, 73, 68
1, 408385, Note_on_c, 0, 89, 89
1, 408386, Note_on_c, 0, 67, 97
1, 408388, Note_on_c, 0, 77, 71
1, 408397, Note_on_c, 0, 83, 74
1, 408400, Note_on_c, 0, 86, 68
1, 408432, Note_off_c, 0, 89, 62
1, 408449, Note_off_c, 0, 86, 58
1, 408450, Note_off_c, 0, 77, 50
1, 408493, Note_off_c, 0, 83, 41
1, 408509, Note_off_c, 0, 67, 57
1, 408512, Note_on_c, 0, 69, 85
1, 408581, Note_on_c, 0, 71, 78
1, 408586, Note_off_c, 0, 69, 63
1, 408617, Note_on_c, 0, 89, 86
1, 408620, Note_on_c, 0, 83, 61
1, 408623, Note_on_c, 0, 77, 69
1, 408623, Note_on_c, 0, 86, 66
1, 408639, Note_off_c, 0, 71, 63
1, 408645, Note_on_c, 0, 74, 70
1, 408647, Note_off_c, 0, 77, 67
1, 408659, Note_off_c, 0, 89, 61
1, 408669, Note_off_c, 0, 74, 65
1, 408674, Note_off_c, 0, 86, 63
1, 408680, Note_off_c, 0, 83, 64
1, 408755, Note_on_c, 0, 75, 96
1, 408826, Note_off_c, 0, 75, 67
1, 408889, Note_on_c, 0, 76, 86
1, 408893, Note_on_c, 0, 89, 91
1, 408895, Note_on_c, 0, 83, 75
1, 408901, Note_on_c, 0, 86, 63
1, 408940, Note_off_c, 0, 89, 63
1, 408945, Note_off_c, 0, 76, 64
1, 408948, Note_off_c, 0, 83, 60
1, 408950, Note_on_c, 0, 87, 7
1, 408961, Note_on_c, 0, 78, 54
1, 408961, Note_off_c, 0, 78, 127
1, 408962, Note_on_c, 0, 77, 87
1, 408963, Note_off_c, 0, 87, 39
1, 408971, Note_off_c, 0, 86, 59
1, 409002, Note_off_c, 0, 77, 68
1, 409012, Note_on_c, 0, 79, 93
1, 409064, Note_off_c, 0, 79, 66
1, 409135, Note_on_c, 0, 89, 93
1, 409136, Note_on_c, 0, 83, 95
1, 409138, Note_on_c, 0, 86, 67
1, 409167, Note_on_c, 0, 87, 50
1, 409172, Note_off_c, 0, 89, 64
1, 409191, Note_off_c, 0, 83, 63
1, 409196, Note_off_c, 0, 86, 64
1, 409197, Note_off_c, 0, 87, 35
1, 409238, Poly_aftertouch_c, 0, 81, 0
1, 409270, Note_on_c, 0, 84, 74
1, 409292, Note_on_c, 0, 83, 68
1, 409310, Note_off_c, 0, 83, 66
1, 409319, Note_off_c, 0, 84, 67
1, 409325, Note_on_c, 0, 86, 91
1, 409356, Note_on_c, 0, 84, 35
1, 409383, Note_on_c, 0, 88, 94
1, 409384, Note_off_c, 0, 86, 68
1, 409387, Note_off_c, 0, 84, 56
1, 409416, Note_off_c, 0, 88, 68
1, 409481, Control_c, 0, 64, 76
1, 409495, Control_c, 0, 64, 53
1, 409501, Note_on_c, 0, 86, 87
1, 409503, Note_on_c, 0, 88, 98
1, 409506, Note_on_c, 0, 83, 81
1, 409510, Control_c, 0, 64, 58
1, 409510, Control_c, 0, 67, 32
1, 409525, Control_c, 0, 64, 76
1, 409525, Control_c, 0, 67, 48
1, 409537, Note_off_c, 0, 86, 66
1, 409539, Control_c, 0, 64, 127
1, 409539, Control_c, 0, 67, 38
1, 409541, Note_off_c, 0, 83, 63
1, 409542, Note_off_c, 0, 88, 68
1, 409554, Control_c, 0, 67, 24
1, 409568, Control_c, 0, 67, 0
1, 409643, Note_on_c, 0, 89, 97
1, 409690, Note_on_c, 0, 91, 89
1, 409695, Note_off_c, 0, 89, 64
1, 409734, Note_on_c, 0, 93, 91
1, 409750, Note_off_c, 0, 91, 64
1, 409792, Note_off_c, 0, 93, 67
1, 409793, Note_on_c, 0, 95, 79
1, 409801, Note_on_c, 0, 96, 55
1, 409812, Note_off_c, 0, 95, 71
1, 409823, Note_off_c, 0, 96, 61
1, 409842, Control_c, 0, 64, 95
1, 409857, Control_c, 0, 64, 59
1, 409862, Note_on_c, 0, 77, 88
1, 409865, Note_on_c, 0, 71, 78
1, 409867, Note_on_c, 0, 83, 96
1, 409869, Note_on_c, 0, 88, 97
1, 409870, Note_on_c, 0, 74, 77
1, 409872, Control_c, 0, 64, 53
1, 409877, Note_on_c, 0, 84, 85
1, 409877, Note_on_c, 0, 86, 82
1, 409887, Control_c, 0, 64, 68
1, 409888, Note_off_c, 0, 83, 67
1, 409891, Note_off_c, 0, 71, 67
1, 409892, Note_off_c, 0, 74, 70
1, 409893, Note_off_c, 0, 84, 77
1, 409896, Note_off_c, 0, 86, 70
1, 409897, Note_off_c, 0, 77, 66
1, 409902, Control_c, 0, 64, 127
1, 409903, Note_on_c, 0, 76, 35
1, 409903, Note_off_c, 0, 76, 127
1, 409909, Note_off_c, 0, 88, 66
1, 410003, Note_on_c, 0, 79, 85
1, 410007, Note_on_c, 0, 91, 92
1, 410053, Note_on_c, 0, 93, 94
1, 410059, Note_off_c, 0, 91, 66
1, 410070, Note_on_c, 0, 81, 82
1, 410099, Note_on_c, 0, 95, 86
1, 410104, Note_off_c, 0, 79, 65
1, 410111, Note_on_c, 0, 83, 85
1, 410115, Note_off_c, 0, 93, 65
1, 410129, Note_on_c, 0, 84, 70
1, 410130, Note_off_c, 0, 81, 60
1, 410143, Note_off_c, 0, 83, 67
1, 410146, Note_on_c, 0, 96, 90
1, 410154, Note_off_c, 0, 84, 67
1, 410163, Note_off_c, 0, 95, 65
1, 410168, Control_c, 0, 64, 102
1, 410184, Control_c, 0, 64, 55
1, 410199, Control_c, 0, 64, 0
1, 410199, Control_c, 0, 67, 29
1, 410214, Control_c, 0, 64, 38
1, 410214, Control_c, 0, 67, 42
1, 410227, Note_on_c, 0, 86, 100
1, 410227, Note_on_c, 0, 98, 101
1, 410229, Control_c, 0, 64, 72
1, 410229, Control_c, 0, 67, 32
1, 410236, Note_off_c, 0, 96, 64
1, 410239, Note_on_c, 0, 59, 86
1, 410243, Note_on_c, 0, 69, 79
1, 410243, Control_c, 0, 64, 127
1, 410243, Control_c, 0, 67, 0
1, 410253, Note_on_c, 0, 64, 68
1, 410264, Note_on_c, 0, 66, 38
1, 410265, Note_off_c, 0, 98, 66
1, 410267, Note_off_c, 0, 86, 66
1, 410270, Note_off_c, 0, 69, 64
1, 410272, Note_off_c, 0, 64, 65
1, 410272, Note_off_c, 0, 59, 60
1, 410291, Note_off_c, 0, 66, 50
1, 410361, Note_on_c, 0, 92, 103
1, 410362, Note_on_c, 0, 66, 76
1, 410366, Note_on_c, 0, 69, 83
1, 410367, Note_on_c, 0, 64, 58
1, 410367, Note_on_c, 0, 59, 78
1, 410382, Note_off_c, 0, 69, 74
1, 410387, Note_off_c, 0, 66, 66
1, 410391, Note_off_c, 0, 64, 65
1, 410391, Note_on_c, 0, 93, 56
1, 410394, Note_off_c, 0, 59, 66
1, 410411, Note_off_c, 0, 93, 62
1, 410427, Note_off_c, 0, 92, 61
1, 410481, Note_on_c, 0, 90, 85
1, 410529, Note_off_c, 0, 90, 64
1, 410597, Note_on_c, 0, 93, 95
1, 410598, Note_on_c, 0, 69, 79
1, 410600, Note_on_c, 0, 59, 75
1, 410603, Note_on_c, 0, 66, 70
1, 410606, Note_on_c, 0, 64, 72
1, 410619, Note_off_c, 0, 69, 67
1, 410624, Note_off_c, 0, 59, 65
1, 410627, Note_off_c, 0, 66, 67
1, 410631, Note_off_c, 0, 64, 68
1, 410637, Note_off_c, 0, 93, 65
1, 410740, Note_on_c, 0, 91, 94
1, 410789, Note_on_c, 0, 89, 92
1, 410796, Note_off_c, 0, 91, 67
1, 410816, Note_on_c, 0, 59, 74
1, 410823, Note_on_c, 0, 66, 70
1, 410824, Note_on_c, 0, 69, 68
1, 410825, Note_on_c, 0, 88, 101
1, 410825, Note_off_c, 0, 89, 65
1, 410826, Note_on_c, 0, 64, 59
1, 410847, Note_off_c, 0, 59, 65
1, 410848, Note_off_c, 0, 66, 67
1, 410850, Note_off_c, 0, 69, 67
1, 410854, Note_off_c, 0, 64, 63
1, 410856, Note_off_c, 0, 88, 70
1, 410942, Note_on_c, 0, 86, 100
1, 410943, Note_on_c, 0, 66, 75
1, 410945, Note_on_c, 0, 69, 78
1, 410947, Note_on_c, 0, 59, 78
1, 410950, Note_on_c, 0, 64, 64
1, 410977, Note_off_c, 0, 64, 68
1, 410979, Note_off_c, 0, 59, 61
1, 410979, Note_off_c, 0, 69, 59
1, 410982, Note_off_c, 0, 66, 60
1, 411057, Note_on_c, 0, 64, 72
1, 411058, Note_on_c, 0, 66, 71
1, 411063, Note_on_c, 0, 59, 65
1, 411068, Note_on_c, 0, 69, 57
1, 411082, Note_off_c, 0, 59, 73
1, 411085, Note_off_c, 0, 64, 65
1, 411088, Note_off_c, 0, 66, 65
1, 411094, Note_off_c, 0, 69, 57
1, 411161, Note_on_c, 0, 66, 77
1, 411163, Note_on_c, 0, 59, 78
1, 411163, Note_on_c, 0, 64, 70
1, 411164, Note_on_c, 0, 69, 80
1, 411187, Note_off_c, 0, 64, 69
1, 411190, Note_off_c, 0, 66, 57
1, 411192, Note_off_c, 0, 69, 65
1, 411200, Note_off_c, 0, 59, 60
1, 411277, Note_on_c, 0, 92, 103
1, 411282, Note_on_c, 0, 66, 87
1, 411285, Note_on_c, 0, 69, 79
1, 411286, Note_on_c, 0, 59, 74
1, 411288, Note_on_c, 0, 64, 68
1, 411304, Note_off_c, 0, 69, 69
1, 411305, Note_off_c, 0, 64, 69
1, 411306, Note_off_c, 0, 66, 66
1, 411309, Note_off_c, 0, 59, 67
1, 411329, Note_off_c, 0, 92, 66
1, 411398, Note_on_c, 0, 90, 94
1, 411454, Note_off_c, 0, 90, 65
1, 411501, Note_on_c, 0, 93, 99
1, 411506, Note_on_c, 0, 69, 79
1, 411508, Note_on_c, 0, 59, 70
1, 411509, Note_on_c, 0, 66, 74
1, 411512, Note_on_c, 0, 64, 81
1, 411530, Note_off_c, 0, 69, 66
1, 411537, Note_off_c, 0, 93, 68
1, 411538, Note_off_c, 0, 59, 66
1, 411538, Note_off_c, 0, 66, 61
1, 411545, Note_off_c, 0, 64, 63
1, 411645, Note_on_c, 0, 91, 93
1, 411667, Note_on_c, 0, 93, 88
1, 411691, Note_off_c, 0, 91, 65
1, 411710, Note_on_c, 0, 65, 69
1, 411711, Note_on_c, 0, 64, 73
1, 411724, Note_on_c, 0, 95, 98
1, 411726, Note_on_c, 0, 58, 59
1, 411732, Note_on_c, 0, 68, 58
1, 411738, Note_on_c, 0, 63, 39
1, 411741, Note_off_c, 0, 93, 66
1, 411746, Note_off_c, 0, 63, 42
1, 411749, Note_off_c, 0, 58, 61
1, 411753, Note_off_c, 0, 68, 62
1, 411760, Note_off_c, 0, 64, 62
1, 411765, Note_off_c, 0, 95, 68
1, 411767, Note_off_c, 0, 65, 60
1, 411814, Control_c, 0, 64, 90
1, 411819, Note_on_c, 0, 65, 64
1, 411824, Note_on_c, 0, 68, 82
1, 411826, Note_on_c, 0, 58, 70
1, 411829, Control_c, 0, 64, 67
1, 411835, Note_on_c, 0, 96, 101
1, 411839, Note_on_c, 0, 64, 58
1, 411844, Control_c, 0, 64, 70
1, 411859, Control_c, 0, 64, 102
1, 411863, Note_off_c, 0, 64, 61
1, 411873, Control_c, 0, 64, 127
1, 411875, Note_off_c, 0, 68, 64
1, 411876, Note_off_c, 0, 58, 62
1, 411882, Note_off_c, 0, 65, 63
1, 411908, Note_off_c, 0, 96, 65
1, 411924, Note_on_c, 0, 65, 74
1, 411930, Note_on_c, 0, 68, 81
1, 411935, Note_on_c, 0, 63, 54
1, 411936, Note_on_c, 0, 58, 71
1, 411980, Note_off_c, 0, 63, 64
1, 411981, Note_off_c, 0, 58, 63
1, 411981, Note_off_c, 0, 65, 63
1, 411985, Control_c, 0, 64, 107
1, 411990, Note_off_c, 0, 68, 63
1, 412000, Control_c, 0, 64, 58
1, 412014, Control_c, 0, 64, 0
1, 412044, Control_c, 0, 67, 46
1, 412047, Note_on_c, 0, 64, 86
1, 412049, Note_on_c, 0, 98, 101
1, 412054, Note_on_c, 0, 69, 83
1, 412054, Note_on_c, 0, 59, 75
1, 412059, Control_c, 0, 64, 73
1, 412059, Control_c, 0, 67, 65
1, 412066, Note_on_c, 0, 66, 57
1, 412074, Control_c, 0, 64, 127
1, 412074, Control_c, 0, 67, 60
1, 412079, Note_off_c, 0, 69, 65
1, 412081, Note_off_c, 0, 64, 64
1, 412086, Note_off_c, 0, 59, 62
1, 412088, Control_c, 0, 67, 51
1, 412090, Note_off_c, 0, 66, 64
1, 412099, Note_off_c, 0, 98, 60
1, 412103, Control_c, 0, 67, 38
1, 412118, Control_c, 0, 67, 28
1, 412132, Control_c, 0, 67, 33
1, 412147, Control_c, 0, 67, 39
1, 412162, Control_c, 0, 67, 37
1, 412168, Note_on_c, 0, 92, 92
1, 412171, Note_on_c, 0, 66, 63
1, 412172, Note_on_c, 0, 64, 66
1, 412174, Note_on_c, 0, 69, 68
1, 412177, Control_c, 0, 67, 29
1, 412182, Note_on_c, 0, 59, 52
1, 412192, Control_c, 0, 67, 21
1, 412194, Note_off_c, 0, 64, 62
1, 412199, Note_off_c, 0, 66, 65
1, 412200, Note_off_c, 0, 59, 67
1, 412203, Note_off_c, 0, 69, 64
1, 412206, Control_c, 0, 67, 0
1, 412236, Control_c, 0, 67, 20
1, 412251, Control_c, 0, 67, 29
1, 412252, Note_off_c, 0, 86, 57
1, 412266, Control_c, 0, 67, 31
1, 412275, Note_on_c, 0, 90, 93
1, 412281, Control_c, 0, 67, 25
1, 412296, Control_c, 0, 67, 0
1, 412299, Note_off_c, 0, 92, 63
1, 412325, Note_off_c, 0, 90, 64
1, 412380, Note_on_c, 0, 59, 77
1, 412380, Note_on_c, 0, 69, 80
1, 412385, Note_on_c, 0, 64, 72
1, 412385, Note_on_c, 0, 66, 73
1, 412389, Note_on_c, 0, 93, 84
1, 412401, Note_off_c, 0, 69, 65
1, 412403, Note_on_c, 0, 91, 78
1, 412408, Note_off_c, 0, 64, 69
1, 412409, Note_off_c, 0, 66, 68
1, 412411, Note_off_c, 0, 59, 65
1, 412418, Note_off_c, 0, 91, 43
1, 412428, Note_off_c, 0, 93, 67
1, 412495, Note_on_c, 0, 91, 86
1, 412564, Note_on_c, 0, 89, 93
1, 412567, Note_off_c, 0, 91, 67
1, 412594, Note_on_c, 0, 88, 102
1, 412600, Note_on_c, 0, 59, 72
1, 412601, Note_off_c, 0, 89, 66
1, 412606, Note_on_c, 0, 69, 73
1, 412606, Note_on_c, 0, 64, 68
1, 412614, Note_on_c, 0, 66, 68
1, 412627, Note_off_c, 0, 88, 69
1, 412633, Note_off_c, 0, 64, 65
1, 412633, Note_off_c, 0, 69, 67
1, 412635, Note_off_c, 0, 66, 69
1, 412639, Note_off_c, 0, 59, 63
1, 412713, Note_on_c, 0, 86, 102
1, 412828, Note_on_c, 0, 59, 72
1, 412830, Note_on_c, 0, 92, 96
1, 412831, Note_on_c, 0, 66, 71
1, 412831, Note_on_c, 0, 69, 74
1, 412834, Note_on_c, 0, 64, 67
1, 412860, Note_off_c, 0, 69, 66
1, 412861, Note_off_c, 0, 59, 51
1, 412861, Note_off_c, 0, 64, 69
1, 412864, Note_off_c, 0, 66, 62
1, 412876, Note_off_c, 0, 92, 66
1, 412943, Note_on_c, 0, 90, 101
1, 412990, Note_off_c, 0, 90, 67
1, 412996, Note_off_c, 0, 86, 59
1, 413034, Note_on_c, 0, 86, 69
1, 413051, Note_on_c, 0, 93, 96
1, 413059, Note_on_c, 0, 69, 79
1, 413061, Note_on_c, 0, 59, 72
1, 413061, Note_on_c, 0, 66, 79
1, 413065, Note_on_c, 0, 64, 70
1, 413083, Note_off_c, 0, 69, 69
1, 413088, Note_off_c, 0, 59, 67
1, 413089, Note_off_c, 0, 64, 67
1, 413090, Note_off_c, 0, 93, 68
1, 413095, Note_off_c, 0, 66, 61
1, 413177, Note_on_c, 0, 91, 94
1, 413193, Control_c, 0, 64, 117
1, 413208, Control_c, 0, 64, 63
1, 413214, Note_on_c, 0, 93, 88
1, 413222, Control_c, 0, 64, 0
1, 413222, Control_c, 0, 67, 19
1, 413232, Note_off_c, 0, 91, 65
1, 413237, Control_c, 0, 67, 0
1, 413254, Note_on_c, 0, 65, 80
1, 413256, Note_on_c, 0, 67, 71
1, 413261, Note_on_c, 0, 60, 67
1, 413261, Note_on_c, 0, 70, 74
1, 413267, Control_c, 0, 64, 64
1, 413270, Note_on_c, 0, 95, 94
1, 413281, Control_c, 0, 64, 101
1, 413283, Note_off_c, 0, 93, 58
1, 413289, Note_off_c, 0, 70, 61
1, 413296, Control_c, 0, 64, 127
1, 413300, Note_off_c, 0, 60, 57
1, 413311, Note_off_c, 0, 95, 68
1, 413320, Note_off_c, 0, 67, 57
1, 413321, Note_off_c, 0, 65, 61
1, 413382, Note_on_c, 0, 70, 94
1, 413385, Note_on_c, 0, 60, 85
1, 413386, Note_on_c, 0, 96, 111
1, 413387, Note_on_c, 0, 67, 63
1, 413390, Note_on_c, 0, 65, 65
1, 413428, Note_off_c, 0, 60, 63
1, 413429, Note_off_c, 0, 70, 64
1, 413439, Note_off_c, 0, 67, 60
1, 413475, Note_off_c, 0, 65, 0
1, 413489, Note_off_c, 0, 96, 66
1, 413494, Note_on_c, 0, 65, 52
1, 413496, Note_on_c, 0, 67, 57
1, 413500, Note_on_c, 0, 70, 86
1, 413501, Note_on_c, 0, 60, 81
1, 413539, Note_off_c, 0, 67, 64
1, 413542, Note_off_c, 0, 60, 66
1, 413542, Note_off_c, 0, 65, 65
1, 413545, Note_off_c, 0, 70, 63
1, 413610, Note_on_c, 0, 98, 109
1, 413658, Note_off_c, 0, 98, 64
1, 413690, Control_c, 0, 64, 71
1, 413705, Control_c, 0, 64, 0
1, 413725, Note_on_c, 0, 71, 83
1, 413727, Note_on_c, 0, 66, 78
1, 413727, Note_on_c, 0, 92, 101
1, 413730, Note_on_c, 0, 68, 72
1, 413732, Note_on_c, 0, 61, 69
1, 413749, Control_c, 0, 64, 63
1, 413753, Note_off_c, 0, 71, 64
1, 413755, Note_off_c, 0, 68, 68
1, 413756, Note_off_c, 0, 66, 64
1, 413759, Note_off_c, 0, 86, 63
1, 413760, Note_off_c, 0, 61, 62
1, 413764, Control_c, 0, 64, 127
1, 413840, Note_on_c, 0, 90, 90
1, 413848, Note_off_c, 0, 92, 60
1, 413935, Note_off_c, 0, 90, 64
1, 413945, Note_on_c, 0, 71, 77
1, 413950, Note_on_c, 0, 93, 93
1, 413951, Note_on_c, 0, 61, 71
1, 413953, Note_on_c, 0, 66, 71
1, 413960, Note_on_c, 0, 68, 63
1, 413968, Note_off_c, 0, 71, 69
1, 413980, Note_off_c, 0, 61, 66
1, 413980, Note_off_c, 0, 66, 65
1, 413981, Note_off_c, 0, 68, 65
1, 413985, Note_off_c, 0, 93, 64
1, 414071, Note_on_c, 0, 85, 93
1, 414118, Note_on_c, 0, 87, 86
1, 414172, Note_on_c, 0, 89, 90
1, 414178, Note_off_c, 0, 87, 48
1, 414186, Note_on_c, 0, 90, 58
1, 414192, Note_on_c, 0, 61, 69
1, 414192, Note_on_c, 0, 71, 69
1, 414195, Note_on_c, 0, 66, 63
1, 414210, Note_on_c, 0, 68, 63
1, 414217, Note_off_c, 0, 89, 64
1, 414217, Note_off_c, 0, 90, 37
1, 414224, Note_off_c, 0, 71, 67
1, 414225, Note_off_c, 0, 66, 67
1, 414226, Note_off_c, 0, 61, 64
1, 414233, Note_off_c, 0, 68, 67
1, 414305, Note_on_c, 0, 90, 91
1, 414374, Note_off_c, 0, 90, 64
1, 414421, Note_on_c, 0, 66, 81
1, 414422, Note_on_c, 0, 71, 80
1, 414422, Note_on_c, 0, 92, 96
1, 414427, Note_on_c, 0, 68, 69
1, 414428, Note_on_c, 0, 61, 71
1, 414446, Note_off_c, 0, 71, 67
1, 414453, Note_off_c, 0, 68, 69
1, 414457, Note_off_c, 0, 66, 59
1, 414458, Note_off_c, 0, 61, 66
1, 414495, Note_off_c, 0, 92, 64
1, 414536, Note_on_c, 0, 90, 98
1, 414564, Note_off_c, 0, 85, 65
1, 414593, Note_off_c, 0, 90, 67
1, 414650, Note_on_c, 0, 71, 85
1, 414650, Note_on_c, 0, 93, 101
1, 414651, Note_on_c, 0, 66, 83
1, 414657, Note_on_c, 0, 61, 74
1, 414658, Note_on_c, 0, 68, 71
1, 414670, Note_off_c, 0, 71, 69
1, 414679, Note_off_c, 0, 66, 63
1, 414680, Note_off_c, 0, 61, 68
1, 414683, Note_off_c, 0, 68, 67
1, 414685, Note_off_c, 0, 93, 68
1, 414774, Note_on_c, 0, 85, 96
1, 414824, Note_on_c, 0, 87, 91
1, 414865, Note_off_c, 0, 87, 67
1, 414868, Note_on_c, 0, 89, 78
1, 414870, Note_on_c, 0, 66, 82
1, 414871, Note_on_c, 0, 71, 81
1, 414880, Note_on_c, 0, 68, 65
1, 414881, Note_on_c, 0, 61, 68
1, 414882, Note_on_c, 0, 88, 75
1, 414892, Note_off_c, 0, 71, 68
1, 414896, Note_off_c, 0, 88, 68
1, 414904, Note_off_c, 0, 89, 62
1, 414905, Note_off_c, 0, 66, 56
1, 414905, Note_off_c, 0, 68, 68
1, 414907, Note_off_c, 0, 61, 67
1, 415002, Note_on_c, 0, 90, 105
1, 415114, Note_on_c, 0, 66, 83
1, 415115, Note_on_c, 0, 71, 88
1, 415120, Note_on_c, 0, 68, 74
1, 415121, Note_on_c, 0, 93, 93
1, 415122, Note_on_c, 0, 61, 74
1, 415131, Note_off_c, 0, 90, 58
1, 415134, Note_off_c, 0, 71, 71
1, 415138, Note_off_c, 0, 85, 65
1, 415141, Note_off_c, 0, 66, 64
1, 415141, Note_off_c, 0, 68, 71
1, 415142, Note_on_c, 0, 92, 46
1, 415151, Note_off_c, 0, 61, 64
1, 415158, Note_off_c, 0, 93, 68
1, 415170, Note_off_c, 0, 92, 58
1, 415247, Note_on_c, 0, 85, 97
1, 415297, Note_on_c, 0, 87, 88
1, 415354, Note_off_c, 0, 87, 63
1, 415355, Note_on_c, 0, 89, 92
1, 415369, Note_on_c, 0, 71, 90
1, 415373, Note_on_c, 0, 66, 86
1, 415376, Note_on_c, 0, 61, 78
1, 415377, Note_on_c, 0, 68, 81
1, 415393, Note_off_c, 0, 71, 66
1, 415396, Note_off_c, 0, 68, 71
1, 415399, Note_off_c, 0, 61, 69
1, 415401, Note_off_c, 0, 89, 65
1, 415411, Note_off_c, 0, 66, 61
1, 415512, Note_on_c, 0, 90, 105
1, 415648, Note_on_c, 0, 66, 95
1, 415651, Note_on_c, 0, 71, 91
1, 415653, Note_on_c, 0, 68, 82
1, 415656, Note_on_c, 0, 61, 76
1, 415669, Note_off_c, 0, 71, 72
1, 415677, Note_off_c, 0, 68, 67
1, 415683, Note_off_c, 0, 61, 65
1, 415687, Note_off_c, 0, 66, 61
1, 415800, Note_off_c, 0, 85, 63
1, 415816, Note_on_c, 0, 95, 108
1, 415826, Note_off_c, 0, 90, 68
1, 415835, Note_on_c, 0, 92, 60
1, 415846, Note_off_c, 0, 95, 69
1, 415855, Note_off_c, 0, 92, 62
1, 415971, Note_on_c, 0, 66, 94
1, 415972, Note_on_c, 0, 71, 92
1, 415975, Note_on_c, 0, 68, 87
1, 415977, Note_on_c, 0, 61, 78
1, 415992, Note_off_c, 0, 71, 69
1, 415994, Note_off_c, 0, 68, 71
1, 415997, Note_off_c, 0, 61, 71
1, 416009, Note_off_c, 0, 66, 62
1, 416040, Control_c, 0, 64, 91
1, 416055, Control_c, 0, 64, 55
1, 416070, Control_c, 0, 64, 0
1, 416129, Control_c, 0, 64, 48
1, 416144, Control_c, 0, 64, 46
1, 416150, Note_on_c, 0, 71, 97
1, 416152, Note_on_c, 0, 68, 87
1, 416153, Note_on_c, 0, 66, 83
1, 416154, Note_on_c, 0, 61, 85
1, 416159, Control_c, 0, 64, 0
1, 416179, Note_off_c, 0, 71, 65
1, 416182, Note_off_c, 0, 61, 64
1, 416182, Note_off_c, 0, 68, 64
1, 416189, Note_off_c, 0, 66, 61
1, 416332, Note_on_c, 0, 66, 89
1, 416334, Note_on_c, 0, 71, 93
1, 416338, Note_on_c, 0, 61, 80
1, 416338, Note_on_c, 0, 68, 79
1, 416358, Note_off_c, 0, 71, 62
1, 416365, Note_off_c, 0, 61, 62
1, 416365, Note_off_c, 0, 68, 61
1, 416378, Note_off_c, 0, 66, 61
1, 416520, Note_on_c, 0, 71, 94
1, 416521, Note_on_c, 0, 68, 91
1, 416523, Note_on_c, 0, 61, 91
1, 416525, Note_on_c, 0, 65, 98
1, 416526, Note_on_c, 0, 66, 53
1, 416526, Note_off_c, 0, 66, 127
1, 416537, Control_c, 0, 64, 127
1, 416537, Control_c, 0, 67, 81
1, 416552, Control_c, 0, 67, 116
1, 416557, Note_off_c, 0, 61, 58
1, 416558, Note_off_c, 0, 71, 65
1, 416567, Control_c, 0, 67, 113
1, 416567, Note_off_c, 0, 65, 65
1, 416575, Note_off_c, 0, 68, 64
1, 416582, Control_c, 0, 67, 117
1, 416597, Control_c, 0, 67, 120
1, 416612, Control_c, 0, 67, 122
1, 416627, Control_c, 0, 67, 125
1, 416633, Poly_aftertouch_c, 0, 90, 0
1, 416674, Note_on_c, 0, 92, 99
1, 416678, Note_on_c, 0, 90, 97
1, 416718, Note_off_c, 0, 90, 67
1, 416718, Note_off_c, 0, 92, 68
1, 416760, Control_c, 0, 67, 123
1, 416775, Control_c, 0, 67, 120
1, 416790, Control_c, 0, 67, 117
1, 416829, Note_on_c, 0, 89, 101
1, 416878, Control_c, 0, 67, 113
1, 416893, Control_c, 0, 67, 111
1, 416904, Note_on_c, 0, 88, 96
1, 416939, Note_off_c, 0, 89, 64
1, 416971, Note_on_c, 0, 86, 84
1, 416991, Note_off_c, 0, 88, 60
1, 417017, Note_on_c, 0, 84, 73
1, 417028, Note_off_c, 0, 86, 65
1, 417053, Note_off_c, 0, 84, 69
1, 417080, Note_on_c, 0, 86, 100
1, 417086, Control_c, 0, 67, 113
1, 417116, Note_off_c, 0, 86, 70
1, 417116, Control_c, 0, 64, 70
1, 417116, Control_c, 0, 67, 116
1, 417130, Control_c, 0, 64, 0
1, 417145, Control_c, 0, 67, 118
1, 417190, Control_c, 0, 67, 120
1, 417226, Control_c, 0, 67, 122
1, 417238, Note_on_c, 0, 78, 81
1, 417240, Note_on_c, 0, 81, 88
1, 417246, Note_on_c, 0, 74, 72
1, 417259, Note_off_c, 0, 78, 66
1, 417265, Note_off_c, 0, 81, 65
1, 417271, Note_off_c, 0, 74, 69
1, 417271, Control_c, 0, 67, 124
1, 417316, Control_c, 0, 67, 122
1, 417363, Note_on_c, 0, 81, 94
1, 417363, Note_on_c, 0, 78, 76
1, 417366, Note_on_c, 0, 74, 80
1, 417402, Note_off_c, 0, 78, 64
1, 417405, Note_off_c, 0, 74, 64
1, 417405, Note_off_c, 0, 81, 65
1, 417491, Note_on_c, 0, 81, 87
1, 417491, Note_on_c, 0, 78, 80
1, 417494, Note_on_c, 0, 74, 75
1, 417518, Note_off_c, 0, 74, 68
1, 417524, Note_off_c, 0, 78, 63
1, 417528, Note_off_c, 0, 81, 63
1, 417609, Note_on_c, 0, 83, 89
1, 417610, Note_on_c, 0, 78, 88
1, 417613, Control_c, 0, 64, 93
1, 417614, Note_on_c, 0, 73, 83
1, 417617, Note_on_c, 0, 80, 77
1, 417627, Control_c, 0, 64, 127
1, 417639, Note_off_c, 0, 80, 69
1, 417640, Note_off_c, 0, 73, 65
1, 417643, Note_off_c, 0, 83, 64
1, 417646, Note_off_c, 0, 78, 60
1, 417728, Note_on_c, 0, 104, 94
1, 417731, Note_on_c, 0, 78, 85
1, 417732, Note_on_c, 0, 80, 78
1, 417735, Note_on_c, 0, 90, 92
1, 417736, Note_on_c, 0, 83, 84
1, 417736, Note_on_c, 0, 73, 74
1, 417748, Note_on_c, 0, 92, 69
1, 417749, Note_off_c, 0, 78, 71
1, 417751, Note_off_c, 0, 73, 70
1, 417752, Note_off_c, 0, 83, 73
1, 417755, Note_off_c, 0, 80, 65
1, 417759, Note_off_c, 0, 90, 64
1, 417763, Note_off_c, 0, 92, 67
1, 417773, Note_off_c, 0, 104, 65
1, 417794, Note_on_c, 0, 102, 2
1, 417794, Note_off_c, 0, 102, 127
1, 417873, Note_on_c, 0, 103, 79
1, 417874, Note_on_c, 0, 89, 72
1, 417879, Note_on_c, 0, 101, 80
1, 417924, Note_on_c, 0, 88, 91
1, 417928, Note_off_c, 0, 103, 63
1, 417930, Note_on_c, 0, 100, 93
1, 417936, Note_off_c, 0, 89, 59
1, 417992, Note_on_c, 0, 98, 85
1, 417996, Note_off_c, 0, 101, 65
1, 417998, Note_off_c, 0, 88, 63
1, 418000, Note_off_c, 0, 100, 69
1, 418003, Note_on_c, 0, 86, 85
1, 418034, Control_c, 0, 67, 120
1, 418047, Note_on_c, 0, 96, 84
1, 418049, Note_off_c, 0, 98, 66
1, 418064, Note_off_c, 0, 86, 64
1, 418065, Note_on_c, 0, 84, 89
1, 418092, Note_off_c, 0, 96, 65
1, 418108, Note_on_c, 0, 98, 98
1, 418108, Control_c, 0, 64, 85
1, 418118, Note_on_c, 0, 86, 78
1, 418123, Control_c, 0, 64, 58
1, 418124, Note_off_c, 0, 84, 66
1, 418137, Note_off_c, 0, 98, 70
1, 418137, Note_off_c, 0, 86, 72
1, 418138, Control_c, 0, 64, 0
1, 418153, Control_c, 0, 67, 123
1, 418228, Control_c, 0, 67, 120
1, 418255, Note_on_c, 0, 81, 88
1, 418258, Note_on_c, 0, 78, 76
1, 418263, Note_on_c, 0, 74, 72
1, 418272, Note_off_c, 0, 81, 73
1, 418279, Note_off_c, 0, 74, 67
1, 418279, Note_off_c, 0, 78, 70
1, 418317, Control_c, 0, 67, 118
1, 418365, Note_on_c, 0, 78, 78
1, 418366, Note_on_c, 0, 74, 71
1, 418367, Note_on_c, 0, 81, 78
1, 418393, Note_off_c, 0, 78, 63
1, 418402, Note_off_c, 0, 81, 64
1, 418403, Note_off_c, 0, 74, 63
1, 418485, Note_on_c, 0, 78, 83
1, 418487, Note_on_c, 0, 81, 84
1, 418493, Note_on_c, 0, 74, 72
1, 418516, Note_off_c, 0, 74, 70
1, 418524, Note_off_c, 0, 81, 64
1, 418525, Note_off_c, 0, 78, 62
1, 418525, Control_c, 0, 67, 114
1, 418540, Control_c, 0, 67, 101
1, 418555, Control_c, 0, 67, 60
1, 418569, Control_c, 0, 67, 0
1, 418594, Note_on_c, 0, 78, 90
1, 418597, Note_on_c, 0, 83, 88
1, 418599, Note_on_c, 0, 73, 84
1, 418599, Control_c, 0, 64, 66
1, 418606, Note_on_c, 0, 80, 71
1, 418614, Control_c, 0, 64, 127
1, 418628, Note_off_c, 0, 83, 62
1, 418631, Note_off_c, 0, 80, 66
1, 418636, Note_off_c, 0, 78, 61
1, 418637, Note_off_c, 0, 73, 58
1, 418706, Note_on_c, 0, 80, 89
1, 418716, Note_on_c, 0, 83, 88
1, 418717, Note_on_c, 0, 92, 95
1, 418719, Note_on_c, 0, 73, 78
1, 418719, Note_on_c, 0, 90, 95
1, 418722, Note_on_c, 0, 78, 67
1, 418732, Note_off_c, 0, 83, 75
1, 418740, Note_off_c, 0, 73, 71
1, 418741, Note_off_c, 0, 78, 67
1, 418745, Note_off_c, 0, 80, 67
1, 418757, Note_off_c, 0, 92, 66
1, 418759, Note_off_c, 0, 90, 66
1, 418840, Note_on_c, 0, 89, 97
1, 418904, Note_on_c, 0, 88, 92
1, 418933, Note_off_c, 0, 89, 64
1, 418951, Note_on_c, 0, 86, 90
1, 418974, Note_off_c, 0, 88, 65
1, 419006, Note_on_c, 0, 84, 93
1, 419010, Note_off_c, 0, 86, 65
1, 419044, Note_off_c, 0, 84, 72
1, 419052, Control_c, 0, 64, 97
1, 419066, Control_c, 0, 64, 60
1, 419068, Note_on_c, 0, 86, 78
1, 419081, Control_c, 0, 64, 0
1, 419089, Note_off_c, 0, 86, 66
1, 419186, Note_on_c, 0, 78, 82
1, 419188, Note_on_c, 0, 81, 84
1, 419192, Note_on_c, 0, 74, 71
1, 419208, Note_off_c, 0, 78, 67
1, 419208, Note_off_c, 0, 81, 70
1, 419216, Note_off_c, 0, 74, 69
1, 419303, Note_on_c, 0, 78, 75
1, 419304, Note_on_c, 0, 81, 82
1, 419314, Note_on_c, 0, 74, 61
1, 419327, Note_off_c, 0, 78, 66
1, 419331, Note_off_c, 0, 81, 63
1, 419334, Note_off_c, 0, 74, 64
1, 419415, Note_on_c, 0, 80, 92
1, 419417, Note_on_c, 0, 76, 84
1, 419417, Note_on_c, 0, 85, 98
1, 419423, Control_c, 0, 64, 44
1, 419427, Note_on_c, 0, 74, 63
1, 419436, Note_off_c, 0, 80, 68
1, 419444, Control_c, 0, 64, 127
1, 419448, Note_off_c, 0, 76, 66
1, 419453, Note_off_c, 0, 74, 62
1, 419469, Note_off_c, 0, 85, 67
1, 419565, Note_on_c, 0, 84, 77
1, 419584, Note_on_c, 0, 83, 64
1, 419614, Note_off_c, 0, 83, 0
1, 419614, Note_on_c, 0, 83, 57
1, 419641, Note_off_c, 0, 84, 64
1, 419664, Note_on_c, 0, 81, 87
1, 419683, Note_off_c, 0, 83, 64
1, 419720, Note_off_c, 0, 81, 66
1, 419722, Note_on_c, 0, 79, 89
1, 419756, Note_off_c, 0, 79, 69
1, 419756, Control_c, 0, 64, 93
1, 419772, Control_c, 0, 64, 59
1, 419775, Note_on_c, 0, 81, 93
1, 419787, Control_c, 0, 64, 0
1, 419805, Note_off_c, 0, 81, 70
1, 419890, Note_on_c, 0, 78, 80
1, 419891, Note_on_c, 0, 74, 73
1, 419914, Note_off_c, 0, 74, 69
1, 419930, Note_off_c, 0, 78, 63
1, 420004, Note_on_c, 0, 74, 76
1, 420007, Note_on_c, 0, 78, 82
1, 420034, Note_off_c, 0, 74, 64
1, 420063, Note_off_c, 0, 78, 60
1, 420121, Note_on_c, 0, 80, 91
1, 420125, Note_on_c, 0, 83, 86
1, 420134, Note_on_c, 0, 78, 83
1, 420138, Note_off_c, 0, 80, 70
1, 420141, Note_off_c, 0, 83, 74
1, 420141, Control_c, 0, 64, 55
1, 420156, Control_c, 0, 64, 127
1, 420179, Note_off_c, 0, 78, 66
1, 420263, Note_on_c, 0, 77, 73
1, 420310, Note_on_c, 0, 76, 82
1, 420345, Note_off_c, 0, 77, 64
1, 420368, Note_on_c, 0, 74, 78
1, 420381, Note_off_c, 0, 76, 58
1, 420408, Note_on_c, 0, 72, 82
1, 420408, Note_off_c, 0, 74, 65
1, 420437, Note_off_c, 0, 72, 67
1, 420445, Control_c, 0, 64, 82
1, 420460, Control_c, 0, 64, 45
1, 420463, Note_on_c, 0, 74, 92
1, 420474, Control_c, 0, 64, 0
1, 420494, Note_off_c, 0, 74, 69
1, 420598, Note_on_c, 0, 81, 79
1, 420619, Note_off_c, 0, 81, 70
1, 420707, Note_on_c, 0, 78, 81
1, 420712, Note_on_c, 0, 81, 82
1, 420738, Note_off_c, 0, 81, 65
1, 420749, Note_off_c, 0, 78, 62
1, 420823, Note_on_c, 0, 76, 87
1, 420824, Note_on_c, 0, 81, 88
1, 420825, Note_on_c, 0, 80, 82
1, 420827, Note_on_c, 0, 73, 85
1, 420841, Note_off_c, 0, 81, 73
1, 420845, Note_off_c, 0, 76, 66
1, 420847, Note_off_c, 0, 80, 68
1, 420860, Control_c, 0, 64, 89
1, 420875, Control_c, 0, 64, 127
1, 420877, Note_off_c, 0, 73, 62
1, 420955, Note_on_c, 0, 72, 78
1, 421012, Note_on_c, 0, 71, 81
1, 421028, Note_off_c, 0, 72, 61
1, 421051, Note_on_c, 0, 69, 76
1, 421073, Note_off_c, 0, 71, 61
1, 421100, Note_off_c, 0, 69, 66
1, 421102, Note_on_c, 0, 67, 85
1, 421141, Note_off_c, 0, 67, 65
1, 421156, Note_on_c, 0, 69, 92
1, 421187, Note_off_c, 0, 69, 70
1, 421194, Control_c, 0, 64, 85
1, 421209, Control_c, 0, 64, 47
1, 421223, Control_c, 0, 64, 0
1, 421274, Note_on_c, 0, 74, 82
1, 421280, Note_on_c, 0, 81, 77
1, 421280, Note_on_c, 0, 78, 69
1, 421298, Note_off_c, 0, 74, 66
1, 421301, Note_off_c, 0, 81, 68
1, 421304, Note_off_c, 0, 78, 68
1, 421395, Note_on_c, 0, 78, 78
1, 421400, Note_on_c, 0, 81, 77
1, 421408, Note_on_c, 0, 74, 67
1, 421423, Note_off_c, 0, 78, 63
1, 421426, Note_off_c, 0, 81, 65
1, 421432, Note_off_c, 0, 74, 66
1, 421507, Note_on_c, 0, 81, 85
1, 421508, Note_on_c, 0, 73, 91
1, 421515, Note_on_c, 0, 66, 88
1, 421516, Note_on_c, 0, 80, 78
1, 421521, Control_c, 0, 64, 36
1, 421525, Note_off_c, 0, 81, 73
1, 421526, Note_off_c, 0, 73, 71
1, 421536, Control_c, 0, 64, 104
1, 421538, Note_off_c, 0, 80, 67
1, 421551, Control_c, 0, 64, 127
1, 421562, Note_off_c, 0, 66, 62
1, 421650, Note_on_c, 0, 65, 81
1, 421703, Note_on_c, 0, 64, 78
1, 421722, Note_off_c, 0, 65, 63
1, 421743, Note_on_c, 0, 62, 77
1, 421761, Note_off_c, 0, 64, 59
1, 421793, Note_on_c, 0, 60, 77
1, 421798, Note_off_c, 0, 62, 63
1, 421819, Note_off_c, 0, 60, 70
1, 421850, Note_on_c, 0, 66, 91
1, 421852, Note_on_c, 0, 62, 94
1, 421859, Note_on_c, 0, 69, 81
1, 421869, Control_c, 0, 64, 73
1, 421877, Note_off_c, 0, 69, 72
1, 421884, Control_c, 0, 64, 0
1, 421892, Note_off_c, 0, 62, 66
1, 421892, Note_off_c, 0, 66, 60
1, 421943, Control_c, 0, 67, 20
1, 421973, Control_c, 0, 67, 25
1, 421981, Note_on_c, 0, 61, 88
1, 421984, Note_on_c, 0, 68, 85
1, 421985, Note_on_c, 0, 69, 78
1, 421987, Control_c, 0, 67, 28
1, 421996, Note_on_c, 0, 64, 65
1, 422002, Control_c, 0, 67, 31
1, 422003, Note_off_c, 0, 69, 72
1, 422009, Note_off_c, 0, 68, 65
1, 422013, Note_off_c, 0, 64, 66
1, 422017, Control_c, 0, 67, 34
1, 422025, Note_off_c, 0, 61, 61
1, 422032, Control_c, 0, 67, 35
1, 422046, Control_c, 0, 67, 38
1, 422061, Control_c, 0, 67, 39
1, 422076, Control_c, 0, 67, 41
1, 422091, Control_c, 0, 67, 42
1, 422106, Control_c, 0, 67, 42
1, 422111, Note_on_c, 0, 60, 77
1, 422121, Control_c, 0, 67, 43
1, 422136, Control_c, 0, 67, 43
1, 422151, Control_c, 0, 67, 44
1, 422160, Note_on_c, 0, 59, 74
1, 422166, Control_c, 0, 67, 44
1, 422173, Note_off_c, 0, 60, 64
1, 422199, Note_on_c, 0, 57, 74
1, 422210, Control_c, 0, 67, 43
1, 422213, Note_off_c, 0, 59, 63
1, 422225, Control_c, 0, 67, 43
1, 422240, Control_c, 0, 67, 42
1, 422251, Note_off_c, 0, 57, 65
1, 422252, Note_on_c, 0, 55, 80
1, 422270, Control_c, 0, 67, 42
1, 422280, Note_off_c, 0, 55, 68
1, 422300, Control_c, 0, 67, 41
1, 422301, Note_on_c, 0, 57, 85
1, 422315, Control_c, 0, 67, 41
1, 422322, Note_off_c, 0, 57, 72
1, 422329, Control_c, 0, 67, 40
1, 422429, Note_on_c, 0, 62, 79
1, 422445, Note_on_c, 0, 66, 68
1, 422445, Note_on_c, 0, 69, 74
1, 422467, Note_off_c, 0, 62, 64
1, 422467, Note_off_c, 0, 69, 70
1, 422470, Note_off_c, 0, 66, 68
1, 422484, Control_c, 0, 67, 40
1, 422548, Note_on_c, 0, 66, 76
1, 422551, Note_on_c, 0, 61, 77
1, 422559, Note_on_c, 0, 69, 68
1, 422574, Control_c, 0, 67, 40
1, 422581, Note_off_c, 0, 66, 64
1, 422582, Note_off_c, 0, 61, 62
1, 422585, Note_off_c, 0, 69, 68
1, 422675, Note_on_c, 0, 61, 80
1, 422675, Note_on_c, 0, 69, 70
1, 422675, Note_on_c, 0, 54, 85
1, 422677, Note_on_c, 0, 68, 73
1, 422690, Note_off_c, 0, 69, 67
1, 422692, Control_c, 0, 64, 39
1, 422692, Control_c, 0, 67, 41
1, 422695, Note_off_c, 0, 68, 68
1, 422696, Note_off_c, 0, 61, 70
1, 422707, Control_c, 0, 64, 95
1, 422707, Control_c, 0, 67, 41
1, 422722, Control_c, 0, 64, 127
1, 422724, Note_off_c, 0, 54, 60
1, 422737, Control_c, 0, 67, 42
1, 422781, Control_c, 0, 67, 42
1, 422806, Note_on_c, 0, 53, 72
1, 422825, Control_c, 0, 67, 42
1, 422858, Note_on_c, 0, 52, 69
1, 422876, Note_off_c, 0, 53, 52
1, 422899, Note_on_c, 0, 50, 76
1, 422904, Note_off_c, 0, 52, 60
1, 422946, Note_on_c, 0, 48, 83
1, 422946, Note_off_c, 0, 50, 63
1, 422959, Control_c, 0, 67, 41
1, 422970, Note_off_c, 0, 48, 72
1, 422974, Control_c, 0, 64, 93
1, 422989, Control_c, 0, 64, 59
1, 422997, Note_on_c, 0, 50, 85
1, 423004, Control_c, 0, 64, 0
1, 423016, Note_off_c, 0, 50, 72
1, 423018, Control_c, 0, 67, 41
1, 423093, Control_c, 0, 67, 41
1, 423128, Note_on_c, 0, 54, 74
1, 423146, Note_on_c, 0, 57, 60
1, 423154, Note_off_c, 0, 54, 68
1, 423168, Note_off_c, 0, 57, 65
1, 423189, Control_c, 0, 67, 42
1, 423218, Control_c, 0, 67, 42
1, 423248, Note_on_c, 0, 57, 75
1, 423248, Control_c, 0, 67, 43
1, 423255, Note_on_c, 0, 56, 71
1, 423258, Note_on_c, 0, 52, 66
1, 423261, Note_on_c, 0, 49, 77
1, 423272, Note_off_c, 0, 57, 65
1, 423278, Control_c, 0, 64, 66
1, 423278, Control_c, 0, 67, 44
1, 423279, Note_off_c, 0, 52, 60
1, 423281, Note_off_c, 0, 56, 64
1, 423292, Note_off_c, 0, 49, 66
1, 423292, Control_c, 0, 64, 57
1, 423307, Control_c, 0, 64, 0
1, 423322, Control_c, 0, 67, 45
1, 423337, Control_c, 0, 67, 45
1, 423391, Note_on_c, 0, 48, 70
1, 423432, Note_on_c, 0, 47, 65
1, 423448, Note_off_c, 0, 48, 64
1, 423478, Note_on_c, 0, 45, 74
1, 423485, Note_off_c, 0, 47, 60
1, 423500, Control_c, 0, 67, 45
1, 423530, Note_on_c, 0, 43, 72
1, 423530, Control_c, 0, 67, 44
1, 423534, Note_off_c, 0, 45, 63
1, 423566, Note_off_c, 0, 43, 64
1, 423589, Control_c, 0, 67, 44
1, 423592, Note_on_c, 0, 45, 78
1, 423596, Note_on_c, 0, 54, 78
1, 423604, Control_c, 0, 67, 43
1, 423605, Note_on_c, 0, 57, 66
1, 423618, Note_off_c, 0, 54, 69
1, 423618, Control_c, 0, 67, 43
1, 423621, Note_off_c, 0, 45, 68
1, 423623, Note_off_c, 0, 57, 64
1, 423663, Control_c, 0, 67, 43
1, 423678, Control_c, 0, 67, 44
1, 423692, Control_c, 0, 67, 44
1, 423722, Control_c, 0, 67, 45
1, 423727, Note_on_c, 0, 42, 81
1, 423728, Note_on_c, 0, 49, 80
1, 423735, Note_on_c, 0, 57, 60
1, 423736, Control_c, 0, 67, 45
1, 423745, Note_on_c, 0, 56, 59
1, 423751, Note_off_c, 0, 49, 69
1, 423751, Control_c, 0, 67, 46
1, 423759, Note_off_c, 0, 57, 36
1, 423768, Control_c, 0, 67, 47
1, 423769, Note_off_c, 0, 56, 60
1, 423769, Note_off_c, 0, 42, 62
1, 423782, Control_c, 0, 67, 47
1, 423841, Control_c, 0, 67, 48
1, 423856, Control_c, 0, 67, 50
1, 423871, Control_c, 0, 67, 55
1, 423873, Note_on_c, 0, 41, 65
1, 423886, Control_c, 0, 67, 60
1, 423901, Control_c, 0, 67, 63
1, 423915, Note_off_c, 0, 41, 63
1, 423915, Control_c, 0, 67, 64
1, 423916, Note_on_c, 0, 40, 69
1, 423938, Control_c, 0, 67, 67
1, 423953, Control_c, 0, 67, 71
1, 423965, Note_on_c, 0, 38, 71
1, 423968, Control_c, 0, 67, 76
1, 423972, Note_off_c, 0, 40, 59
1, 423983, Control_c, 0, 67, 81
1, 423997, Control_c, 0, 67, 85
1, 424012, Control_c, 0, 67, 88
1, 424016, Note_on_c, 0, 36, 74
1, 424025, Note_off_c, 0, 38, 64
1, 424027, Control_c, 0, 67, 90
1, 424041, Control_c, 0, 67, 91
1, 424050, Note_off_c, 0, 36, 66
1, 424071, Control_c, 0, 67, 91
1, 424287, Note_on_c, 0, 54, 52
1, 424294, Note_on_c, 0, 57, 63
1, 424326, Note_off_c, 0, 57, 65
1, 424339, Note_off_c, 0, 54, 63
1, 424426, Note_on_c, 0, 37, 63
1, 424430, Note_on_c, 0, 56, 57
1, 424435, Note_on_c, 0, 57, 42
1, 424452, Note_off_c, 0, 56, 62
1, 424460, Note_off_c, 0, 37, 61
1, 424464, Note_off_c, 0, 57, 53
1, 424591, Note_on_c, 0, 36, 52
1, 424606, Control_c, 0, 67, 92
1, 424632, Note_on_c, 0, 35, 57
1, 424632, Note_off_c, 0, 36, 62
1, 424664, Control_c, 0, 67, 92
1, 424674, Note_on_c, 0, 33, 62
1, 424675, Note_off_c, 0, 35, 59
1, 424731, Note_off_c, 0, 33, 61
1, 424736, Note_on_c, 0, 31, 57
1, 424773, Note_off_c, 0, 31, 62
1, 424805, Control_c, 0, 67, 92
1, 424864, Control_c, 0, 67, 91
1, 424879, Control_c, 0, 67, 91
1, 424894, Control_c, 0, 67, 90
1, 424909, Control_c, 0, 67, 90
1, 424953, Control_c, 0, 67, 89
1, 424968, Control_c, 0, 67, 88
1, 424982, Control_c, 0, 67, 87
1, 424997, Control_c, 0, 67, 86
1, 425012, Control_c, 0, 67, 86
1, 425072, Control_c, 0, 67, 85
1, 425087, Control_c, 0, 67, 85
1, 425146, Control_c, 0, 67, 84
1, 425161, Control_c, 0, 67, 83
1, 425176, Control_c, 0, 67, 83
1, 425220, Control_c, 0, 67, 82
1, 425235, Control_c, 0, 67, 82
1, 425264, Control_c, 0, 67, 81
1, 425279, Control_c, 0, 67, 80
1, 425309, Control_c, 0, 67, 79
1, 425353, Control_c, 0, 67, 79
1, 425369, Control_c, 0, 67, 78
1, 425384, Control_c, 0, 67, 77
1, 425399, Control_c, 0, 67, 73
1, 425407, Note_on_c, 0, 61, 61
1, 425413, Control_c, 0, 67, 68
1, 425416, Note_on_c, 0, 75, 81
1, 425428, Control_c, 0, 67, 65
1, 425444, Note_off_c, 0, 61, 63
1, 425446, Note_off_c, 0, 75, 69
1, 425450, Control_c, 0, 67, 62
1, 425465, Control_c, 0, 67, 61
1, 425480, Control_c, 0, 67, 60
1, 425495, Control_c, 0, 67, 59
1, 425510, Control_c, 0, 67, 56
1, 425525, Control_c, 0, 67, 50
1, 425540, Control_c, 0, 67, 46
1, 425555, Control_c, 0, 67, 43
1, 425558, Note_on_c, 0, 60, 79
1, 425558, Note_on_c, 0, 76, 88
1, 425569, Control_c, 0, 67, 40
1, 425584, Control_c, 0, 67, 37
1, 425599, Control_c, 0, 67, 34
1, 425602, Note_off_c, 0, 60, 62
1, 425606, Note_off_c, 0, 76, 63
1, 425610, Note_on_c, 0, 78, 88
1, 425613, Control_c, 0, 67, 31
1, 425626, Note_on_c, 0, 58, 74
1, 425628, Control_c, 0, 67, 29
1, 425643, Control_c, 0, 67, 27
1, 425658, Control_c, 0, 67, 22
1, 425671, Note_on_c, 0, 56, 75
1, 425671, Note_off_c, 0, 58, 63
1, 425672, Note_on_c, 0, 79, 90
1, 425673, Note_off_c, 0, 78, 65
1, 425673, Control_c, 0, 67, 0
1, 425707, Note_off_c, 0, 56, 60
1, 425720, Note_on_c, 0, 55, 50
1, 425737, Note_on_c, 0, 81, 87
1, 425737, Note_off_c, 0, 79, 66
1, 425745, Note_off_c, 0, 55, 57
1, 425772, Note_off_c, 0, 81, 64
1, 425811, Note_on_c, 0, 50, 100
1, 425815, Note_on_c, 0, 38, 96
1, 425817, Note_on_c, 0, 74, 106
1, 425818, Note_on_c, 0, 86, 106
1, 425820, Control_c, 0, 64, 66
1, 425831, Note_off_c, 0, 50, 71
1, 425835, Note_off_c, 0, 86, 69
1, 425835, Note_off_c, 0, 74, 70
1, 425835, Control_c, 0, 64, 119
1, 425837, Note_off_c, 0, 38, 72
1, 425865, Control_c, 0, 64, 116
1, 425880, Control_c, 0, 64, 127
1, 425984, Control_c, 0, 64, 119
1, 425999, Control_c, 0, 64, 72
1, 426011, Control_c, 0, 64, 50
1, 426026, Control_c, 0, 64, 0
1, 426026, End_track
0, 0, End_of_file
