0, 0, Header, 0, 1, 384
1, 0, Start_track
1, 0, Title_t, "Scherzo--M. Benabdallah         "
1, 0, Text_t, "2006 International Piano-e-Competition Recital Round"
1, 0, Text_t, "St. Paul, Minnesota, July 2006"
1, 0, Text_t, "http://www.piano-e-competition.com/"
1, 0, Instrument_name_t, "Yamaha Disklavier Pro Mark IV concert grand piano"
1, 0, Sequencer_specific, 39, 67, 113, 0, 1, 0, 1, 0, 83, 99, 104, 101, 114, 122, 111, 32, 32, 32, 32, 32, 32, 32, 32, 32, 77, 46, 32, 66, 101, 110, 97, 98, 100, 97, 108, 108, 97, 104, 32, 32
1, 0, Sequencer_specific, 6, 67, 113, 0, 0, 0, 69
1, 0, System_exclusive, 21, 67, 113, 126, 21, 0, 2, 2, 0, 10, 10, 12, 4, 4, 10, 14, 12, 3, 2, 15, 4, 247
1, 0, Sequencer_specific, 5, 67, 123, 12, 2, 1
1, 0, Tempo, 512820
1, 0, Time_signature, 4, 2, 24, 8
1, 0, System_exclusive, 5, 126, 127, 9, 1, 247
1, 1, System_exclusive, 8, 67, 16, 76, 0, 0, 126, 0, 247
1, 2, System_exclusive, 8, 67, 16, 76, 8, 9, 7, 1, 247
1, 3, Control_c, 0, 0, 0
1, 4, Control_c, 0, 32, 0
1, 5, Program_c, 0, 0
1, 6, Control_c, 0, 7, 100
1, 95, Control_c, 0, 67, 15
1, 184, Control_c, 0, 67, 31
1, 273, Control_c, 0, 67, 46
1, 362, Control_c, 0, 67, 63
1, 452, Control_c, 0, 67, 77
1, 541, Control_c, 0, 67, 94
1, 630, Control_c, 0, 67, 108
1, 719, Control_c, 0, 67, 127
1, 905, Note_on_c, 0, 28, 63
1, 914, Note_on_c, 0, 40, 59
1, 938, Note_off_c, 0, 28, 62
1, 943, Note_off_c, 0, 40, 63
1, 1129, Note_on_c, 0, 55, 59
1, 1186, Note_off_c, 0, 55, 58
1, 1217, Note_on_c, 0, 58, 59
1, 1230, Note_on_c, 0, 54, 41
1, 1269, Note_off_c, 0, 54, 54
1, 1302, Note_on_c, 0, 47, 61
1, 1307, Note_off_c, 0, 58, 63
1, 1311, Note_on_c, 0, 55, 64
1, 1323, Note_on_c, 0, 59, 52
1, 1333, Note_off_c, 0, 47, 65
1, 1543, Note_on_c, 0, 52, 62
1, 1546, Note_on_c, 0, 40, 51
1, 1568, Note_off_c, 0, 52, 63
1, 1574, Note_off_c, 0, 40, 53
1, 1661, Note_off_c, 0, 55, 47
1, 1731, Note_off_c, 0, 59, 52
1, 1770, Note_on_c, 0, 55, 49
1, 1817, Note_off_c, 0, 55, 51
1, 1850, Note_on_c, 0, 54, 63
1, 1940, Note_on_c, 0, 52, 67
1, 1943, Note_on_c, 0, 35, 58
1, 1955, Note_off_c, 0, 54, 57
1, 1970, Note_off_c, 0, 35, 60
1, 2000, Note_off_c, 0, 52, 61
1, 2023, Note_on_c, 0, 47, 59
1, 2068, Note_off_c, 0, 47, 62
1, 2115, Note_on_c, 0, 28, 73
1, 2115, Note_on_c, 0, 52, 69
1, 2119, Note_on_c, 0, 40, 67
1, 2142, Note_off_c, 0, 28, 63
1, 2146, Note_off_c, 0, 40, 62
1, 2181, Note_off_c, 0, 52, 61
1, 2208, Note_on_c, 0, 54, 72
1, 2250, Note_off_c, 0, 54, 61
1, 2298, Note_on_c, 0, 55, 71
1, 2361, Note_off_c, 0, 55, 57
1, 2383, Note_on_c, 0, 58, 64
1, 2384, Note_on_c, 0, 54, 56
1, 2426, Note_off_c, 0, 54, 61
1, 2470, Note_on_c, 0, 47, 65
1, 2474, Note_off_c, 0, 58, 63
1, 2480, Note_on_c, 0, 55, 61
1, 2485, Note_on_c, 0, 59, 64
1, 2503, Note_off_c, 0, 47, 68
1, 2695, Note_on_c, 0, 52, 64
1, 2698, Note_on_c, 0, 40, 61
1, 2725, Note_off_c, 0, 52, 64
1, 2728, Note_off_c, 0, 40, 63
1, 2829, Note_off_c, 0, 55, 48
1, 2887, Note_off_c, 0, 59, 62
1, 2907, Note_on_c, 0, 55, 56
1, 2982, Note_off_c, 0, 55, 62
1, 2990, Note_on_c, 0, 54, 63
1, 3073, Control_c, 0, 64, 36
1, 3085, Note_on_c, 0, 52, 70
1, 3088, Control_c, 0, 64, 43
1, 3091, Note_on_c, 0, 35, 68
1, 3091, Note_off_c, 0, 54, 62
1, 3102, Control_c, 0, 64, 50
1, 3117, Control_c, 0, 64, 54
1, 3122, Note_off_c, 0, 35, 65
1, 3147, Note_off_c, 0, 52, 61
1, 3147, Control_c, 0, 64, 51
1, 3163, Control_c, 0, 64, 47
1, 3168, Note_on_c, 0, 47, 63
1, 3178, Control_c, 0, 64, 0
1, 3223, Note_off_c, 0, 47, 59
1, 3259, Note_on_c, 0, 52, 74
1, 3264, Note_on_c, 0, 40, 76
1, 3265, Note_on_c, 0, 28, 75
1, 3286, Note_off_c, 0, 40, 66
1, 3289, Note_off_c, 0, 28, 64
1, 3326, Note_off_c, 0, 52, 62
1, 3353, Note_on_c, 0, 54, 75
1, 3402, Note_off_c, 0, 54, 61
1, 3439, Note_on_c, 0, 55, 77
1, 3498, Note_off_c, 0, 55, 62
1, 3528, Note_on_c, 0, 58, 68
1, 3532, Note_on_c, 0, 54, 60
1, 3568, Note_off_c, 0, 54, 64
1, 3610, Note_off_c, 0, 58, 63
1, 3617, Note_on_c, 0, 59, 70
1, 3624, Note_on_c, 0, 55, 59
1, 3630, Note_on_c, 0, 47, 59
1, 3660, Note_off_c, 0, 47, 65
1, 3792, Control_c, 0, 67, 123
1, 3806, Control_c, 0, 67, 119
1, 3829, Note_on_c, 0, 52, 68
1, 3833, Note_on_c, 0, 40, 66
1, 3851, Control_c, 0, 64, 40
1, 3855, Note_off_c, 0, 52, 65
1, 3856, Note_off_c, 0, 55, 50
1, 3863, Note_off_c, 0, 40, 64
1, 3865, Control_c, 0, 64, 49
1, 3865, Control_c, 0, 67, 117
1, 3880, Control_c, 0, 64, 49
1, 3880, Control_c, 0, 67, 115
1, 3895, Control_c, 0, 64, 51
1, 3896, Note_off_c, 0, 59, 62
1, 3910, Note_on_c, 0, 58, 70
1, 3910, Control_c, 0, 64, 55
1, 3925, Control_c, 0, 64, 59
1, 3940, Control_c, 0, 64, 61
1, 3940, Control_c, 0, 67, 113
1, 3955, Control_c, 0, 67, 110
1, 3970, Control_c, 0, 67, 102
1, 3977, Note_off_c, 0, 58, 63
1, 3985, Control_c, 0, 64, 61
1, 3985, Control_c, 0, 67, 95
1, 4000, Control_c, 0, 67, 93
1, 4005, Note_on_c, 0, 59, 70
1, 4029, Control_c, 0, 67, 89
1, 4044, Note_off_c, 0, 59, 60
1, 4044, Control_c, 0, 67, 80
1, 4059, Control_c, 0, 67, 66
1, 4074, Control_c, 0, 67, 54
1, 4089, Control_c, 0, 67, 51
1, 4090, Note_on_c, 0, 61, 73
1, 4119, Control_c, 0, 67, 50
1, 4134, Control_c, 0, 67, 47
1, 4140, Note_off_c, 0, 61, 59
1, 4148, Control_c, 0, 67, 42
1, 4163, Control_c, 0, 64, 62
1, 4163, Control_c, 0, 67, 35
1, 4167, Note_on_c, 0, 45, 68
1, 4178, Control_c, 0, 64, 63
1, 4178, Control_c, 0, 67, 33
1, 4185, Note_on_c, 0, 62, 69
1, 4193, Note_off_c, 0, 45, 66
1, 4193, Control_c, 0, 64, 64
1, 4193, Control_c, 0, 67, 32
1, 4208, Control_c, 0, 64, 65
1, 4223, Control_c, 0, 67, 27
1, 4237, Control_c, 0, 67, 21
1, 4249, Note_off_c, 0, 62, 61
1, 4252, Control_c, 0, 67, 0
1, 4258, Note_on_c, 0, 64, 74
1, 4267, Control_c, 0, 64, 64
1, 4281, Control_c, 0, 64, 63
1, 4296, Control_c, 0, 64, 59
1, 4311, Control_c, 0, 64, 50
1, 4326, Control_c, 0, 64, 0
1, 4345, Note_off_c, 0, 64, 54
1, 4354, Note_on_c, 0, 38, 68
1, 4354, Note_on_c, 0, 50, 72
1, 4354, Note_on_c, 0, 66, 75
1, 4366, Note_on_c, 0, 62, 51
1, 4370, Control_c, 0, 67, 20
1, 4378, Note_off_c, 0, 50, 65
1, 4381, Note_off_c, 0, 38, 65
1, 4393, Note_off_c, 0, 62, 62
1, 4421, Note_off_c, 0, 66, 57
1, 4429, Control_c, 0, 67, 24
1, 4437, Note_on_c, 0, 67, 73
1, 4451, Note_on_c, 0, 64, 62
1, 4459, Control_c, 0, 67, 26
1, 4481, Note_off_c, 0, 64, 66
1, 4530, Note_off_c, 0, 67, 64
1, 4533, Note_on_c, 0, 66, 79
1, 4536, Note_on_c, 0, 69, 66
1, 4724, Note_on_c, 0, 61, 81
1, 4793, Control_c, 0, 67, 30
1, 4882, Control_c, 0, 67, 32
1, 4912, Control_c, 0, 67, 29
1, 4956, Note_off_c, 0, 61, 60
1, 4958, Note_on_c, 0, 60, 69
1, 4986, Control_c, 0, 64, 49
1, 5001, Control_c, 0, 64, 62
1, 5005, Note_off_c, 0, 69, 59
1, 5016, Control_c, 0, 64, 66
1, 5016, Control_c, 0, 67, 27
1, 5030, Note_off_c, 0, 66, 61
1, 5030, Control_c, 0, 64, 69
1, 5040, Note_on_c, 0, 62, 71
1, 5045, Control_c, 0, 64, 72
1, 5060, Control_c, 0, 64, 77
1, 5075, Control_c, 0, 64, 84
1, 5078, Note_off_c, 0, 60, 62
1, 5090, Control_c, 0, 64, 93
1, 5090, Control_c, 0, 67, 23
1, 5104, Control_c, 0, 64, 105
1, 5104, Control_c, 0, 67, 21
1, 5107, Note_off_c, 0, 62, 60
1, 5117, Note_on_c, 0, 64, 81
1, 5119, Control_c, 0, 64, 124
1, 5134, Control_c, 0, 64, 127
1, 5178, Control_c, 0, 67, 0
1, 5200, Note_on_c, 0, 66, 83
1, 5204, Note_off_c, 0, 64, 61
1, 5258, Note_off_c, 0, 66, 62
1, 5290, Note_on_c, 0, 67, 86
1, 5290, Note_on_c, 0, 50, 77
1, 5304, Control_c, 0, 64, 122
1, 5315, Note_off_c, 0, 50, 66
1, 5319, Control_c, 0, 64, 70
1, 5334, Control_c, 0, 64, 0
1, 5367, Note_off_c, 0, 67, 63
1, 5373, Note_on_c, 0, 69, 86
1, 5466, Note_on_c, 0, 43, 68
1, 5472, Note_on_c, 0, 31, 66
1, 5472, Note_off_c, 0, 69, 61
1, 5474, Note_on_c, 0, 71, 73
1, 5485, Note_on_c, 0, 67, 63
1, 5496, Note_off_c, 0, 43, 65
1, 5502, Note_off_c, 0, 31, 63
1, 5513, Note_off_c, 0, 67, 66
1, 5552, Note_off_c, 0, 71, 59
1, 5554, Note_on_c, 0, 73, 81
1, 5574, Note_on_c, 0, 70, 54
1, 5587, Control_c, 0, 67, 20
1, 5601, Note_off_c, 0, 70, 65
1, 5601, Control_c, 0, 67, 22
1, 5624, Note_off_c, 0, 73, 58
1, 5648, Note_on_c, 0, 74, 63
1, 5652, Note_on_c, 0, 71, 62
1, 5690, Control_c, 0, 67, 24
1, 5764, Control_c, 0, 67, 26
1, 5794, Control_c, 0, 67, 30
1, 5852, Note_on_c, 0, 61, 75
1, 5867, Control_c, 0, 67, 32
1, 5882, Control_c, 0, 67, 33
1, 5971, Control_c, 0, 64, 44
1, 5986, Control_c, 0, 64, 54
1, 5986, Control_c, 0, 67, 32
1, 6000, Control_c, 0, 64, 59
1, 6000, Control_c, 0, 67, 32
1, 6015, Control_c, 0, 64, 62
1, 6038, Control_c, 0, 64, 65
1, 6052, Control_c, 0, 64, 69
1, 6052, Control_c, 0, 67, 32
1, 6067, Note_off_c, 0, 61, 62
1, 6067, Control_c, 0, 64, 70
1, 6070, Note_on_c, 0, 60, 77
1, 6082, Control_c, 0, 64, 68
1, 6083, Note_off_c, 0, 71, 62
1, 6097, Control_c, 0, 64, 63
1, 6097, Control_c, 0, 67, 30
1, 6104, Note_off_c, 0, 74, 62
1, 6112, Control_c, 0, 64, 58
1, 6126, Control_c, 0, 64, 60
1, 6141, Control_c, 0, 64, 65
1, 6149, Note_on_c, 0, 62, 68
1, 6156, Control_c, 0, 64, 70
1, 6171, Control_c, 0, 64, 76
1, 6185, Control_c, 0, 64, 81
1, 6185, Control_c, 0, 67, 27
1, 6189, Note_off_c, 0, 60, 62
1, 6200, Control_c, 0, 64, 85
1, 6210, Note_off_c, 0, 62, 61
1, 6215, Control_c, 0, 64, 91
1, 6230, Control_c, 0, 64, 102
1, 6237, Note_on_c, 0, 64, 83
1, 6245, Control_c, 0, 64, 112
1, 6259, Control_c, 0, 64, 127
1, 6259, Control_c, 0, 67, 24
1, 6274, Control_c, 0, 67, 22
1, 6319, Note_off_c, 0, 64, 61
1, 6329, Note_on_c, 0, 65, 73
1, 6357, Note_off_c, 0, 65, 66
1, 6364, Control_c, 0, 67, 20
1, 6396, Note_on_c, 0, 50, 74
1, 6403, Note_on_c, 0, 67, 83
1, 6420, Note_off_c, 0, 50, 66
1, 6423, Control_c, 0, 67, 0
1, 6477, Note_on_c, 0, 69, 83
1, 6478, Note_off_c, 0, 67, 62
1, 6572, Control_c, 0, 64, 78
1, 6575, Note_on_c, 0, 43, 75
1, 6578, Note_on_c, 0, 67, 78
1, 6579, Note_on_c, 0, 31, 76
1, 6580, Note_on_c, 0, 71, 78
1, 6581, Note_off_c, 0, 69, 62
1, 6587, Control_c, 0, 64, 53
1, 6601, Control_c, 0, 64, 0
1, 6603, Note_off_c, 0, 31, 61
1, 6605, Note_off_c, 0, 43, 65
1, 6611, Note_off_c, 0, 67, 65
1, 6630, Note_off_c, 0, 71, 62
1, 6646, Control_c, 0, 67, 20
1, 6653, Note_on_c, 0, 73, 80
1, 6671, Note_off_c, 0, 73, 71
1, 6680, Note_on_c, 0, 70, 48
1, 6704, Note_off_c, 0, 70, 57
1, 6739, Note_on_c, 0, 74, 82
1, 6743, Note_on_c, 0, 71, 72
1, 6775, Note_off_c, 0, 71, 70
1, 6785, Note_off_c, 0, 74, 60
1, 6787, Control_c, 0, 67, 22
1, 6828, Note_on_c, 0, 76, 83
1, 6837, Note_on_c, 0, 72, 63
1, 6846, Control_c, 0, 67, 24
1, 6858, Note_off_c, 0, 72, 66
1, 6873, Note_off_c, 0, 76, 55
1, 6920, Control_c, 0, 67, 26
1, 6924, Note_on_c, 0, 74, 72
1, 6935, Control_c, 0, 67, 28
1, 6941, Note_on_c, 0, 71, 53
1, 6949, Note_on_c, 0, 61, 62
1, 7023, Control_c, 0, 67, 30
1, 7068, Control_c, 0, 64, 44
1, 7073, Note_off_c, 0, 71, 61
1, 7082, Control_c, 0, 64, 58
1, 7097, Control_c, 0, 64, 65
1, 7112, Control_c, 0, 64, 69
1, 7127, Control_c, 0, 64, 71
1, 7143, Control_c, 0, 64, 73
1, 7151, Note_off_c, 0, 61, 61
1, 7158, Control_c, 0, 64, 77
1, 7158, Control_c, 0, 67, 27
1, 7159, Note_on_c, 0, 60, 75
1, 7172, Control_c, 0, 64, 83
1, 7187, Control_c, 0, 64, 90
1, 7198, Note_off_c, 0, 74, 56
1, 7202, Control_c, 0, 64, 97
1, 7216, Control_c, 0, 64, 106
1, 7216, Control_c, 0, 67, 24
1, 7231, Control_c, 0, 64, 127
1, 7231, Control_c, 0, 67, 21
1, 7237, Note_on_c, 0, 62, 77
1, 7246, Control_c, 0, 67, 19
1, 7261, Control_c, 0, 67, 0
1, 7276, Note_off_c, 0, 60, 60
1, 7287, Note_off_c, 0, 62, 57
1, 7317, Note_on_c, 0, 64, 81
1, 7389, Note_off_c, 0, 64, 61
1, 7395, Note_on_c, 0, 66, 83
1, 7449, Note_off_c, 0, 66, 61
1, 7469, Note_on_c, 0, 50, 76
1, 7475, Note_on_c, 0, 67, 84
1, 7491, Note_off_c, 0, 50, 66
1, 7555, Note_off_c, 0, 67, 61
1, 7562, Note_on_c, 0, 69, 87
1, 7639, Control_c, 0, 64, 115
1, 7653, Note_on_c, 0, 43, 79
1, 7654, Control_c, 0, 64, 61
1, 7656, Note_on_c, 0, 71, 83
1, 7660, Note_off_c, 0, 69, 61
1, 7663, Note_on_c, 0, 67, 71
1, 7669, Control_c, 0, 64, 0
1, 7672, Note_on_c, 0, 31, 53
1, 7678, Note_off_c, 0, 43, 67
1, 7680, Note_on_c, 0, 29, 43
1, 7680, Note_off_c, 0, 29, 127
1, 7690, Note_off_c, 0, 67, 65
1, 7702, Note_off_c, 0, 71, 62
1, 7706, Note_off_c, 0, 31, 54
1, 7736, Note_on_c, 0, 73, 80
1, 7750, Note_on_c, 0, 70, 72
1, 7779, Note_off_c, 0, 70, 61
1, 7819, Note_on_c, 0, 74, 81
1, 7829, Note_on_c, 0, 71, 79
1, 7835, Note_off_c, 0, 73, 58
1, 7876, Control_c, 0, 67, 25
1, 7905, Control_c, 0, 67, 22
1, 7920, Control_c, 0, 67, 0
1, 8037, Note_on_c, 0, 66, 96
1, 8090, Note_off_c, 0, 71, 60
1, 8108, Note_on_c, 0, 70, 75
1, 8111, Note_on_c, 0, 73, 76
1, 8115, Note_off_c, 0, 74, 64
1, 8164, Note_off_c, 0, 70, 65
1, 8200, Note_off_c, 0, 66, 62
1, 8200, Note_on_c, 0, 65, 88
1, 8203, Note_on_c, 0, 71, 86
1, 8206, Note_on_c, 0, 74, 88
1, 8212, Note_off_c, 0, 73, 61
1, 8234, Note_off_c, 0, 65, 68
1, 8414, Note_on_c, 0, 62, 77
1, 8432, Note_off_c, 0, 71, 52
1, 8470, Note_off_c, 0, 62, 53
1, 8487, Note_on_c, 0, 70, 83
1, 8501, Note_on_c, 0, 73, 86
1, 8506, Note_off_c, 0, 74, 62
1, 8528, Note_off_c, 0, 70, 62
1, 8583, Note_on_c, 0, 74, 86
1, 8585, Note_on_c, 0, 59, 89
1, 8590, Note_on_c, 0, 71, 82
1, 8605, Note_off_c, 0, 73, 56
1, 8614, Note_off_c, 0, 59, 67
1, 8630, Note_off_c, 0, 71, 64
1, 8660, Note_on_c, 0, 76, 93
1, 8669, Note_on_c, 0, 73, 66
1, 8686, Note_off_c, 0, 74, 64
1, 8695, Note_off_c, 0, 73, 67
1, 8701, Note_off_c, 0, 76, 67
1, 8748, Note_on_c, 0, 42, 79
1, 8754, Note_on_c, 0, 54, 65
1, 8754, Note_off_c, 0, 54, 127
1, 8762, Note_on_c, 0, 53, 72
1, 8770, Note_on_c, 0, 74, 86
1, 8775, Control_c, 0, 64, 46
1, 8778, Note_on_c, 0, 52, 52
1, 8778, Note_off_c, 0, 52, 127
1, 8778, Note_off_c, 0, 42, 66
1, 8782, Note_off_c, 0, 53, 65
1, 8787, Note_on_c, 0, 78, 77
1, 8790, Control_c, 0, 64, 56
1, 8804, Control_c, 0, 64, 73
1, 8814, Note_off_c, 0, 74, 65
1, 8819, Control_c, 0, 64, 127
1, 8823, Note_on_c, 0, 79, 59
1, 8835, Note_on_c, 0, 80, 92
1, 8845, Note_off_c, 0, 79, 62
1, 8863, Note_off_c, 0, 78, 50
1, 8865, Note_on_c, 0, 82, 75
1, 8900, Note_off_c, 0, 80, 61
1, 8902, Note_on_c, 0, 83, 82
1, 8918, Note_off_c, 0, 82, 63
1, 8950, Note_on_c, 0, 67, 75
1, 8951, Note_on_c, 0, 73, 85
1, 8951, Note_on_c, 0, 77, 78
1, 8961, Note_off_c, 0, 83, 66
1, 8967, Control_c, 0, 64, 111
1, 8973, Note_off_c, 0, 67, 70
1, 8975, Note_off_c, 0, 73, 67
1, 8978, Note_off_c, 0, 77, 66
1, 8982, Control_c, 0, 64, 58
1, 8996, Control_c, 0, 64, 0
1, 9160, Note_on_c, 0, 66, 72
1, 9164, Note_on_c, 0, 72, 74
1, 9177, Note_on_c, 0, 77, 46
1, 9185, Note_on_c, 0, 76, 57
1, 9185, Note_off_c, 0, 66, 66
1, 9186, Note_off_c, 0, 72, 70
1, 9201, Note_off_c, 0, 77, 55
1, 9207, Note_off_c, 0, 76, 59
1, 9324, Note_on_c, 0, 54, 70
1, 9353, Note_on_c, 0, 75, 79
1, 9359, Note_on_c, 0, 71, 65
1, 9374, Control_c, 0, 64, 72
1, 9387, Note_off_c, 0, 71, 66
1, 9389, Control_c, 0, 64, 96
1, 9396, Note_off_c, 0, 75, 63
1, 9404, Control_c, 0, 64, 108
1, 9405, Note_on_c, 0, 76, 77
1, 9417, Note_on_c, 0, 78, 84
1, 9458, Note_off_c, 0, 76, 59
1, 9463, Control_c, 0, 64, 89
1, 9478, Control_c, 0, 64, 65
1, 9484, Note_on_c, 0, 79, 72
1, 9493, Control_c, 0, 64, 0
1, 9516, Note_off_c, 0, 78, 63
1, 9529, Note_on_c, 0, 64, 68
1, 9532, Note_on_c, 0, 74, 74
1, 9532, Note_on_c, 0, 70, 72
1, 9535, Note_off_c, 0, 79, 67
1, 9556, Note_off_c, 0, 74, 68
1, 9558, Note_off_c, 0, 70, 70
1, 9565, Note_off_c, 0, 64, 62
1, 9728, Note_on_c, 0, 63, 69
1, 9733, Note_on_c, 0, 73, 76
1, 9740, Note_off_c, 0, 54, 63
1, 9741, Note_on_c, 0, 69, 66
1, 9754, Note_off_c, 0, 63, 68
1, 9760, Note_off_c, 0, 73, 66
1, 9774, Note_off_c, 0, 69, 68
1, 9862, Note_on_c, 0, 76, 38
1, 9886, Note_off_c, 0, 76, 52
1, 9896, Note_on_c, 0, 54, 73
1, 9908, Note_on_c, 0, 62, 73
1, 9920, Note_on_c, 0, 68, 73
1, 9940, Note_on_c, 0, 72, 70
1, 9946, Control_c, 0, 64, 51
1, 9955, Note_off_c, 0, 68, 64
1, 9961, Control_c, 0, 64, 57
1, 9975, Control_c, 0, 64, 60
1, 9986, Note_on_c, 0, 74, 80
1, 9990, Control_c, 0, 64, 66
1, 10005, Note_on_c, 0, 76, 72
1, 10005, Control_c, 0, 64, 81
1, 10013, Note_off_c, 0, 72, 63
1, 10019, Control_c, 0, 64, 127
1, 10057, Note_on_c, 0, 77, 78
1, 10058, Note_off_c, 0, 74, 61
1, 10079, Control_c, 0, 64, 107
1, 10093, Control_c, 0, 64, 62
1, 10096, Note_on_c, 0, 71, 78
1, 10099, Note_on_c, 0, 67, 70
1, 10100, Note_on_c, 0, 61, 73
1, 10105, Note_off_c, 0, 76, 63
1, 10108, Control_c, 0, 64, 0
1, 10111, Note_off_c, 0, 62, 60
1, 10112, Note_off_c, 0, 77, 64
1, 10122, Note_off_c, 0, 67, 70
1, 10122, Note_off_c, 0, 54, 63
1, 10123, Note_off_c, 0, 71, 66
1, 10125, Note_off_c, 0, 61, 66
1, 10289, Note_on_c, 0, 60, 76
1, 10290, Note_on_c, 0, 54, 72
1, 10304, Note_on_c, 0, 70, 81
1, 10307, Note_on_c, 0, 66, 58
1, 10316, Control_c, 0, 64, 51
1, 10328, Note_off_c, 0, 66, 63
1, 10331, Control_c, 0, 64, 69
1, 10346, Control_c, 0, 64, 70
1, 10358, Note_on_c, 0, 72, 76
1, 10368, Note_on_c, 0, 74, 77
1, 10373, Note_off_c, 0, 70, 65
1, 10376, Control_c, 0, 64, 71
1, 10391, Control_c, 0, 64, 73
1, 10406, Control_c, 0, 64, 76
1, 10420, Control_c, 0, 64, 72
1, 10429, Note_on_c, 0, 76, 84
1, 10429, Note_off_c, 0, 72, 60
1, 10435, Control_c, 0, 64, 54
1, 10450, Control_c, 0, 64, 0
1, 10451, Note_on_c, 0, 59, 71
1, 10456, Note_on_c, 0, 69, 85
1, 10457, Note_on_c, 0, 65, 84
1, 10465, Note_off_c, 0, 74, 62
1, 10466, Note_off_c, 0, 60, 62
1, 10474, Note_off_c, 0, 76, 66
1, 10474, Note_off_c, 0, 59, 70
1, 10477, Note_off_c, 0, 54, 64
1, 10480, Note_off_c, 0, 65, 69
1, 10484, Note_off_c, 0, 69, 67
1, 10644, Note_on_c, 0, 57, 89
1, 10650, Note_on_c, 0, 67, 82
1, 10654, Note_on_c, 0, 64, 72
1, 10655, Note_on_c, 0, 54, 69
1, 10665, Control_c, 0, 64, 68
1, 10677, Note_off_c, 0, 67, 62
1, 10680, Control_c, 0, 64, 75
1, 10689, Note_on_c, 0, 69, 65
1, 10695, Control_c, 0, 64, 75
1, 10707, Note_on_c, 0, 55, 5
1, 10710, Note_on_c, 0, 70, 67
1, 10724, Control_c, 0, 64, 77
1, 10731, Note_on_c, 0, 71, 68
1, 10739, Note_off_c, 0, 70, 49
1, 10739, Control_c, 0, 64, 82
1, 10739, Note_off_c, 0, 55, 0
1, 10754, Control_c, 0, 64, 91
1, 10761, Note_off_c, 0, 69, 60
1, 10762, Poly_aftertouch_c, 0, 55, 0
1, 10768, Control_c, 0, 64, 127
1, 10786, Note_off_c, 0, 64, 61
1, 10790, Note_on_c, 0, 73, 78
1, 10802, Note_off_c, 0, 57, 60
1, 10816, Note_on_c, 0, 58, 94
1, 10816, Note_off_c, 0, 71, 63
1, 10820, Note_on_c, 0, 66, 90
1, 10831, Note_off_c, 0, 54, 60
1, 10834, Note_off_c, 0, 73, 62
1, 10842, Note_off_c, 0, 66, 68
1, 10844, Note_off_c, 0, 58, 67
1, 10857, Control_c, 0, 64, 96
1, 10872, Control_c, 0, 64, 60
1, 10887, Control_c, 0, 64, 0
1, 11004, Note_on_c, 0, 59, 87
1, 11008, Note_on_c, 0, 62, 86
1, 11009, Note_on_c, 0, 47, 79
1, 11012, Note_on_c, 0, 71, 82
1, 11023, Note_off_c, 0, 59, 71
1, 11028, Note_off_c, 0, 62, 71
1, 11030, Note_off_c, 0, 71, 73
1, 11032, Note_off_c, 0, 47, 67
1, 11199, Note_on_c, 0, 54, 70
1, 11199, Note_on_c, 0, 66, 81
1, 11222, Note_off_c, 0, 66, 69
1, 11238, Note_off_c, 0, 54, 61
1, 11392, Note_on_c, 0, 59, 70
1, 11394, Note_on_c, 0, 71, 83
1, 11416, Note_off_c, 0, 59, 69
1, 11429, Note_off_c, 0, 71, 65
1, 11586, Note_on_c, 0, 54, 89
1, 11591, Control_c, 0, 64, 68
1, 11592, Note_on_c, 0, 42, 81
1, 11597, Note_on_c, 0, 66, 99
1, 11606, Note_off_c, 0, 54, 72
1, 11606, Control_c, 0, 64, 127
1, 11617, Note_off_c, 0, 66, 69
1, 11619, Note_off_c, 0, 42, 65
1, 11793, Note_on_c, 0, 49, 77
1, 11806, Note_on_c, 0, 37, 51
1, 11819, Note_off_c, 0, 49, 66
1, 11840, Note_off_c, 0, 37, 53
1, 11981, Note_on_c, 0, 54, 84
1, 11982, Note_on_c, 0, 42, 84
1, 11982, Note_on_c, 0, 77, 82
1, 12011, Note_off_c, 0, 42, 66
1, 12011, Note_off_c, 0, 54, 69
1, 12018, Note_on_c, 0, 78, 84
1, 12023, Note_off_c, 0, 77, 63
1, 12072, Note_off_c, 0, 78, 66
1, 12072, Note_on_c, 0, 80, 81
1, 12114, Note_on_c, 0, 82, 71
1, 12136, Note_off_c, 0, 80, 62
1, 12147, Control_c, 0, 67, 22
1, 12152, Note_on_c, 0, 47, 94
1, 12158, Note_on_c, 0, 35, 99
1, 12158, Note_on_c, 0, 71, 98
1, 12162, Note_on_c, 0, 83, 96
1, 12162, Control_c, 0, 67, 0
1, 12177, Note_off_c, 0, 82, 66
1, 12177, Note_off_c, 0, 83, 74
1, 12177, Control_c, 0, 64, 82
1, 12179, Note_off_c, 0, 47, 67
1, 12182, Note_off_c, 0, 35, 70
1, 12183, Note_off_c, 0, 71, 69
1, 12192, Control_c, 0, 64, 50
1, 12207, Control_c, 0, 64, 0
1, 12359, Note_on_c, 0, 54, 71
1, 12364, Note_on_c, 0, 66, 77
1, 12386, Note_off_c, 0, 66, 69
1, 12388, Note_off_c, 0, 54, 66
1, 12540, Note_on_c, 0, 71, 85
1, 12544, Note_on_c, 0, 59, 76
1, 12567, Note_off_c, 0, 59, 70
1, 12576, Note_off_c, 0, 71, 66
1, 12732, Note_on_c, 0, 54, 91
1, 12739, Note_on_c, 0, 42, 81
1, 12740, Note_on_c, 0, 66, 94
1, 12741, Control_c, 0, 64, 84
1, 12752, Note_off_c, 0, 54, 73
1, 12756, Control_c, 0, 64, 127
1, 12766, Note_off_c, 0, 66, 67
1, 12769, Note_off_c, 0, 42, 65
1, 12939, Note_on_c, 0, 49, 87
1, 12954, Note_on_c, 0, 37, 55
1, 12960, Note_off_c, 0, 49, 70
1, 12986, Note_off_c, 0, 37, 56
1, 13115, Note_on_c, 0, 54, 97
1, 13118, Note_on_c, 0, 42, 96
1, 13122, Note_on_c, 0, 77, 88
1, 13139, Note_off_c, 0, 54, 64
1, 13145, Note_off_c, 0, 42, 66
1, 13148, Note_on_c, 0, 78, 83
1, 13159, Note_off_c, 0, 77, 64
1, 13215, Note_on_c, 0, 80, 76
1, 13217, Note_off_c, 0, 78, 64
1, 13249, Note_on_c, 0, 82, 72
1, 13272, Note_off_c, 0, 80, 63
1, 13295, Note_on_c, 0, 47, 91
1, 13295, Note_on_c, 0, 71, 99
1, 13298, Note_on_c, 0, 35, 97
1, 13303, Note_off_c, 0, 82, 66
1, 13305, Note_on_c, 0, 83, 76
1, 13311, Control_c, 0, 64, 93
1, 13315, Note_off_c, 0, 47, 70
1, 13318, Note_off_c, 0, 71, 69
1, 13318, Note_off_c, 0, 83, 69
1, 13320, Note_on_c, 0, 81, 55
1, 13321, Note_off_c, 0, 35, 70
1, 13326, Control_c, 0, 64, 59
1, 13342, Control_c, 0, 64, 0
1, 13343, Note_off_c, 0, 81, 37
1, 13416, Control_c, 0, 67, 23
1, 13475, Control_c, 0, 67, 27
1, 13489, Control_c, 0, 67, 40
1, 13512, Control_c, 0, 67, 62
1, 13525, Note_on_c, 0, 30, 55
1, 13527, Control_c, 0, 67, 80
1, 13542, Control_c, 0, 67, 82
1, 13557, Control_c, 0, 67, 80
1, 13565, Note_off_c, 0, 30, 57
1, 13572, Control_c, 0, 67, 80
1, 13601, Control_c, 0, 67, 82
1, 13616, Control_c, 0, 67, 82
1, 13631, Control_c, 0, 67, 81
1, 13646, Control_c, 0, 67, 79
1, 13691, Control_c, 0, 67, 80
1, 13695, Note_on_c, 0, 35, 85
1, 13695, Note_on_c, 0, 47, 86
1, 13705, Control_c, 0, 67, 81
1, 13723, Note_off_c, 0, 35, 68
1, 13728, Note_off_c, 0, 47, 65
1, 13735, Control_c, 0, 67, 80
1, 13750, Control_c, 0, 67, 80
1, 13809, Control_c, 0, 67, 79
1, 13824, Control_c, 0, 67, 78
1, 13839, Control_c, 0, 67, 77
1, 13868, Control_c, 0, 67, 76
1, 13883, Control_c, 0, 67, 76
1, 13884, Note_on_c, 0, 54, 69
1, 13898, Control_c, 0, 67, 75
1, 13911, Note_on_c, 0, 42, 23
1, 13912, Control_c, 0, 67, 74
1, 13915, Note_off_c, 0, 54, 67
1, 13927, Control_c, 0, 67, 74
1, 13942, Control_c, 0, 67, 73
1, 13953, Note_off_c, 0, 42, 49
1, 13957, Control_c, 0, 67, 73
1, 13972, Control_c, 0, 67, 71
1, 13986, Control_c, 0, 67, 67
1, 14001, Control_c, 0, 67, 56
1, 14016, Control_c, 0, 67, 37
1, 14031, Control_c, 0, 67, 0
1, 14066, Note_on_c, 0, 47, 86
1, 14069, Note_on_c, 0, 59, 84
1, 14069, Note_on_c, 0, 35, 88
1, 14098, Note_off_c, 0, 35, 68
1, 14100, Note_off_c, 0, 47, 63
1, 14109, Note_off_c, 0, 59, 67
1, 14269, Note_on_c, 0, 54, 62
1, 14272, Note_on_c, 0, 42, 60
1, 14303, Note_off_c, 0, 54, 65
1, 14309, Note_off_c, 0, 42, 65
1, 14454, Note_on_c, 0, 47, 88
1, 14454, Note_on_c, 0, 59, 89
1, 14457, Note_on_c, 0, 35, 86
1, 14484, Note_off_c, 0, 35, 68
1, 14491, Note_off_c, 0, 47, 65
1, 14495, Note_off_c, 0, 59, 64
1, 14644, Note_on_c, 0, 54, 69
1, 14647, Note_on_c, 0, 66, 71
1, 14679, Note_off_c, 0, 54, 63
1, 14684, Note_off_c, 0, 66, 61
1, 14823, Control_c, 0, 67, 19
1, 14832, Note_on_c, 0, 59, 84
1, 14833, Note_on_c, 0, 71, 98
1, 14835, Note_on_c, 0, 47, 83
1, 14853, Control_c, 0, 67, 21
1, 14864, Note_off_c, 0, 47, 68
1, 14866, Note_off_c, 0, 59, 64
1, 14876, Note_off_c, 0, 71, 69
1, 14927, Control_c, 0, 67, 23
1, 14972, Control_c, 0, 67, 25
1, 15027, Note_on_c, 0, 54, 67
1, 15029, Note_on_c, 0, 66, 71
1, 15062, Note_off_c, 0, 54, 63
1, 15065, Note_off_c, 0, 66, 63
1, 15214, Note_on_c, 0, 47, 79
1, 15214, Note_on_c, 0, 71, 95
1, 15214, Note_on_c, 0, 59, 84
1, 15232, Control_c, 0, 67, 29
1, 15241, Note_off_c, 0, 47, 67
1, 15247, Control_c, 0, 67, 33
1, 15251, Note_off_c, 0, 59, 63
1, 15254, Note_off_c, 0, 71, 65
1, 15261, Control_c, 0, 67, 39
1, 15276, Control_c, 0, 67, 44
1, 15291, Control_c, 0, 67, 48
1, 15306, Control_c, 0, 67, 52
1, 15321, Control_c, 0, 67, 53
1, 15336, Control_c, 0, 67, 54
1, 15380, Control_c, 0, 67, 54
1, 15425, Note_on_c, 0, 66, 71
1, 15431, Note_on_c, 0, 78, 71
1, 15439, Control_c, 0, 67, 55
1, 15449, Note_off_c, 0, 78, 66
1, 15454, Control_c, 0, 67, 57
1, 15469, Control_c, 0, 67, 63
1, 15473, Note_on_c, 0, 79, 26
1, 15473, Note_off_c, 0, 79, 127
1, 15473, Note_off_c, 0, 66, 62
1, 15483, Control_c, 0, 67, 72
1, 15498, Control_c, 0, 67, 82
1, 15513, Control_c, 0, 67, 91
1, 15528, Control_c, 0, 67, 101
1, 15543, Control_c, 0, 67, 111
1, 15557, Control_c, 0, 67, 123
1, 15572, Control_c, 0, 67, 127
1, 15691, Control_c, 0, 64, 39
1, 15706, Control_c, 0, 64, 50
1, 15711, Note_on_c, 0, 63, 58
1, 15715, Note_on_c, 0, 59, 44
1, 15721, Control_c, 0, 64, 58
1, 15730, Note_on_c, 0, 91, 66
1, 15736, Control_c, 0, 64, 63
1, 15741, Note_on_c, 0, 87, 52
1, 15756, Note_off_c, 0, 63, 62
1, 15758, Control_c, 0, 64, 66
1, 15762, Note_off_c, 0, 59, 62
1, 15773, Control_c, 0, 64, 69
1, 15788, Control_c, 0, 64, 70
1, 15803, Control_c, 0, 64, 72
1, 15818, Control_c, 0, 64, 73
1, 15832, Control_c, 0, 64, 74
1, 15862, Control_c, 0, 64, 73
1, 15877, Control_c, 0, 64, 67
1, 15891, Control_c, 0, 64, 54
1, 15904, Note_off_c, 0, 91, 57
1, 15906, Control_c, 0, 64, 0
1, 15923, Note_off_c, 0, 87, 60
1, 15924, Note_on_c, 0, 63, 56
1, 15931, Note_on_c, 0, 90, 74
1, 15935, Note_on_c, 0, 86, 70
1, 15957, Note_off_c, 0, 63, 64
1, 15960, Note_off_c, 0, 90, 62
1, 15962, Note_off_c, 0, 86, 66
1, 16020, Note_on_c, 0, 85, 67
1, 16031, Note_on_c, 0, 89, 61
1, 16045, Note_off_c, 0, 85, 69
1, 16078, Note_off_c, 0, 89, 60
1, 16088, Note_on_c, 0, 88, 78
1, 16092, Note_on_c, 0, 71, 58
1, 16099, Note_on_c, 0, 84, 75
1, 16103, Note_on_c, 0, 67, 30
1, 16111, Note_off_c, 0, 71, 62
1, 16120, Note_off_c, 0, 88, 64
1, 16120, Note_off_c, 0, 84, 69
1, 16135, Note_off_c, 0, 67, 32
1, 16180, Note_on_c, 0, 87, 86
1, 16192, Note_on_c, 0, 83, 68
1, 16209, Note_off_c, 0, 83, 68
1, 16221, Note_off_c, 0, 87, 61
1, 16273, Note_on_c, 0, 78, 72
1, 16281, Note_on_c, 0, 74, 61
1, 16300, Note_on_c, 0, 82, 68
1, 16302, Note_on_c, 0, 86, 54
1, 16305, Note_off_c, 0, 74, 65
1, 16305, Note_off_c, 0, 78, 62
1, 16320, Note_off_c, 0, 82, 62
1, 16361, Note_off_c, 0, 86, 50
1, 16374, Note_on_c, 0, 90, 76
1, 16446, Note_on_c, 0, 74, 40
1, 16450, Note_off_c, 0, 90, 61
1, 16455, Note_on_c, 0, 70, 54
1, 16463, Note_on_c, 0, 94, 66
1, 16470, Control_c, 0, 64, 53
1, 16481, Note_on_c, 0, 86, 43
1, 16485, Control_c, 0, 64, 62
1, 16486, Note_off_c, 0, 70, 57
1, 16490, Note_off_c, 0, 94, 68
1, 16493, Note_off_c, 0, 74, 44
1, 16500, Control_c, 0, 64, 65
1, 16515, Note_off_c, 0, 86, 50
1, 16522, Control_c, 0, 64, 70
1, 16537, Control_c, 0, 64, 77
1, 16552, Control_c, 0, 64, 89
1, 16567, Control_c, 0, 64, 105
1, 16581, Control_c, 0, 64, 127
1, 16665, Note_on_c, 0, 66, 49
1, 16671, Note_on_c, 0, 70, 45
1, 16692, Note_off_c, 0, 66, 59
1, 16706, Note_off_c, 0, 70, 60
1, 16852, Note_on_c, 0, 59, 58
1, 16853, Note_on_c, 0, 64, 70
1, 16864, Control_c, 0, 64, 72
1, 16872, Note_on_c, 0, 88, 76
1, 16877, Note_on_c, 0, 84, 72
1, 16878, Control_c, 0, 64, 0
1, 16882, Note_off_c, 0, 59, 67
1, 16887, Note_off_c, 0, 64, 63
1, 16898, Note_off_c, 0, 84, 61
1, 17035, Note_off_c, 0, 88, 63
1, 17053, Note_on_c, 0, 87, 78
1, 17059, Note_on_c, 0, 64, 53
1, 17059, Note_on_c, 0, 83, 70
1, 17068, Note_on_c, 0, 68, 48
1, 17089, Note_off_c, 0, 83, 62
1, 17092, Note_off_c, 0, 68, 60
1, 17108, Note_off_c, 0, 87, 60
1, 17119, Note_off_c, 0, 64, 50
1, 17138, Note_on_c, 0, 86, 82
1, 17152, Note_on_c, 0, 82, 72
1, 17173, Note_off_c, 0, 82, 71
1, 17184, Note_off_c, 0, 86, 64
1, 17217, Note_on_c, 0, 68, 44
1, 17225, Note_on_c, 0, 85, 79
1, 17230, Note_on_c, 0, 72, 61
1, 17238, Note_on_c, 0, 81, 59
1, 17263, Note_off_c, 0, 68, 67
1, 17264, Note_off_c, 0, 72, 68
1, 17268, Note_off_c, 0, 81, 66
1, 17298, Note_off_c, 0, 85, 51
1, 17317, Note_on_c, 0, 84, 82
1, 17327, Note_on_c, 0, 80, 72
1, 17343, Note_off_c, 0, 84, 60
1, 17350, Note_off_c, 0, 80, 66
1, 17406, Note_on_c, 0, 83, 85
1, 17408, Note_on_c, 0, 75, 68
1, 17417, Note_on_c, 0, 79, 68
1, 17441, Note_off_c, 0, 75, 64
1, 17443, Note_off_c, 0, 79, 67
1, 17448, Note_off_c, 0, 83, 62
1, 17488, Note_on_c, 0, 87, 76
1, 17571, Note_off_c, 0, 87, 61
1, 17583, Control_c, 0, 64, 51
1, 17584, Note_on_c, 0, 91, 65
1, 17585, Note_on_c, 0, 75, 61
1, 17591, Note_on_c, 0, 71, 62
1, 17597, Note_on_c, 0, 83, 41
1, 17598, Control_c, 0, 64, 60
1, 17601, Note_off_c, 0, 91, 66
1, 17613, Note_off_c, 0, 75, 66
1, 17613, Control_c, 0, 64, 61
1, 17619, Note_off_c, 0, 71, 68
1, 17623, Note_off_c, 0, 83, 52
1, 17627, Control_c, 0, 64, 61
1, 17642, Control_c, 0, 64, 64
1, 17657, Control_c, 0, 64, 69
1, 17672, Control_c, 0, 64, 73
1, 17687, Control_c, 0, 64, 77
1, 17701, Control_c, 0, 64, 78
1, 17716, Control_c, 0, 64, 78
1, 17731, Control_c, 0, 64, 79
1, 17746, Control_c, 0, 64, 80
1, 17786, Note_on_c, 0, 71, 62
1, 17795, Note_on_c, 0, 67, 49
1, 17819, Note_off_c, 0, 71, 65
1, 17825, Note_off_c, 0, 67, 61
1, 17909, Control_c, 0, 64, 81
1, 17923, Control_c, 0, 64, 86
1, 17938, Control_c, 0, 64, 91
1, 17953, Control_c, 0, 64, 83
1, 17968, Control_c, 0, 64, 62
1, 17968, Note_on_c, 0, 85, 83
1, 17971, Note_on_c, 0, 65, 63
1, 17971, Note_on_c, 0, 81, 75
1, 17973, Note_on_c, 0, 59, 52
1, 17983, Control_c, 0, 64, 0
1, 17988, Note_on_c, 0, 61, 33
1, 17992, Note_off_c, 0, 65, 66
1, 18031, Note_off_c, 0, 61, 45
1, 18138, Note_off_c, 0, 85, 64
1, 18146, Note_off_c, 0, 81, 42
1, 18153, Note_on_c, 0, 84, 76
1, 18154, Note_on_c, 0, 80, 79
1, 18157, Note_on_c, 0, 66, 62
1, 18166, Note_on_c, 0, 62, 57
1, 18189, Note_off_c, 0, 66, 62
1, 18222, Note_off_c, 0, 84, 60
1, 18225, Note_off_c, 0, 80, 60
1, 18239, Note_on_c, 0, 83, 78
1, 18246, Note_on_c, 0, 79, 75
1, 18278, Note_off_c, 0, 62, 53
1, 18284, Note_off_c, 0, 83, 59
1, 18306, Note_on_c, 0, 67, 71
1, 18310, Note_off_c, 0, 79, 62
1, 18311, Note_on_c, 0, 63, 71
1, 18315, Note_on_c, 0, 82, 76
1, 18323, Note_off_c, 0, 59, 56
1, 18331, Note_off_c, 0, 67, 68
1, 18333, Note_on_c, 0, 78, 76
1, 18338, Note_off_c, 0, 63, 68
1, 18375, Note_off_c, 0, 82, 59
1, 18384, Note_off_c, 0, 78, 63
1, 18397, Note_on_c, 0, 81, 86
1, 18406, Note_on_c, 0, 77, 72
1, 18439, Note_off_c, 0, 77, 59
1, 18445, Note_off_c, 0, 81, 65
1, 18475, Note_on_c, 0, 59, 57
1, 18487, Note_on_c, 0, 68, 69
1, 18496, Note_on_c, 0, 80, 82
1, 18502, Note_on_c, 0, 76, 72
1, 18506, Note_off_c, 0, 59, 65
1, 18514, Note_off_c, 0, 68, 65
1, 18532, Note_off_c, 0, 76, 63
1, 18537, Note_off_c, 0, 80, 62
1, 18578, Note_on_c, 0, 83, 72
1, 18612, Note_on_c, 0, 81, 42
1, 18623, Note_off_c, 0, 81, 43
1, 18651, Note_on_c, 0, 88, 83
1, 18653, Note_on_c, 0, 64, 65
1, 18654, Note_off_c, 0, 83, 63
1, 18657, Note_on_c, 0, 80, 79
1, 18670, Note_off_c, 0, 88, 73
1, 18675, Note_off_c, 0, 80, 71
1, 18681, Note_off_c, 0, 64, 67
1, 18857, Note_on_c, 0, 66, 80
1, 18880, Note_off_c, 0, 66, 67
1, 19053, Note_on_c, 0, 68, 85
1, 19062, Note_on_c, 0, 71, 61
1, 19065, Note_on_c, 0, 76, 71
1, 19093, Note_off_c, 0, 71, 67
1, 19145, Note_off_c, 0, 76, 58
1, 19148, Note_on_c, 0, 80, 71
1, 19226, Note_on_c, 0, 83, 81
1, 19239, Note_off_c, 0, 80, 63
1, 19246, Note_off_c, 0, 83, 70
1, 19426, Note_on_c, 0, 64, 80
1, 19432, Note_off_c, 0, 68, 63
1, 19451, Note_off_c, 0, 64, 66
1, 19640, Note_on_c, 0, 71, 67
1, 19640, Note_on_c, 0, 68, 73
1, 19682, Note_off_c, 0, 71, 62
1, 19718, Note_on_c, 0, 76, 69
1, 19794, Note_on_c, 0, 80, 75
1, 19806, Note_off_c, 0, 76, 63
1, 19817, Note_off_c, 0, 80, 67
1, 20013, Note_on_c, 0, 64, 62
1, 20033, Note_off_c, 0, 68, 62
1, 20061, Note_off_c, 0, 64, 63
1, 20732, Note_on_c, 0, 59, 57
1, 20755, Note_on_c, 0, 79, 53
1, 20757, Note_on_c, 0, 76, 48
1, 20770, Note_off_c, 0, 59, 61
1, 20782, Note_off_c, 0, 76, 59
1, 20793, Note_off_c, 0, 79, 61
1, 20840, Note_on_c, 0, 83, 55
1, 20903, Note_off_c, 0, 83, 64
1, 20906, Note_on_c, 0, 64, 70
1, 20910, Note_on_c, 0, 79, 64
1, 20914, Note_on_c, 0, 88, 51
1, 20929, Note_off_c, 0, 79, 67
1, 20932, Note_off_c, 0, 64, 67
1, 20934, Note_off_c, 0, 88, 61
1, 21105, Note_on_c, 0, 66, 74
1, 21128, Note_off_c, 0, 66, 68
1, 21319, Note_on_c, 0, 71, 53
1, 21323, Note_on_c, 0, 76, 62
1, 21325, Note_on_c, 0, 67, 63
1, 21348, Note_off_c, 0, 71, 65
1, 21402, Note_on_c, 0, 79, 69
1, 21406, Note_off_c, 0, 76, 60
1, 21480, Note_on_c, 0, 83, 64
1, 21491, Note_off_c, 0, 79, 63
1, 21500, Note_off_c, 0, 83, 67
1, 21711, Note_on_c, 0, 64, 55
1, 21733, Note_off_c, 0, 67, 60
1, 21753, Note_off_c, 0, 64, 63
1, 22469, Note_on_c, 0, 67, 51
1, 22484, Note_on_c, 0, 71, 48
1, 22531, Note_off_c, 0, 71, 64
1, 22580, Note_on_c, 0, 76, 56
1, 22631, Note_off_c, 0, 76, 50
1, 22655, Note_on_c, 0, 79, 62
1, 22681, Note_off_c, 0, 79, 68
1, 22997, Note_on_c, 0, 64, 49
1, 23012, Note_off_c, 0, 67, 59
1, 23056, Note_off_c, 0, 64, 60
1, 24338, Note_on_c, 0, 28, 51
1, 24343, Note_on_c, 0, 40, 50
1, 24374, Note_off_c, 0, 28, 62
1, 24375, Note_off_c, 0, 40, 62
1, 24579, Note_on_c, 0, 55, 48
1, 24624, Note_off_c, 0, 55, 62
1, 24671, Note_on_c, 0, 58, 41
1, 24749, Poly_aftertouch_c, 0, 54, 0
1, 24768, Note_off_c, 0, 58, 62
1, 24771, Note_on_c, 0, 55, 49
1, 24777, Note_on_c, 0, 47, 52
1, 24785, Note_on_c, 0, 59, 51
1, 24815, Note_off_c, 0, 47, 62
1, 25001, Note_on_c, 0, 40, 58
1, 25010, Control_c, 0, 64, 34
1, 25025, Control_c, 0, 64, 43
1, 25027, Note_on_c, 0, 52, 33
1, 25033, Note_off_c, 0, 40, 63
1, 25040, Control_c, 0, 64, 46
1, 25055, Control_c, 0, 64, 44
1, 25061, Note_off_c, 0, 52, 48
1, 25069, Control_c, 0, 64, 45
1, 25143, Control_c, 0, 64, 44
1, 25154, Note_off_c, 0, 55, 52
1, 25203, Control_c, 0, 64, 43
1, 25218, Control_c, 0, 64, 42
1, 25226, Note_off_c, 0, 59, 62
1, 25233, Note_on_c, 0, 55, 44
1, 25233, Control_c, 0, 64, 42
1, 25322, Note_off_c, 0, 55, 63
1, 25322, Control_c, 0, 64, 42
1, 25336, Control_c, 0, 64, 43
1, 25338, Note_on_c, 0, 54, 50
1, 25351, Control_c, 0, 64, 44
1, 25366, Control_c, 0, 64, 44
1, 25381, Control_c, 0, 64, 44
1, 25395, Control_c, 0, 64, 42
1, 25409, Note_on_c, 0, 35, 57
1, 25410, Control_c, 0, 64, 37
1, 25417, Note_on_c, 0, 52, 68
1, 25425, Note_off_c, 0, 54, 60
1, 25425, Control_c, 0, 64, 0
1, 25443, Note_off_c, 0, 35, 63
1, 25474, Note_off_c, 0, 52, 61
1, 25513, Note_on_c, 0, 47, 55
1, 25558, Note_off_c, 0, 47, 63
1, 25585, Note_on_c, 0, 28, 55
1, 25587, Note_on_c, 0, 40, 60
1, 25603, Note_on_c, 0, 52, 66
1, 25619, Note_off_c, 0, 28, 62
1, 25620, Note_off_c, 0, 40, 64
1, 25672, Note_off_c, 0, 52, 61
1, 25683, Note_on_c, 0, 54, 69
1, 25736, Note_off_c, 0, 54, 61
1, 25785, Note_on_c, 0, 55, 41
1, 25789, Note_on_c, 0, 57, 49
1, 25820, Note_off_c, 0, 55, 64
1, 25820, Note_off_c, 0, 57, 60
1, 25851, Note_on_c, 0, 58, 62
1, 25857, Note_on_c, 0, 54, 54
1, 25905, Note_off_c, 0, 54, 56
1, 25949, Note_on_c, 0, 47, 54
1, 25956, Note_on_c, 0, 55, 53
1, 25956, Note_off_c, 0, 58, 63
1, 25959, Note_on_c, 0, 59, 55
1, 25980, Note_off_c, 0, 47, 65
1, 26172, Note_on_c, 0, 52, 53
1, 26175, Control_c, 0, 64, 45
1, 26176, Note_on_c, 0, 40, 41
1, 26189, Control_c, 0, 64, 54
1, 26202, Note_off_c, 0, 52, 62
1, 26204, Control_c, 0, 64, 57
1, 26205, Note_off_c, 0, 40, 49
1, 26219, Control_c, 0, 64, 58
1, 26241, Control_c, 0, 64, 59
1, 26256, Control_c, 0, 64, 62
1, 26271, Control_c, 0, 64, 63
1, 26285, Note_off_c, 0, 55, 43
1, 26374, Note_off_c, 0, 59, 55
1, 26376, Control_c, 0, 64, 63
1, 26398, Note_on_c, 0, 55, 60
1, 26405, Control_c, 0, 64, 62
1, 26420, Control_c, 0, 64, 62
1, 26449, Control_c, 0, 64, 61
1, 26464, Control_c, 0, 64, 61
1, 26483, Note_off_c, 0, 55, 61
1, 26488, Note_on_c, 0, 54, 69
1, 26494, Control_c, 0, 64, 60
1, 26538, Control_c, 0, 64, 60
1, 26560, Note_on_c, 0, 35, 61
1, 26568, Control_c, 0, 64, 59
1, 26572, Note_on_c, 0, 52, 72
1, 26594, Note_off_c, 0, 35, 64
1, 26595, Note_off_c, 0, 54, 56
1, 26628, Control_c, 0, 64, 59
1, 26635, Note_off_c, 0, 52, 63
1, 26642, Control_c, 0, 64, 57
1, 26657, Control_c, 0, 64, 54
1, 26657, Note_on_c, 0, 47, 63
1, 26672, Control_c, 0, 64, 52
1, 26687, Control_c, 0, 64, 51
1, 26702, Control_c, 0, 64, 46
1, 26716, Control_c, 0, 64, 0
1, 26717, Note_off_c, 0, 47, 62
1, 26725, Note_on_c, 0, 28, 65
1, 26726, Note_on_c, 0, 40, 69
1, 26746, Note_on_c, 0, 52, 76
1, 26753, Note_off_c, 0, 40, 65
1, 26755, Note_off_c, 0, 28, 63
1, 26820, Note_off_c, 0, 52, 62
1, 26824, Note_on_c, 0, 54, 73
1, 26879, Note_off_c, 0, 54, 60
1, 26910, Note_on_c, 0, 55, 73
1, 26957, Note_off_c, 0, 55, 60
1, 27000, Note_on_c, 0, 54, 61
1, 27001, Note_on_c, 0, 58, 65
1, 27056, Note_off_c, 0, 54, 61
1, 27083, Note_off_c, 0, 58, 63
1, 27090, Note_on_c, 0, 55, 59
1, 27093, Note_on_c, 0, 59, 61
1, 27094, Note_on_c, 0, 47, 60
1, 27122, Note_off_c, 0, 47, 66
1, 27293, Note_on_c, 0, 52, 65
1, 27295, Note_on_c, 0, 40, 64
1, 27299, Note_off_c, 0, 55, 55
1, 27317, Control_c, 0, 64, 53
1, 27322, Note_off_c, 0, 52, 65
1, 27325, Note_off_c, 0, 40, 65
1, 27332, Control_c, 0, 64, 62
1, 27346, Control_c, 0, 64, 62
1, 27355, Note_off_c, 0, 59, 61
1, 27361, Control_c, 0, 64, 63
1, 27361, Control_c, 0, 67, 124
1, 27367, Note_on_c, 0, 58, 70
1, 27376, Control_c, 0, 64, 63
1, 27376, Control_c, 0, 67, 127
1, 27391, Control_c, 0, 64, 64
1, 27406, Control_c, 0, 67, 123
1, 27421, Control_c, 0, 67, 116
1, 27423, Note_off_c, 0, 58, 64
1, 27435, Control_c, 0, 67, 102
1, 27450, Control_c, 0, 67, 88
1, 27454, Note_on_c, 0, 59, 71
1, 27465, Control_c, 0, 67, 87
1, 27480, Control_c, 0, 67, 89
1, 27495, Control_c, 0, 67, 88
1, 27501, Note_off_c, 0, 59, 60
1, 27510, Control_c, 0, 67, 84
1, 27524, Control_c, 0, 67, 77
1, 27537, Note_on_c, 0, 61, 73
1, 27539, Control_c, 0, 64, 64
1, 27539, Control_c, 0, 67, 68
1, 27554, Control_c, 0, 67, 65
1, 27569, Control_c, 0, 64, 65
1, 27583, Control_c, 0, 64, 65
1, 27590, Note_off_c, 0, 61, 60
1, 27598, Control_c, 0, 64, 66
1, 27598, Control_c, 0, 67, 62
1, 27613, Control_c, 0, 64, 67
1, 27613, Control_c, 0, 67, 54
1, 27624, Note_on_c, 0, 45, 71
1, 27628, Note_on_c, 0, 62, 76
1, 27628, Control_c, 0, 64, 69
1, 27628, Control_c, 0, 67, 47
1, 27643, Control_c, 0, 67, 46
1, 27653, Note_off_c, 0, 45, 67
1, 27658, Control_c, 0, 64, 64
1, 27658, Control_c, 0, 67, 47
1, 27672, Control_c, 0, 64, 49
1, 27685, Note_off_c, 0, 62, 59
1, 27687, Control_c, 0, 64, 0
1, 27687, Control_c, 0, 67, 46
1, 27702, Control_c, 0, 67, 45
1, 27704, Note_on_c, 0, 64, 76
1, 27731, Control_c, 0, 67, 46
1, 27754, Control_c, 0, 67, 48
1, 27769, Control_c, 0, 67, 49
1, 27772, Note_off_c, 0, 64, 59
1, 27784, Control_c, 0, 67, 48
1, 27798, Control_c, 0, 67, 47
1, 27808, Note_on_c, 0, 66, 75
1, 27813, Note_on_c, 0, 38, 68
1, 27814, Note_on_c, 0, 62, 64
1, 27815, Note_on_c, 0, 50, 68
1, 27828, Control_c, 0, 67, 49
1, 27840, Note_off_c, 0, 38, 65
1, 27842, Note_off_c, 0, 50, 65
1, 27843, Control_c, 0, 67, 51
1, 27844, Note_off_c, 0, 62, 66
1, 27858, Control_c, 0, 67, 51
1, 27872, Control_c, 0, 67, 49
1, 27874, Note_off_c, 0, 66, 57
1, 27883, Note_on_c, 0, 67, 75
1, 27887, Control_c, 0, 67, 48
1, 27900, Note_on_c, 0, 64, 61
1, 27918, Control_c, 0, 67, 49
1, 27930, Note_off_c, 0, 64, 66
1, 27933, Control_c, 0, 67, 52
1, 27962, Control_c, 0, 67, 51
1, 27975, Note_off_c, 0, 67, 63
1, 27977, Control_c, 0, 67, 49
1, 27978, Note_on_c, 0, 69, 69
1, 27984, Note_on_c, 0, 66, 72
1, 28007, Control_c, 0, 67, 49
1, 28021, Control_c, 0, 67, 52
1, 28036, Control_c, 0, 67, 53
1, 28051, Control_c, 0, 67, 50
1, 28066, Control_c, 0, 67, 47
1, 28081, Control_c, 0, 67, 46
1, 28110, Control_c, 0, 67, 48
1, 28125, Control_c, 0, 67, 48
1, 28140, Control_c, 0, 67, 46
1, 28155, Control_c, 0, 67, 43
1, 28169, Control_c, 0, 67, 40
1, 28184, Control_c, 0, 67, 39
1, 28194, Note_on_c, 0, 61, 86
1, 28243, Control_c, 0, 67, 38
1, 28273, Control_c, 0, 67, 39
1, 28288, Control_c, 0, 67, 42
1, 28348, Control_c, 0, 67, 43
1, 28363, Control_c, 0, 67, 50
1, 28377, Control_c, 0, 67, 56
1, 28392, Control_c, 0, 67, 58
1, 28407, Control_c, 0, 67, 56
1, 28437, Control_c, 0, 67, 58
1, 28450, Note_on_c, 0, 60, 66
1, 28452, Control_c, 0, 67, 61
1, 28452, Note_off_c, 0, 61, 55
1, 28467, Control_c, 0, 67, 67
1, 28482, Control_c, 0, 67, 67
1, 28493, Note_off_c, 0, 69, 37
1, 28503, Control_c, 0, 67, 65
1, 28533, Control_c, 0, 67, 67
1, 28540, Note_off_c, 0, 66, 56
1, 28547, Note_on_c, 0, 62, 66
1, 28547, Control_c, 0, 67, 69
1, 28562, Control_c, 0, 67, 72
1, 28577, Control_c, 0, 64, 50
1, 28577, Control_c, 0, 67, 70
1, 28592, Control_c, 0, 64, 57
1, 28592, Control_c, 0, 67, 67
1, 28607, Control_c, 0, 64, 60
1, 28607, Control_c, 0, 67, 65
1, 28610, Note_off_c, 0, 62, 60
1, 28622, Control_c, 0, 64, 64
1, 28631, Note_on_c, 0, 64, 73
1, 28637, Control_c, 0, 64, 68
1, 28637, Control_c, 0, 67, 67
1, 28647, Note_off_c, 0, 60, 54
1, 28652, Control_c, 0, 64, 74
1, 28652, Control_c, 0, 67, 68
1, 28667, Control_c, 0, 64, 80
1, 28667, Control_c, 0, 67, 67
1, 28681, Control_c, 0, 64, 86
1, 28681, Control_c, 0, 67, 64
1, 28696, Control_c, 0, 64, 94
1, 28696, Control_c, 0, 67, 62
1, 28704, Note_off_c, 0, 64, 61
1, 28711, Note_on_c, 0, 66, 78
1, 28711, Control_c, 0, 64, 104
1, 28711, Control_c, 0, 67, 62
1, 28726, Control_c, 0, 64, 122
1, 28741, Control_c, 0, 64, 127
1, 28756, Control_c, 0, 67, 57
1, 28764, Note_off_c, 0, 66, 61
1, 28771, Control_c, 0, 67, 40
1, 28786, Control_c, 0, 67, 0
1, 28786, Note_on_c, 0, 67, 84
1, 28808, Note_on_c, 0, 50, 74
1, 28833, Note_off_c, 0, 50, 65
1, 28845, Control_c, 0, 64, 67
1, 28857, Note_off_c, 0, 67, 62
1, 28860, Control_c, 0, 64, 0
1, 28869, Note_on_c, 0, 69, 77
1, 28949, Note_off_c, 0, 69, 58
1, 28959, Note_on_c, 0, 71, 82
1, 28978, Note_on_c, 0, 67, 55
1, 28979, Note_on_c, 0, 45, 47
1, 28993, Control_c, 0, 67, 21
1, 29000, Note_off_c, 0, 67, 65
1, 29010, Note_off_c, 0, 45, 55
1, 29015, Note_off_c, 0, 71, 65
1, 29042, Note_on_c, 0, 73, 79
1, 29055, Note_on_c, 0, 70, 63
1, 29083, Note_off_c, 0, 70, 68
1, 29102, Note_off_c, 0, 73, 63
1, 29111, Note_on_c, 0, 74, 72
1, 29124, Note_on_c, 0, 71, 77
1, 29155, Control_c, 0, 67, 24
1, 29170, Control_c, 0, 67, 27
1, 29200, Control_c, 0, 67, 25
1, 29251, Control_c, 0, 67, 28
1, 29296, Control_c, 0, 67, 26
1, 29340, Control_c, 0, 67, 30
1, 29341, Note_on_c, 0, 61, 78
1, 29355, Control_c, 0, 67, 32
1, 29370, Control_c, 0, 67, 29
1, 29385, Control_c, 0, 67, 26
1, 29430, Control_c, 0, 67, 30
1, 29474, Control_c, 0, 67, 27
1, 29519, Control_c, 0, 67, 33
1, 29534, Control_c, 0, 67, 34
1, 29549, Control_c, 0, 67, 32
1, 29559, Note_on_c, 0, 60, 70
1, 29563, Note_off_c, 0, 61, 56
1, 29564, Control_c, 0, 67, 29
1, 29579, Note_off_c, 0, 71, 61
1, 29593, Control_c, 0, 64, 51
1, 29599, Note_off_c, 0, 74, 60
1, 29608, Control_c, 0, 64, 62
1, 29608, Control_c, 0, 67, 32
1, 29623, Control_c, 0, 64, 66
1, 29623, Control_c, 0, 67, 33
1, 29637, Note_on_c, 0, 62, 69
1, 29638, Control_c, 0, 67, 31
1, 29653, Control_c, 0, 64, 66
1, 29653, Control_c, 0, 67, 27
1, 29667, Control_c, 0, 64, 67
1, 29667, Control_c, 0, 67, 25
1, 29682, Control_c, 0, 64, 68
1, 29683, Note_off_c, 0, 60, 62
1, 29692, Note_off_c, 0, 62, 58
1, 29697, Control_c, 0, 64, 69
1, 29711, Control_c, 0, 67, 27
1, 29718, Note_on_c, 0, 64, 74
1, 29741, Control_c, 0, 64, 70
1, 29741, Control_c, 0, 67, 23
1, 29756, Control_c, 0, 64, 70
1, 29756, Control_c, 0, 67, 21
1, 29771, Control_c, 0, 64, 72
1, 29785, Control_c, 0, 64, 73
1, 29789, Note_off_c, 0, 64, 62
1, 29800, Note_on_c, 0, 66, 73
1, 29800, Control_c, 0, 64, 76
1, 29815, Control_c, 0, 64, 79
1, 29830, Control_c, 0, 64, 82
1, 29830, Control_c, 0, 67, 0
1, 29845, Control_c, 0, 64, 88
1, 29856, Note_off_c, 0, 66, 62
1, 29859, Control_c, 0, 64, 104
1, 29874, Control_c, 0, 64, 127
1, 29876, Note_on_c, 0, 67, 87
1, 29878, Note_on_c, 0, 50, 71
1, 29904, Note_off_c, 0, 50, 64
1, 29954, Note_on_c, 0, 69, 83
1, 29957, Note_off_c, 0, 67, 62
1, 30015, Control_c, 0, 64, 122
1, 30030, Control_c, 0, 64, 92
1, 30043, Note_on_c, 0, 43, 80
1, 30045, Control_c, 0, 64, 81
1, 30050, Note_on_c, 0, 31, 75
1, 30057, Note_on_c, 0, 71, 86
1, 30059, Control_c, 0, 64, 74
1, 30060, Note_on_c, 0, 67, 75
1, 30060, Note_off_c, 0, 69, 63
1, 30065, Note_off_c, 0, 43, 67
1, 30074, Control_c, 0, 64, 63
1, 30076, Note_off_c, 0, 31, 65
1, 30089, Note_off_c, 0, 67, 66
1, 30089, Control_c, 0, 64, 38
1, 30104, Control_c, 0, 64, 0
1, 30109, Note_off_c, 0, 71, 65
1, 30136, Note_on_c, 0, 73, 81
1, 30151, Note_on_c, 0, 70, 67
1, 30154, Note_off_c, 0, 73, 72
1, 30169, Note_off_c, 0, 70, 66
1, 30220, Note_on_c, 0, 74, 82
1, 30225, Note_on_c, 0, 71, 72
1, 30248, Note_off_c, 0, 71, 70
1, 30267, Note_off_c, 0, 74, 62
1, 30307, Note_on_c, 0, 76, 75
1, 30315, Note_on_c, 0, 72, 66
1, 30340, Note_off_c, 0, 72, 68
1, 30363, Note_off_c, 0, 76, 59
1, 30389, Note_on_c, 0, 74, 80
1, 30396, Note_on_c, 0, 71, 70
1, 30420, Note_on_c, 0, 61, 73
1, 30476, Control_c, 0, 67, 20
1, 30490, Control_c, 0, 64, 34
1, 30505, Control_c, 0, 64, 53
1, 30505, Control_c, 0, 67, 0
1, 30520, Control_c, 0, 64, 64
1, 30534, Control_c, 0, 64, 67
1, 30551, Note_off_c, 0, 71, 63
1, 30579, Control_c, 0, 64, 67
1, 30579, Control_c, 0, 67, 20
1, 30594, Control_c, 0, 64, 68
1, 30594, Control_c, 0, 67, 0
1, 30608, Control_c, 0, 64, 68
1, 30623, Control_c, 0, 64, 69
1, 30627, Note_on_c, 0, 60, 73
1, 30639, Note_off_c, 0, 61, 61
1, 30664, Note_off_c, 0, 74, 56
1, 30668, Control_c, 0, 64, 71
1, 30682, Control_c, 0, 64, 73
1, 30697, Control_c, 0, 64, 76
1, 30708, Note_on_c, 0, 62, 78
1, 30712, Control_c, 0, 64, 78
1, 30734, Control_c, 0, 64, 79
1, 30749, Control_c, 0, 64, 81
1, 30753, Note_off_c, 0, 60, 63
1, 30764, Control_c, 0, 64, 85
1, 30765, Note_off_c, 0, 62, 60
1, 30779, Control_c, 0, 64, 89
1, 30794, Control_c, 0, 64, 93
1, 30795, Note_on_c, 0, 64, 80
1, 30808, Control_c, 0, 64, 95
1, 30838, Control_c, 0, 64, 101
1, 30853, Control_c, 0, 64, 114
1, 30868, Control_c, 0, 64, 127
1, 30874, Note_off_c, 0, 64, 63
1, 30878, Note_on_c, 0, 66, 78
1, 30932, Note_off_c, 0, 66, 60
1, 30951, Note_on_c, 0, 67, 88
1, 30960, Note_on_c, 0, 50, 71
1, 30986, Note_off_c, 0, 50, 66
1, 31001, Control_c, 0, 64, 85
1, 31016, Control_c, 0, 64, 60
1, 31024, Note_off_c, 0, 67, 63
1, 31027, Note_on_c, 0, 69, 84
1, 31030, Control_c, 0, 64, 0
1, 31060, Control_c, 0, 64, 42
1, 31075, Control_c, 0, 64, 59
1, 31090, Control_c, 0, 64, 67
1, 31105, Control_c, 0, 64, 72
1, 31116, Note_on_c, 0, 43, 82
1, 31118, Note_off_c, 0, 69, 54
1, 31120, Note_on_c, 0, 31, 80
1, 31120, Control_c, 0, 64, 73
1, 31123, Note_on_c, 0, 71, 86
1, 31131, Note_on_c, 0, 67, 76
1, 31135, Control_c, 0, 64, 67
1, 31138, Note_off_c, 0, 43, 68
1, 31146, Note_off_c, 0, 31, 65
1, 31150, Control_c, 0, 64, 41
1, 31156, Note_off_c, 0, 67, 67
1, 31165, Control_c, 0, 64, 0
1, 31175, Note_off_c, 0, 71, 64
1, 31202, Note_on_c, 0, 73, 83
1, 31209, Note_on_c, 0, 70, 77
1, 31240, Note_off_c, 0, 70, 61
1, 31266, Note_off_c, 0, 73, 61
1, 31275, Note_on_c, 0, 74, 81
1, 31288, Note_on_c, 0, 71, 83
1, 31515, Note_on_c, 0, 66, 93
1, 31570, Note_off_c, 0, 71, 55
1, 31588, Note_on_c, 0, 70, 73
1, 31590, Note_on_c, 0, 73, 80
1, 31595, Note_off_c, 0, 74, 64
1, 31657, Note_off_c, 0, 70, 57
1, 31673, Note_off_c, 0, 66, 60
1, 31680, Note_on_c, 0, 65, 87
1, 31682, Note_off_c, 0, 73, 56
1, 31686, Note_on_c, 0, 71, 78
1, 31687, Note_on_c, 0, 74, 81
1, 31710, Note_off_c, 0, 65, 67
1, 31892, Note_on_c, 0, 62, 87
1, 31914, Control_c, 0, 64, 40
1, 31929, Control_c, 0, 64, 41
1, 31933, Note_off_c, 0, 71, 57
1, 31944, Control_c, 0, 64, 0
1, 31958, Note_off_c, 0, 62, 50
1, 31974, Note_on_c, 0, 70, 74
1, 31982, Note_on_c, 0, 73, 87
1, 31984, Note_off_c, 0, 74, 62
1, 32005, Note_off_c, 0, 70, 63
1, 32062, Note_on_c, 0, 74, 89
1, 32069, Note_on_c, 0, 71, 84
1, 32070, Note_on_c, 0, 59, 84
1, 32095, Note_off_c, 0, 59, 66
1, 32118, Note_off_c, 0, 73, 0
1, 32121, Note_off_c, 0, 71, 63
1, 32133, Note_on_c, 0, 73, 56
1, 32146, Note_on_c, 0, 76, 91
1, 32169, Note_off_c, 0, 74, 62
1, 32174, Note_off_c, 0, 73, 64
1, 32189, Note_off_c, 0, 76, 66
1, 32218, Note_on_c, 0, 54, 102
1, 32223, Note_on_c, 0, 42, 83
1, 32226, Control_c, 0, 64, 53
1, 32248, Control_c, 0, 64, 71
1, 32258, Note_off_c, 0, 42, 67
1, 32262, Control_c, 0, 64, 80
1, 32268, Note_on_c, 0, 74, 79
1, 32276, Note_off_c, 0, 54, 62
1, 32277, Control_c, 0, 64, 106
1, 32284, Note_on_c, 0, 78, 85
1, 32292, Control_c, 0, 64, 127
1, 32307, Note_off_c, 0, 74, 62
1, 32336, Note_on_c, 0, 80, 92
1, 32338, Note_off_c, 0, 78, 65
1, 32363, Note_on_c, 0, 82, 82
1, 32397, Note_off_c, 0, 80, 66
1, 32411, Note_on_c, 0, 83, 81
1, 32421, Note_off_c, 0, 82, 65
1, 32441, Note_on_c, 0, 73, 86
1, 32442, Note_on_c, 0, 77, 84
1, 32449, Note_on_c, 0, 67, 75
1, 32455, Control_c, 0, 64, 69
1, 32458, Note_off_c, 0, 83, 67
1, 32462, Note_off_c, 0, 73, 67
1, 32467, Note_off_c, 0, 77, 68
1, 32470, Control_c, 0, 64, 0
1, 32473, Note_off_c, 0, 67, 68
1, 32659, Note_on_c, 0, 66, 74
1, 32664, Note_on_c, 0, 76, 85
1, 32670, Note_on_c, 0, 72, 76
1, 32685, Note_off_c, 0, 66, 67
1, 32688, Note_off_c, 0, 76, 68
1, 32692, Note_off_c, 0, 72, 70
1, 32801, Note_on_c, 0, 54, 80
1, 32861, Note_on_c, 0, 75, 82
1, 32868, Note_on_c, 0, 71, 66
1, 32884, Control_c, 0, 64, 60
1, 32894, Note_off_c, 0, 71, 68
1, 32897, Note_off_c, 0, 75, 64
1, 32899, Control_c, 0, 64, 69
1, 32908, Note_on_c, 0, 76, 74
1, 32914, Control_c, 0, 64, 71
1, 32925, Note_on_c, 0, 78, 79
1, 32928, Control_c, 0, 64, 76
1, 32943, Control_c, 0, 64, 102
1, 32958, Control_c, 0, 64, 127
1, 32965, Note_off_c, 0, 76, 59
1, 32987, Note_on_c, 0, 79, 78
1, 33010, Control_c, 0, 64, 67
1, 33021, Note_off_c, 0, 78, 64
1, 33025, Control_c, 0, 64, 0
1, 33027, Note_on_c, 0, 64, 66
1, 33038, Note_on_c, 0, 74, 82
1, 33042, Note_on_c, 0, 70, 73
1, 33054, Note_off_c, 0, 79, 66
1, 33059, Note_off_c, 0, 64, 64
1, 33066, Note_off_c, 0, 70, 69
1, 33069, Note_off_c, 0, 74, 63
1, 33236, Note_on_c, 0, 63, 77
1, 33239, Note_on_c, 0, 73, 74
1, 33248, Note_off_c, 0, 54, 61
1, 33249, Note_on_c, 0, 69, 65
1, 33263, Note_off_c, 0, 73, 70
1, 33265, Note_off_c, 0, 63, 66
1, 33270, Note_off_c, 0, 69, 66
1, 33349, Poly_aftertouch_c, 0, 76, 127
1, 33375, Note_on_c, 0, 54, 79
1, 33394, Poly_aftertouch_c, 0, 76, 0
1, 33398, Note_on_c, 0, 62, 78
1, 33416, Note_on_c, 0, 68, 72
1, 33439, Note_off_c, 0, 68, 68
1, 33439, Control_c, 0, 64, 47
1, 33445, Note_on_c, 0, 72, 78
1, 33454, Control_c, 0, 64, 77
1, 33469, Control_c, 0, 64, 83
1, 33481, Note_on_c, 0, 74, 79
1, 33504, Note_on_c, 0, 76, 80
1, 33511, Note_off_c, 0, 72, 63
1, 33514, Control_c, 0, 64, 87
1, 33529, Control_c, 0, 64, 99
1, 33544, Control_c, 0, 64, 88
1, 33545, Note_off_c, 0, 62, 57
1, 33556, Note_off_c, 0, 74, 64
1, 33558, Note_on_c, 0, 77, 80
1, 33559, Control_c, 0, 64, 62
1, 33574, Control_c, 0, 64, 0
1, 33588, Note_off_c, 0, 76, 65
1, 33597, Note_on_c, 0, 61, 65
1, 33600, Note_on_c, 0, 67, 77
1, 33609, Note_on_c, 0, 71, 76
1, 33609, Note_off_c, 0, 77, 67
1, 33622, Note_off_c, 0, 54, 62
1, 33623, Note_off_c, 0, 67, 69
1, 33625, Note_off_c, 0, 61, 67
1, 33630, Note_off_c, 0, 71, 71
1, 33782, Note_on_c, 0, 60, 71
1, 33783, Note_on_c, 0, 54, 72
1, 33787, Note_on_c, 0, 66, 70
1, 33793, Note_on_c, 0, 70, 78
1, 33824, Note_off_c, 0, 66, 62
1, 33833, Control_c, 0, 64, 43
1, 33844, Note_on_c, 0, 72, 79
1, 33848, Control_c, 0, 64, 79
1, 33862, Note_on_c, 0, 74, 80
1, 33863, Control_c, 0, 64, 97
1, 33869, Note_off_c, 0, 70, 65
1, 33877, Control_c, 0, 64, 104
1, 33892, Control_c, 0, 64, 108
1, 33907, Control_c, 0, 64, 127
1, 33908, Note_on_c, 0, 76, 80
1, 33935, Note_off_c, 0, 72, 55
1, 33937, Control_c, 0, 64, 112
1, 33943, Note_off_c, 0, 60, 64
1, 33947, Note_on_c, 0, 59, 71
1, 33952, Control_c, 0, 64, 64
1, 33954, Note_on_c, 0, 69, 81
1, 33958, Note_on_c, 0, 65, 71
1, 33960, Note_off_c, 0, 74, 60
1, 33967, Note_off_c, 0, 76, 65
1, 33967, Control_c, 0, 64, 0
1, 33973, Note_off_c, 0, 59, 68
1, 33985, Note_off_c, 0, 65, 68
1, 33990, Note_off_c, 0, 54, 62
1, 33991, Note_off_c, 0, 69, 65
1, 34123, Note_on_c, 0, 57, 85
1, 34129, Note_on_c, 0, 54, 80
1, 34133, Note_on_c, 0, 67, 80
1, 34140, Note_on_c, 0, 64, 73
1, 34174, Control_c, 0, 64, 68
1, 34189, Control_c, 0, 64, 80
1, 34196, Note_off_c, 0, 67, 63
1, 34197, Note_on_c, 0, 69, 70
1, 34203, Control_c, 0, 64, 93
1, 34218, Control_c, 0, 64, 127
1, 34234, Note_on_c, 0, 71, 71
1, 34244, Note_off_c, 0, 64, 60
1, 34275, Note_off_c, 0, 69, 55
1, 34282, Note_off_c, 0, 57, 62
1, 34300, Note_on_c, 0, 58, 94
1, 34306, Note_on_c, 0, 73, 74
1, 34310, Note_on_c, 0, 66, 90
1, 34316, Note_off_c, 0, 54, 63
1, 34319, Note_off_c, 0, 71, 64
1, 34330, Note_off_c, 0, 73, 69
1, 34333, Note_off_c, 0, 58, 67
1, 34334, Note_off_c, 0, 66, 67
1, 34353, Control_c, 0, 64, 63
1, 34368, Control_c, 0, 64, 0
1, 34397, Control_c, 0, 64, 42
1, 34412, Control_c, 0, 64, 34
1, 34427, Control_c, 0, 64, 0
1, 34485, Note_on_c, 0, 59, 89
1, 34486, Note_on_c, 0, 62, 89
1, 34486, Note_on_c, 0, 71, 85
1, 34488, Note_on_c, 0, 47, 90
1, 34509, Note_off_c, 0, 59, 66
1, 34510, Note_off_c, 0, 47, 71
1, 34510, Note_off_c, 0, 62, 65
1, 34510, Note_off_c, 0, 71, 67
1, 34688, Note_on_c, 0, 66, 80
1, 34689, Note_on_c, 0, 54, 71
1, 34719, Note_off_c, 0, 66, 64
1, 34727, Note_off_c, 0, 54, 57
1, 34870, Note_on_c, 0, 59, 77
1, 34876, Note_on_c, 0, 71, 85
1, 34897, Note_off_c, 0, 59, 67
1, 34910, Note_off_c, 0, 71, 66
1, 35055, Note_on_c, 0, 54, 94
1, 35055, Control_c, 0, 64, 49
1, 35061, Note_on_c, 0, 42, 80
1, 35070, Control_c, 0, 64, 77
1, 35076, Note_off_c, 0, 54, 70
1, 35085, Control_c, 0, 64, 94
1, 35088, Note_off_c, 0, 42, 69
1, 35095, Note_on_c, 0, 66, 97
1, 35101, Control_c, 0, 64, 127
1, 35115, Note_off_c, 0, 66, 68
1, 35263, Note_on_c, 0, 49, 82
1, 35269, Note_on_c, 0, 37, 66
1, 35289, Note_off_c, 0, 49, 68
1, 35297, Note_off_c, 0, 37, 60
1, 35450, Note_on_c, 0, 54, 92
1, 35454, Note_on_c, 0, 42, 90
1, 35460, Note_on_c, 0, 77, 87
1, 35472, Note_off_c, 0, 54, 66
1, 35477, Note_off_c, 0, 42, 72
1, 35487, Note_on_c, 0, 78, 87
1, 35498, Note_off_c, 0, 77, 63
1, 35548, Note_off_c, 0, 78, 66
1, 35549, Note_on_c, 0, 80, 79
1, 35578, Note_on_c, 0, 82, 75
1, 35608, Note_off_c, 0, 80, 57
1, 35624, Note_on_c, 0, 47, 93
1, 35626, Note_on_c, 0, 71, 98
1, 35627, Control_c, 0, 67, 36
1, 35627, Note_on_c, 0, 83, 99
1, 35628, Note_on_c, 0, 35, 95
1, 35642, Control_c, 0, 64, 80
1, 35642, Control_c, 0, 67, 44
1, 35644, Note_off_c, 0, 82, 66
1, 35646, Note_off_c, 0, 47, 71
1, 35647, Note_off_c, 0, 83, 67
1, 35648, Note_off_c, 0, 71, 69
1, 35650, Note_off_c, 0, 35, 70
1, 35656, Control_c, 0, 64, 38
1, 35656, Control_c, 0, 67, 35
1, 35671, Control_c, 0, 64, 0
1, 35671, Control_c, 0, 67, 31
1, 35686, Control_c, 0, 67, 29
1, 35716, Control_c, 0, 67, 37
1, 35730, Control_c, 0, 67, 39
1, 35745, Control_c, 0, 67, 37
1, 35760, Control_c, 0, 67, 35
1, 35775, Control_c, 0, 67, 34
1, 35790, Control_c, 0, 67, 35
1, 35805, Control_c, 0, 67, 40
1, 35820, Control_c, 0, 67, 42
1, 35822, Note_on_c, 0, 66, 77
1, 35824, Note_on_c, 0, 54, 70
1, 35835, Control_c, 0, 67, 40
1, 35846, Note_off_c, 0, 66, 67
1, 35849, Control_c, 0, 67, 36
1, 35857, Note_off_c, 0, 54, 61
1, 35864, Control_c, 0, 67, 31
1, 35910, Control_c, 0, 67, 33
1, 35925, Control_c, 0, 67, 31
1, 35940, Control_c, 0, 67, 24
1, 35954, Control_c, 0, 67, 0
1, 36017, Note_on_c, 0, 59, 76
1, 36020, Note_on_c, 0, 71, 86
1, 36038, Note_off_c, 0, 59, 71
1, 36050, Note_off_c, 0, 71, 69
1, 36209, Note_on_c, 0, 54, 92
1, 36213, Note_on_c, 0, 42, 84
1, 36214, Control_c, 0, 64, 82
1, 36220, Note_on_c, 0, 66, 101
1, 36227, Note_off_c, 0, 54, 73
1, 36228, Control_c, 0, 64, 127
1, 36236, Note_off_c, 0, 42, 66
1, 36249, Note_off_c, 0, 66, 61
1, 36393, Note_on_c, 0, 49, 88
1, 36399, Note_on_c, 0, 37, 70
1, 36417, Note_off_c, 0, 49, 68
1, 36425, Note_off_c, 0, 37, 60
1, 36579, Note_on_c, 0, 54, 90
1, 36581, Note_on_c, 0, 42, 95
1, 36581, Note_on_c, 0, 77, 88
1, 36600, Note_off_c, 0, 54, 69
1, 36603, Note_off_c, 0, 42, 70
1, 36605, Note_on_c, 0, 78, 83
1, 36622, Note_off_c, 0, 77, 65
1, 36660, Note_off_c, 0, 78, 68
1, 36666, Note_on_c, 0, 80, 84
1, 36702, Note_on_c, 0, 82, 77
1, 36737, Note_off_c, 0, 80, 63
1, 36757, Note_on_c, 0, 47, 88
1, 36763, Note_on_c, 0, 35, 94
1, 36763, Note_on_c, 0, 71, 105
1, 36766, Note_on_c, 0, 83, 99
1, 36778, Note_off_c, 0, 47, 71
1, 36780, Note_off_c, 0, 82, 67
1, 36782, Note_off_c, 0, 83, 72
1, 36787, Note_off_c, 0, 35, 70
1, 36790, Note_off_c, 0, 71, 68
1, 36799, Control_c, 0, 64, 70
1, 36814, Control_c, 0, 64, 0
1, 36844, Control_c, 0, 67, 24
1, 36858, Control_c, 0, 67, 37
1, 36873, Control_c, 0, 67, 44
1, 36918, Control_c, 0, 67, 46
1, 36933, Control_c, 0, 67, 55
1, 36948, Control_c, 0, 67, 77
1, 36962, Control_c, 0, 67, 98
1, 36977, Control_c, 0, 67, 105
1, 36982, Note_on_c, 0, 42, 56
1, 36983, Note_on_c, 0, 30, 64
1, 37012, Note_off_c, 0, 42, 64
1, 37036, Control_c, 0, 67, 108
1, 37037, Note_off_c, 0, 30, 54
1, 37096, Control_c, 0, 67, 105
1, 37125, Control_c, 0, 67, 107
1, 37153, Note_on_c, 0, 35, 90
1, 37159, Note_on_c, 0, 47, 84
1, 37184, Note_off_c, 0, 35, 65
1, 37198, Note_off_c, 0, 47, 61
1, 37199, Control_c, 0, 67, 105
1, 37228, Control_c, 0, 67, 108
1, 37347, Note_on_c, 0, 42, 75
1, 37350, Note_on_c, 0, 54, 66
1, 37362, Control_c, 0, 67, 105
1, 37378, Note_off_c, 0, 42, 68
1, 37385, Note_off_c, 0, 54, 65
1, 37392, Control_c, 0, 67, 103
1, 37436, Control_c, 0, 67, 101
1, 37451, Control_c, 0, 67, 96
1, 37473, Control_c, 0, 67, 81
1, 37488, Control_c, 0, 67, 52
1, 37504, Control_c, 0, 67, 21
1, 37519, Control_c, 0, 67, 0
1, 37534, Note_on_c, 0, 47, 90
1, 37540, Note_on_c, 0, 59, 85
1, 37541, Note_on_c, 0, 35, 89
1, 37567, Note_off_c, 0, 47, 65
1, 37568, Note_off_c, 0, 35, 68
1, 37582, Note_off_c, 0, 59, 67
1, 37607, Control_c, 0, 67, 20
1, 37696, Control_c, 0, 67, 24
1, 37735, Note_on_c, 0, 54, 67
1, 37745, Note_on_c, 0, 42, 59
1, 37778, Note_off_c, 0, 54, 61
1, 37782, Note_off_c, 0, 42, 63
1, 37815, Control_c, 0, 67, 22
1, 37844, Control_c, 0, 67, 19
1, 37859, Control_c, 0, 67, 0
1, 37917, Note_on_c, 0, 47, 89
1, 37919, Control_c, 0, 67, 19
1, 37919, Note_on_c, 0, 59, 87
1, 37920, Note_on_c, 0, 35, 91
1, 37933, Control_c, 0, 67, 22
1, 37947, Note_off_c, 0, 35, 69
1, 37955, Note_off_c, 0, 47, 64
1, 37958, Note_off_c, 0, 59, 66
1, 37963, Control_c, 0, 67, 25
1, 37993, Control_c, 0, 67, 27
1, 38007, Control_c, 0, 67, 30
1, 38022, Control_c, 0, 67, 34
1, 38037, Control_c, 0, 67, 39
1, 38051, Control_c, 0, 67, 42
1, 38066, Control_c, 0, 67, 43
1, 38081, Control_c, 0, 67, 43
1, 38096, Control_c, 0, 67, 44
1, 38113, Note_on_c, 0, 66, 65
1, 38116, Note_on_c, 0, 54, 72
1, 38125, Control_c, 0, 67, 43
1, 38140, Control_c, 0, 67, 42
1, 38145, Note_off_c, 0, 66, 63
1, 38155, Control_c, 0, 67, 41
1, 38176, Note_off_c, 0, 54, 62
1, 38237, Control_c, 0, 67, 40
1, 38251, Control_c, 0, 67, 40
1, 38297, Control_c, 0, 67, 41
1, 38310, Note_on_c, 0, 59, 89
1, 38311, Note_on_c, 0, 71, 94
1, 38312, Control_c, 0, 67, 42
1, 38313, Note_on_c, 0, 47, 87
1, 38327, Control_c, 0, 67, 43
1, 38342, Note_off_c, 0, 59, 66
1, 38343, Note_off_c, 0, 47, 66
1, 38352, Note_off_c, 0, 71, 68
1, 38371, Control_c, 0, 67, 44
1, 38386, Control_c, 0, 67, 46
1, 38401, Control_c, 0, 67, 51
1, 38416, Control_c, 0, 67, 56
1, 38430, Control_c, 0, 67, 57
1, 38498, Note_on_c, 0, 54, 69
1, 38498, Note_on_c, 0, 66, 72
1, 38534, Control_c, 0, 67, 57
1, 38539, Note_off_c, 0, 54, 61
1, 38541, Note_off_c, 0, 66, 60
1, 38548, Control_c, 0, 67, 56
1, 38563, Control_c, 0, 67, 55
1, 38653, Control_c, 0, 67, 54
1, 38682, Note_on_c, 0, 59, 88
1, 38682, Control_c, 0, 67, 55
1, 38685, Note_on_c, 0, 71, 93
1, 38685, Note_on_c, 0, 47, 79
1, 38697, Control_c, 0, 67, 57
1, 38712, Control_c, 0, 67, 58
1, 38714, Note_off_c, 0, 47, 68
1, 38722, Note_off_c, 0, 59, 64
1, 38724, Note_off_c, 0, 71, 66
1, 38727, Control_c, 0, 67, 59
1, 38741, Control_c, 0, 67, 59
1, 38756, Control_c, 0, 67, 61
1, 38771, Control_c, 0, 67, 66
1, 38786, Control_c, 0, 67, 74
1, 38801, Control_c, 0, 67, 82
1, 38816, Control_c, 0, 67, 89
1, 38831, Control_c, 0, 67, 91
1, 38846, Control_c, 0, 67, 91
1, 38875, Control_c, 0, 67, 93
1, 38890, Control_c, 0, 67, 96
1, 38899, Note_on_c, 0, 78, 78
1, 38905, Control_c, 0, 67, 101
1, 38906, Note_on_c, 0, 66, 67
1, 38920, Control_c, 0, 67, 108
1, 38921, Note_off_c, 0, 78, 68
1, 38935, Control_c, 0, 67, 114
1, 38943, Note_off_c, 0, 66, 63
1, 38949, Control_c, 0, 67, 120
1, 38964, Control_c, 0, 67, 127
1, 39165, Control_c, 0, 64, 37
1, 39180, Control_c, 0, 64, 47
1, 39188, Note_on_c, 0, 63, 55
1, 39195, Control_c, 0, 64, 51
1, 39195, Note_on_c, 0, 59, 38
1, 39196, Note_on_c, 0, 91, 71
1, 39209, Note_on_c, 0, 87, 57
1, 39221, Note_off_c, 0, 59, 54
1, 39225, Note_off_c, 0, 63, 65
1, 39239, Control_c, 0, 64, 49
1, 39254, Control_c, 0, 64, 45
1, 39269, Control_c, 0, 64, 39
1, 39284, Control_c, 0, 64, 39
1, 39298, Control_c, 0, 64, 41
1, 39313, Control_c, 0, 64, 42
1, 39328, Control_c, 0, 64, 41
1, 39343, Control_c, 0, 64, 37
1, 39358, Control_c, 0, 64, 35
1, 39372, Control_c, 0, 64, 34
1, 39387, Control_c, 0, 64, 35
1, 39389, Note_off_c, 0, 91, 62
1, 39396, Note_off_c, 0, 87, 58
1, 39402, Note_on_c, 0, 90, 72
1, 39402, Control_c, 0, 64, 34
1, 39405, Note_on_c, 0, 63, 56
1, 39407, Note_on_c, 0, 86, 62
1, 39416, Control_c, 0, 64, 0
1, 39428, Note_off_c, 0, 63, 62
1, 39431, Note_on_c, 0, 67, 20
1, 39431, Note_off_c, 0, 90, 60
1, 39434, Note_off_c, 0, 86, 66
1, 39463, Note_off_c, 0, 67, 41
1, 39483, Note_on_c, 0, 85, 69
1, 39483, Note_on_c, 0, 89, 65
1, 39505, Note_off_c, 0, 85, 70
1, 39535, Note_off_c, 0, 89, 56
1, 39554, Note_on_c, 0, 88, 81
1, 39562, Note_on_c, 0, 84, 74
1, 39565, Note_on_c, 0, 71, 45
1, 39570, Note_on_c, 0, 67, 35
1, 39580, Note_off_c, 0, 88, 65
1, 39583, Note_off_c, 0, 84, 70
1, 39588, Note_off_c, 0, 67, 40
1, 39592, Note_off_c, 0, 71, 55
1, 39642, Note_on_c, 0, 87, 88
1, 39654, Note_on_c, 0, 83, 70
1, 39669, Note_off_c, 0, 83, 69
1, 39683, Note_off_c, 0, 87, 62
1, 39763, Note_on_c, 0, 78, 63
1, 39773, Note_on_c, 0, 74, 47
1, 39773, Note_on_c, 0, 86, 59
1, 39774, Note_on_c, 0, 82, 66
1, 39792, Note_off_c, 0, 78, 66
1, 39797, Note_off_c, 0, 74, 55
1, 39799, Note_off_c, 0, 82, 68
1, 39841, Note_off_c, 0, 86, 62
1, 39858, Note_on_c, 0, 90, 69
1, 39899, Control_c, 0, 64, 55
1, 39914, Control_c, 0, 64, 60
1, 39919, Note_off_c, 0, 90, 62
1, 39928, Control_c, 0, 64, 61
1, 39943, Control_c, 0, 64, 61
1, 39943, Note_on_c, 0, 94, 69
1, 39951, Note_on_c, 0, 70, 57
1, 39951, Note_on_c, 0, 74, 32
1, 39958, Control_c, 0, 64, 63
1, 39968, Note_off_c, 0, 94, 69
1, 39973, Control_c, 0, 64, 64
1, 39984, Note_off_c, 0, 70, 66
1, 39988, Control_c, 0, 64, 64
1, 39998, Note_off_c, 0, 74, 56
1, 40061, Control_c, 0, 64, 65
1, 40076, Control_c, 0, 64, 65
1, 40091, Control_c, 0, 64, 66
1, 40157, Note_on_c, 0, 66, 40
1, 40173, Note_on_c, 0, 70, 23
1, 40180, Control_c, 0, 64, 66
1, 40184, Note_off_c, 0, 66, 58
1, 40198, Note_off_c, 0, 70, 52
1, 40238, Control_c, 0, 64, 67
1, 40253, Control_c, 0, 64, 68
1, 40268, Control_c, 0, 64, 69
1, 40283, Control_c, 0, 64, 71
1, 40298, Control_c, 0, 64, 75
1, 40313, Control_c, 0, 64, 79
1, 40328, Control_c, 0, 64, 77
1, 40331, Note_on_c, 0, 59, 56
1, 40343, Control_c, 0, 64, 63
1, 40354, Note_on_c, 0, 64, 53
1, 40358, Control_c, 0, 64, 0
1, 40366, Note_on_c, 0, 88, 72
1, 40367, Note_off_c, 0, 59, 64
1, 40372, Note_on_c, 0, 84, 58
1, 40381, Note_off_c, 0, 64, 61
1, 40394, Note_off_c, 0, 84, 59
1, 40531, Note_off_c, 0, 88, 64
1, 40545, Note_on_c, 0, 64, 57
1, 40550, Note_on_c, 0, 87, 76
1, 40554, Note_on_c, 0, 83, 72
1, 40554, Note_on_c, 0, 68, 62
1, 40578, Note_off_c, 0, 64, 65
1, 40581, Note_off_c, 0, 68, 66
1, 40590, Note_off_c, 0, 83, 61
1, 40605, Note_off_c, 0, 87, 62
1, 40629, Note_on_c, 0, 86, 85
1, 40644, Note_on_c, 0, 82, 81
1, 40665, Note_off_c, 0, 82, 71
1, 40679, Note_off_c, 0, 86, 64
1, 40680, Note_on_c, 0, 68, 36
1, 40711, Note_on_c, 0, 72, 58
1, 40719, Note_on_c, 0, 85, 84
1, 40727, Note_on_c, 0, 81, 72
1, 40733, Note_off_c, 0, 68, 65
1, 40734, Note_off_c, 0, 72, 65
1, 40750, Note_off_c, 0, 81, 68
1, 40778, Note_off_c, 0, 85, 65
1, 40804, Note_on_c, 0, 84, 78
1, 40807, Note_on_c, 0, 80, 84
1, 40826, Note_off_c, 0, 80, 70
1, 40834, Note_off_c, 0, 84, 63
1, 40885, Note_on_c, 0, 79, 67
1, 40888, Note_on_c, 0, 75, 61
1, 40891, Note_on_c, 0, 83, 83
1, 40915, Note_off_c, 0, 79, 65
1, 40918, Note_off_c, 0, 75, 64
1, 40938, Note_off_c, 0, 83, 64
1, 40974, Note_on_c, 0, 87, 77
1, 41044, Note_off_c, 0, 87, 56
1, 41055, Note_on_c, 0, 75, 51
1, 41055, Note_on_c, 0, 71, 60
1, 41076, Note_on_c, 0, 91, 61
1, 41077, Control_c, 0, 64, 37
1, 41080, Note_on_c, 0, 83, 52
1, 41087, Note_off_c, 0, 71, 65
1, 41087, Note_off_c, 0, 75, 64
1, 41092, Control_c, 0, 64, 62
1, 41094, Note_off_c, 0, 91, 64
1, 41103, Note_off_c, 0, 83, 59
1, 41107, Control_c, 0, 64, 71
1, 41122, Control_c, 0, 64, 77
1, 41136, Control_c, 0, 64, 81
1, 41151, Control_c, 0, 64, 81
1, 41166, Control_c, 0, 64, 82
1, 41181, Control_c, 0, 64, 83
1, 41195, Control_c, 0, 64, 85
1, 41218, Control_c, 0, 64, 86
1, 41233, Control_c, 0, 64, 86
1, 41248, Control_c, 0, 64, 87
1, 41271, Note_on_c, 0, 71, 62
1, 41272, Note_on_c, 0, 67, 54
1, 41304, Note_off_c, 0, 71, 63
1, 41309, Note_off_c, 0, 67, 63
1, 41381, Control_c, 0, 64, 87
1, 41395, Control_c, 0, 64, 90
1, 41410, Control_c, 0, 64, 93
1, 41425, Control_c, 0, 64, 88
1, 41440, Control_c, 0, 64, 68
1, 41443, Note_on_c, 0, 65, 79
1, 41446, Note_on_c, 0, 59, 56
1, 41451, Note_on_c, 0, 85, 81
1, 41453, Note_on_c, 0, 81, 77
1, 41455, Control_c, 0, 64, 0
1, 41458, Note_on_c, 0, 61, 46
1, 41473, Note_off_c, 0, 65, 64
1, 41491, Note_off_c, 0, 61, 61
1, 41616, Note_off_c, 0, 85, 67
1, 41628, Note_on_c, 0, 66, 65
1, 41635, Note_on_c, 0, 80, 76
1, 41636, Note_on_c, 0, 84, 71
1, 41636, Note_off_c, 0, 81, 45
1, 41642, Note_on_c, 0, 62, 62
1, 41661, Note_off_c, 0, 66, 61
1, 41705, Note_off_c, 0, 84, 59
1, 41711, Note_off_c, 0, 80, 54
1, 41717, Note_on_c, 0, 83, 78
1, 41723, Note_on_c, 0, 79, 70
1, 41756, Note_off_c, 0, 83, 62
1, 41788, Note_off_c, 0, 62, 35
1, 41796, Note_on_c, 0, 67, 67
1, 41796, Note_on_c, 0, 82, 85
1, 41797, Note_on_c, 0, 63, 67
1, 41798, Note_off_c, 0, 59, 61
1, 41803, Note_off_c, 0, 79, 55
1, 41818, Note_on_c, 0, 78, 73
1, 41818, Note_off_c, 0, 67, 70
1, 41822, Note_off_c, 0, 63, 66
1, 41834, Note_off_c, 0, 82, 64
1, 41842, Note_off_c, 0, 78, 59
1, 41875, Note_on_c, 0, 81, 88
1, 41884, Note_on_c, 0, 77, 63
1, 41918, Note_off_c, 0, 77, 63
1, 41923, Note_off_c, 0, 81, 64
1, 41967, Note_on_c, 0, 59, 61
1, 41969, Note_on_c, 0, 68, 73
1, 41982, Note_on_c, 0, 80, 89
1, 41997, Note_on_c, 0, 76, 71
1, 41997, Note_off_c, 0, 59, 65
1, 42003, Note_off_c, 0, 68, 63
1, 42023, Note_off_c, 0, 76, 67
1, 42029, Note_off_c, 0, 80, 63
1, 42066, Note_on_c, 0, 83, 79
1, 42142, Note_on_c, 0, 64, 74
1, 42143, Note_on_c, 0, 80, 82
1, 42143, Note_on_c, 0, 88, 77
1, 42146, Note_off_c, 0, 83, 65
1, 42159, Note_off_c, 0, 80, 72
1, 42163, Note_off_c, 0, 88, 71
1, 42168, Note_off_c, 0, 64, 65
1, 42338, Note_on_c, 0, 66, 86
1, 42365, Note_off_c, 0, 66, 66
1, 42539, Note_on_c, 0, 68, 82
1, 42552, Note_on_c, 0, 71, 63
1, 42555, Note_on_c, 0, 76, 73
1, 42579, Note_off_c, 0, 71, 68
1, 42630, Note_on_c, 0, 80, 73
1, 42638, Note_off_c, 0, 76, 62
1, 42711, Note_on_c, 0, 83, 73
1, 42728, Note_off_c, 0, 80, 64
1, 42731, Note_off_c, 0, 83, 72
1, 42917, Note_on_c, 0, 64, 74
1, 42936, Note_off_c, 0, 68, 64
1, 42944, Note_off_c, 0, 64, 67
1, 43119, Note_on_c, 0, 68, 72
1, 43133, Note_on_c, 0, 71, 64
1, 43172, Note_off_c, 0, 71, 61
1, 43198, Note_on_c, 0, 76, 63
1, 43278, Note_on_c, 0, 80, 70
1, 43288, Note_off_c, 0, 76, 62
1, 43303, Note_off_c, 0, 80, 67
1, 43503, Note_on_c, 0, 64, 60
1, 43520, Note_off_c, 0, 68, 57
1, 43547, Note_off_c, 0, 64, 63
1, 44302, Note_on_c, 0, 59, 40
1, 44310, Note_on_c, 0, 79, 58
1, 44317, Note_on_c, 0, 76, 41
1, 44344, Note_off_c, 0, 76, 50
1, 44348, Note_off_c, 0, 59, 60
1, 44349, Note_off_c, 0, 79, 61
1, 44394, Note_on_c, 0, 83, 60
1, 44467, Note_off_c, 0, 83, 62
1, 44471, Note_on_c, 0, 64, 64
1, 44477, Note_on_c, 0, 79, 63
1, 44481, Note_on_c, 0, 88, 58
1, 44497, Note_off_c, 0, 79, 66
1, 44498, Note_off_c, 0, 64, 67
1, 44500, Note_off_c, 0, 88, 64
1, 44671, Note_on_c, 0, 66, 68
1, 44697, Note_off_c, 0, 66, 67
1, 44886, Note_on_c, 0, 76, 63
1, 44887, Note_on_c, 0, 67, 58
1, 44892, Note_on_c, 0, 71, 46
1, 44920, Note_off_c, 0, 71, 59
1, 44973, Note_on_c, 0, 79, 69
1, 44977, Note_off_c, 0, 76, 58
1, 45054, Note_on_c, 0, 83, 62
1, 45066, Note_off_c, 0, 79, 62
1, 45083, Note_off_c, 0, 83, 66
1, 45305, Note_on_c, 0, 64, 47
1, 45327, Note_off_c, 0, 67, 58
1, 45348, Note_off_c, 0, 64, 65
1, 46197, Note_on_c, 0, 67, 44
1, 46207, Note_on_c, 0, 71, 32
1, 46239, Note_off_c, 0, 71, 53
1, 46288, Note_on_c, 0, 76, 45
1, 46364, Note_on_c, 0, 79, 46
1, 46379, Note_off_c, 0, 76, 55
1, 46410, Note_off_c, 0, 79, 64
1, 46771, Note_on_c, 0, 64, 36
1, 46797, Note_off_c, 0, 67, 56
1, 46822, Note_off_c, 0, 64, 61
1, 47822, Note_on_c, 0, 67, 49
1, 47845, Note_off_c, 0, 67, 61
1, 48045, Note_on_c, 0, 72, 57
1, 48075, Note_off_c, 0, 72, 64
1, 48235, Note_on_c, 0, 74, 61
1, 48260, Note_off_c, 0, 74, 66
1, 48402, Note_on_c, 0, 48, 43
1, 48416, Control_c, 0, 64, 35
1, 48427, Note_on_c, 0, 36, 14
1, 48430, Control_c, 0, 64, 51
1, 48445, Control_c, 0, 64, 59
1, 48448, Note_on_c, 0, 75, 62
1, 48460, Control_c, 0, 64, 60
1, 48463, Note_off_c, 0, 36, 50
1, 48479, Note_on_c, 0, 72, 40
1, 48481, Note_off_c, 0, 48, 59
1, 48490, Control_c, 0, 64, 61
1, 48504, Control_c, 0, 64, 62
1, 48519, Control_c, 0, 64, 63
1, 48535, Control_c, 0, 64, 64
1, 48550, Control_c, 0, 64, 65
1, 48565, Control_c, 0, 64, 65
1, 48579, Control_c, 0, 64, 66
1, 48609, Control_c, 0, 64, 66
1, 48624, Control_c, 0, 64, 68
1, 48633, Note_on_c, 0, 51, 49
1, 48638, Note_on_c, 0, 55, 46
1, 48639, Control_c, 0, 64, 69
1, 48654, Control_c, 0, 64, 70
1, 48661, Note_off_c, 0, 51, 58
1, 48664, Note_off_c, 0, 55, 52
1, 48668, Control_c, 0, 64, 71
1, 48707, Control_c, 0, 64, 71
1, 48722, Control_c, 0, 64, 72
1, 48736, Control_c, 0, 64, 72
1, 48751, Control_c, 0, 64, 73
1, 48766, Control_c, 0, 64, 74
1, 48781, Control_c, 0, 64, 74
1, 48810, Control_c, 0, 64, 75
1, 48824, Note_off_c, 0, 72, 62
1, 48826, Note_off_c, 0, 75, 63
1, 48832, Note_on_c, 0, 67, 64
1, 48914, Control_c, 0, 64, 75
1, 48943, Control_c, 0, 64, 76
1, 48988, Control_c, 0, 64, 73
1, 49002, Control_c, 0, 64, 65
1, 49009, Note_on_c, 0, 36, 47
1, 49017, Control_c, 0, 64, 50
1, 49020, Note_on_c, 0, 48, 49
1, 49032, Control_c, 0, 64, 0
1, 49046, Note_off_c, 0, 36, 62
1, 49047, Note_on_c, 0, 78, 73
1, 49053, Note_on_c, 0, 75, 60
1, 49054, Note_on_c, 0, 72, 57
1, 49077, Control_c, 0, 64, 40
1, 49077, Note_off_c, 0, 67, 52
1, 49079, Note_off_c, 0, 48, 61
1, 49092, Control_c, 0, 64, 58
1, 49107, Control_c, 0, 64, 67
1, 49122, Control_c, 0, 64, 72
1, 49136, Control_c, 0, 64, 73
1, 49141, Note_off_c, 0, 72, 56
1, 49151, Control_c, 0, 64, 74
1, 49151, Note_off_c, 0, 75, 58
1, 49166, Control_c, 0, 64, 74
1, 49196, Control_c, 0, 64, 75
1, 49210, Control_c, 0, 64, 76
1, 49225, Control_c, 0, 64, 78
1, 49230, Note_on_c, 0, 55, 60
1, 49233, Note_on_c, 0, 51, 59
1, 49240, Control_c, 0, 64, 80
1, 49250, Note_off_c, 0, 55, 60
1, 49254, Control_c, 0, 64, 82
1, 49257, Note_off_c, 0, 51, 59
1, 49269, Control_c, 0, 64, 84
1, 49284, Control_c, 0, 64, 85
1, 49314, Control_c, 0, 64, 85
1, 49416, Note_on_c, 0, 75, 76
1, 49425, Note_on_c, 0, 72, 56
1, 49426, Note_off_c, 0, 78, 61
1, 49485, Control_c, 0, 64, 85
1, 49589, Control_c, 0, 64, 83
1, 49604, Control_c, 0, 64, 71
1, 49616, Note_on_c, 0, 71, 63
1, 49616, Note_off_c, 0, 72, 38
1, 49618, Note_on_c, 0, 74, 64
1, 49619, Control_c, 0, 64, 51
1, 49622, Note_on_c, 0, 31, 51
1, 49622, Note_on_c, 0, 43, 54
1, 49626, Note_off_c, 0, 75, 63
1, 49633, Control_c, 0, 64, 0
1, 49636, Note_off_c, 0, 74, 66
1, 49643, Note_off_c, 0, 71, 66
1, 49722, Control_c, 0, 64, 49
1, 49737, Control_c, 0, 64, 61
1, 49751, Control_c, 0, 64, 65
1, 49766, Control_c, 0, 64, 68
1, 49771, Note_off_c, 0, 31, 61
1, 49781, Control_c, 0, 64, 68
1, 49796, Control_c, 0, 64, 69
1, 49811, Control_c, 0, 64, 69
1, 49816, Note_off_c, 0, 43, 61
1, 49818, Note_on_c, 0, 79, 64
1, 49825, Control_c, 0, 64, 71
1, 49838, Note_on_c, 0, 71, 41
1, 49840, Control_c, 0, 64, 73
1, 49855, Control_c, 0, 64, 75
1, 49870, Control_c, 0, 64, 78
1, 49885, Control_c, 0, 64, 80
1, 49900, Control_c, 0, 64, 82
1, 49914, Control_c, 0, 64, 85
1, 49929, Control_c, 0, 64, 86
1, 49944, Control_c, 0, 64, 87
1, 49959, Control_c, 0, 64, 88
1, 49974, Control_c, 0, 64, 89
1, 49989, Control_c, 0, 64, 91
1, 50010, Note_on_c, 0, 55, 58
1, 50016, Note_on_c, 0, 43, 36
1, 50019, Control_c, 0, 64, 91
1, 50020, Note_on_c, 0, 50, 53
1, 50027, Note_off_c, 0, 71, 36
1, 50042, Note_off_c, 0, 55, 64
1, 50050, Note_off_c, 0, 43, 53
1, 50055, Note_off_c, 0, 50, 62
1, 50150, Control_c, 0, 64, 92
1, 50174, Note_on_c, 0, 67, 71
1, 50180, Control_c, 0, 64, 90
1, 50195, Control_c, 0, 64, 76
1, 50207, Note_off_c, 0, 67, 67
1, 50217, Control_c, 0, 64, 63
1, 50232, Control_c, 0, 64, 43
1, 50244, Note_off_c, 0, 79, 23
1, 50247, Control_c, 0, 64, 0
1, 50365, Note_on_c, 0, 72, 76
1, 50395, Note_off_c, 0, 72, 60
1, 50547, Note_on_c, 0, 74, 81
1, 50578, Note_off_c, 0, 74, 65
1, 50720, Note_on_c, 0, 36, 51
1, 50724, Note_on_c, 0, 48, 38
1, 50737, Control_c, 0, 64, 38
1, 50752, Control_c, 0, 64, 56
1, 50757, Note_off_c, 0, 36, 62
1, 50758, Note_on_c, 0, 75, 67
1, 50764, Note_on_c, 0, 72, 61
1, 50767, Control_c, 0, 64, 64
1, 50781, Control_c, 0, 64, 66
1, 50782, Note_off_c, 0, 48, 60
1, 50796, Control_c, 0, 64, 67
1, 50811, Control_c, 0, 64, 68
1, 50825, Control_c, 0, 64, 70
1, 50840, Control_c, 0, 64, 73
1, 50855, Control_c, 0, 64, 77
1, 50870, Control_c, 0, 64, 78
1, 50885, Control_c, 0, 64, 80
1, 50899, Control_c, 0, 64, 82
1, 50914, Control_c, 0, 64, 84
1, 50929, Control_c, 0, 64, 86
1, 50952, Note_off_c, 0, 72, 37
1, 50952, Control_c, 0, 64, 89
1, 50959, Note_on_c, 0, 55, 61
1, 50960, Note_on_c, 0, 51, 55
1, 50967, Control_c, 0, 64, 91
1, 50971, Note_off_c, 0, 75, 57
1, 50981, Control_c, 0, 64, 92
1, 50987, Note_off_c, 0, 51, 63
1, 50988, Note_off_c, 0, 55, 63
1, 50996, Control_c, 0, 64, 94
1, 51011, Control_c, 0, 64, 96
1, 51020, Note_on_c, 0, 77, 74
1, 51025, Control_c, 0, 64, 98
1, 51034, Note_on_c, 0, 72, 70
1, 51058, Note_off_c, 0, 72, 66
1, 51061, Note_off_c, 0, 77, 63
1, 51104, Note_on_c, 0, 78, 84
1, 51122, Note_on_c, 0, 72, 68
1, 51128, Note_on_c, 0, 75, 55
1, 51197, Note_off_c, 0, 75, 35
1, 51202, Note_off_c, 0, 72, 48
1, 51228, Note_off_c, 0, 78, 62
1, 51234, Control_c, 0, 64, 101
1, 51278, Control_c, 0, 64, 86
1, 51293, Control_c, 0, 64, 68
1, 51299, Note_on_c, 0, 83, 82
1, 51303, Note_on_c, 0, 75, 71
1, 51306, Note_on_c, 0, 36, 51
1, 51308, Control_c, 0, 64, 55
1, 51310, Note_on_c, 0, 48, 55
1, 51310, Note_on_c, 0, 72, 62
1, 51322, Control_c, 0, 64, 52
1, 51324, Note_off_c, 0, 75, 70
1, 51328, Note_off_c, 0, 72, 64
1, 51328, Note_off_c, 0, 83, 61
1, 51337, Note_off_c, 0, 36, 51
1, 51337, Control_c, 0, 64, 60
1, 51340, Note_off_c, 0, 48, 65
1, 51352, Control_c, 0, 64, 69
1, 51367, Control_c, 0, 64, 79
1, 51382, Control_c, 0, 64, 87
1, 51396, Control_c, 0, 64, 88
1, 51426, Control_c, 0, 64, 88
1, 51501, Note_on_c, 0, 55, 63
1, 51506, Note_on_c, 0, 51, 60
1, 51519, Note_on_c, 0, 48, 36
1, 51532, Note_off_c, 0, 55, 66
1, 51535, Note_off_c, 0, 51, 65
1, 51554, Note_off_c, 0, 48, 46
1, 51559, Note_on_c, 0, 82, 80
1, 51563, Note_on_c, 0, 75, 69
1, 51572, Note_on_c, 0, 72, 65
1, 51588, Note_off_c, 0, 75, 68
1, 51590, Note_off_c, 0, 72, 66
1, 51592, Note_off_c, 0, 82, 56
1, 51641, Note_on_c, 0, 80, 87
1, 51646, Note_on_c, 0, 72, 79
1, 51649, Control_c, 0, 64, 85
1, 51663, Note_on_c, 0, 82, 21
1, 51664, Control_c, 0, 64, 76
1, 51679, Control_c, 0, 64, 72
1, 51701, Control_c, 0, 64, 72
1, 51715, Note_off_c, 0, 82, 28
1, 51716, Control_c, 0, 64, 72
1, 51730, Control_c, 0, 64, 74
1, 51732, Note_off_c, 0, 72, 0
1, 51745, Control_c, 0, 64, 74
1, 51775, Control_c, 0, 64, 75
1, 51789, Note_off_c, 0, 80, 54
1, 51790, Control_c, 0, 64, 76
1, 51797, Poly_aftertouch_c, 0, 72, 0
1, 51819, Control_c, 0, 64, 71
1, 51834, Note_on_c, 0, 74, 77
1, 51834, Control_c, 0, 64, 58
1, 51837, Note_on_c, 0, 71, 65
1, 51843, Note_on_c, 0, 31, 56
1, 51845, Note_on_c, 0, 43, 56
1, 51849, Control_c, 0, 64, 0
1, 51854, Note_off_c, 0, 74, 70
1, 51855, Note_off_c, 0, 71, 64
1, 51861, Note_on_c, 0, 72, 38
1, 51893, Note_off_c, 0, 72, 47
1, 51983, Control_c, 0, 64, 39
1, 51988, Note_off_c, 0, 31, 58
1, 51998, Control_c, 0, 64, 53
1, 52013, Control_c, 0, 64, 63
1, 52028, Control_c, 0, 64, 68
1, 52043, Control_c, 0, 64, 70
1, 52050, Note_on_c, 0, 79, 74
1, 52057, Note_off_c, 0, 43, 61
1, 52058, Control_c, 0, 64, 70
1, 52061, Note_on_c, 0, 71, 61
1, 52065, Note_on_c, 0, 74, 57
1, 52072, Control_c, 0, 64, 71
1, 52087, Control_c, 0, 64, 72
1, 52102, Control_c, 0, 64, 74
1, 52117, Control_c, 0, 64, 77
1, 52132, Control_c, 0, 64, 79
1, 52146, Control_c, 0, 64, 80
1, 52161, Control_c, 0, 64, 81
1, 52171, Note_off_c, 0, 74, 0
1, 52171, Note_on_c, 0, 74, 8
1, 52176, Control_c, 0, 64, 82
1, 52191, Control_c, 0, 64, 83
1, 52205, Control_c, 0, 64, 84
1, 52220, Control_c, 0, 64, 85
1, 52227, Note_off_c, 0, 71, 53
1, 52254, Note_on_c, 0, 55, 53
1, 52256, Note_off_c, 0, 74, 58
1, 52259, Note_on_c, 0, 43, 51
1, 52266, Note_off_c, 0, 79, 63
1, 52267, Note_on_c, 0, 50, 54
1, 52279, Control_c, 0, 64, 85
1, 52284, Note_off_c, 0, 43, 57
1, 52294, Control_c, 0, 64, 86
1, 52295, Note_off_c, 0, 55, 62
1, 52305, Note_off_c, 0, 50, 61
1, 52324, Control_c, 0, 64, 87
1, 52339, Control_c, 0, 64, 88
1, 52353, Control_c, 0, 64, 92
1, 52368, Control_c, 0, 64, 100
1, 52383, Control_c, 0, 64, 117
1, 52398, Control_c, 0, 64, 124
1, 52412, Control_c, 0, 64, 94
1, 52427, Control_c, 0, 64, 71
1, 52432, Note_on_c, 0, 72, 76
1, 52450, Control_c, 0, 64, 51
1, 52465, Control_c, 0, 64, 0
1, 52466, Note_off_c, 0, 72, 65
1, 52617, Note_on_c, 0, 77, 76
1, 52641, Note_off_c, 0, 77, 66
1, 52799, Note_on_c, 0, 79, 85
1, 52836, Note_off_c, 0, 79, 65
1, 52940, Control_c, 0, 64, 45
1, 52955, Control_c, 0, 64, 60
1, 52959, Note_on_c, 0, 41, 47
1, 52967, Note_on_c, 0, 53, 52
1, 52969, Control_c, 0, 64, 65
1, 52984, Control_c, 0, 64, 69
1, 52992, Note_off_c, 0, 41, 63
1, 52997, Note_on_c, 0, 80, 79
1, 52999, Control_c, 0, 64, 73
1, 53006, Note_on_c, 0, 77, 64
1, 53014, Control_c, 0, 64, 77
1, 53017, Note_off_c, 0, 53, 58
1, 53028, Control_c, 0, 64, 80
1, 53043, Control_c, 0, 64, 84
1, 53058, Control_c, 0, 64, 88
1, 53073, Control_c, 0, 64, 93
1, 53088, Control_c, 0, 64, 99
1, 53102, Control_c, 0, 64, 107
1, 53117, Control_c, 0, 64, 117
1, 53132, Control_c, 0, 64, 127
1, 53176, Note_on_c, 0, 60, 65
1, 53182, Note_on_c, 0, 56, 63
1, 53196, Note_on_c, 0, 53, 46
1, 53212, Note_off_c, 0, 60, 68
1, 53220, Note_off_c, 0, 56, 64
1, 53224, Note_off_c, 0, 53, 56
1, 53317, Control_c, 0, 67, 124
1, 53332, Control_c, 0, 67, 118
1, 53334, Note_off_c, 0, 80, 56
1, 53347, Control_c, 0, 67, 115
1, 53362, Control_c, 0, 67, 111
1, 53371, Note_on_c, 0, 72, 79
1, 53376, Control_c, 0, 67, 103
1, 53391, Control_c, 0, 67, 87
1, 53406, Control_c, 0, 67, 73
1, 53420, Control_c, 0, 67, 67
1, 53465, Control_c, 0, 67, 65
1, 53481, Control_c, 0, 67, 62
1, 53496, Control_c, 0, 67, 57
1, 53525, Control_c, 0, 67, 58
1, 53540, Note_on_c, 0, 41, 64
1, 53540, Control_c, 0, 64, 77
1, 53540, Control_c, 0, 67, 59
1, 53543, Note_off_c, 0, 77, 57
1, 53548, Note_on_c, 0, 83, 88
1, 53550, Note_on_c, 0, 53, 69
1, 53554, Note_on_c, 0, 80, 81
1, 53555, Control_c, 0, 64, 62
1, 53569, Note_off_c, 0, 41, 63
1, 53570, Control_c, 0, 64, 62
1, 53570, Control_c, 0, 67, 58
1, 53585, Control_c, 0, 64, 66
1, 53585, Control_c, 0, 67, 57
1, 53588, Note_off_c, 0, 53, 61
1, 53599, Control_c, 0, 64, 74
1, 53614, Control_c, 0, 64, 88
1, 53614, Control_c, 0, 67, 59
1, 53629, Control_c, 0, 64, 109
1, 53629, Control_c, 0, 67, 64
1, 53644, Control_c, 0, 64, 127
1, 53644, Control_c, 0, 67, 65
1, 53658, Control_c, 0, 67, 64
1, 53673, Control_c, 0, 67, 61
1, 53688, Control_c, 0, 67, 58
1, 53703, Control_c, 0, 67, 57
1, 53708, Note_off_c, 0, 80, 62
1, 53718, Control_c, 0, 67, 58
1, 53733, Control_c, 0, 67, 61
1, 53739, Note_on_c, 0, 60, 63
1, 53745, Note_on_c, 0, 56, 59
1, 53746, Note_on_c, 0, 53, 53
1, 53748, Control_c, 0, 67, 63
1, 53763, Note_off_c, 0, 60, 65
1, 53763, Control_c, 0, 67, 63
1, 53775, Note_off_c, 0, 53, 63
1, 53777, Note_off_c, 0, 56, 64
1, 53778, Control_c, 0, 67, 60
1, 53792, Control_c, 0, 67, 57
1, 53802, Note_on_c, 0, 73, 77
1, 53807, Control_c, 0, 67, 55
1, 53816, Note_off_c, 0, 83, 57
1, 53822, Control_c, 0, 67, 55
1, 53828, Note_off_c, 0, 72, 37
1, 53834, Note_off_c, 0, 73, 61
1, 53837, Control_c, 0, 67, 58
1, 53851, Control_c, 0, 67, 60
1, 53866, Control_c, 0, 67, 59
1, 53881, Control_c, 0, 67, 54
1, 53894, Note_on_c, 0, 74, 83
1, 53896, Control_c, 0, 67, 49
1, 53903, Note_on_c, 0, 83, 76
1, 53907, Note_on_c, 0, 81, 61
1, 53911, Control_c, 0, 67, 39
1, 53914, Note_off_c, 0, 74, 72
1, 53918, Note_off_c, 0, 83, 68
1, 53925, Control_c, 0, 67, 35
1, 53926, Note_off_c, 0, 81, 62
1, 53948, Control_c, 0, 67, 40
1, 53963, Control_c, 0, 67, 43
1, 53977, Control_c, 0, 67, 40
1, 53992, Control_c, 0, 67, 34
1, 54007, Control_c, 0, 67, 29
1, 54022, Control_c, 0, 67, 19
1, 54051, Control_c, 0, 67, 26
1, 54066, Control_c, 0, 67, 29
1, 54081, Control_c, 0, 67, 27
1, 54090, Note_on_c, 0, 39, 80
1, 54090, Note_on_c, 0, 51, 85
1, 54096, Control_c, 0, 64, 78
1, 54096, Control_c, 0, 67, 23
1, 54099, Note_on_c, 0, 84, 72
1, 54102, Note_on_c, 0, 80, 77
1, 54108, Note_on_c, 0, 75, 59
1, 54111, Control_c, 0, 64, 0
1, 54111, Control_c, 0, 67, 21
1, 54113, Note_on_c, 0, 83, 67
1, 54113, Note_off_c, 0, 75, 48
1, 54117, Note_off_c, 0, 84, 66
1, 54120, Note_off_c, 0, 80, 69
1, 54129, Note_off_c, 0, 83, 41
1, 54140, Control_c, 0, 67, 27
1, 54155, Control_c, 0, 67, 31
1, 54169, Control_c, 0, 67, 34
1, 54184, Control_c, 0, 67, 33
1, 54199, Control_c, 0, 67, 30
1, 54243, Control_c, 0, 67, 38
1, 54258, Control_c, 0, 64, 54
1, 54258, Control_c, 0, 67, 46
1, 54267, Note_off_c, 0, 39, 62
1, 54274, Control_c, 0, 64, 71
1, 54274, Control_c, 0, 67, 55
1, 54279, Note_on_c, 0, 75, 85
1, 54279, Note_on_c, 0, 87, 94
1, 54287, Note_on_c, 0, 80, 79
1, 54289, Control_c, 0, 64, 78
1, 54289, Control_c, 0, 67, 51
1, 54292, Note_off_c, 0, 51, 63
1, 54304, Control_c, 0, 64, 83
1, 54304, Control_c, 0, 67, 47
1, 54319, Control_c, 0, 64, 88
1, 54319, Control_c, 0, 67, 44
1, 54334, Control_c, 0, 64, 103
1, 54334, Control_c, 0, 67, 43
1, 54348, Control_c, 0, 64, 127
1, 54348, Control_c, 0, 67, 48
1, 54363, Control_c, 0, 67, 51
1, 54378, Control_c, 0, 67, 51
1, 54393, Control_c, 0, 67, 47
1, 54408, Control_c, 0, 67, 41
1, 54419, Note_off_c, 0, 75, 55
1, 54422, Control_c, 0, 67, 33
1, 54437, Control_c, 0, 67, 31
1, 54448, Note_on_c, 0, 51, 52
1, 54452, Control_c, 0, 67, 38
1, 54459, Note_on_c, 0, 60, 67
1, 54466, Control_c, 0, 67, 41
1, 54470, Note_on_c, 0, 63, 74
1, 54471, Note_on_c, 0, 56, 53
1, 54478, Note_off_c, 0, 51, 61
1, 54479, Note_off_c, 0, 87, 63
1, 54481, Control_c, 0, 67, 39
1, 54483, Note_off_c, 0, 80, 32
1, 54490, Note_off_c, 0, 60, 66
1, 54496, Control_c, 0, 67, 33
1, 54497, Note_off_c, 0, 56, 61
1, 54505, Note_off_c, 0, 63, 60
1, 54511, Control_c, 0, 67, 23
1, 54526, Control_c, 0, 67, 0
1, 54598, Note_on_c, 0, 53, 69
1, 54617, Note_on_c, 0, 60, 66
1, 54627, Note_on_c, 0, 74, 95
1, 54630, Control_c, 0, 64, 91
1, 54631, Note_on_c, 0, 62, 65
1, 54631, Note_on_c, 0, 68, 86
1, 54642, Note_off_c, 0, 53, 60
1, 54645, Control_c, 0, 64, 37
1, 54659, Note_off_c, 0, 62, 67
1, 54659, Note_off_c, 0, 68, 64
1, 54660, Control_c, 0, 64, 0
1, 54660, Control_c, 0, 67, 24
1, 54664, Note_off_c, 0, 74, 63
1, 54672, Note_off_c, 0, 60, 65
1, 54674, Control_c, 0, 67, 20
1, 54696, Control_c, 0, 67, 0
1, 54807, Note_on_c, 0, 80, 91
1, 54835, Note_off_c, 0, 80, 67
1, 54986, Note_on_c, 0, 82, 89
1, 55030, Note_off_c, 0, 82, 66
1, 55155, Note_on_c, 0, 51, 96
1, 55157, Control_c, 0, 67, 26
1, 55158, Note_on_c, 0, 84, 90
1, 55159, Note_on_c, 0, 39, 72
1, 55161, Note_on_c, 0, 75, 81
1, 55171, Control_c, 0, 64, 57
1, 55171, Control_c, 0, 67, 0
1, 55173, Note_on_c, 0, 80, 78
1, 55186, Note_off_c, 0, 75, 66
1, 55186, Control_c, 0, 64, 127
1, 55188, Note_off_c, 0, 39, 64
1, 55190, Note_off_c, 0, 51, 65
1, 55200, Note_off_c, 0, 80, 63
1, 55212, Note_off_c, 0, 84, 65
1, 55349, Note_on_c, 0, 75, 87
1, 55351, Note_on_c, 0, 87, 102
1, 55358, Note_on_c, 0, 80, 84
1, 55387, Note_off_c, 0, 75, 58
1, 55471, Note_off_c, 0, 80, 55
1, 55528, Note_on_c, 0, 63, 84
1, 55530, Note_on_c, 0, 51, 65
1, 55530, Note_on_c, 0, 60, 74
1, 55539, Note_on_c, 0, 56, 67
1, 55548, Note_off_c, 0, 51, 68
1, 55554, Note_off_c, 0, 63, 66
1, 55562, Note_off_c, 0, 60, 66
1, 55572, Note_off_c, 0, 56, 62
1, 55638, Note_off_c, 0, 87, 55
1, 55655, Note_on_c, 0, 50, 77
1, 55690, Note_on_c, 0, 56, 85
1, 55701, Note_off_c, 0, 50, 63
1, 55709, Note_on_c, 0, 60, 78
1, 55709, Note_on_c, 0, 65, 95
1, 55723, Note_on_c, 0, 77, 93
1, 55727, Control_c, 0, 64, 79
1, 55742, Control_c, 0, 64, 0
1, 55745, Note_off_c, 0, 65, 65
1, 55748, Note_off_c, 0, 56, 63
1, 55751, Note_off_c, 0, 60, 65
1, 55764, Note_off_c, 0, 77, 66
1, 55927, Note_on_c, 0, 80, 96
1, 55957, Note_off_c, 0, 80, 67
1, 56141, Note_on_c, 0, 82, 97
1, 56162, Note_on_c, 0, 81, 77
1, 56167, Note_off_c, 0, 82, 50
1, 56176, Note_off_c, 0, 81, 69
1, 56349, Note_on_c, 0, 31, 81
1, 56353, Note_on_c, 0, 43, 93
1, 56357, Control_c, 0, 64, 62
1, 56371, Control_c, 0, 64, 127
1, 56377, Note_off_c, 0, 31, 67
1, 56380, Note_on_c, 0, 84, 95
1, 56393, Note_off_c, 0, 43, 66
1, 56422, Note_off_c, 0, 84, 66
1, 56590, Note_on_c, 0, 92, 107
1, 56625, Note_off_c, 0, 92, 62
1, 56753, Note_on_c, 0, 67, 88
1, 56758, Control_c, 0, 67, 21
1, 56759, Note_on_c, 0, 63, 75
1, 56761, Note_on_c, 0, 60, 72
1, 56762, Note_on_c, 0, 55, 70
1, 56772, Note_off_c, 0, 67, 72
1, 56774, Control_c, 0, 67, 24
1, 56785, Note_off_c, 0, 63, 68
1, 56786, Note_off_c, 0, 60, 70
1, 56788, Control_c, 0, 67, 0
1, 56801, Note_off_c, 0, 55, 60
1, 56862, Control_c, 0, 67, 19
1, 56877, Control_c, 0, 67, 0
1, 56933, Note_on_c, 0, 78, 99
1, 56943, Control_c, 0, 64, 69
1, 56943, Control_c, 0, 67, 20
1, 56958, Control_c, 0, 64, 0
1, 56958, Control_c, 0, 67, 30
1, 56968, Note_off_c, 0, 78, 63
1, 56973, Control_c, 0, 67, 35
1, 56988, Control_c, 0, 67, 32
1, 57003, Control_c, 0, 67, 29
1, 57048, Control_c, 0, 67, 36
1, 57063, Control_c, 0, 67, 41
1, 57077, Control_c, 0, 67, 43
1, 57092, Control_c, 0, 67, 39
1, 57107, Control_c, 0, 67, 34
1, 57115, Note_on_c, 0, 43, 73
1, 57117, Note_on_c, 0, 55, 80
1, 57122, Control_c, 0, 64, 42
1, 57122, Control_c, 0, 67, 32
1, 57125, Note_on_c, 0, 87, 93
1, 57137, Control_c, 0, 64, 87
1, 57137, Control_c, 0, 67, 35
1, 57139, Note_off_c, 0, 43, 67
1, 57142, Note_off_c, 0, 55, 67
1, 57151, Control_c, 0, 64, 127
1, 57151, Control_c, 0, 67, 42
1, 57152, Note_off_c, 0, 87, 64
1, 57166, Control_c, 0, 67, 47
1, 57181, Control_c, 0, 67, 48
1, 57195, Control_c, 0, 67, 43
1, 57210, Control_c, 0, 67, 38
1, 57225, Control_c, 0, 67, 36
1, 57240, Control_c, 0, 67, 39
1, 57255, Control_c, 0, 67, 47
1, 57269, Control_c, 0, 67, 51
1, 57284, Control_c, 0, 67, 55
1, 57292, Note_on_c, 0, 67, 72
1, 57295, Note_on_c, 0, 55, 71
1, 57298, Note_on_c, 0, 60, 55
1, 57299, Control_c, 0, 67, 52
1, 57307, Note_on_c, 0, 63, 61
1, 57314, Control_c, 0, 67, 46
1, 57319, Note_off_c, 0, 67, 66
1, 57324, Note_off_c, 0, 60, 60
1, 57325, Note_off_c, 0, 55, 64
1, 57329, Control_c, 0, 67, 43
1, 57335, Note_off_c, 0, 63, 64
1, 57343, Control_c, 0, 67, 45
1, 57358, Control_c, 0, 67, 51
1, 57373, Control_c, 0, 67, 52
1, 57388, Control_c, 0, 67, 53
1, 57402, Control_c, 0, 67, 51
1, 57417, Control_c, 0, 67, 45
1, 57432, Control_c, 0, 67, 43
1, 57447, Control_c, 0, 67, 48
1, 57462, Control_c, 0, 64, 87
1, 57462, Control_c, 0, 67, 58
1, 57468, Note_on_c, 0, 71, 88
1, 57478, Control_c, 0, 64, 50
1, 57478, Control_c, 0, 67, 68
1, 57492, Control_c, 0, 64, 0
1, 57492, Control_c, 0, 67, 75
1, 57496, Note_off_c, 0, 71, 66
1, 57507, Control_c, 0, 67, 74
1, 57522, Control_c, 0, 67, 69
1, 57537, Control_c, 0, 67, 66
1, 57552, Control_c, 0, 67, 68
1, 57566, Control_c, 0, 67, 76
1, 57581, Control_c, 0, 67, 78
1, 57596, Control_c, 0, 67, 79
1, 57611, Control_c, 0, 67, 78
1, 57626, Control_c, 0, 64, 48
1, 57626, Control_c, 0, 67, 74
1, 57633, Note_on_c, 0, 55, 69
1, 57633, Note_on_c, 0, 80, 88
1, 57641, Control_c, 0, 64, 66
1, 57641, Control_c, 0, 67, 69
1, 57651, Note_on_c, 0, 41, 39
1, 57654, Note_on_c, 0, 43, 40
1, 57654, Note_off_c, 0, 80, 67
1, 57656, Control_c, 0, 64, 76
1, 57656, Control_c, 0, 67, 72
1, 57662, Note_off_c, 0, 55, 68
1, 57671, Control_c, 0, 64, 90
1, 57671, Control_c, 0, 67, 79
1, 57692, Control_c, 0, 64, 115
1, 57692, Control_c, 0, 67, 82
1, 57693, Note_off_c, 0, 41, 33
1, 57695, Note_off_c, 0, 43, 54
1, 57707, Control_c, 0, 64, 127
1, 57707, Control_c, 0, 67, 84
1, 57737, Control_c, 0, 67, 81
1, 57751, Control_c, 0, 67, 76
1, 57766, Control_c, 0, 67, 75
1, 57781, Control_c, 0, 67, 83
1, 57796, Control_c, 0, 67, 88
1, 57808, Note_on_c, 0, 63, 71
1, 57811, Control_c, 0, 67, 92
1, 57817, Note_on_c, 0, 60, 41
1, 57826, Control_c, 0, 67, 93
1, 57832, Note_off_c, 0, 63, 69
1, 57841, Control_c, 0, 67, 92
1, 57849, Note_off_c, 0, 60, 55
1, 57856, Control_c, 0, 67, 88
1, 57870, Control_c, 0, 67, 87
1, 57885, Control_c, 0, 67, 91
1, 57900, Control_c, 0, 67, 95
1, 57915, Control_c, 0, 67, 97
1, 57959, Control_c, 0, 67, 94
1, 57972, Note_on_c, 0, 66, 81
1, 57974, Control_c, 0, 64, 73
1, 57974, Control_c, 0, 67, 94
1, 57989, Control_c, 0, 64, 34
1, 57989, Control_c, 0, 67, 101
1, 57996, Note_off_c, 0, 66, 67
1, 58004, Control_c, 0, 64, 0
1, 58004, Control_c, 0, 67, 110
1, 58018, Control_c, 0, 67, 118
1, 58092, Control_c, 0, 67, 127
1, 58136, Control_c, 0, 64, 34
1, 58151, Control_c, 0, 64, 56
1, 58154, Note_on_c, 0, 75, 74
1, 58158, Note_on_c, 0, 43, 44
1, 58163, Note_on_c, 0, 55, 57
1, 58166, Control_c, 0, 64, 67
1, 58180, Note_off_c, 0, 75, 66
1, 58181, Control_c, 0, 64, 77
1, 58186, Note_off_c, 0, 55, 63
1, 58189, Note_off_c, 0, 43, 49
1, 58196, Control_c, 0, 64, 91
1, 58210, Control_c, 0, 64, 117
1, 58225, Control_c, 0, 64, 127
1, 58312, Note_on_c, 0, 63, 75
1, 58326, Note_on_c, 0, 60, 50
1, 58342, Note_off_c, 0, 63, 63
1, 58351, Note_off_c, 0, 60, 59
1, 58485, Control_c, 0, 64, 83
1, 58496, Note_on_c, 0, 59, 76
1, 58500, Control_c, 0, 64, 54
1, 58515, Control_c, 0, 64, 0
1, 58517, Note_off_c, 0, 59, 71
1, 58680, Note_on_c, 0, 69, 60
1, 58699, Note_off_c, 0, 69, 65
1, 58866, Note_on_c, 0, 81, 69
1, 59023, Note_on_c, 0, 50, 71
1, 59052, Note_off_c, 0, 50, 66
1, 59202, Note_on_c, 0, 55, 76
1, 59207, Note_off_c, 0, 81, 63
1, 59213, Note_on_c, 0, 80, 67
1, 59235, Note_off_c, 0, 55, 63
1, 59275, Note_off_c, 0, 80, 66
1, 59296, Note_on_c, 0, 79, 68
1, 59367, Note_off_c, 0, 79, 63
1, 59373, Note_on_c, 0, 78, 73
1, 59374, Note_on_c, 0, 57, 75
1, 59397, Note_off_c, 0, 57, 70
1, 59423, Note_off_c, 0, 78, 63
1, 59447, Note_on_c, 0, 77, 68
1, 59504, Note_off_c, 0, 77, 62
1, 59530, Note_on_c, 0, 59, 73
1, 59545, Note_on_c, 0, 51, 67
1, 59546, Note_on_c, 0, 76, 73
1, 59572, Note_off_c, 0, 76, 66
1, 59712, Note_on_c, 0, 75, 68
1, 59763, Note_off_c, 0, 75, 62
1, 59781, Note_on_c, 0, 74, 73
1, 59850, Note_off_c, 0, 74, 60
1, 59860, Note_on_c, 0, 75, 71
1, 59872, Note_on_c, 0, 56, 81
1, 59880, Note_off_c, 0, 51, 62
1, 59894, Note_off_c, 0, 59, 62
1, 59898, Note_off_c, 0, 56, 67
1, 59942, Note_on_c, 0, 73, 74
1, 59982, Note_off_c, 0, 75, 46
1, 60023, Note_off_c, 0, 73, 62
1, 60036, Note_on_c, 0, 72, 75
1, 60043, Note_on_c, 0, 62, 82
1, 60060, Note_off_c, 0, 72, 67
1, 60199, Note_on_c, 0, 71, 66
1, 60252, Note_off_c, 0, 71, 61
1, 60280, Note_on_c, 0, 69, 66
1, 60343, Note_off_c, 0, 69, 58
1, 60364, Note_on_c, 0, 70, 66
1, 60367, Note_on_c, 0, 59, 67
1, 60380, Note_off_c, 0, 62, 62
1, 60392, Note_off_c, 0, 59, 69
1, 60432, Note_on_c, 0, 68, 68
1, 60432, Note_off_c, 0, 70, 65
1, 60471, Note_off_c, 0, 68, 64
1, 60509, Note_on_c, 0, 67, 71
1, 60521, Note_on_c, 0, 63, 83
1, 60544, Note_off_c, 0, 63, 67
1, 60565, Note_off_c, 0, 67, 62
1, 60592, Note_on_c, 0, 68, 72
1, 60604, Note_on_c, 0, 65, 53
1, 60634, Note_off_c, 0, 65, 61
1, 60643, Note_off_c, 0, 68, 61
1, 60688, Note_on_c, 0, 58, 69
1, 60689, Note_on_c, 0, 67, 71
1, 60725, Note_off_c, 0, 67, 61
1, 60766, Note_on_c, 0, 68, 68
1, 60767, Note_on_c, 0, 65, 49
1, 60819, Note_off_c, 0, 65, 63
1, 60839, Note_on_c, 0, 70, 71
1, 60842, Note_off_c, 0, 68, 63
1, 60849, Note_off_c, 0, 58, 64
1, 60851, Note_on_c, 0, 67, 48
1, 60861, Note_off_c, 0, 70, 70
1, 60875, Note_off_c, 0, 67, 58
1, 61008, Note_on_c, 0, 75, 80
1, 61017, Note_on_c, 0, 79, 75
1, 61028, Note_off_c, 0, 75, 70
1, 61057, Note_off_c, 0, 79, 60
1, 61093, Note_on_c, 0, 80, 66
1, 61110, Note_off_c, 0, 80, 63
1, 61167, Note_on_c, 0, 70, 73
1, 61170, Note_on_c, 0, 79, 73
1, 61191, Control_c, 0, 64, 50
1, 61206, Control_c, 0, 64, 46
1, 61221, Control_c, 0, 64, 0
1, 61224, Note_off_c, 0, 79, 64
1, 61240, Note_on_c, 0, 80, 58
1, 61253, Note_on_c, 0, 77, 58
1, 61294, Control_c, 0, 64, 36
1, 61309, Control_c, 0, 64, 0
1, 61315, Note_off_c, 0, 77, 62
1, 61319, Note_on_c, 0, 82, 72
1, 61330, Note_off_c, 0, 80, 63
1, 61333, Note_on_c, 0, 79, 72
1, 61338, Note_off_c, 0, 70, 63
1, 61342, Note_off_c, 0, 82, 69
1, 61351, Note_off_c, 0, 79, 69
1, 61498, Note_on_c, 0, 87, 74
1, 61501, Note_on_c, 0, 91, 72
1, 61519, Note_off_c, 0, 87, 71
1, 61573, Note_off_c, 0, 91, 61
1, 61579, Note_on_c, 0, 92, 73
1, 61632, Note_off_c, 0, 92, 64
1, 61653, Note_on_c, 0, 94, 81
1, 61658, Note_on_c, 0, 82, 70
1, 61688, Control_c, 0, 64, 43
1, 61703, Control_c, 0, 64, 37
1, 61717, Control_c, 0, 64, 0
1, 61737, Note_on_c, 0, 92, 77
1, 61739, Note_off_c, 0, 94, 64
1, 61783, Note_off_c, 0, 92, 68
1, 61808, Note_on_c, 0, 91, 75
1, 61855, Note_off_c, 0, 91, 62
1, 61868, Note_off_c, 0, 82, 62
1, 61880, Note_on_c, 0, 80, 64
1, 61886, Note_on_c, 0, 89, 72
1, 61931, Note_off_c, 0, 80, 60
1, 61936, Note_off_c, 0, 89, 64
1, 61966, Note_on_c, 0, 79, 72
1, 61975, Note_on_c, 0, 87, 78
1, 62004, Note_off_c, 0, 79, 62
1, 62023, Note_off_c, 0, 87, 64
1, 62042, Note_on_c, 0, 84, 72
1, 62056, Note_on_c, 0, 80, 62
1, 62094, Note_off_c, 0, 80, 60
1, 62121, Note_on_c, 0, 82, 74
1, 62124, Note_off_c, 0, 84, 63
1, 62130, Note_on_c, 0, 79, 62
1, 62170, Note_off_c, 0, 79, 62
1, 62201, Note_on_c, 0, 80, 74
1, 62216, Note_on_c, 0, 77, 55
1, 62224, Note_off_c, 0, 82, 61
1, 62266, Note_off_c, 0, 77, 52
1, 62270, Note_off_c, 0, 80, 62
1, 62273, Note_on_c, 0, 79, 84
1, 62294, Note_on_c, 0, 75, 53
1, 62308, Note_off_c, 0, 79, 66
1, 62328, Note_off_c, 0, 75, 63
1, 62357, Note_on_c, 0, 77, 77
1, 62366, Note_on_c, 0, 70, 67
1, 62391, Note_off_c, 0, 77, 66
1, 62398, Note_off_c, 0, 70, 64
1, 62422, Control_c, 0, 64, 43
1, 62427, Note_on_c, 0, 75, 60
1, 62437, Control_c, 0, 64, 67
1, 62438, Note_on_c, 0, 79, 62
1, 62439, Note_on_c, 0, 82, 76
1, 62452, Control_c, 0, 64, 68
1, 62456, Note_off_c, 0, 75, 66
1, 62467, Control_c, 0, 64, 68
1, 62476, Note_off_c, 0, 79, 63
1, 62481, Control_c, 0, 64, 66
1, 62482, Note_off_c, 0, 82, 62
1, 62508, Note_on_c, 0, 68, 71
1, 62524, Note_on_c, 0, 72, 66
1, 62540, Control_c, 0, 64, 65
1, 62550, Note_off_c, 0, 68, 55
1, 62555, Control_c, 0, 64, 64
1, 62570, Control_c, 0, 64, 64
1, 62605, Note_off_c, 0, 72, 60
1, 62607, Note_on_c, 0, 67, 63
1, 62610, Note_on_c, 0, 71, 55
1, 62614, Control_c, 0, 64, 63
1, 62629, Control_c, 0, 64, 62
1, 62654, Note_off_c, 0, 67, 55
1, 62657, Note_on_c, 0, 68, 81
1, 62675, Note_on_c, 0, 65, 70
1, 62709, Note_off_c, 0, 71, 40
1, 62732, Note_off_c, 0, 68, 64
1, 62740, Note_on_c, 0, 67, 74
1, 62747, Control_c, 0, 64, 63
1, 62755, Note_off_c, 0, 65, 62
1, 62762, Control_c, 0, 64, 64
1, 62777, Control_c, 0, 64, 65
1, 62783, Note_on_c, 0, 63, 35
1, 62787, Note_off_c, 0, 67, 62
1, 62792, Control_c, 0, 64, 68
1, 62807, Note_on_c, 0, 58, 53
1, 62807, Control_c, 0, 64, 73
1, 62816, Note_off_c, 0, 63, 52
1, 62819, Note_on_c, 0, 65, 74
1, 62822, Control_c, 0, 64, 82
1, 62831, Note_off_c, 0, 58, 58
1, 62837, Control_c, 0, 64, 98
1, 62851, Control_c, 0, 64, 115
1, 62866, Control_c, 0, 64, 94
1, 62881, Control_c, 0, 64, 67
1, 62889, Note_off_c, 0, 65, 64
1, 62896, Control_c, 0, 64, 0
1, 62899, Note_on_c, 0, 51, 85
1, 62901, Note_on_c, 0, 63, 73
1, 62905, Note_on_c, 0, 39, 84
1, 62911, Control_c, 0, 67, 117
1, 62931, Note_off_c, 0, 51, 67
1, 62932, Control_c, 0, 67, 99
1, 62935, Note_off_c, 0, 39, 65
1, 62943, Note_off_c, 0, 63, 63
1, 62947, Control_c, 0, 67, 82
1, 62962, Control_c, 0, 67, 81
1, 62977, Control_c, 0, 67, 84
1, 62992, Control_c, 0, 67, 79
1, 62997, Note_on_c, 0, 65, 78
1, 63007, Control_c, 0, 67, 71
1, 63021, Control_c, 0, 67, 52
1, 63036, Control_c, 0, 67, 33
1, 63045, Note_off_c, 0, 65, 57
1, 63051, Control_c, 0, 67, 30
1, 63067, Control_c, 0, 67, 35
1, 63068, Note_on_c, 0, 55, 71
1, 63070, Note_on_c, 0, 43, 74
1, 63076, Note_on_c, 0, 67, 69
1, 63082, Control_c, 0, 67, 35
1, 63093, Note_off_c, 0, 55, 68
1, 63097, Control_c, 0, 67, 30
1, 63102, Note_off_c, 0, 43, 64
1, 63132, Note_off_c, 0, 67, 63
1, 63141, Control_c, 0, 67, 34
1, 63153, Note_on_c, 0, 68, 68
1, 63156, Control_c, 0, 67, 43
1, 63171, Control_c, 0, 67, 46
1, 63185, Control_c, 0, 67, 43
1, 63190, Note_off_c, 0, 68, 64
1, 63200, Control_c, 0, 67, 39
1, 63215, Control_c, 0, 67, 37
1, 63217, Note_on_c, 0, 69, 74
1, 63224, Note_on_c, 0, 46, 85
1, 63225, Note_on_c, 0, 58, 81
1, 63230, Control_c, 0, 67, 39
1, 63245, Control_c, 0, 67, 49
1, 63248, Note_off_c, 0, 58, 67
1, 63250, Note_off_c, 0, 46, 68
1, 63260, Control_c, 0, 67, 59
1, 63271, Note_off_c, 0, 69, 62
1, 63275, Control_c, 0, 67, 60
1, 63289, Control_c, 0, 67, 54
1, 63298, Note_on_c, 0, 70, 74
1, 63304, Control_c, 0, 67, 50
1, 63319, Control_c, 0, 67, 47
1, 63334, Control_c, 0, 67, 48
1, 63337, Note_off_c, 0, 70, 59
1, 63349, Control_c, 0, 67, 54
1, 63363, Control_c, 0, 67, 55
1, 63375, Note_on_c, 0, 71, 78
1, 63378, Note_on_c, 0, 59, 83
1, 63378, Control_c, 0, 67, 49
1, 63381, Note_on_c, 0, 47, 85
1, 63393, Control_c, 0, 67, 43
1, 63396, Note_off_c, 0, 59, 73
1, 63406, Note_off_c, 0, 47, 70
1, 63408, Control_c, 0, 67, 32
1, 63423, Control_c, 0, 67, 24
1, 63425, Note_off_c, 0, 71, 63
1, 63437, Control_c, 0, 67, 31
1, 63452, Control_c, 0, 67, 40
1, 63462, Note_on_c, 0, 73, 75
1, 63463, Note_on_c, 0, 70, 72
1, 63467, Control_c, 0, 67, 49
1, 63481, Control_c, 0, 67, 47
1, 63496, Control_c, 0, 67, 42
1, 63501, Note_off_c, 0, 73, 58
1, 63509, Note_off_c, 0, 70, 61
1, 63511, Control_c, 0, 67, 39
1, 63526, Control_c, 0, 67, 40
1, 63537, Note_on_c, 0, 44, 93
1, 63537, Note_on_c, 0, 56, 95
1, 63541, Control_c, 0, 67, 50
1, 63545, Note_on_c, 0, 71, 81
1, 63555, Control_c, 0, 67, 55
1, 63570, Control_c, 0, 64, 60
1, 63570, Control_c, 0, 67, 59
1, 63585, Control_c, 0, 67, 57
1, 63592, Note_off_c, 0, 71, 61
1, 63600, Control_c, 0, 64, 39
1, 63600, Control_c, 0, 67, 50
1, 63615, Control_c, 0, 64, 0
1, 63615, Control_c, 0, 67, 47
1, 63623, Note_on_c, 0, 73, 78
1, 63626, Note_on_c, 0, 70, 74
1, 63630, Control_c, 0, 67, 49
1, 63645, Control_c, 0, 67, 59
1, 63659, Control_c, 0, 67, 67
1, 63681, Control_c, 0, 67, 71
1, 63686, Note_off_c, 0, 70, 64
1, 63690, Note_off_c, 0, 44, 65
1, 63696, Control_c, 0, 67, 66
1, 63698, Note_off_c, 0, 56, 63
1, 63698, Note_on_c, 0, 75, 79
1, 63705, Note_on_c, 0, 71, 83
1, 63711, Control_c, 0, 67, 60
1, 63717, Note_on_c, 0, 51, 13
1, 63719, Note_off_c, 0, 73, 63
1, 63724, Note_off_c, 0, 71, 72
1, 63726, Control_c, 0, 67, 57
1, 63728, Note_off_c, 0, 75, 65
1, 63741, Control_c, 0, 67, 62
1, 63746, Note_off_c, 0, 51, 27
1, 63755, Control_c, 0, 67, 71
1, 63770, Control_c, 0, 67, 76
1, 63800, Control_c, 0, 67, 72
1, 63815, Control_c, 0, 67, 66
1, 63829, Control_c, 0, 67, 65
1, 63844, Control_c, 0, 67, 72
1, 63860, Control_c, 0, 67, 79
1, 63862, Note_on_c, 0, 62, 95
1, 63865, Note_on_c, 0, 77, 80
1, 63866, Note_on_c, 0, 50, 88
1, 63875, Control_c, 0, 67, 85
1, 63883, Note_off_c, 0, 62, 69
1, 63886, Note_on_c, 0, 72, 36
1, 63887, Note_off_c, 0, 50, 71
1, 63888, Note_off_c, 0, 77, 65
1, 63904, Control_c, 0, 67, 81
1, 63916, Note_off_c, 0, 72, 35
1, 63919, Control_c, 0, 67, 77
1, 63934, Control_c, 0, 67, 77
1, 63949, Control_c, 0, 67, 85
1, 63955, Note_on_c, 0, 78, 69
1, 63958, Note_on_c, 0, 74, 67
1, 63964, Control_c, 0, 67, 94
1, 63974, Note_off_c, 0, 74, 67
1, 63978, Control_c, 0, 67, 104
1, 63987, Note_off_c, 0, 78, 61
1, 64008, Control_c, 0, 67, 99
1, 64017, Note_on_c, 0, 59, 88
1, 64017, Note_on_c, 0, 72, 75
1, 64023, Control_c, 0, 67, 94
1, 64025, Note_on_c, 0, 47, 87
1, 64035, Note_on_c, 0, 76, 70
1, 64038, Control_c, 0, 64, 41
1, 64038, Control_c, 0, 67, 92
1, 64053, Control_c, 0, 64, 41
1, 64053, Control_c, 0, 67, 99
1, 64066, Note_off_c, 0, 72, 59
1, 64068, Control_c, 0, 64, 0
1, 64068, Control_c, 0, 67, 103
1, 64098, Control_c, 0, 67, 100
1, 64103, Note_on_c, 0, 75, 74
1, 64106, Note_off_c, 0, 76, 65
1, 64107, Note_on_c, 0, 78, 83
1, 64112, Control_c, 0, 67, 95
1, 64127, Control_c, 0, 67, 89
1, 64142, Control_c, 0, 64, 36
1, 64142, Control_c, 0, 67, 88
1, 64146, Note_off_c, 0, 75, 55
1, 64149, Note_off_c, 0, 78, 63
1, 64157, Control_c, 0, 64, 35
1, 64157, Control_c, 0, 67, 95
1, 64157, Note_off_c, 0, 47, 63
1, 64172, Control_c, 0, 64, 0
1, 64172, Control_c, 0, 67, 97
1, 64175, Note_off_c, 0, 59, 61
1, 64181, Note_on_c, 0, 80, 90
1, 64184, Note_on_c, 0, 78, 49
1, 64203, Note_on_c, 0, 76, 52
1, 64204, Note_off_c, 0, 78, 63
1, 64205, Note_on_c, 0, 77, 51
1, 64216, Control_c, 0, 67, 94
1, 64217, Note_off_c, 0, 80, 64
1, 64226, Note_off_c, 0, 76, 56
1, 64228, Note_off_c, 0, 77, 59
1, 64231, Control_c, 0, 67, 93
1, 64246, Control_c, 0, 67, 96
1, 64260, Control_c, 0, 67, 102
1, 64275, Control_c, 0, 67, 109
1, 64319, Control_c, 0, 67, 107
1, 64334, Control_c, 0, 64, 33
1, 64334, Control_c, 0, 67, 104
1, 64348, Note_on_c, 0, 66, 98
1, 64349, Control_c, 0, 64, 0
1, 64349, Control_c, 0, 67, 107
1, 64353, Note_on_c, 0, 82, 83
1, 64360, Note_on_c, 0, 73, 70
1, 64362, Note_on_c, 0, 54, 74
1, 64364, Control_c, 0, 67, 115
1, 64370, Note_off_c, 0, 66, 68
1, 64375, Note_on_c, 0, 56, 46
1, 64375, Note_off_c, 0, 56, 127
1, 64376, Note_off_c, 0, 82, 62
1, 64378, Control_c, 0, 67, 123
1, 64379, Note_off_c, 0, 73, 44
1, 64385, Note_off_c, 0, 54, 66
1, 64430, Control_c, 0, 67, 117
1, 64443, Note_on_c, 0, 83, 80
1, 64445, Control_c, 0, 64, 34
1, 64445, Control_c, 0, 67, 114
1, 64449, Note_on_c, 0, 80, 82
1, 64460, Control_c, 0, 64, 0
1, 64460, Control_c, 0, 67, 118
1, 64475, Control_c, 0, 67, 126
1, 64479, Note_off_c, 0, 80, 61
1, 64491, Note_off_c, 0, 83, 62
1, 64507, Note_on_c, 0, 61, 92
1, 64518, Note_on_c, 0, 49, 75
1, 64521, Note_on_c, 0, 51, 69
1, 64523, Note_on_c, 0, 78, 87
1, 64534, Control_c, 0, 64, 35
1, 64537, Note_on_c, 0, 82, 82
1, 64549, Note_off_c, 0, 49, 64
1, 64549, Control_c, 0, 64, 37
1, 64549, Control_c, 0, 67, 123
1, 64564, Control_c, 0, 64, 34
1, 64564, Control_c, 0, 67, 125
1, 64568, Note_off_c, 0, 78, 65
1, 64574, Note_off_c, 0, 82, 62
1, 64578, Control_c, 0, 64, 0
1, 64578, Control_c, 0, 67, 127
1, 64610, Note_on_c, 0, 83, 85
1, 64614, Note_on_c, 0, 80, 82
1, 64617, Note_off_c, 0, 51, 46
1, 64623, Control_c, 0, 64, 35
1, 64637, Note_off_c, 0, 61, 61
1, 64637, Control_c, 0, 64, 38
1, 64637, Control_c, 0, 67, 122
1, 64638, Note_off_c, 0, 80, 64
1, 64660, Note_off_c, 0, 83, 66
1, 64669, Control_c, 0, 64, 0
1, 64669, Control_c, 0, 67, 127
1, 64689, Note_on_c, 0, 85, 94
1, 64692, Note_on_c, 0, 82, 85
1, 64706, Note_off_c, 0, 85, 73
1, 64710, Note_off_c, 0, 82, 72
1, 64852, Note_on_c, 0, 78, 87
1, 64856, Note_on_c, 0, 82, 76
1, 64870, Note_off_c, 0, 78, 71
1, 64902, Note_off_c, 0, 82, 53
1, 64926, Note_on_c, 0, 83, 71
1, 64940, Note_on_c, 0, 80, 59
1, 64977, Note_off_c, 0, 80, 59
1, 64989, Note_off_c, 0, 83, 62
1, 65013, Note_on_c, 0, 73, 86
1, 65013, Note_on_c, 0, 82, 87
1, 65068, Note_off_c, 0, 82, 62
1, 65101, Note_on_c, 0, 80, 59
1, 65104, Note_on_c, 0, 83, 63
1, 65162, Note_off_c, 0, 80, 63
1, 65172, Note_off_c, 0, 73, 63
1, 65172, Note_off_c, 0, 83, 63
1, 65183, Note_on_c, 0, 85, 71
1, 65186, Note_on_c, 0, 82, 63
1, 65204, Note_off_c, 0, 85, 71
1, 65210, Note_off_c, 0, 82, 67
1, 65341, Note_on_c, 0, 90, 80
1, 65348, Note_on_c, 0, 94, 79
1, 65366, Note_off_c, 0, 90, 65
1, 65424, Note_off_c, 0, 94, 63
1, 65430, Note_on_c, 0, 95, 59
1, 65499, Note_on_c, 0, 85, 75
1, 65516, Note_off_c, 0, 95, 65
1, 65520, Note_on_c, 0, 97, 73
1, 65597, Note_on_c, 0, 95, 75
1, 65602, Note_off_c, 0, 97, 64
1, 65684, Note_on_c, 0, 94, 77
1, 65686, Note_off_c, 0, 95, 64
1, 65731, Note_off_c, 0, 85, 64
1, 65755, Note_on_c, 0, 92, 75
1, 65755, Note_off_c, 0, 94, 63
1, 65756, Note_on_c, 0, 83, 73
1, 65803, Note_off_c, 0, 92, 65
1, 65815, Note_off_c, 0, 83, 64
1, 65832, Note_on_c, 0, 82, 77
1, 65833, Note_on_c, 0, 90, 70
1, 65865, Note_off_c, 0, 90, 63
1, 65871, Note_off_c, 0, 82, 61
1, 65906, Note_on_c, 0, 87, 73
1, 65910, Note_on_c, 0, 83, 71
1, 65952, Note_off_c, 0, 83, 62
1, 65993, Note_on_c, 0, 82, 70
1, 65997, Note_on_c, 0, 85, 73
1, 66005, Note_off_c, 0, 87, 62
1, 66044, Note_off_c, 0, 85, 63
1, 66053, Note_off_c, 0, 82, 59
1, 66056, Note_on_c, 0, 80, 65
1, 66074, Note_on_c, 0, 83, 75
1, 66128, Note_off_c, 0, 83, 65
1, 66153, Note_on_c, 0, 82, 83
1, 66153, Note_off_c, 0, 80, 61
1, 66155, Note_on_c, 0, 78, 60
1, 66197, Note_off_c, 0, 78, 61
1, 66207, Note_off_c, 0, 82, 61
1, 66214, Note_on_c, 0, 73, 58
1, 66221, Note_on_c, 0, 80, 80
1, 66256, Note_off_c, 0, 73, 62
1, 66267, Note_off_c, 0, 80, 64
1, 66298, Note_on_c, 0, 85, 77
1, 66300, Note_on_c, 0, 78, 65
1, 66310, Note_on_c, 0, 82, 77
1, 66324, Note_off_c, 0, 78, 67
1, 66330, Control_c, 0, 64, 62
1, 66345, Control_c, 0, 64, 68
1, 66348, Note_off_c, 0, 85, 51
1, 66359, Note_off_c, 0, 82, 63
1, 66360, Control_c, 0, 64, 66
1, 66374, Control_c, 0, 64, 63
1, 66379, Note_on_c, 0, 75, 71
1, 66389, Control_c, 0, 64, 62
1, 66404, Control_c, 0, 64, 61
1, 66416, Note_off_c, 0, 75, 61
1, 66428, Poly_aftertouch_c, 0, 72, 127
1, 66448, Control_c, 0, 64, 61
1, 66453, Poly_aftertouch_c, 0, 72, 0
1, 66462, Note_on_c, 0, 70, 68
1, 66464, Note_on_c, 0, 73, 75
1, 66491, Note_off_c, 0, 70, 66
1, 66518, Note_off_c, 0, 73, 63
1, 66538, Note_on_c, 0, 71, 78
1, 66553, Note_on_c, 0, 68, 72
1, 66587, Note_off_c, 0, 68, 60
1, 66597, Control_c, 0, 64, 61
1, 66606, Note_off_c, 0, 71, 62
1, 66607, Note_on_c, 0, 70, 77
1, 66626, Control_c, 0, 64, 62
1, 66631, Note_on_c, 0, 66, 56
1, 66641, Control_c, 0, 64, 63
1, 66650, Note_off_c, 0, 66, 61
1, 66656, Control_c, 0, 64, 64
1, 66662, Note_off_c, 0, 70, 65
1, 66679, Control_c, 0, 64, 65
1, 66691, Note_on_c, 0, 68, 78
1, 66694, Control_c, 0, 64, 66
1, 66708, Control_c, 0, 64, 70
1, 66721, Note_off_c, 0, 68, 65
1, 66723, Control_c, 0, 64, 74
1, 66738, Control_c, 0, 64, 75
1, 66753, Control_c, 0, 64, 65
1, 66764, Note_on_c, 0, 69, 79
1, 66768, Control_c, 0, 64, 0
1, 66774, Note_on_c, 0, 57, 90
1, 66783, Note_on_c, 0, 45, 78
1, 66797, Note_off_c, 0, 57, 70
1, 66805, Note_off_c, 0, 45, 67
1, 66818, Note_off_c, 0, 69, 57
1, 66846, Note_on_c, 0, 71, 80
1, 66909, Note_off_c, 0, 71, 62
1, 66933, Note_on_c, 0, 61, 78
1, 66941, Note_on_c, 0, 49, 64
1, 66947, Note_on_c, 0, 73, 46
1, 66956, Note_off_c, 0, 61, 69
1, 66965, Note_off_c, 0, 49, 64
1, 66974, Note_off_c, 0, 73, 36
1, 66998, Note_on_c, 0, 74, 68
1, 67037, Note_off_c, 0, 74, 61
1, 67081, Note_on_c, 0, 75, 68
1, 67082, Note_on_c, 0, 64, 81
1, 67085, Note_on_c, 0, 52, 78
1, 67102, Note_off_c, 0, 64, 71
1, 67110, Note_off_c, 0, 52, 67
1, 67135, Note_off_c, 0, 75, 63
1, 67152, Note_on_c, 0, 76, 74
1, 67190, Note_off_c, 0, 76, 58
1, 67228, Control_c, 0, 67, 122
1, 67234, Note_on_c, 0, 77, 71
1, 67242, Note_on_c, 0, 65, 87
1, 67242, Control_c, 0, 67, 120
1, 67245, Note_on_c, 0, 53, 76
1, 67257, Control_c, 0, 67, 122
1, 67260, Note_off_c, 0, 65, 73
1, 67266, Note_off_c, 0, 53, 68
1, 67287, Control_c, 0, 67, 116
1, 67302, Control_c, 0, 67, 112
1, 67311, Note_off_c, 0, 77, 64
1, 67316, Note_on_c, 0, 76, 72
1, 67317, Control_c, 0, 67, 108
1, 67331, Control_c, 0, 67, 111
1, 67346, Control_c, 0, 67, 114
1, 67376, Control_c, 0, 67, 112
1, 67408, Note_on_c, 0, 62, 99
1, 67409, Note_off_c, 0, 76, 64
1, 67410, Note_on_c, 0, 74, 77
1, 67412, Note_on_c, 0, 50, 97
1, 67427, Control_c, 0, 67, 118
1, 67442, Control_c, 0, 64, 63
1, 67442, Control_c, 0, 67, 122
1, 67457, Control_c, 0, 64, 98
1, 67457, Control_c, 0, 67, 120
1, 67472, Control_c, 0, 64, 112
1, 67472, Control_c, 0, 67, 117
1, 67474, Note_off_c, 0, 74, 61
1, 67487, Control_c, 0, 67, 115
1, 67490, Note_on_c, 0, 72, 71
1, 67502, Control_c, 0, 64, 109
1, 67517, Control_c, 0, 64, 112
1, 67517, Control_c, 0, 67, 117
1, 67531, Control_c, 0, 64, 127
1, 67531, Control_c, 0, 67, 121
1, 67547, Note_off_c, 0, 72, 64
1, 67549, Note_off_c, 0, 50, 60
1, 67561, Control_c, 0, 67, 118
1, 67570, Note_on_c, 0, 70, 78
1, 67575, Note_off_c, 0, 62, 63
1, 67576, Control_c, 0, 64, 97
1, 67576, Control_c, 0, 67, 115
1, 67591, Control_c, 0, 64, 63
1, 67592, Note_off_c, 0, 70, 70
1, 67605, Control_c, 0, 64, 0
1, 67605, Control_c, 0, 67, 118
1, 67620, Control_c, 0, 67, 125
1, 67635, Control_c, 0, 67, 127
1, 67679, Control_c, 0, 67, 125
1, 67694, Control_c, 0, 67, 127
1, 67740, Note_on_c, 0, 67, 74
1, 67743, Note_on_c, 0, 83, 73
1, 67743, Note_on_c, 0, 55, 77
1, 67760, Note_off_c, 0, 67, 70
1, 67766, Note_off_c, 0, 55, 70
1, 67786, Note_off_c, 0, 83, 58
1, 67808, Note_on_c, 0, 85, 78
1, 67874, Note_off_c, 0, 85, 62
1, 67904, Note_on_c, 0, 64, 95
1, 67907, Note_on_c, 0, 86, 85
1, 67909, Note_on_c, 0, 52, 92
1, 67932, Control_c, 0, 64, 56
1, 67946, Control_c, 0, 64, 75
1, 67961, Control_c, 0, 64, 77
1, 67976, Note_off_c, 0, 86, 60
1, 67983, Note_on_c, 0, 88, 87
1, 68006, Control_c, 0, 64, 78
1, 68020, Control_c, 0, 64, 78
1, 68035, Control_c, 0, 64, 80
1, 68037, Note_off_c, 0, 52, 58
1, 68050, Control_c, 0, 64, 82
1, 68057, Note_off_c, 0, 64, 62
1, 68059, Note_on_c, 0, 89, 89
1, 68061, Note_off_c, 0, 88, 65
1, 68065, Control_c, 0, 64, 85
1, 68080, Control_c, 0, 64, 83
1, 68095, Control_c, 0, 64, 65
1, 68110, Control_c, 0, 64, 0
1, 68123, Note_off_c, 0, 89, 63
1, 68141, Note_on_c, 0, 91, 85
1, 68219, Note_off_c, 0, 91, 63
1, 68223, Note_on_c, 0, 68, 89
1, 68229, Note_on_c, 0, 56, 80
1, 68236, Note_on_c, 0, 92, 83
1, 68238, Note_off_c, 0, 68, 73
1, 68254, Note_off_c, 0, 56, 68
1, 68275, Note_off_c, 0, 92, 67
1, 68310, Note_on_c, 0, 91, 75
1, 68397, Note_on_c, 0, 65, 97
1, 68400, Note_on_c, 0, 53, 98
1, 68400, Note_on_c, 0, 89, 86
1, 68413, Control_c, 0, 64, 62
1, 68419, Note_off_c, 0, 91, 62
1, 68428, Control_c, 0, 64, 103
1, 68443, Control_c, 0, 64, 127
1, 68465, Note_on_c, 0, 87, 79
1, 68468, Note_off_c, 0, 89, 64
1, 68494, Note_off_c, 0, 65, 59
1, 68531, Note_off_c, 0, 87, 64
1, 68545, Note_on_c, 0, 86, 83
1, 68546, Note_off_c, 0, 53, 59
1, 68546, Control_c, 0, 64, 71
1, 68561, Control_c, 0, 64, 0
1, 68596, Note_off_c, 0, 86, 64
1, 68716, Note_on_c, 0, 45, 93
1, 68716, Note_on_c, 0, 57, 96
1, 68720, Note_on_c, 0, 94, 96
1, 68727, Note_on_c, 0, 82, 92
1, 68740, Note_off_c, 0, 57, 67
1, 68740, Control_c, 0, 64, 62
1, 68742, Note_off_c, 0, 45, 68
1, 68754, Control_c, 0, 64, 127
1, 68769, Note_off_c, 0, 82, 61
1, 68794, Note_on_c, 0, 91, 76
1, 68828, Control_c, 0, 64, 120
1, 68843, Control_c, 0, 64, 76
1, 68852, Note_off_c, 0, 94, 40
1, 68858, Control_c, 0, 64, 53
1, 68870, Note_on_c, 0, 88, 77
1, 68873, Control_c, 0, 64, 0
1, 68876, Note_off_c, 0, 91, 62
1, 68884, Note_on_c, 0, 64, 76
1, 68887, Note_on_c, 0, 52, 70
1, 68905, Note_off_c, 0, 64, 70
1, 68921, Note_off_c, 0, 52, 65
1, 68921, Note_off_c, 0, 88, 64
1, 68956, Note_on_c, 0, 82, 63
1, 68972, Note_off_c, 0, 82, 65
1, 69031, Note_on_c, 0, 79, 79
1, 69043, Note_on_c, 0, 67, 80
1, 69045, Note_on_c, 0, 55, 70
1, 69063, Note_off_c, 0, 67, 72
1, 69069, Note_off_c, 0, 55, 67
1, 69082, Note_off_c, 0, 79, 62
1, 69109, Note_on_c, 0, 76, 75
1, 69144, Note_off_c, 0, 76, 63
1, 69184, Note_on_c, 0, 69, 65
1, 69193, Note_on_c, 0, 68, 91
1, 69202, Note_on_c, 0, 56, 78
1, 69209, Note_off_c, 0, 69, 68
1, 69212, Note_off_c, 0, 68, 71
1, 69225, Note_off_c, 0, 56, 67
1, 69263, Note_on_c, 0, 77, 60
1, 69302, Note_off_c, 0, 77, 63
1, 69342, Note_on_c, 0, 80, 63
1, 69349, Note_on_c, 0, 65, 92
1, 69356, Note_on_c, 0, 53, 81
1, 69359, Note_off_c, 0, 80, 65
1, 69368, Control_c, 0, 64, 60
1, 69383, Control_c, 0, 64, 127
1, 69409, Note_on_c, 0, 81, 88
1, 69442, Note_off_c, 0, 65, 61
1, 69482, Note_off_c, 0, 53, 63
1, 69487, Note_off_c, 0, 81, 62
1, 69488, Control_c, 0, 64, 117
1, 69500, Note_on_c, 0, 93, 106
1, 69504, Control_c, 0, 64, 63
1, 69518, Control_c, 0, 64, 0
1, 69527, Note_off_c, 0, 93, 68
1, 69548, Note_on_c, 0, 92, 13
1, 69548, Note_off_c, 0, 92, 127
1, 69660, Note_on_c, 0, 57, 95
1, 69662, Note_on_c, 0, 45, 95
1, 69684, Note_on_c, 0, 94, 86
1, 69687, Note_on_c, 0, 82, 94
1, 69697, Note_on_c, 0, 92, 64
1, 69699, Note_off_c, 0, 45, 67
1, 69699, Note_off_c, 0, 57, 65
1, 69704, Control_c, 0, 64, 122
1, 69705, Note_on_c, 0, 95, 65
1, 69707, Note_off_c, 0, 82, 64
1, 69719, Control_c, 0, 64, 127
1, 69722, Note_on_c, 0, 96, 38
1, 69741, Note_off_c, 0, 95, 52
1, 69748, Note_on_c, 0, 91, 70
1, 69754, Note_off_c, 0, 96, 39
1, 69764, Note_off_c, 0, 94, 57
1, 69800, Note_off_c, 0, 92, 55
1, 69822, Note_on_c, 0, 88, 83
1, 69831, Note_off_c, 0, 91, 63
1, 69836, Note_on_c, 0, 64, 86
1, 69837, Control_c, 0, 64, 74
1, 69839, Note_on_c, 0, 52, 76
1, 69851, Control_c, 0, 64, 0
1, 69857, Note_off_c, 0, 64, 67
1, 69866, Note_off_c, 0, 52, 67
1, 69869, Note_off_c, 0, 88, 64
1, 69903, Note_on_c, 0, 82, 63
1, 69919, Note_off_c, 0, 82, 65
1, 69976, Note_on_c, 0, 79, 83
1, 69992, Note_on_c, 0, 67, 75
1, 69993, Note_on_c, 0, 55, 66
1, 70014, Note_off_c, 0, 67, 70
1, 70024, Note_off_c, 0, 55, 66
1, 70045, Note_off_c, 0, 79, 59
1, 70057, Note_on_c, 0, 76, 76
1, 70095, Note_off_c, 0, 76, 61
1, 70131, Note_on_c, 0, 69, 66
1, 70143, Note_on_c, 0, 68, 89
1, 70151, Note_on_c, 0, 56, 75
1, 70156, Note_off_c, 0, 69, 68
1, 70160, Note_off_c, 0, 68, 73
1, 70177, Note_off_c, 0, 56, 64
1, 70224, Note_on_c, 0, 77, 59
1, 70274, Note_off_c, 0, 77, 61
1, 70308, Note_on_c, 0, 65, 104
1, 70310, Note_on_c, 0, 53, 93
1, 70313, Note_on_c, 0, 80, 70
1, 70341, Control_c, 0, 64, 53
1, 70356, Control_c, 0, 64, 127
1, 70364, Note_off_c, 0, 80, 60
1, 70381, Note_on_c, 0, 81, 81
1, 70437, Note_off_c, 0, 53, 54
1, 70447, Note_off_c, 0, 81, 59
1, 70461, Note_off_c, 0, 65, 59
1, 70467, Note_on_c, 0, 82, 80
1, 70513, Note_off_c, 0, 82, 61
1, 70542, Control_c, 0, 64, 106
1, 70542, Note_on_c, 0, 84, 85
1, 70556, Control_c, 0, 64, 70
1, 70571, Control_c, 0, 64, 0
1, 70599, Note_off_c, 0, 84, 60
1, 70617, Note_on_c, 0, 86, 85
1, 70620, Note_on_c, 0, 69, 85
1, 70624, Note_on_c, 0, 57, 84
1, 70639, Note_off_c, 0, 69, 71
1, 70646, Note_off_c, 0, 57, 71
1, 70694, Note_off_c, 0, 86, 62
1, 70704, Note_on_c, 0, 87, 82
1, 70766, Note_off_c, 0, 87, 64
1, 70790, Note_on_c, 0, 66, 101
1, 70792, Note_on_c, 0, 54, 93
1, 70797, Note_on_c, 0, 88, 84
1, 70808, Control_c, 0, 64, 65
1, 70817, Note_on_c, 0, 89, 45
1, 70823, Control_c, 0, 64, 103
1, 70837, Control_c, 0, 64, 127
1, 70847, Note_off_c, 0, 88, 65
1, 70851, Note_off_c, 0, 89, 0
1, 70866, Note_on_c, 0, 89, 69
1, 70873, Note_off_c, 0, 54, 61
1, 70878, Note_off_c, 0, 66, 59
1, 70930, Note_off_c, 0, 89, 65
1, 70940, Note_on_c, 0, 91, 95
1, 71004, Note_off_c, 0, 91, 64
1, 71015, Control_c, 0, 64, 85
1, 71016, Note_on_c, 0, 93, 86
1, 71030, Control_c, 0, 64, 49
1, 71046, Control_c, 0, 64, 0
1, 71093, Note_off_c, 0, 93, 58
1, 71094, Note_on_c, 0, 70, 88
1, 71094, Note_on_c, 0, 58, 104
1, 71100, Note_on_c, 0, 68, 89
1, 71101, Note_on_c, 0, 94, 87
1, 71111, Note_off_c, 0, 70, 71
1, 71114, Note_off_c, 0, 58, 70
1, 71118, Note_off_c, 0, 68, 74
1, 71161, Note_off_c, 0, 94, 66
1, 71190, Note_on_c, 0, 93, 81
1, 71272, Note_on_c, 0, 91, 82
1, 71276, Note_on_c, 0, 67, 97
1, 71278, Note_on_c, 0, 55, 92
1, 71291, Control_c, 0, 64, 37
1, 71299, Note_off_c, 0, 93, 64
1, 71305, Control_c, 0, 64, 86
1, 71320, Control_c, 0, 64, 127
1, 71339, Note_on_c, 0, 56, 2
1, 71341, Note_on_c, 0, 89, 90
1, 71343, Note_off_c, 0, 91, 65
1, 71344, Note_on_c, 0, 65, 22
1, 71344, Note_off_c, 0, 65, 127
1, 71378, Note_off_c, 0, 56, 46
1, 71383, Note_off_c, 0, 67, 63
1, 71408, Note_off_c, 0, 89, 64
1, 71418, Note_on_c, 0, 88, 88
1, 71423, Control_c, 0, 64, 71
1, 71433, Note_off_c, 0, 55, 64
1, 71438, Control_c, 0, 64, 0
1, 71454, Note_off_c, 0, 88, 65
1, 71580, Note_on_c, 0, 48, 87
1, 71581, Note_on_c, 0, 60, 85
1, 71583, Note_on_c, 0, 95, 97
1, 71586, Note_on_c, 0, 83, 102
1, 71601, Note_off_c, 0, 60, 69
1, 71604, Note_off_c, 0, 48, 69
1, 71615, Control_c, 0, 64, 87
1, 71630, Control_c, 0, 64, 127
1, 71632, Note_off_c, 0, 83, 64
1, 71660, Note_on_c, 0, 93, 87
1, 71664, Note_off_c, 0, 95, 65
1, 71730, Note_off_c, 0, 93, 65
1, 71735, Note_on_c, 0, 90, 79
1, 71742, Note_on_c, 0, 66, 83
1, 71748, Note_on_c, 0, 54, 75
1, 71750, Control_c, 0, 64, 78
1, 71764, Note_off_c, 0, 66, 65
1, 71764, Control_c, 0, 64, 55
1, 71767, Note_off_c, 0, 54, 66
1, 71770, Note_off_c, 0, 90, 62
1, 71779, Control_c, 0, 64, 0
1, 71803, Note_on_c, 0, 83, 67
1, 71833, Note_off_c, 0, 83, 67
1, 71884, Note_on_c, 0, 81, 65
1, 71899, Note_on_c, 0, 79, 68
1, 71899, Note_on_c, 0, 57, 76
1, 71900, Note_on_c, 0, 69, 75
1, 71928, Note_off_c, 0, 69, 71
1, 71929, Note_off_c, 0, 57, 69
1, 71936, Note_off_c, 0, 79, 50
1, 71937, Note_off_c, 0, 81, 64
1, 71967, Note_on_c, 0, 78, 77
1, 72004, Note_off_c, 0, 78, 64
1, 72045, Note_on_c, 0, 70, 76
1, 72048, Note_on_c, 0, 58, 86
1, 72077, Note_off_c, 0, 58, 67
1, 72077, Note_off_c, 0, 70, 62
1, 72122, Note_on_c, 0, 77, 62
1, 72149, Note_off_c, 0, 77, 54
1, 72179, Note_on_c, 0, 80, 81
1, 72200, Note_on_c, 0, 67, 99
1, 72203, Control_c, 0, 64, 37
1, 72203, Note_off_c, 0, 80, 64
1, 72204, Note_on_c, 0, 55, 90
1, 72218, Control_c, 0, 64, 82
1, 72232, Control_c, 0, 64, 127
1, 72281, Note_on_c, 0, 82, 84
1, 72305, Note_off_c, 0, 67, 60
1, 72321, Control_c, 0, 67, 125
1, 72336, Control_c, 0, 67, 127
1, 72343, Note_on_c, 0, 94, 103
1, 72348, Note_off_c, 0, 82, 63
1, 72351, Note_off_c, 0, 55, 63
1, 72351, Control_c, 0, 64, 65
1, 72364, Note_on_c, 0, 95, 68
1, 72365, Control_c, 0, 64, 0
1, 72379, Note_off_c, 0, 94, 67
1, 72379, Note_off_c, 0, 95, 67
1, 72504, Note_on_c, 0, 60, 90
1, 72505, Note_on_c, 0, 48, 85
1, 72513, Note_on_c, 0, 95, 98
1, 72516, Note_on_c, 0, 83, 98
1, 72529, Note_off_c, 0, 60, 67
1, 72532, Note_off_c, 0, 48, 72
1, 72543, Control_c, 0, 64, 96
1, 72557, Control_c, 0, 64, 127
1, 72564, Note_off_c, 0, 83, 58
1, 72587, Note_on_c, 0, 93, 85
1, 72605, Note_off_c, 0, 95, 63
1, 72679, Note_off_c, 0, 93, 64
1, 72680, Note_on_c, 0, 90, 71
1, 72683, Note_on_c, 0, 54, 72
1, 72683, Note_on_c, 0, 66, 83
1, 72684, Control_c, 0, 64, 69
1, 72699, Control_c, 0, 64, 0
1, 72702, Note_off_c, 0, 54, 64
1, 72705, Note_off_c, 0, 66, 70
1, 72717, Note_off_c, 0, 90, 64
1, 72744, Note_on_c, 0, 83, 59
1, 72769, Note_off_c, 0, 83, 67
1, 72814, Note_on_c, 0, 81, 81
1, 72826, Note_on_c, 0, 69, 83
1, 72832, Control_c, 0, 67, 116
1, 72841, Note_on_c, 0, 57, 57
1, 72844, Note_on_c, 0, 55, 53
1, 72847, Note_off_c, 0, 69, 69
1, 72847, Control_c, 0, 67, 98
1, 72862, Control_c, 0, 67, 103
1, 72863, Note_off_c, 0, 57, 61
1, 72865, Note_off_c, 0, 55, 60
1, 72876, Control_c, 0, 67, 107
1, 72882, Note_off_c, 0, 81, 63
1, 72891, Control_c, 0, 67, 105
1, 72906, Note_on_c, 0, 78, 81
1, 72906, Control_c, 0, 67, 98
1, 72921, Control_c, 0, 67, 87
1, 72936, Control_c, 0, 67, 64
1, 72947, Note_off_c, 0, 78, 63
1, 72951, Control_c, 0, 67, 57
1, 72966, Control_c, 0, 67, 60
1, 72975, Note_on_c, 0, 58, 92
1, 72981, Control_c, 0, 67, 59
1, 72985, Note_on_c, 0, 70, 81
1, 72995, Control_c, 0, 67, 49
1, 73010, Control_c, 0, 67, 27
1, 73011, Note_off_c, 0, 58, 64
1, 73019, Note_off_c, 0, 70, 66
1, 73025, Control_c, 0, 67, 0
1, 73057, Note_on_c, 0, 76, 72
1, 73111, Note_off_c, 0, 76, 63
1, 73129, Note_on_c, 0, 79, 56
1, 73135, Note_on_c, 0, 67, 97
1, 73140, Note_on_c, 0, 55, 93
1, 73152, Note_off_c, 0, 79, 59
1, 73173, Control_c, 0, 64, 117
1, 73187, Control_c, 0, 64, 127
1, 73195, Note_off_c, 0, 67, 48
1, 73205, Note_on_c, 0, 82, 83
1, 73262, Note_off_c, 0, 55, 65
1, 73281, Note_on_c, 0, 94, 105
1, 73293, Note_off_c, 0, 82, 58
1, 73306, Control_c, 0, 64, 95
1, 73309, Note_on_c, 0, 95, 60
1, 73313, Note_off_c, 0, 94, 68
1, 73321, Control_c, 0, 64, 53
1, 73329, Note_off_c, 0, 95, 61
1, 73335, Control_c, 0, 64, 0
1, 73463, Note_on_c, 0, 48, 93
1, 73468, Note_on_c, 0, 36, 93
1, 73473, Note_on_c, 0, 83, 102
1, 73474, Note_on_c, 0, 95, 101
1, 73478, Control_c, 0, 67, 38
1, 73488, Note_off_c, 0, 48, 66
1, 73491, Note_off_c, 0, 36, 70
1, 73492, Control_c, 0, 64, 83
1, 73492, Control_c, 0, 67, 26
1, 73507, Control_c, 0, 64, 127
1, 73507, Control_c, 0, 67, 0
1, 73525, Note_off_c, 0, 83, 57
1, 73549, Note_on_c, 0, 93, 87
1, 73568, Note_off_c, 0, 95, 63
1, 73640, Note_on_c, 0, 54, 99
1, 73641, Note_on_c, 0, 90, 90
1, 73642, Note_on_c, 0, 42, 87
1, 73668, Note_off_c, 0, 54, 61
1, 73669, Note_off_c, 0, 42, 68
1, 73669, Note_off_c, 0, 93, 66
1, 73700, Note_off_c, 0, 90, 64
1, 73720, Note_on_c, 0, 84, 91
1, 73800, Note_off_c, 0, 84, 60
1, 73809, Note_on_c, 0, 57, 96
1, 73812, Note_on_c, 0, 45, 96
1, 73815, Note_on_c, 0, 96, 103
1, 73818, Control_c, 0, 64, 62
1, 73827, Note_off_c, 0, 57, 73
1, 73833, Control_c, 0, 64, 0
1, 73836, Note_off_c, 0, 45, 69
1, 73848, Note_on_c, 0, 92, 42
1, 73854, Note_on_c, 0, 94, 37
1, 73890, Note_off_c, 0, 92, 46
1, 73893, Note_off_c, 0, 96, 61
1, 73894, Note_off_c, 0, 94, 50
1, 74041, Note_on_c, 0, 85, 105
1, 74043, Note_on_c, 0, 46, 107
1, 74044, Note_on_c, 0, 91, 92
1, 74044, Note_on_c, 0, 97, 105
1, 74047, Note_on_c, 0, 88, 95
1, 74049, Note_on_c, 0, 34, 94
1, 74056, Control_c, 0, 64, 91
1, 74071, Control_c, 0, 64, 127
1, 74073, Note_off_c, 0, 34, 66
1, 74076, Note_off_c, 0, 46, 64
1, 74110, Note_off_c, 0, 85, 66
1, 74122, Note_off_c, 0, 88, 65
1, 74133, Note_off_c, 0, 97, 65
1, 74136, Note_off_c, 0, 91, 63
1, 74264, Note_on_c, 0, 49, 96
1, 74266, Note_on_c, 0, 37, 87
1, 74271, Note_on_c, 0, 96, 97
1, 74295, Note_off_c, 0, 37, 67
1, 74301, Note_off_c, 0, 49, 60
1, 74352, Note_on_c, 0, 95, 85
1, 74358, Note_off_c, 0, 96, 65
1, 74417, Note_on_c, 0, 50, 82
1, 74420, Note_on_c, 0, 38, 84
1, 74422, Note_on_c, 0, 94, 92
1, 74447, Note_off_c, 0, 50, 65
1, 74450, Note_off_c, 0, 38, 67
1, 74476, Note_off_c, 0, 95, 64
1, 74494, Control_c, 0, 64, 91
1, 74509, Control_c, 0, 64, 47
1, 74515, Note_on_c, 0, 91, 64
1, 74516, Note_on_c, 0, 90, 54
1, 74523, Control_c, 0, 64, 0
1, 74526, Note_off_c, 0, 94, 65
1, 74533, Note_off_c, 0, 91, 64
1, 74537, Note_off_c, 0, 90, 60
1, 74572, Note_on_c, 0, 51, 100
1, 74577, Note_on_c, 0, 39, 89
1, 74582, Note_on_c, 0, 81, 107
1, 74582, Control_c, 0, 64, 64
1, 74582, Control_c, 0, 67, 48
1, 74584, Note_on_c, 0, 90, 100
1, 74587, Note_on_c, 0, 93, 99
1, 74587, Note_on_c, 0, 87, 100
1, 74597, Note_off_c, 0, 51, 66
1, 74597, Control_c, 0, 64, 127
1, 74597, Control_c, 0, 67, 55
1, 74599, Note_off_c, 0, 39, 66
1, 74612, Control_c, 0, 67, 42
1, 74614, Note_off_c, 0, 81, 65
1, 74627, Control_c, 0, 67, 37
1, 74653, Note_off_c, 0, 87, 63
1, 74656, Note_off_c, 0, 90, 63
1, 74656, Control_c, 0, 67, 43
1, 74671, Control_c, 0, 67, 50
1, 74686, Control_c, 0, 67, 50
1, 74689, Note_off_c, 0, 93, 63
1, 74701, Control_c, 0, 67, 47
1, 74716, Control_c, 0, 67, 45
1, 74730, Control_c, 0, 67, 44
1, 74745, Control_c, 0, 67, 45
1, 74760, Control_c, 0, 67, 46
1, 74760, Note_on_c, 0, 54, 89
1, 74763, Note_on_c, 0, 92, 88
1, 74765, Note_on_c, 0, 42, 82
1, 74775, Control_c, 0, 67, 44
1, 74789, Note_on_c, 0, 44, 48
1, 74790, Control_c, 0, 67, 39
1, 74796, Note_off_c, 0, 42, 68
1, 74805, Control_c, 0, 67, 33
1, 74807, Note_off_c, 0, 54, 60
1, 74818, Note_off_c, 0, 44, 58
1, 74820, Control_c, 0, 67, 21
1, 74834, Control_c, 0, 67, 0
1, 74841, Note_on_c, 0, 91, 79
1, 74841, Note_off_c, 0, 92, 65
1, 74859, Note_on_c, 0, 89, 72
1, 74878, Note_off_c, 0, 89, 41
1, 74896, Note_off_c, 0, 91, 64
1, 74920, Note_on_c, 0, 88, 98
1, 74921, Note_on_c, 0, 43, 83
1, 74921, Note_on_c, 0, 55, 87
1, 74952, Note_off_c, 0, 55, 64
1, 74954, Note_off_c, 0, 43, 66
1, 74972, Note_off_c, 0, 88, 67
1, 74990, Control_c, 0, 64, 67
1, 74993, Note_on_c, 0, 89, 64
1, 75005, Control_c, 0, 64, 0
1, 75023, Note_off_c, 0, 89, 67
1, 75026, Note_on_c, 0, 88, 30
1, 75046, Note_off_c, 0, 88, 32
1, 75064, Control_c, 0, 64, 65
1, 75064, Control_c, 0, 67, 48
1, 75069, Note_on_c, 0, 56, 104
1, 75070, Note_on_c, 0, 86, 94
1, 75070, Note_on_c, 0, 78, 103
1, 75070, Note_on_c, 0, 90, 98
1, 75073, Note_on_c, 0, 83, 95
1, 75074, Note_on_c, 0, 44, 90
1, 75079, Control_c, 0, 64, 127
1, 75079, Control_c, 0, 67, 50
1, 75090, Note_off_c, 0, 56, 64
1, 75094, Control_c, 0, 67, 38
1, 75096, Note_off_c, 0, 44, 72
1, 75109, Control_c, 0, 67, 29
1, 75124, Control_c, 0, 67, 27
1, 75139, Control_c, 0, 67, 30
1, 75142, Note_off_c, 0, 78, 63
1, 75164, Note_off_c, 0, 83, 53
1, 75169, Control_c, 0, 67, 28
1, 75174, Note_off_c, 0, 90, 53
1, 75178, Note_on_c, 0, 89, 15
1, 75182, Note_off_c, 0, 86, 62
1, 75184, Control_c, 0, 67, 25
1, 75198, Control_c, 0, 67, 23
1, 75213, Control_c, 0, 67, 20
1, 75228, Control_c, 0, 67, 0
1, 75232, Note_off_c, 0, 89, 37
1, 75243, Note_on_c, 0, 88, 90
1, 75246, Note_on_c, 0, 59, 83
1, 75251, Note_on_c, 0, 47, 78
1, 75267, Note_off_c, 0, 59, 68
1, 75279, Note_off_c, 0, 47, 66
1, 75326, Note_on_c, 0, 86, 89
1, 75352, Note_off_c, 0, 88, 62
1, 75383, Note_off_c, 0, 86, 65
1, 75394, Note_on_c, 0, 48, 81
1, 75395, Note_on_c, 0, 83, 90
1, 75398, Note_on_c, 0, 60, 83
1, 75429, Note_off_c, 0, 60, 66
1, 75434, Note_off_c, 0, 48, 62
1, 75447, Note_off_c, 0, 83, 68
1, 75460, Note_on_c, 0, 84, 78
1, 75479, Control_c, 0, 64, 81
1, 75485, Note_off_c, 0, 84, 63
1, 75493, Control_c, 0, 64, 0
1, 75522, Control_c, 0, 67, 20
1, 75537, Note_on_c, 0, 80, 90
1, 75537, Control_c, 0, 64, 53
1, 75538, Note_on_c, 0, 61, 96
1, 75542, Note_on_c, 0, 49, 86
1, 75542, Note_on_c, 0, 73, 103
1, 75544, Note_on_c, 0, 85, 103
1, 75545, Note_on_c, 0, 77, 82
1, 75552, Control_c, 0, 64, 104
1, 75552, Control_c, 0, 67, 0
1, 75563, Note_off_c, 0, 61, 64
1, 75565, Note_off_c, 0, 49, 69
1, 75567, Control_c, 0, 64, 127
1, 75581, Control_c, 0, 67, 20
1, 75596, Control_c, 0, 67, 26
1, 75618, Note_off_c, 0, 73, 60
1, 75625, Note_off_c, 0, 77, 60
1, 75636, Note_off_c, 0, 80, 62
1, 75641, Control_c, 0, 67, 23
1, 75646, Note_off_c, 0, 85, 64
1, 75722, Note_on_c, 0, 84, 89
1, 75726, Note_on_c, 0, 51, 87
1, 75726, Note_on_c, 0, 63, 91
1, 75752, Control_c, 0, 67, 21
1, 75771, Note_off_c, 0, 63, 61
1, 75772, Note_off_c, 0, 51, 58
1, 75795, Note_on_c, 0, 83, 92
1, 75811, Control_c, 0, 67, 19
1, 75825, Note_off_c, 0, 84, 63
1, 75826, Control_c, 0, 67, 0
1, 75876, Note_on_c, 0, 65, 92
1, 75878, Note_on_c, 0, 53, 90
1, 75884, Note_on_c, 0, 80, 104
1, 75898, Note_off_c, 0, 83, 64
1, 75913, Note_off_c, 0, 53, 63
1, 75913, Note_off_c, 0, 65, 62
1, 75916, Control_c, 0, 64, 99
1, 75931, Control_c, 0, 64, 56
1, 75945, Control_c, 0, 64, 0
1, 75953, Note_off_c, 0, 80, 61
1, 75966, Note_on_c, 0, 81, 94
1, 76034, Control_c, 0, 64, 70
1, 76045, Note_on_c, 0, 82, 105
1, 76045, Note_on_c, 0, 66, 98
1, 76049, Note_on_c, 0, 54, 95
1, 76049, Control_c, 0, 64, 127
1, 76070, Note_off_c, 0, 82, 62
1, 76072, Note_off_c, 0, 81, 67
1, 76072, Note_off_c, 0, 54, 68
1, 76083, Note_off_c, 0, 66, 61
1, 76271, Note_on_c, 0, 66, 95
1, 76272, Control_c, 0, 67, 20
1, 76273, Note_on_c, 0, 54, 91
1, 76286, Control_c, 0, 67, 22
1, 76289, Note_off_c, 0, 66, 72
1, 76301, Control_c, 0, 67, 0
1, 76312, Note_off_c, 0, 54, 63
1, 76329, Note_on_c, 0, 65, 14
1, 76356, Note_on_c, 0, 46, 84
1, 76369, Note_off_c, 0, 65, 48
1, 76400, Note_off_c, 0, 46, 64
1, 76450, Note_on_c, 0, 54, 70
1, 76468, Note_off_c, 0, 54, 67
1, 76477, Note_on_c, 0, 58, 39
1, 76506, Note_off_c, 0, 58, 55
1, 76541, Note_on_c, 0, 58, 74
1, 76575, Control_c, 0, 64, 85
1, 76590, Control_c, 0, 64, 47
1, 76605, Control_c, 0, 64, 0
1, 76608, Note_off_c, 0, 58, 58
1, 76611, Note_on_c, 0, 70, 83
1, 76614, Note_on_c, 0, 48, 99
1, 76614, Note_on_c, 0, 66, 79
1, 76617, Note_on_c, 0, 36, 87
1, 76643, Note_on_c, 0, 38, 49
1, 76643, Note_off_c, 0, 38, 127
1, 76644, Note_off_c, 0, 48, 66
1, 76647, Note_off_c, 0, 36, 68
1, 76665, Note_on_c, 0, 68, 8
1, 76667, Note_off_c, 0, 70, 65
1, 76669, Note_off_c, 0, 66, 62
1, 76674, Note_off_c, 0, 68, 34
1, 76708, Note_on_c, 0, 58, 77
1, 76753, Note_off_c, 0, 58, 63
1, 76776, Note_on_c, 0, 48, 100
1, 76779, Note_on_c, 0, 36, 96
1, 76783, Note_on_c, 0, 66, 77
1, 76783, Control_c, 0, 67, 48
1, 76790, Note_on_c, 0, 70, 75
1, 76798, Control_c, 0, 64, 70
1, 76798, Control_c, 0, 67, 80
1, 76802, Note_off_c, 0, 36, 69
1, 76805, Note_off_c, 0, 66, 70
1, 76805, Note_off_c, 0, 48, 66
1, 76807, Note_on_c, 0, 68, 46
1, 76811, Note_on_c, 0, 47, 49
1, 76811, Note_off_c, 0, 47, 127
1, 76813, Control_c, 0, 64, 127
1, 76813, Control_c, 0, 67, 74
1, 76814, Note_off_c, 0, 70, 64
1, 76828, Note_off_c, 0, 68, 62
1, 76828, Control_c, 0, 67, 73
1, 76842, Control_c, 0, 67, 75
1, 76857, Control_c, 0, 67, 78
1, 76872, Control_c, 0, 67, 78
1, 76887, Control_c, 0, 67, 74
1, 76902, Note_on_c, 0, 70, 56
1, 76902, Control_c, 0, 67, 67
1, 76913, Note_on_c, 0, 73, 32
1, 76916, Control_c, 0, 67, 61
1, 76927, Note_off_c, 0, 70, 66
1, 76931, Control_c, 0, 67, 60
1, 76938, Note_on_c, 0, 80, 84
1, 76946, Control_c, 0, 67, 62
1, 76950, Note_off_c, 0, 73, 53
1, 76954, Note_off_c, 0, 80, 71
1, 76957, Note_on_c, 0, 82, 63
1, 76960, Control_c, 0, 67, 63
1, 76975, Control_c, 0, 67, 60
1, 76976, Note_off_c, 0, 82, 66
1, 76990, Note_on_c, 0, 79, 30
1, 76991, Control_c, 0, 67, 55
1, 77006, Control_c, 0, 67, 39
1, 77021, Control_c, 0, 67, 20
1, 77028, Note_off_c, 0, 79, 58
1, 77035, Poly_aftertouch_c, 0, 83, 0
1, 77035, Control_c, 0, 67, 0
1, 77050, Note_on_c, 0, 84, 65
1, 77066, Note_off_c, 0, 84, 66
1, 77073, Poly_aftertouch_c, 0, 83, 127
1, 77100, Note_on_c, 0, 90, 107
1, 77101, Note_on_c, 0, 94, 106
1, 77106, Note_on_c, 0, 66, 102
1, 77107, Note_on_c, 0, 92, 88
1, 77109, Note_on_c, 0, 54, 94
1, 77109, Poly_aftertouch_c, 0, 83, 0
1, 77129, Note_off_c, 0, 92, 66
1, 77130, Note_off_c, 0, 90, 66
1, 77130, Note_off_c, 0, 94, 67
1, 77142, Note_off_c, 0, 66, 63
1, 77144, Note_off_c, 0, 54, 57
1, 77324, Control_c, 0, 67, 59
1, 77339, Control_c, 0, 67, 97
1, 77340, Note_on_c, 0, 54, 88
1, 77343, Note_on_c, 0, 66, 75
1, 77354, Control_c, 0, 67, 90
1, 77356, Note_off_c, 0, 66, 72
1, 77359, Note_on_c, 0, 65, 68
1, 77364, Note_off_c, 0, 54, 67
1, 77369, Control_c, 0, 67, 89
1, 77375, Note_off_c, 0, 65, 68
1, 77383, Control_c, 0, 67, 89
1, 77398, Control_c, 0, 67, 90
1, 77399, Note_on_c, 0, 67, 20
1, 77413, Control_c, 0, 67, 93
1, 77425, Note_on_c, 0, 46, 73
1, 77428, Control_c, 0, 67, 93
1, 77440, Note_off_c, 0, 67, 49
1, 77444, Control_c, 0, 67, 88
1, 77455, Note_on_c, 0, 44, 14
1, 77455, Note_off_c, 0, 44, 127
1, 77458, Note_off_c, 0, 46, 67
1, 77458, Control_c, 0, 67, 80
1, 77473, Control_c, 0, 67, 68
1, 77488, Control_c, 0, 67, 61
1, 77503, Control_c, 0, 67, 61
1, 77509, Note_on_c, 0, 58, 63
1, 77510, Note_on_c, 0, 54, 62
1, 77512, Poly_aftertouch_c, 0, 44, 0
1, 77518, Control_c, 0, 67, 58
1, 77525, Note_off_c, 0, 54, 69
1, 77531, Note_off_c, 0, 58, 60
1, 77533, Control_c, 0, 67, 45
1, 77547, Control_c, 0, 67, 0
1, 77589, Note_on_c, 0, 58, 89
1, 77616, Poly_aftertouch_c, 0, 56, 0
1, 77637, Control_c, 0, 64, 76
1, 77652, Control_c, 0, 64, 0
1, 77654, Note_off_c, 0, 58, 64
1, 77671, Note_on_c, 0, 48, 102
1, 77671, Note_on_c, 0, 70, 89
1, 77673, Note_on_c, 0, 36, 91
1, 77675, Note_on_c, 0, 66, 79
1, 77699, Note_on_c, 0, 68, 49
1, 77705, Note_off_c, 0, 48, 67
1, 77709, Note_off_c, 0, 36, 62
1, 77723, Note_off_c, 0, 68, 56
1, 77729, Note_off_c, 0, 66, 61
1, 77732, Note_off_c, 0, 70, 63
1, 77753, Note_on_c, 0, 58, 85
1, 77801, Note_off_c, 0, 58, 64
1, 77829, Note_on_c, 0, 48, 97
1, 77833, Note_on_c, 0, 36, 97
1, 77834, Note_on_c, 0, 66, 78
1, 77844, Control_c, 0, 64, 91
1, 77844, Control_c, 0, 67, 49
1, 77845, Note_on_c, 0, 70, 73
1, 77853, Note_off_c, 0, 48, 69
1, 77855, Note_off_c, 0, 36, 71
1, 77857, Note_on_c, 0, 68, 29
1, 77858, Control_c, 0, 64, 127
1, 77858, Control_c, 0, 67, 51
1, 77859, Note_off_c, 0, 66, 66
1, 77861, Note_off_c, 0, 70, 66
1, 77873, Note_on_c, 0, 71, 52
1, 77873, Control_c, 0, 67, 33
1, 77883, Note_off_c, 0, 68, 52
1, 77888, Control_c, 0, 67, 0
1, 77898, Note_off_c, 0, 71, 59
1, 77923, Note_on_c, 0, 70, 102
1, 77956, Poly_aftertouch_c, 0, 67, 0
1, 77973, Note_on_c, 0, 72, 29
1, 77976, Note_off_c, 0, 70, 63
1, 78013, Note_off_c, 0, 72, 43
1, 78015, Note_on_c, 0, 79, 70
1, 78033, Note_off_c, 0, 79, 68
1, 78039, Note_on_c, 0, 83, 41
1, 78066, Note_off_c, 0, 83, 55
1, 78082, Note_on_c, 0, 82, 19
1, 78154, Note_off_c, 0, 82, 60
1, 78155, Note_on_c, 0, 94, 106
1, 78156, Note_on_c, 0, 90, 99
1, 78157, Note_on_c, 0, 92, 96
1, 78161, Note_on_c, 0, 66, 100
1, 78162, Note_on_c, 0, 54, 93
1, 78177, Note_off_c, 0, 92, 68
1, 78178, Note_off_c, 0, 66, 72
1, 78183, Note_off_c, 0, 54, 71
1, 78185, Note_off_c, 0, 90, 63
1, 78186, Note_off_c, 0, 94, 63
1, 78208, Note_on_c, 0, 56, 8
1, 78252, Control_c, 0, 67, 27
1, 78260, Note_off_c, 0, 56, 48
1, 78267, Control_c, 0, 67, 47
1, 78281, Control_c, 0, 67, 84
1, 78296, Control_c, 0, 67, 125
1, 78311, Control_c, 0, 64, 76
1, 78311, Control_c, 0, 67, 127
1, 78326, Control_c, 0, 64, 46
1, 78340, Control_c, 0, 64, 0
1, 78397, Note_on_c, 0, 49, 72
1, 78400, Note_on_c, 0, 37, 64
1, 78400, Control_c, 0, 64, 48
1, 78415, Control_c, 0, 64, 63
1, 78430, Control_c, 0, 64, 68
1, 78445, Control_c, 0, 64, 70
1, 78445, Note_off_c, 0, 37, 60
1, 78450, Note_off_c, 0, 49, 59
1, 78460, Control_c, 0, 64, 70
1, 78475, Control_c, 0, 64, 71
1, 78488, Note_on_c, 0, 50, 65
1, 78489, Control_c, 0, 64, 72
1, 78492, Note_on_c, 0, 62, 61
1, 78519, Note_off_c, 0, 50, 62
1, 78522, Note_off_c, 0, 62, 64
1, 78548, Control_c, 0, 64, 72
1, 78563, Control_c, 0, 64, 73
1, 78585, Note_on_c, 0, 51, 74
1, 78593, Control_c, 0, 64, 73
1, 78594, Note_on_c, 0, 39, 59
1, 78617, Note_off_c, 0, 51, 64
1, 78622, Control_c, 0, 64, 74
1, 78627, Note_off_c, 0, 39, 64
1, 78637, Control_c, 0, 64, 74
1, 78659, Control_c, 0, 64, 75
1, 78665, Note_on_c, 0, 52, 61
1, 78667, Note_on_c, 0, 64, 65
1, 78674, Control_c, 0, 64, 75
1, 78686, Note_off_c, 0, 52, 61
1, 78688, Note_off_c, 0, 64, 66
1, 78689, Control_c, 0, 64, 76
1, 78704, Control_c, 0, 64, 78
1, 78719, Control_c, 0, 64, 80
1, 78733, Control_c, 0, 64, 84
1, 78748, Control_c, 0, 64, 90
1, 78751, Note_on_c, 0, 41, 70
1, 78754, Note_on_c, 0, 53, 77
1, 78763, Control_c, 0, 64, 100
1, 78778, Control_c, 0, 64, 111
1, 78779, Note_off_c, 0, 53, 67
1, 78787, Note_off_c, 0, 41, 63
1, 78793, Control_c, 0, 64, 127
1, 78813, Note_on_c, 0, 54, 81
1, 78829, Note_on_c, 0, 66, 63
1, 78841, Note_off_c, 0, 54, 65
1, 78853, Note_off_c, 0, 66, 63
1, 78907, Note_on_c, 0, 43, 72
1, 78908, Note_on_c, 0, 55, 76
1, 78939, Note_off_c, 0, 43, 66
1, 78939, Note_off_c, 0, 55, 63
1, 78973, Note_on_c, 0, 56, 83
1, 78981, Note_on_c, 0, 68, 73
1, 78997, Note_off_c, 0, 56, 67
1, 79005, Note_off_c, 0, 68, 70
1, 79067, Note_on_c, 0, 57, 91
1, 79068, Note_on_c, 0, 45, 78
1, 79110, Note_off_c, 0, 57, 65
1, 79112, Note_off_c, 0, 45, 64
1, 79133, Note_on_c, 0, 58, 84
1, 79139, Note_on_c, 0, 70, 78
1, 79165, Note_off_c, 0, 70, 63
1, 79177, Note_off_c, 0, 58, 60
1, 79223, Control_c, 0, 67, 121
1, 79226, Note_on_c, 0, 59, 86
1, 79228, Note_on_c, 0, 47, 79
1, 79238, Control_c, 0, 67, 104
1, 79253, Control_c, 0, 67, 87
1, 79266, Note_off_c, 0, 59, 65
1, 79267, Note_off_c, 0, 47, 64
1, 79267, Control_c, 0, 67, 82
1, 79297, Control_c, 0, 67, 81
1, 79305, Note_on_c, 0, 72, 84
1, 79312, Control_c, 0, 67, 77
1, 79315, Poly_aftertouch_c, 0, 49, 0
1, 79322, Poly_aftertouch_c, 0, 60, 127
1, 79327, Control_c, 0, 67, 72
1, 79336, Note_off_c, 0, 72, 60
1, 79337, Poly_aftertouch_c, 0, 49, 0
1, 79342, Control_c, 0, 67, 67
1, 79345, Poly_aftertouch_c, 0, 60, 0
1, 79371, Control_c, 0, 67, 68
1, 79385, Note_on_c, 0, 61, 101
1, 79390, Note_on_c, 0, 49, 85
1, 79408, Control_c, 0, 67, 66
1, 79423, Control_c, 0, 67, 63
1, 79425, Note_off_c, 0, 49, 65
1, 79437, Note_off_c, 0, 61, 63
1, 79438, Control_c, 0, 67, 60
1, 79467, Control_c, 0, 67, 61
1, 79485, Note_on_c, 0, 62, 86
1, 79488, Note_on_c, 0, 74, 87
1, 79497, Control_c, 0, 67, 59
1, 79512, Control_c, 0, 67, 56
1, 79527, Control_c, 0, 67, 53
1, 79528, Note_off_c, 0, 74, 62
1, 79531, Note_off_c, 0, 62, 59
1, 79542, Control_c, 0, 67, 51
1, 79570, Note_on_c, 0, 63, 98
1, 79571, Control_c, 0, 67, 52
1, 79573, Note_on_c, 0, 51, 94
1, 79586, Control_c, 0, 67, 51
1, 79601, Note_off_c, 0, 51, 64
1, 79601, Control_c, 0, 67, 46
1, 79611, Note_off_c, 0, 63, 62
1, 79616, Control_c, 0, 67, 39
1, 79630, Control_c, 0, 67, 38
1, 79660, Control_c, 0, 67, 40
1, 79661, Note_on_c, 0, 64, 90
1, 79667, Note_on_c, 0, 76, 87
1, 79689, Control_c, 0, 67, 38
1, 79690, Note_off_c, 0, 64, 62
1, 79694, Note_off_c, 0, 76, 63
1, 79704, Control_c, 0, 67, 36
1, 79719, Control_c, 0, 67, 35
1, 79759, Note_on_c, 0, 65, 101
1, 79760, Note_on_c, 0, 53, 102
1, 79793, Control_c, 0, 67, 33
1, 79795, Note_off_c, 0, 65, 68
1, 79798, Note_off_c, 0, 53, 67
1, 79808, Control_c, 0, 67, 32
1, 79853, Control_c, 0, 67, 33
1, 79864, Note_on_c, 0, 66, 90
1, 79865, Note_on_c, 0, 78, 95
1, 79883, Control_c, 0, 67, 32
1, 79897, Control_c, 0, 67, 30
1, 79902, Note_off_c, 0, 66, 61
1, 79910, Note_off_c, 0, 78, 62
1, 79984, Note_on_c, 0, 67, 98
1, 79987, Note_on_c, 0, 55, 96
1, 80020, Note_off_c, 0, 67, 70
1, 80023, Note_off_c, 0, 55, 67
1, 80060, Control_c, 0, 67, 28
1, 80075, Control_c, 0, 67, 26
1, 80090, Control_c, 0, 67, 23
1, 80113, Note_on_c, 0, 68, 97
1, 80115, Note_on_c, 0, 80, 95
1, 80120, Control_c, 0, 67, 21
1, 80135, Control_c, 0, 67, 19
1, 80157, Control_c, 0, 67, 0
1, 80161, Note_off_c, 0, 68, 65
1, 80171, Note_off_c, 0, 80, 62
1, 80260, Note_on_c, 0, 69, 99
1, 80263, Note_on_c, 0, 57, 105
1, 80287, Note_off_c, 0, 69, 67
1, 80292, Note_off_c, 0, 57, 66
1, 80410, Note_on_c, 0, 70, 97
1, 80412, Note_on_c, 0, 82, 104
1, 80453, Note_off_c, 0, 70, 64
1, 80493, Note_off_c, 0, 82, 57
1, 80527, Control_c, 0, 64, 76
1, 80542, Control_c, 0, 64, 0
1, 80622, Note_on_c, 0, 40, 100
1, 80625, Note_on_c, 0, 28, 95
1, 80632, Note_on_c, 0, 71, 102
1, 80633, Note_on_c, 0, 83, 102
1, 80634, Note_on_c, 0, 79, 95
1, 80635, Note_on_c, 0, 76, 93
1, 80647, Control_c, 0, 67, 31
1, 80652, Note_off_c, 0, 28, 69
1, 80657, Note_off_c, 0, 40, 66
1, 80662, Control_c, 0, 64, 127
1, 80662, Control_c, 0, 67, 24
1, 80666, Note_off_c, 0, 71, 65
1, 80676, Control_c, 0, 67, 0
1, 80713, Note_off_c, 0, 83, 58
1, 80720, Control_c, 0, 67, 20
1, 80725, Note_off_c, 0, 76, 60
1, 80735, Control_c, 0, 67, 0
1, 81151, Note_off_c, 0, 79, 62
1, 81188, Note_on_c, 0, 70, 99
1, 81193, Note_on_c, 0, 76, 88
1, 81193, Note_on_c, 0, 82, 94
1, 81196, Note_on_c, 0, 66, 96
1, 81198, Note_on_c, 0, 54, 90
1, 81223, Note_off_c, 0, 54, 64
1, 81229, Note_off_c, 0, 70, 65
1, 81231, Note_off_c, 0, 82, 66
1, 81235, Note_off_c, 0, 76, 65
1, 81238, Note_off_c, 0, 66, 58
1, 81247, Control_c, 0, 64, 69
1, 81261, Control_c, 0, 64, 0
1, 81277, Note_on_c, 0, 76, 90
1, 81279, Note_on_c, 0, 83, 104
1, 81280, Note_on_c, 0, 71, 99
1, 81280, Note_on_c, 0, 67, 96
1, 81282, Note_on_c, 0, 55, 99
1, 81335, Control_c, 0, 64, 56
1, 81350, Control_c, 0, 64, 73
1, 81365, Control_c, 0, 64, 115
1, 81380, Control_c, 0, 64, 127
1, 81396, Note_off_c, 0, 67, 66
1, 81445, Note_off_c, 0, 55, 66
1, 81607, Note_on_c, 0, 47, 101
1, 81610, Note_on_c, 0, 35, 101
1, 81617, Control_c, 0, 67, 32
1, 81637, Note_off_c, 0, 35, 65
1, 81641, Note_off_c, 0, 47, 68
1, 81655, Control_c, 0, 67, 27
1, 81670, Control_c, 0, 67, 29
1, 81684, Control_c, 0, 67, 31
1, 81697, Note_off_c, 0, 83, 60
1, 81699, Control_c, 0, 67, 35
1, 81702, Note_off_c, 0, 71, 51
1, 81729, Control_c, 0, 67, 32
1, 81748, Note_off_c, 0, 76, 60
1, 81773, Control_c, 0, 67, 32
1, 81788, Control_c, 0, 67, 33
1, 81803, Control_c, 0, 67, 32
1, 81832, Control_c, 0, 67, 29
1, 81847, Control_c, 0, 67, 27
1, 81862, Control_c, 0, 67, 25
1, 81876, Control_c, 0, 67, 22
1, 81891, Control_c, 0, 67, 0
1, 81905, Note_on_c, 0, 67, 87
1, 81905, Note_on_c, 0, 79, 95
1, 81909, Note_on_c, 0, 52, 66
1, 81932, Note_off_c, 0, 67, 65
1, 81941, Note_off_c, 0, 79, 64
1, 81989, Poly_aftertouch_c, 0, 50, 0
1, 82012, Note_on_c, 0, 54, 78
1, 82016, Poly_aftertouch_c, 0, 50, 0
1, 82020, Note_on_c, 0, 78, 95
1, 82022, Note_on_c, 0, 66, 89
1, 82026, Note_off_c, 0, 52, 52
1, 82062, Note_off_c, 0, 78, 64
1, 82067, Note_off_c, 0, 66, 60
1, 82085, Note_off_c, 0, 54, 58
1, 82128, Note_on_c, 0, 55, 77
1, 82135, Note_on_c, 0, 64, 94
1, 82135, Note_on_c, 0, 76, 102
1, 82193, Note_off_c, 0, 55, 59
1, 82201, Note_off_c, 0, 64, 52
1, 82218, Note_off_c, 0, 76, 59
1, 82233, Note_on_c, 0, 57, 87
1, 82236, Note_on_c, 0, 71, 94
1, 82270, Note_off_c, 0, 57, 63
1, 82278, Note_off_c, 0, 71, 67
1, 82308, Control_c, 0, 64, 74
1, 82323, Control_c, 0, 64, 0
1, 82353, Control_c, 0, 64, 51
1, 82353, Control_c, 0, 67, 53
1, 82357, Note_on_c, 0, 52, 109
1, 82359, Note_on_c, 0, 40, 101
1, 82361, Note_on_c, 0, 83, 107
1, 82362, Note_on_c, 0, 71, 94
1, 82362, Note_on_c, 0, 79, 93
1, 82363, Note_on_c, 0, 76, 90
1, 82368, Control_c, 0, 64, 81
1, 82368, Control_c, 0, 67, 68
1, 82376, Note_off_c, 0, 52, 71
1, 82377, Note_off_c, 0, 40, 73
1, 82382, Control_c, 0, 64, 127
1, 82382, Control_c, 0, 67, 57
1, 82403, Note_off_c, 0, 71, 64
1, 82404, Control_c, 0, 67, 50
1, 82419, Control_c, 0, 67, 47
1, 82434, Control_c, 0, 67, 48
1, 82449, Control_c, 0, 67, 51
1, 82463, Control_c, 0, 67, 50
1, 82474, Note_off_c, 0, 83, 62
1, 82478, Control_c, 0, 67, 46
1, 82484, Note_off_c, 0, 76, 53
1, 82493, Control_c, 0, 67, 40
1, 82508, Control_c, 0, 67, 33
1, 82523, Control_c, 0, 67, 30
1, 82537, Control_c, 0, 67, 32
1, 82567, Control_c, 0, 67, 29
1, 82582, Control_c, 0, 67, 22
1, 82597, Control_c, 0, 67, 0
1, 82773, Note_off_c, 0, 79, 64
1, 82804, Note_on_c, 0, 70, 96
1, 82805, Note_on_c, 0, 76, 89
1, 82808, Note_on_c, 0, 54, 83
1, 82808, Note_on_c, 0, 66, 90
1, 82808, Note_on_c, 0, 82, 93
1, 82833, Note_off_c, 0, 54, 66
1, 82836, Note_off_c, 0, 66, 60
1, 82842, Note_off_c, 0, 70, 68
1, 82847, Note_off_c, 0, 82, 64
1, 82848, Note_off_c, 0, 76, 66
1, 82878, Control_c, 0, 64, 82
1, 82889, Note_on_c, 0, 67, 101
1, 82889, Note_on_c, 0, 76, 93
1, 82890, Note_on_c, 0, 71, 96
1, 82891, Note_on_c, 0, 55, 101
1, 82891, Note_on_c, 0, 83, 104
1, 82893, Control_c, 0, 64, 0
1, 82893, Control_c, 0, 67, 20
1, 82907, Control_c, 0, 67, 0
1, 82928, Note_off_c, 0, 67, 68
1, 82937, Note_off_c, 0, 55, 64
1, 82937, Control_c, 0, 64, 70
1, 82952, Control_c, 0, 64, 127
1, 83151, Note_on_c, 0, 47, 100
1, 83155, Note_on_c, 0, 35, 99
1, 83167, Control_c, 0, 67, 28
1, 83181, Note_off_c, 0, 35, 66
1, 83182, Note_off_c, 0, 47, 67
1, 83182, Control_c, 0, 67, 20
1, 83197, Control_c, 0, 67, 0
1, 83263, Note_off_c, 0, 71, 58
1, 83265, Note_off_c, 0, 83, 61
1, 83292, Note_off_c, 0, 76, 59
1, 83407, Note_on_c, 0, 52, 68
1, 83408, Note_on_c, 0, 79, 96
1, 83409, Note_on_c, 0, 67, 81
1, 83435, Note_off_c, 0, 67, 66
1, 83444, Note_off_c, 0, 79, 63
1, 83454, Note_on_c, 0, 50, 18
1, 83496, Note_on_c, 0, 54, 87
1, 83502, Note_off_c, 0, 50, 42
1, 83512, Note_on_c, 0, 78, 92
1, 83514, Note_on_c, 0, 66, 89
1, 83525, Note_off_c, 0, 52, 53
1, 83545, Note_off_c, 0, 78, 63
1, 83548, Note_off_c, 0, 66, 56
1, 83602, Note_on_c, 0, 55, 85
1, 83603, Note_off_c, 0, 54, 48
1, 83611, Note_on_c, 0, 64, 95
1, 83611, Note_on_c, 0, 76, 99
1, 83679, Note_off_c, 0, 55, 59
1, 83699, Note_on_c, 0, 57, 89
1, 83701, Note_on_c, 0, 71, 83
1, 83705, Note_off_c, 0, 76, 61
1, 83710, Note_off_c, 0, 64, 53
1, 83712, Note_on_c, 0, 69, 83
1, 83725, Note_off_c, 0, 69, 69
1, 83727, Note_off_c, 0, 57, 65
1, 83745, Note_off_c, 0, 71, 68
1, 83745, Control_c, 0, 64, 93
1, 83760, Control_c, 0, 64, 51
1, 83774, Control_c, 0, 64, 0
1, 83804, Control_c, 0, 64, 35
1, 83819, Control_c, 0, 64, 74
1, 83819, Control_c, 0, 67, 52
1, 83823, Note_on_c, 0, 83, 107
1, 83825, Note_on_c, 0, 71, 99
1, 83825, Note_on_c, 0, 79, 95
1, 83826, Note_on_c, 0, 40, 101
1, 83826, Note_on_c, 0, 76, 93
1, 83830, Note_on_c, 0, 28, 98
1, 83834, Control_c, 0, 64, 127
1, 83834, Control_c, 0, 67, 51
1, 83849, Control_c, 0, 67, 39
1, 83852, Note_off_c, 0, 28, 66
1, 83852, Note_off_c, 0, 40, 67
1, 83864, Control_c, 0, 67, 32
1, 83887, Note_off_c, 0, 71, 61
1, 83901, Control_c, 0, 67, 35
1, 83916, Control_c, 0, 67, 38
1, 83926, Note_off_c, 0, 83, 59
1, 83931, Control_c, 0, 67, 36
1, 83932, Note_off_c, 0, 76, 59
1, 83946, Control_c, 0, 67, 34
1, 83960, Control_c, 0, 67, 34
1, 83975, Control_c, 0, 67, 33
1, 83990, Control_c, 0, 67, 34
1, 84005, Poly_aftertouch_c, 0, 28, 0
1, 84005, Control_c, 0, 67, 35
1, 84034, Control_c, 0, 67, 33
1, 84064, Control_c, 0, 67, 31
1, 84123, Control_c, 0, 67, 29
1, 84138, Control_c, 0, 67, 21
1, 84153, Control_c, 0, 67, 0
1, 84187, Note_off_c, 0, 79, 63
1, 84230, Note_on_c, 0, 70, 99
1, 84232, Note_on_c, 0, 66, 96
1, 84234, Note_on_c, 0, 54, 90
1, 84234, Note_on_c, 0, 76, 90
1, 84234, Note_on_c, 0, 82, 98
1, 84266, Note_on_c, 0, 56, 43
1, 84269, Note_off_c, 0, 54, 60
1, 84270, Note_off_c, 0, 66, 58
1, 84272, Note_off_c, 0, 82, 64
1, 84275, Note_off_c, 0, 70, 66
1, 84280, Note_off_c, 0, 76, 65
1, 84298, Note_off_c, 0, 56, 53
1, 84316, Control_c, 0, 64, 70
1, 84324, Poly_aftertouch_c, 0, 59, 0
1, 84331, Note_on_c, 0, 83, 103
1, 84331, Control_c, 0, 64, 0
1, 84332, Note_on_c, 0, 76, 97
1, 84332, Note_on_c, 0, 67, 98
1, 84335, Note_on_c, 0, 71, 102
1, 84335, Note_on_c, 0, 55, 103
1, 84345, Control_c, 0, 64, 43
1, 84360, Control_c, 0, 64, 68
1, 84367, Note_off_c, 0, 67, 67
1, 84375, Control_c, 0, 64, 127
1, 84377, Note_off_c, 0, 55, 67
1, 84424, Poly_aftertouch_c, 0, 69, 0
1, 84587, Note_on_c, 0, 47, 96
1, 84592, Note_on_c, 0, 35, 93
1, 84594, Note_off_c, 0, 71, 62
1, 84600, Note_off_c, 0, 83, 64
1, 84604, Note_off_c, 0, 76, 64
1, 84609, Note_off_c, 0, 47, 70
1, 84612, Control_c, 0, 67, 24
1, 84616, Note_off_c, 0, 35, 65
1, 84628, Control_c, 0, 67, 21
1, 84651, Control_c, 0, 67, 0
1, 84710, Control_c, 0, 67, 20
1, 84717, Note_on_c, 0, 73, 95
1, 84718, Note_on_c, 0, 85, 96
1, 84724, Note_on_c, 0, 70, 96
1, 84727, Note_on_c, 0, 58, 83
1, 84740, Control_c, 0, 67, 0
1, 84741, Note_off_c, 0, 70, 72
1, 84750, Note_off_c, 0, 58, 68
1, 84751, Note_off_c, 0, 85, 58
1, 84753, Note_off_c, 0, 73, 63
1, 84778, Poly_aftertouch_c, 0, 35, 0
1, 84799, Control_c, 0, 64, 93
1, 84814, Control_c, 0, 64, 60
1, 84824, Note_on_c, 0, 71, 93
1, 84827, Note_on_c, 0, 59, 82
1, 84827, Note_on_c, 0, 74, 101
1, 84828, Note_on_c, 0, 86, 100
1, 84828, Control_c, 0, 64, 0
1, 84849, Note_off_c, 0, 71, 66
1, 84850, Note_off_c, 0, 59, 69
1, 84853, Note_off_c, 0, 74, 70
1, 84857, Note_off_c, 0, 86, 69
1, 84876, Note_on_c, 0, 85, 22
1, 84876, Note_off_c, 0, 85, 127
1, 85068, Note_on_c, 0, 70, 90
1, 85077, Note_on_c, 0, 58, 86
1, 85077, Note_on_c, 0, 73, 107
1, 85080, Note_on_c, 0, 85, 102
1, 85097, Note_off_c, 0, 70, 64
1, 85103, Note_off_c, 0, 58, 69
1, 85113, Note_on_c, 0, 71, 31
1, 85113, Note_off_c, 0, 71, 127
1, 85119, Note_off_c, 0, 73, 65
1, 85125, Note_off_c, 0, 85, 63
1, 85340, Note_on_c, 0, 52, 102
1, 85343, Note_on_c, 0, 71, 95
1, 85345, Note_on_c, 0, 40, 91
1, 85345, Note_on_c, 0, 76, 94
1, 85345, Note_on_c, 0, 79, 95
1, 85346, Control_c, 0, 64, 67
1, 85348, Note_on_c, 0, 83, 96
1, 85361, Control_c, 0, 64, 127
1, 85365, Note_off_c, 0, 52, 68
1, 85368, Note_off_c, 0, 40, 70
1, 85368, Note_off_c, 0, 71, 68
1, 85381, Note_off_c, 0, 76, 68
1, 85381, Note_off_c, 0, 83, 61
1, 85386, Note_off_c, 0, 79, 65
1, 85740, Control_c, 0, 64, 110
1, 85755, Control_c, 0, 64, 68
1, 85770, Control_c, 0, 64, 51
1, 85785, Control_c, 0, 64, 58
1, 85799, Control_c, 0, 64, 68
1, 85801, Note_on_c, 0, 66, 69
1, 85805, Note_on_c, 0, 70, 77
1, 85807, Note_on_c, 0, 54, 50
1, 85811, Note_on_c, 0, 82, 79
1, 85814, Control_c, 0, 64, 87
1, 85828, Note_off_c, 0, 66, 66
1, 85829, Control_c, 0, 64, 127
1, 85830, Note_off_c, 0, 82, 59
1, 85837, Note_off_c, 0, 54, 62
1, 85839, Note_off_c, 0, 70, 63
1, 85873, Control_c, 0, 64, 116
1, 85915, Note_on_c, 0, 67, 74
1, 85921, Note_on_c, 0, 83, 87
1, 85923, Note_on_c, 0, 71, 84
1, 85924, Note_on_c, 0, 57, 66
1, 85937, Note_off_c, 0, 67, 71
1, 85945, Note_off_c, 0, 57, 64
1, 85948, Control_c, 0, 64, 122
1, 85951, Note_off_c, 0, 71, 65
1, 85952, Note_off_c, 0, 83, 63
1, 85963, Control_c, 0, 64, 127
1, 86016, Note_on_c, 0, 70, 89
1, 86022, Note_on_c, 0, 58, 81
1, 86022, Note_on_c, 0, 73, 92
1, 86023, Note_on_c, 0, 85, 98
1, 86039, Note_off_c, 0, 70, 66
1, 86047, Note_off_c, 0, 58, 68
1, 86057, Note_off_c, 0, 73, 65
1, 86057, Note_off_c, 0, 85, 58
1, 86114, Note_on_c, 0, 71, 87
1, 86121, Note_on_c, 0, 59, 75
1, 86122, Note_on_c, 0, 74, 103
1, 86126, Note_on_c, 0, 86, 90
1, 86144, Note_off_c, 0, 71, 69
1, 86147, Note_on_c, 0, 84, 68
1, 86150, Note_off_c, 0, 59, 70
1, 86154, Note_off_c, 0, 74, 67
1, 86162, Note_off_c, 0, 86, 64
1, 86164, Note_off_c, 0, 84, 66
1, 86222, Note_on_c, 0, 73, 100
1, 86224, Note_on_c, 0, 85, 103
1, 86230, Note_on_c, 0, 70, 88
1, 86242, Note_on_c, 0, 58, 69
1, 86247, Note_off_c, 0, 70, 74
1, 86257, Note_off_c, 0, 73, 62
1, 86257, Note_off_c, 0, 85, 59
1, 86267, Note_off_c, 0, 58, 67
1, 86320, Note_on_c, 0, 71, 89
1, 86321, Note_on_c, 0, 59, 89
1, 86323, Note_on_c, 0, 74, 106
1, 86325, Note_on_c, 0, 86, 96
1, 86338, Note_off_c, 0, 71, 72
1, 86346, Note_off_c, 0, 59, 68
1, 86347, Note_off_c, 0, 86, 64
1, 86352, Note_off_c, 0, 74, 63
1, 86356, Control_c, 0, 64, 120
1, 86371, Control_c, 0, 64, 61
1, 86386, Control_c, 0, 64, 0
1, 86565, Note_on_c, 0, 45, 94
1, 86565, Note_on_c, 0, 57, 102
1, 86565, Note_on_c, 0, 76, 102
1, 86568, Note_on_c, 0, 81, 98
1, 86568, Note_on_c, 0, 85, 95
1, 86568, Note_on_c, 0, 88, 99
1, 86571, Note_on_c, 0, 49, 92
1, 86573, Note_on_c, 0, 52, 80
1, 86596, Note_off_c, 0, 57, 68
1, 86599, Note_off_c, 0, 76, 69
1, 86603, Note_off_c, 0, 45, 66
1, 86607, Note_off_c, 0, 52, 64
1, 86615, Note_off_c, 0, 49, 66
1, 86617, Note_off_c, 0, 81, 68
1, 86635, Note_off_c, 0, 88, 64
1, 86649, Note_off_c, 0, 85, 65
1, 86830, Control_c, 0, 67, 35
1, 86832, Note_on_c, 0, 50, 99
1, 86836, Note_on_c, 0, 81, 108
1, 86836, Note_on_c, 0, 93, 97
1, 86837, Note_on_c, 0, 86, 97
1, 86837, Note_on_c, 0, 90, 96
1, 86839, Note_on_c, 0, 38, 93
1, 86845, Control_c, 0, 64, 96
1, 86845, Control_c, 0, 67, 33
1, 86860, Note_off_c, 0, 50, 67
1, 86860, Control_c, 0, 64, 127
1, 86860, Control_c, 0, 67, 0
1, 86862, Note_off_c, 0, 38, 70
1, 86880, Note_off_c, 0, 81, 65
1, 86884, Note_off_c, 0, 93, 65
1, 86931, Note_off_c, 0, 86, 61
1, 86952, Poly_aftertouch_c, 0, 39, 0
1, 87208, Note_off_c, 0, 90, 61
1, 87210, Note_on_c, 0, 53, 70
1, 87215, Note_on_c, 0, 62, 79
1, 87217, Note_on_c, 0, 65, 71
1, 87218, Note_on_c, 0, 80, 98
1, 87221, Note_on_c, 0, 86, 89
1, 87221, Note_on_c, 0, 92, 95
1, 87240, Note_off_c, 0, 53, 66
1, 87243, Note_off_c, 0, 65, 69
1, 87253, Note_off_c, 0, 80, 67
1, 87256, Note_off_c, 0, 92, 67
1, 87259, Note_off_c, 0, 86, 66
1, 87263, Note_off_c, 0, 62, 64
1, 87283, Control_c, 0, 64, 98
1, 87283, Control_c, 0, 67, 35
1, 87295, Note_on_c, 0, 62, 82
1, 87297, Note_on_c, 0, 66, 100
1, 87297, Control_c, 0, 64, 73
1, 87297, Control_c, 0, 67, 32
1, 87298, Note_on_c, 0, 86, 97
1, 87298, Note_on_c, 0, 93, 106
1, 87298, Note_on_c, 0, 81, 105
1, 87305, Note_on_c, 0, 54, 88
1, 87312, Control_c, 0, 64, 71
1, 87312, Control_c, 0, 67, 23
1, 87327, Note_off_c, 0, 62, 64
1, 87327, Control_c, 0, 64, 94
1, 87327, Control_c, 0, 67, 0
1, 87337, Note_off_c, 0, 54, 61
1, 87339, Note_off_c, 0, 66, 58
1, 87342, Control_c, 0, 64, 127
1, 87532, Note_on_c, 0, 45, 106
1, 87539, Note_on_c, 0, 33, 93
1, 87543, Note_on_c, 0, 35, 87
1, 87563, Note_off_c, 0, 45, 69
1, 87564, Note_off_c, 0, 33, 70
1, 87570, Note_off_c, 0, 35, 63
1, 87614, Note_off_c, 0, 93, 60
1, 87633, Note_off_c, 0, 81, 58
1, 87692, Poly_aftertouch_c, 0, 87, 127
1, 87694, Note_off_c, 0, 86, 60
1, 87726, Poly_aftertouch_c, 0, 87, 0
1, 87753, Note_on_c, 0, 61, 91
1, 87755, Note_on_c, 0, 49, 75
1, 87769, Note_on_c, 0, 80, 93
1, 87771, Note_on_c, 0, 92, 86
1, 87775, Note_off_c, 0, 61, 67
1, 87782, Note_off_c, 0, 49, 65
1, 87793, Note_off_c, 0, 80, 63
1, 87793, Note_off_c, 0, 92, 68
1, 87799, Note_on_c, 0, 90, 47
1, 87824, Control_c, 0, 67, 20
1, 87827, Note_off_c, 0, 90, 38
1, 87846, Note_on_c, 0, 51, 94
1, 87853, Control_c, 0, 67, 0
1, 87854, Note_on_c, 0, 63, 81
1, 87858, Note_on_c, 0, 90, 92
1, 87860, Note_on_c, 0, 61, 73
1, 87861, Note_on_c, 0, 78, 93
1, 87870, Note_off_c, 0, 51, 65
1, 87875, Note_off_c, 0, 63, 71
1, 87884, Note_off_c, 0, 61, 60
1, 87895, Note_off_c, 0, 78, 61
1, 87897, Note_off_c, 0, 90, 65
1, 87945, Note_on_c, 0, 64, 93
1, 87948, Note_on_c, 0, 52, 89
1, 87951, Note_on_c, 0, 76, 101
1, 87951, Note_on_c, 0, 88, 95
1, 87963, Note_on_c, 0, 54, 60
1, 87972, Note_off_c, 0, 64, 64
1, 87976, Note_on_c, 0, 65, 49
1, 87976, Note_off_c, 0, 65, 127
1, 87978, Note_off_c, 0, 52, 63
1, 87981, Note_off_c, 0, 54, 63
1, 88024, Poly_aftertouch_c, 0, 53, 0
1, 88035, Note_on_c, 0, 53, 28
1, 88036, Note_on_c, 0, 81, 96
1, 88037, Note_on_c, 0, 65, 98
1, 88037, Note_off_c, 0, 76, 57
1, 88044, Note_off_c, 0, 88, 64
1, 88061, Control_c, 0, 64, 64
1, 88062, Note_off_c, 0, 65, 66
1, 88076, Control_c, 0, 64, 0
1, 88076, Note_off_c, 0, 81, 69
1, 88081, Note_off_c, 0, 53, 64
1, 88179, Control_c, 0, 64, 83
1, 88179, Control_c, 0, 67, 81
1, 88180, Note_on_c, 0, 83, 95
1, 88183, Note_on_c, 0, 95, 104
1, 88186, Note_on_c, 0, 86, 95
1, 88189, Note_on_c, 0, 38, 103
1, 88194, Control_c, 0, 64, 127
1, 88194, Control_c, 0, 67, 127
1, 88195, Note_on_c, 0, 26, 94
1, 88209, Note_off_c, 0, 38, 72
1, 88211, Note_off_c, 0, 26, 68
1, 88214, Note_off_c, 0, 86, 0
1, 88220, Note_off_c, 0, 83, 59
1, 88251, Poly_aftertouch_c, 0, 86, 127
1, 88256, Note_off_c, 0, 95, 65
1, 88288, Poly_aftertouch_c, 0, 86, 0
1, 88295, Note_on_c, 0, 26, 24
1, 88311, Note_off_c, 0, 26, 63
1, 88541, Note_on_c, 0, 80, 93
1, 88544, Note_on_c, 0, 86, 86
1, 88544, Note_on_c, 0, 92, 91
1, 88549, Note_on_c, 0, 65, 85
1, 88553, Note_on_c, 0, 53, 78
1, 88558, Note_on_c, 0, 62, 66
1, 88568, Note_off_c, 0, 65, 72
1, 88571, Note_off_c, 0, 92, 63
1, 88571, Control_c, 0, 67, 122
1, 88576, Note_off_c, 0, 53, 68
1, 88577, Note_off_c, 0, 80, 64
1, 88577, Note_off_c, 0, 86, 62
1, 88585, Note_off_c, 0, 62, 65
1, 88586, Control_c, 0, 67, 107
1, 88601, Control_c, 0, 67, 79
1, 88616, Note_on_c, 0, 86, 89
1, 88617, Note_on_c, 0, 93, 103
1, 88617, Control_c, 0, 67, 42
1, 88620, Note_on_c, 0, 81, 103
1, 88626, Note_on_c, 0, 66, 94
1, 88629, Note_on_c, 0, 62, 99
1, 88632, Control_c, 0, 67, 21
1, 88633, Note_on_c, 0, 54, 93
1, 88639, Note_on_c, 0, 63, 41
1, 88639, Note_off_c, 0, 63, 127
1, 88647, Control_c, 0, 67, 0
1, 88654, Note_off_c, 0, 62, 64
1, 88662, Note_off_c, 0, 66, 64
1, 88675, Note_off_c, 0, 54, 66
1, 88824, Control_c, 0, 64, 93
1, 88824, Control_c, 0, 67, 44
1, 88839, Note_on_c, 0, 45, 100
1, 88839, Control_c, 0, 64, 71
1, 88839, Control_c, 0, 67, 53
1, 88844, Note_on_c, 0, 33, 99
1, 88854, Control_c, 0, 64, 70
1, 88854, Control_c, 0, 67, 44
1, 88869, Control_c, 0, 64, 78
1, 88869, Control_c, 0, 67, 36
1, 88870, Note_off_c, 0, 45, 70
1, 88875, Note_off_c, 0, 33, 66
1, 88884, Control_c, 0, 64, 107
1, 88884, Control_c, 0, 67, 25
1, 88887, Note_on_c, 0, 47, 21
1, 88887, Note_off_c, 0, 47, 127
1, 88899, Control_c, 0, 64, 127
1, 88899, Control_c, 0, 67, 23
1, 88900, Note_off_c, 0, 93, 60
1, 88914, Control_c, 0, 67, 30
1, 88929, Poly_aftertouch_c, 0, 47, 0
1, 88929, Control_c, 0, 67, 36
1, 88932, Note_off_c, 0, 81, 58
1, 88958, Control_c, 0, 67, 33
1, 88987, Control_c, 0, 67, 31
1, 88994, Note_off_c, 0, 86, 60
1, 89002, Control_c, 0, 67, 32
1, 89017, Control_c, 0, 67, 35
1, 89021, Poly_aftertouch_c, 0, 87, 0
1, 89032, Control_c, 0, 67, 39
1, 89047, Control_c, 0, 67, 38
1, 89054, Note_on_c, 0, 61, 88
1, 89055, Note_on_c, 0, 49, 80
1, 89060, Note_on_c, 0, 80, 89
1, 89060, Note_on_c, 0, 92, 89
1, 89061, Control_c, 0, 67, 35
1, 89076, Control_c, 0, 67, 32
1, 89077, Note_off_c, 0, 61, 67
1, 89081, Note_off_c, 0, 49, 68
1, 89085, Note_off_c, 0, 92, 65
1, 89090, Note_off_c, 0, 80, 58
1, 89091, Control_c, 0, 67, 32
1, 89106, Control_c, 0, 67, 34
1, 89121, Control_c, 0, 67, 41
1, 89143, Control_c, 0, 67, 48
1, 89149, Note_on_c, 0, 49, 74
1, 89152, Note_on_c, 0, 90, 88
1, 89153, Note_on_c, 0, 61, 79
1, 89158, Control_c, 0, 67, 48
1, 89161, Note_on_c, 0, 78, 85
1, 89164, Note_on_c, 0, 51, 59
1, 89165, Note_on_c, 0, 63, 68
1, 89173, Control_c, 0, 67, 40
1, 89173, Note_off_c, 0, 61, 71
1, 89179, Note_off_c, 0, 49, 68
1, 89179, Note_off_c, 0, 78, 73
1, 89184, Note_off_c, 0, 63, 66
1, 89188, Note_off_c, 0, 90, 65
1, 89188, Note_off_c, 0, 51, 60
1, 89188, Control_c, 0, 67, 30
1, 89202, Control_c, 0, 67, 0
1, 89238, Note_on_c, 0, 64, 98
1, 89239, Note_on_c, 0, 52, 96
1, 89243, Note_on_c, 0, 76, 103
1, 89244, Note_on_c, 0, 88, 95
1, 89272, Note_off_c, 0, 64, 67
1, 89277, Note_off_c, 0, 52, 65
1, 89327, Note_on_c, 0, 81, 99
1, 89329, Note_on_c, 0, 65, 100
1, 89332, Note_off_c, 0, 76, 53
1, 89334, Note_on_c, 0, 53, 93
1, 89335, Note_off_c, 0, 88, 64
1, 89350, Control_c, 0, 64, 60
1, 89364, Note_off_c, 0, 81, 69
1, 89365, Control_c, 0, 64, 0
1, 89372, Note_off_c, 0, 65, 68
1, 89373, Note_off_c, 0, 53, 61
1, 89440, Control_c, 0, 64, 72
1, 89440, Control_c, 0, 67, 64
1, 89445, Note_on_c, 0, 62, 61
1, 89450, Note_on_c, 0, 57, 81
1, 89452, Note_on_c, 0, 66, 88
1, 89455, Note_on_c, 0, 84, 108
1, 89455, Control_c, 0, 64, 127
1, 89455, Control_c, 0, 67, 91
1, 89456, Note_on_c, 0, 86, 93
1, 89456, Note_on_c, 0, 96, 100
1, 89464, Note_on_c, 0, 54, 60
1, 89470, Control_c, 0, 67, 83
1, 89485, Control_c, 0, 67, 77
1, 89487, Note_off_c, 0, 86, 58
1, 89491, Note_off_c, 0, 66, 64
1, 89499, Control_c, 0, 67, 67
1, 89501, Note_off_c, 0, 62, 61
1, 89502, Note_on_c, 0, 65, 25
1, 89502, Note_off_c, 0, 65, 127
1, 89514, Note_off_c, 0, 57, 63
1, 89514, Control_c, 0, 67, 62
1, 89519, Note_on_c, 0, 86, 62
1, 89528, Note_off_c, 0, 54, 35
1, 89529, Control_c, 0, 67, 68
1, 89537, Note_off_c, 0, 84, 33
1, 89539, Poly_aftertouch_c, 0, 65, 0
1, 89543, Control_c, 0, 67, 69
1, 89558, Control_c, 0, 67, 63
1, 89573, Control_c, 0, 67, 59
1, 89588, Control_c, 0, 67, 56
1, 89594, Note_off_c, 0, 96, 50
1, 89603, Control_c, 0, 67, 57
1, 89617, Control_c, 0, 67, 62
1, 89632, Control_c, 0, 67, 62
1, 89647, Control_c, 0, 67, 56
1, 89650, Note_off_c, 0, 86, 55
1, 89662, Control_c, 0, 67, 53
1, 89677, Note_on_c, 0, 38, 92
1, 89677, Note_on_c, 0, 52, 84
1, 89677, Control_c, 0, 67, 49
1, 89683, Note_on_c, 0, 50, 84
1, 89692, Control_c, 0, 67, 47
1, 89705, Note_off_c, 0, 38, 68
1, 89715, Note_off_c, 0, 50, 52
1, 89721, Control_c, 0, 67, 46
1, 89723, Note_off_c, 0, 52, 60
1, 89735, Control_c, 0, 67, 37
1, 89750, Control_c, 0, 67, 0
1, 89752, Note_on_c, 0, 95, 84
1, 89757, Note_on_c, 0, 83, 83
1, 89777, Note_off_c, 0, 83, 71
1, 89780, Note_off_c, 0, 95, 63
1, 89838, Note_on_c, 0, 65, 83
1, 89838, Note_on_c, 0, 80, 95
1, 89843, Note_on_c, 0, 86, 83
1, 89843, Note_on_c, 0, 92, 97
1, 89845, Note_on_c, 0, 62, 59
1, 89847, Note_on_c, 0, 53, 58
1, 89855, Note_on_c, 0, 57, 65
1, 89876, Note_off_c, 0, 53, 61
1, 89889, Note_off_c, 0, 57, 64
1, 89892, Note_off_c, 0, 65, 61
1, 89939, Note_off_c, 0, 80, 59
1, 89941, Note_off_c, 0, 92, 59
1, 89954, Note_off_c, 0, 86, 55
1, 90039, Control_c, 0, 64, 71
1, 90041, Note_off_c, 0, 62, 0
1, 90041, Note_on_c, 0, 62, 36
1, 90041, Note_on_c, 0, 66, 95
1, 90050, Note_on_c, 0, 81, 101
1, 90050, Note_on_c, 0, 86, 96
1, 90051, Note_on_c, 0, 54, 83
1, 90053, Note_on_c, 0, 57, 61
1, 90053, Note_on_c, 0, 93, 100
1, 90054, Control_c, 0, 64, 56
1, 90069, Control_c, 0, 64, 64
1, 90075, Note_off_c, 0, 66, 63
1, 90082, Note_off_c, 0, 62, 63
1, 90084, Control_c, 0, 64, 82
1, 90085, Note_off_c, 0, 93, 67
1, 90088, Note_off_c, 0, 81, 65
1, 90089, Note_off_c, 0, 86, 65
1, 90098, Control_c, 0, 64, 127
1, 90100, Note_off_c, 0, 57, 63
1, 90109, Note_off_c, 0, 54, 64
1, 90239, Note_on_c, 0, 74, 97
1, 90241, Note_on_c, 0, 48, 81
1, 90261, Note_on_c, 0, 38, 49
1, 90264, Note_off_c, 0, 48, 71
1, 90273, Note_off_c, 0, 74, 65
1, 90277, Note_on_c, 0, 50, 36
1, 90294, Note_off_c, 0, 38, 55
1, 90315, Note_off_c, 0, 50, 51
1, 90319, Poly_aftertouch_c, 0, 36, 0
1, 90350, Poly_aftertouch_c, 0, 36, 0
1, 90434, Note_on_c, 0, 86, 95
1, 90434, Note_on_c, 0, 65, 88
1, 90434, Note_on_c, 0, 68, 95
1, 90434, Note_on_c, 0, 83, 97
1, 90435, Note_on_c, 0, 95, 91
1, 90438, Note_on_c, 0, 56, 70
1, 90441, Note_on_c, 0, 62, 81
1, 90479, Note_off_c, 0, 65, 65
1, 90484, Note_off_c, 0, 83, 64
1, 90485, Note_off_c, 0, 68, 64
1, 90496, Note_off_c, 0, 56, 59
1, 90515, Note_off_c, 0, 95, 64
1, 90522, Note_off_c, 0, 86, 60
1, 90574, Note_off_c, 0, 62, 44
1, 90640, Control_c, 0, 64, 84
1, 90647, Note_on_c, 0, 66, 96
1, 90648, Note_on_c, 0, 69, 101
1, 90649, Note_on_c, 0, 62, 74
1, 90651, Note_on_c, 0, 86, 94
1, 90654, Note_on_c, 0, 96, 107
1, 90654, Note_on_c, 0, 84, 108
1, 90654, Control_c, 0, 64, 56
1, 90654, Control_c, 0, 67, 46
1, 90657, Note_on_c, 0, 57, 85
1, 90669, Control_c, 0, 64, 55
1, 90669, Control_c, 0, 67, 51
1, 90678, Note_off_c, 0, 69, 64
1, 90684, Note_off_c, 0, 66, 65
1, 90684, Control_c, 0, 64, 72
1, 90684, Control_c, 0, 67, 42
1, 90687, Note_off_c, 0, 96, 66
1, 90690, Note_off_c, 0, 62, 63
1, 90693, Note_off_c, 0, 86, 66
1, 90699, Control_c, 0, 64, 127
1, 90699, Control_c, 0, 67, 35
1, 90704, Note_off_c, 0, 84, 62
1, 90709, Note_off_c, 0, 57, 66
1, 90714, Control_c, 0, 67, 29
1, 90729, Control_c, 0, 67, 25
1, 90773, Control_c, 0, 67, 0
1, 90839, Note_on_c, 0, 50, 98
1, 90842, Note_on_c, 0, 38, 89
1, 90842, Note_on_c, 0, 74, 94
1, 90860, Note_off_c, 0, 50, 70
1, 90866, Note_off_c, 0, 74, 64
1, 90868, Note_off_c, 0, 38, 65
1, 90920, Poly_aftertouch_c, 0, 48, 0
1, 90958, Poly_aftertouch_c, 0, 48, 0
1, 90973, Note_on_c, 0, 87, 43
1, 90987, Note_on_c, 0, 90, 23
1, 91023, Note_off_c, 0, 87, 47
1, 91027, Note_off_c, 0, 90, 47
1, 91053, Note_on_c, 0, 85, 107
1, 91054, Note_on_c, 0, 58, 85
1, 91055, Note_on_c, 0, 70, 97
1, 91056, Note_on_c, 0, 64, 84
1, 91056, Note_on_c, 0, 67, 76
1, 91056, Note_on_c, 0, 97, 101
1, 91060, Note_on_c, 0, 91, 88
1, 91061, Note_on_c, 0, 88, 80
1, 91066, Note_on_c, 0, 92, 59
1, 91087, Note_on_c, 0, 94, 46
1, 91096, Note_off_c, 0, 67, 61
1, 91102, Note_off_c, 0, 70, 66
1, 91112, Note_off_c, 0, 85, 64
1, 91116, Note_off_c, 0, 64, 64
1, 91119, Note_off_c, 0, 94, 57
1, 91120, Note_off_c, 0, 88, 65
1, 91122, Note_off_c, 0, 58, 62
1, 91128, Note_off_c, 0, 91, 64
1, 91133, Note_off_c, 0, 97, 66
1, 91165, Note_off_c, 0, 92, 33
1, 91277, Control_c, 0, 64, 96
1, 91277, Control_c, 0, 67, 45
1, 91278, Note_on_c, 0, 69, 104
1, 91280, Note_on_c, 0, 57, 98
1, 91281, Note_on_c, 0, 62, 90
1, 91281, Note_on_c, 0, 66, 94
1, 91281, Note_on_c, 0, 90, 67
1, 91283, Note_on_c, 0, 93, 60
1, 91287, Note_on_c, 0, 86, 105
1, 91292, Note_on_c, 0, 98, 95
1, 91292, Control_c, 0, 64, 65
1, 91292, Control_c, 0, 67, 78
1, 91296, Note_on_c, 0, 100, 94
1, 91307, Control_c, 0, 64, 63
1, 91307, Control_c, 0, 67, 68
1, 91308, Note_off_c, 0, 100, 46
1, 91310, Note_off_c, 0, 69, 67
1, 91322, Control_c, 0, 64, 80
1, 91322, Control_c, 0, 67, 49
1, 91323, Note_off_c, 0, 57, 67
1, 91325, Note_off_c, 0, 66, 66
1, 91327, Note_off_c, 0, 62, 66
1, 91337, Control_c, 0, 64, 127
1, 91337, Control_c, 0, 67, 0
1, 91356, Note_off_c, 0, 86, 50
1, 91376, Note_off_c, 0, 98, 65
1, 91534, Note_off_c, 0, 93, 60
1, 91536, Note_off_c, 0, 90, 65
1, 91543, Note_on_c, 0, 88, 104
1, 91543, Note_on_c, 0, 100, 106
1, 91579, Note_on_c, 0, 98, 39
1, 91579, Note_off_c, 0, 98, 127
1, 91580, Note_off_c, 0, 88, 70
1, 91587, Note_off_c, 0, 100, 69
1, 91799, Note_on_c, 0, 50, 92
1, 91799, Note_on_c, 0, 62, 93
1, 91802, Note_on_c, 0, 54, 91
1, 91803, Note_on_c, 0, 90, 119
1, 91803, Note_on_c, 0, 102, 104
1, 91806, Note_on_c, 0, 93, 89
1, 91807, Note_on_c, 0, 98, 74
1, 91811, Note_on_c, 0, 57, 84
1, 91827, Note_off_c, 0, 62, 64
1, 91830, Note_off_c, 0, 57, 72
1, 91835, Note_on_c, 0, 97, 53
1, 91835, Note_off_c, 0, 97, 127
1, 91847, Note_off_c, 0, 54, 67
1, 91850, Note_off_c, 0, 98, 65
1, 91851, Note_off_c, 0, 93, 66
1, 91855, Note_off_c, 0, 50, 64
1, 91862, Note_off_c, 0, 102, 66
1, 91866, Note_off_c, 0, 90, 62
1, 92012, Control_c, 0, 64, 83
1, 92027, Control_c, 0, 64, 0
1, 92088, Note_on_c, 0, 48, 97
1, 92088, Note_on_c, 0, 36, 91
1, 92094, Note_on_c, 0, 39, 94
1, 92096, Note_on_c, 0, 43, 84
1, 92097, Note_on_c, 0, 91, 112
1, 92099, Note_on_c, 0, 103, 104
1, 92103, Note_on_c, 0, 99, 101
1, 92103, Note_on_c, 0, 96, 97
1, 92116, Control_c, 0, 64, 39
1, 92116, Control_c, 0, 67, 57
1, 92127, Note_off_c, 0, 103, 70
1, 92128, Note_on_c, 0, 97, 46
1, 92128, Note_off_c, 0, 97, 127
1, 92128, Note_off_c, 0, 91, 70
1, 92131, Control_c, 0, 64, 127
1, 92131, Control_c, 0, 67, 58
1, 92141, Note_off_c, 0, 36, 63
1, 92151, Note_off_c, 0, 96, 68
1, 92155, Note_off_c, 0, 99, 68
1, 92156, Note_off_c, 0, 39, 62
1, 92158, Note_off_c, 0, 48, 68
1, 92161, Note_off_c, 0, 43, 62
1, 92163, Note_on_c, 0, 93, 25
1, 92163, Note_off_c, 0, 93, 127
1, 92168, Control_c, 0, 67, 55
1, 92183, Control_c, 0, 67, 56
1, 92198, Control_c, 0, 67, 62
1, 92212, Control_c, 0, 67, 69
1, 92227, Control_c, 0, 67, 80
1, 92242, Control_c, 0, 67, 85
1, 92257, Control_c, 0, 67, 82
1, 92272, Control_c, 0, 67, 79
1, 92286, Control_c, 0, 67, 79
1, 92301, Control_c, 0, 67, 83
1, 92316, Control_c, 0, 67, 87
1, 92345, Control_c, 0, 67, 84
1, 92360, Control_c, 0, 67, 78
1, 92375, Control_c, 0, 67, 73
1, 92390, Control_c, 0, 67, 65
1, 92405, Control_c, 0, 67, 63
1, 92419, Control_c, 0, 67, 65
1, 92434, Control_c, 0, 67, 66
1, 92449, Control_c, 0, 67, 66
1, 92464, Control_c, 0, 67, 63
1, 92479, Control_c, 0, 67, 63
1, 92509, Control_c, 0, 67, 63
1, 92524, Control_c, 0, 67, 63
1, 92525, Note_on_c, 0, 68, 88
1, 92526, Note_on_c, 0, 56, 85
1, 92538, Control_c, 0, 67, 60
1, 92545, Note_on_c, 0, 78, 96
1, 92553, Control_c, 0, 67, 53
1, 92553, Note_on_c, 0, 89, 78
1, 92562, Note_on_c, 0, 87, 79
1, 92568, Control_c, 0, 67, 34
1, 92574, Note_off_c, 0, 68, 64
1, 92579, Note_on_c, 0, 88, 56
1, 92579, Note_off_c, 0, 87, 66
1, 92583, Note_on_c, 0, 77, 39
1, 92583, Note_off_c, 0, 56, 60
1, 92583, Control_c, 0, 67, 0
1, 92585, Note_off_c, 0, 78, 65
1, 92585, Note_off_c, 0, 89, 57
1, 92601, Note_off_c, 0, 88, 62
1, 92613, Note_off_c, 0, 77, 59
1, 92629, Note_on_c, 0, 67, 93
1, 92634, Note_on_c, 0, 55, 99
1, 92637, Note_on_c, 0, 87, 102
1, 92639, Note_on_c, 0, 79, 99
1, 92643, Note_on_c, 0, 91, 100
1, 92646, Note_on_c, 0, 84, 85
1, 92658, Note_on_c, 0, 56, 51
1, 92662, Note_off_c, 0, 67, 66
1, 92670, Note_on_c, 0, 85, 44
1, 92676, Note_off_c, 0, 55, 69
1, 92679, Note_off_c, 0, 56, 59
1, 92697, Note_off_c, 0, 85, 61
1, 92835, Control_c, 0, 64, 115
1, 92850, Control_c, 0, 64, 62
1, 92865, Control_c, 0, 64, 0
1, 92887, Note_on_c, 0, 43, 100
1, 92887, Control_c, 0, 67, 48
1, 92890, Note_on_c, 0, 31, 99
1, 92902, Control_c, 0, 64, 61
1, 92902, Control_c, 0, 67, 83
1, 92917, Control_c, 0, 64, 109
1, 92917, Control_c, 0, 67, 79
1, 92926, Note_off_c, 0, 31, 64
1, 92926, Note_off_c, 0, 43, 67
1, 92932, Control_c, 0, 64, 127
1, 92932, Control_c, 0, 67, 78
1, 92947, Control_c, 0, 67, 75
1, 92961, Control_c, 0, 67, 74
1, 92970, Note_off_c, 0, 91, 62
1, 92976, Control_c, 0, 67, 75
1, 92986, Note_off_c, 0, 79, 60
1, 92991, Control_c, 0, 67, 77
1, 93006, Control_c, 0, 67, 75
1, 93021, Control_c, 0, 67, 71
1, 93027, Note_off_c, 0, 84, 61
1, 93035, Control_c, 0, 67, 68
1, 93044, Note_off_c, 0, 87, 59
1, 93050, Control_c, 0, 67, 67
1, 93065, Control_c, 0, 67, 67
1, 93080, Control_c, 0, 67, 70
1, 93094, Control_c, 0, 67, 70
1, 93109, Control_c, 0, 67, 68
1, 93114, Note_on_c, 0, 47, 71
1, 93114, Note_on_c, 0, 59, 72
1, 93124, Control_c, 0, 67, 62
1, 93132, Note_on_c, 0, 75, 78
1, 93138, Note_off_c, 0, 59, 70
1, 93139, Control_c, 0, 67, 47
1, 93143, Note_off_c, 0, 47, 63
1, 93154, Control_c, 0, 67, 28
1, 93155, Note_off_c, 0, 75, 68
1, 93168, Control_c, 0, 67, 22
1, 93183, Control_c, 0, 67, 25
1, 93203, Note_on_c, 0, 60, 77
1, 93208, Note_on_c, 0, 48, 81
1, 93213, Control_c, 0, 67, 23
1, 93218, Note_on_c, 0, 86, 91
1, 93221, Note_on_c, 0, 74, 90
1, 93228, Control_c, 0, 67, 0
1, 93229, Note_off_c, 0, 60, 68
1, 93233, Note_off_c, 0, 48, 69
1, 93245, Note_off_c, 0, 74, 67
1, 93254, Note_off_c, 0, 86, 67
1, 93302, Control_c, 0, 67, 20
1, 93303, Note_on_c, 0, 61, 84
1, 93307, Note_on_c, 0, 49, 85
1, 93312, Note_on_c, 0, 73, 97
1, 93316, Control_c, 0, 67, 0
1, 93322, Note_on_c, 0, 87, 75
1, 93327, Note_off_c, 0, 61, 65
1, 93334, Note_off_c, 0, 49, 66
1, 93340, Note_on_c, 0, 85, 51
1, 93343, Note_off_c, 0, 87, 70
1, 93357, Note_off_c, 0, 73, 61
1, 93366, Note_off_c, 0, 85, 36
1, 93393, Note_on_c, 0, 62, 91
1, 93400, Note_on_c, 0, 50, 89
1, 93405, Note_on_c, 0, 79, 90
1, 93417, Note_off_c, 0, 62, 67
1, 93421, Control_c, 0, 64, 75
1, 93431, Note_on_c, 0, 51, 33
1, 93436, Control_c, 0, 64, 0
1, 93445, Note_off_c, 0, 50, 64
1, 93448, Note_off_c, 0, 79, 67
1, 93466, Note_off_c, 0, 51, 32
1, 93509, Control_c, 0, 67, 26
1, 93516, Note_on_c, 0, 80, 116
1, 93521, Note_on_c, 0, 87, 95
1, 93524, Note_on_c, 0, 84, 91
1, 93524, Control_c, 0, 64, 64
1, 93524, Control_c, 0, 67, 22
1, 93525, Note_on_c, 0, 48, 101
1, 93527, Note_on_c, 0, 92, 86
1, 93528, Note_on_c, 0, 36, 90
1, 93530, Note_on_c, 0, 90, 70
1, 93539, Control_c, 0, 64, 127
1, 93539, Control_c, 0, 67, 0
1, 93551, Note_off_c, 0, 36, 71
1, 93555, Note_off_c, 0, 48, 67
1, 93566, Note_off_c, 0, 87, 0
1, 93567, Note_on_c, 0, 86, 72
1, 93573, Note_on_c, 0, 91, 58
1, 93597, Note_on_c, 0, 37, 2
1, 93603, Poly_aftertouch_c, 0, 87, 127
1, 93603, Note_off_c, 0, 90, 58
1, 93605, Note_off_c, 0, 92, 28
1, 93617, Note_off_c, 0, 91, 60
1, 93649, Note_off_c, 0, 37, 34
1, 93677, Note_off_c, 0, 80, 55
1, 93743, Poly_aftertouch_c, 0, 87, 0
1, 93828, Note_off_c, 0, 84, 41
1, 93849, Note_off_c, 0, 86, 31
1, 93850, Note_on_c, 0, 62, 84
1, 93854, Note_on_c, 0, 50, 78
1, 93864, Note_on_c, 0, 78, 88
1, 93870, Note_on_c, 0, 90, 84
1, 93877, Note_off_c, 0, 62, 64
1, 93881, Note_off_c, 0, 50, 66
1, 93887, Note_off_c, 0, 90, 73
1, 93891, Note_off_c, 0, 78, 64
1, 93916, Control_c, 0, 67, 32
1, 93929, Note_on_c, 0, 91, 97
1, 93931, Control_c, 0, 64, 76
1, 93931, Control_c, 0, 67, 28
1, 93934, Note_on_c, 0, 79, 100
1, 93936, Note_on_c, 0, 87, 104
1, 93938, Note_on_c, 0, 63, 91
1, 93939, Note_on_c, 0, 84, 82
1, 93942, Note_on_c, 0, 51, 95
1, 93946, Control_c, 0, 64, 64
1, 93946, Control_c, 0, 67, 24
1, 93961, Control_c, 0, 64, 68
1, 93961, Control_c, 0, 67, 21
1, 93975, Note_on_c, 0, 83, 31
1, 93975, Note_off_c, 0, 83, 127
1, 93975, Control_c, 0, 64, 87
1, 93975, Control_c, 0, 67, 0
1, 93980, Note_off_c, 0, 63, 62
1, 93990, Note_off_c, 0, 51, 63
1, 93990, Control_c, 0, 64, 127
1, 94020, Control_c, 0, 67, 19
1, 94035, Control_c, 0, 67, 0
1, 94124, Control_c, 0, 64, 111
1, 94139, Control_c, 0, 64, 63
1, 94149, Note_on_c, 0, 43, 99
1, 94154, Note_on_c, 0, 31, 98
1, 94154, Control_c, 0, 64, 0
1, 94154, Control_c, 0, 67, 44
1, 94169, Control_c, 0, 64, 34
1, 94169, Control_c, 0, 67, 78
1, 94183, Control_c, 0, 64, 65
1, 94183, Control_c, 0, 67, 80
1, 94188, Note_off_c, 0, 43, 65
1, 94189, Note_off_c, 0, 31, 61
1, 94198, Control_c, 0, 64, 127
1, 94198, Control_c, 0, 67, 76
1, 94199, Note_off_c, 0, 91, 61
1, 94214, Control_c, 0, 67, 70
1, 94226, Note_off_c, 0, 79, 59
1, 94229, Control_c, 0, 67, 64
1, 94243, Control_c, 0, 67, 63
1, 94258, Control_c, 0, 67, 67
1, 94263, Note_off_c, 0, 84, 60
1, 94267, Note_off_c, 0, 87, 63
1, 94273, Control_c, 0, 67, 67
1, 94288, Control_c, 0, 67, 66
1, 94303, Control_c, 0, 67, 62
1, 94318, Control_c, 0, 67, 59
1, 94332, Control_c, 0, 67, 57
1, 94347, Control_c, 0, 67, 58
1, 94361, Note_on_c, 0, 47, 71
1, 94362, Note_on_c, 0, 59, 71
1, 94362, Control_c, 0, 67, 61
1, 94372, Note_on_c, 0, 75, 81
1, 94372, Note_on_c, 0, 87, 76
1, 94384, Control_c, 0, 67, 61
1, 94393, Note_off_c, 0, 59, 70
1, 94397, Note_off_c, 0, 47, 65
1, 94399, Control_c, 0, 67, 57
1, 94400, Note_off_c, 0, 75, 70
1, 94402, Note_off_c, 0, 87, 69
1, 94413, Control_c, 0, 67, 46
1, 94428, Control_c, 0, 67, 0
1, 94457, Note_on_c, 0, 60, 77
1, 94458, Note_on_c, 0, 48, 82
1, 94461, Note_on_c, 0, 86, 92
1, 94462, Note_on_c, 0, 74, 90
1, 94484, Note_off_c, 0, 60, 68
1, 94488, Control_c, 0, 67, 20
1, 94488, Note_off_c, 0, 48, 66
1, 94491, Note_on_c, 0, 59, 21
1, 94491, Note_off_c, 0, 74, 66
1, 94497, Note_off_c, 0, 86, 67
1, 94503, Control_c, 0, 67, 24
1, 94518, Control_c, 0, 67, 19
1, 94528, Note_off_c, 0, 59, 48
1, 94532, Control_c, 0, 67, 0
1, 94553, Note_on_c, 0, 73, 94
1, 94554, Note_on_c, 0, 61, 93
1, 94560, Note_on_c, 0, 85, 90
1, 94561, Note_on_c, 0, 49, 82
1, 94562, Control_c, 0, 67, 22
1, 94577, Control_c, 0, 67, 26
1, 94577, Note_off_c, 0, 61, 65
1, 94583, Note_off_c, 0, 85, 63
1, 94585, Note_off_c, 0, 49, 70
1, 94593, Note_off_c, 0, 73, 63
1, 94606, Control_c, 0, 67, 21
1, 94621, Control_c, 0, 67, 0
1, 94651, Control_c, 0, 64, 77
1, 94655, Note_on_c, 0, 79, 104
1, 94665, Control_c, 0, 64, 44
1, 94666, Note_on_c, 0, 62, 89
1, 94680, Control_c, 0, 64, 0
1, 94682, Note_on_c, 0, 50, 63
1, 94701, Note_off_c, 0, 79, 69
1, 94706, Note_off_c, 0, 50, 62
1, 94708, Note_off_c, 0, 62, 64
1, 94822, Note_on_c, 0, 63, 102
1, 94827, Note_on_c, 0, 60, 78
1, 94828, Note_on_c, 0, 72, 97
1, 94828, Note_on_c, 0, 79, 99
1, 94828, Control_c, 0, 64, 40
1, 94828, Control_c, 0, 67, 49
1, 94829, Note_on_c, 0, 84, 94
1, 94833, Note_on_c, 0, 75, 86
1, 94834, Note_on_c, 0, 55, 67
1, 94840, Note_on_c, 0, 51, 67
1, 94843, Control_c, 0, 64, 127
1, 94843, Control_c, 0, 67, 122
1, 94858, Control_c, 0, 67, 127
1, 94862, Note_off_c, 0, 63, 65
1, 94864, Note_off_c, 0, 51, 66
1, 94871, Note_off_c, 0, 60, 68
1, 94884, Note_off_c, 0, 55, 63
1, 94917, Control_c, 0, 67, 118
1, 94923, Note_off_c, 0, 72, 60
1, 94947, Control_c, 0, 67, 120
1, 94955, Note_off_c, 0, 84, 59
1, 94962, Control_c, 0, 67, 116
1, 94977, Control_c, 0, 67, 113
1, 94981, Note_off_c, 0, 75, 61
1, 94992, Control_c, 0, 67, 109
1, 94997, Note_off_c, 0, 79, 63
1, 95008, Control_c, 0, 67, 104
1, 95037, Control_c, 0, 67, 102
1, 95052, Control_c, 0, 67, 95
1, 95063, Note_on_c, 0, 48, 88
1, 95066, Note_on_c, 0, 36, 91
1, 95067, Control_c, 0, 67, 74
1, 95081, Control_c, 0, 67, 51
1, 95096, Control_c, 0, 67, 34
1, 95102, Note_off_c, 0, 36, 62
1, 95111, Control_c, 0, 67, 24
1, 95132, Note_off_c, 0, 48, 62
1, 95134, Control_c, 0, 67, 0
1, 95145, Note_on_c, 0, 74, 85
1, 95156, Note_on_c, 0, 86, 71
1, 95162, Note_off_c, 0, 74, 73
1, 95174, Note_off_c, 0, 86, 68
1, 95222, Note_on_c, 0, 75, 103
1, 95224, Note_on_c, 0, 87, 95
1, 95231, Note_on_c, 0, 79, 86
1, 95232, Note_on_c, 0, 84, 89
1, 95242, Note_on_c, 0, 85, 72
1, 95352, Note_off_c, 0, 75, 54
1, 95355, Note_off_c, 0, 85, 52
1, 95384, Note_off_c, 0, 87, 61
1, 95386, Note_off_c, 0, 79, 60
1, 95389, Note_off_c, 0, 84, 60
1, 95415, Note_on_c, 0, 63, 96
1, 95418, Note_on_c, 0, 60, 83
1, 95422, Note_on_c, 0, 55, 76
1, 95427, Note_on_c, 0, 51, 81
1, 95430, Control_c, 0, 67, 44
1, 95443, Note_off_c, 0, 63, 64
1, 95445, Control_c, 0, 67, 66
1, 95455, Note_off_c, 0, 60, 64
1, 95460, Control_c, 0, 67, 52
1, 95470, Note_off_c, 0, 55, 63
1, 95475, Control_c, 0, 67, 36
1, 95484, Note_off_c, 0, 51, 64
1, 95489, Control_c, 0, 67, 0
1, 95496, Note_on_c, 0, 77, 92
1, 95496, Note_on_c, 0, 89, 97
1, 95519, Control_c, 0, 64, 64
1, 95520, Note_off_c, 0, 77, 65
1, 95534, Control_c, 0, 64, 0
1, 95535, Note_off_c, 0, 89, 61
1, 95574, Note_on_c, 0, 79, 99
1, 95576, Note_on_c, 0, 91, 98
1, 95600, Note_off_c, 0, 79, 67
1, 95606, Note_off_c, 0, 91, 67
1, 95783, Note_on_c, 0, 48, 89
1, 95788, Note_on_c, 0, 36, 79
1, 95792, Note_on_c, 0, 81, 96
1, 95795, Note_on_c, 0, 93, 85
1, 95803, Note_on_c, 0, 91, 74
1, 95817, Note_off_c, 0, 81, 66
1, 95818, Note_off_c, 0, 91, 69
1, 95818, Note_off_c, 0, 93, 68
1, 95820, Note_off_c, 0, 36, 67
1, 95821, Note_off_c, 0, 48, 64
1, 96023, Note_on_c, 0, 47, 88
1, 96029, Note_on_c, 0, 95, 93
1, 96030, Note_on_c, 0, 83, 98
1, 96031, Note_on_c, 0, 42, 84
1, 96031, Control_c, 0, 64, 50
1, 96032, Note_on_c, 0, 87, 95
1, 96032, Note_on_c, 0, 90, 94
1, 96033, Note_on_c, 0, 39, 84
1, 96044, Note_on_c, 0, 35, 51
1, 96046, Control_c, 0, 64, 127
1, 96046, Control_c, 0, 67, 57
1, 96050, Note_off_c, 0, 47, 68
1, 96054, Note_on_c, 0, 33, 34
1, 96059, Note_off_c, 0, 39, 69
1, 96060, Control_c, 0, 67, 60
1, 96071, Note_off_c, 0, 83, 64
1, 96071, Note_off_c, 0, 42, 62
1, 96072, Note_off_c, 0, 35, 55
1, 96075, Control_c, 0, 67, 59
1, 96090, Control_c, 0, 67, 61
1, 96091, Note_off_c, 0, 33, 53
1, 96104, Control_c, 0, 67, 66
1, 96119, Control_c, 0, 67, 70
1, 96126, Note_off_c, 0, 87, 62
1, 96138, Note_off_c, 0, 90, 59
1, 96149, Control_c, 0, 67, 66
1, 96164, Control_c, 0, 67, 65
1, 96193, Control_c, 0, 67, 65
1, 96208, Control_c, 0, 67, 67
1, 96253, Control_c, 0, 67, 65
1, 96327, Control_c, 0, 67, 63
1, 96328, Note_off_c, 0, 95, 65
1, 96342, Control_c, 0, 67, 61
1, 96355, Note_on_c, 0, 90, 97
1, 96357, Control_c, 0, 67, 60
1, 96358, Note_on_c, 0, 78, 93
1, 96372, Control_c, 0, 67, 59
1, 96408, Note_off_c, 0, 78, 64
1, 96411, Note_off_c, 0, 90, 64
1, 96442, Note_on_c, 0, 83, 107
1, 96445, Control_c, 0, 67, 58
1, 96447, Note_on_c, 0, 71, 92
1, 96460, Control_c, 0, 67, 57
1, 96474, Note_off_c, 0, 83, 70
1, 96475, Control_c, 0, 67, 56
1, 96479, Note_off_c, 0, 71, 66
1, 96504, Control_c, 0, 67, 57
1, 96519, Control_c, 0, 67, 58
1, 96534, Control_c, 0, 67, 59
1, 96578, Control_c, 0, 67, 60
1, 96593, Control_c, 0, 67, 60
1, 96631, Control_c, 0, 67, 61
1, 96646, Control_c, 0, 67, 61
1, 96661, Control_c, 0, 64, 92
1, 96676, Control_c, 0, 64, 72
1, 96691, Control_c, 0, 64, 69
1, 96700, Note_on_c, 0, 72, 87
1, 96702, Note_on_c, 0, 84, 96
1, 96703, Note_on_c, 0, 60, 76
1, 96706, Control_c, 0, 64, 74
1, 96708, Note_on_c, 0, 48, 63
1, 96721, Control_c, 0, 64, 86
1, 96727, Note_off_c, 0, 60, 68
1, 96734, Note_off_c, 0, 48, 66
1, 96735, Note_off_c, 0, 72, 61
1, 96735, Control_c, 0, 64, 115
1, 96741, Note_off_c, 0, 84, 61
1, 96750, Control_c, 0, 64, 127
1, 96765, Control_c, 0, 67, 62
1, 96780, Control_c, 0, 67, 63
1, 96804, Note_on_c, 0, 62, 72
1, 96809, Note_on_c, 0, 50, 76
1, 96815, Note_on_c, 0, 74, 91
1, 96816, Note_on_c, 0, 86, 86
1, 96829, Note_off_c, 0, 62, 68
1, 96834, Note_off_c, 0, 50, 66
1, 96835, Note_off_c, 0, 86, 67
1, 96837, Note_off_c, 0, 74, 69
1, 96839, Control_c, 0, 67, 63
1, 96853, Control_c, 0, 67, 64
1, 96868, Control_c, 0, 67, 66
1, 96883, Control_c, 0, 67, 67
1, 96898, Control_c, 0, 67, 68
1, 96904, Note_on_c, 0, 63, 80
1, 96905, Note_on_c, 0, 51, 81
1, 96905, Note_on_c, 0, 75, 92
1, 96908, Note_on_c, 0, 87, 95
1, 96913, Control_c, 0, 67, 69
1, 96923, Note_off_c, 0, 63, 72
1, 96925, Note_off_c, 0, 87, 71
1, 96927, Note_off_c, 0, 51, 70
1, 96927, Note_off_c, 0, 75, 67
1, 96927, Control_c, 0, 67, 69
1, 96942, Control_c, 0, 67, 69
1, 96983, Note_on_c, 0, 53, 84
1, 96983, Note_on_c, 0, 65, 88
1, 96991, Note_on_c, 0, 89, 98
1, 96993, Note_on_c, 0, 77, 87
1, 97001, Note_on_c, 0, 54, 50
1, 97005, Note_off_c, 0, 65, 69
1, 97009, Note_off_c, 0, 53, 67
1, 97016, Note_off_c, 0, 77, 66
1, 97016, Control_c, 0, 67, 68
1, 97021, Note_off_c, 0, 89, 61
1, 97025, Note_off_c, 0, 54, 61
1, 97031, Control_c, 0, 67, 67
1, 97046, Control_c, 0, 67, 67
1, 97060, Control_c, 0, 67, 67
1, 97067, Note_on_c, 0, 91, 101
1, 97069, Note_on_c, 0, 79, 89
1, 97072, Note_on_c, 0, 55, 93
1, 97078, Note_on_c, 0, 67, 81
1, 97098, Note_off_c, 0, 79, 67
1, 97101, Note_off_c, 0, 67, 68
1, 97102, Note_off_c, 0, 91, 67
1, 97105, Control_c, 0, 67, 67
1, 97109, Note_off_c, 0, 55, 60
1, 97120, Control_c, 0, 67, 66
1, 97150, Control_c, 0, 64, 79
1, 97151, Note_on_c, 0, 81, 93
1, 97156, Note_on_c, 0, 93, 97
1, 97165, Control_c, 0, 64, 42
1, 97165, Control_c, 0, 67, 64
1, 97169, Note_on_c, 0, 57, 86
1, 97174, Poly_aftertouch_c, 0, 65, 0
1, 97174, Note_on_c, 0, 69, 84
1, 97180, Control_c, 0, 64, 0
1, 97180, Control_c, 0, 67, 55
1, 97190, Note_off_c, 0, 81, 67
1, 97193, Note_off_c, 0, 93, 67
1, 97195, Note_off_c, 0, 69, 67
1, 97195, Control_c, 0, 67, 31
1, 97204, Note_off_c, 0, 57, 62
1, 97209, Control_c, 0, 67, 0
1, 97269, Control_c, 0, 67, 21
1, 97271, Note_on_c, 0, 71, 96
1, 97273, Note_on_c, 0, 59, 77
1, 97278, Note_on_c, 0, 83, 102
1, 97278, Note_on_c, 0, 95, 101
1, 97281, Note_on_c, 0, 87, 96
1, 97281, Note_on_c, 0, 90, 93
1, 97284, Control_c, 0, 64, 70
1, 97284, Control_c, 0, 67, 39
1, 97288, Note_on_c, 0, 63, 57
1, 97293, Note_on_c, 0, 66, 70
1, 97293, Note_off_c, 0, 59, 73
1, 97299, Note_off_c, 0, 71, 65
1, 97299, Control_c, 0, 64, 127
1, 97299, Control_c, 0, 67, 47
1, 97301, Note_on_c, 0, 84, 63
1, 97301, Note_off_c, 0, 84, 127
1, 97306, Note_off_c, 0, 83, 63
1, 97314, Control_c, 0, 67, 43
1, 97315, Note_off_c, 0, 63, 68
1, 97320, Note_off_c, 0, 66, 66
1, 97325, Note_off_c, 0, 87, 51
1, 97328, Control_c, 0, 67, 40
1, 97341, Note_on_c, 0, 92, 19
1, 97341, Note_off_c, 0, 92, 127
1, 97343, Control_c, 0, 67, 39
1, 97355, Note_off_c, 0, 90, 64
1, 97358, Control_c, 0, 67, 38
1, 97380, Control_c, 0, 67, 42
1, 97395, Control_c, 0, 67, 45
1, 97426, Control_c, 0, 67, 42
1, 97440, Control_c, 0, 67, 39
1, 97455, Control_c, 0, 67, 39
1, 97470, Control_c, 0, 67, 38
1, 97514, Control_c, 0, 67, 38
1, 97529, Control_c, 0, 67, 34
1, 97544, Control_c, 0, 67, 25
1, 97558, Control_c, 0, 67, 0
1, 97571, Note_off_c, 0, 95, 62
1, 97602, Note_on_c, 0, 90, 94
1, 97613, Note_on_c, 0, 78, 81
1, 97651, Note_off_c, 0, 78, 68
1, 97658, Note_off_c, 0, 90, 64
1, 97680, Note_on_c, 0, 83, 95
1, 97684, Note_on_c, 0, 71, 91
1, 97708, Note_off_c, 0, 71, 69
1, 97711, Note_off_c, 0, 83, 67
1, 97884, Control_c, 0, 64, 85
1, 97899, Control_c, 0, 64, 53
1, 97914, Control_c, 0, 64, 0
1, 97919, Note_on_c, 0, 72, 99
1, 97924, Note_on_c, 0, 84, 105
1, 97929, Note_on_c, 0, 48, 88
1, 97929, Control_c, 0, 64, 46
1, 97933, Note_on_c, 0, 36, 85
1, 97944, Control_c, 0, 64, 69
1, 97956, Note_off_c, 0, 72, 65
1, 97958, Control_c, 0, 64, 127
1, 97959, Note_off_c, 0, 48, 63
1, 97964, Note_off_c, 0, 84, 64
1, 97968, Note_off_c, 0, 36, 62
1, 98069, Note_on_c, 0, 50, 71
1, 98071, Note_on_c, 0, 38, 75
1, 98074, Note_on_c, 0, 74, 90
1, 98078, Note_on_c, 0, 86, 92
1, 98097, Note_off_c, 0, 50, 67
1, 98100, Note_off_c, 0, 38, 65
1, 98101, Note_off_c, 0, 74, 67
1, 98111, Note_off_c, 0, 86, 64
1, 98181, Note_on_c, 0, 39, 82
1, 98181, Note_on_c, 0, 51, 85
1, 98184, Note_on_c, 0, 75, 92
1, 98188, Note_on_c, 0, 87, 95
1, 98208, Note_off_c, 0, 39, 63
1, 98208, Note_off_c, 0, 87, 68
1, 98209, Note_off_c, 0, 51, 63
1, 98226, Note_off_c, 0, 75, 61
1, 98262, Control_c, 0, 67, 19
1, 98265, Note_on_c, 0, 41, 79
1, 98265, Note_on_c, 0, 53, 85
1, 98275, Note_on_c, 0, 77, 90
1, 98278, Note_on_c, 0, 89, 93
1, 98289, Note_off_c, 0, 53, 67
1, 98295, Note_off_c, 0, 41, 66
1, 98305, Note_off_c, 0, 77, 61
1, 98305, Note_off_c, 0, 89, 64
1, 98306, Control_c, 0, 67, 0
1, 98347, Note_on_c, 0, 55, 92
1, 98355, Note_on_c, 0, 79, 97
1, 98355, Note_on_c, 0, 91, 97
1, 98356, Note_on_c, 0, 43, 68
1, 98363, Note_on_c, 0, 41, 75
1, 98381, Control_c, 0, 64, 111
1, 98386, Note_off_c, 0, 55, 61
1, 98388, Note_off_c, 0, 79, 66
1, 98388, Note_off_c, 0, 41, 63
1, 98390, Note_off_c, 0, 43, 64
1, 98390, Note_off_c, 0, 91, 68
1, 98396, Control_c, 0, 64, 68
1, 98411, Control_c, 0, 64, 0
1, 98434, Note_on_c, 0, 81, 96
1, 98436, Note_on_c, 0, 93, 97
1, 98441, Note_on_c, 0, 57, 96
1, 98444, Note_on_c, 0, 45, 91
1, 98471, Note_off_c, 0, 81, 66
1, 98476, Note_off_c, 0, 93, 68
1, 98479, Note_off_c, 0, 57, 66
1, 98487, Note_off_c, 0, 45, 62
1, 98554, Note_on_c, 0, 83, 114
1, 98556, Note_on_c, 0, 59, 93
1, 98556, Note_on_c, 0, 95, 100
1, 98558, Note_on_c, 0, 87, 94
1, 98559, Note_on_c, 0, 90, 89
1, 98560, Note_on_c, 0, 47, 91
1, 98571, Note_off_c, 0, 95, 70
1, 98573, Note_off_c, 0, 83, 69
1, 98573, Note_off_c, 0, 87, 76
1, 98573, Control_c, 0, 64, 127
1, 98573, Control_c, 0, 67, 54
1, 98575, Note_off_c, 0, 90, 74
1, 98581, Note_off_c, 0, 59, 65
1, 98585, Note_off_c, 0, 47, 69
1, 98588, Control_c, 0, 67, 74
1, 98597, Note_on_c, 0, 92, 33
1, 98597, Note_off_c, 0, 92, 127
1, 98603, Control_c, 0, 67, 66
1, 98617, Control_c, 0, 67, 66
1, 98647, Control_c, 0, 67, 69
1, 98662, Control_c, 0, 67, 72
1, 98692, Control_c, 0, 67, 71
1, 98706, Control_c, 0, 67, 70
1, 98736, Control_c, 0, 67, 70
1, 98751, Control_c, 0, 67, 72
1, 98756, Note_on_c, 0, 42, 87
1, 98758, Note_on_c, 0, 54, 87
1, 98766, Control_c, 0, 67, 72
1, 98786, Note_off_c, 0, 42, 67
1, 98789, Note_off_c, 0, 54, 62
1, 98795, Control_c, 0, 67, 71
1, 98810, Control_c, 0, 67, 69
1, 98822, Note_on_c, 0, 78, 78
1, 98825, Control_c, 0, 67, 68
1, 98830, Note_on_c, 0, 90, 78
1, 98840, Control_c, 0, 67, 68
1, 98843, Note_off_c, 0, 78, 70
1, 98846, Note_off_c, 0, 90, 70
1, 98855, Control_c, 0, 67, 69
1, 98877, Control_c, 0, 67, 70
1, 98892, Control_c, 0, 64, 69
1, 98892, Control_c, 0, 67, 71
1, 98900, Note_on_c, 0, 60, 81
1, 98904, Note_on_c, 0, 48, 77
1, 98906, Control_c, 0, 64, 0
1, 98906, Control_c, 0, 67, 72
1, 98907, Note_on_c, 0, 82, 96
1, 98907, Note_on_c, 0, 94, 104
1, 98921, Note_off_c, 0, 60, 72
1, 98921, Control_c, 0, 67, 73
1, 98929, Note_off_c, 0, 48, 67
1, 98943, Note_off_c, 0, 82, 60
1, 98946, Note_off_c, 0, 94, 63
1, 98966, Control_c, 0, 67, 74
1, 98980, Control_c, 0, 67, 74
1, 98995, Control_c, 0, 67, 75
1, 99083, Note_on_c, 0, 61, 84
1, 99085, Control_c, 0, 64, 69
1, 99085, Control_c, 0, 67, 76
1, 99088, Note_on_c, 0, 49, 80
1, 99090, Note_on_c, 0, 81, 107
1, 99091, Note_on_c, 0, 93, 107
1, 99100, Control_c, 0, 64, 127
1, 99100, Control_c, 0, 67, 76
1, 99106, Note_off_c, 0, 61, 68
1, 99111, Note_off_c, 0, 81, 65
1, 99118, Note_off_c, 0, 49, 65
1, 99118, Note_off_c, 0, 93, 67
1, 99129, Control_c, 0, 67, 76
1, 99144, Control_c, 0, 67, 75
1, 99204, Control_c, 0, 67, 75
1, 99219, Control_c, 0, 67, 74
1, 99234, Control_c, 0, 67, 73
1, 99263, Note_on_c, 0, 55, 73
1, 99264, Note_on_c, 0, 43, 70
1, 99278, Control_c, 0, 67, 73
1, 99287, Note_off_c, 0, 55, 68
1, 99293, Control_c, 0, 67, 74
1, 99295, Note_off_c, 0, 43, 64
1, 99325, Note_on_c, 0, 76, 76
1, 99325, Note_on_c, 0, 88, 85
1, 99337, Control_c, 0, 64, 67
1, 99344, Note_off_c, 0, 88, 70
1, 99347, Note_off_c, 0, 76, 71
1, 99352, Control_c, 0, 64, 0
1, 99367, Control_c, 0, 67, 75
1, 99382, Control_c, 0, 67, 76
1, 99396, Control_c, 0, 67, 77
1, 99398, Note_on_c, 0, 62, 82
1, 99400, Note_on_c, 0, 50, 79
1, 99400, Note_on_c, 0, 92, 99
1, 99402, Note_on_c, 0, 80, 92
1, 99411, Control_c, 0, 64, 35
1, 99411, Control_c, 0, 67, 79
1, 99420, Note_off_c, 0, 62, 70
1, 99423, Note_off_c, 0, 50, 66
1, 99426, Control_c, 0, 64, 58
1, 99426, Control_c, 0, 67, 82
1, 99441, Control_c, 0, 64, 65
1, 99441, Control_c, 0, 67, 90
1, 99455, Control_c, 0, 64, 68
1, 99455, Control_c, 0, 67, 102
1, 99470, Control_c, 0, 67, 115
1, 99485, Control_c, 0, 67, 126
1, 99500, Control_c, 0, 64, 66
1, 99515, Control_c, 0, 64, 58
1, 99529, Control_c, 0, 64, 0
1, 99550, Note_off_c, 0, 92, 65
1, 99554, Note_off_c, 0, 80, 62
1, 99573, Note_on_c, 0, 60, 87
1, 99574, Control_c, 0, 64, 46
1, 99577, Note_on_c, 0, 48, 80
1, 99588, Control_c, 0, 64, 70
1, 99595, Note_off_c, 0, 60, 70
1, 99603, Control_c, 0, 64, 98
1, 99607, Note_off_c, 0, 48, 68
1, 99626, Control_c, 0, 64, 127
1, 99647, Note_on_c, 0, 75, 72
1, 99653, Note_on_c, 0, 87, 81
1, 99655, Control_c, 0, 67, 124
1, 99672, Note_off_c, 0, 75, 68
1, 99673, Note_off_c, 0, 87, 71
1, 99715, Control_c, 0, 64, 79
1, 99722, Note_on_c, 0, 55, 83
1, 99728, Note_on_c, 0, 43, 73
1, 99728, Note_on_c, 0, 91, 93
1, 99729, Control_c, 0, 64, 49
1, 99730, Note_on_c, 0, 77, 71
1, 99730, Note_on_c, 0, 89, 84
1, 99737, Note_on_c, 0, 79, 80
1, 99744, Note_off_c, 0, 55, 71
1, 99744, Control_c, 0, 64, 0
1, 99755, Note_off_c, 0, 43, 66
1, 99773, Control_c, 0, 64, 66
1, 99773, Control_c, 0, 67, 126
1, 99788, Control_c, 0, 64, 92
1, 99805, Control_c, 0, 64, 127
1, 99818, Note_off_c, 0, 91, 63
1, 99823, Note_off_c, 0, 79, 54
1, 99830, Note_off_c, 0, 89, 62
1, 99841, Note_off_c, 0, 77, 55
1, 99877, Note_on_c, 0, 61, 89
1, 99885, Note_on_c, 0, 49, 80
1, 99893, Control_c, 0, 64, 98
1, 99901, Note_off_c, 0, 61, 66
1, 99908, Control_c, 0, 64, 64
1, 99912, Note_off_c, 0, 49, 69
1, 99923, Control_c, 0, 64, 0
1, 99923, Control_c, 0, 67, 124
1, 99934, Note_on_c, 0, 69, 80
1, 99944, Note_on_c, 0, 81, 73
1, 99954, Note_off_c, 0, 69, 71
1, 99958, Note_off_c, 0, 81, 68
1, 99967, Control_c, 0, 64, 61
1, 99982, Control_c, 0, 64, 73
1, 100012, Control_c, 0, 64, 68
1, 100015, Note_on_c, 0, 62, 90
1, 100020, Note_on_c, 0, 50, 80
1, 100020, Note_on_c, 0, 90, 97
1, 100021, Note_on_c, 0, 78, 98
1, 100026, Control_c, 0, 64, 66
1, 100036, Note_off_c, 0, 62, 69
1, 100041, Control_c, 0, 64, 73
1, 100041, Control_c, 0, 67, 127
1, 100050, Note_off_c, 0, 50, 67
1, 100056, Control_c, 0, 64, 95
1, 100071, Control_c, 0, 64, 127
1, 100143, Note_off_c, 0, 78, 61
1, 100146, Note_off_c, 0, 90, 65
1, 100183, Note_on_c, 0, 57, 79
1, 100187, Note_on_c, 0, 45, 66
1, 100205, Control_c, 0, 64, 88
1, 100206, Note_off_c, 0, 57, 70
1, 100209, Note_off_c, 0, 45, 62
1, 100220, Control_c, 0, 64, 69
1, 100220, Control_c, 0, 67, 125
1, 100235, Control_c, 0, 64, 65
1, 100250, Control_c, 0, 64, 72
1, 100265, Control_c, 0, 64, 92
1, 100265, Control_c, 0, 67, 123
1, 100267, Note_on_c, 0, 73, 42
1, 100273, Note_on_c, 0, 87, 47
1, 100279, Control_c, 0, 64, 127
1, 100295, Note_off_c, 0, 73, 57
1, 100298, Note_off_c, 0, 87, 58
1, 100319, Note_on_c, 0, 63, 92
1, 100328, Note_on_c, 0, 77, 96
1, 100330, Note_on_c, 0, 89, 95
1, 100331, Note_on_c, 0, 51, 70
1, 100340, Note_off_c, 0, 63, 69
1, 100348, Note_off_c, 0, 89, 69
1, 100350, Note_off_c, 0, 77, 66
1, 100359, Note_off_c, 0, 51, 65
1, 100375, Control_c, 0, 67, 120
1, 100390, Control_c, 0, 67, 118
1, 100405, Control_c, 0, 67, 113
1, 100420, Control_c, 0, 67, 103
1, 100435, Control_c, 0, 67, 83
1, 100450, Control_c, 0, 67, 59
1, 100465, Control_c, 0, 67, 34
1, 100479, Control_c, 0, 64, 111
1, 100479, Control_c, 0, 67, 0
1, 100485, Note_on_c, 0, 64, 84
1, 100490, Note_on_c, 0, 52, 78
1, 100491, Note_on_c, 0, 76, 94
1, 100492, Note_on_c, 0, 88, 96
1, 100494, Control_c, 0, 64, 62
1, 100505, Note_off_c, 0, 64, 72
1, 100509, Control_c, 0, 64, 0
1, 100509, Note_off_c, 0, 76, 73
1, 100511, Note_off_c, 0, 88, 70
1, 100515, Note_off_c, 0, 52, 68
1, 100643, Note_on_c, 0, 59, 73
1, 100643, Note_on_c, 0, 83, 89
1, 100662, Note_off_c, 0, 83, 68
1, 100670, Note_off_c, 0, 59, 66
1, 100795, Note_on_c, 0, 88, 91
1, 100796, Note_on_c, 0, 76, 85
1, 100803, Note_on_c, 0, 64, 66
1, 100805, Note_on_c, 0, 52, 62
1, 100812, Note_off_c, 0, 88, 73
1, 100814, Note_off_c, 0, 76, 73
1, 100822, Note_off_c, 0, 64, 66
1, 100827, Note_off_c, 0, 52, 62
1, 100939, Control_c, 0, 67, 24
1, 100954, Control_c, 0, 64, 51
1, 100957, Note_on_c, 0, 59, 86
1, 100959, Note_on_c, 0, 83, 107
1, 100968, Control_c, 0, 64, 127
1, 100968, Control_c, 0, 67, 21
1, 100998, Control_c, 0, 67, 0
1, 101016, Note_off_c, 0, 83, 65
1, 101019, Note_on_c, 0, 85, 86
1, 101064, Note_off_c, 0, 59, 59
1, 101072, Note_off_c, 0, 85, 63
1, 101095, Note_on_c, 0, 83, 71
1, 101127, Note_off_c, 0, 83, 68
1, 101155, Note_on_c, 0, 61, 42
1, 101155, Note_on_c, 0, 85, 77
1, 101201, Note_off_c, 0, 85, 63
1, 101206, Note_off_c, 0, 61, 63
1, 101220, Note_on_c, 0, 83, 54
1, 101224, Note_on_c, 0, 59, 18
1, 101241, Note_off_c, 0, 83, 60
1, 101252, Note_on_c, 0, 85, 67
1, 101263, Note_off_c, 0, 59, 44
1, 101280, Note_off_c, 0, 85, 68
1, 101284, Note_on_c, 0, 58, 73
1, 101308, Note_on_c, 0, 62, 58
1, 101335, Note_off_c, 0, 58, 56
1, 101339, Note_off_c, 0, 62, 65
1, 101344, Note_on_c, 0, 82, 59
1, 101365, Note_off_c, 0, 82, 62
1, 101368, Note_on_c, 0, 83, 62
1, 101402, Note_off_c, 0, 83, 62
1, 101407, Control_c, 0, 67, 27
1, 101408, Note_on_c, 0, 87, 77
1, 101418, Note_on_c, 0, 64, 86
1, 101421, Control_c, 0, 67, 29
1, 101427, Note_on_c, 0, 52, 77
1, 101429, Note_on_c, 0, 76, 95
1, 101430, Note_on_c, 0, 88, 91
1, 101436, Control_c, 0, 64, 101
1, 101436, Control_c, 0, 67, 26
1, 101450, Note_off_c, 0, 87, 67
1, 101451, Note_off_c, 0, 64, 59
1, 101451, Control_c, 0, 64, 67
1, 101451, Note_off_c, 0, 52, 66
1, 101460, Note_off_c, 0, 76, 65
1, 101463, Note_off_c, 0, 88, 65
1, 101466, Control_c, 0, 64, 0
1, 101481, Control_c, 0, 67, 28
1, 101496, Control_c, 0, 67, 30
1, 101511, Control_c, 0, 67, 33
1, 101525, Control_c, 0, 67, 34
1, 101555, Control_c, 0, 67, 33
1, 101570, Control_c, 0, 67, 33
1, 101587, Note_on_c, 0, 83, 87
1, 101597, Note_on_c, 0, 59, 65
1, 101612, Note_off_c, 0, 83, 67
1, 101623, Note_off_c, 0, 59, 68
1, 101629, Control_c, 0, 67, 32
1, 101643, Control_c, 0, 67, 30
1, 101736, Note_on_c, 0, 77, 88
1, 101737, Note_on_c, 0, 89, 97
1, 101743, Note_on_c, 0, 65, 79
1, 101758, Note_off_c, 0, 77, 68
1, 101761, Note_on_c, 0, 52, 50
1, 101764, Note_off_c, 0, 89, 64
1, 101766, Note_off_c, 0, 65, 71
1, 101773, Note_on_c, 0, 53, 30
1, 101788, Note_off_c, 0, 52, 57
1, 101808, Note_off_c, 0, 53, 49
1, 101901, Note_on_c, 0, 59, 92
1, 101901, Note_on_c, 0, 83, 98
1, 101902, Control_c, 0, 64, 51
1, 101917, Control_c, 0, 64, 127
1, 101920, Note_on_c, 0, 85, 86
1, 101922, Note_off_c, 0, 83, 64
1, 101946, Note_on_c, 0, 57, 30
1, 101946, Control_c, 0, 67, 27
1, 101970, Note_on_c, 0, 83, 80
1, 101975, Note_off_c, 0, 85, 64
1, 101985, Note_on_c, 0, 61, 84
1, 101993, Note_off_c, 0, 59, 61
1, 102002, Note_off_c, 0, 57, 36
1, 102014, Note_off_c, 0, 83, 63
1, 102024, Note_on_c, 0, 87, 59
1, 102032, Note_on_c, 0, 85, 72
1, 102036, Control_c, 0, 67, 25
1, 102071, Note_on_c, 0, 83, 68
1, 102080, Note_off_c, 0, 61, 56
1, 102098, Note_off_c, 0, 83, 68
1, 102099, Note_off_c, 0, 87, 32
1, 102128, Note_off_c, 0, 85, 64
1, 102174, Note_on_c, 0, 58, 69
1, 102183, Note_on_c, 0, 82, 80
1, 102183, Control_c, 0, 67, 23
1, 102198, Note_on_c, 0, 63, 24
1, 102199, Control_c, 0, 67, 20
1, 102212, Note_off_c, 0, 82, 57
1, 102214, Control_c, 0, 67, 0
1, 102237, Note_on_c, 0, 85, 86
1, 102241, Note_on_c, 0, 62, 45
1, 102243, Note_on_c, 0, 83, 64
1, 102268, Note_on_c, 0, 65, 79
1, 102268, Note_on_c, 0, 89, 84
1, 102268, Note_off_c, 0, 58, 62
1, 102270, Note_off_c, 0, 62, 57
1, 102270, Note_off_c, 0, 83, 67
1, 102286, Note_off_c, 0, 85, 66
1, 102288, Note_off_c, 0, 63, 35
1, 102289, Note_on_c, 0, 87, 43
1, 102292, Note_off_c, 0, 65, 70
1, 102306, Note_off_c, 0, 89, 65
1, 102318, Control_c, 0, 67, 19
1, 102319, Note_off_c, 0, 87, 56
1, 102333, Control_c, 0, 67, 29
1, 102345, Note_on_c, 0, 78, 91
1, 102347, Control_c, 0, 64, 94
1, 102347, Control_c, 0, 67, 32
1, 102352, Note_on_c, 0, 90, 104
1, 102362, Control_c, 0, 64, 46
1, 102362, Control_c, 0, 67, 32
1, 102363, Note_on_c, 0, 66, 86
1, 102369, Note_on_c, 0, 54, 70
1, 102377, Control_c, 0, 64, 0
1, 102380, Note_off_c, 0, 78, 66
1, 102384, Note_off_c, 0, 66, 70
1, 102384, Note_off_c, 0, 90, 65
1, 102396, Note_off_c, 0, 54, 67
1, 102406, Control_c, 0, 67, 32
1, 102421, Control_c, 0, 67, 34
1, 102436, Control_c, 0, 67, 36
1, 102452, Control_c, 0, 67, 37
1, 102466, Control_c, 0, 67, 36
1, 102481, Control_c, 0, 67, 35
1, 102496, Control_c, 0, 67, 34
1, 102528, Note_on_c, 0, 83, 91
1, 102531, Note_on_c, 0, 59, 64
1, 102540, Control_c, 0, 67, 33
1, 102554, Note_off_c, 0, 83, 66
1, 102555, Control_c, 0, 67, 32
1, 102564, Note_off_c, 0, 59, 65
1, 102570, Control_c, 0, 67, 30
1, 102691, Note_on_c, 0, 79, 97
1, 102691, Note_on_c, 0, 91, 101
1, 102692, Note_on_c, 0, 55, 80
1, 102694, Note_on_c, 0, 67, 71
1, 102711, Control_c, 0, 67, 32
1, 102716, Note_off_c, 0, 67, 71
1, 102718, Note_off_c, 0, 79, 67
1, 102720, Note_off_c, 0, 55, 66
1, 102724, Note_off_c, 0, 91, 67
1, 102741, Control_c, 0, 67, 33
1, 102814, Control_c, 0, 67, 32
1, 102829, Control_c, 0, 67, 32
1, 102858, Note_on_c, 0, 59, 86
1, 102858, Note_on_c, 0, 83, 96
1, 102859, Control_c, 0, 64, 55
1, 102865, Note_on_c, 0, 85, 83
1, 102873, Control_c, 0, 64, 127
1, 102875, Note_off_c, 0, 83, 68
1, 102888, Control_c, 0, 67, 28
1, 102909, Note_off_c, 0, 85, 65
1, 102915, Note_on_c, 0, 83, 78
1, 102918, Control_c, 0, 67, 26
1, 102929, Note_on_c, 0, 61, 81
1, 102959, Note_off_c, 0, 59, 61
1, 102966, Note_off_c, 0, 83, 63
1, 102972, Note_on_c, 0, 85, 82
1, 102992, Note_on_c, 0, 86, 54
1, 102994, Note_off_c, 0, 61, 60
1, 103013, Note_on_c, 0, 59, 45
1, 103015, Note_off_c, 0, 86, 57
1, 103036, Note_off_c, 0, 85, 66
1, 103045, Note_off_c, 0, 59, 65
1, 103052, Note_on_c, 0, 83, 64
1, 103070, Note_off_c, 0, 83, 64
1, 103075, Note_on_c, 0, 61, 68
1, 103099, Note_on_c, 0, 58, 75
1, 103100, Note_off_c, 0, 61, 68
1, 103156, Note_on_c, 0, 82, 77
1, 103170, Note_on_c, 0, 63, 88
1, 103172, Note_off_c, 0, 58, 60
1, 103186, Control_c, 0, 67, 24
1, 103215, Note_on_c, 0, 85, 64
1, 103217, Note_off_c, 0, 82, 62
1, 103219, Note_off_c, 0, 63, 62
1, 103223, Note_on_c, 0, 87, 85
1, 103245, Control_c, 0, 67, 22
1, 103249, Note_off_c, 0, 85, 65
1, 103255, Note_on_c, 0, 64, 77
1, 103260, Control_c, 0, 67, 20
1, 103275, Control_c, 0, 67, 0
1, 103279, Note_off_c, 0, 64, 69
1, 103279, Note_off_c, 0, 87, 62
1, 103304, Control_c, 0, 67, 23
1, 103311, Note_on_c, 0, 66, 56
1, 103319, Control_c, 0, 67, 27
1, 103333, Note_off_c, 0, 66, 60
1, 103334, Control_c, 0, 67, 29
1, 103341, Note_on_c, 0, 92, 98
1, 103344, Note_on_c, 0, 80, 104
1, 103357, Note_on_c, 0, 68, 94
1, 103358, Note_on_c, 0, 56, 92
1, 103371, Control_c, 0, 64, 124
1, 103371, Control_c, 0, 67, 33
1, 103381, Note_off_c, 0, 80, 63
1, 103384, Note_off_c, 0, 92, 66
1, 103386, Control_c, 0, 64, 70
1, 103386, Control_c, 0, 67, 37
1, 103391, Note_off_c, 0, 56, 64
1, 103395, Note_off_c, 0, 68, 62
1, 103401, Control_c, 0, 64, 0
1, 103401, Control_c, 0, 67, 43
1, 103415, Control_c, 0, 67, 51
1, 103430, Control_c, 0, 67, 56
1, 103445, Control_c, 0, 67, 57
1, 103460, Control_c, 0, 67, 56
1, 103475, Control_c, 0, 67, 54
1, 103490, Control_c, 0, 67, 54
1, 103519, Control_c, 0, 67, 54
1, 103534, Control_c, 0, 67, 55
1, 103552, Note_on_c, 0, 59, 70
1, 103554, Note_on_c, 0, 83, 73
1, 103563, Control_c, 0, 67, 53
1, 103569, Note_off_c, 0, 83, 69
1, 103577, Note_off_c, 0, 59, 67
1, 103578, Control_c, 0, 67, 52
1, 103593, Control_c, 0, 67, 51
1, 103622, Control_c, 0, 67, 52
1, 103711, Control_c, 0, 67, 53
1, 103720, Note_on_c, 0, 81, 101
1, 103721, Note_on_c, 0, 93, 98
1, 103725, Note_on_c, 0, 69, 84
1, 103726, Control_c, 0, 67, 53
1, 103729, Note_on_c, 0, 57, 78
1, 103741, Control_c, 0, 67, 51
1, 103747, Note_off_c, 0, 81, 65
1, 103749, Note_off_c, 0, 69, 65
1, 103754, Note_off_c, 0, 57, 68
1, 103754, Note_off_c, 0, 93, 66
1, 103785, Control_c, 0, 67, 53
1, 103801, Control_c, 0, 67, 54
1, 103831, Control_c, 0, 67, 52
1, 103845, Control_c, 0, 67, 50
1, 103860, Control_c, 0, 67, 49
1, 103890, Control_c, 0, 67, 51
1, 103919, Control_c, 0, 67, 50
1, 103930, Note_on_c, 0, 83, 90
1, 103931, Note_on_c, 0, 59, 76
1, 103934, Control_c, 0, 67, 49
1, 103949, Note_off_c, 0, 83, 66
1, 103959, Note_off_c, 0, 59, 68
1, 103962, Control_c, 0, 67, 52
1, 103977, Control_c, 0, 67, 54
1, 103992, Control_c, 0, 67, 55
1, 104022, Control_c, 0, 67, 54
1, 104051, Control_c, 0, 67, 55
1, 104066, Control_c, 0, 67, 56
1, 104081, Control_c, 0, 67, 56
1, 104148, Control_c, 0, 67, 58
1, 104161, Note_on_c, 0, 94, 103
1, 104163, Note_on_c, 0, 82, 95
1, 104163, Control_c, 0, 67, 59
1, 104164, Note_on_c, 0, 70, 85
1, 104169, Note_on_c, 0, 58, 75
1, 104178, Control_c, 0, 67, 59
1, 104185, Note_off_c, 0, 82, 66
1, 104186, Note_off_c, 0, 70, 67
1, 104194, Note_off_c, 0, 58, 68
1, 104201, Note_off_c, 0, 94, 64
1, 104208, Control_c, 0, 67, 58
1, 104237, Control_c, 0, 67, 59
1, 104252, Control_c, 0, 67, 59
1, 104282, Control_c, 0, 67, 57
1, 104297, Control_c, 0, 67, 56
1, 104341, Control_c, 0, 67, 57
1, 104370, Control_c, 0, 67, 56
1, 104385, Control_c, 0, 67, 55
1, 104415, Control_c, 0, 67, 56
1, 104430, Control_c, 0, 67, 57
1, 104444, Control_c, 0, 67, 56
1, 104459, Control_c, 0, 67, 55
1, 104474, Control_c, 0, 67, 54
1, 104495, Note_on_c, 0, 95, 91
1, 104495, Note_on_c, 0, 83, 96
1, 104498, Note_on_c, 0, 71, 81
1, 104504, Note_on_c, 0, 59, 71
1, 104504, Control_c, 0, 67, 55
1, 104516, Note_off_c, 0, 71, 72
1, 104519, Control_c, 0, 67, 56
1, 104524, Note_off_c, 0, 83, 65
1, 104524, Note_off_c, 0, 95, 64
1, 104527, Note_off_c, 0, 59, 70
1, 104578, Control_c, 0, 67, 58
1, 104593, Control_c, 0, 67, 60
1, 104608, Control_c, 0, 67, 61
1, 104623, Control_c, 0, 67, 61
1, 104653, Control_c, 0, 67, 62
1, 104668, Control_c, 0, 67, 65
1, 104683, Control_c, 0, 67, 77
1, 104698, Control_c, 0, 67, 93
1, 104713, Control_c, 0, 67, 106
1, 104728, Control_c, 0, 67, 114
1, 104742, Control_c, 0, 67, 124
1, 104757, Control_c, 0, 67, 127
1, 104957, Control_c, 0, 64, 53
1, 104972, Control_c, 0, 64, 64
1, 104974, Note_on_c, 0, 88, 66
1, 104984, Note_on_c, 0, 36, 47
1, 104984, Note_on_c, 0, 84, 59
1, 104987, Control_c, 0, 64, 70
1, 104992, Note_on_c, 0, 48, 40
1, 104999, Note_off_c, 0, 88, 68
1, 105002, Control_c, 0, 64, 81
1, 105009, Note_off_c, 0, 84, 64
1, 105016, Note_off_c, 0, 36, 60
1, 105016, Control_c, 0, 64, 115
1, 105020, Note_off_c, 0, 48, 57
1, 105031, Control_c, 0, 64, 127
1, 105174, Note_on_c, 0, 82, 72
1, 105180, Control_c, 0, 64, 94
1, 105183, Note_on_c, 0, 86, 44
1, 105185, Note_on_c, 0, 58, 68
1, 105194, Control_c, 0, 64, 60
1, 105202, Note_off_c, 0, 82, 62
1, 105207, Note_on_c, 0, 55, 17
1, 105209, Control_c, 0, 64, 0
1, 105211, Note_off_c, 0, 86, 56
1, 105212, Note_off_c, 0, 58, 67
1, 105242, Note_on_c, 0, 84, 85
1, 105249, Note_off_c, 0, 55, 29
1, 105253, Note_on_c, 0, 80, 70
1, 105276, Note_off_c, 0, 80, 68
1, 105283, Note_off_c, 0, 84, 57
1, 105316, Note_on_c, 0, 83, 77
1, 105326, Note_on_c, 0, 79, 71
1, 105327, Note_on_c, 0, 64, 54
1, 105330, Note_on_c, 0, 58, 52
1, 105335, Note_on_c, 0, 55, 53
1, 105338, Note_off_c, 0, 83, 67
1, 105349, Note_off_c, 0, 64, 60
1, 105352, Note_off_c, 0, 79, 69
1, 105363, Note_off_c, 0, 55, 63
1, 105363, Note_off_c, 0, 58, 65
1, 105397, Note_on_c, 0, 82, 81
1, 105409, Note_on_c, 0, 78, 62
1, 105436, Note_off_c, 0, 78, 66
1, 105462, Note_off_c, 0, 82, 55
1, 105473, Note_on_c, 0, 77, 57
1, 105473, Note_on_c, 0, 81, 74
1, 105484, Note_on_c, 0, 41, 56
1, 105485, Note_on_c, 0, 53, 70
1, 105487, Note_off_c, 0, 81, 69
1, 105490, Note_off_c, 0, 77, 64
1, 105508, Note_off_c, 0, 41, 55
1, 105511, Note_off_c, 0, 53, 68
1, 105673, Note_on_c, 0, 91, 51
1, 105689, Note_on_c, 0, 96, 80
1, 105691, Control_c, 0, 64, 55
1, 105692, Note_on_c, 0, 84, 61
1, 105694, Note_off_c, 0, 91, 58
1, 105698, Note_on_c, 0, 60, 47
1, 105702, Note_on_c, 0, 53, 43
1, 105706, Control_c, 0, 64, 63
1, 105708, Note_off_c, 0, 96, 71
1, 105711, Note_off_c, 0, 84, 62
1, 105719, Note_on_c, 0, 57, 28
1, 105721, Control_c, 0, 64, 64
1, 105723, Note_off_c, 0, 60, 61
1, 105730, Note_off_c, 0, 53, 58
1, 105736, Control_c, 0, 64, 69
1, 105750, Control_c, 0, 64, 85
1, 105751, Note_off_c, 0, 57, 48
1, 105765, Control_c, 0, 64, 127
1, 105847, Note_on_c, 0, 60, 53
1, 105863, Note_on_c, 0, 57, 47
1, 105872, Note_on_c, 0, 65, 45
1, 105878, Note_off_c, 0, 60, 68
1, 105896, Note_off_c, 0, 57, 64
1, 105899, Note_off_c, 0, 65, 56
1, 105914, Control_c, 0, 64, 88
1, 105929, Control_c, 0, 64, 63
1, 105943, Control_c, 0, 64, 0
1, 106027, Note_on_c, 0, 41, 64
1, 106030, Note_on_c, 0, 53, 76
1, 106035, Note_on_c, 0, 80, 74
1, 106036, Note_on_c, 0, 84, 78
1, 106047, Control_c, 0, 64, 60
1, 106053, Note_off_c, 0, 41, 65
1, 106054, Note_off_c, 0, 53, 68
1, 106062, Control_c, 0, 64, 68
1, 106077, Control_c, 0, 64, 79
1, 106091, Control_c, 0, 64, 95
1, 106096, Note_off_c, 0, 84, 61
1, 106106, Control_c, 0, 64, 127
1, 106207, Note_on_c, 0, 83, 81
1, 106210, Note_on_c, 0, 79, 75
1, 106214, Note_off_c, 0, 80, 63
1, 106217, Note_on_c, 0, 60, 65
1, 106220, Note_on_c, 0, 53, 60
1, 106231, Note_off_c, 0, 79, 71
1, 106240, Control_c, 0, 64, 124
1, 106243, Note_off_c, 0, 53, 64
1, 106251, Note_off_c, 0, 60, 64
1, 106255, Control_c, 0, 64, 62
1, 106270, Control_c, 0, 64, 0
1, 106277, Note_off_c, 0, 83, 63
1, 106278, Note_on_c, 0, 82, 87
1, 106285, Note_on_c, 0, 78, 73
1, 106307, Note_off_c, 0, 78, 70
1, 106324, Note_off_c, 0, 82, 63
1, 106362, Note_on_c, 0, 77, 75
1, 106367, Note_on_c, 0, 60, 53
1, 106368, Note_on_c, 0, 65, 51
1, 106373, Note_on_c, 0, 81, 77
1, 106382, Note_off_c, 0, 77, 69
1, 106392, Note_off_c, 0, 60, 61
1, 106394, Note_off_c, 0, 65, 55
1, 106428, Note_off_c, 0, 81, 54
1, 106435, Note_on_c, 0, 80, 85
1, 106444, Note_on_c, 0, 74, 63
1, 106450, Note_off_c, 0, 80, 73
1, 106463, Note_off_c, 0, 74, 64
1, 106507, Note_on_c, 0, 79, 81
1, 106521, Note_on_c, 0, 74, 67
1, 106528, Note_on_c, 0, 48, 62
1, 106536, Note_off_c, 0, 79, 65
1, 106538, Note_off_c, 0, 74, 66
1, 106549, Note_off_c, 0, 48, 62
1, 106694, Note_on_c, 0, 88, 70
1, 106707, Control_c, 0, 64, 49
1, 106713, Note_on_c, 0, 91, 79
1, 106716, Note_off_c, 0, 88, 69
1, 106722, Control_c, 0, 64, 63
1, 106729, Note_on_c, 0, 64, 52
1, 106729, Note_on_c, 0, 79, 60
1, 106732, Note_off_c, 0, 91, 71
1, 106736, Note_on_c, 0, 55, 50
1, 106736, Control_c, 0, 64, 72
1, 106744, Note_on_c, 0, 60, 43
1, 106751, Note_off_c, 0, 79, 41
1, 106751, Control_c, 0, 64, 127
1, 106757, Note_off_c, 0, 64, 56
1, 106783, Note_off_c, 0, 55, 46
1, 106805, Note_off_c, 0, 60, 42
1, 106889, Note_on_c, 0, 64, 62
1, 106897, Note_on_c, 0, 67, 47
1, 106901, Note_on_c, 0, 60, 61
1, 106915, Note_off_c, 0, 64, 68
1, 106921, Note_off_c, 0, 67, 59
1, 106922, Note_off_c, 0, 60, 67
1, 106958, Control_c, 0, 64, 90
1, 106973, Control_c, 0, 64, 61
1, 106989, Control_c, 0, 64, 0
1, 107060, Note_on_c, 0, 48, 80
1, 107060, Note_on_c, 0, 81, 82
1, 107063, Control_c, 0, 64, 65
1, 107064, Note_on_c, 0, 77, 75
1, 107066, Note_on_c, 0, 36, 65
1, 107078, Control_c, 0, 64, 92
1, 107082, Note_off_c, 0, 48, 67
1, 107092, Note_off_c, 0, 36, 60
1, 107093, Control_c, 0, 64, 127
1, 107193, Note_off_c, 0, 77, 53
1, 107211, Note_off_c, 0, 81, 63
1, 107240, Note_on_c, 0, 80, 71
1, 107240, Note_on_c, 0, 76, 77
1, 107245, Note_on_c, 0, 50, 68
1, 107252, Note_on_c, 0, 58, 58
1, 107255, Note_on_c, 0, 55, 54
1, 107275, Note_off_c, 0, 50, 63
1, 107280, Note_off_c, 0, 76, 63
1, 107287, Note_off_c, 0, 58, 65
1, 107288, Note_off_c, 0, 55, 63
1, 107291, Note_off_c, 0, 80, 63
1, 107309, Note_on_c, 0, 79, 83
1, 107315, Note_on_c, 0, 75, 77
1, 107339, Note_off_c, 0, 75, 67
1, 107367, Control_c, 0, 64, 73
1, 107382, Control_c, 0, 64, 43
1, 107386, Note_off_c, 0, 79, 65
1, 107388, Note_on_c, 0, 78, 84
1, 107390, Note_on_c, 0, 74, 76
1, 107392, Note_on_c, 0, 58, 66
1, 107396, Control_c, 0, 64, 0
1, 107407, Note_on_c, 0, 64, 39
1, 107420, Note_off_c, 0, 74, 62
1, 107422, Note_off_c, 0, 58, 68
1, 107428, Note_on_c, 0, 55, 19
1, 107435, Note_off_c, 0, 64, 34
1, 107447, Note_on_c, 0, 73, 92
1, 107450, Note_off_c, 0, 55, 47
1, 107458, Note_off_c, 0, 78, 62
1, 107468, Note_on_c, 0, 77, 68
1, 107479, Note_off_c, 0, 73, 68
1, 107491, Note_off_c, 0, 77, 69
1, 107547, Note_on_c, 0, 72, 92
1, 107553, Note_on_c, 0, 47, 72
1, 107559, Note_on_c, 0, 76, 75
1, 107567, Note_on_c, 0, 35, 47
1, 107573, Note_off_c, 0, 72, 63
1, 107577, Note_off_c, 0, 47, 65
1, 107577, Note_off_c, 0, 76, 67
1, 107601, Note_off_c, 0, 35, 33
1, 107713, Note_on_c, 0, 80, 74
1, 107742, Note_on_c, 0, 71, 72
1, 107748, Note_on_c, 0, 52, 62
1, 107752, Note_on_c, 0, 83, 81
1, 107759, Note_on_c, 0, 47, 38
1, 107765, Note_off_c, 0, 80, 64
1, 107767, Note_off_c, 0, 71, 69
1, 107793, Note_off_c, 0, 47, 58
1, 107813, Control_c, 0, 64, 59
1, 107821, Note_off_c, 0, 52, 51
1, 107827, Control_c, 0, 64, 70
1, 107842, Control_c, 0, 64, 73
1, 107894, Control_c, 0, 64, 74
1, 107909, Control_c, 0, 64, 76
1, 107914, Note_off_c, 0, 83, 39
1, 107924, Note_on_c, 0, 52, 60
1, 107924, Control_c, 0, 64, 78
1, 107925, Note_on_c, 0, 70, 86
1, 107931, Note_on_c, 0, 59, 44
1, 107938, Control_c, 0, 64, 78
1, 107953, Control_c, 0, 64, 79
1, 107956, Note_off_c, 0, 59, 54
1, 107956, Note_off_c, 0, 52, 66
1, 107968, Control_c, 0, 64, 82
1, 107973, Note_off_c, 0, 70, 64
1, 107983, Control_c, 0, 64, 89
1, 107998, Control_c, 0, 64, 104
1, 108012, Control_c, 0, 64, 127
1, 108072, Control_c, 0, 64, 101
1, 108085, Note_on_c, 0, 35, 69
1, 108087, Control_c, 0, 64, 63
1, 108087, Note_on_c, 0, 47, 71
1, 108087, Note_on_c, 0, 69, 78
1, 108090, Note_on_c, 0, 71, 77
1, 108102, Control_c, 0, 64, 0
1, 108114, Note_off_c, 0, 47, 68
1, 108118, Note_off_c, 0, 35, 62
1, 108121, Note_off_c, 0, 69, 64
1, 108121, Note_off_c, 0, 71, 67
1, 108250, Control_c, 0, 64, 37
1, 108265, Control_c, 0, 64, 60
1, 108269, Note_on_c, 0, 52, 58
1, 108269, Note_on_c, 0, 76, 49
1, 108275, Note_on_c, 0, 68, 65
1, 108278, Note_on_c, 0, 47, 48
1, 108280, Control_c, 0, 64, 70
1, 108288, Note_on_c, 0, 80, 69
1, 108294, Control_c, 0, 64, 78
1, 108298, Note_off_c, 0, 76, 61
1, 108309, Control_c, 0, 64, 81
1, 108311, Note_off_c, 0, 47, 61
1, 108324, Control_c, 0, 64, 83
1, 108338, Control_c, 0, 64, 88
1, 108343, Note_off_c, 0, 68, 62
1, 108353, Control_c, 0, 64, 98
1, 108368, Note_off_c, 0, 52, 37
1, 108368, Control_c, 0, 64, 114
1, 108383, Control_c, 0, 64, 127
1, 108393, Note_off_c, 0, 80, 61
1, 108447, Note_on_c, 0, 52, 52
1, 108447, Note_on_c, 0, 67, 75
1, 108452, Note_on_c, 0, 59, 38
1, 108480, Note_off_c, 0, 59, 52
1, 108483, Note_off_c, 0, 67, 61
1, 108484, Note_off_c, 0, 52, 62
1, 108610, Note_on_c, 0, 35, 67
1, 108629, Poly_aftertouch_c, 0, 73, 127
1, 108633, Note_on_c, 0, 47, 60
1, 108652, Note_off_c, 0, 35, 62
1, 108665, Poly_aftertouch_c, 0, 73, 0
1, 108667, Note_on_c, 0, 66, 74
1, 108672, Control_c, 0, 64, 85
1, 108673, Note_off_c, 0, 47, 63
1, 108687, Control_c, 0, 64, 70
1, 108702, Control_c, 0, 64, 59
1, 108716, Control_c, 0, 64, 0
1, 108726, Note_off_c, 0, 66, 61
1, 108755, Note_on_c, 0, 69, 66
1, 108799, Note_off_c, 0, 69, 61
1, 108838, Note_on_c, 0, 54, 56
1, 108847, Note_on_c, 0, 47, 35
1, 108857, Note_on_c, 0, 73, 62
1, 108859, Note_on_c, 0, 64, 65
1, 108876, Note_off_c, 0, 47, 53
1, 108878, Note_off_c, 0, 54, 62
1, 108885, Note_off_c, 0, 73, 67
1, 108887, Note_off_c, 0, 64, 67
1, 108895, Control_c, 0, 67, 125
1, 108953, Control_c, 0, 67, 121
1, 108968, Control_c, 0, 67, 116
1, 108983, Control_c, 0, 67, 114
1, 109042, Control_c, 0, 67, 110
1, 109057, Control_c, 0, 67, 105
1, 109072, Control_c, 0, 67, 100
1, 109086, Control_c, 0, 67, 88
1, 109101, Control_c, 0, 67, 65
1, 109106, Note_on_c, 0, 54, 67
1, 109116, Control_c, 0, 67, 29
1, 109131, Note_on_c, 0, 57, 26
1, 109131, Control_c, 0, 67, 0
1, 109136, Note_off_c, 0, 54, 67
1, 109137, Note_on_c, 0, 63, 81
1, 109140, Note_on_c, 0, 72, 77
1, 109170, Note_off_c, 0, 57, 53
1, 109177, Note_off_c, 0, 63, 64
1, 109193, Note_off_c, 0, 72, 64
1, 109243, Note_on_c, 0, 64, 91
1, 109243, Note_on_c, 0, 71, 102
1, 109276, Note_off_c, 0, 64, 67
1, 109279, Control_c, 0, 64, 63
1, 109291, Note_off_c, 0, 71, 67
1, 109294, Control_c, 0, 64, 127
1, 109377, Note_on_c, 0, 28, 95
1, 109377, Note_on_c, 0, 40, 96
1, 109395, Note_on_c, 0, 88, 100
1, 109398, Note_on_c, 0, 92, 94
1, 109398, Note_on_c, 0, 80, 100
1, 109405, Note_off_c, 0, 28, 68
1, 109406, Control_c, 0, 67, 52
1, 109410, Note_off_c, 0, 40, 65
1, 109421, Control_c, 0, 67, 51
1, 109436, Control_c, 0, 67, 34
1, 109451, Control_c, 0, 67, 21
1, 109483, Note_off_c, 0, 80, 58
1, 109493, Note_off_c, 0, 92, 62
1, 109495, Control_c, 0, 67, 0
1, 109522, Note_off_c, 0, 88, 61
1, 109616, Note_on_c, 0, 62, 85
1, 109617, Note_on_c, 0, 90, 92
1, 109618, Note_on_c, 0, 78, 85
1, 109619, Note_on_c, 0, 52, 71
1, 109622, Note_on_c, 0, 86, 79
1, 109632, Note_off_c, 0, 90, 74
1, 109636, Note_off_c, 0, 78, 73
1, 109637, Note_off_c, 0, 62, 69
1, 109642, Note_off_c, 0, 86, 71
1, 109644, Note_off_c, 0, 52, 66
1, 109661, Note_on_c, 0, 57, 17
1, 109697, Note_on_c, 0, 88, 79
1, 109699, Note_on_c, 0, 76, 98
1, 109702, Control_c, 0, 64, 67
1, 109705, Note_off_c, 0, 57, 54
1, 109707, Note_on_c, 0, 85, 96
1, 109717, Control_c, 0, 64, 0
1, 109726, Note_off_c, 0, 76, 66
1, 109735, Note_off_c, 0, 88, 62
1, 109755, Note_off_c, 0, 85, 65
1, 109783, Note_on_c, 0, 64, 73
1, 109783, Note_on_c, 0, 75, 96
1, 109788, Note_on_c, 0, 56, 75
1, 109790, Note_on_c, 0, 62, 48
1, 109796, Note_on_c, 0, 87, 1
1, 109801, Note_on_c, 0, 85, 49
1, 109801, Note_off_c, 0, 85, 127
1, 109802, Note_on_c, 0, 83, 69
1, 109806, Note_off_c, 0, 64, 70
1, 109816, Note_off_c, 0, 62, 61
1, 109819, Note_off_c, 0, 83, 68
1, 109821, Note_off_c, 0, 56, 63
1, 109823, Note_off_c, 0, 75, 61
1, 109828, Note_off_c, 0, 87, 61
1, 109878, Note_on_c, 0, 86, 94
1, 109884, Note_on_c, 0, 74, 102
1, 109889, Note_on_c, 0, 83, 85
1, 109900, Note_on_c, 0, 85, 62
1, 109907, Note_off_c, 0, 74, 70
1, 109916, Note_off_c, 0, 86, 65
1, 109917, Note_off_c, 0, 83, 56
1, 109920, Note_off_c, 0, 85, 39
1, 109940, Control_c, 0, 64, 47
1, 109955, Control_c, 0, 64, 127
1, 109959, Note_on_c, 0, 31, 91
1, 109960, Note_on_c, 0, 45, 75
1, 109962, Note_on_c, 0, 73, 101
1, 109963, Note_on_c, 0, 43, 75
1, 109963, Note_on_c, 0, 81, 96
1, 109966, Note_on_c, 0, 85, 98
1, 109984, Control_c, 0, 67, 20
1, 109985, Note_off_c, 0, 31, 65
1, 109986, Note_off_c, 0, 45, 65
1, 109988, Note_off_c, 0, 73, 59
1, 109989, Note_off_c, 0, 43, 65
1, 109992, Note_off_c, 0, 81, 61
1, 109999, Note_off_c, 0, 85, 48
1, 109999, Control_c, 0, 67, 28
1, 110000, Note_on_c, 0, 33, 26
1, 110014, Control_c, 0, 67, 34
1, 110028, Control_c, 0, 67, 30
1, 110043, Control_c, 0, 67, 26
1, 110045, Note_off_c, 0, 33, 50
1, 110110, Control_c, 0, 67, 30
1, 110156, Note_on_c, 0, 97, 92
1, 110167, Note_on_c, 0, 88, 90
1, 110168, Note_on_c, 0, 52, 76
1, 110170, Control_c, 0, 67, 28
1, 110176, Note_on_c, 0, 57, 67
1, 110176, Note_on_c, 0, 61, 72
1, 110179, Note_on_c, 0, 100, 77
1, 110185, Control_c, 0, 67, 22
1, 110186, Note_on_c, 0, 101, 82
1, 110186, Note_off_c, 0, 88, 72
1, 110188, Note_on_c, 0, 99, 60
1, 110191, Note_off_c, 0, 97, 68
1, 110200, Control_c, 0, 67, 0
1, 110201, Note_off_c, 0, 100, 74
1, 110201, Note_off_c, 0, 101, 68
1, 110209, Note_off_c, 0, 99, 62
1, 110223, Note_off_c, 0, 52, 60
1, 110288, Note_off_c, 0, 61, 38
1, 110303, Note_off_c, 0, 57, 38
1, 110339, Note_on_c, 0, 61, 85
1, 110343, Note_on_c, 0, 64, 82
1, 110348, Note_on_c, 0, 57, 72
1, 110363, Control_c, 0, 64, 66
1, 110364, Note_off_c, 0, 64, 71
1, 110373, Note_off_c, 0, 61, 62
1, 110378, Control_c, 0, 64, 0
1, 110380, Note_off_c, 0, 57, 65
1, 110512, Note_on_c, 0, 50, 103
1, 110514, Note_on_c, 0, 38, 96
1, 110524, Note_on_c, 0, 84, 99
1, 110525, Note_on_c, 0, 88, 97
1, 110526, Note_on_c, 0, 76, 104
1, 110526, Control_c, 0, 64, 73
1, 110526, Control_c, 0, 67, 56
1, 110538, Note_off_c, 0, 38, 70
1, 110540, Control_c, 0, 64, 127
1, 110540, Control_c, 0, 67, 54
1, 110543, Note_off_c, 0, 50, 67
1, 110555, Control_c, 0, 67, 48
1, 110567, Note_off_c, 0, 76, 63
1, 110570, Control_c, 0, 67, 48
1, 110585, Control_c, 0, 67, 53
1, 110600, Note_off_c, 0, 88, 64
1, 110600, Control_c, 0, 67, 54
1, 110615, Control_c, 0, 67, 49
1, 110630, Control_c, 0, 67, 42
1, 110633, Note_off_c, 0, 84, 51
1, 110644, Control_c, 0, 67, 24
1, 110659, Control_c, 0, 67, 0
1, 110706, Note_on_c, 0, 87, 88
1, 110713, Note_on_c, 0, 75, 74
1, 110716, Note_on_c, 0, 50, 69
1, 110719, Note_on_c, 0, 60, 63
1, 110722, Note_on_c, 0, 83, 50
1, 110728, Note_on_c, 0, 59, 54
1, 110734, Note_off_c, 0, 75, 68
1, 110739, Note_off_c, 0, 60, 66
1, 110743, Note_off_c, 0, 50, 65
1, 110746, Note_off_c, 0, 83, 58
1, 110749, Note_off_c, 0, 59, 62
1, 110750, Note_off_c, 0, 87, 64
1, 110784, Note_on_c, 0, 86, 85
1, 110786, Poly_aftertouch_c, 0, 53, 127
1, 110791, Note_on_c, 0, 74, 94
1, 110799, Note_on_c, 0, 82, 95
1, 110822, Poly_aftertouch_c, 0, 53, 0
1, 110825, Note_off_c, 0, 74, 64
1, 110826, Note_off_c, 0, 86, 64
1, 110839, Note_off_c, 0, 82, 50
1, 110859, Control_c, 0, 64, 76
1, 110874, Note_on_c, 0, 54, 78
1, 110874, Note_on_c, 0, 60, 57
1, 110874, Control_c, 0, 64, 46
1, 110876, Note_on_c, 0, 73, 101
1, 110877, Note_on_c, 0, 80, 92
1, 110877, Note_on_c, 0, 62, 68
1, 110877, Note_on_c, 0, 84, 90
1, 110889, Control_c, 0, 64, 0
1, 110899, Note_off_c, 0, 84, 67
1, 110901, Note_off_c, 0, 73, 66
1, 110905, Note_off_c, 0, 60, 66
1, 110907, Note_off_c, 0, 62, 64
1, 110910, Note_off_c, 0, 80, 60
1, 110920, Note_off_c, 0, 54, 62
1, 110965, Note_on_c, 0, 84, 83
1, 110973, Note_on_c, 0, 82, 66
1, 110992, Poly_aftertouch_c, 0, 72, 0
1, 110993, Note_off_c, 0, 82, 67
1, 110998, Note_off_c, 0, 84, 63
1, 111023, Control_c, 0, 67, 68
1, 111036, Note_on_c, 0, 83, 100
1, 111038, Control_c, 0, 64, 47
1, 111038, Control_c, 0, 67, 109
1, 111040, Note_on_c, 0, 43, 101
1, 111040, Note_on_c, 0, 72, 85
1, 111041, Note_on_c, 0, 84, 76
1, 111045, Note_on_c, 0, 79, 79
1, 111046, Note_on_c, 0, 31, 91
1, 111053, Control_c, 0, 64, 127
1, 111053, Control_c, 0, 67, 101
1, 111058, Note_off_c, 0, 72, 73
1, 111065, Note_off_c, 0, 84, 66
1, 111065, Note_off_c, 0, 43, 70
1, 111067, Note_off_c, 0, 79, 70
1, 111068, Note_on_c, 0, 82, 41
1, 111068, Control_c, 0, 67, 98
1, 111071, Note_off_c, 0, 31, 67
1, 111077, Note_off_c, 0, 83, 67
1, 111092, Note_off_c, 0, 82, 60
1, 111127, Control_c, 0, 67, 95
1, 111142, Control_c, 0, 67, 87
1, 111156, Control_c, 0, 67, 61
1, 111171, Control_c, 0, 67, 0
1, 111222, Note_on_c, 0, 86, 98
1, 111224, Note_on_c, 0, 95, 72
1, 111224, Note_on_c, 0, 98, 101
1, 111240, Note_off_c, 0, 86, 68
1, 111241, Note_on_c, 0, 50, 69
1, 111241, Note_on_c, 0, 48, 61
1, 111244, Note_off_c, 0, 98, 68
1, 111246, Note_off_c, 0, 95, 68
1, 111270, Note_off_c, 0, 48, 63
1, 111270, Note_on_c, 0, 58, 11
1, 111276, Note_off_c, 0, 50, 60
1, 111293, Note_on_c, 0, 55, 2
1, 111297, Note_off_c, 0, 55, 0
1, 111309, Poly_aftertouch_c, 0, 59, 127
1, 111326, Note_off_c, 0, 58, 48
1, 111335, Poly_aftertouch_c, 0, 55, 127
1, 111357, Poly_aftertouch_c, 0, 59, 0
1, 111377, Poly_aftertouch_c, 0, 55, 0
1, 111401, Note_on_c, 0, 55, 38
1, 111403, Note_on_c, 0, 59, 68
1, 111408, Note_on_c, 0, 60, 56
1, 111418, Note_on_c, 0, 62, 57
1, 111431, Note_off_c, 0, 60, 60
1, 111437, Note_off_c, 0, 59, 64
1, 111437, Note_off_c, 0, 62, 63
1, 111437, Control_c, 0, 64, 74
1, 111452, Control_c, 0, 64, 0
1, 111456, Note_off_c, 0, 55, 63
1, 111479, Poly_aftertouch_c, 0, 64, 0
1, 111569, Note_on_c, 0, 50, 89
1, 111571, Control_c, 0, 64, 79
1, 111572, Note_on_c, 0, 74, 100
1, 111572, Note_on_c, 0, 82, 103
1, 111572, Note_on_c, 0, 86, 98
1, 111573, Note_on_c, 0, 38, 93
1, 111580, Note_on_c, 0, 48, 79
1, 111586, Control_c, 0, 64, 127
1, 111586, Control_c, 0, 67, 87
1, 111598, Note_off_c, 0, 48, 50
1, 111607, Note_off_c, 0, 38, 70
1, 111608, Control_c, 0, 67, 110
1, 111611, Note_off_c, 0, 50, 64
1, 111621, Note_off_c, 0, 74, 64
1, 111623, Control_c, 0, 67, 102
1, 111646, Note_off_c, 0, 86, 62
1, 111664, Note_off_c, 0, 82, 61
1, 111682, Control_c, 0, 67, 100
1, 111697, Control_c, 0, 67, 90
1, 111712, Control_c, 0, 67, 70
1, 111726, Control_c, 0, 67, 48
1, 111741, Control_c, 0, 67, 34
1, 111747, Note_on_c, 0, 85, 88
1, 111756, Control_c, 0, 67, 30
1, 111756, Note_on_c, 0, 48, 78
1, 111761, Note_on_c, 0, 73, 78
1, 111764, Note_on_c, 0, 82, 73
1, 111767, Note_on_c, 0, 52, 76
1, 111771, Control_c, 0, 67, 0
1, 111784, Note_off_c, 0, 73, 70
1, 111788, Note_off_c, 0, 82, 67
1, 111795, Note_off_c, 0, 52, 66
1, 111795, Note_off_c, 0, 85, 63
1, 111822, Note_off_c, 0, 48, 60
1, 111840, Note_on_c, 0, 72, 92
1, 111841, Note_on_c, 0, 84, 88
1, 111850, Note_on_c, 0, 80, 84
1, 111852, Note_on_c, 0, 82, 74
1, 111865, Note_off_c, 0, 72, 63
1, 111867, Note_off_c, 0, 82, 67
1, 111870, Note_off_c, 0, 80, 71
1, 111880, Note_off_c, 0, 84, 64
1, 111914, Note_on_c, 0, 60, 82
1, 111923, Note_on_c, 0, 71, 95
1, 111925, Note_on_c, 0, 58, 69
1, 111935, Note_on_c, 0, 83, 78
1, 111938, Note_on_c, 0, 52, 45
1, 111941, Note_off_c, 0, 60, 67
1, 111941, Note_on_c, 0, 84, 71
1, 111947, Note_off_c, 0, 71, 67
1, 111950, Note_on_c, 0, 82, 47
1, 111950, Note_off_c, 0, 82, 127
1, 111951, Note_off_c, 0, 83, 71
1, 111954, Note_off_c, 0, 58, 66
1, 111956, Note_off_c, 0, 84, 68
1, 111957, Note_on_c, 0, 51, 16
1, 111968, Note_off_c, 0, 52, 54
1, 112012, Note_on_c, 0, 70, 93
1, 112012, Note_off_c, 0, 51, 52
1, 112025, Note_on_c, 0, 82, 83
1, 112031, Note_on_c, 0, 58, 55
1, 112037, Note_off_c, 0, 82, 72
1, 112048, Note_off_c, 0, 70, 63
1, 112051, Note_off_c, 0, 58, 63
1, 112098, Note_on_c, 0, 53, 84
1, 112098, Control_c, 0, 67, 31
1, 112100, Note_on_c, 0, 57, 84
1, 112103, Note_on_c, 0, 65, 89
1, 112106, Note_on_c, 0, 81, 97
1, 112109, Note_on_c, 0, 69, 88
1, 112113, Note_on_c, 0, 56, 65
1, 112113, Control_c, 0, 64, 73
1, 112113, Control_c, 0, 67, 104
1, 112120, Note_on_c, 0, 71, 78
1, 112122, Note_on_c, 0, 77, 59
1, 112125, Note_on_c, 0, 80, 62
1, 112128, Control_c, 0, 64, 0
1, 112128, Control_c, 0, 67, 127
1, 112134, Note_off_c, 0, 71, 69
1, 112135, Note_off_c, 0, 56, 38
1, 112138, Note_off_c, 0, 81, 62
1, 112141, Note_off_c, 0, 69, 65
1, 112141, Note_off_c, 0, 77, 65
1, 112142, Note_off_c, 0, 80, 65
1, 112143, Control_c, 0, 67, 119
1, 112158, Control_c, 0, 67, 109
1, 112173, Control_c, 0, 67, 101
1, 112184, Note_on_c, 0, 71, 90
1, 112187, Note_on_c, 0, 83, 103
1, 112201, Control_c, 0, 67, 103
1, 112210, Note_on_c, 0, 78, 51
1, 112210, Note_off_c, 0, 78, 127
1, 112216, Control_c, 0, 67, 101
1, 112218, Note_off_c, 0, 71, 66
1, 112221, Note_off_c, 0, 83, 65
1, 112230, Control_c, 0, 67, 93
1, 112245, Control_c, 0, 67, 86
1, 112260, Control_c, 0, 67, 88
1, 112269, Note_on_c, 0, 72, 101
1, 112269, Note_on_c, 0, 84, 105
1, 112290, Control_c, 0, 67, 80
1, 112295, Note_off_c, 0, 72, 68
1, 112298, Note_off_c, 0, 84, 66
1, 112305, Control_c, 0, 67, 64
1, 112320, Control_c, 0, 67, 36
1, 112335, Control_c, 0, 67, 0
1, 112478, Note_off_c, 0, 65, 63
1, 112490, Note_off_c, 0, 57, 62
1, 112491, Note_on_c, 0, 74, 107
1, 112493, Note_on_c, 0, 86, 98
1, 112517, Note_off_c, 0, 53, 63
1, 112519, Note_off_c, 0, 74, 66
1, 112524, Note_off_c, 0, 86, 65
1, 112713, Note_on_c, 0, 59, 92
1, 112718, Note_on_c, 0, 52, 87
1, 112720, Note_on_c, 0, 47, 79
1, 112721, Note_on_c, 0, 56, 90
1, 112728, Control_c, 0, 64, 82
1, 112728, Control_c, 0, 67, 49
1, 112733, Note_on_c, 0, 80, 104
1, 112734, Note_on_c, 0, 88, 95
1, 112741, Note_on_c, 0, 76, 85
1, 112743, Control_c, 0, 64, 127
1, 112743, Control_c, 0, 67, 66
1, 112746, Note_off_c, 0, 47, 71
1, 112749, Note_off_c, 0, 59, 63
1, 112756, Note_off_c, 0, 76, 72
1, 112758, Control_c, 0, 67, 62
1, 112760, Note_off_c, 0, 52, 64
1, 112763, Note_off_c, 0, 56, 65
1, 112779, Note_off_c, 0, 80, 65
1, 112802, Control_c, 0, 67, 64
1, 112817, Control_c, 0, 67, 63
1, 112821, Note_on_c, 0, 83, 86
1, 112824, Note_off_c, 0, 88, 65
1, 112825, Note_on_c, 0, 84, 84
1, 112832, Control_c, 0, 67, 58
1, 112847, Control_c, 0, 67, 55
1, 112861, Control_c, 0, 67, 54
1, 112862, Note_off_c, 0, 84, 64
1, 112876, Control_c, 0, 67, 56
1, 112883, Note_off_c, 0, 83, 63
1, 112891, Control_c, 0, 67, 59
1, 112905, Note_on_c, 0, 80, 91
1, 112906, Control_c, 0, 67, 60
1, 112921, Control_c, 0, 67, 58
1, 112931, Note_off_c, 0, 80, 64
1, 112936, Control_c, 0, 67, 55
1, 112951, Control_c, 0, 67, 54
1, 112966, Control_c, 0, 67, 55
1, 112981, Control_c, 0, 67, 56
1, 113010, Control_c, 0, 67, 53
1, 113025, Control_c, 0, 67, 45
1, 113040, Control_c, 0, 67, 0
1, 113127, Note_on_c, 0, 64, 67
1, 113134, Note_on_c, 0, 76, 91
1, 113196, Note_off_c, 0, 76, 59
1, 113208, Note_on_c, 0, 78, 89
1, 113214, Note_on_c, 0, 66, 80
1, 113223, Note_off_c, 0, 64, 63
1, 113269, Control_c, 0, 64, 101
1, 113276, Note_off_c, 0, 66, 61
1, 113284, Control_c, 0, 64, 62
1, 113291, Note_on_c, 0, 80, 91
1, 113295, Note_on_c, 0, 68, 79
1, 113297, Note_off_c, 0, 78, 63
1, 113299, Control_c, 0, 64, 0
1, 113299, Control_c, 0, 67, 19
1, 113345, Note_off_c, 0, 68, 65
1, 113358, Control_c, 0, 64, 43
1, 113366, Note_on_c, 0, 64, 62
1, 113373, Control_c, 0, 64, 58
1, 113380, Note_on_c, 0, 76, 85
1, 113382, Note_on_c, 0, 75, 33
1, 113389, Control_c, 0, 64, 65
1, 113389, Control_c, 0, 67, 21
1, 113390, Note_off_c, 0, 80, 62
1, 113404, Control_c, 0, 64, 69
1, 113419, Control_c, 0, 64, 72
1, 113420, Note_off_c, 0, 75, 37
1, 113433, Control_c, 0, 64, 77
1, 113448, Control_c, 0, 64, 82
1, 113449, Note_off_c, 0, 76, 62
1, 113455, Note_on_c, 0, 73, 87
1, 113456, Note_on_c, 0, 61, 79
1, 113463, Control_c, 0, 64, 90
1, 113464, Note_off_c, 0, 64, 63
1, 113476, Note_off_c, 0, 73, 69
1, 113477, Control_c, 0, 64, 106
1, 113477, Control_c, 0, 67, 25
1, 113483, Note_off_c, 0, 61, 66
1, 113492, Control_c, 0, 64, 127
1, 113492, Control_c, 0, 67, 29
1, 113507, Control_c, 0, 67, 32
1, 113522, Control_c, 0, 67, 35
1, 113524, Poly_aftertouch_c, 0, 78, 0
1, 113537, Control_c, 0, 67, 37
1, 113551, Control_c, 0, 67, 40
1, 113566, Control_c, 0, 67, 43
1, 113581, Control_c, 0, 67, 45
1, 113596, Control_c, 0, 67, 46
1, 113640, Control_c, 0, 67, 46
1, 113667, Note_on_c, 0, 56, 69
1, 113671, Note_on_c, 0, 68, 76
1, 113694, Note_off_c, 0, 68, 69
1, 113700, Control_c, 0, 67, 47
1, 113730, Control_c, 0, 64, 104
1, 113730, Note_off_c, 0, 56, 59
1, 113744, Control_c, 0, 64, 75
1, 113754, Note_on_c, 0, 69, 75
1, 113759, Control_c, 0, 64, 57
1, 113763, Note_on_c, 0, 57, 68
1, 113774, Control_c, 0, 64, 0
1, 113774, Control_c, 0, 67, 46
1, 113804, Control_c, 0, 67, 46
1, 113810, Note_off_c, 0, 57, 55
1, 113818, Note_off_c, 0, 69, 61
1, 113857, Note_on_c, 0, 71, 71
1, 113866, Note_on_c, 0, 59, 65
1, 113870, Control_c, 0, 67, 46
1, 113885, Control_c, 0, 67, 47
1, 113944, Control_c, 0, 67, 48
1, 113959, Control_c, 0, 64, 53
1, 113959, Control_c, 0, 67, 49
1, 113974, Control_c, 0, 64, 65
1, 113974, Control_c, 0, 67, 54
1, 113988, Note_off_c, 0, 71, 62
1, 113989, Control_c, 0, 64, 71
1, 113989, Control_c, 0, 67, 58
1, 114003, Control_c, 0, 64, 76
1, 114003, Control_c, 0, 67, 61
1, 114018, Control_c, 0, 64, 79
1, 114018, Control_c, 0, 67, 62
1, 114031, Note_off_c, 0, 59, 64
1, 114033, Control_c, 0, 64, 83
1, 114033, Control_c, 0, 67, 63
1, 114048, Control_c, 0, 64, 90
1, 114063, Control_c, 0, 64, 104
1, 114063, Control_c, 0, 67, 62
1, 114077, Control_c, 0, 64, 127
1, 114077, Control_c, 0, 67, 61
1, 114079, Note_on_c, 0, 59, 57
1, 114092, Control_c, 0, 67, 59
1, 114107, Control_c, 0, 67, 58
1, 114108, Note_on_c, 0, 61, 78
1, 114122, Control_c, 0, 67, 57
1, 114126, Note_off_c, 0, 59, 62
1, 114137, Control_c, 0, 67, 56
1, 114151, Control_c, 0, 67, 55
1, 114156, Note_off_c, 0, 61, 62
1, 114160, Note_on_c, 0, 63, 72
1, 114166, Control_c, 0, 67, 53
1, 114182, Control_c, 0, 67, 50
1, 114197, Control_c, 0, 67, 46
1, 114207, Note_off_c, 0, 63, 60
1, 114212, Control_c, 0, 67, 39
1, 114219, Note_on_c, 0, 64, 80
1, 114227, Control_c, 0, 67, 32
1, 114242, Control_c, 0, 67, 32
1, 114271, Control_c, 0, 67, 33
1, 114272, Note_off_c, 0, 64, 63
1, 114272, Note_on_c, 0, 66, 80
1, 114286, Control_c, 0, 67, 34
1, 114300, Control_c, 0, 67, 36
1, 114302, Note_on_c, 0, 68, 76
1, 114315, Control_c, 0, 67, 39
1, 114320, Note_off_c, 0, 66, 65
1, 114330, Control_c, 0, 67, 42
1, 114345, Control_c, 0, 67, 47
1, 114356, Note_off_c, 0, 68, 67
1, 114360, Control_c, 0, 67, 55
1, 114362, Note_on_c, 0, 69, 80
1, 114374, Control_c, 0, 64, 67
1, 114374, Control_c, 0, 67, 64
1, 114389, Control_c, 0, 64, 0
1, 114389, Control_c, 0, 67, 70
1, 114391, Note_off_c, 0, 69, 63
1, 114404, Control_c, 0, 67, 75
1, 114419, Control_c, 0, 67, 80
1, 114433, Control_c, 0, 64, 52
1, 114433, Control_c, 0, 67, 84
1, 114441, Note_on_c, 0, 69, 62
1, 114445, Note_on_c, 0, 71, 78
1, 114448, Control_c, 0, 64, 69
1, 114448, Control_c, 0, 67, 86
1, 114463, Control_c, 0, 64, 82
1, 114463, Control_c, 0, 67, 87
1, 114478, Control_c, 0, 64, 90
1, 114478, Control_c, 0, 67, 88
1, 114495, Note_off_c, 0, 69, 62
1, 114497, Note_off_c, 0, 71, 64
1, 114504, Note_on_c, 0, 73, 75
1, 114506, Note_on_c, 0, 66, 63
1, 114508, Control_c, 0, 64, 91
1, 114523, Control_c, 0, 64, 95
1, 114523, Control_c, 0, 67, 85
1, 114534, Note_off_c, 0, 66, 61
1, 114537, Control_c, 0, 64, 106
1, 114537, Control_c, 0, 67, 83
1, 114542, Note_on_c, 0, 75, 77
1, 114546, Note_on_c, 0, 63, 69
1, 114552, Control_c, 0, 64, 127
1, 114552, Control_c, 0, 67, 81
1, 114555, Note_off_c, 0, 73, 62
1, 114567, Control_c, 0, 67, 80
1, 114577, Note_off_c, 0, 63, 66
1, 114582, Control_c, 0, 67, 78
1, 114584, Note_on_c, 0, 59, 71
1, 114591, Note_off_c, 0, 75, 61
1, 114604, Control_c, 0, 67, 78
1, 114615, Note_on_c, 0, 76, 88
1, 114616, Note_off_c, 0, 59, 68
1, 114619, Control_c, 0, 67, 77
1, 114633, Control_c, 0, 67, 76
1, 114648, Control_c, 0, 67, 73
1, 114654, Note_on_c, 0, 78, 84
1, 114654, Note_off_c, 0, 76, 62
1, 114663, Control_c, 0, 67, 64
1, 114669, Note_on_c, 0, 57, 84
1, 114676, Note_on_c, 0, 80, 84
1, 114678, Control_c, 0, 67, 46
1, 114693, Control_c, 0, 67, 30
1, 114698, Note_off_c, 0, 78, 63
1, 114707, Control_c, 0, 67, 25
1, 114716, Note_off_c, 0, 57, 63
1, 114720, Note_off_c, 0, 80, 63
1, 114735, Note_on_c, 0, 54, 73
1, 114737, Control_c, 0, 67, 0
1, 114751, Note_on_c, 0, 81, 89
1, 114774, Note_on_c, 0, 51, 70
1, 114805, Note_on_c, 0, 83, 82
1, 114806, Note_off_c, 0, 81, 65
1, 114809, Note_on_c, 0, 47, 74
1, 114813, Note_off_c, 0, 54, 63
1, 114820, Note_off_c, 0, 51, 61
1, 114836, Note_off_c, 0, 47, 68
1, 114842, Note_on_c, 0, 85, 86
1, 114869, Note_off_c, 0, 83, 64
1, 114874, Note_on_c, 0, 87, 83
1, 114906, Note_off_c, 0, 85, 63
1, 114915, Control_c, 0, 67, 41
1, 114922, Note_on_c, 0, 52, 95
1, 114924, Note_on_c, 0, 76, 100
1, 114925, Note_on_c, 0, 40, 93
1, 114925, Note_on_c, 0, 88, 94
1, 114930, Control_c, 0, 64, 97
1, 114930, Control_c, 0, 67, 43
1, 114943, Note_off_c, 0, 52, 70
1, 114943, Note_off_c, 0, 76, 69
1, 114943, Note_off_c, 0, 87, 66
1, 114944, Note_off_c, 0, 88, 67
1, 114945, Control_c, 0, 64, 59
1, 114945, Control_c, 0, 67, 36
1, 114951, Note_off_c, 0, 40, 67
1, 114960, Control_c, 0, 64, 0
1, 114960, Control_c, 0, 67, 36
1, 114976, Control_c, 0, 67, 32
1, 114991, Control_c, 0, 67, 22
1, 115005, Control_c, 0, 67, 0
1, 115111, Note_on_c, 0, 83, 95
1, 115119, Note_on_c, 0, 47, 67
1, 115141, Note_off_c, 0, 83, 65
1, 115149, Note_off_c, 0, 47, 66
1, 115273, Note_on_c, 0, 76, 86
1, 115274, Note_on_c, 0, 88, 90
1, 115281, Note_on_c, 0, 52, 74
1, 115286, Note_on_c, 0, 40, 75
1, 115295, Note_off_c, 0, 76, 67
1, 115302, Note_off_c, 0, 88, 65
1, 115306, Note_off_c, 0, 52, 66
1, 115311, Note_off_c, 0, 40, 65
1, 115459, Note_on_c, 0, 47, 83
1, 115469, Note_on_c, 0, 83, 86
1, 115472, Control_c, 0, 67, 66
1, 115473, Note_on_c, 0, 85, 95
1, 115487, Control_c, 0, 64, 127
1, 115487, Control_c, 0, 67, 111
1, 115502, Control_c, 0, 67, 98
1, 115512, Note_off_c, 0, 83, 0
1, 115516, Note_off_c, 0, 85, 67
1, 115517, Control_c, 0, 67, 89
1, 115523, Note_on_c, 0, 83, 57
1, 115531, Control_c, 0, 67, 83
1, 115539, Note_on_c, 0, 49, 69
1, 115546, Control_c, 0, 67, 82
1, 115561, Control_c, 0, 67, 86
1, 115564, Note_off_c, 0, 47, 62
1, 115570, Note_on_c, 0, 87, 56
1, 115574, Note_off_c, 0, 83, 64
1, 115575, Control_c, 0, 67, 88
1, 115584, Note_on_c, 0, 85, 82
1, 115590, Control_c, 0, 67, 86
1, 115591, Note_off_c, 0, 87, 60
1, 115605, Control_c, 0, 67, 82
1, 115620, Note_on_c, 0, 47, 64
1, 115620, Control_c, 0, 67, 81
1, 115635, Control_c, 0, 67, 81
1, 115638, Note_off_c, 0, 49, 36
1, 115639, Note_on_c, 0, 83, 78
1, 115649, Control_c, 0, 67, 83
1, 115653, Note_off_c, 0, 85, 64
1, 115664, Control_c, 0, 67, 85
1, 115685, Note_off_c, 0, 83, 63
1, 115691, Note_off_c, 0, 47, 62
1, 115698, Note_on_c, 0, 85, 76
1, 115724, Note_on_c, 0, 49, 53
1, 115732, Note_off_c, 0, 85, 63
1, 115740, Note_on_c, 0, 46, 56
1, 115756, Note_off_c, 0, 49, 64
1, 115784, Control_c, 0, 67, 84
1, 115811, Note_on_c, 0, 82, 48
1, 115815, Note_off_c, 0, 46, 62
1, 115836, Note_on_c, 0, 83, 74
1, 115840, Note_on_c, 0, 51, 80
1, 115843, Control_c, 0, 67, 80
1, 115858, Control_c, 0, 67, 65
1, 115859, Note_on_c, 0, 85, 75
1, 115870, Note_off_c, 0, 82, 37
1, 115871, Note_off_c, 0, 51, 61
1, 115873, Control_c, 0, 67, 22
1, 115882, Note_off_c, 0, 83, 62
1, 115885, Note_on_c, 0, 87, 70
1, 115888, Control_c, 0, 67, 0
1, 115920, Note_on_c, 0, 40, 80
1, 115920, Note_on_c, 0, 53, 79
1, 115921, Note_on_c, 0, 77, 100
1, 115925, Note_on_c, 0, 41, 73
1, 115925, Note_on_c, 0, 52, 78
1, 115927, Note_on_c, 0, 89, 87
1, 115929, Note_on_c, 0, 88, 81
1, 115932, Note_off_c, 0, 85, 63
1, 115941, Note_off_c, 0, 87, 65
1, 115941, Note_off_c, 0, 53, 69
1, 115943, Note_off_c, 0, 40, 67
1, 115945, Note_off_c, 0, 89, 71
1, 115947, Control_c, 0, 64, 89
1, 115947, Note_off_c, 0, 88, 72
1, 115950, Note_off_c, 0, 41, 63
1, 115950, Note_off_c, 0, 52, 66
1, 115953, Note_off_c, 0, 77, 66
1, 115962, Control_c, 0, 64, 53
1, 115977, Control_c, 0, 64, 0
1, 116108, Note_on_c, 0, 83, 97
1, 116120, Note_on_c, 0, 47, 65
1, 116136, Note_on_c, 0, 48, 55
1, 116141, Note_off_c, 0, 83, 67
1, 116143, Note_off_c, 0, 47, 64
1, 116161, Note_off_c, 0, 48, 56
1, 116270, Note_on_c, 0, 78, 101
1, 116272, Note_on_c, 0, 54, 89
1, 116272, Note_on_c, 0, 90, 100
1, 116279, Note_on_c, 0, 42, 76
1, 116302, Note_off_c, 0, 78, 66
1, 116303, Note_off_c, 0, 54, 60
1, 116310, Note_off_c, 0, 90, 64
1, 116311, Note_off_c, 0, 42, 68
1, 116440, Note_on_c, 0, 47, 91
1, 116443, Control_c, 0, 64, 63
1, 116451, Note_on_c, 0, 83, 110
1, 116458, Control_c, 0, 64, 127
1, 116459, Note_on_c, 0, 85, 91
1, 116481, Note_off_c, 0, 83, 65
1, 116510, Note_off_c, 0, 85, 67
1, 116511, Note_off_c, 0, 47, 0
1, 116518, Note_on_c, 0, 83, 80
1, 116526, Note_on_c, 0, 49, 82
1, 116569, Note_on_c, 0, 86, 58
1, 116571, Note_off_c, 0, 83, 64
1, 116582, Note_on_c, 0, 85, 79
1, 116582, Note_off_c, 0, 49, 62
1, 116604, Poly_aftertouch_c, 0, 47, 0
1, 116621, Note_on_c, 0, 47, 42
1, 116642, Note_on_c, 0, 83, 74
1, 116656, Note_off_c, 0, 47, 64
1, 116660, Note_off_c, 0, 83, 72
1, 116687, Note_on_c, 0, 49, 77
1, 116690, Note_off_c, 0, 86, 62
1, 116700, Note_off_c, 0, 85, 63
1, 116710, Note_on_c, 0, 46, 72
1, 116715, Note_off_c, 0, 49, 68
1, 116742, Note_on_c, 0, 82, 88
1, 116776, Note_off_c, 0, 82, 64
1, 116802, Note_off_c, 0, 46, 62
1, 116815, Note_on_c, 0, 52, 62
1, 116822, Note_on_c, 0, 53, 45
1, 116826, Note_on_c, 0, 88, 74
1, 116836, Note_on_c, 0, 87, 61
1, 116852, Note_off_c, 0, 52, 64
1, 116861, Note_off_c, 0, 53, 52
1, 116861, Poly_aftertouch_c, 0, 51, 127
1, 116894, Poly_aftertouch_c, 0, 51, 0
1, 116895, Note_off_c, 0, 87, 60
1, 116904, Poly_aftertouch_c, 0, 83, 0
1, 116915, Note_on_c, 0, 53, 96
1, 116925, Note_on_c, 0, 91, 105
1, 116927, Note_on_c, 0, 41, 83
1, 116931, Note_on_c, 0, 79, 97
1, 116933, Note_on_c, 0, 77, 93
1, 116940, Control_c, 0, 67, 34
1, 116947, Note_off_c, 0, 77, 76
1, 116947, Note_off_c, 0, 88, 66
1, 116955, Note_off_c, 0, 53, 65
1, 116955, Note_off_c, 0, 41, 67
1, 116955, Note_off_c, 0, 79, 66
1, 116955, Control_c, 0, 64, 91
1, 116955, Control_c, 0, 67, 62
1, 116956, Note_off_c, 0, 91, 69
1, 116970, Control_c, 0, 64, 57
1, 116970, Control_c, 0, 67, 61
1, 116984, Control_c, 0, 64, 0
1, 116984, Control_c, 0, 67, 50
1, 116985, Note_on_c, 0, 44, 4
1, 116999, Control_c, 0, 67, 32
1, 117014, Control_c, 0, 67, 0
1, 117038, Note_off_c, 0, 44, 29
1, 117117, Note_on_c, 0, 83, 89
1, 117119, Note_on_c, 0, 47, 74
1, 117137, Note_off_c, 0, 83, 69
1, 117155, Note_off_c, 0, 47, 65
1, 117277, Note_on_c, 0, 56, 85
1, 117277, Note_on_c, 0, 80, 99
1, 117279, Note_on_c, 0, 92, 101
1, 117283, Note_on_c, 0, 44, 73
1, 117308, Note_off_c, 0, 80, 65
1, 117310, Note_off_c, 0, 56, 56
1, 117313, Note_off_c, 0, 92, 66
1, 117314, Note_off_c, 0, 44, 65
1, 117462, Note_on_c, 0, 47, 88
1, 117474, Control_c, 0, 64, 61
1, 117483, Note_on_c, 0, 83, 103
1, 117489, Note_on_c, 0, 85, 103
1, 117489, Control_c, 0, 64, 90
1, 117503, Note_off_c, 0, 83, 64
1, 117504, Control_c, 0, 64, 127
1, 117549, Note_off_c, 0, 85, 64
1, 117553, Note_on_c, 0, 83, 84
1, 117565, Note_on_c, 0, 49, 71
1, 117585, Note_on_c, 0, 87, 71
1, 117587, Note_off_c, 0, 47, 63
1, 117599, Note_off_c, 0, 83, 63
1, 117618, Note_off_c, 0, 87, 57
1, 117626, Note_on_c, 0, 85, 78
1, 117641, Note_on_c, 0, 86, 44
1, 117657, Note_off_c, 0, 49, 58
1, 117673, Note_on_c, 0, 83, 83
1, 117673, Note_off_c, 0, 86, 47
1, 117682, Note_off_c, 0, 85, 62
1, 117705, Note_on_c, 0, 47, 24
1, 117717, Note_off_c, 0, 83, 64
1, 117722, Poly_aftertouch_c, 0, 46, 127
1, 117727, Note_off_c, 0, 47, 59
1, 117736, Poly_aftertouch_c, 0, 46, 0
1, 117740, Note_on_c, 0, 86, 64
1, 117744, Note_on_c, 0, 85, 70
1, 117751, Note_on_c, 0, 49, 65
1, 117759, Note_on_c, 0, 46, 30
1, 117770, Note_off_c, 0, 86, 64
1, 117781, Note_off_c, 0, 49, 65
1, 117802, Note_off_c, 0, 85, 62
1, 117821, Note_on_c, 0, 82, 65
1, 117852, Note_on_c, 0, 51, 85
1, 117856, Note_on_c, 0, 83, 74
1, 117881, Note_off_c, 0, 46, 44
1, 117884, Note_off_c, 0, 82, 63
1, 117885, Note_on_c, 0, 85, 64
1, 117885, Note_off_c, 0, 83, 64
1, 117888, Note_off_c, 0, 51, 63
1, 117910, Note_off_c, 0, 85, 68
1, 117916, Note_on_c, 0, 88, 71
1, 117940, Note_off_c, 0, 88, 68
1, 117956, Control_c, 0, 64, 86
1, 117969, Note_on_c, 0, 54, 91
1, 117970, Control_c, 0, 64, 41
1, 117970, Control_c, 0, 67, 44
1, 117972, Note_on_c, 0, 90, 110
1, 117985, Note_on_c, 0, 55, 90
1, 117985, Control_c, 0, 64, 0
1, 117985, Control_c, 0, 67, 59
1, 118000, Control_c, 0, 67, 59
1, 118015, Control_c, 0, 64, 53
1, 118015, Control_c, 0, 67, 57
1, 118030, Control_c, 0, 64, 78
1, 118030, Control_c, 0, 67, 55
1, 118044, Control_c, 0, 64, 127
1, 118044, Control_c, 0, 67, 55
1, 118059, Control_c, 0, 67, 60
1, 118074, Control_c, 0, 67, 62
1, 118078, Note_off_c, 0, 55, 59
1, 118079, Note_off_c, 0, 54, 34
1, 118089, Control_c, 0, 67, 61
1, 118100, Note_off_c, 0, 90, 65
1, 118104, Control_c, 0, 67, 56
1, 118118, Control_c, 0, 67, 52
1, 118119, Note_on_c, 0, 92, 58
1, 118133, Control_c, 0, 67, 51
1, 118136, Note_on_c, 0, 56, 60
1, 118148, Control_c, 0, 67, 53
1, 118150, Note_on_c, 0, 90, 65
1, 118150, Note_off_c, 0, 92, 66
1, 118164, Control_c, 0, 67, 56
1, 118171, Note_off_c, 0, 56, 63
1, 118178, Control_c, 0, 67, 57
1, 118190, Note_on_c, 0, 54, 81
1, 118192, Note_off_c, 0, 90, 62
1, 118192, Control_c, 0, 67, 55
1, 118207, Control_c, 0, 67, 52
1, 118209, Note_on_c, 0, 92, 83
1, 118222, Control_c, 0, 67, 51
1, 118237, Control_c, 0, 67, 52
1, 118252, Note_on_c, 0, 90, 81
1, 118252, Control_c, 0, 67, 58
1, 118267, Note_off_c, 0, 92, 53
1, 118267, Control_c, 0, 67, 59
1, 118273, Note_on_c, 0, 56, 75
1, 118279, Note_off_c, 0, 54, 62
1, 118281, Control_c, 0, 67, 57
1, 118296, Control_c, 0, 67, 51
1, 118297, Note_off_c, 0, 90, 64
1, 118309, Note_on_c, 0, 92, 75
1, 118311, Control_c, 0, 67, 43
1, 118326, Control_c, 0, 67, 25
1, 118329, Note_off_c, 0, 56, 54
1, 118332, Note_on_c, 0, 53, 62
1, 118348, Control_c, 0, 67, 0
1, 118384, Note_off_c, 0, 92, 66
1, 118387, Note_on_c, 0, 89, 85
1, 118407, Control_c, 0, 64, 69
1, 118410, Note_on_c, 0, 54, 62
1, 118422, Control_c, 0, 64, 0
1, 118426, Note_on_c, 0, 90, 74
1, 118427, Note_on_c, 0, 57, 89
1, 118431, Note_off_c, 0, 89, 65
1, 118446, Note_off_c, 0, 53, 57
1, 118451, Note_on_c, 0, 92, 87
1, 118461, Note_on_c, 0, 59, 94
1, 118464, Note_off_c, 0, 54, 63
1, 118469, Note_off_c, 0, 90, 67
1, 118476, Note_on_c, 0, 93, 86
1, 118481, Control_c, 0, 64, 34
1, 118481, Control_c, 0, 67, 34
1, 118483, Note_off_c, 0, 57, 64
1, 118488, Note_on_c, 0, 96, 88
1, 118491, Note_on_c, 0, 95, 82
1, 118494, Note_off_c, 0, 93, 73
1, 118495, Note_off_c, 0, 92, 68
1, 118496, Control_c, 0, 64, 67
1, 118506, Note_off_c, 0, 96, 74
1, 118509, Note_off_c, 0, 95, 73
1, 118511, Control_c, 0, 64, 111
1, 118511, Control_c, 0, 67, 31
1, 118523, Note_off_c, 0, 59, 62
1, 118526, Control_c, 0, 64, 127
1, 118526, Control_c, 0, 67, 28
1, 118571, Control_c, 0, 67, 33
1, 118586, Control_c, 0, 67, 32
1, 118600, Control_c, 0, 67, 27
1, 118604, Note_on_c, 0, 59, 55
1, 118608, Note_on_c, 0, 97, 83
1, 118615, Control_c, 0, 67, 24
1, 118630, Control_c, 0, 67, 21
1, 118635, Note_off_c, 0, 59, 61
1, 118635, Note_off_c, 0, 97, 63
1, 118660, Note_on_c, 0, 95, 77
1, 118660, Control_c, 0, 67, 25
1, 118678, Note_on_c, 0, 61, 72
1, 118682, Note_off_c, 0, 95, 66
1, 118689, Control_c, 0, 67, 22
1, 118704, Control_c, 0, 67, 0
1, 118715, Note_on_c, 0, 97, 84
1, 118743, Note_off_c, 0, 61, 58
1, 118757, Note_on_c, 0, 59, 63
1, 118761, Note_on_c, 0, 95, 80
1, 118768, Note_off_c, 0, 97, 66
1, 118785, Note_off_c, 0, 59, 67
1, 118796, Note_off_c, 0, 95, 62
1, 118866, Control_c, 0, 64, 77
1, 118876, Note_on_c, 0, 58, 45
1, 118881, Control_c, 0, 64, 42
1, 118896, Note_on_c, 0, 94, 52
1, 118896, Control_c, 0, 64, 0
1, 118903, Note_off_c, 0, 58, 58
1, 118910, Note_on_c, 0, 63, 84
1, 118934, Note_off_c, 0, 63, 67
1, 118952, Note_on_c, 0, 99, 76
1, 118955, Note_on_c, 0, 97, 51
1, 118955, Control_c, 0, 64, 41
1, 118958, Note_off_c, 0, 94, 45
1, 118970, Control_c, 0, 64, 70
1, 118976, Note_on_c, 0, 64, 99
1, 118980, Note_on_c, 0, 100, 81
1, 118982, Note_on_c, 0, 52, 97
1, 118982, Note_on_c, 0, 98, 70
1, 118982, Note_off_c, 0, 97, 59
1, 118985, Control_c, 0, 64, 127
1, 118986, Note_on_c, 0, 101, 82
1, 118987, Note_on_c, 0, 88, 95
1, 119000, Note_off_c, 0, 101, 68
1, 119002, Note_off_c, 0, 52, 70
1, 119003, Note_off_c, 0, 64, 66
1, 119004, Note_off_c, 0, 88, 74
1, 119006, Note_off_c, 0, 100, 73
1, 119006, Note_off_c, 0, 98, 69
1, 119006, Note_off_c, 0, 99, 62
1, 119060, Control_c, 0, 67, 23
1, 119074, Control_c, 0, 67, 0
1, 119126, Control_c, 0, 67, 22
1, 119141, Control_c, 0, 67, 25
1, 119170, Control_c, 0, 67, 22
1, 119215, Control_c, 0, 64, 79
1, 119229, Control_c, 0, 64, 51
1, 119229, Control_c, 0, 67, 24
1, 119244, Control_c, 0, 64, 0
1, 119259, Control_c, 0, 67, 21
1, 119304, Control_c, 0, 67, 26
1, 119348, Control_c, 0, 67, 22
1, 119393, Control_c, 0, 67, 25
1, 119437, Control_c, 0, 67, 21
1, 119496, Control_c, 0, 67, 23
1, 119511, Control_c, 0, 67, 21
1, 119518, Note_on_c, 0, 52, 92
1, 119522, Note_on_c, 0, 40, 86
1, 119522, Note_on_c, 0, 64, 96
1, 119526, Control_c, 0, 67, 0
1, 119540, Control_c, 0, 64, 64
1, 119542, Note_off_c, 0, 52, 65
1, 119547, Note_off_c, 0, 40, 67
1, 119552, Note_off_c, 0, 64, 68
1, 119555, Control_c, 0, 64, 127
1, 119570, Control_c, 0, 67, 20
1, 119585, Control_c, 0, 67, 29
1, 119600, Control_c, 0, 67, 35
1, 119614, Control_c, 0, 67, 32
1, 119629, Control_c, 0, 67, 26
1, 119644, Control_c, 0, 67, 22
1, 119718, Control_c, 0, 67, 0
1, 119823, Control_c, 0, 64, 90
1, 119845, Control_c, 0, 64, 73
1, 119860, Control_c, 0, 64, 64
1, 119875, Control_c, 0, 64, 54
1, 119890, Control_c, 0, 64, 34
1, 119905, Control_c, 0, 64, 0
1, 120263, Note_on_c, 0, 64, 94
1, 120270, Note_on_c, 0, 52, 76
1, 120278, Note_on_c, 0, 40, 73
1, 120424, Control_c, 0, 67, 19
1, 120453, Control_c, 0, 67, 22
1, 120468, Control_c, 0, 67, 26
1, 120483, Control_c, 0, 67, 32
1, 120498, Control_c, 0, 67, 40
1, 120512, Control_c, 0, 67, 42
1, 120542, Control_c, 0, 67, 42
1, 120557, Control_c, 0, 67, 42
1, 120595, Control_c, 0, 67, 44
1, 120610, Control_c, 0, 67, 44
1, 120684, Control_c, 0, 67, 45
1, 120699, Control_c, 0, 67, 46
1, 120714, Control_c, 0, 67, 48
1, 120729, Control_c, 0, 67, 50
1, 120876, Control_c, 0, 67, 51
1, 120950, Control_c, 0, 67, 51
1, 121009, Control_c, 0, 67, 52
1, 121024, Control_c, 0, 67, 52
1, 121113, Control_c, 0, 67, 53
1, 121128, Control_c, 0, 67, 53
1, 121143, Control_c, 0, 67, 56
1, 121158, Control_c, 0, 67, 58
1, 121173, Control_c, 0, 67, 59
1, 121247, Control_c, 0, 67, 59
1, 121261, Control_c, 0, 64, 33
1, 121276, Control_c, 0, 64, 34
1, 121291, Control_c, 0, 64, 35
1, 121306, Control_c, 0, 64, 35
1, 121320, Control_c, 0, 64, 36
1, 121343, Control_c, 0, 64, 37
1, 121358, Control_c, 0, 64, 37
1, 121373, Control_c, 0, 64, 38
1, 121388, Control_c, 0, 64, 40
1, 121403, Control_c, 0, 64, 41
1, 121417, Control_c, 0, 64, 42
1, 121432, Control_c, 0, 64, 43
1, 121435, Poly_aftertouch_c, 0, 45, 127
1, 121462, Control_c, 0, 64, 44
1, 121477, Control_c, 0, 64, 44
1, 121477, Control_c, 0, 67, 60
1, 121507, Control_c, 0, 64, 45
1, 121537, Control_c, 0, 67, 60
1, 121566, Control_c, 0, 64, 45
1, 121581, Control_c, 0, 67, 61
1, 121611, Control_c, 0, 67, 62
1, 121625, Control_c, 0, 67, 66
1, 121640, Control_c, 0, 64, 46
1, 121640, Control_c, 0, 67, 69
1, 121655, Control_c, 0, 67, 70
1, 121670, Control_c, 0, 64, 46
1, 121670, Control_c, 0, 67, 70
1, 121685, Control_c, 0, 67, 71
1, 121699, Control_c, 0, 67, 72
1, 121714, Control_c, 0, 64, 47
1, 121714, Control_c, 0, 67, 72
1, 121729, Control_c, 0, 67, 73
1, 121758, Control_c, 0, 67, 74
1, 121773, Control_c, 0, 67, 75
1, 121788, Control_c, 0, 67, 77
1, 121803, Control_c, 0, 67, 78
1, 121817, Control_c, 0, 67, 78
1, 121832, Control_c, 0, 64, 47
1, 121832, Control_c, 0, 67, 79
1, 121847, Control_c, 0, 67, 79
1, 121862, Control_c, 0, 67, 80
1, 121877, Control_c, 0, 67, 82
1, 121891, Control_c, 0, 67, 83
1, 121906, Control_c, 0, 67, 85
1, 121921, Control_c, 0, 67, 87
1, 121936, Control_c, 0, 67, 88
1, 121951, Control_c, 0, 64, 48
1, 121951, Control_c, 0, 67, 90
1, 121966, Control_c, 0, 67, 91
1, 121981, Control_c, 0, 67, 94
1, 121996, Control_c, 0, 64, 48
1, 121996, Control_c, 0, 67, 97
1, 122010, Control_c, 0, 67, 100
1, 122025, Control_c, 0, 67, 103
1, 122040, Control_c, 0, 67, 106
1, 122055, Control_c, 0, 67, 108
1, 122070, Control_c, 0, 67, 111
1, 122091, Control_c, 0, 67, 114
1, 122106, Control_c, 0, 67, 117
1, 122121, Control_c, 0, 64, 49
1, 122121, Control_c, 0, 67, 121
1, 122136, Control_c, 0, 67, 126
1, 122151, Control_c, 0, 64, 49
1, 122181, Control_c, 0, 64, 50
1, 122196, Control_c, 0, 64, 50
1, 122226, Control_c, 0, 64, 51
1, 122240, Control_c, 0, 64, 51
1, 122255, Control_c, 0, 64, 52
1, 122270, Control_c, 0, 64, 52
1, 122285, Control_c, 0, 64, 54
1, 122300, Control_c, 0, 64, 55
1, 122315, Control_c, 0, 64, 56
1, 122330, Control_c, 0, 64, 57
1, 122344, Control_c, 0, 64, 58
1, 122359, Control_c, 0, 64, 59
1, 122374, Control_c, 0, 64, 60
1, 122389, Control_c, 0, 64, 61
1, 122404, Control_c, 0, 64, 61
1, 122419, Control_c, 0, 64, 62
1, 122434, Control_c, 0, 64, 62
1, 122448, Control_c, 0, 64, 63
1, 122463, Control_c, 0, 64, 63
1, 122478, Control_c, 0, 64, 64
1, 122493, Control_c, 0, 64, 65
1, 122508, Control_c, 0, 64, 66
1, 122522, Control_c, 0, 64, 67
1, 122537, Control_c, 0, 64, 67
1, 122552, Control_c, 0, 64, 68
1, 122566, Control_c, 0, 64, 69
1, 122581, Control_c, 0, 64, 70
1, 122596, Control_c, 0, 64, 71
1, 122611, Control_c, 0, 64, 72
1, 122626, Control_c, 0, 64, 72
1, 122640, Control_c, 0, 64, 73
1, 122655, Control_c, 0, 64, 74
1, 122670, Control_c, 0, 64, 74
1, 122684, Control_c, 0, 64, 75
1, 122699, Control_c, 0, 64, 76
1, 122714, Control_c, 0, 64, 77
1, 122729, Control_c, 0, 64, 77
1, 122744, Control_c, 0, 64, 78
1, 122759, Control_c, 0, 64, 79
1, 122774, Control_c, 0, 64, 80
1, 122789, Control_c, 0, 64, 81
1, 122804, Control_c, 0, 64, 82
1, 122818, Control_c, 0, 64, 83
1, 122840, Control_c, 0, 64, 85
1, 122855, Control_c, 0, 64, 88
1, 122870, Control_c, 0, 64, 91
1, 122885, Control_c, 0, 64, 95
1, 122899, Control_c, 0, 64, 99
1, 122914, Control_c, 0, 64, 102
1, 122929, Control_c, 0, 64, 105
1, 122944, Control_c, 0, 64, 109
1, 122960, Control_c, 0, 64, 113
1, 122975, Control_c, 0, 64, 117
1, 122989, Control_c, 0, 64, 124
1, 123004, Control_c, 0, 64, 127
1, 123348, Poly_aftertouch_c, 0, 45, 0
1, 123762, Note_off_c, 0, 52, 37
1, 123845, Note_off_c, 0, 40, 38
1, 125020, Note_on_c, 0, 67, 49
1, 125031, Note_on_c, 0, 60, 35
1, 125040, Note_on_c, 0, 43, 15
1, 125045, Note_on_c, 0, 55, 36
1, 125054, Note_on_c, 0, 48, 26
1, 125063, Note_on_c, 0, 36, 24
1, 125087, Control_c, 0, 64, 108
1, 125102, Control_c, 0, 64, 85
1, 125117, Control_c, 0, 64, 72
1, 125132, Control_c, 0, 64, 64
1, 125147, Control_c, 0, 64, 59
1, 125161, Control_c, 0, 64, 60
1, 125176, Control_c, 0, 64, 63
1, 125191, Control_c, 0, 64, 67
1, 125206, Control_c, 0, 64, 69
1, 125221, Control_c, 0, 64, 72
1, 125235, Control_c, 0, 64, 75
1, 125250, Control_c, 0, 64, 80
1, 125261, Note_off_c, 0, 67, 57
1, 125265, Control_c, 0, 64, 84
1, 125280, Control_c, 0, 64, 90
1, 125294, Control_c, 0, 64, 96
1, 125309, Control_c, 0, 64, 102
1, 125324, Control_c, 0, 64, 109
1, 125325, Note_off_c, 0, 55, 60
1, 125339, Control_c, 0, 64, 122
1, 125354, Control_c, 0, 64, 127
1, 125377, Note_off_c, 0, 60, 48
1, 125532, Control_c, 0, 64, 108
1, 125547, Control_c, 0, 64, 88
1, 125548, Note_on_c, 0, 45, 49
1, 125552, Note_on_c, 0, 66, 66
1, 125562, Control_c, 0, 64, 77
1, 125569, Note_off_c, 0, 64, 56
1, 125575, Note_on_c, 0, 54, 45
1, 125576, Note_on_c, 0, 60, 42
1, 125576, Control_c, 0, 64, 73
1, 125587, Note_off_c, 0, 43, 39
1, 125588, Note_on_c, 0, 62, 40
1, 125591, Control_c, 0, 64, 74
1, 125606, Control_c, 0, 64, 75
1, 125621, Control_c, 0, 64, 78
1, 125636, Control_c, 0, 64, 82
1, 125648, Note_off_c, 0, 60, 44
1, 125651, Control_c, 0, 64, 86
1, 125666, Control_c, 0, 64, 90
1, 125681, Control_c, 0, 64, 94
1, 125696, Control_c, 0, 64, 98
1, 125698, Note_off_c, 0, 66, 51
1, 125710, Control_c, 0, 64, 101
1, 125725, Control_c, 0, 64, 103
1, 125739, Note_off_c, 0, 54, 39
1, 125784, Control_c, 0, 64, 105
1, 125984, Control_c, 0, 64, 100
1, 125999, Control_c, 0, 64, 86
1, 126000, Note_on_c, 0, 67, 68
1, 126010, Note_on_c, 0, 43, 50
1, 126012, Note_on_c, 0, 60, 48
1, 126014, Control_c, 0, 64, 72
1, 126019, Note_on_c, 0, 55, 47
1, 126029, Control_c, 0, 64, 61
1, 126044, Note_off_c, 0, 45, 37
1, 126044, Control_c, 0, 64, 45
1, 126059, Control_c, 0, 64, 0
1, 126069, Note_off_c, 0, 62, 60
1, 126088, Control_c, 0, 64, 47
1, 126103, Control_c, 0, 64, 60
1, 126116, Note_off_c, 0, 60, 64
1, 126118, Control_c, 0, 64, 69
1, 126133, Control_c, 0, 64, 78
1, 126148, Control_c, 0, 64, 84
1, 126151, Note_off_c, 0, 43, 62
1, 126163, Control_c, 0, 64, 85
1, 126178, Control_c, 0, 64, 86
1, 126193, Control_c, 0, 64, 88
1, 126205, Note_off_c, 0, 48, 39
1, 126206, Note_off_c, 0, 36, 39
1, 126208, Control_c, 0, 64, 91
1, 126221, Note_off_c, 0, 55, 57
1, 126223, Control_c, 0, 64, 95
1, 126238, Control_c, 0, 64, 100
1, 126252, Control_c, 0, 64, 104
1, 126267, Control_c, 0, 64, 108
1, 126282, Control_c, 0, 64, 111
1, 126297, Control_c, 0, 64, 115
1, 126312, Control_c, 0, 64, 124
1, 126327, Control_c, 0, 64, 127
1, 126356, Note_off_c, 0, 67, 36
1, 126476, Note_on_c, 0, 60, 60
1, 126482, Note_on_c, 0, 42, 43
1, 126489, Control_c, 0, 64, 94
1, 126494, Note_on_c, 0, 52, 49
1, 126496, Note_on_c, 0, 48, 42
1, 126503, Note_on_c, 0, 57, 42
1, 126504, Control_c, 0, 64, 74
1, 126514, Note_on_c, 0, 36, 31
1, 126519, Control_c, 0, 64, 59
1, 126533, Control_c, 0, 64, 0
1, 126615, Control_c, 0, 64, 34
1, 126630, Control_c, 0, 64, 55
1, 126645, Control_c, 0, 64, 65
1, 126659, Control_c, 0, 64, 71
1, 126674, Control_c, 0, 64, 73
1, 126685, Note_off_c, 0, 52, 61
1, 126689, Control_c, 0, 64, 73
1, 126704, Control_c, 0, 64, 74
1, 126717, Note_off_c, 0, 57, 55
1, 126719, Control_c, 0, 64, 75
1, 126733, Control_c, 0, 64, 76
1, 126748, Control_c, 0, 64, 78
1, 126763, Control_c, 0, 64, 80
1, 126778, Control_c, 0, 64, 83
1, 126793, Control_c, 0, 64, 87
1, 126807, Control_c, 0, 64, 92
1, 126822, Control_c, 0, 64, 97
1, 126837, Control_c, 0, 64, 102
1, 126852, Control_c, 0, 64, 108
1, 126866, Control_c, 0, 64, 119
1, 126881, Control_c, 0, 64, 127
1, 126951, Note_off_c, 0, 60, 61
1, 126972, Note_on_c, 0, 61, 59
1, 126981, Note_on_c, 0, 57, 46
1, 126986, Control_c, 0, 64, 95
1, 126992, Note_on_c, 0, 51, 47
1, 127001, Control_c, 0, 64, 83
1, 127016, Control_c, 0, 64, 79
1, 127072, Note_off_c, 0, 51, 35
1, 127075, Control_c, 0, 64, 80
1, 127090, Control_c, 0, 64, 80
1, 127105, Control_c, 0, 64, 81
1, 127120, Control_c, 0, 64, 82
1, 127135, Control_c, 0, 64, 82
1, 127156, Note_off_c, 0, 57, 39
1, 127199, Note_on_c, 0, 62, 60
1, 127212, Note_on_c, 0, 50, 46
1, 127257, Note_off_c, 0, 61, 32
1, 127276, Note_off_c, 0, 50, 53
1, 127437, Control_c, 0, 64, 81
1, 127452, Control_c, 0, 64, 76
1, 127467, Control_c, 0, 64, 66
1, 127478, Note_on_c, 0, 55, 51
1, 127481, Control_c, 0, 64, 41
1, 127484, Note_on_c, 0, 52, 48
1, 127490, Note_on_c, 0, 43, 35
1, 127496, Control_c, 0, 64, 0
1, 127520, Note_off_c, 0, 62, 53
1, 127543, Note_off_c, 0, 42, 41
1, 127570, Control_c, 0, 64, 35
1, 127585, Control_c, 0, 64, 52
1, 127600, Control_c, 0, 64, 61
1, 127615, Control_c, 0, 64, 65
1, 127630, Control_c, 0, 64, 67
1, 127645, Control_c, 0, 64, 67
1, 127659, Control_c, 0, 64, 68
1, 127674, Control_c, 0, 64, 69
1, 127689, Control_c, 0, 64, 70
1, 127704, Control_c, 0, 64, 72
1, 127719, Control_c, 0, 64, 74
1, 127734, Control_c, 0, 64, 76
1, 127749, Control_c, 0, 64, 78
1, 127764, Control_c, 0, 64, 81
1, 127779, Control_c, 0, 64, 84
1, 127794, Control_c, 0, 64, 87
1, 127808, Control_c, 0, 64, 90
1, 127816, Note_off_c, 0, 36, 37
1, 127823, Control_c, 0, 64, 94
1, 127838, Control_c, 0, 64, 98
1, 127853, Control_c, 0, 64, 103
1, 127868, Control_c, 0, 64, 111
1, 127883, Control_c, 0, 64, 117
1, 127898, Control_c, 0, 64, 127
1, 127924, Note_off_c, 0, 55, 37
1, 127950, Note_off_c, 0, 43, 39
1, 128124, Note_off_c, 0, 48, 37
1, 128166, Note_on_c, 0, 60, 48
1, 128201, Note_off_c, 0, 52, 39
1, 128379, Note_on_c, 0, 65, 66
1, 128393, Note_on_c, 0, 45, 44
1, 128393, Note_on_c, 0, 48, 41
1, 128400, Note_on_c, 0, 53, 46
1, 128444, Note_off_c, 0, 53, 59
1, 128454, Note_off_c, 0, 65, 63
1, 128583, Note_on_c, 0, 64, 70
1, 128595, Note_on_c, 0, 55, 61
1, 128598, Note_on_c, 0, 43, 62
1, 128613, Note_off_c, 0, 45, 54
1, 128634, Note_off_c, 0, 60, 59
1, 128638, Note_off_c, 0, 55, 58
1, 128669, Note_off_c, 0, 64, 60
1, 128783, Note_on_c, 0, 41, 65
1, 128795, Control_c, 0, 64, 113
1, 128797, Note_on_c, 0, 60, 50
1, 128803, Note_on_c, 0, 69, 73
1, 128809, Note_off_c, 0, 43, 58
1, 128810, Control_c, 0, 64, 73
1, 128830, Note_on_c, 0, 57, 54
1, 128832, Control_c, 0, 64, 54
1, 128847, Control_c, 0, 64, 36
1, 128861, Control_c, 0, 64, 44
1, 128876, Note_off_c, 0, 57, 59
1, 128876, Control_c, 0, 64, 60
1, 128888, Note_off_c, 0, 60, 64
1, 128891, Control_c, 0, 64, 70
1, 128898, Note_off_c, 0, 69, 62
1, 128906, Control_c, 0, 64, 80
1, 128921, Control_c, 0, 64, 90
1, 128935, Control_c, 0, 64, 95
1, 128950, Control_c, 0, 64, 97
1, 128965, Control_c, 0, 64, 100
1, 128980, Control_c, 0, 64, 106
1, 128995, Note_on_c, 0, 50, 64
1, 128995, Control_c, 0, 64, 112
1, 128996, Note_on_c, 0, 68, 79
1, 129010, Control_c, 0, 64, 127
1, 129014, Note_on_c, 0, 59, 57
1, 129016, Note_on_c, 0, 56, 61
1, 129023, Note_off_c, 0, 48, 56
1, 129037, Note_off_c, 0, 50, 60
1, 129063, Note_off_c, 0, 41, 59
1, 129073, Note_off_c, 0, 56, 47
1, 129080, Note_off_c, 0, 59, 58
1, 129110, Note_off_c, 0, 68, 57
1, 129214, Note_on_c, 0, 48, 62
1, 129214, Note_on_c, 0, 67, 77
1, 129217, Note_on_c, 0, 40, 63
1, 129222, Note_on_c, 0, 60, 60
1, 129228, Note_on_c, 0, 55, 51
1, 129232, Control_c, 0, 64, 83
1, 129247, Control_c, 0, 64, 57
1, 129261, Control_c, 0, 64, 0
1, 129306, Control_c, 0, 64, 41
1, 129321, Control_c, 0, 64, 60
1, 129335, Control_c, 0, 64, 69
1, 129351, Control_c, 0, 64, 75
1, 129366, Control_c, 0, 64, 80
1, 129381, Control_c, 0, 64, 83
1, 129396, Control_c, 0, 64, 87
1, 129399, Note_off_c, 0, 40, 53
1, 129411, Control_c, 0, 64, 92
1, 129425, Control_c, 0, 64, 99
1, 129431, Note_off_c, 0, 55, 57
1, 129436, Note_on_c, 0, 36, 43
1, 129439, Note_on_c, 0, 64, 57
1, 129440, Control_c, 0, 64, 113
1, 129443, Note_off_c, 0, 60, 63
1, 129452, Note_off_c, 0, 67, 58
1, 129455, Note_off_c, 0, 48, 52
1, 129455, Control_c, 0, 64, 127
1, 129460, Note_off_c, 0, 64, 63
1, 129473, Note_off_c, 0, 36, 46
1, 129735, Note_on_c, 0, 50, 55
1, 129743, Note_on_c, 0, 43, 49
1, 129752, Note_on_c, 0, 55, 57
1, 129758, Control_c, 0, 64, 86
1, 129764, Note_on_c, 0, 74, 79
1, 129773, Note_on_c, 0, 71, 70
1, 129773, Control_c, 0, 64, 59
1, 129779, Note_on_c, 0, 62, 58
1, 129785, Note_on_c, 0, 67, 53
1, 129788, Control_c, 0, 64, 0
1, 129862, Control_c, 0, 64, 49
1, 129877, Control_c, 0, 64, 61
1, 129892, Control_c, 0, 64, 65
1, 129907, Control_c, 0, 64, 68
1, 129922, Control_c, 0, 64, 72
1, 129937, Control_c, 0, 64, 78
1, 129946, Note_off_c, 0, 74, 63
1, 129951, Control_c, 0, 64, 87
1, 129966, Control_c, 0, 64, 98
1, 129981, Control_c, 0, 64, 114
1, 129996, Control_c, 0, 64, 127
1, 130028, Note_off_c, 0, 62, 60
1, 130058, Note_off_c, 0, 67, 59
1, 130219, Note_on_c, 0, 73, 88
1, 130220, Note_on_c, 0, 52, 61
1, 130226, Note_off_c, 0, 50, 54
1, 130229, Note_on_c, 0, 69, 69
1, 130233, Control_c, 0, 64, 77
1, 130235, Note_on_c, 0, 61, 66
1, 130238, Note_on_c, 0, 67, 57
1, 130248, Note_off_c, 0, 71, 62
1, 130248, Control_c, 0, 64, 57
1, 130263, Control_c, 0, 64, 0
1, 130293, Control_c, 0, 64, 40
1, 130307, Control_c, 0, 64, 60
1, 130330, Control_c, 0, 64, 72
1, 130345, Control_c, 0, 64, 85
1, 130360, Control_c, 0, 64, 101
1, 130374, Control_c, 0, 64, 115
1, 130389, Control_c, 0, 64, 127
1, 130407, Note_off_c, 0, 73, 56
1, 130439, Note_off_c, 0, 61, 39
1, 130464, Note_off_c, 0, 67, 34
1, 130675, Note_on_c, 0, 50, 62
1, 130680, Note_on_c, 0, 71, 71
1, 130682, Note_on_c, 0, 74, 82
1, 130683, Note_on_c, 0, 62, 70
1, 130685, Control_c, 0, 64, 97
1, 130689, Note_on_c, 0, 67, 44
1, 130700, Control_c, 0, 64, 69
1, 130715, Control_c, 0, 64, 44
1, 130729, Note_off_c, 0, 69, 56
1, 130730, Control_c, 0, 64, 0
1, 130769, Note_off_c, 0, 67, 56
1, 130771, Note_off_c, 0, 52, 48
1, 130774, Control_c, 0, 64, 39
1, 130789, Control_c, 0, 64, 61
1, 130804, Control_c, 0, 64, 73
1, 130819, Control_c, 0, 64, 86
1, 130821, Note_off_c, 0, 71, 61
1, 130833, Control_c, 0, 64, 97
1, 130848, Control_c, 0, 64, 101
1, 130861, Note_off_c, 0, 55, 57
1, 130863, Control_c, 0, 64, 112
1, 130866, Note_off_c, 0, 50, 61
1, 130878, Control_c, 0, 64, 127
1, 130911, Note_off_c, 0, 62, 61
1, 130928, Note_on_c, 0, 63, 20
1, 130933, Note_off_c, 0, 43, 36
1, 130972, Note_off_c, 0, 63, 43
1, 130999, Note_off_c, 0, 74, 34
1, 131154, Note_on_c, 0, 49, 54
1, 131162, Note_on_c, 0, 67, 68
1, 131163, Note_on_c, 0, 55, 52
1, 131168, Control_c, 0, 64, 124
1, 131168, Note_on_c, 0, 43, 46
1, 131168, Note_on_c, 0, 59, 59
1, 131176, Note_on_c, 0, 64, 59
1, 131183, Control_c, 0, 64, 75
1, 131198, Control_c, 0, 64, 49
1, 131212, Control_c, 0, 64, 0
1, 131286, Control_c, 0, 64, 35
1, 131301, Control_c, 0, 64, 58
1, 131316, Control_c, 0, 64, 69
1, 131327, Note_off_c, 0, 59, 61
1, 131330, Control_c, 0, 64, 79
1, 131345, Control_c, 0, 64, 88
1, 131360, Control_c, 0, 64, 94
1, 131371, Note_off_c, 0, 64, 61
1, 131374, Note_off_c, 0, 67, 63
1, 131375, Control_c, 0, 64, 100
1, 131390, Control_c, 0, 64, 107
1, 131404, Control_c, 0, 64, 119
1, 131419, Control_c, 0, 64, 127
1, 131659, Note_on_c, 0, 68, 63
1, 131665, Note_on_c, 0, 58, 42
1, 131667, Note_on_c, 0, 64, 45
1, 131671, Control_c, 0, 64, 82
1, 131686, Control_c, 0, 64, 66
1, 131701, Control_c, 0, 64, 60
1, 131716, Control_c, 0, 64, 62
1, 131730, Control_c, 0, 64, 66
1, 131746, Control_c, 0, 64, 72
1, 131758, Note_off_c, 0, 58, 61
1, 131761, Control_c, 0, 64, 78
1, 131776, Control_c, 0, 64, 81
1, 131777, Note_off_c, 0, 64, 55
1, 131791, Control_c, 0, 64, 82
1, 131806, Control_c, 0, 64, 84
1, 131827, Control_c, 0, 64, 86
1, 131842, Control_c, 0, 64, 88
1, 131857, Control_c, 0, 64, 89
1, 131874, Note_on_c, 0, 57, 63
1, 131874, Note_on_c, 0, 69, 63
1, 131898, Note_off_c, 0, 68, 37
1, 131931, Control_c, 0, 64, 90
1, 131952, Note_off_c, 0, 57, 49
1, 131976, Control_c, 0, 64, 90
1, 132109, Control_c, 0, 64, 89
1, 132124, Control_c, 0, 64, 79
1, 132135, Note_on_c, 0, 62, 56
1, 132137, Note_on_c, 0, 50, 44
1, 132139, Control_c, 0, 64, 66
1, 132143, Note_on_c, 0, 59, 50
1, 132153, Control_c, 0, 64, 0
1, 132156, Note_off_c, 0, 69, 48
1, 132172, Note_off_c, 0, 49, 34
1, 132242, Control_c, 0, 64, 45
1, 132257, Control_c, 0, 64, 62
1, 132271, Control_c, 0, 64, 68
1, 132286, Control_c, 0, 64, 72
1, 132301, Control_c, 0, 64, 76
1, 132316, Control_c, 0, 64, 79
1, 132331, Control_c, 0, 64, 83
1, 132345, Control_c, 0, 64, 87
1, 132360, Control_c, 0, 64, 95
1, 132375, Control_c, 0, 64, 105
1, 132390, Control_c, 0, 64, 127
1, 132491, Note_off_c, 0, 43, 37
1, 132492, Note_off_c, 0, 62, 50
1, 132551, Note_off_c, 0, 50, 59
1, 132684, Note_off_c, 0, 59, 33
1, 132696, Note_off_c, 0, 55, 38
1, 132813, Note_on_c, 0, 67, 52
1, 133036, Note_on_c, 0, 72, 69
1, 133043, Note_on_c, 0, 52, 46
1, 133043, Note_on_c, 0, 55, 41
1, 133046, Note_on_c, 0, 60, 49
1, 133091, Note_off_c, 0, 60, 62
1, 133125, Note_off_c, 0, 72, 61
1, 133237, Note_on_c, 0, 71, 75
1, 133240, Note_on_c, 0, 62, 68
1, 133241, Note_on_c, 0, 50, 61
1, 133272, Note_off_c, 0, 52, 52
1, 133287, Note_off_c, 0, 62, 56
1, 133293, Note_off_c, 0, 67, 59
1, 133334, Note_off_c, 0, 71, 62
1, 133427, Note_on_c, 0, 48, 73
1, 133445, Note_off_c, 0, 50, 59
1, 133457, Control_c, 0, 64, 72
1, 133460, Note_on_c, 0, 67, 53
1, 133466, Note_on_c, 0, 76, 77
1, 133472, Control_c, 0, 64, 47
1, 133481, Note_on_c, 0, 64, 54
1, 133487, Control_c, 0, 64, 0
1, 133517, Control_c, 0, 64, 51
1, 133529, Note_off_c, 0, 67, 63
1, 133532, Control_c, 0, 64, 67
1, 133542, Note_off_c, 0, 64, 59
1, 133547, Control_c, 0, 64, 81
1, 133558, Note_off_c, 0, 76, 63
1, 133562, Control_c, 0, 64, 105
1, 133576, Control_c, 0, 64, 127
1, 133653, Note_on_c, 0, 57, 67
1, 133654, Note_on_c, 0, 75, 80
1, 133664, Note_on_c, 0, 66, 68
1, 133666, Note_on_c, 0, 63, 66
1, 133671, Note_off_c, 0, 55, 52
1, 133681, Note_off_c, 0, 57, 65
1, 133718, Note_off_c, 0, 48, 61
1, 133726, Note_off_c, 0, 66, 50
1, 133732, Note_off_c, 0, 63, 52
1, 133765, Note_off_c, 0, 75, 61
1, 133857, Note_on_c, 0, 55, 67
1, 133860, Note_on_c, 0, 47, 67
1, 133863, Note_on_c, 0, 74, 85
1, 133872, Control_c, 0, 64, 101
1, 133875, Note_on_c, 0, 62, 70
1, 133878, Note_on_c, 0, 65, 74
1, 133887, Control_c, 0, 64, 65
1, 133902, Control_c, 0, 64, 0
1, 133946, Control_c, 0, 64, 56
1, 133961, Control_c, 0, 64, 72
1, 133976, Control_c, 0, 64, 95
1, 133976, Control_c, 0, 67, 124
1, 133991, Control_c, 0, 64, 127
1, 133991, Control_c, 0, 67, 120
1, 134006, Control_c, 0, 67, 117
1, 134046, Note_on_c, 0, 68, 68
1, 134050, Note_off_c, 0, 62, 60
1, 134050, Note_off_c, 0, 65, 63
1, 134060, Note_on_c, 0, 43, 69
1, 134072, Note_off_c, 0, 47, 62
1, 134072, Note_off_c, 0, 55, 61
1, 134080, Note_off_c, 0, 68, 68
1, 134082, Note_off_c, 0, 74, 61
1, 134103, Note_off_c, 0, 43, 66
1, 134177, Control_c, 0, 67, 119
1, 134221, Control_c, 0, 67, 121
1, 134280, Control_c, 0, 67, 125
1, 134295, Control_c, 0, 67, 127
1, 134298, Note_on_c, 0, 36, 71
1, 134300, Note_on_c, 0, 48, 63
1, 134325, Control_c, 0, 64, 84
1, 134334, Note_on_c, 0, 79, 88
1, 134340, Control_c, 0, 64, 54
1, 134343, Note_on_c, 0, 75, 75
1, 134345, Note_on_c, 0, 67, 67
1, 134351, Note_on_c, 0, 72, 66
1, 134355, Control_c, 0, 64, 0
1, 134414, Control_c, 0, 64, 47
1, 134423, Note_off_c, 0, 36, 63
1, 134429, Control_c, 0, 64, 65
1, 134444, Control_c, 0, 64, 81
1, 134444, Control_c, 0, 67, 125
1, 134459, Note_off_c, 0, 48, 64
1, 134459, Control_c, 0, 64, 127
1, 134482, Note_off_c, 0, 79, 65
1, 134488, Control_c, 0, 67, 127
1, 134495, Note_off_c, 0, 67, 62
1, 134533, Control_c, 0, 67, 125
1, 134536, Note_off_c, 0, 72, 61
1, 134541, Note_off_c, 0, 75, 63
1, 134577, Control_c, 0, 67, 127
1, 134775, Note_on_c, 0, 78, 87
1, 134778, Note_on_c, 0, 56, 60
1, 134780, Note_on_c, 0, 60, 58
1, 134784, Note_on_c, 0, 48, 52
1, 134784, Control_c, 0, 64, 83
1, 134786, Note_on_c, 0, 75, 68
1, 134793, Note_on_c, 0, 66, 64
1, 134799, Control_c, 0, 64, 60
1, 134800, Note_on_c, 0, 72, 56
1, 134821, Control_c, 0, 64, 0
1, 134880, Control_c, 0, 64, 53
1, 134895, Control_c, 0, 64, 68
1, 134910, Control_c, 0, 64, 84
1, 134924, Control_c, 0, 64, 111
1, 134939, Control_c, 0, 64, 127
1, 134973, Note_off_c, 0, 66, 55
1, 134978, Note_off_c, 0, 56, 58
1, 134999, Note_off_c, 0, 78, 52
1, 135237, Note_on_c, 0, 79, 79
1, 135251, Note_on_c, 0, 55, 56
1, 135255, Note_on_c, 0, 67, 58
1, 135267, Control_c, 0, 64, 84
1, 135282, Control_c, 0, 64, 65
1, 135296, Control_c, 0, 64, 44
1, 135311, Control_c, 0, 64, 0
1, 135340, Control_c, 0, 64, 48
1, 135355, Control_c, 0, 64, 64
1, 135370, Control_c, 0, 64, 76
1, 135371, Note_off_c, 0, 67, 64
1, 135376, Note_off_c, 0, 79, 63
1, 135385, Control_c, 0, 64, 88
1, 135396, Note_off_c, 0, 60, 58
1, 135401, Control_c, 0, 64, 94
1, 135407, Note_off_c, 0, 72, 63
1, 135413, Note_off_c, 0, 75, 61
1, 135415, Control_c, 0, 64, 95
1, 135418, Note_off_c, 0, 55, 61
1, 135437, Note_off_c, 0, 48, 61
1, 135445, Control_c, 0, 64, 100
1, 135460, Control_c, 0, 64, 102
1, 135475, Control_c, 0, 64, 104
1, 135489, Control_c, 0, 64, 106
1, 135504, Control_c, 0, 64, 108
1, 135519, Control_c, 0, 64, 114
1, 135534, Control_c, 0, 64, 127
1, 135734, Control_c, 0, 64, 105
1, 135738, Note_on_c, 0, 72, 72
1, 135741, Note_on_c, 0, 48, 44
1, 135741, Note_on_c, 0, 57, 56
1, 135745, Note_on_c, 0, 54, 37
1, 135750, Control_c, 0, 64, 78
1, 135754, Note_on_c, 0, 60, 50
1, 135764, Control_c, 0, 64, 61
1, 135779, Control_c, 0, 64, 0
1, 135806, Note_off_c, 0, 60, 0
1, 135806, Note_on_c, 0, 60, 15
1, 135839, Control_c, 0, 64, 47
1, 135853, Control_c, 0, 64, 66
1, 135868, Control_c, 0, 64, 77
1, 135883, Control_c, 0, 64, 85
1, 135898, Control_c, 0, 64, 89
1, 135913, Control_c, 0, 64, 91
1, 135919, Note_off_c, 0, 60, 51
1, 135920, Note_off_c, 0, 72, 61
1, 135927, Control_c, 0, 64, 95
1, 135942, Control_c, 0, 64, 103
1, 135957, Control_c, 0, 64, 112
1, 135971, Control_c, 0, 64, 127
1, 136224, Control_c, 0, 64, 92
1, 136238, Note_on_c, 0, 75, 64
1, 136238, Control_c, 0, 64, 68
1, 136253, Control_c, 0, 64, 57
1, 136258, Note_on_c, 0, 63, 50
1, 136268, Control_c, 0, 64, 52
1, 136283, Control_c, 0, 64, 57
1, 136298, Control_c, 0, 64, 62
1, 136319, Control_c, 0, 64, 67
1, 136334, Control_c, 0, 64, 73
1, 136346, Note_off_c, 0, 75, 63
1, 136349, Control_c, 0, 64, 78
1, 136350, Note_off_c, 0, 63, 62
1, 136364, Control_c, 0, 64, 81
1, 136379, Control_c, 0, 64, 82
1, 136423, Control_c, 0, 64, 82
1, 136468, Control_c, 0, 64, 83
1, 136478, Note_on_c, 0, 73, 70
1, 136483, Control_c, 0, 64, 83
1, 136494, Note_on_c, 0, 61, 51
1, 136497, Control_c, 0, 64, 84
1, 136526, Note_off_c, 0, 61, 52
1, 136526, Note_off_c, 0, 73, 61
1, 136531, Note_off_c, 0, 54, 33
1, 136557, Control_c, 0, 64, 85
1, 136748, Note_on_c, 0, 53, 46
1, 136765, Control_c, 0, 64, 82
1, 136780, Control_c, 0, 64, 76
1, 136794, Control_c, 0, 64, 66
1, 136796, Note_on_c, 0, 68, 63
1, 136800, Note_off_c, 0, 57, 57
1, 136809, Control_c, 0, 64, 51
1, 136816, Note_on_c, 0, 56, 46
1, 136824, Control_c, 0, 64, 0
1, 136883, Control_c, 0, 64, 52
1, 136898, Control_c, 0, 64, 67
1, 136905, Note_off_c, 0, 48, 63
1, 136912, Control_c, 0, 64, 80
1, 136919, Note_off_c, 0, 53, 62
1, 136927, Control_c, 0, 64, 93
1, 136932, Note_off_c, 0, 56, 57
1, 136942, Control_c, 0, 64, 100
1, 136972, Control_c, 0, 64, 102
1, 137112, Control_c, 0, 64, 99
1, 137127, Control_c, 0, 64, 96
1, 137142, Control_c, 0, 64, 91
1, 137157, Control_c, 0, 64, 84
1, 137172, Control_c, 0, 64, 79
1, 137173, Note_on_c, 0, 41, 19
1, 137187, Control_c, 0, 64, 74
1, 137198, Note_on_c, 0, 44, 43
1, 137201, Control_c, 0, 64, 70
1, 137216, Control_c, 0, 64, 67
1, 137231, Control_c, 0, 64, 62
1, 137246, Control_c, 0, 64, 53
1, 137248, Note_off_c, 0, 41, 37
1, 137261, Control_c, 0, 64, 43
1, 137272, Note_on_c, 0, 53, 47
1, 137276, Control_c, 0, 64, 0
1, 137285, Note_off_c, 0, 44, 59
1, 137321, Note_on_c, 0, 56, 43
1, 137371, Note_off_c, 0, 53, 37
1, 137411, Note_on_c, 0, 65, 49
1, 137414, Note_off_c, 0, 56, 53
1, 137529, Control_c, 0, 64, 48
1, 137543, Control_c, 0, 64, 65
1, 137558, Control_c, 0, 64, 69
1, 137565, Note_off_c, 0, 65, 52
1, 137573, Control_c, 0, 64, 71
1, 137574, Note_off_c, 0, 68, 63
1, 137588, Control_c, 0, 64, 71
1, 137603, Control_c, 0, 64, 73
1, 137617, Control_c, 0, 64, 75
1, 137632, Control_c, 0, 64, 78
1, 137646, Control_c, 0, 64, 82
1, 137661, Control_c, 0, 64, 85
1, 137676, Control_c, 0, 64, 88
1, 137690, Control_c, 0, 64, 91
1, 137705, Control_c, 0, 64, 95
1, 137720, Control_c, 0, 64, 98
1, 137780, Control_c, 0, 64, 89
1, 137794, Control_c, 0, 64, 75
1, 137798, Note_on_c, 0, 80, 57
1, 137816, Control_c, 0, 64, 62
1, 137822, Note_on_c, 0, 68, 40
1, 137831, Control_c, 0, 64, 43
1, 137846, Control_c, 0, 64, 0
1, 137876, Control_c, 0, 64, 37
1, 137890, Control_c, 0, 64, 56
1, 137893, Note_off_c, 0, 68, 54
1, 137905, Control_c, 0, 64, 69
1, 137920, Control_c, 0, 64, 78
1, 137935, Control_c, 0, 64, 85
1, 137949, Control_c, 0, 64, 86
1, 137964, Control_c, 0, 64, 86
1, 137979, Control_c, 0, 64, 88
1, 137994, Control_c, 0, 64, 93
1, 138009, Control_c, 0, 64, 102
1, 138024, Control_c, 0, 64, 116
1, 138039, Control_c, 0, 64, 127
1, 138041, Note_on_c, 0, 78, 73
1, 138051, Note_on_c, 0, 66, 57
1, 138074, Note_off_c, 0, 80, 57
1, 138156, Note_off_c, 0, 66, 57
1, 138173, Note_off_c, 0, 78, 62
1, 138234, Note_on_c, 0, 77, 76
1, 138249, Note_on_c, 0, 65, 70
1, 138295, Note_off_c, 0, 65, 57
1, 138304, Note_off_c, 0, 77, 62
1, 138321, Control_c, 0, 67, 125
1, 138411, Control_c, 0, 67, 123
1, 138426, Note_on_c, 0, 34, 57
1, 138426, Note_on_c, 0, 46, 58
1, 138440, Control_c, 0, 64, 88
1, 138444, Note_on_c, 0, 76, 83
1, 138449, Note_on_c, 0, 64, 63
1, 138455, Control_c, 0, 64, 66
1, 138470, Control_c, 0, 64, 51
1, 138485, Control_c, 0, 64, 50
1, 138485, Control_c, 0, 67, 121
1, 138500, Control_c, 0, 64, 58
1, 138504, Note_off_c, 0, 64, 58
1, 138514, Control_c, 0, 64, 66
1, 138529, Control_c, 0, 64, 78
1, 138537, Note_off_c, 0, 34, 62
1, 138544, Control_c, 0, 64, 92
1, 138566, Control_c, 0, 64, 110
1, 138581, Control_c, 0, 64, 127
1, 138587, Note_off_c, 0, 46, 63
1, 138640, Control_c, 0, 67, 119
1, 138649, Note_on_c, 0, 75, 83
1, 138653, Note_off_c, 0, 76, 64
1, 138656, Note_on_c, 0, 63, 71
1, 138688, Note_off_c, 0, 63, 63
1, 138704, Note_off_c, 0, 75, 64
1, 138826, Note_on_c, 0, 58, 60
1, 138830, Note_on_c, 0, 46, 57
1, 138877, Control_c, 0, 67, 121
1, 138891, Control_c, 0, 64, 75
1, 138896, Note_on_c, 0, 71, 80
1, 138904, Note_on_c, 0, 62, 66
1, 138906, Control_c, 0, 64, 52
1, 138921, Control_c, 0, 64, 0
1, 138981, Control_c, 0, 64, 50
1, 138996, Control_c, 0, 64, 64
1, 138997, Note_off_c, 0, 46, 62
1, 139011, Control_c, 0, 64, 72
1, 139026, Control_c, 0, 64, 77
1, 139041, Control_c, 0, 64, 79
1, 139055, Control_c, 0, 64, 80
1, 139067, Note_off_c, 0, 62, 56
1, 139070, Control_c, 0, 64, 80
1, 139085, Control_c, 0, 64, 81
1, 139087, Note_off_c, 0, 58, 63
1, 139100, Note_on_c, 0, 63, 55
1, 139100, Control_c, 0, 64, 83
1, 139106, Note_on_c, 0, 60, 50
1, 139115, Control_c, 0, 64, 86
1, 139130, Control_c, 0, 64, 92
1, 139145, Control_c, 0, 64, 101
1, 139160, Control_c, 0, 64, 127
1, 139258, Note_off_c, 0, 63, 61
1, 139278, Control_c, 0, 64, 97
1, 139279, Note_on_c, 0, 64, 50
1, 139293, Control_c, 0, 64, 79
1, 139297, Note_on_c, 0, 61, 54
1, 139301, Note_off_c, 0, 60, 58
1, 139315, Control_c, 0, 64, 72
1, 139330, Control_c, 0, 64, 71
1, 139345, Control_c, 0, 64, 72
1, 139359, Control_c, 0, 64, 74
1, 139374, Control_c, 0, 64, 77
1, 139389, Control_c, 0, 64, 81
1, 139404, Control_c, 0, 64, 84
1, 139419, Control_c, 0, 64, 85
1, 139434, Control_c, 0, 64, 83
1, 139449, Control_c, 0, 64, 75
1, 139451, Note_off_c, 0, 64, 58
1, 139455, Note_off_c, 0, 71, 60
1, 139463, Control_c, 0, 64, 67
1, 139478, Note_on_c, 0, 70, 72
1, 139478, Control_c, 0, 64, 61
1, 139479, Note_on_c, 0, 65, 60
1, 139482, Note_off_c, 0, 61, 58
1, 139489, Note_on_c, 0, 62, 63
1, 139493, Control_c, 0, 64, 59
1, 139508, Control_c, 0, 64, 61
1, 139522, Control_c, 0, 64, 65
1, 139537, Control_c, 0, 64, 68
1, 139537, Control_c, 0, 67, 124
1, 139552, Control_c, 0, 64, 71
1, 139567, Control_c, 0, 64, 73
1, 139582, Control_c, 0, 64, 78
1, 139596, Control_c, 0, 64, 82
1, 139611, Control_c, 0, 64, 86
1, 139626, Control_c, 0, 64, 89
1, 139640, Note_off_c, 0, 65, 39
1, 139641, Control_c, 0, 64, 93
1, 139656, Control_c, 0, 64, 99
1, 139666, Note_off_c, 0, 70, 65
1, 139670, Control_c, 0, 64, 105
1, 139678, Note_on_c, 0, 69, 80
1, 139682, Note_on_c, 0, 61, 68
1, 139684, Note_on_c, 0, 58, 64
1, 139689, Note_on_c, 0, 64, 69
1, 139696, Note_off_c, 0, 62, 33
1, 139700, Control_c, 0, 64, 90
1, 139714, Control_c, 0, 64, 69
1, 139730, Control_c, 0, 64, 0
1, 139760, Control_c, 0, 67, 121
1, 139775, Control_c, 0, 64, 37
1, 139790, Control_c, 0, 64, 60
1, 139804, Control_c, 0, 64, 71
1, 139819, Control_c, 0, 64, 80
1, 139825, Note_off_c, 0, 64, 53
1, 139834, Control_c, 0, 64, 87
1, 139849, Control_c, 0, 64, 90
1, 139849, Control_c, 0, 67, 119
1, 139864, Control_c, 0, 64, 95
1, 139878, Control_c, 0, 64, 104
1, 139881, Note_off_c, 0, 58, 60
1, 139885, Note_on_c, 0, 68, 84
1, 139892, Note_on_c, 0, 65, 59
1, 139893, Control_c, 0, 64, 127
1, 139894, Note_on_c, 0, 62, 68
1, 139914, Note_off_c, 0, 69, 60
1, 139914, Note_off_c, 0, 61, 60
1, 139917, Note_off_c, 0, 65, 65
1, 139928, Note_off_c, 0, 62, 64
1, 139938, Note_off_c, 0, 68, 65
1, 140116, Note_on_c, 0, 51, 68
1, 140119, Note_on_c, 0, 39, 68
1, 140137, Control_c, 0, 64, 77
1, 140152, Control_c, 0, 64, 57
1, 140159, Note_on_c, 0, 79, 90
1, 140167, Control_c, 0, 64, 0
1, 140176, Note_on_c, 0, 67, 66
1, 140179, Note_on_c, 0, 75, 69
1, 140197, Control_c, 0, 64, 44
1, 140200, Note_off_c, 0, 39, 63
1, 140212, Control_c, 0, 64, 63
1, 140227, Control_c, 0, 64, 77
1, 140234, Note_off_c, 0, 51, 63
1, 140242, Control_c, 0, 64, 87
1, 140257, Control_c, 0, 64, 94
1, 140271, Control_c, 0, 64, 102
1, 140286, Control_c, 0, 64, 127
1, 140325, Note_off_c, 0, 67, 59
1, 140343, Note_off_c, 0, 75, 63
1, 140439, Note_on_c, 0, 65, 56
1, 140453, Note_on_c, 0, 53, 42
1, 140504, Note_off_c, 0, 53, 56
1, 140514, Note_off_c, 0, 65, 60
1, 140594, Note_on_c, 0, 80, 95
1, 140596, Note_off_c, 0, 79, 65
1, 140598, Control_c, 0, 64, 79
1, 140602, Note_on_c, 0, 68, 78
1, 140605, Note_on_c, 0, 77, 68
1, 140613, Control_c, 0, 64, 65
1, 140617, Note_on_c, 0, 52, 69
1, 140617, Note_on_c, 0, 64, 74
1, 140627, Control_c, 0, 64, 62
1, 140643, Control_c, 0, 64, 66
1, 140658, Control_c, 0, 64, 74
1, 140671, Note_off_c, 0, 64, 64
1, 140673, Control_c, 0, 64, 87
1, 140673, Control_c, 0, 67, 121
1, 140674, Note_off_c, 0, 52, 64
1, 140688, Control_c, 0, 64, 115
1, 140699, Note_off_c, 0, 68, 55
1, 140702, Control_c, 0, 64, 127
1, 140732, Control_c, 0, 67, 123
1, 140781, Note_on_c, 0, 63, 74
1, 140790, Note_on_c, 0, 51, 67
1, 140823, Note_off_c, 0, 77, 63
1, 140858, Note_off_c, 0, 63, 58
1, 140868, Note_off_c, 0, 51, 60
1, 140917, Control_c, 0, 67, 121
1, 140963, Note_on_c, 0, 62, 83
1, 140967, Note_on_c, 0, 50, 78
1, 140970, Note_on_c, 0, 82, 96
1, 140974, Note_on_c, 0, 79, 83
1, 140976, Control_c, 0, 64, 90
1, 140984, Note_on_c, 0, 70, 79
1, 140991, Control_c, 0, 64, 63
1, 141006, Control_c, 0, 64, 35
1, 141021, Control_c, 0, 64, 37
1, 141023, Note_off_c, 0, 80, 54
1, 141035, Control_c, 0, 64, 57
1, 141035, Control_c, 0, 67, 123
1, 141043, Note_off_c, 0, 50, 61
1, 141044, Note_off_c, 0, 62, 62
1, 141050, Control_c, 0, 64, 70
1, 141065, Control_c, 0, 64, 88
1, 141065, Control_c, 0, 67, 125
1, 141080, Control_c, 0, 64, 127
1, 141084, Note_off_c, 0, 79, 63
1, 141107, Note_off_c, 0, 82, 64
1, 141139, Control_c, 0, 67, 127
1, 141154, Note_off_c, 0, 70, 64
1, 141157, Note_on_c, 0, 61, 81
1, 141164, Note_on_c, 0, 49, 73
1, 141184, Note_off_c, 0, 61, 61
1, 141200, Note_off_c, 0, 49, 59
1, 141361, Note_on_c, 0, 57, 81
1, 141362, Note_on_c, 0, 75, 92
1, 141367, Note_on_c, 0, 45, 77
1, 141369, Note_on_c, 0, 63, 74
1, 141377, Note_on_c, 0, 66, 73
1, 141378, Control_c, 0, 64, 114
1, 141391, Control_c, 0, 64, 68
1, 141406, Control_c, 0, 64, 0
1, 141451, Control_c, 0, 64, 46
1, 141462, Note_off_c, 0, 57, 63
1, 141465, Control_c, 0, 64, 66
1, 141476, Note_off_c, 0, 45, 63
1, 141480, Control_c, 0, 64, 80
1, 141495, Control_c, 0, 64, 100
1, 141509, Control_c, 0, 64, 127
1, 141583, Note_on_c, 0, 70, 24
1, 141589, Note_on_c, 0, 58, 75
1, 141640, Note_off_c, 0, 63, 59
1, 141647, Note_off_c, 0, 58, 62
1, 141650, Note_off_c, 0, 66, 53
1, 141673, Note_off_c, 0, 75, 61
1, 141887, Control_c, 0, 64, 101
1, 141896, Note_off_c, 0, 70, 39
1, 141899, Note_on_c, 0, 59, 46
1, 141902, Control_c, 0, 64, 72
1, 141903, Note_on_c, 0, 55, 51
1, 141914, Note_on_c, 0, 47, 36
1, 141917, Control_c, 0, 64, 42
1, 141917, Note_on_c, 0, 67, 48
1, 141930, Note_on_c, 0, 76, 54
1, 141932, Note_on_c, 0, 74, 58
1, 141932, Control_c, 0, 64, 0
1, 141933, Note_on_c, 0, 62, 50
1, 142009, Note_off_c, 0, 76, 62
1, 142050, Control_c, 0, 64, 50
1, 142065, Control_c, 0, 64, 63
1, 142080, Control_c, 0, 64, 71
1, 142084, Note_off_c, 0, 62, 58
1, 142091, Note_off_c, 0, 47, 63
1, 142095, Control_c, 0, 64, 78
1, 142107, Note_off_c, 0, 55, 62
1, 142109, Control_c, 0, 64, 85
1, 142124, Control_c, 0, 64, 91
1, 142133, Note_off_c, 0, 59, 64
1, 142140, Control_c, 0, 64, 97
1, 142155, Control_c, 0, 64, 109
1, 142167, Note_off_c, 0, 67, 64
1, 142170, Control_c, 0, 64, 127
1, 142171, Note_off_c, 0, 74, 63
1, 142459, Note_on_c, 0, 70, 55
1, 142460, Note_on_c, 0, 73, 58
1, 142463, Note_on_c, 0, 61, 44
1, 142469, Note_on_c, 0, 88, 80
1, 142483, Note_on_c, 0, 67, 39
1, 142495, Note_off_c, 0, 73, 62
1, 142504, Note_off_c, 0, 88, 59
1, 142510, Note_on_c, 0, 76, 9
1, 142536, Note_off_c, 0, 61, 60
1, 142543, Poly_aftertouch_c, 0, 79, 0
1, 142546, Note_off_c, 0, 67, 0
1, 142546, Note_on_c, 0, 67, 21
1, 142557, Note_off_c, 0, 76, 36
1, 142562, Control_c, 0, 64, 91
1, 142577, Control_c, 0, 64, 68
1, 142578, Note_on_c, 0, 86, 68
1, 142581, Note_on_c, 0, 79, 11
1, 142592, Control_c, 0, 64, 45
1, 142593, Note_off_c, 0, 70, 37
1, 142594, Note_on_c, 0, 74, 45
1, 142606, Control_c, 0, 64, 0
1, 142607, Note_on_c, 0, 71, 44
1, 142623, Note_off_c, 0, 86, 0
1, 142623, Note_on_c, 0, 86, 33
1, 142641, Note_on_c, 0, 62, 7
1, 142725, Control_c, 0, 64, 41
1, 142740, Control_c, 0, 64, 56
1, 142755, Control_c, 0, 64, 63
1, 142770, Control_c, 0, 64, 65
1, 142785, Control_c, 0, 64, 66
1, 142799, Control_c, 0, 64, 69
1, 142814, Control_c, 0, 64, 74
1, 142829, Control_c, 0, 64, 81
1, 142844, Control_c, 0, 64, 90
1, 142858, Control_c, 0, 64, 106
1, 142873, Control_c, 0, 64, 127
1, 142922, Note_off_c, 0, 71, 52
1, 142928, Note_off_c, 0, 86, 38
1, 142930, Note_off_c, 0, 62, 41
1, 142968, Note_off_c, 0, 67, 40
1, 143023, Note_off_c, 0, 79, 39
1, 143031, Note_off_c, 0, 74, 42
1, 143358, Note_on_c, 0, 83, 63
1, 143374, Note_on_c, 0, 71, 45
1, 143376, Note_on_c, 0, 79, 28
1, 143408, Note_off_c, 0, 71, 53
1, 143440, Note_off_c, 0, 83, 57
1, 143473, Note_off_c, 0, 79, 39
1, 143548, Control_c, 0, 64, 109
1, 143560, Note_on_c, 0, 48, 52
1, 143562, Note_on_c, 0, 36, 50
1, 143563, Control_c, 0, 64, 94
1, 143569, Note_on_c, 0, 79, 72
1, 143574, Note_on_c, 0, 67, 62
1, 143577, Control_c, 0, 64, 94
1, 143583, Note_on_c, 0, 76, 66
1, 143592, Control_c, 0, 64, 95
1, 143607, Control_c, 0, 64, 108
1, 143622, Control_c, 0, 64, 127
1, 143636, Note_off_c, 0, 76, 61
1, 143648, Note_off_c, 0, 67, 47
1, 143656, Note_off_c, 0, 79, 63
1, 143674, Note_off_c, 0, 36, 51
1, 143731, Note_off_c, 0, 48, 56
1, 143768, Note_on_c, 0, 72, 72
1, 143770, Note_on_c, 0, 76, 76
1, 143776, Note_on_c, 0, 64, 67
1, 143858, Note_off_c, 0, 72, 61
1, 143861, Note_off_c, 0, 64, 57
1, 143862, Note_off_c, 0, 76, 61
1, 143957, Control_c, 0, 64, 87
1, 143965, Note_on_c, 0, 38, 67
1, 143965, Note_on_c, 0, 50, 70
1, 143972, Control_c, 0, 64, 63
1, 143975, Note_on_c, 0, 74, 77
1, 143975, Note_on_c, 0, 71, 70
1, 143980, Note_on_c, 0, 62, 68
1, 143986, Control_c, 0, 64, 46
1, 144001, Control_c, 0, 64, 55
1, 144016, Control_c, 0, 64, 70
1, 144019, Note_off_c, 0, 62, 61
1, 144024, Note_off_c, 0, 38, 61
1, 144031, Note_off_c, 0, 71, 63
1, 144031, Control_c, 0, 64, 94
1, 144039, Note_off_c, 0, 50, 60
1, 144046, Control_c, 0, 64, 127
1, 144048, Note_off_c, 0, 74, 63
1, 144150, Control_c, 0, 64, 78
1, 144157, Note_on_c, 0, 73, 83
1, 144164, Note_on_c, 0, 52, 71
1, 144165, Note_on_c, 0, 40, 67
1, 144165, Note_on_c, 0, 61, 68
1, 144165, Control_c, 0, 64, 62
1, 144168, Note_on_c, 0, 70, 63
1, 144179, Control_c, 0, 64, 58
1, 144194, Control_c, 0, 64, 64
1, 144200, Note_off_c, 0, 40, 62
1, 144209, Control_c, 0, 64, 77
1, 144213, Note_off_c, 0, 52, 59
1, 144224, Control_c, 0, 64, 98
1, 144233, Note_off_c, 0, 70, 63
1, 144238, Control_c, 0, 64, 127
1, 144240, Note_off_c, 0, 61, 60
1, 144248, Note_off_c, 0, 73, 60
1, 144401, Control_c, 0, 64, 94
1, 144416, Control_c, 0, 64, 68
1, 144421, Note_on_c, 0, 51, 43
1, 144422, Note_on_c, 0, 72, 68
1, 144427, Note_on_c, 0, 69, 47
1, 144429, Note_on_c, 0, 60, 51
1, 144430, Control_c, 0, 64, 43
1, 144434, Note_on_c, 0, 54, 49
1, 144436, Note_on_c, 0, 42, 45
1, 144445, Control_c, 0, 64, 0
1, 144588, Control_c, 0, 64, 48
1, 144602, Control_c, 0, 64, 61
1, 144617, Control_c, 0, 64, 67
1, 144632, Control_c, 0, 64, 68
1, 144632, Control_c, 0, 67, 125
1, 144647, Control_c, 0, 64, 70
1, 144661, Control_c, 0, 64, 74
1, 144676, Control_c, 0, 64, 81
1, 144691, Control_c, 0, 64, 88
1, 144706, Control_c, 0, 64, 96
1, 144713, Note_off_c, 0, 69, 58
1, 144721, Control_c, 0, 64, 111
1, 144725, Note_off_c, 0, 72, 54
1, 144735, Control_c, 0, 64, 127
1, 144750, Note_off_c, 0, 54, 57
1, 144768, Note_off_c, 0, 42, 34
1, 144839, Control_c, 0, 67, 127
1, 144850, Note_off_c, 0, 60, 40
1, 145017, Control_c, 0, 64, 79
1, 145031, Note_on_c, 0, 55, 53
1, 145032, Control_c, 0, 64, 66
1, 145037, Note_on_c, 0, 43, 49
1, 145039, Note_on_c, 0, 71, 63
1, 145043, Note_on_c, 0, 59, 53
1, 145047, Control_c, 0, 64, 63
1, 145054, Note_on_c, 0, 67, 41
1, 145061, Control_c, 0, 64, 66
1, 145076, Control_c, 0, 64, 72
1, 145086, Note_off_c, 0, 59, 59
1, 145091, Control_c, 0, 64, 82
1, 145098, Note_off_c, 0, 43, 59
1, 145106, Note_off_c, 0, 67, 54
1, 145106, Control_c, 0, 64, 97
1, 145119, Note_off_c, 0, 55, 62
1, 145121, Control_c, 0, 64, 127
1, 145125, Note_off_c, 0, 71, 54
1, 145127, Note_off_c, 0, 51, 39
1, 145209, Control_c, 0, 64, 98
1, 145224, Control_c, 0, 64, 78
1, 145229, Note_on_c, 0, 69, 66
1, 145237, Note_on_c, 0, 66, 59
1, 145238, Note_on_c, 0, 45, 55
1, 145238, Note_on_c, 0, 57, 58
1, 145239, Control_c, 0, 64, 73
1, 145240, Note_on_c, 0, 60, 56
1, 145253, Control_c, 0, 64, 74
1, 145268, Control_c, 0, 64, 82
1, 145271, Note_off_c, 0, 45, 65
1, 145271, Note_off_c, 0, 60, 62
1, 145274, Note_off_c, 0, 57, 64
1, 145283, Control_c, 0, 64, 97
1, 145303, Note_off_c, 0, 66, 58
1, 145303, Note_off_c, 0, 69, 61
1, 145306, Control_c, 0, 64, 127
1, 145396, Control_c, 0, 64, 99
1, 145411, Control_c, 0, 64, 66
1, 145423, Note_on_c, 0, 67, 60
1, 145425, Note_on_c, 0, 46, 60
1, 145426, Note_on_c, 0, 58, 63
1, 145426, Note_on_c, 0, 64, 56
1, 145426, Control_c, 0, 64, 52
1, 145429, Note_on_c, 0, 61, 59
1, 145441, Control_c, 0, 64, 56
1, 145455, Control_c, 0, 64, 65
1, 145461, Note_off_c, 0, 61, 64
1, 145464, Note_off_c, 0, 58, 62
1, 145466, Note_off_c, 0, 64, 63
1, 145467, Note_off_c, 0, 46, 60
1, 145470, Control_c, 0, 64, 81
1, 145485, Control_c, 0, 64, 116
1, 145488, Note_off_c, 0, 67, 62
1, 145500, Control_c, 0, 64, 127
1, 145604, Control_c, 0, 64, 76
1, 145619, Control_c, 0, 64, 55
1, 145626, Note_on_c, 0, 59, 64
1, 145628, Note_on_c, 0, 66, 59
1, 145631, Note_on_c, 0, 64, 58
1, 145633, Note_on_c, 0, 47, 59
1, 145633, Control_c, 0, 64, 0
1, 145652, Note_off_c, 0, 59, 66
1, 145664, Note_off_c, 0, 47, 66
1, 145666, Note_off_c, 0, 64, 64
1, 145673, Note_off_c, 0, 66, 57
1, 146066, Note_on_c, 0, 71, 58
1, 146068, Note_on_c, 0, 47, 45
1, 146072, Note_on_c, 0, 57, 51
1, 146072, Note_on_c, 0, 66, 49
1, 146073, Note_on_c, 0, 35, 49
1, 146080, Note_on_c, 0, 63, 42
1, 146098, Note_off_c, 0, 66, 62
1, 146102, Note_off_c, 0, 35, 56
1, 146102, Note_off_c, 0, 71, 61
1, 146105, Note_off_c, 0, 57, 53
1, 146105, Note_off_c, 0, 47, 65
1, 146108, Note_off_c, 0, 63, 56
1, 146577, Note_on_c, 0, 40, 33
1, 146579, Note_on_c, 0, 64, 39
1, 146581, Note_on_c, 0, 52, 34
1, 146582, Note_on_c, 0, 55, 37
1, 146585, Note_on_c, 0, 59, 22
1, 146619, Control_c, 0, 64, 37
1, 146633, Control_c, 0, 64, 47
1, 146648, Control_c, 0, 64, 55
1, 146663, Control_c, 0, 64, 61
1, 146678, Control_c, 0, 64, 63
1, 146692, Control_c, 0, 64, 64
1, 146707, Control_c, 0, 64, 65
1, 146722, Control_c, 0, 64, 66
1, 146737, Control_c, 0, 64, 69
1, 146752, Control_c, 0, 64, 72
1, 146767, Control_c, 0, 64, 77
1, 146779, Note_off_c, 0, 55, 54
1, 146781, Control_c, 0, 64, 82
1, 146803, Control_c, 0, 64, 87
1, 146818, Control_c, 0, 64, 92
1, 146833, Control_c, 0, 64, 96
1, 146847, Control_c, 0, 64, 101
1, 146862, Control_c, 0, 64, 108
1, 146877, Control_c, 0, 64, 119
1, 146892, Control_c, 0, 64, 127
1, 146907, Note_off_c, 0, 64, 36
1, 146934, Note_off_c, 0, 59, 41
1, 146949, Note_off_c, 0, 52, 39
1, 147050, Note_off_c, 0, 40, 32
1, 147219, Control_c, 0, 64, 117
1, 147234, Control_c, 0, 64, 109
1, 147248, Control_c, 0, 64, 104
1, 147263, Control_c, 0, 64, 98
1, 147278, Control_c, 0, 64, 92
1, 147293, Control_c, 0, 64, 87
1, 147308, Control_c, 0, 64, 82
1, 147322, Control_c, 0, 64, 80
1, 147337, Control_c, 0, 64, 78
1, 147352, Control_c, 0, 64, 75
1, 147366, Control_c, 0, 64, 71
1, 147381, Control_c, 0, 64, 67
1, 147396, Control_c, 0, 64, 62
1, 147411, Control_c, 0, 64, 58
1, 147426, Control_c, 0, 64, 57
1, 147470, Control_c, 0, 64, 56
1, 147552, Control_c, 0, 64, 55
1, 147567, Control_c, 0, 64, 53
1, 147581, Control_c, 0, 64, 51
1, 147596, Control_c, 0, 64, 49
1, 147611, Control_c, 0, 64, 47
1, 147626, Control_c, 0, 64, 43
1, 147641, Control_c, 0, 64, 35
1, 147655, Control_c, 0, 64, 0
1, 147685, Note_on_c, 0, 67, 50
1, 147694, Note_on_c, 0, 55, 36
1, 147700, Note_on_c, 0, 60, 30
1, 147703, Note_on_c, 0, 64, 44
1, 147703, Note_on_c, 0, 36, 29
1, 147721, Note_on_c, 0, 48, 34
1, 147724, Note_on_c, 0, 43, 35
1, 147746, Control_c, 0, 64, 35
1, 147760, Control_c, 0, 64, 47
1, 147775, Control_c, 0, 64, 58
1, 147790, Control_c, 0, 64, 65
1, 147805, Control_c, 0, 64, 71
1, 147820, Control_c, 0, 64, 73
1, 147834, Control_c, 0, 64, 75
1, 147849, Control_c, 0, 64, 77
1, 147864, Control_c, 0, 64, 80
1, 147879, Control_c, 0, 64, 85
1, 147891, Note_off_c, 0, 67, 57
1, 147894, Control_c, 0, 64, 90
1, 147909, Control_c, 0, 64, 95
1, 147924, Control_c, 0, 64, 100
1, 147938, Control_c, 0, 64, 108
1, 147939, Note_off_c, 0, 55, 61
1, 147953, Control_c, 0, 64, 127
1, 148026, Note_off_c, 0, 60, 41
1, 148131, Control_c, 0, 64, 105
1, 148141, Note_on_c, 0, 66, 74
1, 148144, Note_on_c, 0, 45, 58
1, 148145, Control_c, 0, 64, 74
1, 148156, Note_on_c, 0, 62, 64
1, 148157, Note_off_c, 0, 64, 62
1, 148158, Note_on_c, 0, 54, 47
1, 148160, Control_c, 0, 64, 59
1, 148173, Note_on_c, 0, 60, 40
1, 148175, Control_c, 0, 64, 46
1, 148177, Note_off_c, 0, 43, 41
1, 148189, Control_c, 0, 64, 53
1, 148204, Control_c, 0, 64, 62
1, 148219, Control_c, 0, 64, 70
1, 148234, Control_c, 0, 64, 79
1, 148249, Control_c, 0, 64, 86
1, 148263, Control_c, 0, 64, 89
1, 148278, Control_c, 0, 64, 91
1, 148301, Control_c, 0, 64, 94
1, 148316, Control_c, 0, 64, 98
1, 148331, Control_c, 0, 64, 101
1, 148336, Note_off_c, 0, 66, 53
1, 148344, Note_off_c, 0, 54, 61
1, 148360, Control_c, 0, 64, 104
1, 148368, Note_off_c, 0, 60, 54
1, 148390, Control_c, 0, 64, 108
1, 148404, Control_c, 0, 64, 111
1, 148419, Control_c, 0, 64, 113
1, 148449, Control_c, 0, 64, 115
1, 148464, Control_c, 0, 64, 117
1, 148478, Control_c, 0, 64, 122
1, 148493, Control_c, 0, 64, 127
1, 148583, Control_c, 0, 64, 99
1, 148584, Note_on_c, 0, 43, 61
1, 148591, Note_on_c, 0, 67, 74
1, 148595, Note_on_c, 0, 60, 58
1, 148598, Control_c, 0, 64, 71
1, 148603, Note_on_c, 0, 55, 60
1, 148603, Note_on_c, 0, 64, 60
1, 148608, Note_off_c, 0, 62, 61
1, 148613, Control_c, 0, 64, 49
1, 148627, Control_c, 0, 64, 0
1, 148652, Note_off_c, 0, 45, 53
1, 148687, Control_c, 0, 64, 57
1, 148690, Note_off_c, 0, 60, 62
1, 148702, Control_c, 0, 64, 71
1, 148717, Control_c, 0, 64, 82
1, 148731, Control_c, 0, 64, 90
1, 148739, Note_off_c, 0, 43, 61
1, 148746, Control_c, 0, 64, 92
1, 148752, Note_off_c, 0, 64, 61
1, 148761, Control_c, 0, 64, 94
1, 148776, Control_c, 0, 64, 98
1, 148791, Control_c, 0, 64, 104
1, 148795, Note_off_c, 0, 36, 39
1, 148796, Note_off_c, 0, 67, 50
1, 148799, Note_off_c, 0, 48, 35
1, 148806, Control_c, 0, 64, 111
1, 148820, Control_c, 0, 64, 127
1, 148839, Note_off_c, 0, 55, 60
1, 149056, Note_on_c, 0, 48, 31
1, 149065, Note_on_c, 0, 42, 49
1, 149065, Note_on_c, 0, 60, 66
1, 149071, Note_on_c, 0, 36, 44
1, 149077, Note_on_c, 0, 52, 62
1, 149080, Control_c, 0, 64, 101
1, 149080, Note_on_c, 0, 57, 57
1, 149095, Control_c, 0, 64, 68
1, 149109, Control_c, 0, 64, 36
1, 149124, Control_c, 0, 64, 0
1, 149183, Control_c, 0, 64, 49
1, 149198, Control_c, 0, 64, 64
1, 149213, Control_c, 0, 64, 71
1, 149227, Control_c, 0, 64, 74
1, 149242, Control_c, 0, 64, 75
1, 149256, Note_off_c, 0, 52, 61
1, 149257, Control_c, 0, 64, 76
1, 149272, Control_c, 0, 64, 78
1, 149287, Control_c, 0, 64, 81
1, 149291, Note_off_c, 0, 57, 57
1, 149301, Control_c, 0, 64, 85
1, 149310, Note_off_c, 0, 60, 61
1, 149317, Control_c, 0, 64, 89
1, 149332, Control_c, 0, 64, 93
1, 149347, Control_c, 0, 64, 100
1, 149362, Control_c, 0, 64, 116
1, 149377, Control_c, 0, 64, 127
1, 149558, Note_on_c, 0, 61, 64
1, 149563, Note_on_c, 0, 51, 51
1, 149569, Control_c, 0, 64, 106
1, 149569, Note_on_c, 0, 57, 44
1, 149584, Control_c, 0, 64, 75
1, 149599, Control_c, 0, 64, 60
1, 149614, Control_c, 0, 64, 55
1, 149629, Control_c, 0, 64, 59
1, 149643, Control_c, 0, 64, 64
1, 149650, Note_off_c, 0, 51, 47
1, 149658, Control_c, 0, 64, 69
1, 149673, Control_c, 0, 64, 72
1, 149688, Control_c, 0, 64, 73
1, 149692, Note_off_c, 0, 57, 55
1, 149764, Note_on_c, 0, 50, 56
1, 149769, Note_on_c, 0, 62, 58
1, 149812, Note_off_c, 0, 61, 55
1, 149849, Note_off_c, 0, 50, 59
1, 149962, Control_c, 0, 64, 72
1, 149976, Control_c, 0, 64, 71
1, 149991, Control_c, 0, 64, 67
1, 150006, Control_c, 0, 64, 60
1, 150021, Control_c, 0, 64, 46
1, 150036, Control_c, 0, 64, 0
1, 150038, Note_on_c, 0, 55, 52
1, 150043, Note_off_c, 0, 42, 36
1, 150048, Note_on_c, 0, 52, 51
1, 150051, Note_on_c, 0, 43, 28
1, 150098, Note_off_c, 0, 62, 51
1, 150170, Control_c, 0, 64, 34
1, 150185, Control_c, 0, 64, 54
1, 150199, Control_c, 0, 64, 65
1, 150214, Control_c, 0, 64, 69
1, 150229, Control_c, 0, 64, 69
1, 150259, Control_c, 0, 64, 70
1, 150273, Control_c, 0, 64, 71
1, 150288, Control_c, 0, 64, 73
1, 150303, Control_c, 0, 64, 75
1, 150318, Control_c, 0, 64, 77
1, 150324, Note_off_c, 0, 36, 39
1, 150333, Control_c, 0, 64, 79
1, 150347, Control_c, 0, 64, 81
1, 150362, Control_c, 0, 64, 85
1, 150377, Control_c, 0, 64, 90
1, 150392, Control_c, 0, 64, 98
1, 150407, Control_c, 0, 64, 108
1, 150422, Control_c, 0, 64, 127
1, 150502, Note_off_c, 0, 43, 39
1, 150528, Note_off_c, 0, 48, 0
1, 150528, Note_on_c, 0, 48, 3
1, 150589, Note_off_c, 0, 48, 53
1, 150620, Note_off_c, 0, 55, 38
1, 150723, Note_on_c, 0, 60, 56
1, 150747, Note_off_c, 0, 52, 19
1, 150922, Note_on_c, 0, 65, 74
1, 150935, Note_on_c, 0, 48, 50
1, 150937, Note_on_c, 0, 45, 54
1, 150955, Note_on_c, 0, 53, 30
1, 150973, Note_on_c, 0, 55, 33
1, 151000, Note_off_c, 0, 53, 46
1, 151007, Note_off_c, 0, 55, 51
1, 151017, Note_off_c, 0, 65, 60
1, 151119, Note_on_c, 0, 64, 73
1, 151126, Note_on_c, 0, 43, 57
1, 151130, Note_on_c, 0, 53, 52
1, 151133, Note_on_c, 0, 55, 61
1, 151164, Note_off_c, 0, 45, 53
1, 151164, Note_off_c, 0, 53, 63
1, 151191, Note_off_c, 0, 60, 61
1, 151192, Note_off_c, 0, 55, 60
1, 151228, Note_off_c, 0, 64, 62
1, 151302, Note_on_c, 0, 41, 70
1, 151327, Control_c, 0, 64, 94
1, 151332, Note_off_c, 0, 43, 58
1, 151342, Control_c, 0, 64, 65
1, 151356, Control_c, 0, 64, 0
1, 151360, Note_on_c, 0, 60, 55
1, 151363, Note_on_c, 0, 69, 74
1, 151373, Note_on_c, 0, 57, 61
1, 151401, Control_c, 0, 64, 46
1, 151416, Control_c, 0, 64, 63
1, 151425, Note_off_c, 0, 57, 59
1, 151430, Control_c, 0, 64, 73
1, 151439, Note_off_c, 0, 69, 62
1, 151441, Note_off_c, 0, 60, 56
1, 151445, Control_c, 0, 64, 81
1, 151460, Control_c, 0, 64, 87
1, 151475, Control_c, 0, 64, 89
1, 151490, Control_c, 0, 64, 94
1, 151504, Control_c, 0, 64, 100
1, 151519, Control_c, 0, 64, 109
1, 151534, Control_c, 0, 64, 127
1, 151535, Note_on_c, 0, 50, 63
1, 151542, Note_off_c, 0, 48, 54
1, 151544, Note_on_c, 0, 68, 81
1, 151554, Note_on_c, 0, 56, 69
1, 151559, Note_on_c, 0, 59, 58
1, 151585, Note_off_c, 0, 50, 60
1, 151601, Note_off_c, 0, 41, 60
1, 151634, Note_off_c, 0, 59, 61
1, 151638, Note_off_c, 0, 56, 58
1, 151653, Note_off_c, 0, 68, 56
1, 151743, Note_on_c, 0, 48, 69
1, 151747, Note_on_c, 0, 40, 61
1, 151749, Note_on_c, 0, 67, 82
1, 151757, Control_c, 0, 64, 93
1, 151759, Note_on_c, 0, 55, 68
1, 151760, Note_on_c, 0, 60, 66
1, 151772, Control_c, 0, 64, 62
1, 151787, Control_c, 0, 64, 0
1, 151832, Control_c, 0, 64, 34
1, 151846, Control_c, 0, 64, 56
1, 151861, Control_c, 0, 64, 66
1, 151875, Control_c, 0, 64, 72
1, 151890, Control_c, 0, 64, 78
1, 151905, Control_c, 0, 64, 82
1, 151906, Note_off_c, 0, 55, 59
1, 151919, Control_c, 0, 64, 88
1, 151922, Note_on_c, 0, 64, 55
1, 151928, Note_off_c, 0, 60, 63
1, 151930, Note_off_c, 0, 40, 57
1, 151933, Note_on_c, 0, 36, 65
1, 151934, Control_c, 0, 64, 97
1, 151944, Note_off_c, 0, 67, 59
1, 151948, Note_off_c, 0, 48, 56
1, 151949, Control_c, 0, 64, 117
1, 151954, Note_off_c, 0, 64, 64
1, 151963, Control_c, 0, 64, 127
1, 151966, Note_off_c, 0, 36, 63
1, 152170, Note_on_c, 0, 50, 45
1, 152177, Note_on_c, 0, 55, 57
1, 152188, Note_on_c, 0, 74, 83
1, 152190, Note_on_c, 0, 43, 56
1, 152193, Note_on_c, 0, 71, 78
1, 152193, Control_c, 0, 64, 93
1, 152194, Note_on_c, 0, 67, 59
1, 152195, Note_on_c, 0, 62, 69
1, 152208, Control_c, 0, 64, 59
1, 152223, Control_c, 0, 64, 0
1, 152297, Control_c, 0, 64, 38
1, 152312, Control_c, 0, 64, 58
1, 152326, Control_c, 0, 64, 67
1, 152335, Note_off_c, 0, 74, 63
1, 152341, Control_c, 0, 64, 73
1, 152356, Control_c, 0, 64, 78
1, 152371, Control_c, 0, 64, 84
1, 152386, Control_c, 0, 64, 92
1, 152401, Control_c, 0, 64, 100
1, 152416, Control_c, 0, 64, 111
1, 152430, Note_off_c, 0, 62, 61
1, 152431, Control_c, 0, 64, 127
1, 152484, Note_off_c, 0, 67, 42
1, 152639, Control_c, 0, 64, 103
1, 152643, Note_on_c, 0, 73, 85
1, 152645, Note_on_c, 0, 52, 61
1, 152654, Control_c, 0, 64, 68
1, 152656, Note_on_c, 0, 69, 67
1, 152656, Note_off_c, 0, 50, 59
1, 152660, Note_on_c, 0, 61, 62
1, 152660, Note_on_c, 0, 67, 60
1, 152668, Control_c, 0, 64, 0
1, 152687, Note_off_c, 0, 71, 61
1, 152742, Control_c, 0, 64, 53
1, 152757, Control_c, 0, 64, 65
1, 152772, Control_c, 0, 64, 73
1, 152794, Control_c, 0, 64, 79
1, 152809, Control_c, 0, 64, 82
1, 152824, Control_c, 0, 64, 85
1, 152839, Control_c, 0, 64, 91
1, 152842, Note_off_c, 0, 73, 54
1, 152851, Note_off_c, 0, 61, 50
1, 152854, Control_c, 0, 64, 98
1, 152868, Control_c, 0, 64, 109
1, 152883, Control_c, 0, 64, 127
1, 152918, Note_off_c, 0, 67, 33
1, 153092, Note_on_c, 0, 50, 60
1, 153104, Note_on_c, 0, 67, 56
1, 153105, Note_on_c, 0, 74, 79
1, 153105, Control_c, 0, 64, 99
1, 153107, Note_on_c, 0, 71, 61
1, 153113, Note_on_c, 0, 62, 60
1, 153119, Control_c, 0, 64, 72
1, 153134, Control_c, 0, 64, 51
1, 153144, Note_off_c, 0, 52, 51
1, 153149, Control_c, 0, 64, 0
1, 153177, Note_off_c, 0, 69, 56
1, 153194, Control_c, 0, 64, 42
1, 153209, Control_c, 0, 64, 62
1, 153224, Control_c, 0, 64, 74
1, 153235, Note_off_c, 0, 67, 61
1, 153239, Control_c, 0, 64, 86
1, 153253, Note_off_c, 0, 50, 59
1, 153253, Control_c, 0, 64, 92
1, 153268, Control_c, 0, 64, 94
1, 153269, Note_off_c, 0, 43, 56
1, 153270, Note_off_c, 0, 71, 37
1, 153283, Control_c, 0, 64, 98
1, 153293, Note_off_c, 0, 55, 52
1, 153298, Control_c, 0, 64, 104
1, 153313, Control_c, 0, 64, 120
1, 153328, Control_c, 0, 64, 127
1, 153345, Note_off_c, 0, 62, 55
1, 153450, Note_off_c, 0, 74, 34
1, 153554, Note_on_c, 0, 67, 63
1, 153560, Note_on_c, 0, 55, 50
1, 153561, Note_on_c, 0, 49, 54
1, 153564, Note_on_c, 0, 59, 59
1, 153571, Note_on_c, 0, 64, 54
1, 153573, Control_c, 0, 64, 104
1, 153581, Note_on_c, 0, 43, 43
1, 153588, Control_c, 0, 64, 74
1, 153603, Control_c, 0, 64, 55
1, 153617, Control_c, 0, 64, 0
1, 153677, Control_c, 0, 64, 37
1, 153692, Control_c, 0, 64, 59
1, 153707, Control_c, 0, 64, 68
1, 153716, Note_off_c, 0, 59, 61
1, 153721, Control_c, 0, 64, 73
1, 153736, Control_c, 0, 64, 74
1, 153751, Control_c, 0, 64, 75
1, 153764, Note_off_c, 0, 67, 63
1, 153766, Control_c, 0, 64, 78
1, 153781, Control_c, 0, 64, 84
1, 153795, Note_off_c, 0, 64, 40
1, 153796, Control_c, 0, 64, 89
1, 153810, Control_c, 0, 64, 92
1, 153825, Control_c, 0, 64, 95
1, 153840, Control_c, 0, 64, 102
1, 153855, Control_c, 0, 64, 120
1, 153870, Control_c, 0, 64, 127
1, 154040, Note_on_c, 0, 68, 65
1, 154042, Note_on_c, 0, 58, 51
1, 154043, Note_on_c, 0, 64, 49
1, 154047, Control_c, 0, 64, 98
1, 154061, Control_c, 0, 64, 72
1, 154076, Control_c, 0, 64, 58
1, 154091, Control_c, 0, 64, 54
1, 154106, Control_c, 0, 64, 60
1, 154122, Control_c, 0, 64, 66
1, 154137, Control_c, 0, 64, 72
1, 154143, Note_off_c, 0, 58, 48
1, 154152, Control_c, 0, 64, 77
1, 154166, Control_c, 0, 64, 79
1, 154219, Note_off_c, 0, 64, 36
1, 154242, Note_on_c, 0, 57, 63
1, 154251, Note_on_c, 0, 69, 61
1, 154295, Note_off_c, 0, 68, 59
1, 154297, Note_off_c, 0, 57, 50
1, 154485, Control_c, 0, 64, 78
1, 154500, Control_c, 0, 64, 74
1, 154514, Note_on_c, 0, 50, 44
1, 154514, Control_c, 0, 64, 65
1, 154521, Note_on_c, 0, 59, 48
1, 154521, Note_on_c, 0, 62, 52
1, 154529, Control_c, 0, 64, 49
1, 154544, Note_off_c, 0, 49, 37
1, 154544, Control_c, 0, 64, 0
1, 154553, Note_off_c, 0, 69, 40
1, 154634, Control_c, 0, 64, 37
1, 154648, Control_c, 0, 64, 53
1, 154663, Control_c, 0, 64, 62
1, 154678, Control_c, 0, 64, 67
1, 154692, Control_c, 0, 64, 70
1, 154707, Control_c, 0, 64, 73
1, 154722, Control_c, 0, 64, 75
1, 154737, Control_c, 0, 64, 77
1, 154752, Control_c, 0, 64, 78
1, 154766, Control_c, 0, 64, 81
1, 154781, Control_c, 0, 64, 85
1, 154796, Control_c, 0, 64, 92
1, 154811, Control_c, 0, 64, 101
1, 154826, Control_c, 0, 64, 112
1, 154840, Control_c, 0, 64, 127
1, 154849, Note_off_c, 0, 43, 38
1, 154916, Note_off_c, 0, 50, 59
1, 154925, Note_off_c, 0, 59, 21
1, 155009, Note_off_c, 0, 55, 36
1, 155160, Control_c, 0, 67, 125
1, 155161, Note_on_c, 0, 67, 54
1, 155175, Control_c, 0, 67, 122
1, 155189, Control_c, 0, 67, 120
1, 155192, Note_off_c, 0, 62, 27
1, 155219, Control_c, 0, 67, 116
1, 155234, Control_c, 0, 67, 114
1, 155249, Control_c, 0, 67, 110
1, 155263, Control_c, 0, 67, 104
1, 155278, Control_c, 0, 67, 99
1, 155293, Control_c, 0, 67, 95
1, 155308, Control_c, 0, 67, 93
1, 155322, Control_c, 0, 67, 90
1, 155337, Control_c, 0, 67, 88
1, 155352, Control_c, 0, 67, 87
1, 155367, Control_c, 0, 67, 85
1, 155370, Note_on_c, 0, 52, 49
1, 155370, Note_on_c, 0, 72, 70
1, 155373, Note_on_c, 0, 60, 61
1, 155376, Note_on_c, 0, 55, 50
1, 155382, Control_c, 0, 67, 84
1, 155397, Control_c, 0, 67, 83
1, 155412, Note_off_c, 0, 60, 60
1, 155412, Control_c, 0, 67, 81
1, 155427, Control_c, 0, 67, 78
1, 155441, Control_c, 0, 67, 75
1, 155450, Note_off_c, 0, 72, 60
1, 155456, Control_c, 0, 67, 72
1, 155471, Control_c, 0, 67, 69
1, 155486, Control_c, 0, 67, 66
1, 155501, Control_c, 0, 67, 63
1, 155515, Control_c, 0, 67, 61
1, 155530, Control_c, 0, 67, 58
1, 155545, Control_c, 0, 67, 56
1, 155560, Control_c, 0, 67, 53
1, 155565, Note_on_c, 0, 50, 62
1, 155567, Note_on_c, 0, 71, 77
1, 155572, Note_on_c, 0, 62, 70
1, 155575, Control_c, 0, 67, 50
1, 155582, Note_off_c, 0, 52, 52
1, 155589, Control_c, 0, 67, 47
1, 155604, Control_c, 0, 67, 43
1, 155619, Control_c, 0, 67, 38
1, 155628, Note_off_c, 0, 67, 58
1, 155631, Note_off_c, 0, 62, 59
1, 155634, Control_c, 0, 67, 29
1, 155649, Control_c, 0, 67, 20
1, 155650, Note_off_c, 0, 71, 64
1, 155663, Control_c, 0, 67, 0
1, 155753, Note_on_c, 0, 48, 71
1, 155768, Control_c, 0, 64, 73
1, 155790, Control_c, 0, 64, 37
1, 155793, Note_on_c, 0, 76, 81
1, 155795, Note_on_c, 0, 67, 55
1, 155805, Control_c, 0, 64, 0
1, 155807, Note_on_c, 0, 64, 63
1, 155808, Note_off_c, 0, 50, 59
1, 155850, Control_c, 0, 64, 46
1, 155865, Control_c, 0, 64, 65
1, 155868, Note_off_c, 0, 67, 62
1, 155877, Note_off_c, 0, 64, 61
1, 155878, Note_off_c, 0, 76, 64
1, 155880, Control_c, 0, 64, 76
1, 155894, Control_c, 0, 64, 83
1, 155909, Control_c, 0, 64, 86
1, 155924, Control_c, 0, 64, 88
1, 155938, Control_c, 0, 64, 92
1, 155953, Control_c, 0, 64, 97
1, 155968, Control_c, 0, 64, 108
1, 155976, Note_on_c, 0, 75, 81
1, 155983, Control_c, 0, 64, 127
1, 155987, Note_on_c, 0, 57, 62
1, 155990, Note_on_c, 0, 66, 69
1, 155991, Note_on_c, 0, 63, 67
1, 156005, Note_off_c, 0, 55, 59
1, 156020, Note_off_c, 0, 57, 62
1, 156053, Note_off_c, 0, 48, 61
1, 156057, Note_off_c, 0, 66, 61
1, 156069, Note_off_c, 0, 63, 56
1, 156088, Note_off_c, 0, 75, 60
1, 156187, Note_on_c, 0, 55, 78
1, 156187, Note_on_c, 0, 74, 87
1, 156196, Note_on_c, 0, 47, 70
1, 156196, Note_on_c, 0, 62, 74
1, 156197, Note_on_c, 0, 65, 76
1, 156205, Control_c, 0, 64, 77
1, 156219, Control_c, 0, 64, 54
1, 156234, Control_c, 0, 64, 0
1, 156264, Control_c, 0, 64, 45
1, 156279, Control_c, 0, 64, 65
1, 156294, Control_c, 0, 64, 78
1, 156309, Control_c, 0, 64, 94
1, 156324, Control_c, 0, 64, 114
1, 156338, Control_c, 0, 64, 127
1, 156380, Note_on_c, 0, 68, 72
1, 156387, Note_on_c, 0, 43, 73
1, 156389, Note_off_c, 0, 55, 60
1, 156392, Note_off_c, 0, 65, 60
1, 156393, Note_off_c, 0, 62, 55
1, 156395, Note_off_c, 0, 47, 63
1, 156404, Note_off_c, 0, 74, 57
1, 156416, Note_off_c, 0, 68, 62
1, 156419, Note_off_c, 0, 43, 67
1, 156619, Note_on_c, 0, 48, 79
1, 156622, Note_on_c, 0, 36, 75
1, 156658, Control_c, 0, 64, 75
1, 156668, Note_on_c, 0, 79, 89
1, 156673, Control_c, 0, 64, 0
1, 156676, Note_on_c, 0, 75, 76
1, 156677, Note_on_c, 0, 67, 72
1, 156685, Note_on_c, 0, 72, 71
1, 156732, Control_c, 0, 64, 42
1, 156747, Control_c, 0, 64, 59
1, 156761, Control_c, 0, 64, 67
1, 156769, Note_off_c, 0, 36, 63
1, 156776, Control_c, 0, 64, 74
1, 156791, Control_c, 0, 64, 81
1, 156806, Control_c, 0, 64, 87
1, 156814, Note_off_c, 0, 48, 64
1, 156821, Note_off_c, 0, 79, 64
1, 156821, Control_c, 0, 64, 98
1, 156828, Note_off_c, 0, 67, 62
1, 156835, Control_c, 0, 64, 127
1, 156852, Note_off_c, 0, 72, 57
1, 156876, Note_off_c, 0, 75, 61
1, 157099, Note_on_c, 0, 56, 64
1, 157101, Note_on_c, 0, 78, 88
1, 157105, Note_on_c, 0, 60, 72
1, 157108, Note_on_c, 0, 66, 76
1, 157110, Note_on_c, 0, 75, 72
1, 157114, Note_on_c, 0, 48, 57
1, 157114, Note_on_c, 0, 72, 70
1, 157117, Control_c, 0, 64, 99
1, 157132, Control_c, 0, 64, 66
1, 157147, Control_c, 0, 64, 0
1, 157206, Control_c, 0, 64, 53
1, 157221, Control_c, 0, 64, 65
1, 157235, Control_c, 0, 64, 73
1, 157235, Control_c, 0, 67, 20
1, 157250, Control_c, 0, 64, 81
1, 157250, Control_c, 0, 67, 24
1, 157265, Control_c, 0, 64, 87
1, 157265, Control_c, 0, 67, 26
1, 157273, Note_off_c, 0, 66, 49
1, 157287, Control_c, 0, 64, 92
1, 157291, Note_off_c, 0, 56, 54
1, 157298, Note_off_c, 0, 78, 53
1, 157302, Control_c, 0, 64, 100
1, 157317, Control_c, 0, 64, 112
1, 157332, Control_c, 0, 64, 127
1, 157436, Control_c, 0, 67, 29
1, 157465, Control_c, 0, 67, 32
1, 157480, Control_c, 0, 67, 33
1, 157510, Control_c, 0, 67, 33
1, 157525, Control_c, 0, 67, 35
1, 157540, Control_c, 0, 67, 40
1, 157554, Note_on_c, 0, 55, 60
1, 157555, Control_c, 0, 67, 45
1, 157558, Note_on_c, 0, 79, 84
1, 157567, Note_on_c, 0, 67, 70
1, 157570, Control_c, 0, 64, 86
1, 157570, Control_c, 0, 67, 46
1, 157584, Control_c, 0, 64, 63
1, 157599, Control_c, 0, 64, 0
1, 157599, Control_c, 0, 67, 47
1, 157614, Control_c, 0, 67, 48
1, 157629, Control_c, 0, 67, 49
1, 157644, Control_c, 0, 67, 53
1, 157658, Control_c, 0, 64, 56
1, 157658, Control_c, 0, 67, 57
1, 157672, Note_off_c, 0, 67, 64
1, 157673, Control_c, 0, 64, 68
1, 157673, Control_c, 0, 67, 60
1, 157683, Note_off_c, 0, 79, 62
1, 157684, Note_off_c, 0, 60, 56
1, 157688, Control_c, 0, 64, 79
1, 157688, Control_c, 0, 67, 62
1, 157702, Control_c, 0, 64, 88
1, 157702, Control_c, 0, 67, 66
1, 157708, Note_off_c, 0, 55, 62
1, 157713, Note_off_c, 0, 72, 61
1, 157717, Control_c, 0, 64, 92
1, 157717, Control_c, 0, 67, 70
1, 157724, Note_off_c, 0, 75, 61
1, 157732, Control_c, 0, 64, 94
1, 157732, Control_c, 0, 67, 73
1, 157744, Note_off_c, 0, 48, 52
1, 157747, Control_c, 0, 64, 97
1, 157762, Control_c, 0, 64, 100
1, 157777, Control_c, 0, 64, 103
1, 157791, Control_c, 0, 64, 108
1, 157791, Control_c, 0, 67, 74
1, 157806, Control_c, 0, 64, 119
1, 157821, Control_c, 0, 64, 127
1, 157821, Control_c, 0, 67, 74
1, 157850, Control_c, 0, 67, 75
1, 157865, Control_c, 0, 67, 75
1, 157880, Control_c, 0, 67, 77
1, 157895, Control_c, 0, 67, 79
1, 157984, Control_c, 0, 67, 80
1, 158050, Control_c, 0, 67, 80
1, 158056, Note_on_c, 0, 57, 54
1, 158062, Note_on_c, 0, 72, 73
1, 158063, Note_on_c, 0, 48, 50
1, 158065, Control_c, 0, 64, 90
1, 158065, Control_c, 0, 67, 81
1, 158066, Note_on_c, 0, 54, 45
1, 158072, Note_on_c, 0, 60, 56
1, 158080, Control_c, 0, 64, 69
1, 158080, Control_c, 0, 67, 84
1, 158095, Control_c, 0, 64, 47
1, 158095, Control_c, 0, 67, 88
1, 158111, Control_c, 0, 64, 0
1, 158111, Control_c, 0, 67, 91
1, 158140, Control_c, 0, 67, 91
1, 158155, Control_c, 0, 67, 92
1, 158170, Control_c, 0, 67, 96
1, 158185, Control_c, 0, 64, 53
1, 158185, Control_c, 0, 67, 100
1, 158200, Control_c, 0, 64, 65
1, 158214, Control_c, 0, 64, 72
1, 158214, Control_c, 0, 67, 102
1, 158229, Control_c, 0, 64, 77
1, 158244, Control_c, 0, 64, 80
1, 158251, Note_off_c, 0, 60, 58
1, 158259, Control_c, 0, 64, 83
1, 158267, Note_off_c, 0, 72, 59
1, 158274, Control_c, 0, 64, 85
1, 158288, Control_c, 0, 64, 86
1, 158303, Control_c, 0, 64, 88
1, 158318, Control_c, 0, 64, 90
1, 158333, Control_c, 0, 64, 93
1, 158348, Control_c, 0, 64, 97
1, 158363, Control_c, 0, 64, 103
1, 158378, Control_c, 0, 64, 109
1, 158393, Control_c, 0, 64, 115
1, 158407, Control_c, 0, 64, 122
1, 158422, Control_c, 0, 64, 127
1, 158599, Control_c, 0, 64, 84
1, 158615, Control_c, 0, 64, 65
1, 158622, Note_on_c, 0, 75, 61
1, 158630, Control_c, 0, 64, 48
1, 158631, Note_on_c, 0, 63, 55
1, 158645, Control_c, 0, 64, 41
1, 158645, Control_c, 0, 67, 104
1, 158659, Control_c, 0, 64, 54
1, 158674, Control_c, 0, 64, 64
1, 158674, Control_c, 0, 67, 106
1, 158689, Control_c, 0, 64, 71
1, 158704, Control_c, 0, 64, 79
1, 158704, Control_c, 0, 67, 108
1, 158719, Control_c, 0, 64, 84
1, 158719, Control_c, 0, 67, 110
1, 158733, Control_c, 0, 64, 89
1, 158733, Control_c, 0, 67, 113
1, 158735, Note_off_c, 0, 75, 61
1, 158744, Note_off_c, 0, 63, 61
1, 158748, Control_c, 0, 64, 95
1, 158748, Control_c, 0, 67, 115
1, 158763, Control_c, 0, 64, 104
1, 158786, Control_c, 0, 64, 106
1, 158815, Control_c, 0, 64, 97
1, 158815, Control_c, 0, 67, 117
1, 158830, Control_c, 0, 64, 84
1, 158845, Control_c, 0, 64, 77
1, 158859, Control_c, 0, 64, 77
1, 158869, Note_on_c, 0, 73, 73
1, 158874, Control_c, 0, 64, 78
1, 158880, Note_off_c, 0, 54, 53
1, 158884, Note_on_c, 0, 61, 57
1, 158889, Control_c, 0, 64, 81
1, 158904, Control_c, 0, 64, 83
1, 158920, Control_c, 0, 64, 84
1, 158928, Note_off_c, 0, 61, 60
1, 158935, Note_off_c, 0, 73, 61
1, 158950, Control_c, 0, 64, 85
1, 158964, Control_c, 0, 64, 86
1, 158964, Control_c, 0, 67, 120
1, 158979, Control_c, 0, 64, 87
1, 159009, Control_c, 0, 67, 122
1, 159068, Control_c, 0, 67, 125
1, 159082, Control_c, 0, 67, 127
1, 159112, Control_c, 0, 64, 86
1, 159126, Note_on_c, 0, 53, 45
1, 159127, Control_c, 0, 64, 82
1, 159142, Control_c, 0, 64, 76
1, 159156, Control_c, 0, 64, 67
1, 159168, Note_off_c, 0, 57, 46
1, 159171, Control_c, 0, 64, 56
1, 159185, Note_on_c, 0, 68, 62
1, 159186, Control_c, 0, 64, 0
1, 159198, Note_on_c, 0, 56, 50
1, 159275, Control_c, 0, 64, 46
1, 159290, Control_c, 0, 64, 64
1, 159305, Control_c, 0, 64, 73
1, 159319, Note_off_c, 0, 56, 54
1, 159320, Control_c, 0, 64, 82
1, 159323, Note_off_c, 0, 53, 63
1, 159323, Note_off_c, 0, 48, 63
1, 159334, Control_c, 0, 64, 88
1, 159349, Control_c, 0, 64, 92
1, 159364, Control_c, 0, 64, 94
1, 159482, Control_c, 0, 64, 91
1, 159497, Control_c, 0, 64, 86
1, 159512, Control_c, 0, 64, 80
1, 159534, Control_c, 0, 64, 75
1, 159549, Control_c, 0, 64, 72
1, 159564, Control_c, 0, 64, 70
1, 159579, Control_c, 0, 64, 68
1, 159594, Control_c, 0, 64, 64
1, 159603, Note_on_c, 0, 41, 17
1, 159608, Control_c, 0, 64, 59
1, 159623, Control_c, 0, 64, 49
1, 159630, Note_on_c, 0, 44, 55
1, 159638, Control_c, 0, 64, 0
1, 159654, Note_off_c, 0, 41, 45
1, 159694, Note_off_c, 0, 44, 60
1, 159730, Note_on_c, 0, 53, 43
1, 159744, Note_on_c, 0, 56, 46
1, 159814, Note_off_c, 0, 56, 53
1, 159838, Note_on_c, 0, 65, 48
1, 159851, Note_off_c, 0, 53, 52
1, 159935, Control_c, 0, 64, 49
1, 159950, Control_c, 0, 64, 61
1, 159953, Note_off_c, 0, 65, 59
1, 159958, Note_off_c, 0, 68, 56
1, 159965, Control_c, 0, 64, 66
1, 159979, Control_c, 0, 64, 70
1, 159994, Control_c, 0, 64, 75
1, 160009, Control_c, 0, 64, 80
1, 160024, Control_c, 0, 64, 83
1, 160038, Control_c, 0, 64, 85
1, 160053, Control_c, 0, 64, 91
1, 160068, Control_c, 0, 64, 100
1, 160083, Control_c, 0, 64, 117
1, 160098, Control_c, 0, 64, 127
1, 160223, Note_on_c, 0, 80, 60
1, 160230, Control_c, 0, 64, 90
1, 160244, Note_on_c, 0, 68, 38
1, 160245, Control_c, 0, 64, 69
1, 160245, Control_c, 0, 67, 125
1, 160260, Control_c, 0, 64, 57
1, 160260, Control_c, 0, 67, 121
1, 160282, Control_c, 0, 64, 46
1, 160282, Control_c, 0, 67, 116
1, 160297, Control_c, 0, 64, 50
1, 160297, Control_c, 0, 67, 110
1, 160312, Control_c, 0, 64, 59
1, 160312, Control_c, 0, 67, 105
1, 160327, Control_c, 0, 64, 66
1, 160329, Note_off_c, 0, 68, 42
1, 160342, Control_c, 0, 64, 72
1, 160357, Control_c, 0, 64, 77
1, 160357, Control_c, 0, 67, 103
1, 160372, Control_c, 0, 64, 79
1, 160386, Control_c, 0, 64, 80
1, 160386, Control_c, 0, 67, 99
1, 160401, Control_c, 0, 64, 82
1, 160401, Control_c, 0, 67, 93
1, 160416, Control_c, 0, 64, 86
1, 160416, Control_c, 0, 67, 88
1, 160430, Control_c, 0, 64, 92
1, 160430, Control_c, 0, 67, 87
1, 160445, Control_c, 0, 64, 101
1, 160445, Control_c, 0, 67, 85
1, 160460, Control_c, 0, 64, 112
1, 160460, Control_c, 0, 67, 83
1, 160473, Note_on_c, 0, 78, 72
1, 160475, Control_c, 0, 64, 127
1, 160475, Control_c, 0, 67, 80
1, 160486, Note_on_c, 0, 66, 64
1, 160490, Control_c, 0, 67, 78
1, 160499, Note_off_c, 0, 80, 61
1, 160506, Control_c, 0, 67, 76
1, 160521, Control_c, 0, 67, 75
1, 160550, Control_c, 0, 67, 74
1, 160565, Control_c, 0, 67, 72
1, 160566, Note_off_c, 0, 66, 60
1, 160580, Control_c, 0, 67, 69
1, 160583, Note_off_c, 0, 78, 62
1, 160595, Control_c, 0, 67, 65
1, 160609, Control_c, 0, 67, 64
1, 160624, Control_c, 0, 67, 63
1, 160639, Control_c, 0, 67, 62
1, 160653, Control_c, 0, 67, 58
1, 160668, Control_c, 0, 67, 52
1, 160676, Note_on_c, 0, 77, 74
1, 160682, Note_on_c, 0, 65, 72
1, 160683, Control_c, 0, 67, 47
1, 160698, Control_c, 0, 67, 44
1, 160713, Control_c, 0, 67, 42
1, 160721, Note_off_c, 0, 65, 60
1, 160727, Control_c, 0, 67, 40
1, 160735, Note_off_c, 0, 77, 62
1, 160742, Control_c, 0, 67, 37
1, 160757, Control_c, 0, 67, 33
1, 160772, Control_c, 0, 67, 29
1, 160861, Control_c, 0, 64, 122
1, 160875, Note_on_c, 0, 34, 62
1, 160876, Control_c, 0, 64, 78
1, 160881, Note_on_c, 0, 46, 60
1, 160881, Note_on_c, 0, 76, 80
1, 160888, Note_on_c, 0, 64, 57
1, 160891, Control_c, 0, 64, 62
1, 160905, Control_c, 0, 64, 47
1, 160920, Control_c, 0, 64, 51
1, 160931, Note_off_c, 0, 64, 58
1, 160935, Control_c, 0, 64, 61
1, 160950, Control_c, 0, 64, 71
1, 160965, Control_c, 0, 64, 81
1, 160972, Note_off_c, 0, 34, 61
1, 160980, Control_c, 0, 64, 89
1, 160995, Control_c, 0, 64, 91
1, 161008, Note_off_c, 0, 46, 62
1, 161009, Control_c, 0, 64, 94
1, 161031, Control_c, 0, 64, 98
1, 161046, Control_c, 0, 64, 106
1, 161060, Control_c, 0, 64, 127
1, 161084, Note_off_c, 0, 76, 63
1, 161084, Note_on_c, 0, 75, 80
1, 161091, Note_on_c, 0, 63, 76
1, 161125, Note_off_c, 0, 63, 59
1, 161138, Note_off_c, 0, 75, 63
1, 161257, Note_on_c, 0, 46, 56
1, 161286, Note_on_c, 0, 58, 61
1, 161314, Control_c, 0, 64, 93
1, 161329, Control_c, 0, 64, 69
1, 161335, Note_on_c, 0, 71, 77
1, 161344, Control_c, 0, 64, 47
1, 161347, Note_on_c, 0, 62, 66
1, 161358, Control_c, 0, 64, 0
1, 161418, Control_c, 0, 64, 49
1, 161432, Control_c, 0, 64, 64
1, 161439, Note_off_c, 0, 46, 58
1, 161447, Control_c, 0, 64, 72
1, 161462, Control_c, 0, 64, 75
1, 161476, Control_c, 0, 64, 75
1, 161491, Control_c, 0, 64, 76
1, 161506, Control_c, 0, 64, 76
1, 161518, Note_off_c, 0, 62, 55
1, 161522, Note_off_c, 0, 58, 64
1, 161532, Note_on_c, 0, 63, 55
1, 161536, Control_c, 0, 64, 77
1, 161540, Note_on_c, 0, 60, 51
1, 161550, Control_c, 0, 64, 79
1, 161565, Control_c, 0, 64, 81
1, 161580, Control_c, 0, 64, 83
1, 161595, Control_c, 0, 64, 87
1, 161609, Control_c, 0, 64, 92
1, 161624, Control_c, 0, 64, 98
1, 161639, Control_c, 0, 64, 103
1, 161654, Control_c, 0, 64, 105
1, 161695, Note_off_c, 0, 63, 61
1, 161698, Control_c, 0, 64, 99
1, 161713, Control_c, 0, 64, 96
1, 161718, Note_off_c, 0, 60, 61
1, 161720, Note_on_c, 0, 61, 61
1, 161722, Note_on_c, 0, 64, 52
1, 161728, Control_c, 0, 64, 95
1, 161795, Control_c, 0, 64, 96
1, 161824, Control_c, 0, 64, 100
1, 161839, Control_c, 0, 64, 103
1, 161854, Control_c, 0, 64, 105
1, 161873, Note_off_c, 0, 64, 59
1, 161883, Control_c, 0, 64, 102
1, 161898, Control_c, 0, 64, 88
1, 161899, Note_off_c, 0, 71, 62
1, 161907, Note_on_c, 0, 65, 66
1, 161909, Note_on_c, 0, 62, 66
1, 161909, Note_on_c, 0, 70, 79
1, 161910, Note_off_c, 0, 61, 52
1, 161913, Control_c, 0, 64, 77
1, 161928, Control_c, 0, 64, 71
1, 161943, Control_c, 0, 64, 72
1, 161958, Control_c, 0, 64, 74
1, 161973, Control_c, 0, 64, 77
1, 161987, Control_c, 0, 64, 79
1, 162002, Control_c, 0, 64, 80
1, 162017, Control_c, 0, 64, 82
1, 162032, Control_c, 0, 64, 85
1, 162047, Control_c, 0, 64, 89
1, 162062, Control_c, 0, 64, 92
1, 162075, Note_off_c, 0, 65, 36
1, 162076, Control_c, 0, 64, 92
1, 162091, Control_c, 0, 64, 92
1, 162097, Note_off_c, 0, 62, 37
1, 162103, Note_on_c, 0, 58, 65
1, 162103, Note_on_c, 0, 61, 67
1, 162107, Control_c, 0, 64, 85
1, 162110, Note_on_c, 0, 64, 70
1, 162110, Note_off_c, 0, 70, 62
1, 162111, Note_on_c, 0, 69, 75
1, 162122, Control_c, 0, 64, 73
1, 162137, Control_c, 0, 64, 61
1, 162151, Control_c, 0, 64, 49
1, 162166, Control_c, 0, 64, 54
1, 162181, Control_c, 0, 64, 63
1, 162196, Control_c, 0, 64, 71
1, 162211, Control_c, 0, 64, 78
1, 162225, Control_c, 0, 64, 82
1, 162240, Control_c, 0, 64, 84
1, 162255, Control_c, 0, 64, 87
1, 162265, Note_off_c, 0, 64, 36
1, 162270, Control_c, 0, 64, 94
1, 162271, Note_off_c, 0, 58, 60
1, 162285, Control_c, 0, 64, 108
1, 162295, Note_off_c, 0, 61, 59
1, 162298, Note_on_c, 0, 62, 69
1, 162298, Note_on_c, 0, 65, 69
1, 162299, Note_on_c, 0, 68, 83
1, 162299, Control_c, 0, 64, 127
1, 162327, Note_off_c, 0, 62, 65
1, 162328, Note_off_c, 0, 69, 62
1, 162329, Control_c, 0, 67, 27
1, 162330, Note_off_c, 0, 65, 66
1, 162357, Note_off_c, 0, 68, 63
1, 162503, Note_on_c, 0, 39, 77
1, 162506, Note_on_c, 0, 51, 75
1, 162543, Control_c, 0, 64, 87
1, 162558, Control_c, 0, 64, 64
1, 162572, Note_on_c, 0, 79, 90
1, 162573, Control_c, 0, 64, 0
1, 162585, Note_on_c, 0, 67, 64
1, 162587, Note_on_c, 0, 75, 68
1, 162610, Note_off_c, 0, 39, 62
1, 162617, Control_c, 0, 64, 54
1, 162631, Control_c, 0, 64, 70
1, 162640, Note_off_c, 0, 51, 63
1, 162646, Control_c, 0, 64, 89
1, 162661, Control_c, 0, 64, 107
1, 162676, Control_c, 0, 64, 112
1, 162691, Control_c, 0, 64, 127
1, 162748, Note_off_c, 0, 67, 60
1, 162757, Note_off_c, 0, 75, 63
1, 162813, Note_on_c, 0, 65, 72
1, 162822, Note_on_c, 0, 53, 49
1, 162878, Note_off_c, 0, 53, 58
1, 162882, Note_off_c, 0, 65, 61
1, 162985, Note_on_c, 0, 80, 95
1, 162994, Note_on_c, 0, 64, 79
1, 162994, Note_off_c, 0, 79, 63
1, 162995, Note_on_c, 0, 77, 76
1, 162995, Note_on_c, 0, 68, 84
1, 163001, Note_on_c, 0, 52, 71
1, 163003, Control_c, 0, 64, 84
1, 163018, Control_c, 0, 64, 66
1, 163033, Control_c, 0, 64, 61
1, 163047, Control_c, 0, 64, 66
1, 163050, Note_off_c, 0, 64, 63
1, 163058, Note_off_c, 0, 52, 62
1, 163062, Control_c, 0, 64, 74
1, 163077, Control_c, 0, 64, 91
1, 163092, Control_c, 0, 64, 127
1, 163111, Note_off_c, 0, 68, 60
1, 163168, Note_on_c, 0, 63, 84
1, 163178, Note_on_c, 0, 51, 72
1, 163212, Note_off_c, 0, 77, 59
1, 163248, Note_off_c, 0, 51, 61
1, 163248, Note_off_c, 0, 63, 59
1, 163374, Note_on_c, 0, 62, 81
1, 163375, Note_on_c, 0, 50, 79
1, 163380, Note_on_c, 0, 82, 92
1, 163383, Note_on_c, 0, 79, 85
1, 163390, Note_on_c, 0, 70, 80
1, 163396, Control_c, 0, 64, 74
1, 163399, Note_off_c, 0, 80, 61
1, 163411, Control_c, 0, 64, 55
1, 163426, Control_c, 0, 64, 46
1, 163441, Control_c, 0, 64, 58
1, 163445, Note_off_c, 0, 62, 62
1, 163455, Note_off_c, 0, 50, 62
1, 163455, Control_c, 0, 64, 67
1, 163470, Control_c, 0, 64, 80
1, 163485, Control_c, 0, 64, 102
1, 163500, Control_c, 0, 64, 127
1, 163500, Control_c, 0, 67, 30
1, 163521, Note_off_c, 0, 79, 63
1, 163529, Control_c, 0, 67, 32
1, 163534, Note_off_c, 0, 82, 64
1, 163578, Note_on_c, 0, 61, 79
1, 163588, Note_off_c, 0, 70, 63
1, 163588, Control_c, 0, 67, 32
1, 163589, Note_on_c, 0, 49, 68
1, 163621, Note_off_c, 0, 49, 61
1, 163638, Note_off_c, 0, 61, 59
1, 163678, Control_c, 0, 67, 32
1, 163798, Note_on_c, 0, 57, 80
1, 163802, Note_on_c, 0, 45, 76
1, 163803, Note_on_c, 0, 75, 85
1, 163812, Control_c, 0, 64, 93
1, 163812, Note_on_c, 0, 63, 67
1, 163815, Note_on_c, 0, 66, 69
1, 163827, Control_c, 0, 64, 64
1, 163842, Control_c, 0, 64, 0
1, 163871, Control_c, 0, 67, 32
1, 163886, Control_c, 0, 67, 33
1, 163889, Note_off_c, 0, 57, 64
1, 163892, Note_off_c, 0, 45, 63
1, 163901, Control_c, 0, 64, 61
1, 163916, Control_c, 0, 64, 77
1, 163916, Control_c, 0, 67, 33
1, 163931, Control_c, 0, 64, 113
1, 163931, Control_c, 0, 67, 34
1, 163946, Control_c, 0, 64, 127
1, 163946, Control_c, 0, 67, 36
1, 163961, Control_c, 0, 67, 37
1, 164037, Note_on_c, 0, 58, 70
1, 164042, Control_c, 0, 67, 38
1, 164044, Note_on_c, 0, 46, 66
1, 164057, Control_c, 0, 67, 39
1, 164083, Note_off_c, 0, 63, 59
1, 164116, Control_c, 0, 67, 39
1, 164117, Note_off_c, 0, 66, 52
1, 164118, Note_off_c, 0, 75, 59
1, 164118, Note_off_c, 0, 58, 60
1, 164128, Note_off_c, 0, 46, 60
1, 164131, Control_c, 0, 67, 41
1, 164146, Control_c, 0, 67, 44
1, 164161, Control_c, 0, 67, 45
1, 164205, Control_c, 0, 67, 46
1, 164220, Control_c, 0, 67, 47
1, 164235, Control_c, 0, 67, 47
1, 164250, Control_c, 0, 67, 48
1, 164294, Control_c, 0, 67, 49
1, 164309, Control_c, 0, 67, 53
1, 164324, Control_c, 0, 67, 60
1, 164339, Control_c, 0, 67, 66
1, 164353, Control_c, 0, 64, 106
1, 164353, Control_c, 0, 67, 73
1, 164356, Note_on_c, 0, 59, 50
1, 164366, Note_on_c, 0, 55, 47
1, 164368, Control_c, 0, 64, 78
1, 164368, Control_c, 0, 67, 83
1, 164369, Note_on_c, 0, 74, 70
1, 164370, Note_on_c, 0, 47, 45
1, 164378, Note_on_c, 0, 67, 54
1, 164378, Note_on_c, 0, 62, 59
1, 164383, Control_c, 0, 64, 59
1, 164383, Control_c, 0, 67, 96
1, 164397, Control_c, 0, 64, 0
1, 164397, Control_c, 0, 67, 105
1, 164412, Control_c, 0, 67, 109
1, 164442, Control_c, 0, 67, 111
1, 164457, Control_c, 0, 67, 114
1, 164471, Control_c, 0, 67, 123
1, 164486, Control_c, 0, 67, 127
1, 164499, Note_off_c, 0, 62, 62
1, 164502, Control_c, 0, 64, 42
1, 164517, Note_off_c, 0, 47, 64
1, 164517, Control_c, 0, 64, 62
1, 164524, Note_off_c, 0, 55, 63
1, 164532, Control_c, 0, 64, 79
1, 164543, Note_off_c, 0, 74, 62
1, 164545, Note_off_c, 0, 59, 63
1, 164547, Control_c, 0, 64, 104
1, 164562, Note_off_c, 0, 67, 64
1, 164562, Control_c, 0, 64, 127
1, 164902, Note_on_c, 0, 73, 52
1, 164915, Note_on_c, 0, 70, 48
1, 164917, Note_on_c, 0, 88, 71
1, 164928, Note_on_c, 0, 61, 38
1, 164942, Note_on_c, 0, 79, 43
1, 164945, Note_on_c, 0, 67, 32
1, 164954, Control_c, 0, 64, 95
1, 164959, Note_off_c, 0, 73, 60
1, 164968, Note_off_c, 0, 88, 62
1, 164968, Control_c, 0, 64, 81
1, 164979, Note_off_c, 0, 61, 63
1, 164979, Note_off_c, 0, 79, 50
1, 164983, Control_c, 0, 64, 70
1, 164993, Note_off_c, 0, 70, 61
1, 164998, Control_c, 0, 64, 61
1, 165002, Poly_aftertouch_c, 0, 76, 0
1, 165013, Control_c, 0, 64, 43
1, 165028, Control_c, 0, 64, 0
1, 165033, Note_on_c, 0, 86, 77
1, 165048, Note_on_c, 0, 79, 40
1, 165060, Note_on_c, 0, 71, 55
1, 165062, Note_on_c, 0, 62, 30
1, 165070, Note_on_c, 0, 74, 33
1, 165161, Control_c, 0, 64, 45
1, 165176, Control_c, 0, 64, 57
1, 165191, Control_c, 0, 64, 62
1, 165206, Control_c, 0, 64, 64
1, 165220, Control_c, 0, 64, 68
1, 165235, Control_c, 0, 64, 75
1, 165250, Control_c, 0, 64, 81
1, 165265, Control_c, 0, 64, 84
1, 165280, Control_c, 0, 64, 86
1, 165296, Control_c, 0, 64, 90
1, 165311, Control_c, 0, 64, 96
1, 165325, Control_c, 0, 64, 113
1, 165340, Control_c, 0, 64, 127
1, 165381, Note_off_c, 0, 62, 40
1, 165394, Note_off_c, 0, 71, 50
1, 165403, Note_off_c, 0, 86, 33
1, 165451, Note_off_c, 0, 67, 40
1, 165530, Note_off_c, 0, 74, 41
1, 165609, Note_off_c, 0, 79, 39
1, 165872, Note_on_c, 0, 83, 65
1, 165907, Note_on_c, 0, 79, 37
1, 165912, Note_on_c, 0, 71, 32
1, 165949, Note_off_c, 0, 71, 51
1, 165968, Note_off_c, 0, 83, 60
1, 166014, Note_off_c, 0, 79, 51
1, 166098, Note_on_c, 0, 48, 51
1, 166107, Note_on_c, 0, 79, 73
1, 166107, Note_on_c, 0, 36, 45
1, 166113, Note_on_c, 0, 67, 53
1, 166120, Note_on_c, 0, 76, 61
1, 166164, Note_off_c, 0, 76, 61
1, 166169, Note_off_c, 0, 67, 50
1, 166179, Note_off_c, 0, 79, 65
1, 166285, Note_off_c, 0, 36, 33
1, 166295, Note_off_c, 0, 48, 54
1, 166302, Note_on_c, 0, 76, 76
1, 166310, Note_on_c, 0, 72, 67
1, 166313, Note_on_c, 0, 64, 67
1, 166365, Note_off_c, 0, 64, 55
1, 166382, Note_off_c, 0, 76, 62
1, 166387, Note_off_c, 0, 72, 62
1, 166482, Control_c, 0, 64, 84
1, 166494, Note_on_c, 0, 50, 73
1, 166497, Control_c, 0, 64, 66
1, 166498, Note_on_c, 0, 38, 65
1, 166498, Note_on_c, 0, 62, 70
1, 166505, Note_on_c, 0, 76, 64
1, 166510, Note_on_c, 0, 74, 68
1, 166512, Control_c, 0, 64, 62
1, 166513, Note_on_c, 0, 72, 52
1, 166515, Note_on_c, 0, 71, 58
1, 166527, Control_c, 0, 64, 65
1, 166530, Note_off_c, 0, 62, 61
1, 166542, Control_c, 0, 64, 74
1, 166548, Note_off_c, 0, 71, 66
1, 166548, Note_off_c, 0, 72, 64
1, 166549, Note_off_c, 0, 74, 57
1, 166553, Note_off_c, 0, 38, 62
1, 166554, Note_off_c, 0, 76, 61
1, 166556, Control_c, 0, 64, 88
1, 166563, Note_off_c, 0, 50, 60
1, 166571, Control_c, 0, 64, 113
1, 166586, Control_c, 0, 64, 127
1, 166630, Control_c, 0, 67, 124
1, 166660, Control_c, 0, 64, 106
1, 166674, Control_c, 0, 64, 76
1, 166684, Note_on_c, 0, 73, 78
1, 166689, Note_on_c, 0, 70, 68
1, 166689, Control_c, 0, 64, 67
1, 166689, Control_c, 0, 67, 121
1, 166691, Note_on_c, 0, 40, 65
1, 166693, Note_on_c, 0, 61, 66
1, 166694, Note_on_c, 0, 52, 71
1, 166704, Control_c, 0, 64, 68
1, 166704, Control_c, 0, 67, 117
1, 166718, Control_c, 0, 64, 74
1, 166718, Control_c, 0, 67, 111
1, 166722, Note_off_c, 0, 40, 64
1, 166727, Note_off_c, 0, 52, 63
1, 166733, Control_c, 0, 64, 84
1, 166748, Control_c, 0, 64, 98
1, 166763, Control_c, 0, 64, 107
1, 166774, Note_off_c, 0, 61, 58
1, 166774, Note_off_c, 0, 70, 61
1, 166778, Control_c, 0, 64, 110
1, 166789, Note_off_c, 0, 73, 60
1, 166793, Control_c, 0, 64, 112
1, 166793, Control_c, 0, 67, 109
1, 166897, Control_c, 0, 64, 106
1, 166912, Control_c, 0, 64, 95
1, 166927, Control_c, 0, 64, 79
1, 166942, Control_c, 0, 64, 65
1, 166943, Note_on_c, 0, 72, 67
1, 166945, Note_on_c, 0, 51, 46
1, 166945, Note_on_c, 0, 69, 50
1, 166949, Note_on_c, 0, 60, 55
1, 166950, Note_on_c, 0, 54, 51
1, 166957, Control_c, 0, 64, 41
1, 166960, Note_on_c, 0, 42, 44
1, 166971, Control_c, 0, 64, 0
1, 167097, Control_c, 0, 64, 45
1, 167112, Control_c, 0, 64, 63
1, 167127, Control_c, 0, 64, 73
1, 167141, Control_c, 0, 64, 78
1, 167156, Control_c, 0, 64, 79
1, 167171, Control_c, 0, 64, 81
1, 167186, Control_c, 0, 64, 85
1, 167201, Control_c, 0, 64, 94
1, 167216, Control_c, 0, 64, 109
1, 167230, Control_c, 0, 64, 127
1, 167237, Note_off_c, 0, 69, 51
1, 167258, Note_off_c, 0, 54, 56
1, 167266, Note_off_c, 0, 72, 52
1, 167308, Note_off_c, 0, 42, 33
1, 167383, Note_off_c, 0, 60, 46
1, 167541, Control_c, 0, 64, 94
1, 167556, Control_c, 0, 64, 82
1, 167567, Note_on_c, 0, 55, 56
1, 167567, Note_on_c, 0, 71, 66
1, 167570, Note_on_c, 0, 43, 52
1, 167571, Control_c, 0, 64, 81
1, 167575, Note_on_c, 0, 59, 53
1, 167582, Note_on_c, 0, 67, 47
1, 167586, Control_c, 0, 64, 82
1, 167601, Control_c, 0, 64, 86
1, 167615, Control_c, 0, 64, 91
1, 167621, Note_off_c, 0, 59, 58
1, 167628, Note_off_c, 0, 43, 58
1, 167630, Control_c, 0, 64, 92
1, 167635, Note_off_c, 0, 67, 57
1, 167638, Note_off_c, 0, 55, 57
1, 167639, Note_off_c, 0, 51, 27
1, 167642, Note_off_c, 0, 71, 60
1, 167645, Control_c, 0, 64, 97
1, 167660, Control_c, 0, 64, 116
1, 167675, Control_c, 0, 64, 127
1, 167750, Control_c, 0, 64, 90
1, 167759, Note_on_c, 0, 69, 70
1, 167761, Note_on_c, 0, 45, 58
1, 167771, Control_c, 0, 64, 81
1, 167772, Note_on_c, 0, 57, 58
1, 167778, Note_on_c, 0, 66, 63
1, 167781, Note_on_c, 0, 60, 55
1, 167801, Control_c, 0, 64, 85
1, 167805, Note_off_c, 0, 45, 64
1, 167812, Note_off_c, 0, 57, 62
1, 167812, Note_off_c, 0, 60, 61
1, 167816, Control_c, 0, 64, 92
1, 167824, Note_off_c, 0, 66, 59
1, 167831, Control_c, 0, 64, 98
1, 167835, Note_off_c, 0, 69, 61
1, 167860, Control_c, 0, 64, 105
1, 167875, Control_c, 0, 64, 127
1, 167953, Note_on_c, 0, 67, 68
1, 167959, Note_on_c, 0, 58, 68
1, 167959, Note_on_c, 0, 61, 59
1, 167962, Note_on_c, 0, 64, 61
1, 167963, Note_on_c, 0, 46, 65
1, 167985, Note_off_c, 0, 61, 62
1, 167991, Note_off_c, 0, 64, 66
1, 167993, Note_off_c, 0, 46, 64
1, 167993, Note_off_c, 0, 58, 62
1, 168024, Note_off_c, 0, 67, 61
1, 168024, Control_c, 0, 64, 115
1, 168038, Control_c, 0, 64, 107
1, 168112, Control_c, 0, 64, 102
1, 168127, Control_c, 0, 64, 83
1, 168142, Control_c, 0, 64, 66
1, 168153, Note_on_c, 0, 59, 63
1, 168155, Note_on_c, 0, 66, 62
1, 168157, Control_c, 0, 64, 45
1, 168158, Note_on_c, 0, 64, 63
1, 168161, Note_on_c, 0, 47, 59
1, 168171, Control_c, 0, 64, 0
1, 168179, Note_off_c, 0, 59, 66
1, 168188, Note_off_c, 0, 47, 65
1, 168188, Note_off_c, 0, 64, 64
1, 168188, Note_off_c, 0, 66, 63
1, 168216, Control_c, 0, 67, 111
1, 168305, Control_c, 0, 67, 113
1, 168581, Note_on_c, 0, 71, 62
1, 168586, Note_on_c, 0, 35, 51
1, 168587, Note_on_c, 0, 57, 55
1, 168593, Note_on_c, 0, 47, 42
1, 168595, Note_on_c, 0, 63, 48
1, 168602, Note_on_c, 0, 66, 35
1, 168609, Control_c, 0, 67, 115
1, 168617, Note_off_c, 0, 71, 63
1, 168621, Note_off_c, 0, 35, 62
1, 168622, Note_off_c, 0, 63, 61
1, 168623, Note_off_c, 0, 57, 64
1, 168626, Note_off_c, 0, 47, 64
1, 168629, Note_off_c, 0, 66, 51
1, 168713, Control_c, 0, 67, 117
1, 169091, Note_on_c, 0, 52, 32
1, 169091, Note_on_c, 0, 55, 37
1, 169095, Note_on_c, 0, 64, 33
1, 169098, Note_on_c, 0, 40, 21
1, 169099, Control_c, 0, 64, 46
1, 169103, Note_on_c, 0, 59, 23
1, 169113, Control_c, 0, 64, 60
1, 169128, Control_c, 0, 64, 64
1, 169143, Control_c, 0, 64, 67
1, 169158, Control_c, 0, 64, 68
1, 169173, Control_c, 0, 64, 70
1, 169187, Control_c, 0, 64, 72
1, 169202, Control_c, 0, 64, 76
1, 169217, Control_c, 0, 64, 81
1, 169229, Note_off_c, 0, 55, 55
1, 169232, Control_c, 0, 64, 86
1, 169247, Control_c, 0, 64, 92
1, 169269, Control_c, 0, 64, 99
1, 169284, Control_c, 0, 64, 109
1, 169300, Control_c, 0, 64, 127
1, 169368, Note_off_c, 0, 64, 36
1, 169372, Note_off_c, 0, 59, 38
1, 169386, Note_off_c, 0, 40, 36
1, 169416, Note_off_c, 0, 52, 37
1, 169596, Control_c, 0, 67, 119
1, 169759, Control_c, 0, 67, 121
1, 169774, Control_c, 0, 67, 123
1, 169789, Control_c, 0, 67, 127
1, 169922, Control_c, 0, 64, 98
1, 169936, Control_c, 0, 64, 86
1, 169951, Control_c, 0, 64, 77
1, 169966, Control_c, 0, 64, 69
1, 169981, Control_c, 0, 64, 61
1, 169996, Control_c, 0, 64, 46
1, 170018, Control_c, 0, 64, 0
1, 170102, Note_on_c, 0, 76, 56
1, 170118, Note_on_c, 0, 64, 17
1, 170139, Note_off_c, 0, 76, 64
1, 170143, Note_on_c, 0, 77, 54
1, 170154, Note_on_c, 0, 65, 49
1, 170156, Note_off_c, 0, 64, 52
1, 170174, Note_off_c, 0, 77, 68
1, 170188, Note_on_c, 0, 79, 68
1, 170188, Note_off_c, 0, 65, 58
1, 170203, Note_on_c, 0, 67, 57
1, 170241, Note_off_c, 0, 79, 64
1, 170254, Note_off_c, 0, 67, 60
1, 170255, Note_on_c, 0, 81, 74
1, 170286, Note_on_c, 0, 69, 54
1, 170345, Control_c, 0, 64, 37
1, 170360, Control_c, 0, 64, 54
1, 170374, Control_c, 0, 64, 63
1, 170389, Control_c, 0, 64, 67
1, 170404, Control_c, 0, 64, 71
1, 170419, Control_c, 0, 64, 75
1, 170434, Control_c, 0, 64, 80
1, 170448, Control_c, 0, 64, 84
1, 170463, Control_c, 0, 64, 89
1, 170478, Control_c, 0, 64, 97
1, 170492, Control_c, 0, 64, 111
1, 170507, Control_c, 0, 64, 127
1, 170559, Note_off_c, 0, 81, 34
1, 170677, Note_on_c, 0, 81, 77
1, 170681, Note_on_c, 0, 76, 54
1, 170684, Control_c, 0, 64, 100
1, 170685, Note_on_c, 0, 79, 65
1, 170699, Control_c, 0, 64, 87
1, 170714, Control_c, 0, 64, 81
1, 170729, Control_c, 0, 64, 81
1, 170744, Control_c, 0, 64, 81
1, 170766, Control_c, 0, 64, 83
1, 170781, Control_c, 0, 64, 86
1, 170796, Control_c, 0, 64, 88
1, 170804, Note_off_c, 0, 79, 51
1, 170811, Control_c, 0, 64, 90
1, 170826, Control_c, 0, 64, 93
1, 170832, Note_off_c, 0, 76, 60
1, 170840, Control_c, 0, 64, 97
1, 170855, Control_c, 0, 64, 99
1, 170862, Note_off_c, 0, 81, 61
1, 170885, Control_c, 0, 64, 101
1, 170915, Control_c, 0, 64, 106
1, 170930, Control_c, 0, 64, 109
1, 170945, Control_c, 0, 64, 113
1, 170960, Control_c, 0, 64, 115
1, 170989, Control_c, 0, 64, 117
1, 171063, Control_c, 0, 64, 112
1, 171078, Control_c, 0, 64, 96
1, 171093, Control_c, 0, 64, 81
1, 171101, Note_on_c, 0, 81, 82
1, 171102, Note_on_c, 0, 77, 54
1, 171108, Control_c, 0, 64, 67
1, 171112, Note_on_c, 0, 74, 59
1, 171122, Control_c, 0, 64, 46
1, 171137, Control_c, 0, 64, 0
1, 171202, Note_off_c, 0, 69, 55
1, 171211, Control_c, 0, 64, 57
1, 171226, Control_c, 0, 64, 69
1, 171232, Note_off_c, 0, 77, 60
1, 171241, Control_c, 0, 64, 79
1, 171256, Control_c, 0, 64, 86
1, 171270, Note_off_c, 0, 81, 60
1, 171270, Control_c, 0, 64, 91
1, 171285, Control_c, 0, 64, 96
1, 171300, Control_c, 0, 64, 104
1, 171315, Control_c, 0, 64, 127
1, 171401, Note_off_c, 0, 74, 36
1, 171574, Note_on_c, 0, 81, 65
1, 171589, Note_on_c, 0, 77, 42
1, 171589, Control_c, 0, 64, 84
1, 171598, Note_on_c, 0, 72, 42
1, 171602, Note_on_c, 0, 75, 33
1, 171604, Control_c, 0, 64, 66
1, 171619, Control_c, 0, 64, 40
1, 171634, Control_c, 0, 64, 0
1, 171694, Control_c, 0, 64, 36
1, 171709, Control_c, 0, 64, 56
1, 171724, Control_c, 0, 64, 69
1, 171734, Note_off_c, 0, 72, 63
1, 171735, Note_off_c, 0, 77, 63
1, 171738, Control_c, 0, 64, 78
1, 171753, Control_c, 0, 64, 87
1, 171755, Note_off_c, 0, 81, 63
1, 171768, Control_c, 0, 64, 93
1, 171776, Note_off_c, 0, 75, 55
1, 171783, Control_c, 0, 64, 102
1, 171798, Control_c, 0, 64, 127
1, 171976, Control_c, 0, 64, 112
1, 171991, Control_c, 0, 64, 78
1, 171999, Note_on_c, 0, 86, 67
1, 172006, Control_c, 0, 64, 61
1, 172009, Note_on_c, 0, 77, 51
1, 172015, Note_on_c, 0, 70, 42
1, 172015, Note_on_c, 0, 82, 48
1, 172015, Note_on_c, 0, 74, 35
1, 172020, Control_c, 0, 64, 45
1, 172022, Note_off_c, 0, 86, 69
1, 172032, Note_off_c, 0, 77, 60
1, 172035, Control_c, 0, 64, 0
1, 172037, Note_off_c, 0, 82, 59
1, 172221, Note_on_c, 0, 85, 68
1, 172236, Note_on_c, 0, 75, 43
1, 172236, Note_on_c, 0, 77, 50
1, 172243, Note_off_c, 0, 74, 41
1, 172260, Note_off_c, 0, 85, 61
1, 172264, Note_off_c, 0, 77, 63
1, 172492, Note_on_c, 0, 86, 53
1, 172497, Note_on_c, 0, 77, 41
1, 172500, Note_off_c, 0, 75, 40
1, 172501, Note_on_c, 0, 74, 43
1, 172515, Note_on_c, 0, 82, 36
1, 172532, Control_c, 0, 64, 41
1, 172547, Control_c, 0, 64, 58
1, 172561, Control_c, 0, 64, 67
1, 172576, Control_c, 0, 64, 75
1, 172591, Control_c, 0, 64, 89
1, 172606, Control_c, 0, 64, 127
1, 172615, Note_off_c, 0, 70, 61
1, 172658, Note_off_c, 0, 77, 37
1, 172827, Note_off_c, 0, 74, 37
1, 172886, Note_on_c, 0, 65, 61
1, 172887, Control_c, 0, 64, 77
1, 172902, Control_c, 0, 64, 48
1, 172917, Note_off_c, 0, 86, 62
1, 172917, Control_c, 0, 64, 0
1, 172935, Note_off_c, 0, 82, 58
1, 173076, Note_on_c, 0, 75, 60
1, 173085, Note_on_c, 0, 81, 84
1, 173085, Note_on_c, 0, 72, 53
1, 173108, Note_off_c, 0, 81, 67
1, 173112, Note_on_c, 0, 82, 66
1, 173117, Control_c, 0, 64, 45
1, 173132, Control_c, 0, 64, 63
1, 173147, Control_c, 0, 64, 76
1, 173161, Note_off_c, 0, 75, 50
1, 173161, Control_c, 0, 64, 94
1, 173167, Note_off_c, 0, 72, 59
1, 173172, Note_on_c, 0, 81, 74
1, 173176, Control_c, 0, 64, 116
1, 173191, Control_c, 0, 64, 127
1, 173202, Note_off_c, 0, 82, 39
1, 173250, Note_off_c, 0, 81, 63
1, 173251, Note_on_c, 0, 80, 79
1, 173302, Note_off_c, 0, 80, 58
1, 173426, Note_on_c, 0, 72, 62
1, 173428, Note_on_c, 0, 81, 78
1, 173434, Note_on_c, 0, 75, 54
1, 173440, Note_off_c, 0, 65, 59
1, 173452, Note_off_c, 0, 72, 65
1, 173455, Note_off_c, 0, 75, 62
1, 173562, Note_off_c, 0, 81, 60
1, 173592, Control_c, 0, 64, 89
1, 173595, Note_on_c, 0, 82, 62
1, 173598, Note_on_c, 0, 77, 65
1, 173598, Note_on_c, 0, 86, 64
1, 173601, Note_on_c, 0, 58, 60
1, 173607, Control_c, 0, 64, 59
1, 173613, Note_off_c, 0, 82, 64
1, 173614, Note_off_c, 0, 77, 67
1, 173615, Note_off_c, 0, 86, 66
1, 173622, Control_c, 0, 64, 0
1, 173786, Note_on_c, 0, 74, 61
1, 173795, Note_on_c, 0, 85, 77
1, 173800, Note_on_c, 0, 65, 49
1, 173801, Note_on_c, 0, 70, 49
1, 173809, Note_on_c, 0, 77, 50
1, 173816, Note_off_c, 0, 85, 71
1, 173828, Note_on_c, 0, 81, 11
1, 173829, Note_off_c, 0, 81, 43
1, 173829, Note_off_c, 0, 77, 62
1, 173916, Note_off_c, 0, 74, 33
1, 173926, Control_c, 0, 64, 34
1, 173932, Note_off_c, 0, 70, 43
1, 173941, Control_c, 0, 64, 57
1, 173956, Control_c, 0, 64, 65
1, 173971, Control_c, 0, 64, 70
1, 173985, Control_c, 0, 64, 75
1, 173994, Note_on_c, 0, 86, 75
1, 174000, Note_on_c, 0, 82, 56
1, 174000, Control_c, 0, 64, 83
1, 174002, Note_off_c, 0, 65, 33
1, 174007, Note_on_c, 0, 77, 54
1, 174015, Control_c, 0, 64, 88
1, 174030, Control_c, 0, 64, 97
1, 174044, Control_c, 0, 64, 127
1, 174155, Note_on_c, 0, 65, 52
1, 174162, Note_on_c, 0, 74, 59
1, 174165, Note_on_c, 0, 70, 49
1, 174171, Note_off_c, 0, 58, 63
1, 174185, Note_off_c, 0, 74, 65
1, 174200, Note_off_c, 0, 70, 66
1, 174203, Note_off_c, 0, 65, 64
1, 174282, Control_c, 0, 67, 112
1, 174297, Control_c, 0, 67, 106
1, 174312, Control_c, 0, 64, 119
1, 174312, Control_c, 0, 67, 108
1, 174326, Control_c, 0, 64, 67
1, 174341, Control_c, 0, 64, 0
1, 174342, Note_on_c, 0, 50, 85
1, 174366, Note_off_c, 0, 50, 69
1, 174371, Control_c, 0, 64, 51
1, 174386, Control_c, 0, 64, 67
1, 174386, Control_c, 0, 67, 111
1, 174394, Note_off_c, 0, 77, 63
1, 174397, Note_off_c, 0, 86, 62
1, 174400, Control_c, 0, 64, 81
1, 174400, Control_c, 0, 67, 113
1, 174415, Control_c, 0, 64, 100
1, 174417, Note_off_c, 0, 82, 63
1, 174430, Control_c, 0, 64, 117
1, 174475, Control_c, 0, 64, 120
1, 174489, Control_c, 0, 64, 122
1, 174555, Note_on_c, 0, 80, 72
1, 174556, Control_c, 0, 64, 124
1, 174566, Note_on_c, 0, 62, 62
1, 174571, Control_c, 0, 64, 127
1, 174572, Note_off_c, 0, 80, 63
1, 174574, Note_on_c, 0, 81, 72
1, 174575, Note_on_c, 0, 66, 59
1, 174576, Note_on_c, 0, 72, 54
1, 174586, Control_c, 0, 67, 117
1, 174589, Note_on_c, 0, 82, 81
1, 174589, Note_off_c, 0, 81, 67
1, 174635, Note_off_c, 0, 82, 63
1, 174639, Note_on_c, 0, 81, 92
1, 174659, Control_c, 0, 67, 119
1, 174664, Note_off_c, 0, 62, 57
1, 174674, Control_c, 0, 67, 126
1, 174677, Note_off_c, 0, 66, 55
1, 174697, Note_off_c, 0, 72, 40
1, 174811, Note_off_c, 0, 81, 65
1, 174822, Note_on_c, 0, 80, 82
1, 174969, Note_on_c, 0, 62, 57
1, 174978, Note_off_c, 0, 80, 58
1, 175024, Poly_aftertouch_c, 0, 85, 127
1, 175056, Poly_aftertouch_c, 0, 85, 0
1, 175068, Note_on_c, 0, 66, 49
1, 175193, Control_c, 0, 64, 87
1, 175208, Control_c, 0, 64, 72
1, 175223, Control_c, 0, 64, 62
1, 175224, Note_on_c, 0, 81, 70
1, 175226, Note_on_c, 0, 72, 47
1, 175237, Control_c, 0, 64, 59
1, 175259, Control_c, 0, 64, 66
1, 175272, Note_off_c, 0, 72, 66
1, 175274, Control_c, 0, 64, 83
1, 175285, Note_off_c, 0, 62, 62
1, 175285, Note_off_c, 0, 66, 62
1, 175288, Control_c, 0, 64, 127
1, 175322, Note_off_c, 0, 81, 61
1, 175467, Note_on_c, 0, 43, 70
1, 175481, Control_c, 0, 64, 82
1, 175496, Control_c, 0, 64, 46
1, 175511, Control_c, 0, 64, 0
1, 175585, Control_c, 0, 64, 56
1, 175599, Control_c, 0, 64, 75
1, 175614, Note_off_c, 0, 43, 61
1, 175614, Control_c, 0, 64, 91
1, 175629, Control_c, 0, 64, 100
1, 175680, Note_on_c, 0, 59, 54
1, 175694, Note_on_c, 0, 71, 55
1, 175704, Control_c, 0, 64, 102
1, 175734, Control_c, 0, 64, 105
1, 175740, Note_on_c, 0, 79, 64
1, 175745, Note_off_c, 0, 71, 62
1, 175757, Note_off_c, 0, 59, 61
1, 175764, Control_c, 0, 64, 109
1, 175778, Control_c, 0, 64, 115
1, 175793, Control_c, 0, 64, 127
1, 175803, Note_on_c, 0, 86, 78
1, 175837, Note_on_c, 0, 67, 47
1, 175847, Note_off_c, 0, 79, 55
1, 175879, Note_off_c, 0, 67, 63
1, 176138, Note_on_c, 0, 85, 76
1, 176152, Note_off_c, 0, 86, 63
1, 176326, Note_on_c, 0, 55, 57
1, 176370, Note_on_c, 0, 86, 77
1, 176378, Control_c, 0, 64, 83
1, 176382, Note_off_c, 0, 85, 64
1, 176393, Control_c, 0, 64, 66
1, 176408, Control_c, 0, 64, 57
1, 176422, Control_c, 0, 64, 61
1, 176437, Control_c, 0, 64, 67
1, 176452, Control_c, 0, 64, 75
1, 176467, Control_c, 0, 64, 82
1, 176483, Control_c, 0, 64, 84
1, 176562, Note_on_c, 0, 62, 51
1, 176565, Note_on_c, 0, 83, 61
1, 176574, Note_on_c, 0, 74, 43
1, 176594, Note_on_c, 0, 71, 28
1, 176602, Control_c, 0, 64, 84
1, 176607, Note_off_c, 0, 74, 51
1, 176633, Note_off_c, 0, 62, 61
1, 176639, Note_off_c, 0, 71, 48
1, 176661, Control_c, 0, 64, 85
1, 176706, Control_c, 0, 64, 85
1, 176721, Control_c, 0, 64, 86
1, 176735, Control_c, 0, 64, 87
1, 176744, Note_off_c, 0, 83, 38
1, 176758, Control_c, 0, 64, 89
1, 176763, Note_on_c, 0, 82, 74
1, 176768, Note_on_c, 0, 73, 63
1, 176772, Note_on_c, 0, 61, 48
1, 176773, Control_c, 0, 64, 90
1, 176776, Note_on_c, 0, 70, 60
1, 176788, Control_c, 0, 64, 90
1, 176803, Control_c, 0, 64, 92
1, 176817, Control_c, 0, 64, 93
1, 176832, Control_c, 0, 64, 95
1, 176847, Control_c, 0, 64, 97
1, 176861, Control_c, 0, 64, 100
1, 176891, Control_c, 0, 64, 102
1, 176906, Control_c, 0, 64, 108
1, 176911, Note_off_c, 0, 55, 12
1, 176911, Note_off_c, 0, 70, 26
1, 176921, Control_c, 0, 64, 117
1, 176932, Note_off_c, 0, 73, 42
1, 176933, Note_off_c, 0, 86, 61
1, 176935, Control_c, 0, 64, 127
1, 176938, Note_on_c, 0, 85, 81
1, 176946, Note_off_c, 0, 61, 36
1, 176990, Note_off_c, 0, 82, 40
1, 177117, Note_on_c, 0, 55, 51
1, 177121, Note_on_c, 0, 86, 78
1, 177128, Control_c, 0, 64, 79
1, 177142, Control_c, 0, 64, 60
1, 177155, Note_off_c, 0, 85, 64
1, 177157, Control_c, 0, 64, 46
1, 177172, Control_c, 0, 64, 53
1, 177187, Control_c, 0, 64, 63
1, 177202, Control_c, 0, 64, 75
1, 177217, Control_c, 0, 64, 88
1, 177232, Control_c, 0, 64, 94
1, 177294, Note_on_c, 0, 69, 52
1, 177298, Note_on_c, 0, 81, 65
1, 177300, Note_on_c, 0, 60, 51
1, 177302, Note_on_c, 0, 72, 49
1, 177333, Note_off_c, 0, 69, 61
1, 177347, Note_off_c, 0, 60, 61
1, 177349, Note_off_c, 0, 72, 40
1, 177365, Control_c, 0, 64, 95
1, 177380, Control_c, 0, 64, 96
1, 177383, Note_off_c, 0, 81, 0
1, 177383, Note_on_c, 0, 81, 15
1, 177395, Control_c, 0, 64, 99
1, 177410, Control_c, 0, 64, 103
1, 177424, Control_c, 0, 64, 106
1, 177439, Control_c, 0, 64, 111
1, 177454, Control_c, 0, 64, 127
1, 177478, Note_on_c, 0, 68, 63
1, 177478, Note_on_c, 0, 80, 73
1, 177481, Note_on_c, 0, 71, 69
1, 177490, Note_on_c, 0, 59, 47
1, 177517, Note_off_c, 0, 68, 65
1, 177541, Note_off_c, 0, 59, 62
1, 177551, Note_off_c, 0, 81, 38
1, 177554, Note_off_c, 0, 86, 29
1, 177573, Note_off_c, 0, 55, 61
1, 177650, Note_on_c, 0, 86, 88
1, 177716, Note_off_c, 0, 80, 32
1, 177736, Note_off_c, 0, 71, 34
1, 177780, Note_off_c, 0, 86, 62
1, 177818, Note_on_c, 0, 43, 64
1, 177864, Note_off_c, 0, 43, 63
1, 177879, Note_on_c, 0, 87, 80
1, 177948, Note_off_c, 0, 87, 62
1, 178028, Note_on_c, 0, 67, 59
1, 178040, Note_on_c, 0, 79, 74
1, 178060, Note_on_c, 0, 70, 50
1, 178074, Note_on_c, 0, 58, 27
1, 178083, Note_off_c, 0, 79, 56
1, 178089, Note_off_c, 0, 67, 57
1, 178089, Note_off_c, 0, 70, 62
1, 178116, Note_off_c, 0, 58, 48
1, 178199, Note_on_c, 0, 66, 68
1, 178217, Note_on_c, 0, 69, 66
1, 178218, Note_on_c, 0, 78, 82
1, 178222, Note_on_c, 0, 57, 62
1, 178224, Note_off_c, 0, 66, 68
1, 178236, Note_off_c, 0, 69, 66
1, 178258, Note_off_c, 0, 78, 58
1, 178260, Note_off_c, 0, 57, 65
1, 178389, Note_on_c, 0, 87, 92
1, 178397, Note_on_c, 0, 75, 68
1, 178418, Control_c, 0, 67, 117
1, 178432, Control_c, 0, 67, 110
1, 178462, Control_c, 0, 67, 108
1, 178473, Note_off_c, 0, 75, 62
1, 178492, Control_c, 0, 67, 106
1, 178506, Control_c, 0, 67, 103
1, 178555, Note_on_c, 0, 43, 70
1, 178595, Control_c, 0, 64, 92
1, 178595, Control_c, 0, 67, 106
1, 178608, Note_off_c, 0, 87, 0
1, 178610, Control_c, 0, 64, 65
1, 178611, Note_off_c, 0, 43, 64
1, 178619, Note_on_c, 0, 88, 85
1, 178623, Note_on_c, 0, 76, 81
1, 178624, Control_c, 0, 64, 55
1, 178624, Control_c, 0, 67, 108
1, 178639, Control_c, 0, 64, 60
1, 178645, Poly_aftertouch_c, 0, 87, 127
1, 178651, Note_off_c, 0, 76, 66
1, 178654, Control_c, 0, 64, 67
1, 178657, Note_off_c, 0, 88, 63
1, 178660, Poly_aftertouch_c, 0, 87, 0
1, 178669, Control_c, 0, 64, 81
1, 178684, Control_c, 0, 64, 115
1, 178684, Control_c, 0, 67, 111
1, 178698, Control_c, 0, 64, 127
1, 178698, Control_c, 0, 67, 113
1, 178811, Note_on_c, 0, 77, 69
1, 178813, Note_on_c, 0, 68, 70
1, 178819, Note_on_c, 0, 72, 56
1, 178821, Note_on_c, 0, 60, 63
1, 178826, Note_on_c, 0, 56, 58
1, 178828, Note_on_c, 0, 65, 58
1, 178850, Note_off_c, 0, 68, 56
1, 178865, Note_off_c, 0, 65, 64
1, 178868, Note_off_c, 0, 56, 55
1, 178868, Note_off_c, 0, 60, 61
1, 178873, Note_off_c, 0, 72, 60
1, 178880, Note_off_c, 0, 77, 62
1, 178908, Control_c, 0, 67, 109
1, 178922, Control_c, 0, 67, 107
1, 178988, Note_on_c, 0, 55, 73
1, 178988, Note_on_c, 0, 64, 72
1, 178988, Note_on_c, 0, 59, 66
1, 178991, Note_on_c, 0, 67, 76
1, 178994, Note_on_c, 0, 71, 72
1, 178994, Note_on_c, 0, 77, 75
1, 179003, Note_on_c, 0, 76, 81
1, 179004, Control_c, 0, 67, 102
1, 179019, Note_off_c, 0, 67, 71
1, 179019, Control_c, 0, 67, 94
1, 179023, Note_off_c, 0, 64, 64
1, 179025, Note_off_c, 0, 71, 70
1, 179034, Control_c, 0, 67, 81
1, 179040, Note_off_c, 0, 76, 61
1, 179041, Note_off_c, 0, 77, 63
1, 179048, Control_c, 0, 67, 69
1, 179052, Note_off_c, 0, 59, 63
1, 179063, Control_c, 0, 67, 66
1, 179072, Note_off_c, 0, 55, 62
1, 179078, Control_c, 0, 67, 62
1, 179093, Control_c, 0, 67, 49
1, 179108, Control_c, 0, 67, 26
1, 179122, Control_c, 0, 67, 0
1, 179178, Note_on_c, 0, 76, 94
1, 179180, Note_on_c, 0, 88, 97
1, 179271, Note_on_c, 0, 37, 29
1, 179276, Note_off_c, 0, 76, 55
1, 179308, Note_off_c, 0, 88, 61
1, 179330, Note_off_c, 0, 37, 43
1, 179358, Note_on_c, 0, 31, 91
1, 179361, Note_on_c, 0, 43, 90
1, 179374, Control_c, 0, 64, 91
1, 179389, Control_c, 0, 64, 57
1, 179404, Control_c, 0, 64, 48
1, 179405, Note_off_c, 0, 31, 63
1, 179419, Control_c, 0, 64, 62
1, 179427, Note_off_c, 0, 43, 64
1, 179433, Note_on_c, 0, 89, 100
1, 179434, Control_c, 0, 64, 82
1, 179435, Note_on_c, 0, 77, 88
1, 179448, Control_c, 0, 64, 127
1, 179463, Note_off_c, 0, 77, 64
1, 179466, Note_off_c, 0, 89, 61
1, 179662, Note_on_c, 0, 63, 72
1, 179670, Note_on_c, 0, 54, 65
1, 179673, Note_on_c, 0, 75, 81
1, 179682, Note_on_c, 0, 66, 73
1, 179697, Note_on_c, 0, 58, 34
1, 179711, Note_off_c, 0, 63, 50
1, 179739, Note_off_c, 0, 58, 47
1, 179739, Note_off_c, 0, 66, 53
1, 179760, Note_off_c, 0, 75, 56
1, 179779, Note_off_c, 0, 54, 53
1, 179867, Note_on_c, 0, 62, 75
1, 179871, Note_on_c, 0, 57, 73
1, 179871, Note_on_c, 0, 65, 87
1, 179873, Note_on_c, 0, 74, 94
1, 179874, Note_on_c, 0, 53, 72
1, 179876, Note_on_c, 0, 69, 76
1, 179888, Note_off_c, 0, 62, 70
1, 179893, Note_off_c, 0, 65, 70
1, 179896, Note_off_c, 0, 57, 69
1, 179898, Note_off_c, 0, 69, 68
1, 179912, Note_off_c, 0, 53, 61
1, 179913, Note_off_c, 0, 74, 67
1, 180067, Note_on_c, 0, 43, 88
1, 180071, Note_on_c, 0, 31, 83
1, 180074, Note_on_c, 0, 76, 101
1, 180076, Note_on_c, 0, 88, 108
1, 180093, Note_off_c, 0, 43, 68
1, 180096, Note_off_c, 0, 31, 63
1, 180120, Note_off_c, 0, 76, 64
1, 180180, Note_off_c, 0, 88, 59
1, 180301, Control_c, 0, 67, 42
1, 180315, Note_on_c, 0, 73, 100
1, 180316, Control_c, 0, 64, 106
1, 180316, Control_c, 0, 67, 79
1, 180319, Note_on_c, 0, 61, 87
1, 180320, Note_on_c, 0, 65, 80
1, 180331, Control_c, 0, 64, 66
1, 180331, Control_c, 0, 67, 76
1, 180341, Note_on_c, 0, 69, 69
1, 180345, Control_c, 0, 64, 56
1, 180345, Control_c, 0, 67, 65
1, 180348, Note_on_c, 0, 68, 39
1, 180353, Note_on_c, 0, 77, 104
1, 180354, Note_on_c, 0, 89, 108
1, 180360, Control_c, 0, 64, 67
1, 180360, Control_c, 0, 67, 46
1, 180364, Note_off_c, 0, 73, 65
1, 180375, Control_c, 0, 64, 102
1, 180375, Control_c, 0, 67, 0
1, 180379, Note_off_c, 0, 69, 65
1, 180388, Note_off_c, 0, 77, 68
1, 180390, Control_c, 0, 64, 127
1, 180395, Note_off_c, 0, 68, 52
1, 180397, Note_off_c, 0, 65, 64
1, 180404, Note_off_c, 0, 61, 58
1, 180418, Note_off_c, 0, 89, 59
1, 180630, Note_on_c, 0, 55, 83
1, 180635, Note_on_c, 0, 78, 98
1, 180636, Note_on_c, 0, 43, 92
1, 180636, Note_on_c, 0, 90, 103
1, 180651, Note_off_c, 0, 55, 71
1, 180676, Note_off_c, 0, 43, 64
1, 180796, Note_off_c, 0, 90, 63
1, 180805, Note_off_c, 0, 78, 60
1, 180916, Control_c, 0, 64, 74
1, 180921, Note_on_c, 0, 36, 100
1, 180923, Note_on_c, 0, 24, 95
1, 180931, Control_c, 0, 64, 0
1, 180942, Note_on_c, 0, 79, 107
1, 180944, Note_on_c, 0, 91, 96
1, 180944, Note_on_c, 0, 88, 97
1, 180945, Note_on_c, 0, 84, 94
1, 180956, Note_off_c, 0, 24, 64
1, 180961, Control_c, 0, 64, 39
1, 180963, Note_off_c, 0, 36, 65
1, 180976, Control_c, 0, 64, 71
1, 180991, Control_c, 0, 64, 127
1, 181046, Poly_aftertouch_c, 0, 35, 0
1, 181089, Note_off_c, 0, 91, 54
1, 181157, Note_off_c, 0, 79, 59
1, 181187, Note_on_c, 0, 48, 80
1, 181190, Note_on_c, 0, 36, 68
1, 181211, Note_off_c, 0, 84, 57
1, 181211, Note_off_c, 0, 48, 68
1, 181220, Note_off_c, 0, 36, 63
1, 181394, Note_off_c, 0, 88, 64
1, 181398, Control_c, 0, 67, 47
1, 181407, Note_on_c, 0, 87, 91
1, 181408, Note_on_c, 0, 63, 87
1, 181408, Note_on_c, 0, 78, 105
1, 181411, Note_on_c, 0, 90, 101
1, 181411, Note_on_c, 0, 60, 79
1, 181413, Control_c, 0, 67, 38
1, 181415, Note_on_c, 0, 84, 96
1, 181426, Note_on_c, 0, 57, 82
1, 181428, Control_c, 0, 67, 0
1, 181435, Note_off_c, 0, 63, 63
1, 181447, Note_off_c, 0, 60, 64
1, 181452, Note_off_c, 0, 57, 68
1, 181518, Note_off_c, 0, 78, 57
1, 181542, Note_off_c, 0, 90, 58
1, 181572, Note_off_c, 0, 84, 51
1, 181605, Note_on_c, 0, 48, 88
1, 181619, Note_on_c, 0, 35, 51
1, 181620, Note_on_c, 0, 36, 56
1, 181629, Note_off_c, 0, 48, 69
1, 181647, Note_off_c, 0, 36, 57
1, 181652, Note_off_c, 0, 35, 53
1, 181783, Control_c, 0, 64, 73
1, 181783, Control_c, 0, 67, 34
1, 181787, Note_on_c, 0, 64, 86
1, 181792, Note_on_c, 0, 60, 82
1, 181792, Note_on_c, 0, 79, 110
1, 181793, Note_on_c, 0, 58, 86
1, 181793, Note_on_c, 0, 91, 93
1, 181796, Note_on_c, 0, 88, 98
1, 181796, Note_on_c, 0, 84, 85
1, 181798, Control_c, 0, 64, 70
1, 181798, Control_c, 0, 67, 76
1, 181809, Note_off_c, 0, 64, 67
1, 181813, Control_c, 0, 64, 81
1, 181813, Control_c, 0, 67, 63
1, 181819, Note_off_c, 0, 60, 69
1, 181827, Note_off_c, 0, 91, 64
1, 181828, Control_c, 0, 64, 127
1, 181828, Control_c, 0, 67, 34
1, 181829, Note_off_c, 0, 87, 56
1, 181832, Note_off_c, 0, 84, 64
1, 181836, Note_off_c, 0, 58, 66
1, 181838, Note_off_c, 0, 79, 62
1, 181838, Note_off_c, 0, 88, 66
1, 181843, Control_c, 0, 67, 0
1, 181982, Note_on_c, 0, 24, 88
1, 181982, Note_on_c, 0, 36, 78
1, 181982, Note_on_c, 0, 38, 77
1, 182013, Note_off_c, 0, 38, 66
1, 182015, Note_off_c, 0, 36, 65
1, 182015, Note_off_c, 0, 24, 64
1, 182147, Control_c, 0, 64, 76
1, 182147, Control_c, 0, 67, 38
1, 182162, Control_c, 0, 64, 64
1, 182162, Control_c, 0, 67, 48
1, 182170, Note_on_c, 0, 48, 86
1, 182171, Note_on_c, 0, 72, 101
1, 182172, Note_on_c, 0, 82, 94
1, 182173, Note_on_c, 0, 76, 91
1, 182174, Note_on_c, 0, 36, 80
1, 182177, Note_on_c, 0, 84, 94
1, 182177, Control_c, 0, 64, 72
1, 182177, Control_c, 0, 67, 27
1, 182192, Control_c, 0, 64, 127
1, 182192, Control_c, 0, 67, 0
1, 182196, Note_off_c, 0, 48, 65
1, 182198, Note_off_c, 0, 76, 66
1, 182201, Note_off_c, 0, 36, 64
1, 182204, Note_off_c, 0, 72, 65
1, 182222, Note_off_c, 0, 84, 63
1, 182232, Note_off_c, 0, 82, 63
1, 182342, Note_on_c, 0, 60, 84
1, 182348, Note_on_c, 0, 48, 85
1, 182359, Note_off_c, 0, 60, 76
1, 182375, Note_off_c, 0, 48, 61
1, 182515, Note_on_c, 0, 41, 94
1, 182517, Control_c, 0, 64, 86
1, 182518, Note_on_c, 0, 81, 103
1, 182519, Note_on_c, 0, 29, 93
1, 182519, Note_on_c, 0, 93, 90
1, 182523, Note_on_c, 0, 89, 87
1, 182532, Control_c, 0, 64, 45
1, 182538, Note_off_c, 0, 41, 70
1, 182541, Note_off_c, 0, 29, 67
1, 182547, Control_c, 0, 64, 0
1, 182550, Note_on_c, 0, 84, 38
1, 182552, Note_off_c, 0, 81, 66
1, 182553, Note_off_c, 0, 93, 63
1, 182559, Note_on_c, 0, 88, 38
1, 182559, Note_off_c, 0, 88, 127
1, 182582, Note_off_c, 0, 84, 49
1, 182592, Note_off_c, 0, 89, 62
1, 182711, Note_on_c, 0, 88, 73
1, 182712, Note_on_c, 0, 80, 99
1, 182714, Note_on_c, 0, 92, 94
1, 182718, Note_on_c, 0, 43, 83
1, 182719, Note_on_c, 0, 84, 79
1, 182724, Note_on_c, 0, 55, 78
1, 182745, Note_on_c, 0, 53, 57
1, 182750, Note_off_c, 0, 43, 66
1, 182755, Note_off_c, 0, 55, 69
1, 182759, Note_on_c, 0, 48, 22
1, 182759, Note_off_c, 0, 48, 127
1, 182768, Note_off_c, 0, 53, 59
1, 182770, Note_off_c, 0, 80, 63
1, 182776, Note_off_c, 0, 84, 62
1, 182780, Note_off_c, 0, 92, 66
1, 182788, Note_off_c, 0, 88, 63
1, 182926, Control_c, 0, 64, 55
1, 182941, Note_on_c, 0, 81, 96
1, 182941, Note_on_c, 0, 89, 101
1, 182941, Control_c, 0, 64, 127
1, 182941, Control_c, 0, 67, 33
1, 182942, Note_on_c, 0, 65, 100
1, 182944, Note_on_c, 0, 84, 85
1, 182946, Note_on_c, 0, 93, 91
1, 182947, Note_on_c, 0, 53, 77
1, 182951, Note_on_c, 0, 60, 83
1, 182956, Control_c, 0, 67, 32
1, 182962, Note_off_c, 0, 93, 75
1, 182970, Control_c, 0, 67, 0
1, 182974, Note_off_c, 0, 65, 63
1, 182977, Note_on_c, 0, 61, 22
1, 182977, Note_off_c, 0, 61, 127
1, 182979, Note_off_c, 0, 89, 65
1, 182981, Note_off_c, 0, 84, 60
1, 182981, Note_off_c, 0, 81, 64
1, 182984, Note_off_c, 0, 60, 65
1, 182988, Note_off_c, 0, 53, 65
1, 183003, Note_on_c, 0, 55, 40
1, 183052, Note_off_c, 0, 55, 38
1, 183282, Control_c, 0, 64, 64
1, 183282, Control_c, 0, 67, 71
1, 183285, Note_on_c, 0, 39, 116
1, 183286, Note_on_c, 0, 27, 92
1, 183296, Control_c, 0, 64, 0
1, 183296, Control_c, 0, 67, 102
1, 183304, Note_off_c, 0, 39, 70
1, 183307, Note_off_c, 0, 27, 71
1, 183311, Control_c, 0, 64, 51
1, 183311, Control_c, 0, 67, 92
1, 183326, Control_c, 0, 64, 76
1, 183326, Control_c, 0, 67, 75
1, 183340, Control_c, 0, 64, 127
1, 183340, Control_c, 0, 67, 50
1, 183355, Control_c, 0, 67, 28
1, 183370, Control_c, 0, 67, 21
1, 183400, Control_c, 0, 67, 0
1, 183463, Note_on_c, 0, 84, 103
1, 183468, Note_on_c, 0, 48, 84
1, 183468, Note_on_c, 0, 72, 99
1, 183468, Note_on_c, 0, 53, 74
1, 183468, Note_on_c, 0, 77, 80
1, 183471, Note_on_c, 0, 60, 80
1, 183471, Note_on_c, 0, 56, 47
1, 183475, Note_on_c, 0, 81, 84
1, 183498, Note_on_c, 0, 57, 58
1, 183504, Note_off_c, 0, 56, 59
1, 183522, Note_off_c, 0, 48, 60
1, 183530, Note_off_c, 0, 72, 58
1, 183531, Note_off_c, 0, 84, 60
1, 183539, Note_off_c, 0, 60, 58
1, 183550, Note_off_c, 0, 77, 56
1, 183563, Note_off_c, 0, 81, 61
1, 183574, Note_off_c, 0, 57, 38
1, 183639, Note_on_c, 0, 83, 95
1, 183640, Note_on_c, 0, 71, 95
1, 183658, Note_off_c, 0, 53, 22
1, 183665, Note_on_c, 0, 80, 50
1, 183681, Note_off_c, 0, 71, 65
1, 183685, Note_off_c, 0, 83, 63
1, 183691, Note_off_c, 0, 80, 58
1, 183790, Note_on_c, 0, 60, 88
1, 183793, Note_on_c, 0, 84, 99
1, 183793, Note_on_c, 0, 57, 78
1, 183796, Note_on_c, 0, 72, 85
1, 183799, Note_on_c, 0, 48, 87
1, 183806, Note_on_c, 0, 53, 37
1, 183811, Note_off_c, 0, 60, 73
1, 183811, Note_on_c, 0, 81, 60
1, 183812, Note_on_c, 0, 76, 46
1, 183814, Note_off_c, 0, 57, 72
1, 183823, Note_off_c, 0, 72, 65
1, 183833, Note_off_c, 0, 81, 61
1, 183835, Note_off_c, 0, 84, 66
1, 183838, Note_off_c, 0, 76, 60
1, 183838, Control_c, 0, 64, 78
1, 183842, Note_off_c, 0, 48, 65
1, 183843, Note_off_c, 0, 53, 47
1, 183852, Control_c, 0, 64, 0
1, 183961, Note_on_c, 0, 81, 102
1, 183964, Note_on_c, 0, 93, 95
1, 183965, Note_on_c, 0, 90, 87
1, 183966, Note_on_c, 0, 40, 89
1, 183969, Note_on_c, 0, 26, 86
1, 183969, Note_on_c, 0, 28, 80
1, 183977, Note_on_c, 0, 38, 72
1, 183989, Note_on_c, 0, 86, 45
1, 183989, Note_off_c, 0, 40, 70
1, 183991, Note_off_c, 0, 93, 62
1, 183993, Note_off_c, 0, 26, 65
1, 183995, Note_off_c, 0, 28, 63
1, 184001, Note_off_c, 0, 38, 61
1, 184002, Note_off_c, 0, 81, 62
1, 184033, Note_off_c, 0, 86, 44
1, 184046, Note_off_c, 0, 90, 64
1, 184146, Note_on_c, 0, 48, 91
1, 184148, Note_on_c, 0, 80, 101
1, 184151, Note_on_c, 0, 36, 81
1, 184153, Note_on_c, 0, 92, 104
1, 184157, Note_on_c, 0, 86, 83
1, 184158, Note_on_c, 0, 90, 78
1, 184171, Note_off_c, 0, 48, 68
1, 184176, Note_off_c, 0, 36, 65
1, 184192, Note_off_c, 0, 80, 64
1, 184222, Note_off_c, 0, 92, 65
1, 184229, Note_off_c, 0, 86, 53
1, 184265, Note_off_c, 0, 90, 55
1, 184350, Control_c, 0, 67, 37
1, 184350, Note_on_c, 0, 62, 91
1, 184352, Note_on_c, 0, 81, 105
1, 184354, Note_on_c, 0, 50, 89
1, 184354, Note_on_c, 0, 93, 99
1, 184355, Note_on_c, 0, 86, 88
1, 184358, Note_on_c, 0, 90, 87
1, 184365, Control_c, 0, 64, 94
1, 184365, Control_c, 0, 67, 31
1, 184365, Note_on_c, 0, 57, 68
1, 184367, Note_on_c, 0, 55, 72
1, 184372, Note_off_c, 0, 62, 67
1, 184376, Note_off_c, 0, 90, 72
1, 184379, Control_c, 0, 64, 127
1, 184379, Control_c, 0, 67, 0
1, 184382, Note_off_c, 0, 50, 66
1, 184383, Note_off_c, 0, 93, 68
1, 184387, Note_off_c, 0, 81, 68
1, 184389, Note_off_c, 0, 57, 68
1, 184390, Note_off_c, 0, 55, 67
1, 184390, Note_off_c, 0, 86, 62
1, 184676, Control_c, 0, 64, 77
1, 184687, Note_on_c, 0, 34, 87
1, 184687, Note_on_c, 0, 46, 106
1, 184691, Control_c, 0, 64, 51
1, 184691, Control_c, 0, 67, 81
1, 184706, Control_c, 0, 64, 53
1, 184706, Control_c, 0, 67, 104
1, 184713, Note_off_c, 0, 34, 67
1, 184720, Control_c, 0, 64, 70
1, 184720, Control_c, 0, 67, 88
1, 184723, Note_off_c, 0, 46, 58
1, 184735, Control_c, 0, 64, 127
1, 184735, Control_c, 0, 67, 59
1, 184750, Control_c, 0, 67, 0
1, 184857, Note_on_c, 0, 60, 83
1, 184860, Note_on_c, 0, 84, 98
1, 184861, Note_on_c, 0, 48, 79
1, 184861, Note_on_c, 0, 72, 97
1, 184863, Note_on_c, 0, 55, 68
1, 184866, Note_on_c, 0, 52, 67
1, 184867, Note_on_c, 0, 76, 83
1, 184875, Note_on_c, 0, 79, 72
1, 184906, Note_off_c, 0, 48, 60
1, 184911, Note_off_c, 0, 60, 60
1, 184914, Note_off_c, 0, 84, 60
1, 184915, Note_off_c, 0, 72, 60
1, 184940, Note_off_c, 0, 52, 60
1, 184940, Note_off_c, 0, 55, 60
1, 184956, Note_off_c, 0, 76, 50
1, 185030, Note_on_c, 0, 71, 96
1, 185030, Note_on_c, 0, 83, 104
1, 185083, Note_off_c, 0, 83, 63
1, 185088, Note_off_c, 0, 71, 56
1, 185096, Note_off_c, 0, 79, 49
1, 185185, Note_on_c, 0, 60, 92
1, 185189, Note_on_c, 0, 55, 84
1, 185189, Note_on_c, 0, 48, 89
1, 185191, Note_on_c, 0, 72, 93
1, 185191, Note_on_c, 0, 84, 98
1, 185193, Note_on_c, 0, 76, 71
1, 185196, Note_on_c, 0, 79, 64
1, 185206, Note_off_c, 0, 60, 72
1, 185215, Note_on_c, 0, 52, 28
1, 185215, Note_off_c, 0, 55, 68
1, 185217, Control_c, 0, 64, 87
1, 185218, Note_off_c, 0, 76, 69
1, 185220, Note_off_c, 0, 79, 64
1, 185224, Note_off_c, 0, 72, 66
1, 185231, Note_off_c, 0, 84, 66
1, 185232, Control_c, 0, 64, 51
1, 185233, Note_off_c, 0, 48, 68
1, 185247, Control_c, 0, 64, 0
1, 185249, Note_off_c, 0, 52, 44
1, 185345, Note_on_c, 0, 45, 105
1, 185346, Note_on_c, 0, 33, 95
1, 185350, Note_on_c, 0, 81, 101
1, 185350, Note_on_c, 0, 93, 98
1, 185367, Note_on_c, 0, 85, 68
1, 185368, Note_on_c, 0, 88, 68
1, 185368, Note_off_c, 0, 45, 70
1, 185369, Note_off_c, 0, 33, 72
1, 185371, Note_on_c, 0, 87, 42
1, 185371, Note_off_c, 0, 87, 127
1, 185382, Note_off_c, 0, 93, 64
1, 185384, Note_on_c, 0, 43, 38
1, 185384, Note_off_c, 0, 43, 127
1, 185388, Note_on_c, 0, 90, 24
1, 185388, Note_off_c, 0, 90, 127
1, 185394, Note_off_c, 0, 81, 58
1, 185429, Poly_aftertouch_c, 0, 43, 0
1, 185441, Note_off_c, 0, 85, 60
1, 185444, Note_off_c, 0, 88, 32
1, 185531, Note_on_c, 0, 57, 91
1, 185531, Note_on_c, 0, 80, 96
1, 185534, Note_on_c, 0, 92, 100
1, 185539, Note_on_c, 0, 45, 72
1, 185539, Note_on_c, 0, 85, 91
1, 185542, Note_on_c, 0, 88, 84
1, 185552, Note_off_c, 0, 57, 69
1, 185569, Note_off_c, 0, 45, 65
1, 185572, Note_on_c, 0, 52, 15
1, 185572, Note_off_c, 0, 52, 127
1, 185575, Note_off_c, 0, 80, 65
1, 185598, Note_off_c, 0, 92, 66
1, 185607, Note_off_c, 0, 85, 60
1, 185686, Note_off_c, 0, 88, 28
1, 185721, Control_c, 0, 67, 28
1, 185732, Note_on_c, 0, 69, 104
1, 185741, Note_on_c, 0, 57, 83
1, 185741, Note_on_c, 0, 81, 112
1, 185742, Note_on_c, 0, 64, 84
1, 185742, Note_on_c, 0, 93, 98
1, 185742, Control_c, 0, 64, 69
1, 185742, Control_c, 0, 67, 22
1, 185745, Note_on_c, 0, 85, 96
1, 185748, Note_on_c, 0, 61, 90
1, 185754, Note_on_c, 0, 88, 48
1, 185757, Control_c, 0, 64, 127
1, 185757, Control_c, 0, 67, 0
1, 185762, Note_on_c, 0, 90, 55
1, 185771, Note_off_c, 0, 64, 60
1, 185772, Note_off_c, 0, 69, 63
1, 185775, Note_off_c, 0, 57, 64
1, 185775, Note_off_c, 0, 93, 66
1, 185778, Note_off_c, 0, 81, 66
1, 185780, Note_off_c, 0, 90, 63
1, 185781, Note_off_c, 0, 85, 67
1, 185786, Note_off_c, 0, 88, 53
1, 185791, Note_off_c, 0, 61, 62
1, 186067, Note_on_c, 0, 50, 102
1, 186070, Control_c, 0, 64, 67
1, 186070, Control_c, 0, 67, 41
1, 186070, Note_on_c, 0, 38, 101
1, 186085, Control_c, 0, 64, 0
1, 186085, Control_c, 0, 67, 39
1, 186092, Note_off_c, 0, 38, 73
1, 186094, Note_on_c, 0, 48, 58
1, 186094, Note_off_c, 0, 48, 127
1, 186097, Note_off_c, 0, 50, 64
1, 186100, Control_c, 0, 67, 25
1, 186114, Control_c, 0, 64, 59
1, 186114, Control_c, 0, 67, 0
1, 186129, Control_c, 0, 64, 103
1, 186144, Control_c, 0, 64, 127
1, 186233, Note_on_c, 0, 66, 94
1, 186241, Note_on_c, 0, 54, 75
1, 186242, Note_on_c, 0, 86, 95
1, 186244, Note_on_c, 0, 62, 69
1, 186245, Note_on_c, 0, 57, 77
1, 186245, Note_on_c, 0, 74, 102
1, 186249, Note_on_c, 0, 78, 85
1, 186249, Note_on_c, 0, 81, 86
1, 186270, Note_off_c, 0, 54, 64
1, 186278, Note_off_c, 0, 86, 64
1, 186279, Note_off_c, 0, 74, 64
1, 186287, Note_off_c, 0, 66, 63
1, 186309, Note_off_c, 0, 57, 61
1, 186309, Note_off_c, 0, 62, 60
1, 186344, Note_off_c, 0, 81, 53
1, 186373, Note_off_c, 0, 78, 62
1, 186406, Note_on_c, 0, 81, 31
1, 186407, Note_on_c, 0, 73, 106
1, 186413, Note_on_c, 0, 85, 102
1, 186433, Note_on_c, 0, 78, 36
1, 186443, Note_off_c, 0, 81, 58
1, 186460, Note_off_c, 0, 78, 61
1, 186478, Note_off_c, 0, 73, 59
1, 186501, Note_off_c, 0, 85, 62
1, 186571, Note_on_c, 0, 66, 98
1, 186574, Note_on_c, 0, 54, 93
1, 186574, Note_on_c, 0, 74, 102
1, 186574, Note_on_c, 0, 78, 84
1, 186576, Note_on_c, 0, 86, 100
1, 186592, Note_off_c, 0, 66, 69
1, 186598, Note_on_c, 0, 62, 45
1, 186603, Note_off_c, 0, 74, 67
1, 186610, Note_off_c, 0, 78, 68
1, 186611, Control_c, 0, 64, 67
1, 186615, Note_off_c, 0, 86, 67
1, 186618, Note_off_c, 0, 54, 65
1, 186621, Note_off_c, 0, 62, 57
1, 186626, Control_c, 0, 64, 0
1, 186637, Poly_aftertouch_c, 0, 81, 0
1, 186676, Poly_aftertouch_c, 0, 57, 0
1, 186740, Note_on_c, 0, 44, 108
1, 186744, Note_on_c, 0, 95, 97
1, 186745, Note_on_c, 0, 32, 91
1, 186747, Note_on_c, 0, 83, 103
1, 186755, Note_on_c, 0, 88, 78
1, 186763, Note_off_c, 0, 44, 67
1, 186765, Note_off_c, 0, 32, 66
1, 186770, Note_off_c, 0, 88, 70
1, 186792, Note_off_c, 0, 83, 64
1, 186800, Note_off_c, 0, 95, 54
1, 186932, Note_on_c, 0, 64, 92
1, 186936, Note_on_c, 0, 82, 106
1, 186938, Note_on_c, 0, 52, 83
1, 186939, Note_on_c, 0, 94, 108
1, 186941, Note_on_c, 0, 56, 75
1, 186945, Note_on_c, 0, 88, 91
1, 186964, Note_off_c, 0, 52, 66
1, 186965, Note_off_c, 0, 56, 65
1, 186967, Note_off_c, 0, 64, 64
1, 186976, Note_off_c, 0, 82, 65
1, 187012, Note_off_c, 0, 88, 52
1, 187016, Note_off_c, 0, 94, 65
1, 187160, Control_c, 0, 64, 49
1, 187160, Control_c, 0, 67, 24
1, 187164, Note_on_c, 0, 88, 94
1, 187166, Note_on_c, 0, 64, 94
1, 187166, Note_on_c, 0, 95, 99
1, 187167, Note_on_c, 0, 76, 103
1, 187167, Note_on_c, 0, 83, 109
1, 187171, Note_on_c, 0, 68, 92
1, 187175, Control_c, 0, 64, 127
1, 187175, Control_c, 0, 67, 0
1, 187183, Note_on_c, 0, 71, 73
1, 187185, Note_on_c, 0, 72, 65
1, 187194, Note_off_c, 0, 95, 68
1, 187196, Note_off_c, 0, 76, 68
1, 187199, Note_off_c, 0, 88, 68
1, 187202, Note_off_c, 0, 64, 67
1, 187203, Note_off_c, 0, 72, 67
1, 187203, Note_off_c, 0, 83, 64
1, 187206, Note_off_c, 0, 71, 68
1, 187211, Note_off_c, 0, 68, 67
1, 187423, Poly_aftertouch_c, 0, 85, 127
1, 187469, Poly_aftertouch_c, 0, 85, 0
1, 187552, Control_c, 0, 64, 91
1, 187567, Control_c, 0, 64, 38
1, 187577, Note_on_c, 0, 43, 107
1, 187582, Note_on_c, 0, 31, 97
1, 187582, Control_c, 0, 64, 0
1, 187582, Control_c, 0, 67, 60
1, 187596, Control_c, 0, 64, 56
1, 187596, Control_c, 0, 67, 87
1, 187604, Note_off_c, 0, 31, 71
1, 187611, Note_off_c, 0, 43, 68
1, 187611, Control_c, 0, 64, 91
1, 187611, Control_c, 0, 67, 77
1, 187626, Control_c, 0, 64, 127
1, 187626, Control_c, 0, 67, 70
1, 187641, Control_c, 0, 67, 62
1, 187657, Control_c, 0, 67, 57
1, 187672, Control_c, 0, 67, 58
1, 187680, Poly_aftertouch_c, 0, 83, 127
1, 187692, Poly_aftertouch_c, 0, 33, 0
1, 187700, Poly_aftertouch_c, 0, 79, 0
1, 187701, Control_c, 0, 67, 55
1, 187716, Control_c, 0, 67, 48
1, 187731, Control_c, 0, 67, 42
1, 187745, Poly_aftertouch_c, 0, 86, 0
1, 187745, Control_c, 0, 67, 40
1, 187760, Control_c, 0, 67, 42
1, 187771, Poly_aftertouch_c, 0, 83, 0
1, 187775, Control_c, 0, 67, 41
1, 187790, Control_c, 0, 67, 35
1, 187796, Note_on_c, 0, 59, 93
1, 187800, Note_on_c, 0, 50, 90
1, 187803, Note_on_c, 0, 53, 83
1, 187804, Note_on_c, 0, 79, 99
1, 187804, Note_on_c, 0, 91, 96
1, 187805, Control_c, 0, 67, 0
1, 187806, Note_on_c, 0, 83, 83
1, 187808, Note_on_c, 0, 86, 82
1, 187810, Note_on_c, 0, 55, 76
1, 187843, Note_off_c, 0, 91, 64
1, 187850, Note_off_c, 0, 79, 65
1, 187993, Note_off_c, 0, 83, 56
1, 188061, Note_off_c, 0, 86, 61
1, 188076, Note_on_c, 0, 78, 104
1, 188079, Note_on_c, 0, 90, 101
1, 188105, Note_off_c, 0, 53, 60
1, 188109, Note_off_c, 0, 50, 60
1, 188111, Note_off_c, 0, 55, 61
1, 188121, Note_off_c, 0, 78, 62
1, 188124, Control_c, 0, 67, 19
1, 188124, Note_off_c, 0, 59, 52
1, 188138, Control_c, 0, 67, 0
1, 188166, Note_off_c, 0, 90, 64
1, 188336, Note_on_c, 0, 50, 94
1, 188338, Note_on_c, 0, 59, 96
1, 188341, Note_on_c, 0, 53, 92
1, 188341, Note_on_c, 0, 55, 96
1, 188343, Note_on_c, 0, 79, 97
1, 188344, Note_on_c, 0, 83, 90
1, 188344, Note_on_c, 0, 91, 106
1, 188360, Note_on_c, 0, 86, 58
1, 188361, Note_off_c, 0, 59, 67
1, 188371, Note_off_c, 0, 55, 70
1, 188373, Note_off_c, 0, 79, 65
1, 188377, Note_off_c, 0, 50, 64
1, 188377, Note_off_c, 0, 53, 63
1, 188378, Note_off_c, 0, 83, 64
1, 188380, Note_off_c, 0, 86, 60
1, 188387, Note_off_c, 0, 91, 65
1, 188610, Note_on_c, 0, 36, 103
1, 188616, Note_on_c, 0, 24, 101
1, 188617, Note_on_c, 0, 96, 103
1, 188619, Note_on_c, 0, 84, 106
1, 188619, Note_on_c, 0, 88, 99
1, 188628, Note_on_c, 0, 91, 82
1, 188628, Control_c, 0, 64, 87
1, 188633, Note_on_c, 0, 86, 75
1, 188640, Note_on_c, 0, 94, 61
1, 188640, Note_off_c, 0, 24, 66
1, 188643, Control_c, 0, 64, 0
1, 188645, Note_on_c, 0, 92, 58
1, 188645, Note_off_c, 0, 36, 67
1, 188647, Note_off_c, 0, 91, 70
1, 188649, Note_off_c, 0, 86, 43
1, 188651, Note_off_c, 0, 88, 64
1, 188660, Note_off_c, 0, 94, 63
1, 188664, Note_off_c, 0, 84, 65
1, 188667, Note_off_c, 0, 92, 39
1, 188683, Note_off_c, 0, 96, 60
1, 188750, Note_on_c, 0, 94, 51
1, 188756, Note_on_c, 0, 90, 57
1, 188774, Note_off_c, 0, 94, 58
1, 188780, Note_off_c, 0, 90, 66
1, 188846, Note_on_c, 0, 95, 93
1, 188847, Note_on_c, 0, 59, 97
1, 188848, Note_on_c, 0, 48, 91
1, 188848, Note_on_c, 0, 83, 103
1, 188850, Note_on_c, 0, 53, 89
1, 188850, Note_on_c, 0, 92, 77
1, 188857, Note_on_c, 0, 56, 81
1, 188857, Note_on_c, 0, 89, 73
1, 188872, Note_on_c, 0, 90, 57
1, 188884, Note_off_c, 0, 48, 66
1, 188887, Note_off_c, 0, 53, 62
1, 188890, Note_off_c, 0, 59, 62
1, 188890, Note_on_c, 0, 94, 8
1, 188893, Note_off_c, 0, 90, 60
1, 188896, Note_off_c, 0, 56, 61
1, 188901, Note_off_c, 0, 83, 65
1, 188922, Note_off_c, 0, 95, 63
1, 188924, Note_off_c, 0, 89, 62
1, 188940, Note_off_c, 0, 94, 51
1, 188944, Note_off_c, 0, 92, 63
1, 189035, Control_c, 0, 64, 127
1, 189036, Note_on_c, 0, 60, 96
1, 189039, Note_on_c, 0, 48, 90
1, 189039, Note_on_c, 0, 84, 107
1, 189039, Note_on_c, 0, 55, 83
1, 189039, Note_on_c, 0, 91, 86
1, 189040, Note_on_c, 0, 88, 95
1, 189042, Note_on_c, 0, 96, 86
1, 189043, Note_on_c, 0, 98, 94
1, 189048, Note_on_c, 0, 52, 82
1, 189059, Note_on_c, 0, 94, 66
1, 189060, Note_off_c, 0, 98, 74
1, 189064, Note_off_c, 0, 96, 69
1, 189080, Note_off_c, 0, 94, 62
1, 189081, Note_off_c, 0, 91, 65
1, 189082, Note_off_c, 0, 84, 64
1, 189083, Note_off_c, 0, 88, 66
1, 189087, Note_off_c, 0, 60, 61
1, 189092, Note_off_c, 0, 48, 56
1, 189111, Note_off_c, 0, 52, 61
1, 189143, Note_off_c, 0, 55, 56
1, 189343, Note_on_c, 0, 60, 86
1, 189343, Note_on_c, 0, 84, 93
1, 189344, Note_on_c, 0, 48, 81
1, 189345, Note_on_c, 0, 72, 93
1, 189346, Control_c, 0, 64, 74
1, 189348, Note_on_c, 0, 52, 75
1, 189349, Note_on_c, 0, 55, 79
1, 189349, Note_on_c, 0, 79, 82
1, 189350, Note_on_c, 0, 76, 86
1, 189361, Control_c, 0, 64, 0
1, 189370, Note_off_c, 0, 60, 68
1, 189372, Note_off_c, 0, 76, 67
1, 189375, Note_off_c, 0, 79, 69
1, 189376, Note_off_c, 0, 48, 65
1, 189376, Note_off_c, 0, 72, 64
1, 189377, Note_off_c, 0, 52, 63
1, 189380, Note_off_c, 0, 55, 68
1, 189387, Note_off_c, 0, 84, 63
1, 189494, Note_on_c, 0, 71, 97
1, 189495, Note_on_c, 0, 83, 91
1, 189496, Note_on_c, 0, 80, 85
1, 189501, Note_on_c, 0, 48, 76
1, 189501, Note_on_c, 0, 53, 81
1, 189502, Note_on_c, 0, 59, 77
1, 189502, Note_on_c, 0, 77, 69
1, 189512, Note_on_c, 0, 56, 67
1, 189524, Note_off_c, 0, 71, 67
1, 189526, Note_off_c, 0, 59, 66
1, 189527, Note_off_c, 0, 77, 69
1, 189535, Note_on_c, 0, 76, 36
1, 189535, Note_off_c, 0, 76, 127
1, 189535, Note_off_c, 0, 48, 64
1, 189538, Note_off_c, 0, 56, 65
1, 189541, Note_off_c, 0, 83, 63
1, 189544, Note_off_c, 0, 53, 61
1, 189546, Note_off_c, 0, 80, 64
1, 189632, Note_on_c, 0, 72, 103
1, 189634, Note_on_c, 0, 84, 103
1, 189637, Note_on_c, 0, 55, 79
1, 189637, Note_on_c, 0, 60, 85
1, 189637, Note_on_c, 0, 76, 87
1, 189639, Note_on_c, 0, 79, 88
1, 189641, Note_on_c, 0, 48, 79
1, 189650, Control_c, 0, 64, 92
1, 189652, Note_on_c, 0, 52, 42
1, 189655, Note_off_c, 0, 76, 75
1, 189657, Note_off_c, 0, 79, 73
1, 189661, Note_off_c, 0, 84, 61
1, 189662, Note_off_c, 0, 72, 66
1, 189665, Control_c, 0, 64, 127
1, 189671, Note_off_c, 0, 60, 61
1, 189677, Note_off_c, 0, 52, 59
1, 189681, Note_off_c, 0, 48, 60
1, 189681, Note_off_c, 0, 55, 63
1, 189725, Poly_aftertouch_c, 0, 53, 127
1, 189758, Poly_aftertouch_c, 0, 53, 0
1, 189890, Note_on_c, 0, 72, 89
1, 189892, Note_on_c, 0, 55, 85
1, 189894, Note_on_c, 0, 48, 76
1, 189894, Note_on_c, 0, 60, 93
1, 189898, Note_on_c, 0, 52, 75
1, 189901, Note_on_c, 0, 64, 73
1, 189903, Note_on_c, 0, 67, 70
1, 189916, Control_c, 0, 64, 74
1, 189922, Note_off_c, 0, 48, 64
1, 189923, Note_off_c, 0, 60, 66
1, 189923, Note_off_c, 0, 64, 70
1, 189925, Note_off_c, 0, 67, 70
1, 189927, Note_off_c, 0, 55, 63
1, 189931, Note_off_c, 0, 52, 63
1, 189931, Control_c, 0, 64, 0
1, 189935, Note_off_c, 0, 72, 63
1, 190029, Note_on_c, 0, 59, 85
1, 190034, Note_on_c, 0, 48, 72
1, 190035, Note_on_c, 0, 56, 87
1, 190037, Note_on_c, 0, 65, 76
1, 190038, Note_on_c, 0, 68, 70
1, 190039, Note_on_c, 0, 71, 76
1, 190050, Note_on_c, 0, 52, 50
1, 190057, Note_off_c, 0, 59, 64
1, 190063, Note_off_c, 0, 65, 69
1, 190069, Note_off_c, 0, 71, 65
1, 190071, Note_off_c, 0, 56, 64
1, 190072, Note_off_c, 0, 48, 63
1, 190072, Note_off_c, 0, 68, 63
1, 190074, Note_off_c, 0, 52, 57
1, 190154, Control_c, 0, 64, 47
1, 190154, Control_c, 0, 67, 20
1, 190160, Note_on_c, 0, 72, 101
1, 190160, Note_on_c, 0, 55, 91
1, 190160, Note_on_c, 0, 60, 96
1, 190164, Note_on_c, 0, 64, 80
1, 190166, Note_on_c, 0, 52, 72
1, 190166, Note_on_c, 0, 67, 75
1, 190169, Note_on_c, 0, 48, 74
1, 190169, Control_c, 0, 64, 127
1, 190169, Control_c, 0, 67, 0
1, 190179, Note_off_c, 0, 55, 72
1, 190182, Note_off_c, 0, 64, 72
1, 190184, Note_off_c, 0, 60, 67
1, 190188, Note_off_c, 0, 67, 70
1, 190190, Note_off_c, 0, 52, 66
1, 190190, Note_off_c, 0, 72, 65
1, 190196, Note_off_c, 0, 48, 65
1, 190276, Poly_aftertouch_c, 0, 47, 0
1, 190449, Note_on_c, 0, 60, 98
1, 190455, Note_on_c, 0, 48, 95
1, 190458, Control_c, 0, 64, 74
1, 190459, Note_on_c, 0, 36, 94
1, 190473, Control_c, 0, 64, 39
1, 190482, Note_off_c, 0, 60, 72
1, 190485, Note_off_c, 0, 36, 67
1, 190485, Note_off_c, 0, 48, 64
1, 190488, Control_c, 0, 64, 0
1, 190631, Note_on_c, 0, 59, 98
1, 190634, Note_on_c, 0, 47, 94
1, 190636, Note_on_c, 0, 35, 95
1, 190661, Note_off_c, 0, 35, 69
1, 190665, Note_off_c, 0, 47, 65
1, 190673, Note_off_c, 0, 59, 68
1, 190874, Note_on_c, 0, 60, 98
1, 190875, Note_on_c, 0, 48, 103
1, 190878, Note_on_c, 0, 36, 92
1, 191177, Control_c, 0, 67, 19
1, 191192, Control_c, 0, 67, 24
1, 191207, Control_c, 0, 67, 29
1, 191281, Control_c, 0, 64, 39
1, 191281, Control_c, 0, 67, 34
1, 191296, Control_c, 0, 64, 47
1, 191296, Control_c, 0, 67, 42
1, 191311, Control_c, 0, 64, 52
1, 191311, Control_c, 0, 67, 46
1, 191326, Control_c, 0, 64, 54
1, 191355, Control_c, 0, 64, 54
1, 191370, Control_c, 0, 64, 55
1, 191370, Control_c, 0, 67, 47
1, 191385, Control_c, 0, 67, 49
1, 191399, Control_c, 0, 67, 50
1, 191414, Control_c, 0, 64, 55
1, 191414, Control_c, 0, 67, 51
1, 191444, Control_c, 0, 64, 56
1, 191444, Control_c, 0, 67, 51
1, 191459, Control_c, 0, 64, 56
1, 191459, Control_c, 0, 67, 52
1, 191473, Control_c, 0, 64, 57
1, 191473, Control_c, 0, 67, 54
1, 191488, Control_c, 0, 67, 58
1, 191503, Control_c, 0, 67, 60
1, 191533, Control_c, 0, 64, 57
1, 191547, Control_c, 0, 64, 58
1, 191562, Control_c, 0, 64, 58
1, 191562, Control_c, 0, 67, 61
1, 191577, Control_c, 0, 67, 62
1, 191592, Control_c, 0, 67, 64
1, 191606, Control_c, 0, 64, 59
1, 191606, Control_c, 0, 67, 68
1, 191621, Control_c, 0, 67, 69
1, 191636, Control_c, 0, 64, 59
1, 191636, Control_c, 0, 67, 69
1, 191652, Control_c, 0, 64, 60
1, 191652, Control_c, 0, 67, 70
1, 191667, Control_c, 0, 67, 71
1, 191682, Control_c, 0, 64, 60
1, 191682, Control_c, 0, 67, 72
1, 191697, Control_c, 0, 67, 75
1, 191711, Control_c, 0, 64, 61
1, 191711, Control_c, 0, 67, 78
1, 191734, Control_c, 0, 64, 61
1, 191734, Control_c, 0, 67, 79
1, 191749, Control_c, 0, 64, 62
1, 191749, Control_c, 0, 67, 80
1, 191764, Control_c, 0, 67, 81
1, 191779, Control_c, 0, 64, 62
1, 191779, Control_c, 0, 67, 83
1, 191793, Control_c, 0, 64, 63
1, 191793, Control_c, 0, 67, 85
1, 191808, Control_c, 0, 64, 63
1, 191808, Control_c, 0, 67, 89
1, 191823, Control_c, 0, 64, 64
1, 191823, Control_c, 0, 67, 91
1, 191837, Control_c, 0, 64, 64
1, 191837, Control_c, 0, 67, 93
1, 191852, Control_c, 0, 67, 93
1, 191882, Control_c, 0, 64, 65
1, 191882, Control_c, 0, 67, 94
1, 191897, Control_c, 0, 67, 95
1, 191911, Control_c, 0, 64, 65
1, 191911, Control_c, 0, 67, 97
1, 191926, Control_c, 0, 67, 100
1, 191941, Control_c, 0, 64, 66
1, 191956, Control_c, 0, 67, 102
1, 192015, Control_c, 0, 64, 66
1, 192104, Control_c, 0, 67, 104
1, 192133, Control_c, 0, 67, 109
1, 192148, Control_c, 0, 64, 67
1, 192148, Control_c, 0, 67, 112
1, 192178, Control_c, 0, 67, 115
1, 192208, Control_c, 0, 64, 67
1, 192208, Control_c, 0, 67, 118
1, 192222, Control_c, 0, 67, 121
1, 192237, Control_c, 0, 64, 68
1, 192237, Control_c, 0, 67, 124
1, 192252, Control_c, 0, 64, 68
1, 192252, Control_c, 0, 67, 127
1, 192267, Control_c, 0, 64, 69
1, 192282, Control_c, 0, 64, 70
1, 192296, Control_c, 0, 64, 71
1, 192311, Control_c, 0, 64, 73
1, 192326, Control_c, 0, 64, 75
1, 192341, Control_c, 0, 64, 77
1, 192356, Control_c, 0, 64, 79
1, 192370, Control_c, 0, 64, 80
1, 192385, Control_c, 0, 64, 81
1, 192400, Control_c, 0, 64, 83
1, 192415, Control_c, 0, 64, 86
1, 192429, Control_c, 0, 64, 88
1, 192445, Control_c, 0, 64, 92
1, 192451, Note_off_c, 0, 36, 48
1, 192460, Control_c, 0, 64, 95
1, 192482, Control_c, 0, 64, 99
1, 192497, Control_c, 0, 64, 104
1, 192512, Control_c, 0, 64, 110
1, 192527, Control_c, 0, 64, 122
1, 192542, Control_c, 0, 64, 127
1, 192697, Note_off_c, 0, 60, 37
1, 193081, Note_off_c, 0, 48, 41
1, 193735, Note_on_c, 0, 48, 46
1, 193764, Control_c, 0, 64, 104
1, 193779, Control_c, 0, 64, 94
1, 193794, Control_c, 0, 64, 88
1, 193809, Control_c, 0, 64, 85
1, 193824, Control_c, 0, 64, 82
1, 193827, Note_on_c, 0, 72, 55
1, 193838, Control_c, 0, 64, 80
1, 193853, Control_c, 0, 64, 76
1, 193868, Control_c, 0, 64, 72
1, 193883, Control_c, 0, 64, 67
1, 193898, Control_c, 0, 64, 64
1, 193913, Control_c, 0, 64, 61
1, 193915, Note_on_c, 0, 74, 63
1, 193916, Note_off_c, 0, 48, 62
1, 193919, Note_off_c, 0, 72, 53
1, 193923, Note_on_c, 0, 50, 48
1, 193928, Control_c, 0, 64, 58
1, 193943, Control_c, 0, 64, 55
1, 193957, Control_c, 0, 64, 55
1, 193994, Control_c, 0, 64, 53
1, 194008, Note_on_c, 0, 76, 69
1, 194008, Control_c, 0, 64, 51
1, 194009, Note_on_c, 0, 52, 49
1, 194013, Note_off_c, 0, 50, 56
1, 194023, Control_c, 0, 64, 48
1, 194038, Control_c, 0, 64, 45
1, 194059, Note_off_c, 0, 74, 61
1, 194076, Note_on_c, 0, 77, 67
1, 194084, Control_c, 0, 64, 43
1, 194091, Note_on_c, 0, 53, 64
1, 194097, Note_off_c, 0, 52, 62
1, 194098, Control_c, 0, 64, 41
1, 194113, Control_c, 0, 64, 38
1, 194152, Note_off_c, 0, 76, 54
1, 194158, Control_c, 0, 64, 35
1, 194164, Note_on_c, 0, 79, 80
1, 194172, Control_c, 0, 64, 0
1, 194182, Note_off_c, 0, 53, 61
1, 194192, Note_on_c, 0, 55, 59
1, 194216, Note_off_c, 0, 77, 64
1, 194233, Note_off_c, 0, 79, 67
1, 194303, Note_on_c, 0, 81, 66
1, 194328, Note_on_c, 0, 57, 49
1, 194329, Note_off_c, 0, 55, 52
1, 194469, Control_c, 0, 64, 38
1, 194484, Control_c, 0, 64, 55
1, 194498, Control_c, 0, 64, 63
1, 194513, Control_c, 0, 64, 66
1, 194528, Control_c, 0, 64, 69
1, 194544, Control_c, 0, 64, 75
1, 194559, Control_c, 0, 64, 82
1, 194573, Control_c, 0, 64, 90
1, 194588, Control_c, 0, 64, 102
1, 194603, Control_c, 0, 64, 127
1, 194736, Note_off_c, 0, 81, 55
1, 194906, Note_on_c, 0, 68, 50
1, 194924, Note_on_c, 0, 64, 44
1, 194937, Control_c, 0, 64, 111
1, 194949, Note_on_c, 0, 80, 58
1, 194950, Note_on_c, 0, 81, 58
1, 194952, Control_c, 0, 64, 86
1, 194967, Control_c, 0, 64, 71
1, 194969, Note_on_c, 0, 76, 50
1, 194982, Control_c, 0, 64, 62
1, 194996, Control_c, 0, 64, 56
1, 195011, Control_c, 0, 64, 58
1, 195026, Control_c, 0, 64, 62
1, 195041, Control_c, 0, 64, 66
1, 195049, Note_off_c, 0, 64, 57
1, 195055, Control_c, 0, 64, 73
1, 195070, Control_c, 0, 64, 81
1, 195072, Note_off_c, 0, 76, 50
1, 195085, Control_c, 0, 64, 88
1, 195100, Control_c, 0, 64, 92
1, 195108, Note_off_c, 0, 68, 36
1, 195115, Control_c, 0, 64, 97
1, 195123, Note_off_c, 0, 80, 49
1, 195129, Control_c, 0, 64, 106
1, 195144, Control_c, 0, 64, 127
1, 195150, Note_off_c, 0, 81, 35
1, 195426, Control_c, 0, 64, 91
1, 195441, Note_on_c, 0, 67, 41
1, 195441, Control_c, 0, 64, 75
1, 195445, Note_on_c, 0, 81, 48
1, 195448, Note_on_c, 0, 79, 53
1, 195450, Note_on_c, 0, 63, 35
1, 195450, Note_on_c, 0, 75, 38
1, 195455, Control_c, 0, 64, 63
1, 195478, Control_c, 0, 64, 47
1, 195493, Control_c, 0, 64, 0
1, 195552, Control_c, 0, 64, 49
1, 195567, Control_c, 0, 64, 63
1, 195581, Control_c, 0, 64, 70
1, 195596, Control_c, 0, 64, 75
1, 195611, Control_c, 0, 64, 78
1, 195626, Control_c, 0, 64, 82
1, 195639, Note_off_c, 0, 63, 41
1, 195641, Control_c, 0, 64, 88
1, 195643, Note_off_c, 0, 67, 37
1, 195645, Note_off_c, 0, 79, 56
1, 195648, Note_off_c, 0, 75, 60
1, 195657, Control_c, 0, 64, 94
1, 195671, Control_c, 0, 64, 102
1, 195686, Control_c, 0, 64, 114
1, 195701, Control_c, 0, 64, 127
1, 195735, Note_off_c, 0, 81, 42
1, 196070, Control_c, 0, 64, 110
1, 196085, Control_c, 0, 64, 93
1, 196092, Note_on_c, 0, 65, 42
1, 196100, Control_c, 0, 64, 83
1, 196109, Note_on_c, 0, 61, 39
1, 196109, Note_on_c, 0, 81, 49
1, 196115, Control_c, 0, 64, 75
1, 196116, Note_on_c, 0, 73, 38
1, 196117, Note_on_c, 0, 77, 38
1, 196130, Control_c, 0, 64, 66
1, 196144, Control_c, 0, 64, 56
1, 196159, Control_c, 0, 64, 37
1, 196174, Control_c, 0, 64, 0
1, 196285, Control_c, 0, 64, 46
1, 196300, Note_off_c, 0, 73, 60
1, 196300, Control_c, 0, 64, 62
1, 196306, Note_off_c, 0, 57, 56
1, 196315, Control_c, 0, 64, 72
1, 196330, Control_c, 0, 64, 84
1, 196333, Note_off_c, 0, 61, 61
1, 196341, Note_off_c, 0, 81, 63
1, 196345, Control_c, 0, 64, 99
1, 196353, Note_off_c, 0, 77, 64
1, 196359, Control_c, 0, 64, 127
1, 196394, Note_off_c, 0, 65, 42
1, 196563, Note_on_c, 0, 58, 37
1, 196612, Note_on_c, 0, 62, 47
1, 196626, Control_c, 0, 64, 94
1, 196641, Control_c, 0, 64, 67
1, 196656, Control_c, 0, 64, 0
1, 196662, Note_on_c, 0, 86, 53
1, 196672, Note_on_c, 0, 77, 46
1, 196673, Note_on_c, 0, 74, 50
1, 196676, Note_on_c, 0, 65, 53
1, 196694, Note_off_c, 0, 86, 59
1, 196695, Note_off_c, 0, 77, 56
1, 196696, Note_off_c, 0, 74, 56
1, 196834, Note_off_c, 0, 65, 0
1, 196871, Poly_aftertouch_c, 0, 65, 127
1, 196953, Note_on_c, 0, 85, 55
1, 196954, Note_on_c, 0, 77, 43
1, 196955, Note_off_c, 0, 62, 55
1, 196957, Note_on_c, 0, 73, 52
1, 196960, Note_on_c, 0, 63, 48
1, 196986, Note_off_c, 0, 77, 60
1, 196995, Note_off_c, 0, 73, 55
1, 196998, Poly_aftertouch_c, 0, 65, 0
1, 197001, Note_off_c, 0, 85, 62
1, 197255, Note_on_c, 0, 86, 57
1, 197258, Control_c, 0, 64, 35
1, 197259, Note_on_c, 0, 77, 38
1, 197264, Note_on_c, 0, 65, 41
1, 197265, Note_off_c, 0, 63, 43
1, 197269, Note_on_c, 0, 74, 47
1, 197272, Note_on_c, 0, 62, 40
1, 197272, Control_c, 0, 64, 54
1, 197287, Control_c, 0, 64, 66
1, 197302, Control_c, 0, 64, 72
1, 197317, Control_c, 0, 64, 78
1, 197332, Control_c, 0, 64, 86
1, 197347, Control_c, 0, 64, 102
1, 197362, Control_c, 0, 64, 127
1, 197394, Note_off_c, 0, 62, 60
1, 197395, Note_off_c, 0, 58, 61
1, 197493, Note_off_c, 0, 77, 63
1, 197642, Control_c, 0, 64, 69
1, 197657, Control_c, 0, 64, 34
1, 197663, Note_on_c, 0, 53, 60
1, 197672, Control_c, 0, 64, 0
1, 197677, Note_off_c, 0, 74, 57
1, 197687, Control_c, 0, 64, 39
1, 197688, Note_off_c, 0, 65, 56
1, 197689, Note_off_c, 0, 53, 64
1, 197702, Control_c, 0, 64, 59
1, 197724, Control_c, 0, 64, 66
1, 197739, Control_c, 0, 64, 69
1, 197754, Control_c, 0, 64, 73
1, 197758, Note_off_c, 0, 86, 54
1, 197768, Control_c, 0, 64, 75
1, 197783, Control_c, 0, 64, 76
1, 197842, Control_c, 0, 64, 76
1, 197857, Control_c, 0, 64, 75
1, 197872, Control_c, 0, 64, 66
1, 197878, Note_on_c, 0, 81, 86
1, 197880, Note_on_c, 0, 65, 51
1, 197885, Note_on_c, 0, 69, 59
1, 197887, Control_c, 0, 64, 43
1, 197890, Note_on_c, 0, 73, 61
1, 197902, Control_c, 0, 64, 0
1, 197913, Note_off_c, 0, 81, 62
1, 197916, Note_on_c, 0, 82, 81
1, 197919, Note_off_c, 0, 73, 64
1, 197931, Control_c, 0, 64, 51
1, 197946, Control_c, 0, 64, 68
1, 197961, Control_c, 0, 64, 76
1, 197964, Note_on_c, 0, 81, 84
1, 197968, Note_off_c, 0, 65, 55
1, 197969, Note_off_c, 0, 82, 64
1, 197973, Note_off_c, 0, 69, 36
1, 197976, Control_c, 0, 64, 78
1, 198006, Control_c, 0, 64, 79
1, 198021, Control_c, 0, 64, 86
1, 198029, Note_off_c, 0, 81, 63
1, 198033, Note_on_c, 0, 80, 88
1, 198036, Control_c, 0, 64, 94
1, 198051, Control_c, 0, 64, 100
1, 198110, Control_c, 0, 64, 105
1, 198125, Control_c, 0, 64, 109
1, 198178, Note_off_c, 0, 80, 58
1, 198185, Control_c, 0, 64, 111
1, 198208, Note_on_c, 0, 73, 73
1, 198214, Note_on_c, 0, 81, 87
1, 198214, Note_on_c, 0, 69, 65
1, 198229, Note_off_c, 0, 73, 71
1, 198234, Note_off_c, 0, 69, 66
1, 198273, Control_c, 0, 64, 124
1, 198279, Poly_aftertouch_c, 0, 65, 127
1, 198288, Control_c, 0, 64, 127
1, 198319, Poly_aftertouch_c, 0, 65, 0
1, 198362, Control_c, 0, 64, 92
1, 198377, Control_c, 0, 64, 55
1, 198378, Note_on_c, 0, 46, 72
1, 198382, Note_on_c, 0, 86, 72
1, 198387, Note_off_c, 0, 81, 63
1, 198391, Control_c, 0, 64, 0
1, 198398, Note_off_c, 0, 46, 65
1, 198402, Note_off_c, 0, 86, 70
1, 198573, Note_on_c, 0, 74, 59
1, 198575, Note_on_c, 0, 62, 53
1, 198585, Note_on_c, 0, 85, 79
1, 198590, Note_on_c, 0, 70, 53
1, 198595, Note_on_c, 0, 65, 48
1, 198603, Note_off_c, 0, 85, 73
1, 198724, Control_c, 0, 64, 56
1, 198739, Control_c, 0, 64, 67
1, 198754, Control_c, 0, 64, 75
1, 198756, Note_off_c, 0, 70, 60
1, 198763, Note_on_c, 0, 86, 85
1, 198765, Note_off_c, 0, 74, 56
1, 198767, Note_off_c, 0, 62, 58
1, 198769, Control_c, 0, 64, 88
1, 198784, Control_c, 0, 64, 120
1, 198799, Control_c, 0, 64, 127
1, 198811, Note_off_c, 0, 65, 36
1, 198927, Note_on_c, 0, 74, 68
1, 198933, Note_on_c, 0, 70, 66
1, 198939, Note_on_c, 0, 65, 62
1, 198940, Note_on_c, 0, 62, 66
1, 198948, Note_off_c, 0, 74, 66
1, 198954, Note_off_c, 0, 70, 66
1, 198963, Note_off_c, 0, 65, 66
1, 198967, Note_off_c, 0, 62, 68
1, 199082, Control_c, 0, 64, 90
1, 199096, Control_c, 0, 64, 55
1, 199111, Control_c, 0, 64, 0
1, 199116, Note_on_c, 0, 50, 81
1, 199121, Note_on_c, 0, 38, 86
1, 199137, Note_off_c, 0, 50, 70
1, 199140, Note_off_c, 0, 38, 67
1, 199140, Control_c, 0, 64, 55
1, 199155, Control_c, 0, 64, 75
1, 199170, Control_c, 0, 64, 93
1, 199185, Control_c, 0, 64, 127
1, 199230, Note_off_c, 0, 86, 63
1, 199344, Note_on_c, 0, 82, 81
1, 199355, Note_on_c, 0, 62, 64
1, 199355, Control_c, 0, 64, 100
1, 199356, Note_on_c, 0, 66, 64
1, 199362, Note_on_c, 0, 72, 66
1, 199363, Note_off_c, 0, 82, 71
1, 199370, Control_c, 0, 64, 72
1, 199385, Control_c, 0, 64, 61
1, 199391, Note_on_c, 0, 84, 64
1, 199395, Note_on_c, 0, 83, 72
1, 199415, Control_c, 0, 64, 65
1, 199424, Note_on_c, 0, 82, 96
1, 199429, Control_c, 0, 64, 72
1, 199434, Note_off_c, 0, 84, 60
1, 199444, Note_off_c, 0, 83, 67
1, 199444, Control_c, 0, 64, 76
1, 199459, Control_c, 0, 64, 76
1, 199466, Note_off_c, 0, 62, 52
1, 199474, Control_c, 0, 64, 78
1, 199477, Note_off_c, 0, 66, 58
1, 199489, Control_c, 0, 64, 82
1, 199499, Note_off_c, 0, 72, 33
1, 199503, Control_c, 0, 64, 86
1, 199518, Control_c, 0, 64, 88
1, 199577, Control_c, 0, 64, 88
1, 199592, Control_c, 0, 64, 89
1, 199607, Note_on_c, 0, 81, 87
1, 199607, Control_c, 0, 64, 90
1, 199642, Note_off_c, 0, 82, 56
1, 199776, Note_on_c, 0, 62, 53
1, 199785, Control_c, 0, 64, 91
1, 199800, Control_c, 0, 64, 92
1, 199845, Control_c, 0, 64, 91
1, 199867, Note_on_c, 0, 66, 45
1, 199919, Control_c, 0, 64, 90
1, 199934, Control_c, 0, 64, 88
1, 199949, Control_c, 0, 64, 87
1, 199970, Control_c, 0, 64, 85
1, 199985, Control_c, 0, 64, 77
1, 200000, Control_c, 0, 64, 65
1, 200015, Control_c, 0, 64, 44
1, 200030, Control_c, 0, 64, 0
1, 200036, Note_on_c, 0, 72, 40
1, 200047, Note_off_c, 0, 81, 59
1, 200054, Note_on_c, 0, 82, 69
1, 200104, Control_c, 0, 64, 45
1, 200114, Note_off_c, 0, 72, 64
1, 200119, Control_c, 0, 64, 63
1, 200134, Control_c, 0, 64, 75
1, 200134, Note_off_c, 0, 66, 60
1, 200140, Note_off_c, 0, 62, 62
1, 200149, Control_c, 0, 64, 102
1, 200164, Control_c, 0, 64, 127
1, 200333, Note_on_c, 0, 43, 56
1, 200356, Control_c, 0, 64, 99
1, 200370, Control_c, 0, 64, 65
1, 200385, Control_c, 0, 64, 0
1, 200398, Note_off_c, 0, 43, 63
1, 200430, Control_c, 0, 64, 56
1, 200446, Control_c, 0, 64, 69
1, 200460, Control_c, 0, 64, 78
1, 200462, Note_on_c, 0, 59, 55
1, 200475, Control_c, 0, 64, 87
1, 200490, Control_c, 0, 64, 90
1, 200504, Note_off_c, 0, 82, 36
1, 200505, Control_c, 0, 64, 91
1, 200519, Control_c, 0, 64, 92
1, 200534, Control_c, 0, 64, 92
1, 200544, Note_on_c, 0, 71, 62
1, 200548, Note_off_c, 0, 59, 61
1, 200564, Control_c, 0, 64, 93
1, 200579, Control_c, 0, 64, 95
1, 200581, Note_on_c, 0, 79, 67
1, 200587, Note_off_c, 0, 71, 62
1, 200593, Control_c, 0, 64, 99
1, 200608, Control_c, 0, 64, 105
1, 200623, Control_c, 0, 64, 108
1, 200628, Note_on_c, 0, 67, 50
1, 200646, Note_on_c, 0, 86, 72
1, 200668, Control_c, 0, 64, 112
1, 200683, Control_c, 0, 64, 124
1, 200695, Note_off_c, 0, 67, 62
1, 200698, Control_c, 0, 64, 127
1, 200699, Note_off_c, 0, 79, 63
1, 200724, Poly_aftertouch_c, 0, 82, 127
1, 200761, Poly_aftertouch_c, 0, 82, 0
1, 200897, Note_on_c, 0, 85, 85
1, 200903, Note_off_c, 0, 86, 64
1, 201052, Note_on_c, 0, 55, 55
1, 201090, Control_c, 0, 64, 80
1, 201103, Note_off_c, 0, 85, 67
1, 201105, Control_c, 0, 64, 56
1, 201118, Note_on_c, 0, 86, 77
1, 201119, Control_c, 0, 64, 0
1, 201179, Control_c, 0, 64, 51
1, 201193, Control_c, 0, 64, 64
1, 201208, Control_c, 0, 64, 73
1, 201223, Control_c, 0, 64, 77
1, 201239, Control_c, 0, 64, 78
1, 201254, Control_c, 0, 64, 78
1, 201269, Control_c, 0, 64, 79
1, 201290, Note_on_c, 0, 62, 52
1, 201302, Note_on_c, 0, 71, 55
1, 201306, Note_on_c, 0, 83, 61
1, 201309, Note_on_c, 0, 74, 56
1, 201331, Note_off_c, 0, 74, 59
1, 201335, Note_off_c, 0, 71, 66
1, 201335, Note_off_c, 0, 62, 61
1, 201342, Control_c, 0, 64, 80
1, 201357, Control_c, 0, 64, 81
1, 201372, Control_c, 0, 64, 82
1, 201387, Control_c, 0, 64, 83
1, 201402, Control_c, 0, 64, 84
1, 201416, Control_c, 0, 64, 86
1, 201431, Control_c, 0, 64, 88
1, 201446, Control_c, 0, 64, 92
1, 201469, Control_c, 0, 64, 98
1, 201479, Note_on_c, 0, 61, 60
1, 201484, Note_on_c, 0, 82, 74
1, 201484, Control_c, 0, 64, 101
1, 201487, Note_off_c, 0, 83, 35
1, 201491, Note_on_c, 0, 70, 59
1, 201493, Note_on_c, 0, 73, 66
1, 201498, Control_c, 0, 64, 104
1, 201513, Control_c, 0, 64, 109
1, 201528, Control_c, 0, 64, 116
1, 201542, Control_c, 0, 64, 127
1, 201589, Note_off_c, 0, 70, 57
1, 201639, Note_off_c, 0, 86, 58
1, 201640, Note_off_c, 0, 55, 38
1, 201640, Note_off_c, 0, 73, 57
1, 201642, Note_on_c, 0, 85, 83
1, 201657, Note_off_c, 0, 61, 37
1, 201676, Note_off_c, 0, 82, 54
1, 201809, Note_on_c, 0, 55, 49
1, 201821, Note_on_c, 0, 86, 78
1, 201839, Control_c, 0, 64, 76
1, 201846, Note_off_c, 0, 85, 63
1, 201854, Control_c, 0, 64, 57
1, 201868, Control_c, 0, 64, 0
1, 201898, Control_c, 0, 64, 46
1, 201913, Control_c, 0, 64, 63
1, 201928, Control_c, 0, 64, 71
1, 201942, Control_c, 0, 64, 79
1, 201957, Control_c, 0, 64, 82
1, 201991, Note_on_c, 0, 69, 46
1, 201991, Note_on_c, 0, 81, 64
1, 202000, Note_on_c, 0, 60, 51
1, 202002, Control_c, 0, 64, 82
1, 202008, Note_on_c, 0, 72, 56
1, 202016, Control_c, 0, 64, 85
1, 202032, Control_c, 0, 64, 90
1, 202043, Note_off_c, 0, 72, 57
1, 202048, Control_c, 0, 64, 93
1, 202048, Note_off_c, 0, 60, 61
1, 202049, Note_off_c, 0, 69, 59
1, 202063, Control_c, 0, 64, 96
1, 202078, Control_c, 0, 64, 105
1, 202093, Control_c, 0, 64, 127
1, 202164, Note_on_c, 0, 71, 78
1, 202166, Note_on_c, 0, 79, 81
1, 202175, Note_off_c, 0, 81, 61
1, 202176, Note_off_c, 0, 86, 59
1, 202198, Note_on_c, 0, 67, 51
1, 202224, Note_off_c, 0, 55, 60
1, 202243, Note_off_c, 0, 67, 63
1, 202245, Poly_aftertouch_c, 0, 59, 127
1, 202246, Note_off_c, 0, 71, 60
1, 202274, Poly_aftertouch_c, 0, 59, 0
1, 202343, Note_on_c, 0, 88, 89
1, 202350, Note_off_c, 0, 79, 66
1, 202364, Note_on_c, 0, 55, 64
1, 202514, Control_c, 0, 64, 76
1, 202517, Note_on_c, 0, 58, 26
1, 202529, Control_c, 0, 64, 59
1, 202544, Control_c, 0, 64, 0
1, 202557, Note_off_c, 0, 55, 33
1, 202573, Control_c, 0, 64, 51
1, 202577, Note_on_c, 0, 86, 83
1, 202588, Note_on_c, 0, 76, 65
1, 202588, Control_c, 0, 64, 66
1, 202599, Note_on_c, 0, 73, 65
1, 202600, Note_off_c, 0, 88, 60
1, 202603, Control_c, 0, 64, 79
1, 202606, Note_on_c, 0, 85, 39
1, 202611, Note_on_c, 0, 64, 48
1, 202618, Control_c, 0, 64, 90
1, 202632, Control_c, 0, 64, 93
1, 202637, Note_off_c, 0, 85, 48
1, 202641, Note_off_c, 0, 76, 60
1, 202653, Note_off_c, 0, 58, 45
1, 202664, Note_off_c, 0, 73, 60
1, 202677, Control_c, 0, 64, 93
1, 202722, Control_c, 0, 64, 94
1, 202738, Note_off_c, 0, 64, 36
1, 202777, Note_on_c, 0, 63, 50
1, 202781, Control_c, 0, 64, 94
1, 202788, Note_on_c, 0, 72, 63
1, 202798, Note_on_c, 0, 75, 61
1, 202800, Note_on_c, 0, 84, 73
1, 202822, Note_off_c, 0, 75, 64
1, 202830, Note_off_c, 0, 72, 59
1, 202841, Control_c, 0, 64, 96
1, 202851, Note_off_c, 0, 63, 61
1, 202856, Control_c, 0, 64, 100
1, 202871, Control_c, 0, 64, 108
1, 202885, Control_c, 0, 64, 117
1, 202915, Control_c, 0, 64, 100
1, 202930, Control_c, 0, 64, 80
1, 202945, Control_c, 0, 64, 66
1, 202967, Control_c, 0, 64, 61
1, 202969, Note_on_c, 0, 74, 69
1, 202974, Note_on_c, 0, 83, 73
1, 202981, Note_on_c, 0, 62, 65
1, 202982, Control_c, 0, 64, 64
1, 202983, Note_on_c, 0, 71, 52
1, 202996, Control_c, 0, 64, 69
1, 203003, Note_off_c, 0, 84, 51
1, 203011, Control_c, 0, 64, 78
1, 203022, Note_off_c, 0, 62, 59
1, 203026, Note_off_c, 0, 86, 53
1, 203026, Control_c, 0, 64, 85
1, 203039, Note_off_c, 0, 71, 53
1, 203041, Control_c, 0, 64, 88
1, 203056, Control_c, 0, 64, 95
1, 203070, Control_c, 0, 64, 108
1, 203079, Note_off_c, 0, 74, 58
1, 203085, Control_c, 0, 64, 127
1, 203132, Note_off_c, 0, 83, 64
1, 203138, Note_on_c, 0, 85, 77
1, 203216, Note_on_c, 0, 55, 52
1, 203308, Control_c, 0, 64, 82
1, 203322, Control_c, 0, 64, 63
1, 203337, Note_on_c, 0, 86, 69
1, 203337, Control_c, 0, 64, 0
1, 203355, Note_on_c, 0, 61, 47
1, 203356, Note_on_c, 0, 73, 34
1, 203357, Note_on_c, 0, 70, 40
1, 203359, Note_on_c, 0, 82, 56
1, 203396, Control_c, 0, 64, 53
1, 203411, Note_off_c, 0, 73, 62
1, 203411, Control_c, 0, 64, 66
1, 203417, Note_off_c, 0, 85, 35
1, 203425, Note_off_c, 0, 70, 61
1, 203426, Control_c, 0, 64, 72
1, 203432, Note_off_c, 0, 82, 60
1, 203440, Control_c, 0, 64, 75
1, 203523, Note_off_c, 0, 55, 0
1, 203532, Note_on_c, 0, 81, 63
1, 203543, Note_on_c, 0, 72, 58
1, 203544, Note_on_c, 0, 69, 48
1, 203549, Note_on_c, 0, 60, 53
1, 203552, Note_off_c, 0, 61, 36
1, 203559, Poly_aftertouch_c, 0, 55, 127
1, 203573, Control_c, 0, 64, 75
1, 203579, Note_off_c, 0, 72, 62
1, 203581, Note_off_c, 0, 69, 64
1, 203587, Control_c, 0, 64, 77
1, 203602, Note_off_c, 0, 60, 61
1, 203602, Control_c, 0, 64, 80
1, 203607, Note_off_c, 0, 81, 60
1, 203617, Control_c, 0, 64, 84
1, 203633, Control_c, 0, 64, 91
1, 203648, Control_c, 0, 64, 100
1, 203663, Control_c, 0, 64, 119
1, 203677, Control_c, 0, 64, 127
1, 203729, Control_c, 0, 64, 119
1, 203744, Control_c, 0, 64, 86
1, 203750, Note_on_c, 0, 68, 58
1, 203759, Control_c, 0, 64, 70
1, 203762, Note_on_c, 0, 71, 40
1, 203764, Note_on_c, 0, 80, 65
1, 203774, Control_c, 0, 64, 63
1, 203785, Note_on_c, 0, 59, 42
1, 203789, Control_c, 0, 64, 62
1, 203791, Note_off_c, 0, 71, 54
1, 203804, Control_c, 0, 64, 67
1, 203818, Control_c, 0, 64, 74
1, 203833, Control_c, 0, 64, 81
1, 203848, Control_c, 0, 64, 86
1, 203863, Control_c, 0, 64, 86
1, 203878, Control_c, 0, 64, 87
1, 203894, Note_off_c, 0, 68, 34
1, 203935, Note_off_c, 0, 86, 59
1, 203942, Note_off_c, 0, 80, 60
1, 203957, Note_on_c, 0, 88, 73
1, 204173, Control_c, 0, 64, 83
1, 204188, Control_c, 0, 64, 75
1, 204190, Note_on_c, 0, 67, 44
1, 204203, Control_c, 0, 64, 63
1, 204218, Control_c, 0, 64, 44
1, 204233, Control_c, 0, 64, 0
1, 204259, Note_on_c, 0, 89, 63
1, 204260, Note_on_c, 0, 79, 53
1, 204262, Note_off_c, 0, 88, 57
1, 204271, Poly_aftertouch_c, 0, 55, 0
1, 204292, Control_c, 0, 64, 51
1, 204307, Control_c, 0, 64, 67
1, 204310, Note_off_c, 0, 59, 53
1, 204319, Note_off_c, 0, 79, 58
1, 204322, Control_c, 0, 64, 75
1, 204337, Control_c, 0, 64, 79
1, 204352, Control_c, 0, 64, 80
1, 204382, Control_c, 0, 64, 81
1, 204397, Control_c, 0, 64, 81
1, 204427, Control_c, 0, 64, 82
1, 204442, Control_c, 0, 64, 83
1, 204464, Control_c, 0, 64, 84
1, 204479, Control_c, 0, 64, 85
1, 204486, Note_off_c, 0, 67, 34
1, 204493, Control_c, 0, 64, 86
1, 204512, Note_on_c, 0, 66, 45
1, 204513, Note_on_c, 0, 59, 37
1, 204516, Note_on_c, 0, 78, 61
1, 204523, Control_c, 0, 64, 85
1, 204538, Control_c, 0, 64, 78
1, 204553, Control_c, 0, 64, 68
1, 204567, Control_c, 0, 64, 59
1, 204582, Control_c, 0, 64, 56
1, 204597, Control_c, 0, 64, 61
1, 204612, Control_c, 0, 64, 68
1, 204623, Note_off_c, 0, 78, 63
1, 204627, Control_c, 0, 64, 75
1, 204641, Control_c, 0, 64, 81
1, 204656, Control_c, 0, 64, 81
1, 204686, Control_c, 0, 64, 82
1, 204731, Note_on_c, 0, 79, 64
1, 204731, Control_c, 0, 64, 82
1, 204740, Note_off_c, 0, 59, 44
1, 204743, Note_on_c, 0, 67, 46
1, 204760, Note_off_c, 0, 66, 48
1, 204771, Note_off_c, 0, 79, 57
1, 204784, Note_off_c, 0, 67, 63
1, 204790, Control_c, 0, 64, 83
1, 204805, Control_c, 0, 64, 85
1, 204820, Control_c, 0, 64, 85
1, 204849, Control_c, 0, 64, 86
1, 204864, Control_c, 0, 64, 86
1, 204878, Control_c, 0, 64, 87
1, 204893, Control_c, 0, 64, 89
1, 204908, Control_c, 0, 64, 89
1, 204938, Control_c, 0, 64, 89
1, 204953, Control_c, 0, 64, 82
1, 204963, Note_off_c, 0, 89, 58
1, 204967, Control_c, 0, 64, 70
1, 204969, Note_on_c, 0, 69, 46
1, 204973, Note_on_c, 0, 88, 63
1, 204981, Note_on_c, 0, 81, 52
1, 204982, Control_c, 0, 64, 57
1, 204983, Note_on_c, 0, 60, 42
1, 204997, Control_c, 0, 64, 0
1, 205041, Control_c, 0, 64, 51
1, 205056, Control_c, 0, 64, 66
1, 205071, Control_c, 0, 64, 77
1, 205085, Control_c, 0, 64, 85
1, 205100, Control_c, 0, 64, 87
1, 205130, Control_c, 0, 64, 87
1, 205145, Control_c, 0, 64, 88
1, 205160, Control_c, 0, 64, 89
1, 205175, Control_c, 0, 64, 92
1, 205190, Control_c, 0, 64, 95
1, 205211, Control_c, 0, 64, 98
1, 205226, Control_c, 0, 64, 100
1, 205269, Note_off_c, 0, 60, 45
1, 205272, Control_c, 0, 64, 94
1, 205280, Note_off_c, 0, 81, 43
1, 205282, Note_off_c, 0, 88, 51
1, 205285, Note_on_c, 0, 61, 42
1, 205287, Note_off_c, 0, 69, 40
1, 205287, Control_c, 0, 64, 77
1, 205290, Note_on_c, 0, 89, 56
1, 205292, Note_on_c, 0, 82, 56
1, 205302, Control_c, 0, 64, 60
1, 205313, Note_on_c, 0, 70, 35
1, 205316, Control_c, 0, 64, 0
1, 205361, Control_c, 0, 64, 55
1, 205376, Control_c, 0, 64, 68
1, 205390, Control_c, 0, 64, 78
1, 205397, Note_off_c, 0, 61, 50
1, 205405, Control_c, 0, 64, 83
1, 205464, Control_c, 0, 64, 84
1, 205479, Control_c, 0, 64, 84
1, 205494, Control_c, 0, 64, 85
1, 205538, Control_c, 0, 64, 85
1, 205553, Control_c, 0, 64, 87
1, 205568, Control_c, 0, 64, 88
1, 205583, Control_c, 0, 64, 88
1, 205621, Note_off_c, 0, 82, 51
1, 205627, Control_c, 0, 64, 87
1, 205642, Control_c, 0, 64, 77
1, 205655, Note_on_c, 0, 86, 51
1, 205655, Note_off_c, 0, 89, 53
1, 205657, Control_c, 0, 64, 65
1, 205665, Note_on_c, 0, 62, 36
1, 205672, Control_c, 0, 64, 47
1, 205676, Note_on_c, 0, 83, 39
1, 205680, Note_on_c, 0, 71, 29
1, 205687, Control_c, 0, 64, 0
1, 205693, Note_off_c, 0, 70, 43
1, 205731, Control_c, 0, 64, 49
1, 205746, Control_c, 0, 64, 63
1, 205761, Control_c, 0, 64, 71
1, 205776, Note_off_c, 0, 71, 53
1, 205776, Control_c, 0, 64, 78
1, 205790, Control_c, 0, 64, 82
1, 205801, Note_off_c, 0, 62, 56
1, 205805, Control_c, 0, 64, 85
1, 205820, Control_c, 0, 64, 88
1, 205830, Note_off_c, 0, 83, 39
1, 205834, Control_c, 0, 64, 90
1, 205849, Control_c, 0, 64, 92
1, 205923, Control_c, 0, 64, 92
1, 206080, Control_c, 0, 64, 90
1, 206095, Control_c, 0, 64, 79
1, 206096, Note_off_c, 0, 86, 56
1, 206110, Control_c, 0, 64, 69
1, 206117, Note_on_c, 0, 91, 57
1, 206125, Control_c, 0, 64, 59
1, 206134, Note_on_c, 0, 88, 52
1, 206135, Note_on_c, 0, 48, 14
1, 206139, Control_c, 0, 64, 41
1, 206150, Note_on_c, 0, 84, 36
1, 206154, Control_c, 0, 64, 0
1, 206169, Control_c, 0, 64, 41
1, 206184, Control_c, 0, 64, 54
1, 206189, Poly_aftertouch_c, 0, 79, 127
1, 206199, Control_c, 0, 64, 65
1, 206213, Control_c, 0, 64, 73
1, 206228, Control_c, 0, 64, 80
1, 206243, Control_c, 0, 64, 82
1, 206272, Control_c, 0, 64, 82
1, 206287, Control_c, 0, 64, 83
1, 206302, Control_c, 0, 64, 84
1, 206305, Note_off_c, 0, 48, 40
1, 206315, Note_off_c, 0, 91, 38
1, 206317, Control_c, 0, 64, 85
1, 206331, Control_c, 0, 64, 86
1, 206346, Control_c, 0, 64, 87
1, 206361, Control_c, 0, 64, 88
1, 206375, Poly_aftertouch_c, 0, 79, 0
1, 206376, Control_c, 0, 64, 90
1, 206379, Note_on_c, 0, 60, 32
1, 206391, Control_c, 0, 64, 93
1, 206406, Note_off_c, 0, 84, 41
1, 206406, Control_c, 0, 64, 95
1, 206414, Note_off_c, 0, 60, 48
1, 206436, Control_c, 0, 64, 98
1, 206450, Control_c, 0, 64, 100
1, 206465, Control_c, 0, 64, 104
1, 206480, Control_c, 0, 64, 112
1, 206495, Control_c, 0, 64, 127
1, 206583, Control_c, 0, 64, 105
1, 206590, Note_off_c, 0, 88, 58
1, 206598, Note_on_c, 0, 90, 58
1, 206598, Control_c, 0, 64, 79
1, 206603, Note_on_c, 0, 87, 57
1, 206611, Note_on_c, 0, 72, 47
1, 206612, Control_c, 0, 64, 73
1, 206615, Note_on_c, 0, 69, 35
1, 206617, Note_on_c, 0, 78, 36
1, 206627, Control_c, 0, 64, 73
1, 206642, Control_c, 0, 64, 76
1, 206656, Control_c, 0, 64, 79
1, 206671, Control_c, 0, 64, 81
1, 206683, Note_off_c, 0, 69, 38
1, 206686, Control_c, 0, 64, 82
1, 206709, Control_c, 0, 64, 83
1, 206724, Control_c, 0, 64, 86
1, 206738, Control_c, 0, 64, 87
1, 206749, Poly_aftertouch_c, 0, 84, 127
1, 206751, Note_off_c, 0, 78, 44
1, 206753, Control_c, 0, 64, 87
1, 206767, Note_off_c, 0, 72, 22
1, 206767, Note_off_c, 0, 90, 38
1, 206800, Poly_aftertouch_c, 0, 84, 0
1, 206843, Note_on_c, 0, 60, 44
1, 206886, Note_off_c, 0, 60, 55
1, 206932, Control_c, 0, 64, 88
1, 206947, Control_c, 0, 64, 89
1, 206961, Control_c, 0, 64, 89
1, 206991, Control_c, 0, 64, 90
1, 207006, Control_c, 0, 64, 89
1, 207021, Control_c, 0, 64, 81
1, 207035, Control_c, 0, 64, 70
1, 207050, Control_c, 0, 64, 59
1, 207051, Note_off_c, 0, 87, 38
1, 207062, Note_on_c, 0, 91, 58
1, 207065, Control_c, 0, 64, 48
1, 207068, Note_on_c, 0, 72, 41
1, 207071, Note_on_c, 0, 70, 38
1, 207079, Note_on_c, 0, 79, 45
1, 207080, Control_c, 0, 64, 51
1, 207095, Note_on_c, 0, 88, 42
1, 207095, Control_c, 0, 64, 58
1, 207096, Note_off_c, 0, 70, 54
1, 207096, Note_off_c, 0, 72, 62
1, 207109, Control_c, 0, 64, 64
1, 207120, Note_off_c, 0, 88, 59
1, 207124, Control_c, 0, 64, 68
1, 207125, Note_off_c, 0, 91, 63
1, 207139, Control_c, 0, 64, 71
1, 207154, Control_c, 0, 64, 73
1, 207169, Control_c, 0, 64, 74
1, 207184, Control_c, 0, 64, 75
1, 207184, Note_off_c, 0, 79, 52
1, 207198, Control_c, 0, 64, 76
1, 207213, Control_c, 0, 64, 76
1, 207298, Note_on_c, 0, 48, 55
1, 207303, Control_c, 0, 64, 77
1, 207333, Control_c, 0, 64, 77
1, 207345, Note_off_c, 0, 48, 59
1, 207362, Control_c, 0, 64, 78
1, 207377, Control_c, 0, 64, 79
1, 207392, Control_c, 0, 64, 80
1, 207406, Control_c, 0, 64, 80
1, 207421, Control_c, 0, 64, 81
1, 207436, Control_c, 0, 64, 82
1, 207458, Control_c, 0, 64, 83
1, 207473, Control_c, 0, 64, 84
1, 207551, Note_on_c, 0, 84, 65
1, 207555, Note_on_c, 0, 60, 48
1, 207555, Note_on_c, 0, 82, 49
1, 207557, Note_on_c, 0, 76, 54
1, 207577, Control_c, 0, 64, 85
1, 207577, Note_off_c, 0, 76, 59
1, 207577, Note_off_c, 0, 84, 69
1, 207579, Note_off_c, 0, 82, 57
1, 207592, Note_off_c, 0, 60, 64
1, 207592, Control_c, 0, 64, 87
1, 207606, Control_c, 0, 64, 89
1, 207621, Control_c, 0, 64, 90
1, 207637, Control_c, 0, 64, 93
1, 207652, Control_c, 0, 64, 97
1, 207667, Control_c, 0, 64, 102
1, 207682, Control_c, 0, 64, 108
1, 207697, Control_c, 0, 64, 110
1, 207756, Control_c, 0, 64, 112
1, 207771, Control_c, 0, 64, 117
1, 207785, Control_c, 0, 64, 127
1, 207791, Note_on_c, 0, 72, 57
1, 207821, Note_off_c, 0, 72, 67
1, 207992, Control_c, 0, 64, 114
1, 208007, Control_c, 0, 64, 76
1, 208022, Control_c, 0, 64, 60
1, 208034, Note_on_c, 0, 53, 57
1, 208036, Control_c, 0, 64, 48
1, 208037, Note_on_c, 0, 93, 66
1, 208051, Control_c, 0, 64, 49
1, 208054, Note_on_c, 0, 81, 50
1, 208063, Note_on_c, 0, 84, 39
1, 208066, Note_off_c, 0, 53, 64
1, 208066, Control_c, 0, 64, 52
1, 208077, Note_off_c, 0, 93, 59
1, 208078, Note_off_c, 0, 81, 59
1, 208081, Control_c, 0, 64, 54
1, 208091, Note_off_c, 0, 84, 46
1, 208096, Control_c, 0, 64, 58
1, 208111, Control_c, 0, 64, 63
1, 208126, Control_c, 0, 64, 67
1, 208141, Control_c, 0, 64, 68
1, 208156, Control_c, 0, 64, 68
1, 208170, Control_c, 0, 64, 69
1, 208185, Control_c, 0, 64, 69
1, 208207, Control_c, 0, 64, 70
1, 208296, Control_c, 0, 64, 69
1, 208311, Control_c, 0, 64, 68
1, 208326, Control_c, 0, 64, 67
1, 208329, Note_on_c, 0, 92, 70
1, 208329, Note_on_c, 0, 72, 45
1, 208330, Note_on_c, 0, 65, 47
1, 208335, Note_on_c, 0, 84, 54
1, 208340, Note_on_c, 0, 80, 46
1, 208341, Control_c, 0, 64, 66
1, 208355, Note_off_c, 0, 65, 56
1, 208355, Control_c, 0, 64, 65
1, 208356, Note_off_c, 0, 84, 60
1, 208359, Note_off_c, 0, 72, 59
1, 208364, Note_off_c, 0, 80, 58
1, 208370, Control_c, 0, 64, 65
1, 208385, Control_c, 0, 64, 64
1, 208387, Note_off_c, 0, 92, 61
1, 208400, Control_c, 0, 64, 64
1, 208430, Control_c, 0, 64, 62
1, 208445, Control_c, 0, 64, 60
1, 208460, Control_c, 0, 64, 58
1, 208475, Control_c, 0, 64, 57
1, 208490, Control_c, 0, 64, 56
1, 208504, Control_c, 0, 64, 56
1, 208519, Control_c, 0, 64, 54
1, 208534, Control_c, 0, 64, 52
1, 208549, Control_c, 0, 64, 50
1, 208564, Control_c, 0, 64, 49
1, 208579, Control_c, 0, 64, 48
1, 208594, Control_c, 0, 64, 46
1, 208608, Control_c, 0, 64, 41
1, 208623, Control_c, 0, 64, 34
1, 208638, Control_c, 0, 64, 0
1, 208697, Control_c, 0, 64, 36
1, 208712, Control_c, 0, 64, 42
1, 208726, Control_c, 0, 64, 52
1, 208729, Note_on_c, 0, 93, 57
1, 208741, Control_c, 0, 64, 61
1, 208743, Note_on_c, 0, 84, 38
1, 208749, Note_on_c, 0, 77, 37
1, 208750, Note_on_c, 0, 72, 25
1, 208756, Control_c, 0, 64, 68
1, 208763, Note_on_c, 0, 81, 26
1, 208771, Control_c, 0, 64, 74
1, 208786, Control_c, 0, 64, 78
1, 208800, Control_c, 0, 64, 80
1, 208801, Note_off_c, 0, 84, 50
1, 208809, Note_off_c, 0, 93, 57
1, 208811, Note_off_c, 0, 81, 47
1, 208815, Control_c, 0, 64, 82
1, 208830, Control_c, 0, 64, 85
1, 208839, Note_off_c, 0, 77, 39
1, 208844, Control_c, 0, 64, 87
1, 208859, Control_c, 0, 64, 91
1, 208874, Control_c, 0, 64, 95
1, 208889, Control_c, 0, 64, 100
1, 208904, Control_c, 0, 64, 105
1, 208906, Note_off_c, 0, 72, 22
1, 209074, Control_c, 0, 64, 102
1, 209089, Control_c, 0, 64, 100
1, 209119, Control_c, 0, 64, 97
1, 209133, Control_c, 0, 64, 95
1, 209148, Control_c, 0, 64, 93
1, 209163, Control_c, 0, 64, 91
1, 209178, Control_c, 0, 64, 89
1, 209193, Control_c, 0, 64, 87
1, 209208, Control_c, 0, 64, 85
1, 209223, Control_c, 0, 64, 84
1, 209238, Control_c, 0, 64, 84
1, 209253, Control_c, 0, 64, 83
1, 209268, Control_c, 0, 64, 82
1, 209283, Control_c, 0, 64, 80
1, 209297, Control_c, 0, 64, 80
1, 209342, Control_c, 0, 64, 79
1, 209357, Control_c, 0, 64, 79
1, 209372, Control_c, 0, 64, 77
1, 209387, Control_c, 0, 64, 74
1, 209401, Control_c, 0, 64, 72
1, 209416, Control_c, 0, 64, 70
1, 209431, Control_c, 0, 64, 67
1, 209446, Control_c, 0, 64, 65
1, 209461, Control_c, 0, 64, 63
1, 209475, Control_c, 0, 64, 62
1, 209490, Control_c, 0, 64, 61
1, 209521, Control_c, 0, 64, 61
1, 209536, Control_c, 0, 64, 60
1, 209550, Control_c, 0, 64, 60
1, 209706, Control_c, 0, 64, 59
1, 209721, Control_c, 0, 64, 59
1, 209795, Control_c, 0, 64, 58
1, 209928, Control_c, 0, 64, 59
1, 210032, Control_c, 0, 64, 59
1, 210136, Control_c, 0, 64, 59
1, 210210, Control_c, 0, 64, 58
1, 210224, Control_c, 0, 64, 58
1, 210254, Control_c, 0, 64, 58
1, 210269, Control_c, 0, 64, 59
1, 210284, Control_c, 0, 64, 63
1, 210298, Control_c, 0, 64, 67
1, 210313, Control_c, 0, 64, 74
1, 210328, Note_on_c, 0, 55, 44
1, 210328, Control_c, 0, 64, 83
1, 210343, Control_c, 0, 64, 93
1, 210355, Note_off_c, 0, 55, 60
1, 210358, Control_c, 0, 64, 106
1, 210372, Control_c, 0, 64, 127
1, 210744, Note_on_c, 0, 91, 68
1, 210764, Note_off_c, 0, 91, 67
1, 210765, Note_on_c, 0, 71, 38
1, 210774, Note_on_c, 0, 77, 47
1, 210782, Note_on_c, 0, 93, 78
1, 210783, Note_on_c, 0, 67, 32
1, 210827, Note_off_c, 0, 93, 65
1, 210836, Note_on_c, 0, 91, 76
1, 211371, Note_off_c, 0, 91, 62
1, 211374, Note_on_c, 0, 90, 56
1, 211475, Note_off_c, 0, 77, 36
1, 211497, Note_off_c, 0, 67, 41
1, 211500, Note_off_c, 0, 71, 42
1, 212123, Note_on_c, 0, 71, 21
1, 212136, Note_on_c, 0, 67, 38
1, 212140, Note_on_c, 0, 77, 34
1, 212140, Note_on_c, 0, 91, 47
1, 212186, Note_off_c, 0, 90, 39
1, 212341, Note_off_c, 0, 91, 27
1, 212343, Note_off_c, 0, 77, 44
1, 212452, Note_off_c, 0, 71, 42
1, 212478, Note_off_c, 0, 67, 59
1, 212755, Note_on_c, 0, 72, 103
1, 212758, Note_on_c, 0, 61, 86
1, 212759, Note_on_c, 0, 65, 94
1, 212760, Control_c, 0, 64, 69
1, 212763, Note_on_c, 0, 84, 107
1, 212767, Note_on_c, 0, 96, 104
1, 212775, Control_c, 0, 64, 0
1, 212775, Control_c, 0, 67, 62
1, 212790, Control_c, 0, 67, 0
1, 212792, Note_off_c, 0, 72, 65
1, 212797, Note_off_c, 0, 84, 66
1, 212800, Note_off_c, 0, 96, 63
1, 212800, Note_off_c, 0, 65, 64
1, 212804, Note_off_c, 0, 61, 58
1, 212843, Note_on_c, 0, 61, 50
1, 212843, Note_on_c, 0, 65, 63
1, 212854, Note_on_c, 0, 95, 92
1, 212859, Note_on_c, 0, 83, 88
1, 212875, Note_on_c, 0, 71, 70
1, 212879, Control_c, 0, 64, 34
1, 212893, Control_c, 0, 64, 38
1, 212898, Note_off_c, 0, 95, 66
1, 212903, Note_off_c, 0, 83, 61
1, 212908, Control_c, 0, 64, 0
1, 212912, Note_off_c, 0, 71, 66
1, 212938, Control_c, 0, 64, 41
1, 212952, Control_c, 0, 64, 72
1, 212953, Note_off_c, 0, 61, 0
1, 212966, Note_on_c, 0, 61, 44
1, 212967, Note_on_c, 0, 72, 87
1, 212967, Note_on_c, 0, 96, 70
1, 212967, Control_c, 0, 64, 127
1, 212970, Note_on_c, 0, 84, 79
1, 212982, Note_on_c, 0, 95, 60
1, 212986, Note_off_c, 0, 96, 66
1, 212987, Note_on_c, 0, 83, 40
1, 212987, Note_off_c, 0, 83, 127
1, 212990, Note_off_c, 0, 84, 70
1, 212993, Note_off_c, 0, 72, 66
1, 212998, Note_off_c, 0, 65, 66
1, 213003, Note_off_c, 0, 95, 61
1, 213011, Note_off_c, 0, 61, 63
1, 213176, Note_on_c, 0, 49, 95
1, 213176, Note_on_c, 0, 60, 92
1, 213178, Note_on_c, 0, 72, 98
1, 213180, Note_on_c, 0, 84, 100
1, 213190, Control_c, 0, 67, 45
1, 213196, Note_on_c, 0, 53, 51
1, 213204, Note_off_c, 0, 49, 66
1, 213205, Control_c, 0, 64, 63
1, 213205, Control_c, 0, 67, 59
1, 213210, Note_off_c, 0, 84, 65
1, 213213, Note_off_c, 0, 60, 60
1, 213214, Note_off_c, 0, 72, 65
1, 213220, Control_c, 0, 64, 0
1, 213220, Control_c, 0, 67, 31
1, 213222, Note_off_c, 0, 53, 56
1, 213235, Control_c, 0, 67, 0
1, 213273, Note_on_c, 0, 83, 97
1, 213274, Note_on_c, 0, 71, 95
1, 213280, Note_on_c, 0, 59, 81
1, 213281, Note_on_c, 0, 49, 82
1, 213286, Note_on_c, 0, 53, 76
1, 213305, Note_off_c, 0, 49, 69
1, 213305, Note_off_c, 0, 59, 66
1, 213307, Note_off_c, 0, 71, 66
1, 213312, Note_on_c, 0, 81, 35
1, 213312, Note_off_c, 0, 81, 127
1, 213313, Note_off_c, 0, 83, 64
1, 213314, Note_off_c, 0, 53, 68
1, 213368, Control_c, 0, 64, 127
1, 213368, Control_c, 0, 67, 31
1, 213378, Note_on_c, 0, 72, 96
1, 213380, Note_on_c, 0, 60, 88
1, 213380, Note_on_c, 0, 84, 101
1, 213381, Note_on_c, 0, 49, 77
1, 213383, Control_c, 0, 67, 0
1, 213385, Note_on_c, 0, 53, 69
1, 213397, Note_off_c, 0, 84, 70
1, 213399, Note_off_c, 0, 60, 73
1, 213403, Note_off_c, 0, 72, 64
1, 213405, Note_off_c, 0, 49, 67
1, 213413, Note_off_c, 0, 53, 65
1, 213592, Note_on_c, 0, 48, 98
1, 213593, Note_on_c, 0, 37, 96
1, 213596, Note_on_c, 0, 72, 106
1, 213596, Note_on_c, 0, 60, 102
1, 213598, Control_c, 0, 67, 46
1, 213613, Control_c, 0, 64, 120
1, 213613, Control_c, 0, 67, 86
1, 213619, Note_off_c, 0, 37, 69
1, 213624, Note_off_c, 0, 48, 61
1, 213624, Note_off_c, 0, 72, 66
1, 213625, Note_off_c, 0, 60, 68
1, 213628, Control_c, 0, 64, 59
1, 213628, Control_c, 0, 67, 78
1, 213642, Control_c, 0, 64, 0
1, 213642, Control_c, 0, 67, 38
1, 213657, Control_c, 0, 67, 0
1, 213663, Note_on_c, 0, 41, 13
1, 213685, Note_on_c, 0, 37, 94
1, 213686, Note_on_c, 0, 59, 88
1, 213687, Note_on_c, 0, 48, 79
1, 213688, Note_on_c, 0, 71, 91
1, 213690, Note_off_c, 0, 41, 0
1, 213690, Note_on_c, 0, 41, 15
1, 213714, Note_off_c, 0, 37, 68
1, 213717, Note_off_c, 0, 48, 64
1, 213718, Note_off_c, 0, 59, 65
1, 213720, Note_off_c, 0, 71, 68
1, 213724, Note_off_c, 0, 41, 58
1, 213730, Note_on_c, 0, 39, 25
1, 213775, Control_c, 0, 64, 89
1, 213775, Control_c, 0, 67, 27
1, 213780, Note_on_c, 0, 48, 89
1, 213781, Note_off_c, 0, 39, 30
1, 213790, Control_c, 0, 64, 127
1, 213790, Control_c, 0, 67, 0
1, 213792, Note_on_c, 0, 60, 90
1, 213792, Note_on_c, 0, 72, 96
1, 213793, Note_on_c, 0, 37, 79
1, 213799, Note_on_c, 0, 41, 62
1, 213803, Note_off_c, 0, 48, 66
1, 213804, Note_on_c, 0, 62, 74
1, 213808, Note_off_c, 0, 72, 76
1, 213811, Note_off_c, 0, 60, 74
1, 213815, Note_off_c, 0, 37, 65
1, 213821, Note_off_c, 0, 41, 61
1, 213822, Note_off_c, 0, 62, 65
1, 213862, Poly_aftertouch_c, 0, 42, 0
1, 213983, Control_c, 0, 67, 40
1, 213988, Note_on_c, 0, 37, 90
1, 213989, Note_on_c, 0, 25, 96
1, 213991, Note_on_c, 0, 49, 97
1, 213998, Control_c, 0, 67, 83
1, 214013, Control_c, 0, 64, 72
1, 214013, Control_c, 0, 67, 82
1, 214020, Note_off_c, 0, 37, 66
1, 214024, Note_off_c, 0, 25, 66
1, 214028, Control_c, 0, 64, 0
1, 214028, Control_c, 0, 67, 49
1, 214031, Note_off_c, 0, 49, 67
1, 214043, Control_c, 0, 67, 0
1, 214079, Note_on_c, 0, 36, 76
1, 214080, Note_on_c, 0, 24, 68
1, 214080, Note_on_c, 0, 48, 92
1, 214115, Note_off_c, 0, 36, 66
1, 214119, Note_off_c, 0, 48, 65
1, 214120, Note_off_c, 0, 24, 63
1, 214159, Note_on_c, 0, 27, 2
1, 214181, Note_on_c, 0, 49, 97
1, 214185, Note_on_c, 0, 37, 95
1, 214195, Note_on_c, 0, 25, 94
1, 214199, Note_off_c, 0, 27, 28
1, 214207, Note_off_c, 0, 49, 71
1, 214214, Note_off_c, 0, 37, 70
1, 214220, Note_off_c, 0, 25, 69
1, 214408, Note_on_c, 0, 49, 105
1, 214412, Note_on_c, 0, 37, 106
1, 214414, Note_on_c, 0, 25, 92
1, 214436, Note_off_c, 0, 49, 67
1, 214441, Note_off_c, 0, 25, 66
1, 214441, Note_off_c, 0, 37, 63
1, 214632, Note_on_c, 0, 37, 99
1, 214632, Note_on_c, 0, 49, 102
1, 214633, Note_on_c, 0, 25, 98
1, 214659, Note_off_c, 0, 49, 67
1, 214666, Note_off_c, 0, 37, 60
1, 214669, Note_off_c, 0, 25, 61
1, 214836, Control_c, 0, 67, 22
1, 214851, Note_on_c, 0, 49, 103
1, 214851, Control_c, 0, 67, 38
1, 214853, Note_on_c, 0, 37, 101
1, 214857, Note_on_c, 0, 25, 87
1, 214866, Control_c, 0, 64, 127
1, 214866, Control_c, 0, 67, 22
1, 214875, Note_off_c, 0, 49, 68
1, 214881, Control_c, 0, 67, 0
1, 214885, Note_off_c, 0, 25, 66
1, 214888, Note_off_c, 0, 37, 60
1, 215066, Control_c, 0, 64, 102
1, 215075, Note_on_c, 0, 41, 96
1, 215081, Note_on_c, 0, 29, 90
1, 215081, Control_c, 0, 64, 54
1, 215095, Control_c, 0, 64, 0
1, 215107, Note_off_c, 0, 41, 66
1, 215108, Note_off_c, 0, 29, 69
1, 215112, Note_on_c, 0, 31, 36
1, 215149, Note_off_c, 0, 31, 35
1, 215288, Note_on_c, 0, 43, 101
1, 215289, Control_c, 0, 67, 41
1, 215292, Note_on_c, 0, 31, 95
1, 215303, Control_c, 0, 67, 28
1, 215317, Note_off_c, 0, 31, 69
1, 215318, Control_c, 0, 67, 0
1, 215325, Note_off_c, 0, 43, 63
1, 215334, Note_on_c, 0, 66, 42
1, 215359, Note_off_c, 0, 66, 48
1, 215493, Note_on_c, 0, 47, 85
1, 215495, Note_on_c, 0, 35, 85
1, 215500, Note_on_c, 0, 65, 83
1, 215514, Note_off_c, 0, 47, 71
1, 215518, Note_off_c, 0, 35, 65
1, 215520, Note_on_c, 0, 66, 88
1, 215525, Note_off_c, 0, 65, 70
1, 215581, Note_on_c, 0, 69, 83
1, 215581, Note_on_c, 0, 67, 81
1, 215600, Note_off_c, 0, 66, 61
1, 215713, Note_on_c, 0, 46, 91
1, 215721, Note_on_c, 0, 34, 72
1, 215726, Control_c, 0, 64, 38
1, 215733, Note_off_c, 0, 46, 72
1, 215741, Control_c, 0, 64, 82
1, 215750, Note_off_c, 0, 34, 64
1, 215756, Control_c, 0, 64, 104
1, 215770, Control_c, 0, 64, 107
1, 215787, Note_off_c, 0, 69, 43
1, 215790, Note_on_c, 0, 66, 69
1, 215800, Control_c, 0, 64, 112
1, 215803, Note_off_c, 0, 67, 61
1, 215815, Control_c, 0, 64, 127
1, 215855, Note_on_c, 0, 65, 72
1, 215887, Note_off_c, 0, 66, 59
1, 215893, Note_off_c, 0, 65, 64
1, 215897, Note_on_c, 0, 64, 68
1, 215912, Note_on_c, 0, 49, 86
1, 215916, Note_on_c, 0, 37, 81
1, 215934, Note_off_c, 0, 49, 70
1, 215943, Note_off_c, 0, 37, 64
1, 215949, Note_off_c, 0, 64, 64
1, 215963, Note_on_c, 0, 63, 93
1, 216013, Note_on_c, 0, 62, 90
1, 216022, Note_off_c, 0, 63, 65
1, 216022, Control_c, 0, 64, 66
1, 216037, Control_c, 0, 64, 0
1, 216060, Note_off_c, 0, 62, 66
1, 216136, Note_on_c, 0, 40, 83
1, 216136, Note_on_c, 0, 52, 88
1, 216150, Note_on_c, 0, 61, 72
1, 216157, Note_on_c, 0, 60, 59
1, 216157, Note_off_c, 0, 52, 71
1, 216162, Note_off_c, 0, 40, 68
1, 216170, Control_c, 0, 64, 71
1, 216174, Note_off_c, 0, 61, 66
1, 216185, Control_c, 0, 64, 91
1, 216194, Note_off_c, 0, 60, 0
1, 216194, Note_on_c, 0, 60, 58
1, 216200, Control_c, 0, 64, 127
1, 216243, Note_off_c, 0, 60, 66
1, 216244, Note_on_c, 0, 59, 86
1, 216246, Note_on_c, 0, 61, 43
1, 216274, Note_off_c, 0, 61, 58
1, 216290, Note_on_c, 0, 58, 94
1, 216294, Note_off_c, 0, 59, 62
1, 216322, Note_off_c, 0, 58, 70
1, 216335, Note_on_c, 0, 54, 100
1, 216339, Note_on_c, 0, 42, 95
1, 216357, Note_off_c, 0, 54, 67
1, 216360, Note_off_c, 0, 42, 71
1, 216562, Note_on_c, 0, 55, 97
1, 216562, Note_on_c, 0, 43, 95
1, 216564, Control_c, 0, 67, 21
1, 216568, Note_on_c, 0, 31, 85
1, 216579, Control_c, 0, 64, 71
1, 216579, Control_c, 0, 67, 0
1, 216586, Note_off_c, 0, 43, 71
1, 216593, Control_c, 0, 64, 0
1, 216594, Note_off_c, 0, 31, 66
1, 216595, Note_off_c, 0, 55, 67
1, 216660, Note_on_c, 0, 54, 90
1, 216665, Note_on_c, 0, 42, 91
1, 216669, Note_on_c, 0, 30, 86
1, 216687, Note_off_c, 0, 54, 68
1, 216690, Note_off_c, 0, 42, 67
1, 216696, Note_off_c, 0, 30, 68
1, 216726, Note_on_c, 0, 55, 31
1, 216726, Note_off_c, 0, 55, 127
1, 216752, Note_on_c, 0, 55, 71
1, 216762, Note_on_c, 0, 31, 81
1, 216762, Note_on_c, 0, 43, 96
1, 216784, Note_on_c, 0, 32, 47
1, 216784, Note_off_c, 0, 43, 71
1, 216787, Note_off_c, 0, 55, 66
1, 216791, Note_off_c, 0, 31, 65
1, 216818, Note_off_c, 0, 32, 50
1, 216979, Note_on_c, 0, 55, 96
1, 216981, Note_on_c, 0, 43, 94
1, 216983, Note_on_c, 0, 31, 94
1, 217011, Note_off_c, 0, 43, 68
1, 217015, Note_off_c, 0, 31, 64
1, 217015, Note_off_c, 0, 55, 67
1, 217209, Note_on_c, 0, 43, 99
1, 217209, Note_on_c, 0, 55, 95
1, 217212, Note_on_c, 0, 31, 93
1, 217247, Note_off_c, 0, 55, 66
1, 217249, Note_off_c, 0, 43, 64
1, 217254, Note_off_c, 0, 31, 62
1, 217417, Control_c, 0, 64, 44
1, 217417, Control_c, 0, 67, 21
1, 217425, Note_on_c, 0, 43, 100
1, 217426, Note_on_c, 0, 31, 93
1, 217427, Note_on_c, 0, 55, 98
1, 217432, Control_c, 0, 64, 80
1, 217432, Control_c, 0, 67, 0
1, 217447, Control_c, 0, 64, 127
1, 217452, Note_off_c, 0, 31, 69
1, 217452, Note_off_c, 0, 43, 68
1, 217462, Note_off_c, 0, 55, 67
1, 217624, Control_c, 0, 64, 81
1, 217639, Control_c, 0, 64, 47
1, 217639, Control_c, 0, 67, 36
1, 217649, Note_on_c, 0, 46, 98
1, 217653, Note_on_c, 0, 34, 88
1, 217654, Control_c, 0, 64, 0
1, 217654, Control_c, 0, 67, 29
1, 217668, Control_c, 0, 67, 0
1, 217678, Note_off_c, 0, 46, 63
1, 217680, Note_off_c, 0, 34, 67
1, 217683, Control_c, 0, 64, 57
1, 217698, Control_c, 0, 64, 78
1, 217713, Control_c, 0, 64, 127
1, 217815, Control_c, 0, 64, 111
1, 217830, Control_c, 0, 64, 68
1, 217845, Control_c, 0, 64, 41
1, 217859, Note_on_c, 0, 49, 103
1, 217859, Control_c, 0, 64, 49
1, 217869, Note_on_c, 0, 37, 81
1, 217874, Control_c, 0, 64, 68
1, 217877, Note_on_c, 0, 39, 70
1, 217889, Control_c, 0, 64, 127
1, 217894, Note_off_c, 0, 49, 64
1, 217894, Note_off_c, 0, 37, 63
1, 217902, Note_off_c, 0, 39, 59
1, 218061, Control_c, 0, 67, 21
1, 218070, Note_on_c, 0, 53, 86
1, 218074, Note_on_c, 0, 41, 88
1, 218076, Control_c, 0, 67, 0
1, 218087, Note_on_c, 0, 82, 100
1, 218091, Control_c, 0, 64, 98
1, 218095, Note_off_c, 0, 53, 67
1, 218100, Note_off_c, 0, 41, 66
1, 218106, Control_c, 0, 64, 59
1, 218120, Note_on_c, 0, 84, 87
1, 218120, Control_c, 0, 64, 0
1, 218124, Note_off_c, 0, 82, 68
1, 218163, Note_on_c, 0, 85, 98
1, 218183, Note_off_c, 0, 84, 66
1, 218290, Note_on_c, 0, 52, 88
1, 218293, Note_on_c, 0, 40, 85
1, 218298, Note_off_c, 0, 85, 65
1, 218313, Note_off_c, 0, 52, 67
1, 218320, Note_off_c, 0, 40, 68
1, 218327, Control_c, 0, 64, 52
1, 218342, Control_c, 0, 64, 85
1, 218356, Control_c, 0, 64, 127
1, 218401, Note_on_c, 0, 84, 73
1, 218419, Note_on_c, 0, 83, 68
1, 218436, Note_on_c, 0, 82, 90
1, 218441, Note_off_c, 0, 83, 38
1, 218459, Note_off_c, 0, 84, 64
1, 218492, Note_on_c, 0, 80, 87
1, 218496, Note_off_c, 0, 82, 65
1, 218501, Note_on_c, 0, 55, 80
1, 218508, Note_on_c, 0, 43, 73
1, 218523, Note_off_c, 0, 55, 69
1, 218536, Note_off_c, 0, 43, 65
1, 218541, Note_off_c, 0, 80, 64
1, 218549, Note_on_c, 0, 79, 77
1, 218599, Note_off_c, 0, 79, 66
1, 218600, Note_on_c, 0, 77, 84
1, 218624, Note_on_c, 0, 79, 69
1, 218651, Note_off_c, 0, 77, 49
1, 218690, Control_c, 0, 64, 92
1, 218702, Note_on_c, 0, 77, 90
1, 218705, Control_c, 0, 64, 57
1, 218711, Note_off_c, 0, 79, 66
1, 218718, Note_on_c, 0, 58, 94
1, 218720, Control_c, 0, 64, 0
1, 218729, Note_on_c, 0, 46, 73
1, 218736, Note_off_c, 0, 58, 73
1, 218750, Control_c, 0, 64, 44
1, 218753, Note_off_c, 0, 77, 66
1, 218756, Note_off_c, 0, 46, 65
1, 218757, Note_on_c, 0, 79, 94
1, 218764, Control_c, 0, 64, 76
1, 218779, Control_c, 0, 64, 127
1, 218812, Note_on_c, 0, 76, 102
1, 218837, Note_off_c, 0, 76, 68
1, 218881, Note_off_c, 0, 79, 24
1, 218941, Note_on_c, 0, 61, 88
1, 218945, Note_on_c, 0, 49, 92
1, 218960, Note_off_c, 0, 61, 72
1, 218964, Note_off_c, 0, 49, 72
1, 219154, Note_on_c, 0, 60, 98
1, 219155, Note_on_c, 0, 48, 93
1, 219161, Note_on_c, 0, 36, 84
1, 219177, Note_off_c, 0, 48, 72
1, 219180, Control_c, 0, 64, 72
1, 219185, Note_off_c, 0, 60, 67
1, 219187, Note_off_c, 0, 36, 69
1, 219194, Control_c, 0, 64, 0
1, 219252, Note_on_c, 0, 59, 92
1, 219254, Note_on_c, 0, 47, 91
1, 219259, Note_on_c, 0, 35, 92
1, 219280, Note_off_c, 0, 47, 67
1, 219286, Note_off_c, 0, 59, 66
1, 219287, Note_off_c, 0, 35, 67
1, 219348, Note_on_c, 0, 48, 101
1, 219351, Note_on_c, 0, 36, 97
1, 219351, Note_on_c, 0, 60, 102
1, 219375, Note_off_c, 0, 48, 67
1, 219377, Note_off_c, 0, 36, 68
1, 219378, Note_off_c, 0, 60, 71
1, 219439, Control_c, 0, 64, 46
1, 219454, Control_c, 0, 64, 58
1, 219468, Control_c, 0, 64, 57
1, 219483, Control_c, 0, 64, 53
1, 219513, Control_c, 0, 64, 55
1, 219528, Control_c, 0, 64, 57
1, 219543, Control_c, 0, 64, 54
1, 219558, Control_c, 0, 64, 0
1, 219576, Note_on_c, 0, 55, 101
1, 219577, Note_on_c, 0, 43, 96
1, 219579, Note_on_c, 0, 31, 92
1, 219611, Note_off_c, 0, 31, 64
1, 219612, Note_off_c, 0, 43, 64
1, 219619, Note_off_c, 0, 55, 66
1, 219808, Note_on_c, 0, 45, 91
1, 219810, Note_on_c, 0, 57, 98
1, 219811, Note_on_c, 0, 33, 88
1, 219850, Note_off_c, 0, 45, 65
1, 219850, Note_off_c, 0, 57, 69
1, 219859, Note_off_c, 0, 33, 63
1, 220033, Control_c, 0, 64, 44
1, 220033, Control_c, 0, 67, 35
1, 220041, Note_on_c, 0, 46, 98
1, 220046, Note_on_c, 0, 34, 80
1, 220048, Control_c, 0, 64, 127
1, 220048, Control_c, 0, 67, 42
1, 220053, Note_on_c, 0, 58, 95
1, 220062, Control_c, 0, 67, 36
1, 220074, Note_off_c, 0, 34, 64
1, 220074, Note_off_c, 0, 58, 67
1, 220077, Note_off_c, 0, 46, 67
1, 220077, Control_c, 0, 67, 34
1, 220092, Control_c, 0, 67, 33
1, 220107, Control_c, 0, 67, 33
1, 220122, Control_c, 0, 67, 35
1, 220136, Control_c, 0, 67, 33
1, 220151, Control_c, 0, 67, 30
1, 220166, Control_c, 0, 67, 25
1, 220189, Control_c, 0, 67, 19
1, 220248, Control_c, 0, 67, 0
1, 220334, Note_on_c, 0, 64, 82
1, 220336, Note_on_c, 0, 79, 94
1, 220336, Note_on_c, 0, 67, 81
1, 220360, Note_on_c, 0, 81, 96
1, 220376, Note_off_c, 0, 79, 67
1, 220422, Note_on_c, 0, 82, 99
1, 220431, Note_off_c, 0, 81, 61
1, 220640, Note_on_c, 0, 81, 78
1, 220661, Note_off_c, 0, 82, 58
1, 220693, Note_off_c, 0, 81, 65
1, 220705, Note_on_c, 0, 79, 73
1, 220731, Note_off_c, 0, 79, 68
1, 220753, Note_on_c, 0, 77, 43
1, 220785, Note_off_c, 0, 77, 65
1, 220794, Note_on_c, 0, 76, 78
1, 220851, Note_on_c, 0, 74, 87
1, 220856, Note_off_c, 0, 76, 66
1, 220890, Note_off_c, 0, 74, 63
1, 220914, Note_on_c, 0, 76, 87
1, 220945, Note_on_c, 0, 74, 47
1, 220971, Note_off_c, 0, 74, 0
1, 220971, Note_on_c, 0, 74, 58
1, 220977, Note_off_c, 0, 67, 60
1, 220980, Note_off_c, 0, 76, 64
1, 220992, Note_off_c, 0, 64, 63
1, 221031, Note_on_c, 0, 76, 90
1, 221035, Note_off_c, 0, 74, 63
1, 221066, Note_off_c, 0, 76, 59
1, 221092, Note_on_c, 0, 72, 94
1, 221124, Note_off_c, 0, 72, 68
1, 221212, Note_on_c, 0, 48, 89
1, 221221, Note_on_c, 0, 36, 83
1, 221224, Note_on_c, 0, 60, 92
1, 221234, Note_off_c, 0, 48, 71
1, 221234, Control_c, 0, 64, 94
1, 221241, Note_on_c, 0, 62, 65
1, 221241, Note_off_c, 0, 62, 127
1, 221248, Note_off_c, 0, 60, 69
1, 221248, Note_off_c, 0, 36, 66
1, 221249, Control_c, 0, 64, 63
1, 221263, Control_c, 0, 64, 0
1, 221328, Note_on_c, 0, 35, 91
1, 221329, Note_on_c, 0, 47, 80
1, 221333, Note_on_c, 0, 59, 92
1, 221354, Note_off_c, 0, 47, 68
1, 221355, Note_off_c, 0, 35, 68
1, 221357, Note_on_c, 0, 45, 46
1, 221357, Note_off_c, 0, 45, 127
1, 221358, Note_off_c, 0, 59, 66
1, 221426, Note_on_c, 0, 48, 93
1, 221430, Note_on_c, 0, 36, 91
1, 221431, Note_on_c, 0, 60, 99
1, 221451, Note_off_c, 0, 48, 68
1, 221455, Note_off_c, 0, 36, 70
1, 221460, Note_off_c, 0, 60, 71
1, 221500, Control_c, 0, 64, 56
1, 221515, Control_c, 0, 64, 63
1, 221530, Control_c, 0, 64, 60
1, 221545, Control_c, 0, 64, 55
1, 221560, Control_c, 0, 64, 54
1, 221574, Control_c, 0, 64, 60
1, 221589, Control_c, 0, 64, 66
1, 221604, Control_c, 0, 64, 70
1, 221619, Control_c, 0, 64, 66
1, 221633, Control_c, 0, 64, 39
1, 221645, Note_on_c, 0, 55, 101
1, 221648, Note_on_c, 0, 43, 99
1, 221648, Control_c, 0, 64, 0
1, 221652, Note_on_c, 0, 31, 92
1, 221688, Note_off_c, 0, 31, 68
1, 221691, Note_off_c, 0, 43, 64
1, 221693, Note_off_c, 0, 55, 66
1, 221883, Note_on_c, 0, 45, 100
1, 221887, Note_on_c, 0, 33, 90
1, 221889, Note_on_c, 0, 57, 98
1, 221918, Note_off_c, 0, 33, 67
1, 221922, Note_off_c, 0, 45, 65
1, 221928, Note_off_c, 0, 57, 69
1, 222130, Note_on_c, 0, 46, 100
1, 222130, Control_c, 0, 64, 56
1, 222130, Control_c, 0, 67, 29
1, 222133, Note_on_c, 0, 34, 81
1, 222142, Note_on_c, 0, 58, 99
1, 222145, Control_c, 0, 64, 127
1, 222145, Control_c, 0, 67, 25
1, 222160, Control_c, 0, 67, 0
1, 222164, Note_off_c, 0, 34, 64
1, 222174, Note_off_c, 0, 46, 65
1, 222175, Note_off_c, 0, 58, 68
1, 222442, Note_on_c, 0, 66, 87
1, 222446, Note_on_c, 0, 61, 83
1, 222449, Note_on_c, 0, 78, 101
1, 222464, Control_c, 0, 64, 111
1, 222464, Control_c, 0, 67, 25
1, 222479, Control_c, 0, 64, 77
1, 222479, Control_c, 0, 67, 22
1, 222494, Note_on_c, 0, 80, 92
1, 222494, Control_c, 0, 64, 68
1, 222494, Control_c, 0, 67, 20
1, 222506, Note_off_c, 0, 78, 66
1, 222509, Control_c, 0, 64, 70
1, 222509, Control_c, 0, 67, 0
1, 222524, Control_c, 0, 64, 77
1, 222539, Control_c, 0, 64, 98
1, 222552, Note_on_c, 0, 82, 100
1, 222553, Control_c, 0, 64, 127
1, 222553, Control_c, 0, 67, 20
1, 222568, Control_c, 0, 67, 22
1, 222571, Note_off_c, 0, 80, 63
1, 222613, Control_c, 0, 67, 20
1, 222731, Control_c, 0, 67, 0
1, 222794, Note_on_c, 0, 80, 87
1, 222829, Note_off_c, 0, 82, 58
1, 222865, Note_on_c, 0, 78, 80
1, 222868, Note_off_c, 0, 80, 60
1, 222897, Note_on_c, 0, 77, 68
1, 222908, Note_off_c, 0, 78, 62
1, 222956, Note_off_c, 0, 77, 64
1, 222973, Note_on_c, 0, 75, 82
1, 223024, Note_off_c, 0, 75, 66
1, 223036, Note_on_c, 0, 74, 86
1, 223099, Note_on_c, 0, 75, 70
1, 223130, Note_off_c, 0, 75, 0
1, 223152, Note_off_c, 0, 74, 60
1, 223154, Note_on_c, 0, 75, 33
1, 223158, Note_on_c, 0, 73, 59
1, 223192, Note_off_c, 0, 75, 57
1, 223200, Note_off_c, 0, 73, 50
1, 223224, Note_on_c, 0, 71, 82
1, 223236, Note_on_c, 0, 72, 35
1, 223243, Note_off_c, 0, 71, 73
1, 223244, Note_off_c, 0, 66, 58
1, 223258, Note_on_c, 0, 67, 96
1, 223264, Note_on_c, 0, 64, 83
1, 223272, Note_on_c, 0, 71, 96
1, 223280, Note_off_c, 0, 61, 62
1, 223281, Note_off_c, 0, 72, 66
1, 223289, Note_off_c, 0, 64, 66
1, 223293, Note_off_c, 0, 67, 64
1, 223307, Note_off_c, 0, 71, 67
1, 223314, Note_on_c, 0, 63, 5
1, 223314, Note_off_c, 0, 63, 127
1, 223367, Poly_aftertouch_c, 0, 63, 0
1, 223436, Control_c, 0, 64, 104
1, 223451, Control_c, 0, 64, 72
1, 223466, Control_c, 0, 64, 48
1, 223480, Control_c, 0, 64, 0
1, 223892, Note_on_c, 0, 45, 90
1, 223892, Note_on_c, 0, 57, 92
1, 223896, Note_on_c, 0, 33, 86
1, 223929, Note_off_c, 0, 45, 67
1, 223931, Note_off_c, 0, 33, 70
1, 223936, Note_off_c, 0, 57, 66
1, 224052, Note_on_c, 0, 46, 96
1, 224053, Note_on_c, 0, 58, 90
1, 224054, Note_on_c, 0, 34, 84
1, 224083, Note_off_c, 0, 34, 67
1, 224089, Note_off_c, 0, 58, 66
1, 224090, Note_off_c, 0, 46, 60
1, 224192, Note_on_c, 0, 60, 95
1, 224193, Note_on_c, 0, 48, 87
1, 224194, Note_on_c, 0, 36, 85
1, 224221, Note_off_c, 0, 48, 68
1, 224224, Note_off_c, 0, 36, 68
1, 224228, Note_off_c, 0, 60, 67
1, 224344, Note_on_c, 0, 49, 93
1, 224348, Note_on_c, 0, 37, 87
1, 224349, Note_on_c, 0, 61, 101
1, 224383, Note_off_c, 0, 37, 62
1, 224384, Note_off_c, 0, 61, 66
1, 224387, Note_off_c, 0, 49, 65
1, 224513, Note_on_c, 0, 36, 88
1, 224514, Note_on_c, 0, 60, 102
1, 224515, Note_on_c, 0, 48, 88
1, 224542, Note_off_c, 0, 48, 68
1, 224545, Note_off_c, 0, 36, 65
1, 224550, Note_off_c, 0, 60, 69
1, 224716, Note_on_c, 0, 49, 94
1, 224717, Note_on_c, 0, 37, 87
1, 224720, Note_on_c, 0, 61, 103
1, 224741, Control_c, 0, 64, 70
1, 224756, Control_c, 0, 64, 127
1, 224863, Note_off_c, 0, 61, 58
1, 224877, Note_off_c, 0, 37, 60
1, 224914, Note_off_c, 0, 49, 62
1, 225153, Note_on_c, 0, 74, 96
1, 225204, Note_on_c, 0, 75, 83
1, 225230, Note_off_c, 0, 74, 57
1, 225255, Note_on_c, 0, 73, 85
1, 225314, Note_off_c, 0, 73, 64
1, 225317, Note_on_c, 0, 72, 87
1, 225320, Note_off_c, 0, 75, 59
1, 225365, Note_off_c, 0, 72, 63
1, 225368, Note_on_c, 0, 64, 87
1, 225371, Note_on_c, 0, 67, 91
1, 225373, Note_on_c, 0, 71, 106
1, 225404, Note_off_c, 0, 71, 72
1, 225408, Note_off_c, 0, 64, 66
1, 225409, Note_off_c, 0, 67, 61
1, 225519, Control_c, 0, 64, 98
1, 225534, Control_c, 0, 64, 65
1, 225549, Control_c, 0, 64, 35
1, 225564, Control_c, 0, 64, 0
1, 226369, Note_on_c, 0, 48, 98
1, 226372, Note_on_c, 0, 36, 95
1, 226405, Note_off_c, 0, 48, 67
1, 226409, Note_off_c, 0, 36, 62
1, 226579, Note_on_c, 0, 49, 99
1, 226584, Note_on_c, 0, 37, 86
1, 226615, Note_off_c, 0, 37, 65
1, 226617, Note_off_c, 0, 49, 66
1, 226766, Note_on_c, 0, 51, 92
1, 226766, Note_on_c, 0, 39, 89
1, 226812, Note_off_c, 0, 39, 58
1, 226814, Note_off_c, 0, 51, 61
1, 226952, Note_on_c, 0, 52, 94
1, 226956, Note_on_c, 0, 40, 91
1, 226995, Note_off_c, 0, 40, 65
1, 226995, Note_off_c, 0, 52, 63
1, 227210, Note_on_c, 0, 51, 85
1, 227210, Note_on_c, 0, 55, 93
1, 227214, Note_on_c, 0, 39, 78
1, 227254, Note_off_c, 0, 55, 64
1, 227260, Note_off_c, 0, 39, 57
1, 227264, Note_off_c, 0, 51, 60
1, 227296, Note_on_c, 0, 57, 94
1, 227381, Note_on_c, 0, 58, 99
1, 227383, Note_on_c, 0, 52, 86
1, 227388, Note_on_c, 0, 40, 75
1, 227390, Note_off_c, 0, 57, 62
1, 227551, Control_c, 0, 64, 35
1, 227566, Control_c, 0, 64, 50
1, 227580, Control_c, 0, 64, 60
1, 227596, Control_c, 0, 64, 66
1, 227611, Control_c, 0, 64, 70
1, 227626, Control_c, 0, 64, 72
1, 227641, Control_c, 0, 64, 73
1, 227656, Control_c, 0, 64, 74
1, 227678, Control_c, 0, 64, 75
1, 227693, Control_c, 0, 64, 77
1, 227707, Control_c, 0, 64, 80
1, 227722, Control_c, 0, 64, 81
1, 227737, Control_c, 0, 64, 82
1, 227771, Note_off_c, 0, 40, 47
1, 227773, Note_off_c, 0, 52, 55
1, 227856, Control_c, 0, 64, 82
1, 227870, Control_c, 0, 64, 81
1, 227885, Control_c, 0, 64, 80
1, 227900, Control_c, 0, 64, 77
1, 227915, Control_c, 0, 64, 75
1, 227930, Control_c, 0, 64, 72
1, 227944, Control_c, 0, 64, 70
1, 227959, Control_c, 0, 64, 67
1, 227974, Control_c, 0, 64, 64
1, 227989, Control_c, 0, 64, 61
1, 228003, Control_c, 0, 64, 56
1, 228018, Control_c, 0, 64, 53
1, 228033, Control_c, 0, 64, 52
1, 228092, Control_c, 0, 64, 51
1, 228107, Control_c, 0, 64, 50
1, 228122, Control_c, 0, 64, 50
1, 228152, Control_c, 0, 64, 48
1, 228167, Control_c, 0, 64, 46
1, 228181, Control_c, 0, 64, 43
1, 228196, Control_c, 0, 64, 42
1, 228256, Control_c, 0, 64, 41
1, 228315, Control_c, 0, 64, 42
1, 228374, Control_c, 0, 64, 41
1, 228486, Control_c, 0, 64, 42
1, 228560, Control_c, 0, 64, 42
1, 228605, Control_c, 0, 64, 43
1, 228708, Control_c, 0, 64, 43
1, 228723, Control_c, 0, 64, 44
1, 228752, Control_c, 0, 64, 44
1, 228826, Control_c, 0, 64, 45
1, 228930, Control_c, 0, 64, 45
1, 229018, Control_c, 0, 64, 46
1, 229122, Control_c, 0, 64, 46
1, 229219, Control_c, 0, 64, 47
1, 229249, Control_c, 0, 64, 47
1, 229293, Control_c, 0, 67, 19
1, 229308, Control_c, 0, 64, 48
1, 229397, Control_c, 0, 67, 21
1, 229412, Control_c, 0, 64, 48
1, 229502, Note_on_c, 0, 55, 55
1, 229528, Note_off_c, 0, 58, 60
1, 229589, Control_c, 0, 64, 49
1, 229604, Control_c, 0, 67, 23
1, 229606, Note_on_c, 0, 54, 66
1, 229619, Control_c, 0, 64, 49
1, 229625, Note_off_c, 0, 55, 57
1, 229648, Control_c, 0, 67, 25
1, 229663, Control_c, 0, 64, 50
1, 229693, Control_c, 0, 64, 50
1, 229711, Note_on_c, 0, 52, 72
1, 229745, Note_off_c, 0, 54, 57
1, 229782, Note_off_c, 0, 52, 63
1, 229785, Note_on_c, 0, 46, 76
1, 229797, Control_c, 0, 64, 50
1, 229842, Control_c, 0, 64, 49
1, 229850, Note_off_c, 0, 46, 64
1, 229878, Note_on_c, 0, 52, 75
1, 229901, Control_c, 0, 64, 49
1, 229938, Control_c, 0, 64, 48
1, 229967, Control_c, 0, 64, 48
1, 229977, Note_on_c, 0, 54, 76
1, 229977, Note_off_c, 0, 52, 63
1, 229982, Control_c, 0, 64, 47
1, 230028, Control_c, 0, 64, 47
1, 230059, Note_off_c, 0, 54, 62
1, 230066, Note_on_c, 0, 55, 77
1, 230072, Control_c, 0, 64, 46
1, 230102, Control_c, 0, 64, 46
1, 230132, Control_c, 0, 64, 45
1, 230161, Control_c, 0, 64, 45
1, 230170, Note_off_c, 0, 55, 62
1, 230171, Note_on_c, 0, 57, 74
1, 230250, Control_c, 0, 64, 44
1, 230369, Control_c, 0, 64, 44
1, 230387, Note_on_c, 0, 58, 62
1, 230393, Note_off_c, 0, 57, 61
1, 230605, Control_c, 0, 64, 43
1, 230635, Control_c, 0, 64, 43
1, 230687, Control_c, 0, 64, 43
1, 230776, Control_c, 0, 64, 44
1, 230776, Control_c, 0, 67, 23
1, 230807, Control_c, 0, 64, 44
1, 230881, Control_c, 0, 64, 45
1, 230969, Control_c, 0, 64, 45
1, 231043, Control_c, 0, 64, 46
1, 231058, Control_c, 0, 64, 46
1, 231133, Control_c, 0, 64, 47
1, 231147, Control_c, 0, 64, 48
1, 231162, Control_c, 0, 67, 25
1, 231177, Control_c, 0, 64, 48
1, 231207, Control_c, 0, 64, 49
1, 231221, Control_c, 0, 64, 49
1, 231236, Control_c, 0, 64, 51
1, 231251, Control_c, 0, 64, 51
1, 231266, Control_c, 0, 64, 52
1, 231266, Control_c, 0, 67, 27
1, 231310, Control_c, 0, 64, 53
1, 231325, Control_c, 0, 64, 53
1, 231339, Control_c, 0, 67, 29
1, 231354, Control_c, 0, 64, 54
1, 231354, Control_c, 0, 67, 32
1, 231369, Control_c, 0, 64, 54
1, 231369, Control_c, 0, 67, 35
1, 231384, Control_c, 0, 67, 38
1, 231399, Control_c, 0, 64, 55
1, 231399, Control_c, 0, 67, 40
1, 231421, Control_c, 0, 67, 43
1, 231436, Control_c, 0, 64, 55
1, 231436, Control_c, 0, 67, 46
1, 231451, Control_c, 0, 64, 56
1, 231451, Control_c, 0, 67, 49
1, 231466, Control_c, 0, 64, 56
1, 231466, Control_c, 0, 67, 51
1, 231481, Control_c, 0, 67, 55
1, 231495, Control_c, 0, 64, 57
1, 231495, Control_c, 0, 67, 61
1, 231510, Control_c, 0, 67, 68
1, 231525, Control_c, 0, 64, 57
1, 231525, Control_c, 0, 67, 76
1, 231539, Control_c, 0, 64, 58
1, 231539, Control_c, 0, 67, 82
1, 231554, Control_c, 0, 64, 59
1, 231554, Control_c, 0, 67, 88
1, 231569, Control_c, 0, 64, 60
1, 231569, Control_c, 0, 67, 93
1, 231584, Control_c, 0, 64, 61
1, 231584, Control_c, 0, 67, 98
1, 231600, Control_c, 0, 64, 61
1, 231600, Control_c, 0, 67, 103
1, 231615, Control_c, 0, 64, 62
1, 231615, Control_c, 0, 67, 107
1, 231630, Control_c, 0, 67, 111
1, 231644, Control_c, 0, 64, 62
1, 231644, Control_c, 0, 67, 114
1, 231659, Control_c, 0, 64, 63
1, 231659, Control_c, 0, 67, 117
1, 231674, Control_c, 0, 64, 64
1, 231674, Control_c, 0, 67, 120
1, 231689, Control_c, 0, 64, 65
1, 231689, Control_c, 0, 67, 124
1, 231704, Control_c, 0, 64, 66
1, 231704, Control_c, 0, 67, 127
1, 231718, Control_c, 0, 64, 66
1, 231733, Control_c, 0, 64, 67
1, 231748, Control_c, 0, 64, 68
1, 231762, Control_c, 0, 64, 68
1, 231777, Control_c, 0, 64, 70
1, 231792, Control_c, 0, 64, 71
1, 231807, Control_c, 0, 64, 72
1, 231822, Control_c, 0, 64, 73
1, 231836, Control_c, 0, 64, 74
1, 231851, Control_c, 0, 64, 75
1, 231866, Control_c, 0, 64, 76
1, 231881, Control_c, 0, 64, 76
1, 231896, Control_c, 0, 64, 77
1, 231911, Control_c, 0, 64, 77
1, 231925, Control_c, 0, 64, 78
1, 231940, Control_c, 0, 64, 79
1, 231955, Control_c, 0, 64, 80
1, 231970, Control_c, 0, 64, 82
1, 231983, Control_c, 0, 64, 84
1, 231998, Control_c, 0, 64, 87
1, 232013, Control_c, 0, 64, 88
1, 232028, Control_c, 0, 64, 90
1, 232042, Control_c, 0, 64, 92
1, 232057, Control_c, 0, 64, 94
1, 232072, Control_c, 0, 64, 95
1, 232101, Control_c, 0, 64, 99
1, 232116, Control_c, 0, 64, 101
1, 232131, Control_c, 0, 64, 103
1, 232146, Control_c, 0, 64, 105
1, 232168, Control_c, 0, 64, 107
1, 232183, Control_c, 0, 64, 110
1, 232198, Control_c, 0, 64, 113
1, 232213, Control_c, 0, 64, 115
1, 232228, Control_c, 0, 64, 119
1, 232242, Control_c, 0, 64, 124
1, 232257, Control_c, 0, 64, 127
1, 232993, Note_on_c, 0, 55, 32
1, 233054, Note_off_c, 0, 58, 47
1, 233307, Note_on_c, 0, 54, 38
1, 233373, Note_off_c, 0, 55, 41
1, 233498, Note_on_c, 0, 52, 54
1, 233635, Note_off_c, 0, 54, 27
1, 233685, Note_off_c, 0, 52, 58
1, 233686, Note_on_c, 0, 46, 52
1, 233890, Note_on_c, 0, 28, 43
1, 233948, Note_off_c, 0, 46, 55
1, 233948, Control_c, 0, 64, 82
1, 233963, Control_c, 0, 64, 60
1, 233964, Note_on_c, 0, 52, 49
1, 233978, Control_c, 0, 64, 0
1, 234024, Control_c, 0, 64, 37
1, 234038, Control_c, 0, 64, 60
1, 234053, Control_c, 0, 64, 69
1, 234068, Control_c, 0, 64, 75
1, 234082, Control_c, 0, 64, 76
1, 234158, Note_off_c, 0, 52, 57
1, 234171, Control_c, 0, 64, 77
1, 234181, Note_on_c, 0, 54, 54
1, 234185, Note_on_c, 0, 35, 31
1, 234186, Control_c, 0, 64, 78
1, 234191, Note_off_c, 0, 28, 37
1, 234201, Control_c, 0, 64, 78
1, 234216, Control_c, 0, 64, 79
1, 234230, Control_c, 0, 64, 80
1, 234245, Control_c, 0, 64, 81
1, 234251, Note_off_c, 0, 35, 57
1, 234260, Control_c, 0, 64, 81
1, 234308, Note_off_c, 0, 54, 63
1, 234326, Note_on_c, 0, 55, 61
1, 234331, Note_on_c, 0, 40, 36
1, 234376, Note_off_c, 0, 40, 60
1, 234379, Control_c, 0, 64, 82
1, 234450, Note_off_c, 0, 55, 58
1, 234459, Note_on_c, 0, 47, 50
1, 234462, Note_on_c, 0, 54, 55
1, 234465, Note_on_c, 0, 58, 55
1, 234489, Control_c, 0, 64, 81
1, 234534, Control_c, 0, 64, 81
1, 234549, Control_c, 0, 64, 79
1, 234564, Control_c, 0, 64, 77
1, 234578, Control_c, 0, 64, 75
1, 234593, Control_c, 0, 64, 72
1, 234608, Control_c, 0, 64, 68
1, 234623, Control_c, 0, 64, 63
1, 234635, Note_off_c, 0, 47, 56
1, 234638, Control_c, 0, 64, 52
1, 234649, Note_off_c, 0, 54, 56
1, 234653, Control_c, 0, 64, 0
1, 234676, Note_on_c, 0, 55, 45
1, 234677, Note_on_c, 0, 59, 56
1, 234692, Note_on_c, 0, 52, 41
1, 234698, Note_off_c, 0, 58, 52
1, 234817, Control_c, 0, 64, 47
1, 234832, Control_c, 0, 64, 60
1, 234835, Note_off_c, 0, 52, 45
1, 234847, Control_c, 0, 64, 65
1, 234861, Control_c, 0, 64, 67
1, 234865, Note_on_c, 0, 47, 31
1, 234876, Control_c, 0, 64, 68
1, 234891, Control_c, 0, 64, 68
1, 234906, Control_c, 0, 64, 69
1, 234920, Control_c, 0, 64, 70
1, 234935, Control_c, 0, 64, 72
1, 234950, Control_c, 0, 64, 73
1, 234958, Note_off_c, 0, 47, 48
1, 234965, Control_c, 0, 64, 75
1, 234980, Control_c, 0, 64, 76
1, 234995, Control_c, 0, 64, 78
1, 234999, Note_on_c, 0, 52, 39
1, 235003, Note_off_c, 0, 55, 37
1, 235010, Control_c, 0, 64, 80
1, 235025, Control_c, 0, 64, 82
1, 235040, Control_c, 0, 64, 85
1, 235054, Control_c, 0, 64, 88
1, 235069, Control_c, 0, 64, 90
1, 235084, Control_c, 0, 64, 92
1, 235098, Note_off_c, 0, 52, 38
1, 235099, Control_c, 0, 64, 93
1, 235113, Control_c, 0, 64, 94
1, 235128, Control_c, 0, 64, 94
1, 235129, Note_on_c, 0, 47, 41
1, 235166, Control_c, 0, 64, 95
1, 235204, Note_off_c, 0, 47, 59
1, 235292, Note_off_c, 0, 59, 58
1, 235316, Note_on_c, 0, 55, 48
1, 235318, Note_on_c, 0, 40, 42
1, 235414, Note_off_c, 0, 40, 46
1, 235440, Note_on_c, 0, 35, 47
1, 235443, Note_on_c, 0, 54, 60
1, 235443, Note_off_c, 0, 55, 58
1, 235476, Control_c, 0, 64, 94
1, 235506, Control_c, 0, 64, 94
1, 235526, Note_off_c, 0, 35, 50
1, 235535, Control_c, 0, 64, 93
1, 235550, Control_c, 0, 64, 93
1, 235556, Note_on_c, 0, 28, 49
1, 235565, Control_c, 0, 64, 92
1, 235567, Note_on_c, 0, 52, 68
1, 235581, Control_c, 0, 64, 92
1, 235592, Note_off_c, 0, 54, 49
1, 235625, Control_c, 0, 64, 91
1, 235640, Control_c, 0, 64, 90
1, 235655, Control_c, 0, 64, 90
1, 235656, Note_off_c, 0, 28, 55
1, 235664, Note_off_c, 0, 52, 60
1, 235670, Note_on_c, 0, 47, 69
1, 235687, Note_on_c, 0, 35, 53
1, 235714, Control_c, 0, 64, 89
1, 235797, Note_off_c, 0, 35, 44
1, 235803, Control_c, 0, 64, 86
1, 235804, Note_off_c, 0, 47, 59
1, 235811, Note_on_c, 0, 52, 64
1, 235816, Note_on_c, 0, 28, 49
1, 235817, Control_c, 0, 64, 70
1, 235832, Control_c, 0, 64, 42
1, 235847, Control_c, 0, 64, 0
1, 235914, Control_c, 0, 64, 45
1, 235929, Control_c, 0, 64, 57
1, 235943, Control_c, 0, 64, 62
1, 235945, Note_on_c, 0, 54, 61
1, 235946, Note_off_c, 0, 52, 62
1, 235958, Control_c, 0, 64, 62
1, 235967, Note_on_c, 0, 35, 43
1, 235982, Note_off_c, 0, 28, 57
1, 236029, Note_off_c, 0, 35, 61
1, 236034, Note_off_c, 0, 54, 63
1, 236056, Note_on_c, 0, 55, 71
1, 236072, Note_on_c, 0, 40, 45
1, 236091, Control_c, 0, 64, 62
1, 236106, Control_c, 0, 64, 61
1, 236116, Note_off_c, 0, 40, 62
1, 236121, Control_c, 0, 64, 61
1, 236135, Control_c, 0, 64, 59
1, 236148, Note_off_c, 0, 55, 54
1, 236150, Control_c, 0, 64, 54
1, 236155, Note_on_c, 0, 58, 66
1, 236161, Note_on_c, 0, 54, 62
1, 236165, Control_c, 0, 64, 48
1, 236179, Note_on_c, 0, 47, 53
1, 236180, Control_c, 0, 64, 40
1, 236195, Control_c, 0, 64, 0
1, 236265, Note_off_c, 0, 54, 59
1, 236277, Note_off_c, 0, 47, 42
1, 236297, Note_off_c, 0, 58, 62
1, 236300, Note_on_c, 0, 55, 49
1, 236306, Note_on_c, 0, 59, 50
1, 236319, Note_on_c, 0, 52, 47
1, 236418, Control_c, 0, 64, 46
1, 236422, Note_off_c, 0, 52, 52
1, 236433, Control_c, 0, 64, 60
1, 236445, Note_on_c, 0, 47, 39
1, 236447, Control_c, 0, 64, 66
1, 236462, Control_c, 0, 64, 68
1, 236477, Control_c, 0, 64, 68
1, 236492, Control_c, 0, 64, 69
1, 236507, Control_c, 0, 64, 70
1, 236512, Note_off_c, 0, 55, 62
1, 236522, Control_c, 0, 64, 71
1, 236528, Note_off_c, 0, 47, 62
1, 236537, Control_c, 0, 64, 73
1, 236552, Control_c, 0, 64, 76
1, 236558, Note_on_c, 0, 52, 55
1, 236566, Control_c, 0, 64, 78
1, 236581, Control_c, 0, 64, 79
1, 236596, Control_c, 0, 64, 80
1, 236602, Note_off_c, 0, 52, 62
1, 236626, Control_c, 0, 64, 80
1, 236673, Note_on_c, 0, 47, 50
1, 236698, Note_off_c, 0, 47, 61
1, 236791, Note_on_c, 0, 40, 59
1, 236805, Note_off_c, 0, 59, 57
1, 236822, Note_on_c, 0, 55, 59
1, 236840, Control_c, 0, 64, 80
1, 236886, Note_off_c, 0, 40, 51
1, 236899, Control_c, 0, 64, 79
1, 236914, Control_c, 0, 64, 79
1, 236915, Note_off_c, 0, 55, 59
1, 236918, Note_on_c, 0, 54, 62
1, 236919, Note_on_c, 0, 35, 46
1, 236929, Control_c, 0, 64, 78
1, 236944, Control_c, 0, 64, 78
1, 236958, Control_c, 0, 64, 77
1, 236969, Note_off_c, 0, 35, 57
1, 236973, Control_c, 0, 64, 77
1, 236988, Control_c, 0, 64, 76
1, 237005, Note_on_c, 0, 28, 50
1, 237017, Control_c, 0, 64, 76
1, 237021, Note_on_c, 0, 52, 72
1, 237047, Note_off_c, 0, 54, 53
1, 237047, Control_c, 0, 64, 75
1, 237076, Control_c, 0, 64, 75
1, 237079, Note_off_c, 0, 52, 62
1, 237086, Note_off_c, 0, 28, 55
1, 237091, Control_c, 0, 64, 74
1, 237102, Note_on_c, 0, 47, 67
1, 237103, Note_on_c, 0, 35, 57
1, 237106, Control_c, 0, 64, 71
1, 237121, Control_c, 0, 64, 63
1, 237136, Control_c, 0, 64, 0
1, 237198, Note_off_c, 0, 47, 62
1, 237211, Control_c, 0, 64, 34
1, 237212, Note_off_c, 0, 35, 53
1, 237215, Note_on_c, 0, 52, 68
1, 237223, Note_on_c, 0, 28, 54
1, 237226, Control_c, 0, 64, 53
1, 237241, Control_c, 0, 64, 62
1, 237255, Control_c, 0, 64, 65
1, 237270, Control_c, 0, 64, 66
1, 237298, Note_off_c, 0, 28, 54
1, 237301, Note_off_c, 0, 52, 59
1, 237315, Note_on_c, 0, 54, 72
1, 237324, Note_on_c, 0, 35, 43
1, 237359, Note_off_c, 0, 35, 60
1, 237373, Note_off_c, 0, 54, 63
1, 237413, Note_on_c, 0, 40, 44
1, 237419, Note_on_c, 0, 55, 67
1, 237446, Note_off_c, 0, 40, 63
1, 237479, Note_off_c, 0, 55, 54
1, 237485, Control_c, 0, 64, 65
1, 237503, Note_on_c, 0, 58, 63
1, 237508, Note_on_c, 0, 54, 59
1, 237520, Note_on_c, 0, 47, 51
1, 237530, Control_c, 0, 64, 65
1, 237544, Control_c, 0, 64, 64
1, 237559, Control_c, 0, 64, 61
1, 237565, Note_off_c, 0, 54, 55
1, 237571, Note_off_c, 0, 47, 56
1, 237574, Control_c, 0, 64, 46
1, 237589, Control_c, 0, 64, 0
1, 237608, Note_on_c, 0, 59, 59
1, 237608, Note_off_c, 0, 58, 63
1, 237616, Note_on_c, 0, 55, 52
1, 237626, Note_on_c, 0, 52, 58
1, 237702, Note_off_c, 0, 52, 59
1, 237707, Control_c, 0, 64, 37
1, 237716, Note_on_c, 0, 47, 46
1, 237722, Control_c, 0, 64, 57
1, 237737, Control_c, 0, 64, 60
1, 237766, Note_off_c, 0, 47, 63
1, 237781, Control_c, 0, 64, 62
1, 237796, Control_c, 0, 64, 63
1, 237811, Control_c, 0, 64, 64
1, 237819, Note_on_c, 0, 52, 58
1, 237826, Control_c, 0, 64, 65
1, 237834, Note_off_c, 0, 55, 42
1, 237840, Control_c, 0, 64, 65
1, 237870, Control_c, 0, 64, 66
1, 237877, Note_off_c, 0, 52, 60
1, 237890, Note_off_c, 0, 59, 61
1, 237904, Note_on_c, 0, 58, 65
1, 237911, Note_on_c, 0, 54, 53
1, 237942, Note_off_c, 0, 54, 64
1, 237964, Note_off_c, 0, 58, 63
1, 237996, Note_on_c, 0, 59, 70
1, 238002, Note_on_c, 0, 52, 62
1, 238005, Control_c, 0, 64, 65
1, 238050, Note_off_c, 0, 59, 61
1, 238080, Note_off_c, 0, 52, 57
1, 238087, Note_on_c, 0, 49, 59
1, 238091, Note_on_c, 0, 61, 72
1, 238138, Note_off_c, 0, 61, 60
1, 238186, Note_off_c, 0, 49, 61
1, 238190, Note_on_c, 0, 62, 71
1, 238200, Note_on_c, 0, 47, 42
1, 238257, Note_off_c, 0, 47, 65
1, 238258, Note_off_c, 0, 62, 58
1, 238269, Note_on_c, 0, 64, 76
1, 238270, Note_on_c, 0, 46, 44
1, 238294, Control_c, 0, 64, 66
1, 238305, Note_off_c, 0, 46, 55
1, 238324, Control_c, 0, 64, 66
1, 238335, Note_off_c, 0, 64, 55
1, 238368, Control_c, 0, 64, 62
1, 238379, Note_on_c, 0, 66, 71
1, 238383, Control_c, 0, 64, 0
1, 238386, Note_on_c, 0, 62, 54
1, 238397, Note_on_c, 0, 38, 63
1, 238420, Note_off_c, 0, 66, 57
1, 238423, Note_off_c, 0, 62, 65
1, 238458, Note_on_c, 0, 67, 74
1, 238477, Note_off_c, 0, 38, 61
1, 238479, Note_on_c, 0, 45, 62
1, 238480, Note_on_c, 0, 64, 52
1, 238501, Control_c, 0, 64, 42
1, 238512, Note_off_c, 0, 45, 64
1, 238516, Note_off_c, 0, 64, 61
1, 238516, Control_c, 0, 64, 50
1, 238531, Control_c, 0, 64, 55
1, 238546, Control_c, 0, 64, 58
1, 238548, Note_on_c, 0, 69, 66
1, 238550, Note_off_c, 0, 67, 61
1, 238557, Note_on_c, 0, 66, 67
1, 238561, Control_c, 0, 64, 60
1, 238567, Note_on_c, 0, 50, 54
1, 238576, Control_c, 0, 64, 60
1, 238590, Control_c, 0, 64, 61
1, 238605, Control_c, 0, 64, 61
1, 238606, Note_off_c, 0, 50, 65
1, 238620, Control_c, 0, 64, 62
1, 238635, Control_c, 0, 64, 62
1, 238663, Note_on_c, 0, 57, 69
1, 238679, Control_c, 0, 64, 63
1, 238694, Control_c, 0, 64, 63
1, 238699, Note_off_c, 0, 57, 61
1, 238760, Note_on_c, 0, 62, 64
1, 238828, Note_off_c, 0, 62, 62
1, 238828, Control_c, 0, 64, 62
1, 238843, Control_c, 0, 64, 57
1, 238845, Note_on_c, 0, 61, 65
1, 238858, Control_c, 0, 64, 0
1, 238908, Note_off_c, 0, 61, 59
1, 238952, Note_on_c, 0, 60, 58
1, 238954, Control_c, 0, 64, 52
1, 238969, Control_c, 0, 64, 62
1, 238984, Control_c, 0, 64, 66
1, 239021, Note_off_c, 0, 60, 62
1, 239021, Note_off_c, 0, 69, 52
1, 239031, Note_off_c, 0, 66, 61
1, 239033, Note_on_c, 0, 57, 69
1, 239038, Note_on_c, 0, 62, 74
1, 239103, Note_off_c, 0, 62, 61
1, 239107, Note_off_c, 0, 57, 60
1, 239121, Note_on_c, 0, 64, 74
1, 239132, Control_c, 0, 64, 66
1, 239138, Note_on_c, 0, 54, 54
1, 239160, Note_off_c, 0, 54, 60
1, 239205, Note_off_c, 0, 64, 61
1, 239210, Note_on_c, 0, 66, 70
1, 239211, Note_on_c, 0, 50, 65
1, 239220, Control_c, 0, 64, 67
1, 239238, Note_on_c, 0, 65, 65
1, 239258, Note_off_c, 0, 65, 64
1, 239263, Note_off_c, 0, 66, 36
1, 239303, Note_on_c, 0, 45, 61
1, 239318, Note_on_c, 0, 67, 51
1, 239339, Control_c, 0, 64, 67
1, 239349, Note_off_c, 0, 50, 33
1, 239354, Control_c, 0, 64, 68
1, 239369, Control_c, 0, 64, 69
1, 239373, Note_off_c, 0, 45, 57
1, 239376, Note_off_c, 0, 67, 64
1, 239381, Note_on_c, 0, 38, 60
1, 239382, Note_on_c, 0, 69, 71
1, 239384, Control_c, 0, 64, 71
1, 239398, Control_c, 0, 64, 73
1, 239408, Note_on_c, 0, 40, 21
1, 239411, Note_off_c, 0, 38, 64
1, 239413, Control_c, 0, 64, 77
1, 239428, Control_c, 0, 64, 79
1, 239443, Control_c, 0, 64, 81
1, 239449, Note_off_c, 0, 40, 37
1, 239458, Control_c, 0, 64, 77
1, 239471, Control_c, 0, 64, 59
1, 239474, Note_off_c, 0, 69, 55
1, 239481, Note_on_c, 0, 43, 68
1, 239485, Note_on_c, 0, 71, 78
1, 239486, Control_c, 0, 64, 0
1, 239492, Note_on_c, 0, 67, 52
1, 239525, Note_off_c, 0, 67, 63
1, 239538, Note_off_c, 0, 71, 62
1, 239561, Note_on_c, 0, 73, 79
1, 239566, Note_off_c, 0, 43, 60
1, 239568, Note_on_c, 0, 50, 61
1, 239580, Note_on_c, 0, 70, 63
1, 239609, Note_off_c, 0, 70, 68
1, 239610, Note_off_c, 0, 50, 62
1, 239622, Note_off_c, 0, 73, 62
1, 239660, Note_on_c, 0, 74, 68
1, 239664, Note_on_c, 0, 71, 75
1, 239667, Note_on_c, 0, 55, 59
1, 239740, Note_off_c, 0, 55, 61
1, 239776, Control_c, 0, 64, 37
1, 239777, Note_on_c, 0, 62, 63
1, 239791, Control_c, 0, 64, 49
1, 239806, Control_c, 0, 64, 58
1, 239821, Control_c, 0, 64, 62
1, 239835, Control_c, 0, 64, 63
1, 239858, Note_off_c, 0, 62, 61
1, 239864, Note_on_c, 0, 61, 64
1, 239865, Control_c, 0, 64, 63
1, 239880, Control_c, 0, 64, 64
1, 239895, Control_c, 0, 64, 64
1, 239896, Note_off_c, 0, 61, 63
1, 239949, Note_on_c, 0, 60, 71
1, 239969, Control_c, 0, 64, 65
1, 239972, Note_off_c, 0, 71, 63
1, 240001, Note_off_c, 0, 60, 61
1, 240004, Note_off_c, 0, 74, 61
1, 240028, Note_on_c, 0, 57, 72
1, 240041, Note_on_c, 0, 62, 77
1, 240090, Note_off_c, 0, 57, 61
1, 240107, Note_off_c, 0, 62, 62
1, 240120, Note_on_c, 0, 64, 82
1, 240124, Note_on_c, 0, 54, 69
1, 240153, Note_off_c, 0, 54, 66
1, 240176, Control_c, 0, 64, 65
1, 240191, Control_c, 0, 64, 66
1, 240197, Note_off_c, 0, 64, 60
1, 240200, Note_on_c, 0, 66, 80
1, 240203, Note_on_c, 0, 50, 72
1, 240206, Control_c, 0, 64, 66
1, 240221, Control_c, 0, 64, 67
1, 240236, Control_c, 0, 64, 69
1, 240251, Control_c, 0, 64, 71
1, 240260, Note_off_c, 0, 66, 63
1, 240266, Control_c, 0, 64, 73
1, 240281, Control_c, 0, 64, 74
1, 240286, Note_on_c, 0, 67, 84
1, 240294, Note_on_c, 0, 45, 75
1, 240296, Control_c, 0, 64, 75
1, 240310, Control_c, 0, 64, 77
1, 240325, Control_c, 0, 64, 81
1, 240340, Control_c, 0, 64, 87
1, 240352, Note_off_c, 0, 50, 36
1, 240354, Control_c, 0, 64, 99
1, 240359, Note_off_c, 0, 67, 64
1, 240365, Note_on_c, 0, 69, 87
1, 240369, Control_c, 0, 64, 127
1, 240370, Note_off_c, 0, 45, 62
1, 240385, Note_on_c, 0, 38, 43
1, 240427, Note_off_c, 0, 38, 50
1, 240439, Note_off_c, 0, 69, 62
1, 240465, Note_on_c, 0, 71, 83
1, 240476, Note_on_c, 0, 43, 77
1, 240480, Note_on_c, 0, 67, 70
1, 240496, Control_c, 0, 64, 73
1, 240511, Control_c, 0, 64, 39
1, 240516, Note_off_c, 0, 67, 64
1, 240522, Note_off_c, 0, 71, 64
1, 240526, Control_c, 0, 64, 0
1, 240552, Note_on_c, 0, 73, 78
1, 240557, Note_on_c, 0, 70, 70
1, 240561, Note_off_c, 0, 43, 58
1, 240563, Note_on_c, 0, 50, 72
1, 240572, Note_off_c, 0, 73, 71
1, 240582, Note_off_c, 0, 70, 70
1, 240591, Note_off_c, 0, 50, 65
1, 240628, Note_on_c, 0, 55, 65
1, 240639, Note_on_c, 0, 74, 81
1, 240642, Note_on_c, 0, 71, 67
1, 240669, Note_off_c, 0, 71, 67
1, 240673, Note_off_c, 0, 74, 64
1, 240704, Note_off_c, 0, 55, 63
1, 240724, Poly_aftertouch_c, 0, 72, 0
1, 240730, Note_on_c, 0, 76, 79
1, 240731, Note_on_c, 0, 72, 52
1, 240734, Note_on_c, 0, 62, 66
1, 240765, Note_off_c, 0, 72, 65
1, 240820, Note_off_c, 0, 76, 61
1, 240821, Note_on_c, 0, 74, 77
1, 240833, Note_on_c, 0, 71, 60
1, 240881, Control_c, 0, 64, 41
1, 240896, Control_c, 0, 64, 57
1, 240911, Control_c, 0, 64, 63
1, 240919, Note_on_c, 0, 61, 60
1, 240920, Note_off_c, 0, 71, 64
1, 240921, Note_off_c, 0, 62, 61
1, 240925, Control_c, 0, 64, 64
1, 240940, Control_c, 0, 64, 65
1, 240954, Note_off_c, 0, 61, 64
1, 240955, Control_c, 0, 64, 65
1, 240984, Control_c, 0, 64, 66
1, 240996, Note_on_c, 0, 60, 68
1, 241059, Control_c, 0, 64, 66
1, 241063, Note_off_c, 0, 60, 48
1, 241077, Note_on_c, 0, 57, 76
1, 241081, Note_off_c, 0, 74, 40
1, 241099, Note_on_c, 0, 62, 79
1, 241162, Note_off_c, 0, 62, 62
1, 241183, Note_on_c, 0, 64, 80
1, 241184, Note_off_c, 0, 57, 60
1, 241187, Note_on_c, 0, 54, 68
1, 241200, Control_c, 0, 64, 67
1, 241213, Note_off_c, 0, 54, 66
1, 241230, Control_c, 0, 64, 67
1, 241243, Note_off_c, 0, 64, 64
1, 241260, Control_c, 0, 64, 68
1, 241263, Note_on_c, 0, 66, 83
1, 241269, Note_on_c, 0, 50, 73
1, 241275, Control_c, 0, 64, 69
1, 241289, Control_c, 0, 64, 69
1, 241304, Control_c, 0, 64, 70
1, 241314, Note_off_c, 0, 66, 63
1, 241319, Control_c, 0, 64, 71
1, 241334, Control_c, 0, 64, 72
1, 241346, Note_on_c, 0, 67, 80
1, 241349, Control_c, 0, 64, 74
1, 241363, Control_c, 0, 64, 78
1, 241368, Note_on_c, 0, 45, 70
1, 241378, Control_c, 0, 64, 83
1, 241393, Control_c, 0, 64, 90
1, 241396, Note_on_c, 0, 47, 15
1, 241408, Control_c, 0, 64, 105
1, 241408, Note_off_c, 0, 67, 61
1, 241412, Note_off_c, 0, 45, 62
1, 241423, Control_c, 0, 64, 127
1, 241423, Note_off_c, 0, 50, 34
1, 241428, Note_on_c, 0, 69, 87
1, 241441, Note_off_c, 0, 47, 53
1, 241487, Note_off_c, 0, 69, 62
1, 241498, Note_on_c, 0, 43, 76
1, 241512, Control_c, 0, 64, 82
1, 241522, Note_on_c, 0, 71, 87
1, 241527, Control_c, 0, 64, 50
1, 241527, Note_on_c, 0, 67, 77
1, 241542, Control_c, 0, 64, 0
1, 241558, Note_off_c, 0, 67, 65
1, 241575, Note_off_c, 0, 71, 64
1, 241599, Note_off_c, 0, 43, 62
1, 241601, Note_on_c, 0, 73, 78
1, 241603, Note_on_c, 0, 50, 61
1, 241621, Note_on_c, 0, 70, 75
1, 241636, Note_off_c, 0, 50, 64
1, 241657, Note_off_c, 0, 70, 66
1, 241678, Note_on_c, 0, 55, 66
1, 241688, Note_on_c, 0, 74, 75
1, 241692, Note_on_c, 0, 71, 80
1, 241694, Note_off_c, 0, 73, 57
1, 241724, Note_off_c, 0, 55, 62
1, 241783, Note_on_c, 0, 62, 73
1, 241811, Note_off_c, 0, 62, 64
1, 241873, Note_on_c, 0, 67, 71
1, 241938, Note_off_c, 0, 67, 64
1, 241940, Note_off_c, 0, 71, 49
1, 241948, Note_on_c, 0, 70, 69
1, 241952, Note_on_c, 0, 73, 71
1, 241952, Note_off_c, 0, 74, 60
1, 241971, Note_on_c, 0, 66, 65
1, 241996, Note_off_c, 0, 70, 57
1, 242018, Note_off_c, 0, 66, 57
1, 242029, Note_off_c, 0, 73, 60
1, 242049, Note_on_c, 0, 71, 72
1, 242052, Note_on_c, 0, 74, 74
1, 242056, Note_on_c, 0, 65, 59
1, 242106, Note_off_c, 0, 65, 60
1, 242147, Note_on_c, 0, 62, 43
1, 242157, Control_c, 0, 64, 41
1, 242171, Control_c, 0, 64, 52
1, 242186, Control_c, 0, 64, 50
1, 242201, Control_c, 0, 64, 49
1, 242216, Control_c, 0, 64, 50
1, 242224, Note_off_c, 0, 62, 59
1, 242227, Note_on_c, 0, 61, 67
1, 242230, Control_c, 0, 64, 53
1, 242245, Control_c, 0, 64, 57
1, 242251, Note_off_c, 0, 71, 59
1, 242260, Control_c, 0, 64, 59
1, 242262, Note_off_c, 0, 74, 0
1, 242266, Note_off_c, 0, 61, 60
1, 242275, Control_c, 0, 64, 57
1, 242290, Control_c, 0, 64, 55
1, 242292, Note_on_c, 0, 74, 28
1, 242296, Note_on_c, 0, 70, 81
1, 242305, Control_c, 0, 64, 54
1, 242310, Note_on_c, 0, 59, 69
1, 242318, Note_on_c, 0, 73, 75
1, 242326, Note_off_c, 0, 74, 64
1, 242335, Control_c, 0, 64, 54
1, 242343, Note_off_c, 0, 70, 63
1, 242350, Control_c, 0, 64, 48
1, 242365, Control_c, 0, 64, 0
1, 242367, Note_off_c, 0, 59, 61
1, 242391, Note_on_c, 0, 57, 73
1, 242394, Control_c, 0, 64, 39
1, 242394, Note_on_c, 0, 74, 70
1, 242409, Control_c, 0, 64, 61
1, 242416, Note_off_c, 0, 73, 58
1, 242418, Note_on_c, 0, 71, 55
1, 242423, Control_c, 0, 64, 71
1, 242438, Control_c, 0, 64, 79
1, 242438, Control_c, 0, 67, 111
1, 242440, Note_off_c, 0, 57, 60
1, 242453, Control_c, 0, 64, 92
1, 242453, Control_c, 0, 67, 91
1, 242456, Note_on_c, 0, 76, 85
1, 242462, Note_off_c, 0, 71, 64
1, 242463, Note_on_c, 0, 55, 79
1, 242468, Control_c, 0, 64, 116
1, 242468, Control_c, 0, 67, 77
1, 242476, Note_off_c, 0, 74, 63
1, 242483, Control_c, 0, 64, 127
1, 242483, Control_c, 0, 67, 72
1, 242487, Note_off_c, 0, 55, 68
1, 242489, Note_off_c, 0, 76, 59
1, 242527, Control_c, 0, 67, 71
1, 242552, Note_on_c, 0, 54, 90
1, 242561, Note_on_c, 0, 78, 79
1, 242566, Note_on_c, 0, 74, 70
1, 242571, Control_c, 0, 67, 72
1, 242586, Control_c, 0, 67, 72
1, 242591, Note_off_c, 0, 78, 63
1, 242600, Note_off_c, 0, 54, 62
1, 242601, Control_c, 0, 67, 73
1, 242604, Note_on_c, 0, 80, 90
1, 242606, Note_off_c, 0, 74, 61
1, 242615, Control_c, 0, 64, 94
1, 242630, Control_c, 0, 64, 86
1, 242630, Control_c, 0, 67, 73
1, 242634, Note_on_c, 0, 82, 73
1, 242640, Note_on_c, 0, 42, 86
1, 242653, Control_c, 0, 64, 87
1, 242653, Control_c, 0, 67, 74
1, 242668, Control_c, 0, 64, 114
1, 242668, Control_c, 0, 67, 75
1, 242673, Note_off_c, 0, 42, 70
1, 242683, Control_c, 0, 64, 127
1, 242683, Control_c, 0, 67, 76
1, 242692, Note_off_c, 0, 80, 62
1, 242696, Note_on_c, 0, 83, 88
1, 242697, Control_c, 0, 67, 77
1, 242709, Note_off_c, 0, 82, 65
1, 242712, Control_c, 0, 67, 78
1, 242722, Note_on_c, 0, 77, 78
1, 242727, Control_c, 0, 64, 93
1, 242727, Control_c, 0, 67, 79
1, 242736, Note_on_c, 0, 73, 80
1, 242742, Control_c, 0, 64, 59
1, 242742, Control_c, 0, 67, 80
1, 242746, Note_off_c, 0, 83, 65
1, 242747, Note_on_c, 0, 67, 82
1, 242756, Note_off_c, 0, 77, 65
1, 242756, Control_c, 0, 64, 0
1, 242759, Note_off_c, 0, 73, 67
1, 242772, Note_off_c, 0, 67, 67
1, 242802, Control_c, 0, 67, 79
1, 242846, Control_c, 0, 67, 80
1, 242859, Note_on_c, 0, 54, 69
1, 242896, Note_off_c, 0, 54, 62
1, 242920, Control_c, 0, 67, 81
1, 242928, Note_on_c, 0, 76, 64
1, 242930, Note_on_c, 0, 72, 72
1, 242935, Control_c, 0, 67, 82
1, 242937, Note_on_c, 0, 66, 75
1, 242956, Note_off_c, 0, 76, 66
1, 242957, Note_off_c, 0, 72, 66
1, 242968, Note_off_c, 0, 66, 61
1, 243038, Note_on_c, 0, 54, 55
1, 243052, Note_on_c, 0, 78, 27
1, 243063, Note_off_c, 0, 54, 37
1, 243068, Control_c, 0, 67, 81
1, 243086, Note_off_c, 0, 78, 42
1, 243098, Control_c, 0, 67, 80
1, 243126, Note_on_c, 0, 54, 69
1, 243130, Note_on_c, 0, 75, 69
1, 243136, Note_on_c, 0, 71, 54
1, 243156, Note_off_c, 0, 54, 65
1, 243158, Control_c, 0, 64, 64
1, 243158, Control_c, 0, 67, 81
1, 243159, Note_off_c, 0, 71, 62
1, 243161, Note_off_c, 0, 75, 67
1, 243165, Note_on_c, 0, 76, 74
1, 243172, Note_on_c, 0, 78, 72
1, 243172, Control_c, 0, 64, 85
1, 243187, Control_c, 0, 64, 91
1, 243187, Control_c, 0, 67, 82
1, 243202, Note_on_c, 0, 42, 77
1, 243202, Control_c, 0, 64, 92
1, 243217, Control_c, 0, 64, 93
1, 243232, Note_off_c, 0, 42, 65
1, 243232, Note_off_c, 0, 76, 59
1, 243232, Control_c, 0, 64, 109
1, 243247, Control_c, 0, 64, 127
1, 243251, Note_on_c, 0, 79, 78
1, 243262, Control_c, 0, 67, 81
1, 243304, Note_off_c, 0, 78, 55
1, 243309, Note_on_c, 0, 64, 77
1, 243310, Note_on_c, 0, 74, 83
1, 243311, Note_off_c, 0, 79, 67
1, 243312, Note_on_c, 0, 70, 77
1, 243321, Control_c, 0, 64, 90
1, 243330, Note_off_c, 0, 64, 70
1, 243330, Note_off_c, 0, 74, 71
1, 243333, Note_off_c, 0, 70, 71
1, 243336, Control_c, 0, 64, 55
1, 243351, Control_c, 0, 64, 0
1, 243366, Control_c, 0, 67, 82
1, 243447, Control_c, 0, 67, 82
1, 243462, Control_c, 0, 67, 83
1, 243476, Control_c, 0, 67, 83
1, 243506, Control_c, 0, 67, 84
1, 243512, Note_on_c, 0, 63, 73
1, 243514, Note_on_c, 0, 73, 82
1, 243518, Note_on_c, 0, 69, 68
1, 243544, Note_off_c, 0, 69, 67
1, 243545, Note_off_c, 0, 73, 65
1, 243546, Note_off_c, 0, 63, 63
1, 243581, Control_c, 0, 67, 84
1, 243596, Control_c, 0, 67, 85
1, 243596, Note_on_c, 0, 54, 68
1, 243626, Note_off_c, 0, 54, 67
1, 243636, Note_on_c, 0, 76, 37
1, 243655, Control_c, 0, 67, 84
1, 243665, Note_off_c, 0, 76, 48
1, 243670, Control_c, 0, 67, 84
1, 243698, Note_on_c, 0, 62, 76
1, 243700, Control_c, 0, 67, 83
1, 243710, Note_on_c, 0, 68, 66
1, 243715, Control_c, 0, 67, 83
1, 243715, Note_on_c, 0, 72, 79
1, 243728, Note_off_c, 0, 68, 66
1, 243729, Note_off_c, 0, 62, 63
1, 243730, Control_c, 0, 67, 82
1, 243744, Control_c, 0, 64, 69
1, 243750, Note_on_c, 0, 74, 71
1, 243759, Control_c, 0, 64, 127
1, 243764, Note_on_c, 0, 76, 78
1, 243769, Note_off_c, 0, 72, 64
1, 243774, Control_c, 0, 67, 83
1, 243784, Note_on_c, 0, 54, 76
1, 243789, Control_c, 0, 67, 84
1, 243810, Note_on_c, 0, 77, 74
1, 243810, Note_off_c, 0, 74, 62
1, 243828, Note_off_c, 0, 54, 58
1, 243848, Control_c, 0, 67, 84
1, 243863, Control_c, 0, 64, 80
1, 243863, Control_c, 0, 67, 85
1, 243872, Note_on_c, 0, 61, 81
1, 243872, Note_on_c, 0, 67, 79
1, 243876, Note_on_c, 0, 71, 86
1, 243877, Control_c, 0, 64, 40
1, 243877, Control_c, 0, 67, 86
1, 243882, Note_off_c, 0, 77, 66
1, 243888, Note_off_c, 0, 76, 62
1, 243892, Control_c, 0, 64, 0
1, 243892, Control_c, 0, 67, 88
1, 243893, Note_off_c, 0, 67, 69
1, 243897, Note_off_c, 0, 61, 66
1, 243897, Note_off_c, 0, 71, 70
1, 243907, Control_c, 0, 67, 91
1, 243922, Control_c, 0, 67, 94
1, 243937, Control_c, 0, 67, 95
1, 243951, Control_c, 0, 67, 98
1, 243975, Note_on_c, 0, 42, 73
1, 244004, Note_off_c, 0, 42, 65
1, 244063, Note_on_c, 0, 60, 78
1, 244067, Note_on_c, 0, 66, 67
1, 244071, Note_on_c, 0, 70, 80
1, 244096, Note_off_c, 0, 66, 64
1, 244099, Control_c, 0, 64, 41
1, 244099, Control_c, 0, 67, 96
1, 244108, Note_off_c, 0, 60, 63
1, 244113, Control_c, 0, 64, 81
1, 244120, Note_on_c, 0, 72, 69
1, 244128, Control_c, 0, 64, 96
1, 244129, Note_off_c, 0, 70, 65
1, 244130, Note_on_c, 0, 74, 80
1, 244150, Note_on_c, 0, 54, 87
1, 244150, Control_c, 0, 64, 90
1, 244165, Control_c, 0, 64, 74
1, 244180, Control_c, 0, 64, 67
1, 244195, Control_c, 0, 64, 69
1, 244198, Note_on_c, 0, 76, 76
1, 244199, Note_off_c, 0, 72, 60
1, 244200, Note_off_c, 0, 54, 61
1, 244210, Control_c, 0, 64, 76
1, 244225, Control_c, 0, 64, 82
1, 244234, Note_on_c, 0, 59, 88
1, 244240, Control_c, 0, 64, 79
1, 244251, Note_on_c, 0, 69, 72
1, 244254, Control_c, 0, 64, 50
1, 244255, Note_off_c, 0, 74, 58
1, 244256, Note_on_c, 0, 67, 70
1, 244257, Note_off_c, 0, 59, 69
1, 244258, Note_on_c, 0, 65, 59
1, 244260, Note_off_c, 0, 76, 65
1, 244269, Control_c, 0, 64, 0
1, 244269, Control_c, 0, 67, 98
1, 244272, Note_off_c, 0, 67, 67
1, 244275, Note_off_c, 0, 69, 69
1, 244278, Note_off_c, 0, 65, 64
1, 244324, Note_on_c, 0, 42, 89
1, 244350, Note_off_c, 0, 42, 71
1, 244415, Note_on_c, 0, 57, 85
1, 244424, Note_on_c, 0, 67, 78
1, 244426, Note_on_c, 0, 64, 73
1, 244448, Control_c, 0, 67, 96
1, 244454, Note_off_c, 0, 57, 64
1, 244463, Control_c, 0, 67, 94
1, 244478, Control_c, 0, 64, 60
1, 244478, Control_c, 0, 67, 93
1, 244489, Note_on_c, 0, 69, 75
1, 244490, Note_off_c, 0, 67, 62
1, 244492, Control_c, 0, 64, 93
1, 244492, Control_c, 0, 67, 92
1, 244494, Note_on_c, 0, 54, 83
1, 244502, Note_on_c, 0, 70, 49
1, 244507, Control_c, 0, 64, 127
1, 244507, Control_c, 0, 67, 91
1, 244517, Note_on_c, 0, 71, 71
1, 244522, Control_c, 0, 67, 90
1, 244535, Note_off_c, 0, 54, 64
1, 244537, Control_c, 0, 67, 88
1, 244552, Control_c, 0, 67, 85
1, 244558, Note_off_c, 0, 69, 56
1, 244564, Note_off_c, 0, 64, 46
1, 244566, Control_c, 0, 67, 80
1, 244576, Note_on_c, 0, 73, 78
1, 244581, Control_c, 0, 67, 72
1, 244585, Note_on_c, 0, 58, 89
1, 244596, Control_c, 0, 67, 64
1, 244602, Note_on_c, 0, 66, 88
1, 244611, Note_off_c, 0, 71, 64
1, 244611, Control_c, 0, 67, 58
1, 244615, Note_off_c, 0, 73, 62
1, 244621, Note_off_c, 0, 58, 61
1, 244625, Control_c, 0, 67, 51
1, 244626, Note_off_c, 0, 66, 64
1, 244640, Control_c, 0, 67, 39
1, 244645, Note_off_c, 0, 70, 38
1, 244655, Control_c, 0, 67, 24
1, 244660, Note_on_c, 0, 54, 72
1, 244670, Control_c, 0, 67, 0
1, 244700, Note_off_c, 0, 54, 65
1, 244758, Control_c, 0, 64, 70
1, 244763, Note_on_c, 0, 59, 91
1, 244766, Note_on_c, 0, 47, 92
1, 244766, Note_on_c, 0, 62, 93
1, 244769, Note_on_c, 0, 71, 95
1, 244773, Control_c, 0, 64, 0
1, 244782, Note_off_c, 0, 59, 71
1, 244785, Note_off_c, 0, 62, 70
1, 244785, Note_off_c, 0, 47, 73
1, 244785, Note_off_c, 0, 71, 73
1, 244979, Note_on_c, 0, 66, 80
1, 244980, Note_on_c, 0, 54, 64
1, 244999, Note_off_c, 0, 66, 70
1, 245012, Note_off_c, 0, 54, 64
1, 245166, Note_on_c, 0, 71, 87
1, 245171, Note_on_c, 0, 59, 77
1, 245193, Note_off_c, 0, 59, 71
1, 245199, Note_off_c, 0, 71, 67
1, 245345, Control_c, 0, 64, 66
1, 245357, Note_on_c, 0, 54, 89
1, 245360, Note_on_c, 0, 42, 82
1, 245360, Control_c, 0, 64, 82
1, 245371, Note_on_c, 0, 66, 96
1, 245374, Control_c, 0, 64, 107
1, 245380, Note_off_c, 0, 54, 66
1, 245387, Note_off_c, 0, 42, 68
1, 245389, Note_off_c, 0, 66, 71
1, 245389, Control_c, 0, 64, 127
1, 245558, Note_on_c, 0, 37, 56
1, 245560, Note_on_c, 0, 49, 64
1, 245588, Note_off_c, 0, 49, 65
1, 245590, Note_off_c, 0, 37, 53
1, 245757, Note_on_c, 0, 54, 77
1, 245768, Note_on_c, 0, 42, 70
1, 245769, Note_on_c, 0, 77, 84
1, 245784, Note_off_c, 0, 54, 66
1, 245792, Note_off_c, 0, 42, 65
1, 245795, Note_on_c, 0, 78, 82
1, 245809, Note_off_c, 0, 77, 61
1, 245836, Note_on_c, 0, 80, 82
1, 245840, Note_off_c, 0, 78, 67
1, 245871, Note_on_c, 0, 82, 74
1, 245900, Note_off_c, 0, 80, 62
1, 245928, Note_on_c, 0, 71, 101
1, 245928, Note_on_c, 0, 83, 99
1, 245930, Control_c, 0, 67, 33
1, 245931, Note_on_c, 0, 47, 93
1, 245932, Note_on_c, 0, 35, 90
1, 245945, Note_off_c, 0, 82, 61
1, 245945, Control_c, 0, 67, 39
1, 245951, Note_off_c, 0, 47, 71
1, 245956, Note_off_c, 0, 71, 70
1, 245957, Note_off_c, 0, 83, 68
1, 245959, Note_off_c, 0, 35, 65
1, 245960, Control_c, 0, 64, 85
1, 245960, Control_c, 0, 67, 23
1, 245976, Control_c, 0, 64, 61
1, 245976, Control_c, 0, 67, 0
1, 245990, Control_c, 0, 64, 0
1, 246132, Note_on_c, 0, 54, 71
1, 246144, Note_on_c, 0, 66, 70
1, 246159, Note_off_c, 0, 54, 67
1, 246168, Note_off_c, 0, 66, 68
1, 246319, Note_on_c, 0, 71, 87
1, 246322, Note_on_c, 0, 59, 70
1, 246348, Note_off_c, 0, 59, 66
1, 246351, Note_off_c, 0, 71, 67
1, 246512, Note_on_c, 0, 54, 95
1, 246514, Control_c, 0, 64, 55
1, 246520, Note_on_c, 0, 42, 78
1, 246526, Note_on_c, 0, 66, 101
1, 246529, Control_c, 0, 64, 89
1, 246538, Note_off_c, 0, 54, 66
1, 246544, Control_c, 0, 64, 127
1, 246545, Note_off_c, 0, 66, 70
1, 246549, Note_off_c, 0, 42, 64
1, 246712, Note_on_c, 0, 37, 74
1, 246714, Note_on_c, 0, 49, 81
1, 246740, Note_off_c, 0, 49, 69
1, 246743, Note_off_c, 0, 37, 63
1, 246895, Note_on_c, 0, 54, 92
1, 246902, Note_on_c, 0, 42, 81
1, 246902, Note_on_c, 0, 77, 87
1, 246919, Note_off_c, 0, 54, 67
1, 246922, Note_on_c, 0, 78, 84
1, 246928, Note_off_c, 0, 42, 69
1, 246937, Note_off_c, 0, 77, 62
1, 246945, Note_on_c, 0, 56, 11
1, 246976, Note_off_c, 0, 78, 67
1, 246988, Note_on_c, 0, 80, 77
1, 246995, Note_off_c, 0, 56, 40
1, 247009, Note_on_c, 0, 82, 76
1, 247042, Note_off_c, 0, 80, 62
1, 247069, Note_on_c, 0, 71, 102
1, 247070, Note_on_c, 0, 47, 92
1, 247071, Note_on_c, 0, 83, 97
1, 247074, Note_on_c, 0, 35, 95
1, 247086, Note_off_c, 0, 82, 64
1, 247088, Note_off_c, 0, 83, 70
1, 247089, Note_off_c, 0, 47, 72
1, 247095, Note_off_c, 0, 71, 69
1, 247098, Note_off_c, 0, 35, 68
1, 247108, Control_c, 0, 64, 89
1, 247123, Control_c, 0, 64, 52
1, 247145, Control_c, 0, 64, 0
1, 247190, Control_c, 0, 67, 22
1, 247205, Control_c, 0, 67, 28
1, 247219, Control_c, 0, 67, 33
1, 247234, Control_c, 0, 67, 37
1, 247249, Control_c, 0, 67, 39
1, 247264, Control_c, 0, 67, 40
1, 247279, Control_c, 0, 67, 42
1, 247286, Note_on_c, 0, 42, 66
1, 247292, Note_on_c, 0, 30, 59
1, 247293, Control_c, 0, 67, 42
1, 247322, Note_off_c, 0, 42, 66
1, 247325, Note_off_c, 0, 30, 54
1, 247441, Control_c, 0, 67, 43
1, 247471, Note_on_c, 0, 35, 94
1, 247474, Note_on_c, 0, 47, 85
1, 247486, Control_c, 0, 67, 42
1, 247511, Note_off_c, 0, 47, 65
1, 247516, Note_off_c, 0, 35, 63
1, 247665, Control_c, 0, 67, 42
1, 247677, Note_on_c, 0, 42, 71
1, 247680, Control_c, 0, 67, 40
1, 247681, Note_on_c, 0, 54, 53
1, 247694, Control_c, 0, 67, 38
1, 247706, Note_off_c, 0, 54, 57
1, 247709, Control_c, 0, 67, 37
1, 247711, Note_off_c, 0, 42, 66
1, 247724, Control_c, 0, 67, 35
1, 247739, Control_c, 0, 67, 34
1, 247754, Control_c, 0, 67, 31
1, 247769, Control_c, 0, 67, 23
1, 247784, Control_c, 0, 67, 0
1, 247860, Note_on_c, 0, 47, 92
1, 247862, Note_on_c, 0, 59, 85
1, 247865, Note_on_c, 0, 35, 88
1, 247901, Note_off_c, 0, 35, 68
1, 247906, Note_off_c, 0, 47, 63
1, 247912, Note_off_c, 0, 59, 65
1, 247998, Control_c, 0, 67, 21
1, 248069, Note_on_c, 0, 54, 65
1, 248074, Note_on_c, 0, 42, 57
1, 248107, Note_off_c, 0, 54, 63
1, 248112, Note_off_c, 0, 42, 63
1, 248258, Note_on_c, 0, 35, 85
1, 248258, Note_on_c, 0, 47, 85
1, 248261, Note_on_c, 0, 59, 85
1, 248285, Note_off_c, 0, 35, 68
1, 248294, Control_c, 0, 67, 24
1, 248299, Note_off_c, 0, 59, 64
1, 248300, Note_off_c, 0, 47, 66
1, 248309, Control_c, 0, 67, 26
1, 248339, Control_c, 0, 67, 28
1, 248370, Control_c, 0, 67, 30
1, 248399, Control_c, 0, 67, 32
1, 248414, Control_c, 0, 67, 32
1, 248458, Control_c, 0, 67, 33
1, 248465, Note_on_c, 0, 54, 60
1, 248466, Note_on_c, 0, 66, 64
1, 248493, Note_off_c, 0, 54, 58
1, 248498, Note_off_c, 0, 66, 63
1, 248657, Note_on_c, 0, 59, 87
1, 248659, Note_on_c, 0, 47, 77
1, 248659, Control_c, 0, 67, 33
1, 248661, Note_on_c, 0, 71, 91
1, 248673, Control_c, 0, 67, 34
1, 248688, Control_c, 0, 67, 34
1, 248694, Note_off_c, 0, 47, 65
1, 248699, Note_off_c, 0, 59, 62
1, 248703, Note_off_c, 0, 71, 68
1, 248703, Control_c, 0, 67, 35
1, 248717, Control_c, 0, 67, 37
1, 248732, Control_c, 0, 67, 38
1, 248747, Control_c, 0, 67, 39
1, 248762, Control_c, 0, 67, 40
1, 248777, Control_c, 0, 67, 41
1, 248791, Control_c, 0, 67, 42
1, 248806, Control_c, 0, 67, 44
1, 248821, Control_c, 0, 67, 44
1, 248836, Control_c, 0, 67, 45
1, 248850, Note_on_c, 0, 54, 68
1, 248850, Note_on_c, 0, 66, 71
1, 248884, Note_off_c, 0, 54, 63
1, 248888, Note_off_c, 0, 66, 62
1, 249039, Note_on_c, 0, 71, 94
1, 249039, Note_on_c, 0, 47, 72
1, 249039, Note_on_c, 0, 59, 78
1, 249044, Control_c, 0, 67, 45
1, 249059, Control_c, 0, 67, 46
1, 249066, Note_off_c, 0, 47, 64
1, 249071, Note_off_c, 0, 71, 68
1, 249073, Control_c, 0, 67, 48
1, 249080, Note_off_c, 0, 59, 62
1, 249088, Control_c, 0, 67, 53
1, 249103, Control_c, 0, 67, 57
1, 249117, Control_c, 0, 67, 62
1, 249132, Control_c, 0, 67, 65
1, 249147, Control_c, 0, 67, 68
1, 249163, Control_c, 0, 67, 70
1, 249178, Control_c, 0, 67, 71
1, 249193, Control_c, 0, 67, 72
1, 249207, Control_c, 0, 67, 73
1, 249222, Control_c, 0, 67, 74
1, 249237, Control_c, 0, 67, 75
1, 249252, Control_c, 0, 67, 76
1, 249267, Note_on_c, 0, 66, 59
1, 249267, Note_on_c, 0, 78, 78
1, 249267, Control_c, 0, 67, 76
1, 249281, Control_c, 0, 67, 77
1, 249296, Note_off_c, 0, 78, 64
1, 249296, Control_c, 0, 67, 79
1, 249311, Control_c, 0, 67, 87
1, 249319, Note_off_c, 0, 66, 60
1, 249326, Control_c, 0, 67, 98
1, 249340, Control_c, 0, 67, 113
1, 249355, Control_c, 0, 67, 127
1, 249467, Control_c, 0, 64, 33
1, 249482, Control_c, 0, 64, 48
1, 249496, Control_c, 0, 64, 58
1, 249511, Control_c, 0, 64, 63
1, 249526, Control_c, 0, 64, 65
1, 249535, Note_on_c, 0, 59, 47
1, 249540, Control_c, 0, 64, 66
1, 249555, Control_c, 0, 64, 66
1, 249566, Note_on_c, 0, 91, 60
1, 249570, Control_c, 0, 64, 67
1, 249585, Control_c, 0, 64, 69
1, 249591, Note_on_c, 0, 87, 30
1, 249600, Control_c, 0, 64, 72
1, 249614, Control_c, 0, 64, 75
1, 249629, Control_c, 0, 64, 80
1, 249634, Note_off_c, 0, 59, 55
1, 249644, Control_c, 0, 64, 84
1, 249659, Control_c, 0, 64, 86
1, 249661, Note_on_c, 0, 63, 42
1, 249674, Control_c, 0, 64, 89
1, 249689, Control_c, 0, 64, 93
1, 249704, Control_c, 0, 64, 99
1, 249718, Note_off_c, 0, 91, 36
1, 249718, Control_c, 0, 64, 108
1, 249733, Control_c, 0, 64, 127
1, 249742, Note_off_c, 0, 87, 54
1, 249751, Note_on_c, 0, 90, 62
1, 249751, Note_off_c, 0, 63, 53
1, 249756, Note_on_c, 0, 86, 64
1, 249780, Note_on_c, 0, 67, 41
1, 249784, Note_off_c, 0, 86, 65
1, 249790, Note_off_c, 0, 90, 48
1, 249810, Note_off_c, 0, 67, 56
1, 249836, Note_on_c, 0, 89, 64
1, 249847, Note_on_c, 0, 71, 56
1, 249862, Note_on_c, 0, 85, 33
1, 249885, Note_off_c, 0, 71, 63
1, 249896, Note_off_c, 0, 89, 57
1, 249897, Note_off_c, 0, 85, 49
1, 249914, Note_on_c, 0, 88, 75
1, 249924, Note_on_c, 0, 84, 67
1, 249937, Note_on_c, 0, 75, 65
1, 249939, Note_off_c, 0, 88, 67
1, 249951, Note_off_c, 0, 84, 64
1, 249974, Note_off_c, 0, 75, 58
1, 249999, Note_on_c, 0, 87, 91
1, 250021, Note_on_c, 0, 77, 57
1, 250043, Note_off_c, 0, 87, 64
1, 250064, Note_off_c, 0, 77, 50
1, 250088, Control_c, 0, 64, 86
1, 250098, Note_on_c, 0, 82, 62
1, 250098, Note_on_c, 0, 86, 69
1, 250103, Control_c, 0, 64, 56
1, 250112, Note_on_c, 0, 78, 64
1, 250117, Note_off_c, 0, 82, 63
1, 250118, Control_c, 0, 64, 0
1, 250144, Note_off_c, 0, 78, 65
1, 250154, Note_on_c, 0, 87, 6
1, 250154, Note_off_c, 0, 87, 127
1, 250170, Control_c, 0, 64, 55
1, 250172, Note_off_c, 0, 86, 0
1, 250172, Note_on_c, 0, 86, 3
1, 250185, Control_c, 0, 64, 69
1, 250200, Control_c, 0, 64, 78
1, 250204, Note_on_c, 0, 90, 68
1, 250204, Note_off_c, 0, 86, 58
1, 250215, Control_c, 0, 64, 82
1, 250230, Control_c, 0, 64, 83
1, 250242, Note_on_c, 0, 74, 30
1, 250244, Control_c, 0, 64, 83
1, 250270, Note_off_c, 0, 90, 62
1, 250274, Control_c, 0, 64, 84
1, 250279, Note_off_c, 0, 74, 52
1, 250288, Note_on_c, 0, 94, 68
1, 250288, Control_c, 0, 64, 86
1, 250300, Note_on_c, 0, 86, 51
1, 250303, Control_c, 0, 64, 90
1, 250305, Note_on_c, 0, 70, 58
1, 250311, Note_off_c, 0, 94, 68
1, 250318, Control_c, 0, 64, 98
1, 250324, Note_off_c, 0, 86, 58
1, 250333, Control_c, 0, 64, 115
1, 250336, Note_off_c, 0, 70, 66
1, 250348, Control_c, 0, 64, 127
1, 250398, Note_on_c, 0, 66, 57
1, 250469, Note_off_c, 0, 66, 39
1, 250492, Note_on_c, 0, 62, 59
1, 250542, Note_off_c, 0, 62, 60
1, 250552, Note_on_c, 0, 61, 61
1, 250586, Note_off_c, 0, 61, 64
1, 250659, Control_c, 0, 64, 122
1, 250662, Note_on_c, 0, 59, 62
1, 250671, Note_on_c, 0, 88, 83
1, 250674, Control_c, 0, 64, 73
1, 250675, Note_on_c, 0, 84, 78
1, 250688, Control_c, 0, 64, 47
1, 250704, Control_c, 0, 64, 0
1, 250712, Note_off_c, 0, 84, 62
1, 250732, Note_off_c, 0, 59, 60
1, 250734, Control_c, 0, 64, 42
1, 250749, Control_c, 0, 64, 65
1, 250765, Control_c, 0, 64, 74
1, 250768, Note_on_c, 0, 64, 46
1, 250780, Control_c, 0, 64, 80
1, 250794, Control_c, 0, 64, 80
1, 250833, Note_off_c, 0, 64, 56
1, 250839, Control_c, 0, 64, 81
1, 250839, Note_on_c, 0, 68, 71
1, 250844, Note_off_c, 0, 88, 63
1, 250864, Note_off_c, 0, 68, 68
1, 250865, Note_on_c, 0, 87, 76
1, 250866, Note_on_c, 0, 83, 74
1, 250868, Control_c, 0, 64, 81
1, 250905, Control_c, 0, 64, 82
1, 250915, Note_off_c, 0, 83, 61
1, 250919, Note_on_c, 0, 72, 60
1, 250920, Control_c, 0, 64, 82
1, 250935, Control_c, 0, 64, 83
1, 250936, Note_off_c, 0, 87, 59
1, 250953, Note_on_c, 0, 86, 79
1, 250960, Note_on_c, 0, 82, 78
1, 250964, Control_c, 0, 64, 83
1, 250974, Note_off_c, 0, 72, 63
1, 250979, Control_c, 0, 64, 84
1, 250980, Note_off_c, 0, 82, 70
1, 250994, Control_c, 0, 64, 85
1, 251009, Control_c, 0, 64, 87
1, 251024, Control_c, 0, 64, 89
1, 251024, Note_on_c, 0, 76, 58
1, 251027, Note_off_c, 0, 86, 63
1, 251030, Note_on_c, 0, 85, 90
1, 251036, Note_on_c, 0, 81, 78
1, 251039, Control_c, 0, 64, 92
1, 251054, Control_c, 0, 64, 94
1, 251068, Note_off_c, 0, 81, 60
1, 251068, Control_c, 0, 64, 95
1, 251097, Note_off_c, 0, 76, 56
1, 251098, Control_c, 0, 64, 99
1, 251112, Control_c, 0, 64, 101
1, 251119, Note_on_c, 0, 78, 63
1, 251120, Note_on_c, 0, 80, 78
1, 251129, Note_off_c, 0, 85, 62
1, 251134, Note_on_c, 0, 86, 52
1, 251140, Note_off_c, 0, 80, 71
1, 251143, Note_off_c, 0, 78, 58
1, 251146, Note_on_c, 0, 84, 58
1, 251154, Note_off_c, 0, 86, 62
1, 251165, Note_off_c, 0, 84, 60
1, 251172, Control_c, 0, 64, 82
1, 251186, Control_c, 0, 64, 62
1, 251201, Control_c, 0, 64, 0
1, 251205, Note_on_c, 0, 83, 79
1, 251211, Note_on_c, 0, 79, 65
1, 251245, Control_c, 0, 64, 51
1, 251260, Control_c, 0, 64, 68
1, 251263, Note_off_c, 0, 79, 56
1, 251272, Note_off_c, 0, 83, 59
1, 251275, Control_c, 0, 64, 80
1, 251290, Control_c, 0, 64, 88
1, 251299, Note_on_c, 0, 87, 77
1, 251303, Note_on_c, 0, 75, 67
1, 251304, Control_c, 0, 64, 88
1, 251342, Note_off_c, 0, 75, 59
1, 251370, Note_off_c, 0, 87, 63
1, 251379, Control_c, 0, 64, 89
1, 251379, Note_on_c, 0, 91, 73
1, 251385, Note_on_c, 0, 83, 68
1, 251386, Note_on_c, 0, 71, 62
1, 251397, Note_off_c, 0, 91, 68
1, 251401, Note_off_c, 0, 83, 67
1, 251409, Note_off_c, 0, 71, 66
1, 251409, Control_c, 0, 64, 89
1, 251424, Control_c, 0, 64, 91
1, 251438, Control_c, 0, 64, 93
1, 251453, Control_c, 0, 64, 94
1, 251468, Control_c, 0, 64, 96
1, 251477, Note_on_c, 0, 69, 70
1, 251483, Control_c, 0, 64, 98
1, 251498, Control_c, 0, 64, 102
1, 251512, Control_c, 0, 64, 111
1, 251527, Control_c, 0, 64, 127
1, 251538, Note_off_c, 0, 69, 53
1, 251561, Note_on_c, 0, 67, 63
1, 251639, Note_off_c, 0, 67, 62
1, 251654, Note_on_c, 0, 63, 60
1, 251687, Note_off_c, 0, 63, 64
1, 251746, Note_on_c, 0, 59, 65
1, 251757, Note_on_c, 0, 81, 81
1, 251757, Note_on_c, 0, 85, 84
1, 251757, Control_c, 0, 64, 82
1, 251772, Control_c, 0, 64, 62
1, 251787, Control_c, 0, 64, 42
1, 251802, Control_c, 0, 64, 45
1, 251817, Control_c, 0, 64, 57
1, 251832, Control_c, 0, 64, 68
1, 251835, Note_off_c, 0, 59, 61
1, 251838, Note_on_c, 0, 61, 64
1, 251847, Control_c, 0, 64, 78
1, 251861, Control_c, 0, 64, 83
1, 251888, Note_off_c, 0, 81, 49
1, 251924, Note_on_c, 0, 63, 59
1, 251927, Note_off_c, 0, 85, 65
1, 251928, Note_off_c, 0, 61, 58
1, 251936, Note_on_c, 0, 80, 74
1, 251939, Note_on_c, 0, 84, 72
1, 251988, Note_off_c, 0, 63, 62
1, 251996, Note_on_c, 0, 65, 72
1, 251998, Note_off_c, 0, 80, 62
1, 252008, Note_off_c, 0, 84, 62
1, 252024, Control_c, 0, 64, 84
1, 252025, Note_on_c, 0, 79, 73
1, 252025, Note_on_c, 0, 83, 83
1, 252046, Note_off_c, 0, 65, 63
1, 252062, Note_off_c, 0, 79, 64
1, 252068, Control_c, 0, 64, 86
1, 252083, Control_c, 0, 64, 92
1, 252093, Note_off_c, 0, 83, 60
1, 252098, Control_c, 0, 64, 104
1, 252103, Note_on_c, 0, 78, 77
1, 252109, Note_on_c, 0, 82, 73
1, 252113, Control_c, 0, 64, 127
1, 252127, Control_c, 0, 64, 120
1, 252142, Control_c, 0, 64, 75
1, 252151, Note_off_c, 0, 78, 64
1, 252157, Note_on_c, 0, 67, 47
1, 252157, Control_c, 0, 64, 46
1, 252172, Control_c, 0, 64, 0
1, 252181, Note_on_c, 0, 77, 73
1, 252189, Note_on_c, 0, 81, 72
1, 252193, Note_off_c, 0, 82, 55
1, 252217, Note_on_c, 0, 83, 46
1, 252217, Note_off_c, 0, 83, 127
1, 252219, Note_off_c, 0, 77, 62
1, 252226, Note_off_c, 0, 67, 63
1, 252228, Note_off_c, 0, 81, 64
1, 252267, Note_on_c, 0, 68, 77
1, 252270, Note_on_c, 0, 80, 94
1, 252283, Note_on_c, 0, 59, 57
1, 252286, Note_on_c, 0, 76, 70
1, 252312, Note_off_c, 0, 76, 68
1, 252317, Note_off_c, 0, 80, 62
1, 252320, Note_off_c, 0, 59, 62
1, 252357, Note_on_c, 0, 83, 71
1, 252434, Note_off_c, 0, 83, 63
1, 252449, Note_on_c, 0, 64, 60
1, 252451, Note_on_c, 0, 88, 68
1, 252452, Note_on_c, 0, 80, 72
1, 252462, Note_off_c, 0, 68, 41
1, 252467, Note_off_c, 0, 88, 68
1, 252469, Note_off_c, 0, 80, 69
1, 252490, Note_off_c, 0, 64, 63
1, 252637, Note_on_c, 0, 66, 69
1, 252663, Note_off_c, 0, 66, 67
1, 252837, Note_on_c, 0, 68, 73
1, 252841, Note_on_c, 0, 76, 68
1, 252844, Note_on_c, 0, 71, 57
1, 252875, Note_off_c, 0, 71, 66
1, 252920, Note_on_c, 0, 80, 68
1, 252928, Note_off_c, 0, 76, 58
1, 253003, Note_on_c, 0, 83, 64
1, 253019, Note_off_c, 0, 80, 62
1, 253027, Note_off_c, 0, 83, 69
1, 253236, Note_on_c, 0, 64, 61
1, 253246, Note_off_c, 0, 68, 62
1, 253264, Note_off_c, 0, 64, 67
1, 253434, Note_on_c, 0, 68, 65
1, 253437, Note_on_c, 0, 71, 58
1, 253476, Note_off_c, 0, 71, 63
1, 253529, Note_on_c, 0, 76, 56
1, 253605, Note_on_c, 0, 80, 65
1, 253607, Note_off_c, 0, 76, 53
1, 253630, Note_off_c, 0, 80, 67
1, 253828, Note_on_c, 0, 64, 47
1, 253850, Note_off_c, 0, 68, 35
1, 253869, Note_off_c, 0, 64, 65
1, 254227, Control_c, 0, 64, 39
1, 254242, Control_c, 0, 64, 51
1, 254256, Control_c, 0, 64, 58
1, 254271, Control_c, 0, 64, 61
1, 254286, Control_c, 0, 64, 62
1, 254330, Control_c, 0, 64, 62
1, 254345, Control_c, 0, 64, 63
1, 254360, Control_c, 0, 64, 64
1, 254375, Control_c, 0, 64, 64
1, 254693, Control_c, 0, 64, 63
1, 254708, Control_c, 0, 64, 58
1, 254715, Note_on_c, 0, 59, 45
1, 254723, Control_c, 0, 64, 43
1, 254726, Note_on_c, 0, 79, 59
1, 254732, Note_on_c, 0, 76, 51
1, 254737, Control_c, 0, 64, 0
1, 254763, Note_off_c, 0, 59, 59
1, 254763, Note_off_c, 0, 76, 61
1, 254765, Note_off_c, 0, 79, 61
1, 254818, Note_on_c, 0, 83, 60
1, 254890, Note_on_c, 0, 64, 59
1, 254903, Note_off_c, 0, 83, 63
1, 254906, Note_on_c, 0, 88, 60
1, 254911, Note_on_c, 0, 79, 49
1, 254920, Note_off_c, 0, 64, 66
1, 254923, Note_off_c, 0, 88, 65
1, 254937, Note_off_c, 0, 79, 54
1, 255099, Note_on_c, 0, 66, 63
1, 255128, Note_off_c, 0, 66, 66
1, 255319, Note_on_c, 0, 67, 56
1, 255326, Note_on_c, 0, 76, 61
1, 255328, Note_on_c, 0, 71, 50
1, 255350, Note_off_c, 0, 71, 60
1, 255406, Note_off_c, 0, 76, 53
1, 255416, Note_on_c, 0, 79, 64
1, 255498, Note_on_c, 0, 83, 62
1, 255502, Note_off_c, 0, 79, 64
1, 255516, Note_off_c, 0, 83, 67
1, 255763, Note_on_c, 0, 64, 49
1, 255773, Note_off_c, 0, 67, 58
1, 255801, Note_off_c, 0, 64, 64
1, 256709, Note_on_c, 0, 67, 43
1, 256715, Note_on_c, 0, 71, 52
1, 256750, Note_off_c, 0, 71, 65
1, 256808, Note_on_c, 0, 76, 52
1, 256867, Note_off_c, 0, 76, 53
1, 256894, Note_on_c, 0, 79, 58
1, 256923, Note_off_c, 0, 79, 66
1, 257312, Note_on_c, 0, 64, 46
1, 257334, Note_off_c, 0, 67, 52
1, 257363, Note_off_c, 0, 64, 59
1, 258572, Note_on_c, 0, 67, 53
1, 258596, Note_off_c, 0, 67, 61
1, 258719, Control_c, 0, 67, 125
1, 258770, Note_on_c, 0, 72, 62
1, 258797, Note_off_c, 0, 72, 67
1, 258964, Note_on_c, 0, 74, 71
1, 258989, Note_off_c, 0, 74, 67
1, 259142, Control_c, 0, 64, 34
1, 259157, Control_c, 0, 64, 53
1, 259162, Note_on_c, 0, 36, 44
1, 259172, Control_c, 0, 64, 62
1, 259177, Note_on_c, 0, 48, 40
1, 259186, Control_c, 0, 64, 65
1, 259201, Control_c, 0, 64, 66
1, 259207, Note_off_c, 0, 36, 60
1, 259211, Note_on_c, 0, 75, 57
1, 259216, Control_c, 0, 64, 68
1, 259218, Note_on_c, 0, 72, 53
1, 259231, Control_c, 0, 64, 70
1, 259246, Control_c, 0, 64, 73
1, 259248, Note_off_c, 0, 48, 61
1, 259260, Control_c, 0, 64, 78
1, 259275, Control_c, 0, 64, 85
1, 259290, Control_c, 0, 64, 93
1, 259290, Control_c, 0, 67, 127
1, 259305, Control_c, 0, 64, 105
1, 259320, Control_c, 0, 64, 127
1, 259396, Note_on_c, 0, 51, 55
1, 259403, Note_on_c, 0, 55, 53
1, 259409, Note_on_c, 0, 48, 37
1, 259426, Note_off_c, 0, 51, 64
1, 259427, Note_off_c, 0, 55, 59
1, 259438, Note_off_c, 0, 48, 56
1, 259468, Control_c, 0, 67, 125
1, 259513, Control_c, 0, 67, 123
1, 259527, Control_c, 0, 67, 120
1, 259543, Control_c, 0, 67, 112
1, 259558, Control_c, 0, 67, 104
1, 259573, Control_c, 0, 67, 99
1, 259578, Note_off_c, 0, 72, 54
1, 259582, Note_on_c, 0, 67, 77
1, 259584, Note_off_c, 0, 75, 58
1, 259588, Control_c, 0, 67, 97
1, 259617, Control_c, 0, 67, 95
1, 259632, Control_c, 0, 67, 93
1, 259647, Control_c, 0, 67, 92
1, 259662, Control_c, 0, 67, 91
1, 259691, Control_c, 0, 67, 91
1, 259738, Note_on_c, 0, 36, 58
1, 259748, Note_on_c, 0, 48, 61
1, 259750, Control_c, 0, 64, 115
1, 259750, Control_c, 0, 67, 92
1, 259765, Control_c, 0, 64, 76
1, 259780, Control_c, 0, 64, 60
1, 259782, Note_off_c, 0, 36, 62
1, 259794, Control_c, 0, 64, 0
1, 259809, Note_on_c, 0, 78, 79
1, 259809, Control_c, 0, 67, 93
1, 259819, Note_on_c, 0, 75, 59
1, 259822, Note_off_c, 0, 48, 58
1, 259824, Control_c, 0, 67, 94
1, 259826, Note_on_c, 0, 72, 55
1, 259835, Note_off_c, 0, 67, 57
1, 259839, Control_c, 0, 64, 39
1, 259839, Control_c, 0, 67, 95
1, 259854, Control_c, 0, 64, 63
1, 259854, Control_c, 0, 67, 96
1, 259876, Control_c, 0, 64, 80
1, 259891, Control_c, 0, 64, 101
1, 259906, Control_c, 0, 64, 127
1, 259921, Control_c, 0, 67, 98
1, 259928, Note_off_c, 0, 72, 32
1, 259950, Control_c, 0, 67, 100
1, 259964, Note_off_c, 0, 75, 58
1, 259988, Note_on_c, 0, 55, 61
1, 259991, Note_on_c, 0, 51, 58
1, 260009, Note_off_c, 0, 55, 63
1, 260014, Note_off_c, 0, 51, 62
1, 260048, Poly_aftertouch_c, 0, 48, 127
1, 260083, Poly_aftertouch_c, 0, 48, 0
1, 260098, Control_c, 0, 67, 98
1, 260113, Control_c, 0, 67, 96
1, 260128, Control_c, 0, 67, 95
1, 260158, Control_c, 0, 67, 95
1, 260173, Control_c, 0, 67, 94
1, 260178, Note_on_c, 0, 75, 78
1, 260187, Control_c, 0, 67, 94
1, 260190, Note_on_c, 0, 72, 56
1, 260202, Control_c, 0, 67, 92
1, 260208, Note_off_c, 0, 78, 63
1, 260217, Control_c, 0, 67, 92
1, 260232, Control_c, 0, 67, 91
1, 260291, Control_c, 0, 67, 91
1, 260320, Control_c, 0, 67, 91
1, 260322, Note_off_c, 0, 72, 30
1, 260335, Control_c, 0, 67, 93
1, 260351, Control_c, 0, 64, 106
1, 260351, Control_c, 0, 67, 95
1, 260357, Note_on_c, 0, 31, 59
1, 260359, Note_on_c, 0, 43, 59
1, 260362, Note_on_c, 0, 74, 70
1, 260363, Note_on_c, 0, 71, 68
1, 260366, Control_c, 0, 64, 68
1, 260366, Control_c, 0, 67, 97
1, 260366, Note_off_c, 0, 75, 61
1, 260380, Note_off_c, 0, 71, 66
1, 260381, Control_c, 0, 64, 35
1, 260383, Note_off_c, 0, 74, 65
1, 260396, Control_c, 0, 64, 0
1, 260396, Control_c, 0, 67, 99
1, 260425, Control_c, 0, 67, 102
1, 260439, Control_c, 0, 67, 105
1, 260454, Control_c, 0, 67, 107
1, 260498, Control_c, 0, 64, 47
1, 260498, Control_c, 0, 67, 105
1, 260513, Control_c, 0, 64, 62
1, 260528, Control_c, 0, 64, 72
1, 260536, Note_off_c, 0, 31, 60
1, 260542, Control_c, 0, 64, 81
1, 260557, Control_c, 0, 64, 88
1, 260563, Note_on_c, 0, 79, 70
1, 260572, Control_c, 0, 64, 92
1, 260576, Note_on_c, 0, 71, 54
1, 260587, Control_c, 0, 64, 97
1, 260587, Control_c, 0, 67, 103
1, 260602, Control_c, 0, 64, 127
1, 260618, Note_off_c, 0, 43, 63
1, 260684, Control_c, 0, 67, 101
1, 260739, Note_off_c, 0, 71, 59
1, 260759, Note_on_c, 0, 55, 59
1, 260775, Note_on_c, 0, 50, 42
1, 260775, Note_on_c, 0, 43, 29
1, 260787, Note_off_c, 0, 55, 63
1, 260808, Note_off_c, 0, 50, 49
1, 260813, Note_off_c, 0, 43, 54
1, 260846, Control_c, 0, 67, 99
1, 260925, Note_on_c, 0, 67, 70
1, 260936, Control_c, 0, 67, 96
1, 260948, Note_off_c, 0, 67, 70
1, 260950, Control_c, 0, 64, 108
1, 260950, Control_c, 0, 67, 95
1, 260965, Control_c, 0, 64, 71
1, 260965, Control_c, 0, 67, 94
1, 260980, Control_c, 0, 64, 51
1, 260995, Control_c, 0, 64, 0
1, 261010, Control_c, 0, 67, 94
1, 261024, Control_c, 0, 67, 93
1, 261039, Control_c, 0, 67, 92
1, 261054, Control_c, 0, 67, 90
1, 261069, Control_c, 0, 67, 86
1, 261084, Control_c, 0, 67, 85
1, 261098, Control_c, 0, 67, 84
1, 261109, Note_on_c, 0, 72, 77
1, 261113, Control_c, 0, 67, 82
1, 261128, Control_c, 0, 67, 77
1, 261132, Note_off_c, 0, 72, 68
1, 261144, Control_c, 0, 67, 70
1, 261159, Control_c, 0, 67, 64
1, 261173, Control_c, 0, 67, 61
1, 261188, Control_c, 0, 67, 60
1, 261203, Control_c, 0, 67, 60
1, 261218, Control_c, 0, 67, 59
1, 261233, Control_c, 0, 67, 58
1, 261246, Note_off_c, 0, 79, 5
1, 261247, Control_c, 0, 67, 58
1, 261262, Control_c, 0, 67, 57
1, 261291, Note_on_c, 0, 74, 78
1, 261319, Note_off_c, 0, 74, 65
1, 261336, Control_c, 0, 67, 58
1, 261351, Control_c, 0, 67, 59
1, 261373, Control_c, 0, 67, 60
1, 261388, Control_c, 0, 67, 62
1, 261447, Control_c, 0, 64, 39
1, 261462, Control_c, 0, 64, 54
1, 261477, Control_c, 0, 64, 63
1, 261477, Control_c, 0, 67, 65
1, 261482, Note_on_c, 0, 36, 42
1, 261484, Note_on_c, 0, 48, 37
1, 261492, Control_c, 0, 64, 70
1, 261492, Control_c, 0, 67, 68
1, 261507, Control_c, 0, 64, 78
1, 261507, Control_c, 0, 67, 68
1, 261517, Note_off_c, 0, 36, 59
1, 261518, Note_on_c, 0, 75, 66
1, 261521, Control_c, 0, 64, 85
1, 261521, Control_c, 0, 67, 69
1, 261526, Note_on_c, 0, 72, 43
1, 261531, Note_off_c, 0, 48, 60
1, 261536, Control_c, 0, 64, 93
1, 261536, Control_c, 0, 67, 71
1, 261551, Control_c, 0, 64, 115
1, 261551, Control_c, 0, 67, 75
1, 261565, Control_c, 0, 64, 127
1, 261565, Control_c, 0, 67, 80
1, 261580, Control_c, 0, 67, 82
1, 261595, Control_c, 0, 67, 81
1, 261610, Control_c, 0, 67, 80
1, 261625, Control_c, 0, 67, 79
1, 261639, Control_c, 0, 67, 78
1, 261669, Control_c, 0, 67, 78
1, 261684, Control_c, 0, 67, 76
1, 261699, Control_c, 0, 67, 74
1, 261702, Note_on_c, 0, 55, 57
1, 261708, Note_on_c, 0, 51, 47
1, 261717, Note_off_c, 0, 72, 40
1, 261726, Note_off_c, 0, 75, 58
1, 261729, Note_off_c, 0, 55, 63
1, 261747, Note_off_c, 0, 51, 63
1, 261758, Control_c, 0, 67, 74
1, 261771, Note_on_c, 0, 77, 79
1, 261784, Note_on_c, 0, 72, 66
1, 261791, Poly_aftertouch_c, 0, 48, 0
1, 261803, Control_c, 0, 67, 74
1, 261810, Note_off_c, 0, 72, 68
1, 261814, Note_off_c, 0, 77, 65
1, 261847, Control_c, 0, 67, 75
1, 261852, Note_on_c, 0, 78, 85
1, 261866, Note_on_c, 0, 75, 61
1, 261877, Note_on_c, 0, 72, 58
1, 261877, Control_c, 0, 67, 74
1, 261891, Control_c, 0, 67, 73
1, 261897, Note_off_c, 0, 75, 47
1, 261906, Control_c, 0, 67, 73
1, 261946, Note_off_c, 0, 72, 61
1, 261952, Control_c, 0, 67, 73
1, 261996, Control_c, 0, 67, 74
1, 262011, Control_c, 0, 67, 76
1, 262027, Note_off_c, 0, 78, 62
1, 262037, Note_on_c, 0, 48, 63
1, 262040, Note_on_c, 0, 36, 61
1, 262041, Control_c, 0, 64, 82
1, 262052, Note_on_c, 0, 83, 83
1, 262056, Control_c, 0, 64, 66
1, 262059, Note_on_c, 0, 75, 59
1, 262062, Note_on_c, 0, 72, 68
1, 262070, Control_c, 0, 64, 63
1, 262072, Note_off_c, 0, 36, 62
1, 262076, Note_off_c, 0, 48, 63
1, 262085, Control_c, 0, 64, 65
1, 262085, Control_c, 0, 67, 77
1, 262086, Note_off_c, 0, 75, 66
1, 262090, Note_off_c, 0, 72, 68
1, 262100, Control_c, 0, 64, 72
1, 262100, Control_c, 0, 67, 78
1, 262122, Control_c, 0, 64, 83
1, 262122, Control_c, 0, 67, 79
1, 262137, Control_c, 0, 64, 102
1, 262137, Control_c, 0, 67, 80
1, 262140, Note_off_c, 0, 83, 56
1, 262152, Control_c, 0, 64, 127
1, 262152, Control_c, 0, 67, 81
1, 262241, Control_c, 0, 67, 80
1, 262245, Note_on_c, 0, 55, 71
1, 262254, Note_on_c, 0, 51, 60
1, 262256, Note_on_c, 0, 48, 48
1, 262256, Control_c, 0, 67, 79
1, 262269, Note_off_c, 0, 55, 69
1, 262270, Control_c, 0, 67, 79
1, 262281, Note_off_c, 0, 51, 63
1, 262283, Note_off_c, 0, 48, 57
1, 262328, Note_on_c, 0, 82, 81
1, 262329, Control_c, 0, 67, 79
1, 262336, Note_on_c, 0, 75, 58
1, 262339, Note_on_c, 0, 72, 62
1, 262344, Control_c, 0, 67, 79
1, 262355, Note_off_c, 0, 75, 64
1, 262358, Note_off_c, 0, 72, 64
1, 262359, Control_c, 0, 67, 77
1, 262361, Note_off_c, 0, 82, 54
1, 262374, Control_c, 0, 67, 76
1, 262412, Note_on_c, 0, 80, 82
1, 262416, Note_on_c, 0, 72, 79
1, 262418, Control_c, 0, 67, 77
1, 262462, Control_c, 0, 67, 76
1, 262521, Control_c, 0, 67, 76
1, 262523, Poly_aftertouch_c, 0, 75, 0
1, 262556, Note_off_c, 0, 80, 55
1, 262579, Note_off_c, 0, 72, 32
1, 262581, Control_c, 0, 64, 70
1, 262581, Control_c, 0, 67, 78
1, 262588, Note_on_c, 0, 74, 77
1, 262595, Note_on_c, 0, 31, 63
1, 262596, Control_c, 0, 64, 0
1, 262596, Control_c, 0, 67, 79
1, 262597, Note_on_c, 0, 43, 66
1, 262611, Control_c, 0, 67, 79
1, 262629, Note_off_c, 0, 74, 62
1, 262641, Control_c, 0, 67, 80
1, 262656, Control_c, 0, 67, 81
1, 262685, Control_c, 0, 67, 81
1, 262729, Control_c, 0, 64, 36
1, 262745, Control_c, 0, 64, 59
1, 262745, Control_c, 0, 67, 82
1, 262760, Control_c, 0, 64, 67
1, 262760, Control_c, 0, 67, 82
1, 262762, Note_off_c, 0, 31, 45
1, 262775, Control_c, 0, 64, 69
1, 262775, Control_c, 0, 67, 83
1, 262819, Control_c, 0, 64, 73
1, 262834, Control_c, 0, 64, 79
1, 262844, Note_off_c, 0, 43, 62
1, 262849, Control_c, 0, 64, 87
1, 262851, Note_on_c, 0, 79, 77
1, 262869, Note_on_c, 0, 67, 60
1, 262871, Control_c, 0, 64, 92
1, 262873, Note_on_c, 0, 74, 54
1, 262886, Control_c, 0, 64, 96
1, 262900, Control_c, 0, 64, 108
1, 262915, Control_c, 0, 64, 127
1, 262975, Control_c, 0, 67, 83
1, 263108, Control_c, 0, 67, 84
1, 263182, Note_on_c, 0, 59, 67
1, 263208, Note_on_c, 0, 50, 39
1, 263223, Note_on_c, 0, 55, 27
1, 263240, Note_off_c, 0, 67, 59
1, 263263, Note_off_c, 0, 50, 44
1, 263266, Note_off_c, 0, 74, 54
1, 263271, Control_c, 0, 67, 84
1, 263279, Note_off_c, 0, 59, 59
1, 263285, Control_c, 0, 67, 85
1, 263315, Control_c, 0, 67, 85
1, 263330, Control_c, 0, 67, 87
1, 263337, Note_off_c, 0, 55, 37
1, 263344, Control_c, 0, 67, 87
1, 263359, Control_c, 0, 67, 88
1, 263374, Control_c, 0, 67, 89
1, 263381, Note_off_c, 0, 79, 61
1, 263389, Control_c, 0, 67, 90
1, 263419, Control_c, 0, 67, 90
1, 263434, Control_c, 0, 67, 92
1, 263449, Control_c, 0, 67, 97
1, 263459, Note_on_c, 0, 72, 70
1, 263463, Control_c, 0, 64, 105
1, 263463, Control_c, 0, 67, 100
1, 263478, Control_c, 0, 64, 66
1, 263488, Note_off_c, 0, 72, 64
1, 263493, Control_c, 0, 64, 0
1, 263568, Control_c, 0, 67, 98
1, 263598, Control_c, 0, 67, 95
1, 263621, Control_c, 0, 67, 95
1, 263653, Note_on_c, 0, 77, 72
1, 263665, Control_c, 0, 67, 94
1, 263675, Note_off_c, 0, 77, 70
1, 263680, Control_c, 0, 67, 92
1, 263695, Control_c, 0, 67, 91
1, 263724, Control_c, 0, 67, 92
1, 263739, Control_c, 0, 67, 92
1, 263754, Control_c, 0, 67, 92
1, 263798, Control_c, 0, 67, 92
1, 263813, Control_c, 0, 67, 93
1, 263828, Control_c, 0, 67, 93
1, 263843, Note_on_c, 0, 79, 72
1, 263857, Control_c, 0, 67, 94
1, 263866, Note_off_c, 0, 79, 71
1, 263872, Control_c, 0, 67, 95
1, 263887, Control_c, 0, 67, 97
1, 263931, Control_c, 0, 67, 96
1, 263961, Control_c, 0, 64, 37
1, 263976, Control_c, 0, 64, 54
1, 263991, Control_c, 0, 64, 64
1, 263991, Control_c, 0, 67, 98
1, 264005, Note_on_c, 0, 41, 48
1, 264006, Note_on_c, 0, 53, 45
1, 264006, Control_c, 0, 64, 69
1, 264021, Control_c, 0, 64, 75
1, 264035, Control_c, 0, 64, 82
1, 264036, Note_off_c, 0, 41, 62
1, 264044, Note_on_c, 0, 80, 70
1, 264050, Control_c, 0, 64, 87
1, 264053, Note_on_c, 0, 77, 61
1, 264065, Control_c, 0, 64, 95
1, 264080, Control_c, 0, 64, 127
1, 264083, Note_off_c, 0, 53, 59
1, 264183, Control_c, 0, 67, 96
1, 264198, Control_c, 0, 67, 95
1, 264213, Control_c, 0, 67, 94
1, 264223, Note_on_c, 0, 56, 63
1, 264223, Note_on_c, 0, 60, 62
1, 264241, Note_on_c, 0, 53, 30
1, 264242, Note_off_c, 0, 60, 65
1, 264251, Note_off_c, 0, 56, 63
1, 264272, Note_off_c, 0, 53, 51
1, 264272, Control_c, 0, 67, 92
1, 264286, Control_c, 0, 67, 90
1, 264301, Control_c, 0, 67, 89
1, 264316, Control_c, 0, 67, 88
1, 264370, Control_c, 0, 67, 85
1, 264374, Note_off_c, 0, 80, 57
1, 264385, Control_c, 0, 67, 76
1, 264399, Control_c, 0, 67, 63
1, 264409, Note_on_c, 0, 72, 79
1, 264414, Control_c, 0, 67, 59
1, 264459, Control_c, 0, 67, 57
1, 264473, Control_c, 0, 67, 54
1, 264488, Control_c, 0, 67, 52
1, 264517, Control_c, 0, 67, 54
1, 264532, Control_c, 0, 67, 54
1, 264577, Control_c, 0, 64, 86
1, 264581, Note_on_c, 0, 53, 73
1, 264587, Note_on_c, 0, 41, 49
1, 264587, Note_on_c, 0, 80, 81
1, 264591, Control_c, 0, 64, 59
1, 264591, Control_c, 0, 67, 55
1, 264592, Note_off_c, 0, 77, 64
1, 264593, Note_on_c, 0, 83, 74
1, 264606, Control_c, 0, 64, 47
1, 264606, Control_c, 0, 67, 56
1, 264615, Note_off_c, 0, 53, 65
1, 264616, Note_off_c, 0, 41, 48
1, 264621, Control_c, 0, 64, 56
1, 264636, Control_c, 0, 64, 67
1, 264651, Control_c, 0, 64, 81
1, 264665, Control_c, 0, 64, 113
1, 264680, Control_c, 0, 64, 127
1, 264680, Control_c, 0, 67, 57
1, 264695, Control_c, 0, 67, 58
1, 264724, Control_c, 0, 67, 58
1, 264739, Control_c, 0, 67, 57
1, 264754, Control_c, 0, 67, 56
1, 264763, Note_on_c, 0, 56, 65
1, 264766, Note_on_c, 0, 73, 87
1, 264767, Note_on_c, 0, 52, 58
1, 264770, Note_on_c, 0, 60, 56
1, 264775, Note_off_c, 0, 72, 61
1, 264784, Control_c, 0, 67, 56
1, 264789, Note_off_c, 0, 52, 60
1, 264790, Note_off_c, 0, 56, 62
1, 264793, Note_off_c, 0, 60, 60
1, 264797, Note_off_c, 0, 80, 31
1, 264814, Control_c, 0, 67, 55
1, 264829, Control_c, 0, 67, 54
1, 264844, Control_c, 0, 67, 50
1, 264858, Control_c, 0, 67, 45
1, 264873, Control_c, 0, 67, 33
1, 264888, Control_c, 0, 67, 0
1, 264894, Note_off_c, 0, 73, 61
1, 264897, Note_off_c, 0, 83, 52
1, 264939, Note_on_c, 0, 74, 87
1, 264939, Note_on_c, 0, 81, 90
1, 264957, Note_off_c, 0, 74, 72
1, 264976, Note_off_c, 0, 81, 63
1, 265043, Poly_aftertouch_c, 0, 42, 127
1, 265127, Note_on_c, 0, 51, 85
1, 265127, Note_on_c, 0, 84, 88
1, 265129, Note_on_c, 0, 39, 85
1, 265136, Note_on_c, 0, 75, 73
1, 265142, Note_on_c, 0, 80, 76
1, 265147, Control_c, 0, 64, 108
1, 265156, Note_off_c, 0, 75, 67
1, 265162, Control_c, 0, 64, 63
1, 265163, Note_off_c, 0, 80, 70
1, 265166, Note_off_c, 0, 84, 64
1, 265168, Poly_aftertouch_c, 0, 42, 0
1, 265177, Control_c, 0, 64, 0
1, 265207, Control_c, 0, 67, 27
1, 265221, Control_c, 0, 67, 34
1, 265236, Control_c, 0, 67, 39
1, 265251, Control_c, 0, 67, 41
1, 265266, Control_c, 0, 67, 45
1, 265281, Control_c, 0, 67, 53
1, 265295, Control_c, 0, 64, 55
1, 265295, Control_c, 0, 67, 66
1, 265306, Note_off_c, 0, 39, 62
1, 265310, Control_c, 0, 64, 74
1, 265310, Control_c, 0, 67, 83
1, 265322, Note_on_c, 0, 75, 92
1, 265324, Note_on_c, 0, 87, 100
1, 265325, Control_c, 0, 64, 106
1, 265325, Control_c, 0, 67, 88
1, 265329, Note_on_c, 0, 80, 79
1, 265329, Note_off_c, 0, 51, 64
1, 265339, Control_c, 0, 64, 127
1, 265369, Control_c, 0, 67, 87
1, 265413, Control_c, 0, 67, 85
1, 265428, Control_c, 0, 67, 84
1, 265434, Note_off_c, 0, 75, 53
1, 265443, Control_c, 0, 67, 83
1, 265458, Control_c, 0, 67, 81
1, 265473, Control_c, 0, 67, 80
1, 265487, Control_c, 0, 67, 79
1, 265499, Note_off_c, 0, 80, 48
1, 265500, Note_on_c, 0, 50, 46
1, 265500, Note_on_c, 0, 56, 71
1, 265502, Note_on_c, 0, 60, 75
1, 265502, Control_c, 0, 67, 75
1, 265503, Note_off_c, 0, 87, 62
1, 265517, Control_c, 0, 67, 70
1, 265529, Note_on_c, 0, 63, 69
1, 265529, Note_off_c, 0, 50, 56
1, 265532, Control_c, 0, 67, 69
1, 265534, Note_on_c, 0, 51, 19
1, 265547, Control_c, 0, 67, 72
1, 265548, Note_off_c, 0, 60, 63
1, 265557, Note_off_c, 0, 56, 61
1, 265558, Note_off_c, 0, 63, 65
1, 265562, Control_c, 0, 67, 77
1, 265577, Control_c, 0, 67, 79
1, 265585, Note_off_c, 0, 51, 50
1, 265592, Control_c, 0, 67, 78
1, 265606, Control_c, 0, 67, 68
1, 265621, Control_c, 0, 67, 51
1, 265636, Control_c, 0, 67, 0
1, 265651, Note_on_c, 0, 53, 57
1, 265661, Note_on_c, 0, 60, 71
1, 265671, Note_on_c, 0, 68, 91
1, 265676, Note_on_c, 0, 62, 70
1, 265678, Note_on_c, 0, 74, 93
1, 265689, Note_off_c, 0, 53, 64
1, 265696, Control_c, 0, 64, 79
1, 265705, Note_off_c, 0, 74, 63
1, 265709, Note_off_c, 0, 62, 64
1, 265711, Control_c, 0, 64, 0
1, 265712, Note_off_c, 0, 60, 65
1, 265714, Note_off_c, 0, 68, 62
1, 265853, Note_on_c, 0, 80, 84
1, 265885, Note_off_c, 0, 80, 67
1, 266047, Note_on_c, 0, 82, 95
1, 266131, Note_off_c, 0, 82, 37
1, 266230, Note_on_c, 0, 51, 98
1, 266237, Control_c, 0, 64, 69
1, 266238, Note_on_c, 0, 75, 87
1, 266238, Note_on_c, 0, 84, 85
1, 266243, Note_on_c, 0, 39, 61
1, 266246, Note_on_c, 0, 80, 90
1, 266252, Control_c, 0, 64, 127
1, 266253, Note_off_c, 0, 51, 69
1, 266268, Note_off_c, 0, 75, 61
1, 266270, Note_off_c, 0, 39, 58
1, 266286, Note_off_c, 0, 84, 63
1, 266288, Note_off_c, 0, 80, 63
1, 266432, Note_on_c, 0, 75, 96
1, 266434, Note_on_c, 0, 87, 105
1, 266438, Note_on_c, 0, 80, 89
1, 266504, Note_off_c, 0, 75, 45
1, 266510, Note_off_c, 0, 80, 62
1, 266596, Note_on_c, 0, 63, 92
1, 266617, Note_on_c, 0, 51, 62
1, 266622, Note_on_c, 0, 56, 69
1, 266623, Note_on_c, 0, 60, 63
1, 266645, Note_off_c, 0, 60, 66
1, 266649, Note_off_c, 0, 51, 62
1, 266649, Note_off_c, 0, 63, 63
1, 266674, Control_c, 0, 67, 31
1, 266689, Note_off_c, 0, 56, 59
1, 266689, Control_c, 0, 67, 24
1, 266695, Note_off_c, 0, 87, 59
1, 266704, Control_c, 0, 67, 0
1, 266740, Note_on_c, 0, 50, 76
1, 266757, Note_on_c, 0, 56, 91
1, 266772, Note_on_c, 0, 52, 54
1, 266778, Note_on_c, 0, 60, 76
1, 266778, Note_on_c, 0, 65, 91
1, 266782, Note_off_c, 0, 50, 58
1, 266795, Note_on_c, 0, 77, 94
1, 266802, Note_off_c, 0, 52, 36
1, 266808, Control_c, 0, 64, 64
1, 266811, Note_off_c, 0, 56, 63
1, 266811, Note_off_c, 0, 65, 62
1, 266822, Note_off_c, 0, 60, 64
1, 266823, Control_c, 0, 64, 0
1, 266831, Note_off_c, 0, 77, 68
1, 267009, Note_on_c, 0, 80, 96
1, 267043, Note_off_c, 0, 80, 69
1, 267222, Note_on_c, 0, 82, 98
1, 267251, Note_off_c, 0, 82, 66
1, 267416, Note_on_c, 0, 31, 76
1, 267421, Note_on_c, 0, 43, 91
1, 267423, Control_c, 0, 64, 63
1, 267437, Control_c, 0, 64, 127
1, 267439, Note_off_c, 0, 31, 65
1, 267445, Note_on_c, 0, 84, 103
1, 267465, Note_off_c, 0, 43, 62
1, 267487, Note_off_c, 0, 84, 65
1, 267668, Note_on_c, 0, 92, 108
1, 267699, Note_off_c, 0, 92, 69
1, 267846, Note_on_c, 0, 67, 82
1, 267851, Note_on_c, 0, 63, 82
1, 267852, Note_on_c, 0, 60, 72
1, 267859, Note_on_c, 0, 55, 64
1, 267865, Note_off_c, 0, 67, 73
1, 267874, Note_off_c, 0, 63, 70
1, 267877, Note_off_c, 0, 60, 69
1, 267890, Note_off_c, 0, 55, 67
1, 268018, Note_on_c, 0, 78, 99
1, 268046, Control_c, 0, 64, 68
1, 268051, Note_off_c, 0, 78, 66
1, 268060, Control_c, 0, 64, 0
1, 268128, Control_c, 0, 67, 19
1, 268142, Control_c, 0, 67, 0
1, 268187, Control_c, 0, 67, 20
1, 268202, Note_on_c, 0, 55, 82
1, 268202, Control_c, 0, 64, 61
1, 268204, Note_on_c, 0, 87, 104
1, 268206, Note_on_c, 0, 43, 60
1, 268216, Control_c, 0, 64, 80
1, 268216, Control_c, 0, 67, 23
1, 268227, Note_off_c, 0, 55, 67
1, 268231, Control_c, 0, 64, 127
1, 268232, Note_off_c, 0, 43, 58
1, 268242, Note_off_c, 0, 87, 64
1, 268377, Note_on_c, 0, 67, 77
1, 268380, Note_on_c, 0, 60, 65
1, 268382, Note_on_c, 0, 55, 68
1, 268391, Note_on_c, 0, 63, 66
1, 268398, Note_off_c, 0, 67, 72
1, 268409, Note_off_c, 0, 60, 69
1, 268421, Note_off_c, 0, 63, 66
1, 268423, Note_off_c, 0, 55, 60
1, 268543, Control_c, 0, 64, 95
1, 268550, Note_on_c, 0, 71, 90
1, 268558, Control_c, 0, 64, 57
1, 268573, Control_c, 0, 64, 0
1, 268576, Note_off_c, 0, 71, 65
1, 268632, Control_c, 0, 67, 25
1, 268706, Control_c, 0, 64, 50
1, 268707, Note_on_c, 0, 43, 64
1, 268715, Note_on_c, 0, 55, 71
1, 268715, Note_on_c, 0, 80, 80
1, 268721, Control_c, 0, 64, 65
1, 268734, Note_off_c, 0, 80, 72
1, 268736, Control_c, 0, 64, 78
1, 268737, Note_off_c, 0, 43, 65
1, 268741, Note_off_c, 0, 55, 68
1, 268750, Control_c, 0, 64, 100
1, 268765, Control_c, 0, 64, 127
1, 268887, Note_on_c, 0, 60, 64
1, 268889, Note_on_c, 0, 63, 68
1, 268891, Control_c, 0, 67, 27
1, 268917, Note_off_c, 0, 63, 67
1, 268918, Note_off_c, 0, 60, 68
1, 269024, Control_c, 0, 64, 102
1, 269039, Control_c, 0, 64, 67
1, 269045, Note_on_c, 0, 66, 75
1, 269054, Control_c, 0, 64, 0
1, 269068, Note_off_c, 0, 66, 68
1, 269069, Control_c, 0, 67, 30
1, 269083, Control_c, 0, 67, 32
1, 269098, Control_c, 0, 67, 33
1, 269113, Control_c, 0, 67, 34
1, 269129, Control_c, 0, 67, 36
1, 269144, Control_c, 0, 67, 37
1, 269159, Control_c, 0, 67, 37
1, 269174, Control_c, 0, 67, 38
1, 269188, Control_c, 0, 67, 39
1, 269203, Control_c, 0, 64, 43
1, 269203, Control_c, 0, 67, 40
1, 269217, Note_on_c, 0, 75, 67
1, 269218, Control_c, 0, 64, 62
1, 269218, Control_c, 0, 67, 42
1, 269220, Note_on_c, 0, 55, 66
1, 269233, Control_c, 0, 64, 72
1, 269233, Control_c, 0, 67, 45
1, 269246, Note_off_c, 0, 75, 66
1, 269248, Control_c, 0, 64, 87
1, 269248, Control_c, 0, 67, 47
1, 269251, Note_off_c, 0, 55, 66
1, 269262, Control_c, 0, 64, 127
1, 269262, Control_c, 0, 67, 49
1, 269277, Control_c, 0, 67, 52
1, 269292, Control_c, 0, 67, 53
1, 269306, Control_c, 0, 67, 55
1, 269309, Poly_aftertouch_c, 0, 43, 0
1, 269321, Control_c, 0, 67, 56
1, 269336, Control_c, 0, 67, 58
1, 269351, Control_c, 0, 67, 61
1, 269366, Control_c, 0, 67, 65
1, 269372, Note_on_c, 0, 63, 73
1, 269379, Note_on_c, 0, 60, 60
1, 269381, Control_c, 0, 67, 68
1, 269395, Control_c, 0, 67, 70
1, 269398, Note_off_c, 0, 63, 68
1, 269406, Note_off_c, 0, 60, 66
1, 269485, Control_c, 0, 67, 69
1, 269499, Control_c, 0, 67, 69
1, 269529, Control_c, 0, 67, 71
1, 269538, Note_on_c, 0, 59, 77
1, 269544, Control_c, 0, 64, 78
1, 269544, Control_c, 0, 67, 73
1, 269559, Note_off_c, 0, 59, 70
1, 269559, Control_c, 0, 64, 40
1, 269559, Control_c, 0, 67, 82
1, 269574, Control_c, 0, 64, 0
1, 269574, Control_c, 0, 67, 91
1, 269588, Control_c, 0, 67, 97
1, 269610, Control_c, 0, 67, 99
1, 269640, Control_c, 0, 67, 101
1, 269655, Control_c, 0, 67, 103
1, 269670, Control_c, 0, 67, 106
1, 269685, Control_c, 0, 67, 110
1, 269699, Control_c, 0, 67, 115
1, 269714, Control_c, 0, 67, 119
1, 269728, Note_on_c, 0, 69, 64
1, 269729, Control_c, 0, 67, 122
1, 269755, Note_off_c, 0, 69, 65
1, 269759, Control_c, 0, 67, 124
1, 269902, Note_on_c, 0, 81, 78
1, 270061, Note_on_c, 0, 50, 69
1, 270092, Note_off_c, 0, 50, 66
1, 270232, Note_on_c, 0, 55, 77
1, 270234, Note_off_c, 0, 81, 62
1, 270245, Note_on_c, 0, 80, 73
1, 270257, Note_off_c, 0, 55, 67
1, 270286, Note_off_c, 0, 80, 66
1, 270312, Note_on_c, 0, 79, 68
1, 270396, Note_off_c, 0, 79, 63
1, 270400, Note_on_c, 0, 57, 79
1, 270403, Note_on_c, 0, 78, 73
1, 270425, Note_off_c, 0, 57, 68
1, 270457, Note_off_c, 0, 78, 63
1, 270479, Note_on_c, 0, 77, 63
1, 270528, Note_off_c, 0, 77, 62
1, 270562, Note_on_c, 0, 59, 78
1, 270569, Note_on_c, 0, 51, 74
1, 270578, Note_on_c, 0, 76, 68
1, 270603, Note_off_c, 0, 76, 68
1, 270745, Note_on_c, 0, 75, 74
1, 270776, Note_off_c, 0, 75, 67
1, 270823, Note_on_c, 0, 74, 68
1, 270882, Note_off_c, 0, 74, 62
1, 270887, Note_on_c, 0, 56, 79
1, 270887, Note_on_c, 0, 75, 70
1, 270892, Note_off_c, 0, 51, 62
1, 270897, Note_off_c, 0, 59, 61
1, 270910, Note_off_c, 0, 56, 68
1, 270963, Note_on_c, 0, 73, 81
1, 270987, Note_off_c, 0, 75, 62
1, 271017, Note_off_c, 0, 73, 63
1, 271044, Note_on_c, 0, 62, 83
1, 271048, Note_on_c, 0, 72, 75
1, 271070, Note_off_c, 0, 72, 70
1, 271232, Note_on_c, 0, 71, 65
1, 271276, Note_off_c, 0, 71, 57
1, 271301, Note_on_c, 0, 69, 61
1, 271366, Note_off_c, 0, 69, 62
1, 271384, Note_on_c, 0, 70, 70
1, 271385, Note_on_c, 0, 59, 60
1, 271394, Note_off_c, 0, 62, 62
1, 271413, Note_off_c, 0, 59, 64
1, 271455, Note_on_c, 0, 68, 68
1, 271464, Note_off_c, 0, 70, 59
1, 271500, Note_off_c, 0, 68, 63
1, 271533, Note_on_c, 0, 67, 70
1, 271539, Note_on_c, 0, 63, 72
1, 271566, Note_off_c, 0, 63, 67
1, 271580, Note_off_c, 0, 67, 60
1, 271612, Note_on_c, 0, 68, 68
1, 271621, Note_on_c, 0, 65, 57
1, 271652, Note_off_c, 0, 68, 63
1, 271656, Note_off_c, 0, 65, 66
1, 271692, Note_on_c, 0, 58, 70
1, 271694, Note_on_c, 0, 67, 71
1, 271729, Note_off_c, 0, 67, 62
1, 271768, Note_on_c, 0, 68, 67
1, 271769, Note_on_c, 0, 65, 57
1, 271806, Note_off_c, 0, 65, 64
1, 271820, Control_c, 0, 67, 126
1, 271824, Note_off_c, 0, 68, 63
1, 271833, Note_off_c, 0, 58, 64
1, 271840, Note_on_c, 0, 70, 61
1, 271852, Note_on_c, 0, 67, 63
1, 271872, Note_off_c, 0, 67, 66
1, 271873, Note_off_c, 0, 70, 65
1, 272013, Note_on_c, 0, 75, 72
1, 272027, Note_on_c, 0, 79, 70
1, 272036, Note_off_c, 0, 75, 67
1, 272062, Note_off_c, 0, 79, 62
1, 272102, Note_on_c, 0, 80, 66
1, 272111, Note_on_c, 0, 77, 44
1, 272137, Note_off_c, 0, 77, 61
1, 272160, Note_off_c, 0, 80, 62
1, 272171, Note_on_c, 0, 70, 74
1, 272179, Note_on_c, 0, 79, 76
1, 272225, Note_off_c, 0, 79, 63
1, 272252, Note_on_c, 0, 80, 68
1, 272258, Note_on_c, 0, 77, 36
1, 272301, Note_off_c, 0, 77, 53
1, 272328, Note_on_c, 0, 82, 74
1, 272331, Note_on_c, 0, 79, 75
1, 272335, Note_off_c, 0, 70, 63
1, 272335, Note_off_c, 0, 80, 62
1, 272349, Note_off_c, 0, 82, 70
1, 272352, Note_off_c, 0, 79, 71
1, 272491, Note_on_c, 0, 87, 83
1, 272502, Note_on_c, 0, 91, 69
1, 272510, Note_off_c, 0, 87, 72
1, 272566, Note_off_c, 0, 91, 63
1, 272585, Note_on_c, 0, 92, 71
1, 272648, Note_off_c, 0, 92, 64
1, 272665, Note_on_c, 0, 82, 75
1, 272668, Note_on_c, 0, 94, 75
1, 272695, Control_c, 0, 64, 56
1, 272725, Control_c, 0, 64, 51
1, 272740, Control_c, 0, 64, 48
1, 272755, Note_on_c, 0, 92, 69
1, 272755, Control_c, 0, 64, 48
1, 272761, Note_off_c, 0, 94, 65
1, 272770, Control_c, 0, 64, 49
1, 272784, Control_c, 0, 64, 49
1, 272798, Note_off_c, 0, 92, 67
1, 272799, Control_c, 0, 64, 48
1, 272819, Note_on_c, 0, 91, 75
1, 272852, Note_off_c, 0, 91, 65
1, 272867, Note_off_c, 0, 82, 61
1, 272873, Control_c, 0, 64, 48
1, 272889, Note_on_c, 0, 80, 62
1, 272896, Note_on_c, 0, 89, 74
1, 272932, Note_off_c, 0, 80, 59
1, 272937, Note_off_c, 0, 89, 62
1, 272967, Note_on_c, 0, 79, 78
1, 272976, Control_c, 0, 64, 47
1, 272977, Note_on_c, 0, 87, 72
1, 272991, Control_c, 0, 64, 47
1, 273014, Note_off_c, 0, 79, 63
1, 273023, Note_off_c, 0, 87, 65
1, 273046, Note_on_c, 0, 84, 75
1, 273054, Note_on_c, 0, 80, 67
1, 273107, Note_off_c, 0, 80, 53
1, 273127, Note_off_c, 0, 84, 62
1, 273130, Note_on_c, 0, 82, 69
1, 273136, Note_on_c, 0, 79, 68
1, 273141, Control_c, 0, 64, 46
1, 273155, Control_c, 0, 64, 43
1, 273170, Control_c, 0, 64, 36
1, 273178, Note_off_c, 0, 79, 60
1, 273185, Control_c, 0, 64, 0
1, 273200, Note_on_c, 0, 80, 76
1, 273217, Note_on_c, 0, 77, 48
1, 273222, Note_off_c, 0, 82, 59
1, 273250, Note_off_c, 0, 77, 53
1, 273269, Note_off_c, 0, 80, 63
1, 273273, Note_on_c, 0, 79, 80
1, 273280, Note_on_c, 0, 75, 63
1, 273303, Note_off_c, 0, 79, 66
1, 273337, Note_off_c, 0, 75, 60
1, 273339, Note_on_c, 0, 77, 74
1, 273365, Note_on_c, 0, 70, 64
1, 273396, Note_off_c, 0, 70, 65
1, 273401, Note_off_c, 0, 77, 64
1, 273414, Control_c, 0, 64, 35
1, 273428, Note_on_c, 0, 75, 58
1, 273429, Control_c, 0, 64, 64
1, 273438, Note_on_c, 0, 82, 73
1, 273444, Control_c, 0, 64, 67
1, 273446, Note_on_c, 0, 79, 59
1, 273455, Note_off_c, 0, 75, 66
1, 273473, Control_c, 0, 64, 66
1, 273478, Note_off_c, 0, 79, 67
1, 273488, Control_c, 0, 64, 65
1, 273494, Note_off_c, 0, 82, 62
1, 273512, Note_on_c, 0, 68, 67
1, 273518, Control_c, 0, 64, 65
1, 273523, Note_on_c, 0, 72, 67
1, 273533, Control_c, 0, 64, 64
1, 273548, Control_c, 0, 64, 63
1, 273553, Note_off_c, 0, 68, 55
1, 273563, Control_c, 0, 64, 63
1, 273578, Control_c, 0, 64, 62
1, 273593, Note_off_c, 0, 72, 62
1, 273593, Control_c, 0, 64, 61
1, 273595, Note_on_c, 0, 70, 67
1, 273602, Note_on_c, 0, 67, 68
1, 273607, Control_c, 0, 64, 60
1, 273622, Control_c, 0, 64, 60
1, 273660, Note_on_c, 0, 68, 78
1, 273664, Note_off_c, 0, 67, 63
1, 273673, Note_on_c, 0, 65, 69
1, 273681, Control_c, 0, 64, 60
1, 273696, Control_c, 0, 64, 61
1, 273711, Control_c, 0, 64, 61
1, 273712, Note_off_c, 0, 70, 63
1, 273722, Note_off_c, 0, 68, 67
1, 273725, Control_c, 0, 64, 63
1, 273732, Note_on_c, 0, 67, 76
1, 273740, Control_c, 0, 64, 64
1, 273743, Note_off_c, 0, 65, 64
1, 273755, Note_on_c, 0, 63, 60
1, 273755, Control_c, 0, 64, 65
1, 273770, Control_c, 0, 64, 68
1, 273777, Note_off_c, 0, 67, 66
1, 273785, Control_c, 0, 64, 71
1, 273786, Note_off_c, 0, 63, 65
1, 273799, Control_c, 0, 64, 77
1, 273804, Note_on_c, 0, 58, 67
1, 273814, Note_on_c, 0, 65, 81
1, 273814, Control_c, 0, 64, 87
1, 273829, Control_c, 0, 64, 97
1, 273831, Note_off_c, 0, 58, 65
1, 273844, Control_c, 0, 64, 88
1, 273859, Control_c, 0, 64, 60
1, 273873, Control_c, 0, 64, 0
1, 273883, Note_off_c, 0, 65, 63
1, 273899, Note_on_c, 0, 63, 61
1, 273909, Note_on_c, 0, 51, 87
1, 273909, Note_on_c, 0, 39, 84
1, 273932, Note_off_c, 0, 39, 66
1, 273932, Note_off_c, 0, 51, 67
1, 273935, Note_off_c, 0, 63, 65
1, 273982, Note_on_c, 0, 65, 76
1, 274037, Note_off_c, 0, 65, 61
1, 274060, Note_on_c, 0, 43, 61
1, 274066, Note_on_c, 0, 55, 63
1, 274066, Note_on_c, 0, 67, 72
1, 274084, Note_off_c, 0, 43, 62
1, 274086, Note_off_c, 0, 55, 62
1, 274132, Note_off_c, 0, 67, 61
1, 274149, Note_on_c, 0, 68, 75
1, 274198, Note_off_c, 0, 68, 63
1, 274216, Note_on_c, 0, 58, 82
1, 274220, Note_on_c, 0, 46, 75
1, 274223, Note_on_c, 0, 69, 75
1, 274238, Note_off_c, 0, 58, 69
1, 274246, Note_off_c, 0, 46, 66
1, 274278, Note_off_c, 0, 69, 60
1, 274299, Note_on_c, 0, 70, 74
1, 274346, Note_off_c, 0, 70, 62
1, 274373, Note_on_c, 0, 71, 81
1, 274374, Note_on_c, 0, 59, 81
1, 274376, Note_on_c, 0, 47, 76
1, 274393, Note_off_c, 0, 59, 72
1, 274398, Note_off_c, 0, 47, 67
1, 274435, Note_off_c, 0, 71, 63
1, 274454, Note_on_c, 0, 73, 81
1, 274457, Note_on_c, 0, 70, 72
1, 274493, Note_off_c, 0, 70, 62
1, 274507, Note_off_c, 0, 73, 62
1, 274535, Note_on_c, 0, 44, 89
1, 274535, Note_on_c, 0, 71, 80
1, 274537, Note_on_c, 0, 56, 90
1, 274556, Note_on_c, 0, 54, 57
1, 274565, Note_on_c, 0, 43, 52
1, 274585, Note_off_c, 0, 54, 50
1, 274586, Note_off_c, 0, 71, 62
1, 274592, Control_c, 0, 64, 37
1, 274600, Note_off_c, 0, 43, 36
1, 274607, Control_c, 0, 64, 0
1, 274612, Note_on_c, 0, 70, 80
1, 274612, Note_on_c, 0, 73, 84
1, 274665, Note_off_c, 0, 70, 64
1, 274682, Note_off_c, 0, 44, 63
1, 274684, Note_on_c, 0, 75, 85
1, 274686, Note_off_c, 0, 56, 63
1, 274691, Note_on_c, 0, 71, 83
1, 274700, Note_off_c, 0, 73, 63
1, 274709, Note_off_c, 0, 71, 72
1, 274720, Note_off_c, 0, 75, 62
1, 274862, Note_on_c, 0, 62, 93
1, 274864, Note_on_c, 0, 77, 81
1, 274867, Note_on_c, 0, 50, 91
1, 274869, Note_on_c, 0, 68, 57
1, 274877, Note_on_c, 0, 72, 52
1, 274883, Note_off_c, 0, 62, 68
1, 274886, Note_off_c, 0, 77, 65
1, 274886, Note_off_c, 0, 50, 72
1, 274892, Note_off_c, 0, 68, 39
1, 274900, Note_off_c, 0, 72, 57
1, 274955, Note_on_c, 0, 78, 71
1, 274959, Note_on_c, 0, 75, 58
1, 274978, Note_off_c, 0, 78, 67
1, 274979, Note_off_c, 0, 75, 62
1, 275014, Note_on_c, 0, 59, 89
1, 275019, Note_on_c, 0, 47, 85
1, 275026, Note_on_c, 0, 74, 63
1, 275027, Note_on_c, 0, 78, 62
1, 275038, Note_on_c, 0, 77, 72
1, 275050, Note_off_c, 0, 78, 56
1, 275059, Control_c, 0, 64, 48
1, 275065, Note_off_c, 0, 74, 58
1, 275074, Control_c, 0, 64, 0
1, 275107, Note_on_c, 0, 75, 62
1, 275110, Note_off_c, 0, 77, 64
1, 275116, Note_on_c, 0, 78, 77
1, 275143, Note_off_c, 0, 47, 63
1, 275171, Note_off_c, 0, 59, 62
1, 275175, Note_on_c, 0, 80, 88
1, 275188, Note_off_c, 0, 75, 65
1, 275192, Note_on_c, 0, 76, 58
1, 275195, Note_off_c, 0, 78, 63
1, 275199, Note_on_c, 0, 77, 58
1, 275210, Note_off_c, 0, 80, 64
1, 275213, Note_off_c, 0, 76, 63
1, 275217, Note_off_c, 0, 77, 65
1, 275341, Note_on_c, 0, 73, 83
1, 275342, Note_on_c, 0, 66, 97
1, 275342, Note_on_c, 0, 82, 89
1, 275344, Note_on_c, 0, 78, 75
1, 275351, Note_on_c, 0, 54, 80
1, 275357, Note_off_c, 0, 73, 69
1, 275360, Note_off_c, 0, 66, 71
1, 275360, Note_on_c, 0, 56, 57
1, 275360, Note_off_c, 0, 56, 127
1, 275363, Note_off_c, 0, 78, 71
1, 275366, Note_off_c, 0, 82, 61
1, 275372, Note_off_c, 0, 54, 68
1, 275375, Note_on_c, 0, 68, 44
1, 275375, Note_off_c, 0, 68, 127
1, 275400, Control_c, 0, 64, 43
1, 275414, Control_c, 0, 64, 53
1, 275420, Note_on_c, 0, 81, 81
1, 275429, Control_c, 0, 64, 0
1, 275432, Note_on_c, 0, 80, 83
1, 275460, Note_off_c, 0, 81, 63
1, 275474, Note_off_c, 0, 80, 64
1, 275494, Note_on_c, 0, 61, 93
1, 275499, Note_on_c, 0, 49, 82
1, 275503, Control_c, 0, 64, 36
1, 275512, Note_on_c, 0, 82, 88
1, 275514, Note_on_c, 0, 78, 74
1, 275519, Control_c, 0, 64, 61
1, 275534, Control_c, 0, 64, 57
1, 275542, Note_off_c, 0, 78, 64
1, 275548, Control_c, 0, 64, 35
1, 275562, Note_off_c, 0, 82, 63
1, 275563, Control_c, 0, 64, 0
1, 275581, Note_off_c, 0, 49, 61
1, 275600, Note_on_c, 0, 80, 87
1, 275607, Note_on_c, 0, 83, 86
1, 275615, Control_c, 0, 64, 35
1, 275628, Note_off_c, 0, 61, 63
1, 275630, Control_c, 0, 64, 52
1, 275631, Note_off_c, 0, 80, 62
1, 275652, Note_off_c, 0, 83, 67
1, 275660, Control_c, 0, 64, 42
1, 275674, Control_c, 0, 64, 0
1, 275676, Note_on_c, 0, 84, 84
1, 275680, Note_on_c, 0, 81, 82
1, 275694, Note_off_c, 0, 81, 71
1, 275695, Note_off_c, 0, 84, 73
1, 275702, Note_on_c, 0, 82, 30
1, 275702, Note_off_c, 0, 82, 127
1, 275840, Note_on_c, 0, 78, 89
1, 275849, Note_on_c, 0, 82, 81
1, 275860, Note_off_c, 0, 78, 69
1, 275922, Note_on_c, 0, 83, 70
1, 275924, Note_on_c, 0, 80, 69
1, 275957, Note_off_c, 0, 82, 27
1, 275966, Note_off_c, 0, 80, 58
1, 275983, Note_off_c, 0, 83, 64
1, 275998, Note_on_c, 0, 73, 83
1, 276008, Note_on_c, 0, 82, 78
1, 276061, Note_off_c, 0, 82, 62
1, 276088, Note_on_c, 0, 80, 63
1, 276091, Note_on_c, 0, 83, 57
1, 276150, Note_off_c, 0, 73, 64
1, 276150, Note_off_c, 0, 80, 63
1, 276150, Note_on_c, 0, 85, 78
1, 276156, Note_off_c, 0, 83, 64
1, 276177, Note_off_c, 0, 85, 64
1, 276178, Note_on_c, 0, 82, 44
1, 276204, Note_off_c, 0, 82, 51
1, 276326, Note_on_c, 0, 94, 80
1, 276329, Note_on_c, 0, 90, 76
1, 276362, Note_off_c, 0, 90, 64
1, 276411, Note_on_c, 0, 95, 74
1, 276493, Note_off_c, 0, 94, 23
1, 276493, Note_on_c, 0, 85, 75
1, 276504, Note_on_c, 0, 97, 74
1, 276504, Note_off_c, 0, 95, 63
1, 276542, Control_c, 0, 64, 44
1, 276557, Control_c, 0, 64, 44
1, 276572, Control_c, 0, 64, 38
1, 276579, Note_on_c, 0, 95, 63
1, 276587, Note_off_c, 0, 97, 65
1, 276587, Control_c, 0, 64, 36
1, 276602, Control_c, 0, 64, 39
1, 276616, Control_c, 0, 64, 43
1, 276631, Control_c, 0, 64, 43
1, 276646, Control_c, 0, 64, 40
1, 276661, Control_c, 0, 64, 38
1, 276667, Note_on_c, 0, 94, 67
1, 276676, Control_c, 0, 64, 37
1, 276684, Note_off_c, 0, 95, 64
1, 276690, Control_c, 0, 64, 38
1, 276705, Control_c, 0, 64, 38
1, 276713, Note_off_c, 0, 85, 64
1, 276733, Note_on_c, 0, 92, 82
1, 276735, Control_c, 0, 64, 37
1, 276739, Note_on_c, 0, 83, 70
1, 276743, Note_off_c, 0, 94, 59
1, 276749, Control_c, 0, 64, 36
1, 276772, Note_off_c, 0, 92, 67
1, 276779, Control_c, 0, 64, 36
1, 276794, Control_c, 0, 64, 34
1, 276797, Note_off_c, 0, 83, 64
1, 276809, Control_c, 0, 64, 0
1, 276811, Note_on_c, 0, 90, 75
1, 276819, Note_on_c, 0, 82, 71
1, 276842, Note_off_c, 0, 90, 65
1, 276853, Note_off_c, 0, 82, 64
1, 276891, Note_on_c, 0, 83, 73
1, 276895, Note_on_c, 0, 87, 74
1, 276940, Note_off_c, 0, 83, 61
1, 276968, Note_on_c, 0, 82, 67
1, 276976, Note_on_c, 0, 85, 83
1, 276988, Note_off_c, 0, 87, 63
1, 277027, Note_off_c, 0, 85, 64
1, 277031, Note_off_c, 0, 82, 62
1, 277040, Note_on_c, 0, 80, 66
1, 277055, Note_on_c, 0, 83, 73
1, 277108, Note_off_c, 0, 83, 63
1, 277136, Note_on_c, 0, 78, 60
1, 277137, Note_on_c, 0, 82, 75
1, 277156, Note_off_c, 0, 80, 61
1, 277188, Note_off_c, 0, 78, 63
1, 277196, Poly_aftertouch_c, 0, 80, 0
1, 277202, Note_on_c, 0, 80, 73
1, 277212, Note_off_c, 0, 82, 61
1, 277242, Note_off_c, 0, 80, 63
1, 277276, Note_on_c, 0, 78, 65
1, 277289, Note_on_c, 0, 82, 72
1, 277289, Note_on_c, 0, 85, 64
1, 277292, Control_c, 0, 64, 61
1, 277304, Note_off_c, 0, 78, 66
1, 277307, Control_c, 0, 64, 71
1, 277321, Control_c, 0, 64, 73
1, 277325, Note_off_c, 0, 85, 59
1, 277339, Note_off_c, 0, 82, 62
1, 277356, Note_on_c, 0, 71, 58
1, 277361, Note_on_c, 0, 75, 76
1, 277400, Note_off_c, 0, 75, 60
1, 277437, Note_off_c, 0, 71, 63
1, 277439, Note_on_c, 0, 73, 79
1, 277441, Note_on_c, 0, 70, 66
1, 277468, Note_off_c, 0, 70, 69
1, 277493, Note_off_c, 0, 73, 63
1, 277499, Control_c, 0, 64, 74
1, 277511, Note_on_c, 0, 71, 71
1, 277513, Control_c, 0, 64, 74
1, 277517, Note_on_c, 0, 68, 77
1, 277528, Control_c, 0, 64, 75
1, 277543, Control_c, 0, 64, 76
1, 277543, Control_c, 0, 67, 124
1, 277558, Control_c, 0, 64, 77
1, 277558, Control_c, 0, 67, 116
1, 277570, Note_off_c, 0, 68, 62
1, 277572, Control_c, 0, 64, 78
1, 277572, Control_c, 0, 67, 102
1, 277584, Note_on_c, 0, 70, 80
1, 277584, Note_off_c, 0, 71, 64
1, 277587, Control_c, 0, 64, 79
1, 277587, Control_c, 0, 67, 90
1, 277602, Control_c, 0, 64, 82
1, 277602, Control_c, 0, 67, 84
1, 277608, Note_on_c, 0, 66, 63
1, 277617, Control_c, 0, 64, 85
1, 277617, Control_c, 0, 67, 82
1, 277627, Note_off_c, 0, 66, 65
1, 277632, Control_c, 0, 64, 91
1, 277632, Control_c, 0, 67, 77
1, 277647, Control_c, 0, 64, 106
1, 277647, Control_c, 0, 67, 61
1, 277653, Note_off_c, 0, 70, 62
1, 277661, Control_c, 0, 64, 127
1, 277661, Control_c, 0, 67, 37
1, 277664, Note_on_c, 0, 68, 87
1, 277676, Control_c, 0, 67, 0
1, 277697, Note_off_c, 0, 68, 64
1, 277727, Poly_aftertouch_c, 0, 61, 0
1, 277736, Control_c, 0, 64, 73
1, 277739, Note_on_c, 0, 69, 83
1, 277746, Note_on_c, 0, 45, 85
1, 277747, Note_on_c, 0, 57, 83
1, 277751, Control_c, 0, 64, 0
1, 277767, Note_off_c, 0, 57, 71
1, 277771, Note_off_c, 0, 45, 67
1, 277792, Note_off_c, 0, 69, 57
1, 277822, Note_on_c, 0, 71, 77
1, 277893, Note_off_c, 0, 71, 61
1, 277903, Note_on_c, 0, 61, 82
1, 277912, Note_on_c, 0, 49, 63
1, 277918, Note_on_c, 0, 73, 76
1, 277926, Note_off_c, 0, 61, 69
1, 277937, Note_off_c, 0, 49, 61
1, 277951, Note_off_c, 0, 73, 63
1, 277985, Note_on_c, 0, 74, 72
1, 278021, Note_off_c, 0, 74, 63
1, 278052, Note_on_c, 0, 64, 81
1, 278058, Note_on_c, 0, 52, 80
1, 278059, Note_on_c, 0, 75, 77
1, 278073, Note_off_c, 0, 64, 70
1, 278082, Note_off_c, 0, 52, 69
1, 278109, Note_off_c, 0, 75, 63
1, 278138, Note_on_c, 0, 76, 76
1, 278177, Note_off_c, 0, 76, 62
1, 278215, Note_on_c, 0, 65, 94
1, 278218, Note_on_c, 0, 53, 84
1, 278223, Note_on_c, 0, 77, 75
1, 278233, Note_off_c, 0, 65, 74
1, 278239, Note_off_c, 0, 53, 70
1, 278299, Note_off_c, 0, 77, 64
1, 278300, Note_on_c, 0, 76, 75
1, 278386, Note_on_c, 0, 62, 99
1, 278388, Note_off_c, 0, 76, 63
1, 278389, Note_on_c, 0, 50, 94
1, 278390, Note_on_c, 0, 74, 76
1, 278395, Control_c, 0, 67, 24
1, 278411, Control_c, 0, 64, 43
1, 278411, Control_c, 0, 67, 0
1, 278426, Control_c, 0, 64, 85
1, 278441, Control_c, 0, 64, 106
1, 278450, Note_off_c, 0, 74, 61
1, 278467, Note_on_c, 0, 72, 67
1, 278485, Control_c, 0, 64, 111
1, 278500, Control_c, 0, 64, 127
1, 278509, Note_off_c, 0, 50, 61
1, 278509, Note_off_c, 0, 72, 61
1, 278535, Note_on_c, 0, 70, 74
1, 278541, Note_off_c, 0, 62, 64
1, 278558, Note_off_c, 0, 70, 71
1, 278559, Control_c, 0, 64, 71
1, 278574, Control_c, 0, 64, 0
1, 278708, Note_on_c, 0, 67, 83
1, 278714, Note_on_c, 0, 55, 78
1, 278719, Note_on_c, 0, 83, 77
1, 278727, Note_off_c, 0, 67, 72
1, 278736, Note_off_c, 0, 55, 69
1, 278749, Note_off_c, 0, 83, 59
1, 278793, Note_on_c, 0, 85, 71
1, 278847, Note_off_c, 0, 85, 65
1, 278879, Control_c, 0, 67, 25
1, 278883, Note_on_c, 0, 64, 101
1, 278888, Note_on_c, 0, 52, 94
1, 278892, Note_on_c, 0, 86, 75
1, 278893, Control_c, 0, 67, 32
1, 278908, Control_c, 0, 64, 63
1, 278908, Control_c, 0, 67, 26
1, 278923, Control_c, 0, 64, 127
1, 278923, Control_c, 0, 67, 23
1, 278937, Control_c, 0, 67, 19
1, 278950, Note_off_c, 0, 86, 60
1, 278952, Control_c, 0, 67, 0
1, 278966, Note_on_c, 0, 88, 79
1, 278982, Control_c, 0, 67, 22
1, 278997, Control_c, 0, 67, 19
1, 279012, Control_c, 0, 67, 0
1, 279018, Note_off_c, 0, 52, 58
1, 279036, Note_off_c, 0, 88, 64
1, 279040, Note_off_c, 0, 64, 62
1, 279045, Note_on_c, 0, 89, 79
1, 279057, Control_c, 0, 64, 113
1, 279071, Control_c, 0, 64, 65
1, 279086, Control_c, 0, 64, 0
1, 279099, Note_off_c, 0, 89, 64
1, 279123, Note_on_c, 0, 91, 76
1, 279191, Note_off_c, 0, 91, 57
1, 279209, Note_on_c, 0, 68, 91
1, 279212, Note_on_c, 0, 92, 77
1, 279215, Note_on_c, 0, 56, 77
1, 279226, Note_off_c, 0, 68, 73
1, 279233, Control_c, 0, 67, 19
1, 279238, Note_off_c, 0, 56, 68
1, 279248, Control_c, 0, 67, 0
1, 279262, Note_off_c, 0, 92, 66
1, 279291, Note_on_c, 0, 91, 69
1, 279386, Note_on_c, 0, 65, 106
1, 279392, Note_on_c, 0, 53, 97
1, 279393, Note_on_c, 0, 89, 77
1, 279404, Control_c, 0, 64, 57
1, 279417, Note_off_c, 0, 91, 63
1, 279418, Control_c, 0, 64, 127
1, 279468, Note_on_c, 0, 87, 82
1, 279472, Note_off_c, 0, 89, 64
1, 279507, Note_off_c, 0, 65, 59
1, 279525, Note_off_c, 0, 87, 65
1, 279538, Control_c, 0, 64, 81
1, 279552, Note_on_c, 0, 86, 80
1, 279553, Control_c, 0, 64, 36
1, 279554, Note_off_c, 0, 53, 64
1, 279567, Control_c, 0, 64, 0
1, 279582, Control_c, 0, 67, 21
1, 279602, Note_off_c, 0, 86, 64
1, 279612, Control_c, 0, 67, 0
1, 279707, Note_on_c, 0, 57, 93
1, 279712, Note_on_c, 0, 45, 80
1, 279720, Note_on_c, 0, 94, 91
1, 279727, Note_on_c, 0, 82, 92
1, 279727, Note_off_c, 0, 57, 70
1, 279730, Control_c, 0, 64, 63
1, 279736, Note_off_c, 0, 45, 67
1, 279745, Control_c, 0, 64, 127
1, 279760, Control_c, 0, 67, 19
1, 279778, Note_off_c, 0, 82, 61
1, 279800, Note_on_c, 0, 91, 73
1, 279808, Note_off_c, 0, 94, 55
1, 279814, Poly_aftertouch_c, 0, 43, 0
1, 279820, Control_c, 0, 64, 70
1, 279820, Control_c, 0, 67, 0
1, 279835, Control_c, 0, 64, 0
1, 279849, Control_c, 0, 67, 22
1, 279864, Control_c, 0, 67, 25
1, 279877, Note_on_c, 0, 88, 72
1, 279878, Note_on_c, 0, 64, 62
1, 279881, Note_on_c, 0, 52, 66
1, 279884, Note_off_c, 0, 91, 61
1, 279903, Note_off_c, 0, 64, 68
1, 279906, Note_off_c, 0, 52, 65
1, 279908, Control_c, 0, 67, 23
1, 279927, Note_off_c, 0, 88, 63
1, 279953, Control_c, 0, 67, 25
1, 279997, Control_c, 0, 67, 22
1, 280027, Control_c, 0, 67, 25
1, 280033, Note_on_c, 0, 55, 67
1, 280034, Note_on_c, 0, 67, 72
1, 280055, Note_on_c, 0, 79, 57
1, 280057, Note_off_c, 0, 67, 70
1, 280061, Note_off_c, 0, 55, 66
1, 280063, Note_on_c, 0, 77, 50
1, 280100, Note_off_c, 0, 77, 57
1, 280115, Note_off_c, 0, 79, 63
1, 280136, Note_on_c, 0, 76, 64
1, 280153, Control_c, 0, 67, 28
1, 280167, Control_c, 0, 67, 31
1, 280174, Note_off_c, 0, 76, 58
1, 280182, Control_c, 0, 67, 36
1, 280187, Note_on_c, 0, 68, 91
1, 280195, Note_on_c, 0, 56, 82
1, 280197, Control_c, 0, 67, 37
1, 280200, Note_on_c, 0, 69, 65
1, 280207, Note_off_c, 0, 68, 70
1, 280218, Note_off_c, 0, 56, 67
1, 280227, Note_off_c, 0, 69, 67
1, 280227, Control_c, 0, 67, 36
1, 280271, Control_c, 0, 67, 37
1, 280282, Note_on_c, 0, 77, 65
1, 280285, Control_c, 0, 67, 36
1, 280300, Control_c, 0, 67, 34
1, 280316, Control_c, 0, 67, 33
1, 280321, Note_off_c, 0, 77, 64
1, 280337, Note_on_c, 0, 65, 94
1, 280342, Note_on_c, 0, 53, 86
1, 280361, Control_c, 0, 64, 75
1, 280361, Control_c, 0, 67, 34
1, 280368, Note_on_c, 0, 80, 68
1, 280376, Control_c, 0, 64, 127
1, 280376, Control_c, 0, 67, 33
1, 280386, Note_off_c, 0, 80, 68
1, 280390, Control_c, 0, 67, 32
1, 280434, Note_on_c, 0, 79, 75
1, 280435, Control_c, 0, 67, 32
1, 280437, Note_on_c, 0, 81, 79
1, 280450, Control_c, 0, 67, 32
1, 280464, Control_c, 0, 64, 92
1, 280466, Note_off_c, 0, 65, 61
1, 280479, Control_c, 0, 64, 51
1, 280490, Note_off_c, 0, 79, 64
1, 280490, Note_off_c, 0, 81, 64
1, 280494, Control_c, 0, 64, 0
1, 280494, Control_c, 0, 67, 30
1, 280497, Note_off_c, 0, 53, 63
1, 280498, Note_on_c, 0, 93, 98
1, 280508, Control_c, 0, 67, 32
1, 280523, Control_c, 0, 67, 35
1, 280527, Note_off_c, 0, 93, 66
1, 280538, Control_c, 0, 67, 37
1, 280568, Control_c, 0, 67, 36
1, 280583, Control_c, 0, 67, 36
1, 280613, Control_c, 0, 67, 37
1, 280627, Control_c, 0, 67, 38
1, 280657, Control_c, 0, 67, 37
1, 280663, Note_on_c, 0, 57, 93
1, 280665, Note_on_c, 0, 45, 92
1, 280669, Note_on_c, 0, 94, 105
1, 280672, Control_c, 0, 67, 37
1, 280676, Note_on_c, 0, 82, 97
1, 280687, Control_c, 0, 64, 78
1, 280687, Control_c, 0, 67, 37
1, 280690, Note_off_c, 0, 57, 66
1, 280691, Note_off_c, 0, 45, 70
1, 280702, Control_c, 0, 64, 127
1, 280702, Control_c, 0, 67, 40
1, 280716, Control_c, 0, 67, 45
1, 280730, Note_off_c, 0, 82, 61
1, 280731, Control_c, 0, 67, 51
1, 280744, Note_on_c, 0, 91, 64
1, 280746, Control_c, 0, 67, 52
1, 280761, Control_c, 0, 67, 50
1, 280762, Note_on_c, 0, 92, 57
1, 280776, Control_c, 0, 67, 49
1, 280786, Note_off_c, 0, 92, 50
1, 280790, Control_c, 0, 64, 111
1, 280790, Control_c, 0, 67, 48
1, 280805, Control_c, 0, 64, 64
1, 280805, Control_c, 0, 67, 51
1, 280806, Note_off_c, 0, 94, 51
1, 280820, Control_c, 0, 64, 0
1, 280820, Control_c, 0, 67, 54
1, 280822, Note_on_c, 0, 64, 87
1, 280822, Note_on_c, 0, 88, 76
1, 280825, Note_on_c, 0, 52, 74
1, 280829, Note_off_c, 0, 91, 65
1, 280842, Control_c, 0, 67, 55
1, 280857, Control_c, 0, 67, 54
1, 280860, Note_off_c, 0, 64, 62
1, 280865, Note_off_c, 0, 52, 67
1, 280872, Note_off_c, 0, 88, 64
1, 280872, Control_c, 0, 67, 53
1, 280887, Control_c, 0, 67, 52
1, 280905, Note_on_c, 0, 82, 66
1, 280916, Control_c, 0, 67, 53
1, 280923, Note_off_c, 0, 82, 67
1, 280931, Control_c, 0, 67, 54
1, 280961, Control_c, 0, 67, 51
1, 280976, Control_c, 0, 67, 49
1, 280982, Note_on_c, 0, 55, 73
1, 280984, Note_on_c, 0, 67, 76
1, 280984, Note_on_c, 0, 79, 79
1, 280990, Control_c, 0, 67, 48
1, 281003, Note_off_c, 0, 67, 72
1, 281005, Control_c, 0, 67, 52
1, 281006, Note_off_c, 0, 55, 68
1, 281020, Control_c, 0, 67, 57
1, 281034, Control_c, 0, 67, 62
1, 281049, Control_c, 0, 67, 67
1, 281059, Note_off_c, 0, 79, 61
1, 281063, Note_on_c, 0, 76, 77
1, 281064, Control_c, 0, 67, 66
1, 281079, Control_c, 0, 67, 64
1, 281094, Control_c, 0, 67, 64
1, 281098, Note_off_c, 0, 76, 65
1, 281110, Control_c, 0, 67, 66
1, 281125, Control_c, 0, 67, 71
1, 281134, Note_on_c, 0, 68, 90
1, 281139, Control_c, 0, 67, 75
1, 281145, Note_on_c, 0, 56, 68
1, 281150, Note_off_c, 0, 68, 73
1, 281151, Note_on_c, 0, 69, 42
1, 281164, Note_on_c, 0, 71, 39
1, 281164, Note_off_c, 0, 56, 64
1, 281169, Control_c, 0, 67, 73
1, 281177, Note_off_c, 0, 69, 52
1, 281184, Control_c, 0, 67, 72
1, 281195, Note_off_c, 0, 71, 53
1, 281213, Control_c, 0, 67, 74
1, 281221, Note_on_c, 0, 77, 62
1, 281228, Control_c, 0, 67, 75
1, 281243, Control_c, 0, 67, 72
1, 281258, Control_c, 0, 67, 69
1, 281269, Note_off_c, 0, 77, 64
1, 281273, Control_c, 0, 67, 66
1, 281294, Note_on_c, 0, 65, 97
1, 281299, Note_on_c, 0, 53, 84
1, 281302, Control_c, 0, 67, 69
1, 281304, Note_on_c, 0, 80, 72
1, 281317, Control_c, 0, 64, 78
1, 281317, Control_c, 0, 67, 72
1, 281331, Control_c, 0, 64, 95
1, 281331, Control_c, 0, 67, 72
1, 281346, Control_c, 0, 64, 96
1, 281346, Control_c, 0, 67, 71
1, 281352, Note_off_c, 0, 80, 59
1, 281361, Control_c, 0, 64, 95
1, 281361, Control_c, 0, 67, 68
1, 281364, Note_on_c, 0, 81, 86
1, 281376, Control_c, 0, 64, 94
1, 281376, Control_c, 0, 67, 64
1, 281391, Control_c, 0, 67, 62
1, 281421, Control_c, 0, 64, 95
1, 281421, Control_c, 0, 67, 63
1, 281429, Note_off_c, 0, 81, 62
1, 281430, Note_off_c, 0, 53, 61
1, 281436, Control_c, 0, 64, 96
1, 281436, Control_c, 0, 67, 61
1, 281438, Note_on_c, 0, 82, 84
1, 281444, Note_off_c, 0, 65, 62
1, 281451, Control_c, 0, 64, 100
1, 281451, Control_c, 0, 67, 56
1, 281465, Control_c, 0, 64, 106
1, 281465, Control_c, 0, 67, 43
1, 281480, Control_c, 0, 67, 21
1, 281492, Note_off_c, 0, 82, 63
1, 281495, Control_c, 0, 64, 92
1, 281495, Control_c, 0, 67, 0
1, 281510, Control_c, 0, 64, 67
1, 281516, Note_on_c, 0, 84, 84
1, 281525, Control_c, 0, 64, 0
1, 281588, Note_on_c, 0, 69, 87
1, 281593, Note_on_c, 0, 57, 86
1, 281595, Note_off_c, 0, 84, 63
1, 281597, Note_on_c, 0, 86, 89
1, 281607, Note_off_c, 0, 69, 71
1, 281614, Note_off_c, 0, 57, 71
1, 281677, Note_off_c, 0, 86, 62
1, 281681, Note_on_c, 0, 87, 86
1, 281733, Note_off_c, 0, 87, 65
1, 281756, Note_on_c, 0, 88, 80
1, 281760, Note_on_c, 0, 66, 88
1, 281764, Note_on_c, 0, 54, 81
1, 281769, Control_c, 0, 64, 71
1, 281784, Control_c, 0, 64, 119
1, 281790, Note_on_c, 0, 89, 25
1, 281799, Control_c, 0, 64, 127
1, 281819, Note_off_c, 0, 88, 65
1, 281820, Note_off_c, 0, 89, 0
1, 281820, Note_on_c, 0, 89, 41
1, 281865, Note_off_c, 0, 54, 59
1, 281895, Note_off_c, 0, 66, 60
1, 281896, Note_on_c, 0, 91, 96
1, 281899, Note_off_c, 0, 89, 63
1, 281960, Note_off_c, 0, 91, 65
1, 281976, Note_on_c, 0, 93, 85
1, 282037, Control_c, 0, 64, 98
1, 282043, Note_on_c, 0, 70, 105
1, 282049, Note_on_c, 0, 58, 94
1, 282052, Control_c, 0, 64, 56
1, 282052, Control_c, 0, 67, 34
1, 282055, Note_on_c, 0, 94, 100
1, 282062, Note_off_c, 0, 70, 69
1, 282062, Note_off_c, 0, 93, 64
1, 282067, Note_off_c, 0, 58, 72
1, 282067, Control_c, 0, 64, 0
1, 282067, Control_c, 0, 67, 25
1, 282081, Control_c, 0, 67, 0
1, 282127, Note_off_c, 0, 94, 66
1, 282134, Note_on_c, 0, 93, 79
1, 282141, Control_c, 0, 67, 20
1, 282155, Control_c, 0, 67, 0
1, 282225, Note_on_c, 0, 91, 91
1, 282226, Note_on_c, 0, 67, 85
1, 282234, Note_on_c, 0, 55, 73
1, 282252, Note_off_c, 0, 93, 65
1, 282285, Note_on_c, 0, 89, 86
1, 282291, Note_off_c, 0, 91, 65
1, 282303, Control_c, 0, 64, 37
1, 282318, Control_c, 0, 64, 55
1, 282341, Control_c, 0, 64, 58
1, 282347, Note_off_c, 0, 67, 61
1, 282356, Control_c, 0, 64, 0
1, 282362, Note_off_c, 0, 89, 63
1, 282383, Note_on_c, 0, 86, 76
1, 282386, Note_on_c, 0, 88, 76
1, 282392, Note_off_c, 0, 55, 64
1, 282404, Note_off_c, 0, 86, 70
1, 282407, Note_off_c, 0, 88, 71
1, 282535, Note_on_c, 0, 60, 92
1, 282540, Note_on_c, 0, 48, 88
1, 282544, Note_on_c, 0, 95, 97
1, 282547, Note_on_c, 0, 83, 102
1, 282548, Control_c, 0, 64, 51
1, 282557, Note_off_c, 0, 60, 71
1, 282562, Note_off_c, 0, 48, 70
1, 282562, Control_c, 0, 64, 127
1, 282590, Note_off_c, 0, 83, 64
1, 282619, Note_on_c, 0, 93, 81
1, 282622, Note_off_c, 0, 95, 65
1, 282692, Note_on_c, 0, 90, 78
1, 282697, Note_on_c, 0, 66, 79
1, 282697, Note_off_c, 0, 93, 65
1, 282702, Note_on_c, 0, 54, 68
1, 282711, Control_c, 0, 64, 81
1, 282719, Note_off_c, 0, 66, 69
1, 282722, Note_off_c, 0, 54, 65
1, 282726, Control_c, 0, 64, 0
1, 282738, Note_off_c, 0, 90, 64
1, 282764, Note_on_c, 0, 83, 70
1, 282793, Note_off_c, 0, 83, 67
1, 282833, Note_on_c, 0, 81, 85
1, 282845, Note_on_c, 0, 57, 80
1, 282852, Note_on_c, 0, 69, 73
1, 282869, Note_off_c, 0, 57, 69
1, 282873, Note_off_c, 0, 69, 70
1, 282903, Note_off_c, 0, 81, 62
1, 282921, Note_on_c, 0, 78, 80
1, 282966, Note_off_c, 0, 78, 65
1, 283000, Note_on_c, 0, 70, 78
1, 283000, Note_on_c, 0, 59, 68
1, 283019, Note_off_c, 0, 59, 66
1, 283026, Note_off_c, 0, 70, 66
1, 283071, Note_on_c, 0, 76, 72
1, 283128, Note_off_c, 0, 76, 61
1, 283151, Note_on_c, 0, 67, 96
1, 283152, Note_on_c, 0, 79, 61
1, 283159, Note_on_c, 0, 55, 84
1, 283173, Note_off_c, 0, 79, 62
1, 283179, Control_c, 0, 64, 74
1, 283193, Control_c, 0, 64, 101
1, 283208, Control_c, 0, 64, 127
1, 283237, Note_on_c, 0, 82, 82
1, 283253, Note_off_c, 0, 67, 62
1, 283303, Note_on_c, 0, 94, 105
1, 283306, Note_off_c, 0, 55, 63
1, 283308, Note_off_c, 0, 82, 62
1, 283326, Control_c, 0, 64, 71
1, 283335, Note_off_c, 0, 94, 67
1, 283341, Control_c, 0, 64, 0
1, 283465, Note_on_c, 0, 60, 94
1, 283468, Note_on_c, 0, 48, 85
1, 283480, Note_on_c, 0, 83, 106
1, 283481, Note_on_c, 0, 95, 106
1, 283489, Control_c, 0, 67, 25
1, 283490, Note_off_c, 0, 60, 67
1, 283494, Note_off_c, 0, 48, 69
1, 283504, Control_c, 0, 64, 59
1, 283504, Control_c, 0, 67, 0
1, 283520, Control_c, 0, 64, 127
1, 283528, Note_off_c, 0, 83, 64
1, 283556, Note_on_c, 0, 93, 85
1, 283571, Note_off_c, 0, 95, 62
1, 283634, Note_on_c, 0, 54, 81
1, 283634, Note_on_c, 0, 66, 82
1, 283638, Note_on_c, 0, 90, 78
1, 283644, Note_off_c, 0, 93, 65
1, 283653, Note_off_c, 0, 66, 70
1, 283659, Note_off_c, 0, 54, 67
1, 283668, Control_c, 0, 64, 74
1, 283680, Note_off_c, 0, 90, 65
1, 283683, Control_c, 0, 64, 0
1, 283704, Note_on_c, 0, 83, 71
1, 283728, Note_off_c, 0, 83, 70
1, 283778, Note_on_c, 0, 81, 77
1, 283784, Note_on_c, 0, 57, 87
1, 283784, Note_on_c, 0, 69, 85
1, 283804, Note_off_c, 0, 69, 67
1, 283811, Note_off_c, 0, 57, 67
1, 283853, Note_off_c, 0, 81, 64
1, 283868, Note_on_c, 0, 78, 84
1, 283899, Note_off_c, 0, 78, 66
1, 283938, Note_on_c, 0, 58, 89
1, 283950, Note_on_c, 0, 70, 83
1, 283974, Note_off_c, 0, 58, 65
1, 283987, Note_off_c, 0, 70, 66
1, 284024, Note_on_c, 0, 76, 72
1, 284080, Note_off_c, 0, 76, 63
1, 284090, Control_c, 0, 64, 37
1, 284099, Note_on_c, 0, 67, 96
1, 284101, Note_on_c, 0, 79, 60
1, 284103, Note_on_c, 0, 55, 98
1, 284105, Control_c, 0, 64, 83
1, 284120, Control_c, 0, 64, 127
1, 284120, Control_c, 0, 67, 28
1, 284123, Note_off_c, 0, 79, 60
1, 284129, Note_on_c, 0, 80, 14
1, 284129, Note_off_c, 0, 80, 127
1, 284134, Control_c, 0, 67, 0
1, 284181, Note_off_c, 0, 67, 60
1, 284183, Note_on_c, 0, 82, 87
1, 284237, Note_off_c, 0, 55, 64
1, 284255, Note_off_c, 0, 82, 63
1, 284258, Note_on_c, 0, 94, 105
1, 284292, Note_off_c, 0, 94, 66
1, 284295, Note_on_c, 0, 95, 42
1, 284313, Control_c, 0, 64, 68
1, 284326, Note_off_c, 0, 95, 53
1, 284328, Control_c, 0, 64, 0
1, 284434, Note_on_c, 0, 48, 97
1, 284436, Note_on_c, 0, 36, 90
1, 284446, Note_on_c, 0, 95, 99
1, 284448, Note_on_c, 0, 83, 101
1, 284459, Note_off_c, 0, 48, 70
1, 284461, Note_off_c, 0, 36, 70
1, 284461, Control_c, 0, 64, 68
1, 284461, Control_c, 0, 67, 58
1, 284476, Control_c, 0, 64, 119
1, 284476, Control_c, 0, 67, 75
1, 284491, Control_c, 0, 64, 127
1, 284491, Control_c, 0, 67, 63
1, 284493, Note_off_c, 0, 83, 64
1, 284506, Control_c, 0, 67, 51
1, 284521, Control_c, 0, 67, 44
1, 284535, Control_c, 0, 67, 41
1, 284536, Note_on_c, 0, 93, 88
1, 284544, Note_off_c, 0, 95, 65
1, 284550, Control_c, 0, 67, 42
1, 284565, Control_c, 0, 67, 41
1, 284587, Control_c, 0, 67, 41
1, 284602, Control_c, 0, 67, 41
1, 284617, Control_c, 0, 67, 43
1, 284622, Note_on_c, 0, 54, 98
1, 284625, Note_on_c, 0, 42, 87
1, 284631, Control_c, 0, 67, 44
1, 284635, Note_on_c, 0, 90, 94
1, 284647, Note_off_c, 0, 54, 63
1, 284651, Note_off_c, 0, 93, 66
1, 284654, Note_off_c, 0, 42, 68
1, 284661, Control_c, 0, 67, 42
1, 284676, Control_c, 0, 67, 42
1, 284690, Control_c, 0, 67, 39
1, 284691, Note_off_c, 0, 90, 65
1, 284702, Note_on_c, 0, 84, 86
1, 284705, Control_c, 0, 67, 26
1, 284720, Control_c, 0, 67, 0
1, 284780, Control_c, 0, 64, 96
1, 284786, Note_off_c, 0, 84, 61
1, 284795, Control_c, 0, 64, 47
1, 284798, Note_on_c, 0, 57, 90
1, 284800, Note_on_c, 0, 45, 91
1, 284805, Note_on_c, 0, 96, 107
1, 284809, Control_c, 0, 64, 0
1, 284816, Note_off_c, 0, 57, 73
1, 284824, Note_off_c, 0, 45, 69
1, 284858, Note_off_c, 0, 96, 66
1, 285016, Control_c, 0, 67, 47
1, 285029, Note_on_c, 0, 85, 113
1, 285030, Note_on_c, 0, 88, 92
1, 285031, Control_c, 0, 67, 99
1, 285033, Note_on_c, 0, 97, 106
1, 285034, Note_on_c, 0, 46, 101
1, 285034, Note_on_c, 0, 91, 92
1, 285039, Note_on_c, 0, 34, 89
1, 285046, Control_c, 0, 64, 127
1, 285061, Control_c, 0, 67, 89
1, 285064, Note_off_c, 0, 34, 68
1, 285065, Note_off_c, 0, 46, 61
1, 285066, Note_on_c, 0, 94, 47
1, 285075, Control_c, 0, 67, 83
1, 285095, Note_off_c, 0, 85, 63
1, 285098, Note_off_c, 0, 94, 54
1, 285106, Control_c, 0, 67, 86
1, 285109, Note_off_c, 0, 88, 62
1, 285112, Note_off_c, 0, 97, 66
1, 285114, Note_off_c, 0, 91, 64
1, 285121, Control_c, 0, 67, 85
1, 285136, Control_c, 0, 67, 81
1, 285151, Control_c, 0, 67, 76
1, 285166, Control_c, 0, 67, 71
1, 285195, Control_c, 0, 67, 72
1, 285210, Control_c, 0, 67, 71
1, 285224, Control_c, 0, 67, 64
1, 285239, Note_on_c, 0, 49, 89
1, 285239, Control_c, 0, 67, 43
1, 285242, Note_on_c, 0, 37, 78
1, 285254, Note_on_c, 0, 98, 84
1, 285254, Control_c, 0, 67, 0
1, 285255, Note_on_c, 0, 96, 81
1, 285278, Note_off_c, 0, 37, 62
1, 285283, Note_off_c, 0, 49, 58
1, 285296, Note_off_c, 0, 98, 65
1, 285312, Note_on_c, 0, 95, 84
1, 285357, Note_off_c, 0, 96, 65
1, 285395, Note_on_c, 0, 94, 90
1, 285400, Note_on_c, 0, 38, 79
1, 285402, Note_on_c, 0, 50, 81
1, 285432, Note_off_c, 0, 95, 63
1, 285438, Note_off_c, 0, 50, 60
1, 285444, Note_off_c, 0, 38, 64
1, 285460, Note_on_c, 0, 92, 94
1, 285499, Control_c, 0, 64, 65
1, 285501, Note_off_c, 0, 94, 65
1, 285503, Note_off_c, 0, 92, 67
1, 285513, Control_c, 0, 64, 0
1, 285549, Note_on_c, 0, 51, 99
1, 285552, Note_on_c, 0, 39, 88
1, 285555, Note_on_c, 0, 93, 99
1, 285557, Note_on_c, 0, 81, 106
1, 285558, Control_c, 0, 64, 56
1, 285558, Control_c, 0, 67, 69
1, 285559, Note_on_c, 0, 90, 94
1, 285560, Note_on_c, 0, 87, 102
1, 285572, Note_off_c, 0, 51, 68
1, 285573, Control_c, 0, 64, 127
1, 285573, Control_c, 0, 67, 109
1, 285579, Note_off_c, 0, 39, 64
1, 285586, Note_off_c, 0, 81, 63
1, 285588, Control_c, 0, 67, 102
1, 285603, Control_c, 0, 67, 92
1, 285617, Control_c, 0, 67, 77
1, 285626, Note_off_c, 0, 87, 62
1, 285626, Note_off_c, 0, 90, 36
1, 285632, Control_c, 0, 67, 64
1, 285647, Control_c, 0, 67, 63
1, 285662, Control_c, 0, 67, 66
1, 285665, Note_off_c, 0, 93, 61
1, 285677, Control_c, 0, 67, 65
1, 285692, Control_c, 0, 67, 63
1, 285706, Control_c, 0, 67, 61
1, 285721, Control_c, 0, 67, 58
1, 285733, Note_on_c, 0, 54, 89
1, 285735, Note_on_c, 0, 42, 76
1, 285736, Control_c, 0, 67, 52
1, 285737, Note_on_c, 0, 92, 87
1, 285751, Control_c, 0, 67, 39
1, 285766, Control_c, 0, 67, 0
1, 285768, Note_off_c, 0, 42, 67
1, 285780, Note_off_c, 0, 54, 59
1, 285799, Note_on_c, 0, 93, 51
1, 285805, Note_on_c, 0, 91, 95
1, 285809, Note_off_c, 0, 92, 64
1, 285820, Note_off_c, 0, 93, 63
1, 285866, Note_off_c, 0, 91, 65
1, 285883, Note_on_c, 0, 55, 87
1, 285883, Note_on_c, 0, 43, 82
1, 285883, Note_on_c, 0, 88, 97
1, 285922, Note_off_c, 0, 43, 63
1, 285923, Note_off_c, 0, 55, 62
1, 285930, Note_off_c, 0, 88, 68
1, 285957, Note_on_c, 0, 89, 90
1, 285989, Control_c, 0, 64, 77
1, 285998, Note_off_c, 0, 89, 62
1, 286003, Control_c, 0, 64, 0
1, 286018, Control_c, 0, 67, 58
1, 286033, Note_on_c, 0, 56, 97
1, 286033, Control_c, 0, 67, 107
1, 286038, Note_on_c, 0, 86, 93
1, 286038, Note_on_c, 0, 44, 85
1, 286038, Note_on_c, 0, 90, 94
1, 286040, Note_on_c, 0, 78, 94
1, 286044, Note_on_c, 0, 83, 94
1, 286047, Control_c, 0, 64, 58
1, 286047, Control_c, 0, 67, 109
1, 286062, Note_off_c, 0, 56, 59
1, 286062, Control_c, 0, 64, 75
1, 286062, Control_c, 0, 67, 106
1, 286064, Note_off_c, 0, 44, 69
1, 286085, Control_c, 0, 64, 104
1, 286100, Control_c, 0, 64, 127
1, 286115, Control_c, 0, 67, 108
1, 286122, Note_off_c, 0, 78, 64
1, 286140, Note_off_c, 0, 83, 58
1, 286159, Control_c, 0, 67, 104
1, 286162, Note_off_c, 0, 86, 60
1, 286162, Note_off_c, 0, 90, 63
1, 286174, Control_c, 0, 67, 101
1, 286189, Control_c, 0, 67, 93
1, 286203, Control_c, 0, 67, 85
1, 286212, Note_on_c, 0, 59, 84
1, 286218, Note_on_c, 0, 47, 79
1, 286218, Control_c, 0, 67, 73
1, 286222, Note_on_c, 0, 88, 91
1, 286233, Control_c, 0, 67, 53
1, 286241, Note_off_c, 0, 59, 63
1, 286248, Control_c, 0, 67, 22
1, 286249, Note_off_c, 0, 47, 65
1, 286262, Control_c, 0, 67, 0
1, 286297, Note_on_c, 0, 86, 89
1, 286322, Note_off_c, 0, 88, 65
1, 286361, Note_off_c, 0, 86, 64
1, 286366, Note_on_c, 0, 48, 80
1, 286370, Note_on_c, 0, 60, 80
1, 286377, Note_on_c, 0, 83, 86
1, 286410, Note_on_c, 0, 84, 37
1, 286410, Note_off_c, 0, 84, 127
1, 286410, Note_off_c, 0, 60, 63
1, 286412, Note_off_c, 0, 48, 61
1, 286421, Note_off_c, 0, 83, 69
1, 286451, Poly_aftertouch_c, 0, 84, 127
1, 286461, Poly_aftertouch_c, 0, 84, 0
1, 286470, Control_c, 0, 64, 65
1, 286485, Control_c, 0, 64, 0
1, 286509, Note_on_c, 0, 80, 96
1, 286514, Note_on_c, 0, 61, 96
1, 286515, Control_c, 0, 67, 72
1, 286516, Note_on_c, 0, 49, 87
1, 286516, Note_on_c, 0, 73, 96
1, 286517, Note_on_c, 0, 85, 97
1, 286528, Note_on_c, 0, 77, 63
1, 286529, Control_c, 0, 64, 66
1, 286529, Control_c, 0, 67, 99
1, 286539, Note_on_c, 0, 76, 57
1, 286542, Note_off_c, 0, 49, 66
1, 286542, Note_off_c, 0, 61, 62
1, 286544, Control_c, 0, 64, 127
1, 286544, Control_c, 0, 67, 94
1, 286559, Control_c, 0, 67, 91
1, 286565, Note_off_c, 0, 76, 53
1, 286573, Control_c, 0, 67, 90
1, 286583, Note_off_c, 0, 73, 61
1, 286603, Control_c, 0, 67, 92
1, 286606, Note_off_c, 0, 77, 60
1, 286618, Note_off_c, 0, 80, 60
1, 286620, Note_off_c, 0, 85, 65
1, 286633, Control_c, 0, 67, 90
1, 286648, Control_c, 0, 67, 87
1, 286663, Control_c, 0, 67, 83
1, 286678, Control_c, 0, 67, 74
1, 286688, Note_on_c, 0, 63, 92
1, 286688, Note_on_c, 0, 84, 93
1, 286689, Note_on_c, 0, 51, 79
1, 286693, Control_c, 0, 67, 57
1, 286709, Control_c, 0, 67, 31
1, 286723, Control_c, 0, 67, 0
1, 286734, Note_off_c, 0, 51, 56
1, 286736, Note_off_c, 0, 63, 62
1, 286759, Note_on_c, 0, 83, 92
1, 286786, Note_off_c, 0, 84, 64
1, 286849, Note_on_c, 0, 53, 87
1, 286849, Note_on_c, 0, 65, 91
1, 286849, Note_on_c, 0, 80, 101
1, 286856, Note_off_c, 0, 83, 63
1, 286878, Control_c, 0, 64, 106
1, 286890, Note_off_c, 0, 65, 62
1, 286891, Note_off_c, 0, 53, 62
1, 286893, Control_c, 0, 64, 60
1, 286908, Control_c, 0, 64, 0
1, 286909, Note_off_c, 0, 80, 64
1, 286920, Note_on_c, 0, 81, 88
1, 286973, Note_off_c, 0, 81, 65
1, 286998, Control_c, 0, 64, 47
1, 287004, Note_on_c, 0, 82, 101
1, 287012, Control_c, 0, 64, 127
1, 287012, Control_c, 0, 67, 64
1, 287016, Note_on_c, 0, 66, 100
1, 287017, Note_on_c, 0, 54, 87
1, 287027, Control_c, 0, 67, 83
1, 287030, Note_off_c, 0, 82, 70
1, 287042, Control_c, 0, 67, 67
1, 287043, Note_off_c, 0, 54, 65
1, 287047, Note_off_c, 0, 66, 60
1, 287057, Control_c, 0, 67, 44
1, 287072, Control_c, 0, 67, 0
1, 287215, Note_on_c, 0, 54, 85
1, 287215, Note_on_c, 0, 66, 93
1, 287236, Note_off_c, 0, 66, 69
1, 287255, Note_on_c, 0, 65, 51
1, 287260, Note_off_c, 0, 54, 63
1, 287279, Note_off_c, 0, 65, 60
1, 287287, Note_on_c, 0, 46, 84
1, 287332, Note_off_c, 0, 46, 63
1, 287387, Note_on_c, 0, 55, 48
1, 287414, Note_off_c, 0, 55, 53
1, 287447, Poly_aftertouch_c, 0, 59, 127
1, 287454, Note_on_c, 0, 58, 56
1, 287471, Control_c, 0, 64, 117
1, 287477, Poly_aftertouch_c, 0, 59, 0
1, 287485, Control_c, 0, 64, 63
1, 287501, Control_c, 0, 64, 0
1, 287519, Note_off_c, 0, 58, 64
1, 287538, Note_on_c, 0, 66, 76
1, 287540, Note_on_c, 0, 48, 92
1, 287540, Note_on_c, 0, 70, 79
1, 287546, Note_on_c, 0, 36, 88
1, 287564, Note_on_c, 0, 68, 50
1, 287567, Note_off_c, 0, 48, 68
1, 287585, Note_off_c, 0, 36, 65
1, 287599, Note_off_c, 0, 68, 52
1, 287601, Note_off_c, 0, 66, 62
1, 287606, Note_off_c, 0, 70, 64
1, 287631, Note_on_c, 0, 58, 80
1, 287683, Note_off_c, 0, 58, 64
1, 287706, Note_on_c, 0, 48, 100
1, 287708, Note_on_c, 0, 36, 91
1, 287708, Note_on_c, 0, 66, 74
1, 287716, Control_c, 0, 67, 20
1, 287723, Note_on_c, 0, 70, 76
1, 287728, Note_off_c, 0, 48, 70
1, 287731, Control_c, 0, 64, 86
1, 287731, Control_c, 0, 67, 89
1, 287731, Note_off_c, 0, 36, 70
1, 287736, Note_off_c, 0, 66, 68
1, 287741, Note_off_c, 0, 70, 65
1, 287746, Control_c, 0, 64, 127
1, 287746, Control_c, 0, 67, 105
1, 287761, Control_c, 0, 67, 92
1, 287775, Control_c, 0, 67, 83
1, 287790, Control_c, 0, 67, 79
1, 287797, Note_on_c, 0, 70, 93
1, 287805, Control_c, 0, 67, 78
1, 287820, Control_c, 0, 67, 79
1, 287834, Control_c, 0, 67, 77
1, 287849, Control_c, 0, 67, 73
1, 287853, Note_off_c, 0, 70, 63
1, 287864, Control_c, 0, 67, 66
1, 287872, Note_on_c, 0, 78, 82
1, 287879, Control_c, 0, 67, 61
1, 287880, Note_on_c, 0, 82, 87
1, 287894, Control_c, 0, 67, 59
1, 287897, Note_on_c, 0, 80, 56
1, 287908, Control_c, 0, 67, 58
1, 287910, Note_off_c, 0, 78, 61
1, 287918, Note_off_c, 0, 82, 63
1, 287919, Note_off_c, 0, 80, 61
1, 287923, Control_c, 0, 67, 55
1, 287938, Control_c, 0, 67, 48
1, 287953, Control_c, 0, 67, 33
1, 287961, Note_on_c, 0, 82, 79
1, 287968, Control_c, 0, 67, 0
1, 288023, Note_off_c, 0, 82, 61
1, 288035, Note_on_c, 0, 90, 101
1, 288036, Note_on_c, 0, 94, 106
1, 288043, Note_on_c, 0, 66, 102
1, 288043, Note_on_c, 0, 92, 85
1, 288047, Note_on_c, 0, 54, 95
1, 288057, Note_off_c, 0, 90, 66
1, 288062, Note_off_c, 0, 92, 72
1, 288071, Note_off_c, 0, 94, 62
1, 288075, Note_off_c, 0, 54, 62
1, 288080, Note_off_c, 0, 66, 63
1, 288233, Control_c, 0, 64, 81
1, 288248, Control_c, 0, 64, 64
1, 288248, Control_c, 0, 67, 86
1, 288252, Note_on_c, 0, 54, 94
1, 288252, Note_on_c, 0, 66, 95
1, 288263, Control_c, 0, 64, 70
1, 288263, Control_c, 0, 67, 127
1, 288273, Note_off_c, 0, 66, 66
1, 288278, Control_c, 0, 64, 106
1, 288294, Control_c, 0, 64, 127
1, 288297, Note_off_c, 0, 54, 67
1, 288342, Note_on_c, 0, 46, 83
1, 288344, Note_on_c, 0, 65, 21
1, 288381, Note_off_c, 0, 65, 39
1, 288393, Note_off_c, 0, 46, 63
1, 288434, Control_c, 0, 67, 104
1, 288448, Poly_aftertouch_c, 0, 57, 0
1, 288449, Control_c, 0, 67, 77
1, 288451, Note_on_c, 0, 58, 35
1, 288464, Control_c, 0, 67, 47
1, 288479, Control_c, 0, 67, 0
1, 288482, Note_off_c, 0, 58, 56
1, 288515, Note_on_c, 0, 58, 81
1, 288583, Note_off_c, 0, 58, 62
1, 288583, Control_c, 0, 64, 89
1, 288590, Note_on_c, 0, 70, 92
1, 288593, Note_on_c, 0, 66, 76
1, 288597, Control_c, 0, 64, 0
1, 288605, Note_on_c, 0, 48, 93
1, 288610, Note_on_c, 0, 36, 82
1, 288622, Note_on_c, 0, 38, 71
1, 288629, Note_on_c, 0, 68, 31
1, 288632, Note_off_c, 0, 48, 68
1, 288643, Note_off_c, 0, 36, 66
1, 288647, Note_off_c, 0, 38, 57
1, 288648, Note_off_c, 0, 70, 64
1, 288649, Note_off_c, 0, 66, 62
1, 288661, Note_off_c, 0, 68, 45
1, 288673, Note_on_c, 0, 50, 8
1, 288678, Note_on_c, 0, 58, 87
1, 288707, Note_off_c, 0, 50, 37
1, 288728, Note_off_c, 0, 58, 64
1, 288760, Note_on_c, 0, 66, 81
1, 288760, Control_c, 0, 64, 45
1, 288762, Note_on_c, 0, 48, 100
1, 288767, Note_on_c, 0, 36, 90
1, 288769, Note_on_c, 0, 70, 83
1, 288774, Control_c, 0, 64, 127
1, 288774, Control_c, 0, 67, 50
1, 288786, Note_off_c, 0, 48, 65
1, 288789, Control_c, 0, 67, 73
1, 288791, Note_off_c, 0, 36, 68
1, 288795, Note_off_c, 0, 66, 61
1, 288801, Note_on_c, 0, 68, 14
1, 288804, Control_c, 0, 67, 60
1, 288807, Note_off_c, 0, 70, 66
1, 288819, Control_c, 0, 67, 40
1, 288834, Control_c, 0, 67, 0
1, 288840, Note_off_c, 0, 68, 53
1, 288850, Note_on_c, 0, 70, 93
1, 288909, Note_off_c, 0, 70, 64
1, 288925, Note_on_c, 0, 78, 87
1, 288932, Note_on_c, 0, 82, 86
1, 288946, Note_on_c, 0, 80, 59
1, 288964, Note_off_c, 0, 78, 62
1, 288965, Note_off_c, 0, 80, 65
1, 288967, Note_off_c, 0, 82, 62
1, 289005, Poly_aftertouch_c, 0, 82, 0
1, 289011, Note_on_c, 0, 82, 84
1, 289087, Note_off_c, 0, 82, 63
1, 289102, Note_on_c, 0, 90, 103
1, 289104, Note_on_c, 0, 94, 103
1, 289109, Note_on_c, 0, 92, 92
1, 289114, Note_on_c, 0, 66, 94
1, 289115, Note_on_c, 0, 54, 92
1, 289126, Note_off_c, 0, 92, 73
1, 289129, Note_off_c, 0, 66, 73
1, 289129, Note_off_c, 0, 90, 70
1, 289136, Note_off_c, 0, 94, 64
1, 289144, Note_off_c, 0, 54, 64
1, 289198, Control_c, 0, 67, 19
1, 289213, Control_c, 0, 67, 21
1, 289228, Control_c, 0, 67, 28
1, 289243, Control_c, 0, 67, 47
1, 289258, Control_c, 0, 67, 74
1, 289272, Control_c, 0, 64, 63
1, 289272, Control_c, 0, 67, 110
1, 289287, Control_c, 0, 64, 0
1, 289287, Control_c, 0, 67, 127
1, 289347, Control_c, 0, 64, 40
1, 289362, Control_c, 0, 64, 51
1, 289364, Note_on_c, 0, 37, 68
1, 289369, Note_on_c, 0, 49, 61
1, 289376, Control_c, 0, 64, 59
1, 289391, Control_c, 0, 64, 63
1, 289406, Control_c, 0, 64, 65
1, 289442, Note_off_c, 0, 37, 59
1, 289453, Note_off_c, 0, 49, 62
1, 289460, Note_on_c, 0, 50, 56
1, 289464, Note_on_c, 0, 62, 53
1, 289466, Control_c, 0, 64, 65
1, 289480, Control_c, 0, 64, 66
1, 289493, Note_off_c, 0, 62, 63
1, 289495, Control_c, 0, 64, 66
1, 289499, Note_off_c, 0, 50, 60
1, 289510, Control_c, 0, 64, 67
1, 289540, Control_c, 0, 64, 67
1, 289569, Note_on_c, 0, 51, 72
1, 289569, Control_c, 0, 64, 68
1, 289577, Note_on_c, 0, 39, 55
1, 289584, Control_c, 0, 64, 70
1, 289598, Control_c, 0, 64, 71
1, 289607, Note_off_c, 0, 51, 61
1, 289610, Note_off_c, 0, 39, 63
1, 289641, Note_on_c, 0, 52, 67
1, 289642, Control_c, 0, 64, 71
1, 289644, Note_on_c, 0, 64, 71
1, 289657, Control_c, 0, 64, 72
1, 289662, Note_off_c, 0, 52, 64
1, 289669, Note_off_c, 0, 64, 69
1, 289672, Control_c, 0, 64, 72
1, 289686, Control_c, 0, 64, 73
1, 289701, Control_c, 0, 64, 75
1, 289716, Control_c, 0, 64, 76
1, 289731, Control_c, 0, 64, 78
1, 289733, Note_on_c, 0, 41, 73
1, 289733, Note_on_c, 0, 53, 78
1, 289746, Control_c, 0, 64, 79
1, 289761, Control_c, 0, 64, 80
1, 289767, Note_off_c, 0, 41, 61
1, 289771, Note_off_c, 0, 53, 59
1, 289776, Control_c, 0, 64, 80
1, 289790, Control_c, 0, 64, 82
1, 289801, Note_on_c, 0, 54, 80
1, 289805, Control_c, 0, 64, 84
1, 289824, Note_on_c, 0, 66, 63
1, 289827, Control_c, 0, 64, 87
1, 289841, Note_off_c, 0, 54, 63
1, 289842, Control_c, 0, 64, 89
1, 289844, Note_off_c, 0, 66, 62
1, 289857, Control_c, 0, 64, 91
1, 289871, Control_c, 0, 64, 92
1, 289886, Control_c, 0, 64, 93
1, 289901, Note_on_c, 0, 55, 84
1, 289902, Control_c, 0, 64, 94
1, 289904, Note_on_c, 0, 43, 77
1, 289917, Control_c, 0, 64, 95
1, 289946, Note_off_c, 0, 43, 61
1, 289947, Control_c, 0, 64, 98
1, 289950, Note_off_c, 0, 55, 63
1, 289962, Control_c, 0, 64, 101
1, 289976, Control_c, 0, 64, 106
1, 289979, Note_on_c, 0, 56, 84
1, 289987, Note_on_c, 0, 68, 77
1, 289991, Control_c, 0, 64, 113
1, 290006, Note_off_c, 0, 56, 63
1, 290006, Control_c, 0, 64, 127
1, 290011, Note_off_c, 0, 68, 67
1, 290067, Note_on_c, 0, 57, 91
1, 290068, Note_on_c, 0, 45, 78
1, 290104, Note_on_c, 0, 46, 25
1, 290114, Note_off_c, 0, 45, 61
1, 290115, Note_off_c, 0, 57, 64
1, 290136, Note_on_c, 0, 58, 83
1, 290145, Note_off_c, 0, 46, 54
1, 290150, Note_on_c, 0, 70, 67
1, 290171, Note_off_c, 0, 58, 61
1, 290175, Note_off_c, 0, 70, 69
1, 290223, Note_on_c, 0, 47, 85
1, 290223, Note_on_c, 0, 59, 93
1, 290260, Note_off_c, 0, 59, 66
1, 290264, Note_off_c, 0, 47, 66
1, 290311, Note_on_c, 0, 60, 88
1, 290314, Note_on_c, 0, 72, 82
1, 290346, Control_c, 0, 67, 125
1, 290351, Note_off_c, 0, 60, 60
1, 290358, Note_off_c, 0, 72, 61
1, 290361, Control_c, 0, 67, 123
1, 290376, Control_c, 0, 67, 117
1, 290391, Control_c, 0, 67, 108
1, 290394, Note_on_c, 0, 61, 96
1, 290402, Note_on_c, 0, 49, 87
1, 290406, Control_c, 0, 67, 98
1, 290420, Control_c, 0, 67, 90
1, 290435, Note_off_c, 0, 61, 65
1, 290435, Control_c, 0, 67, 81
1, 290437, Note_off_c, 0, 49, 57
1, 290450, Control_c, 0, 67, 70
1, 290465, Control_c, 0, 67, 48
1, 290480, Control_c, 0, 67, 21
1, 290494, Control_c, 0, 67, 0
1, 290495, Note_on_c, 0, 62, 88
1, 290497, Note_on_c, 0, 74, 87
1, 290539, Note_off_c, 0, 74, 65
1, 290544, Note_off_c, 0, 62, 61
1, 290588, Note_on_c, 0, 63, 98
1, 290590, Note_on_c, 0, 51, 95
1, 290619, Note_off_c, 0, 51, 64
1, 290633, Note_off_c, 0, 63, 59
1, 290679, Note_on_c, 0, 64, 91
1, 290684, Note_on_c, 0, 76, 86
1, 290717, Note_off_c, 0, 64, 61
1, 290723, Note_off_c, 0, 76, 65
1, 290795, Note_on_c, 0, 65, 97
1, 290798, Note_on_c, 0, 53, 100
1, 290828, Note_off_c, 0, 65, 68
1, 290834, Note_off_c, 0, 53, 64
1, 290902, Note_on_c, 0, 66, 92
1, 290904, Note_on_c, 0, 78, 94
1, 290944, Note_off_c, 0, 66, 60
1, 290950, Note_off_c, 0, 78, 61
1, 290991, Poly_aftertouch_c, 0, 65, 127
1, 291025, Poly_aftertouch_c, 0, 65, 0
1, 291028, Note_on_c, 0, 67, 99
1, 291031, Note_on_c, 0, 55, 91
1, 291061, Note_off_c, 0, 67, 70
1, 291074, Note_off_c, 0, 55, 64
1, 291161, Note_on_c, 0, 68, 97
1, 291163, Note_on_c, 0, 80, 105
1, 291198, Note_off_c, 0, 68, 65
1, 291222, Note_off_c, 0, 80, 61
1, 291314, Note_on_c, 0, 69, 99
1, 291324, Note_on_c, 0, 57, 109
1, 291351, Note_off_c, 0, 69, 66
1, 291353, Note_off_c, 0, 57, 70
1, 291514, Note_on_c, 0, 70, 99
1, 291515, Note_on_c, 0, 82, 108
1, 291547, Note_on_c, 0, 83, 55
1, 291557, Note_off_c, 0, 70, 61
1, 291566, Note_off_c, 0, 83, 62
1, 291605, Note_off_c, 0, 82, 57
1, 291697, Control_c, 0, 64, 61
1, 291712, Control_c, 0, 64, 0
1, 291756, Control_c, 0, 64, 46
1, 291756, Control_c, 0, 67, 35
1, 291763, Note_on_c, 0, 71, 99
1, 291764, Note_on_c, 0, 28, 99
1, 291764, Note_on_c, 0, 41, 87
1, 291764, Note_on_c, 0, 79, 91
1, 291764, Note_on_c, 0, 40, 94
1, 291765, Note_on_c, 0, 83, 104
1, 291767, Note_on_c, 0, 76, 96
1, 291771, Control_c, 0, 64, 127
1, 291771, Control_c, 0, 67, 74
1, 291785, Note_off_c, 0, 41, 65
1, 291786, Control_c, 0, 67, 94
1, 291787, Note_off_c, 0, 28, 71
1, 291788, Note_off_c, 0, 40, 71
1, 291791, Note_on_c, 0, 30, 39
1, 291791, Note_off_c, 0, 30, 127
1, 291800, Control_c, 0, 67, 101
1, 291803, Note_off_c, 0, 71, 66
1, 291827, Poly_aftertouch_c, 0, 30, 0
1, 291830, Control_c, 0, 67, 99
1, 291869, Note_off_c, 0, 76, 59
1, 291874, Control_c, 0, 67, 97
1, 291901, Note_off_c, 0, 83, 62
1, 291922, Poly_aftertouch_c, 0, 41, 0
1, 291979, Control_c, 0, 67, 94
1, 291993, Control_c, 0, 67, 88
1, 292008, Control_c, 0, 67, 80
1, 292023, Control_c, 0, 67, 71
1, 292038, Control_c, 0, 67, 63
1, 292053, Control_c, 0, 67, 52
1, 292074, Control_c, 0, 67, 36
1, 292089, Control_c, 0, 67, 0
1, 292268, Note_off_c, 0, 79, 61
1, 292299, Note_on_c, 0, 70, 101
1, 292301, Note_on_c, 0, 76, 90
1, 292301, Note_on_c, 0, 66, 94
1, 292302, Note_on_c, 0, 82, 99
1, 292307, Note_on_c, 0, 54, 86
1, 292313, Control_c, 0, 64, 69
1, 292328, Control_c, 0, 64, 0
1, 292330, Note_off_c, 0, 54, 68
1, 292336, Note_off_c, 0, 66, 61
1, 292338, Note_off_c, 0, 82, 65
1, 292339, Note_off_c, 0, 70, 65
1, 292342, Control_c, 0, 67, 32
1, 292342, Note_off_c, 0, 76, 66
1, 292357, Control_c, 0, 67, 35
1, 292372, Control_c, 0, 64, 60
1, 292372, Control_c, 0, 67, 20
1, 292379, Poly_aftertouch_c, 0, 76, 0
1, 292384, Note_on_c, 0, 67, 99
1, 292385, Note_on_c, 0, 76, 89
1, 292386, Note_on_c, 0, 71, 107
1, 292386, Note_on_c, 0, 83, 106
1, 292387, Control_c, 0, 64, 127
1, 292387, Control_c, 0, 67, 0
1, 292387, Note_on_c, 0, 55, 102
1, 292412, Note_on_c, 0, 56, 42
1, 292417, Note_off_c, 0, 67, 70
1, 292427, Note_off_c, 0, 55, 68
1, 292437, Note_off_c, 0, 56, 56
1, 292686, Note_on_c, 0, 47, 101
1, 292688, Note_on_c, 0, 35, 96
1, 292697, Control_c, 0, 67, 38
1, 292712, Control_c, 0, 67, 72
1, 292718, Note_off_c, 0, 47, 69
1, 292724, Note_off_c, 0, 35, 62
1, 292727, Control_c, 0, 67, 68
1, 292742, Control_c, 0, 67, 60
1, 292757, Control_c, 0, 67, 56
1, 292772, Control_c, 0, 67, 56
1, 292777, Note_off_c, 0, 83, 52
1, 292787, Note_off_c, 0, 71, 44
1, 292787, Control_c, 0, 67, 61
1, 292801, Control_c, 0, 67, 59
1, 292823, Control_c, 0, 67, 52
1, 292838, Control_c, 0, 67, 40
1, 292853, Control_c, 0, 67, 31
1, 292858, Note_off_c, 0, 76, 58
1, 292883, Control_c, 0, 67, 34
1, 292912, Control_c, 0, 67, 28
1, 292927, Control_c, 0, 67, 0
1, 293004, Note_on_c, 0, 52, 89
1, 293007, Note_on_c, 0, 67, 89
1, 293009, Note_on_c, 0, 79, 96
1, 293039, Note_off_c, 0, 67, 65
1, 293041, Note_off_c, 0, 79, 67
1, 293115, Note_on_c, 0, 54, 86
1, 293128, Note_off_c, 0, 52, 59
1, 293132, Note_on_c, 0, 66, 92
1, 293133, Note_on_c, 0, 78, 93
1, 293171, Note_off_c, 0, 78, 63
1, 293175, Note_off_c, 0, 66, 62
1, 293234, Note_on_c, 0, 55, 81
1, 293242, Note_on_c, 0, 64, 98
1, 293243, Note_on_c, 0, 76, 100
1, 293243, Note_off_c, 0, 54, 56
1, 293290, Note_off_c, 0, 55, 61
1, 293322, Note_off_c, 0, 64, 43
1, 293336, Note_on_c, 0, 57, 88
1, 293338, Note_on_c, 0, 71, 96
1, 293341, Note_off_c, 0, 76, 59
1, 293372, Note_off_c, 0, 57, 65
1, 293372, Control_c, 0, 64, 120
1, 293379, Note_off_c, 0, 71, 68
1, 293387, Control_c, 0, 64, 62
1, 293402, Control_c, 0, 64, 0
1, 293446, Control_c, 0, 64, 74
1, 293446, Control_c, 0, 67, 51
1, 293451, Note_on_c, 0, 52, 101
1, 293453, Note_on_c, 0, 40, 97
1, 293455, Note_on_c, 0, 71, 94
1, 293456, Note_on_c, 0, 84, 100
1, 293457, Note_on_c, 0, 76, 87
1, 293460, Note_on_c, 0, 79, 86
1, 293461, Control_c, 0, 64, 127
1, 293461, Control_c, 0, 67, 64
1, 293469, Note_on_c, 0, 72, 77
1, 293469, Note_off_c, 0, 52, 71
1, 293472, Note_off_c, 0, 40, 73
1, 293474, Note_on_c, 0, 83, 71
1, 293476, Control_c, 0, 67, 52
1, 293479, Note_on_c, 0, 50, 47
1, 293479, Note_off_c, 0, 50, 127
1, 293487, Note_off_c, 0, 72, 60
1, 293490, Control_c, 0, 67, 44
1, 293493, Note_off_c, 0, 83, 39
1, 293505, Control_c, 0, 67, 34
1, 293520, Control_c, 0, 67, 27
1, 293524, Note_off_c, 0, 71, 61
1, 293535, Control_c, 0, 67, 31
1, 293550, Note_on_c, 0, 82, 43
1, 293551, Note_off_c, 0, 84, 61
1, 293572, Control_c, 0, 67, 25
1, 293585, Note_off_c, 0, 82, 54
1, 293587, Control_c, 0, 67, 21
1, 293602, Control_c, 0, 67, 0
1, 293630, Note_off_c, 0, 76, 57
1, 293632, Control_c, 0, 67, 20
1, 293676, Control_c, 0, 67, 0
1, 293847, Note_off_c, 0, 79, 65
1, 293877, Note_on_c, 0, 70, 102
1, 293881, Note_on_c, 0, 76, 92
1, 293881, Note_on_c, 0, 82, 95
1, 293888, Note_on_c, 0, 54, 86
1, 293888, Note_on_c, 0, 66, 91
1, 293910, Note_off_c, 0, 54, 70
1, 293910, Note_off_c, 0, 66, 65
1, 293913, Note_off_c, 0, 70, 68
1, 293914, Control_c, 0, 64, 79
1, 293914, Control_c, 0, 67, 22
1, 293920, Note_off_c, 0, 76, 66
1, 293920, Note_off_c, 0, 82, 63
1, 293929, Control_c, 0, 64, 0
1, 293929, Control_c, 0, 67, 0
1, 293961, Note_on_c, 0, 76, 92
1, 293964, Note_on_c, 0, 71, 101
1, 293964, Note_on_c, 0, 83, 101
1, 293966, Note_on_c, 0, 55, 92
1, 293967, Note_on_c, 0, 69, 92
1, 293970, Note_on_c, 0, 67, 91
1, 293973, Control_c, 0, 64, 68
1, 293988, Control_c, 0, 64, 127
1, 293996, Note_off_c, 0, 69, 66
1, 294000, Note_off_c, 0, 67, 67
1, 294008, Note_off_c, 0, 55, 66
1, 294208, Note_on_c, 0, 47, 105
1, 294210, Control_c, 0, 67, 26
1, 294211, Note_on_c, 0, 35, 101
1, 294236, Note_off_c, 0, 35, 66
1, 294238, Note_off_c, 0, 47, 69
1, 294240, Control_c, 0, 67, 0
1, 294298, Note_off_c, 0, 83, 59
1, 294318, Note_off_c, 0, 71, 54
1, 294340, Note_off_c, 0, 76, 61
1, 294452, Note_on_c, 0, 52, 78
1, 294456, Note_on_c, 0, 79, 92
1, 294459, Note_on_c, 0, 67, 82
1, 294484, Note_off_c, 0, 67, 65
1, 294492, Note_off_c, 0, 79, 65
1, 294499, Control_c, 0, 67, 19
1, 294513, Control_c, 0, 67, 21
1, 294546, Note_on_c, 0, 54, 80
1, 294555, Note_off_c, 0, 52, 60
1, 294558, Note_on_c, 0, 66, 92
1, 294558, Note_on_c, 0, 78, 89
1, 294558, Control_c, 0, 67, 0
1, 294595, Note_off_c, 0, 78, 65
1, 294604, Note_off_c, 0, 66, 61
1, 294658, Note_on_c, 0, 55, 83
1, 294659, Note_on_c, 0, 64, 97
1, 294662, Note_on_c, 0, 76, 99
1, 294667, Note_off_c, 0, 54, 61
1, 294751, Note_on_c, 0, 57, 87
1, 294753, Note_on_c, 0, 71, 97
1, 294757, Note_off_c, 0, 76, 67
1, 294759, Note_off_c, 0, 55, 57
1, 294771, Note_off_c, 0, 64, 60
1, 294780, Note_off_c, 0, 57, 65
1, 294798, Note_off_c, 0, 71, 69
1, 294811, Control_c, 0, 64, 106
1, 294826, Control_c, 0, 64, 59
1, 294840, Control_c, 0, 64, 0
1, 294885, Control_c, 0, 64, 73
1, 294885, Control_c, 0, 67, 38
1, 294887, Note_on_c, 0, 71, 99
1, 294889, Note_on_c, 0, 79, 93
1, 294889, Note_on_c, 0, 83, 101
1, 294891, Note_on_c, 0, 28, 96
1, 294891, Note_on_c, 0, 76, 92
1, 294893, Note_on_c, 0, 41, 89
1, 294896, Note_on_c, 0, 40, 89
1, 294900, Control_c, 0, 64, 127
1, 294900, Control_c, 0, 67, 36
1, 294911, Note_off_c, 0, 28, 68
1, 294912, Note_off_c, 0, 41, 67
1, 294915, Control_c, 0, 67, 28
1, 294917, Note_off_c, 0, 40, 65
1, 294955, Note_off_c, 0, 71, 59
1, 294960, Control_c, 0, 67, 33
1, 294975, Control_c, 0, 67, 33
1, 294989, Control_c, 0, 67, 31
1, 294994, Note_off_c, 0, 76, 55
1, 294999, Note_on_c, 0, 28, 3
1, 294999, Note_off_c, 0, 83, 57
1, 295004, Control_c, 0, 67, 28
1, 295012, Note_off_c, 0, 28, 46
1, 295100, Control_c, 0, 67, 25
1, 295115, Control_c, 0, 67, 0
1, 295231, Note_off_c, 0, 79, 64
1, 295261, Note_on_c, 0, 70, 95
1, 295263, Note_on_c, 0, 66, 87
1, 295263, Note_on_c, 0, 76, 89
1, 295266, Note_on_c, 0, 82, 92
1, 295267, Note_on_c, 0, 54, 85
1, 295286, Note_off_c, 0, 66, 66
1, 295289, Note_off_c, 0, 54, 70
1, 295296, Note_off_c, 0, 82, 59
1, 295301, Note_off_c, 0, 70, 64
1, 295301, Note_off_c, 0, 76, 64
1, 295308, Control_c, 0, 64, 83
1, 295323, Control_c, 0, 64, 53
1, 295338, Control_c, 0, 64, 42
1, 295339, Poly_aftertouch_c, 0, 76, 0
1, 295344, Note_on_c, 0, 67, 96
1, 295344, Note_on_c, 0, 71, 97
1, 295344, Note_on_c, 0, 83, 104
1, 295345, Note_on_c, 0, 76, 93
1, 295347, Note_on_c, 0, 55, 98
1, 295353, Control_c, 0, 64, 65
1, 295368, Control_c, 0, 64, 116
1, 295375, Note_off_c, 0, 67, 69
1, 295382, Note_off_c, 0, 55, 67
1, 295383, Control_c, 0, 64, 127
1, 295574, Note_off_c, 0, 71, 59
1, 295588, Note_on_c, 0, 47, 97
1, 295591, Control_c, 0, 67, 29
1, 295594, Note_on_c, 0, 35, 91
1, 295594, Note_off_c, 0, 83, 62
1, 295594, Note_off_c, 0, 76, 60
1, 295606, Note_off_c, 0, 47, 74
1, 295606, Control_c, 0, 67, 22
1, 295620, Note_off_c, 0, 35, 67
1, 295621, Control_c, 0, 67, 0
1, 295699, Note_on_c, 0, 73, 101
1, 295700, Note_on_c, 0, 85, 98
1, 295705, Note_on_c, 0, 70, 99
1, 295712, Note_on_c, 0, 58, 86
1, 295721, Note_off_c, 0, 70, 70
1, 295726, Note_off_c, 0, 85, 60
1, 295732, Note_on_c, 0, 71, 57
1, 295733, Note_on_c, 0, 61, 43
1, 295735, Note_off_c, 0, 58, 64
1, 295735, Note_off_c, 0, 73, 64
1, 295752, Note_off_c, 0, 71, 66
1, 295754, Control_c, 0, 64, 67
1, 295761, Note_off_c, 0, 61, 59
1, 295768, Control_c, 0, 64, 0
1, 295800, Note_on_c, 0, 74, 101
1, 295801, Note_on_c, 0, 86, 103
1, 295806, Note_on_c, 0, 71, 94
1, 295827, Note_on_c, 0, 59, 63
1, 295833, Note_off_c, 0, 74, 71
1, 295833, Note_on_c, 0, 57, 58
1, 295833, Note_off_c, 0, 71, 70
1, 295837, Note_off_c, 0, 86, 69
1, 295841, Note_on_c, 0, 69, 48
1, 295841, Note_off_c, 0, 69, 127
1, 295851, Note_off_c, 0, 59, 64
1, 295854, Note_off_c, 0, 57, 61
1, 295857, Note_on_c, 0, 85, 10
1, 295872, Note_off_c, 0, 85, 37
1, 296055, Note_on_c, 0, 70, 96
1, 296056, Note_on_c, 0, 73, 102
1, 296061, Note_on_c, 0, 85, 101
1, 296066, Note_on_c, 0, 58, 93
1, 296082, Note_off_c, 0, 70, 69
1, 296095, Note_off_c, 0, 58, 66
1, 296095, Note_off_c, 0, 73, 66
1, 296104, Note_off_c, 0, 85, 63
1, 296321, Note_on_c, 0, 52, 99
1, 296323, Note_on_c, 0, 71, 106
1, 296325, Note_on_c, 0, 40, 91
1, 296326, Note_on_c, 0, 76, 98
1, 296326, Note_on_c, 0, 79, 101
1, 296327, Note_on_c, 0, 83, 98
1, 296340, Control_c, 0, 64, 58
1, 296340, Control_c, 0, 67, 39
1, 296351, Note_off_c, 0, 71, 71
1, 296355, Control_c, 0, 64, 127
1, 296355, Control_c, 0, 67, 45
1, 296359, Note_off_c, 0, 83, 68
1, 296360, Note_off_c, 0, 52, 68
1, 296361, Note_off_c, 0, 40, 65
1, 296364, Note_off_c, 0, 76, 67
1, 296370, Note_off_c, 0, 79, 68
1, 296370, Control_c, 0, 67, 27
1, 296385, Control_c, 0, 67, 0
1, 296414, Poly_aftertouch_c, 0, 42, 127
1, 296447, Poly_aftertouch_c, 0, 42, 0
1, 296689, Control_c, 0, 64, 65
1, 296703, Control_c, 0, 64, 0
1, 296733, Control_c, 0, 64, 43
1, 296748, Control_c, 0, 64, 66
1, 296763, Control_c, 0, 64, 82
1, 296778, Control_c, 0, 64, 108
1, 296783, Note_on_c, 0, 66, 72
1, 296792, Control_c, 0, 64, 111
1, 296793, Note_on_c, 0, 54, 50
1, 296794, Note_on_c, 0, 82, 80
1, 296796, Note_on_c, 0, 70, 70
1, 296814, Note_off_c, 0, 66, 59
1, 296814, Note_off_c, 0, 82, 58
1, 296820, Note_off_c, 0, 54, 58
1, 296829, Note_off_c, 0, 70, 59
1, 296852, Control_c, 0, 64, 108
1, 296866, Control_c, 0, 64, 105
1, 296881, Control_c, 0, 64, 102
1, 296902, Note_on_c, 0, 55, 74
1, 296903, Note_on_c, 0, 67, 67
1, 296910, Note_on_c, 0, 71, 84
1, 296911, Note_on_c, 0, 83, 86
1, 296922, Note_off_c, 0, 67, 67
1, 296926, Note_off_c, 0, 55, 69
1, 296936, Note_off_c, 0, 71, 66
1, 296951, Note_off_c, 0, 83, 62
1, 296999, Note_on_c, 0, 70, 78
1, 296999, Control_c, 0, 64, 105
1, 297002, Note_on_c, 0, 58, 78
1, 297005, Note_on_c, 0, 73, 93
1, 297011, Note_on_c, 0, 85, 93
1, 297019, Note_off_c, 0, 70, 70
1, 297027, Note_off_c, 0, 58, 70
1, 297029, Control_c, 0, 64, 107
1, 297034, Note_off_c, 0, 73, 67
1, 297036, Note_off_c, 0, 85, 61
1, 297095, Note_on_c, 0, 71, 82
1, 297099, Note_on_c, 0, 59, 76
1, 297103, Note_on_c, 0, 74, 102
1, 297103, Note_on_c, 0, 86, 103
1, 297118, Note_off_c, 0, 71, 70
1, 297121, Note_off_c, 0, 59, 69
1, 297131, Note_off_c, 0, 74, 67
1, 297133, Control_c, 0, 64, 111
1, 297137, Note_off_c, 0, 86, 68
1, 297148, Control_c, 0, 64, 127
1, 297190, Note_on_c, 0, 70, 96
1, 297195, Note_on_c, 0, 73, 92
1, 297200, Note_on_c, 0, 85, 97
1, 297201, Note_on_c, 0, 58, 82
1, 297204, Note_on_c, 0, 75, 85
1, 297209, Note_off_c, 0, 73, 73
1, 297216, Note_off_c, 0, 85, 74
1, 297218, Note_off_c, 0, 70, 64
1, 297218, Note_off_c, 0, 75, 70
1, 297224, Note_on_c, 0, 87, 38
1, 297224, Note_off_c, 0, 87, 127
1, 297228, Note_off_c, 0, 58, 69
1, 297281, Note_on_c, 0, 71, 97
1, 297287, Note_on_c, 0, 59, 89
1, 297287, Note_on_c, 0, 86, 69
1, 297289, Note_on_c, 0, 74, 104
1, 297314, Note_on_c, 0, 85, 61
1, 297316, Note_off_c, 0, 71, 67
1, 297324, Note_off_c, 0, 59, 63
1, 297332, Note_off_c, 0, 74, 66
1, 297332, Note_off_c, 0, 85, 67
1, 297334, Note_off_c, 0, 86, 65
1, 297334, Control_c, 0, 64, 84
1, 297349, Control_c, 0, 64, 0
1, 297414, Note_on_c, 0, 80, 39
1, 297464, Note_off_c, 0, 80, 48
1, 297537, Note_on_c, 0, 57, 100
1, 297538, Note_on_c, 0, 45, 91
1, 297540, Note_on_c, 0, 76, 106
1, 297541, Note_on_c, 0, 88, 101
1, 297542, Note_on_c, 0, 81, 95
1, 297543, Note_on_c, 0, 49, 91
1, 297547, Note_on_c, 0, 52, 81
1, 297547, Note_on_c, 0, 85, 102
1, 297574, Note_off_c, 0, 57, 66
1, 297581, Note_off_c, 0, 45, 65
1, 297583, Note_off_c, 0, 76, 68
1, 297590, Note_off_c, 0, 52, 63
1, 297592, Note_off_c, 0, 49, 66
1, 297605, Note_off_c, 0, 81, 67
1, 297616, Note_off_c, 0, 88, 59
1, 297631, Note_off_c, 0, 85, 66
1, 297809, Note_on_c, 0, 50, 99
1, 297809, Control_c, 0, 67, 39
1, 297813, Note_on_c, 0, 38, 94
1, 297815, Note_on_c, 0, 81, 106
1, 297815, Note_on_c, 0, 93, 109
1, 297816, Note_on_c, 0, 86, 105
1, 297817, Note_on_c, 0, 90, 100
1, 297823, Control_c, 0, 64, 50
1, 297823, Control_c, 0, 67, 38
1, 297836, Note_off_c, 0, 38, 71
1, 297838, Control_c, 0, 64, 127
1, 297838, Control_c, 0, 67, 27
1, 297839, Note_off_c, 0, 50, 68
1, 297853, Control_c, 0, 67, 23
1, 297858, Note_off_c, 0, 81, 65
1, 297865, Note_off_c, 0, 93, 66
1, 297882, Control_c, 0, 67, 27
1, 297897, Control_c, 0, 67, 29
1, 297912, Note_off_c, 0, 86, 60
1, 297912, Control_c, 0, 67, 26
1, 297927, Control_c, 0, 67, 24
1, 297986, Control_c, 0, 67, 27
1, 298016, Control_c, 0, 67, 25
1, 298045, Control_c, 0, 67, 23
1, 298112, Control_c, 0, 67, 0
1, 298162, Note_off_c, 0, 90, 62
1, 298182, Note_on_c, 0, 53, 74
1, 298182, Note_on_c, 0, 65, 82
1, 298190, Note_on_c, 0, 80, 99
1, 298191, Note_on_c, 0, 62, 76
1, 298194, Note_on_c, 0, 92, 97
1, 298200, Note_on_c, 0, 86, 83
1, 298209, Note_off_c, 0, 53, 67
1, 298212, Note_off_c, 0, 65, 65
1, 298224, Note_off_c, 0, 62, 61
1, 298231, Note_off_c, 0, 80, 65
1, 298232, Note_on_c, 0, 85, 42
1, 298233, Note_off_c, 0, 86, 61
1, 298235, Note_off_c, 0, 92, 65
1, 298258, Note_off_c, 0, 85, 58
1, 298260, Control_c, 0, 64, 63
1, 298260, Control_c, 0, 67, 26
1, 298268, Note_on_c, 0, 62, 86
1, 298271, Note_on_c, 0, 66, 91
1, 298275, Control_c, 0, 64, 0
1, 298275, Control_c, 0, 67, 23
1, 298276, Note_on_c, 0, 81, 106
1, 298276, Note_on_c, 0, 93, 110
1, 298277, Note_on_c, 0, 86, 89
1, 298278, Note_on_c, 0, 54, 95
1, 298289, Control_c, 0, 64, 34
1, 298289, Control_c, 0, 67, 0
1, 298295, Note_on_c, 0, 87, 59
1, 298304, Control_c, 0, 64, 64
1, 298306, Note_off_c, 0, 62, 62
1, 298310, Note_off_c, 0, 66, 62
1, 298316, Note_off_c, 0, 87, 41
1, 298319, Control_c, 0, 64, 127
1, 298324, Note_off_c, 0, 54, 63
1, 298497, Note_on_c, 0, 45, 105
1, 298497, Control_c, 0, 67, 26
1, 298501, Note_on_c, 0, 33, 101
1, 298512, Control_c, 0, 67, 0
1, 298536, Note_off_c, 0, 45, 67
1, 298540, Note_off_c, 0, 33, 63
1, 298578, Note_off_c, 0, 93, 60
1, 298581, Note_off_c, 0, 81, 57
1, 298639, Note_off_c, 0, 86, 61
1, 298715, Note_on_c, 0, 61, 86
1, 298717, Note_on_c, 0, 49, 71
1, 298730, Note_on_c, 0, 80, 94
1, 298733, Note_on_c, 0, 92, 88
1, 298739, Note_off_c, 0, 61, 66
1, 298745, Note_off_c, 0, 49, 65
1, 298753, Note_on_c, 0, 90, 59
1, 298753, Note_off_c, 0, 80, 66
1, 298754, Note_off_c, 0, 92, 69
1, 298774, Note_off_c, 0, 90, 62
1, 298814, Note_on_c, 0, 51, 90
1, 298815, Note_on_c, 0, 63, 86
1, 298829, Note_on_c, 0, 90, 93
1, 298833, Note_on_c, 0, 78, 90
1, 298840, Note_off_c, 0, 51, 65
1, 298844, Note_off_c, 0, 63, 63
1, 298862, Note_off_c, 0, 78, 63
1, 298867, Note_off_c, 0, 90, 65
1, 298912, Note_on_c, 0, 64, 85
1, 298915, Note_on_c, 0, 52, 86
1, 298915, Note_on_c, 0, 76, 100
1, 298916, Note_on_c, 0, 88, 99
1, 298928, Note_on_c, 0, 65, 76
1, 298936, Poly_aftertouch_c, 0, 61, 0
1, 298945, Note_off_c, 0, 65, 70
1, 298947, Note_off_c, 0, 52, 60
1, 298947, Note_off_c, 0, 64, 63
1, 298953, Note_on_c, 0, 54, 20
1, 298961, Note_on_c, 0, 53, 25
1, 298961, Note_off_c, 0, 53, 127
1, 298987, Note_off_c, 0, 54, 48
1, 298997, Poly_aftertouch_c, 0, 53, 0
1, 299005, Note_off_c, 0, 76, 57
1, 299006, Note_on_c, 0, 65, 92
1, 299007, Note_on_c, 0, 53, 66
1, 299008, Note_on_c, 0, 81, 99
1, 299014, Note_off_c, 0, 88, 64
1, 299038, Note_off_c, 0, 65, 64
1, 299039, Control_c, 0, 64, 101
1, 299049, Note_off_c, 0, 81, 68
1, 299054, Control_c, 0, 64, 52
1, 299059, Note_off_c, 0, 53, 63
1, 299068, Control_c, 0, 64, 0
1, 299127, Control_c, 0, 64, 56
1, 299127, Control_c, 0, 67, 26
1, 299142, Control_c, 0, 64, 127
1, 299142, Control_c, 0, 67, 82
1, 299157, Note_on_c, 0, 83, 101
1, 299157, Note_on_c, 0, 38, 106
1, 299157, Note_on_c, 0, 95, 107
1, 299157, Control_c, 0, 67, 105
1, 299158, Note_on_c, 0, 86, 96
1, 299168, Note_on_c, 0, 26, 88
1, 299172, Control_c, 0, 67, 103
1, 299175, Note_on_c, 0, 24, 80
1, 299180, Note_off_c, 0, 38, 71
1, 299189, Note_off_c, 0, 83, 64
1, 299194, Note_off_c, 0, 26, 63
1, 299200, Note_off_c, 0, 24, 58
1, 299232, Note_off_c, 0, 95, 62
1, 299261, Control_c, 0, 67, 101
1, 299286, Note_off_c, 0, 86, 54
1, 299290, Poly_aftertouch_c, 0, 27, 0
1, 299365, Control_c, 0, 67, 98
1, 299380, Control_c, 0, 67, 96
1, 299395, Control_c, 0, 67, 93
1, 299410, Control_c, 0, 67, 89
1, 299425, Control_c, 0, 67, 83
1, 299432, Poly_aftertouch_c, 0, 89, 127
1, 299439, Control_c, 0, 67, 71
1, 299454, Control_c, 0, 67, 49
1, 299469, Control_c, 0, 67, 0
1, 299495, Poly_aftertouch_c, 0, 89, 0
1, 299496, Note_on_c, 0, 80, 99
1, 299498, Note_on_c, 0, 86, 87
1, 299499, Note_on_c, 0, 92, 91
1, 299500, Note_on_c, 0, 63, 67
1, 299507, Note_on_c, 0, 67, 73
1, 299508, Note_on_c, 0, 53, 65
1, 299514, Note_on_c, 0, 55, 66
1, 299517, Note_on_c, 0, 65, 56
1, 299529, Note_off_c, 0, 67, 71
1, 299532, Note_off_c, 0, 80, 66
1, 299535, Note_off_c, 0, 55, 65
1, 299536, Note_off_c, 0, 92, 65
1, 299537, Note_off_c, 0, 63, 63
1, 299537, Note_off_c, 0, 65, 63
1, 299538, Note_off_c, 0, 53, 64
1, 299538, Note_off_c, 0, 86, 64
1, 299566, Control_c, 0, 64, 100
1, 299581, Control_c, 0, 64, 74
1, 299583, Note_on_c, 0, 86, 94
1, 299586, Note_on_c, 0, 93, 106
1, 299586, Note_on_c, 0, 81, 102
1, 299589, Note_on_c, 0, 61, 80
1, 299592, Note_on_c, 0, 66, 93
1, 299596, Note_on_c, 0, 54, 92
1, 299596, Control_c, 0, 64, 75
1, 299598, Note_on_c, 0, 62, 92
1, 299606, Note_off_c, 0, 61, 41
1, 299610, Control_c, 0, 64, 102
1, 299625, Note_off_c, 0, 62, 58
1, 299625, Control_c, 0, 64, 127
1, 299628, Note_off_c, 0, 66, 63
1, 299650, Note_off_c, 0, 54, 64
1, 299789, Control_c, 0, 64, 103
1, 299802, Note_on_c, 0, 45, 109
1, 299804, Control_c, 0, 64, 69
1, 299804, Control_c, 0, 67, 34
1, 299807, Note_on_c, 0, 33, 102
1, 299818, Control_c, 0, 64, 60
1, 299818, Control_c, 0, 67, 32
1, 299833, Control_c, 0, 64, 67
1, 299833, Control_c, 0, 67, 22
1, 299836, Note_off_c, 0, 33, 65
1, 299837, Note_off_c, 0, 45, 68
1, 299848, Control_c, 0, 64, 89
1, 299848, Control_c, 0, 67, 0
1, 299862, Control_c, 0, 64, 127
1, 299892, Note_off_c, 0, 93, 63
1, 299906, Note_off_c, 0, 81, 57
1, 299967, Note_off_c, 0, 86, 57
1, 300010, Control_c, 0, 67, 20
1, 300020, Note_on_c, 0, 61, 90
1, 300024, Note_on_c, 0, 49, 73
1, 300035, Note_on_c, 0, 80, 92
1, 300036, Note_on_c, 0, 92, 83
1, 300040, Note_off_c, 0, 61, 68
1, 300040, Control_c, 0, 67, 0
1, 300051, Note_off_c, 0, 49, 66
1, 300054, Note_on_c, 0, 90, 68
1, 300059, Note_off_c, 0, 92, 69
1, 300060, Note_off_c, 0, 80, 63
1, 300070, Note_off_c, 0, 90, 66
1, 300099, Control_c, 0, 67, 21
1, 300116, Note_on_c, 0, 63, 81
1, 300117, Note_on_c, 0, 49, 68
1, 300120, Note_on_c, 0, 51, 69
1, 300122, Note_on_c, 0, 90, 97
1, 300123, Note_on_c, 0, 61, 67
1, 300136, Note_off_c, 0, 63, 71
1, 300140, Note_off_c, 0, 49, 65
1, 300143, Note_off_c, 0, 51, 65
1, 300143, Control_c, 0, 67, 0
1, 300144, Note_off_c, 0, 61, 61
1, 300150, Note_off_c, 0, 90, 69
1, 300152, Note_on_c, 0, 77, 44
1, 300178, Note_off_c, 0, 77, 59
1, 300179, Note_on_c, 0, 76, 15
1, 300206, Note_on_c, 0, 64, 93
1, 300206, Note_on_c, 0, 88, 94
1, 300207, Note_on_c, 0, 52, 91
1, 300226, Note_on_c, 0, 65, 68
1, 300240, Note_off_c, 0, 64, 68
1, 300245, Note_on_c, 0, 54, 22
1, 300246, Note_off_c, 0, 65, 66
1, 300247, Note_off_c, 0, 52, 62
1, 300258, Note_off_c, 0, 88, 58
1, 300266, Note_off_c, 0, 76, 60
1, 300279, Note_off_c, 0, 54, 51
1, 300310, Note_on_c, 0, 81, 86
1, 300314, Note_on_c, 0, 65, 103
1, 300325, Note_on_c, 0, 53, 63
1, 300330, Control_c, 0, 64, 75
1, 300331, Note_off_c, 0, 81, 70
1, 300345, Control_c, 0, 64, 0
1, 300347, Note_on_c, 0, 55, 45
1, 300358, Note_off_c, 0, 53, 68
1, 300360, Note_off_c, 0, 65, 65
1, 300375, Note_off_c, 0, 55, 35
1, 300404, Control_c, 0, 64, 47
1, 300404, Control_c, 0, 67, 35
1, 300419, Control_c, 0, 64, 127
1, 300419, Control_c, 0, 67, 60
1, 300433, Control_c, 0, 67, 61
1, 300435, Note_on_c, 0, 84, 103
1, 300436, Note_on_c, 0, 86, 91
1, 300436, Note_on_c, 0, 96, 97
1, 300447, Note_on_c, 0, 66, 93
1, 300448, Control_c, 0, 67, 56
1, 300450, Note_on_c, 0, 57, 73
1, 300453, Note_on_c, 0, 54, 56
1, 300453, Note_on_c, 0, 62, 73
1, 300463, Control_c, 0, 67, 53
1, 300478, Control_c, 0, 67, 52
1, 300490, Note_off_c, 0, 66, 59
1, 300492, Control_c, 0, 67, 57
1, 300494, Note_off_c, 0, 62, 59
1, 300507, Control_c, 0, 67, 65
1, 300513, Note_off_c, 0, 57, 63
1, 300522, Control_c, 0, 67, 68
1, 300523, Note_off_c, 0, 54, 61
1, 300530, Note_off_c, 0, 84, 57
1, 300537, Control_c, 0, 67, 65
1, 300552, Control_c, 0, 67, 62
1, 300566, Note_off_c, 0, 96, 56
1, 300567, Control_c, 0, 67, 60
1, 300582, Control_c, 0, 67, 61
1, 300597, Control_c, 0, 67, 66
1, 300611, Control_c, 0, 67, 66
1, 300626, Control_c, 0, 67, 64
1, 300641, Control_c, 0, 67, 61
1, 300656, Control_c, 0, 67, 59
1, 300657, Note_off_c, 0, 86, 48
1, 300662, Note_on_c, 0, 50, 98
1, 300665, Note_on_c, 0, 38, 90
1, 300671, Control_c, 0, 67, 56
1, 300685, Control_c, 0, 67, 53
1, 300700, Control_c, 0, 67, 53
1, 300702, Note_off_c, 0, 38, 62
1, 300715, Control_c, 0, 67, 51
1, 300721, Note_off_c, 0, 50, 55
1, 300730, Control_c, 0, 67, 44
1, 300745, Control_c, 0, 67, 21
1, 300746, Note_on_c, 0, 83, 75
1, 300749, Note_on_c, 0, 95, 72
1, 300759, Control_c, 0, 67, 0
1, 300764, Note_off_c, 0, 95, 65
1, 300766, Note_off_c, 0, 83, 71
1, 300770, Poly_aftertouch_c, 0, 40, 0
1, 300785, Poly_aftertouch_c, 0, 40, 0
1, 300794, Note_on_c, 0, 93, 14
1, 300794, Note_off_c, 0, 93, 127
1, 300823, Note_on_c, 0, 80, 102
1, 300826, Note_on_c, 0, 65, 80
1, 300829, Note_on_c, 0, 92, 97
1, 300829, Note_on_c, 0, 53, 71
1, 300831, Note_on_c, 0, 86, 90
1, 300837, Note_on_c, 0, 57, 61
1, 300854, Note_on_c, 0, 62, 30
1, 300863, Note_off_c, 0, 53, 62
1, 300889, Note_off_c, 0, 65, 62
1, 300894, Note_off_c, 0, 57, 57
1, 300904, Note_off_c, 0, 80, 58
1, 300920, Note_off_c, 0, 92, 63
1, 300927, Poly_aftertouch_c, 0, 79, 0
1, 300966, Note_off_c, 0, 86, 56
1, 301011, Control_c, 0, 64, 71
1, 301011, Control_c, 0, 67, 31
1, 301018, Note_off_c, 0, 62, 0
1, 301026, Control_c, 0, 64, 34
1, 301026, Control_c, 0, 67, 40
1, 301030, Note_on_c, 0, 62, 71
1, 301030, Note_on_c, 0, 66, 103
1, 301037, Note_on_c, 0, 81, 102
1, 301038, Note_on_c, 0, 86, 94
1, 301038, Note_on_c, 0, 93, 104
1, 301040, Note_on_c, 0, 54, 78
1, 301041, Control_c, 0, 64, 44
1, 301041, Control_c, 0, 67, 34
1, 301057, Note_on_c, 0, 57, 71
1, 301063, Control_c, 0, 64, 74
1, 301063, Control_c, 0, 67, 28
1, 301069, Note_off_c, 0, 66, 63
1, 301077, Note_off_c, 0, 93, 68
1, 301078, Control_c, 0, 64, 127
1, 301078, Control_c, 0, 67, 20
1, 301081, Note_off_c, 0, 81, 67
1, 301085, Note_off_c, 0, 86, 65
1, 301085, Note_off_c, 0, 57, 67
1, 301085, Note_off_c, 0, 62, 61
1, 301094, Control_c, 0, 67, 0
1, 301103, Note_off_c, 0, 54, 62
1, 301238, Note_on_c, 0, 74, 89
1, 301240, Note_on_c, 0, 48, 77
1, 301242, Note_on_c, 0, 38, 74
1, 301265, Note_off_c, 0, 48, 70
1, 301268, Note_on_c, 0, 50, 44
1, 301273, Note_off_c, 0, 38, 64
1, 301276, Note_off_c, 0, 74, 62
1, 301300, Note_off_c, 0, 50, 54
1, 301431, Note_on_c, 0, 56, 84
1, 301431, Note_on_c, 0, 86, 92
1, 301432, Note_on_c, 0, 68, 100
1, 301434, Note_on_c, 0, 83, 102
1, 301434, Note_on_c, 0, 65, 78
1, 301434, Note_on_c, 0, 95, 99
1, 301438, Note_on_c, 0, 62, 80
1, 301482, Note_off_c, 0, 68, 62
1, 301483, Note_off_c, 0, 56, 61
1, 301483, Note_off_c, 0, 83, 63
1, 301497, Note_off_c, 0, 65, 62
1, 301508, Note_off_c, 0, 95, 66
1, 301521, Note_off_c, 0, 86, 62
1, 301611, Note_off_c, 0, 62, 0
1, 301627, Control_c, 0, 64, 84
1, 301631, Note_on_c, 0, 62, 36
1, 301636, Note_on_c, 0, 69, 96
1, 301637, Note_on_c, 0, 66, 89
1, 301642, Note_on_c, 0, 86, 91
1, 301642, Control_c, 0, 64, 58
1, 301642, Control_c, 0, 67, 41
1, 301644, Note_on_c, 0, 96, 104
1, 301646, Note_on_c, 0, 57, 85
1, 301646, Note_on_c, 0, 84, 107
1, 301657, Control_c, 0, 64, 62
1, 301657, Control_c, 0, 67, 49
1, 301667, Note_off_c, 0, 69, 65
1, 301672, Control_c, 0, 64, 89
1, 301672, Control_c, 0, 67, 37
1, 301674, Note_off_c, 0, 66, 65
1, 301676, Note_off_c, 0, 62, 63
1, 301682, Note_off_c, 0, 96, 67
1, 301687, Control_c, 0, 64, 127
1, 301687, Control_c, 0, 67, 29
1, 301694, Note_off_c, 0, 86, 64
1, 301696, Note_off_c, 0, 84, 61
1, 301699, Note_off_c, 0, 57, 66
1, 301701, Control_c, 0, 67, 0
1, 301838, Note_on_c, 0, 50, 98
1, 301843, Note_on_c, 0, 38, 86
1, 301848, Note_on_c, 0, 74, 87
1, 301859, Note_on_c, 0, 76, 79
1, 301860, Note_off_c, 0, 50, 68
1, 301866, Note_off_c, 0, 38, 66
1, 301871, Note_off_c, 0, 74, 66
1, 301874, Note_off_c, 0, 76, 68
1, 302036, Control_c, 0, 67, 23
1, 302051, Control_c, 0, 67, 31
1, 302056, Note_on_c, 0, 85, 110
1, 302057, Note_on_c, 0, 70, 97
1, 302057, Note_on_c, 0, 91, 89
1, 302057, Note_on_c, 0, 58, 82
1, 302060, Note_on_c, 0, 64, 81
1, 302060, Note_on_c, 0, 88, 86
1, 302060, Note_on_c, 0, 97, 111
1, 302063, Note_on_c, 0, 67, 82
1, 302065, Control_c, 0, 67, 25
1, 302080, Control_c, 0, 67, 0
1, 302102, Note_off_c, 0, 70, 67
1, 302110, Note_off_c, 0, 85, 68
1, 302111, Note_off_c, 0, 67, 63
1, 302115, Note_off_c, 0, 64, 63
1, 302120, Note_off_c, 0, 88, 66
1, 302122, Note_off_c, 0, 58, 61
1, 302129, Note_off_c, 0, 91, 63
1, 302137, Note_off_c, 0, 97, 65
1, 302242, Note_on_c, 0, 94, 61
1, 302269, Note_off_c, 0, 94, 67
1, 302287, Control_c, 0, 64, 86
1, 302301, Note_on_c, 0, 57, 89
1, 302302, Note_on_c, 0, 69, 101
1, 302302, Control_c, 0, 64, 58
1, 302304, Note_on_c, 0, 66, 94
1, 302305, Note_on_c, 0, 62, 88
1, 302311, Note_on_c, 0, 98, 104
1, 302312, Note_on_c, 0, 90, 97
1, 302314, Note_on_c, 0, 86, 109
1, 302315, Note_on_c, 0, 93, 94
1, 302317, Control_c, 0, 64, 55
1, 302331, Control_c, 0, 64, 76
1, 302334, Note_on_c, 0, 92, 56
1, 302334, Note_off_c, 0, 92, 127
1, 302334, Note_off_c, 0, 69, 63
1, 302346, Note_off_c, 0, 66, 67
1, 302346, Control_c, 0, 64, 127
1, 302347, Note_off_c, 0, 57, 65
1, 302348, Note_on_c, 0, 94, 40
1, 302348, Note_off_c, 0, 94, 127
1, 302348, Note_off_c, 0, 62, 67
1, 302383, Note_off_c, 0, 86, 57
1, 302422, Note_off_c, 0, 98, 57
1, 302575, Note_off_c, 0, 93, 64
1, 302580, Note_off_c, 0, 90, 62
1, 302585, Note_on_c, 0, 88, 114
1, 302587, Note_on_c, 0, 100, 107
1, 302627, Note_off_c, 0, 100, 68
1, 302629, Note_off_c, 0, 88, 63
1, 302861, Note_on_c, 0, 50, 96
1, 302861, Note_on_c, 0, 60, 104
1, 302865, Note_on_c, 0, 54, 97
1, 302868, Note_on_c, 0, 57, 91
1, 302872, Note_on_c, 0, 90, 110
1, 302874, Note_on_c, 0, 93, 100
1, 302875, Note_on_c, 0, 102, 99
1, 302876, Note_on_c, 0, 98, 91
1, 302889, Note_off_c, 0, 60, 72
1, 302892, Note_on_c, 0, 97, 68
1, 302902, Note_off_c, 0, 57, 67
1, 302909, Note_off_c, 0, 50, 62
1, 302910, Note_off_c, 0, 54, 68
1, 302916, Note_off_c, 0, 97, 38
1, 302924, Note_off_c, 0, 102, 67
1, 302927, Note_off_c, 0, 93, 64
1, 302931, Note_off_c, 0, 90, 65
1, 302945, Note_off_c, 0, 98, 60
1, 303153, Control_c, 0, 64, 91
1, 303168, Control_c, 0, 64, 0
1, 303198, Note_on_c, 0, 24, 93
1, 303199, Note_on_c, 0, 36, 102
1, 303200, Note_on_c, 0, 91, 115
1, 303203, Note_on_c, 0, 27, 99
1, 303204, Note_on_c, 0, 99, 104
1, 303204, Note_on_c, 0, 103, 106
1, 303207, Note_on_c, 0, 96, 104
1, 303208, Note_on_c, 0, 31, 94
1, 303227, Control_c, 0, 64, 127
1, 303229, Note_off_c, 0, 103, 70
1, 303231, Note_off_c, 0, 91, 71
1, 303238, Note_on_c, 0, 26, 52
1, 303245, Note_off_c, 0, 96, 68
1, 303249, Note_off_c, 0, 99, 69
1, 303274, Note_off_c, 0, 27, 55
1, 303285, Note_on_c, 0, 28, 61
1, 303303, Note_off_c, 0, 26, 0
1, 303341, Note_on_c, 0, 26, 3
1, 303341, Note_off_c, 0, 28, 60
1, 303362, Note_off_c, 0, 26, 0
1, 303363, Note_off_c, 0, 24, 49
1, 303382, Poly_aftertouch_c, 0, 26, 0
1, 303382, Note_off_c, 0, 31, 61
1, 303414, Note_off_c, 0, 36, 59
1, 303746, Note_on_c, 0, 68, 92
1, 303747, Note_on_c, 0, 56, 90
1, 303753, Note_on_c, 0, 78, 104
1, 303757, Note_on_c, 0, 90, 105
1, 303786, Note_off_c, 0, 68, 65
1, 303789, Note_off_c, 0, 78, 68
1, 303794, Note_off_c, 0, 56, 62
1, 303795, Note_off_c, 0, 90, 66
1, 303831, Note_on_c, 0, 67, 103
1, 303831, Note_on_c, 0, 87, 88
1, 303835, Note_on_c, 0, 55, 98
1, 303836, Note_on_c, 0, 79, 107
1, 303836, Note_on_c, 0, 91, 101
1, 303858, Poly_aftertouch_c, 0, 84, 127
1, 303865, Note_off_c, 0, 67, 68
1, 303872, Note_off_c, 0, 55, 69
1, 304088, Control_c, 0, 64, 68
1, 304088, Control_c, 0, 67, 28
1, 304103, Control_c, 0, 64, 43
1, 304105, Note_on_c, 0, 43, 110
1, 304108, Note_on_c, 0, 31, 102
1, 304117, Control_c, 0, 64, 61
1, 304117, Control_c, 0, 67, 31
1, 304132, Control_c, 0, 64, 86
1, 304132, Control_c, 0, 67, 32
1, 304140, Note_off_c, 0, 43, 68
1, 304146, Note_off_c, 0, 31, 64
1, 304147, Control_c, 0, 64, 127
1, 304147, Control_c, 0, 67, 33
1, 304162, Control_c, 0, 67, 34
1, 304187, Note_off_c, 0, 91, 60
1, 304199, Note_off_c, 0, 79, 59
1, 304251, Control_c, 0, 67, 33
1, 304255, Poly_aftertouch_c, 0, 84, 0
1, 304260, Note_off_c, 0, 87, 63
1, 304266, Control_c, 0, 67, 33
1, 304311, Control_c, 0, 67, 33
1, 304326, Control_c, 0, 67, 34
1, 304341, Control_c, 0, 67, 35
1, 304343, Note_on_c, 0, 59, 82
1, 304344, Note_on_c, 0, 47, 76
1, 304355, Control_c, 0, 67, 34
1, 304360, Note_on_c, 0, 75, 85
1, 304360, Note_on_c, 0, 87, 86
1, 304363, Note_off_c, 0, 59, 71
1, 304373, Note_off_c, 0, 47, 65
1, 304388, Note_off_c, 0, 87, 63
1, 304404, Note_off_c, 0, 75, 62
1, 304430, Control_c, 0, 67, 35
1, 304445, Note_on_c, 0, 60, 78
1, 304451, Note_on_c, 0, 59, 60
1, 304452, Note_on_c, 0, 74, 95
1, 304452, Note_on_c, 0, 86, 92
1, 304454, Note_on_c, 0, 47, 65
1, 304459, Control_c, 0, 67, 35
1, 304466, Note_off_c, 0, 59, 68
1, 304467, Note_on_c, 0, 48, 58
1, 304467, Note_off_c, 0, 60, 72
1, 304474, Control_c, 0, 67, 35
1, 304482, Note_off_c, 0, 47, 65
1, 304482, Note_off_c, 0, 74, 63
1, 304486, Note_off_c, 0, 86, 68
1, 304489, Control_c, 0, 67, 34
1, 304493, Note_off_c, 0, 48, 57
1, 304504, Control_c, 0, 67, 35
1, 304519, Control_c, 0, 67, 40
1, 304533, Control_c, 0, 67, 45
1, 304538, Note_on_c, 0, 61, 91
1, 304540, Note_on_c, 0, 49, 83
1, 304542, Note_on_c, 0, 73, 102
1, 304545, Note_on_c, 0, 85, 93
1, 304548, Control_c, 0, 67, 42
1, 304563, Control_c, 0, 67, 37
1, 304577, Control_c, 0, 67, 34
1, 304579, Note_off_c, 0, 73, 66
1, 304583, Note_off_c, 0, 49, 60
1, 304585, Note_off_c, 0, 85, 64
1, 304585, Note_off_c, 0, 61, 59
1, 304592, Control_c, 0, 67, 29
1, 304607, Control_c, 0, 67, 20
1, 304621, Control_c, 0, 67, 0
1, 304628, Note_on_c, 0, 62, 94
1, 304634, Note_on_c, 0, 79, 90
1, 304636, Note_on_c, 0, 50, 85
1, 304660, Note_off_c, 0, 62, 62
1, 304676, Note_off_c, 0, 50, 67
1, 304679, Note_off_c, 0, 79, 67
1, 304680, Control_c, 0, 64, 70
1, 304695, Control_c, 0, 64, 0
1, 304728, Poly_aftertouch_c, 0, 51, 0
1, 304740, Control_c, 0, 67, 32
1, 304754, Note_on_c, 0, 80, 111
1, 304755, Control_c, 0, 64, 75
1, 304755, Control_c, 0, 67, 60
1, 304758, Note_on_c, 0, 48, 106
1, 304759, Note_on_c, 0, 92, 102
1, 304760, Note_on_c, 0, 87, 92
1, 304761, Note_on_c, 0, 36, 101
1, 304762, Note_on_c, 0, 84, 93
1, 304769, Control_c, 0, 64, 127
1, 304769, Control_c, 0, 67, 61
1, 304784, Note_off_c, 0, 36, 70
1, 304784, Control_c, 0, 67, 58
1, 304785, Note_off_c, 0, 48, 70
1, 304801, Note_on_c, 0, 85, 37
1, 304806, Control_c, 0, 67, 53
1, 304821, Control_c, 0, 67, 48
1, 304836, Control_c, 0, 67, 47
1, 304842, Note_off_c, 0, 85, 32
1, 304850, Control_c, 0, 67, 50
1, 304865, Control_c, 0, 67, 51
1, 304880, Control_c, 0, 67, 48
1, 304895, Control_c, 0, 67, 45
1, 304898, Note_off_c, 0, 92, 60
1, 304906, Note_off_c, 0, 80, 32
1, 304910, Control_c, 0, 67, 41
1, 304925, Control_c, 0, 67, 40
1, 304940, Control_c, 0, 67, 40
1, 304955, Control_c, 0, 67, 39
1, 304970, Control_c, 0, 67, 32
1, 304984, Control_c, 0, 67, 0
1, 305062, Note_off_c, 0, 84, 51
1, 305092, Note_on_c, 0, 62, 88
1, 305093, Note_on_c, 0, 50, 79
1, 305104, Note_on_c, 0, 78, 92
1, 305105, Note_on_c, 0, 90, 91
1, 305121, Note_off_c, 0, 50, 66
1, 305121, Note_off_c, 0, 87, 39
1, 305126, Note_off_c, 0, 62, 61
1, 305136, Note_off_c, 0, 78, 67
1, 305141, Note_off_c, 0, 90, 65
1, 305148, Control_c, 0, 67, 32
1, 305163, Control_c, 0, 64, 75
1, 305163, Control_c, 0, 67, 29
1, 305173, Note_on_c, 0, 91, 103
1, 305175, Note_on_c, 0, 79, 101
1, 305176, Note_on_c, 0, 87, 88
1, 305178, Note_on_c, 0, 63, 103
1, 305178, Control_c, 0, 64, 68
1, 305178, Control_c, 0, 67, 20
1, 305180, Note_on_c, 0, 84, 88
1, 305181, Note_on_c, 0, 51, 98
1, 305193, Control_c, 0, 64, 78
1, 305193, Control_c, 0, 67, 0
1, 305207, Control_c, 0, 64, 127
1, 305211, Note_off_c, 0, 63, 68
1, 305219, Note_on_c, 0, 85, 19
1, 305219, Note_off_c, 0, 85, 127
1, 305219, Note_off_c, 0, 51, 62
1, 305370, Control_c, 0, 64, 94
1, 305385, Control_c, 0, 64, 88
1, 305385, Control_c, 0, 67, 41
1, 305387, Note_on_c, 0, 43, 105
1, 305397, Note_on_c, 0, 31, 83
1, 305399, Control_c, 0, 64, 127
1, 305399, Control_c, 0, 67, 72
1, 305404, Note_on_c, 0, 29, 91
1, 305417, Note_on_c, 0, 32, 55
1, 305425, Note_off_c, 0, 43, 66
1, 305426, Note_off_c, 0, 31, 66
1, 305429, Control_c, 0, 67, 67
1, 305436, Note_off_c, 0, 29, 65
1, 305444, Control_c, 0, 67, 62
1, 305452, Note_off_c, 0, 32, 53
1, 305453, Note_off_c, 0, 91, 61
1, 305459, Control_c, 0, 67, 57
1, 305473, Control_c, 0, 67, 56
1, 305474, Note_off_c, 0, 79, 60
1, 305488, Control_c, 0, 67, 60
1, 305503, Control_c, 0, 67, 60
1, 305518, Control_c, 0, 67, 56
1, 305521, Note_off_c, 0, 84, 61
1, 305527, Note_off_c, 0, 87, 63
1, 305533, Control_c, 0, 67, 51
1, 305555, Control_c, 0, 67, 45
1, 305570, Control_c, 0, 67, 44
1, 305585, Control_c, 0, 67, 46
1, 305599, Control_c, 0, 67, 49
1, 305611, Note_on_c, 0, 45, 72
1, 305614, Control_c, 0, 67, 49
1, 305617, Note_on_c, 0, 87, 87
1, 305619, Note_on_c, 0, 59, 62
1, 305620, Note_on_c, 0, 75, 86
1, 305629, Control_c, 0, 67, 43
1, 305639, Note_off_c, 0, 45, 64
1, 305639, Note_off_c, 0, 59, 65
1, 305640, Note_off_c, 0, 87, 68
1, 305644, Control_c, 0, 67, 20
1, 305646, Note_off_c, 0, 75, 65
1, 305647, Note_on_c, 0, 57, 25
1, 305649, Note_on_c, 0, 47, 28
1, 305649, Note_off_c, 0, 47, 127
1, 305659, Control_c, 0, 67, 0
1, 305688, Note_off_c, 0, 57, 49
1, 305692, Note_on_c, 0, 60, 88
1, 305696, Note_on_c, 0, 48, 74
1, 305706, Note_on_c, 0, 86, 88
1, 305708, Note_on_c, 0, 74, 90
1, 305711, Note_on_c, 0, 47, 50
1, 305722, Note_off_c, 0, 60, 65
1, 305725, Note_off_c, 0, 48, 67
1, 305727, Note_off_c, 0, 74, 70
1, 305739, Note_off_c, 0, 47, 61
1, 305740, Note_off_c, 0, 86, 62
1, 305789, Note_on_c, 0, 61, 91
1, 305792, Note_on_c, 0, 73, 96
1, 305792, Control_c, 0, 67, 30
1, 305798, Note_on_c, 0, 85, 93
1, 305800, Note_on_c, 0, 49, 78
1, 305807, Control_c, 0, 67, 39
1, 305816, Note_off_c, 0, 61, 63
1, 305822, Control_c, 0, 67, 35
1, 305823, Note_off_c, 0, 85, 63
1, 305825, Note_off_c, 0, 49, 69
1, 305828, Note_off_c, 0, 73, 63
1, 305837, Control_c, 0, 67, 27
1, 305852, Control_c, 0, 67, 0
1, 305882, Note_on_c, 0, 79, 104
1, 305884, Note_on_c, 0, 62, 98
1, 305894, Note_on_c, 0, 50, 78
1, 305895, Poly_aftertouch_c, 0, 51, 0
1, 305897, Control_c, 0, 64, 104
1, 305911, Control_c, 0, 64, 52
1, 305922, Note_off_c, 0, 50, 66
1, 305924, Note_off_c, 0, 79, 70
1, 305926, Note_off_c, 0, 62, 66
1, 305926, Control_c, 0, 64, 0
1, 306030, Control_c, 0, 67, 32
1, 306032, Note_on_c, 0, 84, 100
1, 306033, Note_on_c, 0, 72, 100
1, 306034, Note_on_c, 0, 79, 87
1, 306034, Note_on_c, 0, 60, 67
1, 306034, Note_on_c, 0, 75, 92
1, 306039, Note_on_c, 0, 63, 94
1, 306045, Control_c, 0, 64, 127
1, 306045, Control_c, 0, 67, 90
1, 306052, Note_on_c, 0, 51, 63
1, 306052, Note_on_c, 0, 55, 80
1, 306060, Control_c, 0, 67, 94
1, 306075, Control_c, 0, 67, 86
1, 306079, Note_off_c, 0, 63, 65
1, 306087, Note_off_c, 0, 51, 62
1, 306090, Control_c, 0, 67, 73
1, 306091, Note_off_c, 0, 60, 65
1, 306093, Note_off_c, 0, 55, 63
1, 306104, Control_c, 0, 67, 52
1, 306119, Control_c, 0, 67, 31
1, 306123, Note_off_c, 0, 72, 56
1, 306134, Control_c, 0, 67, 29
1, 306149, Note_off_c, 0, 84, 62
1, 306163, Control_c, 0, 67, 22
1, 306178, Control_c, 0, 67, 0
1, 306186, Note_off_c, 0, 75, 62
1, 306204, Note_off_c, 0, 79, 64
1, 306260, Note_on_c, 0, 48, 101
1, 306266, Note_on_c, 0, 36, 92
1, 306312, Note_off_c, 0, 36, 62
1, 306331, Note_off_c, 0, 48, 62
1, 306344, Note_on_c, 0, 74, 86
1, 306351, Note_on_c, 0, 86, 79
1, 306365, Note_off_c, 0, 74, 70
1, 306371, Note_off_c, 0, 86, 72
1, 306421, Note_on_c, 0, 75, 95
1, 306424, Note_on_c, 0, 87, 72
1, 306427, Note_on_c, 0, 84, 87
1, 306431, Note_on_c, 0, 79, 82
1, 306438, Note_on_c, 0, 85, 72
1, 306454, Note_on_c, 0, 80, 49
1, 306466, Note_on_c, 0, 88, 33
1, 306473, Note_off_c, 0, 87, 0
1, 306473, Note_on_c, 0, 87, 26
1, 306481, Note_off_c, 0, 85, 0
1, 306501, Note_off_c, 0, 88, 38
1, 306517, Poly_aftertouch_c, 0, 85, 127
1, 306526, Note_off_c, 0, 75, 61
1, 306544, Poly_aftertouch_c, 0, 85, 0
1, 306563, Note_off_c, 0, 80, 21
1, 306574, Note_off_c, 0, 87, 39
1, 306576, Note_off_c, 0, 79, 60
1, 306583, Note_off_c, 0, 84, 60
1, 306614, Note_on_c, 0, 63, 101
1, 306615, Note_on_c, 0, 60, 82
1, 306615, Control_c, 0, 67, 58
1, 306621, Note_on_c, 0, 55, 77
1, 306623, Note_on_c, 0, 51, 87
1, 306630, Control_c, 0, 67, 89
1, 306645, Control_c, 0, 67, 71
1, 306648, Note_off_c, 0, 63, 66
1, 306655, Note_off_c, 0, 60, 67
1, 306660, Control_c, 0, 67, 39
1, 306666, Note_off_c, 0, 55, 65
1, 306675, Control_c, 0, 67, 0
1, 306690, Note_off_c, 0, 51, 63
1, 306690, Note_on_c, 0, 89, 99
1, 306690, Control_c, 0, 64, 90
1, 306692, Note_on_c, 0, 77, 94
1, 306705, Control_c, 0, 64, 56
1, 306716, Note_off_c, 0, 77, 67
1, 306719, Control_c, 0, 64, 0
1, 306728, Note_off_c, 0, 89, 64
1, 306764, Note_on_c, 0, 79, 102
1, 306767, Note_on_c, 0, 91, 103
1, 306796, Note_off_c, 0, 79, 67
1, 306802, Note_off_c, 0, 91, 67
1, 306987, Note_on_c, 0, 48, 93
1, 306988, Note_on_c, 0, 36, 83
1, 306990, Note_on_c, 0, 81, 106
1, 306996, Note_on_c, 0, 93, 93
1, 307021, Note_off_c, 0, 36, 65
1, 307023, Note_off_c, 0, 81, 63
1, 307025, Note_on_c, 0, 91, 42
1, 307025, Note_off_c, 0, 91, 127
1, 307026, Note_off_c, 0, 48, 64
1, 307026, Note_off_c, 0, 93, 65
1, 307232, Note_on_c, 0, 47, 94
1, 307235, Note_on_c, 0, 35, 88
1, 307238, Note_on_c, 0, 95, 101
1, 307240, Note_on_c, 0, 39, 92
1, 307240, Note_on_c, 0, 83, 106
1, 307243, Note_on_c, 0, 42, 91
1, 307243, Note_on_c, 0, 90, 96
1, 307244, Note_on_c, 0, 87, 82
1, 307246, Control_c, 0, 64, 74
1, 307246, Control_c, 0, 67, 68
1, 307256, Note_on_c, 0, 86, 101
1, 307258, Note_off_c, 0, 47, 66
1, 307259, Note_off_c, 0, 35, 64
1, 307261, Control_c, 0, 64, 127
1, 307261, Control_c, 0, 67, 101
1, 307263, Note_off_c, 0, 87, 59
1, 307266, Note_off_c, 0, 39, 68
1, 307268, Note_on_c, 0, 89, 75
1, 307270, Note_off_c, 0, 42, 68
1, 307276, Control_c, 0, 67, 97
1, 307285, Note_off_c, 0, 83, 64
1, 307306, Control_c, 0, 67, 102
1, 307317, Note_off_c, 0, 90, 58
1, 307318, Note_off_c, 0, 89, 62
1, 307320, Control_c, 0, 67, 105
1, 307321, Note_off_c, 0, 86, 63
1, 307350, Control_c, 0, 67, 101
1, 307548, Note_off_c, 0, 95, 62
1, 307558, Control_c, 0, 67, 99
1, 307575, Note_on_c, 0, 90, 97
1, 307585, Note_on_c, 0, 78, 86
1, 307602, Control_c, 0, 67, 96
1, 307605, Note_off_c, 0, 78, 68
1, 307617, Control_c, 0, 67, 94
1, 307632, Control_c, 0, 67, 93
1, 307639, Note_off_c, 0, 90, 64
1, 307647, Control_c, 0, 67, 90
1, 307662, Control_c, 0, 67, 86
1, 307666, Note_on_c, 0, 83, 102
1, 307668, Note_on_c, 0, 71, 90
1, 307676, Control_c, 0, 67, 78
1, 307691, Control_c, 0, 67, 67
1, 307696, Note_off_c, 0, 83, 67
1, 307704, Note_off_c, 0, 71, 67
1, 307706, Control_c, 0, 67, 55
1, 307721, Control_c, 0, 67, 45
1, 307736, Control_c, 0, 67, 41
1, 307751, Control_c, 0, 67, 39
1, 307766, Control_c, 0, 67, 29
1, 307781, Control_c, 0, 67, 0
1, 307876, Control_c, 0, 64, 90
1, 307891, Control_c, 0, 64, 75
1, 307906, Control_c, 0, 64, 74
1, 307911, Note_on_c, 0, 72, 88
1, 307912, Note_on_c, 0, 60, 81
1, 307916, Note_on_c, 0, 84, 93
1, 307921, Control_c, 0, 64, 80
1, 307923, Note_on_c, 0, 48, 56
1, 307934, Note_off_c, 0, 60, 70
1, 307936, Control_c, 0, 64, 95
1, 307940, Note_off_c, 0, 72, 63
1, 307941, Note_off_c, 0, 84, 62
1, 307949, Note_off_c, 0, 48, 56
1, 307950, Control_c, 0, 64, 124
1, 307951, Note_on_c, 0, 74, 29
1, 307951, Note_off_c, 0, 74, 127
1, 307965, Control_c, 0, 64, 127
1, 308010, Note_on_c, 0, 62, 72
1, 308019, Note_on_c, 0, 50, 38
1, 308023, Note_on_c, 0, 74, 79
1, 308024, Note_on_c, 0, 86, 88
1, 308035, Note_off_c, 0, 62, 68
1, 308044, Note_off_c, 0, 74, 70
1, 308046, Note_off_c, 0, 86, 68
1, 308052, Note_off_c, 0, 50, 51
1, 308099, Control_c, 0, 67, 20
1, 308102, Note_on_c, 0, 63, 84
1, 308110, Note_on_c, 0, 51, 74
1, 308111, Note_on_c, 0, 75, 91
1, 308114, Note_on_c, 0, 87, 93
1, 308123, Note_off_c, 0, 63, 69
1, 308132, Note_off_c, 0, 75, 67
1, 308132, Note_off_c, 0, 87, 72
1, 308137, Note_off_c, 0, 51, 65
1, 308188, Note_on_c, 0, 65, 90
1, 308189, Note_on_c, 0, 53, 83
1, 308195, Note_on_c, 0, 77, 89
1, 308201, Note_on_c, 0, 89, 78
1, 308207, Note_off_c, 0, 65, 72
1, 308212, Note_off_c, 0, 53, 69
1, 308217, Note_off_c, 0, 77, 67
1, 308220, Note_on_c, 0, 88, 47
1, 308222, Note_off_c, 0, 89, 71
1, 308228, Note_on_c, 0, 54, 13
1, 308244, Note_off_c, 0, 88, 61
1, 308268, Note_off_c, 0, 54, 51
1, 308273, Note_on_c, 0, 55, 91
1, 308275, Note_on_c, 0, 79, 96
1, 308278, Note_on_c, 0, 89, 97
1, 308283, Note_on_c, 0, 67, 74
1, 308286, Note_on_c, 0, 65, 81
1, 308303, Note_off_c, 0, 67, 71
1, 308303, Note_off_c, 0, 79, 65
1, 308304, Note_off_c, 0, 65, 72
1, 308308, Note_off_c, 0, 55, 62
1, 308313, Note_off_c, 0, 89, 61
1, 308337, Control_c, 0, 64, 87
1, 308351, Control_c, 0, 64, 59
1, 308351, Control_c, 0, 67, 0
1, 308354, Note_on_c, 0, 79, 90
1, 308358, Note_on_c, 0, 57, 91
1, 308358, Note_on_c, 0, 91, 93
1, 308360, Note_on_c, 0, 81, 86
1, 308365, Note_on_c, 0, 67, 81
1, 308365, Control_c, 0, 64, 0
1, 308386, Note_off_c, 0, 67, 67
1, 308387, Note_off_c, 0, 81, 64
1, 308390, Note_off_c, 0, 79, 65
1, 308397, Note_off_c, 0, 91, 65
1, 308398, Note_off_c, 0, 57, 66
1, 308404, Note_on_c, 0, 69, 30
1, 308404, Note_off_c, 0, 69, 127
1, 308471, Note_on_c, 0, 71, 96
1, 308473, Note_on_c, 0, 59, 90
1, 308476, Note_on_c, 0, 83, 107
1, 308478, Note_on_c, 0, 95, 97
1, 308479, Note_on_c, 0, 63, 73
1, 308483, Note_on_c, 0, 66, 79
1, 308483, Note_on_c, 0, 87, 97
1, 308484, Note_on_c, 0, 90, 102
1, 308484, Control_c, 0, 64, 69
1, 308484, Control_c, 0, 67, 82
1, 308492, Note_off_c, 0, 59, 70
1, 308497, Note_off_c, 0, 71, 63
1, 308499, Control_c, 0, 64, 127
1, 308499, Control_c, 0, 67, 122
1, 308500, Note_off_c, 0, 63, 70
1, 308505, Note_off_c, 0, 66, 69
1, 308505, Note_off_c, 0, 83, 67
1, 308513, Note_on_c, 0, 69, 39
1, 308513, Note_off_c, 0, 69, 127
1, 308514, Control_c, 0, 67, 119
1, 308515, Note_on_c, 0, 92, 42
1, 308515, Note_off_c, 0, 92, 127
1, 308529, Control_c, 0, 67, 115
1, 308550, Control_c, 0, 67, 108
1, 308562, Note_off_c, 0, 87, 63
1, 308565, Control_c, 0, 67, 105
1, 308568, Note_off_c, 0, 90, 64
1, 308580, Control_c, 0, 67, 107
1, 308595, Control_c, 0, 67, 109
1, 308624, Control_c, 0, 67, 103
1, 308639, Control_c, 0, 67, 101
1, 308654, Control_c, 0, 67, 97
1, 308714, Control_c, 0, 67, 93
1, 308728, Control_c, 0, 67, 83
1, 308742, Note_off_c, 0, 95, 60
1, 308743, Control_c, 0, 67, 62
1, 308758, Control_c, 0, 67, 31
1, 308766, Note_on_c, 0, 90, 97
1, 308770, Note_on_c, 0, 78, 91
1, 308773, Control_c, 0, 67, 0
1, 308807, Note_off_c, 0, 78, 69
1, 308825, Note_off_c, 0, 90, 64
1, 308847, Note_on_c, 0, 83, 101
1, 308853, Note_on_c, 0, 71, 81
1, 308872, Note_off_c, 0, 71, 73
1, 308876, Note_off_c, 0, 83, 64
1, 308877, Note_on_c, 0, 72, 49
1, 308903, Note_off_c, 0, 72, 60
1, 309039, Control_c, 0, 64, 94
1, 309054, Control_c, 0, 64, 69
1, 309070, Control_c, 0, 64, 65
1, 309074, Note_on_c, 0, 72, 100
1, 309074, Note_on_c, 0, 84, 105
1, 309080, Note_on_c, 0, 48, 82
1, 309084, Note_on_c, 0, 36, 83
1, 309085, Control_c, 0, 64, 72
1, 309100, Control_c, 0, 64, 94
1, 309106, Note_off_c, 0, 48, 70
1, 309108, Note_off_c, 0, 72, 63
1, 309113, Note_off_c, 0, 84, 62
1, 309114, Note_off_c, 0, 36, 66
1, 309115, Control_c, 0, 64, 127
1, 309206, Note_on_c, 0, 50, 72
1, 309211, Note_on_c, 0, 38, 72
1, 309218, Note_on_c, 0, 74, 81
1, 309223, Note_on_c, 0, 86, 82
1, 309233, Note_off_c, 0, 50, 68
1, 309235, Note_off_c, 0, 38, 65
1, 309238, Note_off_c, 0, 74, 71
1, 309240, Note_off_c, 0, 86, 73
1, 309310, Note_on_c, 0, 51, 90
1, 309317, Note_on_c, 0, 39, 78
1, 309317, Note_on_c, 0, 75, 88
1, 309320, Note_on_c, 0, 87, 93
1, 309334, Note_off_c, 0, 51, 67
1, 309337, Note_off_c, 0, 87, 71
1, 309340, Note_off_c, 0, 75, 63
1, 309342, Note_off_c, 0, 39, 64
1, 309395, Note_on_c, 0, 53, 86
1, 309398, Note_on_c, 0, 41, 79
1, 309401, Note_on_c, 0, 77, 86
1, 309401, Note_on_c, 0, 89, 92
1, 309408, Note_on_c, 0, 42, 66
1, 309420, Note_off_c, 0, 53, 68
1, 309426, Note_off_c, 0, 41, 63
1, 309426, Note_off_c, 0, 77, 65
1, 309433, Note_off_c, 0, 89, 61
1, 309434, Note_off_c, 0, 42, 59
1, 309478, Note_on_c, 0, 91, 99
1, 309479, Note_on_c, 0, 79, 92
1, 309480, Note_on_c, 0, 43, 85
1, 309483, Note_on_c, 0, 55, 87
1, 309508, Note_off_c, 0, 55, 65
1, 309509, Note_off_c, 0, 79, 66
1, 309513, Note_off_c, 0, 43, 64
1, 309515, Note_off_c, 0, 91, 67
1, 309522, Control_c, 0, 64, 67
1, 309530, Note_on_c, 0, 44, 8
1, 309537, Control_c, 0, 64, 0
1, 309559, Note_on_c, 0, 81, 98
1, 309560, Note_on_c, 0, 93, 101
1, 309567, Note_on_c, 0, 45, 95
1, 309567, Note_on_c, 0, 57, 95
1, 309581, Note_off_c, 0, 44, 51
1, 309584, Poly_aftertouch_c, 0, 53, 0
1, 309597, Note_off_c, 0, 81, 65
1, 309599, Note_off_c, 0, 93, 67
1, 309602, Note_off_c, 0, 57, 65
1, 309608, Note_off_c, 0, 45, 64
1, 309709, Note_on_c, 0, 83, 106
1, 309709, Note_on_c, 0, 95, 106
1, 309710, Note_on_c, 0, 87, 103
1, 309712, Note_on_c, 0, 59, 81
1, 309714, Note_on_c, 0, 90, 82
1, 309715, Control_c, 0, 64, 127
1, 309715, Control_c, 0, 67, 38
1, 309715, Note_on_c, 0, 47, 84
1, 309724, Note_off_c, 0, 95, 73
1, 309727, Note_off_c, 0, 87, 73
1, 309729, Note_off_c, 0, 83, 64
1, 309730, Note_off_c, 0, 90, 74
1, 309730, Control_c, 0, 67, 44
1, 309739, Note_on_c, 0, 92, 48
1, 309739, Note_off_c, 0, 92, 127
1, 309745, Note_off_c, 0, 47, 67
1, 309745, Control_c, 0, 67, 36
1, 309745, Note_off_c, 0, 59, 67
1, 309755, Note_on_c, 0, 57, 34
1, 309755, Note_off_c, 0, 57, 127
1, 309760, Control_c, 0, 67, 35
1, 309774, Control_c, 0, 67, 36
1, 309782, Note_on_c, 0, 84, 2
1, 309782, Note_off_c, 0, 84, 127
1, 309789, Control_c, 0, 67, 37
1, 309796, Poly_aftertouch_c, 0, 57, 0
1, 309804, Control_c, 0, 67, 38
1, 309834, Control_c, 0, 67, 36
1, 309848, Control_c, 0, 67, 34
1, 309894, Control_c, 0, 67, 36
1, 309906, Note_on_c, 0, 54, 94
1, 309907, Note_on_c, 0, 42, 88
1, 309909, Control_c, 0, 67, 36
1, 309930, Note_off_c, 0, 54, 66
1, 309933, Note_off_c, 0, 42, 69
1, 309938, Control_c, 0, 67, 34
1, 309953, Control_c, 0, 67, 31
1, 309963, Note_on_c, 0, 78, 86
1, 309968, Control_c, 0, 67, 25
1, 309975, Note_on_c, 0, 90, 79
1, 309983, Control_c, 0, 67, 0
1, 309991, Note_off_c, 0, 78, 64
1, 309994, Note_off_c, 0, 90, 72
1, 310012, Control_c, 0, 64, 92
1, 310027, Control_c, 0, 64, 53
1, 310049, Control_c, 0, 64, 0
1, 310056, Note_on_c, 0, 60, 80
1, 310058, Note_on_c, 0, 48, 74
1, 310061, Note_on_c, 0, 94, 102
1, 310064, Note_on_c, 0, 82, 95
1, 310075, Note_off_c, 0, 60, 72
1, 310082, Note_off_c, 0, 48, 66
1, 310083, Note_off_c, 0, 82, 67
1, 310085, Note_off_c, 0, 94, 61
1, 310109, Control_c, 0, 67, 20
1, 310123, Control_c, 0, 67, 22
1, 310227, Control_c, 0, 67, 24
1, 310235, Note_on_c, 0, 61, 84
1, 310242, Control_c, 0, 64, 77
1, 310243, Note_on_c, 0, 81, 105
1, 310246, Note_on_c, 0, 93, 102
1, 310249, Note_on_c, 0, 49, 68
1, 310257, Note_off_c, 0, 61, 70
1, 310257, Control_c, 0, 64, 127
1, 310261, Note_off_c, 0, 81, 67
1, 310263, Note_off_c, 0, 93, 70
1, 310279, Note_off_c, 0, 49, 66
1, 310315, Control_c, 0, 67, 26
1, 310345, Control_c, 0, 67, 24
1, 310375, Control_c, 0, 67, 22
1, 310419, Control_c, 0, 67, 24
1, 310433, Note_on_c, 0, 57, 56
1, 310435, Note_on_c, 0, 43, 50
1, 310450, Note_on_c, 0, 55, 35
1, 310451, Note_on_c, 0, 45, 39
1, 310454, Note_off_c, 0, 57, 61
1, 310465, Note_off_c, 0, 43, 53
1, 310478, Note_on_c, 0, 76, 87
1, 310481, Note_off_c, 0, 55, 51
1, 310484, Note_on_c, 0, 88, 78
1, 310484, Note_off_c, 0, 45, 50
1, 310499, Note_off_c, 0, 76, 70
1, 310504, Note_off_c, 0, 88, 72
1, 310523, Control_c, 0, 64, 77
1, 310523, Control_c, 0, 67, 26
1, 310538, Control_c, 0, 64, 34
1, 310553, Control_c, 0, 64, 0
1, 310559, Note_on_c, 0, 92, 98
1, 310565, Note_on_c, 0, 62, 81
1, 310565, Note_on_c, 0, 80, 95
1, 310567, Note_on_c, 0, 50, 75
1, 310568, Control_c, 0, 67, 28
1, 310583, Control_c, 0, 64, 39
1, 310583, Control_c, 0, 67, 31
1, 310586, Note_off_c, 0, 62, 70
1, 310592, Note_off_c, 0, 50, 66
1, 310597, Control_c, 0, 64, 66
1, 310597, Control_c, 0, 67, 34
1, 310612, Control_c, 0, 64, 90
1, 310612, Control_c, 0, 67, 38
1, 310627, Control_c, 0, 64, 127
1, 310627, Control_c, 0, 67, 41
1, 310656, Control_c, 0, 67, 40
1, 310672, Control_c, 0, 67, 39
1, 310687, Control_c, 0, 67, 39
1, 310694, Note_off_c, 0, 92, 64
1, 310696, Note_off_c, 0, 80, 61
1, 310702, Control_c, 0, 67, 38
1, 310732, Control_c, 0, 67, 37
1, 310738, Note_on_c, 0, 62, 59
1, 310746, Control_c, 0, 67, 35
1, 310752, Note_on_c, 0, 60, 49
1, 310754, Note_off_c, 0, 62, 67
1, 310776, Control_c, 0, 67, 35
1, 310777, Note_off_c, 0, 60, 59
1, 310806, Note_on_c, 0, 75, 71
1, 310812, Note_on_c, 0, 87, 85
1, 310818, Poly_aftertouch_c, 0, 48, 127
1, 310827, Control_c, 0, 64, 115
1, 310827, Control_c, 0, 67, 35
1, 310829, Note_off_c, 0, 75, 67
1, 310830, Note_off_c, 0, 87, 72
1, 310842, Control_c, 0, 64, 65
1, 310849, Poly_aftertouch_c, 0, 48, 0
1, 310857, Control_c, 0, 64, 0
1, 310874, Note_on_c, 0, 55, 81
1, 310874, Note_on_c, 0, 91, 104
1, 310875, Note_on_c, 0, 43, 80
1, 310876, Note_on_c, 0, 79, 99
1, 310887, Control_c, 0, 67, 36
1, 310897, Note_off_c, 0, 55, 69
1, 310902, Control_c, 0, 64, 47
1, 310902, Control_c, 0, 67, 37
1, 310903, Note_off_c, 0, 43, 68
1, 310916, Control_c, 0, 64, 70
1, 310916, Control_c, 0, 67, 38
1, 310931, Control_c, 0, 64, 108
1, 310931, Control_c, 0, 67, 40
1, 310946, Control_c, 0, 64, 127
1, 310946, Control_c, 0, 67, 41
1, 310976, Control_c, 0, 67, 41
1, 310982, Note_off_c, 0, 91, 65
1, 310991, Control_c, 0, 67, 40
1, 310995, Note_off_c, 0, 79, 63
1, 311006, Control_c, 0, 67, 39
1, 311020, Control_c, 0, 67, 39
1, 311030, Note_on_c, 0, 61, 86
1, 311035, Note_on_c, 0, 49, 79
1, 311057, Note_off_c, 0, 61, 63
1, 311065, Note_off_c, 0, 49, 67
1, 311065, Control_c, 0, 67, 39
1, 311094, Control_c, 0, 67, 39
1, 311100, Note_on_c, 0, 69, 88
1, 311104, Note_on_c, 0, 81, 88
1, 311121, Note_off_c, 0, 81, 73
1, 311122, Note_off_c, 0, 69, 66
1, 311153, Control_c, 0, 64, 77
1, 311153, Control_c, 0, 67, 39
1, 311168, Control_c, 0, 64, 44
1, 311168, Control_c, 0, 67, 40
1, 311180, Note_on_c, 0, 62, 76
1, 311182, Note_on_c, 0, 90, 101
1, 311183, Control_c, 0, 64, 0
1, 311184, Note_on_c, 0, 78, 101
1, 311188, Note_on_c, 0, 50, 74
1, 311194, Note_on_c, 0, 52, 65
1, 311198, Control_c, 0, 64, 45
1, 311198, Control_c, 0, 67, 40
1, 311202, Note_off_c, 0, 62, 69
1, 311206, Note_on_c, 0, 64, 39
1, 311206, Note_off_c, 0, 64, 127
1, 311212, Note_off_c, 0, 50, 66
1, 311212, Control_c, 0, 64, 79
1, 311223, Note_off_c, 0, 52, 64
1, 311227, Control_c, 0, 64, 127
1, 311227, Control_c, 0, 67, 41
1, 311242, Control_c, 0, 67, 42
1, 311257, Control_c, 0, 67, 43
1, 311286, Control_c, 0, 67, 42
1, 311297, Note_off_c, 0, 90, 67
1, 311301, Note_off_c, 0, 78, 60
1, 311301, Control_c, 0, 67, 41
1, 311316, Control_c, 0, 67, 40
1, 311331, Control_c, 0, 67, 39
1, 311339, Note_on_c, 0, 57, 83
1, 311343, Note_on_c, 0, 45, 73
1, 311346, Control_c, 0, 67, 39
1, 311360, Note_off_c, 0, 57, 71
1, 311368, Note_off_c, 0, 45, 66
1, 311375, Control_c, 0, 67, 39
1, 311390, Control_c, 0, 67, 40
1, 311405, Control_c, 0, 67, 41
1, 311442, Note_on_c, 0, 85, 27
1, 311476, Poly_aftertouch_c, 0, 73, 127
1, 311480, Control_c, 0, 67, 41
1, 311483, Note_off_c, 0, 85, 53
1, 311487, Note_on_c, 0, 63, 90
1, 311489, Note_on_c, 0, 77, 89
1, 311489, Note_on_c, 0, 89, 102
1, 311497, Note_on_c, 0, 51, 72
1, 311505, Poly_aftertouch_c, 0, 73, 0
1, 311507, Note_off_c, 0, 63, 70
1, 311514, Note_off_c, 0, 89, 63
1, 311516, Note_off_c, 0, 77, 62
1, 311523, Note_off_c, 0, 51, 66
1, 311576, Control_c, 0, 67, 41
1, 311591, Control_c, 0, 67, 41
1, 311606, Control_c, 0, 67, 39
1, 311621, Control_c, 0, 67, 37
1, 311636, Control_c, 0, 67, 35
1, 311650, Control_c, 0, 64, 100
1, 311650, Control_c, 0, 67, 32
1, 311652, Note_on_c, 0, 64, 82
1, 311656, Note_on_c, 0, 52, 81
1, 311659, Note_on_c, 0, 76, 95
1, 311661, Note_on_c, 0, 88, 95
1, 311665, Control_c, 0, 64, 57
1, 311665, Control_c, 0, 67, 28
1, 311672, Note_off_c, 0, 64, 70
1, 311677, Note_off_c, 0, 76, 71
1, 311678, Note_off_c, 0, 88, 73
1, 311679, Note_off_c, 0, 52, 70
1, 311680, Control_c, 0, 64, 0
1, 311680, Control_c, 0, 67, 0
1, 311823, Note_on_c, 0, 59, 73
1, 311825, Note_on_c, 0, 83, 89
1, 311841, Note_off_c, 0, 83, 72
1, 311844, Note_off_c, 0, 59, 70
1, 311975, Note_on_c, 0, 88, 86
1, 311975, Note_on_c, 0, 76, 84
1, 311978, Note_on_c, 0, 64, 71
1, 311980, Note_on_c, 0, 52, 62
1, 311996, Note_off_c, 0, 76, 69
1, 312001, Note_off_c, 0, 64, 70
1, 312004, Note_off_c, 0, 88, 64
1, 312010, Note_off_c, 0, 52, 64
1, 312140, Control_c, 0, 64, 53
1, 312140, Control_c, 0, 67, 26
1, 312143, Note_on_c, 0, 59, 86
1, 312143, Note_on_c, 0, 83, 101
1, 312155, Control_c, 0, 64, 127
1, 312159, Note_on_c, 0, 81, 73
1, 312159, Note_off_c, 0, 81, 127
1, 312168, Note_on_c, 0, 85, 87
1, 312181, Note_off_c, 0, 83, 67
1, 312184, Control_c, 0, 67, 22
1, 312199, Control_c, 0, 67, 0
1, 312205, Note_on_c, 0, 57, 26
1, 312242, Note_off_c, 0, 85, 61
1, 312247, Note_on_c, 0, 83, 73
1, 312263, Note_off_c, 0, 57, 38
1, 312264, Note_off_c, 0, 59, 56
1, 312292, Note_on_c, 0, 61, 61
1, 312292, Note_off_c, 0, 83, 62
1, 312310, Note_on_c, 0, 85, 79
1, 312325, Note_on_c, 0, 86, 46
1, 312358, Note_off_c, 0, 86, 50
1, 312364, Note_off_c, 0, 85, 63
1, 312369, Note_off_c, 0, 61, 58
1, 312377, Note_on_c, 0, 59, 40
1, 312384, Note_on_c, 0, 83, 55
1, 312398, Note_off_c, 0, 59, 60
1, 312406, Note_off_c, 0, 83, 60
1, 312413, Note_on_c, 0, 84, 24
1, 312422, Note_on_c, 0, 85, 62
1, 312454, Note_off_c, 0, 84, 55
1, 312454, Note_off_c, 0, 85, 46
1, 312466, Note_on_c, 0, 59, 55
1, 312480, Note_on_c, 0, 82, 87
1, 312508, Note_off_c, 0, 59, 48
1, 312523, Note_on_c, 0, 83, 54
1, 312524, Note_on_c, 0, 63, 88
1, 312546, Note_on_c, 0, 85, 75
1, 312565, Note_off_c, 0, 63, 63
1, 312574, Note_off_c, 0, 83, 61
1, 312575, Note_on_c, 0, 87, 71
1, 312578, Note_off_c, 0, 82, 55
1, 312583, Note_off_c, 0, 85, 56
1, 312592, Control_c, 0, 67, 30
1, 312607, Note_on_c, 0, 76, 101
1, 312607, Control_c, 0, 67, 53
1, 312608, Note_on_c, 0, 88, 97
1, 312610, Note_on_c, 0, 64, 87
1, 312619, Note_on_c, 0, 50, 82
1, 312622, Note_on_c, 0, 52, 79
1, 312622, Control_c, 0, 64, 84
1, 312622, Control_c, 0, 67, 60
1, 312633, Note_off_c, 0, 87, 65
1, 312637, Note_off_c, 0, 76, 68
1, 312637, Control_c, 0, 64, 52
1, 312637, Control_c, 0, 67, 56
1, 312641, Note_off_c, 0, 50, 70
1, 312641, Note_off_c, 0, 88, 66
1, 312646, Note_off_c, 0, 64, 62
1, 312647, Note_off_c, 0, 52, 68
1, 312652, Control_c, 0, 64, 0
1, 312652, Control_c, 0, 67, 49
1, 312666, Control_c, 0, 67, 38
1, 312681, Control_c, 0, 67, 33
1, 312696, Control_c, 0, 67, 38
1, 312711, Control_c, 0, 67, 43
1, 312741, Control_c, 0, 67, 40
1, 312756, Control_c, 0, 67, 39
1, 312771, Control_c, 0, 67, 38
1, 312785, Control_c, 0, 67, 39
1, 312788, Note_on_c, 0, 59, 73
1, 312791, Note_on_c, 0, 83, 85
1, 312800, Control_c, 0, 67, 43
1, 312810, Note_off_c, 0, 59, 69
1, 312813, Note_off_c, 0, 83, 67
1, 312815, Control_c, 0, 67, 45
1, 312830, Control_c, 0, 67, 43
1, 312844, Control_c, 0, 67, 39
1, 312858, Control_c, 0, 67, 37
1, 312873, Control_c, 0, 67, 36
1, 312888, Control_c, 0, 67, 40
1, 312903, Control_c, 0, 67, 44
1, 312917, Control_c, 0, 67, 46
1, 312932, Control_c, 0, 67, 45
1, 312937, Note_on_c, 0, 77, 88
1, 312940, Note_on_c, 0, 65, 82
1, 312940, Note_on_c, 0, 89, 99
1, 312947, Control_c, 0, 67, 42
1, 312960, Note_on_c, 0, 52, 54
1, 312962, Control_c, 0, 67, 40
1, 312964, Note_off_c, 0, 65, 69
1, 312964, Note_off_c, 0, 77, 67
1, 312970, Note_off_c, 0, 89, 63
1, 312972, Note_on_c, 0, 53, 33
1, 312977, Control_c, 0, 67, 42
1, 312985, Note_off_c, 0, 52, 57
1, 312991, Control_c, 0, 67, 46
1, 313005, Note_off_c, 0, 53, 47
1, 313006, Control_c, 0, 67, 47
1, 313021, Control_c, 0, 67, 48
1, 313043, Control_c, 0, 67, 47
1, 313058, Control_c, 0, 67, 45
1, 313089, Control_c, 0, 67, 48
1, 313104, Control_c, 0, 67, 49
1, 313111, Note_on_c, 0, 59, 76
1, 313119, Note_on_c, 0, 83, 108
1, 313119, Control_c, 0, 64, 76
1, 313119, Control_c, 0, 67, 47
1, 313134, Control_c, 0, 64, 127
1, 313134, Control_c, 0, 67, 46
1, 313138, Note_on_c, 0, 85, 81
1, 313143, Note_on_c, 0, 87, 68
1, 313148, Control_c, 0, 67, 45
1, 313151, Note_off_c, 0, 83, 67
1, 313163, Control_c, 0, 67, 44
1, 313167, Note_off_c, 0, 87, 65
1, 313178, Control_c, 0, 67, 46
1, 313193, Control_c, 0, 67, 48
1, 313197, Note_on_c, 0, 83, 84
1, 313197, Note_off_c, 0, 85, 65
1, 313216, Note_off_c, 0, 59, 61
1, 313222, Control_c, 0, 67, 44
1, 313226, Note_on_c, 0, 61, 62
1, 313237, Control_c, 0, 67, 40
1, 313252, Control_c, 0, 67, 36
1, 313253, Note_off_c, 0, 83, 59
1, 313259, Note_on_c, 0, 87, 64
1, 313263, Note_on_c, 0, 85, 87
1, 313266, Control_c, 0, 67, 33
1, 313280, Note_off_c, 0, 61, 60
1, 313281, Control_c, 0, 67, 35
1, 313293, Note_on_c, 0, 59, 55
1, 313295, Note_off_c, 0, 87, 59
1, 313296, Control_c, 0, 67, 40
1, 313311, Control_c, 0, 67, 41
1, 313326, Control_c, 0, 67, 39
1, 313332, Note_off_c, 0, 59, 64
1, 313338, Note_on_c, 0, 83, 59
1, 313340, Control_c, 0, 67, 38
1, 313355, Control_c, 0, 67, 37
1, 313359, Note_on_c, 0, 61, 65
1, 313359, Note_off_c, 0, 83, 60
1, 313369, Note_off_c, 0, 85, 65
1, 313370, Control_c, 0, 67, 39
1, 313382, Note_on_c, 0, 58, 60
1, 313385, Control_c, 0, 67, 42
1, 313394, Note_off_c, 0, 61, 62
1, 313400, Control_c, 0, 67, 42
1, 313414, Control_c, 0, 67, 39
1, 313426, Note_on_c, 0, 82, 85
1, 313429, Control_c, 0, 67, 35
1, 313444, Control_c, 0, 67, 30
1, 313459, Control_c, 0, 67, 28
1, 313467, Note_on_c, 0, 63, 87
1, 313473, Note_on_c, 0, 83, 50
1, 313477, Note_on_c, 0, 85, 81
1, 313477, Note_off_c, 0, 58, 61
1, 313489, Control_c, 0, 67, 33
1, 313504, Control_c, 0, 67, 33
1, 313510, Note_on_c, 0, 89, 86
1, 313516, Note_off_c, 0, 63, 64
1, 313518, Note_off_c, 0, 82, 57
1, 313519, Control_c, 0, 67, 32
1, 313519, Note_on_c, 0, 65, 78
1, 313521, Note_off_c, 0, 83, 63
1, 313534, Note_off_c, 0, 85, 66
1, 313546, Note_off_c, 0, 89, 66
1, 313557, Note_off_c, 0, 65, 63
1, 313563, Control_c, 0, 67, 37
1, 313578, Control_c, 0, 67, 57
1, 313593, Control_c, 0, 64, 76
1, 313593, Control_c, 0, 67, 91
1, 313595, Note_on_c, 0, 78, 93
1, 313597, Note_on_c, 0, 90, 104
1, 313607, Control_c, 0, 64, 0
1, 313607, Control_c, 0, 67, 110
1, 313611, Note_on_c, 0, 66, 85
1, 313611, Note_on_c, 0, 54, 80
1, 313626, Note_off_c, 0, 78, 66
1, 313629, Note_off_c, 0, 66, 70
1, 313631, Note_off_c, 0, 90, 66
1, 313637, Note_off_c, 0, 54, 68
1, 313652, Control_c, 0, 67, 108
1, 313681, Control_c, 0, 67, 113
1, 313696, Control_c, 0, 67, 116
1, 313726, Control_c, 0, 67, 113
1, 313740, Control_c, 0, 67, 109
1, 313755, Control_c, 0, 67, 106
1, 313789, Note_on_c, 0, 59, 65
1, 313790, Note_on_c, 0, 83, 92
1, 313793, Control_c, 0, 67, 112
1, 313820, Note_off_c, 0, 59, 65
1, 313822, Note_off_c, 0, 83, 65
1, 313837, Control_c, 0, 67, 106
1, 313852, Control_c, 0, 67, 102
1, 313868, Control_c, 0, 67, 97
1, 313882, Control_c, 0, 67, 100
1, 313897, Control_c, 0, 67, 102
1, 313949, Note_on_c, 0, 67, 81
1, 313949, Note_on_c, 0, 79, 98
1, 313949, Note_on_c, 0, 91, 101
1, 313954, Note_on_c, 0, 55, 76
1, 313978, Note_off_c, 0, 67, 63
1, 313978, Note_off_c, 0, 79, 68
1, 313983, Note_off_c, 0, 55, 64
1, 313983, Note_off_c, 0, 91, 65
1, 313986, Control_c, 0, 67, 104
1, 314045, Control_c, 0, 67, 102
1, 314089, Control_c, 0, 64, 35
1, 314104, Control_c, 0, 64, 127
1, 314104, Control_c, 0, 67, 99
1, 314118, Note_on_c, 0, 59, 84
1, 314119, Note_on_c, 0, 83, 93
1, 314130, Note_on_c, 0, 85, 81
1, 314134, Control_c, 0, 67, 96
1, 314136, Note_off_c, 0, 83, 69
1, 314149, Control_c, 0, 67, 96
1, 314157, Note_on_c, 0, 87, 39
1, 314176, Note_on_c, 0, 83, 73
1, 314180, Note_off_c, 0, 85, 64
1, 314186, Note_off_c, 0, 87, 52
1, 314205, Note_on_c, 0, 61, 78
1, 314208, Control_c, 0, 67, 94
1, 314214, Note_off_c, 0, 59, 58
1, 314223, Control_c, 0, 67, 91
1, 314231, Note_off_c, 0, 83, 64
1, 314234, Note_on_c, 0, 85, 79
1, 314237, Control_c, 0, 67, 87
1, 314252, Control_c, 0, 67, 86
1, 314257, Note_off_c, 0, 61, 58
1, 314258, Note_on_c, 0, 86, 61
1, 314267, Control_c, 0, 67, 89
1, 314282, Control_c, 0, 67, 91
1, 314288, Note_on_c, 0, 59, 56
1, 314291, Note_on_c, 0, 83, 72
1, 314297, Control_c, 0, 67, 90
1, 314312, Control_c, 0, 67, 88
1, 314315, Note_off_c, 0, 83, 69
1, 314319, Note_off_c, 0, 59, 64
1, 314327, Control_c, 0, 67, 86
1, 314341, Control_c, 0, 67, 87
1, 314346, Note_off_c, 0, 86, 59
1, 314347, Note_on_c, 0, 61, 73
1, 314356, Control_c, 0, 67, 89
1, 314359, Note_off_c, 0, 85, 52
1, 314365, Note_on_c, 0, 58, 67
1, 314371, Control_c, 0, 67, 89
1, 314386, Control_c, 0, 67, 86
1, 314398, Note_on_c, 0, 82, 81
1, 314398, Note_off_c, 0, 61, 61
1, 314401, Control_c, 0, 67, 81
1, 314416, Control_c, 0, 67, 68
1, 314422, Note_off_c, 0, 82, 62
1, 314431, Control_c, 0, 67, 51
1, 314446, Control_c, 0, 67, 46
1, 314458, Note_on_c, 0, 88, 46
1, 314461, Control_c, 0, 67, 49
1, 314462, Note_on_c, 0, 83, 71
1, 314468, Note_off_c, 0, 58, 62
1, 314476, Control_c, 0, 67, 48
1, 314477, Note_on_c, 0, 64, 67
1, 314490, Control_c, 0, 67, 37
1, 314496, Note_off_c, 0, 83, 63
1, 314496, Note_off_c, 0, 88, 0
1, 314496, Note_on_c, 0, 88, 12
1, 314503, Note_off_c, 0, 64, 68
1, 314505, Control_c, 0, 67, 0
1, 314571, Control_c, 0, 67, 22
1, 314586, Control_c, 0, 67, 40
1, 314601, Note_on_c, 0, 80, 100
1, 314601, Control_c, 0, 67, 52
1, 314604, Note_on_c, 0, 92, 98
1, 314610, Note_on_c, 0, 68, 101
1, 314611, Note_on_c, 0, 56, 73
1, 314616, Control_c, 0, 67, 52
1, 314626, Note_off_c, 0, 88, 56
1, 314630, Note_on_c, 0, 55, 62
1, 314631, Control_c, 0, 64, 80
1, 314631, Control_c, 0, 67, 50
1, 314633, Note_off_c, 0, 80, 63
1, 314638, Note_off_c, 0, 92, 64
1, 314643, Note_off_c, 0, 56, 65
1, 314646, Control_c, 0, 64, 0
1, 314646, Control_c, 0, 67, 51
1, 314647, Note_off_c, 0, 68, 63
1, 314651, Note_off_c, 0, 55, 61
1, 314661, Control_c, 0, 67, 57
1, 314676, Control_c, 0, 67, 69
1, 314691, Control_c, 0, 67, 86
1, 314706, Control_c, 0, 67, 91
1, 314720, Control_c, 0, 67, 88
1, 314735, Control_c, 0, 67, 85
1, 314750, Control_c, 0, 67, 86
1, 314765, Control_c, 0, 67, 93
1, 314780, Control_c, 0, 67, 97
1, 314795, Control_c, 0, 67, 100
1, 314809, Note_on_c, 0, 83, 86
1, 314809, Control_c, 0, 67, 96
1, 314811, Note_on_c, 0, 59, 48
1, 314816, Note_on_c, 0, 60, 49
1, 314824, Control_c, 0, 67, 90
1, 314832, Note_off_c, 0, 83, 65
1, 314839, Control_c, 0, 67, 87
1, 314842, Note_off_c, 0, 60, 60
1, 314842, Note_off_c, 0, 59, 65
1, 314854, Control_c, 0, 67, 90
1, 314869, Control_c, 0, 67, 95
1, 314899, Control_c, 0, 67, 95
1, 314913, Control_c, 0, 67, 90
1, 314928, Control_c, 0, 67, 85
1, 314943, Control_c, 0, 67, 84
1, 314958, Control_c, 0, 67, 92
1, 314970, Note_on_c, 0, 69, 78
1, 314971, Note_on_c, 0, 81, 97
1, 314972, Note_on_c, 0, 93, 102
1, 314973, Control_c, 0, 67, 94
1, 314977, Note_on_c, 0, 57, 69
1, 314996, Note_off_c, 0, 69, 63
1, 315002, Note_off_c, 0, 81, 64
1, 315002, Control_c, 0, 67, 89
1, 315006, Note_off_c, 0, 93, 65
1, 315012, Note_off_c, 0, 57, 64
1, 315017, Control_c, 0, 67, 85
1, 315031, Control_c, 0, 67, 83
1, 315046, Control_c, 0, 67, 89
1, 315061, Control_c, 0, 67, 95
1, 315076, Control_c, 0, 67, 97
1, 315091, Control_c, 0, 67, 95
1, 315105, Control_c, 0, 67, 90
1, 315120, Control_c, 0, 67, 87
1, 315135, Control_c, 0, 67, 89
1, 315150, Control_c, 0, 67, 96
1, 315165, Control_c, 0, 67, 98
1, 315172, Note_on_c, 0, 59, 76
1, 315176, Note_on_c, 0, 83, 95
1, 315179, Control_c, 0, 67, 94
1, 315194, Control_c, 0, 67, 91
1, 315200, Note_off_c, 0, 83, 67
1, 315203, Note_off_c, 0, 59, 66
1, 315209, Control_c, 0, 67, 89
1, 315224, Control_c, 0, 67, 91
1, 315239, Control_c, 0, 67, 99
1, 315254, Control_c, 0, 67, 105
1, 315306, Control_c, 0, 67, 103
1, 315335, Control_c, 0, 67, 109
1, 315350, Control_c, 0, 67, 115
1, 315365, Control_c, 0, 67, 120
1, 315397, Note_on_c, 0, 94, 102
1, 315398, Note_on_c, 0, 82, 97
1, 315403, Note_on_c, 0, 70, 93
1, 315409, Note_on_c, 0, 58, 73
1, 315424, Control_c, 0, 67, 122
1, 315427, Note_off_c, 0, 82, 63
1, 315430, Note_off_c, 0, 70, 68
1, 315435, Note_off_c, 0, 58, 67
1, 315437, Note_off_c, 0, 94, 65
1, 315438, Control_c, 0, 67, 125
1, 315558, Control_c, 0, 67, 123
1, 315588, Control_c, 0, 67, 121
1, 315617, Control_c, 0, 67, 123
1, 315647, Control_c, 0, 67, 121
1, 315677, Control_c, 0, 67, 119
1, 315707, Control_c, 0, 67, 122
1, 315714, Note_on_c, 0, 71, 84
1, 315714, Note_on_c, 0, 95, 94
1, 315716, Note_on_c, 0, 83, 102
1, 315720, Note_on_c, 0, 59, 73
1, 315734, Note_off_c, 0, 71, 71
1, 315736, Control_c, 0, 67, 119
1, 315740, Note_off_c, 0, 83, 67
1, 315743, Note_off_c, 0, 95, 62
1, 315745, Note_off_c, 0, 59, 68
1, 315781, Control_c, 0, 67, 125
1, 315796, Control_c, 0, 67, 127
1, 316173, Control_c, 0, 64, 35
1, 316187, Control_c, 0, 64, 57
1, 316202, Control_c, 0, 64, 75
1, 316204, Note_on_c, 0, 88, 64
1, 316205, Note_on_c, 0, 36, 45
1, 316210, Note_on_c, 0, 84, 57
1, 316217, Control_c, 0, 64, 108
1, 316219, Note_on_c, 0, 48, 41
1, 316224, Note_off_c, 0, 88, 67
1, 316232, Note_off_c, 0, 84, 64
1, 316232, Control_c, 0, 64, 127
1, 316244, Note_off_c, 0, 36, 61
1, 316255, Note_off_c, 0, 48, 64
1, 316404, Note_on_c, 0, 82, 80
1, 316411, Control_c, 0, 64, 81
1, 316415, Note_on_c, 0, 55, 56
1, 316419, Note_on_c, 0, 58, 62
1, 316422, Note_on_c, 0, 86, 39
1, 316426, Control_c, 0, 64, 41
1, 316430, Note_off_c, 0, 82, 61
1, 316437, Note_off_c, 0, 55, 58
1, 316440, Control_c, 0, 64, 0
1, 316449, Note_off_c, 0, 86, 53
1, 316452, Note_off_c, 0, 58, 65
1, 316482, Note_on_c, 0, 80, 80
1, 316483, Note_on_c, 0, 84, 76
1, 316506, Note_off_c, 0, 80, 65
1, 316519, Note_off_c, 0, 84, 63
1, 316556, Note_on_c, 0, 83, 79
1, 316559, Note_on_c, 0, 55, 46
1, 316563, Note_on_c, 0, 79, 74
1, 316565, Note_on_c, 0, 64, 47
1, 316571, Note_on_c, 0, 58, 53
1, 316576, Note_off_c, 0, 83, 71
1, 316587, Note_off_c, 0, 79, 70
1, 316589, Note_off_c, 0, 64, 55
1, 316596, Note_off_c, 0, 55, 63
1, 316597, Note_off_c, 0, 58, 62
1, 316634, Note_on_c, 0, 78, 66
1, 316635, Note_on_c, 0, 82, 76
1, 316658, Note_off_c, 0, 78, 69
1, 316663, Note_off_c, 0, 82, 61
1, 316705, Note_on_c, 0, 77, 66
1, 316706, Note_on_c, 0, 81, 82
1, 316714, Note_on_c, 0, 41, 64
1, 316720, Note_on_c, 0, 53, 74
1, 316720, Note_off_c, 0, 77, 68
1, 316726, Note_off_c, 0, 81, 72
1, 316741, Note_off_c, 0, 41, 62
1, 316746, Note_off_c, 0, 53, 66
1, 316900, Note_on_c, 0, 93, 63
1, 316906, Note_on_c, 0, 91, 53
1, 316921, Control_c, 0, 64, 62
1, 316927, Note_on_c, 0, 60, 58
1, 316929, Note_off_c, 0, 91, 62
1, 316929, Note_off_c, 0, 93, 68
1, 316930, Note_on_c, 0, 84, 65
1, 316932, Note_on_c, 0, 96, 72
1, 316933, Note_on_c, 0, 57, 58
1, 316934, Note_on_c, 0, 53, 42
1, 316936, Control_c, 0, 64, 68
1, 316947, Note_off_c, 0, 84, 66
1, 316948, Note_off_c, 0, 96, 68
1, 316951, Control_c, 0, 64, 71
1, 316956, Note_on_c, 0, 95, 34
1, 316956, Note_off_c, 0, 95, 127
1, 316962, Note_off_c, 0, 60, 65
1, 316965, Note_off_c, 0, 57, 65
1, 316965, Control_c, 0, 64, 80
1, 316967, Note_off_c, 0, 53, 61
1, 316980, Control_c, 0, 64, 127
1, 317096, Note_on_c, 0, 60, 59
1, 317105, Note_on_c, 0, 57, 48
1, 317106, Note_on_c, 0, 65, 53
1, 317122, Note_off_c, 0, 60, 67
1, 317129, Note_off_c, 0, 65, 60
1, 317137, Note_off_c, 0, 57, 62
1, 317144, Control_c, 0, 64, 83
1, 317159, Control_c, 0, 64, 54
1, 317173, Control_c, 0, 64, 0
1, 317275, Note_on_c, 0, 41, 59
1, 317275, Note_on_c, 0, 53, 68
1, 317275, Note_on_c, 0, 84, 82
1, 317280, Note_on_c, 0, 80, 76
1, 317293, Control_c, 0, 64, 60
1, 317300, Note_off_c, 0, 41, 59
1, 317304, Note_off_c, 0, 53, 66
1, 317307, Control_c, 0, 64, 78
1, 317322, Control_c, 0, 64, 127
1, 317334, Note_off_c, 0, 84, 62
1, 317452, Note_on_c, 0, 83, 85
1, 317453, Note_on_c, 0, 79, 83
1, 317455, Control_c, 0, 64, 106
1, 317458, Note_on_c, 0, 60, 58
1, 317470, Control_c, 0, 64, 64
1, 317474, Note_off_c, 0, 79, 71
1, 317475, Note_off_c, 0, 80, 59
1, 317485, Control_c, 0, 64, 0
1, 317497, Note_off_c, 0, 60, 64
1, 317535, Note_off_c, 0, 83, 62
1, 317536, Note_on_c, 0, 82, 90
1, 317537, Note_on_c, 0, 78, 75
1, 317557, Note_off_c, 0, 78, 71
1, 317577, Note_off_c, 0, 82, 62
1, 317609, Note_on_c, 0, 60, 59
1, 317613, Note_on_c, 0, 65, 49
1, 317615, Note_on_c, 0, 77, 76
1, 317623, Note_on_c, 0, 81, 74
1, 317629, Note_off_c, 0, 60, 65
1, 317632, Note_off_c, 0, 77, 71
1, 317641, Note_off_c, 0, 65, 51
1, 317661, Note_off_c, 0, 81, 50
1, 317691, Note_on_c, 0, 74, 74
1, 317692, Note_on_c, 0, 80, 84
1, 317707, Note_off_c, 0, 74, 67
1, 317709, Note_off_c, 0, 80, 73
1, 317762, Note_on_c, 0, 76, 69
1, 317763, Note_on_c, 0, 38, 69
1, 317769, Note_on_c, 0, 79, 80
1, 317776, Note_on_c, 0, 48, 55
1, 317787, Note_off_c, 0, 76, 68
1, 317789, Note_off_c, 0, 38, 65
1, 317792, Note_off_c, 0, 79, 69
1, 317801, Note_off_c, 0, 48, 59
1, 317932, Note_on_c, 0, 88, 74
1, 317952, Control_c, 0, 64, 51
1, 317954, Note_on_c, 0, 55, 56
1, 317958, Note_on_c, 0, 91, 86
1, 317963, Note_on_c, 0, 64, 53
1, 317963, Note_off_c, 0, 88, 67
1, 317965, Note_on_c, 0, 60, 43
1, 317967, Control_c, 0, 64, 71
1, 317969, Note_on_c, 0, 79, 65
1, 317976, Note_off_c, 0, 91, 71
1, 317982, Control_c, 0, 64, 82
1, 317988, Note_off_c, 0, 79, 64
1, 317993, Note_off_c, 0, 64, 63
1, 317994, Note_off_c, 0, 55, 61
1, 317997, Control_c, 0, 64, 92
1, 318008, Note_off_c, 0, 60, 52
1, 318011, Control_c, 0, 64, 100
1, 318026, Control_c, 0, 64, 127
1, 318117, Note_on_c, 0, 64, 60
1, 318130, Note_on_c, 0, 67, 53
1, 318142, Note_off_c, 0, 64, 68
1, 318143, Note_on_c, 0, 60, 58
1, 318152, Note_off_c, 0, 67, 61
1, 318160, Control_c, 0, 64, 79
1, 318166, Note_off_c, 0, 60, 64
1, 318174, Control_c, 0, 64, 48
1, 318189, Control_c, 0, 64, 0
1, 318297, Note_on_c, 0, 77, 80
1, 318297, Note_on_c, 0, 81, 80
1, 318300, Control_c, 0, 64, 35
1, 318305, Note_on_c, 0, 48, 75
1, 318309, Note_on_c, 0, 36, 69
1, 318315, Control_c, 0, 64, 64
1, 318327, Note_off_c, 0, 48, 70
1, 318330, Control_c, 0, 64, 78
1, 318338, Note_off_c, 0, 36, 63
1, 318345, Control_c, 0, 64, 108
1, 318360, Control_c, 0, 64, 127
1, 318437, Note_off_c, 0, 81, 54
1, 318453, Note_off_c, 0, 77, 51
1, 318484, Note_on_c, 0, 76, 77
1, 318485, Note_on_c, 0, 80, 78
1, 318489, Note_on_c, 0, 58, 67
1, 318490, Note_on_c, 0, 50, 62
1, 318501, Note_on_c, 0, 55, 44
1, 318508, Control_c, 0, 64, 120
1, 318523, Control_c, 0, 64, 69
1, 318524, Note_off_c, 0, 76, 62
1, 318524, Note_off_c, 0, 50, 62
1, 318524, Note_off_c, 0, 58, 60
1, 318530, Note_off_c, 0, 55, 59
1, 318537, Control_c, 0, 64, 0
1, 318541, Note_off_c, 0, 80, 63
1, 318565, Note_on_c, 0, 79, 73
1, 318571, Note_on_c, 0, 75, 68
1, 318597, Note_off_c, 0, 75, 67
1, 318625, Note_off_c, 0, 79, 64
1, 318636, Note_on_c, 0, 58, 55
1, 318636, Note_on_c, 0, 78, 77
1, 318639, Note_on_c, 0, 74, 73
1, 318643, Note_on_c, 0, 64, 43
1, 318645, Note_on_c, 0, 55, 56
1, 318668, Note_off_c, 0, 58, 65
1, 318670, Note_off_c, 0, 64, 52
1, 318670, Note_off_c, 0, 74, 60
1, 318678, Note_off_c, 0, 55, 64
1, 318708, Note_on_c, 0, 73, 83
1, 318720, Note_off_c, 0, 78, 61
1, 318732, Note_off_c, 0, 73, 67
1, 318736, Note_on_c, 0, 77, 55
1, 318756, Note_off_c, 0, 77, 63
1, 318794, Note_on_c, 0, 35, 67
1, 318795, Note_on_c, 0, 47, 59
1, 318805, Note_on_c, 0, 76, 82
1, 318812, Note_on_c, 0, 72, 66
1, 318817, Note_off_c, 0, 47, 60
1, 318819, Note_off_c, 0, 35, 59
1, 318827, Note_off_c, 0, 76, 68
1, 318837, Note_off_c, 0, 72, 69
1, 318974, Note_on_c, 0, 80, 67
1, 318985, Note_on_c, 0, 47, 49
1, 318991, Note_on_c, 0, 52, 50
1, 318998, Note_off_c, 0, 80, 69
1, 319004, Note_on_c, 0, 71, 67
1, 319006, Note_on_c, 0, 83, 86
1, 319033, Control_c, 0, 64, 41
1, 319040, Note_off_c, 0, 47, 61
1, 319043, Note_off_c, 0, 71, 65
1, 319048, Control_c, 0, 64, 60
1, 319049, Note_off_c, 0, 52, 57
1, 319063, Control_c, 0, 64, 68
1, 319078, Control_c, 0, 64, 72
1, 319093, Control_c, 0, 64, 74
1, 319108, Control_c, 0, 64, 75
1, 319123, Control_c, 0, 64, 78
1, 319138, Control_c, 0, 64, 82
1, 319152, Control_c, 0, 64, 87
1, 319167, Control_c, 0, 64, 91
1, 319174, Note_on_c, 0, 59, 49
1, 319175, Note_on_c, 0, 70, 88
1, 319176, Note_on_c, 0, 52, 62
1, 319180, Note_off_c, 0, 83, 49
1, 319182, Control_c, 0, 64, 93
1, 319197, Control_c, 0, 64, 99
1, 319197, Note_off_c, 0, 59, 59
1, 319209, Note_off_c, 0, 52, 64
1, 319211, Control_c, 0, 64, 109
1, 319226, Control_c, 0, 64, 127
1, 319227, Note_off_c, 0, 70, 63
1, 319330, Control_c, 0, 64, 97
1, 319332, Note_on_c, 0, 35, 70
1, 319337, Note_on_c, 0, 47, 70
1, 319337, Note_on_c, 0, 69, 82
1, 319340, Note_on_c, 0, 71, 79
1, 319345, Control_c, 0, 64, 61
1, 319359, Control_c, 0, 64, 0
1, 319364, Note_off_c, 0, 35, 64
1, 319364, Note_off_c, 0, 47, 68
1, 319366, Note_off_c, 0, 69, 65
1, 319366, Note_off_c, 0, 71, 65
1, 319521, Note_on_c, 0, 68, 71
1, 319534, Note_on_c, 0, 52, 34
1, 319538, Control_c, 0, 64, 37
1, 319541, Note_on_c, 0, 47, 38
1, 319543, Poly_aftertouch_c, 0, 77, 127
1, 319544, Note_on_c, 0, 80, 72
1, 319553, Control_c, 0, 64, 55
1, 319568, Control_c, 0, 64, 62
1, 319569, Poly_aftertouch_c, 0, 77, 0
1, 319571, Note_off_c, 0, 52, 50
1, 319573, Note_off_c, 0, 47, 48
1, 319582, Control_c, 0, 64, 66
1, 319598, Control_c, 0, 64, 70
1, 319609, Note_off_c, 0, 68, 60
1, 319613, Control_c, 0, 64, 76
1, 319627, Control_c, 0, 64, 83
1, 319642, Control_c, 0, 64, 89
1, 319654, Note_off_c, 0, 80, 62
1, 319657, Control_c, 0, 64, 95
1, 319672, Control_c, 0, 64, 107
1, 319687, Control_c, 0, 64, 127
1, 319709, Note_on_c, 0, 52, 56
1, 319709, Note_on_c, 0, 67, 74
1, 319714, Note_on_c, 0, 59, 33
1, 319745, Note_off_c, 0, 52, 64
1, 319749, Note_off_c, 0, 59, 50
1, 319759, Note_off_c, 0, 67, 59
1, 319849, Note_on_c, 0, 35, 74
1, 319862, Note_on_c, 0, 73, 19
1, 319908, Note_off_c, 0, 73, 50
1, 319912, Note_on_c, 0, 47, 51
1, 319912, Note_off_c, 0, 35, 61
1, 319931, Control_c, 0, 64, 88
1, 319940, Note_on_c, 0, 66, 80
1, 319946, Control_c, 0, 64, 66
1, 319960, Control_c, 0, 64, 45
1, 319963, Note_off_c, 0, 47, 59
1, 319975, Control_c, 0, 64, 0
1, 320011, Note_off_c, 0, 66, 58
1, 320023, Note_on_c, 0, 69, 70
1, 320035, Control_c, 0, 64, 35
1, 320050, Control_c, 0, 64, 33
1, 320065, Control_c, 0, 64, 0
1, 320081, Note_off_c, 0, 69, 61
1, 320119, Note_on_c, 0, 54, 57
1, 320121, Note_on_c, 0, 47, 41
1, 320125, Note_on_c, 0, 73, 69
1, 320127, Note_on_c, 0, 64, 73
1, 320150, Note_off_c, 0, 73, 67
1, 320152, Note_off_c, 0, 47, 60
1, 320152, Note_off_c, 0, 64, 67
1, 320159, Note_off_c, 0, 54, 61
1, 320391, Control_c, 0, 67, 78
1, 320393, Note_on_c, 0, 54, 68
1, 320406, Control_c, 0, 67, 0
1, 320414, Note_on_c, 0, 57, 38
1, 320414, Note_on_c, 0, 63, 87
1, 320418, Note_on_c, 0, 72, 81
1, 320426, Note_off_c, 0, 54, 66
1, 320446, Note_off_c, 0, 57, 51
1, 320469, Note_off_c, 0, 63, 63
1, 320476, Note_off_c, 0, 72, 63
1, 320510, Control_c, 0, 64, 127
1, 320536, Note_on_c, 0, 64, 96
1, 320537, Note_on_c, 0, 71, 101
1, 320569, Note_off_c, 0, 64, 68
1, 320580, Note_off_c, 0, 71, 69
1, 320667, Note_on_c, 0, 40, 95
1, 320673, Note_on_c, 0, 28, 96
1, 320687, Note_on_c, 0, 92, 97
1, 320688, Note_on_c, 0, 80, 106
1, 320688, Note_on_c, 0, 88, 96
1, 320700, Note_off_c, 0, 28, 68
1, 320701, Note_off_c, 0, 40, 68
1, 320710, Control_c, 0, 67, 58
1, 320719, Note_on_c, 0, 30, 27
1, 320739, Control_c, 0, 67, 61
1, 320754, Control_c, 0, 67, 65
1, 320765, Note_off_c, 0, 30, 49
1, 320769, Control_c, 0, 67, 66
1, 320777, Note_off_c, 0, 92, 57
1, 320777, Note_off_c, 0, 80, 58
1, 320783, Control_c, 0, 67, 65
1, 320798, Control_c, 0, 67, 57
1, 320813, Control_c, 0, 67, 44
1, 320820, Note_off_c, 0, 88, 61
1, 320828, Control_c, 0, 67, 26
1, 320843, Control_c, 0, 67, 0
1, 320920, Note_on_c, 0, 62, 73
1, 320921, Note_on_c, 0, 52, 71
1, 320921, Note_on_c, 0, 78, 83
1, 320921, Note_on_c, 0, 90, 90
1, 320923, Note_on_c, 0, 86, 72
1, 320924, Note_on_c, 0, 56, 74
1, 320933, Note_on_c, 0, 60, 66
1, 320939, Note_off_c, 0, 78, 73
1, 320941, Note_off_c, 0, 90, 68
1, 320944, Note_off_c, 0, 62, 69
1, 320944, Note_off_c, 0, 86, 69
1, 320953, Note_off_c, 0, 60, 66
1, 320956, Note_off_c, 0, 52, 60
1, 320960, Note_off_c, 0, 56, 58
1, 321001, Note_on_c, 0, 88, 86
1, 321002, Note_on_c, 0, 76, 94
1, 321003, Note_on_c, 0, 85, 97
1, 321006, Control_c, 0, 64, 68
1, 321021, Control_c, 0, 64, 0
1, 321031, Note_off_c, 0, 76, 64
1, 321046, Note_off_c, 0, 85, 65
1, 321048, Note_off_c, 0, 88, 64
1, 321081, Note_on_c, 0, 62, 49
1, 321085, Note_on_c, 0, 75, 97
1, 321085, Note_on_c, 0, 87, 91
1, 321088, Note_on_c, 0, 64, 78
1, 321091, Note_on_c, 0, 56, 83
1, 321095, Note_on_c, 0, 83, 80
1, 321110, Note_off_c, 0, 64, 71
1, 321114, Note_off_c, 0, 83, 71
1, 321119, Note_on_c, 0, 85, 7
1, 321119, Note_off_c, 0, 85, 127
1, 321121, Note_off_c, 0, 62, 63
1, 321121, Note_off_c, 0, 87, 66
1, 321130, Note_off_c, 0, 75, 63
1, 321138, Note_off_c, 0, 56, 63
1, 321178, Note_on_c, 0, 86, 89
1, 321187, Note_on_c, 0, 82, 77
1, 321190, Note_on_c, 0, 74, 93
1, 321211, Note_off_c, 0, 74, 68
1, 321215, Note_off_c, 0, 82, 64
1, 321216, Note_off_c, 0, 86, 65
1, 321244, Control_c, 0, 67, 71
1, 321257, Note_on_c, 0, 80, 95
1, 321259, Control_c, 0, 64, 76
1, 321259, Control_c, 0, 67, 106
1, 321263, Note_on_c, 0, 45, 91
1, 321263, Note_on_c, 0, 73, 91
1, 321264, Note_on_c, 0, 33, 101
1, 321268, Note_on_c, 0, 84, 101
1, 321269, Note_on_c, 0, 85, 76
1, 321281, Control_c, 0, 64, 127
1, 321281, Control_c, 0, 67, 97
1, 321281, Note_on_c, 0, 72, 76
1, 321291, Note_off_c, 0, 45, 72
1, 321295, Note_off_c, 0, 33, 69
1, 321296, Note_off_c, 0, 72, 71
1, 321296, Note_off_c, 0, 80, 69
1, 321300, Note_off_c, 0, 85, 63
1, 321305, Note_off_c, 0, 84, 62
1, 321308, Note_off_c, 0, 73, 63
1, 321311, Control_c, 0, 67, 95
1, 321323, Note_on_c, 0, 43, 8
1, 321341, Control_c, 0, 67, 97
1, 321355, Control_c, 0, 67, 95
1, 321367, Note_off_c, 0, 43, 46
1, 321370, Control_c, 0, 67, 90
1, 321385, Control_c, 0, 67, 78
1, 321399, Control_c, 0, 67, 65
1, 321414, Control_c, 0, 67, 57
1, 321429, Control_c, 0, 67, 58
1, 321444, Control_c, 0, 67, 62
1, 321458, Note_on_c, 0, 97, 95
1, 321459, Control_c, 0, 67, 66
1, 321462, Note_on_c, 0, 52, 71
1, 321466, Note_on_c, 0, 88, 96
1, 321467, Note_on_c, 0, 61, 81
1, 321472, Note_on_c, 0, 57, 54
1, 321473, Control_c, 0, 67, 69
1, 321474, Note_on_c, 0, 100, 88
1, 321481, Note_off_c, 0, 88, 73
1, 321482, Note_on_c, 0, 99, 63
1, 321482, Note_on_c, 0, 101, 78
1, 321488, Control_c, 0, 67, 72
1, 321493, Note_off_c, 0, 100, 74
1, 321495, Note_off_c, 0, 97, 65
1, 321498, Note_off_c, 0, 101, 67
1, 321503, Control_c, 0, 67, 71
1, 321504, Note_off_c, 0, 99, 60
1, 321514, Note_off_c, 0, 57, 59
1, 321518, Control_c, 0, 67, 70
1, 321522, Note_off_c, 0, 52, 62
1, 321533, Control_c, 0, 67, 64
1, 321535, Note_off_c, 0, 61, 52
1, 321547, Control_c, 0, 67, 44
1, 321562, Control_c, 0, 67, 0
1, 321575, Poly_aftertouch_c, 0, 56, 0
1, 321638, Note_on_c, 0, 61, 71
1, 321641, Note_on_c, 0, 64, 88
1, 321649, Note_on_c, 0, 57, 77
1, 321666, Note_off_c, 0, 64, 67
1, 321680, Note_off_c, 0, 61, 63
1, 321680, Control_c, 0, 64, 69
1, 321686, Note_off_c, 0, 57, 62
1, 321695, Control_c, 0, 64, 0
1, 321816, Note_on_c, 0, 50, 103
1, 321821, Note_on_c, 0, 38, 97
1, 321829, Note_on_c, 0, 76, 104
1, 321829, Note_on_c, 0, 84, 97
1, 321829, Note_on_c, 0, 88, 101
1, 321829, Control_c, 0, 67, 50
1, 321845, Note_off_c, 0, 38, 73
1, 321845, Control_c, 0, 64, 127
1, 321845, Control_c, 0, 67, 97
1, 321850, Note_off_c, 0, 50, 66
1, 321871, Note_off_c, 0, 76, 64
1, 321875, Control_c, 0, 67, 87
1, 321890, Control_c, 0, 67, 81
1, 321904, Note_off_c, 0, 88, 64
1, 321904, Control_c, 0, 67, 80
1, 321919, Control_c, 0, 67, 81
1, 321934, Control_c, 0, 67, 76
1, 321949, Control_c, 0, 67, 54
1, 321954, Note_off_c, 0, 84, 60
1, 321964, Control_c, 0, 67, 0
1, 322016, Note_on_c, 0, 54, 79
1, 322016, Note_on_c, 0, 60, 81
1, 322026, Note_on_c, 0, 86, 86
1, 322026, Note_on_c, 0, 50, 72
1, 322035, Note_on_c, 0, 75, 77
1, 322051, Note_off_c, 0, 60, 64
1, 322053, Note_on_c, 0, 83, 41
1, 322059, Note_off_c, 0, 75, 67
1, 322060, Note_off_c, 0, 50, 60
1, 322068, Note_off_c, 0, 86, 61
1, 322080, Note_off_c, 0, 54, 59
1, 322082, Note_off_c, 0, 83, 56
1, 322105, Note_on_c, 0, 86, 72
1, 322111, Note_on_c, 0, 74, 97
1, 322116, Note_on_c, 0, 82, 90
1, 322136, Note_off_c, 0, 82, 67
1, 322143, Note_off_c, 0, 74, 63
1, 322150, Note_off_c, 0, 86, 64
1, 322186, Note_on_c, 0, 62, 86
1, 322189, Note_on_c, 0, 60, 77
1, 322193, Note_on_c, 0, 54, 89
1, 322193, Note_on_c, 0, 74, 99
1, 322193, Control_c, 0, 64, 120
1, 322195, Note_on_c, 0, 86, 87
1, 322199, Note_on_c, 0, 84, 77
1, 322206, Note_off_c, 0, 62, 71
1, 322207, Note_off_c, 0, 60, 75
1, 322208, Control_c, 0, 64, 61
1, 322215, Note_off_c, 0, 84, 64
1, 322217, Note_off_c, 0, 74, 66
1, 322220, Note_on_c, 0, 81, 49
1, 322221, Note_off_c, 0, 86, 61
1, 322223, Control_c, 0, 64, 0
1, 322226, Note_off_c, 0, 54, 60
1, 322239, Note_off_c, 0, 81, 39
1, 322272, Note_on_c, 0, 85, 78
1, 322278, Note_on_c, 0, 73, 85
1, 322280, Note_on_c, 0, 86, 91
1, 322287, Note_on_c, 0, 72, 82
1, 322287, Note_on_c, 0, 84, 71
1, 322298, Note_off_c, 0, 73, 70
1, 322298, Note_off_c, 0, 85, 69
1, 322306, Note_off_c, 0, 72, 72
1, 322307, Note_off_c, 0, 86, 64
1, 322310, Note_off_c, 0, 84, 68
1, 322356, Control_c, 0, 67, 39
1, 322361, Note_on_c, 0, 43, 97
1, 322364, Note_on_c, 0, 71, 106
1, 322365, Note_on_c, 0, 31, 100
1, 322366, Note_on_c, 0, 81, 95
1, 322368, Note_on_c, 0, 78, 88
1, 322371, Control_c, 0, 67, 127
1, 322383, Note_off_c, 0, 78, 75
1, 322385, Note_on_c, 0, 83, 57
1, 322385, Note_off_c, 0, 83, 127
1, 322386, Control_c, 0, 64, 122
1, 322387, Note_off_c, 0, 43, 69
1, 322389, Note_off_c, 0, 31, 71
1, 322390, Note_off_c, 0, 71, 69
1, 322395, Note_off_c, 0, 81, 69
1, 322401, Control_c, 0, 64, 127
1, 322430, Control_c, 0, 67, 108
1, 322445, Control_c, 0, 67, 84
1, 322460, Control_c, 0, 67, 77
1, 322475, Control_c, 0, 67, 76
1, 322490, Control_c, 0, 67, 61
1, 322504, Control_c, 0, 67, 25
1, 322519, Control_c, 0, 67, 0
1, 322540, Note_on_c, 0, 93, 85
1, 322547, Note_on_c, 0, 96, 104
1, 322551, Note_on_c, 0, 84, 86
1, 322554, Note_on_c, 0, 86, 81
1, 322558, Note_on_c, 0, 50, 73
1, 322565, Note_off_c, 0, 93, 63
1, 322569, Note_off_c, 0, 84, 73
1, 322572, Note_off_c, 0, 86, 72
1, 322574, Note_off_c, 0, 96, 64
1, 322575, Note_on_c, 0, 59, 62
1, 322575, Note_on_c, 0, 95, 41
1, 322581, Note_on_c, 0, 55, 42
1, 322590, Note_on_c, 0, 58, 31
1, 322595, Note_off_c, 0, 50, 61
1, 322604, Note_off_c, 0, 59, 62
1, 322605, Note_off_c, 0, 95, 58
1, 322624, Note_off_c, 0, 58, 53
1, 322641, Note_off_c, 0, 55, 0
1, 322679, Poly_aftertouch_c, 0, 55, 127
1, 322689, Note_on_c, 0, 55, 8
1, 322712, Note_off_c, 0, 55, 0
1, 322723, Note_on_c, 0, 62, 90
1, 322726, Note_on_c, 0, 55, 61
1, 322727, Note_on_c, 0, 59, 87
1, 322745, Note_off_c, 0, 62, 67
1, 322756, Note_off_c, 0, 59, 66
1, 322757, Control_c, 0, 64, 86
1, 322778, Note_off_c, 0, 55, 63
1, 322779, Control_c, 0, 64, 0
1, 322912, Note_on_c, 0, 49, 108
1, 322913, Control_c, 0, 64, 37
1, 322913, Control_c, 0, 67, 47
1, 322921, Note_on_c, 0, 37, 86
1, 322921, Note_on_c, 0, 84, 105
1, 322922, Note_on_c, 0, 82, 93
1, 322924, Note_on_c, 0, 72, 82
1, 322927, Control_c, 0, 64, 127
1, 322927, Control_c, 0, 67, 127
1, 322929, Note_on_c, 0, 74, 88
1, 322940, Note_off_c, 0, 49, 61
1, 322946, Note_on_c, 0, 39, 45
1, 322946, Note_off_c, 0, 37, 64
1, 322947, Note_off_c, 0, 72, 66
1, 322947, Note_off_c, 0, 74, 72
1, 322980, Note_off_c, 0, 39, 56
1, 322989, Note_on_c, 0, 86, 3
1, 322989, Note_off_c, 0, 86, 127
1, 323000, Note_off_c, 0, 84, 57
1, 323010, Note_off_c, 0, 82, 62
1, 323031, Control_c, 0, 67, 123
1, 323046, Control_c, 0, 67, 100
1, 323061, Control_c, 0, 67, 69
1, 323076, Control_c, 0, 67, 41
1, 323090, Control_c, 0, 67, 24
1, 323102, Note_on_c, 0, 62, 69
1, 323102, Note_on_c, 0, 73, 89
1, 323104, Note_on_c, 0, 64, 73
1, 323105, Control_c, 0, 67, 0
1, 323118, Note_on_c, 0, 84, 49
1, 323121, Note_off_c, 0, 62, 63
1, 323126, Note_off_c, 0, 73, 65
1, 323129, Note_on_c, 0, 85, 63
1, 323130, Note_off_c, 0, 64, 67
1, 323145, Note_off_c, 0, 84, 56
1, 323149, Note_off_c, 0, 85, 64
1, 323163, Poly_aftertouch_c, 0, 53, 127
1, 323171, Poly_aftertouch_c, 0, 60, 127
1, 323180, Note_on_c, 0, 84, 82
1, 323183, Note_on_c, 0, 72, 89
1, 323186, Note_on_c, 0, 83, 69
1, 323195, Poly_aftertouch_c, 0, 59, 127
1, 323198, Note_on_c, 0, 62, 57
1, 323207, Note_off_c, 0, 72, 67
1, 323210, Note_off_c, 0, 83, 67
1, 323212, Poly_aftertouch_c, 0, 60, 0
1, 323217, Note_off_c, 0, 84, 65
1, 323225, Note_on_c, 0, 59, 12
1, 323233, Note_off_c, 0, 62, 55
1, 323249, Poly_aftertouch_c, 0, 60, 127
1, 323258, Note_on_c, 0, 83, 90
1, 323265, Note_off_c, 0, 59, 61
1, 323266, Note_on_c, 0, 71, 76
1, 323269, Note_on_c, 0, 80, 70
1, 323270, Note_on_c, 0, 72, 82
1, 323283, Control_c, 0, 64, 72
1, 323286, Note_off_c, 0, 80, 67
1, 323290, Note_off_c, 0, 72, 72
1, 323290, Note_off_c, 0, 71, 68
1, 323292, Poly_aftertouch_c, 0, 53, 0
1, 323294, Poly_aftertouch_c, 0, 60, 0
1, 323297, Control_c, 0, 64, 0
1, 323298, Note_off_c, 0, 83, 67
1, 323372, Note_on_c, 0, 78, 52
1, 323397, Note_off_c, 0, 78, 37
1, 323412, Note_on_c, 0, 49, 104
1, 323415, Control_c, 0, 64, 127
1, 323415, Control_c, 0, 67, 87
1, 323423, Note_on_c, 0, 39, 84
1, 323429, Note_on_c, 0, 69, 31
1, 323430, Note_on_c, 0, 81, 103
1, 323430, Note_on_c, 0, 51, 68
1, 323430, Control_c, 0, 67, 127
1, 323432, Note_on_c, 0, 37, 58
1, 323435, Note_off_c, 0, 49, 67
1, 323444, Note_off_c, 0, 39, 63
1, 323448, Note_on_c, 0, 79, 61
1, 323451, Note_off_c, 0, 51, 63
1, 323454, Note_on_c, 0, 77, 65
1, 323461, Note_off_c, 0, 37, 40
1, 323465, Note_off_c, 0, 69, 65
1, 323465, Note_off_c, 0, 79, 68
1, 323465, Note_off_c, 0, 81, 68
1, 323471, Note_off_c, 0, 77, 65
1, 323587, Control_c, 0, 67, 121
1, 323601, Control_c, 0, 67, 112
1, 323616, Control_c, 0, 67, 104
1, 323631, Control_c, 0, 67, 91
1, 323632, Note_on_c, 0, 88, 77
1, 323646, Note_on_c, 0, 93, 95
1, 323646, Control_c, 0, 67, 70
1, 323648, Note_on_c, 0, 79, 82
1, 323651, Note_on_c, 0, 81, 83
1, 323651, Note_off_c, 0, 88, 72
1, 323652, Note_on_c, 0, 91, 80
1, 323661, Control_c, 0, 67, 34
1, 323663, Note_off_c, 0, 93, 74
1, 323666, Note_off_c, 0, 81, 71
1, 323669, Note_off_c, 0, 79, 73
1, 323672, Note_off_c, 0, 91, 70
1, 323675, Control_c, 0, 67, 0
1, 323806, Note_on_c, 0, 65, 85
1, 323823, Note_on_c, 0, 57, 69
1, 323865, Note_on_c, 0, 67, 94
1, 323871, Note_on_c, 0, 61, 88
1, 323880, Note_off_c, 0, 65, 65
1, 323895, Note_off_c, 0, 67, 67
1, 323901, Note_off_c, 0, 57, 65
1, 323914, Note_off_c, 0, 61, 64
1, 323949, Note_on_c, 0, 69, 98
1, 323952, Note_on_c, 0, 81, 102
1, 323954, Note_on_c, 0, 77, 95
1, 323981, Note_off_c, 0, 69, 65
1, 323984, Note_off_c, 0, 81, 68
1, 323987, Note_off_c, 0, 77, 69
1, 324123, Note_on_c, 0, 88, 79
1, 324136, Note_on_c, 0, 37, 76
1, 324136, Note_on_c, 0, 49, 93
1, 324143, Note_on_c, 0, 91, 94
1, 324149, Note_off_c, 0, 88, 68
1, 324149, Control_c, 0, 67, 28
1, 324150, Note_on_c, 0, 79, 70
1, 324158, Note_on_c, 0, 81, 66
1, 324161, Note_off_c, 0, 91, 72
1, 324164, Control_c, 0, 67, 36
1, 324165, Note_off_c, 0, 37, 64
1, 324167, Note_off_c, 0, 79, 70
1, 324172, Note_off_c, 0, 49, 63
1, 324176, Note_off_c, 0, 81, 64
1, 324179, Control_c, 0, 67, 0
1, 324324, Note_on_c, 0, 65, 89
1, 324330, Note_on_c, 0, 57, 82
1, 324340, Note_on_c, 0, 67, 62
1, 324366, Note_off_c, 0, 67, 39
1, 324396, Note_on_c, 0, 61, 93
1, 324398, Note_on_c, 0, 67, 85
1, 324404, Note_off_c, 0, 65, 58
1, 324415, Note_off_c, 0, 67, 70
1, 324420, Note_off_c, 0, 57, 64
1, 324436, Note_off_c, 0, 61, 63
1, 324459, Note_on_c, 0, 69, 98
1, 324462, Note_on_c, 0, 81, 101
1, 324462, Note_on_c, 0, 77, 91
1, 324488, Note_off_c, 0, 69, 63
1, 324492, Note_off_c, 0, 81, 68
1, 324495, Note_off_c, 0, 77, 69
1, 324632, Note_on_c, 0, 37, 80
1, 324637, Note_on_c, 0, 89, 79
1, 324638, Note_on_c, 0, 49, 97
1, 324644, Note_on_c, 0, 93, 93
1, 324648, Note_on_c, 0, 81, 71
1, 324648, Note_on_c, 0, 88, 58
1, 324650, Note_on_c, 0, 91, 82
1, 324652, Note_on_c, 0, 79, 72
1, 324653, Note_off_c, 0, 89, 68
1, 324660, Note_off_c, 0, 93, 75
1, 324661, Control_c, 0, 67, 50
1, 324663, Note_off_c, 0, 81, 70
1, 324667, Note_off_c, 0, 37, 63
1, 324667, Note_off_c, 0, 88, 62
1, 324669, Note_off_c, 0, 79, 68
1, 324671, Note_off_c, 0, 91, 70
1, 324674, Note_off_c, 0, 49, 61
1, 324676, Control_c, 0, 67, 38
1, 324691, Control_c, 0, 67, 0
1, 324801, Note_on_c, 0, 65, 94
1, 324818, Note_on_c, 0, 57, 66
1, 324857, Note_off_c, 0, 65, 58
1, 324873, Note_on_c, 0, 61, 96
1, 324876, Note_on_c, 0, 67, 95
1, 324905, Note_off_c, 0, 67, 65
1, 324907, Note_off_c, 0, 57, 64
1, 324918, Note_off_c, 0, 61, 64
1, 324943, Note_on_c, 0, 69, 99
1, 324943, Note_on_c, 0, 81, 102
1, 324947, Note_on_c, 0, 77, 94
1, 324972, Note_off_c, 0, 69, 68
1, 324977, Note_off_c, 0, 81, 70
1, 324979, Note_off_c, 0, 77, 71
1, 324998, Note_on_c, 0, 79, 10
1, 325060, Note_off_c, 0, 79, 37
1, 325117, Note_on_c, 0, 88, 76
1, 325118, Note_on_c, 0, 49, 99
1, 325124, Note_on_c, 0, 37, 83
1, 325124, Note_on_c, 0, 79, 98
1, 325126, Note_on_c, 0, 91, 104
1, 325138, Note_off_c, 0, 88, 72
1, 325140, Note_off_c, 0, 49, 69
1, 325140, Note_off_c, 0, 91, 76
1, 325142, Note_off_c, 0, 79, 71
1, 325150, Note_off_c, 0, 37, 64
1, 325248, Control_c, 0, 64, 109
1, 325263, Control_c, 0, 64, 72
1, 325263, Control_c, 0, 67, 30
1, 325278, Control_c, 0, 64, 0
1, 325278, Control_c, 0, 67, 39
1, 325293, Control_c, 0, 67, 46
1, 325308, Control_c, 0, 67, 49
1, 325311, Note_on_c, 0, 54, 81
1, 325322, Control_c, 0, 67, 50
1, 325337, Control_c, 0, 67, 55
1, 325352, Control_c, 0, 67, 64
1, 325361, Note_off_c, 0, 54, 62
1, 325366, Control_c, 0, 67, 75
1, 325381, Control_c, 0, 67, 87
1, 325382, Note_on_c, 0, 56, 83
1, 325396, Control_c, 0, 67, 93
1, 325411, Control_c, 0, 67, 97
1, 325422, Note_off_c, 0, 56, 60
1, 325426, Control_c, 0, 67, 103
1, 325440, Control_c, 0, 64, 37
1, 325440, Control_c, 0, 67, 114
1, 325455, Control_c, 0, 64, 58
1, 325455, Control_c, 0, 67, 126
1, 325466, Note_on_c, 0, 57, 86
1, 325467, Note_on_c, 0, 54, 72
1, 325470, Control_c, 0, 64, 69
1, 325472, Note_on_c, 0, 42, 68
1, 325472, Note_on_c, 0, 49, 65
1, 325485, Control_c, 0, 64, 76
1, 325494, Note_off_c, 0, 54, 67
1, 325496, Note_off_c, 0, 49, 66
1, 325499, Control_c, 0, 64, 80
1, 325511, Note_off_c, 0, 42, 65
1, 325514, Control_c, 0, 64, 83
1, 325529, Control_c, 0, 64, 88
1, 325544, Control_c, 0, 64, 94
1, 325559, Control_c, 0, 64, 108
1, 325574, Control_c, 0, 64, 127
1, 325618, Note_off_c, 0, 57, 58
1, 325636, Note_on_c, 0, 66, 58
1, 325637, Note_on_c, 0, 69, 73
1, 325638, Note_on_c, 0, 42, 74
1, 325666, Note_off_c, 0, 42, 65
1, 325668, Note_off_c, 0, 69, 61
1, 325669, Note_off_c, 0, 66, 57
1, 325817, Note_on_c, 0, 54, 78
1, 325818, Control_c, 0, 67, 119
1, 325833, Control_c, 0, 67, 100
1, 325845, Note_off_c, 0, 54, 67
1, 325849, Control_c, 0, 67, 72
1, 325864, Control_c, 0, 67, 36
1, 325878, Control_c, 0, 67, 0
1, 325881, Note_on_c, 0, 56, 74
1, 325906, Note_off_c, 0, 56, 59
1, 325937, Control_c, 0, 64, 83
1, 325950, Note_on_c, 0, 57, 88
1, 325952, Control_c, 0, 64, 53
1, 325956, Note_on_c, 0, 54, 66
1, 325961, Note_on_c, 0, 42, 61
1, 325964, Note_on_c, 0, 49, 69
1, 325967, Control_c, 0, 64, 0
1, 325980, Note_off_c, 0, 54, 69
1, 325995, Note_off_c, 0, 49, 66
1, 325997, Control_c, 0, 64, 50
1, 326012, Control_c, 0, 64, 67
1, 326014, Note_off_c, 0, 42, 58
1, 326027, Control_c, 0, 64, 79
1, 326042, Control_c, 0, 64, 90
1, 326042, Control_c, 0, 67, 19
1, 326056, Control_c, 0, 64, 95
1, 326071, Control_c, 0, 64, 98
1, 326086, Control_c, 0, 64, 106
1, 326086, Control_c, 0, 67, 0
1, 326101, Control_c, 0, 64, 127
1, 326121, Note_off_c, 0, 57, 54
1, 326122, Note_on_c, 0, 69, 76
1, 326127, Note_on_c, 0, 42, 68
1, 326142, Note_on_c, 0, 66, 38
1, 326154, Note_off_c, 0, 69, 60
1, 326155, Note_off_c, 0, 42, 65
1, 326171, Note_off_c, 0, 66, 33
1, 326284, Note_on_c, 0, 54, 85
1, 326335, Note_off_c, 0, 54, 62
1, 326351, Note_on_c, 0, 56, 86
1, 326375, Note_off_c, 0, 56, 67
1, 326426, Note_on_c, 0, 42, 75
1, 326426, Note_on_c, 0, 57, 97
1, 326426, Note_on_c, 0, 54, 76
1, 326426, Control_c, 0, 64, 81
1, 326427, Note_on_c, 0, 49, 76
1, 326441, Control_c, 0, 64, 67
1, 326445, Note_off_c, 0, 54, 68
1, 326452, Note_off_c, 0, 49, 69
1, 326456, Control_c, 0, 64, 69
1, 326468, Note_off_c, 0, 42, 64
1, 326471, Control_c, 0, 64, 80
1, 326486, Control_c, 0, 64, 127
1, 326579, Note_off_c, 0, 57, 63
1, 326587, Note_on_c, 0, 42, 83
1, 326590, Note_on_c, 0, 66, 70
1, 326606, Note_on_c, 0, 69, 73
1, 326617, Note_off_c, 0, 42, 68
1, 326633, Note_off_c, 0, 66, 63
1, 326641, Note_off_c, 0, 69, 63
1, 326667, Poly_aftertouch_c, 0, 30, 127
1, 326697, Poly_aftertouch_c, 0, 30, 0
1, 326705, Poly_aftertouch_c, 0, 67, 0
1, 326755, Note_on_c, 0, 54, 91
1, 326805, Note_off_c, 0, 54, 63
1, 326829, Note_on_c, 0, 56, 85
1, 326855, Note_off_c, 0, 56, 68
1, 326903, Note_on_c, 0, 49, 81
1, 326904, Note_on_c, 0, 42, 73
1, 326907, Note_on_c, 0, 54, 74
1, 326908, Note_on_c, 0, 57, 103
1, 326929, Note_off_c, 0, 49, 67
1, 326936, Note_off_c, 0, 54, 55
1, 326936, Note_off_c, 0, 42, 65
1, 326938, Control_c, 0, 64, 99
1, 326953, Control_c, 0, 64, 112
1, 326968, Control_c, 0, 64, 127
1, 327070, Note_off_c, 0, 57, 59
1, 327085, Note_on_c, 0, 42, 69
1, 327089, Note_on_c, 0, 69, 80
1, 327093, Note_on_c, 0, 66, 62
1, 327111, Note_off_c, 0, 69, 70
1, 327112, Note_on_c, 0, 30, 26
1, 327112, Note_off_c, 0, 66, 64
1, 327112, Note_off_c, 0, 42, 65
1, 327158, Note_off_c, 0, 30, 44
1, 327316, Note_on_c, 0, 54, 93
1, 327425, Note_on_c, 0, 56, 91
1, 327435, Note_off_c, 0, 54, 62
1, 327496, Note_off_c, 0, 56, 59
1, 327690, Note_on_c, 0, 50, 66
1, 327709, Note_on_c, 0, 38, 61
1, 327747, Control_c, 0, 64, 88
1, 327761, Control_c, 0, 64, 53
1, 327767, Note_on_c, 0, 57, 73
1, 327775, Note_on_c, 0, 69, 66
1, 327776, Control_c, 0, 64, 0
1, 327785, Note_on_c, 0, 65, 66
1, 327880, Control_c, 0, 64, 47
1, 327894, Control_c, 0, 64, 60
1, 327909, Control_c, 0, 64, 66
1, 327924, Control_c, 0, 64, 74
1, 327925, Note_off_c, 0, 57, 64
1, 327939, Control_c, 0, 64, 83
1, 327954, Control_c, 0, 64, 90
1, 327968, Control_c, 0, 64, 101
1, 327983, Control_c, 0, 64, 127
1, 328002, Note_off_c, 0, 65, 62
1, 328025, Note_off_c, 0, 38, 58
1, 328039, Note_off_c, 0, 69, 61
1, 328072, Note_off_c, 0, 50, 59
1, 328192, Note_on_c, 0, 77, 53
1, 328267, Note_off_c, 0, 77, 61
1, 328272, Note_on_c, 0, 80, 56
1, 328325, Note_on_c, 0, 81, 78
1, 328337, Note_off_c, 0, 80, 60
1, 328470, Note_on_c, 0, 68, 81
1, 328477, Note_on_c, 0, 56, 64
1, 328490, Note_on_c, 0, 65, 67
1, 328625, Note_off_c, 0, 81, 61
1, 328630, Note_on_c, 0, 80, 67
1, 328673, Note_off_c, 0, 56, 51
1, 328677, Note_off_c, 0, 80, 62
1, 328692, Note_on_c, 0, 77, 73
1, 328693, Note_off_c, 0, 68, 56
1, 328697, Note_off_c, 0, 65, 50
1, 328754, Note_off_c, 0, 77, 61
1, 328777, Note_on_c, 0, 76, 75
1, 328816, Note_off_c, 0, 76, 60
1, 328825, Note_on_c, 0, 69, 69
1, 328860, Note_off_c, 0, 69, 63
1, 328900, Poly_aftertouch_c, 0, 69, 0
1, 328904, Note_on_c, 0, 65, 82
1, 328907, Note_on_c, 0, 69, 73
1, 328908, Note_on_c, 0, 57, 78
1, 328909, Note_on_c, 0, 74, 72
1, 328917, Control_c, 0, 64, 109
1, 328932, Control_c, 0, 64, 70
1, 328936, Note_off_c, 0, 74, 66
1, 328947, Control_c, 0, 64, 42
1, 328962, Control_c, 0, 64, 0
1, 328987, Note_on_c, 0, 76, 74
1, 328991, Control_c, 0, 64, 58
1, 329006, Control_c, 0, 64, 80
1, 329021, Control_c, 0, 64, 127
1, 329040, Note_off_c, 0, 76, 63
1, 329058, Note_on_c, 0, 77, 63
1, 329079, Note_off_c, 0, 69, 59
1, 329088, Note_off_c, 0, 65, 63
1, 329103, Note_on_c, 0, 80, 73
1, 329113, Note_off_c, 0, 77, 62
1, 329119, Note_off_c, 0, 57, 63
1, 329168, Note_on_c, 0, 81, 76
1, 329175, Note_off_c, 0, 80, 62
1, 329325, Note_on_c, 0, 62, 76
1, 329334, Note_on_c, 0, 53, 66
1, 329335, Note_on_c, 0, 50, 63
1, 329335, Note_on_c, 0, 57, 66
1, 329363, Control_c, 0, 64, 115
1, 329393, Control_c, 0, 64, 127
1, 329422, Control_c, 0, 67, 21
1, 329456, Note_on_c, 0, 80, 68
1, 329456, Note_off_c, 0, 81, 60
1, 329469, Note_off_c, 0, 57, 62
1, 329484, Note_off_c, 0, 53, 60
1, 329487, Note_off_c, 0, 50, 58
1, 329535, Note_off_c, 0, 62, 57
1, 329537, Note_on_c, 0, 76, 59
1, 329574, Note_on_c, 0, 77, 74
1, 329575, Note_off_c, 0, 76, 62
1, 329584, Note_off_c, 0, 80, 55
1, 329608, Control_c, 0, 67, 23
1, 329611, Note_on_c, 0, 50, 62
1, 329633, Note_off_c, 0, 77, 65
1, 329646, Note_off_c, 0, 50, 48
1, 329647, Note_on_c, 0, 74, 72
1, 329652, Control_c, 0, 67, 25
1, 329681, Control_c, 0, 64, 78
1, 329696, Control_c, 0, 64, 70
1, 329702, Note_off_c, 0, 74, 61
1, 329707, Note_on_c, 0, 58, 67
1, 329708, Note_on_c, 0, 76, 71
1, 329711, Control_c, 0, 64, 74
1, 329721, Note_on_c, 0, 67, 84
1, 329726, Control_c, 0, 64, 93
1, 329726, Control_c, 0, 67, 28
1, 329733, Note_on_c, 0, 62, 66
1, 329735, Note_off_c, 0, 76, 68
1, 329741, Control_c, 0, 64, 127
1, 329768, Note_off_c, 0, 67, 65
1, 329772, Note_on_c, 0, 77, 72
1, 329791, Note_off_c, 0, 62, 50
1, 329809, Note_off_c, 0, 58, 58
1, 329815, Control_c, 0, 67, 30
1, 329824, Note_on_c, 0, 62, 57
1, 329833, Note_on_c, 0, 65, 94
1, 329837, Note_off_c, 0, 77, 63
1, 329839, Note_on_c, 0, 57, 81
1, 329843, Note_on_c, 0, 79, 84
1, 329845, Control_c, 0, 67, 28
1, 329874, Note_off_c, 0, 62, 61
1, 329875, Note_off_c, 0, 65, 66
1, 329879, Note_off_c, 0, 57, 60
1, 329905, Control_c, 0, 67, 30
1, 329911, Note_on_c, 0, 77, 78
1, 329912, Note_off_c, 0, 79, 66
1, 329979, Note_on_c, 0, 76, 80
1, 329985, Note_off_c, 0, 77, 64
1, 330022, Note_off_c, 0, 76, 64
1, 330024, Control_c, 0, 67, 27
1, 330045, Note_on_c, 0, 77, 75
1, 330082, Control_c, 0, 67, 29
1, 330104, Note_on_c, 0, 58, 86
1, 330104, Note_on_c, 0, 64, 82
1, 330105, Note_on_c, 0, 55, 79
1, 330106, Note_on_c, 0, 62, 87
1, 330110, Note_off_c, 0, 77, 62
1, 330120, Note_on_c, 0, 79, 87
1, 330127, Control_c, 0, 64, 111
1, 330142, Control_c, 0, 64, 64
1, 330156, Control_c, 0, 64, 0
1, 330171, Control_c, 0, 67, 31
1, 330183, Note_on_c, 0, 77, 72
1, 330190, Note_off_c, 0, 79, 65
1, 330216, Control_c, 0, 64, 44
1, 330230, Control_c, 0, 64, 61
1, 330245, Control_c, 0, 64, 75
1, 330245, Control_c, 0, 67, 32
1, 330262, Note_on_c, 0, 76, 59
1, 330268, Control_c, 0, 64, 89
1, 330268, Control_c, 0, 67, 33
1, 330276, Note_on_c, 0, 74, 52
1, 330283, Control_c, 0, 64, 106
1, 330283, Control_c, 0, 67, 33
1, 330285, Note_off_c, 0, 77, 60
1, 330297, Control_c, 0, 64, 115
1, 330297, Control_c, 0, 67, 33
1, 330298, Note_off_c, 0, 74, 57
1, 330301, Note_off_c, 0, 76, 64
1, 330312, Control_c, 0, 64, 117
1, 330318, Note_on_c, 0, 77, 50
1, 330327, Control_c, 0, 64, 124
1, 330327, Control_c, 0, 67, 30
1, 330342, Control_c, 0, 64, 127
1, 330385, Note_on_c, 0, 79, 69
1, 330387, Note_off_c, 0, 77, 64
1, 330441, Note_on_c, 0, 81, 84
1, 330456, Note_off_c, 0, 79, 66
1, 330491, Note_off_c, 0, 81, 63
1, 330505, Note_on_c, 0, 82, 75
1, 330522, Note_on_c, 0, 50, 74
1, 330558, Note_off_c, 0, 62, 55
1, 330559, Note_off_c, 0, 64, 61
1, 330566, Note_on_c, 0, 81, 72
1, 330578, Control_c, 0, 67, 32
1, 330607, Note_off_c, 0, 82, 64
1, 330626, Note_on_c, 0, 79, 73
1, 330632, Note_off_c, 0, 81, 56
1, 330680, Note_off_c, 0, 79, 63
1, 330686, Note_on_c, 0, 77, 69
1, 330697, Note_off_c, 0, 50, 55
1, 330699, Note_on_c, 0, 63, 90
1, 330713, Control_c, 0, 67, 33
1, 330725, Note_off_c, 0, 58, 64
1, 330728, Control_c, 0, 67, 33
1, 330736, Note_off_c, 0, 77, 65
1, 330757, Control_c, 0, 67, 33
1, 330770, Note_on_c, 0, 76, 75
1, 330819, Note_off_c, 0, 63, 60
1, 330820, Note_on_c, 0, 75, 69
1, 330839, Note_off_c, 0, 76, 58
1, 330868, Note_off_c, 0, 55, 0
1, 330877, Note_off_c, 0, 75, 65
1, 330895, Note_on_c, 0, 74, 64
1, 330900, Note_on_c, 0, 62, 96
1, 330901, Note_on_c, 0, 55, 25
1, 330906, Note_on_c, 0, 52, 85
1, 330927, Note_off_c, 0, 74, 64
1, 330933, Control_c, 0, 67, 32
1, 330948, Control_c, 0, 64, 78
1, 330956, Note_on_c, 0, 73, 69
1, 330963, Control_c, 0, 64, 63
1, 330978, Control_c, 0, 64, 64
1, 330992, Note_off_c, 0, 73, 64
1, 330993, Control_c, 0, 64, 75
1, 330993, Control_c, 0, 67, 32
1, 331015, Control_c, 0, 64, 127
1, 331027, Note_on_c, 0, 72, 68
1, 331044, Control_c, 0, 67, 32
1, 331082, Note_off_c, 0, 72, 0
1, 331088, Note_off_c, 0, 55, 40
1, 331089, Control_c, 0, 67, 30
1, 331102, Note_on_c, 0, 72, 45
1, 331104, Control_c, 0, 67, 26
1, 331104, Note_on_c, 0, 73, 37
1, 331109, Note_off_c, 0, 52, 62
1, 331114, Note_off_c, 0, 62, 59
1, 331115, Note_on_c, 0, 61, 88
1, 331118, Control_c, 0, 67, 22
1, 331133, Control_c, 0, 67, 0
1, 331134, Note_off_c, 0, 61, 72
1, 331136, Note_off_c, 0, 73, 56
1, 331146, Note_on_c, 0, 70, 67
1, 331157, Note_on_c, 0, 71, 62
1, 331179, Note_off_c, 0, 72, 58
1, 331198, Note_off_c, 0, 70, 40
1, 331219, Note_on_c, 0, 69, 63
1, 331237, Note_on_c, 0, 41, 66
1, 331239, Note_off_c, 0, 69, 64
1, 331242, Note_off_c, 0, 71, 65
1, 331276, Note_off_c, 0, 41, 63
1, 331300, Note_on_c, 0, 53, 80
1, 331326, Control_c, 0, 64, 69
1, 331341, Control_c, 0, 64, 0
1, 331356, Control_c, 0, 67, 20
1, 331362, Note_on_c, 0, 60, 95
1, 331365, Note_on_c, 0, 72, 88
1, 331369, Note_on_c, 0, 68, 81
1, 331371, Control_c, 0, 64, 47
1, 331383, Note_off_c, 0, 60, 69
1, 331385, Note_on_c, 0, 56, 70
1, 331385, Control_c, 0, 64, 71
1, 331385, Control_c, 0, 67, 22
1, 331386, Note_off_c, 0, 53, 63
1, 331391, Note_off_c, 0, 68, 67
1, 331400, Control_c, 0, 64, 127
1, 331401, Note_off_c, 0, 72, 60
1, 331402, Note_off_c, 0, 56, 65
1, 331415, Control_c, 0, 67, 24
1, 331496, Poly_aftertouch_c, 0, 57, 0
1, 331528, Note_on_c, 0, 80, 89
1, 331534, Control_c, 0, 67, 21
1, 331580, Note_off_c, 0, 80, 67
1, 331592, Note_on_c, 0, 83, 76
1, 331606, Note_on_c, 0, 81, 76
1, 331625, Note_off_c, 0, 81, 59
1, 331637, Note_on_c, 0, 84, 93
1, 331638, Control_c, 0, 67, 0
1, 331661, Note_off_c, 0, 83, 65
1, 331789, Note_on_c, 0, 71, 101
1, 331798, Note_on_c, 0, 59, 83
1, 331801, Note_on_c, 0, 68, 84
1, 331914, Note_off_c, 0, 84, 61
1, 331921, Note_on_c, 0, 83, 82
1, 331927, Control_c, 0, 67, 19
1, 331956, Control_c, 0, 67, 21
1, 331989, Note_on_c, 0, 80, 83
1, 331995, Note_off_c, 0, 59, 54
1, 332011, Note_off_c, 0, 83, 62
1, 332017, Note_off_c, 0, 71, 55
1, 332045, Note_off_c, 0, 80, 65
1, 332049, Note_on_c, 0, 79, 83
1, 332057, Note_off_c, 0, 68, 63
1, 332060, Control_c, 0, 67, 23
1, 332105, Note_off_c, 0, 79, 62
1, 332114, Note_on_c, 0, 72, 57
1, 332126, Note_on_c, 0, 74, 53
1, 332139, Note_off_c, 0, 72, 66
1, 332148, Note_off_c, 0, 74, 57
1, 332189, Note_on_c, 0, 72, 103
1, 332195, Note_on_c, 0, 68, 89
1, 332196, Note_on_c, 0, 60, 87
1, 332206, Note_on_c, 0, 78, 63
1, 332226, Note_off_c, 0, 78, 66
1, 332268, Note_on_c, 0, 79, 83
1, 332324, Note_off_c, 0, 79, 63
1, 332328, Note_on_c, 0, 80, 79
1, 332348, Note_off_c, 0, 72, 59
1, 332358, Note_off_c, 0, 68, 61
1, 332365, Note_off_c, 0, 80, 66
1, 332382, Note_on_c, 0, 83, 82
1, 332385, Note_off_c, 0, 60, 64
1, 332445, Note_on_c, 0, 84, 95
1, 332462, Note_off_c, 0, 83, 61
1, 332600, Note_on_c, 0, 65, 98
1, 332602, Note_on_c, 0, 60, 78
1, 332605, Note_on_c, 0, 56, 81
1, 332606, Note_on_c, 0, 53, 80
1, 332716, Note_off_c, 0, 65, 59
1, 332719, Note_off_c, 0, 56, 59
1, 332719, Note_off_c, 0, 60, 58
1, 332722, Note_off_c, 0, 84, 60
1, 332725, Note_off_c, 0, 53, 56
1, 332728, Note_on_c, 0, 83, 73
1, 332783, Note_on_c, 0, 79, 66
1, 332811, Note_off_c, 0, 79, 63
1, 332835, Note_on_c, 0, 80, 86
1, 332845, Note_off_c, 0, 83, 58
1, 332849, Note_on_c, 0, 53, 69
1, 332854, Control_c, 0, 67, 21
1, 332894, Note_off_c, 0, 80, 64
1, 332901, Note_off_c, 0, 53, 61
1, 332903, Note_on_c, 0, 77, 75
1, 332960, Note_on_c, 0, 61, 85
1, 332965, Note_on_c, 0, 70, 95
1, 332966, Note_off_c, 0, 77, 63
1, 332970, Note_on_c, 0, 78, 76
1, 332972, Control_c, 0, 64, 78
1, 332987, Control_c, 0, 64, 60
1, 332987, Control_c, 0, 67, 23
1, 332988, Note_on_c, 0, 65, 65
1, 333002, Control_c, 0, 64, 62
1, 333016, Note_off_c, 0, 78, 66
1, 333017, Control_c, 0, 64, 73
1, 333026, Note_off_c, 0, 70, 64
1, 333032, Control_c, 0, 64, 127
1, 333037, Note_on_c, 0, 80, 79
1, 333062, Note_off_c, 0, 65, 52
1, 333106, Note_off_c, 0, 80, 62
1, 333113, Note_on_c, 0, 82, 82
1, 333118, Note_off_c, 0, 61, 55
1, 333155, Note_on_c, 0, 68, 93
1, 333157, Note_on_c, 0, 60, 74
1, 333158, Note_on_c, 0, 65, 77
1, 333174, Note_off_c, 0, 82, 67
1, 333177, Note_on_c, 0, 80, 86
1, 333211, Note_off_c, 0, 65, 63
1, 333218, Note_off_c, 0, 68, 61
1, 333220, Note_off_c, 0, 60, 62
1, 333243, Note_on_c, 0, 78, 80
1, 333246, Note_off_c, 0, 80, 64
1, 333304, Note_off_c, 0, 78, 63
1, 333310, Note_on_c, 0, 80, 82
1, 333352, Poly_aftertouch_c, 0, 65, 127
1, 333364, Note_on_c, 0, 65, 45
1, 333370, Note_off_c, 0, 80, 61
1, 333371, Note_on_c, 0, 82, 85
1, 333375, Note_on_c, 0, 66, 98
1, 333381, Control_c, 0, 64, 102
1, 333381, Control_c, 0, 67, 25
1, 333383, Note_on_c, 0, 58, 75
1, 333386, Note_on_c, 0, 61, 79
1, 333395, Control_c, 0, 64, 65
1, 333410, Control_c, 0, 64, 45
1, 333425, Control_c, 0, 64, 53
1, 333440, Control_c, 0, 64, 69
1, 333452, Note_on_c, 0, 80, 73
1, 333455, Control_c, 0, 64, 98
1, 333470, Control_c, 0, 64, 127
1, 333472, Note_off_c, 0, 82, 63
1, 333485, Note_on_c, 0, 78, 86
1, 333502, Note_off_c, 0, 80, 64
1, 333515, Note_off_c, 0, 65, 61
1, 333518, Note_off_c, 0, 61, 59
1, 333518, Note_off_c, 0, 58, 61
1, 333536, Note_off_c, 0, 78, 66
1, 333559, Note_on_c, 0, 80, 76
1, 333592, Note_off_c, 0, 80, 63
1, 333601, Note_on_c, 0, 82, 86
1, 333650, Note_off_c, 0, 82, 64
1, 333676, Note_on_c, 0, 84, 85
1, 333721, Control_c, 0, 67, 22
1, 333737, Note_off_c, 0, 84, 61
1, 333738, Note_on_c, 0, 85, 84
1, 333744, Note_on_c, 0, 53, 91
1, 333768, Note_off_c, 0, 66, 61
1, 333786, Note_off_c, 0, 85, 66
1, 333795, Note_on_c, 0, 84, 66
1, 333810, Control_c, 0, 67, 20
1, 333825, Control_c, 0, 67, 0
1, 333860, Note_off_c, 0, 84, 58
1, 333866, Note_on_c, 0, 82, 81
1, 333934, Note_on_c, 0, 80, 83
1, 333939, Note_on_c, 0, 65, 97
1, 333967, Note_off_c, 0, 82, 62
1, 333985, Note_off_c, 0, 80, 64
1, 333989, Note_off_c, 0, 53, 62
1, 333993, Note_on_c, 0, 79, 71
1, 334018, Note_off_c, 0, 65, 57
1, 334068, Note_off_c, 0, 79, 64
1, 334077, Note_on_c, 0, 78, 74
1, 334130, Note_off_c, 0, 78, 63
1, 334153, Note_on_c, 0, 77, 72
1, 334167, Note_on_c, 0, 64, 97
1, 334168, Note_on_c, 0, 54, 93
1, 334171, Note_on_c, 0, 58, 88
1, 334173, Control_c, 0, 64, 66
1, 334188, Control_c, 0, 64, 0
1, 334214, Note_on_c, 0, 76, 81
1, 334214, Note_off_c, 0, 77, 62
1, 334218, Control_c, 0, 64, 58
1, 334233, Control_c, 0, 64, 127
1, 334278, Note_off_c, 0, 76, 61
1, 334290, Note_on_c, 0, 75, 83
1, 334337, Note_off_c, 0, 75, 65
1, 334340, Note_off_c, 0, 64, 47
1, 334376, Note_on_c, 0, 73, 79
1, 334385, Note_on_c, 0, 61, 92
1, 334399, Note_off_c, 0, 73, 70
1, 334402, Note_off_c, 0, 54, 60
1, 334407, Note_off_c, 0, 58, 62
1, 334418, Note_off_c, 0, 61, 66
1, 334455, Note_on_c, 0, 70, 57
1, 334456, Note_on_c, 0, 69, 73
1, 334499, Control_c, 0, 64, 100
1, 334513, Note_on_c, 0, 67, 74
1, 334514, Control_c, 0, 64, 60
1, 334519, Note_off_c, 0, 69, 63
1, 334522, Note_off_c, 0, 70, 56
1, 334528, Control_c, 0, 64, 0
1, 334543, Note_off_c, 0, 67, 62
1, 334615, Note_on_c, 0, 47, 101
1, 334618, Control_c, 0, 67, 36
1, 334621, Note_on_c, 0, 78, 89
1, 334622, Note_on_c, 0, 35, 98
1, 334626, Note_on_c, 0, 66, 88
1, 334628, Note_on_c, 0, 75, 77
1, 334634, Control_c, 0, 64, 127
1, 334634, Control_c, 0, 67, 64
1, 334635, Note_on_c, 0, 71, 69
1, 334644, Note_off_c, 0, 47, 68
1, 334647, Note_off_c, 0, 35, 67
1, 334649, Control_c, 0, 67, 58
1, 334664, Control_c, 0, 67, 56
1, 334681, Note_on_c, 0, 65, 20
1, 334692, Note_off_c, 0, 66, 60
1, 334693, Control_c, 0, 67, 59
1, 334712, Note_off_c, 0, 75, 63
1, 334723, Control_c, 0, 67, 53
1, 334725, Note_off_c, 0, 71, 51
1, 334733, Note_off_c, 0, 65, 37
1, 334734, Note_off_c, 0, 78, 61
1, 334738, Control_c, 0, 67, 47
1, 334760, Control_c, 0, 67, 36
1, 334775, Control_c, 0, 67, 31
1, 334790, Control_c, 0, 67, 33
1, 334804, Control_c, 0, 67, 32
1, 334819, Control_c, 0, 67, 25
1, 334834, Control_c, 0, 67, 0
1, 334878, Control_c, 0, 64, 96
1, 334893, Control_c, 0, 64, 63
1, 334904, Note_on_c, 0, 47, 81
1, 334908, Note_on_c, 0, 57, 95
1, 334908, Control_c, 0, 64, 42
1, 334912, Note_on_c, 0, 65, 103
1, 334913, Note_on_c, 0, 51, 89
1, 334915, Note_on_c, 0, 74, 87
1, 334915, Note_on_c, 0, 77, 91
1, 334923, Control_c, 0, 64, 61
1, 334932, Note_off_c, 0, 47, 63
1, 334938, Control_c, 0, 64, 115
1, 334941, Note_off_c, 0, 51, 67
1, 334941, Note_off_c, 0, 65, 66
1, 334945, Note_off_c, 0, 77, 65
1, 334946, Note_off_c, 0, 57, 65
1, 334947, Note_off_c, 0, 74, 65
1, 334952, Control_c, 0, 64, 127
1, 335160, Control_c, 0, 64, 114
1, 335175, Control_c, 0, 64, 76
1, 335175, Note_on_c, 0, 59, 82
1, 335178, Note_on_c, 0, 69, 87
1, 335178, Note_on_c, 0, 63, 87
1, 335178, Note_on_c, 0, 66, 101
1, 335179, Note_on_c, 0, 78, 100
1, 335181, Note_on_c, 0, 75, 86
1, 335190, Control_c, 0, 64, 74
1, 335198, Note_off_c, 0, 69, 69
1, 335204, Control_c, 0, 64, 97
1, 335213, Note_off_c, 0, 78, 66
1, 335214, Note_off_c, 0, 66, 63
1, 335216, Note_off_c, 0, 63, 65
1, 335217, Note_off_c, 0, 75, 63
1, 335219, Note_off_c, 0, 59, 64
1, 335219, Control_c, 0, 64, 127
1, 335442, Control_c, 0, 64, 69
1, 335452, Note_on_c, 0, 47, 82
1, 335452, Note_on_c, 0, 57, 90
1, 335454, Note_on_c, 0, 54, 86
1, 335454, Note_on_c, 0, 59, 91
1, 335456, Note_on_c, 0, 71, 96
1, 335457, Control_c, 0, 64, 40
1, 335459, Note_on_c, 0, 63, 87
1, 335472, Control_c, 0, 64, 55
1, 335472, Control_c, 0, 67, 39
1, 335473, Note_off_c, 0, 59, 69
1, 335474, Note_off_c, 0, 57, 70
1, 335475, Note_on_c, 0, 66, 50
1, 335485, Note_off_c, 0, 63, 67
1, 335485, Note_off_c, 0, 47, 66
1, 335486, Note_off_c, 0, 71, 63
1, 335487, Control_c, 0, 64, 80
1, 335487, Control_c, 0, 67, 39
1, 335499, Note_off_c, 0, 54, 66
1, 335502, Note_off_c, 0, 66, 61
1, 335509, Control_c, 0, 64, 127
1, 335509, Control_c, 0, 67, 28
1, 335524, Control_c, 0, 67, 0
1, 335731, Control_c, 0, 64, 105
1, 335736, Note_on_c, 0, 68, 97
1, 335738, Note_on_c, 0, 52, 83
1, 335738, Note_on_c, 0, 76, 86
1, 335738, Note_on_c, 0, 40, 85
1, 335739, Note_on_c, 0, 80, 88
1, 335746, Control_c, 0, 64, 53
1, 335754, Note_on_c, 0, 50, 65
1, 335760, Note_off_c, 0, 52, 71
1, 335760, Note_off_c, 0, 68, 68
1, 335761, Control_c, 0, 64, 0
1, 335762, Note_off_c, 0, 40, 67
1, 335763, Note_off_c, 0, 76, 63
1, 335777, Note_off_c, 0, 50, 39
1, 335783, Note_off_c, 0, 80, 62
1, 335906, Note_on_c, 0, 59, 87
1, 335910, Note_on_c, 0, 67, 94
1, 335912, Note_on_c, 0, 52, 83
1, 335913, Note_on_c, 0, 79, 100
1, 335916, Note_on_c, 0, 75, 85
1, 335938, Note_off_c, 0, 59, 64
1, 335939, Note_off_c, 0, 67, 66
1, 335941, Note_off_c, 0, 75, 63
1, 335944, Note_off_c, 0, 79, 65
1, 335947, Note_off_c, 0, 52, 61
1, 336116, Control_c, 0, 64, 62
1, 336117, Note_on_c, 0, 59, 87
1, 336118, Note_on_c, 0, 64, 93
1, 336118, Note_on_c, 0, 76, 79
1, 336118, Note_on_c, 0, 80, 100
1, 336119, Note_on_c, 0, 68, 103
1, 336120, Note_on_c, 0, 52, 82
1, 336131, Control_c, 0, 64, 127
1, 336131, Control_c, 0, 67, 26
1, 336141, Note_off_c, 0, 52, 70
1, 336145, Control_c, 0, 67, 24
1, 336146, Note_off_c, 0, 64, 61
1, 336153, Note_off_c, 0, 59, 67
1, 336160, Control_c, 0, 67, 27
1, 336162, Note_on_c, 0, 78, 31
1, 336175, Control_c, 0, 67, 32
1, 336190, Control_c, 0, 67, 39
1, 336203, Note_off_c, 0, 68, 57
1, 336203, Note_off_c, 0, 78, 30
1, 336205, Control_c, 0, 67, 48
1, 336221, Control_c, 0, 67, 51
1, 336287, Control_c, 0, 67, 54
1, 336302, Control_c, 0, 67, 59
1, 336317, Control_c, 0, 67, 64
1, 336320, Note_off_c, 0, 76, 54
1, 336332, Control_c, 0, 67, 68
1, 336347, Control_c, 0, 67, 73
1, 336361, Control_c, 0, 67, 78
1, 336364, Note_off_c, 0, 80, 61
1, 336376, Control_c, 0, 67, 84
1, 336391, Control_c, 0, 67, 89
1, 336406, Control_c, 0, 67, 91
1, 336421, Control_c, 0, 67, 94
1, 336436, Control_c, 0, 67, 99
1, 336450, Control_c, 0, 67, 105
1, 336465, Control_c, 0, 67, 112
1, 336480, Control_c, 0, 67, 119
1, 336495, Control_c, 0, 67, 122
1, 336554, Control_c, 0, 64, 77
1, 336569, Control_c, 0, 64, 36
1, 336583, Control_c, 0, 64, 0
1, 336598, Control_c, 0, 67, 127
1, 336627, Note_on_c, 0, 62, 60
1, 336627, Note_on_c, 0, 72, 67
1, 336628, Control_c, 0, 64, 41
1, 336631, Note_on_c, 0, 84, 87
1, 336642, Note_on_c, 0, 69, 49
1, 336642, Control_c, 0, 64, 65
1, 336645, Note_on_c, 0, 66, 55
1, 336657, Control_c, 0, 64, 77
1, 336658, Note_off_c, 0, 84, 66
1, 336660, Note_on_c, 0, 86, 69
1, 336669, Note_off_c, 0, 72, 63
1, 336672, Control_c, 0, 64, 91
1, 336674, Note_off_c, 0, 62, 59
1, 336687, Control_c, 0, 64, 98
1, 336691, Note_off_c, 0, 69, 62
1, 336701, Note_off_c, 0, 66, 63
1, 336710, Note_on_c, 0, 84, 87
1, 336719, Note_off_c, 0, 86, 60
1, 336762, Note_on_c, 0, 83, 86
1, 336767, Note_off_c, 0, 84, 65
1, 336776, Control_c, 0, 64, 100
1, 336850, Control_c, 0, 64, 102
1, 336855, Note_off_c, 0, 83, 63
1, 336880, Control_c, 0, 64, 104
1, 336899, Note_on_c, 0, 84, 89
1, 336901, Note_on_c, 0, 62, 63
1, 336901, Note_on_c, 0, 66, 65
1, 336903, Note_on_c, 0, 72, 67
1, 336909, Note_on_c, 0, 69, 56
1, 336922, Note_off_c, 0, 72, 67
1, 336924, Control_c, 0, 64, 107
1, 336928, Note_off_c, 0, 69, 64
1, 336929, Note_off_c, 0, 66, 67
1, 336937, Note_off_c, 0, 62, 62
1, 336939, Control_c, 0, 64, 109
1, 336954, Control_c, 0, 64, 112
1, 336960, Note_off_c, 0, 84, 62
1, 337005, Control_c, 0, 64, 106
1, 337020, Control_c, 0, 64, 78
1, 337036, Control_c, 0, 64, 43
1, 337041, Note_on_c, 0, 92, 81
1, 337044, Note_on_c, 0, 64, 67
1, 337050, Note_on_c, 0, 80, 73
1, 337051, Control_c, 0, 64, 0
1, 337054, Note_on_c, 0, 68, 71
1, 337055, Note_on_c, 0, 71, 65
1, 337066, Note_off_c, 0, 92, 62
1, 337071, Note_off_c, 0, 80, 69
1, 337072, Note_off_c, 0, 64, 65
1, 337074, Note_off_c, 0, 71, 67
1, 337077, Note_off_c, 0, 68, 69
1, 337179, Note_on_c, 0, 68, 55
1, 337182, Note_on_c, 0, 79, 76
1, 337186, Note_on_c, 0, 91, 73
1, 337188, Note_on_c, 0, 71, 46
1, 337191, Note_on_c, 0, 64, 54
1, 337205, Note_off_c, 0, 79, 71
1, 337207, Note_off_c, 0, 91, 69
1, 337218, Note_off_c, 0, 68, 64
1, 337222, Note_off_c, 0, 71, 65
1, 337223, Note_off_c, 0, 64, 64
1, 337303, Control_c, 0, 64, 44
1, 337318, Control_c, 0, 64, 59
1, 337333, Control_c, 0, 64, 68
1, 337347, Control_c, 0, 64, 74
1, 337360, Note_on_c, 0, 80, 61
1, 337362, Note_on_c, 0, 92, 63
1, 337362, Control_c, 0, 64, 78
1, 337370, Note_on_c, 0, 64, 53
1, 337372, Note_on_c, 0, 71, 43
1, 337376, Note_on_c, 0, 68, 53
1, 337377, Control_c, 0, 64, 80
1, 337392, Control_c, 0, 64, 85
1, 337399, Note_off_c, 0, 68, 63
1, 337406, Control_c, 0, 64, 101
1, 337407, Note_off_c, 0, 71, 64
1, 337410, Note_off_c, 0, 64, 62
1, 337421, Control_c, 0, 64, 127
1, 337429, Note_off_c, 0, 92, 63
1, 337464, Note_off_c, 0, 80, 52
1, 337598, Control_c, 0, 67, 112
1, 337606, Note_on_c, 0, 75, 46
1, 337613, Control_c, 0, 67, 42
1, 337628, Control_c, 0, 67, 0
1, 337632, Note_off_c, 0, 75, 55
1, 337673, Control_c, 0, 64, 73
1, 337688, Control_c, 0, 64, 0
1, 337767, Note_on_c, 0, 76, 101
1, 337774, Note_on_c, 0, 50, 79
1, 337774, Note_on_c, 0, 62, 85
1, 337777, Note_on_c, 0, 52, 74
1, 337780, Note_on_c, 0, 78, 87
1, 337795, Note_off_c, 0, 76, 63
1, 337798, Control_c, 0, 64, 88
1, 337807, Note_off_c, 0, 50, 64
1, 337810, Note_off_c, 0, 52, 63
1, 337811, Note_off_c, 0, 62, 61
1, 337813, Control_c, 0, 64, 127
1, 337846, Note_on_c, 0, 76, 83
1, 337861, Note_off_c, 0, 78, 63
1, 337915, Note_on_c, 0, 75, 96
1, 337929, Note_off_c, 0, 76, 65
1, 337955, Note_off_c, 0, 75, 65
1, 337992, Control_c, 0, 64, 72
1, 338007, Control_c, 0, 64, 43
1, 338022, Control_c, 0, 64, 0
1, 338045, Note_on_c, 0, 62, 90
1, 338046, Note_on_c, 0, 50, 79
1, 338056, Note_on_c, 0, 52, 79
1, 338062, Note_on_c, 0, 76, 97
1, 338066, Note_off_c, 0, 62, 68
1, 338080, Note_off_c, 0, 52, 66
1, 338087, Note_off_c, 0, 50, 63
1, 338105, Note_off_c, 0, 76, 69
1, 338210, Note_on_c, 0, 49, 100
1, 338212, Note_on_c, 0, 69, 94
1, 338212, Note_on_c, 0, 81, 95
1, 338215, Control_c, 0, 64, 127
1, 338216, Note_on_c, 0, 76, 83
1, 338218, Note_on_c, 0, 37, 85
1, 338235, Note_off_c, 0, 76, 70
1, 338236, Note_off_c, 0, 49, 60
1, 338241, Note_off_c, 0, 37, 64
1, 338243, Note_off_c, 0, 69, 60
1, 338251, Note_off_c, 0, 81, 62
1, 338333, Control_c, 0, 64, 98
1, 338347, Control_c, 0, 64, 58
1, 338362, Control_c, 0, 64, 0
1, 338368, Note_on_c, 0, 68, 97
1, 338370, Note_on_c, 0, 80, 95
1, 338372, Note_on_c, 0, 49, 80
1, 338372, Note_on_c, 0, 76, 85
1, 338387, Note_on_c, 0, 57, 65
1, 338413, Note_off_c, 0, 68, 64
1, 338417, Note_off_c, 0, 57, 64
1, 338428, Note_off_c, 0, 76, 63
1, 338434, Note_on_c, 0, 52, 15
1, 338434, Note_off_c, 0, 52, 127
1, 338449, Note_off_c, 0, 80, 61
1, 338481, Note_off_c, 0, 49, 39
1, 338574, Note_on_c, 0, 61, 94
1, 338577, Note_on_c, 0, 81, 99
1, 338578, Note_on_c, 0, 57, 74
1, 338578, Note_on_c, 0, 69, 98
1, 338579, Note_on_c, 0, 76, 96
1, 338580, Note_on_c, 0, 52, 79
1, 338592, Note_on_c, 0, 51, 57
1, 338592, Control_c, 0, 64, 112
1, 338592, Control_c, 0, 67, 68
1, 338606, Note_off_c, 0, 57, 67
1, 338607, Control_c, 0, 64, 127
1, 338607, Control_c, 0, 67, 88
1, 338608, Note_off_c, 0, 52, 67
1, 338615, Note_off_c, 0, 51, 61
1, 338618, Note_off_c, 0, 61, 61
1, 338621, Note_off_c, 0, 69, 65
1, 338623, Control_c, 0, 67, 85
1, 338638, Control_c, 0, 67, 84
1, 338652, Control_c, 0, 67, 84
1, 338667, Control_c, 0, 67, 89
1, 338675, Note_off_c, 0, 76, 47
1, 338682, Control_c, 0, 67, 94
1, 338697, Control_c, 0, 67, 95
1, 338741, Control_c, 0, 67, 96
1, 338756, Control_c, 0, 67, 100
1, 338766, Note_off_c, 0, 81, 58
1, 338770, Control_c, 0, 67, 109
1, 338785, Control_c, 0, 67, 122
1, 338800, Control_c, 0, 67, 127
1, 339097, Control_c, 0, 64, 75
1, 339112, Control_c, 0, 64, 0
1, 339149, Note_on_c, 0, 90, 85
1, 339155, Note_on_c, 0, 69, 56
1, 339163, Note_on_c, 0, 63, 53
1, 339163, Note_on_c, 0, 66, 53
1, 339169, Note_on_c, 0, 60, 43
1, 339172, Note_on_c, 0, 92, 82
1, 339178, Note_off_c, 0, 90, 59
1, 339200, Control_c, 0, 64, 45
1, 339215, Control_c, 0, 64, 57
1, 339229, Note_on_c, 0, 90, 72
1, 339230, Control_c, 0, 64, 58
1, 339252, Control_c, 0, 64, 59
1, 339253, Note_off_c, 0, 92, 66
1, 339267, Control_c, 0, 64, 61
1, 339282, Control_c, 0, 64, 66
1, 339296, Control_c, 0, 64, 69
1, 339311, Control_c, 0, 64, 70
1, 339341, Control_c, 0, 64, 71
1, 339355, Note_off_c, 0, 66, 50
1, 339356, Control_c, 0, 64, 73
1, 339368, Note_off_c, 0, 63, 58
1, 339370, Control_c, 0, 64, 76
1, 339379, Note_off_c, 0, 60, 35
1, 339385, Control_c, 0, 64, 79
1, 339386, Note_off_c, 0, 69, 38
1, 339390, Note_off_c, 0, 90, 64
1, 339399, Note_on_c, 0, 89, 84
1, 339400, Control_c, 0, 64, 80
1, 339431, Control_c, 0, 64, 81
1, 339446, Control_c, 0, 64, 85
1, 339461, Control_c, 0, 64, 90
1, 339475, Control_c, 0, 64, 94
1, 339490, Control_c, 0, 64, 96
1, 339520, Control_c, 0, 64, 98
1, 339535, Control_c, 0, 64, 100
1, 339549, Control_c, 0, 64, 103
1, 339564, Control_c, 0, 64, 105
1, 339582, Note_off_c, 0, 89, 60
1, 339644, Note_on_c, 0, 90, 72
1, 339648, Note_on_c, 0, 63, 45
1, 339653, Control_c, 0, 64, 107
1, 339658, Note_on_c, 0, 60, 45
1, 339662, Note_on_c, 0, 69, 50
1, 339663, Note_on_c, 0, 66, 41
1, 339668, Control_c, 0, 64, 111
1, 339682, Control_c, 0, 64, 120
1, 339697, Control_c, 0, 64, 127
1, 339702, Note_off_c, 0, 66, 55
1, 339704, Note_off_c, 0, 69, 58
1, 339706, Note_off_c, 0, 60, 51
1, 339724, Note_off_c, 0, 63, 58
1, 339920, Control_c, 0, 64, 98
1, 339927, Note_on_c, 0, 93, 70
1, 339932, Note_on_c, 0, 81, 67
1, 339935, Note_on_c, 0, 69, 56
1, 339935, Control_c, 0, 64, 75
1, 339936, Note_on_c, 0, 61, 55
1, 339939, Note_on_c, 0, 64, 48
1, 339941, Note_off_c, 0, 90, 62
1, 339950, Control_c, 0, 64, 60
1, 339953, Note_off_c, 0, 81, 61
1, 339956, Note_off_c, 0, 93, 64
1, 339965, Control_c, 0, 64, 0
1, 339969, Note_off_c, 0, 64, 63
1, 339969, Note_off_c, 0, 69, 65
1, 339976, Note_off_c, 0, 61, 62
1, 340270, Note_on_c, 0, 92, 65
1, 340278, Note_on_c, 0, 64, 47
1, 340280, Note_on_c, 0, 80, 52
1, 340283, Note_on_c, 0, 61, 46
1, 340300, Note_on_c, 0, 69, 38
1, 340303, Note_off_c, 0, 92, 63
1, 340305, Note_off_c, 0, 80, 58
1, 340321, Note_off_c, 0, 64, 60
1, 340325, Note_off_c, 0, 61, 61
1, 340332, Note_off_c, 0, 69, 55
1, 340770, Note_on_c, 0, 93, 49
1, 340790, Note_on_c, 0, 61, 22
1, 340794, Note_on_c, 0, 69, 26
1, 340795, Note_on_c, 0, 81, 29
1, 340824, Control_c, 0, 64, 38
1, 340839, Control_c, 0, 64, 51
1, 340854, Control_c, 0, 64, 59
1, 340863, Poly_aftertouch_c, 0, 64, 127
1, 340869, Control_c, 0, 64, 62
1, 340884, Control_c, 0, 64, 63
1, 340898, Control_c, 0, 64, 65
1, 340913, Control_c, 0, 64, 67
1, 340928, Control_c, 0, 64, 72
1, 340943, Control_c, 0, 64, 78
1, 340958, Control_c, 0, 64, 85
1, 340973, Control_c, 0, 64, 90
1, 340988, Control_c, 0, 64, 95
1, 341003, Note_off_c, 0, 81, 39
1, 341003, Control_c, 0, 64, 102
1, 341018, Control_c, 0, 64, 127
1, 341086, Note_off_c, 0, 93, 37
1, 341188, Poly_aftertouch_c, 0, 64, 0
1, 341255, Note_off_c, 0, 61, 39
1, 341738, Note_off_c, 0, 69, 34
1, 342382, Control_c, 0, 64, 106
1, 342392, Note_on_c, 0, 60, 45
1, 342396, Control_c, 0, 64, 84
1, 342411, Control_c, 0, 64, 71
1, 342426, Control_c, 0, 64, 60
1, 342441, Control_c, 0, 64, 47
1, 342456, Control_c, 0, 64, 44
1, 342470, Control_c, 0, 64, 52
1, 342485, Control_c, 0, 64, 60
1, 342500, Control_c, 0, 64, 66
1, 342504, Note_on_c, 0, 72, 38
1, 342514, Control_c, 0, 64, 69
1, 342529, Control_c, 0, 64, 70
1, 342544, Control_c, 0, 64, 71
1, 342559, Note_off_c, 0, 72, 57
1, 342599, Note_on_c, 0, 74, 55
1, 342603, Control_c, 0, 64, 71
1, 342634, Control_c, 0, 64, 72
1, 342666, Note_off_c, 0, 74, 50
1, 342693, Note_on_c, 0, 76, 61
1, 342693, Control_c, 0, 64, 72
1, 342746, Note_off_c, 0, 76, 63
1, 342775, Note_on_c, 0, 70, 42
1, 342788, Note_on_c, 0, 64, 46
1, 342789, Note_on_c, 0, 77, 66
1, 342837, Note_off_c, 0, 60, 36
1, 342863, Note_off_c, 0, 77, 58
1, 342872, Control_c, 0, 64, 72
1, 342874, Note_off_c, 0, 70, 59
1, 342885, Note_on_c, 0, 79, 64
1, 342901, Control_c, 0, 64, 71
1, 342916, Control_c, 0, 64, 71
1, 342931, Control_c, 0, 64, 70
1, 342945, Control_c, 0, 64, 69
1, 342960, Control_c, 0, 64, 68
1, 342975, Control_c, 0, 64, 66
1, 342991, Note_off_c, 0, 79, 64
1, 342997, Control_c, 0, 64, 63
1, 343000, Note_on_c, 0, 80, 71
1, 343012, Control_c, 0, 64, 57
1, 343013, Note_on_c, 0, 59, 45
1, 343027, Control_c, 0, 64, 49
1, 343033, Note_off_c, 0, 64, 52
1, 343039, Note_on_c, 0, 76, 38
1, 343042, Control_c, 0, 64, 39
1, 343057, Control_c, 0, 64, 0
1, 343083, Note_off_c, 0, 76, 48
1, 343118, Note_off_c, 0, 80, 61
1, 343130, Note_on_c, 0, 81, 64
1, 343133, Note_on_c, 0, 78, 44
1, 343194, Note_off_c, 0, 78, 41
1, 343271, Note_off_c, 0, 81, 60
1, 343282, Note_on_c, 0, 80, 51
1, 343286, Note_on_c, 0, 83, 60
1, 343413, Control_c, 0, 64, 35
1, 343428, Control_c, 0, 64, 52
1, 343442, Control_c, 0, 64, 62
1, 343457, Control_c, 0, 64, 66
1, 343472, Control_c, 0, 64, 67
1, 343501, Control_c, 0, 64, 68
1, 343516, Control_c, 0, 64, 69
1, 343531, Control_c, 0, 64, 71
1, 343546, Control_c, 0, 64, 73
1, 343560, Control_c, 0, 64, 75
1, 343575, Control_c, 0, 64, 78
1, 343590, Control_c, 0, 64, 81
1, 343605, Control_c, 0, 64, 84
1, 343620, Control_c, 0, 64, 86
1, 343631, Note_on_c, 0, 68, 43
1, 343635, Control_c, 0, 64, 88
1, 343641, Note_on_c, 0, 64, 40
1, 343641, Note_on_c, 0, 71, 41
1, 343650, Control_c, 0, 64, 89
1, 343665, Control_c, 0, 64, 91
1, 343680, Control_c, 0, 64, 94
1, 343694, Control_c, 0, 64, 99
1, 343709, Control_c, 0, 64, 104
1, 343724, Control_c, 0, 64, 110
1, 343747, Control_c, 0, 64, 120
1, 343754, Note_off_c, 0, 59, 39
1, 343762, Control_c, 0, 64, 127
1, 343773, Note_off_c, 0, 64, 55
1, 343796, Note_off_c, 0, 68, 55
1, 343935, Note_on_c, 0, 57, 50
1, 343954, Control_c, 0, 64, 98
1, 343966, Note_off_c, 0, 71, 42
1, 343969, Control_c, 0, 64, 73
1, 343984, Control_c, 0, 64, 59
1, 343998, Control_c, 0, 64, 38
1, 344013, Control_c, 0, 64, 42
1, 344018, Note_off_c, 0, 83, 38
1, 344022, Note_off_c, 0, 80, 54
1, 344028, Control_c, 0, 64, 56
1, 344043, Control_c, 0, 64, 66
1, 344045, Note_on_c, 0, 71, 60
1, 344058, Control_c, 0, 64, 74
1, 344073, Control_c, 0, 64, 81
1, 344087, Control_c, 0, 64, 83
1, 344102, Control_c, 0, 64, 84
1, 344117, Control_c, 0, 64, 84
1, 344126, Note_off_c, 0, 71, 60
1, 344132, Control_c, 0, 64, 85
1, 344138, Note_on_c, 0, 73, 75
1, 344147, Control_c, 0, 64, 87
1, 344161, Control_c, 0, 64, 89
1, 344176, Control_c, 0, 64, 92
1, 344191, Control_c, 0, 64, 96
1, 344207, Control_c, 0, 64, 102
1, 344222, Control_c, 0, 64, 111
1, 344225, Note_on_c, 0, 75, 77
1, 344229, Note_off_c, 0, 73, 61
1, 344237, Control_c, 0, 64, 127
1, 344282, Note_off_c, 0, 75, 62
1, 344299, Note_on_c, 0, 63, 48
1, 344300, Note_on_c, 0, 66, 47
1, 344313, Note_on_c, 0, 76, 75
1, 344314, Note_on_c, 0, 69, 43
1, 344314, Note_off_c, 0, 57, 58
1, 344350, Note_on_c, 0, 77, 29
1, 344350, Note_off_c, 0, 77, 127
1, 344371, Note_off_c, 0, 66, 45
1, 344397, Note_on_c, 0, 78, 79
1, 344400, Note_off_c, 0, 76, 63
1, 344440, Note_off_c, 0, 63, 37
1, 344444, Control_c, 0, 64, 122
1, 344445, Note_off_c, 0, 69, 57
1, 344458, Control_c, 0, 64, 74
1, 344473, Control_c, 0, 64, 50
1, 344493, Note_on_c, 0, 56, 53
1, 344496, Control_c, 0, 64, 0
1, 344506, Note_on_c, 0, 80, 72
1, 344510, Note_on_c, 0, 76, 69
1, 344510, Note_off_c, 0, 78, 62
1, 344525, Control_c, 0, 64, 34
1, 344540, Control_c, 0, 64, 55
1, 344547, Note_off_c, 0, 76, 62
1, 344555, Control_c, 0, 64, 64
1, 344570, Control_c, 0, 64, 68
1, 344585, Control_c, 0, 64, 68
1, 344592, Note_on_c, 0, 81, 77
1, 344597, Note_off_c, 0, 80, 64
1, 344637, Note_off_c, 0, 81, 63
1, 344693, Note_on_c, 0, 80, 79
1, 344696, Note_on_c, 0, 83, 73
1, 344737, Note_off_c, 0, 80, 60
1, 344791, Note_on_c, 0, 85, 73
1, 344792, Note_off_c, 0, 83, 62
1, 344821, Control_c, 0, 64, 68
1, 344866, Control_c, 0, 64, 67
1, 344881, Control_c, 0, 64, 66
1, 344896, Control_c, 0, 64, 65
1, 344910, Control_c, 0, 64, 62
1, 344925, Control_c, 0, 64, 54
1, 344940, Control_c, 0, 64, 0
1, 344941, Note_on_c, 0, 68, 46
1, 344946, Note_on_c, 0, 59, 40
1, 344956, Note_off_c, 0, 85, 63
1, 344961, Note_on_c, 0, 64, 37
1, 344968, Note_on_c, 0, 83, 54
1, 344976, Note_on_c, 0, 80, 55
1, 345023, Note_off_c, 0, 83, 0
1, 345023, Note_on_c, 0, 83, 18
1, 345045, Control_c, 0, 64, 53
1, 345058, Control_c, 0, 64, 68
1, 345073, Control_c, 0, 64, 82
1, 345075, Note_off_c, 0, 56, 36
1, 345075, Note_off_c, 0, 80, 58
1, 345088, Control_c, 0, 64, 105
1, 345091, Note_off_c, 0, 83, 61
1, 345103, Control_c, 0, 64, 127
1, 345107, Note_off_c, 0, 68, 61
1, 345187, Note_off_c, 0, 59, 30
1, 345250, Note_off_c, 0, 64, 42
1, 345253, Note_on_c, 0, 55, 66
1, 345318, Control_c, 0, 64, 88
1, 345333, Control_c, 0, 64, 74
1, 345347, Control_c, 0, 64, 69
1, 345362, Control_c, 0, 64, 68
1, 345377, Control_c, 0, 64, 69
1, 345383, Note_on_c, 0, 71, 56
1, 345392, Control_c, 0, 64, 71
1, 345407, Control_c, 0, 64, 74
1, 345421, Control_c, 0, 64, 78
1, 345424, Note_off_c, 0, 71, 60
1, 345436, Control_c, 0, 64, 84
1, 345451, Control_c, 0, 64, 91
1, 345463, Note_on_c, 0, 73, 67
1, 345465, Control_c, 0, 64, 102
1, 345480, Control_c, 0, 64, 127
1, 345526, Note_off_c, 0, 73, 64
1, 345546, Note_on_c, 0, 75, 71
1, 345592, Note_on_c, 0, 67, 47
1, 345597, Note_off_c, 0, 75, 62
1, 345602, Note_on_c, 0, 64, 37
1, 345618, Note_on_c, 0, 59, 12
1, 345626, Note_off_c, 0, 55, 47
1, 345628, Note_on_c, 0, 76, 77
1, 345659, Note_off_c, 0, 59, 52
1, 345663, Note_off_c, 0, 64, 62
1, 345663, Note_off_c, 0, 67, 62
1, 345694, Note_off_c, 0, 76, 62
1, 345701, Note_on_c, 0, 78, 79
1, 345747, Control_c, 0, 64, 104
1, 345751, Note_off_c, 0, 78, 64
1, 345762, Control_c, 0, 64, 65
1, 345777, Control_c, 0, 64, 0
1, 345785, Note_on_c, 0, 54, 59
1, 345788, Note_on_c, 0, 80, 76
1, 345820, Note_on_c, 0, 76, 44
1, 345837, Control_c, 0, 64, 49
1, 345845, Note_off_c, 0, 76, 58
1, 345852, Control_c, 0, 64, 61
1, 345867, Control_c, 0, 64, 67
1, 345881, Note_off_c, 0, 80, 60
1, 345881, Control_c, 0, 64, 70
1, 345884, Note_on_c, 0, 85, 65
1, 345896, Control_c, 0, 64, 70
1, 345926, Control_c, 0, 64, 71
1, 345941, Control_c, 0, 64, 72
1, 345951, Note_off_c, 0, 85, 65
1, 345952, Note_on_c, 0, 83, 69
1, 345955, Control_c, 0, 64, 73
1, 345970, Control_c, 0, 64, 76
1, 345984, Note_off_c, 0, 83, 67
1, 345993, Control_c, 0, 64, 80
1, 346008, Control_c, 0, 64, 83
1, 346023, Control_c, 0, 64, 87
1, 346037, Control_c, 0, 64, 92
1, 346052, Control_c, 0, 64, 97
1, 346067, Control_c, 0, 64, 103
1, 346081, Control_c, 0, 64, 114
1, 346096, Control_c, 0, 64, 127
1, 346125, Note_on_c, 0, 78, 72
1, 346128, Note_on_c, 0, 73, 60
1, 346136, Note_on_c, 0, 61, 56
1, 346142, Note_off_c, 0, 54, 61
1, 346157, Note_off_c, 0, 73, 66
1, 346163, Note_off_c, 0, 61, 63
1, 346206, Note_on_c, 0, 83, 70
1, 346215, Control_c, 0, 64, 110
1, 346229, Control_c, 0, 64, 72
1, 346230, Note_off_c, 0, 78, 60
1, 346244, Control_c, 0, 64, 50
1, 346259, Control_c, 0, 64, 0
1, 346274, Note_off_c, 0, 83, 64
1, 346280, Note_on_c, 0, 81, 69
1, 346287, Note_on_c, 0, 45, 51
1, 346288, Control_c, 0, 64, 51
1, 346303, Control_c, 0, 64, 65
1, 346308, Note_off_c, 0, 81, 65
1, 346318, Control_c, 0, 64, 74
1, 346333, Control_c, 0, 64, 80
1, 346348, Control_c, 0, 64, 81
1, 346452, Control_c, 0, 64, 82
1, 346456, Note_on_c, 0, 73, 65
1, 346467, Control_c, 0, 64, 82
1, 346481, Control_c, 0, 64, 83
1, 346496, Control_c, 0, 64, 84
1, 346511, Control_c, 0, 64, 85
1, 346526, Control_c, 0, 64, 86
1, 346529, Note_on_c, 0, 80, 58
1, 346541, Control_c, 0, 64, 88
1, 346554, Note_off_c, 0, 73, 60
1, 346555, Control_c, 0, 64, 92
1, 346570, Control_c, 0, 64, 97
1, 346585, Control_c, 0, 64, 101
1, 346586, Note_off_c, 0, 80, 60
1, 346593, Note_on_c, 0, 78, 60
1, 346600, Control_c, 0, 64, 104
1, 346607, Note_on_c, 0, 54, 37
1, 346616, Control_c, 0, 64, 108
1, 346618, Note_on_c, 0, 57, 42
1, 346628, Note_off_c, 0, 45, 36
1, 346631, Control_c, 0, 64, 122
1, 346646, Control_c, 0, 64, 127
1, 346741, Control_c, 0, 64, 100
1, 346744, Note_off_c, 0, 78, 63
1, 346755, Note_off_c, 0, 54, 31
1, 346756, Control_c, 0, 64, 69
1, 346771, Control_c, 0, 64, 40
1, 346783, Note_on_c, 0, 77, 59
1, 346786, Control_c, 0, 64, 0
1, 346786, Note_on_c, 0, 45, 47
1, 346794, Note_on_c, 0, 72, 63
1, 346801, Control_c, 0, 64, 34
1, 346812, Note_off_c, 0, 77, 66
1, 346815, Control_c, 0, 64, 60
1, 346822, Note_off_c, 0, 72, 66
1, 346828, Note_off_c, 0, 57, 43
1, 346830, Control_c, 0, 64, 72
1, 346845, Control_c, 0, 64, 80
1, 346860, Control_c, 0, 64, 83
1, 346949, Note_on_c, 0, 60, 64
1, 346973, Note_on_c, 0, 62, 74
1, 346985, Note_off_c, 0, 60, 64
1, 346993, Control_c, 0, 64, 83
1, 347008, Control_c, 0, 64, 84
1, 347023, Control_c, 0, 64, 85
1, 347030, Note_off_c, 0, 62, 63
1, 347032, Note_on_c, 0, 64, 73
1, 347037, Control_c, 0, 64, 85
1, 347042, Note_off_c, 0, 45, 54
1, 347052, Control_c, 0, 64, 87
1, 347067, Control_c, 0, 64, 90
1, 347082, Control_c, 0, 64, 94
1, 347083, Note_off_c, 0, 64, 61
1, 347097, Control_c, 0, 64, 98
1, 347099, Note_on_c, 0, 53, 41
1, 347105, Note_on_c, 0, 65, 82
1, 347105, Note_on_c, 0, 57, 52
1, 347111, Control_c, 0, 64, 105
1, 347126, Control_c, 0, 64, 116
1, 347141, Control_c, 0, 64, 127
1, 347174, Note_off_c, 0, 65, 61
1, 347179, Note_on_c, 0, 67, 74
1, 347185, Control_c, 0, 64, 109
1, 347200, Control_c, 0, 64, 75
1, 347215, Control_c, 0, 64, 47
1, 347217, Note_off_c, 0, 53, 41
1, 347230, Control_c, 0, 64, 0
1, 347245, Note_off_c, 0, 67, 62
1, 347251, Note_on_c, 0, 47, 48
1, 347258, Note_off_c, 0, 57, 43
1, 347259, Note_on_c, 0, 69, 70
1, 347275, Control_c, 0, 64, 46
1, 347289, Control_c, 0, 64, 63
1, 347293, Note_off_c, 0, 69, 62
1, 347304, Control_c, 0, 64, 69
1, 347319, Control_c, 0, 64, 71
1, 347334, Control_c, 0, 64, 72
1, 347340, Note_on_c, 0, 71, 75
1, 347349, Control_c, 0, 64, 75
1, 347364, Control_c, 0, 64, 77
1, 347379, Control_c, 0, 64, 79
1, 347407, Note_off_c, 0, 71, 62
1, 347409, Control_c, 0, 64, 80
1, 347416, Note_on_c, 0, 73, 73
1, 347424, Control_c, 0, 64, 80
1, 347439, Control_c, 0, 64, 82
1, 347453, Control_c, 0, 64, 85
1, 347468, Control_c, 0, 64, 87
1, 347491, Control_c, 0, 64, 88
1, 347494, Note_off_c, 0, 73, 62
1, 347497, Note_on_c, 0, 75, 68
1, 347521, Control_c, 0, 64, 89
1, 347535, Control_c, 0, 64, 90
1, 347543, Note_off_c, 0, 75, 61
1, 347550, Control_c, 0, 64, 93
1, 347565, Control_c, 0, 64, 97
1, 347573, Note_off_c, 0, 47, 40
1, 347575, Note_on_c, 0, 59, 53
1, 347580, Note_on_c, 0, 76, 76
1, 347580, Control_c, 0, 64, 102
1, 347588, Note_on_c, 0, 54, 54
1, 347589, Note_on_c, 0, 57, 37
1, 347595, Control_c, 0, 64, 106
1, 347608, Note_off_c, 0, 59, 65
1, 347609, Control_c, 0, 64, 115
1, 347617, Note_off_c, 0, 54, 66
1, 347622, Note_off_c, 0, 57, 52
1, 347624, Control_c, 0, 64, 127
1, 347652, Note_on_c, 0, 78, 78
1, 347652, Note_off_c, 0, 76, 62
1, 347668, Control_c, 0, 64, 97
1, 347683, Control_c, 0, 64, 64
1, 347698, Control_c, 0, 64, 0
1, 347719, Note_off_c, 0, 78, 63
1, 347723, Note_on_c, 0, 40, 67
1, 347733, Note_on_c, 0, 80, 79
1, 347735, Note_on_c, 0, 52, 65
1, 347743, Control_c, 0, 64, 41
1, 347757, Control_c, 0, 64, 62
1, 347761, Note_on_c, 0, 76, 55
1, 347772, Control_c, 0, 64, 69
1, 347782, Note_off_c, 0, 76, 60
1, 347787, Control_c, 0, 64, 72
1, 347796, Note_off_c, 0, 40, 61
1, 347802, Control_c, 0, 64, 72
1, 347805, Note_off_c, 0, 80, 55
1, 347808, Note_on_c, 0, 81, 82
1, 347817, Control_c, 0, 64, 73
1, 347832, Control_c, 0, 64, 76
1, 347832, Note_on_c, 0, 78, 59
1, 347846, Note_off_c, 0, 52, 63
1, 347847, Control_c, 0, 64, 77
1, 347851, Note_off_c, 0, 78, 65
1, 347861, Control_c, 0, 64, 78
1, 347879, Note_off_c, 0, 81, 64
1, 347882, Note_on_c, 0, 80, 85
1, 347882, Note_on_c, 0, 83, 78
1, 347906, Control_c, 0, 64, 79
1, 347921, Control_c, 0, 64, 81
1, 347935, Control_c, 0, 64, 84
1, 347950, Control_c, 0, 64, 86
1, 347965, Control_c, 0, 64, 87
1, 347979, Control_c, 0, 64, 88
1, 347994, Control_c, 0, 64, 91
1, 348009, Control_c, 0, 64, 94
1, 348024, Control_c, 0, 64, 98
1, 348039, Control_c, 0, 64, 101
1, 348048, Note_on_c, 0, 64, 60
1, 348049, Note_on_c, 0, 59, 57
1, 348052, Note_on_c, 0, 56, 61
1, 348053, Control_c, 0, 64, 104
1, 348067, Control_c, 0, 64, 109
1, 348080, Note_off_c, 0, 59, 65
1, 348082, Note_off_c, 0, 64, 63
1, 348082, Control_c, 0, 64, 127
1, 348084, Note_off_c, 0, 56, 64
1, 348219, Note_on_c, 0, 62, 85
1, 348220, Note_on_c, 0, 50, 77
1, 348239, Control_c, 0, 64, 82
1, 348254, Control_c, 0, 64, 61
1, 348269, Control_c, 0, 64, 35
1, 348283, Control_c, 0, 64, 45
1, 348284, Note_off_c, 0, 80, 57
1, 348288, Note_off_c, 0, 83, 31
1, 348298, Control_c, 0, 64, 61
1, 348300, Note_off_c, 0, 50, 61
1, 348302, Note_on_c, 0, 71, 74
1, 348313, Control_c, 0, 64, 73
1, 348328, Control_c, 0, 64, 87
1, 348343, Control_c, 0, 64, 97
1, 348365, Note_off_c, 0, 71, 63
1, 348374, Note_off_c, 0, 62, 63
1, 348376, Note_on_c, 0, 73, 73
1, 348387, Control_c, 0, 64, 99
1, 348417, Control_c, 0, 64, 101
1, 348434, Note_off_c, 0, 73, 63
1, 348446, Control_c, 0, 64, 103
1, 348458, Note_on_c, 0, 75, 70
1, 348461, Control_c, 0, 64, 106
1, 348476, Control_c, 0, 64, 115
1, 348489, Note_off_c, 0, 75, 60
1, 348491, Control_c, 0, 64, 127
1, 348530, Note_on_c, 0, 71, 72
1, 348531, Note_on_c, 0, 76, 78
1, 348535, Note_on_c, 0, 67, 54
1, 348536, Note_on_c, 0, 64, 61
1, 348555, Note_off_c, 0, 71, 67
1, 348565, Note_off_c, 0, 64, 67
1, 348565, Note_off_c, 0, 67, 65
1, 348607, Note_off_c, 0, 76, 61
1, 348607, Note_on_c, 0, 78, 83
1, 348639, Control_c, 0, 64, 86
1, 348654, Control_c, 0, 64, 61
1, 348669, Control_c, 0, 64, 0
1, 348673, Note_off_c, 0, 78, 63
1, 348682, Note_on_c, 0, 61, 93
1, 348683, Control_c, 0, 64, 43
1, 348690, Note_on_c, 0, 79, 84
1, 348696, Note_on_c, 0, 49, 60
1, 348698, Control_c, 0, 64, 64
1, 348704, Note_on_c, 0, 76, 69
1, 348713, Control_c, 0, 64, 88
1, 348721, Note_off_c, 0, 49, 61
1, 348728, Note_off_c, 0, 61, 59
1, 348728, Control_c, 0, 64, 127
1, 348729, Note_off_c, 0, 76, 68
1, 348747, Note_off_c, 0, 79, 65
1, 348760, Note_on_c, 0, 81, 85
1, 348780, Note_off_c, 0, 81, 71
1, 348837, Note_on_c, 0, 79, 80
1, 348838, Note_on_c, 0, 83, 88
1, 348863, Note_off_c, 0, 79, 66
1, 348895, Note_off_c, 0, 83, 63
1, 348914, Note_on_c, 0, 84, 84
1, 348983, Note_on_c, 0, 79, 82
1, 348994, Note_on_c, 0, 83, 90
1, 348996, Note_on_c, 0, 71, 71
1, 349000, Note_off_c, 0, 84, 65
1, 349004, Note_on_c, 0, 67, 67
1, 349012, Note_on_c, 0, 64, 58
1, 349020, Note_off_c, 0, 71, 70
1, 349027, Note_off_c, 0, 67, 68
1, 349040, Note_off_c, 0, 64, 67
1, 349077, Control_c, 0, 67, 112
1, 349078, Note_off_c, 0, 79, 56
1, 349092, Control_c, 0, 67, 100
1, 349106, Control_c, 0, 67, 95
1, 349121, Control_c, 0, 64, 102
1, 349121, Control_c, 0, 67, 92
1, 349136, Control_c, 0, 64, 65
1, 349136, Control_c, 0, 67, 87
1, 349151, Control_c, 0, 64, 40
1, 349151, Control_c, 0, 67, 82
1, 349155, Note_on_c, 0, 60, 92
1, 349158, Note_on_c, 0, 48, 85
1, 349166, Control_c, 0, 64, 47
1, 349166, Control_c, 0, 67, 80
1, 349174, Note_off_c, 0, 83, 64
1, 349180, Control_c, 0, 64, 67
1, 349180, Control_c, 0, 67, 80
1, 349184, Note_off_c, 0, 48, 68
1, 349185, Note_off_c, 0, 60, 68
1, 349195, Control_c, 0, 64, 104
1, 349195, Control_c, 0, 67, 79
1, 349210, Control_c, 0, 64, 127
1, 349210, Control_c, 0, 67, 78
1, 349225, Control_c, 0, 67, 77
1, 349228, Note_on_c, 0, 84, 81
1, 349269, Control_c, 0, 67, 76
1, 349284, Control_c, 0, 67, 73
1, 349288, Note_off_c, 0, 84, 62
1, 349299, Control_c, 0, 67, 66
1, 349303, Note_on_c, 0, 86, 82
1, 349313, Control_c, 0, 67, 64
1, 349328, Control_c, 0, 67, 65
1, 349343, Control_c, 0, 67, 67
1, 349362, Note_off_c, 0, 86, 64
1, 349368, Note_on_c, 0, 88, 75
1, 349373, Control_c, 0, 67, 64
1, 349388, Control_c, 0, 67, 60
1, 349403, Control_c, 0, 67, 52
1, 349412, Note_off_c, 0, 88, 65
1, 349418, Control_c, 0, 67, 49
1, 349447, Control_c, 0, 67, 48
1, 349451, Note_on_c, 0, 70, 71
1, 349455, Note_on_c, 0, 64, 62
1, 349456, Note_on_c, 0, 89, 79
1, 349462, Control_c, 0, 67, 39
1, 349468, Note_off_c, 0, 70, 67
1, 349477, Control_c, 0, 67, 20
1, 349483, Note_off_c, 0, 64, 66
1, 349492, Control_c, 0, 67, 0
1, 349516, Note_on_c, 0, 91, 82
1, 349521, Control_c, 0, 64, 93
1, 349536, Control_c, 0, 64, 57
1, 349551, Control_c, 0, 64, 0
1, 349570, Note_off_c, 0, 89, 33
1, 349580, Control_c, 0, 64, 69
1, 349585, Note_off_c, 0, 91, 65
1, 349588, Note_on_c, 0, 93, 81
1, 349592, Note_on_c, 0, 54, 97
1, 349595, Control_c, 0, 64, 127
1, 349609, Note_on_c, 0, 44, 60
1, 349610, Control_c, 0, 67, 19
1, 349612, Note_off_c, 0, 54, 70
1, 349625, Note_on_c, 0, 89, 55
1, 349630, Note_off_c, 0, 93, 66
1, 349635, Note_off_c, 0, 44, 58
1, 349639, Control_c, 0, 67, 0
1, 349649, Note_on_c, 0, 94, 81
1, 349650, Note_off_c, 0, 89, 60
1, 349667, Note_off_c, 0, 94, 73
1, 349713, Control_c, 0, 67, 19
1, 349736, Control_c, 0, 67, 0
1, 349740, Note_on_c, 0, 96, 87
1, 349744, Note_on_c, 0, 63, 46
1, 349749, Note_on_c, 0, 61, 64
1, 349755, Note_on_c, 0, 93, 54
1, 349758, Note_on_c, 0, 91, 56
1, 349768, Note_off_c, 0, 63, 58
1, 349773, Note_off_c, 0, 93, 63
1, 349777, Note_off_c, 0, 91, 62
1, 349779, Note_off_c, 0, 61, 63
1, 349811, Note_on_c, 0, 98, 90
1, 349811, Control_c, 0, 67, 20
1, 349817, Note_off_c, 0, 96, 64
1, 349841, Control_c, 0, 67, 0
1, 349887, Note_on_c, 0, 93, 74
1, 349891, Note_on_c, 0, 96, 85
1, 349900, Note_off_c, 0, 98, 66
1, 349900, Control_c, 0, 67, 22
1, 349904, Note_off_c, 0, 93, 69
1, 349910, Note_off_c, 0, 96, 70
1, 349915, Control_c, 0, 64, 104
1, 349915, Control_c, 0, 67, 26
1, 349929, Control_c, 0, 64, 62
1, 349929, Control_c, 0, 67, 23
1, 349944, Control_c, 0, 64, 0
1, 349944, Control_c, 0, 67, 0
1, 349989, Control_c, 0, 67, 19
1, 350003, Control_c, 0, 67, 25
1, 350033, Control_c, 0, 64, 64
1, 350033, Control_c, 0, 67, 21
1, 350042, Note_on_c, 0, 72, 76
1, 350044, Note_on_c, 0, 56, 86
1, 350048, Control_c, 0, 64, 73
1, 350056, Note_on_c, 0, 44, 57
1, 350062, Note_off_c, 0, 72, 71
1, 350062, Control_c, 0, 64, 68
1, 350065, Note_off_c, 0, 56, 69
1, 350067, Note_on_c, 0, 83, 38
1, 350068, Note_on_c, 0, 84, 44
1, 350077, Control_c, 0, 64, 45
1, 350077, Control_c, 0, 67, 26
1, 350081, Note_off_c, 0, 44, 60
1, 350092, Control_c, 0, 64, 0
1, 350092, Control_c, 0, 67, 31
1, 350097, Note_off_c, 0, 83, 50
1, 350097, Note_off_c, 0, 84, 52
1, 350122, Control_c, 0, 67, 22
1, 350136, Control_c, 0, 67, 0
1, 350181, Control_c, 0, 67, 19
1, 350205, Note_on_c, 0, 73, 85
1, 350208, Note_on_c, 0, 85, 83
1, 350211, Control_c, 0, 67, 0
1, 350217, Note_on_c, 0, 66, 66
1, 350221, Note_on_c, 0, 56, 70
1, 350221, Note_on_c, 0, 60, 61
1, 350224, Note_off_c, 0, 73, 68
1, 350229, Note_off_c, 0, 85, 71
1, 350235, Note_off_c, 0, 66, 65
1, 350243, Note_off_c, 0, 56, 57
1, 350249, Note_off_c, 0, 60, 66
1, 350358, Note_on_c, 0, 75, 84
1, 350360, Control_c, 0, 67, 20
1, 350361, Note_on_c, 0, 87, 86
1, 350379, Note_off_c, 0, 75, 68
1, 350381, Note_off_c, 0, 87, 67
1, 350389, Control_c, 0, 67, 0
1, 350448, Control_c, 0, 67, 21
1, 350485, Control_c, 0, 64, 35
1, 350485, Control_c, 0, 67, 0
1, 350500, Control_c, 0, 64, 61
1, 350515, Control_c, 0, 64, 76
1, 350518, Note_on_c, 0, 49, 72
1, 350528, Note_on_c, 0, 89, 88
1, 350530, Control_c, 0, 64, 93
1, 350530, Control_c, 0, 67, 20
1, 350532, Note_on_c, 0, 37, 22
1, 350533, Note_on_c, 0, 77, 77
1, 350541, Note_off_c, 0, 49, 66
1, 350545, Control_c, 0, 64, 108
1, 350545, Control_c, 0, 67, 24
1, 350548, Note_off_c, 0, 89, 69
1, 350552, Note_off_c, 0, 77, 69
1, 350574, Control_c, 0, 64, 117
1, 350574, Control_c, 0, 67, 20
1, 350579, Note_off_c, 0, 37, 40
1, 350589, Control_c, 0, 64, 127
1, 350589, Control_c, 0, 67, 0
1, 350634, Control_c, 0, 67, 20
1, 350679, Control_c, 0, 67, 0
1, 350702, Note_on_c, 0, 56, 58
1, 350704, Note_on_c, 0, 61, 55
1, 350741, Note_off_c, 0, 61, 62
1, 350744, Note_off_c, 0, 56, 61
1, 350765, Poly_aftertouch_c, 0, 65, 127
1, 350769, Note_on_c, 0, 76, 75
1, 350777, Note_on_c, 0, 88, 71
1, 350792, Poly_aftertouch_c, 0, 65, 0
1, 350798, Note_off_c, 0, 76, 64
1, 350801, Note_off_c, 0, 88, 68
1, 350822, Note_on_c, 0, 89, 77
1, 350916, Control_c, 0, 67, 19
1, 350931, Control_c, 0, 67, 0
1, 350960, Control_c, 0, 64, 76
1, 350972, Note_off_c, 0, 89, 40
1, 350975, Control_c, 0, 64, 35
1, 350990, Control_c, 0, 64, 0
1, 350990, Control_c, 0, 67, 20
1, 350996, Note_on_c, 0, 49, 62
1, 351018, Note_on_c, 0, 76, 72
1, 351019, Control_c, 0, 64, 34
1, 351034, Control_c, 0, 64, 62
1, 351034, Control_c, 0, 67, 0
1, 351039, Note_off_c, 0, 49, 64
1, 351049, Control_c, 0, 64, 76
1, 351064, Control_c, 0, 64, 102
1, 351069, Note_off_c, 0, 76, 63
1, 351078, Control_c, 0, 64, 127
1, 351078, Control_c, 0, 67, 21
1, 351084, Note_on_c, 0, 79, 73
1, 351123, Control_c, 0, 67, 19
1, 351135, Note_on_c, 0, 58, 55
1, 351138, Control_c, 0, 67, 0
1, 351146, Note_on_c, 0, 82, 72
1, 351148, Note_off_c, 0, 79, 66
1, 351150, Note_on_c, 0, 64, 59
1, 351159, Note_on_c, 0, 55, 50
1, 351179, Note_off_c, 0, 64, 66
1, 351182, Control_c, 0, 67, 20
1, 351197, Note_off_c, 0, 55, 63
1, 351198, Note_off_c, 0, 82, 64
1, 351203, Note_off_c, 0, 58, 62
1, 351212, Control_c, 0, 67, 0
1, 351253, Note_on_c, 0, 84, 35
1, 351278, Control_c, 0, 67, 20
1, 351284, Note_off_c, 0, 84, 55
1, 351290, Note_on_c, 0, 88, 80
1, 351308, Control_c, 0, 67, 0
1, 351357, Note_off_c, 0, 88, 61
1, 351364, Note_on_c, 0, 90, 66
1, 351367, Control_c, 0, 64, 80
1, 351367, Control_c, 0, 67, 24
1, 351382, Control_c, 0, 64, 36
1, 351397, Control_c, 0, 64, 0
1, 351397, Control_c, 0, 67, 22
1, 351413, Control_c, 0, 67, 19
1, 351421, Note_on_c, 0, 40, 67
1, 351422, Note_on_c, 0, 52, 76
1, 351427, Note_on_c, 0, 92, 73
1, 351431, Note_off_c, 0, 90, 61
1, 351436, Note_on_c, 0, 88, 63
1, 351447, Note_off_c, 0, 52, 67
1, 351451, Note_off_c, 0, 40, 64
1, 351457, Control_c, 0, 67, 27
1, 351471, Note_off_c, 0, 88, 65
1, 351472, Control_c, 0, 67, 35
1, 351487, Note_on_c, 0, 93, 76
1, 351487, Note_off_c, 0, 92, 65
1, 351487, Control_c, 0, 67, 38
1, 351501, Control_c, 0, 67, 34
1, 351510, Note_off_c, 0, 93, 69
1, 351516, Control_c, 0, 67, 32
1, 351531, Control_c, 0, 67, 32
1, 351546, Control_c, 0, 67, 35
1, 351561, Control_c, 0, 67, 40
1, 351569, Note_on_c, 0, 95, 77
1, 351570, Note_on_c, 0, 64, 66
1, 351571, Note_on_c, 0, 56, 68
1, 351573, Note_on_c, 0, 94, 45
1, 351576, Control_c, 0, 67, 42
1, 351580, Note_on_c, 0, 59, 39
1, 351582, Note_on_c, 0, 92, 68
1, 351589, Note_off_c, 0, 64, 65
1, 351591, Control_c, 0, 67, 38
1, 351601, Note_off_c, 0, 56, 64
1, 351606, Note_off_c, 0, 92, 67
1, 351606, Note_off_c, 0, 59, 54
1, 351606, Control_c, 0, 67, 36
1, 351611, Note_off_c, 0, 94, 62
1, 351621, Note_off_c, 0, 95, 65
1, 351621, Control_c, 0, 67, 35
1, 351636, Control_c, 0, 67, 35
1, 351643, Note_on_c, 0, 97, 79
1, 351650, Control_c, 0, 67, 40
1, 351665, Control_c, 0, 67, 42
1, 351680, Control_c, 0, 67, 39
1, 351690, Note_off_c, 0, 97, 65
1, 351694, Note_on_c, 0, 92, 82
1, 351695, Control_c, 0, 67, 35
1, 351701, Note_on_c, 0, 95, 83
1, 351710, Control_c, 0, 67, 34
1, 351715, Note_off_c, 0, 92, 70
1, 351719, Note_off_c, 0, 95, 72
1, 351725, Control_c, 0, 67, 33
1, 351740, Control_c, 0, 67, 38
1, 351754, Control_c, 0, 67, 40
1, 351769, Control_c, 0, 67, 37
1, 351784, Control_c, 0, 67, 33
1, 351799, Control_c, 0, 67, 30
1, 351858, Control_c, 0, 64, 36
1, 351858, Control_c, 0, 67, 22
1, 351859, Note_on_c, 0, 55, 96
1, 351862, Note_on_c, 0, 43, 80
1, 351873, Control_c, 0, 64, 77
1, 351873, Control_c, 0, 67, 0
1, 351883, Note_on_c, 0, 83, 90
1, 351885, Note_off_c, 0, 43, 67
1, 351887, Note_on_c, 0, 71, 85
1, 351887, Note_off_c, 0, 55, 66
1, 351888, Control_c, 0, 64, 91
1, 351898, Note_off_c, 0, 83, 74
1, 351902, Control_c, 0, 64, 122
1, 351904, Note_off_c, 0, 71, 69
1, 351917, Control_c, 0, 64, 127
1, 352044, Note_on_c, 0, 65, 85
1, 352045, Note_on_c, 0, 72, 94
1, 352047, Note_on_c, 0, 53, 78
1, 352048, Note_on_c, 0, 84, 96
1, 352050, Note_on_c, 0, 59, 68
1, 352065, Note_off_c, 0, 65, 71
1, 352068, Note_off_c, 0, 59, 68
1, 352071, Note_off_c, 0, 72, 64
1, 352071, Note_on_c, 0, 64, 42
1, 352071, Note_off_c, 0, 64, 127
1, 352073, Note_off_c, 0, 53, 68
1, 352075, Note_off_c, 0, 84, 61
1, 352190, Note_on_c, 0, 74, 100
1, 352191, Note_on_c, 0, 86, 99
1, 352217, Note_off_c, 0, 74, 63
1, 352226, Note_off_c, 0, 86, 66
1, 352237, Control_c, 0, 64, 66
1, 352251, Control_c, 0, 64, 0
1, 352339, Note_on_c, 0, 48, 95
1, 352340, Control_c, 0, 67, 38
1, 352346, Note_on_c, 0, 36, 67
1, 352351, Note_on_c, 0, 88, 98
1, 352351, Note_on_c, 0, 76, 104
1, 352355, Note_off_c, 0, 36, 73
1, 352355, Control_c, 0, 64, 71
1, 352355, Control_c, 0, 67, 40
1, 352367, Note_off_c, 0, 48, 70
1, 352368, Note_off_c, 0, 76, 73
1, 352370, Note_off_c, 0, 88, 68
1, 352370, Control_c, 0, 64, 127
1, 352370, Control_c, 0, 67, 29
1, 352399, Control_c, 0, 67, 32
1, 352414, Control_c, 0, 67, 39
1, 352429, Control_c, 0, 67, 43
1, 352444, Control_c, 0, 67, 37
1, 352458, Control_c, 0, 67, 31
1, 352473, Control_c, 0, 67, 23
1, 352503, Control_c, 0, 67, 25
1, 352523, Note_on_c, 0, 64, 82
1, 352530, Note_on_c, 0, 55, 70
1, 352530, Note_on_c, 0, 60, 70
1, 352533, Control_c, 0, 67, 22
1, 352548, Control_c, 0, 67, 0
1, 352555, Note_off_c, 0, 60, 69
1, 352559, Note_off_c, 0, 55, 67
1, 352566, Note_off_c, 0, 64, 61
1, 352585, Note_on_c, 0, 87, 91
1, 352591, Note_on_c, 0, 75, 73
1, 352616, Note_off_c, 0, 75, 69
1, 352626, Note_off_c, 0, 87, 58
1, 352651, Note_on_c, 0, 88, 92
1, 352655, Note_on_c, 0, 76, 100
1, 352696, Control_c, 0, 64, 81
1, 352711, Control_c, 0, 64, 43
1, 352733, Control_c, 0, 64, 0
1, 352830, Note_on_c, 0, 60, 87
1, 352851, Control_c, 0, 67, 71
1, 352866, Control_c, 0, 64, 69
1, 352866, Control_c, 0, 67, 127
1, 352881, Control_c, 0, 64, 127
1, 352896, Control_c, 0, 67, 124
1, 352908, Note_on_c, 0, 84, 81
1, 352911, Control_c, 0, 67, 117
1, 352917, Note_off_c, 0, 88, 59
1, 352921, Note_off_c, 0, 76, 59
1, 352925, Control_c, 0, 67, 115
1, 352955, Control_c, 0, 67, 117
1, 352970, Control_c, 0, 67, 112
1, 352979, Note_on_c, 0, 64, 67
1, 352980, Note_on_c, 0, 68, 70
1, 352984, Control_c, 0, 67, 100
1, 352985, Note_on_c, 0, 80, 77
1, 352999, Note_off_c, 0, 84, 64
1, 353000, Control_c, 0, 67, 80
1, 353004, Note_off_c, 0, 68, 70
1, 353006, Note_off_c, 0, 64, 68
1, 353015, Control_c, 0, 67, 70
1, 353030, Control_c, 0, 67, 73
1, 353031, Note_off_c, 0, 60, 66
1, 353034, Note_off_c, 0, 80, 64
1, 353059, Note_on_c, 0, 76, 77
1, 353060, Control_c, 0, 67, 65
1, 353074, Control_c, 0, 67, 42
1, 353082, Note_off_c, 0, 76, 69
1, 353089, Control_c, 0, 67, 0
1, 353138, Note_on_c, 0, 74, 71
1, 353141, Note_on_c, 0, 72, 82
1, 353161, Note_off_c, 0, 74, 66
1, 353198, Note_off_c, 0, 72, 62
1, 353206, Note_on_c, 0, 70, 54
1, 353222, Control_c, 0, 64, 70
1, 353230, Note_off_c, 0, 70, 39
1, 353237, Control_c, 0, 64, 0
1, 353265, Note_on_c, 0, 47, 57
1, 353267, Note_on_c, 0, 45, 81
1, 353272, Poly_aftertouch_c, 0, 51, 0
1, 353281, Control_c, 0, 64, 33
1, 353281, Control_c, 0, 67, 60
1, 353290, Note_on_c, 0, 71, 91
1, 353292, Note_on_c, 0, 84, 93
1, 353295, Note_off_c, 0, 45, 69
1, 353296, Control_c, 0, 64, 79
1, 353296, Control_c, 0, 67, 96
1, 353304, Note_on_c, 0, 83, 76
1, 353307, Note_on_c, 0, 76, 70
1, 353311, Control_c, 0, 64, 127
1, 353311, Control_c, 0, 67, 85
1, 353313, Note_off_c, 0, 71, 67
1, 353319, Note_on_c, 0, 77, 31
1, 353320, Note_on_c, 0, 81, 56
1, 353326, Control_c, 0, 67, 75
1, 353329, Note_off_c, 0, 83, 53
1, 353332, Note_on_c, 0, 80, 12
1, 353335, Note_off_c, 0, 84, 59
1, 353335, Note_on_c, 0, 72, 17
1, 353341, Control_c, 0, 67, 61
1, 353351, Note_off_c, 0, 76, 56
1, 353356, Control_c, 0, 67, 50
1, 353370, Control_c, 0, 67, 51
1, 353376, Note_off_c, 0, 77, 41
1, 353378, Note_off_c, 0, 81, 64
1, 353379, Note_off_c, 0, 80, 52
1, 353385, Control_c, 0, 67, 52
1, 353386, Note_off_c, 0, 72, 44
1, 353400, Control_c, 0, 67, 44
1, 353412, Note_on_c, 0, 56, 9
1, 353415, Control_c, 0, 67, 33
1, 353430, Control_c, 0, 67, 19
1, 353445, Control_c, 0, 67, 0
1, 353448, Note_on_c, 0, 52, 70
1, 353451, Note_off_c, 0, 56, 0
1, 353451, Note_on_c, 0, 56, 34
1, 353459, Note_on_c, 0, 59, 67
1, 353472, Note_off_c, 0, 47, 62
1, 353507, Note_off_c, 0, 52, 62
1, 353514, Note_on_c, 0, 82, 66
1, 353515, Note_on_c, 0, 70, 88
1, 353522, Note_off_c, 0, 56, 61
1, 353524, Note_off_c, 0, 59, 63
1, 353532, Note_off_c, 0, 70, 74
1, 353537, Note_off_c, 0, 82, 66
1, 353561, Note_on_c, 0, 83, 14
1, 353570, Control_c, 0, 64, 75
1, 353579, Note_on_c, 0, 71, 91
1, 353585, Control_c, 0, 64, 0
1, 353610, Note_off_c, 0, 71, 65
1, 353623, Note_off_c, 0, 83, 64
1, 353748, Control_c, 0, 64, 44
1, 353748, Control_c, 0, 67, 45
1, 353749, Note_on_c, 0, 60, 91
1, 353762, Note_on_c, 0, 80, 101
1, 353762, Note_on_c, 0, 92, 110
1, 353763, Control_c, 0, 64, 127
1, 353763, Control_c, 0, 67, 61
1, 353778, Control_c, 0, 67, 57
1, 353780, Note_on_c, 0, 93, 80
1, 353790, Note_on_c, 0, 82, 54
1, 353790, Note_off_c, 0, 82, 127
1, 353793, Control_c, 0, 67, 56
1, 353796, Note_off_c, 0, 93, 69
1, 353806, Note_off_c, 0, 80, 60
1, 353809, Control_c, 0, 67, 57
1, 353823, Control_c, 0, 67, 58
1, 353836, Note_on_c, 0, 88, 85
1, 353838, Control_c, 0, 67, 59
1, 353850, Note_on_c, 0, 87, 66
1, 353853, Control_c, 0, 67, 53
1, 353865, Note_off_c, 0, 92, 65
1, 353868, Control_c, 0, 67, 42
1, 353883, Control_c, 0, 67, 23
1, 353892, Note_off_c, 0, 87, 0
1, 353892, Note_on_c, 0, 87, 26
1, 353897, Control_c, 0, 67, 0
1, 353923, Note_off_c, 0, 88, 65
1, 353926, Note_on_c, 0, 84, 49
1, 353927, Control_c, 0, 67, 19
1, 353928, Note_on_c, 0, 64, 60
1, 353931, Note_on_c, 0, 68, 83
1, 353935, Note_off_c, 0, 87, 53
1, 353942, Control_c, 0, 67, 0
1, 353959, Note_off_c, 0, 84, 65
1, 353962, Note_off_c, 0, 64, 64
1, 353962, Note_off_c, 0, 68, 62
1, 353973, Note_on_c, 0, 80, 86
1, 353988, Note_off_c, 0, 60, 64
1, 354011, Note_off_c, 0, 80, 64
1, 354064, Note_on_c, 0, 76, 82
1, 354074, Note_on_c, 0, 74, 82
1, 354102, Note_off_c, 0, 74, 48
1, 354110, Note_on_c, 0, 71, 63
1, 354124, Note_off_c, 0, 76, 63
1, 354143, Note_off_c, 0, 71, 65
1, 354147, Note_on_c, 0, 72, 34
1, 354147, Note_off_c, 0, 72, 127
1, 354148, Control_c, 0, 64, 64
1, 354163, Control_c, 0, 64, 0
1, 354186, Note_on_c, 0, 47, 94
1, 354193, Control_c, 0, 64, 46
1, 354208, Control_c, 0, 64, 94
1, 354208, Control_c, 0, 67, 78
1, 354209, Note_on_c, 0, 83, 102
1, 354211, Note_on_c, 0, 69, 95
1, 354214, Note_on_c, 0, 80, 99
1, 354223, Note_on_c, 0, 49, 48
1, 354230, Control_c, 0, 64, 127
1, 354230, Control_c, 0, 67, 81
1, 354232, Note_on_c, 0, 71, 76
1, 354232, Note_on_c, 0, 76, 67
1, 354245, Control_c, 0, 67, 64
1, 354247, Note_on_c, 0, 75, 57
1, 354250, Note_off_c, 0, 71, 40
1, 354253, Note_off_c, 0, 49, 57
1, 354259, Note_off_c, 0, 69, 60
1, 354260, Note_off_c, 0, 76, 52
1, 354260, Control_c, 0, 67, 39
1, 354272, Note_off_c, 0, 83, 61
1, 354275, Control_c, 0, 67, 0
1, 354295, Note_off_c, 0, 75, 42
1, 354313, Note_off_c, 0, 80, 62
1, 354341, Note_off_c, 0, 47, 0
1, 354354, Note_on_c, 0, 56, 8
1, 354374, Note_off_c, 0, 56, 0
1, 354374, Note_on_c, 0, 56, 34
1, 354378, Note_on_c, 0, 47, 23
1, 354378, Note_on_c, 0, 59, 85
1, 354386, Note_on_c, 0, 52, 65
1, 354399, Note_off_c, 0, 59, 71
1, 354401, Note_on_c, 0, 51, 38
1, 354420, Note_off_c, 0, 56, 63
1, 354421, Note_off_c, 0, 52, 64
1, 354433, Note_off_c, 0, 51, 54
1, 354451, Note_off_c, 0, 47, 64
1, 354453, Note_on_c, 0, 71, 65
1, 354468, Note_on_c, 0, 83, 43
1, 354475, Note_off_c, 0, 71, 64
1, 354482, Control_c, 0, 64, 83
1, 354491, Note_off_c, 0, 83, 0
1, 354496, Note_on_c, 0, 71, 86
1, 354497, Control_c, 0, 64, 42
1, 354501, Note_on_c, 0, 83, 78
1, 354512, Control_c, 0, 64, 0
1, 354531, Note_off_c, 0, 71, 67
1, 354542, Note_off_c, 0, 83, 64
1, 354673, Note_on_c, 0, 36, 87
1, 354676, Control_c, 0, 64, 63
1, 354676, Control_c, 0, 67, 22
1, 354677, Note_on_c, 0, 44, 95
1, 354679, Note_on_c, 0, 48, 90
1, 354680, Note_on_c, 0, 50, 75
1, 354688, Note_on_c, 0, 88, 103
1, 354689, Note_on_c, 0, 95, 101
1, 354691, Control_c, 0, 64, 127
1, 354691, Control_c, 0, 67, 76
1, 354691, Note_on_c, 0, 92, 99
1, 354700, Note_off_c, 0, 36, 68
1, 354701, Note_off_c, 0, 48, 72
1, 354705, Note_off_c, 0, 50, 67
1, 354706, Control_c, 0, 67, 80
1, 354712, Note_off_c, 0, 44, 65
1, 354719, Note_off_c, 0, 92, 61
1, 354720, Control_c, 0, 67, 69
1, 354735, Note_off_c, 0, 88, 65
1, 354735, Control_c, 0, 67, 67
1, 354740, Note_off_c, 0, 95, 66
1, 354750, Control_c, 0, 67, 69
1, 354765, Control_c, 0, 67, 73
1, 354774, Note_on_c, 0, 84, 86
1, 354779, Control_c, 0, 67, 71
1, 354794, Control_c, 0, 67, 65
1, 354809, Control_c, 0, 67, 60
1, 354821, Note_off_c, 0, 84, 62
1, 354824, Control_c, 0, 67, 54
1, 354839, Control_c, 0, 67, 55
1, 354853, Control_c, 0, 67, 58
1, 354862, Note_on_c, 0, 80, 83
1, 354883, Control_c, 0, 67, 55
1, 354898, Control_c, 0, 67, 48
1, 354904, Poly_aftertouch_c, 0, 83, 0
1, 354913, Control_c, 0, 67, 33
1, 354927, Control_c, 0, 67, 0
1, 354928, Note_on_c, 0, 76, 79
1, 354947, Note_off_c, 0, 80, 64
1, 354981, Note_off_c, 0, 76, 65
1, 355000, Note_on_c, 0, 60, 68
1, 355012, Note_on_c, 0, 64, 79
1, 355076, Note_on_c, 0, 68, 97
1, 355096, Note_off_c, 0, 60, 63
1, 355104, Note_off_c, 0, 64, 66
1, 355138, Note_on_c, 0, 72, 95
1, 355139, Note_on_c, 0, 92, 86
1, 355142, Note_on_c, 0, 88, 86
1, 355151, Note_on_c, 0, 84, 84
1, 355152, Note_off_c, 0, 68, 69
1, 355162, Note_on_c, 0, 87, 49
1, 355171, Note_off_c, 0, 72, 67
1, 355186, Note_off_c, 0, 92, 64
1, 355189, Note_off_c, 0, 87, 35
1, 355190, Note_on_c, 0, 83, 30
1, 355190, Note_off_c, 0, 83, 127
1, 355193, Note_off_c, 0, 88, 65
1, 355214, Note_off_c, 0, 84, 63
1, 355228, Note_on_c, 0, 80, 81
1, 355256, Note_off_c, 0, 80, 63
1, 355303, Note_on_c, 0, 76, 83
1, 355372, Note_on_c, 0, 72, 72
1, 355396, Note_off_c, 0, 76, 62
1, 355403, Note_on_c, 0, 71, 43
1, 355403, Note_off_c, 0, 71, 127
1, 355427, Note_off_c, 0, 72, 63
1, 355448, Note_on_c, 0, 60, 83
1, 355452, Note_on_c, 0, 56, 72
1, 355513, Note_on_c, 0, 64, 78
1, 355534, Note_on_c, 0, 85, 27
1, 355548, Note_off_c, 0, 60, 65
1, 355550, Note_off_c, 0, 56, 61
1, 355575, Note_off_c, 0, 85, 53
1, 355589, Note_on_c, 0, 68, 99
1, 355591, Note_on_c, 0, 88, 92
1, 355594, Note_on_c, 0, 84, 94
1, 355595, Note_on_c, 0, 80, 94
1, 355608, Note_off_c, 0, 64, 64
1, 355627, Note_off_c, 0, 68, 68
1, 355639, Note_off_c, 0, 88, 64
1, 355642, Note_off_c, 0, 84, 66
1, 355654, Note_off_c, 0, 80, 63
1, 355668, Note_on_c, 0, 76, 82
1, 355713, Note_off_c, 0, 76, 62
1, 355748, Note_on_c, 0, 72, 86
1, 355816, Note_on_c, 0, 68, 89
1, 355835, Note_off_c, 0, 72, 62
1, 355858, Note_off_c, 0, 68, 68
1, 355898, Note_on_c, 0, 56, 81
1, 355899, Note_on_c, 0, 52, 71
1, 355955, Note_on_c, 0, 60, 83
1, 356015, Note_off_c, 0, 56, 60
1, 356028, Note_off_c, 0, 52, 54
1, 356031, Note_on_c, 0, 65, 82
1, 356036, Note_on_c, 0, 64, 79
1, 356038, Note_off_c, 0, 60, 66
1, 356047, Note_on_c, 0, 80, 84
1, 356047, Note_on_c, 0, 84, 93
1, 356050, Note_on_c, 0, 76, 94
1, 356061, Note_off_c, 0, 64, 67
1, 356068, Note_off_c, 0, 65, 64
1, 356092, Note_off_c, 0, 80, 63
1, 356095, Note_off_c, 0, 84, 62
1, 356101, Note_off_c, 0, 76, 67
1, 356131, Note_on_c, 0, 72, 75
1, 356175, Note_off_c, 0, 72, 63
1, 356198, Note_on_c, 0, 68, 86
1, 356266, Note_on_c, 0, 64, 82
1, 356284, Note_off_c, 0, 68, 63
1, 356306, Note_off_c, 0, 64, 65
1, 356340, Note_on_c, 0, 52, 71
1, 356342, Note_on_c, 0, 48, 58
1, 356404, Note_on_c, 0, 56, 86
1, 356446, Note_off_c, 0, 52, 62
1, 356454, Note_off_c, 0, 48, 62
1, 356485, Note_on_c, 0, 60, 80
1, 356491, Note_off_c, 0, 56, 60
1, 356498, Note_on_c, 0, 80, 80
1, 356509, Note_off_c, 0, 60, 68
1, 356518, Note_on_c, 0, 76, 81
1, 356530, Note_on_c, 0, 75, 57
1, 356562, Note_on_c, 0, 72, 76
1, 356568, Note_off_c, 0, 80, 62
1, 356617, Note_off_c, 0, 76, 63
1, 356628, Note_off_c, 0, 75, 27
1, 356637, Note_off_c, 0, 72, 63
1, 356642, Note_on_c, 0, 48, 70
1, 356650, Note_on_c, 0, 44, 54
1, 356653, Note_on_c, 0, 68, 77
1, 356682, Note_off_c, 0, 68, 67
1, 356717, Note_on_c, 0, 52, 75
1, 356734, Note_off_c, 0, 48, 61
1, 356760, Note_off_c, 0, 44, 58
1, 356769, Note_on_c, 0, 56, 78
1, 356781, Note_off_c, 0, 52, 60
1, 356790, Note_on_c, 0, 72, 85
1, 356791, Note_on_c, 0, 76, 85
1, 356794, Note_off_c, 0, 56, 67
1, 356850, Note_on_c, 0, 68, 87
1, 356870, Note_off_c, 0, 76, 62
1, 356890, Note_off_c, 0, 72, 60
1, 356920, Note_off_c, 0, 68, 67
1, 356921, Note_on_c, 0, 40, 59
1, 356927, Note_on_c, 0, 44, 70
1, 356936, Note_on_c, 0, 64, 80
1, 356986, Note_off_c, 0, 64, 62
1, 356989, Note_on_c, 0, 48, 78
1, 357021, Note_off_c, 0, 44, 62
1, 357032, Note_off_c, 0, 40, 52
1, 357047, Note_on_c, 0, 52, 79
1, 357058, Note_off_c, 0, 48, 64
1, 357064, Note_on_c, 0, 72, 88
1, 357076, Note_on_c, 0, 68, 89
1, 357091, Note_off_c, 0, 52, 62
1, 357144, Note_on_c, 0, 64, 77
1, 357152, Note_on_c, 0, 66, 42
1, 357170, Note_off_c, 0, 72, 59
1, 357177, Note_off_c, 0, 66, 57
1, 357196, Note_on_c, 0, 36, 79
1, 357199, Note_off_c, 0, 68, 62
1, 357226, Note_off_c, 0, 64, 62
1, 357237, Note_on_c, 0, 60, 76
1, 357240, Note_on_c, 0, 40, 72
1, 357296, Note_off_c, 0, 60, 63
1, 357317, Note_on_c, 0, 44, 93
1, 357329, Note_off_c, 0, 36, 60
1, 357347, Note_off_c, 0, 40, 62
1, 357365, Note_on_c, 0, 48, 98
1, 357371, Note_on_c, 0, 64, 85
1, 357374, Note_on_c, 0, 68, 87
1, 357380, Note_off_c, 0, 44, 66
1, 357404, Note_off_c, 0, 48, 64
1, 357456, Note_on_c, 0, 60, 79
1, 357458, Note_on_c, 0, 63, 1
1, 357469, Note_off_c, 0, 68, 62
1, 357489, Note_off_c, 0, 64, 63
1, 357522, Note_off_c, 0, 60, 64
1, 357526, Note_off_c, 0, 63, 40
1, 357538, Note_on_c, 0, 56, 59
1, 357560, Note_off_c, 0, 56, 59
1, 357605, Note_on_c, 0, 64, 79
1, 357610, Note_on_c, 0, 60, 79
1, 357680, Note_on_c, 0, 56, 74
1, 357688, Note_off_c, 0, 64, 57
1, 357703, Note_off_c, 0, 60, 61
1, 357745, Note_off_c, 0, 56, 61
1, 357758, Note_on_c, 0, 52, 74
1, 357807, Note_off_c, 0, 52, 60
1, 357830, Note_on_c, 0, 60, 89
1, 357844, Note_on_c, 0, 56, 90
1, 357916, Note_off_c, 0, 60, 60
1, 357919, Note_on_c, 0, 52, 77
1, 357921, Note_on_c, 0, 54, 52
1, 357950, Note_off_c, 0, 54, 57
1, 357966, Note_off_c, 0, 56, 59
1, 357990, Note_on_c, 0, 48, 71
1, 357993, Note_off_c, 0, 52, 64
1, 358045, Note_off_c, 0, 48, 60
1, 358071, Note_on_c, 0, 46, 93
1, 358151, Note_on_c, 0, 44, 93
1, 358173, Note_off_c, 0, 46, 62
1, 358220, Note_off_c, 0, 44, 64
1, 358229, Note_on_c, 0, 40, 90
1, 358285, Note_off_c, 0, 40, 64
1, 358316, Control_c, 0, 67, 86
1, 358319, Note_on_c, 0, 36, 104
1, 358322, Note_on_c, 0, 24, 102
1, 358331, Control_c, 0, 64, 77
1, 358331, Control_c, 0, 67, 127
1, 358346, Control_c, 0, 64, 0
1, 358357, Note_off_c, 0, 36, 65
1, 358358, Note_off_c, 0, 24, 63
1, 358405, Control_c, 0, 64, 34
1, 358420, Control_c, 0, 64, 59
1, 358434, Control_c, 0, 64, 65
1, 358449, Control_c, 0, 64, 67
1, 358464, Control_c, 0, 64, 66
1, 358479, Control_c, 0, 64, 64
1, 358494, Control_c, 0, 64, 64
1, 358509, Control_c, 0, 64, 64
1, 358513, Note_on_c, 0, 36, 81
1, 358515, Note_on_c, 0, 24, 72
1, 358523, Control_c, 0, 64, 65
1, 358538, Control_c, 0, 64, 66
1, 358541, Note_off_c, 0, 36, 66
1, 358551, Note_off_c, 0, 24, 62
1, 358589, Note_on_c, 0, 38, 77
1, 358595, Note_on_c, 0, 50, 78
1, 358613, Control_c, 0, 64, 66
1, 358616, Note_off_c, 0, 38, 67
1, 358620, Note_off_c, 0, 50, 68
1, 358628, Control_c, 0, 64, 68
1, 358643, Control_c, 0, 64, 68
1, 358681, Note_on_c, 0, 40, 80
1, 358688, Note_on_c, 0, 28, 72
1, 358702, Control_c, 0, 64, 69
1, 358707, Note_off_c, 0, 40, 67
1, 358721, Note_off_c, 0, 28, 64
1, 358724, Control_c, 0, 64, 71
1, 358739, Control_c, 0, 64, 72
1, 358754, Control_c, 0, 64, 75
1, 358755, Note_on_c, 0, 42, 81
1, 358769, Note_on_c, 0, 54, 68
1, 358769, Control_c, 0, 64, 76
1, 358781, Note_off_c, 0, 42, 69
1, 358784, Control_c, 0, 64, 77
1, 358799, Note_off_c, 0, 54, 65
1, 358799, Control_c, 0, 64, 78
1, 358814, Control_c, 0, 64, 80
1, 358828, Control_c, 0, 64, 82
1, 358830, Note_on_c, 0, 44, 97
1, 358836, Note_on_c, 0, 32, 79
1, 358843, Control_c, 0, 64, 86
1, 358855, Note_off_c, 0, 44, 68
1, 358858, Control_c, 0, 64, 88
1, 358864, Note_off_c, 0, 32, 65
1, 358873, Control_c, 0, 64, 89
1, 358888, Control_c, 0, 64, 90
1, 358908, Note_on_c, 0, 46, 83
1, 358908, Note_on_c, 0, 58, 80
1, 358930, Note_off_c, 0, 58, 72
1, 358932, Note_off_c, 0, 46, 67
1, 358961, Control_c, 0, 64, 90
1, 358978, Note_on_c, 0, 36, 88
1, 358981, Note_on_c, 0, 48, 91
1, 359006, Note_off_c, 0, 48, 67
1, 359011, Note_off_c, 0, 36, 64
1, 359045, Note_on_c, 0, 50, 88
1, 359046, Note_on_c, 0, 62, 85
1, 359050, Control_c, 0, 64, 92
1, 359064, Control_c, 0, 64, 92
1, 359065, Note_off_c, 0, 50, 70
1, 359070, Note_off_c, 0, 62, 67
1, 359094, Control_c, 0, 64, 93
1, 359109, Control_c, 0, 64, 94
1, 359117, Note_on_c, 0, 40, 88
1, 359118, Note_on_c, 0, 52, 96
1, 359124, Control_c, 0, 64, 98
1, 359138, Control_c, 0, 64, 110
1, 359150, Note_off_c, 0, 40, 65
1, 359150, Note_off_c, 0, 52, 63
1, 359153, Control_c, 0, 64, 127
1, 359191, Note_on_c, 0, 54, 96
1, 359198, Note_on_c, 0, 66, 83
1, 359218, Note_off_c, 0, 54, 60
1, 359220, Note_off_c, 0, 66, 65
1, 359271, Note_on_c, 0, 56, 100
1, 359272, Note_on_c, 0, 44, 93
1, 359302, Note_off_c, 0, 44, 66
1, 359311, Note_off_c, 0, 56, 57
1, 359344, Note_on_c, 0, 58, 92
1, 359346, Note_on_c, 0, 70, 94
1, 359369, Note_off_c, 0, 58, 67
1, 359380, Note_off_c, 0, 70, 58
1, 359426, Note_on_c, 0, 60, 101
1, 359427, Note_on_c, 0, 48, 99
1, 359434, Control_c, 0, 67, 113
1, 359449, Control_c, 0, 67, 97
1, 359467, Note_off_c, 0, 60, 66
1, 359472, Control_c, 0, 67, 83
1, 359475, Note_off_c, 0, 48, 60
1, 359487, Control_c, 0, 67, 72
1, 359501, Control_c, 0, 67, 64
1, 359502, Note_on_c, 0, 74, 95
1, 359503, Note_on_c, 0, 62, 96
1, 359516, Control_c, 0, 67, 54
1, 359529, Note_off_c, 0, 62, 64
1, 359531, Control_c, 0, 67, 47
1, 359539, Note_off_c, 0, 74, 64
1, 359546, Control_c, 0, 67, 43
1, 359561, Control_c, 0, 67, 42
1, 359575, Control_c, 0, 67, 41
1, 359587, Note_on_c, 0, 64, 96
1, 359588, Note_on_c, 0, 52, 95
1, 359590, Control_c, 0, 67, 41
1, 359605, Control_c, 0, 67, 40
1, 359620, Note_off_c, 0, 64, 68
1, 359621, Note_off_c, 0, 52, 67
1, 359658, Note_on_c, 0, 66, 96
1, 359659, Note_on_c, 0, 78, 97
1, 359664, Control_c, 0, 67, 40
1, 359692, Poly_aftertouch_c, 0, 62, 0
1, 359693, Note_off_c, 0, 66, 61
1, 359699, Note_off_c, 0, 78, 58
1, 359723, Control_c, 0, 67, 41
1, 359738, Control_c, 0, 67, 43
1, 359750, Note_on_c, 0, 68, 101
1, 359750, Note_on_c, 0, 56, 99
1, 359753, Control_c, 0, 67, 43
1, 359782, Note_off_c, 0, 68, 68
1, 359790, Note_off_c, 0, 56, 55
1, 359824, Note_on_c, 0, 70, 94
1, 359829, Note_on_c, 0, 82, 94
1, 359866, Note_off_c, 0, 70, 64
1, 359870, Note_off_c, 0, 82, 59
1, 359872, Control_c, 0, 67, 43
1, 359886, Control_c, 0, 67, 42
1, 359916, Control_c, 0, 67, 42
1, 359922, Note_on_c, 0, 72, 104
1, 359923, Note_on_c, 0, 60, 101
1, 359946, Control_c, 0, 67, 40
1, 359955, Note_off_c, 0, 72, 69
1, 359956, Note_off_c, 0, 60, 70
1, 359960, Control_c, 0, 67, 38
1, 359975, Control_c, 0, 67, 33
1, 359990, Control_c, 0, 67, 27
1, 360005, Control_c, 0, 67, 24
1, 360007, Note_on_c, 0, 74, 109
1, 360009, Note_on_c, 0, 86, 96
1, 360020, Control_c, 0, 67, 21
1, 360035, Control_c, 0, 67, 0
1, 360036, Note_off_c, 0, 74, 67
1, 360043, Note_off_c, 0, 86, 68
1, 360057, Note_on_c, 0, 85, 22
1, 360057, Note_off_c, 0, 85, 127
1, 360111, Note_on_c, 0, 76, 110
1, 360114, Note_on_c, 0, 64, 97
1, 360137, Note_off_c, 0, 76, 70
1, 360146, Note_off_c, 0, 64, 63
1, 360225, Note_on_c, 0, 90, 107
1, 360227, Note_on_c, 0, 78, 99
1, 360254, Note_off_c, 0, 90, 67
1, 360260, Note_off_c, 0, 78, 63
1, 360370, Control_c, 0, 67, 22
1, 360385, Note_on_c, 0, 52, 97
1, 360385, Control_c, 0, 67, 86
1, 360385, Note_on_c, 0, 80, 93
1, 360389, Note_on_c, 0, 40, 96
1, 360390, Note_on_c, 0, 92, 95
1, 360393, Note_on_c, 0, 94, 85
1, 360399, Control_c, 0, 64, 100
1, 360399, Control_c, 0, 67, 104
1, 360402, Note_off_c, 0, 80, 70
1, 360404, Note_on_c, 0, 82, 69
1, 360405, Note_off_c, 0, 52, 69
1, 360406, Note_off_c, 0, 92, 74
1, 360409, Note_off_c, 0, 94, 74
1, 360411, Note_off_c, 0, 40, 71
1, 360414, Control_c, 0, 64, 58
1, 360414, Control_c, 0, 67, 80
1, 360421, Note_off_c, 0, 82, 64
1, 360429, Control_c, 0, 64, 0
1, 360429, Control_c, 0, 67, 29
1, 360444, Control_c, 0, 67, 0
1, 360464, Note_on_c, 0, 94, 94
1, 360469, Note_on_c, 0, 82, 80
1, 360483, Note_off_c, 0, 82, 50
1, 360488, Note_off_c, 0, 94, 63
1, 360499, Note_on_c, 0, 92, 46
1, 360522, Note_off_c, 0, 92, 0
1, 360522, Note_on_c, 0, 92, 60
1, 360526, Note_on_c, 0, 47, 96
1, 360526, Note_on_c, 0, 81, 99
1, 360528, Note_on_c, 0, 95, 104
1, 360529, Note_on_c, 0, 83, 61
1, 360532, Note_on_c, 0, 35, 93
1, 360552, Note_off_c, 0, 47, 69
1, 360559, Note_off_c, 0, 35, 69
1, 360662, Note_off_c, 0, 81, 64
1, 360724, Note_on_c, 0, 52, 96
1, 360733, Note_on_c, 0, 40, 81
1, 360744, Note_on_c, 0, 38, 67
1, 360744, Note_off_c, 0, 38, 127
1, 360749, Note_off_c, 0, 52, 66
1, 360756, Note_on_c, 0, 50, 53
1, 360756, Note_off_c, 0, 50, 127
1, 360762, Note_off_c, 0, 40, 67
1, 360864, Note_off_c, 0, 83, 63
1, 360888, Note_off_c, 0, 95, 62
1, 360888, Control_c, 0, 67, 69
1, 360890, Note_on_c, 0, 47, 97
1, 360896, Note_on_c, 0, 35, 97
1, 360903, Control_c, 0, 64, 106
1, 360903, Control_c, 0, 67, 105
1, 360912, Note_off_c, 0, 92, 63
1, 360915, Note_off_c, 0, 47, 68
1, 360917, Control_c, 0, 64, 127
1, 360917, Control_c, 0, 67, 98
1, 360920, Note_off_c, 0, 35, 63
1, 360932, Control_c, 0, 67, 93
1, 360947, Control_c, 0, 67, 88
1, 360950, Note_on_c, 0, 36, 5
1, 360969, Control_c, 0, 67, 87
1, 360974, Note_on_c, 0, 83, 84
1, 360985, Control_c, 0, 67, 89
1, 361012, Note_off_c, 0, 36, 42
1, 361012, Poly_aftertouch_c, 0, 37, 0
1, 361014, Control_c, 0, 67, 85
1, 361029, Control_c, 0, 67, 80
1, 361035, Note_off_c, 0, 83, 66
1, 361044, Control_c, 0, 67, 73
1, 361053, Note_on_c, 0, 66, 77
1, 361055, Note_on_c, 0, 84, 80
1, 361057, Note_on_c, 0, 59, 68
1, 361058, Control_c, 0, 67, 71
1, 361070, Note_on_c, 0, 69, 58
1, 361090, Note_off_c, 0, 59, 62
1, 361090, Note_off_c, 0, 69, 62
1, 361093, Note_off_c, 0, 66, 59
1, 361098, Note_off_c, 0, 84, 65
1, 361103, Control_c, 0, 67, 67
1, 361118, Control_c, 0, 67, 56
1, 361130, Note_on_c, 0, 86, 76
1, 361133, Control_c, 0, 67, 34
1, 361148, Control_c, 0, 67, 0
1, 361152, Note_off_c, 0, 86, 69
1, 361164, Note_on_c, 0, 87, 23
1, 361199, Note_on_c, 0, 69, 72
1, 361202, Note_on_c, 0, 66, 85
1, 361207, Note_on_c, 0, 86, 83
1, 361207, Note_off_c, 0, 87, 28
1, 361209, Note_on_c, 0, 59, 71
1, 361222, Note_off_c, 0, 69, 69
1, 361227, Note_off_c, 0, 66, 65
1, 361249, Note_off_c, 0, 59, 63
1, 361258, Note_off_c, 0, 86, 64
1, 361282, Note_on_c, 0, 89, 70
1, 361299, Note_off_c, 0, 89, 67
1, 361306, Poly_aftertouch_c, 0, 60, 0
1, 361340, Control_c, 0, 67, 27
1, 361350, Note_on_c, 0, 80, 106
1, 361351, Note_on_c, 0, 40, 94
1, 361351, Note_on_c, 0, 92, 102
1, 361353, Note_on_c, 0, 52, 100
1, 361355, Control_c, 0, 67, 36
1, 361368, Note_on_c, 0, 90, 72
1, 361370, Control_c, 0, 67, 20
1, 361372, Note_off_c, 0, 52, 71
1, 361379, Note_off_c, 0, 80, 66
1, 361380, Note_off_c, 0, 40, 66
1, 361381, Note_off_c, 0, 92, 68
1, 361385, Note_off_c, 0, 90, 67
1, 361385, Control_c, 0, 64, 114
1, 361385, Control_c, 0, 67, 0
1, 361400, Control_c, 0, 64, 59
1, 361414, Control_c, 0, 64, 0
1, 361425, Note_on_c, 0, 94, 107
1, 361428, Note_on_c, 0, 82, 97
1, 361444, Note_off_c, 0, 82, 73
1, 361450, Note_on_c, 0, 92, 56
1, 361457, Note_off_c, 0, 94, 68
1, 361458, Note_on_c, 0, 81, 52
1, 361473, Note_off_c, 0, 92, 40
1, 361485, Note_off_c, 0, 81, 37
1, 361494, Note_on_c, 0, 83, 105
1, 361496, Note_on_c, 0, 45, 82
1, 361497, Note_on_c, 0, 92, 100
1, 361498, Note_on_c, 0, 35, 95
1, 361499, Note_on_c, 0, 95, 99
1, 361502, Note_on_c, 0, 94, 83
1, 361519, Note_on_c, 0, 47, 57
1, 361519, Note_off_c, 0, 47, 127
1, 361521, Note_off_c, 0, 45, 69
1, 361523, Note_off_c, 0, 35, 69
1, 361528, Note_off_c, 0, 94, 59
1, 361679, Note_on_c, 0, 52, 95
1, 361685, Note_on_c, 0, 40, 91
1, 361716, Note_off_c, 0, 52, 65
1, 361725, Note_off_c, 0, 40, 65
1, 361753, Note_on_c, 0, 42, 12
1, 361753, Note_off_c, 0, 42, 127
1, 361821, Note_off_c, 0, 83, 57
1, 361849, Note_off_c, 0, 95, 60
1, 361851, Note_on_c, 0, 47, 104
1, 361852, Control_c, 0, 67, 67
1, 361857, Note_on_c, 0, 35, 97
1, 361867, Control_c, 0, 64, 75
1, 361867, Control_c, 0, 67, 103
1, 361878, Note_off_c, 0, 35, 72
1, 361881, Note_off_c, 0, 47, 66
1, 361882, Control_c, 0, 64, 127
1, 361882, Control_c, 0, 67, 95
1, 361883, Note_off_c, 0, 92, 59
1, 361896, Control_c, 0, 67, 90
1, 361911, Control_c, 0, 67, 84
1, 361926, Note_on_c, 0, 83, 81
1, 361926, Control_c, 0, 67, 81
1, 361941, Control_c, 0, 67, 82
1, 361955, Control_c, 0, 67, 81
1, 361970, Control_c, 0, 67, 74
1, 361985, Control_c, 0, 67, 60
1, 361996, Note_off_c, 0, 83, 64
1, 362000, Control_c, 0, 67, 45
1, 362006, Note_on_c, 0, 66, 81
1, 362007, Note_on_c, 0, 85, 84
1, 362015, Control_c, 0, 67, 34
1, 362021, Note_on_c, 0, 59, 65
1, 362034, Note_on_c, 0, 69, 48
1, 362041, Note_off_c, 0, 66, 58
1, 362045, Control_c, 0, 67, 33
1, 362048, Note_off_c, 0, 59, 67
1, 362051, Note_off_c, 0, 85, 67
1, 362057, Note_off_c, 0, 69, 59
1, 362060, Control_c, 0, 67, 24
1, 362075, Control_c, 0, 67, 0
1, 362081, Note_on_c, 0, 87, 91
1, 362127, Note_off_c, 0, 87, 64
1, 362167, Note_on_c, 0, 88, 80
1, 362169, Note_on_c, 0, 69, 76
1, 362180, Note_on_c, 0, 59, 76
1, 362181, Note_on_c, 0, 66, 76
1, 362193, Note_off_c, 0, 69, 67
1, 362200, Note_off_c, 0, 66, 71
1, 362220, Note_off_c, 0, 59, 65
1, 362233, Note_off_c, 0, 88, 64
1, 362263, Note_on_c, 0, 89, 76
1, 362283, Note_off_c, 0, 89, 71
1, 362326, Control_c, 0, 67, 22
1, 362341, Control_c, 0, 67, 25
1, 362345, Note_on_c, 0, 92, 97
1, 362350, Note_on_c, 0, 40, 101
1, 362350, Note_on_c, 0, 80, 97
1, 362350, Note_on_c, 0, 87, 80
1, 362352, Note_on_c, 0, 28, 91
1, 362355, Control_c, 0, 67, 0
1, 362370, Note_off_c, 0, 87, 64
1, 362376, Note_off_c, 0, 40, 67
1, 362379, Note_off_c, 0, 28, 66
1, 362380, Note_on_c, 0, 88, 51
1, 362388, Note_off_c, 0, 80, 59
1, 362390, Note_off_c, 0, 92, 66
1, 362404, Note_off_c, 0, 88, 61
1, 362436, Note_on_c, 0, 91, 83
1, 362440, Note_on_c, 0, 95, 79
1, 362441, Note_on_c, 0, 82, 20
1, 362450, Note_on_c, 0, 92, 46
1, 362462, Note_off_c, 0, 91, 72
1, 362467, Note_off_c, 0, 95, 70
1, 362485, Note_off_c, 0, 92, 57
1, 362493, Note_off_c, 0, 82, 52
1, 362504, Note_on_c, 0, 95, 97
1, 362508, Note_on_c, 0, 83, 75
1, 362516, Note_on_c, 0, 47, 92
1, 362516, Note_on_c, 0, 92, 94
1, 362523, Note_on_c, 0, 94, 81
1, 362531, Note_on_c, 0, 84, 61
1, 362531, Note_off_c, 0, 84, 127
1, 362543, Note_off_c, 0, 94, 71
1, 362548, Note_on_c, 0, 93, 56
1, 362549, Note_off_c, 0, 47, 66
1, 362567, Note_off_c, 0, 93, 63
1, 362576, Note_off_c, 0, 83, 53
1, 362587, Note_off_c, 0, 95, 0
1, 362600, Note_on_c, 0, 95, 42
1, 362651, Note_off_c, 0, 95, 59
1, 362682, Poly_aftertouch_c, 0, 94, 127
1, 362686, Note_off_c, 0, 92, 64
1, 362686, Note_on_c, 0, 53, 81
1, 362693, Note_on_c, 0, 52, 72
1, 362698, Note_on_c, 0, 40, 60
1, 362706, Poly_aftertouch_c, 0, 94, 0
1, 362709, Note_off_c, 0, 53, 70
1, 362713, Note_on_c, 0, 41, 38
1, 362719, Note_off_c, 0, 52, 68
1, 362724, Note_off_c, 0, 40, 57
1, 362745, Note_on_c, 0, 90, 61
1, 362746, Note_off_c, 0, 41, 49
1, 362755, Note_on_c, 0, 82, 72
1, 362756, Note_on_c, 0, 94, 73
1, 362767, Note_off_c, 0, 90, 41
1, 362769, Note_on_c, 0, 91, 55
1, 362771, Note_off_c, 0, 82, 68
1, 362778, Note_off_c, 0, 94, 70
1, 362790, Note_off_c, 0, 91, 60
1, 362817, Note_on_c, 0, 59, 91
1, 362817, Note_on_c, 0, 83, 100
1, 362820, Note_on_c, 0, 95, 98
1, 362821, Note_on_c, 0, 92, 99
1, 362837, Note_on_c, 0, 94, 72
1, 362843, Note_on_c, 0, 93, 71
1, 362848, Note_off_c, 0, 59, 68
1, 362853, Note_off_c, 0, 94, 68
1, 362880, Note_off_c, 0, 93, 0
1, 362891, Note_on_c, 0, 93, 52
1, 362933, Note_off_c, 0, 83, 60
1, 362956, Note_off_c, 0, 95, 63
1, 362977, Note_off_c, 0, 93, 61
1, 362978, Note_on_c, 0, 64, 97
1, 362978, Note_on_c, 0, 52, 93
1, 362981, Note_off_c, 0, 92, 64
1, 362999, Note_off_c, 0, 64, 67
1, 363002, Note_off_c, 0, 52, 67
1, 363007, Poly_aftertouch_c, 0, 94, 0
1, 363043, Note_on_c, 0, 91, 82
1, 363045, Note_on_c, 0, 94, 83
1, 363052, Note_on_c, 0, 82, 69
1, 363063, Note_off_c, 0, 91, 70
1, 363068, Note_off_c, 0, 82, 66
1, 363076, Note_off_c, 0, 94, 62
1, 363111, Note_on_c, 0, 71, 98
1, 363112, Note_on_c, 0, 95, 106
1, 363112, Note_on_c, 0, 83, 105
1, 363115, Note_on_c, 0, 92, 101
1, 363121, Note_on_c, 0, 94, 74
1, 363132, Note_on_c, 0, 93, 80
1, 363143, Note_off_c, 0, 71, 69
1, 363154, Note_off_c, 0, 94, 57
1, 363242, Note_off_c, 0, 83, 58
1, 363267, Note_off_c, 0, 95, 62
1, 363274, Note_off_c, 0, 93, 61
1, 363275, Control_c, 0, 67, 23
1, 363276, Note_off_c, 0, 92, 66
1, 363280, Note_on_c, 0, 76, 103
1, 363283, Note_on_c, 0, 64, 100
1, 363290, Control_c, 0, 67, 0
1, 363306, Note_off_c, 0, 76, 65
1, 363313, Note_off_c, 0, 64, 68
1, 363351, Note_on_c, 0, 94, 94
1, 363355, Note_on_c, 0, 91, 83
1, 363360, Note_on_c, 0, 82, 78
1, 363380, Note_off_c, 0, 82, 70
1, 363386, Note_off_c, 0, 91, 63
1, 363397, Note_off_c, 0, 94, 65
1, 363428, Note_on_c, 0, 59, 85
1, 363434, Note_on_c, 0, 92, 105
1, 363435, Note_on_c, 0, 83, 113
1, 363443, Note_on_c, 0, 95, 90
1, 363443, Note_on_c, 0, 96, 88
1, 363458, Note_on_c, 0, 94, 39
1, 363460, Note_off_c, 0, 59, 62
1, 363491, Note_off_c, 0, 94, 55
1, 363536, Note_off_c, 0, 96, 62
1, 363548, Note_off_c, 0, 83, 58
1, 363563, Note_off_c, 0, 95, 64
1, 363597, Note_on_c, 0, 64, 100
1, 363600, Note_on_c, 0, 52, 99
1, 363604, Note_off_c, 0, 92, 65
1, 363618, Note_off_c, 0, 64, 65
1, 363631, Note_off_c, 0, 52, 67
1, 363669, Note_on_c, 0, 94, 89
1, 363673, Note_on_c, 0, 91, 82
1, 363674, Note_on_c, 0, 82, 81
1, 363694, Note_off_c, 0, 82, 70
1, 363694, Note_off_c, 0, 91, 70
1, 363713, Note_off_c, 0, 94, 67
1, 363743, Note_on_c, 0, 47, 99
1, 363747, Note_on_c, 0, 92, 103
1, 363748, Note_on_c, 0, 95, 103
1, 363749, Note_on_c, 0, 83, 102
1, 363788, Note_off_c, 0, 47, 63
1, 363893, Note_off_c, 0, 83, 45
1, 363901, Note_off_c, 0, 95, 62
1, 363929, Note_on_c, 0, 52, 102
1, 363930, Note_on_c, 0, 40, 102
1, 363963, Note_off_c, 0, 52, 70
1, 363964, Note_off_c, 0, 92, 63
1, 363973, Note_off_c, 0, 40, 66
1, 364027, Note_on_c, 0, 94, 95
1, 364033, Note_on_c, 0, 82, 92
1, 364038, Note_on_c, 0, 91, 80
1, 364059, Note_off_c, 0, 91, 69
1, 364072, Note_off_c, 0, 82, 61
1, 364075, Note_off_c, 0, 94, 66
1, 364126, Note_on_c, 0, 92, 104
1, 364126, Note_on_c, 0, 95, 100
1, 364127, Note_on_c, 0, 83, 105
1, 364129, Note_on_c, 0, 35, 93
1, 364158, Note_off_c, 0, 83, 70
1, 364163, Note_off_c, 0, 95, 65
1, 364179, Note_off_c, 0, 92, 65
1, 364225, Note_on_c, 0, 82, 105
1, 364226, Note_on_c, 0, 94, 101
1, 364233, Note_on_c, 0, 91, 90
1, 364236, Note_on_c, 0, 92, 62
1, 364257, Note_off_c, 0, 92, 63
1, 364302, Note_off_c, 0, 91, 62
1, 364308, Note_off_c, 0, 82, 56
1, 364329, Note_off_c, 0, 94, 64
1, 364342, Note_off_c, 0, 35, 62
1, 364351, Control_c, 0, 64, 84
1, 364361, Note_on_c, 0, 40, 103
1, 364363, Note_on_c, 0, 28, 97
1, 364365, Control_c, 0, 64, 0
1, 364367, Note_on_c, 0, 92, 100
1, 364370, Note_on_c, 0, 83, 107
1, 364372, Note_on_c, 0, 95, 102
1, 364379, Note_on_c, 0, 94, 81
1, 364428, Note_off_c, 0, 94, 61
1, 364558, Control_c, 0, 64, 56
1, 364573, Control_c, 0, 64, 63
1, 364588, Control_c, 0, 64, 68
1, 364602, Control_c, 0, 64, 77
1, 364604, Note_off_c, 0, 28, 56
1, 364617, Control_c, 0, 64, 105
1, 364632, Control_c, 0, 64, 127
1, 364648, Note_off_c, 0, 83, 52
1, 364681, Note_off_c, 0, 40, 54
1, 364783, Note_off_c, 0, 95, 55
1, 364842, Note_off_c, 0, 92, 58
1, 364921, Control_c, 0, 64, 98
1, 364936, Control_c, 0, 64, 80
1, 364950, Control_c, 0, 64, 68
1, 364965, Control_c, 0, 64, 60
1, 364981, Control_c, 0, 64, 54
1, 364996, Control_c, 0, 64, 50
1, 365011, Control_c, 0, 64, 45
1, 365026, Control_c, 0, 64, 0
1, 365244, Note_on_c, 0, 64, 100
1, 365245, Note_on_c, 0, 100, 101
1, 365246, Note_on_c, 0, 52, 87
1, 365246, Note_on_c, 0, 88, 111
1, 365246, Note_on_c, 0, 92, 111
1, 365247, Note_on_c, 0, 56, 97
1, 365249, Note_on_c, 0, 95, 99
1, 365251, Note_on_c, 0, 59, 98
1, 365262, Control_c, 0, 64, 127
1, 365270, Note_off_c, 0, 52, 68
1, 365270, Note_off_c, 0, 64, 71
1, 365278, Note_off_c, 0, 88, 70
1, 365278, Note_off_c, 0, 100, 73
1, 365280, Note_off_c, 0, 59, 66
1, 365285, Note_off_c, 0, 56, 66
1, 365288, Note_off_c, 0, 95, 70
1, 365291, Note_off_c, 0, 92, 69
1, 365714, Control_c, 0, 64, 107
1, 365729, Control_c, 0, 64, 98
1, 365744, Control_c, 0, 64, 87
1, 365759, Control_c, 0, 64, 72
1, 365775, Control_c, 0, 64, 58
1, 365790, Control_c, 0, 64, 0
1, 365790, End_track
0, 0, End_of_file
