0, 0, Header, 0, 1, 384
1, 0, Start_track
1, 0, Title_t, "Sonata Op. 36--M. Benabdallah   "
1, 0, Text_t, "2006 International Piano-e-Competition Recital Round"
1, 0, Text_t, "St. Paul, Minnesota, July 2006"
1, 0, Text_t, "http://www.piano-e-competition.com/"
1, 0, Instrument_name_t, "Yamaha Disklavier Pro Mark IV concert grand piano"
1, 0, Sequencer_specific, 39, 67, 113, 0, 1, 0, 1, 0, 83, 111, 110, 97, 116, 97, 32, 79, 112, 46, 32, 51, 54, 32, 32, 32, 77, 46, 32, 66, 101, 110, 97, 98, 100, 97, 108, 108, 97, 104, 32, 32
1, 0, Sequencer_specific, 6, 67, 113, 0, 0, 0, 69
1, 0, System_exclusive, 21, 67, 113, 126, 21, 0, 2, 2, 0, 10, 10, 12, 4, 4, 10, 14, 12, 3, 2, 15, 4, 247
1, 0, Sequencer_specific, 5, 67, 123, 12, 2, 1
1, 0, Tempo, 512820
1, 0, Time_signature, 4, 2, 24, 8
1, 0, System_exclusive, 5, 126, 127, 9, 1, 247
1, 1, System_exclusive, 8, 67, 16, 76, 0, 0, 126, 0, 247
1, 2, System_exclusive, 8, 67, 16, 76, 8, 9, 7, 1, 247
1, 3, Control_c, 0, 0, 0
1, 4, Control_c, 0, 32, 0
1, 5, Program_c, 0, 0
1, 6, Control_c, 0, 7, 100
1, 95, Control_c, 0, 64, 8
1, 184, Control_c, 0, 64, 16
1, 273, Control_c, 0, 64, 24
1, 362, Control_c, 0, 64, 32
1, 452, Control_c, 0, 64, 40
1, 541, Control_c, 0, 64, 48
1, 630, Control_c, 0, 64, 56
1, 719, Control_c, 0, 64, 64
1, 905, Note_on_c, 0, 65, 69
1, 913, Control_c, 0, 64, 66
1, 927, Control_c, 0, 64, 69
1, 942, Control_c, 0, 64, 74
1, 957, Control_c, 0, 64, 79
1, 972, Control_c, 0, 64, 83
1, 987, Control_c, 0, 64, 91
1, 1002, Control_c, 0, 64, 114
1, 1016, Control_c, 0, 64, 127
1, 1023, Note_on_c, 0, 63, 78
1, 1025, Note_off_c, 0, 65, 64
1, 1077, Note_on_c, 0, 61, 77
1, 1116, Note_off_c, 0, 63, 62
1, 1127, Note_on_c, 0, 58, 79
1, 1142, Note_off_c, 0, 61, 63
1, 1173, Note_off_c, 0, 58, 63
1, 1189, Note_on_c, 0, 53, 65
1, 1226, Note_off_c, 0, 53, 62
1, 1243, Note_on_c, 0, 51, 83
1, 1291, Note_on_c, 0, 49, 78
1, 1320, Note_off_c, 0, 51, 63
1, 1333, Note_on_c, 0, 46, 82
1, 1346, Note_off_c, 0, 49, 65
1, 1382, Note_off_c, 0, 46, 59
1, 1387, Note_on_c, 0, 41, 68
1, 1401, Note_on_c, 0, 43, 57
1, 1428, Note_off_c, 0, 43, 56
1, 1455, Note_on_c, 0, 39, 90
1, 1458, Note_off_c, 0, 41, 61
1, 1490, Note_on_c, 0, 37, 93
1, 1524, Note_off_c, 0, 39, 65
1, 1528, Control_c, 0, 64, 77
1, 1543, Control_c, 0, 64, 0
1, 1543, Control_c, 0, 67, 29
1, 1545, Note_off_c, 0, 37, 63
1, 1557, Control_c, 0, 67, 33
1, 1559, Note_on_c, 0, 22, 101
1, 1559, Note_on_c, 0, 34, 118
1, 1572, Control_c, 0, 67, 33
1, 1587, Control_c, 0, 67, 36
1, 1602, Control_c, 0, 64, 48
1, 1602, Control_c, 0, 67, 37
1, 1617, Control_c, 0, 64, 72
1, 1617, Control_c, 0, 67, 40
1, 1631, Control_c, 0, 64, 93
1, 1631, Control_c, 0, 67, 46
1, 1646, Control_c, 0, 64, 127
1, 1646, Control_c, 0, 67, 55
1, 1661, Control_c, 0, 67, 60
1, 1676, Control_c, 0, 67, 63
1, 1676, Note_off_c, 0, 22, 59
1, 1706, Control_c, 0, 67, 61
1, 1706, Note_off_c, 0, 34, 63
1, 1720, Control_c, 0, 67, 60
1, 1735, Control_c, 0, 67, 58
1, 1750, Control_c, 0, 67, 57
1, 1765, Control_c, 0, 67, 56
1, 1780, Control_c, 0, 67, 53
1, 1795, Control_c, 0, 67, 50
1, 1809, Control_c, 0, 67, 42
1, 1824, Control_c, 0, 67, 22
1, 1839, Control_c, 0, 67, 0
1, 2072, Note_on_c, 0, 53, 87
1, 2072, Note_on_c, 0, 65, 100
1, 2074, Note_on_c, 0, 58, 88
1, 2076, Note_on_c, 0, 61, 86
1, 2101, Note_on_c, 0, 77, 101
1, 2102, Note_on_c, 0, 89, 105
1, 2108, Note_on_c, 0, 82, 92
1, 2134, Note_on_c, 0, 83, 62
1, 2138, Note_off_c, 0, 65, 62
1, 2139, Note_off_c, 0, 53, 61
1, 2139, Note_off_c, 0, 77, 65
1, 2148, Note_off_c, 0, 58, 64
1, 2150, Note_off_c, 0, 61, 59
1, 2153, Note_off_c, 0, 83, 64
1, 2154, Note_off_c, 0, 82, 60
1, 2159, Note_off_c, 0, 89, 59
1, 2279, Note_on_c, 0, 85, 111
1, 2280, Note_on_c, 0, 73, 102
1, 2283, Note_on_c, 0, 53, 85
1, 2283, Note_on_c, 0, 58, 94
1, 2284, Note_on_c, 0, 65, 98
1, 2285, Note_on_c, 0, 61, 87
1, 2287, Note_on_c, 0, 82, 88
1, 2303, Note_off_c, 0, 65, 70
1, 2305, Note_off_c, 0, 82, 70
1, 2306, Note_off_c, 0, 73, 64
1, 2308, Note_off_c, 0, 53, 65
1, 2313, Note_off_c, 0, 85, 67
1, 2314, Note_off_c, 0, 58, 67
1, 2314, Note_off_c, 0, 61, 62
1, 2758, Note_on_c, 0, 77, 70
1, 2769, Note_on_c, 0, 73, 64
1, 2800, Note_off_c, 0, 73, 64
1, 2813, Note_off_c, 0, 77, 63
1, 2892, Note_on_c, 0, 61, 53
1, 2906, Note_on_c, 0, 70, 49
1, 2936, Note_off_c, 0, 70, 54
1, 2938, Note_off_c, 0, 61, 52
1, 2973, Note_on_c, 0, 65, 67
1, 3038, Note_off_c, 0, 65, 63
1, 3055, Note_on_c, 0, 73, 69
1, 3062, Note_on_c, 0, 77, 69
1, 3086, Note_off_c, 0, 73, 62
1, 3092, Note_off_c, 0, 77, 62
1, 3143, Note_on_c, 0, 70, 69
1, 3160, Note_on_c, 0, 61, 56
1, 3172, Note_off_c, 0, 70, 64
1, 3180, Note_off_c, 0, 61, 61
1, 3218, Note_on_c, 0, 65, 63
1, 3270, Note_off_c, 0, 65, 60
1, 3275, Note_on_c, 0, 73, 65
1, 3288, Note_on_c, 0, 77, 65
1, 3313, Note_off_c, 0, 73, 59
1, 3318, Note_off_c, 0, 77, 66
1, 3348, Note_on_c, 0, 70, 71
1, 3378, Note_off_c, 0, 70, 66
1, 3390, Note_on_c, 0, 61, 29
1, 3424, Note_on_c, 0, 65, 70
1, 3425, Note_off_c, 0, 61, 50
1, 3463, Note_off_c, 0, 65, 60
1, 3470, Note_on_c, 0, 73, 64
1, 3479, Note_on_c, 0, 77, 70
1, 3507, Note_off_c, 0, 73, 58
1, 3513, Note_off_c, 0, 77, 60
1, 3548, Note_on_c, 0, 70, 75
1, 3555, Note_on_c, 0, 61, 62
1, 3574, Note_off_c, 0, 70, 63
1, 3586, Note_off_c, 0, 61, 66
1, 3598, Note_on_c, 0, 65, 75
1, 3648, Note_on_c, 0, 73, 68
1, 3660, Note_off_c, 0, 65, 59
1, 3664, Note_on_c, 0, 77, 76
1, 3703, Note_off_c, 0, 73, 61
1, 3706, Note_off_c, 0, 77, 62
1, 3723, Note_on_c, 0, 70, 79
1, 3738, Note_on_c, 0, 61, 75
1, 3756, Note_off_c, 0, 70, 67
1, 3769, Note_off_c, 0, 61, 67
1, 3778, Note_on_c, 0, 65, 84
1, 3832, Note_on_c, 0, 73, 80
1, 3835, Note_off_c, 0, 65, 63
1, 3867, Note_on_c, 0, 77, 76
1, 3885, Note_off_c, 0, 73, 62
1, 3908, Note_on_c, 0, 65, 71
1, 3959, Note_off_c, 0, 65, 59
1, 3972, Note_off_c, 0, 77, 65
1, 3975, Note_on_c, 0, 73, 79
1, 3977, Note_on_c, 0, 70, 79
1, 4001, Note_off_c, 0, 70, 66
1, 4007, Note_off_c, 0, 73, 62
1, 4060, Note_on_c, 0, 67, 84
1, 4067, Note_on_c, 0, 65, 86
1, 4205, Note_off_c, 0, 67, 62
1, 4284, Note_off_c, 0, 65, 65
1, 4306, Note_on_c, 0, 64, 83
1, 4380, Note_on_c, 0, 65, 71
1, 4439, Note_on_c, 0, 70, 70
1, 4440, Note_off_c, 0, 65, 60
1, 4455, Note_on_c, 0, 73, 75
1, 4470, Note_off_c, 0, 70, 65
1, 4489, Note_on_c, 0, 63, 93
1, 4502, Note_off_c, 0, 64, 64
1, 4521, Note_on_c, 0, 77, 74
1, 4528, Note_off_c, 0, 73, 62
1, 4595, Note_on_c, 0, 65, 66
1, 4642, Note_on_c, 0, 70, 56
1, 4642, Note_off_c, 0, 77, 60
1, 4645, Note_on_c, 0, 73, 69
1, 4648, Note_off_c, 0, 65, 62
1, 4681, Note_off_c, 0, 70, 63
1, 4711, Note_off_c, 0, 63, 69
1, 4721, Note_on_c, 0, 61, 91
1, 4728, Note_off_c, 0, 73, 41
1, 4731, Control_c, 0, 64, 75
1, 4746, Control_c, 0, 64, 54
1, 4761, Control_c, 0, 64, 38
1, 4761, Control_c, 0, 67, 20
1, 4775, Control_c, 0, 64, 42
1, 4790, Control_c, 0, 64, 49
1, 4790, Control_c, 0, 67, 22
1, 4805, Control_c, 0, 64, 58
1, 4805, Control_c, 0, 67, 24
1, 4811, Note_on_c, 0, 65, 69
1, 4820, Control_c, 0, 64, 66
1, 4834, Control_c, 0, 64, 75
1, 4834, Control_c, 0, 67, 27
1, 4849, Control_c, 0, 64, 82
1, 4864, Control_c, 0, 64, 83
1, 4864, Control_c, 0, 67, 29
1, 4879, Control_c, 0, 67, 31
1, 4882, Note_on_c, 0, 70, 59
1, 4883, Note_off_c, 0, 65, 55
1, 4889, Note_on_c, 0, 73, 68
1, 4893, Control_c, 0, 67, 34
1, 4908, Control_c, 0, 64, 84
1, 4908, Control_c, 0, 67, 37
1, 4923, Control_c, 0, 64, 86
1, 4923, Control_c, 0, 67, 39
1, 4928, Note_off_c, 0, 70, 55
1, 4938, Control_c, 0, 64, 89
1, 4938, Control_c, 0, 67, 40
1, 4953, Control_c, 0, 64, 94
1, 4965, Note_on_c, 0, 77, 67
1, 4967, Control_c, 0, 64, 100
1, 4967, Control_c, 0, 67, 41
1, 4980, Note_off_c, 0, 73, 56
1, 4982, Control_c, 0, 64, 109
1, 4982, Control_c, 0, 67, 42
1, 4997, Control_c, 0, 64, 127
1, 4997, Control_c, 0, 67, 47
1, 5012, Control_c, 0, 67, 53
1, 5026, Control_c, 0, 67, 56
1, 5052, Note_on_c, 0, 65, 57
1, 5120, Note_off_c, 0, 65, 57
1, 5140, Note_on_c, 0, 73, 54
1, 5161, Note_on_c, 0, 58, 76
1, 5183, Note_on_c, 0, 70, 4
1, 5190, Control_c, 0, 67, 57
1, 5205, Control_c, 0, 67, 57
1, 5208, Note_off_c, 0, 77, 34
1, 5254, Note_off_c, 0, 70, 47
1, 5284, Note_on_c, 0, 53, 72
1, 5302, Control_c, 0, 67, 58
1, 5309, Note_off_c, 0, 73, 31
1, 5317, Control_c, 0, 67, 59
1, 5327, Note_off_c, 0, 58, 61
1, 5331, Control_c, 0, 67, 61
1, 5346, Control_c, 0, 67, 61
1, 5378, Note_on_c, 0, 65, 66
1, 5405, Control_c, 0, 67, 62
1, 5420, Note_off_c, 0, 61, 58
1, 5420, Control_c, 0, 67, 62
1, 5450, Control_c, 0, 67, 63
1, 5454, Note_off_c, 0, 65, 60
1, 5458, Note_on_c, 0, 70, 54
1, 5464, Note_on_c, 0, 73, 65
1, 5464, Control_c, 0, 67, 63
1, 5498, Note_off_c, 0, 70, 59
1, 5539, Note_on_c, 0, 77, 65
1, 5541, Note_off_c, 0, 73, 58
1, 5569, Control_c, 0, 67, 63
1, 5584, Control_c, 0, 67, 62
1, 5601, Note_on_c, 0, 65, 56
1, 5628, Control_c, 0, 67, 62
1, 5643, Note_off_c, 0, 77, 56
1, 5643, Control_c, 0, 67, 61
1, 5655, Note_off_c, 0, 65, 63
1, 5655, Note_on_c, 0, 70, 62
1, 5655, Note_on_c, 0, 73, 66
1, 5681, Note_off_c, 0, 73, 69
1, 5684, Note_off_c, 0, 70, 67
1, 5702, Control_c, 0, 67, 62
1, 5717, Control_c, 0, 67, 63
1, 5731, Control_c, 0, 67, 63
1, 5821, Control_c, 0, 67, 63
1, 5865, Note_on_c, 0, 54, 59
1, 5896, Control_c, 0, 67, 62
1, 5924, Note_off_c, 0, 54, 60
1, 5958, Note_on_c, 0, 61, 58
1, 6000, Note_on_c, 0, 52, 80
1, 6007, Control_c, 0, 67, 63
1, 6022, Control_c, 0, 64, 85
1, 6022, Control_c, 0, 67, 63
1, 6034, Note_off_c, 0, 61, 59
1, 6037, Control_c, 0, 64, 72
1, 6037, Control_c, 0, 67, 64
1, 6043, Note_off_c, 0, 53, 58
1, 6052, Control_c, 0, 64, 69
1, 6057, Note_on_c, 0, 54, 54
1, 6081, Control_c, 0, 64, 70
1, 6096, Control_c, 0, 64, 73
1, 6096, Control_c, 0, 67, 64
1, 6111, Control_c, 0, 64, 75
1, 6111, Control_c, 0, 67, 65
1, 6126, Control_c, 0, 64, 78
1, 6126, Control_c, 0, 67, 67
1, 6141, Note_off_c, 0, 54, 57
1, 6141, Control_c, 0, 64, 79
1, 6141, Control_c, 0, 67, 72
1, 6147, Note_on_c, 0, 58, 44
1, 6155, Control_c, 0, 67, 74
1, 6170, Control_c, 0, 67, 75
1, 6214, Control_c, 0, 64, 80
1, 6229, Control_c, 0, 64, 80
1, 6239, Note_off_c, 0, 58, 63
1, 6244, Control_c, 0, 64, 81
1, 6244, Control_c, 0, 67, 75
1, 6256, Note_on_c, 0, 61, 49
1, 6259, Control_c, 0, 67, 76
1, 6288, Control_c, 0, 64, 81
1, 6288, Control_c, 0, 67, 78
1, 6303, Control_c, 0, 64, 82
1, 6303, Control_c, 0, 67, 81
1, 6312, Note_off_c, 0, 61, 55
1, 6318, Control_c, 0, 64, 83
1, 6318, Control_c, 0, 67, 82
1, 6333, Control_c, 0, 64, 84
1, 6340, Note_on_c, 0, 54, 43
1, 6347, Control_c, 0, 64, 85
1, 6347, Control_c, 0, 67, 83
1, 6362, Control_c, 0, 64, 85
1, 6377, Control_c, 0, 64, 86
1, 6391, Control_c, 0, 64, 87
1, 6391, Control_c, 0, 67, 83
1, 6406, Control_c, 0, 64, 88
1, 6421, Control_c, 0, 64, 90
1, 6436, Control_c, 0, 64, 91
1, 6451, Control_c, 0, 64, 92
1, 6451, Control_c, 0, 67, 84
1, 6458, Note_on_c, 0, 58, 43
1, 6466, Control_c, 0, 64, 92
1, 6481, Control_c, 0, 64, 94
1, 6496, Control_c, 0, 64, 94
1, 6511, Control_c, 0, 64, 95
1, 6526, Control_c, 0, 64, 96
1, 6555, Control_c, 0, 64, 98
1, 6555, Control_c, 0, 67, 84
1, 6570, Control_c, 0, 67, 85
1, 6582, Note_on_c, 0, 61, 36
1, 6585, Control_c, 0, 64, 101
1, 6585, Control_c, 0, 67, 87
1, 6599, Control_c, 0, 67, 89
1, 6614, Control_c, 0, 64, 103
1, 6614, Control_c, 0, 67, 90
1, 6644, Control_c, 0, 64, 106
1, 6644, Control_c, 0, 67, 90
1, 6648, Note_off_c, 0, 54, 41
1, 6659, Control_c, 0, 64, 109
1, 6659, Control_c, 0, 67, 91
1, 6675, Control_c, 0, 64, 113
1, 6689, Control_c, 0, 64, 117
1, 6704, Control_c, 0, 64, 124
1, 6719, Control_c, 0, 64, 127
1, 6719, Control_c, 0, 67, 91
1, 6734, Control_c, 0, 67, 92
1, 6770, Control_c, 0, 64, 102
1, 6778, Note_on_c, 0, 51, 66
1, 6785, Control_c, 0, 64, 80
1, 6785, Control_c, 0, 67, 93
1, 6800, Control_c, 0, 64, 65
1, 6815, Control_c, 0, 64, 48
1, 6830, Control_c, 0, 64, 0
1, 6830, Control_c, 0, 67, 94
1, 6833, Note_off_c, 0, 52, 59
1, 6859, Control_c, 0, 67, 95
1, 6874, Control_c, 0, 64, 55
1, 6874, Control_c, 0, 67, 98
1, 6889, Control_c, 0, 64, 71
1, 6889, Control_c, 0, 67, 101
1, 6904, Control_c, 0, 64, 86
1, 6904, Control_c, 0, 67, 103
1, 6919, Control_c, 0, 64, 93
1, 6919, Control_c, 0, 67, 105
1, 6938, Note_off_c, 0, 51, 63
1, 6942, Note_off_c, 0, 61, 49
1, 6948, Note_off_c, 0, 58, 20
1, 6949, Control_c, 0, 64, 94
1, 6949, Control_c, 0, 67, 107
1, 6964, Control_c, 0, 64, 95
1, 6978, Control_c, 0, 64, 95
1, 6993, Control_c, 0, 64, 96
1, 7161, Note_on_c, 0, 61, 58
1, 7164, Note_on_c, 0, 53, 49
1, 7214, Control_c, 0, 64, 92
1, 7229, Control_c, 0, 64, 75
1, 7244, Control_c, 0, 64, 58
1, 7259, Control_c, 0, 64, 0
1, 7280, Note_on_c, 0, 49, 49
1, 7289, Note_on_c, 0, 41, 41
1, 7303, Control_c, 0, 64, 41
1, 7318, Control_c, 0, 64, 61
1, 7327, Note_off_c, 0, 53, 34
1, 7333, Control_c, 0, 64, 69
1, 7347, Control_c, 0, 64, 73
1, 7347, Control_c, 0, 67, 110
1, 7360, Note_on_c, 0, 34, 46
1, 7362, Control_c, 0, 64, 75
1, 7362, Control_c, 0, 67, 114
1, 7377, Control_c, 0, 64, 75
1, 7377, Control_c, 0, 67, 117
1, 7382, Note_off_c, 0, 41, 58
1, 7391, Note_off_c, 0, 34, 60
1, 7407, Control_c, 0, 64, 76
1, 7411, Note_off_c, 0, 49, 59
1, 7477, Note_on_c, 0, 53, 42
1, 7482, Control_c, 0, 64, 76
1, 7504, Note_on_c, 0, 65, 41
1, 7504, Control_c, 0, 67, 115
1, 7519, Control_c, 0, 64, 77
1, 7527, Note_off_c, 0, 53, 0
1, 7533, Control_c, 0, 64, 78
1, 7541, Note_on_c, 0, 49, 59
1, 7548, Note_on_c, 0, 53, 20
1, 7557, Note_off_c, 0, 61, 40
1, 7578, Control_c, 0, 64, 78
1, 7602, Note_off_c, 0, 53, 51
1, 7623, Note_off_c, 0, 49, 61
1, 7631, Note_on_c, 0, 41, 60
1, 7638, Control_c, 0, 64, 79
1, 7654, Note_off_c, 0, 41, 60
1, 7654, Note_off_c, 0, 65, 40
1, 7667, Control_c, 0, 64, 79
1, 7697, Note_on_c, 0, 60, 77
1, 7697, Note_on_c, 0, 53, 72
1, 7712, Control_c, 0, 64, 77
1, 7726, Control_c, 0, 64, 64
1, 7741, Control_c, 0, 64, 0
1, 7775, Note_on_c, 0, 48, 60
1, 7785, Note_off_c, 0, 53, 47
1, 7800, Control_c, 0, 64, 43
1, 7815, Control_c, 0, 64, 64
1, 7820, Note_on_c, 0, 41, 11
1, 7830, Control_c, 0, 64, 74
1, 7837, Note_off_c, 0, 48, 62
1, 7844, Control_c, 0, 64, 83
1, 7858, Note_off_c, 0, 41, 59
1, 7859, Control_c, 0, 64, 88
1, 7866, Note_on_c, 0, 34, 60
1, 7874, Control_c, 0, 64, 91
1, 7889, Control_c, 0, 64, 95
1, 7899, Note_off_c, 0, 34, 62
1, 7904, Control_c, 0, 64, 97
1, 7904, Control_c, 0, 67, 112
1, 7915, Note_off_c, 0, 60, 0
1, 7918, Control_c, 0, 64, 100
1, 7918, Control_c, 0, 67, 108
1, 7922, Note_on_c, 0, 53, 66
1, 7930, Note_on_c, 0, 65, 68
1, 7933, Control_c, 0, 64, 106
1, 7933, Control_c, 0, 67, 104
1, 7935, Note_on_c, 0, 60, 15
1, 7947, Note_off_c, 0, 53, 64
1, 7948, Control_c, 0, 64, 127
1, 7948, Control_c, 0, 67, 98
1, 7962, Control_c, 0, 67, 88
1, 7977, Control_c, 0, 67, 77
1, 7983, Note_off_c, 0, 60, 45
1, 7991, Note_on_c, 0, 53, 53
1, 7992, Control_c, 0, 67, 65
1, 7998, Note_on_c, 0, 48, 56
1, 8007, Control_c, 0, 67, 52
1, 8022, Control_c, 0, 67, 41
1, 8025, Note_off_c, 0, 53, 64
1, 8037, Control_c, 0, 67, 36
1, 8038, Note_off_c, 0, 48, 63
1, 8052, Control_c, 0, 67, 33
1, 8066, Note_on_c, 0, 41, 76
1, 8067, Control_c, 0, 67, 28
1, 8079, Note_off_c, 0, 65, 53
1, 8082, Control_c, 0, 67, 21
1, 8097, Note_off_c, 0, 41, 65
1, 8097, Control_c, 0, 67, 0
1, 8122, Note_on_c, 0, 53, 82
1, 8126, Note_on_c, 0, 58, 85
1, 8141, Control_c, 0, 64, 68
1, 8156, Control_c, 0, 64, 0
1, 8189, Note_on_c, 0, 46, 83
1, 8216, Control_c, 0, 64, 63
1, 8219, Note_on_c, 0, 41, 43
1, 8231, Control_c, 0, 64, 77
1, 8252, Control_c, 0, 64, 92
1, 8268, Control_c, 0, 64, 108
1, 8275, Note_off_c, 0, 53, 51
1, 8283, Control_c, 0, 64, 127
1, 8294, Note_off_c, 0, 58, 57
1, 8302, Note_off_c, 0, 46, 56
1, 8323, Note_on_c, 0, 34, 70
1, 8346, Note_off_c, 0, 41, 25
1, 8351, Note_off_c, 0, 34, 64
1, 8358, Note_on_c, 0, 65, 81
1, 8359, Note_on_c, 0, 58, 64
1, 8365, Note_on_c, 0, 53, 65
1, 8395, Note_off_c, 0, 53, 64
1, 8408, Note_off_c, 0, 58, 58
1, 8432, Note_on_c, 0, 46, 84
1, 8435, Note_on_c, 0, 53, 70
1, 8460, Note_off_c, 0, 53, 69
1, 8513, Note_off_c, 0, 46, 61
1, 8526, Note_on_c, 0, 41, 82
1, 8547, Note_off_c, 0, 65, 61
1, 8555, Note_off_c, 0, 41, 67
1, 8556, Note_on_c, 0, 56, 101
1, 8559, Note_on_c, 0, 53, 88
1, 8565, Control_c, 0, 64, 82
1, 8579, Control_c, 0, 64, 0
1, 8624, Control_c, 0, 64, 58
1, 8632, Note_on_c, 0, 44, 91
1, 8639, Control_c, 0, 64, 89
1, 8647, Note_off_c, 0, 53, 47
1, 8654, Control_c, 0, 64, 127
1, 8709, Note_off_c, 0, 44, 60
1, 8772, Note_on_c, 0, 34, 44
1, 8773, Note_on_c, 0, 65, 93
1, 8774, Note_on_c, 0, 53, 98
1, 8791, Note_off_c, 0, 56, 62
1, 8801, Note_off_c, 0, 53, 66
1, 8801, Note_off_c, 0, 65, 65
1, 8803, Note_off_c, 0, 34, 54
1, 8860, Note_on_c, 0, 52, 72
1, 8864, Note_on_c, 0, 44, 82
1, 8889, Note_off_c, 0, 52, 66
1, 8948, Note_off_c, 0, 44, 62
1, 8955, Note_on_c, 0, 40, 69
1, 8969, Note_on_c, 0, 41, 58
1, 8982, Note_off_c, 0, 40, 65
1, 9002, Note_off_c, 0, 41, 56
1, 9060, Note_on_c, 0, 42, 103
1, 9066, Note_on_c, 0, 53, 87
1, 9077, Note_on_c, 0, 51, 68
1, 9079, Note_on_c, 0, 41, 68
1, 9086, Note_on_c, 0, 52, 64
1, 9090, Note_on_c, 0, 40, 46
1, 9098, Note_off_c, 0, 51, 61
1, 9106, Control_c, 0, 64, 61
1, 9116, Note_off_c, 0, 40, 56
1, 9118, Note_off_c, 0, 41, 44
1, 9121, Control_c, 0, 64, 0
1, 9152, Note_off_c, 0, 52, 0
1, 9157, Note_on_c, 0, 34, 108
1, 9160, Note_on_c, 0, 22, 106
1, 9180, Control_c, 0, 64, 48
1, 9184, Note_off_c, 0, 22, 67
1, 9193, Note_off_c, 0, 34, 64
1, 9195, Control_c, 0, 64, 71
1, 9210, Control_c, 0, 64, 98
1, 9217, Poly_aftertouch_c, 0, 52, 0
1, 9224, Control_c, 0, 64, 127
1, 9266, Note_off_c, 0, 53, 59
1, 9269, Note_off_c, 0, 42, 57
1, 9420, Note_on_c, 0, 54, 77
1, 9424, Note_on_c, 0, 65, 82
1, 9447, Note_off_c, 0, 65, 70
1, 9466, Note_off_c, 0, 54, 46
1, 9498, Note_on_c, 0, 54, 68
1, 9504, Note_on_c, 0, 65, 83
1, 9521, Note_on_c, 0, 58, 84
1, 9554, Note_off_c, 0, 65, 65
1, 9560, Note_off_c, 0, 54, 61
1, 9567, Note_off_c, 0, 58, 64
1, 9675, Note_on_c, 0, 65, 97
1, 9676, Note_on_c, 0, 58, 89
1, 9681, Note_on_c, 0, 61, 80
1, 9682, Note_on_c, 0, 54, 80
1, 9765, Note_off_c, 0, 58, 60
1, 9766, Note_off_c, 0, 65, 61
1, 9766, Note_on_c, 0, 77, 96
1, 9766, Note_on_c, 0, 89, 109
1, 9773, Note_off_c, 0, 54, 61
1, 9773, Note_off_c, 0, 61, 59
1, 9791, Note_off_c, 0, 77, 65
1, 9794, Note_off_c, 0, 89, 58
1, 9795, Note_on_c, 0, 82, 43
1, 9795, Note_off_c, 0, 82, 127
1, 9873, Note_on_c, 0, 65, 100
1, 9875, Note_on_c, 0, 58, 86
1, 9876, Note_on_c, 0, 54, 88
1, 9879, Note_on_c, 0, 61, 84
1, 9895, Note_on_c, 0, 85, 102
1, 9899, Note_on_c, 0, 73, 91
1, 9901, Note_on_c, 0, 82, 86
1, 9910, Note_off_c, 0, 61, 59
1, 9912, Note_on_c, 0, 86, 68
1, 9913, Note_off_c, 0, 58, 63
1, 9914, Note_off_c, 0, 65, 64
1, 9915, Note_off_c, 0, 73, 74
1, 9915, Note_on_c, 0, 75, 55
1, 9918, Note_off_c, 0, 54, 57
1, 9918, Note_off_c, 0, 82, 64
1, 9923, Note_off_c, 0, 85, 50
1, 9930, Note_off_c, 0, 86, 65
1, 9939, Note_off_c, 0, 75, 42
1, 10016, Note_on_c, 0, 65, 62
1, 10018, Note_on_c, 0, 61, 59
1, 10037, Note_off_c, 0, 65, 68
1, 10040, Note_on_c, 0, 54, 36
1, 10050, Note_off_c, 0, 61, 61
1, 10054, Note_on_c, 0, 58, 22
1, 10064, Note_off_c, 0, 54, 56
1, 10093, Note_off_c, 0, 58, 55
1, 10186, Note_on_c, 0, 61, 47
1, 10189, Note_on_c, 0, 58, 56
1, 10190, Note_on_c, 0, 65, 59
1, 10198, Note_on_c, 0, 54, 29
1, 10216, Note_off_c, 0, 58, 68
1, 10224, Control_c, 0, 67, 23
1, 10227, Note_off_c, 0, 54, 50
1, 10227, Note_off_c, 0, 65, 64
1, 10233, Note_off_c, 0, 61, 61
1, 10239, Control_c, 0, 67, 28
1, 10254, Control_c, 0, 67, 30
1, 10269, Control_c, 0, 67, 33
1, 10283, Note_on_c, 0, 77, 71
1, 10284, Control_c, 0, 67, 37
1, 10293, Note_on_c, 0, 73, 68
1, 10299, Control_c, 0, 67, 42
1, 10313, Control_c, 0, 67, 48
1, 10317, Note_off_c, 0, 73, 68
1, 10328, Control_c, 0, 67, 53
1, 10333, Note_off_c, 0, 77, 63
1, 10343, Control_c, 0, 67, 58
1, 10358, Control_c, 0, 67, 63
1, 10372, Control_c, 0, 67, 66
1, 10374, Note_on_c, 0, 70, 69
1, 10387, Control_c, 0, 67, 69
1, 10402, Control_c, 0, 67, 74
1, 10406, Note_off_c, 0, 70, 64
1, 10409, Note_on_c, 0, 61, 33
1, 10417, Control_c, 0, 67, 80
1, 10432, Control_c, 0, 67, 86
1, 10444, Note_off_c, 0, 61, 47
1, 10446, Control_c, 0, 67, 93
1, 10449, Note_on_c, 0, 66, 72
1, 10461, Control_c, 0, 67, 100
1, 10476, Control_c, 0, 67, 103
1, 10507, Note_off_c, 0, 66, 59
1, 10516, Note_on_c, 0, 73, 60
1, 10530, Note_on_c, 0, 77, 64
1, 10553, Note_off_c, 0, 73, 62
1, 10560, Note_off_c, 0, 77, 65
1, 10586, Note_on_c, 0, 70, 65
1, 10609, Note_on_c, 0, 61, 43
1, 10616, Note_off_c, 0, 70, 65
1, 10639, Note_off_c, 0, 61, 53
1, 10667, Note_on_c, 0, 66, 68
1, 10700, Note_on_c, 0, 73, 67
1, 10706, Note_off_c, 0, 66, 63
1, 10712, Note_on_c, 0, 77, 64
1, 10743, Note_off_c, 0, 73, 63
1, 10755, Note_off_c, 0, 77, 63
1, 10773, Note_on_c, 0, 70, 74
1, 10782, Note_on_c, 0, 61, 62
1, 10816, Note_off_c, 0, 61, 64
1, 10816, Note_off_c, 0, 70, 60
1, 10845, Note_on_c, 0, 66, 73
1, 10889, Note_on_c, 0, 73, 70
1, 10897, Note_off_c, 0, 66, 61
1, 10906, Note_on_c, 0, 77, 74
1, 10938, Note_off_c, 0, 73, 60
1, 10949, Note_off_c, 0, 77, 64
1, 10961, Note_on_c, 0, 70, 75
1, 10966, Note_on_c, 0, 61, 74
1, 10988, Control_c, 0, 67, 101
1, 10995, Note_off_c, 0, 70, 60
1, 11008, Note_off_c, 0, 61, 59
1, 11017, Note_on_c, 0, 66, 83
1, 11048, Control_c, 0, 67, 99
1, 11074, Note_on_c, 0, 73, 77
1, 11074, Note_off_c, 0, 66, 60
1, 11094, Note_on_c, 0, 77, 81
1, 11101, Note_on_c, 0, 75, 55
1, 11116, Note_off_c, 0, 73, 62
1, 11120, Note_off_c, 0, 75, 62
1, 11131, Note_on_c, 0, 70, 76
1, 11131, Note_off_c, 0, 77, 64
1, 11140, Note_on_c, 0, 61, 79
1, 11153, Note_off_c, 0, 70, 71
1, 11163, Note_off_c, 0, 61, 69
1, 11183, Note_on_c, 0, 66, 85
1, 11226, Control_c, 0, 67, 97
1, 11248, Control_c, 0, 67, 96
1, 11257, Note_off_c, 0, 66, 62
1, 11262, Note_on_c, 0, 73, 75
1, 11262, Note_on_c, 0, 77, 76
1, 11263, Control_c, 0, 67, 95
1, 11277, Control_c, 0, 67, 93
1, 11292, Note_on_c, 0, 75, 28
1, 11292, Control_c, 0, 67, 92
1, 11307, Control_c, 0, 67, 92
1, 11310, Note_off_c, 0, 73, 60
1, 11320, Note_on_c, 0, 66, 83
1, 11322, Control_c, 0, 67, 91
1, 11325, Note_off_c, 0, 75, 55
1, 11337, Control_c, 0, 67, 90
1, 11352, Control_c, 0, 67, 87
1, 11367, Control_c, 0, 67, 83
1, 11367, Note_off_c, 0, 77, 62
1, 11382, Control_c, 0, 67, 81
1, 11389, Note_on_c, 0, 73, 88
1, 11392, Note_on_c, 0, 70, 83
1, 11393, Note_off_c, 0, 66, 62
1, 11396, Control_c, 0, 67, 81
1, 11411, Control_c, 0, 67, 80
1, 11424, Note_off_c, 0, 70, 63
1, 11432, Note_off_c, 0, 73, 62
1, 11449, Note_on_c, 0, 65, 97
1, 11486, Control_c, 0, 67, 79
1, 11501, Control_c, 0, 67, 79
1, 11605, Control_c, 0, 67, 79
1, 11649, Control_c, 0, 67, 80
1, 11695, Poly_aftertouch_c, 0, 70, 0
1, 11695, Note_on_c, 0, 64, 87
1, 11730, Note_off_c, 0, 65, 63
1, 11734, Note_on_c, 0, 66, 68
1, 11752, Control_c, 0, 67, 79
1, 11796, Note_off_c, 0, 66, 60
1, 11798, Note_on_c, 0, 70, 69
1, 11833, Note_on_c, 0, 73, 61
1, 11836, Note_off_c, 0, 70, 59
1, 11867, Note_on_c, 0, 63, 93
1, 11871, Control_c, 0, 67, 80
1, 11876, Note_off_c, 0, 64, 62
1, 11889, Note_on_c, 0, 77, 69
1, 11897, Note_off_c, 0, 73, 60
1, 11915, Control_c, 0, 67, 80
1, 11930, Control_c, 0, 67, 81
1, 11951, Note_on_c, 0, 66, 61
1, 12011, Control_c, 0, 67, 81
1, 12016, Note_off_c, 0, 66, 58
1, 12018, Note_on_c, 0, 70, 69
1, 12020, Note_off_c, 0, 77, 59
1, 12028, Note_on_c, 0, 73, 67
1, 12041, Control_c, 0, 67, 82
1, 12071, Control_c, 0, 67, 83
1, 12079, Note_off_c, 0, 70, 45
1, 12086, Control_c, 0, 67, 84
1, 12100, Control_c, 0, 67, 85
1, 12115, Control_c, 0, 67, 86
1, 12127, Note_off_c, 0, 63, 65
1, 12130, Note_on_c, 0, 61, 89
1, 12130, Control_c, 0, 67, 87
1, 12145, Control_c, 0, 64, 75
1, 12145, Control_c, 0, 67, 89
1, 12154, Note_off_c, 0, 73, 53
1, 12160, Control_c, 0, 64, 50
1, 12160, Control_c, 0, 67, 91
1, 12174, Control_c, 0, 64, 0
1, 12174, Control_c, 0, 67, 92
1, 12204, Control_c, 0, 64, 41
1, 12210, Note_on_c, 0, 66, 59
1, 12219, Control_c, 0, 64, 61
1, 12234, Control_c, 0, 64, 72
1, 12249, Control_c, 0, 64, 85
1, 12249, Control_c, 0, 67, 93
1, 12264, Control_c, 0, 64, 95
1, 12279, Control_c, 0, 64, 97
1, 12285, Note_off_c, 0, 66, 61
1, 12287, Note_on_c, 0, 70, 60
1, 12304, Note_on_c, 0, 73, 49
1, 12323, Control_c, 0, 64, 99
1, 12338, Control_c, 0, 64, 103
1, 12347, Note_off_c, 0, 70, 57
1, 12353, Control_c, 0, 64, 115
1, 12368, Control_c, 0, 64, 127
1, 12373, Note_on_c, 0, 77, 62
1, 12393, Note_off_c, 0, 73, 55
1, 12456, Note_on_c, 0, 66, 53
1, 12472, Control_c, 0, 67, 92
1, 12487, Control_c, 0, 67, 92
1, 12535, Note_off_c, 0, 66, 57
1, 12547, Note_on_c, 0, 73, 50
1, 12558, Note_on_c, 0, 70, 42
1, 12565, Note_off_c, 0, 77, 51
1, 12577, Note_on_c, 0, 58, 75
1, 12632, Note_off_c, 0, 70, 51
1, 12698, Note_off_c, 0, 73, 37
1, 12708, Note_on_c, 0, 54, 75
1, 12775, Note_on_c, 0, 66, 62
1, 12779, Note_off_c, 0, 58, 60
1, 12854, Note_off_c, 0, 66, 58
1, 12863, Note_on_c, 0, 70, 56
1, 12863, Note_off_c, 0, 61, 57
1, 12886, Note_on_c, 0, 73, 52
1, 12920, Note_off_c, 0, 70, 45
1, 12953, Note_on_c, 0, 77, 60
1, 12958, Note_off_c, 0, 73, 59
1, 13016, Note_on_c, 0, 66, 55
1, 13042, Control_c, 0, 67, 91
1, 13043, Note_on_c, 0, 53, 2
1, 13057, Control_c, 0, 67, 91
1, 13075, Note_off_c, 0, 77, 60
1, 13087, Note_off_c, 0, 53, 48
1, 13092, Note_on_c, 0, 73, 58
1, 13093, Note_on_c, 0, 70, 50
1, 13093, Note_off_c, 0, 66, 60
1, 13116, Note_off_c, 0, 70, 63
1, 13122, Note_off_c, 0, 73, 65
1, 13146, Control_c, 0, 67, 91
1, 13161, Control_c, 0, 67, 92
1, 13206, Control_c, 0, 67, 92
1, 13236, Control_c, 0, 67, 93
1, 13249, Note_off_c, 0, 54, 0
1, 13265, Note_on_c, 0, 54, 50
1, 13346, Note_on_c, 0, 58, 54
1, 13351, Note_off_c, 0, 54, 61
1, 13354, Control_c, 0, 67, 93
1, 13369, Control_c, 0, 67, 94
1, 13382, Note_on_c, 0, 61, 56
1, 13391, Note_off_c, 0, 58, 55
1, 13398, Control_c, 0, 67, 94
1, 13409, Note_on_c, 0, 53, 74
1, 13413, Control_c, 0, 67, 95
1, 13428, Control_c, 0, 64, 106
1, 13428, Control_c, 0, 67, 95
1, 13443, Control_c, 0, 64, 100
1, 13453, Note_off_c, 0, 61, 59
1, 13457, Control_c, 0, 67, 99
1, 13462, Note_on_c, 0, 54, 61
1, 13472, Control_c, 0, 64, 104
1, 13475, Note_on_c, 0, 65, 8
1, 13495, Control_c, 0, 64, 127
1, 13509, Control_c, 0, 67, 101
1, 13546, Note_on_c, 0, 58, 52
1, 13572, Note_off_c, 0, 54, 57
1, 13631, Note_off_c, 0, 58, 60
1, 13643, Control_c, 0, 67, 103
1, 13662, Note_on_c, 0, 61, 44
1, 13687, Control_c, 0, 67, 105
1, 13695, Note_on_c, 0, 52, 72
1, 13702, Control_c, 0, 64, 92
1, 13702, Control_c, 0, 67, 107
1, 13716, Note_off_c, 0, 61, 58
1, 13716, Control_c, 0, 64, 72
1, 13729, Note_on_c, 0, 54, 49
1, 13730, Note_off_c, 0, 53, 57
1, 13731, Control_c, 0, 64, 66
1, 13731, Control_c, 0, 67, 109
1, 13746, Control_c, 0, 64, 67
1, 13761, Control_c, 0, 64, 72
1, 13776, Control_c, 0, 64, 79
1, 13776, Control_c, 0, 67, 112
1, 13790, Control_c, 0, 64, 86
1, 13790, Control_c, 0, 67, 114
1, 13805, Control_c, 0, 64, 91
1, 13805, Control_c, 0, 67, 118
1, 13820, Control_c, 0, 64, 98
1, 13820, Control_c, 0, 67, 121
1, 13834, Note_on_c, 0, 58, 48
1, 13835, Control_c, 0, 64, 111
1, 13850, Control_c, 0, 64, 127
1, 13910, Note_off_c, 0, 65, 17
1, 13951, Note_on_c, 0, 61, 46
1, 13984, Control_c, 0, 67, 123
1, 13989, Note_off_c, 0, 58, 33
1, 14032, Note_off_c, 0, 54, 39
1, 14043, Control_c, 0, 64, 85
1, 14058, Control_c, 0, 64, 65
1, 14061, Note_on_c, 0, 51, 65
1, 14073, Control_c, 0, 64, 55
1, 14088, Control_c, 0, 64, 58
1, 14103, Control_c, 0, 64, 64
1, 14103, Control_c, 0, 67, 125
1, 14118, Control_c, 0, 64, 71
1, 14130, Note_off_c, 0, 52, 61
1, 14130, Note_off_c, 0, 61, 58
1, 14132, Control_c, 0, 64, 80
1, 14132, Control_c, 0, 67, 127
1, 14147, Control_c, 0, 64, 93
1, 14162, Control_c, 0, 64, 108
1, 14177, Control_c, 0, 64, 127
1, 14184, Note_off_c, 0, 51, 62
1, 14350, Note_on_c, 0, 54, 52
1, 14351, Note_on_c, 0, 61, 53
1, 14392, Control_c, 0, 64, 94
1, 14406, Control_c, 0, 64, 70
1, 14421, Control_c, 0, 64, 43
1, 14436, Control_c, 0, 64, 0
1, 14475, Note_on_c, 0, 49, 51
1, 14483, Note_on_c, 0, 42, 40
1, 14495, Control_c, 0, 64, 59
1, 14508, Note_off_c, 0, 54, 59
1, 14510, Control_c, 0, 64, 70
1, 14525, Control_c, 0, 64, 78
1, 14539, Control_c, 0, 64, 80
1, 14554, Control_c, 0, 64, 81
1, 14569, Control_c, 0, 64, 82
1, 14584, Control_c, 0, 64, 83
1, 14599, Control_c, 0, 64, 84
1, 14613, Control_c, 0, 64, 85
1, 14617, Note_on_c, 0, 34, 8
1, 14617, Note_off_c, 0, 49, 59
1, 14646, Note_off_c, 0, 42, 45
1, 14659, Control_c, 0, 64, 85
1, 14666, Note_off_c, 0, 34, 35
1, 14674, Control_c, 0, 64, 86
1, 14693, Note_on_c, 0, 53, 48
1, 14701, Note_on_c, 0, 65, 52
1, 14733, Note_off_c, 0, 53, 0
1, 14753, Note_off_c, 0, 61, 50
1, 14753, Note_on_c, 0, 53, 25
1, 14759, Note_on_c, 0, 49, 49
1, 14815, Note_off_c, 0, 53, 59
1, 14826, Note_off_c, 0, 65, 25
1, 14836, Note_off_c, 0, 49, 65
1, 14845, Note_on_c, 0, 42, 61
1, 14873, Note_off_c, 0, 42, 53
1, 14896, Control_c, 0, 64, 83
1, 14908, Note_on_c, 0, 54, 59
1, 14911, Control_c, 0, 64, 69
1, 14912, Note_on_c, 0, 60, 64
1, 14926, Control_c, 0, 64, 39
1, 14941, Control_c, 0, 64, 0
1, 14991, Note_on_c, 0, 48, 67
1, 14994, Note_off_c, 0, 54, 61
1, 14995, Note_on_c, 0, 42, 59
1, 15007, Control_c, 0, 64, 55
1, 15022, Control_c, 0, 64, 67
1, 15036, Control_c, 0, 64, 73
1, 15037, Note_off_c, 0, 48, 59
1, 15051, Control_c, 0, 64, 77
1, 15066, Control_c, 0, 64, 78
1, 15071, Note_off_c, 0, 42, 53
1, 15081, Control_c, 0, 64, 80
1, 15093, Note_on_c, 0, 34, 69
1, 15096, Control_c, 0, 64, 85
1, 15111, Control_c, 0, 64, 89
1, 15126, Control_c, 0, 64, 94
1, 15127, Note_off_c, 0, 34, 65
1, 15140, Control_c, 0, 64, 99
1, 15145, Note_on_c, 0, 53, 66
1, 15151, Note_on_c, 0, 65, 72
1, 15155, Control_c, 0, 64, 105
1, 15170, Control_c, 0, 64, 113
1, 15184, Note_off_c, 0, 53, 0
1, 15185, Control_c, 0, 64, 127
1, 15213, Note_on_c, 0, 48, 65
1, 15221, Poly_aftertouch_c, 0, 53, 127
1, 15229, Note_off_c, 0, 60, 58
1, 15242, Poly_aftertouch_c, 0, 53, 0
1, 15244, Control_c, 0, 64, 99
1, 15246, Note_off_c, 0, 65, 58
1, 15259, Control_c, 0, 64, 69
1, 15274, Control_c, 0, 64, 0
1, 15283, Note_off_c, 0, 48, 63
1, 15289, Note_on_c, 0, 42, 79
1, 15318, Note_off_c, 0, 42, 68
1, 15340, Note_on_c, 0, 54, 81
1, 15346, Note_on_c, 0, 58, 75
1, 15392, Control_c, 0, 64, 35
1, 15406, Note_on_c, 0, 46, 76
1, 15407, Control_c, 0, 64, 77
1, 15419, Note_off_c, 0, 54, 57
1, 15421, Note_on_c, 0, 42, 71
1, 15422, Control_c, 0, 64, 127
1, 15470, Note_off_c, 0, 46, 59
1, 15482, Control_c, 0, 67, 121
1, 15492, Note_off_c, 0, 58, 58
1, 15497, Control_c, 0, 67, 112
1, 15498, Note_off_c, 0, 42, 54
1, 15511, Control_c, 0, 67, 98
1, 15526, Control_c, 0, 67, 78
1, 15528, Note_on_c, 0, 32, 52
1, 15542, Control_c, 0, 67, 52
1, 15557, Control_c, 0, 67, 0
1, 15558, Note_on_c, 0, 53, 78
1, 15560, Note_on_c, 0, 58, 71
1, 15560, Note_off_c, 0, 32, 54
1, 15563, Note_on_c, 0, 65, 83
1, 15582, Note_off_c, 0, 53, 69
1, 15597, Note_off_c, 0, 58, 61
1, 15620, Note_on_c, 0, 53, 72
1, 15623, Note_on_c, 0, 46, 82
1, 15646, Note_off_c, 0, 53, 68
1, 15677, Note_off_c, 0, 46, 63
1, 15697, Note_off_c, 0, 65, 55
1, 15716, Note_on_c, 0, 42, 77
1, 15719, Control_c, 0, 64, 64
1, 15737, Note_on_c, 0, 41, 70
1, 15742, Note_off_c, 0, 42, 65
1, 15742, Control_c, 0, 64, 0
1, 15752, Note_on_c, 0, 57, 86
1, 15755, Note_on_c, 0, 54, 88
1, 15757, Note_off_c, 0, 41, 62
1, 15801, Control_c, 0, 64, 64
1, 15816, Control_c, 0, 64, 127
1, 15831, Note_on_c, 0, 45, 89
1, 15846, Note_off_c, 0, 54, 61
1, 15857, Note_on_c, 0, 41, 46
1, 15875, Note_off_c, 0, 45, 62
1, 15883, Poly_aftertouch_c, 0, 42, 127
1, 15888, Note_off_c, 0, 41, 62
1, 15924, Poly_aftertouch_c, 0, 42, 0
1, 15965, Note_on_c, 0, 65, 95
1, 15966, Note_on_c, 0, 53, 90
1, 15982, Note_off_c, 0, 57, 63
1, 15993, Note_off_c, 0, 53, 66
1, 16002, Note_off_c, 0, 65, 59
1, 16050, Poly_aftertouch_c, 0, 37, 127
1, 16053, Note_on_c, 0, 45, 80
1, 16056, Note_on_c, 0, 52, 77
1, 16081, Poly_aftertouch_c, 0, 37, 0
1, 16114, Note_off_c, 0, 52, 60
1, 16160, Note_on_c, 0, 42, 85
1, 16166, Note_off_c, 0, 45, 63
1, 16198, Note_off_c, 0, 42, 63
1, 16244, Note_on_c, 0, 44, 110
1, 16244, Note_on_c, 0, 56, 104
1, 16321, Control_c, 0, 64, 62
1, 16335, Control_c, 0, 64, 0
1, 16350, Control_c, 0, 67, 65
1, 16365, Control_c, 0, 67, 96
1, 16366, Note_on_c, 0, 34, 109
1, 16368, Note_on_c, 0, 22, 99
1, 16380, Control_c, 0, 64, 36
1, 16380, Control_c, 0, 67, 90
1, 16394, Note_off_c, 0, 22, 66
1, 16395, Control_c, 0, 64, 72
1, 16395, Control_c, 0, 67, 93
1, 16404, Note_off_c, 0, 34, 60
1, 16409, Control_c, 0, 64, 127
1, 16409, Control_c, 0, 67, 95
1, 16424, Control_c, 0, 67, 101
1, 16439, Control_c, 0, 67, 107
1, 16453, Control_c, 0, 67, 109
1, 16488, Note_off_c, 0, 44, 62
1, 16494, Note_off_c, 0, 56, 60
1, 16506, Control_c, 0, 67, 106
1, 16595, Control_c, 0, 67, 102
1, 16624, Control_c, 0, 67, 100
1, 16635, Note_on_c, 0, 61, 71
1, 16645, Note_on_c, 0, 53, 64
1, 16650, Note_on_c, 0, 58, 60
1, 16655, Note_on_c, 0, 56, 61
1, 16662, Note_on_c, 0, 65, 55
1, 16668, Control_c, 0, 67, 98
1, 16669, Note_on_c, 0, 64, 42
1, 16678, Note_off_c, 0, 53, 62
1, 16685, Note_off_c, 0, 56, 62
1, 16685, Note_off_c, 0, 58, 64
1, 16686, Note_off_c, 0, 65, 59
1, 16692, Note_off_c, 0, 61, 60
1, 16696, Note_off_c, 0, 64, 53
1, 16727, Control_c, 0, 67, 96
1, 16736, Note_on_c, 0, 62, 78
1, 16742, Note_on_c, 0, 58, 80
1, 16742, Control_c, 0, 67, 95
1, 16745, Note_on_c, 0, 65, 87
1, 16750, Note_on_c, 0, 53, 66
1, 16751, Note_on_c, 0, 56, 79
1, 16757, Control_c, 0, 67, 94
1, 16772, Control_c, 0, 67, 90
1, 16787, Control_c, 0, 67, 83
1, 16801, Control_c, 0, 67, 66
1, 16804, Note_off_c, 0, 53, 58
1, 16804, Note_off_c, 0, 65, 59
1, 16815, Note_off_c, 0, 56, 60
1, 16816, Note_off_c, 0, 58, 61
1, 16816, Control_c, 0, 67, 39
1, 16831, Control_c, 0, 67, 0
1, 16856, Note_off_c, 0, 62, 32
1, 16922, Note_on_c, 0, 62, 74
1, 16923, Note_on_c, 0, 53, 76
1, 16923, Note_on_c, 0, 65, 94
1, 16929, Note_on_c, 0, 58, 82
1, 16933, Note_on_c, 0, 56, 74
1, 17006, Note_on_c, 0, 77, 104
1, 17007, Note_on_c, 0, 82, 106
1, 17008, Note_on_c, 0, 89, 111
1, 17015, Note_off_c, 0, 53, 60
1, 17018, Note_off_c, 0, 65, 61
1, 17040, Note_off_c, 0, 56, 58
1, 17064, Note_off_c, 0, 62, 50
1, 17065, Note_off_c, 0, 58, 48
1, 17084, Note_off_c, 0, 77, 58
1, 17106, Note_off_c, 0, 89, 60
1, 17121, Note_off_c, 0, 82, 60
1, 17141, Note_on_c, 0, 65, 97
1, 17143, Note_on_c, 0, 53, 84
1, 17145, Note_on_c, 0, 62, 89
1, 17147, Note_on_c, 0, 58, 87
1, 17150, Note_on_c, 0, 56, 83
1, 17170, Note_on_c, 0, 86, 110
1, 17173, Note_on_c, 0, 74, 104
1, 17179, Note_on_c, 0, 82, 98
1, 17219, Note_off_c, 0, 53, 58
1, 17230, Note_off_c, 0, 65, 61
1, 17233, Note_off_c, 0, 58, 62
1, 17234, Note_off_c, 0, 56, 60
1, 17251, Note_off_c, 0, 62, 57
1, 17302, Note_on_c, 0, 65, 84
1, 17311, Note_on_c, 0, 62, 46
1, 17317, Note_on_c, 0, 53, 63
1, 17317, Note_on_c, 0, 58, 53
1, 17318, Note_on_c, 0, 56, 58
1, 17352, Note_off_c, 0, 53, 55
1, 17355, Note_off_c, 0, 56, 54
1, 17373, Note_off_c, 0, 65, 59
1, 17376, Note_off_c, 0, 58, 60
1, 17387, Note_off_c, 0, 86, 54
1, 17393, Note_off_c, 0, 62, 59
1, 17441, Note_off_c, 0, 82, 57
1, 17464, Note_off_c, 0, 74, 52
1, 17612, Note_on_c, 0, 65, 67
1, 17616, Note_on_c, 0, 53, 47
1, 17618, Note_on_c, 0, 58, 56
1, 17623, Note_on_c, 0, 62, 57
1, 17641, Note_on_c, 0, 56, 43
1, 17706, Note_on_c, 0, 77, 72
1, 17707, Note_off_c, 0, 65, 57
1, 17719, Note_on_c, 0, 74, 56
1, 17777, Note_off_c, 0, 77, 63
1, 17785, Note_off_c, 0, 74, 61
1, 17795, Note_on_c, 0, 65, 65
1, 17829, Note_off_c, 0, 65, 63
1, 17856, Note_on_c, 0, 70, 75
1, 17868, Note_on_c, 0, 74, 70
1, 17901, Note_off_c, 0, 70, 62
1, 17935, Note_on_c, 0, 77, 84
1, 17949, Note_off_c, 0, 74, 63
1, 17984, Note_off_c, 0, 58, 62
1, 18011, Note_on_c, 0, 65, 79
1, 18036, Note_off_c, 0, 62, 62
1, 18041, Note_off_c, 0, 53, 54
1, 18052, Note_on_c, 0, 74, 85
1, 18052, Note_on_c, 0, 70, 88
1, 18052, Note_off_c, 0, 77, 62
1, 18063, Note_off_c, 0, 56, 47
1, 18063, Note_off_c, 0, 65, 63
1, 18092, Note_off_c, 0, 74, 66
1, 18093, Note_off_c, 0, 70, 67
1, 18122, Note_on_c, 0, 65, 96
1, 18254, Note_on_c, 0, 70, 60
1, 18255, Note_on_c, 0, 74, 67
1, 18277, Note_off_c, 0, 70, 66
1, 18321, Note_off_c, 0, 65, 68
1, 18327, Note_on_c, 0, 64, 90
1, 18342, Note_off_c, 0, 74, 46
1, 18354, Note_on_c, 0, 77, 72
1, 18361, Note_on_c, 0, 65, 29
1, 18401, Note_off_c, 0, 65, 0
1, 18413, Note_on_c, 0, 65, 66
1, 18413, Note_off_c, 0, 77, 64
1, 18467, Note_off_c, 0, 65, 58
1, 18497, Note_on_c, 0, 70, 86
1, 18500, Note_on_c, 0, 74, 83
1, 18524, Note_off_c, 0, 70, 63
1, 18526, Note_on_c, 0, 63, 95
1, 18531, Note_off_c, 0, 74, 64
1, 18533, Note_off_c, 0, 64, 62
1, 18612, Note_on_c, 0, 65, 88
1, 18672, Note_off_c, 0, 65, 59
1, 18680, Note_on_c, 0, 70, 83
1, 18681, Note_on_c, 0, 74, 88
1, 18735, Note_off_c, 0, 70, 64
1, 18801, Note_on_c, 0, 62, 93
1, 18808, Note_off_c, 0, 63, 65
1, 18811, Control_c, 0, 64, 73
1, 18826, Control_c, 0, 64, 0
1, 18858, Note_on_c, 0, 77, 76
1, 18884, Note_off_c, 0, 74, 24
1, 18900, Control_c, 0, 64, 64
1, 18915, Control_c, 0, 64, 90
1, 18929, Control_c, 0, 64, 127
1, 18955, Note_on_c, 0, 65, 66
1, 18985, Note_off_c, 0, 77, 58
1, 19010, Note_off_c, 0, 65, 59
1, 19039, Note_on_c, 0, 74, 67
1, 19041, Note_on_c, 0, 70, 65
1, 19068, Note_off_c, 0, 70, 69
1, 19084, Note_off_c, 0, 74, 58
1, 19229, Note_on_c, 0, 65, 76
1, 19282, Note_off_c, 0, 65, 58
1, 19296, Note_on_c, 0, 58, 86
1, 19355, Note_on_c, 0, 74, 74
1, 19363, Note_on_c, 0, 70, 68
1, 19369, Note_off_c, 0, 62, 54
1, 19394, Note_off_c, 0, 70, 63
1, 19430, Note_off_c, 0, 74, 60
1, 19445, Note_on_c, 0, 53, 80
1, 19457, Note_off_c, 0, 58, 64
1, 19491, Note_on_c, 0, 77, 78
1, 19496, Note_off_c, 0, 53, 64
1, 19580, Note_on_c, 0, 65, 89
1, 19614, Note_off_c, 0, 77, 57
1, 19659, Note_on_c, 0, 70, 82
1, 19662, Note_on_c, 0, 74, 84
1, 19677, Note_off_c, 0, 65, 64
1, 19722, Note_off_c, 0, 70, 63
1, 19735, Note_off_c, 0, 74, 63
1, 19746, Note_on_c, 0, 34, 88
1, 19752, Note_on_c, 0, 41, 81
1, 19767, Control_c, 0, 64, 108
1, 19782, Control_c, 0, 64, 69
1, 19786, Note_on_c, 0, 40, 30
1, 19786, Note_off_c, 0, 40, 127
1, 19797, Control_c, 0, 64, 60
1, 19812, Control_c, 0, 64, 65
1, 19826, Control_c, 0, 64, 77
1, 19841, Control_c, 0, 64, 127
1, 19892, Note_off_c, 0, 34, 61
1, 19901, Control_c, 0, 67, 19
1, 19913, Note_on_c, 0, 46, 100
1, 19926, Note_off_c, 0, 41, 61
1, 19961, Note_off_c, 0, 46, 65
1, 20049, Control_c, 0, 67, 0
1, 20072, Note_on_c, 0, 50, 86
1, 20087, Poly_aftertouch_c, 0, 74, 0
1, 20118, Poly_aftertouch_c, 0, 74, 0
1, 20146, Note_on_c, 0, 71, 100
1, 20146, Note_on_c, 0, 83, 95
1, 20148, Note_on_c, 0, 80, 94
1, 20154, Note_on_c, 0, 74, 73
1, 20330, Note_off_c, 0, 83, 62
1, 20387, Note_on_c, 0, 53, 59
1, 20410, Note_off_c, 0, 50, 60
1, 20417, Note_off_c, 0, 71, 61
1, 20462, Note_off_c, 0, 74, 50
1, 20499, Note_on_c, 0, 56, 76
1, 20514, Note_off_c, 0, 53, 62
1, 20584, Note_off_c, 0, 56, 61
1, 20604, Note_on_c, 0, 62, 81
1, 20703, Note_off_c, 0, 62, 61
1, 20712, Note_on_c, 0, 82, 96
1, 20714, Note_on_c, 0, 70, 96
1, 20716, Note_on_c, 0, 78, 82
1, 20720, Note_on_c, 0, 74, 82
1, 20798, Note_off_c, 0, 80, 60
1, 20819, Note_off_c, 0, 70, 61
1, 20821, Note_on_c, 0, 65, 83
1, 20825, Note_on_c, 0, 64, 76
1, 20841, Note_off_c, 0, 82, 60
1, 20858, Note_off_c, 0, 78, 56
1, 20881, Note_off_c, 0, 64, 44
1, 20927, Note_off_c, 0, 74, 37
1, 20949, Note_on_c, 0, 62, 82
1, 20949, Note_on_c, 0, 71, 92
1, 20961, Control_c, 0, 67, 19
1, 20962, Note_on_c, 0, 68, 98
1, 20962, Note_on_c, 0, 80, 96
1, 20963, Note_on_c, 0, 77, 81
1, 20978, Note_on_c, 0, 74, 61
1, 20983, Control_c, 0, 64, 76
1, 20983, Control_c, 0, 67, 0
1, 20998, Control_c, 0, 64, 36
1, 21013, Control_c, 0, 64, 0
1, 21058, Control_c, 0, 64, 58
1, 21058, Control_c, 0, 67, 19
1, 21065, Note_off_c, 0, 68, 60
1, 21073, Control_c, 0, 64, 80
1, 21088, Control_c, 0, 64, 127
1, 21108, Note_on_c, 0, 70, 86
1, 21113, Note_off_c, 0, 74, 61
1, 21129, Note_off_c, 0, 71, 57
1, 21132, Control_c, 0, 67, 21
1, 21136, Note_off_c, 0, 80, 41
1, 21151, Note_off_c, 0, 65, 60
1, 21192, Note_off_c, 0, 62, 61
1, 21194, Note_off_c, 0, 77, 36
1, 21208, Note_off_c, 0, 70, 61
1, 21385, Note_on_c, 0, 69, 88
1, 21389, Note_on_c, 0, 61, 83
1, 21408, Note_on_c, 0, 68, 96
1, 21409, Note_on_c, 0, 77, 83
1, 21409, Note_on_c, 0, 80, 97
1, 21414, Note_on_c, 0, 73, 83
1, 21414, Control_c, 0, 64, 65
1, 21429, Control_c, 0, 64, 0
1, 21561, Control_c, 0, 64, 53
1, 21576, Control_c, 0, 64, 66
1, 21591, Control_c, 0, 64, 75
1, 21597, Note_off_c, 0, 69, 52
1, 21606, Control_c, 0, 64, 85
1, 21606, Control_c, 0, 67, 23
1, 21621, Control_c, 0, 64, 99
1, 21636, Control_c, 0, 64, 127
1, 21695, Note_off_c, 0, 61, 58
1, 21695, Control_c, 0, 67, 26
1, 21710, Control_c, 0, 67, 29
1, 21731, Control_c, 0, 67, 32
1, 21746, Control_c, 0, 67, 32
1, 21761, Control_c, 0, 67, 32
1, 21806, Control_c, 0, 67, 33
1, 21821, Control_c, 0, 67, 34
1, 21851, Control_c, 0, 67, 33
1, 21866, Control_c, 0, 67, 33
1, 21895, Control_c, 0, 67, 33
1, 21910, Control_c, 0, 67, 34
1, 21931, Note_on_c, 0, 42, 54
1, 21985, Control_c, 0, 67, 34
1, 22014, Control_c, 0, 67, 35
1, 22029, Control_c, 0, 67, 35
1, 22054, Note_off_c, 0, 42, 58
1, 22074, Note_on_c, 0, 49, 51
1, 22088, Control_c, 0, 67, 36
1, 22118, Control_c, 0, 67, 36
1, 22122, Note_off_c, 0, 49, 60
1, 22193, Note_on_c, 0, 57, 45
1, 22247, Note_off_c, 0, 57, 63
1, 22298, Note_on_c, 0, 61, 58
1, 22339, Note_off_c, 0, 80, 57
1, 22339, Control_c, 0, 67, 36
1, 22374, Note_off_c, 0, 73, 54
1, 22376, Note_off_c, 0, 61, 60
1, 22382, Note_off_c, 0, 68, 58
1, 22395, Note_off_c, 0, 77, 59
1, 22399, Control_c, 0, 67, 35
1, 22440, Note_on_c, 0, 69, 53
1, 22470, Note_off_c, 0, 69, 58
1, 22497, Note_on_c, 0, 78, 86
1, 22508, Note_on_c, 0, 73, 75
1, 22510, Control_c, 0, 67, 35
1, 22569, Control_c, 0, 67, 35
1, 22638, Note_on_c, 0, 66, 67
1, 22644, Note_off_c, 0, 73, 61
1, 22674, Control_c, 0, 67, 34
1, 22689, Control_c, 0, 67, 33
1, 22748, Control_c, 0, 67, 32
1, 22761, Note_off_c, 0, 66, 54
1, 22792, Control_c, 0, 67, 33
1, 22807, Control_c, 0, 67, 33
1, 22811, Note_off_c, 0, 78, 60
1, 22838, Note_on_c, 0, 77, 73
1, 22856, Note_on_c, 0, 73, 72
1, 22867, Control_c, 0, 67, 34
1, 22882, Control_c, 0, 64, 68
1, 22896, Control_c, 0, 64, 0
1, 22941, Control_c, 0, 67, 35
1, 22956, Control_c, 0, 67, 36
1, 22970, Control_c, 0, 64, 41
1, 22970, Control_c, 0, 67, 38
1, 22985, Control_c, 0, 64, 53
1, 22985, Control_c, 0, 67, 43
1, 23000, Control_c, 0, 64, 56
1, 23000, Control_c, 0, 67, 44
1, 23014, Control_c, 0, 64, 59
1, 23014, Control_c, 0, 67, 44
1, 23029, Control_c, 0, 64, 64
1, 23029, Control_c, 0, 67, 45
1, 23032, Note_on_c, 0, 65, 53
1, 23044, Control_c, 0, 64, 70
1, 23044, Control_c, 0, 67, 49
1, 23059, Control_c, 0, 64, 78
1, 23059, Control_c, 0, 67, 56
1, 23074, Control_c, 0, 64, 83
1, 23074, Control_c, 0, 67, 63
1, 23088, Control_c, 0, 64, 85
1, 23088, Control_c, 0, 67, 65
1, 23103, Control_c, 0, 64, 88
1, 23103, Control_c, 0, 67, 66
1, 23118, Control_c, 0, 64, 95
1, 23118, Control_c, 0, 67, 67
1, 23133, Control_c, 0, 64, 109
1, 23133, Control_c, 0, 67, 73
1, 23147, Control_c, 0, 64, 127
1, 23147, Control_c, 0, 67, 84
1, 23162, Control_c, 0, 67, 93
1, 23177, Control_c, 0, 67, 99
1, 23192, Control_c, 0, 67, 104
1, 23207, Control_c, 0, 67, 109
1, 23222, Note_on_c, 0, 43, 43
1, 23229, Control_c, 0, 67, 116
1, 23244, Control_c, 0, 67, 124
1, 23259, Control_c, 0, 67, 127
1, 23298, Note_off_c, 0, 65, 37
1, 23344, Note_off_c, 0, 73, 42
1, 23346, Note_off_c, 0, 43, 60
1, 23382, Note_on_c, 0, 53, 43
1, 23440, Note_off_c, 0, 53, 62
1, 23514, Note_on_c, 0, 61, 61
1, 23566, Note_off_c, 0, 77, 62
1, 23582, Note_on_c, 0, 76, 72
1, 23586, Note_on_c, 0, 73, 61
1, 23600, Control_c, 0, 64, 96
1, 23615, Control_c, 0, 64, 86
1, 23645, Control_c, 0, 64, 88
1, 23660, Control_c, 0, 64, 96
1, 23675, Control_c, 0, 64, 109
1, 23690, Control_c, 0, 64, 122
1, 23705, Control_c, 0, 64, 127
1, 23743, Note_on_c, 0, 60, 49
1, 23754, Note_on_c, 0, 64, 50
1, 23784, Note_off_c, 0, 64, 59
1, 23794, Note_off_c, 0, 61, 37
1, 23898, Note_on_c, 0, 53, 56
1, 23899, Note_off_c, 0, 60, 47
1, 23904, Note_on_c, 0, 63, 57
1, 23934, Note_off_c, 0, 53, 64
1, 24060, Note_off_c, 0, 76, 62
1, 24073, Note_off_c, 0, 73, 48
1, 24078, Note_on_c, 0, 45, 67
1, 24082, Note_on_c, 0, 75, 72
1, 24083, Note_on_c, 0, 72, 65
1, 24159, Note_off_c, 0, 72, 60
1, 24187, Note_off_c, 0, 75, 62
1, 24346, Note_off_c, 0, 45, 58
1, 24365, Note_on_c, 0, 46, 53
1, 24423, Control_c, 0, 64, 80
1, 24427, Note_on_c, 0, 75, 58
1, 24430, Note_on_c, 0, 72, 53
1, 24438, Control_c, 0, 64, 57
1, 24451, Note_off_c, 0, 63, 43
1, 24453, Control_c, 0, 64, 0
1, 24482, Note_off_c, 0, 46, 63
1, 24497, Control_c, 0, 64, 52
1, 24512, Control_c, 0, 64, 70
1, 24527, Control_c, 0, 64, 91
1, 24541, Control_c, 0, 64, 127
1, 24642, Note_off_c, 0, 75, 38
1, 24720, Note_on_c, 0, 54, 31
1, 24742, Note_on_c, 0, 63, 40
1, 24822, Note_off_c, 0, 63, 57
1, 24845, Note_off_c, 0, 72, 34
1, 24900, Note_on_c, 0, 74, 56
1, 24906, Note_off_c, 0, 54, 46
1, 24907, Note_on_c, 0, 66, 42
1, 24914, Note_on_c, 0, 70, 53
1, 24947, Note_off_c, 0, 66, 62
1, 25047, Note_on_c, 0, 62, 50
1, 25070, Note_on_c, 0, 54, 15
1, 25173, Note_off_c, 0, 54, 29
1, 25186, Note_on_c, 0, 45, 54
1, 25238, Note_off_c, 0, 62, 59
1, 25243, Note_off_c, 0, 74, 57
1, 25246, Control_c, 0, 64, 79
1, 25261, Control_c, 0, 64, 59
1, 25261, Note_on_c, 0, 66, 56
1, 25276, Control_c, 0, 64, 0
1, 25326, Note_off_c, 0, 45, 42
1, 25335, Control_c, 0, 64, 55
1, 25349, Control_c, 0, 64, 67
1, 25364, Control_c, 0, 64, 72
1, 25379, Control_c, 0, 64, 74
1, 25394, Control_c, 0, 64, 76
1, 25408, Control_c, 0, 64, 78
1, 25415, Note_on_c, 0, 53, 27
1, 25423, Control_c, 0, 64, 83
1, 25434, Note_on_c, 0, 63, 57
1, 25438, Control_c, 0, 64, 89
1, 25453, Control_c, 0, 64, 102
1, 25475, Control_c, 0, 64, 127
1, 25549, Note_off_c, 0, 53, 41
1, 25568, Note_on_c, 0, 75, 75
1, 25583, Note_on_c, 0, 65, 55
1, 25592, Note_off_c, 0, 63, 27
1, 25602, Note_on_c, 0, 72, 60
1, 25623, Note_off_c, 0, 65, 59
1, 25693, Note_off_c, 0, 66, 40
1, 25693, Note_off_c, 0, 70, 41
1, 25697, Note_on_c, 0, 53, 46
1, 25699, Note_on_c, 0, 63, 71
1, 25715, Note_off_c, 0, 75, 57
1, 25716, Note_off_c, 0, 72, 56
1, 25777, Note_off_c, 0, 53, 59
1, 25804, Note_off_c, 0, 63, 57
1, 25807, Note_on_c, 0, 46, 61
1, 25815, Control_c, 0, 64, 93
1, 25830, Control_c, 0, 64, 64
1, 25834, Note_on_c, 0, 75, 67
1, 25846, Control_c, 0, 64, 0
1, 25856, Note_on_c, 0, 71, 59
1, 25891, Control_c, 0, 64, 41
1, 25902, Note_off_c, 0, 46, 64
1, 25906, Control_c, 0, 64, 62
1, 25920, Control_c, 0, 64, 74
1, 25935, Control_c, 0, 64, 88
1, 25950, Control_c, 0, 64, 100
1, 25964, Note_off_c, 0, 75, 58
1, 25979, Control_c, 0, 64, 105
1, 25981, Note_on_c, 0, 54, 53
1, 25984, Note_on_c, 0, 63, 47
1, 25994, Control_c, 0, 64, 115
1, 26009, Control_c, 0, 64, 127
1, 26018, Note_off_c, 0, 63, 65
1, 26023, Note_off_c, 0, 71, 53
1, 26069, Note_off_c, 0, 54, 29
1, 26105, Note_on_c, 0, 66, 66
1, 26107, Note_on_c, 0, 74, 70
1, 26119, Note_on_c, 0, 70, 58
1, 26152, Note_off_c, 0, 66, 58
1, 26232, Note_on_c, 0, 54, 52
1, 26244, Note_on_c, 0, 62, 56
1, 26332, Note_off_c, 0, 62, 53
1, 26339, Note_off_c, 0, 54, 51
1, 26352, Note_on_c, 0, 44, 59
1, 26358, Control_c, 0, 64, 97
1, 26369, Note_on_c, 0, 66, 68
1, 26372, Control_c, 0, 64, 64
1, 26387, Control_c, 0, 64, 0
1, 26415, Note_off_c, 0, 70, 35
1, 26427, Note_off_c, 0, 44, 57
1, 26432, Control_c, 0, 64, 52
1, 26435, Note_off_c, 0, 74, 22
1, 26447, Control_c, 0, 64, 70
1, 26462, Control_c, 0, 64, 80
1, 26468, Note_on_c, 0, 53, 59
1, 26477, Control_c, 0, 64, 88
1, 26487, Note_off_c, 0, 66, 60
1, 26491, Control_c, 0, 64, 91
1, 26506, Control_c, 0, 64, 95
1, 26507, Note_on_c, 0, 62, 65
1, 26521, Control_c, 0, 64, 106
1, 26536, Control_c, 0, 64, 127
1, 26576, Note_off_c, 0, 53, 60
1, 26587, Note_off_c, 0, 62, 56
1, 26618, Note_on_c, 0, 65, 72
1, 26627, Note_on_c, 0, 74, 80
1, 26632, Note_on_c, 0, 71, 78
1, 26687, Note_off_c, 0, 65, 62
1, 26733, Note_off_c, 0, 71, 63
1, 26742, Note_on_c, 0, 62, 70
1, 26763, Note_off_c, 0, 74, 58
1, 26766, Note_on_c, 0, 53, 60
1, 26895, Note_on_c, 0, 45, 64
1, 26908, Note_off_c, 0, 53, 36
1, 26920, Note_off_c, 0, 62, 59
1, 26936, Control_c, 0, 64, 101
1, 26944, Note_on_c, 0, 70, 75
1, 26945, Note_on_c, 0, 74, 79
1, 26951, Control_c, 0, 64, 62
1, 26974, Control_c, 0, 64, 0
1, 27018, Control_c, 0, 64, 47
1, 27033, Control_c, 0, 64, 65
1, 27043, Note_off_c, 0, 45, 44
1, 27048, Control_c, 0, 64, 79
1, 27062, Control_c, 0, 64, 89
1, 27077, Control_c, 0, 64, 92
1, 27092, Control_c, 0, 64, 93
1, 27094, Note_off_c, 0, 74, 60
1, 27107, Control_c, 0, 64, 95
1, 27121, Control_c, 0, 64, 98
1, 27135, Note_on_c, 0, 53, 45
1, 27136, Control_c, 0, 64, 101
1, 27142, Note_on_c, 0, 62, 51
1, 27151, Control_c, 0, 64, 106
1, 27166, Control_c, 0, 64, 119
1, 27177, Note_off_c, 0, 62, 57
1, 27181, Control_c, 0, 64, 127
1, 27264, Note_off_c, 0, 53, 37
1, 27291, Note_on_c, 0, 73, 71
1, 27300, Note_on_c, 0, 69, 57
1, 27304, Note_on_c, 0, 65, 58
1, 27326, Note_off_c, 0, 70, 38
1, 27350, Note_off_c, 0, 65, 61
1, 27413, Note_on_c, 0, 61, 56
1, 27425, Note_on_c, 0, 53, 45
1, 27457, Note_off_c, 0, 53, 55
1, 27508, Note_off_c, 0, 61, 56
1, 27523, Control_c, 0, 64, 90
1, 27526, Note_on_c, 0, 44, 68
1, 27537, Control_c, 0, 64, 57
1, 27538, Note_off_c, 0, 69, 50
1, 27543, Note_on_c, 0, 65, 69
1, 27552, Control_c, 0, 64, 0
1, 27597, Control_c, 0, 64, 59
1, 27598, Note_off_c, 0, 73, 57
1, 27610, Note_off_c, 0, 44, 62
1, 27611, Control_c, 0, 64, 71
1, 27626, Control_c, 0, 64, 81
1, 27641, Control_c, 0, 64, 88
1, 27656, Control_c, 0, 64, 90
1, 27671, Control_c, 0, 64, 94
1, 27678, Note_on_c, 0, 62, 54
1, 27681, Note_on_c, 0, 52, 50
1, 27685, Control_c, 0, 64, 100
1, 27687, Note_off_c, 0, 65, 62
1, 27700, Control_c, 0, 64, 108
1, 27723, Control_c, 0, 64, 127
1, 27787, Note_off_c, 0, 62, 56
1, 27810, Note_off_c, 0, 52, 60
1, 27815, Note_on_c, 0, 74, 74
1, 27824, Note_on_c, 0, 70, 68
1, 27830, Note_on_c, 0, 64, 60
1, 27881, Note_off_c, 0, 64, 55
1, 27931, Note_off_c, 0, 70, 58
1, 27938, Note_off_c, 0, 74, 60
1, 27961, Note_on_c, 0, 62, 55
1, 27962, Note_on_c, 0, 52, 57
1, 28114, Note_on_c, 0, 45, 57
1, 28119, Note_off_c, 0, 52, 33
1, 28122, Control_c, 0, 64, 83
1, 28131, Note_off_c, 0, 62, 34
1, 28137, Control_c, 0, 64, 53
1, 28140, Note_on_c, 0, 74, 70
1, 28143, Note_on_c, 0, 70, 61
1, 28152, Control_c, 0, 64, 0
1, 28197, Control_c, 0, 64, 55
1, 28211, Control_c, 0, 64, 68
1, 28226, Control_c, 0, 64, 77
1, 28242, Control_c, 0, 64, 83
1, 28263, Note_off_c, 0, 74, 61
1, 28269, Note_off_c, 0, 45, 36
1, 28271, Control_c, 0, 64, 83
1, 28286, Control_c, 0, 64, 84
1, 28301, Control_c, 0, 64, 85
1, 28316, Control_c, 0, 64, 87
1, 28324, Note_on_c, 0, 62, 48
1, 28331, Control_c, 0, 64, 89
1, 28334, Note_on_c, 0, 52, 45
1, 28346, Control_c, 0, 64, 93
1, 28360, Control_c, 0, 64, 100
1, 28367, Note_off_c, 0, 62, 59
1, 28375, Control_c, 0, 64, 115
1, 28390, Control_c, 0, 64, 127
1, 28509, Note_off_c, 0, 52, 54
1, 28515, Note_on_c, 0, 64, 54
1, 28545, Note_on_c, 0, 69, 62
1, 28552, Note_on_c, 0, 73, 57
1, 28575, Control_c, 0, 64, 86
1, 28590, Control_c, 0, 64, 67
1, 28597, Note_off_c, 0, 70, 29
1, 28605, Control_c, 0, 64, 60
1, 28620, Control_c, 0, 64, 61
1, 28634, Control_c, 0, 64, 66
1, 28649, Control_c, 0, 64, 71
1, 28664, Control_c, 0, 64, 76
1, 28670, Note_off_c, 0, 64, 58
1, 28679, Control_c, 0, 64, 79
1, 28693, Control_c, 0, 64, 81
1, 28700, Note_off_c, 0, 69, 61
1, 28708, Control_c, 0, 64, 86
1, 28709, Note_on_c, 0, 61, 58
1, 28718, Note_on_c, 0, 52, 37
1, 28723, Control_c, 0, 64, 92
1, 28738, Control_c, 0, 64, 100
1, 28751, Note_off_c, 0, 52, 52
1, 28753, Control_c, 0, 64, 104
1, 28767, Control_c, 0, 64, 106
1, 28797, Control_c, 0, 64, 112
1, 28812, Control_c, 0, 64, 122
1, 28827, Control_c, 0, 64, 127
1, 28909, Note_on_c, 0, 42, 46
1, 28930, Control_c, 0, 64, 86
1, 28934, Note_on_c, 0, 64, 55
1, 28945, Control_c, 0, 64, 65
1, 28952, Note_off_c, 0, 61, 44
1, 28960, Control_c, 0, 64, 40
1, 28975, Control_c, 0, 64, 0
1, 29005, Control_c, 0, 64, 38
1, 29020, Control_c, 0, 64, 59
1, 29035, Control_c, 0, 64, 70
1, 29050, Control_c, 0, 64, 76
1, 29064, Control_c, 0, 64, 78
1, 29094, Control_c, 0, 64, 78
1, 29109, Control_c, 0, 64, 79
1, 29119, Note_off_c, 0, 42, 42
1, 29124, Control_c, 0, 64, 80
1, 29139, Control_c, 0, 64, 81
1, 29154, Control_c, 0, 64, 82
1, 29160, Note_on_c, 0, 61, 49
1, 29169, Control_c, 0, 64, 83
1, 29172, Note_on_c, 0, 51, 43
1, 29183, Control_c, 0, 64, 85
1, 29198, Control_c, 0, 64, 87
1, 29220, Control_c, 0, 64, 91
1, 29235, Control_c, 0, 64, 96
1, 29250, Control_c, 0, 64, 100
1, 29264, Control_c, 0, 64, 105
1, 29279, Control_c, 0, 64, 113
1, 29288, Note_off_c, 0, 73, 36
1, 29294, Control_c, 0, 64, 127
1, 29297, Note_off_c, 0, 61, 51
1, 29416, Note_on_c, 0, 63, 61
1, 29426, Note_off_c, 0, 64, 37
1, 29457, Control_c, 0, 64, 100
1, 29467, Note_on_c, 0, 69, 58
1, 29472, Control_c, 0, 64, 82
1, 29487, Control_c, 0, 64, 77
1, 29502, Control_c, 0, 64, 78
1, 29513, Note_off_c, 0, 51, 37
1, 29516, Control_c, 0, 64, 81
1, 29531, Control_c, 0, 64, 89
1, 29546, Control_c, 0, 64, 94
1, 29561, Control_c, 0, 64, 95
1, 29587, Note_off_c, 0, 63, 49
1, 29590, Control_c, 0, 64, 99
1, 29605, Control_c, 0, 64, 101
1, 29620, Control_c, 0, 64, 104
1, 29646, Note_on_c, 0, 61, 62
1, 29679, Control_c, 0, 64, 106
1, 29694, Control_c, 0, 64, 111
1, 29708, Control_c, 0, 64, 122
1, 29723, Control_c, 0, 64, 127
1, 29738, Note_on_c, 0, 51, 59
1, 29777, Note_off_c, 0, 51, 63
1, 29823, Note_on_c, 0, 73, 79
1, 29860, Note_off_c, 0, 69, 22
1, 29976, Note_off_c, 0, 61, 36
1, 30066, Note_on_c, 0, 39, 53
1, 30087, Control_c, 0, 64, 99
1, 30102, Control_c, 0, 64, 74
1, 30107, Note_on_c, 0, 69, 63
1, 30117, Control_c, 0, 64, 56
1, 30131, Control_c, 0, 64, 0
1, 30145, Note_off_c, 0, 73, 60
1, 30191, Control_c, 0, 64, 39
1, 30206, Control_c, 0, 64, 59
1, 30221, Control_c, 0, 64, 68
1, 30236, Control_c, 0, 64, 76
1, 30251, Control_c, 0, 64, 81
1, 30266, Control_c, 0, 64, 83
1, 30280, Control_c, 0, 64, 86
1, 30295, Control_c, 0, 64, 90
1, 30310, Control_c, 0, 64, 93
1, 30325, Control_c, 0, 64, 98
1, 30339, Control_c, 0, 64, 104
1, 30354, Control_c, 0, 64, 112
1, 30369, Control_c, 0, 64, 127
1, 30373, Note_off_c, 0, 39, 27
1, 30465, Note_on_c, 0, 49, 46
1, 30466, Note_off_c, 0, 69, 37
1, 30487, Note_on_c, 0, 66, 44
1, 30563, Note_off_c, 0, 49, 59
1, 30607, Note_on_c, 0, 57, 57
1, 30623, Note_on_c, 0, 61, 51
1, 30638, Note_off_c, 0, 57, 60
1, 30689, Note_off_c, 0, 61, 39
1, 30867, Note_on_c, 0, 48, 61
1, 30871, Note_on_c, 0, 72, 74
1, 30930, Note_off_c, 0, 66, 38
1, 30969, Control_c, 0, 64, 87
1, 30984, Control_c, 0, 64, 62
1, 30993, Note_off_c, 0, 72, 61
1, 30993, Note_on_c, 0, 69, 64
1, 30994, Note_on_c, 0, 41, 56
1, 30999, Control_c, 0, 64, 0
1, 31000, Note_off_c, 0, 48, 61
1, 31044, Control_c, 0, 64, 49
1, 31058, Control_c, 0, 64, 64
1, 31073, Control_c, 0, 64, 73
1, 31088, Control_c, 0, 64, 80
1, 31094, Note_off_c, 0, 41, 54
1, 31103, Control_c, 0, 64, 84
1, 31118, Control_c, 0, 64, 86
1, 31133, Control_c, 0, 64, 88
1, 31148, Control_c, 0, 64, 91
1, 31162, Control_c, 0, 64, 97
1, 31177, Control_c, 0, 64, 106
1, 31192, Control_c, 0, 64, 127
1, 31233, Note_off_c, 0, 69, 53
1, 31246, Note_on_c, 0, 49, 31
1, 31258, Note_on_c, 0, 65, 50
1, 31291, Note_off_c, 0, 49, 49
1, 31337, Note_off_c, 0, 65, 63
1, 31354, Note_on_c, 0, 61, 50
1, 31377, Note_on_c, 0, 57, 39
1, 31384, Note_off_c, 0, 61, 56
1, 31478, Note_off_c, 0, 57, 47
1, 31589, Note_on_c, 0, 72, 67
1, 31589, Note_on_c, 0, 48, 53
1, 31646, Control_c, 0, 64, 89
1, 31660, Control_c, 0, 64, 63
1, 31675, Control_c, 0, 64, 0
1, 31693, Note_off_c, 0, 72, 63
1, 31695, Note_on_c, 0, 68, 69
1, 31695, Note_off_c, 0, 48, 58
1, 31702, Note_on_c, 0, 42, 49
1, 31719, Control_c, 0, 64, 39
1, 31734, Control_c, 0, 64, 61
1, 31749, Control_c, 0, 64, 69
1, 31764, Control_c, 0, 64, 75
1, 31778, Control_c, 0, 64, 79
1, 31793, Control_c, 0, 64, 81
1, 31808, Control_c, 0, 64, 83
1, 31823, Control_c, 0, 64, 85
1, 31838, Control_c, 0, 64, 89
1, 31853, Note_off_c, 0, 42, 36
1, 31853, Control_c, 0, 64, 93
1, 31867, Control_c, 0, 64, 99
1, 31878, Note_on_c, 0, 49, 40
1, 31882, Control_c, 0, 64, 106
1, 31897, Control_c, 0, 64, 119
1, 31902, Note_off_c, 0, 68, 57
1, 31911, Control_c, 0, 64, 127
1, 31924, Note_on_c, 0, 64, 53
1, 32012, Note_off_c, 0, 64, 60
1, 32022, Note_on_c, 0, 61, 50
1, 32026, Note_on_c, 0, 58, 44
1, 32064, Note_off_c, 0, 61, 62
1, 32077, Note_off_c, 0, 58, 56
1, 32108, Note_off_c, 0, 49, 34
1, 32236, Note_on_c, 0, 48, 56
1, 32243, Note_on_c, 0, 72, 66
1, 32304, Control_c, 0, 64, 84
1, 32319, Control_c, 0, 64, 61
1, 32328, Note_off_c, 0, 72, 62
1, 32334, Control_c, 0, 64, 0
1, 32338, Note_on_c, 0, 69, 62
1, 32339, Note_on_c, 0, 41, 48
1, 32357, Note_off_c, 0, 48, 50
1, 32379, Control_c, 0, 64, 53
1, 32394, Control_c, 0, 64, 66
1, 32408, Control_c, 0, 64, 73
1, 32423, Control_c, 0, 64, 76
1, 32438, Control_c, 0, 64, 77
1, 32452, Control_c, 0, 64, 79
1, 32467, Control_c, 0, 64, 82
1, 32480, Note_off_c, 0, 41, 33
1, 32482, Control_c, 0, 64, 85
1, 32497, Control_c, 0, 64, 89
1, 32512, Control_c, 0, 64, 93
1, 32526, Control_c, 0, 64, 96
1, 32541, Control_c, 0, 64, 98
1, 32543, Note_off_c, 0, 69, 58
1, 32552, Note_on_c, 0, 49, 50
1, 32569, Note_on_c, 0, 65, 61
1, 32571, Control_c, 0, 64, 100
1, 32600, Note_off_c, 0, 65, 56
1, 32601, Control_c, 0, 64, 102
1, 32627, Note_off_c, 0, 49, 57
1, 32645, Control_c, 0, 64, 106
1, 32658, Note_on_c, 0, 57, 64
1, 32659, Control_c, 0, 64, 109
1, 32662, Note_on_c, 0, 61, 55
1, 32674, Control_c, 0, 64, 113
1, 32687, Note_off_c, 0, 57, 66
1, 32689, Control_c, 0, 64, 122
1, 32698, Note_off_c, 0, 61, 63
1, 32704, Control_c, 0, 64, 127
1, 32883, Note_on_c, 0, 48, 56
1, 32896, Note_on_c, 0, 77, 85
1, 33023, Control_c, 0, 64, 70
1, 33029, Note_off_c, 0, 48, 60
1, 33038, Control_c, 0, 64, 40
1, 33041, Note_off_c, 0, 77, 65
1, 33042, Note_on_c, 0, 73, 78
1, 33053, Control_c, 0, 64, 0
1, 33097, Control_c, 0, 64, 34
1, 33112, Control_c, 0, 64, 58
1, 33114, Poly_aftertouch_c, 0, 40, 127
1, 33127, Control_c, 0, 64, 72
1, 33142, Control_c, 0, 64, 83
1, 33155, Poly_aftertouch_c, 0, 40, 0
1, 33157, Control_c, 0, 64, 89
1, 33172, Control_c, 0, 64, 89
1, 33187, Control_c, 0, 64, 90
1, 33202, Control_c, 0, 64, 92
1, 33217, Control_c, 0, 64, 94
1, 33229, Note_off_c, 0, 73, 62
1, 33231, Control_c, 0, 64, 98
1, 33241, Note_on_c, 0, 49, 52
1, 33246, Control_c, 0, 64, 100
1, 33257, Note_on_c, 0, 66, 56
1, 33261, Control_c, 0, 64, 102
1, 33290, Control_c, 0, 64, 106
1, 33305, Control_c, 0, 64, 109
1, 33312, Note_off_c, 0, 49, 64
1, 33320, Control_c, 0, 64, 115
1, 33331, Note_off_c, 0, 66, 61
1, 33335, Control_c, 0, 64, 120
1, 33349, Note_on_c, 0, 57, 57
1, 33349, Control_c, 0, 64, 127
1, 33359, Note_on_c, 0, 61, 56
1, 33397, Note_off_c, 0, 61, 56
1, 33538, Note_off_c, 0, 57, 42
1, 33556, Note_on_c, 0, 72, 72
1, 33573, Note_on_c, 0, 48, 58
1, 33616, Control_c, 0, 64, 103
1, 33631, Control_c, 0, 64, 68
1, 33646, Control_c, 0, 64, 0
1, 33653, Note_off_c, 0, 72, 61
1, 33658, Note_on_c, 0, 69, 65
1, 33663, Note_on_c, 0, 41, 45
1, 33663, Note_off_c, 0, 48, 58
1, 33713, Control_c, 0, 64, 54
1, 33728, Control_c, 0, 64, 68
1, 33743, Control_c, 0, 64, 75
1, 33757, Control_c, 0, 64, 80
1, 33772, Control_c, 0, 64, 82
1, 33787, Control_c, 0, 64, 85
1, 33801, Note_off_c, 0, 41, 36
1, 33802, Control_c, 0, 64, 87
1, 33816, Control_c, 0, 64, 89
1, 33833, Control_c, 0, 64, 91
1, 33848, Control_c, 0, 64, 92
1, 33862, Control_c, 0, 64, 93
1, 33865, Note_off_c, 0, 69, 57
1, 33873, Note_on_c, 0, 49, 44
1, 33877, Control_c, 0, 64, 94
1, 33878, Note_on_c, 0, 65, 44
1, 33892, Control_c, 0, 64, 96
1, 33921, Control_c, 0, 64, 98
1, 33936, Note_off_c, 0, 65, 64
1, 33941, Note_off_c, 0, 49, 53
1, 33966, Control_c, 0, 64, 100
1, 33973, Note_on_c, 0, 61, 53
1, 33976, Note_on_c, 0, 57, 53
1, 33995, Control_c, 0, 64, 103
1, 34010, Control_c, 0, 64, 105
1, 34018, Note_off_c, 0, 61, 52
1, 34025, Control_c, 0, 64, 109
1, 34040, Control_c, 0, 64, 116
1, 34054, Control_c, 0, 64, 127
1, 34108, Note_off_c, 0, 57, 38
1, 34177, Note_on_c, 0, 48, 53
1, 34182, Note_on_c, 0, 72, 59
1, 34218, Control_c, 0, 64, 80
1, 34232, Control_c, 0, 64, 61
1, 34247, Control_c, 0, 64, 0
1, 34290, Note_off_c, 0, 72, 63
1, 34298, Note_on_c, 0, 42, 47
1, 34298, Note_on_c, 0, 68, 63
1, 34306, Control_c, 0, 64, 55
1, 34309, Note_off_c, 0, 48, 51
1, 34321, Control_c, 0, 64, 66
1, 34336, Control_c, 0, 64, 72
1, 34351, Control_c, 0, 64, 74
1, 34366, Control_c, 0, 64, 76
1, 34380, Control_c, 0, 64, 77
1, 34395, Control_c, 0, 64, 80
1, 34410, Control_c, 0, 64, 83
1, 34424, Control_c, 0, 64, 86
1, 34439, Control_c, 0, 64, 90
1, 34462, Control_c, 0, 64, 95
1, 34466, Note_off_c, 0, 42, 35
1, 34477, Control_c, 0, 64, 102
1, 34492, Control_c, 0, 64, 111
1, 34506, Control_c, 0, 64, 127
1, 34507, Note_on_c, 0, 49, 48
1, 34510, Note_off_c, 0, 68, 58
1, 34525, Note_on_c, 0, 64, 51
1, 34613, Note_on_c, 0, 58, 60
1, 34616, Note_off_c, 0, 64, 59
1, 34640, Note_on_c, 0, 61, 55
1, 34702, Note_off_c, 0, 58, 55
1, 34707, Note_off_c, 0, 49, 21
1, 34756, Note_off_c, 0, 61, 41
1, 34855, Note_on_c, 0, 72, 61
1, 34865, Note_on_c, 0, 48, 52
1, 34907, Control_c, 0, 64, 86
1, 34922, Control_c, 0, 64, 58
1, 34937, Control_c, 0, 64, 0
1, 34953, Note_off_c, 0, 72, 51
1, 34968, Note_off_c, 0, 48, 51
1, 34974, Note_on_c, 0, 69, 48
1, 34975, Note_on_c, 0, 41, 38
1, 34981, Control_c, 0, 64, 37
1, 34996, Control_c, 0, 64, 58
1, 35011, Control_c, 0, 64, 68
1, 35026, Control_c, 0, 64, 73
1, 35041, Control_c, 0, 64, 75
1, 35055, Control_c, 0, 64, 77
1, 35070, Control_c, 0, 64, 79
1, 35085, Control_c, 0, 64, 81
1, 35100, Control_c, 0, 64, 83
1, 35115, Control_c, 0, 64, 87
1, 35129, Control_c, 0, 64, 90
1, 35144, Control_c, 0, 64, 93
1, 35152, Note_off_c, 0, 41, 33
1, 35159, Control_c, 0, 64, 97
1, 35173, Control_c, 0, 64, 101
1, 35188, Control_c, 0, 64, 106
1, 35202, Note_off_c, 0, 69, 48
1, 35211, Control_c, 0, 64, 112
1, 35225, Note_on_c, 0, 49, 48
1, 35226, Control_c, 0, 64, 120
1, 35232, Note_on_c, 0, 65, 44
1, 35241, Control_c, 0, 64, 127
1, 35336, Note_off_c, 0, 65, 39
1, 35353, Note_off_c, 0, 49, 38
1, 35367, Note_on_c, 0, 61, 54
1, 35369, Note_on_c, 0, 57, 47
1, 35400, Note_off_c, 0, 57, 56
1, 35423, Note_off_c, 0, 61, 47
1, 35587, Note_on_c, 0, 48, 58
1, 35640, Note_on_c, 0, 70, 75
1, 35730, Control_c, 0, 64, 96
1, 35744, Control_c, 0, 64, 69
1, 35759, Control_c, 0, 64, 37
1, 35763, Note_on_c, 0, 39, 59
1, 35774, Note_on_c, 0, 73, 69
1, 35774, Control_c, 0, 64, 0
1, 35775, Note_off_c, 0, 70, 63
1, 35787, Note_off_c, 0, 48, 36
1, 35819, Control_c, 0, 64, 56
1, 35834, Control_c, 0, 64, 69
1, 35849, Control_c, 0, 64, 78
1, 35864, Control_c, 0, 64, 84
1, 35888, Note_on_c, 0, 66, 49
1, 35889, Note_off_c, 0, 39, 37
1, 35893, Control_c, 0, 64, 84
1, 35908, Control_c, 0, 64, 85
1, 35923, Control_c, 0, 64, 86
1, 35938, Control_c, 0, 64, 87
1, 35959, Control_c, 0, 64, 88
1, 35960, Note_off_c, 0, 73, 26
1, 35974, Control_c, 0, 64, 89
1, 35984, Note_on_c, 0, 49, 54
1, 35986, Note_on_c, 0, 65, 58
1, 35989, Control_c, 0, 64, 91
1, 36004, Control_c, 0, 64, 92
1, 36019, Control_c, 0, 64, 94
1, 36031, Note_off_c, 0, 66, 28
1, 36034, Control_c, 0, 64, 95
1, 36049, Control_c, 0, 64, 96
1, 36054, Note_off_c, 0, 65, 62
1, 36069, Note_on_c, 0, 64, 56
1, 36078, Control_c, 0, 64, 98
1, 36087, Note_on_c, 0, 58, 45
1, 36090, Note_off_c, 0, 49, 46
1, 36108, Control_c, 0, 64, 101
1, 36112, Note_off_c, 0, 64, 58
1, 36138, Control_c, 0, 64, 105
1, 36147, Note_off_c, 0, 58, 57
1, 36152, Control_c, 0, 64, 107
1, 36156, Note_on_c, 0, 63, 62
1, 36167, Control_c, 0, 64, 111
1, 36182, Control_c, 0, 64, 119
1, 36196, Control_c, 0, 64, 127
1, 36202, Note_off_c, 0, 63, 62
1, 36236, Note_on_c, 0, 48, 57
1, 36239, Note_on_c, 0, 69, 67
1, 36314, Note_off_c, 0, 48, 58
1, 36316, Control_c, 0, 64, 89
1, 36331, Control_c, 0, 64, 66
1, 36333, Note_on_c, 0, 41, 54
1, 36346, Note_off_c, 0, 69, 62
1, 36346, Control_c, 0, 64, 0
1, 36367, Note_on_c, 0, 72, 51
1, 36390, Control_c, 0, 64, 43
1, 36405, Control_c, 0, 64, 64
1, 36419, Control_c, 0, 64, 74
1, 36434, Control_c, 0, 64, 79
1, 36446, Note_on_c, 0, 57, 56
1, 36449, Control_c, 0, 64, 80
1, 36479, Note_off_c, 0, 57, 61
1, 36479, Control_c, 0, 64, 81
1, 36493, Control_c, 0, 64, 82
1, 36498, Note_off_c, 0, 41, 34
1, 36508, Control_c, 0, 64, 84
1, 36523, Control_c, 0, 64, 85
1, 36526, Note_on_c, 0, 49, 56
1, 36537, Note_on_c, 0, 63, 54
1, 36538, Control_c, 0, 64, 87
1, 36553, Control_c, 0, 64, 89
1, 36568, Control_c, 0, 64, 90
1, 36573, Note_off_c, 0, 63, 66
1, 36582, Control_c, 0, 64, 91
1, 36597, Control_c, 0, 64, 92
1, 36605, Note_off_c, 0, 72, 58
1, 36612, Control_c, 0, 64, 93
1, 36614, Note_on_c, 0, 57, 67
1, 36615, Note_on_c, 0, 66, 73
1, 36627, Control_c, 0, 64, 93
1, 36639, Note_off_c, 0, 66, 68
1, 36642, Control_c, 0, 64, 95
1, 36657, Control_c, 0, 64, 98
1, 36672, Control_c, 0, 64, 103
1, 36686, Control_c, 0, 64, 111
1, 36703, Note_on_c, 0, 69, 78
1, 36708, Control_c, 0, 64, 127
1, 36764, Note_off_c, 0, 69, 59
1, 36769, Note_off_c, 0, 57, 37
1, 36787, Note_on_c, 0, 73, 86
1, 36799, Note_on_c, 0, 51, 47
1, 36827, Control_c, 0, 64, 83
1, 36827, Note_off_c, 0, 49, 37
1, 36841, Control_c, 0, 64, 59
1, 36850, Note_off_c, 0, 51, 61
1, 36856, Control_c, 0, 64, 0
1, 36861, Note_on_c, 0, 43, 60
1, 36892, Note_on_c, 0, 77, 72
1, 36896, Note_off_c, 0, 73, 63
1, 36901, Control_c, 0, 64, 43
1, 36916, Control_c, 0, 64, 65
1, 36931, Control_c, 0, 64, 74
1, 36945, Control_c, 0, 64, 79
1, 36960, Control_c, 0, 64, 80
1, 36975, Control_c, 0, 64, 81
1, 36986, Note_on_c, 0, 72, 62
1, 36990, Control_c, 0, 64, 82
1, 37005, Control_c, 0, 64, 84
1, 37019, Note_off_c, 0, 77, 56
1, 37020, Control_c, 0, 64, 86
1, 37030, Note_off_c, 0, 43, 37
1, 37035, Control_c, 0, 64, 87
1, 37050, Control_c, 0, 64, 89
1, 37065, Control_c, 0, 64, 91
1, 37069, Note_on_c, 0, 53, 51
1, 37079, Note_off_c, 0, 72, 62
1, 37080, Control_c, 0, 64, 95
1, 37082, Note_on_c, 0, 71, 64
1, 37095, Control_c, 0, 64, 100
1, 37110, Control_c, 0, 64, 106
1, 37124, Control_c, 0, 64, 112
1, 37139, Control_c, 0, 64, 127
1, 37145, Note_off_c, 0, 71, 64
1, 37151, Note_on_c, 0, 70, 70
1, 37164, Note_on_c, 0, 61, 59
1, 37190, Note_off_c, 0, 70, 60
1, 37204, Note_off_c, 0, 61, 56
1, 37222, Note_on_c, 0, 65, 66
1, 37289, Note_on_c, 0, 51, 50
1, 37312, Note_on_c, 0, 72, 71
1, 37313, Note_off_c, 0, 65, 63
1, 37324, Note_off_c, 0, 53, 33
1, 37361, Control_c, 0, 64, 78
1, 37375, Note_off_c, 0, 51, 56
1, 37375, Control_c, 0, 64, 53
1, 37388, Note_on_c, 0, 44, 70
1, 37390, Control_c, 0, 64, 0
1, 37414, Note_on_c, 0, 75, 68
1, 37420, Control_c, 0, 64, 51
1, 37424, Note_off_c, 0, 72, 64
1, 37435, Control_c, 0, 64, 69
1, 37457, Control_c, 0, 64, 88
1, 37472, Control_c, 0, 64, 127
1, 37518, Note_on_c, 0, 60, 59
1, 37525, Note_off_c, 0, 75, 58
1, 37539, Note_off_c, 0, 44, 57
1, 37560, Note_off_c, 0, 60, 59
1, 37571, Note_on_c, 0, 53, 47
1, 37589, Note_on_c, 0, 66, 64
1, 37641, Note_off_c, 0, 66, 59
1, 37664, Note_on_c, 0, 60, 72
1, 37675, Note_on_c, 0, 70, 71
1, 37700, Note_off_c, 0, 70, 69
1, 37739, Control_c, 0, 67, 112
1, 37739, Note_on_c, 0, 72, 90
1, 37754, Control_c, 0, 67, 93
1, 37768, Control_c, 0, 67, 71
1, 37783, Control_c, 0, 67, 57
1, 37798, Control_c, 0, 67, 48
1, 37804, Note_off_c, 0, 53, 49
1, 37810, Note_off_c, 0, 72, 62
1, 37813, Control_c, 0, 67, 44
1, 37819, Note_on_c, 0, 77, 88
1, 37819, Note_off_c, 0, 60, 36
1, 37832, Note_on_c, 0, 54, 56
1, 37843, Control_c, 0, 67, 43
1, 37873, Control_c, 0, 64, 69
1, 37888, Control_c, 0, 64, 0
1, 37891, Note_on_c, 0, 46, 72
1, 37897, Note_off_c, 0, 54, 62
1, 37923, Note_on_c, 0, 80, 89
1, 37926, Note_off_c, 0, 77, 65
1, 37947, Control_c, 0, 64, 59
1, 37947, Control_c, 0, 67, 44
1, 37962, Control_c, 0, 64, 71
1, 37962, Control_c, 0, 67, 45
1, 37977, Control_c, 0, 64, 81
1, 37977, Control_c, 0, 67, 46
1, 37991, Control_c, 0, 64, 85
1, 37991, Control_c, 0, 67, 46
1, 38005, Control_c, 0, 64, 86
1, 38014, Note_on_c, 0, 76, 75
1, 38028, Note_off_c, 0, 46, 39
1, 38035, Control_c, 0, 64, 86
1, 38050, Control_c, 0, 64, 87
1, 38055, Note_on_c, 0, 56, 58
1, 38064, Control_c, 0, 64, 88
1, 38066, Note_off_c, 0, 80, 51
1, 38079, Control_c, 0, 64, 88
1, 38109, Note_off_c, 0, 76, 62
1, 38109, Control_c, 0, 64, 89
1, 38110, Note_on_c, 0, 75, 66
1, 38124, Control_c, 0, 64, 91
1, 38138, Control_c, 0, 64, 93
1, 38153, Control_c, 0, 64, 95
1, 38174, Note_on_c, 0, 65, 59
1, 38178, Note_on_c, 0, 73, 73
1, 38180, Note_off_c, 0, 75, 60
1, 38183, Control_c, 0, 64, 97
1, 38205, Control_c, 0, 64, 100
1, 38220, Control_c, 0, 64, 105
1, 38228, Note_off_c, 0, 65, 61
1, 38233, Note_off_c, 0, 73, 64
1, 38235, Control_c, 0, 64, 115
1, 38250, Control_c, 0, 64, 127
1, 38259, Note_on_c, 0, 68, 77
1, 38309, Control_c, 0, 67, 46
1, 38314, Note_off_c, 0, 68, 64
1, 38339, Control_c, 0, 67, 45
1, 38344, Note_off_c, 0, 56, 56
1, 38344, Note_on_c, 0, 75, 76
1, 38350, Note_on_c, 0, 54, 49
1, 38383, Control_c, 0, 64, 77
1, 38397, Control_c, 0, 64, 50
1, 38412, Control_c, 0, 64, 0
1, 38415, Note_on_c, 0, 48, 65
1, 38429, Note_on_c, 0, 78, 74
1, 38432, Note_off_c, 0, 54, 63
1, 38432, Note_off_c, 0, 75, 64
1, 38442, Control_c, 0, 64, 45
1, 38457, Control_c, 0, 64, 65
1, 38472, Control_c, 0, 64, 77
1, 38487, Control_c, 0, 64, 90
1, 38487, Control_c, 0, 67, 46
1, 38502, Control_c, 0, 64, 95
1, 38502, Control_c, 0, 67, 46
1, 38517, Control_c, 0, 64, 96
1, 38525, Note_on_c, 0, 63, 65
1, 38531, Control_c, 0, 64, 100
1, 38546, Control_c, 0, 64, 106
1, 38555, Note_off_c, 0, 63, 67
1, 38561, Control_c, 0, 64, 116
1, 38561, Note_off_c, 0, 48, 37
1, 38576, Control_c, 0, 64, 127
1, 38583, Note_on_c, 0, 56, 52
1, 38591, Note_on_c, 0, 70, 71
1, 38617, Note_off_c, 0, 70, 68
1, 38639, Note_off_c, 0, 78, 62
1, 38672, Note_on_c, 0, 63, 68
1, 38687, Note_on_c, 0, 72, 76
1, 38728, Note_off_c, 0, 63, 59
1, 38746, Note_off_c, 0, 72, 61
1, 38759, Note_on_c, 0, 75, 77
1, 38810, Note_off_c, 0, 75, 63
1, 38836, Note_on_c, 0, 58, 65
1, 38843, Note_on_c, 0, 78, 84
1, 38871, Note_off_c, 0, 56, 36
1, 38875, Note_off_c, 0, 58, 61
1, 38887, Control_c, 0, 64, 85
1, 38902, Control_c, 0, 64, 53
1, 38917, Control_c, 0, 64, 0
1, 38932, Control_c, 0, 67, 46
1, 38955, Control_c, 0, 64, 36
1, 38961, Note_on_c, 0, 82, 82
1, 38966, Note_on_c, 0, 50, 59
1, 38966, Note_off_c, 0, 78, 63
1, 38969, Control_c, 0, 64, 60
1, 38982, Note_on_c, 0, 58, 43
1, 38984, Control_c, 0, 64, 71
1, 38991, Note_off_c, 0, 82, 61
1, 38999, Control_c, 0, 64, 79
1, 39002, Note_off_c, 0, 50, 63
1, 39014, Note_off_c, 0, 58, 51
1, 39014, Control_c, 0, 64, 80
1, 39043, Control_c, 0, 64, 83
1, 39058, Control_c, 0, 64, 88
1, 39073, Control_c, 0, 64, 96
1, 39088, Control_c, 0, 64, 106
1, 39098, Note_on_c, 0, 58, 37
1, 39102, Control_c, 0, 64, 119
1, 39117, Control_c, 0, 64, 127
1, 39128, Note_off_c, 0, 58, 55
1, 39138, Poly_aftertouch_c, 0, 50, 127
1, 39146, Control_c, 0, 67, 46
1, 39147, Note_on_c, 0, 78, 62
1, 39152, Note_on_c, 0, 66, 57
1, 39156, Note_on_c, 0, 70, 58
1, 39172, Note_off_c, 0, 66, 63
1, 39175, Poly_aftertouch_c, 0, 50, 0
1, 39176, Note_off_c, 0, 78, 66
1, 39187, Note_off_c, 0, 70, 66
1, 39227, Note_on_c, 0, 68, 73
1, 39253, Note_off_c, 0, 68, 68
1, 39258, Note_on_c, 0, 56, 17
1, 39295, Control_c, 0, 67, 46
1, 39306, Note_off_c, 0, 56, 0
1, 39317, Note_on_c, 0, 58, 33
1, 39317, Note_on_c, 0, 68, 63
1, 39321, Note_on_c, 0, 56, 46
1, 39334, Note_off_c, 0, 68, 68
1, 39346, Note_off_c, 0, 58, 61
1, 39350, Note_off_c, 0, 56, 63
1, 39380, Note_on_c, 0, 70, 86
1, 39382, Note_on_c, 0, 78, 81
1, 39386, Note_on_c, 0, 66, 72
1, 39398, Note_off_c, 0, 70, 74
1, 39402, Note_off_c, 0, 66, 68
1, 39404, Note_off_c, 0, 78, 69
1, 39429, Control_c, 0, 67, 46
1, 39444, Control_c, 0, 64, 96
1, 39459, Control_c, 0, 64, 64
1, 39474, Control_c, 0, 64, 0
1, 39474, Control_c, 0, 67, 47
1, 39477, Note_on_c, 0, 56, 71
1, 39483, Note_on_c, 0, 70, 78
1, 39483, Note_on_c, 0, 82, 82
1, 39488, Control_c, 0, 67, 47
1, 39490, Note_on_c, 0, 46, 60
1, 39503, Control_c, 0, 64, 38
1, 39504, Note_off_c, 0, 56, 65
1, 39505, Note_off_c, 0, 70, 67
1, 39505, Note_off_c, 0, 82, 67
1, 39515, Note_off_c, 0, 46, 60
1, 39518, Control_c, 0, 64, 62
1, 39533, Control_c, 0, 64, 76
1, 39548, Control_c, 0, 64, 97
1, 39562, Control_c, 0, 64, 127
1, 39562, Control_c, 0, 67, 48
1, 39581, Note_on_c, 0, 56, 70
1, 39587, Note_on_c, 0, 46, 57
1, 39614, Note_off_c, 0, 46, 58
1, 39614, Note_off_c, 0, 56, 63
1, 39622, Control_c, 0, 67, 47
1, 39651, Control_c, 0, 67, 47
1, 39654, Note_on_c, 0, 65, 81
1, 39661, Note_on_c, 0, 77, 59
1, 39666, Control_c, 0, 67, 46
1, 39679, Note_off_c, 0, 65, 68
1, 39697, Note_on_c, 0, 70, 31
1, 39697, Note_off_c, 0, 70, 127
1, 39708, Note_off_c, 0, 77, 50
1, 39718, Control_c, 0, 67, 46
1, 39747, Note_on_c, 0, 68, 79
1, 39748, Control_c, 0, 67, 45
1, 39763, Control_c, 0, 67, 44
1, 39767, Note_off_c, 0, 68, 70
1, 39777, Control_c, 0, 67, 43
1, 39787, Note_on_c, 0, 58, 8
1, 39792, Control_c, 0, 67, 42
1, 39807, Control_c, 0, 67, 40
1, 39812, Poly_aftertouch_c, 0, 56, 127
1, 39822, Control_c, 0, 67, 32
1, 39822, Note_on_c, 0, 56, 12
1, 39826, Note_on_c, 0, 68, 85
1, 39837, Control_c, 0, 67, 0
1, 39846, Note_off_c, 0, 68, 71
1, 39856, Note_off_c, 0, 58, 58
1, 39869, Note_off_c, 0, 56, 59
1, 39890, Note_on_c, 0, 77, 86
1, 39891, Note_on_c, 0, 65, 86
1, 39906, Note_on_c, 0, 70, 56
1, 39915, Note_off_c, 0, 65, 70
1, 39925, Note_off_c, 0, 70, 64
1, 39928, Note_off_c, 0, 77, 63
1, 39984, Control_c, 0, 64, 69
1, 39995, Note_on_c, 0, 82, 83
1, 39999, Control_c, 0, 64, 0
1, 40001, Note_on_c, 0, 70, 76
1, 40003, Note_on_c, 0, 49, 75
1, 40006, Note_on_c, 0, 42, 66
1, 40035, Note_off_c, 0, 42, 64
1, 40037, Note_off_c, 0, 49, 61
1, 40043, Control_c, 0, 64, 55
1, 40055, Note_off_c, 0, 82, 62
1, 40058, Control_c, 0, 64, 69
1, 40073, Control_c, 0, 64, 80
1, 40088, Note_off_c, 0, 70, 63
1, 40088, Control_c, 0, 64, 91
1, 40098, Note_on_c, 0, 49, 64
1, 40103, Control_c, 0, 64, 92
1, 40111, Note_on_c, 0, 42, 59
1, 40117, Control_c, 0, 64, 92
1, 40132, Control_c, 0, 64, 93
1, 40140, Note_off_c, 0, 42, 62
1, 40147, Control_c, 0, 64, 93
1, 40150, Note_off_c, 0, 49, 62
1, 40162, Control_c, 0, 64, 94
1, 40182, Note_on_c, 0, 76, 87
1, 40184, Note_on_c, 0, 64, 78
1, 40186, Note_on_c, 0, 70, 79
1, 40192, Control_c, 0, 64, 94
1, 40207, Control_c, 0, 64, 98
1, 40222, Control_c, 0, 64, 114
1, 40237, Control_c, 0, 64, 127
1, 40252, Note_off_c, 0, 64, 53
1, 40271, Note_on_c, 0, 54, 73
1, 40298, Note_off_c, 0, 54, 66
1, 40305, Note_off_c, 0, 76, 61
1, 40313, Note_off_c, 0, 70, 62
1, 40355, Note_on_c, 0, 64, 73
1, 40361, Note_on_c, 0, 54, 80
1, 40367, Note_on_c, 0, 58, 75
1, 40383, Note_off_c, 0, 64, 63
1, 40389, Note_off_c, 0, 58, 70
1, 40390, Note_off_c, 0, 54, 62
1, 40424, Note_on_c, 0, 63, 88
1, 40429, Note_on_c, 0, 75, 80
1, 40450, Note_on_c, 0, 70, 54
1, 40450, Note_off_c, 0, 63, 73
1, 40456, Note_off_c, 0, 75, 67
1, 40476, Note_off_c, 0, 70, 56
1, 40481, Control_c, 0, 64, 112
1, 40496, Control_c, 0, 64, 65
1, 40511, Control_c, 0, 64, 37
1, 40520, Note_on_c, 0, 51, 75
1, 40522, Note_on_c, 0, 43, 68
1, 40526, Control_c, 0, 64, 37
1, 40526, Control_c, 0, 67, 19
1, 40527, Note_on_c, 0, 82, 83
1, 40528, Note_on_c, 0, 70, 91
1, 40541, Control_c, 0, 64, 53
1, 40550, Note_on_c, 0, 80, 49
1, 40553, Note_off_c, 0, 51, 63
1, 40556, Control_c, 0, 64, 69
1, 40559, Note_off_c, 0, 43, 64
1, 40571, Control_c, 0, 64, 96
1, 40576, Note_off_c, 0, 82, 65
1, 40585, Note_off_c, 0, 80, 34
1, 40585, Control_c, 0, 64, 127
1, 40593, Note_off_c, 0, 70, 59
1, 40632, Note_on_c, 0, 51, 69
1, 40648, Note_on_c, 0, 43, 43
1, 40663, Note_off_c, 0, 51, 61
1, 40674, Control_c, 0, 67, 0
1, 40677, Note_off_c, 0, 43, 54
1, 40693, Note_on_c, 0, 62, 95
1, 40700, Note_on_c, 0, 70, 81
1, 40705, Note_on_c, 0, 76, 78
1, 40705, Note_on_c, 0, 74, 79
1, 40738, Note_off_c, 0, 62, 58
1, 40770, Note_off_c, 0, 76, 62
1, 40777, Note_on_c, 0, 64, 82
1, 40779, Note_on_c, 0, 58, 77
1, 40784, Note_off_c, 0, 74, 62
1, 40791, Note_on_c, 0, 52, 51
1, 40800, Note_off_c, 0, 58, 69
1, 40803, Note_off_c, 0, 64, 66
1, 40808, Note_off_c, 0, 70, 59
1, 40812, Note_on_c, 0, 53, 45
1, 40819, Note_off_c, 0, 52, 60
1, 40844, Note_off_c, 0, 53, 52
1, 40869, Note_on_c, 0, 64, 74
1, 40870, Note_on_c, 0, 58, 83
1, 40878, Note_on_c, 0, 52, 69
1, 40889, Note_off_c, 0, 64, 70
1, 40892, Note_off_c, 0, 58, 71
1, 40921, Note_on_c, 0, 61, 90
1, 40923, Note_on_c, 0, 73, 93
1, 40927, Note_off_c, 0, 52, 62
1, 40939, Note_off_c, 0, 61, 72
1, 40939, Note_off_c, 0, 73, 75
1, 40970, Control_c, 0, 64, 74
1, 40985, Control_c, 0, 64, 0
1, 41009, Note_on_c, 0, 44, 88
1, 41015, Control_c, 0, 64, 38
1, 41017, Note_on_c, 0, 53, 80
1, 41018, Note_on_c, 0, 70, 93
1, 41021, Note_on_c, 0, 82, 90
1, 41030, Control_c, 0, 64, 68
1, 41030, Control_c, 0, 67, 19
1, 41038, Note_off_c, 0, 44, 68
1, 41038, Note_off_c, 0, 82, 72
1, 41044, Note_off_c, 0, 70, 60
1, 41045, Control_c, 0, 64, 127
1, 41047, Note_off_c, 0, 53, 63
1, 41056, Note_on_c, 0, 80, 31
1, 41056, Note_off_c, 0, 80, 127
1, 41060, Control_c, 0, 67, 21
1, 41098, Poly_aftertouch_c, 0, 43, 127
1, 41124, Note_on_c, 0, 53, 77
1, 41126, Note_on_c, 0, 44, 73
1, 41131, Poly_aftertouch_c, 0, 43, 0
1, 41147, Note_off_c, 0, 53, 68
1, 41153, Note_off_c, 0, 44, 65
1, 41191, Note_on_c, 0, 61, 100
1, 41192, Note_on_c, 0, 73, 98
1, 41195, Note_on_c, 0, 68, 90
1, 41201, Control_c, 0, 67, 19
1, 41216, Control_c, 0, 67, 0
1, 41232, Note_on_c, 0, 60, 34
1, 41235, Note_off_c, 0, 61, 59
1, 41263, Note_off_c, 0, 60, 57
1, 41267, Note_off_c, 0, 73, 61
1, 41273, Note_off_c, 0, 68, 62
1, 41275, Note_on_c, 0, 65, 90
1, 41276, Note_on_c, 0, 53, 76
1, 41278, Note_on_c, 0, 56, 79
1, 41308, Note_off_c, 0, 56, 63
1, 41313, Note_off_c, 0, 65, 61
1, 41318, Note_off_c, 0, 53, 60
1, 41360, Note_on_c, 0, 65, 82
1, 41364, Note_on_c, 0, 56, 90
1, 41366, Note_on_c, 0, 53, 74
1, 41382, Note_off_c, 0, 65, 69
1, 41407, Note_off_c, 0, 56, 66
1, 41417, Note_on_c, 0, 74, 98
1, 41421, Note_off_c, 0, 53, 64
1, 41426, Note_on_c, 0, 60, 75
1, 41434, Note_on_c, 0, 62, 63
1, 41435, Note_off_c, 0, 74, 70
1, 41443, Note_off_c, 0, 60, 70
1, 41447, Note_on_c, 0, 72, 38
1, 41447, Note_off_c, 0, 72, 127
1, 41453, Control_c, 0, 64, 96
1, 41454, Note_off_c, 0, 62, 62
1, 41468, Control_c, 0, 64, 59
1, 41483, Control_c, 0, 64, 0
1, 41497, Control_c, 0, 64, 41
1, 41509, Note_on_c, 0, 45, 96
1, 41512, Control_c, 0, 64, 72
1, 41513, Note_on_c, 0, 33, 91
1, 41513, Note_on_c, 0, 82, 102
1, 41514, Note_on_c, 0, 70, 105
1, 41527, Control_c, 0, 64, 127
1, 41527, Note_on_c, 0, 80, 74
1, 41527, Note_off_c, 0, 80, 127
1, 41542, Note_off_c, 0, 82, 60
1, 41545, Note_on_c, 0, 69, 48
1, 41545, Note_off_c, 0, 69, 127
1, 41548, Note_off_c, 0, 45, 66
1, 41549, Note_off_c, 0, 70, 64
1, 41554, Note_off_c, 0, 33, 65
1, 41623, Note_on_c, 0, 47, 86
1, 41642, Note_on_c, 0, 35, 52
1, 41672, Note_off_c, 0, 47, 63
1, 41675, Note_off_c, 0, 35, 53
1, 41682, Note_on_c, 0, 59, 94
1, 41688, Note_on_c, 0, 71, 85
1, 41688, Note_on_c, 0, 72, 86
1, 41703, Note_on_c, 0, 60, 62
1, 41719, Note_off_c, 0, 59, 59
1, 41721, Note_on_c, 0, 67, 37
1, 41724, Note_off_c, 0, 60, 66
1, 41748, Note_off_c, 0, 72, 57
1, 41753, Note_off_c, 0, 71, 63
1, 41754, Note_off_c, 0, 67, 54
1, 41778, Note_on_c, 0, 51, 78
1, 41784, Note_on_c, 0, 54, 75
1, 41784, Note_on_c, 0, 49, 74
1, 41784, Note_on_c, 0, 63, 75
1, 41803, Note_off_c, 0, 51, 67
1, 41809, Note_off_c, 0, 54, 66
1, 41810, Note_off_c, 0, 63, 69
1, 41812, Note_off_c, 0, 49, 67
1, 41867, Note_on_c, 0, 51, 95
1, 41869, Note_on_c, 0, 54, 80
1, 41872, Note_on_c, 0, 63, 95
1, 41892, Note_off_c, 0, 63, 68
1, 41922, Note_off_c, 0, 51, 59
1, 41936, Note_off_c, 0, 54, 61
1, 41964, Note_on_c, 0, 70, 106
1, 41965, Note_on_c, 0, 58, 91
1, 41981, Note_off_c, 0, 58, 75
1, 41985, Note_off_c, 0, 70, 56
1, 42012, Note_on_c, 0, 71, 33
1, 42015, Note_on_c, 0, 72, 29
1, 42039, Control_c, 0, 64, 99
1, 42043, Note_off_c, 0, 71, 47
1, 42050, Note_off_c, 0, 72, 54
1, 42054, Control_c, 0, 64, 55
1, 42069, Control_c, 0, 64, 0
1, 42094, Note_on_c, 0, 34, 113
1, 42096, Note_on_c, 0, 22, 95
1, 42099, Control_c, 0, 64, 42
1, 42099, Control_c, 0, 67, 65
1, 42114, Control_c, 0, 64, 87
1, 42114, Control_c, 0, 67, 101
1, 42118, Note_on_c, 0, 70, 102
1, 42120, Note_on_c, 0, 82, 109
1, 42128, Control_c, 0, 64, 127
1, 42128, Control_c, 0, 67, 92
1, 42131, Note_off_c, 0, 22, 64
1, 42133, Note_off_c, 0, 34, 66
1, 42143, Control_c, 0, 67, 92
1, 42150, Note_off_c, 0, 82, 58
1, 42156, Note_off_c, 0, 70, 62
1, 42158, Control_c, 0, 67, 91
1, 42172, Control_c, 0, 67, 90
1, 42187, Control_c, 0, 67, 91
1, 42217, Control_c, 0, 67, 88
1, 42229, Note_on_c, 0, 34, 81
1, 42232, Control_c, 0, 67, 81
1, 42246, Control_c, 0, 67, 72
1, 42249, Note_on_c, 0, 22, 46
1, 42259, Note_off_c, 0, 34, 54
1, 42261, Control_c, 0, 67, 69
1, 42279, Note_off_c, 0, 22, 56
1, 42291, Control_c, 0, 67, 68
1, 42306, Control_c, 0, 67, 64
1, 42320, Control_c, 0, 67, 47
1, 42335, Control_c, 0, 67, 21
1, 42342, Note_on_c, 0, 58, 87
1, 42344, Note_on_c, 0, 70, 82
1, 42350, Control_c, 0, 67, 0
1, 42353, Note_on_c, 0, 65, 77
1, 42395, Note_off_c, 0, 58, 62
1, 42406, Note_on_c, 0, 66, 3
1, 42409, Note_off_c, 0, 70, 66
1, 42422, Note_off_c, 0, 65, 62
1, 42435, Note_on_c, 0, 53, 62
1, 42443, Note_on_c, 0, 49, 57
1, 42443, Note_off_c, 0, 66, 40
1, 42445, Note_on_c, 0, 61, 62
1, 42469, Note_off_c, 0, 49, 59
1, 42474, Note_off_c, 0, 61, 61
1, 42477, Note_off_c, 0, 53, 51
1, 42502, Note_on_c, 0, 61, 82
1, 42510, Note_on_c, 0, 49, 78
1, 42526, Poly_aftertouch_c, 0, 53, 127
1, 42544, Note_off_c, 0, 61, 62
1, 42549, Poly_aftertouch_c, 0, 53, 0
1, 42574, Note_off_c, 0, 49, 64
1, 42580, Note_on_c, 0, 71, 101
1, 42581, Note_on_c, 0, 59, 88
1, 42598, Note_on_c, 0, 60, 71
1, 42604, Note_off_c, 0, 59, 67
1, 42607, Note_off_c, 0, 71, 71
1, 42617, Control_c, 0, 64, 111
1, 42618, Note_off_c, 0, 60, 41
1, 42632, Control_c, 0, 64, 60
1, 42647, Control_c, 0, 64, 0
1, 42647, Control_c, 0, 67, 55
1, 42661, Control_c, 0, 67, 110
1, 42669, Note_on_c, 0, 37, 106
1, 42672, Note_on_c, 0, 25, 101
1, 42676, Note_on_c, 0, 70, 95
1, 42676, Control_c, 0, 64, 70
1, 42676, Control_c, 0, 67, 117
1, 42680, Note_on_c, 0, 82, 102
1, 42699, Control_c, 0, 64, 127
1, 42703, Note_off_c, 0, 82, 68
1, 42707, Note_off_c, 0, 25, 66
1, 42719, Note_off_c, 0, 37, 62
1, 42719, Note_off_c, 0, 70, 66
1, 42777, Note_on_c, 0, 25, 78
1, 42787, Control_c, 0, 67, 114
1, 42788, Note_on_c, 0, 37, 85
1, 42802, Control_c, 0, 67, 111
1, 42817, Control_c, 0, 67, 108
1, 42821, Note_off_c, 0, 25, 61
1, 42832, Control_c, 0, 67, 106
1, 42834, Note_off_c, 0, 37, 59
1, 42847, Control_c, 0, 67, 103
1, 42857, Poly_aftertouch_c, 0, 27, 127
1, 42866, Note_on_c, 0, 59, 87
1, 42868, Note_on_c, 0, 71, 88
1, 42870, Note_on_c, 0, 65, 83
1, 42876, Control_c, 0, 67, 97
1, 42890, Note_off_c, 0, 59, 66
1, 42891, Control_c, 0, 67, 80
1, 42898, Poly_aftertouch_c, 0, 27, 0
1, 42905, Control_c, 0, 67, 52
1, 42912, Note_off_c, 0, 71, 62
1, 42920, Control_c, 0, 67, 21
1, 42926, Note_off_c, 0, 65, 62
1, 42935, Control_c, 0, 67, 0
1, 42955, Note_on_c, 0, 56, 83
1, 42955, Note_on_c, 0, 62, 89
1, 42958, Note_on_c, 0, 53, 78
1, 42979, Note_off_c, 0, 56, 67
1, 42985, Note_off_c, 0, 53, 66
1, 42990, Note_off_c, 0, 62, 58
1, 43036, Note_on_c, 0, 62, 89
1, 43040, Note_on_c, 0, 56, 89
1, 43044, Note_on_c, 0, 52, 68
1, 43053, Note_on_c, 0, 53, 77
1, 43062, Note_on_c, 0, 54, 56
1, 43069, Note_off_c, 0, 62, 63
1, 43082, Note_off_c, 0, 56, 65
1, 43083, Note_off_c, 0, 54, 60
1, 43086, Note_off_c, 0, 53, 54
1, 43097, Note_off_c, 0, 52, 62
1, 43104, Note_on_c, 0, 72, 100
1, 43105, Note_on_c, 0, 60, 96
1, 43108, Note_on_c, 0, 66, 93
1, 43114, Note_on_c, 0, 70, 75
1, 43121, Note_off_c, 0, 60, 75
1, 43125, Note_off_c, 0, 66, 71
1, 43131, Note_off_c, 0, 70, 69
1, 43135, Note_off_c, 0, 72, 65
1, 43158, Control_c, 0, 64, 64
1, 43173, Control_c, 0, 64, 0
1, 43187, Control_c, 0, 67, 59
1, 43202, Control_c, 0, 64, 50
1, 43202, Control_c, 0, 67, 66
1, 43203, Note_on_c, 0, 39, 102
1, 43206, Note_on_c, 0, 27, 98
1, 43215, Note_on_c, 0, 82, 98
1, 43215, Note_on_c, 0, 70, 104
1, 43217, Control_c, 0, 64, 111
1, 43217, Control_c, 0, 67, 63
1, 43231, Note_off_c, 0, 82, 66
1, 43232, Note_off_c, 0, 27, 70
1, 43232, Control_c, 0, 64, 127
1, 43232, Control_c, 0, 67, 61
1, 43241, Note_off_c, 0, 39, 64
1, 43247, Control_c, 0, 67, 59
1, 43253, Note_off_c, 0, 70, 63
1, 43261, Control_c, 0, 67, 59
1, 43276, Control_c, 0, 67, 60
1, 43291, Control_c, 0, 67, 61
1, 43304, Note_on_c, 0, 27, 89
1, 43305, Control_c, 0, 67, 58
1, 43310, Note_on_c, 0, 39, 91
1, 43320, Control_c, 0, 67, 52
1, 43332, Note_on_c, 0, 25, 46
1, 43332, Note_off_c, 0, 25, 127
1, 43334, Note_off_c, 0, 27, 67
1, 43335, Control_c, 0, 67, 41
1, 43350, Control_c, 0, 67, 23
1, 43353, Note_off_c, 0, 39, 59
1, 43361, Poly_aftertouch_c, 0, 25, 0
1, 43365, Control_c, 0, 67, 0
1, 43400, Note_on_c, 0, 60, 97
1, 43403, Note_on_c, 0, 72, 95
1, 43407, Note_on_c, 0, 70, 83
1, 43409, Note_on_c, 0, 66, 83
1, 43447, Note_off_c, 0, 60, 65
1, 43470, Note_off_c, 0, 70, 54
1, 43489, Note_off_c, 0, 66, 56
1, 43496, Note_off_c, 0, 72, 58
1, 43510, Note_on_c, 0, 54, 87
1, 43510, Note_on_c, 0, 63, 95
1, 43520, Note_on_c, 0, 58, 71
1, 43544, Note_off_c, 0, 58, 69
1, 43550, Note_off_c, 0, 54, 59
1, 43554, Note_off_c, 0, 63, 62
1, 43598, Note_on_c, 0, 63, 91
1, 43599, Note_on_c, 0, 54, 95
1, 43606, Note_on_c, 0, 58, 87
1, 43638, Note_off_c, 0, 63, 65
1, 43650, Note_off_c, 0, 54, 66
1, 43652, Note_off_c, 0, 58, 63
1, 43677, Note_on_c, 0, 61, 94
1, 43678, Note_on_c, 0, 73, 100
1, 43680, Note_on_c, 0, 70, 86
1, 43702, Note_off_c, 0, 70, 69
1, 43712, Note_off_c, 0, 61, 59
1, 43718, Note_off_c, 0, 73, 67
1, 43773, Control_c, 0, 64, 64
1, 43788, Control_c, 0, 64, 0
1, 43803, Control_c, 0, 67, 68
1, 43807, Note_on_c, 0, 41, 103
1, 43810, Note_on_c, 0, 29, 99
1, 43814, Note_on_c, 0, 69, 104
1, 43817, Note_on_c, 0, 81, 109
1, 43817, Control_c, 0, 67, 84
1, 43832, Control_c, 0, 64, 65
1, 43832, Control_c, 0, 67, 72
1, 43835, Note_on_c, 0, 40, 55
1, 43835, Note_off_c, 0, 40, 127
1, 43846, Note_off_c, 0, 81, 65
1, 43847, Note_off_c, 0, 41, 65
1, 43847, Control_c, 0, 64, 127
1, 43847, Control_c, 0, 67, 65
1, 43849, Note_off_c, 0, 29, 66
1, 43849, Note_off_c, 0, 69, 68
1, 43862, Control_c, 0, 67, 55
1, 43877, Control_c, 0, 67, 48
1, 43891, Control_c, 0, 67, 50
1, 43906, Control_c, 0, 67, 51
1, 43921, Control_c, 0, 67, 47
1, 43926, Note_on_c, 0, 41, 97
1, 43936, Control_c, 0, 67, 43
1, 43936, Note_on_c, 0, 29, 82
1, 43942, Note_on_c, 0, 31, 77
1, 43951, Control_c, 0, 67, 38
1, 43963, Note_off_c, 0, 41, 65
1, 43963, Note_off_c, 0, 29, 67
1, 43966, Control_c, 0, 67, 36
1, 43969, Note_on_c, 0, 70, 59
1, 43971, Note_off_c, 0, 31, 62
1, 43981, Control_c, 0, 67, 36
1, 43996, Control_c, 0, 67, 37
1, 44004, Note_off_c, 0, 70, 65
1, 44010, Control_c, 0, 67, 36
1, 44025, Control_c, 0, 67, 33
1, 44040, Control_c, 0, 67, 27
1, 44055, Control_c, 0, 67, 20
1, 44057, Note_on_c, 0, 61, 104
1, 44058, Note_on_c, 0, 73, 104
1, 44059, Note_on_c, 0, 69, 89
1, 44070, Control_c, 0, 67, 0
1, 44120, Note_off_c, 0, 61, 59
1, 44176, Note_off_c, 0, 69, 61
1, 44204, Note_on_c, 0, 65, 99
1, 44206, Note_on_c, 0, 57, 88
1, 44210, Note_on_c, 0, 53, 83
1, 44212, Note_on_c, 0, 63, 83
1, 44264, Note_off_c, 0, 65, 61
1, 44269, Note_off_c, 0, 63, 62
1, 44269, Note_off_c, 0, 53, 55
1, 44276, Note_off_c, 0, 57, 60
1, 44343, Note_on_c, 0, 65, 107
1, 44350, Note_on_c, 0, 63, 100
1, 44352, Note_on_c, 0, 53, 87
1, 44352, Note_on_c, 0, 57, 84
1, 44379, Note_off_c, 0, 65, 70
1, 44391, Note_off_c, 0, 63, 67
1, 44398, Note_off_c, 0, 53, 63
1, 44398, Note_off_c, 0, 57, 65
1, 44402, Note_off_c, 0, 73, 59
1, 44612, Control_c, 0, 64, 99
1, 44627, Control_c, 0, 64, 54
1, 44641, Control_c, 0, 64, 0
1, 44955, Note_on_c, 0, 34, 101
1, 44956, Note_on_c, 0, 22, 87
1, 44960, Control_c, 0, 67, 20
1, 44961, Note_on_c, 0, 46, 97
1, 44966, Note_on_c, 0, 58, 88
1, 44974, Control_c, 0, 64, 85
1, 44974, Control_c, 0, 67, 63
1, 44989, Control_c, 0, 64, 127
1, 44989, Control_c, 0, 67, 58
1, 44998, Note_off_c, 0, 22, 63
1, 45000, Note_off_c, 0, 46, 65
1, 45001, Note_on_c, 0, 56, 50
1, 45001, Note_off_c, 0, 56, 127
1, 45003, Note_off_c, 0, 34, 63
1, 45004, Control_c, 0, 67, 35
1, 45009, Note_off_c, 0, 58, 64
1, 45020, Control_c, 0, 67, 0
1, 45352, Note_on_c, 0, 53, 69
1, 45353, Note_on_c, 0, 49, 58
1, 45358, Note_on_c, 0, 65, 73
1, 45358, Note_on_c, 0, 41, 56
1, 45359, Note_on_c, 0, 46, 58
1, 45363, Note_on_c, 0, 58, 55
1, 45373, Note_on_c, 0, 61, 61
1, 45473, Note_off_c, 0, 53, 64
1, 45632, Note_off_c, 0, 65, 53
1, 45648, Note_off_c, 0, 46, 59
1, 45653, Note_off_c, 0, 49, 59
1, 45657, Note_off_c, 0, 41, 58
1, 45661, Note_off_c, 0, 58, 55
1, 45691, Note_off_c, 0, 61, 51
1, 45831, Note_on_c, 0, 65, 69
1, 45833, Note_on_c, 0, 58, 55
1, 45837, Note_on_c, 0, 46, 61
1, 45837, Note_on_c, 0, 61, 49
1, 45838, Note_on_c, 0, 53, 69
1, 45838, Note_on_c, 0, 49, 59
1, 45841, Note_on_c, 0, 41, 57
1, 45870, Note_off_c, 0, 58, 58
1, 45877, Note_off_c, 0, 49, 63
1, 45877, Note_off_c, 0, 53, 59
1, 45877, Note_off_c, 0, 61, 59
1, 45880, Note_off_c, 0, 46, 64
1, 45882, Note_off_c, 0, 41, 59
1, 45894, Note_off_c, 0, 65, 60
1, 46084, Note_on_c, 0, 41, 59
1, 46084, Note_on_c, 0, 53, 65
1, 46090, Note_on_c, 0, 46, 70
1, 46090, Note_on_c, 0, 49, 59
1, 46094, Note_on_c, 0, 58, 73
1, 46097, Note_on_c, 0, 65, 61
1, 46100, Note_on_c, 0, 61, 62
1, 46107, Note_off_c, 0, 53, 61
1, 46114, Note_off_c, 0, 41, 63
1, 46115, Note_off_c, 0, 46, 66
1, 46116, Note_off_c, 0, 49, 60
1, 46119, Note_off_c, 0, 58, 69
1, 46127, Note_off_c, 0, 65, 65
1, 46130, Note_off_c, 0, 61, 64
1, 46255, Note_on_c, 0, 32, 87
1, 46255, Note_on_c, 0, 37, 84
1, 46261, Note_on_c, 0, 41, 66
1, 46263, Note_on_c, 0, 65, 67
1, 46266, Note_on_c, 0, 44, 93
1, 46267, Note_on_c, 0, 68, 102
1, 46268, Note_on_c, 0, 56, 105
1, 46271, Note_on_c, 0, 40, 75
1, 46273, Note_on_c, 0, 61, 64
1, 46273, Control_c, 0, 64, 106
1, 46280, Note_on_c, 0, 31, 69
1, 46282, Note_on_c, 0, 42, 72
1, 46288, Control_c, 0, 64, 53
1, 46299, Note_off_c, 0, 40, 50
1, 46303, Note_on_c, 0, 66, 53
1, 46303, Control_c, 0, 64, 0
1, 46309, Note_off_c, 0, 31, 53
1, 46328, Note_off_c, 0, 66, 54
1, 46365, Note_off_c, 0, 32, 62
1, 46377, Control_c, 0, 64, 51
1, 46385, Note_off_c, 0, 42, 26
1, 46392, Control_c, 0, 64, 72
1, 46398, Note_off_c, 0, 44, 65
1, 46405, Note_off_c, 0, 37, 60
1, 46406, Control_c, 0, 64, 75
1, 46410, Note_off_c, 0, 41, 60
1, 46415, Note_off_c, 0, 56, 62
1, 46421, Control_c, 0, 64, 79
1, 46443, Control_c, 0, 64, 94
1, 46458, Control_c, 0, 64, 127
1, 46467, Note_off_c, 0, 61, 60
1, 46473, Note_off_c, 0, 65, 62
1, 46484, Note_off_c, 0, 68, 62
1, 46643, Note_on_c, 0, 70, 63
1, 46647, Note_on_c, 0, 77, 72
1, 46651, Note_on_c, 0, 61, 57
1, 46653, Note_on_c, 0, 65, 71
1, 46655, Note_on_c, 0, 73, 62
1, 46659, Note_on_c, 0, 58, 54
1, 46660, Note_on_c, 0, 53, 62
1, 46900, Note_off_c, 0, 77, 51
1, 46973, Note_off_c, 0, 65, 35
1, 46985, Note_off_c, 0, 70, 37
1, 46989, Note_off_c, 0, 73, 54
1, 47003, Note_off_c, 0, 58, 50
1, 47006, Note_off_c, 0, 61, 36
1, 47028, Note_off_c, 0, 53, 33
1, 47122, Note_on_c, 0, 77, 65
1, 47123, Note_on_c, 0, 53, 72
1, 47125, Note_on_c, 0, 58, 71
1, 47126, Note_on_c, 0, 61, 66
1, 47127, Note_on_c, 0, 65, 76
1, 47134, Note_on_c, 0, 73, 62
1, 47139, Note_on_c, 0, 70, 70
1, 47184, Note_off_c, 0, 70, 60
1, 47185, Note_off_c, 0, 61, 50
1, 47191, Note_off_c, 0, 53, 59
1, 47194, Note_off_c, 0, 58, 62
1, 47203, Note_off_c, 0, 73, 51
1, 47233, Note_off_c, 0, 65, 33
1, 47309, Note_off_c, 0, 77, 35
1, 47400, Note_on_c, 0, 65, 81
1, 47409, Note_on_c, 0, 53, 73
1, 47412, Note_on_c, 0, 77, 73
1, 47418, Note_on_c, 0, 61, 68
1, 47419, Note_on_c, 0, 58, 65
1, 47421, Note_on_c, 0, 70, 78
1, 47422, Note_off_c, 0, 65, 71
1, 47433, Note_on_c, 0, 73, 54
1, 47434, Note_off_c, 0, 77, 70
1, 47442, Note_off_c, 0, 70, 70
1, 47446, Note_off_c, 0, 61, 64
1, 47447, Note_off_c, 0, 58, 66
1, 47450, Note_off_c, 0, 53, 63
1, 47455, Note_off_c, 0, 73, 60
1, 47563, Control_c, 0, 64, 70
1, 47577, Control_c, 0, 64, 0
1, 47594, Note_on_c, 0, 34, 104
1, 47598, Note_on_c, 0, 22, 98
1, 47607, Control_c, 0, 64, 45
1, 47614, Note_on_c, 0, 46, 92
1, 47618, Note_off_c, 0, 22, 70
1, 47621, Note_on_c, 0, 58, 82
1, 47622, Control_c, 0, 64, 74
1, 47633, Note_off_c, 0, 34, 61
1, 47635, Note_off_c, 0, 46, 69
1, 47636, Note_off_c, 0, 58, 70
1, 47637, Control_c, 0, 64, 127
1, 47744, Poly_aftertouch_c, 0, 46, 127
1, 47778, Poly_aftertouch_c, 0, 46, 0
1, 47942, Note_on_c, 0, 53, 60
1, 48052, Note_on_c, 0, 61, 78
1, 48055, Note_on_c, 0, 65, 81
1, 48061, Note_on_c, 0, 85, 97
1, 48062, Note_on_c, 0, 89, 99
1, 48103, Note_off_c, 0, 53, 56
1, 48115, Note_off_c, 0, 85, 60
1, 48121, Note_on_c, 0, 86, 5
1, 48154, Note_on_c, 0, 87, 69
1, 48158, Note_on_c, 0, 88, 82
1, 48159, Note_off_c, 0, 61, 58
1, 48169, Note_off_c, 0, 65, 61
1, 48174, Note_off_c, 0, 86, 34
1, 48206, Note_off_c, 0, 89, 29
1, 48208, Note_off_c, 0, 88, 62
1, 48214, Note_off_c, 0, 87, 64
1, 48221, Note_on_c, 0, 86, 69
1, 48222, Note_on_c, 0, 53, 77
1, 48263, Note_off_c, 0, 86, 64
1, 48267, Control_c, 0, 64, 73
1, 48282, Control_c, 0, 64, 58
1, 48295, Note_on_c, 0, 85, 89
1, 48297, Control_c, 0, 64, 59
1, 48301, Note_on_c, 0, 60, 72
1, 48301, Note_on_c, 0, 65, 82
1, 48306, Note_on_c, 0, 64, 74
1, 48307, Note_off_c, 0, 53, 56
1, 48312, Control_c, 0, 64, 69
1, 48326, Control_c, 0, 64, 102
1, 48341, Control_c, 0, 64, 127
1, 48356, Note_off_c, 0, 65, 63
1, 48365, Note_on_c, 0, 82, 84
1, 48369, Note_off_c, 0, 64, 62
1, 48371, Note_off_c, 0, 60, 61
1, 48387, Note_off_c, 0, 85, 65
1, 48422, Note_off_c, 0, 82, 63
1, 48433, Note_on_c, 0, 53, 79
1, 48436, Note_on_c, 0, 78, 78
1, 48444, Control_c, 0, 64, 115
1, 48455, Note_off_c, 0, 78, 71
1, 48459, Control_c, 0, 64, 60
1, 48474, Control_c, 0, 64, 0
1, 48503, Note_on_c, 0, 65, 84
1, 48504, Control_c, 0, 64, 47
1, 48507, Note_on_c, 0, 59, 68
1, 48507, Note_on_c, 0, 77, 71
1, 48508, Note_on_c, 0, 63, 77
1, 48512, Note_on_c, 0, 76, 77
1, 48518, Control_c, 0, 64, 71
1, 48524, Note_off_c, 0, 53, 63
1, 48533, Control_c, 0, 64, 101
1, 48548, Control_c, 0, 64, 127
1, 48562, Note_off_c, 0, 65, 63
1, 48575, Note_on_c, 0, 75, 79
1, 48600, Note_off_c, 0, 59, 61
1, 48600, Note_off_c, 0, 76, 61
1, 48601, Note_off_c, 0, 77, 63
1, 48612, Note_off_c, 0, 63, 60
1, 48622, Note_off_c, 0, 75, 67
1, 48636, Note_on_c, 0, 53, 81
1, 48645, Note_on_c, 0, 74, 69
1, 48652, Control_c, 0, 64, 92
1, 48667, Control_c, 0, 64, 52
1, 48689, Control_c, 0, 64, 0
1, 48701, Note_off_c, 0, 74, 61
1, 48711, Note_on_c, 0, 65, 86
1, 48712, Note_on_c, 0, 58, 82
1, 48716, Note_on_c, 0, 73, 90
1, 48728, Note_on_c, 0, 61, 75
1, 48733, Control_c, 0, 64, 62
1, 48748, Control_c, 0, 64, 85
1, 48763, Control_c, 0, 64, 127
1, 48766, Note_off_c, 0, 65, 63
1, 48785, Note_on_c, 0, 70, 83
1, 48795, Note_off_c, 0, 61, 60
1, 48804, Note_off_c, 0, 73, 63
1, 48807, Note_off_c, 0, 58, 61
1, 48835, Note_off_c, 0, 53, 62
1, 48848, Note_off_c, 0, 70, 67
1, 48863, Note_on_c, 0, 66, 68
1, 48887, Note_off_c, 0, 66, 64
1, 48896, Control_c, 0, 64, 102
1, 48911, Control_c, 0, 64, 63
1, 48926, Control_c, 0, 64, 0
1, 48927, Note_on_c, 0, 65, 85
1, 48932, Note_on_c, 0, 53, 82
1, 48956, Control_c, 0, 64, 58
1, 48971, Control_c, 0, 64, 95
1, 48986, Control_c, 0, 64, 127
1, 48998, Note_on_c, 0, 63, 85
1, 49004, Note_off_c, 0, 53, 61
1, 49010, Note_on_c, 0, 51, 75
1, 49025, Note_off_c, 0, 65, 62
1, 49048, Note_on_c, 0, 50, 72
1, 49052, Note_off_c, 0, 63, 66
1, 49059, Note_off_c, 0, 51, 62
1, 49066, Note_on_c, 0, 62, 71
1, 49081, Note_off_c, 0, 50, 64
1, 49110, Note_off_c, 0, 62, 60
1, 49124, Note_on_c, 0, 61, 88
1, 49126, Note_on_c, 0, 49, 83
1, 49192, Note_on_c, 0, 58, 81
1, 49201, Note_off_c, 0, 61, 63
1, 49221, Note_on_c, 0, 46, 65
1, 49254, Note_off_c, 0, 49, 58
1, 49257, Note_off_c, 0, 58, 66
1, 49269, Note_on_c, 0, 54, 71
1, 49283, Note_off_c, 0, 46, 63
1, 49291, Note_off_c, 0, 54, 66
1, 49299, Note_on_c, 0, 41, 59
1, 49325, Note_on_c, 0, 55, 83
1, 49330, Note_off_c, 0, 41, 63
1, 49387, Note_on_c, 0, 51, 93
1, 49397, Note_off_c, 0, 55, 63
1, 49454, Control_c, 0, 64, 92
1, 49454, Note_on_c, 0, 52, 10
1, 49454, Note_off_c, 0, 51, 63
1, 49465, Note_on_c, 0, 50, 80
1, 49469, Control_c, 0, 64, 0
1, 49503, Note_off_c, 0, 52, 36
1, 49520, Note_off_c, 0, 50, 62
1, 49559, Note_on_c, 0, 37, 111
1, 49561, Note_on_c, 0, 49, 97
1, 49561, Note_on_c, 0, 25, 106
1, 49572, Control_c, 0, 64, 127
1, 49572, Control_c, 0, 67, 52
1, 49584, Note_off_c, 0, 49, 68
1, 49586, Note_off_c, 0, 25, 68
1, 49587, Control_c, 0, 67, 53
1, 49598, Note_off_c, 0, 37, 60
1, 49602, Control_c, 0, 67, 54
1, 49616, Control_c, 0, 67, 53
1, 49631, Control_c, 0, 67, 53
1, 49646, Control_c, 0, 67, 55
1, 49661, Control_c, 0, 67, 51
1, 49676, Control_c, 0, 67, 44
1, 49687, Poly_aftertouch_c, 0, 24, 0
1, 49690, Control_c, 0, 67, 39
1, 49705, Control_c, 0, 67, 37
1, 49706, Poly_aftertouch_c, 0, 25, 127
1, 49720, Control_c, 0, 67, 39
1, 49735, Control_c, 0, 67, 42
1, 49740, Poly_aftertouch_c, 0, 25, 0
1, 49750, Control_c, 0, 67, 41
1, 49764, Control_c, 0, 67, 38
1, 49779, Control_c, 0, 67, 34
1, 49794, Control_c, 0, 67, 30
1, 49854, Control_c, 0, 67, 28
1, 49869, Control_c, 0, 67, 26
1, 49884, Control_c, 0, 67, 23
1, 49921, Note_on_c, 0, 53, 62
1, 49925, Note_on_c, 0, 49, 59
1, 49925, Note_on_c, 0, 65, 73
1, 49931, Note_on_c, 0, 58, 58
1, 49934, Note_on_c, 0, 41, 53
1, 49934, Note_on_c, 0, 61, 65
1, 49948, Note_on_c, 0, 46, 63
1, 49958, Control_c, 0, 67, 20
1, 50047, Control_c, 0, 67, 0
1, 50247, Note_off_c, 0, 58, 57
1, 50254, Note_off_c, 0, 65, 50
1, 50258, Note_off_c, 0, 53, 59
1, 50267, Note_off_c, 0, 49, 61
1, 50277, Note_off_c, 0, 46, 60
1, 50298, Note_off_c, 0, 41, 34
1, 50334, Note_off_c, 0, 61, 0
1, 50339, Note_on_c, 0, 41, 55
1, 50342, Note_on_c, 0, 65, 69
1, 50342, Note_on_c, 0, 46, 66
1, 50345, Note_on_c, 0, 53, 73
1, 50345, Note_on_c, 0, 61, 48
1, 50348, Note_on_c, 0, 58, 72
1, 50360, Note_on_c, 0, 49, 59
1, 50408, Note_off_c, 0, 49, 60
1, 50409, Note_off_c, 0, 46, 62
1, 50411, Note_off_c, 0, 53, 57
1, 50413, Note_off_c, 0, 41, 53
1, 50473, Note_off_c, 0, 58, 29
1, 50503, Note_off_c, 0, 61, 23
1, 50537, Note_off_c, 0, 65, 35
1, 50589, Note_on_c, 0, 41, 65
1, 50592, Note_on_c, 0, 61, 68
1, 50595, Note_on_c, 0, 53, 73
1, 50596, Note_on_c, 0, 46, 69
1, 50600, Note_on_c, 0, 49, 66
1, 50601, Note_on_c, 0, 65, 64
1, 50605, Note_on_c, 0, 58, 56
1, 50616, Note_off_c, 0, 41, 62
1, 50618, Note_off_c, 0, 61, 65
1, 50623, Note_off_c, 0, 46, 64
1, 50625, Note_off_c, 0, 53, 63
1, 50626, Note_off_c, 0, 49, 66
1, 50626, Note_off_c, 0, 65, 66
1, 50632, Note_off_c, 0, 58, 57
1, 50756, Note_on_c, 0, 53, 2
1, 50760, Note_on_c, 0, 49, 59
1, 50765, Control_c, 0, 64, 68
1, 50766, Note_on_c, 0, 44, 97
1, 50767, Note_on_c, 0, 56, 109
1, 50777, Note_on_c, 0, 68, 101
1, 50777, Note_on_c, 0, 77, 79
1, 50780, Note_on_c, 0, 80, 94
1, 50780, Note_on_c, 0, 73, 92
1, 50780, Control_c, 0, 64, 0
1, 50795, Control_c, 0, 67, 28
1, 50810, Control_c, 0, 67, 40
1, 50825, Control_c, 0, 67, 43
1, 50825, Note_on_c, 0, 46, 35
1, 50840, Control_c, 0, 67, 43
1, 50861, Note_off_c, 0, 46, 54
1, 50869, Control_c, 0, 64, 47
1, 50882, Note_off_c, 0, 44, 63
1, 50884, Control_c, 0, 64, 71
1, 50899, Control_c, 0, 64, 127
1, 50899, Control_c, 0, 67, 42
1, 50914, Control_c, 0, 67, 41
1, 50914, Note_off_c, 0, 49, 62
1, 50934, Note_off_c, 0, 53, 50
1, 50935, Control_c, 0, 67, 39
1, 50944, Note_off_c, 0, 73, 61
1, 50947, Note_off_c, 0, 77, 63
1, 50948, Note_off_c, 0, 56, 61
1, 50950, Control_c, 0, 67, 38
1, 50965, Control_c, 0, 67, 38
1, 50982, Note_off_c, 0, 80, 61
1, 51025, Control_c, 0, 67, 37
1, 51096, Note_off_c, 0, 68, 60
1, 51135, Note_on_c, 0, 61, 62
1, 51135, Note_on_c, 0, 53, 45
1, 51135, Note_on_c, 0, 70, 64
1, 51137, Note_on_c, 0, 77, 63
1, 51140, Note_on_c, 0, 58, 62
1, 51140, Note_on_c, 0, 65, 71
1, 51141, Note_on_c, 0, 73, 59
1, 51143, Control_c, 0, 67, 36
1, 51172, Control_c, 0, 67, 36
1, 51232, Control_c, 0, 67, 35
1, 51261, Control_c, 0, 67, 34
1, 51396, Control_c, 0, 67, 34
1, 51435, Note_off_c, 0, 77, 30
1, 51453, Note_off_c, 0, 65, 51
1, 51457, Note_off_c, 0, 53, 56
1, 51474, Note_off_c, 0, 61, 59
1, 51476, Note_off_c, 0, 58, 61
1, 51484, Note_off_c, 0, 70, 36
1, 51513, Note_off_c, 0, 73, 37
1, 51515, Control_c, 0, 67, 34
1, 51545, Control_c, 0, 67, 35
1, 51574, Control_c, 0, 67, 35
1, 51589, Control_c, 0, 67, 36
1, 51594, Note_on_c, 0, 65, 77
1, 51597, Note_on_c, 0, 58, 66
1, 51597, Note_on_c, 0, 61, 69
1, 51598, Note_on_c, 0, 53, 68
1, 51600, Note_on_c, 0, 77, 62
1, 51603, Control_c, 0, 67, 37
1, 51621, Note_on_c, 0, 70, 64
1, 51626, Note_on_c, 0, 73, 60
1, 51633, Control_c, 0, 67, 34
1, 51648, Control_c, 0, 67, 29
1, 51656, Note_off_c, 0, 65, 57
1, 51658, Note_off_c, 0, 61, 59
1, 51662, Note_off_c, 0, 58, 61
1, 51662, Note_off_c, 0, 73, 60
1, 51663, Control_c, 0, 67, 0
1, 51666, Note_off_c, 0, 53, 47
1, 51678, Note_off_c, 0, 70, 54
1, 51731, Note_off_c, 0, 77, 32
1, 51859, Note_on_c, 0, 53, 76
1, 51861, Note_on_c, 0, 65, 69
1, 51862, Note_on_c, 0, 77, 70
1, 51868, Note_on_c, 0, 70, 79
1, 51870, Note_on_c, 0, 61, 65
1, 51877, Note_on_c, 0, 58, 52
1, 51878, Note_off_c, 0, 65, 65
1, 51880, Note_off_c, 0, 77, 67
1, 51881, Note_on_c, 0, 73, 50
1, 51887, Note_off_c, 0, 61, 65
1, 51892, Note_off_c, 0, 70, 68
1, 51900, Note_off_c, 0, 58, 61
1, 51903, Note_off_c, 0, 53, 63
1, 51904, Note_off_c, 0, 73, 59
1, 51981, Control_c, 0, 64, 75
1, 51996, Control_c, 0, 64, 0
1, 52026, Note_on_c, 0, 37, 108
1, 52026, Control_c, 0, 64, 38
1, 52034, Note_on_c, 0, 25, 85
1, 52035, Note_on_c, 0, 49, 96
1, 52038, Note_on_c, 0, 61, 80
1, 52041, Control_c, 0, 64, 66
1, 52045, Note_on_c, 0, 27, 65
1, 52050, Note_off_c, 0, 37, 65
1, 52056, Note_off_c, 0, 49, 71
1, 52056, Control_c, 0, 64, 127
1, 52060, Note_off_c, 0, 61, 69
1, 52066, Note_off_c, 0, 25, 64
1, 52077, Note_off_c, 0, 27, 59
1, 52148, Poly_aftertouch_c, 0, 39, 0
1, 52330, Note_on_c, 0, 53, 75
1, 52372, Note_on_c, 0, 77, 85
1, 52454, Note_off_c, 0, 77, 57
1, 52473, Note_on_c, 0, 61, 84
1, 52479, Note_on_c, 0, 65, 94
1, 52484, Note_on_c, 0, 89, 89
1, 52488, Note_on_c, 0, 85, 97
1, 52493, Control_c, 0, 64, 71
1, 52495, Note_off_c, 0, 53, 59
1, 52507, Control_c, 0, 64, 60
1, 52522, Control_c, 0, 64, 66
1, 52537, Control_c, 0, 64, 85
1, 52551, Note_off_c, 0, 65, 62
1, 52552, Note_off_c, 0, 61, 59
1, 52552, Control_c, 0, 64, 127
1, 52562, Note_off_c, 0, 85, 64
1, 52567, Control_c, 0, 67, 21
1, 52571, Note_on_c, 0, 87, 86
1, 52584, Note_off_c, 0, 89, 64
1, 52596, Control_c, 0, 67, 29
1, 52611, Control_c, 0, 67, 35
1, 52625, Control_c, 0, 67, 36
1, 52634, Note_off_c, 0, 87, 64
1, 52640, Control_c, 0, 67, 31
1, 52641, Note_on_c, 0, 86, 79
1, 52643, Note_on_c, 0, 53, 82
1, 52655, Control_c, 0, 67, 29
1, 52670, Control_c, 0, 64, 74
1, 52682, Note_off_c, 0, 86, 65
1, 52685, Control_c, 0, 64, 54
1, 52685, Control_c, 0, 67, 33
1, 52700, Control_c, 0, 64, 54
1, 52700, Control_c, 0, 67, 36
1, 52702, Note_on_c, 0, 84, 19
1, 52703, Note_on_c, 0, 60, 79
1, 52706, Note_on_c, 0, 64, 82
1, 52706, Note_on_c, 0, 65, 90
1, 52709, Note_on_c, 0, 85, 94
1, 52715, Control_c, 0, 64, 65
1, 52715, Control_c, 0, 67, 40
1, 52722, Note_off_c, 0, 84, 34
1, 52730, Control_c, 0, 64, 91
1, 52730, Control_c, 0, 67, 47
1, 52733, Note_off_c, 0, 53, 60
1, 52745, Control_c, 0, 64, 127
1, 52745, Control_c, 0, 67, 48
1, 52759, Control_c, 0, 67, 48
1, 52765, Note_off_c, 0, 65, 63
1, 52772, Note_off_c, 0, 64, 61
1, 52782, Note_on_c, 0, 82, 85
1, 52784, Note_off_c, 0, 60, 62
1, 52802, Note_off_c, 0, 85, 64
1, 52818, Control_c, 0, 67, 46
1, 52833, Control_c, 0, 67, 42
1, 52836, Note_off_c, 0, 82, 65
1, 52837, Note_on_c, 0, 53, 90
1, 52848, Control_c, 0, 67, 38
1, 52849, Note_on_c, 0, 78, 78
1, 52863, Control_c, 0, 64, 73
1, 52863, Control_c, 0, 67, 35
1, 52869, Note_off_c, 0, 78, 71
1, 52878, Control_c, 0, 64, 50
1, 52878, Control_c, 0, 67, 34
1, 52892, Control_c, 0, 64, 48
1, 52907, Control_c, 0, 64, 64
1, 52907, Control_c, 0, 67, 35
1, 52909, Note_on_c, 0, 65, 87
1, 52909, Note_on_c, 0, 77, 73
1, 52911, Note_on_c, 0, 63, 89
1, 52914, Note_on_c, 0, 59, 80
1, 52922, Control_c, 0, 64, 91
1, 52922, Control_c, 0, 67, 35
1, 52937, Note_off_c, 0, 53, 62
1, 52937, Control_c, 0, 64, 127
1, 52937, Control_c, 0, 67, 34
1, 52951, Control_c, 0, 67, 33
1, 52965, Note_off_c, 0, 65, 64
1, 52966, Control_c, 0, 67, 32
1, 52985, Note_on_c, 0, 75, 80
1, 52986, Note_off_c, 0, 63, 61
1, 52995, Note_off_c, 0, 59, 59
1, 52996, Control_c, 0, 67, 33
1, 53001, Note_off_c, 0, 77, 63
1, 53011, Control_c, 0, 67, 32
1, 53026, Control_c, 0, 67, 20
1, 53032, Note_on_c, 0, 53, 88
1, 53040, Control_c, 0, 67, 0
1, 53042, Note_off_c, 0, 75, 67
1, 53047, Note_on_c, 0, 74, 73
1, 53055, Control_c, 0, 64, 84
1, 53070, Control_c, 0, 64, 45
1, 53085, Control_c, 0, 64, 0
1, 53094, Note_off_c, 0, 74, 63
1, 53103, Note_on_c, 0, 58, 87
1, 53105, Note_on_c, 0, 65, 91
1, 53114, Control_c, 0, 67, 22
1, 53115, Note_on_c, 0, 61, 78
1, 53115, Note_on_c, 0, 73, 94
1, 53129, Control_c, 0, 64, 55
1, 53129, Control_c, 0, 67, 24
1, 53144, Control_c, 0, 64, 81
1, 53144, Control_c, 0, 67, 20
1, 53149, Note_off_c, 0, 65, 65
1, 53167, Control_c, 0, 64, 127
1, 53188, Note_off_c, 0, 61, 62
1, 53195, Note_on_c, 0, 70, 82
1, 53195, Note_off_c, 0, 58, 64
1, 53196, Control_c, 0, 67, 23
1, 53202, Note_off_c, 0, 73, 66
1, 53206, Note_off_c, 0, 53, 63
1, 53211, Control_c, 0, 67, 28
1, 53226, Control_c, 0, 67, 34
1, 53241, Control_c, 0, 67, 36
1, 53255, Note_off_c, 0, 70, 66
1, 53255, Control_c, 0, 67, 34
1, 53270, Control_c, 0, 67, 34
1, 53271, Note_on_c, 0, 66, 72
1, 53285, Control_c, 0, 67, 33
1, 53296, Note_off_c, 0, 66, 67
1, 53300, Control_c, 0, 67, 33
1, 53338, Note_on_c, 0, 53, 68
1, 53344, Note_on_c, 0, 65, 72
1, 53344, Control_c, 0, 67, 32
1, 53353, Note_on_c, 0, 64, 59
1, 53359, Control_c, 0, 67, 32
1, 53368, Note_on_c, 0, 52, 36
1, 53374, Control_c, 0, 67, 32
1, 53379, Note_off_c, 0, 64, 0
1, 53388, Control_c, 0, 67, 33
1, 53397, Note_off_c, 0, 53, 60
1, 53403, Note_off_c, 0, 52, 33
1, 53403, Control_c, 0, 67, 34
1, 53412, Note_on_c, 0, 51, 72
1, 53417, Poly_aftertouch_c, 0, 64, 127
1, 53424, Note_off_c, 0, 65, 59
1, 53424, Note_on_c, 0, 62, 75
1, 53433, Control_c, 0, 67, 35
1, 53444, Note_on_c, 0, 63, 20
1, 53445, Note_off_c, 0, 51, 63
1, 53448, Control_c, 0, 67, 37
1, 53448, Note_on_c, 0, 50, 68
1, 53469, Note_off_c, 0, 62, 60
1, 53475, Poly_aftertouch_c, 0, 64, 0
1, 53478, Control_c, 0, 67, 36
1, 53481, Note_on_c, 0, 60, 62
1, 53487, Note_off_c, 0, 63, 52
1, 53493, Control_c, 0, 67, 35
1, 53493, Note_off_c, 0, 50, 61
1, 53511, Note_on_c, 0, 62, 22
1, 53523, Note_off_c, 0, 60, 62
1, 53540, Note_on_c, 0, 49, 77
1, 53546, Note_on_c, 0, 61, 84
1, 53549, Note_off_c, 0, 62, 54
1, 53581, Control_c, 0, 67, 34
1, 53582, Note_on_c, 0, 60, 58
1, 53618, Note_off_c, 0, 60, 65
1, 53619, Note_on_c, 0, 58, 81
1, 53619, Note_off_c, 0, 61, 60
1, 53627, Note_on_c, 0, 46, 73
1, 53647, Note_off_c, 0, 49, 61
1, 53655, Control_c, 0, 67, 33
1, 53670, Control_c, 0, 67, 31
1, 53682, Note_off_c, 0, 58, 60
1, 53693, Note_on_c, 0, 54, 77
1, 53700, Control_c, 0, 67, 27
1, 53714, Note_off_c, 0, 46, 61
1, 53714, Note_off_c, 0, 54, 67
1, 53714, Control_c, 0, 67, 23
1, 53717, Note_on_c, 0, 41, 56
1, 53729, Control_c, 0, 67, 0
1, 53742, Note_off_c, 0, 41, 58
1, 53763, Note_on_c, 0, 53, 70
1, 53806, Note_on_c, 0, 55, 16
1, 53828, Note_on_c, 0, 51, 87
1, 53836, Note_off_c, 0, 53, 61
1, 53847, Note_off_c, 0, 55, 47
1, 53889, Note_off_c, 0, 51, 63
1, 53895, Note_on_c, 0, 50, 81
1, 54019, Control_c, 0, 64, 120
1, 54034, Note_off_c, 0, 50, 60
1, 54034, Control_c, 0, 64, 65
1, 54036, Note_on_c, 0, 42, 81
1, 54037, Note_on_c, 0, 30, 79
1, 54049, Control_c, 0, 64, 0
1, 54108, Control_c, 0, 67, 19
1, 54123, Control_c, 0, 67, 23
1, 54149, Note_on_c, 0, 50, 55
1, 54152, Control_c, 0, 67, 26
1, 54167, Control_c, 0, 67, 31
1, 54178, Note_on_c, 0, 51, 19
1, 54178, Note_off_c, 0, 51, 127
1, 54180, Note_off_c, 0, 50, 64
1, 54182, Control_c, 0, 64, 50
1, 54182, Control_c, 0, 67, 41
1, 54196, Control_c, 0, 64, 62
1, 54196, Control_c, 0, 67, 61
1, 54197, Note_off_c, 0, 30, 62
1, 54211, Control_c, 0, 64, 68
1, 54211, Control_c, 0, 67, 87
1, 54226, Control_c, 0, 64, 73
1, 54226, Control_c, 0, 67, 110
1, 54229, Note_off_c, 0, 42, 64
1, 54241, Control_c, 0, 64, 84
1, 54241, Control_c, 0, 67, 119
1, 54256, Control_c, 0, 64, 111
1, 54271, Control_c, 0, 64, 127
1, 54286, Control_c, 0, 67, 125
1, 54301, Control_c, 0, 67, 127
1, 54412, Note_on_c, 0, 49, 59
1, 54431, Note_on_c, 0, 78, 72
1, 54498, Note_off_c, 0, 78, 63
1, 54502, Note_off_c, 0, 49, 58
1, 54509, Note_on_c, 0, 58, 69
1, 54515, Note_on_c, 0, 73, 69
1, 54515, Note_on_c, 0, 77, 47
1, 54540, Note_off_c, 0, 58, 65
1, 54564, Note_off_c, 0, 73, 64
1, 54591, Note_off_c, 0, 77, 64
1, 54603, Note_on_c, 0, 70, 58
1, 54634, Note_on_c, 0, 51, 73
1, 54649, Note_off_c, 0, 70, 58
1, 54670, Note_on_c, 0, 78, 84
1, 54705, Note_off_c, 0, 51, 61
1, 54728, Note_on_c, 0, 75, 69
1, 54729, Note_on_c, 0, 72, 69
1, 54730, Note_on_c, 0, 60, 73
1, 54760, Note_off_c, 0, 78, 62
1, 54762, Note_off_c, 0, 60, 66
1, 54805, Note_off_c, 0, 72, 63
1, 54811, Note_on_c, 0, 68, 68
1, 54811, Note_off_c, 0, 75, 63
1, 54826, Note_on_c, 0, 53, 62
1, 54828, Control_c, 0, 67, 119
1, 54843, Control_c, 0, 67, 114
1, 54858, Control_c, 0, 67, 105
1, 54868, Note_on_c, 0, 78, 83
1, 54869, Note_off_c, 0, 68, 63
1, 54873, Control_c, 0, 67, 87
1, 54888, Control_c, 0, 67, 66
1, 54902, Control_c, 0, 67, 48
1, 54903, Note_off_c, 0, 53, 61
1, 54909, Note_on_c, 0, 61, 77
1, 54917, Control_c, 0, 67, 39
1, 54932, Control_c, 0, 67, 36
1, 54933, Note_on_c, 0, 73, 81
1, 54933, Note_on_c, 0, 70, 80
1, 54938, Note_off_c, 0, 61, 64
1, 54947, Control_c, 0, 67, 34
1, 54962, Control_c, 0, 67, 33
1, 54972, Note_off_c, 0, 78, 63
1, 54991, Control_c, 0, 67, 33
1, 55005, Note_off_c, 0, 70, 62
1, 55006, Control_c, 0, 67, 34
1, 55008, Note_on_c, 0, 66, 79
1, 55019, Note_off_c, 0, 73, 60
1, 55035, Control_c, 0, 64, 72
1, 55050, Control_c, 0, 64, 0
1, 55057, Note_on_c, 0, 44, 75
1, 55062, Note_off_c, 0, 66, 62
1, 55085, Note_on_c, 0, 78, 75
1, 55094, Control_c, 0, 67, 37
1, 55109, Control_c, 0, 67, 37
1, 55124, Control_c, 0, 64, 49
1, 55138, Control_c, 0, 64, 62
1, 55145, Note_on_c, 0, 54, 75
1, 55150, Note_on_c, 0, 72, 62
1, 55150, Note_off_c, 0, 44, 63
1, 55153, Control_c, 0, 64, 69
1, 55157, Note_on_c, 0, 68, 67
1, 55168, Note_off_c, 0, 78, 63
1, 55168, Control_c, 0, 64, 75
1, 55179, Note_off_c, 0, 54, 64
1, 55183, Control_c, 0, 64, 80
1, 55183, Control_c, 0, 67, 38
1, 55197, Note_off_c, 0, 72, 62
1, 55198, Control_c, 0, 64, 84
1, 55201, Note_off_c, 0, 68, 62
1, 55213, Note_on_c, 0, 63, 43
1, 55213, Control_c, 0, 64, 91
1, 55228, Control_c, 0, 64, 102
1, 55228, Control_c, 0, 67, 37
1, 55241, Note_off_c, 0, 63, 55
1, 55243, Control_c, 0, 64, 127
1, 55243, Control_c, 0, 67, 37
1, 55257, Control_c, 0, 67, 36
1, 55293, Note_on_c, 0, 51, 68
1, 55305, Note_on_c, 0, 80, 84
1, 55317, Control_c, 0, 67, 35
1, 55356, Note_on_c, 0, 78, 76
1, 55357, Note_off_c, 0, 51, 60
1, 55362, Note_on_c, 0, 75, 68
1, 55371, Note_on_c, 0, 60, 74
1, 55392, Control_c, 0, 67, 34
1, 55395, Note_off_c, 0, 80, 61
1, 55401, Note_off_c, 0, 60, 68
1, 55406, Control_c, 0, 67, 33
1, 55429, Control_c, 0, 67, 33
1, 55439, Note_on_c, 0, 72, 74
1, 55439, Note_off_c, 0, 75, 62
1, 55443, Note_off_c, 0, 78, 63
1, 55473, Control_c, 0, 67, 32
1, 55488, Control_c, 0, 67, 30
1, 55491, Note_off_c, 0, 72, 60
1, 55497, Note_on_c, 0, 53, 73
1, 55503, Control_c, 0, 67, 23
1, 55505, Note_on_c, 0, 80, 86
1, 55517, Control_c, 0, 67, 0
1, 55558, Note_on_c, 0, 73, 80
1, 55564, Note_on_c, 0, 61, 76
1, 55564, Note_off_c, 0, 53, 61
1, 55566, Note_on_c, 0, 77, 76
1, 55613, Note_off_c, 0, 80, 61
1, 55616, Note_off_c, 0, 61, 60
1, 55621, Note_off_c, 0, 73, 65
1, 55630, Note_off_c, 0, 77, 64
1, 55639, Note_on_c, 0, 70, 78
1, 55683, Note_on_c, 0, 54, 71
1, 55696, Note_on_c, 0, 80, 84
1, 55705, Note_off_c, 0, 70, 63
1, 55757, Note_on_c, 0, 75, 82
1, 55758, Note_on_c, 0, 63, 76
1, 55758, Note_on_c, 0, 72, 74
1, 55760, Note_off_c, 0, 54, 57
1, 55784, Note_off_c, 0, 63, 66
1, 55790, Note_on_c, 0, 73, 25
1, 55790, Note_off_c, 0, 80, 63
1, 55814, Note_off_c, 0, 72, 64
1, 55826, Note_on_c, 0, 66, 75
1, 55827, Note_off_c, 0, 73, 55
1, 55833, Note_off_c, 0, 75, 63
1, 55873, Control_c, 0, 64, 76
1, 55876, Note_off_c, 0, 66, 54
1, 55886, Note_on_c, 0, 46, 81
1, 55888, Control_c, 0, 64, 0
1, 55897, Note_on_c, 0, 80, 82
1, 55928, Note_on_c, 0, 78, 54
1, 55932, Control_c, 0, 64, 41
1, 55947, Control_c, 0, 64, 65
1, 55951, Note_off_c, 0, 78, 40
1, 55952, Note_on_c, 0, 73, 68
1, 55955, Note_on_c, 0, 70, 74
1, 55961, Control_c, 0, 64, 79
1, 55961, Control_c, 0, 67, 19
1, 55962, Note_off_c, 0, 46, 62
1, 55967, Note_off_c, 0, 80, 64
1, 55969, Note_on_c, 0, 56, 76
1, 55976, Control_c, 0, 64, 94
1, 55976, Control_c, 0, 67, 22
1, 55991, Control_c, 0, 64, 103
1, 56006, Note_off_c, 0, 56, 61
1, 56006, Control_c, 0, 64, 127
1, 56009, Note_off_c, 0, 70, 62
1, 56013, Note_off_c, 0, 73, 62
1, 56023, Note_on_c, 0, 65, 68
1, 56035, Control_c, 0, 67, 20
1, 56049, Note_off_c, 0, 65, 66
1, 56105, Note_on_c, 0, 53, 76
1, 56107, Note_on_c, 0, 82, 87
1, 56110, Control_c, 0, 67, 0
1, 56170, Note_on_c, 0, 80, 77
1, 56181, Note_on_c, 0, 61, 78
1, 56182, Note_on_c, 0, 77, 61
1, 56185, Note_off_c, 0, 53, 59
1, 56215, Note_off_c, 0, 82, 61
1, 56227, Note_off_c, 0, 61, 62
1, 56243, Note_off_c, 0, 77, 63
1, 56247, Note_off_c, 0, 80, 64
1, 56249, Note_on_c, 0, 73, 75
1, 56296, Control_c, 0, 64, 112
1, 56301, Note_off_c, 0, 73, 61
1, 56302, Note_on_c, 0, 54, 78
1, 56306, Note_on_c, 0, 82, 90
1, 56311, Control_c, 0, 64, 108
1, 56326, Control_c, 0, 64, 127
1, 56360, Note_on_c, 0, 75, 75
1, 56363, Note_off_c, 0, 54, 62
1, 56369, Note_on_c, 0, 78, 83
1, 56373, Note_on_c, 0, 63, 84
1, 56392, Note_off_c, 0, 82, 63
1, 56414, Note_off_c, 0, 63, 60
1, 56417, Note_off_c, 0, 75, 64
1, 56431, Note_off_c, 0, 78, 64
1, 56437, Note_on_c, 0, 72, 71
1, 56478, Note_off_c, 0, 72, 62
1, 56483, Note_on_c, 0, 56, 79
1, 56494, Note_on_c, 0, 82, 90
1, 56553, Note_on_c, 0, 65, 82
1, 56554, Note_on_c, 0, 73, 75
1, 56557, Note_off_c, 0, 56, 51
1, 56557, Note_on_c, 0, 77, 78
1, 56582, Note_off_c, 0, 82, 63
1, 56587, Note_on_c, 0, 80, 31
1, 56589, Note_off_c, 0, 65, 62
1, 56602, Note_on_c, 0, 78, 4
1, 56620, Note_off_c, 0, 73, 65
1, 56622, Note_off_c, 0, 77, 63
1, 56625, Note_off_c, 0, 80, 46
1, 56626, Note_on_c, 0, 70, 74
1, 56640, Note_off_c, 0, 78, 26
1, 56666, Control_c, 0, 64, 89
1, 56681, Note_off_c, 0, 70, 61
1, 56681, Control_c, 0, 64, 55
1, 56686, Note_on_c, 0, 48, 75
1, 56688, Note_on_c, 0, 82, 79
1, 56696, Control_c, 0, 64, 0
1, 56710, Control_c, 0, 67, 21
1, 56726, Control_c, 0, 67, 26
1, 56741, Control_c, 0, 64, 58
1, 56741, Control_c, 0, 67, 30
1, 56747, Note_off_c, 0, 48, 64
1, 56751, Note_on_c, 0, 75, 72
1, 56756, Control_c, 0, 64, 72
1, 56761, Note_on_c, 0, 58, 82
1, 56764, Note_off_c, 0, 82, 62
1, 56771, Control_c, 0, 64, 90
1, 56771, Control_c, 0, 67, 32
1, 56772, Note_on_c, 0, 72, 49
1, 56785, Control_c, 0, 64, 127
1, 56785, Control_c, 0, 67, 33
1, 56789, Note_off_c, 0, 58, 65
1, 56796, Note_off_c, 0, 72, 62
1, 56800, Control_c, 0, 67, 36
1, 56808, Note_off_c, 0, 75, 63
1, 56815, Control_c, 0, 67, 39
1, 56830, Control_c, 0, 67, 41
1, 56831, Note_on_c, 0, 66, 49
1, 56856, Note_off_c, 0, 66, 56
1, 56859, Control_c, 0, 67, 39
1, 56895, Note_on_c, 0, 61, 69
1, 56904, Control_c, 0, 67, 40
1, 56919, Note_on_c, 0, 60, 77
1, 56919, Note_on_c, 0, 84, 82
1, 56926, Control_c, 0, 67, 40
1, 56931, Note_off_c, 0, 61, 0
1, 56931, Note_on_c, 0, 61, 35
1, 56941, Control_c, 0, 64, 93
1, 56956, Control_c, 0, 64, 69
1, 56971, Control_c, 0, 64, 64
1, 56983, Note_on_c, 0, 68, 93
1, 56986, Control_c, 0, 64, 73
1, 56991, Note_on_c, 0, 82, 72
1, 56996, Note_off_c, 0, 84, 60
1, 57000, Note_off_c, 0, 60, 65
1, 57001, Control_c, 0, 64, 110
1, 57001, Control_c, 0, 67, 41
1, 57003, Note_on_c, 0, 78, 54
1, 57016, Control_c, 0, 64, 127
1, 57027, Note_off_c, 0, 61, 40
1, 57031, Control_c, 0, 67, 41
1, 57035, Note_off_c, 0, 68, 64
1, 57046, Control_c, 0, 67, 42
1, 57049, Note_off_c, 0, 78, 47
1, 57052, Note_off_c, 0, 82, 62
1, 57061, Control_c, 0, 67, 42
1, 57076, Control_c, 0, 67, 43
1, 57084, Note_on_c, 0, 72, 33
1, 57090, Control_c, 0, 67, 43
1, 57105, Control_c, 0, 67, 44
1, 57120, Note_off_c, 0, 72, 44
1, 57120, Control_c, 0, 67, 45
1, 57134, Note_on_c, 0, 51, 64
1, 57135, Control_c, 0, 67, 47
1, 57137, Note_on_c, 0, 61, 63
1, 57141, Note_on_c, 0, 84, 75
1, 57150, Control_c, 0, 64, 88
1, 57150, Control_c, 0, 67, 55
1, 57159, Note_off_c, 0, 51, 64
1, 57165, Control_c, 0, 64, 69
1, 57165, Control_c, 0, 67, 68
1, 57180, Control_c, 0, 64, 65
1, 57180, Control_c, 0, 67, 79
1, 57195, Control_c, 0, 64, 71
1, 57195, Control_c, 0, 67, 86
1, 57210, Control_c, 0, 64, 84
1, 57210, Control_c, 0, 67, 88
1, 57212, Note_off_c, 0, 61, 63
1, 57219, Note_on_c, 0, 70, 78
1, 57222, Note_on_c, 0, 80, 71
1, 57224, Control_c, 0, 64, 109
1, 57230, Note_off_c, 0, 84, 64
1, 57239, Control_c, 0, 64, 124
1, 57239, Control_c, 0, 67, 89
1, 57254, Note_on_c, 0, 77, 21
1, 57254, Control_c, 0, 64, 127
1, 57254, Control_c, 0, 67, 91
1, 57269, Control_c, 0, 67, 92
1, 57272, Note_off_c, 0, 70, 64
1, 57294, Note_off_c, 0, 77, 54
1, 57320, Note_on_c, 0, 73, 53
1, 57365, Note_off_c, 0, 80, 38
1, 57374, Note_off_c, 0, 73, 56
1, 57407, Note_on_c, 0, 63, 70
1, 57416, Control_c, 0, 67, 93
1, 57431, Control_c, 0, 64, 89
1, 57438, Note_on_c, 0, 84, 59
1, 57446, Control_c, 0, 64, 63
1, 57461, Control_c, 0, 64, 0
1, 57490, Control_c, 0, 67, 94
1, 57501, Note_on_c, 0, 78, 64
1, 57502, Note_off_c, 0, 84, 60
1, 57505, Control_c, 0, 67, 96
1, 57520, Control_c, 0, 67, 106
1, 57520, Note_on_c, 0, 72, 67
1, 57534, Control_c, 0, 64, 57
1, 57534, Control_c, 0, 67, 116
1, 57549, Control_c, 0, 64, 75
1, 57549, Control_c, 0, 67, 123
1, 57563, Note_off_c, 0, 63, 60
1, 57564, Control_c, 0, 64, 94
1, 57564, Control_c, 0, 67, 127
1, 57571, Note_off_c, 0, 78, 62
1, 57579, Control_c, 0, 64, 106
1, 57599, Note_on_c, 0, 75, 55
1, 57599, Note_off_c, 0, 72, 63
1, 57623, Control_c, 0, 64, 109
1, 57638, Control_c, 0, 64, 113
1, 57653, Control_c, 0, 64, 115
1, 57753, Note_on_c, 0, 53, 46
1, 57777, Note_on_c, 0, 60, 60
1, 57800, Note_on_c, 0, 84, 58
1, 57800, Note_off_c, 0, 75, 52
1, 57824, Control_c, 0, 64, 112
1, 57839, Control_c, 0, 64, 107
1, 57854, Control_c, 0, 64, 99
1, 57869, Control_c, 0, 64, 88
1, 57884, Control_c, 0, 64, 78
1, 57899, Control_c, 0, 64, 67
1, 57913, Control_c, 0, 64, 54
1, 57928, Control_c, 0, 64, 0
1, 57970, Note_on_c, 0, 69, 56
1, 57971, Note_off_c, 0, 84, 55
1, 57973, Note_on_c, 0, 77, 52
1, 58046, Control_c, 0, 64, 35
1, 58061, Control_c, 0, 64, 58
1, 58070, Note_off_c, 0, 53, 37
1, 58071, Note_off_c, 0, 77, 61
1, 58076, Control_c, 0, 64, 69
1, 58077, Note_off_c, 0, 60, 62
1, 58091, Control_c, 0, 64, 79
1, 58106, Control_c, 0, 64, 88
1, 58120, Control_c, 0, 64, 95
1, 58135, Control_c, 0, 64, 104
1, 58150, Control_c, 0, 64, 120
1, 58162, Note_off_c, 0, 69, 62
1, 58164, Control_c, 0, 64, 127
1, 58337, Note_on_c, 0, 72, 7
1, 58367, Note_on_c, 0, 77, 45
1, 58386, Note_off_c, 0, 72, 52
1, 58413, Note_off_c, 0, 77, 60
1, 58423, Note_on_c, 0, 80, 49
1, 58451, Note_off_c, 0, 80, 55
1, 58468, Note_on_c, 0, 81, 61
1, 58506, Note_off_c, 0, 81, 63
1, 58514, Note_on_c, 0, 84, 55
1, 58554, Note_off_c, 0, 84, 63
1, 58569, Note_on_c, 0, 89, 65
1, 58628, Note_off_c, 0, 89, 63
1, 58632, Note_on_c, 0, 96, 65
1, 58662, Note_on_c, 0, 65, 58
1, 58717, Note_off_c, 0, 96, 63
1, 58721, Control_c, 0, 64, 91
1, 58724, Note_on_c, 0, 90, 72
1, 58736, Control_c, 0, 64, 65
1, 58751, Control_c, 0, 64, 0
1, 58754, Note_off_c, 0, 65, 60
1, 58761, Note_on_c, 0, 66, 52
1, 58794, Note_off_c, 0, 66, 51
1, 58825, Control_c, 0, 64, 38
1, 58840, Control_c, 0, 64, 56
1, 58855, Control_c, 0, 64, 64
1, 58869, Control_c, 0, 64, 69
1, 58884, Control_c, 0, 64, 73
1, 58899, Control_c, 0, 64, 75
1, 58902, Note_on_c, 0, 70, 17
1, 58913, Control_c, 0, 64, 77
1, 58928, Control_c, 0, 64, 80
1, 58943, Control_c, 0, 64, 85
1, 58944, Note_off_c, 0, 70, 53
1, 58958, Control_c, 0, 64, 93
1, 58974, Note_off_c, 0, 90, 57
1, 58974, Control_c, 0, 64, 104
1, 58975, Note_on_c, 0, 75, 11
1, 58988, Control_c, 0, 64, 122
1, 59003, Control_c, 0, 64, 127
1, 59007, Note_on_c, 0, 77, 40
1, 59010, Note_on_c, 0, 78, 54
1, 59021, Note_off_c, 0, 75, 40
1, 59045, Note_off_c, 0, 77, 51
1, 59049, Note_off_c, 0, 78, 60
1, 59072, Note_on_c, 0, 82, 68
1, 59116, Note_on_c, 0, 87, 66
1, 59131, Note_off_c, 0, 82, 62
1, 59189, Note_on_c, 0, 63, 57
1, 59200, Note_on_c, 0, 94, 73
1, 59210, Note_off_c, 0, 87, 62
1, 59233, Control_c, 0, 64, 116
1, 59248, Control_c, 0, 64, 84
1, 59249, Note_on_c, 0, 89, 75
1, 59262, Control_c, 0, 64, 68
1, 59277, Control_c, 0, 64, 54
1, 59280, Note_on_c, 0, 65, 64
1, 59280, Note_off_c, 0, 94, 64
1, 59292, Control_c, 0, 64, 0
1, 59306, Note_off_c, 0, 63, 59
1, 59321, Control_c, 0, 64, 44
1, 59336, Control_c, 0, 64, 62
1, 59351, Control_c, 0, 64, 72
1, 59361, Note_off_c, 0, 89, 55
1, 59366, Control_c, 0, 64, 82
1, 59368, Note_off_c, 0, 65, 57
1, 59381, Control_c, 0, 64, 91
1, 59397, Control_c, 0, 64, 95
1, 59411, Control_c, 0, 64, 100
1, 59418, Note_on_c, 0, 73, 53
1, 59426, Control_c, 0, 64, 116
1, 59441, Control_c, 0, 64, 127
1, 59455, Note_off_c, 0, 73, 64
1, 59478, Note_on_c, 0, 75, 58
1, 59508, Note_on_c, 0, 77, 45
1, 59511, Note_off_c, 0, 75, 63
1, 59533, Note_off_c, 0, 77, 63
1, 59547, Note_on_c, 0, 82, 64
1, 59577, Note_off_c, 0, 82, 63
1, 59599, Note_on_c, 0, 85, 64
1, 59655, Note_off_c, 0, 85, 63
1, 59669, Note_on_c, 0, 94, 69
1, 59678, Control_c, 0, 64, 103
1, 59678, Note_on_c, 0, 61, 51
1, 59693, Control_c, 0, 64, 80
1, 59707, Note_off_c, 0, 61, 56
1, 59708, Control_c, 0, 64, 67
1, 59711, Note_on_c, 0, 63, 43
1, 59718, Note_off_c, 0, 94, 60
1, 59721, Note_on_c, 0, 87, 75
1, 59723, Control_c, 0, 64, 52
1, 59737, Control_c, 0, 64, 41
1, 59752, Control_c, 0, 64, 49
1, 59767, Control_c, 0, 64, 62
1, 59782, Control_c, 0, 64, 73
1, 59797, Note_off_c, 0, 63, 62
1, 59797, Control_c, 0, 64, 90
1, 59805, Note_on_c, 0, 66, 47
1, 59811, Control_c, 0, 64, 116
1, 59826, Control_c, 0, 64, 127
1, 59845, Note_off_c, 0, 66, 47
1, 59890, Note_off_c, 0, 87, 53
1, 59896, Note_on_c, 0, 70, 45
1, 59929, Note_off_c, 0, 70, 60
1, 59952, Note_on_c, 0, 73, 47
1, 59972, Note_on_c, 0, 75, 53
1, 60008, Note_off_c, 0, 75, 60
1, 60012, Note_off_c, 0, 73, 52
1, 60030, Note_on_c, 0, 78, 65
1, 60068, Note_off_c, 0, 78, 57
1, 60092, Note_on_c, 0, 82, 65
1, 60152, Note_off_c, 0, 82, 60
1, 60155, Note_on_c, 0, 65, 48
1, 60170, Note_on_c, 0, 89, 71
1, 60190, Control_c, 0, 64, 98
1, 60205, Control_c, 0, 64, 76
1, 60220, Control_c, 0, 64, 60
1, 60226, Note_off_c, 0, 65, 47
1, 60234, Control_c, 0, 64, 40
1, 60249, Control_c, 0, 64, 0
1, 60250, Note_on_c, 0, 58, 53
1, 60251, Note_off_c, 0, 89, 56
1, 60252, Note_on_c, 0, 82, 65
1, 60279, Control_c, 0, 64, 42
1, 60294, Control_c, 0, 64, 56
1, 60308, Control_c, 0, 64, 66
1, 60323, Control_c, 0, 64, 74
1, 60325, Note_off_c, 0, 58, 61
1, 60338, Control_c, 0, 64, 81
1, 60353, Control_c, 0, 64, 88
1, 60358, Note_on_c, 0, 65, 49
1, 60361, Note_off_c, 0, 82, 63
1, 60367, Control_c, 0, 64, 94
1, 60382, Control_c, 0, 64, 101
1, 60397, Control_c, 0, 64, 108
1, 60400, Note_off_c, 0, 65, 49
1, 60412, Control_c, 0, 64, 122
1, 60425, Note_on_c, 0, 70, 62
1, 60427, Control_c, 0, 64, 127
1, 60452, Note_off_c, 0, 70, 66
1, 60489, Note_on_c, 0, 73, 57
1, 60513, Note_on_c, 0, 77, 55
1, 60537, Note_off_c, 0, 73, 56
1, 60548, Note_on_c, 0, 82, 72
1, 60558, Note_off_c, 0, 77, 59
1, 60599, Note_on_c, 0, 85, 77
1, 60621, Note_off_c, 0, 82, 62
1, 60666, Note_on_c, 0, 92, 83
1, 60684, Note_off_c, 0, 85, 62
1, 60698, Note_on_c, 0, 63, 68
1, 60701, Control_c, 0, 64, 101
1, 60715, Control_c, 0, 64, 78
1, 60730, Control_c, 0, 64, 60
1, 60736, Note_on_c, 0, 65, 58
1, 60742, Note_on_c, 0, 89, 83
1, 60745, Control_c, 0, 64, 0
1, 60779, Note_off_c, 0, 63, 61
1, 60783, Note_off_c, 0, 92, 63
1, 60805, Control_c, 0, 64, 46
1, 60820, Control_c, 0, 64, 67
1, 60822, Note_off_c, 0, 65, 64
1, 60832, Note_on_c, 0, 68, 52
1, 60835, Control_c, 0, 64, 78
1, 60835, Note_off_c, 0, 89, 59
1, 60849, Control_c, 0, 64, 88
1, 60864, Control_c, 0, 64, 93
1, 60867, Note_off_c, 0, 68, 64
1, 60879, Control_c, 0, 64, 97
1, 60880, Note_on_c, 0, 73, 55
1, 60893, Control_c, 0, 64, 107
1, 60908, Control_c, 0, 64, 127
1, 60938, Note_on_c, 0, 75, 62
1, 60942, Note_off_c, 0, 73, 59
1, 60974, Note_on_c, 0, 77, 56
1, 60975, Note_off_c, 0, 75, 58
1, 61008, Note_off_c, 0, 77, 65
1, 61013, Note_on_c, 0, 80, 63
1, 61048, Note_off_c, 0, 80, 62
1, 61064, Note_on_c, 0, 85, 74
1, 61108, Note_off_c, 0, 85, 61
1, 61127, Note_on_c, 0, 92, 79
1, 61131, Control_c, 0, 64, 111
1, 61136, Note_on_c, 0, 61, 69
1, 61146, Control_c, 0, 64, 82
1, 61161, Control_c, 0, 64, 65
1, 61176, Control_c, 0, 64, 45
1, 61186, Note_on_c, 0, 87, 83
1, 61190, Control_c, 0, 64, 0
1, 61192, Note_on_c, 0, 63, 51
1, 61199, Note_off_c, 0, 61, 59
1, 61201, Note_off_c, 0, 92, 58
1, 61219, Control_c, 0, 64, 43
1, 61234, Control_c, 0, 64, 62
1, 61249, Control_c, 0, 64, 75
1, 61264, Control_c, 0, 64, 88
1, 61267, Note_off_c, 0, 63, 59
1, 61279, Control_c, 0, 64, 99
1, 61294, Control_c, 0, 64, 101
1, 61318, Note_on_c, 0, 73, 68
1, 61323, Control_c, 0, 64, 108
1, 61333, Poly_aftertouch_c, 0, 66, 0
1, 61338, Control_c, 0, 64, 127
1, 61344, Note_off_c, 0, 73, 69
1, 61377, Note_off_c, 0, 87, 61
1, 61381, Note_on_c, 0, 74, 62
1, 61426, Note_off_c, 0, 74, 58
1, 61471, Note_on_c, 0, 80, 71
1, 61506, Note_off_c, 0, 80, 58
1, 61532, Note_on_c, 0, 85, 72
1, 61567, Note_on_c, 0, 60, 56
1, 61582, Control_c, 0, 64, 109
1, 61584, Note_off_c, 0, 85, 62
1, 61586, Note_on_c, 0, 92, 80
1, 61597, Control_c, 0, 64, 81
1, 61612, Control_c, 0, 64, 65
1, 61627, Control_c, 0, 64, 42
1, 61641, Control_c, 0, 64, 0
1, 61646, Note_on_c, 0, 61, 62
1, 61652, Note_on_c, 0, 85, 76
1, 61653, Note_off_c, 0, 92, 65
1, 61659, Note_off_c, 0, 60, 55
1, 61671, Control_c, 0, 64, 47
1, 61686, Control_c, 0, 64, 64
1, 61701, Control_c, 0, 64, 76
1, 61715, Control_c, 0, 64, 92
1, 61730, Control_c, 0, 64, 100
1, 61735, Note_off_c, 0, 61, 58
1, 61745, Control_c, 0, 64, 102
1, 61750, Note_on_c, 0, 65, 52
1, 61760, Control_c, 0, 64, 107
1, 61775, Control_c, 0, 64, 115
1, 61791, Control_c, 0, 64, 127
1, 61806, Note_off_c, 0, 65, 54
1, 61820, Note_on_c, 0, 68, 56
1, 61841, Note_off_c, 0, 68, 63
1, 61884, Note_on_c, 0, 72, 52
1, 61909, Note_on_c, 0, 73, 57
1, 61924, Note_off_c, 0, 72, 57
1, 61926, Note_off_c, 0, 85, 45
1, 61949, Note_off_c, 0, 73, 60
1, 61984, Note_on_c, 0, 77, 44
1, 62033, Note_off_c, 0, 77, 61
1, 62037, Note_on_c, 0, 80, 58
1, 62095, Note_off_c, 0, 80, 59
1, 62117, Control_c, 0, 64, 97
1, 62124, Note_on_c, 0, 87, 74
1, 62128, Note_on_c, 0, 63, 48
1, 62131, Control_c, 0, 64, 80
1, 62146, Control_c, 0, 64, 67
1, 62169, Control_c, 0, 64, 54
1, 62184, Control_c, 0, 64, 0
1, 62210, Note_on_c, 0, 80, 67
1, 62222, Note_off_c, 0, 63, 62
1, 62233, Note_on_c, 0, 56, 58
1, 62243, Control_c, 0, 64, 45
1, 62245, Note_off_c, 0, 87, 38
1, 62257, Control_c, 0, 64, 61
1, 62272, Control_c, 0, 64, 69
1, 62287, Control_c, 0, 64, 76
1, 62302, Control_c, 0, 64, 81
1, 62313, Note_off_c, 0, 56, 58
1, 62317, Control_c, 0, 64, 85
1, 62331, Control_c, 0, 64, 90
1, 62346, Control_c, 0, 64, 94
1, 62348, Note_off_c, 0, 80, 56
1, 62352, Note_on_c, 0, 63, 42
1, 62361, Control_c, 0, 64, 96
1, 62376, Control_c, 0, 64, 100
1, 62391, Control_c, 0, 64, 107
1, 62406, Control_c, 0, 64, 127
1, 62424, Note_off_c, 0, 63, 44
1, 62431, Note_on_c, 0, 68, 49
1, 62471, Note_off_c, 0, 68, 52
1, 62495, Note_on_c, 0, 72, 52
1, 62569, Note_off_c, 0, 72, 51
1, 62580, Note_on_c, 0, 75, 49
1, 62609, Note_on_c, 0, 80, 64
1, 62614, Note_off_c, 0, 75, 60
1, 62672, Note_on_c, 0, 84, 73
1, 62683, Note_off_c, 0, 80, 62
1, 62742, Note_on_c, 0, 60, 59
1, 62754, Note_on_c, 0, 90, 86
1, 62763, Note_off_c, 0, 84, 63
1, 62777, Control_c, 0, 64, 85
1, 62792, Control_c, 0, 64, 67
1, 62807, Control_c, 0, 64, 46
1, 62814, Note_off_c, 0, 60, 63
1, 62817, Note_on_c, 0, 61, 68
1, 62822, Control_c, 0, 64, 0
1, 62838, Note_on_c, 0, 85, 78
1, 62866, Control_c, 0, 64, 50
1, 62873, Note_off_c, 0, 90, 61
1, 62880, Control_c, 0, 64, 66
1, 62895, Control_c, 0, 64, 79
1, 62918, Control_c, 0, 64, 91
1, 62933, Control_c, 0, 64, 94
1, 62939, Note_off_c, 0, 61, 61
1, 62943, Note_on_c, 0, 66, 54
1, 62948, Control_c, 0, 64, 96
1, 62962, Control_c, 0, 64, 102
1, 62977, Control_c, 0, 64, 114
1, 62992, Control_c, 0, 64, 127
1, 62994, Note_off_c, 0, 66, 55
1, 63005, Note_on_c, 0, 70, 54
1, 63038, Note_off_c, 0, 70, 61
1, 63042, Note_off_c, 0, 85, 47
1, 63052, Note_on_c, 0, 72, 64
1, 63076, Note_on_c, 0, 73, 66
1, 63091, Note_off_c, 0, 72, 60
1, 63100, Note_off_c, 0, 73, 69
1, 63129, Note_on_c, 0, 78, 71
1, 63175, Note_on_c, 0, 82, 76
1, 63181, Note_off_c, 0, 78, 63
1, 63225, Note_on_c, 0, 58, 63
1, 63237, Note_on_c, 0, 89, 86
1, 63240, Note_off_c, 0, 82, 63
1, 63258, Control_c, 0, 64, 98
1, 63273, Control_c, 0, 64, 71
1, 63288, Control_c, 0, 64, 53
1, 63289, Note_on_c, 0, 60, 64
1, 63303, Control_c, 0, 64, 0
1, 63306, Note_on_c, 0, 84, 87
1, 63336, Note_off_c, 0, 89, 61
1, 63339, Note_off_c, 0, 58, 62
1, 63348, Control_c, 0, 64, 46
1, 63362, Control_c, 0, 64, 64
1, 63377, Control_c, 0, 64, 77
1, 63392, Note_on_c, 0, 65, 59
1, 63392, Control_c, 0, 64, 92
1, 63404, Note_off_c, 0, 60, 59
1, 63407, Control_c, 0, 64, 112
1, 63413, Note_off_c, 0, 84, 62
1, 63422, Control_c, 0, 64, 127
1, 63436, Note_off_c, 0, 65, 61
1, 63448, Note_on_c, 0, 68, 67
1, 63479, Note_off_c, 0, 68, 65
1, 63504, Note_on_c, 0, 70, 68
1, 63523, Note_on_c, 0, 72, 49
1, 63545, Note_off_c, 0, 70, 58
1, 63556, Note_off_c, 0, 72, 61
1, 63578, Note_on_c, 0, 77, 59
1, 63617, Note_off_c, 0, 77, 63
1, 63632, Note_on_c, 0, 80, 64
1, 63695, Note_off_c, 0, 80, 62
1, 63713, Note_on_c, 0, 87, 78
1, 63720, Note_on_c, 0, 56, 71
1, 63741, Control_c, 0, 64, 92
1, 63756, Control_c, 0, 64, 70
1, 63771, Control_c, 0, 64, 52
1, 63773, Note_on_c, 0, 82, 81
1, 63785, Control_c, 0, 64, 0
1, 63787, Note_off_c, 0, 87, 62
1, 63797, Note_on_c, 0, 58, 63
1, 63816, Note_off_c, 0, 56, 57
1, 63829, Control_c, 0, 64, 51
1, 63844, Control_c, 0, 64, 67
1, 63859, Control_c, 0, 64, 82
1, 63872, Note_on_c, 0, 63, 51
1, 63874, Control_c, 0, 64, 99
1, 63889, Control_c, 0, 64, 106
1, 63918, Control_c, 0, 64, 109
1, 63920, Note_off_c, 0, 58, 35
1, 63922, Note_off_c, 0, 63, 57
1, 63933, Control_c, 0, 64, 115
1, 63935, Note_on_c, 0, 66, 57
1, 63948, Control_c, 0, 64, 127
1, 63961, Note_off_c, 0, 82, 62
1, 63975, Note_off_c, 0, 66, 59
1, 63994, Note_on_c, 0, 68, 63
1, 64030, Note_on_c, 0, 70, 55
1, 64035, Note_off_c, 0, 68, 57
1, 64064, Note_off_c, 0, 70, 65
1, 64072, Note_on_c, 0, 75, 64
1, 64110, Note_off_c, 0, 75, 58
1, 64129, Note_on_c, 0, 78, 68
1, 64173, Note_off_c, 0, 78, 60
1, 64186, Note_on_c, 0, 85, 84
1, 64195, Note_on_c, 0, 54, 67
1, 64200, Control_c, 0, 64, 106
1, 64216, Control_c, 0, 64, 73
1, 64231, Control_c, 0, 64, 56
1, 64246, Control_c, 0, 64, 0
1, 64252, Note_on_c, 0, 56, 66
1, 64254, Note_on_c, 0, 80, 81
1, 64287, Note_off_c, 0, 85, 52
1, 64290, Control_c, 0, 64, 49
1, 64304, Note_off_c, 0, 54, 61
1, 64305, Control_c, 0, 64, 69
1, 64320, Control_c, 0, 64, 86
1, 64328, Note_on_c, 0, 61, 63
1, 64334, Control_c, 0, 64, 111
1, 64349, Control_c, 0, 64, 127
1, 64387, Note_off_c, 0, 56, 56
1, 64419, Note_off_c, 0, 61, 57
1, 64423, Note_on_c, 0, 65, 67
1, 64457, Note_off_c, 0, 80, 42
1, 64477, Note_off_c, 0, 65, 63
1, 64497, Note_on_c, 0, 66, 58
1, 64510, Note_on_c, 0, 68, 62
1, 64537, Note_off_c, 0, 68, 66
1, 64549, Note_on_c, 0, 73, 67
1, 64564, Note_off_c, 0, 66, 37
1, 64589, Note_off_c, 0, 73, 61
1, 64604, Note_on_c, 0, 77, 56
1, 64663, Note_on_c, 0, 84, 85
1, 64663, Note_off_c, 0, 77, 62
1, 64676, Note_on_c, 0, 54, 60
1, 64683, Control_c, 0, 64, 98
1, 64698, Control_c, 0, 64, 69
1, 64713, Control_c, 0, 64, 0
1, 64719, Note_on_c, 0, 55, 69
1, 64731, Note_on_c, 0, 79, 88
1, 64737, Note_off_c, 0, 54, 51
1, 64748, Note_off_c, 0, 84, 60
1, 64772, Control_c, 0, 64, 53
1, 64787, Control_c, 0, 64, 67
1, 64801, Control_c, 0, 64, 83
1, 64816, Control_c, 0, 64, 101
1, 64826, Note_off_c, 0, 55, 56
1, 64831, Control_c, 0, 64, 119
1, 64839, Note_on_c, 0, 60, 52
1, 64846, Control_c, 0, 64, 127
1, 64884, Note_off_c, 0, 79, 61
1, 64898, Note_off_c, 0, 60, 61
1, 64909, Note_on_c, 0, 64, 57
1, 64956, Note_off_c, 0, 64, 59
1, 64981, Note_on_c, 0, 65, 47
1, 64997, Note_on_c, 0, 67, 45
1, 65020, Note_off_c, 0, 65, 54
1, 65024, Note_off_c, 0, 67, 60
1, 65038, Note_on_c, 0, 72, 57
1, 65074, Note_off_c, 0, 72, 62
1, 65097, Note_on_c, 0, 76, 62
1, 65142, Note_off_c, 0, 76, 58
1, 65163, Note_on_c, 0, 53, 53
1, 65166, Note_on_c, 0, 83, 74
1, 65180, Control_c, 0, 64, 90
1, 65195, Control_c, 0, 64, 67
1, 65210, Control_c, 0, 64, 34
1, 65225, Control_c, 0, 64, 0
1, 65236, Note_on_c, 0, 54, 60
1, 65238, Note_on_c, 0, 78, 75
1, 65240, Note_off_c, 0, 83, 58
1, 65246, Note_off_c, 0, 53, 59
1, 65283, Control_c, 0, 64, 55
1, 65298, Control_c, 0, 64, 66
1, 65313, Control_c, 0, 64, 74
1, 65328, Control_c, 0, 64, 78
1, 65342, Note_off_c, 0, 54, 63
1, 65343, Control_c, 0, 64, 79
1, 65349, Note_on_c, 0, 59, 53
1, 65357, Control_c, 0, 64, 81
1, 65372, Control_c, 0, 64, 83
1, 65387, Control_c, 0, 64, 87
1, 65401, Control_c, 0, 64, 89
1, 65405, Note_off_c, 0, 59, 57
1, 65416, Control_c, 0, 64, 91
1, 65431, Control_c, 0, 64, 92
1, 65433, Note_on_c, 0, 63, 51
1, 65446, Control_c, 0, 64, 92
1, 65461, Control_c, 0, 64, 93
1, 65476, Control_c, 0, 64, 93
1, 65476, Note_on_c, 0, 65, 60
1, 65476, Note_off_c, 0, 63, 61
1, 65479, Note_off_c, 0, 78, 46
1, 65491, Control_c, 0, 64, 94
1, 65511, Note_off_c, 0, 65, 67
1, 65521, Control_c, 0, 64, 94
1, 65530, Note_on_c, 0, 66, 52
1, 65536, Control_c, 0, 64, 95
1, 65550, Control_c, 0, 64, 96
1, 65558, Note_off_c, 0, 66, 60
1, 65585, Note_on_c, 0, 71, 56
1, 65624, Control_c, 0, 64, 98
1, 65625, Note_off_c, 0, 71, 63
1, 65649, Note_on_c, 0, 75, 59
1, 65689, Note_on_c, 0, 49, 61
1, 65698, Control_c, 0, 64, 93
1, 65712, Control_c, 0, 64, 77
1, 65727, Control_c, 0, 64, 62
1, 65728, Note_off_c, 0, 75, 61
1, 65741, Note_on_c, 0, 82, 71
1, 65742, Control_c, 0, 64, 0
1, 65802, Control_c, 0, 64, 45
1, 65811, Note_off_c, 0, 49, 65
1, 65817, Control_c, 0, 64, 61
1, 65831, Control_c, 0, 64, 68
1, 65846, Control_c, 0, 64, 71
1, 65847, Note_on_c, 0, 50, 66
1, 65855, Note_off_c, 0, 82, 63
1, 65859, Note_on_c, 0, 78, 66
1, 65861, Control_c, 0, 64, 71
1, 65943, Control_c, 0, 64, 71
1, 65958, Control_c, 0, 64, 69
1, 65973, Control_c, 0, 64, 67
1, 65987, Control_c, 0, 64, 62
1, 66002, Control_c, 0, 64, 36
1, 66017, Control_c, 0, 64, 0
1, 66035, Note_on_c, 0, 57, 49
1, 66061, Control_c, 0, 64, 53
1, 66076, Control_c, 0, 64, 66
1, 66091, Control_c, 0, 64, 73
1, 66105, Control_c, 0, 64, 76
1, 66114, Note_off_c, 0, 57, 60
1, 66120, Control_c, 0, 64, 77
1, 66134, Note_on_c, 0, 60, 51
1, 66135, Control_c, 0, 64, 79
1, 66150, Control_c, 0, 64, 81
1, 66165, Control_c, 0, 64, 83
1, 66166, Note_off_c, 0, 50, 32
1, 66179, Control_c, 0, 64, 85
1, 66194, Control_c, 0, 64, 85
1, 66209, Control_c, 0, 64, 86
1, 66210, Note_off_c, 0, 60, 63
1, 66221, Note_on_c, 0, 65, 53
1, 66224, Control_c, 0, 64, 86
1, 66239, Control_c, 0, 64, 88
1, 66248, Note_off_c, 0, 65, 64
1, 66254, Control_c, 0, 64, 90
1, 66269, Control_c, 0, 64, 91
1, 66282, Note_off_c, 0, 78, 40
1, 66284, Control_c, 0, 64, 93
1, 66298, Control_c, 0, 64, 94
1, 66303, Note_on_c, 0, 66, 14
1, 66313, Control_c, 0, 64, 94
1, 66329, Note_on_c, 0, 71, 53
1, 66343, Control_c, 0, 64, 95
1, 66346, Note_off_c, 0, 66, 35
1, 66393, Note_off_c, 0, 71, 56
1, 66412, Note_on_c, 0, 72, 52
1, 66474, Note_on_c, 0, 41, 47
1, 66481, Note_off_c, 0, 72, 59
1, 66504, Note_on_c, 0, 81, 74
1, 66519, Control_c, 0, 64, 94
1, 66534, Control_c, 0, 64, 91
1, 66549, Control_c, 0, 64, 82
1, 66564, Control_c, 0, 64, 70
1, 66580, Control_c, 0, 64, 59
1, 66594, Control_c, 0, 64, 0
1, 66676, Control_c, 0, 64, 40
1, 66691, Control_c, 0, 64, 57
1, 66700, Note_off_c, 0, 81, 58
1, 66705, Note_on_c, 0, 77, 60
1, 66706, Control_c, 0, 64, 66
1, 66715, Note_on_c, 0, 51, 50
1, 66721, Control_c, 0, 64, 72
1, 66731, Note_off_c, 0, 41, 51
1, 66735, Control_c, 0, 64, 75
1, 66750, Control_c, 0, 64, 77
1, 66765, Control_c, 0, 64, 78
1, 66780, Control_c, 0, 64, 80
1, 66795, Control_c, 0, 64, 82
1, 66803, Note_off_c, 0, 51, 62
1, 66809, Control_c, 0, 64, 86
1, 66824, Control_c, 0, 64, 90
1, 66839, Control_c, 0, 64, 94
1, 66853, Control_c, 0, 64, 98
1, 66855, Note_on_c, 0, 57, 43
1, 66868, Control_c, 0, 64, 101
1, 66878, Note_off_c, 0, 77, 54
1, 66883, Control_c, 0, 64, 103
1, 66893, Note_off_c, 0, 57, 53
1, 66898, Control_c, 0, 64, 106
1, 66913, Control_c, 0, 64, 108
1, 66928, Control_c, 0, 64, 111
1, 66943, Control_c, 0, 64, 114
1, 66957, Control_c, 0, 64, 117
1, 66972, Control_c, 0, 64, 120
1, 66987, Control_c, 0, 64, 124
1, 67002, Control_c, 0, 64, 127
1, 67038, Poly_aftertouch_c, 0, 60, 127
1, 67087, Poly_aftertouch_c, 0, 60, 0
1, 67120, Note_on_c, 0, 69, 64
1, 67180, Note_off_c, 0, 69, 59
1, 67208, Note_on_c, 0, 70, 47
1, 67214, Note_on_c, 0, 78, 75
1, 67235, Note_off_c, 0, 70, 55
1, 67240, Control_c, 0, 64, 97
1, 67254, Control_c, 0, 64, 77
1, 67269, Control_c, 0, 64, 64
1, 67281, Note_on_c, 0, 75, 69
1, 67284, Control_c, 0, 64, 55
1, 67291, Note_on_c, 0, 71, 64
1, 67299, Control_c, 0, 64, 58
1, 67314, Control_c, 0, 64, 65
1, 67324, Note_off_c, 0, 71, 61
1, 67328, Control_c, 0, 64, 72
1, 67343, Control_c, 0, 64, 79
1, 67358, Control_c, 0, 64, 82
1, 67379, Note_on_c, 0, 71, 52
1, 67384, Note_off_c, 0, 78, 52
1, 67389, Control_c, 0, 64, 83
1, 67411, Control_c, 0, 64, 83
1, 67416, Note_off_c, 0, 75, 63
1, 67425, Control_c, 0, 64, 84
1, 67427, Note_off_c, 0, 71, 64
1, 67440, Control_c, 0, 64, 85
1, 67457, Note_on_c, 0, 68, 59
1, 67480, Note_off_c, 0, 68, 62
1, 67515, Note_on_c, 0, 69, 57
1, 67574, Control_c, 0, 64, 85
1, 67586, Note_on_c, 0, 63, 60
1, 67603, Control_c, 0, 64, 86
1, 67604, Note_off_c, 0, 69, 46
1, 67618, Control_c, 0, 64, 87
1, 67633, Control_c, 0, 64, 88
1, 67648, Control_c, 0, 64, 89
1, 67658, Note_off_c, 0, 63, 45
1, 67665, Note_on_c, 0, 60, 64
1, 67670, Note_on_c, 0, 77, 70
1, 67677, Control_c, 0, 64, 87
1, 67692, Control_c, 0, 64, 76
1, 67697, Note_off_c, 0, 60, 65
1, 67707, Control_c, 0, 64, 66
1, 67722, Control_c, 0, 64, 58
1, 67737, Note_on_c, 0, 73, 75
1, 67737, Control_c, 0, 64, 56
1, 67751, Control_c, 0, 64, 61
1, 67758, Note_off_c, 0, 77, 64
1, 67766, Control_c, 0, 64, 66
1, 67781, Control_c, 0, 64, 72
1, 67795, Control_c, 0, 64, 76
1, 67797, Note_on_c, 0, 70, 71
1, 67810, Control_c, 0, 64, 77
1, 67825, Note_off_c, 0, 73, 62
1, 67825, Control_c, 0, 64, 78
1, 67840, Control_c, 0, 64, 78
1, 67849, Note_off_c, 0, 70, 64
1, 67855, Control_c, 0, 64, 79
1, 67869, Note_on_c, 0, 66, 61
1, 67891, Note_off_c, 0, 66, 60
1, 67914, Control_c, 0, 64, 79
1, 67926, Note_on_c, 0, 67, 44
1, 67929, Control_c, 0, 64, 80
1, 67944, Control_c, 0, 64, 81
1, 67958, Control_c, 0, 64, 81
1, 67973, Control_c, 0, 64, 82
1, 67992, Note_on_c, 0, 61, 51
1, 67993, Note_off_c, 0, 67, 53
1, 68002, Control_c, 0, 64, 82
1, 68017, Control_c, 0, 64, 84
1, 68032, Control_c, 0, 64, 86
1, 68047, Control_c, 0, 64, 87
1, 68062, Control_c, 0, 64, 88
1, 68074, Note_off_c, 0, 61, 59
1, 68076, Control_c, 0, 64, 89
1, 68091, Control_c, 0, 64, 90
1, 68092, Note_on_c, 0, 58, 46
1, 68092, Note_on_c, 0, 75, 65
1, 68121, Control_c, 0, 64, 88
1, 68134, Note_off_c, 0, 58, 63
1, 68136, Control_c, 0, 64, 76
1, 68158, Control_c, 0, 64, 64
1, 68163, Note_on_c, 0, 72, 62
1, 68174, Control_c, 0, 64, 45
1, 68189, Control_c, 0, 64, 0
1, 68204, Control_c, 0, 64, 45
1, 68208, Note_off_c, 0, 75, 63
1, 68218, Control_c, 0, 64, 61
1, 68233, Note_on_c, 0, 69, 58
1, 68233, Control_c, 0, 64, 72
1, 68248, Control_c, 0, 64, 82
1, 68256, Note_off_c, 0, 72, 59
1, 68263, Control_c, 0, 64, 87
1, 68298, Note_off_c, 0, 69, 62
1, 68311, Note_on_c, 0, 65, 57
1, 68336, Note_off_c, 0, 65, 62
1, 68370, Note_on_c, 0, 66, 54
1, 68443, Note_off_c, 0, 66, 59
1, 68449, Note_on_c, 0, 60, 49
1, 68490, Note_off_c, 0, 60, 63
1, 68531, Note_on_c, 0, 57, 55
1, 68535, Note_on_c, 0, 69, 65
1, 68576, Note_off_c, 0, 57, 60
1, 68603, Control_c, 0, 64, 84
1, 68606, Note_off_c, 0, 69, 65
1, 68610, Note_on_c, 0, 66, 76
1, 68618, Control_c, 0, 64, 73
1, 68633, Control_c, 0, 64, 60
1, 68648, Control_c, 0, 64, 0
1, 68682, Note_on_c, 0, 63, 67
1, 68692, Control_c, 0, 64, 50
1, 68707, Control_c, 0, 64, 66
1, 68722, Control_c, 0, 64, 78
1, 68737, Control_c, 0, 64, 88
1, 68748, Note_off_c, 0, 63, 62
1, 68749, Note_off_c, 0, 66, 58
1, 68751, Control_c, 0, 64, 91
1, 68773, Note_on_c, 0, 58, 41
1, 68802, Note_off_c, 0, 58, 55
1, 68837, Note_on_c, 0, 59, 52
1, 68902, Note_off_c, 0, 59, 54
1, 68942, Note_on_c, 0, 51, 35
1, 68981, Note_off_c, 0, 51, 52
1, 69026, Note_on_c, 0, 68, 67
1, 69101, Note_on_c, 0, 65, 70
1, 69101, Control_c, 0, 64, 90
1, 69115, Control_c, 0, 64, 84
1, 69122, Note_off_c, 0, 68, 61
1, 69130, Poly_aftertouch_c, 0, 41, 0
1, 69130, Control_c, 0, 64, 73
1, 69145, Control_c, 0, 64, 60
1, 69160, Control_c, 0, 64, 0
1, 69181, Note_on_c, 0, 61, 58
1, 69219, Control_c, 0, 64, 49
1, 69234, Control_c, 0, 64, 64
1, 69236, Note_off_c, 0, 61, 58
1, 69246, Note_on_c, 0, 57, 57
1, 69248, Control_c, 0, 64, 74
1, 69263, Control_c, 0, 64, 79
1, 69278, Control_c, 0, 64, 81
1, 69288, Note_off_c, 0, 57, 61
1, 69293, Control_c, 0, 64, 81
1, 69308, Control_c, 0, 64, 82
1, 69313, Note_off_c, 0, 65, 32
1, 69322, Control_c, 0, 64, 82
1, 69337, Control_c, 0, 64, 83
1, 69349, Note_on_c, 0, 58, 45
1, 69352, Control_c, 0, 64, 83
1, 69366, Control_c, 0, 64, 84
1, 69381, Control_c, 0, 64, 84
1, 69396, Control_c, 0, 64, 85
1, 69408, Note_on_c, 0, 51, 42
1, 69414, Note_off_c, 0, 58, 58
1, 69426, Control_c, 0, 64, 85
1, 69553, Note_on_c, 0, 66, 63
1, 69560, Note_off_c, 0, 51, 36
1, 69570, Note_on_c, 0, 41, 36
1, 69622, Note_off_c, 0, 41, 51
1, 69651, Note_on_c, 0, 63, 67
1, 69656, Control_c, 0, 64, 85
1, 69662, Note_off_c, 0, 66, 61
1, 69671, Control_c, 0, 64, 78
1, 69686, Control_c, 0, 64, 66
1, 69701, Control_c, 0, 64, 52
1, 69716, Control_c, 0, 64, 0
1, 69741, Note_on_c, 0, 60, 50
1, 69760, Control_c, 0, 64, 42
1, 69776, Control_c, 0, 64, 60
1, 69791, Control_c, 0, 64, 70
1, 69805, Control_c, 0, 64, 76
1, 69820, Control_c, 0, 64, 78
1, 69848, Note_on_c, 0, 56, 51
1, 69850, Control_c, 0, 64, 78
1, 69862, Note_off_c, 0, 63, 50
1, 69865, Control_c, 0, 64, 79
1, 69879, Control_c, 0, 64, 80
1, 69894, Control_c, 0, 64, 82
1, 69900, Note_off_c, 0, 56, 56
1, 69909, Control_c, 0, 64, 84
1, 69921, Note_off_c, 0, 60, 36
1, 69924, Control_c, 0, 64, 86
1, 69939, Control_c, 0, 64, 89
1, 69953, Control_c, 0, 64, 94
1, 69955, Note_on_c, 0, 57, 53
1, 69968, Control_c, 0, 64, 101
1, 69983, Control_c, 0, 64, 119
1, 69998, Control_c, 0, 64, 127
1, 70090, Note_on_c, 0, 51, 46
1, 70192, Note_on_c, 0, 41, 49
1, 70415, Note_on_c, 0, 29, 67
1, 70432, Note_off_c, 0, 41, 56
1, 70449, Note_off_c, 0, 29, 65
1, 70455, Note_off_c, 0, 51, 36
1, 70540, Note_off_c, 0, 57, 42
1, 70767, Note_on_c, 0, 51, 50
1, 70856, Note_off_c, 0, 51, 59
1, 70857, Note_on_c, 0, 54, 57
1, 70912, Note_on_c, 0, 57, 61
1, 70946, Note_off_c, 0, 54, 60
1, 70967, Note_off_c, 0, 57, 56
1, 70979, Note_on_c, 0, 60, 69
1, 71017, Note_on_c, 0, 63, 74
1, 71062, Note_on_c, 0, 69, 67
1, 71088, Note_on_c, 0, 66, 58
1, 71128, Note_on_c, 0, 72, 85
1, 71151, Note_off_c, 0, 63, 59
1, 71151, Note_off_c, 0, 66, 50
1, 71170, Note_off_c, 0, 60, 62
1, 71175, Note_off_c, 0, 69, 60
1, 71229, Note_off_c, 0, 72, 60
1, 71235, Note_on_c, 0, 78, 80
1, 71236, Note_on_c, 0, 75, 72
1, 71252, Note_off_c, 0, 75, 69
1, 71258, Note_off_c, 0, 78, 64
1, 71451, Note_on_c, 0, 75, 41
1, 71512, Note_on_c, 0, 77, 59
1, 71539, Note_off_c, 0, 75, 44
1, 71559, Note_on_c, 0, 73, 66
1, 71588, Note_off_c, 0, 77, 62
1, 71603, Note_off_c, 0, 73, 62
1, 71618, Note_on_c, 0, 76, 69
1, 71676, Note_on_c, 0, 72, 61
1, 71682, Note_off_c, 0, 76, 62
1, 71712, Note_off_c, 0, 72, 63
1, 71739, Note_on_c, 0, 75, 75
1, 71789, Note_on_c, 0, 69, 76
1, 71803, Note_off_c, 0, 75, 61
1, 71849, Note_off_c, 0, 69, 62
1, 71851, Note_on_c, 0, 78, 84
1, 71954, Note_off_c, 0, 78, 59
1, 71986, Note_on_c, 0, 75, 47
1, 72065, Note_on_c, 0, 77, 66
1, 72067, Note_off_c, 0, 75, 57
1, 72096, Note_on_c, 0, 73, 65
1, 72131, Note_off_c, 0, 77, 62
1, 72132, Note_off_c, 0, 73, 65
1, 72150, Note_on_c, 0, 76, 74
1, 72155, Control_c, 0, 67, 119
1, 72171, Control_c, 0, 67, 111
1, 72186, Control_c, 0, 67, 101
1, 72200, Control_c, 0, 67, 93
1, 72202, Note_on_c, 0, 72, 58
1, 72215, Control_c, 0, 67, 86
1, 72230, Control_c, 0, 67, 80
1, 72234, Note_off_c, 0, 72, 66
1, 72243, Note_off_c, 0, 76, 58
1, 72245, Control_c, 0, 67, 73
1, 72260, Control_c, 0, 67, 65
1, 72267, Note_on_c, 0, 75, 68
1, 72274, Control_c, 0, 67, 60
1, 72289, Control_c, 0, 67, 58
1, 72304, Note_on_c, 0, 69, 71
1, 72348, Control_c, 0, 67, 57
1, 72366, Note_on_c, 0, 78, 92
1, 72366, Note_off_c, 0, 69, 58
1, 72370, Note_off_c, 0, 75, 42
1, 72460, Note_off_c, 0, 78, 60
1, 72461, Note_on_c, 0, 75, 67
1, 72481, Control_c, 0, 67, 58
1, 72549, Note_off_c, 0, 75, 58
1, 72565, Note_on_c, 0, 77, 58
1, 72585, Note_on_c, 0, 73, 72
1, 72621, Note_off_c, 0, 77, 64
1, 72633, Note_off_c, 0, 73, 64
1, 72650, Note_on_c, 0, 76, 76
1, 72696, Control_c, 0, 67, 57
1, 72705, Note_on_c, 0, 72, 68
1, 72711, Control_c, 0, 67, 56
1, 72723, Note_off_c, 0, 76, 55
1, 72726, Control_c, 0, 67, 55
1, 72740, Control_c, 0, 67, 50
1, 72755, Note_off_c, 0, 72, 62
1, 72755, Control_c, 0, 67, 45
1, 72762, Note_on_c, 0, 75, 73
1, 72770, Control_c, 0, 67, 40
1, 72785, Control_c, 0, 67, 33
1, 72800, Control_c, 0, 67, 23
1, 72815, Control_c, 0, 67, 19
1, 72823, Note_on_c, 0, 69, 79
1, 72830, Control_c, 0, 67, 0
1, 72840, Note_off_c, 0, 75, 62
1, 72875, Note_on_c, 0, 78, 87
1, 72881, Note_off_c, 0, 69, 62
1, 72959, Note_off_c, 0, 78, 61
1, 72964, Note_on_c, 0, 75, 67
1, 73046, Note_off_c, 0, 75, 60
1, 73051, Note_on_c, 0, 77, 64
1, 73080, Note_on_c, 0, 73, 67
1, 73131, Note_off_c, 0, 73, 61
1, 73131, Note_off_c, 0, 77, 61
1, 73143, Note_on_c, 0, 76, 74
1, 73194, Note_on_c, 0, 72, 74
1, 73228, Note_off_c, 0, 76, 51
1, 73252, Note_off_c, 0, 72, 63
1, 73258, Note_on_c, 0, 75, 75
1, 73323, Note_on_c, 0, 69, 80
1, 73335, Note_off_c, 0, 75, 61
1, 73401, Control_c, 0, 64, 87
1, 73402, Note_off_c, 0, 69, 61
1, 73415, Control_c, 0, 64, 61
1, 73417, Note_on_c, 0, 77, 77
1, 73430, Control_c, 0, 64, 0
1, 73445, Control_c, 0, 67, 19
1, 73460, Control_c, 0, 64, 37
1, 73460, Control_c, 0, 67, 21
1, 73475, Control_c, 0, 64, 56
1, 73489, Control_c, 0, 64, 65
1, 73504, Control_c, 0, 64, 77
1, 73512, Note_on_c, 0, 73, 69
1, 73519, Control_c, 0, 64, 105
1, 73519, Control_c, 0, 67, 24
1, 73534, Control_c, 0, 64, 127
1, 73534, Control_c, 0, 67, 27
1, 73548, Control_c, 0, 67, 30
1, 73557, Note_off_c, 0, 73, 58
1, 73580, Note_off_c, 0, 77, 62
1, 73587, Note_on_c, 0, 76, 77
1, 73674, Note_on_c, 0, 72, 76
1, 73727, Note_on_c, 0, 75, 81
1, 73742, Note_off_c, 0, 72, 62
1, 73742, Note_off_c, 0, 76, 61
1, 73795, Note_on_c, 0, 69, 80
1, 73802, Note_off_c, 0, 75, 65
1, 73924, Note_on_c, 0, 65, 85
1, 73979, Control_c, 0, 64, 89
1, 73987, Note_on_c, 0, 77, 69
1, 73994, Control_c, 0, 64, 65
1, 74009, Control_c, 0, 64, 34
1, 74024, Control_c, 0, 64, 0
1, 74038, Control_c, 0, 67, 32
1, 74053, Control_c, 0, 67, 33
1, 74068, Control_c, 0, 64, 44
1, 74068, Control_c, 0, 67, 36
1, 74083, Control_c, 0, 64, 63
1, 74083, Control_c, 0, 67, 39
1, 74093, Note_off_c, 0, 69, 52
1, 74098, Control_c, 0, 64, 72
1, 74098, Control_c, 0, 67, 40
1, 74112, Control_c, 0, 64, 76
1, 74115, Note_on_c, 0, 73, 58
1, 74127, Control_c, 0, 64, 77
1, 74127, Control_c, 0, 67, 41
1, 74150, Control_c, 0, 67, 42
1, 74164, Control_c, 0, 64, 77
1, 74164, Control_c, 0, 67, 45
1, 74171, Note_off_c, 0, 77, 60
1, 74179, Control_c, 0, 67, 47
1, 74180, Note_off_c, 0, 73, 60
1, 74190, Note_on_c, 0, 76, 69
1, 74194, Control_c, 0, 64, 78
1, 74238, Control_c, 0, 67, 47
1, 74253, Control_c, 0, 67, 48
1, 74268, Control_c, 0, 64, 78
1, 74268, Control_c, 0, 67, 49
1, 74278, Note_on_c, 0, 72, 64
1, 74327, Control_c, 0, 64, 79
1, 74327, Control_c, 0, 67, 50
1, 74336, Note_off_c, 0, 76, 56
1, 74338, Note_on_c, 0, 75, 72
1, 74342, Control_c, 0, 64, 79
1, 74342, Control_c, 0, 67, 51
1, 74352, Note_off_c, 0, 72, 60
1, 74357, Control_c, 0, 64, 80
1, 74371, Control_c, 0, 64, 81
1, 74386, Control_c, 0, 64, 81
1, 74386, Control_c, 0, 67, 50
1, 74401, Control_c, 0, 64, 82
1, 74409, Note_on_c, 0, 69, 70
1, 74416, Control_c, 0, 64, 83
1, 74416, Control_c, 0, 67, 52
1, 74431, Control_c, 0, 64, 85
1, 74431, Control_c, 0, 67, 55
1, 74446, Control_c, 0, 64, 86
1, 74446, Control_c, 0, 67, 57
1, 74460, Control_c, 0, 64, 87
1, 74460, Control_c, 0, 67, 58
1, 74487, Note_on_c, 0, 77, 71
1, 74490, Control_c, 0, 64, 85
1, 74490, Control_c, 0, 67, 58
1, 74505, Control_c, 0, 64, 74
1, 74505, Control_c, 0, 67, 61
1, 74517, Note_off_c, 0, 75, 36
1, 74520, Control_c, 0, 64, 62
1, 74520, Control_c, 0, 67, 67
1, 74535, Control_c, 0, 64, 40
1, 74535, Control_c, 0, 67, 75
1, 74550, Control_c, 0, 64, 0
1, 74550, Control_c, 0, 67, 77
1, 74580, Control_c, 0, 64, 48
1, 74595, Control_c, 0, 64, 64
1, 74595, Control_c, 0, 67, 78
1, 74608, Note_on_c, 0, 73, 64
1, 74609, Control_c, 0, 64, 74
1, 74609, Control_c, 0, 67, 81
1, 74624, Control_c, 0, 64, 80
1, 74624, Control_c, 0, 67, 88
1, 74639, Control_c, 0, 64, 81
1, 74639, Control_c, 0, 67, 90
1, 74654, Control_c, 0, 67, 90
1, 74669, Control_c, 0, 64, 82
1, 74699, Control_c, 0, 67, 91
1, 74701, Note_off_c, 0, 73, 58
1, 74709, Note_on_c, 0, 76, 68
1, 74714, Control_c, 0, 67, 91
1, 74714, Note_off_c, 0, 77, 62
1, 74741, Note_off_c, 0, 69, 25
1, 74744, Control_c, 0, 67, 91
1, 74759, Control_c, 0, 67, 90
1, 74788, Control_c, 0, 67, 91
1, 74803, Control_c, 0, 67, 92
1, 74804, Note_on_c, 0, 72, 61
1, 74917, Note_on_c, 0, 75, 58
1, 74959, Note_off_c, 0, 72, 59
1, 74973, Control_c, 0, 64, 83
1, 74982, Note_off_c, 0, 76, 29
1, 74988, Control_c, 0, 64, 83
1, 75003, Control_c, 0, 64, 84
1, 75003, Control_c, 0, 67, 92
1, 75010, Note_on_c, 0, 69, 59
1, 75018, Control_c, 0, 64, 85
1, 75018, Control_c, 0, 67, 93
1, 75033, Control_c, 0, 64, 86
1, 75048, Control_c, 0, 64, 87
1, 75048, Control_c, 0, 67, 94
1, 75062, Control_c, 0, 64, 89
1, 75062, Control_c, 0, 67, 96
1, 75077, Control_c, 0, 64, 92
1, 75092, Control_c, 0, 64, 94
1, 75092, Control_c, 0, 67, 99
1, 75107, Control_c, 0, 64, 95
1, 75121, Control_c, 0, 64, 97
1, 75136, Control_c, 0, 67, 101
1, 75151, Control_c, 0, 64, 100
1, 75153, Note_on_c, 0, 77, 69
1, 75181, Control_c, 0, 64, 85
1, 75195, Control_c, 0, 64, 70
1, 75195, Control_c, 0, 67, 104
1, 75210, Control_c, 0, 64, 55
1, 75210, Control_c, 0, 67, 106
1, 75218, Note_off_c, 0, 75, 35
1, 75225, Control_c, 0, 64, 0
1, 75225, Control_c, 0, 67, 108
1, 75254, Control_c, 0, 64, 36
1, 75254, Control_c, 0, 67, 112
1, 75269, Control_c, 0, 64, 56
1, 75269, Control_c, 0, 67, 116
1, 75284, Control_c, 0, 64, 66
1, 75284, Control_c, 0, 67, 120
1, 75299, Control_c, 0, 64, 73
1, 75299, Control_c, 0, 67, 123
1, 75313, Control_c, 0, 64, 78
1, 75313, Control_c, 0, 67, 126
1, 75319, Note_on_c, 0, 73, 51
1, 75328, Control_c, 0, 64, 80
1, 75343, Control_c, 0, 64, 80
1, 75359, Control_c, 0, 64, 81
1, 75374, Control_c, 0, 64, 82
1, 75389, Control_c, 0, 64, 85
1, 75404, Control_c, 0, 64, 88
1, 75418, Control_c, 0, 64, 89
1, 75433, Control_c, 0, 64, 89
1, 75444, Note_off_c, 0, 73, 50
1, 75448, Control_c, 0, 64, 82
1, 75458, Note_on_c, 0, 64, 46
1, 75463, Control_c, 0, 64, 69
1, 75472, Note_off_c, 0, 77, 55
1, 75478, Control_c, 0, 64, 57
1, 75480, Note_on_c, 0, 76, 52
1, 75492, Control_c, 0, 64, 41
1, 75507, Control_c, 0, 64, 38
1, 75520, Note_off_c, 0, 65, 51
1, 75522, Control_c, 0, 64, 50
1, 75537, Control_c, 0, 64, 61
1, 75551, Control_c, 0, 64, 67
1, 75566, Control_c, 0, 64, 73
1, 75581, Control_c, 0, 64, 76
1, 75596, Control_c, 0, 64, 77
1, 75635, Note_on_c, 0, 72, 46
1, 75662, Note_off_c, 0, 69, 25
1, 75692, Control_c, 0, 64, 78
1, 75758, Note_off_c, 0, 76, 28
1, 75826, Control_c, 0, 64, 77
1, 75841, Control_c, 0, 64, 74
1, 75855, Control_c, 0, 64, 69
1, 75858, Note_on_c, 0, 75, 48
1, 75866, Note_on_c, 0, 63, 41
1, 75870, Control_c, 0, 64, 63
1, 75885, Control_c, 0, 64, 55
1, 75900, Control_c, 0, 64, 47
1, 75915, Control_c, 0, 64, 46
1, 75930, Control_c, 0, 64, 48
1, 75944, Control_c, 0, 64, 51
1, 75959, Control_c, 0, 64, 55
1, 75960, Note_off_c, 0, 64, 35
1, 75974, Control_c, 0, 64, 62
1, 75989, Control_c, 0, 64, 66
1, 76004, Note_off_c, 0, 72, 23
1, 76004, Control_c, 0, 64, 69
1, 76018, Control_c, 0, 64, 72
1, 76033, Control_c, 0, 64, 74
1, 76043, Note_on_c, 0, 69, 29
1, 76048, Control_c, 0, 64, 75
1, 76058, Note_off_c, 0, 75, 62
1, 76062, Control_c, 0, 64, 76
1, 76077, Control_c, 0, 64, 77
1, 76092, Control_c, 0, 64, 78
1, 76107, Control_c, 0, 64, 80
1, 76122, Control_c, 0, 64, 82
1, 76136, Control_c, 0, 64, 86
1, 76151, Control_c, 0, 64, 91
1, 76167, Control_c, 0, 64, 98
1, 76182, Control_c, 0, 64, 108
1, 76192, Note_off_c, 0, 63, 56
1, 76196, Control_c, 0, 64, 127
1, 76356, Note_off_c, 0, 69, 36
1, 76529, Control_c, 0, 64, 104
1, 76533, Note_on_c, 0, 68, 59
1, 76543, Note_on_c, 0, 61, 44
1, 76544, Note_on_c, 0, 65, 47
1, 76544, Control_c, 0, 64, 83
1, 76559, Note_on_c, 0, 77, 70
1, 76559, Control_c, 0, 64, 67
1, 76573, Note_on_c, 0, 73, 58
1, 76574, Control_c, 0, 64, 51
1, 76589, Control_c, 0, 64, 0
1, 76663, Control_c, 0, 64, 58
1, 76678, Note_off_c, 0, 61, 59
1, 76678, Control_c, 0, 64, 69
1, 76687, Note_off_c, 0, 65, 59
1, 76692, Control_c, 0, 64, 77
1, 76699, Note_off_c, 0, 77, 54
1, 76707, Control_c, 0, 64, 83
1, 76722, Control_c, 0, 64, 86
1, 76737, Control_c, 0, 64, 89
1, 76752, Control_c, 0, 64, 92
1, 76766, Control_c, 0, 64, 96
1, 76781, Control_c, 0, 64, 100
1, 76796, Control_c, 0, 64, 106
1, 76811, Control_c, 0, 64, 112
1, 76826, Control_c, 0, 64, 127
1, 76951, Note_off_c, 0, 73, 38
1, 77073, Note_off_c, 0, 68, 42
1, 77102, Note_on_c, 0, 64, 43
1, 77103, Note_on_c, 0, 76, 66
1, 77116, Note_on_c, 0, 72, 48
1, 77122, Note_on_c, 0, 60, 31
1, 77123, Note_on_c, 0, 67, 46
1, 77205, Control_c, 0, 64, 94
1, 77217, Note_off_c, 0, 76, 61
1, 77220, Control_c, 0, 64, 75
1, 77224, Note_off_c, 0, 60, 52
1, 77226, Note_on_c, 0, 75, 67
1, 77234, Note_on_c, 0, 70, 64
1, 77235, Control_c, 0, 64, 62
1, 77236, Note_off_c, 0, 72, 56
1, 77237, Note_on_c, 0, 66, 50
1, 77238, Note_on_c, 0, 58, 46
1, 77240, Note_off_c, 0, 67, 52
1, 77245, Note_on_c, 0, 63, 52
1, 77248, Note_off_c, 0, 64, 56
1, 77250, Control_c, 0, 64, 51
1, 77279, Control_c, 0, 64, 60
1, 77294, Control_c, 0, 64, 70
1, 77308, Control_c, 0, 64, 82
1, 77323, Control_c, 0, 64, 101
1, 77338, Control_c, 0, 64, 115
1, 77346, Note_off_c, 0, 58, 60
1, 77353, Control_c, 0, 64, 119
1, 77368, Note_off_c, 0, 66, 49
1, 77368, Control_c, 0, 64, 127
1, 77400, Note_off_c, 0, 63, 38
1, 77508, Note_off_c, 0, 70, 56
1, 77567, Note_on_c, 0, 68, 60
1, 77571, Note_on_c, 0, 61, 44
1, 77576, Note_on_c, 0, 65, 56
1, 77605, Control_c, 0, 64, 92
1, 77605, Note_on_c, 0, 77, 74
1, 77608, Note_on_c, 0, 73, 63
1, 77609, Note_off_c, 0, 75, 59
1, 77620, Control_c, 0, 64, 74
1, 77634, Control_c, 0, 64, 61
1, 77649, Control_c, 0, 64, 0
1, 77784, Control_c, 0, 64, 41
1, 77799, Control_c, 0, 64, 57
1, 77813, Control_c, 0, 64, 64
1, 77828, Control_c, 0, 64, 67
1, 77843, Control_c, 0, 64, 69
1, 77858, Control_c, 0, 64, 70
1, 77873, Control_c, 0, 64, 71
1, 77894, Control_c, 0, 64, 72
1, 77909, Control_c, 0, 64, 74
1, 77924, Control_c, 0, 64, 77
1, 77939, Control_c, 0, 64, 80
1, 77954, Control_c, 0, 64, 83
1, 77969, Control_c, 0, 64, 87
1, 77984, Control_c, 0, 64, 91
1, 77999, Control_c, 0, 64, 95
1, 78013, Control_c, 0, 64, 99
1, 78028, Control_c, 0, 64, 104
1, 78043, Control_c, 0, 64, 112
1, 78057, Control_c, 0, 64, 127
1, 78208, Note_off_c, 0, 73, 38
1, 78500, Note_off_c, 0, 65, 23
1, 78532, Note_off_c, 0, 61, 37
1, 78553, Note_off_c, 0, 68, 36
1, 78931, Note_off_c, 0, 77, 34
1, 79050, Note_on_c, 0, 75, 50
1, 79068, Note_on_c, 0, 60, 35
1, 79173, Note_off_c, 0, 60, 63
1, 79176, Control_c, 0, 64, 90
1, 79189, Note_on_c, 0, 73, 56
1, 79191, Control_c, 0, 64, 75
1, 79193, Note_on_c, 0, 70, 48
1, 79196, Note_on_c, 0, 58, 45
1, 79197, Note_on_c, 0, 65, 46
1, 79206, Note_on_c, 0, 61, 35
1, 79206, Control_c, 0, 64, 70
1, 79236, Control_c, 0, 64, 71
1, 79251, Control_c, 0, 64, 75
1, 79266, Control_c, 0, 64, 79
1, 79275, Note_off_c, 0, 65, 59
1, 79280, Control_c, 0, 64, 82
1, 79295, Control_c, 0, 64, 87
1, 79310, Control_c, 0, 64, 92
1, 79316, Note_off_c, 0, 58, 55
1, 79316, Note_off_c, 0, 61, 54
1, 79325, Control_c, 0, 64, 98
1, 79340, Control_c, 0, 64, 103
1, 79355, Control_c, 0, 64, 108
1, 79377, Control_c, 0, 64, 112
1, 79388, Note_off_c, 0, 70, 49
1, 79392, Control_c, 0, 64, 116
1, 79407, Control_c, 0, 64, 127
1, 79412, Note_off_c, 0, 75, 14
1, 79443, Note_off_c, 0, 73, 41
1, 79497, Note_on_c, 0, 65, 27
1, 79500, Note_on_c, 0, 61, 50
1, 79503, Note_on_c, 0, 68, 62
1, 79540, Control_c, 0, 64, 106
1, 79555, Control_c, 0, 64, 80
1, 79570, Note_on_c, 0, 77, 68
1, 79570, Control_c, 0, 64, 64
1, 79573, Note_on_c, 0, 73, 60
1, 79585, Control_c, 0, 64, 43
1, 79600, Control_c, 0, 64, 0
1, 79629, Control_c, 0, 64, 43
1, 79633, Note_off_c, 0, 65, 55
1, 79638, Note_off_c, 0, 73, 0
1, 79642, Note_off_c, 0, 61, 52
1, 79644, Control_c, 0, 64, 61
1, 79659, Control_c, 0, 64, 72
1, 79672, Note_on_c, 0, 73, 19
1, 79674, Control_c, 0, 64, 79
1, 79689, Control_c, 0, 64, 81
1, 79697, Note_off_c, 0, 68, 52
1, 79718, Control_c, 0, 64, 81
1, 79748, Control_c, 0, 64, 82
1, 79777, Control_c, 0, 64, 82
1, 79785, Note_off_c, 0, 77, 38
1, 79829, Note_off_c, 0, 73, 30
1, 79915, Note_on_c, 0, 75, 60
1, 79933, Note_on_c, 0, 60, 42
1, 80002, Note_off_c, 0, 60, 61
1, 80017, Note_on_c, 0, 73, 67
1, 80020, Note_on_c, 0, 58, 54
1, 80031, Note_off_c, 0, 75, 50
1, 80088, Control_c, 0, 64, 77
1, 80103, Control_c, 0, 64, 68
1, 80118, Control_c, 0, 64, 57
1, 80136, Note_on_c, 0, 72, 76
1, 80140, Note_on_c, 0, 56, 54
1, 80140, Control_c, 0, 64, 42
1, 80142, Note_on_c, 0, 68, 69
1, 80143, Note_on_c, 0, 65, 60
1, 80143, Note_off_c, 0, 58, 58
1, 80148, Note_on_c, 0, 60, 51
1, 80156, Control_c, 0, 64, 46
1, 80171, Control_c, 0, 64, 58
1, 80186, Control_c, 0, 64, 69
1, 80201, Control_c, 0, 64, 81
1, 80204, Note_off_c, 0, 72, 62
1, 80205, Note_off_c, 0, 73, 60
1, 80212, Note_off_c, 0, 60, 62
1, 80215, Control_c, 0, 64, 94
1, 80220, Note_off_c, 0, 56, 60
1, 80221, Note_off_c, 0, 65, 64
1, 80230, Control_c, 0, 64, 98
1, 80245, Control_c, 0, 64, 102
1, 80259, Control_c, 0, 64, 111
1, 80274, Control_c, 0, 64, 127
1, 80383, Note_off_c, 0, 68, 57
1, 80437, Control_c, 0, 64, 111
1, 80452, Control_c, 0, 64, 92
1, 80464, Note_on_c, 0, 77, 62
1, 80464, Note_on_c, 0, 68, 47
1, 80467, Control_c, 0, 64, 78
1, 80469, Note_on_c, 0, 73, 54
1, 80470, Note_on_c, 0, 65, 48
1, 80473, Note_on_c, 0, 61, 30
1, 80482, Control_c, 0, 64, 65
1, 80497, Control_c, 0, 64, 48
1, 80512, Control_c, 0, 64, 0
1, 80600, Control_c, 0, 64, 40
1, 80615, Control_c, 0, 64, 61
1, 80630, Control_c, 0, 64, 71
1, 80633, Note_off_c, 0, 65, 60
1, 80639, Note_off_c, 0, 77, 62
1, 80642, Note_off_c, 0, 68, 54
1, 80645, Control_c, 0, 64, 78
1, 80650, Note_off_c, 0, 73, 63
1, 80659, Control_c, 0, 64, 79
1, 80673, Note_off_c, 0, 61, 37
1, 80674, Control_c, 0, 64, 80
1, 80688, Control_c, 0, 64, 81
1, 80703, Control_c, 0, 64, 81
1, 80851, Control_c, 0, 64, 81
1, 80888, Control_c, 0, 64, 80
1, 80903, Control_c, 0, 64, 80
1, 81008, Control_c, 0, 64, 79
1, 81048, Note_on_c, 0, 80, 71
1, 81056, Note_on_c, 0, 70, 55
1, 81058, Note_on_c, 0, 66, 49
1, 81060, Note_on_c, 0, 75, 58
1, 81096, Control_c, 0, 64, 78
1, 81098, Note_off_c, 0, 70, 59
1, 81111, Control_c, 0, 64, 75
1, 81126, Control_c, 0, 64, 73
1, 81135, Note_off_c, 0, 66, 53
1, 81141, Control_c, 0, 64, 66
1, 81144, Note_on_c, 0, 60, 28
1, 81156, Control_c, 0, 64, 57
1, 81170, Control_c, 0, 64, 0
1, 81188, Note_off_c, 0, 75, 59
1, 81193, Note_off_c, 0, 60, 54
1, 81206, Note_on_c, 0, 61, 40
1, 81213, Note_on_c, 0, 77, 61
1, 81219, Note_on_c, 0, 73, 66
1, 81223, Note_on_c, 0, 68, 62
1, 81231, Note_on_c, 0, 65, 42
1, 81271, Note_off_c, 0, 80, 55
1, 81289, Control_c, 0, 64, 53
1, 81304, Control_c, 0, 64, 63
1, 81319, Control_c, 0, 64, 65
1, 81334, Note_off_c, 0, 73, 39
1, 81334, Control_c, 0, 64, 67
1, 81348, Control_c, 0, 64, 70
1, 81352, Note_off_c, 0, 77, 56
1, 81363, Control_c, 0, 64, 74
1, 81367, Note_off_c, 0, 61, 49
1, 81371, Note_off_c, 0, 65, 48
1, 81378, Control_c, 0, 64, 78
1, 81393, Control_c, 0, 64, 82
1, 81394, Note_off_c, 0, 68, 38
1, 81407, Control_c, 0, 64, 84
1, 81422, Control_c, 0, 64, 87
1, 81437, Control_c, 0, 64, 92
1, 81452, Control_c, 0, 64, 99
1, 81467, Control_c, 0, 64, 106
1, 81481, Control_c, 0, 64, 112
1, 81496, Control_c, 0, 64, 116
1, 81511, Control_c, 0, 64, 127
1, 81704, Note_on_c, 0, 77, 51
1, 81708, Note_on_c, 0, 68, 45
1, 81710, Note_on_c, 0, 73, 46
1, 81711, Control_c, 0, 64, 115
1, 81726, Control_c, 0, 64, 96
1, 81730, Note_on_c, 0, 65, 42
1, 81738, Note_on_c, 0, 61, 33
1, 81741, Control_c, 0, 64, 80
1, 81757, Control_c, 0, 64, 69
1, 81772, Control_c, 0, 64, 59
1, 81785, Note_off_c, 0, 68, 0
1, 81785, Note_on_c, 0, 68, 15
1, 81786, Control_c, 0, 64, 45
1, 81801, Control_c, 0, 64, 0
1, 82097, Control_c, 0, 64, 38
1, 82112, Control_c, 0, 64, 50
1, 82127, Control_c, 0, 64, 59
1, 82142, Control_c, 0, 64, 64
1, 82157, Control_c, 0, 64, 65
1, 82171, Control_c, 0, 64, 66
1, 82186, Control_c, 0, 64, 66
1, 82201, Control_c, 0, 64, 68
1, 82216, Control_c, 0, 64, 71
1, 82230, Control_c, 0, 64, 74
1, 82245, Control_c, 0, 64, 79
1, 82260, Control_c, 0, 64, 82
1, 82275, Control_c, 0, 64, 84
1, 82290, Control_c, 0, 64, 86
1, 82304, Control_c, 0, 64, 89
1, 82319, Control_c, 0, 64, 94
1, 82334, Control_c, 0, 64, 106
1, 82349, Control_c, 0, 64, 127
1, 82355, Note_off_c, 0, 73, 38
1, 82457, Note_off_c, 0, 77, 32
1, 83457, Note_off_c, 0, 68, 32
1, 83727, Note_on_c, 0, 75, 66
1, 83743, Control_c, 0, 64, 116
1, 83758, Control_c, 0, 64, 109
1, 83773, Control_c, 0, 64, 105
1, 83788, Control_c, 0, 64, 101
1, 83802, Control_c, 0, 64, 99
1, 83803, Note_off_c, 0, 65, 41
1, 83817, Control_c, 0, 64, 96
1, 83832, Control_c, 0, 64, 93
1, 83847, Control_c, 0, 64, 90
1, 83857, Note_off_c, 0, 61, 40
1, 83862, Control_c, 0, 64, 88
1, 83883, Control_c, 0, 64, 85
1, 83898, Control_c, 0, 64, 83
1, 83913, Control_c, 0, 64, 81
1, 83928, Control_c, 0, 64, 78
1, 83943, Control_c, 0, 64, 75
1, 83958, Control_c, 0, 64, 73
1, 83972, Control_c, 0, 64, 71
1, 83987, Control_c, 0, 64, 69
1, 84002, Control_c, 0, 64, 68
1, 84017, Control_c, 0, 64, 66
1, 84032, Control_c, 0, 64, 65
1, 84047, Control_c, 0, 64, 64
1, 84106, Control_c, 0, 64, 64
1, 84151, Control_c, 0, 64, 63
1, 84172, Note_on_c, 0, 77, 69
1, 84196, Control_c, 0, 64, 63
1, 84220, Note_off_c, 0, 75, 51
1, 84225, Control_c, 0, 64, 62
1, 84240, Control_c, 0, 64, 62
1, 84255, Control_c, 0, 64, 61
1, 84270, Control_c, 0, 64, 61
1, 84285, Control_c, 0, 64, 60
1, 84314, Control_c, 0, 64, 60
1, 84344, Control_c, 0, 64, 59
1, 84359, Control_c, 0, 64, 59
1, 84373, Control_c, 0, 64, 58
1, 84403, Control_c, 0, 64, 58
1, 84447, Note_on_c, 0, 78, 79
1, 84447, Control_c, 0, 64, 57
1, 84462, Control_c, 0, 64, 56
1, 84476, Note_off_c, 0, 77, 62
1, 84477, Control_c, 0, 64, 55
1, 84491, Control_c, 0, 64, 54
1, 84491, Control_c, 0, 67, 119
1, 84506, Control_c, 0, 67, 111
1, 84521, Control_c, 0, 67, 107
1, 84536, Control_c, 0, 64, 54
1, 84551, Control_c, 0, 64, 53
1, 84551, Control_c, 0, 67, 105
1, 84566, Control_c, 0, 64, 52
1, 84566, Control_c, 0, 67, 102
1, 84581, Control_c, 0, 67, 95
1, 84595, Control_c, 0, 67, 88
1, 84610, Control_c, 0, 67, 82
1, 84632, Control_c, 0, 64, 52
1, 84632, Control_c, 0, 67, 79
1, 84647, Control_c, 0, 64, 51
1, 84647, Control_c, 0, 67, 75
1, 84662, Control_c, 0, 67, 70
1, 84677, Control_c, 0, 67, 67
1, 84706, Control_c, 0, 64, 51
1, 84721, Control_c, 0, 64, 50
1, 84726, Note_on_c, 0, 77, 74
1, 84736, Control_c, 0, 64, 50
1, 84736, Control_c, 0, 67, 67
1, 84751, Control_c, 0, 64, 49
1, 84751, Control_c, 0, 67, 66
1, 84762, Note_off_c, 0, 78, 62
1, 84765, Control_c, 0, 67, 66
1, 84795, Control_c, 0, 64, 49
1, 84810, Control_c, 0, 64, 48
1, 84825, Control_c, 0, 64, 47
1, 84825, Control_c, 0, 67, 65
1, 84840, Control_c, 0, 64, 46
1, 84855, Control_c, 0, 64, 44
1, 84855, Control_c, 0, 67, 66
1, 84870, Control_c, 0, 64, 42
1, 84870, Control_c, 0, 67, 67
1, 84885, Control_c, 0, 64, 40
1, 84899, Control_c, 0, 64, 37
1, 84914, Control_c, 0, 64, 0
1, 84974, Control_c, 0, 67, 66
1, 84989, Control_c, 0, 67, 65
1, 85048, Control_c, 0, 67, 64
1, 85063, Control_c, 0, 67, 62
1, 85078, Control_c, 0, 67, 60
1, 85152, Note_on_c, 0, 80, 76
1, 85156, Note_off_c, 0, 77, 65
1, 85166, Control_c, 0, 67, 62
1, 85182, Control_c, 0, 67, 64
1, 85241, Control_c, 0, 67, 67
1, 85256, Control_c, 0, 64, 49
1, 85256, Control_c, 0, 67, 74
1, 85271, Control_c, 0, 64, 60
1, 85271, Control_c, 0, 67, 78
1, 85286, Control_c, 0, 64, 65
1, 85301, Control_c, 0, 64, 66
1, 85315, Control_c, 0, 64, 68
1, 85315, Control_c, 0, 67, 79
1, 85330, Control_c, 0, 64, 70
1, 85330, Control_c, 0, 67, 87
1, 85345, Control_c, 0, 64, 73
1, 85345, Control_c, 0, 67, 106
1, 85360, Control_c, 0, 64, 76
1, 85360, Control_c, 0, 67, 121
1, 85382, Control_c, 0, 64, 79
1, 85382, Control_c, 0, 67, 123
1, 85397, Control_c, 0, 64, 82
1, 85412, Control_c, 0, 64, 85
1, 85417, Note_on_c, 0, 68, 47
1, 85427, Control_c, 0, 64, 89
1, 85427, Control_c, 0, 67, 127
1, 85431, Note_on_c, 0, 75, 51
1, 85442, Control_c, 0, 64, 95
1, 85456, Control_c, 0, 64, 101
1, 85471, Control_c, 0, 64, 108
1, 85486, Control_c, 0, 64, 120
1, 85501, Control_c, 0, 64, 127
1, 85587, Note_on_c, 0, 67, 42
1, 85592, Note_on_c, 0, 77, 43
1, 85600, Note_off_c, 0, 68, 49
1, 85632, Note_on_c, 0, 73, 14
1, 85636, Note_off_c, 0, 75, 56
1, 85680, Note_off_c, 0, 73, 39
1, 85681, Note_off_c, 0, 77, 47
1, 85691, Note_off_c, 0, 67, 52
1, 85710, Note_on_c, 0, 66, 43
1, 85787, Note_off_c, 0, 66, 54
1, 85819, Note_on_c, 0, 77, 57
1, 85827, Note_on_c, 0, 68, 56
1, 85829, Note_on_c, 0, 65, 50
1, 85829, Note_on_c, 0, 73, 48
1, 85883, Note_off_c, 0, 80, 55
1, 85921, Note_off_c, 0, 65, 61
1, 85937, Note_on_c, 0, 56, 57
1, 86006, Note_off_c, 0, 68, 53
1, 86081, Note_on_c, 0, 82, 88
1, 86108, Note_off_c, 0, 73, 61
1, 86109, Control_c, 0, 64, 98
1, 86118, Note_off_c, 0, 77, 63
1, 86131, Control_c, 0, 64, 78
1, 86146, Control_c, 0, 64, 72
1, 86160, Control_c, 0, 64, 71
1, 86175, Control_c, 0, 64, 74
1, 86190, Control_c, 0, 64, 78
1, 86205, Control_c, 0, 64, 82
1, 86220, Control_c, 0, 64, 87
1, 86227, Note_off_c, 0, 56, 59
1, 86235, Control_c, 0, 64, 93
1, 86250, Control_c, 0, 64, 96
1, 86253, Note_on_c, 0, 75, 56
1, 86260, Note_on_c, 0, 55, 48
1, 86267, Note_on_c, 0, 70, 45
1, 86279, Control_c, 0, 64, 98
1, 86324, Control_c, 0, 64, 101
1, 86339, Control_c, 0, 64, 106
1, 86352, Note_off_c, 0, 55, 53
1, 86353, Control_c, 0, 64, 112
1, 86368, Control_c, 0, 64, 122
1, 86374, Note_on_c, 0, 54, 57
1, 86383, Control_c, 0, 64, 127
1, 86384, Note_on_c, 0, 77, 62
1, 86396, Note_on_c, 0, 73, 52
1, 86403, Note_off_c, 0, 70, 28
1, 86411, Note_off_c, 0, 75, 54
1, 86420, Note_off_c, 0, 73, 59
1, 86439, Note_off_c, 0, 54, 57
1, 86456, Note_off_c, 0, 77, 60
1, 86491, Note_on_c, 0, 53, 53
1, 86631, Note_on_c, 0, 73, 51
1, 86637, Note_on_c, 0, 77, 57
1, 86640, Note_on_c, 0, 44, 54
1, 86641, Note_on_c, 0, 70, 47
1, 86792, Note_on_c, 0, 37, 57
1, 86795, Note_off_c, 0, 53, 19
1, 86813, Note_off_c, 0, 82, 58
1, 86827, Control_c, 0, 64, 124
1, 86834, Note_off_c, 0, 44, 37
1, 86857, Control_c, 0, 64, 122
1, 86879, Control_c, 0, 64, 119
1, 86894, Control_c, 0, 64, 116
1, 86924, Control_c, 0, 64, 113
1, 86938, Control_c, 0, 64, 111
1, 86953, Control_c, 0, 64, 101
1, 86968, Control_c, 0, 64, 85
1, 86980, Note_on_c, 0, 80, 75
1, 86983, Control_c, 0, 64, 69
1, 86998, Control_c, 0, 64, 54
1, 87001, Note_off_c, 0, 70, 60
1, 87013, Control_c, 0, 64, 0
1, 87015, Note_off_c, 0, 77, 60
1, 87029, Note_off_c, 0, 73, 56
1, 87072, Control_c, 0, 64, 38
1, 87087, Control_c, 0, 64, 61
1, 87101, Control_c, 0, 64, 72
1, 87116, Control_c, 0, 64, 81
1, 87131, Control_c, 0, 64, 85
1, 87141, Note_on_c, 0, 44, 47
1, 87145, Control_c, 0, 64, 86
1, 87160, Control_c, 0, 64, 87
1, 87174, Note_on_c, 0, 75, 49
1, 87175, Control_c, 0, 64, 88
1, 87177, Note_off_c, 0, 37, 55
1, 87190, Control_c, 0, 64, 89
1, 87200, Note_on_c, 0, 68, 34
1, 87205, Control_c, 0, 64, 90
1, 87219, Control_c, 0, 64, 90
1, 87234, Control_c, 0, 64, 91
1, 87249, Note_off_c, 0, 44, 62
1, 87249, Control_c, 0, 64, 92
1, 87264, Control_c, 0, 64, 94
1, 87279, Control_c, 0, 64, 96
1, 87311, Note_on_c, 0, 53, 33
1, 87323, Control_c, 0, 64, 98
1, 87325, Note_on_c, 0, 73, 48
1, 87329, Note_on_c, 0, 77, 47
1, 87350, Note_off_c, 0, 75, 54
1, 87352, Note_off_c, 0, 73, 59
1, 87356, Note_off_c, 0, 68, 21
1, 87368, Control_c, 0, 64, 100
1, 87373, Note_off_c, 0, 77, 54
1, 87413, Control_c, 0, 64, 103
1, 87440, Note_on_c, 0, 54, 45
1, 87444, Note_off_c, 0, 53, 51
1, 87458, Control_c, 0, 64, 105
1, 87559, Note_off_c, 0, 54, 54
1, 87566, Note_on_c, 0, 55, 48
1, 87573, Note_on_c, 0, 77, 49
1, 87582, Note_on_c, 0, 68, 42
1, 87583, Note_on_c, 0, 73, 42
1, 87591, Control_c, 0, 64, 107
1, 87656, Note_off_c, 0, 55, 58
1, 87658, Control_c, 0, 64, 109
1, 87673, Control_c, 0, 64, 111
1, 87688, Control_c, 0, 64, 113
1, 87700, Note_on_c, 0, 56, 38
1, 87717, Control_c, 0, 64, 117
1, 87731, Note_off_c, 0, 56, 49
1, 87732, Control_c, 0, 64, 122
1, 87735, Note_off_c, 0, 68, 36
1, 87747, Control_c, 0, 64, 127
1, 87806, Note_on_c, 0, 65, 48
1, 87806, Note_off_c, 0, 80, 21
1, 87901, Note_off_c, 0, 65, 56
1, 87926, Note_on_c, 0, 66, 52
1, 87997, Note_off_c, 0, 66, 61
1, 88041, Note_on_c, 0, 67, 48
1, 88066, Note_off_c, 0, 67, 63
1, 88113, Note_off_c, 0, 73, 39
1, 88155, Note_off_c, 0, 77, 63
1, 88156, Note_on_c, 0, 80, 78
1, 88169, Note_on_c, 0, 65, 53
1, 88172, Note_on_c, 0, 68, 60
1, 88178, Control_c, 0, 64, 98
1, 88192, Control_c, 0, 64, 93
1, 88207, Control_c, 0, 64, 92
1, 88327, Note_off_c, 0, 65, 57
1, 88329, Note_off_c, 0, 68, 47
1, 88336, Note_on_c, 0, 66, 51
1, 88340, Note_on_c, 0, 70, 67
1, 88345, Note_on_c, 0, 63, 43
1, 88348, Note_on_c, 0, 78, 71
1, 88355, Control_c, 0, 64, 90
1, 88378, Control_c, 0, 64, 81
1, 88387, Note_off_c, 0, 80, 54
1, 88392, Control_c, 0, 64, 67
1, 88407, Control_c, 0, 64, 49
1, 88422, Control_c, 0, 64, 0
1, 88481, Control_c, 0, 64, 54
1, 88489, Note_off_c, 0, 66, 61
1, 88496, Control_c, 0, 64, 65
1, 88498, Note_off_c, 0, 70, 62
1, 88507, Note_off_c, 0, 63, 58
1, 88511, Control_c, 0, 64, 71
1, 88516, Note_on_c, 0, 56, 46
1, 88523, Note_on_c, 0, 72, 55
1, 88525, Control_c, 0, 64, 72
1, 88540, Control_c, 0, 64, 72
1, 88555, Control_c, 0, 64, 73
1, 88570, Control_c, 0, 64, 73
1, 88585, Control_c, 0, 64, 74
1, 88599, Control_c, 0, 64, 74
1, 88629, Control_c, 0, 64, 75
1, 88733, Control_c, 0, 64, 74
1, 88746, Note_off_c, 0, 72, 56
1, 88748, Control_c, 0, 64, 73
1, 88748, Note_on_c, 0, 77, 57
1, 88763, Control_c, 0, 64, 70
1, 88766, Note_on_c, 0, 73, 45
1, 88769, Note_on_c, 0, 68, 44
1, 88773, Note_on_c, 0, 61, 41
1, 88778, Control_c, 0, 64, 66
1, 88784, Note_on_c, 0, 65, 37
1, 88784, Note_off_c, 0, 56, 36
1, 88784, Note_off_c, 0, 78, 37
1, 88792, Control_c, 0, 64, 62
1, 88807, Control_c, 0, 64, 52
1, 88822, Control_c, 0, 64, 0
1, 89015, Control_c, 0, 64, 44
1, 89030, Control_c, 0, 64, 61
1, 89045, Control_c, 0, 64, 69
1, 89060, Control_c, 0, 64, 74
1, 89075, Control_c, 0, 64, 76
1, 89089, Control_c, 0, 64, 76
1, 89104, Control_c, 0, 64, 78
1, 89126, Control_c, 0, 64, 80
1, 89141, Control_c, 0, 64, 84
1, 89156, Control_c, 0, 64, 90
1, 89171, Control_c, 0, 64, 98
1, 89186, Control_c, 0, 64, 107
1, 89201, Control_c, 0, 64, 127
1, 89290, Note_off_c, 0, 77, 41
1, 89358, Note_off_c, 0, 73, 36
1, 89430, Note_off_c, 0, 68, 30
1, 89562, Note_off_c, 0, 65, 32
1, 89650, Note_off_c, 0, 61, 32
1, 89906, Control_c, 0, 67, 118
1, 89920, Control_c, 0, 67, 109
1, 89935, Control_c, 0, 67, 104
1, 89964, Control_c, 0, 67, 101
1, 89979, Control_c, 0, 64, 100
1, 89979, Control_c, 0, 67, 97
1, 89982, Note_on_c, 0, 75, 69
1, 89994, Control_c, 0, 64, 97
1, 89994, Control_c, 0, 67, 88
1, 90009, Control_c, 0, 67, 81
1, 90024, Control_c, 0, 64, 104
1, 90024, Control_c, 0, 67, 80
1, 90039, Control_c, 0, 64, 127
1, 90039, Control_c, 0, 67, 79
1, 90054, Control_c, 0, 67, 78
1, 90068, Control_c, 0, 67, 72
1, 90079, Note_off_c, 0, 75, 61
1, 90083, Control_c, 0, 67, 63
1, 90098, Control_c, 0, 67, 56
1, 90113, Control_c, 0, 67, 52
1, 90128, Control_c, 0, 67, 50
1, 90143, Control_c, 0, 67, 48
1, 90158, Control_c, 0, 67, 47
1, 90172, Control_c, 0, 67, 46
1, 90185, Note_on_c, 0, 73, 79
1, 90202, Control_c, 0, 64, 87
1, 90217, Note_off_c, 0, 73, 66
1, 90217, Control_c, 0, 64, 59
1, 90232, Control_c, 0, 64, 0
1, 90233, Note_on_c, 0, 75, 73
1, 90271, Note_on_c, 0, 73, 76
1, 90276, Control_c, 0, 64, 56
1, 90283, Note_off_c, 0, 75, 63
1, 90290, Control_c, 0, 64, 67
1, 90290, Control_c, 0, 67, 47
1, 90305, Control_c, 0, 64, 77
1, 90320, Control_c, 0, 64, 82
1, 90335, Control_c, 0, 64, 83
1, 90350, Control_c, 0, 64, 84
1, 90364, Control_c, 0, 64, 84
1, 90379, Control_c, 0, 64, 85
1, 90394, Control_c, 0, 64, 86
1, 90409, Control_c, 0, 64, 89
1, 90423, Control_c, 0, 64, 91
1, 90438, Control_c, 0, 64, 92
1, 90453, Control_c, 0, 64, 94
1, 90468, Control_c, 0, 64, 95
1, 90468, Control_c, 0, 67, 47
1, 90482, Control_c, 0, 64, 98
1, 90497, Control_c, 0, 64, 101
1, 90512, Control_c, 0, 64, 107
1, 90527, Control_c, 0, 64, 115
1, 90542, Control_c, 0, 64, 127
1, 90638, Note_on_c, 0, 72, 81
1, 90654, Control_c, 0, 67, 48
1, 90682, Note_off_c, 0, 73, 56
1, 90742, Control_c, 0, 67, 49
1, 90757, Control_c, 0, 67, 50
1, 90812, Note_on_c, 0, 54, 57
1, 90815, Note_on_c, 0, 58, 55
1, 90817, Control_c, 0, 67, 50
1, 90832, Control_c, 0, 67, 53
1, 90861, Control_c, 0, 64, 82
1, 90869, Note_on_c, 0, 70, 75
1, 90876, Control_c, 0, 64, 62
1, 90882, Note_off_c, 0, 72, 63
1, 90888, Note_on_c, 0, 65, 63
1, 90891, Control_c, 0, 64, 0
1, 90920, Control_c, 0, 67, 54
1, 90935, Control_c, 0, 67, 55
1, 90950, Control_c, 0, 64, 41
1, 90965, Control_c, 0, 64, 62
1, 90980, Control_c, 0, 64, 75
1, 90980, Control_c, 0, 67, 54
1, 90981, Note_off_c, 0, 65, 60
1, 90994, Control_c, 0, 64, 86
1, 91009, Control_c, 0, 64, 94
1, 91009, Control_c, 0, 67, 55
1, 91024, Control_c, 0, 64, 97
1, 91024, Control_c, 0, 67, 55
1, 91039, Control_c, 0, 64, 101
1, 91054, Control_c, 0, 64, 107
1, 91068, Control_c, 0, 64, 117
1, 91068, Control_c, 0, 67, 55
1, 91083, Control_c, 0, 64, 127
1, 91112, Control_c, 0, 67, 55
1, 91157, Control_c, 0, 67, 55
1, 91282, Note_on_c, 0, 55, 59
1, 91299, Note_on_c, 0, 73, 72
1, 91299, Note_off_c, 0, 54, 36
1, 91305, Control_c, 0, 67, 55
1, 91312, Note_off_c, 0, 58, 41
1, 91326, Note_off_c, 0, 70, 61
1, 91329, Note_on_c, 0, 64, 47
1, 91351, Note_off_c, 0, 55, 62
1, 91373, Control_c, 0, 67, 55
1, 91388, Control_c, 0, 67, 55
1, 91414, Note_off_c, 0, 73, 60
1, 91417, Control_c, 0, 67, 56
1, 91491, Control_c, 0, 67, 57
1, 91535, Note_on_c, 0, 54, 43
1, 91546, Note_on_c, 0, 44, 50
1, 91550, Note_on_c, 0, 63, 61
1, 91550, Note_off_c, 0, 64, 36
1, 91550, Control_c, 0, 64, 120
1, 91559, Note_on_c, 0, 51, 50
1, 91563, Note_on_c, 0, 61, 49
1, 91565, Control_c, 0, 64, 85
1, 91565, Control_c, 0, 67, 58
1, 91580, Control_c, 0, 64, 68
1, 91580, Control_c, 0, 67, 59
1, 91595, Control_c, 0, 64, 49
1, 91595, Control_c, 0, 67, 60
1, 91610, Control_c, 0, 64, 0
1, 91654, Control_c, 0, 67, 60
1, 91669, Control_c, 0, 67, 62
1, 91684, Control_c, 0, 67, 64
1, 91699, Control_c, 0, 67, 65
1, 91758, Control_c, 0, 64, 43
1, 91758, Control_c, 0, 67, 66
1, 91773, Control_c, 0, 64, 58
1, 91773, Control_c, 0, 67, 66
1, 91788, Control_c, 0, 64, 64
1, 91803, Control_c, 0, 64, 67
1, 91817, Control_c, 0, 64, 68
1, 91847, Control_c, 0, 64, 69
1, 91861, Control_c, 0, 64, 71
1, 91861, Control_c, 0, 67, 67
1, 91876, Control_c, 0, 64, 74
1, 91891, Control_c, 0, 64, 78
1, 91906, Control_c, 0, 64, 83
1, 91921, Control_c, 0, 64, 88
1, 91935, Control_c, 0, 64, 94
1, 91950, Control_c, 0, 64, 102
1, 91965, Control_c, 0, 64, 113
1, 91965, Control_c, 0, 67, 67
1, 91980, Control_c, 0, 64, 127
1, 92009, Control_c, 0, 67, 67
1, 92079, Note_off_c, 0, 61, 36
1, 92093, Note_off_c, 0, 63, 60
1, 92121, Control_c, 0, 67, 66
1, 92123, Note_off_c, 0, 44, 40
1, 92256, Note_off_c, 0, 54, 60
1, 92314, Control_c, 0, 67, 66
1, 92431, Note_off_c, 0, 51, 48
1, 92447, Control_c, 0, 67, 65
1, 92492, Control_c, 0, 67, 65
1, 92537, Control_c, 0, 67, 64
1, 92563, Note_on_c, 0, 55, 58
1, 92563, Note_on_c, 0, 58, 62
1, 92590, Note_on_c, 0, 72, 78
1, 92605, Note_on_c, 0, 64, 65
1, 92649, Note_off_c, 0, 58, 62
1, 92677, Note_off_c, 0, 55, 61
1, 92710, Note_off_c, 0, 72, 59
1, 92715, Control_c, 0, 67, 65
1, 92730, Control_c, 0, 67, 65
1, 92745, Control_c, 0, 67, 66
1, 92759, Control_c, 0, 67, 66
1, 92789, Control_c, 0, 64, 104
1, 92794, Note_off_c, 0, 64, 58
1, 92804, Control_c, 0, 64, 74
1, 92804, Control_c, 0, 67, 67
1, 92805, Note_on_c, 0, 51, 43
1, 92806, Note_on_c, 0, 61, 58
1, 92812, Note_on_c, 0, 44, 45
1, 92816, Note_on_c, 0, 54, 47
1, 92817, Note_on_c, 0, 63, 57
1, 92819, Control_c, 0, 64, 57
1, 92819, Control_c, 0, 67, 67
1, 92833, Control_c, 0, 64, 0
1, 92833, Control_c, 0, 67, 68
1, 92848, Control_c, 0, 67, 68
1, 92870, Control_c, 0, 67, 69
1, 92885, Control_c, 0, 67, 71
1, 92900, Control_c, 0, 67, 74
1, 92915, Control_c, 0, 64, 47
1, 92915, Control_c, 0, 67, 77
1, 92930, Control_c, 0, 64, 62
1, 92930, Control_c, 0, 67, 79
1, 92945, Control_c, 0, 64, 70
1, 92945, Control_c, 0, 67, 82
1, 92960, Control_c, 0, 64, 77
1, 92960, Control_c, 0, 67, 86
1, 92975, Control_c, 0, 64, 82
1, 92975, Control_c, 0, 67, 89
1, 92990, Control_c, 0, 64, 85
1, 92990, Control_c, 0, 67, 90
1, 92999, Note_off_c, 0, 54, 53
1, 93005, Control_c, 0, 64, 88
1, 93008, Note_off_c, 0, 61, 55
1, 93020, Control_c, 0, 64, 91
1, 93034, Control_c, 0, 64, 94
1, 93034, Control_c, 0, 67, 90
1, 93042, Note_off_c, 0, 44, 42
1, 93049, Control_c, 0, 64, 98
1, 93049, Control_c, 0, 67, 91
1, 93053, Note_off_c, 0, 51, 48
1, 93064, Control_c, 0, 64, 102
1, 93064, Control_c, 0, 67, 92
1, 93079, Control_c, 0, 64, 109
1, 93079, Control_c, 0, 67, 94
1, 93094, Control_c, 0, 64, 117
1, 93094, Control_c, 0, 67, 97
1, 93108, Control_c, 0, 64, 127
1, 93108, Control_c, 0, 67, 99
1, 93138, Control_c, 0, 67, 101
1, 93182, Control_c, 0, 67, 103
1, 93227, Control_c, 0, 67, 107
1, 93242, Control_c, 0, 67, 109
1, 93256, Control_c, 0, 67, 112
1, 93271, Control_c, 0, 67, 116
1, 93276, Note_on_c, 0, 53, 45
1, 93280, Note_on_c, 0, 56, 45
1, 93286, Control_c, 0, 67, 118
1, 93315, Control_c, 0, 64, 91
1, 93315, Control_c, 0, 67, 121
1, 93319, Note_on_c, 0, 71, 66
1, 93324, Note_off_c, 0, 63, 9
1, 93330, Control_c, 0, 64, 71
1, 93331, Note_on_c, 0, 62, 56
1, 93345, Control_c, 0, 64, 56
1, 93345, Control_c, 0, 67, 123
1, 93360, Control_c, 0, 64, 0
1, 93375, Control_c, 0, 67, 127
1, 93388, Note_off_c, 0, 56, 60
1, 93389, Control_c, 0, 64, 37
1, 93404, Control_c, 0, 64, 59
1, 93419, Control_c, 0, 64, 70
1, 93434, Control_c, 0, 64, 79
1, 93449, Control_c, 0, 64, 83
1, 93497, Note_off_c, 0, 62, 31
1, 93499, Note_off_c, 0, 53, 36
1, 93528, Note_off_c, 0, 71, 62
1, 93538, Control_c, 0, 64, 82
1, 93553, Control_c, 0, 64, 77
1, 93556, Note_on_c, 0, 44, 44
1, 93561, Note_on_c, 0, 51, 36
1, 93561, Note_on_c, 0, 54, 39
1, 93568, Note_on_c, 0, 63, 43
1, 93568, Control_c, 0, 64, 69
1, 93569, Note_on_c, 0, 61, 38
1, 93582, Control_c, 0, 64, 58
1, 93597, Control_c, 0, 64, 0
1, 93693, Control_c, 0, 64, 54
1, 93708, Control_c, 0, 64, 68
1, 93723, Control_c, 0, 64, 76
1, 93738, Control_c, 0, 64, 82
1, 93753, Control_c, 0, 64, 84
1, 93768, Control_c, 0, 64, 85
1, 93771, Note_off_c, 0, 61, 53
1, 93783, Control_c, 0, 64, 87
1, 93791, Note_off_c, 0, 54, 39
1, 93795, Note_off_c, 0, 63, 53
1, 93798, Control_c, 0, 64, 89
1, 93812, Control_c, 0, 64, 91
1, 93827, Control_c, 0, 64, 94
1, 93842, Control_c, 0, 64, 97
1, 93857, Control_c, 0, 64, 100
1, 93858, Note_off_c, 0, 51, 33
1, 93865, Note_off_c, 0, 44, 41
1, 93872, Control_c, 0, 64, 103
1, 93902, Control_c, 0, 64, 106
1, 94094, Control_c, 0, 64, 91
1, 94108, Note_on_c, 0, 55, 48
1, 94109, Control_c, 0, 64, 78
1, 94119, Note_on_c, 0, 52, 42
1, 94124, Control_c, 0, 64, 66
1, 94137, Note_on_c, 0, 70, 57
1, 94138, Control_c, 0, 64, 55
1, 94153, Control_c, 0, 64, 42
1, 94160, Note_on_c, 0, 60, 48
1, 94168, Control_c, 0, 64, 45
1, 94183, Control_c, 0, 64, 57
1, 94198, Control_c, 0, 64, 67
1, 94212, Control_c, 0, 64, 74
1, 94224, Note_off_c, 0, 55, 59
1, 94227, Control_c, 0, 64, 80
1, 94242, Control_c, 0, 64, 81
1, 94257, Control_c, 0, 64, 82
1, 94272, Control_c, 0, 64, 82
1, 94286, Control_c, 0, 64, 83
1, 94289, Note_off_c, 0, 52, 57
1, 94293, Note_off_c, 0, 60, 37
1, 94301, Control_c, 0, 64, 83
1, 94331, Control_c, 0, 64, 84
1, 94427, Control_c, 0, 64, 83
1, 94442, Control_c, 0, 64, 82
1, 94456, Control_c, 0, 64, 78
1, 94471, Control_c, 0, 64, 73
1, 94478, Note_on_c, 0, 54, 35
1, 94480, Note_on_c, 0, 44, 35
1, 94486, Control_c, 0, 64, 67
1, 94492, Note_on_c, 0, 63, 52
1, 94496, Note_on_c, 0, 61, 41
1, 94497, Note_on_c, 0, 51, 33
1, 94501, Control_c, 0, 64, 60
1, 94502, Note_off_c, 0, 70, 56
1, 94516, Control_c, 0, 64, 48
1, 94532, Control_c, 0, 64, 0
1, 94725, Control_c, 0, 64, 45
1, 94740, Control_c, 0, 64, 57
1, 94754, Control_c, 0, 64, 63
1, 94769, Control_c, 0, 64, 65
1, 94784, Control_c, 0, 64, 66
1, 94799, Control_c, 0, 64, 66
1, 94814, Control_c, 0, 64, 67
1, 94828, Control_c, 0, 64, 68
1, 94843, Control_c, 0, 64, 70
1, 94858, Control_c, 0, 64, 73
1, 94873, Control_c, 0, 64, 76
1, 94887, Control_c, 0, 64, 79
1, 94902, Control_c, 0, 64, 82
1, 94916, Control_c, 0, 64, 84
1, 94931, Control_c, 0, 64, 86
1, 94946, Control_c, 0, 64, 90
1, 94960, Control_c, 0, 64, 94
1, 94975, Control_c, 0, 64, 101
1, 94990, Control_c, 0, 64, 112
1, 95005, Control_c, 0, 64, 127
1, 95601, Note_on_c, 0, 58, 44
1, 95758, Note_off_c, 0, 58, 59
1, 95772, Note_on_c, 0, 60, 49
1, 95819, Note_off_c, 0, 61, 39
1, 95890, Note_off_c, 0, 63, 38
1, 95892, Note_off_c, 0, 60, 58
1, 95900, Note_on_c, 0, 61, 65
1, 96019, Note_on_c, 0, 62, 65
1, 96020, Note_off_c, 0, 61, 60
1, 96144, Note_on_c, 0, 65, 70
1, 96148, Note_off_c, 0, 62, 56
1, 96340, Control_c, 0, 64, 109
1, 96355, Control_c, 0, 64, 97
1, 96370, Control_c, 0, 64, 82
1, 96373, Note_on_c, 0, 66, 53
1, 96385, Control_c, 0, 64, 64
1, 96391, Note_off_c, 0, 65, 42
1, 96399, Control_c, 0, 64, 0
1, 96488, Control_c, 0, 64, 45
1, 96503, Control_c, 0, 64, 61
1, 96512, Note_off_c, 0, 44, 45
1, 96518, Control_c, 0, 64, 69
1, 96532, Control_c, 0, 64, 73
1, 96547, Control_c, 0, 64, 75
1, 96562, Control_c, 0, 64, 76
1, 96574, Note_on_c, 0, 63, 51
1, 96577, Control_c, 0, 64, 78
1, 96587, Note_off_c, 0, 54, 35
1, 96592, Control_c, 0, 64, 79
1, 96594, Note_off_c, 0, 66, 53
1, 96614, Control_c, 0, 64, 80
1, 96629, Control_c, 0, 64, 83
1, 96641, Note_off_c, 0, 63, 60
1, 96644, Control_c, 0, 64, 86
1, 96658, Control_c, 0, 64, 90
1, 96663, Note_off_c, 0, 51, 40
1, 96671, Note_on_c, 0, 65, 60
1, 96673, Control_c, 0, 64, 94
1, 96688, Control_c, 0, 64, 99
1, 96703, Control_c, 0, 64, 102
1, 96732, Control_c, 0, 64, 106
1, 96733, Note_off_c, 0, 65, 57
1, 96747, Note_on_c, 0, 66, 52
1, 96747, Control_c, 0, 64, 109
1, 96762, Control_c, 0, 64, 114
1, 96776, Control_c, 0, 64, 127
1, 96829, Note_on_c, 0, 68, 56
1, 96835, Note_off_c, 0, 66, 61
1, 96878, Note_off_c, 0, 68, 62
1, 96885, Note_on_c, 0, 70, 66
1, 96910, Note_off_c, 0, 70, 70
1, 96963, Note_on_c, 0, 72, 65
1, 97012, Note_off_c, 0, 72, 53
1, 97034, Note_on_c, 0, 73, 65
1, 97074, Control_c, 0, 64, 124
1, 97088, Control_c, 0, 64, 114
1, 97103, Control_c, 0, 64, 109
1, 97118, Control_c, 0, 64, 107
1, 97121, Note_on_c, 0, 75, 65
1, 97125, Note_off_c, 0, 73, 60
1, 97148, Control_c, 0, 64, 104
1, 97163, Control_c, 0, 64, 100
1, 97178, Control_c, 0, 64, 97
1, 97192, Control_c, 0, 64, 94
1, 97207, Control_c, 0, 64, 92
1, 97222, Control_c, 0, 64, 89
1, 97237, Control_c, 0, 64, 84
1, 97252, Control_c, 0, 64, 73
1, 97267, Control_c, 0, 64, 61
1, 97273, Note_off_c, 0, 75, 61
1, 97277, Note_on_c, 0, 77, 63
1, 97281, Control_c, 0, 64, 0
1, 97285, Note_on_c, 0, 68, 44
1, 97285, Note_on_c, 0, 61, 47
1, 97287, Note_on_c, 0, 73, 54
1, 97306, Note_on_c, 0, 65, 37
1, 97422, Control_c, 0, 64, 57
1, 97437, Control_c, 0, 64, 69
1, 97452, Control_c, 0, 64, 77
1, 97467, Control_c, 0, 64, 84
1, 97474, Note_off_c, 0, 65, 51
1, 97479, Note_off_c, 0, 61, 36
1, 97481, Note_off_c, 0, 77, 54
1, 97481, Control_c, 0, 64, 88
1, 97496, Control_c, 0, 64, 91
1, 97511, Control_c, 0, 64, 93
1, 97526, Control_c, 0, 64, 96
1, 97541, Control_c, 0, 64, 99
1, 97555, Control_c, 0, 64, 103
1, 97570, Control_c, 0, 64, 108
1, 97585, Control_c, 0, 64, 113
1, 97599, Control_c, 0, 64, 117
1, 97601, Note_off_c, 0, 68, 42
1, 97614, Control_c, 0, 64, 122
1, 97616, Note_off_c, 0, 73, 33
1, 97629, Control_c, 0, 64, 127
1, 97786, Note_on_c, 0, 76, 66
1, 97789, Note_on_c, 0, 64, 47
1, 97799, Note_on_c, 0, 72, 52
1, 97804, Note_on_c, 0, 60, 48
1, 97804, Note_on_c, 0, 67, 41
1, 97852, Control_c, 0, 64, 114
1, 97867, Control_c, 0, 64, 90
1, 97882, Control_c, 0, 64, 71
1, 97889, Note_on_c, 0, 66, 60
1, 97892, Note_off_c, 0, 76, 63
1, 97894, Note_off_c, 0, 72, 60
1, 97894, Note_on_c, 0, 75, 71
1, 97895, Note_on_c, 0, 58, 51
1, 97896, Control_c, 0, 64, 61
1, 97901, Note_on_c, 0, 70, 66
1, 97906, Note_off_c, 0, 60, 57
1, 97911, Control_c, 0, 64, 54
1, 97926, Control_c, 0, 64, 58
1, 97927, Note_on_c, 0, 63, 48
1, 97934, Note_off_c, 0, 64, 60
1, 97941, Control_c, 0, 64, 64
1, 97956, Control_c, 0, 64, 70
1, 97962, Note_off_c, 0, 67, 30
1, 97971, Control_c, 0, 64, 77
1, 97986, Control_c, 0, 64, 82
1, 98001, Control_c, 0, 64, 85
1, 98016, Control_c, 0, 64, 87
1, 98027, Note_off_c, 0, 63, 57
1, 98030, Control_c, 0, 64, 88
1, 98034, Note_off_c, 0, 58, 33
1, 98045, Control_c, 0, 64, 89
1, 98060, Control_c, 0, 64, 90
1, 98075, Control_c, 0, 64, 90
1, 98090, Control_c, 0, 64, 91
1, 98136, Note_off_c, 0, 66, 24
1, 98185, Control_c, 0, 64, 90
1, 98200, Control_c, 0, 64, 88
1, 98212, Note_off_c, 0, 70, 35
1, 98215, Control_c, 0, 64, 83
1, 98221, Note_on_c, 0, 65, 50
1, 98230, Control_c, 0, 64, 75
1, 98230, Note_off_c, 0, 75, 62
1, 98238, Note_on_c, 0, 73, 57
1, 98239, Note_on_c, 0, 68, 45
1, 98245, Note_on_c, 0, 77, 61
1, 98245, Control_c, 0, 64, 66
1, 98248, Note_on_c, 0, 61, 43
1, 98260, Control_c, 0, 64, 54
1, 98275, Control_c, 0, 64, 0
1, 98437, Control_c, 0, 64, 43
1, 98452, Control_c, 0, 64, 59
1, 98467, Control_c, 0, 64, 66
1, 98482, Control_c, 0, 64, 67
1, 98496, Control_c, 0, 64, 68
1, 98511, Control_c, 0, 64, 68
1, 98527, Control_c, 0, 64, 69
1, 98542, Control_c, 0, 64, 72
1, 98557, Control_c, 0, 64, 75
1, 98572, Control_c, 0, 64, 79
1, 98587, Control_c, 0, 64, 83
1, 98601, Control_c, 0, 64, 88
1, 98616, Control_c, 0, 64, 92
1, 98631, Control_c, 0, 64, 96
1, 98645, Control_c, 0, 64, 100
1, 98660, Control_c, 0, 64, 105
1, 98675, Control_c, 0, 64, 116
1, 98690, Control_c, 0, 64, 127
1, 98898, Note_off_c, 0, 65, 29
1, 98978, Note_off_c, 0, 73, 40
1, 98981, Note_off_c, 0, 61, 35
1, 99039, Note_off_c, 0, 68, 42
1, 99339, Note_off_c, 0, 77, 37
1, 99362, Note_on_c, 0, 75, 54
1, 99402, Poly_aftertouch_c, 0, 60, 127
1, 99405, Note_on_c, 0, 60, 3
1, 99497, Note_on_c, 0, 73, 63
1, 99498, Control_c, 0, 64, 88
1, 99502, Note_on_c, 0, 65, 54
1, 99503, Note_on_c, 0, 70, 52
1, 99509, Note_on_c, 0, 61, 40
1, 99512, Note_on_c, 0, 58, 45
1, 99512, Note_off_c, 0, 60, 45
1, 99513, Control_c, 0, 64, 68
1, 99521, Note_off_c, 0, 75, 53
1, 99528, Control_c, 0, 64, 55
1, 99542, Control_c, 0, 64, 45
1, 99557, Control_c, 0, 64, 51
1, 99572, Control_c, 0, 64, 63
1, 99587, Control_c, 0, 64, 73
1, 99609, Control_c, 0, 64, 83
1, 99624, Control_c, 0, 64, 94
1, 99633, Note_off_c, 0, 58, 61
1, 99639, Control_c, 0, 64, 99
1, 99642, Note_off_c, 0, 65, 36
1, 99645, Note_off_c, 0, 61, 61
1, 99654, Control_c, 0, 64, 104
1, 99669, Control_c, 0, 64, 113
1, 99683, Control_c, 0, 64, 127
1, 99697, Note_off_c, 0, 73, 55
1, 99724, Note_off_c, 0, 70, 36
1, 99796, Note_on_c, 0, 65, 36
1, 99814, Note_on_c, 0, 68, 60
1, 99817, Note_on_c, 0, 61, 51
1, 99831, Control_c, 0, 64, 84
1, 99846, Note_on_c, 0, 77, 68
1, 99846, Control_c, 0, 64, 66
1, 99849, Note_on_c, 0, 73, 62
1, 99861, Control_c, 0, 64, 49
1, 99876, Control_c, 0, 64, 0
1, 99882, Note_off_c, 0, 65, 55
1, 99891, Control_c, 0, 64, 40
1, 99905, Control_c, 0, 64, 59
1, 99920, Note_off_c, 0, 61, 59
1, 99920, Control_c, 0, 64, 71
1, 99922, Note_off_c, 0, 68, 61
1, 99935, Control_c, 0, 64, 83
1, 99950, Control_c, 0, 64, 94
1, 99965, Control_c, 0, 64, 96
1, 100024, Control_c, 0, 64, 98
1, 100068, Control_c, 0, 64, 101
1, 100069, Note_off_c, 0, 73, 34
1, 100081, Note_off_c, 0, 77, 56
1, 100135, Note_on_c, 0, 60, 52
1, 100135, Note_on_c, 0, 75, 63
1, 100221, Note_on_c, 0, 73, 72
1, 100227, Note_off_c, 0, 60, 61
1, 100231, Note_on_c, 0, 58, 63
1, 100245, Note_off_c, 0, 75, 59
1, 100263, Control_c, 0, 64, 94
1, 100278, Control_c, 0, 64, 75
1, 100292, Control_c, 0, 64, 62
1, 100307, Control_c, 0, 64, 48
1, 100322, Control_c, 0, 64, 47
1, 100337, Control_c, 0, 64, 58
1, 100339, Note_on_c, 0, 72, 75
1, 100350, Note_off_c, 0, 58, 50
1, 100353, Note_off_c, 0, 73, 64
1, 100355, Note_on_c, 0, 56, 50
1, 100356, Note_on_c, 0, 68, 74
1, 100359, Control_c, 0, 64, 70
1, 100361, Note_on_c, 0, 60, 62
1, 100364, Note_on_c, 0, 65, 63
1, 100373, Control_c, 0, 64, 88
1, 100388, Control_c, 0, 64, 107
1, 100399, Note_off_c, 0, 56, 59
1, 100400, Note_off_c, 0, 60, 63
1, 100403, Control_c, 0, 64, 127
1, 100415, Note_off_c, 0, 72, 59
1, 100418, Note_off_c, 0, 65, 60
1, 100546, Note_off_c, 0, 68, 59
1, 100655, Control_c, 0, 64, 83
1, 100660, Note_on_c, 0, 77, 65
1, 100663, Note_on_c, 0, 73, 57
1, 100667, Note_on_c, 0, 68, 58
1, 100669, Note_on_c, 0, 65, 51
1, 100670, Control_c, 0, 64, 59
1, 100682, Note_on_c, 0, 61, 40
1, 100685, Control_c, 0, 64, 0
1, 100758, Control_c, 0, 64, 51
1, 100769, Note_off_c, 0, 65, 63
1, 100773, Control_c, 0, 64, 66
1, 100788, Control_c, 0, 64, 73
1, 100803, Note_off_c, 0, 68, 56
1, 100803, Control_c, 0, 64, 77
1, 100815, Note_off_c, 0, 61, 57
1, 100815, Note_off_c, 0, 77, 63
1, 100818, Control_c, 0, 64, 79
1, 100818, Note_off_c, 0, 73, 61
1, 100832, Control_c, 0, 64, 82
1, 100847, Control_c, 0, 64, 86
1, 100862, Control_c, 0, 64, 89
1, 100877, Control_c, 0, 64, 91
1, 100892, Control_c, 0, 64, 92
1, 100906, Control_c, 0, 64, 94
1, 100922, Control_c, 0, 64, 95
1, 100937, Control_c, 0, 64, 95
1, 101070, Control_c, 0, 64, 95
1, 101166, Control_c, 0, 64, 92
1, 101179, Note_on_c, 0, 80, 74
1, 101181, Control_c, 0, 64, 78
1, 101193, Note_on_c, 0, 70, 47
1, 101193, Note_on_c, 0, 75, 57
1, 101196, Note_on_c, 0, 66, 49
1, 101196, Control_c, 0, 64, 63
1, 101211, Control_c, 0, 64, 0
1, 101211, Note_on_c, 0, 60, 41
1, 101256, Note_off_c, 0, 70, 59
1, 101270, Control_c, 0, 64, 43
1, 101285, Control_c, 0, 64, 57
1, 101300, Control_c, 0, 64, 65
1, 101315, Control_c, 0, 64, 70
1, 101323, Note_off_c, 0, 60, 53
1, 101324, Note_off_c, 0, 75, 54
1, 101329, Control_c, 0, 64, 71
1, 101337, Note_on_c, 0, 61, 40
1, 101344, Control_c, 0, 64, 67
1, 101347, Note_on_c, 0, 73, 56
1, 101348, Note_on_c, 0, 77, 64
1, 101359, Control_c, 0, 64, 56
1, 101364, Note_on_c, 0, 68, 52
1, 101364, Note_off_c, 0, 80, 55
1, 101371, Note_on_c, 0, 65, 46
1, 101373, Control_c, 0, 64, 0
1, 101432, Note_off_c, 0, 66, 34
1, 101444, Note_off_c, 0, 73, 50
1, 101477, Control_c, 0, 64, 51
1, 101492, Control_c, 0, 64, 66
1, 101497, Note_off_c, 0, 77, 57
1, 101507, Control_c, 0, 64, 75
1, 101512, Note_off_c, 0, 65, 58
1, 101521, Note_off_c, 0, 68, 35
1, 101521, Control_c, 0, 64, 78
1, 101529, Note_off_c, 0, 61, 36
1, 101551, Control_c, 0, 64, 78
1, 101566, Control_c, 0, 64, 81
1, 101581, Control_c, 0, 64, 83
1, 101596, Control_c, 0, 64, 86
1, 101610, Control_c, 0, 64, 87
1, 101640, Control_c, 0, 64, 88
1, 101655, Control_c, 0, 64, 88
1, 101670, Control_c, 0, 64, 89
1, 101819, Control_c, 0, 64, 88
1, 101834, Control_c, 0, 64, 85
1, 101849, Note_on_c, 0, 77, 51
1, 101853, Note_on_c, 0, 68, 41
1, 101856, Note_on_c, 0, 73, 52
1, 101856, Control_c, 0, 64, 80
1, 101866, Note_on_c, 0, 65, 38
1, 101870, Control_c, 0, 64, 71
1, 101876, Note_on_c, 0, 61, 24
1, 101885, Control_c, 0, 64, 64
1, 101900, Control_c, 0, 64, 54
1, 101915, Control_c, 0, 64, 36
1, 101930, Control_c, 0, 64, 0
1, 102138, Control_c, 0, 64, 45
1, 102152, Control_c, 0, 64, 57
1, 102167, Control_c, 0, 64, 64
1, 102182, Control_c, 0, 64, 67
1, 102196, Control_c, 0, 64, 68
1, 102211, Control_c, 0, 64, 69
1, 102226, Control_c, 0, 64, 70
1, 102241, Control_c, 0, 64, 72
1, 102256, Control_c, 0, 64, 76
1, 102270, Control_c, 0, 64, 82
1, 102285, Control_c, 0, 64, 88
1, 102300, Control_c, 0, 64, 93
1, 102314, Control_c, 0, 64, 99
1, 102329, Control_c, 0, 64, 105
1, 102344, Control_c, 0, 64, 114
1, 102359, Control_c, 0, 64, 127
1, 102427, Note_off_c, 0, 73, 38
1, 102534, Note_off_c, 0, 77, 33
1, 102921, Note_off_c, 0, 68, 41
1, 103046, Note_off_c, 0, 65, 38
1, 103283, Note_off_c, 0, 61, 38
1, 103458, Control_c, 0, 64, 110
1, 103473, Control_c, 0, 64, 100
1, 103488, Control_c, 0, 64, 94
1, 103503, Control_c, 0, 64, 89
1, 103504, Note_on_c, 0, 75, 63
1, 103517, Control_c, 0, 64, 84
1, 103532, Control_c, 0, 64, 79
1, 103547, Control_c, 0, 64, 73
1, 103562, Control_c, 0, 64, 67
1, 103576, Control_c, 0, 64, 63
1, 103591, Control_c, 0, 64, 59
1, 103606, Control_c, 0, 64, 57
1, 103621, Control_c, 0, 64, 56
1, 103665, Control_c, 0, 64, 55
1, 103724, Control_c, 0, 64, 55
1, 103828, Control_c, 0, 64, 54
1, 103877, Note_on_c, 0, 77, 69
1, 103895, Note_off_c, 0, 75, 56
1, 103917, Control_c, 0, 64, 54
1, 103947, Control_c, 0, 64, 53
1, 103991, Control_c, 0, 67, 124
1, 104006, Control_c, 0, 67, 119
1, 104050, Control_c, 0, 67, 117
1, 104075, Note_on_c, 0, 80, 68
1, 104080, Control_c, 0, 67, 111
1, 104102, Note_off_c, 0, 77, 62
1, 104102, Control_c, 0, 67, 107
1, 104118, Note_on_c, 0, 78, 80
1, 104133, Control_c, 0, 67, 105
1, 104141, Note_off_c, 0, 80, 58
1, 104147, Control_c, 0, 67, 103
1, 104162, Control_c, 0, 67, 98
1, 104177, Control_c, 0, 67, 90
1, 104192, Control_c, 0, 67, 86
1, 104207, Control_c, 0, 67, 86
1, 104222, Control_c, 0, 67, 85
1, 104237, Control_c, 0, 67, 81
1, 104252, Control_c, 0, 67, 75
1, 104266, Control_c, 0, 67, 67
1, 104281, Control_c, 0, 67, 66
1, 104326, Control_c, 0, 64, 53
1, 104326, Control_c, 0, 67, 65
1, 104340, Control_c, 0, 67, 64
1, 104370, Control_c, 0, 64, 52
1, 104383, Note_off_c, 0, 78, 62
1, 104385, Control_c, 0, 64, 51
1, 104386, Note_on_c, 0, 77, 77
1, 104399, Control_c, 0, 64, 51
1, 104399, Control_c, 0, 67, 63
1, 104414, Control_c, 0, 64, 50
1, 104414, Control_c, 0, 67, 62
1, 104429, Control_c, 0, 64, 49
1, 104444, Control_c, 0, 64, 48
1, 104444, Control_c, 0, 67, 63
1, 104459, Control_c, 0, 64, 47
1, 104459, Control_c, 0, 67, 64
1, 104473, Control_c, 0, 64, 45
1, 104488, Control_c, 0, 64, 43
1, 104503, Control_c, 0, 64, 40
1, 104503, Control_c, 0, 67, 64
1, 104517, Control_c, 0, 64, 34
1, 104517, Control_c, 0, 67, 68
1, 104532, Control_c, 0, 64, 0
1, 104532, Control_c, 0, 67, 70
1, 104591, Control_c, 0, 67, 71
1, 104606, Control_c, 0, 67, 75
1, 104621, Control_c, 0, 67, 80
1, 104636, Control_c, 0, 67, 83
1, 104651, Control_c, 0, 67, 84
1, 104666, Control_c, 0, 67, 84
1, 104681, Control_c, 0, 67, 89
1, 104696, Control_c, 0, 67, 104
1, 104708, Note_on_c, 0, 80, 79
1, 104710, Control_c, 0, 67, 121
1, 104711, Note_off_c, 0, 77, 64
1, 104725, Control_c, 0, 67, 127
1, 104755, Control_c, 0, 64, 45
1, 104770, Control_c, 0, 64, 54
1, 104784, Control_c, 0, 64, 59
1, 104799, Control_c, 0, 64, 62
1, 104814, Control_c, 0, 64, 63
1, 104829, Control_c, 0, 64, 64
1, 104851, Control_c, 0, 64, 64
1, 104866, Control_c, 0, 64, 65
1, 104881, Note_on_c, 0, 37, 35
1, 104881, Control_c, 0, 64, 67
1, 104881, Note_on_c, 0, 44, 45
1, 104895, Control_c, 0, 64, 69
1, 104910, Control_c, 0, 64, 72
1, 104926, Control_c, 0, 64, 74
1, 104940, Control_c, 0, 64, 76
1, 104955, Control_c, 0, 64, 78
1, 104970, Control_c, 0, 64, 81
1, 104984, Note_on_c, 0, 85, 73
1, 104985, Control_c, 0, 64, 85
1, 104993, Note_off_c, 0, 37, 55
1, 104998, Note_off_c, 0, 44, 63
1, 105000, Control_c, 0, 64, 92
1, 105003, Note_on_c, 0, 75, 48
1, 105015, Control_c, 0, 64, 106
1, 105030, Control_c, 0, 64, 127
1, 105032, Note_off_c, 0, 75, 57
1, 105059, Poly_aftertouch_c, 0, 73, 127
1, 105062, Note_off_c, 0, 80, 52
1, 105096, Poly_aftertouch_c, 0, 73, 0
1, 105199, Note_on_c, 0, 56, 39
1, 105200, Note_on_c, 0, 77, 49
1, 105210, Note_on_c, 0, 73, 37
1, 105232, Note_off_c, 0, 56, 52
1, 105235, Note_off_c, 0, 77, 52
1, 105243, Note_off_c, 0, 73, 54
1, 105289, Note_on_c, 0, 63, 20
1, 105334, Note_off_c, 0, 63, 53
1, 105349, Note_on_c, 0, 64, 52
1, 105414, Control_c, 0, 64, 108
1, 105429, Control_c, 0, 64, 94
1, 105438, Note_on_c, 0, 65, 58
1, 105439, Note_on_c, 0, 77, 55
1, 105441, Note_on_c, 0, 61, 55
1, 105443, Note_off_c, 0, 64, 51
1, 105444, Control_c, 0, 64, 92
1, 105445, Note_on_c, 0, 73, 53
1, 105447, Note_off_c, 0, 85, 60
1, 105459, Control_c, 0, 64, 93
1, 105467, Note_off_c, 0, 65, 64
1, 105474, Control_c, 0, 64, 96
1, 105477, Note_off_c, 0, 61, 63
1, 105483, Note_off_c, 0, 73, 63
1, 105489, Note_off_c, 0, 77, 56
1, 105489, Control_c, 0, 64, 100
1, 105504, Control_c, 0, 64, 103
1, 105518, Control_c, 0, 64, 107
1, 105533, Control_c, 0, 64, 122
1, 105548, Control_c, 0, 64, 127
1, 105629, Control_c, 0, 64, 94
1, 105635, Note_on_c, 0, 37, 65
1, 105637, Note_on_c, 0, 44, 65
1, 105644, Control_c, 0, 64, 74
1, 105659, Control_c, 0, 64, 60
1, 105673, Control_c, 0, 64, 46
1, 105688, Control_c, 0, 64, 44
1, 105699, Note_on_c, 0, 84, 81
1, 105700, Note_off_c, 0, 37, 60
1, 105703, Control_c, 0, 64, 53
1, 105706, Note_on_c, 0, 72, 63
1, 105709, Note_on_c, 0, 75, 71
1, 105709, Note_off_c, 0, 44, 64
1, 105719, Control_c, 0, 64, 64
1, 105734, Control_c, 0, 64, 74
1, 105735, Note_off_c, 0, 75, 67
1, 105749, Control_c, 0, 64, 84
1, 105752, Note_off_c, 0, 72, 50
1, 105763, Control_c, 0, 64, 89
1, 105808, Control_c, 0, 64, 90
1, 105859, Note_on_c, 0, 77, 52
1, 105867, Note_on_c, 0, 73, 53
1, 105873, Note_on_c, 0, 55, 45
1, 105875, Note_on_c, 0, 53, 34
1, 105901, Note_off_c, 0, 73, 50
1, 105902, Note_off_c, 0, 55, 56
1, 105909, Note_off_c, 0, 53, 50
1, 105912, Control_c, 0, 64, 91
1, 105912, Note_on_c, 0, 61, 59
1, 105926, Note_off_c, 0, 77, 46
1, 105942, Control_c, 0, 64, 91
1, 105971, Control_c, 0, 64, 92
1, 105986, Control_c, 0, 64, 92
1, 105989, Note_off_c, 0, 61, 50
1, 106001, Control_c, 0, 64, 93
1, 106016, Control_c, 0, 64, 94
1, 106025, Note_on_c, 0, 63, 13
1, 106048, Note_off_c, 0, 84, 57
1, 106060, Control_c, 0, 64, 93
1, 106067, Note_on_c, 0, 65, 62
1, 106068, Note_on_c, 0, 77, 54
1, 106072, Note_on_c, 0, 73, 70
1, 106075, Note_off_c, 0, 63, 52
1, 106075, Control_c, 0, 64, 92
1, 106091, Note_on_c, 0, 60, 51
1, 106098, Note_off_c, 0, 65, 66
1, 106115, Note_off_c, 0, 60, 59
1, 106115, Note_off_c, 0, 73, 62
1, 106119, Control_c, 0, 64, 93
1, 106149, Control_c, 0, 64, 93
1, 106156, Note_off_c, 0, 77, 36
1, 106163, Control_c, 0, 64, 94
1, 106178, Control_c, 0, 64, 98
1, 106193, Control_c, 0, 64, 103
1, 106208, Control_c, 0, 64, 107
1, 106250, Note_on_c, 0, 37, 75
1, 106252, Control_c, 0, 64, 84
1, 106259, Note_on_c, 0, 44, 66
1, 106267, Control_c, 0, 64, 67
1, 106282, Control_c, 0, 64, 47
1, 106296, Control_c, 0, 64, 0
1, 106302, Note_on_c, 0, 75, 67
1, 106303, Note_on_c, 0, 82, 77
1, 106316, Note_off_c, 0, 37, 62
1, 106319, Note_on_c, 0, 70, 63
1, 106326, Control_c, 0, 64, 48
1, 106328, Note_on_c, 0, 72, 26
1, 106340, Note_off_c, 0, 44, 65
1, 106349, Control_c, 0, 64, 63
1, 106357, Note_off_c, 0, 72, 50
1, 106363, Control_c, 0, 64, 74
1, 106378, Control_c, 0, 64, 82
1, 106380, Note_off_c, 0, 75, 63
1, 106393, Control_c, 0, 64, 87
1, 106408, Control_c, 0, 64, 87
1, 106473, Note_on_c, 0, 54, 64
1, 106481, Note_on_c, 0, 77, 57
1, 106481, Note_on_c, 0, 73, 63
1, 106507, Note_off_c, 0, 73, 68
1, 106508, Note_on_c, 0, 78, 15
1, 106547, Note_off_c, 0, 54, 62
1, 106551, Note_off_c, 0, 78, 28
1, 106558, Note_on_c, 0, 60, 57
1, 106560, Note_off_c, 0, 77, 59
1, 106631, Note_off_c, 0, 60, 59
1, 106631, Control_c, 0, 64, 88
1, 106642, Note_on_c, 0, 63, 55
1, 106646, Control_c, 0, 64, 89
1, 106660, Control_c, 0, 64, 90
1, 106690, Control_c, 0, 64, 88
1, 106705, Control_c, 0, 64, 79
1, 106717, Note_on_c, 0, 58, 43
1, 106720, Control_c, 0, 64, 69
1, 106730, Note_on_c, 0, 73, 58
1, 106731, Note_off_c, 0, 82, 62
1, 106735, Control_c, 0, 64, 62
1, 106738, Note_on_c, 0, 65, 60
1, 106738, Note_on_c, 0, 77, 57
1, 106750, Control_c, 0, 64, 61
1, 106752, Note_off_c, 0, 63, 57
1, 106755, Note_on_c, 0, 61, 52
1, 106764, Control_c, 0, 64, 66
1, 106773, Note_off_c, 0, 65, 66
1, 106779, Control_c, 0, 64, 74
1, 106781, Note_off_c, 0, 58, 63
1, 106786, Note_off_c, 0, 61, 62
1, 106791, Note_off_c, 0, 73, 62
1, 106794, Control_c, 0, 64, 85
1, 106809, Control_c, 0, 64, 94
1, 106824, Control_c, 0, 64, 97
1, 106839, Control_c, 0, 64, 101
1, 106839, Note_off_c, 0, 70, 54
1, 106854, Control_c, 0, 64, 108
1, 106868, Control_c, 0, 64, 112
1, 106912, Control_c, 0, 64, 104
1, 106927, Control_c, 0, 64, 85
1, 106942, Control_c, 0, 64, 66
1, 106949, Note_on_c, 0, 37, 58
1, 106957, Control_c, 0, 64, 49
1, 106964, Note_on_c, 0, 44, 50
1, 106972, Control_c, 0, 64, 0
1, 107001, Control_c, 0, 64, 45
1, 107002, Note_on_c, 0, 80, 76
1, 107012, Note_off_c, 0, 77, 60
1, 107015, Note_off_c, 0, 37, 61
1, 107016, Control_c, 0, 64, 62
1, 107029, Note_on_c, 0, 68, 49
1, 107031, Control_c, 0, 64, 73
1, 107033, Note_on_c, 0, 75, 52
1, 107039, Note_off_c, 0, 44, 62
1, 107046, Control_c, 0, 64, 87
1, 107060, Control_c, 0, 64, 92
1, 107107, Note_off_c, 0, 75, 49
1, 107195, Note_on_c, 0, 53, 54
1, 107197, Note_on_c, 0, 77, 55
1, 107205, Note_on_c, 0, 73, 52
1, 107244, Note_off_c, 0, 73, 62
1, 107253, Note_off_c, 0, 53, 58
1, 107271, Note_on_c, 0, 58, 49
1, 107304, Note_off_c, 0, 77, 53
1, 107305, Control_c, 0, 64, 92
1, 107350, Control_c, 0, 64, 91
1, 107358, Note_off_c, 0, 58, 63
1, 107364, Note_on_c, 0, 63, 60
1, 107380, Control_c, 0, 64, 91
1, 107424, Control_c, 0, 64, 90
1, 107439, Control_c, 0, 64, 90
1, 107483, Control_c, 0, 64, 89
1, 107513, Control_c, 0, 64, 88
1, 107528, Control_c, 0, 64, 86
1, 107542, Control_c, 0, 64, 82
1, 107557, Control_c, 0, 64, 75
1, 107562, Note_on_c, 0, 65, 46
1, 107567, Note_on_c, 0, 56, 42
1, 107567, Note_off_c, 0, 63, 38
1, 107572, Control_c, 0, 64, 66
1, 107575, Note_on_c, 0, 77, 51
1, 107577, Note_on_c, 0, 61, 41
1, 107577, Note_on_c, 0, 73, 44
1, 107587, Control_c, 0, 64, 53
1, 107602, Control_c, 0, 64, 0
1, 107721, Control_c, 0, 64, 47
1, 107736, Control_c, 0, 64, 62
1, 107751, Control_c, 0, 64, 69
1, 107766, Control_c, 0, 64, 71
1, 107781, Control_c, 0, 64, 72
1, 107810, Control_c, 0, 64, 73
1, 107825, Control_c, 0, 64, 74
1, 107843, Note_off_c, 0, 68, 56
1, 107847, Control_c, 0, 64, 75
1, 107861, Control_c, 0, 64, 78
1, 107876, Control_c, 0, 64, 81
1, 107891, Control_c, 0, 64, 83
1, 107906, Control_c, 0, 64, 86
1, 107921, Control_c, 0, 64, 89
1, 107936, Control_c, 0, 64, 92
1, 107951, Control_c, 0, 64, 97
1, 107966, Control_c, 0, 64, 102
1, 107981, Control_c, 0, 64, 110
1, 107988, Note_off_c, 0, 73, 36
1, 107996, Control_c, 0, 64, 127
1, 108076, Note_off_c, 0, 77, 54
1, 108099, Control_c, 0, 67, 117
1, 108115, Control_c, 0, 67, 112
1, 108130, Control_c, 0, 67, 110
1, 108145, Control_c, 0, 67, 106
1, 108159, Control_c, 0, 67, 101
1, 108174, Control_c, 0, 67, 92
1, 108189, Control_c, 0, 67, 84
1, 108204, Control_c, 0, 67, 79
1, 108219, Control_c, 0, 67, 78
1, 108233, Control_c, 0, 67, 76
1, 108248, Control_c, 0, 67, 72
1, 108263, Control_c, 0, 67, 65
1, 108278, Control_c, 0, 67, 53
1, 108292, Control_c, 0, 67, 38
1, 108307, Control_c, 0, 67, 23
1, 108322, Control_c, 0, 67, 0
1, 108381, Control_c, 0, 64, 116
1, 108396, Control_c, 0, 64, 106
1, 108431, Note_on_c, 0, 78, 79
1, 108475, Note_off_c, 0, 80, 50
1, 108484, Control_c, 0, 64, 111
1, 108499, Control_c, 0, 64, 115
1, 108509, Note_off_c, 0, 78, 62
1, 108514, Control_c, 0, 64, 120
1, 108529, Control_c, 0, 64, 124
1, 108544, Control_c, 0, 64, 127
1, 108640, Control_c, 0, 64, 119
1, 108644, Note_on_c, 0, 77, 63
1, 108655, Control_c, 0, 64, 91
1, 108663, Note_on_c, 0, 78, 69
1, 108670, Note_off_c, 0, 77, 64
1, 108670, Control_c, 0, 64, 73
1, 108684, Control_c, 0, 64, 62
1, 108699, Control_c, 0, 64, 58
1, 108714, Control_c, 0, 64, 62
1, 108724, Note_on_c, 0, 77, 71
1, 108729, Control_c, 0, 64, 68
1, 108743, Note_off_c, 0, 78, 61
1, 108744, Control_c, 0, 64, 76
1, 108759, Control_c, 0, 64, 81
1, 108774, Control_c, 0, 64, 82
1, 108889, Note_on_c, 0, 75, 74
1, 108905, Note_off_c, 0, 77, 63
1, 108969, Note_off_c, 0, 61, 59
1, 108975, Note_off_c, 0, 65, 41
1, 108982, Control_c, 0, 64, 82
1, 109006, Note_off_c, 0, 56, 61
1, 109012, Control_c, 0, 64, 84
1, 109027, Control_c, 0, 64, 88
1, 109042, Control_c, 0, 64, 98
1, 109045, Note_on_c, 0, 73, 78
1, 109056, Control_c, 0, 64, 114
1, 109071, Control_c, 0, 64, 127
1, 109081, Note_off_c, 0, 75, 62
1, 109109, Note_off_c, 0, 73, 62
1, 109206, Note_on_c, 0, 58, 63
1, 109212, Note_on_c, 0, 54, 55
1, 109248, Control_c, 0, 64, 98
1, 109254, Note_on_c, 0, 70, 73
1, 109262, Control_c, 0, 64, 70
1, 109264, Note_on_c, 0, 65, 63
1, 109277, Control_c, 0, 64, 49
1, 109292, Control_c, 0, 64, 0
1, 109343, Control_c, 0, 64, 50
1, 109358, Control_c, 0, 64, 65
1, 109366, Note_off_c, 0, 65, 53
1, 109373, Control_c, 0, 64, 74
1, 109388, Control_c, 0, 64, 82
1, 109403, Control_c, 0, 64, 86
1, 109417, Control_c, 0, 64, 86
1, 109432, Control_c, 0, 64, 87
1, 109462, Control_c, 0, 64, 88
1, 109477, Control_c, 0, 64, 89
1, 109492, Control_c, 0, 64, 90
1, 109506, Control_c, 0, 64, 91
1, 109521, Control_c, 0, 64, 92
1, 109536, Control_c, 0, 64, 93
1, 109551, Control_c, 0, 64, 93
1, 109566, Control_c, 0, 64, 94
1, 109580, Control_c, 0, 64, 94
1, 109595, Control_c, 0, 64, 96
1, 109615, Note_on_c, 0, 72, 75
1, 109617, Note_off_c, 0, 54, 61
1, 109620, Note_off_c, 0, 58, 59
1, 109625, Control_c, 0, 64, 98
1, 109626, Note_on_c, 0, 57, 55
1, 109628, Note_on_c, 0, 64, 59
1, 109630, Note_off_c, 0, 70, 61
1, 109639, Control_c, 0, 64, 100
1, 109669, Control_c, 0, 64, 103
1, 109684, Control_c, 0, 64, 106
1, 109715, Control_c, 0, 64, 108
1, 109757, Note_off_c, 0, 64, 47
1, 109818, Control_c, 0, 64, 106
1, 109833, Control_c, 0, 64, 89
1, 109838, Note_on_c, 0, 56, 58
1, 109843, Note_on_c, 0, 49, 53
1, 109843, Note_on_c, 0, 68, 69
1, 109844, Note_off_c, 0, 72, 62
1, 109844, Note_on_c, 0, 65, 66
1, 109848, Control_c, 0, 64, 71
1, 109862, Control_c, 0, 64, 52
1, 109864, Note_off_c, 0, 57, 53
1, 109877, Control_c, 0, 64, 0
1, 109966, Control_c, 0, 64, 38
1, 109981, Control_c, 0, 64, 58
1, 109996, Control_c, 0, 64, 67
1, 110011, Control_c, 0, 64, 74
1, 110022, Note_off_c, 0, 68, 65
1, 110026, Control_c, 0, 64, 78
1, 110040, Control_c, 0, 64, 80
1, 110055, Control_c, 0, 64, 80
1, 110070, Control_c, 0, 64, 81
1, 110092, Control_c, 0, 64, 82
1, 110107, Control_c, 0, 64, 85
1, 110122, Control_c, 0, 64, 88
1, 110136, Control_c, 0, 64, 93
1, 110151, Control_c, 0, 64, 96
1, 110166, Control_c, 0, 64, 98
1, 110181, Control_c, 0, 64, 100
1, 110196, Control_c, 0, 64, 103
1, 110210, Control_c, 0, 64, 106
1, 110225, Control_c, 0, 64, 111
1, 110240, Control_c, 0, 64, 114
1, 110255, Control_c, 0, 64, 120
1, 110270, Control_c, 0, 64, 127
1, 110317, Note_on_c, 0, 73, 77
1, 110329, Control_c, 0, 64, 113
1, 110344, Control_c, 0, 64, 86
1, 110359, Control_c, 0, 64, 71
1, 110374, Control_c, 0, 64, 61
1, 110389, Control_c, 0, 64, 58
1, 110403, Control_c, 0, 64, 62
1, 110418, Control_c, 0, 64, 69
1, 110433, Control_c, 0, 64, 79
1, 110448, Control_c, 0, 64, 89
1, 110462, Control_c, 0, 64, 94
1, 110477, Control_c, 0, 64, 98
1, 110492, Control_c, 0, 64, 104
1, 110508, Control_c, 0, 64, 116
1, 110523, Control_c, 0, 64, 127
1, 110908, Note_on_c, 0, 72, 68
1, 110921, Note_off_c, 0, 65, 62
1, 110938, Note_off_c, 0, 72, 65
1, 110938, Note_off_c, 0, 73, 62
1, 111060, Note_on_c, 0, 70, 62
1, 111075, Note_on_c, 0, 63, 53
1, 111078, Control_c, 0, 64, 106
1, 111081, Note_off_c, 0, 70, 65
1, 111093, Control_c, 0, 64, 69
1, 111105, Note_on_c, 0, 72, 75
1, 111108, Control_c, 0, 64, 42
1, 111111, Note_on_c, 0, 54, 53
1, 111123, Control_c, 0, 64, 0
1, 111149, Note_on_c, 0, 70, 82
1, 111152, Note_off_c, 0, 56, 50
1, 111152, Control_c, 0, 64, 45
1, 111164, Note_off_c, 0, 72, 62
1, 111167, Control_c, 0, 64, 62
1, 111182, Control_c, 0, 64, 71
1, 111197, Control_c, 0, 64, 76
1, 111212, Control_c, 0, 64, 78
1, 111227, Control_c, 0, 64, 78
1, 111242, Control_c, 0, 64, 81
1, 111257, Control_c, 0, 64, 83
1, 111272, Control_c, 0, 64, 86
1, 111286, Control_c, 0, 64, 90
1, 111299, Note_on_c, 0, 68, 78
1, 111301, Control_c, 0, 64, 94
1, 111316, Control_c, 0, 64, 101
1, 111319, Note_off_c, 0, 70, 62
1, 111331, Control_c, 0, 64, 115
1, 111342, Note_off_c, 0, 68, 60
1, 111343, Note_off_c, 0, 63, 62
1, 111346, Control_c, 0, 64, 127
1, 111435, Control_c, 0, 67, 19
1, 111456, Note_on_c, 0, 53, 61
1, 111494, Control_c, 0, 64, 83
1, 111508, Control_c, 0, 64, 62
1, 111508, Control_c, 0, 67, 22
1, 111510, Note_on_c, 0, 66, 70
1, 111517, Note_on_c, 0, 61, 64
1, 111523, Control_c, 0, 64, 0
1, 111523, Control_c, 0, 67, 24
1, 111553, Control_c, 0, 64, 42
1, 111568, Control_c, 0, 64, 61
1, 111590, Control_c, 0, 64, 71
1, 111605, Control_c, 0, 64, 78
1, 111605, Control_c, 0, 67, 26
1, 111620, Control_c, 0, 64, 79
1, 111634, Control_c, 0, 67, 29
1, 111649, Control_c, 0, 64, 80
1, 111649, Control_c, 0, 67, 31
1, 111664, Control_c, 0, 67, 32
1, 111667, Note_off_c, 0, 61, 33
1, 111708, Control_c, 0, 67, 32
1, 111723, Control_c, 0, 67, 33
1, 111728, Note_off_c, 0, 49, 59
1, 111738, Control_c, 0, 64, 79
1, 111738, Control_c, 0, 67, 33
1, 111753, Control_c, 0, 64, 75
1, 111753, Control_c, 0, 67, 34
1, 111754, Note_on_c, 0, 51, 53
1, 111761, Note_on_c, 0, 60, 55
1, 111768, Control_c, 0, 64, 64
1, 111768, Control_c, 0, 67, 37
1, 111782, Control_c, 0, 64, 36
1, 111782, Control_c, 0, 67, 37
1, 111788, Note_off_c, 0, 53, 57
1, 111797, Control_c, 0, 64, 0
1, 111797, Control_c, 0, 67, 38
1, 111812, Control_c, 0, 67, 39
1, 111826, Control_c, 0, 67, 40
1, 111841, Control_c, 0, 67, 42
1, 111856, Control_c, 0, 67, 44
1, 111871, Control_c, 0, 67, 45
1, 111886, Control_c, 0, 67, 46
1, 111901, Control_c, 0, 64, 35
1, 111901, Control_c, 0, 67, 48
1, 111915, Control_c, 0, 64, 50
1, 111915, Control_c, 0, 67, 51
1, 111930, Control_c, 0, 64, 57
1, 111930, Control_c, 0, 67, 56
1, 111945, Control_c, 0, 64, 58
1, 111945, Control_c, 0, 67, 60
1, 111960, Control_c, 0, 64, 55
1, 111960, Control_c, 0, 67, 63
1, 111975, Control_c, 0, 64, 47
1, 111975, Control_c, 0, 67, 65
1, 111984, Note_on_c, 0, 68, 61
1, 111990, Control_c, 0, 64, 0
1, 111990, Control_c, 0, 67, 65
1, 112005, Control_c, 0, 67, 67
1, 112020, Control_c, 0, 67, 71
1, 112034, Control_c, 0, 67, 76
1, 112047, Note_off_c, 0, 66, 55
1, 112049, Control_c, 0, 67, 80
1, 112064, Control_c, 0, 64, 46
1, 112064, Control_c, 0, 67, 83
1, 112079, Control_c, 0, 64, 59
1, 112079, Control_c, 0, 67, 86
1, 112094, Control_c, 0, 64, 64
1, 112094, Control_c, 0, 67, 88
1, 112109, Control_c, 0, 64, 66
1, 112109, Control_c, 0, 67, 90
1, 112124, Control_c, 0, 64, 69
1, 112124, Control_c, 0, 67, 91
1, 112139, Control_c, 0, 64, 70
1, 112139, Control_c, 0, 67, 92
1, 112154, Control_c, 0, 64, 72
1, 112154, Control_c, 0, 67, 93
1, 112169, Control_c, 0, 64, 72
1, 112169, Control_c, 0, 67, 94
1, 112184, Control_c, 0, 64, 73
1, 112184, Control_c, 0, 67, 95
1, 112198, Control_c, 0, 64, 73
1, 112213, Control_c, 0, 64, 74
1, 112213, Control_c, 0, 67, 100
1, 112220, Note_off_c, 0, 51, 60
1, 112228, Control_c, 0, 64, 76
1, 112228, Control_c, 0, 67, 103
1, 112232, Note_off_c, 0, 54, 56
1, 112233, Note_on_c, 0, 69, 57
1, 112242, Control_c, 0, 64, 79
1, 112242, Control_c, 0, 67, 107
1, 112257, Control_c, 0, 64, 81
1, 112257, Control_c, 0, 67, 112
1, 112268, Note_off_c, 0, 60, 51
1, 112272, Control_c, 0, 64, 83
1, 112272, Control_c, 0, 67, 117
1, 112287, Control_c, 0, 64, 85
1, 112287, Control_c, 0, 67, 120
1, 112296, Note_off_c, 0, 68, 32
1, 112302, Control_c, 0, 64, 87
1, 112302, Control_c, 0, 67, 124
1, 112317, Control_c, 0, 64, 90
1, 112317, Control_c, 0, 67, 126
1, 112339, Control_c, 0, 64, 93
1, 112354, Control_c, 0, 64, 96
1, 112369, Control_c, 0, 64, 98
1, 112378, Note_off_c, 0, 69, 38
1, 112398, Control_c, 0, 64, 101
1, 112428, Control_c, 0, 64, 104
1, 112472, Control_c, 0, 64, 106
1, 112546, Control_c, 0, 64, 104
1, 112559, Note_on_c, 0, 53, 44
1, 112561, Control_c, 0, 64, 96
1, 112575, Note_on_c, 0, 46, 39
1, 112576, Control_c, 0, 64, 85
1, 112591, Control_c, 0, 64, 74
1, 112605, Control_c, 0, 64, 63
1, 112611, Note_on_c, 0, 65, 54
1, 112620, Control_c, 0, 64, 43
1, 112628, Note_on_c, 0, 61, 38
1, 112635, Control_c, 0, 64, 0
1, 112753, Control_c, 0, 64, 42
1, 112768, Control_c, 0, 64, 60
1, 112783, Control_c, 0, 64, 68
1, 112794, Note_off_c, 0, 61, 55
1, 112798, Control_c, 0, 64, 74
1, 112813, Control_c, 0, 64, 78
1, 112828, Control_c, 0, 64, 81
1, 112843, Control_c, 0, 64, 83
1, 112857, Control_c, 0, 64, 86
1, 112860, Note_off_c, 0, 65, 57
1, 112872, Control_c, 0, 64, 90
1, 112887, Control_c, 0, 64, 95
1, 112903, Control_c, 0, 64, 101
1, 112918, Control_c, 0, 64, 111
1, 112933, Control_c, 0, 64, 127
1, 112934, Note_off_c, 0, 46, 42
1, 112943, Note_off_c, 0, 53, 50
1, 113329, Note_on_c, 0, 77, 43
1, 113332, Note_on_c, 0, 68, 56
1, 113370, Control_c, 0, 64, 102
1, 113385, Control_c, 0, 64, 84
1, 113399, Control_c, 0, 64, 71
1, 113414, Control_c, 0, 64, 60
1, 113424, Note_off_c, 0, 77, 58
1, 113425, Note_on_c, 0, 75, 59
1, 113427, Note_off_c, 0, 68, 61
1, 113429, Control_c, 0, 64, 35
1, 113431, Note_on_c, 0, 63, 34
1, 113441, Note_on_c, 0, 60, 28
1, 113444, Control_c, 0, 64, 0
1, 113445, Note_on_c, 0, 69, 37
1, 113450, Note_on_c, 0, 66, 37
1, 113500, Note_off_c, 0, 63, 0
1, 113500, Note_on_c, 0, 63, 7
1, 113592, Control_c, 0, 64, 38
1, 113606, Control_c, 0, 64, 56
1, 113621, Control_c, 0, 64, 66
1, 113636, Control_c, 0, 64, 72
1, 113651, Control_c, 0, 64, 76
1, 113666, Control_c, 0, 64, 78
1, 113680, Control_c, 0, 64, 80
1, 113696, Control_c, 0, 64, 83
1, 113708, Note_off_c, 0, 69, 35
1, 113711, Control_c, 0, 64, 88
1, 113726, Control_c, 0, 64, 97
1, 113741, Control_c, 0, 64, 112
1, 113756, Control_c, 0, 64, 127
1, 113829, Note_off_c, 0, 75, 52
1, 113865, Note_off_c, 0, 63, 41
1, 113871, Note_off_c, 0, 66, 36
1, 113878, Note_off_c, 0, 60, 43
1, 114601, Control_c, 0, 64, 111
1, 114616, Control_c, 0, 64, 100
1, 114631, Control_c, 0, 64, 90
1, 114635, Note_on_c, 0, 46, 45
1, 114639, Note_on_c, 0, 65, 44
1, 114644, Note_on_c, 0, 53, 30
1, 114646, Control_c, 0, 64, 81
1, 114658, Note_on_c, 0, 61, 34
1, 114660, Control_c, 0, 64, 73
1, 114675, Control_c, 0, 64, 65
1, 114690, Control_c, 0, 64, 55
1, 114705, Control_c, 0, 64, 37
1, 114720, Control_c, 0, 64, 0
1, 114882, Control_c, 0, 64, 46
1, 114897, Control_c, 0, 64, 58
1, 114912, Control_c, 0, 64, 64
1, 114926, Control_c, 0, 64, 66
1, 114941, Control_c, 0, 64, 67
1, 114971, Control_c, 0, 64, 68
1, 114986, Control_c, 0, 64, 69
1, 115001, Control_c, 0, 64, 71
1, 115016, Control_c, 0, 64, 74
1, 115031, Control_c, 0, 64, 76
1, 115045, Control_c, 0, 64, 78
1, 115060, Control_c, 0, 64, 80
1, 115075, Control_c, 0, 64, 81
1, 115090, Control_c, 0, 64, 83
1, 115105, Control_c, 0, 64, 84
1, 115119, Control_c, 0, 64, 86
1, 115135, Control_c, 0, 64, 88
1, 115150, Control_c, 0, 64, 91
1, 115165, Control_c, 0, 64, 94
1, 115179, Control_c, 0, 64, 98
1, 115194, Control_c, 0, 64, 100
1, 115209, Control_c, 0, 64, 104
1, 115215, Note_off_c, 0, 61, 40
1, 115224, Control_c, 0, 64, 108
1, 115239, Control_c, 0, 64, 115
1, 115253, Control_c, 0, 64, 127
1, 115648, Note_off_c, 0, 65, 39
1, 115776, Poly_aftertouch_c, 0, 49, 127
1, 115972, Control_c, 0, 67, 124
1, 115986, Control_c, 0, 67, 119
1, 116001, Control_c, 0, 67, 114
1, 116016, Control_c, 0, 67, 108
1, 116031, Control_c, 0, 67, 103
1, 116042, Poly_aftertouch_c, 0, 51, 127
1, 116046, Control_c, 0, 67, 98
1, 116068, Control_c, 0, 67, 94
1, 116083, Control_c, 0, 67, 90
1, 116098, Control_c, 0, 67, 87
1, 116107, Note_on_c, 0, 65, 74
1, 116113, Control_c, 0, 67, 86
1, 116128, Control_c, 0, 67, 85
1, 116143, Control_c, 0, 67, 84
1, 116158, Control_c, 0, 67, 84
1, 116548, Note_on_c, 0, 64, 76
1, 116574, Note_off_c, 0, 65, 61
1, 116822, Note_on_c, 0, 63, 79
1, 116822, Note_off_c, 0, 64, 62
1, 116837, Note_off_c, 0, 53, 40
1, 116874, Poly_aftertouch_c, 0, 49, 0
1, 116883, Poly_aftertouch_c, 0, 51, 0
1, 116918, Note_off_c, 0, 46, 42
1, 117010, Control_c, 0, 67, 85
1, 117055, Control_c, 0, 64, 87
1, 117055, Note_on_c, 0, 73, 73
1, 117066, Note_off_c, 0, 63, 60
1, 117069, Control_c, 0, 64, 64
1, 117071, Note_on_c, 0, 61, 60
1, 117084, Control_c, 0, 64, 36
1, 117084, Control_c, 0, 67, 85
1, 117099, Control_c, 0, 64, 0
1, 117099, Control_c, 0, 67, 86
1, 117129, Control_c, 0, 64, 41
1, 117144, Control_c, 0, 64, 60
1, 117159, Control_c, 0, 64, 69
1, 117173, Control_c, 0, 64, 77
1, 117188, Control_c, 0, 64, 81
1, 117203, Control_c, 0, 64, 81
1, 117218, Control_c, 0, 64, 82
1, 117233, Control_c, 0, 64, 82
1, 117247, Control_c, 0, 64, 83
1, 117262, Control_c, 0, 64, 85
1, 117277, Control_c, 0, 64, 88
1, 117292, Control_c, 0, 64, 92
1, 117298, Note_on_c, 0, 58, 60
1, 117307, Control_c, 0, 64, 95
1, 117307, Control_c, 0, 67, 86
1, 117321, Control_c, 0, 64, 98
1, 117321, Control_c, 0, 67, 87
1, 117336, Control_c, 0, 64, 100
1, 117351, Control_c, 0, 64, 103
1, 117365, Control_c, 0, 64, 106
1, 117380, Control_c, 0, 64, 111
1, 117395, Control_c, 0, 64, 119
1, 117395, Control_c, 0, 67, 87
1, 117410, Control_c, 0, 64, 127
1, 117410, Control_c, 0, 67, 88
1, 117416, Note_off_c, 0, 61, 50
1, 117425, Control_c, 0, 67, 89
1, 117454, Control_c, 0, 67, 89
1, 117469, Control_c, 0, 67, 90
1, 117484, Control_c, 0, 67, 91
1, 117499, Control_c, 0, 67, 91
1, 117501, Note_off_c, 0, 58, 40
1, 117514, Control_c, 0, 67, 92
1, 117543, Control_c, 0, 67, 92
1, 117558, Control_c, 0, 67, 93
1, 117573, Note_on_c, 0, 49, 46
1, 117580, Control_c, 0, 67, 93
1, 117595, Control_c, 0, 67, 94
1, 117625, Control_c, 0, 67, 95
1, 117640, Control_c, 0, 67, 95
1, 117654, Control_c, 0, 67, 96
1, 117684, Note_on_c, 0, 63, 59
1, 117707, Note_on_c, 0, 58, 37
1, 117730, Control_c, 0, 67, 98
1, 117744, Control_c, 0, 67, 100
1, 117759, Control_c, 0, 67, 104
1, 117774, Control_c, 0, 67, 107
1, 117788, Note_off_c, 0, 73, 30
1, 117788, Control_c, 0, 67, 110
1, 117803, Control_c, 0, 67, 113
1, 117818, Control_c, 0, 67, 116
1, 117833, Control_c, 0, 67, 118
1, 117862, Control_c, 0, 67, 120
1, 117892, Control_c, 0, 67, 123
1, 117922, Control_c, 0, 67, 126
1, 118005, Note_on_c, 0, 42, 53
1, 118044, Note_off_c, 0, 42, 62
1, 118062, Note_off_c, 0, 49, 40
1, 118095, Note_off_c, 0, 58, 40
1, 118269, Note_off_c, 0, 63, 24
1, 118638, Note_on_c, 0, 49, 37
1, 118737, Note_on_c, 0, 58, 45
1, 118798, Note_off_c, 0, 49, 45
1, 118833, Note_off_c, 0, 58, 60
1, 118866, Note_on_c, 0, 63, 45
1, 119021, Note_off_c, 0, 63, 35
1, 119036, Note_on_c, 0, 70, 51
1, 119075, Note_off_c, 0, 70, 59
1, 119508, Note_on_c, 0, 63, 44
1, 119687, Note_on_c, 0, 58, 43
1, 119711, Note_off_c, 0, 63, 35
1, 119788, Note_on_c, 0, 97, 71
1, 119898, Note_off_c, 0, 58, 54
1, 119927, Note_on_c, 0, 49, 48
1, 119982, Note_off_c, 0, 49, 58
1, 120131, Note_on_c, 0, 42, 47
1, 120192, Note_off_c, 0, 42, 58
1, 120484, Note_on_c, 0, 96, 60
1, 120505, Note_off_c, 0, 97, 65
1, 120605, Note_on_c, 0, 49, 43
1, 120736, Note_on_c, 0, 87, 73
1, 120748, Note_on_c, 0, 58, 45
1, 120767, Note_off_c, 0, 49, 43
1, 120800, Note_off_c, 0, 58, 61
1, 120805, Note_off_c, 0, 96, 37
1, 120848, Note_on_c, 0, 63, 48
1, 120923, Note_off_c, 0, 63, 57
1, 120960, Note_on_c, 0, 95, 63
1, 120967, Note_on_c, 0, 70, 52
1, 120989, Note_off_c, 0, 70, 59
1, 121153, Note_off_c, 0, 95, 62
1, 121174, Note_off_c, 0, 87, 63
1, 121189, Note_on_c, 0, 86, 67
1, 121240, Note_on_c, 0, 63, 48
1, 121337, Note_off_c, 0, 63, 54
1, 121347, Note_on_c, 0, 58, 45
1, 121360, Note_off_c, 0, 86, 50
1, 121374, Note_on_c, 0, 94, 72
1, 121383, Note_on_c, 0, 85, 69
1, 121425, Note_off_c, 0, 58, 61
1, 121451, Note_on_c, 0, 49, 46
1, 121490, Note_off_c, 0, 49, 61
1, 121569, Note_off_c, 0, 85, 63
1, 121579, Note_on_c, 0, 84, 64
1, 121580, Note_on_c, 0, 87, 71
1, 121580, Note_off_c, 0, 94, 65
1, 121587, Note_on_c, 0, 42, 46
1, 121620, Note_off_c, 0, 42, 55
1, 121729, Note_off_c, 0, 84, 58
1, 121788, Note_on_c, 0, 83, 56
1, 121869, Note_on_c, 0, 49, 55
1, 121947, Note_off_c, 0, 83, 61
1, 121952, Note_off_c, 0, 87, 63
1, 121958, Note_on_c, 0, 86, 69
1, 121967, Note_on_c, 0, 58, 55
1, 121976, Note_off_c, 0, 49, 46
1, 121977, Note_on_c, 0, 82, 60
1, 122003, Note_off_c, 0, 58, 64
1, 122163, Note_off_c, 0, 86, 62
1, 122178, Note_on_c, 0, 85, 70
1, 122211, Note_off_c, 0, 82, 59
1, 122235, Note_off_c, 0, 85, 63
1, 122277, Note_on_c, 0, 63, 46
1, 122380, Note_on_c, 0, 75, 61
1, 122383, Note_on_c, 0, 84, 69
1, 122403, Note_off_c, 0, 63, 37
1, 122404, Note_on_c, 0, 70, 54
1, 122455, Note_off_c, 0, 84, 58
1, 122615, Note_off_c, 0, 75, 59
1, 122616, Note_on_c, 0, 74, 62
1, 122623, Note_on_c, 0, 83, 62
1, 122640, Note_off_c, 0, 70, 49
1, 122662, Note_on_c, 0, 63, 49
1, 122665, Note_off_c, 0, 83, 62
1, 122785, Note_on_c, 0, 58, 49
1, 122788, Note_off_c, 0, 74, 59
1, 122820, Note_off_c, 0, 63, 36
1, 122823, Note_on_c, 0, 73, 53
1, 122828, Note_on_c, 0, 82, 61
1, 122848, Note_off_c, 0, 58, 58
1, 123011, Note_off_c, 0, 73, 59
1, 123016, Note_off_c, 0, 82, 63
1, 123019, Note_on_c, 0, 75, 64
1, 123025, Note_on_c, 0, 72, 60
1, 123162, Note_off_c, 0, 72, 61
1, 123226, Note_on_c, 0, 71, 52
1, 123408, Note_off_c, 0, 71, 62
1, 123411, Note_off_c, 0, 75, 61
1, 123419, Note_on_c, 0, 74, 66
1, 123429, Note_on_c, 0, 63, 49
1, 123437, Note_on_c, 0, 70, 58
1, 123518, Note_off_c, 0, 63, 58
1, 123527, Note_on_c, 0, 58, 44
1, 123608, Note_off_c, 0, 58, 61
1, 123613, Note_off_c, 0, 74, 61
1, 123630, Note_on_c, 0, 73, 68
1, 123647, Note_on_c, 0, 49, 42
1, 123651, Note_off_c, 0, 70, 43
1, 123835, Note_off_c, 0, 73, 61
1, 123849, Note_on_c, 0, 72, 60
1, 123866, Note_on_c, 0, 69, 40
1, 123934, Note_off_c, 0, 69, 56
1, 124064, Note_off_c, 0, 72, 58
1, 124067, Note_on_c, 0, 63, 59
1, 124313, Note_on_c, 0, 71, 59
1, 124319, Note_on_c, 0, 62, 54
1, 124326, Note_off_c, 0, 63, 51
1, 124376, Note_off_c, 0, 71, 63
1, 124434, Note_on_c, 0, 42, 51
1, 124450, Note_off_c, 0, 49, 43
1, 124556, Note_off_c, 0, 62, 50
1, 124557, Control_c, 0, 64, 86
1, 124561, Note_off_c, 0, 42, 60
1, 124569, Note_on_c, 0, 49, 49
1, 124571, Note_on_c, 0, 70, 62
1, 124572, Control_c, 0, 64, 72
1, 124583, Note_on_c, 0, 61, 48
1, 124587, Control_c, 0, 64, 65
1, 124617, Control_c, 0, 64, 68
1, 124631, Control_c, 0, 64, 72
1, 124646, Control_c, 0, 64, 76
1, 124661, Control_c, 0, 64, 81
1, 124676, Note_off_c, 0, 49, 59
1, 124676, Control_c, 0, 64, 83
1, 124690, Control_c, 0, 64, 84
1, 124705, Control_c, 0, 64, 85
1, 124707, Note_on_c, 0, 58, 43
1, 124720, Control_c, 0, 64, 86
1, 124735, Control_c, 0, 64, 88
1, 124739, Note_off_c, 0, 58, 60
1, 124745, Note_off_c, 0, 70, 35
1, 124750, Control_c, 0, 64, 91
1, 124752, Note_off_c, 0, 61, 36
1, 124764, Control_c, 0, 64, 95
1, 124779, Control_c, 0, 64, 102
1, 124794, Control_c, 0, 64, 110
1, 124808, Control_c, 0, 64, 124
1, 124823, Control_c, 0, 64, 127
1, 124958, Control_c, 0, 64, 111
1, 124968, Note_on_c, 0, 63, 53
1, 124972, Note_on_c, 0, 70, 58
1, 124973, Control_c, 0, 64, 88
1, 124982, Note_on_c, 0, 60, 44
1, 124987, Control_c, 0, 64, 69
1, 125002, Control_c, 0, 64, 54
1, 125017, Control_c, 0, 64, 0
1, 125069, Control_c, 0, 64, 38
1, 125084, Control_c, 0, 64, 59
1, 125097, Note_off_c, 0, 63, 52
1, 125099, Control_c, 0, 64, 69
1, 125108, Note_off_c, 0, 70, 60
1, 125113, Control_c, 0, 64, 77
1, 125128, Control_c, 0, 64, 84
1, 125143, Control_c, 0, 64, 90
1, 125158, Control_c, 0, 64, 98
1, 125173, Control_c, 0, 64, 109
1, 125187, Control_c, 0, 64, 127
1, 125487, Note_on_c, 0, 63, 41
1, 125610, Note_on_c, 0, 58, 45
1, 125647, Note_off_c, 0, 63, 35
1, 125711, Note_off_c, 0, 58, 58
1, 125763, Note_on_c, 0, 49, 43
1, 125828, Note_off_c, 0, 49, 55
1, 125949, Note_on_c, 0, 42, 48
1, 126424, Note_off_c, 0, 42, 44
1, 126457, Note_on_c, 0, 49, 32
1, 126651, Note_on_c, 0, 70, 52
1, 126677, Note_on_c, 0, 58, 39
1, 126710, Note_off_c, 0, 60, 47
1, 126961, Note_off_c, 0, 58, 42
1, 127019, Note_off_c, 0, 70, 58
1, 127029, Note_on_c, 0, 64, 49
1, 127037, Note_on_c, 0, 60, 38
1, 127099, Note_off_c, 0, 49, 41
1, 127474, Note_on_c, 0, 57, 34
1, 127685, Note_on_c, 0, 49, 39
1, 127696, Note_off_c, 0, 57, 42
1, 128021, Note_on_c, 0, 69, 46
1, 128028, Note_on_c, 0, 42, 32
1, 128087, Note_off_c, 0, 49, 40
1, 128110, Note_off_c, 0, 60, 43
1, 128132, Note_off_c, 0, 69, 48
1, 128179, Note_off_c, 0, 64, 40
1, 128213, Note_off_c, 0, 42, 42
1, 128628, Control_c, 0, 64, 113
1, 128643, Control_c, 0, 64, 80
1, 128657, Control_c, 0, 64, 62
1, 128667, Note_on_c, 0, 37, 33
1, 128672, Control_c, 0, 64, 0
1, 128674, Note_on_c, 0, 25, 38
1, 128704, Note_on_c, 0, 61, 62
1, 128709, Note_on_c, 0, 32, 40
1, 128709, Note_on_c, 0, 56, 47
1, 128710, Note_on_c, 0, 49, 43
1, 128721, Note_on_c, 0, 53, 31
1, 128731, Control_c, 0, 64, 53
1, 128746, Control_c, 0, 64, 65
1, 128749, Note_off_c, 0, 49, 59
1, 128754, Note_off_c, 0, 25, 60
1, 128761, Control_c, 0, 64, 73
1, 128768, Note_off_c, 0, 53, 52
1, 128770, Note_off_c, 0, 32, 58
1, 128775, Control_c, 0, 64, 79
1, 128790, Control_c, 0, 64, 87
1, 128808, Note_off_c, 0, 56, 61
1, 128813, Control_c, 0, 64, 101
1, 128816, Note_off_c, 0, 37, 55
1, 128820, Note_off_c, 0, 61, 61
1, 128828, Control_c, 0, 64, 127
1, 129131, Note_on_c, 0, 61, 42
1, 129135, Note_on_c, 0, 85, 60
1, 129139, Note_on_c, 0, 65, 44
1, 129163, Note_on_c, 0, 56, 34
1, 129166, Note_on_c, 0, 73, 30
1, 129187, Note_on_c, 0, 80, 36
1, 129199, Poly_aftertouch_c, 0, 77, 127
1, 129328, Note_off_c, 0, 61, 40
1, 129351, Note_off_c, 0, 56, 38
1, 129431, Note_off_c, 0, 73, 38
1, 129467, Poly_aftertouch_c, 0, 77, 0
1, 129467, Note_off_c, 0, 65, 34
1, 129492, Note_off_c, 0, 85, 32
1, 129618, Note_off_c, 0, 80, 28
1, 129824, Note_on_c, 0, 72, 44
1, 129824, Note_on_c, 0, 84, 53
1, 129834, Note_on_c, 0, 54, 45
1, 129843, Note_on_c, 0, 77, 34
1, 129843, Note_on_c, 0, 60, 35
1, 129843, Note_on_c, 0, 65, 38
1, 129844, Note_on_c, 0, 80, 40
1, 129844, Control_c, 0, 64, 96
1, 129852, Note_on_c, 0, 63, 35
1, 129859, Control_c, 0, 64, 84
1, 129874, Control_c, 0, 64, 78
1, 129889, Control_c, 0, 64, 78
1, 129903, Control_c, 0, 64, 79
1, 129918, Control_c, 0, 64, 83
1, 129933, Control_c, 0, 64, 91
1, 129948, Control_c, 0, 64, 101
1, 129963, Control_c, 0, 64, 124
1, 129977, Control_c, 0, 64, 127
1, 129983, Note_off_c, 0, 84, 49
1, 130006, Note_off_c, 0, 72, 37
1, 130020, Note_off_c, 0, 60, 42
1, 130038, Note_off_c, 0, 54, 39
1, 130042, Note_off_c, 0, 63, 40
1, 130059, Note_off_c, 0, 77, 44
1, 130097, Note_off_c, 0, 65, 35
1, 130231, Note_off_c, 0, 80, 18
1, 130372, Note_on_c, 0, 65, 45
1, 130380, Note_on_c, 0, 59, 37
1, 130396, Note_on_c, 0, 80, 25
1, 130399, Note_on_c, 0, 77, 42
1, 130405, Note_on_c, 0, 83, 35
1, 130406, Note_on_c, 0, 53, 39
1, 130406, Note_on_c, 0, 71, 41
1, 130410, Note_off_c, 0, 65, 65
1, 130423, Note_off_c, 0, 77, 59
1, 130426, Note_off_c, 0, 59, 63
1, 130433, Note_off_c, 0, 80, 50
1, 130433, Note_off_c, 0, 83, 49
1, 130436, Note_off_c, 0, 71, 61
1, 130451, Note_off_c, 0, 53, 62
1, 130474, Poly_aftertouch_c, 0, 62, 0
1, 130475, Poly_aftertouch_c, 0, 84, 0
1, 130489, Control_c, 0, 67, 121
1, 130504, Control_c, 0, 67, 115
1, 130519, Control_c, 0, 67, 109
1, 130533, Control_c, 0, 67, 101
1, 130548, Control_c, 0, 67, 88
1, 130563, Control_c, 0, 67, 78
1, 130578, Control_c, 0, 67, 75
1, 130646, Note_on_c, 0, 36, 70
1, 130654, Note_on_c, 0, 41, 67
1, 130657, Note_on_c, 0, 45, 79
1, 130663, Note_on_c, 0, 48, 76
1, 130666, Control_c, 0, 64, 117
1, 130666, Control_c, 0, 67, 77
1, 130681, Control_c, 0, 64, 65
1, 130696, Control_c, 0, 64, 0
1, 130700, Note_on_c, 0, 72, 77
1, 130707, Note_on_c, 0, 69, 67
1, 130709, Note_on_c, 0, 65, 61
1, 130710, Note_on_c, 0, 60, 63
1, 130745, Note_off_c, 0, 36, 62
1, 130755, Control_c, 0, 64, 55
1, 130761, Note_off_c, 0, 41, 63
1, 130767, Note_off_c, 0, 60, 57
1, 130770, Control_c, 0, 64, 70
1, 130770, Control_c, 0, 67, 78
1, 130773, Note_off_c, 0, 65, 64
1, 130779, Note_off_c, 0, 45, 62
1, 130785, Control_c, 0, 64, 86
1, 130797, Note_off_c, 0, 48, 66
1, 130797, Note_off_c, 0, 69, 63
1, 130799, Note_off_c, 0, 72, 63
1, 130800, Control_c, 0, 64, 120
1, 130814, Control_c, 0, 64, 127
1, 130859, Control_c, 0, 67, 79
1, 130949, Control_c, 0, 67, 80
1, 130985, Note_on_c, 0, 57, 48
1, 130993, Control_c, 0, 67, 80
1, 130994, Note_on_c, 0, 53, 45
1, 130996, Note_on_c, 0, 60, 59
1, 131001, Note_on_c, 0, 77, 61
1, 131010, Note_on_c, 0, 65, 59
1, 131011, Note_on_c, 0, 69, 36
1, 131032, Note_on_c, 0, 72, 42
1, 131095, Note_off_c, 0, 65, 58
1, 131104, Control_c, 0, 67, 79
1, 131122, Note_off_c, 0, 53, 57
1, 131144, Note_off_c, 0, 77, 56
1, 131171, Note_off_c, 0, 57, 60
1, 131178, Control_c, 0, 67, 79
1, 131190, Note_off_c, 0, 69, 45
1, 131247, Note_off_c, 0, 60, 32
1, 131354, Note_off_c, 0, 72, 36
1, 131564, Control_c, 0, 67, 80
1, 131579, Control_c, 0, 67, 81
1, 131593, Control_c, 0, 67, 81
1, 131606, Note_on_c, 0, 52, 45
1, 131606, Note_on_c, 0, 56, 51
1, 131608, Note_on_c, 0, 76, 68
1, 131608, Control_c, 0, 67, 82
1, 131609, Note_on_c, 0, 60, 51
1, 131617, Note_on_c, 0, 72, 48
1, 131626, Note_on_c, 0, 68, 53
1, 131638, Note_on_c, 0, 64, 39
1, 131638, Control_c, 0, 64, 94
1, 131653, Control_c, 0, 64, 71
1, 131667, Control_c, 0, 64, 63
1, 131682, Control_c, 0, 64, 61
1, 131697, Control_c, 0, 64, 63
1, 131697, Control_c, 0, 67, 82
1, 131712, Control_c, 0, 64, 67
1, 131727, Control_c, 0, 64, 71
1, 131727, Control_c, 0, 67, 83
1, 131741, Control_c, 0, 64, 78
1, 131756, Control_c, 0, 64, 88
1, 131759, Note_off_c, 0, 52, 57
1, 131771, Control_c, 0, 64, 95
1, 131786, Control_c, 0, 64, 101
1, 131802, Note_off_c, 0, 76, 59
1, 131808, Note_off_c, 0, 56, 49
1, 131808, Control_c, 0, 64, 108
1, 131808, Control_c, 0, 67, 83
1, 131810, Note_off_c, 0, 68, 51
1, 131813, Note_off_c, 0, 64, 48
1, 131823, Control_c, 0, 64, 115
1, 131838, Control_c, 0, 64, 127
1, 131891, Note_off_c, 0, 72, 53
1, 131912, Control_c, 0, 67, 84
1, 131924, Note_off_c, 0, 60, 36
1, 132180, Control_c, 0, 67, 83
1, 132195, Control_c, 0, 67, 83
1, 132203, Note_on_c, 0, 51, 41
1, 132209, Control_c, 0, 64, 96
1, 132215, Note_on_c, 0, 75, 60
1, 132220, Note_on_c, 0, 57, 42
1, 132224, Control_c, 0, 64, 84
1, 132226, Note_on_c, 0, 60, 40
1, 132226, Note_on_c, 0, 63, 48
1, 132227, Note_on_c, 0, 72, 45
1, 132227, Note_on_c, 0, 69, 41
1, 132230, Note_on_c, 0, 53, 32
1, 132239, Control_c, 0, 64, 83
1, 132248, Note_off_c, 0, 75, 63
1, 132254, Note_off_c, 0, 69, 58
1, 132254, Control_c, 0, 64, 84
1, 132254, Control_c, 0, 67, 82
1, 132254, Note_off_c, 0, 72, 58
1, 132269, Note_off_c, 0, 60, 65
1, 132269, Control_c, 0, 64, 88
1, 132270, Note_off_c, 0, 57, 63
1, 132284, Control_c, 0, 64, 94
1, 132284, Control_c, 0, 67, 83
1, 132296, Note_off_c, 0, 63, 58
1, 132298, Control_c, 0, 64, 101
1, 132298, Control_c, 0, 67, 84
1, 132313, Control_c, 0, 64, 109
1, 132313, Control_c, 0, 67, 84
1, 132315, Note_off_c, 0, 51, 60
1, 132320, Note_off_c, 0, 53, 37
1, 132328, Control_c, 0, 64, 122
1, 132328, Control_c, 0, 67, 85
1, 132343, Control_c, 0, 64, 127
1, 132343, Control_c, 0, 67, 86
1, 132372, Control_c, 0, 67, 87
1, 132387, Control_c, 0, 67, 89
1, 132402, Control_c, 0, 67, 92
1, 132416, Control_c, 0, 67, 95
1, 132446, Control_c, 0, 67, 98
1, 132461, Control_c, 0, 67, 101
1, 132490, Control_c, 0, 64, 101
1, 132490, Control_c, 0, 67, 103
1, 132501, Note_on_c, 0, 25, 54
1, 132505, Control_c, 0, 64, 75
1, 132520, Control_c, 0, 64, 55
1, 132535, Control_c, 0, 64, 0
1, 132564, Note_on_c, 0, 37, 39
1, 132564, Note_on_c, 0, 61, 62
1, 132567, Note_on_c, 0, 56, 40
1, 132570, Note_on_c, 0, 49, 34
1, 132579, Note_on_c, 0, 53, 19
1, 132587, Control_c, 0, 64, 61
1, 132591, Note_off_c, 0, 25, 61
1, 132602, Control_c, 0, 64, 75
1, 132602, Control_c, 0, 67, 106
1, 132606, Note_off_c, 0, 49, 56
1, 132615, Note_off_c, 0, 53, 52
1, 132617, Control_c, 0, 64, 93
1, 132617, Control_c, 0, 67, 108
1, 132630, Note_off_c, 0, 56, 61
1, 132631, Control_c, 0, 64, 127
1, 132638, Note_off_c, 0, 37, 60
1, 132644, Note_off_c, 0, 61, 61
1, 132844, Note_on_c, 0, 53, 45
1, 132853, Note_on_c, 0, 73, 60
1, 132857, Note_on_c, 0, 56, 49
1, 132859, Note_on_c, 0, 44, 47
1, 132867, Note_on_c, 0, 65, 41
1, 132873, Note_on_c, 0, 68, 47
1, 132877, Note_on_c, 0, 61, 43
1, 132989, Poly_aftertouch_c, 0, 70, 127
1, 133023, Note_off_c, 0, 61, 34
1, 133026, Note_off_c, 0, 56, 35
1, 133028, Note_off_c, 0, 53, 57
1, 133066, Note_off_c, 0, 44, 53
1, 133077, Control_c, 0, 67, 106
1, 133085, Note_off_c, 0, 65, 42
1, 133137, Control_c, 0, 67, 104
1, 133181, Control_c, 0, 67, 102
1, 133208, Note_off_c, 0, 73, 50
1, 133274, Poly_aftertouch_c, 0, 70, 0
1, 133381, Note_off_c, 0, 68, 0
1, 133402, Note_on_c, 0, 68, 25
1, 133404, Note_on_c, 0, 72, 62
1, 133411, Note_on_c, 0, 54, 49
1, 133411, Note_on_c, 0, 51, 51
1, 133417, Note_on_c, 0, 44, 47
1, 133423, Note_on_c, 0, 60, 47
1, 133426, Control_c, 0, 64, 90
1, 133434, Note_on_c, 0, 65, 43
1, 133441, Control_c, 0, 64, 76
1, 133455, Control_c, 0, 64, 72
1, 133470, Control_c, 0, 64, 74
1, 133485, Control_c, 0, 64, 80
1, 133500, Control_c, 0, 64, 89
1, 133515, Control_c, 0, 64, 106
1, 133529, Control_c, 0, 64, 127
1, 133558, Note_off_c, 0, 60, 61
1, 133561, Note_off_c, 0, 72, 60
1, 133572, Note_off_c, 0, 51, 60
1, 133572, Note_off_c, 0, 54, 56
1, 133606, Note_off_c, 0, 65, 52
1, 133635, Note_off_c, 0, 44, 35
1, 133671, Note_off_c, 0, 68, 41
1, 133693, Control_c, 0, 67, 100
1, 133723, Control_c, 0, 67, 98
1, 133931, Note_on_c, 0, 71, 68
1, 133933, Note_on_c, 0, 44, 39
1, 133935, Note_on_c, 0, 59, 56
1, 133938, Note_on_c, 0, 53, 55
1, 133948, Note_on_c, 0, 50, 49
1, 133948, Note_on_c, 0, 65, 60
1, 133954, Note_on_c, 0, 68, 50
1, 133967, Note_off_c, 0, 59, 66
1, 133975, Note_off_c, 0, 44, 62
1, 133978, Note_off_c, 0, 65, 65
1, 133980, Note_off_c, 0, 68, 64
1, 133981, Note_off_c, 0, 50, 63
1, 133988, Note_off_c, 0, 71, 63
1, 133999, Note_off_c, 0, 53, 62
1, 134056, Control_c, 0, 67, 95
1, 134070, Control_c, 0, 67, 92
1, 134085, Control_c, 0, 67, 86
1, 134100, Control_c, 0, 67, 83
1, 134168, Note_on_c, 0, 48, 58
1, 134177, Note_on_c, 0, 53, 53
1, 134189, Note_on_c, 0, 57, 75
1, 134189, Control_c, 0, 64, 105
1, 134203, Note_on_c, 0, 60, 83
1, 134204, Control_c, 0, 64, 60
1, 134219, Control_c, 0, 64, 0
1, 134245, Note_on_c, 0, 84, 92
1, 134248, Note_on_c, 0, 72, 83
1, 134251, Note_on_c, 0, 81, 80
1, 134258, Note_on_c, 0, 77, 72
1, 134278, Control_c, 0, 64, 53
1, 134279, Note_off_c, 0, 72, 66
1, 134285, Note_off_c, 0, 77, 63
1, 134293, Control_c, 0, 64, 69
1, 134293, Control_c, 0, 67, 84
1, 134295, Note_off_c, 0, 84, 64
1, 134299, Note_off_c, 0, 81, 65
1, 134299, Note_off_c, 0, 60, 65
1, 134304, Note_off_c, 0, 57, 64
1, 134308, Control_c, 0, 64, 91
1, 134308, Control_c, 0, 67, 88
1, 134322, Control_c, 0, 64, 127
1, 134322, Control_c, 0, 67, 91
1, 134327, Note_off_c, 0, 53, 62
1, 134337, Control_c, 0, 67, 93
1, 134341, Note_off_c, 0, 48, 63
1, 134352, Control_c, 0, 67, 94
1, 134531, Control_c, 0, 67, 93
1, 134534, Note_on_c, 0, 65, 66
1, 134535, Note_on_c, 0, 48, 47
1, 134536, Note_on_c, 0, 41, 59
1, 134539, Note_on_c, 0, 53, 60
1, 134545, Control_c, 0, 67, 92
1, 134552, Note_on_c, 0, 60, 53
1, 134554, Note_on_c, 0, 57, 56
1, 134575, Control_c, 0, 67, 91
1, 134693, Control_c, 0, 67, 91
1, 134725, Note_off_c, 0, 48, 59
1, 134729, Note_off_c, 0, 41, 56
1, 134736, Note_off_c, 0, 53, 55
1, 134743, Note_off_c, 0, 57, 61
1, 134757, Note_off_c, 0, 60, 60
1, 134789, Control_c, 0, 67, 91
1, 134818, Control_c, 0, 67, 92
1, 134907, Control_c, 0, 67, 92
1, 134922, Control_c, 0, 67, 93
1, 135041, Control_c, 0, 67, 93
1, 135056, Control_c, 0, 67, 94
1, 135130, Control_c, 0, 67, 95
1, 135144, Control_c, 0, 67, 95
1, 135159, Control_c, 0, 67, 96
1, 135163, Note_off_c, 0, 65, 62
1, 135174, Note_on_c, 0, 52, 44
1, 135175, Note_on_c, 0, 48, 44
1, 135177, Note_on_c, 0, 40, 39
1, 135184, Note_on_c, 0, 64, 55
1, 135189, Control_c, 0, 64, 101
1, 135193, Note_on_c, 0, 60, 43
1, 135196, Note_on_c, 0, 56, 48
1, 135204, Control_c, 0, 64, 76
1, 135218, Control_c, 0, 64, 64
1, 135218, Control_c, 0, 67, 99
1, 135233, Control_c, 0, 64, 57
1, 135248, Control_c, 0, 64, 57
1, 135264, Control_c, 0, 64, 61
1, 135264, Control_c, 0, 67, 101
1, 135279, Control_c, 0, 64, 66
1, 135289, Note_off_c, 0, 56, 0
1, 135289, Note_on_c, 0, 56, 3
1, 135294, Control_c, 0, 64, 72
1, 135309, Control_c, 0, 64, 78
1, 135323, Control_c, 0, 64, 82
1, 135323, Control_c, 0, 67, 103
1, 135338, Control_c, 0, 64, 85
1, 135353, Control_c, 0, 64, 90
1, 135353, Control_c, 0, 67, 105
1, 135367, Control_c, 0, 64, 98
1, 135382, Control_c, 0, 64, 108
1, 135397, Control_c, 0, 64, 127
1, 135432, Note_off_c, 0, 40, 51
1, 135447, Note_off_c, 0, 56, 39
1, 135453, Note_off_c, 0, 52, 37
1, 135456, Note_off_c, 0, 60, 32
1, 135456, Control_c, 0, 67, 107
1, 135486, Control_c, 0, 67, 109
1, 135501, Control_c, 0, 67, 112
1, 135538, Control_c, 0, 67, 114
1, 135546, Note_off_c, 0, 48, 30
1, 135627, Control_c, 0, 67, 116
1, 135656, Control_c, 0, 67, 119
1, 135701, Control_c, 0, 67, 122
1, 135730, Control_c, 0, 67, 124
1, 135870, Note_on_c, 0, 48, 36
1, 135874, Note_off_c, 0, 64, 56
1, 135878, Note_on_c, 0, 63, 51
1, 135880, Note_on_c, 0, 51, 42
1, 135887, Note_on_c, 0, 39, 42
1, 135893, Control_c, 0, 64, 92
1, 135894, Note_on_c, 0, 60, 36
1, 135895, Note_on_c, 0, 57, 39
1, 135908, Control_c, 0, 64, 76
1, 135923, Control_c, 0, 64, 65
1, 135938, Control_c, 0, 64, 54
1, 135953, Control_c, 0, 64, 50
1, 135967, Control_c, 0, 64, 57
1, 135982, Control_c, 0, 64, 65
1, 135997, Control_c, 0, 64, 74
1, 136009, Note_off_c, 0, 51, 60
1, 136012, Control_c, 0, 64, 86
1, 136027, Control_c, 0, 64, 96
1, 136034, Note_off_c, 0, 63, 62
1, 136037, Note_off_c, 0, 57, 42
1, 136041, Control_c, 0, 64, 105
1, 136042, Note_off_c, 0, 48, 36
1, 136056, Control_c, 0, 64, 115
1, 136062, Note_off_c, 0, 60, 44
1, 136072, Note_off_c, 0, 39, 60
1, 136072, Control_c, 0, 64, 127
1, 136362, Note_on_c, 0, 37, 57
1, 136365, Note_on_c, 0, 25, 52
1, 136436, Control_c, 0, 64, 92
1, 136451, Control_c, 0, 64, 71
1, 136465, Control_c, 0, 64, 60
1, 136480, Control_c, 0, 64, 53
1, 136495, Control_c, 0, 64, 56
1, 136509, Control_c, 0, 64, 62
1, 136524, Control_c, 0, 64, 68
1, 136539, Control_c, 0, 64, 77
1, 136551, Note_on_c, 0, 61, 62
1, 136554, Control_c, 0, 64, 83
1, 136569, Control_c, 0, 64, 84
1, 136570, Note_on_c, 0, 53, 46
1, 136581, Note_on_c, 0, 56, 58
1, 136583, Control_c, 0, 64, 85
1, 136594, Note_off_c, 0, 25, 54
1, 136598, Control_c, 0, 64, 85
1, 136613, Control_c, 0, 64, 88
1, 136628, Control_c, 0, 64, 91
1, 136643, Control_c, 0, 64, 95
1, 136657, Control_c, 0, 64, 99
1, 136672, Control_c, 0, 64, 102
1, 136687, Control_c, 0, 64, 108
1, 136693, Note_off_c, 0, 53, 51
1, 136699, Note_off_c, 0, 56, 56
1, 136702, Control_c, 0, 64, 122
1, 136717, Control_c, 0, 64, 127
1, 136723, Note_off_c, 0, 61, 58
1, 136866, Control_c, 0, 64, 115
1, 136881, Control_c, 0, 64, 103
1, 136887, Note_on_c, 0, 60, 68
1, 136893, Note_on_c, 0, 56, 51
1, 136895, Note_on_c, 0, 52, 55
1, 136934, Note_off_c, 0, 52, 61
1, 136940, Control_c, 0, 64, 105
1, 136955, Control_c, 0, 64, 108
1, 136970, Control_c, 0, 64, 113
1, 136985, Control_c, 0, 64, 127
1, 137015, Note_on_c, 0, 48, 68
1, 137066, Control_c, 0, 64, 100
1, 137081, Control_c, 0, 64, 86
1, 137095, Note_off_c, 0, 37, 57
1, 137095, Control_c, 0, 64, 78
1, 137110, Control_c, 0, 64, 77
1, 137118, Note_off_c, 0, 60, 64
1, 137125, Control_c, 0, 64, 78
1, 137131, Note_on_c, 0, 49, 59
1, 137136, Note_on_c, 0, 53, 60
1, 137140, Control_c, 0, 64, 80
1, 137140, Control_c, 0, 67, 126
1, 137155, Control_c, 0, 64, 81
1, 137170, Control_c, 0, 64, 83
1, 137174, Note_off_c, 0, 49, 64
1, 137185, Control_c, 0, 64, 86
1, 137197, Note_off_c, 0, 56, 24
1, 137200, Control_c, 0, 64, 90
1, 137214, Control_c, 0, 64, 93
1, 137217, Note_off_c, 0, 53, 42
1, 137229, Control_c, 0, 64, 94
1, 137237, Note_on_c, 0, 37, 76
1, 137288, Control_c, 0, 64, 87
1, 137303, Control_c, 0, 64, 71
1, 137318, Control_c, 0, 64, 51
1, 137333, Control_c, 0, 64, 0
1, 137336, Note_on_c, 0, 61, 75
1, 137344, Note_on_c, 0, 53, 69
1, 137351, Note_on_c, 0, 56, 52
1, 137377, Control_c, 0, 64, 55
1, 137392, Control_c, 0, 64, 67
1, 137405, Note_off_c, 0, 53, 53
1, 137407, Control_c, 0, 64, 74
1, 137421, Control_c, 0, 64, 76
1, 137436, Control_c, 0, 64, 77
1, 137451, Control_c, 0, 64, 78
1, 137465, Control_c, 0, 64, 80
1, 137467, Note_off_c, 0, 61, 60
1, 137480, Control_c, 0, 64, 80
1, 137495, Note_off_c, 0, 56, 52
1, 137495, Note_off_c, 0, 48, 55
1, 137589, Note_on_c, 0, 60, 72
1, 137590, Note_on_c, 0, 56, 58
1, 137594, Note_on_c, 0, 52, 63
1, 137629, Note_off_c, 0, 52, 64
1, 137703, Control_c, 0, 64, 81
1, 137703, Note_on_c, 0, 48, 71
1, 137717, Control_c, 0, 64, 82
1, 137732, Control_c, 0, 64, 82
1, 137747, Control_c, 0, 64, 83
1, 137757, Note_off_c, 0, 37, 60
1, 137761, Control_c, 0, 64, 83
1, 137776, Control_c, 0, 64, 84
1, 137799, Control_c, 0, 64, 85
1, 137803, Note_on_c, 0, 53, 55
1, 137806, Note_on_c, 0, 49, 51
1, 137814, Control_c, 0, 64, 86
1, 137828, Control_c, 0, 64, 87
1, 137843, Control_c, 0, 64, 87
1, 137853, Note_off_c, 0, 60, 28
1, 137854, Note_off_c, 0, 49, 63
1, 137858, Control_c, 0, 64, 88
1, 137873, Control_c, 0, 64, 89
1, 137885, Note_off_c, 0, 53, 53
1, 137887, Control_c, 0, 64, 91
1, 137902, Control_c, 0, 64, 91
1, 137903, Note_on_c, 0, 37, 74
1, 137906, Note_off_c, 0, 56, 25
1, 137932, Control_c, 0, 64, 80
1, 137947, Control_c, 0, 64, 63
1, 137961, Control_c, 0, 64, 0
1, 137988, Note_on_c, 0, 60, 69
1, 137995, Note_on_c, 0, 53, 66
1, 137995, Note_on_c, 0, 56, 56
1, 138006, Control_c, 0, 64, 40
1, 138021, Control_c, 0, 64, 60
1, 138035, Control_c, 0, 64, 69
1, 138043, Note_off_c, 0, 53, 56
1, 138050, Control_c, 0, 64, 72
1, 138080, Control_c, 0, 64, 72
1, 138085, Note_off_c, 0, 60, 63
1, 138094, Control_c, 0, 64, 73
1, 138109, Control_c, 0, 64, 73
1, 138119, Note_off_c, 0, 56, 56
1, 138124, Control_c, 0, 64, 74
1, 138158, Note_off_c, 0, 48, 57
1, 138168, Control_c, 0, 64, 74
1, 138183, Control_c, 0, 64, 75
1, 138198, Control_c, 0, 64, 76
1, 138210, Note_on_c, 0, 59, 68
1, 138213, Control_c, 0, 64, 77
1, 138216, Note_on_c, 0, 56, 53
1, 138219, Note_on_c, 0, 52, 62
1, 138228, Control_c, 0, 64, 80
1, 138243, Control_c, 0, 64, 86
1, 138250, Note_off_c, 0, 52, 66
1, 138258, Control_c, 0, 64, 95
1, 138273, Control_c, 0, 64, 108
1, 138287, Control_c, 0, 64, 124
1, 138302, Control_c, 0, 64, 115
1, 138311, Note_on_c, 0, 47, 75
1, 138317, Control_c, 0, 64, 87
1, 138332, Control_c, 0, 64, 65
1, 138335, Note_off_c, 0, 59, 51
1, 138347, Control_c, 0, 64, 53
1, 138362, Control_c, 0, 64, 55
1, 138374, Note_off_c, 0, 37, 58
1, 138377, Control_c, 0, 64, 63
1, 138391, Note_on_c, 0, 53, 55
1, 138392, Control_c, 0, 64, 73
1, 138397, Note_on_c, 0, 49, 60
1, 138407, Control_c, 0, 64, 87
1, 138422, Control_c, 0, 64, 101
1, 138448, Note_off_c, 0, 49, 59
1, 138451, Control_c, 0, 64, 103
1, 138466, Control_c, 0, 64, 106
1, 138481, Note_off_c, 0, 53, 50
1, 138481, Control_c, 0, 64, 112
1, 138496, Control_c, 0, 64, 119
1, 138499, Note_off_c, 0, 56, 39
1, 138511, Note_on_c, 0, 37, 74
1, 138526, Control_c, 0, 64, 109
1, 138548, Control_c, 0, 64, 81
1, 138563, Control_c, 0, 64, 61
1, 138578, Control_c, 0, 64, 0
1, 138593, Note_on_c, 0, 60, 68
1, 138601, Note_on_c, 0, 53, 65
1, 138602, Note_on_c, 0, 56, 56
1, 138622, Control_c, 0, 64, 47
1, 138637, Control_c, 0, 64, 65
1, 138652, Control_c, 0, 64, 72
1, 138662, Note_off_c, 0, 53, 58
1, 138666, Control_c, 0, 64, 75
1, 138674, Note_off_c, 0, 47, 55
1, 138691, Note_off_c, 0, 60, 61
1, 138696, Control_c, 0, 64, 75
1, 138705, Note_off_c, 0, 56, 58
1, 138770, Control_c, 0, 64, 77
1, 138785, Control_c, 0, 64, 79
1, 138800, Control_c, 0, 64, 82
1, 138815, Control_c, 0, 64, 84
1, 138817, Note_on_c, 0, 59, 66
1, 138823, Note_on_c, 0, 52, 65
1, 138845, Control_c, 0, 64, 81
1, 138857, Note_on_c, 0, 55, 44
1, 138859, Control_c, 0, 64, 72
1, 138860, Note_off_c, 0, 52, 62
1, 138874, Control_c, 0, 64, 65
1, 138889, Control_c, 0, 64, 63
1, 138904, Control_c, 0, 64, 64
1, 138908, Note_on_c, 0, 47, 74
1, 138918, Control_c, 0, 64, 68
1, 138933, Control_c, 0, 64, 74
1, 138948, Control_c, 0, 64, 77
1, 138955, Note_off_c, 0, 37, 52
1, 138978, Control_c, 0, 64, 77
1, 138992, Control_c, 0, 64, 78
1, 138998, Note_on_c, 0, 49, 64
1, 139007, Control_c, 0, 64, 79
1, 139022, Control_c, 0, 64, 80
1, 139042, Note_off_c, 0, 49, 58
1, 139048, Note_on_c, 0, 53, 7
1, 139048, Note_off_c, 0, 55, 30
1, 139056, Note_on_c, 0, 52, 20
1, 139066, Control_c, 0, 64, 82
1, 139081, Control_c, 0, 64, 85
1, 139092, Note_off_c, 0, 52, 42
1, 139094, Note_off_c, 0, 53, 43
1, 139096, Control_c, 0, 64, 90
1, 139099, Note_off_c, 0, 59, 59
1, 139101, Note_on_c, 0, 37, 76
1, 139110, Control_c, 0, 64, 94
1, 139125, Control_c, 0, 64, 91
1, 139140, Control_c, 0, 64, 72
1, 139155, Control_c, 0, 64, 48
1, 139170, Control_c, 0, 64, 0
1, 139188, Note_on_c, 0, 53, 69
1, 139192, Note_on_c, 0, 58, 75
1, 139198, Note_on_c, 0, 56, 63
1, 139215, Control_c, 0, 64, 42
1, 139224, Note_off_c, 0, 47, 57
1, 139229, Control_c, 0, 64, 64
1, 139244, Note_off_c, 0, 53, 58
1, 139244, Control_c, 0, 64, 72
1, 139260, Control_c, 0, 64, 75
1, 139282, Control_c, 0, 64, 76
1, 139297, Control_c, 0, 64, 76
1, 139312, Control_c, 0, 64, 77
1, 139318, Note_off_c, 0, 58, 64
1, 139343, Note_off_c, 0, 56, 36
1, 139386, Control_c, 0, 64, 78
1, 139401, Control_c, 0, 64, 79
1, 139415, Control_c, 0, 64, 79
1, 139430, Control_c, 0, 64, 80
1, 139435, Note_on_c, 0, 57, 64
1, 139443, Note_on_c, 0, 52, 47
1, 139445, Control_c, 0, 64, 80
1, 139460, Control_c, 0, 64, 83
1, 139468, Note_on_c, 0, 55, 31
1, 139471, Note_off_c, 0, 52, 56
1, 139475, Control_c, 0, 64, 88
1, 139489, Control_c, 0, 64, 94
1, 139498, Note_on_c, 0, 46, 75
1, 139504, Note_off_c, 0, 55, 47
1, 139504, Control_c, 0, 64, 95
1, 139513, Note_off_c, 0, 57, 60
1, 139519, Control_c, 0, 64, 82
1, 139534, Control_c, 0, 64, 61
1, 139548, Control_c, 0, 64, 0
1, 139578, Control_c, 0, 64, 48
1, 139581, Note_off_c, 0, 37, 60
1, 139593, Control_c, 0, 64, 67
1, 139608, Control_c, 0, 64, 84
1, 139623, Control_c, 0, 64, 106
1, 139638, Control_c, 0, 64, 108
1, 139668, Note_on_c, 0, 58, 34
1, 139680, Note_on_c, 0, 53, 46
1, 139697, Control_c, 0, 64, 111
1, 139721, Note_off_c, 0, 53, 62
1, 139728, Note_on_c, 0, 37, 73
1, 139750, Note_off_c, 0, 58, 35
1, 139756, Control_c, 0, 64, 100
1, 139771, Control_c, 0, 64, 81
1, 139786, Control_c, 0, 64, 66
1, 139801, Control_c, 0, 64, 53
1, 139815, Control_c, 0, 64, 48
1, 139826, Note_on_c, 0, 59, 75
1, 139830, Control_c, 0, 64, 58
1, 139833, Note_on_c, 0, 52, 68
1, 139835, Note_on_c, 0, 56, 66
1, 139845, Control_c, 0, 64, 67
1, 139859, Control_c, 0, 64, 74
1, 139874, Control_c, 0, 64, 76
1, 139878, Note_off_c, 0, 52, 57
1, 139904, Control_c, 0, 64, 77
1, 139919, Control_c, 0, 64, 77
1, 139947, Note_off_c, 0, 46, 33
1, 139948, Control_c, 0, 64, 78
1, 139978, Control_c, 0, 64, 80
1, 139993, Control_c, 0, 64, 86
1, 139994, Note_off_c, 0, 59, 0
1, 140005, Note_off_c, 0, 56, 0
1, 140008, Control_c, 0, 64, 96
1, 140022, Note_on_c, 0, 58, 72
1, 140022, Control_c, 0, 64, 105
1, 140036, Note_on_c, 0, 56, 14
1, 140045, Control_c, 0, 64, 98
1, 140049, Poly_aftertouch_c, 0, 59, 0
1, 140061, Control_c, 0, 64, 79
1, 140076, Control_c, 0, 64, 64
1, 140078, Note_on_c, 0, 51, 31
1, 140081, Poly_aftertouch_c, 0, 59, 0
1, 140085, Note_off_c, 0, 56, 37
1, 140090, Control_c, 0, 64, 54
1, 140105, Control_c, 0, 64, 58
1, 140117, Note_off_c, 0, 51, 52
1, 140120, Control_c, 0, 64, 65
1, 140135, Control_c, 0, 64, 79
1, 140137, Note_on_c, 0, 46, 75
1, 140150, Control_c, 0, 64, 95
1, 140154, Note_off_c, 0, 37, 58
1, 140164, Control_c, 0, 64, 100
1, 140219, Note_off_c, 0, 58, 59
1, 140224, Control_c, 0, 64, 102
1, 140282, Control_c, 0, 64, 109
1, 140297, Control_c, 0, 64, 127
1, 140327, Control_c, 0, 64, 89
1, 140336, Note_on_c, 0, 37, 77
1, 140342, Control_c, 0, 64, 63
1, 140356, Control_c, 0, 64, 0
1, 140401, Control_c, 0, 64, 45
1, 140416, Control_c, 0, 64, 64
1, 140425, Note_on_c, 0, 58, 71
1, 140428, Note_on_c, 0, 56, 61
1, 140431, Control_c, 0, 64, 76
1, 140435, Note_on_c, 0, 53, 67
1, 140436, Note_off_c, 0, 46, 41
1, 140446, Control_c, 0, 64, 79
1, 140470, Note_off_c, 0, 53, 63
1, 140535, Note_off_c, 0, 58, 62
1, 140546, Note_off_c, 0, 56, 37
1, 140579, Control_c, 0, 64, 80
1, 140594, Control_c, 0, 64, 82
1, 140609, Control_c, 0, 64, 83
1, 140624, Control_c, 0, 64, 85
1, 140638, Control_c, 0, 64, 90
1, 140653, Control_c, 0, 64, 97
1, 140659, Note_on_c, 0, 57, 68
1, 140667, Note_on_c, 0, 52, 45
1, 140668, Control_c, 0, 64, 101
1, 140675, Note_on_c, 0, 55, 44
1, 140682, Control_c, 0, 64, 97
1, 140695, Note_off_c, 0, 52, 55
1, 140697, Control_c, 0, 64, 78
1, 140712, Control_c, 0, 64, 61
1, 140727, Control_c, 0, 64, 0
1, 140751, Note_on_c, 0, 45, 67
1, 140756, Control_c, 0, 64, 48
1, 140771, Control_c, 0, 64, 64
1, 140794, Control_c, 0, 64, 73
1, 140808, Control_c, 0, 64, 77
1, 140823, Control_c, 0, 64, 78
1, 140830, Note_off_c, 0, 37, 57
1, 140838, Control_c, 0, 64, 79
1, 140853, Control_c, 0, 64, 81
1, 140861, Note_off_c, 0, 55, 54
1, 140863, Note_on_c, 0, 53, 62
1, 140867, Note_on_c, 0, 49, 58
1, 140869, Control_c, 0, 64, 83
1, 140884, Control_c, 0, 64, 85
1, 140899, Control_c, 0, 64, 85
1, 140904, Note_off_c, 0, 49, 61
1, 140913, Note_off_c, 0, 57, 36
1, 140913, Control_c, 0, 64, 88
1, 140917, Note_off_c, 0, 53, 60
1, 140928, Control_c, 0, 64, 95
1, 140943, Control_c, 0, 64, 104
1, 140953, Note_on_c, 0, 37, 75
1, 140973, Control_c, 0, 64, 84
1, 140987, Control_c, 0, 64, 61
1, 141002, Control_c, 0, 64, 0
1, 141042, Note_on_c, 0, 58, 69
1, 141045, Note_on_c, 0, 56, 66
1, 141047, Control_c, 0, 64, 36
1, 141048, Note_on_c, 0, 53, 62
1, 141061, Control_c, 0, 64, 59
1, 141076, Control_c, 0, 64, 69
1, 141091, Control_c, 0, 64, 74
1, 141105, Control_c, 0, 64, 77
1, 141120, Control_c, 0, 64, 81
1, 141135, Control_c, 0, 64, 85
1, 141150, Control_c, 0, 64, 89
1, 141156, Note_off_c, 0, 53, 55
1, 141165, Control_c, 0, 64, 90
1, 141171, Poly_aftertouch_c, 0, 44, 127
1, 141179, Control_c, 0, 64, 91
1, 141180, Note_off_c, 0, 56, 59
1, 141194, Note_off_c, 0, 58, 57
1, 141194, Control_c, 0, 64, 96
1, 141209, Note_off_c, 0, 45, 36
1, 141209, Control_c, 0, 64, 105
1, 141224, Control_c, 0, 64, 127
1, 141224, Control_c, 0, 67, 123
1, 141283, Control_c, 0, 67, 120
1, 141284, Poly_aftertouch_c, 0, 44, 0
1, 141298, Control_c, 0, 67, 118
1, 141313, Control_c, 0, 67, 113
1, 141328, Control_c, 0, 67, 105
1, 141334, Note_on_c, 0, 52, 68
1, 141335, Note_on_c, 0, 57, 70
1, 141343, Control_c, 0, 67, 99
1, 141346, Note_on_c, 0, 55, 60
1, 141358, Control_c, 0, 67, 96
1, 141373, Control_c, 0, 67, 95
1, 141387, Control_c, 0, 67, 95
1, 141458, Note_off_c, 0, 52, 55
1, 141461, Control_c, 0, 67, 94
1, 141476, Control_c, 0, 64, 109
1, 141490, Note_on_c, 0, 45, 79
1, 141491, Control_c, 0, 64, 66
1, 141491, Control_c, 0, 67, 93
1, 141505, Control_c, 0, 64, 0
1, 141558, Control_c, 0, 64, 54
1, 141572, Control_c, 0, 64, 71
1, 141587, Control_c, 0, 64, 85
1, 141587, Control_c, 0, 67, 94
1, 141602, Control_c, 0, 64, 98
1, 141602, Control_c, 0, 67, 94
1, 141617, Control_c, 0, 64, 101
1, 141631, Control_c, 0, 64, 115
1, 141635, Note_on_c, 0, 53, 69
1, 141639, Note_off_c, 0, 37, 61
1, 141640, Note_on_c, 0, 49, 66
1, 141644, Note_off_c, 0, 45, 63
1, 141646, Control_c, 0, 64, 127
1, 141683, Note_off_c, 0, 49, 57
1, 141692, Control_c, 0, 67, 94
1, 141694, Note_off_c, 0, 53, 61
1, 141702, Note_off_c, 0, 55, 60
1, 141707, Control_c, 0, 67, 92
1, 141707, Note_off_c, 0, 57, 62
1, 141722, Control_c, 0, 67, 91
1, 141736, Control_c, 0, 67, 85
1, 141751, Control_c, 0, 67, 64
1, 141766, Control_c, 0, 67, 38
1, 141781, Control_c, 0, 67, 0
1, 141885, Note_on_c, 0, 69, 85
1, 142133, Note_on_c, 0, 68, 93
1, 142172, Note_off_c, 0, 69, 60
1, 142194, Note_off_c, 0, 68, 66
1, 142324, Note_on_c, 0, 67, 93
1, 142400, Note_on_c, 0, 50, 83
1, 142466, Note_on_c, 0, 57, 66
1, 142500, Control_c, 0, 64, 92
1, 142514, Control_c, 0, 64, 58
1, 142529, Control_c, 0, 64, 0
1, 142601, Note_on_c, 0, 65, 90
1, 142620, Note_off_c, 0, 67, 61
1, 142677, Control_c, 0, 64, 38
1, 142692, Control_c, 0, 64, 46
1, 142707, Control_c, 0, 64, 55
1, 142722, Control_c, 0, 64, 64
1, 142737, Control_c, 0, 64, 70
1, 142751, Control_c, 0, 64, 77
1, 142766, Control_c, 0, 64, 87
1, 142781, Control_c, 0, 64, 103
1, 142796, Control_c, 0, 64, 127
1, 142887, Note_on_c, 0, 81, 80
1, 142909, Note_off_c, 0, 50, 54
1, 142916, Note_off_c, 0, 57, 61
1, 143081, Note_off_c, 0, 81, 61
1, 143092, Note_on_c, 0, 80, 82
1, 143107, Note_on_c, 0, 64, 66
1, 143110, Note_on_c, 0, 62, 74
1, 143139, Note_off_c, 0, 65, 60
1, 143227, Note_off_c, 0, 64, 61
1, 143231, Note_off_c, 0, 80, 62
1, 143233, Note_off_c, 0, 62, 61
1, 143245, Note_on_c, 0, 79, 86
1, 143246, Note_on_c, 0, 57, 80
1, 143275, Note_off_c, 0, 57, 66
1, 143342, Note_off_c, 0, 79, 59
1, 143370, Note_on_c, 0, 78, 79
1, 143372, Note_on_c, 0, 69, 78
1, 143379, Note_on_c, 0, 38, 75
1, 143423, Note_off_c, 0, 69, 63
1, 143424, Note_off_c, 0, 78, 63
1, 143482, Note_on_c, 0, 77, 74
1, 143489, Note_on_c, 0, 68, 85
1, 143495, Note_on_c, 0, 45, 71
1, 143543, Note_off_c, 0, 68, 58
1, 143564, Note_off_c, 0, 38, 59
1, 143586, Note_off_c, 0, 77, 52
1, 143597, Note_on_c, 0, 50, 81
1, 143597, Note_off_c, 0, 45, 62
1, 143602, Note_on_c, 0, 67, 83
1, 143625, Note_on_c, 0, 76, 52
1, 143626, Note_on_c, 0, 74, 60
1, 143646, Note_off_c, 0, 74, 61
1, 143647, Note_off_c, 0, 67, 63
1, 143648, Note_off_c, 0, 50, 63
1, 143649, Note_off_c, 0, 76, 56
1, 143711, Note_on_c, 0, 45, 74
1, 143725, Note_on_c, 0, 66, 65
1, 143747, Note_off_c, 0, 66, 64
1, 143864, Control_c, 0, 67, 20
1, 143869, Note_on_c, 0, 57, 84
1, 143871, Note_on_c, 0, 65, 79
1, 143879, Note_on_c, 0, 69, 71
1, 143879, Control_c, 0, 64, 109
1, 143894, Control_c, 0, 64, 82
1, 143908, Control_c, 0, 64, 81
1, 143923, Control_c, 0, 64, 92
1, 143923, Control_c, 0, 67, 22
1, 143938, Control_c, 0, 64, 127
1, 143957, Note_off_c, 0, 57, 62
1, 144012, Control_c, 0, 67, 24
1, 144079, Note_on_c, 0, 56, 93
1, 144087, Control_c, 0, 64, 108
1, 144087, Control_c, 0, 67, 26
1, 144102, Control_c, 0, 64, 67
1, 144106, Note_on_c, 0, 57, 66
1, 144117, Control_c, 0, 64, 0
1, 144117, Control_c, 0, 67, 28
1, 144131, Control_c, 0, 67, 30
1, 144146, Control_c, 0, 67, 32
1, 144220, Control_c, 0, 64, 47
1, 144235, Control_c, 0, 64, 59
1, 144249, Control_c, 0, 64, 64
1, 144264, Control_c, 0, 64, 65
1, 144279, Control_c, 0, 64, 66
1, 144291, Note_on_c, 0, 64, 67
1, 144294, Control_c, 0, 64, 66
1, 144309, Note_off_c, 0, 65, 51
1, 144324, Control_c, 0, 64, 67
1, 144339, Control_c, 0, 64, 69
1, 144354, Control_c, 0, 64, 71
1, 144369, Control_c, 0, 64, 73
1, 144383, Control_c, 0, 64, 74
1, 144392, Note_off_c, 0, 64, 58
1, 144398, Control_c, 0, 64, 75
1, 144413, Control_c, 0, 64, 75
1, 144428, Control_c, 0, 64, 77
1, 144443, Control_c, 0, 64, 80
1, 144457, Control_c, 0, 64, 84
1, 144472, Control_c, 0, 64, 88
1, 144487, Control_c, 0, 64, 91
1, 144502, Control_c, 0, 64, 92
1, 144538, Control_c, 0, 64, 83
1, 144553, Control_c, 0, 64, 68
1, 144568, Control_c, 0, 64, 55
1, 144580, Note_on_c, 0, 55, 76
1, 144583, Control_c, 0, 64, 48
1, 144598, Control_c, 0, 64, 60
1, 144601, Note_on_c, 0, 63, 71
1, 144613, Control_c, 0, 64, 78
1, 144613, Note_off_c, 0, 69, 59
1, 144622, Note_off_c, 0, 56, 60
1, 144622, Note_off_c, 0, 57, 57
1, 144628, Control_c, 0, 64, 127
1, 144670, Note_off_c, 0, 45, 63
1, 144671, Note_off_c, 0, 55, 62
1, 144699, Note_off_c, 0, 63, 62
1, 144731, Control_c, 0, 67, 30
1, 144908, Note_on_c, 0, 38, 81
1, 144925, Control_c, 0, 64, 108
1, 144940, Control_c, 0, 64, 68
1, 144954, Control_c, 0, 64, 38
1, 144969, Control_c, 0, 64, 0
1, 144984, Control_c, 0, 64, 34
1, 144998, Control_c, 0, 64, 59
1, 144998, Control_c, 0, 67, 32
1, 145013, Control_c, 0, 64, 73
1, 145028, Control_c, 0, 64, 81
1, 145043, Control_c, 0, 64, 83
1, 145082, Note_on_c, 0, 62, 75
1, 145089, Note_on_c, 0, 55, 64
1, 145104, Note_on_c, 0, 57, 60
1, 145132, Control_c, 0, 64, 84
1, 145139, Note_off_c, 0, 55, 56
1, 145146, Control_c, 0, 64, 85
1, 145161, Control_c, 0, 64, 87
1, 145176, Control_c, 0, 64, 92
1, 145191, Control_c, 0, 64, 96
1, 145192, Note_off_c, 0, 57, 58
1, 145205, Control_c, 0, 64, 101
1, 145220, Control_c, 0, 64, 106
1, 145235, Control_c, 0, 64, 119
1, 145250, Control_c, 0, 64, 127
1, 145355, Note_off_c, 0, 62, 60
1, 145365, Note_on_c, 0, 57, 60
1, 145369, Note_on_c, 0, 61, 74
1, 145370, Note_on_c, 0, 54, 67
1, 145422, Note_off_c, 0, 57, 61
1, 145473, Note_on_c, 0, 49, 72
1, 145485, Note_off_c, 0, 54, 48
1, 145543, Note_off_c, 0, 38, 58
1, 145560, Note_on_c, 0, 56, 72
1, 145570, Note_on_c, 0, 53, 65
1, 145643, Note_off_c, 0, 53, 56
1, 145650, Note_off_c, 0, 61, 51
1, 145659, Note_on_c, 0, 38, 81
1, 145665, Note_off_c, 0, 56, 52
1, 145702, Control_c, 0, 64, 66
1, 145717, Control_c, 0, 64, 0
1, 145728, Note_off_c, 0, 49, 47
1, 145755, Note_on_c, 0, 62, 77
1, 145762, Control_c, 0, 64, 46
1, 145764, Note_on_c, 0, 55, 61
1, 145765, Note_on_c, 0, 57, 65
1, 145776, Control_c, 0, 64, 63
1, 145791, Control_c, 0, 64, 71
1, 145795, Note_off_c, 0, 55, 66
1, 145806, Control_c, 0, 64, 74
1, 145813, Note_off_c, 0, 57, 57
1, 145836, Control_c, 0, 64, 75
1, 145851, Control_c, 0, 64, 76
1, 145866, Control_c, 0, 64, 78
1, 145881, Control_c, 0, 64, 79
1, 145895, Control_c, 0, 64, 80
1, 145910, Control_c, 0, 64, 81
1, 145925, Control_c, 0, 64, 84
1, 145940, Control_c, 0, 64, 89
1, 145955, Control_c, 0, 64, 96
1, 145969, Control_c, 0, 64, 104
1, 145984, Control_c, 0, 64, 113
1, 145991, Note_on_c, 0, 54, 62
1, 145993, Note_on_c, 0, 57, 63
1, 145994, Note_on_c, 0, 61, 72
1, 145999, Control_c, 0, 64, 127
1, 146024, Note_off_c, 0, 62, 56
1, 146053, Note_off_c, 0, 54, 44
1, 146054, Note_off_c, 0, 57, 53
1, 146096, Note_on_c, 0, 49, 76
1, 146148, Note_off_c, 0, 38, 60
1, 146169, Note_on_c, 0, 53, 59
1, 146173, Note_on_c, 0, 56, 68
1, 146211, Note_off_c, 0, 53, 62
1, 146226, Note_off_c, 0, 56, 52
1, 146244, Control_c, 0, 67, 33
1, 146245, Note_off_c, 0, 61, 55
1, 146253, Note_off_c, 0, 49, 59
1, 146258, Control_c, 0, 67, 33
1, 146264, Note_on_c, 0, 38, 80
1, 146273, Control_c, 0, 67, 34
1, 146288, Control_c, 0, 64, 98
1, 146303, Control_c, 0, 64, 59
1, 146318, Control_c, 0, 64, 0
1, 146347, Control_c, 0, 67, 34
1, 146360, Note_on_c, 0, 54, 67
1, 146362, Note_on_c, 0, 61, 73
1, 146362, Control_c, 0, 64, 42
1, 146372, Note_on_c, 0, 57, 51
1, 146377, Control_c, 0, 64, 61
1, 146377, Control_c, 0, 67, 36
1, 146392, Control_c, 0, 64, 70
1, 146392, Control_c, 0, 67, 38
1, 146407, Control_c, 0, 64, 77
1, 146407, Control_c, 0, 67, 39
1, 146421, Control_c, 0, 64, 80
1, 146421, Control_c, 0, 67, 40
1, 146430, Note_off_c, 0, 54, 52
1, 146435, Note_off_c, 0, 57, 54
1, 146436, Control_c, 0, 64, 81
1, 146436, Control_c, 0, 67, 41
1, 146480, Note_off_c, 0, 61, 60
1, 146482, Control_c, 0, 67, 40
1, 146497, Control_c, 0, 64, 81
1, 146512, Control_c, 0, 67, 40
1, 146526, Control_c, 0, 64, 82
1, 146570, Control_c, 0, 64, 82
1, 146583, Note_on_c, 0, 60, 67
1, 146585, Control_c, 0, 64, 83
1, 146594, Note_on_c, 0, 53, 48
1, 146598, Note_on_c, 0, 56, 54
1, 146600, Control_c, 0, 64, 85
1, 146615, Control_c, 0, 64, 88
1, 146615, Control_c, 0, 67, 39
1, 146630, Control_c, 0, 64, 92
1, 146637, Note_off_c, 0, 53, 60
1, 146644, Control_c, 0, 64, 100
1, 146659, Control_c, 0, 64, 113
1, 146674, Control_c, 0, 64, 127
1, 146681, Note_on_c, 0, 48, 61
1, 146694, Note_off_c, 0, 38, 59
1, 146748, Control_c, 0, 64, 115
1, 146770, Control_c, 0, 64, 70
1, 146772, Note_on_c, 0, 55, 64
1, 146774, Note_on_c, 0, 52, 58
1, 146777, Note_off_c, 0, 60, 63
1, 146785, Control_c, 0, 64, 42
1, 146800, Control_c, 0, 64, 0
1, 146805, Note_off_c, 0, 56, 30
1, 146815, Control_c, 0, 64, 44
1, 146816, Note_off_c, 0, 52, 61
1, 146830, Control_c, 0, 64, 63
1, 146844, Control_c, 0, 64, 76
1, 146844, Control_c, 0, 67, 40
1, 146856, Note_on_c, 0, 38, 68
1, 146859, Control_c, 0, 64, 87
1, 146859, Control_c, 0, 67, 40
1, 146861, Note_off_c, 0, 55, 59
1, 146874, Control_c, 0, 64, 89
1, 146874, Control_c, 0, 67, 41
1, 146889, Control_c, 0, 67, 41
1, 146940, Note_on_c, 0, 61, 64
1, 146942, Note_on_c, 0, 54, 60
1, 146948, Control_c, 0, 67, 41
1, 146950, Note_on_c, 0, 57, 52
1, 146974, Note_off_c, 0, 48, 38
1, 146992, Control_c, 0, 64, 90
1, 146993, Note_off_c, 0, 54, 57
1, 147007, Control_c, 0, 64, 92
1, 147022, Control_c, 0, 64, 93
1, 147026, Note_off_c, 0, 57, 60
1, 147037, Control_c, 0, 64, 94
1, 147049, Note_off_c, 0, 61, 60
1, 147066, Control_c, 0, 64, 95
1, 147081, Control_c, 0, 64, 97
1, 147096, Control_c, 0, 67, 40
1, 147141, Control_c, 0, 64, 93
1, 147153, Note_on_c, 0, 60, 64
1, 147156, Control_c, 0, 64, 91
1, 147156, Note_on_c, 0, 56, 58
1, 147162, Note_on_c, 0, 53, 54
1, 147170, Control_c, 0, 64, 92
1, 147185, Control_c, 0, 64, 93
1, 147199, Note_off_c, 0, 53, 61
1, 147200, Control_c, 0, 64, 95
1, 147215, Control_c, 0, 64, 96
1, 147253, Note_on_c, 0, 48, 62
1, 147257, Note_off_c, 0, 38, 56
1, 147260, Control_c, 0, 64, 100
1, 147275, Control_c, 0, 64, 103
1, 147308, Note_off_c, 0, 60, 55
1, 147331, Note_on_c, 0, 55, 57
1, 147344, Note_on_c, 0, 52, 47
1, 147378, Note_off_c, 0, 56, 22
1, 147379, Control_c, 0, 64, 91
1, 147391, Note_off_c, 0, 52, 59
1, 147393, Control_c, 0, 64, 64
1, 147408, Control_c, 0, 64, 0
1, 147410, Note_on_c, 0, 38, 59
1, 147418, Note_off_c, 0, 55, 61
1, 147453, Control_c, 0, 64, 39
1, 147467, Control_c, 0, 64, 62
1, 147482, Control_c, 0, 64, 73
1, 147497, Control_c, 0, 64, 80
1, 147526, Note_on_c, 0, 60, 69
1, 147536, Note_on_c, 0, 56, 54
1, 147539, Note_on_c, 0, 53, 57
1, 147578, Note_off_c, 0, 53, 61
1, 147600, Note_off_c, 0, 56, 46
1, 147605, Note_off_c, 0, 60, 59
1, 147674, Note_off_c, 0, 48, 29
1, 147712, Control_c, 0, 64, 80
1, 147727, Control_c, 0, 64, 81
1, 147730, Note_on_c, 0, 59, 65
1, 147738, Note_on_c, 0, 56, 58
1, 147741, Control_c, 0, 64, 81
1, 147749, Note_on_c, 0, 52, 42
1, 147756, Control_c, 0, 64, 82
1, 147771, Control_c, 0, 64, 84
1, 147781, Note_off_c, 0, 52, 50
1, 147786, Control_c, 0, 64, 88
1, 147800, Control_c, 0, 64, 103
1, 147815, Control_c, 0, 64, 127
1, 147828, Note_on_c, 0, 47, 76
1, 147830, Control_c, 0, 67, 41
1, 147870, Note_off_c, 0, 59, 54
1, 147874, Control_c, 0, 64, 75
1, 147889, Control_c, 0, 64, 55
1, 147902, Note_off_c, 0, 38, 53
1, 147904, Control_c, 0, 64, 42
1, 147919, Control_c, 0, 64, 54
1, 147922, Note_on_c, 0, 51, 62
1, 147929, Note_on_c, 0, 55, 60
1, 147934, Control_c, 0, 64, 66
1, 147945, Note_off_c, 0, 56, 32
1, 147949, Control_c, 0, 64, 78
1, 147962, Note_off_c, 0, 51, 62
1, 147964, Control_c, 0, 64, 88
1, 147978, Control_c, 0, 64, 91
1, 147987, Note_off_c, 0, 55, 60
1, 147993, Control_c, 0, 64, 93
1, 148008, Control_c, 0, 64, 99
1, 148023, Control_c, 0, 64, 106
1, 148034, Note_on_c, 0, 38, 70
1, 148038, Control_c, 0, 64, 112
1, 148038, Control_c, 0, 67, 40
1, 148053, Control_c, 0, 64, 108
1, 148068, Control_c, 0, 64, 82
1, 148083, Control_c, 0, 64, 60
1, 148098, Control_c, 0, 64, 0
1, 148115, Note_on_c, 0, 60, 74
1, 148119, Note_on_c, 0, 53, 62
1, 148127, Control_c, 0, 64, 36
1, 148132, Note_on_c, 0, 56, 61
1, 148142, Control_c, 0, 64, 63
1, 148157, Control_c, 0, 64, 78
1, 148168, Note_off_c, 0, 53, 53
1, 148172, Control_c, 0, 64, 92
1, 148187, Control_c, 0, 64, 95
1, 148216, Note_off_c, 0, 56, 57
1, 148216, Control_c, 0, 64, 95
1, 148220, Note_off_c, 0, 60, 61
1, 148231, Control_c, 0, 64, 96
1, 148231, Control_c, 0, 67, 40
1, 148246, Control_c, 0, 67, 39
1, 148280, Note_off_c, 0, 47, 53
1, 148312, Control_c, 0, 64, 101
1, 148327, Control_c, 0, 64, 110
1, 148327, Control_c, 0, 67, 39
1, 148342, Control_c, 0, 64, 127
1, 148342, Control_c, 0, 67, 38
1, 148351, Note_on_c, 0, 59, 75
1, 148354, Note_on_c, 0, 56, 70
1, 148357, Control_c, 0, 67, 38
1, 148357, Note_on_c, 0, 52, 70
1, 148372, Control_c, 0, 67, 37
1, 148402, Note_off_c, 0, 52, 59
1, 148417, Control_c, 0, 67, 37
1, 148431, Control_c, 0, 64, 106
1, 148431, Control_c, 0, 67, 35
1, 148446, Control_c, 0, 64, 86
1, 148458, Note_on_c, 0, 47, 82
1, 148461, Control_c, 0, 64, 83
1, 148476, Control_c, 0, 64, 84
1, 148491, Control_c, 0, 64, 88
1, 148505, Control_c, 0, 64, 96
1, 148520, Control_c, 0, 64, 101
1, 148520, Control_c, 0, 67, 35
1, 148535, Control_c, 0, 64, 104
1, 148535, Control_c, 0, 67, 34
1, 148537, Note_off_c, 0, 38, 61
1, 148549, Control_c, 0, 64, 106
1, 148549, Control_c, 0, 67, 33
1, 148557, Note_off_c, 0, 47, 64
1, 148564, Control_c, 0, 64, 108
1, 148579, Control_c, 0, 64, 127
1, 148582, Note_off_c, 0, 59, 58
1, 148584, Note_on_c, 0, 51, 78
1, 148585, Note_on_c, 0, 55, 77
1, 148593, Note_off_c, 0, 56, 0
1, 148623, Control_c, 0, 67, 33
1, 148629, Poly_aftertouch_c, 0, 56, 127
1, 148638, Control_c, 0, 67, 31
1, 148643, Note_off_c, 0, 51, 61
1, 148648, Note_off_c, 0, 55, 62
1, 148667, Poly_aftertouch_c, 0, 56, 0
1, 148727, Control_c, 0, 67, 28
1, 148756, Control_c, 0, 67, 23
1, 148771, Control_c, 0, 67, 21
1, 148801, Control_c, 0, 67, 0
1, 148824, Note_on_c, 0, 71, 92
1, 149108, Note_on_c, 0, 70, 97
1, 149139, Note_off_c, 0, 71, 62
1, 149164, Note_off_c, 0, 70, 66
1, 149275, Note_on_c, 0, 69, 92
1, 149347, Note_on_c, 0, 51, 74
1, 149402, Control_c, 0, 64, 101
1, 149406, Note_on_c, 0, 59, 66
1, 149417, Control_c, 0, 64, 62
1, 149432, Control_c, 0, 64, 0
1, 149439, Note_off_c, 0, 69, 59
1, 149454, Note_off_c, 0, 51, 62
1, 149463, Note_on_c, 0, 63, 87
1, 149490, Control_c, 0, 64, 66
1, 149491, Note_off_c, 0, 59, 63
1, 149505, Control_c, 0, 64, 92
1, 149520, Control_c, 0, 64, 127
1, 149531, Note_on_c, 0, 68, 98
1, 149559, Note_off_c, 0, 63, 65
1, 149740, Note_on_c, 0, 87, 87
1, 149743, Note_on_c, 0, 83, 76
1, 149817, Note_off_c, 0, 87, 62
1, 149832, Note_off_c, 0, 83, 60
1, 149847, Poly_aftertouch_c, 0, 85, 0
1, 149904, Note_on_c, 0, 86, 83
1, 149910, Note_on_c, 0, 82, 81
1, 149916, Note_on_c, 0, 63, 82
1, 149933, Note_off_c, 0, 68, 60
1, 150007, Note_off_c, 0, 86, 57
1, 150028, Note_off_c, 0, 82, 64
1, 150029, Note_on_c, 0, 85, 89
1, 150033, Note_on_c, 0, 81, 84
1, 150037, Note_on_c, 0, 59, 70
1, 150037, Note_off_c, 0, 63, 62
1, 150060, Note_off_c, 0, 59, 68
1, 150067, Note_off_c, 0, 81, 61
1, 150074, Note_off_c, 0, 85, 65
1, 150151, Note_on_c, 0, 83, 87
1, 150157, Note_on_c, 0, 80, 80
1, 150160, Note_on_c, 0, 39, 87
1, 150283, Note_on_c, 0, 82, 90
1, 150283, Note_off_c, 0, 83, 64
1, 150289, Note_on_c, 0, 47, 74
1, 150291, Note_on_c, 0, 74, 81
1, 150292, Note_off_c, 0, 80, 61
1, 150321, Note_off_c, 0, 82, 66
1, 150322, Note_off_c, 0, 74, 63
1, 150339, Note_off_c, 0, 39, 57
1, 150390, Poly_aftertouch_c, 0, 76, 0
1, 150410, Note_on_c, 0, 51, 87
1, 150414, Note_off_c, 0, 47, 65
1, 150479, Note_on_c, 0, 75, 100
1, 150480, Note_off_c, 0, 51, 62
1, 150490, Note_on_c, 0, 73, 86
1, 150493, Control_c, 0, 64, 115
1, 150530, Control_c, 0, 64, 127
1, 150633, Note_on_c, 0, 56, 86
1, 150651, Note_on_c, 0, 71, 74
1, 150655, Note_off_c, 0, 73, 60
1, 150676, Note_off_c, 0, 71, 69
1, 150676, Note_off_c, 0, 56, 57
1, 150807, Note_on_c, 0, 71, 96
1, 150826, Control_c, 0, 64, 89
1, 150841, Control_c, 0, 64, 68
1, 150856, Control_c, 0, 64, 63
1, 150871, Control_c, 0, 64, 66
1, 150884, Note_on_c, 0, 68, 86
1, 150886, Control_c, 0, 64, 76
1, 150900, Control_c, 0, 64, 95
1, 150915, Control_c, 0, 64, 127
1, 150930, Control_c, 0, 67, 19
1, 151068, Note_on_c, 0, 57, 83
1, 151093, Control_c, 0, 64, 67
1, 151108, Control_c, 0, 64, 0
1, 151114, Note_on_c, 0, 67, 77
1, 151114, Note_off_c, 0, 68, 61
1, 151153, Control_c, 0, 64, 35
1, 151156, Note_off_c, 0, 71, 55
1, 151168, Control_c, 0, 64, 59
1, 151183, Control_c, 0, 64, 71
1, 151198, Control_c, 0, 64, 79
1, 151198, Control_c, 0, 67, 21
1, 151202, Note_off_c, 0, 67, 56
1, 151212, Control_c, 0, 64, 86
1, 151227, Control_c, 0, 64, 93
1, 151243, Control_c, 0, 64, 104
1, 151257, Control_c, 0, 64, 127
1, 151334, Note_on_c, 0, 70, 86
1, 151354, Control_c, 0, 67, 23
1, 151374, Note_off_c, 0, 57, 62
1, 151406, Note_off_c, 0, 70, 62
1, 151635, Control_c, 0, 64, 74
1, 151641, Note_on_c, 0, 69, 73
1, 151646, Note_on_c, 0, 58, 65
1, 151650, Control_c, 0, 64, 44
1, 151665, Control_c, 0, 64, 0
1, 151677, Note_on_c, 0, 66, 62
1, 151694, Control_c, 0, 64, 58
1, 151696, Note_off_c, 0, 69, 64
1, 151707, Note_off_c, 0, 75, 62
1, 151709, Control_c, 0, 64, 76
1, 151714, Note_off_c, 0, 66, 62
1, 151724, Control_c, 0, 64, 109
1, 151728, Note_off_c, 0, 58, 63
1, 151739, Control_c, 0, 64, 127
1, 151754, Control_c, 0, 67, 25
1, 151893, Note_on_c, 0, 40, 57
1, 151979, Note_on_c, 0, 47, 54
1, 152027, Control_c, 0, 64, 98
1, 152033, Note_on_c, 0, 55, 69
1, 152042, Control_c, 0, 64, 73
1, 152042, Control_c, 0, 67, 27
1, 152057, Control_c, 0, 64, 56
1, 152071, Control_c, 0, 64, 0
1, 152084, Note_on_c, 0, 59, 55
1, 152109, Note_on_c, 0, 52, 53
1, 152132, Note_on_c, 0, 64, 55
1, 152176, Control_c, 0, 64, 51
1, 152190, Control_c, 0, 64, 67
1, 152201, Note_off_c, 0, 55, 61
1, 152205, Control_c, 0, 64, 77
1, 152205, Note_on_c, 0, 67, 79
1, 152220, Control_c, 0, 64, 86
1, 152224, Note_off_c, 0, 59, 63
1, 152235, Control_c, 0, 64, 91
1, 152235, Control_c, 0, 67, 23
1, 152241, Note_off_c, 0, 67, 62
1, 152243, Note_off_c, 0, 64, 64
1, 152250, Control_c, 0, 64, 94
1, 152264, Control_c, 0, 64, 104
1, 152279, Control_c, 0, 64, 127
1, 152279, Control_c, 0, 67, 21
1, 152323, Control_c, 0, 67, 0
1, 152342, Note_off_c, 0, 40, 54
1, 152351, Note_off_c, 0, 52, 58
1, 152366, Poly_aftertouch_c, 0, 46, 127
1, 152387, Note_off_c, 0, 47, 22
1, 152402, Poly_aftertouch_c, 0, 46, 0
1, 152554, Note_on_c, 0, 95, 66
1, 152575, Note_on_c, 0, 91, 41
1, 152662, Note_off_c, 0, 91, 44
1, 152810, Note_off_c, 0, 95, 62
1, 152823, Note_on_c, 0, 94, 72
1, 152824, Note_on_c, 0, 64, 71
1, 152849, Note_on_c, 0, 90, 42
1, 152876, Note_off_c, 0, 90, 57
1, 152919, Note_off_c, 0, 94, 64
1, 152974, Note_off_c, 0, 64, 59
1, 152980, Note_on_c, 0, 93, 76
1, 152986, Note_on_c, 0, 59, 63
1, 153000, Note_on_c, 0, 89, 67
1, 153012, Note_off_c, 0, 59, 66
1, 153044, Note_off_c, 0, 89, 51
1, 153122, Note_off_c, 0, 93, 64
1, 153124, Note_on_c, 0, 91, 79
1, 153132, Note_on_c, 0, 83, 66
1, 153149, Note_off_c, 0, 91, 64
1, 153156, Note_off_c, 0, 83, 66
1, 153157, Note_on_c, 0, 28, 59
1, 153228, Note_off_c, 0, 28, 59
1, 153260, Note_on_c, 0, 83, 63
1, 153264, Note_on_c, 0, 82, 71
1, 153283, Note_on_c, 0, 40, 37
1, 153294, Control_c, 0, 67, 19
1, 153320, Note_off_c, 0, 40, 45
1, 153380, Note_off_c, 0, 82, 49
1, 153413, Note_on_c, 0, 47, 69
1, 153413, Note_on_c, 0, 79, 68
1, 153487, Note_off_c, 0, 79, 59
1, 153543, Note_on_c, 0, 52, 51
1, 153555, Note_off_c, 0, 83, 64
1, 153561, Note_on_c, 0, 78, 54
1, 153562, Note_on_c, 0, 82, 72
1, 153568, Control_c, 0, 67, 21
1, 153623, Note_off_c, 0, 78, 58
1, 153641, Note_off_c, 0, 82, 58
1, 153681, Note_off_c, 0, 47, 56
1, 153692, Note_on_c, 0, 81, 82
1, 153697, Note_on_c, 0, 59, 52
1, 153702, Note_on_c, 0, 77, 68
1, 153729, Note_off_c, 0, 77, 64
1, 153737, Note_off_c, 0, 52, 53
1, 153833, Note_off_c, 0, 59, 22
1, 153839, Note_on_c, 0, 47, 60
1, 153851, Note_off_c, 0, 81, 60
1, 153854, Note_on_c, 0, 79, 80
1, 153902, Note_off_c, 0, 79, 62
1, 153969, Control_c, 0, 67, 23
1, 154026, Note_on_c, 0, 71, 73
1, 154032, Note_on_c, 0, 70, 66
1, 154070, Note_on_c, 0, 52, 54
1, 154081, Note_off_c, 0, 47, 59
1, 154221, Note_on_c, 0, 69, 68
1, 154222, Control_c, 0, 67, 25
1, 154241, Note_off_c, 0, 70, 45
1, 154303, Control_c, 0, 67, 27
1, 154377, Control_c, 0, 67, 29
1, 154400, Note_on_c, 0, 58, 65
1, 154407, Control_c, 0, 67, 32
1, 154422, Control_c, 0, 64, 106
1, 154422, Control_c, 0, 67, 33
1, 154438, Control_c, 0, 64, 78
1, 154445, Note_off_c, 0, 69, 60
1, 154453, Control_c, 0, 64, 65
1, 154467, Control_c, 0, 64, 57
1, 154467, Control_c, 0, 67, 33
1, 154472, Note_on_c, 0, 68, 65
1, 154482, Control_c, 0, 64, 59
1, 154482, Control_c, 0, 67, 34
1, 154497, Control_c, 0, 64, 64
1, 154511, Control_c, 0, 64, 72
1, 154526, Control_c, 0, 64, 81
1, 154541, Control_c, 0, 64, 91
1, 154556, Control_c, 0, 64, 96
1, 154571, Control_c, 0, 64, 102
1, 154585, Control_c, 0, 64, 107
1, 154585, Control_c, 0, 67, 34
1, 154600, Control_c, 0, 64, 127
1, 154669, Note_off_c, 0, 68, 62
1, 154674, Control_c, 0, 67, 35
1, 154683, Note_on_c, 0, 67, 66
1, 154689, Control_c, 0, 64, 82
1, 154689, Control_c, 0, 67, 36
1, 154691, Note_on_c, 0, 59, 63
1, 154691, Note_off_c, 0, 52, 59
1, 154695, Note_off_c, 0, 58, 63
1, 154704, Control_c, 0, 64, 65
1, 154704, Control_c, 0, 67, 36
1, 154718, Control_c, 0, 64, 58
1, 154733, Control_c, 0, 64, 62
1, 154748, Control_c, 0, 64, 70
1, 154763, Control_c, 0, 64, 83
1, 154763, Control_c, 0, 67, 37
1, 154778, Control_c, 0, 64, 108
1, 154778, Control_c, 0, 67, 38
1, 154793, Control_c, 0, 64, 115
1, 154793, Control_c, 0, 67, 39
1, 154808, Control_c, 0, 64, 124
1, 154808, Control_c, 0, 67, 42
1, 154823, Control_c, 0, 64, 127
1, 154823, Control_c, 0, 67, 43
1, 154838, Control_c, 0, 67, 44
1, 154852, Control_c, 0, 67, 46
1, 154867, Control_c, 0, 67, 47
1, 154882, Control_c, 0, 64, 92
1, 154882, Control_c, 0, 67, 48
1, 154897, Control_c, 0, 64, 73
1, 154897, Control_c, 0, 67, 48
1, 154906, Note_on_c, 0, 61, 66
1, 154911, Control_c, 0, 64, 61
1, 154926, Control_c, 0, 64, 51
1, 154926, Control_c, 0, 67, 49
1, 154941, Control_c, 0, 64, 55
1, 154941, Control_c, 0, 67, 50
1, 154956, Control_c, 0, 64, 62
1, 154956, Control_c, 0, 67, 53
1, 154971, Control_c, 0, 64, 69
1, 154971, Control_c, 0, 67, 55
1, 154985, Control_c, 0, 64, 72
1, 154985, Control_c, 0, 67, 58
1, 155000, Control_c, 0, 64, 75
1, 155000, Control_c, 0, 67, 61
1, 155022, Control_c, 0, 64, 76
1, 155022, Control_c, 0, 67, 63
1, 155037, Control_c, 0, 64, 78
1, 155037, Control_c, 0, 67, 65
1, 155052, Control_c, 0, 64, 79
1, 155052, Control_c, 0, 67, 67
1, 155067, Control_c, 0, 64, 79
1, 155067, Control_c, 0, 67, 69
1, 155082, Control_c, 0, 67, 71
1, 155097, Control_c, 0, 67, 74
1, 155111, Control_c, 0, 64, 81
1, 155111, Control_c, 0, 67, 78
1, 155126, Control_c, 0, 64, 86
1, 155126, Control_c, 0, 67, 82
1, 155141, Control_c, 0, 64, 92
1, 155141, Control_c, 0, 67, 87
1, 155156, Control_c, 0, 64, 95
1, 155156, Control_c, 0, 67, 91
1, 155171, Control_c, 0, 64, 94
1, 155171, Control_c, 0, 67, 96
1, 155174, Note_on_c, 0, 62, 55
1, 155185, Control_c, 0, 64, 85
1, 155185, Control_c, 0, 67, 100
1, 155198, Note_off_c, 0, 67, 56
1, 155200, Control_c, 0, 64, 72
1, 155200, Control_c, 0, 67, 103
1, 155204, Note_off_c, 0, 61, 55
1, 155215, Control_c, 0, 64, 60
1, 155215, Control_c, 0, 67, 107
1, 155216, Note_off_c, 0, 71, 57
1, 155221, Note_on_c, 0, 70, 54
1, 155222, Note_on_c, 0, 66, 47
1, 155231, Control_c, 0, 64, 33
1, 155231, Control_c, 0, 67, 110
1, 155246, Control_c, 0, 64, 0
1, 155246, Control_c, 0, 67, 115
1, 155261, Control_c, 0, 67, 118
1, 155276, Control_c, 0, 67, 121
1, 155290, Control_c, 0, 64, 52
1, 155290, Control_c, 0, 67, 124
1, 155305, Control_c, 0, 64, 64
1, 155305, Control_c, 0, 67, 126
1, 155320, Control_c, 0, 64, 71
1, 155334, Control_c, 0, 64, 73
1, 155364, Control_c, 0, 64, 73
1, 155379, Control_c, 0, 64, 74
1, 155394, Control_c, 0, 64, 75
1, 155408, Control_c, 0, 64, 77
1, 155423, Control_c, 0, 64, 80
1, 155438, Control_c, 0, 64, 82
1, 155452, Control_c, 0, 64, 83
1, 155467, Control_c, 0, 64, 84
1, 155482, Control_c, 0, 64, 84
1, 155497, Control_c, 0, 64, 85
1, 155512, Control_c, 0, 64, 86
1, 155527, Control_c, 0, 64, 87
1, 155541, Control_c, 0, 64, 87
1, 155603, Note_off_c, 0, 70, 61
1, 155615, Control_c, 0, 64, 85
1, 155624, Note_off_c, 0, 66, 61
1, 155627, Note_on_c, 0, 63, 55
1, 155630, Control_c, 0, 64, 78
1, 155642, Note_on_c, 0, 69, 48
1, 155645, Control_c, 0, 64, 69
1, 155650, Note_on_c, 0, 65, 42
1, 155659, Control_c, 0, 64, 59
1, 155674, Control_c, 0, 64, 0
1, 155686, Note_off_c, 0, 62, 54
1, 155733, Control_c, 0, 64, 53
1, 155748, Control_c, 0, 64, 66
1, 155771, Control_c, 0, 64, 79
1, 155785, Control_c, 0, 64, 90
1, 155800, Control_c, 0, 64, 98
1, 155813, Note_off_c, 0, 65, 57
1, 155815, Control_c, 0, 64, 103
1, 155830, Control_c, 0, 64, 113
1, 155845, Control_c, 0, 64, 127
1, 155872, Note_off_c, 0, 59, 36
1, 155874, Note_off_c, 0, 69, 58
1, 156345, Note_off_c, 0, 63, 57
1, 156349, Note_on_c, 0, 64, 46
1, 156363, Note_on_c, 0, 60, 49
1, 156364, Control_c, 0, 64, 103
1, 156379, Control_c, 0, 64, 81
1, 156384, Note_on_c, 0, 76, 71
1, 156394, Control_c, 0, 64, 65
1, 156397, Note_on_c, 0, 72, 53
1, 156409, Control_c, 0, 64, 42
1, 156424, Control_c, 0, 64, 0
1, 156430, Note_on_c, 0, 67, 26
1, 156468, Control_c, 0, 64, 44
1, 156483, Control_c, 0, 64, 64
1, 156498, Control_c, 0, 64, 77
1, 156520, Control_c, 0, 64, 90
1, 156535, Control_c, 0, 64, 102
1, 156550, Control_c, 0, 64, 119
1, 156564, Control_c, 0, 64, 127
1, 156587, Note_off_c, 0, 76, 60
1, 156589, Note_off_c, 0, 67, 42
1, 156641, Note_off_c, 0, 72, 52
1, 156654, Note_off_c, 0, 64, 37
1, 156717, Note_off_c, 0, 60, 43
1, 156959, Note_on_c, 0, 63, 57
1, 156975, Note_on_c, 0, 75, 64
1, 156986, Note_on_c, 0, 71, 53
1, 156988, Note_on_c, 0, 66, 49
1, 157020, Note_on_c, 0, 59, 18
1, 157050, Note_off_c, 0, 63, 63
1, 157061, Note_off_c, 0, 59, 41
1, 157082, Note_off_c, 0, 71, 63
1, 157084, Control_c, 0, 64, 85
1, 157085, Note_on_c, 0, 65, 57
1, 157086, Note_on_c, 0, 57, 48
1, 157089, Note_on_c, 0, 74, 73
1, 157091, Note_on_c, 0, 62, 54
1, 157091, Note_off_c, 0, 75, 58
1, 157098, Control_c, 0, 64, 66
1, 157102, Note_on_c, 0, 69, 57
1, 157106, Note_off_c, 0, 66, 61
1, 157113, Control_c, 0, 64, 53
1, 157128, Control_c, 0, 64, 49
1, 157143, Control_c, 0, 64, 58
1, 157158, Control_c, 0, 64, 68
1, 157172, Control_c, 0, 64, 78
1, 157187, Control_c, 0, 64, 90
1, 157196, Note_off_c, 0, 65, 62
1, 157202, Control_c, 0, 64, 100
1, 157217, Control_c, 0, 64, 104
1, 157269, Control_c, 0, 64, 106
1, 157491, Control_c, 0, 64, 103
1, 157505, Control_c, 0, 64, 100
1, 157518, Note_off_c, 0, 62, 46
1, 157520, Control_c, 0, 64, 95
1, 157535, Note_on_c, 0, 64, 42
1, 157535, Control_c, 0, 64, 88
1, 157544, Note_off_c, 0, 74, 58
1, 157550, Note_on_c, 0, 60, 43
1, 157550, Control_c, 0, 64, 80
1, 157554, Note_on_c, 0, 76, 61
1, 157561, Note_off_c, 0, 69, 55
1, 157565, Control_c, 0, 64, 70
1, 157574, Note_on_c, 0, 72, 48
1, 157576, Note_off_c, 0, 57, 43
1, 157580, Control_c, 0, 64, 59
1, 157589, Note_on_c, 0, 67, 34
1, 157595, Control_c, 0, 64, 0
1, 157684, Control_c, 0, 64, 37
1, 157699, Control_c, 0, 64, 62
1, 157714, Note_off_c, 0, 64, 62
1, 157714, Control_c, 0, 64, 76
1, 157725, Note_off_c, 0, 67, 57
1, 157729, Control_c, 0, 64, 93
1, 157744, Control_c, 0, 64, 124
1, 157750, Note_off_c, 0, 60, 62
1, 157759, Control_c, 0, 64, 127
1, 157781, Note_off_c, 0, 76, 60
1, 157809, Note_off_c, 0, 72, 58
1, 158111, Note_on_c, 0, 36, 44
1, 158176, Note_on_c, 0, 83, 49
1, 158195, Note_on_c, 0, 79, 9
1, 158398, Note_off_c, 0, 83, 60
1, 158416, Note_off_c, 0, 79, 40
1, 158440, Note_on_c, 0, 82, 48
1, 158444, Note_on_c, 0, 43, 32
1, 158448, Note_on_c, 0, 78, 41
1, 158521, Note_off_c, 0, 36, 38
1, 158610, Note_off_c, 0, 43, 37
1, 158618, Note_on_c, 0, 79, 54
1, 158620, Note_off_c, 0, 82, 57
1, 158620, Note_off_c, 0, 78, 39
1, 158634, Note_on_c, 0, 76, 50
1, 158641, Note_off_c, 0, 79, 64
1, 158641, Note_on_c, 0, 52, 39
1, 158662, Note_off_c, 0, 76, 58
1, 158740, Note_off_c, 0, 52, 53
1, 158787, Note_on_c, 0, 43, 40
1, 158802, Note_on_c, 0, 70, 58
1, 158805, Note_on_c, 0, 78, 47
1, 158909, Note_off_c, 0, 78, 53
1, 158946, Note_off_c, 0, 70, 48
1, 158964, Note_on_c, 0, 71, 59
1, 158965, Note_on_c, 0, 52, 46
1, 158966, Note_off_c, 0, 43, 35
1, 158972, Note_on_c, 0, 67, 48
1, 159028, Note_off_c, 0, 71, 60
1, 159123, Note_off_c, 0, 67, 45
1, 159173, Note_on_c, 0, 66, 33
1, 159175, Note_on_c, 0, 70, 36
1, 159333, Note_off_c, 0, 66, 38
1, 159354, Note_on_c, 0, 67, 48
1, 159361, Note_off_c, 0, 70, 41
1, 159366, Note_on_c, 0, 64, 39
1, 159374, Note_on_c, 0, 59, 42
1, 159609, Note_on_c, 0, 58, 56
1, 159613, Note_on_c, 0, 66, 58
1, 159622, Note_off_c, 0, 67, 46
1, 159633, Note_off_c, 0, 64, 35
1, 159636, Note_off_c, 0, 59, 36
1, 159646, Note_off_c, 0, 58, 64
1, 159655, Note_off_c, 0, 66, 56
1, 159678, Note_off_c, 0, 52, 40
1, 159911, Note_on_c, 0, 48, 53
1, 159918, Note_on_c, 0, 52, 49
1, 159971, Note_on_c, 0, 64, 67
1, 159989, Note_on_c, 0, 55, 50
1, 159989, Control_c, 0, 64, 93
1, 159995, Note_on_c, 0, 60, 43
1, 160004, Control_c, 0, 64, 69
1, 160020, Control_c, 0, 64, 50
1, 160035, Control_c, 0, 64, 0
1, 160056, Note_off_c, 0, 60, 0
1, 160056, Note_on_c, 0, 60, 3
1, 160064, Control_c, 0, 64, 35
1, 160079, Control_c, 0, 64, 60
1, 160094, Control_c, 0, 64, 73
1, 160101, Note_off_c, 0, 55, 58
1, 160109, Control_c, 0, 64, 88
1, 160123, Control_c, 0, 64, 102
1, 160138, Control_c, 0, 64, 105
1, 160153, Control_c, 0, 64, 109
1, 160168, Control_c, 0, 64, 115
1, 160183, Control_c, 0, 64, 127
1, 160191, Note_off_c, 0, 48, 38
1, 160212, Note_off_c, 0, 60, 54
1, 160226, Note_off_c, 0, 52, 59
1, 160489, Note_on_c, 0, 54, 43
1, 160495, Note_on_c, 0, 63, 74
1, 160498, Note_off_c, 0, 64, 58
1, 160504, Note_on_c, 0, 47, 44
1, 160506, Note_on_c, 0, 59, 59
1, 160541, Note_off_c, 0, 54, 61
1, 160576, Note_off_c, 0, 59, 54
1, 160603, Note_off_c, 0, 47, 58
1, 160620, Note_on_c, 0, 53, 58
1, 160623, Note_on_c, 0, 62, 71
1, 160625, Note_on_c, 0, 45, 59
1, 160629, Note_off_c, 0, 63, 62
1, 160635, Control_c, 0, 64, 95
1, 160649, Control_c, 0, 64, 66
1, 160664, Control_c, 0, 64, 41
1, 160679, Control_c, 0, 64, 0
1, 160709, Control_c, 0, 64, 39
1, 160723, Control_c, 0, 64, 62
1, 160738, Control_c, 0, 64, 75
1, 160753, Control_c, 0, 64, 87
1, 160768, Control_c, 0, 64, 92
1, 160782, Control_c, 0, 64, 92
1, 160797, Control_c, 0, 64, 94
1, 160812, Control_c, 0, 64, 97
1, 160828, Control_c, 0, 64, 100
1, 160843, Control_c, 0, 64, 102
1, 161073, Control_c, 0, 64, 99
1, 161087, Control_c, 0, 64, 96
1, 161102, Control_c, 0, 64, 92
1, 161106, Note_off_c, 0, 53, 57
1, 161107, Note_on_c, 0, 48, 47
1, 161109, Note_off_c, 0, 45, 54
1, 161117, Control_c, 0, 64, 86
1, 161130, Note_on_c, 0, 52, 39
1, 161132, Control_c, 0, 64, 79
1, 161147, Control_c, 0, 64, 67
1, 161161, Control_c, 0, 64, 54
1, 161163, Note_off_c, 0, 62, 58
1, 161173, Note_on_c, 0, 64, 57
1, 161176, Control_c, 0, 64, 0
1, 161198, Note_on_c, 0, 60, 39
1, 161199, Note_on_c, 0, 55, 36
1, 161279, Control_c, 0, 64, 50
1, 161294, Control_c, 0, 64, 65
1, 161308, Note_off_c, 0, 48, 62
1, 161309, Control_c, 0, 64, 74
1, 161324, Control_c, 0, 64, 85
1, 161339, Control_c, 0, 64, 93
1, 161345, Note_off_c, 0, 55, 35
1, 161354, Control_c, 0, 64, 98
1, 161369, Control_c, 0, 64, 103
1, 161384, Control_c, 0, 64, 108
1, 161398, Control_c, 0, 64, 124
1, 161405, Note_off_c, 0, 64, 55
1, 161413, Control_c, 0, 64, 127
1, 161426, Note_off_c, 0, 60, 38
1, 161686, Note_off_c, 0, 52, 38
1, 161705, Note_on_c, 0, 36, 41
1, 161778, Note_on_c, 0, 59, 53
1, 161830, Note_on_c, 0, 55, 22
1, 162099, Note_off_c, 0, 59, 52
1, 162102, Note_on_c, 0, 58, 48
1, 162107, Note_on_c, 0, 43, 34
1, 162107, Note_off_c, 0, 55, 41
1, 162120, Note_on_c, 0, 54, 40
1, 162159, Note_off_c, 0, 54, 49
1, 162310, Note_on_c, 0, 55, 50
1, 162317, Note_off_c, 0, 58, 55
1, 162326, Note_on_c, 0, 47, 39
1, 162342, Note_off_c, 0, 43, 39
1, 162487, Note_off_c, 0, 47, 57
1, 162505, Note_off_c, 0, 55, 60
1, 162528, Note_on_c, 0, 54, 50
1, 162528, Note_on_c, 0, 46, 42
1, 162711, Note_off_c, 0, 46, 47
1, 162728, Note_on_c, 0, 43, 43
1, 162729, Note_off_c, 0, 54, 61
1, 162749, Note_on_c, 0, 47, 46
1, 162874, Note_off_c, 0, 36, 37
1, 163005, Note_on_c, 0, 42, 43
1, 163015, Control_c, 0, 64, 104
1, 163030, Control_c, 0, 64, 84
1, 163044, Control_c, 0, 64, 76
1, 163074, Control_c, 0, 64, 78
1, 163080, Note_off_c, 0, 43, 40
1, 163089, Control_c, 0, 64, 83
1, 163104, Control_c, 0, 64, 88
1, 163118, Control_c, 0, 64, 90
1, 163320, Control_c, 0, 64, 89
1, 163335, Control_c, 0, 64, 89
1, 163344, Note_on_c, 0, 39, 42
1, 163349, Control_c, 0, 64, 87
1, 163364, Control_c, 0, 64, 85
1, 163374, Note_off_c, 0, 42, 41
1, 163379, Control_c, 0, 64, 83
1, 163394, Control_c, 0, 64, 78
1, 163408, Control_c, 0, 64, 73
1, 163421, Note_on_c, 0, 46, 50
1, 163423, Control_c, 0, 64, 65
1, 163438, Control_c, 0, 64, 55
1, 163453, Control_c, 0, 64, 0
1, 163461, Note_off_c, 0, 47, 37
1, 163557, Control_c, 0, 64, 49
1, 163572, Control_c, 0, 64, 62
1, 163586, Control_c, 0, 64, 68
1, 163601, Control_c, 0, 64, 72
1, 163616, Control_c, 0, 64, 73
1, 163631, Control_c, 0, 64, 74
1, 163853, Control_c, 0, 64, 73
1, 163867, Control_c, 0, 64, 72
1, 163882, Control_c, 0, 64, 71
1, 163897, Control_c, 0, 64, 69
1, 163912, Control_c, 0, 64, 68
1, 163926, Control_c, 0, 64, 65
1, 163941, Control_c, 0, 64, 61
1, 163947, Note_on_c, 0, 40, 30
1, 163956, Control_c, 0, 64, 52
1, 163965, Note_off_c, 0, 39, 32
1, 163971, Control_c, 0, 64, 36
1, 163986, Control_c, 0, 64, 0
1, 164069, Control_c, 0, 64, 39
1, 164084, Control_c, 0, 64, 57
1, 164098, Control_c, 0, 64, 67
1, 164113, Control_c, 0, 64, 75
1, 164128, Control_c, 0, 64, 82
1, 164143, Control_c, 0, 64, 86
1, 164156, Note_off_c, 0, 46, 31
1, 164158, Control_c, 0, 64, 89
1, 164172, Control_c, 0, 64, 93
1, 164187, Control_c, 0, 64, 98
1, 164199, Note_off_c, 0, 40, 31
1, 164202, Control_c, 0, 64, 107
1, 164217, Control_c, 0, 64, 127
1, 164557, Control_c, 0, 64, 89
1, 164572, Control_c, 0, 64, 67
1, 164587, Control_c, 0, 64, 41
1, 164602, Control_c, 0, 64, 0
1, 164610, Note_on_c, 0, 30, 56
1, 164631, Control_c, 0, 64, 45
1, 164646, Control_c, 0, 64, 66
1, 164661, Control_c, 0, 64, 86
1, 164676, Control_c, 0, 64, 127
1, 164694, Note_off_c, 0, 30, 61
1, 165118, Note_on_c, 0, 42, 47
1, 165245, Note_off_c, 0, 42, 57
1, 165274, Note_on_c, 0, 52, 51
1, 165361, Note_off_c, 0, 52, 61
1, 165417, Note_on_c, 0, 58, 49
1, 165500, Note_on_c, 0, 76, 86
1, 165699, Note_on_c, 0, 59, 40
1, 165785, Note_off_c, 0, 59, 58
1, 165795, Note_off_c, 0, 58, 32
1, 165807, Note_on_c, 0, 60, 50
1, 165876, Note_off_c, 0, 60, 62
1, 165908, Note_on_c, 0, 61, 56
1, 165951, Note_off_c, 0, 61, 59
1, 166000, Note_on_c, 0, 58, 61
1, 166108, Note_on_c, 0, 64, 60
1, 166111, Note_off_c, 0, 58, 57
1, 166213, Note_on_c, 0, 74, 81
1, 166224, Note_off_c, 0, 76, 54
1, 166329, Note_on_c, 0, 66, 77
1, 166331, Note_off_c, 0, 64, 60
1, 166521, Note_on_c, 0, 67, 80
1, 166535, Control_c, 0, 64, 93
1, 166548, Note_off_c, 0, 66, 58
1, 166550, Control_c, 0, 64, 66
1, 166565, Control_c, 0, 64, 0
1, 166615, Note_on_c, 0, 76, 71
1, 166619, Note_off_c, 0, 74, 61
1, 166684, Control_c, 0, 64, 55
1, 166699, Control_c, 0, 64, 68
1, 166713, Control_c, 0, 64, 79
1, 166728, Control_c, 0, 64, 89
1, 166743, Control_c, 0, 64, 92
1, 166758, Control_c, 0, 64, 94
1, 166773, Control_c, 0, 64, 98
1, 166788, Control_c, 0, 64, 107
1, 166803, Control_c, 0, 64, 127
1, 166806, Note_off_c, 0, 67, 55
1, 166827, Note_on_c, 0, 66, 46
1, 166929, Note_off_c, 0, 66, 60
1, 166936, Note_off_c, 0, 76, 64
1, 166954, Note_on_c, 0, 73, 69
1, 166965, Note_on_c, 0, 64, 44
1, 167063, Note_off_c, 0, 64, 55
1, 167065, Note_on_c, 0, 58, 43
1, 167096, Note_off_c, 0, 58, 59
1, 167167, Note_on_c, 0, 66, 74
1, 167266, Note_on_c, 0, 55, 49
1, 167379, Note_on_c, 0, 49, 51
1, 167379, Note_on_c, 0, 64, 66
1, 167392, Note_off_c, 0, 66, 57
1, 167404, Note_off_c, 0, 55, 35
1, 167419, Control_c, 0, 64, 91
1, 167433, Control_c, 0, 64, 65
1, 167448, Control_c, 0, 64, 46
1, 167463, Control_c, 0, 64, 34
1, 167478, Control_c, 0, 64, 45
1, 167493, Control_c, 0, 64, 61
1, 167507, Control_c, 0, 64, 74
1, 167510, Note_off_c, 0, 49, 55
1, 167522, Control_c, 0, 64, 92
1, 167537, Control_c, 0, 64, 111
1, 167552, Control_c, 0, 64, 115
1, 167566, Control_c, 0, 64, 120
1, 167568, Poly_aftertouch_c, 0, 42, 0
1, 167572, Note_off_c, 0, 64, 62
1, 167578, Note_on_c, 0, 58, 68
1, 167581, Control_c, 0, 64, 127
1, 167605, Note_off_c, 0, 58, 66
1, 167667, Note_on_c, 0, 50, 64
1, 167772, Note_off_c, 0, 50, 59
1, 167775, Note_off_c, 0, 73, 52
1, 167790, Note_on_c, 0, 71, 73
1, 167793, Note_on_c, 0, 59, 51
1, 167844, Note_off_c, 0, 59, 61
1, 167892, Note_on_c, 0, 62, 58
1, 168010, Note_off_c, 0, 62, 41
1, 168019, Control_c, 0, 64, 98
1, 168022, Note_on_c, 0, 63, 58
1, 168025, Note_on_c, 0, 73, 74
1, 168034, Control_c, 0, 64, 70
1, 168049, Control_c, 0, 64, 45
1, 168052, Note_off_c, 0, 71, 57
1, 168064, Control_c, 0, 64, 0
1, 168108, Control_c, 0, 64, 43
1, 168123, Control_c, 0, 64, 65
1, 168135, Note_off_c, 0, 63, 59
1, 168138, Control_c, 0, 64, 76
1, 168153, Control_c, 0, 64, 84
1, 168158, Note_on_c, 0, 64, 56
1, 168168, Control_c, 0, 64, 86
1, 168227, Control_c, 0, 64, 86
1, 168330, Control_c, 0, 64, 85
1, 168335, Note_on_c, 0, 61, 47
1, 168342, Note_on_c, 0, 70, 56
1, 168345, Control_c, 0, 64, 75
1, 168360, Control_c, 0, 64, 63
1, 168375, Control_c, 0, 64, 35
1, 168386, Note_off_c, 0, 73, 61
1, 168389, Control_c, 0, 64, 0
1, 168419, Control_c, 0, 64, 39
1, 168434, Control_c, 0, 64, 62
1, 168439, Note_off_c, 0, 64, 36
1, 168449, Control_c, 0, 64, 76
1, 168463, Control_c, 0, 64, 89
1, 168486, Control_c, 0, 64, 96
1, 168515, Control_c, 0, 64, 98
1, 168516, Note_on_c, 0, 54, 49
1, 168530, Control_c, 0, 64, 102
1, 168545, Control_c, 0, 64, 109
1, 168553, Note_off_c, 0, 70, 60
1, 168560, Control_c, 0, 64, 127
1, 168585, Note_off_c, 0, 54, 61
1, 168594, Note_off_c, 0, 61, 58
1, 168747, Note_on_c, 0, 67, 55
1, 168858, Note_on_c, 0, 64, 54
1, 168891, Note_off_c, 0, 67, 37
1, 168961, Note_off_c, 0, 64, 56
1, 168961, Control_c, 0, 64, 86
1, 168976, Control_c, 0, 64, 67
1, 168991, Control_c, 0, 64, 49
1, 168993, Note_on_c, 0, 65, 51
1, 169006, Control_c, 0, 64, 0
1, 169050, Control_c, 0, 64, 35
1, 169065, Control_c, 0, 64, 56
1, 169080, Control_c, 0, 64, 66
1, 169095, Control_c, 0, 64, 72
1, 169110, Control_c, 0, 64, 74
1, 169129, Note_on_c, 0, 73, 44
1, 169139, Control_c, 0, 64, 75
1, 169154, Control_c, 0, 64, 76
1, 169169, Control_c, 0, 64, 78
1, 169184, Control_c, 0, 64, 79
1, 169199, Control_c, 0, 64, 80
1, 169213, Control_c, 0, 64, 81
1, 169235, Control_c, 0, 64, 83
1, 169250, Control_c, 0, 64, 85
1, 169251, Note_off_c, 0, 73, 57
1, 169265, Control_c, 0, 64, 88
1, 169271, Note_on_c, 0, 70, 53
1, 169280, Control_c, 0, 64, 91
1, 169295, Control_c, 0, 64, 92
1, 169310, Control_c, 0, 64, 93
1, 169315, Note_off_c, 0, 65, 31
1, 169325, Control_c, 0, 64, 94
1, 169339, Control_c, 0, 64, 96
1, 169354, Control_c, 0, 64, 98
1, 169369, Control_c, 0, 64, 101
1, 169373, Note_on_c, 0, 66, 41
1, 169399, Control_c, 0, 64, 104
1, 169402, Note_off_c, 0, 70, 37
1, 169420, Note_off_c, 0, 66, 43
1, 169428, Control_c, 0, 64, 106
1, 169450, Note_on_c, 0, 67, 58
1, 169532, Note_on_c, 0, 62, 67
1, 169576, Control_c, 0, 64, 104
1, 169583, Note_off_c, 0, 67, 33
1, 169591, Control_c, 0, 64, 92
1, 169607, Control_c, 0, 64, 76
1, 169622, Control_c, 0, 64, 58
1, 169636, Control_c, 0, 64, 0
1, 169641, Note_on_c, 0, 64, 59
1, 169647, Note_off_c, 0, 62, 57
1, 169695, Control_c, 0, 64, 46
1, 169710, Control_c, 0, 64, 62
1, 169725, Control_c, 0, 64, 72
1, 169740, Control_c, 0, 64, 77
1, 169754, Note_on_c, 0, 73, 43
1, 169755, Control_c, 0, 64, 78
1, 169784, Control_c, 0, 64, 79
1, 169799, Control_c, 0, 64, 80
1, 169814, Control_c, 0, 64, 82
1, 169828, Control_c, 0, 64, 84
1, 169843, Control_c, 0, 64, 87
1, 169849, Note_off_c, 0, 73, 46
1, 169850, Note_off_c, 0, 64, 33
1, 169858, Control_c, 0, 64, 90
1, 169867, Note_on_c, 0, 70, 60
1, 169873, Control_c, 0, 64, 95
1, 169887, Control_c, 0, 64, 102
1, 169902, Control_c, 0, 64, 111
1, 169917, Control_c, 0, 64, 124
1, 169932, Control_c, 0, 64, 127
1, 169963, Note_on_c, 0, 66, 51
1, 169975, Note_off_c, 0, 70, 62
1, 170052, Note_off_c, 0, 66, 52
1, 170055, Note_on_c, 0, 67, 65
1, 170136, Note_on_c, 0, 62, 74
1, 170215, Note_off_c, 0, 67, 36
1, 170235, Control_c, 0, 64, 85
1, 170243, Note_on_c, 0, 63, 73
1, 170249, Note_off_c, 0, 62, 61
1, 170250, Control_c, 0, 64, 63
1, 170265, Control_c, 0, 64, 0
1, 170324, Control_c, 0, 64, 40
1, 170339, Control_c, 0, 64, 60
1, 170353, Note_on_c, 0, 73, 62
1, 170353, Control_c, 0, 64, 69
1, 170368, Control_c, 0, 64, 75
1, 170383, Control_c, 0, 64, 79
1, 170398, Control_c, 0, 64, 83
1, 170414, Control_c, 0, 64, 90
1, 170429, Control_c, 0, 64, 101
1, 170444, Control_c, 0, 64, 127
1, 170466, Note_off_c, 0, 73, 56
1, 170472, Note_on_c, 0, 70, 69
1, 170495, Note_off_c, 0, 63, 38
1, 170575, Note_on_c, 0, 66, 61
1, 170589, Note_off_c, 0, 70, 59
1, 170693, Note_on_c, 0, 67, 68
1, 170720, Note_off_c, 0, 66, 37
1, 170827, Note_on_c, 0, 61, 62
1, 170877, Note_off_c, 0, 67, 60
1, 171026, Note_off_c, 0, 61, 60
1, 171055, Note_on_c, 0, 62, 63
1, 171073, Control_c, 0, 64, 115
1, 171088, Control_c, 0, 64, 73
1, 171103, Control_c, 0, 64, 46
1, 171117, Control_c, 0, 64, 0
1, 171176, Control_c, 0, 64, 45
1, 171191, Control_c, 0, 64, 61
1, 171207, Control_c, 0, 64, 69
1, 171222, Control_c, 0, 64, 72
1, 171224, Note_off_c, 0, 62, 55
1, 171237, Control_c, 0, 64, 75
1, 171252, Control_c, 0, 64, 78
1, 171257, Note_on_c, 0, 42, 39
1, 171267, Control_c, 0, 64, 82
1, 171281, Control_c, 0, 64, 89
1, 171297, Control_c, 0, 64, 105
1, 171312, Control_c, 0, 64, 127
1, 171395, Note_on_c, 0, 50, 45
1, 171396, Note_off_c, 0, 42, 35
1, 171426, Note_off_c, 0, 50, 62
1, 171515, Note_on_c, 0, 74, 54
1, 171520, Note_on_c, 0, 59, 44
1, 171524, Note_on_c, 0, 71, 39
1, 171572, Note_off_c, 0, 59, 56
1, 171586, Control_c, 0, 64, 103
1, 171601, Control_c, 0, 64, 74
1, 171615, Control_c, 0, 64, 50
1, 171627, Note_off_c, 0, 74, 62
1, 171630, Control_c, 0, 64, 0
1, 171666, Note_on_c, 0, 66, 47
1, 171668, Note_on_c, 0, 69, 50
1, 171672, Note_off_c, 0, 71, 59
1, 171718, Note_off_c, 0, 66, 0
1, 171718, Note_on_c, 0, 66, 4
1, 171719, Control_c, 0, 64, 53
1, 171733, Control_c, 0, 64, 64
1, 171748, Control_c, 0, 64, 70
1, 171763, Control_c, 0, 64, 73
1, 171778, Control_c, 0, 64, 77
1, 171781, Note_off_c, 0, 69, 59
1, 171791, Note_on_c, 0, 50, 48
1, 171793, Control_c, 0, 64, 84
1, 171808, Control_c, 0, 64, 102
1, 171823, Control_c, 0, 64, 127
1, 171881, Note_off_c, 0, 50, 51
1, 171894, Note_on_c, 0, 59, 44
1, 171936, Note_off_c, 0, 66, 41
1, 171970, Note_off_c, 0, 59, 58
1, 171991, Note_on_c, 0, 73, 66
1, 172006, Note_on_c, 0, 62, 49
1, 172012, Note_on_c, 0, 69, 44
1, 172031, Note_off_c, 0, 62, 61
1, 172031, Control_c, 0, 64, 82
1, 172046, Control_c, 0, 64, 58
1, 172061, Control_c, 0, 64, 0
1, 172123, Note_off_c, 0, 73, 55
1, 172141, Note_off_c, 0, 69, 62
1, 172147, Note_on_c, 0, 64, 47
1, 172148, Note_on_c, 0, 67, 60
1, 172179, Control_c, 0, 64, 37
1, 172194, Control_c, 0, 64, 58
1, 172209, Control_c, 0, 64, 69
1, 172231, Control_c, 0, 64, 76
1, 172246, Control_c, 0, 64, 79
1, 172258, Note_on_c, 0, 59, 40
1, 172261, Control_c, 0, 64, 80
1, 172273, Note_off_c, 0, 64, 34
1, 172276, Control_c, 0, 64, 84
1, 172290, Control_c, 0, 64, 94
1, 172305, Control_c, 0, 64, 127
1, 172326, Note_off_c, 0, 67, 59
1, 172331, Note_off_c, 0, 59, 56
1, 172368, Note_on_c, 0, 50, 53
1, 172461, Note_on_c, 0, 42, 61
1, 172462, Note_off_c, 0, 50, 58
1, 172473, Note_on_c, 0, 71, 74
1, 172480, Note_on_c, 0, 67, 63
1, 172514, Note_off_c, 0, 67, 62
1, 172538, Note_off_c, 0, 71, 57
1, 172574, Note_on_c, 0, 66, 77
1, 172579, Note_on_c, 0, 62, 63
1, 172602, Note_off_c, 0, 66, 61
1, 172610, Note_off_c, 0, 62, 64
1, 172675, Note_on_c, 0, 50, 67
1, 172687, Note_on_c, 0, 69, 74
1, 172688, Note_on_c, 0, 66, 79
1, 172750, Note_off_c, 0, 42, 59
1, 172809, Control_c, 0, 64, 99
1, 172824, Control_c, 0, 64, 76
1, 172839, Control_c, 0, 64, 60
1, 172847, Note_on_c, 0, 58, 79
1, 172854, Control_c, 0, 64, 0
1, 172877, Note_off_c, 0, 66, 54
1, 172896, Note_off_c, 0, 50, 53
1, 172901, Note_off_c, 0, 69, 59
1, 172924, Note_on_c, 0, 64, 65
1, 172932, Note_on_c, 0, 61, 69
1, 172979, Control_c, 0, 64, 43
1, 172994, Control_c, 0, 64, 59
1, 173009, Control_c, 0, 64, 66
1, 173024, Control_c, 0, 64, 68
1, 173037, Note_off_c, 0, 64, 62
1, 173039, Control_c, 0, 64, 69
1, 173084, Control_c, 0, 64, 69
1, 173090, Note_on_c, 0, 50, 37
1, 173099, Control_c, 0, 64, 71
1, 173113, Control_c, 0, 64, 74
1, 173113, Note_off_c, 0, 58, 55
1, 173128, Control_c, 0, 64, 76
1, 173143, Control_c, 0, 64, 77
1, 173158, Control_c, 0, 64, 78
1, 173173, Control_c, 0, 64, 80
1, 173187, Control_c, 0, 64, 82
1, 173197, Note_off_c, 0, 50, 53
1, 173202, Control_c, 0, 64, 86
1, 173209, Note_on_c, 0, 42, 52
1, 173211, Note_off_c, 0, 61, 37
1, 173217, Control_c, 0, 64, 89
1, 173231, Control_c, 0, 64, 92
1, 173246, Control_c, 0, 64, 96
1, 173261, Control_c, 0, 64, 103
1, 173276, Control_c, 0, 64, 112
1, 173282, Note_on_c, 0, 67, 66
1, 173285, Note_on_c, 0, 64, 61
1, 173291, Control_c, 0, 64, 127
1, 173313, Note_off_c, 0, 42, 61
1, 173323, Note_on_c, 0, 50, 60
1, 173340, Note_off_c, 0, 64, 54
1, 173379, Control_c, 0, 64, 77
1, 173389, Note_off_c, 0, 67, 29
1, 173394, Control_c, 0, 64, 49
1, 173398, Note_off_c, 0, 50, 47
1, 173399, Note_on_c, 0, 62, 67
1, 173400, Note_on_c, 0, 57, 72
1, 173409, Note_on_c, 0, 59, 61
1, 173409, Control_c, 0, 64, 0
1, 173453, Control_c, 0, 64, 52
1, 173468, Control_c, 0, 64, 65
1, 173483, Control_c, 0, 64, 72
1, 173490, Note_off_c, 0, 57, 59
1, 173498, Control_c, 0, 64, 75
1, 173513, Control_c, 0, 64, 76
1, 173519, Note_on_c, 0, 50, 39
1, 173528, Control_c, 0, 64, 78
1, 173540, Note_off_c, 0, 59, 38
1, 173543, Control_c, 0, 64, 81
1, 173558, Control_c, 0, 64, 83
1, 173572, Control_c, 0, 64, 85
1, 173587, Control_c, 0, 64, 86
1, 173595, Note_off_c, 0, 50, 56
1, 173602, Control_c, 0, 64, 88
1, 173610, Note_on_c, 0, 42, 60
1, 173617, Control_c, 0, 64, 91
1, 173626, Note_off_c, 0, 62, 38
1, 173632, Control_c, 0, 64, 98
1, 173647, Control_c, 0, 64, 112
1, 173662, Control_c, 0, 64, 127
1, 173715, Note_on_c, 0, 50, 68
1, 173733, Note_on_c, 0, 66, 66
1, 173734, Note_on_c, 0, 62, 58
1, 173740, Note_off_c, 0, 42, 57
1, 173773, Control_c, 0, 64, 110
1, 173788, Control_c, 0, 64, 87
1, 173793, Note_off_c, 0, 66, 41
1, 173798, Note_off_c, 0, 50, 48
1, 173802, Control_c, 0, 64, 84
1, 173808, Note_off_c, 0, 62, 55
1, 173817, Note_on_c, 0, 55, 61
1, 173817, Control_c, 0, 64, 87
1, 173829, Note_on_c, 0, 58, 74
1, 173830, Note_on_c, 0, 61, 67
1, 173832, Control_c, 0, 64, 95
1, 173847, Control_c, 0, 64, 114
1, 173862, Control_c, 0, 64, 127
1, 173888, Note_off_c, 0, 58, 57
1, 173898, Note_off_c, 0, 55, 50
1, 173920, Note_on_c, 0, 50, 65
1, 173928, Note_on_c, 0, 64, 62
1, 173951, Note_off_c, 0, 50, 65
1, 173966, Control_c, 0, 64, 105
1, 173980, Control_c, 0, 64, 73
1, 173995, Control_c, 0, 64, 37
1, 174010, Control_c, 0, 64, 0
1, 174014, Note_off_c, 0, 64, 58
1, 174031, Note_off_c, 0, 61, 51
1, 174040, Note_on_c, 0, 43, 64
1, 174059, Note_on_c, 0, 59, 63
1, 174061, Note_on_c, 0, 53, 69
1, 174084, Control_c, 0, 64, 50
1, 174096, Note_off_c, 0, 59, 64
1, 174099, Control_c, 0, 64, 63
1, 174100, Note_off_c, 0, 53, 64
1, 174105, Note_off_c, 0, 43, 63
1, 174114, Control_c, 0, 64, 65
1, 174122, Note_on_c, 0, 50, 64
1, 174143, Control_c, 0, 64, 67
1, 174158, Control_c, 0, 64, 77
1, 174172, Note_off_c, 0, 50, 56
1, 174173, Control_c, 0, 64, 97
1, 174187, Control_c, 0, 64, 127
1, 174192, Note_on_c, 0, 53, 67
1, 174220, Note_off_c, 0, 53, 66
1, 174246, Note_on_c, 0, 59, 69
1, 174299, Note_off_c, 0, 59, 63
1, 174321, Note_on_c, 0, 62, 70
1, 174380, Note_off_c, 0, 62, 60
1, 174389, Note_on_c, 0, 64, 69
1, 174419, Note_off_c, 0, 64, 67
1, 174441, Note_on_c, 0, 65, 67
1, 174461, Note_on_c, 0, 64, 35
1, 174463, Note_on_c, 0, 89, 83
1, 174482, Note_on_c, 0, 81, 67
1, 174504, Note_off_c, 0, 64, 43
1, 174511, Note_off_c, 0, 81, 67
1, 174523, Note_off_c, 0, 65, 63
1, 174536, Note_on_c, 0, 67, 51
1, 174537, Note_off_c, 0, 89, 62
1, 174544, Note_on_c, 0, 88, 78
1, 174552, Control_c, 0, 64, 93
1, 174566, Control_c, 0, 64, 88
1, 174568, Note_on_c, 0, 68, 79
1, 174584, Note_off_c, 0, 67, 43
1, 174589, Note_on_c, 0, 87, 84
1, 174592, Note_off_c, 0, 88, 62
1, 174596, Control_c, 0, 64, 84
1, 174608, Note_off_c, 0, 87, 72
1, 174611, Control_c, 0, 64, 63
1, 174626, Control_c, 0, 64, 0
1, 174640, Note_on_c, 0, 65, 80
1, 174642, Note_on_c, 0, 69, 74
1, 174644, Note_off_c, 0, 68, 62
1, 174652, Note_on_c, 0, 86, 84
1, 174661, Note_on_c, 0, 77, 74
1, 174664, Note_off_c, 0, 65, 69
1, 174667, Note_off_c, 0, 69, 66
1, 174670, Control_c, 0, 64, 36
1, 174683, Note_off_c, 0, 77, 68
1, 174684, Control_c, 0, 64, 64
1, 174699, Control_c, 0, 64, 84
1, 174714, Control_c, 0, 64, 102
1, 174729, Control_c, 0, 64, 105
1, 174735, Note_on_c, 0, 81, 82
1, 174740, Note_off_c, 0, 86, 65
1, 174759, Control_c, 0, 64, 108
1, 174781, Note_off_c, 0, 81, 62
1, 174789, Control_c, 0, 64, 115
1, 174794, Note_on_c, 0, 77, 73
1, 174803, Control_c, 0, 64, 127
1, 174828, Note_off_c, 0, 77, 63
1, 174842, Note_on_c, 0, 74, 65
1, 174887, Note_off_c, 0, 74, 60
1, 174918, Note_on_c, 0, 73, 77
1, 174921, Note_on_c, 0, 65, 65
1, 174922, Control_c, 0, 64, 89
1, 174937, Control_c, 0, 64, 68
1, 174950, Note_off_c, 0, 73, 62
1, 174951, Control_c, 0, 64, 33
1, 174966, Control_c, 0, 64, 0
1, 174976, Note_on_c, 0, 72, 78
1, 175012, Note_on_c, 0, 62, 65
1, 175029, Note_on_c, 0, 77, 78
1, 175039, Note_on_c, 0, 71, 82
1, 175055, Control_c, 0, 64, 57
1, 175069, Control_c, 0, 64, 75
1, 175078, Note_off_c, 0, 72, 44
1, 175084, Control_c, 0, 64, 79
1, 175107, Note_off_c, 0, 71, 62
1, 175113, Note_on_c, 0, 70, 80
1, 175114, Control_c, 0, 64, 79
1, 175129, Control_c, 0, 64, 84
1, 175143, Control_c, 0, 64, 91
1, 175155, Note_off_c, 0, 77, 63
1, 175158, Control_c, 0, 64, 99
1, 175160, Note_on_c, 0, 61, 45
1, 175161, Note_off_c, 0, 70, 65
1, 175173, Control_c, 0, 64, 102
1, 175175, Note_off_c, 0, 62, 36
1, 175188, Note_on_c, 0, 69, 70
1, 175204, Control_c, 0, 64, 100
1, 175219, Control_c, 0, 64, 90
1, 175220, Note_off_c, 0, 69, 64
1, 175241, Control_c, 0, 64, 80
1, 175256, Control_c, 0, 64, 76
1, 175256, Control_c, 0, 67, 101
1, 175258, Note_on_c, 0, 74, 72
1, 175264, Note_on_c, 0, 68, 57
1, 175271, Control_c, 0, 67, 72
1, 175276, Note_off_c, 0, 61, 62
1, 175278, Note_on_c, 0, 60, 48
1, 175286, Control_c, 0, 64, 77
1, 175286, Control_c, 0, 67, 52
1, 175292, Note_off_c, 0, 68, 65
1, 175301, Control_c, 0, 64, 78
1, 175301, Control_c, 0, 67, 41
1, 175303, Note_off_c, 0, 65, 42
1, 175310, Note_off_c, 0, 74, 63
1, 175315, Control_c, 0, 67, 29
1, 175316, Note_on_c, 0, 67, 76
1, 175330, Control_c, 0, 67, 0
1, 175348, Note_on_c, 0, 59, 67
1, 175354, Note_off_c, 0, 67, 64
1, 175359, Note_off_c, 0, 60, 48
1, 175360, Control_c, 0, 64, 77
1, 175373, Note_off_c, 0, 59, 67
1, 175375, Control_c, 0, 64, 67
1, 175376, Note_on_c, 0, 76, 68
1, 175389, Control_c, 0, 64, 0
1, 175392, Note_on_c, 0, 74, 70
1, 175422, Note_off_c, 0, 74, 49
1, 175438, Note_on_c, 0, 77, 86
1, 175443, Note_off_c, 0, 76, 64
1, 175478, Control_c, 0, 67, 20
1, 175498, Note_on_c, 0, 68, 93
1, 175506, Note_on_c, 0, 76, 80
1, 175513, Note_off_c, 0, 77, 63
1, 175537, Control_c, 0, 67, 22
1, 175559, Note_on_c, 0, 75, 81
1, 175564, Note_off_c, 0, 76, 64
1, 175582, Control_c, 0, 67, 24
1, 175611, Note_off_c, 0, 75, 66
1, 175611, Control_c, 0, 64, 43
1, 175623, Note_on_c, 0, 65, 61
1, 175626, Control_c, 0, 64, 62
1, 175632, Note_on_c, 0, 74, 92
1, 175632, Note_on_c, 0, 80, 96
1, 175641, Control_c, 0, 64, 74
1, 175656, Control_c, 0, 64, 90
1, 175656, Control_c, 0, 67, 26
1, 175669, Note_off_c, 0, 74, 64
1, 175671, Control_c, 0, 64, 127
1, 175683, Note_off_c, 0, 68, 0
1, 175713, Note_on_c, 0, 73, 75
1, 175727, Poly_aftertouch_c, 0, 68, 0
1, 175734, Note_off_c, 0, 80, 61
1, 175744, Note_on_c, 0, 63, 57
1, 175746, Note_off_c, 0, 65, 63
1, 175757, Note_on_c, 0, 72, 66
1, 175767, Note_off_c, 0, 73, 0
1, 175767, Note_on_c, 0, 73, 21
1, 175777, Note_off_c, 0, 63, 65
1, 175804, Note_off_c, 0, 73, 41
1, 175826, Note_off_c, 0, 72, 65
1, 175832, Note_on_c, 0, 71, 86
1, 175840, Note_on_c, 0, 77, 81
1, 175863, Control_c, 0, 67, 22
1, 175875, Note_off_c, 0, 71, 65
1, 175918, Note_on_c, 0, 70, 85
1, 175921, Note_off_c, 0, 77, 63
1, 175923, Note_on_c, 0, 62, 66
1, 175983, Note_on_c, 0, 69, 66
1, 175986, Note_off_c, 0, 70, 65
1, 176033, Note_off_c, 0, 62, 56
1, 176041, Note_off_c, 0, 69, 61
1, 176044, Note_on_c, 0, 59, 63
1, 176055, Note_on_c, 0, 68, 89
1, 176064, Control_c, 0, 64, 78
1, 176079, Control_c, 0, 64, 47
1, 176094, Control_c, 0, 64, 0
1, 176109, Control_c, 0, 67, 25
1, 176153, Control_c, 0, 64, 44
1, 176168, Control_c, 0, 64, 56
1, 176169, Note_on_c, 0, 63, 52
1, 176182, Control_c, 0, 64, 62
1, 176182, Control_c, 0, 67, 28
1, 176197, Control_c, 0, 64, 64
1, 176197, Control_c, 0, 67, 30
1, 176212, Control_c, 0, 67, 33
1, 176227, Control_c, 0, 67, 33
1, 176243, Note_off_c, 0, 59, 61
1, 176247, Note_on_c, 0, 56, 54
1, 176247, Note_off_c, 0, 63, 62
1, 176267, Note_on_c, 0, 62, 61
1, 176271, Control_c, 0, 67, 34
1, 176286, Control_c, 0, 67, 34
1, 176301, Control_c, 0, 67, 35
1, 176330, Control_c, 0, 67, 35
1, 176340, Note_off_c, 0, 62, 61
1, 176345, Control_c, 0, 64, 64
1, 176345, Control_c, 0, 67, 36
1, 176346, Note_off_c, 0, 56, 58
1, 176353, Note_on_c, 0, 61, 66
1, 176360, Control_c, 0, 67, 38
1, 176375, Control_c, 0, 67, 42
1, 176381, Note_on_c, 0, 52, 54
1, 176389, Control_c, 0, 67, 44
1, 176419, Control_c, 0, 67, 44
1, 176429, Note_on_c, 0, 60, 64
1, 176434, Control_c, 0, 64, 65
1, 176442, Note_off_c, 0, 61, 54
1, 176449, Control_c, 0, 67, 45
1, 176464, Control_c, 0, 67, 47
1, 176479, Control_c, 0, 67, 48
1, 176509, Note_off_c, 0, 60, 64
1, 176515, Note_on_c, 0, 59, 59
1, 176515, Note_off_c, 0, 52, 57
1, 176523, Note_on_c, 0, 51, 62
1, 176553, Control_c, 0, 67, 48
1, 176643, Control_c, 0, 67, 49
1, 176657, Control_c, 0, 67, 49
1, 176672, Control_c, 0, 64, 64
1, 176680, Note_off_c, 0, 51, 59
1, 176682, Note_on_c, 0, 50, 59
1, 176687, Control_c, 0, 64, 63
1, 176702, Control_c, 0, 64, 62
1, 176717, Control_c, 0, 64, 59
1, 176717, Control_c, 0, 67, 50
1, 176738, Control_c, 0, 64, 51
1, 176738, Control_c, 0, 67, 50
1, 176753, Control_c, 0, 64, 0
1, 176753, Control_c, 0, 67, 53
1, 176768, Control_c, 0, 67, 57
1, 176775, Note_off_c, 0, 68, 61
1, 176779, Note_on_c, 0, 65, 69
1, 176783, Control_c, 0, 67, 61
1, 176798, Control_c, 0, 67, 66
1, 176813, Control_c, 0, 67, 72
1, 176828, Control_c, 0, 67, 78
1, 176843, Control_c, 0, 67, 82
1, 176858, Control_c, 0, 67, 85
1, 176872, Control_c, 0, 67, 86
1, 176887, Control_c, 0, 67, 90
1, 176902, Control_c, 0, 64, 38
1, 176902, Control_c, 0, 67, 96
1, 176917, Control_c, 0, 64, 49
1, 176917, Control_c, 0, 67, 104
1, 176932, Control_c, 0, 64, 58
1, 176932, Control_c, 0, 67, 109
1, 176947, Control_c, 0, 64, 64
1, 176962, Control_c, 0, 64, 67
1, 176962, Control_c, 0, 67, 112
1, 176977, Control_c, 0, 64, 69
1, 176977, Control_c, 0, 67, 114
1, 176989, Note_off_c, 0, 59, 54
1, 176992, Control_c, 0, 64, 71
1, 176992, Control_c, 0, 67, 120
1, 177006, Control_c, 0, 64, 73
1, 177006, Control_c, 0, 67, 127
1, 177021, Control_c, 0, 64, 74
1, 177029, Note_off_c, 0, 65, 64
1, 177036, Control_c, 0, 64, 76
1, 177051, Control_c, 0, 64, 79
1, 177066, Note_on_c, 0, 43, 53
1, 177066, Control_c, 0, 64, 81
1, 177080, Control_c, 0, 64, 84
1, 177095, Control_c, 0, 64, 89
1, 177102, Note_off_c, 0, 50, 37
1, 177110, Control_c, 0, 64, 96
1, 177125, Control_c, 0, 64, 106
1, 177140, Control_c, 0, 64, 127
1, 177151, Note_off_c, 0, 43, 61
1, 177410, Note_on_c, 0, 50, 41
1, 177603, Note_on_c, 0, 59, 45
1, 177626, Note_on_c, 0, 80, 83
1, 177757, Note_on_c, 0, 66, 53
1, 177762, Note_off_c, 0, 50, 41
1, 177765, Note_off_c, 0, 59, 59
1, 177776, Note_on_c, 0, 62, 49
1, 177796, Note_off_c, 0, 66, 63
1, 177803, Note_off_c, 0, 62, 54
1, 177888, Note_on_c, 0, 67, 73
1, 177949, Note_off_c, 0, 67, 58
1, 178013, Note_on_c, 0, 62, 58
1, 178095, Note_off_c, 0, 62, 53
1, 178099, Note_off_c, 0, 80, 61
1, 178112, Note_on_c, 0, 66, 61
1, 178196, Note_on_c, 0, 59, 53
1, 178239, Note_off_c, 0, 66, 57
1, 178264, Note_off_c, 0, 59, 56
1, 178321, Note_on_c, 0, 79, 95
1, 178324, Control_c, 0, 67, 123
1, 178354, Control_c, 0, 67, 121
1, 178384, Control_c, 0, 67, 118
1, 178399, Control_c, 0, 67, 115
1, 178440, Note_on_c, 0, 67, 56
1, 178512, Note_off_c, 0, 67, 59
1, 178530, Note_on_c, 0, 68, 74
1, 178548, Control_c, 0, 64, 80
1, 178563, Control_c, 0, 64, 65
1, 178577, Control_c, 0, 64, 57
1, 178592, Control_c, 0, 64, 58
1, 178607, Control_c, 0, 64, 63
1, 178607, Control_c, 0, 67, 117
1, 178622, Control_c, 0, 64, 68
1, 178637, Control_c, 0, 64, 74
1, 178637, Control_c, 0, 67, 119
1, 178643, Note_off_c, 0, 68, 61
1, 178647, Note_on_c, 0, 62, 58
1, 178651, Control_c, 0, 64, 82
1, 178666, Control_c, 0, 64, 86
1, 178681, Control_c, 0, 64, 88
1, 178696, Control_c, 0, 64, 88
1, 178721, Note_off_c, 0, 79, 57
1, 178740, Control_c, 0, 64, 89
1, 178755, Control_c, 0, 64, 90
1, 178766, Note_on_c, 0, 67, 62
1, 178768, Note_off_c, 0, 62, 49
1, 178769, Control_c, 0, 64, 92
1, 178784, Control_c, 0, 64, 94
1, 178799, Control_c, 0, 64, 94
1, 178814, Control_c, 0, 64, 95
1, 178829, Control_c, 0, 64, 96
1, 178858, Control_c, 0, 64, 99
1, 178858, Control_c, 0, 67, 117
1, 178862, Note_on_c, 0, 58, 68
1, 178873, Control_c, 0, 64, 102
1, 178888, Control_c, 0, 64, 107
1, 178888, Control_c, 0, 67, 115
1, 178896, Note_off_c, 0, 67, 63
1, 178903, Control_c, 0, 64, 115
1, 178917, Control_c, 0, 64, 127
1, 178953, Note_off_c, 0, 58, 57
1, 178962, Control_c, 0, 67, 113
1, 178974, Note_on_c, 0, 78, 86
1, 179087, Note_on_c, 0, 68, 73
1, 179191, Control_c, 0, 67, 116
1, 179207, Control_c, 0, 64, 78
1, 179210, Note_on_c, 0, 69, 67
1, 179222, Control_c, 0, 64, 55
1, 179225, Note_off_c, 0, 68, 56
1, 179237, Control_c, 0, 64, 0
1, 179281, Control_c, 0, 64, 45
1, 179281, Control_c, 0, 67, 118
1, 179296, Control_c, 0, 64, 63
1, 179307, Note_off_c, 0, 69, 58
1, 179311, Control_c, 0, 64, 75
1, 179326, Control_c, 0, 64, 85
1, 179341, Control_c, 0, 64, 90
1, 179341, Control_c, 0, 67, 120
1, 179346, Note_on_c, 0, 62, 53
1, 179370, Control_c, 0, 64, 91
1, 179385, Control_c, 0, 64, 92
1, 179400, Control_c, 0, 64, 93
1, 179404, Note_off_c, 0, 78, 57
1, 179415, Control_c, 0, 64, 94
1, 179430, Control_c, 0, 64, 97
1, 179445, Control_c, 0, 64, 99
1, 179473, Note_on_c, 0, 68, 67
1, 179489, Control_c, 0, 64, 101
1, 179499, Note_off_c, 0, 62, 35
1, 179519, Control_c, 0, 64, 104
1, 179534, Control_c, 0, 64, 106
1, 179569, Note_off_c, 0, 68, 60
1, 179579, Control_c, 0, 64, 108
1, 179586, Note_on_c, 0, 59, 50
1, 179608, Control_c, 0, 67, 117
1, 179638, Control_c, 0, 67, 115
1, 179675, Note_off_c, 0, 59, 62
1, 179725, Note_on_c, 0, 77, 63
1, 179808, Control_c, 0, 67, 113
1, 179850, Note_on_c, 0, 67, 54
1, 179853, Control_c, 0, 64, 105
1, 179926, Control_c, 0, 64, 103
1, 179956, Control_c, 0, 64, 98
1, 179971, Control_c, 0, 64, 83
1, 179986, Control_c, 0, 64, 63
1, 180002, Control_c, 0, 64, 0
1, 180014, Note_on_c, 0, 43, 50
1, 180046, Control_c, 0, 64, 33
1, 180061, Control_c, 0, 64, 59
1, 180076, Control_c, 0, 64, 73
1, 180091, Control_c, 0, 64, 82
1, 180096, Note_off_c, 0, 77, 56
1, 180105, Control_c, 0, 64, 87
1, 180120, Control_c, 0, 64, 87
1, 180120, Control_c, 0, 67, 115
1, 180134, Note_off_c, 0, 43, 59
1, 180135, Control_c, 0, 64, 88
1, 180145, Note_on_c, 0, 51, 45
1, 180149, Control_c, 0, 64, 90
1, 180164, Control_c, 0, 64, 92
1, 180179, Control_c, 0, 64, 95
1, 180184, Note_off_c, 0, 67, 53
1, 180194, Control_c, 0, 64, 98
1, 180209, Control_c, 0, 64, 102
1, 180223, Control_c, 0, 64, 106
1, 180230, Note_off_c, 0, 51, 61
1, 180238, Control_c, 0, 64, 110
1, 180253, Control_c, 0, 64, 113
1, 180268, Control_c, 0, 64, 115
1, 180282, Control_c, 0, 64, 117
1, 180288, Note_on_c, 0, 55, 36
1, 180296, Control_c, 0, 64, 120
1, 180311, Control_c, 0, 64, 122
1, 180318, Note_off_c, 0, 55, 58
1, 180326, Control_c, 0, 64, 124
1, 180360, Note_on_c, 0, 60, 45
1, 180360, Note_on_c, 0, 75, 68
1, 180367, Note_on_c, 0, 72, 61
1, 180370, Control_c, 0, 64, 127
1, 180391, Note_off_c, 0, 60, 60
1, 180444, Control_c, 0, 64, 120
1, 180467, Control_c, 0, 64, 90
1, 180482, Control_c, 0, 64, 61
1, 180482, Control_c, 0, 67, 117
1, 180493, Note_off_c, 0, 72, 51
1, 180496, Control_c, 0, 64, 0
1, 180505, Note_on_c, 0, 70, 70
1, 180505, Note_off_c, 0, 75, 58
1, 180514, Note_on_c, 0, 67, 58
1, 180555, Control_c, 0, 64, 48
1, 180570, Control_c, 0, 64, 65
1, 180570, Control_c, 0, 67, 119
1, 180585, Control_c, 0, 64, 78
1, 180600, Control_c, 0, 64, 88
1, 180614, Control_c, 0, 64, 95
1, 180622, Note_off_c, 0, 67, 50
1, 180624, Note_on_c, 0, 63, 57
1, 180629, Control_c, 0, 64, 102
1, 180644, Control_c, 0, 64, 115
1, 180659, Control_c, 0, 64, 127
1, 180674, Note_off_c, 0, 70, 59
1, 180733, Control_c, 0, 67, 117
1, 180735, Note_off_c, 0, 63, 59
1, 180746, Note_on_c, 0, 60, 51
1, 180808, Control_c, 0, 67, 115
1, 180823, Note_off_c, 0, 60, 61
1, 180825, Note_on_c, 0, 74, 77
1, 180830, Note_on_c, 0, 51, 55
1, 180831, Note_on_c, 0, 70, 68
1, 180855, Note_off_c, 0, 51, 61
1, 180908, Note_off_c, 0, 74, 59
1, 180912, Control_c, 0, 64, 73
1, 180926, Control_c, 0, 64, 0
1, 180926, Control_c, 0, 67, 117
1, 180936, Note_off_c, 0, 70, 45
1, 180942, Note_on_c, 0, 68, 75
1, 180952, Note_on_c, 0, 65, 63
1, 181016, Control_c, 0, 64, 58
1, 181031, Control_c, 0, 64, 70
1, 181045, Control_c, 0, 64, 78
1, 181049, Note_on_c, 0, 60, 66
1, 181060, Control_c, 0, 64, 84
1, 181075, Control_c, 0, 64, 85
1, 181088, Note_off_c, 0, 65, 50
1, 181090, Control_c, 0, 64, 86
1, 181105, Control_c, 0, 64, 87
1, 181108, Note_off_c, 0, 68, 57
1, 181119, Control_c, 0, 64, 87
1, 181131, Note_off_c, 0, 60, 56
1, 181134, Control_c, 0, 64, 88
1, 181151, Note_on_c, 0, 51, 59
1, 181208, Control_c, 0, 64, 88
1, 181245, Note_off_c, 0, 51, 58
1, 181253, Note_on_c, 0, 72, 75
1, 181254, Note_on_c, 0, 68, 75
1, 181258, Note_on_c, 0, 43, 62
1, 181305, Note_off_c, 0, 72, 59
1, 181315, Note_off_c, 0, 68, 63
1, 181360, Note_on_c, 0, 67, 81
1, 181365, Note_on_c, 0, 63, 75
1, 181378, Control_c, 0, 64, 89
1, 181391, Note_off_c, 0, 67, 62
1, 181393, Note_off_c, 0, 63, 62
1, 181393, Control_c, 0, 64, 91
1, 181408, Control_c, 0, 64, 92
1, 181423, Control_c, 0, 64, 93
1, 181437, Control_c, 0, 64, 94
1, 181452, Control_c, 0, 64, 94
1, 181467, Control_c, 0, 64, 95
1, 181467, Control_c, 0, 67, 115
1, 181469, Note_on_c, 0, 51, 78
1, 181477, Note_on_c, 0, 67, 55
1, 181480, Note_on_c, 0, 70, 76
1, 181482, Control_c, 0, 64, 95
1, 181511, Control_c, 0, 64, 96
1, 181532, Note_off_c, 0, 43, 36
1, 181570, Control_c, 0, 67, 113
1, 181586, Control_c, 0, 64, 89
1, 181601, Control_c, 0, 64, 73
1, 181616, Control_c, 0, 64, 57
1, 181631, Control_c, 0, 64, 0
1, 181642, Note_on_c, 0, 59, 78
1, 181646, Control_c, 0, 67, 115
1, 181672, Note_off_c, 0, 51, 62
1, 181692, Note_off_c, 0, 70, 61
1, 181698, Note_off_c, 0, 67, 61
1, 181703, Note_on_c, 0, 62, 62
1, 181708, Note_on_c, 0, 65, 66
1, 181734, Control_c, 0, 64, 57
1, 181749, Control_c, 0, 64, 65
1, 181764, Control_c, 0, 64, 69
1, 181780, Control_c, 0, 64, 73
1, 181794, Control_c, 0, 64, 74
1, 181806, Note_off_c, 0, 62, 55
1, 181809, Control_c, 0, 64, 76
1, 181821, Note_off_c, 0, 59, 59
1, 181824, Control_c, 0, 64, 78
1, 181839, Control_c, 0, 64, 79
1, 181842, Note_on_c, 0, 51, 46
1, 181854, Control_c, 0, 64, 80
1, 181868, Control_c, 0, 64, 81
1, 181883, Control_c, 0, 64, 82
1, 181898, Control_c, 0, 64, 84
1, 181900, Note_off_c, 0, 65, 50
1, 181913, Control_c, 0, 64, 86
1, 181928, Control_c, 0, 64, 88
1, 181943, Control_c, 0, 64, 91
1, 181951, Note_off_c, 0, 51, 33
1, 181958, Control_c, 0, 64, 93
1, 181978, Note_on_c, 0, 43, 53
1, 181980, Control_c, 0, 64, 97
1, 181994, Control_c, 0, 64, 101
1, 182009, Control_c, 0, 64, 108
1, 182024, Control_c, 0, 64, 127
1, 182047, Note_on_c, 0, 65, 58
1, 182060, Note_on_c, 0, 68, 58
1, 182086, Note_on_c, 0, 51, 63
1, 182128, Control_c, 0, 67, 117
1, 182138, Note_off_c, 0, 43, 32
1, 182154, Note_off_c, 0, 68, 48
1, 182157, Note_off_c, 0, 65, 34
1, 182157, Control_c, 0, 64, 79
1, 182163, Note_off_c, 0, 51, 59
1, 182165, Note_on_c, 0, 58, 80
1, 182166, Note_on_c, 0, 63, 67
1, 182169, Note_on_c, 0, 60, 65
1, 182172, Control_c, 0, 64, 53
1, 182187, Control_c, 0, 64, 0
1, 182202, Control_c, 0, 64, 34
1, 182217, Control_c, 0, 64, 57
1, 182232, Control_c, 0, 64, 72
1, 182247, Control_c, 0, 64, 89
1, 182262, Control_c, 0, 64, 115
1, 182266, Note_off_c, 0, 58, 51
1, 182276, Control_c, 0, 64, 127
1, 182294, Note_on_c, 0, 51, 56
1, 182319, Note_off_c, 0, 60, 51
1, 182387, Note_off_c, 0, 63, 56
1, 182406, Note_off_c, 0, 51, 61
1, 182415, Note_on_c, 0, 43, 62
1, 182494, Note_on_c, 0, 67, 66
1, 182496, Note_on_c, 0, 63, 73
1, 182499, Control_c, 0, 67, 115
1, 182518, Note_on_c, 0, 51, 72
1, 182524, Note_off_c, 0, 67, 64
1, 182529, Control_c, 0, 67, 113
1, 182543, Control_c, 0, 64, 84
1, 182545, Note_off_c, 0, 63, 56
1, 182558, Control_c, 0, 64, 75
1, 182558, Control_c, 0, 67, 111
1, 182573, Control_c, 0, 64, 76
1, 182573, Control_c, 0, 67, 108
1, 182588, Control_c, 0, 64, 88
1, 182588, Control_c, 0, 67, 99
1, 182595, Note_on_c, 0, 59, 68
1, 182596, Note_on_c, 0, 56, 82
1, 182597, Note_on_c, 0, 62, 77
1, 182603, Control_c, 0, 64, 127
1, 182603, Control_c, 0, 67, 84
1, 182617, Control_c, 0, 67, 69
1, 182626, Note_off_c, 0, 62, 62
1, 182632, Control_c, 0, 67, 57
1, 182637, Note_off_c, 0, 51, 56
1, 182638, Note_off_c, 0, 59, 57
1, 182647, Control_c, 0, 67, 49
1, 182662, Control_c, 0, 67, 40
1, 182670, Note_off_c, 0, 56, 60
1, 182677, Control_c, 0, 67, 32
1, 182691, Control_c, 0, 67, 25
1, 182702, Note_on_c, 0, 65, 65
1, 182706, Control_c, 0, 67, 21
1, 182717, Note_on_c, 0, 62, 62
1, 182724, Note_on_c, 0, 50, 52
1, 182733, Note_off_c, 0, 43, 60
1, 182751, Note_off_c, 0, 50, 55
1, 182799, Note_off_c, 0, 65, 61
1, 182803, Control_c, 0, 67, 23
1, 182829, Note_off_c, 0, 62, 58
1, 182832, Control_c, 0, 64, 76
1, 182832, Control_c, 0, 67, 25
1, 182845, Note_on_c, 0, 32, 77
1, 182847, Control_c, 0, 64, 36
1, 182862, Control_c, 0, 64, 0
1, 182870, Note_on_c, 0, 54, 80
1, 182873, Note_on_c, 0, 60, 74
1, 182891, Control_c, 0, 67, 27
1, 182921, Control_c, 0, 67, 29
1, 182936, Control_c, 0, 64, 51
1, 182947, Note_off_c, 0, 54, 63
1, 182950, Control_c, 0, 64, 62
1, 182957, Note_off_c, 0, 32, 60
1, 182965, Control_c, 0, 64, 67
1, 182979, Note_off_c, 0, 60, 63
1, 182980, Control_c, 0, 64, 73
1, 182984, Note_on_c, 0, 44, 61
1, 182995, Control_c, 0, 64, 85
1, 183010, Control_c, 0, 64, 127
1, 183013, Note_off_c, 0, 44, 65
1, 183114, Control_c, 0, 67, 26
1, 183117, Note_on_c, 0, 51, 65
1, 183123, Note_on_c, 0, 54, 64
1, 183167, Note_off_c, 0, 51, 58
1, 183189, Control_c, 0, 67, 24
1, 183204, Control_c, 0, 67, 20
1, 183219, Control_c, 0, 67, 0
1, 183224, Note_on_c, 0, 60, 63
1, 183234, Note_off_c, 0, 54, 60
1, 183236, Note_on_c, 0, 81, 86
1, 183246, Note_on_c, 0, 78, 82
1, 183250, Note_off_c, 0, 60, 69
1, 183352, Control_c, 0, 64, 94
1, 183356, Note_on_c, 0, 57, 68
1, 183358, Note_on_c, 0, 54, 66
1, 183358, Note_on_c, 0, 61, 72
1, 183364, Note_off_c, 0, 81, 64
1, 183366, Control_c, 0, 64, 43
1, 183369, Note_on_c, 0, 76, 77
1, 183371, Note_on_c, 0, 69, 61
1, 183372, Note_on_c, 0, 73, 71
1, 183381, Control_c, 0, 64, 0
1, 183389, Note_off_c, 0, 78, 62
1, 183426, Control_c, 0, 64, 35
1, 183440, Control_c, 0, 64, 51
1, 183450, Note_off_c, 0, 76, 63
1, 183463, Control_c, 0, 64, 64
1, 183469, Note_off_c, 0, 61, 37
1, 183471, Note_off_c, 0, 57, 56
1, 183478, Control_c, 0, 64, 74
1, 183480, Note_on_c, 0, 52, 58
1, 183486, Note_off_c, 0, 54, 62
1, 183492, Control_c, 0, 64, 80
1, 183500, Note_off_c, 0, 73, 62
1, 183507, Control_c, 0, 64, 83
1, 183511, Note_off_c, 0, 69, 63
1, 183511, Note_off_c, 0, 52, 62
1, 183522, Control_c, 0, 64, 87
1, 183537, Control_c, 0, 64, 97
1, 183552, Control_c, 0, 64, 119
1, 183566, Control_c, 0, 64, 127
1, 183715, Note_on_c, 0, 44, 74
1, 183735, Note_on_c, 0, 80, 85
1, 183743, Note_on_c, 0, 76, 83
1, 183750, Note_off_c, 0, 44, 67
1, 183803, Control_c, 0, 64, 91
1, 183818, Control_c, 0, 64, 57
1, 183833, Control_c, 0, 64, 0
1, 183842, Note_on_c, 0, 63, 79
1, 183846, Note_off_c, 0, 80, 62
1, 183849, Note_on_c, 0, 68, 78
1, 183851, Note_on_c, 0, 75, 64
1, 183851, Note_on_c, 0, 72, 72
1, 183855, Note_on_c, 0, 60, 53
1, 183858, Note_off_c, 0, 76, 64
1, 183860, Note_on_c, 0, 56, 69
1, 183892, Control_c, 0, 64, 55
1, 183907, Control_c, 0, 64, 66
1, 183922, Control_c, 0, 64, 75
1, 183923, Note_off_c, 0, 63, 54
1, 183934, Note_off_c, 0, 72, 60
1, 183935, Note_off_c, 0, 75, 63
1, 183937, Control_c, 0, 64, 85
1, 183944, Note_off_c, 0, 60, 60
1, 183952, Control_c, 0, 64, 100
1, 183961, Note_on_c, 0, 54, 70
1, 183966, Note_off_c, 0, 56, 61
1, 183966, Control_c, 0, 64, 127
1, 184005, Note_off_c, 0, 54, 62
1, 184049, Poly_aftertouch_c, 0, 75, 127
1, 184090, Poly_aftertouch_c, 0, 75, 0
1, 184130, Note_off_c, 0, 68, 55
1, 184153, Note_on_c, 0, 44, 68
1, 184169, Note_on_c, 0, 78, 78
1, 184174, Note_on_c, 0, 75, 73
1, 184182, Note_off_c, 0, 44, 66
1, 184219, Note_off_c, 0, 78, 64
1, 184256, Control_c, 0, 64, 115
1, 184262, Note_off_c, 0, 75, 62
1, 184271, Control_c, 0, 64, 108
1, 184274, Note_on_c, 0, 64, 81
1, 184274, Note_on_c, 0, 73, 84
1, 184278, Note_on_c, 0, 69, 75
1, 184281, Note_on_c, 0, 67, 76
1, 184288, Note_on_c, 0, 61, 75
1, 184292, Note_on_c, 0, 57, 71
1, 184301, Control_c, 0, 64, 127
1, 184334, Note_off_c, 0, 64, 60
1, 184343, Note_off_c, 0, 67, 60
1, 184349, Note_off_c, 0, 61, 63
1, 184354, Note_off_c, 0, 69, 61
1, 184356, Note_off_c, 0, 73, 62
1, 184376, Note_on_c, 0, 74, 88
1, 184378, Note_on_c, 0, 55, 84
1, 184382, Note_off_c, 0, 57, 32
1, 184383, Note_on_c, 0, 77, 81
1, 184399, Note_off_c, 0, 55, 69
1, 184463, Control_c, 0, 64, 84
1, 184478, Control_c, 0, 64, 48
1, 184491, Note_on_c, 0, 57, 91
1, 184493, Control_c, 0, 64, 0
1, 184506, Note_off_c, 0, 77, 59
1, 184512, Note_on_c, 0, 53, 65
1, 184540, Note_on_c, 0, 72, 78
1, 184549, Note_on_c, 0, 69, 76
1, 184551, Note_on_c, 0, 65, 82
1, 184552, Control_c, 0, 64, 59
1, 184558, Note_off_c, 0, 74, 59
1, 184567, Control_c, 0, 64, 68
1, 184582, Control_c, 0, 64, 73
1, 184596, Control_c, 0, 64, 74
1, 184611, Control_c, 0, 64, 74
1, 184613, Note_off_c, 0, 57, 59
1, 184626, Control_c, 0, 64, 77
1, 184635, Note_off_c, 0, 53, 59
1, 184641, Control_c, 0, 64, 80
1, 184650, Note_off_c, 0, 69, 58
1, 184650, Note_off_c, 0, 72, 60
1, 184655, Control_c, 0, 64, 84
1, 184670, Note_on_c, 0, 43, 53
1, 184670, Control_c, 0, 64, 87
1, 184685, Control_c, 0, 64, 88
1, 184700, Note_off_c, 0, 43, 53
1, 184700, Control_c, 0, 64, 89
1, 184715, Control_c, 0, 64, 92
1, 184727, Poly_aftertouch_c, 0, 45, 0
1, 184730, Control_c, 0, 64, 96
1, 184745, Control_c, 0, 64, 105
1, 184757, Note_on_c, 0, 45, 20
1, 184760, Control_c, 0, 64, 127
1, 184805, Note_off_c, 0, 65, 60
1, 184830, Note_off_c, 0, 45, 60
1, 184838, Note_on_c, 0, 33, 76
1, 184840, Note_on_c, 0, 72, 78
1, 184840, Note_on_c, 0, 76, 80
1, 184870, Note_off_c, 0, 33, 64
1, 184924, Note_off_c, 0, 76, 54
1, 184951, Note_on_c, 0, 70, 88
1, 184951, Note_on_c, 0, 67, 82
1, 184952, Note_on_c, 0, 64, 81
1, 184953, Control_c, 0, 64, 64
1, 184953, Control_c, 0, 67, 27
1, 184954, Note_on_c, 0, 58, 85
1, 184966, Note_off_c, 0, 72, 39
1, 184975, Control_c, 0, 64, 0
1, 184992, Note_on_c, 0, 55, 57
1, 185005, Control_c, 0, 67, 23
1, 185019, Control_c, 0, 64, 57
1, 185019, Control_c, 0, 67, 20
1, 185034, Control_c, 0, 64, 74
1, 185049, Control_c, 0, 64, 102
1, 185064, Control_c, 0, 64, 127
1, 185064, Control_c, 0, 67, 24
1, 185083, Note_off_c, 0, 58, 60
1, 185094, Control_c, 0, 67, 22
1, 185109, Control_c, 0, 67, 0
1, 185156, Note_off_c, 0, 70, 61
1, 185171, Note_off_c, 0, 55, 30
1, 185182, Note_on_c, 0, 45, 82
1, 185187, Note_off_c, 0, 64, 54
1, 185229, Note_off_c, 0, 67, 52
1, 185244, Note_off_c, 0, 45, 61
1, 185263, Note_on_c, 0, 70, 81
1, 185267, Note_on_c, 0, 74, 77
1, 185275, Note_on_c, 0, 55, 83
1, 185297, Note_off_c, 0, 74, 59
1, 185315, Note_off_c, 0, 70, 60
1, 185362, Note_on_c, 0, 60, 78
1, 185365, Note_on_c, 0, 69, 81
1, 185366, Note_on_c, 0, 63, 86
1, 185377, Note_on_c, 0, 53, 79
1, 185401, Note_off_c, 0, 55, 62
1, 185410, Note_off_c, 0, 63, 60
1, 185419, Note_off_c, 0, 60, 64
1, 185428, Note_off_c, 0, 69, 61
1, 185454, Note_off_c, 0, 53, 61
1, 185456, Note_on_c, 0, 69, 70
1, 185469, Note_on_c, 0, 47, 72
1, 185472, Note_on_c, 0, 72, 78
1, 185495, Note_off_c, 0, 47, 66
1, 185508, Control_c, 0, 64, 79
1, 185523, Control_c, 0, 64, 0
1, 185553, Note_off_c, 0, 72, 58
1, 185583, Note_on_c, 0, 34, 93
1, 185596, Note_on_c, 0, 68, 86
1, 185597, Note_on_c, 0, 62, 77
1, 185598, Note_on_c, 0, 65, 87
1, 185598, Control_c, 0, 67, 51
1, 185611, Note_off_c, 0, 69, 0
1, 185611, Note_on_c, 0, 69, 2
1, 185613, Note_off_c, 0, 69, 58
1, 185613, Control_c, 0, 64, 65
1, 185613, Control_c, 0, 67, 58
1, 185627, Note_off_c, 0, 62, 64
1, 185628, Control_c, 0, 64, 111
1, 185628, Control_c, 0, 67, 53
1, 185642, Control_c, 0, 64, 127
1, 185655, Note_off_c, 0, 65, 62
1, 185672, Control_c, 0, 67, 55
1, 185675, Note_off_c, 0, 34, 62
1, 185687, Note_on_c, 0, 46, 84
1, 185687, Control_c, 0, 67, 57
1, 185687, Note_off_c, 0, 68, 62
1, 185702, Control_c, 0, 67, 56
1, 185724, Control_c, 0, 67, 52
1, 185734, Note_off_c, 0, 46, 62
1, 185739, Control_c, 0, 67, 48
1, 185754, Control_c, 0, 67, 41
1, 185768, Control_c, 0, 67, 37
1, 185783, Control_c, 0, 67, 36
1, 185798, Control_c, 0, 67, 34
1, 185813, Control_c, 0, 67, 26
1, 185825, Note_on_c, 0, 56, 84
1, 185828, Control_c, 0, 67, 0
1, 185831, Note_on_c, 0, 53, 74
1, 185878, Note_off_c, 0, 53, 58
1, 185887, Poly_aftertouch_c, 0, 80, 127
1, 185906, Note_off_c, 0, 56, 0
1, 185917, Poly_aftertouch_c, 0, 80, 0
1, 185928, Note_on_c, 0, 62, 73
1, 185934, Note_on_c, 0, 83, 91
1, 185936, Note_on_c, 0, 80, 71
1, 185943, Poly_aftertouch_c, 0, 56, 127
1, 185962, Poly_aftertouch_c, 0, 56, 0
1, 185964, Note_off_c, 0, 62, 63
1, 186021, Control_c, 0, 64, 99
1, 186035, Control_c, 0, 64, 60
1, 186035, Control_c, 0, 67, 32
1, 186039, Note_on_c, 0, 63, 88
1, 186041, Note_off_c, 0, 83, 54
1, 186042, Note_on_c, 0, 71, 84
1, 186042, Note_on_c, 0, 75, 85
1, 186044, Note_on_c, 0, 78, 86
1, 186045, Note_on_c, 0, 59, 69
1, 186049, Note_on_c, 0, 56, 80
1, 186050, Control_c, 0, 64, 0
1, 186050, Control_c, 0, 67, 24
1, 186065, Control_c, 0, 67, 20
1, 186074, Note_off_c, 0, 80, 64
1, 186079, Control_c, 0, 67, 0
1, 186094, Control_c, 0, 64, 51
1, 186109, Control_c, 0, 64, 68
1, 186124, Control_c, 0, 64, 84
1, 186129, Note_off_c, 0, 63, 60
1, 186136, Note_off_c, 0, 59, 60
1, 186139, Control_c, 0, 64, 127
1, 186143, Note_off_c, 0, 75, 60
1, 186150, Note_on_c, 0, 54, 78
1, 186157, Note_off_c, 0, 78, 55
1, 186163, Note_off_c, 0, 56, 60
1, 186195, Note_off_c, 0, 54, 62
1, 186197, Note_off_c, 0, 71, 60
1, 186360, Note_on_c, 0, 44, 71
1, 186370, Note_on_c, 0, 78, 88
1, 186372, Note_on_c, 0, 82, 91
1, 186389, Note_off_c, 0, 44, 66
1, 186473, Control_c, 0, 64, 71
1, 186473, Control_c, 0, 67, 38
1, 186477, Note_on_c, 0, 65, 93
1, 186479, Note_off_c, 0, 82, 63
1, 186482, Note_on_c, 0, 62, 81
1, 186483, Note_on_c, 0, 58, 85
1, 186486, Note_on_c, 0, 74, 87
1, 186486, Note_on_c, 0, 77, 82
1, 186487, Note_on_c, 0, 70, 87
1, 186488, Control_c, 0, 64, 0
1, 186503, Control_c, 0, 67, 33
1, 186509, Note_off_c, 0, 78, 66
1, 186517, Control_c, 0, 67, 31
1, 186532, Control_c, 0, 67, 28
1, 186547, Control_c, 0, 64, 41
1, 186562, Note_off_c, 0, 65, 59
1, 186562, Control_c, 0, 64, 68
1, 186562, Control_c, 0, 67, 30
1, 186577, Control_c, 0, 64, 84
1, 186584, Note_off_c, 0, 62, 61
1, 186591, Control_c, 0, 64, 127
1, 186602, Note_on_c, 0, 56, 78
1, 186608, Note_off_c, 0, 74, 60
1, 186608, Note_off_c, 0, 58, 65
1, 186621, Control_c, 0, 67, 28
1, 186638, Note_off_c, 0, 77, 59
1, 186650, Note_off_c, 0, 56, 62
1, 186680, Control_c, 0, 67, 23
1, 186695, Control_c, 0, 67, 0
1, 186769, Note_off_c, 0, 70, 60
1, 186796, Note_on_c, 0, 44, 73
1, 186816, Note_on_c, 0, 80, 86
1, 186822, Note_on_c, 0, 77, 72
1, 186825, Note_off_c, 0, 44, 66
1, 186874, Note_off_c, 0, 80, 66
1, 186885, Note_off_c, 0, 77, 54
1, 186916, Note_on_c, 0, 58, 74
1, 186918, Note_on_c, 0, 75, 81
1, 186921, Note_on_c, 0, 71, 89
1, 186921, Note_on_c, 0, 69, 84
1, 186925, Note_on_c, 0, 66, 71
1, 186930, Note_on_c, 0, 63, 77
1, 186945, Note_on_c, 0, 59, 54
1, 186945, Note_off_c, 0, 58, 47
1, 186957, Note_off_c, 0, 63, 64
1, 186960, Note_off_c, 0, 66, 60
1, 186978, Note_off_c, 0, 59, 50
1, 186998, Note_off_c, 0, 69, 60
1, 187001, Note_on_c, 0, 56, 56
1, 187013, Note_off_c, 0, 71, 60
1, 187015, Note_on_c, 0, 57, 80
1, 187018, Note_on_c, 0, 76, 93
1, 187026, Note_off_c, 0, 56, 42
1, 187027, Note_on_c, 0, 79, 91
1, 187040, Note_off_c, 0, 57, 68
1, 187048, Note_off_c, 0, 75, 62
1, 187058, Poly_aftertouch_c, 0, 58, 0
1, 187110, Control_c, 0, 64, 72
1, 187125, Control_c, 0, 64, 0
1, 187126, Note_on_c, 0, 59, 95
1, 187138, Note_on_c, 0, 55, 76
1, 187140, Control_c, 0, 67, 20
1, 187143, Note_off_c, 0, 79, 65
1, 187155, Control_c, 0, 67, 80
1, 187160, Note_on_c, 0, 67, 84
1, 187161, Note_on_c, 0, 74, 87
1, 187162, Note_on_c, 0, 71, 88
1, 187168, Note_on_c, 0, 57, 42
1, 187168, Note_off_c, 0, 57, 127
1, 187170, Control_c, 0, 67, 81
1, 187186, Control_c, 0, 64, 40
1, 187186, Control_c, 0, 67, 75
1, 187189, Note_off_c, 0, 76, 59
1, 187207, Control_c, 0, 64, 73
1, 187207, Control_c, 0, 67, 73
1, 187222, Control_c, 0, 64, 99
1, 187237, Control_c, 0, 64, 127
1, 187237, Control_c, 0, 67, 74
1, 187252, Note_off_c, 0, 59, 61
1, 187252, Control_c, 0, 67, 77
1, 187259, Note_off_c, 0, 55, 58
1, 187267, Control_c, 0, 67, 76
1, 187267, Note_off_c, 0, 74, 63
1, 187282, Control_c, 0, 67, 72
1, 187285, Note_off_c, 0, 71, 61
1, 187288, Note_on_c, 0, 47, 77
1, 187297, Control_c, 0, 67, 67
1, 187311, Control_c, 0, 67, 59
1, 187314, Note_off_c, 0, 47, 69
1, 187326, Control_c, 0, 67, 48
1, 187341, Control_c, 0, 67, 41
1, 187356, Control_c, 0, 67, 37
1, 187371, Control_c, 0, 67, 26
1, 187375, Note_off_c, 0, 67, 61
1, 187386, Control_c, 0, 67, 0
1, 187389, Note_on_c, 0, 47, 76
1, 187426, Note_on_c, 0, 48, 32
1, 187441, Note_off_c, 0, 47, 63
1, 187464, Note_off_c, 0, 48, 51
1, 187472, Note_on_c, 0, 35, 88
1, 187482, Note_on_c, 0, 74, 89
1, 187484, Note_on_c, 0, 78, 84
1, 187499, Note_off_c, 0, 35, 67
1, 187553, Note_off_c, 0, 78, 64
1, 187584, Note_on_c, 0, 72, 89
1, 187587, Note_on_c, 0, 60, 95
1, 187587, Note_on_c, 0, 66, 97
1, 187589, Note_on_c, 0, 69, 88
1, 187592, Note_off_c, 0, 74, 59
1, 187593, Control_c, 0, 64, 67
1, 187593, Control_c, 0, 67, 39
1, 187601, Note_on_c, 0, 57, 82
1, 187607, Control_c, 0, 64, 0
1, 187607, Control_c, 0, 67, 58
1, 187622, Control_c, 0, 67, 53
1, 187637, Control_c, 0, 67, 48
1, 187652, Control_c, 0, 64, 70
1, 187652, Control_c, 0, 67, 38
1, 187666, Control_c, 0, 64, 127
1, 187666, Control_c, 0, 67, 23
1, 187681, Control_c, 0, 67, 0
1, 187744, Note_off_c, 0, 66, 52
1, 187769, Note_off_c, 0, 60, 54
1, 187786, Note_off_c, 0, 57, 60
1, 187806, Note_on_c, 0, 47, 83
1, 187813, Note_off_c, 0, 72, 55
1, 187821, Note_off_c, 0, 69, 54
1, 187870, Note_off_c, 0, 47, 63
1, 187896, Note_on_c, 0, 76, 88
1, 187899, Note_on_c, 0, 72, 85
1, 187900, Note_on_c, 0, 57, 85
1, 187950, Note_off_c, 0, 76, 62
1, 187968, Note_off_c, 0, 72, 54
1, 187970, Control_c, 0, 67, 21
1, 187986, Control_c, 0, 64, 98
1, 187986, Control_c, 0, 67, 26
1, 187991, Note_on_c, 0, 62, 72
1, 187995, Note_on_c, 0, 55, 79
1, 188001, Note_on_c, 0, 65, 89
1, 188001, Control_c, 0, 64, 127
1, 188001, Control_c, 0, 67, 0
1, 188003, Note_on_c, 0, 71, 88
1, 188006, Note_on_c, 0, 67, 85
1, 188036, Note_off_c, 0, 57, 54
1, 188061, Note_off_c, 0, 62, 62
1, 188062, Note_off_c, 0, 65, 60
1, 188080, Note_off_c, 0, 67, 62
1, 188086, Note_off_c, 0, 71, 0
1, 188092, Note_off_c, 0, 55, 64
1, 188098, Note_on_c, 0, 71, 69
1, 188106, Note_on_c, 0, 47, 70
1, 188111, Note_on_c, 0, 74, 85
1, 188118, Note_on_c, 0, 48, 61
1, 188128, Note_off_c, 0, 47, 72
1, 188134, Control_c, 0, 64, 67
1, 188140, Note_off_c, 0, 48, 61
1, 188149, Control_c, 0, 64, 0
1, 188172, Note_off_c, 0, 71, 63
1, 188179, Note_off_c, 0, 74, 53
1, 188215, Note_on_c, 0, 36, 94
1, 188221, Note_on_c, 0, 70, 96
1, 188223, Note_on_c, 0, 67, 90
1, 188224, Control_c, 0, 67, 55
1, 188235, Note_on_c, 0, 64, 71
1, 188236, Note_on_c, 0, 71, 33
1, 188236, Note_on_c, 0, 62, 72
1, 188238, Control_c, 0, 64, 55
1, 188238, Control_c, 0, 67, 121
1, 188253, Control_c, 0, 64, 127
1, 188253, Control_c, 0, 67, 127
1, 188257, Note_off_c, 0, 62, 65
1, 188260, Note_off_c, 0, 64, 65
1, 188268, Note_off_c, 0, 71, 55
1, 188282, Control_c, 0, 67, 113
1, 188284, Note_off_c, 0, 36, 61
1, 188292, Note_off_c, 0, 67, 63
1, 188297, Control_c, 0, 67, 81
1, 188312, Control_c, 0, 67, 43
1, 188313, Note_off_c, 0, 70, 58
1, 188322, Note_on_c, 0, 48, 90
1, 188327, Control_c, 0, 67, 21
1, 188342, Control_c, 0, 67, 19
1, 188347, Note_off_c, 0, 48, 69
1, 188356, Control_c, 0, 67, 0
1, 188435, Note_on_c, 0, 55, 80
1, 188445, Note_on_c, 0, 58, 74
1, 188468, Note_on_c, 0, 82, 45
1, 188500, Note_off_c, 0, 82, 49
1, 188507, Note_off_c, 0, 58, 63
1, 188516, Note_off_c, 0, 55, 61
1, 188540, Note_on_c, 0, 85, 94
1, 188543, Note_on_c, 0, 64, 89
1, 188547, Note_on_c, 0, 58, 57
1, 188547, Note_on_c, 0, 82, 96
1, 188570, Note_off_c, 0, 58, 70
1, 188575, Note_off_c, 0, 64, 62
1, 188638, Note_on_c, 0, 58, 90
1, 188644, Note_off_c, 0, 85, 64
1, 188649, Note_on_c, 0, 80, 91
1, 188650, Note_on_c, 0, 67, 87
1, 188650, Note_on_c, 0, 73, 94
1, 188651, Note_on_c, 0, 77, 87
1, 188652, Note_on_c, 0, 65, 88
1, 188652, Control_c, 0, 64, 59
1, 188652, Control_c, 0, 67, 50
1, 188653, Note_on_c, 0, 61, 84
1, 188659, Note_on_c, 0, 59, 75
1, 188667, Control_c, 0, 64, 0
1, 188667, Control_c, 0, 67, 86
1, 188671, Note_off_c, 0, 82, 61
1, 188681, Control_c, 0, 67, 84
1, 188696, Control_c, 0, 67, 80
1, 188718, Control_c, 0, 64, 59
1, 188718, Control_c, 0, 67, 76
1, 188733, Control_c, 0, 64, 89
1, 188733, Control_c, 0, 67, 71
1, 188737, Note_off_c, 0, 67, 56
1, 188741, Note_off_c, 0, 58, 58
1, 188748, Control_c, 0, 64, 127
1, 188748, Control_c, 0, 67, 71
1, 188750, Note_off_c, 0, 65, 51
1, 188763, Control_c, 0, 67, 74
1, 188763, Note_off_c, 0, 59, 61
1, 188772, Note_on_c, 0, 56, 85
1, 188784, Note_off_c, 0, 77, 56
1, 188790, Note_off_c, 0, 61, 61
1, 188793, Control_c, 0, 67, 71
1, 188808, Control_c, 0, 67, 65
1, 188823, Note_off_c, 0, 56, 62
1, 188823, Control_c, 0, 67, 57
1, 188832, Note_off_c, 0, 80, 54
1, 188838, Control_c, 0, 67, 46
1, 188853, Control_c, 0, 67, 33
1, 188868, Control_c, 0, 67, 0
1, 188918, Note_off_c, 0, 73, 60
1, 188996, Note_on_c, 0, 48, 85
1, 188998, Note_on_c, 0, 84, 100
1, 189004, Note_on_c, 0, 80, 91
1, 189021, Note_off_c, 0, 48, 68
1, 189090, Poly_aftertouch_c, 0, 81, 127
1, 189090, Control_c, 0, 64, 100
1, 189103, Note_on_c, 0, 72, 94
1, 189103, Note_on_c, 0, 79, 92
1, 189104, Control_c, 0, 64, 58
1, 189104, Control_c, 0, 67, 53
1, 189105, Note_on_c, 0, 67, 93
1, 189106, Note_off_c, 0, 84, 35
1, 189107, Note_on_c, 0, 76, 93
1, 189110, Note_on_c, 0, 64, 79
1, 189110, Poly_aftertouch_c, 0, 81, 0
1, 189113, Note_on_c, 0, 60, 83
1, 189118, Note_off_c, 0, 80, 63
1, 189119, Control_c, 0, 64, 0
1, 189119, Control_c, 0, 67, 105
1, 189134, Control_c, 0, 67, 117
1, 189149, Control_c, 0, 64, 34
1, 189149, Control_c, 0, 67, 114
1, 189164, Control_c, 0, 64, 66
1, 189164, Control_c, 0, 67, 108
1, 189178, Control_c, 0, 64, 112
1, 189178, Control_c, 0, 67, 100
1, 189193, Control_c, 0, 64, 127
1, 189193, Control_c, 0, 67, 90
1, 189195, Note_off_c, 0, 79, 63
1, 189198, Note_off_c, 0, 76, 64
1, 189208, Control_c, 0, 67, 88
1, 189222, Control_c, 0, 67, 90
1, 189231, Note_on_c, 0, 58, 81
1, 189234, Note_off_c, 0, 64, 63
1, 189237, Control_c, 0, 67, 86
1, 189238, Note_off_c, 0, 60, 61
1, 189240, Note_off_c, 0, 67, 62
1, 189252, Control_c, 0, 67, 76
1, 189268, Control_c, 0, 67, 54
1, 189280, Note_off_c, 0, 58, 64
1, 189283, Control_c, 0, 67, 25
1, 189298, Control_c, 0, 67, 0
1, 189338, Note_off_c, 0, 72, 54
1, 189410, Note_on_c, 0, 48, 79
1, 189434, Note_off_c, 0, 48, 66
1, 189437, Note_on_c, 0, 79, 85
1, 189442, Note_on_c, 0, 82, 93
1, 189527, Control_c, 0, 67, 63
1, 189532, Note_off_c, 0, 82, 63
1, 189542, Control_c, 0, 67, 79
1, 189546, Note_on_c, 0, 70, 95
1, 189547, Note_on_c, 0, 68, 98
1, 189550, Note_on_c, 0, 77, 81
1, 189556, Note_on_c, 0, 73, 85
1, 189557, Control_c, 0, 67, 70
1, 189558, Note_on_c, 0, 61, 82
1, 189558, Note_off_c, 0, 79, 66
1, 189572, Control_c, 0, 67, 56
1, 189574, Note_on_c, 0, 65, 60
1, 189588, Control_c, 0, 67, 25
1, 189602, Control_c, 0, 67, 0
1, 189616, Note_off_c, 0, 65, 58
1, 189616, Note_off_c, 0, 68, 60
1, 189633, Note_off_c, 0, 61, 58
1, 189643, Note_off_c, 0, 70, 60
1, 189651, Note_on_c, 0, 80, 92
1, 189651, Note_off_c, 0, 73, 61
1, 189654, Note_on_c, 0, 58, 86
1, 189657, Note_off_c, 0, 77, 64
1, 189691, Control_c, 0, 64, 74
1, 189706, Control_c, 0, 64, 0
1, 189722, Note_off_c, 0, 80, 62
1, 189735, Note_off_c, 0, 58, 58
1, 189756, Note_on_c, 0, 73, 91
1, 189764, Note_on_c, 0, 60, 69
1, 189764, Note_on_c, 0, 67, 94
1, 189765, Note_on_c, 0, 76, 98
1, 189766, Note_on_c, 0, 70, 90
1, 189768, Note_on_c, 0, 64, 69
1, 189780, Control_c, 0, 67, 32
1, 189795, Control_c, 0, 64, 83
1, 189795, Control_c, 0, 67, 120
1, 189802, Note_on_c, 0, 75, 37
1, 189809, Control_c, 0, 64, 127
1, 189809, Control_c, 0, 67, 127
1, 189818, Note_off_c, 0, 70, 64
1, 189833, Note_off_c, 0, 75, 58
1, 189836, Note_off_c, 0, 73, 60
1, 189853, Note_off_c, 0, 64, 59
1, 189854, Control_c, 0, 67, 120
1, 189869, Control_c, 0, 67, 82
1, 189882, Note_off_c, 0, 60, 61
1, 189884, Control_c, 0, 67, 49
1, 189887, Note_on_c, 0, 72, 52
1, 189888, Note_on_c, 0, 55, 84
1, 189899, Control_c, 0, 67, 47
1, 189914, Control_c, 0, 67, 45
1, 189928, Control_c, 0, 67, 36
1, 189931, Note_off_c, 0, 55, 64
1, 189943, Control_c, 0, 67, 0
1, 189997, Note_on_c, 0, 58, 88
1, 190025, Note_off_c, 0, 67, 56
1, 190042, Note_off_c, 0, 72, 41
1, 190042, Note_off_c, 0, 58, 64
1, 190045, Note_off_c, 0, 76, 57
1, 190105, Note_on_c, 0, 48, 82
1, 190110, Note_on_c, 0, 79, 96
1, 190128, Note_off_c, 0, 48, 70
1, 190171, Note_off_c, 0, 79, 66
1, 190217, Control_c, 0, 64, 70
1, 190232, Control_c, 0, 64, 0
1, 190235, Note_on_c, 0, 71, 101
1, 190238, Note_on_c, 0, 73, 103
1, 190239, Note_on_c, 0, 65, 96
1, 190243, Note_on_c, 0, 61, 87
1, 190247, Control_c, 0, 67, 97
1, 190261, Control_c, 0, 67, 127
1, 190276, Control_c, 0, 64, 64
1, 190283, Note_off_c, 0, 71, 63
1, 190291, Control_c, 0, 64, 127
1, 190335, Control_c, 0, 67, 113
1, 190367, Note_on_c, 0, 56, 81
1, 190367, Note_off_c, 0, 61, 60
1, 190381, Control_c, 0, 67, 105
1, 190396, Control_c, 0, 67, 85
1, 190397, Note_on_c, 0, 58, 38
1, 190411, Control_c, 0, 67, 50
1, 190413, Note_off_c, 0, 56, 58
1, 190426, Control_c, 0, 67, 0
1, 190435, Note_off_c, 0, 58, 49
1, 190498, Note_on_c, 0, 59, 89
1, 190542, Note_off_c, 0, 59, 66
1, 190548, Note_off_c, 0, 65, 54
1, 190608, Note_off_c, 0, 73, 58
1, 190619, Note_on_c, 0, 48, 83
1, 190628, Note_on_c, 0, 77, 95
1, 190641, Note_off_c, 0, 48, 71
1, 190707, Control_c, 0, 64, 99
1, 190722, Control_c, 0, 64, 60
1, 190722, Note_off_c, 0, 77, 62
1, 190737, Control_c, 0, 64, 0
1, 190751, Control_c, 0, 67, 41
1, 190766, Control_c, 0, 64, 34
1, 190766, Control_c, 0, 67, 109
1, 190771, Note_on_c, 0, 60, 63
1, 190776, Note_on_c, 0, 67, 94
1, 190776, Note_on_c, 0, 72, 97
1, 190777, Note_on_c, 0, 70, 95
1, 190781, Control_c, 0, 64, 82
1, 190781, Control_c, 0, 67, 127
1, 190781, Note_on_c, 0, 64, 64
1, 190795, Control_c, 0, 64, 127
1, 190810, Control_c, 0, 67, 115
1, 190825, Control_c, 0, 67, 75
1, 190840, Control_c, 0, 67, 24
1, 190853, Note_off_c, 0, 70, 64
1, 190855, Control_c, 0, 67, 0
1, 190917, Note_off_c, 0, 60, 61
1, 190960, Note_on_c, 0, 76, 102
1, 190966, Note_on_c, 0, 55, 91
1, 190968, Note_off_c, 0, 64, 53
1, 190978, Note_off_c, 0, 72, 60
1, 191003, Note_off_c, 0, 67, 65
1, 191004, Note_off_c, 0, 76, 67
1, 191006, Note_off_c, 0, 55, 67
1, 191073, Poly_aftertouch_c, 0, 58, 0
1, 191207, Note_on_c, 0, 40, 99
1, 191212, Note_on_c, 0, 28, 91
1, 191233, Control_c, 0, 64, 103
1, 191248, Control_c, 0, 64, 55
1, 191253, Note_on_c, 0, 71, 94
1, 191255, Note_on_c, 0, 64, 91
1, 191257, Note_on_c, 0, 67, 86
1, 191263, Control_c, 0, 64, 0
1, 191327, Note_off_c, 0, 64, 62
1, 191337, Control_c, 0, 64, 62
1, 191352, Control_c, 0, 64, 72
1, 191360, Note_off_c, 0, 67, 63
1, 191364, Note_off_c, 0, 71, 66
1, 191367, Control_c, 0, 64, 76
1, 191381, Control_c, 0, 64, 81
1, 191396, Control_c, 0, 64, 97
1, 191411, Control_c, 0, 64, 127
1, 191422, Note_off_c, 0, 28, 60
1, 191512, Note_off_c, 0, 40, 61
1, 191588, Note_on_c, 0, 85, 103
1, 191589, Note_on_c, 0, 76, 96
1, 191765, Note_on_c, 0, 75, 62
1, 191772, Note_off_c, 0, 85, 62
1, 191778, Note_off_c, 0, 76, 56
1, 191789, Note_on_c, 0, 79, 49
1, 191792, Note_on_c, 0, 40, 61
1, 191798, Note_on_c, 0, 47, 58
1, 191828, Note_off_c, 0, 75, 63
1, 191828, Note_off_c, 0, 79, 53
1, 191920, Note_on_c, 0, 74, 99
1, 191920, Note_on_c, 0, 83, 102
1, 191950, Note_off_c, 0, 40, 54
1, 191955, Note_on_c, 0, 52, 68
1, 191974, Note_off_c, 0, 47, 61
1, 191997, Note_off_c, 0, 52, 61
1, 192061, Note_on_c, 0, 78, 70
1, 192081, Note_off_c, 0, 83, 65
1, 192088, Note_on_c, 0, 75, 45
1, 192090, Note_off_c, 0, 74, 56
1, 192105, Note_on_c, 0, 59, 76
1, 192110, Note_on_c, 0, 47, 65
1, 192110, Note_on_c, 0, 52, 65
1, 192110, Note_off_c, 0, 78, 65
1, 192114, Note_off_c, 0, 75, 54
1, 192188, Note_on_c, 0, 74, 99
1, 192191, Note_on_c, 0, 81, 100
1, 192284, Note_off_c, 0, 74, 50
1, 192301, Note_on_c, 0, 73, 65
1, 192317, Note_off_c, 0, 81, 64
1, 192322, Note_on_c, 0, 76, 64
1, 192329, Note_off_c, 0, 73, 66
1, 192341, Note_off_c, 0, 76, 63
1, 192377, Note_off_c, 0, 47, 62
1, 192388, Note_off_c, 0, 52, 62
1, 192409, Note_on_c, 0, 79, 99
1, 192416, Note_on_c, 0, 72, 91
1, 192443, Note_off_c, 0, 59, 62
1, 192525, Note_off_c, 0, 72, 60
1, 192527, Note_off_c, 0, 79, 65
1, 192537, Note_on_c, 0, 71, 71
1, 192544, Note_on_c, 0, 74, 68
1, 192549, Note_on_c, 0, 64, 85
1, 192554, Note_on_c, 0, 59, 86
1, 192563, Note_off_c, 0, 71, 66
1, 192572, Note_off_c, 0, 74, 66
1, 192632, Note_off_c, 0, 64, 60
1, 192641, Note_on_c, 0, 78, 97
1, 192643, Note_on_c, 0, 70, 98
1, 192654, Note_off_c, 0, 59, 63
1, 192712, Note_off_c, 0, 70, 61
1, 192740, Note_on_c, 0, 73, 82
1, 192741, Note_on_c, 0, 69, 78
1, 192746, Note_off_c, 0, 78, 61
1, 192779, Note_off_c, 0, 69, 60
1, 192781, Note_off_c, 0, 73, 59
1, 192840, Note_on_c, 0, 68, 96
1, 192841, Note_on_c, 0, 76, 97
1, 192865, Control_c, 0, 64, 81
1, 192880, Control_c, 0, 64, 59
1, 192895, Control_c, 0, 64, 55
1, 192910, Control_c, 0, 64, 66
1, 192925, Control_c, 0, 64, 101
1, 192931, Note_on_c, 0, 59, 82
1, 192932, Note_on_c, 0, 47, 81
1, 192932, Note_on_c, 0, 52, 85
1, 192937, Note_off_c, 0, 68, 60
1, 192937, Note_off_c, 0, 76, 69
1, 192938, Note_on_c, 0, 67, 75
1, 192939, Note_on_c, 0, 71, 82
1, 192939, Control_c, 0, 64, 127
1, 192960, Note_off_c, 0, 67, 70
1, 192973, Note_off_c, 0, 59, 64
1, 192981, Note_off_c, 0, 71, 65
1, 192981, Note_on_c, 0, 73, 6
1, 192990, Note_off_c, 0, 52, 63
1, 193002, Note_off_c, 0, 47, 63
1, 193035, Note_off_c, 0, 73, 52
1, 193065, Note_on_c, 0, 85, 101
1, 193068, Note_on_c, 0, 76, 105
1, 193125, Note_off_c, 0, 76, 54
1, 193139, Note_off_c, 0, 85, 66
1, 193176, Note_on_c, 0, 79, 74
1, 193183, Note_on_c, 0, 75, 68
1, 193205, Note_on_c, 0, 47, 75
1, 193209, Note_on_c, 0, 52, 77
1, 193210, Note_on_c, 0, 40, 76
1, 193217, Note_off_c, 0, 75, 66
1, 193232, Note_off_c, 0, 52, 71
1, 193233, Note_off_c, 0, 79, 66
1, 193248, Note_off_c, 0, 47, 61
1, 193267, Note_off_c, 0, 40, 61
1, 193273, Note_on_c, 0, 83, 89
1, 193282, Note_on_c, 0, 74, 82
1, 193324, Note_off_c, 0, 74, 61
1, 193340, Note_off_c, 0, 83, 62
1, 193348, Note_on_c, 0, 75, 88
1, 193366, Note_on_c, 0, 80, 51
1, 193389, Note_off_c, 0, 75, 63
1, 193390, Note_off_c, 0, 80, 58
1, 193396, Note_on_c, 0, 79, 14
1, 193432, Note_on_c, 0, 74, 73
1, 193432, Note_on_c, 0, 83, 76
1, 193439, Note_on_c, 0, 76, 76
1, 193440, Note_on_c, 0, 81, 80
1, 193451, Note_off_c, 0, 79, 36
1, 193452, Note_off_c, 0, 83, 72
1, 193460, Note_off_c, 0, 76, 70
1, 193461, Note_off_c, 0, 74, 67
1, 193467, Note_off_c, 0, 81, 63
1, 193504, Note_on_c, 0, 73, 86
1, 193510, Note_on_c, 0, 76, 88
1, 193523, Note_on_c, 0, 28, 85
1, 193525, Note_on_c, 0, 40, 93
1, 193543, Note_off_c, 0, 73, 59
1, 193547, Note_off_c, 0, 76, 56
1, 193560, Note_off_c, 0, 28, 60
1, 193573, Note_off_c, 0, 40, 63
1, 193588, Note_on_c, 0, 79, 92
1, 193606, Poly_aftertouch_c, 0, 78, 0
1, 193611, Note_on_c, 0, 72, 59
1, 193626, Note_off_c, 0, 79, 66
1, 193632, Note_off_c, 0, 72, 60
1, 193634, Note_on_c, 0, 71, 31
1, 193664, Note_on_c, 0, 72, 56
1, 193673, Note_on_c, 0, 74, 79
1, 193684, Note_off_c, 0, 72, 60
1, 193688, Note_off_c, 0, 71, 47
1, 193697, Note_on_c, 0, 75, 28
1, 193712, Note_off_c, 0, 74, 62
1, 193741, Note_on_c, 0, 78, 94
1, 193744, Note_off_c, 0, 75, 43
1, 193756, Note_on_c, 0, 71, 64
1, 193782, Note_off_c, 0, 71, 67
1, 193789, Note_off_c, 0, 78, 63
1, 193792, Note_on_c, 0, 70, 70
1, 193816, Note_off_c, 0, 70, 69
1, 193840, Note_on_c, 0, 47, 62
1, 193842, Note_on_c, 0, 40, 71
1, 193843, Note_on_c, 0, 73, 86
1, 193886, Note_off_c, 0, 40, 62
1, 193894, Note_off_c, 0, 73, 64
1, 193906, Note_off_c, 0, 47, 62
1, 193909, Note_on_c, 0, 69, 52
1, 193914, Note_on_c, 0, 52, 62
1, 193917, Note_on_c, 0, 76, 70
1, 193932, Note_off_c, 0, 52, 64
1, 193951, Note_off_c, 0, 76, 68
1, 193953, Note_off_c, 0, 69, 49
1, 193998, Note_on_c, 0, 71, 72
1, 194002, Note_on_c, 0, 73, 71
1, 194005, Note_on_c, 0, 67, 74
1, 194006, Note_on_c, 0, 47, 91
1, 194012, Note_on_c, 0, 59, 90
1, 194022, Note_on_c, 0, 53, 70
1, 194023, Note_on_c, 0, 52, 70
1, 194024, Note_off_c, 0, 73, 68
1, 194029, Note_off_c, 0, 67, 68
1, 194040, Note_off_c, 0, 59, 63
1, 194045, Note_off_c, 0, 71, 65
1, 194051, Note_off_c, 0, 52, 65
1, 194051, Note_off_c, 0, 53, 66
1, 194053, Note_off_c, 0, 47, 62
1, 194066, Note_on_c, 0, 74, 87
1, 194081, Note_on_c, 0, 67, 77
1, 194111, Note_off_c, 0, 67, 62
1, 194111, Note_off_c, 0, 74, 65
1, 194153, Note_on_c, 0, 69, 85
1, 194155, Note_on_c, 0, 66, 87
1, 194204, Note_off_c, 0, 69, 63
1, 194205, Note_off_c, 0, 66, 63
1, 194245, Note_on_c, 0, 73, 80
1, 194247, Note_on_c, 0, 71, 75
1, 194264, Note_on_c, 0, 74, 72
1, 194268, Note_off_c, 0, 71, 71
1, 194272, Control_c, 0, 64, 104
1, 194281, Note_off_c, 0, 74, 66
1, 194287, Control_c, 0, 64, 51
1, 194291, Note_off_c, 0, 73, 61
1, 194302, Control_c, 0, 64, 0
1, 194318, Note_on_c, 0, 43, 108
1, 194319, Note_on_c, 0, 31, 99
1, 194324, Note_on_c, 0, 38, 86
1, 194332, Control_c, 0, 64, 57
1, 194339, Note_on_c, 0, 68, 71
1, 194340, Note_on_c, 0, 64, 78
1, 194343, Note_on_c, 0, 67, 76
1, 194346, Control_c, 0, 64, 127
1, 194351, Note_on_c, 0, 69, 61
1, 194352, Note_on_c, 0, 62, 48
1, 194355, Note_off_c, 0, 68, 67
1, 194362, Note_off_c, 0, 31, 62
1, 194362, Note_off_c, 0, 43, 67
1, 194364, Note_off_c, 0, 64, 69
1, 194365, Note_off_c, 0, 67, 70
1, 194368, Note_off_c, 0, 38, 63
1, 194370, Note_off_c, 0, 69, 66
1, 194379, Note_off_c, 0, 62, 36
1, 194573, Note_on_c, 0, 78, 99
1, 194575, Note_on_c, 0, 88, 92
1, 194576, Note_on_c, 0, 86, 89
1, 194754, Note_off_c, 0, 88, 62
1, 194755, Note_off_c, 0, 86, 61
1, 194755, Note_off_c, 0, 78, 61
1, 194764, Note_on_c, 0, 50, 86
1, 194765, Note_on_c, 0, 43, 82
1, 194766, Note_on_c, 0, 79, 68
1, 194776, Note_on_c, 0, 83, 52
1, 194791, Note_off_c, 0, 79, 67
1, 194798, Note_off_c, 0, 83, 59
1, 194879, Note_off_c, 0, 43, 57
1, 194883, Note_on_c, 0, 86, 96
1, 194887, Note_on_c, 0, 55, 86
1, 194892, Note_on_c, 0, 78, 96
1, 194906, Note_off_c, 0, 50, 62
1, 194933, Note_off_c, 0, 55, 63
1, 195011, Note_off_c, 0, 86, 64
1, 195017, Note_on_c, 0, 81, 81
1, 195017, Note_on_c, 0, 50, 94
1, 195017, Note_on_c, 0, 62, 98
1, 195019, Note_off_c, 0, 78, 56
1, 195020, Note_on_c, 0, 76, 77
1, 195021, Note_on_c, 0, 55, 91
1, 195050, Note_off_c, 0, 76, 63
1, 195054, Note_off_c, 0, 81, 62
1, 195127, Note_on_c, 0, 85, 101
1, 195130, Note_on_c, 0, 78, 92
1, 195214, Note_off_c, 0, 85, 66
1, 195218, Note_off_c, 0, 50, 58
1, 195225, Note_off_c, 0, 55, 61
1, 195228, Note_off_c, 0, 78, 0
1, 195241, Note_on_c, 0, 79, 78
1, 195244, Note_on_c, 0, 76, 78
1, 195255, Note_on_c, 0, 78, 20
1, 195268, Note_off_c, 0, 76, 68
1, 195282, Note_off_c, 0, 79, 66
1, 195285, Note_off_c, 0, 62, 63
1, 195291, Note_off_c, 0, 78, 53
1, 195347, Note_on_c, 0, 83, 103
1, 195354, Note_on_c, 0, 75, 96
1, 195454, Note_off_c, 0, 75, 60
1, 195457, Note_on_c, 0, 78, 73
1, 195464, Note_on_c, 0, 74, 73
1, 195465, Note_off_c, 0, 83, 66
1, 195468, Note_on_c, 0, 62, 86
1, 195470, Note_on_c, 0, 67, 86
1, 195503, Note_off_c, 0, 74, 60
1, 195507, Note_off_c, 0, 78, 64
1, 195515, Note_off_c, 0, 67, 66
1, 195530, Note_off_c, 0, 62, 63
1, 195569, Note_on_c, 0, 81, 97
1, 195574, Note_on_c, 0, 73, 99
1, 195664, Note_off_c, 0, 81, 67
1, 195667, Note_off_c, 0, 73, 42
1, 195668, Note_on_c, 0, 76, 79
1, 195672, Note_on_c, 0, 71, 66
1, 195688, Note_on_c, 0, 72, 64
1, 195706, Note_off_c, 0, 71, 66
1, 195707, Note_off_c, 0, 72, 62
1, 195712, Note_off_c, 0, 76, 64
1, 195773, Note_on_c, 0, 79, 100
1, 195776, Note_on_c, 0, 70, 98
1, 195798, Control_c, 0, 64, 94
1, 195812, Note_off_c, 0, 70, 67
1, 195813, Control_c, 0, 64, 68
1, 195828, Control_c, 0, 64, 65
1, 195843, Control_c, 0, 64, 76
1, 195858, Control_c, 0, 64, 127
1, 195860, Note_on_c, 0, 71, 51
1, 195864, Note_on_c, 0, 50, 85
1, 195864, Note_on_c, 0, 62, 89
1, 195865, Note_on_c, 0, 55, 84
1, 195866, Note_on_c, 0, 74, 85
1, 195879, Note_off_c, 0, 79, 68
1, 195891, Note_off_c, 0, 62, 63
1, 195896, Note_off_c, 0, 71, 66
1, 195907, Note_off_c, 0, 55, 65
1, 195908, Note_off_c, 0, 74, 63
1, 195914, Note_off_c, 0, 50, 63
1, 195989, Note_on_c, 0, 88, 102
1, 195994, Note_on_c, 0, 78, 100
1, 196028, Note_off_c, 0, 78, 67
1, 196081, Note_off_c, 0, 88, 62
1, 196095, Note_on_c, 0, 79, 84
1, 196101, Note_on_c, 0, 50, 77
1, 196102, Note_on_c, 0, 55, 79
1, 196103, Note_on_c, 0, 83, 74
1, 196105, Note_on_c, 0, 43, 80
1, 196123, Note_off_c, 0, 55, 67
1, 196126, Note_off_c, 0, 83, 70
1, 196135, Note_off_c, 0, 79, 63
1, 196152, Note_off_c, 0, 50, 61
1, 196162, Note_off_c, 0, 43, 62
1, 196179, Note_on_c, 0, 86, 90
1, 196192, Note_on_c, 0, 78, 89
1, 196228, Note_off_c, 0, 78, 62
1, 196239, Note_off_c, 0, 86, 62
1, 196267, Note_on_c, 0, 76, 84
1, 196267, Note_on_c, 0, 81, 74
1, 196270, Note_on_c, 0, 82, 79
1, 196293, Note_off_c, 0, 82, 67
1, 196313, Note_off_c, 0, 81, 65
1, 196316, Note_off_c, 0, 76, 65
1, 196335, Note_on_c, 0, 85, 94
1, 196339, Note_on_c, 0, 78, 83
1, 196380, Note_off_c, 0, 78, 62
1, 196388, Note_off_c, 0, 85, 64
1, 196400, Note_on_c, 0, 31, 76
1, 196403, Note_on_c, 0, 43, 90
1, 196418, Note_on_c, 0, 76, 83
1, 196423, Note_on_c, 0, 79, 82
1, 196428, Note_off_c, 0, 31, 65
1, 196446, Note_off_c, 0, 43, 59
1, 196460, Note_off_c, 0, 76, 61
1, 196488, Note_off_c, 0, 79, 66
1, 196489, Note_on_c, 0, 83, 87
1, 196500, Note_on_c, 0, 75, 80
1, 196540, Note_off_c, 0, 83, 63
1, 196543, Note_off_c, 0, 75, 60
1, 196565, Note_on_c, 0, 78, 96
1, 196571, Note_on_c, 0, 74, 79
1, 196607, Note_off_c, 0, 74, 62
1, 196642, Note_on_c, 0, 81, 77
1, 196650, Note_on_c, 0, 73, 88
1, 196664, Note_on_c, 0, 79, 63
1, 196677, Note_off_c, 0, 78, 50
1, 196686, Note_off_c, 0, 79, 39
1, 196688, Note_off_c, 0, 81, 60
1, 196693, Note_off_c, 0, 73, 64
1, 196701, Note_on_c, 0, 43, 58
1, 196703, Note_on_c, 0, 50, 62
1, 196723, Note_on_c, 0, 72, 89
1, 196729, Note_on_c, 0, 55, 85
1, 196733, Note_on_c, 0, 76, 77
1, 196759, Note_off_c, 0, 43, 59
1, 196767, Note_off_c, 0, 50, 63
1, 196767, Note_off_c, 0, 72, 66
1, 196771, Note_off_c, 0, 55, 64
1, 196776, Note_on_c, 0, 74, 23
1, 196776, Note_off_c, 0, 74, 127
1, 196781, Note_off_c, 0, 76, 61
1, 196782, Poly_aftertouch_c, 0, 78, 127
1, 196791, Note_on_c, 0, 79, 86
1, 196812, Poly_aftertouch_c, 0, 78, 0
1, 196843, Note_off_c, 0, 79, 66
1, 196862, Poly_aftertouch_c, 0, 77, 127
1, 196865, Note_on_c, 0, 64, 88
1, 196867, Note_on_c, 0, 71, 18
1, 196868, Note_on_c, 0, 57, 85
1, 196874, Note_on_c, 0, 50, 78
1, 196874, Control_c, 0, 67, 29
1, 196881, Note_on_c, 0, 52, 75
1, 196883, Note_off_c, 0, 64, 73
1, 196888, Note_off_c, 0, 57, 72
1, 196889, Control_c, 0, 67, 66
1, 196893, Note_on_c, 0, 75, 72
1, 196898, Note_on_c, 0, 74, 65
1, 196904, Control_c, 0, 67, 73
1, 196905, Poly_aftertouch_c, 0, 77, 0
1, 196910, Note_on_c, 0, 76, 48
1, 196918, Note_off_c, 0, 75, 67
1, 196919, Control_c, 0, 67, 63
1, 196919, Note_off_c, 0, 50, 64
1, 196922, Note_off_c, 0, 52, 56
1, 196928, Note_off_c, 0, 74, 67
1, 196934, Note_off_c, 0, 76, 58
1, 196934, Control_c, 0, 67, 45
1, 196951, Note_off_c, 0, 71, 59
1, 196956, Control_c, 0, 67, 0
1, 196965, Note_on_c, 0, 78, 96
1, 196980, Note_on_c, 0, 70, 87
1, 197021, Note_off_c, 0, 78, 64
1, 197026, Note_off_c, 0, 70, 62
1, 197043, Note_on_c, 0, 73, 96
1, 197053, Note_on_c, 0, 69, 79
1, 197074, Note_on_c, 0, 71, 57
1, 197076, Poly_aftertouch_c, 0, 75, 0
1, 197086, Note_off_c, 0, 69, 62
1, 197095, Note_off_c, 0, 71, 61
1, 197104, Control_c, 0, 64, 70
1, 197113, Note_off_c, 0, 73, 60
1, 197119, Control_c, 0, 64, 0
1, 197126, Note_on_c, 0, 76, 99
1, 197143, Note_on_c, 0, 69, 60
1, 197161, Note_off_c, 0, 69, 66
1, 197188, Note_on_c, 0, 35, 91
1, 197190, Note_on_c, 0, 40, 92
1, 197193, Note_on_c, 0, 47, 90
1, 197194, Note_on_c, 0, 48, 94
1, 197198, Note_on_c, 0, 67, 97
1, 197208, Control_c, 0, 64, 127
1, 197208, Control_c, 0, 67, 36
1, 197208, Note_on_c, 0, 71, 84
1, 197215, Note_on_c, 0, 72, 52
1, 197222, Note_off_c, 0, 76, 67
1, 197223, Control_c, 0, 67, 127
1, 197226, Note_off_c, 0, 48, 63
1, 197229, Note_off_c, 0, 35, 64
1, 197230, Note_off_c, 0, 71, 69
1, 197232, Note_off_c, 0, 47, 68
1, 197232, Note_off_c, 0, 67, 68
1, 197236, Note_off_c, 0, 40, 65
1, 197244, Note_off_c, 0, 72, 65
1, 197296, Control_c, 0, 67, 93
1, 197311, Control_c, 0, 67, 73
1, 197341, Control_c, 0, 67, 66
1, 197356, Control_c, 0, 67, 49
1, 197370, Control_c, 0, 67, 25
1, 197385, Control_c, 0, 67, 0
1, 197432, Note_on_c, 0, 86, 66
1, 197437, Note_on_c, 0, 91, 95
1, 197438, Note_on_c, 0, 79, 97
1, 197444, Note_on_c, 0, 83, 67
1, 197473, Note_off_c, 0, 79, 69
1, 197477, Note_off_c, 0, 91, 66
1, 197490, Note_off_c, 0, 86, 64
1, 197493, Note_off_c, 0, 83, 63
1, 197544, Poly_aftertouch_c, 0, 88, 0
1, 197647, Note_on_c, 0, 85, 67
1, 197660, Note_on_c, 0, 90, 92
1, 197661, Note_on_c, 0, 78, 91
1, 197662, Note_on_c, 0, 81, 77
1, 197715, Note_off_c, 0, 78, 63
1, 197718, Note_off_c, 0, 90, 67
1, 197730, Note_off_c, 0, 81, 63
1, 197736, Note_on_c, 0, 64, 89
1, 197739, Note_on_c, 0, 52, 85
1, 197740, Note_off_c, 0, 85, 63
1, 197741, Note_on_c, 0, 59, 80
1, 197773, Note_off_c, 0, 64, 62
1, 197782, Note_off_c, 0, 59, 66
1, 197804, Note_off_c, 0, 52, 62
1, 197811, Note_on_c, 0, 88, 95
1, 197812, Note_on_c, 0, 76, 95
1, 197813, Note_on_c, 0, 83, 87
1, 197821, Note_on_c, 0, 79, 86
1, 197888, Note_off_c, 0, 76, 60
1, 197888, Note_off_c, 0, 79, 64
1, 197892, Note_off_c, 0, 88, 65
1, 197898, Control_c, 0, 64, 94
1, 197900, Note_off_c, 0, 83, 64
1, 197913, Control_c, 0, 64, 47
1, 197926, Note_on_c, 0, 50, 104
1, 197927, Control_c, 0, 64, 0
1, 197927, Control_c, 0, 67, 100
1, 197932, Note_on_c, 0, 38, 97
1, 197939, Note_on_c, 0, 43, 78
1, 197942, Control_c, 0, 64, 53
1, 197942, Control_c, 0, 67, 127
1, 197956, Note_on_c, 0, 74, 102
1, 197957, Control_c, 0, 64, 84
1, 197958, Note_on_c, 0, 86, 94
1, 197959, Note_on_c, 0, 83, 95
1, 197962, Note_off_c, 0, 43, 67
1, 197963, Note_on_c, 0, 78, 94
1, 197969, Note_off_c, 0, 38, 62
1, 197972, Note_off_c, 0, 50, 65
1, 197972, Control_c, 0, 64, 127
1, 197972, Control_c, 0, 67, 117
1, 197987, Control_c, 0, 67, 99
1, 198001, Control_c, 0, 67, 74
1, 198005, Note_off_c, 0, 74, 61
1, 198012, Note_off_c, 0, 86, 62
1, 198016, Control_c, 0, 67, 58
1, 198028, Note_off_c, 0, 78, 62
1, 198031, Note_off_c, 0, 83, 64
1, 198031, Control_c, 0, 67, 58
1, 198046, Control_c, 0, 67, 54
1, 198061, Control_c, 0, 67, 43
1, 198076, Control_c, 0, 67, 27
1, 198090, Control_c, 0, 67, 0
1, 198108, Note_on_c, 0, 73, 90
1, 198110, Note_on_c, 0, 81, 76
1, 198112, Note_on_c, 0, 76, 73
1, 198113, Note_on_c, 0, 85, 73
1, 198145, Note_on_c, 0, 82, 33
1, 198162, Note_off_c, 0, 85, 66
1, 198168, Note_off_c, 0, 73, 62
1, 198178, Note_off_c, 0, 82, 33
1, 198184, Note_off_c, 0, 81, 63
1, 198184, Note_off_c, 0, 76, 62
1, 198262, Note_on_c, 0, 71, 96
1, 198266, Note_on_c, 0, 79, 90
1, 198266, Note_on_c, 0, 83, 86
1, 198276, Note_on_c, 0, 74, 74
1, 198303, Note_off_c, 0, 74, 65
1, 198326, Note_off_c, 0, 71, 60
1, 198326, Note_off_c, 0, 83, 63
1, 198335, Note_off_c, 0, 79, 66
1, 198338, Note_on_c, 0, 67, 88
1, 198341, Note_on_c, 0, 55, 84
1, 198341, Note_on_c, 0, 62, 85
1, 198365, Note_off_c, 0, 67, 66
1, 198379, Note_off_c, 0, 62, 65
1, 198392, Note_on_c, 0, 69, 99
1, 198393, Note_on_c, 0, 81, 101
1, 198395, Note_on_c, 0, 78, 89
1, 198397, Note_off_c, 0, 55, 66
1, 198400, Note_on_c, 0, 73, 91
1, 198469, Note_off_c, 0, 69, 59
1, 198469, Note_off_c, 0, 81, 63
1, 198481, Note_off_c, 0, 73, 63
1, 198487, Note_off_c, 0, 78, 62
1, 198499, Control_c, 0, 64, 69
1, 198514, Control_c, 0, 64, 0
1, 198514, Control_c, 0, 67, 80
1, 198526, Note_on_c, 0, 47, 104
1, 198529, Control_c, 0, 67, 127
1, 198535, Note_on_c, 0, 35, 95
1, 198535, Note_on_c, 0, 67, 99
1, 198539, Note_on_c, 0, 76, 95
1, 198540, Note_on_c, 0, 40, 82
1, 198542, Note_on_c, 0, 79, 97
1, 198543, Control_c, 0, 64, 51
1, 198544, Note_on_c, 0, 71, 84
1, 198558, Control_c, 0, 64, 87
1, 198560, Note_off_c, 0, 35, 67
1, 198564, Note_off_c, 0, 71, 72
1, 198567, Note_off_c, 0, 40, 68
1, 198569, Note_off_c, 0, 47, 67
1, 198570, Note_off_c, 0, 67, 66
1, 198573, Control_c, 0, 64, 127
1, 198585, Note_off_c, 0, 76, 64
1, 198588, Control_c, 0, 67, 121
1, 198588, Note_off_c, 0, 79, 68
1, 198603, Control_c, 0, 67, 115
1, 198617, Control_c, 0, 67, 117
1, 198647, Control_c, 0, 67, 115
1, 198659, Poly_aftertouch_c, 0, 36, 0
1, 198662, Control_c, 0, 67, 113
1, 198677, Control_c, 0, 67, 109
1, 198691, Control_c, 0, 67, 105
1, 198698, Note_on_c, 0, 91, 103
1, 198699, Note_on_c, 0, 79, 98
1, 198706, Control_c, 0, 67, 103
1, 198711, Note_on_c, 0, 83, 80
1, 198715, Note_on_c, 0, 86, 61
1, 198717, Note_on_c, 0, 87, 77
1, 198721, Control_c, 0, 67, 99
1, 198736, Control_c, 0, 67, 85
1, 198737, Note_off_c, 0, 87, 62
1, 198744, Note_off_c, 0, 91, 61
1, 198747, Note_off_c, 0, 86, 60
1, 198749, Note_off_c, 0, 83, 58
1, 198750, Control_c, 0, 67, 59
1, 198753, Note_off_c, 0, 79, 64
1, 198765, Control_c, 0, 67, 27
1, 198780, Control_c, 0, 67, 0
1, 198853, Note_on_c, 0, 85, 86
1, 198856, Note_on_c, 0, 80, 86
1, 198858, Note_on_c, 0, 90, 87
1, 198862, Note_on_c, 0, 78, 79
1, 198874, Note_off_c, 0, 90, 72
1, 198889, Note_on_c, 0, 77, 49
1, 198894, Note_off_c, 0, 78, 50
1, 198910, Note_off_c, 0, 77, 62
1, 198931, Note_off_c, 0, 85, 64
1, 198932, Note_off_c, 0, 80, 63
1, 198941, Note_on_c, 0, 64, 93
1, 198943, Note_on_c, 0, 59, 85
1, 198946, Note_on_c, 0, 52, 93
1, 198981, Note_off_c, 0, 64, 67
1, 198986, Note_off_c, 0, 59, 66
1, 198997, Note_on_c, 0, 76, 102
1, 198998, Note_on_c, 0, 88, 97
1, 199011, Note_off_c, 0, 52, 63
1, 199012, Note_on_c, 0, 79, 73
1, 199012, Note_on_c, 0, 83, 70
1, 199023, Note_on_c, 0, 84, 59
1, 199080, Note_off_c, 0, 76, 59
1, 199080, Note_off_c, 0, 84, 35
1, 199080, Note_off_c, 0, 88, 64
1, 199087, Note_off_c, 0, 79, 66
1, 199091, Note_off_c, 0, 83, 64
1, 199105, Control_c, 0, 64, 82
1, 199120, Control_c, 0, 64, 0
1, 199120, Control_c, 0, 67, 21
1, 199134, Control_c, 0, 67, 107
1, 199137, Note_on_c, 0, 50, 108
1, 199143, Note_on_c, 0, 38, 97
1, 199149, Control_c, 0, 67, 127
1, 199152, Note_on_c, 0, 86, 95
1, 199152, Note_on_c, 0, 74, 101
1, 199158, Note_on_c, 0, 81, 87
1, 199158, Note_on_c, 0, 77, 79
1, 199159, Note_on_c, 0, 43, 63
1, 199165, Control_c, 0, 64, 59
1, 199187, Control_c, 0, 64, 127
1, 199189, Note_off_c, 0, 43, 63
1, 199202, Control_c, 0, 67, 115
1, 199211, Note_off_c, 0, 38, 59
1, 199217, Control_c, 0, 67, 99
1, 199232, Control_c, 0, 67, 96
1, 199242, Note_off_c, 0, 50, 60
1, 199247, Control_c, 0, 67, 98
1, 199248, Note_off_c, 0, 86, 62
1, 199250, Note_off_c, 0, 74, 59
1, 199257, Note_off_c, 0, 77, 64
1, 199262, Control_c, 0, 67, 94
1, 199262, Note_off_c, 0, 81, 63
1, 199277, Control_c, 0, 67, 86
1, 199292, Control_c, 0, 67, 64
1, 199307, Control_c, 0, 67, 37
1, 199321, Control_c, 0, 67, 0
1, 199325, Note_on_c, 0, 72, 97
1, 199325, Note_on_c, 0, 84, 98
1, 199333, Note_on_c, 0, 76, 84
1, 199334, Note_on_c, 0, 79, 82
1, 199393, Note_off_c, 0, 72, 58
1, 199396, Note_off_c, 0, 84, 63
1, 199408, Note_off_c, 0, 76, 65
1, 199415, Note_off_c, 0, 79, 64
1, 199488, Note_on_c, 0, 71, 102
1, 199489, Note_on_c, 0, 83, 98
1, 199500, Note_on_c, 0, 77, 69
1, 199507, Note_on_c, 0, 76, 73
1, 199508, Note_on_c, 0, 74, 72
1, 199551, Note_off_c, 0, 71, 59
1, 199560, Note_off_c, 0, 83, 64
1, 199563, Note_off_c, 0, 76, 60
1, 199564, Note_off_c, 0, 74, 61
1, 199566, Note_on_c, 0, 67, 93
1, 199567, Note_off_c, 0, 77, 64
1, 199569, Note_on_c, 0, 55, 89
1, 199571, Note_on_c, 0, 62, 86
1, 199601, Note_off_c, 0, 67, 67
1, 199613, Note_off_c, 0, 62, 66
1, 199636, Note_off_c, 0, 55, 66
1, 199647, Note_on_c, 0, 81, 100
1, 199653, Note_on_c, 0, 67, 82
1, 199654, Note_on_c, 0, 69, 76
1, 199655, Note_on_c, 0, 76, 83
1, 199668, Note_on_c, 0, 72, 69
1, 199669, Note_on_c, 0, 74, 66
1, 199697, Note_off_c, 0, 74, 62
1, 199752, Note_off_c, 0, 72, 59
1, 199754, Note_off_c, 0, 76, 58
1, 199761, Note_off_c, 0, 69, 50
1, 199765, Note_off_c, 0, 67, 54
1, 199783, Note_off_c, 0, 81, 60
1, 199825, Control_c, 0, 64, 71
1, 199839, Note_on_c, 0, 48, 105
1, 199840, Control_c, 0, 64, 0
1, 199840, Control_c, 0, 67, 74
1, 199843, Note_on_c, 0, 36, 101
1, 199848, Note_on_c, 0, 43, 94
1, 199855, Control_c, 0, 67, 122
1, 199867, Note_on_c, 0, 67, 94
1, 199867, Note_on_c, 0, 79, 95
1, 199870, Note_on_c, 0, 75, 91
1, 199870, Control_c, 0, 67, 115
1, 199873, Note_on_c, 0, 72, 84
1, 199929, Control_c, 0, 64, 66
1, 199929, Control_c, 0, 67, 117
1, 199951, Control_c, 0, 64, 87
1, 199951, Control_c, 0, 67, 115
1, 199967, Note_off_c, 0, 67, 62
1, 199967, Control_c, 0, 64, 104
1, 199967, Control_c, 0, 67, 113
1, 199982, Control_c, 0, 64, 127
1, 199982, Control_c, 0, 67, 110
1, 199990, Note_off_c, 0, 72, 64
1, 199995, Note_off_c, 0, 79, 64
1, 199996, Control_c, 0, 67, 108
1, 200010, Note_off_c, 0, 75, 65
1, 200056, Control_c, 0, 67, 105
1, 200070, Control_c, 0, 67, 101
1, 200085, Control_c, 0, 67, 96
1, 200100, Note_off_c, 0, 43, 59
1, 200100, Control_c, 0, 67, 90
1, 200114, Control_c, 0, 67, 83
1, 200126, Note_off_c, 0, 36, 59
1, 200129, Control_c, 0, 67, 76
1, 200144, Control_c, 0, 67, 64
1, 200155, Note_on_c, 0, 82, 106
1, 200159, Note_on_c, 0, 91, 97
1, 200159, Control_c, 0, 67, 48
1, 200162, Note_on_c, 0, 94, 95
1, 200163, Note_on_c, 0, 92, 85
1, 200174, Control_c, 0, 67, 28
1, 200189, Control_c, 0, 67, 0
1, 200191, Note_off_c, 0, 48, 61
1, 200252, Note_off_c, 0, 92, 47
1, 200261, Note_off_c, 0, 82, 55
1, 200281, Note_off_c, 0, 94, 63
1, 200295, Note_on_c, 0, 87, 69
1, 200303, Note_off_c, 0, 91, 65
1, 200323, Note_off_c, 0, 87, 66
1, 200394, Note_on_c, 0, 93, 97
1, 200399, Note_on_c, 0, 79, 95
1, 200400, Note_on_c, 0, 89, 84
1, 200401, Note_on_c, 0, 81, 93
1, 200407, Note_on_c, 0, 88, 90
1, 200484, Note_off_c, 0, 79, 60
1, 200485, Note_on_c, 0, 84, 70
1, 200485, Note_off_c, 0, 81, 59
1, 200491, Note_on_c, 0, 67, 95
1, 200492, Note_on_c, 0, 55, 89
1, 200498, Note_on_c, 0, 60, 88
1, 200502, Note_off_c, 0, 93, 65
1, 200505, Note_off_c, 0, 88, 58
1, 200512, Note_off_c, 0, 89, 61
1, 200530, Note_off_c, 0, 84, 63
1, 200534, Note_off_c, 0, 67, 67
1, 200562, Poly_aftertouch_c, 0, 87, 0
1, 200563, Note_off_c, 0, 60, 67
1, 200582, Note_off_c, 0, 55, 66
1, 200588, Note_on_c, 0, 87, 90
1, 200589, Note_on_c, 0, 91, 96
1, 200590, Note_on_c, 0, 79, 107
1, 200704, Note_off_c, 0, 79, 58
1, 200720, Note_off_c, 0, 91, 63
1, 200728, Note_on_c, 0, 82, 66
1, 200746, Note_off_c, 0, 87, 64
1, 200756, Note_off_c, 0, 82, 66
1, 200756, Poly_aftertouch_c, 0, 85, 127
1, 200775, Control_c, 0, 64, 80
1, 200775, Control_c, 0, 67, 61
1, 200789, Note_on_c, 0, 43, 108
1, 200790, Control_c, 0, 64, 37
1, 200790, Control_c, 0, 67, 84
1, 200794, Note_on_c, 0, 31, 96
1, 200797, Poly_aftertouch_c, 0, 85, 0
1, 200805, Control_c, 0, 64, 0
1, 200805, Control_c, 0, 67, 74
1, 200807, Note_on_c, 0, 36, 74
1, 200819, Control_c, 0, 67, 72
1, 200825, Note_on_c, 0, 89, 96
1, 200827, Note_on_c, 0, 77, 98
1, 200830, Note_on_c, 0, 86, 98
1, 200830, Note_off_c, 0, 36, 60
1, 200834, Control_c, 0, 64, 63
1, 200849, Control_c, 0, 64, 107
1, 200849, Control_c, 0, 67, 74
1, 200864, Control_c, 0, 64, 127
1, 200879, Control_c, 0, 67, 71
1, 200893, Control_c, 0, 67, 67
1, 200902, Note_off_c, 0, 31, 60
1, 200903, Note_off_c, 0, 77, 60
1, 200904, Note_off_c, 0, 89, 62
1, 200908, Control_c, 0, 67, 60
1, 200923, Control_c, 0, 67, 49
1, 200925, Note_off_c, 0, 43, 62
1, 200937, Note_off_c, 0, 86, 65
1, 200937, Control_c, 0, 67, 43
1, 200940, Note_on_c, 0, 82, 71
1, 200952, Control_c, 0, 67, 40
1, 200967, Note_off_c, 0, 82, 67
1, 200967, Control_c, 0, 67, 33
1, 200982, Control_c, 0, 67, 21
1, 200997, Control_c, 0, 67, 0
1, 201039, Note_on_c, 0, 75, 95
1, 201039, Note_on_c, 0, 84, 91
1, 201043, Note_on_c, 0, 87, 84
1, 201093, Note_off_c, 0, 75, 60
1, 201103, Note_off_c, 0, 87, 62
1, 201146, Note_off_c, 0, 84, 61
1, 201158, Note_on_c, 0, 79, 53
1, 201182, Note_off_c, 0, 79, 63
1, 201229, Note_on_c, 0, 58, 92
1, 201230, Note_on_c, 0, 46, 94
1, 201230, Note_on_c, 0, 82, 95
1, 201231, Note_on_c, 0, 86, 96
1, 201232, Note_on_c, 0, 74, 94
1, 201239, Note_on_c, 0, 51, 81
1, 201254, Note_off_c, 0, 58, 64
1, 201277, Note_off_c, 0, 46, 64
1, 201283, Note_off_c, 0, 51, 63
1, 201301, Note_on_c, 0, 79, 80
1, 201318, Note_off_c, 0, 74, 57
1, 201340, Note_off_c, 0, 86, 61
1, 201346, Note_off_c, 0, 82, 61
1, 201355, Note_off_c, 0, 79, 67
1, 201397, Control_c, 0, 64, 106
1, 201405, Note_on_c, 0, 51, 110
1, 201408, Note_on_c, 0, 39, 109
1, 201411, Control_c, 0, 64, 59
1, 201411, Control_c, 0, 67, 64
1, 201414, Note_on_c, 0, 46, 88
1, 201426, Control_c, 0, 64, 0
1, 201426, Control_c, 0, 67, 99
1, 201442, Note_on_c, 0, 72, 93
1, 201447, Note_on_c, 0, 79, 95
1, 201447, Note_on_c, 0, 84, 87
1, 201449, Control_c, 0, 67, 92
1, 201463, Control_c, 0, 64, 54
1, 201463, Control_c, 0, 67, 91
1, 201478, Control_c, 0, 64, 94
1, 201478, Control_c, 0, 67, 90
1, 201480, Note_off_c, 0, 72, 65
1, 201481, Note_off_c, 0, 84, 63
1, 201493, Control_c, 0, 64, 127
1, 201494, Note_off_c, 0, 39, 64
1, 201508, Control_c, 0, 67, 92
1, 201521, Note_off_c, 0, 79, 63
1, 201523, Control_c, 0, 67, 94
1, 201524, Note_on_c, 0, 75, 72
1, 201537, Control_c, 0, 67, 93
1, 201539, Note_off_c, 0, 46, 63
1, 201546, Note_off_c, 0, 51, 60
1, 201552, Control_c, 0, 67, 91
1, 201566, Note_off_c, 0, 75, 61
1, 201583, Control_c, 0, 67, 90
1, 201605, Note_on_c, 0, 70, 90
1, 201611, Note_on_c, 0, 82, 86
1, 201617, Note_on_c, 0, 78, 45
1, 201617, Note_off_c, 0, 78, 127
1, 201618, Note_on_c, 0, 79, 88
1, 201628, Control_c, 0, 67, 88
1, 201642, Control_c, 0, 67, 82
1, 201647, Note_off_c, 0, 82, 66
1, 201647, Note_off_c, 0, 70, 63
1, 201657, Control_c, 0, 67, 69
1, 201672, Control_c, 0, 67, 51
1, 201681, Note_on_c, 0, 75, 78
1, 201686, Control_c, 0, 67, 34
1, 201688, Note_off_c, 0, 79, 62
1, 201701, Control_c, 0, 67, 24
1, 201716, Control_c, 0, 67, 0
1, 201729, Note_off_c, 0, 75, 63
1, 201763, Note_on_c, 0, 69, 90
1, 201763, Note_on_c, 0, 81, 89
1, 201772, Note_on_c, 0, 77, 77
1, 201812, Note_off_c, 0, 69, 61
1, 201823, Note_off_c, 0, 81, 57
1, 201858, Note_on_c, 0, 72, 72
1, 201864, Note_off_c, 0, 77, 64
1, 201867, Note_on_c, 0, 71, 78
1, 201888, Note_off_c, 0, 71, 69
1, 201889, Note_on_c, 0, 55, 73
1, 201895, Note_on_c, 0, 48, 76
1, 201898, Note_off_c, 0, 72, 64
1, 201901, Note_on_c, 0, 60, 49
1, 201913, Note_off_c, 0, 55, 68
1, 201915, Poly_aftertouch_c, 0, 75, 0
1, 201925, Note_off_c, 0, 60, 60
1, 201928, Note_on_c, 0, 67, 93
1, 201930, Note_on_c, 0, 79, 93
1, 201933, Note_off_c, 0, 48, 66
1, 201952, Poly_aftertouch_c, 0, 75, 127
1, 201972, Note_off_c, 0, 67, 64
1, 201992, Note_off_c, 0, 79, 61
1, 202001, Note_on_c, 0, 70, 81
1, 202028, Control_c, 0, 64, 68
1, 202043, Control_c, 0, 64, 0
1, 202043, Control_c, 0, 67, 54
1, 202047, Note_on_c, 0, 43, 104
1, 202048, Poly_aftertouch_c, 0, 75, 0
1, 202053, Note_on_c, 0, 31, 98
1, 202055, Note_on_c, 0, 77, 70
1, 202058, Control_c, 0, 64, 41
1, 202058, Control_c, 0, 67, 91
1, 202058, Note_off_c, 0, 70, 65
1, 202064, Note_on_c, 0, 41, 74
1, 202064, Note_on_c, 0, 65, 98
1, 202073, Control_c, 0, 64, 64
1, 202073, Control_c, 0, 67, 85
1, 202076, Note_on_c, 0, 74, 75
1, 202079, Note_off_c, 0, 41, 44
1, 202087, Control_c, 0, 64, 122
1, 202087, Control_c, 0, 67, 76
1, 202102, Control_c, 0, 64, 127
1, 202102, Control_c, 0, 67, 62
1, 202112, Note_off_c, 0, 65, 66
1, 202115, Note_off_c, 0, 77, 65
1, 202117, Control_c, 0, 67, 35
1, 202129, Note_off_c, 0, 31, 58
1, 202132, Control_c, 0, 67, 0
1, 202136, Note_off_c, 0, 74, 64
1, 202186, Note_off_c, 0, 43, 60
1, 202203, Note_on_c, 0, 73, 92
1, 202218, Note_on_c, 0, 68, 85
1, 202240, Note_on_c, 0, 64, 53
1, 202262, Note_off_c, 0, 64, 61
1, 202291, Note_off_c, 0, 68, 62
1, 202295, Note_off_c, 0, 73, 62
1, 202326, Poly_aftertouch_c, 0, 65, 0
1, 202379, Note_on_c, 0, 62, 94
1, 202379, Note_on_c, 0, 74, 94
1, 202392, Note_on_c, 0, 69, 68
1, 202398, Note_on_c, 0, 65, 64
1, 202417, Note_off_c, 0, 65, 67
1, 202426, Note_off_c, 0, 69, 60
1, 202429, Note_off_c, 0, 62, 61
1, 202437, Note_off_c, 0, 74, 61
1, 202472, Note_on_c, 0, 51, 100
1, 202475, Note_on_c, 0, 39, 96
1, 202485, Note_on_c, 0, 46, 64
1, 202487, Poly_aftertouch_c, 0, 70, 0
1, 202506, Note_on_c, 0, 45, 51
1, 202508, Note_off_c, 0, 51, 62
1, 202511, Note_off_c, 0, 46, 58
1, 202516, Note_on_c, 0, 60, 94
1, 202517, Note_on_c, 0, 71, 95
1, 202532, Note_on_c, 0, 67, 83
1, 202535, Note_off_c, 0, 45, 55
1, 202538, Note_off_c, 0, 39, 58
1, 202550, Note_on_c, 0, 63, 70
1, 202597, Note_off_c, 0, 60, 60
1, 202598, Note_off_c, 0, 71, 60
1, 202636, Note_off_c, 0, 67, 57
1, 202673, Note_off_c, 0, 63, 34
1, 202688, Control_c, 0, 64, 61
1, 202703, Control_c, 0, 64, 0
1, 202717, Control_c, 0, 67, 62
1, 202720, Note_on_c, 0, 36, 104
1, 202725, Note_on_c, 0, 24, 100
1, 202732, Control_c, 0, 67, 83
1, 202734, Note_on_c, 0, 58, 93
1, 202738, Note_on_c, 0, 67, 91
1, 202741, Note_on_c, 0, 70, 90
1, 202744, Note_on_c, 0, 63, 80
1, 202747, Control_c, 0, 67, 79
1, 202762, Control_c, 0, 64, 66
1, 202762, Control_c, 0, 67, 80
1, 202776, Note_off_c, 0, 58, 66
1, 202777, Control_c, 0, 64, 127
1, 202777, Control_c, 0, 67, 81
1, 202791, Control_c, 0, 67, 85
1, 202799, Note_off_c, 0, 70, 65
1, 202799, Note_off_c, 0, 63, 63
1, 202799, Note_off_c, 0, 67, 63
1, 202801, Note_on_c, 0, 57, 7
1, 202806, Control_c, 0, 67, 84
1, 202821, Control_c, 0, 67, 82
1, 202836, Control_c, 0, 67, 80
1, 202839, Note_off_c, 0, 57, 41
1, 202851, Control_c, 0, 67, 79
1, 202858, Note_off_c, 0, 24, 59
1, 202860, Poly_aftertouch_c, 0, 35, 0
1, 202896, Control_c, 0, 67, 78
1, 202910, Control_c, 0, 67, 75
1, 202932, Control_c, 0, 67, 74
1, 202947, Control_c, 0, 67, 73
1, 202952, Note_off_c, 0, 36, 61
1, 202962, Control_c, 0, 67, 73
1, 202977, Control_c, 0, 67, 74
1, 203006, Control_c, 0, 67, 71
1, 203021, Note_on_c, 0, 92, 103
1, 203021, Control_c, 0, 67, 68
1, 203029, Note_on_c, 0, 82, 98
1, 203036, Control_c, 0, 67, 63
1, 203042, Note_on_c, 0, 95, 87
1, 203051, Control_c, 0, 67, 58
1, 203053, Note_on_c, 0, 91, 98
1, 203066, Control_c, 0, 67, 56
1, 203110, Control_c, 0, 67, 53
1, 203119, Note_off_c, 0, 95, 62
1, 203120, Note_off_c, 0, 82, 58
1, 203125, Control_c, 0, 67, 47
1, 203140, Control_c, 0, 67, 39
1, 203142, Note_off_c, 0, 92, 58
1, 203155, Note_on_c, 0, 87, 52
1, 203155, Control_c, 0, 67, 35
1, 203161, Note_off_c, 0, 91, 63
1, 203170, Control_c, 0, 67, 34
1, 203179, Note_off_c, 0, 87, 60
1, 203185, Control_c, 0, 67, 34
1, 203200, Control_c, 0, 67, 31
1, 203215, Control_c, 0, 67, 20
1, 203230, Control_c, 0, 67, 0
1, 203241, Note_on_c, 0, 81, 105
1, 203241, Note_on_c, 0, 89, 98
1, 203244, Note_on_c, 0, 93, 92
1, 203321, Note_on_c, 0, 84, 84
1, 203325, Note_off_c, 0, 81, 59
1, 203327, Note_off_c, 0, 93, 65
1, 203345, Note_off_c, 0, 89, 63
1, 203350, Note_on_c, 0, 67, 97
1, 203351, Note_on_c, 0, 55, 84
1, 203358, Note_on_c, 0, 60, 82
1, 203361, Note_off_c, 0, 84, 61
1, 203387, Note_on_c, 0, 61, 44
1, 203387, Note_off_c, 0, 61, 127
1, 203390, Note_off_c, 0, 67, 68
1, 203408, Note_off_c, 0, 60, 67
1, 203424, Note_off_c, 0, 55, 65
1, 203435, Note_on_c, 0, 79, 106
1, 203435, Note_on_c, 0, 91, 101
1, 203442, Note_on_c, 0, 87, 100
1, 203524, Note_off_c, 0, 79, 59
1, 203550, Note_on_c, 0, 85, 36
1, 203550, Note_off_c, 0, 91, 59
1, 203554, Note_on_c, 0, 82, 72
1, 203575, Note_off_c, 0, 87, 63
1, 203581, Note_off_c, 0, 85, 49
1, 203584, Note_off_c, 0, 82, 63
1, 203614, Control_c, 0, 67, 31
1, 203620, Note_on_c, 0, 43, 105
1, 203623, Note_on_c, 0, 31, 97
1, 203629, Control_c, 0, 64, 64
1, 203629, Control_c, 0, 67, 29
1, 203639, Note_on_c, 0, 38, 71
1, 203644, Control_c, 0, 64, 0
1, 203644, Control_c, 0, 67, 27
1, 203650, Note_on_c, 0, 77, 100
1, 203652, Note_on_c, 0, 86, 97
1, 203653, Note_on_c, 0, 89, 93
1, 203664, Note_off_c, 0, 38, 60
1, 203673, Control_c, 0, 64, 46
1, 203695, Control_c, 0, 64, 82
1, 203695, Control_c, 0, 67, 30
1, 203710, Control_c, 0, 64, 127
1, 203712, Note_off_c, 0, 77, 61
1, 203734, Note_off_c, 0, 89, 63
1, 203736, Note_off_c, 0, 31, 62
1, 203764, Note_off_c, 0, 43, 61
1, 203769, Note_on_c, 0, 82, 75
1, 203769, Note_off_c, 0, 86, 64
1, 203795, Note_off_c, 0, 82, 65
1, 203814, Control_c, 0, 67, 28
1, 203844, Control_c, 0, 67, 26
1, 203869, Note_on_c, 0, 75, 93
1, 203871, Note_on_c, 0, 84, 82
1, 203876, Note_on_c, 0, 87, 83
1, 203903, Control_c, 0, 67, 23
1, 203915, Note_off_c, 0, 75, 63
1, 203918, Control_c, 0, 67, 19
1, 203925, Note_off_c, 0, 87, 60
1, 203932, Control_c, 0, 67, 0
1, 203985, Note_off_c, 0, 84, 62
1, 203990, Note_on_c, 0, 79, 49
1, 204017, Note_off_c, 0, 79, 61
1, 204060, Note_on_c, 0, 58, 89
1, 204062, Note_on_c, 0, 46, 95
1, 204066, Note_on_c, 0, 86, 91
1, 204067, Note_on_c, 0, 74, 97
1, 204067, Note_on_c, 0, 82, 95
1, 204068, Note_on_c, 0, 51, 80
1, 204090, Note_off_c, 0, 58, 64
1, 204101, Note_off_c, 0, 51, 63
1, 204111, Note_off_c, 0, 46, 62
1, 204141, Note_off_c, 0, 74, 58
1, 204145, Note_on_c, 0, 79, 72
1, 204162, Note_off_c, 0, 82, 61
1, 204163, Note_off_c, 0, 86, 61
1, 204186, Note_off_c, 0, 79, 64
1, 204215, Control_c, 0, 64, 91
1, 204229, Control_c, 0, 64, 55
1, 204229, Control_c, 0, 67, 37
1, 204231, Note_on_c, 0, 51, 108
1, 204233, Note_on_c, 0, 39, 105
1, 204244, Control_c, 0, 64, 0
1, 204244, Control_c, 0, 67, 80
1, 204248, Note_on_c, 0, 84, 93
1, 204250, Note_on_c, 0, 72, 89
1, 204252, Note_on_c, 0, 46, 62
1, 204259, Control_c, 0, 64, 45
1, 204259, Control_c, 0, 67, 88
1, 204264, Note_on_c, 0, 81, 67
1, 204267, Note_on_c, 0, 79, 79
1, 204273, Control_c, 0, 64, 71
1, 204273, Control_c, 0, 67, 84
1, 204287, Note_off_c, 0, 81, 66
1, 204288, Note_off_c, 0, 72, 64
1, 204288, Control_c, 0, 64, 127
1, 204288, Control_c, 0, 67, 83
1, 204296, Note_off_c, 0, 84, 63
1, 204303, Control_c, 0, 67, 82
1, 204311, Note_off_c, 0, 39, 62
1, 204318, Control_c, 0, 67, 83
1, 204319, Note_off_c, 0, 46, 62
1, 204319, Note_off_c, 0, 51, 60
1, 204321, Note_off_c, 0, 79, 61
1, 204333, Control_c, 0, 67, 85
1, 204344, Note_on_c, 0, 75, 77
1, 204348, Control_c, 0, 67, 86
1, 204362, Control_c, 0, 67, 85
1, 204377, Control_c, 0, 67, 84
1, 204381, Note_off_c, 0, 75, 61
1, 204392, Control_c, 0, 67, 83
1, 204401, Note_on_c, 0, 78, 69
1, 204401, Note_on_c, 0, 70, 93
1, 204407, Control_c, 0, 67, 83
1, 204410, Note_on_c, 0, 79, 92
1, 204410, Note_on_c, 0, 82, 86
1, 204444, Control_c, 0, 67, 82
1, 204455, Note_off_c, 0, 70, 66
1, 204459, Control_c, 0, 67, 79
1, 204460, Note_off_c, 0, 82, 67
1, 204474, Control_c, 0, 67, 76
1, 204488, Control_c, 0, 67, 67
1, 204489, Note_on_c, 0, 75, 79
1, 204503, Control_c, 0, 67, 58
1, 204505, Note_off_c, 0, 79, 62
1, 204511, Note_off_c, 0, 78, 47
1, 204518, Control_c, 0, 67, 50
1, 204533, Control_c, 0, 67, 45
1, 204534, Note_off_c, 0, 75, 64
1, 204548, Control_c, 0, 67, 39
1, 204561, Note_on_c, 0, 81, 96
1, 204562, Control_c, 0, 67, 29
1, 204563, Note_on_c, 0, 69, 95
1, 204567, Note_on_c, 0, 77, 86
1, 204577, Control_c, 0, 67, 0
1, 204611, Note_off_c, 0, 69, 63
1, 204634, Note_off_c, 0, 81, 60
1, 204648, Note_off_c, 0, 77, 64
1, 204653, Note_on_c, 0, 72, 78
1, 204696, Note_on_c, 0, 55, 79
1, 204697, Note_on_c, 0, 67, 97
1, 204700, Note_on_c, 0, 60, 75
1, 204703, Note_on_c, 0, 79, 98
1, 204706, Note_on_c, 0, 75, 89
1, 204708, Note_on_c, 0, 48, 73
1, 204722, Note_off_c, 0, 72, 63
1, 204723, Note_off_c, 0, 55, 68
1, 204724, Note_off_c, 0, 60, 71
1, 204744, Note_off_c, 0, 67, 65
1, 204747, Note_off_c, 0, 48, 63
1, 204759, Note_off_c, 0, 79, 65
1, 204789, Note_off_c, 0, 75, 62
1, 204815, Control_c, 0, 64, 85
1, 204830, Control_c, 0, 64, 47
1, 204845, Control_c, 0, 64, 0
1, 204845, Control_c, 0, 67, 56
1, 204850, Note_on_c, 0, 43, 102
1, 204852, Note_on_c, 0, 65, 105
1, 204854, Note_on_c, 0, 31, 96
1, 204854, Note_on_c, 0, 77, 87
1, 204858, Note_on_c, 0, 74, 87
1, 204860, Control_c, 0, 64, 35
1, 204860, Control_c, 0, 67, 67
1, 204862, Note_on_c, 0, 70, 81
1, 204875, Control_c, 0, 64, 67
1, 204875, Control_c, 0, 67, 59
1, 204890, Note_off_c, 0, 77, 59
1, 204890, Control_c, 0, 64, 127
1, 204890, Control_c, 0, 67, 56
1, 204895, Note_off_c, 0, 65, 63
1, 204904, Control_c, 0, 67, 55
1, 204909, Note_off_c, 0, 70, 47
1, 204915, Note_off_c, 0, 74, 55
1, 204919, Control_c, 0, 67, 56
1, 204934, Control_c, 0, 67, 59
1, 204964, Control_c, 0, 67, 56
1, 204978, Control_c, 0, 67, 55
1, 204994, Control_c, 0, 67, 55
1, 205000, Note_off_c, 0, 31, 58
1, 205004, Note_on_c, 0, 72, 83
1, 205010, Note_on_c, 0, 63, 93
1, 205010, Note_on_c, 0, 75, 81
1, 205023, Control_c, 0, 67, 55
1, 205025, Note_off_c, 0, 43, 61
1, 205026, Note_on_c, 0, 67, 66
1, 205038, Control_c, 0, 67, 54
1, 205053, Control_c, 0, 67, 50
1, 205065, Note_off_c, 0, 63, 62
1, 205068, Control_c, 0, 67, 38
1, 205072, Note_off_c, 0, 75, 61
1, 205083, Control_c, 0, 67, 0
1, 205097, Note_off_c, 0, 67, 60
1, 205097, Note_off_c, 0, 72, 60
1, 205185, Note_on_c, 0, 70, 90
1, 205186, Note_on_c, 0, 62, 96
1, 205188, Note_on_c, 0, 74, 96
1, 205196, Note_on_c, 0, 67, 78
1, 205225, Note_off_c, 0, 67, 60
1, 205237, Note_off_c, 0, 62, 59
1, 205245, Note_off_c, 0, 74, 60
1, 205250, Note_off_c, 0, 70, 64
1, 205270, Note_on_c, 0, 51, 99
1, 205275, Note_on_c, 0, 39, 95
1, 205276, Note_on_c, 0, 46, 90
1, 205355, Note_on_c, 0, 60, 99
1, 205358, Note_on_c, 0, 72, 95
1, 205370, Note_on_c, 0, 63, 74
1, 205375, Note_on_c, 0, 67, 67
1, 205376, Note_on_c, 0, 69, 63
1, 205386, Control_c, 0, 64, 76
1, 205401, Control_c, 0, 64, 58
1, 205415, Note_off_c, 0, 69, 53
1, 205416, Control_c, 0, 64, 62
1, 205430, Control_c, 0, 64, 76
1, 205437, Note_off_c, 0, 60, 57
1, 205439, Note_off_c, 0, 72, 62
1, 205445, Control_c, 0, 64, 127
1, 205476, Note_off_c, 0, 63, 61
1, 205490, Note_off_c, 0, 67, 48
1, 205595, Control_c, 0, 64, 70
1, 205609, Control_c, 0, 64, 0
1, 205611, Note_on_c, 0, 67, 70
1, 205614, Note_on_c, 0, 58, 97
1, 205616, Note_on_c, 0, 70, 95
1, 205618, Note_on_c, 0, 63, 75
1, 205639, Control_c, 0, 67, 26
1, 205653, Control_c, 0, 64, 41
1, 205653, Control_c, 0, 67, 24
1, 205668, Control_c, 0, 64, 80
1, 205678, Note_off_c, 0, 39, 63
1, 205683, Control_c, 0, 64, 127
1, 205683, Control_c, 0, 67, 22
1, 205690, Note_off_c, 0, 46, 62
1, 205710, Note_off_c, 0, 51, 59
1, 205713, Control_c, 0, 67, 24
1, 205727, Control_c, 0, 67, 26
1, 205771, Note_off_c, 0, 58, 56
1, 205772, Control_c, 0, 67, 24
1, 205777, Note_off_c, 0, 70, 56
1, 205807, Note_off_c, 0, 67, 57
1, 205821, Note_off_c, 0, 63, 37
1, 205876, Control_c, 0, 67, 22
1, 205888, Note_on_c, 0, 54, 57
1, 205889, Note_on_c, 0, 66, 67
1, 205891, Note_on_c, 0, 69, 72
1, 205899, Note_on_c, 0, 57, 53
1, 205945, Note_off_c, 0, 57, 60
1, 205967, Note_off_c, 0, 69, 60
1, 205972, Note_off_c, 0, 66, 59
1, 205979, Note_off_c, 0, 54, 58
1, 206055, Note_on_c, 0, 55, 72
1, 206059, Note_on_c, 0, 67, 73
1, 206060, Note_on_c, 0, 51, 70
1, 206061, Control_c, 0, 67, 20
1, 206062, Note_on_c, 0, 63, 79
1, 206085, Note_off_c, 0, 55, 66
1, 206098, Note_off_c, 0, 51, 62
1, 206110, Note_off_c, 0, 63, 59
1, 206113, Note_off_c, 0, 67, 62
1, 206135, Control_c, 0, 67, 0
1, 206196, Note_on_c, 0, 49, 75
1, 206199, Note_on_c, 0, 53, 68
1, 206201, Note_on_c, 0, 65, 80
1, 206209, Note_on_c, 0, 61, 83
1, 206229, Note_off_c, 0, 53, 63
1, 206234, Note_off_c, 0, 49, 62
1, 206247, Note_off_c, 0, 65, 65
1, 206258, Note_off_c, 0, 61, 60
1, 206328, Note_on_c, 0, 51, 85
1, 206334, Note_on_c, 0, 63, 89
1, 206339, Note_on_c, 0, 58, 83
1, 206352, Note_on_c, 0, 46, 47
1, 206371, Note_off_c, 0, 51, 61
1, 206373, Note_on_c, 0, 57, 51
1, 206377, Note_off_c, 0, 58, 57
1, 206382, Note_off_c, 0, 46, 57
1, 206398, Note_off_c, 0, 63, 61
1, 206399, Note_off_c, 0, 57, 56
1, 206440, Poly_aftertouch_c, 0, 52, 0
1, 206464, Note_on_c, 0, 50, 88
1, 206465, Note_on_c, 0, 55, 94
1, 206470, Note_on_c, 0, 62, 87
1, 206473, Note_on_c, 0, 45, 76
1, 206486, Note_on_c, 0, 43, 61
1, 206508, Note_off_c, 0, 43, 61
1, 206510, Note_off_c, 0, 50, 63
1, 206515, Note_on_c, 0, 61, 11
1, 206533, Note_off_c, 0, 55, 59
1, 206534, Note_off_c, 0, 45, 63
1, 206548, Note_off_c, 0, 61, 54
1, 206560, Note_off_c, 0, 62, 61
1, 206595, Control_c, 0, 64, 72
1, 206610, Control_c, 0, 64, 0
1, 206619, Note_on_c, 0, 61, 94
1, 206620, Note_on_c, 0, 54, 96
1, 206622, Note_on_c, 0, 49, 89
1, 206625, Control_c, 0, 67, 38
1, 206630, Note_on_c, 0, 44, 74
1, 206640, Control_c, 0, 64, 66
1, 206640, Control_c, 0, 67, 52
1, 206651, Note_off_c, 0, 49, 66
1, 206655, Control_c, 0, 64, 127
1, 206655, Control_c, 0, 67, 50
1, 206661, Note_off_c, 0, 44, 68
1, 206663, Note_off_c, 0, 54, 64
1, 206676, Control_c, 0, 67, 48
1, 206686, Note_on_c, 0, 62, 16
1, 206689, Note_off_c, 0, 61, 59
1, 206691, Control_c, 0, 67, 45
1, 206706, Control_c, 0, 67, 42
1, 206719, Poly_aftertouch_c, 0, 42, 127
1, 206721, Control_c, 0, 67, 41
1, 206730, Note_off_c, 0, 62, 39
1, 206736, Control_c, 0, 67, 46
1, 206741, Poly_aftertouch_c, 0, 42, 0
1, 206750, Control_c, 0, 67, 47
1, 206765, Control_c, 0, 67, 46
1, 206780, Control_c, 0, 67, 45
1, 206793, Note_on_c, 0, 45, 78
1, 206795, Control_c, 0, 67, 43
1, 206799, Note_on_c, 0, 39, 74
1, 206799, Note_on_c, 0, 57, 76
1, 206800, Note_on_c, 0, 51, 84
1, 206810, Control_c, 0, 67, 42
1, 206824, Note_off_c, 0, 45, 65
1, 206836, Note_off_c, 0, 39, 63
1, 206856, Note_off_c, 0, 51, 59
1, 206860, Note_off_c, 0, 57, 63
1, 206869, Control_c, 0, 67, 41
1, 206884, Control_c, 0, 67, 39
1, 206899, Control_c, 0, 67, 37
1, 206914, Control_c, 0, 67, 36
1, 206941, Note_on_c, 0, 37, 82
1, 206941, Note_on_c, 0, 43, 84
1, 206946, Note_on_c, 0, 48, 80
1, 206948, Note_on_c, 0, 55, 85
1, 206958, Control_c, 0, 67, 35
1, 206968, Note_on_c, 0, 50, 57
1, 206973, Control_c, 0, 67, 33
1, 206974, Note_off_c, 0, 43, 65
1, 206979, Note_off_c, 0, 55, 60
1, 206985, Note_off_c, 0, 37, 63
1, 206988, Control_c, 0, 67, 28
1, 206994, Note_off_c, 0, 50, 59
1, 207001, Note_off_c, 0, 48, 63
1, 207002, Control_c, 0, 67, 22
1, 207017, Control_c, 0, 67, 0
1, 207084, Note_on_c, 0, 41, 82
1, 207088, Note_on_c, 0, 36, 77
1, 207090, Note_on_c, 0, 53, 91
1, 207091, Control_c, 0, 64, 105
1, 207094, Note_on_c, 0, 46, 96
1, 207106, Control_c, 0, 64, 74
1, 207108, Note_on_c, 0, 35, 69
1, 207121, Control_c, 0, 64, 71
1, 207126, Note_off_c, 0, 41, 63
1, 207136, Control_c, 0, 64, 79
1, 207137, Note_off_c, 0, 36, 62
1, 207137, Note_off_c, 0, 35, 38
1, 207140, Note_off_c, 0, 46, 62
1, 207143, Note_off_c, 0, 53, 63
1, 207152, Control_c, 0, 64, 127
1, 207203, Poly_aftertouch_c, 0, 40, 0
1, 207250, Note_on_c, 0, 45, 95
1, 207251, Note_on_c, 0, 39, 96
1, 207253, Note_on_c, 0, 51, 97
1, 207260, Note_on_c, 0, 34, 82
1, 207287, Note_off_c, 0, 45, 63
1, 207288, Note_off_c, 0, 39, 60
1, 207299, Note_off_c, 0, 34, 63
1, 207327, Note_off_c, 0, 51, 61
1, 207418, Control_c, 0, 64, 87
1, 207440, Control_c, 0, 64, 41
1, 207455, Control_c, 0, 64, 0
1, 207466, Note_on_c, 0, 34, 106
1, 207467, Note_on_c, 0, 46, 102
1, 207470, Control_c, 0, 64, 34
1, 207470, Control_c, 0, 67, 29
1, 207474, Note_on_c, 0, 22, 96
1, 207485, Control_c, 0, 64, 72
1, 207485, Control_c, 0, 67, 0
1, 207490, Note_off_c, 0, 34, 67
1, 207499, Control_c, 0, 64, 127
1, 207501, Note_off_c, 0, 22, 64
1, 207516, Note_off_c, 0, 46, 65
1, 207595, Poly_aftertouch_c, 0, 56, 0
1, 207677, Control_c, 0, 64, 71
1, 207692, Control_c, 0, 64, 0
1, 207692, Control_c, 0, 67, 36
1, 207697, Note_on_c, 0, 34, 116
1, 207698, Note_on_c, 0, 46, 104
1, 207698, Note_on_c, 0, 22, 101
1, 207707, Control_c, 0, 67, 107
1, 207722, Note_off_c, 0, 22, 70
1, 207722, Control_c, 0, 64, 65
1, 207722, Control_c, 0, 67, 127
1, 207734, Note_off_c, 0, 34, 62
1, 207737, Control_c, 0, 64, 127
1, 207737, Note_off_c, 0, 46, 68
1, 207796, Control_c, 0, 67, 110
1, 207870, Control_c, 0, 67, 107
1, 207929, Control_c, 0, 67, 104
1, 207945, Control_c, 0, 67, 99
1, 207960, Control_c, 0, 67, 96
1, 207999, Note_on_c, 0, 53, 89
1, 208000, Note_on_c, 0, 65, 85
1, 208002, Note_on_c, 0, 41, 77
1, 208006, Note_on_c, 0, 46, 82
1, 208006, Note_on_c, 0, 58, 85
1, 208007, Note_on_c, 0, 49, 77
1, 208007, Note_on_c, 0, 61, 81
1, 208026, Note_off_c, 0, 41, 65
1, 208026, Note_off_c, 0, 53, 65
1, 208029, Note_off_c, 0, 58, 68
1, 208031, Note_off_c, 0, 46, 69
1, 208032, Note_off_c, 0, 49, 70
1, 208034, Control_c, 0, 67, 94
1, 208040, Note_off_c, 0, 65, 67
1, 208044, Note_off_c, 0, 61, 60
1, 208048, Control_c, 0, 67, 89
1, 208063, Control_c, 0, 67, 82
1, 208078, Control_c, 0, 67, 76
1, 208093, Control_c, 0, 67, 70
1, 208108, Control_c, 0, 67, 62
1, 208122, Control_c, 0, 67, 50
1, 208137, Control_c, 0, 67, 32
1, 208152, Control_c, 0, 67, 0
1, 208442, Note_on_c, 0, 77, 79
1, 208443, Note_on_c, 0, 65, 91
1, 208444, Note_on_c, 0, 70, 90
1, 208444, Note_on_c, 0, 73, 83
1, 208445, Note_on_c, 0, 53, 73
1, 208449, Note_on_c, 0, 58, 80
1, 208450, Note_on_c, 0, 61, 82
1, 208462, Note_off_c, 0, 70, 74
1, 208465, Note_off_c, 0, 65, 68
1, 208469, Note_off_c, 0, 53, 69
1, 208469, Note_off_c, 0, 73, 68
1, 208476, Note_off_c, 0, 58, 69
1, 208476, Note_off_c, 0, 61, 65
1, 208480, Note_off_c, 0, 77, 65
1, 208679, Note_on_c, 0, 68, 104
1, 208680, Note_on_c, 0, 80, 110
1, 208680, Note_on_c, 0, 89, 90
1, 208681, Note_on_c, 0, 65, 91
1, 208683, Note_on_c, 0, 92, 100
1, 208685, Note_on_c, 0, 56, 93
1, 208685, Note_on_c, 0, 61, 89
1, 208687, Note_on_c, 0, 85, 102
1, 208720, Note_off_c, 0, 65, 68
1, 208720, Note_off_c, 0, 68, 67
1, 208720, Note_off_c, 0, 92, 66
1, 208724, Note_off_c, 0, 80, 64
1, 208724, Note_off_c, 0, 89, 65
1, 208732, Note_off_c, 0, 56, 62
1, 208732, Note_off_c, 0, 61, 65
1, 208732, Note_off_c, 0, 85, 66
1, 208966, Note_on_c, 0, 70, 74
1, 208968, Note_on_c, 0, 77, 70
1, 208969, Note_on_c, 0, 73, 79
1, 208971, Note_on_c, 0, 58, 80
1, 208974, Note_on_c, 0, 65, 78
1, 208977, Note_on_c, 0, 53, 66
1, 208978, Note_on_c, 0, 61, 68
1, 208994, Note_off_c, 0, 65, 73
1, 208996, Note_off_c, 0, 77, 65
1, 209006, Note_off_c, 0, 61, 64
1, 209007, Note_off_c, 0, 70, 62
1, 209008, Note_off_c, 0, 73, 60
1, 209015, Note_off_c, 0, 58, 64
1, 209018, Note_off_c, 0, 53, 63
1, 209400, Note_on_c, 0, 41, 82
1, 209402, Note_on_c, 0, 53, 92
1, 209408, Note_on_c, 0, 65, 90
1, 209409, Note_on_c, 0, 49, 92
1, 209411, Note_on_c, 0, 46, 91
1, 209417, Note_on_c, 0, 58, 88
1, 209421, Note_on_c, 0, 61, 76
1, 209424, Note_off_c, 0, 53, 70
1, 209437, Note_off_c, 0, 49, 67
1, 209445, Note_off_c, 0, 61, 69
1, 209448, Note_off_c, 0, 41, 61
1, 209453, Note_off_c, 0, 46, 64
1, 209453, Note_off_c, 0, 65, 62
1, 209457, Note_off_c, 0, 58, 65
1, 209661, Note_on_c, 0, 34, 117
1, 209671, Note_on_c, 0, 22, 104
1, 209671, Control_c, 0, 64, 55
1, 209686, Control_c, 0, 64, 0
1, 209694, Note_on_c, 0, 46, 97
1, 209694, Note_off_c, 0, 22, 66
1, 209700, Note_on_c, 0, 58, 92
1, 209713, Note_off_c, 0, 34, 62
1, 209715, Control_c, 0, 64, 58
1, 209730, Note_off_c, 0, 46, 65
1, 209730, Control_c, 0, 64, 99
1, 209731, Note_off_c, 0, 58, 67
1, 209742, Note_on_c, 0, 54, 18
1, 209742, Note_off_c, 0, 54, 127
1, 209745, Control_c, 0, 64, 127
1, 209781, Poly_aftertouch_c, 0, 54, 0
1, 210032, Note_on_c, 0, 53, 81
1, 210035, Note_on_c, 0, 61, 91
1, 210037, Note_on_c, 0, 58, 89
1, 210100, Note_on_c, 0, 77, 104
1, 210100, Note_on_c, 0, 82, 99
1, 210101, Note_on_c, 0, 89, 104
1, 210115, Note_off_c, 0, 82, 70
1, 210118, Note_off_c, 0, 77, 69
1, 210118, Note_off_c, 0, 89, 65
1, 210133, Note_off_c, 0, 53, 60
1, 210150, Note_off_c, 0, 58, 67
1, 210167, Note_on_c, 0, 65, 95
1, 210175, Note_off_c, 0, 61, 63
1, 210184, Note_on_c, 0, 85, 91
1, 210185, Note_on_c, 0, 73, 105
1, 210214, Note_off_c, 0, 73, 62
1, 210219, Note_off_c, 0, 85, 65
1, 210428, Note_on_c, 0, 64, 98
1, 210459, Note_off_c, 0, 65, 59
1, 210482, Note_on_c, 0, 70, 76
1, 210546, Note_off_c, 0, 70, 64
1, 210550, Note_on_c, 0, 73, 73
1, 210611, Note_on_c, 0, 63, 99
1, 210626, Note_on_c, 0, 77, 61
1, 210626, Note_off_c, 0, 64, 63
1, 210637, Note_off_c, 0, 73, 58
1, 210679, Note_on_c, 0, 66, 66
1, 210721, Note_off_c, 0, 77, 51
1, 210744, Note_off_c, 0, 66, 60
1, 210750, Note_on_c, 0, 70, 75
1, 210852, Note_on_c, 0, 73, 63
1, 210856, Note_off_c, 0, 70, 63
1, 210874, Note_off_c, 0, 63, 65
1, 210875, Note_on_c, 0, 61, 87
1, 210879, Control_c, 0, 64, 73
1, 210894, Control_c, 0, 64, 47
1, 210909, Control_c, 0, 64, 0
1, 210924, Note_off_c, 0, 73, 60
1, 210936, Note_on_c, 0, 65, 64
1, 210938, Control_c, 0, 64, 53
1, 210953, Control_c, 0, 64, 67
1, 210968, Control_c, 0, 64, 86
1, 210983, Control_c, 0, 64, 127
1, 211006, Note_off_c, 0, 65, 60
1, 211016, Note_on_c, 0, 70, 62
1, 211072, Control_c, 0, 67, 20
1, 211080, Note_off_c, 0, 70, 62
1, 211081, Note_on_c, 0, 77, 58
1, 211116, Control_c, 0, 67, 22
1, 211150, Note_on_c, 0, 66, 63
1, 211169, Control_c, 0, 67, 24
1, 211183, Note_on_c, 0, 58, 81
1, 211216, Note_off_c, 0, 61, 58
1, 211224, Note_off_c, 0, 77, 54
1, 211240, Note_off_c, 0, 66, 47
1, 211243, Control_c, 0, 67, 22
1, 211255, Note_on_c, 0, 70, 55
1, 211358, Note_on_c, 0, 53, 61
1, 211358, Note_on_c, 0, 73, 65
1, 211370, Note_off_c, 0, 70, 61
1, 211385, Note_off_c, 0, 73, 66
1, 211398, Note_off_c, 0, 58, 61
1, 211451, Note_on_c, 0, 52, 72
1, 211469, Note_off_c, 0, 53, 61
1, 211543, Note_off_c, 0, 52, 63
1, 211556, Note_on_c, 0, 51, 74
1, 211569, Control_c, 0, 67, 20
1, 211615, Note_off_c, 0, 51, 61
1, 211639, Note_on_c, 0, 50, 72
1, 211643, Control_c, 0, 67, 0
1, 211687, Note_off_c, 0, 50, 61
1, 211731, Control_c, 0, 67, 19
1, 211736, Note_on_c, 0, 61, 73
1, 211737, Note_on_c, 0, 53, 66
1, 211806, Control_c, 0, 64, 67
1, 211806, Control_c, 0, 67, 21
1, 211820, Control_c, 0, 64, 0
1, 211852, Note_on_c, 0, 49, 57
1, 211868, Note_off_c, 0, 53, 48
1, 211872, Note_on_c, 0, 41, 41
1, 211895, Control_c, 0, 64, 43
1, 211895, Control_c, 0, 67, 23
1, 211910, Control_c, 0, 64, 61
1, 211931, Control_c, 0, 64, 71
1, 211948, Control_c, 0, 64, 80
1, 211961, Note_off_c, 0, 41, 56
1, 211963, Control_c, 0, 64, 94
1, 211971, Note_on_c, 0, 34, 50
1, 211977, Control_c, 0, 64, 102
1, 211992, Control_c, 0, 64, 117
1, 211996, Note_off_c, 0, 49, 55
1, 212004, Note_off_c, 0, 34, 58
1, 212007, Control_c, 0, 64, 127
1, 212039, Note_on_c, 0, 65, 66
1, 212040, Note_on_c, 0, 53, 42
1, 212051, Control_c, 0, 67, 20
1, 212066, Control_c, 0, 67, 0
1, 212078, Note_off_c, 0, 53, 0
1, 212093, Note_on_c, 0, 53, 44
1, 212107, Note_off_c, 0, 61, 42
1, 212111, Note_on_c, 0, 49, 67
1, 212131, Note_off_c, 0, 53, 63
1, 212160, Note_off_c, 0, 49, 63
1, 212182, Note_on_c, 0, 41, 64
1, 212205, Note_off_c, 0, 65, 58
1, 212210, Note_off_c, 0, 41, 62
1, 212226, Note_on_c, 0, 53, 78
1, 212227, Note_on_c, 0, 60, 83
1, 212229, Control_c, 0, 64, 69
1, 212244, Control_c, 0, 64, 0
1, 212294, Note_on_c, 0, 48, 69
1, 212318, Control_c, 0, 64, 60
1, 212324, Note_on_c, 0, 41, 44
1, 212327, Note_off_c, 0, 53, 56
1, 212333, Control_c, 0, 64, 88
1, 212347, Control_c, 0, 64, 127
1, 212363, Note_off_c, 0, 48, 61
1, 212394, Note_off_c, 0, 41, 58
1, 212407, Note_on_c, 0, 34, 73
1, 212438, Note_off_c, 0, 34, 64
1, 212443, Note_on_c, 0, 53, 74
1, 212450, Note_on_c, 0, 65, 75
1, 212469, Note_off_c, 0, 53, 68
1, 212522, Note_on_c, 0, 53, 66
1, 212524, Note_on_c, 0, 48, 64
1, 212556, Note_off_c, 0, 53, 63
1, 212556, Note_off_c, 0, 48, 61
1, 212586, Note_on_c, 0, 41, 75
1, 212600, Control_c, 0, 64, 100
1, 212614, Note_off_c, 0, 60, 36
1, 212614, Control_c, 0, 64, 53
1, 212619, Note_off_c, 0, 41, 63
1, 212625, Note_off_c, 0, 65, 63
1, 212629, Control_c, 0, 64, 0
1, 212638, Note_on_c, 0, 53, 86
1, 212640, Note_on_c, 0, 58, 89
1, 212708, Note_on_c, 0, 46, 89
1, 212726, Control_c, 0, 64, 66
1, 212741, Control_c, 0, 64, 127
1, 212744, Note_on_c, 0, 41, 52
1, 212766, Note_off_c, 0, 53, 54
1, 212789, Note_off_c, 0, 46, 54
1, 212815, Note_off_c, 0, 41, 59
1, 212831, Note_off_c, 0, 58, 56
1, 212834, Note_on_c, 0, 34, 52
1, 212861, Note_off_c, 0, 34, 62
1, 212868, Note_on_c, 0, 65, 87
1, 212871, Note_on_c, 0, 53, 81
1, 212878, Note_on_c, 0, 58, 51
1, 212913, Note_off_c, 0, 58, 61
1, 212937, Note_on_c, 0, 46, 85
1, 212966, Note_off_c, 0, 53, 58
1, 212981, Note_off_c, 0, 46, 64
1, 213018, Note_on_c, 0, 43, 75
1, 213038, Control_c, 0, 64, 76
1, 213046, Note_off_c, 0, 43, 68
1, 213052, Note_on_c, 0, 41, 33
1, 213052, Control_c, 0, 64, 0
1, 213055, Note_on_c, 0, 57, 96
1, 213059, Note_on_c, 0, 53, 90
1, 213078, Note_off_c, 0, 65, 59
1, 213089, Note_off_c, 0, 41, 34
1, 213111, Control_c, 0, 64, 73
1, 213119, Note_on_c, 0, 45, 84
1, 213126, Control_c, 0, 64, 127
1, 213165, Note_off_c, 0, 53, 58
1, 213197, Note_on_c, 0, 41, 31
1, 213202, Note_off_c, 0, 45, 60
1, 213232, Note_off_c, 0, 41, 50
1, 213245, Note_on_c, 0, 32, 60
1, 213251, Note_on_c, 0, 34, 44
1, 213275, Note_off_c, 0, 32, 55
1, 213275, Note_on_c, 0, 53, 94
1, 213277, Note_on_c, 0, 65, 97
1, 213287, Note_off_c, 0, 34, 53
1, 213290, Note_off_c, 0, 57, 61
1, 213301, Note_off_c, 0, 65, 67
1, 213302, Note_off_c, 0, 53, 64
1, 213349, Note_on_c, 0, 52, 73
1, 213360, Note_on_c, 0, 47, 62
1, 213428, Note_off_c, 0, 52, 59
1, 213455, Note_on_c, 0, 41, 65
1, 213458, Note_off_c, 0, 47, 60
1, 213486, Poly_aftertouch_c, 0, 45, 0
1, 213489, Note_off_c, 0, 41, 64
1, 213534, Control_c, 0, 64, 73
1, 213549, Note_on_c, 0, 44, 104
1, 213549, Control_c, 0, 64, 56
1, 213554, Note_on_c, 0, 56, 101
1, 213564, Note_on_c, 0, 54, 86
1, 213564, Control_c, 0, 64, 66
1, 213579, Note_on_c, 0, 43, 57
1, 213579, Note_off_c, 0, 54, 70
1, 213579, Control_c, 0, 64, 86
1, 213579, Control_c, 0, 67, 42
1, 213594, Control_c, 0, 64, 127
1, 213594, Control_c, 0, 67, 104
1, 213603, Note_off_c, 0, 43, 60
1, 213604, Note_off_c, 0, 44, 61
1, 213609, Control_c, 0, 67, 122
1, 213624, Control_c, 0, 67, 120
1, 213636, Note_off_c, 0, 56, 61
1, 213640, Note_on_c, 0, 34, 113
1, 213645, Note_on_c, 0, 22, 93
1, 213670, Note_off_c, 0, 22, 65
1, 213681, Note_off_c, 0, 34, 64
1, 213713, Control_c, 0, 67, 117
1, 213727, Control_c, 0, 67, 115
1, 213757, Control_c, 0, 67, 111
1, 213801, Control_c, 0, 67, 108
1, 213816, Control_c, 0, 67, 105
1, 213831, Control_c, 0, 67, 99
1, 213846, Control_c, 0, 67, 93
1, 213861, Control_c, 0, 67, 89
1, 213875, Control_c, 0, 67, 88
1, 213890, Control_c, 0, 67, 87
1, 213895, Note_on_c, 0, 65, 91
1, 213899, Note_on_c, 0, 50, 79
1, 213899, Note_on_c, 0, 53, 84
1, 213900, Note_on_c, 0, 41, 73
1, 213900, Note_on_c, 0, 46, 78
1, 213902, Note_on_c, 0, 62, 83
1, 213903, Note_on_c, 0, 58, 82
1, 213905, Control_c, 0, 67, 86
1, 213919, Control_c, 0, 67, 85
1, 213924, Note_off_c, 0, 58, 72
1, 213927, Note_off_c, 0, 53, 66
1, 213929, Note_off_c, 0, 41, 62
1, 213931, Note_off_c, 0, 46, 66
1, 213934, Control_c, 0, 67, 82
1, 213937, Note_off_c, 0, 65, 65
1, 213940, Note_off_c, 0, 62, 61
1, 213944, Note_off_c, 0, 50, 60
1, 213949, Control_c, 0, 67, 77
1, 213964, Control_c, 0, 67, 75
1, 214067, Control_c, 0, 67, 75
1, 214082, Control_c, 0, 67, 75
1, 214097, Control_c, 0, 67, 72
1, 214111, Control_c, 0, 67, 64
1, 214126, Control_c, 0, 67, 48
1, 214141, Control_c, 0, 67, 26
1, 214163, Control_c, 0, 67, 0
1, 214360, Note_on_c, 0, 77, 84
1, 214362, Note_on_c, 0, 70, 91
1, 214369, Note_on_c, 0, 65, 97
1, 214371, Note_on_c, 0, 74, 77
1, 214372, Note_on_c, 0, 53, 75
1, 214375, Note_on_c, 0, 62, 79
1, 214381, Note_on_c, 0, 58, 73
1, 214387, Note_off_c, 0, 70, 69
1, 214393, Note_off_c, 0, 74, 70
1, 214396, Note_off_c, 0, 53, 68
1, 214399, Note_off_c, 0, 62, 67
1, 214399, Note_off_c, 0, 77, 67
1, 214403, Note_off_c, 0, 58, 69
1, 214408, Note_off_c, 0, 65, 64
1, 214579, Control_c, 0, 64, 124
1, 214594, Control_c, 0, 64, 59
1, 214609, Control_c, 0, 64, 0
1, 214621, Note_on_c, 0, 71, 99
1, 214624, Note_on_c, 0, 64, 94
1, 214624, Note_on_c, 0, 68, 100
1, 214624, Note_on_c, 0, 83, 106
1, 214625, Note_on_c, 0, 59, 88
1, 214625, Note_on_c, 0, 92, 103
1, 214625, Note_on_c, 0, 95, 102
1, 214630, Note_on_c, 0, 88, 91
1, 214638, Control_c, 0, 64, 69
1, 214638, Control_c, 0, 67, 77
1, 214653, Control_c, 0, 64, 127
1, 214653, Control_c, 0, 67, 125
1, 214655, Note_off_c, 0, 83, 71
1, 214657, Note_off_c, 0, 71, 70
1, 214658, Note_off_c, 0, 95, 68
1, 214668, Control_c, 0, 67, 116
1, 214670, Note_off_c, 0, 59, 65
1, 214670, Note_off_c, 0, 68, 68
1, 214673, Note_off_c, 0, 92, 66
1, 214674, Note_off_c, 0, 64, 65
1, 214674, Note_off_c, 0, 88, 64
1, 214683, Control_c, 0, 67, 101
1, 214697, Control_c, 0, 67, 64
1, 214712, Control_c, 0, 67, 0
1, 214924, Note_on_c, 0, 63, 93
1, 214928, Note_on_c, 0, 51, 85
1, 214930, Note_on_c, 0, 59, 83
1, 214937, Note_on_c, 0, 68, 86
1, 214939, Note_on_c, 0, 80, 92
1, 214948, Note_on_c, 0, 75, 79
1, 214957, Note_off_c, 0, 63, 61
1, 214970, Note_off_c, 0, 59, 65
1, 214974, Note_off_c, 0, 68, 58
1, 214977, Note_off_c, 0, 51, 60
1, 214981, Note_off_c, 0, 80, 63
1, 214995, Note_off_c, 0, 75, 62
1, 215403, Control_c, 0, 64, 103
1, 215418, Control_c, 0, 64, 62
1, 215423, Note_on_c, 0, 47, 95
1, 215424, Note_on_c, 0, 40, 85
1, 215425, Note_on_c, 0, 52, 95
1, 215433, Control_c, 0, 64, 47
1, 215434, Note_on_c, 0, 56, 99
1, 215438, Note_on_c, 0, 68, 94
1, 215439, Note_on_c, 0, 63, 93
1, 215447, Control_c, 0, 64, 68
1, 215459, Note_off_c, 0, 52, 68
1, 215462, Control_c, 0, 64, 127
1, 215471, Note_off_c, 0, 40, 62
1, 215471, Note_off_c, 0, 68, 64
1, 215472, Note_off_c, 0, 47, 67
1, 215476, Note_off_c, 0, 56, 64
1, 215484, Note_off_c, 0, 63, 59
1, 215666, Poly_aftertouch_c, 0, 58, 127
1, 215695, Poly_aftertouch_c, 0, 58, 0
1, 215736, Control_c, 0, 64, 61
1, 215750, Note_on_c, 0, 34, 119
1, 215751, Control_c, 0, 64, 0
1, 215752, Note_on_c, 0, 22, 111
1, 215761, Note_on_c, 0, 46, 103
1, 215767, Note_on_c, 0, 58, 97
1, 215780, Note_off_c, 0, 22, 66
1, 215780, Control_c, 0, 64, 52
1, 215785, Note_off_c, 0, 34, 66
1, 215790, Note_off_c, 0, 58, 70
1, 215795, Control_c, 0, 64, 114
1, 215799, Note_off_c, 0, 46, 63
1, 215810, Control_c, 0, 64, 127
1, 216125, Note_on_c, 0, 62, 89
1, 216125, Note_on_c, 0, 53, 80
1, 216137, Note_on_c, 0, 58, 82
1, 216140, Note_on_c, 0, 56, 80
1, 216200, Note_on_c, 0, 89, 109
1, 216202, Note_on_c, 0, 77, 94
1, 216206, Note_on_c, 0, 82, 90
1, 216225, Note_off_c, 0, 82, 65
1, 216227, Note_off_c, 0, 77, 63
1, 216231, Note_on_c, 0, 87, 47
1, 216235, Note_off_c, 0, 89, 65
1, 216256, Note_off_c, 0, 87, 58
1, 216286, Note_on_c, 0, 86, 100
1, 216286, Note_on_c, 0, 74, 104
1, 216289, Note_on_c, 0, 65, 94
1, 216289, Note_on_c, 0, 82, 79
1, 216293, Note_off_c, 0, 58, 63
1, 216297, Note_off_c, 0, 62, 64
1, 216300, Note_off_c, 0, 53, 61
1, 216304, Note_off_c, 0, 56, 62
1, 216313, Note_off_c, 0, 82, 66
1, 216314, Note_off_c, 0, 74, 69
1, 216316, Note_off_c, 0, 86, 68
1, 216544, Note_on_c, 0, 64, 90
1, 216571, Note_off_c, 0, 65, 64
1, 216594, Note_on_c, 0, 70, 76
1, 216653, Note_off_c, 0, 70, 66
1, 216664, Note_on_c, 0, 74, 82
1, 216728, Note_on_c, 0, 63, 101
1, 216740, Note_on_c, 0, 77, 72
1, 216745, Note_off_c, 0, 74, 61
1, 216751, Note_off_c, 0, 64, 63
1, 216809, Note_on_c, 0, 66, 67
1, 216850, Note_off_c, 0, 77, 58
1, 216879, Note_on_c, 0, 70, 75
1, 216885, Note_off_c, 0, 66, 61
1, 217028, Note_off_c, 0, 70, 63
1, 217033, Note_on_c, 0, 74, 62
1, 217050, Note_on_c, 0, 62, 93
1, 217063, Control_c, 0, 64, 73
1, 217066, Note_off_c, 0, 63, 62
1, 217078, Control_c, 0, 64, 38
1, 217093, Control_c, 0, 64, 0
1, 217137, Control_c, 0, 64, 51
1, 217137, Control_c, 0, 67, 19
1, 217139, Note_on_c, 0, 65, 57
1, 217143, Note_off_c, 0, 74, 57
1, 217159, Control_c, 0, 64, 66
1, 217174, Control_c, 0, 64, 78
1, 217189, Control_c, 0, 64, 91
1, 217189, Control_c, 0, 67, 21
1, 217204, Control_c, 0, 64, 96
1, 217212, Note_off_c, 0, 65, 60
1, 217219, Control_c, 0, 67, 24
1, 217222, Note_on_c, 0, 70, 70
1, 217249, Control_c, 0, 64, 98
1, 217278, Control_c, 0, 64, 100
1, 217305, Note_on_c, 0, 77, 64
1, 217308, Control_c, 0, 64, 104
1, 217309, Note_off_c, 0, 70, 60
1, 217323, Control_c, 0, 64, 110
1, 217337, Control_c, 0, 64, 127
1, 217337, Control_c, 0, 67, 26
1, 217352, Control_c, 0, 67, 28
1, 217367, Control_c, 0, 67, 30
1, 217401, Note_on_c, 0, 58, 81
1, 217403, Note_on_c, 0, 66, 59
1, 217433, Note_off_c, 0, 62, 58
1, 217493, Note_off_c, 0, 77, 54
1, 217502, Note_off_c, 0, 66, 56
1, 217507, Note_on_c, 0, 70, 64
1, 217590, Control_c, 0, 64, 90
1, 217605, Control_c, 0, 64, 73
1, 217610, Note_on_c, 0, 53, 67
1, 217620, Control_c, 0, 64, 69
1, 217633, Note_on_c, 0, 74, 72
1, 217634, Control_c, 0, 64, 72
1, 217649, Control_c, 0, 64, 82
1, 217656, Note_off_c, 0, 58, 60
1, 217658, Note_off_c, 0, 70, 62
1, 217664, Control_c, 0, 64, 101
1, 217678, Control_c, 0, 64, 127
1, 217693, Note_off_c, 0, 74, 61
1, 217717, Note_on_c, 0, 52, 71
1, 217746, Note_off_c, 0, 53, 61
1, 217831, Note_off_c, 0, 52, 61
1, 217837, Note_on_c, 0, 51, 77
1, 217893, Note_off_c, 0, 51, 62
1, 217950, Note_on_c, 0, 50, 68
1, 217967, Control_c, 0, 67, 32
1, 217982, Note_off_c, 0, 50, 65
1, 217997, Control_c, 0, 67, 33
1, 218012, Control_c, 0, 67, 34
1, 218027, Control_c, 0, 67, 37
1, 218042, Note_on_c, 0, 68, 69
1, 218042, Control_c, 0, 67, 40
1, 218046, Note_on_c, 0, 62, 57
1, 218048, Note_on_c, 0, 56, 51
1, 218057, Control_c, 0, 64, 75
1, 218057, Control_c, 0, 67, 41
1, 218071, Control_c, 0, 64, 0
1, 218086, Control_c, 0, 67, 42
1, 218101, Control_c, 0, 67, 43
1, 218116, Control_c, 0, 67, 45
1, 218131, Control_c, 0, 67, 46
1, 218146, Control_c, 0, 64, 65
1, 218146, Control_c, 0, 67, 48
1, 218160, Control_c, 0, 64, 83
1, 218160, Control_c, 0, 67, 48
1, 218170, Note_on_c, 0, 44, 33
1, 218174, Note_on_c, 0, 50, 33
1, 218175, Control_c, 0, 64, 106
1, 218190, Control_c, 0, 64, 127
1, 218191, Note_off_c, 0, 56, 60
1, 218229, Note_off_c, 0, 50, 41
1, 218239, Note_off_c, 0, 44, 41
1, 218264, Control_c, 0, 67, 47
1, 218293, Control_c, 0, 67, 47
1, 218328, Note_off_c, 0, 62, 0
1, 218339, Control_c, 0, 67, 46
1, 218354, Control_c, 0, 67, 46
1, 218358, Note_on_c, 0, 71, 65
1, 218362, Note_on_c, 0, 59, 57
1, 218367, Poly_aftertouch_c, 0, 62, 127
1, 218369, Control_c, 0, 67, 45
1, 218383, Control_c, 0, 67, 45
1, 218387, Note_off_c, 0, 68, 20
1, 218398, Control_c, 0, 67, 44
1, 218403, Note_off_c, 0, 59, 57
1, 218432, Note_off_c, 0, 71, 58
1, 218438, Note_on_c, 0, 56, 67
1, 218450, Note_on_c, 0, 50, 59
1, 218472, Control_c, 0, 67, 45
1, 218477, Note_off_c, 0, 56, 57
1, 218487, Control_c, 0, 67, 45
1, 218507, Note_off_c, 0, 50, 62
1, 218516, Control_c, 0, 67, 46
1, 218524, Note_on_c, 0, 42, 61
1, 218524, Poly_aftertouch_c, 0, 62, 0
1, 218549, Note_off_c, 0, 42, 59
1, 218561, Control_c, 0, 64, 67
1, 218568, Note_on_c, 0, 55, 75
1, 218575, Note_on_c, 0, 67, 68
1, 218576, Control_c, 0, 64, 0
1, 218576, Control_c, 0, 67, 45
1, 218579, Note_on_c, 0, 62, 53
1, 218590, Control_c, 0, 67, 45
1, 218605, Control_c, 0, 67, 44
1, 218632, Note_on_c, 0, 50, 66
1, 218635, Control_c, 0, 64, 57
1, 218639, Note_off_c, 0, 55, 56
1, 218657, Control_c, 0, 64, 82
1, 218671, Note_on_c, 0, 43, 57
1, 218672, Control_c, 0, 64, 115
1, 218687, Control_c, 0, 64, 127
1, 218687, Control_c, 0, 67, 45
1, 218695, Poly_aftertouch_c, 0, 42, 127
1, 218727, Note_off_c, 0, 62, 38
1, 218733, Note_off_c, 0, 50, 60
1, 218738, Poly_aftertouch_c, 0, 42, 0
1, 218747, Note_off_c, 0, 43, 62
1, 218813, Note_on_c, 0, 58, 75
1, 218813, Note_on_c, 0, 70, 76
1, 218821, Note_off_c, 0, 67, 63
1, 218823, Note_on_c, 0, 62, 52
1, 218849, Note_off_c, 0, 58, 55
1, 218858, Note_off_c, 0, 62, 62
1, 218870, Note_off_c, 0, 70, 63
1, 218879, Note_on_c, 0, 55, 74
1, 218879, Control_c, 0, 67, 44
1, 218890, Note_on_c, 0, 50, 60
1, 218934, Note_off_c, 0, 55, 61
1, 218939, Control_c, 0, 67, 45
1, 218945, Note_off_c, 0, 50, 59
1, 218954, Control_c, 0, 67, 46
1, 218957, Note_on_c, 0, 43, 80
1, 218969, Control_c, 0, 64, 65
1, 218983, Note_off_c, 0, 43, 68
1, 218983, Control_c, 0, 64, 0
1, 218983, Control_c, 0, 67, 46
1, 218998, Control_c, 0, 67, 47
1, 219006, Note_on_c, 0, 54, 85
1, 219006, Note_on_c, 0, 66, 85
1, 219008, Note_on_c, 0, 62, 70
1, 219072, Note_off_c, 0, 54, 58
1, 219072, Control_c, 0, 64, 78
1, 219078, Note_on_c, 0, 50, 83
1, 219082, Note_on_c, 0, 42, 80
1, 219087, Control_c, 0, 64, 127
1, 219101, Control_c, 0, 67, 47
1, 219133, Note_off_c, 0, 50, 61
1, 219147, Control_c, 0, 67, 46
1, 219148, Note_on_c, 0, 41, 8
1, 219157, Note_off_c, 0, 42, 61
1, 219162, Control_c, 0, 67, 46
1, 219177, Control_c, 0, 67, 45
1, 219192, Control_c, 0, 67, 44
1, 219200, Note_off_c, 0, 41, 34
1, 219204, Note_on_c, 0, 34, 68
1, 219206, Control_c, 0, 67, 44
1, 219221, Control_c, 0, 67, 43
1, 219224, Note_on_c, 0, 69, 83
1, 219225, Note_on_c, 0, 57, 82
1, 219231, Note_off_c, 0, 34, 61
1, 219244, Note_off_c, 0, 66, 54
1, 219277, Note_off_c, 0, 57, 60
1, 219284, Note_off_c, 0, 69, 58
1, 219305, Note_on_c, 0, 56, 80
1, 219306, Note_on_c, 0, 54, 61
1, 219323, Note_on_c, 0, 50, 61
1, 219325, Control_c, 0, 67, 43
1, 219354, Note_off_c, 0, 56, 59
1, 219356, Note_off_c, 0, 50, 63
1, 219356, Note_off_c, 0, 54, 61
1, 219384, Control_c, 0, 67, 44
1, 219396, Note_off_c, 0, 62, 0
1, 219399, Control_c, 0, 67, 44
1, 219421, Control_c, 0, 64, 79
1, 219421, Control_c, 0, 67, 45
1, 219422, Note_on_c, 0, 62, 45
1, 219427, Note_on_c, 0, 65, 96
1, 219428, Note_on_c, 0, 53, 90
1, 219436, Control_c, 0, 64, 0
1, 219442, Note_on_c, 0, 42, 15
1, 219442, Note_off_c, 0, 42, 127
1, 219451, Control_c, 0, 67, 45
1, 219465, Control_c, 0, 67, 44
1, 219480, Control_c, 0, 64, 49
1, 219480, Control_c, 0, 67, 43
1, 219495, Control_c, 0, 64, 86
1, 219498, Note_off_c, 0, 53, 60
1, 219501, Note_on_c, 0, 42, 70
1, 219506, Note_on_c, 0, 50, 87
1, 219510, Control_c, 0, 64, 127
1, 219510, Control_c, 0, 67, 42
1, 219539, Control_c, 0, 67, 41
1, 219553, Poly_aftertouch_c, 0, 63, 0
1, 219554, Control_c, 0, 67, 39
1, 219569, Control_c, 0, 67, 36
1, 219571, Note_off_c, 0, 50, 59
1, 219584, Control_c, 0, 67, 31
1, 219598, Note_off_c, 0, 42, 62
1, 219599, Control_c, 0, 67, 0
1, 219662, Note_on_c, 0, 56, 97
1, 219666, Note_on_c, 0, 68, 94
1, 219685, Note_off_c, 0, 62, 62
1, 219686, Note_off_c, 0, 65, 61
1, 219703, Note_off_c, 0, 68, 65
1, 219704, Note_off_c, 0, 56, 61
1, 219705, Note_on_c, 0, 53, 80
1, 219765, Note_on_c, 0, 50, 48
1, 219790, Note_off_c, 0, 53, 57
1, 219830, Note_on_c, 0, 41, 61
1, 219831, Note_off_c, 0, 50, 60
1, 219857, Note_on_c, 0, 43, 33
1, 219857, Note_off_c, 0, 41, 63
1, 219893, Note_off_c, 0, 43, 53
1, 219934, Note_on_c, 0, 50, 101
1, 219936, Note_on_c, 0, 62, 105
1, 219940, Control_c, 0, 64, 90
1, 219955, Control_c, 0, 64, 52
1, 219970, Control_c, 0, 64, 0
1, 219985, Control_c, 0, 64, 35
1, 220000, Control_c, 0, 64, 64
1, 220015, Control_c, 0, 64, 127
1, 220015, Control_c, 0, 67, 57
1, 220023, Note_on_c, 0, 38, 102
1, 220027, Note_on_c, 0, 26, 98
1, 220030, Control_c, 0, 67, 70
1, 220045, Control_c, 0, 67, 63
1, 220054, Note_off_c, 0, 50, 60
1, 220055, Note_off_c, 0, 26, 68
1, 220060, Control_c, 0, 67, 61
1, 220061, Note_off_c, 0, 38, 66
1, 220074, Control_c, 0, 67, 58
1, 220080, Note_off_c, 0, 62, 61
1, 220104, Control_c, 0, 67, 59
1, 220119, Control_c, 0, 67, 58
1, 220134, Control_c, 0, 67, 55
1, 220155, Control_c, 0, 67, 52
1, 220170, Control_c, 0, 67, 51
1, 220230, Control_c, 0, 67, 51
1, 220244, Control_c, 0, 67, 50
1, 220259, Control_c, 0, 67, 49
1, 220274, Control_c, 0, 67, 48
1, 220288, Note_on_c, 0, 69, 81
1, 220289, Note_on_c, 0, 57, 71
1, 220291, Note_on_c, 0, 62, 70
1, 220298, Note_on_c, 0, 66, 65
1, 220310, Note_on_c, 0, 47, 46
1, 220313, Note_off_c, 0, 62, 70
1, 220317, Note_off_c, 0, 57, 65
1, 220319, Control_c, 0, 67, 48
1, 220320, Note_on_c, 0, 40, 38
1, 220324, Note_on_c, 0, 38, 24
1, 220326, Note_off_c, 0, 66, 65
1, 220331, Note_off_c, 0, 69, 59
1, 220334, Control_c, 0, 67, 47
1, 220340, Note_off_c, 0, 47, 52
1, 220355, Note_off_c, 0, 40, 44
1, 220363, Control_c, 0, 67, 48
1, 220364, Note_off_c, 0, 38, 55
1, 220378, Control_c, 0, 67, 48
1, 220467, Control_c, 0, 67, 49
1, 220481, Control_c, 0, 67, 51
1, 220496, Control_c, 0, 67, 51
1, 220508, Note_on_c, 0, 66, 83
1, 220510, Note_on_c, 0, 78, 92
1, 220510, Note_on_c, 0, 45, 65
1, 220513, Note_on_c, 0, 57, 71
1, 220515, Note_on_c, 0, 54, 73
1, 220518, Note_on_c, 0, 71, 69
1, 220528, Note_on_c, 0, 74, 49
1, 220532, Note_off_c, 0, 45, 63
1, 220536, Note_on_c, 0, 50, 34
1, 220537, Note_off_c, 0, 57, 70
1, 220538, Note_off_c, 0, 66, 63
1, 220541, Note_off_c, 0, 71, 70
1, 220542, Note_off_c, 0, 54, 66
1, 220552, Note_on_c, 0, 75, 4
1, 220552, Note_off_c, 0, 74, 55
1, 220559, Note_off_c, 0, 78, 63
1, 220560, Note_off_c, 0, 50, 58
1, 220604, Note_off_c, 0, 75, 53
1, 220718, Control_c, 0, 67, 52
1, 220734, Control_c, 0, 67, 52
1, 220746, Note_on_c, 0, 66, 96
1, 220746, Note_on_c, 0, 74, 104
1, 220747, Note_on_c, 0, 78, 89
1, 220747, Note_on_c, 0, 86, 99
1, 220748, Note_on_c, 0, 54, 83
1, 220749, Control_c, 0, 67, 53
1, 220752, Note_on_c, 0, 62, 81
1, 220754, Note_on_c, 0, 81, 78
1, 220758, Note_on_c, 0, 59, 76
1, 220764, Control_c, 0, 67, 53
1, 220773, Note_off_c, 0, 74, 65
1, 220778, Note_off_c, 0, 54, 67
1, 220781, Note_off_c, 0, 59, 68
1, 220783, Note_off_c, 0, 62, 61
1, 220788, Note_off_c, 0, 66, 61
1, 220790, Note_off_c, 0, 78, 66
1, 220790, Note_off_c, 0, 81, 62
1, 220796, Note_off_c, 0, 86, 64
1, 220808, Control_c, 0, 67, 53
1, 220823, Control_c, 0, 67, 50
1, 220838, Control_c, 0, 67, 46
1, 220853, Control_c, 0, 67, 38
1, 220868, Control_c, 0, 67, 21
1, 220882, Control_c, 0, 67, 0
1, 220978, Control_c, 0, 64, 94
1, 220993, Control_c, 0, 64, 42
1, 221008, Control_c, 0, 64, 0
1, 221008, Control_c, 0, 67, 25
1, 221015, Note_on_c, 0, 85, 107
1, 221018, Note_on_c, 0, 73, 100
1, 221019, Note_on_c, 0, 97, 110
1, 221021, Note_on_c, 0, 94, 102
1, 221023, Control_c, 0, 64, 34
1, 221023, Control_c, 0, 67, 30
1, 221026, Note_on_c, 0, 70, 85
1, 221029, Note_on_c, 0, 61, 84
1, 221030, Note_on_c, 0, 66, 80
1, 221031, Note_on_c, 0, 90, 71
1, 221037, Control_c, 0, 64, 87
1, 221037, Control_c, 0, 67, 27
1, 221046, Note_off_c, 0, 73, 68
1, 221049, Note_off_c, 0, 66, 71
1, 221051, Note_off_c, 0, 85, 69
1, 221051, Note_off_c, 0, 97, 65
1, 221052, Control_c, 0, 64, 127
1, 221055, Note_on_c, 0, 91, 42
1, 221055, Note_off_c, 0, 90, 53
1, 221061, Note_off_c, 0, 94, 65
1, 221067, Control_c, 0, 67, 25
1, 221070, Note_off_c, 0, 70, 63
1, 221076, Note_off_c, 0, 61, 58
1, 221082, Note_off_c, 0, 91, 54
1, 221157, Control_c, 0, 67, 23
1, 221172, Control_c, 0, 67, 20
1, 221186, Control_c, 0, 67, 0
1, 221302, Note_on_c, 0, 64, 88
1, 221305, Note_on_c, 0, 52, 85
1, 221309, Note_on_c, 0, 58, 87
1, 221309, Note_on_c, 0, 61, 87
1, 221310, Note_on_c, 0, 70, 107
1, 221311, Note_on_c, 0, 82, 94
1, 221318, Note_on_c, 0, 73, 86
1, 221324, Note_on_c, 0, 77, 63
1, 221327, Note_off_c, 0, 64, 65
1, 221327, Note_on_c, 0, 76, 74
1, 221336, Note_off_c, 0, 52, 65
1, 221344, Note_off_c, 0, 82, 66
1, 221345, Note_off_c, 0, 70, 67
1, 221348, Note_off_c, 0, 58, 66
1, 221350, Note_off_c, 0, 77, 68
1, 221351, Note_off_c, 0, 76, 68
1, 221353, Note_off_c, 0, 61, 61
1, 221363, Note_off_c, 0, 73, 61
1, 221835, Note_on_c, 0, 42, 98
1, 221836, Note_on_c, 0, 49, 103
1, 221839, Note_on_c, 0, 64, 94
1, 221845, Note_on_c, 0, 58, 95
1, 221869, Note_off_c, 0, 49, 69
1, 221877, Note_off_c, 0, 42, 66
1, 221887, Note_off_c, 0, 64, 65
1, 221890, Note_off_c, 0, 58, 67
1, 222015, Note_on_c, 0, 62, 28
1, 222051, Note_off_c, 0, 62, 47
1, 222157, Control_c, 0, 64, 85
1, 222172, Control_c, 0, 64, 0
1, 222185, Note_on_c, 0, 38, 105
1, 222187, Note_on_c, 0, 26, 98
1, 222193, Note_on_c, 0, 50, 99
1, 222195, Note_on_c, 0, 62, 104
1, 222230, Control_c, 0, 64, 81
1, 222245, Control_c, 0, 64, 127
1, 222253, Note_off_c, 0, 50, 63
1, 222286, Note_off_c, 0, 62, 64
1, 222288, Note_off_c, 0, 26, 60
1, 222340, Note_off_c, 0, 38, 62
1, 222489, Poly_aftertouch_c, 0, 73, 127
1, 222537, Poly_aftertouch_c, 0, 73, 0
1, 222611, Note_on_c, 0, 81, 96
1, 222616, Note_on_c, 0, 45, 82
1, 222616, Note_on_c, 0, 54, 97
1, 222617, Note_on_c, 0, 69, 89
1, 222620, Note_on_c, 0, 74, 85
1, 222623, Note_on_c, 0, 50, 76
1, 222642, Note_off_c, 0, 69, 65
1, 222651, Note_off_c, 0, 81, 65
1, 222659, Note_off_c, 0, 74, 67
1, 222698, Note_on_c, 0, 78, 100
1, 222699, Note_on_c, 0, 57, 103
1, 222704, Note_on_c, 0, 66, 95
1, 222709, Note_off_c, 0, 45, 62
1, 222722, Note_on_c, 0, 74, 53
1, 222724, Note_off_c, 0, 50, 61
1, 222728, Note_off_c, 0, 54, 63
1, 222728, Note_off_c, 0, 66, 66
1, 222733, Note_off_c, 0, 78, 67
1, 222743, Note_off_c, 0, 74, 62
1, 222969, Note_on_c, 0, 56, 99
1, 223008, Note_off_c, 0, 57, 62
1, 223012, Note_on_c, 0, 62, 66
1, 223074, Note_on_c, 0, 66, 76
1, 223090, Note_off_c, 0, 62, 61
1, 223170, Note_on_c, 0, 55, 100
1, 223179, Note_on_c, 0, 69, 67
1, 223195, Note_off_c, 0, 66, 59
1, 223196, Note_off_c, 0, 56, 60
1, 223210, Control_c, 0, 64, 84
1, 223225, Control_c, 0, 64, 65
1, 223239, Control_c, 0, 64, 63
1, 223244, Note_on_c, 0, 58, 65
1, 223254, Control_c, 0, 64, 67
1, 223269, Control_c, 0, 64, 74
1, 223278, Note_off_c, 0, 69, 58
1, 223284, Control_c, 0, 64, 85
1, 223299, Control_c, 0, 64, 103
1, 223311, Note_on_c, 0, 62, 65
1, 223311, Note_off_c, 0, 58, 61
1, 223313, Control_c, 0, 64, 127
1, 223404, Note_on_c, 0, 66, 67
1, 223417, Control_c, 0, 64, 107
1, 223431, Control_c, 0, 64, 66
1, 223434, Note_off_c, 0, 62, 59
1, 223445, Note_on_c, 0, 54, 83
1, 223446, Control_c, 0, 64, 0
1, 223482, Note_off_c, 0, 55, 63
1, 223499, Note_on_c, 0, 57, 69
1, 223499, Note_off_c, 0, 66, 59
1, 223535, Control_c, 0, 64, 44
1, 223550, Control_c, 0, 64, 60
1, 223565, Control_c, 0, 64, 67
1, 223571, Note_off_c, 0, 57, 61
1, 223580, Control_c, 0, 64, 69
1, 223595, Control_c, 0, 64, 70
1, 223596, Note_on_c, 0, 62, 55
1, 223639, Control_c, 0, 64, 71
1, 223654, Control_c, 0, 64, 72
1, 223684, Control_c, 0, 67, 20
1, 223698, Note_off_c, 0, 62, 60
1, 223713, Control_c, 0, 64, 72
1, 223720, Note_on_c, 0, 71, 35
1, 223726, Note_on_c, 0, 69, 38
1, 223728, Control_c, 0, 64, 73
1, 223728, Control_c, 0, 67, 22
1, 223742, Control_c, 0, 64, 74
1, 223757, Control_c, 0, 64, 74
1, 223760, Note_off_c, 0, 71, 65
1, 223796, Note_on_c, 0, 58, 54
1, 223816, Control_c, 0, 64, 75
1, 223831, Control_c, 0, 64, 76
1, 223846, Control_c, 0, 64, 77
1, 223851, Note_on_c, 0, 50, 73
1, 223860, Note_off_c, 0, 58, 0
1, 223861, Control_c, 0, 64, 79
1, 223876, Control_c, 0, 64, 79
1, 223883, Note_off_c, 0, 54, 53
1, 223888, Note_on_c, 0, 62, 66
1, 223891, Control_c, 0, 64, 80
1, 223904, Poly_aftertouch_c, 0, 58, 127
1, 223913, Control_c, 0, 64, 81
1, 223929, Control_c, 0, 64, 82
1, 223944, Control_c, 0, 64, 84
1, 223947, Poly_aftertouch_c, 0, 58, 0
1, 223959, Control_c, 0, 64, 85
1, 223961, Note_off_c, 0, 69, 39
1, 223968, Poly_aftertouch_c, 0, 58, 0
1, 223974, Control_c, 0, 64, 86
1, 223988, Control_c, 0, 64, 87
1, 224003, Control_c, 0, 64, 89
1, 224018, Control_c, 0, 64, 91
1, 224033, Control_c, 0, 64, 93
1, 224068, Note_on_c, 0, 45, 76
1, 224092, Note_off_c, 0, 50, 61
1, 224092, Control_c, 0, 64, 84
1, 224107, Control_c, 0, 64, 67
1, 224122, Control_c, 0, 64, 0
1, 224126, Note_off_c, 0, 62, 58
1, 224128, Note_on_c, 0, 66, 66
1, 224151, Control_c, 0, 67, 24
1, 224195, Control_c, 0, 67, 26
1, 224210, Control_c, 0, 64, 51
1, 224225, Control_c, 0, 64, 68
1, 224240, Note_off_c, 0, 66, 64
1, 224240, Control_c, 0, 64, 78
1, 224240, Control_c, 0, 67, 28
1, 224254, Control_c, 0, 64, 86
1, 224263, Note_off_c, 0, 45, 64
1, 224269, Note_on_c, 0, 44, 69
1, 224269, Control_c, 0, 64, 90
1, 224284, Control_c, 0, 64, 96
1, 224299, Control_c, 0, 64, 115
1, 224314, Control_c, 0, 64, 127
1, 224369, Note_off_c, 0, 44, 63
1, 224376, Note_on_c, 0, 43, 70
1, 224484, Note_on_c, 0, 42, 74
1, 224499, Note_off_c, 0, 43, 61
1, 224563, Note_on_c, 0, 69, 79
1, 224661, Control_c, 0, 67, 30
1, 224762, Note_on_c, 0, 39, 64
1, 224764, Note_off_c, 0, 42, 57
1, 224781, Control_c, 0, 64, 77
1, 224795, Control_c, 0, 64, 52
1, 224810, Control_c, 0, 64, 0
1, 224830, Note_on_c, 0, 73, 69
1, 224832, Note_off_c, 0, 69, 60
1, 224869, Control_c, 0, 67, 32
1, 224884, Control_c, 0, 67, 36
1, 224899, Control_c, 0, 67, 44
1, 224914, Control_c, 0, 67, 50
1, 224929, Control_c, 0, 67, 52
1, 224944, Control_c, 0, 64, 45
1, 224944, Control_c, 0, 67, 54
1, 224958, Control_c, 0, 64, 59
1, 224958, Control_c, 0, 67, 59
1, 224973, Control_c, 0, 64, 65
1, 224973, Control_c, 0, 67, 65
1, 224988, Control_c, 0, 64, 70
1, 224988, Control_c, 0, 67, 71
1, 225002, Control_c, 0, 64, 74
1, 225002, Control_c, 0, 67, 73
1, 225017, Control_c, 0, 64, 77
1, 225032, Control_c, 0, 64, 79
1, 225037, Note_off_c, 0, 39, 60
1, 225047, Control_c, 0, 64, 83
1, 225062, Control_c, 0, 64, 89
1, 225062, Control_c, 0, 67, 73
1, 225077, Control_c, 0, 64, 99
1, 225077, Control_c, 0, 67, 75
1, 225079, Note_off_c, 0, 73, 61
1, 225091, Control_c, 0, 64, 113
1, 225091, Control_c, 0, 67, 77
1, 225097, Note_on_c, 0, 49, 46
1, 225106, Control_c, 0, 64, 127
1, 225106, Control_c, 0, 67, 80
1, 225115, Note_on_c, 0, 66, 53
1, 225121, Control_c, 0, 67, 80
1, 225166, Control_c, 0, 67, 81
1, 225184, Note_on_c, 0, 57, 66
1, 225190, Note_off_c, 0, 49, 54
1, 225211, Control_c, 0, 67, 80
1, 225213, Note_on_c, 0, 61, 47
1, 225226, Control_c, 0, 67, 78
1, 225240, Control_c, 0, 67, 78
1, 225246, Note_off_c, 0, 61, 55
1, 225299, Note_off_c, 0, 57, 60
1, 225300, Control_c, 0, 67, 77
1, 225315, Control_c, 0, 67, 77
1, 225351, Note_on_c, 0, 72, 81
1, 225363, Note_on_c, 0, 48, 69
1, 225395, Control_c, 0, 67, 77
1, 225410, Control_c, 0, 64, 69
1, 225410, Control_c, 0, 67, 78
1, 225425, Control_c, 0, 64, 0
1, 225425, Control_c, 0, 67, 79
1, 225438, Note_off_c, 0, 66, 14
1, 225440, Note_on_c, 0, 69, 75
1, 225440, Control_c, 0, 67, 80
1, 225452, Note_on_c, 0, 41, 60
1, 225455, Note_off_c, 0, 72, 63
1, 225455, Control_c, 0, 67, 81
1, 225470, Control_c, 0, 67, 82
1, 225477, Note_off_c, 0, 48, 54
1, 225485, Control_c, 0, 67, 83
1, 225500, Control_c, 0, 64, 50
1, 225500, Control_c, 0, 67, 85
1, 225515, Control_c, 0, 64, 67
1, 225515, Control_c, 0, 67, 87
1, 225530, Control_c, 0, 64, 77
1, 225530, Control_c, 0, 67, 88
1, 225534, Note_off_c, 0, 41, 58
1, 225545, Control_c, 0, 64, 86
1, 225545, Control_c, 0, 67, 90
1, 225560, Control_c, 0, 64, 91
1, 225560, Control_c, 0, 67, 92
1, 225574, Control_c, 0, 64, 96
1, 225574, Control_c, 0, 67, 94
1, 225589, Control_c, 0, 64, 103
1, 225604, Control_c, 0, 64, 112
1, 225619, Control_c, 0, 64, 127
1, 225628, Note_on_c, 0, 49, 44
1, 225639, Note_on_c, 0, 65, 65
1, 225664, Note_off_c, 0, 49, 51
1, 225697, Note_on_c, 0, 61, 57
1, 225708, Note_on_c, 0, 57, 62
1, 225716, Note_off_c, 0, 69, 26
1, 225719, Note_off_c, 0, 65, 60
1, 225723, Control_c, 0, 67, 93
1, 225738, Control_c, 0, 67, 93
1, 225746, Note_off_c, 0, 61, 60
1, 225767, Control_c, 0, 67, 92
1, 225797, Control_c, 0, 67, 92
1, 225827, Note_off_c, 0, 57, 50
1, 225870, Note_on_c, 0, 48, 60
1, 225883, Note_on_c, 0, 72, 67
1, 225915, Control_c, 0, 64, 83
1, 225915, Control_c, 0, 67, 92
1, 225930, Control_c, 0, 64, 57
1, 225930, Control_c, 0, 67, 93
1, 225944, Control_c, 0, 64, 0
1, 225959, Control_c, 0, 67, 93
1, 225961, Note_on_c, 0, 42, 66
1, 225971, Note_off_c, 0, 48, 61
1, 225974, Control_c, 0, 67, 94
1, 225978, Note_on_c, 0, 68, 63
1, 225979, Note_off_c, 0, 72, 62
1, 225989, Control_c, 0, 64, 37
1, 225989, Control_c, 0, 67, 95
1, 226004, Control_c, 0, 64, 62
1, 226019, Control_c, 0, 64, 72
1, 226019, Control_c, 0, 67, 96
1, 226033, Control_c, 0, 64, 81
1, 226033, Control_c, 0, 67, 98
1, 226048, Control_c, 0, 64, 85
1, 226048, Control_c, 0, 67, 100
1, 226063, Control_c, 0, 64, 85
1, 226063, Control_c, 0, 67, 102
1, 226078, Control_c, 0, 64, 87
1, 226085, Note_off_c, 0, 42, 55
1, 226093, Control_c, 0, 64, 90
1, 226108, Control_c, 0, 64, 92
1, 226123, Control_c, 0, 64, 95
1, 226138, Control_c, 0, 64, 97
1, 226155, Note_on_c, 0, 49, 53
1, 226159, Note_off_c, 0, 68, 58
1, 226159, Control_c, 0, 67, 104
1, 226174, Control_c, 0, 64, 100
1, 226183, Note_on_c, 0, 64, 56
1, 226189, Control_c, 0, 64, 102
1, 226204, Control_c, 0, 64, 106
1, 226204, Control_c, 0, 67, 106
1, 226218, Control_c, 0, 64, 112
1, 226218, Control_c, 0, 67, 108
1, 226224, Note_off_c, 0, 49, 58
1, 226233, Control_c, 0, 64, 122
1, 226233, Control_c, 0, 67, 110
1, 226248, Control_c, 0, 64, 127
1, 226248, Control_c, 0, 67, 112
1, 226254, Note_on_c, 0, 58, 50
1, 226254, Note_on_c, 0, 61, 55
1, 226257, Note_off_c, 0, 64, 58
1, 226319, Note_off_c, 0, 61, 59
1, 226323, Note_off_c, 0, 58, 57
1, 226323, Control_c, 0, 67, 114
1, 226441, Note_on_c, 0, 48, 57
1, 226442, Note_on_c, 0, 72, 66
1, 226472, Control_c, 0, 64, 106
1, 226472, Control_c, 0, 67, 116
1, 226487, Control_c, 0, 64, 72
1, 226487, Control_c, 0, 67, 118
1, 226501, Control_c, 0, 64, 47
1, 226516, Control_c, 0, 64, 0
1, 226524, Note_off_c, 0, 72, 61
1, 226535, Note_on_c, 0, 69, 54
1, 226545, Note_on_c, 0, 41, 41
1, 226546, Control_c, 0, 67, 120
1, 226561, Control_c, 0, 64, 56
1, 226575, Control_c, 0, 64, 69
1, 226590, Control_c, 0, 64, 78
1, 226590, Control_c, 0, 67, 122
1, 226605, Control_c, 0, 64, 85
1, 226606, Note_off_c, 0, 48, 31
1, 226620, Control_c, 0, 64, 86
1, 226635, Control_c, 0, 64, 89
1, 226649, Control_c, 0, 64, 94
1, 226656, Note_off_c, 0, 41, 36
1, 226664, Control_c, 0, 64, 105
1, 226679, Control_c, 0, 64, 127
1, 226734, Note_off_c, 0, 69, 53
1, 226740, Note_on_c, 0, 49, 45
1, 226752, Note_on_c, 0, 65, 52
1, 226800, Note_off_c, 0, 49, 56
1, 226800, Note_off_c, 0, 65, 58
1, 226812, Control_c, 0, 67, 120
1, 226844, Note_on_c, 0, 57, 58
1, 226851, Note_on_c, 0, 61, 50
1, 226874, Note_off_c, 0, 57, 64
1, 226895, Note_off_c, 0, 61, 61
1, 226953, Control_c, 0, 67, 118
1, 227046, Note_on_c, 0, 48, 73
1, 227109, Note_on_c, 0, 77, 80
1, 227146, Control_c, 0, 64, 80
1, 227161, Control_c, 0, 64, 54
1, 227176, Control_c, 0, 64, 0
1, 227176, Control_c, 0, 67, 120
1, 227190, Note_on_c, 0, 39, 66
1, 227199, Note_off_c, 0, 48, 58
1, 227217, Note_on_c, 0, 73, 83
1, 227224, Note_off_c, 0, 77, 63
1, 227235, Control_c, 0, 64, 57
1, 227250, Control_c, 0, 64, 72
1, 227250, Control_c, 0, 67, 122
1, 227265, Control_c, 0, 64, 93
1, 227279, Control_c, 0, 64, 127
1, 227324, Note_off_c, 0, 39, 59
1, 227372, Note_off_c, 0, 73, 62
1, 227397, Note_on_c, 0, 49, 52
1, 227413, Note_on_c, 0, 66, 55
1, 227455, Note_off_c, 0, 66, 63
1, 227488, Note_on_c, 0, 57, 64
1, 227490, Note_on_c, 0, 61, 54
1, 227540, Note_off_c, 0, 49, 33
1, 227540, Note_off_c, 0, 61, 56
1, 227575, Note_off_c, 0, 57, 32
1, 227668, Note_on_c, 0, 48, 65
1, 227670, Note_on_c, 0, 72, 80
1, 227702, Control_c, 0, 64, 72
1, 227716, Control_c, 0, 64, 36
1, 227731, Control_c, 0, 64, 0
1, 227750, Note_on_c, 0, 69, 73
1, 227759, Note_on_c, 0, 41, 65
1, 227760, Note_off_c, 0, 72, 61
1, 227776, Control_c, 0, 64, 49
1, 227789, Note_off_c, 0, 48, 56
1, 227791, Control_c, 0, 64, 64
1, 227805, Control_c, 0, 64, 74
1, 227820, Control_c, 0, 64, 80
1, 227834, Note_off_c, 0, 41, 47
1, 227835, Control_c, 0, 64, 83
1, 227850, Control_c, 0, 64, 85
1, 227850, Control_c, 0, 67, 124
1, 227865, Control_c, 0, 64, 87
1, 227879, Control_c, 0, 64, 90
1, 227894, Control_c, 0, 64, 93
1, 227896, Note_off_c, 0, 69, 61
1, 227909, Control_c, 0, 64, 98
1, 227925, Control_c, 0, 64, 103
1, 227929, Note_on_c, 0, 49, 47
1, 227938, Note_on_c, 0, 65, 59
1, 227939, Control_c, 0, 64, 108
1, 227954, Control_c, 0, 64, 114
1, 227969, Control_c, 0, 64, 124
1, 227979, Note_off_c, 0, 65, 58
1, 227984, Control_c, 0, 64, 127
1, 228012, Note_on_c, 0, 61, 60
1, 228017, Note_on_c, 0, 57, 60
1, 228046, Note_off_c, 0, 61, 60
1, 228057, Note_off_c, 0, 49, 38
1, 228063, Note_off_c, 0, 57, 57
1, 228192, Note_on_c, 0, 72, 67
1, 228197, Note_on_c, 0, 48, 56
1, 228206, Control_c, 0, 64, 87
1, 228221, Control_c, 0, 64, 62
1, 228236, Control_c, 0, 64, 0
1, 228269, Note_off_c, 0, 72, 60
1, 228275, Note_on_c, 0, 68, 63
1, 228286, Note_on_c, 0, 42, 61
1, 228293, Note_off_c, 0, 48, 61
1, 228295, Control_c, 0, 64, 50
1, 228310, Control_c, 0, 64, 66
1, 228310, Control_c, 0, 67, 127
1, 228325, Control_c, 0, 64, 73
1, 228339, Control_c, 0, 64, 77
1, 228354, Control_c, 0, 64, 78
1, 228369, Control_c, 0, 64, 80
1, 228391, Control_c, 0, 64, 82
1, 228406, Control_c, 0, 64, 85
1, 228421, Control_c, 0, 64, 87
1, 228424, Note_off_c, 0, 42, 38
1, 228436, Control_c, 0, 64, 89
1, 228451, Control_c, 0, 64, 91
1, 228463, Note_on_c, 0, 49, 56
1, 228466, Control_c, 0, 64, 92
1, 228474, Note_off_c, 0, 68, 57
1, 228481, Control_c, 0, 64, 92
1, 228491, Note_on_c, 0, 64, 50
1, 228495, Control_c, 0, 64, 93
1, 228510, Control_c, 0, 64, 94
1, 228525, Control_c, 0, 64, 95
1, 228554, Control_c, 0, 64, 98
1, 228566, Note_on_c, 0, 61, 56
1, 228569, Note_off_c, 0, 64, 60
1, 228569, Control_c, 0, 64, 100
1, 228575, Note_on_c, 0, 58, 46
1, 228584, Control_c, 0, 64, 103
1, 228599, Control_c, 0, 64, 109
1, 228614, Control_c, 0, 64, 114
1, 228624, Note_off_c, 0, 58, 55
1, 228628, Control_c, 0, 64, 122
1, 228643, Control_c, 0, 64, 127
1, 228649, Note_off_c, 0, 61, 59
1, 228696, Note_off_c, 0, 49, 30
1, 228772, Note_on_c, 0, 72, 62
1, 228780, Note_on_c, 0, 48, 55
1, 228792, Control_c, 0, 64, 107
1, 228807, Control_c, 0, 64, 73
1, 228822, Control_c, 0, 64, 45
1, 228837, Control_c, 0, 64, 0
1, 228853, Note_off_c, 0, 72, 59
1, 228857, Note_on_c, 0, 69, 57
1, 228879, Note_off_c, 0, 48, 55
1, 228880, Note_on_c, 0, 41, 46
1, 228881, Control_c, 0, 64, 37
1, 228896, Control_c, 0, 64, 62
1, 228910, Control_c, 0, 64, 70
1, 228925, Control_c, 0, 64, 75
1, 228940, Control_c, 0, 64, 77
1, 228955, Control_c, 0, 64, 77
1, 228970, Control_c, 0, 64, 78
1, 228978, Note_off_c, 0, 41, 52
1, 228985, Control_c, 0, 64, 79
1, 228999, Control_c, 0, 64, 81
1, 229014, Control_c, 0, 64, 83
1, 229029, Control_c, 0, 64, 85
1, 229044, Control_c, 0, 64, 88
1, 229049, Note_off_c, 0, 69, 54
1, 229059, Control_c, 0, 64, 91
1, 229066, Note_on_c, 0, 49, 44
1, 229074, Control_c, 0, 64, 93
1, 229088, Control_c, 0, 64, 95
1, 229103, Control_c, 0, 64, 97
1, 229118, Control_c, 0, 64, 100
1, 229126, Poly_aftertouch_c, 0, 65, 127
1, 229130, Note_off_c, 0, 49, 59
1, 229140, Control_c, 0, 64, 103
1, 229155, Control_c, 0, 64, 107
1, 229169, Control_c, 0, 64, 111
1, 229175, Poly_aftertouch_c, 0, 65, 0
1, 229184, Control_c, 0, 64, 115
1, 229190, Note_on_c, 0, 61, 49
1, 229199, Control_c, 0, 64, 124
1, 229202, Note_on_c, 0, 57, 47
1, 229214, Control_c, 0, 64, 127
1, 229229, Note_off_c, 0, 61, 60
1, 229232, Note_off_c, 0, 57, 63
1, 229373, Note_on_c, 0, 48, 63
1, 229437, Note_on_c, 0, 70, 82
1, 229466, Control_c, 0, 64, 87
1, 229481, Control_c, 0, 64, 64
1, 229495, Control_c, 0, 64, 0
1, 229541, Control_c, 0, 64, 35
1, 229554, Note_on_c, 0, 39, 60
1, 229556, Control_c, 0, 64, 59
1, 229557, Note_on_c, 0, 73, 73
1, 229563, Note_off_c, 0, 70, 62
1, 229569, Note_off_c, 0, 48, 43
1, 229571, Control_c, 0, 64, 70
1, 229586, Control_c, 0, 64, 78
1, 229600, Control_c, 0, 64, 82
1, 229615, Control_c, 0, 64, 82
1, 229630, Control_c, 0, 64, 83
1, 229640, Note_off_c, 0, 39, 59
1, 229645, Control_c, 0, 64, 84
1, 229659, Control_c, 0, 64, 86
1, 229674, Control_c, 0, 64, 89
1, 229689, Control_c, 0, 64, 92
1, 229697, Note_on_c, 0, 66, 37
1, 229704, Control_c, 0, 64, 94
1, 229718, Control_c, 0, 64, 96
1, 229719, Note_on_c, 0, 49, 44
1, 229731, Note_off_c, 0, 66, 42
1, 229736, Note_on_c, 0, 65, 64
1, 229748, Control_c, 0, 64, 98
1, 229768, Note_off_c, 0, 73, 48
1, 229778, Control_c, 0, 64, 100
1, 229791, Note_off_c, 0, 65, 61
1, 229796, Note_off_c, 0, 49, 61
1, 229807, Control_c, 0, 64, 102
1, 229825, Note_on_c, 0, 58, 51
1, 229828, Note_on_c, 0, 64, 57
1, 229837, Control_c, 0, 64, 104
1, 229852, Control_c, 0, 64, 106
1, 229867, Note_off_c, 0, 64, 59
1, 229867, Control_c, 0, 64, 109
1, 229889, Control_c, 0, 64, 112
1, 229899, Note_off_c, 0, 58, 53
1, 229904, Control_c, 0, 64, 116
1, 229906, Note_on_c, 0, 63, 66
1, 229918, Control_c, 0, 64, 120
1, 229933, Control_c, 0, 64, 122
1, 229948, Control_c, 0, 64, 124
1, 229955, Note_off_c, 0, 63, 63
1, 229970, Note_on_c, 0, 48, 55
1, 229985, Note_on_c, 0, 69, 65
1, 230007, Control_c, 0, 64, 106
1, 230022, Control_c, 0, 64, 80
1, 230037, Control_c, 0, 64, 61
1, 230043, Note_off_c, 0, 48, 64
1, 230052, Control_c, 0, 64, 0
1, 230057, Note_on_c, 0, 41, 56
1, 230082, Note_on_c, 0, 72, 63
1, 230093, Note_off_c, 0, 69, 62
1, 230096, Control_c, 0, 64, 46
1, 230111, Control_c, 0, 64, 64
1, 230126, Control_c, 0, 64, 73
1, 230141, Control_c, 0, 64, 80
1, 230156, Control_c, 0, 64, 83
1, 230162, Note_on_c, 0, 57, 52
1, 230167, Note_off_c, 0, 41, 58
1, 230171, Control_c, 0, 64, 84
1, 230185, Control_c, 0, 64, 86
1, 230191, Note_off_c, 0, 57, 55
1, 230200, Control_c, 0, 64, 89
1, 230215, Control_c, 0, 64, 92
1, 230230, Control_c, 0, 64, 96
1, 230238, Note_on_c, 0, 49, 42
1, 230239, Note_on_c, 0, 63, 62
1, 230244, Control_c, 0, 64, 100
1, 230259, Control_c, 0, 64, 105
1, 230273, Note_off_c, 0, 63, 66
1, 230274, Control_c, 0, 64, 109
1, 230289, Control_c, 0, 64, 116
1, 230293, Note_off_c, 0, 72, 56
1, 230303, Note_on_c, 0, 66, 74
1, 230304, Control_c, 0, 64, 127
1, 230320, Note_on_c, 0, 57, 61
1, 230333, Note_off_c, 0, 66, 65
1, 230383, Note_on_c, 0, 69, 85
1, 230458, Note_off_c, 0, 69, 55
1, 230460, Note_on_c, 0, 73, 93
1, 230469, Note_on_c, 0, 51, 59
1, 230502, Note_off_c, 0, 57, 38
1, 230519, Note_off_c, 0, 49, 36
1, 230557, Control_c, 0, 64, 70
1, 230572, Control_c, 0, 64, 0
1, 230575, Note_off_c, 0, 51, 61
1, 230591, Note_on_c, 0, 77, 78
1, 230593, Note_off_c, 0, 73, 64
1, 230597, Note_on_c, 0, 43, 53
1, 230654, Control_c, 0, 64, 40
1, 230669, Control_c, 0, 64, 56
1, 230684, Control_c, 0, 64, 64
1, 230698, Control_c, 0, 64, 67
1, 230713, Control_c, 0, 64, 68
1, 230713, Note_on_c, 0, 72, 59
1, 230728, Control_c, 0, 64, 69
1, 230742, Control_c, 0, 64, 71
1, 230757, Control_c, 0, 64, 73
1, 230758, Note_off_c, 0, 43, 37
1, 230766, Note_off_c, 0, 77, 53
1, 230772, Control_c, 0, 64, 75
1, 230787, Control_c, 0, 64, 77
1, 230794, Note_on_c, 0, 53, 46
1, 230802, Control_c, 0, 64, 81
1, 230816, Control_c, 0, 64, 84
1, 230818, Note_on_c, 0, 71, 59
1, 230818, Note_off_c, 0, 72, 59
1, 230831, Control_c, 0, 64, 88
1, 230846, Control_c, 0, 64, 93
1, 230860, Control_c, 0, 64, 99
1, 230875, Control_c, 0, 64, 107
1, 230882, Note_on_c, 0, 70, 71
1, 230883, Note_off_c, 0, 71, 63
1, 230890, Control_c, 0, 64, 127
1, 230910, Note_on_c, 0, 61, 49
1, 230926, Note_off_c, 0, 70, 63
1, 230955, Note_on_c, 0, 65, 74
1, 230964, Note_off_c, 0, 61, 49
1, 231016, Note_off_c, 0, 65, 63
1, 231017, Note_on_c, 0, 51, 55
1, 231023, Note_off_c, 0, 53, 44
1, 231028, Note_on_c, 0, 72, 74
1, 231068, Control_c, 0, 64, 98
1, 231083, Control_c, 0, 64, 68
1, 231098, Control_c, 0, 64, 0
1, 231109, Note_off_c, 0, 51, 59
1, 231119, Note_on_c, 0, 44, 65
1, 231123, Note_on_c, 0, 75, 70
1, 231143, Note_off_c, 0, 72, 62
1, 231143, Control_c, 0, 64, 52
1, 231158, Control_c, 0, 64, 68
1, 231172, Control_c, 0, 64, 81
1, 231187, Control_c, 0, 64, 97
1, 231190, Note_on_c, 0, 60, 56
1, 231199, Note_off_c, 0, 75, 55
1, 231202, Control_c, 0, 64, 99
1, 231232, Control_c, 0, 64, 101
1, 231237, Note_off_c, 0, 60, 58
1, 231238, Note_off_c, 0, 44, 61
1, 231247, Control_c, 0, 64, 105
1, 231262, Control_c, 0, 64, 111
1, 231263, Note_on_c, 0, 66, 64
1, 231271, Note_on_c, 0, 53, 52
1, 231276, Control_c, 0, 64, 120
1, 231291, Control_c, 0, 64, 127
1, 231344, Note_on_c, 0, 70, 74
1, 231345, Note_off_c, 0, 66, 28
1, 231358, Note_on_c, 0, 60, 63
1, 231372, Note_off_c, 0, 70, 63
1, 231423, Note_on_c, 0, 72, 90
1, 231497, Note_off_c, 0, 72, 62
1, 231506, Note_on_c, 0, 77, 86
1, 231511, Note_off_c, 0, 60, 38
1, 231517, Note_off_c, 0, 53, 45
1, 231535, Note_on_c, 0, 54, 62
1, 231536, Control_c, 0, 64, 81
1, 231551, Control_c, 0, 64, 53
1, 231565, Control_c, 0, 64, 0
1, 231607, Note_off_c, 0, 77, 63
1, 231611, Note_on_c, 0, 80, 79
1, 231623, Note_off_c, 0, 54, 63
1, 231625, Control_c, 0, 64, 52
1, 231626, Note_on_c, 0, 46, 62
1, 231639, Control_c, 0, 64, 61
1, 231654, Control_c, 0, 64, 65
1, 231669, Control_c, 0, 64, 66
1, 231684, Control_c, 0, 64, 66
1, 231698, Control_c, 0, 64, 68
1, 231713, Control_c, 0, 64, 70
1, 231721, Note_on_c, 0, 76, 55
1, 231728, Control_c, 0, 64, 72
1, 231743, Control_c, 0, 64, 73
1, 231751, Note_off_c, 0, 80, 51
1, 231752, Note_off_c, 0, 46, 60
1, 231758, Control_c, 0, 64, 74
1, 231772, Control_c, 0, 64, 74
1, 231787, Control_c, 0, 64, 75
1, 231789, Note_on_c, 0, 56, 54
1, 231802, Control_c, 0, 64, 77
1, 231806, Note_on_c, 0, 75, 58
1, 231811, Note_off_c, 0, 76, 62
1, 231817, Control_c, 0, 64, 79
1, 231831, Control_c, 0, 64, 80
1, 231846, Control_c, 0, 64, 81
1, 231861, Control_c, 0, 64, 82
1, 231876, Control_c, 0, 64, 83
1, 231883, Note_on_c, 0, 73, 74
1, 231883, Note_off_c, 0, 75, 62
1, 231904, Note_on_c, 0, 65, 53
1, 231906, Control_c, 0, 64, 83
1, 231921, Control_c, 0, 64, 84
1, 231922, Note_off_c, 0, 73, 63
1, 231951, Control_c, 0, 64, 84
1, 231959, Note_off_c, 0, 65, 50
1, 231968, Note_on_c, 0, 68, 69
1, 232015, Note_off_c, 0, 68, 58
1, 232045, Note_on_c, 0, 75, 66
1, 232053, Note_on_c, 0, 54, 59
1, 232058, Note_off_c, 0, 56, 50
1, 232100, Control_c, 0, 64, 81
1, 232114, Control_c, 0, 64, 69
1, 232136, Control_c, 0, 64, 52
1, 232151, Control_c, 0, 64, 0
1, 232161, Note_off_c, 0, 54, 53
1, 232169, Note_on_c, 0, 78, 62
1, 232169, Note_off_c, 0, 75, 61
1, 232171, Note_on_c, 0, 48, 58
1, 232210, Control_c, 0, 64, 56
1, 232225, Control_c, 0, 64, 67
1, 232240, Control_c, 0, 64, 73
1, 232255, Control_c, 0, 64, 76
1, 232261, Note_on_c, 0, 63, 46
1, 232299, Note_off_c, 0, 63, 60
1, 232317, Note_off_c, 0, 48, 38
1, 232344, Control_c, 0, 64, 76
1, 232358, Note_on_c, 0, 70, 64
1, 232403, Control_c, 0, 64, 77
1, 232413, Note_off_c, 0, 70, 52
1, 232418, Control_c, 0, 64, 77
1, 232428, Note_off_c, 0, 78, 61
1, 232433, Control_c, 0, 64, 78
1, 232466, Note_on_c, 0, 72, 59
1, 232467, Note_on_c, 0, 63, 49
1, 232525, Poly_aftertouch_c, 0, 57, 0
1, 232527, Note_off_c, 0, 72, 47
1, 232561, Note_on_c, 0, 75, 63
1, 232659, Note_on_c, 0, 78, 64
1, 232668, Note_off_c, 0, 75, 56
1, 232670, Note_on_c, 0, 58, 45
1, 232702, Note_off_c, 0, 63, 35
1, 232759, Control_c, 0, 64, 77
1, 232774, Control_c, 0, 64, 77
1, 232789, Control_c, 0, 64, 76
1, 232803, Control_c, 0, 64, 74
1, 232818, Control_c, 0, 64, 72
1, 232833, Control_c, 0, 64, 68
1, 232840, Note_off_c, 0, 58, 55
1, 232848, Control_c, 0, 64, 63
1, 232850, Note_on_c, 0, 50, 49
1, 232863, Control_c, 0, 64, 51
1, 232885, Control_c, 0, 64, 0
1, 232921, Note_on_c, 0, 82, 59
1, 232931, Note_off_c, 0, 78, 54
1, 232974, Control_c, 0, 64, 40
1, 232989, Control_c, 0, 64, 58
1, 233004, Control_c, 0, 64, 65
1, 233018, Control_c, 0, 64, 67
1, 233062, Note_on_c, 0, 70, 44
1, 233107, Control_c, 0, 64, 68
1, 233117, Note_off_c, 0, 70, 60
1, 233122, Control_c, 0, 64, 68
1, 233137, Control_c, 0, 64, 69
1, 233154, Note_off_c, 0, 50, 37
1, 233167, Control_c, 0, 64, 69
1, 233170, Note_on_c, 0, 58, 40
1, 233182, Control_c, 0, 64, 70
1, 233190, Note_off_c, 0, 82, 54
1, 233194, Note_on_c, 0, 78, 47
1, 233197, Control_c, 0, 64, 70
1, 233211, Control_c, 0, 64, 71
1, 233226, Control_c, 0, 64, 71
1, 233241, Control_c, 0, 64, 72
1, 233255, Control_c, 0, 64, 73
1, 233270, Control_c, 0, 64, 73
1, 233280, Note_on_c, 0, 68, 59
1, 233285, Control_c, 0, 64, 74
1, 233300, Control_c, 0, 64, 75
1, 233352, Note_on_c, 0, 77, 65
1, 233374, Control_c, 0, 64, 75
1, 233387, Note_off_c, 0, 58, 27
1, 233388, Note_off_c, 0, 68, 56
1, 233392, Note_off_c, 0, 78, 60
1, 233433, Control_c, 0, 64, 76
1, 233436, Note_on_c, 0, 59, 47
1, 233443, Note_on_c, 0, 68, 43
1, 233446, Note_off_c, 0, 77, 63
1, 233477, Control_c, 0, 64, 74
1, 233492, Control_c, 0, 64, 67
1, 233508, Control_c, 0, 64, 56
1, 233511, Note_off_c, 0, 68, 55
1, 233523, Control_c, 0, 64, 0
1, 233545, Note_on_c, 0, 80, 69
1, 233548, Note_off_c, 0, 59, 55
1, 233567, Note_on_c, 0, 51, 50
1, 233582, Control_c, 0, 64, 51
1, 233597, Control_c, 0, 64, 64
1, 233612, Control_c, 0, 64, 70
1, 233634, Control_c, 0, 64, 72
1, 233649, Control_c, 0, 64, 72
1, 233668, Note_on_c, 0, 68, 43
1, 233723, Control_c, 0, 64, 73
1, 233725, Note_off_c, 0, 51, 60
1, 233730, Note_off_c, 0, 68, 55
1, 233753, Control_c, 0, 64, 73
1, 233767, Control_c, 0, 64, 74
1, 233782, Control_c, 0, 64, 75
1, 233786, Note_on_c, 0, 77, 55
1, 233792, Note_on_c, 0, 60, 44
1, 233797, Control_c, 0, 64, 77
1, 233805, Note_off_c, 0, 80, 38
1, 233812, Control_c, 0, 64, 78
1, 233827, Control_c, 0, 64, 81
1, 233841, Control_c, 0, 64, 84
1, 233856, Control_c, 0, 64, 89
1, 233871, Control_c, 0, 64, 93
1, 233885, Control_c, 0, 64, 98
1, 233891, Note_on_c, 0, 70, 64
1, 233900, Control_c, 0, 64, 103
1, 233915, Control_c, 0, 64, 111
1, 233930, Control_c, 0, 64, 127
1, 233983, Note_off_c, 0, 70, 57
1, 233987, Note_on_c, 0, 75, 72
1, 234005, Note_off_c, 0, 77, 62
1, 234036, Note_on_c, 0, 61, 59
1, 234043, Note_off_c, 0, 60, 43
1, 234058, Note_off_c, 0, 61, 61
1, 234112, Note_on_c, 0, 66, 73
1, 234125, Note_off_c, 0, 75, 61
1, 234281, Note_on_c, 0, 41, 73
1, 234316, Control_c, 0, 64, 104
1, 234331, Control_c, 0, 64, 68
1, 234332, Note_off_c, 0, 66, 57
1, 234346, Control_c, 0, 64, 0
1, 234347, Note_on_c, 0, 78, 83
1, 234413, Control_c, 0, 64, 46
1, 234428, Control_c, 0, 64, 64
1, 234443, Control_c, 0, 64, 76
1, 234445, Note_off_c, 0, 41, 54
1, 234457, Control_c, 0, 64, 89
1, 234472, Control_c, 0, 64, 99
1, 234487, Control_c, 0, 64, 104
1, 234502, Control_c, 0, 64, 111
1, 234516, Control_c, 0, 64, 122
1, 234531, Control_c, 0, 64, 127
1, 234537, Note_on_c, 0, 57, 54
1, 234542, Note_on_c, 0, 66, 51
1, 234566, Note_off_c, 0, 57, 64
1, 234618, Note_off_c, 0, 66, 35
1, 234682, Note_on_c, 0, 75, 66
1, 234703, Note_on_c, 0, 63, 49
1, 234704, Note_off_c, 0, 78, 37
1, 234811, Note_on_c, 0, 66, 52
1, 234824, Note_off_c, 0, 63, 47
1, 234850, Note_off_c, 0, 75, 53
1, 234892, Note_on_c, 0, 73, 67
1, 234907, Note_off_c, 0, 66, 56
1, 234909, Note_on_c, 0, 68, 58
1, 234969, Note_off_c, 0, 68, 60
1, 234979, Note_on_c, 0, 77, 76
1, 234979, Note_off_c, 0, 73, 54
1, 234984, Note_on_c, 0, 69, 52
1, 235007, Note_off_c, 0, 69, 64
1, 235083, Note_on_c, 0, 73, 76
1, 235110, Control_c, 0, 64, 124
1, 235131, Control_c, 0, 64, 79
1, 235146, Control_c, 0, 64, 61
1, 235161, Control_c, 0, 64, 47
1, 235176, Control_c, 0, 64, 57
1, 235191, Control_c, 0, 64, 67
1, 235192, Note_off_c, 0, 73, 58
1, 235193, Note_on_c, 0, 56, 65
1, 235206, Note_on_c, 0, 65, 64
1, 235206, Control_c, 0, 64, 84
1, 235221, Control_c, 0, 64, 127
1, 235259, Note_off_c, 0, 65, 55
1, 235286, Note_off_c, 0, 77, 53
1, 235301, Note_off_c, 0, 56, 58
1, 235306, Note_on_c, 0, 61, 57
1, 235313, Note_on_c, 0, 73, 71
1, 235364, Note_off_c, 0, 61, 58
1, 235390, Note_on_c, 0, 65, 65
1, 235450, Note_off_c, 0, 73, 59
1, 235488, Note_on_c, 0, 72, 74
1, 235495, Note_on_c, 0, 66, 62
1, 235513, Note_off_c, 0, 65, 53
1, 235540, Note_off_c, 0, 66, 52
1, 235550, Note_on_c, 0, 68, 75
1, 235552, Note_off_c, 0, 72, 60
1, 235575, Note_off_c, 0, 68, 68
1, 235581, Note_on_c, 0, 75, 74
1, 235660, Note_on_c, 0, 72, 76
1, 235742, Note_off_c, 0, 72, 59
1, 235748, Note_on_c, 0, 63, 71
1, 235752, Note_on_c, 0, 55, 68
1, 235769, Control_c, 0, 64, 72
1, 235782, Note_off_c, 0, 63, 62
1, 235784, Control_c, 0, 64, 50
1, 235799, Control_c, 0, 64, 0
1, 235807, Note_off_c, 0, 75, 60
1, 235829, Control_c, 0, 64, 52
1, 235835, Note_on_c, 0, 72, 66
1, 235843, Note_off_c, 0, 55, 60
1, 235844, Control_c, 0, 64, 68
1, 235850, Note_on_c, 0, 60, 60
1, 235858, Control_c, 0, 64, 83
1, 235880, Control_c, 0, 64, 101
1, 235933, Note_off_c, 0, 60, 56
1, 235938, Note_off_c, 0, 72, 58
1, 235946, Note_on_c, 0, 63, 64
1, 235987, Note_off_c, 0, 63, 57
1, 236036, Note_on_c, 0, 64, 51
1, 236043, Note_on_c, 0, 70, 77
1, 236110, Note_on_c, 0, 65, 69
1, 236110, Note_off_c, 0, 64, 62
1, 236124, Note_on_c, 0, 73, 78
1, 236125, Note_off_c, 0, 70, 33
1, 236135, Note_off_c, 0, 65, 67
1, 236237, Control_c, 0, 64, 93
1, 236240, Note_on_c, 0, 70, 66
1, 236252, Control_c, 0, 64, 75
1, 236267, Control_c, 0, 64, 58
1, 236281, Control_c, 0, 64, 0
1, 236300, Note_off_c, 0, 70, 62
1, 236326, Control_c, 0, 64, 55
1, 236330, Note_on_c, 0, 61, 55
1, 236331, Note_on_c, 0, 54, 42
1, 236341, Control_c, 0, 64, 68
1, 236355, Control_c, 0, 64, 78
1, 236368, Note_off_c, 0, 61, 62
1, 236370, Control_c, 0, 64, 82
1, 236398, Note_off_c, 0, 73, 60
1, 236412, Note_on_c, 0, 70, 57
1, 236416, Note_on_c, 0, 58, 55
1, 236426, Note_off_c, 0, 54, 58
1, 236503, Note_on_c, 0, 61, 67
1, 236508, Note_off_c, 0, 58, 59
1, 236529, Note_off_c, 0, 70, 60
1, 236580, Note_off_c, 0, 61, 61
1, 236595, Note_on_c, 0, 63, 60
1, 236595, Note_on_c, 0, 69, 65
1, 236645, Note_off_c, 0, 69, 60
1, 236679, Note_on_c, 0, 72, 74
1, 236682, Note_off_c, 0, 63, 57
1, 236688, Note_on_c, 0, 64, 64
1, 236712, Note_off_c, 0, 64, 60
1, 236767, Note_on_c, 0, 69, 70
1, 236792, Control_c, 0, 64, 77
1, 236807, Control_c, 0, 64, 66
1, 236822, Control_c, 0, 64, 43
1, 236836, Control_c, 0, 64, 0
1, 236850, Note_off_c, 0, 69, 57
1, 236872, Note_on_c, 0, 60, 57
1, 236881, Control_c, 0, 64, 52
1, 236896, Control_c, 0, 64, 67
1, 236899, Note_on_c, 0, 53, 51
1, 236911, Control_c, 0, 64, 77
1, 236926, Control_c, 0, 64, 81
1, 236944, Note_off_c, 0, 72, 52
1, 236974, Note_on_c, 0, 69, 54
1, 236978, Note_off_c, 0, 53, 56
1, 236978, Note_off_c, 0, 60, 31
1, 236988, Note_on_c, 0, 57, 54
1, 237039, Note_off_c, 0, 57, 57
1, 237074, Note_on_c, 0, 61, 58
1, 237089, Control_c, 0, 64, 82
1, 237111, Note_off_c, 0, 61, 61
1, 237132, Note_off_c, 0, 69, 53
1, 237158, Note_on_c, 0, 62, 56
1, 237177, Control_c, 0, 64, 82
1, 237221, Note_off_c, 0, 62, 57
1, 237237, Note_on_c, 0, 63, 61
1, 237237, Note_on_c, 0, 71, 75
1, 237258, Note_off_c, 0, 63, 63
1, 237339, Note_on_c, 0, 68, 60
1, 237340, Control_c, 0, 64, 80
1, 237354, Control_c, 0, 64, 69
1, 237369, Control_c, 0, 64, 46
1, 237391, Control_c, 0, 64, 0
1, 237435, Control_c, 0, 64, 49
1, 237438, Note_on_c, 0, 41, 47
1, 237450, Control_c, 0, 64, 65
1, 237464, Note_on_c, 0, 59, 41
1, 237465, Control_c, 0, 64, 75
1, 237480, Control_c, 0, 64, 78
1, 237522, Note_off_c, 0, 59, 60
1, 237527, Note_off_c, 0, 41, 52
1, 237550, Note_on_c, 0, 49, 54
1, 237552, Note_off_c, 0, 71, 59
1, 237555, Control_c, 0, 64, 78
1, 237585, Control_c, 0, 64, 79
1, 237589, Note_off_c, 0, 49, 63
1, 237614, Control_c, 0, 64, 79
1, 237632, Note_off_c, 0, 68, 45
1, 237640, Note_on_c, 0, 59, 54
1, 237644, Control_c, 0, 64, 80
1, 237659, Control_c, 0, 64, 80
1, 237745, Note_off_c, 0, 59, 39
1, 237808, Poly_aftertouch_c, 0, 60, 127
1, 237814, Note_on_c, 0, 61, 58
1, 237842, Note_on_c, 0, 70, 67
1, 237842, Poly_aftertouch_c, 0, 60, 0
1, 237848, Note_off_c, 0, 61, 60
1, 237954, Note_on_c, 0, 66, 66
1, 237956, Control_c, 0, 64, 74
1, 237970, Control_c, 0, 64, 60
1, 237985, Control_c, 0, 64, 0
1, 238030, Control_c, 0, 64, 59
1, 238045, Control_c, 0, 64, 74
1, 238059, Control_c, 0, 64, 96
1, 238064, Note_on_c, 0, 58, 56
1, 238074, Control_c, 0, 64, 116
1, 238079, Note_off_c, 0, 66, 56
1, 238104, Note_off_c, 0, 70, 60
1, 238127, Note_off_c, 0, 58, 48
1, 238220, Note_on_c, 0, 62, 33
1, 238226, Note_on_c, 0, 66, 63
1, 238254, Note_off_c, 0, 62, 45
1, 238288, Note_off_c, 0, 66, 61
1, 238413, Note_on_c, 0, 68, 26
1, 238443, Note_off_c, 0, 68, 0
1, 238443, Note_on_c, 0, 68, 6
1, 238646, Control_c, 0, 64, 99
1, 238661, Control_c, 0, 64, 82
1, 238675, Control_c, 0, 64, 72
1, 238682, Note_on_c, 0, 65, 51
1, 238689, Control_c, 0, 64, 64
1, 238704, Control_c, 0, 64, 60
1, 238719, Control_c, 0, 64, 61
1, 238734, Control_c, 0, 64, 68
1, 238748, Control_c, 0, 64, 79
1, 238763, Control_c, 0, 64, 97
1, 238778, Control_c, 0, 64, 101
1, 238881, Note_on_c, 0, 56, 50
1, 238889, Note_on_c, 0, 70, 51
1, 238889, Control_c, 0, 64, 86
1, 238904, Control_c, 0, 64, 70
1, 238919, Control_c, 0, 64, 58
1, 238934, Control_c, 0, 64, 43
1, 238948, Control_c, 0, 64, 45
1, 238953, Note_off_c, 0, 56, 0
1, 238953, Note_on_c, 0, 56, 22
1, 238963, Control_c, 0, 64, 53
1, 238978, Control_c, 0, 64, 56
1, 238993, Control_c, 0, 64, 58
1, 239007, Control_c, 0, 64, 64
1, 239022, Control_c, 0, 64, 70
1, 239037, Control_c, 0, 64, 77
1, 239052, Control_c, 0, 64, 81
1, 239053, Note_on_c, 0, 74, 54
1, 239066, Note_off_c, 0, 70, 61
1, 239212, Note_off_c, 0, 56, 36
1, 239245, Control_c, 0, 64, 81
1, 239248, Note_on_c, 0, 80, 63
1, 239252, Note_off_c, 0, 74, 53
1, 239290, Control_c, 0, 64, 82
1, 239304, Control_c, 0, 64, 82
1, 239319, Control_c, 0, 64, 83
1, 239334, Control_c, 0, 64, 84
1, 239349, Control_c, 0, 64, 85
1, 239364, Control_c, 0, 64, 86
1, 239379, Control_c, 0, 64, 88
1, 239388, Note_off_c, 0, 65, 24
1, 239394, Control_c, 0, 64, 89
1, 239409, Control_c, 0, 64, 91
1, 239423, Control_c, 0, 64, 92
1, 239438, Control_c, 0, 64, 95
1, 239447, Note_off_c, 0, 80, 49
1, 239453, Control_c, 0, 64, 98
1, 239468, Control_c, 0, 64, 100
1, 239483, Control_c, 0, 64, 103
1, 239486, Note_on_c, 0, 81, 48
1, 239497, Control_c, 0, 64, 106
1, 239512, Control_c, 0, 64, 109
1, 239527, Control_c, 0, 64, 113
1, 239541, Control_c, 0, 64, 119
1, 239556, Control_c, 0, 64, 127
1, 239631, Note_off_c, 0, 81, 39
1, 239880, Note_on_c, 0, 82, 51
1, 239918, Note_off_c, 0, 82, 59
1, 240087, Poly_aftertouch_c, 0, 66, 127
1, 240112, Note_off_c, 0, 68, 41
1, 240280, Poly_aftertouch_c, 0, 64, 0
1, 240317, Poly_aftertouch_c, 0, 64, 127
1, 240545, Note_on_c, 0, 42, 42
1, 240553, Note_on_c, 0, 49, 39
1, 240579, Control_c, 0, 64, 95
1, 240584, Note_on_c, 0, 70, 58
1, 240586, Note_on_c, 0, 61, 59
1, 240594, Control_c, 0, 64, 72
1, 240609, Control_c, 0, 64, 57
1, 240618, Poly_aftertouch_c, 0, 64, 0
1, 240624, Control_c, 0, 64, 0
1, 240699, Control_c, 0, 64, 56
1, 240714, Control_c, 0, 64, 67
1, 240729, Control_c, 0, 64, 73
1, 240734, Note_off_c, 0, 70, 61
1, 240743, Control_c, 0, 64, 75
1, 240758, Control_c, 0, 64, 76
1, 240773, Control_c, 0, 64, 77
1, 240788, Control_c, 0, 64, 79
1, 240802, Control_c, 0, 64, 82
1, 240817, Control_c, 0, 64, 85
1, 240832, Control_c, 0, 64, 88
1, 240847, Control_c, 0, 64, 92
1, 240862, Control_c, 0, 64, 96
1, 240876, Control_c, 0, 64, 100
1, 240891, Control_c, 0, 64, 106
1, 240906, Control_c, 0, 64, 111
1, 240921, Control_c, 0, 64, 116
1, 240937, Control_c, 0, 64, 124
1, 240951, Control_c, 0, 64, 127
1, 241175, Poly_aftertouch_c, 0, 66, 0
1, 241176, Note_on_c, 0, 69, 58
1, 241182, Note_on_c, 0, 50, 46
1, 241193, Note_on_c, 0, 60, 29
1, 241197, Note_off_c, 0, 49, 37
1, 241215, Note_off_c, 0, 61, 42
1, 241236, Note_off_c, 0, 60, 51
1, 241255, Control_c, 0, 64, 124
1, 241269, Control_c, 0, 64, 91
1, 241284, Control_c, 0, 64, 75
1, 241285, Note_off_c, 0, 69, 62
1, 241299, Control_c, 0, 64, 64
1, 241301, Note_on_c, 0, 68, 66
1, 241301, Note_off_c, 0, 50, 54
1, 241303, Note_on_c, 0, 59, 57
1, 241306, Note_on_c, 0, 51, 54
1, 241314, Control_c, 0, 64, 53
1, 241328, Control_c, 0, 64, 48
1, 241343, Control_c, 0, 64, 53
1, 241347, Note_off_c, 0, 59, 59
1, 241358, Control_c, 0, 64, 61
1, 241373, Control_c, 0, 64, 67
1, 241388, Control_c, 0, 64, 72
1, 241403, Control_c, 0, 64, 77
1, 241418, Control_c, 0, 64, 80
1, 241422, Note_off_c, 0, 42, 41
1, 241433, Control_c, 0, 64, 82
1, 241448, Control_c, 0, 64, 83
1, 241463, Control_c, 0, 64, 84
1, 241477, Control_c, 0, 64, 85
1, 241489, Poly_aftertouch_c, 0, 59, 0
1, 241492, Control_c, 0, 64, 87
1, 241507, Control_c, 0, 64, 89
1, 241522, Control_c, 0, 64, 91
1, 241537, Control_c, 0, 64, 92
1, 241552, Control_c, 0, 64, 93
1, 241567, Control_c, 0, 64, 94
1, 241597, Control_c, 0, 64, 94
1, 241715, Control_c, 0, 64, 94
1, 241730, Control_c, 0, 64, 93
1, 241744, Control_c, 0, 64, 89
1, 241746, Note_on_c, 0, 49, 40
1, 241758, Note_on_c, 0, 42, 36
1, 241758, Note_off_c, 0, 68, 57
1, 241759, Control_c, 0, 64, 82
1, 241774, Control_c, 0, 64, 74
1, 241779, Note_off_c, 0, 51, 36
1, 241789, Control_c, 0, 64, 66
1, 241791, Note_on_c, 0, 70, 45
1, 241795, Note_on_c, 0, 61, 42
1, 241796, Note_on_c, 0, 58, 41
1, 241804, Control_c, 0, 64, 58
1, 241818, Control_c, 0, 64, 40
1, 241833, Control_c, 0, 64, 0
1, 241974, Control_c, 0, 64, 49
1, 241989, Control_c, 0, 64, 61
1, 242004, Control_c, 0, 64, 66
1, 242019, Control_c, 0, 64, 68
1, 242033, Control_c, 0, 64, 68
1, 242048, Control_c, 0, 64, 69
1, 242063, Control_c, 0, 64, 70
1, 242078, Control_c, 0, 64, 72
1, 242092, Control_c, 0, 64, 74
1, 242107, Control_c, 0, 64, 77
1, 242116, Note_off_c, 0, 58, 49
1, 242122, Control_c, 0, 64, 80
1, 242137, Control_c, 0, 64, 84
1, 242151, Control_c, 0, 64, 88
1, 242166, Control_c, 0, 64, 93
1, 242181, Control_c, 0, 64, 96
1, 242196, Control_c, 0, 64, 100
1, 242211, Control_c, 0, 64, 104
1, 242226, Control_c, 0, 64, 111
1, 242241, Control_c, 0, 64, 127
1, 242337, Note_off_c, 0, 61, 37
1, 242729, Note_off_c, 0, 42, 43
1, 242813, Note_on_c, 0, 61, 41
1, 242867, Note_off_c, 0, 49, 43
1, 242899, Note_off_c, 0, 70, 29
1, 242939, Note_off_c, 0, 61, 52
1, 242951, Note_on_c, 0, 63, 47
1, 242999, Note_off_c, 0, 63, 61
1, 243047, Note_on_c, 0, 65, 54
1, 243126, Note_off_c, 0, 65, 55
1, 243140, Note_on_c, 0, 66, 54
1, 243199, Note_on_c, 0, 68, 66
1, 243200, Note_off_c, 0, 66, 60
1, 243236, Note_off_c, 0, 68, 61
1, 243277, Note_on_c, 0, 70, 45
1, 243311, Note_off_c, 0, 70, 62
1, 243344, Note_on_c, 0, 71, 48
1, 243388, Note_on_c, 0, 73, 58
1, 243391, Note_off_c, 0, 71, 49
1, 243442, Note_on_c, 0, 75, 63
1, 243450, Note_off_c, 0, 73, 57
1, 243484, Note_off_c, 0, 75, 60
1, 243490, Note_on_c, 0, 77, 52
1, 243534, Note_off_c, 0, 77, 58
1, 243547, Note_on_c, 0, 78, 68
1, 243621, Note_on_c, 0, 80, 75
1, 243625, Note_off_c, 0, 78, 62
1, 243734, Note_on_c, 0, 73, 54
1, 243738, Control_c, 0, 64, 77
1, 243743, Note_off_c, 0, 80, 62
1, 243743, Note_on_c, 0, 82, 78
1, 243749, Note_on_c, 0, 66, 40
1, 243753, Note_on_c, 0, 70, 41
1, 243753, Control_c, 0, 64, 60
1, 243760, Note_on_c, 0, 78, 54
1, 243768, Control_c, 0, 64, 0
1, 243842, Control_c, 0, 64, 51
1, 243857, Control_c, 0, 64, 65
1, 243871, Control_c, 0, 64, 73
1, 243887, Control_c, 0, 64, 81
1, 243889, Note_off_c, 0, 66, 56
1, 243902, Note_off_c, 0, 70, 45
1, 243902, Control_c, 0, 64, 86
1, 243917, Control_c, 0, 64, 90
1, 243932, Control_c, 0, 64, 94
1, 243946, Control_c, 0, 64, 100
1, 243961, Control_c, 0, 64, 108
1, 243976, Control_c, 0, 64, 120
1, 243991, Control_c, 0, 64, 127
1, 243996, Note_off_c, 0, 82, 52
1, 244008, Note_off_c, 0, 73, 57
1, 244038, Note_off_c, 0, 78, 41
1, 244248, Note_on_c, 0, 81, 70
1, 244251, Note_on_c, 0, 69, 49
1, 244261, Note_on_c, 0, 65, 45
1, 244262, Note_on_c, 0, 77, 51
1, 244268, Note_on_c, 0, 72, 47
1, 244309, Control_c, 0, 64, 89
1, 244324, Control_c, 0, 64, 75
1, 244339, Note_on_c, 0, 63, 59
1, 244339, Control_c, 0, 64, 69
1, 244342, Note_off_c, 0, 65, 55
1, 244342, Note_off_c, 0, 72, 60
1, 244348, Note_on_c, 0, 80, 78
1, 244348, Note_off_c, 0, 81, 62
1, 244349, Note_off_c, 0, 77, 59
1, 244351, Note_on_c, 0, 71, 60
1, 244351, Note_on_c, 0, 75, 65
1, 244369, Control_c, 0, 64, 71
1, 244377, Note_off_c, 0, 69, 62
1, 244384, Control_c, 0, 64, 73
1, 244388, Note_on_c, 0, 68, 52
1, 244399, Control_c, 0, 64, 75
1, 244413, Control_c, 0, 64, 76
1, 244428, Control_c, 0, 64, 79
1, 244443, Note_off_c, 0, 71, 60
1, 244443, Control_c, 0, 64, 82
1, 244454, Note_off_c, 0, 63, 61
1, 244458, Control_c, 0, 64, 84
1, 244472, Control_c, 0, 64, 85
1, 244487, Control_c, 0, 64, 86
1, 244497, Note_off_c, 0, 68, 54
1, 244546, Control_c, 0, 64, 86
1, 244650, Control_c, 0, 64, 86
1, 244664, Control_c, 0, 64, 83
1, 244665, Note_off_c, 0, 75, 36
1, 244672, Note_on_c, 0, 73, 53
1, 244677, Note_on_c, 0, 70, 43
1, 244679, Control_c, 0, 64, 77
1, 244696, Control_c, 0, 64, 70
1, 244701, Note_on_c, 0, 82, 66
1, 244703, Note_off_c, 0, 80, 58
1, 244706, Note_on_c, 0, 66, 36
1, 244708, Note_on_c, 0, 78, 55
1, 244711, Control_c, 0, 64, 62
1, 244725, Control_c, 0, 64, 48
1, 244740, Control_c, 0, 64, 0
1, 244881, Control_c, 0, 64, 45
1, 244896, Control_c, 0, 64, 58
1, 244911, Control_c, 0, 64, 65
1, 244925, Control_c, 0, 64, 67
1, 244940, Control_c, 0, 64, 68
1, 244955, Control_c, 0, 64, 68
1, 244969, Control_c, 0, 64, 69
1, 244984, Control_c, 0, 64, 70
1, 244999, Control_c, 0, 64, 71
1, 245014, Control_c, 0, 64, 74
1, 245029, Control_c, 0, 64, 77
1, 245043, Control_c, 0, 64, 80
1, 245058, Control_c, 0, 64, 83
1, 245073, Control_c, 0, 64, 86
1, 245087, Control_c, 0, 64, 89
1, 245102, Control_c, 0, 64, 93
1, 245117, Control_c, 0, 64, 97
1, 245132, Control_c, 0, 64, 101
1, 245147, Control_c, 0, 64, 109
1, 245162, Control_c, 0, 64, 127
1, 245503, Note_off_c, 0, 70, 38
1, 245517, Note_off_c, 0, 66, 37
1, 245563, Note_off_c, 0, 78, 39
1, 245620, Note_off_c, 0, 73, 38
1, 245785, Note_off_c, 0, 82, 55
1, 245809, Note_on_c, 0, 80, 52
1, 245813, Note_on_c, 0, 61, 47
1, 245824, Note_on_c, 0, 77, 44
1, 245882, Control_c, 0, 64, 112
1, 245897, Control_c, 0, 64, 91
1, 245911, Control_c, 0, 64, 82
1, 245912, Note_off_c, 0, 77, 34
1, 245926, Control_c, 0, 64, 78
1, 245931, Note_on_c, 0, 75, 53
1, 245932, Note_on_c, 0, 78, 62
1, 245934, Note_off_c, 0, 61, 55
1, 245941, Note_on_c, 0, 63, 42
1, 245950, Note_on_c, 0, 70, 51
1, 245951, Note_on_c, 0, 66, 41
1, 245956, Control_c, 0, 64, 79
1, 245971, Control_c, 0, 64, 80
1, 245985, Control_c, 0, 64, 84
1, 245997, Note_off_c, 0, 70, 62
1, 246000, Note_off_c, 0, 66, 59
1, 246000, Control_c, 0, 64, 88
1, 246015, Control_c, 0, 64, 92
1, 246026, Note_off_c, 0, 63, 52
1, 246030, Control_c, 0, 64, 97
1, 246038, Note_off_c, 0, 75, 0
1, 246045, Control_c, 0, 64, 100
1, 246057, Note_off_c, 0, 80, 0
1, 246059, Control_c, 0, 64, 104
1, 246074, Control_c, 0, 64, 107
1, 246075, Poly_aftertouch_c, 0, 75, 127
1, 246089, Control_c, 0, 64, 112
1, 246094, Poly_aftertouch_c, 0, 80, 127
1, 246104, Control_c, 0, 64, 115
1, 246119, Control_c, 0, 64, 119
1, 246123, Note_off_c, 0, 78, 62
1, 246125, Poly_aftertouch_c, 0, 75, 0
1, 246145, Poly_aftertouch_c, 0, 80, 0
1, 246199, Note_on_c, 0, 70, 54
1, 246208, Control_c, 0, 64, 107
1, 246211, Note_on_c, 0, 73, 52
1, 246223, Control_c, 0, 64, 90
1, 246229, Note_on_c, 0, 66, 45
1, 246237, Control_c, 0, 64, 74
1, 246252, Control_c, 0, 64, 64
1, 246267, Control_c, 0, 64, 52
1, 246271, Note_on_c, 0, 82, 72
1, 246275, Note_on_c, 0, 78, 63
1, 246283, Control_c, 0, 64, 46
1, 246298, Control_c, 0, 64, 55
1, 246309, Note_off_c, 0, 70, 63
1, 246312, Note_off_c, 0, 66, 62
1, 246313, Control_c, 0, 64, 65
1, 246321, Note_off_c, 0, 73, 56
1, 246327, Control_c, 0, 64, 79
1, 246342, Control_c, 0, 64, 93
1, 246364, Control_c, 0, 64, 104
1, 246370, Note_off_c, 0, 78, 61
1, 246376, Note_off_c, 0, 82, 59
1, 246379, Control_c, 0, 64, 106
1, 246569, Note_on_c, 0, 58, 54
1, 246581, Note_on_c, 0, 80, 68
1, 246588, Note_on_c, 0, 77, 53
1, 246665, Note_off_c, 0, 77, 63
1, 246669, Note_on_c, 0, 59, 59
1, 246675, Note_off_c, 0, 80, 61
1, 246676, Note_on_c, 0, 78, 73
1, 246682, Note_on_c, 0, 75, 57
1, 246690, Control_c, 0, 64, 95
1, 246705, Control_c, 0, 64, 79
1, 246720, Control_c, 0, 64, 65
1, 246734, Control_c, 0, 64, 45
1, 246743, Note_off_c, 0, 58, 53
1, 246749, Control_c, 0, 64, 0
1, 246763, Note_off_c, 0, 75, 62
1, 246764, Control_c, 0, 64, 41
1, 246775, Note_on_c, 0, 65, 56
1, 246775, Note_on_c, 0, 77, 74
1, 246778, Note_off_c, 0, 59, 62
1, 246779, Control_c, 0, 64, 59
1, 246781, Note_on_c, 0, 73, 64
1, 246783, Note_on_c, 0, 70, 56
1, 246787, Note_off_c, 0, 78, 59
1, 246794, Control_c, 0, 64, 72
1, 246795, Note_on_c, 0, 61, 34
1, 246808, Control_c, 0, 64, 85
1, 246815, Note_off_c, 0, 65, 65
1, 246823, Note_off_c, 0, 77, 64
1, 246823, Control_c, 0, 64, 102
1, 246829, Note_off_c, 0, 61, 45
1, 246838, Control_c, 0, 64, 119
1, 246847, Note_off_c, 0, 70, 64
1, 246853, Control_c, 0, 64, 127
1, 246972, Note_off_c, 0, 73, 61
1, 247059, Control_c, 0, 64, 98
1, 247074, Control_c, 0, 64, 76
1, 247075, Note_on_c, 0, 82, 68
1, 247087, Note_on_c, 0, 78, 57
1, 247088, Note_on_c, 0, 73, 50
1, 247090, Control_c, 0, 64, 60
1, 247091, Note_on_c, 0, 66, 47
1, 247091, Note_on_c, 0, 70, 43
1, 247112, Control_c, 0, 64, 0
1, 247186, Control_c, 0, 64, 38
1, 247201, Control_c, 0, 64, 60
1, 247216, Control_c, 0, 64, 71
1, 247231, Control_c, 0, 64, 80
1, 247235, Note_off_c, 0, 70, 56
1, 247241, Note_off_c, 0, 73, 55
1, 247243, Note_off_c, 0, 66, 58
1, 247246, Control_c, 0, 64, 85
1, 247251, Note_off_c, 0, 78, 58
1, 247260, Control_c, 0, 64, 90
1, 247269, Note_off_c, 0, 82, 63
1, 247275, Control_c, 0, 64, 95
1, 247290, Control_c, 0, 64, 100
1, 247305, Control_c, 0, 64, 106
1, 247320, Control_c, 0, 64, 110
1, 247335, Control_c, 0, 64, 113
1, 247364, Control_c, 0, 64, 115
1, 247542, Control_c, 0, 64, 113
1, 247571, Control_c, 0, 64, 110
1, 247601, Control_c, 0, 64, 106
1, 247602, Note_on_c, 0, 85, 72
1, 247617, Note_on_c, 0, 75, 47
1, 247627, Note_on_c, 0, 80, 52
1, 247630, Note_on_c, 0, 63, 38
1, 247631, Control_c, 0, 64, 103
1, 247635, Note_on_c, 0, 71, 35
1, 247651, Note_off_c, 0, 75, 63
1, 247660, Control_c, 0, 64, 100
1, 247675, Control_c, 0, 64, 98
1, 247690, Control_c, 0, 64, 94
1, 247705, Control_c, 0, 64, 88
1, 247719, Control_c, 0, 64, 81
1, 247722, Note_off_c, 0, 80, 53
1, 247734, Control_c, 0, 64, 70
1, 247742, Note_on_c, 0, 82, 68
1, 247744, Note_off_c, 0, 71, 37
1, 247749, Control_c, 0, 64, 56
1, 247750, Note_off_c, 0, 85, 60
1, 247757, Note_on_c, 0, 78, 52
1, 247758, Note_on_c, 0, 70, 48
1, 247764, Control_c, 0, 64, 0
1, 247777, Note_on_c, 0, 73, 51
1, 247782, Note_off_c, 0, 63, 61
1, 247798, Note_on_c, 0, 66, 37
1, 247860, Control_c, 0, 64, 47
1, 247875, Control_c, 0, 64, 64
1, 247885, Note_off_c, 0, 66, 49
1, 247891, Control_c, 0, 64, 74
1, 247906, Control_c, 0, 64, 82
1, 247915, Note_off_c, 0, 78, 36
1, 247919, Note_off_c, 0, 73, 32
1, 247920, Control_c, 0, 64, 88
1, 247921, Note_off_c, 0, 82, 54
1, 247935, Control_c, 0, 64, 92
1, 247937, Note_off_c, 0, 70, 36
1, 247950, Control_c, 0, 64, 98
1, 247965, Control_c, 0, 64, 105
1, 247980, Control_c, 0, 64, 114
1, 247994, Control_c, 0, 64, 127
1, 248202, Control_c, 0, 64, 107
1, 248209, Note_on_c, 0, 82, 55
1, 248217, Control_c, 0, 64, 95
1, 248223, Note_on_c, 0, 73, 40
1, 248230, Note_on_c, 0, 70, 38
1, 248232, Control_c, 0, 64, 84
1, 248241, Note_on_c, 0, 78, 32
1, 248243, Note_on_c, 0, 66, 27
1, 248246, Control_c, 0, 64, 76
1, 248261, Control_c, 0, 64, 69
1, 248276, Control_c, 0, 64, 62
1, 248291, Control_c, 0, 64, 49
1, 248305, Control_c, 0, 64, 0
1, 248454, Control_c, 0, 64, 41
1, 248469, Control_c, 0, 64, 52
1, 248484, Control_c, 0, 64, 61
1, 248499, Control_c, 0, 64, 67
1, 248513, Control_c, 0, 64, 72
1, 248528, Control_c, 0, 64, 76
1, 248543, Control_c, 0, 64, 77
1, 248558, Control_c, 0, 64, 79
1, 248573, Control_c, 0, 64, 82
1, 248587, Control_c, 0, 64, 87
1, 248602, Control_c, 0, 64, 95
1, 248625, Control_c, 0, 64, 109
1, 248634, Note_off_c, 0, 78, 42
1, 248639, Control_c, 0, 64, 127
1, 248714, Note_off_c, 0, 82, 50
1, 248760, Note_off_c, 0, 73, 36
1, 249705, Note_off_c, 0, 66, 35
1, 249878, Control_c, 0, 64, 115
1, 249888, Note_on_c, 0, 80, 63
1, 249893, Control_c, 0, 64, 108
1, 249907, Control_c, 0, 64, 103
1, 249910, Note_off_c, 0, 70, 1
1, 249922, Control_c, 0, 64, 98
1, 249937, Control_c, 0, 64, 94
1, 249952, Control_c, 0, 64, 91
1, 249967, Control_c, 0, 64, 88
1, 249982, Control_c, 0, 64, 85
1, 249997, Control_c, 0, 64, 82
1, 250011, Control_c, 0, 64, 80
1, 250026, Control_c, 0, 64, 77
1, 250041, Control_c, 0, 64, 75
1, 250056, Control_c, 0, 64, 73
1, 250071, Control_c, 0, 64, 71
1, 250085, Control_c, 0, 64, 69
1, 250107, Control_c, 0, 64, 67
1, 250122, Control_c, 0, 64, 66
1, 250137, Control_c, 0, 64, 65
1, 250152, Control_c, 0, 64, 64
1, 250182, Control_c, 0, 64, 63
1, 250197, Control_c, 0, 64, 63
1, 250211, Control_c, 0, 64, 62
1, 250211, Control_c, 0, 67, 121
1, 250225, Note_on_c, 0, 82, 77
1, 250226, Control_c, 0, 64, 61
1, 250226, Control_c, 0, 67, 116
1, 250241, Control_c, 0, 64, 61
1, 250248, Note_off_c, 0, 80, 42
1, 250256, Control_c, 0, 64, 60
1, 250271, Control_c, 0, 64, 59
1, 250286, Control_c, 0, 64, 58
1, 250301, Control_c, 0, 64, 56
1, 250316, Control_c, 0, 64, 55
1, 250316, Control_c, 0, 67, 114
1, 250331, Control_c, 0, 64, 54
1, 250331, Control_c, 0, 67, 112
1, 250346, Control_c, 0, 64, 54
1, 250346, Control_c, 0, 67, 110
1, 250361, Control_c, 0, 64, 53
1, 250361, Control_c, 0, 67, 107
1, 250375, Control_c, 0, 64, 52
1, 250375, Control_c, 0, 67, 104
1, 250390, Control_c, 0, 64, 51
1, 250390, Control_c, 0, 67, 101
1, 250405, Note_on_c, 0, 85, 68
1, 250428, Note_off_c, 0, 82, 59
1, 250447, Note_on_c, 0, 83, 72
1, 250449, Control_c, 0, 64, 51
1, 250454, Note_off_c, 0, 85, 64
1, 250464, Control_c, 0, 64, 50
1, 250464, Control_c, 0, 67, 99
1, 250479, Control_c, 0, 64, 49
1, 250479, Control_c, 0, 67, 97
1, 250523, Control_c, 0, 67, 96
1, 250538, Control_c, 0, 67, 95
1, 250553, Control_c, 0, 64, 48
1, 250553, Control_c, 0, 67, 94
1, 250568, Control_c, 0, 64, 47
1, 250568, Control_c, 0, 67, 93
1, 250582, Control_c, 0, 64, 47
1, 250597, Control_c, 0, 64, 46
1, 250612, Control_c, 0, 64, 45
1, 250612, Control_c, 0, 67, 92
1, 250626, Control_c, 0, 64, 41
1, 250626, Control_c, 0, 67, 91
1, 250641, Control_c, 0, 64, 36
1, 250657, Control_c, 0, 64, 0
1, 250701, Control_c, 0, 67, 91
1, 250731, Control_c, 0, 67, 91
1, 250746, Control_c, 0, 67, 92
1, 250752, Note_off_c, 0, 83, 64
1, 250764, Note_on_c, 0, 82, 79
1, 250775, Control_c, 0, 67, 91
1, 250790, Control_c, 0, 67, 91
1, 250820, Control_c, 0, 67, 91
1, 250887, Control_c, 0, 67, 92
1, 250902, Control_c, 0, 67, 95
1, 250916, Control_c, 0, 67, 97
1, 250976, Control_c, 0, 67, 100
1, 250990, Control_c, 0, 67, 102
1, 251049, Control_c, 0, 64, 38
1, 251064, Control_c, 0, 64, 50
1, 251064, Control_c, 0, 67, 110
1, 251080, Control_c, 0, 64, 59
1, 251080, Control_c, 0, 67, 125
1, 251095, Control_c, 0, 64, 63
1, 251095, Control_c, 0, 67, 127
1, 251109, Note_off_c, 0, 82, 62
1, 251110, Control_c, 0, 64, 62
1, 251114, Note_on_c, 0, 85, 64
1, 251125, Control_c, 0, 64, 59
1, 251139, Control_c, 0, 64, 53
1, 251154, Control_c, 0, 64, 46
1, 251169, Control_c, 0, 64, 46
1, 251184, Control_c, 0, 64, 55
1, 251199, Control_c, 0, 64, 63
1, 251213, Control_c, 0, 64, 68
1, 251228, Control_c, 0, 64, 70
1, 251229, Note_on_c, 0, 42, 39
1, 251243, Control_c, 0, 64, 72
1, 251258, Control_c, 0, 64, 76
1, 251258, Note_on_c, 0, 49, 32
1, 251273, Control_c, 0, 64, 79
1, 251288, Control_c, 0, 64, 82
1, 251303, Control_c, 0, 64, 86
1, 251317, Control_c, 0, 64, 90
1, 251332, Control_c, 0, 64, 97
1, 251338, Note_off_c, 0, 42, 55
1, 251347, Control_c, 0, 64, 107
1, 251353, Note_on_c, 0, 90, 69
1, 251359, Note_on_c, 0, 80, 59
1, 251362, Control_c, 0, 64, 127
1, 251367, Note_off_c, 0, 49, 55
1, 251371, Note_on_c, 0, 78, 39
1, 251388, Note_off_c, 0, 80, 60
1, 251397, Note_off_c, 0, 85, 48
1, 251401, Note_off_c, 0, 78, 55
1, 251559, Note_on_c, 0, 82, 61
1, 251621, Note_on_c, 0, 68, 51
1, 251629, Note_off_c, 0, 82, 52
1, 251633, Poly_aftertouch_c, 0, 78, 127
1, 251670, Poly_aftertouch_c, 0, 78, 0
1, 251681, Note_off_c, 0, 68, 55
1, 251703, Note_on_c, 0, 69, 45
1, 251723, Control_c, 0, 64, 122
1, 251738, Control_c, 0, 64, 95
1, 251753, Control_c, 0, 64, 86
1, 251768, Control_c, 0, 64, 85
1, 251778, Note_off_c, 0, 69, 55
1, 251782, Control_c, 0, 64, 85
1, 251788, Note_on_c, 0, 70, 45
1, 251794, Note_on_c, 0, 66, 52
1, 251794, Note_on_c, 0, 78, 39
1, 251797, Control_c, 0, 64, 87
1, 251797, Note_on_c, 0, 82, 59
1, 251812, Control_c, 0, 64, 91
1, 251814, Note_off_c, 0, 70, 59
1, 251827, Control_c, 0, 64, 92
1, 251828, Note_off_c, 0, 66, 64
1, 251847, Note_off_c, 0, 82, 53
1, 251856, Control_c, 0, 64, 92
1, 251860, Note_off_c, 0, 90, 35
1, 251871, Control_c, 0, 64, 93
1, 251887, Control_c, 0, 64, 94
1, 251910, Note_off_c, 0, 78, 37
1, 251972, Note_on_c, 0, 42, 68
1, 251976, Control_c, 0, 64, 88
1, 251988, Note_on_c, 0, 49, 58
1, 251991, Control_c, 0, 64, 76
1, 252006, Control_c, 0, 64, 62
1, 252021, Control_c, 0, 64, 34
1, 252035, Control_c, 0, 64, 0
1, 252048, Note_off_c, 0, 42, 63
1, 252054, Note_on_c, 0, 89, 81
1, 252061, Note_on_c, 0, 77, 57
1, 252065, Note_off_c, 0, 49, 63
1, 252065, Control_c, 0, 64, 52
1, 252078, Note_on_c, 0, 80, 57
1, 252079, Control_c, 0, 64, 66
1, 252094, Control_c, 0, 64, 77
1, 252098, Note_off_c, 0, 80, 64
1, 252100, Note_off_c, 0, 77, 58
1, 252109, Control_c, 0, 64, 88
1, 252124, Control_c, 0, 64, 91
1, 252139, Control_c, 0, 64, 91
1, 252168, Control_c, 0, 64, 92
1, 252192, Note_on_c, 0, 78, 67
1, 252199, Note_on_c, 0, 82, 61
1, 252227, Note_off_c, 0, 78, 56
1, 252237, Note_off_c, 0, 82, 59
1, 252256, Poly_aftertouch_c, 0, 60, 127
1, 252257, Control_c, 0, 64, 92
1, 252272, Control_c, 0, 64, 93
1, 252274, Note_on_c, 0, 66, 51
1, 252286, Control_c, 0, 64, 95
1, 252297, Poly_aftertouch_c, 0, 60, 0
1, 252316, Control_c, 0, 64, 98
1, 252331, Control_c, 0, 64, 100
1, 252342, Note_off_c, 0, 66, 59
1, 252353, Control_c, 0, 64, 103
1, 252355, Note_on_c, 0, 68, 58
1, 252368, Control_c, 0, 64, 105
1, 252402, Note_off_c, 0, 68, 56
1, 252408, Note_off_c, 0, 89, 41
1, 252412, Control_c, 0, 64, 97
1, 252420, Note_on_c, 0, 70, 63
1, 252427, Control_c, 0, 64, 85
1, 252436, Note_on_c, 0, 82, 68
1, 252439, Note_on_c, 0, 78, 63
1, 252442, Control_c, 0, 64, 77
1, 252445, Note_on_c, 0, 65, 46
1, 252448, Note_off_c, 0, 70, 64
1, 252457, Control_c, 0, 64, 76
1, 252471, Note_off_c, 0, 65, 58
1, 252472, Control_c, 0, 64, 77
1, 252486, Control_c, 0, 64, 81
1, 252501, Control_c, 0, 64, 87
1, 252516, Control_c, 0, 64, 91
1, 252531, Control_c, 0, 64, 92
1, 252540, Note_off_c, 0, 82, 61
1, 252543, Note_off_c, 0, 78, 58
1, 252546, Control_c, 0, 64, 92
1, 252560, Control_c, 0, 64, 93
1, 252598, Note_on_c, 0, 42, 74
1, 252605, Control_c, 0, 64, 90
1, 252611, Note_on_c, 0, 49, 62
1, 252620, Control_c, 0, 64, 78
1, 252635, Control_c, 0, 64, 67
1, 252650, Control_c, 0, 64, 57
1, 252661, Note_on_c, 0, 87, 83
1, 252665, Control_c, 0, 64, 46
1, 252669, Note_off_c, 0, 42, 62
1, 252674, Note_on_c, 0, 75, 61
1, 252680, Control_c, 0, 64, 47
1, 252686, Note_on_c, 0, 80, 59
1, 252689, Note_off_c, 0, 49, 63
1, 252695, Control_c, 0, 64, 56
1, 252699, Note_on_c, 0, 77, 32
1, 252710, Control_c, 0, 64, 67
1, 252724, Control_c, 0, 64, 77
1, 252729, Note_off_c, 0, 77, 47
1, 252739, Control_c, 0, 64, 87
1, 252742, Note_off_c, 0, 80, 61
1, 252754, Control_c, 0, 64, 90
1, 252814, Note_on_c, 0, 82, 69
1, 252827, Note_on_c, 0, 78, 64
1, 252829, Note_on_c, 0, 60, 50
1, 252835, Note_on_c, 0, 59, 41
1, 252843, Control_c, 0, 64, 90
1, 252854, Note_off_c, 0, 78, 66
1, 252863, Note_off_c, 0, 59, 52
1, 252869, Note_off_c, 0, 60, 66
1, 252873, Control_c, 0, 64, 89
1, 252931, Note_off_c, 0, 82, 39
1, 252946, Note_on_c, 0, 65, 47
1, 252947, Control_c, 0, 64, 89
1, 252965, Note_on_c, 0, 68, 59
1, 252972, Note_off_c, 0, 65, 56
1, 252976, Control_c, 0, 64, 88
1, 253035, Control_c, 0, 64, 86
1, 253050, Control_c, 0, 64, 77
1, 253058, Note_off_c, 0, 68, 60
1, 253065, Control_c, 0, 64, 65
1, 253066, Note_on_c, 0, 66, 51
1, 253066, Note_on_c, 0, 82, 63
1, 253073, Note_on_c, 0, 70, 58
1, 253075, Note_on_c, 0, 78, 59
1, 253080, Note_off_c, 0, 87, 59
1, 253080, Control_c, 0, 64, 47
1, 253094, Note_on_c, 0, 63, 19
1, 253095, Control_c, 0, 64, 0
1, 253117, Control_c, 0, 64, 38
1, 253120, Note_off_c, 0, 70, 64
1, 253131, Note_off_c, 0, 66, 60
1, 253132, Control_c, 0, 64, 61
1, 253139, Note_off_c, 0, 63, 58
1, 253147, Control_c, 0, 64, 80
1, 253159, Note_off_c, 0, 78, 58
1, 253162, Control_c, 0, 64, 127
1, 253199, Note_off_c, 0, 75, 45
1, 253294, Note_on_c, 0, 42, 65
1, 253320, Note_on_c, 0, 49, 47
1, 253339, Control_c, 0, 64, 89
1, 253353, Control_c, 0, 64, 69
1, 253368, Control_c, 0, 64, 55
1, 253369, Note_off_c, 0, 42, 62
1, 253370, Note_on_c, 0, 85, 67
1, 253377, Note_off_c, 0, 82, 55
1, 253382, Note_on_c, 0, 80, 58
1, 253383, Control_c, 0, 64, 48
1, 253398, Note_on_c, 0, 77, 32
1, 253398, Control_c, 0, 64, 57
1, 253400, Note_on_c, 0, 73, 43
1, 253400, Note_off_c, 0, 49, 62
1, 253413, Control_c, 0, 64, 69
1, 253426, Note_off_c, 0, 77, 53
1, 253428, Control_c, 0, 64, 82
1, 253432, Note_off_c, 0, 80, 56
1, 253443, Control_c, 0, 64, 97
1, 253458, Control_c, 0, 64, 104
1, 253536, Note_on_c, 0, 82, 67
1, 253544, Note_off_c, 0, 73, 0
1, 253544, Note_on_c, 0, 73, 8
1, 253556, Note_on_c, 0, 58, 58
1, 253559, Note_on_c, 0, 78, 47
1, 253595, Note_off_c, 0, 78, 49
1, 253622, Note_off_c, 0, 58, 60
1, 253636, Note_on_c, 0, 63, 48
1, 253681, Control_c, 0, 64, 102
1, 253696, Control_c, 0, 64, 100
1, 253722, Note_off_c, 0, 63, 62
1, 253725, Control_c, 0, 64, 97
1, 253726, Note_on_c, 0, 68, 48
1, 253748, Note_off_c, 0, 82, 37
1, 253755, Control_c, 0, 64, 95
1, 253769, Control_c, 0, 64, 95
1, 253784, Control_c, 0, 64, 94
1, 253799, Control_c, 0, 64, 94
1, 253814, Control_c, 0, 64, 93
1, 253829, Control_c, 0, 64, 93
1, 253851, Control_c, 0, 64, 92
1, 253866, Control_c, 0, 64, 90
1, 253881, Control_c, 0, 64, 89
1, 253896, Control_c, 0, 64, 86
1, 253911, Control_c, 0, 64, 80
1, 253923, Note_on_c, 0, 70, 42
1, 253926, Control_c, 0, 64, 73
1, 253940, Control_c, 0, 64, 64
1, 253941, Note_on_c, 0, 61, 33
1, 253945, Note_on_c, 0, 82, 56
1, 253950, Note_on_c, 0, 66, 30
1, 253955, Control_c, 0, 64, 51
1, 253959, Note_off_c, 0, 68, 36
1, 253963, Note_on_c, 0, 78, 34
1, 253970, Control_c, 0, 64, 0
1, 254058, Control_c, 0, 64, 35
1, 254073, Control_c, 0, 64, 54
1, 254088, Control_c, 0, 64, 64
1, 254103, Control_c, 0, 64, 70
1, 254118, Control_c, 0, 64, 74
1, 254132, Control_c, 0, 64, 76
1, 254147, Control_c, 0, 64, 77
1, 254162, Control_c, 0, 64, 77
1, 254176, Control_c, 0, 64, 79
1, 254191, Control_c, 0, 64, 80
1, 254206, Control_c, 0, 64, 84
1, 254221, Control_c, 0, 64, 90
1, 254236, Control_c, 0, 64, 99
1, 254251, Control_c, 0, 64, 112
1, 254266, Control_c, 0, 64, 127
1, 254337, Note_off_c, 0, 73, 52
1, 254374, Note_off_c, 0, 85, 47
1, 254625, Note_off_c, 0, 78, 15
1, 254659, Control_c, 0, 67, 123
1, 254674, Control_c, 0, 67, 119
1, 254689, Control_c, 0, 67, 115
1, 254704, Control_c, 0, 67, 111
1, 254710, Note_on_c, 0, 83, 82
1, 254719, Control_c, 0, 67, 107
1, 254733, Control_c, 0, 67, 102
1, 254748, Control_c, 0, 67, 98
1, 254754, Note_off_c, 0, 82, 52
1, 254763, Note_off_c, 0, 83, 64
1, 254763, Control_c, 0, 67, 96
1, 254778, Control_c, 0, 67, 95
1, 254807, Control_c, 0, 67, 94
1, 254822, Control_c, 0, 67, 93
1, 254837, Control_c, 0, 67, 90
1, 254852, Control_c, 0, 67, 87
1, 254867, Control_c, 0, 67, 86
1, 254895, Note_on_c, 0, 82, 70
1, 254914, Note_off_c, 0, 82, 67
1, 254920, Note_on_c, 0, 83, 79
1, 254972, Note_on_c, 0, 82, 91
1, 254977, Note_off_c, 0, 83, 66
1, 255059, Control_c, 0, 67, 86
1, 255106, Note_off_c, 0, 70, 40
1, 255144, Note_on_c, 0, 80, 86
1, 255149, Control_c, 0, 67, 87
1, 255157, Note_off_c, 0, 82, 61
1, 255169, Note_off_c, 0, 66, 60
1, 255219, Note_off_c, 0, 61, 54
1, 255237, Control_c, 0, 67, 87
1, 255318, Note_on_c, 0, 78, 84
1, 255327, Control_c, 0, 67, 88
1, 255349, Control_c, 0, 67, 88
1, 255354, Note_off_c, 0, 80, 61
1, 255376, Note_off_c, 0, 78, 64
1, 255408, Control_c, 0, 67, 89
1, 255422, Control_c, 0, 67, 90
1, 255437, Control_c, 0, 67, 91
1, 255467, Control_c, 0, 67, 91
1, 255476, Note_on_c, 0, 59, 54
1, 255482, Control_c, 0, 67, 92
1, 255483, Note_on_c, 0, 63, 53
1, 255512, Control_c, 0, 67, 93
1, 255526, Control_c, 0, 64, 89
1, 255526, Control_c, 0, 67, 94
1, 255541, Control_c, 0, 64, 71
1, 255541, Control_c, 0, 67, 94
1, 255547, Note_on_c, 0, 75, 69
1, 255556, Control_c, 0, 64, 60
1, 255560, Note_on_c, 0, 70, 64
1, 255571, Control_c, 0, 64, 51
1, 255586, Control_c, 0, 64, 53
1, 255601, Control_c, 0, 64, 61
1, 255616, Control_c, 0, 64, 68
1, 255616, Control_c, 0, 67, 96
1, 255630, Control_c, 0, 64, 76
1, 255645, Control_c, 0, 64, 87
1, 255660, Control_c, 0, 64, 95
1, 255675, Control_c, 0, 64, 100
1, 255690, Control_c, 0, 64, 102
1, 255704, Control_c, 0, 64, 104
1, 255719, Control_c, 0, 64, 106
1, 255719, Control_c, 0, 67, 98
1, 255748, Control_c, 0, 64, 108
1, 255776, Note_on_c, 0, 68, 61
1, 255778, Control_c, 0, 64, 98
1, 255780, Note_on_c, 0, 58, 63
1, 255781, Note_on_c, 0, 71, 62
1, 255782, Note_off_c, 0, 75, 55
1, 255793, Control_c, 0, 64, 77
1, 255793, Control_c, 0, 67, 102
1, 255805, Note_off_c, 0, 59, 51
1, 255808, Control_c, 0, 64, 64
1, 255808, Control_c, 0, 67, 107
1, 255822, Control_c, 0, 64, 53
1, 255822, Control_c, 0, 67, 109
1, 255834, Note_off_c, 0, 68, 54
1, 255839, Note_off_c, 0, 63, 52
1, 255852, Control_c, 0, 64, 61
1, 255868, Control_c, 0, 64, 69
1, 255883, Control_c, 0, 64, 78
1, 255898, Control_c, 0, 64, 88
1, 255914, Control_c, 0, 64, 90
1, 255914, Control_c, 0, 67, 114
1, 255928, Control_c, 0, 64, 92
1, 255943, Control_c, 0, 64, 93
1, 255958, Control_c, 0, 64, 94
1, 255983, Note_off_c, 0, 58, 34
1, 255987, Control_c, 0, 67, 116
1, 256019, Note_off_c, 0, 70, 37
1, 256046, Control_c, 0, 64, 90
1, 256051, Note_off_c, 0, 71, 54
1, 256060, Note_on_c, 0, 73, 74
1, 256061, Control_c, 0, 64, 77
1, 256063, Note_on_c, 0, 56, 55
1, 256064, Note_on_c, 0, 59, 40
1, 256072, Note_on_c, 0, 65, 60
1, 256076, Control_c, 0, 64, 64
1, 256076, Control_c, 0, 67, 119
1, 256099, Control_c, 0, 64, 42
1, 256099, Control_c, 0, 67, 123
1, 256114, Control_c, 0, 64, 0
1, 256158, Control_c, 0, 64, 57
1, 256158, Control_c, 0, 67, 125
1, 256164, Note_off_c, 0, 65, 45
1, 256172, Control_c, 0, 64, 70
1, 256187, Control_c, 0, 64, 81
1, 256187, Control_c, 0, 67, 127
1, 256192, Note_off_c, 0, 56, 57
1, 256201, Note_off_c, 0, 59, 56
1, 256202, Control_c, 0, 64, 88
1, 256232, Control_c, 0, 64, 88
1, 256424, Control_c, 0, 64, 88
1, 256439, Control_c, 0, 64, 86
1, 256454, Control_c, 0, 64, 81
1, 256468, Control_c, 0, 64, 75
1, 256474, Note_on_c, 0, 58, 43
1, 256483, Control_c, 0, 64, 68
1, 256497, Note_on_c, 0, 55, 39
1, 256498, Control_c, 0, 64, 56
1, 256512, Note_off_c, 0, 73, 62
1, 256513, Control_c, 0, 64, 0
1, 256520, Note_on_c, 0, 70, 60
1, 256560, Note_on_c, 0, 63, 26
1, 256617, Control_c, 0, 64, 36
1, 256629, Note_off_c, 0, 63, 62
1, 256632, Control_c, 0, 64, 59
1, 256646, Control_c, 0, 64, 71
1, 256661, Control_c, 0, 64, 81
1, 256677, Control_c, 0, 64, 92
1, 256692, Control_c, 0, 64, 103
1, 256707, Control_c, 0, 64, 127
1, 256722, Note_off_c, 0, 70, 64
1, 256746, Note_off_c, 0, 58, 61
1, 256758, Note_off_c, 0, 55, 63
1, 257008, Note_on_c, 0, 39, 57
1, 257050, Note_on_c, 0, 46, 49
1, 257095, Note_on_c, 0, 87, 69
1, 257098, Note_on_c, 0, 77, 50
1, 257108, Note_off_c, 0, 39, 59
1, 257109, Note_on_c, 0, 75, 52
1, 257134, Note_off_c, 0, 46, 61
1, 257134, Note_off_c, 0, 77, 56
1, 257137, Note_off_c, 0, 75, 62
1, 257284, Note_on_c, 0, 75, 38
1, 257288, Note_on_c, 0, 58, 50
1, 257301, Note_on_c, 0, 79, 33
1, 257312, Note_off_c, 0, 75, 57
1, 257327, Note_off_c, 0, 58, 55
1, 257337, Note_off_c, 0, 79, 47
1, 257371, Note_on_c, 0, 65, 52
1, 257409, Note_off_c, 0, 65, 57
1, 257467, Note_on_c, 0, 66, 45
1, 257499, Control_c, 0, 64, 98
1, 257514, Control_c, 0, 64, 79
1, 257522, Note_off_c, 0, 66, 51
1, 257523, Note_on_c, 0, 79, 61
1, 257525, Note_on_c, 0, 75, 43
1, 257527, Note_off_c, 0, 87, 59
1, 257529, Control_c, 0, 64, 74
1, 257542, Note_on_c, 0, 63, 55
1, 257543, Control_c, 0, 64, 75
1, 257549, Note_off_c, 0, 75, 60
1, 257558, Control_c, 0, 64, 80
1, 257563, Note_on_c, 0, 67, 43
1, 257573, Control_c, 0, 64, 89
1, 257578, Note_off_c, 0, 63, 64
1, 257595, Control_c, 0, 64, 108
1, 257597, Note_off_c, 0, 67, 53
1, 257602, Note_off_c, 0, 79, 62
1, 257610, Control_c, 0, 64, 127
1, 257735, Note_on_c, 0, 39, 68
1, 257738, Note_on_c, 0, 46, 68
1, 257743, Control_c, 0, 64, 98
1, 257758, Control_c, 0, 64, 73
1, 257773, Control_c, 0, 64, 61
1, 257781, Note_off_c, 0, 39, 61
1, 257788, Control_c, 0, 64, 58
1, 257793, Note_on_c, 0, 86, 84
1, 257803, Control_c, 0, 64, 64
1, 257804, Note_off_c, 0, 46, 62
1, 257807, Note_on_c, 0, 74, 63
1, 257807, Note_on_c, 0, 77, 54
1, 257818, Control_c, 0, 64, 72
1, 257827, Note_off_c, 0, 77, 66
1, 257832, Control_c, 0, 64, 84
1, 257847, Control_c, 0, 64, 97
1, 257862, Control_c, 0, 64, 101
1, 257877, Control_c, 0, 64, 103
1, 257892, Control_c, 0, 64, 105
1, 257935, Note_on_c, 0, 79, 74
1, 257936, Note_on_c, 0, 57, 59
1, 257943, Note_on_c, 0, 75, 64
1, 257950, Note_off_c, 0, 74, 33
1, 257971, Note_off_c, 0, 75, 65
1, 257979, Note_off_c, 0, 79, 57
1, 257983, Note_off_c, 0, 57, 59
1, 257995, Note_on_c, 0, 63, 62
1, 258057, Note_off_c, 0, 63, 59
1, 258078, Note_on_c, 0, 65, 60
1, 258129, Control_c, 0, 64, 94
1, 258130, Note_off_c, 0, 65, 49
1, 258143, Control_c, 0, 64, 82
1, 258149, Note_on_c, 0, 67, 56
1, 258149, Note_off_c, 0, 86, 48
1, 258159, Note_on_c, 0, 79, 70
1, 258159, Control_c, 0, 64, 74
1, 258165, Note_on_c, 0, 62, 61
1, 258174, Control_c, 0, 64, 72
1, 258177, Note_off_c, 0, 67, 66
1, 258178, Note_on_c, 0, 75, 53
1, 258188, Control_c, 0, 64, 75
1, 258195, Note_off_c, 0, 62, 64
1, 258203, Control_c, 0, 64, 82
1, 258218, Control_c, 0, 64, 91
1, 258233, Control_c, 0, 64, 100
1, 258248, Control_c, 0, 64, 105
1, 258249, Note_off_c, 0, 79, 65
1, 258257, Note_off_c, 0, 75, 55
1, 258263, Control_c, 0, 64, 111
1, 258278, Control_c, 0, 64, 127
1, 258334, Note_on_c, 0, 39, 70
1, 258346, Note_on_c, 0, 46, 69
1, 258360, Control_c, 0, 64, 97
1, 258374, Control_c, 0, 64, 75
1, 258389, Control_c, 0, 64, 57
1, 258400, Note_off_c, 0, 39, 62
1, 258404, Control_c, 0, 64, 39
1, 258409, Note_on_c, 0, 84, 87
1, 258409, Note_off_c, 0, 46, 65
1, 258419, Control_c, 0, 64, 43
1, 258427, Note_on_c, 0, 72, 60
1, 258434, Control_c, 0, 64, 58
1, 258435, Note_on_c, 0, 74, 38
1, 258439, Note_on_c, 0, 77, 50
1, 258448, Control_c, 0, 64, 70
1, 258463, Control_c, 0, 64, 83
1, 258465, Note_off_c, 0, 74, 51
1, 258474, Note_off_c, 0, 77, 64
1, 258478, Control_c, 0, 64, 97
1, 258493, Control_c, 0, 64, 100
1, 258555, Note_on_c, 0, 75, 63
1, 258564, Note_on_c, 0, 79, 68
1, 258586, Note_off_c, 0, 75, 63
1, 258616, Poly_aftertouch_c, 0, 58, 127
1, 258627, Note_on_c, 0, 62, 65
1, 258649, Poly_aftertouch_c, 0, 58, 0
1, 258667, Note_off_c, 0, 79, 39
1, 258667, Poly_aftertouch_c, 0, 57, 0
1, 258680, Note_off_c, 0, 62, 58
1, 258707, Note_on_c, 0, 65, 59
1, 258774, Control_c, 0, 64, 92
1, 258782, Note_off_c, 0, 84, 58
1, 258784, Note_on_c, 0, 60, 41
1, 258789, Control_c, 0, 64, 76
1, 258792, Note_on_c, 0, 75, 60
1, 258794, Note_on_c, 0, 67, 54
1, 258800, Note_on_c, 0, 79, 65
1, 258804, Control_c, 0, 64, 66
1, 258807, Note_off_c, 0, 65, 62
1, 258814, Note_on_c, 0, 63, 60
1, 258817, Note_off_c, 0, 72, 45
1, 258819, Control_c, 0, 64, 61
1, 258829, Note_off_c, 0, 75, 60
1, 258829, Note_off_c, 0, 67, 64
1, 258833, Note_off_c, 0, 60, 65
1, 258834, Control_c, 0, 64, 64
1, 258844, Note_off_c, 0, 63, 65
1, 258848, Control_c, 0, 64, 71
1, 258863, Control_c, 0, 64, 82
1, 258878, Control_c, 0, 64, 95
1, 258892, Control_c, 0, 64, 102
1, 258922, Control_c, 0, 64, 105
1, 258937, Control_c, 0, 64, 109
1, 258952, Control_c, 0, 64, 111
1, 259012, Note_on_c, 0, 39, 67
1, 259035, Note_on_c, 0, 46, 51
1, 259041, Control_c, 0, 64, 107
1, 259056, Control_c, 0, 64, 87
1, 259071, Control_c, 0, 64, 68
1, 259094, Control_c, 0, 64, 46
1, 259103, Note_on_c, 0, 82, 77
1, 259107, Note_off_c, 0, 39, 62
1, 259107, Note_off_c, 0, 79, 55
1, 259109, Control_c, 0, 64, 0
1, 259120, Note_on_c, 0, 77, 49
1, 259124, Control_c, 0, 64, 44
1, 259125, Note_off_c, 0, 46, 63
1, 259129, Note_on_c, 0, 74, 50
1, 259132, Note_on_c, 0, 70, 40
1, 259139, Control_c, 0, 64, 63
1, 259153, Control_c, 0, 64, 79
1, 259163, Note_off_c, 0, 74, 64
1, 259168, Control_c, 0, 64, 105
1, 259183, Control_c, 0, 64, 127
1, 259202, Note_off_c, 0, 77, 45
1, 259271, Note_off_c, 0, 70, 0
1, 259285, Note_on_c, 0, 55, 55
1, 259291, Note_on_c, 0, 70, 19
1, 259294, Note_on_c, 0, 79, 68
1, 259314, Note_on_c, 0, 75, 40
1, 259348, Note_off_c, 0, 75, 50
1, 259384, Note_off_c, 0, 55, 54
1, 259386, Note_on_c, 0, 60, 44
1, 259431, Note_off_c, 0, 79, 36
1, 259452, Note_on_c, 0, 65, 62
1, 259476, Note_off_c, 0, 60, 58
1, 259500, Note_off_c, 0, 65, 59
1, 259686, Note_on_c, 0, 67, 45
1, 259686, Control_c, 0, 64, 109
1, 259697, Note_on_c, 0, 79, 56
1, 259699, Note_on_c, 0, 58, 38
1, 259701, Control_c, 0, 64, 88
1, 259703, Note_on_c, 0, 63, 35
1, 259713, Note_on_c, 0, 75, 42
1, 259715, Control_c, 0, 64, 71
1, 259730, Control_c, 0, 64, 56
1, 259745, Control_c, 0, 64, 0
1, 259819, Control_c, 0, 64, 55
1, 259834, Control_c, 0, 64, 65
1, 259856, Control_c, 0, 64, 71
1, 259873, Control_c, 0, 64, 73
1, 259888, Control_c, 0, 64, 74
1, 259902, Control_c, 0, 64, 75
1, 259917, Control_c, 0, 64, 76
1, 259932, Control_c, 0, 64, 80
1, 259946, Control_c, 0, 64, 84
1, 259961, Control_c, 0, 64, 89
1, 259976, Control_c, 0, 64, 95
1, 259991, Control_c, 0, 64, 102
1, 259998, Note_off_c, 0, 70, 41
1, 260006, Control_c, 0, 64, 112
1, 260020, Control_c, 0, 64, 127
1, 260134, Note_off_c, 0, 75, 36
1, 260221, Note_off_c, 0, 79, 53
1, 260257, Control_c, 0, 67, 119
1, 260272, Control_c, 0, 67, 109
1, 260287, Control_c, 0, 67, 97
1, 260302, Control_c, 0, 67, 83
1, 260317, Control_c, 0, 67, 72
1, 260332, Control_c, 0, 67, 59
1, 260346, Control_c, 0, 67, 48
1, 260361, Control_c, 0, 67, 36
1, 260376, Control_c, 0, 67, 26
1, 260391, Control_c, 0, 67, 0
1, 260412, Poly_aftertouch_c, 0, 61, 127
1, 260603, Note_on_c, 0, 80, 78
1, 260647, Note_off_c, 0, 82, 57
1, 260703, Note_off_c, 0, 80, 63
1, 260829, Note_on_c, 0, 79, 69
1, 260843, Note_on_c, 0, 80, 62
1, 260855, Note_off_c, 0, 79, 65
1, 260911, Note_on_c, 0, 79, 84
1, 260913, Note_off_c, 0, 80, 57
1, 261086, Note_on_c, 0, 77, 80
1, 261089, Note_off_c, 0, 79, 62
1, 261208, Note_off_c, 0, 63, 37
1, 261244, Note_off_c, 0, 67, 41
1, 261264, Poly_aftertouch_c, 0, 61, 0
1, 261265, Note_on_c, 0, 75, 79
1, 261275, Note_off_c, 0, 77, 61
1, 261319, Note_off_c, 0, 75, 62
1, 261441, Note_on_c, 0, 63, 63
1, 261504, Control_c, 0, 64, 98
1, 261518, Note_on_c, 0, 72, 74
1, 261518, Control_c, 0, 64, 72
1, 261530, Note_on_c, 0, 67, 54
1, 261533, Control_c, 0, 64, 58
1, 261548, Control_c, 0, 64, 49
1, 261563, Control_c, 0, 64, 53
1, 261578, Control_c, 0, 64, 61
1, 261593, Control_c, 0, 64, 69
1, 261608, Control_c, 0, 64, 77
1, 261622, Control_c, 0, 64, 85
1, 261637, Control_c, 0, 64, 90
1, 261652, Control_c, 0, 64, 95
1, 261667, Control_c, 0, 64, 99
1, 261667, Control_c, 0, 67, 19
1, 261682, Control_c, 0, 64, 103
1, 261697, Control_c, 0, 64, 109
1, 261711, Control_c, 0, 64, 122
1, 261711, Control_c, 0, 67, 21
1, 261726, Control_c, 0, 64, 127
1, 261756, Control_c, 0, 67, 24
1, 261771, Control_c, 0, 64, 91
1, 261785, Control_c, 0, 64, 68
1, 261785, Control_c, 0, 67, 26
1, 261795, Note_on_c, 0, 70, 59
1, 261795, Note_off_c, 0, 58, 15
1, 261797, Note_on_c, 0, 62, 54
1, 261800, Control_c, 0, 64, 55
1, 261807, Note_off_c, 0, 63, 59
1, 261815, Control_c, 0, 64, 50
1, 261816, Note_off_c, 0, 72, 55
1, 261828, Note_off_c, 0, 67, 55
1, 261830, Control_c, 0, 64, 58
1, 261845, Control_c, 0, 64, 67
1, 261859, Control_c, 0, 64, 77
1, 261874, Control_c, 0, 64, 90
1, 261874, Control_c, 0, 67, 29
1, 261889, Control_c, 0, 64, 95
1, 261889, Control_c, 0, 67, 32
1, 261903, Control_c, 0, 64, 97
1, 261903, Control_c, 0, 67, 34
1, 261918, Control_c, 0, 64, 101
1, 261918, Control_c, 0, 67, 35
1, 261932, Control_c, 0, 64, 106
1, 261947, Control_c, 0, 64, 110
1, 261977, Control_c, 0, 67, 36
1, 261992, Control_c, 0, 67, 37
1, 262007, Control_c, 0, 64, 105
1, 262007, Control_c, 0, 67, 38
1, 262022, Control_c, 0, 64, 84
1, 262022, Control_c, 0, 67, 43
1, 262024, Note_off_c, 0, 70, 64
1, 262031, Note_on_c, 0, 63, 44
1, 262035, Note_on_c, 0, 61, 49
1, 262037, Control_c, 0, 64, 66
1, 262037, Control_c, 0, 67, 47
1, 262040, Note_on_c, 0, 67, 44
1, 262052, Control_c, 0, 64, 47
1, 262052, Control_c, 0, 67, 51
1, 262066, Control_c, 0, 64, 40
1, 262066, Control_c, 0, 67, 55
1, 262073, Note_off_c, 0, 62, 51
1, 262088, Control_c, 0, 64, 56
1, 262088, Control_c, 0, 67, 59
1, 262103, Control_c, 0, 64, 69
1, 262103, Control_c, 0, 67, 64
1, 262117, Control_c, 0, 64, 86
1, 262117, Control_c, 0, 67, 68
1, 262132, Control_c, 0, 64, 115
1, 262132, Control_c, 0, 67, 72
1, 262145, Note_off_c, 0, 61, 58
1, 262147, Control_c, 0, 64, 127
1, 262147, Control_c, 0, 67, 76
1, 262162, Control_c, 0, 67, 81
1, 262168, Note_off_c, 0, 63, 55
1, 262177, Control_c, 0, 67, 86
1, 262192, Control_c, 0, 67, 92
1, 262207, Control_c, 0, 67, 98
1, 262222, Control_c, 0, 67, 105
1, 262236, Control_c, 0, 67, 115
1, 262251, Control_c, 0, 67, 123
1, 262267, Control_c, 0, 67, 127
1, 262415, Control_c, 0, 64, 119
1, 262430, Control_c, 0, 64, 109
1, 262441, Note_on_c, 0, 39, 37
1, 262445, Control_c, 0, 64, 101
1, 262460, Control_c, 0, 64, 93
1, 262474, Control_c, 0, 64, 83
1, 262489, Control_c, 0, 64, 74
1, 262504, Control_c, 0, 64, 65
1, 262513, Note_on_c, 0, 60, 44
1, 262517, Note_on_c, 0, 58, 36
1, 262519, Control_c, 0, 64, 53
1, 262521, Note_on_c, 0, 55, 42
1, 262534, Control_c, 0, 64, 0
1, 262541, Note_off_c, 0, 67, 42
1, 262637, Control_c, 0, 64, 39
1, 262652, Control_c, 0, 64, 60
1, 262666, Control_c, 0, 64, 72
1, 262681, Control_c, 0, 64, 80
1, 262696, Control_c, 0, 64, 85
1, 262699, Note_off_c, 0, 55, 60
1, 262711, Control_c, 0, 64, 87
1, 262726, Control_c, 0, 64, 91
1, 262735, Note_off_c, 0, 58, 60
1, 262740, Control_c, 0, 64, 94
1, 262752, Note_off_c, 0, 39, 49
1, 262755, Control_c, 0, 64, 97
1, 262770, Control_c, 0, 64, 103
1, 262785, Control_c, 0, 64, 110
1, 262800, Control_c, 0, 64, 127
1, 262825, Note_off_c, 0, 60, 36
1, 263094, Note_on_c, 0, 48, 13
1, 263263, Note_on_c, 0, 58, 45
1, 263288, Note_off_c, 0, 48, 40
1, 263346, Note_off_c, 0, 58, 59
1, 263408, Note_on_c, 0, 60, 35
1, 263655, Note_on_c, 0, 67, 45
1, 263739, Note_off_c, 0, 60, 43
1, 263753, Note_on_c, 0, 94, 58
1, 263756, Note_off_c, 0, 67, 57
1, 264057, Note_off_c, 0, 94, 65
1, 264083, Note_on_c, 0, 93, 47
1, 264139, Note_off_c, 0, 93, 0
1, 264139, Note_on_c, 0, 93, 33
1, 264159, Note_on_c, 0, 60, 36
1, 264244, Note_off_c, 0, 93, 55
1, 264270, Note_on_c, 0, 92, 56
1, 264280, Note_on_c, 0, 58, 43
1, 264284, Note_off_c, 0, 60, 37
1, 264326, Note_on_c, 0, 84, 15
1, 264328, Note_off_c, 0, 92, 55
1, 264338, Note_off_c, 0, 58, 60
1, 264375, Note_on_c, 0, 48, 37
1, 264381, Poly_aftertouch_c, 0, 86, 127
1, 264410, Note_off_c, 0, 48, 48
1, 264454, Note_off_c, 0, 84, 42
1, 264464, Poly_aftertouch_c, 0, 86, 0
1, 264494, Note_on_c, 0, 93, 57
1, 264501, Note_on_c, 0, 39, 57
1, 264512, Note_on_c, 0, 83, 37
1, 264530, Note_off_c, 0, 39, 60
1, 264554, Note_off_c, 0, 93, 37
1, 264627, Note_off_c, 0, 83, 36
1, 264726, Note_on_c, 0, 82, 59
1, 264730, Note_on_c, 0, 84, 46
1, 264811, Note_on_c, 0, 48, 59
1, 264926, Note_off_c, 0, 48, 58
1, 264941, Note_on_c, 0, 58, 54
1, 264941, Note_on_c, 0, 79, 64
1, 264941, Note_off_c, 0, 82, 57
1, 264993, Note_off_c, 0, 58, 60
1, 265043, Note_on_c, 0, 60, 40
1, 265122, Note_off_c, 0, 60, 62
1, 265130, Note_off_c, 0, 79, 60
1, 265132, Note_off_c, 0, 84, 58
1, 265146, Note_on_c, 0, 83, 69
1, 265152, Note_on_c, 0, 72, 58
1, 265156, Note_on_c, 0, 67, 53
1, 265191, Note_off_c, 0, 67, 65
1, 265381, Note_on_c, 0, 82, 68
1, 265407, Note_off_c, 0, 83, 60
1, 265419, Note_off_c, 0, 72, 56
1, 265435, Note_off_c, 0, 82, 61
1, 265480, Note_on_c, 0, 60, 49
1, 265581, Note_on_c, 0, 79, 67
1, 265598, Note_on_c, 0, 71, 56
1, 265613, Note_on_c, 0, 58, 47
1, 265627, Note_off_c, 0, 79, 63
1, 265632, Note_off_c, 0, 60, 33
1, 265697, Note_off_c, 0, 58, 62
1, 265708, Note_on_c, 0, 48, 42
1, 265746, Note_off_c, 0, 48, 61
1, 265890, Note_on_c, 0, 40, 66
1, 265930, Note_off_c, 0, 71, 59
1, 265936, Control_c, 0, 64, 94
1, 265939, Note_on_c, 0, 72, 63
1, 265951, Control_c, 0, 64, 70
1, 265953, Note_on_c, 0, 70, 60
1, 265965, Control_c, 0, 64, 49
1, 265980, Control_c, 0, 64, 0
1, 265995, Control_c, 0, 64, 34
1, 266009, Control_c, 0, 64, 57
1, 266024, Control_c, 0, 64, 73
1, 266026, Note_off_c, 0, 40, 63
1, 266039, Control_c, 0, 64, 97
1, 266054, Control_c, 0, 64, 127
1, 266163, Note_off_c, 0, 70, 55
1, 266186, Note_off_c, 0, 72, 58
1, 266205, Note_on_c, 0, 67, 54
1, 266214, Note_on_c, 0, 60, 47
1, 266240, Note_off_c, 0, 60, 58
1, 266255, Note_off_c, 0, 67, 62
1, 266307, Note_on_c, 0, 48, 58
1, 266421, Note_on_c, 0, 94, 76
1, 266437, Note_on_c, 0, 55, 54
1, 266449, Note_off_c, 0, 48, 60
1, 266476, Note_off_c, 0, 55, 64
1, 266527, Note_on_c, 0, 60, 50
1, 266560, Note_off_c, 0, 60, 66
1, 266592, Note_off_c, 0, 94, 66
1, 266624, Note_on_c, 0, 93, 75
1, 266629, Note_on_c, 0, 84, 78
1, 266652, Note_on_c, 0, 70, 54
1, 266672, Note_off_c, 0, 70, 61
1, 266680, Note_off_c, 0, 84, 62
1, 266800, Note_off_c, 0, 93, 61
1, 266821, Note_on_c, 0, 92, 80
1, 266830, Note_on_c, 0, 83, 76
1, 266868, Note_off_c, 0, 92, 63
1, 266899, Note_on_c, 0, 60, 58
1, 267009, Note_on_c, 0, 91, 81
1, 267011, Note_off_c, 0, 60, 57
1, 267022, Note_on_c, 0, 55, 51
1, 267026, Note_on_c, 0, 82, 77
1, 267047, Note_off_c, 0, 83, 29
1, 267059, Note_off_c, 0, 91, 64
1, 267100, Note_off_c, 0, 55, 60
1, 267116, Note_on_c, 0, 48, 55
1, 267146, Note_off_c, 0, 48, 65
1, 267277, Note_on_c, 0, 40, 63
1, 267304, Note_on_c, 0, 84, 78
1, 267311, Note_on_c, 0, 79, 68
1, 267315, Note_off_c, 0, 40, 64
1, 267327, Note_off_c, 0, 82, 58
1, 267541, Note_on_c, 0, 72, 60
1, 267542, Note_off_c, 0, 79, 59
1, 267632, Note_on_c, 0, 48, 57
1, 267708, Note_off_c, 0, 84, 58
1, 267724, Note_on_c, 0, 83, 72
1, 267740, Note_on_c, 0, 55, 58
1, 267740, Note_off_c, 0, 48, 62
1, 267767, Note_off_c, 0, 55, 63
1, 267828, Note_on_c, 0, 60, 52
1, 267860, Note_off_c, 0, 60, 67
1, 267942, Note_on_c, 0, 82, 74
1, 267951, Note_on_c, 0, 70, 57
1, 267954, Note_off_c, 0, 72, 60
1, 267972, Note_off_c, 0, 70, 61
1, 267972, Note_off_c, 0, 83, 61
1, 268005, Note_off_c, 0, 82, 62
1, 268163, Note_on_c, 0, 79, 69
1, 268168, Note_on_c, 0, 71, 65
1, 268192, Note_off_c, 0, 79, 66
1, 268269, Note_on_c, 0, 60, 49
1, 268385, Note_on_c, 0, 55, 51
1, 268392, Note_on_c, 0, 72, 66
1, 268392, Note_off_c, 0, 71, 53
1, 268395, Note_on_c, 0, 70, 61
1, 268398, Note_off_c, 0, 60, 36
1, 268478, Note_off_c, 0, 70, 58
1, 268478, Note_off_c, 0, 55, 61
1, 268491, Note_on_c, 0, 48, 61
1, 268520, Note_off_c, 0, 48, 69
1, 268645, Note_on_c, 0, 40, 66
1, 268696, Note_off_c, 0, 40, 57
1, 268702, Note_off_c, 0, 72, 59
1, 268720, Note_on_c, 0, 70, 65
1, 268734, Note_on_c, 0, 60, 62
1, 268757, Note_off_c, 0, 70, 62
1, 268902, Note_on_c, 0, 59, 70
1, 268932, Note_off_c, 0, 60, 37
1, 268952, Note_off_c, 0, 59, 60
1, 269079, Note_on_c, 0, 29, 72
1, 269143, Note_on_c, 0, 60, 71
1, 269148, Note_on_c, 0, 55, 60
1, 269148, Note_on_c, 0, 58, 62
1, 269153, Control_c, 0, 64, 78
1, 269168, Control_c, 0, 64, 49
1, 269183, Control_c, 0, 64, 0
1, 269227, Control_c, 0, 64, 48
1, 269242, Control_c, 0, 64, 66
1, 269257, Control_c, 0, 64, 84
1, 269262, Note_off_c, 0, 29, 62
1, 269272, Control_c, 0, 64, 107
1, 269287, Control_c, 0, 64, 127
1, 269294, Note_off_c, 0, 55, 61
1, 269306, Note_on_c, 0, 41, 47
1, 269335, Note_off_c, 0, 41, 57
1, 269343, Note_off_c, 0, 60, 62
1, 269347, Note_off_c, 0, 58, 63
1, 269458, Note_on_c, 0, 48, 41
1, 269485, Note_on_c, 0, 50, 44
1, 269552, Note_on_c, 0, 58, 64
1, 269693, Note_on_c, 0, 60, 56
1, 269695, Note_on_c, 0, 82, 89
1, 269804, Note_off_c, 0, 60, 50
1, 269966, Note_off_c, 0, 82, 65
1, 269977, Note_on_c, 0, 81, 83
1, 269980, Note_on_c, 0, 72, 77
1, 270061, Note_off_c, 0, 58, 37
1, 270111, Note_on_c, 0, 60, 59
1, 270119, Note_off_c, 0, 50, 1
1, 270143, Note_off_c, 0, 48, 40
1, 270248, Note_on_c, 0, 80, 80
1, 270252, Note_off_c, 0, 81, 61
1, 270258, Note_on_c, 0, 58, 56
1, 270264, Note_off_c, 0, 72, 32
1, 270290, Note_off_c, 0, 60, 37
1, 270359, Note_off_c, 0, 58, 62
1, 270361, Note_on_c, 0, 48, 52
1, 270404, Note_off_c, 0, 48, 62
1, 270413, Note_off_c, 0, 80, 63
1, 270461, Note_on_c, 0, 79, 88
1, 270462, Note_on_c, 0, 71, 81
1, 270509, Note_off_c, 0, 79, 65
1, 270541, Note_on_c, 0, 48, 67
1, 270640, Note_off_c, 0, 71, 62
1, 270662, Note_on_c, 0, 41, 63
1, 270666, Note_on_c, 0, 72, 75
1, 270675, Note_on_c, 0, 70, 70
1, 270677, Note_off_c, 0, 48, 56
1, 270681, Control_c, 0, 64, 84
1, 270696, Control_c, 0, 64, 61
1, 270711, Control_c, 0, 64, 37
1, 270726, Control_c, 0, 64, 39
1, 270741, Control_c, 0, 64, 54
1, 270755, Control_c, 0, 64, 68
1, 270768, Note_off_c, 0, 41, 61
1, 270770, Control_c, 0, 64, 81
1, 270785, Control_c, 0, 64, 101
1, 270790, Note_on_c, 0, 48, 56
1, 270799, Control_c, 0, 64, 127
1, 270816, Note_off_c, 0, 48, 57
1, 270835, Note_off_c, 0, 72, 62
1, 270890, Note_on_c, 0, 48, 67
1, 270980, Note_on_c, 0, 58, 65
1, 271083, Note_on_c, 0, 79, 87
1, 271087, Note_on_c, 0, 60, 68
1, 271217, Note_off_c, 0, 60, 44
1, 271332, Note_on_c, 0, 78, 83
1, 271337, Note_off_c, 0, 79, 63
1, 271396, Note_off_c, 0, 70, 56
1, 271401, Note_off_c, 0, 58, 60
1, 271425, Note_on_c, 0, 60, 62
1, 271480, Note_off_c, 0, 48, 41
1, 271501, Note_off_c, 0, 78, 64
1, 271516, Note_on_c, 0, 77, 80
1, 271522, Note_on_c, 0, 69, 78
1, 271532, Note_on_c, 0, 58, 64
1, 271548, Note_off_c, 0, 60, 57
1, 271585, Note_off_c, 0, 77, 63
1, 271629, Note_off_c, 0, 58, 64
1, 271631, Note_on_c, 0, 48, 64
1, 271675, Note_off_c, 0, 48, 66
1, 271706, Note_off_c, 0, 69, 63
1, 271725, Note_on_c, 0, 76, 80
1, 271726, Note_on_c, 0, 68, 83
1, 271832, Note_on_c, 0, 41, 60
1, 271948, Note_off_c, 0, 41, 53
1, 271948, Note_off_c, 0, 68, 62
1, 271957, Note_on_c, 0, 70, 84
1, 271957, Control_c, 0, 64, 73
1, 271959, Note_on_c, 0, 67, 73
1, 271966, Note_on_c, 0, 29, 71
1, 271966, Note_off_c, 0, 76, 62
1, 271972, Control_c, 0, 64, 49
1, 271987, Control_c, 0, 64, 0
1, 272002, Control_c, 0, 64, 40
1, 272017, Control_c, 0, 64, 62
1, 272032, Control_c, 0, 64, 79
1, 272042, Note_off_c, 0, 29, 63
1, 272046, Control_c, 0, 64, 127
1, 272100, Note_on_c, 0, 41, 28
1, 272125, Note_off_c, 0, 67, 62
1, 272131, Note_off_c, 0, 41, 46
1, 272194, Note_on_c, 0, 48, 67
1, 272282, Note_on_c, 0, 58, 71
1, 272379, Note_on_c, 0, 60, 71
1, 272388, Note_on_c, 0, 75, 83
1, 272401, Note_on_c, 0, 66, 77
1, 272461, Note_off_c, 0, 60, 56
1, 272579, Note_off_c, 0, 75, 62
1, 272592, Note_off_c, 0, 66, 53
1, 272622, Note_on_c, 0, 74, 79
1, 272712, Note_off_c, 0, 58, 60
1, 272715, Note_on_c, 0, 60, 78
1, 272746, Note_off_c, 0, 48, 41
1, 272804, Note_off_c, 0, 74, 60
1, 272808, Note_off_c, 0, 70, 62
1, 272816, Note_on_c, 0, 73, 84
1, 272824, Note_on_c, 0, 65, 78
1, 272850, Note_on_c, 0, 58, 64
1, 272863, Note_off_c, 0, 60, 58
1, 272899, Note_off_c, 0, 73, 61
1, 272955, Note_off_c, 0, 58, 63
1, 272958, Note_on_c, 0, 48, 79
1, 272984, Note_off_c, 0, 48, 70
1, 273016, Control_c, 0, 67, 125
1, 273031, Control_c, 0, 67, 103
1, 273033, Note_off_c, 0, 65, 59
1, 273046, Control_c, 0, 67, 83
1, 273056, Note_on_c, 0, 72, 85
1, 273057, Note_on_c, 0, 64, 73
1, 273061, Control_c, 0, 67, 69
1, 273075, Control_c, 0, 67, 63
1, 273087, Note_off_c, 0, 64, 60
1, 273090, Control_c, 0, 67, 62
1, 273177, Note_on_c, 0, 41, 83
1, 273224, Control_c, 0, 67, 63
1, 273239, Control_c, 0, 67, 63
1, 273268, Control_c, 0, 67, 64
1, 273283, Control_c, 0, 67, 64
1, 273298, Control_c, 0, 67, 65
1, 273334, Control_c, 0, 67, 66
1, 273349, Control_c, 0, 67, 66
1, 273350, Note_on_c, 0, 29, 77
1, 273379, Control_c, 0, 64, 85
1, 273379, Control_c, 0, 67, 67
1, 273392, Note_off_c, 0, 41, 59
1, 273394, Control_c, 0, 64, 51
1, 273394, Control_c, 0, 67, 67
1, 273402, Note_on_c, 0, 59, 73
1, 273406, Note_on_c, 0, 66, 77
1, 273409, Control_c, 0, 64, 0
1, 273410, Note_off_c, 0, 72, 64
1, 273411, Note_on_c, 0, 63, 75
1, 273454, Control_c, 0, 64, 38
1, 273454, Control_c, 0, 67, 68
1, 273469, Control_c, 0, 64, 63
1, 273484, Control_c, 0, 64, 76
1, 273496, Note_off_c, 0, 29, 64
1, 273498, Control_c, 0, 64, 92
1, 273513, Control_c, 0, 64, 110
1, 273513, Control_c, 0, 67, 68
1, 273521, Note_on_c, 0, 41, 58
1, 273528, Control_c, 0, 64, 127
1, 273528, Control_c, 0, 67, 69
1, 273549, Note_off_c, 0, 41, 64
1, 273558, Control_c, 0, 67, 69
1, 273588, Control_c, 0, 67, 70
1, 273632, Control_c, 0, 67, 70
1, 273647, Control_c, 0, 67, 71
1, 273652, Note_on_c, 0, 51, 74
1, 273677, Control_c, 0, 67, 71
1, 273679, Note_off_c, 0, 63, 50
1, 273750, Control_c, 0, 67, 72
1, 273756, Note_on_c, 0, 54, 65
1, 273787, Note_off_c, 0, 59, 56
1, 273870, Control_c, 0, 67, 72
1, 273871, Note_on_c, 0, 71, 83
1, 273877, Note_on_c, 0, 63, 77
1, 273892, Note_off_c, 0, 66, 54
1, 273929, Control_c, 0, 67, 73
1, 273999, Note_off_c, 0, 54, 55
1, 274043, Note_off_c, 0, 51, 59
1, 274143, Note_off_c, 0, 71, 60
1, 274146, Note_on_c, 0, 70, 81
1, 274239, Note_on_c, 0, 54, 68
1, 274309, Note_off_c, 0, 54, 49
1, 274339, Note_on_c, 0, 51, 60
1, 274361, Note_on_c, 0, 62, 77
1, 274414, Note_off_c, 0, 51, 58
1, 274426, Control_c, 0, 67, 72
1, 274443, Note_on_c, 0, 41, 73
1, 274455, Control_c, 0, 67, 72
1, 274480, Note_off_c, 0, 41, 64
1, 274488, Note_off_c, 0, 70, 56
1, 274500, Control_c, 0, 67, 71
1, 274574, Control_c, 0, 67, 71
1, 274580, Note_on_c, 0, 69, 80
1, 274603, Note_off_c, 0, 62, 59
1, 274605, Note_off_c, 0, 63, 61
1, 274657, Note_on_c, 0, 41, 67
1, 274692, Control_c, 0, 67, 71
1, 274707, Control_c, 0, 67, 72
1, 274722, Control_c, 0, 67, 72
1, 274737, Control_c, 0, 67, 73
1, 274752, Control_c, 0, 67, 74
1, 274781, Control_c, 0, 67, 75
1, 274811, Control_c, 0, 67, 76
1, 274812, Note_on_c, 0, 29, 58
1, 274823, Note_off_c, 0, 69, 61
1, 274831, Note_on_c, 0, 66, 71
1, 274834, Control_c, 0, 64, 66
1, 274834, Control_c, 0, 67, 77
1, 274835, Note_on_c, 0, 63, 69
1, 274836, Note_on_c, 0, 58, 68
1, 274836, Note_off_c, 0, 41, 59
1, 274848, Control_c, 0, 64, 0
1, 274848, Control_c, 0, 67, 79
1, 274863, Control_c, 0, 67, 81
1, 274878, Control_c, 0, 67, 82
1, 274892, Control_c, 0, 64, 58
1, 274892, Control_c, 0, 67, 83
1, 274899, Note_off_c, 0, 29, 63
1, 274907, Control_c, 0, 64, 74
1, 274907, Control_c, 0, 67, 85
1, 274922, Control_c, 0, 64, 98
1, 274922, Control_c, 0, 67, 86
1, 274937, Control_c, 0, 64, 127
1, 274937, Control_c, 0, 67, 89
1, 274938, Note_on_c, 0, 41, 45
1, 274952, Control_c, 0, 67, 91
1, 274966, Control_c, 0, 67, 93
1, 274968, Note_off_c, 0, 41, 49
1, 274978, Note_off_c, 0, 58, 59
1, 275026, Control_c, 0, 67, 93
1, 275057, Control_c, 0, 67, 94
1, 275083, Note_on_c, 0, 52, 45
1, 275116, Control_c, 0, 67, 93
1, 275124, Note_on_c, 0, 53, 8
1, 275156, Note_on_c, 0, 54, 67
1, 275160, Control_c, 0, 67, 93
1, 275168, Note_off_c, 0, 52, 48
1, 275174, Note_off_c, 0, 53, 49
1, 275249, Control_c, 0, 67, 93
1, 275254, Note_off_c, 0, 63, 51
1, 275295, Note_off_c, 0, 66, 61
1, 275296, Note_on_c, 0, 70, 81
1, 275298, Note_on_c, 0, 62, 77
1, 275323, Control_c, 0, 67, 94
1, 275352, Control_c, 0, 67, 94
1, 275367, Control_c, 0, 67, 95
1, 275397, Control_c, 0, 67, 99
1, 275427, Control_c, 0, 67, 101
1, 275429, Note_off_c, 0, 54, 61
1, 275582, Note_on_c, 0, 69, 73
1, 275605, Note_off_c, 0, 70, 51
1, 275683, Note_on_c, 0, 54, 58
1, 275782, Note_off_c, 0, 54, 58
1, 275803, Note_on_c, 0, 61, 75
1, 275803, Note_on_c, 0, 51, 56
1, 275812, Note_off_c, 0, 62, 57
1, 275902, Note_off_c, 0, 51, 61
1, 275919, Note_on_c, 0, 41, 57
1, 275955, Note_off_c, 0, 41, 61
1, 275968, Control_c, 0, 67, 99
1, 276026, Note_off_c, 0, 69, 60
1, 276037, Note_on_c, 0, 68, 70
1, 276041, Note_on_c, 0, 60, 62
1, 276044, Note_off_c, 0, 61, 59
1, 276119, Note_off_c, 0, 60, 61
1, 276145, Note_on_c, 0, 41, 61
1, 276250, Control_c, 0, 67, 101
1, 276274, Note_off_c, 0, 41, 49
1, 276287, Note_on_c, 0, 29, 58
1, 276294, Control_c, 0, 64, 112
1, 276294, Control_c, 0, 67, 103
1, 276300, Note_on_c, 0, 63, 67
1, 276309, Control_c, 0, 64, 73
1, 276309, Control_c, 0, 67, 106
1, 276319, Note_on_c, 0, 61, 55
1, 276322, Note_on_c, 0, 57, 52
1, 276331, Control_c, 0, 64, 53
1, 276331, Control_c, 0, 67, 109
1, 276333, Note_off_c, 0, 68, 59
1, 276345, Control_c, 0, 64, 47
1, 276345, Control_c, 0, 67, 111
1, 276360, Control_c, 0, 64, 57
1, 276375, Control_c, 0, 64, 67
1, 276375, Control_c, 0, 67, 113
1, 276381, Note_off_c, 0, 29, 62
1, 276390, Control_c, 0, 64, 80
1, 276405, Control_c, 0, 64, 100
1, 276405, Control_c, 0, 67, 116
1, 276420, Control_c, 0, 64, 127
1, 276420, Control_c, 0, 67, 118
1, 276425, Note_on_c, 0, 41, 50
1, 276454, Note_off_c, 0, 41, 61
1, 276593, Note_on_c, 0, 51, 60
1, 276610, Note_off_c, 0, 61, 29
1, 276676, Note_off_c, 0, 63, 29
1, 276706, Note_off_c, 0, 57, 31
1, 276727, Note_on_c, 0, 54, 59
1, 276923, Note_on_c, 0, 69, 69
1, 276926, Note_on_c, 0, 61, 67
1, 277004, Note_off_c, 0, 51, 47
1, 277065, Note_off_c, 0, 54, 55
1, 277287, Control_c, 0, 67, 116
1, 277342, Note_off_c, 0, 69, 59
1, 277347, Note_on_c, 0, 68, 70
1, 277535, Note_on_c, 0, 54, 55
1, 277725, Note_off_c, 0, 54, 56
1, 277745, Note_on_c, 0, 51, 46
1, 277811, Note_on_c, 0, 67, 63
1, 277829, Control_c, 0, 64, 93
1, 277829, Control_c, 0, 67, 118
1, 277835, Note_off_c, 0, 68, 58
1, 277844, Control_c, 0, 64, 83
1, 277859, Control_c, 0, 64, 82
1, 277873, Control_c, 0, 64, 83
1, 277888, Control_c, 0, 64, 87
1, 277903, Control_c, 0, 64, 92
1, 277917, Control_c, 0, 64, 97
1, 277917, Control_c, 0, 67, 120
1, 277932, Control_c, 0, 64, 102
1, 277947, Control_c, 0, 64, 107
1, 277962, Control_c, 0, 64, 112
1, 277962, Control_c, 0, 67, 126
1, 277977, Control_c, 0, 64, 115
1, 278035, Control_c, 0, 64, 97
1, 278038, Note_on_c, 0, 41, 48
1, 278038, Note_off_c, 0, 61, 59
1, 278043, Note_on_c, 0, 60, 61
1, 278043, Note_off_c, 0, 51, 54
1, 278050, Control_c, 0, 64, 80
1, 278065, Control_c, 0, 64, 69
1, 278080, Control_c, 0, 64, 64
1, 278095, Control_c, 0, 64, 66
1, 278110, Control_c, 0, 64, 72
1, 278125, Control_c, 0, 64, 81
1, 278140, Control_c, 0, 64, 86
1, 278155, Control_c, 0, 64, 87
1, 278169, Control_c, 0, 64, 88
1, 278184, Control_c, 0, 64, 89
1, 278199, Control_c, 0, 64, 89
1, 278333, Control_c, 0, 64, 89
1, 278348, Control_c, 0, 64, 88
1, 278363, Control_c, 0, 64, 88
1, 278378, Control_c, 0, 64, 87
1, 278393, Control_c, 0, 64, 86
1, 278408, Control_c, 0, 64, 85
1, 278422, Control_c, 0, 64, 83
1, 278429, Note_on_c, 0, 51, 36
1, 278435, Note_on_c, 0, 57, 41
1, 278437, Control_c, 0, 64, 81
1, 278452, Control_c, 0, 64, 77
1, 278466, Control_c, 0, 64, 73
1, 278476, Note_off_c, 0, 67, 60
1, 278481, Control_c, 0, 64, 69
1, 278496, Control_c, 0, 64, 63
1, 278499, Note_off_c, 0, 60, 58
1, 278509, Note_on_c, 0, 66, 49
1, 278511, Control_c, 0, 64, 50
1, 278512, Note_on_c, 0, 61, 44
1, 278526, Control_c, 0, 64, 0
1, 278666, Control_c, 0, 64, 48
1, 278681, Control_c, 0, 64, 62
1, 278696, Control_c, 0, 64, 70
1, 278711, Control_c, 0, 64, 75
1, 278726, Control_c, 0, 64, 80
1, 278740, Control_c, 0, 64, 83
1, 278746, Note_off_c, 0, 57, 42
1, 278752, Note_off_c, 0, 66, 56
1, 278755, Control_c, 0, 64, 89
1, 278770, Control_c, 0, 64, 96
1, 278785, Control_c, 0, 64, 105
1, 278789, Note_off_c, 0, 61, 36
1, 278800, Control_c, 0, 64, 124
1, 278814, Control_c, 0, 64, 127
1, 278871, Note_off_c, 0, 51, 37
1, 278906, Note_off_c, 0, 41, 6
1, 279578, Note_on_c, 0, 22, 45
1, 279594, Control_c, 0, 64, 116
1, 279599, Note_on_c, 0, 34, 27
1, 279600, Note_on_c, 0, 29, 29
1, 279608, Control_c, 0, 64, 86
1, 279623, Control_c, 0, 64, 66
1, 279638, Control_c, 0, 64, 50
1, 279640, Note_on_c, 0, 58, 61
1, 279645, Note_on_c, 0, 53, 44
1, 279653, Note_on_c, 0, 46, 45
1, 279653, Control_c, 0, 64, 0
1, 279668, Control_c, 0, 64, 42
1, 279682, Control_c, 0, 64, 59
1, 279697, Control_c, 0, 64, 71
1, 279711, Note_off_c, 0, 46, 62
1, 279712, Note_off_c, 0, 22, 54
1, 279712, Control_c, 0, 64, 89
1, 279726, Note_off_c, 0, 29, 52
1, 279727, Control_c, 0, 64, 106
1, 279735, Note_off_c, 0, 53, 60
1, 279742, Control_c, 0, 64, 124
1, 279756, Control_c, 0, 64, 127
1, 279764, Note_off_c, 0, 34, 54
1, 279772, Note_off_c, 0, 58, 63
1, 280040, Note_on_c, 0, 65, 50
1, 280043, Note_on_c, 0, 54, 48
1, 280050, Note_on_c, 0, 53, 39
1, 280062, Note_on_c, 0, 42, 25
1, 280062, Note_on_c, 0, 46, 40
1, 280074, Note_on_c, 0, 58, 29
1, 280092, Note_on_c, 0, 62, 13
1, 280134, Poly_aftertouch_c, 0, 50, 127
1, 280241, Note_off_c, 0, 54, 55
1, 280417, Note_off_c, 0, 65, 32
1, 280443, Note_off_c, 0, 42, 41
1, 280477, Note_off_c, 0, 62, 25
1, 280483, Note_off_c, 0, 58, 36
1, 280486, Poly_aftertouch_c, 0, 50, 0
1, 280555, Note_off_c, 0, 53, 16
1, 280589, Note_off_c, 0, 46, 38
1, 280727, Note_on_c, 0, 46, 34
1, 280727, Note_on_c, 0, 55, 49
1, 280729, Note_on_c, 0, 65, 54
1, 280742, Control_c, 0, 64, 99
1, 280748, Note_on_c, 0, 62, 39
1, 280753, Note_on_c, 0, 43, 36
1, 280755, Note_on_c, 0, 50, 37
1, 280757, Control_c, 0, 64, 78
1, 280758, Note_on_c, 0, 58, 24
1, 280763, Note_on_c, 0, 53, 9
1, 280772, Control_c, 0, 64, 74
1, 280787, Control_c, 0, 64, 75
1, 280808, Control_c, 0, 64, 79
1, 280823, Control_c, 0, 64, 86
1, 280838, Control_c, 0, 64, 93
1, 280853, Control_c, 0, 64, 99
1, 280867, Control_c, 0, 64, 106
1, 280882, Control_c, 0, 64, 127
1, 280913, Note_off_c, 0, 65, 35
1, 280917, Note_off_c, 0, 55, 27
1, 280923, Note_off_c, 0, 43, 20
1, 280931, Note_off_c, 0, 50, 38
1, 280963, Note_off_c, 0, 53, 34
1, 280983, Note_off_c, 0, 46, 38
1, 280994, Note_off_c, 0, 58, 42
1, 281007, Note_off_c, 0, 62, 40
1, 281278, Note_on_c, 0, 50, 56
1, 281279, Note_on_c, 0, 53, 55
1, 281281, Note_on_c, 0, 65, 70
1, 281288, Note_on_c, 0, 56, 56
1, 281297, Note_on_c, 0, 58, 44
1, 281298, Note_on_c, 0, 46, 46
1, 281302, Note_on_c, 0, 62, 38
1, 281312, Note_off_c, 0, 50, 63
1, 281317, Note_off_c, 0, 53, 62
1, 281327, Note_off_c, 0, 58, 59
1, 281329, Note_off_c, 0, 46, 62
1, 281331, Note_off_c, 0, 62, 55
1, 281341, Note_off_c, 0, 56, 55
1, 281344, Poly_aftertouch_c, 0, 44, 127
1, 281347, Note_off_c, 0, 65, 64
1, 281386, Poly_aftertouch_c, 0, 44, 0
1, 281521, Control_c, 0, 64, 90
1, 281530, Note_on_c, 0, 38, 72
1, 281531, Note_on_c, 0, 33, 69
1, 281535, Note_on_c, 0, 45, 65
1, 281536, Control_c, 0, 64, 59
1, 281542, Note_on_c, 0, 42, 65
1, 281558, Control_c, 0, 64, 0
1, 281568, Poly_aftertouch_c, 0, 37, 0
1, 281584, Note_on_c, 0, 69, 81
1, 281589, Note_on_c, 0, 57, 74
1, 281591, Note_on_c, 0, 62, 70
1, 281591, Note_on_c, 0, 66, 68
1, 281603, Control_c, 0, 64, 47
1, 281616, Note_off_c, 0, 33, 62
1, 281618, Control_c, 0, 64, 64
1, 281631, Note_off_c, 0, 38, 63
1, 281632, Control_c, 0, 64, 76
1, 281645, Note_off_c, 0, 57, 62
1, 281647, Control_c, 0, 64, 94
1, 281660, Note_off_c, 0, 42, 63
1, 281661, Note_off_c, 0, 62, 61
1, 281662, Control_c, 0, 64, 127
1, 281663, Note_off_c, 0, 45, 65
1, 281672, Note_off_c, 0, 69, 62
1, 281682, Note_off_c, 0, 66, 62
1, 281881, Note_on_c, 0, 50, 34
1, 281886, Note_on_c, 0, 52, 57
1, 281887, Note_on_c, 0, 58, 61
1, 281891, Note_on_c, 0, 74, 71
1, 281898, Note_on_c, 0, 64, 52
1, 281904, Note_on_c, 0, 70, 57
1, 281904, Note_on_c, 0, 62, 54
1, 281913, Control_c, 0, 64, 87
1, 281928, Control_c, 0, 64, 65
1, 281943, Control_c, 0, 64, 48
1, 281958, Control_c, 0, 64, 48
1, 281973, Control_c, 0, 64, 58
1, 281988, Control_c, 0, 64, 66
1, 282002, Control_c, 0, 64, 72
1, 282017, Control_c, 0, 64, 75
1, 282032, Control_c, 0, 64, 77
1, 282047, Control_c, 0, 64, 81
1, 282049, Note_off_c, 0, 62, 52
1, 282062, Control_c, 0, 64, 88
1, 282074, Note_off_c, 0, 52, 54
1, 282077, Control_c, 0, 64, 95
1, 282087, Note_off_c, 0, 64, 59
1, 282091, Control_c, 0, 64, 103
1, 282093, Note_off_c, 0, 58, 59
1, 282100, Note_off_c, 0, 74, 56
1, 282106, Control_c, 0, 64, 113
1, 282115, Note_off_c, 0, 50, 36
1, 282121, Control_c, 0, 64, 127
1, 282122, Note_off_c, 0, 70, 57
1, 282577, Note_on_c, 0, 74, 47
1, 282578, Note_on_c, 0, 62, 45
1, 282578, Note_on_c, 0, 70, 53
1, 282579, Note_on_c, 0, 53, 41
1, 282581, Note_on_c, 0, 65, 48
1, 282588, Control_c, 0, 64, 106
1, 282589, Note_on_c, 0, 58, 37
1, 282594, Note_on_c, 0, 50, 32
1, 282603, Control_c, 0, 64, 76
1, 282618, Control_c, 0, 64, 64
1, 282632, Control_c, 0, 64, 53
1, 282647, Control_c, 0, 64, 50
1, 282662, Control_c, 0, 64, 57
1, 282677, Control_c, 0, 64, 64
1, 282692, Control_c, 0, 64, 69
1, 282706, Control_c, 0, 64, 75
1, 282721, Control_c, 0, 64, 80
1, 282736, Control_c, 0, 64, 82
1, 282751, Control_c, 0, 64, 85
1, 282763, Note_off_c, 0, 62, 40
1, 282766, Control_c, 0, 64, 87
1, 282781, Control_c, 0, 64, 90
1, 282793, Note_off_c, 0, 58, 39
1, 282793, Note_off_c, 0, 53, 55
1, 282796, Control_c, 0, 64, 95
1, 282811, Control_c, 0, 64, 100
1, 282822, Note_off_c, 0, 74, 34
1, 282825, Control_c, 0, 64, 109
1, 282835, Note_off_c, 0, 65, 60
1, 282840, Control_c, 0, 64, 127
1, 282857, Note_off_c, 0, 50, 38
1, 282922, Note_off_c, 0, 70, 33
1, 283288, Note_on_c, 0, 54, 37
1, 283292, Control_c, 0, 64, 88
1, 283297, Note_on_c, 0, 50, 37
1, 283301, Note_on_c, 0, 74, 45
1, 283302, Note_on_c, 0, 66, 37
1, 283307, Control_c, 0, 64, 78
1, 283308, Note_on_c, 0, 70, 40
1, 283311, Note_on_c, 0, 62, 35
1, 283320, Note_on_c, 0, 58, 24
1, 283322, Control_c, 0, 64, 77
1, 283336, Control_c, 0, 64, 80
1, 283351, Control_c, 0, 64, 86
1, 283365, Note_off_c, 0, 74, 58
1, 283366, Control_c, 0, 64, 95
1, 283371, Note_off_c, 0, 58, 46
1, 283378, Note_off_c, 0, 70, 57
1, 283380, Control_c, 0, 64, 102
1, 283395, Control_c, 0, 64, 108
1, 283399, Note_off_c, 0, 66, 45
1, 283401, Note_off_c, 0, 62, 47
1, 283410, Control_c, 0, 64, 127
1, 283414, Note_off_c, 0, 54, 61
1, 283433, Note_off_c, 0, 50, 52
1, 283721, Control_c, 0, 64, 77
1, 283735, Note_on_c, 0, 22, 52
1, 283736, Control_c, 0, 64, 55
1, 283751, Control_c, 0, 64, 0
1, 283755, Note_on_c, 0, 34, 46
1, 283768, Note_on_c, 0, 29, 33
1, 283779, Note_on_c, 0, 58, 67
1, 283780, Control_c, 0, 64, 43
1, 283785, Note_on_c, 0, 53, 40
1, 283803, Control_c, 0, 64, 68
1, 283803, Note_on_c, 0, 46, 34
1, 283817, Note_off_c, 0, 22, 60
1, 283818, Control_c, 0, 64, 88
1, 283832, Note_off_c, 0, 29, 61
1, 283833, Control_c, 0, 64, 127
1, 283842, Note_off_c, 0, 46, 49
1, 283847, Note_off_c, 0, 53, 62
1, 283864, Note_off_c, 0, 34, 61
1, 283877, Note_off_c, 0, 58, 61
1, 284149, Note_on_c, 0, 61, 48
1, 284150, Poly_aftertouch_c, 0, 70, 127
1, 284161, Note_on_c, 0, 59, 53
1, 284165, Note_on_c, 0, 77, 37
1, 284178, Note_on_c, 0, 53, 44
1, 284191, Note_on_c, 0, 71, 43
1, 284227, Note_on_c, 0, 72, 31
1, 284259, Poly_aftertouch_c, 0, 65, 127
1, 284267, Note_off_c, 0, 72, 49
1, 284291, Poly_aftertouch_c, 0, 65, 0
1, 284332, Poly_aftertouch_c, 0, 70, 0
1, 284449, Note_off_c, 0, 71, 31
1, 284473, Note_off_c, 0, 59, 58
1, 284495, Note_off_c, 0, 61, 56
1, 284532, Note_off_c, 0, 53, 33
1, 284635, Note_off_c, 0, 77, 40
1, 284734, Note_on_c, 0, 77, 65
1, 284739, Note_on_c, 0, 60, 64
1, 284741, Note_on_c, 0, 61, 55
1, 284741, Note_on_c, 0, 73, 62
1, 284745, Note_on_c, 0, 72, 57
1, 284746, Note_on_c, 0, 65, 52
1, 284751, Note_on_c, 0, 53, 52
1, 284761, Control_c, 0, 64, 85
1, 284775, Control_c, 0, 64, 71
1, 284790, Control_c, 0, 64, 70
1, 284805, Control_c, 0, 64, 78
1, 284820, Control_c, 0, 64, 94
1, 284835, Control_c, 0, 64, 127
1, 284862, Note_off_c, 0, 77, 62
1, 284870, Note_off_c, 0, 65, 36
1, 284891, Note_off_c, 0, 72, 62
1, 284894, Note_off_c, 0, 53, 54
1, 284911, Note_off_c, 0, 61, 56
1, 284915, Note_off_c, 0, 60, 62
1, 284934, Note_off_c, 0, 73, 34
1, 285101, Control_c, 0, 67, 122
1, 285116, Control_c, 0, 67, 114
1, 285131, Control_c, 0, 67, 108
1, 285145, Control_c, 0, 67, 103
1, 285160, Control_c, 0, 67, 93
1, 285175, Control_c, 0, 67, 76
1, 285190, Control_c, 0, 67, 59
1, 285205, Control_c, 0, 67, 47
1, 285219, Control_c, 0, 67, 40
1, 285234, Control_c, 0, 67, 36
1, 285235, Note_on_c, 0, 61, 71
1, 285237, Note_on_c, 0, 73, 72
1, 285240, Note_on_c, 0, 77, 74
1, 285246, Note_on_c, 0, 53, 60
1, 285249, Control_c, 0, 67, 35
1, 285252, Note_on_c, 0, 65, 64
1, 285279, Note_off_c, 0, 65, 68
1, 285280, Note_off_c, 0, 61, 58
1, 285287, Note_off_c, 0, 53, 63
1, 285291, Note_off_c, 0, 77, 64
1, 285309, Note_off_c, 0, 73, 62
1, 285390, Control_c, 0, 67, 36
1, 285405, Control_c, 0, 67, 37
1, 285457, Note_on_c, 0, 44, 61
1, 285465, Control_c, 0, 67, 37
1, 285480, Note_on_c, 0, 49, 75
1, 285480, Control_c, 0, 67, 38
1, 285495, Control_c, 0, 64, 90
1, 285499, Note_on_c, 0, 53, 70
1, 285510, Control_c, 0, 64, 60
1, 285524, Control_c, 0, 64, 0
1, 285524, Control_c, 0, 67, 39
1, 285526, Note_on_c, 0, 56, 77
1, 285544, Note_on_c, 0, 80, 93
1, 285546, Note_on_c, 0, 68, 81
1, 285546, Note_on_c, 0, 77, 71
1, 285553, Note_off_c, 0, 44, 64
1, 285554, Control_c, 0, 67, 40
1, 285556, Note_on_c, 0, 73, 75
1, 285569, Note_off_c, 0, 49, 65
1, 285569, Control_c, 0, 64, 55
1, 285569, Control_c, 0, 67, 42
1, 285578, Note_off_c, 0, 53, 63
1, 285584, Control_c, 0, 64, 71
1, 285584, Control_c, 0, 67, 43
1, 285590, Note_off_c, 0, 68, 62
1, 285598, Control_c, 0, 64, 96
1, 285598, Control_c, 0, 67, 45
1, 285601, Note_off_c, 0, 56, 62
1, 285609, Note_off_c, 0, 73, 60
1, 285610, Note_off_c, 0, 77, 63
1, 285613, Control_c, 0, 64, 127
1, 285613, Control_c, 0, 67, 45
1, 285628, Note_off_c, 0, 80, 63
1, 285628, Control_c, 0, 67, 46
1, 285657, Control_c, 0, 67, 47
1, 285672, Control_c, 0, 67, 47
1, 285717, Control_c, 0, 67, 48
1, 285732, Control_c, 0, 67, 48
1, 285762, Control_c, 0, 67, 49
1, 285776, Control_c, 0, 67, 50
1, 285791, Control_c, 0, 67, 52
1, 285806, Control_c, 0, 67, 53
1, 285821, Control_c, 0, 67, 54
1, 285830, Note_on_c, 0, 70, 72
1, 285831, Note_on_c, 0, 85, 82
1, 285836, Control_c, 0, 67, 54
1, 285838, Note_on_c, 0, 63, 67
1, 285839, Note_on_c, 0, 73, 70
1, 285842, Note_on_c, 0, 82, 72
1, 285844, Note_on_c, 0, 75, 63
1, 285846, Note_on_c, 0, 61, 48
1, 285850, Control_c, 0, 64, 107
1, 285850, Control_c, 0, 67, 55
1, 285865, Control_c, 0, 64, 82
1, 285865, Control_c, 0, 67, 56
1, 285880, Control_c, 0, 64, 77
1, 285880, Control_c, 0, 67, 56
1, 285895, Control_c, 0, 64, 83
1, 285910, Control_c, 0, 64, 105
1, 285910, Control_c, 0, 67, 57
1, 285924, Control_c, 0, 64, 127
1, 285924, Control_c, 0, 67, 57
1, 285939, Control_c, 0, 67, 60
1, 285947, Note_off_c, 0, 73, 59
1, 285954, Control_c, 0, 67, 65
1, 285969, Control_c, 0, 67, 68
1, 285983, Control_c, 0, 67, 69
1, 286005, Note_off_c, 0, 85, 57
1, 286016, Note_off_c, 0, 75, 62
1, 286033, Note_off_c, 0, 63, 32
1, 286051, Note_off_c, 0, 82, 51
1, 286103, Note_off_c, 0, 61, 31
1, 286131, Note_off_c, 0, 70, 28
1, 286154, Control_c, 0, 67, 69
1, 286377, Control_c, 0, 67, 70
1, 286466, Control_c, 0, 67, 70
1, 286510, Control_c, 0, 67, 71
1, 286515, Note_on_c, 0, 64, 48
1, 286522, Note_on_c, 0, 85, 55
1, 286523, Note_on_c, 0, 70, 54
1, 286525, Note_on_c, 0, 82, 63
1, 286527, Note_on_c, 0, 73, 55
1, 286534, Note_on_c, 0, 76, 54
1, 286540, Note_on_c, 0, 61, 44
1, 286540, Control_c, 0, 64, 86
1, 286540, Control_c, 0, 67, 71
1, 286555, Control_c, 0, 64, 74
1, 286555, Control_c, 0, 67, 75
1, 286570, Control_c, 0, 64, 72
1, 286570, Control_c, 0, 67, 78
1, 286585, Control_c, 0, 64, 76
1, 286585, Control_c, 0, 67, 80
1, 286599, Control_c, 0, 64, 84
1, 286599, Control_c, 0, 67, 81
1, 286614, Control_c, 0, 64, 95
1, 286614, Control_c, 0, 67, 85
1, 286629, Control_c, 0, 64, 115
1, 286629, Control_c, 0, 67, 88
1, 286644, Control_c, 0, 64, 127
1, 286644, Control_c, 0, 67, 92
1, 286645, Note_off_c, 0, 85, 55
1, 286659, Control_c, 0, 67, 95
1, 286663, Note_off_c, 0, 73, 37
1, 286673, Control_c, 0, 67, 97
1, 286692, Note_off_c, 0, 70, 34
1, 286741, Note_off_c, 0, 76, 47
1, 286763, Note_off_c, 0, 61, 34
1, 286799, Control_c, 0, 67, 99
1, 286811, Note_off_c, 0, 64, 36
1, 286844, Control_c, 0, 67, 101
1, 286859, Note_off_c, 0, 82, 42
1, 286874, Control_c, 0, 67, 103
1, 286977, Control_c, 0, 67, 105
1, 287006, Control_c, 0, 67, 108
1, 287022, Control_c, 0, 67, 110
1, 287052, Control_c, 0, 67, 114
1, 287082, Control_c, 0, 67, 117
1, 287111, Control_c, 0, 67, 120
1, 287126, Control_c, 0, 67, 122
1, 287141, Control_c, 0, 67, 124
1, 287156, Control_c, 0, 67, 126
1, 287336, Note_on_c, 0, 61, 37
1, 287341, Note_on_c, 0, 85, 48
1, 287344, Note_on_c, 0, 65, 48
1, 287349, Note_on_c, 0, 77, 41
1, 287352, Note_on_c, 0, 70, 41
1, 287357, Note_on_c, 0, 73, 39
1, 287358, Note_on_c, 0, 82, 46
1, 287363, Control_c, 0, 64, 103
1, 287377, Control_c, 0, 64, 94
1, 287407, Control_c, 0, 64, 95
1, 287422, Control_c, 0, 64, 99
1, 287430, Note_off_c, 0, 73, 36
1, 287432, Note_off_c, 0, 85, 59
1, 287437, Note_off_c, 0, 70, 55
1, 287437, Control_c, 0, 64, 108
1, 287452, Control_c, 0, 64, 127
1, 287488, Note_off_c, 0, 77, 43
1, 287491, Note_off_c, 0, 82, 45
1, 287500, Note_off_c, 0, 65, 37
1, 287551, Note_off_c, 0, 61, 33
1, 287949, Control_c, 0, 64, 119
1, 287964, Control_c, 0, 64, 110
1, 287978, Control_c, 0, 64, 103
1, 287993, Control_c, 0, 64, 99
1, 288008, Control_c, 0, 64, 97
1, 288023, Control_c, 0, 64, 95
1, 288038, Control_c, 0, 64, 94
1, 288052, Control_c, 0, 64, 91
1, 288067, Control_c, 0, 64, 88
1, 288082, Control_c, 0, 64, 79
1, 288089, Note_on_c, 0, 46, 50
1, 288097, Control_c, 0, 64, 67
1, 288105, Note_on_c, 0, 34, 41
1, 288112, Control_c, 0, 64, 51
1, 288126, Control_c, 0, 64, 0
1, 288185, Control_c, 0, 64, 47
1, 288200, Control_c, 0, 64, 64
1, 288215, Control_c, 0, 64, 75
1, 288230, Control_c, 0, 64, 81
1, 288245, Control_c, 0, 64, 83
1, 288297, Control_c, 0, 64, 83
1, 288312, Control_c, 0, 64, 84
1, 288326, Control_c, 0, 64, 85
1, 288385, Control_c, 0, 64, 85
1, 288415, Control_c, 0, 64, 86
1, 288430, Control_c, 0, 64, 86
1, 288445, Control_c, 0, 64, 87
1, 288459, Control_c, 0, 64, 87
1, 288474, Control_c, 0, 64, 88
1, 288489, Control_c, 0, 64, 88
1, 288504, Control_c, 0, 64, 89
1, 288505, Note_on_c, 0, 58, 47
1, 288519, Control_c, 0, 64, 90
1, 288526, Note_off_c, 0, 46, 41
1, 288534, Control_c, 0, 64, 92
1, 288549, Control_c, 0, 64, 93
1, 288564, Control_c, 0, 64, 95
1, 288578, Control_c, 0, 64, 97
1, 288593, Control_c, 0, 64, 100
1, 288608, Control_c, 0, 64, 102
1, 288612, Note_on_c, 0, 49, 36
1, 288623, Control_c, 0, 64, 104
1, 288638, Control_c, 0, 64, 107
1, 288653, Control_c, 0, 64, 112
1, 288662, Note_off_c, 0, 58, 37
1, 288668, Control_c, 0, 64, 116
1, 288683, Control_c, 0, 64, 127
1, 288718, Note_on_c, 0, 53, 37
1, 288728, Note_off_c, 0, 49, 36
1, 288774, Note_on_c, 0, 45, 57
1, 288787, Note_on_c, 0, 33, 52
1, 288796, Note_on_c, 0, 58, 53
1, 288838, Note_off_c, 0, 53, 51
1, 288841, Note_off_c, 0, 34, 35
1, 288880, Note_off_c, 0, 45, 58
1, 288907, Note_on_c, 0, 48, 42
1, 288943, Note_off_c, 0, 58, 55
1, 288961, Note_off_c, 0, 48, 56
1, 289009, Note_on_c, 0, 52, 44
1, 289053, Note_off_c, 0, 33, 51
1, 289074, Note_on_c, 0, 42, 63
1, 289081, Note_on_c, 0, 30, 57
1, 289093, Note_off_c, 0, 52, 56
1, 289097, Note_on_c, 0, 58, 55
1, 289106, Control_c, 0, 64, 82
1, 289120, Control_c, 0, 64, 65
1, 289135, Control_c, 0, 64, 50
1, 289150, Control_c, 0, 64, 46
1, 289165, Control_c, 0, 64, 55
1, 289180, Control_c, 0, 64, 67
1, 289194, Control_c, 0, 64, 76
1, 289202, Note_on_c, 0, 47, 33
1, 289209, Control_c, 0, 64, 85
1, 289224, Control_c, 0, 64, 91
1, 289234, Note_off_c, 0, 58, 57
1, 289239, Control_c, 0, 64, 92
1, 289254, Control_c, 0, 64, 93
1, 289257, Note_off_c, 0, 47, 45
1, 289270, Note_on_c, 0, 51, 55
1, 289283, Control_c, 0, 64, 93
1, 289298, Control_c, 0, 64, 94
1, 289313, Control_c, 0, 64, 94
1, 289327, Control_c, 0, 64, 95
1, 289342, Control_c, 0, 64, 97
1, 289352, Note_on_c, 0, 58, 66
1, 289357, Control_c, 0, 64, 100
1, 289366, Note_off_c, 0, 51, 54
1, 289372, Control_c, 0, 64, 104
1, 289387, Control_c, 0, 64, 110
1, 289400, Note_off_c, 0, 42, 49
1, 289401, Control_c, 0, 64, 117
1, 289417, Control_c, 0, 64, 127
1, 289440, Note_on_c, 0, 48, 50
1, 289455, Note_off_c, 0, 58, 57
1, 289464, Note_off_c, 0, 30, 36
1, 289487, Note_off_c, 0, 48, 61
1, 289509, Note_on_c, 0, 52, 55
1, 289564, Note_on_c, 0, 31, 68
1, 289564, Note_on_c, 0, 43, 74
1, 289565, Control_c, 0, 64, 94
1, 289579, Note_on_c, 0, 58, 69
1, 289580, Control_c, 0, 64, 81
1, 289586, Note_off_c, 0, 52, 61
1, 289610, Control_c, 0, 64, 84
1, 289625, Control_c, 0, 64, 91
1, 289640, Control_c, 0, 64, 101
1, 289649, Note_off_c, 0, 31, 58
1, 289655, Control_c, 0, 64, 110
1, 289660, Note_on_c, 0, 49, 53
1, 289669, Note_off_c, 0, 43, 62
1, 289670, Control_c, 0, 64, 116
1, 289685, Control_c, 0, 64, 127
1, 289723, Note_off_c, 0, 49, 58
1, 289733, Note_on_c, 0, 53, 56
1, 289734, Note_off_c, 0, 58, 52
1, 289825, Note_off_c, 0, 53, 60
1, 289854, Note_on_c, 0, 34, 61
1, 289855, Note_on_c, 0, 46, 65
1, 289869, Control_c, 0, 64, 86
1, 289884, Control_c, 0, 64, 65
1, 289899, Control_c, 0, 64, 40
1, 289914, Control_c, 0, 64, 0
1, 289958, Control_c, 0, 64, 51
1, 289973, Control_c, 0, 64, 66
1, 289988, Control_c, 0, 64, 73
1, 290003, Control_c, 0, 64, 75
1, 290047, Control_c, 0, 64, 76
1, 290062, Control_c, 0, 64, 76
1, 290076, Control_c, 0, 64, 78
1, 290091, Control_c, 0, 64, 80
1, 290099, Note_on_c, 0, 58, 57
1, 290106, Control_c, 0, 64, 83
1, 290121, Control_c, 0, 64, 86
1, 290136, Control_c, 0, 64, 90
1, 290138, Note_off_c, 0, 46, 54
1, 290150, Control_c, 0, 64, 94
1, 290165, Control_c, 0, 64, 101
1, 290176, Note_on_c, 0, 48, 56
1, 290180, Control_c, 0, 64, 115
1, 290194, Note_off_c, 0, 58, 59
1, 290195, Control_c, 0, 64, 127
1, 290231, Note_off_c, 0, 48, 55
1, 290239, Note_on_c, 0, 52, 50
1, 290270, Control_c, 0, 64, 117
1, 290301, Note_off_c, 0, 52, 59
1, 290312, Note_on_c, 0, 45, 79
1, 290314, Note_on_c, 0, 58, 66
1, 290314, Control_c, 0, 64, 124
1, 290316, Note_on_c, 0, 33, 70
1, 290329, Control_c, 0, 64, 127
1, 290340, Note_off_c, 0, 34, 58
1, 290379, Note_off_c, 0, 45, 61
1, 290407, Note_on_c, 0, 47, 53
1, 290408, Note_off_c, 0, 33, 57
1, 290427, Note_off_c, 0, 58, 57
1, 290456, Note_off_c, 0, 47, 60
1, 290466, Note_on_c, 0, 51, 54
1, 290552, Note_off_c, 0, 51, 59
1, 290567, Note_on_c, 0, 58, 65
1, 290567, Note_on_c, 0, 41, 74
1, 290573, Control_c, 0, 64, 92
1, 290576, Note_on_c, 0, 29, 71
1, 290588, Control_c, 0, 64, 70
1, 290603, Control_c, 0, 64, 53
1, 290618, Control_c, 0, 64, 0
1, 290647, Control_c, 0, 64, 35
1, 290662, Control_c, 0, 64, 58
1, 290668, Note_on_c, 0, 46, 55
1, 290677, Control_c, 0, 64, 71
1, 290692, Control_c, 0, 64, 80
1, 290697, Note_off_c, 0, 58, 58
1, 290707, Control_c, 0, 64, 86
1, 290714, Note_off_c, 0, 46, 55
1, 290722, Control_c, 0, 64, 86
1, 290737, Note_on_c, 0, 50, 55
1, 290752, Control_c, 0, 64, 87
1, 290766, Note_off_c, 0, 41, 58
1, 290766, Control_c, 0, 64, 88
1, 290781, Control_c, 0, 64, 89
1, 290796, Control_c, 0, 64, 91
1, 290811, Control_c, 0, 64, 94
1, 290812, Note_on_c, 0, 58, 68
1, 290814, Note_off_c, 0, 50, 59
1, 290818, Note_off_c, 0, 29, 61
1, 290826, Control_c, 0, 64, 98
1, 290840, Control_c, 0, 64, 105
1, 290855, Control_c, 0, 64, 120
1, 290870, Control_c, 0, 64, 127
1, 290895, Note_off_c, 0, 58, 56
1, 290902, Note_on_c, 0, 47, 57
1, 290966, Note_off_c, 0, 47, 48
1, 290988, Note_on_c, 0, 51, 58
1, 291003, Control_c, 0, 64, 101
1, 291019, Control_c, 0, 64, 77
1, 291025, Note_on_c, 0, 30, 71
1, 291027, Note_on_c, 0, 42, 74
1, 291034, Control_c, 0, 64, 69
1, 291044, Note_on_c, 0, 58, 65
1, 291049, Control_c, 0, 64, 69
1, 291063, Control_c, 0, 64, 76
1, 291078, Control_c, 0, 64, 89
1, 291092, Control_c, 0, 64, 124
1, 291103, Note_off_c, 0, 30, 61
1, 291104, Note_off_c, 0, 42, 62
1, 291107, Note_off_c, 0, 51, 35
1, 291107, Control_c, 0, 64, 127
1, 291127, Note_on_c, 0, 48, 61
1, 291181, Note_off_c, 0, 48, 54
1, 291262, Note_off_c, 0, 58, 50
1, 291282, Poly_aftertouch_c, 0, 52, 127
1, 291320, Poly_aftertouch_c, 0, 52, 0
1, 291321, Control_c, 0, 64, 75
1, 291327, Note_on_c, 0, 46, 77
1, 291334, Note_on_c, 0, 34, 59
1, 291336, Control_c, 0, 64, 54
1, 291351, Control_c, 0, 64, 0
1, 291381, Control_c, 0, 64, 41
1, 291389, Note_on_c, 0, 48, 53
1, 291396, Control_c, 0, 64, 61
1, 291411, Control_c, 0, 64, 71
1, 291425, Control_c, 0, 64, 78
1, 291440, Note_off_c, 0, 48, 61
1, 291440, Control_c, 0, 64, 82
1, 291455, Control_c, 0, 64, 82
1, 291464, Note_on_c, 0, 52, 52
1, 291470, Control_c, 0, 64, 85
1, 291485, Control_c, 0, 64, 87
1, 291500, Control_c, 0, 64, 90
1, 291515, Control_c, 0, 64, 94
1, 291526, Note_on_c, 0, 58, 76
1, 291529, Control_c, 0, 64, 101
1, 291539, Note_off_c, 0, 52, 61
1, 291544, Control_c, 0, 64, 127
1, 291545, Note_off_c, 0, 46, 57
1, 291610, Note_on_c, 0, 49, 63
1, 291670, Note_off_c, 0, 49, 62
1, 291676, Note_on_c, 0, 53, 61
1, 291721, Control_c, 0, 64, 115
1, 291727, Note_on_c, 0, 45, 82
1, 291730, Note_on_c, 0, 33, 77
1, 291736, Control_c, 0, 64, 79
1, 291737, Note_on_c, 0, 59, 78
1, 291748, Note_off_c, 0, 34, 33
1, 291748, Note_off_c, 0, 53, 63
1, 291751, Control_c, 0, 64, 71
1, 291766, Control_c, 0, 64, 74
1, 291778, Note_off_c, 0, 58, 50
1, 291781, Control_c, 0, 64, 83
1, 291789, Note_off_c, 0, 45, 63
1, 291795, Control_c, 0, 64, 105
1, 291811, Control_c, 0, 64, 127
1, 291816, Note_off_c, 0, 33, 61
1, 291832, Note_on_c, 0, 50, 57
1, 291880, Note_off_c, 0, 50, 59
1, 291910, Note_on_c, 0, 54, 57
1, 291947, Note_off_c, 0, 59, 57
1, 291960, Control_c, 0, 64, 102
1, 291961, Note_on_c, 0, 40, 76
1, 291965, Note_on_c, 0, 28, 73
1, 291974, Note_off_c, 0, 54, 63
1, 291975, Control_c, 0, 64, 62
1, 291976, Note_on_c, 0, 58, 71
1, 291990, Control_c, 0, 64, 0
1, 292042, Control_c, 0, 64, 50
1, 292057, Note_on_c, 0, 49, 63
1, 292057, Control_c, 0, 64, 68
1, 292072, Control_c, 0, 64, 84
1, 292073, Note_off_c, 0, 28, 61
1, 292080, Note_off_c, 0, 40, 60
1, 292087, Control_c, 0, 64, 95
1, 292105, Note_off_c, 0, 49, 60
1, 292115, Note_off_c, 0, 58, 61
1, 292116, Control_c, 0, 64, 100
1, 292126, Note_on_c, 0, 53, 62
1, 292131, Control_c, 0, 64, 111
1, 292145, Control_c, 0, 64, 127
1, 292192, Note_on_c, 0, 57, 84
1, 292205, Note_off_c, 0, 53, 62
1, 292263, Note_on_c, 0, 48, 65
1, 292313, Note_on_c, 0, 52, 66
1, 292317, Note_off_c, 0, 48, 58
1, 292318, Note_off_c, 0, 57, 55
1, 292353, Control_c, 0, 64, 77
1, 292367, Control_c, 0, 64, 45
1, 292370, Note_on_c, 0, 41, 84
1, 292374, Note_on_c, 0, 29, 83
1, 292382, Control_c, 0, 64, 0
1, 292388, Note_on_c, 0, 56, 78
1, 292391, Note_off_c, 0, 52, 63
1, 292397, Control_c, 0, 64, 39
1, 292412, Control_c, 0, 64, 63
1, 292427, Control_c, 0, 64, 80
1, 292442, Control_c, 0, 64, 110
1, 292457, Control_c, 0, 64, 127
1, 292457, Note_off_c, 0, 29, 60
1, 292468, Note_on_c, 0, 47, 60
1, 292478, Note_off_c, 0, 41, 63
1, 292522, Note_off_c, 0, 47, 58
1, 292532, Note_on_c, 0, 51, 63
1, 292540, Note_off_c, 0, 56, 53
1, 292596, Note_on_c, 0, 34, 75
1, 292597, Note_on_c, 0, 46, 81
1, 292600, Note_off_c, 0, 51, 63
1, 292605, Note_on_c, 0, 57, 81
1, 292605, Control_c, 0, 64, 115
1, 292621, Control_c, 0, 64, 67
1, 292635, Control_c, 0, 64, 0
1, 292658, Note_off_c, 0, 46, 64
1, 292667, Note_off_c, 0, 34, 61
1, 292680, Control_c, 0, 64, 55
1, 292692, Note_on_c, 0, 48, 42
1, 292694, Control_c, 0, 64, 71
1, 292709, Control_c, 0, 64, 81
1, 292722, Note_off_c, 0, 48, 59
1, 292724, Control_c, 0, 64, 85
1, 292743, Note_on_c, 0, 52, 62
1, 292757, Note_off_c, 0, 57, 53
1, 292803, Note_on_c, 0, 58, 92
1, 292821, Control_c, 0, 64, 85
1, 292826, Note_off_c, 0, 52, 62
1, 292896, Note_on_c, 0, 49, 62
1, 292934, Note_off_c, 0, 49, 62
1, 292952, Note_on_c, 0, 53, 67
1, 292968, Control_c, 0, 64, 82
1, 292983, Control_c, 0, 64, 67
1, 292997, Note_on_c, 0, 45, 86
1, 292998, Control_c, 0, 64, 34
1, 293003, Note_on_c, 0, 33, 80
1, 293013, Control_c, 0, 64, 0
1, 293022, Note_on_c, 0, 59, 82
1, 293034, Note_off_c, 0, 53, 63
1, 293042, Control_c, 0, 64, 41
1, 293057, Control_c, 0, 64, 64
1, 293066, Note_off_c, 0, 58, 59
1, 293072, Control_c, 0, 64, 79
1, 293079, Note_off_c, 0, 45, 62
1, 293086, Control_c, 0, 64, 88
1, 293101, Control_c, 0, 64, 88
1, 293113, Note_on_c, 0, 50, 62
1, 293119, Note_off_c, 0, 33, 59
1, 293131, Control_c, 0, 64, 90
1, 293146, Control_c, 0, 64, 91
1, 293152, Note_off_c, 0, 50, 61
1, 293160, Control_c, 0, 64, 92
1, 293175, Control_c, 0, 64, 93
1, 293185, Note_on_c, 0, 54, 58
1, 293190, Control_c, 0, 64, 95
1, 293235, Control_c, 0, 64, 90
1, 293236, Note_off_c, 0, 59, 59
1, 293247, Note_on_c, 0, 41, 66
1, 293250, Control_c, 0, 64, 70
1, 293252, Note_on_c, 0, 58, 71
1, 293253, Note_off_c, 0, 54, 63
1, 293254, Note_on_c, 0, 28, 76
1, 293265, Control_c, 0, 64, 0
1, 293268, Note_on_c, 0, 40, 57
1, 293303, Note_off_c, 0, 28, 62
1, 293306, Note_off_c, 0, 40, 33
1, 293309, Control_c, 0, 64, 53
1, 293324, Control_c, 0, 64, 71
1, 293330, Note_off_c, 0, 41, 55
1, 293330, Note_on_c, 0, 49, 63
1, 293339, Control_c, 0, 64, 86
1, 293354, Control_c, 0, 64, 96
1, 293390, Note_off_c, 0, 49, 61
1, 293414, Note_on_c, 0, 53, 59
1, 293414, Note_off_c, 0, 58, 61
1, 293478, Note_on_c, 0, 57, 82
1, 293494, Note_off_c, 0, 53, 62
1, 293559, Note_on_c, 0, 48, 57
1, 293605, Note_off_c, 0, 48, 58
1, 293643, Control_c, 0, 64, 95
1, 293649, Note_on_c, 0, 52, 61
1, 293658, Control_c, 0, 64, 81
1, 293673, Control_c, 0, 64, 62
1, 293688, Control_c, 0, 64, 0
1, 293691, Note_off_c, 0, 57, 33
1, 293698, Note_on_c, 0, 29, 64
1, 293711, Note_on_c, 0, 41, 64
1, 293714, Note_on_c, 0, 56, 75
1, 293721, Note_off_c, 0, 52, 62
1, 293732, Control_c, 0, 64, 52
1, 293747, Control_c, 0, 64, 68
1, 293755, Note_off_c, 0, 29, 63
1, 293762, Control_c, 0, 64, 82
1, 293777, Note_off_c, 0, 41, 60
1, 293777, Control_c, 0, 64, 86
1, 293791, Control_c, 0, 64, 86
1, 293810, Note_on_c, 0, 47, 44
1, 293848, Note_off_c, 0, 47, 52
1, 293862, Note_off_c, 0, 56, 56
1, 293865, Note_on_c, 0, 51, 55
1, 293909, Control_c, 0, 64, 87
1, 293939, Control_c, 0, 64, 87
1, 293967, Note_on_c, 0, 57, 69
1, 293969, Control_c, 0, 64, 86
1, 293971, Note_off_c, 0, 51, 51
1, 293983, Control_c, 0, 64, 74
1, 293989, Note_on_c, 0, 42, 56
1, 293998, Control_c, 0, 64, 56
1, 294007, Note_on_c, 0, 34, 41
1, 294013, Control_c, 0, 64, 0
1, 294058, Control_c, 0, 64, 57
1, 294073, Control_c, 0, 64, 70
1, 294076, Note_on_c, 0, 51, 57
1, 294087, Control_c, 0, 64, 78
1, 294102, Control_c, 0, 64, 79
1, 294123, Note_off_c, 0, 51, 62
1, 294158, Note_on_c, 0, 50, 61
1, 294202, Note_off_c, 0, 50, 60
1, 294212, Note_on_c, 0, 41, 60
1, 294213, Note_off_c, 0, 42, 59
1, 294236, Control_c, 0, 64, 80
1, 294251, Control_c, 0, 64, 80
1, 294266, Control_c, 0, 64, 81
1, 294281, Control_c, 0, 64, 81
1, 294302, Control_c, 0, 64, 83
1, 294317, Note_off_c, 0, 57, 58
1, 294317, Control_c, 0, 64, 86
1, 294322, Poly_aftertouch_c, 0, 49, 0
1, 294326, Note_on_c, 0, 53, 70
1, 294332, Control_c, 0, 64, 90
1, 294347, Control_c, 0, 64, 95
1, 294362, Control_c, 0, 64, 101
1, 294377, Control_c, 0, 64, 104
1, 294377, Note_off_c, 0, 53, 61
1, 294380, Note_on_c, 0, 58, 67
1, 294418, Note_off_c, 0, 41, 51
1, 294421, Control_c, 0, 64, 87
1, 294436, Control_c, 0, 64, 69
1, 294442, Note_on_c, 0, 40, 60
1, 294451, Control_c, 0, 64, 52
1, 294461, Note_on_c, 0, 59, 64
1, 294465, Control_c, 0, 64, 38
1, 294480, Control_c, 0, 64, 49
1, 294495, Control_c, 0, 64, 62
1, 294499, Note_off_c, 0, 58, 63
1, 294510, Control_c, 0, 64, 69
1, 294521, Note_on_c, 0, 50, 68
1, 294525, Control_c, 0, 64, 73
1, 294539, Control_c, 0, 64, 73
1, 294585, Note_off_c, 0, 50, 62
1, 294617, Note_on_c, 0, 49, 57
1, 294643, Control_c, 0, 64, 74
1, 294648, Note_off_c, 0, 49, 65
1, 294657, Control_c, 0, 64, 74
1, 294672, Control_c, 0, 64, 75
1, 294676, Note_on_c, 0, 39, 67
1, 294687, Control_c, 0, 64, 75
1, 294690, Note_on_c, 0, 48, 57
1, 294690, Note_off_c, 0, 59, 63
1, 294717, Control_c, 0, 64, 76
1, 294719, Note_off_c, 0, 40, 38
1, 294722, Note_off_c, 0, 48, 61
1, 294731, Control_c, 0, 64, 78
1, 294746, Control_c, 0, 64, 81
1, 294754, Note_on_c, 0, 54, 70
1, 294761, Control_c, 0, 64, 85
1, 294776, Control_c, 0, 64, 87
1, 294791, Control_c, 0, 64, 90
1, 294802, Note_off_c, 0, 54, 61
1, 294806, Control_c, 0, 64, 95
1, 294809, Note_on_c, 0, 59, 64
1, 294821, Control_c, 0, 64, 102
1, 294836, Control_c, 0, 64, 107
1, 294851, Control_c, 0, 64, 102
1, 294861, Note_on_c, 0, 38, 72
1, 294865, Note_on_c, 0, 60, 81
1, 294865, Control_c, 0, 64, 80
1, 294877, Note_off_c, 0, 39, 55
1, 294879, Note_off_c, 0, 59, 63
1, 294880, Control_c, 0, 64, 61
1, 294895, Control_c, 0, 64, 0
1, 294925, Control_c, 0, 64, 38
1, 294934, Note_on_c, 0, 56, 75
1, 294939, Control_c, 0, 64, 58
1, 294954, Control_c, 0, 64, 69
1, 294969, Control_c, 0, 64, 74
1, 294976, Note_off_c, 0, 60, 62
1, 294984, Control_c, 0, 64, 75
1, 294999, Control_c, 0, 64, 76
1, 295009, Note_on_c, 0, 54, 67
1, 295015, Control_c, 0, 64, 77
1, 295015, Control_c, 0, 67, 124
1, 295020, Note_off_c, 0, 56, 59
1, 295036, Control_c, 0, 64, 78
1, 295036, Control_c, 0, 67, 114
1, 295050, Note_off_c, 0, 54, 66
1, 295051, Control_c, 0, 67, 101
1, 295058, Note_off_c, 0, 34, 47
1, 295066, Control_c, 0, 64, 74
1, 295066, Control_c, 0, 67, 87
1, 295075, Note_on_c, 0, 53, 68
1, 295076, Note_off_c, 0, 38, 61
1, 295077, Note_on_c, 0, 37, 75
1, 295081, Control_c, 0, 64, 70
1, 295081, Control_c, 0, 67, 72
1, 295095, Control_c, 0, 64, 70
1, 295095, Control_c, 0, 67, 57
1, 295110, Control_c, 0, 64, 71
1, 295110, Control_c, 0, 67, 38
1, 295125, Control_c, 0, 64, 72
1, 295125, Control_c, 0, 67, 0
1, 295140, Control_c, 0, 64, 74
1, 295143, Note_off_c, 0, 53, 60
1, 295149, Note_on_c, 0, 58, 67
1, 295155, Control_c, 0, 64, 74
1, 295169, Note_on_c, 0, 34, 84
1, 295186, Note_off_c, 0, 37, 62
1, 295214, Control_c, 0, 64, 73
1, 295229, Control_c, 0, 64, 66
1, 295232, Note_off_c, 0, 58, 63
1, 295238, Note_on_c, 0, 61, 68
1, 295244, Control_c, 0, 64, 49
1, 295259, Control_c, 0, 64, 0
1, 295348, Control_c, 0, 64, 45
1, 295357, Note_off_c, 0, 61, 63
1, 295360, Note_on_c, 0, 63, 74
1, 295362, Control_c, 0, 64, 64
1, 295377, Control_c, 0, 64, 70
1, 295392, Control_c, 0, 64, 72
1, 295407, Note_on_c, 0, 49, 68
1, 295436, Control_c, 0, 64, 72
1, 295444, Note_on_c, 0, 58, 64
1, 295451, Note_off_c, 0, 34, 64
1, 295466, Control_c, 0, 64, 73
1, 295480, Control_c, 0, 64, 73
1, 295510, Control_c, 0, 64, 74
1, 295527, Note_off_c, 0, 58, 59
1, 295533, Note_on_c, 0, 56, 57
1, 295533, Note_off_c, 0, 63, 57
1, 295540, Control_c, 0, 64, 74
1, 295554, Control_c, 0, 64, 75
1, 295569, Control_c, 0, 64, 75
1, 295570, Note_off_c, 0, 56, 64
1, 295594, Note_on_c, 0, 55, 62
1, 295599, Control_c, 0, 64, 76
1, 295601, Note_on_c, 0, 48, 64
1, 295614, Control_c, 0, 64, 76
1, 295632, Note_off_c, 0, 55, 62
1, 295643, Control_c, 0, 64, 77
1, 295658, Control_c, 0, 64, 77
1, 295660, Note_on_c, 0, 58, 66
1, 295673, Control_c, 0, 64, 78
1, 295688, Control_c, 0, 64, 79
1, 295703, Control_c, 0, 64, 80
1, 295718, Control_c, 0, 64, 82
1, 295722, Note_on_c, 0, 63, 74
1, 295724, Note_off_c, 0, 58, 63
1, 295733, Control_c, 0, 64, 83
1, 295748, Control_c, 0, 64, 85
1, 295756, Note_off_c, 0, 49, 29
1, 295762, Control_c, 0, 64, 86
1, 295784, Control_c, 0, 64, 85
1, 295795, Note_on_c, 0, 64, 81
1, 295799, Control_c, 0, 64, 76
1, 295802, Note_off_c, 0, 48, 64
1, 295808, Note_on_c, 0, 47, 68
1, 295815, Control_c, 0, 64, 67
1, 295830, Control_c, 0, 64, 61
1, 295831, Note_off_c, 0, 63, 62
1, 295845, Control_c, 0, 64, 62
1, 295859, Control_c, 0, 64, 66
1, 295874, Control_c, 0, 64, 70
1, 295889, Control_c, 0, 64, 73
1, 295897, Note_on_c, 0, 61, 62
1, 295903, Control_c, 0, 64, 74
1, 295918, Control_c, 0, 64, 75
1, 295933, Control_c, 0, 64, 78
1, 295948, Control_c, 0, 64, 83
1, 295959, Note_off_c, 0, 61, 62
1, 295963, Control_c, 0, 64, 87
1, 295965, Note_on_c, 0, 57, 35
1, 295985, Note_off_c, 0, 64, 61
1, 295992, Control_c, 0, 64, 84
1, 295995, Note_off_c, 0, 47, 59
1, 295999, Note_on_c, 0, 46, 73
1, 296007, Control_c, 0, 64, 80
1, 296015, Note_off_c, 0, 57, 60
1, 296018, Note_on_c, 0, 56, 72
1, 296022, Control_c, 0, 64, 80
1, 296037, Control_c, 0, 64, 81
1, 296052, Control_c, 0, 64, 86
1, 296067, Control_c, 0, 64, 93
1, 296082, Control_c, 0, 64, 98
1, 296098, Note_off_c, 0, 56, 61
1, 296111, Control_c, 0, 64, 100
1, 296117, Note_on_c, 0, 62, 66
1, 296126, Control_c, 0, 64, 106
1, 296141, Control_c, 0, 64, 124
1, 296148, Note_off_c, 0, 62, 62
1, 296155, Note_on_c, 0, 65, 72
1, 296156, Control_c, 0, 64, 127
1, 296200, Control_c, 0, 64, 90
1, 296201, Note_off_c, 0, 46, 63
1, 296204, Note_on_c, 0, 45, 75
1, 296215, Control_c, 0, 64, 67
1, 296216, Note_on_c, 0, 66, 84
1, 296218, Note_off_c, 0, 65, 66
1, 296230, Control_c, 0, 64, 48
1, 296244, Control_c, 0, 64, 47
1, 296259, Control_c, 0, 64, 60
1, 296274, Control_c, 0, 64, 71
1, 296275, Note_on_c, 0, 61, 76
1, 296289, Control_c, 0, 64, 85
1, 296303, Control_c, 0, 64, 97
1, 296333, Control_c, 0, 64, 100
1, 296348, Control_c, 0, 64, 108
1, 296355, Note_on_c, 0, 60, 68
1, 296363, Control_c, 0, 64, 127
1, 296368, Note_off_c, 0, 66, 60
1, 296372, Note_off_c, 0, 45, 60
1, 296395, Note_on_c, 0, 44, 75
1, 296406, Note_off_c, 0, 60, 64
1, 296406, Note_off_c, 0, 61, 58
1, 296424, Note_on_c, 0, 59, 73
1, 296427, Note_off_c, 0, 44, 68
1, 296472, Note_on_c, 0, 34, 84
1, 296480, Note_off_c, 0, 59, 60
1, 296492, Note_on_c, 0, 63, 75
1, 296511, Note_off_c, 0, 34, 62
1, 296555, Note_on_c, 0, 67, 79
1, 296565, Note_off_c, 0, 63, 62
1, 296608, Control_c, 0, 64, 83
1, 296623, Control_c, 0, 64, 65
1, 296638, Control_c, 0, 64, 63
1, 296645, Note_on_c, 0, 54, 91
1, 296648, Note_off_c, 0, 67, 67
1, 296653, Control_c, 0, 64, 73
1, 296654, Note_on_c, 0, 68, 89
1, 296667, Control_c, 0, 64, 102
1, 296682, Control_c, 0, 64, 127
1, 296730, Note_on_c, 0, 63, 77
1, 296793, Note_on_c, 0, 61, 70
1, 296793, Note_off_c, 0, 68, 61
1, 296809, Note_off_c, 0, 63, 51
1, 296849, Note_off_c, 0, 61, 61
1, 296864, Note_on_c, 0, 60, 71
1, 296868, Note_off_c, 0, 54, 59
1, 296869, Note_on_c, 0, 53, 71
1, 296918, Note_off_c, 0, 60, 64
1, 296932, Note_on_c, 0, 63, 75
1, 296981, Note_on_c, 0, 68, 74
1, 296984, Note_off_c, 0, 63, 63
1, 297037, Note_off_c, 0, 53, 62
1, 297046, Note_on_c, 0, 52, 86
1, 297048, Note_on_c, 0, 69, 84
1, 297062, Note_off_c, 0, 68, 65
1, 297067, Control_c, 0, 64, 81
1, 297082, Control_c, 0, 64, 70
1, 297097, Control_c, 0, 64, 72
1, 297112, Control_c, 0, 64, 82
1, 297127, Note_on_c, 0, 66, 76
1, 297127, Control_c, 0, 64, 114
1, 297141, Control_c, 0, 64, 127
1, 297162, Note_off_c, 0, 69, 65
1, 297198, Note_on_c, 0, 62, 74
1, 297201, Note_off_c, 0, 66, 64
1, 297244, Note_on_c, 0, 51, 86
1, 297248, Note_on_c, 0, 46, 84
1, 297255, Note_off_c, 0, 52, 58
1, 297259, Control_c, 0, 64, 120
1, 297262, Note_off_c, 0, 62, 62
1, 297282, Control_c, 0, 64, 69
1, 297284, Note_on_c, 0, 61, 74
1, 297297, Control_c, 0, 64, 41
1, 297312, Control_c, 0, 64, 0
1, 297327, Control_c, 0, 64, 52
1, 297341, Control_c, 0, 64, 70
1, 297342, Note_off_c, 0, 61, 62
1, 297355, Note_on_c, 0, 67, 64
1, 297356, Control_c, 0, 64, 114
1, 297371, Note_on_c, 0, 69, 75
1, 297371, Control_c, 0, 64, 127
1, 297401, Note_off_c, 0, 67, 61
1, 297441, Note_on_c, 0, 70, 88
1, 297442, Note_off_c, 0, 69, 66
1, 297448, Note_on_c, 0, 50, 84
1, 297454, Note_off_c, 0, 51, 62
1, 297494, Note_on_c, 0, 66, 82
1, 297548, Note_off_c, 0, 70, 64
1, 297566, Note_on_c, 0, 64, 69
1, 297589, Note_off_c, 0, 66, 58
1, 297590, Note_off_c, 0, 46, 60
1, 297604, Note_off_c, 0, 50, 57
1, 297607, Note_on_c, 0, 49, 82
1, 297619, Note_off_c, 0, 64, 64
1, 297633, Note_off_c, 0, 49, 70
1, 297641, Note_on_c, 0, 63, 77
1, 297665, Note_off_c, 0, 63, 70
1, 297706, Note_on_c, 0, 67, 84
1, 297708, Note_on_c, 0, 34, 92
1, 297736, Note_off_c, 0, 34, 66
1, 297758, Note_on_c, 0, 71, 86
1, 297772, Control_c, 0, 64, 103
1, 297778, Note_off_c, 0, 67, 64
1, 297787, Control_c, 0, 64, 65
1, 297801, Control_c, 0, 64, 0
1, 297818, Note_on_c, 0, 58, 101
1, 297825, Note_on_c, 0, 72, 82
1, 297831, Control_c, 0, 64, 50
1, 297846, Control_c, 0, 64, 81
1, 297861, Control_c, 0, 64, 127
1, 297883, Note_on_c, 0, 68, 82
1, 297905, Note_off_c, 0, 71, 31
1, 297915, Note_off_c, 0, 72, 65
1, 297959, Note_on_c, 0, 66, 71
1, 297981, Note_off_c, 0, 68, 62
1, 298004, Note_off_c, 0, 58, 61
1, 298010, Note_off_c, 0, 66, 63
1, 298021, Note_on_c, 0, 57, 85
1, 298036, Note_on_c, 0, 65, 75
1, 298076, Control_c, 0, 64, 124
1, 298090, Control_c, 0, 64, 127
1, 298094, Note_off_c, 0, 65, 62
1, 298113, Note_on_c, 0, 69, 79
1, 298141, Note_on_c, 0, 73, 72
1, 298164, Note_off_c, 0, 69, 61
1, 298186, Note_off_c, 0, 57, 64
1, 298200, Note_off_c, 0, 73, 64
1, 298210, Note_on_c, 0, 56, 95
1, 298213, Note_on_c, 0, 74, 80
1, 298215, Note_on_c, 0, 76, 68
1, 298232, Note_off_c, 0, 76, 64
1, 298273, Note_on_c, 0, 66, 86
1, 298292, Note_off_c, 0, 74, 60
1, 298311, Note_on_c, 0, 70, 27
1, 298338, Note_on_c, 0, 64, 76
1, 298347, Note_off_c, 0, 66, 62
1, 298350, Note_off_c, 0, 70, 51
1, 298360, Note_off_c, 0, 56, 59
1, 298389, Note_off_c, 0, 64, 65
1, 298403, Note_on_c, 0, 55, 63
1, 298419, Note_on_c, 0, 63, 62
1, 298422, Note_on_c, 0, 46, 81
1, 298437, Note_off_c, 0, 63, 65
1, 298446, Control_c, 0, 64, 74
1, 298461, Control_c, 0, 64, 46
1, 298476, Control_c, 0, 64, 34
1, 298478, Note_on_c, 0, 70, 75
1, 298491, Control_c, 0, 64, 54
1, 298495, Note_off_c, 0, 70, 64
1, 298505, Note_on_c, 0, 71, 64
1, 298505, Control_c, 0, 64, 74
1, 298520, Control_c, 0, 64, 127
1, 298556, Note_on_c, 0, 75, 77
1, 298565, Note_off_c, 0, 71, 65
1, 298635, Note_on_c, 0, 76, 93
1, 298636, Note_on_c, 0, 54, 79
1, 298639, Control_c, 0, 64, 72
1, 298654, Control_c, 0, 64, 49
1, 298657, Note_off_c, 0, 55, 63
1, 298664, Note_off_c, 0, 75, 64
1, 298669, Control_c, 0, 64, 44
1, 298684, Control_c, 0, 64, 62
1, 298698, Control_c, 0, 64, 93
1, 298713, Control_c, 0, 64, 127
1, 298723, Note_on_c, 0, 70, 63
1, 298756, Note_off_c, 0, 70, 0
1, 298756, Note_on_c, 0, 70, 34
1, 298795, Note_on_c, 0, 62, 77
1, 298805, Note_off_c, 0, 70, 62
1, 298937, Note_on_c, 0, 53, 76
1, 298938, Note_on_c, 0, 61, 85
1, 298957, Control_c, 0, 64, 79
1, 298961, Note_off_c, 0, 76, 57
1, 298972, Control_c, 0, 64, 0
1, 299018, Note_off_c, 0, 62, 61
1, 299027, Note_on_c, 0, 69, 67
1, 299048, Control_c, 0, 67, 21
1, 299107, Control_c, 0, 67, 23
1, 299112, Note_off_c, 0, 69, 62
1, 299122, Control_c, 0, 67, 25
1, 299136, Note_off_c, 0, 54, 27
1, 299149, Note_on_c, 0, 77, 78
1, 299196, Control_c, 0, 64, 45
1, 299196, Control_c, 0, 67, 27
1, 299210, Control_c, 0, 64, 60
1, 299225, Control_c, 0, 64, 67
1, 299240, Note_on_c, 0, 76, 86
1, 299240, Control_c, 0, 64, 72
1, 299254, Control_c, 0, 64, 75
1, 299259, Note_off_c, 0, 77, 64
1, 299269, Control_c, 0, 64, 83
1, 299269, Control_c, 0, 67, 29
1, 299272, Note_off_c, 0, 46, 63
1, 299284, Control_c, 0, 64, 127
1, 299299, Control_c, 0, 67, 31
1, 299313, Note_off_c, 0, 53, 61
1, 299334, Note_off_c, 0, 61, 60
1, 299373, Control_c, 0, 67, 32
1, 299388, Control_c, 0, 67, 34
1, 299390, Note_on_c, 0, 72, 57
1, 299403, Control_c, 0, 67, 39
1, 299418, Control_c, 0, 67, 42
1, 299433, Control_c, 0, 67, 44
1, 299443, Note_off_c, 0, 72, 61
1, 299447, Control_c, 0, 67, 45
1, 299462, Control_c, 0, 67, 45
1, 299471, Note_off_c, 0, 76, 58
1, 299477, Control_c, 0, 67, 46
1, 299489, Note_on_c, 0, 71, 54
1, 299492, Control_c, 0, 67, 48
1, 299507, Control_c, 0, 67, 51
1, 299566, Note_off_c, 0, 71, 45
1, 299584, Note_on_c, 0, 70, 53
1, 299602, Note_on_c, 0, 82, 93
1, 299648, Control_c, 0, 67, 50
1, 299659, Note_off_c, 0, 70, 59
1, 299684, Note_on_c, 0, 73, 64
1, 299692, Control_c, 0, 67, 50
1, 299707, Control_c, 0, 67, 49
1, 299722, Control_c, 0, 67, 48
1, 299736, Control_c, 0, 67, 47
1, 299751, Control_c, 0, 67, 46
1, 299778, Note_on_c, 0, 77, 74
1, 299784, Note_off_c, 0, 73, 62
1, 299796, Control_c, 0, 67, 46
1, 299812, Control_c, 0, 67, 45
1, 299826, Control_c, 0, 67, 44
1, 299849, Note_on_c, 0, 76, 79
1, 299856, Note_off_c, 0, 77, 64
1, 299858, Note_on_c, 0, 81, 86
1, 299885, Control_c, 0, 67, 45
1, 299900, Control_c, 0, 67, 45
1, 299945, Control_c, 0, 67, 46
1, 299960, Note_on_c, 0, 72, 60
1, 299960, Control_c, 0, 67, 46
1, 299986, Note_off_c, 0, 76, 58
1, 300021, Note_off_c, 0, 72, 63
1, 300064, Control_c, 0, 67, 47
1, 300067, Note_on_c, 0, 71, 53
1, 300080, Note_off_c, 0, 82, 43
1, 300091, Note_off_c, 0, 81, 62
1, 300097, Note_on_c, 0, 80, 62
1, 300106, Note_off_c, 0, 71, 62
1, 300121, Note_off_c, 0, 80, 66
1, 300123, Note_on_c, 0, 70, 59
1, 300123, Control_c, 0, 67, 46
1, 300152, Note_off_c, 0, 70, 68
1, 300196, Control_c, 0, 67, 45
1, 300207, Note_on_c, 0, 73, 62
1, 300226, Control_c, 0, 67, 45
1, 300258, Note_off_c, 0, 73, 60
1, 300261, Note_on_c, 0, 77, 70
1, 300293, Control_c, 0, 67, 44
1, 300312, Note_on_c, 0, 69, 65
1, 300329, Note_on_c, 0, 76, 69
1, 300347, Note_off_c, 0, 77, 63
1, 300352, Control_c, 0, 67, 45
1, 300367, Control_c, 0, 67, 45
1, 300426, Control_c, 0, 67, 46
1, 300436, Note_on_c, 0, 72, 51
1, 300437, Note_off_c, 0, 76, 57
1, 300441, Control_c, 0, 67, 46
1, 300475, Note_off_c, 0, 72, 64
1, 300512, Note_on_c, 0, 71, 56
1, 300541, Note_on_c, 0, 68, 55
1, 300561, Note_off_c, 0, 69, 61
1, 300562, Note_off_c, 0, 71, 57
1, 300574, Control_c, 0, 67, 46
1, 300576, Note_on_c, 0, 70, 52
1, 300589, Control_c, 0, 67, 45
1, 300604, Note_off_c, 0, 70, 65
1, 300645, Note_on_c, 0, 73, 60
1, 300649, Control_c, 0, 67, 45
1, 300664, Control_c, 0, 67, 44
1, 300704, Note_on_c, 0, 77, 70
1, 300708, Note_off_c, 0, 73, 60
1, 300738, Note_on_c, 0, 67, 66
1, 300742, Note_off_c, 0, 68, 62
1, 300764, Note_on_c, 0, 76, 77
1, 300765, Note_off_c, 0, 67, 69
1, 300765, Note_off_c, 0, 77, 63
1, 300768, Control_c, 0, 67, 45
1, 300783, Control_c, 0, 67, 46
1, 300797, Control_c, 0, 67, 46
1, 300812, Control_c, 0, 67, 47
1, 300833, Note_on_c, 0, 72, 64
1, 300838, Note_off_c, 0, 76, 50
1, 300842, Control_c, 0, 67, 48
1, 300866, Note_off_c, 0, 72, 65
1, 300887, Control_c, 0, 67, 48
1, 300912, Note_on_c, 0, 71, 52
1, 300961, Note_off_c, 0, 71, 58
1, 300968, Note_on_c, 0, 56, 59
1, 300976, Note_on_c, 0, 70, 53
1, 301009, Note_off_c, 0, 70, 66
1, 301042, Control_c, 0, 67, 48
1, 301054, Note_on_c, 0, 73, 62
1, 301109, Note_off_c, 0, 73, 55
1, 301127, Note_on_c, 0, 77, 58
1, 301131, Control_c, 0, 67, 47
1, 301175, Control_c, 0, 67, 48
1, 301176, Note_on_c, 0, 55, 68
1, 301178, Note_on_c, 0, 76, 74
1, 301178, Note_off_c, 0, 77, 61
1, 301206, Note_off_c, 0, 56, 51
1, 301220, Control_c, 0, 67, 48
1, 301251, Note_off_c, 0, 76, 61
1, 301259, Note_on_c, 0, 72, 63
1, 301279, Control_c, 0, 67, 49
1, 301287, Note_off_c, 0, 72, 68
1, 301294, Control_c, 0, 67, 49
1, 301330, Note_on_c, 0, 71, 59
1, 301367, Control_c, 0, 67, 49
1, 301373, Note_off_c, 0, 55, 62
1, 301374, Note_on_c, 0, 54, 67
1, 301389, Note_off_c, 0, 71, 62
1, 301398, Control_c, 0, 67, 48
1, 301399, Note_on_c, 0, 70, 58
1, 301403, Note_off_c, 0, 54, 66
1, 301452, Note_off_c, 0, 70, 59
1, 301459, Note_on_c, 0, 73, 69
1, 301542, Note_off_c, 0, 73, 60
1, 301544, Note_on_c, 0, 77, 58
1, 301561, Control_c, 0, 67, 49
1, 301575, Control_c, 0, 67, 50
1, 301590, Control_c, 0, 67, 51
1, 301605, Note_on_c, 0, 43, 72
1, 301605, Control_c, 0, 67, 52
1, 301606, Note_off_c, 0, 77, 63
1, 301611, Note_on_c, 0, 76, 75
1, 301635, Control_c, 0, 64, 82
1, 301650, Control_c, 0, 64, 57
1, 301665, Control_c, 0, 64, 0
1, 301665, Control_c, 0, 67, 53
1, 301680, Control_c, 0, 67, 55
1, 301695, Control_c, 0, 64, 53
1, 301695, Control_c, 0, 67, 59
1, 301698, Note_on_c, 0, 72, 60
1, 301703, Note_off_c, 0, 76, 57
1, 301710, Control_c, 0, 64, 67
1, 301710, Control_c, 0, 67, 65
1, 301724, Control_c, 0, 64, 78
1, 301724, Control_c, 0, 67, 68
1, 301739, Control_c, 0, 64, 84
1, 301739, Control_c, 0, 67, 70
1, 301742, Note_off_c, 0, 72, 62
1, 301754, Control_c, 0, 64, 85
1, 301754, Control_c, 0, 67, 73
1, 301769, Control_c, 0, 64, 86
1, 301769, Control_c, 0, 67, 76
1, 301783, Note_on_c, 0, 69, 61
1, 301790, Control_c, 0, 67, 79
1, 301805, Control_c, 0, 67, 84
1, 301820, Control_c, 0, 67, 89
1, 301835, Control_c, 0, 67, 93
1, 301841, Note_off_c, 0, 69, 53
1, 301848, Note_on_c, 0, 42, 51
1, 301850, Control_c, 0, 67, 97
1, 301861, Note_on_c, 0, 70, 57
1, 301865, Control_c, 0, 64, 86
1, 301865, Control_c, 0, 67, 101
1, 301868, Note_off_c, 0, 43, 60
1, 301880, Control_c, 0, 67, 105
1, 301894, Control_c, 0, 67, 110
1, 301909, Control_c, 0, 67, 115
1, 301917, Note_off_c, 0, 70, 61
1, 301924, Note_on_c, 0, 73, 69
1, 301924, Control_c, 0, 64, 87
1, 301924, Control_c, 0, 67, 119
1, 301939, Control_c, 0, 64, 88
1, 301954, Control_c, 0, 64, 90
1, 301954, Control_c, 0, 67, 121
1, 301969, Control_c, 0, 64, 91
1, 301983, Control_c, 0, 64, 92
1, 301987, Note_off_c, 0, 73, 63
1, 302007, Note_on_c, 0, 77, 62
1, 302013, Control_c, 0, 64, 93
1, 302028, Control_c, 0, 64, 94
1, 302043, Control_c, 0, 64, 95
1, 302057, Control_c, 0, 64, 94
1, 302072, Control_c, 0, 64, 79
1, 302082, Note_on_c, 0, 41, 56
1, 302085, Note_off_c, 0, 42, 59
1, 302087, Control_c, 0, 64, 60
1, 302087, Control_c, 0, 67, 123
1, 302097, Note_on_c, 0, 34, 42
1, 302102, Control_c, 0, 64, 0
1, 302107, Note_off_c, 0, 77, 63
1, 302117, Control_c, 0, 67, 126
1, 302128, Note_on_c, 0, 83, 45
1, 302132, Note_on_c, 0, 81, 54
1, 302161, Control_c, 0, 64, 55
1, 302175, Control_c, 0, 64, 65
1, 302190, Control_c, 0, 64, 70
1, 302206, Control_c, 0, 64, 71
1, 302221, Control_c, 0, 64, 71
1, 302236, Control_c, 0, 64, 72
1, 302249, Note_on_c, 0, 76, 53
1, 302251, Control_c, 0, 64, 73
1, 302266, Control_c, 0, 64, 74
1, 302280, Control_c, 0, 64, 75
1, 302291, Note_off_c, 0, 83, 36
1, 302295, Control_c, 0, 64, 76
1, 302303, Note_off_c, 0, 81, 42
1, 302306, Note_off_c, 0, 76, 59
1, 302310, Control_c, 0, 64, 77
1, 302325, Control_c, 0, 64, 81
1, 302337, Note_on_c, 0, 72, 55
1, 302340, Control_c, 0, 64, 87
1, 302354, Control_c, 0, 64, 94
1, 302369, Control_c, 0, 64, 103
1, 302376, Note_off_c, 0, 72, 63
1, 302384, Control_c, 0, 64, 111
1, 302389, Note_on_c, 0, 73, 68
1, 302398, Control_c, 0, 64, 127
1, 302416, Note_off_c, 0, 73, 64
1, 302477, Note_on_c, 0, 77, 46
1, 302501, Note_off_c, 0, 77, 59
1, 302513, Note_on_c, 0, 82, 75
1, 302603, Note_on_c, 0, 84, 74
1, 302604, Note_off_c, 0, 82, 62
1, 302613, Control_c, 0, 64, 99
1, 302628, Control_c, 0, 64, 70
1, 302643, Control_c, 0, 64, 61
1, 302658, Control_c, 0, 64, 62
1, 302664, Note_on_c, 0, 81, 65
1, 302672, Control_c, 0, 64, 67
1, 302687, Control_c, 0, 64, 75
1, 302702, Control_c, 0, 64, 83
1, 302714, Note_off_c, 0, 84, 59
1, 302717, Control_c, 0, 64, 88
1, 302732, Control_c, 0, 64, 88
1, 302750, Note_off_c, 0, 81, 62
1, 302759, Note_on_c, 0, 76, 64
1, 302777, Control_c, 0, 64, 89
1, 302792, Control_c, 0, 64, 89
1, 302803, Note_off_c, 0, 76, 61
1, 302828, Note_on_c, 0, 77, 55
1, 302836, Control_c, 0, 64, 90
1, 302851, Control_c, 0, 64, 94
1, 302866, Control_c, 0, 64, 99
1, 302880, Control_c, 0, 64, 108
1, 302895, Control_c, 0, 64, 120
1, 302902, Note_on_c, 0, 82, 64
1, 302910, Control_c, 0, 64, 127
1, 302938, Note_off_c, 0, 77, 44
1, 302962, Note_off_c, 0, 82, 62
1, 302967, Note_on_c, 0, 85, 69
1, 303041, Note_on_c, 0, 88, 71
1, 303044, Note_off_c, 0, 85, 65
1, 303044, Control_c, 0, 64, 83
1, 303059, Control_c, 0, 64, 64
1, 303074, Control_c, 0, 64, 53
1, 303089, Control_c, 0, 64, 57
1, 303103, Control_c, 0, 64, 64
1, 303118, Control_c, 0, 64, 76
1, 303132, Note_on_c, 0, 84, 67
1, 303133, Control_c, 0, 64, 89
1, 303134, Note_off_c, 0, 88, 57
1, 303148, Control_c, 0, 64, 95
1, 303192, Control_c, 0, 64, 96
1, 303195, Note_off_c, 0, 84, 63
1, 303206, Note_on_c, 0, 81, 65
1, 303236, Control_c, 0, 64, 98
1, 303275, Note_off_c, 0, 81, 61
1, 303285, Note_on_c, 0, 82, 65
1, 303303, Control_c, 0, 64, 102
1, 303318, Control_c, 0, 64, 106
1, 303333, Control_c, 0, 64, 108
1, 303361, Note_on_c, 0, 85, 69
1, 303366, Note_off_c, 0, 82, 57
1, 303421, Control_c, 0, 64, 111
1, 303447, Note_on_c, 0, 89, 72
1, 303451, Control_c, 0, 64, 115
1, 303453, Note_off_c, 0, 85, 64
1, 303466, Control_c, 0, 64, 119
1, 303481, Control_c, 0, 64, 127
1, 303497, Note_off_c, 0, 89, 58
1, 303621, Note_on_c, 0, 94, 65
1, 303689, Note_off_c, 0, 94, 60
1, 303760, Note_off_c, 0, 41, 40
1, 303842, Note_off_c, 0, 34, 36
1, 303882, Control_c, 0, 64, 117
1, 303897, Control_c, 0, 64, 106
1, 303912, Control_c, 0, 64, 97
1, 303926, Control_c, 0, 64, 90
1, 303941, Control_c, 0, 64, 86
1, 303956, Control_c, 0, 64, 83
1, 303970, Control_c, 0, 64, 82
1, 303985, Control_c, 0, 64, 80
1, 304000, Control_c, 0, 64, 78
1, 304023, Control_c, 0, 64, 76
1, 304038, Control_c, 0, 64, 74
1, 304052, Control_c, 0, 64, 72
1, 304067, Control_c, 0, 64, 71
1, 304082, Control_c, 0, 64, 69
1, 304097, Control_c, 0, 64, 67
1, 304112, Control_c, 0, 64, 64
1, 304126, Control_c, 0, 64, 62
1, 304141, Control_c, 0, 64, 61
1, 304170, Control_c, 0, 64, 60
1, 304230, Control_c, 0, 64, 60
1, 304244, Control_c, 0, 64, 59
1, 304304, Control_c, 0, 64, 59
1, 304333, Control_c, 0, 64, 58
1, 304496, Control_c, 0, 64, 59
1, 304586, Control_c, 0, 64, 59
1, 304631, Control_c, 0, 64, 60
1, 304676, Control_c, 0, 64, 61
1, 304691, Control_c, 0, 64, 61
1, 304750, Control_c, 0, 64, 62
1, 304787, Control_c, 0, 64, 62
1, 304801, Control_c, 0, 64, 63
1, 304846, Control_c, 0, 64, 63
1, 304875, Control_c, 0, 64, 64
1, 304905, Control_c, 0, 64, 64
1, 304950, Control_c, 0, 64, 65
1, 304980, Control_c, 0, 64, 65
1, 304994, Control_c, 0, 64, 66
1, 305009, Control_c, 0, 64, 67
1, 305024, Control_c, 0, 64, 67
1, 305039, Control_c, 0, 64, 68
1, 305054, Control_c, 0, 64, 69
1, 305068, Control_c, 0, 64, 69
1, 305083, Control_c, 0, 64, 70
1, 305098, Control_c, 0, 64, 71
1, 305113, Control_c, 0, 64, 72
1, 305127, Control_c, 0, 64, 73
1, 305142, Control_c, 0, 64, 74
1, 305157, Control_c, 0, 64, 76
1, 305172, Control_c, 0, 64, 78
1, 305187, Control_c, 0, 64, 81
1, 305195, Note_on_c, 0, 44, 58
1, 305201, Control_c, 0, 64, 85
1, 305216, Control_c, 0, 64, 92
1, 305231, Control_c, 0, 64, 105
1, 305246, Control_c, 0, 64, 127
1, 305264, Note_on_c, 0, 53, 67
1, 305275, Note_off_c, 0, 44, 63
1, 305319, Note_on_c, 0, 56, 81
1, 305329, Note_off_c, 0, 53, 62
1, 305365, Note_off_c, 0, 56, 64
1, 305391, Note_on_c, 0, 61, 73
1, 305455, Note_on_c, 0, 65, 84
1, 305529, Note_on_c, 0, 68, 87
1, 305880, Note_on_c, 0, 77, 89
1, 305884, Note_on_c, 0, 73, 84
1, 305921, Note_off_c, 0, 77, 63
1, 305945, Note_off_c, 0, 73, 60
1, 306140, Note_off_c, 0, 61, 29
1, 306335, Note_off_c, 0, 65, 28
1, 306564, Note_off_c, 0, 68, 30
1, 307987, Note_on_c, 0, 76, 83
1, 307997, Note_on_c, 0, 72, 71
1, 308050, Note_off_c, 0, 72, 60
1, 308167, Note_off_c, 0, 76, 57
1, 308947, Note_on_c, 0, 75, 69
1, 308963, Note_on_c, 0, 71, 55
1, 309013, Note_off_c, 0, 71, 55
1, 309037, Note_off_c, 0, 75, 58
1, 309608, Note_on_c, 0, 34, 46
1, 309619, Control_c, 0, 64, 124
1, 309634, Control_c, 0, 64, 85
1, 309649, Control_c, 0, 64, 78
1, 309663, Control_c, 0, 64, 79
1, 309678, Control_c, 0, 64, 82
1, 309684, Note_on_c, 0, 41, 32
1, 309693, Control_c, 0, 64, 89
1, 309701, Note_off_c, 0, 34, 59
1, 309707, Control_c, 0, 64, 97
1, 309722, Control_c, 0, 64, 108
1, 309723, Note_on_c, 0, 46, 51
1, 309737, Control_c, 0, 64, 127
1, 309744, Note_off_c, 0, 41, 54
1, 309779, Note_off_c, 0, 46, 63
1, 309819, Note_on_c, 0, 49, 44
1, 309867, Note_on_c, 0, 53, 49
1, 309909, Note_on_c, 0, 58, 51
1, 309970, Note_on_c, 0, 61, 59
1, 310032, Note_off_c, 0, 49, 54
1, 310108, Note_on_c, 0, 73, 67
1, 310117, Note_on_c, 0, 70, 55
1, 310175, Note_off_c, 0, 70, 63
1, 310175, Note_off_c, 0, 73, 63
1, 311537, Note_off_c, 0, 61, 31
1, 311834, Note_on_c, 0, 70, 48
1, 311855, Note_off_c, 0, 58, 41
1, 312055, Note_off_c, 0, 53, 1
1, 312376, Note_on_c, 0, 65, 45
1, 314054, Note_off_c, 0, 70, 1
1, 315368, Note_off_c, 0, 65, 1
1, 315580, Control_c, 0, 64, 122
1, 315595, Control_c, 0, 64, 115
1, 315610, Control_c, 0, 64, 111
1, 315625, Control_c, 0, 64, 107
1, 315640, Control_c, 0, 64, 105
1, 315669, Control_c, 0, 64, 102
1, 315684, Control_c, 0, 64, 100
1, 315699, Control_c, 0, 64, 98
1, 315714, Control_c, 0, 64, 95
1, 315729, Control_c, 0, 64, 93
1, 315744, Control_c, 0, 64, 91
1, 315759, Control_c, 0, 64, 89
1, 315774, Control_c, 0, 64, 88
1, 315789, Control_c, 0, 64, 86
1, 315803, Control_c, 0, 64, 85
1, 315818, Control_c, 0, 64, 84
1, 315833, Control_c, 0, 64, 83
1, 315848, Control_c, 0, 64, 82
1, 315863, Control_c, 0, 64, 81
1, 315877, Control_c, 0, 64, 80
1, 315892, Control_c, 0, 64, 79
1, 315907, Control_c, 0, 64, 79
1, 315922, Control_c, 0, 64, 78
1, 315937, Control_c, 0, 64, 77
1, 315951, Control_c, 0, 64, 76
1, 315966, Control_c, 0, 64, 75
1, 315981, Control_c, 0, 64, 74
1, 316003, Control_c, 0, 64, 72
1, 316018, Control_c, 0, 64, 71
1, 316033, Control_c, 0, 64, 70
1, 316048, Control_c, 0, 64, 68
1, 316063, Control_c, 0, 64, 67
1, 316077, Control_c, 0, 64, 65
1, 316092, Control_c, 0, 64, 63
1, 316107, Control_c, 0, 64, 62
1, 316122, Control_c, 0, 64, 60
1, 316137, Control_c, 0, 64, 60
1, 316151, Control_c, 0, 64, 59
1, 316181, Control_c, 0, 64, 59
1, 316196, Control_c, 0, 64, 58
1, 316210, Control_c, 0, 64, 56
1, 316225, Control_c, 0, 64, 54
1, 316240, Control_c, 0, 64, 53
1, 316284, Control_c, 0, 64, 53
1, 316299, Control_c, 0, 64, 52
1, 316314, Control_c, 0, 64, 51
1, 316329, Control_c, 0, 64, 50
1, 316388, Control_c, 0, 64, 49
1, 316477, Control_c, 0, 64, 49
1, 316492, Control_c, 0, 64, 48
1, 316700, Control_c, 0, 64, 49
1, 316856, Control_c, 0, 64, 49
1, 317048, Control_c, 0, 64, 50
1, 317151, Control_c, 0, 64, 50
1, 317420, Control_c, 0, 64, 51
1, 317946, Control_c, 0, 64, 51
1, 318413, Control_c, 0, 64, 52
1, 318458, Control_c, 0, 64, 52
1, 318502, Control_c, 0, 64, 53
1, 318531, Control_c, 0, 64, 53
1, 318784, Control_c, 0, 64, 54
1, 319058, Control_c, 0, 64, 54
1, 319073, Control_c, 0, 64, 55
1, 319088, Control_c, 0, 64, 55
1, 319103, Control_c, 0, 64, 56
1, 319118, Control_c, 0, 64, 59
1, 319133, Control_c, 0, 64, 61
1, 319147, Control_c, 0, 64, 63
1, 319162, Control_c, 0, 64, 65
1, 319177, Control_c, 0, 64, 66
1, 319192, Control_c, 0, 64, 67
1, 319207, Control_c, 0, 64, 71
1, 319221, Control_c, 0, 64, 75
1, 319236, Control_c, 0, 64, 80
1, 319251, Control_c, 0, 64, 82
1, 319266, Control_c, 0, 64, 84
1, 319281, Control_c, 0, 64, 85
1, 319295, Control_c, 0, 64, 87
1, 319310, Control_c, 0, 64, 89
1, 319325, Control_c, 0, 64, 91
1, 319340, Control_c, 0, 64, 94
1, 319354, Control_c, 0, 64, 96
1, 319369, Control_c, 0, 64, 100
1, 319384, Control_c, 0, 64, 104
1, 319399, Control_c, 0, 64, 109
1, 319414, Control_c, 0, 64, 119
1, 319428, Control_c, 0, 64, 127
1, 321598, Note_on_c, 0, 78, 66
1, 321601, Control_c, 0, 64, 112
1, 321616, Control_c, 0, 64, 102
1, 321626, Note_on_c, 0, 61, 37
1, 321628, Note_on_c, 0, 64, 40
1, 321631, Control_c, 0, 64, 95
1, 321633, Note_on_c, 0, 70, 43
1, 321640, Note_on_c, 0, 54, 37
1, 321646, Control_c, 0, 64, 90
1, 321661, Control_c, 0, 64, 83
1, 321676, Control_c, 0, 64, 77
1, 321690, Control_c, 0, 64, 71
1, 321705, Control_c, 0, 64, 65
1, 321720, Control_c, 0, 64, 60
1, 321735, Control_c, 0, 64, 56
1, 321749, Control_c, 0, 64, 53
1, 322066, Control_c, 0, 64, 53
1, 322126, Control_c, 0, 64, 52
1, 322156, Control_c, 0, 64, 52
1, 322171, Control_c, 0, 64, 51
1, 322186, Control_c, 0, 64, 50
1, 322201, Control_c, 0, 64, 49
1, 322216, Control_c, 0, 64, 47
1, 322231, Control_c, 0, 64, 45
1, 322245, Control_c, 0, 64, 42
1, 322260, Control_c, 0, 64, 37
1, 322275, Control_c, 0, 64, 33
1, 322290, Control_c, 0, 64, 0
1, 322302, Note_on_c, 0, 79, 71
1, 322347, Note_off_c, 0, 78, 60
1, 322527, Control_c, 0, 64, 44
1, 322542, Control_c, 0, 64, 55
1, 322557, Control_c, 0, 64, 63
1, 322571, Control_c, 0, 64, 66
1, 322586, Control_c, 0, 64, 67
1, 322631, Control_c, 0, 64, 68
1, 322645, Control_c, 0, 64, 71
1, 322660, Control_c, 0, 64, 75
1, 322675, Control_c, 0, 64, 79
1, 322689, Control_c, 0, 64, 82
1, 322704, Control_c, 0, 64, 85
1, 322719, Control_c, 0, 64, 88
1, 322742, Control_c, 0, 64, 92
1, 322757, Control_c, 0, 64, 99
1, 322771, Control_c, 0, 64, 106
1, 322786, Control_c, 0, 64, 114
1, 322801, Control_c, 0, 64, 127
1, 323244, Note_off_c, 0, 79, 59
1, 323259, Note_on_c, 0, 78, 61
1, 323539, Note_on_c, 0, 75, 67
1, 323600, Note_off_c, 0, 78, 38
1, 323698, Control_c, 0, 67, 124
1, 323712, Control_c, 0, 67, 120
1, 323727, Control_c, 0, 67, 111
1, 323742, Control_c, 0, 67, 106
1, 323750, Note_off_c, 0, 64, 41
1, 323776, Note_off_c, 0, 61, 36
1, 323787, Note_off_c, 0, 70, 35
1, 323788, Control_c, 0, 67, 104
1, 323792, Note_on_c, 0, 76, 75
1, 323803, Note_off_c, 0, 54, 40
1, 323817, Control_c, 0, 67, 101
1, 323833, Note_off_c, 0, 75, 61
1, 323869, Note_off_c, 0, 76, 59
1, 324010, Control_c, 0, 67, 103
1, 324099, Control_c, 0, 67, 105
1, 324109, Note_on_c, 0, 76, 63
1, 324117, Note_on_c, 0, 64, 35
1, 324120, Note_on_c, 0, 60, 38
1, 324128, Control_c, 0, 64, 108
1, 324132, Note_on_c, 0, 69, 49
1, 324143, Control_c, 0, 64, 84
1, 324158, Control_c, 0, 64, 65
1, 324173, Control_c, 0, 64, 43
1, 324188, Control_c, 0, 64, 0
1, 324299, Control_c, 0, 64, 48
1, 324314, Control_c, 0, 64, 62
1, 324329, Control_c, 0, 64, 69
1, 324343, Control_c, 0, 64, 75
1, 324358, Control_c, 0, 64, 79
1, 324373, Control_c, 0, 64, 82
1, 324388, Control_c, 0, 64, 85
1, 324403, Control_c, 0, 64, 88
1, 324417, Control_c, 0, 64, 92
1, 324432, Control_c, 0, 64, 98
1, 324447, Control_c, 0, 64, 107
1, 324461, Control_c, 0, 64, 127
1, 324528, Note_off_c, 0, 69, 28
1, 324793, Note_on_c, 0, 69, 50
1, 325630, Note_off_c, 0, 76, 9
1, 325786, Note_on_c, 0, 62, 37
1, 325802, Note_off_c, 0, 64, 39
1, 325813, Note_on_c, 0, 59, 37
1, 325816, Note_on_c, 0, 67, 47
1, 325819, Note_off_c, 0, 60, 35
1, 326046, Note_on_c, 0, 71, 67
1, 326064, Control_c, 0, 67, 103
1, 326126, Note_off_c, 0, 67, 56
1, 326127, Note_off_c, 0, 69, 37
1, 326232, Note_off_c, 0, 59, 57
1, 326271, Note_on_c, 0, 57, 50
1, 326285, Note_on_c, 0, 60, 57
1, 326343, Note_off_c, 0, 62, 48
1, 326382, Note_on_c, 0, 72, 70
1, 326386, Note_off_c, 0, 71, 62
1, 326397, Note_on_c, 0, 66, 47
1, 326404, Control_c, 0, 64, 96
1, 326419, Control_c, 0, 64, 70
1, 326419, Control_c, 0, 67, 105
1, 326434, Control_c, 0, 64, 45
1, 326449, Control_c, 0, 64, 0
1, 326531, Control_c, 0, 64, 44
1, 326545, Control_c, 0, 64, 57
1, 326560, Control_c, 0, 64, 62
1, 326575, Control_c, 0, 64, 63
1, 326619, Control_c, 0, 67, 107
1, 326634, Control_c, 0, 64, 63
1, 326649, Control_c, 0, 64, 64
1, 326842, Control_c, 0, 64, 63
1, 326901, Control_c, 0, 64, 63
1, 326976, Control_c, 0, 64, 62
1, 327006, Control_c, 0, 64, 62
1, 327006, Control_c, 0, 67, 109
1, 327020, Control_c, 0, 64, 61
1, 327027, Note_on_c, 0, 76, 70
1, 327035, Control_c, 0, 64, 60
1, 327050, Control_c, 0, 64, 57
1, 327065, Control_c, 0, 64, 52
1, 327080, Control_c, 0, 64, 44
1, 327095, Control_c, 0, 64, 34
1, 327110, Control_c, 0, 64, 0
1, 327140, Control_c, 0, 64, 41
1, 327154, Control_c, 0, 64, 53
1, 327169, Control_c, 0, 64, 62
1, 327184, Control_c, 0, 64, 67
1, 327199, Control_c, 0, 64, 71
1, 327214, Control_c, 0, 64, 73
1, 327235, Control_c, 0, 64, 75
1, 327250, Control_c, 0, 64, 78
1, 327265, Control_c, 0, 64, 82
1, 327265, Control_c, 0, 67, 111
1, 327280, Control_c, 0, 64, 88
1, 327295, Control_c, 0, 64, 95
1, 327310, Control_c, 0, 64, 104
1, 327310, Control_c, 0, 67, 113
1, 327325, Control_c, 0, 64, 115
1, 327339, Control_c, 0, 64, 127
1, 327384, Control_c, 0, 67, 116
1, 327399, Control_c, 0, 67, 119
1, 327413, Control_c, 0, 67, 124
1, 327428, Control_c, 0, 67, 127
1, 327891, Note_off_c, 0, 76, 61
1, 327929, Note_on_c, 0, 74, 60
1, 328047, Note_off_c, 0, 72, 37
1, 328070, Note_off_c, 0, 66, 52
1, 328173, Note_on_c, 0, 56, 45
1, 328176, Note_off_c, 0, 57, 58
1, 328222, Note_off_c, 0, 74, 60
1, 328234, Note_on_c, 0, 71, 66
1, 328240, Note_on_c, 0, 65, 58
1, 328335, Note_off_c, 0, 56, 60
1, 328478, Note_on_c, 0, 72, 69
1, 328502, Note_off_c, 0, 71, 61
1, 328510, Note_off_c, 0, 65, 52
1, 328523, Note_off_c, 0, 72, 59
1, 328529, Note_off_c, 0, 60, 44
1, 328701, Note_on_c, 0, 55, 51
1, 328712, Note_on_c, 0, 48, 44
1, 328778, Control_c, 0, 64, 101
1, 328780, Note_on_c, 0, 72, 65
1, 328791, Note_on_c, 0, 64, 52
1, 328793, Control_c, 0, 64, 76
1, 328807, Control_c, 0, 64, 61
1, 328822, Control_c, 0, 64, 0
1, 328896, Control_c, 0, 64, 45
1, 328911, Control_c, 0, 64, 61
1, 328925, Control_c, 0, 64, 69
1, 328940, Control_c, 0, 64, 72
1, 328955, Control_c, 0, 64, 73
1, 328970, Control_c, 0, 64, 73
1, 329000, Control_c, 0, 64, 74
1, 329015, Control_c, 0, 64, 76
1, 329030, Control_c, 0, 64, 78
1, 329044, Control_c, 0, 64, 79
1, 329059, Control_c, 0, 64, 81
1, 329074, Control_c, 0, 64, 82
1, 329089, Control_c, 0, 64, 83
1, 329104, Control_c, 0, 64, 84
1, 329119, Control_c, 0, 64, 84
1, 329133, Control_c, 0, 64, 85
1, 329148, Control_c, 0, 64, 86
1, 329163, Control_c, 0, 64, 87
1, 329177, Control_c, 0, 64, 88
1, 329192, Control_c, 0, 64, 89
1, 329207, Control_c, 0, 64, 91
1, 329222, Control_c, 0, 64, 92
1, 329281, Control_c, 0, 64, 88
1, 329296, Control_c, 0, 64, 83
1, 329311, Control_c, 0, 64, 80
1, 329325, Control_c, 0, 64, 79
1, 329343, Note_on_c, 0, 67, 61
1, 329371, Control_c, 0, 64, 79
1, 329386, Control_c, 0, 64, 80
1, 329401, Control_c, 0, 64, 80
1, 329416, Control_c, 0, 64, 81
1, 329420, Note_off_c, 0, 72, 38
1, 329430, Control_c, 0, 64, 81
1, 329445, Control_c, 0, 64, 82
1, 329497, Control_c, 0, 64, 82
1, 329512, Control_c, 0, 64, 83
1, 329527, Control_c, 0, 64, 83
1, 329542, Control_c, 0, 64, 84
1, 329556, Control_c, 0, 64, 85
1, 329571, Control_c, 0, 64, 85
1, 329586, Control_c, 0, 64, 86
1, 329601, Control_c, 0, 64, 86
1, 329615, Control_c, 0, 64, 87
1, 329630, Control_c, 0, 64, 88
1, 329645, Control_c, 0, 64, 89
1, 329660, Control_c, 0, 64, 90
1, 329675, Control_c, 0, 64, 91
1, 329689, Control_c, 0, 64, 93
1, 329704, Control_c, 0, 64, 94
1, 329719, Control_c, 0, 64, 95
1, 329748, Control_c, 0, 64, 98
1, 329763, Control_c, 0, 64, 100
1, 329778, Control_c, 0, 64, 103
1, 329793, Control_c, 0, 64, 106
1, 329823, Control_c, 0, 64, 108
1, 329852, Control_c, 0, 64, 104
1, 329867, Control_c, 0, 64, 92
1, 329882, Control_c, 0, 64, 82
1, 329886, Note_on_c, 0, 54, 50
1, 329897, Control_c, 0, 64, 76
1, 329912, Control_c, 0, 64, 75
1, 329927, Control_c, 0, 64, 75
1, 329942, Control_c, 0, 64, 76
1, 329956, Control_c, 0, 64, 78
1, 329963, Note_on_c, 0, 63, 63
1, 329971, Control_c, 0, 64, 79
1, 329986, Control_c, 0, 64, 80
1, 330000, Control_c, 0, 64, 80
1, 330002, Note_off_c, 0, 55, 29
1, 330015, Control_c, 0, 64, 81
1, 330031, Control_c, 0, 64, 82
1, 330046, Control_c, 0, 64, 83
1, 330061, Control_c, 0, 64, 84
1, 330075, Control_c, 0, 64, 85
1, 330090, Control_c, 0, 64, 86
1, 330105, Control_c, 0, 64, 88
1, 330120, Control_c, 0, 64, 89
1, 330135, Control_c, 0, 64, 91
1, 330150, Control_c, 0, 64, 92
1, 330165, Control_c, 0, 64, 94
1, 330172, Note_off_c, 0, 64, 30
1, 330180, Control_c, 0, 64, 94
1, 330192, Note_on_c, 0, 69, 69
1, 330195, Control_c, 0, 64, 96
1, 330231, Control_c, 0, 64, 99
1, 330246, Control_c, 0, 64, 101
1, 330276, Control_c, 0, 64, 104
1, 330320, Control_c, 0, 64, 106
1, 330410, Control_c, 0, 64, 95
1, 330413, Note_on_c, 0, 53, 60
1, 330422, Note_on_c, 0, 62, 72
1, 330425, Control_c, 0, 64, 78
1, 330436, Note_off_c, 0, 63, 60
1, 330439, Control_c, 0, 64, 66
1, 330454, Control_c, 0, 64, 56
1, 330457, Note_off_c, 0, 54, 58
1, 330469, Control_c, 0, 64, 46
1, 330484, Control_c, 0, 64, 49
1, 330499, Control_c, 0, 64, 59
1, 330513, Control_c, 0, 64, 68
1, 330528, Control_c, 0, 64, 79
1, 330530, Note_off_c, 0, 48, 61
1, 330543, Control_c, 0, 64, 88
1, 330556, Note_off_c, 0, 67, 37
1, 330558, Control_c, 0, 64, 91
1, 330573, Control_c, 0, 64, 92
1, 330587, Control_c, 0, 64, 94
1, 330602, Control_c, 0, 64, 96
1, 330617, Control_c, 0, 64, 99
1, 330631, Control_c, 0, 64, 104
1, 330646, Control_c, 0, 64, 110
1, 330660, Note_on_c, 0, 71, 71
1, 330661, Control_c, 0, 64, 122
1, 330676, Control_c, 0, 64, 127
1, 330680, Note_off_c, 0, 62, 58
1, 330714, Note_off_c, 0, 69, 56
1, 330908, Note_on_c, 0, 45, 47
1, 330918, Note_off_c, 0, 53, 53
1, 330922, Note_on_c, 0, 52, 47
1, 330986, Note_off_c, 0, 71, 64
1, 330994, Note_on_c, 0, 69, 65
1, 330995, Control_c, 0, 64, 94
1, 331009, Control_c, 0, 64, 75
1, 331012, Note_on_c, 0, 61, 51
1, 331024, Control_c, 0, 64, 58
1, 331039, Control_c, 0, 64, 0
1, 331128, Control_c, 0, 64, 49
1, 331143, Control_c, 0, 64, 62
1, 331158, Control_c, 0, 64, 68
1, 331173, Control_c, 0, 64, 72
1, 331187, Control_c, 0, 64, 73
1, 331217, Control_c, 0, 64, 74
1, 331232, Control_c, 0, 64, 74
1, 331247, Control_c, 0, 64, 75
1, 331261, Control_c, 0, 64, 77
1, 331276, Control_c, 0, 64, 78
1, 331291, Control_c, 0, 64, 80
1, 331306, Control_c, 0, 64, 81
1, 331321, Control_c, 0, 64, 83
1, 331335, Control_c, 0, 64, 84
1, 331350, Control_c, 0, 64, 86
1, 331365, Control_c, 0, 64, 87
1, 331379, Control_c, 0, 64, 89
1, 331394, Control_c, 0, 64, 90
1, 331409, Control_c, 0, 64, 91
1, 331424, Control_c, 0, 64, 92
1, 331468, Control_c, 0, 64, 92
1, 331483, Control_c, 0, 64, 93
1, 331513, Control_c, 0, 64, 93
1, 331528, Control_c, 0, 64, 94
1, 331542, Control_c, 0, 64, 94
1, 331557, Control_c, 0, 64, 95
1, 331572, Control_c, 0, 64, 96
1, 331602, Control_c, 0, 64, 98
1, 331604, Note_on_c, 0, 64, 61
1, 331617, Control_c, 0, 64, 100
1, 331632, Note_off_c, 0, 69, 48
1, 331632, Control_c, 0, 64, 102
1, 331646, Control_c, 0, 64, 105
1, 331661, Control_c, 0, 64, 108
1, 331676, Control_c, 0, 64, 113
1, 331691, Control_c, 0, 64, 127
1, 332158, Note_on_c, 0, 51, 49
1, 332188, Control_c, 0, 64, 114
1, 332202, Control_c, 0, 64, 85
1, 332217, Note_on_c, 0, 60, 66
1, 332217, Control_c, 0, 64, 70
1, 332232, Control_c, 0, 64, 63
1, 332247, Control_c, 0, 64, 62
1, 332262, Control_c, 0, 64, 64
1, 332277, Control_c, 0, 64, 66
1, 332278, Note_off_c, 0, 52, 35
1, 332292, Control_c, 0, 64, 70
1, 332307, Control_c, 0, 64, 73
1, 332322, Control_c, 0, 64, 77
1, 332329, Note_off_c, 0, 45, 37
1, 332337, Control_c, 0, 64, 80
1, 332351, Control_c, 0, 64, 83
1, 332366, Control_c, 0, 64, 86
1, 332381, Control_c, 0, 64, 90
1, 332395, Control_c, 0, 64, 95
1, 332410, Control_c, 0, 64, 100
1, 332425, Control_c, 0, 64, 107
1, 332440, Control_c, 0, 64, 114
1, 332455, Control_c, 0, 64, 124
1, 332477, Note_on_c, 0, 66, 68
1, 332477, Control_c, 0, 64, 127
1, 332509, Note_off_c, 0, 60, 45
1, 332745, Control_c, 0, 64, 111
1, 332754, Note_off_c, 0, 51, 56
1, 332756, Note_on_c, 0, 50, 53
1, 332759, Control_c, 0, 64, 74
1, 332765, Note_on_c, 0, 43, 43
1, 332774, Control_c, 0, 64, 56
1, 332775, Note_on_c, 0, 59, 57
1, 332789, Control_c, 0, 64, 0
1, 332794, Note_off_c, 0, 61, 59
1, 332819, Control_c, 0, 64, 34
1, 332833, Control_c, 0, 64, 47
1, 332848, Control_c, 0, 64, 59
1, 332863, Control_c, 0, 64, 66
1, 332876, Note_off_c, 0, 64, 53
1, 332878, Control_c, 0, 64, 72
1, 332893, Control_c, 0, 64, 76
1, 332908, Control_c, 0, 64, 76
1, 332967, Control_c, 0, 64, 77
1, 333026, Control_c, 0, 64, 77
1, 333050, Note_on_c, 0, 49, 53
1, 333054, Note_on_c, 0, 67, 68
1, 333056, Control_c, 0, 64, 78
1, 333086, Control_c, 0, 64, 78
1, 333096, Note_off_c, 0, 59, 53
1, 333098, Note_off_c, 0, 66, 55
1, 333100, Control_c, 0, 64, 79
1, 333108, Note_off_c, 0, 43, 37
1, 333115, Control_c, 0, 64, 79
1, 333130, Control_c, 0, 64, 80
1, 333143, Note_off_c, 0, 49, 59
1, 333144, Control_c, 0, 64, 80
1, 333159, Control_c, 0, 64, 81
1, 333166, Note_off_c, 0, 50, 22
1, 333174, Control_c, 0, 64, 82
1, 333189, Control_c, 0, 64, 83
1, 333204, Control_c, 0, 64, 84
1, 333226, Control_c, 0, 64, 84
1, 333241, Control_c, 0, 64, 85
1, 333256, Control_c, 0, 64, 85
1, 333271, Control_c, 0, 64, 86
1, 333405, Control_c, 0, 64, 85
1, 333420, Control_c, 0, 64, 83
1, 333435, Control_c, 0, 64, 79
1, 333449, Control_c, 0, 64, 75
1, 333456, Note_off_c, 0, 67, 59
1, 333462, Note_on_c, 0, 66, 62
1, 333464, Note_on_c, 0, 50, 40
1, 333464, Control_c, 0, 64, 69
1, 333471, Note_on_c, 0, 57, 51
1, 333475, Note_on_c, 0, 62, 45
1, 333478, Note_on_c, 0, 38, 40
1, 333479, Control_c, 0, 64, 63
1, 333494, Control_c, 0, 64, 51
1, 333509, Control_c, 0, 64, 0
1, 333656, Control_c, 0, 64, 51
1, 333671, Control_c, 0, 64, 63
1, 333686, Control_c, 0, 64, 69
1, 333701, Control_c, 0, 64, 73
1, 333716, Control_c, 0, 64, 76
1, 333730, Control_c, 0, 64, 78
1, 333745, Control_c, 0, 64, 81
1, 333760, Control_c, 0, 64, 85
1, 333775, Control_c, 0, 64, 91
1, 333790, Control_c, 0, 64, 99
1, 333805, Control_c, 0, 64, 113
1, 333820, Control_c, 0, 64, 127
1, 333897, Note_off_c, 0, 57, 35
1, 333981, Note_off_c, 0, 38, 40
1, 334023, Note_off_c, 0, 62, 35
1, 334156, Note_off_c, 0, 50, 35
1, 334261, Note_off_c, 0, 66, 48
1, 334812, Control_c, 0, 64, 112
1, 334821, Note_on_c, 0, 64, 48
1, 334826, Note_on_c, 0, 55, 42
1, 334827, Note_on_c, 0, 62, 41
1, 334827, Control_c, 0, 64, 98
1, 334832, Note_on_c, 0, 35, 41
1, 334837, Note_on_c, 0, 50, 36
1, 334842, Control_c, 0, 64, 86
1, 334857, Control_c, 0, 64, 75
1, 334871, Control_c, 0, 64, 64
1, 334886, Control_c, 0, 64, 48
1, 334901, Control_c, 0, 64, 0
1, 334991, Control_c, 0, 64, 47
1, 335006, Control_c, 0, 64, 61
1, 335020, Control_c, 0, 64, 67
1, 335035, Control_c, 0, 64, 70
1, 335050, Control_c, 0, 64, 72
1, 335065, Control_c, 0, 64, 73
1, 335080, Control_c, 0, 64, 74
1, 335094, Control_c, 0, 64, 76
1, 335109, Control_c, 0, 64, 79
1, 335124, Control_c, 0, 64, 82
1, 335139, Control_c, 0, 64, 86
1, 335153, Control_c, 0, 64, 89
1, 335168, Control_c, 0, 64, 93
1, 335183, Control_c, 0, 64, 96
1, 335198, Control_c, 0, 64, 100
1, 335213, Control_c, 0, 64, 106
1, 335227, Control_c, 0, 64, 111
1, 335242, Control_c, 0, 64, 120
1, 335257, Control_c, 0, 64, 127
1, 335282, Note_off_c, 0, 55, 31
1, 335313, Note_off_c, 0, 35, 31
1, 335415, Note_off_c, 0, 62, 33
1, 335478, Note_off_c, 0, 64, 34
1, 335811, Note_off_c, 0, 50, 30
1, 336666, Control_c, 0, 64, 122
1, 336681, Control_c, 0, 64, 115
1, 336696, Control_c, 0, 64, 111
1, 336711, Control_c, 0, 64, 107
1, 336725, Control_c, 0, 64, 104
1, 336740, Note_on_c, 0, 66, 47
1, 336740, Control_c, 0, 64, 99
1, 336749, Note_on_c, 0, 38, 31
1, 336751, Note_on_c, 0, 62, 39
1, 336755, Control_c, 0, 64, 94
1, 336759, Note_on_c, 0, 57, 36
1, 336768, Note_on_c, 0, 50, 21
1, 336770, Control_c, 0, 64, 90
1, 336785, Control_c, 0, 64, 84
1, 336799, Control_c, 0, 64, 75
1, 336814, Control_c, 0, 64, 67
1, 336829, Control_c, 0, 64, 59
1, 336844, Control_c, 0, 64, 45
1, 336859, Control_c, 0, 64, 0
1, 337029, Control_c, 0, 64, 38
1, 337044, Control_c, 0, 64, 46
1, 337059, Control_c, 0, 64, 53
1, 337073, Control_c, 0, 64, 57
1, 337088, Control_c, 0, 64, 59
1, 337103, Control_c, 0, 64, 59
1, 337117, Control_c, 0, 64, 60
1, 337132, Control_c, 0, 64, 60
1, 337147, Control_c, 0, 64, 61
1, 337162, Control_c, 0, 64, 62
1, 337177, Control_c, 0, 64, 62
1, 337191, Control_c, 0, 64, 63
1, 337206, Control_c, 0, 64, 63
1, 337236, Control_c, 0, 64, 64
1, 337266, Control_c, 0, 64, 64
1, 337281, Control_c, 0, 64, 65
1, 337296, Control_c, 0, 64, 65
1, 337325, Control_c, 0, 64, 66
1, 337340, Control_c, 0, 64, 66
1, 337385, Control_c, 0, 64, 67
1, 337415, Control_c, 0, 64, 67
1, 337430, Control_c, 0, 64, 68
1, 337445, Control_c, 0, 64, 68
1, 337460, Control_c, 0, 64, 69
1, 337474, Control_c, 0, 64, 70
1, 337489, Control_c, 0, 64, 70
1, 337504, Control_c, 0, 64, 71
1, 337519, Control_c, 0, 64, 71
1, 337534, Control_c, 0, 64, 72
1, 337549, Control_c, 0, 64, 72
1, 337564, Control_c, 0, 64, 73
1, 337579, Control_c, 0, 64, 73
1, 337594, Control_c, 0, 64, 74
1, 337609, Control_c, 0, 64, 74
1, 337623, Control_c, 0, 64, 75
1, 337638, Control_c, 0, 64, 75
1, 337653, Control_c, 0, 64, 76
1, 337668, Control_c, 0, 64, 77
1, 337683, Control_c, 0, 64, 77
1, 337697, Control_c, 0, 64, 78
1, 337719, Control_c, 0, 64, 79
1, 337734, Poly_aftertouch_c, 0, 42, 127
1, 337734, Control_c, 0, 64, 80
1, 337749, Control_c, 0, 64, 80
1, 337764, Control_c, 0, 64, 81
1, 337779, Control_c, 0, 64, 82
1, 337793, Control_c, 0, 64, 83
1, 337808, Control_c, 0, 64, 85
1, 337823, Control_c, 0, 64, 86
1, 337838, Control_c, 0, 64, 88
1, 337853, Control_c, 0, 64, 90
1, 337867, Control_c, 0, 64, 91
1, 337882, Control_c, 0, 64, 94
1, 337897, Control_c, 0, 64, 96
1, 337912, Control_c, 0, 64, 99
1, 337927, Control_c, 0, 64, 102
1, 337941, Control_c, 0, 64, 105
1, 337956, Control_c, 0, 64, 108
1, 337971, Control_c, 0, 64, 111
1, 337986, Control_c, 0, 64, 116
1, 338001, Control_c, 0, 64, 127
1, 338005, Poly_aftertouch_c, 0, 63, 127
1, 338146, Poly_aftertouch_c, 0, 63, 0
1, 338308, Note_off_c, 0, 57, 32
1, 338312, Note_off_c, 0, 62, 28
1, 338448, Note_off_c, 0, 38, 35
1, 338484, Note_off_c, 0, 66, 30
1, 338643, Poly_aftertouch_c, 0, 42, 0
1, 338687, Note_off_c, 0, 50, 37
1, 339032, Control_c, 0, 64, 122
1, 339047, Control_c, 0, 64, 112
1, 339061, Control_c, 0, 64, 106
1, 339076, Control_c, 0, 64, 102
1, 339091, Control_c, 0, 64, 98
1, 339105, Control_c, 0, 64, 95
1, 339120, Control_c, 0, 64, 92
1, 339135, Control_c, 0, 64, 90
1, 339150, Control_c, 0, 64, 87
1, 339165, Control_c, 0, 64, 85
1, 339180, Control_c, 0, 64, 82
1, 339194, Control_c, 0, 64, 80
1, 339217, Control_c, 0, 64, 77
1, 339232, Control_c, 0, 64, 74
1, 339247, Control_c, 0, 64, 72
1, 339262, Control_c, 0, 64, 69
1, 339276, Control_c, 0, 64, 66
1, 339291, Control_c, 0, 64, 64
1, 339306, Control_c, 0, 64, 61
1, 339320, Control_c, 0, 64, 58
1, 339335, Control_c, 0, 64, 57
1, 339350, Control_c, 0, 64, 57
1, 339380, Control_c, 0, 64, 56
1, 339394, Control_c, 0, 64, 55
1, 339409, Control_c, 0, 64, 53
1, 339424, Control_c, 0, 64, 50
1, 339439, Control_c, 0, 64, 48
1, 339454, Control_c, 0, 64, 48
1, 339469, Control_c, 0, 64, 47
1, 339766, Control_c, 0, 64, 48
1, 339796, Control_c, 0, 64, 48
1, 339810, Control_c, 0, 64, 49
1, 339825, Control_c, 0, 64, 49
1, 339840, Control_c, 0, 64, 50
1, 339855, Control_c, 0, 64, 50
1, 339870, Control_c, 0, 64, 51
1, 339884, Control_c, 0, 64, 53
1, 339899, Control_c, 0, 64, 55
1, 339914, Control_c, 0, 64, 58
1, 339929, Control_c, 0, 64, 60
1, 339943, Control_c, 0, 64, 61
1, 339966, Control_c, 0, 64, 62
1, 339981, Control_c, 0, 64, 63
1, 339996, Control_c, 0, 64, 65
1, 340010, Control_c, 0, 64, 67
1, 340025, Control_c, 0, 64, 68
1, 340040, Control_c, 0, 64, 70
1, 340055, Control_c, 0, 64, 72
1, 340069, Control_c, 0, 64, 73
1, 340084, Control_c, 0, 64, 75
1, 340099, Note_on_c, 0, 67, 48
1, 340099, Control_c, 0, 64, 77
1, 340108, Note_on_c, 0, 52, 33
1, 340112, Note_on_c, 0, 59, 33
1, 340114, Control_c, 0, 64, 79
1, 340119, Note_on_c, 0, 64, 31
1, 340129, Control_c, 0, 64, 82
1, 340131, Note_on_c, 0, 40, 31
1, 340143, Control_c, 0, 64, 85
1, 340158, Control_c, 0, 64, 89
1, 340173, Control_c, 0, 64, 93
1, 340188, Control_c, 0, 64, 101
1, 340203, Control_c, 0, 64, 111
1, 340217, Control_c, 0, 64, 127
1, 340362, Note_off_c, 0, 52, 40
1, 340392, Note_off_c, 0, 40, 35
1, 340543, Note_off_c, 0, 59, 40
1, 340807, Note_on_c, 0, 69, 62
1, 340809, Note_off_c, 0, 64, 35
1, 340812, Note_off_c, 0, 67, 60
1, 340987, Note_off_c, 0, 69, 53
1, 341066, Note_on_c, 0, 60, 54
1, 341123, Note_on_c, 0, 66, 60
1, 341174, Control_c, 0, 64, 120
1, 341183, Note_on_c, 0, 33, 44
1, 341189, Note_on_c, 0, 45, 37
1, 341189, Control_c, 0, 64, 84
1, 341197, Note_on_c, 0, 67, 68
1, 341204, Control_c, 0, 64, 68
1, 341219, Control_c, 0, 64, 51
1, 341233, Control_c, 0, 64, 0
1, 341322, Control_c, 0, 64, 48
1, 341338, Control_c, 0, 64, 62
1, 341353, Control_c, 0, 64, 69
1, 341368, Control_c, 0, 64, 74
1, 341382, Control_c, 0, 64, 79
1, 341397, Control_c, 0, 64, 84
1, 341412, Control_c, 0, 64, 90
1, 341427, Control_c, 0, 64, 101
1, 341442, Control_c, 0, 64, 127
1, 341493, Note_off_c, 0, 33, 61
1, 342338, Note_on_c, 0, 52, 52
1, 342882, Note_on_c, 0, 71, 67
1, 342998, Note_off_c, 0, 60, 55
1, 343008, Note_off_c, 0, 67, 58
1, 343008, Note_off_c, 0, 71, 62
1, 343016, Note_off_c, 0, 66, 48
1, 343185, Note_on_c, 0, 67, 76
1, 343201, Note_on_c, 0, 64, 56
1, 343207, Note_on_c, 0, 60, 51
1, 343692, Note_on_c, 0, 69, 74
1, 343732, Note_off_c, 0, 67, 61
1, 343752, Note_off_c, 0, 64, 60
1, 343766, Note_off_c, 0, 60, 57
1, 343934, Note_on_c, 0, 50, 59
1, 343979, Note_off_c, 0, 45, 40
1, 343979, Note_off_c, 0, 52, 37
1, 343985, Note_on_c, 0, 66, 72
1, 343992, Control_c, 0, 64, 87
1, 344002, Note_on_c, 0, 64, 56
1, 344007, Control_c, 0, 64, 66
1, 344009, Note_off_c, 0, 69, 61
1, 344022, Control_c, 0, 64, 42
1, 344032, Note_on_c, 0, 59, 30
1, 344036, Control_c, 0, 64, 0
1, 344081, Control_c, 0, 64, 59
1, 344096, Control_c, 0, 64, 69
1, 344110, Control_c, 0, 64, 75
1, 344125, Control_c, 0, 64, 79
1, 344140, Control_c, 0, 64, 82
1, 344155, Control_c, 0, 64, 86
1, 344170, Control_c, 0, 64, 92
1, 344177, Note_off_c, 0, 64, 48
1, 344185, Control_c, 0, 64, 100
1, 344199, Note_off_c, 0, 59, 38
1, 344199, Control_c, 0, 64, 115
1, 344214, Control_c, 0, 64, 127
1, 344459, Note_on_c, 0, 54, 55
1, 344515, Note_off_c, 0, 66, 56
1, 344518, Control_c, 0, 64, 106
1, 344524, Note_on_c, 0, 60, 63
1, 344533, Control_c, 0, 64, 89
1, 344548, Control_c, 0, 64, 84
1, 344563, Control_c, 0, 64, 84
1, 344578, Control_c, 0, 64, 85
1, 344582, Note_on_c, 0, 62, 65
1, 344590, Note_off_c, 0, 60, 62
1, 344593, Control_c, 0, 64, 86
1, 344608, Control_c, 0, 64, 90
1, 344623, Control_c, 0, 64, 94
1, 344628, Note_on_c, 0, 69, 66
1, 344629, Note_off_c, 0, 50, 28
1, 344638, Control_c, 0, 64, 98
1, 344644, Note_off_c, 0, 54, 62
1, 344652, Control_c, 0, 64, 102
1, 344667, Control_c, 0, 64, 106
1, 344682, Control_c, 0, 64, 109
1, 344721, Note_off_c, 0, 62, 49
1, 344885, Note_off_c, 0, 69, 48
1, 344918, Note_on_c, 0, 59, 52
1, 344968, Note_on_c, 0, 64, 54
1, 345007, Control_c, 0, 64, 104
1, 345019, Note_on_c, 0, 31, 42
1, 345022, Control_c, 0, 64, 96
1, 345034, Note_on_c, 0, 66, 72
1, 345037, Control_c, 0, 64, 86
1, 345044, Note_on_c, 0, 43, 38
1, 345052, Control_c, 0, 64, 73
1, 345067, Control_c, 0, 64, 58
1, 345082, Control_c, 0, 64, 0
1, 345207, Control_c, 0, 64, 45
1, 345222, Control_c, 0, 64, 58
1, 345237, Control_c, 0, 64, 66
1, 345252, Control_c, 0, 64, 71
1, 345267, Control_c, 0, 64, 77
1, 345281, Control_c, 0, 64, 80
1, 345296, Control_c, 0, 64, 84
1, 345311, Control_c, 0, 64, 89
1, 345312, Note_off_c, 0, 31, 59
1, 345326, Control_c, 0, 64, 96
1, 345342, Control_c, 0, 64, 112
1, 345356, Control_c, 0, 64, 127
1, 346055, Note_on_c, 0, 50, 50
1, 346623, Note_on_c, 0, 69, 64
1, 346745, Note_off_c, 0, 69, 59
1, 346748, Note_off_c, 0, 59, 41
1, 346753, Note_off_c, 0, 64, 51
1, 346754, Note_off_c, 0, 66, 61
1, 346924, Note_on_c, 0, 66, 74
1, 346944, Note_on_c, 0, 64, 56
1, 346945, Note_on_c, 0, 60, 52
1, 347444, Note_on_c, 0, 67, 75
1, 347475, Note_off_c, 0, 60, 57
1, 347527, Note_off_c, 0, 64, 39
1, 347532, Note_off_c, 0, 66, 52
1, 347672, Note_on_c, 0, 48, 62
1, 347684, Note_off_c, 0, 50, 56
1, 347725, Note_off_c, 0, 43, 41
1, 347737, Control_c, 0, 64, 93
1, 347741, Note_on_c, 0, 64, 66
1, 347751, Control_c, 0, 64, 69
1, 347756, Note_on_c, 0, 62, 61
1, 347763, Note_off_c, 0, 67, 60
1, 347764, Note_on_c, 0, 59, 50
1, 347766, Control_c, 0, 64, 44
1, 347781, Control_c, 0, 64, 0
1, 347810, Control_c, 0, 64, 39
1, 347825, Control_c, 0, 64, 62
1, 347840, Control_c, 0, 64, 75
1, 347855, Control_c, 0, 64, 94
1, 347870, Control_c, 0, 64, 109
1, 347884, Control_c, 0, 64, 113
1, 347899, Control_c, 0, 64, 127
1, 347923, Note_off_c, 0, 62, 61
1, 347936, Note_off_c, 0, 64, 61
1, 348042, Note_off_c, 0, 59, 46
1, 348221, Note_on_c, 0, 52, 37
1, 348242, Note_on_c, 0, 55, 55
1, 348301, Note_on_c, 0, 60, 57
1, 348315, Note_off_c, 0, 55, 59
1, 348325, Note_off_c, 0, 48, 34
1, 348337, Note_on_c, 0, 64, 61
1, 348358, Note_off_c, 0, 52, 60
1, 348368, Note_off_c, 0, 60, 62
1, 348411, Note_on_c, 0, 71, 75
1, 348433, Note_off_c, 0, 64, 60
1, 348639, Note_off_c, 0, 71, 42
1, 348672, Note_on_c, 0, 59, 49
1, 348719, Note_on_c, 0, 62, 61
1, 348782, Control_c, 0, 64, 91
1, 348789, Note_on_c, 0, 42, 48
1, 348790, Note_on_c, 0, 64, 66
1, 348796, Note_on_c, 0, 30, 45
1, 348797, Control_c, 0, 64, 71
1, 348812, Control_c, 0, 64, 53
1, 348826, Control_c, 0, 64, 0
1, 348930, Control_c, 0, 64, 51
1, 348952, Control_c, 0, 64, 64
1, 348967, Control_c, 0, 64, 72
1, 348982, Control_c, 0, 64, 80
1, 348997, Control_c, 0, 64, 86
1, 349012, Control_c, 0, 64, 90
1, 349026, Control_c, 0, 64, 95
1, 349041, Control_c, 0, 64, 105
1, 349055, Note_off_c, 0, 30, 54
1, 349056, Control_c, 0, 64, 127
1, 349765, Note_on_c, 0, 48, 56
1, 350315, Note_on_c, 0, 67, 65
1, 350407, Note_off_c, 0, 59, 44
1, 350425, Note_off_c, 0, 64, 57
1, 350432, Note_off_c, 0, 62, 58
1, 350437, Note_off_c, 0, 67, 60
1, 350612, Note_on_c, 0, 64, 72
1, 350629, Note_on_c, 0, 62, 62
1, 350630, Note_on_c, 0, 57, 56
1, 351178, Note_on_c, 0, 66, 69
1, 351294, Note_off_c, 0, 64, 56
1, 351309, Note_off_c, 0, 62, 41
1, 351414, Note_off_c, 0, 48, 56
1, 351433, Note_on_c, 0, 47, 49
1, 351505, Note_on_c, 0, 63, 69
1, 351509, Control_c, 0, 64, 85
1, 351521, Note_off_c, 0, 66, 63
1, 351524, Control_c, 0, 64, 67
1, 351527, Note_on_c, 0, 60, 54
1, 351539, Control_c, 0, 64, 51
1, 351543, Note_off_c, 0, 42, 62
1, 351553, Control_c, 0, 64, 0
1, 351583, Control_c, 0, 64, 35
1, 351598, Control_c, 0, 64, 56
1, 351613, Control_c, 0, 64, 67
1, 351628, Control_c, 0, 64, 76
1, 351643, Control_c, 0, 64, 82
1, 351658, Control_c, 0, 64, 83
1, 351672, Control_c, 0, 64, 84
1, 351687, Control_c, 0, 64, 86
1, 351702, Control_c, 0, 64, 89
1, 351716, Note_off_c, 0, 57, 54
1, 351717, Control_c, 0, 64, 93
1, 351732, Control_c, 0, 64, 100
1, 351747, Control_c, 0, 64, 112
1, 351762, Control_c, 0, 64, 127
1, 351777, Note_off_c, 0, 60, 55
1, 352012, Note_on_c, 0, 48, 62
1, 352054, Note_off_c, 0, 47, 61
1, 352100, Note_on_c, 0, 64, 74
1, 352108, Note_on_c, 0, 59, 55
1, 352115, Note_on_c, 0, 61, 15
1, 352127, Note_on_c, 0, 56, 59
1, 352129, Note_off_c, 0, 48, 63
1, 352165, Note_off_c, 0, 56, 58
1, 352182, Note_off_c, 0, 59, 58
1, 352224, Note_off_c, 0, 61, 33
1, 352248, Note_off_c, 0, 64, 60
1, 352260, Note_off_c, 0, 63, 27
1, 352270, Note_on_c, 0, 55, 67
1, 352338, Note_on_c, 0, 58, 64
1, 352472, Note_on_c, 0, 40, 56
1, 352473, Note_on_c, 0, 49, 67
1, 352491, Note_on_c, 0, 66, 78
1, 352494, Control_c, 0, 64, 96
1, 352497, Note_off_c, 0, 55, 36
1, 352509, Control_c, 0, 64, 67
1, 352525, Control_c, 0, 64, 42
1, 352540, Control_c, 0, 64, 0
1, 352568, Note_off_c, 0, 58, 63
1, 352570, Control_c, 0, 64, 47
1, 352585, Control_c, 0, 64, 66
1, 352599, Control_c, 0, 64, 83
1, 352614, Control_c, 0, 64, 127
1, 352695, Note_off_c, 0, 66, 60
1, 352839, Note_on_c, 0, 67, 79
1, 352890, Note_off_c, 0, 40, 34
1, 352933, Note_off_c, 0, 49, 64
1, 352940, Note_on_c, 0, 55, 66
1, 353035, Note_on_c, 0, 70, 85
1, 353118, Note_off_c, 0, 67, 60
1, 353196, Note_on_c, 0, 75, 85
1, 353297, Note_on_c, 0, 61, 69
1, 353328, Note_off_c, 0, 55, 60
1, 353381, Note_on_c, 0, 76, 88
1, 353422, Note_off_c, 0, 75, 62
1, 353698, Note_on_c, 0, 64, 54
1, 353711, Note_on_c, 0, 59, 43
1, 353771, Control_c, 0, 64, 89
1, 353786, Control_c, 0, 64, 70
1, 353795, Note_on_c, 0, 78, 79
1, 353801, Control_c, 0, 64, 53
1, 353815, Control_c, 0, 64, 0
1, 353866, Note_off_c, 0, 76, 55
1, 353963, Control_c, 0, 64, 35
1, 353978, Control_c, 0, 64, 51
1, 353993, Control_c, 0, 64, 62
1, 354008, Control_c, 0, 64, 67
1, 354022, Control_c, 0, 64, 71
1, 354037, Control_c, 0, 64, 74
1, 354052, Control_c, 0, 64, 77
1, 354066, Control_c, 0, 64, 80
1, 354081, Control_c, 0, 64, 85
1, 354093, Note_off_c, 0, 70, 58
1, 354096, Control_c, 0, 64, 92
1, 354112, Control_c, 0, 64, 101
1, 354125, Note_off_c, 0, 61, 37
1, 354127, Control_c, 0, 64, 117
1, 354142, Control_c, 0, 64, 127
1, 354727, Control_c, 0, 64, 120
1, 354742, Control_c, 0, 64, 113
1, 354757, Control_c, 0, 64, 108
1, 354771, Control_c, 0, 64, 104
1, 354786, Control_c, 0, 64, 100
1, 354801, Control_c, 0, 64, 96
1, 354816, Control_c, 0, 64, 93
1, 354831, Control_c, 0, 64, 90
1, 354845, Control_c, 0, 64, 87
1, 354860, Control_c, 0, 64, 84
1, 354875, Note_on_c, 0, 71, 44
1, 354875, Control_c, 0, 64, 80
1, 354880, Note_on_c, 0, 63, 38
1, 354889, Control_c, 0, 64, 76
1, 354905, Control_c, 0, 64, 71
1, 354920, Control_c, 0, 64, 65
1, 354925, Note_off_c, 0, 64, 43
1, 354943, Control_c, 0, 64, 55
1, 354957, Control_c, 0, 64, 41
1, 354972, Control_c, 0, 64, 0
1, 355209, Control_c, 0, 64, 34
1, 355224, Control_c, 0, 64, 46
1, 355239, Control_c, 0, 64, 58
1, 355254, Control_c, 0, 64, 63
1, 355268, Control_c, 0, 64, 64
1, 355283, Control_c, 0, 64, 65
1, 355298, Control_c, 0, 64, 65
1, 355312, Control_c, 0, 64, 67
1, 355327, Control_c, 0, 64, 69
1, 355342, Control_c, 0, 64, 72
1, 355357, Control_c, 0, 64, 76
1, 355372, Control_c, 0, 64, 80
1, 355387, Control_c, 0, 64, 83
1, 355402, Control_c, 0, 64, 87
1, 355417, Control_c, 0, 64, 92
1, 355431, Control_c, 0, 64, 99
1, 355446, Control_c, 0, 64, 107
1, 355461, Control_c, 0, 64, 127
1, 355486, Note_off_c, 0, 71, 35
1, 355551, Note_off_c, 0, 63, 28
1, 355565, Note_off_c, 0, 78, 36
1, 355640, Note_off_c, 0, 59, 32
1, 355988, Control_c, 0, 64, 117
1, 356003, Control_c, 0, 64, 111
1, 356017, Control_c, 0, 64, 106
1, 356032, Control_c, 0, 64, 102
1, 356047, Control_c, 0, 64, 99
1, 356061, Control_c, 0, 64, 96
1, 356076, Control_c, 0, 64, 94
1, 356091, Control_c, 0, 64, 92
1, 356106, Control_c, 0, 64, 90
1, 356121, Control_c, 0, 64, 88
1, 356135, Control_c, 0, 64, 85
1, 356150, Control_c, 0, 64, 82
1, 356165, Control_c, 0, 64, 80
1, 356180, Control_c, 0, 64, 78
1, 356195, Control_c, 0, 64, 76
1, 356209, Control_c, 0, 64, 74
1, 356224, Control_c, 0, 64, 71
1, 356239, Control_c, 0, 64, 67
1, 356254, Control_c, 0, 64, 64
1, 356269, Control_c, 0, 64, 62
1, 356284, Control_c, 0, 64, 60
1, 356299, Control_c, 0, 64, 58
1, 356314, Control_c, 0, 64, 57
1, 356343, Control_c, 0, 64, 57
1, 356358, Control_c, 0, 64, 56
1, 356373, Control_c, 0, 64, 55
1, 356388, Control_c, 0, 64, 54
1, 356403, Control_c, 0, 64, 53
1, 356417, Control_c, 0, 64, 53
1, 356439, Control_c, 0, 64, 52
1, 356454, Control_c, 0, 64, 51
1, 356469, Control_c, 0, 64, 50
1, 356484, Control_c, 0, 64, 48
1, 356499, Control_c, 0, 64, 47
1, 356544, Control_c, 0, 64, 47
1, 356559, Control_c, 0, 64, 46
1, 356870, Control_c, 0, 64, 47
1, 356914, Control_c, 0, 64, 47
1, 356929, Control_c, 0, 64, 48
1, 356944, Control_c, 0, 64, 49
1, 356958, Control_c, 0, 64, 50
1, 356973, Control_c, 0, 64, 51
1, 356988, Control_c, 0, 64, 52
1, 357003, Control_c, 0, 64, 53
1, 357018, Control_c, 0, 64, 56
1, 357032, Note_on_c, 0, 67, 56
1, 357032, Control_c, 0, 64, 59
1, 357044, Note_on_c, 0, 64, 41
1, 357047, Control_c, 0, 64, 62
1, 357048, Note_on_c, 0, 52, 38
1, 357056, Note_on_c, 0, 59, 36
1, 357062, Control_c, 0, 64, 65
1, 357077, Control_c, 0, 64, 69
1, 357092, Control_c, 0, 64, 73
1, 357107, Control_c, 0, 64, 77
1, 357122, Control_c, 0, 64, 82
1, 357137, Control_c, 0, 64, 89
1, 357151, Control_c, 0, 64, 99
1, 357166, Control_c, 0, 64, 127
1, 357239, Note_off_c, 0, 59, 48
1, 357329, Note_off_c, 0, 52, 35
1, 357330, Note_off_c, 0, 64, 38
1, 357628, Note_on_c, 0, 69, 70
1, 357642, Note_on_c, 0, 60, 52
1, 357643, Note_on_c, 0, 64, 49
1, 357704, Note_off_c, 0, 60, 48
1, 357712, Note_off_c, 0, 64, 42
1, 357783, Note_off_c, 0, 67, 38
1, 357989, Note_on_c, 0, 33, 47
1, 357991, Note_on_c, 0, 45, 47
1, 357992, Note_on_c, 0, 67, 66
1, 357995, Note_off_c, 0, 69, 57
1, 358013, Control_c, 0, 64, 85
1, 358016, Note_on_c, 0, 62, 53
1, 358028, Note_on_c, 0, 64, 42
1, 358028, Control_c, 0, 64, 64
1, 358042, Control_c, 0, 64, 42
1, 358057, Control_c, 0, 64, 0
1, 358087, Control_c, 0, 64, 43
1, 358096, Note_off_c, 0, 62, 39
1, 358102, Control_c, 0, 64, 63
1, 358117, Control_c, 0, 64, 78
1, 358132, Control_c, 0, 64, 104
1, 358145, Note_off_c, 0, 33, 61
1, 358147, Control_c, 0, 64, 127
1, 358179, Note_off_c, 0, 64, 60
1, 358189, Note_off_c, 0, 67, 61
1, 358226, Note_off_c, 0, 45, 63
1, 358561, Note_on_c, 0, 79, 48
1, 358565, Note_on_c, 0, 52, 38
1, 358820, Note_off_c, 0, 79, 61
1, 358849, Note_on_c, 0, 76, 53
1, 358857, Note_on_c, 0, 64, 34
1, 358898, Note_off_c, 0, 52, 39
1, 358907, Note_off_c, 0, 76, 61
1, 359118, Note_off_c, 0, 64, 37
1, 359294, Note_on_c, 0, 55, 49
1, 359342, Note_on_c, 0, 71, 71
1, 359360, Note_on_c, 0, 60, 54
1, 359367, Note_on_c, 0, 64, 43
1, 359457, Note_off_c, 0, 60, 46
1, 359497, Note_off_c, 0, 64, 62
1, 359613, Note_on_c, 0, 67, 73
1, 359618, Note_on_c, 0, 52, 57
1, 359621, Note_off_c, 0, 71, 60
1, 359626, Note_on_c, 0, 64, 59
1, 359627, Note_on_c, 0, 62, 57
1, 359629, Control_c, 0, 64, 86
1, 359641, Note_off_c, 0, 55, 56
1, 359643, Control_c, 0, 64, 69
1, 359658, Control_c, 0, 64, 62
1, 359673, Control_c, 0, 64, 60
1, 359688, Control_c, 0, 64, 63
1, 359703, Control_c, 0, 64, 68
1, 359718, Control_c, 0, 64, 79
1, 359733, Control_c, 0, 64, 95
1, 359748, Control_c, 0, 64, 127
1, 359767, Note_off_c, 0, 62, 34
1, 359778, Note_off_c, 0, 64, 61
1, 360068, Note_off_c, 0, 52, 57
1, 360072, Note_on_c, 0, 45, 54
1, 360073, Control_c, 0, 64, 115
1, 360075, Note_on_c, 0, 69, 75
1, 360082, Note_on_c, 0, 64, 61
1, 360083, Note_on_c, 0, 60, 62
1, 360088, Note_off_c, 0, 67, 56
1, 360088, Control_c, 0, 64, 85
1, 360103, Control_c, 0, 64, 76
1, 360117, Control_c, 0, 64, 76
1, 360132, Control_c, 0, 64, 79
1, 360147, Control_c, 0, 64, 87
1, 360162, Control_c, 0, 64, 99
1, 360168, Note_off_c, 0, 64, 57
1, 360171, Note_off_c, 0, 60, 32
1, 360184, Control_c, 0, 64, 109
1, 360199, Control_c, 0, 64, 115
1, 360214, Control_c, 0, 64, 127
1, 360336, Note_on_c, 0, 50, 62
1, 360344, Note_on_c, 0, 66, 73
1, 360348, Note_off_c, 0, 69, 58
1, 360350, Note_off_c, 0, 45, 58
1, 360354, Note_on_c, 0, 59, 53
1, 360355, Note_on_c, 0, 64, 65
1, 360362, Control_c, 0, 64, 87
1, 360377, Control_c, 0, 64, 67
1, 360392, Control_c, 0, 64, 47
1, 360407, Control_c, 0, 64, 0
1, 360436, Control_c, 0, 64, 45
1, 360451, Control_c, 0, 64, 64
1, 360466, Control_c, 0, 64, 78
1, 360481, Control_c, 0, 64, 94
1, 360483, Note_off_c, 0, 59, 53
1, 360496, Control_c, 0, 64, 107
1, 360511, Note_off_c, 0, 64, 52
1, 360511, Control_c, 0, 64, 110
1, 360526, Control_c, 0, 64, 116
1, 360541, Control_c, 0, 64, 127
1, 360752, Note_on_c, 0, 54, 57
1, 360767, Note_off_c, 0, 66, 56
1, 360780, Note_on_c, 0, 57, 63
1, 360794, Control_c, 0, 64, 104
1, 360808, Control_c, 0, 64, 96
1, 360830, Note_on_c, 0, 60, 59
1, 360832, Note_off_c, 0, 50, 37
1, 360852, Control_c, 0, 64, 101
1, 360859, Note_off_c, 0, 57, 61
1, 360866, Note_on_c, 0, 62, 64
1, 360867, Control_c, 0, 64, 106
1, 360882, Control_c, 0, 64, 110
1, 360894, Note_off_c, 0, 54, 60
1, 360897, Control_c, 0, 64, 113
1, 360912, Control_c, 0, 64, 115
1, 360916, Note_on_c, 0, 69, 71
1, 360919, Note_off_c, 0, 60, 64
1, 360934, Control_c, 0, 64, 119
1, 360960, Note_off_c, 0, 62, 62
1, 361154, Note_off_c, 0, 69, 51
1, 361185, Control_c, 0, 64, 107
1, 361200, Control_c, 0, 64, 92
1, 361211, Note_on_c, 0, 66, 66
1, 361214, Note_on_c, 0, 64, 57
1, 361215, Control_c, 0, 64, 73
1, 361216, Note_on_c, 0, 31, 47
1, 361219, Note_on_c, 0, 43, 49
1, 361226, Note_on_c, 0, 60, 48
1, 361230, Control_c, 0, 64, 58
1, 361245, Control_c, 0, 64, 0
1, 361289, Control_c, 0, 64, 38
1, 361305, Control_c, 0, 64, 64
1, 361320, Control_c, 0, 64, 88
1, 361332, Note_off_c, 0, 60, 57
1, 361335, Control_c, 0, 64, 127
1, 361367, Note_off_c, 0, 31, 48
1, 361369, Note_off_c, 0, 64, 60
1, 361408, Note_off_c, 0, 66, 62
1, 361431, Note_off_c, 0, 43, 62
1, 361782, Note_on_c, 0, 78, 57
1, 361787, Note_on_c, 0, 50, 43
1, 362032, Note_off_c, 0, 78, 61
1, 362066, Note_on_c, 0, 74, 53
1, 362070, Note_on_c, 0, 62, 40
1, 362106, Note_off_c, 0, 74, 60
1, 362166, Note_off_c, 0, 50, 35
1, 362407, Note_off_c, 0, 62, 40
1, 362536, Note_on_c, 0, 54, 55
1, 362587, Note_on_c, 0, 69, 75
1, 362601, Note_on_c, 0, 59, 53
1, 362611, Note_on_c, 0, 62, 54
1, 362692, Note_off_c, 0, 59, 56
1, 362736, Note_off_c, 0, 62, 59
1, 362832, Note_on_c, 0, 50, 60
1, 362832, Note_off_c, 0, 69, 60
1, 362833, Note_on_c, 0, 66, 74
1, 362836, Note_on_c, 0, 64, 66
1, 362838, Note_off_c, 0, 54, 57
1, 362839, Note_on_c, 0, 60, 65
1, 362846, Control_c, 0, 64, 98
1, 362861, Control_c, 0, 64, 77
1, 362876, Control_c, 0, 64, 69
1, 362891, Control_c, 0, 64, 67
1, 362907, Control_c, 0, 64, 70
1, 362922, Control_c, 0, 64, 74
1, 362924, Note_off_c, 0, 60, 51
1, 362936, Control_c, 0, 64, 79
1, 362951, Control_c, 0, 64, 84
1, 362966, Control_c, 0, 64, 87
1, 362981, Control_c, 0, 64, 89
1, 362996, Control_c, 0, 64, 90
1, 362999, Note_off_c, 0, 64, 59
1, 363011, Control_c, 0, 64, 91
1, 363026, Control_c, 0, 64, 92
1, 363055, Control_c, 0, 64, 92
1, 363070, Control_c, 0, 64, 93
1, 363085, Control_c, 0, 64, 94
1, 363100, Control_c, 0, 64, 94
1, 363115, Control_c, 0, 64, 95
1, 363289, Note_on_c, 0, 41, 43
1, 363291, Note_on_c, 0, 67, 78
1, 363303, Note_on_c, 0, 62, 66
1, 363307, Note_on_c, 0, 59, 57
1, 363309, Note_off_c, 0, 50, 57
1, 363316, Note_off_c, 0, 66, 59
1, 363334, Note_on_c, 0, 43, 20
1, 363344, Control_c, 0, 64, 96
1, 363374, Note_off_c, 0, 43, 54
1, 363376, Note_off_c, 0, 59, 40
1, 363384, Note_off_c, 0, 62, 54
1, 363388, Control_c, 0, 64, 98
1, 363418, Control_c, 0, 64, 101
1, 363462, Control_c, 0, 64, 103
1, 363548, Note_on_c, 0, 48, 60
1, 363551, Control_c, 0, 64, 95
1, 363555, Note_on_c, 0, 64, 72
1, 363563, Note_off_c, 0, 67, 55
1, 363565, Note_on_c, 0, 57, 65
1, 363566, Control_c, 0, 64, 76
1, 363570, Note_on_c, 0, 62, 63
1, 363581, Control_c, 0, 64, 60
1, 363596, Control_c, 0, 64, 0
1, 363598, Note_off_c, 0, 41, 46
1, 363641, Control_c, 0, 64, 50
1, 363655, Control_c, 0, 64, 66
1, 363670, Control_c, 0, 64, 80
1, 363685, Control_c, 0, 64, 93
1, 363700, Control_c, 0, 64, 99
1, 363715, Note_off_c, 0, 57, 60
1, 363730, Control_c, 0, 64, 105
1, 363745, Control_c, 0, 64, 112
1, 363747, Note_off_c, 0, 62, 57
1, 363759, Control_c, 0, 64, 127
1, 363909, Note_off_c, 0, 64, 59
1, 363994, Note_on_c, 0, 55, 57
1, 364016, Note_on_c, 0, 40, 53
1, 364034, Note_off_c, 0, 48, 54
1, 364047, Note_on_c, 0, 60, 68
1, 364073, Note_off_c, 0, 55, 62
1, 364103, Note_on_c, 0, 67, 71
1, 364180, Note_off_c, 0, 60, 59
1, 364389, Control_c, 0, 64, 116
1, 364403, Control_c, 0, 64, 73
1, 364410, Note_on_c, 0, 30, 47
1, 364410, Note_on_c, 0, 42, 45
1, 364410, Note_off_c, 0, 67, 51
1, 364418, Control_c, 0, 64, 50
1, 364421, Note_on_c, 0, 62, 53
1, 364421, Note_off_c, 0, 40, 55
1, 364422, Note_on_c, 0, 64, 63
1, 364422, Note_on_c, 0, 59, 55
1, 364433, Control_c, 0, 64, 0
1, 364492, Control_c, 0, 64, 49
1, 364507, Control_c, 0, 64, 69
1, 364520, Note_off_c, 0, 30, 60
1, 364522, Control_c, 0, 64, 84
1, 364523, Note_off_c, 0, 59, 60
1, 364537, Control_c, 0, 64, 106
1, 364552, Control_c, 0, 64, 127
1, 364580, Note_off_c, 0, 62, 59
1, 364589, Note_off_c, 0, 64, 61
1, 364596, Note_off_c, 0, 42, 62
1, 364953, Note_on_c, 0, 48, 38
1, 364961, Note_on_c, 0, 76, 57
1, 365204, Note_off_c, 0, 76, 55
1, 365227, Note_on_c, 0, 72, 54
1, 365244, Note_on_c, 0, 60, 38
1, 365276, Note_off_c, 0, 48, 39
1, 365286, Note_off_c, 0, 72, 53
1, 365484, Note_off_c, 0, 60, 40
1, 365658, Note_on_c, 0, 52, 54
1, 365716, Note_on_c, 0, 67, 74
1, 365731, Note_on_c, 0, 57, 61
1, 365737, Note_on_c, 0, 60, 54
1, 365814, Note_off_c, 0, 57, 52
1, 365856, Note_off_c, 0, 60, 57
1, 365943, Note_on_c, 0, 48, 61
1, 365954, Note_on_c, 0, 64, 73
1, 365961, Note_on_c, 0, 62, 65
1, 365965, Note_off_c, 0, 52, 50
1, 365966, Note_on_c, 0, 59, 56
1, 365974, Control_c, 0, 64, 78
1, 365989, Control_c, 0, 64, 60
1, 365993, Note_off_c, 0, 67, 40
1, 366004, Control_c, 0, 64, 49
1, 366019, Control_c, 0, 64, 53
1, 366034, Control_c, 0, 64, 61
1, 366048, Control_c, 0, 64, 70
1, 366063, Control_c, 0, 64, 81
1, 366078, Control_c, 0, 64, 95
1, 366093, Note_off_c, 0, 59, 36
1, 366094, Control_c, 0, 64, 103
1, 366109, Control_c, 0, 64, 108
1, 366124, Control_c, 0, 64, 119
1, 366138, Control_c, 0, 64, 127
1, 366367, Note_on_c, 0, 42, 65
1, 366368, Control_c, 0, 67, 118
1, 366382, Note_off_c, 0, 48, 62
1, 366383, Control_c, 0, 67, 107
1, 366397, Control_c, 0, 67, 96
1, 366412, Note_on_c, 0, 66, 81
1, 366412, Control_c, 0, 67, 81
1, 366413, Note_on_c, 0, 57, 62
1, 366420, Note_on_c, 0, 60, 55
1, 366427, Control_c, 0, 67, 68
1, 366442, Control_c, 0, 67, 54
1, 366457, Control_c, 0, 67, 38
1, 366471, Control_c, 0, 67, 21
1, 366481, Note_off_c, 0, 62, 42
1, 366486, Control_c, 0, 67, 0
1, 366493, Note_off_c, 0, 64, 52
1, 366510, Note_off_c, 0, 60, 61
1, 366555, Note_off_c, 0, 57, 57
1, 366643, Note_on_c, 0, 47, 66
1, 366669, Note_off_c, 0, 42, 63
1, 366693, Control_c, 0, 64, 80
1, 366708, Control_c, 0, 64, 54
1, 366715, Note_on_c, 0, 63, 80
1, 366720, Note_on_c, 0, 59, 55
1, 366723, Control_c, 0, 64, 0
1, 366726, Note_on_c, 0, 57, 59
1, 366747, Note_off_c, 0, 66, 61
1, 366768, Control_c, 0, 64, 52
1, 366771, Note_off_c, 0, 57, 58
1, 366783, Control_c, 0, 64, 68
1, 366795, Note_off_c, 0, 59, 61
1, 366797, Control_c, 0, 64, 86
1, 366812, Control_c, 0, 64, 110
1, 366827, Control_c, 0, 64, 127
1, 366863, Note_off_c, 0, 63, 60
1, 366980, Note_on_c, 0, 71, 79
1, 367206, Note_on_c, 0, 56, 70
1, 367207, Note_on_c, 0, 48, 64
1, 367215, Note_off_c, 0, 47, 62
1, 367231, Note_on_c, 0, 64, 74
1, 367247, Note_off_c, 0, 48, 62
1, 367272, Note_off_c, 0, 71, 60
1, 367282, Note_off_c, 0, 56, 60
1, 367371, Note_on_c, 0, 40, 56
1, 367413, Note_on_c, 0, 41, 29
1, 367453, Note_off_c, 0, 41, 43
1, 367469, Note_on_c, 0, 49, 64
1, 367501, Control_c, 0, 64, 96
1, 367516, Control_c, 0, 64, 63
1, 367531, Control_c, 0, 64, 0
1, 367555, Note_on_c, 0, 70, 79
1, 367558, Note_on_c, 0, 55, 75
1, 367559, Note_on_c, 0, 66, 70
1, 367572, Note_off_c, 0, 64, 59
1, 367575, Note_off_c, 0, 40, 62
1, 367576, Control_c, 0, 67, 21
1, 367591, Control_c, 0, 64, 58
1, 367591, Control_c, 0, 67, 24
1, 367597, Note_off_c, 0, 49, 64
1, 367605, Control_c, 0, 64, 71
1, 367620, Control_c, 0, 64, 82
1, 367635, Control_c, 0, 64, 92
1, 367650, Control_c, 0, 64, 95
1, 367671, Control_c, 0, 64, 98
1, 367671, Control_c, 0, 67, 26
1, 367686, Control_c, 0, 64, 103
1, 367703, Control_c, 0, 64, 109
1, 367718, Control_c, 0, 64, 127
1, 367732, Control_c, 0, 67, 24
1, 367797, Note_off_c, 0, 66, 60
1, 367814, Note_off_c, 0, 70, 59
1, 367825, Note_on_c, 0, 67, 82
1, 367907, Note_on_c, 0, 61, 69
1, 367919, Note_off_c, 0, 55, 61
1, 367969, Control_c, 0, 67, 22
1, 367991, Note_on_c, 0, 70, 87
1, 367999, Control_c, 0, 67, 19
1, 368028, Note_off_c, 0, 67, 61
1, 368029, Control_c, 0, 67, 0
1, 368139, Note_on_c, 0, 75, 84
1, 368206, Note_on_c, 0, 64, 62
1, 368206, Control_c, 0, 67, 19
1, 368251, Control_c, 0, 67, 0
1, 368309, Note_on_c, 0, 76, 83
1, 368371, Note_off_c, 0, 70, 62
1, 368512, Note_on_c, 0, 59, 58
1, 368516, Note_on_c, 0, 63, 66
1, 368533, Note_off_c, 0, 64, 58
1, 368559, Note_off_c, 0, 61, 55
1, 368571, Control_c, 0, 64, 110
1, 368586, Control_c, 0, 64, 71
1, 368586, Note_on_c, 0, 78, 78
1, 368588, Note_off_c, 0, 75, 13
1, 368594, Note_on_c, 0, 69, 59
1, 368600, Control_c, 0, 64, 43
1, 368609, Note_off_c, 0, 76, 61
1, 368615, Control_c, 0, 64, 0
1, 368704, Control_c, 0, 64, 38
1, 368718, Control_c, 0, 64, 59
1, 368733, Control_c, 0, 64, 71
1, 368748, Control_c, 0, 64, 83
1, 368748, Control_c, 0, 67, 20
1, 368763, Control_c, 0, 64, 102
1, 368775, Note_off_c, 0, 69, 61
1, 368778, Control_c, 0, 64, 127
1, 368781, Note_off_c, 0, 78, 63
1, 368837, Control_c, 0, 67, 22
1, 368956, Control_c, 0, 67, 20
1, 368971, Control_c, 0, 67, 0
1, 369091, Note_on_c, 0, 58, 64
1, 369176, Note_on_c, 0, 71, 81
1, 369187, Note_on_c, 0, 68, 68
1, 369243, Note_off_c, 0, 58, 59
1, 369304, Note_off_c, 0, 59, 38
1, 369414, Note_on_c, 0, 57, 74
1, 369438, Control_c, 0, 64, 76
1, 369446, Note_off_c, 0, 68, 61
1, 369453, Control_c, 0, 64, 57
1, 369453, Control_c, 0, 67, 20
1, 369468, Control_c, 0, 64, 0
1, 369483, Control_c, 0, 67, 23
1, 369487, Note_on_c, 0, 67, 70
1, 369492, Note_off_c, 0, 71, 62
1, 369497, Control_c, 0, 64, 43
1, 369512, Control_c, 0, 64, 59
1, 369527, Control_c, 0, 64, 67
1, 369541, Control_c, 0, 64, 73
1, 369556, Control_c, 0, 64, 76
1, 369571, Control_c, 0, 64, 77
1, 369571, Control_c, 0, 67, 26
1, 369601, Control_c, 0, 64, 77
1, 369630, Note_off_c, 0, 67, 60
1, 369630, Control_c, 0, 64, 78
1, 369645, Control_c, 0, 64, 79
1, 369655, Note_on_c, 0, 72, 81
1, 369660, Control_c, 0, 64, 80
1, 369674, Control_c, 0, 64, 82
1, 369689, Control_c, 0, 64, 85
1, 369704, Control_c, 0, 64, 87
1, 369704, Control_c, 0, 67, 28
1, 369719, Control_c, 0, 64, 88
1, 369734, Control_c, 0, 64, 92
1, 369749, Control_c, 0, 64, 96
1, 369764, Control_c, 0, 64, 104
1, 369779, Control_c, 0, 64, 127
1, 369795, Note_off_c, 0, 72, 58
1, 369808, Control_c, 0, 67, 30
1, 369814, Note_on_c, 0, 75, 84
1, 369823, Control_c, 0, 67, 34
1, 369838, Control_c, 0, 67, 36
1, 369948, Control_c, 0, 67, 35
1, 369958, Note_on_c, 0, 78, 91
1, 369972, Note_on_c, 0, 67, 70
1, 369988, Note_off_c, 0, 75, 60
1, 369996, Note_off_c, 0, 63, 59
1, 370004, Note_off_c, 0, 57, 62
1, 370008, Control_c, 0, 67, 36
1, 370022, Note_off_c, 0, 67, 55
1, 370053, Control_c, 0, 67, 35
1, 370098, Control_c, 0, 67, 36
1, 370115, Note_on_c, 0, 79, 91
1, 370142, Note_off_c, 0, 78, 59
1, 370199, Note_on_c, 0, 50, 57
1, 370261, Control_c, 0, 67, 37
1, 370276, Control_c, 0, 67, 38
1, 370305, Control_c, 0, 67, 39
1, 370335, Control_c, 0, 64, 99
1, 370335, Control_c, 0, 67, 39
1, 370350, Control_c, 0, 64, 65
1, 370350, Control_c, 0, 67, 40
1, 370364, Note_on_c, 0, 81, 87
1, 370364, Control_c, 0, 64, 0
1, 370364, Control_c, 0, 67, 43
1, 370368, Note_on_c, 0, 60, 45
1, 370377, Note_on_c, 0, 69, 64
1, 370378, Note_on_c, 0, 74, 64
1, 370379, Control_c, 0, 67, 46
1, 370388, Note_off_c, 0, 79, 60
1, 370392, Note_on_c, 0, 66, 60
1, 370394, Control_c, 0, 67, 48
1, 370409, Control_c, 0, 67, 49
1, 370424, Control_c, 0, 67, 51
1, 370438, Control_c, 0, 64, 49
1, 370438, Control_c, 0, 67, 56
1, 370453, Control_c, 0, 64, 65
1, 370453, Control_c, 0, 67, 62
1, 370468, Control_c, 0, 64, 73
1, 370468, Control_c, 0, 67, 66
1, 370483, Control_c, 0, 64, 78
1, 370483, Control_c, 0, 67, 67
1, 370497, Control_c, 0, 64, 80
1, 370497, Control_c, 0, 67, 67
1, 370512, Control_c, 0, 64, 81
1, 370512, Control_c, 0, 67, 68
1, 370513, Note_off_c, 0, 69, 58
1, 370527, Note_off_c, 0, 81, 58
1, 370527, Control_c, 0, 64, 84
1, 370527, Control_c, 0, 67, 70
1, 370542, Control_c, 0, 64, 87
1, 370542, Control_c, 0, 67, 75
1, 370556, Note_off_c, 0, 66, 55
1, 370557, Control_c, 0, 64, 91
1, 370557, Control_c, 0, 67, 80
1, 370571, Control_c, 0, 64, 94
1, 370571, Control_c, 0, 67, 83
1, 370586, Control_c, 0, 64, 96
1, 370586, Control_c, 0, 67, 84
1, 370601, Control_c, 0, 64, 98
1, 370601, Control_c, 0, 67, 86
1, 370616, Control_c, 0, 64, 101
1, 370616, Control_c, 0, 67, 88
1, 370631, Control_c, 0, 64, 104
1, 370631, Control_c, 0, 67, 91
1, 370640, Note_off_c, 0, 60, 52
1, 370646, Control_c, 0, 64, 106
1, 370646, Control_c, 0, 67, 92
1, 370683, Control_c, 0, 64, 108
1, 370712, Control_c, 0, 64, 111
1, 370727, Control_c, 0, 64, 113
1, 370771, Control_c, 0, 64, 115
1, 370801, Control_c, 0, 64, 119
1, 370825, Note_on_c, 0, 83, 74
1, 370831, Control_c, 0, 64, 122
1, 370846, Control_c, 0, 64, 124
1, 370855, Note_on_c, 0, 71, 46
1, 370861, Control_c, 0, 64, 127
1, 370873, Note_off_c, 0, 74, 61
1, 370906, Control_c, 0, 67, 92
1, 370920, Control_c, 0, 67, 93
1, 371057, Note_on_c, 0, 55, 50
1, 371065, Note_on_c, 0, 76, 54
1, 371066, Note_on_c, 0, 64, 43
1, 371084, Control_c, 0, 67, 93
1, 371103, Note_off_c, 0, 83, 56
1, 371117, Note_off_c, 0, 71, 34
1, 371132, Note_off_c, 0, 64, 55
1, 371135, Note_off_c, 0, 55, 60
1, 371173, Control_c, 0, 67, 94
1, 371247, Control_c, 0, 67, 96
1, 371261, Control_c, 0, 67, 99
1, 371276, Control_c, 0, 67, 102
1, 371350, Control_c, 0, 67, 105
1, 371365, Control_c, 0, 67, 108
1, 371417, Control_c, 0, 67, 110
1, 371432, Control_c, 0, 64, 122
1, 371446, Control_c, 0, 64, 97
1, 371446, Control_c, 0, 67, 114
1, 371450, Note_on_c, 0, 84, 66
1, 371457, Note_on_c, 0, 62, 36
1, 371461, Note_on_c, 0, 78, 43
1, 371461, Control_c, 0, 64, 82
1, 371461, Control_c, 0, 67, 119
1, 371466, Note_on_c, 0, 54, 40
1, 371476, Control_c, 0, 64, 67
1, 371476, Control_c, 0, 67, 121
1, 371478, Note_off_c, 0, 76, 48
1, 371488, Note_on_c, 0, 72, 31
1, 371491, Control_c, 0, 64, 49
1, 371506, Control_c, 0, 64, 0
1, 371535, Control_c, 0, 67, 126
1, 371594, Control_c, 0, 64, 47
1, 371609, Control_c, 0, 64, 64
1, 371624, Control_c, 0, 64, 74
1, 371639, Control_c, 0, 64, 85
1, 371654, Control_c, 0, 64, 94
1, 371668, Note_off_c, 0, 72, 39
1, 371668, Control_c, 0, 64, 102
1, 371677, Note_off_c, 0, 84, 57
1, 371683, Control_c, 0, 64, 127
1, 371690, Note_off_c, 0, 62, 39
1, 371722, Note_off_c, 0, 54, 60
1, 371728, Note_off_c, 0, 78, 62
1, 371740, Note_off_c, 0, 50, 46
1, 372047, Note_on_c, 0, 43, 47
1, 372055, Control_c, 0, 64, 100
1, 372069, Control_c, 0, 64, 68
1, 372084, Control_c, 0, 64, 52
1, 372099, Control_c, 0, 64, 44
1, 372114, Control_c, 0, 64, 51
1, 372129, Control_c, 0, 64, 59
1, 372142, Note_on_c, 0, 50, 35
1, 372143, Control_c, 0, 64, 66
1, 372166, Control_c, 0, 64, 72
1, 372178, Note_off_c, 0, 43, 57
1, 372181, Control_c, 0, 64, 75
1, 372196, Control_c, 0, 64, 76
1, 372203, Note_off_c, 0, 50, 59
1, 372229, Note_on_c, 0, 59, 46
1, 372255, Control_c, 0, 64, 76
1, 372284, Control_c, 0, 64, 77
1, 372299, Control_c, 0, 64, 78
1, 372310, Note_off_c, 0, 59, 60
1, 372314, Control_c, 0, 64, 79
1, 372329, Control_c, 0, 64, 80
1, 372331, Note_on_c, 0, 74, 46
1, 372343, Control_c, 0, 64, 82
1, 372358, Control_c, 0, 64, 85
1, 372373, Note_off_c, 0, 74, 62
1, 372373, Control_c, 0, 64, 87
1, 372388, Control_c, 0, 64, 89
1, 372403, Control_c, 0, 64, 90
1, 372405, Note_on_c, 0, 79, 59
1, 372417, Control_c, 0, 64, 91
1, 372432, Control_c, 0, 64, 93
1, 372447, Control_c, 0, 64, 95
1, 372461, Control_c, 0, 64, 97
1, 372476, Control_c, 0, 64, 99
1, 372507, Control_c, 0, 64, 101
1, 372566, Control_c, 0, 64, 103
1, 372571, Note_on_c, 0, 67, 44
1, 372575, Note_on_c, 0, 62, 41
1, 372592, Note_on_c, 0, 71, 46
1, 372648, Note_on_c, 0, 86, 74
1, 372673, Note_off_c, 0, 79, 61
1, 372685, Control_c, 0, 64, 105
1, 372701, Note_off_c, 0, 71, 54
1, 372706, Note_off_c, 0, 86, 64
1, 372745, Control_c, 0, 64, 108
1, 372759, Control_c, 0, 64, 111
1, 372774, Control_c, 0, 64, 116
1, 372789, Control_c, 0, 64, 127
1, 373086, Note_on_c, 0, 72, 46
1, 373093, Note_on_c, 0, 64, 28
1, 373099, Note_off_c, 0, 62, 33
1, 373128, Note_off_c, 0, 72, 52
1, 373344, Note_off_c, 0, 64, 39
1, 373359, Note_on_c, 0, 71, 46
1, 373374, Note_on_c, 0, 62, 29
1, 373399, Note_off_c, 0, 71, 47
1, 373401, Note_off_c, 0, 67, 42
1, 373424, Note_off_c, 0, 62, 47
1, 373564, Note_on_c, 0, 74, 50
1, 373579, Note_on_c, 0, 67, 5
1, 373643, Note_off_c, 0, 67, 44
1, 373770, Note_on_c, 0, 66, 48
1, 373777, Note_on_c, 0, 69, 53
1, 373782, Note_on_c, 0, 60, 46
1, 373806, Note_off_c, 0, 74, 33
1, 373817, Note_off_c, 0, 69, 60
1, 373936, Note_off_c, 0, 60, 58
1, 373980, Note_on_c, 0, 62, 36
1, 373988, Note_on_c, 0, 71, 38
1, 374024, Note_off_c, 0, 71, 51
1, 374151, Note_off_c, 0, 62, 37
1, 374183, Note_on_c, 0, 60, 27
1, 374190, Note_on_c, 0, 69, 36
1, 374232, Note_off_c, 0, 69, 47
1, 374283, Note_off_c, 0, 60, 37
1, 374283, Note_off_c, 0, 66, 37
1, 374349, Note_on_c, 0, 74, 61
1, 374350, Note_on_c, 0, 66, 32
1, 374371, Note_on_c, 0, 71, 42
1, 374514, Note_off_c, 0, 66, 39
1, 374538, Note_off_c, 0, 71, 20
1, 374557, Note_on_c, 0, 67, 50
1, 374558, Note_on_c, 0, 64, 47
1, 374565, Note_on_c, 0, 59, 42
1, 374575, Control_c, 0, 64, 105
1, 374590, Control_c, 0, 64, 89
1, 374605, Control_c, 0, 64, 83
1, 374620, Control_c, 0, 64, 83
1, 374634, Control_c, 0, 64, 84
1, 374635, Note_off_c, 0, 67, 59
1, 374648, Note_off_c, 0, 74, 33
1, 374649, Control_c, 0, 64, 86
1, 374664, Control_c, 0, 64, 88
1, 374679, Control_c, 0, 64, 90
1, 374694, Control_c, 0, 64, 91
1, 374709, Control_c, 0, 64, 93
1, 374724, Control_c, 0, 64, 94
1, 374726, Note_off_c, 0, 59, 58
1, 374738, Control_c, 0, 64, 94
1, 374753, Control_c, 0, 64, 95
1, 374760, Note_on_c, 0, 69, 44
1, 374769, Note_on_c, 0, 60, 29
1, 374797, Control_c, 0, 64, 95
1, 374798, Note_off_c, 0, 69, 48
1, 374812, Control_c, 0, 64, 96
1, 374856, Control_c, 0, 64, 98
1, 374938, Note_off_c, 0, 60, 39
1, 374954, Note_on_c, 0, 59, 35
1, 374956, Note_on_c, 0, 67, 42
1, 375000, Note_off_c, 0, 59, 45
1, 375002, Note_off_c, 0, 67, 48
1, 375028, Note_off_c, 0, 64, 41
1, 375139, Control_c, 0, 64, 100
1, 375143, Note_on_c, 0, 74, 63
1, 375144, Note_on_c, 0, 64, 36
1, 375161, Control_c, 0, 64, 102
1, 375167, Note_on_c, 0, 71, 40
1, 375176, Control_c, 0, 64, 106
1, 375180, Note_off_c, 0, 64, 51
1, 375185, Note_off_c, 0, 74, 60
1, 375191, Control_c, 0, 64, 109
1, 375195, Note_off_c, 0, 71, 55
1, 375206, Control_c, 0, 64, 113
1, 375220, Control_c, 0, 64, 120
1, 375235, Control_c, 0, 64, 127
1, 375350, Note_on_c, 0, 64, 50
1, 375353, Note_on_c, 0, 60, 54
1, 375383, Control_c, 0, 64, 98
1, 375398, Control_c, 0, 64, 73
1, 375411, Note_on_c, 0, 81, 83
1, 375412, Control_c, 0, 64, 57
1, 375427, Control_c, 0, 64, 36
1, 375433, Note_on_c, 0, 69, 59
1, 375442, Control_c, 0, 64, 0
1, 375457, Control_c, 0, 64, 45
1, 375472, Control_c, 0, 64, 58
1, 375487, Control_c, 0, 64, 67
1, 375502, Control_c, 0, 64, 75
1, 375517, Control_c, 0, 64, 83
1, 375532, Control_c, 0, 64, 86
1, 375561, Control_c, 0, 64, 86
1, 375576, Control_c, 0, 64, 87
1, 375591, Control_c, 0, 64, 88
1, 375594, Note_off_c, 0, 69, 20
1, 375605, Control_c, 0, 64, 91
1, 375620, Note_off_c, 0, 60, 52
1, 375620, Control_c, 0, 64, 96
1, 375627, Note_on_c, 0, 71, 57
1, 375635, Control_c, 0, 64, 101
1, 375638, Note_on_c, 0, 62, 42
1, 375644, Note_off_c, 0, 64, 56
1, 375648, Note_on_c, 0, 66, 50
1, 375650, Control_c, 0, 64, 112
1, 375665, Control_c, 0, 64, 127
1, 375680, Note_off_c, 0, 66, 57
1, 375802, Note_off_c, 0, 62, 20
1, 375819, Note_off_c, 0, 71, 41
1, 375835, Note_on_c, 0, 69, 53
1, 375844, Note_on_c, 0, 64, 42
1, 375861, Note_on_c, 0, 60, 30
1, 375874, Note_off_c, 0, 69, 60
1, 375927, Note_off_c, 0, 60, 42
1, 375997, Note_off_c, 0, 64, 36
1, 376051, Note_on_c, 0, 69, 48
1, 376071, Note_off_c, 0, 69, 65
1, 376117, Note_on_c, 0, 74, 68
1, 376123, Note_off_c, 0, 81, 57
1, 376193, Note_on_c, 0, 79, 73
1, 376195, Note_off_c, 0, 74, 61
1, 376251, Control_c, 0, 64, 83
1, 376266, Control_c, 0, 64, 62
1, 376281, Control_c, 0, 64, 55
1, 376283, Note_on_c, 0, 43, 61
1, 376296, Control_c, 0, 64, 58
1, 376307, Note_on_c, 0, 50, 43
1, 376310, Control_c, 0, 64, 63
1, 376325, Control_c, 0, 64, 68
1, 376328, Note_off_c, 0, 43, 62
1, 376340, Control_c, 0, 64, 75
1, 376342, Note_off_c, 0, 79, 55
1, 376354, Control_c, 0, 64, 84
1, 376366, Note_off_c, 0, 50, 62
1, 376369, Note_on_c, 0, 59, 61
1, 376369, Control_c, 0, 64, 89
1, 376384, Control_c, 0, 64, 90
1, 376399, Control_c, 0, 64, 92
1, 376409, Note_off_c, 0, 59, 57
1, 376414, Control_c, 0, 64, 96
1, 376422, Note_on_c, 0, 67, 47
1, 376429, Control_c, 0, 64, 100
1, 376444, Control_c, 0, 64, 106
1, 376459, Control_c, 0, 64, 112
1, 376462, Note_off_c, 0, 67, 65
1, 376465, Note_on_c, 0, 74, 68
1, 376474, Control_c, 0, 64, 127
1, 376514, Note_on_c, 0, 79, 73
1, 376530, Note_off_c, 0, 74, 61
1, 376569, Note_off_c, 0, 79, 66
1, 376663, Note_on_c, 0, 71, 58
1, 376666, Note_on_c, 0, 67, 48
1, 376667, Note_on_c, 0, 62, 46
1, 376727, Note_on_c, 0, 86, 84
1, 376766, Note_off_c, 0, 86, 65
1, 376771, Note_off_c, 0, 71, 61
1, 377055, Note_off_c, 0, 62, 57
1, 377082, Note_on_c, 0, 72, 56
1, 377091, Note_on_c, 0, 64, 46
1, 377121, Note_off_c, 0, 72, 59
1, 377293, Note_off_c, 0, 64, 39
1, 377302, Note_on_c, 0, 71, 46
1, 377314, Note_on_c, 0, 62, 34
1, 377364, Note_off_c, 0, 62, 50
1, 377365, Note_off_c, 0, 67, 42
1, 377414, Note_off_c, 0, 71, 37
1, 377493, Note_on_c, 0, 74, 66
1, 377502, Note_on_c, 0, 67, 43
1, 377502, Note_on_c, 0, 71, 40
1, 377571, Note_off_c, 0, 67, 44
1, 377670, Note_off_c, 0, 71, 23
1, 377696, Note_on_c, 0, 66, 51
1, 377711, Note_on_c, 0, 69, 48
1, 377715, Note_on_c, 0, 60, 46
1, 377720, Control_c, 0, 64, 103
1, 377735, Control_c, 0, 64, 82
1, 377749, Control_c, 0, 64, 80
1, 377764, Control_c, 0, 64, 85
1, 377767, Note_off_c, 0, 69, 62
1, 377779, Control_c, 0, 64, 98
1, 377794, Control_c, 0, 64, 127
1, 377859, Note_off_c, 0, 74, 34
1, 377874, Note_off_c, 0, 60, 61
1, 377902, Note_on_c, 0, 71, 46
1, 377908, Note_on_c, 0, 62, 40
1, 377931, Note_off_c, 0, 71, 57
1, 378065, Note_off_c, 0, 62, 38
1, 378079, Note_on_c, 0, 69, 50
1, 378088, Note_on_c, 0, 60, 37
1, 378132, Note_off_c, 0, 69, 46
1, 378140, Note_off_c, 0, 60, 48
1, 378170, Note_off_c, 0, 66, 58
1, 378266, Note_on_c, 0, 74, 67
1, 378290, Note_on_c, 0, 71, 41
1, 378302, Note_on_c, 0, 66, 26
1, 378416, Note_off_c, 0, 66, 42
1, 378459, Note_on_c, 0, 67, 54
1, 378468, Note_on_c, 0, 59, 50
1, 378468, Note_on_c, 0, 64, 55
1, 378483, Control_c, 0, 64, 91
1, 378494, Note_off_c, 0, 71, 42
1, 378498, Control_c, 0, 64, 72
1, 378513, Control_c, 0, 64, 67
1, 378527, Control_c, 0, 64, 70
1, 378534, Note_off_c, 0, 67, 61
1, 378542, Control_c, 0, 64, 79
1, 378557, Control_c, 0, 64, 103
1, 378572, Control_c, 0, 64, 127
1, 378652, Note_off_c, 0, 59, 61
1, 378654, Note_on_c, 0, 69, 58
1, 378665, Note_on_c, 0, 60, 51
1, 378694, Note_off_c, 0, 69, 57
1, 378706, Note_off_c, 0, 74, 30
1, 378849, Note_on_c, 0, 59, 39
1, 378852, Note_off_c, 0, 60, 43
1, 378920, Note_off_c, 0, 59, 56
1, 378942, Note_off_c, 0, 64, 40
1, 379063, Note_on_c, 0, 74, 65
1, 379069, Note_on_c, 0, 64, 44
1, 379079, Note_on_c, 0, 71, 43
1, 379094, Note_off_c, 0, 64, 57
1, 379105, Note_off_c, 0, 71, 55
1, 379108, Note_off_c, 0, 74, 59
1, 379255, Note_on_c, 0, 57, 60
1, 379261, Note_on_c, 0, 64, 51
1, 379262, Note_on_c, 0, 60, 57
1, 379306, Control_c, 0, 64, 85
1, 379311, Note_on_c, 0, 79, 92
1, 379320, Control_c, 0, 64, 63
1, 379322, Note_on_c, 0, 67, 71
1, 379335, Control_c, 0, 64, 38
1, 379350, Control_c, 0, 64, 0
1, 379365, Control_c, 0, 64, 43
1, 379379, Control_c, 0, 64, 60
1, 379394, Control_c, 0, 64, 72
1, 379409, Control_c, 0, 64, 85
1, 379424, Control_c, 0, 64, 96
1, 379439, Control_c, 0, 64, 99
1, 379446, Note_off_c, 0, 64, 49
1, 379453, Control_c, 0, 64, 102
1, 379468, Control_c, 0, 64, 111
1, 379472, Note_off_c, 0, 67, 59
1, 379475, Note_off_c, 0, 57, 61
1, 379483, Control_c, 0, 64, 127
1, 379499, Note_on_c, 0, 62, 52
1, 379501, Note_off_c, 0, 60, 55
1, 379502, Note_on_c, 0, 59, 46
1, 379513, Note_on_c, 0, 69, 53
1, 379702, Note_off_c, 0, 62, 58
1, 379702, Note_off_c, 0, 69, 53
1, 379711, Note_off_c, 0, 59, 57
1, 379744, Note_on_c, 0, 67, 57
1, 379746, Note_on_c, 0, 64, 45
1, 379747, Note_on_c, 0, 60, 50
1, 379756, Note_on_c, 0, 57, 35
1, 379769, Note_off_c, 0, 64, 58
1, 379772, Note_off_c, 0, 67, 67
1, 379789, Note_off_c, 0, 79, 63
1, 379853, Note_off_c, 0, 60, 55
1, 379946, Note_on_c, 0, 62, 47
1, 379952, Note_on_c, 0, 67, 51
1, 379958, Note_off_c, 0, 57, 51
1, 379966, Note_on_c, 0, 59, 49
1, 379983, Note_off_c, 0, 67, 65
1, 379992, Note_off_c, 0, 62, 59
1, 379998, Note_off_c, 0, 59, 65
1, 380027, Note_on_c, 0, 78, 83
1, 380037, Note_on_c, 0, 74, 67
1, 380039, Control_c, 0, 67, 124
1, 380054, Control_c, 0, 67, 120
1, 380060, Note_on_c, 0, 66, 32
1, 380091, Note_off_c, 0, 66, 53
1, 380173, Control_c, 0, 67, 123
1, 380180, Note_off_c, 0, 74, 57
1, 380191, Note_on_c, 0, 40, 67
1, 380202, Control_c, 0, 64, 89
1, 380217, Control_c, 0, 64, 57
1, 380232, Control_c, 0, 64, 0
1, 380239, Note_on_c, 0, 47, 57
1, 380247, Control_c, 0, 67, 126
1, 380257, Note_off_c, 0, 40, 63
1, 380262, Control_c, 0, 64, 34
1, 380276, Control_c, 0, 64, 61
1, 380279, Note_off_c, 0, 78, 58
1, 380291, Control_c, 0, 64, 75
1, 380303, Note_off_c, 0, 47, 65
1, 380305, Note_on_c, 0, 55, 70
1, 380306, Control_c, 0, 64, 93
1, 380320, Control_c, 0, 64, 127
1, 380344, Note_off_c, 0, 55, 61
1, 380377, Note_on_c, 0, 64, 63
1, 380419, Note_off_c, 0, 64, 65
1, 380441, Note_on_c, 0, 71, 72
1, 380506, Note_on_c, 0, 76, 84
1, 380509, Note_off_c, 0, 71, 66
1, 380543, Note_off_c, 0, 76, 63
1, 380636, Note_on_c, 0, 67, 63
1, 380643, Note_on_c, 0, 62, 56
1, 380645, Note_on_c, 0, 71, 63
1, 380725, Note_on_c, 0, 86, 93
1, 380766, Note_off_c, 0, 86, 66
1, 380781, Note_off_c, 0, 71, 54
1, 381034, Note_off_c, 0, 62, 57
1, 381059, Note_on_c, 0, 72, 52
1, 381097, Note_on_c, 0, 64, 26
1, 381101, Note_off_c, 0, 72, 58
1, 381265, Note_off_c, 0, 64, 42
1, 381287, Note_on_c, 0, 71, 46
1, 381303, Note_on_c, 0, 62, 31
1, 381326, Note_off_c, 0, 67, 53
1, 381346, Note_off_c, 0, 62, 55
1, 381353, Note_off_c, 0, 71, 51
1, 381464, Note_on_c, 0, 74, 70
1, 381476, Note_on_c, 0, 67, 46
1, 381479, Note_on_c, 0, 71, 55
1, 381493, Control_c, 0, 67, 124
1, 381540, Note_off_c, 0, 67, 44
1, 381636, Note_off_c, 0, 71, 23
1, 381653, Note_on_c, 0, 66, 58
1, 381654, Note_on_c, 0, 69, 63
1, 381663, Note_on_c, 0, 60, 55
1, 381685, Control_c, 0, 64, 96
1, 381685, Control_c, 0, 67, 126
1, 381700, Control_c, 0, 64, 93
1, 381715, Control_c, 0, 64, 96
1, 381720, Note_off_c, 0, 69, 62
1, 381729, Control_c, 0, 64, 127
1, 381741, Note_off_c, 0, 74, 36
1, 381824, Note_off_c, 0, 60, 61
1, 381842, Note_on_c, 0, 62, 51
1, 381848, Note_on_c, 0, 71, 53
1, 381876, Note_off_c, 0, 71, 62
1, 382015, Note_off_c, 0, 62, 46
1, 382050, Note_on_c, 0, 60, 32
1, 382051, Note_on_c, 0, 69, 50
1, 382108, Note_off_c, 0, 69, 57
1, 382121, Note_off_c, 0, 66, 56
1, 382130, Note_off_c, 0, 60, 58
1, 382230, Note_on_c, 0, 66, 46
1, 382230, Note_on_c, 0, 74, 64
1, 382242, Note_on_c, 0, 71, 51
1, 382420, Note_on_c, 0, 67, 57
1, 382421, Note_on_c, 0, 59, 53
1, 382422, Note_on_c, 0, 64, 55
1, 382434, Control_c, 0, 64, 81
1, 382449, Control_c, 0, 64, 66
1, 382450, Note_off_c, 0, 66, 39
1, 382464, Control_c, 0, 64, 64
1, 382477, Note_off_c, 0, 67, 63
1, 382477, Note_off_c, 0, 71, 35
1, 382478, Control_c, 0, 64, 67
1, 382493, Control_c, 0, 64, 75
1, 382508, Control_c, 0, 64, 89
1, 382522, Control_c, 0, 64, 127
1, 382595, Note_on_c, 0, 69, 60
1, 382599, Note_off_c, 0, 59, 61
1, 382614, Note_on_c, 0, 60, 46
1, 382633, Note_off_c, 0, 69, 59
1, 382752, Note_off_c, 0, 74, 35
1, 382787, Note_off_c, 0, 60, 44
1, 382793, Note_on_c, 0, 59, 44
1, 382799, Note_on_c, 0, 67, 54
1, 382855, Note_off_c, 0, 67, 49
1, 382871, Note_off_c, 0, 59, 45
1, 382873, Note_off_c, 0, 64, 41
1, 383004, Note_on_c, 0, 74, 67
1, 383013, Note_on_c, 0, 64, 44
1, 383017, Note_on_c, 0, 71, 44
1, 383035, Note_off_c, 0, 64, 58
1, 383042, Note_off_c, 0, 71, 57
1, 383044, Note_off_c, 0, 74, 60
1, 383190, Note_on_c, 0, 57, 63
1, 383190, Note_on_c, 0, 64, 54
1, 383192, Note_on_c, 0, 60, 62
1, 383227, Control_c, 0, 64, 103
1, 383242, Control_c, 0, 64, 71
1, 383243, Note_on_c, 0, 78, 85
1, 383257, Control_c, 0, 64, 54
1, 383261, Note_on_c, 0, 66, 69
1, 383272, Control_c, 0, 64, 40
1, 383287, Control_c, 0, 64, 45
1, 383301, Control_c, 0, 64, 57
1, 383316, Control_c, 0, 64, 66
1, 383331, Control_c, 0, 64, 77
1, 383345, Control_c, 0, 64, 87
1, 383360, Control_c, 0, 64, 91
1, 383375, Control_c, 0, 64, 93
1, 383378, Note_off_c, 0, 64, 37
1, 383398, Control_c, 0, 64, 97
1, 383413, Control_c, 0, 64, 102
1, 383422, Note_off_c, 0, 66, 36
1, 383427, Control_c, 0, 64, 113
1, 383433, Note_off_c, 0, 57, 60
1, 383442, Control_c, 0, 64, 127
1, 383456, Note_off_c, 0, 60, 56
1, 383461, Note_on_c, 0, 59, 46
1, 383463, Note_on_c, 0, 62, 51
1, 383470, Note_on_c, 0, 67, 56
1, 383489, Note_on_c, 0, 68, 40
1, 383578, Note_off_c, 0, 78, 61
1, 383643, Note_off_c, 0, 62, 57
1, 383651, Note_off_c, 0, 68, 33
1, 383653, Note_off_c, 0, 59, 61
1, 383653, Note_off_c, 0, 67, 50
1, 383682, Note_on_c, 0, 57, 60
1, 383682, Note_on_c, 0, 60, 47
1, 383682, Note_on_c, 0, 64, 54
1, 383684, Note_on_c, 0, 66, 65
1, 383709, Note_off_c, 0, 64, 62
1, 383726, Note_off_c, 0, 66, 53
1, 383765, Note_off_c, 0, 60, 53
1, 383866, Note_off_c, 0, 57, 61
1, 383887, Note_on_c, 0, 67, 54
1, 383887, Note_on_c, 0, 59, 52
1, 383887, Note_on_c, 0, 62, 50
1, 383917, Note_off_c, 0, 67, 65
1, 383929, Note_off_c, 0, 62, 63
1, 383931, Note_off_c, 0, 59, 59
1, 383962, Control_c, 0, 67, 124
1, 383965, Note_on_c, 0, 76, 83
1, 383980, Note_on_c, 0, 74, 60
1, 384015, Note_on_c, 0, 64, 3
1, 384050, Note_off_c, 0, 64, 38
1, 384095, Control_c, 0, 67, 126
1, 384098, Note_off_c, 0, 74, 45
1, 384135, Note_on_c, 0, 40, 64
1, 384176, Control_c, 0, 64, 80
1, 384187, Note_on_c, 0, 47, 61
1, 384191, Note_off_c, 0, 76, 30
1, 384191, Control_c, 0, 64, 55
1, 384206, Control_c, 0, 64, 0
1, 384221, Note_off_c, 0, 40, 62
1, 384221, Control_c, 0, 64, 37
1, 384236, Control_c, 0, 64, 57
1, 384251, Control_c, 0, 64, 69
1, 384263, Note_on_c, 0, 55, 67
1, 384263, Note_off_c, 0, 47, 64
1, 384266, Control_c, 0, 64, 85
1, 384281, Control_c, 0, 64, 116
1, 384295, Note_off_c, 0, 55, 63
1, 384295, Control_c, 0, 64, 127
1, 384310, Note_on_c, 0, 64, 65
1, 384337, Note_off_c, 0, 64, 68
1, 384379, Note_on_c, 0, 71, 70
1, 384417, Note_off_c, 0, 71, 64
1, 384434, Note_on_c, 0, 76, 50
1, 384457, Note_off_c, 0, 76, 53
1, 384495, Note_on_c, 0, 74, 72
1, 384553, Note_off_c, 0, 74, 61
1, 384562, Note_on_c, 0, 76, 75
1, 384650, Note_off_c, 0, 76, 60
1, 384670, Note_on_c, 0, 67, 53
1, 384671, Note_on_c, 0, 62, 52
1, 384674, Note_on_c, 0, 71, 67
1, 384713, Note_on_c, 0, 86, 82
1, 384762, Note_off_c, 0, 86, 65
1, 384799, Note_off_c, 0, 71, 60
1, 385071, Note_off_c, 0, 62, 54
1, 385080, Note_on_c, 0, 72, 42
1, 385085, Note_on_c, 0, 64, 35
1, 385130, Note_off_c, 0, 72, 55
1, 385289, Note_off_c, 0, 64, 40
1, 385296, Note_on_c, 0, 71, 52
1, 385305, Note_on_c, 0, 62, 40
1, 385330, Note_off_c, 0, 67, 58
1, 385354, Note_off_c, 0, 62, 58
1, 385369, Note_off_c, 0, 71, 53
1, 385476, Note_on_c, 0, 74, 64
1, 385477, Note_on_c, 0, 67, 52
1, 385486, Note_on_c, 0, 71, 48
1, 385530, Note_off_c, 0, 67, 52
1, 385681, Note_on_c, 0, 66, 62
1, 385681, Note_off_c, 0, 71, 34
1, 385682, Note_on_c, 0, 69, 60
1, 385698, Note_on_c, 0, 60, 54
1, 385718, Control_c, 0, 64, 100
1, 385733, Control_c, 0, 64, 89
1, 385747, Control_c, 0, 64, 89
1, 385750, Note_off_c, 0, 69, 59
1, 385762, Control_c, 0, 64, 96
1, 385777, Control_c, 0, 64, 122
1, 385792, Control_c, 0, 64, 127
1, 385830, Note_off_c, 0, 74, 25
1, 385858, Note_off_c, 0, 60, 61
1, 385872, Note_on_c, 0, 62, 50
1, 385872, Note_on_c, 0, 71, 51
1, 385913, Note_off_c, 0, 71, 55
1, 386039, Note_off_c, 0, 62, 37
1, 386062, Note_on_c, 0, 69, 54
1, 386066, Note_on_c, 0, 60, 41
1, 386132, Note_off_c, 0, 66, 57
1, 386135, Note_off_c, 0, 60, 61
1, 386139, Note_off_c, 0, 69, 56
1, 386240, Note_on_c, 0, 74, 71
1, 386255, Note_on_c, 0, 71, 60
1, 386277, Note_on_c, 0, 66, 34
1, 386423, Note_off_c, 0, 66, 38
1, 386429, Note_on_c, 0, 67, 64
1, 386429, Note_off_c, 0, 71, 36
1, 386433, Note_on_c, 0, 59, 60
1, 386433, Note_on_c, 0, 64, 59
1, 386439, Control_c, 0, 64, 79
1, 386453, Control_c, 0, 64, 66
1, 386468, Control_c, 0, 64, 65
1, 386483, Control_c, 0, 64, 69
1, 386492, Note_off_c, 0, 67, 61
1, 386497, Control_c, 0, 64, 79
1, 386512, Control_c, 0, 64, 102
1, 386527, Control_c, 0, 64, 127
1, 386627, Note_off_c, 0, 59, 62
1, 386633, Note_on_c, 0, 69, 55
1, 386644, Note_on_c, 0, 60, 49
1, 386676, Note_off_c, 0, 69, 51
1, 386756, Note_off_c, 0, 74, 33
1, 386820, Note_on_c, 0, 67, 62
1, 386820, Note_on_c, 0, 59, 53
1, 386856, Note_off_c, 0, 60, 47
1, 386890, Note_off_c, 0, 67, 61
1, 386895, Note_off_c, 0, 64, 59
1, 386910, Note_off_c, 0, 59, 61
1, 387029, Note_on_c, 0, 74, 78
1, 387039, Note_on_c, 0, 64, 63
1, 387044, Note_on_c, 0, 71, 61
1, 387095, Note_off_c, 0, 71, 59
1, 387111, Note_off_c, 0, 74, 62
1, 387161, Note_on_c, 0, 45, 66
1, 387177, Note_on_c, 0, 52, 68
1, 387306, Control_c, 0, 64, 80
1, 387311, Note_on_c, 0, 59, 64
1, 387320, Note_on_c, 0, 67, 78
1, 387320, Control_c, 0, 64, 55
1, 387321, Note_on_c, 0, 76, 88
1, 387325, Note_off_c, 0, 45, 64
1, 387335, Control_c, 0, 64, 0
1, 387352, Note_off_c, 0, 52, 58
1, 387365, Control_c, 0, 64, 38
1, 387380, Control_c, 0, 64, 57
1, 387394, Control_c, 0, 64, 70
1, 387409, Control_c, 0, 64, 88
1, 387424, Control_c, 0, 64, 115
1, 387438, Control_c, 0, 64, 127
1, 387479, Note_off_c, 0, 67, 54
1, 387571, Note_off_c, 0, 59, 62
1, 387581, Note_on_c, 0, 61, 62
1, 387601, Note_on_c, 0, 69, 66
1, 387822, Note_off_c, 0, 76, 61
1, 387839, Note_on_c, 0, 59, 61
1, 387841, Note_on_c, 0, 67, 72
1, 387846, Note_off_c, 0, 61, 54
1, 387864, Note_off_c, 0, 69, 60
1, 387874, Note_off_c, 0, 64, 55
1, 387921, Control_c, 0, 67, 117
1, 387936, Control_c, 0, 67, 106
1, 387950, Control_c, 0, 67, 91
1, 387965, Control_c, 0, 67, 74
1, 387980, Control_c, 0, 67, 55
1, 387995, Control_c, 0, 67, 39
1, 388010, Control_c, 0, 67, 22
1, 388025, Control_c, 0, 67, 0
1, 388046, Note_off_c, 0, 59, 58
1, 388081, Note_on_c, 0, 57, 48
1, 388081, Note_on_c, 0, 62, 53
1, 388121, Note_off_c, 0, 67, 60
1, 388122, Note_off_c, 0, 62, 61
1, 388150, Note_off_c, 0, 57, 63
1, 388159, Note_on_c, 0, 74, 74
1, 388161, Note_on_c, 0, 71, 66
1, 388168, Note_on_c, 0, 64, 65
1, 388196, Note_off_c, 0, 64, 67
1, 388218, Note_off_c, 0, 74, 62
1, 388227, Note_off_c, 0, 71, 63
1, 388450, Note_on_c, 0, 38, 67
1, 388537, Note_on_c, 0, 62, 72
1, 388545, Control_c, 0, 64, 82
1, 388559, Control_c, 0, 64, 58
1, 388574, Control_c, 0, 64, 0
1, 388656, Control_c, 0, 64, 54
1, 388668, Note_off_c, 0, 62, 63
1, 388671, Control_c, 0, 64, 67
1, 388685, Control_c, 0, 64, 75
1, 388689, Note_on_c, 0, 69, 57
1, 388700, Control_c, 0, 64, 81
1, 388715, Control_c, 0, 64, 87
1, 388730, Control_c, 0, 64, 94
1, 388730, Control_c, 0, 67, 19
1, 388733, Note_on_c, 0, 45, 55
1, 388745, Control_c, 0, 64, 104
1, 388759, Control_c, 0, 64, 124
1, 388761, Note_off_c, 0, 69, 63
1, 388770, Note_on_c, 0, 74, 69
1, 388774, Control_c, 0, 64, 127
1, 388774, Control_c, 0, 67, 0
1, 388794, Note_off_c, 0, 74, 67
1, 388796, Note_off_c, 0, 38, 54
1, 388818, Control_c, 0, 67, 19
1, 388830, Note_off_c, 0, 45, 62
1, 388841, Note_on_c, 0, 54, 69
1, 388850, Note_on_c, 0, 74, 86
1, 388879, Note_off_c, 0, 54, 63
1, 388922, Note_on_c, 0, 81, 85
1, 389104, Note_on_c, 0, 62, 40
1, 389110, Note_on_c, 0, 69, 70
1, 389114, Note_on_c, 0, 66, 54
1, 389191, Note_on_c, 0, 86, 87
1, 389194, Note_off_c, 0, 62, 61
1, 389197, Note_off_c, 0, 81, 62
1, 389220, Note_off_c, 0, 69, 62
1, 389232, Note_off_c, 0, 66, 59
1, 389367, Control_c, 0, 67, 21
1, 389619, Note_on_c, 0, 71, 69
1, 389625, Note_on_c, 0, 66, 63
1, 389631, Note_on_c, 0, 61, 59
1, 389664, Note_on_c, 0, 76, 50
1, 389717, Note_off_c, 0, 71, 62
1, 389724, Note_off_c, 0, 74, 55
1, 389869, Note_off_c, 0, 61, 62
1, 389888, Note_on_c, 0, 69, 59
1, 389900, Note_off_c, 0, 86, 57
1, 389900, Note_on_c, 0, 62, 47
1, 389906, Note_off_c, 0, 76, 62
1, 389910, Note_on_c, 0, 74, 64
1, 390017, Note_off_c, 0, 62, 55
1, 390052, Note_off_c, 0, 69, 56
1, 390077, Note_on_c, 0, 83, 88
1, 390093, Note_on_c, 0, 76, 70
1, 390113, Note_off_c, 0, 66, 36
1, 390168, Control_c, 0, 67, 19
1, 390169, Note_off_c, 0, 74, 38
1, 390286, Control_c, 0, 67, 21
1, 390289, Note_on_c, 0, 66, 66
1, 390290, Note_on_c, 0, 71, 69
1, 390290, Note_on_c, 0, 60, 64
1, 390299, Note_on_c, 0, 74, 71
1, 390300, Note_off_c, 0, 76, 58
1, 390316, Control_c, 0, 64, 87
1, 390331, Control_c, 0, 64, 68
1, 390345, Control_c, 0, 64, 64
1, 390360, Control_c, 0, 64, 67
1, 390360, Control_c, 0, 67, 23
1, 390375, Control_c, 0, 64, 73
1, 390390, Control_c, 0, 64, 83
1, 390405, Control_c, 0, 64, 97
1, 390405, Control_c, 0, 67, 25
1, 390409, Note_off_c, 0, 71, 61
1, 390419, Control_c, 0, 64, 102
1, 390463, Control_c, 0, 64, 105
1, 390508, Control_c, 0, 64, 108
1, 390509, Note_on_c, 0, 81, 82
1, 390516, Note_on_c, 0, 76, 70
1, 390520, Note_on_c, 0, 69, 61
1, 390523, Note_off_c, 0, 83, 48
1, 390526, Note_off_c, 0, 74, 57
1, 390527, Note_on_c, 0, 62, 63
1, 390538, Control_c, 0, 64, 112
1, 390547, Note_off_c, 0, 60, 51
1, 390552, Control_c, 0, 64, 127
1, 390621, Note_off_c, 0, 62, 55
1, 390631, Note_off_c, 0, 69, 54
1, 390686, Note_off_c, 0, 76, 51
1, 390704, Note_on_c, 0, 86, 84
1, 390705, Note_on_c, 0, 74, 76
1, 390721, Note_off_c, 0, 81, 59
1, 390730, Control_c, 0, 67, 23
1, 390731, Note_off_c, 0, 66, 25
1, 390899, Note_on_c, 0, 66, 58
1, 390908, Note_on_c, 0, 71, 61
1, 390913, Note_on_c, 0, 59, 60
1, 390916, Control_c, 0, 64, 96
1, 390925, Note_on_c, 0, 76, 69
1, 390931, Control_c, 0, 64, 66
1, 390937, Note_off_c, 0, 74, 57
1, 390946, Control_c, 0, 64, 46
1, 390961, Control_c, 0, 64, 44
1, 390976, Control_c, 0, 64, 55
1, 390991, Control_c, 0, 64, 66
1, 391006, Control_c, 0, 64, 77
1, 391006, Control_c, 0, 67, 25
1, 391012, Note_off_c, 0, 71, 61
1, 391020, Control_c, 0, 64, 83
1, 391035, Control_c, 0, 64, 83
1, 391065, Control_c, 0, 64, 84
1, 391080, Control_c, 0, 64, 85
1, 391094, Control_c, 0, 64, 87
1, 391109, Note_off_c, 0, 86, 60
1, 391109, Control_c, 0, 64, 88
1, 391116, Note_off_c, 0, 76, 62
1, 391124, Control_c, 0, 64, 89
1, 391131, Note_on_c, 0, 74, 77
1, 391139, Control_c, 0, 64, 92
1, 391140, Note_on_c, 0, 62, 52
1, 391141, Note_on_c, 0, 69, 59
1, 391154, Control_c, 0, 64, 99
1, 391168, Control_c, 0, 64, 117
1, 391183, Control_c, 0, 64, 127
1, 391193, Note_off_c, 0, 62, 54
1, 391234, Note_off_c, 0, 59, 56
1, 391241, Note_off_c, 0, 69, 47
1, 391327, Note_on_c, 0, 79, 85
1, 391330, Note_off_c, 0, 66, 37
1, 391357, Note_on_c, 0, 76, 61
1, 391394, Note_off_c, 0, 74, 50
1, 391524, Control_c, 0, 67, 27
1, 391542, Note_on_c, 0, 62, 53
1, 391545, Note_on_c, 0, 57, 44
1, 391546, Note_on_c, 0, 74, 56
1, 391549, Note_off_c, 0, 76, 59
1, 391550, Note_on_c, 0, 71, 57
1, 391554, Control_c, 0, 64, 82
1, 391569, Control_c, 0, 64, 63
1, 391584, Control_c, 0, 64, 52
1, 391584, Control_c, 0, 67, 32
1, 391598, Control_c, 0, 64, 56
1, 391598, Control_c, 0, 67, 41
1, 391606, Note_off_c, 0, 71, 58
1, 391613, Control_c, 0, 64, 64
1, 391613, Control_c, 0, 67, 50
1, 391635, Control_c, 0, 64, 73
1, 391635, Control_c, 0, 67, 55
1, 391650, Control_c, 0, 64, 84
1, 391650, Control_c, 0, 67, 57
1, 391666, Control_c, 0, 64, 92
1, 391666, Control_c, 0, 67, 60
1, 391681, Control_c, 0, 64, 93
1, 391681, Control_c, 0, 67, 65
1, 391696, Control_c, 0, 64, 93
1, 391696, Control_c, 0, 67, 72
1, 391710, Control_c, 0, 67, 79
1, 391725, Control_c, 0, 67, 82
1, 391740, Control_c, 0, 64, 94
1, 391740, Control_c, 0, 67, 84
1, 391755, Control_c, 0, 64, 95
1, 391755, Control_c, 0, 67, 85
1, 391769, Note_off_c, 0, 74, 56
1, 391770, Control_c, 0, 67, 91
1, 391779, Note_on_c, 0, 66, 50
1, 391782, Note_on_c, 0, 78, 66
1, 391783, Note_on_c, 0, 76, 53
1, 391784, Control_c, 0, 64, 98
1, 391784, Control_c, 0, 67, 98
1, 391799, Note_on_c, 0, 69, 45
1, 391799, Control_c, 0, 64, 104
1, 391799, Control_c, 0, 67, 106
1, 391814, Control_c, 0, 64, 113
1, 391814, Control_c, 0, 67, 111
1, 391820, Note_off_c, 0, 79, 63
1, 391829, Control_c, 0, 64, 127
1, 391829, Control_c, 0, 67, 113
1, 391858, Control_c, 0, 67, 118
1, 391864, Note_off_c, 0, 69, 53
1, 391870, Note_off_c, 0, 76, 52
1, 391873, Control_c, 0, 67, 124
1, 391884, Note_off_c, 0, 62, 52
1, 391888, Note_off_c, 0, 66, 59
1, 391888, Control_c, 0, 67, 127
1, 391951, Note_off_c, 0, 57, 62
1, 391959, Note_off_c, 0, 78, 63
1, 392001, Note_on_c, 0, 86, 75
1, 392018, Note_on_c, 0, 74, 52
1, 392024, Note_off_c, 0, 86, 68
1, 392041, Note_off_c, 0, 74, 58
1, 392219, Note_on_c, 0, 59, 51
1, 392222, Note_on_c, 0, 54, 45
1, 392225, Note_on_c, 0, 67, 59
1, 392237, Note_on_c, 0, 64, 47
1, 392447, Note_on_c, 0, 66, 63
1, 392447, Note_off_c, 0, 64, 57
1, 392451, Note_off_c, 0, 67, 61
1, 392454, Note_on_c, 0, 57, 53
1, 392460, Note_on_c, 0, 62, 59
1, 392484, Note_off_c, 0, 66, 62
1, 392486, Note_off_c, 0, 59, 40
1, 392651, Control_c, 0, 64, 91
1, 392666, Control_c, 0, 64, 72
1, 392669, Note_off_c, 0, 54, 59
1, 392671, Note_on_c, 0, 76, 81
1, 392681, Control_c, 0, 64, 67
1, 392683, Note_on_c, 0, 59, 46
1, 392696, Control_c, 0, 64, 70
1, 392699, Note_off_c, 0, 57, 52
1, 392711, Control_c, 0, 64, 77
1, 392726, Control_c, 0, 64, 89
1, 392740, Control_c, 0, 64, 107
1, 392755, Control_c, 0, 64, 127
1, 392799, Note_off_c, 0, 62, 57
1, 392889, Control_c, 0, 64, 85
1, 392904, Control_c, 0, 64, 62
1, 392907, Note_on_c, 0, 67, 51
1, 392910, Note_off_c, 0, 59, 52
1, 392916, Note_on_c, 0, 57, 48
1, 392916, Note_on_c, 0, 64, 44
1, 392919, Control_c, 0, 64, 57
1, 392924, Note_on_c, 0, 50, 44
1, 392931, Control_c, 0, 64, 64
1, 392946, Control_c, 0, 64, 79
1, 392958, Note_off_c, 0, 64, 51
1, 392961, Control_c, 0, 64, 127
1, 392997, Note_off_c, 0, 67, 60
1, 392999, Note_off_c, 0, 76, 61
1, 393171, Note_on_c, 0, 74, 72
1, 393181, Note_on_c, 0, 59, 47
1, 393183, Note_on_c, 0, 62, 49
1, 393198, Note_on_c, 0, 66, 42
1, 393208, Note_off_c, 0, 62, 57
1, 393217, Note_off_c, 0, 57, 35
1, 393226, Note_off_c, 0, 74, 63
1, 393226, Note_off_c, 0, 66, 50
1, 393412, Note_on_c, 0, 86, 76
1, 393420, Note_on_c, 0, 57, 54
1, 393443, Note_off_c, 0, 86, 62
1, 393455, Note_off_c, 0, 57, 65
1, 393460, Note_off_c, 0, 59, 36
1, 393472, Note_off_c, 0, 50, 58
1, 393667, Note_on_c, 0, 52, 54
1, 393668, Note_on_c, 0, 67, 58
1, 393684, Note_on_c, 0, 64, 44
1, 393920, Note_off_c, 0, 64, 54
1, 393948, Note_off_c, 0, 67, 59
1, 393950, Note_on_c, 0, 66, 64
1, 393957, Note_on_c, 0, 62, 62
1, 394072, Note_off_c, 0, 52, 49
1, 394231, Note_on_c, 0, 52, 64
1, 394264, Note_off_c, 0, 62, 55
1, 394282, Control_c, 0, 64, 107
1, 394285, Note_on_c, 0, 72, 77
1, 394291, Note_on_c, 0, 60, 61
1, 394296, Control_c, 0, 64, 69
1, 394311, Control_c, 0, 64, 52
1, 394321, Note_off_c, 0, 66, 60
1, 394326, Control_c, 0, 64, 41
1, 394341, Control_c, 0, 64, 49
1, 394356, Control_c, 0, 64, 61
1, 394371, Control_c, 0, 64, 71
1, 394386, Control_c, 0, 64, 93
1, 394401, Control_c, 0, 64, 127
1, 394567, Note_on_c, 0, 43, 14
1, 394694, Note_on_c, 0, 50, 47
1, 394702, Note_on_c, 0, 58, 40
1, 394738, Note_off_c, 0, 52, 35
1, 394739, Note_on_c, 0, 67, 53
1, 394747, Note_on_c, 0, 64, 41
1, 394749, Control_c, 0, 64, 82
1, 394763, Control_c, 0, 64, 64
1, 394778, Control_c, 0, 64, 48
1, 394793, Control_c, 0, 64, 39
1, 394805, Note_off_c, 0, 72, 52
1, 394808, Control_c, 0, 64, 50
1, 394823, Control_c, 0, 64, 63
1, 394837, Control_c, 0, 64, 78
1, 394853, Control_c, 0, 64, 109
1, 394868, Control_c, 0, 64, 127
1, 394953, Note_off_c, 0, 64, 58
1, 395024, Note_off_c, 0, 67, 38
1, 395356, Control_c, 0, 64, 109
1, 395378, Control_c, 0, 64, 92
1, 395382, Note_on_c, 0, 52, 44
1, 395388, Note_on_c, 0, 70, 53
1, 395393, Control_c, 0, 64, 76
1, 395408, Note_on_c, 0, 62, 37
1, 395408, Control_c, 0, 64, 64
1, 395414, Note_on_c, 0, 66, 34
1, 395423, Control_c, 0, 64, 50
1, 395438, Control_c, 0, 64, 0
1, 395441, Note_off_c, 0, 43, 21
1, 395497, Control_c, 0, 64, 52
1, 395499, Note_off_c, 0, 58, 30
1, 395512, Control_c, 0, 64, 66
1, 395526, Control_c, 0, 64, 78
1, 395532, Note_off_c, 0, 60, 38
1, 395541, Control_c, 0, 64, 91
1, 395556, Control_c, 0, 64, 101
1, 395571, Control_c, 0, 64, 115
1, 395585, Control_c, 0, 64, 127
1, 395590, Note_off_c, 0, 70, 63
1, 395613, Note_off_c, 0, 62, 36
1, 395621, Note_off_c, 0, 66, 59
1, 395625, Note_off_c, 0, 50, 39
1, 395629, Note_off_c, 0, 52, 55
1, 396016, Control_c, 0, 64, 106
1, 396027, Note_on_c, 0, 57, 46
1, 396031, Control_c, 0, 64, 76
1, 396046, Control_c, 0, 64, 62
1, 396061, Control_c, 0, 64, 45
1, 396075, Control_c, 0, 64, 37
1, 396090, Control_c, 0, 64, 45
1, 396105, Control_c, 0, 64, 58
1, 396127, Control_c, 0, 64, 70
1, 396142, Control_c, 0, 64, 85
1, 396149, Note_off_c, 0, 57, 60
1, 396157, Control_c, 0, 64, 107
1, 396171, Control_c, 0, 64, 119
1, 396172, Note_on_c, 0, 62, 44
1, 396240, Note_off_c, 0, 62, 59
1, 396249, Note_on_c, 0, 66, 48
1, 396291, Note_off_c, 0, 66, 62
1, 396323, Note_on_c, 0, 69, 60
1, 396422, Note_on_c, 0, 74, 59
1, 396440, Note_off_c, 0, 69, 48
1, 396515, Note_off_c, 0, 74, 54
1, 396516, Note_on_c, 0, 78, 64
1, 396571, Note_on_c, 0, 26, 42
1, 396644, Note_off_c, 0, 78, 63
1, 396659, Note_on_c, 0, 81, 56
1, 396695, Note_off_c, 0, 26, 49
1, 396739, Note_on_c, 0, 38, 47
1, 396797, Note_off_c, 0, 81, 63
1, 396807, Note_on_c, 0, 86, 63
1, 396809, Note_off_c, 0, 38, 58
1, 396965, Control_c, 0, 64, 122
1, 396980, Control_c, 0, 64, 124
1, 397010, Control_c, 0, 64, 127
1, 397043, Note_on_c, 0, 45, 40
1, 397096, Note_on_c, 0, 88, 52
1, 397119, Note_off_c, 0, 86, 40
1, 397191, Note_off_c, 0, 45, 31
1, 397251, Note_off_c, 0, 88, 58
1, 397271, Note_on_c, 0, 52, 46
1, 397280, Note_on_c, 0, 86, 59
1, 397292, Note_on_c, 0, 79, 53
1, 397294, Note_on_c, 0, 74, 50
1, 397363, Note_off_c, 0, 74, 40
1, 397400, Note_off_c, 0, 79, 47
1, 397432, Note_off_c, 0, 86, 57
1, 397441, Note_on_c, 0, 88, 56
1, 397453, Note_off_c, 0, 52, 33
1, 397459, Note_on_c, 0, 45, 40
1, 397536, Note_off_c, 0, 45, 54
1, 397567, Note_off_c, 0, 88, 52
1, 397578, Note_on_c, 0, 54, 49
1, 397581, Note_on_c, 0, 86, 48
1, 397584, Note_on_c, 0, 81, 55
1, 397594, Note_on_c, 0, 74, 48
1, 397644, Note_off_c, 0, 74, 48
1, 397651, Note_off_c, 0, 54, 53
1, 397656, Note_off_c, 0, 81, 48
1, 397705, Note_on_c, 0, 88, 56
1, 397711, Note_off_c, 0, 86, 58
1, 397725, Note_on_c, 0, 50, 47
1, 397820, Note_off_c, 0, 88, 62
1, 397828, Note_off_c, 0, 50, 52
1, 397841, Note_on_c, 0, 86, 57
1, 397842, Note_on_c, 0, 57, 53
1, 397842, Note_on_c, 0, 81, 58
1, 397847, Note_on_c, 0, 74, 44
1, 397895, Note_off_c, 0, 74, 42
1, 397911, Note_off_c, 0, 81, 47
1, 397939, Note_off_c, 0, 57, 55
1, 397947, Note_on_c, 0, 88, 61
1, 397952, Note_off_c, 0, 86, 56
1, 397963, Note_on_c, 0, 54, 50
1, 398023, Note_off_c, 0, 54, 54
1, 398053, Note_off_c, 0, 88, 63
1, 398073, Note_on_c, 0, 86, 61
1, 398080, Note_on_c, 0, 59, 50
1, 398081, Note_on_c, 0, 83, 60
1, 398089, Note_on_c, 0, 74, 53
1, 398121, Note_off_c, 0, 74, 56
1, 398148, Note_off_c, 0, 83, 57
1, 398175, Note_off_c, 0, 59, 50
1, 398184, Note_on_c, 0, 88, 58
1, 398192, Note_off_c, 0, 86, 57
1, 398201, Note_on_c, 0, 52, 44
1, 398285, Note_off_c, 0, 52, 52
1, 398285, Note_off_c, 0, 88, 61
1, 398301, Note_on_c, 0, 57, 50
1, 398313, Note_on_c, 0, 86, 62
1, 398315, Note_on_c, 0, 81, 63
1, 398318, Note_on_c, 0, 74, 56
1, 398353, Note_off_c, 0, 74, 54
1, 398380, Note_off_c, 0, 81, 56
1, 398390, Note_off_c, 0, 57, 56
1, 398421, Note_off_c, 0, 86, 59
1, 398431, Note_on_c, 0, 88, 54
1, 398437, Note_on_c, 0, 54, 40
1, 398508, Note_off_c, 0, 54, 58
1, 398523, Note_off_c, 0, 88, 62
1, 398542, Note_on_c, 0, 86, 61
1, 398549, Note_on_c, 0, 81, 46
1, 398550, Note_on_c, 0, 62, 53
1, 398553, Note_on_c, 0, 74, 50
1, 398583, Note_off_c, 0, 74, 55
1, 398596, Note_off_c, 0, 62, 57
1, 398630, Note_off_c, 0, 81, 38
1, 398638, Note_off_c, 0, 86, 58
1, 398645, Note_on_c, 0, 54, 51
1, 398649, Note_on_c, 0, 88, 59
1, 398691, Note_off_c, 0, 54, 55
1, 398756, Note_off_c, 0, 88, 59
1, 398768, Note_on_c, 0, 86, 58
1, 398768, Note_on_c, 0, 64, 49
1, 398772, Note_on_c, 0, 79, 65
1, 398779, Note_on_c, 0, 74, 54
1, 398816, Note_off_c, 0, 74, 54
1, 398835, Note_off_c, 0, 79, 56
1, 398875, Note_off_c, 0, 86, 57
1, 398878, Note_off_c, 0, 64, 42
1, 398884, Note_on_c, 0, 88, 60
1, 398890, Note_on_c, 0, 57, 46
1, 398964, Note_off_c, 0, 57, 59
1, 398976, Note_off_c, 0, 88, 60
1, 398994, Note_on_c, 0, 86, 61
1, 398996, Note_on_c, 0, 81, 61
1, 399003, Note_on_c, 0, 66, 54
1, 399008, Note_on_c, 0, 74, 44
1, 399036, Note_off_c, 0, 74, 54
1, 399047, Note_off_c, 0, 81, 59
1, 399053, Note_off_c, 0, 66, 55
1, 399093, Note_off_c, 0, 86, 59
1, 399101, Note_on_c, 0, 88, 59
1, 399132, Note_on_c, 0, 62, 41
1, 399194, Note_off_c, 0, 62, 53
1, 399212, Note_off_c, 0, 88, 61
1, 399223, Note_on_c, 0, 69, 52
1, 399229, Note_on_c, 0, 81, 58
1, 399230, Note_on_c, 0, 86, 56
1, 399251, Note_on_c, 0, 74, 30
1, 399287, Note_off_c, 0, 74, 52
1, 399300, Note_off_c, 0, 81, 52
1, 399322, Note_off_c, 0, 69, 31
1, 399335, Note_on_c, 0, 88, 62
1, 399336, Note_on_c, 0, 66, 55
1, 399339, Note_off_c, 0, 86, 52
1, 399412, Note_off_c, 0, 66, 58
1, 399432, Note_off_c, 0, 88, 62
1, 399455, Note_on_c, 0, 86, 63
1, 399459, Note_on_c, 0, 83, 59
1, 399466, Note_on_c, 0, 71, 49
1, 399478, Note_on_c, 0, 74, 38
1, 399512, Note_off_c, 0, 74, 52
1, 399515, Note_off_c, 0, 83, 57
1, 399518, Note_off_c, 0, 71, 56
1, 399552, Note_off_c, 0, 86, 58
1, 399561, Note_on_c, 0, 88, 59
1, 399578, Note_on_c, 0, 64, 48
1, 399653, Note_off_c, 0, 64, 58
1, 399672, Note_off_c, 0, 88, 61
1, 399689, Note_on_c, 0, 86, 56
1, 399692, Note_on_c, 0, 74, 65
1, 399703, Note_on_c, 0, 81, 56
1, 399755, Note_off_c, 0, 81, 52
1, 399762, Note_off_c, 0, 74, 60
1, 399805, Note_off_c, 0, 86, 58
1, 399808, Note_on_c, 0, 88, 57
1, 399822, Note_on_c, 0, 66, 40
1, 399850, Note_off_c, 0, 66, 60
1, 399965, Note_off_c, 0, 88, 58
1, 399991, Note_on_c, 0, 86, 55
1, 399998, Note_on_c, 0, 78, 58
1, 399999, Note_on_c, 0, 81, 51
1, 400027, Note_on_c, 0, 74, 15
1, 400029, Note_off_c, 0, 78, 66
1, 400133, Note_off_c, 0, 86, 56
1, 400158, Note_on_c, 0, 88, 54
1, 400324, Note_off_c, 0, 88, 46
1, 400331, Note_on_c, 0, 86, 56
1, 400337, Note_on_c, 0, 69, 44
1, 400354, Note_off_c, 0, 74, 9
1, 400396, Note_off_c, 0, 86, 52
1, 400412, Note_off_c, 0, 81, 43
1, 400741, Note_on_c, 0, 62, 45
1, 401169, Note_off_c, 0, 69, 25
1, 401382, Note_on_c, 0, 74, 41
1, 401545, Note_off_c, 0, 74, 35
1, 401699, Note_off_c, 0, 62, 21
1, 402578, Control_c, 0, 64, 122
1, 402593, Control_c, 0, 64, 116
1, 402608, Control_c, 0, 64, 112
1, 402623, Control_c, 0, 64, 108
1, 402637, Control_c, 0, 64, 105
1, 402652, Control_c, 0, 64, 101
1, 402667, Control_c, 0, 64, 98
1, 402682, Control_c, 0, 64, 94
1, 402697, Control_c, 0, 64, 91
1, 402712, Control_c, 0, 64, 87
1, 402726, Control_c, 0, 64, 82
1, 402741, Control_c, 0, 64, 78
1, 402756, Control_c, 0, 64, 72
1, 402771, Control_c, 0, 64, 68
1, 402786, Control_c, 0, 64, 64
1, 402801, Control_c, 0, 64, 61
1, 402815, Control_c, 0, 64, 59
1, 402942, Control_c, 0, 64, 59
1, 403075, Control_c, 0, 64, 58
1, 403105, Control_c, 0, 64, 58
1, 403224, Control_c, 0, 64, 57
1, 403253, Control_c, 0, 64, 57
1, 403283, Control_c, 0, 64, 56
1, 403327, Control_c, 0, 64, 56
1, 403357, Control_c, 0, 64, 55
1, 403386, Control_c, 0, 64, 55
1, 403630, Control_c, 0, 64, 55
1, 403690, Control_c, 0, 64, 56
1, 403809, Control_c, 0, 64, 56
1, 403942, Control_c, 0, 64, 57
1, 403972, Control_c, 0, 64, 57
1, 404002, Control_c, 0, 64, 58
1, 404046, Control_c, 0, 64, 58
1, 404060, Control_c, 0, 64, 59
1, 404075, Control_c, 0, 64, 60
1, 404090, Control_c, 0, 64, 60
1, 404105, Control_c, 0, 64, 61
1, 404120, Control_c, 0, 64, 62
1, 404134, Control_c, 0, 64, 62
1, 404149, Control_c, 0, 64, 63
1, 404165, Control_c, 0, 64, 65
1, 404180, Control_c, 0, 64, 67
1, 404195, Control_c, 0, 64, 71
1, 404199, Note_on_c, 0, 67, 63
1, 404207, Note_on_c, 0, 52, 46
1, 404209, Control_c, 0, 64, 76
1, 404212, Note_on_c, 0, 64, 45
1, 404224, Control_c, 0, 64, 81
1, 404227, Note_on_c, 0, 59, 36
1, 404239, Control_c, 0, 64, 87
1, 404254, Control_c, 0, 64, 96
1, 404268, Control_c, 0, 64, 109
1, 404283, Control_c, 0, 64, 127
1, 404393, Note_off_c, 0, 59, 61
1, 404440, Control_c, 0, 67, 124
1, 404467, Note_off_c, 0, 64, 62
1, 404470, Control_c, 0, 67, 122
1, 404577, Note_off_c, 0, 52, 38
1, 404772, Note_on_c, 0, 40, 55
1, 404781, Note_on_c, 0, 69, 69
1, 404789, Note_on_c, 0, 64, 52
1, 404791, Note_on_c, 0, 60, 54
1, 404795, Control_c, 0, 67, 120
1, 404891, Note_off_c, 0, 60, 38
1, 404913, Note_off_c, 0, 64, 59
1, 404921, Note_off_c, 0, 67, 33
1, 405003, Control_c, 0, 67, 123
1, 405032, Control_c, 0, 67, 125
1, 405091, Control_c, 0, 67, 127
1, 405192, Note_off_c, 0, 69, 58
1, 405194, Note_on_c, 0, 67, 66
1, 405214, Note_on_c, 0, 64, 55
1, 405216, Note_on_c, 0, 33, 50
1, 405217, Control_c, 0, 64, 89
1, 405219, Note_on_c, 0, 45, 46
1, 405222, Note_on_c, 0, 62, 49
1, 405232, Control_c, 0, 64, 67
1, 405235, Note_off_c, 0, 40, 51
1, 405248, Control_c, 0, 64, 42
1, 405263, Control_c, 0, 64, 0
1, 405308, Control_c, 0, 64, 39
1, 405322, Control_c, 0, 64, 62
1, 405337, Control_c, 0, 64, 74
1, 405344, Note_off_c, 0, 62, 62
1, 405352, Control_c, 0, 64, 90
1, 405367, Control_c, 0, 64, 114
1, 405382, Control_c, 0, 64, 127
1, 405394, Note_off_c, 0, 64, 61
1, 405421, Note_off_c, 0, 67, 59
1, 405480, Note_off_c, 0, 45, 52
1, 405505, Note_off_c, 0, 33, 35
1, 405703, Note_on_c, 0, 88, 37
1, 406026, Note_on_c, 0, 76, 58
1, 406037, Note_on_c, 0, 59, 42
1, 406042, Note_off_c, 0, 88, 43
1, 406147, Note_off_c, 0, 76, 48
1, 406275, Note_on_c, 0, 76, 59
1, 406278, Note_on_c, 0, 64, 45
1, 406296, Note_off_c, 0, 59, 41
1, 406337, Note_off_c, 0, 64, 59
1, 406476, Note_on_c, 0, 83, 68
1, 406515, Note_off_c, 0, 76, 59
1, 406711, Note_on_c, 0, 71, 82
1, 406737, Note_on_c, 0, 62, 62
1, 406760, Note_off_c, 0, 83, 38
1, 406805, Note_off_c, 0, 62, 43
1, 406805, Note_off_c, 0, 71, 59
1, 406978, Note_on_c, 0, 67, 80
1, 406984, Note_on_c, 0, 71, 74
1, 406987, Note_on_c, 0, 64, 65
1, 407079, Note_off_c, 0, 67, 62
1, 407180, Note_off_c, 0, 64, 60
1, 407200, Note_on_c, 0, 76, 75
1, 407201, Note_off_c, 0, 71, 57
1, 407427, Note_on_c, 0, 69, 77
1, 407443, Note_on_c, 0, 62, 64
1, 407448, Note_on_c, 0, 64, 78
1, 407454, Note_off_c, 0, 69, 62
1, 407457, Note_off_c, 0, 76, 57
1, 407463, Note_on_c, 0, 60, 28
1, 407485, Note_off_c, 0, 62, 60
1, 407498, Note_off_c, 0, 60, 51
1, 407516, Note_off_c, 0, 64, 57
1, 407685, Note_on_c, 0, 50, 70
1, 407692, Note_on_c, 0, 66, 70
1, 407702, Note_on_c, 0, 64, 65
1, 407705, Note_on_c, 0, 59, 67
1, 407731, Control_c, 0, 64, 124
1, 407746, Control_c, 0, 64, 73
1, 407761, Control_c, 0, 64, 58
1, 407776, Control_c, 0, 64, 46
1, 407790, Control_c, 0, 64, 49
1, 407805, Control_c, 0, 64, 58
1, 407820, Control_c, 0, 64, 69
1, 407834, Control_c, 0, 64, 87
1, 407849, Control_c, 0, 64, 127
1, 407937, Note_on_c, 0, 71, 75
1, 407961, Note_off_c, 0, 64, 63
1, 407977, Note_off_c, 0, 66, 60
1, 408006, Note_off_c, 0, 71, 58
1, 408009, Note_off_c, 0, 59, 57
1, 408194, Note_on_c, 0, 54, 62
1, 408212, Note_off_c, 0, 50, 59
1, 408225, Note_on_c, 0, 60, 66
1, 408249, Note_off_c, 0, 54, 57
1, 408267, Note_on_c, 0, 62, 68
1, 408301, Note_off_c, 0, 60, 64
1, 408321, Note_on_c, 0, 69, 77
1, 408345, Note_off_c, 0, 62, 62
1, 408390, Note_on_c, 0, 31, 75
1, 408491, Note_off_c, 0, 31, 60
1, 408495, Control_c, 0, 64, 73
1, 408509, Control_c, 0, 64, 45
1, 408511, Note_on_c, 0, 43, 49
1, 408524, Control_c, 0, 64, 0
1, 408584, Control_c, 0, 64, 58
1, 408598, Control_c, 0, 64, 85
1, 408599, Note_off_c, 0, 43, 63
1, 408613, Control_c, 0, 64, 127
1, 408620, Note_off_c, 0, 69, 56
1, 408643, Note_on_c, 0, 64, 65
1, 408645, Note_on_c, 0, 66, 78
1, 408647, Note_on_c, 0, 50, 46
1, 408652, Note_on_c, 0, 59, 56
1, 408685, Note_off_c, 0, 59, 65
1, 408721, Note_off_c, 0, 50, 55
1, 408721, Poly_aftertouch_c, 0, 48, 127
1, 408727, Note_off_c, 0, 64, 60
1, 408746, Note_off_c, 0, 66, 59
1, 408752, Poly_aftertouch_c, 0, 48, 0
1, 409086, Note_on_c, 0, 88, 65
1, 409355, Note_off_c, 0, 88, 53
1, 409377, Note_on_c, 0, 59, 45
1, 409394, Note_on_c, 0, 76, 54
1, 409495, Note_off_c, 0, 76, 49
1, 409623, Note_on_c, 0, 76, 58
1, 409632, Note_on_c, 0, 64, 51
1, 409663, Note_off_c, 0, 59, 54
1, 409799, Note_off_c, 0, 64, 59
1, 409842, Note_on_c, 0, 83, 72
1, 409904, Note_off_c, 0, 76, 50
1, 410066, Note_on_c, 0, 69, 81
1, 410071, Note_on_c, 0, 59, 63
1, 410071, Note_on_c, 0, 62, 72
1, 410092, Note_off_c, 0, 83, 59
1, 410128, Note_on_c, 0, 71, 48
1, 410163, Note_off_c, 0, 69, 60
1, 410183, Note_off_c, 0, 71, 52
1, 410396, Note_off_c, 0, 59, 61
1, 410399, Note_on_c, 0, 66, 90
1, 410411, Note_on_c, 0, 64, 62
1, 410422, Note_on_c, 0, 60, 62
1, 410423, Note_off_c, 0, 62, 52
1, 410429, Note_on_c, 0, 71, 66
1, 410539, Note_off_c, 0, 60, 58
1, 410549, Note_off_c, 0, 66, 57
1, 410632, Note_on_c, 0, 76, 75
1, 410660, Note_off_c, 0, 71, 58
1, 410852, Note_on_c, 0, 67, 85
1, 410863, Note_on_c, 0, 60, 69
1, 410876, Note_off_c, 0, 76, 58
1, 410885, Note_on_c, 0, 57, 66
1, 410900, Note_off_c, 0, 67, 63
1, 410924, Note_off_c, 0, 57, 63
1, 410930, Note_off_c, 0, 60, 64
1, 410939, Note_off_c, 0, 64, 61
1, 411116, Note_on_c, 0, 64, 80
1, 411119, Note_on_c, 0, 48, 71
1, 411120, Note_on_c, 0, 62, 72
1, 411124, Note_on_c, 0, 59, 67
1, 411148, Control_c, 0, 64, 83
1, 411163, Control_c, 0, 64, 59
1, 411177, Control_c, 0, 64, 0
1, 411222, Control_c, 0, 64, 46
1, 411237, Control_c, 0, 64, 68
1, 411252, Control_c, 0, 64, 83
1, 411267, Control_c, 0, 64, 106
1, 411282, Control_c, 0, 64, 127
1, 411398, Note_on_c, 0, 71, 69
1, 411418, Note_off_c, 0, 64, 60
1, 411434, Note_off_c, 0, 62, 60
1, 411437, Note_off_c, 0, 71, 62
1, 411444, Note_off_c, 0, 59, 61
1, 411653, Note_on_c, 0, 40, 67
1, 411697, Note_on_c, 0, 55, 72
1, 411701, Note_off_c, 0, 48, 55
1, 411729, Note_on_c, 0, 60, 70
1, 411797, Note_on_c, 0, 67, 76
1, 411815, Note_off_c, 0, 55, 61
1, 411831, Control_c, 0, 67, 122
1, 411854, Control_c, 0, 67, 110
1, 411869, Control_c, 0, 67, 100
1, 411883, Control_c, 0, 67, 92
1, 411898, Control_c, 0, 67, 86
1, 411900, Note_off_c, 0, 60, 59
1, 411913, Control_c, 0, 67, 80
1, 411928, Control_c, 0, 67, 72
1, 411943, Control_c, 0, 67, 65
1, 411957, Control_c, 0, 67, 63
1, 412134, Control_c, 0, 67, 65
1, 412137, Note_off_c, 0, 67, 51
1, 412149, Control_c, 0, 64, 124
1, 412149, Control_c, 0, 67, 65
1, 412164, Control_c, 0, 64, 71
1, 412169, Note_on_c, 0, 30, 53
1, 412169, Note_on_c, 0, 64, 67
1, 412179, Control_c, 0, 64, 37
1, 412180, Note_off_c, 0, 40, 58
1, 412185, Note_on_c, 0, 62, 53
1, 412188, Note_on_c, 0, 59, 56
1, 412188, Note_on_c, 0, 42, 50
1, 412194, Control_c, 0, 64, 0
1, 412239, Control_c, 0, 64, 45
1, 412240, Note_off_c, 0, 59, 56
1, 412253, Control_c, 0, 64, 64
1, 412253, Control_c, 0, 67, 66
1, 412268, Control_c, 0, 64, 75
1, 412283, Control_c, 0, 64, 85
1, 412298, Control_c, 0, 64, 92
1, 412301, Note_off_c, 0, 30, 54
1, 412308, Note_off_c, 0, 62, 57
1, 412313, Control_c, 0, 64, 95
1, 412323, Note_off_c, 0, 64, 58
1, 412327, Control_c, 0, 64, 104
1, 412342, Control_c, 0, 64, 127
1, 412372, Control_c, 0, 67, 65
1, 412379, Note_off_c, 0, 42, 50
1, 412691, Note_on_c, 0, 88, 41
1, 412810, Control_c, 0, 67, 65
1, 412824, Control_c, 0, 67, 64
1, 412854, Control_c, 0, 67, 64
1, 412869, Control_c, 0, 67, 63
1, 412943, Control_c, 0, 67, 62
1, 412953, Note_on_c, 0, 59, 45
1, 412974, Note_off_c, 0, 88, 57
1, 412984, Note_on_c, 0, 76, 54
1, 413046, Control_c, 0, 67, 62
1, 413076, Control_c, 0, 67, 61
1, 413104, Note_off_c, 0, 76, 57
1, 413106, Control_c, 0, 67, 60
1, 413121, Control_c, 0, 67, 58
1, 413136, Control_c, 0, 67, 51
1, 413150, Control_c, 0, 67, 43
1, 413165, Control_c, 0, 67, 40
1, 413180, Control_c, 0, 67, 37
1, 413195, Control_c, 0, 67, 33
1, 413195, Note_on_c, 0, 64, 52
1, 413203, Note_on_c, 0, 76, 60
1, 413210, Control_c, 0, 67, 28
1, 413225, Control_c, 0, 67, 24
1, 413228, Note_off_c, 0, 59, 49
1, 413240, Control_c, 0, 67, 20
1, 413255, Control_c, 0, 67, 0
1, 413396, Note_off_c, 0, 64, 52
1, 413419, Note_on_c, 0, 83, 67
1, 413626, Note_off_c, 0, 76, 23
1, 413634, Note_on_c, 0, 67, 77
1, 413649, Note_on_c, 0, 57, 59
1, 413657, Note_on_c, 0, 60, 59
1, 413672, Note_off_c, 0, 83, 54
1, 413678, Note_on_c, 0, 71, 63
1, 413741, Note_off_c, 0, 67, 59
1, 413774, Note_off_c, 0, 71, 59
1, 413897, Note_off_c, 0, 60, 48
1, 413908, Note_off_c, 0, 57, 62
1, 413911, Note_on_c, 0, 59, 70
1, 413914, Note_on_c, 0, 64, 80
1, 413926, Note_on_c, 0, 62, 68
1, 413943, Note_on_c, 0, 71, 69
1, 414031, Note_off_c, 0, 64, 60
1, 414033, Note_off_c, 0, 59, 56
1, 414150, Note_on_c, 0, 76, 82
1, 414195, Note_off_c, 0, 71, 56
1, 414352, Note_off_c, 0, 62, 57
1, 414379, Note_on_c, 0, 66, 77
1, 414383, Note_on_c, 0, 60, 72
1, 414400, Note_on_c, 0, 65, 72
1, 414403, Note_off_c, 0, 76, 62
1, 414443, Note_off_c, 0, 66, 62
1, 414453, Note_off_c, 0, 60, 64
1, 414484, Note_off_c, 0, 65, 60
1, 414641, Note_on_c, 0, 47, 72
1, 414663, Control_c, 0, 64, 99
1, 414677, Note_on_c, 0, 63, 85
1, 414677, Control_c, 0, 64, 63
1, 414678, Note_on_c, 0, 57, 75
1, 414692, Control_c, 0, 64, 0
1, 414737, Control_c, 0, 64, 35
1, 414751, Control_c, 0, 64, 60
1, 414766, Control_c, 0, 64, 73
1, 414781, Control_c, 0, 64, 88
1, 414796, Control_c, 0, 64, 111
1, 414811, Control_c, 0, 64, 127
1, 414943, Note_on_c, 0, 71, 83
1, 414948, Note_off_c, 0, 57, 56
1, 415018, Note_off_c, 0, 63, 60
1, 415186, Note_on_c, 0, 48, 73
1, 415198, Note_off_c, 0, 47, 61
1, 415203, Note_on_c, 0, 56, 86
1, 415237, Note_off_c, 0, 71, 62
1, 415243, Note_on_c, 0, 64, 82
1, 415249, Note_on_c, 0, 59, 80
1, 415283, Note_off_c, 0, 48, 61
1, 415311, Note_off_c, 0, 56, 58
1, 415317, Note_off_c, 0, 64, 63
1, 415333, Note_off_c, 0, 59, 59
1, 415547, Note_on_c, 0, 49, 81
1, 415550, Note_on_c, 0, 40, 73
1, 415559, Control_c, 0, 64, 72
1, 415574, Control_c, 0, 64, 46
1, 415597, Control_c, 0, 64, 0
1, 415611, Note_on_c, 0, 66, 87
1, 415612, Control_c, 0, 64, 48
1, 415613, Note_on_c, 0, 63, 75
1, 415615, Note_on_c, 0, 55, 78
1, 415622, Note_on_c, 0, 58, 73
1, 415628, Control_c, 0, 64, 66
1, 415643, Control_c, 0, 64, 90
1, 415644, Note_off_c, 0, 55, 65
1, 415657, Control_c, 0, 64, 127
1, 415661, Note_off_c, 0, 58, 62
1, 415684, Note_off_c, 0, 63, 59
1, 415693, Note_off_c, 0, 66, 62
1, 415880, Note_on_c, 0, 67, 88
1, 415889, Note_on_c, 0, 64, 74
1, 415912, Note_off_c, 0, 64, 70
1, 415926, Note_off_c, 0, 40, 55
1, 415936, Note_off_c, 0, 67, 64
1, 415972, Note_on_c, 0, 55, 75
1, 415973, Note_off_c, 0, 49, 64
1, 416047, Note_on_c, 0, 70, 87
1, 416049, Note_on_c, 0, 66, 81
1, 416072, Note_off_c, 0, 66, 68
1, 416093, Note_off_c, 0, 70, 62
1, 416179, Note_on_c, 0, 75, 93
1, 416182, Note_on_c, 0, 67, 79
1, 416203, Note_off_c, 0, 67, 68
1, 416222, Note_off_c, 0, 75, 63
1, 416269, Note_on_c, 0, 61, 80
1, 416284, Note_off_c, 0, 55, 64
1, 416328, Note_on_c, 0, 76, 90
1, 416347, Note_on_c, 0, 70, 86
1, 416551, Note_on_c, 0, 59, 72
1, 416555, Note_on_c, 0, 64, 74
1, 416598, Control_c, 0, 64, 76
1, 416604, Note_off_c, 0, 61, 58
1, 416613, Control_c, 0, 64, 0
1, 416629, Note_on_c, 0, 78, 85
1, 416645, Note_off_c, 0, 76, 57
1, 416687, Control_c, 0, 64, 59
1, 416702, Control_c, 0, 64, 71
1, 416716, Control_c, 0, 64, 85
1, 416731, Control_c, 0, 64, 94
1, 416746, Control_c, 0, 64, 100
1, 416761, Control_c, 0, 64, 114
1, 416776, Control_c, 0, 64, 127
1, 416782, Note_off_c, 0, 78, 62
1, 416814, Note_off_c, 0, 70, 61
1, 416901, Note_on_c, 0, 61, 67
1, 416943, Note_off_c, 0, 64, 54
1, 417110, Note_on_c, 0, 63, 74
1, 417133, Note_on_c, 0, 66, 70
1, 417136, Note_on_c, 0, 71, 74
1, 417187, Note_off_c, 0, 61, 36
1, 417303, Control_c, 0, 64, 113
1, 417313, Note_off_c, 0, 66, 61
1, 417318, Control_c, 0, 64, 80
1, 417333, Control_c, 0, 64, 72
1, 417342, Note_on_c, 0, 64, 76
1, 417343, Note_on_c, 0, 67, 73
1, 417348, Note_off_c, 0, 63, 63
1, 417348, Control_c, 0, 64, 71
1, 417363, Control_c, 0, 64, 74
1, 417378, Control_c, 0, 64, 83
1, 417393, Control_c, 0, 64, 111
1, 417407, Control_c, 0, 64, 127
1, 417537, Note_off_c, 0, 67, 60
1, 417549, Note_off_c, 0, 71, 58
1, 417551, Note_on_c, 0, 69, 76
1, 417556, Note_on_c, 0, 65, 89
1, 417579, Note_off_c, 0, 64, 61
1, 417619, Note_off_c, 0, 69, 0
1, 417656, Poly_aftertouch_c, 0, 69, 127
1, 417658, Note_on_c, 0, 69, 15
1, 417744, Note_off_c, 0, 69, 61
1, 417761, Note_off_c, 0, 65, 62
1, 417765, Note_on_c, 0, 66, 85
1, 417770, Note_on_c, 0, 78, 90
1, 417772, Note_on_c, 0, 70, 80
1, 417888, Note_off_c, 0, 70, 60
1, 417915, Note_off_c, 0, 78, 56
1, 418033, Note_on_c, 0, 67, 82
1, 418036, Note_on_c, 0, 64, 75
1, 418047, Note_on_c, 0, 79, 89
1, 418052, Control_c, 0, 64, 70
1, 418057, Note_on_c, 0, 71, 79
1, 418057, Note_off_c, 0, 66, 59
1, 418067, Control_c, 0, 64, 0
1, 418111, Control_c, 0, 64, 52
1, 418126, Control_c, 0, 64, 70
1, 418141, Control_c, 0, 64, 90
1, 418156, Control_c, 0, 64, 127
1, 418194, Note_off_c, 0, 71, 60
1, 418198, Note_off_c, 0, 79, 62
1, 418312, Note_off_c, 0, 67, 61
1, 418318, Note_on_c, 0, 81, 96
1, 418322, Note_on_c, 0, 72, 78
1, 418326, Note_on_c, 0, 69, 79
1, 418344, Note_off_c, 0, 59, 59
1, 418353, Note_off_c, 0, 64, 60
1, 418404, Note_off_c, 0, 81, 63
1, 418412, Note_off_c, 0, 69, 57
1, 418573, Note_off_c, 0, 72, 61
1, 418632, Note_on_c, 0, 79, 96
1, 418636, Note_on_c, 0, 74, 79
1, 418638, Note_on_c, 0, 67, 85
1, 418704, Note_off_c, 0, 67, 60
1, 418730, Note_off_c, 0, 79, 64
1, 418749, Note_off_c, 0, 74, 62
1, 418974, Note_on_c, 0, 45, 76
1, 419053, Control_c, 0, 64, 75
1, 419057, Note_on_c, 0, 67, 73
1, 419058, Note_on_c, 0, 76, 74
1, 419059, Note_on_c, 0, 79, 72
1, 419067, Control_c, 0, 64, 53
1, 419082, Control_c, 0, 64, 0
1, 419089, Note_on_c, 0, 81, 11
1, 419096, Note_off_c, 0, 81, 41
1, 419111, Control_c, 0, 64, 44
1, 419126, Control_c, 0, 64, 66
1, 419142, Control_c, 0, 64, 89
1, 419157, Control_c, 0, 64, 127
1, 419238, Note_off_c, 0, 67, 58
1, 419452, Note_on_c, 0, 52, 53
1, 419458, Note_off_c, 0, 76, 64
1, 419461, Note_on_c, 0, 83, 71
1, 419476, Note_on_c, 0, 71, 58
1, 419479, Note_off_c, 0, 79, 63
1, 419546, Note_off_c, 0, 83, 58
1, 419557, Note_off_c, 0, 71, 61
1, 419669, Note_off_c, 0, 45, 59
1, 419705, Note_on_c, 0, 60, 79
1, 419709, Note_off_c, 0, 52, 63
1, 419713, Note_on_c, 0, 66, 75
1, 419714, Note_on_c, 0, 78, 76
1, 419717, Note_on_c, 0, 74, 74
1, 419765, Note_off_c, 0, 60, 66
1, 419800, Note_off_c, 0, 66, 56
1, 419810, Note_off_c, 0, 74, 60
1, 419844, Note_off_c, 0, 78, 62
1, 420075, Note_on_c, 0, 71, 92
1, 420122, Note_on_c, 0, 78, 75
1, 420132, Note_on_c, 0, 66, 54
1, 420135, Note_on_c, 0, 74, 56
1, 420186, Note_off_c, 0, 66, 44
1, 420341, Note_off_c, 0, 71, 51
1, 420349, Poly_aftertouch_c, 0, 61, 127
1, 420356, Note_off_c, 0, 74, 61
1, 420372, Note_off_c, 0, 78, 53
1, 420376, Note_on_c, 0, 83, 69
1, 420389, Note_on_c, 0, 60, 47
1, 420391, Note_on_c, 0, 71, 31
1, 420404, Note_off_c, 0, 83, 59
1, 420459, Note_off_c, 0, 71, 42
1, 420462, Poly_aftertouch_c, 0, 61, 0
1, 420594, Note_on_c, 0, 76, 78
1, 420603, Note_on_c, 0, 52, 60
1, 420603, Note_on_c, 0, 64, 68
1, 420605, Note_on_c, 0, 72, 67
1, 420673, Note_off_c, 0, 64, 59
1, 420674, Note_off_c, 0, 52, 53
1, 420680, Note_off_c, 0, 72, 56
1, 420689, Note_off_c, 0, 60, 35
1, 420707, Note_off_c, 0, 76, 62
1, 420803, Note_on_c, 0, 52, 71
1, 420809, Note_on_c, 0, 76, 90
1, 420809, Note_on_c, 0, 64, 67
1, 420818, Note_on_c, 0, 72, 66
1, 420844, Note_off_c, 0, 64, 66
1, 420937, Note_off_c, 0, 76, 59
1, 420973, Note_off_c, 0, 72, 44
1, 421005, Note_on_c, 0, 83, 74
1, 421018, Note_on_c, 0, 71, 63
1, 421028, Note_off_c, 0, 83, 66
1, 421029, Note_on_c, 0, 60, 62
1, 421031, Note_off_c, 0, 52, 55
1, 421050, Note_off_c, 0, 71, 61
1, 421224, Note_on_c, 0, 69, 87
1, 421234, Note_on_c, 0, 74, 81
1, 421278, Note_on_c, 0, 62, 26
1, 421317, Note_off_c, 0, 62, 50
1, 421328, Note_off_c, 0, 69, 60
1, 421431, Control_c, 0, 67, 21
1, 421445, Note_on_c, 0, 67, 91
1, 421446, Control_c, 0, 64, 89
1, 421458, Note_on_c, 0, 64, 81
1, 421459, Note_on_c, 0, 57, 68
1, 421460, Note_on_c, 0, 76, 86
1, 421461, Control_c, 0, 64, 53
1, 421461, Control_c, 0, 67, 23
1, 421476, Control_c, 0, 64, 0
1, 421505, Control_c, 0, 64, 56
1, 421508, Note_off_c, 0, 64, 58
1, 421520, Control_c, 0, 64, 77
1, 421524, Note_off_c, 0, 67, 60
1, 421534, Note_off_c, 0, 74, 59
1, 421535, Control_c, 0, 64, 127
1, 421551, Note_off_c, 0, 57, 63
1, 421561, Note_off_c, 0, 76, 63
1, 421688, Note_on_c, 0, 81, 78
1, 421688, Note_on_c, 0, 50, 76
1, 421691, Control_c, 0, 67, 21
1, 421699, Note_on_c, 0, 69, 57
1, 421722, Note_off_c, 0, 81, 60
1, 421723, Note_off_c, 0, 69, 64
1, 421861, Note_off_c, 0, 50, 35
1, 421926, Note_on_c, 0, 66, 85
1, 421934, Note_on_c, 0, 57, 68
1, 421936, Note_on_c, 0, 74, 81
1, 421937, Note_on_c, 0, 78, 85
1, 421969, Note_off_c, 0, 66, 64
1, 421971, Note_off_c, 0, 60, 58
1, 421996, Note_off_c, 0, 57, 63
1, 422004, Note_off_c, 0, 74, 61
1, 422014, Note_off_c, 0, 78, 63
1, 422061, Control_c, 0, 67, 19
1, 422076, Control_c, 0, 67, 0
1, 422181, Control_c, 0, 67, 19
1, 422239, Note_on_c, 0, 43, 91
1, 422240, Control_c, 0, 64, 88
1, 422254, Control_c, 0, 64, 50
1, 422269, Control_c, 0, 64, 0
1, 422275, Note_on_c, 0, 78, 89
1, 422276, Note_on_c, 0, 66, 81
1, 422280, Note_on_c, 0, 74, 76
1, 422336, Control_c, 0, 64, 58
1, 422344, Note_off_c, 0, 66, 60
1, 422351, Control_c, 0, 64, 70
1, 422366, Control_c, 0, 64, 85
1, 422381, Control_c, 0, 64, 112
1, 422381, Control_c, 0, 67, 21
1, 422396, Control_c, 0, 64, 127
1, 422525, Note_off_c, 0, 74, 62
1, 422546, Note_off_c, 0, 78, 62
1, 422551, Note_on_c, 0, 83, 68
1, 422557, Note_on_c, 0, 50, 72
1, 422566, Note_on_c, 0, 71, 59
1, 422574, Note_off_c, 0, 83, 61
1, 422588, Control_c, 0, 67, 19
1, 422590, Note_off_c, 0, 71, 63
1, 422603, Control_c, 0, 67, 0
1, 422651, Note_off_c, 0, 43, 57
1, 422734, Note_off_c, 0, 50, 63
1, 422749, Note_on_c, 0, 59, 83
1, 422765, Note_on_c, 0, 76, 79
1, 422775, Note_on_c, 0, 64, 60
1, 422776, Note_on_c, 0, 72, 68
1, 422790, Note_off_c, 0, 59, 64
1, 422842, Note_off_c, 0, 64, 56
1, 422849, Note_off_c, 0, 72, 52
1, 422928, Note_off_c, 0, 76, 61
1, 423059, Note_on_c, 0, 69, 93
1, 423062, Note_on_c, 0, 76, 76
1, 423071, Note_on_c, 0, 64, 62
1, 423071, Note_on_c, 0, 72, 73
1, 423107, Note_off_c, 0, 64, 66
1, 423184, Note_off_c, 0, 69, 53
1, 423190, Note_off_c, 0, 72, 55
1, 423197, Note_off_c, 0, 76, 61
1, 423290, Note_on_c, 0, 83, 66
1, 423301, Note_on_c, 0, 59, 58
1, 423305, Note_on_c, 0, 71, 59
1, 423316, Note_off_c, 0, 83, 66
1, 423340, Note_off_c, 0, 71, 65
1, 423507, Note_on_c, 0, 74, 77
1, 423511, Note_on_c, 0, 50, 70
1, 423516, Note_on_c, 0, 71, 71
1, 423524, Note_on_c, 0, 62, 53
1, 423560, Note_off_c, 0, 62, 62
1, 423567, Note_off_c, 0, 50, 58
1, 423579, Note_off_c, 0, 59, 34
1, 423579, Note_off_c, 0, 71, 61
1, 423599, Note_off_c, 0, 74, 59
1, 423715, Note_on_c, 0, 50, 77
1, 423715, Note_on_c, 0, 74, 81
1, 423721, Note_on_c, 0, 62, 68
1, 423723, Note_on_c, 0, 71, 71
1, 423745, Note_off_c, 0, 62, 68
1, 423801, Note_off_c, 0, 71, 62
1, 423803, Note_off_c, 0, 74, 58
1, 423918, Note_on_c, 0, 83, 73
1, 423921, Note_on_c, 0, 59, 70
1, 423928, Note_on_c, 0, 71, 60
1, 423940, Note_off_c, 0, 83, 70
1, 423955, Note_off_c, 0, 71, 65
1, 423980, Note_off_c, 0, 50, 54
1, 424111, Note_off_c, 0, 59, 63
1, 424115, Note_on_c, 0, 67, 95
1, 424132, Note_on_c, 0, 72, 79
1, 424141, Note_on_c, 0, 60, 65
1, 424196, Note_off_c, 0, 67, 51
1, 424210, Note_off_c, 0, 60, 56
1, 424343, Note_on_c, 0, 71, 67
1, 424349, Note_on_c, 0, 66, 92
1, 424351, Note_on_c, 0, 57, 79
1, 424352, Note_on_c, 0, 74, 86
1, 424353, Control_c, 0, 64, 74
1, 424368, Control_c, 0, 64, 36
1, 424371, Note_on_c, 0, 60, 39
1, 424383, Control_c, 0, 64, 0
1, 424388, Note_on_c, 0, 62, 23
1, 424392, Note_off_c, 0, 72, 51
1, 424395, Note_off_c, 0, 60, 60
1, 424413, Control_c, 0, 64, 57
1, 424424, Note_off_c, 0, 62, 43
1, 424428, Control_c, 0, 64, 76
1, 424433, Note_off_c, 0, 71, 62
1, 424435, Note_off_c, 0, 74, 64
1, 424443, Control_c, 0, 64, 119
1, 424457, Control_c, 0, 64, 127
1, 424567, Note_on_c, 0, 81, 81
1, 424579, Note_on_c, 0, 60, 74
1, 424580, Note_on_c, 0, 69, 76
1, 424590, Note_off_c, 0, 66, 58
1, 424623, Note_off_c, 0, 69, 60
1, 424638, Note_off_c, 0, 81, 56
1, 424785, Note_off_c, 0, 57, 50
1, 424799, Note_on_c, 0, 64, 86
1, 424809, Note_on_c, 0, 72, 80
1, 424810, Note_on_c, 0, 76, 89
1, 424820, Note_off_c, 0, 60, 56
1, 424836, Note_off_c, 0, 64, 65
1, 424872, Note_off_c, 0, 72, 61
1, 424874, Note_off_c, 0, 76, 65
1, 425061, Note_on_c, 0, 42, 85
1, 425102, Control_c, 0, 64, 103
1, 425117, Control_c, 0, 64, 64
1, 425119, Note_on_c, 0, 76, 91
1, 425125, Note_on_c, 0, 64, 75
1, 425128, Note_on_c, 0, 72, 76
1, 425131, Control_c, 0, 64, 0
1, 425176, Control_c, 0, 64, 49
1, 425191, Control_c, 0, 64, 66
1, 425195, Note_off_c, 0, 64, 60
1, 425206, Control_c, 0, 64, 79
1, 425221, Control_c, 0, 64, 92
1, 425236, Control_c, 0, 64, 100
1, 425251, Control_c, 0, 64, 104
1, 425266, Control_c, 0, 64, 114
1, 425280, Control_c, 0, 64, 127
1, 425333, Note_off_c, 0, 76, 59
1, 425350, Note_off_c, 0, 72, 42
1, 425399, Note_on_c, 0, 83, 61
1, 425407, Note_on_c, 0, 71, 59
1, 425409, Note_on_c, 0, 48, 67
1, 425416, Note_off_c, 0, 83, 63
1, 425474, Note_off_c, 0, 71, 56
1, 425507, Note_off_c, 0, 42, 57
1, 425596, Note_off_c, 0, 48, 60
1, 425605, Note_on_c, 0, 57, 85
1, 425614, Note_on_c, 0, 74, 79
1, 425620, Note_on_c, 0, 71, 59
1, 425623, Note_on_c, 0, 62, 72
1, 425649, Note_off_c, 0, 57, 64
1, 425708, Note_off_c, 0, 62, 53
1, 425756, Note_off_c, 0, 74, 58
1, 425784, Note_off_c, 0, 71, 29
1, 425912, Note_on_c, 0, 67, 91
1, 425923, Note_on_c, 0, 74, 71
1, 425926, Note_on_c, 0, 71, 67
1, 425927, Note_on_c, 0, 62, 61
1, 425952, Note_off_c, 0, 62, 58
1, 426028, Note_off_c, 0, 71, 63
1, 426032, Note_off_c, 0, 74, 60
1, 426067, Note_off_c, 0, 67, 44
1, 426153, Note_on_c, 0, 83, 69
1, 426171, Note_on_c, 0, 71, 54
1, 426174, Note_on_c, 0, 57, 58
1, 426176, Note_off_c, 0, 83, 69
1, 426207, Note_off_c, 0, 71, 52
1, 426365, Note_on_c, 0, 72, 66
1, 426379, Note_on_c, 0, 52, 57
1, 426383, Note_on_c, 0, 60, 62
1, 426385, Note_on_c, 0, 69, 61
1, 426418, Note_off_c, 0, 57, 58
1, 426429, Note_off_c, 0, 60, 55
1, 426431, Note_off_c, 0, 52, 59
1, 426449, Note_off_c, 0, 69, 59
1, 426460, Note_off_c, 0, 72, 62
1, 426571, Note_on_c, 0, 52, 58
1, 426578, Note_on_c, 0, 60, 62
1, 426579, Note_on_c, 0, 72, 74
1, 426580, Note_on_c, 0, 69, 67
1, 426585, Control_c, 0, 64, 80
1, 426600, Control_c, 0, 64, 59
1, 426615, Control_c, 0, 64, 51
1, 426617, Note_off_c, 0, 60, 66
1, 426629, Control_c, 0, 64, 58
1, 426644, Control_c, 0, 64, 67
1, 426659, Control_c, 0, 64, 83
1, 426674, Control_c, 0, 64, 127
1, 426772, Note_off_c, 0, 72, 52
1, 426773, Note_off_c, 0, 69, 59
1, 426783, Note_on_c, 0, 57, 56
1, 426785, Note_on_c, 0, 76, 74
1, 426814, Note_off_c, 0, 76, 65
1, 426997, Note_on_c, 0, 66, 83
1, 427005, Note_on_c, 0, 71, 69
1, 427018, Note_on_c, 0, 59, 59
1, 427038, Note_off_c, 0, 59, 64
1, 427134, Note_off_c, 0, 71, 60
1, 427144, Note_off_c, 0, 66, 59
1, 427159, Note_off_c, 0, 57, 35
1, 427300, Note_on_c, 0, 64, 67
1, 427304, Note_on_c, 0, 57, 57
1, 427304, Note_off_c, 0, 52, 58
1, 427304, Control_c, 0, 64, 109
1, 427312, Note_on_c, 0, 73, 68
1, 427316, Note_on_c, 0, 54, 59
1, 427319, Control_c, 0, 64, 70
1, 427320, Note_on_c, 0, 69, 49
1, 427328, Note_on_c, 0, 61, 49
1, 427334, Control_c, 0, 64, 45
1, 427349, Control_c, 0, 64, 0
1, 427379, Control_c, 0, 64, 48
1, 427393, Control_c, 0, 64, 66
1, 427408, Control_c, 0, 64, 84
1, 427411, Note_off_c, 0, 61, 57
1, 427422, Note_off_c, 0, 73, 60
1, 427423, Control_c, 0, 64, 127
1, 427432, Note_off_c, 0, 64, 57
1, 427477, Note_off_c, 0, 69, 59
1, 427566, Note_on_c, 0, 47, 54
1, 427602, Note_off_c, 0, 54, 37
1, 427605, Note_on_c, 0, 78, 52
1, 427613, Note_off_c, 0, 47, 59
1, 427613, Note_off_c, 0, 57, 24
1, 427619, Note_on_c, 0, 66, 45
1, 427686, Note_off_c, 0, 78, 52
1, 427686, Note_off_c, 0, 66, 53
1, 427794, Note_on_c, 0, 63, 63
1, 427796, Note_on_c, 0, 75, 62
1, 427799, Note_on_c, 0, 54, 58
1, 427809, Note_on_c, 0, 69, 44
1, 427811, Note_on_c, 0, 57, 50
1, 427835, Note_off_c, 0, 54, 61
1, 427838, Note_off_c, 0, 63, 54
1, 427845, Note_off_c, 0, 57, 60
1, 427873, Note_off_c, 0, 69, 43
1, 427878, Note_off_c, 0, 75, 61
1, 428055, Control_c, 0, 64, 77
1, 428056, Note_on_c, 0, 63, 65
1, 428061, Note_on_c, 0, 54, 58
1, 428068, Note_on_c, 0, 75, 63
1, 428069, Control_c, 0, 64, 39
1, 428070, Note_on_c, 0, 57, 44
1, 428077, Note_on_c, 0, 69, 57
1, 428084, Control_c, 0, 64, 0
1, 428114, Control_c, 0, 64, 40
1, 428127, Note_off_c, 0, 63, 61
1, 428128, Control_c, 0, 64, 64
1, 428143, Control_c, 0, 64, 80
1, 428158, Control_c, 0, 64, 108
1, 428173, Control_c, 0, 64, 127
1, 428201, Note_off_c, 0, 69, 53
1, 428262, Note_off_c, 0, 75, 55
1, 428285, Note_off_c, 0, 57, 28
1, 428294, Note_off_c, 0, 54, 52
1, 428297, Note_on_c, 0, 48, 62
1, 428303, Note_on_c, 0, 79, 65
1, 428337, Note_off_c, 0, 48, 61
1, 428383, Note_off_c, 0, 79, 54
1, 428401, Poly_aftertouch_c, 0, 67, 0
1, 428494, Note_on_c, 0, 59, 65
1, 428497, Note_on_c, 0, 64, 66
1, 428503, Note_on_c, 0, 55, 65
1, 428504, Note_on_c, 0, 76, 83
1, 428507, Note_on_c, 0, 71, 72
1, 428538, Note_off_c, 0, 64, 62
1, 428558, Note_off_c, 0, 59, 62
1, 428568, Note_off_c, 0, 55, 62
1, 428571, Note_off_c, 0, 71, 61
1, 428621, Note_off_c, 0, 76, 62
1, 428699, Control_c, 0, 64, 81
1, 428704, Note_on_c, 0, 63, 79
1, 428710, Note_on_c, 0, 78, 83
1, 428713, Note_on_c, 0, 66, 75
1, 428713, Note_on_c, 0, 75, 75
1, 428714, Control_c, 0, 64, 52
1, 428715, Note_on_c, 0, 54, 71
1, 428722, Note_on_c, 0, 57, 58
1, 428729, Control_c, 0, 64, 0
1, 428759, Control_c, 0, 64, 45
1, 428759, Note_off_c, 0, 63, 61
1, 428765, Note_off_c, 0, 66, 55
1, 428774, Control_c, 0, 64, 68
1, 428786, Note_off_c, 0, 57, 60
1, 428789, Control_c, 0, 64, 85
1, 428791, Note_off_c, 0, 78, 62
1, 428803, Control_c, 0, 64, 122
1, 428818, Control_c, 0, 64, 127
1, 428821, Note_off_c, 0, 54, 55
1, 428869, Note_off_c, 0, 75, 62
1, 428901, Note_on_c, 0, 47, 75
1, 428922, Note_on_c, 0, 83, 75
1, 428923, Note_on_c, 0, 71, 72
1, 428946, Note_off_c, 0, 47, 62
1, 428977, Note_off_c, 0, 83, 56
1, 428980, Note_off_c, 0, 71, 47
1, 429106, Control_c, 0, 64, 112
1, 429112, Note_on_c, 0, 64, 80
1, 429113, Note_on_c, 0, 79, 96
1, 429119, Note_on_c, 0, 59, 66
1, 429119, Note_on_c, 0, 67, 82
1, 429121, Control_c, 0, 64, 93
1, 429124, Note_on_c, 0, 76, 82
1, 429125, Note_on_c, 0, 55, 59
1, 429150, Control_c, 0, 64, 109
1, 429158, Note_off_c, 0, 55, 65
1, 429165, Control_c, 0, 64, 127
1, 429168, Note_off_c, 0, 59, 65
1, 429188, Note_off_c, 0, 64, 63
1, 429203, Note_off_c, 0, 67, 60
1, 429227, Note_off_c, 0, 76, 61
1, 429297, Note_off_c, 0, 79, 62
1, 429315, Control_c, 0, 64, 97
1, 429325, Note_on_c, 0, 62, 75
1, 429329, Control_c, 0, 64, 57
1, 429333, Note_on_c, 0, 66, 81
1, 429340, Note_on_c, 0, 57, 74
1, 429344, Control_c, 0, 64, 0
1, 429346, Note_on_c, 0, 78, 90
1, 429347, Note_on_c, 0, 81, 93
1, 429348, Note_on_c, 0, 69, 89
1, 429373, Control_c, 0, 64, 36
1, 429381, Note_off_c, 0, 66, 63
1, 429386, Note_off_c, 0, 62, 64
1, 429388, Control_c, 0, 64, 67
1, 429398, Note_off_c, 0, 57, 64
1, 429403, Control_c, 0, 64, 114
1, 429405, Note_off_c, 0, 69, 59
1, 429418, Control_c, 0, 64, 127
1, 429426, Note_off_c, 0, 81, 65
1, 429530, Note_off_c, 0, 78, 62
1, 429544, Note_on_c, 0, 50, 71
1, 429548, Note_on_c, 0, 43, 78
1, 429556, Note_on_c, 0, 74, 91
1, 429557, Note_on_c, 0, 86, 88
1, 429575, Note_off_c, 0, 43, 65
1, 429594, Note_off_c, 0, 50, 58
1, 429598, Note_off_c, 0, 86, 63
1, 429599, Note_off_c, 0, 74, 62
1, 429755, Note_on_c, 0, 64, 79
1, 429758, Note_on_c, 0, 67, 83
1, 429760, Note_on_c, 0, 59, 81
1, 429760, Control_c, 0, 64, 98
1, 429768, Note_on_c, 0, 79, 68
1, 429772, Note_on_c, 0, 71, 90
1, 429772, Note_on_c, 0, 83, 97
1, 429774, Control_c, 0, 64, 76
1, 429789, Control_c, 0, 64, 76
1, 429804, Control_c, 0, 64, 90
1, 429825, Note_off_c, 0, 59, 65
1, 429826, Note_off_c, 0, 67, 62
1, 429826, Control_c, 0, 64, 127
1, 429842, Note_off_c, 0, 64, 62
1, 429859, Note_off_c, 0, 71, 63
1, 429877, Note_off_c, 0, 83, 64
1, 429888, Note_off_c, 0, 79, 64
1, 429974, Control_c, 0, 64, 74
1, 429989, Control_c, 0, 64, 0
1, 429989, Control_c, 0, 67, 30
1, 429999, Note_on_c, 0, 64, 81
1, 430000, Note_on_c, 0, 66, 92
1, 430005, Note_on_c, 0, 57, 81
1, 430013, Note_on_c, 0, 81, 102
1, 430014, Note_on_c, 0, 69, 93
1, 430014, Note_on_c, 0, 78, 96
1, 430020, Control_c, 0, 64, 46
1, 430020, Control_c, 0, 67, 24
1, 430035, Control_c, 0, 64, 75
1, 430035, Control_c, 0, 67, 20
1, 430041, Note_off_c, 0, 66, 61
1, 430045, Note_off_c, 0, 64, 64
1, 430049, Control_c, 0, 64, 127
1, 430049, Control_c, 0, 67, 0
1, 430053, Note_off_c, 0, 57, 65
1, 430059, Note_off_c, 0, 69, 60
1, 430088, Note_off_c, 0, 81, 64
1, 430193, Note_off_c, 0, 78, 61
1, 430255, Note_on_c, 0, 52, 95
1, 430257, Note_on_c, 0, 40, 83
1, 430266, Note_on_c, 0, 76, 103
1, 430266, Note_on_c, 0, 88, 94
1, 430279, Note_off_c, 0, 40, 67
1, 430279, Note_off_c, 0, 52, 66
1, 430299, Note_off_c, 0, 88, 67
1, 430305, Note_off_c, 0, 76, 65
1, 430538, Control_c, 0, 64, 94
1, 430553, Control_c, 0, 64, 0
1, 430557, Note_on_c, 0, 59, 83
1, 430558, Note_on_c, 0, 67, 91
1, 430559, Note_on_c, 0, 64, 90
1, 430595, Note_on_c, 0, 79, 104
1, 430596, Note_on_c, 0, 71, 103
1, 430598, Note_on_c, 0, 83, 101
1, 430604, Control_c, 0, 64, 62
1, 430618, Note_off_c, 0, 67, 66
1, 430619, Control_c, 0, 64, 127
1, 430634, Note_off_c, 0, 64, 67
1, 430640, Note_off_c, 0, 83, 68
1, 430640, Note_off_c, 0, 71, 66
1, 430645, Note_off_c, 0, 59, 64
1, 430663, Note_off_c, 0, 79, 67
1, 431000, Note_on_c, 0, 45, 99
1, 431002, Note_on_c, 0, 33, 98
1, 431036, Note_on_c, 0, 55, 88
1, 431039, Note_on_c, 0, 67, 80
1, 431043, Note_on_c, 0, 64, 79
1, 431045, Note_off_c, 0, 33, 66
1, 431045, Note_on_c, 0, 60, 71
1, 431060, Note_off_c, 0, 45, 52
1, 431080, Note_off_c, 0, 55, 63
1, 431096, Note_off_c, 0, 67, 60
1, 431113, Note_off_c, 0, 60, 63
1, 431121, Note_off_c, 0, 64, 62
1, 431464, Note_on_c, 0, 72, 79
1, 431468, Note_on_c, 0, 60, 73
1, 431516, Note_off_c, 0, 72, 60
1, 431531, Note_off_c, 0, 60, 61
1, 431756, Note_on_c, 0, 64, 83
1, 431756, Note_on_c, 0, 66, 93
1, 431757, Note_on_c, 0, 54, 90
1, 431766, Note_on_c, 0, 60, 82
1, 431784, Control_c, 0, 64, 92
1, 431799, Control_c, 0, 64, 64
1, 431801, Note_on_c, 0, 81, 94
1, 431802, Note_on_c, 0, 72, 98
1, 431805, Note_on_c, 0, 84, 102
1, 431814, Control_c, 0, 64, 54
1, 431829, Control_c, 0, 64, 62
1, 431843, Control_c, 0, 64, 75
1, 431858, Control_c, 0, 64, 127
1, 431902, Note_off_c, 0, 54, 61
1, 431917, Note_off_c, 0, 60, 61
1, 431918, Note_off_c, 0, 66, 56
1, 431923, Note_off_c, 0, 64, 56
1, 432127, Note_on_c, 0, 66, 68
1, 432128, Note_on_c, 0, 54, 60
1, 432133, Note_on_c, 0, 60, 60
1, 432147, Note_on_c, 0, 64, 39
1, 432177, Note_off_c, 0, 54, 61
1, 432191, Note_off_c, 0, 64, 52
1, 432195, Note_off_c, 0, 60, 63
1, 432216, Note_off_c, 0, 66, 61
1, 432220, Poly_aftertouch_c, 0, 63, 127
1, 432246, Poly_aftertouch_c, 0, 63, 0
1, 432272, Note_off_c, 0, 72, 53
1, 432351, Note_off_c, 0, 81, 59
1, 432361, Note_on_c, 0, 62, 74
1, 432363, Note_on_c, 0, 72, 68
1, 432393, Note_off_c, 0, 72, 65
1, 432413, Note_off_c, 0, 62, 61
1, 432543, Note_off_c, 0, 84, 60
1, 432544, Note_on_c, 0, 64, 97
1, 432544, Note_on_c, 0, 52, 91
1, 432553, Note_on_c, 0, 60, 82
1, 432555, Note_on_c, 0, 57, 79
1, 432591, Note_on_c, 0, 86, 101
1, 432592, Note_on_c, 0, 74, 101
1, 432594, Note_on_c, 0, 83, 92
1, 432658, Note_off_c, 0, 60, 60
1, 432662, Note_off_c, 0, 52, 58
1, 432667, Note_off_c, 0, 57, 61
1, 432692, Note_off_c, 0, 74, 50
1, 432697, Note_off_c, 0, 83, 66
1, 432699, Note_off_c, 0, 64, 59
1, 432787, Note_off_c, 0, 86, 59
1, 432799, Control_c, 0, 64, 70
1, 432804, Note_on_c, 0, 52, 85
1, 432804, Note_on_c, 0, 60, 85
1, 432805, Note_on_c, 0, 64, 95
1, 432815, Note_on_c, 0, 57, 81
1, 432822, Control_c, 0, 64, 50
1, 432837, Control_c, 0, 64, 53
1, 432847, Note_on_c, 0, 84, 95
1, 432847, Note_on_c, 0, 88, 105
1, 432848, Note_on_c, 0, 76, 103
1, 432851, Control_c, 0, 64, 67
1, 432866, Control_c, 0, 64, 100
1, 432871, Note_off_c, 0, 52, 62
1, 432879, Note_off_c, 0, 57, 66
1, 432881, Control_c, 0, 64, 127
1, 432887, Note_off_c, 0, 60, 66
1, 432890, Note_off_c, 0, 64, 61
1, 432893, Note_off_c, 0, 76, 64
1, 432914, Note_off_c, 0, 84, 65
1, 432932, Note_off_c, 0, 88, 67
1, 433054, Note_on_c, 0, 74, 78
1, 433062, Note_on_c, 0, 86, 82
1, 433062, Note_on_c, 0, 90, 96
1, 433064, Note_on_c, 0, 62, 75
1, 433064, Note_on_c, 0, 78, 97
1, 433075, Note_off_c, 0, 74, 71
1, 433095, Note_off_c, 0, 62, 63
1, 433135, Note_off_c, 0, 78, 58
1, 433180, Note_off_c, 0, 86, 55
1, 433217, Note_off_c, 0, 90, 56
1, 433275, Note_on_c, 0, 88, 94
1, 433276, Note_on_c, 0, 62, 89
1, 433278, Note_on_c, 0, 50, 94
1, 433281, Note_on_c, 0, 91, 102
1, 433282, Note_on_c, 0, 79, 103
1, 433282, Control_c, 0, 64, 110
1, 433293, Note_off_c, 0, 62, 73
1, 433296, Control_c, 0, 64, 62
1, 433306, Note_off_c, 0, 50, 64
1, 433311, Control_c, 0, 64, 0
1, 433326, Control_c, 0, 64, 39
1, 433340, Control_c, 0, 64, 70
1, 433355, Control_c, 0, 64, 127
1, 433379, Note_off_c, 0, 79, 53
1, 433386, Note_off_c, 0, 88, 65
1, 433397, Note_on_c, 0, 38, 96
1, 433397, Note_on_c, 0, 50, 100
1, 433413, Note_off_c, 0, 50, 73
1, 433419, Note_off_c, 0, 38, 71
1, 433527, Note_off_c, 0, 91, 55
1, 433544, Note_on_c, 0, 62, 98
1, 433553, Note_on_c, 0, 50, 87
1, 433555, Note_on_c, 0, 93, 94
1, 433557, Note_on_c, 0, 81, 108
1, 433557, Note_on_c, 0, 90, 101
1, 433576, Note_off_c, 0, 62, 67
1, 433582, Note_off_c, 0, 50, 70
1, 433601, Note_off_c, 0, 81, 65
1, 433635, Note_off_c, 0, 93, 64
1, 433854, Note_on_c, 0, 60, 83
1, 433855, Note_on_c, 0, 64, 79
1, 433859, Note_on_c, 0, 72, 95
1, 433864, Note_on_c, 0, 67, 77
1, 433884, Note_off_c, 0, 90, 62
1, 433885, Note_on_c, 0, 68, 59
1, 433896, Control_c, 0, 64, 90
1, 433911, Note_off_c, 0, 68, 37
1, 433911, Control_c, 0, 64, 92
1, 433912, Note_on_c, 0, 83, 109
1, 433914, Note_on_c, 0, 91, 98
1, 433914, Note_on_c, 0, 95, 101
1, 433926, Control_c, 0, 64, 127
1, 433929, Note_off_c, 0, 72, 64
1, 433940, Note_off_c, 0, 83, 69
1, 433944, Note_off_c, 0, 95, 66
1, 433949, Note_off_c, 0, 91, 68
1, 433963, Note_off_c, 0, 67, 65
1, 433972, Note_off_c, 0, 60, 62
1, 433979, Note_off_c, 0, 64, 62
1, 434253, Control_c, 0, 64, 104
1, 434267, Control_c, 0, 64, 59
1, 434273, Note_on_c, 0, 66, 101
1, 434274, Note_on_c, 0, 54, 96
1, 434282, Control_c, 0, 64, 0
1, 434305, Note_on_c, 0, 69, 99
1, 434306, Note_on_c, 0, 81, 94
1, 434316, Note_on_c, 0, 74, 92
1, 434317, Note_on_c, 0, 78, 95
1, 434319, Control_c, 0, 64, 63
1, 434332, Note_off_c, 0, 66, 65
1, 434334, Control_c, 0, 64, 127
1, 434343, Note_off_c, 0, 54, 64
1, 434353, Note_off_c, 0, 81, 68
1, 434354, Note_off_c, 0, 69, 67
1, 434367, Note_off_c, 0, 74, 65
1, 434379, Note_off_c, 0, 78, 67
1, 434726, Note_on_c, 0, 43, 99
1, 434728, Note_on_c, 0, 31, 98
1, 434759, Note_on_c, 0, 54, 92
1, 434761, Note_on_c, 0, 62, 74
1, 434762, Note_on_c, 0, 59, 75
1, 434762, Note_on_c, 0, 66, 90
1, 434771, Note_off_c, 0, 31, 65
1, 434807, Note_off_c, 0, 54, 61
1, 434817, Note_off_c, 0, 59, 63
1, 434819, Note_off_c, 0, 66, 64
1, 434833, Note_off_c, 0, 62, 61
1, 434838, Note_off_c, 0, 43, 66
1, 435147, Note_on_c, 0, 71, 77
1, 435152, Note_on_c, 0, 59, 70
1, 435175, Note_off_c, 0, 71, 63
1, 435204, Note_off_c, 0, 59, 61
1, 435404, Poly_aftertouch_c, 0, 58, 127
1, 435436, Poly_aftertouch_c, 0, 58, 0
1, 435454, Note_on_c, 0, 50, 77
1, 435454, Note_on_c, 0, 62, 84
1, 435459, Note_on_c, 0, 60, 81
1, 435460, Note_on_c, 0, 57, 79
1, 435470, Note_on_c, 0, 79, 94
1, 435472, Note_on_c, 0, 83, 100
1, 435472, Note_on_c, 0, 71, 100
1, 435484, Control_c, 0, 64, 71
1, 435499, Control_c, 0, 64, 34
1, 435513, Control_c, 0, 64, 0
1, 435528, Control_c, 0, 64, 59
1, 435534, Note_off_c, 0, 50, 63
1, 435543, Control_c, 0, 64, 107
1, 435549, Note_off_c, 0, 57, 64
1, 435550, Note_off_c, 0, 62, 48
1, 435558, Control_c, 0, 64, 127
1, 435559, Note_off_c, 0, 60, 61
1, 435690, Control_c, 0, 64, 96
1, 435696, Note_on_c, 0, 52, 84
1, 435696, Note_on_c, 0, 64, 92
1, 435699, Note_on_c, 0, 59, 80
1, 435700, Note_on_c, 0, 62, 81
1, 435705, Control_c, 0, 64, 76
1, 435720, Control_c, 0, 64, 78
1, 435734, Control_c, 0, 64, 127
1, 435773, Note_off_c, 0, 52, 62
1, 435779, Poly_aftertouch_c, 0, 53, 0
1, 435791, Note_off_c, 0, 59, 63
1, 435795, Note_off_c, 0, 62, 62
1, 435810, Note_off_c, 0, 64, 58
1, 435822, Poly_aftertouch_c, 0, 53, 0
1, 435861, Note_off_c, 0, 71, 55
1, 435913, Note_off_c, 0, 79, 61
1, 435940, Note_on_c, 0, 71, 75
1, 435949, Note_on_c, 0, 59, 67
1, 435961, Note_off_c, 0, 71, 70
1, 435974, Note_off_c, 0, 59, 66
1, 436124, Note_on_c, 0, 62, 88
1, 436124, Note_off_c, 0, 83, 62
1, 436126, Note_on_c, 0, 50, 80
1, 436130, Note_on_c, 0, 55, 74
1, 436131, Note_on_c, 0, 59, 70
1, 436150, Note_on_c, 0, 81, 93
1, 436151, Note_on_c, 0, 84, 99
1, 436152, Note_on_c, 0, 72, 95
1, 436216, Note_off_c, 0, 50, 63
1, 436220, Note_off_c, 0, 59, 61
1, 436222, Note_off_c, 0, 55, 60
1, 436246, Note_off_c, 0, 72, 51
1, 436249, Note_off_c, 0, 81, 65
1, 436262, Note_off_c, 0, 62, 52
1, 436349, Control_c, 0, 64, 84
1, 436351, Note_on_c, 0, 50, 86
1, 436354, Note_on_c, 0, 62, 98
1, 436355, Note_on_c, 0, 59, 82
1, 436358, Note_on_c, 0, 55, 76
1, 436360, Note_off_c, 0, 84, 52
1, 436364, Control_c, 0, 64, 63
1, 436378, Note_on_c, 0, 86, 93
1, 436380, Control_c, 0, 64, 62
1, 436381, Note_on_c, 0, 74, 98
1, 436381, Note_on_c, 0, 83, 96
1, 436395, Control_c, 0, 64, 75
1, 436407, Note_off_c, 0, 50, 61
1, 436410, Control_c, 0, 64, 127
1, 436412, Note_off_c, 0, 55, 63
1, 436424, Note_off_c, 0, 59, 64
1, 436426, Note_off_c, 0, 62, 61
1, 436435, Note_off_c, 0, 74, 58
1, 436476, Note_off_c, 0, 83, 63
1, 436574, Note_on_c, 0, 71, 85
1, 436575, Note_on_c, 0, 84, 97
1, 436581, Note_on_c, 0, 59, 77
1, 436586, Note_on_c, 0, 76, 94
1, 436586, Note_on_c, 0, 88, 101
1, 436598, Note_off_c, 0, 71, 66
1, 436598, Note_off_c, 0, 86, 60
1, 436612, Note_off_c, 0, 59, 62
1, 436613, Note_off_c, 0, 84, 65
1, 436619, Note_off_c, 0, 76, 60
1, 436651, Note_off_c, 0, 88, 64
1, 436783, Poly_aftertouch_c, 0, 86, 0
1, 436787, Control_c, 0, 64, 76
1, 436790, Note_on_c, 0, 60, 87
1, 436795, Note_on_c, 0, 86, 57
1, 436796, Note_on_c, 0, 48, 84
1, 436798, Note_on_c, 0, 90, 103
1, 436798, Note_on_c, 0, 78, 98
1, 436802, Control_c, 0, 64, 45
1, 436809, Note_off_c, 0, 60, 74
1, 436816, Control_c, 0, 64, 46
1, 436818, Note_off_c, 0, 48, 72
1, 436831, Control_c, 0, 64, 73
1, 436846, Control_c, 0, 64, 127
1, 436864, Note_off_c, 0, 78, 61
1, 436908, Note_on_c, 0, 48, 96
1, 436911, Note_on_c, 0, 36, 95
1, 436933, Note_off_c, 0, 48, 71
1, 436935, Note_off_c, 0, 36, 70
1, 436998, Note_off_c, 0, 86, 57
1, 437004, Note_off_c, 0, 90, 61
1, 437050, Note_on_c, 0, 88, 95
1, 437052, Note_on_c, 0, 60, 95
1, 437052, Note_on_c, 0, 79, 103
1, 437053, Note_on_c, 0, 91, 104
1, 437056, Note_on_c, 0, 50, 95
1, 437069, Note_off_c, 0, 60, 73
1, 437075, Note_off_c, 0, 50, 72
1, 437093, Note_off_c, 0, 79, 62
1, 437139, Note_off_c, 0, 88, 63
1, 437344, Control_c, 0, 64, 115
1, 437351, Note_on_c, 0, 59, 84
1, 437353, Note_on_c, 0, 71, 96
1, 437356, Note_on_c, 0, 64, 76
1, 437357, Note_on_c, 0, 67, 78
1, 437359, Control_c, 0, 64, 69
1, 437368, Note_off_c, 0, 91, 60
1, 437374, Control_c, 0, 64, 60
1, 437388, Control_c, 0, 64, 68
1, 437396, Note_on_c, 0, 90, 101
1, 437397, Note_on_c, 0, 81, 106
1, 437399, Note_on_c, 0, 93, 99
1, 437403, Control_c, 0, 64, 111
1, 437416, Note_off_c, 0, 71, 63
1, 437418, Control_c, 0, 64, 127
1, 437424, Note_off_c, 0, 81, 64
1, 437427, Note_off_c, 0, 93, 66
1, 437433, Note_off_c, 0, 67, 65
1, 437436, Note_off_c, 0, 90, 66
1, 437445, Note_off_c, 0, 64, 62
1, 437462, Note_off_c, 0, 59, 61
1, 437714, Control_c, 0, 64, 96
1, 437729, Control_c, 0, 64, 43
1, 437736, Note_on_c, 0, 64, 100
1, 437737, Note_on_c, 0, 52, 92
1, 437744, Control_c, 0, 64, 0
1, 437758, Note_on_c, 0, 67, 100
1, 437761, Note_on_c, 0, 76, 96
1, 437761, Note_on_c, 0, 79, 100
1, 437764, Note_on_c, 0, 72, 93
1, 437774, Control_c, 0, 64, 60
1, 437781, Note_off_c, 0, 64, 68
1, 437788, Control_c, 0, 64, 127
1, 437794, Note_off_c, 0, 52, 62
1, 437830, Note_off_c, 0, 79, 65
1, 437846, Note_off_c, 0, 72, 63
1, 437853, Note_off_c, 0, 76, 65
1, 437871, Note_off_c, 0, 67, 64
1, 438155, Note_on_c, 0, 42, 105
1, 438159, Note_on_c, 0, 30, 97
1, 438183, Note_off_c, 0, 30, 71
1, 438195, Note_on_c, 0, 52, 85
1, 438196, Note_on_c, 0, 64, 85
1, 438205, Note_on_c, 0, 57, 80
1, 438205, Note_on_c, 0, 60, 79
1, 438211, Note_off_c, 0, 42, 61
1, 438225, Note_off_c, 0, 52, 64
1, 438250, Note_off_c, 0, 64, 63
1, 438254, Note_off_c, 0, 57, 63
1, 438263, Note_off_c, 0, 60, 63
1, 438536, Note_on_c, 0, 69, 80
1, 438542, Note_on_c, 0, 57, 77
1, 438582, Note_off_c, 0, 69, 59
1, 438599, Note_off_c, 0, 57, 54
1, 438811, Note_on_c, 0, 50, 87
1, 438812, Note_on_c, 0, 57, 88
1, 438813, Note_on_c, 0, 62, 90
1, 438816, Note_on_c, 0, 60, 90
1, 438857, Control_c, 0, 64, 104
1, 438862, Note_on_c, 0, 69, 98
1, 438862, Note_on_c, 0, 78, 102
1, 438864, Note_on_c, 0, 81, 101
1, 438872, Control_c, 0, 64, 69
1, 438886, Control_c, 0, 64, 61
1, 438901, Control_c, 0, 64, 65
1, 438916, Control_c, 0, 64, 76
1, 438931, Control_c, 0, 64, 127
1, 438935, Note_off_c, 0, 62, 59
1, 438942, Note_off_c, 0, 50, 55
1, 438953, Note_off_c, 0, 57, 61
1, 438957, Note_off_c, 0, 60, 58
1, 439082, Note_on_c, 0, 62, 94
1, 439083, Note_on_c, 0, 50, 83
1, 439086, Note_on_c, 0, 57, 86
1, 439088, Note_on_c, 0, 60, 86
1, 439124, Note_off_c, 0, 57, 63
1, 439126, Note_off_c, 0, 50, 61
1, 439129, Note_off_c, 0, 69, 58
1, 439129, Note_off_c, 0, 62, 62
1, 439136, Note_off_c, 0, 60, 67
1, 439186, Note_off_c, 0, 81, 57
1, 439287, Note_on_c, 0, 69, 74
1, 439302, Note_on_c, 0, 57, 65
1, 439306, Note_off_c, 0, 69, 71
1, 439328, Note_off_c, 0, 57, 65
1, 439467, Note_off_c, 0, 78, 61
1, 439478, Note_on_c, 0, 60, 90
1, 439479, Note_on_c, 0, 48, 90
1, 439485, Note_on_c, 0, 52, 80
1, 439497, Note_on_c, 0, 79, 95
1, 439503, Note_on_c, 0, 71, 93
1, 439508, Note_on_c, 0, 83, 94
1, 439579, Note_off_c, 0, 60, 58
1, 439587, Note_off_c, 0, 71, 61
1, 439592, Note_off_c, 0, 52, 59
1, 439621, Note_off_c, 0, 79, 64
1, 439644, Note_off_c, 0, 48, 33
1, 439717, Note_on_c, 0, 48, 86
1, 439718, Note_on_c, 0, 60, 93
1, 439721, Note_on_c, 0, 52, 93
1, 439723, Control_c, 0, 64, 85
1, 439738, Control_c, 0, 64, 55
1, 439749, Note_on_c, 0, 84, 106
1, 439750, Note_on_c, 0, 72, 100
1, 439752, Note_on_c, 0, 81, 93
1, 439753, Control_c, 0, 64, 38
1, 439768, Control_c, 0, 64, 59
1, 439771, Note_off_c, 0, 83, 62
1, 439779, Note_off_c, 0, 48, 64
1, 439782, Control_c, 0, 64, 83
1, 439785, Note_off_c, 0, 52, 60
1, 439795, Note_off_c, 0, 60, 62
1, 439797, Control_c, 0, 64, 127
1, 439826, Note_off_c, 0, 72, 58
1, 439840, Note_off_c, 0, 81, 62
1, 439937, Note_on_c, 0, 69, 79
1, 439946, Note_on_c, 0, 86, 95
1, 439949, Note_on_c, 0, 57, 79
1, 439950, Note_on_c, 0, 74, 96
1, 439950, Note_on_c, 0, 83, 98
1, 439959, Note_off_c, 0, 69, 68
1, 439970, Note_off_c, 0, 84, 62
1, 439973, Note_off_c, 0, 57, 70
1, 439990, Note_off_c, 0, 74, 63
1, 440030, Note_off_c, 0, 83, 60
1, 440144, Note_on_c, 0, 59, 85
1, 440149, Note_on_c, 0, 47, 89
1, 440152, Note_on_c, 0, 84, 94
1, 440158, Note_on_c, 0, 76, 93
1, 440158, Note_on_c, 0, 88, 98
1, 440162, Note_off_c, 0, 59, 72
1, 440170, Note_off_c, 0, 86, 64
1, 440176, Note_off_c, 0, 47, 66
1, 440195, Note_off_c, 0, 76, 61
1, 440196, Note_off_c, 0, 84, 62
1, 440225, Note_off_c, 0, 88, 66
1, 440242, Control_c, 0, 64, 102
1, 440257, Control_c, 0, 64, 66
1, 440261, Note_on_c, 0, 47, 96
1, 440263, Note_on_c, 0, 35, 98
1, 440272, Control_c, 0, 64, 59
1, 440278, Note_off_c, 0, 47, 71
1, 440286, Note_off_c, 0, 35, 68
1, 440287, Control_c, 0, 64, 71
1, 440309, Control_c, 0, 64, 127
1, 440310, Note_on_c, 0, 87, 56
1, 440319, Note_on_c, 0, 90, 48
1, 440333, Note_off_c, 0, 87, 62
1, 440344, Note_off_c, 0, 90, 58
1, 440411, Note_on_c, 0, 59, 96
1, 440411, Note_on_c, 0, 90, 97
1, 440417, Note_on_c, 0, 78, 101
1, 440418, Note_on_c, 0, 47, 85
1, 440418, Note_on_c, 0, 87, 91
1, 440432, Note_off_c, 0, 59, 69
1, 440441, Note_off_c, 0, 47, 70
1, 440470, Note_off_c, 0, 78, 61
1, 440501, Note_off_c, 0, 87, 64
1, 440722, Note_on_c, 0, 69, 96
1, 440724, Note_on_c, 0, 57, 84
1, 440725, Note_on_c, 0, 60, 76
1, 440725, Note_on_c, 0, 64, 86
1, 440735, Note_off_c, 0, 90, 61
1, 440754, Control_c, 0, 64, 92
1, 440768, Note_off_c, 0, 69, 65
1, 440769, Note_on_c, 0, 91, 97
1, 440769, Control_c, 0, 64, 66
1, 440770, Note_on_c, 0, 79, 99
1, 440772, Note_on_c, 0, 88, 93
1, 440782, Note_off_c, 0, 64, 67
1, 440787, Note_off_c, 0, 60, 66
1, 440796, Note_off_c, 0, 79, 66
1, 440799, Control_c, 0, 64, 88
1, 440805, Note_off_c, 0, 91, 66
1, 440807, Note_off_c, 0, 57, 65
1, 440813, Note_off_c, 0, 88, 67
1, 440813, Control_c, 0, 64, 127
1, 441118, Note_on_c, 0, 57, 99
1, 441121, Note_on_c, 0, 45, 95
1, 441160, Note_off_c, 0, 57, 68
1, 441169, Note_off_c, 0, 45, 63
1, 441289, Note_on_c, 0, 83, 94
1, 441290, Note_on_c, 0, 71, 94
1, 441359, Note_on_c, 0, 40, 67
1, 441399, Note_off_c, 0, 71, 58
1, 441408, Note_on_c, 0, 47, 72
1, 441418, Note_off_c, 0, 83, 60
1, 441454, Note_off_c, 0, 40, 60
1, 441474, Control_c, 0, 64, 90
1, 441478, Note_on_c, 0, 57, 84
1, 441488, Control_c, 0, 64, 53
1, 441491, Note_off_c, 0, 47, 65
1, 441502, Note_on_c, 0, 83, 101
1, 441503, Note_on_c, 0, 71, 94
1, 441503, Control_c, 0, 64, 0
1, 441505, Note_on_c, 0, 76, 94
1, 441518, Control_c, 0, 64, 38
1, 441533, Control_c, 0, 64, 67
1, 441535, Note_off_c, 0, 57, 67
1, 441548, Control_c, 0, 64, 127
1, 441639, Note_off_c, 0, 71, 60
1, 441679, Note_off_c, 0, 76, 65
1, 441708, Note_off_c, 0, 83, 62
1, 441738, Note_on_c, 0, 64, 74
1, 441772, Note_off_c, 0, 64, 60
1, 441966, Note_on_c, 0, 88, 94
1, 441967, Note_on_c, 0, 45, 79
1, 441967, Note_on_c, 0, 55, 79
1, 441972, Note_on_c, 0, 76, 93
1, 441973, Note_on_c, 0, 83, 85
1, 442015, Note_off_c, 0, 55, 63
1, 442029, Note_off_c, 0, 45, 63
1, 442045, Control_c, 0, 67, 19
1, 442137, Note_on_c, 0, 40, 70
1, 442161, Note_on_c, 0, 47, 66
1, 442178, Control_c, 0, 64, 95
1, 442193, Control_c, 0, 64, 59
1, 442196, Note_off_c, 0, 40, 62
1, 442208, Control_c, 0, 64, 0
1, 442211, Note_on_c, 0, 55, 89
1, 442222, Control_c, 0, 67, 22
1, 442227, Note_off_c, 0, 47, 65
1, 442237, Control_c, 0, 64, 62
1, 442252, Control_c, 0, 64, 102
1, 442267, Control_c, 0, 64, 127
1, 442270, Note_off_c, 0, 55, 64
1, 442283, Note_off_c, 0, 88, 64
1, 442296, Control_c, 0, 67, 24
1, 442305, Note_off_c, 0, 83, 64
1, 442366, Note_off_c, 0, 76, 59
1, 442420, Note_on_c, 0, 59, 66
1, 442463, Note_off_c, 0, 59, 60
1, 442632, Note_on_c, 0, 54, 75
1, 442647, Note_on_c, 0, 45, 72
1, 442660, Control_c, 0, 64, 100
1, 442667, Note_on_c, 0, 76, 72
1, 442668, Note_on_c, 0, 83, 72
1, 442675, Control_c, 0, 64, 75
1, 442678, Note_on_c, 0, 81, 72
1, 442690, Control_c, 0, 64, 70
1, 442691, Note_on_c, 0, 71, 48
1, 442692, Note_on_c, 0, 69, 42
1, 442692, Note_off_c, 0, 54, 65
1, 442704, Control_c, 0, 64, 73
1, 442719, Control_c, 0, 64, 87
1, 442720, Note_off_c, 0, 45, 62
1, 442721, Note_off_c, 0, 81, 0
1, 442721, Note_on_c, 0, 81, 23
1, 442728, Note_off_c, 0, 69, 60
1, 442734, Control_c, 0, 64, 127
1, 442748, Note_off_c, 0, 71, 0
1, 442748, Note_on_c, 0, 71, 6
1, 442749, Control_c, 0, 67, 26
1, 442830, Note_off_c, 0, 81, 42
1, 442838, Note_on_c, 0, 40, 49
1, 442867, Note_on_c, 0, 47, 58
1, 442883, Control_c, 0, 67, 28
1, 442908, Note_on_c, 0, 54, 72
1, 442913, Control_c, 0, 64, 72
1, 442913, Control_c, 0, 67, 33
1, 442927, Control_c, 0, 64, 40
1, 442927, Control_c, 0, 67, 35
1, 442933, Note_off_c, 0, 40, 55
1, 442942, Control_c, 0, 64, 0
1, 442942, Control_c, 0, 67, 35
1, 442957, Control_c, 0, 64, 39
1, 442972, Control_c, 0, 64, 67
1, 442981, Note_off_c, 0, 47, 62
1, 442987, Control_c, 0, 64, 115
1, 443001, Control_c, 0, 64, 127
1, 443001, Control_c, 0, 67, 36
1, 443006, Note_off_c, 0, 54, 62
1, 443016, Control_c, 0, 67, 37
1, 443031, Control_c, 0, 67, 37
1, 443067, Note_off_c, 0, 83, 59
1, 443078, Note_off_c, 0, 76, 61
1, 443130, Note_on_c, 0, 59, 65
1, 443164, Note_off_c, 0, 71, 54
1, 443164, Control_c, 0, 67, 38
1, 443193, Control_c, 0, 67, 39
1, 443198, Note_off_c, 0, 59, 59
1, 443223, Control_c, 0, 67, 40
1, 443304, Control_c, 0, 67, 41
1, 443319, Control_c, 0, 67, 41
1, 443334, Control_c, 0, 67, 42
1, 443349, Control_c, 0, 67, 43
1, 443361, Note_on_c, 0, 52, 55
1, 443364, Control_c, 0, 67, 45
1, 443378, Control_c, 0, 67, 45
1, 443382, Note_on_c, 0, 45, 52
1, 443401, Note_on_c, 0, 76, 75
1, 443408, Control_c, 0, 64, 81
1, 443416, Note_on_c, 0, 71, 58
1, 443419, Note_on_c, 0, 64, 60
1, 443423, Control_c, 0, 64, 68
1, 443425, Note_off_c, 0, 52, 62
1, 443438, Control_c, 0, 64, 69
1, 443438, Control_c, 0, 67, 46
1, 443452, Control_c, 0, 64, 77
1, 443460, Note_off_c, 0, 45, 64
1, 443467, Control_c, 0, 64, 93
1, 443467, Control_c, 0, 67, 46
1, 443482, Control_c, 0, 64, 127
1, 443482, Control_c, 0, 67, 47
1, 443497, Control_c, 0, 67, 48
1, 443511, Control_c, 0, 67, 51
1, 443599, Note_on_c, 0, 40, 50
1, 443613, Note_on_c, 0, 47, 52
1, 443616, Control_c, 0, 67, 52
1, 443631, Control_c, 0, 67, 53
1, 443646, Control_c, 0, 67, 53
1, 443661, Control_c, 0, 64, 120
1, 443661, Control_c, 0, 67, 55
1, 443666, Note_on_c, 0, 52, 65
1, 443675, Control_c, 0, 64, 73
1, 443675, Control_c, 0, 67, 57
1, 443690, Control_c, 0, 64, 51
1, 443690, Control_c, 0, 67, 59
1, 443705, Control_c, 0, 64, 0
1, 443705, Control_c, 0, 67, 59
1, 443720, Control_c, 0, 64, 34
1, 443720, Control_c, 0, 67, 60
1, 443735, Control_c, 0, 64, 56
1, 443750, Control_c, 0, 64, 69
1, 443750, Control_c, 0, 67, 60
1, 443756, Note_off_c, 0, 52, 51
1, 443765, Control_c, 0, 64, 82
1, 443765, Control_c, 0, 67, 61
1, 443779, Control_c, 0, 64, 97
1, 443779, Control_c, 0, 67, 66
1, 443794, Control_c, 0, 64, 101
1, 443794, Control_c, 0, 67, 70
1, 443809, Control_c, 0, 67, 74
1, 443824, Control_c, 0, 67, 76
1, 443839, Control_c, 0, 64, 103
1, 443839, Control_c, 0, 67, 77
1, 443883, Control_c, 0, 67, 77
1, 443898, Control_c, 0, 67, 78
1, 443913, Control_c, 0, 67, 79
1, 443927, Control_c, 0, 67, 82
1, 443942, Control_c, 0, 67, 85
1, 443946, Note_on_c, 0, 55, 65
1, 443957, Control_c, 0, 67, 87
1, 443963, Note_off_c, 0, 47, 54
1, 443972, Control_c, 0, 67, 90
1, 443987, Control_c, 0, 67, 92
1, 444001, Control_c, 0, 67, 93
1, 444016, Control_c, 0, 67, 95
1, 444031, Control_c, 0, 67, 96
1, 444054, Control_c, 0, 67, 98
1, 444069, Note_off_c, 0, 55, 58
1, 444069, Control_c, 0, 67, 100
1, 444083, Control_c, 0, 64, 106
1, 444083, Control_c, 0, 67, 103
1, 444098, Control_c, 0, 64, 108
1, 444098, Control_c, 0, 67, 106
1, 444113, Control_c, 0, 64, 111
1, 444113, Control_c, 0, 67, 110
1, 444119, Note_off_c, 0, 76, 44
1, 444127, Control_c, 0, 64, 114
1, 444127, Control_c, 0, 67, 113
1, 444157, Control_c, 0, 64, 117
1, 444172, Control_c, 0, 67, 116
1, 444187, Control_c, 0, 64, 120
1, 444187, Control_c, 0, 67, 118
1, 444201, Control_c, 0, 64, 122
1, 444201, Control_c, 0, 67, 121
1, 444203, Note_off_c, 0, 64, 35
1, 444216, Control_c, 0, 67, 125
1, 444231, Control_c, 0, 64, 124
1, 444231, Control_c, 0, 67, 127
1, 444239, Note_off_c, 0, 71, 36
1, 444275, Control_c, 0, 64, 127
1, 444337, Note_on_c, 0, 47, 57
1, 444380, Control_c, 0, 64, 107
1, 444395, Control_c, 0, 64, 87
1, 444410, Control_c, 0, 64, 71
1, 444424, Control_c, 0, 64, 64
1, 444439, Control_c, 0, 64, 65
1, 444454, Control_c, 0, 64, 71
1, 444469, Control_c, 0, 64, 82
1, 444484, Control_c, 0, 64, 98
1, 444498, Control_c, 0, 64, 115
1, 444513, Control_c, 0, 64, 120
1, 444766, Control_c, 0, 64, 117
1, 444803, Control_c, 0, 64, 115
1, 444892, Control_c, 0, 64, 112
1, 444936, Control_c, 0, 64, 109
1, 445011, Control_c, 0, 64, 107
1, 445084, Control_c, 0, 64, 105
1, 445174, Control_c, 0, 64, 103
1, 445178, Note_on_c, 0, 59, 55
1, 445308, Control_c, 0, 64, 101
1, 445412, Note_off_c, 0, 47, 50
1, 445460, Note_on_c, 0, 58, 68
1, 445476, Note_off_c, 0, 59, 60
1, 445607, Note_on_c, 0, 57, 74
1, 445669, Note_off_c, 0, 58, 39
1, 445726, Note_off_c, 0, 57, 63
1, 445741, Note_on_c, 0, 55, 69
1, 445863, Control_c, 0, 64, 96
1, 445878, Control_c, 0, 64, 82
1, 445892, Control_c, 0, 64, 64
1, 445907, Note_on_c, 0, 47, 60
1, 445907, Control_c, 0, 64, 0
1, 445997, Control_c, 0, 64, 58
1, 446012, Control_c, 0, 64, 69
1, 446027, Control_c, 0, 64, 77
1, 446042, Control_c, 0, 64, 82
1, 446145, Control_c, 0, 64, 82
1, 446160, Control_c, 0, 64, 83
1, 446175, Control_c, 0, 64, 84
1, 446190, Control_c, 0, 64, 86
1, 446204, Control_c, 0, 64, 87
1, 446219, Control_c, 0, 64, 88
1, 446234, Control_c, 0, 64, 90
1, 446249, Control_c, 0, 64, 91
1, 446264, Control_c, 0, 64, 93
1, 446278, Control_c, 0, 64, 95
1, 446301, Control_c, 0, 64, 98
1, 446330, Control_c, 0, 64, 100
1, 446359, Note_on_c, 0, 67, 60
1, 446375, Control_c, 0, 64, 102
1, 446404, Control_c, 0, 64, 104
1, 446434, Control_c, 0, 64, 106
1, 446467, Note_off_c, 0, 40, 36
1, 446478, Control_c, 0, 64, 108
1, 446527, Note_off_c, 0, 67, 62
1, 446533, Note_on_c, 0, 66, 71
1, 446567, Control_c, 0, 64, 110
1, 446578, Note_off_c, 0, 47, 62
1, 446643, Note_off_c, 0, 66, 62
1, 446658, Note_on_c, 0, 65, 81
1, 446707, Note_off_c, 0, 55, 40
1, 446756, Note_on_c, 0, 64, 78
1, 446769, Note_off_c, 0, 65, 51
1, 446872, Note_on_c, 0, 55, 83
1, 446872, Note_off_c, 0, 64, 53
1, 446981, Note_on_c, 0, 71, 86
1, 447027, Control_c, 0, 64, 112
1, 447064, Control_c, 0, 64, 115
1, 447079, Control_c, 0, 64, 124
1, 447094, Control_c, 0, 64, 127
1, 447095, Note_on_c, 0, 70, 83
1, 447110, Note_off_c, 0, 71, 59
1, 447184, Note_on_c, 0, 69, 76
1, 447191, Note_off_c, 0, 70, 60
1, 447267, Note_on_c, 0, 67, 87
1, 447276, Note_off_c, 0, 69, 64
1, 447300, Note_off_c, 0, 67, 64
1, 447330, Note_off_c, 0, 55, 54
1, 447331, Control_c, 0, 67, 115
1, 447345, Control_c, 0, 67, 103
1, 447360, Control_c, 0, 67, 94
1, 447375, Note_on_c, 0, 64, 82
1, 447375, Control_c, 0, 67, 85
1, 447390, Control_c, 0, 67, 79
1, 447405, Control_c, 0, 67, 73
1, 447419, Control_c, 0, 67, 67
1, 447434, Control_c, 0, 67, 61
1, 447449, Control_c, 0, 67, 54
1, 447464, Control_c, 0, 67, 49
1, 447473, Note_off_c, 0, 64, 62
1, 447479, Control_c, 0, 67, 46
1, 447485, Note_on_c, 0, 55, 83
1, 447494, Control_c, 0, 67, 44
1, 447509, Control_c, 0, 67, 42
1, 447509, Note_on_c, 0, 40, 71
1, 447523, Control_c, 0, 67, 40
1, 447538, Control_c, 0, 67, 39
1, 447553, Control_c, 0, 67, 39
1, 447568, Control_c, 0, 67, 38
1, 447583, Control_c, 0, 67, 36
1, 447598, Control_c, 0, 67, 33
1, 447613, Control_c, 0, 67, 30
1, 447640, Note_on_c, 0, 47, 78
1, 447643, Control_c, 0, 67, 28
1, 447673, Control_c, 0, 64, 69
1, 447673, Control_c, 0, 67, 23
1, 447687, Control_c, 0, 64, 0
1, 447687, Control_c, 0, 67, 0
1, 447753, Note_on_c, 0, 62, 64
1, 447756, Note_off_c, 0, 55, 55
1, 447758, Note_on_c, 0, 56, 81
1, 447770, Note_on_c, 0, 65, 65
1, 447773, Note_on_c, 0, 67, 58
1, 447776, Control_c, 0, 64, 50
1, 447798, Control_c, 0, 64, 65
1, 447813, Control_c, 0, 64, 66
1, 447828, Control_c, 0, 64, 68
1, 447838, Note_off_c, 0, 67, 61
1, 447842, Control_c, 0, 64, 71
1, 447845, Note_off_c, 0, 65, 63
1, 447846, Note_off_c, 0, 62, 62
1, 447857, Control_c, 0, 64, 76
1, 447872, Control_c, 0, 64, 82
1, 447887, Control_c, 0, 64, 90
1, 447902, Control_c, 0, 64, 101
1, 447917, Control_c, 0, 64, 127
1, 448045, Note_on_c, 0, 74, 81
1, 448182, Note_off_c, 0, 74, 61
1, 448185, Note_on_c, 0, 73, 86
1, 448266, Note_off_c, 0, 73, 62
1, 448296, Note_on_c, 0, 72, 85
1, 448318, Note_off_c, 0, 56, 60
1, 448349, Note_off_c, 0, 47, 62
1, 448378, Note_off_c, 0, 40, 59
1, 448403, Note_on_c, 0, 71, 83
1, 448406, Note_off_c, 0, 72, 61
1, 448492, Note_off_c, 0, 71, 63
1, 448511, Note_on_c, 0, 62, 78
1, 448548, Note_off_c, 0, 62, 64
1, 448591, Note_on_c, 0, 34, 74
1, 448706, Note_on_c, 0, 41, 62
1, 448709, Note_on_c, 0, 53, 62
1, 448755, Control_c, 0, 64, 103
1, 448764, Note_on_c, 0, 58, 70
1, 448770, Control_c, 0, 64, 77
1, 448784, Control_c, 0, 64, 61
1, 448799, Control_c, 0, 64, 0
1, 448818, Note_on_c, 0, 61, 77
1, 448874, Note_on_c, 0, 49, 84
1, 448880, Note_on_c, 0, 65, 87
1, 448897, Note_off_c, 0, 53, 63
1, 448903, Control_c, 0, 64, 67
1, 448904, Note_off_c, 0, 58, 64
1, 448910, Note_off_c, 0, 61, 63
1, 448913, Note_off_c, 0, 65, 67
1, 448917, Control_c, 0, 64, 100
1, 448921, Note_off_c, 0, 34, 62
1, 448926, Note_off_c, 0, 49, 65
1, 448930, Note_off_c, 0, 41, 61
1, 448932, Control_c, 0, 64, 127
1, 448962, Control_c, 0, 67, 20
1, 449021, Control_c, 0, 67, 23
1, 449036, Control_c, 0, 67, 28
1, 449050, Control_c, 0, 67, 35
1, 449065, Control_c, 0, 67, 37
1, 449080, Control_c, 0, 67, 38
1, 449095, Control_c, 0, 67, 39
1, 449110, Control_c, 0, 67, 46
1, 449124, Control_c, 0, 67, 58
1, 449139, Control_c, 0, 67, 72
1, 449154, Control_c, 0, 67, 81
1, 449170, Control_c, 0, 67, 87
1, 449185, Control_c, 0, 67, 93
1, 449188, Note_on_c, 0, 77, 67
1, 449200, Control_c, 0, 67, 100
1, 449214, Control_c, 0, 67, 114
1, 449229, Control_c, 0, 67, 125
1, 449244, Control_c, 0, 64, 87
1, 449244, Control_c, 0, 67, 127
1, 449258, Control_c, 0, 64, 68
1, 449265, Note_off_c, 0, 77, 63
1, 449273, Note_on_c, 0, 76, 73
1, 449273, Control_c, 0, 64, 57
1, 449296, Control_c, 0, 64, 54
1, 449311, Control_c, 0, 64, 58
1, 449326, Control_c, 0, 64, 62
1, 449341, Control_c, 0, 64, 66
1, 449342, Note_on_c, 0, 75, 75
1, 449346, Note_off_c, 0, 76, 65
1, 449355, Control_c, 0, 64, 72
1, 449370, Control_c, 0, 64, 78
1, 449385, Control_c, 0, 64, 82
1, 449394, Note_on_c, 0, 73, 80
1, 449395, Note_off_c, 0, 75, 65
1, 449400, Control_c, 0, 64, 83
1, 449444, Control_c, 0, 64, 84
1, 449446, Note_off_c, 0, 73, 62
1, 449449, Note_on_c, 0, 70, 73
1, 449459, Control_c, 0, 64, 85
1, 449464, Note_off_c, 0, 70, 68
1, 449473, Control_c, 0, 64, 87
1, 449488, Control_c, 0, 64, 88
1, 449509, Note_on_c, 0, 65, 72
1, 449562, Note_off_c, 0, 65, 63
1, 449571, Note_on_c, 0, 64, 70
1, 449592, Control_c, 0, 64, 87
1, 449594, Note_off_c, 0, 64, 70
1, 449607, Control_c, 0, 64, 87
1, 449607, Control_c, 0, 67, 125
1, 449622, Control_c, 0, 64, 86
1, 449636, Note_on_c, 0, 63, 70
1, 449637, Control_c, 0, 64, 86
1, 449652, Control_c, 0, 64, 85
1, 449666, Control_c, 0, 64, 85
1, 449681, Control_c, 0, 64, 84
1, 449689, Note_on_c, 0, 61, 71
1, 449696, Control_c, 0, 64, 81
1, 449711, Control_c, 0, 64, 77
1, 449726, Control_c, 0, 64, 72
1, 449732, Note_on_c, 0, 58, 71
1, 449740, Control_c, 0, 64, 65
1, 449740, Control_c, 0, 67, 127
1, 449755, Control_c, 0, 64, 48
1, 449761, Note_off_c, 0, 63, 37
1, 449770, Control_c, 0, 64, 0
1, 449774, Note_off_c, 0, 61, 56
1, 449793, Note_off_c, 0, 58, 63
1, 449801, Note_on_c, 0, 53, 49
1, 449858, Control_c, 0, 64, 43
1, 449872, Control_c, 0, 64, 57
1, 449884, Note_on_c, 0, 49, 62
1, 449887, Control_c, 0, 64, 64
1, 449896, Note_on_c, 0, 41, 41
1, 449902, Control_c, 0, 64, 65
1, 449917, Control_c, 0, 64, 66
1, 449932, Control_c, 0, 64, 67
1, 449962, Control_c, 0, 64, 67
1, 449977, Control_c, 0, 64, 68
1, 449980, Note_on_c, 0, 34, 53
1, 449992, Control_c, 0, 64, 69
1, 449995, Note_off_c, 0, 41, 59
1, 450007, Control_c, 0, 64, 69
1, 450010, Note_off_c, 0, 34, 61
1, 450010, Note_off_c, 0, 49, 59
1, 450018, Note_off_c, 0, 53, 37
1, 450064, Note_on_c, 0, 65, 62
1, 450079, Note_on_c, 0, 61, 46
1, 450084, Note_on_c, 0, 58, 34
1, 450102, Note_off_c, 0, 65, 64
1, 450105, Note_off_c, 0, 61, 59
1, 450117, Note_off_c, 0, 58, 47
1, 450146, Note_on_c, 0, 57, 64
1, 450148, Control_c, 0, 67, 125
1, 450165, Note_on_c, 0, 49, 51
1, 450176, Note_off_c, 0, 57, 66
1, 450207, Control_c, 0, 64, 69
1, 450212, Note_off_c, 0, 49, 48
1, 450222, Control_c, 0, 64, 66
1, 450233, Note_on_c, 0, 41, 71
1, 450236, Control_c, 0, 64, 55
1, 450251, Control_c, 0, 64, 0
1, 450256, Note_off_c, 0, 41, 66
1, 450285, Note_on_c, 0, 69, 75
1, 450296, Control_c, 0, 67, 127
1, 450299, Note_on_c, 0, 65, 62
1, 450302, Note_on_c, 0, 61, 46
1, 450305, Note_on_c, 0, 60, 49
1, 450367, Note_on_c, 0, 49, 63
1, 450370, Note_off_c, 0, 69, 54
1, 450370, Control_c, 0, 64, 53
1, 450376, Note_off_c, 0, 61, 57
1, 450383, Note_off_c, 0, 65, 62
1, 450385, Control_c, 0, 64, 65
1, 450400, Control_c, 0, 64, 71
1, 450414, Control_c, 0, 64, 82
1, 450421, Poly_aftertouch_c, 0, 41, 127
1, 450429, Control_c, 0, 64, 104
1, 450441, Note_off_c, 0, 49, 64
1, 450444, Control_c, 0, 64, 127
1, 450444, Control_c, 0, 67, 125
1, 450457, Note_on_c, 0, 34, 64
1, 450486, Poly_aftertouch_c, 0, 41, 0
1, 450488, Note_off_c, 0, 34, 63
1, 450488, Note_off_c, 0, 60, 61
1, 450510, Note_on_c, 0, 65, 73
1, 450513, Note_on_c, 0, 58, 64
1, 450516, Note_on_c, 0, 61, 65
1, 450533, Control_c, 0, 67, 123
1, 450543, Note_off_c, 0, 58, 68
1, 450548, Control_c, 0, 64, 68
1, 450549, Note_off_c, 0, 65, 61
1, 450550, Note_off_c, 0, 61, 64
1, 450562, Note_on_c, 0, 56, 70
1, 450562, Control_c, 0, 64, 0
1, 450577, Control_c, 0, 67, 125
1, 450581, Note_on_c, 0, 49, 72
1, 450591, Note_off_c, 0, 56, 62
1, 450617, Note_off_c, 0, 49, 61
1, 450664, Note_on_c, 0, 41, 45
1, 450685, Note_on_c, 0, 68, 84
1, 450692, Note_on_c, 0, 61, 31
1, 450692, Note_off_c, 0, 41, 49
1, 450693, Note_on_c, 0, 60, 60
1, 450705, Note_on_c, 0, 65, 72
1, 450755, Control_c, 0, 64, 57
1, 450757, Note_on_c, 0, 49, 78
1, 450771, Control_c, 0, 64, 67
1, 450788, Note_on_c, 0, 41, 53
1, 450792, Note_off_c, 0, 68, 63
1, 450793, Control_c, 0, 64, 76
1, 450794, Note_off_c, 0, 61, 61
1, 450808, Control_c, 0, 64, 86
1, 450811, Note_off_c, 0, 65, 64
1, 450823, Control_c, 0, 64, 96
1, 450838, Control_c, 0, 64, 115
1, 450838, Control_c, 0, 67, 127
1, 450846, Note_off_c, 0, 49, 63
1, 450853, Control_c, 0, 64, 127
1, 450857, Note_off_c, 0, 41, 57
1, 450862, Note_on_c, 0, 34, 73
1, 450882, Control_c, 0, 67, 121
1, 450892, Note_off_c, 0, 34, 64
1, 450897, Control_c, 0, 67, 115
1, 450908, Note_off_c, 0, 60, 54
1, 450910, Note_on_c, 0, 58, 75
1, 450912, Control_c, 0, 67, 102
1, 450913, Note_on_c, 0, 65, 88
1, 450916, Note_on_c, 0, 61, 70
1, 450926, Control_c, 0, 67, 82
1, 450941, Control_c, 0, 64, 77
1, 450941, Control_c, 0, 67, 57
1, 450952, Note_off_c, 0, 61, 57
1, 450956, Control_c, 0, 64, 0
1, 450956, Control_c, 0, 67, 41
1, 450963, Note_off_c, 0, 58, 64
1, 450971, Control_c, 0, 67, 32
1, 450973, Note_off_c, 0, 65, 65
1, 450978, Note_on_c, 0, 49, 79
1, 450981, Note_on_c, 0, 55, 64
1, 450984, Note_on_c, 0, 57, 46
1, 450986, Control_c, 0, 67, 24
1, 451000, Control_c, 0, 67, 21
1, 451011, Note_off_c, 0, 55, 63
1, 451013, Note_off_c, 0, 57, 54
1, 451030, Note_off_c, 0, 49, 65
1, 451030, Control_c, 0, 67, 0
1, 451048, Note_on_c, 0, 41, 82
1, 451072, Note_off_c, 0, 41, 65
1, 451098, Note_on_c, 0, 67, 84
1, 451100, Note_on_c, 0, 60, 76
1, 451104, Note_on_c, 0, 65, 83
1, 451107, Note_on_c, 0, 61, 75
1, 451118, Control_c, 0, 64, 43
1, 451133, Control_c, 0, 64, 76
1, 451148, Control_c, 0, 64, 90
1, 451160, Note_on_c, 0, 49, 91
1, 451163, Control_c, 0, 64, 92
1, 451182, Note_on_c, 0, 41, 25
1, 451193, Note_off_c, 0, 67, 64
1, 451193, Control_c, 0, 64, 100
1, 451194, Note_off_c, 0, 61, 61
1, 451208, Control_c, 0, 64, 120
1, 451210, Note_off_c, 0, 65, 62
1, 451223, Control_c, 0, 64, 127
1, 451238, Note_off_c, 0, 49, 62
1, 451243, Poly_aftertouch_c, 0, 48, 127
1, 451253, Note_off_c, 0, 41, 59
1, 451264, Note_on_c, 0, 34, 80
1, 451284, Poly_aftertouch_c, 0, 48, 0
1, 451293, Note_off_c, 0, 34, 65
1, 451310, Note_on_c, 0, 58, 87
1, 451312, Note_on_c, 0, 65, 90
1, 451319, Note_on_c, 0, 61, 76
1, 451331, Note_on_c, 0, 63, 56
1, 451336, Note_off_c, 0, 60, 51
1, 451352, Note_off_c, 0, 63, 64
1, 451354, Note_off_c, 0, 61, 59
1, 451357, Note_off_c, 0, 58, 66
1, 451360, Note_on_c, 0, 54, 88
1, 451360, Note_off_c, 0, 65, 66
1, 451403, Note_on_c, 0, 49, 58
1, 451405, Note_off_c, 0, 54, 64
1, 451431, Note_on_c, 0, 48, 59
1, 451458, Note_off_c, 0, 49, 64
1, 451464, Note_off_c, 0, 48, 65
1, 451465, Note_on_c, 0, 41, 80
1, 451491, Note_off_c, 0, 41, 65
1, 451498, Note_on_c, 0, 42, 28
1, 451498, Note_off_c, 0, 42, 127
1, 451506, Note_on_c, 0, 66, 92
1, 451509, Note_on_c, 0, 54, 85
1, 451514, Note_on_c, 0, 61, 71
1, 451518, Control_c, 0, 64, 71
1, 451521, Note_on_c, 0, 58, 74
1, 451541, Control_c, 0, 64, 0
1, 451564, Note_on_c, 0, 56, 36
1, 451605, Note_off_c, 0, 56, 32
1, 451608, Note_on_c, 0, 34, 90
1, 451751, Note_on_c, 0, 42, 95
1, 451791, Note_off_c, 0, 34, 62
1, 451809, Control_c, 0, 64, 79
1, 451823, Control_c, 0, 64, 127
1, 451847, Note_off_c, 0, 42, 63
1, 451934, Note_on_c, 0, 53, 89
1, 452096, Note_on_c, 0, 52, 93
1, 452120, Note_off_c, 0, 53, 60
1, 452215, Note_on_c, 0, 51, 88
1, 452220, Note_off_c, 0, 52, 64
1, 452308, Note_off_c, 0, 51, 64
1, 452337, Note_on_c, 0, 49, 96
1, 452460, Note_on_c, 0, 46, 82
1, 452504, Poly_aftertouch_c, 0, 63, 127
1, 452616, Control_c, 0, 64, 83
1, 452631, Note_on_c, 0, 42, 87
1, 452631, Control_c, 0, 64, 49
1, 452646, Control_c, 0, 64, 0
1, 452764, Control_c, 0, 64, 34
1, 452779, Control_c, 0, 64, 62
1, 452794, Control_c, 0, 64, 70
1, 452797, Note_off_c, 0, 66, 60
1, 452809, Control_c, 0, 64, 75
1, 452824, Control_c, 0, 64, 78
1, 452827, Poly_aftertouch_c, 0, 63, 0
1, 452839, Control_c, 0, 64, 79
1, 452854, Control_c, 0, 64, 81
1, 452864, Note_off_c, 0, 61, 59
1, 452869, Control_c, 0, 64, 82
1, 452883, Control_c, 0, 64, 83
1, 452898, Control_c, 0, 64, 83
1, 452929, Note_off_c, 0, 54, 59
1, 452958, Control_c, 0, 64, 84
1, 452973, Control_c, 0, 64, 84
1, 452987, Control_c, 0, 64, 85
1, 453084, Control_c, 0, 64, 85
1, 453131, Note_on_c, 0, 60, 69
1, 453143, Control_c, 0, 64, 86
1, 453151, Note_off_c, 0, 58, 28
1, 453188, Control_c, 0, 64, 86
1, 453218, Control_c, 0, 64, 87
1, 453232, Control_c, 0, 64, 87
1, 453242, Note_off_c, 0, 49, 53
1, 453247, Control_c, 0, 64, 88
1, 453262, Control_c, 0, 64, 88
1, 453263, Note_off_c, 0, 42, 61
1, 453268, Note_on_c, 0, 59, 75
1, 453277, Control_c, 0, 64, 89
1, 453279, Note_off_c, 0, 60, 62
1, 453292, Control_c, 0, 64, 91
1, 453306, Control_c, 0, 64, 92
1, 453319, Note_off_c, 0, 46, 62
1, 453321, Control_c, 0, 64, 94
1, 453336, Control_c, 0, 64, 97
1, 453351, Control_c, 0, 64, 101
1, 453366, Control_c, 0, 64, 110
1, 453369, Note_on_c, 0, 58, 76
1, 453381, Control_c, 0, 64, 127
1, 453388, Note_off_c, 0, 59, 62
1, 453460, Note_on_c, 0, 54, 85
1, 453477, Note_off_c, 0, 58, 65
1, 453542, Note_on_c, 0, 49, 82
1, 453545, Note_off_c, 0, 54, 61
1, 453602, Note_off_c, 0, 49, 63
1, 453616, Note_on_c, 0, 65, 81
1, 453723, Note_on_c, 0, 64, 74
1, 453745, Note_off_c, 0, 65, 60
1, 453819, Note_on_c, 0, 63, 89
1, 453844, Note_off_c, 0, 64, 63
1, 453913, Note_on_c, 0, 61, 89
1, 453947, Note_off_c, 0, 63, 59
1, 453956, Note_off_c, 0, 61, 64
1, 453992, Note_on_c, 0, 58, 88
1, 454081, Note_on_c, 0, 56, 96
1, 454099, Note_off_c, 0, 58, 62
1, 454172, Note_on_c, 0, 39, 88
1, 454233, Control_c, 0, 64, 80
1, 454248, Control_c, 0, 64, 0
1, 454297, Note_on_c, 0, 55, 85
1, 454298, Note_off_c, 0, 56, 58
1, 454313, Note_on_c, 0, 46, 97
1, 454316, Note_on_c, 0, 61, 84
1, 454336, Control_c, 0, 67, 33
1, 454351, Control_c, 0, 64, 53
1, 454356, Note_on_c, 0, 64, 85
1, 454366, Control_c, 0, 64, 98
1, 454366, Control_c, 0, 67, 28
1, 454380, Control_c, 0, 64, 127
1, 454380, Control_c, 0, 67, 26
1, 454395, Control_c, 0, 67, 23
1, 454415, Note_off_c, 0, 55, 61
1, 454416, Note_off_c, 0, 64, 66
1, 454432, Note_off_c, 0, 61, 61
1, 454536, Control_c, 0, 67, 21
1, 454551, Control_c, 0, 67, 0
1, 454613, Note_on_c, 0, 73, 86
1, 454702, Note_off_c, 0, 73, 64
1, 454734, Note_on_c, 0, 72, 78
1, 454813, Note_off_c, 0, 46, 61
1, 454834, Note_off_c, 0, 39, 60
1, 454842, Note_on_c, 0, 71, 78
1, 454891, Note_off_c, 0, 72, 38
1, 454945, Note_on_c, 0, 70, 90
1, 454952, Note_off_c, 0, 71, 64
1, 455009, Note_off_c, 0, 70, 67
1, 455047, Note_on_c, 0, 61, 80
1, 455086, Note_off_c, 0, 61, 59
1, 455099, Note_on_c, 0, 33, 90
1, 455195, Note_on_c, 0, 40, 73
1, 455204, Control_c, 0, 64, 71
1, 455219, Control_c, 0, 64, 0
1, 455232, Note_on_c, 0, 52, 71
1, 455249, Control_c, 0, 67, 20
1, 455264, Control_c, 0, 64, 72
1, 455264, Control_c, 0, 67, 0
1, 455271, Note_off_c, 0, 33, 63
1, 455281, Note_on_c, 0, 48, 92
1, 455286, Control_c, 0, 64, 127
1, 455287, Note_on_c, 0, 57, 73
1, 455307, Note_on_c, 0, 60, 83
1, 455310, Note_off_c, 0, 52, 63
1, 455317, Note_off_c, 0, 40, 63
1, 455322, Note_on_c, 0, 64, 91
1, 455329, Note_off_c, 0, 57, 65
1, 455333, Note_off_c, 0, 48, 67
1, 455344, Note_off_c, 0, 60, 67
1, 455354, Note_off_c, 0, 64, 68
1, 455555, Note_on_c, 0, 88, 92
1, 455690, Note_off_c, 0, 88, 64
1, 455691, Note_on_c, 0, 76, 98
1, 455702, Note_on_c, 0, 87, 86
1, 455765, Note_off_c, 0, 87, 62
1, 455793, Note_on_c, 0, 86, 81
1, 455859, Note_off_c, 0, 86, 62
1, 455870, Note_on_c, 0, 75, 93
1, 455873, Note_on_c, 0, 85, 82
1, 455899, Note_off_c, 0, 76, 60
1, 455939, Note_off_c, 0, 85, 61
1, 455949, Note_on_c, 0, 84, 87
1, 456010, Note_off_c, 0, 75, 61
1, 456019, Note_on_c, 0, 74, 92
1, 456040, Note_on_c, 0, 81, 84
1, 456070, Note_off_c, 0, 84, 60
1, 456106, Note_off_c, 0, 81, 64
1, 456120, Note_on_c, 0, 76, 82
1, 456148, Note_off_c, 0, 76, 65
1, 456177, Note_on_c, 0, 72, 99
1, 456187, Note_off_c, 0, 74, 61
1, 456266, Note_on_c, 0, 75, 75
1, 456296, Note_off_c, 0, 75, 58
1, 456353, Note_on_c, 0, 74, 81
1, 456399, Note_off_c, 0, 74, 58
1, 456437, Note_on_c, 0, 69, 83
1, 456438, Note_on_c, 0, 73, 70
1, 456439, Note_off_c, 0, 72, 62
1, 456506, Note_on_c, 0, 64, 83
1, 456515, Note_off_c, 0, 69, 61
1, 456515, Note_off_c, 0, 73, 61
1, 456516, Note_on_c, 0, 72, 80
1, 456579, Note_off_c, 0, 64, 65
1, 456606, Note_on_c, 0, 69, 79
1, 456615, Note_off_c, 0, 72, 55
1, 456661, Note_off_c, 0, 69, 60
1, 456685, Note_on_c, 0, 64, 75
1, 456730, Note_off_c, 0, 64, 61
1, 456764, Note_on_c, 0, 63, 80
1, 456825, Note_off_c, 0, 63, 62
1, 456860, Note_on_c, 0, 62, 84
1, 456943, Note_on_c, 0, 60, 80
1, 456966, Note_off_c, 0, 62, 62
1, 457015, Note_on_c, 0, 57, 85
1, 457021, Note_off_c, 0, 60, 61
1, 457069, Note_off_c, 0, 57, 65
1, 457108, Note_on_c, 0, 52, 86
1, 457304, Note_off_c, 0, 52, 58
1, 457316, Note_on_c, 0, 51, 89
1, 457408, Note_off_c, 0, 51, 59
1, 457411, Note_on_c, 0, 52, 87
1, 457531, Note_on_c, 0, 38, 72
1, 457531, Note_on_c, 0, 53, 86
1, 457543, Note_off_c, 0, 52, 62
1, 457626, Note_on_c, 0, 45, 76
1, 457769, Control_c, 0, 64, 85
1, 457784, Control_c, 0, 64, 59
1, 457799, Control_c, 0, 64, 0
1, 457889, Note_on_c, 0, 54, 77
1, 457901, Note_on_c, 0, 60, 62
1, 457908, Note_on_c, 0, 63, 64
1, 457918, Control_c, 0, 67, 22
1, 457926, Note_off_c, 0, 53, 54
1, 457932, Control_c, 0, 67, 24
1, 457963, Control_c, 0, 67, 26
1, 457978, Control_c, 0, 67, 29
1, 457992, Control_c, 0, 67, 36
1, 458007, Control_c, 0, 67, 51
1, 458022, Control_c, 0, 67, 69
1, 458037, Control_c, 0, 67, 79
1, 458052, Control_c, 0, 67, 83
1, 458067, Control_c, 0, 64, 40
1, 458067, Control_c, 0, 67, 88
1, 458082, Control_c, 0, 64, 57
1, 458082, Control_c, 0, 67, 100
1, 458085, Note_off_c, 0, 60, 62
1, 458096, Control_c, 0, 64, 65
1, 458096, Control_c, 0, 67, 118
1, 458097, Note_off_c, 0, 63, 63
1, 458111, Control_c, 0, 64, 68
1, 458111, Control_c, 0, 67, 127
1, 458126, Control_c, 0, 64, 71
1, 458141, Control_c, 0, 64, 74
1, 458155, Control_c, 0, 64, 80
1, 458170, Control_c, 0, 64, 88
1, 458185, Control_c, 0, 64, 101
1, 458200, Control_c, 0, 64, 127
1, 458441, Note_on_c, 0, 72, 64
1, 458639, Note_off_c, 0, 72, 61
1, 458642, Note_on_c, 0, 71, 67
1, 458764, Note_off_c, 0, 71, 56
1, 458779, Note_on_c, 0, 70, 76
1, 458917, Note_off_c, 0, 70, 61
1, 458921, Note_on_c, 0, 69, 67
1, 458958, Note_off_c, 0, 54, 56
1, 459048, Note_off_c, 0, 45, 60
1, 459097, Note_off_c, 0, 38, 62
1, 459107, Note_off_c, 0, 69, 61
1, 459117, Note_on_c, 0, 60, 64
1, 459149, Note_off_c, 0, 60, 66
1, 459289, Note_on_c, 0, 30, 52
1, 459364, Note_on_c, 0, 51, 51
1, 459412, Note_on_c, 0, 54, 52
1, 459500, Note_on_c, 0, 59, 47
1, 459504, Control_c, 0, 64, 124
1, 459519, Control_c, 0, 64, 104
1, 459534, Control_c, 0, 64, 91
1, 459549, Control_c, 0, 64, 79
1, 459564, Control_c, 0, 64, 71
1, 459579, Control_c, 0, 64, 65
1, 459593, Control_c, 0, 64, 60
1, 459608, Control_c, 0, 64, 53
1, 459623, Control_c, 0, 64, 43
1, 459638, Control_c, 0, 64, 0
1, 459664, Note_on_c, 0, 42, 40
1, 459693, Note_on_c, 0, 63, 62
1, 459779, Control_c, 0, 64, 45
1, 459794, Control_c, 0, 64, 59
1, 459802, Note_off_c, 0, 51, 56
1, 459808, Control_c, 0, 64, 68
1, 459823, Note_off_c, 0, 30, 59
1, 459823, Control_c, 0, 64, 77
1, 459838, Note_off_c, 0, 54, 57
1, 459838, Control_c, 0, 64, 87
1, 459842, Note_off_c, 0, 63, 61
1, 459853, Control_c, 0, 64, 103
1, 459867, Note_off_c, 0, 59, 37
1, 459868, Control_c, 0, 64, 127
1, 459906, Note_off_c, 0, 42, 56
1, 460237, Note_on_c, 0, 60, 41
1, 460317, Note_on_c, 0, 75, 68
1, 460386, Note_off_c, 0, 60, 29
1, 460413, Note_on_c, 0, 61, 56
1, 460538, Note_off_c, 0, 61, 56
1, 460575, Note_off_c, 0, 75, 60
1, 460579, Note_on_c, 0, 59, 51
1, 460580, Note_on_c, 0, 74, 73
1, 460731, Note_on_c, 0, 51, 60
1, 460732, Note_off_c, 0, 59, 38
1, 460791, Note_on_c, 0, 73, 75
1, 460803, Note_off_c, 0, 74, 56
1, 460876, Note_off_c, 0, 51, 51
1, 460878, Note_on_c, 0, 42, 56
1, 460923, Note_off_c, 0, 42, 64
1, 460997, Note_on_c, 0, 71, 64
1, 461012, Note_off_c, 0, 73, 56
1, 461023, Note_off_c, 0, 71, 68
1, 461117, Note_on_c, 0, 68, 78
1, 461122, Note_on_c, 0, 59, 67
1, 461158, Note_off_c, 0, 59, 60
1, 461240, Note_off_c, 0, 68, 55
1, 461248, Note_on_c, 0, 69, 77
1, 461261, Note_on_c, 0, 60, 64
1, 461298, Note_off_c, 0, 60, 65
1, 461352, Control_c, 0, 64, 120
1, 461367, Control_c, 0, 64, 71
1, 461381, Control_c, 0, 64, 46
1, 461396, Control_c, 0, 64, 0
1, 461402, Note_on_c, 0, 61, 66
1, 461406, Note_on_c, 0, 66, 64
1, 461408, Note_off_c, 0, 69, 58
1, 461409, Note_on_c, 0, 70, 70
1, 461418, Note_on_c, 0, 64, 45
1, 461451, Note_off_c, 0, 61, 56
1, 461455, Control_c, 0, 64, 60
1, 461470, Control_c, 0, 64, 72
1, 461485, Control_c, 0, 64, 79
1, 461490, Note_off_c, 0, 64, 62
1, 461498, Note_off_c, 0, 70, 63
1, 461499, Control_c, 0, 64, 83
1, 461514, Control_c, 0, 64, 86
1, 461529, Control_c, 0, 64, 93
1, 461544, Control_c, 0, 64, 108
1, 461559, Control_c, 0, 64, 127
1, 461602, Note_off_c, 0, 66, 61
1, 461609, Note_on_c, 0, 65, 59
1, 461654, Note_on_c, 0, 78, 83
1, 461709, Note_off_c, 0, 65, 63
1, 461722, Note_on_c, 0, 64, 53
1, 461745, Note_off_c, 0, 64, 63
1, 461851, Note_on_c, 0, 58, 61
1, 461988, Note_on_c, 0, 52, 58
1, 462005, Note_off_c, 0, 58, 39
1, 462026, Note_off_c, 0, 78, 61
1, 462035, Note_on_c, 0, 77, 68
1, 462094, Note_on_c, 0, 42, 72
1, 462098, Note_off_c, 0, 77, 61
1, 462148, Note_on_c, 0, 77, 42
1, 462204, Note_off_c, 0, 42, 62
1, 462219, Note_off_c, 0, 77, 64
1, 462222, Note_on_c, 0, 76, 78
1, 462229, Note_off_c, 0, 52, 57
1, 462268, Note_off_c, 0, 76, 62
1, 462339, Note_on_c, 0, 67, 72
1, 462342, Note_on_c, 0, 71, 75
1, 462373, Note_off_c, 0, 67, 63
1, 462433, Note_off_c, 0, 71, 58
1, 462460, Note_on_c, 0, 72, 84
1, 462461, Note_on_c, 0, 68, 84
1, 462464, Note_on_c, 0, 57, 72
1, 462467, Note_on_c, 0, 63, 71
1, 462512, Note_off_c, 0, 68, 62
1, 462529, Control_c, 0, 64, 77
1, 462544, Control_c, 0, 64, 47
1, 462559, Control_c, 0, 64, 0
1, 462570, Note_on_c, 0, 68, 70
1, 462574, Control_c, 0, 64, 51
1, 462580, Note_off_c, 0, 72, 62
1, 462581, Note_on_c, 0, 73, 88
1, 462589, Control_c, 0, 64, 68
1, 462604, Control_c, 0, 64, 92
1, 462609, Note_off_c, 0, 63, 55
1, 462619, Control_c, 0, 64, 127
1, 462638, Note_off_c, 0, 73, 61
1, 462675, Note_on_c, 0, 69, 83
1, 462691, Note_on_c, 0, 66, 73
1, 462699, Note_off_c, 0, 68, 63
1, 462798, Note_on_c, 0, 81, 97
1, 462801, Note_on_c, 0, 72, 85
1, 462803, Note_off_c, 0, 69, 60
1, 462809, Note_on_c, 0, 63, 74
1, 462813, Note_off_c, 0, 66, 63
1, 462834, Note_off_c, 0, 63, 65
1, 462837, Note_off_c, 0, 72, 62
1, 462842, Note_off_c, 0, 57, 63
1, 462906, Note_off_c, 0, 81, 63
1, 462922, Note_on_c, 0, 73, 85
1, 462931, Note_on_c, 0, 57, 71
1, 462938, Control_c, 0, 64, 87
1, 462938, Control_c, 0, 67, 115
1, 462953, Control_c, 0, 64, 75
1, 462953, Control_c, 0, 67, 83
1, 462968, Control_c, 0, 64, 79
1, 462968, Control_c, 0, 67, 48
1, 462982, Control_c, 0, 64, 127
1, 462982, Control_c, 0, 67, 28
1, 462997, Control_c, 0, 67, 19
1, 463012, Control_c, 0, 67, 0
1, 463021, Note_on_c, 0, 80, 97
1, 463034, Note_off_c, 0, 57, 63
1, 463039, Note_on_c, 0, 47, 70
1, 463059, Note_off_c, 0, 73, 61
1, 463066, Note_off_c, 0, 47, 65
1, 463084, Note_off_c, 0, 80, 59
1, 463120, Note_on_c, 0, 78, 89
1, 463123, Note_on_c, 0, 72, 88
1, 463164, Note_off_c, 0, 72, 62
1, 463175, Note_off_c, 0, 78, 63
1, 463227, Note_on_c, 0, 77, 90
1, 463228, Note_on_c, 0, 61, 75
1, 463233, Note_on_c, 0, 72, 75
1, 463234, Control_c, 0, 64, 113
1, 463237, Note_on_c, 0, 65, 71
1, 463249, Control_c, 0, 64, 65
1, 463257, Note_on_c, 0, 80, 32
1, 463264, Control_c, 0, 64, 0
1, 463267, Note_off_c, 0, 80, 40
1, 463287, Note_off_c, 0, 77, 62
1, 463293, Control_c, 0, 64, 61
1, 463308, Control_c, 0, 64, 96
1, 463323, Control_c, 0, 64, 127
1, 463324, Note_on_c, 0, 73, 93
1, 463341, Note_on_c, 0, 70, 89
1, 463349, Note_off_c, 0, 65, 63
1, 463349, Note_off_c, 0, 72, 63
1, 463363, Note_off_c, 0, 73, 64
1, 463438, Note_off_c, 0, 70, 64
1, 463443, Note_on_c, 0, 65, 82
1, 463444, Note_on_c, 0, 85, 103
1, 463445, Note_on_c, 0, 76, 100
1, 463468, Note_off_c, 0, 65, 69
1, 463478, Note_off_c, 0, 61, 62
1, 463489, Note_off_c, 0, 76, 56
1, 463566, Note_off_c, 0, 85, 61
1, 463568, Note_on_c, 0, 77, 84
1, 463578, Note_on_c, 0, 61, 88
1, 463649, Note_off_c, 0, 77, 61
1, 463681, Note_off_c, 0, 61, 58
1, 463689, Note_on_c, 0, 84, 100
1, 463691, Note_on_c, 0, 72, 97
1, 463699, Note_on_c, 0, 53, 77
1, 463731, Note_off_c, 0, 84, 65
1, 463733, Note_off_c, 0, 72, 65
1, 463824, Note_off_c, 0, 53, 61
1, 463831, Note_on_c, 0, 83, 97
1, 463832, Note_on_c, 0, 71, 100
1, 463835, Note_on_c, 0, 44, 92
1, 463869, Note_off_c, 0, 71, 66
1, 463878, Note_off_c, 0, 83, 59
1, 464008, Note_off_c, 0, 44, 61
1, 464009, Note_on_c, 0, 75, 8
1, 464038, Note_on_c, 0, 43, 89
1, 464042, Control_c, 0, 67, 31
1, 464057, Control_c, 0, 64, 63
1, 464057, Control_c, 0, 67, 29
1, 464062, Note_off_c, 0, 75, 52
1, 464070, Control_c, 0, 64, 0
1, 464070, Control_c, 0, 67, 27
1, 464089, Note_on_c, 0, 82, 92
1, 464091, Note_on_c, 0, 70, 89
1, 464100, Note_on_c, 0, 75, 69
1, 464100, Control_c, 0, 67, 29
1, 464115, Control_c, 0, 67, 32
1, 464145, Control_c, 0, 67, 30
1, 464189, Control_c, 0, 64, 46
1, 464189, Control_c, 0, 67, 32
1, 464204, Control_c, 0, 64, 64
1, 464211, Note_off_c, 0, 70, 64
1, 464219, Control_c, 0, 64, 75
1, 464234, Control_c, 0, 64, 92
1, 464246, Note_off_c, 0, 75, 63
1, 464248, Control_c, 0, 64, 127
1, 464248, Control_c, 0, 67, 30
1, 464249, Note_off_c, 0, 82, 58
1, 464398, Note_on_c, 0, 51, 86
1, 464433, Note_off_c, 0, 43, 63
1, 464446, Note_on_c, 0, 87, 105
1, 464453, Note_on_c, 0, 75, 91
1, 464462, Note_on_c, 0, 85, 78
1, 464464, Control_c, 0, 67, 32
1, 464479, Control_c, 0, 67, 33
1, 464527, Note_on_c, 0, 58, 79
1, 464529, Note_off_c, 0, 51, 61
1, 464538, Control_c, 0, 67, 34
1, 464553, Control_c, 0, 67, 35
1, 464565, Note_off_c, 0, 58, 62
1, 464568, Control_c, 0, 67, 36
1, 464575, Poly_aftertouch_c, 0, 86, 0
1, 464597, Control_c, 0, 67, 35
1, 464600, Note_off_c, 0, 75, 58
1, 464612, Control_c, 0, 67, 35
1, 464621, Note_off_c, 0, 87, 60
1, 464622, Note_off_c, 0, 85, 56
1, 464627, Control_c, 0, 67, 34
1, 464641, Control_c, 0, 67, 35
1, 464656, Control_c, 0, 67, 36
1, 464671, Control_c, 0, 67, 35
1, 464686, Control_c, 0, 67, 34
1, 464687, Note_on_c, 0, 86, 95
1, 464690, Note_on_c, 0, 83, 88
1, 464692, Note_on_c, 0, 74, 89
1, 464698, Note_on_c, 0, 62, 77
1, 464701, Control_c, 0, 67, 34
1, 464730, Control_c, 0, 67, 35
1, 464742, Note_off_c, 0, 74, 60
1, 464745, Control_c, 0, 67, 36
1, 464760, Control_c, 0, 67, 36
1, 464775, Control_c, 0, 67, 36
1, 464788, Note_off_c, 0, 83, 62
1, 464789, Control_c, 0, 67, 35
1, 464819, Control_c, 0, 67, 36
1, 464834, Control_c, 0, 67, 37
1, 464841, Note_on_c, 0, 63, 78
1, 464841, Note_off_c, 0, 62, 61
1, 464849, Control_c, 0, 67, 37
1, 464863, Control_c, 0, 67, 37
1, 464875, Note_off_c, 0, 86, 64
1, 464878, Control_c, 0, 67, 36
1, 464889, Note_on_c, 0, 85, 87
1, 464891, Note_on_c, 0, 82, 84
1, 464901, Note_on_c, 0, 73, 78
1, 464908, Control_c, 0, 67, 37
1, 464923, Control_c, 0, 67, 37
1, 464926, Note_off_c, 0, 82, 60
1, 464927, Note_off_c, 0, 73, 65
1, 464930, Note_off_c, 0, 85, 67
1, 464944, Note_off_c, 0, 63, 62
1, 464960, Note_on_c, 0, 70, 85
1, 464968, Control_c, 0, 67, 36
1, 464998, Note_off_c, 0, 70, 63
1, 465019, Control_c, 0, 67, 37
1, 465048, Control_c, 0, 67, 36
1, 465063, Control_c, 0, 67, 36
1, 465093, Control_c, 0, 67, 36
1, 465108, Control_c, 0, 67, 37
1, 465144, Note_on_c, 0, 75, 96
1, 465156, Note_on_c, 0, 74, 86
1, 465168, Control_c, 0, 64, 102
1, 465169, Note_on_c, 0, 73, 44
1, 465183, Control_c, 0, 64, 66
1, 465183, Control_c, 0, 67, 39
1, 465198, Control_c, 0, 64, 53
1, 465198, Control_c, 0, 67, 41
1, 465212, Control_c, 0, 64, 60
1, 465212, Control_c, 0, 67, 41
1, 465227, Control_c, 0, 64, 71
1, 465242, Control_c, 0, 64, 94
1, 465257, Control_c, 0, 64, 127
1, 465257, Control_c, 0, 67, 42
1, 465272, Control_c, 0, 67, 45
1, 465287, Control_c, 0, 67, 51
1, 465293, Note_off_c, 0, 73, 0
1, 465302, Control_c, 0, 67, 52
1, 465305, Note_on_c, 0, 73, 53
1, 465308, Note_on_c, 0, 61, 67
1, 465321, Note_off_c, 0, 74, 53
1, 465331, Control_c, 0, 67, 51
1, 465346, Control_c, 0, 67, 51
1, 465361, Control_c, 0, 67, 51
1, 465376, Control_c, 0, 67, 52
1, 465391, Control_c, 0, 67, 52
1, 465397, Note_off_c, 0, 61, 58
1, 465406, Control_c, 0, 67, 52
1, 465420, Control_c, 0, 67, 51
1, 465437, Note_on_c, 0, 51, 58
1, 465441, Note_off_c, 0, 73, 55
1, 465448, Note_on_c, 0, 72, 72
1, 465490, Note_off_c, 0, 75, 60
1, 465494, Control_c, 0, 67, 50
1, 465509, Control_c, 0, 67, 49
1, 465513, Note_off_c, 0, 72, 63
1, 465524, Control_c, 0, 67, 48
1, 465538, Control_c, 0, 67, 49
1, 465553, Control_c, 0, 67, 51
1, 465569, Control_c, 0, 67, 51
1, 465570, Note_on_c, 0, 43, 63
1, 465573, Note_off_c, 0, 51, 60
1, 465575, Note_on_c, 0, 74, 83
1, 465588, Note_on_c, 0, 72, 63
1, 465599, Control_c, 0, 64, 80
1, 465599, Control_c, 0, 67, 50
1, 465613, Control_c, 0, 64, 49
1, 465628, Control_c, 0, 64, 0
1, 465628, Control_c, 0, 67, 51
1, 465643, Control_c, 0, 67, 53
1, 465657, Control_c, 0, 64, 46
1, 465657, Control_c, 0, 67, 53
1, 465672, Control_c, 0, 64, 63
1, 465687, Control_c, 0, 64, 71
1, 465702, Control_c, 0, 64, 75
1, 465717, Control_c, 0, 64, 76
1, 465717, Control_c, 0, 67, 54
1, 465731, Control_c, 0, 64, 77
1, 465731, Control_c, 0, 67, 55
1, 465746, Control_c, 0, 64, 79
1, 465746, Control_c, 0, 67, 58
1, 465769, Note_off_c, 0, 43, 60
1, 465769, Control_c, 0, 64, 81
1, 465769, Control_c, 0, 67, 57
1, 465770, Note_on_c, 0, 50, 63
1, 465784, Control_c, 0, 64, 84
1, 465784, Control_c, 0, 67, 56
1, 465796, Note_on_c, 0, 71, 58
1, 465799, Control_c, 0, 64, 88
1, 465799, Control_c, 0, 67, 55
1, 465813, Control_c, 0, 64, 95
1, 465828, Control_c, 0, 64, 108
1, 465828, Control_c, 0, 67, 56
1, 465843, Control_c, 0, 64, 127
1, 465843, Control_c, 0, 67, 57
1, 465845, Note_off_c, 0, 50, 61
1, 465885, Note_off_c, 0, 72, 25
1, 465887, Control_c, 0, 67, 56
1, 465895, Note_on_c, 0, 62, 68
1, 465932, Control_c, 0, 67, 56
1, 465948, Note_off_c, 0, 71, 58
1, 465948, Control_c, 0, 67, 54
1, 465963, Control_c, 0, 67, 53
1, 465977, Control_c, 0, 67, 52
1, 466014, Note_on_c, 0, 70, 76
1, 466022, Control_c, 0, 67, 51
1, 466037, Control_c, 0, 67, 49
1, 466051, Control_c, 0, 67, 44
1, 466066, Control_c, 0, 67, 35
1, 466081, Control_c, 0, 67, 24
1, 466095, Control_c, 0, 67, 0
1, 466159, Note_on_c, 0, 61, 77
1, 466183, Note_off_c, 0, 62, 59
1, 466200, Note_on_c, 0, 67, 69
1, 466215, Note_on_c, 0, 69, 67
1, 466220, Note_off_c, 0, 74, 62
1, 466223, Note_off_c, 0, 70, 63
1, 466232, Note_off_c, 0, 69, 66
1, 466238, Note_off_c, 0, 67, 64
1, 466245, Note_on_c, 0, 60, 83
1, 466255, Note_off_c, 0, 61, 61
1, 466279, Note_off_c, 0, 60, 66
1, 466362, Control_c, 0, 67, 31
1, 466377, Control_c, 0, 67, 28
1, 466384, Note_on_c, 0, 50, 97
1, 466392, Control_c, 0, 67, 20
1, 466406, Control_c, 0, 67, 0
1, 466421, Control_c, 0, 64, 88
1, 466436, Control_c, 0, 64, 59
1, 466446, Note_on_c, 0, 62, 91
1, 466450, Note_on_c, 0, 60, 81
1, 466451, Control_c, 0, 64, 36
1, 466466, Control_c, 0, 64, 53
1, 466480, Control_c, 0, 64, 68
1, 466495, Control_c, 0, 64, 97
1, 466518, Control_c, 0, 64, 127
1, 466589, Note_off_c, 0, 60, 62
1, 466604, Note_on_c, 0, 43, 85
1, 466612, Note_on_c, 0, 59, 83
1, 466700, Note_off_c, 0, 59, 60
1, 466703, Note_on_c, 0, 42, 81
1, 466705, Note_off_c, 0, 43, 63
1, 466725, Note_on_c, 0, 58, 93
1, 466795, Note_off_c, 0, 58, 66
1, 466844, Control_c, 0, 64, 80
1, 466853, Note_off_c, 0, 42, 62
1, 466859, Control_c, 0, 64, 0
1, 466860, Note_on_c, 0, 41, 84
1, 466869, Note_on_c, 0, 49, 98
1, 466874, Control_c, 0, 67, 42
1, 466889, Control_c, 0, 67, 45
1, 466895, Note_off_c, 0, 50, 61
1, 466904, Control_c, 0, 67, 37
1, 466918, Control_c, 0, 64, 66
1, 466918, Control_c, 0, 67, 33
1, 466921, Note_on_c, 0, 61, 104
1, 466927, Note_on_c, 0, 58, 86
1, 466932, Note_off_c, 0, 62, 64
1, 466933, Control_c, 0, 64, 106
1, 466933, Control_c, 0, 67, 27
1, 466944, Note_off_c, 0, 41, 62
1, 466947, Note_off_c, 0, 58, 72
1, 466948, Control_c, 0, 64, 127
1, 466951, Note_off_c, 0, 49, 64
1, 466959, Note_off_c, 0, 61, 67
1, 466963, Control_c, 0, 67, 32
1, 466978, Control_c, 0, 67, 32
1, 466992, Control_c, 0, 67, 30
1, 467007, Control_c, 0, 67, 27
1, 467022, Control_c, 0, 67, 25
1, 467066, Control_c, 0, 67, 27
1, 467096, Control_c, 0, 67, 25
1, 467141, Control_c, 0, 67, 29
1, 467156, Note_on_c, 0, 70, 90
1, 467164, Note_on_c, 0, 66, 73
1, 467200, Control_c, 0, 67, 26
1, 467208, Note_on_c, 0, 85, 102
1, 467211, Note_on_c, 0, 73, 99
1, 467244, Control_c, 0, 67, 30
1, 467281, Control_c, 0, 67, 28
1, 467307, Note_on_c, 0, 69, 83
1, 467308, Note_on_c, 0, 61, 81
1, 467308, Note_off_c, 0, 70, 63
1, 467311, Control_c, 0, 67, 26
1, 467317, Note_off_c, 0, 66, 61
1, 467330, Note_off_c, 0, 85, 61
1, 467341, Control_c, 0, 67, 28
1, 467385, Control_c, 0, 67, 25
1, 467444, Control_c, 0, 67, 27
1, 467448, Note_on_c, 0, 84, 101
1, 467448, Note_on_c, 0, 68, 83
1, 467451, Note_off_c, 0, 61, 61
1, 467456, Note_on_c, 0, 65, 74
1, 467474, Control_c, 0, 67, 25
1, 467477, Note_on_c, 0, 83, 54
1, 467477, Note_off_c, 0, 83, 127
1, 467483, Note_off_c, 0, 69, 60
1, 467504, Control_c, 0, 67, 23
1, 467543, Note_off_c, 0, 84, 62
1, 467549, Control_c, 0, 67, 26
1, 467606, Note_on_c, 0, 58, 86
1, 467609, Control_c, 0, 67, 28
1, 467611, Note_off_c, 0, 65, 62
1, 467612, Note_on_c, 0, 67, 82
1, 467612, Note_off_c, 0, 68, 62
1, 467675, Note_on_c, 0, 84, 87
1, 467677, Note_on_c, 0, 83, 88
1, 467712, Control_c, 0, 67, 31
1, 467733, Note_off_c, 0, 84, 61
1, 467735, Note_off_c, 0, 83, 61
1, 467741, Control_c, 0, 67, 32
1, 467754, Note_on_c, 0, 61, 75
1, 467760, Note_on_c, 0, 66, 70
1, 467762, Note_off_c, 0, 67, 62
1, 467767, Note_off_c, 0, 58, 61
1, 467788, Note_off_c, 0, 66, 65
1, 467801, Control_c, 0, 67, 32
1, 467810, Note_off_c, 0, 61, 62
1, 467831, Control_c, 0, 67, 32
1, 467841, Note_off_c, 0, 73, 28
1, 467875, Control_c, 0, 67, 32
1, 467890, Control_c, 0, 67, 34
1, 467905, Control_c, 0, 67, 35
1, 467937, Note_on_c, 0, 65, 86
1, 467938, Note_on_c, 0, 53, 78
1, 467949, Control_c, 0, 64, 72
1, 467964, Control_c, 0, 64, 0
1, 467964, Control_c, 0, 67, 36
1, 467972, Note_on_c, 0, 82, 88
1, 467976, Note_on_c, 0, 73, 86
1, 467979, Control_c, 0, 67, 37
1, 467993, Control_c, 0, 67, 38
1, 468016, Control_c, 0, 64, 35
1, 468016, Control_c, 0, 67, 39
1, 468031, Control_c, 0, 64, 64
1, 468046, Control_c, 0, 64, 77
1, 468046, Control_c, 0, 67, 39
1, 468060, Control_c, 0, 64, 88
1, 468060, Control_c, 0, 67, 41
1, 468075, Control_c, 0, 64, 93
1, 468075, Control_c, 0, 67, 45
1, 468090, Control_c, 0, 64, 95
1, 468090, Control_c, 0, 67, 51
1, 468098, Note_off_c, 0, 82, 63
1, 468104, Note_off_c, 0, 73, 61
1, 468105, Control_c, 0, 64, 102
1, 468105, Control_c, 0, 67, 53
1, 468120, Control_c, 0, 64, 113
1, 468120, Control_c, 0, 67, 52
1, 468127, Note_off_c, 0, 53, 55
1, 468135, Control_c, 0, 64, 127
1, 468135, Control_c, 0, 67, 51
1, 468149, Control_c, 0, 67, 51
1, 468150, Note_on_c, 0, 72, 74
1, 468155, Note_on_c, 0, 52, 72
1, 468179, Control_c, 0, 67, 51
1, 468191, Note_off_c, 0, 65, 55
1, 468193, Control_c, 0, 67, 52
1, 468208, Control_c, 0, 67, 53
1, 468238, Control_c, 0, 67, 52
1, 468280, Note_off_c, 0, 72, 56
1, 468283, Control_c, 0, 67, 53
1, 468295, Note_on_c, 0, 51, 77
1, 468298, Note_on_c, 0, 71, 79
1, 468298, Note_on_c, 0, 73, 79
1, 468304, Note_off_c, 0, 52, 54
1, 468327, Control_c, 0, 67, 52
1, 468333, Note_off_c, 0, 51, 61
1, 468358, Note_off_c, 0, 71, 62
1, 468372, Control_c, 0, 67, 53
1, 468387, Control_c, 0, 67, 53
1, 468432, Control_c, 0, 67, 53
1, 468434, Note_off_c, 0, 73, 58
1, 468461, Control_c, 0, 67, 54
1, 468473, Note_on_c, 0, 42, 72
1, 468476, Control_c, 0, 67, 55
1, 468491, Control_c, 0, 67, 58
1, 468521, Control_c, 0, 64, 80
1, 468535, Note_on_c, 0, 73, 79
1, 468536, Control_c, 0, 64, 48
1, 468543, Note_on_c, 0, 71, 63
1, 468551, Control_c, 0, 64, 0
1, 468551, Control_c, 0, 67, 60
1, 468564, Control_c, 0, 67, 66
1, 468579, Control_c, 0, 67, 74
1, 468594, Control_c, 0, 67, 76
1, 468608, Control_c, 0, 64, 55
1, 468623, Control_c, 0, 64, 68
1, 468638, Control_c, 0, 64, 74
1, 468638, Control_c, 0, 67, 77
1, 468653, Control_c, 0, 64, 79
1, 468653, Control_c, 0, 67, 82
1, 468668, Control_c, 0, 64, 82
1, 468668, Control_c, 0, 67, 87
1, 468682, Control_c, 0, 64, 86
1, 468697, Control_c, 0, 64, 90
1, 468712, Control_c, 0, 64, 98
1, 468727, Control_c, 0, 64, 115
1, 468727, Control_c, 0, 67, 87
1, 468742, Control_c, 0, 64, 127
1, 468742, Control_c, 0, 67, 89
1, 468764, Control_c, 0, 67, 91
1, 468794, Control_c, 0, 64, 100
1, 468807, Note_on_c, 0, 49, 59
1, 468809, Control_c, 0, 64, 73
1, 468817, Note_off_c, 0, 42, 58
1, 468823, Control_c, 0, 64, 55
1, 468823, Control_c, 0, 67, 92
1, 468838, Control_c, 0, 64, 50
1, 468838, Control_c, 0, 67, 93
1, 468853, Control_c, 0, 64, 59
1, 468859, Note_on_c, 0, 70, 68
1, 468868, Control_c, 0, 64, 67
1, 468881, Note_off_c, 0, 71, 61
1, 468883, Control_c, 0, 64, 75
1, 468897, Control_c, 0, 64, 83
1, 468912, Control_c, 0, 64, 88
1, 468912, Control_c, 0, 67, 95
1, 468927, Control_c, 0, 64, 93
1, 468927, Control_c, 0, 67, 101
1, 468935, Note_off_c, 0, 49, 64
1, 468942, Control_c, 0, 64, 98
1, 468942, Control_c, 0, 67, 108
1, 468957, Control_c, 0, 64, 101
1, 468957, Control_c, 0, 67, 110
1, 468977, Note_on_c, 0, 61, 57
1, 469120, Control_c, 0, 67, 112
1, 469135, Control_c, 0, 64, 105
1, 469150, Control_c, 0, 64, 107
1, 469165, Note_on_c, 0, 69, 49
1, 469195, Control_c, 0, 64, 99
1, 469210, Control_c, 0, 64, 85
1, 469210, Control_c, 0, 67, 115
1, 469224, Control_c, 0, 64, 74
1, 469239, Control_c, 0, 64, 70
1, 469254, Control_c, 0, 64, 71
1, 469269, Control_c, 0, 64, 73
1, 469284, Control_c, 0, 64, 77
1, 469299, Control_c, 0, 64, 79
1, 469313, Control_c, 0, 64, 81
1, 469328, Control_c, 0, 64, 84
1, 469343, Control_c, 0, 64, 88
1, 469347, Note_on_c, 0, 60, 51
1, 469358, Control_c, 0, 64, 90
1, 469373, Control_c, 0, 64, 90
1, 469373, Control_c, 0, 67, 117
1, 469387, Control_c, 0, 64, 83
1, 469402, Control_c, 0, 64, 72
1, 469417, Control_c, 0, 64, 60
1, 469430, Note_on_c, 0, 68, 58
1, 469431, Control_c, 0, 64, 48
1, 469440, Note_off_c, 0, 69, 58
1, 469461, Control_c, 0, 64, 56
1, 469461, Control_c, 0, 67, 120
1, 469476, Control_c, 0, 64, 62
1, 469476, Control_c, 0, 67, 125
1, 469491, Control_c, 0, 64, 67
1, 469491, Control_c, 0, 67, 127
1, 469493, Note_off_c, 0, 70, 36
1, 469513, Control_c, 0, 64, 71
1, 469528, Control_c, 0, 64, 73
1, 469541, Note_off_c, 0, 60, 64
1, 469543, Control_c, 0, 64, 74
1, 469555, Note_on_c, 0, 59, 50
1, 469573, Control_c, 0, 64, 74
1, 469764, Control_c, 0, 64, 74
1, 469779, Control_c, 0, 64, 73
1, 469794, Control_c, 0, 64, 72
1, 469809, Control_c, 0, 64, 67
1, 469824, Control_c, 0, 64, 61
1, 469834, Note_off_c, 0, 59, 58
1, 469839, Control_c, 0, 64, 48
1, 469841, Note_on_c, 0, 58, 47
1, 469853, Control_c, 0, 64, 0
1, 469865, Note_off_c, 0, 68, 59
1, 469871, Note_on_c, 0, 66, 44
1, 469913, Control_c, 0, 64, 53
1, 469922, Note_off_c, 0, 61, 60
1, 469928, Control_c, 0, 64, 72
1, 469943, Control_c, 0, 64, 106
1, 469946, Note_off_c, 0, 58, 63
1, 469958, Control_c, 0, 64, 127
1, 469977, Note_off_c, 0, 73, 60
1, 469991, Note_off_c, 0, 66, 57
1, 470161, Note_on_c, 0, 42, 40
1, 470181, Note_on_c, 0, 49, 37
1, 470190, Note_on_c, 0, 61, 52
1, 470195, Control_c, 0, 64, 86
1, 470210, Control_c, 0, 64, 71
1, 470211, Note_on_c, 0, 57, 45
1, 470225, Control_c, 0, 64, 66
1, 470240, Control_c, 0, 64, 67
1, 470262, Control_c, 0, 64, 71
1, 470277, Control_c, 0, 64, 74
1, 470292, Control_c, 0, 64, 77
1, 470307, Control_c, 0, 64, 79
1, 470321, Control_c, 0, 64, 82
1, 470336, Control_c, 0, 64, 86
1, 470351, Control_c, 0, 64, 88
1, 470366, Control_c, 0, 64, 89
1, 470380, Control_c, 0, 64, 89
1, 470395, Control_c, 0, 64, 92
1, 470410, Control_c, 0, 64, 98
1, 470425, Control_c, 0, 64, 105
1, 470440, Control_c, 0, 64, 111
1, 470484, Control_c, 0, 64, 102
1, 470497, Note_on_c, 0, 56, 52
1, 470499, Control_c, 0, 64, 85
1, 470514, Control_c, 0, 64, 70
1, 470526, Note_off_c, 0, 57, 38
1, 470529, Control_c, 0, 64, 64
1, 470538, Note_off_c, 0, 49, 47
1, 470543, Control_c, 0, 64, 65
1, 470558, Control_c, 0, 64, 70
1, 470573, Control_c, 0, 64, 80
1, 470587, Control_c, 0, 64, 93
1, 470602, Control_c, 0, 64, 102
1, 470617, Control_c, 0, 64, 105
1, 470632, Control_c, 0, 64, 107
1, 470647, Control_c, 0, 64, 110
1, 470661, Control_c, 0, 64, 114
1, 470705, Note_off_c, 0, 61, 36
1, 470721, Control_c, 0, 64, 116
1, 470752, Control_c, 0, 64, 120
1, 470781, Control_c, 0, 64, 122
1, 470900, Control_c, 0, 64, 120
1, 470915, Control_c, 0, 64, 112
1, 470924, Note_on_c, 0, 40, 43
1, 470929, Note_on_c, 0, 48, 40
1, 470930, Control_c, 0, 64, 99
1, 470940, Note_off_c, 0, 42, 42
1, 470941, Note_on_c, 0, 60, 49
1, 470941, Note_on_c, 0, 55, 46
1, 470945, Control_c, 0, 64, 84
1, 470959, Control_c, 0, 64, 72
1, 470974, Note_off_c, 0, 56, 37
1, 470974, Control_c, 0, 64, 60
1, 470989, Control_c, 0, 64, 35
1, 471011, Control_c, 0, 64, 0
1, 471071, Control_c, 0, 64, 53
1, 471085, Control_c, 0, 64, 65
1, 471100, Control_c, 0, 64, 71
1, 471115, Control_c, 0, 64, 74
1, 471130, Control_c, 0, 64, 75
1, 471145, Control_c, 0, 64, 76
1, 471159, Control_c, 0, 64, 78
1, 471174, Control_c, 0, 64, 80
1, 471189, Control_c, 0, 64, 83
1, 471204, Control_c, 0, 64, 88
1, 471216, Note_off_c, 0, 48, 30
1, 471219, Control_c, 0, 64, 94
1, 471234, Control_c, 0, 64, 99
1, 471249, Control_c, 0, 64, 105
1, 471263, Control_c, 0, 64, 111
1, 471278, Control_c, 0, 64, 115
1, 471293, Control_c, 0, 64, 120
1, 471308, Control_c, 0, 64, 127
1, 471327, Note_on_c, 0, 59, 45
1, 471338, Note_off_c, 0, 60, 36
1, 471351, Note_off_c, 0, 40, 37
1, 471386, Note_off_c, 0, 55, 31
1, 471576, Note_on_c, 0, 57, 51
1, 471630, Note_off_c, 0, 59, 31
1, 471797, Note_on_c, 0, 28, 41
1, 471800, Note_on_c, 0, 40, 40
1, 471814, Note_off_c, 0, 57, 52
1, 471816, Note_on_c, 0, 55, 47
1, 471867, Note_off_c, 0, 28, 52
1, 471913, Note_off_c, 0, 40, 35
1, 471960, Note_off_c, 0, 55, 59
1, 472021, Note_on_c, 0, 52, 44
1, 472194, Note_off_c, 0, 52, 60
1, 472226, Note_on_c, 0, 47, 53
1, 472344, Note_off_c, 0, 47, 54
1, 472424, Note_on_c, 0, 48, 56
1, 472553, Note_off_c, 0, 48, 55
1, 472608, Note_on_c, 0, 59, 47
1, 472776, Note_off_c, 0, 59, 51
1, 472796, Note_on_c, 0, 57, 52
1, 472971, Note_on_c, 0, 28, 47
1, 472972, Note_on_c, 0, 40, 45
1, 472984, Note_on_c, 0, 55, 51
1, 473020, Note_off_c, 0, 57, 37
1, 473039, Note_off_c, 0, 28, 53
1, 473135, Note_off_c, 0, 40, 49
1, 473172, Note_on_c, 0, 52, 48
1, 473342, Note_on_c, 0, 47, 47
1, 473394, Note_off_c, 0, 55, 31
1, 473514, Note_off_c, 0, 47, 36
1, 473526, Note_on_c, 0, 48, 55
1, 473669, Note_on_c, 0, 59, 50
1, 473675, Note_off_c, 0, 48, 59
1, 473711, Note_off_c, 0, 52, 20
1, 473788, Note_off_c, 0, 59, 59
1, 473807, Note_on_c, 0, 57, 54
1, 473930, Note_off_c, 0, 57, 58
1, 473939, Note_on_c, 0, 56, 57
1, 474066, Note_on_c, 0, 28, 41
1, 474068, Note_on_c, 0, 40, 46
1, 474111, Note_off_c, 0, 56, 57
1, 474112, Note_on_c, 0, 55, 57
1, 474197, Note_off_c, 0, 28, 59
1, 474257, Note_off_c, 0, 40, 59
1, 474268, Note_off_c, 0, 55, 59
1, 474281, Note_on_c, 0, 52, 57
1, 474431, Note_on_c, 0, 46, 62
1, 474474, Note_off_c, 0, 52, 38
1, 474595, Note_on_c, 0, 47, 68
1, 474614, Control_c, 0, 64, 99
1, 474629, Control_c, 0, 64, 78
1, 474644, Control_c, 0, 64, 73
1, 474659, Control_c, 0, 64, 74
1, 474668, Note_off_c, 0, 46, 38
1, 474673, Control_c, 0, 64, 80
1, 474688, Control_c, 0, 64, 94
1, 474703, Control_c, 0, 64, 127
1, 474764, Note_on_c, 0, 61, 57
1, 474795, Note_off_c, 0, 47, 62
1, 474906, Note_on_c, 0, 57, 63
1, 474908, Note_off_c, 0, 61, 61
1, 474973, Note_off_c, 0, 57, 61
1, 475042, Note_on_c, 0, 40, 48
1, 475050, Note_on_c, 0, 28, 55
1, 475097, Note_on_c, 0, 55, 56
1, 475173, Note_off_c, 0, 28, 60
1, 475224, Note_off_c, 0, 55, 61
1, 475234, Note_off_c, 0, 40, 61
1, 475236, Note_on_c, 0, 52, 63
1, 475355, Note_off_c, 0, 52, 60
1, 475374, Note_on_c, 0, 46, 67
1, 475526, Note_off_c, 0, 46, 53
1, 475526, Note_on_c, 0, 47, 69
1, 475550, Control_c, 0, 64, 111
1, 475565, Control_c, 0, 64, 88
1, 475580, Control_c, 0, 64, 84
1, 475595, Control_c, 0, 64, 85
1, 475609, Control_c, 0, 64, 89
1, 475624, Control_c, 0, 64, 97
1, 475639, Control_c, 0, 64, 106
1, 475645, Note_on_c, 0, 61, 62
1, 475654, Control_c, 0, 64, 114
1, 475669, Control_c, 0, 64, 127
1, 475709, Note_off_c, 0, 47, 62
1, 475781, Note_on_c, 0, 57, 61
1, 475793, Note_off_c, 0, 61, 60
1, 475890, Note_on_c, 0, 56, 67
1, 475891, Note_off_c, 0, 57, 60
1, 475952, Note_off_c, 0, 56, 60
1, 475989, Note_on_c, 0, 28, 64
1, 475994, Note_on_c, 0, 40, 61
1, 476024, Control_c, 0, 64, 100
1, 476039, Control_c, 0, 64, 78
1, 476053, Note_on_c, 0, 55, 57
1, 476054, Control_c, 0, 64, 72
1, 476068, Control_c, 0, 64, 73
1, 476083, Control_c, 0, 64, 79
1, 476098, Control_c, 0, 64, 92
1, 476113, Control_c, 0, 64, 108
1, 476127, Control_c, 0, 64, 124
1, 476140, Note_off_c, 0, 28, 61
1, 476142, Control_c, 0, 64, 127
1, 476170, Note_off_c, 0, 40, 60
1, 476186, Note_on_c, 0, 51, 44
1, 476199, Note_on_c, 0, 52, 70
1, 476203, Note_off_c, 0, 55, 57
1, 476256, Note_off_c, 0, 51, 36
1, 476309, Note_off_c, 0, 52, 62
1, 476331, Note_on_c, 0, 45, 70
1, 476435, Note_off_c, 0, 45, 55
1, 476521, Control_c, 0, 64, 115
1, 476525, Note_on_c, 0, 46, 81
1, 476536, Control_c, 0, 64, 67
1, 476550, Control_c, 0, 64, 0
1, 476595, Control_c, 0, 64, 53
1, 476603, Note_on_c, 0, 62, 73
1, 476610, Control_c, 0, 64, 69
1, 476624, Control_c, 0, 64, 82
1, 476639, Control_c, 0, 64, 94
1, 476654, Control_c, 0, 64, 99
1, 476656, Note_off_c, 0, 46, 64
1, 476669, Control_c, 0, 64, 102
1, 476684, Control_c, 0, 64, 113
1, 476698, Control_c, 0, 64, 127
1, 476784, Note_on_c, 0, 60, 65
1, 476802, Note_off_c, 0, 62, 53
1, 476954, Note_on_c, 0, 79, 87
1, 476982, Note_off_c, 0, 79, 65
1, 477024, Note_on_c, 0, 58, 60
1, 477078, Note_off_c, 0, 60, 36
1, 477163, Note_on_c, 0, 55, 46
1, 477175, Note_off_c, 0, 58, 60
1, 477279, Note_on_c, 0, 40, 72
1, 477291, Note_off_c, 0, 55, 52
1, 477306, Note_on_c, 0, 50, 53
1, 477409, Note_on_c, 0, 62, 60
1, 477461, Note_off_c, 0, 40, 60
1, 477475, Note_off_c, 0, 50, 22
1, 477507, Note_off_c, 0, 62, 55
1, 477508, Note_on_c, 0, 60, 66
1, 477603, Note_on_c, 0, 58, 68
1, 477652, Note_off_c, 0, 60, 52
1, 477696, Note_on_c, 0, 46, 94
1, 477729, Note_off_c, 0, 46, 63
1, 477750, Note_on_c, 0, 55, 65
1, 477796, Note_off_c, 0, 58, 59
1, 477881, Note_on_c, 0, 50, 65
1, 477895, Note_off_c, 0, 55, 57
1, 477944, Note_on_c, 0, 76, 87
1, 477973, Note_off_c, 0, 76, 64
1, 478031, Note_on_c, 0, 62, 60
1, 478135, Note_off_c, 0, 50, 37
1, 478181, Note_off_c, 0, 62, 57
1, 478185, Note_on_c, 0, 60, 58
1, 478211, Note_on_c, 0, 40, 76
1, 478326, Note_on_c, 0, 58, 60
1, 478347, Note_off_c, 0, 60, 59
1, 478391, Note_off_c, 0, 40, 58
1, 478442, Note_on_c, 0, 55, 66
1, 478474, Note_off_c, 0, 58, 53
1, 478579, Note_off_c, 0, 55, 59
1, 478590, Note_on_c, 0, 45, 80
1, 478592, Note_on_c, 0, 50, 59
1, 478614, Note_off_c, 0, 45, 66
1, 478724, Note_on_c, 0, 62, 67
1, 478793, Note_on_c, 0, 72, 96
1, 478824, Note_off_c, 0, 72, 66
1, 478874, Note_on_c, 0, 60, 53
1, 478923, Note_off_c, 0, 62, 37
1, 478948, Note_off_c, 0, 50, 39
1, 479004, Note_on_c, 0, 58, 61
1, 479018, Note_off_c, 0, 60, 56
1, 479038, Note_on_c, 0, 40, 81
1, 479101, Note_on_c, 0, 55, 64
1, 479143, Note_off_c, 0, 40, 63
1, 479162, Note_off_c, 0, 58, 38
1, 479169, Note_off_c, 0, 55, 61
1, 479196, Note_on_c, 0, 50, 68
1, 479303, Note_on_c, 0, 64, 68
1, 479310, Note_off_c, 0, 50, 51
1, 479395, Control_c, 0, 64, 105
1, 479404, Note_on_c, 0, 45, 88
1, 479410, Control_c, 0, 64, 73
1, 479425, Control_c, 0, 64, 68
1, 479434, Note_on_c, 0, 62, 64
1, 479440, Control_c, 0, 64, 74
1, 479455, Control_c, 0, 64, 90
1, 479455, Note_off_c, 0, 64, 49
1, 479464, Note_off_c, 0, 45, 62
1, 479469, Control_c, 0, 64, 127
1, 479547, Note_on_c, 0, 60, 61
1, 479599, Note_off_c, 0, 62, 57
1, 479616, Note_on_c, 0, 69, 88
1, 479653, Note_off_c, 0, 69, 58
1, 479708, Note_on_c, 0, 55, 57
1, 479745, Note_off_c, 0, 60, 61
1, 479851, Note_on_c, 0, 40, 74
1, 479869, Note_off_c, 0, 55, 58
1, 479881, Note_on_c, 0, 52, 50
1, 479944, Note_off_c, 0, 40, 60
1, 479981, Note_on_c, 0, 64, 64
1, 480098, Note_on_c, 0, 62, 62
1, 480111, Note_off_c, 0, 64, 53
1, 480161, Note_off_c, 0, 52, 28
1, 480205, Note_on_c, 0, 45, 80
1, 480227, Note_off_c, 0, 45, 70
1, 480256, Note_on_c, 0, 60, 59
1, 480295, Note_off_c, 0, 62, 50
1, 480369, Note_on_c, 0, 55, 66
1, 480391, Note_on_c, 0, 67, 86
1, 480412, Note_off_c, 0, 67, 67
1, 480467, Note_off_c, 0, 60, 32
1, 480520, Note_on_c, 0, 52, 65
1, 480546, Note_off_c, 0, 55, 60
1, 480552, Note_off_c, 0, 52, 64
1, 480640, Note_on_c, 0, 28, 48
1, 480644, Note_on_c, 0, 41, 37
1, 480651, Note_on_c, 0, 40, 33
1, 480675, Note_off_c, 0, 41, 51
1, 480680, Note_off_c, 0, 28, 50
1, 480692, Note_off_c, 0, 40, 44
1, 480755, Note_on_c, 0, 95, 40
1, 480757, Note_on_c, 0, 93, 48
1, 480780, Note_off_c, 0, 93, 66
1, 480781, Note_off_c, 0, 95, 52
1, 480812, Note_on_c, 0, 91, 66
1, 480917, Note_off_c, 0, 91, 0
1, 480917, Note_on_c, 0, 91, 31
1, 481006, Note_on_c, 0, 86, 63
1, 481015, Note_off_c, 0, 91, 63
1, 481018, Note_on_c, 0, 40, 82
1, 481018, Note_on_c, 0, 45, 90
1, 481027, Control_c, 0, 64, 81
1, 481036, Note_off_c, 0, 86, 65
1, 481041, Control_c, 0, 64, 67
1, 481056, Control_c, 0, 64, 69
1, 481057, Note_off_c, 0, 40, 63
1, 481065, Note_off_c, 0, 45, 63
1, 481071, Control_c, 0, 64, 88
1, 481072, Note_on_c, 0, 81, 63
1, 481086, Control_c, 0, 64, 127
1, 481112, Note_off_c, 0, 81, 63
1, 481159, Note_on_c, 0, 91, 68
1, 481223, Note_off_c, 0, 91, 63
1, 481228, Note_on_c, 0, 64, 84
1, 481230, Note_on_c, 0, 90, 74
1, 481233, Note_on_c, 0, 60, 78
1, 481240, Note_on_c, 0, 55, 74
1, 481248, Note_off_c, 0, 64, 71
1, 481255, Note_off_c, 0, 60, 72
1, 481270, Note_off_c, 0, 55, 65
1, 481275, Note_off_c, 0, 90, 65
1, 481305, Note_on_c, 0, 89, 74
1, 481367, Note_on_c, 0, 88, 77
1, 481370, Note_off_c, 0, 89, 63
1, 481428, Note_off_c, 0, 88, 64
1, 481430, Note_on_c, 0, 84, 53
1, 481456, Note_off_c, 0, 84, 58
1, 481460, Note_on_c, 0, 33, 72
1, 481464, Note_on_c, 0, 38, 59
1, 481464, Note_on_c, 0, 40, 55
1, 481492, Note_off_c, 0, 40, 63
1, 481494, Note_on_c, 0, 79, 71
1, 481494, Note_off_c, 0, 33, 64
1, 481498, Note_off_c, 0, 38, 58
1, 481548, Note_off_c, 0, 79, 64
1, 481565, Note_on_c, 0, 83, 70
1, 481612, Note_off_c, 0, 83, 65
1, 481618, Note_on_c, 0, 81, 81
1, 481673, Note_off_c, 0, 81, 59
1, 481677, Note_on_c, 0, 80, 78
1, 481734, Note_off_c, 0, 80, 63
1, 481735, Note_on_c, 0, 79, 82
1, 481794, Note_on_c, 0, 76, 81
1, 481797, Note_on_c, 0, 28, 83
1, 481798, Note_on_c, 0, 33, 90
1, 481809, Note_off_c, 0, 79, 65
1, 481829, Note_off_c, 0, 28, 65
1, 481837, Note_off_c, 0, 76, 67
1, 481841, Note_off_c, 0, 33, 62
1, 481862, Note_on_c, 0, 71, 67
1, 481910, Note_on_c, 0, 72, 14
1, 481912, Note_off_c, 0, 71, 64
1, 481944, Note_on_c, 0, 79, 66
1, 481956, Note_off_c, 0, 72, 38
1, 482006, Note_off_c, 0, 79, 62
1, 482011, Note_on_c, 0, 60, 95
1, 482021, Note_on_c, 0, 55, 84
1, 482023, Note_on_c, 0, 52, 83
1, 482039, Note_off_c, 0, 60, 68
1, 482041, Note_off_c, 0, 55, 71
1, 482052, Note_off_c, 0, 52, 63
1, 482093, Note_on_c, 0, 77, 43
1, 482141, Note_off_c, 0, 77, 64
1, 482144, Note_on_c, 0, 76, 64
1, 482148, Poly_aftertouch_c, 0, 79, 0
1, 482170, Note_on_c, 0, 72, 69
1, 482200, Note_off_c, 0, 76, 62
1, 482213, Note_on_c, 0, 40, 85
1, 482225, Note_on_c, 0, 33, 78
1, 482226, Note_on_c, 0, 67, 72
1, 482226, Note_off_c, 0, 72, 63
1, 482242, Note_off_c, 0, 40, 67
1, 482255, Note_off_c, 0, 67, 70
1, 482257, Note_off_c, 0, 33, 64
1, 482334, Note_on_c, 0, 95, 77
1, 482383, Note_off_c, 0, 95, 63
1, 482385, Note_on_c, 0, 93, 18
1, 482393, Note_on_c, 0, 91, 79
1, 482441, Note_off_c, 0, 93, 58
1, 482462, Note_on_c, 0, 90, 61
1, 482493, Note_off_c, 0, 91, 0
1, 482507, Note_on_c, 0, 91, 54
1, 482534, Note_on_c, 0, 89, 55
1, 482540, Note_off_c, 0, 90, 34
1, 482589, Note_on_c, 0, 88, 64
1, 482595, Note_off_c, 0, 91, 62
1, 482597, Note_on_c, 0, 86, 74
1, 482599, Control_c, 0, 64, 88
1, 482602, Note_on_c, 0, 45, 91
1, 482603, Note_on_c, 0, 40, 90
1, 482613, Control_c, 0, 64, 69
1, 482621, Note_off_c, 0, 89, 24
1, 482623, Note_off_c, 0, 86, 58
1, 482628, Control_c, 0, 64, 71
1, 482635, Note_off_c, 0, 88, 61
1, 482642, Note_off_c, 0, 40, 62
1, 482643, Note_on_c, 0, 81, 81
1, 482643, Control_c, 0, 64, 90
1, 482649, Note_off_c, 0, 45, 63
1, 482658, Control_c, 0, 64, 127
1, 482702, Note_off_c, 0, 81, 63
1, 482734, Note_on_c, 0, 93, 57
1, 482734, Note_on_c, 0, 91, 61
1, 482768, Note_off_c, 0, 93, 62
1, 482783, Note_on_c, 0, 90, 80
1, 482785, Note_off_c, 0, 91, 65
1, 482800, Note_off_c, 0, 90, 71
1, 482813, Note_on_c, 0, 60, 79
1, 482813, Note_on_c, 0, 64, 75
1, 482817, Note_on_c, 0, 57, 81
1, 482833, Note_off_c, 0, 64, 71
1, 482835, Control_c, 0, 67, 121
1, 482838, Note_off_c, 0, 60, 69
1, 482850, Note_off_c, 0, 57, 62
1, 482850, Control_c, 0, 67, 115
1, 482852, Note_on_c, 0, 89, 79
1, 482865, Control_c, 0, 67, 108
1, 482880, Control_c, 0, 67, 102
1, 482895, Control_c, 0, 67, 98
1, 482910, Control_c, 0, 67, 93
1, 482913, Note_on_c, 0, 88, 83
1, 482917, Note_off_c, 0, 89, 66
1, 482925, Control_c, 0, 67, 89
1, 482940, Control_c, 0, 67, 86
1, 482955, Control_c, 0, 67, 82
1, 482962, Note_on_c, 0, 84, 77
1, 482969, Control_c, 0, 67, 80
1, 482976, Note_off_c, 0, 88, 65
1, 482991, Control_c, 0, 67, 78
1, 483006, Control_c, 0, 67, 77
1, 483021, Control_c, 0, 67, 76
1, 483022, Note_off_c, 0, 84, 63
1, 483024, Note_on_c, 0, 40, 90
1, 483032, Note_on_c, 0, 33, 88
1, 483037, Note_on_c, 0, 77, 68
1, 483046, Note_off_c, 0, 40, 66
1, 483050, Control_c, 0, 67, 75
1, 483053, Note_off_c, 0, 33, 69
1, 483065, Control_c, 0, 67, 74
1, 483080, Control_c, 0, 67, 74
1, 483095, Control_c, 0, 67, 72
1, 483098, Note_on_c, 0, 83, 77
1, 483101, Note_off_c, 0, 77, 64
1, 483110, Control_c, 0, 67, 72
1, 483139, Control_c, 0, 67, 71
1, 483151, Note_off_c, 0, 83, 66
1, 483154, Control_c, 0, 67, 70
1, 483162, Note_on_c, 0, 81, 82
1, 483169, Control_c, 0, 67, 69
1, 483184, Control_c, 0, 67, 68
1, 483199, Control_c, 0, 67, 67
1, 483205, Note_off_c, 0, 81, 62
1, 483208, Note_on_c, 0, 80, 78
1, 483214, Control_c, 0, 67, 65
1, 483229, Control_c, 0, 67, 61
1, 483243, Control_c, 0, 67, 56
1, 483258, Control_c, 0, 67, 49
1, 483268, Note_on_c, 0, 79, 87
1, 483269, Note_off_c, 0, 80, 64
1, 483273, Control_c, 0, 67, 39
1, 483288, Control_c, 0, 67, 25
1, 483303, Control_c, 0, 67, 0
1, 483329, Note_on_c, 0, 76, 81
1, 483353, Note_off_c, 0, 79, 64
1, 483361, Note_on_c, 0, 33, 86
1, 483365, Note_on_c, 0, 28, 86
1, 483382, Note_off_c, 0, 76, 65
1, 483396, Note_on_c, 0, 71, 88
1, 483396, Note_off_c, 0, 28, 66
1, 483405, Note_off_c, 0, 33, 63
1, 483449, Note_off_c, 0, 71, 64
1, 483463, Note_on_c, 0, 79, 76
1, 483518, Note_off_c, 0, 79, 64
1, 483537, Note_on_c, 0, 78, 68
1, 483560, Note_off_c, 0, 78, 67
1, 483571, Note_on_c, 0, 60, 88
1, 483577, Note_on_c, 0, 52, 82
1, 483580, Note_on_c, 0, 55, 74
1, 483591, Note_off_c, 0, 60, 73
1, 483599, Note_on_c, 0, 77, 73
1, 483602, Note_off_c, 0, 55, 69
1, 483612, Note_off_c, 0, 52, 59
1, 483649, Note_on_c, 0, 76, 87
1, 483658, Note_off_c, 0, 77, 65
1, 483701, Note_on_c, 0, 72, 82
1, 483713, Note_off_c, 0, 76, 62
1, 483762, Note_off_c, 0, 72, 62
1, 483768, Note_on_c, 0, 40, 87
1, 483769, Note_on_c, 0, 67, 86
1, 483775, Note_on_c, 0, 33, 86
1, 483786, Control_c, 0, 67, 21
1, 483792, Note_off_c, 0, 40, 66
1, 483799, Note_off_c, 0, 33, 70
1, 483801, Control_c, 0, 67, 41
1, 483807, Note_off_c, 0, 67, 67
1, 483815, Control_c, 0, 67, 32
1, 483830, Control_c, 0, 67, 0
1, 483839, Note_on_c, 0, 83, 82
1, 483896, Note_on_c, 0, 81, 83
1, 483896, Note_off_c, 0, 83, 66
1, 483950, Note_off_c, 0, 81, 60
1, 483957, Note_on_c, 0, 80, 80
1, 484017, Note_on_c, 0, 79, 88
1, 484017, Note_off_c, 0, 80, 64
1, 484066, Control_c, 0, 64, 67
1, 484072, Note_on_c, 0, 76, 85
1, 484081, Control_c, 0, 64, 0
1, 484094, Note_on_c, 0, 45, 92
1, 484095, Note_on_c, 0, 40, 90
1, 484096, Control_c, 0, 64, 41
1, 484099, Note_off_c, 0, 79, 66
1, 484111, Control_c, 0, 64, 64
1, 484126, Control_c, 0, 64, 127
1, 484126, Control_c, 0, 67, 30
1, 484129, Note_on_c, 0, 71, 92
1, 484132, Note_off_c, 0, 40, 66
1, 484132, Note_off_c, 0, 45, 64
1, 484138, Note_off_c, 0, 76, 65
1, 484141, Control_c, 0, 67, 28
1, 484156, Control_c, 0, 67, 0
1, 484166, Note_off_c, 0, 71, 67
1, 484236, Note_on_c, 0, 89, 73
1, 484315, Note_off_c, 0, 89, 0
1, 484344, Note_on_c, 0, 64, 79
1, 484345, Note_on_c, 0, 55, 84
1, 484346, Note_on_c, 0, 60, 86
1, 484346, Note_on_c, 0, 88, 6
1, 484353, Poly_aftertouch_c, 0, 89, 127
1, 484373, Note_on_c, 0, 89, 32
1, 484376, Note_off_c, 0, 64, 63
1, 484382, Note_off_c, 0, 60, 65
1, 484388, Note_off_c, 0, 55, 63
1, 484394, Note_off_c, 0, 88, 38
1, 484433, Note_on_c, 0, 88, 80
1, 484448, Note_off_c, 0, 89, 63
1, 484489, Note_on_c, 0, 84, 80
1, 484506, Note_off_c, 0, 88, 62
1, 484532, Note_on_c, 0, 55, 92
1, 484533, Note_on_c, 0, 60, 91
1, 484537, Note_on_c, 0, 52, 91
1, 484540, Note_off_c, 0, 84, 64
1, 484549, Control_c, 0, 67, 55
1, 484557, Note_on_c, 0, 79, 75
1, 484561, Note_off_c, 0, 60, 68
1, 484564, Control_c, 0, 67, 93
1, 484572, Note_on_c, 0, 77, 64
1, 484572, Note_off_c, 0, 55, 65
1, 484579, Control_c, 0, 67, 83
1, 484585, Note_off_c, 0, 52, 62
1, 484594, Control_c, 0, 67, 66
1, 484597, Note_off_c, 0, 77, 52
1, 484607, Note_off_c, 0, 79, 58
1, 484609, Control_c, 0, 67, 33
1, 484623, Control_c, 0, 67, 0
1, 484626, Note_on_c, 0, 83, 78
1, 484649, Note_on_c, 0, 84, 34
1, 484665, Note_on_c, 0, 81, 77
1, 484682, Note_off_c, 0, 84, 58
1, 484683, Note_off_c, 0, 83, 48
1, 484716, Note_on_c, 0, 80, 81
1, 484720, Note_off_c, 0, 81, 63
1, 484793, Note_on_c, 0, 79, 74
1, 484795, Note_on_c, 0, 81, 73
1, 484798, Note_off_c, 0, 80, 58
1, 484816, Note_off_c, 0, 81, 62
1, 484840, Note_on_c, 0, 76, 82
1, 484871, Note_off_c, 0, 79, 65
1, 484877, Note_on_c, 0, 33, 95
1, 484878, Note_on_c, 0, 40, 95
1, 484894, Note_on_c, 0, 71, 86
1, 484904, Note_off_c, 0, 76, 62
1, 484915, Note_off_c, 0, 33, 66
1, 484918, Note_off_c, 0, 40, 65
1, 484919, Note_off_c, 0, 71, 68
1, 484934, Control_c, 0, 67, 72
1, 484949, Control_c, 0, 67, 101
1, 484964, Control_c, 0, 67, 78
1, 484979, Control_c, 0, 67, 37
1, 484993, Control_c, 0, 67, 0
1, 485002, Note_on_c, 0, 93, 79
1, 485057, Note_off_c, 0, 93, 62
1, 485066, Note_on_c, 0, 91, 86
1, 485095, Note_on_c, 0, 64, 97
1, 485104, Note_on_c, 0, 55, 88
1, 485105, Note_on_c, 0, 60, 81
1, 485119, Note_off_c, 0, 91, 65
1, 485126, Note_off_c, 0, 60, 73
1, 485134, Note_off_c, 0, 55, 59
1, 485134, Note_off_c, 0, 64, 67
1, 485142, Control_c, 0, 67, 22
1, 485157, Control_c, 0, 67, 27
1, 485160, Note_on_c, 0, 91, 80
1, 485172, Control_c, 0, 67, 0
1, 485246, Note_on_c, 0, 86, 80
1, 485250, Note_off_c, 0, 91, 62
1, 485289, Note_off_c, 0, 86, 65
1, 485300, Note_on_c, 0, 79, 81
1, 485351, Note_off_c, 0, 79, 67
1, 485372, Note_on_c, 0, 83, 82
1, 485435, Note_on_c, 0, 81, 61
1, 485435, Note_off_c, 0, 83, 65
1, 485452, Note_on_c, 0, 79, 63
1, 485477, Note_off_c, 0, 81, 61
1, 485479, Note_off_c, 0, 79, 60
1, 485486, Note_on_c, 0, 80, 79
1, 485489, Note_on_c, 0, 55, 87
1, 485490, Note_on_c, 0, 60, 96
1, 485491, Note_on_c, 0, 52, 88
1, 485501, Note_off_c, 0, 80, 66
1, 485528, Note_off_c, 0, 52, 63
1, 485533, Note_on_c, 0, 79, 67
1, 485533, Note_off_c, 0, 60, 68
1, 485536, Note_off_c, 0, 55, 63
1, 485554, Note_on_c, 0, 80, 50
1, 485580, Note_off_c, 0, 80, 60
1, 485606, Note_on_c, 0, 76, 76
1, 485637, Note_off_c, 0, 79, 65
1, 485677, Note_off_c, 0, 76, 63
1, 485687, Note_on_c, 0, 64, 96
1, 485688, Note_on_c, 0, 60, 99
1, 485689, Note_on_c, 0, 55, 88
1, 485693, Note_on_c, 0, 71, 77
1, 485712, Control_c, 0, 67, 102
1, 485719, Note_off_c, 0, 64, 68
1, 485727, Control_c, 0, 67, 127
1, 485732, Note_off_c, 0, 71, 64
1, 485735, Note_off_c, 0, 60, 67
1, 485738, Note_off_c, 0, 55, 64
1, 485749, Note_on_c, 0, 83, 91
1, 485771, Control_c, 0, 67, 118
1, 485787, Control_c, 0, 67, 116
1, 485816, Note_on_c, 0, 81, 86
1, 485817, Control_c, 0, 67, 119
1, 485828, Note_off_c, 0, 83, 64
1, 485831, Control_c, 0, 67, 116
1, 485846, Control_c, 0, 67, 109
1, 485861, Control_c, 0, 67, 94
1, 485866, Note_on_c, 0, 80, 81
1, 485876, Control_c, 0, 67, 67
1, 485891, Control_c, 0, 67, 47
1, 485894, Note_off_c, 0, 81, 62
1, 485907, Control_c, 0, 67, 38
1, 485922, Control_c, 0, 67, 35
1, 485931, Note_on_c, 0, 79, 80
1, 485934, Note_off_c, 0, 80, 64
1, 485936, Control_c, 0, 67, 22
1, 485951, Control_c, 0, 67, 0
1, 485990, Note_off_c, 0, 79, 64
1, 486007, Note_on_c, 0, 76, 72
1, 486029, Note_off_c, 0, 76, 70
1, 486073, Note_on_c, 0, 71, 84
1, 486077, Note_on_c, 0, 33, 89
1, 486078, Note_on_c, 0, 28, 83
1, 486107, Control_c, 0, 67, 29
1, 486110, Note_off_c, 0, 28, 66
1, 486115, Note_off_c, 0, 33, 63
1, 486122, Control_c, 0, 67, 41
1, 486136, Control_c, 0, 67, 30
1, 486144, Note_off_c, 0, 71, 66
1, 486148, Note_on_c, 0, 69, 81
1, 486151, Control_c, 0, 67, 19
1, 486166, Control_c, 0, 67, 0
1, 486191, Note_on_c, 0, 68, 83
1, 486193, Note_off_c, 0, 69, 63
1, 486221, Note_off_c, 0, 68, 65
1, 486270, Note_on_c, 0, 67, 79
1, 486347, Note_on_c, 0, 64, 84
1, 486358, Note_off_c, 0, 67, 63
1, 486400, Note_off_c, 0, 64, 64
1, 486409, Note_on_c, 0, 60, 66
1, 486468, Note_on_c, 0, 59, 76
1, 486481, Note_off_c, 0, 60, 42
1, 486520, Note_on_c, 0, 57, 82
1, 486548, Note_off_c, 0, 59, 63
1, 486578, Note_on_c, 0, 56, 95
1, 486588, Note_off_c, 0, 57, 64
1, 486618, Note_off_c, 0, 56, 65
1, 486653, Note_on_c, 0, 55, 87
1, 486693, Note_on_c, 0, 52, 82
1, 486722, Note_off_c, 0, 55, 63
1, 486773, Note_on_c, 0, 48, 84
1, 486799, Note_off_c, 0, 52, 61
1, 486820, Note_off_c, 0, 48, 68
1, 486839, Note_on_c, 0, 47, 87
1, 486895, Note_on_c, 0, 45, 85
1, 486904, Note_off_c, 0, 47, 59
1, 486952, Note_on_c, 0, 44, 90
1, 486955, Note_off_c, 0, 45, 62
1, 486981, Note_off_c, 0, 44, 69
1, 487028, Note_on_c, 0, 43, 84
1, 487104, Note_on_c, 0, 40, 88
1, 487124, Note_off_c, 0, 43, 62
1, 487182, Note_on_c, 0, 36, 92
1, 487205, Note_off_c, 0, 40, 55
1, 487299, Control_c, 0, 67, 24
1, 487327, Note_on_c, 0, 33, 102
1, 487329, Control_c, 0, 64, 98
1, 487330, Note_on_c, 0, 21, 89
1, 487337, Note_on_c, 0, 23, 88
1, 487344, Control_c, 0, 64, 39
1, 487344, Control_c, 0, 67, 28
1, 487358, Control_c, 0, 64, 0
1, 487369, Note_off_c, 0, 36, 62
1, 487373, Control_c, 0, 67, 34
1, 487378, Note_off_c, 0, 23, 60
1, 487388, Control_c, 0, 67, 39
1, 487402, Control_c, 0, 67, 45
1, 487417, Control_c, 0, 67, 50
1, 487432, Control_c, 0, 67, 53
1, 487447, Control_c, 0, 64, 62
1, 487447, Control_c, 0, 67, 56
1, 487462, Control_c, 0, 64, 63
1, 487462, Control_c, 0, 67, 61
1, 487484, Control_c, 0, 64, 60
1, 487484, Control_c, 0, 67, 66
1, 487499, Control_c, 0, 67, 73
1, 487515, Control_c, 0, 64, 68
1, 487515, Control_c, 0, 67, 78
1, 487530, Control_c, 0, 64, 92
1, 487530, Control_c, 0, 67, 79
1, 487530, Note_off_c, 0, 21, 64
1, 487545, Control_c, 0, 64, 127
1, 487589, Control_c, 0, 67, 80
1, 487604, Control_c, 0, 67, 81
1, 487611, Note_off_c, 0, 33, 63
1, 487619, Control_c, 0, 67, 81
1, 487648, Control_c, 0, 67, 81
1, 487745, Note_on_c, 0, 40, 79
1, 487751, Control_c, 0, 67, 79
1, 487766, Control_c, 0, 67, 79
1, 487840, Control_c, 0, 67, 78
1, 487855, Control_c, 0, 67, 78
1, 487870, Control_c, 0, 67, 77
1, 487891, Note_on_c, 0, 45, 77
1, 487940, Note_off_c, 0, 40, 59
1, 487974, Control_c, 0, 67, 77
1, 487983, Note_off_c, 0, 45, 63
1, 487991, Note_on_c, 0, 48, 85
1, 488049, Note_off_c, 0, 48, 60
1, 488085, Note_on_c, 0, 51, 89
1, 488162, Note_off_c, 0, 51, 58
1, 488178, Note_on_c, 0, 52, 84
1, 488231, Note_off_c, 0, 52, 63
1, 488249, Control_c, 0, 67, 76
1, 488282, Note_on_c, 0, 53, 91
1, 488299, Note_on_c, 0, 60, 83
1, 488338, Control_c, 0, 67, 77
1, 488346, Note_on_c, 0, 63, 55
1, 488376, Note_off_c, 0, 60, 61
1, 488391, Note_on_c, 0, 68, 73
1, 488427, Control_c, 0, 67, 78
1, 488430, Note_off_c, 0, 63, 64
1, 488433, Note_on_c, 0, 54, 81
1, 488445, Note_off_c, 0, 53, 59
1, 488475, Note_on_c, 0, 71, 64
1, 488478, Note_off_c, 0, 54, 64
1, 488484, Note_off_c, 0, 68, 65
1, 488487, Control_c, 0, 67, 77
1, 488502, Note_off_c, 0, 71, 67
1, 488502, Control_c, 0, 67, 77
1, 488547, Note_on_c, 0, 56, 96
1, 488559, Note_on_c, 0, 64, 63
1, 488582, Note_on_c, 0, 65, 55
1, 488584, Note_on_c, 0, 70, 61
1, 488591, Note_off_c, 0, 64, 48
1, 488606, Note_off_c, 0, 65, 61
1, 488618, Note_on_c, 0, 69, 55
1, 488630, Note_off_c, 0, 70, 0
1, 488630, Note_on_c, 0, 70, 31
1, 488631, Note_on_c, 0, 71, 64
1, 488650, Control_c, 0, 67, 77
1, 488654, Note_on_c, 0, 57, 88
1, 488655, Note_off_c, 0, 56, 62
1, 488664, Control_c, 0, 67, 78
1, 488679, Control_c, 0, 67, 77
1, 488687, Note_off_c, 0, 57, 64
1, 488692, Note_off_c, 0, 69, 62
1, 488702, Note_on_c, 0, 75, 80
1, 488711, Note_off_c, 0, 71, 63
1, 488739, Note_off_c, 0, 70, 36
1, 488740, Note_on_c, 0, 73, 16
1, 488751, Note_on_c, 0, 59, 93
1, 488757, Note_off_c, 0, 75, 61
1, 488758, Note_on_c, 0, 68, 63
1, 488768, Control_c, 0, 67, 77
1, 488779, Note_off_c, 0, 68, 62
1, 488782, Control_c, 0, 67, 76
1, 488784, Note_off_c, 0, 73, 52
1, 488787, Note_on_c, 0, 66, 11
1, 488787, Note_off_c, 0, 66, 127
1, 488796, Note_on_c, 0, 67, 38
1, 488797, Control_c, 0, 67, 75
1, 488812, Note_on_c, 0, 71, 78
1, 488825, Note_off_c, 0, 67, 58
1, 488847, Note_on_c, 0, 75, 74
1, 488854, Note_on_c, 0, 60, 88
1, 488857, Poly_aftertouch_c, 0, 69, 127
1, 488857, Control_c, 0, 67, 75
1, 488881, Note_off_c, 0, 71, 63
1, 488891, Poly_aftertouch_c, 0, 69, 0
1, 488901, Control_c, 0, 67, 74
1, 488903, Note_off_c, 0, 59, 61
1, 488908, Note_off_c, 0, 60, 66
1, 488913, Note_on_c, 0, 77, 66
1, 488916, Control_c, 0, 67, 74
1, 488930, Note_on_c, 0, 79, 45
1, 488937, Note_off_c, 0, 75, 62
1, 488961, Control_c, 0, 67, 75
1, 488961, Note_off_c, 0, 79, 34
1, 488975, Note_off_c, 0, 77, 65
1, 488981, Note_on_c, 0, 69, 89
1, 488993, Note_on_c, 0, 63, 100
1, 488997, Control_c, 0, 67, 75
1, 489012, Control_c, 0, 67, 75
1, 489021, Note_on_c, 0, 72, 54
1, 489042, Note_off_c, 0, 69, 57
1, 489051, Note_on_c, 0, 75, 84
1, 489056, Control_c, 0, 67, 77
1, 489071, Control_c, 0, 67, 78
1, 489102, Control_c, 0, 67, 78
1, 489112, Note_off_c, 0, 72, 61
1, 489113, Note_on_c, 0, 64, 87
1, 489114, Note_off_c, 0, 63, 66
1, 489117, Control_c, 0, 67, 77
1, 489132, Control_c, 0, 67, 77
1, 489140, Note_on_c, 0, 80, 71
1, 489143, Note_off_c, 0, 75, 64
1, 489147, Note_on_c, 0, 77, 10
1, 489150, Note_off_c, 0, 64, 66
1, 489161, Control_c, 0, 67, 78
1, 489166, Note_on_c, 0, 81, 57
1, 489174, Poly_aftertouch_c, 0, 78, 127
1, 489185, Note_off_c, 0, 80, 63
1, 489189, Note_off_c, 0, 81, 59
1, 489191, Control_c, 0, 67, 77
1, 489199, Note_off_c, 0, 77, 54
1, 489205, Control_c, 0, 67, 76
1, 489210, Note_on_c, 0, 72, 90
1, 489217, Poly_aftertouch_c, 0, 78, 0
1, 489220, Note_on_c, 0, 65, 98
1, 489220, Control_c, 0, 67, 75
1, 489235, Control_c, 0, 67, 74
1, 489250, Control_c, 0, 64, 102
1, 489250, Control_c, 0, 67, 75
1, 489265, Control_c, 0, 64, 93
1, 489265, Control_c, 0, 67, 78
1, 489266, Note_off_c, 0, 72, 63
1, 489277, Note_on_c, 0, 75, 74
1, 489280, Control_c, 0, 64, 94
1, 489280, Control_c, 0, 67, 79
1, 489295, Control_c, 0, 64, 101
1, 489307, Note_on_c, 0, 80, 76
1, 489310, Control_c, 0, 64, 127
1, 489310, Control_c, 0, 67, 77
1, 489322, Note_on_c, 0, 66, 82
1, 489325, Control_c, 0, 67, 76
1, 489334, Note_off_c, 0, 75, 65
1, 489341, Note_off_c, 0, 65, 63
1, 489354, Control_c, 0, 67, 78
1, 489369, Control_c, 0, 67, 79
1, 489369, Note_on_c, 0, 83, 73
1, 489376, Note_off_c, 0, 80, 63
1, 489384, Control_c, 0, 67, 80
1, 489398, Note_off_c, 0, 66, 65
1, 489399, Control_c, 0, 67, 79
1, 489402, Note_off_c, 0, 83, 62
1, 489404, Note_on_c, 0, 67, 82
1, 489413, Control_c, 0, 67, 78
1, 489428, Control_c, 0, 67, 77
1, 489430, Note_on_c, 0, 75, 89
1, 489458, Control_c, 0, 67, 79
1, 489473, Control_c, 0, 67, 80
1, 489485, Note_on_c, 0, 68, 89
1, 489487, Control_c, 0, 67, 80
1, 489488, Note_off_c, 0, 67, 60
1, 489490, Note_off_c, 0, 75, 62
1, 489496, Note_on_c, 0, 81, 76
1, 489517, Control_c, 0, 67, 79
1, 489520, Note_on_c, 0, 83, 77
1, 489521, Note_on_c, 0, 82, 57
1, 489531, Control_c, 0, 67, 78
1, 489557, Note_off_c, 0, 68, 61
1, 489561, Control_c, 0, 67, 81
1, 489569, Note_on_c, 0, 69, 81
1, 489576, Control_c, 0, 67, 82
1, 489587, Note_off_c, 0, 82, 58
1, 489587, Note_off_c, 0, 81, 62
1, 489588, Note_on_c, 0, 87, 85
1, 489592, Note_on_c, 0, 85, 62
1, 489604, Note_off_c, 0, 83, 64
1, 489605, Control_c, 0, 67, 82
1, 489618, Note_off_c, 0, 85, 67
1, 489625, Note_off_c, 0, 69, 62
1, 489635, Control_c, 0, 67, 81
1, 489638, Note_on_c, 0, 80, 77
1, 489644, Note_off_c, 0, 87, 63
1, 489647, Note_on_c, 0, 70, 89
1, 489665, Control_c, 0, 67, 82
1, 489679, Control_c, 0, 67, 83
1, 489686, Note_off_c, 0, 80, 64
1, 489692, Note_off_c, 0, 70, 66
1, 489694, Control_c, 0, 67, 82
1, 489708, Note_on_c, 0, 83, 81
1, 489709, Control_c, 0, 67, 81
1, 489730, Note_on_c, 0, 71, 82
1, 489731, Control_c, 0, 67, 80
1, 489737, Note_on_c, 0, 87, 85
1, 489746, Control_c, 0, 67, 79
1, 489772, Note_off_c, 0, 83, 65
1, 489776, Control_c, 0, 67, 80
1, 489779, Note_off_c, 0, 71, 64
1, 489791, Control_c, 0, 67, 80
1, 489803, Note_on_c, 0, 72, 79
1, 489803, Note_on_c, 0, 89, 86
1, 489835, Control_c, 0, 67, 80
1, 489836, Note_off_c, 0, 87, 63
1, 489850, Control_c, 0, 67, 79
1, 489863, Note_off_c, 0, 89, 64
1, 489871, Note_on_c, 0, 81, 91
1, 489881, Note_on_c, 0, 73, 87
1, 489885, Note_off_c, 0, 72, 65
1, 489894, Control_c, 0, 67, 80
1, 489910, Control_c, 0, 67, 80
1, 489920, Note_on_c, 0, 84, 71
1, 489932, Note_off_c, 0, 81, 61
1, 489940, Note_on_c, 0, 87, 88
1, 489952, Note_off_c, 0, 73, 65
1, 489954, Control_c, 0, 67, 80
1, 489962, Note_on_c, 0, 74, 83
1, 489992, Note_off_c, 0, 84, 64
1, 489999, Note_on_c, 0, 89, 61
1, 489999, Control_c, 0, 67, 81
1, 490023, Note_off_c, 0, 74, 64
1, 490027, Note_on_c, 0, 92, 84
1, 490032, Note_off_c, 0, 87, 65
1, 490040, Note_on_c, 0, 75, 82
1, 490043, Control_c, 0, 67, 79
1, 490058, Note_off_c, 0, 89, 40
1, 490058, Control_c, 0, 67, 79
1, 490076, Note_off_c, 0, 92, 65
1, 490088, Note_on_c, 0, 84, 93
1, 490093, Note_off_c, 0, 75, 64
1, 490110, Note_on_c, 0, 76, 77
1, 490133, Control_c, 0, 67, 78
1, 490138, Note_off_c, 0, 84, 61
1, 490140, Note_on_c, 0, 87, 85
1, 490147, Control_c, 0, 67, 76
1, 490162, Control_c, 0, 67, 76
1, 490173, Note_on_c, 0, 77, 74
1, 490192, Control_c, 0, 67, 77
1, 490194, Note_on_c, 0, 91, 83
1, 490196, Note_off_c, 0, 87, 66
1, 490207, Control_c, 0, 67, 78
1, 490222, Note_on_c, 0, 92, 55
1, 490222, Control_c, 0, 67, 78
1, 490225, Note_on_c, 0, 95, 89
1, 490234, Poly_aftertouch_c, 0, 90, 127
1, 490236, Note_off_c, 0, 91, 65
1, 490245, Note_off_c, 0, 92, 59
1, 490255, Note_on_c, 0, 78, 92
1, 490267, Note_off_c, 0, 76, 62
1, 490268, Note_off_c, 0, 77, 61
1, 490270, Note_off_c, 0, 95, 65
1, 490271, Poly_aftertouch_c, 0, 90, 0
1, 490296, Control_c, 0, 67, 79
1, 490299, Note_on_c, 0, 87, 91
1, 490323, Note_off_c, 0, 78, 66
1, 490332, Note_on_c, 0, 92, 69
1, 490333, Note_on_c, 0, 79, 81
1, 490363, Note_on_c, 0, 93, 76
1, 490373, Note_off_c, 0, 87, 62
1, 490381, Note_on_c, 0, 94, 64
1, 490384, Note_off_c, 0, 92, 63
1, 490392, Note_on_c, 0, 95, 79
1, 490404, Note_off_c, 0, 79, 64
1, 490404, Note_off_c, 0, 94, 39
1, 490412, Note_on_c, 0, 80, 96
1, 490427, Note_on_c, 0, 96, 51
1, 490451, Note_off_c, 0, 96, 58
1, 490454, Note_on_c, 0, 99, 89
1, 490458, Control_c, 0, 67, 78
1, 490475, Note_off_c, 0, 93, 61
1, 490476, Note_off_c, 0, 95, 67
1, 490487, Note_off_c, 0, 80, 62
1, 490496, Control_c, 0, 67, 77
1, 490498, Note_on_c, 0, 81, 91
1, 490502, Note_on_c, 0, 98, 15
1, 490510, Control_c, 0, 67, 78
1, 490512, Note_off_c, 0, 99, 64
1, 490545, Note_off_c, 0, 98, 29
1, 490551, Note_on_c, 0, 100, 93
1, 490564, Note_off_c, 0, 81, 50
1, 490567, Note_on_c, 0, 82, 92
1, 490569, Control_c, 0, 67, 77
1, 490602, Note_off_c, 0, 100, 69
1, 490612, Note_off_c, 0, 82, 66
1, 490614, Control_c, 0, 67, 77
1, 490628, Control_c, 0, 67, 78
1, 490641, Note_on_c, 0, 83, 84
1, 490658, Control_c, 0, 67, 77
1, 490661, Note_on_c, 0, 101, 49
1, 490672, Control_c, 0, 67, 76
1, 490687, Control_c, 0, 67, 76
1, 490688, Note_off_c, 0, 101, 36
1, 490708, Note_on_c, 0, 84, 86
1, 490709, Note_off_c, 0, 83, 63
1, 490719, Control_c, 0, 67, 77
1, 490763, Control_c, 0, 67, 76
1, 490775, Note_off_c, 0, 84, 61
1, 490776, Note_on_c, 0, 85, 93
1, 490777, Control_c, 0, 67, 76
1, 490840, Note_off_c, 0, 85, 67
1, 490844, Note_on_c, 0, 86, 91
1, 490866, Control_c, 0, 67, 75
1, 490881, Control_c, 0, 67, 74
1, 490922, Note_on_c, 0, 87, 98
1, 490938, Note_off_c, 0, 86, 63
1, 490940, Control_c, 0, 67, 73
1, 490955, Control_c, 0, 67, 72
1, 490970, Control_c, 0, 67, 68
1, 490985, Control_c, 0, 67, 60
1, 490997, Note_on_c, 0, 88, 106
1, 491000, Control_c, 0, 67, 47
1, 491015, Control_c, 0, 67, 26
1, 491015, Note_off_c, 0, 87, 65
1, 491029, Note_off_c, 0, 88, 71
1, 491030, Control_c, 0, 67, 0
1, 491133, Control_c, 0, 67, 25
1, 491192, Control_c, 0, 67, 30
1, 491207, Control_c, 0, 67, 38
1, 491230, Control_c, 0, 67, 48
1, 491244, Control_c, 0, 67, 53
1, 491259, Control_c, 0, 67, 54
1, 491289, Control_c, 0, 67, 55
1, 491303, Control_c, 0, 67, 59
1, 491318, Control_c, 0, 67, 63
1, 491333, Control_c, 0, 67, 64
1, 491348, Control_c, 0, 67, 64
1, 491363, Control_c, 0, 67, 65
1, 491392, Control_c, 0, 67, 66
1, 491407, Control_c, 0, 67, 68
1, 491422, Control_c, 0, 67, 71
1, 491481, Control_c, 0, 67, 71
1, 491497, Control_c, 0, 67, 72
1, 491556, Control_c, 0, 64, 120
1, 491556, Control_c, 0, 67, 73
1, 491571, Control_c, 0, 64, 115
1, 491571, Control_c, 0, 67, 74
1, 491586, Control_c, 0, 64, 113
1, 491586, Control_c, 0, 67, 81
1, 491600, Control_c, 0, 67, 85
1, 491615, Control_c, 0, 64, 111
1, 491615, Control_c, 0, 67, 88
1, 491630, Control_c, 0, 64, 109
1, 491630, Control_c, 0, 67, 92
1, 491645, Control_c, 0, 64, 106
1, 491645, Control_c, 0, 67, 98
1, 491660, Control_c, 0, 64, 104
1, 491660, Control_c, 0, 67, 104
1, 491674, Control_c, 0, 64, 102
1, 491674, Control_c, 0, 67, 115
1, 491689, Control_c, 0, 64, 100
1, 491689, Control_c, 0, 67, 127
1, 491704, Control_c, 0, 64, 96
1, 491718, Control_c, 0, 64, 92
1, 491733, Control_c, 0, 64, 88
1, 491748, Control_c, 0, 64, 86
1, 491763, Control_c, 0, 64, 82
1, 491778, Control_c, 0, 64, 79
1, 491793, Control_c, 0, 64, 76
1, 491808, Control_c, 0, 64, 72
1, 491823, Control_c, 0, 64, 69
1, 491838, Control_c, 0, 64, 65
1, 491853, Control_c, 0, 64, 61
1, 491867, Control_c, 0, 64, 58
1, 491882, Control_c, 0, 64, 56
1, 491956, Control_c, 0, 64, 55
1, 491978, Control_c, 0, 64, 54
1, 491993, Control_c, 0, 64, 53
1, 492008, Control_c, 0, 64, 51
1, 492022, Control_c, 0, 64, 48
1, 492037, Control_c, 0, 64, 45
1, 492052, Control_c, 0, 64, 43
1, 492097, Control_c, 0, 64, 42
1, 492112, Control_c, 0, 64, 38
1, 492126, Control_c, 0, 64, 0
1, 492556, Control_c, 0, 64, 33
1, 492571, Control_c, 0, 64, 34
1, 492601, Control_c, 0, 64, 34
1, 492615, Control_c, 0, 64, 35
1, 492630, Control_c, 0, 64, 36
1, 492645, Control_c, 0, 64, 36
1, 492660, Control_c, 0, 64, 37
1, 492675, Control_c, 0, 64, 38
1, 492704, Control_c, 0, 64, 39
1, 492726, Control_c, 0, 64, 40
1, 492741, Control_c, 0, 64, 41
1, 492756, Control_c, 0, 64, 42
1, 492771, Control_c, 0, 64, 43
1, 492786, Control_c, 0, 64, 44
1, 492815, Control_c, 0, 64, 44
1, 492830, Control_c, 0, 64, 45
1, 492845, Control_c, 0, 64, 46
1, 492860, Control_c, 0, 64, 47
1, 492874, Control_c, 0, 64, 48
1, 492889, Control_c, 0, 64, 48
1, 492904, Control_c, 0, 64, 49
1, 492934, Control_c, 0, 64, 49
1, 492948, Control_c, 0, 64, 50
1, 492963, Control_c, 0, 64, 51
1, 492978, Control_c, 0, 64, 51
1, 492993, Control_c, 0, 64, 52
1, 493008, Control_c, 0, 64, 52
1, 493022, Control_c, 0, 64, 53
1, 493037, Control_c, 0, 64, 54
1, 493052, Control_c, 0, 64, 55
1, 493067, Control_c, 0, 64, 57
1, 493081, Control_c, 0, 64, 58
1, 493098, Control_c, 0, 64, 59
1, 493127, Control_c, 0, 64, 59
1, 493157, Control_c, 0, 64, 60
1, 493171, Control_c, 0, 64, 60
1, 493186, Control_c, 0, 64, 61
1, 493216, Control_c, 0, 64, 62
1, 493260, Control_c, 0, 64, 62
1, 493275, Control_c, 0, 64, 63
1, 493304, Control_c, 0, 64, 63
1, 493349, Control_c, 0, 64, 64
1, 493364, Control_c, 0, 64, 64
1, 493379, Control_c, 0, 64, 65
1, 493394, Control_c, 0, 64, 65
1, 493409, Control_c, 0, 64, 66
1, 493423, Control_c, 0, 64, 67
1, 493438, Control_c, 0, 64, 67
1, 493453, Control_c, 0, 64, 68
1, 493475, Control_c, 0, 64, 68
1, 493504, Control_c, 0, 64, 69
1, 493534, Control_c, 0, 64, 69
1, 493549, Control_c, 0, 64, 70
1, 493578, Control_c, 0, 64, 70
1, 493608, Control_c, 0, 64, 71
1, 493668, Control_c, 0, 64, 71
1, 493757, Control_c, 0, 64, 72
1, 494157, Control_c, 0, 64, 72
1, 494201, Control_c, 0, 64, 73
1, 494224, Control_c, 0, 64, 73
1, 494254, Control_c, 0, 64, 74
1, 494268, Control_c, 0, 64, 74
1, 494298, Control_c, 0, 64, 75
1, 494313, Control_c, 0, 64, 75
1, 494342, Control_c, 0, 64, 76
1, 494372, Control_c, 0, 64, 76
1, 494416, Control_c, 0, 64, 77
1, 494461, Control_c, 0, 64, 77
1, 494891, Control_c, 0, 64, 78
1, 495121, Control_c, 0, 64, 78
1, 495328, Control_c, 0, 64, 79
1, 495403, Control_c, 0, 64, 79
1, 495461, Control_c, 0, 64, 80
1, 495492, Control_c, 0, 64, 80
1, 495522, Control_c, 0, 64, 81
1, 495552, Control_c, 0, 64, 81
1, 495581, Control_c, 0, 64, 82
1, 495640, Control_c, 0, 64, 82
1, 495684, Control_c, 0, 64, 83
1, 495699, Control_c, 0, 64, 83
1, 495737, Control_c, 0, 64, 84
1, 495752, Control_c, 0, 64, 84
1, 495771, Note_on_c, 0, 52, 41
1, 495781, Control_c, 0, 64, 85
1, 495796, Control_c, 0, 64, 85
1, 495811, Control_c, 0, 64, 86
1, 495826, Control_c, 0, 64, 87
1, 495840, Control_c, 0, 64, 88
1, 495855, Control_c, 0, 64, 90
1, 495870, Control_c, 0, 64, 91
1, 495885, Control_c, 0, 64, 93
1, 495899, Control_c, 0, 64, 96
1, 495914, Control_c, 0, 64, 99
1, 495929, Control_c, 0, 64, 102
1, 495944, Control_c, 0, 64, 105
1, 495959, Control_c, 0, 64, 107
1, 495973, Control_c, 0, 64, 109
1, 495988, Control_c, 0, 64, 111
1, 496018, Control_c, 0, 64, 113
1, 496171, Note_on_c, 0, 33, 41
1, 496240, Control_c, 0, 64, 105
1, 496255, Control_c, 0, 64, 94
1, 496263, Note_on_c, 0, 57, 59
1, 496270, Control_c, 0, 64, 86
1, 496286, Control_c, 0, 64, 81
1, 496301, Control_c, 0, 64, 79
1, 496315, Control_c, 0, 64, 78
1, 496328, Note_off_c, 0, 52, 37
1, 496330, Control_c, 0, 64, 79
1, 496345, Control_c, 0, 64, 80
1, 496360, Control_c, 0, 64, 84
1, 496375, Control_c, 0, 64, 89
1, 496389, Control_c, 0, 64, 97
1, 496404, Control_c, 0, 64, 107
1, 496419, Control_c, 0, 64, 127
1, 496706, Note_on_c, 0, 64, 40
1, 496735, Note_on_c, 0, 48, 30
1, 496823, Note_off_c, 0, 57, 36
1, 496849, Note_off_c, 0, 64, 57
1, 497048, Note_on_c, 0, 40, 42
1, 497147, Note_on_c, 0, 59, 54
1, 497158, Note_on_c, 0, 71, 58
1, 497205, Note_off_c, 0, 48, 32
1, 497224, Note_off_c, 0, 33, 53
1, 497249, Note_off_c, 0, 40, 58
1, 497510, Note_on_c, 0, 60, 40
1, 497522, Note_on_c, 0, 52, 36
1, 497554, Note_off_c, 0, 59, 34
1, 497754, Note_off_c, 0, 71, 14
1, 497826, Note_on_c, 0, 64, 46
1, 497846, Note_on_c, 0, 45, 32
1, 497862, Note_off_c, 0, 60, 43
1, 497904, Note_off_c, 0, 64, 56
1, 497972, Note_off_c, 0, 52, 34
1, 498120, Note_on_c, 0, 52, 68
1, 498142, Note_off_c, 0, 45, 40
1, 498153, Note_on_c, 0, 40, 24
1, 498193, Note_off_c, 0, 40, 41
1, 498442, Note_on_c, 0, 36, 55
1, 498501, Control_c, 0, 64, 112
1, 498506, Note_on_c, 0, 55, 76
1, 498517, Control_c, 0, 64, 78
1, 498530, Note_off_c, 0, 52, 59
1, 498532, Control_c, 0, 64, 61
1, 498547, Control_c, 0, 64, 36
1, 498561, Control_c, 0, 64, 0
1, 498591, Control_c, 0, 64, 38
1, 498605, Control_c, 0, 64, 66
1, 498620, Control_c, 0, 64, 91
1, 498635, Control_c, 0, 64, 127
1, 498884, Note_on_c, 0, 64, 39
1, 498885, Note_on_c, 0, 52, 38
1, 498956, Note_off_c, 0, 55, 60
1, 498971, Note_off_c, 0, 64, 60
1, 499250, Note_on_c, 0, 43, 38
1, 499293, Note_on_c, 0, 59, 71
1, 499331, Note_off_c, 0, 52, 36
1, 499387, Note_off_c, 0, 36, 56
1, 499391, Note_off_c, 0, 43, 61
1, 499400, Poly_aftertouch_c, 0, 71, 127
1, 499683, Note_on_c, 0, 60, 49
1, 499689, Note_on_c, 0, 55, 39
1, 499739, Note_off_c, 0, 59, 37
1, 499932, Note_off_c, 0, 60, 35
1, 500141, Note_on_c, 0, 48, 32
1, 500147, Note_on_c, 0, 64, 40
1, 500162, Note_off_c, 0, 55, 36
1, 500162, Poly_aftertouch_c, 0, 71, 0
1, 500253, Note_off_c, 0, 64, 57
1, 500751, Note_on_c, 0, 52, 54
1, 500800, Note_on_c, 0, 43, 11
1, 500813, Note_off_c, 0, 48, 33
1, 500905, Note_off_c, 0, 43, 36
1, 501522, Note_on_c, 0, 28, 33
1, 501527, Control_c, 0, 64, 124
1, 501537, Note_on_c, 0, 56, 49
1, 501542, Control_c, 0, 64, 89
1, 501556, Control_c, 0, 64, 72
1, 501571, Control_c, 0, 64, 59
1, 501586, Control_c, 0, 64, 38
1, 501601, Control_c, 0, 64, 0
1, 501636, Note_off_c, 0, 52, 31
1, 501645, Control_c, 0, 64, 39
1, 501660, Control_c, 0, 64, 63
1, 501675, Control_c, 0, 64, 80
1, 501690, Control_c, 0, 64, 127
1, 501819, Note_off_c, 0, 28, 37
1, 502196, Note_on_c, 0, 64, 23
1, 502214, Note_off_c, 0, 56, 40
1, 502222, Note_on_c, 0, 47, 25
1, 502321, Note_off_c, 0, 64, 37
1, 502550, Note_on_c, 0, 40, 39
1, 502652, Note_on_c, 0, 71, 65
1, 502687, Note_on_c, 0, 59, 28
1, 502688, Note_off_c, 0, 40, 56
1, 502720, Note_off_c, 0, 47, 41
1, 502944, Note_on_c, 0, 56, 40
1, 502970, Note_on_c, 0, 61, 38
1, 502998, Note_off_c, 0, 59, 38
1, 503059, Note_off_c, 0, 56, 54
1, 503152, Note_off_c, 0, 61, 41
1, 503240, Note_on_c, 0, 64, 42
1, 503280, Note_off_c, 0, 64, 53
1, 503284, Note_on_c, 0, 47, 14
1, 503389, Note_off_c, 0, 71, 40
1, 503435, Note_off_c, 0, 47, 41
1, 503505, Note_on_c, 0, 64, 44
1, 503521, Note_on_c, 0, 59, 30
1, 503657, Note_off_c, 0, 59, 50
1, 503731, Note_off_c, 0, 64, 35
1, 503761, Note_on_c, 0, 71, 41
1, 503781, Note_on_c, 0, 61, 22
1, 503988, Note_off_c, 0, 61, 40
1, 504039, Note_on_c, 0, 76, 38
1, 504050, Note_on_c, 0, 64, 28
1, 504083, Note_off_c, 0, 71, 41
1, 504093, Note_off_c, 0, 64, 54
1, 504096, Note_off_c, 0, 76, 49
1, 504305, Note_on_c, 0, 71, 45
1, 504573, Note_off_c, 0, 71, 40
1, 504614, Note_on_c, 0, 73, 44
1, 504711, Note_off_c, 0, 73, 52
1, 504981, Note_on_c, 0, 71, 41
1, 504986, Note_on_c, 0, 76, 24
1, 505142, Note_off_c, 0, 76, 36
1, 505496, Note_on_c, 0, 73, 40
1, 505508, Note_off_c, 0, 71, 42
1, 505629, Note_off_c, 0, 73, 53
1, 506307, Note_on_c, 0, 71, 45
1, 506310, Note_on_c, 0, 80, 70
1, 506322, Note_on_c, 0, 68, 37
1, 506322, Note_on_c, 0, 76, 53
1, 506322, Note_on_c, 0, 64, 41
1, 506325, Control_c, 0, 64, 94
1, 506340, Control_c, 0, 64, 79
1, 506354, Control_c, 0, 64, 70
1, 506369, Control_c, 0, 64, 64
1, 506384, Control_c, 0, 64, 60
1, 506399, Control_c, 0, 64, 62
1, 506414, Control_c, 0, 64, 65
1, 506428, Control_c, 0, 64, 70
1, 506443, Control_c, 0, 64, 76
1, 506458, Control_c, 0, 64, 82
1, 506473, Control_c, 0, 64, 86
1, 506481, Note_off_c, 0, 64, 62
1, 506488, Control_c, 0, 64, 90
1, 506502, Control_c, 0, 64, 95
1, 506517, Control_c, 0, 64, 103
1, 506518, Note_off_c, 0, 68, 0
1, 506532, Control_c, 0, 64, 113
1, 506546, Control_c, 0, 64, 127
1, 506554, Poly_aftertouch_c, 0, 68, 127
1, 506584, Note_off_c, 0, 76, 54
1, 506599, Poly_aftertouch_c, 0, 68, 0
1, 506954, Note_off_c, 0, 80, 53
1, 506967, Note_on_c, 0, 79, 72
1, 506972, Note_on_c, 0, 63, 44
1, 506998, Note_off_c, 0, 71, 41
1, 507069, Note_off_c, 0, 63, 55
1, 507088, Control_c, 0, 64, 100
1, 507095, Note_on_c, 0, 78, 77
1, 507100, Note_on_c, 0, 66, 57
1, 507101, Note_on_c, 0, 61, 51
1, 507102, Control_c, 0, 64, 77
1, 507104, Note_on_c, 0, 73, 63
1, 507115, Note_off_c, 0, 79, 63
1, 507117, Control_c, 0, 64, 64
1, 507126, Note_on_c, 0, 69, 43
1, 507132, Control_c, 0, 64, 55
1, 507147, Control_c, 0, 64, 55
1, 507162, Control_c, 0, 64, 61
1, 507176, Control_c, 0, 64, 69
1, 507191, Control_c, 0, 64, 80
1, 507206, Control_c, 0, 64, 95
1, 507209, Note_off_c, 0, 66, 58
1, 507217, Note_off_c, 0, 69, 57
1, 507221, Control_c, 0, 64, 114
1, 507236, Control_c, 0, 64, 127
1, 507280, Note_off_c, 0, 73, 54
1, 507301, Note_off_c, 0, 61, 38
1, 507523, Note_on_c, 0, 80, 66
1, 507529, Note_on_c, 0, 64, 42
1, 507532, Note_off_c, 0, 78, 58
1, 507532, Control_c, 0, 64, 104
1, 507536, Note_on_c, 0, 71, 41
1, 507539, Note_on_c, 0, 68, 38
1, 507547, Note_on_c, 0, 76, 43
1, 507547, Control_c, 0, 64, 91
1, 507562, Control_c, 0, 64, 82
1, 507577, Control_c, 0, 64, 71
1, 507592, Control_c, 0, 64, 62
1, 507607, Control_c, 0, 64, 48
1, 507621, Control_c, 0, 64, 0
1, 507792, Control_c, 0, 64, 38
1, 507806, Control_c, 0, 64, 52
1, 507821, Control_c, 0, 64, 62
1, 507836, Control_c, 0, 64, 67
1, 507851, Control_c, 0, 64, 69
1, 507866, Control_c, 0, 64, 70
1, 507881, Control_c, 0, 64, 71
1, 507896, Control_c, 0, 64, 71
1, 507911, Control_c, 0, 64, 73
1, 507925, Control_c, 0, 64, 75
1, 507940, Control_c, 0, 64, 78
1, 507955, Control_c, 0, 64, 82
1, 507970, Control_c, 0, 64, 86
1, 507985, Control_c, 0, 64, 91
1, 507999, Control_c, 0, 64, 96
1, 508014, Control_c, 0, 64, 101
1, 508029, Control_c, 0, 64, 107
1, 508044, Control_c, 0, 64, 115
1, 508059, Control_c, 0, 64, 127
1, 508385, Note_off_c, 0, 68, 28
1, 508403, Note_off_c, 0, 64, 39
1, 508450, Note_off_c, 0, 76, 41
1, 508860, Note_off_c, 0, 80, 57
1, 508885, Note_on_c, 0, 78, 55
1, 508913, Note_on_c, 0, 63, 36
1, 508931, Note_off_c, 0, 71, 40
1, 508960, Note_off_c, 0, 63, 55
1, 509015, Control_c, 0, 64, 103
1, 509023, Note_on_c, 0, 73, 59
1, 509027, Note_on_c, 0, 76, 67
1, 509029, Control_c, 0, 64, 83
1, 509037, Note_on_c, 0, 61, 36
1, 509041, Note_on_c, 0, 64, 39
1, 509044, Control_c, 0, 64, 73
1, 509059, Control_c, 0, 64, 69
1, 509064, Note_on_c, 0, 69, 44
1, 509074, Note_off_c, 0, 78, 35
1, 509075, Control_c, 0, 64, 70
1, 509089, Control_c, 0, 64, 74
1, 509104, Control_c, 0, 64, 80
1, 509119, Control_c, 0, 64, 86
1, 509124, Note_off_c, 0, 69, 58
1, 509134, Control_c, 0, 64, 94
1, 509149, Control_c, 0, 64, 104
1, 509163, Control_c, 0, 64, 127
1, 509196, Note_off_c, 0, 61, 46
1, 509198, Note_off_c, 0, 64, 38
1, 509257, Note_off_c, 0, 73, 42
1, 509261, Note_off_c, 0, 76, 49
1, 509352, Note_on_c, 0, 64, 51
1, 509368, Note_on_c, 0, 71, 61
1, 509389, Note_on_c, 0, 68, 44
1, 509393, Control_c, 0, 64, 105
1, 509408, Control_c, 0, 64, 79
1, 509423, Note_on_c, 0, 80, 71
1, 509423, Control_c, 0, 64, 64
1, 509426, Note_on_c, 0, 76, 53
1, 509438, Control_c, 0, 64, 46
1, 509452, Control_c, 0, 64, 0
1, 509470, Note_off_c, 0, 68, 59
1, 509480, Note_off_c, 0, 64, 60
1, 509482, Control_c, 0, 64, 56
1, 509489, Note_off_c, 0, 71, 58
1, 509496, Control_c, 0, 64, 72
1, 509511, Control_c, 0, 64, 95
1, 509526, Control_c, 0, 64, 127
1, 509536, Note_off_c, 0, 76, 46
1, 509751, Note_off_c, 0, 80, 54
1, 509753, Note_on_c, 0, 63, 55
1, 509762, Note_on_c, 0, 78, 66
1, 509867, Note_on_c, 0, 61, 56
1, 509867, Note_off_c, 0, 63, 52
1, 509869, Note_on_c, 0, 76, 70
1, 509895, Note_off_c, 0, 78, 53
1, 509979, Control_c, 0, 64, 105
1, 509990, Note_on_c, 0, 75, 79
1, 509994, Control_c, 0, 64, 78
1, 509998, Note_on_c, 0, 71, 73
1, 510002, Note_off_c, 0, 61, 53
1, 510005, Note_on_c, 0, 63, 59
1, 510005, Note_off_c, 0, 76, 57
1, 510009, Control_c, 0, 64, 63
1, 510010, Note_on_c, 0, 68, 65
1, 510024, Control_c, 0, 64, 53
1, 510026, Note_on_c, 0, 59, 45
1, 510039, Control_c, 0, 64, 55
1, 510054, Control_c, 0, 64, 62
1, 510067, Note_off_c, 0, 63, 60
1, 510068, Control_c, 0, 64, 74
1, 510083, Control_c, 0, 64, 94
1, 510098, Note_off_c, 0, 59, 61
1, 510098, Control_c, 0, 64, 127
1, 510106, Note_off_c, 0, 68, 62
1, 510117, Note_off_c, 0, 75, 62
1, 510188, Note_off_c, 0, 71, 59
1, 510319, Control_c, 0, 64, 100
1, 510323, Note_on_c, 0, 80, 71
1, 510327, Note_on_c, 0, 71, 55
1, 510331, Note_on_c, 0, 76, 64
1, 510334, Note_on_c, 0, 68, 49
1, 510334, Control_c, 0, 64, 76
1, 510339, Note_on_c, 0, 64, 50
1, 510349, Control_c, 0, 64, 60
1, 510364, Control_c, 0, 64, 0
1, 510424, Control_c, 0, 64, 43
1, 510438, Control_c, 0, 64, 64
1, 510453, Control_c, 0, 64, 79
1, 510457, Note_off_c, 0, 68, 59
1, 510460, Note_off_c, 0, 64, 62
1, 510468, Control_c, 0, 64, 102
1, 510472, Note_off_c, 0, 71, 61
1, 510483, Note_off_c, 0, 76, 61
1, 510483, Control_c, 0, 64, 127
1, 510505, Note_off_c, 0, 80, 62
1, 510903, Note_on_c, 0, 83, 72
1, 510915, Note_on_c, 0, 69, 51
1, 510916, Note_on_c, 0, 78, 62
1, 510920, Note_on_c, 0, 63, 53
1, 510921, Control_c, 0, 64, 104
1, 510921, Note_on_c, 0, 73, 45
1, 510936, Control_c, 0, 64, 80
1, 510950, Control_c, 0, 64, 67
1, 510965, Control_c, 0, 64, 55
1, 510980, Control_c, 0, 64, 46
1, 510995, Control_c, 0, 64, 47
1, 510999, Note_off_c, 0, 73, 51
1, 511010, Control_c, 0, 64, 52
1, 511024, Control_c, 0, 64, 57
1, 511039, Control_c, 0, 64, 60
1, 511057, Note_off_c, 0, 69, 57
1, 511067, Note_off_c, 0, 78, 60
1, 511068, Control_c, 0, 64, 57
1, 511073, Note_on_c, 0, 68, 54
1, 511082, Note_off_c, 0, 63, 59
1, 511083, Control_c, 0, 64, 48
1, 511092, Note_on_c, 0, 80, 66
1, 511098, Control_c, 0, 64, 0
1, 511101, Note_on_c, 0, 76, 60
1, 511103, Note_on_c, 0, 71, 57
1, 511115, Note_off_c, 0, 83, 56
1, 511121, Note_on_c, 0, 64, 41
1, 511233, Note_off_c, 0, 68, 60
1, 511243, Note_off_c, 0, 76, 52
1, 511261, Control_c, 0, 64, 59
1, 511270, Note_off_c, 0, 71, 53
1, 511276, Control_c, 0, 64, 69
1, 511291, Control_c, 0, 64, 76
1, 511306, Note_off_c, 0, 64, 32
1, 511306, Control_c, 0, 64, 81
1, 511321, Control_c, 0, 64, 86
1, 511336, Control_c, 0, 64, 95
1, 511346, Note_off_c, 0, 80, 35
1, 511351, Control_c, 0, 64, 114
1, 511366, Control_c, 0, 64, 127
1, 511588, Note_on_c, 0, 80, 57
1, 511592, Note_on_c, 0, 68, 40
1, 511606, Note_on_c, 0, 64, 31
1, 511610, Note_on_c, 0, 71, 37
1, 511612, Note_on_c, 0, 76, 35
1, 511640, Control_c, 0, 64, 101
1, 511655, Control_c, 0, 64, 83
1, 511670, Control_c, 0, 64, 72
1, 511685, Control_c, 0, 64, 64
1, 511699, Control_c, 0, 64, 54
1, 511714, Control_c, 0, 64, 42
1, 511729, Control_c, 0, 64, 0
1, 511819, Control_c, 0, 64, 36
1, 511834, Control_c, 0, 64, 40
1, 511848, Control_c, 0, 64, 45
1, 511863, Control_c, 0, 64, 52
1, 511878, Control_c, 0, 64, 58
1, 511892, Control_c, 0, 64, 62
1, 511907, Control_c, 0, 64, 65
1, 511922, Control_c, 0, 64, 67
1, 511937, Control_c, 0, 64, 68
1, 511952, Control_c, 0, 64, 69
1, 511966, Control_c, 0, 64, 72
1, 511981, Control_c, 0, 64, 76
1, 511995, Control_c, 0, 64, 80
1, 512010, Control_c, 0, 64, 84
1, 512025, Control_c, 0, 64, 88
1, 512039, Control_c, 0, 64, 94
1, 512054, Control_c, 0, 64, 105
1, 512069, Control_c, 0, 64, 127
1, 512155, Note_off_c, 0, 71, 40
1, 512215, Note_off_c, 0, 64, 39
1, 512279, Note_off_c, 0, 68, 41
1, 512727, Poly_aftertouch_c, 0, 78, 127
1, 512924, Poly_aftertouch_c, 0, 83, 127
1, 513146, Poly_aftertouch_c, 0, 83, 0
1, 513208, Note_on_c, 0, 59, 53
1, 513239, Note_off_c, 0, 76, 39
1, 513378, Poly_aftertouch_c, 0, 78, 0
1, 513483, Note_on_c, 0, 71, 54
1, 513551, Note_on_c, 0, 78, 81
1, 513574, Note_off_c, 0, 80, 50
1, 513825, Note_off_c, 0, 71, 56
1, 513878, Note_on_c, 0, 68, 58
1, 513881, Note_on_c, 0, 66, 52
1, 513932, Control_c, 0, 64, 100
1, 513940, Note_on_c, 0, 80, 82
1, 513947, Control_c, 0, 64, 75
1, 513952, Note_on_c, 0, 75, 65
1, 513956, Note_on_c, 0, 71, 64
1, 513961, Control_c, 0, 64, 63
1, 513976, Control_c, 0, 64, 48
1, 513991, Control_c, 0, 64, 39
1, 514006, Control_c, 0, 64, 46
1, 514021, Control_c, 0, 64, 59
1, 514035, Control_c, 0, 64, 68
1, 514050, Control_c, 0, 64, 80
1, 514065, Control_c, 0, 64, 90
1, 514068, Note_off_c, 0, 78, 0
1, 514076, Note_off_c, 0, 59, 39
1, 514080, Control_c, 0, 64, 96
1, 514094, Control_c, 0, 64, 101
1, 514105, Poly_aftertouch_c, 0, 78, 127
1, 514109, Control_c, 0, 64, 109
1, 514124, Control_c, 0, 64, 127
1, 514233, Poly_aftertouch_c, 0, 78, 0
1, 514731, Note_on_c, 0, 83, 77
1, 514760, Note_off_c, 0, 75, 61
1, 514793, Note_off_c, 0, 80, 59
1, 514829, Note_off_c, 0, 83, 63
1, 514869, Note_off_c, 0, 71, 61
1, 514874, Note_off_c, 0, 68, 61
1, 514961, Note_off_c, 0, 66, 60
1, 515136, Note_on_c, 0, 64, 48
1, 515194, Note_on_c, 0, 68, 56
1, 515256, Note_on_c, 0, 73, 63
1, 515265, Control_c, 0, 64, 102
1, 515280, Control_c, 0, 64, 90
1, 515295, Control_c, 0, 64, 80
1, 515309, Control_c, 0, 64, 70
1, 515324, Control_c, 0, 64, 61
1, 515325, Note_on_c, 0, 76, 81
1, 515339, Control_c, 0, 64, 47
1, 515354, Control_c, 0, 64, 0
1, 515473, Control_c, 0, 64, 39
1, 515488, Control_c, 0, 64, 56
1, 515503, Control_c, 0, 64, 65
1, 515518, Control_c, 0, 64, 71
1, 515533, Control_c, 0, 64, 74
1, 515548, Control_c, 0, 64, 76
1, 515563, Control_c, 0, 64, 77
1, 515578, Control_c, 0, 64, 79
1, 515592, Control_c, 0, 64, 82
1, 515607, Control_c, 0, 64, 87
1, 515622, Control_c, 0, 64, 94
1, 515637, Control_c, 0, 64, 101
1, 515652, Control_c, 0, 64, 110
1, 515666, Control_c, 0, 64, 122
1, 515681, Control_c, 0, 64, 127
1, 515898, Note_on_c, 0, 40, 37
1, 516269, Note_off_c, 0, 40, 32
1, 516300, Note_on_c, 0, 49, 43
1, 516566, Note_off_c, 0, 49, 46
1, 516583, Note_on_c, 0, 56, 47
1, 516673, Note_off_c, 0, 56, 56
1, 516831, Note_off_c, 0, 64, 53
1, 516839, Note_on_c, 0, 56, 57
1, 516847, Note_off_c, 0, 68, 55
1, 516861, Note_off_c, 0, 73, 58
1, 517051, Note_on_c, 0, 66, 65
1, 517107, Note_on_c, 0, 75, 74
1, 517110, Note_off_c, 0, 76, 60
1, 517275, Note_off_c, 0, 66, 59
1, 517330, Note_on_c, 0, 64, 57
1, 517401, Control_c, 0, 64, 101
1, 517403, Note_on_c, 0, 76, 82
1, 517410, Note_on_c, 0, 73, 65
1, 517416, Control_c, 0, 64, 71
1, 517423, Note_on_c, 0, 68, 51
1, 517423, Note_off_c, 0, 75, 62
1, 517438, Control_c, 0, 64, 45
1, 517453, Control_c, 0, 64, 0
1, 517481, Note_off_c, 0, 68, 0
1, 517512, Control_c, 0, 64, 52
1, 517518, Poly_aftertouch_c, 0, 68, 127
1, 517527, Control_c, 0, 64, 66
1, 517542, Control_c, 0, 64, 77
1, 517557, Control_c, 0, 64, 84
1, 517571, Control_c, 0, 64, 87
1, 517580, Note_off_c, 0, 56, 49
1, 517586, Control_c, 0, 64, 89
1, 517601, Control_c, 0, 64, 92
1, 517616, Control_c, 0, 64, 95
1, 517630, Control_c, 0, 64, 100
1, 517645, Control_c, 0, 64, 111
1, 517655, Note_on_c, 0, 75, 79
1, 517660, Control_c, 0, 64, 127
1, 517676, Note_off_c, 0, 76, 60
1, 517760, Note_off_c, 0, 73, 57
1, 517868, Note_on_c, 0, 56, 64
1, 517891, Note_on_c, 0, 76, 81
1, 517941, Poly_aftertouch_c, 0, 68, 0
1, 518135, Note_on_c, 0, 63, 59
1, 518147, Note_off_c, 0, 64, 57
1, 518165, Control_c, 0, 64, 90
1, 518186, Note_off_c, 0, 75, 8
1, 518186, Control_c, 0, 64, 66
1, 518194, Note_on_c, 0, 78, 77
1, 518201, Control_c, 0, 64, 36
1, 518205, Note_on_c, 0, 72, 55
1, 518213, Note_on_c, 0, 66, 51
1, 518216, Control_c, 0, 64, 0
1, 518218, Note_off_c, 0, 76, 53
1, 518275, Control_c, 0, 64, 55
1, 518290, Control_c, 0, 64, 68
1, 518305, Control_c, 0, 64, 78
1, 518320, Control_c, 0, 64, 87
1, 518335, Control_c, 0, 64, 90
1, 518350, Control_c, 0, 64, 91
1, 518365, Control_c, 0, 64, 93
1, 518379, Control_c, 0, 64, 96
1, 518394, Control_c, 0, 64, 100
1, 518409, Control_c, 0, 64, 106
1, 518424, Control_c, 0, 64, 113
1, 518439, Control_c, 0, 64, 127
1, 518464, Note_off_c, 0, 66, 54
1, 518598, Note_off_c, 0, 72, 36
1, 518684, Note_on_c, 0, 62, 51
1, 518754, Note_off_c, 0, 63, 49
1, 518787, Note_on_c, 0, 80, 75
1, 518823, Note_off_c, 0, 62, 58
1, 518830, Note_off_c, 0, 78, 60
1, 518842, Note_off_c, 0, 56, 58
1, 518851, Note_off_c, 0, 80, 62
1, 519054, Note_on_c, 0, 61, 34
1, 519122, Note_on_c, 0, 64, 55
1, 519184, Note_on_c, 0, 40, 46
1, 519202, Note_on_c, 0, 69, 54
1, 519277, Control_c, 0, 64, 105
1, 519282, Note_on_c, 0, 71, 72
1, 519292, Control_c, 0, 64, 91
1, 519307, Control_c, 0, 64, 77
1, 519322, Control_c, 0, 64, 64
1, 519336, Control_c, 0, 64, 0
1, 519410, Control_c, 0, 64, 36
1, 519425, Control_c, 0, 64, 60
1, 519440, Control_c, 0, 64, 69
1, 519456, Control_c, 0, 64, 73
1, 519471, Control_c, 0, 64, 76
1, 519485, Control_c, 0, 64, 77
1, 519500, Control_c, 0, 64, 78
1, 519515, Control_c, 0, 64, 80
1, 519530, Control_c, 0, 64, 83
1, 519545, Control_c, 0, 64, 86
1, 519559, Control_c, 0, 64, 89
1, 519572, Note_on_c, 0, 47, 43
1, 519574, Control_c, 0, 64, 93
1, 519589, Control_c, 0, 64, 98
1, 519604, Control_c, 0, 64, 102
1, 519619, Control_c, 0, 64, 107
1, 519633, Control_c, 0, 64, 112
1, 519648, Control_c, 0, 64, 117
1, 519663, Control_c, 0, 64, 127
1, 519733, Note_off_c, 0, 40, 36
1, 519787, Note_off_c, 0, 47, 61
1, 519819, Note_on_c, 0, 54, 50
1, 519881, Note_off_c, 0, 61, 38
1, 520052, Note_off_c, 0, 54, 32
1, 520053, Note_on_c, 0, 57, 35
1, 520053, Poly_aftertouch_c, 0, 66, 127
1, 520181, Note_off_c, 0, 64, 31
1, 520320, Note_on_c, 0, 59, 37
1, 520362, Note_off_c, 0, 57, 41
1, 520517, Poly_aftertouch_c, 0, 66, 0
1, 520547, Note_off_c, 0, 59, 54
1, 520555, Note_off_c, 0, 69, 35
1, 520588, Note_on_c, 0, 61, 44
1, 520836, Note_off_c, 0, 61, 51
1, 520874, Note_on_c, 0, 59, 47
1, 520892, Control_c, 0, 64, 100
1, 520907, Control_c, 0, 64, 77
1, 520922, Control_c, 0, 64, 60
1, 520932, Note_on_c, 0, 68, 46
1, 520936, Note_on_c, 0, 64, 41
1, 520937, Control_c, 0, 64, 0
1, 520995, Control_c, 0, 64, 49
1, 521010, Control_c, 0, 64, 65
1, 521025, Control_c, 0, 64, 77
1, 521040, Control_c, 0, 64, 83
1, 521056, Control_c, 0, 64, 85
1, 521070, Control_c, 0, 64, 85
1, 521085, Control_c, 0, 64, 87
1, 521100, Control_c, 0, 64, 88
1, 521115, Control_c, 0, 64, 92
1, 521130, Control_c, 0, 64, 96
1, 521144, Control_c, 0, 64, 100
1, 521159, Control_c, 0, 64, 104
1, 521182, Control_c, 0, 64, 108
1, 521197, Control_c, 0, 64, 111
1, 521211, Control_c, 0, 64, 115
1, 521226, Control_c, 0, 64, 120
1, 521241, Control_c, 0, 64, 127
1, 521413, Note_on_c, 0, 47, 48
1, 521422, Note_off_c, 0, 71, 41
1, 521424, Note_on_c, 0, 73, 66
1, 521426, Note_off_c, 0, 59, 41
1, 521476, Note_off_c, 0, 68, 60
1, 521489, Note_off_c, 0, 64, 45
1, 521673, Note_on_c, 0, 59, 44
1, 521730, Control_c, 0, 64, 108
1, 521745, Control_c, 0, 64, 83
1, 521751, Note_on_c, 0, 75, 68
1, 521760, Control_c, 0, 64, 65
1, 521768, Note_off_c, 0, 73, 59
1, 521775, Control_c, 0, 64, 34
1, 521775, Note_on_c, 0, 68, 53
1, 521787, Note_on_c, 0, 63, 37
1, 521790, Control_c, 0, 64, 0
1, 521849, Control_c, 0, 64, 37
1, 521864, Control_c, 0, 64, 58
1, 521879, Control_c, 0, 64, 68
1, 521894, Control_c, 0, 64, 76
1, 521909, Control_c, 0, 64, 83
1, 521931, Control_c, 0, 64, 86
1, 521946, Control_c, 0, 64, 89
1, 521960, Control_c, 0, 64, 92
1, 521975, Control_c, 0, 64, 97
1, 521990, Control_c, 0, 64, 103
1, 522005, Control_c, 0, 64, 111
1, 522020, Control_c, 0, 64, 124
1, 522034, Control_c, 0, 64, 127
1, 522048, Note_off_c, 0, 68, 35
1, 522118, Note_off_c, 0, 75, 33
1, 522133, Note_off_c, 0, 63, 55
1, 522289, Note_on_c, 0, 58, 45
1, 522348, Note_on_c, 0, 62, 47
1, 522353, Note_off_c, 0, 59, 37
1, 522390, Control_c, 0, 64, 100
1, 522405, Note_on_c, 0, 67, 49
1, 522405, Control_c, 0, 64, 87
1, 522419, Control_c, 0, 64, 79
1, 522434, Control_c, 0, 64, 77
1, 522449, Control_c, 0, 64, 78
1, 522464, Control_c, 0, 64, 79
1, 522468, Note_on_c, 0, 76, 71
1, 522478, Control_c, 0, 64, 81
1, 522493, Control_c, 0, 64, 83
1, 522505, Note_off_c, 0, 67, 63
1, 522508, Control_c, 0, 64, 85
1, 522523, Control_c, 0, 64, 86
1, 522525, Note_off_c, 0, 58, 62
1, 522526, Note_off_c, 0, 76, 63
1, 522538, Control_c, 0, 64, 86
1, 522567, Control_c, 0, 64, 87
1, 522581, Note_off_c, 0, 62, 53
1, 522599, Note_off_c, 0, 47, 40
1, 522612, Control_c, 0, 64, 87
1, 522758, Note_on_c, 0, 57, 36
1, 522810, Note_on_c, 0, 61, 48
1, 522827, Control_c, 0, 64, 87
1, 522842, Control_c, 0, 64, 86
1, 522857, Control_c, 0, 64, 85
1, 522872, Control_c, 0, 64, 85
1, 522887, Control_c, 0, 64, 84
1, 522889, Note_on_c, 0, 40, 45
1, 522896, Note_on_c, 0, 66, 50
1, 522901, Control_c, 0, 64, 83
1, 522916, Control_c, 0, 64, 82
1, 522931, Control_c, 0, 64, 81
1, 522946, Control_c, 0, 64, 79
1, 522961, Control_c, 0, 64, 77
1, 522975, Control_c, 0, 64, 74
1, 522990, Control_c, 0, 64, 69
1, 523005, Note_on_c, 0, 68, 62
1, 523005, Control_c, 0, 64, 62
1, 523020, Control_c, 0, 64, 46
1, 523035, Control_c, 0, 64, 0
1, 523123, Control_c, 0, 64, 46
1, 523138, Control_c, 0, 64, 60
1, 523153, Control_c, 0, 64, 67
1, 523168, Control_c, 0, 64, 70
1, 523182, Control_c, 0, 64, 71
1, 523197, Control_c, 0, 64, 71
1, 523212, Control_c, 0, 64, 72
1, 523227, Control_c, 0, 64, 73
1, 523241, Control_c, 0, 64, 74
1, 523256, Control_c, 0, 64, 75
1, 523271, Control_c, 0, 64, 76
1, 523286, Note_on_c, 0, 47, 38
1, 523286, Control_c, 0, 64, 78
1, 523301, Control_c, 0, 64, 79
1, 523316, Control_c, 0, 64, 80
1, 523331, Control_c, 0, 64, 81
1, 523346, Control_c, 0, 64, 81
1, 523361, Control_c, 0, 64, 82
1, 523375, Control_c, 0, 64, 83
1, 523390, Control_c, 0, 64, 84
1, 523405, Control_c, 0, 64, 84
1, 523427, Control_c, 0, 64, 85
1, 523442, Control_c, 0, 64, 86
1, 523458, Control_c, 0, 64, 86
1, 523470, Note_off_c, 0, 40, 33
1, 523472, Control_c, 0, 64, 87
1, 523502, Control_c, 0, 64, 87
1, 523514, Note_off_c, 0, 47, 56
1, 523531, Control_c, 0, 64, 88
1, 523549, Note_on_c, 0, 54, 41
1, 523576, Control_c, 0, 64, 88
1, 523605, Note_off_c, 0, 57, 38
1, 523789, Note_off_c, 0, 54, 41
1, 523802, Note_on_c, 0, 56, 42
1, 523838, Note_off_c, 0, 61, 30
1, 524046, Note_on_c, 0, 57, 48
1, 524075, Note_off_c, 0, 56, 31
1, 524133, Note_off_c, 0, 66, 35
1, 524280, Note_off_c, 0, 57, 55
1, 524324, Note_on_c, 0, 59, 45
1, 524607, Control_c, 0, 64, 86
1, 524616, Note_on_c, 0, 56, 38
1, 524622, Control_c, 0, 64, 81
1, 524636, Control_c, 0, 64, 73
1, 524639, Note_off_c, 0, 59, 39
1, 524651, Control_c, 0, 64, 64
1, 524666, Control_c, 0, 64, 49
1, 524669, Note_on_c, 0, 64, 38
1, 524679, Note_on_c, 0, 60, 40
1, 524681, Control_c, 0, 64, 0
1, 524740, Control_c, 0, 64, 48
1, 524755, Control_c, 0, 64, 62
1, 524770, Control_c, 0, 64, 69
1, 524785, Control_c, 0, 64, 73
1, 524800, Control_c, 0, 64, 75
1, 524814, Control_c, 0, 64, 75
1, 524829, Control_c, 0, 64, 76
1, 524844, Control_c, 0, 64, 77
1, 524859, Control_c, 0, 64, 79
1, 524873, Control_c, 0, 64, 81
1, 524888, Control_c, 0, 64, 82
1, 524903, Control_c, 0, 64, 84
1, 524926, Control_c, 0, 64, 85
1, 524941, Control_c, 0, 64, 85
1, 524955, Control_c, 0, 64, 86
1, 524970, Control_c, 0, 64, 86
1, 524985, Control_c, 0, 64, 87
1, 525000, Control_c, 0, 64, 87
1, 525029, Control_c, 0, 64, 88
1, 525060, Control_c, 0, 64, 88
1, 525210, Note_on_c, 0, 47, 45
1, 525217, Note_on_c, 0, 69, 64
1, 525242, Note_off_c, 0, 56, 30
1, 525246, Note_off_c, 0, 64, 51
1, 525306, Note_off_c, 0, 60, 42
1, 525380, Note_off_c, 0, 68, 19
1, 525459, Control_c, 0, 64, 88
1, 525489, Control_c, 0, 64, 86
1, 525497, Note_on_c, 0, 56, 43
1, 525504, Control_c, 0, 64, 82
1, 525519, Control_c, 0, 64, 75
1, 525534, Control_c, 0, 64, 66
1, 525549, Control_c, 0, 64, 52
1, 525561, Note_off_c, 0, 69, 57
1, 525563, Control_c, 0, 64, 0
1, 525564, Note_on_c, 0, 71, 66
1, 525586, Note_on_c, 0, 64, 44
1, 525591, Note_on_c, 0, 59, 36
1, 525652, Control_c, 0, 64, 51
1, 525674, Control_c, 0, 64, 63
1, 525689, Control_c, 0, 64, 69
1, 525704, Control_c, 0, 64, 71
1, 525719, Control_c, 0, 64, 73
1, 525733, Control_c, 0, 64, 73
1, 525748, Control_c, 0, 64, 74
1, 525763, Control_c, 0, 64, 75
1, 525775, Note_off_c, 0, 71, 58
1, 525778, Control_c, 0, 64, 76
1, 525787, Note_off_c, 0, 64, 50
1, 525793, Control_c, 0, 64, 78
1, 525808, Control_c, 0, 64, 79
1, 525814, Note_off_c, 0, 59, 40
1, 525822, Control_c, 0, 64, 81
1, 525837, Control_c, 0, 64, 82
1, 525853, Control_c, 0, 64, 83
1, 525868, Control_c, 0, 64, 84
1, 525883, Control_c, 0, 64, 85
1, 525897, Control_c, 0, 64, 86
1, 525912, Control_c, 0, 64, 87
1, 525927, Control_c, 0, 64, 88
1, 525942, Control_c, 0, 64, 88
1, 525972, Control_c, 0, 64, 89
1, 525987, Control_c, 0, 64, 89
1, 526016, Control_c, 0, 64, 90
1, 526090, Control_c, 0, 64, 90
1, 526105, Note_on_c, 0, 55, 41
1, 526175, Note_off_c, 0, 56, 28
1, 526184, Note_on_c, 0, 58, 48
1, 526193, Control_c, 0, 64, 88
1, 526208, Control_c, 0, 64, 79
1, 526223, Control_c, 0, 64, 71
1, 526237, Control_c, 0, 64, 66
1, 526249, Note_on_c, 0, 63, 49
1, 526252, Control_c, 0, 64, 65
1, 526267, Control_c, 0, 64, 67
1, 526282, Control_c, 0, 64, 70
1, 526297, Control_c, 0, 64, 73
1, 526312, Control_c, 0, 64, 75
1, 526320, Note_on_c, 0, 73, 66
1, 526327, Control_c, 0, 64, 76
1, 526342, Control_c, 0, 64, 76
1, 526345, Note_off_c, 0, 55, 54
1, 526365, Note_off_c, 0, 63, 62
1, 526371, Control_c, 0, 64, 77
1, 526376, Note_off_c, 0, 73, 60
1, 526407, Note_off_c, 0, 47, 61
1, 526423, Control_c, 0, 64, 77
1, 526458, Note_off_c, 0, 58, 56
1, 526467, Control_c, 0, 64, 78
1, 526631, Note_on_c, 0, 54, 42
1, 526710, Note_on_c, 0, 57, 47
1, 526750, Control_c, 0, 64, 77
1, 526783, Note_on_c, 0, 62, 53
1, 526810, Control_c, 0, 64, 77
1, 526835, Note_on_c, 0, 28, 49
1, 526839, Control_c, 0, 64, 76
1, 526868, Control_c, 0, 64, 75
1, 526883, Control_c, 0, 64, 71
1, 526898, Control_c, 0, 64, 62
1, 526901, Note_on_c, 0, 64, 66
1, 526913, Control_c, 0, 64, 45
1, 526928, Control_c, 0, 64, 0
1, 526972, Control_c, 0, 64, 35
1, 526987, Control_c, 0, 64, 55
1, 527002, Control_c, 0, 64, 67
1, 527016, Control_c, 0, 64, 72
1, 527031, Control_c, 0, 64, 74
1, 527075, Control_c, 0, 64, 74
1, 527090, Control_c, 0, 64, 75
1, 527105, Control_c, 0, 64, 75
1, 527120, Control_c, 0, 64, 76
1, 527134, Control_c, 0, 64, 77
1, 527149, Control_c, 0, 64, 78
1, 527152, Note_off_c, 0, 28, 59
1, 527172, Control_c, 0, 64, 79
1, 527187, Control_c, 0, 64, 80
1, 527202, Control_c, 0, 64, 81
1, 527216, Control_c, 0, 64, 81
1, 527231, Control_c, 0, 64, 82
1, 527235, Note_on_c, 0, 40, 48
1, 527246, Control_c, 0, 64, 83
1, 527261, Control_c, 0, 64, 83
1, 527275, Control_c, 0, 64, 84
1, 527290, Control_c, 0, 64, 85
1, 527298, Note_off_c, 0, 40, 59
1, 527320, Control_c, 0, 64, 85
1, 527335, Control_c, 0, 64, 86
1, 527349, Control_c, 0, 64, 86
1, 527379, Control_c, 0, 64, 87
1, 527424, Control_c, 0, 64, 87
1, 527495, Note_on_c, 0, 47, 46
1, 527530, Note_off_c, 0, 54, 54
1, 527602, Control_c, 0, 64, 88
1, 527698, Note_off_c, 0, 57, 32
1, 527704, Note_off_c, 0, 47, 56
1, 527732, Note_on_c, 0, 49, 52
1, 527984, Note_off_c, 0, 49, 60
1, 527990, Note_on_c, 0, 50, 60
1, 528097, Note_off_c, 0, 62, 33
1, 528258, Note_on_c, 0, 57, 54
1, 528440, Control_c, 0, 64, 87
1, 528514, Control_c, 0, 64, 87
1, 528527, Note_off_c, 0, 57, 38
1, 528559, Control_c, 0, 64, 86
1, 528562, Note_on_c, 0, 52, 47
1, 528574, Control_c, 0, 64, 82
1, 528588, Control_c, 0, 64, 72
1, 528603, Control_c, 0, 64, 60
1, 528614, Note_on_c, 0, 61, 45
1, 528618, Note_on_c, 0, 56, 44
1, 528618, Control_c, 0, 64, 0
1, 528652, Note_off_c, 0, 50, 37
1, 528699, Control_c, 0, 64, 56
1, 528714, Control_c, 0, 64, 66
1, 528729, Control_c, 0, 64, 72
1, 528744, Control_c, 0, 64, 74
1, 528759, Control_c, 0, 64, 74
1, 528774, Control_c, 0, 64, 75
1, 528789, Control_c, 0, 64, 75
1, 528803, Control_c, 0, 64, 76
1, 528818, Control_c, 0, 64, 77
1, 528833, Control_c, 0, 64, 78
1, 528847, Control_c, 0, 64, 78
1, 528862, Control_c, 0, 64, 79
1, 528877, Control_c, 0, 64, 79
1, 528892, Control_c, 0, 64, 80
1, 528921, Control_c, 0, 64, 80
1, 528966, Control_c, 0, 64, 81
1, 528995, Control_c, 0, 64, 81
1, 529174, Note_off_c, 0, 64, 60
1, 529190, Note_on_c, 0, 40, 45
1, 529197, Note_on_c, 0, 66, 58
1, 529239, Note_off_c, 0, 61, 54
1, 529319, Note_off_c, 0, 56, 55
1, 529495, Note_on_c, 0, 51, 53
1, 529512, Note_off_c, 0, 52, 40
1, 529523, Control_c, 0, 64, 81
1, 529537, Control_c, 0, 64, 75
1, 529552, Control_c, 0, 64, 66
1, 529556, Note_off_c, 0, 66, 57
1, 529558, Note_on_c, 0, 68, 61
1, 529567, Control_c, 0, 64, 51
1, 529570, Note_on_c, 0, 54, 45
1, 529571, Note_on_c, 0, 60, 46
1, 529582, Control_c, 0, 64, 0
1, 529656, Control_c, 0, 64, 41
1, 529671, Control_c, 0, 64, 58
1, 529686, Control_c, 0, 64, 66
1, 529701, Control_c, 0, 64, 71
1, 529716, Control_c, 0, 64, 72
1, 529745, Control_c, 0, 64, 72
1, 529760, Control_c, 0, 64, 73
1, 529775, Control_c, 0, 64, 74
1, 529785, Note_off_c, 0, 54, 52
1, 529789, Control_c, 0, 64, 75
1, 529804, Control_c, 0, 64, 76
1, 529819, Control_c, 0, 64, 77
1, 529835, Control_c, 0, 64, 78
1, 529850, Control_c, 0, 64, 79
1, 529865, Control_c, 0, 64, 80
1, 529880, Control_c, 0, 64, 81
1, 529894, Control_c, 0, 64, 81
1, 529909, Control_c, 0, 64, 82
1, 529934, Note_off_c, 0, 68, 31
1, 529954, Control_c, 0, 64, 82
1, 530013, Control_c, 0, 64, 83
1, 530086, Control_c, 0, 64, 83
1, 530131, Control_c, 0, 64, 84
1, 530183, Control_c, 0, 64, 84
1, 530198, Control_c, 0, 64, 85
1, 530225, Note_on_c, 0, 50, 47
1, 530257, Control_c, 0, 64, 83
1, 530272, Control_c, 0, 64, 78
1, 530286, Control_c, 0, 64, 72
1, 530301, Control_c, 0, 64, 69
1, 530309, Note_on_c, 0, 69, 54
1, 530316, Control_c, 0, 64, 68
1, 530325, Poly_aftertouch_c, 0, 44, 127
1, 530331, Control_c, 0, 64, 70
1, 530340, Note_off_c, 0, 51, 40
1, 530346, Control_c, 0, 64, 71
1, 530360, Control_c, 0, 64, 73
1, 530375, Control_c, 0, 64, 74
1, 530390, Control_c, 0, 64, 75
1, 530392, Note_off_c, 0, 69, 62
1, 530405, Control_c, 0, 64, 76
1, 530408, Note_off_c, 0, 60, 42
1, 530419, Control_c, 0, 64, 76
1, 530434, Control_c, 0, 64, 77
1, 530437, Note_off_c, 0, 50, 51
1, 530449, Control_c, 0, 64, 78
1, 530484, Poly_aftertouch_c, 0, 44, 0
1, 530494, Control_c, 0, 64, 78
1, 530551, Note_off_c, 0, 40, 39
1, 530554, Control_c, 0, 64, 79
1, 530612, Control_c, 0, 64, 79
1, 530663, Note_on_c, 0, 49, 39
1, 530703, Control_c, 0, 64, 80
1, 530713, Note_on_c, 0, 52, 48
1, 530786, Note_on_c, 0, 57, 51
1, 530899, Note_on_c, 0, 40, 37
1, 530916, Control_c, 0, 64, 79
1, 530923, Note_on_c, 0, 59, 64
1, 530929, Note_on_c, 0, 28, 7
1, 530931, Control_c, 0, 64, 74
1, 530946, Control_c, 0, 64, 65
1, 530961, Control_c, 0, 64, 50
1, 530976, Control_c, 0, 64, 0
1, 531005, Control_c, 0, 64, 43
1, 531020, Control_c, 0, 64, 59
1, 531034, Control_c, 0, 64, 69
1, 531049, Control_c, 0, 64, 77
1, 531064, Control_c, 0, 64, 83
1, 531075, Note_off_c, 0, 28, 54
1, 531079, Control_c, 0, 64, 85
1, 531094, Control_c, 0, 64, 87
1, 531102, Note_off_c, 0, 40, 59
1, 531108, Control_c, 0, 64, 89
1, 531123, Control_c, 0, 64, 92
1, 531124, Note_off_c, 0, 49, 42
1, 531138, Control_c, 0, 64, 96
1, 531151, Poly_aftertouch_c, 0, 54, 127
1, 531153, Control_c, 0, 64, 100
1, 531168, Control_c, 0, 64, 106
1, 531183, Control_c, 0, 64, 119
1, 531197, Control_c, 0, 64, 127
1, 531223, Poly_aftertouch_c, 0, 54, 0
1, 531235, Note_off_c, 0, 52, 31
1, 531260, Note_off_c, 0, 57, 25
1, 531386, Note_on_c, 0, 49, 42
1, 531610, Note_off_c, 0, 59, 37
1, 531636, Note_on_c, 0, 56, 43
1, 531669, Note_off_c, 0, 49, 43
1, 531703, Note_off_c, 0, 56, 58
1, 531888, Note_on_c, 0, 57, 50
1, 532125, Note_on_c, 0, 61, 56
1, 532340, Note_off_c, 0, 57, 60
1, 532342, Note_on_c, 0, 64, 57
1, 532377, Note_off_c, 0, 61, 57
1, 532412, Note_on_c, 0, 85, 90
1, 532449, Note_off_c, 0, 64, 59
1, 532591, Note_on_c, 0, 57, 42
1, 532610, Note_on_c, 0, 59, 54
1, 532755, Control_c, 0, 64, 112
1, 532767, Note_on_c, 0, 75, 77
1, 532770, Control_c, 0, 64, 78
1, 532780, Note_on_c, 0, 68, 58
1, 532785, Control_c, 0, 64, 55
1, 532800, Control_c, 0, 64, 0
1, 532824, Note_off_c, 0, 85, 59
1, 532874, Control_c, 0, 64, 45
1, 532888, Control_c, 0, 64, 58
1, 532903, Control_c, 0, 64, 64
1, 532918, Control_c, 0, 64, 71
1, 532932, Control_c, 0, 64, 80
1, 532947, Control_c, 0, 64, 93
1, 532962, Control_c, 0, 64, 108
1, 532977, Control_c, 0, 64, 127
1, 533110, Note_on_c, 0, 66, 44
1, 533111, Note_off_c, 0, 68, 37
1, 533199, Note_off_c, 0, 59, 36
1, 533233, Note_off_c, 0, 75, 54
1, 533327, Note_off_c, 0, 66, 36
1, 533349, Note_on_c, 0, 63, 42
1, 533398, Note_off_c, 0, 63, 60
1, 533446, Note_off_c, 0, 57, 41
1, 533612, Note_on_c, 0, 61, 36
1, 533837, Note_off_c, 0, 61, 38
1, 533842, Note_on_c, 0, 56, 36
1, 534095, Note_on_c, 0, 54, 50
1, 534124, Note_off_c, 0, 56, 37
1, 534187, Note_on_c, 0, 69, 59
1, 534247, Note_off_c, 0, 69, 63
1, 534257, Note_off_c, 0, 54, 58
1, 534492, Note_on_c, 0, 49, 33
1, 534557, Note_on_c, 0, 52, 47
1, 534634, Note_on_c, 0, 57, 42
1, 534665, Note_on_c, 0, 40, 42
1, 534676, Note_on_c, 0, 28, 37
1, 534696, Note_on_c, 0, 59, 64
1, 534706, Control_c, 0, 64, 86
1, 534721, Control_c, 0, 64, 69
1, 534736, Control_c, 0, 64, 55
1, 534751, Control_c, 0, 64, 36
1, 534766, Control_c, 0, 64, 38
1, 534781, Control_c, 0, 64, 51
1, 534795, Control_c, 0, 64, 59
1, 534810, Control_c, 0, 64, 65
1, 534813, Note_off_c, 0, 28, 57
1, 534825, Control_c, 0, 64, 73
1, 534840, Control_c, 0, 64, 84
1, 534843, Note_off_c, 0, 40, 61
1, 534855, Control_c, 0, 64, 94
1, 534870, Control_c, 0, 64, 99
1, 534884, Control_c, 0, 64, 110
1, 534899, Control_c, 0, 64, 127
1, 534903, Note_off_c, 0, 49, 42
1, 534976, Note_off_c, 0, 57, 25
1, 534992, Note_off_c, 0, 52, 34
1, 535122, Note_on_c, 0, 49, 40
1, 535344, Note_off_c, 0, 59, 37
1, 535378, Note_on_c, 0, 56, 43
1, 535418, Note_off_c, 0, 49, 42
1, 535449, Note_off_c, 0, 56, 53
1, 535631, Note_on_c, 0, 57, 48
1, 535916, Note_on_c, 0, 61, 36
1, 536195, Note_off_c, 0, 57, 43
1, 536220, Note_on_c, 0, 85, 72
1, 536237, Note_on_c, 0, 64, 38
1, 536238, Note_off_c, 0, 61, 39
1, 536330, Note_off_c, 0, 64, 58
1, 536478, Note_on_c, 0, 59, 38
1, 536500, Poly_aftertouch_c, 0, 57, 127
1, 536506, Note_on_c, 0, 57, 3
1, 536647, Control_c, 0, 64, 99
1, 536661, Control_c, 0, 64, 79
1, 536664, Note_on_c, 0, 75, 55
1, 536667, Note_on_c, 0, 68, 49
1, 536676, Control_c, 0, 64, 64
1, 536691, Control_c, 0, 64, 42
1, 536707, Note_off_c, 0, 85, 45
1, 536707, Control_c, 0, 64, 0
1, 536766, Control_c, 0, 64, 46
1, 536781, Control_c, 0, 64, 62
1, 536796, Control_c, 0, 64, 70
1, 536810, Control_c, 0, 64, 76
1, 536825, Control_c, 0, 64, 79
1, 536840, Control_c, 0, 64, 80
1, 536855, Control_c, 0, 64, 81
1, 536870, Control_c, 0, 64, 83
1, 536885, Control_c, 0, 64, 86
1, 536906, Control_c, 0, 64, 88
1, 536921, Control_c, 0, 64, 91
1, 536936, Control_c, 0, 64, 94
1, 536951, Control_c, 0, 64, 96
1, 536980, Control_c, 0, 64, 99
1, 537010, Control_c, 0, 64, 101
1, 537020, Note_on_c, 0, 66, 45
1, 537025, Note_off_c, 0, 68, 41
1, 537041, Control_c, 0, 64, 104
1, 537056, Control_c, 0, 64, 106
1, 537085, Control_c, 0, 64, 108
1, 537159, Control_c, 0, 64, 111
1, 537231, Note_off_c, 0, 66, 52
1, 537256, Note_on_c, 0, 63, 50
1, 537278, Note_off_c, 0, 59, 38
1, 537335, Note_off_c, 0, 63, 60
1, 537347, Note_off_c, 0, 75, 43
1, 537394, Note_off_c, 0, 57, 41
1, 537495, Note_on_c, 0, 61, 51
1, 537603, Control_c, 0, 64, 114
1, 537618, Control_c, 0, 64, 116
1, 537633, Control_c, 0, 64, 122
1, 537655, Control_c, 0, 64, 127
1, 537749, Note_off_c, 0, 61, 37
1, 537752, Note_on_c, 0, 56, 47
1, 538020, Note_off_c, 0, 56, 49
1, 538024, Note_on_c, 0, 54, 43
1, 538110, Note_on_c, 0, 69, 57
1, 538175, Note_off_c, 0, 54, 62
1, 538177, Note_off_c, 0, 69, 63
1, 538419, Note_on_c, 0, 49, 42
1, 538477, Note_on_c, 0, 52, 50
1, 538582, Note_on_c, 0, 57, 44
1, 538651, Note_on_c, 0, 59, 59
1, 538666, Note_on_c, 0, 40, 38
1, 538674, Note_on_c, 0, 28, 40
1, 538686, Control_c, 0, 64, 106
1, 538701, Control_c, 0, 64, 81
1, 538716, Control_c, 0, 64, 64
1, 538730, Control_c, 0, 64, 42
1, 538745, Control_c, 0, 64, 0
1, 538775, Control_c, 0, 64, 40
1, 538790, Control_c, 0, 64, 51
1, 538805, Control_c, 0, 64, 59
1, 538814, Note_off_c, 0, 52, 47
1, 538820, Control_c, 0, 64, 64
1, 538835, Control_c, 0, 64, 68
1, 538849, Control_c, 0, 64, 75
1, 538864, Control_c, 0, 64, 82
1, 538879, Control_c, 0, 64, 85
1, 538893, Control_c, 0, 64, 86
1, 538908, Control_c, 0, 64, 87
1, 538923, Control_c, 0, 64, 89
1, 538938, Control_c, 0, 64, 92
1, 538953, Control_c, 0, 64, 98
1, 538967, Control_c, 0, 64, 107
1, 538982, Control_c, 0, 64, 127
1, 539064, Note_off_c, 0, 28, 33
1, 539165, Note_off_c, 0, 40, 35
1, 539187, Note_on_c, 0, 54, 50
1, 539239, Note_off_c, 0, 57, 35
1, 539523, Note_off_c, 0, 49, 41
1, 539556, Note_on_c, 0, 56, 65
1, 539595, Note_off_c, 0, 54, 50
1, 539691, Note_off_c, 0, 59, 32
1, 539926, Note_on_c, 0, 57, 64
1, 539946, Control_c, 0, 64, 88
1, 539961, Control_c, 0, 64, 75
1, 539976, Control_c, 0, 64, 70
1, 539991, Control_c, 0, 64, 67
1, 540006, Control_c, 0, 64, 66
1, 540010, Note_off_c, 0, 56, 33
1, 540021, Control_c, 0, 64, 67
1, 540036, Control_c, 0, 64, 70
1, 540050, Control_c, 0, 64, 75
1, 540065, Control_c, 0, 64, 81
1, 540080, Control_c, 0, 64, 84
1, 540095, Control_c, 0, 64, 84
1, 540255, Note_on_c, 0, 52, 47
1, 540502, Note_on_c, 0, 59, 48
1, 540680, Control_c, 0, 64, 85
1, 540695, Note_off_c, 0, 52, 34
1, 540710, Control_c, 0, 64, 85
1, 540724, Note_on_c, 0, 56, 63
1, 540740, Control_c, 0, 64, 79
1, 540754, Control_c, 0, 64, 68
1, 540769, Control_c, 0, 64, 58
1, 540784, Control_c, 0, 64, 51
1, 540799, Control_c, 0, 64, 53
1, 540802, Note_off_c, 0, 57, 50
1, 540814, Control_c, 0, 64, 59
1, 540829, Control_c, 0, 64, 64
1, 540844, Control_c, 0, 64, 70
1, 540850, Note_off_c, 0, 59, 30
1, 540859, Control_c, 0, 64, 74
1, 540873, Control_c, 0, 64, 77
1, 540888, Control_c, 0, 64, 78
1, 540903, Control_c, 0, 64, 79
1, 540959, Note_on_c, 0, 51, 41
1, 540962, Control_c, 0, 64, 79
1, 540992, Control_c, 0, 64, 80
1, 541023, Control_c, 0, 64, 80
1, 541052, Control_c, 0, 64, 81
1, 541141, Control_c, 0, 64, 81
1, 541154, Note_on_c, 0, 59, 45
1, 541170, Control_c, 0, 64, 82
1, 541185, Control_c, 0, 64, 82
1, 541199, Control_c, 0, 64, 83
1, 541214, Control_c, 0, 64, 84
1, 541229, Control_c, 0, 64, 85
1, 541243, Control_c, 0, 64, 86
1, 541258, Control_c, 0, 64, 88
1, 541273, Control_c, 0, 64, 89
1, 541288, Control_c, 0, 64, 91
1, 541304, Note_off_c, 0, 51, 41
1, 541333, Control_c, 0, 64, 84
1, 541341, Note_on_c, 0, 54, 61
1, 541347, Control_c, 0, 64, 71
1, 541362, Control_c, 0, 64, 61
1, 541372, Note_off_c, 0, 56, 55
1, 541377, Control_c, 0, 64, 54
1, 541399, Control_c, 0, 64, 57
1, 541414, Control_c, 0, 64, 62
1, 541429, Control_c, 0, 64, 66
1, 541443, Control_c, 0, 64, 71
1, 541458, Control_c, 0, 64, 75
1, 541473, Control_c, 0, 64, 76
1, 541488, Control_c, 0, 64, 77
1, 541556, Note_on_c, 0, 49, 41
1, 541562, Note_off_c, 0, 59, 18
1, 541577, Control_c, 0, 64, 77
1, 541607, Control_c, 0, 64, 78
1, 541636, Control_c, 0, 64, 78
1, 541717, Note_on_c, 0, 59, 40
1, 541769, Control_c, 0, 64, 79
1, 541815, Control_c, 0, 64, 79
1, 541830, Control_c, 0, 64, 80
1, 541845, Control_c, 0, 64, 81
1, 541860, Control_c, 0, 64, 83
1, 541874, Control_c, 0, 64, 86
1, 541889, Control_c, 0, 64, 88
1, 541904, Control_c, 0, 64, 88
1, 541912, Note_off_c, 0, 49, 45
1, 541914, Note_on_c, 0, 52, 65
1, 541933, Control_c, 0, 64, 84
1, 541938, Note_off_c, 0, 54, 54
1, 541949, Control_c, 0, 64, 71
1, 541964, Control_c, 0, 64, 61
1, 541979, Control_c, 0, 64, 47
1, 541993, Control_c, 0, 64, 44
1, 542003, Note_off_c, 0, 59, 23
1, 542008, Control_c, 0, 64, 51
1, 542023, Control_c, 0, 64, 59
1, 542038, Control_c, 0, 64, 66
1, 542053, Control_c, 0, 64, 71
1, 542067, Control_c, 0, 64, 73
1, 542082, Control_c, 0, 64, 74
1, 542105, Note_on_c, 0, 57, 46
1, 542193, Control_c, 0, 64, 74
1, 542223, Control_c, 0, 64, 75
1, 542238, Control_c, 0, 64, 75
1, 542285, Note_on_c, 0, 59, 40
1, 542326, Control_c, 0, 64, 76
1, 542356, Control_c, 0, 64, 76
1, 542371, Control_c, 0, 64, 77
1, 542382, Note_off_c, 0, 57, 26
1, 542386, Control_c, 0, 64, 78
1, 542415, Control_c, 0, 64, 79
1, 542430, Control_c, 0, 64, 80
1, 542444, Control_c, 0, 64, 82
1, 542459, Control_c, 0, 64, 83
1, 542489, Control_c, 0, 64, 80
1, 542493, Note_on_c, 0, 51, 52
1, 542504, Control_c, 0, 64, 72
1, 542509, Note_off_c, 0, 52, 56
1, 542519, Control_c, 0, 64, 62
1, 542534, Control_c, 0, 64, 48
1, 542549, Control_c, 0, 64, 39
1, 542564, Control_c, 0, 64, 43
1, 542579, Control_c, 0, 64, 52
1, 542593, Control_c, 0, 64, 60
1, 542608, Control_c, 0, 64, 64
1, 542623, Control_c, 0, 64, 67
1, 542638, Control_c, 0, 64, 67
1, 542659, Note_off_c, 0, 59, 39
1, 542671, Note_on_c, 0, 56, 46
1, 542757, Control_c, 0, 64, 68
1, 542787, Control_c, 0, 64, 68
1, 542846, Control_c, 0, 64, 69
1, 542866, Note_on_c, 0, 59, 34
1, 542898, Control_c, 0, 64, 69
1, 542912, Control_c, 0, 64, 70
1, 542927, Control_c, 0, 64, 71
1, 542942, Control_c, 0, 64, 72
1, 542957, Control_c, 0, 64, 73
1, 542972, Control_c, 0, 64, 73
1, 542987, Control_c, 0, 64, 74
1, 543002, Control_c, 0, 64, 74
1, 543031, Control_c, 0, 64, 75
1, 543046, Control_c, 0, 64, 74
1, 543061, Control_c, 0, 64, 69
1, 543070, Note_on_c, 0, 49, 50
1, 543070, Note_off_c, 0, 51, 51
1, 543075, Control_c, 0, 64, 61
1, 543090, Control_c, 0, 64, 45
1, 543105, Control_c, 0, 64, 0
1, 543135, Control_c, 0, 64, 34
1, 543149, Control_c, 0, 64, 52
1, 543164, Control_c, 0, 64, 62
1, 543179, Control_c, 0, 64, 66
1, 543194, Control_c, 0, 64, 68
1, 543209, Control_c, 0, 64, 69
1, 543249, Note_off_c, 0, 59, 34
1, 543274, Note_on_c, 0, 54, 39
1, 543312, Control_c, 0, 64, 69
1, 543329, Note_off_c, 0, 56, 35
1, 543342, Control_c, 0, 64, 70
1, 543357, Control_c, 0, 64, 70
1, 543446, Control_c, 0, 64, 71
1, 543482, Note_on_c, 0, 59, 45
1, 543491, Control_c, 0, 64, 71
1, 543521, Control_c, 0, 64, 72
1, 543565, Control_c, 0, 64, 72
1, 543580, Control_c, 0, 64, 73
1, 543595, Control_c, 0, 64, 73
1, 543609, Control_c, 0, 64, 74
1, 543624, Control_c, 0, 64, 75
1, 543646, Control_c, 0, 64, 76
1, 543661, Control_c, 0, 64, 77
1, 543691, Control_c, 0, 64, 75
1, 543705, Control_c, 0, 64, 70
1, 543718, Note_on_c, 0, 47, 45
1, 543720, Control_c, 0, 64, 64
1, 543735, Control_c, 0, 64, 55
1, 543750, Note_off_c, 0, 49, 38
1, 543750, Control_c, 0, 64, 46
1, 543765, Control_c, 0, 64, 47
1, 543765, Note_off_c, 0, 54, 31
1, 543780, Control_c, 0, 64, 51
1, 543795, Control_c, 0, 64, 58
1, 543810, Control_c, 0, 64, 63
1, 543824, Control_c, 0, 64, 67
1, 543839, Control_c, 0, 64, 71
1, 543854, Control_c, 0, 64, 73
1, 543869, Control_c, 0, 64, 73
1, 543928, Control_c, 0, 64, 74
1, 543943, Control_c, 0, 64, 74
1, 543951, Note_off_c, 0, 47, 34
1, 543958, Control_c, 0, 64, 75
1, 543972, Control_c, 0, 64, 75
1, 543977, Note_on_c, 0, 52, 39
1, 543985, Note_off_c, 0, 59, 37
1, 544031, Control_c, 0, 64, 76
1, 544076, Control_c, 0, 64, 76
1, 544120, Control_c, 0, 64, 77
1, 544135, Control_c, 0, 64, 77
1, 544164, Control_c, 0, 64, 78
1, 544179, Control_c, 0, 64, 78
1, 544211, Control_c, 0, 64, 79
1, 544226, Control_c, 0, 64, 80
1, 544240, Control_c, 0, 64, 81
1, 544255, Control_c, 0, 64, 81
1, 544270, Control_c, 0, 64, 82
1, 544300, Control_c, 0, 64, 79
1, 544314, Note_on_c, 0, 59, 42
1, 544314, Control_c, 0, 64, 72
1, 544317, Note_on_c, 0, 45, 44
1, 544329, Control_c, 0, 64, 63
1, 544344, Control_c, 0, 64, 48
1, 544359, Control_c, 0, 64, 45
1, 544374, Control_c, 0, 64, 51
1, 544396, Control_c, 0, 64, 59
1, 544411, Control_c, 0, 64, 65
1, 544426, Control_c, 0, 64, 71
1, 544440, Control_c, 0, 64, 76
1, 544448, Note_off_c, 0, 52, 28
1, 544455, Control_c, 0, 64, 77
1, 544470, Control_c, 0, 64, 78
1, 544477, Note_off_c, 0, 45, 57
1, 544514, Control_c, 0, 64, 78
1, 544559, Control_c, 0, 64, 79
1, 544574, Control_c, 0, 64, 79
1, 544603, Control_c, 0, 64, 80
1, 544737, Control_c, 0, 64, 79
1, 544752, Control_c, 0, 64, 78
1, 544767, Control_c, 0, 64, 77
1, 544781, Control_c, 0, 64, 75
1, 544784, Note_on_c, 0, 56, 39
1, 544796, Control_c, 0, 64, 73
1, 544811, Control_c, 0, 64, 70
1, 544816, Note_on_c, 0, 44, 29
1, 544821, Note_on_c, 0, 47, 13
1, 544826, Control_c, 0, 64, 67
1, 544827, Note_on_c, 0, 51, 19
1, 544840, Control_c, 0, 64, 63
1, 544855, Control_c, 0, 64, 57
1, 544870, Control_c, 0, 64, 51
1, 544885, Control_c, 0, 64, 46
1, 544900, Control_c, 0, 64, 44
1, 544914, Control_c, 0, 64, 43
1, 544929, Control_c, 0, 64, 43
1, 544944, Control_c, 0, 64, 42
1, 544959, Control_c, 0, 64, 40
1, 544974, Control_c, 0, 64, 36
1, 544988, Control_c, 0, 64, 0
1, 545145, Control_c, 0, 64, 39
1, 545160, Control_c, 0, 64, 48
1, 545175, Control_c, 0, 64, 56
1, 545190, Control_c, 0, 64, 61
1, 545205, Control_c, 0, 64, 64
1, 545219, Control_c, 0, 64, 67
1, 545234, Control_c, 0, 64, 68
1, 545249, Control_c, 0, 64, 70
1, 545263, Control_c, 0, 64, 71
1, 545278, Control_c, 0, 64, 72
1, 545293, Control_c, 0, 64, 73
1, 545308, Control_c, 0, 64, 74
1, 545323, Control_c, 0, 64, 75
1, 545337, Control_c, 0, 64, 76
1, 545352, Control_c, 0, 64, 76
1, 545367, Control_c, 0, 64, 77
1, 545382, Control_c, 0, 64, 78
1, 545387, Note_off_c, 0, 59, 31
1, 545397, Control_c, 0, 64, 78
1, 545408, Note_off_c, 0, 56, 32
1, 545411, Control_c, 0, 64, 79
1, 545417, Note_off_c, 0, 51, 32
1, 545426, Control_c, 0, 64, 80
1, 545470, Control_c, 0, 64, 80
1, 545520, Note_off_c, 0, 44, 32
1, 545589, Control_c, 0, 64, 80
1, 545604, Control_c, 0, 64, 79
1, 545619, Control_c, 0, 64, 79
1, 545634, Control_c, 0, 64, 78
1, 545649, Control_c, 0, 64, 77
1, 545663, Control_c, 0, 64, 77
1, 545678, Control_c, 0, 64, 76
1, 545692, Control_c, 0, 64, 76
1, 545707, Control_c, 0, 64, 75
1, 545722, Control_c, 0, 64, 75
1, 545736, Control_c, 0, 64, 74
1, 545744, Note_off_c, 0, 47, 7
1, 545751, Control_c, 0, 64, 74
1, 545766, Control_c, 0, 64, 73
1, 545780, Control_c, 0, 64, 72
1, 545795, Control_c, 0, 64, 71
1, 545812, Control_c, 0, 64, 71
1, 545827, Control_c, 0, 64, 70
1, 545841, Control_c, 0, 64, 70
1, 545856, Control_c, 0, 64, 69
1, 545871, Control_c, 0, 64, 69
1, 545893, Control_c, 0, 64, 68
1, 545908, Control_c, 0, 64, 67
1, 545923, Control_c, 0, 64, 66
1, 545938, Control_c, 0, 64, 65
1, 545953, Control_c, 0, 64, 64
1, 545967, Control_c, 0, 64, 62
1, 545982, Control_c, 0, 64, 61
1, 545997, Control_c, 0, 64, 60
1, 546011, Control_c, 0, 64, 59
1, 546071, Control_c, 0, 64, 58
1, 546130, Control_c, 0, 64, 58
1, 546233, Control_c, 0, 64, 57
1, 546248, Control_c, 0, 64, 56
1, 546263, Control_c, 0, 64, 55
1, 546323, Control_c, 0, 64, 55
1, 546352, Control_c, 0, 64, 54
1, 546367, Control_c, 0, 64, 54
1, 546441, Control_c, 0, 64, 53
1, 546834, Control_c, 0, 64, 54
1, 546923, Control_c, 0, 64, 54
1, 546997, Control_c, 0, 64, 55
1, 547086, Control_c, 0, 64, 55
1, 547130, Control_c, 0, 64, 56
1, 547220, Control_c, 0, 64, 55
1, 547235, Control_c, 0, 64, 55
1, 547250, Control_c, 0, 64, 54
1, 547252, Note_on_c, 0, 59, 63
1, 547263, Note_on_c, 0, 52, 54
1, 547265, Note_on_c, 0, 42, 44
1, 547265, Note_on_c, 0, 49, 47
1, 547265, Control_c, 0, 64, 54
1, 547266, Note_on_c, 0, 57, 53
1, 547279, Control_c, 0, 64, 51
1, 547294, Control_c, 0, 64, 47
1, 547309, Control_c, 0, 64, 40
1, 547324, Control_c, 0, 64, 0
1, 547390, Control_c, 0, 64, 35
1, 547405, Control_c, 0, 64, 44
1, 547421, Control_c, 0, 64, 53
1, 547436, Control_c, 0, 64, 61
1, 547451, Control_c, 0, 64, 65
1, 547465, Control_c, 0, 64, 67
1, 547480, Control_c, 0, 64, 69
1, 547495, Control_c, 0, 64, 71
1, 547510, Control_c, 0, 64, 72
1, 547525, Control_c, 0, 64, 75
1, 547539, Control_c, 0, 64, 77
1, 547554, Control_c, 0, 64, 80
1, 547569, Control_c, 0, 64, 82
1, 547583, Control_c, 0, 64, 85
1, 547598, Control_c, 0, 64, 87
1, 547613, Control_c, 0, 64, 90
1, 547628, Control_c, 0, 64, 92
1, 547643, Control_c, 0, 64, 95
1, 547658, Control_c, 0, 64, 100
1, 547673, Control_c, 0, 64, 105
1, 547688, Control_c, 0, 64, 112
1, 547703, Control_c, 0, 64, 127
1, 547908, Note_off_c, 0, 57, 35
1, 548138, Note_off_c, 0, 49, 41
1, 548261, Note_off_c, 0, 42, 32
1, 548346, Note_off_c, 0, 59, 36
1, 548798, Note_on_c, 0, 58, 49
1, 549035, Note_off_c, 0, 58, 29
1, 549156, Control_c, 0, 64, 112
1, 549171, Control_c, 0, 64, 100
1, 549185, Control_c, 0, 64, 90
1, 549200, Control_c, 0, 64, 81
1, 549208, Note_on_c, 0, 57, 47
1, 549215, Control_c, 0, 64, 70
1, 549226, Note_on_c, 0, 41, 30
1, 549229, Note_on_c, 0, 48, 26
1, 549230, Control_c, 0, 64, 62
1, 549244, Control_c, 0, 64, 48
1, 549259, Control_c, 0, 64, 0
1, 549348, Control_c, 0, 64, 44
1, 549363, Control_c, 0, 64, 57
1, 549378, Control_c, 0, 64, 65
1, 549393, Control_c, 0, 64, 69
1, 549408, Control_c, 0, 64, 72
1, 549423, Control_c, 0, 64, 74
1, 549436, Control_c, 0, 64, 75
1, 549451, Control_c, 0, 64, 77
1, 549466, Control_c, 0, 64, 79
1, 549481, Control_c, 0, 64, 82
1, 549496, Control_c, 0, 64, 86
1, 549510, Control_c, 0, 64, 90
1, 549525, Control_c, 0, 64, 94
1, 549540, Control_c, 0, 64, 98
1, 549545, Note_off_c, 0, 52, 24
1, 549554, Control_c, 0, 64, 102
1, 549569, Control_c, 0, 64, 106
1, 549584, Control_c, 0, 64, 112
1, 549599, Control_c, 0, 64, 124
1, 549614, Control_c, 0, 64, 127
1, 549661, Note_off_c, 0, 57, 40
1, 549667, Note_off_c, 0, 41, 36
1, 549864, Note_off_c, 0, 48, 37
1, 551590, Note_on_c, 0, 59, 33
1, 551594, Control_c, 0, 64, 109
1, 551596, Note_on_c, 0, 56, 36
1, 551604, Note_on_c, 0, 40, 35
1, 551607, Note_on_c, 0, 52, 31
1, 551608, Note_on_c, 0, 47, 36
1, 551609, Control_c, 0, 64, 100
1, 551623, Control_c, 0, 64, 94
1, 551638, Control_c, 0, 64, 89
1, 551653, Control_c, 0, 64, 83
1, 551668, Control_c, 0, 64, 75
1, 551682, Control_c, 0, 64, 67
1, 551697, Control_c, 0, 64, 61
1, 551712, Control_c, 0, 64, 52
1, 551727, Control_c, 0, 64, 47
1, 551742, Control_c, 0, 64, 46
1, 551756, Control_c, 0, 64, 45
1, 551771, Control_c, 0, 64, 44
1, 551786, Control_c, 0, 64, 43
1, 551801, Control_c, 0, 64, 42
1, 551845, Control_c, 0, 64, 42
1, 551860, Control_c, 0, 64, 41
1, 551897, Control_c, 0, 64, 42
1, 551956, Control_c, 0, 64, 42
1, 551971, Control_c, 0, 64, 43
1, 551986, Control_c, 0, 64, 43
1, 552001, Control_c, 0, 64, 44
1, 552030, Control_c, 0, 64, 45
1, 552060, Control_c, 0, 64, 45
1, 552089, Control_c, 0, 64, 46
1, 552119, Control_c, 0, 64, 46
1, 552149, Control_c, 0, 64, 47
1, 552163, Control_c, 0, 64, 47
1, 552193, Control_c, 0, 64, 48
1, 552239, Control_c, 0, 64, 48
1, 552253, Control_c, 0, 64, 49
1, 552268, Control_c, 0, 64, 50
1, 552283, Control_c, 0, 64, 50
1, 552342, Control_c, 0, 64, 51
1, 552357, Control_c, 0, 64, 51
1, 552371, Control_c, 0, 64, 52
1, 552386, Control_c, 0, 64, 53
1, 552416, Control_c, 0, 64, 53
1, 552446, Control_c, 0, 64, 54
1, 552476, Control_c, 0, 64, 54
1, 552491, Control_c, 0, 64, 55
1, 552521, Control_c, 0, 64, 55
1, 552594, Control_c, 0, 64, 56
1, 552735, Control_c, 0, 64, 56
1, 552943, Control_c, 0, 64, 57
1, 556131, Control_c, 0, 64, 56
1, 556294, Control_c, 0, 64, 56
1, 556391, Control_c, 0, 64, 55
1, 556406, Control_c, 0, 64, 55
1, 556415, Note_off_c, 0, 47, 34
1, 556425, Note_off_c, 0, 40, 34
1, 556439, Note_off_c, 0, 52, 38
1, 556459, Note_off_c, 0, 56, 37
1, 556468, Note_off_c, 0, 59, 36
1, 556494, Control_c, 0, 64, 54
1, 556524, Control_c, 0, 64, 54
1, 556568, Control_c, 0, 64, 53
1, 556613, Control_c, 0, 64, 53
1, 556657, Control_c, 0, 64, 52
1, 556687, Control_c, 0, 64, 52
1, 556761, Control_c, 0, 64, 51
1, 557185, Control_c, 0, 64, 52
1, 557274, Control_c, 0, 64, 52
1, 557889, Control_c, 0, 64, 52
1, 557918, Control_c, 0, 64, 51
1, 557943, Note_on_c, 0, 76, 70
1, 557948, Control_c, 0, 64, 51
1, 557951, Note_on_c, 0, 59, 28
1, 557954, Note_on_c, 0, 52, 35
1, 557960, Note_on_c, 0, 62, 37
1, 557970, Note_on_c, 0, 68, 43
1, 557978, Control_c, 0, 64, 50
1, 557993, Control_c, 0, 64, 50
1, 558008, Control_c, 0, 64, 49
1, 558023, Control_c, 0, 64, 48
1, 558038, Control_c, 0, 64, 46
1, 558052, Control_c, 0, 64, 45
1, 558067, Control_c, 0, 64, 44
1, 558082, Control_c, 0, 64, 42
1, 558097, Control_c, 0, 64, 40
1, 558112, Control_c, 0, 64, 38
1, 558126, Control_c, 0, 64, 37
1, 558186, Control_c, 0, 64, 36
1, 558318, Control_c, 0, 64, 36
1, 558342, Note_on_c, 0, 77, 61
1, 558348, Control_c, 0, 64, 35
1, 558363, Control_c, 0, 64, 34
1, 558378, Control_c, 0, 64, 0
1, 558388, Note_off_c, 0, 76, 61
1, 558623, Control_c, 0, 64, 39
1, 558638, Control_c, 0, 64, 48
1, 558653, Control_c, 0, 64, 55
1, 558667, Control_c, 0, 64, 59
1, 558682, Control_c, 0, 64, 61
1, 558756, Control_c, 0, 64, 62
1, 558771, Control_c, 0, 64, 63
1, 558786, Control_c, 0, 64, 64
1, 558816, Control_c, 0, 64, 64
1, 558845, Control_c, 0, 64, 65
1, 558860, Control_c, 0, 64, 65
1, 558875, Control_c, 0, 64, 66
1, 558890, Control_c, 0, 64, 67
1, 558905, Control_c, 0, 64, 67
1, 558920, Control_c, 0, 64, 68
1, 558935, Control_c, 0, 64, 68
1, 558949, Control_c, 0, 64, 69
1, 558964, Control_c, 0, 64, 70
1, 558979, Control_c, 0, 64, 70
1, 559009, Control_c, 0, 64, 71
1, 559038, Control_c, 0, 64, 71
1, 559067, Control_c, 0, 64, 72
1, 559097, Control_c, 0, 64, 72
1, 559108, Note_off_c, 0, 77, 59
1, 559111, Note_on_c, 0, 76, 59
1, 559112, Control_c, 0, 64, 73
1, 559127, Control_c, 0, 64, 73
1, 559141, Control_c, 0, 64, 74
1, 559156, Control_c, 0, 64, 75
1, 559171, Control_c, 0, 64, 76
1, 559185, Control_c, 0, 64, 76
1, 559200, Control_c, 0, 64, 77
1, 559215, Control_c, 0, 64, 78
1, 559230, Control_c, 0, 64, 80
1, 559245, Control_c, 0, 64, 81
1, 559260, Control_c, 0, 64, 82
1, 559275, Control_c, 0, 64, 85
1, 559289, Control_c, 0, 64, 87
1, 559304, Control_c, 0, 64, 89
1, 559319, Control_c, 0, 64, 91
1, 559334, Control_c, 0, 64, 93
1, 559349, Control_c, 0, 64, 95
1, 559371, Control_c, 0, 64, 97
1, 559387, Control_c, 0, 64, 100
1, 559402, Control_c, 0, 64, 103
1, 559417, Control_c, 0, 64, 106
1, 559417, Control_c, 0, 67, 119
1, 559432, Control_c, 0, 64, 112
1, 559432, Control_c, 0, 67, 110
1, 559434, Note_on_c, 0, 73, 65
1, 559446, Control_c, 0, 64, 120
1, 559446, Control_c, 0, 67, 102
1, 559461, Control_c, 0, 64, 127
1, 559461, Control_c, 0, 67, 96
1, 559471, Note_off_c, 0, 76, 51
1, 559476, Control_c, 0, 67, 91
1, 559490, Control_c, 0, 67, 88
1, 559505, Control_c, 0, 67, 85
1, 559520, Control_c, 0, 67, 82
1, 559535, Control_c, 0, 67, 77
1, 559550, Control_c, 0, 67, 70
1, 559564, Control_c, 0, 67, 64
1, 559579, Control_c, 0, 67, 60
1, 559594, Control_c, 0, 67, 56
1, 559609, Control_c, 0, 67, 53
1, 559623, Control_c, 0, 67, 48
1, 559638, Control_c, 0, 67, 41
1, 559653, Control_c, 0, 67, 34
1, 559668, Control_c, 0, 67, 28
1, 559683, Control_c, 0, 67, 21
1, 559698, Control_c, 0, 67, 0
1, 559709, Note_on_c, 0, 74, 71
1, 559714, Note_off_c, 0, 62, 35
1, 559716, Note_off_c, 0, 52, 40
1, 559745, Note_off_c, 0, 59, 41
1, 559764, Note_off_c, 0, 68, 44
1, 559798, Note_off_c, 0, 73, 54
1, 559833, Note_off_c, 0, 74, 49
1, 560033, Note_on_c, 0, 74, 64
1, 560038, Control_c, 0, 64, 80
1, 560042, Note_on_c, 0, 58, 43
1, 560043, Note_on_c, 0, 62, 42
1, 560052, Note_on_c, 0, 67, 38
1, 560053, Control_c, 0, 64, 61
1, 560068, Control_c, 0, 64, 0
1, 560164, Control_c, 0, 64, 38
1, 560179, Control_c, 0, 64, 57
1, 560195, Control_c, 0, 64, 64
1, 560210, Control_c, 0, 64, 68
1, 560225, Control_c, 0, 64, 69
1, 560239, Control_c, 0, 64, 70
1, 560254, Control_c, 0, 64, 71
1, 560269, Control_c, 0, 64, 72
1, 560284, Control_c, 0, 64, 75
1, 560299, Control_c, 0, 64, 78
1, 560313, Control_c, 0, 64, 81
1, 560328, Control_c, 0, 64, 83
1, 560328, Control_c, 0, 67, 19
1, 560343, Control_c, 0, 64, 85
1, 560345, Note_off_c, 0, 67, 50
1, 560358, Control_c, 0, 64, 87
1, 560373, Control_c, 0, 64, 89
1, 560373, Control_c, 0, 67, 21
1, 560387, Control_c, 0, 64, 92
1, 560402, Control_c, 0, 64, 95
1, 560417, Control_c, 0, 64, 98
1, 560417, Control_c, 0, 67, 24
1, 560432, Control_c, 0, 64, 101
1, 560446, Control_c, 0, 64, 105
1, 560461, Control_c, 0, 64, 108
1, 560476, Control_c, 0, 64, 112
1, 560491, Control_c, 0, 64, 116
1, 560491, Control_c, 0, 67, 26
1, 560506, Control_c, 0, 64, 122
1, 560506, Control_c, 0, 67, 28
1, 560521, Control_c, 0, 64, 127
1, 560521, Control_c, 0, 67, 32
1, 560536, Control_c, 0, 67, 36
1, 560550, Control_c, 0, 67, 39
1, 560565, Control_c, 0, 67, 42
1, 560580, Control_c, 0, 67, 47
1, 560595, Control_c, 0, 67, 55
1, 560610, Control_c, 0, 67, 65
1, 560625, Control_c, 0, 67, 75
1, 560639, Control_c, 0, 67, 80
1, 560654, Control_c, 0, 67, 83
1, 560669, Control_c, 0, 67, 86
1, 560684, Control_c, 0, 67, 88
1, 560690, Note_on_c, 0, 67, 55
1, 560699, Control_c, 0, 67, 89
1, 560713, Control_c, 0, 67, 89
1, 560743, Control_c, 0, 67, 89
1, 560802, Control_c, 0, 67, 88
1, 560817, Control_c, 0, 67, 88
1, 560831, Control_c, 0, 67, 87
1, 560846, Control_c, 0, 67, 87
1, 560869, Control_c, 0, 67, 86
1, 560884, Control_c, 0, 67, 86
1, 560913, Control_c, 0, 67, 85
1, 560943, Control_c, 0, 67, 85
1, 560972, Control_c, 0, 67, 84
1, 561033, Control_c, 0, 67, 84
1, 561136, Control_c, 0, 67, 83
1, 561151, Control_c, 0, 67, 83
1, 561363, Note_on_c, 0, 60, 47
1, 561373, Note_on_c, 0, 57, 47
1, 561373, Control_c, 0, 64, 105
1, 561388, Control_c, 0, 64, 85
1, 561403, Note_on_c, 0, 65, 58
1, 561403, Control_c, 0, 64, 71
1, 561412, Note_off_c, 0, 62, 36
1, 561418, Control_c, 0, 64, 61
1, 561424, Note_off_c, 0, 58, 32
1, 561433, Control_c, 0, 64, 52
1, 561448, Control_c, 0, 64, 50
1, 561462, Control_c, 0, 64, 55
1, 561462, Control_c, 0, 67, 82
1, 561477, Control_c, 0, 64, 63
1, 561492, Control_c, 0, 64, 67
1, 561507, Control_c, 0, 64, 70
1, 561522, Control_c, 0, 64, 73
1, 561522, Control_c, 0, 67, 82
1, 561536, Control_c, 0, 64, 74
1, 561536, Control_c, 0, 67, 81
1, 561551, Control_c, 0, 64, 75
1, 561566, Control_c, 0, 64, 76
1, 561566, Control_c, 0, 67, 80
1, 561580, Control_c, 0, 64, 78
1, 561580, Control_c, 0, 67, 80
1, 561595, Control_c, 0, 64, 79
1, 561618, Control_c, 0, 64, 81
1, 561632, Control_c, 0, 64, 82
1, 561632, Control_c, 0, 67, 79
1, 561647, Control_c, 0, 64, 84
1, 561656, Note_off_c, 0, 74, 52
1, 561658, Note_on_c, 0, 69, 67
1, 561662, Control_c, 0, 64, 85
1, 561662, Control_c, 0, 67, 79
1, 561677, Control_c, 0, 64, 87
1, 561680, Note_off_c, 0, 67, 35
1, 561692, Control_c, 0, 64, 88
1, 561692, Control_c, 0, 67, 78
1, 561707, Control_c, 0, 64, 89
1, 561722, Control_c, 0, 64, 91
1, 561736, Control_c, 0, 64, 92
1, 561751, Control_c, 0, 64, 94
1, 561751, Control_c, 0, 67, 77
1, 561766, Control_c, 0, 64, 96
1, 561781, Control_c, 0, 64, 99
1, 561793, Note_off_c, 0, 65, 55
1, 561796, Control_c, 0, 64, 101
1, 561826, Control_c, 0, 64, 104
1, 561894, Note_off_c, 0, 57, 60
1, 561915, Note_on_c, 0, 55, 49
1, 561917, Note_on_c, 0, 58, 54
1, 561930, Control_c, 0, 67, 78
1, 561945, Control_c, 0, 67, 78
1, 561959, Control_c, 0, 64, 101
1, 561974, Control_c, 0, 64, 86
1, 561974, Control_c, 0, 67, 79
1, 561989, Control_c, 0, 64, 71
1, 561992, Note_off_c, 0, 69, 60
1, 561993, Note_on_c, 0, 70, 72
1, 562004, Control_c, 0, 64, 55
1, 562010, Note_on_c, 0, 64, 51
1, 562011, Note_off_c, 0, 60, 37
1, 562018, Control_c, 0, 64, 0
1, 562107, Control_c, 0, 64, 49
1, 562122, Control_c, 0, 64, 60
1, 562137, Control_c, 0, 64, 64
1, 562152, Control_c, 0, 64, 64
1, 562167, Control_c, 0, 67, 78
1, 562211, Control_c, 0, 64, 65
1, 562226, Control_c, 0, 64, 65
1, 562241, Control_c, 0, 64, 66
1, 562256, Control_c, 0, 64, 66
1, 562271, Control_c, 0, 64, 67
1, 562285, Control_c, 0, 64, 67
1, 562345, Control_c, 0, 64, 68
1, 562367, Control_c, 0, 64, 68
1, 562372, Note_on_c, 0, 74, 71
1, 562382, Control_c, 0, 64, 69
1, 562397, Control_c, 0, 64, 70
1, 562411, Control_c, 0, 64, 71
1, 562426, Control_c, 0, 64, 72
1, 562426, Control_c, 0, 67, 79
1, 562441, Control_c, 0, 64, 73
1, 562456, Control_c, 0, 64, 75
1, 562471, Control_c, 0, 64, 77
1, 562486, Control_c, 0, 64, 79
1, 562500, Control_c, 0, 64, 82
1, 562515, Control_c, 0, 64, 85
1, 562530, Control_c, 0, 64, 88
1, 562545, Control_c, 0, 64, 92
1, 562560, Control_c, 0, 64, 97
1, 562574, Control_c, 0, 64, 104
1, 562590, Control_c, 0, 64, 111
1, 562605, Control_c, 0, 64, 127
1, 562723, Control_c, 0, 67, 79
1, 562854, Note_off_c, 0, 55, 22
1, 562944, Note_off_c, 0, 74, 33
1, 563002, Note_on_c, 0, 72, 70
1, 563050, Note_off_c, 0, 70, 57
1, 563065, Note_off_c, 0, 64, 61
1, 563175, Control_c, 0, 67, 80
1, 563261, Note_on_c, 0, 54, 53
1, 563309, Control_c, 0, 64, 96
1, 563311, Note_on_c, 0, 69, 65
1, 563317, Note_on_c, 0, 63, 59
1, 563323, Control_c, 0, 64, 74
1, 563333, Note_off_c, 0, 72, 60
1, 563338, Control_c, 0, 64, 60
1, 563353, Control_c, 0, 64, 40
1, 563367, Control_c, 0, 64, 0
1, 563384, Control_c, 0, 64, 47
1, 563399, Control_c, 0, 64, 62
1, 563413, Control_c, 0, 64, 71
1, 563428, Control_c, 0, 64, 80
1, 563443, Control_c, 0, 64, 86
1, 563457, Control_c, 0, 64, 87
1, 563472, Control_c, 0, 64, 87
1, 563487, Control_c, 0, 64, 88
1, 563502, Control_c, 0, 64, 90
1, 563507, Note_off_c, 0, 58, 59
1, 563517, Control_c, 0, 64, 91
1, 563531, Control_c, 0, 64, 94
1, 563534, Note_off_c, 0, 54, 61
1, 563546, Control_c, 0, 64, 96
1, 563561, Control_c, 0, 64, 99
1, 563561, Control_c, 0, 67, 80
1, 563576, Control_c, 0, 64, 101
1, 563591, Control_c, 0, 64, 104
1, 563591, Control_c, 0, 67, 81
1, 563592, Note_on_c, 0, 70, 71
1, 563606, Control_c, 0, 64, 106
1, 563620, Note_off_c, 0, 69, 56
1, 563621, Control_c, 0, 64, 109
1, 563627, Note_off_c, 0, 63, 53
1, 563636, Control_c, 0, 64, 112
1, 563651, Control_c, 0, 64, 116
1, 563658, Note_off_c, 0, 70, 60
1, 563663, Control_c, 0, 64, 127
1, 563892, Note_on_c, 0, 53, 46
1, 563898, Note_on_c, 0, 46, 46
1, 563937, Control_c, 0, 64, 95
1, 563952, Control_c, 0, 64, 74
1, 563967, Control_c, 0, 64, 55
1, 563972, Note_on_c, 0, 70, 58
1, 563980, Note_on_c, 0, 62, 44
1, 563981, Control_c, 0, 64, 0
1, 564056, Control_c, 0, 64, 45
1, 564071, Control_c, 0, 64, 61
1, 564086, Control_c, 0, 64, 67
1, 564101, Control_c, 0, 64, 70
1, 564116, Control_c, 0, 64, 70
1, 564309, Control_c, 0, 67, 81
1, 564334, Note_on_c, 0, 65, 60
1, 564353, Control_c, 0, 67, 82
1, 564485, Note_off_c, 0, 70, 30
1, 564646, Note_off_c, 0, 53, 50
1, 564664, Note_on_c, 0, 52, 39
1, 564688, Note_on_c, 0, 61, 46
1, 564697, Note_off_c, 0, 62, 51
1, 564760, Control_c, 0, 64, 71
1, 564849, Control_c, 0, 64, 71
1, 564879, Control_c, 0, 64, 72
1, 564894, Control_c, 0, 64, 72
1, 564907, Note_off_c, 0, 61, 57
1, 564923, Control_c, 0, 64, 73
1, 564938, Control_c, 0, 64, 74
1, 564944, Note_off_c, 0, 65, 41
1, 564953, Control_c, 0, 64, 74
1, 564968, Control_c, 0, 64, 76
1, 564983, Control_c, 0, 64, 77
1, 564998, Control_c, 0, 64, 78
1, 565013, Control_c, 0, 64, 80
1, 565028, Control_c, 0, 64, 81
1, 565043, Control_c, 0, 64, 82
1, 565058, Control_c, 0, 64, 84
1, 565072, Control_c, 0, 64, 86
1, 565087, Control_c, 0, 64, 87
1, 565102, Control_c, 0, 64, 88
1, 565117, Control_c, 0, 64, 90
1, 565132, Control_c, 0, 64, 91
1, 565147, Control_c, 0, 64, 92
1, 565162, Control_c, 0, 64, 93
1, 565177, Control_c, 0, 64, 94
1, 565188, Note_on_c, 0, 51, 53
1, 565192, Control_c, 0, 64, 94
1, 565221, Control_c, 0, 64, 92
1, 565236, Control_c, 0, 64, 83
1, 565251, Control_c, 0, 64, 74
1, 565255, Note_on_c, 0, 67, 61
1, 565260, Note_on_c, 0, 60, 55
1, 565266, Control_c, 0, 64, 67
1, 565266, Control_c, 0, 67, 81
1, 565280, Note_off_c, 0, 52, 36
1, 565281, Control_c, 0, 64, 66
1, 565296, Control_c, 0, 64, 67
1, 565310, Control_c, 0, 64, 71
1, 565325, Control_c, 0, 64, 74
1, 565340, Control_c, 0, 64, 78
1, 565362, Control_c, 0, 64, 82
1, 565372, Note_off_c, 0, 46, 37
1, 565376, Control_c, 0, 64, 87
1, 565391, Control_c, 0, 64, 92
1, 565391, Control_c, 0, 67, 81
1, 565406, Control_c, 0, 64, 99
1, 565421, Control_c, 0, 64, 115
1, 565436, Control_c, 0, 64, 127
1, 565474, Note_off_c, 0, 60, 32
1, 565481, Control_c, 0, 67, 80
1, 565569, Control_c, 0, 67, 80
1, 565754, Note_on_c, 0, 69, 62
1, 565794, Note_off_c, 0, 67, 42
1, 565837, Control_c, 0, 67, 80
1, 565866, Control_c, 0, 67, 81
1, 565896, Control_c, 0, 67, 82
1, 565907, Note_on_c, 0, 50, 50
1, 565923, Note_on_c, 0, 43, 40
1, 565925, Control_c, 0, 67, 82
1, 565940, Note_off_c, 0, 51, 45
1, 565940, Control_c, 0, 64, 102
1, 565940, Control_c, 0, 67, 83
1, 565946, Note_off_c, 0, 69, 57
1, 565953, Note_on_c, 0, 67, 64
1, 565955, Control_c, 0, 64, 65
1, 565970, Control_c, 0, 64, 0
1, 565975, Note_on_c, 0, 59, 48
1, 566044, Control_c, 0, 64, 36
1, 566059, Control_c, 0, 64, 55
1, 566074, Control_c, 0, 64, 63
1, 566089, Control_c, 0, 64, 65
1, 566111, Control_c, 0, 64, 65
1, 566126, Control_c, 0, 64, 66
1, 566140, Control_c, 0, 64, 66
1, 566155, Control_c, 0, 64, 67
1, 566170, Control_c, 0, 64, 67
1, 566184, Control_c, 0, 64, 68
1, 566199, Control_c, 0, 64, 69
1, 566214, Control_c, 0, 64, 70
1, 566229, Control_c, 0, 64, 72
1, 566244, Control_c, 0, 64, 73
1, 566259, Control_c, 0, 64, 75
1, 566274, Control_c, 0, 64, 76
1, 566274, Note_on_c, 0, 62, 57
1, 566289, Control_c, 0, 64, 78
1, 566304, Control_c, 0, 64, 80
1, 566318, Control_c, 0, 64, 82
1, 566333, Control_c, 0, 64, 85
1, 566348, Control_c, 0, 64, 88
1, 566363, Control_c, 0, 64, 91
1, 566364, Note_off_c, 0, 59, 39
1, 566377, Control_c, 0, 64, 94
1, 566392, Control_c, 0, 64, 98
1, 566407, Control_c, 0, 64, 100
1, 566422, Control_c, 0, 64, 102
1, 566437, Control_c, 0, 64, 105
1, 566451, Control_c, 0, 64, 111
1, 566466, Control_c, 0, 64, 122
1, 566481, Control_c, 0, 64, 127
1, 566481, Control_c, 0, 67, 83
1, 566510, Control_c, 0, 67, 84
1, 566525, Control_c, 0, 64, 112
1, 566540, Control_c, 0, 64, 85
1, 566555, Control_c, 0, 64, 68
1, 566570, Control_c, 0, 64, 60
1, 566571, Note_on_c, 0, 49, 48
1, 566586, Control_c, 0, 64, 59
1, 566596, Note_on_c, 0, 58, 47
1, 566600, Control_c, 0, 64, 62
1, 566615, Control_c, 0, 64, 66
1, 566630, Control_c, 0, 64, 70
1, 566645, Control_c, 0, 64, 74
1, 566645, Control_c, 0, 67, 84
1, 566659, Control_c, 0, 64, 76
1, 566673, Control_c, 0, 64, 76
1, 566688, Control_c, 0, 64, 78
1, 566703, Control_c, 0, 64, 79
1, 566712, Note_off_c, 0, 50, 29
1, 566718, Control_c, 0, 64, 81
1, 566733, Control_c, 0, 64, 82
1, 566739, Note_off_c, 0, 43, 35
1, 566748, Control_c, 0, 64, 85
1, 566763, Control_c, 0, 64, 87
1, 566778, Control_c, 0, 64, 90
1, 566792, Control_c, 0, 64, 92
1, 566807, Control_c, 0, 64, 96
1, 566822, Control_c, 0, 64, 99
1, 566822, Control_c, 0, 67, 85
1, 566837, Control_c, 0, 64, 102
1, 566859, Control_c, 0, 64, 106
1, 566874, Control_c, 0, 64, 112
1, 566888, Control_c, 0, 64, 122
1, 566903, Control_c, 0, 64, 127
1, 566909, Note_off_c, 0, 67, 37
1, 566923, Note_on_c, 0, 64, 59
1, 567014, Note_off_c, 0, 58, 37
1, 567111, Control_c, 0, 67, 85
1, 567126, Control_c, 0, 67, 86
1, 567170, Control_c, 0, 67, 86
1, 567185, Control_c, 0, 67, 87
1, 567214, Control_c, 0, 67, 88
1, 567244, Control_c, 0, 64, 86
1, 567244, Control_c, 0, 67, 89
1, 567249, Note_on_c, 0, 48, 44
1, 567255, Note_on_c, 0, 41, 40
1, 567259, Control_c, 0, 64, 66
1, 567272, Note_off_c, 0, 49, 39
1, 567273, Control_c, 0, 64, 57
1, 567273, Control_c, 0, 67, 90
1, 567275, Note_on_c, 0, 57, 51
1, 567288, Control_c, 0, 64, 54
1, 567288, Control_c, 0, 67, 90
1, 567296, Note_off_c, 0, 62, 41
1, 567303, Control_c, 0, 64, 58
1, 567303, Control_c, 0, 67, 91
1, 567318, Control_c, 0, 64, 64
1, 567318, Control_c, 0, 67, 92
1, 567332, Control_c, 0, 64, 69
1, 567332, Control_c, 0, 67, 99
1, 567347, Control_c, 0, 64, 76
1, 567347, Control_c, 0, 67, 106
1, 567362, Control_c, 0, 64, 80
1, 567362, Control_c, 0, 67, 110
1, 567378, Control_c, 0, 64, 82
1, 567378, Control_c, 0, 67, 114
1, 567393, Control_c, 0, 64, 83
1, 567393, Control_c, 0, 67, 117
1, 567409, Control_c, 0, 64, 85
1, 567409, Control_c, 0, 67, 121
1, 567423, Control_c, 0, 64, 88
1, 567423, Control_c, 0, 67, 124
1, 567438, Control_c, 0, 64, 92
1, 567438, Control_c, 0, 67, 127
1, 567453, Control_c, 0, 64, 98
1, 567468, Control_c, 0, 64, 104
1, 567483, Control_c, 0, 64, 114
1, 567497, Control_c, 0, 64, 127
1, 567571, Control_c, 0, 64, 99
1, 567586, Control_c, 0, 64, 75
1, 567609, Control_c, 0, 64, 59
1, 567612, Note_on_c, 0, 65, 67
1, 567613, Note_on_c, 0, 47, 48
1, 567621, Note_off_c, 0, 64, 39
1, 567624, Control_c, 0, 64, 44
1, 567638, Control_c, 0, 64, 48
1, 567653, Control_c, 0, 64, 61
1, 567668, Control_c, 0, 64, 69
1, 567683, Control_c, 0, 64, 79
1, 567698, Control_c, 0, 64, 86
1, 567711, Note_off_c, 0, 41, 40
1, 567712, Control_c, 0, 64, 87
1, 567722, Note_off_c, 0, 48, 32
1, 567727, Control_c, 0, 64, 88
1, 567734, Note_off_c, 0, 47, 62
1, 567739, Note_off_c, 0, 57, 42
1, 567742, Control_c, 0, 64, 88
1, 567845, Control_c, 0, 64, 89
1, 567949, Control_c, 0, 64, 88
1, 567964, Control_c, 0, 64, 87
1, 567979, Control_c, 0, 64, 85
1, 567994, Control_c, 0, 64, 80
1, 568009, Control_c, 0, 64, 73
1, 568015, Note_off_c, 0, 65, 61
1, 568023, Control_c, 0, 64, 65
1, 568024, Note_on_c, 0, 64, 54
1, 568038, Note_on_c, 0, 55, 43
1, 568038, Control_c, 0, 64, 55
1, 568039, Note_on_c, 0, 36, 38
1, 568043, Note_on_c, 0, 48, 34
1, 568043, Note_on_c, 0, 60, 41
1, 568053, Control_c, 0, 64, 0
1, 568202, Control_c, 0, 64, 51
1, 568217, Control_c, 0, 64, 63
1, 568232, Control_c, 0, 64, 68
1, 568246, Control_c, 0, 64, 69
1, 568261, Control_c, 0, 64, 70
1, 568276, Control_c, 0, 64, 70
1, 568291, Control_c, 0, 64, 71
1, 568306, Control_c, 0, 64, 72
1, 568320, Control_c, 0, 64, 73
1, 568335, Control_c, 0, 64, 76
1, 568357, Control_c, 0, 64, 78
1, 568372, Control_c, 0, 64, 81
1, 568387, Control_c, 0, 64, 83
1, 568402, Control_c, 0, 64, 85
1, 568417, Control_c, 0, 64, 87
1, 568432, Control_c, 0, 64, 88
1, 568447, Control_c, 0, 64, 90
1, 568461, Control_c, 0, 64, 92
1, 568476, Control_c, 0, 64, 94
1, 568491, Control_c, 0, 64, 96
1, 568505, Control_c, 0, 64, 99
1, 568520, Control_c, 0, 64, 101
1, 568527, Note_off_c, 0, 55, 38
1, 568535, Control_c, 0, 64, 103
1, 568550, Control_c, 0, 64, 105
1, 568579, Control_c, 0, 64, 107
1, 568602, Note_off_c, 0, 60, 39
1, 568615, Note_off_c, 0, 36, 37
1, 568763, Note_off_c, 0, 48, 17
1, 568772, Note_off_c, 0, 64, 45
1, 569055, Control_c, 0, 64, 105
1, 569084, Control_c, 0, 64, 102
1, 569121, Control_c, 0, 64, 99
1, 569150, Control_c, 0, 64, 96
1, 569165, Control_c, 0, 64, 94
1, 569180, Control_c, 0, 64, 92
1, 569195, Control_c, 0, 64, 91
1, 569210, Control_c, 0, 64, 89
1, 569225, Control_c, 0, 64, 86
1, 569240, Control_c, 0, 64, 84
1, 569255, Control_c, 0, 64, 81
1, 569270, Control_c, 0, 64, 78
1, 569284, Control_c, 0, 64, 75
1, 569287, Note_on_c, 0, 62, 45
1, 569296, Note_on_c, 0, 53, 33
1, 569297, Note_on_c, 0, 48, 27
1, 569299, Note_on_c, 0, 33, 34
1, 569299, Control_c, 0, 64, 70
1, 569299, Note_on_c, 0, 60, 26
1, 569314, Control_c, 0, 64, 64
1, 569328, Control_c, 0, 64, 53
1, 569343, Control_c, 0, 64, 0
1, 569491, Control_c, 0, 64, 46
1, 569506, Control_c, 0, 64, 60
1, 569520, Control_c, 0, 64, 66
1, 569535, Control_c, 0, 64, 69
1, 569550, Control_c, 0, 64, 70
1, 569580, Control_c, 0, 64, 70
1, 569594, Control_c, 0, 64, 71
1, 569609, Control_c, 0, 64, 73
1, 569624, Control_c, 0, 64, 75
1, 569639, Control_c, 0, 64, 77
1, 569654, Control_c, 0, 64, 80
1, 569669, Control_c, 0, 64, 82
1, 569684, Control_c, 0, 64, 85
1, 569699, Control_c, 0, 64, 88
1, 569714, Control_c, 0, 64, 90
1, 569728, Control_c, 0, 64, 93
1, 569743, Control_c, 0, 64, 96
1, 569758, Control_c, 0, 64, 98
1, 569773, Control_c, 0, 64, 101
1, 569782, Note_off_c, 0, 53, 24
1, 569788, Control_c, 0, 64, 104
1, 569796, Note_off_c, 0, 33, 31
1, 569803, Control_c, 0, 64, 106
1, 569818, Control_c, 0, 64, 109
1, 569833, Control_c, 0, 64, 112
1, 569855, Control_c, 0, 64, 115
1, 569861, Note_off_c, 0, 60, 32
1, 569870, Control_c, 0, 64, 120
1, 569875, Note_off_c, 0, 62, 34
1, 569885, Control_c, 0, 64, 127
1, 570071, Note_off_c, 0, 48, 33
1, 570915, Control_c, 0, 64, 124
1, 570930, Control_c, 0, 64, 122
1, 570945, Control_c, 0, 64, 119
1, 570974, Control_c, 0, 64, 115
1, 571004, Control_c, 0, 64, 112
1, 571034, Control_c, 0, 64, 109
1, 571063, Control_c, 0, 64, 106
1, 571078, Control_c, 0, 64, 103
1, 571092, Control_c, 0, 64, 100
1, 571107, Control_c, 0, 64, 95
1, 571122, Control_c, 0, 64, 91
1, 571135, Note_on_c, 0, 43, 23
1, 571137, Control_c, 0, 64, 85
1, 571145, Note_on_c, 0, 64, 32
1, 571147, Note_on_c, 0, 55, 33
1, 571152, Control_c, 0, 64, 81
1, 571154, Note_on_c, 0, 48, 8
1, 571156, Note_on_c, 0, 60, 30
1, 571166, Note_on_c, 0, 36, 14
1, 571166, Control_c, 0, 64, 76
1, 571181, Control_c, 0, 64, 70
1, 571196, Control_c, 0, 64, 64
1, 571211, Control_c, 0, 64, 55
1, 571226, Control_c, 0, 64, 42
1, 571240, Control_c, 0, 64, 0
1, 571457, Control_c, 0, 64, 40
1, 571471, Control_c, 0, 64, 51
1, 571486, Control_c, 0, 64, 57
1, 571501, Control_c, 0, 64, 61
1, 571516, Control_c, 0, 64, 62
1, 571589, Control_c, 0, 64, 62
1, 571604, Control_c, 0, 64, 63
1, 571619, Control_c, 0, 64, 64
1, 571634, Control_c, 0, 64, 64
1, 571649, Control_c, 0, 64, 65
1, 571664, Control_c, 0, 64, 66
1, 571678, Control_c, 0, 64, 67
1, 571693, Control_c, 0, 64, 67
1, 571708, Control_c, 0, 64, 68
1, 571723, Control_c, 0, 64, 68
1, 571738, Control_c, 0, 64, 69
1, 571753, Control_c, 0, 64, 70
1, 571768, Control_c, 0, 64, 71
1, 571782, Control_c, 0, 64, 71
1, 571797, Control_c, 0, 64, 72
1, 571812, Control_c, 0, 64, 73
1, 571827, Control_c, 0, 64, 73
1, 571841, Control_c, 0, 64, 74
1, 571856, Control_c, 0, 64, 75
1, 571871, Control_c, 0, 64, 76
1, 571886, Control_c, 0, 64, 76
1, 571901, Control_c, 0, 64, 77
1, 571915, Control_c, 0, 64, 77
1, 571930, Control_c, 0, 64, 78
1, 571945, Control_c, 0, 64, 78
1, 571960, Control_c, 0, 64, 79
1, 571975, Control_c, 0, 64, 79
1, 571989, Control_c, 0, 64, 80
1, 572004, Control_c, 0, 64, 80
1, 572019, Control_c, 0, 64, 81
1, 572034, Control_c, 0, 64, 81
1, 572048, Control_c, 0, 64, 82
1, 572063, Control_c, 0, 64, 82
1, 572078, Control_c, 0, 64, 83
1, 572116, Control_c, 0, 64, 84
1, 572130, Control_c, 0, 64, 84
1, 572160, Control_c, 0, 64, 85
1, 572191, Control_c, 0, 64, 85
1, 572206, Control_c, 0, 64, 86
1, 572220, Control_c, 0, 64, 86
1, 572250, Control_c, 0, 64, 87
1, 572279, Control_c, 0, 64, 87
1, 572339, Control_c, 0, 64, 88
1, 572501, Control_c, 0, 64, 88
1, 572590, Control_c, 0, 64, 89
1, 572620, Control_c, 0, 64, 89
1, 572650, Control_c, 0, 64, 90
1, 572665, Control_c, 0, 64, 90
1, 572680, Control_c, 0, 64, 91
1, 572710, Control_c, 0, 64, 91
1, 572724, Control_c, 0, 64, 92
1, 572739, Control_c, 0, 64, 93
1, 572754, Control_c, 0, 64, 93
1, 572769, Control_c, 0, 64, 94
1, 572776, Note_off_c, 0, 55, 44
1, 572784, Control_c, 0, 64, 94
1, 572799, Control_c, 0, 64, 95
1, 572813, Control_c, 0, 64, 96
1, 572849, Note_off_c, 0, 48, 37
1, 572850, Control_c, 0, 64, 98
1, 572879, Control_c, 0, 64, 100
1, 572909, Control_c, 0, 64, 102
1, 572939, Control_c, 0, 64, 105
1, 572969, Control_c, 0, 64, 108
1, 572984, Note_off_c, 0, 43, 40
1, 572984, Control_c, 0, 64, 111
1, 572999, Control_c, 0, 64, 116
1, 573014, Control_c, 0, 64, 127
1, 573062, Note_off_c, 0, 36, 39
1, 573207, Control_c, 0, 67, 121
1, 573214, Note_off_c, 0, 64, 36
1, 573222, Control_c, 0, 67, 111
1, 573234, Note_off_c, 0, 60, 45
1, 573237, Control_c, 0, 67, 96
1, 573251, Control_c, 0, 67, 67
1, 573266, Control_c, 0, 67, 27
1, 573281, Control_c, 0, 67, 0
1, 573310, Control_c, 0, 64, 74
1, 573325, Control_c, 0, 64, 0
1, 573383, Note_on_c, 0, 41, 101
1, 573384, Control_c, 0, 64, 68
1, 573385, Note_on_c, 0, 29, 96
1, 573399, Control_c, 0, 64, 127
1, 573399, Control_c, 0, 67, 75
1, 573414, Control_c, 0, 67, 116
1, 573429, Control_c, 0, 67, 104
1, 573434, Note_off_c, 0, 29, 63
1, 573443, Control_c, 0, 67, 86
1, 573458, Control_c, 0, 67, 51
1, 573473, Control_c, 0, 67, 0
1, 573501, Note_off_c, 0, 41, 60
1, 573613, Note_on_c, 0, 89, 104
1, 573783, Note_on_c, 0, 88, 99
1, 573815, Note_off_c, 0, 89, 65
1, 573902, Note_on_c, 0, 67, 105
1, 573904, Note_on_c, 0, 87, 110
1, 573905, Note_on_c, 0, 55, 92
1, 573907, Note_on_c, 0, 64, 90
1, 573913, Note_on_c, 0, 58, 84
1, 573914, Note_on_c, 0, 61, 90
1, 573923, Note_off_c, 0, 88, 63
1, 573937, Note_off_c, 0, 58, 67
1, 573938, Note_off_c, 0, 67, 70
1, 573939, Note_off_c, 0, 55, 66
1, 573941, Control_c, 0, 67, 119
1, 573951, Note_off_c, 0, 64, 68
1, 573956, Note_off_c, 0, 61, 64
1, 573956, Control_c, 0, 67, 127
1, 574000, Control_c, 0, 67, 111
1, 574006, Note_on_c, 0, 85, 96
1, 574015, Control_c, 0, 67, 89
1, 574030, Note_off_c, 0, 87, 64
1, 574030, Control_c, 0, 67, 85
1, 574059, Control_c, 0, 67, 81
1, 574074, Control_c, 0, 67, 69
1, 574089, Control_c, 0, 67, 51
1, 574097, Note_on_c, 0, 82, 95
1, 574104, Control_c, 0, 67, 34
1, 574107, Note_off_c, 0, 85, 62
1, 574118, Control_c, 0, 67, 22
1, 574131, Note_off_c, 0, 82, 64
1, 574133, Control_c, 0, 67, 0
1, 574200, Note_on_c, 0, 79, 89
1, 574256, Note_off_c, 0, 79, 65
1, 574260, Note_on_c, 0, 77, 84
1, 574322, Note_off_c, 0, 77, 69
1, 574353, Note_on_c, 0, 76, 89
1, 574388, Note_off_c, 0, 76, 68
1, 574430, Note_on_c, 0, 76, 79
1, 574466, Note_on_c, 0, 73, 88
1, 574534, Note_on_c, 0, 70, 79
1, 574534, Note_off_c, 0, 76, 56
1, 574564, Note_off_c, 0, 73, 60
1, 574586, Note_on_c, 0, 71, 30
1, 574590, Note_off_c, 0, 70, 65
1, 574593, Note_on_c, 0, 67, 85
1, 574619, Note_off_c, 0, 71, 49
1, 574626, Note_off_c, 0, 67, 64
1, 574657, Note_on_c, 0, 65, 87
1, 574706, Note_on_c, 0, 64, 86
1, 574707, Note_off_c, 0, 65, 67
1, 574753, Note_off_c, 0, 64, 68
1, 574786, Note_on_c, 0, 63, 89
1, 574843, Note_on_c, 0, 61, 84
1, 574902, Note_on_c, 0, 58, 81
1, 574933, Note_off_c, 0, 63, 61
1, 574948, Note_off_c, 0, 61, 63
1, 574963, Note_on_c, 0, 55, 86
1, 574984, Note_off_c, 0, 58, 63
1, 575008, Note_off_c, 0, 55, 64
1, 575074, Control_c, 0, 64, 95
1, 575080, Note_on_c, 0, 41, 98
1, 575088, Note_on_c, 0, 50, 99
1, 575091, Note_on_c, 0, 34, 96
1, 575091, Note_on_c, 0, 62, 97
1, 575091, Note_on_c, 0, 58, 92
1, 575097, Control_c, 0, 64, 61
1, 575108, Note_off_c, 0, 41, 71
1, 575108, Note_off_c, 0, 50, 70
1, 575109, Note_off_c, 0, 58, 73
1, 575109, Note_off_c, 0, 62, 73
1, 575110, Note_off_c, 0, 34, 67
1, 575112, Control_c, 0, 64, 0
1, 575239, Poly_aftertouch_c, 0, 34, 0
1, 575877, Note_on_c, 0, 41, 94
1, 575878, Note_on_c, 0, 50, 90
1, 575878, Note_on_c, 0, 62, 88
1, 575879, Note_on_c, 0, 34, 89
1, 575883, Note_on_c, 0, 53, 83
1, 575885, Note_on_c, 0, 58, 80
1, 575905, Note_off_c, 0, 34, 67
1, 575912, Note_off_c, 0, 41, 64
1, 575913, Note_off_c, 0, 53, 66
1, 575917, Note_off_c, 0, 50, 62
1, 575917, Note_off_c, 0, 62, 63
1, 575929, Note_off_c, 0, 58, 62
1, 576621, Note_on_c, 0, 41, 72
1, 576624, Note_on_c, 0, 62, 72
1, 576626, Note_on_c, 0, 50, 74
1, 576629, Note_on_c, 0, 58, 70
1, 576632, Note_on_c, 0, 53, 64
1, 576635, Note_on_c, 0, 34, 53
1, 576650, Note_off_c, 0, 41, 63
1, 576652, Note_off_c, 0, 50, 65
1, 576654, Note_off_c, 0, 62, 62
1, 576657, Note_off_c, 0, 58, 67
1, 576660, Note_off_c, 0, 53, 65
1, 576662, Note_off_c, 0, 34, 59
1, 576720, Note_on_c, 0, 50, 74
1, 576724, Note_on_c, 0, 41, 68
1, 576726, Note_on_c, 0, 53, 70
1, 576731, Note_on_c, 0, 58, 69
1, 576731, Note_on_c, 0, 62, 70
1, 576736, Note_on_c, 0, 34, 65
1, 576747, Note_off_c, 0, 50, 67
1, 576753, Note_off_c, 0, 53, 66
1, 576755, Note_off_c, 0, 41, 63
1, 576758, Note_off_c, 0, 62, 68
1, 576762, Note_off_c, 0, 58, 67
1, 576768, Note_off_c, 0, 34, 64
1, 576807, Note_on_c, 0, 41, 88
1, 576814, Note_on_c, 0, 50, 85
1, 576815, Note_on_c, 0, 34, 78
1, 576815, Note_on_c, 0, 53, 73
1, 576821, Note_on_c, 0, 58, 72
1, 576821, Note_on_c, 0, 62, 75
1, 576835, Note_off_c, 0, 41, 65
1, 576835, Note_off_c, 0, 50, 70
1, 576838, Note_off_c, 0, 34, 65
1, 576838, Note_off_c, 0, 53, 66
1, 576846, Note_off_c, 0, 58, 70
1, 576846, Note_off_c, 0, 62, 68
1, 577022, Note_on_c, 0, 41, 97
1, 577022, Note_on_c, 0, 50, 94
1, 577024, Note_on_c, 0, 34, 90
1, 577025, Note_on_c, 0, 62, 84
1, 577025, Control_c, 0, 64, 64
1, 577026, Note_on_c, 0, 58, 76
1, 577034, Note_on_c, 0, 53, 76
1, 577040, Control_c, 0, 64, 88
1, 577043, Note_off_c, 0, 50, 69
1, 577044, Note_off_c, 0, 41, 68
1, 577046, Note_off_c, 0, 62, 70
1, 577047, Note_off_c, 0, 58, 72
1, 577047, Note_off_c, 0, 34, 68
1, 577054, Control_c, 0, 64, 127
1, 577062, Note_off_c, 0, 53, 67
1, 577188, Control_c, 0, 64, 81
1, 577202, Control_c, 0, 64, 39
1, 577217, Control_c, 0, 64, 0
1, 577462, Note_on_c, 0, 62, 60
1, 577463, Note_on_c, 0, 50, 61
1, 577467, Note_on_c, 0, 58, 55
1, 577469, Note_on_c, 0, 34, 62
1, 577471, Note_on_c, 0, 41, 65
1, 577471, Note_on_c, 0, 53, 53
1, 577492, Note_off_c, 0, 62, 64
1, 577494, Note_off_c, 0, 50, 64
1, 577500, Note_off_c, 0, 34, 64
1, 577500, Note_off_c, 0, 41, 64
1, 577500, Note_off_c, 0, 58, 65
1, 577503, Note_off_c, 0, 53, 63
1, 577560, Note_on_c, 0, 50, 73
1, 577560, Note_on_c, 0, 62, 71
1, 577565, Note_on_c, 0, 41, 79
1, 577568, Note_on_c, 0, 34, 75
1, 577569, Note_on_c, 0, 58, 72
1, 577572, Note_on_c, 0, 53, 70
1, 577589, Note_off_c, 0, 50, 64
1, 577591, Note_off_c, 0, 34, 66
1, 577595, Note_off_c, 0, 58, 68
1, 577597, Note_off_c, 0, 41, 65
1, 577597, Note_off_c, 0, 62, 63
1, 577597, Note_off_c, 0, 53, 66
1, 577655, Note_on_c, 0, 41, 102
1, 577655, Note_on_c, 0, 50, 93
1, 577656, Note_on_c, 0, 34, 92
1, 577656, Note_on_c, 0, 53, 82
1, 577658, Note_on_c, 0, 62, 83
1, 577658, Note_on_c, 0, 58, 83
1, 577678, Note_off_c, 0, 50, 68
1, 577679, Note_off_c, 0, 34, 70
1, 577679, Note_off_c, 0, 53, 69
1, 577681, Note_off_c, 0, 58, 71
1, 577681, Note_off_c, 0, 62, 68
1, 577684, Note_off_c, 0, 41, 65
1, 577995, Note_on_c, 0, 62, 33
1, 577997, Note_on_c, 0, 50, 30
1, 578006, Note_on_c, 0, 38, 55
1, 578010, Note_on_c, 0, 34, 48
1, 578025, Note_off_c, 0, 62, 44
1, 578033, Note_off_c, 0, 50, 45
1, 578041, Note_off_c, 0, 38, 64
1, 578042, Note_off_c, 0, 34, 61
1, 578110, Note_on_c, 0, 62, 59
1, 578120, Note_on_c, 0, 40, 54
1, 578136, Note_off_c, 0, 62, 63
1, 578146, Note_on_c, 0, 50, 17
1, 578147, Note_off_c, 0, 40, 54
1, 578195, Note_off_c, 0, 50, 28
1, 578200, Poly_aftertouch_c, 0, 58, 0
1, 578209, Note_on_c, 0, 57, 77
1, 578221, Note_on_c, 0, 34, 35
1, 578224, Note_on_c, 0, 38, 54
1, 578242, Note_off_c, 0, 57, 66
1, 578254, Note_off_c, 0, 38, 59
1, 578257, Note_off_c, 0, 34, 59
1, 578312, Note_on_c, 0, 41, 69
1, 578312, Note_on_c, 0, 50, 70
1, 578314, Note_on_c, 0, 58, 65
1, 578319, Note_on_c, 0, 62, 68
1, 578340, Note_off_c, 0, 50, 64
1, 578341, Note_off_c, 0, 41, 63
1, 578344, Note_off_c, 0, 58, 66
1, 578346, Note_off_c, 0, 62, 68
1, 578406, Note_on_c, 0, 38, 60
1, 578409, Note_on_c, 0, 34, 64
1, 578409, Note_on_c, 0, 56, 86
1, 578445, Note_off_c, 0, 38, 65
1, 578447, Note_off_c, 0, 34, 64
1, 578451, Note_off_c, 0, 56, 58
1, 578506, Note_on_c, 0, 42, 84
1, 578511, Note_on_c, 0, 50, 85
1, 578514, Note_on_c, 0, 62, 78
1, 578528, Note_on_c, 0, 58, 51
1, 578534, Note_off_c, 0, 50, 68
1, 578537, Note_off_c, 0, 42, 66
1, 578542, Note_off_c, 0, 62, 62
1, 578554, Note_off_c, 0, 58, 61
1, 578611, Note_on_c, 0, 34, 53
1, 578618, Note_on_c, 0, 38, 71
1, 578620, Note_on_c, 0, 55, 87
1, 578652, Note_off_c, 0, 34, 63
1, 578654, Note_off_c, 0, 55, 64
1, 578656, Note_off_c, 0, 38, 63
1, 578717, Note_on_c, 0, 41, 80
1, 578719, Note_on_c, 0, 50, 93
1, 578722, Note_on_c, 0, 62, 85
1, 578728, Note_on_c, 0, 58, 72
1, 578745, Note_off_c, 0, 50, 64
1, 578746, Note_off_c, 0, 62, 67
1, 578760, Note_off_c, 0, 41, 62
1, 578761, Note_off_c, 0, 58, 64
1, 578832, Note_on_c, 0, 54, 94
1, 578833, Note_on_c, 0, 38, 72
1, 578836, Note_on_c, 0, 34, 55
1, 578874, Note_off_c, 0, 54, 66
1, 578879, Note_off_c, 0, 38, 63
1, 578885, Note_off_c, 0, 34, 62
1, 578945, Note_on_c, 0, 50, 96
1, 578947, Note_on_c, 0, 40, 80
1, 578947, Note_on_c, 0, 62, 90
1, 578953, Note_on_c, 0, 58, 77
1, 578972, Note_off_c, 0, 50, 64
1, 578974, Note_off_c, 0, 40, 67
1, 578975, Note_off_c, 0, 62, 65
1, 578978, Note_off_c, 0, 58, 67
1, 579084, Note_on_c, 0, 22, 97
1, 579087, Note_on_c, 0, 53, 97
1, 579107, Note_on_c, 0, 52, 62
1, 579107, Note_off_c, 0, 52, 127
1, 579229, Note_off_c, 0, 53, 61
1, 579260, Note_on_c, 0, 34, 102
1, 579268, Note_on_c, 0, 49, 100
1, 579268, Note_off_c, 0, 22, 61
1, 579269, Note_on_c, 0, 54, 77
1, 579273, Note_on_c, 0, 61, 87
1, 579273, Note_on_c, 0, 58, 86
1, 579285, Control_c, 0, 64, 127
1, 579288, Note_off_c, 0, 49, 72
1, 579294, Note_off_c, 0, 54, 68
1, 579299, Note_off_c, 0, 61, 63
1, 579305, Note_off_c, 0, 58, 62
1, 579306, Note_off_c, 0, 34, 60
1, 579537, Note_on_c, 0, 42, 82
1, 579538, Note_on_c, 0, 70, 103
1, 579539, Note_on_c, 0, 73, 105
1, 579658, Note_off_c, 0, 42, 61
1, 579668, Note_off_c, 0, 73, 58
1, 579678, Note_on_c, 0, 78, 102
1, 579679, Note_on_c, 0, 58, 84
1, 579682, Note_on_c, 0, 82, 106
1, 579699, Note_off_c, 0, 70, 69
1, 579715, Note_off_c, 0, 82, 71
1, 579721, Note_off_c, 0, 78, 70
1, 579723, Note_off_c, 0, 58, 65
1, 579768, Note_on_c, 0, 49, 80
1, 579827, Note_off_c, 0, 49, 62
1, 579843, Note_on_c, 0, 42, 70
1, 579868, Note_off_c, 0, 42, 64
1, 579926, Note_on_c, 0, 34, 80
1, 579980, Note_on_c, 0, 35, 16
1, 580025, Note_off_c, 0, 35, 39
1, 580077, Note_on_c, 0, 22, 87
1, 580079, Note_on_c, 0, 73, 98
1, 580082, Note_on_c, 0, 61, 99
1, 580087, Note_on_c, 0, 70, 89
1, 580105, Note_off_c, 0, 34, 61
1, 580105, Note_off_c, 0, 61, 66
1, 580113, Note_off_c, 0, 70, 62
1, 580122, Note_off_c, 0, 73, 62
1, 580168, Note_off_c, 0, 22, 61
1, 580180, Note_on_c, 0, 34, 88
1, 580186, Note_on_c, 0, 77, 96
1, 580187, Note_on_c, 0, 68, 104
1, 580195, Note_on_c, 0, 80, 93
1, 580217, Note_off_c, 0, 34, 66
1, 580323, Note_off_c, 0, 80, 61
1, 580356, Note_on_c, 0, 42, 62
1, 580357, Note_off_c, 0, 77, 62
1, 580376, Note_on_c, 0, 44, 50
1, 580400, Note_off_c, 0, 42, 64
1, 580408, Note_off_c, 0, 44, 56
1, 580412, Note_on_c, 0, 58, 81
1, 580421, Note_off_c, 0, 68, 59
1, 580459, Note_off_c, 0, 58, 64
1, 580497, Note_on_c, 0, 49, 77
1, 580554, Note_off_c, 0, 49, 63
1, 580567, Note_on_c, 0, 61, 83
1, 580568, Note_on_c, 0, 73, 90
1, 580570, Note_on_c, 0, 42, 69
1, 580574, Note_on_c, 0, 70, 71
1, 580585, Note_off_c, 0, 73, 73
1, 580589, Note_off_c, 0, 61, 68
1, 580592, Note_off_c, 0, 42, 63
1, 580597, Note_off_c, 0, 70, 66
1, 580635, Control_c, 0, 64, 86
1, 580636, Note_on_c, 0, 66, 99
1, 580636, Note_on_c, 0, 78, 98
1, 580638, Note_on_c, 0, 75, 90
1, 580639, Note_on_c, 0, 34, 92
1, 580650, Control_c, 0, 64, 71
1, 580673, Note_on_c, 0, 76, 54
1, 580679, Control_c, 0, 64, 78
1, 580694, Control_c, 0, 64, 104
1, 580704, Note_off_c, 0, 76, 49
1, 580709, Control_c, 0, 64, 127
1, 580771, Note_off_c, 0, 34, 63
1, 580775, Note_off_c, 0, 75, 61
1, 580779, Note_off_c, 0, 78, 61
1, 580780, Note_on_c, 0, 22, 92
1, 580814, Note_on_c, 0, 21, 55
1, 580853, Note_off_c, 0, 21, 51
1, 580853, Note_off_c, 0, 22, 61
1, 580855, Note_on_c, 0, 34, 92
1, 580868, Note_on_c, 0, 70, 67
1, 580892, Note_off_c, 0, 66, 59
1, 580892, Note_off_c, 0, 70, 69
1, 580907, Note_off_c, 0, 34, 63
1, 580998, Note_on_c, 0, 61, 84
1, 581006, Note_on_c, 0, 70, 83
1, 581008, Note_on_c, 0, 66, 74
1, 581013, Note_on_c, 0, 42, 66
1, 581017, Note_off_c, 0, 61, 71
1, 581025, Note_off_c, 0, 70, 72
1, 581029, Note_off_c, 0, 66, 66
1, 581046, Note_on_c, 0, 44, 35
1, 581062, Note_off_c, 0, 42, 64
1, 581068, Note_on_c, 0, 65, 104
1, 581071, Note_on_c, 0, 73, 94
1, 581071, Note_on_c, 0, 77, 93
1, 581084, Note_on_c, 0, 58, 88
1, 581096, Note_off_c, 0, 44, 54
1, 581139, Note_off_c, 0, 58, 65
1, 581170, Note_on_c, 0, 49, 83
1, 581190, Note_off_c, 0, 77, 63
1, 581214, Note_off_c, 0, 49, 64
1, 581222, Note_off_c, 0, 73, 63
1, 581304, Note_off_c, 0, 65, 54
1, 581304, Note_on_c, 0, 34, 86
1, 581331, Note_on_c, 0, 66, 56
1, 581336, Note_on_c, 0, 70, 56
1, 581355, Note_off_c, 0, 66, 64
1, 581361, Note_off_c, 0, 70, 63
1, 581447, Note_on_c, 0, 66, 78
1, 581449, Note_off_c, 0, 34, 59
1, 581450, Note_on_c, 0, 22, 93
1, 581457, Note_on_c, 0, 71, 80
1, 581461, Note_on_c, 0, 59, 58
1, 581465, Note_on_c, 0, 70, 44
1, 581470, Note_off_c, 0, 66, 69
1, 581472, Control_c, 0, 64, 82
1, 581478, Note_off_c, 0, 71, 71
1, 581482, Note_off_c, 0, 59, 44
1, 581486, Note_off_c, 0, 70, 54
1, 581487, Control_c, 0, 64, 51
1, 581488, Note_on_c, 0, 21, 47
1, 581501, Control_c, 0, 64, 0
1, 581512, Note_on_c, 0, 71, 94
1, 581515, Note_on_c, 0, 75, 90
1, 581515, Note_on_c, 0, 63, 100
1, 581516, Control_c, 0, 64, 50
1, 581527, Note_off_c, 0, 22, 63
1, 581528, Note_on_c, 0, 34, 91
1, 581529, Note_off_c, 0, 21, 32
1, 581531, Control_c, 0, 64, 73
1, 581546, Control_c, 0, 64, 127
1, 581565, Note_off_c, 0, 34, 66
1, 581682, Note_off_c, 0, 75, 62
1, 581687, Note_on_c, 0, 44, 71
1, 581688, Note_on_c, 0, 42, 62
1, 581718, Note_off_c, 0, 42, 63
1, 581733, Note_off_c, 0, 63, 58
1, 581736, Note_on_c, 0, 58, 84
1, 581738, Note_off_c, 0, 71, 61
1, 581754, Note_off_c, 0, 44, 60
1, 581777, Note_off_c, 0, 58, 66
1, 581813, Note_on_c, 0, 49, 75
1, 581842, Note_off_c, 0, 49, 61
1, 581873, Note_on_c, 0, 42, 80
1, 581874, Note_on_c, 0, 50, 22
1, 581884, Note_on_c, 0, 58, 92
1, 581886, Note_on_c, 0, 70, 86
1, 581890, Note_on_c, 0, 66, 77
1, 581900, Note_on_c, 0, 73, 60
1, 581901, Note_off_c, 0, 42, 67
1, 581906, Note_off_c, 0, 58, 69
1, 581906, Note_off_c, 0, 70, 72
1, 581912, Note_off_c, 0, 66, 69
1, 581915, Note_off_c, 0, 50, 42
1, 581918, Note_off_c, 0, 73, 64
1, 581925, Control_c, 0, 64, 103
1, 581939, Control_c, 0, 64, 64
1, 581954, Control_c, 0, 64, 0
1, 581958, Note_on_c, 0, 34, 93
1, 581961, Note_on_c, 0, 61, 98
1, 581965, Note_on_c, 0, 73, 95
1, 581989, Note_on_c, 0, 74, 64
1, 581990, Note_on_c, 0, 70, 35
1, 581990, Note_on_c, 0, 71, 55
1, 581993, Note_on_c, 0, 63, 44
1, 581993, Note_off_c, 0, 63, 127
1, 581998, Note_on_c, 0, 72, 54
1, 582050, Note_off_c, 0, 72, 48
1, 582092, Note_off_c, 0, 74, 0
1, 582122, Note_off_c, 0, 61, 63
1, 582124, Note_off_c, 0, 34, 62
1, 582126, Note_off_c, 0, 71, 28
1, 582127, Note_on_c, 0, 22, 86
1, 582129, Poly_aftertouch_c, 0, 74, 127
1, 582134, Note_off_c, 0, 73, 60
1, 582150, Note_on_c, 0, 23, 61
1, 582153, Note_off_c, 0, 70, 48
1, 582160, Poly_aftertouch_c, 0, 74, 0
1, 582162, Note_on_c, 0, 24, 52
1, 582191, Control_c, 0, 67, 76
1, 582193, Note_off_c, 0, 24, 54
1, 582205, Note_on_c, 0, 34, 98
1, 582206, Control_c, 0, 64, 80
1, 582206, Control_c, 0, 67, 122
1, 582207, Note_off_c, 0, 23, 64
1, 582221, Control_c, 0, 64, 127
1, 582221, Control_c, 0, 67, 119
1, 582234, Note_off_c, 0, 22, 58
1, 582236, Note_off_c, 0, 34, 65
1, 582236, Control_c, 0, 67, 117
1, 582244, Note_on_c, 0, 36, 61
1, 582250, Control_c, 0, 67, 114
1, 582252, Note_on_c, 0, 35, 37
1, 582265, Control_c, 0, 67, 110
1, 582274, Note_off_c, 0, 36, 59
1, 582280, Control_c, 0, 67, 106
1, 582284, Note_on_c, 0, 82, 53
1, 582287, Note_off_c, 0, 35, 50
1, 582309, Control_c, 0, 67, 104
1, 582317, Note_off_c, 0, 82, 64
1, 582324, Control_c, 0, 67, 100
1, 582329, Poly_aftertouch_c, 0, 77, 127
1, 582339, Control_c, 0, 67, 85
1, 582354, Control_c, 0, 67, 63
1, 582368, Poly_aftertouch_c, 0, 77, 0
1, 582369, Control_c, 0, 67, 48
1, 582383, Control_c, 0, 67, 41
1, 582398, Control_c, 0, 67, 35
1, 582413, Note_on_c, 0, 62, 79
1, 582413, Control_c, 0, 67, 25
1, 582414, Note_on_c, 0, 82, 94
1, 582415, Note_on_c, 0, 76, 97
1, 582415, Note_on_c, 0, 53, 66
1, 582416, Note_on_c, 0, 89, 94
1, 582418, Note_on_c, 0, 58, 69
1, 582428, Control_c, 0, 67, 0
1, 582429, Note_off_c, 0, 82, 74
1, 582433, Note_off_c, 0, 76, 71
1, 582433, Note_off_c, 0, 89, 74
1, 582445, Note_off_c, 0, 58, 65
1, 582447, Note_off_c, 0, 53, 66
1, 582463, Note_off_c, 0, 62, 58
1, 582478, Note_on_c, 0, 86, 33
1, 582481, Note_on_c, 0, 65, 91
1, 582484, Note_on_c, 0, 74, 106
1, 582493, Note_on_c, 0, 82, 94
1, 582503, Note_off_c, 0, 74, 67
1, 582508, Note_off_c, 0, 82, 71
1, 582521, Note_off_c, 0, 86, 63
1, 582547, Control_c, 0, 67, 20
1, 582561, Note_on_c, 0, 64, 87
1, 582577, Note_off_c, 0, 65, 59
1, 582626, Note_off_c, 0, 64, 63
1, 582644, Control_c, 0, 67, 22
1, 582646, Note_on_c, 0, 63, 82
1, 582669, Note_off_c, 0, 63, 69
1, 582702, Note_on_c, 0, 62, 37
1, 582751, Note_off_c, 0, 62, 64
1, 582801, Note_on_c, 0, 58, 57
1, 582839, Note_off_c, 0, 58, 61
1, 582851, Control_c, 0, 67, 24
1, 582869, Note_on_c, 0, 54, 67
1, 582880, Control_c, 0, 64, 78
1, 582895, Note_off_c, 0, 54, 64
1, 582895, Control_c, 0, 64, 0
1, 582910, Control_c, 0, 67, 21
1, 582925, Note_on_c, 0, 65, 67
1, 582932, Note_on_c, 0, 53, 72
1, 582938, Note_on_c, 0, 58, 68
1, 582946, Note_on_c, 0, 62, 9
1, 582955, Control_c, 0, 64, 57
1, 582970, Control_c, 0, 64, 69
1, 582971, Note_off_c, 0, 58, 66
1, 582985, Control_c, 0, 64, 78
1, 582985, Note_off_c, 0, 53, 61
1, 582995, Note_off_c, 0, 62, 39
1, 582999, Control_c, 0, 64, 93
1, 583007, Note_off_c, 0, 65, 62
1, 583012, Note_on_c, 0, 52, 63
1, 583014, Control_c, 0, 64, 112
1, 583029, Control_c, 0, 64, 127
1, 583029, Control_c, 0, 67, 19
1, 583044, Control_c, 0, 67, 0
1, 583064, Note_off_c, 0, 52, 63
1, 583066, Note_on_c, 0, 51, 77
1, 583116, Note_off_c, 0, 51, 59
1, 583118, Control_c, 0, 64, 88
1, 583130, Note_on_c, 0, 50, 86
1, 583131, Note_on_c, 0, 64, 83
1, 583133, Note_on_c, 0, 55, 73
1, 583133, Control_c, 0, 64, 75
1, 583137, Note_on_c, 0, 52, 77
1, 583160, Note_off_c, 0, 55, 68
1, 583163, Control_c, 0, 64, 84
1, 583165, Note_off_c, 0, 52, 63
1, 583178, Control_c, 0, 64, 113
1, 583193, Control_c, 0, 64, 127
1, 583203, Note_off_c, 0, 50, 61
1, 583208, Note_on_c, 0, 48, 75
1, 583211, Note_off_c, 0, 64, 62
1, 583270, Note_off_c, 0, 48, 65
1, 583274, Note_on_c, 0, 46, 83
1, 583311, Control_c, 0, 64, 86
1, 583320, Note_off_c, 0, 46, 61
1, 583333, Control_c, 0, 64, 81
1, 583333, Control_c, 0, 67, 43
1, 583339, Note_on_c, 0, 63, 94
1, 583341, Note_on_c, 0, 45, 86
1, 583341, Note_on_c, 0, 51, 91
1, 583346, Note_on_c, 0, 57, 87
1, 583348, Control_c, 0, 64, 91
1, 583348, Control_c, 0, 67, 80
1, 583363, Control_c, 0, 64, 127
1, 583363, Control_c, 0, 67, 85
1, 583378, Control_c, 0, 67, 77
1, 583393, Control_c, 0, 67, 62
1, 583396, Note_off_c, 0, 51, 61
1, 583402, Note_off_c, 0, 57, 59
1, 583408, Note_off_c, 0, 63, 65
1, 583408, Control_c, 0, 67, 20
1, 583413, Note_on_c, 0, 43, 78
1, 583422, Note_off_c, 0, 45, 61
1, 583423, Control_c, 0, 67, 0
1, 583481, Note_off_c, 0, 43, 62
1, 583507, Note_on_c, 0, 40, 63
1, 583531, Note_off_c, 0, 40, 59
1, 583544, Note_on_c, 0, 34, 92
1, 583544, Note_on_c, 0, 41, 71
1, 583550, Note_on_c, 0, 50, 97
1, 583551, Note_on_c, 0, 62, 96
1, 583554, Note_on_c, 0, 58, 87
1, 583556, Control_c, 0, 67, 79
1, 583571, Control_c, 0, 64, 80
1, 583571, Control_c, 0, 67, 127
1, 583578, Note_off_c, 0, 58, 69
1, 583578, Note_off_c, 0, 50, 64
1, 583581, Note_off_c, 0, 41, 65
1, 583582, Note_off_c, 0, 34, 63
1, 583584, Note_off_c, 0, 62, 60
1, 583586, Control_c, 0, 64, 40
1, 583601, Control_c, 0, 64, 0
1, 583683, Note_on_c, 0, 62, 61
1, 583687, Note_on_c, 0, 50, 51
1, 583687, Note_on_c, 0, 58, 52
1, 583689, Note_on_c, 0, 34, 51
1, 583691, Note_on_c, 0, 38, 53
1, 583702, Note_off_c, 0, 62, 63
1, 583709, Note_off_c, 0, 58, 61
1, 583712, Note_off_c, 0, 50, 57
1, 583718, Note_off_c, 0, 34, 62
1, 583721, Note_off_c, 0, 38, 62
1, 583786, Note_on_c, 0, 50, 72
1, 583786, Note_on_c, 0, 58, 68
1, 583791, Note_on_c, 0, 62, 57
1, 583801, Note_on_c, 0, 40, 52
1, 583808, Note_on_c, 0, 34, 48
1, 583814, Note_off_c, 0, 50, 65
1, 583822, Note_off_c, 0, 62, 64
1, 583824, Note_off_c, 0, 58, 64
1, 583828, Note_off_c, 0, 40, 58
1, 583838, Note_off_c, 0, 34, 56
1, 583897, Note_on_c, 0, 38, 61
1, 583897, Note_on_c, 0, 57, 72
1, 583925, Note_off_c, 0, 57, 66
1, 583940, Note_off_c, 0, 38, 64
1, 583988, Note_on_c, 0, 41, 76
1, 583993, Note_on_c, 0, 50, 76
1, 583993, Note_on_c, 0, 58, 79
1, 584001, Note_on_c, 0, 62, 70
1, 584019, Note_off_c, 0, 50, 68
1, 584027, Note_off_c, 0, 41, 63
1, 584028, Note_off_c, 0, 62, 67
1, 584029, Note_off_c, 0, 58, 62
1, 584100, Note_on_c, 0, 38, 70
1, 584103, Note_on_c, 0, 34, 73
1, 584105, Note_on_c, 0, 56, 83
1, 584136, Note_off_c, 0, 56, 62
1, 584144, Note_off_c, 0, 34, 62
1, 584144, Note_off_c, 0, 38, 62
1, 584186, Control_c, 0, 67, 112
1, 584192, Note_on_c, 0, 42, 96
1, 584201, Control_c, 0, 67, 67
1, 584207, Note_on_c, 0, 50, 89
1, 584209, Note_on_c, 0, 62, 83
1, 584210, Note_on_c, 0, 58, 85
1, 584216, Control_c, 0, 67, 0
1, 584231, Note_off_c, 0, 50, 68
1, 584242, Note_off_c, 0, 62, 61
1, 584247, Note_off_c, 0, 42, 64
1, 584253, Note_off_c, 0, 58, 62
1, 584313, Note_on_c, 0, 34, 58
1, 584316, Note_on_c, 0, 38, 66
1, 584316, Note_on_c, 0, 55, 83
1, 584348, Note_off_c, 0, 55, 66
1, 584352, Note_off_c, 0, 34, 63
1, 584360, Note_off_c, 0, 38, 64
1, 584413, Note_on_c, 0, 50, 92
1, 584414, Note_on_c, 0, 41, 83
1, 584416, Note_on_c, 0, 62, 84
1, 584422, Note_on_c, 0, 58, 76
1, 584442, Note_off_c, 0, 50, 63
1, 584446, Note_off_c, 0, 62, 65
1, 584456, Note_off_c, 0, 58, 64
1, 584479, Note_off_c, 0, 41, 61
1, 584517, Note_on_c, 0, 38, 70
1, 584518, Note_on_c, 0, 54, 98
1, 584535, Note_on_c, 0, 34, 65
1, 584559, Note_off_c, 0, 54, 66
1, 584600, Note_off_c, 0, 38, 62
1, 584618, Note_off_c, 0, 34, 62
1, 584634, Note_on_c, 0, 50, 101
1, 584636, Note_on_c, 0, 62, 94
1, 584639, Note_on_c, 0, 40, 86
1, 584648, Note_on_c, 0, 58, 73
1, 584664, Note_off_c, 0, 50, 62
1, 584666, Note_off_c, 0, 40, 67
1, 584670, Note_off_c, 0, 62, 63
1, 584673, Note_off_c, 0, 58, 68
1, 584764, Note_on_c, 0, 22, 102
1, 584765, Note_on_c, 0, 53, 101
1, 584921, Note_off_c, 0, 53, 61
1, 584937, Note_on_c, 0, 34, 109
1, 584948, Note_on_c, 0, 49, 103
1, 584950, Control_c, 0, 64, 66
1, 584952, Note_on_c, 0, 61, 91
1, 584952, Note_off_c, 0, 22, 56
1, 584956, Note_on_c, 0, 58, 83
1, 584965, Control_c, 0, 64, 127
1, 584965, Control_c, 0, 67, 54
1, 584975, Note_off_c, 0, 49, 64
1, 584980, Control_c, 0, 67, 57
1, 584982, Note_off_c, 0, 34, 64
1, 584987, Note_on_c, 0, 55, 8
1, 584991, Note_off_c, 0, 61, 64
1, 584995, Control_c, 0, 67, 57
1, 584997, Note_off_c, 0, 58, 63
1, 585009, Control_c, 0, 67, 59
1, 585019, Note_off_c, 0, 55, 47
1, 585024, Control_c, 0, 67, 63
1, 585039, Control_c, 0, 67, 64
1, 585054, Control_c, 0, 67, 60
1, 585069, Control_c, 0, 67, 56
1, 585083, Control_c, 0, 67, 54
1, 585098, Control_c, 0, 67, 55
1, 585113, Control_c, 0, 67, 55
1, 585128, Control_c, 0, 67, 56
1, 585143, Control_c, 0, 67, 55
1, 585158, Control_c, 0, 67, 52
1, 585173, Control_c, 0, 67, 44
1, 585188, Control_c, 0, 67, 32
1, 585197, Note_on_c, 0, 70, 105
1, 585202, Control_c, 0, 67, 0
1, 585208, Note_on_c, 0, 72, 96
1, 585210, Note_on_c, 0, 42, 67
1, 585211, Note_on_c, 0, 73, 63
1, 585211, Note_off_c, 0, 73, 127
1, 585250, Note_on_c, 0, 41, 29
1, 585291, Note_off_c, 0, 72, 61
1, 585292, Note_off_c, 0, 42, 61
1, 585295, Note_off_c, 0, 41, 37
1, 585316, Note_off_c, 0, 70, 57
1, 585328, Note_on_c, 0, 58, 84
1, 585334, Note_on_c, 0, 78, 107
1, 585340, Note_on_c, 0, 82, 101
1, 585346, Note_on_c, 0, 70, 67
1, 585350, Control_c, 0, 67, 33
1, 585360, Note_off_c, 0, 70, 46
1, 585365, Control_c, 0, 67, 28
1, 585369, Note_off_c, 0, 58, 67
1, 585372, Note_on_c, 0, 56, 43
1, 585372, Note_off_c, 0, 82, 70
1, 585376, Note_off_c, 0, 78, 71
1, 585380, Control_c, 0, 67, 0
1, 585402, Note_off_c, 0, 56, 52
1, 585420, Note_on_c, 0, 49, 44
1, 585427, Note_on_c, 0, 48, 61
1, 585443, Note_off_c, 0, 49, 62
1, 585459, Note_off_c, 0, 48, 64
1, 585506, Note_on_c, 0, 41, 35
1, 585534, Note_off_c, 0, 41, 53
1, 585557, Note_on_c, 0, 34, 87
1, 585723, Note_on_c, 0, 22, 94
1, 585724, Note_on_c, 0, 61, 96
1, 585727, Note_on_c, 0, 73, 100
1, 585733, Note_on_c, 0, 70, 88
1, 585754, Note_off_c, 0, 34, 54
1, 585754, Note_off_c, 0, 70, 71
1, 585757, Note_off_c, 0, 61, 61
1, 585766, Note_on_c, 0, 21, 45
1, 585769, Note_off_c, 0, 73, 62
1, 585803, Control_c, 0, 67, 50
1, 585806, Note_off_c, 0, 21, 46
1, 585818, Control_c, 0, 67, 66
1, 585820, Note_off_c, 0, 22, 61
1, 585820, Note_on_c, 0, 68, 118
1, 585821, Note_on_c, 0, 77, 97
1, 585822, Note_on_c, 0, 34, 85
1, 585829, Note_on_c, 0, 80, 94
1, 585832, Control_c, 0, 67, 57
1, 585847, Control_c, 0, 67, 51
1, 585860, Note_off_c, 0, 34, 67
1, 585862, Control_c, 0, 67, 43
1, 585877, Control_c, 0, 67, 35
1, 585892, Control_c, 0, 67, 34
1, 585906, Control_c, 0, 67, 35
1, 585921, Control_c, 0, 67, 33
1, 585936, Control_c, 0, 67, 30
1, 585951, Control_c, 0, 67, 24
1, 585952, Note_off_c, 0, 80, 61
1, 585964, Note_off_c, 0, 77, 61
1, 585966, Control_c, 0, 67, 0
1, 585968, Note_on_c, 0, 42, 76
1, 586023, Note_off_c, 0, 68, 62
1, 586040, Note_on_c, 0, 58, 84
1, 586041, Note_off_c, 0, 42, 60
1, 586048, Poly_aftertouch_c, 0, 44, 127
1, 586089, Poly_aftertouch_c, 0, 44, 0
1, 586094, Note_off_c, 0, 58, 65
1, 586129, Note_on_c, 0, 49, 81
1, 586177, Note_off_c, 0, 49, 64
1, 586178, Note_on_c, 0, 61, 80
1, 586180, Note_on_c, 0, 73, 93
1, 586185, Note_on_c, 0, 70, 79
1, 586197, Note_off_c, 0, 73, 69
1, 586201, Note_on_c, 0, 42, 62
1, 586201, Note_off_c, 0, 61, 69
1, 586209, Note_off_c, 0, 70, 69
1, 586222, Note_off_c, 0, 42, 64
1, 586250, Note_on_c, 0, 66, 105
1, 586255, Note_on_c, 0, 78, 98
1, 586256, Note_on_c, 0, 75, 86
1, 586259, Note_on_c, 0, 34, 94
1, 586262, Control_c, 0, 64, 68
1, 586276, Control_c, 0, 64, 41
1, 586291, Control_c, 0, 64, 52
1, 586306, Control_c, 0, 64, 65
1, 586329, Control_c, 0, 64, 88
1, 586344, Control_c, 0, 64, 127
1, 586400, Note_off_c, 0, 75, 65
1, 586403, Note_off_c, 0, 34, 62
1, 586407, Note_on_c, 0, 22, 95
1, 586412, Note_off_c, 0, 78, 62
1, 586425, Note_on_c, 0, 21, 78
1, 586462, Control_c, 0, 67, 35
1, 586470, Note_off_c, 0, 21, 59
1, 586476, Control_c, 0, 67, 30
1, 586481, Note_on_c, 0, 34, 94
1, 586482, Note_off_c, 0, 22, 62
1, 586491, Control_c, 0, 67, 21
1, 586506, Control_c, 0, 67, 0
1, 586529, Note_off_c, 0, 66, 55
1, 586533, Note_off_c, 0, 34, 61
1, 586635, Note_on_c, 0, 66, 82
1, 586635, Note_on_c, 0, 70, 84
1, 586636, Note_on_c, 0, 42, 60
1, 586644, Note_on_c, 0, 60, 54
1, 586651, Note_off_c, 0, 66, 73
1, 586655, Note_off_c, 0, 70, 72
1, 586667, Note_off_c, 0, 60, 61
1, 586691, Note_off_c, 0, 42, 62
1, 586695, Note_on_c, 0, 58, 89
1, 586707, Note_on_c, 0, 65, 108
1, 586713, Note_on_c, 0, 73, 89
1, 586714, Note_on_c, 0, 77, 89
1, 586758, Note_off_c, 0, 58, 64
1, 586786, Note_on_c, 0, 49, 86
1, 586812, Note_off_c, 0, 49, 65
1, 586827, Note_off_c, 0, 77, 60
1, 586845, Note_on_c, 0, 50, 25
1, 586845, Note_off_c, 0, 73, 65
1, 586885, Note_off_c, 0, 50, 44
1, 586910, Poly_aftertouch_c, 0, 42, 127
1, 586916, Note_on_c, 0, 34, 96
1, 586925, Note_off_c, 0, 65, 60
1, 586946, Poly_aftertouch_c, 0, 42, 0
1, 586953, Note_on_c, 0, 70, 53
1, 586962, Note_on_c, 0, 66, 47
1, 586972, Note_off_c, 0, 70, 64
1, 586985, Note_off_c, 0, 66, 56
1, 587065, Note_on_c, 0, 66, 73
1, 587074, Note_on_c, 0, 58, 72
1, 587076, Note_on_c, 0, 22, 96
1, 587076, Note_off_c, 0, 34, 62
1, 587077, Control_c, 0, 64, 84
1, 587080, Note_on_c, 0, 71, 84
1, 587086, Note_on_c, 0, 70, 39
1, 587092, Control_c, 0, 64, 39
1, 587094, Note_off_c, 0, 58, 43
1, 587097, Note_off_c, 0, 66, 67
1, 587099, Note_off_c, 0, 71, 71
1, 587107, Control_c, 0, 64, 0
1, 587108, Note_off_c, 0, 70, 60
1, 587122, Control_c, 0, 67, 33
1, 587137, Control_c, 0, 64, 62
1, 587137, Control_c, 0, 67, 30
1, 587137, Note_on_c, 0, 71, 87
1, 587142, Note_on_c, 0, 63, 93
1, 587144, Note_on_c, 0, 75, 93
1, 587147, Note_on_c, 0, 34, 91
1, 587152, Control_c, 0, 64, 127
1, 587152, Control_c, 0, 67, 0
1, 587152, Note_off_c, 0, 22, 61
1, 587183, Note_off_c, 0, 34, 66
1, 587298, Note_on_c, 0, 44, 73
1, 587329, Note_off_c, 0, 75, 60
1, 587339, Note_on_c, 0, 58, 83
1, 587357, Note_off_c, 0, 63, 58
1, 587362, Note_off_c, 0, 44, 63
1, 587367, Note_off_c, 0, 71, 61
1, 587370, Note_on_c, 0, 59, 60
1, 587385, Note_off_c, 0, 58, 64
1, 587390, Note_off_c, 0, 59, 63
1, 587426, Note_on_c, 0, 49, 84
1, 587457, Note_off_c, 0, 49, 56
1, 587495, Note_on_c, 0, 58, 91
1, 587498, Note_on_c, 0, 70, 83
1, 587510, Note_on_c, 0, 73, 65
1, 587512, Note_off_c, 0, 58, 74
1, 587513, Note_on_c, 0, 66, 49
1, 587513, Note_off_c, 0, 66, 127
1, 587517, Note_off_c, 0, 70, 73
1, 587522, Control_c, 0, 64, 71
1, 587528, Note_off_c, 0, 73, 63
1, 587537, Control_c, 0, 64, 0
1, 587551, Note_on_c, 0, 34, 94
1, 587563, Note_on_c, 0, 61, 97
1, 587567, Note_on_c, 0, 73, 93
1, 587569, Note_on_c, 0, 70, 81
1, 587582, Control_c, 0, 64, 63
1, 587596, Control_c, 0, 64, 105
1, 587611, Control_c, 0, 64, 127
1, 587731, Note_on_c, 0, 22, 93
1, 587731, Note_off_c, 0, 34, 59
1, 587745, Note_off_c, 0, 61, 59
1, 587754, Note_off_c, 0, 70, 62
1, 587758, Note_off_c, 0, 73, 61
1, 587775, Control_c, 0, 67, 66
1, 587783, Note_on_c, 0, 21, 33
1, 587790, Control_c, 0, 67, 120
1, 587805, Control_c, 0, 67, 126
1, 587826, Note_off_c, 0, 22, 63
1, 587827, Note_on_c, 0, 34, 96
1, 587827, Control_c, 0, 64, 72
1, 587833, Note_off_c, 0, 21, 41
1, 587842, Control_c, 0, 64, 37
1, 587856, Control_c, 0, 64, 0
1, 587868, Note_off_c, 0, 34, 64
1, 588088, Note_on_c, 0, 62, 70
1, 588090, Note_on_c, 0, 53, 66
1, 588118, Note_off_c, 0, 62, 64
1, 588176, Note_off_c, 0, 53, 63
1, 588180, Note_on_c, 0, 68, 66
1, 588181, Note_on_c, 0, 65, 102
1, 588201, Note_on_c, 0, 72, 53
1, 588216, Note_off_c, 0, 68, 66
1, 588268, Note_on_c, 0, 77, 63
1, 588280, Note_off_c, 0, 72, 63
1, 588341, Note_off_c, 0, 77, 49
1, 588344, Note_on_c, 0, 63, 73
1, 588370, Note_off_c, 0, 63, 69
1, 588425, Note_on_c, 0, 69, 49
1, 588428, Note_on_c, 0, 73, 70
1, 588455, Note_off_c, 0, 65, 61
1, 588461, Note_off_c, 0, 69, 64
1, 588461, Note_on_c, 0, 64, 73
1, 588501, Note_on_c, 0, 77, 71
1, 588526, Note_off_c, 0, 73, 60
1, 588532, Note_off_c, 0, 64, 63
1, 588538, Note_on_c, 0, 63, 75
1, 588555, Note_on_c, 0, 65, 80
1, 588555, Note_off_c, 0, 77, 64
1, 588601, Note_on_c, 0, 62, 79
1, 588607, Note_off_c, 0, 63, 63
1, 588613, Note_off_c, 0, 65, 60
1, 588634, Note_on_c, 0, 70, 76
1, 588637, Note_on_c, 0, 74, 76
1, 588640, Note_off_c, 0, 62, 61
1, 588682, Note_off_c, 0, 70, 62
1, 588684, Note_on_c, 0, 60, 70
1, 588693, Note_off_c, 0, 74, 65
1, 588694, Note_on_c, 0, 77, 81
1, 588735, Note_off_c, 0, 60, 64
1, 588741, Note_off_c, 0, 77, 61
1, 588747, Note_on_c, 0, 58, 80
1, 588753, Note_on_c, 0, 66, 78
1, 588795, Note_off_c, 0, 58, 64
1, 588797, Note_on_c, 0, 57, 74
1, 588815, Note_on_c, 0, 70, 71
1, 588821, Note_off_c, 0, 66, 62
1, 588823, Note_on_c, 0, 73, 79
1, 588857, Note_off_c, 0, 57, 64
1, 588862, Note_on_c, 0, 56, 69
1, 588869, Note_off_c, 0, 70, 61
1, 588890, Note_off_c, 0, 56, 64
1, 588896, Note_on_c, 0, 78, 83
1, 588907, Note_off_c, 0, 73, 63
1, 588928, Note_on_c, 0, 55, 65
1, 588950, Note_off_c, 0, 78, 64
1, 588958, Note_off_c, 0, 55, 65
1, 588968, Note_on_c, 0, 67, 68
1, 589010, Note_on_c, 0, 46, 64
1, 589021, Note_off_c, 0, 67, 60
1, 589029, Note_on_c, 0, 74, 76
1, 589036, Control_c, 0, 64, 60
1, 589041, Note_on_c, 0, 70, 61
1, 589051, Control_c, 0, 64, 71
1, 589066, Control_c, 0, 64, 73
1, 589067, Note_on_c, 0, 39, 71
1, 589069, Note_off_c, 0, 46, 60
1, 589081, Control_c, 0, 64, 74
1, 589095, Control_c, 0, 64, 79
1, 589096, Note_off_c, 0, 70, 55
1, 589096, Note_off_c, 0, 74, 57
1, 589098, Note_on_c, 0, 79, 66
1, 589098, Note_off_c, 0, 39, 65
1, 589110, Control_c, 0, 64, 93
1, 589124, Control_c, 0, 64, 127
1, 589156, Note_off_c, 0, 79, 64
1, 589244, Note_on_c, 0, 65, 75
1, 589253, Note_on_c, 0, 69, 73
1, 589257, Control_c, 0, 64, 111
1, 589263, Note_on_c, 0, 73, 82
1, 589272, Control_c, 0, 64, 64
1, 589285, Note_off_c, 0, 69, 63
1, 589286, Control_c, 0, 64, 0
1, 589306, Note_on_c, 0, 64, 74
1, 589306, Note_off_c, 0, 65, 63
1, 589339, Control_c, 0, 64, 47
1, 589343, Note_on_c, 0, 77, 76
1, 589347, Note_off_c, 0, 73, 64
1, 589354, Control_c, 0, 64, 64
1, 589368, Control_c, 0, 64, 72
1, 589383, Control_c, 0, 64, 77
1, 589391, Note_on_c, 0, 65, 78
1, 589392, Note_off_c, 0, 77, 65
1, 589394, Note_on_c, 0, 63, 73
1, 589396, Note_off_c, 0, 64, 61
1, 589398, Control_c, 0, 64, 79
1, 589412, Control_c, 0, 64, 79
1, 589421, Note_off_c, 0, 63, 64
1, 589438, Note_off_c, 0, 65, 65
1, 589443, Note_on_c, 0, 62, 61
1, 589463, Note_on_c, 0, 70, 77
1, 589476, Note_on_c, 0, 74, 70
1, 589484, Note_off_c, 0, 70, 71
1, 589495, Note_off_c, 0, 62, 63
1, 589516, Control_c, 0, 64, 80
1, 589535, Note_on_c, 0, 79, 86
1, 589540, Note_off_c, 0, 74, 64
1, 589575, Control_c, 0, 64, 71
1, 589584, Note_off_c, 0, 79, 66
1, 589590, Control_c, 0, 64, 51
1, 589603, Note_on_c, 0, 58, 69
1, 589605, Control_c, 0, 64, 0
1, 589606, Note_on_c, 0, 72, 96
1, 589611, Note_on_c, 0, 61, 64
1, 589632, Note_off_c, 0, 61, 62
1, 589651, Note_on_c, 0, 62, 56
1, 589656, Note_off_c, 0, 72, 63
1, 589662, Note_on_c, 0, 70, 92
1, 589665, Control_c, 0, 64, 50
1, 589674, Note_on_c, 0, 74, 77
1, 589680, Control_c, 0, 64, 68
1, 589680, Note_off_c, 0, 58, 65
1, 589685, Note_on_c, 0, 78, 81
1, 589693, Note_off_c, 0, 62, 59
1, 589694, Control_c, 0, 64, 76
1, 589707, Note_off_c, 0, 74, 63
1, 589709, Control_c, 0, 64, 80
1, 589718, Note_off_c, 0, 70, 64
1, 589724, Control_c, 0, 64, 83
1, 589739, Control_c, 0, 64, 86
1, 589746, Note_on_c, 0, 69, 74
1, 589749, Note_off_c, 0, 78, 67
1, 589754, Note_on_c, 0, 83, 80
1, 589754, Control_c, 0, 64, 87
1, 589769, Control_c, 0, 64, 77
1, 589771, Note_on_c, 0, 81, 68
1, 589784, Control_c, 0, 64, 62
1, 589789, Note_off_c, 0, 81, 40
1, 589799, Control_c, 0, 64, 0
1, 589806, Note_off_c, 0, 83, 63
1, 589816, Note_on_c, 0, 74, 92
1, 589829, Control_c, 0, 64, 43
1, 589835, Note_off_c, 0, 69, 51
1, 589836, Note_on_c, 0, 68, 49
1, 589838, Note_on_c, 0, 63, 82
1, 589844, Control_c, 0, 64, 64
1, 589856, Note_on_c, 0, 67, 79
1, 589858, Note_off_c, 0, 74, 66
1, 589859, Control_c, 0, 64, 83
1, 589862, Note_off_c, 0, 68, 55
1, 589871, Note_on_c, 0, 75, 82
1, 589873, Control_c, 0, 64, 106
1, 589885, Note_off_c, 0, 63, 65
1, 589888, Control_c, 0, 64, 113
1, 589896, Note_on_c, 0, 79, 87
1, 589897, Note_off_c, 0, 75, 65
1, 589900, Note_off_c, 0, 67, 65
1, 589917, Control_c, 0, 64, 117
1, 589946, Note_off_c, 0, 79, 63
1, 589962, Note_on_c, 0, 84, 80
1, 589962, Control_c, 0, 64, 96
1, 589962, Control_c, 0, 67, 118
1, 589964, Note_on_c, 0, 86, 85
1, 589977, Control_c, 0, 64, 67
1, 589977, Control_c, 0, 67, 77
1, 589991, Control_c, 0, 64, 0
1, 589991, Control_c, 0, 67, 21
1, 590001, Note_on_c, 0, 62, 82
1, 590006, Control_c, 0, 67, 0
1, 590011, Note_off_c, 0, 84, 61
1, 590014, Note_off_c, 0, 86, 57
1, 590028, Note_on_c, 0, 66, 71
1, 590028, Note_on_c, 0, 75, 98
1, 590050, Control_c, 0, 64, 59
1, 590073, Control_c, 0, 64, 77
1, 590077, Note_off_c, 0, 62, 62
1, 590084, Note_on_c, 0, 74, 99
1, 590085, Note_off_c, 0, 75, 64
1, 590088, Control_c, 0, 64, 95
1, 590093, Note_off_c, 0, 66, 62
1, 590094, Note_on_c, 0, 78, 82
1, 590103, Control_c, 0, 64, 127
1, 590112, Note_on_c, 0, 81, 80
1, 590148, Note_off_c, 0, 78, 65
1, 590159, Poly_aftertouch_c, 0, 82, 127
1, 590162, Control_c, 0, 64, 102
1, 590171, Note_off_c, 0, 81, 65
1, 590177, Control_c, 0, 64, 66
1, 590179, Note_on_c, 0, 86, 94
1, 590180, Note_off_c, 0, 74, 60
1, 590184, Poly_aftertouch_c, 0, 82, 0
1, 590191, Control_c, 0, 64, 0
1, 590193, Note_on_c, 0, 72, 72
1, 590206, Control_c, 0, 64, 34
1, 590219, Note_off_c, 0, 72, 58
1, 590221, Control_c, 0, 64, 65
1, 590232, Note_off_c, 0, 86, 64
1, 590236, Control_c, 0, 64, 127
1, 590240, Note_on_c, 0, 78, 95
1, 590253, Note_on_c, 0, 68, 75
1, 590268, Note_on_c, 0, 72, 82
1, 590272, Note_off_c, 0, 78, 68
1, 590273, Note_on_c, 0, 63, 84
1, 590285, Note_on_c, 0, 67, 54
1, 590288, Note_off_c, 0, 68, 64
1, 590289, Note_off_c, 0, 72, 69
1, 590303, Note_on_c, 0, 82, 92
1, 590308, Note_off_c, 0, 67, 62
1, 590310, Note_on_c, 0, 85, 69
1, 590310, Note_off_c, 0, 85, 127
1, 590311, Note_on_c, 0, 86, 96
1, 590315, Note_off_c, 0, 63, 65
1, 590364, Poly_aftertouch_c, 0, 77, 0
1, 590368, Note_off_c, 0, 82, 63
1, 590379, Note_on_c, 0, 91, 101
1, 590393, Note_off_c, 0, 86, 64
1, 590413, Control_c, 0, 64, 66
1, 590428, Control_c, 0, 64, 0
1, 590432, Note_on_c, 0, 79, 94
1, 590446, Note_off_c, 0, 91, 62
1, 590459, Note_on_c, 0, 77, 54
1, 590459, Note_off_c, 0, 77, 127
1, 590486, Note_off_c, 0, 79, 66
1, 590495, Note_on_c, 0, 39, 104
1, 590501, Note_on_c, 0, 27, 102
1, 590503, Control_c, 0, 67, 95
1, 590517, Control_c, 0, 64, 68
1, 590517, Control_c, 0, 67, 127
1, 590524, Note_off_c, 0, 27, 69
1, 590526, Note_on_c, 0, 90, 88
1, 590532, Control_c, 0, 64, 127
1, 590534, Note_off_c, 0, 39, 61
1, 590555, Note_off_c, 0, 90, 62
1, 590642, Poly_aftertouch_c, 0, 27, 127
1, 590666, Control_c, 0, 67, 101
1, 590667, Note_on_c, 0, 79, 90
1, 590671, Note_on_c, 0, 91, 83
1, 590673, Poly_aftertouch_c, 0, 27, 0
1, 590681, Note_on_c, 0, 46, 85
1, 590681, Control_c, 0, 67, 70
1, 590687, Note_off_c, 0, 79, 66
1, 590696, Control_c, 0, 67, 31
1, 590698, Note_off_c, 0, 91, 65
1, 590711, Control_c, 0, 67, 0
1, 590737, Note_on_c, 0, 94, 98
1, 590737, Note_off_c, 0, 46, 63
1, 590738, Note_on_c, 0, 86, 50
1, 590738, Note_on_c, 0, 82, 110
1, 590741, Note_on_c, 0, 55, 97
1, 590765, Note_off_c, 0, 86, 66
1, 590771, Note_off_c, 0, 82, 70
1, 590776, Note_off_c, 0, 94, 69
1, 590785, Note_off_c, 0, 55, 67
1, 590925, Note_on_c, 0, 78, 50
1, 590944, Note_on_c, 0, 49, 78
1, 590950, Note_off_c, 0, 78, 41
1, 590959, Note_on_c, 0, 57, 97
1, 590968, Note_on_c, 0, 93, 104
1, 590970, Note_on_c, 0, 85, 95
1, 590971, Poly_aftertouch_c, 0, 54, 0
1, 590977, Note_on_c, 0, 81, 91
1, 590992, Note_off_c, 0, 57, 66
1, 590992, Poly_aftertouch_c, 0, 90, 0
1, 590994, Note_off_c, 0, 49, 65
1, 590996, Note_off_c, 0, 81, 70
1, 591004, Note_off_c, 0, 93, 68
1, 591005, Note_off_c, 0, 85, 68
1, 591057, Poly_aftertouch_c, 0, 89, 0
1, 591134, Control_c, 0, 64, 68
1, 591148, Control_c, 0, 64, 0
1, 591178, Control_c, 0, 67, 108
1, 591184, Note_on_c, 0, 43, 100
1, 591189, Note_on_c, 0, 31, 89
1, 591192, Control_c, 0, 67, 127
1, 591205, Note_off_c, 0, 43, 72
1, 591207, Control_c, 0, 64, 36
1, 591209, Note_on_c, 0, 33, 57
1, 591209, Note_off_c, 0, 33, 127
1, 591210, Note_off_c, 0, 31, 66
1, 591222, Control_c, 0, 64, 81
1, 591237, Control_c, 0, 64, 127
1, 591342, Control_c, 0, 67, 111
1, 591357, Control_c, 0, 67, 96
1, 591358, Note_on_c, 0, 86, 72
1, 591371, Control_c, 0, 67, 70
1, 591379, Note_on_c, 0, 75, 21
1, 591379, Note_off_c, 0, 75, 127
1, 591382, Note_off_c, 0, 86, 67
1, 591386, Control_c, 0, 67, 37
1, 591388, Note_on_c, 0, 52, 60
1, 591401, Control_c, 0, 67, 0
1, 591410, Note_on_c, 0, 50, 36
1, 591410, Note_on_c, 0, 90, 88
1, 591418, Note_on_c, 0, 78, 94
1, 591420, Note_on_c, 0, 58, 99
1, 591421, Note_on_c, 0, 83, 95
1, 591422, Note_off_c, 0, 52, 57
1, 591445, Note_on_c, 0, 91, 47
1, 591445, Note_off_c, 0, 91, 127
1, 591445, Note_off_c, 0, 83, 62
1, 591447, Note_off_c, 0, 50, 46
1, 591451, Note_off_c, 0, 90, 63
1, 591453, Note_off_c, 0, 78, 62
1, 591455, Note_on_c, 0, 80, 35
1, 591455, Note_off_c, 0, 80, 127
1, 591471, Note_off_c, 0, 58, 64
1, 591601, Note_on_c, 0, 85, 80
1, 591607, Note_on_c, 0, 73, 62
1, 591619, Note_off_c, 0, 85, 73
1, 591626, Note_off_c, 0, 73, 64
1, 591627, Note_on_c, 0, 51, 67
1, 591638, Note_on_c, 0, 61, 99
1, 591656, Note_on_c, 0, 82, 104
1, 591656, Note_on_c, 0, 89, 105
1, 591657, Note_on_c, 0, 77, 97
1, 591674, Note_off_c, 0, 61, 66
1, 591690, Note_off_c, 0, 51, 62
1, 591695, Note_off_c, 0, 77, 63
1, 591718, Note_off_c, 0, 89, 56
1, 591787, Note_off_c, 0, 82, 50
1, 591793, Control_c, 0, 64, 109
1, 591808, Control_c, 0, 64, 55
1, 591823, Control_c, 0, 64, 0
1, 591853, Control_c, 0, 67, 102
1, 591863, Note_on_c, 0, 46, 107
1, 591868, Note_on_c, 0, 34, 93
1, 591868, Control_c, 0, 67, 127
1, 591883, Control_c, 0, 64, 77
1, 591889, Note_off_c, 0, 34, 69
1, 591893, Note_off_c, 0, 46, 65
1, 591897, Control_c, 0, 64, 127
1, 591917, Note_on_c, 0, 82, 41
1, 591945, Note_off_c, 0, 82, 54
1, 591984, Note_on_c, 0, 34, 9
1, 592016, Note_off_c, 0, 34, 39
1, 592035, Note_on_c, 0, 82, 79
1, 592041, Note_on_c, 0, 55, 72
1, 592054, Note_on_c, 0, 72, 54
1, 592054, Note_off_c, 0, 82, 71
1, 592060, Control_c, 0, 67, 111
1, 592075, Control_c, 0, 67, 83
1, 592076, Note_off_c, 0, 72, 60
1, 592086, Note_on_c, 0, 86, 95
1, 592089, Control_c, 0, 67, 51
1, 592094, Note_on_c, 0, 63, 95
1, 592094, Note_off_c, 0, 55, 61
1, 592097, Note_on_c, 0, 74, 94
1, 592104, Control_c, 0, 67, 33
1, 592112, Note_on_c, 0, 79, 65
1, 592118, Control_c, 0, 67, 0
1, 592124, Note_off_c, 0, 86, 67
1, 592128, Note_off_c, 0, 74, 64
1, 592133, Note_off_c, 0, 79, 68
1, 592149, Note_off_c, 0, 63, 59
1, 592279, Note_on_c, 0, 71, 60
1, 592282, Control_c, 0, 64, 70
1, 592284, Note_on_c, 0, 80, 48
1, 592284, Note_off_c, 0, 80, 127
1, 592297, Control_c, 0, 64, 38
1, 592297, Control_c, 0, 67, 24
1, 592298, Note_on_c, 0, 57, 69
1, 592299, Note_off_c, 0, 71, 62
1, 592303, Note_on_c, 0, 66, 92
1, 592318, Control_c, 0, 64, 52
1, 592318, Control_c, 0, 67, 0
1, 592333, Control_c, 0, 64, 74
1, 592339, Note_on_c, 0, 72, 80
1, 592340, Note_on_c, 0, 84, 94
1, 592341, Note_on_c, 0, 78, 90
1, 592341, Note_off_c, 0, 66, 64
1, 592347, Note_on_c, 0, 73, 73
1, 592348, Note_off_c, 0, 57, 64
1, 592348, Control_c, 0, 64, 127
1, 592357, Note_on_c, 0, 71, 65
1, 592357, Note_on_c, 0, 82, 57
1, 592381, Note_off_c, 0, 82, 63
1, 592386, Note_off_c, 0, 71, 46
1, 592387, Note_off_c, 0, 72, 0
1, 592387, Note_on_c, 0, 72, 26
1, 592389, Note_off_c, 0, 78, 65
1, 592407, Note_on_c, 0, 77, 68
1, 592428, Note_off_c, 0, 72, 36
1, 592431, Note_off_c, 0, 77, 69
1, 592432, Note_off_c, 0, 73, 25
1, 592433, Note_off_c, 0, 84, 60
1, 592497, Control_c, 0, 64, 78
1, 592511, Control_c, 0, 64, 0
1, 592527, Note_on_c, 0, 51, 111
1, 592533, Note_on_c, 0, 39, 97
1, 592541, Control_c, 0, 64, 35
1, 592541, Control_c, 0, 67, 83
1, 592556, Note_off_c, 0, 39, 70
1, 592556, Control_c, 0, 64, 78
1, 592556, Control_c, 0, 67, 114
1, 592559, Note_off_c, 0, 51, 66
1, 592571, Control_c, 0, 64, 127
1, 592571, Control_c, 0, 67, 100
1, 592585, Control_c, 0, 67, 84
1, 592600, Control_c, 0, 67, 48
1, 592615, Control_c, 0, 67, 0
1, 592634, Poly_aftertouch_c, 0, 80, 0
1, 592688, Note_on_c, 0, 67, 66
1, 592691, Note_on_c, 0, 79, 89
1, 592704, Note_off_c, 0, 67, 68
1, 592704, Control_c, 0, 64, 104
1, 592708, Note_on_c, 0, 58, 78
1, 592718, Control_c, 0, 64, 106
1, 592729, Note_off_c, 0, 79, 61
1, 592733, Control_c, 0, 64, 127
1, 592757, Note_on_c, 0, 67, 91
1, 592759, Note_on_c, 0, 82, 89
1, 592759, Note_off_c, 0, 58, 64
1, 592762, Note_on_c, 0, 74, 84
1, 592777, Note_on_c, 0, 70, 78
1, 592783, Note_on_c, 0, 75, 52
1, 592783, Note_off_c, 0, 75, 127
1, 592786, Note_off_c, 0, 74, 66
1, 592796, Note_on_c, 0, 83, 45
1, 592796, Note_off_c, 0, 83, 127
1, 592796, Note_off_c, 0, 67, 67
1, 592796, Note_off_c, 0, 70, 72
1, 592798, Note_off_c, 0, 82, 65
1, 592925, Note_on_c, 0, 61, 78
1, 592925, Note_on_c, 0, 78, 88
1, 592980, Note_on_c, 0, 69, 100
1, 592981, Note_on_c, 0, 81, 103
1, 592986, Note_on_c, 0, 73, 98
1, 592995, Note_off_c, 0, 78, 67
1, 593007, Note_off_c, 0, 61, 62
1, 593008, Note_off_c, 0, 81, 70
1, 593012, Note_off_c, 0, 73, 63
1, 593015, Note_off_c, 0, 69, 67
1, 593186, Control_c, 0, 64, 64
1, 593201, Control_c, 0, 64, 0
1, 593398, Note_on_c, 0, 62, 76
1, 593399, Note_on_c, 0, 82, 82
1, 593402, Note_on_c, 0, 70, 82
1, 593406, Note_on_c, 0, 67, 70
1, 593409, Note_on_c, 0, 74, 67
1, 593418, Note_off_c, 0, 82, 71
1, 593425, Note_off_c, 0, 70, 68
1, 593427, Note_on_c, 0, 79, 38
1, 593429, Note_off_c, 0, 62, 64
1, 593430, Note_off_c, 0, 67, 70
1, 593436, Note_off_c, 0, 74, 67
1, 593458, Note_off_c, 0, 79, 33
1, 593615, Note_on_c, 0, 66, 91
1, 593616, Control_c, 0, 67, 37
1, 593618, Note_on_c, 0, 58, 83
1, 593620, Note_on_c, 0, 64, 89
1, 593621, Note_on_c, 0, 61, 91
1, 593622, Note_on_c, 0, 76, 94
1, 593627, Note_on_c, 0, 70, 81
1, 593631, Control_c, 0, 64, 65
1, 593631, Control_c, 0, 67, 31
1, 593645, Note_off_c, 0, 64, 65
1, 593646, Control_c, 0, 64, 55
1, 593646, Control_c, 0, 67, 28
1, 593653, Note_off_c, 0, 58, 63
1, 593656, Note_off_c, 0, 66, 64
1, 593660, Control_c, 0, 64, 0
1, 593662, Note_off_c, 0, 76, 67
1, 593666, Note_off_c, 0, 70, 63
1, 593669, Note_off_c, 0, 61, 61
1, 593705, Control_c, 0, 64, 38
1, 593720, Control_c, 0, 64, 53
1, 593720, Control_c, 0, 67, 23
1, 593736, Control_c, 0, 64, 51
1, 593736, Control_c, 0, 67, 0
1, 593751, Control_c, 0, 64, 47
1, 593765, Control_c, 0, 64, 48
1, 593780, Control_c, 0, 64, 51
1, 593795, Control_c, 0, 64, 49
1, 593817, Control_c, 0, 64, 0
1, 593845, Note_on_c, 0, 62, 72
1, 593850, Note_on_c, 0, 70, 85
1, 593850, Note_on_c, 0, 74, 81
1, 593853, Note_on_c, 0, 82, 81
1, 593856, Note_on_c, 0, 67, 70
1, 593866, Note_on_c, 0, 79, 47
1, 593881, Note_off_c, 0, 82, 64
1, 593882, Note_off_c, 0, 74, 64
1, 593883, Note_off_c, 0, 67, 65
1, 593887, Note_off_c, 0, 70, 60
1, 593892, Note_off_c, 0, 79, 52
1, 593896, Note_off_c, 0, 62, 62
1, 594055, Note_on_c, 0, 75, 89
1, 594056, Note_on_c, 0, 63, 90
1, 594056, Note_on_c, 0, 56, 83
1, 594058, Note_on_c, 0, 65, 94
1, 594062, Note_on_c, 0, 59, 80
1, 594062, Note_on_c, 0, 71, 76
1, 594095, Note_off_c, 0, 63, 63
1, 594101, Note_off_c, 0, 56, 58
1, 594103, Note_off_c, 0, 71, 64
1, 594105, Note_off_c, 0, 65, 65
1, 594109, Note_off_c, 0, 59, 62
1, 594109, Note_off_c, 0, 75, 61
1, 594279, Note_on_c, 0, 70, 92
1, 594281, Note_on_c, 0, 67, 81
1, 594281, Note_on_c, 0, 82, 87
1, 594285, Note_on_c, 0, 74, 72
1, 594288, Note_on_c, 0, 62, 78
1, 594292, Note_on_c, 0, 79, 59
1, 594312, Note_off_c, 0, 67, 66
1, 594313, Note_off_c, 0, 82, 66
1, 594314, Note_off_c, 0, 79, 65
1, 594318, Note_off_c, 0, 62, 65
1, 594318, Note_off_c, 0, 74, 66
1, 594323, Note_off_c, 0, 70, 62
1, 594496, Note_on_c, 0, 73, 94
1, 594497, Note_on_c, 0, 64, 91
1, 594497, Note_on_c, 0, 58, 86
1, 594498, Note_on_c, 0, 61, 90
1, 594499, Note_on_c, 0, 54, 83
1, 594504, Note_on_c, 0, 70, 85
1, 594526, Note_off_c, 0, 61, 64
1, 594539, Note_off_c, 0, 54, 59
1, 594539, Note_off_c, 0, 64, 65
1, 594544, Note_off_c, 0, 73, 64
1, 594545, Note_off_c, 0, 70, 62
1, 594560, Note_off_c, 0, 58, 64
1, 594735, Note_on_c, 0, 65, 93
1, 594737, Note_on_c, 0, 62, 82
1, 594738, Note_on_c, 0, 70, 108
1, 594740, Note_on_c, 0, 82, 100
1, 594742, Note_on_c, 0, 53, 73
1, 594742, Note_on_c, 0, 77, 82
1, 594744, Note_on_c, 0, 74, 85
1, 594747, Note_on_c, 0, 56, 82
1, 594768, Note_on_c, 0, 80, 50
1, 594768, Note_off_c, 0, 65, 66
1, 594774, Note_off_c, 0, 62, 65
1, 594779, Note_off_c, 0, 82, 67
1, 594783, Note_off_c, 0, 70, 64
1, 594783, Note_off_c, 0, 74, 62
1, 594785, Note_off_c, 0, 77, 64
1, 594794, Note_off_c, 0, 80, 56
1, 594798, Note_off_c, 0, 53, 64
1, 594800, Note_off_c, 0, 56, 63
1, 594992, Note_on_c, 0, 54, 78
1, 594994, Note_on_c, 0, 57, 96
1, 594994, Note_on_c, 0, 72, 92
1, 594995, Note_on_c, 0, 51, 89
1, 594995, Note_on_c, 0, 60, 100
1, 595001, Note_on_c, 0, 66, 78
1, 595002, Note_on_c, 0, 63, 96
1, 595032, Note_off_c, 0, 60, 69
1, 595035, Note_off_c, 0, 57, 67
1, 595049, Note_off_c, 0, 63, 67
1, 595052, Note_off_c, 0, 51, 63
1, 595053, Note_off_c, 0, 54, 64
1, 595058, Note_off_c, 0, 72, 64
1, 595061, Note_off_c, 0, 66, 64
1, 595282, Note_on_c, 0, 62, 89
1, 595284, Note_on_c, 0, 46, 80
1, 595285, Note_on_c, 0, 70, 103
1, 595287, Note_on_c, 0, 53, 81
1, 595288, Note_on_c, 0, 58, 96
1, 595289, Note_on_c, 0, 82, 100
1, 595291, Note_on_c, 0, 74, 89
1, 595295, Note_on_c, 0, 77, 76
1, 595314, Control_c, 0, 64, 111
1, 595329, Control_c, 0, 64, 127
1, 595333, Note_off_c, 0, 82, 65
1, 595334, Note_on_c, 0, 80, 38
1, 595340, Note_off_c, 0, 77, 67
1, 595341, Note_off_c, 0, 74, 63
1, 595346, Note_off_c, 0, 70, 64
1, 595347, Note_off_c, 0, 46, 63
1, 595354, Note_off_c, 0, 62, 64
1, 595365, Note_off_c, 0, 80, 34
1, 595376, Note_off_c, 0, 58, 65
1, 595378, Note_off_c, 0, 53, 59
1, 595479, Note_on_c, 0, 61, 48
1, 595507, Note_off_c, 0, 61, 56
1, 595552, Control_c, 0, 64, 56
1, 595567, Control_c, 0, 64, 0
1, 595716, Note_on_c, 0, 65, 79
1, 595720, Note_on_c, 0, 41, 75
1, 595721, Note_on_c, 0, 34, 72
1, 595722, Note_on_c, 0, 50, 77
1, 595727, Note_on_c, 0, 62, 70
1, 595733, Note_on_c, 0, 58, 68
1, 595752, Note_off_c, 0, 41, 65
1, 595752, Note_off_c, 0, 50, 66
1, 595754, Note_off_c, 0, 34, 65
1, 595762, Note_off_c, 0, 58, 66
1, 595767, Note_off_c, 0, 62, 61
1, 595770, Note_off_c, 0, 65, 63
1, 595850, Note_on_c, 0, 62, 101
1, 595850, Note_on_c, 0, 34, 99
1, 595850, Note_on_c, 0, 41, 99
1, 595850, Note_on_c, 0, 50, 100
1, 595853, Note_on_c, 0, 58, 93
1, 595862, Control_c, 0, 67, 25
1, 595877, Control_c, 0, 64, 127
1, 595877, Control_c, 0, 67, 43
1, 595888, Note_off_c, 0, 41, 63
1, 595892, Control_c, 0, 67, 36
1, 595900, Note_off_c, 0, 34, 61
1, 595907, Control_c, 0, 67, 36
1, 595922, Control_c, 0, 67, 35
1, 595937, Control_c, 0, 67, 36
1, 595952, Control_c, 0, 67, 38
1, 595967, Control_c, 0, 67, 36
1, 595981, Control_c, 0, 67, 33
1, 595984, Note_off_c, 0, 50, 52
1, 595996, Control_c, 0, 67, 32
1, 596005, Note_off_c, 0, 58, 59
1, 596036, Note_off_c, 0, 62, 57
1, 596041, Control_c, 0, 64, 68
1, 596041, Control_c, 0, 67, 26
1, 596062, Control_c, 0, 64, 0
1, 596062, Control_c, 0, 67, 0
1, 596267, Note_on_c, 0, 65, 78
1, 596269, Note_on_c, 0, 34, 74
1, 596271, Note_on_c, 0, 50, 75
1, 596272, Note_on_c, 0, 41, 78
1, 596274, Note_on_c, 0, 62, 71
1, 596280, Note_on_c, 0, 58, 71
1, 596304, Note_off_c, 0, 50, 64
1, 596304, Note_off_c, 0, 41, 64
1, 596306, Note_off_c, 0, 34, 65
1, 596312, Note_off_c, 0, 58, 63
1, 596321, Note_off_c, 0, 65, 63
1, 596327, Note_off_c, 0, 62, 60
1, 596391, Note_on_c, 0, 41, 94
1, 596391, Note_on_c, 0, 62, 99
1, 596393, Note_on_c, 0, 34, 98
1, 596393, Note_on_c, 0, 50, 102
1, 596397, Note_on_c, 0, 58, 97
1, 596404, Control_c, 0, 64, 41
1, 596404, Control_c, 0, 67, 39
1, 596419, Note_off_c, 0, 34, 67
1, 596419, Control_c, 0, 64, 127
1, 596419, Control_c, 0, 67, 37
1, 596420, Note_off_c, 0, 41, 66
1, 596434, Control_c, 0, 67, 29
1, 596449, Control_c, 0, 67, 26
1, 596464, Control_c, 0, 67, 0
1, 596474, Note_off_c, 0, 50, 57
1, 596514, Note_off_c, 0, 58, 58
1, 596567, Control_c, 0, 64, 79
1, 596582, Control_c, 0, 64, 37
1, 596597, Control_c, 0, 64, 0
1, 596635, Note_off_c, 0, 62, 25
1, 596807, Note_on_c, 0, 50, 72
1, 596809, Note_on_c, 0, 62, 56
1, 596813, Note_on_c, 0, 65, 64
1, 596816, Note_on_c, 0, 34, 67
1, 596816, Note_on_c, 0, 58, 68
1, 596821, Note_on_c, 0, 41, 59
1, 596837, Note_off_c, 0, 50, 65
1, 596843, Note_off_c, 0, 65, 66
1, 596844, Note_off_c, 0, 58, 67
1, 596849, Note_off_c, 0, 34, 64
1, 596851, Note_off_c, 0, 62, 65
1, 596855, Note_off_c, 0, 41, 62
1, 596929, Note_on_c, 0, 41, 80
1, 596931, Note_on_c, 0, 34, 83
1, 596931, Note_on_c, 0, 50, 85
1, 596932, Note_on_c, 0, 58, 86
1, 596933, Note_on_c, 0, 62, 86
1, 596946, Control_c, 0, 64, 50
1, 596946, Control_c, 0, 67, 60
1, 596951, Note_off_c, 0, 41, 66
1, 596960, Note_off_c, 0, 34, 68
1, 596961, Note_off_c, 0, 50, 65
1, 596961, Control_c, 0, 64, 86
1, 596961, Control_c, 0, 67, 101
1, 596967, Note_off_c, 0, 62, 61
1, 596975, Control_c, 0, 64, 70
1, 596975, Control_c, 0, 67, 96
1, 596976, Note_off_c, 0, 58, 62
1, 596990, Control_c, 0, 64, 0
1, 596990, Control_c, 0, 67, 91
1, 597005, Control_c, 0, 67, 85
1, 597020, Control_c, 0, 67, 84
1, 597034, Control_c, 0, 67, 88
1, 597049, Control_c, 0, 67, 89
1, 597057, Note_on_c, 0, 34, 65
1, 597064, Note_on_c, 0, 58, 68
1, 597064, Control_c, 0, 67, 89
1, 597068, Note_on_c, 0, 22, 52
1, 597070, Note_on_c, 0, 62, 53
1, 597072, Note_on_c, 0, 50, 42
1, 597079, Control_c, 0, 67, 88
1, 597083, Note_off_c, 0, 34, 65
1, 597085, Note_off_c, 0, 58, 66
1, 597090, Note_off_c, 0, 62, 63
1, 597094, Control_c, 0, 67, 87
1, 597101, Note_off_c, 0, 50, 54
1, 597105, Note_off_c, 0, 22, 36
1, 597123, Control_c, 0, 67, 87
1, 597138, Control_c, 0, 67, 89
1, 597171, Note_on_c, 0, 40, 76
1, 597172, Note_on_c, 0, 62, 61
1, 597176, Note_on_c, 0, 50, 68
1, 597177, Note_on_c, 0, 58, 60
1, 597185, Note_on_c, 0, 28, 62
1, 597198, Note_off_c, 0, 40, 65
1, 597206, Note_off_c, 0, 62, 63
1, 597207, Note_off_c, 0, 50, 65
1, 597210, Note_off_c, 0, 58, 65
1, 597219, Note_off_c, 0, 28, 62
1, 597227, Control_c, 0, 67, 91
1, 597242, Control_c, 0, 67, 91
1, 597286, Note_on_c, 0, 57, 78
1, 597297, Note_on_c, 0, 22, 69
1, 597298, Note_on_c, 0, 34, 70
1, 597301, Control_c, 0, 67, 92
1, 597302, Note_on_c, 0, 50, 56
1, 597307, Note_on_c, 0, 62, 56
1, 597311, Note_off_c, 0, 57, 69
1, 597316, Control_c, 0, 67, 92
1, 597323, Note_off_c, 0, 34, 65
1, 597327, Note_off_c, 0, 50, 58
1, 597329, Note_off_c, 0, 62, 61
1, 597331, Note_off_c, 0, 22, 59
1, 597360, Control_c, 0, 67, 92
1, 597401, Note_on_c, 0, 41, 74
1, 597401, Note_on_c, 0, 50, 71
1, 597401, Note_on_c, 0, 62, 70
1, 597405, Note_on_c, 0, 58, 80
1, 597405, Control_c, 0, 67, 92
1, 597412, Note_on_c, 0, 29, 66
1, 597424, Note_off_c, 0, 41, 65
1, 597429, Note_off_c, 0, 62, 64
1, 597430, Note_off_c, 0, 50, 65
1, 597439, Note_off_c, 0, 58, 62
1, 597445, Note_off_c, 0, 29, 64
1, 597479, Control_c, 0, 67, 93
1, 597508, Note_on_c, 0, 56, 94
1, 597512, Note_on_c, 0, 34, 86
1, 597515, Note_on_c, 0, 50, 75
1, 597522, Note_on_c, 0, 22, 70
1, 597534, Note_off_c, 0, 34, 66
1, 597540, Note_off_c, 0, 50, 67
1, 597561, Note_off_c, 0, 22, 57
1, 597561, Note_off_c, 0, 56, 62
1, 597622, Note_on_c, 0, 42, 96
1, 597623, Note_on_c, 0, 50, 89
1, 597624, Note_on_c, 0, 58, 80
1, 597629, Note_on_c, 0, 30, 87
1, 597632, Note_on_c, 0, 62, 84
1, 597645, Note_off_c, 0, 42, 71
1, 597653, Note_off_c, 0, 62, 71
1, 597654, Note_off_c, 0, 30, 64
1, 597661, Note_off_c, 0, 50, 61
1, 597670, Note_off_c, 0, 58, 67
1, 597694, Control_c, 0, 67, 94
1, 597735, Note_on_c, 0, 55, 95
1, 597740, Note_on_c, 0, 34, 88
1, 597741, Note_on_c, 0, 22, 90
1, 597765, Note_off_c, 0, 22, 67
1, 597767, Note_off_c, 0, 34, 68
1, 597770, Note_off_c, 0, 55, 64
1, 597783, Control_c, 0, 67, 95
1, 597828, Control_c, 0, 67, 94
1, 597843, Control_c, 0, 67, 94
1, 597846, Note_on_c, 0, 41, 85
1, 597853, Note_on_c, 0, 58, 97
1, 597853, Note_on_c, 0, 29, 79
1, 597854, Note_on_c, 0, 50, 91
1, 597857, Control_c, 0, 67, 93
1, 597858, Note_on_c, 0, 62, 85
1, 597872, Note_off_c, 0, 41, 68
1, 597872, Control_c, 0, 67, 92
1, 597879, Note_off_c, 0, 50, 67
1, 597880, Note_off_c, 0, 62, 69
1, 597883, Note_off_c, 0, 29, 67
1, 597887, Control_c, 0, 67, 90
1, 597897, Note_off_c, 0, 58, 66
1, 597902, Control_c, 0, 67, 88
1, 597917, Control_c, 0, 67, 88
1, 597961, Control_c, 0, 67, 87
1, 597966, Note_on_c, 0, 54, 94
1, 597969, Note_on_c, 0, 22, 87
1, 597976, Control_c, 0, 67, 85
1, 597979, Note_on_c, 0, 34, 71
1, 597985, Note_on_c, 0, 32, 66
1, 597988, Note_on_c, 0, 50, 53
1, 597988, Note_off_c, 0, 50, 127
1, 597991, Control_c, 0, 67, 79
1, 597995, Note_off_c, 0, 22, 67
1, 598005, Control_c, 0, 67, 66
1, 598007, Note_off_c, 0, 54, 65
1, 598008, Note_off_c, 0, 34, 64
1, 598014, Note_on_c, 0, 21, 20
1, 598014, Note_off_c, 0, 32, 56
1, 598020, Control_c, 0, 67, 41
1, 598035, Control_c, 0, 67, 0
1, 598056, Note_off_c, 0, 21, 35
1, 598089, Note_on_c, 0, 40, 89
1, 598089, Note_on_c, 0, 50, 95
1, 598093, Note_on_c, 0, 62, 94
1, 598094, Note_on_c, 0, 28, 88
1, 598104, Note_on_c, 0, 58, 76
1, 598113, Note_off_c, 0, 40, 70
1, 598122, Note_off_c, 0, 62, 64
1, 598123, Note_off_c, 0, 28, 67
1, 598125, Note_off_c, 0, 50, 61
1, 598129, Note_off_c, 0, 58, 69
1, 598233, Note_on_c, 0, 22, 86
1, 598233, Note_on_c, 0, 53, 103
1, 598254, Note_on_c, 0, 23, 56
1, 598261, Note_on_c, 0, 24, 52
1, 598310, Note_off_c, 0, 24, 60
1, 598354, Poly_aftertouch_c, 0, 25, 0
1, 598398, Note_off_c, 0, 53, 58
1, 598423, Note_on_c, 0, 34, 104
1, 598429, Note_off_c, 0, 23, 59
1, 598431, Note_on_c, 0, 49, 96
1, 598432, Note_on_c, 0, 54, 78
1, 598433, Note_on_c, 0, 61, 95
1, 598436, Note_on_c, 0, 58, 92
1, 598438, Note_off_c, 0, 22, 54
1, 598444, Control_c, 0, 64, 127
1, 598444, Control_c, 0, 67, 37
1, 598450, Note_off_c, 0, 49, 70
1, 598450, Note_off_c, 0, 54, 40
1, 598458, Control_c, 0, 67, 34
1, 598470, Note_off_c, 0, 34, 61
1, 598472, Note_off_c, 0, 61, 64
1, 598473, Control_c, 0, 67, 37
1, 598475, Note_off_c, 0, 58, 64
1, 598488, Control_c, 0, 67, 38
1, 598502, Control_c, 0, 67, 41
1, 598517, Control_c, 0, 67, 40
1, 598533, Control_c, 0, 67, 37
1, 598548, Control_c, 0, 67, 36
1, 598563, Control_c, 0, 67, 35
1, 598578, Control_c, 0, 67, 36
1, 598593, Control_c, 0, 67, 37
1, 598607, Control_c, 0, 67, 38
1, 598622, Control_c, 0, 67, 37
1, 598637, Control_c, 0, 67, 35
1, 598652, Control_c, 0, 67, 34
1, 598691, Note_on_c, 0, 42, 78
1, 598691, Note_on_c, 0, 70, 101
1, 598700, Note_on_c, 0, 72, 94
1, 598711, Control_c, 0, 67, 33
1, 598725, Control_c, 0, 67, 30
1, 598740, Control_c, 0, 67, 25
1, 598755, Control_c, 0, 67, 0
1, 598784, Note_off_c, 0, 72, 62
1, 598793, Note_off_c, 0, 42, 60
1, 598822, Note_off_c, 0, 70, 0
1, 598826, Note_on_c, 0, 58, 87
1, 598828, Note_on_c, 0, 78, 102
1, 598833, Note_on_c, 0, 70, 73
1, 598833, Note_on_c, 0, 82, 104
1, 598856, Note_off_c, 0, 70, 70
1, 598866, Note_off_c, 0, 58, 66
1, 598867, Note_off_c, 0, 82, 70
1, 598868, Note_on_c, 0, 79, 42
1, 598873, Note_off_c, 0, 78, 70
1, 598897, Note_off_c, 0, 79, 56
1, 598916, Note_on_c, 0, 49, 55
1, 598936, Note_on_c, 0, 48, 58
1, 598938, Note_off_c, 0, 49, 60
1, 598967, Note_off_c, 0, 48, 65
1, 599003, Note_on_c, 0, 41, 46
1, 599027, Note_off_c, 0, 41, 58
1, 599076, Note_on_c, 0, 34, 86
1, 599237, Note_on_c, 0, 61, 90
1, 599237, Note_on_c, 0, 73, 99
1, 599240, Note_on_c, 0, 22, 91
1, 599245, Note_on_c, 0, 70, 86
1, 599254, Note_off_c, 0, 34, 56
1, 599257, Note_off_c, 0, 73, 63
1, 599257, Note_off_c, 0, 61, 70
1, 599263, Note_off_c, 0, 70, 74
1, 599275, Note_on_c, 0, 74, 43
1, 599275, Note_off_c, 0, 74, 127
1, 599296, Control_c, 0, 67, 21
1, 599311, Control_c, 0, 67, 0
1, 599315, Note_on_c, 0, 34, 84
1, 599319, Note_off_c, 0, 22, 61
1, 599320, Note_on_c, 0, 68, 111
1, 599320, Note_on_c, 0, 77, 95
1, 599329, Note_on_c, 0, 80, 94
1, 599356, Note_off_c, 0, 34, 65
1, 599415, Control_c, 0, 67, 19
1, 599430, Control_c, 0, 67, 0
1, 599457, Note_off_c, 0, 80, 61
1, 599469, Note_on_c, 0, 42, 60
1, 599474, Note_off_c, 0, 77, 61
1, 599490, Control_c, 0, 67, 21
1, 599504, Control_c, 0, 67, 25
1, 599519, Control_c, 0, 67, 31
1, 599532, Note_on_c, 0, 58, 82
1, 599534, Control_c, 0, 67, 35
1, 599545, Note_off_c, 0, 68, 55
1, 599548, Control_c, 0, 67, 35
1, 599563, Control_c, 0, 67, 33
1, 599576, Note_on_c, 0, 73, 51
1, 599576, Note_off_c, 0, 42, 48
1, 599578, Control_c, 0, 67, 29
1, 599588, Note_off_c, 0, 58, 64
1, 599593, Control_c, 0, 67, 24
1, 599600, Note_off_c, 0, 73, 61
1, 599607, Control_c, 0, 67, 0
1, 599625, Note_on_c, 0, 49, 77
1, 599680, Note_off_c, 0, 49, 63
1, 599687, Note_on_c, 0, 42, 67
1, 599690, Note_on_c, 0, 73, 83
1, 599699, Note_on_c, 0, 61, 59
1, 599702, Note_on_c, 0, 70, 66
1, 599708, Note_on_c, 0, 63, 59
1, 599710, Note_off_c, 0, 73, 70
1, 599711, Note_off_c, 0, 42, 64
1, 599717, Note_off_c, 0, 70, 68
1, 599725, Note_off_c, 0, 61, 58
1, 599731, Note_off_c, 0, 63, 63
1, 599755, Control_c, 0, 64, 82
1, 599759, Note_on_c, 0, 66, 106
1, 599759, Note_on_c, 0, 75, 73
1, 599761, Note_on_c, 0, 34, 93
1, 599763, Note_on_c, 0, 78, 88
1, 599770, Control_c, 0, 64, 50
1, 599785, Control_c, 0, 64, 0
1, 599809, Note_on_c, 0, 74, 56
1, 599822, Control_c, 0, 64, 51
1, 599836, Control_c, 0, 64, 70
1, 599851, Control_c, 0, 64, 87
1, 599866, Control_c, 0, 64, 127
1, 599910, Note_off_c, 0, 75, 53
1, 599913, Note_off_c, 0, 34, 61
1, 599913, Note_off_c, 0, 74, 43
1, 599916, Note_on_c, 0, 22, 90
1, 599941, Note_off_c, 0, 78, 64
1, 599956, Note_on_c, 0, 21, 43
1, 599991, Note_on_c, 0, 34, 97
1, 599993, Note_off_c, 0, 22, 63
1, 599999, Note_off_c, 0, 21, 43
1, 600032, Note_on_c, 0, 70, 61
1, 600032, Note_off_c, 0, 34, 63
1, 600048, Note_off_c, 0, 66, 58
1, 600059, Note_off_c, 0, 70, 66
1, 600156, Note_on_c, 0, 42, 58
1, 600158, Note_on_c, 0, 61, 62
1, 600160, Note_on_c, 0, 70, 78
1, 600161, Note_on_c, 0, 66, 78
1, 600179, Note_off_c, 0, 61, 63
1, 600182, Note_off_c, 0, 70, 68
1, 600182, Note_off_c, 0, 66, 70
1, 600217, Note_off_c, 0, 42, 62
1, 600220, Note_on_c, 0, 58, 86
1, 600229, Note_on_c, 0, 65, 95
1, 600229, Note_on_c, 0, 77, 94
1, 600230, Note_on_c, 0, 73, 91
1, 600238, Control_c, 0, 64, 88
1, 600250, Note_on_c, 0, 67, 55
1, 600252, Control_c, 0, 64, 56
1, 600253, Note_on_c, 0, 56, 34
1, 600267, Control_c, 0, 64, 0
1, 600272, Note_off_c, 0, 67, 41
1, 600290, Note_off_c, 0, 58, 64
1, 600296, Note_off_c, 0, 56, 31
1, 600297, Control_c, 0, 64, 46
1, 600310, Note_on_c, 0, 49, 84
1, 600312, Control_c, 0, 64, 67
1, 600322, Note_on_c, 0, 72, 70
1, 600326, Control_c, 0, 64, 90
1, 600341, Control_c, 0, 64, 127
1, 600364, Note_off_c, 0, 49, 63
1, 600368, Note_off_c, 0, 77, 60
1, 600379, Note_off_c, 0, 72, 62
1, 600380, Note_off_c, 0, 73, 62
1, 600441, Note_on_c, 0, 34, 91
1, 600453, Poly_aftertouch_c, 0, 42, 127
1, 600463, Note_off_c, 0, 65, 62
1, 600477, Note_on_c, 0, 70, 60
1, 600480, Poly_aftertouch_c, 0, 42, 0
1, 600497, Note_on_c, 0, 66, 36
1, 600506, Note_off_c, 0, 70, 65
1, 600527, Note_off_c, 0, 66, 48
1, 600601, Note_on_c, 0, 58, 94
1, 600603, Note_on_c, 0, 22, 87
1, 600608, Note_on_c, 0, 66, 80
1, 600609, Note_on_c, 0, 70, 70
1, 600617, Note_off_c, 0, 34, 60
1, 600620, Note_off_c, 0, 58, 71
1, 600628, Note_off_c, 0, 66, 71
1, 600632, Note_off_c, 0, 70, 59
1, 600633, Note_on_c, 0, 71, 54
1, 600645, Note_on_c, 0, 21, 40
1, 600646, Control_c, 0, 64, 67
1, 600655, Note_off_c, 0, 71, 59
1, 600660, Control_c, 0, 64, 0
1, 600678, Note_on_c, 0, 63, 99
1, 600678, Note_on_c, 0, 71, 87
1, 600681, Note_on_c, 0, 34, 88
1, 600681, Note_on_c, 0, 75, 89
1, 600682, Note_off_c, 0, 21, 41
1, 600682, Note_off_c, 0, 22, 63
1, 600704, Control_c, 0, 64, 64
1, 600719, Control_c, 0, 64, 95
1, 600729, Note_off_c, 0, 34, 62
1, 600734, Control_c, 0, 64, 127
1, 600838, Note_on_c, 0, 42, 61
1, 600873, Note_off_c, 0, 75, 60
1, 600882, Note_on_c, 0, 44, 34
1, 600885, Note_on_c, 0, 58, 84
1, 600891, Note_off_c, 0, 42, 57
1, 600907, Note_off_c, 0, 63, 59
1, 600908, Note_off_c, 0, 71, 62
1, 600919, Note_off_c, 0, 44, 51
1, 600939, Note_off_c, 0, 58, 65
1, 600980, Note_on_c, 0, 49, 81
1, 601031, Note_off_c, 0, 49, 63
1, 601038, Note_on_c, 0, 70, 88
1, 601040, Note_on_c, 0, 58, 89
1, 601042, Note_on_c, 0, 66, 74
1, 601047, Note_on_c, 0, 73, 70
1, 601058, Note_off_c, 0, 58, 73
1, 601058, Note_off_c, 0, 70, 72
1, 601064, Note_off_c, 0, 73, 66
1, 601066, Note_off_c, 0, 66, 68
1, 601091, Control_c, 0, 64, 86
1, 601106, Control_c, 0, 64, 43
1, 601106, Note_on_c, 0, 34, 91
1, 601110, Note_on_c, 0, 61, 100
1, 601112, Note_on_c, 0, 73, 100
1, 601117, Note_on_c, 0, 70, 86
1, 601120, Control_c, 0, 64, 0
1, 601122, Poly_aftertouch_c, 0, 42, 0
1, 601296, Note_on_c, 0, 22, 90
1, 601319, Note_off_c, 0, 34, 60
1, 601337, Note_off_c, 0, 61, 60
1, 601362, Note_off_c, 0, 70, 62
1, 601365, Note_off_c, 0, 73, 58
1, 601365, Control_c, 0, 64, 67
1, 601365, Control_c, 0, 67, 36
1, 601380, Control_c, 0, 64, 127
1, 601380, Control_c, 0, 67, 43
1, 601395, Control_c, 0, 67, 51
1, 601399, Note_on_c, 0, 34, 101
1, 601404, Note_off_c, 0, 22, 59
1, 601409, Control_c, 0, 67, 73
1, 601424, Control_c, 0, 67, 112
1, 601430, Note_off_c, 0, 34, 63
1, 601439, Control_c, 0, 67, 127
1, 601513, Control_c, 0, 64, 109
1, 601527, Control_c, 0, 64, 57
1, 601542, Control_c, 0, 64, 0
1, 601674, Note_on_c, 0, 53, 76
1, 601718, Note_on_c, 0, 62, 51
1, 601743, Note_off_c, 0, 62, 60
1, 601792, Note_on_c, 0, 65, 94
1, 601794, Note_off_c, 0, 53, 63
1, 601803, Note_on_c, 0, 68, 65
1, 601817, Note_on_c, 0, 72, 61
1, 601863, Note_off_c, 0, 68, 64
1, 601891, Note_on_c, 0, 77, 67
1, 601894, Note_off_c, 0, 72, 63
1, 601980, Note_on_c, 0, 63, 63
1, 601985, Note_off_c, 0, 77, 59
1, 602009, Note_off_c, 0, 63, 64
1, 602050, Note_on_c, 0, 69, 61
1, 602054, Note_on_c, 0, 73, 73
1, 602081, Note_off_c, 0, 69, 64
1, 602089, Note_off_c, 0, 65, 61
1, 602102, Note_on_c, 0, 64, 72
1, 602126, Note_on_c, 0, 77, 73
1, 602134, Note_off_c, 0, 73, 61
1, 602179, Note_off_c, 0, 64, 63
1, 602180, Note_on_c, 0, 63, 79
1, 602182, Note_on_c, 0, 65, 70
1, 602192, Note_off_c, 0, 77, 64
1, 602246, Note_off_c, 0, 65, 64
1, 602247, Note_on_c, 0, 62, 74
1, 602252, Note_off_c, 0, 63, 63
1, 602256, Note_on_c, 0, 70, 76
1, 602256, Note_on_c, 0, 74, 82
1, 602281, Note_off_c, 0, 62, 64
1, 602308, Note_off_c, 0, 70, 65
1, 602316, Note_off_c, 0, 74, 63
1, 602317, Note_on_c, 0, 77, 81
1, 602328, Note_on_c, 0, 60, 79
1, 602361, Note_off_c, 0, 77, 62
1, 602383, Note_on_c, 0, 66, 83
1, 602384, Note_off_c, 0, 60, 63
1, 602393, Note_on_c, 0, 58, 81
1, 602447, Note_off_c, 0, 58, 64
1, 602450, Note_on_c, 0, 70, 76
1, 602450, Note_on_c, 0, 73, 83
1, 602451, Note_off_c, 0, 66, 61
1, 602455, Note_on_c, 0, 57, 61
1, 602510, Note_off_c, 0, 70, 63
1, 602510, Note_off_c, 0, 57, 64
1, 602527, Note_on_c, 0, 78, 85
1, 602530, Note_on_c, 0, 54, 31
1, 602536, Note_off_c, 0, 73, 61
1, 602543, Note_off_c, 0, 54, 41
1, 602552, Poly_aftertouch_c, 0, 55, 0
1, 602569, Note_on_c, 0, 55, 48
1, 602585, Note_off_c, 0, 78, 64
1, 602594, Note_on_c, 0, 67, 77
1, 602614, Note_off_c, 0, 55, 63
1, 602647, Note_off_c, 0, 67, 65
1, 602647, Control_c, 0, 64, 44
1, 602657, Note_on_c, 0, 46, 67
1, 602662, Control_c, 0, 64, 50
1, 602665, Note_on_c, 0, 74, 71
1, 602672, Note_on_c, 0, 70, 62
1, 602677, Control_c, 0, 64, 60
1, 602691, Control_c, 0, 64, 68
1, 602706, Control_c, 0, 64, 73
1, 602721, Control_c, 0, 64, 75
1, 602727, Note_on_c, 0, 79, 73
1, 602731, Note_off_c, 0, 70, 55
1, 602734, Note_off_c, 0, 46, 62
1, 602738, Note_on_c, 0, 39, 63
1, 602748, Note_off_c, 0, 74, 54
1, 602751, Control_c, 0, 64, 72
1, 602766, Control_c, 0, 64, 58
1, 602768, Note_off_c, 0, 39, 63
1, 602781, Control_c, 0, 64, 0
1, 602815, Note_off_c, 0, 79, 61
1, 602818, Control_c, 0, 67, 100
1, 602833, Control_c, 0, 67, 43
1, 602847, Control_c, 0, 67, 0
1, 602892, Control_c, 0, 67, 21
1, 602894, Note_on_c, 0, 36, 92
1, 602906, Control_c, 0, 64, 42
1, 602906, Control_c, 0, 67, 46
1, 602921, Note_off_c, 0, 36, 68
1, 602921, Control_c, 0, 64, 127
1, 602921, Control_c, 0, 67, 74
1, 602936, Control_c, 0, 67, 82
1, 602966, Control_c, 0, 67, 84
1, 603040, Control_c, 0, 67, 82
1, 603055, Control_c, 0, 67, 81
1, 603070, Control_c, 0, 67, 81
1, 603085, Control_c, 0, 67, 78
1, 603094, Note_on_c, 0, 55, 80
1, 603099, Control_c, 0, 67, 75
1, 603107, Note_on_c, 0, 63, 79
1, 603114, Control_c, 0, 67, 69
1, 603129, Control_c, 0, 67, 57
1, 603136, Note_off_c, 0, 63, 64
1, 603144, Control_c, 0, 67, 28
1, 603159, Control_c, 0, 67, 0
1, 603173, Control_c, 0, 64, 108
1, 603183, Note_on_c, 0, 67, 95
1, 603188, Control_c, 0, 64, 62
1, 603191, Note_off_c, 0, 55, 61
1, 603201, Note_on_c, 0, 70, 63
1, 603201, Note_on_c, 0, 74, 68
1, 603203, Control_c, 0, 64, 0
1, 603203, Control_c, 0, 67, 20
1, 603217, Control_c, 0, 67, 29
1, 603232, Control_c, 0, 67, 38
1, 603247, Control_c, 0, 67, 44
1, 603262, Control_c, 0, 67, 47
1, 603264, Note_off_c, 0, 70, 55
1, 603265, Note_on_c, 0, 79, 78
1, 603291, Control_c, 0, 67, 49
1, 603299, Note_off_c, 0, 74, 53
1, 603306, Control_c, 0, 67, 53
1, 603322, Control_c, 0, 67, 55
1, 603325, Note_on_c, 0, 65, 80
1, 603334, Note_off_c, 0, 79, 63
1, 603353, Control_c, 0, 67, 55
1, 603368, Control_c, 0, 67, 54
1, 603374, Note_off_c, 0, 65, 63
1, 603383, Control_c, 0, 67, 53
1, 603397, Control_c, 0, 67, 51
1, 603403, Note_on_c, 0, 71, 66
1, 603412, Control_c, 0, 67, 50
1, 603413, Note_on_c, 0, 74, 77
1, 603427, Control_c, 0, 67, 50
1, 603441, Control_c, 0, 67, 49
1, 603452, Note_off_c, 0, 67, 64
1, 603461, Note_on_c, 0, 65, 82
1, 603468, Note_off_c, 0, 71, 64
1, 603471, Control_c, 0, 67, 49
1, 603478, Note_on_c, 0, 79, 90
1, 603483, Note_off_c, 0, 74, 64
1, 603486, Control_c, 0, 67, 48
1, 603501, Control_c, 0, 67, 47
1, 603546, Note_off_c, 0, 65, 63
1, 603547, Note_on_c, 0, 64, 77
1, 603550, Note_off_c, 0, 79, 65
1, 603555, Note_on_c, 0, 67, 85
1, 603568, Control_c, 0, 67, 48
1, 603583, Control_c, 0, 67, 48
1, 603607, Note_off_c, 0, 67, 64
1, 603618, Note_on_c, 0, 72, 78
1, 603619, Note_off_c, 0, 64, 64
1, 603621, Note_on_c, 0, 75, 83
1, 603622, Note_on_c, 0, 63, 77
1, 603642, Control_c, 0, 67, 49
1, 603656, Control_c, 0, 67, 50
1, 603665, Note_off_c, 0, 63, 59
1, 603669, Note_off_c, 0, 72, 63
1, 603671, Control_c, 0, 67, 52
1, 603684, Note_on_c, 0, 79, 95
1, 603686, Control_c, 0, 67, 53
1, 603689, Note_off_c, 0, 75, 64
1, 603692, Note_on_c, 0, 62, 73
1, 603701, Control_c, 0, 67, 53
1, 603736, Note_off_c, 0, 79, 66
1, 603753, Note_on_c, 0, 68, 85
1, 603757, Note_off_c, 0, 62, 61
1, 603761, Note_on_c, 0, 61, 79
1, 603790, Control_c, 0, 67, 53
1, 603800, Note_on_c, 0, 59, 56
1, 603803, Note_on_c, 0, 72, 73
1, 603804, Control_c, 0, 67, 52
1, 603812, Note_off_c, 0, 61, 62
1, 603813, Note_off_c, 0, 68, 63
1, 603821, Note_on_c, 0, 75, 84
1, 603830, Note_on_c, 0, 60, 32
1, 603860, Note_on_c, 0, 58, 56
1, 603863, Note_off_c, 0, 72, 63
1, 603866, Note_off_c, 0, 60, 31
1, 603883, Note_off_c, 0, 58, 59
1, 603889, Note_on_c, 0, 80, 93
1, 603890, Note_off_c, 0, 59, 34
1, 603893, Control_c, 0, 67, 51
1, 603903, Note_off_c, 0, 75, 64
1, 603908, Control_c, 0, 67, 49
1, 603917, Note_on_c, 0, 57, 72
1, 603923, Control_c, 0, 67, 46
1, 603937, Control_c, 0, 67, 42
1, 603952, Control_c, 0, 67, 35
1, 603953, Note_off_c, 0, 80, 61
1, 603960, Note_on_c, 0, 69, 76
1, 603967, Control_c, 0, 67, 22
1, 603982, Control_c, 0, 67, 0
1, 603994, Note_off_c, 0, 57, 58
1, 604014, Note_off_c, 0, 69, 64
1, 604016, Note_on_c, 0, 48, 52
1, 604018, Note_on_c, 0, 72, 67
1, 604029, Note_on_c, 0, 50, 57
1, 604036, Note_on_c, 0, 75, 72
1, 604041, Control_c, 0, 64, 41
1, 604054, Note_off_c, 0, 50, 60
1, 604056, Note_off_c, 0, 48, 65
1, 604056, Control_c, 0, 64, 50
1, 604066, Note_off_c, 0, 72, 60
1, 604071, Control_c, 0, 64, 56
1, 604076, Note_on_c, 0, 41, 68
1, 604086, Control_c, 0, 64, 59
1, 604086, Control_c, 0, 67, 21
1, 604100, Control_c, 0, 64, 61
1, 604100, Control_c, 0, 67, 25
1, 604103, Note_off_c, 0, 41, 64
1, 604104, Note_on_c, 0, 81, 79
1, 604116, Control_c, 0, 64, 61
1, 604116, Control_c, 0, 67, 29
1, 604116, Note_off_c, 0, 75, 62
1, 604131, Control_c, 0, 64, 62
1, 604131, Control_c, 0, 67, 36
1, 604145, Control_c, 0, 64, 63
1, 604145, Control_c, 0, 67, 45
1, 604160, Control_c, 0, 64, 63
1, 604160, Control_c, 0, 67, 55
1, 604175, Control_c, 0, 64, 63
1, 604175, Control_c, 0, 67, 59
1, 604190, Control_c, 0, 64, 57
1, 604191, Note_off_c, 0, 81, 62
1, 604205, Control_c, 0, 64, 0
1, 604205, Control_c, 0, 67, 59
1, 604219, Control_c, 0, 67, 58
1, 604238, Note_on_c, 0, 50, 62
1, 604238, Note_on_c, 0, 69, 66
1, 604263, Control_c, 0, 67, 58
1, 604278, Control_c, 0, 67, 57
1, 604283, Note_on_c, 0, 57, 63
1, 604296, Note_off_c, 0, 69, 62
1, 604301, Control_c, 0, 64, 36
1, 604301, Control_c, 0, 67, 56
1, 604307, Note_off_c, 0, 50, 57
1, 604312, Note_on_c, 0, 65, 75
1, 604313, Note_on_c, 0, 74, 75
1, 604316, Control_c, 0, 64, 59
1, 604319, Note_on_c, 0, 59, 56
1, 604331, Control_c, 0, 64, 68
1, 604331, Control_c, 0, 67, 57
1, 604345, Control_c, 0, 64, 73
1, 604357, Note_off_c, 0, 74, 62
1, 604360, Control_c, 0, 64, 76
1, 604365, Note_off_c, 0, 65, 63
1, 604366, Note_on_c, 0, 81, 78
1, 604375, Control_c, 0, 64, 78
1, 604390, Control_c, 0, 64, 83
1, 604394, Note_off_c, 0, 59, 60
1, 604405, Control_c, 0, 64, 90
1, 604405, Control_c, 0, 67, 58
1, 604414, Note_off_c, 0, 81, 63
1, 604419, Control_c, 0, 64, 98
1, 604434, Control_c, 0, 64, 100
1, 604444, Note_on_c, 0, 74, 86
1, 604449, Control_c, 0, 67, 59
1, 604463, Control_c, 0, 64, 87
1, 604463, Control_c, 0, 67, 59
1, 604478, Control_c, 0, 64, 74
1, 604478, Control_c, 0, 67, 60
1, 604492, Note_off_c, 0, 74, 64
1, 604493, Control_c, 0, 64, 70
1, 604493, Control_c, 0, 67, 61
1, 604495, Note_off_c, 0, 57, 64
1, 604501, Note_on_c, 0, 60, 51
1, 604506, Note_on_c, 0, 81, 86
1, 604508, Control_c, 0, 64, 72
1, 604516, Note_on_c, 0, 66, 77
1, 604523, Control_c, 0, 64, 84
1, 604523, Control_c, 0, 67, 60
1, 604529, Note_off_c, 0, 60, 65
1, 604537, Control_c, 0, 64, 115
1, 604537, Control_c, 0, 67, 60
1, 604540, Note_on_c, 0, 83, 51
1, 604552, Note_off_c, 0, 66, 60
1, 604552, Control_c, 0, 64, 127
1, 604552, Control_c, 0, 67, 59
1, 604565, Note_off_c, 0, 83, 56
1, 604566, Note_off_c, 0, 81, 60
1, 604567, Control_c, 0, 67, 58
1, 604570, Note_on_c, 0, 86, 88
1, 604582, Control_c, 0, 67, 57
1, 604597, Control_c, 0, 67, 56
1, 604612, Control_c, 0, 67, 54
1, 604619, Note_on_c, 0, 55, 68
1, 604621, Note_off_c, 0, 86, 62
1, 604626, Control_c, 0, 67, 53
1, 604656, Note_on_c, 0, 81, 79
1, 604656, Control_c, 0, 67, 53
1, 604668, Poly_aftertouch_c, 0, 84, 0
1, 604671, Control_c, 0, 64, 94
1, 604671, Control_c, 0, 67, 55
1, 604686, Control_c, 0, 64, 60
1, 604686, Control_c, 0, 67, 56
1, 604686, Note_on_c, 0, 62, 71
1, 604699, Note_off_c, 0, 81, 64
1, 604701, Control_c, 0, 64, 0
1, 604701, Control_c, 0, 67, 56
1, 604707, Note_on_c, 0, 64, 68
1, 604708, Note_on_c, 0, 70, 93
1, 604710, Note_off_c, 0, 55, 56
1, 604710, Note_on_c, 0, 86, 79
1, 604730, Control_c, 0, 67, 57
1, 604742, Note_on_c, 0, 88, 55
1, 604760, Control_c, 0, 64, 53
1, 604770, Note_off_c, 0, 88, 59
1, 604771, Note_off_c, 0, 86, 64
1, 604775, Control_c, 0, 64, 73
1, 604775, Control_c, 0, 67, 57
1, 604777, Note_off_c, 0, 64, 60
1, 604778, Note_on_c, 0, 93, 76
1, 604786, Note_on_c, 0, 91, 76
1, 604790, Control_c, 0, 64, 116
1, 604790, Control_c, 0, 67, 58
1, 604790, Note_on_c, 0, 89, 49
1, 604803, Note_off_c, 0, 70, 60
1, 604805, Control_c, 0, 64, 127
1, 604805, Control_c, 0, 67, 59
1, 604808, Note_off_c, 0, 91, 68
1, 604817, Note_off_c, 0, 89, 54
1, 604819, Note_off_c, 0, 93, 66
1, 604849, Control_c, 0, 67, 58
1, 604859, Note_on_c, 0, 86, 77
1, 604868, Note_on_c, 0, 88, 65
1, 604893, Control_c, 0, 64, 111
1, 604896, Note_off_c, 0, 88, 54
1, 604905, Note_on_c, 0, 65, 74
1, 604906, Note_off_c, 0, 86, 63
1, 604906, Note_off_c, 0, 62, 61
1, 604908, Control_c, 0, 64, 75
1, 604913, Note_on_c, 0, 93, 87
1, 604914, Note_on_c, 0, 71, 86
1, 604924, Control_c, 0, 64, 72
1, 604924, Control_c, 0, 67, 57
1, 604937, Note_off_c, 0, 65, 67
1, 604939, Control_c, 0, 64, 81
1, 604939, Control_c, 0, 67, 56
1, 604947, Note_on_c, 0, 95, 47
1, 604954, Control_c, 0, 64, 127
1, 604954, Control_c, 0, 67, 55
1, 604957, Note_off_c, 0, 71, 64
1, 604968, Control_c, 0, 67, 54
1, 604969, Note_off_c, 0, 93, 65
1, 604975, Note_off_c, 0, 95, 54
1, 604983, Control_c, 0, 67, 53
1, 604984, Note_on_c, 0, 100, 76
1, 604987, Note_on_c, 0, 98, 81
1, 604998, Control_c, 0, 67, 52
1, 604999, Note_on_c, 0, 96, 41
1, 605013, Control_c, 0, 67, 50
1, 605028, Note_on_c, 0, 60, 71
1, 605028, Note_off_c, 0, 98, 61
1, 605028, Control_c, 0, 67, 49
1, 605030, Note_off_c, 0, 100, 68
1, 605031, Note_off_c, 0, 96, 50
1, 605049, Control_c, 0, 67, 48
1, 605062, Note_on_c, 0, 93, 85
1, 605064, Control_c, 0, 67, 47
1, 605079, Control_c, 0, 67, 46
1, 605094, Control_c, 0, 64, 88
1, 605103, Note_on_c, 0, 67, 71
1, 605109, Control_c, 0, 64, 54
1, 605124, Control_c, 0, 64, 0
1, 605124, Control_c, 0, 67, 45
1, 605126, Note_on_c, 0, 98, 88
1, 605130, Note_off_c, 0, 93, 65
1, 605131, Note_on_c, 0, 69, 63
1, 605133, Note_on_c, 0, 75, 96
1, 605154, Control_c, 0, 64, 37
1, 605168, Control_c, 0, 64, 62
1, 605168, Control_c, 0, 67, 46
1, 605183, Control_c, 0, 64, 78
1, 605183, Control_c, 0, 67, 46
1, 605188, Note_off_c, 0, 98, 64
1, 605194, Note_on_c, 0, 105, 89
1, 605198, Control_c, 0, 64, 110
1, 605198, Control_c, 0, 67, 47
1, 605198, Note_off_c, 0, 69, 61
1, 605213, Control_c, 0, 64, 127
1, 605213, Control_c, 0, 67, 48
1, 605226, Note_off_c, 0, 105, 64
1, 605228, Control_c, 0, 67, 48
1, 605238, Note_off_c, 0, 75, 60
1, 605257, Control_c, 0, 67, 49
1, 605263, Note_on_c, 0, 93, 76
1, 605272, Control_c, 0, 67, 49
1, 605286, Note_off_c, 0, 93, 70
1, 605286, Control_c, 0, 67, 50
1, 605295, Note_off_c, 0, 60, 38
1, 605301, Control_c, 0, 64, 88
1, 605316, Control_c, 0, 64, 66
1, 605331, Control_c, 0, 64, 56
1, 605336, Note_on_c, 0, 70, 79
1, 605341, Note_on_c, 0, 76, 88
1, 605344, Note_on_c, 0, 96, 73
1, 605346, Control_c, 0, 67, 51
1, 605347, Note_off_c, 0, 67, 62
1, 605351, Note_on_c, 0, 98, 64
1, 605360, Control_c, 0, 64, 62
1, 605360, Control_c, 0, 67, 51
1, 605375, Control_c, 0, 64, 69
1, 605375, Control_c, 0, 67, 52
1, 605377, Note_off_c, 0, 98, 58
1, 605390, Control_c, 0, 64, 77
1, 605390, Control_c, 0, 67, 53
1, 605395, Note_off_c, 0, 70, 64
1, 605405, Note_off_c, 0, 76, 63
1, 605405, Control_c, 0, 64, 86
1, 605405, Control_c, 0, 67, 54
1, 605412, Note_on_c, 0, 91, 60
1, 605412, Note_off_c, 0, 96, 62
1, 605419, Control_c, 0, 64, 88
1, 605419, Control_c, 0, 67, 54
1, 605436, Note_on_c, 0, 93, 7
1, 605445, Note_off_c, 0, 91, 66
1, 605449, Control_c, 0, 64, 88
1, 605449, Control_c, 0, 67, 55
1, 605464, Control_c, 0, 67, 56
1, 605479, Control_c, 0, 64, 89
1, 605479, Control_c, 0, 67, 56
1, 605482, Note_off_c, 0, 93, 28
1, 605486, Note_on_c, 0, 84, 71
1, 605493, Control_c, 0, 64, 90
1, 605508, Control_c, 0, 64, 90
1, 605523, Control_c, 0, 67, 57
1, 605529, Note_off_c, 0, 84, 60
1, 605538, Control_c, 0, 64, 84
1, 605538, Control_c, 0, 67, 58
1, 605553, Control_c, 0, 64, 67
1, 605553, Control_c, 0, 67, 60
1, 605568, Control_c, 0, 64, 0
1, 605568, Control_c, 0, 67, 65
1, 605574, Note_on_c, 0, 75, 77
1, 605577, Note_on_c, 0, 69, 64
1, 605577, Note_on_c, 0, 81, 69
1, 605578, Note_on_c, 0, 89, 72
1, 605583, Control_c, 0, 67, 68
1, 605598, Control_c, 0, 67, 71
1, 605605, Note_off_c, 0, 81, 67
1, 605607, Note_off_c, 0, 89, 63
1, 605611, Note_on_c, 0, 64, 38
1, 605613, Control_c, 0, 64, 41
1, 605613, Control_c, 0, 67, 73
1, 605624, Note_on_c, 0, 65, 46
1, 605628, Control_c, 0, 64, 64
1, 605628, Control_c, 0, 67, 76
1, 605629, Note_off_c, 0, 75, 64
1, 605643, Control_c, 0, 64, 80
1, 605643, Control_c, 0, 67, 79
1, 605647, Note_off_c, 0, 69, 62
1, 605654, Note_off_c, 0, 64, 62
1, 605654, Note_off_c, 0, 65, 56
1, 605657, Control_c, 0, 64, 106
1, 605657, Control_c, 0, 67, 83
1, 605672, Control_c, 0, 64, 127
1, 605672, Control_c, 0, 67, 87
1, 605687, Control_c, 0, 67, 89
1, 605702, Control_c, 0, 67, 91
1, 605717, Control_c, 0, 67, 93
1, 605732, Control_c, 0, 67, 94
1, 605747, Control_c, 0, 67, 96
1, 605762, Control_c, 0, 67, 98
1, 605777, Control_c, 0, 67, 102
1, 605799, Control_c, 0, 67, 107
1, 605814, Control_c, 0, 64, 70
1, 605814, Control_c, 0, 67, 111
1, 605824, Note_on_c, 0, 70, 59
1, 605826, Note_on_c, 0, 82, 77
1, 605829, Control_c, 0, 64, 37
1, 605829, Control_c, 0, 67, 115
1, 605830, Note_on_c, 0, 74, 73
1, 605833, Note_on_c, 0, 58, 49
1, 605836, Note_on_c, 0, 65, 47
1, 605843, Control_c, 0, 64, 0
1, 605848, Note_off_c, 0, 70, 60
1, 605855, Note_off_c, 0, 74, 66
1, 605855, Note_off_c, 0, 82, 63
1, 605858, Control_c, 0, 64, 56
1, 605869, Note_off_c, 0, 65, 65
1, 605873, Control_c, 0, 64, 81
1, 605873, Control_c, 0, 67, 117
1, 605878, Note_off_c, 0, 58, 58
1, 605888, Control_c, 0, 64, 127
1, 606006, Control_c, 0, 67, 114
1, 606021, Control_c, 0, 64, 109
1, 606036, Control_c, 0, 64, 67
1, 606045, Note_on_c, 0, 62, 57
1, 606046, Note_on_c, 0, 57, 60
1, 606051, Control_c, 0, 64, 0
1, 606056, Note_on_c, 0, 50, 55
1, 606057, Note_on_c, 0, 77, 72
1, 606060, Note_on_c, 0, 74, 69
1, 606061, Note_on_c, 0, 65, 73
1, 606066, Note_on_c, 0, 69, 61
1, 606066, Control_c, 0, 67, 112
1, 606080, Note_off_c, 0, 77, 69
1, 606081, Control_c, 0, 64, 43
1, 606084, Note_off_c, 0, 62, 64
1, 606087, Note_off_c, 0, 65, 69
1, 606093, Note_off_c, 0, 69, 66
1, 606093, Note_off_c, 0, 74, 66
1, 606096, Control_c, 0, 64, 66
1, 606099, Note_off_c, 0, 57, 62
1, 606110, Control_c, 0, 64, 97
1, 606124, Note_off_c, 0, 50, 62
1, 606125, Control_c, 0, 64, 127
1, 606288, Control_c, 0, 64, 78
1, 606289, Note_on_c, 0, 43, 61
1, 606290, Note_on_c, 0, 55, 59
1, 606297, Note_on_c, 0, 70, 74
1, 606298, Note_on_c, 0, 50, 46
1, 606303, Control_c, 0, 64, 35
1, 606304, Note_on_c, 0, 58, 69
1, 606308, Note_on_c, 0, 62, 47
1, 606317, Control_c, 0, 64, 0
1, 606332, Control_c, 0, 64, 42
1, 606339, Note_off_c, 0, 58, 60
1, 606342, Note_off_c, 0, 50, 62
1, 606345, Note_off_c, 0, 62, 64
1, 606346, Control_c, 0, 64, 67
1, 606346, Note_off_c, 0, 55, 60
1, 606351, Note_off_c, 0, 70, 64
1, 606359, Note_off_c, 0, 43, 64
1, 606361, Control_c, 0, 64, 93
1, 606375, Control_c, 0, 64, 127
1, 606561, Control_c, 0, 64, 79
1, 606573, Note_on_c, 0, 51, 59
1, 606576, Control_c, 0, 64, 44
1, 606579, Note_on_c, 0, 59, 52
1, 606579, Note_on_c, 0, 65, 62
1, 606587, Note_on_c, 0, 53, 54
1, 606588, Note_on_c, 0, 44, 55
1, 606591, Control_c, 0, 64, 0
1, 606620, Control_c, 0, 64, 45
1, 606635, Control_c, 0, 64, 66
1, 606650, Control_c, 0, 64, 81
1, 606652, Note_off_c, 0, 59, 63
1, 606652, Note_off_c, 0, 65, 62
1, 606665, Control_c, 0, 64, 102
1, 606671, Note_off_c, 0, 51, 61
1, 606680, Control_c, 0, 64, 127
1, 606680, Control_c, 0, 67, 114
1, 606692, Note_off_c, 0, 44, 64
1, 606702, Note_off_c, 0, 53, 61
1, 606917, Control_c, 0, 64, 88
1, 606932, Control_c, 0, 64, 64
1, 606936, Note_on_c, 0, 34, 39
1, 606946, Control_c, 0, 64, 0
1, 606956, Note_on_c, 0, 58, 51
1, 606957, Note_on_c, 0, 46, 40
1, 606961, Note_on_c, 0, 41, 34
1, 606966, Note_on_c, 0, 50, 49
1, 607020, Control_c, 0, 64, 48
1, 607035, Control_c, 0, 64, 66
1, 607050, Control_c, 0, 64, 77
1, 607050, Control_c, 0, 67, 112
1, 607058, Note_off_c, 0, 50, 62
1, 607064, Control_c, 0, 64, 93
1, 607079, Control_c, 0, 64, 127
1, 607079, Control_c, 0, 67, 110
1, 607086, Note_off_c, 0, 34, 51
1, 607095, Note_off_c, 0, 58, 63
1, 607100, Note_off_c, 0, 41, 52
1, 607109, Control_c, 0, 67, 106
1, 607124, Control_c, 0, 67, 99
1, 607125, Note_off_c, 0, 46, 43
1, 607139, Control_c, 0, 67, 77
1, 607154, Control_c, 0, 67, 27
1, 607169, Control_c, 0, 67, 0
1, 607198, Control_c, 0, 64, 86
1, 607213, Control_c, 0, 64, 44
1, 607228, Control_c, 0, 64, 0
1, 607384, Note_on_c, 0, 62, 93
1, 607386, Note_on_c, 0, 50, 84
1, 607389, Note_on_c, 0, 72, 92
1, 607397, Note_on_c, 0, 86, 73
1, 607398, Note_on_c, 0, 84, 74
1, 607399, Control_c, 0, 64, 93
1, 607406, Note_off_c, 0, 62, 69
1, 607407, Note_off_c, 0, 72, 70
1, 607411, Note_off_c, 0, 50, 68
1, 607411, Note_off_c, 0, 86, 69
1, 607413, Control_c, 0, 64, 127
1, 607414, Note_off_c, 0, 84, 68
1, 607422, Note_on_c, 0, 74, 46
1, 607422, Note_off_c, 0, 74, 127
1, 607453, Poly_aftertouch_c, 0, 74, 0
1, 607799, Control_c, 0, 64, 124
1, 607813, Control_c, 0, 64, 64
1, 607828, Control_c, 0, 64, 0
1, 607853, Note_on_c, 0, 38, 94
1, 607858, Control_c, 0, 64, 48
1, 607859, Note_on_c, 0, 26, 84
1, 607860, Note_on_c, 0, 50, 95
1, 607863, Note_on_c, 0, 62, 85
1, 607873, Control_c, 0, 64, 73
1, 607873, Control_c, 0, 67, 30
1, 607877, Note_off_c, 0, 38, 72
1, 607881, Note_off_c, 0, 26, 65
1, 607883, Note_off_c, 0, 50, 68
1, 607887, Control_c, 0, 64, 127
1, 607887, Control_c, 0, 67, 0
1, 607892, Note_off_c, 0, 62, 64
1, 608106, Note_on_c, 0, 48, 69
1, 608114, Note_on_c, 0, 60, 74
1, 608166, Note_on_c, 0, 62, 79
1, 608170, Note_off_c, 0, 60, 64
1, 608182, Note_on_c, 0, 50, 66
1, 608186, Note_off_c, 0, 48, 63
1, 608231, Note_on_c, 0, 63, 79
1, 608236, Note_on_c, 0, 51, 81
1, 608238, Note_off_c, 0, 50, 61
1, 608251, Control_c, 0, 64, 91
1, 608266, Note_off_c, 0, 62, 57
1, 608266, Control_c, 0, 64, 46
1, 608281, Note_on_c, 0, 53, 79
1, 608281, Note_on_c, 0, 46, 88
1, 608281, Control_c, 0, 64, 0
1, 608283, Note_on_c, 0, 65, 97
1, 608283, Note_off_c, 0, 51, 60
1, 608290, Note_on_c, 0, 58, 89
1, 608304, Note_off_c, 0, 63, 64
1, 608304, Note_off_c, 0, 53, 67
1, 608306, Note_off_c, 0, 46, 69
1, 608310, Note_off_c, 0, 58, 70
1, 608318, Note_off_c, 0, 65, 67
1, 608504, Control_c, 0, 64, 50
1, 608509, Note_on_c, 0, 51, 95
1, 608509, Note_on_c, 0, 55, 99
1, 608510, Note_on_c, 0, 67, 95
1, 608514, Note_on_c, 0, 63, 88
1, 608515, Note_on_c, 0, 39, 84
1, 608518, Control_c, 0, 64, 82
1, 608519, Note_on_c, 0, 46, 75
1, 608526, Note_off_c, 0, 55, 73
1, 608533, Control_c, 0, 64, 127
1, 608534, Note_off_c, 0, 63, 71
1, 608538, Note_off_c, 0, 51, 63
1, 608540, Note_off_c, 0, 67, 62
1, 608541, Note_off_c, 0, 39, 64
1, 608543, Note_off_c, 0, 46, 65
1, 608728, Note_on_c, 0, 67, 93
1, 608729, Note_on_c, 0, 79, 91
1, 608734, Note_on_c, 0, 55, 76
1, 608758, Note_off_c, 0, 79, 60
1, 608760, Note_off_c, 0, 67, 60
1, 608764, Note_off_c, 0, 55, 58
1, 608771, Note_on_c, 0, 77, 31
1, 608771, Note_off_c, 0, 77, 127
1, 608945, Note_on_c, 0, 50, 83
1, 608948, Note_on_c, 0, 57, 84
1, 608952, Note_on_c, 0, 69, 82
1, 608957, Control_c, 0, 64, 68
1, 608957, Note_on_c, 0, 62, 87
1, 608961, Note_on_c, 0, 66, 82
1, 608972, Control_c, 0, 64, 0
1, 608973, Note_off_c, 0, 57, 69
1, 608986, Note_off_c, 0, 62, 66
1, 608987, Note_off_c, 0, 66, 63
1, 608987, Note_off_c, 0, 50, 61
1, 609001, Note_off_c, 0, 69, 63
1, 609174, Note_on_c, 0, 58, 87
1, 609174, Note_on_c, 0, 67, 69
1, 609175, Note_on_c, 0, 70, 96
1, 609178, Note_on_c, 0, 55, 88
1, 609180, Note_on_c, 0, 50, 83
1, 609183, Note_on_c, 0, 43, 78
1, 609193, Note_off_c, 0, 58, 73
1, 609203, Note_off_c, 0, 67, 66
1, 609205, Note_off_c, 0, 55, 66
1, 609206, Note_off_c, 0, 50, 68
1, 609210, Note_off_c, 0, 43, 65
1, 609217, Note_off_c, 0, 70, 69
1, 609428, Note_on_c, 0, 74, 103
1, 609429, Note_on_c, 0, 86, 103
1, 609431, Control_c, 0, 67, 34
1, 609433, Note_on_c, 0, 62, 95
1, 609434, Note_on_c, 0, 50, 93
1, 609446, Control_c, 0, 64, 127
1, 609446, Control_c, 0, 67, 36
1, 609450, Note_off_c, 0, 62, 73
1, 609452, Note_off_c, 0, 74, 68
1, 609455, Note_off_c, 0, 50, 71
1, 609455, Note_off_c, 0, 86, 65
1, 609460, Control_c, 0, 67, 30
1, 609490, Control_c, 0, 67, 32
1, 609505, Control_c, 0, 67, 33
1, 609520, Control_c, 0, 67, 32
1, 609556, Control_c, 0, 67, 29
1, 609586, Control_c, 0, 67, 25
1, 609601, Control_c, 0, 67, 0
1, 609854, Control_c, 0, 64, 85
1, 609869, Control_c, 0, 64, 52
1, 609881, Note_on_c, 0, 38, 97
1, 609883, Control_c, 0, 64, 0
1, 609883, Control_c, 0, 67, 37
1, 609884, Note_on_c, 0, 26, 88
1, 609887, Note_on_c, 0, 50, 97
1, 609887, Note_on_c, 0, 62, 92
1, 609898, Control_c, 0, 64, 52
1, 609898, Control_c, 0, 67, 57
1, 609906, Note_off_c, 0, 38, 70
1, 609913, Control_c, 0, 64, 73
1, 609913, Control_c, 0, 67, 48
1, 609914, Note_off_c, 0, 26, 68
1, 609928, Control_c, 0, 64, 127
1, 609928, Control_c, 0, 67, 39
1, 609937, Note_off_c, 0, 50, 63
1, 609943, Control_c, 0, 67, 21
1, 609957, Control_c, 0, 67, 0
1, 610063, Note_off_c, 0, 62, 58
1, 610108, Note_on_c, 0, 43, 65
1, 610127, Note_on_c, 0, 57, 69
1, 610135, Note_on_c, 0, 55, 60
1, 610143, Note_on_c, 0, 45, 33
1, 610143, Note_off_c, 0, 45, 127
1, 610157, Note_off_c, 0, 55, 58
1, 610195, Poly_aftertouch_c, 0, 45, 127
1, 610200, Note_off_c, 0, 43, 63
1, 610249, Note_on_c, 0, 46, 81
1, 610254, Note_on_c, 0, 58, 79
1, 610258, Note_off_c, 0, 57, 63
1, 610262, Poly_aftertouch_c, 0, 45, 0
1, 610268, Control_c, 0, 64, 85
1, 610290, Control_c, 0, 64, 0
1, 610296, Note_on_c, 0, 53, 93
1, 610300, Note_on_c, 0, 48, 75
1, 610301, Note_off_c, 0, 46, 64
1, 610303, Note_on_c, 0, 60, 78
1, 610305, Note_on_c, 0, 40, 69
1, 610315, Note_on_c, 0, 41, 65
1, 610317, Note_on_c, 0, 62, 53
1, 610320, Note_off_c, 0, 53, 68
1, 610324, Note_off_c, 0, 48, 67
1, 610326, Note_on_c, 0, 57, 37
1, 610332, Note_off_c, 0, 58, 65
1, 610336, Note_off_c, 0, 60, 69
1, 610337, Note_off_c, 0, 40, 65
1, 610337, Note_off_c, 0, 41, 59
1, 610340, Note_off_c, 0, 62, 57
1, 610352, Note_off_c, 0, 57, 56
1, 610513, Control_c, 0, 64, 39
1, 610519, Note_on_c, 0, 46, 93
1, 610521, Note_on_c, 0, 50, 91
1, 610523, Note_on_c, 0, 62, 86
1, 610524, Note_on_c, 0, 34, 77
1, 610525, Note_on_c, 0, 58, 86
1, 610528, Control_c, 0, 64, 91
1, 610540, Note_on_c, 0, 41, 47
1, 610543, Note_off_c, 0, 50, 69
1, 610543, Control_c, 0, 64, 127
1, 610543, Note_off_c, 0, 46, 68
1, 610546, Note_off_c, 0, 58, 72
1, 610549, Note_off_c, 0, 34, 64
1, 610563, Note_off_c, 0, 62, 62
1, 610570, Note_off_c, 0, 41, 52
1, 610720, Control_c, 0, 64, 107
1, 610732, Note_on_c, 0, 67, 100
1, 610735, Control_c, 0, 64, 69
1, 610740, Note_on_c, 0, 55, 81
1, 610750, Control_c, 0, 64, 59
1, 610765, Control_c, 0, 64, 65
1, 610779, Control_c, 0, 64, 80
1, 610794, Control_c, 0, 64, 127
1, 610898, Note_off_c, 0, 55, 56
1, 610937, Note_on_c, 0, 64, 63
1, 610938, Note_on_c, 0, 52, 72
1, 610943, Control_c, 0, 64, 93
1, 610944, Note_on_c, 0, 57, 82
1, 610950, Note_on_c, 0, 61, 75
1, 610951, Note_on_c, 0, 45, 71
1, 610957, Control_c, 0, 64, 55
1, 610963, Note_off_c, 0, 52, 65
1, 610966, Note_off_c, 0, 57, 70
1, 610972, Control_c, 0, 64, 0
1, 610975, Note_off_c, 0, 61, 66
1, 610980, Note_off_c, 0, 45, 66
1, 610991, Note_off_c, 0, 64, 63
1, 611157, Note_off_c, 0, 67, 61
1, 611199, Note_on_c, 0, 38, 74
1, 611199, Note_on_c, 0, 62, 83
1, 611201, Note_on_c, 0, 45, 68
1, 611201, Note_on_c, 0, 50, 78
1, 611201, Note_on_c, 0, 54, 67
1, 611205, Note_on_c, 0, 66, 88
1, 611220, Note_off_c, 0, 62, 71
1, 611228, Note_off_c, 0, 38, 62
1, 611229, Note_off_c, 0, 54, 64
1, 611232, Note_off_c, 0, 45, 65
1, 611232, Note_off_c, 0, 50, 66
1, 611232, Control_c, 0, 64, 64
1, 611238, Note_off_c, 0, 66, 65
1, 611247, Control_c, 0, 64, 88
1, 611262, Control_c, 0, 64, 127
1, 611462, Note_on_c, 0, 62, 89
1, 611464, Note_on_c, 0, 74, 101
1, 611486, Note_off_c, 0, 62, 68
1, 611497, Note_off_c, 0, 74, 70
1, 611907, Control_c, 0, 64, 108
1, 611922, Control_c, 0, 64, 96
1, 611929, Note_on_c, 0, 38, 93
1, 611932, Note_on_c, 0, 50, 99
1, 611933, Note_on_c, 0, 26, 83
1, 611936, Note_on_c, 0, 62, 93
1, 611936, Control_c, 0, 64, 100
1, 611936, Control_c, 0, 67, 28
1, 611951, Control_c, 0, 64, 127
1, 611951, Control_c, 0, 67, 23
1, 611953, Note_off_c, 0, 38, 70
1, 611956, Note_off_c, 0, 50, 66
1, 611957, Note_off_c, 0, 26, 64
1, 611962, Note_off_c, 0, 62, 64
1, 612040, Control_c, 0, 67, 0
1, 612183, Note_on_c, 0, 51, 82
1, 612189, Control_c, 0, 64, 70
1, 612191, Note_on_c, 0, 54, 99
1, 612191, Note_on_c, 0, 66, 94
1, 612193, Note_on_c, 0, 63, 88
1, 612204, Control_c, 0, 64, 0
1, 612204, Control_c, 0, 67, 20
1, 612240, Note_off_c, 0, 51, 60
1, 612248, Control_c, 0, 64, 33
1, 612260, Note_on_c, 0, 50, 75
1, 612263, Control_c, 0, 64, 58
1, 612278, Control_c, 0, 64, 65
1, 612293, Control_c, 0, 64, 64
1, 612293, Control_c, 0, 67, 22
1, 612308, Control_c, 0, 64, 63
1, 612322, Note_off_c, 0, 50, 61
1, 612326, Note_on_c, 0, 49, 87
1, 612338, Control_c, 0, 64, 64
1, 612352, Control_c, 0, 64, 66
1, 612382, Control_c, 0, 64, 65
1, 612389, Note_off_c, 0, 49, 62
1, 612397, Control_c, 0, 64, 65
1, 612409, Note_on_c, 0, 48, 74
1, 612411, Control_c, 0, 64, 64
1, 612426, Control_c, 0, 64, 65
1, 612462, Note_on_c, 0, 47, 74
1, 612469, Note_off_c, 0, 48, 63
1, 612485, Control_c, 0, 64, 64
1, 612537, Control_c, 0, 64, 65
1, 612548, Note_on_c, 0, 46, 85
1, 612552, Control_c, 0, 64, 65
1, 612556, Note_off_c, 0, 47, 63
1, 612567, Control_c, 0, 64, 66
1, 612582, Control_c, 0, 64, 67
1, 612597, Control_c, 0, 64, 70
1, 612611, Control_c, 0, 64, 72
1, 612620, Note_on_c, 0, 42, 78
1, 612625, Note_off_c, 0, 46, 63
1, 612626, Control_c, 0, 64, 73
1, 612641, Control_c, 0, 64, 70
1, 612655, Note_on_c, 0, 39, 76
1, 612656, Control_c, 0, 64, 63
1, 612671, Control_c, 0, 64, 50
1, 612676, Note_off_c, 0, 42, 63
1, 612681, Note_off_c, 0, 66, 59
1, 612686, Note_off_c, 0, 63, 60
1, 612700, Control_c, 0, 64, 61
1, 612704, Note_off_c, 0, 39, 61
1, 612715, Control_c, 0, 64, 70
1, 612729, Control_c, 0, 64, 81
1, 612740, Note_on_c, 0, 40, 62
1, 612744, Control_c, 0, 64, 92
1, 612756, Note_on_c, 0, 38, 60
1, 612759, Control_c, 0, 64, 93
1, 612774, Control_c, 0, 64, 94
1, 612789, Control_c, 0, 64, 100
1, 612802, Note_off_c, 0, 40, 61
1, 612803, Control_c, 0, 64, 108
1, 612818, Control_c, 0, 64, 127
1, 612822, Note_on_c, 0, 37, 83
1, 612823, Note_off_c, 0, 38, 38
1, 612841, Note_off_c, 0, 54, 60
1, 612850, Note_on_c, 0, 58, 96
1, 612863, Control_c, 0, 64, 93
1, 612877, Control_c, 0, 64, 68
1, 612892, Control_c, 0, 64, 39
1, 612908, Control_c, 0, 64, 0
1, 612915, Note_off_c, 0, 37, 62
1, 612922, Note_on_c, 0, 36, 69
1, 612923, Control_c, 0, 64, 42
1, 612938, Control_c, 0, 64, 60
1, 612938, Control_c, 0, 67, 24
1, 612952, Control_c, 0, 64, 67
1, 612967, Control_c, 0, 64, 69
1, 612982, Control_c, 0, 64, 66
1, 612997, Control_c, 0, 64, 65
1, 613010, Note_off_c, 0, 36, 62
1, 613013, Note_on_c, 0, 35, 69
1, 613098, Note_on_c, 0, 34, 78
1, 613099, Note_off_c, 0, 35, 61
1, 613113, Note_on_c, 0, 57, 86
1, 613116, Control_c, 0, 64, 63
1, 613131, Control_c, 0, 64, 61
1, 613135, Note_off_c, 0, 58, 39
1, 613145, Control_c, 0, 64, 59
1, 613160, Control_c, 0, 64, 58
1, 613175, Control_c, 0, 64, 59
1, 613195, Note_on_c, 0, 30, 56
1, 613205, Control_c, 0, 64, 60
1, 613229, Note_off_c, 0, 34, 61
1, 613234, Control_c, 0, 64, 60
1, 613237, Note_on_c, 0, 27, 76
1, 613249, Control_c, 0, 64, 61
1, 613250, Note_off_c, 0, 30, 56
1, 613264, Control_c, 0, 64, 61
1, 613264, Control_c, 0, 67, 26
1, 613286, Control_c, 0, 64, 62
1, 613301, Control_c, 0, 64, 62
1, 613329, Note_on_c, 0, 37, 74
1, 613330, Control_c, 0, 64, 59
1, 613339, Note_on_c, 0, 56, 87
1, 613339, Note_off_c, 0, 27, 62
1, 613339, Note_off_c, 0, 57, 64
1, 613345, Control_c, 0, 64, 40
1, 613360, Control_c, 0, 64, 0
1, 613360, Control_c, 0, 67, 28
1, 613390, Control_c, 0, 67, 32
1, 613392, Note_off_c, 0, 37, 64
1, 613401, Note_on_c, 0, 36, 71
1, 613405, Control_c, 0, 67, 34
1, 613420, Control_c, 0, 67, 36
1, 613434, Control_c, 0, 64, 50
1, 613434, Control_c, 0, 67, 39
1, 613449, Control_c, 0, 64, 55
1, 613449, Control_c, 0, 67, 40
1, 613464, Control_c, 0, 64, 54
1, 613464, Control_c, 0, 67, 41
1, 613479, Control_c, 0, 64, 54
1, 613479, Control_c, 0, 67, 42
1, 613482, Note_on_c, 0, 35, 65
1, 613489, Note_off_c, 0, 36, 60
1, 613494, Control_c, 0, 64, 54
1, 613494, Control_c, 0, 67, 43
1, 613508, Control_c, 0, 64, 55
1, 613508, Control_c, 0, 67, 44
1, 613523, Control_c, 0, 67, 46
1, 613538, Control_c, 0, 64, 54
1, 613538, Control_c, 0, 67, 48
1, 613552, Control_c, 0, 64, 53
1, 613552, Control_c, 0, 67, 50
1, 613560, Note_on_c, 0, 34, 74
1, 613565, Note_off_c, 0, 35, 63
1, 613567, Control_c, 0, 67, 54
1, 613578, Note_on_c, 0, 54, 76
1, 613582, Control_c, 0, 67, 57
1, 613597, Control_c, 0, 64, 54
1, 613597, Control_c, 0, 67, 59
1, 613612, Control_c, 0, 67, 60
1, 613614, Note_off_c, 0, 56, 61
1, 613626, Control_c, 0, 64, 53
1, 613626, Control_c, 0, 67, 60
1, 613641, Control_c, 0, 67, 61
1, 613655, Note_on_c, 0, 30, 59
1, 613656, Control_c, 0, 67, 62
1, 613665, Note_off_c, 0, 34, 62
1, 613671, Control_c, 0, 67, 63
1, 613686, Control_c, 0, 64, 54
1, 613686, Control_c, 0, 67, 63
1, 613702, Control_c, 0, 67, 64
1, 613710, Note_on_c, 0, 27, 68
1, 613717, Control_c, 0, 64, 54
1, 613717, Control_c, 0, 67, 64
1, 613731, Control_c, 0, 64, 55
1, 613731, Control_c, 0, 67, 65
1, 613746, Control_c, 0, 64, 55
1, 613746, Control_c, 0, 67, 65
1, 613761, Control_c, 0, 64, 56
1, 613761, Control_c, 0, 67, 66
1, 613775, Control_c, 0, 67, 67
1, 613790, Control_c, 0, 64, 53
1, 613790, Control_c, 0, 67, 68
1, 613795, Note_off_c, 0, 30, 25
1, 613798, Note_on_c, 0, 37, 76
1, 613805, Control_c, 0, 64, 0
1, 613805, Control_c, 0, 67, 69
1, 613814, Note_off_c, 0, 27, 63
1, 613817, Note_on_c, 0, 51, 79
1, 613820, Control_c, 0, 67, 70
1, 613836, Control_c, 0, 67, 72
1, 613839, Note_off_c, 0, 54, 60
1, 613850, Control_c, 0, 67, 74
1, 613858, Note_off_c, 0, 37, 62
1, 613865, Control_c, 0, 67, 75
1, 613870, Note_on_c, 0, 36, 72
1, 613880, Control_c, 0, 67, 77
1, 613895, Control_c, 0, 64, 44
1, 613910, Control_c, 0, 64, 51
1, 613924, Control_c, 0, 64, 51
1, 613924, Control_c, 0, 67, 77
1, 613960, Note_on_c, 0, 35, 65
1, 613966, Note_off_c, 0, 36, 59
1, 613969, Control_c, 0, 64, 51
1, 613983, Control_c, 0, 64, 52
1, 613998, Control_c, 0, 64, 49
1, 614013, Control_c, 0, 64, 37
1, 614013, Control_c, 0, 67, 78
1, 614036, Control_c, 0, 64, 0
1, 614036, Control_c, 0, 67, 78
1, 614051, Control_c, 0, 67, 80
1, 614052, Note_off_c, 0, 35, 62
1, 614053, Note_on_c, 0, 34, 70
1, 614057, Note_off_c, 0, 51, 61
1, 614062, Note_on_c, 0, 46, 66
1, 614065, Control_c, 0, 67, 83
1, 614080, Control_c, 0, 64, 47
1, 614080, Control_c, 0, 67, 86
1, 614095, Control_c, 0, 64, 62
1, 614095, Control_c, 0, 67, 87
1, 614109, Control_c, 0, 64, 67
1, 614109, Control_c, 0, 67, 88
1, 614124, Control_c, 0, 64, 68
1, 614151, Note_on_c, 0, 30, 40
1, 614177, Note_off_c, 0, 34, 59
1, 614189, Note_on_c, 0, 27, 69
1, 614192, Note_off_c, 0, 30, 59
1, 614198, Control_c, 0, 64, 69
1, 614213, Control_c, 0, 64, 71
1, 614228, Control_c, 0, 64, 75
1, 614243, Control_c, 0, 64, 83
1, 614257, Control_c, 0, 64, 96
1, 614257, Control_c, 0, 67, 88
1, 614272, Control_c, 0, 64, 95
1, 614272, Control_c, 0, 67, 89
1, 614274, Note_off_c, 0, 27, 61
1, 614275, Note_on_c, 0, 37, 88
1, 614287, Control_c, 0, 64, 67
1, 614287, Control_c, 0, 67, 89
1, 614300, Note_off_c, 0, 37, 68
1, 614302, Control_c, 0, 64, 0
1, 614302, Control_c, 0, 67, 90
1, 614317, Control_c, 0, 67, 90
1, 614332, Control_c, 0, 67, 91
1, 614347, Control_c, 0, 67, 92
1, 614376, Control_c, 0, 67, 93
1, 614391, Control_c, 0, 67, 94
1, 614406, Control_c, 0, 67, 96
1, 614417, Note_on_c, 0, 45, 57
1, 614421, Control_c, 0, 67, 98
1, 614429, Note_off_c, 0, 46, 63
1, 614436, Control_c, 0, 67, 101
1, 614511, Control_c, 0, 67, 103
1, 614515, Note_off_c, 0, 45, 61
1, 614523, Note_on_c, 0, 36, 64
1, 614530, Note_on_c, 0, 44, 62
1, 614558, Note_off_c, 0, 36, 64
1, 614613, Note_off_c, 0, 44, 63
1, 614630, Note_on_c, 0, 43, 59
1, 614716, Note_off_c, 0, 43, 55
1, 614716, Control_c, 0, 67, 105
1, 614731, Note_on_c, 0, 34, 57
1, 614735, Note_on_c, 0, 42, 59
1, 614760, Note_off_c, 0, 34, 63
1, 614784, Control_c, 0, 67, 107
1, 614798, Control_c, 0, 67, 110
1, 614813, Control_c, 0, 67, 113
1, 614828, Control_c, 0, 67, 115
1, 614843, Control_c, 0, 67, 118
1, 614851, Note_off_c, 0, 42, 64
1, 614858, Control_c, 0, 67, 122
1, 614861, Note_on_c, 0, 39, 46
1, 614873, Control_c, 0, 67, 125
1, 614887, Control_c, 0, 67, 127
1, 614915, Note_off_c, 0, 39, 56
1, 614968, Note_on_c, 0, 30, 60
1, 614999, Note_off_c, 0, 30, 63
1, 615205, Note_on_c, 0, 27, 62
1, 615238, Note_off_c, 0, 27, 63
1, 615436, Note_on_c, 0, 54, 70
1, 615436, Note_on_c, 0, 66, 65
1, 615438, Note_on_c, 0, 57, 63
1, 615438, Note_on_c, 0, 62, 63
1, 615452, Note_on_c, 0, 45, 17
1, 615459, Note_off_c, 0, 62, 64
1, 615465, Note_off_c, 0, 66, 66
1, 615466, Note_off_c, 0, 54, 66
1, 615468, Note_off_c, 0, 57, 65
1, 615495, Note_off_c, 0, 45, 37
1, 615616, Note_on_c, 0, 67, 67
1, 615629, Note_on_c, 0, 54, 36
1, 615638, Note_on_c, 0, 58, 48
1, 615638, Note_on_c, 0, 64, 42
1, 615643, Note_on_c, 0, 50, 49
1, 615664, Note_off_c, 0, 58, 59
1, 615664, Note_off_c, 0, 64, 51
1, 615673, Note_on_c, 0, 66, 72
1, 615677, Note_on_c, 0, 69, 75
1, 615679, Note_off_c, 0, 67, 63
1, 615682, Note_on_c, 0, 57, 53
1, 615682, Note_on_c, 0, 62, 64
1, 615717, Poly_aftertouch_c, 0, 45, 127
1, 615740, Control_c, 0, 64, 43
1, 615751, Note_off_c, 0, 57, 59
1, 615754, Control_c, 0, 64, 63
1, 615769, Note_off_c, 0, 50, 60
1, 615769, Control_c, 0, 64, 74
1, 615779, Note_off_c, 0, 54, 63
1, 615784, Control_c, 0, 64, 82
1, 615799, Control_c, 0, 64, 89
1, 615814, Control_c, 0, 64, 98
1, 615823, Poly_aftertouch_c, 0, 45, 0
1, 615828, Control_c, 0, 64, 115
1, 615843, Control_c, 0, 64, 127
1, 615890, Note_off_c, 0, 69, 59
1, 615903, Note_off_c, 0, 62, 62
1, 615909, Note_on_c, 0, 36, 67
1, 615915, Note_off_c, 0, 66, 60
1, 615941, Note_off_c, 0, 36, 63
1, 616112, Control_c, 0, 64, 79
1, 616126, Control_c, 0, 64, 57
1, 616139, Note_on_c, 0, 56, 68
1, 616141, Control_c, 0, 64, 46
1, 616143, Note_on_c, 0, 70, 75
1, 616144, Note_on_c, 0, 58, 68
1, 616147, Note_on_c, 0, 44, 52
1, 616150, Note_on_c, 0, 50, 58
1, 616150, Note_on_c, 0, 53, 55
1, 616156, Note_on_c, 0, 62, 56
1, 616156, Note_on_c, 0, 65, 56
1, 616156, Control_c, 0, 64, 60
1, 616168, Note_off_c, 0, 56, 63
1, 616171, Control_c, 0, 64, 76
1, 616173, Note_off_c, 0, 58, 67
1, 616176, Note_off_c, 0, 53, 61
1, 616177, Note_off_c, 0, 44, 59
1, 616180, Note_off_c, 0, 50, 64
1, 616181, Note_off_c, 0, 65, 64
1, 616186, Control_c, 0, 64, 127
1, 616189, Note_off_c, 0, 62, 64
1, 616216, Note_off_c, 0, 70, 62
1, 616371, Control_c, 0, 64, 65
1, 616376, Note_on_c, 0, 52, 68
1, 616376, Note_on_c, 0, 64, 77
1, 616381, Note_on_c, 0, 55, 67
1, 616383, Note_on_c, 0, 60, 61
1, 616386, Control_c, 0, 64, 0
1, 616386, Note_on_c, 0, 43, 41
1, 616395, Note_off_c, 0, 64, 71
1, 616399, Note_on_c, 0, 48, 42
1, 616404, Note_off_c, 0, 60, 64
1, 616408, Note_off_c, 0, 52, 63
1, 616410, Note_off_c, 0, 55, 67
1, 616421, Note_off_c, 0, 43, 50
1, 616428, Note_off_c, 0, 48, 54
1, 616545, Note_on_c, 0, 65, 78
1, 616553, Note_on_c, 0, 62, 66
1, 616562, Note_on_c, 0, 48, 65
1, 616571, Note_on_c, 0, 52, 56
1, 616585, Note_off_c, 0, 62, 63
1, 616597, Note_on_c, 0, 64, 79
1, 616597, Note_on_c, 0, 67, 83
1, 616600, Note_on_c, 0, 55, 53
1, 616615, Note_off_c, 0, 65, 62
1, 616621, Note_on_c, 0, 60, 59
1, 616633, Note_on_c, 0, 43, 42
1, 616664, Note_off_c, 0, 55, 63
1, 616667, Control_c, 0, 64, 52
1, 616682, Control_c, 0, 64, 65
1, 616683, Note_off_c, 0, 48, 62
1, 616685, Note_off_c, 0, 52, 62
1, 616696, Control_c, 0, 64, 73
1, 616703, Note_off_c, 0, 43, 63
1, 616711, Control_c, 0, 64, 82
1, 616726, Control_c, 0, 64, 99
1, 616741, Control_c, 0, 64, 127
1, 616772, Note_off_c, 0, 64, 61
1, 616798, Note_off_c, 0, 67, 61
1, 616804, Note_off_c, 0, 60, 63
1, 616818, Note_on_c, 0, 38, 77
1, 616848, Note_off_c, 0, 38, 64
1, 617009, Control_c, 0, 64, 108
1, 617031, Control_c, 0, 64, 71
1, 617044, Note_on_c, 0, 69, 77
1, 617046, Control_c, 0, 64, 58
1, 617047, Note_on_c, 0, 57, 74
1, 617053, Note_on_c, 0, 54, 62
1, 617055, Note_on_c, 0, 48, 57
1, 617055, Note_on_c, 0, 60, 63
1, 617056, Note_on_c, 0, 51, 55
1, 617057, Note_on_c, 0, 42, 52
1, 617061, Control_c, 0, 64, 60
1, 617063, Note_on_c, 0, 63, 49
1, 617071, Note_off_c, 0, 57, 68
1, 617075, Control_c, 0, 64, 72
1, 617083, Note_off_c, 0, 60, 69
1, 617088, Note_off_c, 0, 63, 58
1, 617088, Note_off_c, 0, 69, 54
1, 617089, Note_off_c, 0, 54, 62
1, 617090, Control_c, 0, 64, 99
1, 617091, Note_off_c, 0, 48, 66
1, 617092, Note_off_c, 0, 51, 63
1, 617098, Note_off_c, 0, 42, 62
1, 617105, Control_c, 0, 64, 127
1, 617268, Control_c, 0, 64, 100
1, 617271, Note_on_c, 0, 53, 64
1, 617275, Note_on_c, 0, 62, 80
1, 617277, Note_on_c, 0, 58, 76
1, 617278, Note_on_c, 0, 41, 42
1, 617281, Note_on_c, 0, 50, 46
1, 617283, Control_c, 0, 64, 64
1, 617284, Note_on_c, 0, 46, 53
1, 617295, Note_off_c, 0, 53, 64
1, 617298, Control_c, 0, 64, 0
1, 617300, Note_off_c, 0, 58, 71
1, 617307, Note_off_c, 0, 62, 65
1, 617312, Note_off_c, 0, 41, 42
1, 617312, Note_off_c, 0, 46, 61
1, 617312, Note_off_c, 0, 50, 53
1, 617426, Note_on_c, 0, 63, 79
1, 617446, Note_on_c, 0, 46, 59
1, 617448, Note_on_c, 0, 60, 59
1, 617456, Note_on_c, 0, 54, 47
1, 617477, Note_on_c, 0, 51, 19
1, 617477, Note_off_c, 0, 51, 127
1, 617483, Note_off_c, 0, 54, 53
1, 617486, Note_on_c, 0, 50, 54
1, 617491, Note_on_c, 0, 65, 86
1, 617495, Note_on_c, 0, 62, 76
1, 617498, Note_off_c, 0, 63, 63
1, 617501, Note_off_c, 0, 60, 57
1, 617517, Note_off_c, 0, 50, 64
1, 617519, Control_c, 0, 64, 56
1, 617521, Note_on_c, 0, 58, 58
1, 617533, Note_off_c, 0, 62, 60
1, 617534, Control_c, 0, 64, 70
1, 617538, Note_off_c, 0, 65, 66
1, 617542, Note_off_c, 0, 58, 62
1, 617546, Note_off_c, 0, 46, 61
1, 617549, Control_c, 0, 64, 85
1, 617564, Control_c, 0, 64, 127
1, 617698, Control_c, 0, 64, 87
1, 617713, Control_c, 0, 64, 78
1, 617728, Control_c, 0, 64, 80
1, 617729, Note_on_c, 0, 49, 66
1, 617730, Note_on_c, 0, 67, 85
1, 617732, Note_on_c, 0, 46, 65
1, 617733, Note_on_c, 0, 52, 64
1, 617736, Note_on_c, 0, 40, 59
1, 617741, Note_on_c, 0, 55, 74
1, 617742, Control_c, 0, 64, 98
1, 617757, Note_on_c, 0, 62, 45
1, 617757, Control_c, 0, 64, 127
1, 617764, Note_off_c, 0, 52, 65
1, 617766, Note_off_c, 0, 55, 69
1, 617774, Note_off_c, 0, 46, 63
1, 617774, Note_off_c, 0, 49, 64
1, 617780, Note_off_c, 0, 40, 58
1, 617780, Note_off_c, 0, 67, 63
1, 617786, Note_off_c, 0, 62, 61
1, 617883, Control_c, 0, 67, 125
1, 617964, Note_on_c, 0, 40, 46
1, 617978, Note_on_c, 0, 45, 58
1, 617984, Note_on_c, 0, 49, 70
1, 617989, Note_on_c, 0, 52, 71
1, 618016, Note_on_c, 0, 67, 86
1, 618017, Control_c, 0, 64, 71
1, 618027, Note_on_c, 0, 61, 62
1, 618031, Control_c, 0, 64, 0
1, 618041, Note_on_c, 0, 57, 61
1, 618043, Note_on_c, 0, 55, 59
1, 618121, Control_c, 0, 64, 46
1, 618136, Control_c, 0, 64, 62
1, 618150, Control_c, 0, 64, 67
1, 618162, Note_off_c, 0, 49, 64
1, 618165, Control_c, 0, 64, 74
1, 618165, Control_c, 0, 67, 123
1, 618177, Note_off_c, 0, 40, 61
1, 618179, Note_off_c, 0, 52, 60
1, 618180, Note_off_c, 0, 45, 63
1, 618180, Control_c, 0, 64, 83
1, 618195, Control_c, 0, 64, 99
1, 618195, Control_c, 0, 67, 118
1, 618204, Note_off_c, 0, 57, 38
1, 618210, Control_c, 0, 64, 127
1, 618224, Control_c, 0, 67, 116
1, 618225, Note_off_c, 0, 55, 51
1, 618225, Note_off_c, 0, 61, 61
1, 618239, Control_c, 0, 67, 114
1, 618254, Control_c, 0, 67, 110
1, 618268, Control_c, 0, 67, 104
1, 618275, Note_off_c, 0, 67, 60
1, 618283, Control_c, 0, 67, 98
1, 618298, Control_c, 0, 67, 92
1, 618313, Control_c, 0, 67, 86
1, 618328, Control_c, 0, 67, 81
1, 618342, Control_c, 0, 67, 79
1, 618387, Control_c, 0, 67, 78
1, 618407, Note_on_c, 0, 38, 55
1, 618481, Note_on_c, 0, 45, 47
1, 618491, Control_c, 0, 67, 79
1, 618506, Control_c, 0, 67, 79
1, 618529, Control_c, 0, 67, 80
1, 618544, Control_c, 0, 64, 84
1, 618559, Control_c, 0, 64, 48
1, 618573, Control_c, 0, 64, 0
1, 618586, Note_on_c, 0, 69, 64
1, 618595, Note_on_c, 0, 54, 55
1, 618597, Note_on_c, 0, 57, 47
1, 618598, Note_on_c, 0, 62, 54
1, 618600, Note_on_c, 0, 66, 53
1, 618633, Control_c, 0, 64, 45
1, 618633, Control_c, 0, 67, 80
1, 618633, Note_off_c, 0, 57, 65
1, 618636, Note_off_c, 0, 38, 60
1, 618647, Control_c, 0, 64, 68
1, 618662, Control_c, 0, 64, 111
1, 618662, Control_c, 0, 67, 80
1, 618663, Note_off_c, 0, 62, 62
1, 618667, Note_off_c, 0, 45, 63
1, 618668, Note_off_c, 0, 69, 62
1, 618674, Note_off_c, 0, 66, 62
1, 618677, Control_c, 0, 64, 127
1, 618690, Note_off_c, 0, 54, 59
1, 618721, Control_c, 0, 67, 78
1, 618736, Control_c, 0, 67, 75
1, 618751, Control_c, 0, 67, 67
1, 618766, Control_c, 0, 67, 53
1, 618780, Control_c, 0, 67, 31
1, 618795, Control_c, 0, 67, 0
1, 618832, Note_on_c, 0, 63, 79
1, 618857, Note_on_c, 0, 78, 98
1, 618864, Note_on_c, 0, 66, 87
1, 618866, Note_on_c, 0, 75, 75
1, 618869, Control_c, 0, 64, 69
1, 618884, Control_c, 0, 64, 47
1, 618899, Control_c, 0, 64, 55
1, 618908, Note_off_c, 0, 63, 60
1, 618914, Control_c, 0, 64, 69
1, 618914, Note_on_c, 0, 62, 79
1, 618928, Control_c, 0, 64, 110
1, 618943, Control_c, 0, 64, 127
1, 618980, Note_off_c, 0, 62, 57
1, 618985, Note_on_c, 0, 61, 84
1, 619044, Note_off_c, 0, 61, 56
1, 619066, Note_on_c, 0, 60, 80
1, 619067, Note_off_c, 0, 75, 63
1, 619070, Note_off_c, 0, 78, 64
1, 619095, Note_off_c, 0, 66, 62
1, 619129, Note_off_c, 0, 60, 59
1, 619140, Note_on_c, 0, 59, 68
1, 619194, Note_off_c, 0, 59, 63
1, 619209, Note_on_c, 0, 58, 74
1, 619227, Note_off_c, 0, 58, 67
1, 619277, Control_c, 0, 64, 97
1, 619292, Control_c, 0, 64, 59
1, 619307, Control_c, 0, 64, 0
1, 619317, Note_on_c, 0, 62, 76
1, 619317, Note_on_c, 0, 66, 70
1, 619319, Note_on_c, 0, 57, 83
1, 619325, Note_on_c, 0, 45, 75
1, 619337, Note_off_c, 0, 66, 70
1, 619338, Note_off_c, 0, 62, 70
1, 619345, Note_off_c, 0, 57, 66
1, 619355, Note_off_c, 0, 45, 65
1, 619371, Note_on_c, 0, 54, 2
1, 619371, Note_off_c, 0, 54, 127
1, 619470, Control_c, 0, 67, 19
1, 619493, Note_on_c, 0, 67, 76
1, 619507, Note_on_c, 0, 64, 58
1, 619514, Note_on_c, 0, 58, 70
1, 619528, Note_off_c, 0, 64, 64
1, 619529, Control_c, 0, 67, 0
1, 619534, Note_on_c, 0, 50, 38
1, 619537, Note_on_c, 0, 54, 70
1, 619541, Note_off_c, 0, 58, 68
1, 619548, Note_on_c, 0, 66, 75
1, 619550, Note_on_c, 0, 69, 81
1, 619559, Note_on_c, 0, 57, 50
1, 619560, Note_off_c, 0, 67, 61
1, 619566, Note_on_c, 0, 62, 63
1, 619579, Note_on_c, 0, 45, 34
1, 619603, Control_c, 0, 64, 34
1, 619618, Control_c, 0, 64, 55
1, 619633, Control_c, 0, 64, 65
1, 619647, Control_c, 0, 64, 73
1, 619652, Note_off_c, 0, 57, 63
1, 619662, Control_c, 0, 64, 87
1, 619675, Note_off_c, 0, 50, 53
1, 619676, Note_off_c, 0, 54, 63
1, 619677, Control_c, 0, 64, 109
1, 619689, Note_off_c, 0, 45, 56
1, 619692, Control_c, 0, 64, 127
1, 619786, Note_off_c, 0, 62, 59
1, 619791, Note_on_c, 0, 38, 66
1, 619796, Note_off_c, 0, 69, 57
1, 619822, Note_off_c, 0, 38, 64
1, 619929, Control_c, 0, 67, 19
1, 619959, Control_c, 0, 67, 21
1, 620025, Control_c, 0, 64, 98
1, 620040, Note_on_c, 0, 71, 73
1, 620040, Control_c, 0, 64, 63
1, 620043, Note_on_c, 0, 56, 58
1, 620043, Note_on_c, 0, 44, 57
1, 620043, Note_on_c, 0, 49, 58
1, 620047, Note_on_c, 0, 53, 52
1, 620049, Note_on_c, 0, 59, 56
1, 620054, Note_on_c, 0, 61, 60
1, 620054, Note_on_c, 0, 65, 55
1, 620055, Control_c, 0, 64, 0
1, 620085, Control_c, 0, 64, 39
1, 620091, Note_off_c, 0, 66, 13
1, 620093, Note_off_c, 0, 59, 58
1, 620096, Note_off_c, 0, 53, 56
1, 620098, Note_off_c, 0, 56, 56
1, 620100, Control_c, 0, 64, 64
1, 620100, Control_c, 0, 67, 19
1, 620106, Note_off_c, 0, 65, 57
1, 620112, Note_off_c, 0, 49, 58
1, 620115, Control_c, 0, 64, 80
1, 620115, Control_c, 0, 67, 0
1, 620126, Note_off_c, 0, 44, 63
1, 620127, Note_off_c, 0, 61, 48
1, 620130, Control_c, 0, 64, 116
1, 620145, Control_c, 0, 64, 127
1, 620267, Note_off_c, 0, 71, 59
1, 620278, Note_on_c, 0, 52, 67
1, 620279, Note_on_c, 0, 55, 69
1, 620280, Note_on_c, 0, 43, 59
1, 620286, Note_on_c, 0, 64, 76
1, 620287, Note_on_c, 0, 60, 75
1, 620293, Control_c, 0, 64, 72
1, 620294, Note_on_c, 0, 48, 58
1, 620307, Note_off_c, 0, 55, 67
1, 620308, Control_c, 0, 64, 35
1, 620310, Note_off_c, 0, 64, 68
1, 620311, Note_off_c, 0, 60, 71
1, 620312, Note_off_c, 0, 43, 63
1, 620320, Note_off_c, 0, 52, 61
1, 620323, Control_c, 0, 64, 0
1, 620330, Note_off_c, 0, 48, 65
1, 620426, Control_c, 0, 67, 20
1, 620450, Note_on_c, 0, 65, 82
1, 620458, Note_on_c, 0, 62, 66
1, 620465, Note_on_c, 0, 48, 64
1, 620478, Note_on_c, 0, 56, 49
1, 620485, Note_off_c, 0, 62, 67
1, 620485, Control_c, 0, 67, 0
1, 620490, Note_on_c, 0, 52, 54
1, 620496, Note_on_c, 0, 55, 62
1, 620507, Note_off_c, 0, 56, 36
1, 620517, Note_on_c, 0, 67, 81
1, 620519, Note_on_c, 0, 64, 75
1, 620527, Note_on_c, 0, 60, 65
1, 620541, Note_off_c, 0, 65, 62
1, 620544, Control_c, 0, 64, 43
1, 620554, Note_on_c, 0, 43, 34
1, 620559, Control_c, 0, 64, 66
1, 620565, Note_off_c, 0, 55, 62
1, 620573, Control_c, 0, 64, 75
1, 620588, Control_c, 0, 64, 85
1, 620589, Note_off_c, 0, 52, 62
1, 620593, Note_off_c, 0, 48, 62
1, 620603, Control_c, 0, 64, 96
1, 620617, Control_c, 0, 64, 120
1, 620618, Note_off_c, 0, 43, 62
1, 620632, Control_c, 0, 64, 127
1, 620675, Note_off_c, 0, 64, 61
1, 620708, Note_off_c, 0, 67, 61
1, 620711, Note_off_c, 0, 60, 62
1, 620760, Note_on_c, 0, 38, 46
1, 620774, Note_on_c, 0, 36, 29
1, 620803, Note_off_c, 0, 38, 52
1, 620817, Note_off_c, 0, 36, 44
1, 620894, Note_on_c, 0, 46, 13
1, 620966, Control_c, 0, 64, 88
1, 620981, Control_c, 0, 64, 61
1, 620985, Note_on_c, 0, 42, 69
1, 620989, Note_on_c, 0, 69, 77
1, 620990, Note_on_c, 0, 54, 64
1, 620996, Control_c, 0, 64, 0
1, 620999, Note_on_c, 0, 57, 66
1, 621000, Note_on_c, 0, 59, 61
1, 621002, Note_on_c, 0, 51, 61
1, 621003, Note_off_c, 0, 46, 47
1, 621007, Note_on_c, 0, 63, 52
1, 621009, Note_on_c, 0, 47, 43
1, 621011, Control_c, 0, 64, 39
1, 621026, Control_c, 0, 64, 61
1, 621031, Note_off_c, 0, 57, 65
1, 621038, Note_off_c, 0, 59, 60
1, 621039, Note_off_c, 0, 51, 64
1, 621040, Control_c, 0, 64, 78
1, 621044, Note_off_c, 0, 47, 65
1, 621044, Note_off_c, 0, 54, 58
1, 621051, Note_off_c, 0, 63, 62
1, 621055, Control_c, 0, 64, 102
1, 621056, Note_off_c, 0, 42, 61
1, 621061, Note_off_c, 0, 69, 60
1, 621070, Control_c, 0, 64, 127
1, 621220, Note_on_c, 0, 50, 64
1, 621221, Note_on_c, 0, 41, 55
1, 621223, Note_on_c, 0, 53, 65
1, 621229, Note_on_c, 0, 46, 61
1, 621230, Note_on_c, 0, 62, 78
1, 621232, Note_on_c, 0, 58, 80
1, 621233, Control_c, 0, 64, 100
1, 621245, Note_off_c, 0, 41, 59
1, 621248, Control_c, 0, 64, 60
1, 621249, Note_off_c, 0, 50, 64
1, 621252, Note_off_c, 0, 53, 64
1, 621255, Note_off_c, 0, 58, 70
1, 621257, Note_off_c, 0, 46, 65
1, 621262, Control_c, 0, 64, 0
1, 621269, Note_off_c, 0, 62, 61
1, 621352, Control_c, 0, 67, 20
1, 621377, Note_on_c, 0, 63, 85
1, 621382, Control_c, 0, 67, 23
1, 621406, Note_on_c, 0, 46, 67
1, 621406, Note_on_c, 0, 54, 59
1, 621411, Control_c, 0, 67, 21
1, 621421, Note_on_c, 0, 60, 45
1, 621426, Note_off_c, 0, 54, 61
1, 621441, Control_c, 0, 67, 0
1, 621447, Note_on_c, 0, 65, 82
1, 621453, Note_off_c, 0, 60, 59
1, 621456, Note_on_c, 0, 62, 77
1, 621456, Note_off_c, 0, 63, 64
1, 621466, Note_on_c, 0, 50, 27
1, 621471, Control_c, 0, 64, 54
1, 621482, Note_on_c, 0, 53, 63
1, 621485, Control_c, 0, 64, 68
1, 621486, Note_on_c, 0, 41, 54
1, 621490, Note_on_c, 0, 58, 47
1, 621492, Note_off_c, 0, 62, 62
1, 621500, Control_c, 0, 64, 81
1, 621502, Note_off_c, 0, 65, 65
1, 621505, Note_off_c, 0, 50, 61
1, 621519, Note_off_c, 0, 53, 64
1, 621522, Control_c, 0, 64, 111
1, 621523, Note_off_c, 0, 41, 60
1, 621525, Note_off_c, 0, 58, 56
1, 621530, Note_off_c, 0, 46, 64
1, 621537, Control_c, 0, 64, 127
1, 621686, Control_c, 0, 64, 98
1, 621701, Control_c, 0, 64, 70
1, 621716, Control_c, 0, 64, 65
1, 621719, Note_on_c, 0, 46, 65
1, 621720, Note_on_c, 0, 40, 61
1, 621720, Note_on_c, 0, 49, 67
1, 621721, Note_on_c, 0, 52, 65
1, 621721, Note_on_c, 0, 67, 88
1, 621727, Note_on_c, 0, 55, 75
1, 621727, Note_on_c, 0, 61, 70
1, 621730, Control_c, 0, 64, 68
1, 621734, Note_on_c, 0, 58, 66
1, 621745, Control_c, 0, 64, 78
1, 621751, Note_off_c, 0, 52, 65
1, 621751, Note_off_c, 0, 55, 69
1, 621754, Note_off_c, 0, 40, 64
1, 621754, Note_off_c, 0, 46, 66
1, 621757, Note_off_c, 0, 61, 64
1, 621760, Control_c, 0, 64, 104
1, 621762, Note_off_c, 0, 58, 66
1, 621766, Note_off_c, 0, 67, 63
1, 621775, Control_c, 0, 64, 127
1, 621874, Note_off_c, 0, 49, 34
1, 621891, Note_on_c, 0, 39, 73
1, 621964, Note_on_c, 0, 45, 67
1, 622056, Control_c, 0, 64, 92
1, 622071, Control_c, 0, 64, 60
1, 622080, Note_on_c, 0, 67, 74
1, 622086, Control_c, 0, 64, 0
1, 622088, Note_on_c, 0, 51, 76
1, 622089, Note_on_c, 0, 61, 64
1, 622094, Note_on_c, 0, 57, 59
1, 622095, Note_on_c, 0, 55, 55
1, 622204, Control_c, 0, 64, 40
1, 622219, Control_c, 0, 64, 58
1, 622225, Note_off_c, 0, 55, 62
1, 622234, Control_c, 0, 64, 65
1, 622249, Control_c, 0, 64, 68
1, 622271, Control_c, 0, 64, 72
1, 622282, Note_off_c, 0, 57, 56
1, 622283, Note_off_c, 0, 39, 38
1, 622286, Control_c, 0, 64, 78
1, 622294, Note_off_c, 0, 45, 60
1, 622301, Control_c, 0, 64, 91
1, 622315, Control_c, 0, 64, 127
1, 622342, Note_off_c, 0, 51, 36
1, 622380, Note_off_c, 0, 61, 59
1, 622442, Note_off_c, 0, 67, 58
1, 622689, Note_on_c, 0, 38, 51
1, 622751, Note_on_c, 0, 45, 44
1, 622791, Control_c, 0, 64, 96
1, 622806, Control_c, 0, 64, 65
1, 622820, Control_c, 0, 64, 0
1, 622855, Note_on_c, 0, 66, 47
1, 622860, Note_on_c, 0, 62, 42
1, 622860, Note_on_c, 0, 69, 58
1, 622864, Note_on_c, 0, 57, 51
1, 622869, Note_on_c, 0, 54, 62
1, 622909, Control_c, 0, 64, 42
1, 622911, Note_off_c, 0, 57, 64
1, 622924, Control_c, 0, 64, 63
1, 622933, Note_off_c, 0, 38, 62
1, 622938, Control_c, 0, 64, 83
1, 622942, Note_off_c, 0, 62, 63
1, 622951, Note_off_c, 0, 69, 62
1, 622953, Control_c, 0, 64, 127
1, 622959, Note_off_c, 0, 66, 63
1, 622968, Note_off_c, 0, 45, 62
1, 622988, Note_off_c, 0, 54, 61
1, 623197, Control_c, 0, 64, 107
1, 623198, Note_on_c, 0, 66, 85
1, 623212, Control_c, 0, 64, 77
1, 623227, Control_c, 0, 64, 72
1, 623242, Control_c, 0, 64, 77
1, 623251, Note_on_c, 0, 82, 101
1, 623253, Note_on_c, 0, 70, 92
1, 623257, Control_c, 0, 64, 101
1, 623258, Note_on_c, 0, 78, 93
1, 623272, Control_c, 0, 64, 127
1, 623356, Note_off_c, 0, 66, 59
1, 623371, Note_on_c, 0, 65, 69
1, 623403, Note_on_c, 0, 80, 47
1, 623427, Note_off_c, 0, 80, 59
1, 623428, Note_off_c, 0, 82, 60
1, 623450, Note_off_c, 0, 65, 59
1, 623452, Note_off_c, 0, 78, 66
1, 623464, Note_on_c, 0, 64, 65
1, 623512, Note_off_c, 0, 70, 57
1, 623534, Note_off_c, 0, 64, 62
1, 623536, Note_on_c, 0, 63, 76
1, 623594, Note_off_c, 0, 63, 62
1, 623610, Note_on_c, 0, 62, 81
1, 623684, Note_on_c, 0, 61, 86
1, 623692, Note_off_c, 0, 62, 61
1, 623704, Poly_aftertouch_c, 0, 70, 0
1, 623748, Control_c, 0, 64, 68
1, 623750, Note_on_c, 0, 70, 87
1, 623769, Control_c, 0, 64, 47
1, 623770, Note_on_c, 0, 66, 83
1, 623784, Control_c, 0, 64, 46
1, 623799, Control_c, 0, 64, 60
1, 623814, Control_c, 0, 64, 73
1, 623829, Control_c, 0, 64, 94
1, 623844, Control_c, 0, 64, 127
1, 623865, Note_on_c, 0, 60, 65
1, 623872, Note_off_c, 0, 61, 58
1, 623976, Note_on_c, 0, 59, 61
1, 623989, Note_off_c, 0, 60, 51
1, 624051, Control_c, 0, 64, 79
1, 624062, Note_on_c, 0, 69, 77
1, 624066, Control_c, 0, 64, 52
1, 624073, Note_on_c, 0, 65, 69
1, 624082, Control_c, 0, 64, 0
1, 624084, Note_on_c, 0, 58, 61
1, 624091, Note_off_c, 0, 59, 63
1, 624141, Control_c, 0, 64, 56
1, 624156, Control_c, 0, 64, 64
1, 624168, Note_off_c, 0, 66, 29
1, 624171, Control_c, 0, 64, 67
1, 624171, Control_c, 0, 67, 19
1, 624185, Control_c, 0, 64, 68
1, 624200, Control_c, 0, 64, 69
1, 624200, Control_c, 0, 67, 21
1, 624201, Note_off_c, 0, 58, 63
1, 624211, Note_on_c, 0, 57, 54
1, 624229, Control_c, 0, 64, 69
1, 624274, Control_c, 0, 64, 70
1, 624289, Control_c, 0, 67, 24
1, 624304, Control_c, 0, 64, 70
1, 624306, Note_off_c, 0, 57, 64
1, 624314, Note_on_c, 0, 58, 65
1, 624319, Control_c, 0, 67, 27
1, 624334, Control_c, 0, 64, 70
1, 624334, Control_c, 0, 67, 30
1, 624349, Control_c, 0, 64, 65
1, 624349, Control_c, 0, 67, 33
1, 624364, Control_c, 0, 64, 48
1, 624364, Control_c, 0, 67, 35
1, 624379, Control_c, 0, 64, 0
1, 624379, Control_c, 0, 67, 36
1, 624390, Note_off_c, 0, 65, 61
1, 624393, Note_on_c, 0, 68, 74
1, 624397, Note_on_c, 0, 64, 57
1, 624407, Note_on_c, 0, 59, 63
1, 624407, Note_off_c, 0, 69, 60
1, 624408, Note_off_c, 0, 58, 58
1, 624408, Control_c, 0, 67, 37
1, 624423, Control_c, 0, 67, 37
1, 624437, Control_c, 0, 64, 45
1, 624437, Control_c, 0, 67, 39
1, 624452, Control_c, 0, 64, 60
1, 624452, Control_c, 0, 67, 43
1, 624467, Control_c, 0, 64, 66
1, 624467, Control_c, 0, 67, 48
1, 624482, Control_c, 0, 64, 69
1, 624482, Control_c, 0, 67, 52
1, 624497, Control_c, 0, 64, 71
1, 624497, Control_c, 0, 67, 55
1, 624519, Note_off_c, 0, 59, 60
1, 624519, Control_c, 0, 64, 73
1, 624519, Control_c, 0, 67, 57
1, 624521, Note_on_c, 0, 58, 60
1, 624534, Control_c, 0, 64, 74
1, 624534, Control_c, 0, 67, 59
1, 624549, Control_c, 0, 64, 75
1, 624549, Control_c, 0, 67, 60
1, 624563, Control_c, 0, 67, 61
1, 624578, Control_c, 0, 67, 62
1, 624593, Control_c, 0, 67, 65
1, 624608, Control_c, 0, 64, 70
1, 624608, Control_c, 0, 67, 68
1, 624623, Control_c, 0, 64, 62
1, 624623, Control_c, 0, 67, 70
1, 624628, Note_on_c, 0, 59, 50
1, 624628, Note_off_c, 0, 58, 60
1, 624637, Control_c, 0, 64, 47
1, 624637, Control_c, 0, 67, 72
1, 624652, Control_c, 0, 64, 42
1, 624652, Control_c, 0, 67, 74
1, 624667, Control_c, 0, 64, 55
1, 624667, Control_c, 0, 67, 76
1, 624682, Control_c, 0, 64, 65
1, 624682, Control_c, 0, 67, 78
1, 624697, Control_c, 0, 64, 73
1, 624697, Control_c, 0, 67, 80
1, 624711, Control_c, 0, 64, 79
1, 624711, Control_c, 0, 67, 83
1, 624716, Note_off_c, 0, 59, 61
1, 624726, Control_c, 0, 64, 80
1, 624726, Control_c, 0, 67, 84
1, 624741, Control_c, 0, 67, 86
1, 624751, Note_on_c, 0, 60, 53
1, 624756, Control_c, 0, 64, 81
1, 624756, Control_c, 0, 67, 87
1, 624771, Control_c, 0, 64, 81
1, 624771, Control_c, 0, 67, 89
1, 624786, Control_c, 0, 64, 82
1, 624786, Control_c, 0, 67, 91
1, 624801, Control_c, 0, 67, 93
1, 624816, Control_c, 0, 67, 95
1, 624831, Control_c, 0, 67, 96
1, 624845, Control_c, 0, 64, 82
1, 624845, Control_c, 0, 67, 98
1, 624860, Control_c, 0, 64, 83
1, 624860, Control_c, 0, 67, 100
1, 624865, Note_on_c, 0, 59, 45
1, 624872, Note_off_c, 0, 60, 57
1, 624875, Control_c, 0, 64, 84
1, 624875, Control_c, 0, 67, 104
1, 624890, Control_c, 0, 64, 85
1, 624890, Control_c, 0, 67, 108
1, 624905, Control_c, 0, 64, 85
1, 624905, Control_c, 0, 67, 112
1, 624911, Note_off_c, 0, 64, 39
1, 624920, Control_c, 0, 67, 116
1, 624935, Control_c, 0, 64, 86
1, 624935, Control_c, 0, 67, 119
1, 624950, Control_c, 0, 64, 88
1, 624950, Control_c, 0, 67, 123
1, 624965, Control_c, 0, 64, 90
1, 624965, Control_c, 0, 67, 126
1, 624980, Control_c, 0, 64, 91
1, 624995, Control_c, 0, 64, 91
1, 625004, Note_off_c, 0, 59, 59
1, 625006, Note_on_c, 0, 60, 57
1, 625009, Control_c, 0, 64, 92
1, 625024, Control_c, 0, 64, 93
1, 625039, Control_c, 0, 64, 95
1, 625053, Control_c, 0, 64, 97
1, 625082, Control_c, 0, 64, 99
1, 625177, Note_off_c, 0, 60, 50
1, 625185, Note_on_c, 0, 61, 52
1, 625192, Note_off_c, 0, 68, 28
1, 625230, Control_c, 0, 64, 92
1, 625245, Control_c, 0, 64, 79
1, 625267, Control_c, 0, 64, 64
1, 625269, Note_on_c, 0, 67, 57
1, 625269, Note_on_c, 0, 63, 46
1, 625282, Control_c, 0, 64, 37
1, 625297, Control_c, 0, 64, 0
1, 625306, Note_off_c, 0, 70, 59
1, 625341, Control_c, 0, 64, 53
1, 625356, Control_c, 0, 64, 68
1, 625371, Control_c, 0, 64, 80
1, 625385, Control_c, 0, 64, 90
1, 625400, Control_c, 0, 64, 93
1, 625411, Note_off_c, 0, 63, 55
1, 625415, Control_c, 0, 64, 94
1, 625430, Control_c, 0, 64, 97
1, 625445, Control_c, 0, 64, 100
1, 625455, Note_off_c, 0, 61, 50
1, 625460, Control_c, 0, 64, 103
1, 625471, Note_off_c, 0, 67, 35
1, 625474, Control_c, 0, 64, 106
1, 625480, Note_on_c, 0, 60, 43
1, 625504, Control_c, 0, 64, 109
1, 625519, Control_c, 0, 64, 115
1, 625534, Control_c, 0, 64, 127
1, 625698, Note_on_c, 0, 61, 46
1, 625698, Note_off_c, 0, 60, 38
1, 625779, Note_off_c, 0, 61, 53
1, 626100, Note_on_c, 0, 39, 35
1, 626164, Control_c, 0, 64, 113
1, 626169, Note_on_c, 0, 67, 41
1, 626179, Control_c, 0, 64, 94
1, 626190, Note_on_c, 0, 62, 37
1, 626194, Control_c, 0, 64, 79
1, 626196, Note_on_c, 0, 56, 27
1, 626208, Control_c, 0, 64, 67
1, 626223, Control_c, 0, 64, 55
1, 626238, Control_c, 0, 64, 0
1, 626282, Control_c, 0, 64, 33
1, 626297, Control_c, 0, 64, 61
1, 626312, Control_c, 0, 64, 77
1, 626327, Control_c, 0, 64, 101
1, 626330, Note_off_c, 0, 56, 51
1, 626342, Control_c, 0, 64, 127
1, 626413, Note_off_c, 0, 62, 56
1, 626422, Note_off_c, 0, 67, 43
1, 626685, Note_on_c, 0, 46, 37
1, 626766, Note_off_c, 0, 39, 38
1, 626780, Note_off_c, 0, 46, 56
1, 626784, Note_on_c, 0, 67, 49
1, 626983, Note_off_c, 0, 67, 18
1, 627031, Note_on_c, 0, 63, 39
1, 627052, Note_on_c, 0, 56, 39
1, 627162, Note_on_c, 0, 79, 85
1, 627189, Note_on_c, 0, 72, 45
1, 627200, Note_off_c, 0, 63, 41
1, 627215, Note_off_c, 0, 72, 54
1, 627257, Note_off_c, 0, 79, 63
1, 627400, Note_on_c, 0, 46, 43
1, 627432, Note_off_c, 0, 56, 34
1, 627512, Note_on_c, 0, 62, 39
1, 627530, Note_off_c, 0, 46, 44
1, 627552, Note_off_c, 0, 62, 51
1, 627639, Note_on_c, 0, 56, 24
1, 627683, Note_on_c, 0, 62, 43
1, 627709, Note_on_c, 0, 71, 63
1, 627725, Note_on_c, 0, 67, 24
1, 627751, Note_off_c, 0, 62, 36
1, 627797, Note_off_c, 0, 67, 47
1, 627841, Note_off_c, 0, 71, 61
1, 627861, Note_on_c, 0, 46, 61
1, 627865, Note_off_c, 0, 56, 40
1, 627866, Note_on_c, 0, 70, 80
1, 627881, Note_on_c, 0, 58, 77
1, 627893, Note_off_c, 0, 46, 65
1, 627909, Note_off_c, 0, 70, 62
1, 628006, Note_off_c, 0, 58, 30
1, 628047, Note_on_c, 0, 39, 65
1, 628093, Control_c, 0, 64, 105
1, 628097, Note_on_c, 0, 70, 78
1, 628103, Note_on_c, 0, 67, 70
1, 628108, Control_c, 0, 64, 68
1, 628111, Note_on_c, 0, 62, 61
1, 628123, Control_c, 0, 64, 0
1, 628167, Control_c, 0, 64, 48
1, 628182, Control_c, 0, 64, 64
1, 628197, Control_c, 0, 64, 74
1, 628211, Control_c, 0, 64, 81
1, 628226, Control_c, 0, 64, 84
1, 628241, Control_c, 0, 64, 85
1, 628264, Control_c, 0, 64, 85
1, 628276, Note_off_c, 0, 67, 58
1, 628277, Note_off_c, 0, 39, 60
1, 628279, Control_c, 0, 64, 87
1, 628281, Note_off_c, 0, 62, 60
1, 628283, Note_on_c, 0, 46, 50
1, 628293, Control_c, 0, 64, 88
1, 628298, Note_off_c, 0, 70, 60
1, 628308, Control_c, 0, 64, 90
1, 628313, Note_on_c, 0, 60, 41
1, 628314, Note_off_c, 0, 46, 57
1, 628323, Control_c, 0, 64, 93
1, 628337, Control_c, 0, 64, 99
1, 628342, Note_off_c, 0, 60, 56
1, 628352, Control_c, 0, 64, 106
1, 628367, Control_c, 0, 64, 127
1, 628474, Note_on_c, 0, 54, 53
1, 628487, Note_on_c, 0, 60, 34
1, 628530, Control_c, 0, 64, 113
1, 628545, Note_on_c, 0, 75, 69
1, 628545, Control_c, 0, 64, 75
1, 628553, Note_on_c, 0, 69, 46
1, 628560, Control_c, 0, 64, 61
1, 628564, Note_on_c, 0, 63, 55
1, 628575, Control_c, 0, 64, 58
1, 628590, Control_c, 0, 64, 63
1, 628604, Control_c, 0, 64, 70
1, 628609, Note_off_c, 0, 63, 59
1, 628619, Control_c, 0, 64, 82
1, 628621, Note_off_c, 0, 75, 64
1, 628634, Control_c, 0, 64, 101
1, 628646, Note_off_c, 0, 69, 61
1, 628649, Control_c, 0, 64, 106
1, 628687, Note_off_c, 0, 60, 33
1, 628746, Note_on_c, 0, 46, 52
1, 628762, Note_on_c, 0, 59, 52
1, 628780, Note_off_c, 0, 54, 27
1, 628782, Control_c, 0, 64, 108
1, 628789, Note_off_c, 0, 59, 60
1, 628796, Control_c, 0, 64, 112
1, 628811, Control_c, 0, 64, 127
1, 628892, Note_on_c, 0, 68, 74
1, 628900, Note_on_c, 0, 59, 46
1, 628910, Note_on_c, 0, 55, 48
1, 628911, Note_on_c, 0, 63, 58
1, 628943, Note_off_c, 0, 46, 36
1, 628997, Note_off_c, 0, 59, 54
1, 629019, Note_off_c, 0, 55, 58
1, 629046, Note_off_c, 0, 63, 58
1, 629052, Note_on_c, 0, 67, 70
1, 629060, Note_on_c, 0, 46, 56
1, 629067, Note_on_c, 0, 58, 56
1, 629078, Note_off_c, 0, 68, 39
1, 629097, Note_off_c, 0, 46, 52
1, 629097, Note_off_c, 0, 58, 65
1, 629105, Note_off_c, 0, 67, 62
1, 629205, Note_on_c, 0, 39, 76
1, 629264, Control_c, 0, 64, 80
1, 629279, Control_c, 0, 64, 53
1, 629294, Control_c, 0, 64, 0
1, 629299, Note_on_c, 0, 74, 89
1, 629338, Control_c, 0, 64, 57
1, 629353, Control_c, 0, 64, 69
1, 629368, Control_c, 0, 64, 81
1, 629382, Control_c, 0, 64, 91
1, 629397, Control_c, 0, 64, 95
1, 629399, Note_off_c, 0, 74, 59
1, 629412, Control_c, 0, 64, 101
1, 629427, Control_c, 0, 64, 116
1, 629442, Control_c, 0, 64, 127
1, 629502, Note_on_c, 0, 59, 56
1, 629502, Note_off_c, 0, 39, 57
1, 629509, Note_on_c, 0, 47, 46
1, 629542, Note_off_c, 0, 59, 59
1, 629543, Note_off_c, 0, 47, 60
1, 629659, Note_on_c, 0, 59, 54
1, 629659, Note_on_c, 0, 67, 67
1, 629713, Note_on_c, 0, 62, 21
1, 629762, Note_off_c, 0, 59, 47
1, 629771, Note_off_c, 0, 62, 47
1, 629772, Note_off_c, 0, 67, 64
1, 629803, Note_on_c, 0, 47, 54
1, 629818, Note_on_c, 0, 58, 61
1, 629855, Note_off_c, 0, 58, 61
1, 629917, Note_off_c, 0, 47, 61
1, 629960, Note_on_c, 0, 71, 85
1, 629963, Note_on_c, 0, 58, 69
1, 629973, Note_on_c, 0, 66, 64
1, 629980, Note_on_c, 0, 62, 59
1, 630072, Note_off_c, 0, 58, 60
1, 630076, Note_on_c, 0, 47, 56
1, 630106, Note_off_c, 0, 62, 60
1, 630113, Note_on_c, 0, 57, 64
1, 630128, Note_off_c, 0, 47, 62
1, 630146, Note_off_c, 0, 66, 37
1, 630178, Note_off_c, 0, 71, 35
1, 630199, Note_off_c, 0, 57, 39
1, 630280, Note_on_c, 0, 39, 57
1, 630280, Control_c, 0, 64, 71
1, 630283, Note_on_c, 0, 71, 79
1, 630295, Control_c, 0, 64, 38
1, 630309, Control_c, 0, 64, 0
1, 630339, Control_c, 0, 64, 39
1, 630354, Control_c, 0, 64, 61
1, 630369, Control_c, 0, 64, 71
1, 630383, Control_c, 0, 64, 79
1, 630398, Control_c, 0, 64, 82
1, 630429, Note_off_c, 0, 39, 60
1, 630443, Control_c, 0, 64, 82
1, 630451, Note_on_c, 0, 46, 47
1, 630453, Note_on_c, 0, 57, 56
1, 630457, Control_c, 0, 64, 83
1, 630473, Control_c, 0, 64, 84
1, 630488, Control_c, 0, 64, 85
1, 630490, Note_off_c, 0, 71, 37
1, 630491, Note_off_c, 0, 57, 63
1, 630510, Control_c, 0, 64, 87
1, 630520, Note_off_c, 0, 46, 51
1, 630524, Control_c, 0, 64, 90
1, 630539, Control_c, 0, 64, 92
1, 630554, Control_c, 0, 64, 94
1, 630569, Control_c, 0, 64, 95
1, 630599, Control_c, 0, 64, 98
1, 630621, Note_on_c, 0, 57, 46
1, 630628, Control_c, 0, 64, 100
1, 630637, Note_on_c, 0, 65, 57
1, 630654, Note_on_c, 0, 61, 47
1, 630673, Control_c, 0, 64, 103
1, 630688, Control_c, 0, 64, 105
1, 630703, Control_c, 0, 64, 107
1, 630718, Control_c, 0, 64, 109
1, 630723, Note_off_c, 0, 57, 48
1, 630747, Control_c, 0, 64, 112
1, 630777, Control_c, 0, 64, 115
1, 630778, Note_off_c, 0, 65, 63
1, 630808, Note_on_c, 0, 46, 43
1, 630814, Note_on_c, 0, 56, 58
1, 630814, Note_off_c, 0, 61, 33
1, 630821, Control_c, 0, 64, 117
1, 630851, Control_c, 0, 64, 120
1, 630866, Control_c, 0, 64, 124
1, 630880, Control_c, 0, 64, 127
1, 630989, Note_off_c, 0, 56, 0
1, 631003, Note_off_c, 0, 46, 44
1, 631005, Note_on_c, 0, 56, 37
1, 631028, Control_c, 0, 64, 110
1, 631043, Control_c, 0, 64, 89
1, 631049, Note_on_c, 0, 67, 59
1, 631059, Control_c, 0, 64, 72
1, 631070, Note_on_c, 0, 61, 38
1, 631073, Control_c, 0, 64, 59
1, 631076, Note_on_c, 0, 64, 41
1, 631088, Control_c, 0, 64, 34
1, 631103, Control_c, 0, 64, 0
1, 631132, Control_c, 0, 64, 55
1, 631147, Control_c, 0, 64, 68
1, 631162, Control_c, 0, 64, 79
1, 631177, Control_c, 0, 64, 85
1, 631192, Control_c, 0, 64, 85
1, 631222, Control_c, 0, 64, 86
1, 631237, Control_c, 0, 64, 86
1, 631258, Control_c, 0, 64, 87
1, 631273, Control_c, 0, 64, 90
1, 631290, Control_c, 0, 64, 93
1, 631304, Control_c, 0, 64, 97
1, 631305, Note_on_c, 0, 55, 51
1, 631310, Note_on_c, 0, 46, 43
1, 631315, Note_off_c, 0, 56, 40
1, 631319, Control_c, 0, 64, 106
1, 631329, Note_off_c, 0, 67, 37
1, 631334, Control_c, 0, 64, 127
1, 631347, Note_off_c, 0, 64, 36
1, 631348, Note_off_c, 0, 55, 64
1, 631403, Note_off_c, 0, 61, 52
1, 631467, Control_c, 0, 67, 122
1, 631482, Control_c, 0, 67, 103
1, 631496, Control_c, 0, 67, 84
1, 631511, Control_c, 0, 67, 71
1, 631526, Control_c, 0, 67, 70
1, 631535, Note_on_c, 0, 44, 72
1, 631541, Control_c, 0, 64, 81
1, 631547, Note_off_c, 0, 46, 46
1, 631556, Control_c, 0, 64, 54
1, 631556, Control_c, 0, 67, 68
1, 631570, Control_c, 0, 64, 0
1, 631570, Control_c, 0, 67, 67
1, 631585, Control_c, 0, 67, 66
1, 631615, Control_c, 0, 64, 60
1, 631630, Control_c, 0, 64, 73
1, 631645, Control_c, 0, 64, 88
1, 631645, Control_c, 0, 67, 65
1, 631660, Control_c, 0, 64, 106
1, 631660, Control_c, 0, 67, 63
1, 631674, Control_c, 0, 64, 120
1, 631674, Control_c, 0, 67, 58
1, 631689, Control_c, 0, 64, 127
1, 631689, Control_c, 0, 67, 51
1, 631704, Control_c, 0, 67, 43
1, 631719, Control_c, 0, 67, 34
1, 631734, Control_c, 0, 67, 20
1, 631743, Note_on_c, 0, 51, 65
1, 631748, Control_c, 0, 67, 0
1, 631768, Note_off_c, 0, 44, 61
1, 631777, Note_on_c, 0, 60, 70
1, 631805, Note_off_c, 0, 51, 58
1, 631973, Note_on_c, 0, 63, 79
1, 631985, Note_on_c, 0, 58, 72
1, 632024, Note_off_c, 0, 60, 33
1, 632063, Note_on_c, 0, 67, 59
1, 632065, Note_on_c, 0, 70, 87
1, 632098, Note_off_c, 0, 63, 57
1, 632251, Note_off_c, 0, 67, 60
1, 632320, Note_on_c, 0, 51, 55
1, 632324, Note_on_c, 0, 60, 54
1, 632337, Note_off_c, 0, 58, 48
1, 632426, Note_off_c, 0, 60, 53
1, 632453, Control_c, 0, 64, 74
1, 632456, Note_on_c, 0, 68, 87
1, 632459, Note_off_c, 0, 51, 57
1, 632462, Note_on_c, 0, 59, 63
1, 632468, Control_c, 0, 64, 62
1, 632474, Note_on_c, 0, 65, 67
1, 632480, Note_off_c, 0, 70, 63
1, 632483, Control_c, 0, 64, 63
1, 632497, Control_c, 0, 64, 70
1, 632512, Control_c, 0, 64, 95
1, 632527, Control_c, 0, 64, 127
1, 632599, Note_off_c, 0, 65, 62
1, 632608, Note_on_c, 0, 51, 59
1, 632612, Note_off_c, 0, 59, 60
1, 632613, Note_on_c, 0, 60, 68
1, 632647, Note_off_c, 0, 68, 62
1, 632710, Note_off_c, 0, 60, 61
1, 632721, Note_off_c, 0, 51, 59
1, 632765, Note_on_c, 0, 67, 84
1, 632767, Note_on_c, 0, 57, 65
1, 632772, Control_c, 0, 64, 73
1, 632778, Note_on_c, 0, 63, 73
1, 632786, Control_c, 0, 64, 46
1, 632801, Control_c, 0, 64, 0
1, 632816, Control_c, 0, 64, 38
1, 632831, Control_c, 0, 64, 61
1, 632846, Control_c, 0, 64, 74
1, 632860, Control_c, 0, 64, 87
1, 632876, Control_c, 0, 64, 92
1, 632882, Note_off_c, 0, 57, 61
1, 632891, Control_c, 0, 64, 93
1, 632906, Control_c, 0, 64, 98
1, 632911, Note_on_c, 0, 58, 72
1, 632921, Control_c, 0, 64, 114
1, 632921, Control_c, 0, 67, 19
1, 632924, Note_on_c, 0, 48, 63
1, 632929, Note_off_c, 0, 63, 61
1, 632935, Control_c, 0, 64, 127
1, 633009, Control_c, 0, 67, 22
1, 633021, Note_off_c, 0, 48, 53
1, 633039, Control_c, 0, 67, 24
1, 633057, Note_off_c, 0, 58, 56
1, 633069, Note_on_c, 0, 56, 68
1, 633082, Note_on_c, 0, 63, 76
1, 633082, Note_on_c, 0, 65, 86
1, 633083, Note_off_c, 0, 67, 60
1, 633113, Control_c, 0, 64, 86
1, 633113, Control_c, 0, 67, 26
1, 633127, Control_c, 0, 64, 62
1, 633142, Control_c, 0, 64, 38
1, 633157, Control_c, 0, 64, 42
1, 633172, Control_c, 0, 64, 57
1, 633187, Control_c, 0, 64, 70
1, 633201, Note_off_c, 0, 56, 58
1, 633201, Control_c, 0, 64, 87
1, 633216, Control_c, 0, 64, 104
1, 633224, Note_off_c, 0, 63, 59
1, 633231, Control_c, 0, 64, 127
1, 633233, Note_on_c, 0, 47, 59
1, 633240, Note_on_c, 0, 57, 68
1, 633261, Control_c, 0, 67, 24
1, 633290, Control_c, 0, 67, 21
1, 633305, Control_c, 0, 67, 19
1, 633319, Control_c, 0, 67, 0
1, 633380, Note_off_c, 0, 57, 56
1, 633435, Note_on_c, 0, 55, 58
1, 633447, Note_on_c, 0, 67, 76
1, 633452, Note_off_c, 0, 47, 61
1, 633452, Control_c, 0, 64, 105
1, 633467, Control_c, 0, 64, 66
1, 633481, Note_on_c, 0, 62, 43
1, 633482, Note_off_c, 0, 65, 61
1, 633482, Control_c, 0, 64, 0
1, 633534, Control_c, 0, 64, 34
1, 633549, Control_c, 0, 64, 56
1, 633564, Control_c, 0, 64, 67
1, 633579, Control_c, 0, 64, 78
1, 633593, Control_c, 0, 64, 94
1, 633608, Control_c, 0, 64, 122
1, 633623, Control_c, 0, 64, 127
1, 633649, Note_off_c, 0, 55, 56
1, 633658, Note_on_c, 0, 46, 62
1, 633669, Note_on_c, 0, 56, 74
1, 633857, Note_on_c, 0, 39, 80
1, 633865, Note_off_c, 0, 56, 56
1, 633875, Control_c, 0, 64, 70
1, 633885, Note_off_c, 0, 46, 60
1, 633890, Control_c, 0, 64, 0
1, 633930, Note_on_c, 0, 58, 85
1, 633935, Control_c, 0, 64, 57
1, 633937, Note_off_c, 0, 39, 63
1, 633949, Control_c, 0, 64, 79
1, 633951, Note_off_c, 0, 67, 55
1, 633955, Note_off_c, 0, 62, 62
1, 633964, Control_c, 0, 64, 127
1, 633973, Note_off_c, 0, 58, 66
1, 634150, Note_on_c, 0, 46, 79
1, 634162, Note_on_c, 0, 67, 88
1, 634209, Note_off_c, 0, 46, 63
1, 634378, Note_on_c, 0, 56, 75
1, 634378, Note_on_c, 0, 63, 81
1, 634471, Note_off_c, 0, 63, 60
1, 634511, Note_on_c, 0, 79, 101
1, 634527, Note_on_c, 0, 72, 73
1, 634550, Note_off_c, 0, 67, 61
1, 634632, Note_off_c, 0, 79, 58
1, 634659, Note_off_c, 0, 72, 32
1, 634704, Note_on_c, 0, 46, 69
1, 634717, Note_off_c, 0, 56, 52
1, 634739, Note_on_c, 0, 62, 75
1, 634779, Note_off_c, 0, 62, 59
1, 634787, Note_off_c, 0, 46, 60
1, 634868, Note_on_c, 0, 56, 56
1, 634877, Note_on_c, 0, 71, 86
1, 634881, Note_on_c, 0, 62, 72
1, 634906, Note_on_c, 0, 67, 60
1, 634953, Note_off_c, 0, 62, 59
1, 634958, Note_off_c, 0, 67, 40
1, 635024, Note_off_c, 0, 56, 60
1, 635027, Note_off_c, 0, 71, 63
1, 635032, Note_on_c, 0, 46, 72
1, 635032, Note_on_c, 0, 70, 88
1, 635048, Note_on_c, 0, 58, 78
1, 635063, Note_off_c, 0, 46, 67
1, 635081, Note_off_c, 0, 58, 59
1, 635081, Note_off_c, 0, 70, 65
1, 635180, Note_on_c, 0, 39, 87
1, 635222, Note_on_c, 0, 67, 73
1, 635224, Control_c, 0, 64, 96
1, 635228, Note_on_c, 0, 70, 86
1, 635239, Control_c, 0, 64, 58
1, 635240, Note_on_c, 0, 62, 64
1, 635254, Control_c, 0, 64, 0
1, 635300, Control_c, 0, 64, 53
1, 635314, Control_c, 0, 64, 70
1, 635329, Control_c, 0, 64, 90
1, 635344, Control_c, 0, 64, 127
1, 635389, Note_off_c, 0, 62, 59
1, 635392, Note_off_c, 0, 39, 59
1, 635392, Note_on_c, 0, 46, 69
1, 635396, Note_off_c, 0, 67, 64
1, 635398, Note_on_c, 0, 61, 84
1, 635419, Note_off_c, 0, 70, 62
1, 635424, Note_off_c, 0, 46, 65
1, 635461, Note_off_c, 0, 61, 60
1, 635565, Note_on_c, 0, 54, 75
1, 635565, Note_on_c, 0, 60, 72
1, 635624, Control_c, 0, 64, 82
1, 635624, Control_c, 0, 67, 19
1, 635627, Note_on_c, 0, 75, 81
1, 635636, Note_on_c, 0, 63, 72
1, 635636, Note_on_c, 0, 69, 55
1, 635639, Control_c, 0, 64, 52
1, 635654, Control_c, 0, 64, 0
1, 635654, Control_c, 0, 67, 22
1, 635684, Control_c, 0, 64, 36
1, 635699, Control_c, 0, 64, 65
1, 635702, Note_off_c, 0, 75, 64
1, 635705, Note_off_c, 0, 60, 53
1, 635708, Note_off_c, 0, 63, 59
1, 635713, Control_c, 0, 64, 81
1, 635723, Note_off_c, 0, 69, 62
1, 635728, Control_c, 0, 64, 103
1, 635750, Control_c, 0, 64, 127
1, 635814, Note_off_c, 0, 54, 58
1, 635827, Note_on_c, 0, 46, 73
1, 635833, Note_on_c, 0, 59, 68
1, 635863, Note_off_c, 0, 59, 64
1, 635884, Control_c, 0, 67, 20
1, 635899, Control_c, 0, 67, 0
1, 635959, Note_on_c, 0, 68, 65
1, 635976, Note_on_c, 0, 54, 65
1, 635978, Note_on_c, 0, 59, 63
1, 635978, Note_off_c, 0, 46, 62
1, 635991, Note_on_c, 0, 63, 69
1, 636028, Note_on_c, 0, 67, 59
1, 636042, Note_off_c, 0, 54, 57
1, 636068, Note_off_c, 0, 59, 37
1, 636079, Note_off_c, 0, 68, 62
1, 636119, Note_off_c, 0, 63, 60
1, 636141, Note_on_c, 0, 58, 74
1, 636169, Note_off_c, 0, 58, 67
1, 636186, Note_off_c, 0, 67, 63
1, 636279, Note_on_c, 0, 43, 74
1, 636344, Control_c, 0, 64, 70
1, 636358, Note_on_c, 0, 67, 87
1, 636359, Note_on_c, 0, 74, 90
1, 636359, Control_c, 0, 64, 0
1, 636389, Control_c, 0, 67, 19
1, 636402, Note_on_c, 0, 70, 44
1, 636433, Control_c, 0, 64, 62
1, 636448, Control_c, 0, 64, 71
1, 636462, Control_c, 0, 64, 76
1, 636477, Control_c, 0, 64, 77
1, 636500, Control_c, 0, 64, 80
1, 636515, Control_c, 0, 64, 86
1, 636530, Control_c, 0, 64, 99
1, 636544, Control_c, 0, 64, 127
1, 636552, Note_off_c, 0, 67, 58
1, 636569, Note_off_c, 0, 74, 59
1, 636582, Note_off_c, 0, 43, 61
1, 636586, Note_on_c, 0, 50, 69
1, 636595, Note_on_c, 0, 66, 67
1, 636626, Note_off_c, 0, 50, 61
1, 636739, Note_on_c, 0, 61, 75
1, 636761, Note_off_c, 0, 66, 56
1, 636767, Note_on_c, 0, 57, 61
1, 636786, Note_on_c, 0, 73, 91
1, 636787, Note_off_c, 0, 70, 60
1, 636793, Note_on_c, 0, 69, 72
1, 636797, Note_on_c, 0, 65, 82
1, 636841, Note_off_c, 0, 57, 63
1, 636845, Note_off_c, 0, 61, 57
1, 636871, Control_c, 0, 67, 21
1, 636906, Note_off_c, 0, 73, 59
1, 636945, Note_off_c, 0, 65, 52
1, 636960, Note_on_c, 0, 64, 69
1, 637049, Control_c, 0, 67, 23
1, 637079, Control_c, 0, 67, 25
1, 637097, Note_on_c, 0, 43, 80
1, 637138, Control_c, 0, 64, 69
1, 637138, Control_c, 0, 67, 27
1, 637153, Control_c, 0, 64, 34
1, 637167, Control_c, 0, 64, 0
1, 637182, Control_c, 0, 64, 43
1, 637197, Control_c, 0, 64, 64
1, 637211, Control_c, 0, 64, 81
1, 637226, Control_c, 0, 64, 109
1, 637249, Control_c, 0, 64, 127
1, 637249, Control_c, 0, 67, 29
1, 637267, Note_on_c, 0, 74, 83
1, 637268, Note_on_c, 0, 50, 71
1, 637273, Note_on_c, 0, 65, 79
1, 637281, Note_off_c, 0, 64, 36
1, 637288, Note_off_c, 0, 43, 59
1, 637309, Note_off_c, 0, 69, 59
1, 637320, Note_off_c, 0, 50, 61
1, 637323, Note_off_c, 0, 65, 64
1, 637333, Note_off_c, 0, 74, 63
1, 637449, Note_on_c, 0, 56, 64
1, 637460, Note_on_c, 0, 60, 49
1, 637500, Control_c, 0, 67, 31
1, 637507, Note_on_c, 0, 72, 74
1, 637513, Note_on_c, 0, 64, 67
1, 637515, Control_c, 0, 64, 112
1, 637515, Control_c, 0, 67, 32
1, 637521, Note_on_c, 0, 68, 69
1, 637530, Control_c, 0, 64, 68
1, 637545, Control_c, 0, 64, 0
1, 637560, Control_c, 0, 67, 32
1, 637574, Control_c, 0, 67, 33
1, 637589, Control_c, 0, 64, 53
1, 637589, Control_c, 0, 67, 33
1, 637604, Control_c, 0, 64, 72
1, 637604, Control_c, 0, 67, 34
1, 637619, Control_c, 0, 64, 96
1, 637619, Control_c, 0, 67, 34
1, 637634, Control_c, 0, 64, 127
1, 637634, Control_c, 0, 67, 35
1, 637649, Note_off_c, 0, 56, 61
1, 637671, Note_off_c, 0, 72, 57
1, 637679, Control_c, 0, 67, 36
1, 637703, Note_on_c, 0, 63, 66
1, 637728, Note_off_c, 0, 64, 53
1, 637758, Note_off_c, 0, 60, 37
1, 637842, Control_c, 0, 67, 36
1, 637867, Note_on_c, 0, 43, 66
1, 637887, Control_c, 0, 67, 37
1, 637902, Control_c, 0, 67, 37
1, 637916, Control_c, 0, 67, 40
1, 637931, Control_c, 0, 64, 89
1, 637931, Control_c, 0, 67, 43
1, 637946, Control_c, 0, 64, 74
1, 637946, Control_c, 0, 67, 44
1, 637961, Control_c, 0, 64, 70
1, 637961, Control_c, 0, 67, 44
1, 637976, Control_c, 0, 64, 72
1, 637997, Control_c, 0, 64, 80
1, 638012, Control_c, 0, 64, 91
1, 638027, Control_c, 0, 64, 100
1, 638027, Control_c, 0, 67, 45
1, 638042, Control_c, 0, 64, 102
1, 638057, Control_c, 0, 67, 46
1, 638072, Control_c, 0, 64, 104
1, 638072, Control_c, 0, 67, 47
1, 638087, Control_c, 0, 64, 106
1, 638090, Note_on_c, 0, 50, 52
1, 638090, Note_off_c, 0, 43, 53
1, 638098, Note_on_c, 0, 74, 73
1, 638102, Note_on_c, 0, 64, 66
1, 638102, Control_c, 0, 64, 110
1, 638116, Control_c, 0, 64, 115
1, 638123, Note_off_c, 0, 63, 55
1, 638131, Control_c, 0, 64, 119
1, 638157, Note_off_c, 0, 50, 61
1, 638159, Note_off_c, 0, 64, 56
1, 638161, Control_c, 0, 64, 124
1, 638176, Control_c, 0, 64, 127
1, 638190, Control_c, 0, 67, 48
1, 638191, Note_off_c, 0, 74, 49
1, 638205, Control_c, 0, 67, 49
1, 638220, Control_c, 0, 67, 49
1, 638234, Control_c, 0, 67, 51
1, 638247, Note_off_c, 0, 68, 25
1, 638249, Control_c, 0, 67, 52
1, 638294, Control_c, 0, 67, 53
1, 638309, Control_c, 0, 67, 53
1, 638338, Control_c, 0, 67, 54
1, 638353, Control_c, 0, 67, 54
1, 638368, Control_c, 0, 67, 55
1, 638383, Control_c, 0, 67, 56
1, 638384, Note_on_c, 0, 58, 47
1, 638397, Note_on_c, 0, 55, 37
1, 638397, Control_c, 0, 67, 56
1, 638412, Control_c, 0, 64, 120
1, 638427, Control_c, 0, 64, 101
1, 638441, Control_c, 0, 64, 79
1, 638442, Note_on_c, 0, 70, 55
1, 638456, Control_c, 0, 64, 60
1, 638465, Note_on_c, 0, 63, 37
1, 638467, Note_on_c, 0, 67, 25
1, 638472, Control_c, 0, 64, 0
1, 638517, Control_c, 0, 67, 57
1, 638532, Control_c, 0, 64, 40
1, 638546, Control_c, 0, 64, 61
1, 638546, Control_c, 0, 67, 57
1, 638561, Control_c, 0, 64, 72
1, 638576, Control_c, 0, 64, 80
1, 638576, Control_c, 0, 67, 58
1, 638591, Control_c, 0, 64, 82
1, 638591, Control_c, 0, 67, 58
1, 638606, Control_c, 0, 67, 60
1, 638620, Control_c, 0, 67, 63
1, 638635, Control_c, 0, 67, 65
1, 638650, Control_c, 0, 67, 65
1, 638680, Control_c, 0, 67, 66
1, 638695, Control_c, 0, 67, 66
1, 638710, Control_c, 0, 67, 68
1, 638725, Control_c, 0, 67, 72
1, 638746, Control_c, 0, 64, 81
1, 638746, Control_c, 0, 67, 74
1, 638761, Control_c, 0, 64, 81
1, 638761, Control_c, 0, 67, 76
1, 638776, Control_c, 0, 64, 79
1, 638776, Control_c, 0, 67, 78
1, 638790, Control_c, 0, 64, 78
1, 638790, Control_c, 0, 67, 80
1, 638805, Control_c, 0, 64, 76
1, 638805, Control_c, 0, 67, 83
1, 638820, Control_c, 0, 64, 74
1, 638820, Control_c, 0, 67, 86
1, 638835, Control_c, 0, 64, 72
1, 638835, Control_c, 0, 67, 90
1, 638850, Control_c, 0, 64, 71
1, 638850, Control_c, 0, 67, 93
1, 638865, Control_c, 0, 64, 68
1, 638865, Control_c, 0, 67, 96
1, 638880, Control_c, 0, 64, 65
1, 638880, Control_c, 0, 67, 100
1, 638895, Control_c, 0, 64, 59
1, 638895, Control_c, 0, 67, 102
1, 638909, Control_c, 0, 64, 51
1, 638909, Control_c, 0, 67, 105
1, 638924, Control_c, 0, 64, 38
1, 638924, Control_c, 0, 67, 108
1, 638939, Control_c, 0, 64, 0
1, 638939, Control_c, 0, 67, 111
1, 638954, Control_c, 0, 67, 114
1, 638961, Note_on_c, 0, 62, 39
1, 638969, Control_c, 0, 67, 117
1, 638983, Control_c, 0, 67, 120
1, 638998, Control_c, 0, 67, 123
1, 639013, Control_c, 0, 67, 127
1, 639016, Note_off_c, 0, 63, 36
1, 639043, Control_c, 0, 64, 49
1, 639057, Note_off_c, 0, 67, 40
1, 639058, Control_c, 0, 64, 64
1, 639072, Control_c, 0, 64, 72
1, 639087, Control_c, 0, 64, 79
1, 639091, Note_off_c, 0, 70, 37
1, 639102, Control_c, 0, 64, 83
1, 639117, Control_c, 0, 64, 85
1, 639131, Note_off_c, 0, 58, 49
1, 639131, Control_c, 0, 64, 88
1, 639144, Note_off_c, 0, 62, 51
1, 639146, Control_c, 0, 64, 91
1, 639161, Control_c, 0, 64, 94
1, 639172, Note_off_c, 0, 55, 41
1, 639176, Control_c, 0, 64, 99
1, 639190, Control_c, 0, 64, 106
1, 639205, Control_c, 0, 64, 112
1, 639220, Control_c, 0, 64, 115
1, 639413, Control_c, 0, 64, 107
1, 639428, Control_c, 0, 64, 96
1, 639443, Control_c, 0, 64, 83
1, 639458, Control_c, 0, 64, 70
1, 639473, Control_c, 0, 64, 59
1, 639495, Control_c, 0, 64, 0
1, 639501, Note_on_c, 0, 34, 50
1, 639555, Control_c, 0, 64, 59
1, 639569, Control_c, 0, 64, 76
1, 639584, Control_c, 0, 64, 116
1, 639599, Control_c, 0, 64, 127
1, 639609, Note_off_c, 0, 34, 61
1, 639825, Note_on_c, 0, 58, 39
1, 639834, Note_on_c, 0, 41, 41
1, 639958, Note_off_c, 0, 41, 25
1, 640072, Note_on_c, 0, 46, 38
1, 640075, Note_on_c, 0, 57, 53
1, 640107, Note_off_c, 0, 58, 35
1, 640142, Note_on_c, 0, 65, 74
1, 640155, Poly_aftertouch_c, 0, 50, 127
1, 640161, Note_on_c, 0, 62, 56
1, 640206, Note_off_c, 0, 57, 56
1, 640328, Note_off_c, 0, 46, 45
1, 640355, Poly_aftertouch_c, 0, 50, 0
1, 640361, Note_on_c, 0, 41, 45
1, 640379, Note_on_c, 0, 58, 38
1, 640457, Note_off_c, 0, 41, 48
1, 640464, Note_off_c, 0, 62, 34
1, 640484, Note_off_c, 0, 58, 47
1, 640524, Note_off_c, 0, 65, 0
1, 640536, Note_on_c, 0, 56, 59
1, 640550, Note_on_c, 0, 70, 81
1, 640551, Note_on_c, 0, 46, 46
1, 640561, Poly_aftertouch_c, 0, 65, 127
1, 640561, Note_on_c, 0, 50, 37
1, 640565, Note_on_c, 0, 62, 57
1, 640617, Note_off_c, 0, 56, 50
1, 640707, Note_off_c, 0, 46, 59
1, 640713, Note_on_c, 0, 41, 40
1, 640718, Note_on_c, 0, 58, 56
1, 640722, Note_off_c, 0, 50, 35
1, 640723, Note_off_c, 0, 70, 58
1, 640741, Note_off_c, 0, 41, 60
1, 640770, Note_off_c, 0, 58, 59
1, 640898, Note_on_c, 0, 34, 62
1, 640941, Control_c, 0, 64, 103
1, 640956, Control_c, 0, 64, 72
1, 640971, Note_on_c, 0, 72, 73
1, 640971, Control_c, 0, 64, 46
1, 640993, Control_c, 0, 64, 0
1, 640997, Note_off_c, 0, 62, 45
1, 641023, Control_c, 0, 64, 51
1, 641025, Poly_aftertouch_c, 0, 65, 0
1, 641030, Note_off_c, 0, 34, 62
1, 641038, Control_c, 0, 64, 65
1, 641053, Control_c, 0, 64, 77
1, 641067, Control_c, 0, 64, 90
1, 641082, Control_c, 0, 64, 95
1, 641112, Control_c, 0, 64, 96
1, 641141, Control_c, 0, 64, 98
1, 641171, Control_c, 0, 64, 100
1, 641192, Note_on_c, 0, 41, 54
1, 641200, Control_c, 0, 64, 103
1, 641219, Note_on_c, 0, 58, 36
1, 641230, Control_c, 0, 64, 106
1, 641245, Control_c, 0, 64, 108
1, 641274, Control_c, 0, 64, 112
1, 641289, Note_off_c, 0, 58, 38
1, 641289, Control_c, 0, 64, 115
1, 641318, Note_off_c, 0, 41, 51
1, 641365, Note_on_c, 0, 55, 58
1, 641375, Note_on_c, 0, 49, 45
1, 641395, Note_on_c, 0, 65, 46
1, 641396, Note_on_c, 0, 46, 33
1, 641407, Control_c, 0, 64, 117
1, 641412, Note_on_c, 0, 61, 32
1, 641437, Control_c, 0, 64, 120
1, 641438, Note_off_c, 0, 55, 61
1, 641440, Note_off_c, 0, 72, 38
1, 641452, Control_c, 0, 64, 127
1, 641466, Note_off_c, 0, 49, 55
1, 641494, Note_off_c, 0, 46, 38
1, 641508, Note_on_c, 0, 41, 58
1, 641509, Note_on_c, 0, 58, 58
1, 641530, Note_off_c, 0, 61, 33
1, 641562, Note_off_c, 0, 65, 51
1, 641638, Note_off_c, 0, 41, 46
1, 641675, Note_on_c, 0, 56, 58
1, 641688, Note_off_c, 0, 58, 44
1, 641690, Note_on_c, 0, 46, 50
1, 641691, Note_on_c, 0, 70, 75
1, 641691, Control_c, 0, 64, 107
1, 641692, Note_on_c, 0, 49, 52
1, 641706, Control_c, 0, 64, 74
1, 641708, Note_on_c, 0, 65, 56
1, 641717, Note_on_c, 0, 61, 45
1, 641720, Control_c, 0, 64, 56
1, 641743, Control_c, 0, 64, 0
1, 641772, Control_c, 0, 64, 50
1, 641787, Control_c, 0, 64, 67
1, 641794, Note_off_c, 0, 56, 46
1, 641802, Control_c, 0, 64, 79
1, 641816, Control_c, 0, 64, 92
1, 641831, Control_c, 0, 64, 98
1, 641846, Control_c, 0, 64, 101
1, 641859, Note_on_c, 0, 58, 48
1, 641861, Note_off_c, 0, 49, 54
1, 641861, Control_c, 0, 64, 110
1, 641867, Note_on_c, 0, 41, 34
1, 641876, Control_c, 0, 64, 127
1, 641885, Note_off_c, 0, 46, 40
1, 641889, Note_off_c, 0, 61, 55
1, 641901, Note_off_c, 0, 41, 47
1, 641974, Note_off_c, 0, 58, 47
1, 641995, Control_c, 0, 64, 82
1, 641995, Note_on_c, 0, 34, 70
1, 642009, Control_c, 0, 64, 67
1, 642024, Note_off_c, 0, 34, 65
1, 642024, Control_c, 0, 64, 64
1, 642039, Control_c, 0, 64, 69
1, 642054, Control_c, 0, 64, 79
1, 642069, Control_c, 0, 64, 107
1, 642083, Control_c, 0, 64, 127
1, 642142, Note_on_c, 0, 58, 63
1, 642147, Note_on_c, 0, 41, 56
1, 642147, Note_off_c, 0, 70, 56
1, 642171, Note_off_c, 0, 65, 37
1, 642272, Note_off_c, 0, 41, 50
1, 642278, Note_off_c, 0, 58, 54
1, 642299, Note_on_c, 0, 46, 63
1, 642302, Note_on_c, 0, 57, 72
1, 642307, Note_on_c, 0, 50, 60
1, 642311, Note_on_c, 0, 69, 79
1, 642320, Control_c, 0, 64, 103
1, 642321, Note_on_c, 0, 65, 62
1, 642328, Note_on_c, 0, 62, 68
1, 642334, Control_c, 0, 64, 71
1, 642349, Control_c, 0, 64, 52
1, 642364, Control_c, 0, 64, 0
1, 642379, Control_c, 0, 64, 40
1, 642394, Control_c, 0, 64, 62
1, 642409, Control_c, 0, 64, 78
1, 642410, Note_off_c, 0, 57, 55
1, 642424, Control_c, 0, 64, 107
1, 642439, Control_c, 0, 64, 127
1, 642483, Note_off_c, 0, 46, 58
1, 642483, Note_off_c, 0, 62, 59
1, 642488, Note_on_c, 0, 58, 54
1, 642489, Note_off_c, 0, 65, 56
1, 642508, Note_on_c, 0, 41, 54
1, 642513, Note_off_c, 0, 50, 38
1, 642635, Note_off_c, 0, 41, 51
1, 642642, Note_off_c, 0, 58, 34
1, 642656, Note_on_c, 0, 50, 58
1, 642656, Note_on_c, 0, 65, 59
1, 642657, Note_off_c, 0, 69, 59
1, 642662, Note_on_c, 0, 62, 55
1, 642663, Note_on_c, 0, 56, 63
1, 642673, Note_on_c, 0, 46, 49
1, 642749, Note_off_c, 0, 56, 54
1, 642773, Control_c, 0, 67, 121
1, 642788, Control_c, 0, 67, 111
1, 642802, Control_c, 0, 67, 95
1, 642816, Note_off_c, 0, 50, 58
1, 642817, Control_c, 0, 67, 76
1, 642829, Note_off_c, 0, 46, 60
1, 642831, Note_on_c, 0, 41, 63
1, 642832, Control_c, 0, 67, 53
1, 642847, Note_on_c, 0, 70, 76
1, 642847, Note_off_c, 0, 62, 60
1, 642847, Control_c, 0, 67, 30
1, 642853, Note_on_c, 0, 58, 65
1, 642862, Control_c, 0, 67, 0
1, 642866, Note_off_c, 0, 65, 60
1, 642881, Note_off_c, 0, 41, 59
1, 642943, Note_off_c, 0, 58, 58
1, 642943, Note_off_c, 0, 70, 59
1, 643042, Note_on_c, 0, 37, 66
1, 643054, Control_c, 0, 64, 91
1, 643069, Control_c, 0, 64, 51
1, 643084, Control_c, 0, 64, 0
1, 643109, Note_on_c, 0, 70, 75
1, 643127, Note_on_c, 0, 65, 59
1, 643127, Note_on_c, 0, 61, 59
1, 643128, Control_c, 0, 64, 46
1, 643143, Control_c, 0, 64, 65
1, 643157, Control_c, 0, 64, 78
1, 643172, Control_c, 0, 64, 102
1, 643187, Control_c, 0, 64, 127
1, 643217, Note_off_c, 0, 70, 57
1, 643391, Note_off_c, 0, 37, 59
1, 643413, Note_on_c, 0, 43, 35
1, 643415, Note_on_c, 0, 69, 68
1, 643423, Note_on_c, 0, 57, 55
1, 643452, Note_off_c, 0, 43, 46
1, 643471, Note_off_c, 0, 57, 59
1, 643478, Note_off_c, 0, 61, 53
1, 643497, Note_off_c, 0, 69, 60
1, 643497, Note_off_c, 0, 65, 40
1, 643554, Note_on_c, 0, 57, 73
1, 643563, Note_on_c, 0, 49, 73
1, 643566, Control_c, 0, 64, 92
1, 643578, Note_on_c, 0, 69, 79
1, 643581, Control_c, 0, 64, 68
1, 643583, Note_on_c, 0, 61, 68
1, 643585, Note_on_c, 0, 65, 63
1, 643586, Note_on_c, 0, 53, 42
1, 643595, Control_c, 0, 64, 60
1, 643610, Control_c, 0, 64, 62
1, 643625, Control_c, 0, 64, 69
1, 643640, Control_c, 0, 64, 83
1, 643652, Note_off_c, 0, 69, 64
1, 643655, Control_c, 0, 64, 127
1, 643700, Control_c, 0, 67, 19
1, 643741, Note_on_c, 0, 56, 63
1, 643741, Note_off_c, 0, 61, 58
1, 643744, Note_off_c, 0, 49, 61
1, 643753, Note_on_c, 0, 43, 66
1, 643756, Note_on_c, 0, 68, 78
1, 643760, Note_off_c, 0, 57, 37
1, 643769, Note_off_c, 0, 53, 53
1, 643802, Note_off_c, 0, 65, 62
1, 643803, Note_off_c, 0, 56, 54
1, 643833, Control_c, 0, 67, 0
1, 643847, Note_off_c, 0, 68, 59
1, 643955, Note_on_c, 0, 59, 57
1, 643963, Note_on_c, 0, 50, 57
1, 643964, Note_on_c, 0, 53, 52
1, 643966, Control_c, 0, 64, 80
1, 643988, Control_c, 0, 64, 56
1, 644003, Control_c, 0, 64, 0
1, 644010, Note_off_c, 0, 43, 37
1, 644017, Note_on_c, 0, 65, 51
1, 644019, Note_on_c, 0, 68, 67
1, 644028, Note_on_c, 0, 62, 48
1, 644138, Control_c, 0, 64, 56
1, 644143, Note_off_c, 0, 68, 62
1, 644153, Control_c, 0, 64, 70
1, 644167, Control_c, 0, 64, 87
1, 644182, Control_c, 0, 64, 98
1, 644211, Control_c, 0, 64, 100
1, 644226, Control_c, 0, 64, 108
1, 644241, Control_c, 0, 64, 127
1, 644389, Control_c, 0, 67, 19
1, 644403, Control_c, 0, 64, 96
1, 644406, Note_on_c, 0, 67, 59
1, 644418, Control_c, 0, 64, 72
1, 644419, Note_off_c, 0, 59, 47
1, 644424, Note_on_c, 0, 43, 39
1, 644433, Control_c, 0, 64, 56
1, 644442, Note_off_c, 0, 65, 42
1, 644445, Note_on_c, 0, 55, 28
1, 644448, Control_c, 0, 64, 0
1, 644478, Control_c, 0, 64, 50
1, 644491, Note_off_c, 0, 50, 37
1, 644492, Note_off_c, 0, 53, 37
1, 644493, Control_c, 0, 64, 70
1, 644507, Note_off_c, 0, 55, 40
1, 644508, Note_off_c, 0, 62, 35
1, 644508, Control_c, 0, 64, 100
1, 644522, Control_c, 0, 64, 127
1, 644532, Note_off_c, 0, 67, 61
1, 644552, Control_c, 0, 67, 21
1, 644562, Note_off_c, 0, 43, 47
1, 644715, Control_c, 0, 64, 80
1, 644734, Note_on_c, 0, 36, 54
1, 644737, Control_c, 0, 64, 55
1, 644737, Control_c, 0, 67, 23
1, 644752, Control_c, 0, 64, 0
1, 644782, Control_c, 0, 64, 47
1, 644797, Control_c, 0, 64, 68
1, 644811, Control_c, 0, 64, 86
1, 644826, Control_c, 0, 64, 127
1, 644826, Control_c, 0, 67, 26
1, 644830, Note_off_c, 0, 36, 60
1, 644841, Control_c, 0, 67, 28
1, 644960, Control_c, 0, 67, 26
1, 644990, Note_on_c, 0, 60, 53
1, 644991, Note_on_c, 0, 43, 45
1, 645037, Note_off_c, 0, 60, 55
1, 645127, Poly_aftertouch_c, 0, 60, 127
1, 645173, Note_on_c, 0, 59, 63
1, 645175, Note_off_c, 0, 43, 39
1, 645182, Control_c, 0, 67, 24
1, 645193, Note_on_c, 0, 52, 48
1, 645195, Note_on_c, 0, 48, 39
1, 645208, Poly_aftertouch_c, 0, 60, 0
1, 645235, Note_on_c, 0, 67, 75
1, 645255, Note_on_c, 0, 64, 60
1, 645300, Control_c, 0, 67, 22
1, 645315, Note_off_c, 0, 59, 57
1, 645373, Note_off_c, 0, 64, 58
1, 645375, Control_c, 0, 67, 20
1, 645390, Note_off_c, 0, 67, 60
1, 645411, Note_off_c, 0, 48, 38
1, 645414, Note_off_c, 0, 52, 37
1, 645420, Note_on_c, 0, 60, 44
1, 645420, Note_on_c, 0, 43, 47
1, 645434, Control_c, 0, 67, 0
1, 645557, Note_on_c, 0, 72, 90
1, 645563, Note_off_c, 0, 43, 37
1, 645564, Note_on_c, 0, 58, 65
1, 645574, Note_on_c, 0, 67, 67
1, 645577, Note_on_c, 0, 48, 57
1, 645579, Note_on_c, 0, 64, 67
1, 645585, Note_on_c, 0, 52, 44
1, 645588, Note_off_c, 0, 60, 32
1, 645642, Note_off_c, 0, 58, 61
1, 645707, Note_off_c, 0, 48, 57
1, 645707, Note_off_c, 0, 52, 60
1, 645712, Note_off_c, 0, 64, 60
1, 645713, Note_on_c, 0, 60, 63
1, 645719, Note_off_c, 0, 67, 62
1, 645720, Note_on_c, 0, 43, 54
1, 645721, Note_off_c, 0, 72, 59
1, 645752, Note_off_c, 0, 43, 64
1, 645869, Note_on_c, 0, 36, 73
1, 645902, Control_c, 0, 64, 90
1, 645917, Control_c, 0, 64, 61
1, 645922, Note_off_c, 0, 60, 59
1, 645931, Control_c, 0, 64, 0
1, 645932, Note_on_c, 0, 73, 87
1, 645974, Note_off_c, 0, 36, 63
1, 645975, Control_c, 0, 64, 48
1, 645990, Control_c, 0, 64, 64
1, 646005, Control_c, 0, 64, 73
1, 646020, Control_c, 0, 64, 84
1, 646035, Control_c, 0, 64, 94
1, 646049, Control_c, 0, 64, 102
1, 646064, Control_c, 0, 64, 122
1, 646079, Control_c, 0, 64, 127
1, 646117, Note_on_c, 0, 42, 62
1, 646130, Note_on_c, 0, 60, 53
1, 646228, Note_off_c, 0, 60, 46
1, 646243, Note_off_c, 0, 42, 61
1, 646271, Note_on_c, 0, 57, 77
1, 646278, Note_on_c, 0, 51, 66
1, 646280, Note_on_c, 0, 48, 60
1, 646297, Note_on_c, 0, 66, 55
1, 646313, Note_on_c, 0, 63, 41
1, 646334, Note_off_c, 0, 57, 61
1, 646403, Note_off_c, 0, 73, 59
1, 646406, Note_off_c, 0, 63, 59
1, 646409, Note_off_c, 0, 66, 58
1, 646415, Note_on_c, 0, 42, 79
1, 646418, Note_on_c, 0, 60, 64
1, 646423, Note_off_c, 0, 48, 57
1, 646430, Note_off_c, 0, 51, 61
1, 646561, Control_c, 0, 64, 85
1, 646576, Note_on_c, 0, 58, 66
1, 646576, Control_c, 0, 64, 63
1, 646580, Note_on_c, 0, 48, 56
1, 646591, Control_c, 0, 64, 0
1, 646596, Note_on_c, 0, 51, 64
1, 646603, Note_on_c, 0, 72, 88
1, 646621, Note_off_c, 0, 42, 60
1, 646624, Note_on_c, 0, 63, 66
1, 646630, Note_on_c, 0, 66, 57
1, 646636, Control_c, 0, 64, 45
1, 646648, Note_off_c, 0, 60, 42
1, 646651, Control_c, 0, 64, 64
1, 646666, Control_c, 0, 64, 81
1, 646680, Control_c, 0, 64, 109
1, 646686, Note_off_c, 0, 58, 55
1, 646695, Control_c, 0, 64, 127
1, 646755, Note_off_c, 0, 63, 56
1, 646755, Note_on_c, 0, 42, 60
1, 646758, Note_on_c, 0, 60, 58
1, 646760, Note_off_c, 0, 48, 62
1, 646764, Note_off_c, 0, 51, 60
1, 646792, Note_off_c, 0, 42, 64
1, 646803, Note_off_c, 0, 66, 36
1, 646857, Note_off_c, 0, 60, 50
1, 646873, Control_c, 0, 64, 92
1, 646888, Control_c, 0, 64, 65
1, 646899, Note_on_c, 0, 36, 75
1, 646903, Control_c, 0, 64, 53
1, 646918, Control_c, 0, 64, 60
1, 646928, Note_off_c, 0, 36, 64
1, 646932, Control_c, 0, 64, 71
1, 646947, Control_c, 0, 64, 95
1, 646962, Control_c, 0, 64, 127
1, 647026, Note_on_c, 0, 60, 64
1, 647048, Note_off_c, 0, 72, 58
1, 647053, Note_on_c, 0, 43, 64
1, 647083, Note_on_c, 0, 45, 41
1, 647116, Note_off_c, 0, 45, 53
1, 647134, Poly_aftertouch_c, 0, 49, 127
1, 647166, Poly_aftertouch_c, 0, 49, 0
1, 647190, Note_off_c, 0, 43, 0
1, 647195, Note_on_c, 0, 59, 81
1, 647196, Note_on_c, 0, 48, 65
1, 647207, Note_on_c, 0, 52, 73
1, 647241, Poly_aftertouch_c, 0, 43, 0
1, 647252, Control_c, 0, 64, 79
1, 647255, Note_on_c, 0, 71, 90
1, 647267, Note_on_c, 0, 67, 70
1, 647267, Control_c, 0, 64, 52
1, 647270, Note_on_c, 0, 64, 72
1, 647282, Control_c, 0, 64, 0
1, 647293, Note_off_c, 0, 60, 42
1, 647298, Note_off_c, 0, 59, 62
1, 647311, Control_c, 0, 64, 55
1, 647326, Control_c, 0, 64, 71
1, 647341, Control_c, 0, 64, 90
1, 647355, Control_c, 0, 64, 127
1, 647384, Note_off_c, 0, 48, 60
1, 647393, Note_on_c, 0, 43, 56
1, 647429, Note_off_c, 0, 64, 58
1, 647435, Note_on_c, 0, 60, 61
1, 647441, Note_off_c, 0, 67, 58
1, 647465, Note_off_c, 0, 52, 35
1, 647569, Note_on_c, 0, 58, 71
1, 647573, Note_off_c, 0, 60, 57
1, 647575, Note_on_c, 0, 52, 62
1, 647587, Note_on_c, 0, 67, 64
1, 647593, Note_on_c, 0, 64, 63
1, 647594, Note_off_c, 0, 43, 55
1, 647603, Note_on_c, 0, 48, 63
1, 647613, Note_off_c, 0, 71, 59
1, 647648, Note_off_c, 0, 58, 62
1, 647744, Note_off_c, 0, 52, 59
1, 647751, Note_on_c, 0, 43, 72
1, 647753, Note_off_c, 0, 64, 63
1, 647758, Note_off_c, 0, 48, 61
1, 647763, Note_on_c, 0, 72, 90
1, 647765, Note_on_c, 0, 60, 82
1, 647775, Note_off_c, 0, 67, 64
1, 647802, Note_off_c, 0, 43, 63
1, 647924, Note_off_c, 0, 72, 59
1, 647942, Note_off_c, 0, 60, 54
1, 647953, Note_on_c, 0, 33, 93
1, 647984, Control_c, 0, 64, 94
1, 647999, Control_c, 0, 64, 58
1, 648014, Control_c, 0, 64, 0
1, 648036, Note_on_c, 0, 72, 80
1, 648051, Note_on_c, 0, 67, 54
1, 648054, Note_on_c, 0, 63, 67
1, 648059, Control_c, 0, 64, 48
1, 648074, Control_c, 0, 64, 64
1, 648089, Note_off_c, 0, 33, 63
1, 648089, Control_c, 0, 64, 73
1, 648103, Control_c, 0, 64, 82
1, 648118, Control_c, 0, 64, 89
1, 648133, Control_c, 0, 64, 93
1, 648140, Note_off_c, 0, 72, 60
1, 648148, Control_c, 0, 64, 100
1, 648163, Control_c, 0, 64, 119
1, 648177, Control_c, 0, 64, 127
1, 648299, Note_on_c, 0, 45, 60
1, 648323, Note_on_c, 0, 71, 86
1, 648323, Note_on_c, 0, 59, 65
1, 648362, Note_off_c, 0, 63, 38
1, 648365, Note_off_c, 0, 67, 55
1, 648388, Note_off_c, 0, 59, 60
1, 648400, Note_off_c, 0, 71, 64
1, 648427, Note_off_c, 0, 45, 55
1, 648454, Note_on_c, 0, 51, 72
1, 648455, Note_on_c, 0, 59, 67
1, 648461, Note_on_c, 0, 55, 71
1, 648481, Control_c, 0, 64, 111
1, 648484, Note_on_c, 0, 67, 68
1, 648489, Note_on_c, 0, 63, 77
1, 648494, Note_on_c, 0, 71, 90
1, 648496, Control_c, 0, 64, 85
1, 648511, Control_c, 0, 64, 82
1, 648526, Control_c, 0, 64, 81
1, 648541, Control_c, 0, 64, 82
1, 648556, Control_c, 0, 64, 90
1, 648561, Note_off_c, 0, 59, 55
1, 648571, Control_c, 0, 64, 105
1, 648571, Note_off_c, 0, 71, 65
1, 648585, Control_c, 0, 64, 127
1, 648597, Note_off_c, 0, 63, 61
1, 648621, Note_on_c, 0, 45, 77
1, 648622, Note_off_c, 0, 51, 54
1, 648636, Note_on_c, 0, 58, 81
1, 648645, Note_on_c, 0, 70, 86
1, 648647, Poly_aftertouch_c, 0, 69, 127
1, 648660, Note_off_c, 0, 55, 60
1, 648669, Note_off_c, 0, 67, 62
1, 648680, Poly_aftertouch_c, 0, 69, 0
1, 648687, Note_off_c, 0, 58, 60
1, 648737, Note_off_c, 0, 70, 59
1, 648768, Poly_aftertouch_c, 0, 55, 127
1, 648812, Note_on_c, 0, 61, 81
1, 648818, Note_on_c, 0, 52, 67
1, 648821, Control_c, 0, 64, 96
1, 648836, Control_c, 0, 64, 59
1, 648853, Control_c, 0, 64, 0
1, 648871, Note_on_c, 0, 70, 83
1, 648883, Note_on_c, 0, 64, 59
1, 648885, Note_on_c, 0, 67, 54
1, 648895, Note_off_c, 0, 61, 58
1, 648917, Note_off_c, 0, 45, 37
1, 648926, Control_c, 0, 64, 51
1, 648941, Control_c, 0, 64, 64
1, 648956, Control_c, 0, 64, 70
1, 648971, Control_c, 0, 64, 75
1, 648986, Control_c, 0, 64, 82
1, 648990, Note_off_c, 0, 70, 62
1, 649000, Control_c, 0, 64, 90
1, 649015, Control_c, 0, 64, 105
1, 649030, Control_c, 0, 64, 127
1, 649107, Note_off_c, 0, 52, 49
1, 649119, Poly_aftertouch_c, 0, 55, 0
1, 649122, Note_on_c, 0, 45, 57
1, 649155, Note_off_c, 0, 64, 60
1, 649158, Note_on_c, 0, 69, 73
1, 649167, Note_off_c, 0, 45, 62
1, 649169, Note_off_c, 0, 67, 42
1, 649185, Note_on_c, 0, 57, 44
1, 649234, Note_off_c, 0, 57, 63
1, 649247, Note_off_c, 0, 69, 63
1, 649393, Control_c, 0, 64, 117
1, 649405, Note_on_c, 0, 38, 80
1, 649408, Control_c, 0, 64, 67
1, 649423, Control_c, 0, 64, 0
1, 649497, Control_c, 0, 64, 56
1, 649512, Control_c, 0, 64, 71
1, 649526, Control_c, 0, 64, 88
1, 649541, Control_c, 0, 64, 127
1, 649549, Note_off_c, 0, 38, 62
1, 649703, Note_on_c, 0, 45, 61
1, 649708, Note_on_c, 0, 62, 54
1, 649927, Note_on_c, 0, 61, 66
1, 649934, Note_on_c, 0, 54, 63
1, 649945, Note_on_c, 0, 50, 55
1, 649986, Note_on_c, 0, 69, 74
1, 649998, Note_on_c, 0, 66, 59
1, 650003, Note_off_c, 0, 62, 41
1, 650034, Note_off_c, 0, 45, 33
1, 650037, Note_off_c, 0, 61, 57
1, 650134, Note_off_c, 0, 69, 60
1, 650151, Note_off_c, 0, 66, 60
1, 650174, Note_on_c, 0, 62, 43
1, 650191, Note_off_c, 0, 54, 57
1, 650210, Note_on_c, 0, 45, 56
1, 650210, Note_off_c, 0, 50, 58
1, 650288, Note_off_c, 0, 62, 56
1, 650329, Note_on_c, 0, 74, 86
1, 650340, Note_on_c, 0, 54, 68
1, 650341, Note_off_c, 0, 45, 51
1, 650344, Note_on_c, 0, 60, 71
1, 650347, Note_on_c, 0, 69, 68
1, 650356, Note_on_c, 0, 66, 69
1, 650360, Note_on_c, 0, 50, 56
1, 650436, Note_off_c, 0, 60, 57
1, 650472, Note_off_c, 0, 74, 62
1, 650477, Note_on_c, 0, 62, 62
1, 650486, Note_on_c, 0, 45, 69
1, 650510, Note_off_c, 0, 50, 59
1, 650519, Note_off_c, 0, 54, 60
1, 650534, Note_off_c, 0, 45, 60
1, 650543, Note_off_c, 0, 62, 56
1, 650647, Note_on_c, 0, 75, 96
1, 650656, Note_off_c, 0, 69, 42
1, 650660, Control_c, 0, 64, 91
1, 650669, Note_off_c, 0, 66, 57
1, 650675, Control_c, 0, 64, 70
1, 650690, Control_c, 0, 64, 66
1, 650705, Control_c, 0, 64, 70
1, 650727, Control_c, 0, 64, 77
1, 650742, Control_c, 0, 64, 95
1, 650757, Control_c, 0, 64, 127
1, 650785, Note_on_c, 0, 50, 64
1, 650802, Note_on_c, 0, 63, 69
1, 650860, Note_off_c, 0, 63, 51
1, 650860, Note_off_c, 0, 50, 61
1, 650953, Note_on_c, 0, 60, 59
1, 650956, Note_on_c, 0, 72, 85
1, 650960, Note_on_c, 0, 66, 76
1, 650967, Note_on_c, 0, 68, 81
1, 651010, Note_off_c, 0, 66, 61
1, 651106, Note_on_c, 0, 63, 71
1, 651106, Note_off_c, 0, 75, 58
1, 651108, Note_off_c, 0, 68, 58
1, 651110, Note_on_c, 0, 56, 67
1, 651134, Note_off_c, 0, 60, 35
1, 651134, Note_off_c, 0, 72, 56
1, 651187, Note_off_c, 0, 56, 59
1, 651203, Note_off_c, 0, 63, 60
1, 651274, Note_on_c, 0, 67, 79
1, 651274, Note_on_c, 0, 60, 75
1, 651288, Note_on_c, 0, 76, 97
1, 651298, Note_on_c, 0, 72, 80
1, 651304, Note_on_c, 0, 68, 76
1, 651349, Note_off_c, 0, 67, 62
1, 651381, Note_off_c, 0, 72, 58
1, 651454, Note_on_c, 0, 56, 76
1, 651460, Note_off_c, 0, 60, 63
1, 651492, Note_on_c, 0, 72, 78
1, 651492, Note_off_c, 0, 56, 65
1, 651503, Note_on_c, 0, 64, 57
1, 651527, Note_off_c, 0, 68, 57
1, 651537, Note_off_c, 0, 64, 64
1, 651550, Note_off_c, 0, 72, 63
1, 651557, Note_off_c, 0, 76, 59
1, 651729, Note_on_c, 0, 43, 92
1, 651730, Note_on_c, 0, 31, 89
1, 651757, Control_c, 0, 64, 83
1, 651766, Note_on_c, 0, 77, 91
1, 651772, Control_c, 0, 64, 46
1, 651781, Note_on_c, 0, 74, 79
1, 651786, Note_on_c, 0, 71, 74
1, 651787, Control_c, 0, 64, 0
1, 651832, Control_c, 0, 64, 39
1, 651846, Control_c, 0, 64, 63
1, 651853, Note_off_c, 0, 31, 60
1, 651861, Control_c, 0, 64, 77
1, 651862, Note_off_c, 0, 71, 56
1, 651876, Control_c, 0, 64, 101
1, 651885, Note_off_c, 0, 74, 50
1, 651891, Control_c, 0, 64, 127
1, 651904, Note_off_c, 0, 43, 62
1, 652045, Note_off_c, 0, 77, 62
1, 652051, Note_on_c, 0, 50, 61
1, 652058, Note_on_c, 0, 74, 64
1, 652061, Note_on_c, 0, 59, 71
1, 652064, Note_on_c, 0, 71, 56
1, 652068, Note_on_c, 0, 65, 43
1, 652088, Note_on_c, 0, 53, 39
1, 652096, Note_off_c, 0, 65, 54
1, 652098, Note_off_c, 0, 59, 56
1, 652122, Note_off_c, 0, 50, 60
1, 652122, Note_off_c, 0, 71, 55
1, 652122, Note_off_c, 0, 53, 48
1, 652127, Note_off_c, 0, 74, 62
1, 652195, Note_on_c, 0, 78, 95
1, 652198, Note_on_c, 0, 62, 83
1, 652202, Note_on_c, 0, 74, 78
1, 652207, Note_on_c, 0, 54, 77
1, 652208, Note_on_c, 0, 59, 67
1, 652220, Note_on_c, 0, 71, 81
1, 652263, Note_off_c, 0, 59, 54
1, 652270, Note_off_c, 0, 62, 61
1, 652285, Note_off_c, 0, 71, 60
1, 652298, Note_off_c, 0, 74, 61
1, 652300, Note_off_c, 0, 54, 56
1, 652370, Note_on_c, 0, 74, 59
1, 652371, Note_on_c, 0, 50, 72
1, 652371, Note_on_c, 0, 66, 70
1, 652374, Note_on_c, 0, 54, 58
1, 652376, Note_on_c, 0, 59, 72
1, 652379, Note_on_c, 0, 71, 57
1, 652407, Note_off_c, 0, 78, 61
1, 652409, Note_off_c, 0, 59, 59
1, 652417, Note_off_c, 0, 66, 58
1, 652424, Note_off_c, 0, 50, 57
1, 652424, Note_off_c, 0, 54, 59
1, 652429, Note_off_c, 0, 71, 62
1, 652439, Note_off_c, 0, 74, 62
1, 652564, Note_on_c, 0, 63, 91
1, 652566, Note_on_c, 0, 59, 77
1, 652568, Note_on_c, 0, 55, 82
1, 652569, Note_on_c, 0, 79, 99
1, 652574, Note_on_c, 0, 75, 84
1, 652583, Note_on_c, 0, 72, 72
1, 652584, Note_on_c, 0, 71, 81
1, 652634, Note_off_c, 0, 71, 58
1, 652634, Note_off_c, 0, 72, 56
1, 652664, Note_off_c, 0, 63, 59
1, 652669, Note_off_c, 0, 75, 59
1, 652714, Note_off_c, 0, 59, 55
1, 652717, Note_off_c, 0, 55, 55
1, 652780, Note_on_c, 0, 51, 65
1, 652791, Note_on_c, 0, 71, 71
1, 652793, Note_on_c, 0, 67, 65
1, 652793, Note_on_c, 0, 75, 77
1, 652797, Note_off_c, 0, 79, 67
1, 652806, Note_off_c, 0, 51, 65
1, 652822, Note_off_c, 0, 67, 66
1, 652825, Note_off_c, 0, 71, 64
1, 652860, Note_off_c, 0, 75, 60
1, 653048, Control_c, 0, 67, 31
1, 653051, Note_on_c, 0, 36, 87
1, 653053, Note_on_c, 0, 52, 88
1, 653063, Control_c, 0, 64, 73
1, 653063, Control_c, 0, 67, 35
1, 653078, Control_c, 0, 64, 0
1, 653078, Control_c, 0, 67, 36
1, 653090, Note_on_c, 0, 82, 99
1, 653090, Note_on_c, 0, 70, 102
1, 653090, Note_on_c, 0, 76, 88
1, 653091, Note_on_c, 0, 73, 93
1, 653093, Control_c, 0, 67, 42
1, 653107, Control_c, 0, 67, 52
1, 653115, Note_on_c, 0, 50, 11
1, 653115, Note_off_c, 0, 50, 127
1, 653122, Control_c, 0, 64, 50
1, 653122, Control_c, 0, 67, 60
1, 653137, Control_c, 0, 64, 89
1, 653137, Control_c, 0, 67, 61
1, 653146, Note_off_c, 0, 70, 63
1, 653152, Control_c, 0, 64, 127
1, 653152, Control_c, 0, 67, 59
1, 653158, Note_off_c, 0, 82, 65
1, 653167, Control_c, 0, 67, 58
1, 653169, Note_off_c, 0, 73, 62
1, 653169, Note_off_c, 0, 76, 66
1, 653179, Note_off_c, 0, 36, 61
1, 653182, Control_c, 0, 67, 57
1, 653211, Control_c, 0, 67, 57
1, 653226, Control_c, 0, 67, 55
1, 653232, Note_off_c, 0, 52, 63
1, 653241, Control_c, 0, 67, 53
1, 653256, Control_c, 0, 67, 52
1, 653285, Control_c, 0, 67, 53
1, 653300, Control_c, 0, 67, 53
1, 653330, Control_c, 0, 67, 52
1, 653345, Control_c, 0, 67, 51
1, 653389, Control_c, 0, 67, 52
1, 653418, Control_c, 0, 67, 51
1, 653427, Note_on_c, 0, 52, 33
1, 653433, Control_c, 0, 67, 50
1, 653444, Note_on_c, 0, 61, 65
1, 653450, Note_on_c, 0, 58, 45
1, 653495, Note_on_c, 0, 67, 67
1, 653495, Note_on_c, 0, 73, 77
1, 653498, Note_on_c, 0, 70, 74
1, 653500, Note_off_c, 0, 52, 57
1, 653522, Control_c, 0, 67, 50
1, 653524, Note_off_c, 0, 58, 63
1, 653537, Control_c, 0, 67, 49
1, 653544, Note_off_c, 0, 61, 51
1, 653565, Note_off_c, 0, 70, 59
1, 653566, Note_off_c, 0, 67, 56
1, 653577, Note_off_c, 0, 73, 59
1, 653596, Control_c, 0, 67, 50
1, 653648, Note_on_c, 0, 64, 71
1, 653651, Note_on_c, 0, 58, 71
1, 653654, Note_on_c, 0, 76, 92
1, 653656, Control_c, 0, 67, 49
1, 653667, Note_on_c, 0, 61, 65
1, 653686, Control_c, 0, 67, 50
1, 653702, Note_off_c, 0, 61, 59
1, 653722, Note_off_c, 0, 64, 60
1, 653723, Control_c, 0, 67, 49
1, 653725, Note_off_c, 0, 58, 62
1, 653753, Control_c, 0, 67, 48
1, 653763, Poly_aftertouch_c, 0, 70, 0
1, 653784, Poly_aftertouch_c, 0, 73, 0
1, 653784, Poly_aftertouch_c, 0, 70, 0
1, 653817, Note_on_c, 0, 52, 67
1, 653821, Note_on_c, 0, 61, 74
1, 653821, Note_on_c, 0, 73, 76
1, 653822, Note_on_c, 0, 58, 71
1, 653822, Note_on_c, 0, 70, 74
1, 653826, Note_off_c, 0, 76, 60
1, 653827, Control_c, 0, 67, 47
1, 653834, Note_on_c, 0, 67, 66
1, 653841, Control_c, 0, 67, 45
1, 653846, Note_off_c, 0, 52, 64
1, 653850, Note_off_c, 0, 58, 64
1, 653853, Note_off_c, 0, 61, 65
1, 653856, Note_off_c, 0, 67, 65
1, 653856, Control_c, 0, 67, 44
1, 653869, Note_off_c, 0, 70, 65
1, 653871, Control_c, 0, 67, 43
1, 653873, Note_off_c, 0, 73, 64
1, 653886, Control_c, 0, 67, 42
1, 653901, Control_c, 0, 67, 38
1, 653915, Control_c, 0, 67, 25
1, 653930, Control_c, 0, 67, 0
1, 653989, Poly_aftertouch_c, 0, 63, 127
1, 654006, Note_on_c, 0, 64, 71
1, 654016, Note_on_c, 0, 70, 85
1, 654020, Note_on_c, 0, 60, 63
1, 654023, Poly_aftertouch_c, 0, 63, 0
1, 654074, Note_on_c, 0, 75, 57
1, 654075, Note_on_c, 0, 80, 97
1, 654083, Note_on_c, 0, 72, 79
1, 654085, Note_on_c, 0, 76, 88
1, 654094, Control_c, 0, 64, 70
1, 654103, Note_off_c, 0, 70, 58
1, 654109, Control_c, 0, 64, 53
1, 654115, Note_on_c, 0, 78, 36
1, 654123, Control_c, 0, 64, 57
1, 654138, Control_c, 0, 64, 66
1, 654145, Note_off_c, 0, 78, 48
1, 654152, Note_off_c, 0, 72, 53
1, 654153, Control_c, 0, 64, 86
1, 654168, Control_c, 0, 64, 127
1, 654194, Note_off_c, 0, 76, 60
1, 654222, Note_off_c, 0, 75, 41
1, 654317, Note_off_c, 0, 60, 35
1, 654330, Note_off_c, 0, 64, 17
1, 654380, Note_on_c, 0, 58, 61
1, 654403, Note_on_c, 0, 76, 58
1, 654407, Note_on_c, 0, 72, 53
1, 654409, Note_on_c, 0, 68, 51
1, 654421, Note_off_c, 0, 80, 53
1, 654430, Note_off_c, 0, 58, 60
1, 654537, Note_off_c, 0, 68, 35
1, 654597, Note_off_c, 0, 76, 26
1, 654670, Note_on_c, 0, 41, 74
1, 654694, Control_c, 0, 64, 84
1, 654709, Control_c, 0, 64, 47
1, 654721, Note_on_c, 0, 79, 91
1, 654724, Control_c, 0, 64, 0
1, 654743, Note_off_c, 0, 72, 51
1, 654768, Control_c, 0, 64, 55
1, 654783, Control_c, 0, 64, 71
1, 654798, Control_c, 0, 64, 92
1, 654813, Control_c, 0, 64, 127
1, 654815, Note_off_c, 0, 41, 62
1, 655016, Note_on_c, 0, 71, 48
1, 655024, Note_on_c, 0, 75, 52
1, 655025, Note_on_c, 0, 51, 54
1, 655027, Note_off_c, 0, 79, 58
1, 655070, Note_off_c, 0, 75, 56
1, 655164, Note_off_c, 0, 51, 36
1, 655172, Note_off_c, 0, 71, 58
1, 655182, Note_on_c, 0, 65, 74
1, 655187, Note_on_c, 0, 59, 60
1, 655190, Note_on_c, 0, 77, 75
1, 655202, Note_on_c, 0, 70, 60
1, 655204, Note_on_c, 0, 73, 68
1, 655234, Note_off_c, 0, 70, 65
1, 655280, Note_off_c, 0, 65, 53
1, 655295, Note_off_c, 0, 73, 59
1, 655349, Note_on_c, 0, 51, 65
1, 655353, Note_off_c, 0, 59, 60
1, 655358, Note_on_c, 0, 68, 63
1, 655362, Note_on_c, 0, 71, 60
1, 655377, Note_off_c, 0, 51, 66
1, 655397, Note_off_c, 0, 71, 63
1, 655435, Note_off_c, 0, 68, 37
1, 655484, Note_on_c, 0, 63, 75
1, 655489, Note_on_c, 0, 67, 69
1, 655489, Note_on_c, 0, 70, 72
1, 655501, Note_off_c, 0, 77, 61
1, 655534, Note_on_c, 0, 74, 41
1, 655549, Note_on_c, 0, 73, 16
1, 655561, Note_off_c, 0, 74, 57
1, 655570, Note_off_c, 0, 70, 62
1, 655586, Note_off_c, 0, 67, 55
1, 655597, Note_off_c, 0, 73, 52
1, 655620, Note_on_c, 0, 59, 68
1, 655623, Note_off_c, 0, 63, 61
1, 655627, Note_on_c, 0, 75, 83
1, 655631, Note_on_c, 0, 71, 80
1, 655646, Note_off_c, 0, 59, 67
1, 655769, Note_off_c, 0, 75, 57
1, 655779, Note_on_c, 0, 43, 83
1, 655784, Control_c, 0, 64, 88
1, 655799, Control_c, 0, 64, 56
1, 655808, Note_on_c, 0, 79, 93
1, 655813, Control_c, 0, 64, 0
1, 655843, Note_off_c, 0, 43, 65
1, 655843, Control_c, 0, 64, 48
1, 655858, Control_c, 0, 64, 68
1, 655873, Control_c, 0, 64, 91
1, 655887, Control_c, 0, 64, 127
1, 655892, Note_off_c, 0, 79, 64
1, 655969, Note_off_c, 0, 71, 59
1, 656027, Note_on_c, 0, 73, 71
1, 656029, Note_on_c, 0, 51, 54
1, 656030, Note_on_c, 0, 70, 44
1, 656060, Note_off_c, 0, 70, 61
1, 656143, Note_on_c, 0, 75, 81
1, 656154, Note_on_c, 0, 68, 72
1, 656160, Note_on_c, 0, 71, 71
1, 656172, Note_on_c, 0, 58, 62
1, 656182, Note_on_c, 0, 63, 52
1, 656185, Note_off_c, 0, 68, 60
1, 656225, Note_off_c, 0, 63, 55
1, 656241, Note_off_c, 0, 51, 0
1, 656244, Note_off_c, 0, 73, 34
1, 656267, Note_on_c, 0, 51, 28
1, 656277, Note_on_c, 0, 70, 81
1, 656285, Note_on_c, 0, 67, 71
1, 656289, Note_on_c, 0, 63, 67
1, 656290, Note_off_c, 0, 71, 58
1, 656312, Note_off_c, 0, 58, 55
1, 656315, Note_off_c, 0, 67, 65
1, 656319, Note_off_c, 0, 63, 67
1, 656321, Note_off_c, 0, 51, 61
1, 656336, Note_off_c, 0, 70, 63
1, 656370, Note_off_c, 0, 75, 61
1, 656397, Note_on_c, 0, 71, 85
1, 656400, Note_on_c, 0, 68, 89
1, 656401, Note_on_c, 0, 63, 75
1, 656418, Note_on_c, 0, 58, 64
1, 656481, Poly_aftertouch_c, 0, 65, 127
1, 656521, Note_on_c, 0, 67, 71
1, 656522, Note_off_c, 0, 71, 57
1, 656528, Note_on_c, 0, 73, 89
1, 656543, Note_off_c, 0, 63, 60
1, 656545, Note_off_c, 0, 67, 70
1, 656558, Poly_aftertouch_c, 0, 65, 0
1, 656562, Note_off_c, 0, 58, 63
1, 656580, Note_off_c, 0, 73, 64
1, 656637, Control_c, 0, 64, 87
1, 656652, Control_c, 0, 64, 54
1, 656659, Note_on_c, 0, 79, 92
1, 656667, Note_on_c, 0, 44, 83
1, 656667, Control_c, 0, 64, 0
1, 656670, Note_off_c, 0, 68, 47
1, 656694, Note_off_c, 0, 44, 68
1, 656696, Control_c, 0, 64, 58
1, 656696, Control_c, 0, 67, 19
1, 656718, Control_c, 0, 64, 86
1, 656733, Control_c, 0, 64, 127
1, 656808, Note_off_c, 0, 79, 47
1, 656814, Note_on_c, 0, 51, 71
1, 656818, Note_on_c, 0, 68, 63
1, 656818, Note_on_c, 0, 71, 67
1, 656846, Note_off_c, 0, 71, 67
1, 656849, Note_off_c, 0, 68, 66
1, 656935, Note_off_c, 0, 51, 61
1, 656945, Note_on_c, 0, 74, 88
1, 656947, Note_on_c, 0, 56, 65
1, 656953, Note_on_c, 0, 62, 62
1, 656953, Note_on_c, 0, 67, 71
1, 656962, Note_on_c, 0, 59, 51
1, 656963, Note_on_c, 0, 70, 61
1, 656971, Control_c, 0, 67, 0
1, 656983, Note_off_c, 0, 67, 63
1, 656997, Note_off_c, 0, 62, 58
1, 657026, Note_off_c, 0, 59, 45
1, 657057, Note_off_c, 0, 70, 57
1, 657080, Note_on_c, 0, 51, 75
1, 657084, Note_on_c, 0, 68, 80
1, 657087, Note_on_c, 0, 65, 77
1, 657100, Note_off_c, 0, 56, 48
1, 657130, Note_off_c, 0, 65, 58
1, 657142, Note_off_c, 0, 68, 62
1, 657229, Note_on_c, 0, 70, 82
1, 657231, Note_on_c, 0, 67, 78
1, 657233, Note_on_c, 0, 63, 71
1, 657237, Note_on_c, 0, 59, 58
1, 657341, Note_off_c, 0, 63, 56
1, 657347, Note_off_c, 0, 70, 57
1, 657352, Note_off_c, 0, 59, 60
1, 657359, Note_on_c, 0, 68, 72
1, 657363, Note_off_c, 0, 74, 60
1, 657372, Note_on_c, 0, 56, 63
1, 657373, Note_on_c, 0, 71, 73
1, 657379, Note_off_c, 0, 51, 60
1, 657396, Note_off_c, 0, 68, 62
1, 657399, Note_off_c, 0, 56, 64
1, 657427, Note_off_c, 0, 71, 64
1, 657558, Note_on_c, 0, 34, 86
1, 657571, Control_c, 0, 64, 91
1, 657585, Control_c, 0, 64, 56
1, 657588, Note_off_c, 0, 67, 57
1, 657600, Control_c, 0, 64, 0
1, 657611, Note_on_c, 0, 79, 94
1, 657628, Note_off_c, 0, 34, 61
1, 657646, Control_c, 0, 64, 61
1, 657661, Control_c, 0, 64, 81
1, 657676, Control_c, 0, 64, 127
1, 657690, Control_c, 0, 67, 19
1, 657790, Note_off_c, 0, 79, 61
1, 657801, Note_on_c, 0, 46, 67
1, 657816, Note_on_c, 0, 71, 65
1, 657820, Note_on_c, 0, 68, 63
1, 657850, Note_off_c, 0, 68, 65
1, 657853, Note_off_c, 0, 71, 62
1, 657883, Control_c, 0, 67, 21
1, 657963, Note_off_c, 0, 46, 61
1, 657975, Note_on_c, 0, 56, 65
1, 657997, Note_on_c, 0, 60, 58
1, 658009, Note_on_c, 0, 72, 79
1, 658016, Note_on_c, 0, 70, 68
1, 658020, Note_on_c, 0, 67, 67
1, 658054, Note_off_c, 0, 67, 61
1, 658119, Control_c, 0, 67, 23
1, 658151, Note_off_c, 0, 60, 36
1, 658169, Note_on_c, 0, 46, 57
1, 658172, Note_off_c, 0, 70, 37
1, 658172, Note_on_c, 0, 68, 62
1, 658180, Note_on_c, 0, 65, 69
1, 658212, Note_off_c, 0, 56, 58
1, 658213, Note_off_c, 0, 46, 59
1, 658243, Note_off_c, 0, 65, 59
1, 658263, Note_off_c, 0, 68, 60
1, 658275, Control_c, 0, 67, 25
1, 658333, Control_c, 0, 67, 28
1, 658355, Note_on_c, 0, 56, 59
1, 658363, Control_c, 0, 67, 31
1, 658367, Note_on_c, 0, 61, 59
1, 658374, Note_on_c, 0, 67, 63
1, 658377, Note_on_c, 0, 64, 55
1, 658378, Control_c, 0, 64, 93
1, 658378, Control_c, 0, 67, 32
1, 658393, Control_c, 0, 64, 67
1, 658408, Control_c, 0, 64, 58
1, 658421, Note_off_c, 0, 64, 57
1, 658422, Control_c, 0, 64, 63
1, 658438, Control_c, 0, 64, 71
1, 658438, Control_c, 0, 67, 33
1, 658453, Control_c, 0, 64, 88
1, 658453, Control_c, 0, 67, 35
1, 658456, Note_off_c, 0, 67, 63
1, 658468, Control_c, 0, 64, 127
1, 658468, Control_c, 0, 67, 40
1, 658483, Control_c, 0, 67, 43
1, 658498, Control_c, 0, 67, 44
1, 658577, Note_on_c, 0, 62, 60
1, 658578, Note_off_c, 0, 72, 56
1, 658581, Note_on_c, 0, 71, 81
1, 658588, Note_on_c, 0, 65, 72
1, 658589, Note_on_c, 0, 68, 72
1, 658605, Note_off_c, 0, 61, 60
1, 658616, Note_off_c, 0, 56, 59
1, 658618, Note_off_c, 0, 62, 60
1, 658644, Note_off_c, 0, 68, 60
1, 658646, Control_c, 0, 67, 44
1, 658653, Note_off_c, 0, 71, 62
1, 658779, Control_c, 0, 67, 45
1, 658794, Control_c, 0, 67, 45
1, 658809, Note_on_c, 0, 39, 73
1, 658868, Control_c, 0, 64, 87
1, 658883, Control_c, 0, 64, 59
1, 658894, Note_on_c, 0, 77, 87
1, 658898, Control_c, 0, 64, 0
1, 658927, Control_c, 0, 67, 46
1, 658942, Control_c, 0, 64, 55
1, 658942, Control_c, 0, 67, 47
1, 658944, Note_off_c, 0, 65, 60
1, 658964, Control_c, 0, 64, 71
1, 658964, Control_c, 0, 67, 50
1, 658979, Control_c, 0, 64, 88
1, 658979, Control_c, 0, 67, 53
1, 658994, Control_c, 0, 64, 112
1, 658994, Control_c, 0, 67, 56
1, 659009, Control_c, 0, 64, 120
1, 659009, Control_c, 0, 67, 56
1, 659022, Note_off_c, 0, 77, 54
1, 659024, Control_c, 0, 64, 124
1, 659024, Control_c, 0, 67, 57
1, 659038, Control_c, 0, 64, 127
1, 659038, Control_c, 0, 67, 57
1, 659053, Control_c, 0, 67, 58
1, 659068, Control_c, 0, 67, 59
1, 659098, Control_c, 0, 67, 60
1, 659112, Control_c, 0, 67, 60
1, 659141, Note_off_c, 0, 39, 57
1, 659142, Control_c, 0, 67, 61
1, 659146, Note_on_c, 0, 46, 55
1, 659156, Control_c, 0, 67, 61
1, 659175, Note_on_c, 0, 62, 61
1, 659194, Note_off_c, 0, 46, 61
1, 659201, Control_c, 0, 67, 62
1, 659216, Control_c, 0, 67, 62
1, 659232, Control_c, 0, 67, 64
1, 659247, Control_c, 0, 67, 66
1, 659261, Control_c, 0, 67, 68
1, 659276, Control_c, 0, 67, 70
1, 659291, Control_c, 0, 67, 70
1, 659306, Control_c, 0, 67, 71
1, 659311, Note_off_c, 0, 62, 57
1, 659349, Note_on_c, 0, 61, 58
1, 659360, Note_on_c, 0, 56, 48
1, 659363, Note_on_c, 0, 70, 74
1, 659371, Note_on_c, 0, 65, 59
1, 659398, Note_on_c, 0, 68, 41
1, 659409, Control_c, 0, 67, 71
1, 659421, Note_off_c, 0, 61, 58
1, 659454, Control_c, 0, 67, 72
1, 659495, Note_off_c, 0, 68, 33
1, 659514, Control_c, 0, 67, 71
1, 659525, Note_on_c, 0, 46, 58
1, 659527, Note_off_c, 0, 56, 55
1, 659527, Note_off_c, 0, 65, 35
1, 659528, Note_on_c, 0, 60, 57
1, 659567, Note_off_c, 0, 60, 62
1, 659573, Control_c, 0, 67, 71
1, 659604, Note_off_c, 0, 46, 47
1, 659657, Note_on_c, 0, 56, 60
1, 659662, Control_c, 0, 67, 70
1, 659663, Note_on_c, 0, 64, 58
1, 659665, Note_on_c, 0, 68, 75
1, 659682, Note_off_c, 0, 70, 45
1, 659683, Note_on_c, 0, 60, 53
1, 659737, Note_off_c, 0, 60, 60
1, 659779, Note_off_c, 0, 64, 61
1, 659788, Note_off_c, 0, 56, 58
1, 659803, Note_on_c, 0, 59, 76
1, 659809, Note_on_c, 0, 46, 56
1, 659839, Note_off_c, 0, 46, 64
1, 659856, Note_off_c, 0, 59, 61
1, 659896, Note_off_c, 0, 68, 61
1, 659906, Control_c, 0, 67, 71
1, 659921, Control_c, 0, 67, 71
1, 659936, Control_c, 0, 67, 72
1, 659949, Note_on_c, 0, 39, 72
1, 659966, Control_c, 0, 64, 70
1, 659980, Control_c, 0, 64, 0
1, 659980, Control_c, 0, 67, 72
1, 659984, Note_on_c, 0, 75, 86
1, 659995, Control_c, 0, 67, 75
1, 660010, Control_c, 0, 67, 80
1, 660025, Control_c, 0, 64, 45
1, 660025, Control_c, 0, 67, 87
1, 660041, Control_c, 0, 64, 66
1, 660041, Control_c, 0, 67, 91
1, 660056, Control_c, 0, 64, 82
1, 660056, Control_c, 0, 67, 94
1, 660071, Control_c, 0, 64, 107
1, 660071, Control_c, 0, 67, 95
1, 660085, Control_c, 0, 64, 127
1, 660085, Control_c, 0, 67, 97
1, 660089, Note_off_c, 0, 75, 61
1, 660115, Control_c, 0, 67, 101
1, 660168, Note_on_c, 0, 46, 62
1, 660178, Note_off_c, 0, 39, 57
1, 660190, Note_on_c, 0, 58, 59
1, 660298, Note_off_c, 0, 46, 27
1, 660310, Note_off_c, 0, 58, 37
1, 660332, Note_on_c, 0, 57, 64
1, 660348, Note_on_c, 0, 70, 75
1, 660357, Note_on_c, 0, 67, 63
1, 660369, Note_on_c, 0, 63, 53
1, 660408, Note_off_c, 0, 63, 63
1, 660438, Note_off_c, 0, 57, 58
1, 660465, Note_off_c, 0, 67, 62
1, 660500, Note_on_c, 0, 46, 54
1, 660512, Note_on_c, 0, 56, 70
1, 660550, Note_off_c, 0, 56, 57
1, 660573, Note_off_c, 0, 46, 57
1, 660648, Note_on_c, 0, 56, 66
1, 660652, Note_on_c, 0, 63, 67
1, 660686, Note_on_c, 0, 60, 41
1, 660689, Note_off_c, 0, 70, 58
1, 660698, Note_off_c, 0, 56, 47
1, 660783, Note_on_c, 0, 46, 56
1, 660794, Note_off_c, 0, 60, 56
1, 660799, Note_on_c, 0, 55, 65
1, 660809, Note_off_c, 0, 63, 58
1, 660923, Control_c, 0, 67, 103
1, 660942, Note_off_c, 0, 55, 37
1, 660968, Note_on_c, 0, 39, 63
1, 660982, Control_c, 0, 64, 97
1, 660982, Control_c, 0, 67, 106
1, 660997, Control_c, 0, 64, 62
1, 660997, Control_c, 0, 67, 111
1, 661001, Note_on_c, 0, 72, 80
1, 661002, Note_off_c, 0, 46, 39
1, 661012, Control_c, 0, 64, 0
1, 661012, Control_c, 0, 67, 117
1, 661026, Control_c, 0, 67, 123
1, 661041, Control_c, 0, 64, 36
1, 661041, Control_c, 0, 67, 127
1, 661056, Control_c, 0, 64, 64
1, 661071, Control_c, 0, 64, 84
1, 661086, Control_c, 0, 64, 127
1, 661092, Note_off_c, 0, 72, 55
1, 661217, Note_on_c, 0, 55, 58
1, 661227, Note_on_c, 0, 46, 49
1, 661230, Note_off_c, 0, 39, 55
1, 661265, Note_off_c, 0, 55, 55
1, 661386, Note_off_c, 0, 46, 35
1, 661390, Note_on_c, 0, 69, 69
1, 661393, Note_on_c, 0, 55, 55
1, 661399, Note_on_c, 0, 60, 51
1, 661417, Note_on_c, 0, 63, 35
1, 661432, Note_off_c, 0, 60, 60
1, 661453, Note_off_c, 0, 63, 50
1, 661523, Note_off_c, 0, 55, 53
1, 661579, Note_on_c, 0, 46, 50
1, 661579, Note_on_c, 0, 54, 61
1, 661649, Note_off_c, 0, 54, 52
1, 661789, Note_off_c, 0, 46, 57
1, 661790, Note_on_c, 0, 54, 49
1, 661790, Note_on_c, 0, 62, 61
1, 661791, Control_c, 0, 64, 105
1, 661797, Note_on_c, 0, 58, 57
1, 661806, Control_c, 0, 64, 78
1, 661815, Note_off_c, 0, 69, 33
1, 661821, Control_c, 0, 64, 69
1, 661836, Control_c, 0, 64, 68
1, 661850, Control_c, 0, 64, 71
1, 661865, Control_c, 0, 64, 76
1, 661880, Control_c, 0, 64, 79
1, 661895, Control_c, 0, 64, 81
1, 661913, Note_off_c, 0, 58, 57
1, 661924, Note_off_c, 0, 62, 60
1, 661932, Note_on_c, 0, 55, 49
1, 662020, Note_on_c, 0, 70, 80
1, 662026, Note_on_c, 0, 46, 50
1, 662044, Note_off_c, 0, 54, 37
1, 662065, Control_c, 0, 64, 81
1, 662098, Note_off_c, 0, 70, 59
1, 662154, Control_c, 0, 64, 82
1, 662272, Control_c, 0, 64, 80
1, 662277, Note_on_c, 0, 39, 48
1, 662287, Control_c, 0, 64, 72
1, 662301, Control_c, 0, 64, 60
1, 662304, Note_off_c, 0, 55, 30
1, 662310, Note_off_c, 0, 46, 45
1, 662311, Note_on_c, 0, 70, 61
1, 662316, Control_c, 0, 64, 0
1, 662375, Control_c, 0, 64, 45
1, 662390, Control_c, 0, 64, 63
1, 662405, Control_c, 0, 64, 74
1, 662421, Control_c, 0, 64, 80
1, 662436, Control_c, 0, 64, 80
1, 662530, Note_off_c, 0, 70, 62
1, 662590, Note_on_c, 0, 46, 50
1, 662608, Note_on_c, 0, 55, 59
1, 662642, Control_c, 0, 64, 81
1, 662655, Note_off_c, 0, 39, 50
1, 662665, Note_off_c, 0, 55, 49
1, 662686, Control_c, 0, 64, 81
1, 662709, Control_c, 0, 64, 82
1, 662724, Control_c, 0, 64, 83
1, 662738, Control_c, 0, 64, 84
1, 662753, Control_c, 0, 64, 86
1, 662768, Control_c, 0, 64, 88
1, 662783, Control_c, 0, 64, 90
1, 662798, Control_c, 0, 64, 92
1, 662812, Control_c, 0, 64, 94
1, 662827, Control_c, 0, 64, 97
1, 662842, Control_c, 0, 64, 100
1, 662857, Control_c, 0, 64, 106
1, 662872, Control_c, 0, 64, 110
1, 662881, Note_on_c, 0, 53, 47
1, 662916, Control_c, 0, 64, 89
1, 662930, Control_c, 0, 64, 71
1, 662939, Note_on_c, 0, 56, 56
1, 662940, Note_on_c, 0, 63, 53
1, 662945, Control_c, 0, 64, 56
1, 662960, Control_c, 0, 64, 36
1, 662962, Note_off_c, 0, 46, 35
1, 662975, Control_c, 0, 64, 36
1, 662990, Control_c, 0, 64, 48
1, 663004, Control_c, 0, 64, 62
1, 663019, Control_c, 0, 64, 70
1, 663034, Control_c, 0, 64, 75
1, 663049, Control_c, 0, 64, 79
1, 663064, Control_c, 0, 64, 80
1, 663079, Control_c, 0, 64, 81
1, 663093, Control_c, 0, 64, 82
1, 663108, Control_c, 0, 64, 83
1, 663123, Control_c, 0, 64, 85
1, 663138, Control_c, 0, 64, 88
1, 663153, Control_c, 0, 64, 91
1, 663168, Control_c, 0, 64, 94
1, 663183, Control_c, 0, 64, 98
1, 663197, Control_c, 0, 64, 102
1, 663198, Note_off_c, 0, 56, 35
1, 663207, Note_off_c, 0, 53, 31
1, 663212, Control_c, 0, 64, 104
1, 663237, Note_on_c, 0, 47, 45
1, 663243, Note_on_c, 0, 52, 52
1, 663257, Control_c, 0, 64, 89
1, 663272, Control_c, 0, 64, 73
1, 663287, Control_c, 0, 64, 59
1, 663302, Control_c, 0, 64, 49
1, 663317, Control_c, 0, 64, 55
1, 663332, Control_c, 0, 64, 64
1, 663346, Control_c, 0, 64, 72
1, 663361, Control_c, 0, 64, 81
1, 663376, Control_c, 0, 64, 84
1, 663392, Note_off_c, 0, 52, 32
1, 663420, Control_c, 0, 64, 85
1, 663435, Control_c, 0, 64, 85
1, 663457, Control_c, 0, 64, 86
1, 663472, Control_c, 0, 64, 86
1, 663502, Control_c, 0, 64, 88
1, 663517, Control_c, 0, 64, 90
1, 663532, Control_c, 0, 64, 92
1, 663546, Control_c, 0, 64, 94
1, 663606, Control_c, 0, 64, 85
1, 663611, Note_on_c, 0, 55, 42
1, 663621, Control_c, 0, 64, 73
1, 663627, Note_off_c, 0, 47, 33
1, 663633, Note_on_c, 0, 52, 33
1, 663635, Control_c, 0, 64, 62
1, 663650, Control_c, 0, 64, 49
1, 663665, Control_c, 0, 64, 44
1, 663679, Control_c, 0, 64, 53
1, 663694, Control_c, 0, 64, 65
1, 663709, Control_c, 0, 64, 75
1, 663724, Control_c, 0, 64, 84
1, 663739, Control_c, 0, 64, 87
1, 664125, Control_c, 0, 64, 86
1, 664140, Control_c, 0, 64, 82
1, 664155, Control_c, 0, 64, 76
1, 664169, Control_c, 0, 64, 67
1, 664170, Note_on_c, 0, 46, 28
1, 664170, Note_on_c, 0, 51, 41
1, 664177, Note_off_c, 0, 52, 38
1, 664184, Control_c, 0, 64, 59
1, 664206, Control_c, 0, 64, 48
1, 664221, Control_c, 0, 64, 46
1, 664236, Control_c, 0, 64, 51
1, 664250, Control_c, 0, 64, 59
1, 664265, Control_c, 0, 64, 67
1, 664280, Control_c, 0, 64, 75
1, 664295, Control_c, 0, 64, 85
1, 664310, Control_c, 0, 64, 91
1, 664325, Control_c, 0, 64, 97
1, 664329, Note_off_c, 0, 63, 37
1, 664340, Control_c, 0, 64, 108
1, 664341, Note_off_c, 0, 51, 53
1, 664354, Control_c, 0, 64, 127
1, 664368, Note_off_c, 0, 55, 39
1, 664399, Note_off_c, 0, 46, 41
1, 664488, Control_c, 0, 67, 120
1, 664502, Control_c, 0, 67, 112
1, 664517, Control_c, 0, 67, 101
1, 664532, Control_c, 0, 67, 84
1, 664547, Control_c, 0, 67, 64
1, 664562, Control_c, 0, 67, 44
1, 664576, Control_c, 0, 67, 25
1, 664591, Control_c, 0, 67, 0
1, 664650, Control_c, 0, 64, 96
1, 664665, Control_c, 0, 64, 60
1, 664680, Control_c, 0, 64, 0
1, 664692, Note_on_c, 0, 31, 87
1, 664695, Note_on_c, 0, 43, 101
1, 664709, Control_c, 0, 64, 52
1, 664709, Control_c, 0, 67, 44
1, 664724, Control_c, 0, 64, 100
1, 664724, Control_c, 0, 67, 89
1, 664734, Note_off_c, 0, 31, 65
1, 664739, Control_c, 0, 64, 127
1, 664739, Control_c, 0, 67, 99
1, 664742, Note_off_c, 0, 43, 66
1, 664754, Control_c, 0, 67, 91
1, 664769, Control_c, 0, 67, 75
1, 664784, Control_c, 0, 67, 38
1, 664799, Control_c, 0, 67, 0
1, 664878, Note_on_c, 0, 77, 81
1, 664880, Note_on_c, 0, 79, 85
1, 664997, Note_off_c, 0, 77, 55
1, 665000, Note_on_c, 0, 91, 98
1, 665023, Note_off_c, 0, 79, 60
1, 665064, Note_off_c, 0, 91, 65
1, 665092, Note_on_c, 0, 66, 100
1, 665097, Note_on_c, 0, 57, 77
1, 665099, Note_on_c, 0, 63, 86
1, 665100, Note_on_c, 0, 54, 79
1, 665106, Note_on_c, 0, 89, 109
1, 665120, Note_on_c, 0, 60, 63
1, 665123, Note_off_c, 0, 54, 70
1, 665132, Control_c, 0, 67, 95
1, 665138, Note_off_c, 0, 66, 61
1, 665139, Note_off_c, 0, 60, 64
1, 665141, Note_off_c, 0, 57, 62
1, 665147, Control_c, 0, 67, 127
1, 665149, Note_off_c, 0, 63, 64
1, 665162, Control_c, 0, 67, 123
1, 665177, Control_c, 0, 67, 116
1, 665191, Note_on_c, 0, 87, 97
1, 665192, Control_c, 0, 67, 107
1, 665207, Control_c, 0, 67, 104
1, 665231, Note_off_c, 0, 89, 61
1, 665258, Note_on_c, 0, 84, 81
1, 665266, Control_c, 0, 67, 102
1, 665291, Note_off_c, 0, 87, 61
1, 665327, Note_on_c, 0, 81, 85
1, 665335, Note_off_c, 0, 84, 61
1, 665355, Note_off_c, 0, 81, 63
1, 665355, Control_c, 0, 67, 99
1, 665370, Control_c, 0, 67, 94
1, 665385, Control_c, 0, 67, 88
1, 665399, Control_c, 0, 67, 86
1, 665400, Note_on_c, 0, 79, 87
1, 665429, Control_c, 0, 67, 83
1, 665443, Control_c, 0, 67, 76
1, 665451, Note_off_c, 0, 79, 60
1, 665457, Note_on_c, 0, 78, 89
1, 665458, Control_c, 0, 67, 60
1, 665473, Control_c, 0, 67, 43
1, 665485, Note_off_c, 0, 78, 65
1, 665488, Control_c, 0, 67, 33
1, 665517, Control_c, 0, 67, 29
1, 665523, Note_on_c, 0, 77, 89
1, 665532, Control_c, 0, 67, 23
1, 665547, Control_c, 0, 67, 0
1, 665586, Note_on_c, 0, 75, 83
1, 665629, Note_off_c, 0, 77, 63
1, 665633, Note_on_c, 0, 72, 80
1, 665661, Note_off_c, 0, 75, 64
1, 665701, Note_on_c, 0, 69, 85
1, 665702, Note_off_c, 0, 72, 61
1, 665737, Note_off_c, 0, 69, 63
1, 665752, Note_on_c, 0, 67, 72
1, 665797, Note_on_c, 0, 66, 88
1, 665806, Note_off_c, 0, 67, 64
1, 665818, Note_off_c, 0, 66, 67
1, 665869, Note_on_c, 0, 65, 84
1, 665923, Note_on_c, 0, 63, 81
1, 665961, Note_on_c, 0, 60, 82
1, 665964, Note_off_c, 0, 65, 63
1, 666000, Note_off_c, 0, 63, 61
1, 666030, Note_off_c, 0, 60, 64
1, 666033, Note_on_c, 0, 55, 51
1, 666051, Note_on_c, 0, 57, 33
1, 666056, Note_off_c, 0, 55, 62
1, 666086, Note_off_c, 0, 57, 52
1, 666089, Control_c, 0, 64, 80
1, 666098, Note_on_c, 0, 43, 102
1, 666104, Control_c, 0, 64, 0
1, 666104, Control_c, 0, 67, 47
1, 666106, Note_on_c, 0, 64, 88
1, 666110, Note_on_c, 0, 52, 89
1, 666111, Note_on_c, 0, 35, 78
1, 666111, Note_on_c, 0, 36, 71
1, 666117, Note_on_c, 0, 60, 81
1, 666119, Control_c, 0, 67, 70
1, 666119, Note_off_c, 0, 43, 73
1, 666132, Note_off_c, 0, 52, 69
1, 666134, Note_off_c, 0, 35, 63
1, 666134, Control_c, 0, 67, 61
1, 666139, Note_off_c, 0, 64, 63
1, 666140, Note_off_c, 0, 36, 65
1, 666140, Note_off_c, 0, 60, 72
1, 666148, Control_c, 0, 67, 56
1, 666163, Control_c, 0, 67, 43
1, 666178, Control_c, 0, 67, 26
1, 666192, Control_c, 0, 67, 21
1, 666222, Control_c, 0, 67, 0
1, 666555, Note_on_c, 0, 43, 84
1, 666558, Note_on_c, 0, 36, 76
1, 666560, Note_on_c, 0, 64, 85
1, 666561, Note_on_c, 0, 52, 85
1, 666566, Note_on_c, 0, 60, 77
1, 666580, Note_off_c, 0, 43, 69
1, 666581, Note_off_c, 0, 36, 66
1, 666584, Note_off_c, 0, 52, 69
1, 666590, Note_off_c, 0, 64, 67
1, 666590, Note_off_c, 0, 60, 71
1, 667028, Note_on_c, 0, 43, 77
1, 667029, Note_on_c, 0, 36, 70
1, 667031, Note_on_c, 0, 52, 76
1, 667033, Note_on_c, 0, 64, 71
1, 667039, Note_on_c, 0, 60, 60
1, 667054, Note_off_c, 0, 43, 66
1, 667057, Note_off_c, 0, 52, 67
1, 667060, Note_off_c, 0, 64, 66
1, 667061, Note_off_c, 0, 60, 65
1, 667061, Note_off_c, 0, 36, 61
1, 667117, Note_on_c, 0, 43, 79
1, 667128, Note_on_c, 0, 36, 74
1, 667128, Note_on_c, 0, 52, 75
1, 667128, Note_on_c, 0, 60, 77
1, 667139, Note_on_c, 0, 64, 66
1, 667151, Note_off_c, 0, 43, 67
1, 667153, Note_off_c, 0, 52, 68
1, 667153, Note_off_c, 0, 60, 69
1, 667154, Note_off_c, 0, 36, 63
1, 667165, Note_off_c, 0, 64, 64
1, 667226, Note_on_c, 0, 64, 88
1, 667227, Note_on_c, 0, 36, 86
1, 667227, Note_on_c, 0, 43, 91
1, 667228, Note_on_c, 0, 52, 90
1, 667232, Note_on_c, 0, 60, 78
1, 667247, Note_off_c, 0, 52, 71
1, 667249, Note_off_c, 0, 43, 68
1, 667253, Note_off_c, 0, 60, 72
1, 667254, Note_off_c, 0, 36, 69
1, 667267, Note_off_c, 0, 64, 62
1, 667440, Control_c, 0, 67, 76
1, 667444, Note_on_c, 0, 43, 94
1, 667451, Note_on_c, 0, 41, 86
1, 667452, Note_on_c, 0, 31, 83
1, 667454, Note_on_c, 0, 29, 82
1, 667454, Control_c, 0, 64, 127
1, 667454, Control_c, 0, 67, 127
1, 667466, Note_off_c, 0, 43, 72
1, 667468, Note_off_c, 0, 41, 64
1, 667475, Note_off_c, 0, 31, 65
1, 667481, Note_off_c, 0, 29, 66
1, 667544, Note_on_c, 0, 79, 88
1, 667604, Note_off_c, 0, 79, 63
1, 667623, Note_on_c, 0, 91, 93
1, 667646, Control_c, 0, 67, 98
1, 667661, Control_c, 0, 67, 37
1, 667666, Note_off_c, 0, 91, 66
1, 667676, Control_c, 0, 67, 0
1, 667698, Note_on_c, 0, 54, 73
1, 667705, Note_on_c, 0, 66, 98
1, 667705, Note_on_c, 0, 63, 82
1, 667705, Note_on_c, 0, 89, 94
1, 667717, Note_on_c, 0, 57, 72
1, 667719, Note_on_c, 0, 60, 70
1, 667720, Control_c, 0, 67, 31
1, 667724, Poly_aftertouch_c, 0, 58, 127
1, 667735, Control_c, 0, 67, 48
1, 667742, Note_off_c, 0, 57, 69
1, 667744, Note_off_c, 0, 54, 64
1, 667744, Note_off_c, 0, 60, 68
1, 667746, Note_off_c, 0, 66, 63
1, 667750, Control_c, 0, 67, 49
1, 667753, Note_off_c, 0, 63, 63
1, 667762, Poly_aftertouch_c, 0, 58, 0
1, 667765, Control_c, 0, 67, 48
1, 667768, Note_on_c, 0, 87, 92
1, 667780, Control_c, 0, 67, 47
1, 667809, Control_c, 0, 67, 49
1, 667814, Note_off_c, 0, 89, 65
1, 667823, Note_on_c, 0, 84, 81
1, 667824, Control_c, 0, 67, 52
1, 667839, Control_c, 0, 67, 52
1, 667851, Note_off_c, 0, 87, 65
1, 667854, Control_c, 0, 67, 51
1, 667869, Control_c, 0, 67, 49
1, 667874, Note_on_c, 0, 81, 90
1, 667884, Control_c, 0, 67, 49
1, 667885, Note_off_c, 0, 84, 63
1, 667899, Control_c, 0, 67, 48
1, 667909, Note_off_c, 0, 81, 66
1, 667913, Control_c, 0, 67, 48
1, 667950, Note_on_c, 0, 79, 85
1, 667965, Control_c, 0, 67, 47
1, 667980, Control_c, 0, 67, 47
1, 668009, Control_c, 0, 67, 46
1, 668011, Note_off_c, 0, 79, 61
1, 668019, Note_on_c, 0, 78, 84
1, 668055, Control_c, 0, 67, 46
1, 668059, Note_off_c, 0, 78, 68
1, 668066, Note_on_c, 0, 77, 60
1, 668069, Control_c, 0, 67, 45
1, 668092, Note_off_c, 0, 77, 57
1, 668106, Note_on_c, 0, 74, 78
1, 668128, Note_off_c, 0, 74, 70
1, 668129, Control_c, 0, 67, 44
1, 668143, Control_c, 0, 67, 44
1, 668158, Control_c, 0, 67, 43
1, 668175, Note_on_c, 0, 67, 79
1, 668234, Note_off_c, 0, 67, 62
1, 668247, Note_on_c, 0, 65, 70
1, 668262, Control_c, 0, 67, 42
1, 668277, Control_c, 0, 67, 41
1, 668280, Poly_aftertouch_c, 0, 69, 0
1, 668283, Note_off_c, 0, 65, 0
1, 668292, Control_c, 0, 67, 39
1, 668307, Control_c, 0, 67, 36
1, 668320, Poly_aftertouch_c, 0, 65, 127
1, 668322, Control_c, 0, 67, 35
1, 668351, Control_c, 0, 67, 33
1, 668361, Note_on_c, 0, 63, 88
1, 668366, Control_c, 0, 67, 21
1, 668381, Control_c, 0, 67, 0
1, 668386, Note_on_c, 0, 60, 73
1, 668387, Poly_aftertouch_c, 0, 65, 0
1, 668423, Note_off_c, 0, 63, 61
1, 668439, Note_on_c, 0, 57, 85
1, 668452, Note_off_c, 0, 60, 65
1, 668477, Note_off_c, 0, 57, 61
1, 668481, Note_on_c, 0, 55, 88
1, 668523, Note_off_c, 0, 55, 64
1, 668546, Note_on_c, 0, 54, 65
1, 668546, Note_off_c, 0, 54, 127
1, 668572, Note_on_c, 0, 53, 41
1, 668600, Note_off_c, 0, 53, 56
1, 668612, Note_on_c, 0, 51, 86
1, 668635, Note_off_c, 0, 51, 68
1, 668659, Note_on_c, 0, 43, 98
1, 668666, Note_on_c, 0, 36, 84
1, 668674, Note_on_c, 0, 63, 90
1, 668676, Control_c, 0, 67, 67
1, 668677, Note_on_c, 0, 51, 85
1, 668679, Note_on_c, 0, 60, 80
1, 668691, Note_off_c, 0, 43, 69
1, 668698, Control_c, 0, 64, 67
1, 668698, Control_c, 0, 67, 127
1, 668700, Note_off_c, 0, 36, 67
1, 668713, Control_c, 0, 64, 0
1, 668733, Note_off_c, 0, 51, 65
1, 668736, Note_off_c, 0, 63, 62
1, 668743, Note_off_c, 0, 60, 64
1, 668745, Note_on_c, 0, 61, 13
1, 668745, Note_off_c, 0, 61, 127
1, 668818, Control_c, 0, 67, 120
1, 668833, Control_c, 0, 67, 116
1, 668847, Control_c, 0, 67, 113
1, 668862, Control_c, 0, 67, 108
1, 668877, Control_c, 0, 67, 91
1, 668891, Control_c, 0, 67, 62
1, 668906, Control_c, 0, 67, 24
1, 668921, Control_c, 0, 67, 0
1, 669058, Note_on_c, 0, 42, 84
1, 669061, Note_on_c, 0, 36, 75
1, 669067, Note_on_c, 0, 67, 68
1, 669067, Note_on_c, 0, 55, 75
1, 669076, Note_on_c, 0, 60, 62
1, 669080, Note_on_c, 0, 63, 64
1, 669091, Note_off_c, 0, 55, 69
1, 669091, Note_off_c, 0, 67, 67
1, 669095, Note_off_c, 0, 42, 64
1, 669097, Note_off_c, 0, 36, 63
1, 669106, Note_off_c, 0, 60, 68
1, 669108, Note_off_c, 0, 63, 66
1, 669158, Control_c, 0, 64, 36
1, 669158, Control_c, 0, 67, 25
1, 669166, Note_on_c, 0, 43, 98
1, 669171, Note_on_c, 0, 36, 92
1, 669171, Note_on_c, 0, 63, 84
1, 669172, Note_on_c, 0, 51, 93
1, 669173, Control_c, 0, 64, 0
1, 669173, Control_c, 0, 67, 0
1, 669178, Note_on_c, 0, 60, 88
1, 669189, Note_off_c, 0, 43, 71
1, 669195, Note_off_c, 0, 36, 66
1, 669207, Note_off_c, 0, 60, 65
1, 669213, Note_off_c, 0, 51, 62
1, 669256, Note_off_c, 0, 63, 58
1, 669548, Note_on_c, 0, 36, 79
1, 669549, Note_on_c, 0, 42, 92
1, 669551, Note_on_c, 0, 63, 86
1, 669554, Note_on_c, 0, 55, 76
1, 669556, Note_on_c, 0, 60, 77
1, 669559, Note_on_c, 0, 67, 68
1, 669576, Note_on_c, 0, 53, 48
1, 669578, Note_off_c, 0, 55, 69
1, 669583, Note_off_c, 0, 67, 65
1, 669592, Note_off_c, 0, 42, 65
1, 669595, Note_off_c, 0, 60, 67
1, 669596, Note_off_c, 0, 63, 65
1, 669601, Note_off_c, 0, 36, 62
1, 669605, Note_off_c, 0, 53, 36
1, 669656, Note_on_c, 0, 43, 99
1, 669665, Note_on_c, 0, 51, 97
1, 669668, Note_on_c, 0, 63, 89
1, 669671, Note_on_c, 0, 36, 76
1, 669675, Note_on_c, 0, 60, 78
1, 669684, Note_off_c, 0, 43, 67
1, 669701, Note_off_c, 0, 36, 63
1, 669711, Note_off_c, 0, 51, 65
1, 669738, Note_off_c, 0, 60, 63
1, 669751, Note_off_c, 0, 63, 62
1, 670039, Note_on_c, 0, 43, 96
1, 670045, Note_on_c, 0, 55, 85
1, 670047, Note_on_c, 0, 67, 77
1, 670049, Note_on_c, 0, 29, 78
1, 670054, Note_on_c, 0, 60, 81
1, 670055, Note_on_c, 0, 31, 66
1, 670057, Note_on_c, 0, 63, 76
1, 670063, Note_off_c, 0, 43, 71
1, 670074, Note_off_c, 0, 29, 65
1, 670083, Note_off_c, 0, 31, 60
1, 670083, Note_off_c, 0, 55, 63
1, 670086, Note_off_c, 0, 67, 64
1, 670097, Note_off_c, 0, 60, 64
1, 670099, Note_off_c, 0, 63, 59
1, 670196, Note_on_c, 0, 51, 94
1, 670197, Note_on_c, 0, 59, 77
1, 670197, Note_on_c, 0, 44, 109
1, 670200, Note_on_c, 0, 63, 95
1, 670203, Note_on_c, 0, 32, 94
1, 670212, Control_c, 0, 64, 100
1, 670212, Control_c, 0, 67, 66
1, 670218, Note_off_c, 0, 44, 71
1, 670221, Note_off_c, 0, 51, 68
1, 670224, Note_off_c, 0, 32, 66
1, 670227, Control_c, 0, 64, 127
1, 670227, Control_c, 0, 67, 74
1, 670234, Note_off_c, 0, 59, 61
1, 670241, Control_c, 0, 67, 75
1, 670252, Note_off_c, 0, 63, 62
1, 670256, Control_c, 0, 67, 77
1, 670271, Control_c, 0, 67, 84
1, 670286, Control_c, 0, 67, 92
1, 670301, Control_c, 0, 67, 94
1, 670315, Control_c, 0, 67, 91
1, 670330, Control_c, 0, 67, 90
1, 670345, Control_c, 0, 67, 89
1, 670373, Poly_aftertouch_c, 0, 32, 0
1, 670374, Control_c, 0, 67, 88
1, 670389, Control_c, 0, 67, 80
1, 670397, Poly_aftertouch_c, 0, 73, 127
1, 670404, Control_c, 0, 67, 54
1, 670420, Control_c, 0, 67, 0
1, 670435, Control_c, 0, 64, 79
1, 670438, Poly_aftertouch_c, 0, 73, 0
1, 670450, Control_c, 0, 64, 43
1, 670450, Control_c, 0, 67, 21
1, 670456, Note_on_c, 0, 51, 79
1, 670459, Note_on_c, 0, 71, 79
1, 670459, Note_on_c, 0, 68, 99
1, 670460, Note_on_c, 0, 63, 85
1, 670462, Note_on_c, 0, 75, 89
1, 670462, Note_on_c, 0, 59, 67
1, 670464, Control_c, 0, 64, 0
1, 670464, Control_c, 0, 67, 36
1, 670477, Note_on_c, 0, 56, 50
1, 670479, Control_c, 0, 64, 65
1, 670479, Control_c, 0, 67, 43
1, 670488, Poly_aftertouch_c, 0, 58, 127
1, 670492, Note_off_c, 0, 59, 58
1, 670494, Control_c, 0, 64, 127
1, 670494, Control_c, 0, 67, 37
1, 670507, Note_off_c, 0, 63, 65
1, 670509, Control_c, 0, 67, 33
1, 670512, Note_off_c, 0, 51, 62
1, 670524, Control_c, 0, 67, 30
1, 670534, Poly_aftertouch_c, 0, 58, 0
1, 670538, Control_c, 0, 67, 26
1, 670544, Note_off_c, 0, 56, 39
1, 670553, Control_c, 0, 67, 23
1, 670568, Control_c, 0, 67, 29
1, 670573, Note_off_c, 0, 75, 61
1, 670577, Poly_aftertouch_c, 0, 55, 0
1, 670580, Note_on_c, 0, 62, 93
1, 670583, Note_off_c, 0, 68, 60
1, 670583, Control_c, 0, 67, 32
1, 670587, Note_on_c, 0, 50, 78
1, 670587, Note_off_c, 0, 71, 59
1, 670598, Control_c, 0, 67, 25
1, 670612, Control_c, 0, 67, 21
1, 670617, Note_off_c, 0, 50, 65
1, 670617, Note_off_c, 0, 62, 62
1, 670627, Control_c, 0, 64, 82
1, 670627, Control_c, 0, 67, 0
1, 670642, Control_c, 0, 64, 0
1, 670699, Note_on_c, 0, 61, 85
1, 670713, Note_on_c, 0, 49, 69
1, 670726, Note_off_c, 0, 61, 64
1, 670737, Note_off_c, 0, 49, 66
1, 670807, Note_on_c, 0, 63, 88
1, 670817, Note_on_c, 0, 60, 85
1, 670832, Note_on_c, 0, 47, 56
1, 670833, Note_on_c, 0, 56, 46
1, 670838, Note_off_c, 0, 63, 64
1, 670842, Note_off_c, 0, 60, 68
1, 670853, Note_off_c, 0, 47, 61
1, 670855, Note_on_c, 0, 48, 39
1, 670859, Note_off_c, 0, 56, 37
1, 670894, Note_off_c, 0, 48, 33
1, 670939, Note_on_c, 0, 59, 83
1, 670940, Note_on_c, 0, 47, 86
1, 670944, Note_on_c, 0, 56, 86
1, 670945, Control_c, 0, 67, 28
1, 670949, Note_on_c, 0, 63, 87
1, 670960, Control_c, 0, 64, 127
1, 670960, Control_c, 0, 67, 34
1, 670963, Note_off_c, 0, 56, 72
1, 670969, Note_off_c, 0, 63, 71
1, 670972, Note_off_c, 0, 59, 67
1, 670975, Control_c, 0, 67, 23
1, 670985, Note_off_c, 0, 47, 62
1, 670990, Control_c, 0, 67, 0
1, 671053, Note_on_c, 0, 51, 85
1, 671076, Note_off_c, 0, 51, 70
1, 671094, Control_c, 0, 64, 86
1, 671109, Control_c, 0, 64, 55
1, 671124, Control_c, 0, 64, 0
1, 671184, Note_on_c, 0, 50, 99
1, 671190, Note_on_c, 0, 38, 92
1, 671217, Note_off_c, 0, 38, 71
1, 671217, Note_off_c, 0, 50, 65
1, 671329, Note_on_c, 0, 51, 96
1, 671336, Note_on_c, 0, 49, 90
1, 671337, Note_on_c, 0, 44, 85
1, 671339, Note_on_c, 0, 37, 85
1, 671360, Note_off_c, 0, 44, 67
1, 671362, Note_off_c, 0, 49, 68
1, 671364, Note_off_c, 0, 37, 65
1, 671366, Note_off_c, 0, 51, 59
1, 671480, Control_c, 0, 64, 51
1, 671489, Note_on_c, 0, 47, 96
1, 671491, Note_on_c, 0, 35, 95
1, 671493, Note_on_c, 0, 51, 86
1, 671494, Control_c, 0, 64, 127
1, 671494, Control_c, 0, 67, 63
1, 671496, Note_on_c, 0, 44, 77
1, 671509, Control_c, 0, 67, 83
1, 671514, Note_on_c, 0, 52, 62
1, 671517, Note_off_c, 0, 44, 64
1, 671524, Note_off_c, 0, 47, 68
1, 671524, Control_c, 0, 67, 55
1, 671530, Note_off_c, 0, 51, 61
1, 671538, Note_off_c, 0, 52, 60
1, 671539, Note_off_c, 0, 35, 59
1, 671539, Control_c, 0, 67, 0
1, 671559, Poly_aftertouch_c, 0, 37, 0
1, 671589, Poly_aftertouch_c, 0, 37, 0
1, 671613, Control_c, 0, 64, 95
1, 671628, Control_c, 0, 64, 54
1, 671638, Note_on_c, 0, 39, 87
1, 671643, Control_c, 0, 64, 0
1, 671664, Note_off_c, 0, 39, 70
1, 671827, Note_on_c, 0, 35, 102
1, 671828, Control_c, 0, 64, 74
1, 671828, Control_c, 0, 67, 76
1, 671831, Note_on_c, 0, 23, 101
1, 671835, Note_on_c, 0, 47, 100
1, 671836, Note_on_c, 0, 59, 106
1, 671842, Control_c, 0, 64, 127
1, 671842, Control_c, 0, 67, 109
1, 671849, Note_off_c, 0, 35, 70
1, 671856, Note_off_c, 0, 47, 70
1, 671857, Control_c, 0, 67, 97
1, 671858, Note_off_c, 0, 23, 68
1, 671862, Note_off_c, 0, 59, 66
1, 671872, Control_c, 0, 67, 84
1, 671887, Control_c, 0, 67, 58
1, 671902, Control_c, 0, 67, 32
1, 671931, Control_c, 0, 67, 33
1, 671946, Control_c, 0, 67, 32
1, 671961, Control_c, 0, 67, 30
1, 672072, Note_on_c, 0, 83, 107
1, 672081, Control_c, 0, 67, 27
1, 672110, Control_c, 0, 67, 25
1, 672125, Control_c, 0, 67, 23
1, 672140, Control_c, 0, 67, 0
1, 672218, Note_on_c, 0, 95, 99
1, 672256, Note_off_c, 0, 83, 64
1, 672328, Note_on_c, 0, 55, 89
1, 672328, Note_on_c, 0, 64, 96
1, 672329, Note_on_c, 0, 67, 100
1, 672338, Note_on_c, 0, 58, 85
1, 672340, Note_on_c, 0, 61, 89
1, 672351, Note_on_c, 0, 94, 98
1, 672376, Note_off_c, 0, 67, 68
1, 672379, Note_off_c, 0, 55, 65
1, 672385, Note_off_c, 0, 95, 65
1, 672392, Control_c, 0, 67, 75
1, 672393, Note_off_c, 0, 58, 65
1, 672394, Note_off_c, 0, 64, 65
1, 672402, Note_off_c, 0, 61, 66
1, 672407, Control_c, 0, 67, 98
1, 672422, Control_c, 0, 67, 96
1, 672457, Note_on_c, 0, 91, 96
1, 672491, Note_off_c, 0, 94, 65
1, 672514, Note_off_c, 0, 91, 66
1, 672543, Note_on_c, 0, 88, 72
1, 672548, Control_c, 0, 67, 95
1, 672598, Note_off_c, 0, 88, 65
1, 672609, Note_on_c, 0, 85, 80
1, 672636, Control_c, 0, 67, 95
1, 672651, Control_c, 0, 67, 94
1, 672661, Note_on_c, 0, 82, 86
1, 672662, Poly_aftertouch_c, 0, 86, 0
1, 672666, Control_c, 0, 67, 94
1, 672681, Control_c, 0, 67, 93
1, 672696, Control_c, 0, 67, 92
1, 672710, Control_c, 0, 67, 91
1, 672714, Note_on_c, 0, 79, 87
1, 672719, Note_off_c, 0, 85, 62
1, 672733, Note_off_c, 0, 82, 65
1, 672740, Control_c, 0, 67, 90
1, 672755, Note_off_c, 0, 79, 68
1, 672755, Control_c, 0, 67, 90
1, 672770, Control_c, 0, 67, 89
1, 672784, Control_c, 0, 67, 88
1, 672793, Note_on_c, 0, 76, 79
1, 672799, Control_c, 0, 67, 86
1, 672815, Control_c, 0, 67, 85
1, 672830, Note_on_c, 0, 73, 89
1, 672830, Control_c, 0, 67, 84
1, 672845, Control_c, 0, 67, 83
1, 672859, Control_c, 0, 67, 83
1, 672860, Note_off_c, 0, 76, 62
1, 672871, Note_on_c, 0, 70, 77
1, 672899, Note_off_c, 0, 73, 67
1, 672921, Note_off_c, 0, 70, 67
1, 672922, Note_on_c, 0, 67, 78
1, 672948, Control_c, 0, 67, 82
1, 672963, Control_c, 0, 67, 79
1, 672976, Note_on_c, 0, 66, 72
1, 672978, Control_c, 0, 67, 70
1, 672979, Note_off_c, 0, 67, 67
1, 672992, Control_c, 0, 67, 55
1, 673002, Note_off_c, 0, 66, 66
1, 673007, Control_c, 0, 67, 33
1, 673022, Control_c, 0, 67, 0
1, 673026, Note_on_c, 0, 64, 73
1, 673074, Note_off_c, 0, 64, 64
1, 673094, Note_on_c, 0, 61, 78
1, 673139, Note_on_c, 0, 62, 38
1, 673158, Note_off_c, 0, 61, 58
1, 673166, Note_on_c, 0, 59, 47
1, 673169, Note_off_c, 0, 62, 52
1, 673193, Note_off_c, 0, 59, 64
1, 673208, Note_on_c, 0, 57, 74
1, 673241, Poly_aftertouch_c, 0, 60, 127
1, 673243, Note_off_c, 0, 57, 62
1, 673272, Poly_aftertouch_c, 0, 60, 0
1, 673282, Note_on_c, 0, 54, 86
1, 673311, Control_c, 0, 64, 109
1, 673326, Control_c, 0, 64, 60
1, 673337, Note_off_c, 0, 54, 65
1, 673340, Note_on_c, 0, 53, 73
1, 673340, Control_c, 0, 64, 0
1, 673342, Note_on_c, 0, 52, 70
1, 673370, Control_c, 0, 64, 54
1, 673372, Note_off_c, 0, 52, 65
1, 673381, Note_off_c, 0, 53, 62
1, 673384, Control_c, 0, 64, 104
1, 673395, Note_on_c, 0, 40, 105
1, 673398, Note_on_c, 0, 28, 99
1, 673399, Control_c, 0, 64, 127
1, 673399, Control_c, 0, 67, 61
1, 673414, Control_c, 0, 67, 78
1, 673422, Note_off_c, 0, 40, 67
1, 673422, Note_off_c, 0, 28, 69
1, 673429, Control_c, 0, 67, 69
1, 673444, Control_c, 0, 67, 67
1, 673458, Control_c, 0, 67, 64
1, 673503, Control_c, 0, 67, 63
1, 673518, Control_c, 0, 67, 61
1, 673533, Control_c, 0, 67, 58
1, 673548, Control_c, 0, 67, 56
1, 673562, Control_c, 0, 67, 55
1, 673577, Control_c, 0, 67, 54
1, 673592, Note_on_c, 0, 48, 84
1, 673592, Control_c, 0, 67, 53
1, 673599, Note_on_c, 0, 76, 101
1, 673607, Control_c, 0, 67, 51
1, 673622, Control_c, 0, 67, 45
1, 673637, Control_c, 0, 67, 32
1, 673652, Control_c, 0, 67, 0
1, 673747, Note_on_c, 0, 57, 95
1, 673752, Note_on_c, 0, 60, 90
1, 673755, Note_on_c, 0, 52, 82
1, 673786, Control_c, 0, 64, 83
1, 673800, Note_on_c, 0, 81, 89
1, 673800, Note_on_c, 0, 72, 99
1, 673800, Control_c, 0, 64, 41
1, 673801, Note_on_c, 0, 84, 101
1, 673802, Note_off_c, 0, 48, 62
1, 673815, Control_c, 0, 64, 0
1, 673837, Note_off_c, 0, 60, 55
1, 673860, Control_c, 0, 64, 59
1, 673874, Control_c, 0, 64, 77
1, 673889, Control_c, 0, 64, 127
1, 673915, Note_off_c, 0, 57, 62
1, 673920, Note_on_c, 0, 48, 76
1, 673926, Note_off_c, 0, 52, 60
1, 673953, Note_off_c, 0, 84, 60
1, 673956, Note_off_c, 0, 48, 69
1, 673999, Note_off_c, 0, 81, 61
1, 674033, Note_off_c, 0, 76, 56
1, 674048, Note_off_c, 0, 72, 53
1, 674060, Note_on_c, 0, 40, 73
1, 674081, Note_on_c, 0, 38, 58
1, 674111, Note_off_c, 0, 38, 56
1, 674149, Note_on_c, 0, 76, 100
1, 674161, Note_on_c, 0, 28, 87
1, 674188, Note_off_c, 0, 40, 60
1, 674267, Control_c, 0, 64, 102
1, 674279, Note_on_c, 0, 40, 86
1, 674281, Note_off_c, 0, 28, 62
1, 674281, Control_c, 0, 64, 64
1, 674296, Note_on_c, 0, 71, 94
1, 674296, Control_c, 0, 64, 0
1, 674298, Note_on_c, 0, 72, 85
1, 674298, Note_on_c, 0, 79, 84
1, 674299, Note_on_c, 0, 83, 92
1, 674311, Control_c, 0, 64, 45
1, 674314, Note_off_c, 0, 40, 66
1, 674326, Control_c, 0, 64, 66
1, 674340, Control_c, 0, 64, 127
1, 674415, Note_on_c, 0, 48, 90
1, 674478, Note_off_c, 0, 83, 57
1, 674515, Note_off_c, 0, 71, 58
1, 674518, Note_on_c, 0, 60, 85
1, 674521, Note_on_c, 0, 57, 78
1, 674521, Note_off_c, 0, 79, 61
1, 674522, Note_on_c, 0, 52, 77
1, 674522, Note_off_c, 0, 72, 60
1, 674527, Note_off_c, 0, 48, 61
1, 674528, Note_off_c, 0, 76, 56
1, 674557, Note_off_c, 0, 60, 66
1, 674586, Note_off_c, 0, 57, 65
1, 674615, Note_on_c, 0, 48, 87
1, 674628, Note_off_c, 0, 52, 61
1, 674633, Note_on_c, 0, 76, 101
1, 674639, Note_off_c, 0, 48, 70
1, 674705, Control_c, 0, 64, 74
1, 674720, Control_c, 0, 64, 35
1, 674735, Control_c, 0, 64, 0
1, 674744, Note_on_c, 0, 40, 82
1, 674761, Note_on_c, 0, 77, 86
1, 674763, Note_on_c, 0, 72, 89
1, 674764, Note_on_c, 0, 69, 89
1, 674764, Note_on_c, 0, 81, 93
1, 674764, Control_c, 0, 64, 36
1, 674779, Control_c, 0, 64, 63
1, 674794, Control_c, 0, 64, 77
1, 674809, Control_c, 0, 64, 87
1, 674824, Control_c, 0, 64, 100
1, 674838, Control_c, 0, 64, 119
1, 674853, Control_c, 0, 64, 127
1, 674860, Note_on_c, 0, 28, 89
1, 674871, Note_off_c, 0, 76, 58
1, 674887, Note_off_c, 0, 40, 56
1, 674889, Note_off_c, 0, 81, 58
1, 674894, Note_off_c, 0, 72, 60
1, 674912, Note_off_c, 0, 77, 58
1, 674943, Note_off_c, 0, 28, 62
1, 674958, Note_on_c, 0, 40, 77
1, 674992, Note_off_c, 0, 40, 66
1, 675000, Note_off_c, 0, 69, 58
1, 675089, Note_on_c, 0, 48, 88
1, 675091, Note_on_c, 0, 72, 100
1, 675212, Note_on_c, 0, 52, 80
1, 675213, Note_on_c, 0, 60, 85
1, 675214, Note_on_c, 0, 57, 78
1, 675225, Control_c, 0, 64, 75
1, 675231, Note_off_c, 0, 48, 62
1, 675234, Note_on_c, 0, 76, 86
1, 675235, Note_on_c, 0, 69, 90
1, 675237, Note_on_c, 0, 67, 96
1, 675239, Note_on_c, 0, 79, 92
1, 675240, Control_c, 0, 64, 48
1, 675254, Control_c, 0, 64, 0
1, 675267, Note_off_c, 0, 60, 67
1, 675269, Control_c, 0, 64, 51
1, 675284, Control_c, 0, 64, 70
1, 675299, Control_c, 0, 64, 108
1, 675302, Note_off_c, 0, 57, 63
1, 675314, Control_c, 0, 64, 127
1, 675335, Note_on_c, 0, 48, 77
1, 675336, Note_off_c, 0, 52, 63
1, 675359, Note_off_c, 0, 48, 68
1, 675437, Note_on_c, 0, 40, 85
1, 675455, Note_on_c, 0, 41, 59
1, 675458, Note_off_c, 0, 79, 60
1, 675473, Note_off_c, 0, 67, 55
1, 675479, Note_off_c, 0, 41, 59
1, 675482, Note_off_c, 0, 69, 60
1, 675489, Note_off_c, 0, 72, 55
1, 675495, Note_off_c, 0, 76, 61
1, 675555, Note_on_c, 0, 28, 88
1, 675563, Note_on_c, 0, 72, 101
1, 675574, Note_off_c, 0, 40, 46
1, 675617, Control_c, 0, 64, 77
1, 675632, Control_c, 0, 64, 55
1, 675647, Control_c, 0, 64, 46
1, 675655, Note_off_c, 0, 28, 63
1, 675661, Control_c, 0, 64, 63
1, 675673, Note_on_c, 0, 40, 77
1, 675676, Control_c, 0, 64, 95
1, 675685, Note_on_c, 0, 65, 94
1, 675686, Note_on_c, 0, 69, 85
1, 675691, Control_c, 0, 64, 127
1, 675692, Note_on_c, 0, 79, 82
1, 675694, Note_on_c, 0, 77, 83
1, 675694, Note_off_c, 0, 40, 66
1, 675791, Note_on_c, 0, 48, 88
1, 675832, Note_off_c, 0, 79, 55
1, 675841, Note_off_c, 0, 77, 58
1, 675883, Note_off_c, 0, 65, 54
1, 675887, Note_on_c, 0, 57, 77
1, 675887, Note_on_c, 0, 60, 87
1, 675888, Note_off_c, 0, 72, 55
1, 675889, Note_off_c, 0, 69, 59
1, 675899, Note_off_c, 0, 48, 62
1, 675906, Note_on_c, 0, 52, 74
1, 675923, Note_off_c, 0, 60, 68
1, 675963, Note_off_c, 0, 57, 62
1, 675985, Note_on_c, 0, 48, 80
1, 675992, Note_off_c, 0, 52, 62
1, 676007, Note_on_c, 0, 72, 97
1, 676011, Note_off_c, 0, 48, 69
1, 676018, Control_c, 0, 64, 100
1, 676033, Control_c, 0, 64, 66
1, 676048, Control_c, 0, 64, 44
1, 676063, Control_c, 0, 64, 55
1, 676077, Control_c, 0, 64, 69
1, 676092, Control_c, 0, 64, 108
1, 676107, Control_c, 0, 64, 127
1, 676115, Note_on_c, 0, 41, 72
1, 676127, Note_on_c, 0, 76, 92
1, 676129, Note_on_c, 0, 64, 88
1, 676132, Note_on_c, 0, 69, 82
1, 676181, Note_off_c, 0, 72, 57
1, 676195, Note_off_c, 0, 64, 60
1, 676203, Note_off_c, 0, 69, 61
1, 676205, Note_off_c, 0, 41, 61
1, 676209, Note_off_c, 0, 76, 63
1, 676239, Note_on_c, 0, 28, 82
1, 676265, Note_off_c, 0, 28, 64
1, 676277, Control_c, 0, 67, 19
1, 676292, Control_c, 0, 67, 22
1, 676322, Control_c, 0, 67, 25
1, 676336, Control_c, 0, 64, 75
1, 676336, Control_c, 0, 67, 29
1, 676351, Control_c, 0, 64, 0
1, 676351, Control_c, 0, 67, 35
1, 676356, Note_on_c, 0, 72, 97
1, 676363, Note_on_c, 0, 67, 78
1, 676364, Note_on_c, 0, 70, 73
1, 676366, Control_c, 0, 67, 43
1, 676381, Control_c, 0, 67, 51
1, 676388, Note_off_c, 0, 67, 66
1, 676396, Control_c, 0, 67, 59
1, 676401, Note_off_c, 0, 70, 63
1, 676410, Control_c, 0, 67, 65
1, 676425, Control_c, 0, 67, 69
1, 676440, Control_c, 0, 67, 73
1, 676455, Control_c, 0, 67, 79
1, 676470, Control_c, 0, 67, 88
1, 676475, Note_on_c, 0, 66, 72
1, 676484, Control_c, 0, 67, 99
1, 676487, Note_on_c, 0, 60, 61
1, 676492, Note_off_c, 0, 66, 67
1, 676499, Control_c, 0, 67, 109
1, 676501, Note_on_c, 0, 69, 32
1, 676508, Note_off_c, 0, 60, 63
1, 676514, Control_c, 0, 67, 119
1, 676528, Control_c, 0, 67, 127
1, 676532, Note_off_c, 0, 69, 34
1, 676585, Note_on_c, 0, 66, 65
1, 676588, Note_on_c, 0, 69, 65
1, 676596, Note_on_c, 0, 60, 56
1, 676622, Note_off_c, 0, 66, 63
1, 676627, Note_off_c, 0, 60, 66
1, 676639, Note_off_c, 0, 69, 56
1, 676704, Note_on_c, 0, 60, 66
1, 676721, Note_on_c, 0, 52, 40
1, 676731, Note_off_c, 0, 60, 67
1, 676753, Note_off_c, 0, 52, 33
1, 676786, Note_off_c, 0, 72, 54
1, 676794, Control_c, 0, 64, 42
1, 676810, Control_c, 0, 64, 59
1, 676824, Control_c, 0, 64, 70
1, 676837, Note_on_c, 0, 81, 68
1, 676839, Control_c, 0, 64, 94
1, 676854, Control_c, 0, 64, 127
1, 676865, Note_off_c, 0, 81, 66
1, 677062, Note_on_c, 0, 72, 90
1, 677066, Note_on_c, 0, 69, 79
1, 677069, Control_c, 0, 64, 75
1, 677071, Note_on_c, 0, 66, 84
1, 677084, Control_c, 0, 64, 0
1, 677104, Note_off_c, 0, 69, 63
1, 677109, Note_off_c, 0, 66, 58
1, 677181, Note_on_c, 0, 65, 66
1, 677187, Note_on_c, 0, 68, 55
1, 677188, Note_on_c, 0, 60, 46
1, 677201, Note_off_c, 0, 65, 66
1, 677208, Note_off_c, 0, 68, 62
1, 677215, Note_off_c, 0, 60, 56
1, 677281, Note_on_c, 0, 68, 72
1, 677287, Note_on_c, 0, 65, 63
1, 677292, Note_on_c, 0, 60, 61
1, 677312, Note_off_c, 0, 60, 64
1, 677324, Note_off_c, 0, 65, 62
1, 677338, Note_off_c, 0, 68, 65
1, 677410, Note_on_c, 0, 52, 52
1, 677411, Note_on_c, 0, 60, 48
1, 677433, Note_off_c, 0, 52, 57
1, 677436, Note_off_c, 0, 60, 59
1, 677484, Control_c, 0, 64, 53
1, 677499, Control_c, 0, 64, 66
1, 677500, Note_off_c, 0, 72, 56
1, 677514, Control_c, 0, 64, 78
1, 677529, Control_c, 0, 64, 102
1, 677530, Note_on_c, 0, 80, 81
1, 677543, Control_c, 0, 64, 127
1, 677549, Note_off_c, 0, 80, 69
1, 677767, Note_on_c, 0, 72, 92
1, 677774, Control_c, 0, 64, 70
1, 677777, Note_on_c, 0, 68, 80
1, 677779, Note_on_c, 0, 65, 83
1, 677789, Control_c, 0, 64, 0
1, 677801, Note_off_c, 0, 65, 71
1, 677801, Note_off_c, 0, 68, 69
1, 677886, Note_on_c, 0, 59, 69
1, 677886, Note_on_c, 0, 67, 65
1, 677889, Note_on_c, 0, 64, 64
1, 677903, Note_off_c, 0, 67, 66
1, 677909, Note_off_c, 0, 59, 69
1, 677914, Note_off_c, 0, 64, 69
1, 677992, Note_on_c, 0, 67, 66
1, 677993, Note_on_c, 0, 59, 76
1, 677993, Note_on_c, 0, 64, 82
1, 678014, Note_off_c, 0, 59, 70
1, 678025, Note_off_c, 0, 64, 65
1, 678037, Note_off_c, 0, 67, 64
1, 678108, Note_on_c, 0, 59, 60
1, 678117, Note_on_c, 0, 52, 62
1, 678135, Note_off_c, 0, 59, 67
1, 678138, Note_off_c, 0, 52, 61
1, 678218, Note_off_c, 0, 72, 60
1, 678219, Control_c, 0, 64, 60
1, 678225, Note_on_c, 0, 79, 82
1, 678234, Control_c, 0, 64, 74
1, 678245, Note_off_c, 0, 79, 73
1, 678248, Control_c, 0, 64, 90
1, 678263, Control_c, 0, 64, 103
1, 678278, Control_c, 0, 64, 115
1, 678292, Control_c, 0, 64, 127
1, 678464, Note_on_c, 0, 72, 89
1, 678464, Control_c, 0, 64, 106
1, 678468, Note_on_c, 0, 67, 79
1, 678472, Note_on_c, 0, 64, 78
1, 678478, Control_c, 0, 64, 63
1, 678487, Note_off_c, 0, 67, 72
1, 678493, Note_off_c, 0, 64, 66
1, 678493, Control_c, 0, 64, 0
1, 678585, Note_on_c, 0, 58, 71
1, 678585, Note_on_c, 0, 64, 54
1, 678594, Note_on_c, 0, 66, 50
1, 678608, Note_off_c, 0, 58, 67
1, 678611, Note_off_c, 0, 64, 39
1, 678617, Note_off_c, 0, 66, 55
1, 678692, Note_on_c, 0, 58, 69
1, 678693, Note_on_c, 0, 66, 63
1, 678696, Note_on_c, 0, 64, 70
1, 678719, Note_off_c, 0, 58, 68
1, 678724, Note_off_c, 0, 64, 66
1, 678725, Note_off_c, 0, 66, 65
1, 678802, Note_on_c, 0, 58, 67
1, 678802, Note_off_c, 0, 72, 0
1, 678816, Note_on_c, 0, 72, 48
1, 678821, Note_on_c, 0, 48, 60
1, 678829, Note_off_c, 0, 58, 66
1, 678845, Note_off_c, 0, 48, 63
1, 678893, Control_c, 0, 64, 60
1, 678908, Control_c, 0, 64, 84
1, 678922, Control_c, 0, 64, 127
1, 678928, Note_off_c, 0, 72, 63
1, 678935, Note_on_c, 0, 78, 82
1, 678954, Note_off_c, 0, 78, 71
1, 679100, Control_c, 0, 67, 124
1, 679115, Control_c, 0, 67, 114
1, 679129, Control_c, 0, 64, 80
1, 679129, Control_c, 0, 67, 103
1, 679144, Control_c, 0, 64, 45
1, 679144, Control_c, 0, 67, 92
1, 679159, Control_c, 0, 64, 0
1, 679159, Control_c, 0, 67, 85
1, 679181, Control_c, 0, 67, 84
1, 679189, Note_on_c, 0, 41, 73
1, 679193, Note_on_c, 0, 53, 80
1, 679197, Control_c, 0, 64, 42
1, 679203, Note_on_c, 0, 29, 47
1, 679212, Control_c, 0, 64, 69
1, 679213, Note_off_c, 0, 41, 65
1, 679217, Note_off_c, 0, 53, 69
1, 679226, Control_c, 0, 64, 99
1, 679241, Control_c, 0, 64, 127
1, 679241, Control_c, 0, 67, 85
1, 679242, Note_off_c, 0, 29, 40
1, 679256, Control_c, 0, 67, 86
1, 679271, Control_c, 0, 67, 87
1, 679301, Control_c, 0, 67, 86
1, 679316, Control_c, 0, 67, 86
1, 679383, Note_on_c, 0, 84, 87
1, 679390, Note_on_c, 0, 72, 81
1, 679396, Note_on_c, 0, 57, 69
1, 679400, Note_on_c, 0, 48, 48
1, 679405, Control_c, 0, 67, 85
1, 679419, Note_off_c, 0, 72, 60
1, 679419, Control_c, 0, 67, 85
1, 679430, Note_off_c, 0, 48, 53
1, 679442, Note_on_c, 0, 81, 99
1, 679444, Note_off_c, 0, 57, 60
1, 679452, Note_on_c, 0, 75, 85
1, 679459, Note_off_c, 0, 84, 62
1, 679461, Note_on_c, 0, 60, 79
1, 679471, Note_off_c, 0, 75, 71
1, 679474, Note_off_c, 0, 81, 66
1, 679523, Control_c, 0, 67, 84
1, 679530, Note_off_c, 0, 60, 58
1, 679547, Note_on_c, 0, 63, 83
1, 679567, Control_c, 0, 67, 84
1, 679582, Control_c, 0, 67, 82
1, 679597, Control_c, 0, 67, 76
1, 679612, Control_c, 0, 67, 62
1, 679618, Note_on_c, 0, 66, 90
1, 679626, Control_c, 0, 67, 39
1, 679632, Note_off_c, 0, 63, 62
1, 679641, Control_c, 0, 67, 0
1, 679647, Note_off_c, 0, 66, 63
1, 679670, Note_on_c, 0, 69, 84
1, 679741, Note_off_c, 0, 69, 60
1, 679745, Note_on_c, 0, 72, 76
1, 679783, Note_on_c, 0, 75, 90
1, 679783, Note_off_c, 0, 72, 62
1, 679790, Control_c, 0, 64, 82
1, 679805, Control_c, 0, 64, 0
1, 679814, Note_off_c, 0, 75, 66
1, 679861, Note_on_c, 0, 66, 99
1, 679864, Note_on_c, 0, 54, 85
1, 679864, Control_c, 0, 64, 85
1, 679864, Control_c, 0, 67, 36
1, 679871, Note_on_c, 0, 78, 100
1, 679879, Control_c, 0, 64, 127
1, 679879, Control_c, 0, 67, 120
1, 679886, Note_on_c, 0, 87, 65
1, 679886, Note_off_c, 0, 87, 127
1, 679886, Note_off_c, 0, 66, 63
1, 679886, Note_off_c, 0, 78, 71
1, 679887, Note_off_c, 0, 54, 69
1, 679894, Control_c, 0, 67, 127
1, 679894, Note_on_c, 0, 89, 59
1, 679927, Note_off_c, 0, 89, 62
1, 679930, Note_on_c, 0, 77, 6
1, 679972, Note_off_c, 0, 77, 52
1, 679990, Control_c, 0, 67, 124
1, 680006, Control_c, 0, 67, 110
1, 680021, Control_c, 0, 67, 80
1, 680036, Control_c, 0, 67, 46
1, 680050, Control_c, 0, 67, 0
1, 680124, Note_on_c, 0, 59, 73
1, 680124, Note_on_c, 0, 69, 68
1, 680129, Note_on_c, 0, 63, 62
1, 680129, Note_on_c, 0, 71, 88
1, 680136, Note_on_c, 0, 75, 68
1, 680138, Note_on_c, 0, 83, 59
1, 680149, Note_off_c, 0, 71, 71
1, 680150, Note_off_c, 0, 69, 68
1, 680150, Note_off_c, 0, 63, 64
1, 680151, Note_on_c, 0, 81, 53
1, 680157, Note_off_c, 0, 83, 63
1, 680159, Note_off_c, 0, 59, 61
1, 680162, Note_off_c, 0, 75, 66
1, 680174, Note_off_c, 0, 81, 61
1, 680332, Control_c, 0, 64, 115
1, 680347, Control_c, 0, 64, 89
1, 680359, Note_on_c, 0, 58, 79
1, 680361, Note_on_c, 0, 63, 98
1, 680362, Control_c, 0, 64, 90
1, 680362, Control_c, 0, 67, 25
1, 680362, Note_on_c, 0, 51, 83
1, 680362, Note_on_c, 0, 70, 87
1, 680376, Control_c, 0, 64, 127
1, 680376, Control_c, 0, 67, 45
1, 680380, Note_off_c, 0, 58, 70
1, 680389, Note_off_c, 0, 51, 66
1, 680391, Control_c, 0, 67, 34
1, 680396, Note_off_c, 0, 63, 60
1, 680396, Note_off_c, 0, 70, 62
1, 680406, Control_c, 0, 67, 20
1, 680421, Control_c, 0, 67, 0
1, 680539, Control_c, 0, 64, 67
1, 680554, Control_c, 0, 64, 0
1, 680568, Control_c, 0, 67, 27
1, 680580, Note_on_c, 0, 53, 91
1, 680582, Note_on_c, 0, 41, 81
1, 680583, Control_c, 0, 64, 57
1, 680583, Control_c, 0, 67, 0
1, 680585, Note_on_c, 0, 29, 82
1, 680598, Control_c, 0, 64, 83
1, 680604, Note_off_c, 0, 41, 66
1, 680609, Note_off_c, 0, 29, 66
1, 680610, Note_off_c, 0, 53, 66
1, 680613, Control_c, 0, 64, 127
1, 680739, Control_c, 0, 64, 81
1, 680754, Control_c, 0, 64, 49
1, 680758, Note_on_c, 0, 72, 96
1, 680761, Note_on_c, 0, 63, 98
1, 680764, Note_on_c, 0, 57, 69
1, 680767, Note_on_c, 0, 48, 68
1, 680769, Control_c, 0, 64, 0
1, 680790, Note_off_c, 0, 57, 66
1, 680800, Note_off_c, 0, 63, 64
1, 680806, Note_on_c, 0, 50, 35
1, 680806, Note_off_c, 0, 50, 127
1, 680827, Note_on_c, 0, 69, 86
1, 680844, Control_c, 0, 64, 48
1, 680857, Note_off_c, 0, 72, 64
1, 680859, Control_c, 0, 64, 82
1, 680873, Control_c, 0, 64, 127
1, 680875, Note_on_c, 0, 66, 86
1, 680907, Note_off_c, 0, 69, 64
1, 680944, Note_on_c, 0, 63, 87
1, 680953, Note_off_c, 0, 66, 66
1, 680996, Note_off_c, 0, 63, 63
1, 681008, Note_on_c, 0, 61, 67
1, 681037, Note_off_c, 0, 61, 63
1, 681052, Note_on_c, 0, 60, 74
1, 681110, Note_on_c, 0, 57, 81
1, 681114, Note_off_c, 0, 60, 62
1, 681158, Note_off_c, 0, 57, 65
1, 681161, Note_off_c, 0, 48, 39
1, 681202, Note_on_c, 0, 54, 32
1, 681238, Note_off_c, 0, 54, 51
1, 681243, Control_c, 0, 64, 93
1, 681243, Control_c, 0, 67, 38
1, 681250, Note_on_c, 0, 51, 88
1, 681252, Note_on_c, 0, 63, 110
1, 681258, Control_c, 0, 64, 61
1, 681258, Control_c, 0, 67, 66
1, 681273, Control_c, 0, 64, 0
1, 681273, Control_c, 0, 67, 70
1, 681286, Note_on_c, 0, 40, 47
1, 681288, Control_c, 0, 64, 51
1, 681288, Control_c, 0, 67, 65
1, 681303, Control_c, 0, 64, 69
1, 681303, Control_c, 0, 67, 60
1, 681317, Control_c, 0, 64, 127
1, 681317, Control_c, 0, 67, 52
1, 681320, Note_off_c, 0, 40, 46
1, 681331, Note_off_c, 0, 51, 53
1, 681332, Control_c, 0, 67, 48
1, 681342, Note_on_c, 0, 59, 68
1, 681347, Control_c, 0, 67, 50
1, 681357, Note_on_c, 0, 48, 38
1, 681362, Control_c, 0, 67, 51
1, 681377, Control_c, 0, 67, 46
1, 681391, Control_c, 0, 67, 35
1, 681398, Note_off_c, 0, 63, 56
1, 681401, Note_on_c, 0, 47, 8
1, 681406, Control_c, 0, 67, 0
1, 681432, Note_off_c, 0, 48, 63
1, 681444, Note_on_c, 0, 58, 71
1, 681444, Note_off_c, 0, 59, 61
1, 681446, Note_on_c, 0, 46, 66
1, 681454, Note_off_c, 0, 47, 56
1, 681480, Note_off_c, 0, 46, 63
1, 681482, Note_off_c, 0, 58, 62
1, 681515, Note_on_c, 0, 45, 70
1, 681524, Note_on_c, 0, 57, 56
1, 681553, Note_off_c, 0, 57, 64
1, 681555, Note_off_c, 0, 45, 59
1, 681577, Note_on_c, 0, 54, 81
1, 681594, Note_on_c, 0, 42, 73
1, 681635, Note_off_c, 0, 42, 64
1, 681650, Note_on_c, 0, 51, 70
1, 681653, Note_off_c, 0, 54, 62
1, 681672, Note_on_c, 0, 50, 68
1, 681673, Note_off_c, 0, 51, 61
1, 681700, Note_off_c, 0, 50, 64
1, 681703, Note_on_c, 0, 47, 71
1, 681737, Note_on_c, 0, 48, 42
1, 681762, Note_off_c, 0, 47, 64
1, 681766, Note_off_c, 0, 48, 54
1, 681779, Note_on_c, 0, 46, 91
1, 681815, Control_c, 0, 64, 78
1, 681829, Control_c, 0, 64, 0
1, 681833, Note_on_c, 0, 45, 91
1, 681837, Note_off_c, 0, 46, 64
1, 681858, Note_off_c, 0, 45, 69
1, 681873, Control_c, 0, 64, 59
1, 681888, Control_c, 0, 64, 127
1, 681888, Control_c, 0, 67, 84
1, 681894, Note_on_c, 0, 41, 99
1, 681898, Note_on_c, 0, 29, 99
1, 681903, Control_c, 0, 67, 127
1, 681923, Note_off_c, 0, 29, 70
1, 681925, Note_off_c, 0, 41, 66
1, 681963, Control_c, 0, 67, 123
1, 682022, Control_c, 0, 67, 119
1, 682037, Control_c, 0, 67, 115
1, 682064, Note_on_c, 0, 49, 95
1, 682073, Note_on_c, 0, 77, 84
1, 682096, Control_c, 0, 67, 112
1, 682111, Control_c, 0, 67, 105
1, 682126, Control_c, 0, 67, 85
1, 682140, Control_c, 0, 67, 55
1, 682155, Control_c, 0, 67, 21
1, 682177, Control_c, 0, 67, 0
1, 682213, Note_on_c, 0, 53, 74
1, 682219, Note_on_c, 0, 58, 89
1, 682221, Note_off_c, 0, 49, 63
1, 682225, Note_on_c, 0, 61, 95
1, 682274, Note_on_c, 0, 82, 104
1, 682275, Note_on_c, 0, 73, 108
1, 682279, Note_on_c, 0, 85, 101
1, 682335, Note_off_c, 0, 61, 58
1, 682353, Note_off_c, 0, 85, 68
1, 682375, Note_off_c, 0, 77, 61
1, 682376, Note_off_c, 0, 58, 64
1, 682383, Note_off_c, 0, 53, 60
1, 682390, Note_on_c, 0, 49, 67
1, 682396, Note_off_c, 0, 82, 60
1, 682420, Note_off_c, 0, 49, 68
1, 682478, Note_off_c, 0, 73, 55
1, 682511, Note_on_c, 0, 41, 79
1, 682613, Note_on_c, 0, 29, 85
1, 682622, Note_on_c, 0, 77, 99
1, 682635, Poly_aftertouch_c, 0, 43, 0
1, 682647, Note_off_c, 0, 41, 60
1, 682727, Control_c, 0, 64, 85
1, 682742, Control_c, 0, 64, 80
1, 682747, Note_on_c, 0, 41, 88
1, 682747, Note_off_c, 0, 29, 65
1, 682757, Control_c, 0, 64, 87
1, 682770, Note_on_c, 0, 72, 104
1, 682771, Control_c, 0, 64, 127
1, 682773, Note_on_c, 0, 80, 90
1, 682773, Note_on_c, 0, 84, 99
1, 682774, Note_on_c, 0, 73, 97
1, 682791, Note_off_c, 0, 41, 66
1, 682801, Control_c, 0, 67, 20
1, 682815, Control_c, 0, 67, 23
1, 682860, Control_c, 0, 67, 20
1, 682875, Control_c, 0, 67, 0
1, 682881, Note_on_c, 0, 49, 90
1, 682907, Note_off_c, 0, 84, 59
1, 682970, Note_off_c, 0, 80, 61
1, 682979, Note_off_c, 0, 73, 59
1, 682982, Note_off_c, 0, 49, 64
1, 682988, Note_off_c, 0, 72, 58
1, 682992, Note_on_c, 0, 53, 69
1, 682999, Note_on_c, 0, 58, 78
1, 683000, Note_on_c, 0, 61, 85
1, 683021, Note_off_c, 0, 77, 54
1, 683048, Note_off_c, 0, 61, 63
1, 683077, Note_off_c, 0, 58, 65
1, 683083, Note_on_c, 0, 49, 88
1, 683089, Note_off_c, 0, 53, 61
1, 683104, Note_off_c, 0, 49, 71
1, 683111, Note_on_c, 0, 77, 84
1, 683125, Note_on_c, 0, 76, 80
1, 683179, Control_c, 0, 64, 96
1, 683194, Control_c, 0, 64, 61
1, 683209, Control_c, 0, 64, 0
1, 683223, Note_on_c, 0, 41, 90
1, 683233, Note_on_c, 0, 78, 100
1, 683236, Note_on_c, 0, 70, 106
1, 683239, Control_c, 0, 64, 48
1, 683244, Note_on_c, 0, 73, 90
1, 683245, Note_on_c, 0, 82, 90
1, 683247, Note_off_c, 0, 76, 22
1, 683254, Control_c, 0, 64, 74
1, 683269, Control_c, 0, 64, 127
1, 683271, Note_off_c, 0, 77, 61
1, 683353, Note_on_c, 0, 29, 89
1, 683357, Note_off_c, 0, 73, 60
1, 683358, Note_off_c, 0, 82, 62
1, 683361, Note_off_c, 0, 78, 62
1, 683374, Note_off_c, 0, 41, 59
1, 683441, Note_off_c, 0, 29, 63
1, 683456, Note_on_c, 0, 41, 85
1, 683464, Note_off_c, 0, 70, 53
1, 683486, Note_off_c, 0, 41, 66
1, 683574, Note_on_c, 0, 73, 100
1, 683576, Note_on_c, 0, 49, 89
1, 683691, Control_c, 0, 67, 19
1, 683701, Note_on_c, 0, 53, 74
1, 683704, Note_off_c, 0, 49, 62
1, 683709, Note_on_c, 0, 58, 80
1, 683711, Note_on_c, 0, 61, 92
1, 683720, Control_c, 0, 64, 72
1, 683721, Note_on_c, 0, 77, 79
1, 683723, Note_on_c, 0, 68, 104
1, 683727, Note_on_c, 0, 80, 91
1, 683729, Note_on_c, 0, 70, 87
1, 683735, Control_c, 0, 64, 0
1, 683735, Control_c, 0, 67, 0
1, 683774, Note_off_c, 0, 61, 62
1, 683780, Control_c, 0, 64, 48
1, 683780, Control_c, 0, 67, 20
1, 683794, Control_c, 0, 64, 73
1, 683794, Control_c, 0, 67, 23
1, 683806, Note_off_c, 0, 58, 64
1, 683809, Control_c, 0, 64, 127
1, 683814, Note_off_c, 0, 53, 52
1, 683816, Note_on_c, 0, 49, 84
1, 683843, Note_off_c, 0, 49, 65
1, 683853, Control_c, 0, 67, 21
1, 683888, Note_off_c, 0, 80, 54
1, 683927, Control_c, 0, 67, 0
1, 683942, Note_on_c, 0, 41, 77
1, 683945, Note_off_c, 0, 68, 57
1, 683960, Note_off_c, 0, 77, 53
1, 683966, Note_off_c, 0, 70, 59
1, 683984, Note_off_c, 0, 73, 58
1, 684056, Note_on_c, 0, 73, 99
1, 684059, Note_on_c, 0, 29, 85
1, 684081, Note_off_c, 0, 41, 36
1, 684136, Control_c, 0, 64, 97
1, 684151, Control_c, 0, 64, 61
1, 684153, Note_off_c, 0, 29, 64
1, 684160, Note_on_c, 0, 41, 76
1, 684166, Control_c, 0, 64, 0
1, 684176, Note_on_c, 0, 78, 95
1, 684177, Note_on_c, 0, 66, 92
1, 684180, Control_c, 0, 67, 21
1, 684184, Note_on_c, 0, 70, 80
1, 684190, Note_off_c, 0, 41, 67
1, 684195, Control_c, 0, 64, 55
1, 684195, Control_c, 0, 67, 24
1, 684210, Control_c, 0, 64, 86
1, 684225, Control_c, 0, 64, 127
1, 684269, Control_c, 0, 67, 26
1, 684277, Note_on_c, 0, 49, 87
1, 684297, Note_off_c, 0, 66, 56
1, 684314, Note_off_c, 0, 70, 57
1, 684314, Control_c, 0, 67, 24
1, 684329, Control_c, 0, 67, 22
1, 684332, Note_off_c, 0, 78, 60
1, 684369, Note_off_c, 0, 49, 63
1, 684373, Note_on_c, 0, 53, 65
1, 684380, Note_off_c, 0, 73, 58
1, 684388, Control_c, 0, 67, 24
1, 684389, Note_on_c, 0, 58, 75
1, 684392, Note_on_c, 0, 61, 81
1, 684440, Control_c, 0, 67, 21
1, 684448, Note_off_c, 0, 61, 61
1, 684467, Note_off_c, 0, 58, 64
1, 684484, Note_on_c, 0, 49, 80
1, 684487, Note_off_c, 0, 53, 61
1, 684495, Note_on_c, 0, 73, 95
1, 684499, Control_c, 0, 67, 23
1, 684520, Note_off_c, 0, 49, 63
1, 684543, Control_c, 0, 64, 101
1, 684543, Control_c, 0, 67, 20
1, 684558, Control_c, 0, 64, 66
1, 684573, Control_c, 0, 64, 49
1, 684588, Control_c, 0, 64, 54
1, 684602, Control_c, 0, 64, 65
1, 684616, Note_on_c, 0, 41, 75
1, 684617, Control_c, 0, 64, 87
1, 684631, Note_on_c, 0, 77, 87
1, 684632, Control_c, 0, 64, 127
1, 684636, Note_on_c, 0, 65, 79
1, 684640, Note_on_c, 0, 70, 74
1, 684662, Control_c, 0, 67, 22
1, 684668, Note_off_c, 0, 65, 65
1, 684672, Note_off_c, 0, 70, 62
1, 684676, Control_c, 0, 67, 25
1, 684696, Note_off_c, 0, 41, 60
1, 684698, Note_off_c, 0, 77, 62
1, 684730, Note_off_c, 0, 73, 54
1, 684738, Note_on_c, 0, 29, 61
1, 684750, Control_c, 0, 67, 28
1, 684765, Control_c, 0, 67, 34
1, 684768, Note_off_c, 0, 29, 55
1, 684780, Control_c, 0, 67, 40
1, 684796, Control_c, 0, 67, 43
1, 684811, Control_c, 0, 67, 44
1, 684826, Control_c, 0, 67, 45
1, 684840, Control_c, 0, 67, 49
1, 684855, Control_c, 0, 64, 76
1, 684855, Control_c, 0, 67, 58
1, 684870, Control_c, 0, 64, 0
1, 684870, Control_c, 0, 67, 61
1, 684871, Note_on_c, 0, 73, 84
1, 684873, Note_on_c, 0, 68, 82
1, 684882, Note_on_c, 0, 71, 70
1, 684884, Control_c, 0, 67, 63
1, 684899, Control_c, 0, 67, 63
1, 684905, Note_off_c, 0, 68, 64
1, 684914, Control_c, 0, 67, 64
1, 684929, Note_off_c, 0, 71, 61
1, 684929, Control_c, 0, 67, 66
1, 684944, Control_c, 0, 67, 71
1, 684958, Control_c, 0, 67, 74
1, 684964, Note_on_c, 0, 67, 42
1, 684974, Control_c, 0, 67, 74
1, 684994, Note_off_c, 0, 67, 56
1, 685004, Control_c, 0, 67, 76
1, 685018, Control_c, 0, 67, 81
1, 685019, Note_on_c, 0, 66, 65
1, 685033, Control_c, 0, 67, 89
1, 685048, Control_c, 0, 67, 95
1, 685063, Control_c, 0, 67, 101
1, 685077, Note_off_c, 0, 66, 60
1, 685078, Control_c, 0, 67, 107
1, 685087, Note_on_c, 0, 67, 58
1, 685087, Note_on_c, 0, 70, 68
1, 685093, Control_c, 0, 67, 115
1, 685107, Note_on_c, 0, 65, 69
1, 685107, Control_c, 0, 67, 125
1, 685122, Control_c, 0, 67, 127
1, 685170, Note_off_c, 0, 65, 55
1, 685183, Note_off_c, 0, 70, 63
1, 685190, Note_on_c, 0, 64, 54
1, 685197, Note_off_c, 0, 67, 57
1, 685261, Note_off_c, 0, 64, 62
1, 685271, Note_on_c, 0, 61, 61
1, 685307, Control_c, 0, 64, 38
1, 685322, Control_c, 0, 64, 62
1, 685328, Note_off_c, 0, 61, 58
1, 685336, Note_on_c, 0, 82, 73
1, 685337, Control_c, 0, 64, 72
1, 685340, Note_on_c, 0, 53, 47
1, 685349, Note_off_c, 0, 73, 61
1, 685352, Control_c, 0, 64, 82
1, 685364, Note_off_c, 0, 82, 63
1, 685367, Control_c, 0, 64, 98
1, 685367, Note_off_c, 0, 53, 59
1, 685382, Control_c, 0, 64, 124
1, 685397, Control_c, 0, 64, 127
1, 685560, Note_on_c, 0, 73, 88
1, 685561, Note_on_c, 0, 70, 80
1, 685562, Note_on_c, 0, 67, 72
1, 685574, Control_c, 0, 64, 80
1, 685590, Control_c, 0, 64, 57
1, 685590, Note_off_c, 0, 67, 66
1, 685605, Control_c, 0, 64, 0
1, 685609, Note_off_c, 0, 70, 60
1, 685627, Note_on_c, 0, 66, 68
1, 685675, Note_off_c, 0, 66, 61
1, 685694, Control_c, 0, 64, 34
1, 685701, Note_on_c, 0, 65, 72
1, 685708, Control_c, 0, 64, 37
1, 685723, Control_c, 0, 64, 38
1, 685738, Control_c, 0, 64, 38
1, 685739, Note_off_c, 0, 65, 61
1, 685753, Control_c, 0, 64, 39
1, 685768, Control_c, 0, 64, 40
1, 685776, Note_on_c, 0, 64, 69
1, 685776, Note_on_c, 0, 66, 64
1, 685780, Note_on_c, 0, 69, 66
1, 685805, Note_off_c, 0, 66, 66
1, 685812, Control_c, 0, 64, 39
1, 685829, Note_off_c, 0, 64, 62
1, 685830, Note_off_c, 0, 69, 49
1, 685845, Note_on_c, 0, 62, 50
1, 685856, Control_c, 0, 64, 38
1, 685871, Control_c, 0, 64, 36
1, 685886, Control_c, 0, 64, 0
1, 685932, Note_off_c, 0, 62, 63
1, 685943, Note_on_c, 0, 61, 57
1, 685960, Note_off_c, 0, 73, 60
1, 685993, Note_on_c, 0, 53, 58
1, 685995, Note_on_c, 0, 81, 77
1, 685997, Control_c, 0, 64, 48
1, 686003, Note_off_c, 0, 61, 58
1, 686012, Control_c, 0, 64, 66
1, 686020, Note_off_c, 0, 81, 65
1, 686027, Control_c, 0, 64, 82
1, 686028, Note_off_c, 0, 53, 63
1, 686041, Control_c, 0, 64, 105
1, 686056, Control_c, 0, 64, 127
1, 686224, Note_on_c, 0, 66, 75
1, 686226, Note_on_c, 0, 73, 81
1, 686229, Note_on_c, 0, 69, 67
1, 686234, Control_c, 0, 64, 87
1, 686249, Control_c, 0, 64, 61
1, 686264, Control_c, 0, 64, 0
1, 686273, Note_off_c, 0, 66, 60
1, 686284, Note_on_c, 0, 65, 58
1, 686301, Note_off_c, 0, 69, 62
1, 686343, Note_off_c, 0, 65, 60
1, 686349, Note_on_c, 0, 64, 71
1, 686415, Note_off_c, 0, 64, 62
1, 686439, Note_on_c, 0, 63, 68
1, 686449, Note_on_c, 0, 68, 67
1, 686461, Note_on_c, 0, 65, 54
1, 686470, Note_off_c, 0, 63, 66
1, 686473, Note_off_c, 0, 68, 68
1, 686506, Note_on_c, 0, 62, 68
1, 686547, Note_off_c, 0, 65, 29
1, 686573, Note_off_c, 0, 62, 57
1, 686598, Note_on_c, 0, 61, 55
1, 686634, Note_off_c, 0, 61, 63
1, 686634, Note_off_c, 0, 73, 53
1, 686635, Control_c, 0, 64, 34
1, 686643, Note_on_c, 0, 53, 59
1, 686650, Control_c, 0, 64, 56
1, 686666, Note_on_c, 0, 80, 79
1, 686672, Control_c, 0, 64, 69
1, 686687, Control_c, 0, 64, 84
1, 686698, Note_off_c, 0, 80, 61
1, 686702, Control_c, 0, 64, 127
1, 686744, Note_off_c, 0, 53, 59
1, 686893, Note_on_c, 0, 73, 81
1, 686894, Note_on_c, 0, 65, 75
1, 686895, Note_on_c, 0, 68, 78
1, 686932, Note_off_c, 0, 65, 57
1, 686941, Note_off_c, 0, 68, 58
1, 686968, Control_c, 0, 64, 113
1, 686975, Note_on_c, 0, 62, 67
1, 686982, Control_c, 0, 64, 80
1, 686997, Control_c, 0, 64, 52
1, 687012, Control_c, 0, 64, 0
1, 687017, Note_off_c, 0, 62, 61
1, 687042, Control_c, 0, 67, 121
1, 687045, Note_on_c, 0, 61, 74
1, 687057, Control_c, 0, 64, 54
1, 687057, Control_c, 0, 67, 113
1, 687072, Control_c, 0, 64, 68
1, 687072, Control_c, 0, 67, 110
1, 687087, Control_c, 0, 64, 72
1, 687102, Note_on_c, 0, 64, 62
1, 687102, Control_c, 0, 67, 112
1, 687105, Note_on_c, 0, 67, 61
1, 687117, Control_c, 0, 67, 109
1, 687120, Note_off_c, 0, 61, 59
1, 687128, Note_off_c, 0, 64, 64
1, 687132, Control_c, 0, 64, 74
1, 687132, Control_c, 0, 67, 101
1, 687133, Note_on_c, 0, 60, 65
1, 687134, Note_off_c, 0, 67, 65
1, 687146, Control_c, 0, 64, 78
1, 687146, Control_c, 0, 67, 86
1, 687161, Control_c, 0, 64, 84
1, 687161, Control_c, 0, 67, 74
1, 687176, Control_c, 0, 64, 92
1, 687176, Control_c, 0, 67, 71
1, 687183, Note_off_c, 0, 60, 60
1, 687191, Control_c, 0, 64, 93
1, 687191, Control_c, 0, 67, 73
1, 687194, Note_on_c, 0, 59, 66
1, 687221, Control_c, 0, 64, 93
1, 687221, Control_c, 0, 67, 72
1, 687236, Control_c, 0, 67, 70
1, 687266, Control_c, 0, 67, 71
1, 687278, Note_off_c, 0, 59, 57
1, 687281, Control_c, 0, 64, 89
1, 687281, Control_c, 0, 67, 72
1, 687295, Control_c, 0, 64, 74
1, 687302, Note_on_c, 0, 49, 59
1, 687310, Control_c, 0, 64, 55
1, 687310, Control_c, 0, 67, 69
1, 687325, Control_c, 0, 64, 0
1, 687325, Control_c, 0, 67, 65
1, 687340, Control_c, 0, 67, 59
1, 687355, Control_c, 0, 67, 58
1, 687369, Control_c, 0, 64, 40
1, 687375, Note_on_c, 0, 79, 77
1, 687380, Note_off_c, 0, 49, 64
1, 687380, Note_off_c, 0, 73, 51
1, 687384, Control_c, 0, 64, 65
1, 687384, Control_c, 0, 67, 53
1, 687398, Note_off_c, 0, 79, 70
1, 687399, Control_c, 0, 64, 88
1, 687399, Control_c, 0, 67, 38
1, 687421, Control_c, 0, 64, 127
1, 687421, Control_c, 0, 67, 0
1, 687584, Control_c, 0, 64, 93
1, 687599, Control_c, 0, 64, 59
1, 687613, Control_c, 0, 64, 0
1, 687627, Note_on_c, 0, 54, 87
1, 687635, Note_on_c, 0, 42, 85
1, 687643, Control_c, 0, 64, 57
1, 687644, Note_on_c, 0, 30, 46
1, 687647, Note_off_c, 0, 54, 71
1, 687658, Note_off_c, 0, 42, 67
1, 687658, Control_c, 0, 64, 82
1, 687673, Control_c, 0, 64, 127
1, 687684, Note_off_c, 0, 30, 45
1, 687815, Note_on_c, 0, 49, 71
1, 687816, Note_on_c, 0, 85, 80
1, 687880, Note_on_c, 0, 82, 86
1, 687891, Note_on_c, 0, 58, 78
1, 687899, Note_on_c, 0, 70, 61
1, 687899, Note_off_c, 0, 85, 64
1, 687909, Note_off_c, 0, 49, 61
1, 687915, Note_off_c, 0, 82, 66
1, 687920, Note_off_c, 0, 70, 64
1, 687966, Note_on_c, 0, 61, 86
1, 687985, Poly_aftertouch_c, 0, 76, 0
1, 687990, Note_off_c, 0, 58, 61
1, 688027, Note_on_c, 0, 64, 82
1, 688032, Note_off_c, 0, 61, 57
1, 688069, Note_off_c, 0, 64, 65
1, 688101, Note_on_c, 0, 67, 84
1, 688160, Note_off_c, 0, 67, 65
1, 688168, Note_on_c, 0, 70, 87
1, 688214, Note_off_c, 0, 70, 65
1, 688237, Note_on_c, 0, 73, 67
1, 688243, Control_c, 0, 64, 65
1, 688256, Note_off_c, 0, 73, 43
1, 688258, Control_c, 0, 64, 0
1, 688303, Control_c, 0, 64, 52
1, 688303, Control_c, 0, 67, 42
1, 688312, Note_on_c, 0, 67, 88
1, 688315, Note_on_c, 0, 89, 104
1, 688316, Note_on_c, 0, 55, 76
1, 688318, Note_on_c, 0, 77, 84
1, 688318, Control_c, 0, 64, 127
1, 688318, Control_c, 0, 67, 95
1, 688320, Note_on_c, 0, 79, 91
1, 688333, Note_off_c, 0, 89, 68
1, 688333, Control_c, 0, 67, 114
1, 688336, Note_off_c, 0, 77, 72
1, 688336, Note_off_c, 0, 79, 75
1, 688338, Note_off_c, 0, 67, 65
1, 688340, Note_off_c, 0, 55, 69
1, 688348, Control_c, 0, 67, 109
1, 688362, Control_c, 0, 67, 102
1, 688377, Control_c, 0, 67, 92
1, 688392, Control_c, 0, 67, 84
1, 688422, Control_c, 0, 67, 85
1, 688436, Control_c, 0, 67, 80
1, 688451, Control_c, 0, 67, 74
1, 688466, Control_c, 0, 67, 67
1, 688481, Control_c, 0, 67, 66
1, 688496, Control_c, 0, 67, 67
1, 688510, Control_c, 0, 67, 68
1, 688525, Control_c, 0, 67, 64
1, 688540, Control_c, 0, 67, 38
1, 688554, Control_c, 0, 67, 0
1, 688562, Note_on_c, 0, 70, 75
1, 688562, Note_on_c, 0, 84, 83
1, 688563, Note_on_c, 0, 60, 73
1, 688566, Note_on_c, 0, 72, 82
1, 688568, Note_on_c, 0, 76, 79
1, 688568, Note_on_c, 0, 64, 68
1, 688581, Note_off_c, 0, 84, 72
1, 688586, Note_off_c, 0, 70, 70
1, 688587, Note_off_c, 0, 60, 70
1, 688587, Note_off_c, 0, 72, 69
1, 688588, Note_off_c, 0, 76, 71
1, 688595, Note_off_c, 0, 64, 68
1, 688777, Control_c, 0, 64, 108
1, 688792, Control_c, 0, 64, 79
1, 688801, Note_on_c, 0, 59, 73
1, 688804, Note_on_c, 0, 64, 85
1, 688807, Control_c, 0, 64, 78
1, 688808, Note_on_c, 0, 71, 94
1, 688812, Note_on_c, 0, 52, 78
1, 688822, Control_c, 0, 64, 92
1, 688825, Note_off_c, 0, 59, 70
1, 688828, Note_off_c, 0, 64, 66
1, 688837, Note_off_c, 0, 71, 65
1, 688837, Control_c, 0, 64, 127
1, 688840, Note_off_c, 0, 52, 67
1, 688992, Control_c, 0, 64, 74
1, 689007, Control_c, 0, 64, 0
1, 689025, Note_on_c, 0, 42, 96
1, 689034, Note_on_c, 0, 30, 67
1, 689037, Control_c, 0, 64, 52
1, 689037, Control_c, 0, 67, 46
1, 689045, Note_on_c, 0, 54, 70
1, 689051, Note_off_c, 0, 42, 67
1, 689052, Control_c, 0, 64, 79
1, 689052, Control_c, 0, 67, 40
1, 689060, Note_off_c, 0, 30, 58
1, 689066, Control_c, 0, 64, 127
1, 689066, Control_c, 0, 67, 37
1, 689075, Note_off_c, 0, 54, 64
1, 689081, Control_c, 0, 67, 35
1, 689084, Note_on_c, 0, 53, 18
1, 689096, Control_c, 0, 67, 35
1, 689111, Control_c, 0, 67, 39
1, 689126, Control_c, 0, 67, 38
1, 689132, Note_off_c, 0, 53, 39
1, 689141, Control_c, 0, 67, 35
1, 689156, Control_c, 0, 67, 32
1, 689170, Control_c, 0, 67, 28
1, 689203, Note_on_c, 0, 49, 71
1, 689210, Note_on_c, 0, 73, 101
1, 689216, Note_on_c, 0, 58, 76
1, 689280, Note_off_c, 0, 49, 58
1, 689289, Control_c, 0, 67, 30
1, 689290, Note_on_c, 0, 68, 52
1, 689298, Note_on_c, 0, 70, 92
1, 689304, Note_off_c, 0, 58, 62
1, 689309, Note_on_c, 0, 67, 47
1, 689319, Poly_aftertouch_c, 0, 64, 0
1, 689355, Note_off_c, 0, 73, 61
1, 689362, Note_off_c, 0, 68, 54
1, 689362, Note_off_c, 0, 67, 42
1, 689369, Note_on_c, 0, 64, 73
1, 689407, Control_c, 0, 67, 28
1, 689411, Note_off_c, 0, 64, 62
1, 689415, Note_off_c, 0, 70, 63
1, 689422, Control_c, 0, 67, 26
1, 689437, Control_c, 0, 67, 22
1, 689445, Note_on_c, 0, 62, 76
1, 689451, Control_c, 0, 67, 0
1, 689507, Note_on_c, 0, 61, 85
1, 689513, Note_off_c, 0, 62, 61
1, 689564, Note_on_c, 0, 58, 72
1, 689568, Note_off_c, 0, 61, 63
1, 689606, Note_off_c, 0, 58, 65
1, 689621, Note_on_c, 0, 55, 62
1, 689642, Note_off_c, 0, 55, 62
1, 689697, Control_c, 0, 67, 39
1, 689712, Control_c, 0, 64, 67
1, 689712, Control_c, 0, 67, 50
1, 689713, Note_on_c, 0, 64, 97
1, 689719, Note_on_c, 0, 40, 80
1, 689719, Note_on_c, 0, 52, 85
1, 689727, Control_c, 0, 64, 0
1, 689727, Control_c, 0, 67, 40
1, 689742, Control_c, 0, 67, 32
1, 689756, Control_c, 0, 64, 37
1, 689756, Control_c, 0, 67, 0
1, 689771, Control_c, 0, 64, 66
1, 689786, Control_c, 0, 64, 104
1, 689801, Control_c, 0, 64, 127
1, 689820, Note_off_c, 0, 52, 56
1, 689844, Note_on_c, 0, 48, 64
1, 689846, Note_off_c, 0, 40, 47
1, 689857, Note_on_c, 0, 60, 75
1, 689859, Note_off_c, 0, 64, 65
1, 689932, Note_on_c, 0, 59, 69
1, 689937, Note_on_c, 0, 47, 48
1, 689948, Note_off_c, 0, 60, 58
1, 689996, Note_off_c, 0, 48, 37
1, 689996, Note_off_c, 0, 59, 62
1, 690005, Note_on_c, 0, 58, 74
1, 690024, Note_on_c, 0, 46, 69
1, 690027, Note_off_c, 0, 47, 63
1, 690056, Note_off_c, 0, 46, 64
1, 690056, Note_off_c, 0, 58, 62
1, 690057, Note_on_c, 0, 55, 69
1, 690092, Note_off_c, 0, 55, 65
1, 690126, Note_on_c, 0, 52, 83
1, 690183, Note_off_c, 0, 52, 66
1, 690187, Note_on_c, 0, 48, 69
1, 690235, Note_off_c, 0, 48, 44
1, 690250, Note_on_c, 0, 47, 84
1, 690300, Note_off_c, 0, 47, 63
1, 690305, Control_c, 0, 64, 115
1, 690306, Note_on_c, 0, 46, 96
1, 690320, Control_c, 0, 64, 55
1, 690325, Note_off_c, 0, 46, 72
1, 690334, Control_c, 0, 64, 0
1, 690375, Note_on_c, 0, 42, 111
1, 690380, Note_on_c, 0, 30, 91
1, 690380, Control_c, 0, 64, 54
1, 690395, Control_c, 0, 64, 127
1, 690413, Note_off_c, 0, 30, 68
1, 690413, Note_off_c, 0, 42, 64
1, 690587, Note_on_c, 0, 50, 83
1, 690605, Note_on_c, 0, 78, 97
1, 690741, Note_on_c, 0, 59, 83
1, 690741, Note_on_c, 0, 62, 95
1, 690746, Note_on_c, 0, 54, 87
1, 690768, Note_off_c, 0, 50, 60
1, 690790, Note_off_c, 0, 78, 0
1, 690808, Note_on_c, 0, 86, 100
1, 690809, Note_on_c, 0, 74, 105
1, 690810, Note_on_c, 0, 83, 101
1, 690825, Note_off_c, 0, 62, 59
1, 690827, Note_on_c, 0, 56, 5
1, 690827, Poly_aftertouch_c, 0, 78, 127
1, 690898, Note_off_c, 0, 59, 60
1, 690908, Note_on_c, 0, 50, 71
1, 690920, Note_off_c, 0, 54, 62
1, 690929, Note_off_c, 0, 56, 35
1, 690936, Note_off_c, 0, 50, 67
1, 690979, Poly_aftertouch_c, 0, 78, 0
1, 690982, Note_off_c, 0, 74, 53
1, 690990, Note_off_c, 0, 86, 59
1, 691043, Note_on_c, 0, 42, 95
1, 691091, Note_off_c, 0, 83, 39
1, 691144, Note_on_c, 0, 30, 88
1, 691168, Note_on_c, 0, 78, 95
1, 691170, Note_on_c, 0, 74, 100
1, 691179, Note_off_c, 0, 42, 61
1, 691195, Note_on_c, 0, 29, 36
1, 691220, Note_on_c, 0, 79, 26
1, 691243, Note_off_c, 0, 29, 42
1, 691243, Note_off_c, 0, 74, 59
1, 691261, Note_off_c, 0, 79, 49
1, 691299, Note_on_c, 0, 42, 100
1, 691300, Note_off_c, 0, 30, 62
1, 691313, Control_c, 0, 64, 65
1, 691327, Control_c, 0, 64, 0
1, 691341, Note_on_c, 0, 73, 104
1, 691344, Note_on_c, 0, 81, 93
1, 691347, Note_on_c, 0, 85, 90
1, 691347, Note_off_c, 0, 42, 66
1, 691357, Control_c, 0, 64, 65
1, 691372, Control_c, 0, 64, 127
1, 691423, Note_off_c, 0, 78, 61
1, 691455, Note_on_c, 0, 50, 84
1, 691460, Note_off_c, 0, 85, 63
1, 691478, Note_off_c, 0, 81, 62
1, 691549, Note_off_c, 0, 50, 52
1, 691559, Note_on_c, 0, 59, 71
1, 691559, Note_on_c, 0, 62, 82
1, 691561, Note_off_c, 0, 73, 57
1, 691584, Note_on_c, 0, 54, 63
1, 691618, Note_off_c, 0, 62, 59
1, 691652, Note_off_c, 0, 59, 62
1, 691657, Note_on_c, 0, 50, 88
1, 691671, Note_on_c, 0, 78, 91
1, 691673, Note_on_c, 0, 74, 99
1, 691675, Note_off_c, 0, 54, 63
1, 691684, Note_off_c, 0, 50, 67
1, 691757, Control_c, 0, 64, 102
1, 691772, Control_c, 0, 64, 61
1, 691782, Note_on_c, 0, 42, 97
1, 691786, Control_c, 0, 64, 0
1, 691797, Note_on_c, 0, 79, 92
1, 691799, Note_on_c, 0, 71, 97
1, 691800, Note_on_c, 0, 83, 91
1, 691816, Control_c, 0, 64, 41
1, 691827, Note_off_c, 0, 78, 60
1, 691831, Control_c, 0, 64, 69
1, 691846, Control_c, 0, 64, 127
1, 691886, Note_off_c, 0, 74, 61
1, 691906, Note_on_c, 0, 30, 92
1, 691928, Note_off_c, 0, 83, 62
1, 691930, Note_off_c, 0, 42, 65
1, 691937, Note_off_c, 0, 79, 60
1, 692004, Note_off_c, 0, 30, 62
1, 692017, Note_on_c, 0, 42, 92
1, 692051, Note_off_c, 0, 42, 65
1, 692052, Note_off_c, 0, 71, 59
1, 692133, Note_on_c, 0, 71, 92
1, 692133, Note_on_c, 0, 74, 91
1, 692143, Note_on_c, 0, 50, 85
1, 692239, Control_c, 0, 64, 69
1, 692251, Note_on_c, 0, 59, 72
1, 692253, Note_on_c, 0, 62, 88
1, 692254, Note_on_c, 0, 78, 85
1, 692254, Control_c, 0, 64, 0
1, 692256, Note_on_c, 0, 69, 100
1, 692258, Note_on_c, 0, 81, 94
1, 692266, Note_on_c, 0, 54, 81
1, 692269, Note_off_c, 0, 78, 43
1, 692270, Note_on_c, 0, 77, 79
1, 692282, Note_off_c, 0, 50, 57
1, 692283, Control_c, 0, 64, 55
1, 692291, Note_on_c, 0, 56, 35
1, 692298, Control_c, 0, 64, 90
1, 692300, Note_off_c, 0, 62, 63
1, 692309, Note_on_c, 0, 76, 35
1, 692313, Control_c, 0, 64, 127
1, 692329, Note_off_c, 0, 59, 59
1, 692333, Note_off_c, 0, 56, 46
1, 692346, Note_off_c, 0, 76, 35
1, 692351, Note_on_c, 0, 50, 76
1, 692363, Note_off_c, 0, 54, 61
1, 692382, Note_off_c, 0, 50, 64
1, 692436, Note_off_c, 0, 81, 51
1, 692440, Note_off_c, 0, 77, 57
1, 692464, Note_on_c, 0, 42, 93
1, 692483, Note_off_c, 0, 71, 42
1, 692485, Note_off_c, 0, 74, 39
1, 692497, Note_off_c, 0, 69, 55
1, 692583, Note_on_c, 0, 30, 85
1, 692584, Note_on_c, 0, 74, 98
1, 692586, Note_on_c, 0, 71, 99
1, 692601, Note_on_c, 0, 32, 56
1, 692607, Note_off_c, 0, 42, 62
1, 692634, Note_off_c, 0, 32, 57
1, 692678, Note_off_c, 0, 71, 58
1, 692691, Control_c, 0, 64, 81
1, 692693, Note_off_c, 0, 30, 62
1, 692697, Note_on_c, 0, 42, 94
1, 692706, Note_on_c, 0, 76, 98
1, 692706, Note_on_c, 0, 71, 71
1, 692706, Control_c, 0, 64, 60
1, 692708, Note_on_c, 0, 67, 93
1, 692712, Note_on_c, 0, 79, 98
1, 692721, Control_c, 0, 64, 56
1, 692731, Note_off_c, 0, 42, 61
1, 692736, Control_c, 0, 64, 66
1, 692751, Control_c, 0, 64, 94
1, 692765, Control_c, 0, 64, 127
1, 692825, Note_on_c, 0, 50, 88
1, 692895, Note_off_c, 0, 74, 53
1, 692903, Note_off_c, 0, 71, 51
1, 692929, Note_off_c, 0, 79, 57
1, 692940, Note_off_c, 0, 67, 56
1, 692941, Note_on_c, 0, 59, 73
1, 692948, Note_on_c, 0, 62, 84
1, 692966, Note_off_c, 0, 50, 61
1, 692969, Note_on_c, 0, 54, 78
1, 692983, Note_off_c, 0, 76, 60
1, 692996, Note_on_c, 0, 56, 32
1, 693008, Note_off_c, 0, 62, 61
1, 693040, Note_off_c, 0, 59, 63
1, 693040, Note_off_c, 0, 56, 58
1, 693043, Note_on_c, 0, 74, 86
1, 693043, Note_on_c, 0, 71, 82
1, 693060, Note_on_c, 0, 50, 81
1, 693072, Note_off_c, 0, 54, 61
1, 693083, Note_off_c, 0, 50, 67
1, 693122, Control_c, 0, 64, 92
1, 693137, Control_c, 0, 64, 87
1, 693144, Note_off_c, 0, 74, 61
1, 693144, Note_off_c, 0, 71, 62
1, 693151, Control_c, 0, 64, 127
1, 693151, Control_c, 0, 67, 49
1, 693166, Control_c, 0, 67, 94
1, 693171, Note_on_c, 0, 42, 101
1, 693180, Note_on_c, 0, 66, 97
1, 693181, Control_c, 0, 67, 95
1, 693185, Note_on_c, 0, 78, 85
1, 693196, Control_c, 0, 67, 85
1, 693202, Note_off_c, 0, 78, 74
1, 693211, Control_c, 0, 67, 63
1, 693212, Note_off_c, 0, 66, 59
1, 693225, Control_c, 0, 67, 26
1, 693240, Control_c, 0, 67, 0
1, 693302, Note_on_c, 0, 30, 90
1, 693323, Note_off_c, 0, 42, 61
1, 693359, Note_off_c, 0, 30, 62
1, 693411, Control_c, 0, 64, 72
1, 693425, Control_c, 0, 64, 0
1, 693461, Note_on_c, 0, 38, 99
1, 693466, Note_on_c, 0, 26, 100
1, 693473, Note_on_c, 0, 53, 103
1, 693476, Note_on_c, 0, 62, 95
1, 693476, Note_on_c, 0, 65, 97
1, 693479, Note_on_c, 0, 58, 88
1, 693484, Control_c, 0, 64, 77
1, 693494, Note_off_c, 0, 26, 67
1, 693496, Note_off_c, 0, 53, 68
1, 693499, Control_c, 0, 64, 127
1, 693502, Note_off_c, 0, 38, 66
1, 693516, Note_off_c, 0, 62, 65
1, 693518, Note_off_c, 0, 58, 60
1, 693518, Note_off_c, 0, 65, 66
1, 693695, Note_on_c, 0, 46, 87
1, 693770, Note_on_c, 0, 77, 85
1, 693795, Note_on_c, 0, 74, 72
1, 693814, Note_off_c, 0, 46, 60
1, 693825, Note_on_c, 0, 53, 51
1, 693830, Note_off_c, 0, 74, 56
1, 693839, Note_off_c, 0, 77, 63
1, 693844, Note_on_c, 0, 62, 100
1, 693847, Note_on_c, 0, 58, 89
1, 693856, Note_on_c, 0, 74, 71
1, 693859, Note_on_c, 0, 82, 105
1, 693859, Note_on_c, 0, 86, 105
1, 693886, Control_c, 0, 67, 24
1, 693887, Note_off_c, 0, 74, 66
1, 693891, Note_off_c, 0, 86, 68
1, 693895, Note_off_c, 0, 82, 69
1, 693896, Note_off_c, 0, 62, 62
1, 693900, Control_c, 0, 67, 21
1, 693915, Control_c, 0, 67, 0
1, 693928, Note_off_c, 0, 58, 68
1, 693935, Poly_aftertouch_c, 0, 77, 0
1, 693973, Note_off_c, 0, 53, 59
1, 693981, Note_on_c, 0, 46, 80
1, 694009, Note_off_c, 0, 46, 66
1, 694071, Note_on_c, 0, 75, 22
1, 694109, Note_on_c, 0, 38, 94
1, 694119, Note_off_c, 0, 75, 47
1, 694226, Note_on_c, 0, 26, 89
1, 694247, Note_on_c, 0, 64, 84
1, 694247, Note_on_c, 0, 76, 90
1, 694248, Note_on_c, 0, 72, 80
1, 694260, Note_off_c, 0, 38, 57
1, 694276, Note_off_c, 0, 64, 63
1, 694282, Note_off_c, 0, 72, 63
1, 694291, Note_off_c, 0, 76, 65
1, 694343, Note_on_c, 0, 38, 95
1, 694351, Note_off_c, 0, 26, 62
1, 694357, Note_on_c, 0, 72, 103
1, 694357, Note_on_c, 0, 84, 107
1, 694359, Note_on_c, 0, 81, 100
1, 694373, Note_off_c, 0, 81, 76
1, 694375, Note_off_c, 0, 72, 70
1, 694384, Note_off_c, 0, 38, 67
1, 694384, Note_off_c, 0, 84, 62
1, 694456, Control_c, 0, 67, 21
1, 694470, Control_c, 0, 67, 25
1, 694485, Control_c, 0, 67, 27
1, 694500, Control_c, 0, 67, 24
1, 694504, Note_on_c, 0, 46, 66
1, 694515, Control_c, 0, 67, 0
1, 694548, Note_on_c, 0, 53, 65
1, 694569, Note_off_c, 0, 46, 63
1, 694584, Note_on_c, 0, 62, 82
1, 694595, Note_on_c, 0, 58, 76
1, 694644, Note_off_c, 0, 62, 61
1, 694670, Note_off_c, 0, 58, 65
1, 694683, Note_off_c, 0, 53, 58
1, 694685, Note_on_c, 0, 46, 93
1, 694709, Note_on_c, 0, 77, 87
1, 694715, Note_on_c, 0, 74, 81
1, 694716, Note_on_c, 0, 65, 75
1, 694725, Note_on_c, 0, 67, 67
1, 694730, Note_off_c, 0, 46, 63
1, 694740, Note_off_c, 0, 74, 65
1, 694741, Note_off_c, 0, 65, 70
1, 694742, Note_off_c, 0, 67, 65
1, 694752, Note_off_c, 0, 77, 66
1, 694806, Note_on_c, 0, 38, 100
1, 694811, Control_c, 0, 67, 29
1, 694813, Note_on_c, 0, 82, 102
1, 694814, Note_on_c, 0, 70, 108
1, 694816, Note_on_c, 0, 79, 95
1, 694826, Control_c, 0, 67, 40
1, 694831, Note_off_c, 0, 70, 70
1, 694832, Note_off_c, 0, 79, 73
1, 694841, Control_c, 0, 67, 34
1, 694845, Note_off_c, 0, 82, 64
1, 694855, Control_c, 0, 67, 31
1, 694870, Control_c, 0, 67, 25
1, 694885, Control_c, 0, 67, 0
1, 694937, Control_c, 0, 67, 19
1, 694947, Note_on_c, 0, 26, 90
1, 694952, Control_c, 0, 67, 0
1, 694968, Note_off_c, 0, 38, 59
1, 695019, Note_off_c, 0, 26, 63
1, 695043, Note_on_c, 0, 38, 89
1, 695079, Note_off_c, 0, 38, 65
1, 695157, Note_on_c, 0, 62, 85
1, 695159, Note_on_c, 0, 74, 86
1, 695162, Note_on_c, 0, 70, 85
1, 695180, Note_off_c, 0, 62, 70
1, 695185, Note_on_c, 0, 46, 79
1, 695192, Note_off_c, 0, 70, 67
1, 695199, Note_off_c, 0, 74, 65
1, 695251, Note_on_c, 0, 53, 77
1, 695260, Note_off_c, 0, 46, 62
1, 695263, Note_on_c, 0, 81, 109
1, 695265, Note_on_c, 0, 67, 94
1, 695266, Note_on_c, 0, 62, 97
1, 695268, Note_on_c, 0, 77, 76
1, 695273, Note_on_c, 0, 69, 79
1, 695277, Note_on_c, 0, 76, 78
1, 695278, Note_on_c, 0, 58, 84
1, 695282, Note_off_c, 0, 67, 74
1, 695284, Note_off_c, 0, 81, 64
1, 695286, Note_off_c, 0, 69, 69
1, 695286, Note_off_c, 0, 77, 69
1, 695291, Note_off_c, 0, 76, 69
1, 695293, Note_on_c, 0, 60, 55
1, 695293, Note_off_c, 0, 60, 127
1, 695314, Note_off_c, 0, 62, 61
1, 695339, Note_off_c, 0, 58, 67
1, 695369, Note_on_c, 0, 46, 90
1, 695371, Note_off_c, 0, 53, 59
1, 695403, Poly_aftertouch_c, 0, 69, 127
1, 695405, Note_off_c, 0, 46, 67
1, 695427, Note_on_c, 0, 73, 57
1, 695427, Poly_aftertouch_c, 0, 69, 0
1, 695482, Note_on_c, 0, 38, 96
1, 695489, Note_off_c, 0, 73, 58
1, 695597, Note_on_c, 0, 62, 81
1, 695600, Note_on_c, 0, 74, 91
1, 695601, Note_on_c, 0, 70, 91
1, 695611, Note_on_c, 0, 26, 87
1, 695623, Note_off_c, 0, 62, 62
1, 695633, Note_off_c, 0, 38, 63
1, 695639, Note_off_c, 0, 70, 63
1, 695639, Note_off_c, 0, 74, 67
1, 695687, Control_c, 0, 64, 67
1, 695699, Note_off_c, 0, 26, 66
1, 695702, Control_c, 0, 64, 62
1, 695706, Note_on_c, 0, 67, 99
1, 695708, Note_on_c, 0, 75, 98
1, 695708, Note_on_c, 0, 79, 100
1, 695709, Note_on_c, 0, 38, 96
1, 695717, Control_c, 0, 64, 78
1, 695720, Note_off_c, 0, 67, 77
1, 695721, Note_off_c, 0, 79, 81
1, 695725, Note_off_c, 0, 75, 70
1, 695731, Control_c, 0, 64, 127
1, 695745, Note_off_c, 0, 38, 65
1, 695806, Control_c, 0, 67, 19
1, 695835, Control_c, 0, 67, 0
1, 695847, Note_on_c, 0, 46, 73
1, 695904, Note_on_c, 0, 53, 64
1, 695916, Note_off_c, 0, 46, 62
1, 695934, Note_on_c, 0, 62, 86
1, 695938, Note_on_c, 0, 58, 82
1, 695943, Poly_aftertouch_c, 0, 73, 127
1, 695984, Note_off_c, 0, 62, 63
1, 695991, Poly_aftertouch_c, 0, 73, 0
1, 696007, Note_off_c, 0, 58, 66
1, 696008, Note_off_c, 0, 53, 60
1, 696025, Note_on_c, 0, 46, 94
1, 696044, Note_on_c, 0, 74, 86
1, 696047, Note_on_c, 0, 62, 75
1, 696047, Note_on_c, 0, 70, 85
1, 696056, Note_on_c, 0, 64, 71
1, 696058, Note_off_c, 0, 46, 63
1, 696072, Note_off_c, 0, 64, 66
1, 696078, Note_off_c, 0, 62, 66
1, 696092, Note_off_c, 0, 70, 65
1, 696105, Note_off_c, 0, 74, 61
1, 696158, Note_on_c, 0, 38, 100
1, 696182, Note_on_c, 0, 65, 103
1, 696185, Note_on_c, 0, 77, 93
1, 696186, Note_on_c, 0, 74, 95
1, 696217, Note_off_c, 0, 65, 67
1, 696256, Note_off_c, 0, 77, 59
1, 696270, Note_off_c, 0, 74, 60
1, 696311, Note_on_c, 0, 26, 88
1, 696325, Control_c, 0, 64, 104
1, 696326, Note_off_c, 0, 38, 64
1, 696340, Control_c, 0, 64, 63
1, 696354, Control_c, 0, 64, 0
1, 696439, Note_off_c, 0, 26, 65
1, 696440, Note_on_c, 0, 38, 99
1, 696450, Control_c, 0, 64, 102
1, 696465, Control_c, 0, 64, 127
1, 696465, Control_c, 0, 67, 101
1, 696478, Note_off_c, 0, 38, 68
1, 696480, Control_c, 0, 67, 127
1, 696569, Control_c, 0, 64, 91
1, 696584, Control_c, 0, 64, 0
1, 696651, Note_on_c, 0, 66, 69
1, 696655, Note_on_c, 0, 54, 68
1, 696676, Note_off_c, 0, 66, 67
1, 696700, Note_off_c, 0, 54, 42
1, 696724, Note_on_c, 0, 72, 71
1, 696727, Note_on_c, 0, 76, 76
1, 696729, Note_on_c, 0, 64, 64
1, 696747, Note_off_c, 0, 64, 64
1, 696750, Note_on_c, 0, 60, 35
1, 696755, Note_off_c, 0, 72, 64
1, 696776, Note_on_c, 0, 81, 79
1, 696780, Note_off_c, 0, 76, 64
1, 696784, Note_off_c, 0, 60, 55
1, 696849, Note_off_c, 0, 81, 63
1, 696857, Note_on_c, 0, 67, 76
1, 696861, Note_on_c, 0, 55, 76
1, 696905, Note_off_c, 0, 67, 59
1, 696911, Control_c, 0, 64, 43
1, 696919, Note_on_c, 0, 61, 83
1, 696921, Note_on_c, 0, 77, 70
1, 696923, Note_on_c, 0, 65, 82
1, 696923, Note_on_c, 0, 73, 70
1, 696926, Control_c, 0, 64, 0
1, 696930, Note_off_c, 0, 55, 64
1, 696951, Note_off_c, 0, 61, 64
1, 696957, Note_off_c, 0, 65, 65
1, 696976, Note_on_c, 0, 81, 85
1, 696983, Note_off_c, 0, 73, 62
1, 696993, Note_off_c, 0, 77, 63
1, 697000, Control_c, 0, 67, 117
1, 697015, Control_c, 0, 67, 56
1, 697030, Control_c, 0, 67, 0
1, 697042, Note_on_c, 0, 57, 80
1, 697045, Note_off_c, 0, 81, 65
1, 697060, Note_on_c, 0, 69, 83
1, 697089, Control_c, 0, 67, 28
1, 697104, Control_c, 0, 64, 74
1, 697104, Control_c, 0, 67, 34
1, 697115, Note_on_c, 0, 66, 90
1, 697117, Note_on_c, 0, 62, 76
1, 697118, Control_c, 0, 64, 127
1, 697118, Control_c, 0, 67, 24
1, 697119, Note_off_c, 0, 69, 60
1, 697130, Note_on_c, 0, 78, 62
1, 697130, Note_off_c, 0, 78, 127
1, 697131, Note_on_c, 0, 74, 76
1, 697131, Note_off_c, 0, 57, 66
1, 697133, Control_c, 0, 67, 0
1, 697138, Note_on_c, 0, 77, 79
1, 697174, Note_off_c, 0, 66, 62
1, 697180, Note_on_c, 0, 81, 79
1, 697180, Note_off_c, 0, 62, 59
1, 697192, Note_off_c, 0, 77, 62
1, 697198, Note_off_c, 0, 74, 60
1, 697200, Control_c, 0, 67, 21
1, 697215, Control_c, 0, 67, 24
1, 697230, Control_c, 0, 67, 0
1, 697241, Note_off_c, 0, 81, 65
1, 697259, Control_c, 0, 64, 88
1, 697260, Note_on_c, 0, 58, 83
1, 697273, Note_on_c, 0, 70, 85
1, 697274, Control_c, 0, 64, 49
1, 697289, Control_c, 0, 64, 0
1, 697318, Control_c, 0, 64, 51
1, 697321, Note_off_c, 0, 70, 63
1, 697325, Note_on_c, 0, 67, 77
1, 697333, Control_c, 0, 64, 71
1, 697337, Note_on_c, 0, 62, 62
1, 697337, Note_on_c, 0, 78, 77
1, 697341, Note_off_c, 0, 58, 63
1, 697344, Note_on_c, 0, 74, 62
1, 697348, Control_c, 0, 64, 95
1, 697363, Control_c, 0, 64, 127
1, 697373, Note_off_c, 0, 67, 61
1, 697414, Note_on_c, 0, 82, 81
1, 697424, Note_off_c, 0, 78, 55
1, 697437, Control_c, 0, 64, 87
1, 697445, Note_off_c, 0, 74, 36
1, 697451, Control_c, 0, 64, 62
1, 697452, Note_off_c, 0, 62, 46
1, 697466, Control_c, 0, 64, 0
1, 697490, Note_on_c, 0, 59, 56
1, 697490, Note_off_c, 0, 82, 62
1, 697512, Note_on_c, 0, 71, 82
1, 697533, Note_on_c, 0, 68, 77
1, 697541, Control_c, 0, 64, 53
1, 697545, Note_on_c, 0, 62, 74
1, 697556, Control_c, 0, 64, 77
1, 697562, Note_off_c, 0, 68, 63
1, 697568, Note_off_c, 0, 59, 61
1, 697568, Note_off_c, 0, 71, 62
1, 697571, Control_c, 0, 64, 127
1, 697578, Note_on_c, 0, 74, 73
1, 697586, Note_on_c, 0, 78, 83
1, 697594, Note_off_c, 0, 62, 59
1, 697651, Note_on_c, 0, 83, 68
1, 697723, Note_off_c, 0, 74, 61
1, 697735, Control_c, 0, 64, 84
1, 697746, Note_off_c, 0, 78, 53
1, 697749, Control_c, 0, 64, 47
1, 697749, Control_c, 0, 67, 22
1, 697759, Note_on_c, 0, 47, 89
1, 697762, Note_on_c, 0, 40, 85
1, 697764, Control_c, 0, 64, 0
1, 697779, Control_c, 0, 67, 20
1, 697780, Note_off_c, 0, 47, 72
1, 697788, Note_off_c, 0, 40, 68
1, 697794, Control_c, 0, 64, 64
1, 697794, Control_c, 0, 67, 0
1, 697809, Control_c, 0, 64, 127
1, 697823, Control_c, 0, 67, 20
1, 697838, Control_c, 0, 67, 23
1, 697843, Note_off_c, 0, 83, 58
1, 697867, Control_c, 0, 67, 21
1, 697882, Control_c, 0, 67, 0
1, 697926, Note_on_c, 0, 67, 76
1, 697939, Note_on_c, 0, 55, 75
1, 697949, Control_c, 0, 64, 91
1, 697949, Control_c, 0, 67, 20
1, 697949, Note_off_c, 0, 67, 70
1, 697964, Control_c, 0, 64, 71
1, 697979, Control_c, 0, 64, 71
1, 697991, Note_on_c, 0, 74, 70
1, 697994, Control_c, 0, 64, 86
1, 697996, Note_on_c, 0, 78, 79
1, 698001, Note_on_c, 0, 62, 64
1, 698009, Control_c, 0, 64, 127
1, 698016, Note_off_c, 0, 55, 60
1, 698023, Control_c, 0, 67, 24
1, 698036, Note_on_c, 0, 66, 59
1, 698038, Note_off_c, 0, 62, 62
1, 698038, Control_c, 0, 67, 27
1, 698049, Note_off_c, 0, 74, 61
1, 698057, Note_off_c, 0, 66, 63
1, 698060, Note_on_c, 0, 83, 78
1, 698079, Note_off_c, 0, 78, 64
1, 698082, Control_c, 0, 67, 24
1, 698084, Note_on_c, 0, 81, 60
1, 698097, Control_c, 0, 67, 22
1, 698107, Note_off_c, 0, 81, 39
1, 698112, Control_c, 0, 64, 88
1, 698120, Note_on_c, 0, 57, 80
1, 698122, Note_on_c, 0, 69, 79
1, 698127, Note_off_c, 0, 83, 66
1, 698127, Control_c, 0, 64, 70
1, 698141, Control_c, 0, 64, 68
1, 698156, Control_c, 0, 64, 79
1, 698169, Note_on_c, 0, 63, 80
1, 698171, Control_c, 0, 64, 127
1, 698173, Note_on_c, 0, 67, 65
1, 698179, Note_off_c, 0, 69, 62
1, 698185, Note_on_c, 0, 75, 80
1, 698189, Note_on_c, 0, 79, 81
1, 698190, Note_off_c, 0, 57, 62
1, 698209, Note_on_c, 0, 77, 58
1, 698215, Control_c, 0, 67, 26
1, 698223, Note_off_c, 0, 63, 63
1, 698228, Note_off_c, 0, 67, 63
1, 698230, Note_off_c, 0, 77, 40
1, 698243, Note_on_c, 0, 83, 87
1, 698245, Control_c, 0, 64, 82
1, 698246, Note_off_c, 0, 75, 62
1, 698253, Note_off_c, 0, 79, 65
1, 698260, Control_c, 0, 64, 51
1, 698267, Note_on_c, 0, 81, 10
1, 698274, Control_c, 0, 64, 0
1, 698274, Control_c, 0, 67, 22
1, 698289, Control_c, 0, 64, 43
1, 698292, Note_off_c, 0, 81, 38
1, 698304, Control_c, 0, 64, 72
1, 698304, Control_c, 0, 67, 20
1, 698309, Note_on_c, 0, 59, 69
1, 698319, Note_on_c, 0, 71, 92
1, 698319, Control_c, 0, 64, 127
1, 698322, Note_off_c, 0, 83, 63
1, 698370, Note_on_c, 0, 64, 74
1, 698373, Note_on_c, 0, 68, 89
1, 698383, Note_off_c, 0, 71, 64
1, 698384, Note_on_c, 0, 76, 76
1, 698384, Note_on_c, 0, 80, 91
1, 698392, Note_off_c, 0, 59, 65
1, 698409, Control_c, 0, 67, 0
1, 698426, Note_off_c, 0, 68, 64
1, 698432, Note_off_c, 0, 64, 62
1, 698439, Note_off_c, 0, 76, 63
1, 698439, Control_c, 0, 64, 70
1, 698446, Note_on_c, 0, 83, 91
1, 698453, Control_c, 0, 64, 0
1, 698470, Note_off_c, 0, 80, 63
1, 698483, Control_c, 0, 64, 37
1, 698498, Control_c, 0, 64, 65
1, 698504, Note_on_c, 0, 60, 79
1, 698513, Control_c, 0, 64, 89
1, 698522, Note_off_c, 0, 83, 64
1, 698527, Control_c, 0, 64, 127
1, 698532, Note_on_c, 0, 71, 73
1, 698536, Note_on_c, 0, 72, 74
1, 698566, Note_on_c, 0, 69, 77
1, 698567, Note_on_c, 0, 64, 70
1, 698581, Note_off_c, 0, 71, 60
1, 698582, Note_on_c, 0, 76, 84
1, 698582, Note_off_c, 0, 60, 64
1, 698585, Note_on_c, 0, 79, 83
1, 698587, Note_off_c, 0, 72, 60
1, 698587, Control_c, 0, 64, 74
1, 698602, Control_c, 0, 64, 38
1, 698616, Control_c, 0, 64, 0
1, 698620, Note_off_c, 0, 69, 62
1, 698631, Control_c, 0, 64, 38
1, 698652, Note_on_c, 0, 84, 86
1, 698653, Control_c, 0, 64, 69
1, 698656, Note_off_c, 0, 79, 66
1, 698668, Control_c, 0, 64, 127
1, 698670, Note_off_c, 0, 76, 61
1, 698718, Note_off_c, 0, 84, 64
1, 698738, Note_on_c, 0, 61, 73
1, 698742, Control_c, 0, 67, 19
1, 698746, Note_on_c, 0, 73, 82
1, 698757, Control_c, 0, 67, 21
1, 698772, Control_c, 0, 64, 116
1, 698781, Note_off_c, 0, 64, 37
1, 698787, Control_c, 0, 64, 73
1, 698802, Control_c, 0, 64, 0
1, 698816, Control_c, 0, 67, 24
1, 698817, Note_off_c, 0, 73, 61
1, 698822, Note_on_c, 0, 76, 65
1, 698825, Note_on_c, 0, 70, 67
1, 698829, Note_on_c, 0, 64, 46
1, 698831, Note_on_c, 0, 79, 65
1, 698831, Control_c, 0, 67, 26
1, 698846, Control_c, 0, 67, 28
1, 698861, Note_off_c, 0, 70, 65
1, 698861, Control_c, 0, 64, 62
1, 698876, Control_c, 0, 64, 70
1, 698888, Note_on_c, 0, 85, 77
1, 698890, Control_c, 0, 64, 78
1, 698891, Note_off_c, 0, 64, 63
1, 698894, Note_off_c, 0, 61, 64
1, 698898, Note_on_c, 0, 82, 57
1, 698905, Control_c, 0, 64, 102
1, 698914, Note_off_c, 0, 76, 57
1, 698920, Control_c, 0, 64, 127
1, 698920, Control_c, 0, 67, 32
1, 698927, Note_off_c, 0, 82, 60
1, 698931, Note_off_c, 0, 85, 53
1, 698935, Control_c, 0, 67, 35
1, 698938, Note_off_c, 0, 79, 53
1, 698950, Control_c, 0, 67, 40
1, 698964, Control_c, 0, 67, 47
1, 698979, Control_c, 0, 67, 56
1, 698994, Control_c, 0, 67, 66
1, 699009, Control_c, 0, 67, 77
1, 699023, Control_c, 0, 67, 88
1, 699038, Control_c, 0, 64, 85
1, 699038, Control_c, 0, 67, 92
1, 699040, Note_on_c, 0, 32, 80
1, 699049, Note_on_c, 0, 44, 83
1, 699053, Control_c, 0, 64, 59
1, 699053, Control_c, 0, 67, 93
1, 699062, Note_on_c, 0, 42, 55
1, 699068, Note_off_c, 0, 32, 64
1, 699068, Control_c, 0, 64, 52
1, 699076, Note_off_c, 0, 44, 70
1, 699083, Control_c, 0, 64, 67
1, 699083, Control_c, 0, 67, 94
1, 699095, Note_off_c, 0, 42, 34
1, 699097, Control_c, 0, 64, 104
1, 699097, Control_c, 0, 67, 96
1, 699112, Control_c, 0, 64, 127
1, 699112, Control_c, 0, 67, 103
1, 699127, Control_c, 0, 67, 110
1, 699207, Note_on_c, 0, 61, 70
1, 699210, Note_on_c, 0, 49, 62
1, 699217, Control_c, 0, 67, 108
1, 699244, Note_off_c, 0, 61, 58
1, 699275, Note_off_c, 0, 49, 60
1, 699285, Note_on_c, 0, 73, 84
1, 699291, Note_on_c, 0, 69, 64
1, 699291, Note_on_c, 0, 57, 72
1, 699306, Control_c, 0, 64, 80
1, 699320, Control_c, 0, 64, 66
1, 699335, Control_c, 0, 64, 63
1, 699342, Note_off_c, 0, 57, 60
1, 699350, Control_c, 0, 64, 69
1, 699365, Control_c, 0, 64, 86
1, 699365, Control_c, 0, 67, 106
1, 699375, Note_off_c, 0, 69, 58
1, 699380, Note_on_c, 0, 49, 68
1, 699380, Control_c, 0, 64, 127
1, 699380, Control_c, 0, 67, 103
1, 699401, Note_on_c, 0, 61, 70
1, 699401, Note_off_c, 0, 73, 55
1, 699402, Control_c, 0, 67, 100
1, 699415, Note_off_c, 0, 49, 66
1, 699417, Control_c, 0, 67, 97
1, 699425, Note_on_c, 0, 42, 71
1, 699432, Control_c, 0, 67, 91
1, 699441, Note_off_c, 0, 61, 60
1, 699446, Control_c, 0, 67, 84
1, 699461, Control_c, 0, 67, 77
1, 699476, Control_c, 0, 67, 61
1, 699491, Control_c, 0, 67, 27
1, 699506, Control_c, 0, 67, 0
1, 699508, Note_on_c, 0, 58, 75
1, 699511, Note_on_c, 0, 74, 86
1, 699512, Note_on_c, 0, 70, 82
1, 699514, Note_off_c, 0, 42, 61
1, 699561, Note_off_c, 0, 58, 64
1, 699572, Note_on_c, 0, 50, 68
1, 699610, Note_off_c, 0, 50, 64
1, 699632, Note_on_c, 0, 42, 66
1, 699633, Note_on_c, 0, 62, 76
1, 699668, Note_off_c, 0, 42, 54
1, 699669, Control_c, 0, 64, 76
1, 699671, Note_off_c, 0, 70, 49
1, 699684, Control_c, 0, 64, 0
1, 699756, Note_off_c, 0, 62, 57
1, 699771, Note_on_c, 0, 43, 93
1, 699775, Note_on_c, 0, 31, 90
1, 699787, Control_c, 0, 64, 59
1, 699797, Note_off_c, 0, 74, 34
1, 699802, Note_off_c, 0, 31, 69
1, 699802, Control_c, 0, 64, 115
1, 699807, Note_off_c, 0, 43, 65
1, 699817, Control_c, 0, 64, 127
1, 699832, Control_c, 0, 67, 21
1, 699846, Control_c, 0, 67, 34
1, 699861, Control_c, 0, 67, 39
1, 699876, Control_c, 0, 67, 37
1, 699891, Control_c, 0, 67, 34
1, 699906, Control_c, 0, 67, 32
1, 699920, Control_c, 0, 67, 32
1, 699935, Control_c, 0, 67, 34
1, 699947, Note_on_c, 0, 50, 59
1, 699959, Note_on_c, 0, 62, 75
1, 699966, Control_c, 0, 67, 33
1, 699981, Control_c, 0, 67, 33
1, 699996, Control_c, 0, 67, 32
1, 700002, Note_off_c, 0, 62, 56
1, 700007, Note_off_c, 0, 50, 61
1, 700028, Note_on_c, 0, 74, 90
1, 700029, Note_on_c, 0, 58, 74
1, 700029, Note_on_c, 0, 70, 85
1, 700040, Control_c, 0, 67, 30
1, 700055, Control_c, 0, 67, 25
1, 700069, Control_c, 0, 67, 0
1, 700071, Note_off_c, 0, 58, 63
1, 700117, Note_on_c, 0, 50, 74
1, 700119, Note_on_c, 0, 62, 82
1, 700129, Note_off_c, 0, 74, 61
1, 700158, Note_off_c, 0, 70, 62
1, 700171, Note_on_c, 0, 43, 76
1, 700175, Note_off_c, 0, 50, 58
1, 700176, Note_off_c, 0, 62, 63
1, 700236, Note_on_c, 0, 71, 76
1, 700241, Note_off_c, 0, 43, 58
1, 700246, Note_on_c, 0, 75, 97
1, 700248, Note_on_c, 0, 59, 78
1, 700278, Note_on_c, 0, 73, 44
1, 700280, Note_on_c, 0, 51, 82
1, 700294, Note_off_c, 0, 59, 62
1, 700308, Note_off_c, 0, 73, 55
1, 700319, Note_off_c, 0, 51, 62
1, 700355, Note_on_c, 0, 63, 88
1, 700402, Control_c, 0, 64, 82
1, 700417, Control_c, 0, 64, 0
1, 700450, Note_off_c, 0, 71, 61
1, 700460, Note_off_c, 0, 63, 61
1, 700477, Note_off_c, 0, 75, 57
1, 700482, Note_on_c, 0, 44, 106
1, 700483, Note_on_c, 0, 32, 95
1, 700507, Control_c, 0, 64, 59
1, 700507, Note_off_c, 0, 32, 68
1, 700522, Control_c, 0, 64, 127
1, 700522, Control_c, 0, 67, 20
1, 700523, Note_off_c, 0, 44, 62
1, 700537, Control_c, 0, 67, 37
1, 700551, Control_c, 0, 67, 52
1, 700566, Control_c, 0, 67, 58
1, 700581, Control_c, 0, 67, 66
1, 700595, Control_c, 0, 67, 76
1, 700610, Control_c, 0, 67, 91
1, 700625, Control_c, 0, 67, 100
1, 700655, Control_c, 0, 67, 97
1, 700685, Note_on_c, 0, 63, 73
1, 700700, Control_c, 0, 67, 101
1, 700705, Note_on_c, 0, 52, 50
1, 700711, Note_on_c, 0, 53, 56
1, 700744, Control_c, 0, 67, 98
1, 700763, Note_off_c, 0, 63, 61
1, 700763, Note_off_c, 0, 53, 57
1, 700775, Control_c, 0, 67, 102
1, 700788, Note_on_c, 0, 62, 81
1, 700801, Note_on_c, 0, 75, 96
1, 700805, Note_on_c, 0, 71, 86
1, 700819, Control_c, 0, 64, 112
1, 700834, Control_c, 0, 64, 84
1, 700838, Note_on_c, 0, 73, 43
1, 700849, Control_c, 0, 64, 85
1, 700862, Note_off_c, 0, 62, 61
1, 700864, Control_c, 0, 64, 127
1, 700864, Control_c, 0, 67, 106
1, 700875, Note_on_c, 0, 61, 76
1, 700899, Note_off_c, 0, 73, 0
1, 700915, Note_on_c, 0, 63, 71
1, 700917, Note_on_c, 0, 73, 31
1, 700945, Control_c, 0, 67, 108
1, 700954, Note_off_c, 0, 71, 60
1, 700960, Control_c, 0, 67, 110
1, 700961, Note_off_c, 0, 75, 60
1, 700962, Note_off_c, 0, 73, 48
1, 700968, Note_off_c, 0, 61, 59
1, 700976, Note_on_c, 0, 60, 67
1, 700992, Note_off_c, 0, 63, 62
1, 701034, Control_c, 0, 64, 98
1, 701036, Note_on_c, 0, 76, 91
1, 701037, Note_on_c, 0, 71, 81
1, 701037, Note_on_c, 0, 59, 75
1, 701042, Note_off_c, 0, 60, 65
1, 701049, Control_c, 0, 64, 68
1, 701064, Control_c, 0, 64, 56
1, 701065, Note_on_c, 0, 73, 53
1, 701079, Control_c, 0, 64, 62
1, 701093, Control_c, 0, 64, 74
1, 701097, Note_off_c, 0, 73, 55
1, 701108, Control_c, 0, 64, 101
1, 701115, Note_off_c, 0, 59, 61
1, 701122, Note_on_c, 0, 58, 80
1, 701123, Control_c, 0, 64, 127
1, 701138, Note_on_c, 0, 64, 74
1, 701138, Control_c, 0, 67, 112
1, 701155, Note_off_c, 0, 71, 62
1, 701179, Note_off_c, 0, 58, 62
1, 701181, Note_off_c, 0, 76, 61
1, 701205, Note_on_c, 0, 57, 73
1, 701206, Note_off_c, 0, 64, 58
1, 701226, Control_c, 0, 67, 115
1, 701241, Control_c, 0, 64, 75
1, 701251, Note_on_c, 0, 76, 87
1, 701256, Control_c, 0, 64, 38
1, 701257, Note_on_c, 0, 72, 67
1, 701271, Control_c, 0, 64, 0
1, 701275, Note_on_c, 0, 56, 77
1, 701276, Note_off_c, 0, 57, 64
1, 701286, Control_c, 0, 67, 117
1, 701300, Control_c, 0, 64, 61
1, 701300, Control_c, 0, 67, 120
1, 701315, Control_c, 0, 64, 80
1, 701315, Control_c, 0, 67, 124
1, 701330, Control_c, 0, 64, 108
1, 701345, Control_c, 0, 64, 127
1, 701348, Note_off_c, 0, 56, 60
1, 701360, Note_on_c, 0, 64, 63
1, 701360, Control_c, 0, 67, 127
1, 701371, Note_on_c, 0, 55, 69
1, 701374, Note_off_c, 0, 72, 62
1, 701398, Note_off_c, 0, 76, 64
1, 701415, Note_off_c, 0, 64, 61
1, 701437, Note_off_c, 0, 55, 60
1, 701464, Control_c, 0, 64, 100
1, 701470, Note_on_c, 0, 54, 66
1, 701479, Control_c, 0, 64, 69
1, 701486, Note_off_c, 0, 52, 50
1, 701492, Note_on_c, 0, 77, 74
1, 701493, Control_c, 0, 64, 51
1, 701494, Note_on_c, 0, 73, 72
1, 701508, Control_c, 0, 64, 47
1, 701523, Control_c, 0, 64, 61
1, 701537, Control_c, 0, 64, 76
1, 701552, Control_c, 0, 64, 117
1, 701553, Note_off_c, 0, 54, 61
1, 701568, Control_c, 0, 64, 127
1, 701577, Note_on_c, 0, 53, 51
1, 701594, Note_on_c, 0, 65, 69
1, 701596, Note_off_c, 0, 77, 63
1, 701647, Note_off_c, 0, 73, 58
1, 701663, Note_off_c, 0, 65, 62
1, 701665, Note_off_c, 0, 53, 61
1, 701738, Control_c, 0, 64, 78
1, 701753, Control_c, 0, 64, 34
1, 701768, Control_c, 0, 64, 0
1, 701783, Note_on_c, 0, 45, 51
1, 701783, Note_on_c, 0, 50, 58
1, 701788, Note_on_c, 0, 78, 70
1, 701801, Note_on_c, 0, 66, 60
1, 701802, Note_on_c, 0, 73, 50
1, 701812, Control_c, 0, 64, 46
1, 701827, Control_c, 0, 64, 62
1, 701830, Note_off_c, 0, 66, 66
1, 701842, Control_c, 0, 64, 68
1, 701857, Control_c, 0, 64, 71
1, 701872, Control_c, 0, 64, 73
1, 701887, Control_c, 0, 64, 76
1, 701899, Note_off_c, 0, 78, 63
1, 701902, Control_c, 0, 64, 78
1, 701904, Note_on_c, 0, 75, 44
1, 701911, Note_off_c, 0, 50, 60
1, 701916, Control_c, 0, 64, 79
1, 701922, Note_on_c, 0, 54, 62
1, 701926, Note_off_c, 0, 45, 62
1, 701930, Note_off_c, 0, 75, 57
1, 701932, Note_on_c, 0, 71, 30
1, 701938, Note_off_c, 0, 73, 55
1, 701953, Note_off_c, 0, 54, 64
1, 701961, Control_c, 0, 64, 79
1, 701964, Note_off_c, 0, 71, 48
1, 701976, Control_c, 0, 64, 80
1, 701982, Note_on_c, 0, 57, 65
1, 701990, Control_c, 0, 64, 81
1, 702005, Control_c, 0, 64, 81
1, 702010, Note_on_c, 0, 79, 89
1, 702017, Note_on_c, 0, 74, 53
1, 702035, Control_c, 0, 64, 82
1, 702039, Note_off_c, 0, 57, 62
1, 702049, Control_c, 0, 64, 87
1, 702064, Control_c, 0, 64, 117
1, 702066, Note_on_c, 0, 62, 35
1, 702073, Note_on_c, 0, 60, 27
1, 702079, Control_c, 0, 64, 127
1, 702099, Note_off_c, 0, 62, 46
1, 702101, Note_off_c, 0, 74, 53
1, 702102, Note_on_c, 0, 76, 71
1, 702111, Note_off_c, 0, 60, 53
1, 702112, Note_on_c, 0, 73, 62
1, 702119, Note_off_c, 0, 79, 64
1, 702142, Note_off_c, 0, 73, 66
1, 702152, Note_off_c, 0, 76, 65
1, 702175, Note_on_c, 0, 64, 71
1, 702206, Poly_aftertouch_c, 0, 77, 0
1, 702212, Control_c, 0, 64, 92
1, 702227, Control_c, 0, 64, 74
1, 702231, Note_on_c, 0, 81, 84
1, 702234, Note_on_c, 0, 76, 81
1, 702241, Control_c, 0, 64, 71
1, 702253, Note_on_c, 0, 66, 72
1, 702256, Control_c, 0, 64, 76
1, 702263, Note_off_c, 0, 64, 62
1, 702271, Control_c, 0, 64, 87
1, 702286, Control_c, 0, 64, 102
1, 702293, Note_off_c, 0, 76, 55
1, 702309, Note_off_c, 0, 66, 56
1, 702316, Note_on_c, 0, 67, 73
1, 702320, Note_on_c, 0, 78, 73
1, 702333, Note_on_c, 0, 74, 30
1, 702337, Note_off_c, 0, 81, 63
1, 702345, Control_c, 0, 64, 105
1, 702349, Note_off_c, 0, 67, 66
1, 702361, Control_c, 0, 64, 111
1, 702368, Note_off_c, 0, 74, 52
1, 702376, Control_c, 0, 64, 116
1, 702376, Note_off_c, 0, 78, 63
1, 702394, Note_on_c, 0, 69, 65
1, 702398, Control_c, 0, 64, 100
1, 702413, Control_c, 0, 64, 69
1, 702427, Control_c, 0, 64, 0
1, 702453, Note_off_c, 0, 69, 61
1, 702459, Note_on_c, 0, 82, 81
1, 702471, Control_c, 0, 64, 47
1, 702476, Note_on_c, 0, 70, 52
1, 702477, Note_on_c, 0, 78, 70
1, 702481, Note_on_c, 0, 64, 33
1, 702486, Control_c, 0, 64, 70
1, 702495, Note_on_c, 0, 61, 55
1, 702498, Note_off_c, 0, 70, 61
1, 702501, Control_c, 0, 64, 95
1, 702516, Note_off_c, 0, 64, 42
1, 702516, Control_c, 0, 64, 127
1, 702525, Note_off_c, 0, 61, 63
1, 702556, Note_off_c, 0, 82, 63
1, 702563, Note_on_c, 0, 79, 72
1, 702575, Note_on_c, 0, 76, 70
1, 702597, Note_off_c, 0, 78, 29
1, 702599, Note_off_c, 0, 76, 68
1, 702599, Note_off_c, 0, 79, 63
1, 702659, Note_on_c, 0, 45, 75
1, 702671, Note_on_c, 0, 73, 83
1, 702679, Control_c, 0, 64, 77
1, 702680, Note_on_c, 0, 76, 75
1, 702689, Note_off_c, 0, 73, 73
1, 702694, Control_c, 0, 64, 34
1, 702701, Note_off_c, 0, 76, 71
1, 702709, Control_c, 0, 64, 0
1, 702710, Note_off_c, 0, 45, 62
1, 702729, Note_on_c, 0, 52, 45
1, 702754, Note_off_c, 0, 52, 56
1, 702774, Note_on_c, 0, 55, 62
1, 702808, Note_on_c, 0, 78, 82
1, 702820, Note_on_c, 0, 74, 72
1, 702820, Note_off_c, 0, 55, 63
1, 702847, Note_off_c, 0, 74, 62
1, 702853, Note_on_c, 0, 58, 75
1, 702860, Note_on_c, 0, 75, 74
1, 702867, Note_on_c, 0, 79, 79
1, 702889, Note_off_c, 0, 75, 61
1, 702895, Note_off_c, 0, 78, 63
1, 702899, Note_off_c, 0, 79, 67
1, 702940, Note_on_c, 0, 61, 67
1, 702944, Note_off_c, 0, 58, 64
1, 702972, Note_off_c, 0, 61, 65
1, 702984, Note_on_c, 0, 73, 79
1, 702984, Note_on_c, 0, 76, 76
1, 703002, Note_on_c, 0, 67, 72
1, 703004, Note_off_c, 0, 73, 70
1, 703008, Note_off_c, 0, 76, 67
1, 703008, Note_on_c, 0, 78, 39
1, 703038, Note_off_c, 0, 78, 34
1, 703094, Note_off_c, 0, 67, 54
1, 703094, Control_c, 0, 64, 52
1, 703096, Note_on_c, 0, 69, 65
1, 703098, Note_on_c, 0, 63, 62
1, 703104, Note_on_c, 0, 81, 80
1, 703105, Note_on_c, 0, 77, 76
1, 703109, Control_c, 0, 64, 78
1, 703119, Note_on_c, 0, 60, 44
1, 703121, Note_off_c, 0, 69, 69
1, 703124, Control_c, 0, 64, 127
1, 703137, Note_off_c, 0, 77, 65
1, 703141, Note_off_c, 0, 63, 63
1, 703156, Note_off_c, 0, 60, 62
1, 703183, Note_off_c, 0, 81, 63
1, 703208, Note_on_c, 0, 78, 70
1, 703210, Note_on_c, 0, 75, 75
1, 703231, Note_off_c, 0, 78, 69
1, 703233, Note_off_c, 0, 75, 69
1, 703309, Note_on_c, 0, 45, 75
1, 703310, Note_on_c, 0, 74, 84
1, 703320, Note_on_c, 0, 67, 60
1, 703325, Control_c, 0, 64, 70
1, 703334, Note_off_c, 0, 74, 62
1, 703338, Note_on_c, 0, 70, 36
1, 703340, Control_c, 0, 64, 0
1, 703343, Note_off_c, 0, 67, 58
1, 703357, Note_off_c, 0, 45, 63
1, 703357, Note_on_c, 0, 52, 65
1, 703366, Note_off_c, 0, 70, 52
1, 703387, Note_off_c, 0, 52, 66
1, 703421, Note_on_c, 0, 73, 65
1, 703425, Note_on_c, 0, 55, 53
1, 703425, Note_on_c, 0, 76, 80
1, 703449, Note_off_c, 0, 73, 67
1, 703449, Note_off_c, 0, 76, 65
1, 703461, Note_off_c, 0, 55, 65
1, 703526, Note_on_c, 0, 78, 89
1, 703538, Note_on_c, 0, 57, 31
1, 703545, Note_off_c, 0, 78, 69
1, 703574, Note_off_c, 0, 57, 54
1, 703589, Note_on_c, 0, 60, 45
1, 703615, Note_off_c, 0, 60, 56
1, 703634, Note_on_c, 0, 79, 97
1, 703646, Note_on_c, 0, 67, 66
1, 703649, Note_on_c, 0, 76, 61
1, 703652, Note_on_c, 0, 78, 52
1, 703652, Note_off_c, 0, 78, 127
1, 703670, Note_off_c, 0, 76, 55
1, 703670, Note_off_c, 0, 79, 63
1, 703681, Note_off_c, 0, 67, 64
1, 703710, Control_c, 0, 67, 102
1, 703725, Control_c, 0, 67, 41
1, 703730, Note_on_c, 0, 66, 63
1, 703736, Note_on_c, 0, 62, 60
1, 703739, Control_c, 0, 64, 49
1, 703739, Control_c, 0, 67, 0
1, 703744, Note_on_c, 0, 81, 90
1, 703749, Note_on_c, 0, 57, 38
1, 703750, Note_on_c, 0, 78, 77
1, 703754, Control_c, 0, 64, 99
1, 703756, Note_off_c, 0, 62, 62
1, 703758, Note_off_c, 0, 66, 66
1, 703769, Control_c, 0, 64, 127
1, 703771, Note_on_c, 0, 74, 60
1, 703777, Note_off_c, 0, 57, 60
1, 703789, Note_on_c, 0, 59, 28
1, 703804, Note_off_c, 0, 74, 49
1, 703814, Note_off_c, 0, 81, 65
1, 703833, Note_off_c, 0, 59, 44
1, 703860, Note_on_c, 0, 69, 61
1, 703866, Note_on_c, 0, 46, 78
1, 703867, Note_off_c, 0, 78, 59
1, 703888, Note_off_c, 0, 69, 64
1, 703904, Note_on_c, 0, 53, 66
1, 703910, Control_c, 0, 64, 91
1, 703925, Control_c, 0, 64, 49
1, 703925, Control_c, 0, 67, 40
1, 703927, Note_off_c, 0, 46, 64
1, 703928, Note_on_c, 0, 56, 82
1, 703933, Note_off_c, 0, 53, 65
1, 703939, Control_c, 0, 64, 0
1, 703939, Control_c, 0, 67, 65
1, 703947, Note_on_c, 0, 62, 85
1, 703954, Control_c, 0, 67, 65
1, 703955, Note_off_c, 0, 56, 66
1, 703967, Note_on_c, 0, 70, 85
1, 703967, Note_on_c, 0, 82, 95
1, 703969, Note_on_c, 0, 80, 77
1, 703971, Note_off_c, 0, 62, 70
1, 703971, Control_c, 0, 64, 54
1, 703971, Control_c, 0, 67, 62
1, 703974, Note_on_c, 0, 74, 65
1, 703986, Control_c, 0, 64, 82
1, 703986, Control_c, 0, 67, 60
1, 703987, Note_off_c, 0, 70, 69
1, 703989, Note_off_c, 0, 80, 70
1, 703998, Note_off_c, 0, 74, 66
1, 704000, Control_c, 0, 64, 90
1, 704000, Control_c, 0, 67, 62
1, 704010, Note_off_c, 0, 82, 64
1, 704015, Control_c, 0, 64, 86
1, 704015, Control_c, 0, 67, 67
1, 704030, Control_c, 0, 64, 69
1, 704030, Control_c, 0, 67, 68
1, 704044, Control_c, 0, 64, 58
1, 704044, Control_c, 0, 67, 67
1, 704059, Control_c, 0, 64, 51
1, 704059, Control_c, 0, 67, 67
1, 704074, Control_c, 0, 64, 42
1, 704089, Control_c, 0, 64, 0
1, 704089, Control_c, 0, 67, 67
1, 704102, Note_on_c, 0, 68, 72
1, 704104, Note_on_c, 0, 80, 65
1, 704104, Control_c, 0, 67, 68
1, 704107, Note_on_c, 0, 78, 72
1, 704113, Note_on_c, 0, 71, 67
1, 704114, Note_on_c, 0, 83, 65
1, 704114, Note_on_c, 0, 66, 58
1, 704135, Note_on_c, 0, 81, 48
1, 704148, Control_c, 0, 67, 69
1, 704162, Control_c, 0, 64, 56
1, 704162, Control_c, 0, 67, 73
1, 704175, Note_off_c, 0, 81, 44
1, 704177, Control_c, 0, 64, 60
1, 704177, Control_c, 0, 67, 79
1, 704192, Control_c, 0, 67, 81
1, 704207, Control_c, 0, 64, 62
1, 704222, Control_c, 0, 64, 70
1, 704236, Control_c, 0, 64, 85
1, 704251, Control_c, 0, 64, 127
1, 704266, Control_c, 0, 67, 82
1, 704273, Note_off_c, 0, 71, 59
1, 704284, Note_off_c, 0, 68, 58
1, 704284, Note_off_c, 0, 83, 63
1, 704291, Note_off_c, 0, 78, 62
1, 704297, Note_off_c, 0, 80, 61
1, 704311, Note_off_c, 0, 66, 57
1, 704325, Poly_aftertouch_c, 0, 83, 0
1, 704325, Control_c, 0, 67, 82
1, 704333, Note_on_c, 0, 83, 77
1, 704335, Note_on_c, 0, 68, 68
1, 704335, Poly_aftertouch_c, 0, 80, 0
1, 704336, Note_on_c, 0, 76, 87
1, 704338, Note_on_c, 0, 64, 79
1, 704340, Note_on_c, 0, 71, 73
1, 704340, Control_c, 0, 64, 70
1, 704340, Control_c, 0, 67, 83
1, 704343, Note_on_c, 0, 80, 71
1, 704355, Control_c, 0, 64, 39
1, 704355, Control_c, 0, 67, 83
1, 704370, Control_c, 0, 64, 0
1, 704370, Control_c, 0, 67, 81
1, 704385, Control_c, 0, 64, 51
1, 704385, Control_c, 0, 67, 80
1, 704400, Control_c, 0, 64, 80
1, 704400, Control_c, 0, 67, 81
1, 704415, Control_c, 0, 64, 127
1, 704415, Control_c, 0, 67, 82
1, 704429, Control_c, 0, 67, 83
1, 704440, Note_off_c, 0, 64, 61
1, 704444, Control_c, 0, 67, 82
1, 704459, Control_c, 0, 67, 81
1, 704474, Control_c, 0, 67, 80
1, 704474, Note_off_c, 0, 68, 56
1, 704480, Note_off_c, 0, 76, 58
1, 704484, Note_off_c, 0, 83, 59
1, 704492, Note_off_c, 0, 80, 59
1, 704498, Note_off_c, 0, 71, 32
1, 704518, Control_c, 0, 67, 79
1, 704533, Control_c, 0, 67, 79
1, 704548, Control_c, 0, 67, 77
1, 704558, Note_on_c, 0, 83, 70
1, 704558, Note_on_c, 0, 80, 82
1, 704561, Note_on_c, 0, 75, 78
1, 704562, Control_c, 0, 67, 77
1, 704568, Note_on_c, 0, 63, 76
1, 704572, Note_on_c, 0, 71, 67
1, 704577, Control_c, 0, 67, 77
1, 704581, Note_off_c, 0, 83, 70
1, 704582, Note_off_c, 0, 75, 66
1, 704585, Note_on_c, 0, 68, 60
1, 704585, Note_off_c, 0, 80, 64
1, 704592, Control_c, 0, 67, 80
1, 704595, Note_off_c, 0, 63, 66
1, 704597, Note_off_c, 0, 71, 65
1, 704603, Note_off_c, 0, 68, 66
1, 704607, Control_c, 0, 67, 82
1, 704622, Control_c, 0, 67, 82
1, 704644, Control_c, 0, 67, 79
1, 704659, Control_c, 0, 64, 102
1, 704659, Control_c, 0, 67, 76
1, 704674, Control_c, 0, 64, 68
1, 704674, Control_c, 0, 67, 74
1, 704689, Control_c, 0, 64, 0
1, 704689, Note_on_c, 0, 83, 92
1, 704690, Note_on_c, 0, 62, 82
1, 704692, Note_on_c, 0, 95, 95
1, 704692, Note_on_c, 0, 74, 88
1, 704695, Note_on_c, 0, 92, 84
1, 704704, Control_c, 0, 67, 76
1, 704707, Note_off_c, 0, 92, 70
1, 704708, Note_on_c, 0, 68, 51
1, 704709, Note_off_c, 0, 95, 70
1, 704710, Note_on_c, 0, 88, 57
1, 704710, Note_off_c, 0, 83, 69
1, 704718, Control_c, 0, 67, 78
1, 704719, Note_off_c, 0, 74, 66
1, 704722, Note_on_c, 0, 65, 41
1, 704730, Note_off_c, 0, 62, 63
1, 704731, Note_off_c, 0, 68, 63
1, 704733, Note_on_c, 0, 64, 20
1, 704733, Note_off_c, 0, 88, 59
1, 704733, Control_c, 0, 67, 80
1, 704753, Note_off_c, 0, 65, 52
1, 704766, Note_off_c, 0, 64, 32
1, 704793, Control_c, 0, 67, 81
1, 704808, Control_c, 0, 67, 81
1, 704813, Note_on_c, 0, 95, 88
1, 704815, Note_on_c, 0, 83, 88
1, 704816, Note_on_c, 0, 73, 83
1, 704817, Note_on_c, 0, 68, 67
1, 704818, Note_on_c, 0, 92, 63
1, 704826, Note_on_c, 0, 61, 66
1, 704828, Note_on_c, 0, 88, 55
1, 704830, Note_off_c, 0, 83, 75
1, 704831, Note_off_c, 0, 95, 69
1, 704835, Note_off_c, 0, 92, 65
1, 704842, Note_on_c, 0, 64, 48
1, 704844, Note_on_c, 0, 94, 40
1, 704844, Note_off_c, 0, 94, 127
1, 704847, Note_off_c, 0, 68, 64
1, 704847, Note_off_c, 0, 73, 59
1, 704851, Note_off_c, 0, 88, 39
1, 704853, Note_off_c, 0, 61, 57
1, 704853, Control_c, 0, 67, 81
1, 704865, Note_off_c, 0, 64, 59
1, 704882, Control_c, 0, 67, 81
1, 704912, Control_c, 0, 67, 81
1, 704920, Note_on_c, 0, 72, 79
1, 704927, Control_c, 0, 67, 79
1, 704928, Note_on_c, 0, 83, 100
1, 704928, Note_on_c, 0, 95, 93
1, 704931, Note_on_c, 0, 60, 68
1, 704931, Note_on_c, 0, 92, 76
1, 704935, Note_on_c, 0, 68, 61
1, 704935, Note_on_c, 0, 88, 65
1, 704940, Note_on_c, 0, 64, 52
1, 704941, Control_c, 0, 67, 77
1, 704948, Note_on_c, 0, 93, 58
1, 704950, Note_off_c, 0, 83, 67
1, 704951, Note_off_c, 0, 88, 68
1, 704951, Note_off_c, 0, 95, 65
1, 704952, Note_off_c, 0, 72, 66
1, 704954, Note_off_c, 0, 92, 69
1, 704956, Control_c, 0, 67, 76
1, 704960, Note_off_c, 0, 64, 62
1, 704961, Note_off_c, 0, 60, 68
1, 704963, Note_off_c, 0, 68, 68
1, 704974, Note_off_c, 0, 93, 40
1, 705015, Control_c, 0, 67, 74
1, 705030, Control_c, 0, 67, 71
1, 705040, Note_on_c, 0, 68, 77
1, 705045, Control_c, 0, 64, 61
1, 705045, Control_c, 0, 67, 66
1, 705047, Note_on_c, 0, 95, 104
1, 705048, Note_on_c, 0, 83, 108
1, 705052, Note_on_c, 0, 92, 88
1, 705053, Note_on_c, 0, 71, 63
1, 705059, Note_off_c, 0, 95, 73
1, 705059, Control_c, 0, 64, 127
1, 705059, Control_c, 0, 67, 61
1, 705061, Note_on_c, 0, 59, 69
1, 705061, Note_off_c, 0, 83, 72
1, 705062, Note_on_c, 0, 88, 58
1, 705068, Note_off_c, 0, 92, 75
1, 705069, Note_off_c, 0, 71, 67
1, 705072, Note_off_c, 0, 68, 62
1, 705074, Control_c, 0, 67, 62
1, 705088, Note_off_c, 0, 88, 41
1, 705089, Control_c, 0, 67, 64
1, 705094, Note_off_c, 0, 59, 64
1, 705104, Control_c, 0, 67, 69
1, 705119, Control_c, 0, 67, 74
1, 705133, Control_c, 0, 67, 84
1, 705148, Control_c, 0, 67, 93
1, 705163, Control_c, 0, 67, 97
1, 705222, Control_c, 0, 67, 99
1, 705237, Note_on_c, 0, 45, 71
1, 705237, Control_c, 0, 64, 78
1, 705237, Control_c, 0, 67, 101
1, 705251, Control_c, 0, 64, 55
1, 705251, Control_c, 0, 67, 103
1, 705266, Control_c, 0, 64, 0
1, 705267, Note_on_c, 0, 80, 73
1, 705279, Note_on_c, 0, 75, 61
1, 705296, Control_c, 0, 64, 43
1, 705311, Control_c, 0, 64, 63
1, 705311, Control_c, 0, 67, 106
1, 705326, Control_c, 0, 64, 71
1, 705326, Control_c, 0, 67, 113
1, 705340, Control_c, 0, 64, 74
1, 705340, Control_c, 0, 67, 120
1, 705351, Note_off_c, 0, 80, 58
1, 705355, Control_c, 0, 67, 122
1, 705357, Note_off_c, 0, 45, 55
1, 705367, Note_on_c, 0, 54, 62
1, 705400, Note_on_c, 0, 73, 36
1, 705402, Note_on_c, 0, 76, 24
1, 705416, Note_off_c, 0, 75, 60
1, 705431, Note_off_c, 0, 73, 50
1, 705437, Control_c, 0, 64, 74
1, 705445, Note_off_c, 0, 76, 38
1, 705447, Note_off_c, 0, 54, 62
1, 705452, Control_c, 0, 64, 73
1, 705457, Note_on_c, 0, 57, 63
1, 705466, Control_c, 0, 64, 73
1, 705486, Note_off_c, 0, 57, 66
1, 705517, Note_on_c, 0, 81, 79
1, 705522, Note_on_c, 0, 76, 72
1, 705529, Note_on_c, 0, 64, 62
1, 705539, Note_on_c, 0, 62, 64
1, 705540, Control_c, 0, 64, 73
1, 705565, Note_off_c, 0, 62, 53
1, 705571, Control_c, 0, 64, 75
1, 705586, Control_c, 0, 64, 77
1, 705601, Control_c, 0, 64, 81
1, 705614, Note_off_c, 0, 76, 62
1, 705615, Control_c, 0, 64, 85
1, 705624, Note_off_c, 0, 81, 56
1, 705625, Note_on_c, 0, 78, 67
1, 705630, Control_c, 0, 64, 89
1, 705631, Note_on_c, 0, 75, 58
1, 705645, Control_c, 0, 64, 102
1, 705653, Note_off_c, 0, 78, 66
1, 705655, Note_off_c, 0, 75, 66
1, 705660, Control_c, 0, 64, 127
1, 705671, Note_on_c, 0, 66, 80
1, 705681, Note_off_c, 0, 64, 62
1, 705689, Control_c, 0, 67, 120
1, 705704, Control_c, 0, 64, 81
1, 705719, Control_c, 0, 64, 56
1, 705734, Control_c, 0, 64, 0
1, 705734, Control_c, 0, 67, 123
1, 705735, Note_on_c, 0, 83, 85
1, 705741, Note_on_c, 0, 78, 84
1, 705742, Note_on_c, 0, 68, 90
1, 705763, Control_c, 0, 64, 56
1, 705763, Control_c, 0, 67, 121
1, 705778, Control_c, 0, 64, 74
1, 705780, Note_off_c, 0, 66, 59
1, 705793, Control_c, 0, 64, 104
1, 705793, Control_c, 0, 67, 118
1, 705807, Control_c, 0, 64, 127
1, 705813, Note_on_c, 0, 69, 81
1, 705820, Note_off_c, 0, 68, 63
1, 705822, Control_c, 0, 67, 122
1, 705834, Note_off_c, 0, 78, 61
1, 705834, Note_off_c, 0, 83, 63
1, 705836, Note_on_c, 0, 80, 80
1, 705837, Control_c, 0, 67, 125
1, 705841, Note_on_c, 0, 76, 65
1, 705861, Note_off_c, 0, 76, 66
1, 705864, Note_off_c, 0, 69, 66
1, 705866, Note_off_c, 0, 80, 59
1, 705867, Control_c, 0, 67, 122
1, 705875, Note_on_c, 0, 71, 74
1, 705881, Control_c, 0, 67, 119
1, 705896, Control_c, 0, 64, 116
1, 705911, Control_c, 0, 64, 67
1, 705911, Control_c, 0, 67, 121
1, 705926, Control_c, 0, 64, 0
1, 705926, Control_c, 0, 67, 126
1, 705948, Note_on_c, 0, 63, 68
1, 705950, Note_on_c, 0, 72, 74
1, 705950, Note_off_c, 0, 71, 66
1, 705953, Note_on_c, 0, 84, 90
1, 705955, Note_on_c, 0, 66, 66
1, 705962, Note_on_c, 0, 80, 87
1, 705971, Note_off_c, 0, 72, 70
1, 705971, Control_c, 0, 64, 64
1, 705980, Note_off_c, 0, 66, 67
1, 705983, Note_off_c, 0, 63, 64
1, 705986, Control_c, 0, 64, 86
1, 706001, Control_c, 0, 64, 127
1, 706047, Note_off_c, 0, 84, 61
1, 706070, Note_off_c, 0, 80, 59
1, 706073, Note_on_c, 0, 81, 74
1, 706084, Note_on_c, 0, 78, 63
1, 706099, Note_off_c, 0, 81, 66
1, 706102, Note_off_c, 0, 78, 67
1, 706164, Note_on_c, 0, 47, 62
1, 706171, Control_c, 0, 64, 90
1, 706181, Note_on_c, 0, 78, 81
1, 706182, Note_on_c, 0, 75, 81
1, 706185, Control_c, 0, 64, 52
1, 706200, Control_c, 0, 64, 0
1, 706201, Note_off_c, 0, 75, 71
1, 706206, Note_off_c, 0, 78, 67
1, 706230, Note_on_c, 0, 54, 69
1, 706230, Note_off_c, 0, 47, 63
1, 706275, Note_off_c, 0, 54, 61
1, 706305, Note_on_c, 0, 57, 73
1, 706323, Note_on_c, 0, 80, 88
1, 706336, Note_off_c, 0, 57, 67
1, 706360, Note_on_c, 0, 60, 72
1, 706367, Note_on_c, 0, 76, 28
1, 706367, Note_off_c, 0, 76, 127
1, 706388, Note_on_c, 0, 81, 88
1, 706413, Poly_aftertouch_c, 0, 76, 0
1, 706418, Note_off_c, 0, 80, 65
1, 706421, Note_off_c, 0, 81, 65
1, 706423, Note_off_c, 0, 60, 65
1, 706454, Note_on_c, 0, 63, 76
1, 706502, Note_on_c, 0, 78, 87
1, 706506, Note_on_c, 0, 75, 77
1, 706519, Note_on_c, 0, 80, 60
1, 706528, Note_off_c, 0, 75, 70
1, 706531, Note_off_c, 0, 78, 63
1, 706538, Note_off_c, 0, 80, 64
1, 706556, Note_off_c, 0, 63, 61
1, 706558, Note_on_c, 0, 69, 55
1, 706615, Note_on_c, 0, 71, 83
1, 706616, Control_c, 0, 64, 43
1, 706619, Note_on_c, 0, 65, 59
1, 706624, Note_off_c, 0, 69, 60
1, 706624, Note_on_c, 0, 83, 92
1, 706627, Note_on_c, 0, 62, 66
1, 706630, Control_c, 0, 64, 100
1, 706634, Note_on_c, 0, 77, 72
1, 706635, Note_on_c, 0, 79, 77
1, 706642, Note_off_c, 0, 71, 67
1, 706645, Control_c, 0, 64, 127
1, 706656, Note_off_c, 0, 77, 71
1, 706656, Note_off_c, 0, 79, 67
1, 706660, Note_off_c, 0, 65, 64
1, 706672, Note_off_c, 0, 62, 58
1, 706716, Note_on_c, 0, 80, 88
1, 706719, Note_off_c, 0, 83, 46
1, 706723, Note_on_c, 0, 77, 78
1, 706747, Note_off_c, 0, 77, 64
1, 706756, Note_off_c, 0, 80, 63
1, 706824, Note_on_c, 0, 76, 88
1, 706828, Note_on_c, 0, 47, 65
1, 706838, Control_c, 0, 64, 76
1, 706838, Note_on_c, 0, 71, 61
1, 706839, Note_on_c, 0, 72, 58
1, 706847, Note_off_c, 0, 76, 64
1, 706853, Control_c, 0, 64, 0
1, 706856, Note_off_c, 0, 71, 63
1, 706859, Note_off_c, 0, 72, 58
1, 706895, Note_on_c, 0, 54, 50
1, 706895, Note_off_c, 0, 47, 62
1, 706931, Note_on_c, 0, 57, 74
1, 706939, Note_on_c, 0, 78, 85
1, 706939, Note_off_c, 0, 54, 63
1, 706948, Note_on_c, 0, 75, 61
1, 706961, Note_off_c, 0, 57, 65
1, 706964, Note_off_c, 0, 75, 66
1, 706975, Note_off_c, 0, 78, 60
1, 706995, Note_on_c, 0, 60, 74
1, 707045, Note_on_c, 0, 76, 86
1, 707046, Note_on_c, 0, 80, 81
1, 707065, Note_off_c, 0, 76, 71
1, 707065, Note_off_c, 0, 80, 72
1, 707066, Note_off_c, 0, 60, 66
1, 707080, Note_on_c, 0, 61, 62
1, 707103, Note_off_c, 0, 61, 57
1, 707115, Note_on_c, 0, 62, 43
1, 707141, Note_off_c, 0, 62, 54
1, 707160, Note_on_c, 0, 81, 91
1, 707166, Note_on_c, 0, 78, 75
1, 707184, Note_off_c, 0, 78, 71
1, 707190, Note_off_c, 0, 81, 64
1, 707210, Note_on_c, 0, 69, 59
1, 707247, Control_c, 0, 67, 108
1, 707261, Control_c, 0, 64, 72
1, 707261, Control_c, 0, 67, 87
1, 707266, Note_off_c, 0, 69, 39
1, 707273, Note_on_c, 0, 83, 94
1, 707276, Control_c, 0, 64, 127
1, 707276, Control_c, 0, 67, 86
1, 707278, Note_on_c, 0, 68, 76
1, 707278, Note_on_c, 0, 80, 80
1, 707279, Note_on_c, 0, 59, 72
1, 707279, Note_on_c, 0, 64, 60
1, 707285, Note_on_c, 0, 76, 79
1, 707291, Control_c, 0, 67, 87
1, 707297, Note_off_c, 0, 68, 65
1, 707303, Note_off_c, 0, 64, 64
1, 707306, Control_c, 0, 67, 83
1, 707306, Note_on_c, 0, 63, 30
1, 707306, Note_off_c, 0, 63, 127
1, 707321, Note_off_c, 0, 59, 64
1, 707321, Control_c, 0, 67, 76
1, 707335, Control_c, 0, 67, 63
1, 707345, Note_off_c, 0, 76, 0
1, 707350, Control_c, 0, 67, 46
1, 707365, Control_c, 0, 67, 31
1, 707379, Control_c, 0, 67, 20
1, 707381, Poly_aftertouch_c, 0, 76, 127
1, 707384, Note_on_c, 0, 71, 77
1, 707389, Note_on_c, 0, 76, 14
1, 707394, Control_c, 0, 67, 0
1, 707402, Note_off_c, 0, 83, 63
1, 707410, Note_off_c, 0, 76, 55
1, 707414, Note_off_c, 0, 71, 63
1, 707414, Note_off_c, 0, 80, 56
1, 707439, Control_c, 0, 64, 87
1, 707444, Note_on_c, 0, 48, 74
1, 707453, Control_c, 0, 64, 38
1, 707457, Note_on_c, 0, 55, 51
1, 707468, Control_c, 0, 64, 0
1, 707470, Note_off_c, 0, 48, 62
1, 707470, Note_on_c, 0, 58, 76
1, 707482, Note_off_c, 0, 55, 57
1, 707483, Control_c, 0, 67, 41
1, 707494, Note_on_c, 0, 54, 23
1, 707494, Note_off_c, 0, 54, 127
1, 707494, Note_on_c, 0, 84, 89
1, 707495, Note_on_c, 0, 72, 82
1, 707496, Note_on_c, 0, 82, 86
1, 707497, Control_c, 0, 67, 38
1, 707500, Note_on_c, 0, 64, 76
1, 707500, Note_on_c, 0, 76, 74
1, 707512, Note_on_c, 0, 74, 68
1, 707512, Note_off_c, 0, 58, 62
1, 707512, Control_c, 0, 64, 64
1, 707512, Control_c, 0, 67, 31
1, 707515, Note_off_c, 0, 72, 69
1, 707517, Note_off_c, 0, 76, 67
1, 707522, Note_off_c, 0, 84, 64
1, 707524, Note_off_c, 0, 64, 70
1, 707527, Control_c, 0, 64, 127
1, 707527, Control_c, 0, 67, 26
1, 707529, Note_off_c, 0, 74, 65
1, 707530, Note_off_c, 0, 82, 60
1, 707557, Control_c, 0, 67, 34
1, 707572, Control_c, 0, 67, 41
1, 707586, Control_c, 0, 67, 46
1, 707601, Control_c, 0, 64, 75
1, 707601, Control_c, 0, 67, 46
1, 707616, Control_c, 0, 64, 0
1, 707639, Control_c, 0, 67, 47
1, 707642, Note_on_c, 0, 85, 82
1, 707643, Note_on_c, 0, 68, 71
1, 707644, Note_on_c, 0, 73, 75
1, 707650, Note_on_c, 0, 80, 71
1, 707654, Control_c, 0, 67, 48
1, 707654, Note_on_c, 0, 82, 69
1, 707656, Note_on_c, 0, 70, 65
1, 707668, Control_c, 0, 67, 48
1, 707683, Control_c, 0, 64, 49
1, 707683, Control_c, 0, 67, 49
1, 707695, Note_on_c, 0, 84, 51
1, 707698, Control_c, 0, 64, 66
1, 707698, Control_c, 0, 67, 51
1, 707712, Control_c, 0, 64, 66
1, 707712, Control_c, 0, 67, 57
1, 707727, Control_c, 0, 64, 64
1, 707727, Control_c, 0, 67, 66
1, 707733, Note_off_c, 0, 84, 47
1, 707742, Control_c, 0, 64, 66
1, 707742, Control_c, 0, 67, 71
1, 707749, Note_off_c, 0, 85, 53
1, 707757, Control_c, 0, 64, 71
1, 707757, Control_c, 0, 67, 72
1, 707772, Control_c, 0, 64, 79
1, 707779, Note_off_c, 0, 73, 53
1, 707782, Note_off_c, 0, 80, 60
1, 707786, Control_c, 0, 64, 91
1, 707786, Control_c, 0, 67, 71
1, 707792, Note_off_c, 0, 82, 60
1, 707795, Note_off_c, 0, 70, 57
1, 707801, Control_c, 0, 64, 99
1, 707804, Note_off_c, 0, 68, 60
1, 707816, Control_c, 0, 67, 71
1, 707831, Control_c, 0, 67, 72
1, 707864, Note_on_c, 0, 85, 88
1, 707867, Note_on_c, 0, 79, 86
1, 707871, Note_on_c, 0, 67, 65
1, 707876, Control_c, 0, 64, 96
1, 707876, Control_c, 0, 67, 72
1, 707879, Note_on_c, 0, 70, 67
1, 707880, Note_on_c, 0, 73, 75
1, 707889, Note_off_c, 0, 79, 69
1, 707891, Control_c, 0, 64, 94
1, 707891, Control_c, 0, 67, 71
1, 707900, Note_off_c, 0, 73, 71
1, 707902, Note_off_c, 0, 67, 64
1, 707905, Control_c, 0, 67, 72
1, 707907, Note_on_c, 0, 82, 28
1, 707907, Note_off_c, 0, 70, 67
1, 707907, Note_off_c, 0, 85, 62
1, 707920, Control_c, 0, 67, 75
1, 707935, Control_c, 0, 67, 80
1, 707945, Note_off_c, 0, 82, 48
1, 707950, Control_c, 0, 67, 85
1, 707965, Control_c, 0, 64, 94
1, 707965, Control_c, 0, 67, 87
1, 707979, Note_on_c, 0, 85, 95
1, 707980, Control_c, 0, 67, 86
1, 707983, Note_on_c, 0, 66, 83
1, 707983, Note_on_c, 0, 78, 86
1, 707984, Note_on_c, 0, 82, 76
1, 707992, Note_on_c, 0, 73, 74
1, 707995, Control_c, 0, 64, 97
1, 707995, Control_c, 0, 67, 85
1, 707999, Note_on_c, 0, 70, 65
1, 708002, Note_off_c, 0, 78, 69
1, 708008, Note_off_c, 0, 82, 68
1, 708010, Control_c, 0, 64, 117
1, 708010, Control_c, 0, 67, 85
1, 708020, Note_off_c, 0, 70, 65
1, 708020, Note_off_c, 0, 85, 65
1, 708025, Control_c, 0, 64, 127
1, 708025, Control_c, 0, 67, 86
1, 708028, Note_off_c, 0, 73, 60
1, 708040, Control_c, 0, 67, 87
1, 708041, Note_off_c, 0, 66, 61
1, 708054, Control_c, 0, 67, 88
1, 708077, Note_on_c, 0, 66, 50
1, 708084, Control_c, 0, 67, 84
1, 708084, Note_on_c, 0, 73, 74
1, 708089, Note_on_c, 0, 77, 94
1, 708091, Note_on_c, 0, 65, 75
1, 708093, Note_on_c, 0, 82, 97
1, 708093, Note_on_c, 0, 85, 94
1, 708098, Note_on_c, 0, 70, 64
1, 708099, Control_c, 0, 67, 79
1, 708105, Note_off_c, 0, 77, 73
1, 708110, Note_off_c, 0, 82, 73
1, 708111, Note_off_c, 0, 85, 70
1, 708114, Control_c, 0, 67, 74
1, 708114, Note_off_c, 0, 66, 62
1, 708119, Note_off_c, 0, 73, 58
1, 708120, Note_off_c, 0, 65, 65
1, 708126, Note_off_c, 0, 70, 66
1, 708128, Control_c, 0, 67, 71
1, 708143, Control_c, 0, 67, 68
1, 708158, Control_c, 0, 67, 67
1, 708173, Control_c, 0, 67, 67
1, 708188, Control_c, 0, 67, 62
1, 708196, Note_on_c, 0, 76, 95
1, 708202, Control_c, 0, 67, 55
1, 708206, Note_on_c, 0, 64, 69
1, 708209, Note_on_c, 0, 70, 63
1, 708211, Note_on_c, 0, 85, 99
1, 708213, Note_on_c, 0, 97, 88
1, 708215, Note_on_c, 0, 94, 77
1, 708217, Note_on_c, 0, 66, 65
1, 708217, Note_off_c, 0, 76, 66
1, 708217, Control_c, 0, 67, 53
1, 708226, Note_off_c, 0, 85, 72
1, 708230, Note_on_c, 0, 90, 54
1, 708230, Note_off_c, 0, 70, 66
1, 708230, Note_off_c, 0, 97, 74
1, 708231, Note_off_c, 0, 64, 69
1, 708232, Control_c, 0, 64, 74
1, 708232, Control_c, 0, 67, 57
1, 708233, Note_off_c, 0, 66, 65
1, 708233, Note_off_c, 0, 94, 72
1, 708247, Control_c, 0, 64, 0
1, 708247, Control_c, 0, 67, 61
1, 708251, Note_off_c, 0, 90, 59
1, 708262, Control_c, 0, 67, 63
1, 708276, Control_c, 0, 67, 64
1, 708306, Control_c, 0, 67, 65
1, 708320, Control_c, 0, 67, 67
1, 708333, Note_on_c, 0, 85, 104
1, 708335, Note_on_c, 0, 66, 60
1, 708335, Control_c, 0, 67, 69
1, 708337, Note_on_c, 0, 97, 94
1, 708339, Note_on_c, 0, 63, 74
1, 708339, Note_on_c, 0, 90, 69
1, 708341, Note_on_c, 0, 94, 79
1, 708344, Note_on_c, 0, 75, 71
1, 708346, Note_on_c, 0, 70, 53
1, 708346, Note_on_c, 0, 73, 61
1, 708350, Control_c, 0, 67, 72
1, 708353, Note_off_c, 0, 85, 72
1, 708353, Note_off_c, 0, 97, 74
1, 708355, Note_off_c, 0, 90, 69
1, 708359, Note_off_c, 0, 94, 72
1, 708362, Note_off_c, 0, 63, 66
1, 708365, Note_off_c, 0, 66, 65
1, 708365, Note_off_c, 0, 73, 63
1, 708368, Note_off_c, 0, 75, 68
1, 708371, Note_off_c, 0, 70, 64
1, 708388, Control_c, 0, 67, 71
1, 708402, Control_c, 0, 67, 70
1, 708417, Control_c, 0, 67, 69
1, 708432, Control_c, 0, 67, 68
1, 708447, Control_c, 0, 67, 67
1, 708462, Control_c, 0, 67, 64
1, 708466, Note_on_c, 0, 70, 75
1, 708468, Note_on_c, 0, 74, 81
1, 708470, Note_on_c, 0, 85, 110
1, 708472, Note_on_c, 0, 66, 66
1, 708474, Note_on_c, 0, 97, 98
1, 708476, Note_on_c, 0, 62, 68
1, 708476, Note_on_c, 0, 90, 79
1, 708476, Control_c, 0, 67, 63
1, 708477, Note_on_c, 0, 94, 87
1, 708491, Control_c, 0, 67, 62
1, 708494, Note_off_c, 0, 74, 64
1, 708494, Note_off_c, 0, 90, 72
1, 708494, Note_off_c, 0, 94, 73
1, 708494, Note_off_c, 0, 97, 65
1, 708499, Note_off_c, 0, 85, 64
1, 708500, Note_off_c, 0, 66, 66
1, 708503, Note_off_c, 0, 62, 68
1, 708503, Note_off_c, 0, 70, 65
1, 708506, Control_c, 0, 67, 62
1, 708521, Control_c, 0, 67, 63
1, 708535, Control_c, 0, 67, 64
1, 708565, Control_c, 0, 67, 63
1, 708580, Control_c, 0, 67, 62
1, 708595, Control_c, 0, 64, 74
1, 708596, Note_on_c, 0, 73, 88
1, 708602, Note_on_c, 0, 85, 110
1, 708606, Note_on_c, 0, 66, 65
1, 708606, Note_on_c, 0, 97, 88
1, 708607, Note_on_c, 0, 94, 91
1, 708608, Note_on_c, 0, 70, 63
1, 708609, Note_on_c, 0, 61, 71
1, 708609, Control_c, 0, 64, 127
1, 708609, Control_c, 0, 67, 66
1, 708614, Note_off_c, 0, 73, 71
1, 708620, Note_off_c, 0, 97, 45
1, 708623, Note_on_c, 0, 90, 59
1, 708623, Note_off_c, 0, 90, 127
1, 708623, Note_off_c, 0, 85, 65
1, 708623, Note_off_c, 0, 94, 74
1, 708624, Control_c, 0, 67, 69
1, 708632, Note_off_c, 0, 66, 68
1, 708632, Note_off_c, 0, 70, 66
1, 708639, Control_c, 0, 67, 73
1, 708642, Note_off_c, 0, 61, 63
1, 708654, Control_c, 0, 67, 76
1, 708669, Control_c, 0, 67, 77
1, 708683, Control_c, 0, 67, 80
1, 708698, Control_c, 0, 67, 90
1, 708713, Control_c, 0, 67, 97
1, 708773, Control_c, 0, 64, 97
1, 708773, Control_c, 0, 67, 99
1, 708782, Note_on_c, 0, 49, 68
1, 708788, Control_c, 0, 64, 67
1, 708788, Control_c, 0, 67, 105
1, 708797, Note_on_c, 0, 78, 75
1, 708803, Control_c, 0, 64, 42
1, 708803, Control_c, 0, 67, 115
1, 708818, Control_c, 0, 64, 0
1, 708824, Note_on_c, 0, 82, 53
1, 708832, Control_c, 0, 67, 117
1, 708847, Control_c, 0, 64, 50
1, 708862, Control_c, 0, 64, 63
1, 708862, Control_c, 0, 67, 120
1, 708877, Control_c, 0, 64, 68
1, 708877, Control_c, 0, 67, 126
1, 708883, Note_on_c, 0, 58, 65
1, 708892, Control_c, 0, 64, 73
1, 708897, Note_off_c, 0, 78, 0
1, 708901, Note_off_c, 0, 49, 60
1, 708907, Control_c, 0, 64, 78
1, 708913, Note_on_c, 0, 78, 40
1, 708922, Note_off_c, 0, 82, 56
1, 708922, Control_c, 0, 64, 86
1, 708926, Note_on_c, 0, 75, 50
1, 708931, Note_off_c, 0, 58, 62
1, 708937, Control_c, 0, 64, 93
1, 708945, Note_on_c, 0, 61, 70
1, 708951, Control_c, 0, 64, 96
1, 708956, Note_off_c, 0, 75, 63
1, 708961, Note_off_c, 0, 78, 64
1, 708964, Note_off_c, 0, 61, 65
1, 709011, Control_c, 0, 64, 92
1, 709025, Control_c, 0, 64, 78
1, 709038, Note_on_c, 0, 68, 89
1, 709040, Control_c, 0, 64, 71
1, 709047, Note_on_c, 0, 83, 83
1, 709052, Note_on_c, 0, 78, 81
1, 709055, Control_c, 0, 64, 70
1, 709069, Control_c, 0, 64, 76
1, 709084, Control_c, 0, 64, 91
1, 709099, Control_c, 0, 64, 127
1, 709132, Note_on_c, 0, 62, 72
1, 709132, Note_off_c, 0, 68, 61
1, 709148, Note_off_c, 0, 83, 62
1, 709163, Note_on_c, 0, 77, 53
1, 709163, Note_on_c, 0, 80, 67
1, 709165, Note_off_c, 0, 78, 61
1, 709186, Note_off_c, 0, 77, 64
1, 709188, Note_off_c, 0, 62, 61
1, 709190, Note_off_c, 0, 80, 66
1, 709224, Note_on_c, 0, 59, 50
1, 709238, Note_on_c, 0, 60, 52
1, 709240, Control_c, 0, 64, 83
1, 709255, Control_c, 0, 64, 58
1, 709264, Note_off_c, 0, 60, 58
1, 709270, Control_c, 0, 64, 36
1, 709281, Note_on_c, 0, 85, 95
1, 709283, Note_off_c, 0, 59, 64
1, 709284, Note_on_c, 0, 70, 92
1, 709284, Control_c, 0, 64, 57
1, 709285, Note_on_c, 0, 80, 92
1, 709299, Control_c, 0, 64, 80
1, 709314, Control_c, 0, 64, 127
1, 709361, Note_on_c, 0, 64, 58
1, 709400, Note_on_c, 0, 82, 69
1, 709405, Note_off_c, 0, 80, 60
1, 709406, Note_off_c, 0, 85, 63
1, 709407, Note_on_c, 0, 78, 65
1, 709411, Note_off_c, 0, 70, 47
1, 709426, Note_off_c, 0, 82, 67
1, 709428, Note_off_c, 0, 64, 60
1, 709432, Control_c, 0, 64, 67
1, 709432, Control_c, 0, 67, 111
1, 709435, Note_off_c, 0, 78, 65
1, 709447, Control_c, 0, 64, 0
1, 709447, Control_c, 0, 67, 65
1, 709462, Control_c, 0, 67, 0
1, 709465, Note_on_c, 0, 61, 54
1, 709493, Note_off_c, 0, 61, 64
1, 709501, Note_on_c, 0, 63, 73
1, 709506, Control_c, 0, 64, 34
1, 709516, Note_on_c, 0, 66, 75
1, 709518, Note_on_c, 0, 86, 99
1, 709519, Note_on_c, 0, 82, 99
1, 709521, Control_c, 0, 64, 127
1, 709527, Note_on_c, 0, 71, 80
1, 709548, Note_off_c, 0, 71, 72
1, 709561, Note_off_c, 0, 66, 59
1, 709562, Note_off_c, 0, 63, 64
1, 709623, Note_off_c, 0, 86, 64
1, 709624, Note_off_c, 0, 82, 55
1, 709632, Note_on_c, 0, 83, 71
1, 709634, Note_on_c, 0, 80, 82
1, 709649, Note_off_c, 0, 83, 68
1, 709654, Note_off_c, 0, 80, 71
1, 709655, Control_c, 0, 64, 67
1, 709670, Control_c, 0, 64, 0
1, 709767, Note_on_c, 0, 62, 96
1, 709767, Note_on_c, 0, 74, 105
1, 709768, Note_on_c, 0, 50, 97
1, 709769, Note_on_c, 0, 38, 93
1, 709774, Control_c, 0, 64, 42
1, 709774, Control_c, 0, 67, 52
1, 709786, Note_off_c, 0, 50, 75
1, 709788, Note_off_c, 0, 62, 67
1, 709789, Control_c, 0, 64, 127
1, 709789, Control_c, 0, 67, 92
1, 709792, Note_off_c, 0, 74, 65
1, 709793, Note_off_c, 0, 38, 69
1, 709804, Control_c, 0, 67, 82
1, 709819, Control_c, 0, 67, 41
1, 709834, Control_c, 0, 67, 0
1, 710014, Note_on_c, 0, 82, 95
1, 710019, Note_on_c, 0, 66, 98
1, 710019, Note_on_c, 0, 75, 104
1, 710019, Control_c, 0, 64, 98
1, 710021, Note_on_c, 0, 54, 84
1, 710021, Note_on_c, 0, 87, 97
1, 710022, Note_on_c, 0, 63, 85
1, 710028, Note_on_c, 0, 78, 70
1, 710033, Note_on_c, 0, 60, 67
1, 710034, Control_c, 0, 64, 127
1, 710034, Control_c, 0, 67, 34
1, 710044, Note_on_c, 0, 79, 72
1, 710048, Control_c, 0, 67, 55
1, 710055, Note_off_c, 0, 66, 59
1, 710061, Note_off_c, 0, 60, 69
1, 710063, Control_c, 0, 67, 51
1, 710066, Note_off_c, 0, 54, 62
1, 710066, Note_off_c, 0, 63, 62
1, 710078, Control_c, 0, 67, 47
1, 710093, Control_c, 0, 67, 38
1, 710094, Note_off_c, 0, 78, 55
1, 710098, Note_off_c, 0, 79, 65
1, 710100, Note_off_c, 0, 75, 58
1, 710107, Control_c, 0, 67, 25
1, 710122, Control_c, 0, 67, 21
1, 710126, Note_off_c, 0, 87, 62
1, 710141, Note_off_c, 0, 82, 61
1, 710152, Control_c, 0, 67, 0
1, 710162, Note_on_c, 0, 81, 47
1, 710167, Control_c, 0, 64, 71
1, 710181, Control_c, 0, 64, 0
1, 710187, Note_off_c, 0, 81, 53
1, 710254, Note_on_c, 0, 51, 69
1, 710270, Control_c, 0, 64, 60
1, 710274, Note_on_c, 0, 84, 74
1, 710280, Note_on_c, 0, 79, 60
1, 710285, Control_c, 0, 64, 69
1, 710299, Control_c, 0, 64, 73
1, 710314, Control_c, 0, 64, 73
1, 710314, Control_c, 0, 67, 21
1, 710329, Control_c, 0, 67, 27
1, 710342, Note_on_c, 0, 60, 66
1, 710348, Note_off_c, 0, 51, 59
1, 710360, Control_c, 0, 64, 74
1, 710365, Note_off_c, 0, 79, 63
1, 710368, Note_off_c, 0, 84, 60
1, 710375, Control_c, 0, 64, 75
1, 710375, Control_c, 0, 67, 25
1, 710376, Note_on_c, 0, 80, 69
1, 710386, Note_on_c, 0, 77, 50
1, 710386, Note_off_c, 0, 60, 62
1, 710390, Control_c, 0, 64, 78
1, 710404, Control_c, 0, 64, 84
1, 710404, Control_c, 0, 67, 29
1, 710406, Note_on_c, 0, 63, 59
1, 710411, Note_off_c, 0, 80, 63
1, 710414, Note_off_c, 0, 77, 66
1, 710420, Control_c, 0, 64, 90
1, 710420, Control_c, 0, 67, 35
1, 710430, Note_off_c, 0, 63, 61
1, 710435, Control_c, 0, 64, 89
1, 710435, Control_c, 0, 67, 48
1, 710450, Control_c, 0, 64, 75
1, 710450, Control_c, 0, 67, 52
1, 710465, Control_c, 0, 64, 58
1, 710479, Control_c, 0, 64, 0
1, 710479, Control_c, 0, 67, 51
1, 710498, Note_on_c, 0, 70, 90
1, 710498, Note_on_c, 0, 85, 88
1, 710503, Note_on_c, 0, 80, 85
1, 710509, Control_c, 0, 64, 58
1, 710509, Control_c, 0, 67, 52
1, 710523, Control_c, 0, 64, 87
1, 710523, Control_c, 0, 67, 56
1, 710538, Control_c, 0, 64, 127
1, 710538, Control_c, 0, 67, 60
1, 710553, Control_c, 0, 67, 61
1, 710562, Note_off_c, 0, 70, 62
1, 710568, Control_c, 0, 67, 59
1, 710589, Note_on_c, 0, 64, 58
1, 710605, Note_off_c, 0, 80, 61
1, 710608, Note_on_c, 0, 82, 75
1, 710609, Note_on_c, 0, 79, 63
1, 710624, Note_off_c, 0, 85, 65
1, 710632, Note_off_c, 0, 64, 61
1, 710635, Control_c, 0, 67, 56
1, 710648, Note_off_c, 0, 79, 67
1, 710650, Control_c, 0, 67, 50
1, 710655, Note_off_c, 0, 82, 61
1, 710665, Control_c, 0, 67, 40
1, 710678, Note_on_c, 0, 61, 85
1, 710679, Control_c, 0, 64, 71
1, 710679, Control_c, 0, 67, 23
1, 710694, Control_c, 0, 64, 0
1, 710694, Control_c, 0, 67, 0
1, 710709, Control_c, 0, 67, 21
1, 710724, Control_c, 0, 64, 43
1, 710724, Control_c, 0, 67, 25
1, 710728, Note_on_c, 0, 87, 99
1, 710733, Note_on_c, 0, 82, 98
1, 710738, Control_c, 0, 64, 71
1, 710738, Control_c, 0, 67, 27
1, 710740, Note_on_c, 0, 72, 90
1, 710753, Control_c, 0, 64, 127
1, 710753, Control_c, 0, 67, 22
1, 710767, Note_off_c, 0, 61, 59
1, 710768, Control_c, 0, 67, 0
1, 710815, Note_on_c, 0, 66, 78
1, 710827, Note_off_c, 0, 72, 59
1, 710835, Note_on_c, 0, 84, 75
1, 710837, Note_off_c, 0, 82, 59
1, 710842, Control_c, 0, 64, 107
1, 710845, Note_on_c, 0, 80, 73
1, 710851, Note_off_c, 0, 87, 64
1, 710857, Control_c, 0, 64, 59
1, 710871, Control_c, 0, 64, 0
1, 710880, Note_off_c, 0, 80, 58
1, 710880, Note_off_c, 0, 84, 64
1, 710894, Note_off_c, 0, 66, 63
1, 710898, Note_on_c, 0, 63, 61
1, 710943, Note_on_c, 0, 64, 75
1, 710948, Note_on_c, 0, 73, 97
1, 710953, Note_on_c, 0, 67, 78
1, 710961, Note_on_c, 0, 88, 101
1, 710961, Note_on_c, 0, 83, 106
1, 710973, Note_off_c, 0, 63, 61
1, 710976, Control_c, 0, 64, 127
1, 710976, Control_c, 0, 67, 58
1, 710976, Note_off_c, 0, 73, 68
1, 710985, Note_off_c, 0, 67, 63
1, 710991, Control_c, 0, 67, 78
1, 710992, Note_off_c, 0, 64, 63
1, 711005, Control_c, 0, 67, 56
1, 711020, Control_c, 0, 67, 24
1, 711035, Control_c, 0, 67, 0
1, 711071, Note_off_c, 0, 83, 64
1, 711074, Note_off_c, 0, 88, 65
1, 711085, Note_on_c, 0, 85, 71
1, 711086, Note_on_c, 0, 82, 76
1, 711103, Note_off_c, 0, 82, 70
1, 711109, Note_off_c, 0, 85, 67
1, 711154, Control_c, 0, 64, 70
1, 711169, Control_c, 0, 64, 0
1, 711233, Note_on_c, 0, 52, 99
1, 711236, Note_on_c, 0, 40, 97
1, 711238, Note_on_c, 0, 64, 100
1, 711239, Note_on_c, 0, 76, 102
1, 711243, Control_c, 0, 64, 33
1, 711243, Control_c, 0, 67, 29
1, 711258, Control_c, 0, 64, 127
1, 711258, Control_c, 0, 67, 72
1, 711263, Note_off_c, 0, 52, 68
1, 711263, Note_off_c, 0, 64, 68
1, 711264, Note_off_c, 0, 40, 66
1, 711265, Note_off_c, 0, 76, 71
1, 711272, Control_c, 0, 67, 70
1, 711287, Control_c, 0, 67, 48
1, 711302, Control_c, 0, 67, 0
1, 711572, Note_on_c, 0, 68, 100
1, 711574, Note_on_c, 0, 89, 103
1, 711575, Note_on_c, 0, 77, 102
1, 711575, Note_on_c, 0, 56, 88
1, 711575, Note_on_c, 0, 65, 95
1, 711576, Control_c, 0, 64, 72
1, 711577, Note_on_c, 0, 80, 105
1, 711577, Note_on_c, 0, 84, 104
1, 711582, Note_on_c, 0, 62, 83
1, 711591, Control_c, 0, 64, 0
1, 711591, Control_c, 0, 67, 41
1, 711599, Note_off_c, 0, 56, 67
1, 711599, Note_off_c, 0, 68, 67
1, 711606, Control_c, 0, 67, 81
1, 711607, Note_off_c, 0, 65, 66
1, 711608, Note_off_c, 0, 62, 68
1, 711621, Control_c, 0, 64, 68
1, 711621, Control_c, 0, 67, 82
1, 711635, Control_c, 0, 64, 127
1, 711635, Control_c, 0, 67, 71
1, 711650, Control_c, 0, 67, 44
1, 711665, Control_c, 0, 67, 0
1, 711794, Note_on_c, 0, 83, 68
1, 711808, Note_off_c, 0, 80, 59
1, 711811, Note_off_c, 0, 77, 57
1, 711815, Note_off_c, 0, 89, 59
1, 711828, Note_off_c, 0, 83, 62
1, 711834, Note_off_c, 0, 84, 59
1, 711872, Control_c, 0, 64, 84
1, 711887, Control_c, 0, 64, 58
1, 711902, Control_c, 0, 64, 0
1, 711915, Note_on_c, 0, 57, 63
1, 711959, Note_on_c, 0, 64, 57
1, 711960, Note_off_c, 0, 57, 62
1, 711977, Control_c, 0, 67, 20
1, 711992, Control_c, 0, 67, 29
1, 711998, Note_off_c, 0, 64, 64
1, 712002, Note_on_c, 0, 85, 72
1, 712002, Note_on_c, 0, 88, 76
1, 712007, Control_c, 0, 67, 41
1, 712009, Note_on_c, 0, 73, 72
1, 712022, Control_c, 0, 67, 55
1, 712025, Note_off_c, 0, 85, 69
1, 712035, Note_off_c, 0, 73, 67
1, 712037, Control_c, 0, 67, 68
1, 712037, Note_off_c, 0, 88, 62
1, 712051, Control_c, 0, 67, 74
1, 712066, Control_c, 0, 67, 75
1, 712084, Note_on_c, 0, 81, 54
1, 712108, Note_off_c, 0, 81, 57
1, 712157, Note_on_c, 0, 89, 79
1, 712162, Control_c, 0, 67, 75
1, 712169, Note_on_c, 0, 74, 60
1, 712170, Note_on_c, 0, 86, 64
1, 712177, Control_c, 0, 67, 77
1, 712179, Note_on_c, 0, 69, 52
1, 712192, Control_c, 0, 67, 81
1, 712198, Note_off_c, 0, 86, 65
1, 712207, Control_c, 0, 67, 85
1, 712207, Note_off_c, 0, 74, 63
1, 712214, Note_on_c, 0, 73, 74
1, 712214, Note_off_c, 0, 69, 64
1, 712222, Control_c, 0, 67, 89
1, 712225, Note_on_c, 0, 88, 69
1, 712231, Note_on_c, 0, 76, 65
1, 712237, Note_on_c, 0, 91, 78
1, 712237, Control_c, 0, 67, 91
1, 712239, Note_off_c, 0, 73, 68
1, 712240, Note_off_c, 0, 89, 61
1, 712251, Control_c, 0, 67, 92
1, 712255, Note_off_c, 0, 76, 66
1, 712261, Note_off_c, 0, 88, 63
1, 712266, Control_c, 0, 67, 94
1, 712281, Control_c, 0, 67, 94
1, 712288, Note_off_c, 0, 91, 64
1, 712298, Note_on_c, 0, 81, 67
1, 712330, Note_off_c, 0, 81, 63
1, 712340, Control_c, 0, 67, 95
1, 712355, Control_c, 0, 67, 97
1, 712370, Control_c, 0, 67, 103
1, 712374, Note_on_c, 0, 88, 71
1, 712380, Note_on_c, 0, 91, 71
1, 712384, Control_c, 0, 67, 108
1, 712398, Note_off_c, 0, 88, 68
1, 712399, Control_c, 0, 67, 112
1, 712414, Control_c, 0, 64, 40
1, 712414, Control_c, 0, 67, 114
1, 712429, Control_c, 0, 64, 0
1, 712442, Note_on_c, 0, 77, 57
1, 712444, Control_c, 0, 67, 117
1, 712448, Note_on_c, 0, 69, 56
1, 712448, Note_off_c, 0, 91, 65
1, 712449, Note_on_c, 0, 93, 76
1, 712458, Control_c, 0, 67, 123
1, 712460, Note_off_c, 0, 77, 65
1, 712473, Control_c, 0, 67, 127
1, 712478, Poly_aftertouch_c, 0, 65, 0
1, 712478, Note_off_c, 0, 69, 65
1, 712482, Note_off_c, 0, 93, 64
1, 712519, Note_on_c, 0, 81, 62
1, 712557, Note_off_c, 0, 81, 63
1, 712587, Note_on_c, 0, 93, 75
1, 712595, Note_on_c, 0, 57, 61
1, 712627, Note_off_c, 0, 57, 65
1, 712630, Note_on_c, 0, 62, 55
1, 712651, Note_off_c, 0, 93, 64
1, 712653, Note_on_c, 0, 86, 75
1, 712653, Note_off_c, 0, 62, 59
1, 712663, Note_on_c, 0, 71, 62
1, 712667, Note_on_c, 0, 83, 33
1, 712681, Note_off_c, 0, 71, 64
1, 712697, Note_off_c, 0, 86, 62
1, 712699, Note_off_c, 0, 83, 33
1, 712732, Note_on_c, 0, 81, 64
1, 712767, Note_off_c, 0, 81, 60
1, 712798, Note_on_c, 0, 88, 76
1, 712805, Note_on_c, 0, 67, 56
1, 712806, Note_on_c, 0, 85, 69
1, 712807, Note_on_c, 0, 73, 59
1, 712831, Note_off_c, 0, 85, 68
1, 712844, Note_off_c, 0, 67, 65
1, 712844, Note_off_c, 0, 73, 62
1, 712844, Control_c, 0, 64, 45
1, 712846, Note_on_c, 0, 71, 67
1, 712857, Note_on_c, 0, 89, 73
1, 712859, Control_c, 0, 64, 0
1, 712882, Note_off_c, 0, 71, 66
1, 712887, Note_off_c, 0, 88, 59
1, 712891, Note_on_c, 0, 86, 63
1, 712913, Note_off_c, 0, 89, 63
1, 712914, Note_off_c, 0, 86, 64
1, 712937, Note_on_c, 0, 81, 76
1, 712974, Note_off_c, 0, 81, 62
1, 713007, Note_on_c, 0, 86, 68
1, 713013, Note_on_c, 0, 89, 77
1, 713028, Note_on_c, 0, 61, 50
1, 713028, Note_on_c, 0, 66, 56
1, 713037, Note_off_c, 0, 86, 63
1, 713050, Note_off_c, 0, 66, 58
1, 713057, Note_off_c, 0, 61, 57
1, 713067, Note_on_c, 0, 70, 78
1, 713077, Note_on_c, 0, 76, 65
1, 713083, Note_on_c, 0, 67, 26
1, 713085, Note_off_c, 0, 89, 63
1, 713088, Control_c, 0, 64, 57
1, 713094, Note_off_c, 0, 76, 65
1, 713095, Note_on_c, 0, 91, 59
1, 713101, Note_off_c, 0, 70, 65
1, 713103, Control_c, 0, 64, 62
1, 713105, Note_on_c, 0, 93, 44
1, 713116, Note_off_c, 0, 91, 64
1, 713117, Control_c, 0, 64, 45
1, 713121, Note_off_c, 0, 67, 31
1, 713129, Note_off_c, 0, 93, 51
1, 713132, Control_c, 0, 64, 0
1, 713146, Note_on_c, 0, 81, 68
1, 713177, Control_c, 0, 64, 43
1, 713182, Note_off_c, 0, 81, 65
1, 713192, Control_c, 0, 64, 0
1, 713196, Note_on_c, 0, 57, 76
1, 713201, Note_on_c, 0, 91, 81
1, 713253, Note_off_c, 0, 57, 63
1, 713268, Note_on_c, 0, 65, 55
1, 713277, Note_on_c, 0, 84, 86
1, 713280, Note_on_c, 0, 69, 71
1, 713286, Note_off_c, 0, 91, 63
1, 713299, Note_off_c, 0, 65, 65
1, 713310, Note_off_c, 0, 69, 64
1, 713320, Note_off_c, 0, 84, 63
1, 713351, Note_on_c, 0, 81, 76
1, 713355, Control_c, 0, 64, 40
1, 713369, Control_c, 0, 64, 0
1, 713379, Note_on_c, 0, 71, 79
1, 713393, Note_off_c, 0, 81, 59
1, 713414, Note_off_c, 0, 71, 66
1, 713422, Note_on_c, 0, 86, 70
1, 713428, Note_on_c, 0, 83, 69
1, 713465, Note_off_c, 0, 83, 60
1, 713493, Note_on_c, 0, 88, 76
1, 713497, Note_on_c, 0, 69, 67
1, 713498, Note_on_c, 0, 65, 70
1, 713501, Note_on_c, 0, 85, 83
1, 713513, Note_off_c, 0, 86, 61
1, 713516, Note_off_c, 0, 69, 66
1, 713517, Note_on_c, 0, 73, 59
1, 713521, Note_off_c, 0, 65, 66
1, 713535, Note_off_c, 0, 88, 65
1, 713538, Note_off_c, 0, 73, 62
1, 713542, Note_off_c, 0, 85, 63
1, 713571, Note_on_c, 0, 81, 79
1, 713607, Note_off_c, 0, 81, 60
1, 713638, Note_on_c, 0, 74, 46
1, 713641, Note_on_c, 0, 86, 73
1, 713646, Note_on_c, 0, 72, 35
1, 713656, Note_on_c, 0, 89, 73
1, 713662, Note_off_c, 0, 74, 60
1, 713673, Note_off_c, 0, 86, 58
1, 713679, Note_off_c, 0, 72, 33
1, 713704, Control_c, 0, 64, 53
1, 713719, Control_c, 0, 64, 81
1, 713727, Note_on_c, 0, 91, 91
1, 713734, Control_c, 0, 64, 97
1, 713745, Note_on_c, 0, 64, 67
1, 713763, Control_c, 0, 64, 94
1, 713764, Note_on_c, 0, 69, 30
1, 713766, Note_on_c, 0, 88, 16
1, 713778, Control_c, 0, 64, 95
1, 713787, Note_off_c, 0, 91, 62
1, 713788, Note_off_c, 0, 64, 59
1, 713793, Control_c, 0, 64, 127
1, 713800, Note_off_c, 0, 89, 39
1, 713801, Note_off_c, 0, 69, 53
1, 713807, Note_on_c, 0, 81, 65
1, 713817, Note_off_c, 0, 88, 62
1, 713824, Note_off_c, 0, 81, 65
1, 713831, Note_on_c, 0, 93, 94
1, 713870, Note_off_c, 0, 93, 66
1, 713931, Note_on_c, 0, 81, 72
1, 713941, Control_c, 0, 64, 82
1, 713943, Note_on_c, 0, 95, 72
1, 713956, Control_c, 0, 64, 52
1, 713966, Note_on_c, 0, 96, 37
1, 713966, Note_off_c, 0, 96, 127
1, 713971, Control_c, 0, 64, 0
1, 713978, Note_off_c, 0, 81, 64
1, 713991, Note_off_c, 0, 95, 60
1, 714001, Note_on_c, 0, 76, 56
1, 714001, Control_c, 0, 64, 58
1, 714003, Note_on_c, 0, 97, 82
1, 714010, Note_on_c, 0, 93, 71
1, 714015, Control_c, 0, 64, 74
1, 714025, Note_off_c, 0, 76, 65
1, 714030, Control_c, 0, 64, 77
1, 714045, Control_c, 0, 64, 75
1, 714050, Note_off_c, 0, 93, 60
1, 714058, Note_on_c, 0, 69, 59
1, 714060, Control_c, 0, 64, 69
1, 714074, Control_c, 0, 64, 70
1, 714078, Note_on_c, 0, 95, 79
1, 714079, Note_off_c, 0, 69, 65
1, 714088, Note_on_c, 0, 98, 78
1, 714089, Control_c, 0, 64, 75
1, 714095, Note_off_c, 0, 97, 64
1, 714104, Control_c, 0, 64, 85
1, 714119, Note_off_c, 0, 95, 62
1, 714119, Control_c, 0, 64, 90
1, 714134, Control_c, 0, 64, 87
1, 714138, Note_on_c, 0, 69, 76
1, 714148, Control_c, 0, 64, 80
1, 714158, Note_on_c, 0, 97, 82
1, 714163, Control_c, 0, 64, 74
1, 714165, Note_on_c, 0, 100, 73
1, 714171, Note_off_c, 0, 69, 61
1, 714178, Control_c, 0, 64, 73
1, 714189, Note_off_c, 0, 98, 65
1, 714192, Control_c, 0, 64, 75
1, 714205, Note_off_c, 0, 97, 66
1, 714207, Note_on_c, 0, 64, 62
1, 714207, Note_off_c, 0, 100, 67
1, 714207, Control_c, 0, 64, 79
1, 714222, Control_c, 0, 64, 76
1, 714229, Note_on_c, 0, 93, 80
1, 714237, Control_c, 0, 64, 62
1, 714252, Control_c, 0, 64, 0
1, 714281, Note_on_c, 0, 57, 72
1, 714282, Note_off_c, 0, 93, 64
1, 714292, Note_on_c, 0, 98, 82
1, 714302, Note_on_c, 0, 101, 86
1, 714310, Note_off_c, 0, 57, 67
1, 714311, Control_c, 0, 64, 53
1, 714326, Control_c, 0, 64, 66
1, 714335, Note_off_c, 0, 64, 59
1, 714338, Note_off_c, 0, 98, 64
1, 714342, Control_c, 0, 64, 72
1, 714345, Note_on_c, 0, 72, 67
1, 714357, Control_c, 0, 64, 73
1, 714377, Note_off_c, 0, 72, 68
1, 714379, Note_on_c, 0, 103, 73
1, 714379, Note_on_c, 0, 105, 75
1, 714394, Control_c, 0, 64, 75
1, 714409, Control_c, 0, 64, 80
1, 714411, Note_off_c, 0, 101, 63
1, 714416, Note_off_c, 0, 105, 62
1, 714416, Note_off_c, 0, 103, 63
1, 714424, Control_c, 0, 64, 87
1, 714439, Control_c, 0, 64, 96
1, 714446, Note_on_c, 0, 93, 78
1, 714453, Control_c, 0, 64, 111
1, 714468, Control_c, 0, 64, 127
1, 714482, Note_off_c, 0, 93, 64
1, 714514, Note_on_c, 0, 105, 75
1, 714533, Note_off_c, 0, 105, 62
1, 714557, Control_c, 0, 64, 113
1, 714571, Control_c, 0, 64, 68
1, 714576, Note_on_c, 0, 95, 80
1, 714586, Control_c, 0, 64, 0
1, 714588, Note_on_c, 0, 79, 45
1, 714614, Note_on_c, 0, 74, 57
1, 714617, Note_off_c, 0, 79, 58
1, 714630, Control_c, 0, 64, 45
1, 714635, Poly_aftertouch_c, 0, 103, 0
1, 714645, Control_c, 0, 64, 62
1, 714660, Control_c, 0, 64, 67
1, 714669, Note_on_c, 0, 91, 72
1, 714670, Note_off_c, 0, 74, 64
1, 714675, Note_off_c, 0, 95, 62
1, 714685, Note_on_c, 0, 93, 59
1, 714690, Control_c, 0, 64, 67
1, 714705, Control_c, 0, 64, 67
1, 714720, Control_c, 0, 64, 69
1, 714732, Note_on_c, 0, 67, 3
1, 714732, Note_off_c, 0, 91, 64
1, 714735, Note_on_c, 0, 97, 88
1, 714735, Control_c, 0, 64, 71
1, 714745, Note_off_c, 0, 67, 0
1, 714750, Control_c, 0, 64, 70
1, 714762, Note_on_c, 0, 67, 14
1, 714764, Control_c, 0, 64, 62
1, 714769, Note_off_c, 0, 93, 66
1, 714779, Control_c, 0, 64, 0
1, 714784, Note_on_c, 0, 98, 73
1, 714825, Note_off_c, 0, 67, 60
1, 714838, Control_c, 0, 64, 62
1, 714839, Note_off_c, 0, 98, 65
1, 714839, Note_off_c, 0, 97, 62
1, 714843, Note_on_c, 0, 91, 89
1, 714853, Control_c, 0, 64, 80
1, 714867, Note_on_c, 0, 64, 4
1, 714868, Control_c, 0, 64, 99
1, 714883, Control_c, 0, 64, 101
1, 714887, Note_off_c, 0, 91, 63
1, 714897, Control_c, 0, 64, 99
1, 714902, Note_on_c, 0, 97, 88
1, 714915, Note_off_c, 0, 64, 41
1, 714919, Note_on_c, 0, 100, 79
1, 714927, Control_c, 0, 64, 111
1, 714942, Control_c, 0, 64, 127
1, 714943, Note_off_c, 0, 97, 67
1, 714970, Note_on_c, 0, 101, 87
1, 714979, Poly_aftertouch_c, 0, 57, 127
1, 715009, Note_on_c, 0, 70, 70
1, 715024, Note_on_c, 0, 98, 53
1, 715025, Note_off_c, 0, 101, 64
1, 715026, Poly_aftertouch_c, 0, 57, 0
1, 715032, Note_off_c, 0, 100, 69
1, 715033, Note_off_c, 0, 70, 69
1, 715035, Note_on_c, 0, 93, 72
1, 715048, Note_off_c, 0, 98, 59
1, 715072, Note_off_c, 0, 93, 62
1, 715098, Note_on_c, 0, 103, 91
1, 715125, Note_on_c, 0, 100, 61
1, 715130, Note_on_c, 0, 101, 49
1, 715145, Note_off_c, 0, 100, 65
1, 715147, Note_off_c, 0, 103, 64
1, 715155, Note_off_c, 0, 101, 59
1, 715173, Poly_aftertouch_c, 0, 98, 127
1, 715173, Control_c, 0, 64, 69
1, 715188, Control_c, 0, 64, 0
1, 715195, Note_on_c, 0, 57, 66
1, 715209, Note_on_c, 0, 89, 96
1, 715215, Poly_aftertouch_c, 0, 98, 0
1, 715216, Note_on_c, 0, 93, 78
1, 715220, Note_on_c, 0, 60, 61
1, 715229, Note_off_c, 0, 89, 68
1, 715234, Note_off_c, 0, 93, 72
1, 715244, Note_on_c, 0, 95, 29
1, 715255, Note_off_c, 0, 57, 64
1, 715257, Note_off_c, 0, 60, 63
1, 715271, Note_on_c, 0, 65, 53
1, 715280, Note_off_c, 0, 95, 44
1, 715303, Note_off_c, 0, 65, 65
1, 715319, Note_on_c, 0, 69, 68
1, 715322, Note_on_c, 0, 94, 96
1, 715325, Note_on_c, 0, 91, 87
1, 715347, Note_off_c, 0, 91, 66
1, 715361, Note_off_c, 0, 94, 67
1, 715387, Note_off_c, 0, 69, 60
1, 715414, Note_on_c, 0, 70, 71
1, 715431, Note_on_c, 0, 96, 94
1, 715434, Note_on_c, 0, 93, 88
1, 715453, Note_off_c, 0, 93, 69
1, 715468, Note_off_c, 0, 96, 66
1, 715491, Note_on_c, 0, 74, 79
1, 715511, Note_off_c, 0, 70, 58
1, 715525, Note_on_c, 0, 98, 93
1, 715535, Note_on_c, 0, 94, 87
1, 715542, Note_off_c, 0, 74, 61
1, 715569, Note_off_c, 0, 98, 68
1, 715570, Note_on_c, 0, 77, 63
1, 715570, Note_off_c, 0, 94, 62
1, 715596, Note_off_c, 0, 77, 68
1, 715646, Control_c, 0, 64, 93
1, 715646, Control_c, 0, 67, 122
1, 715652, Note_on_c, 0, 88, 99
1, 715653, Note_on_c, 0, 76, 92
1, 715655, Note_on_c, 0, 100, 99
1, 715656, Note_on_c, 0, 69, 88
1, 715656, Note_on_c, 0, 73, 97
1, 715659, Note_on_c, 0, 97, 91
1, 715662, Control_c, 0, 64, 127
1, 715662, Control_c, 0, 67, 81
1, 715665, Note_on_c, 0, 93, 77
1, 715665, Note_on_c, 0, 98, 81
1, 715668, Note_off_c, 0, 88, 73
1, 715668, Note_off_c, 0, 76, 75
1, 715671, Note_off_c, 0, 73, 76
1, 715672, Note_off_c, 0, 69, 75
1, 715672, Note_off_c, 0, 100, 74
1, 715676, Note_off_c, 0, 97, 73
1, 715677, Control_c, 0, 67, 0
1, 715679, Note_off_c, 0, 93, 67
1, 715680, Note_off_c, 0, 98, 69
1, 715906, Control_c, 0, 64, 97
1, 715921, Control_c, 0, 64, 60
1, 715936, Control_c, 0, 64, 0
1, 716025, Control_c, 0, 64, 55
1, 716034, Note_on_c, 0, 53, 98
1, 716034, Note_on_c, 0, 41, 94
1, 716040, Control_c, 0, 64, 127
1, 716041, Note_on_c, 0, 29, 89
1, 716058, Note_off_c, 0, 41, 70
1, 716059, Note_off_c, 0, 53, 64
1, 716064, Note_off_c, 0, 29, 65
1, 716305, Note_on_c, 0, 53, 63
1, 716306, Note_on_c, 0, 69, 74
1, 716309, Note_on_c, 0, 57, 68
1, 716311, Note_on_c, 0, 63, 74
1, 716334, Note_off_c, 0, 53, 66
1, 716334, Note_off_c, 0, 57, 65
1, 716335, Note_off_c, 0, 63, 69
1, 716335, Note_off_c, 0, 69, 61
1, 716379, Poly_aftertouch_c, 0, 48, 127
1, 716413, Poly_aftertouch_c, 0, 48, 0
1, 716532, Note_on_c, 0, 69, 89
1, 716535, Note_on_c, 0, 75, 86
1, 716536, Note_on_c, 0, 65, 86
1, 716538, Note_on_c, 0, 53, 76
1, 716544, Note_on_c, 0, 60, 73
1, 716552, Note_off_c, 0, 69, 70
1, 716563, Note_off_c, 0, 65, 62
1, 716567, Note_off_c, 0, 53, 68
1, 716567, Note_off_c, 0, 60, 70
1, 716571, Note_off_c, 0, 75, 67
1, 716729, Control_c, 0, 64, 63
1, 716744, Control_c, 0, 64, 0
1, 716776, Note_on_c, 0, 66, 104
1, 716782, Note_on_c, 0, 54, 93
1, 716782, Note_on_c, 0, 78, 101
1, 716784, Note_on_c, 0, 90, 106
1, 716789, Control_c, 0, 64, 72
1, 716803, Control_c, 0, 64, 127
1, 716805, Note_off_c, 0, 90, 67
1, 716808, Note_off_c, 0, 54, 65
1, 716810, Note_off_c, 0, 66, 66
1, 716812, Note_off_c, 0, 78, 61
1, 717052, Note_on_c, 0, 63, 83
1, 717052, Note_on_c, 0, 69, 78
1, 717054, Note_on_c, 0, 71, 90
1, 717056, Note_on_c, 0, 83, 85
1, 717057, Note_on_c, 0, 75, 76
1, 717058, Note_on_c, 0, 59, 64
1, 717072, Note_off_c, 0, 69, 71
1, 717076, Note_off_c, 0, 83, 69
1, 717080, Note_off_c, 0, 71, 65
1, 717085, Note_off_c, 0, 59, 68
1, 717093, Note_off_c, 0, 63, 61
1, 717093, Note_off_c, 0, 75, 60
1, 717328, Note_on_c, 0, 58, 92
1, 717333, Note_on_c, 0, 51, 89
1, 717336, Note_on_c, 0, 70, 100
1, 717337, Note_on_c, 0, 63, 98
1, 717347, Note_off_c, 0, 58, 72
1, 717367, Note_off_c, 0, 63, 66
1, 717378, Note_off_c, 0, 70, 69
1, 717382, Note_off_c, 0, 51, 65
1, 717799, Note_on_c, 0, 53, 93
1, 717801, Note_on_c, 0, 41, 86
1, 717804, Note_on_c, 0, 29, 83
1, 717833, Control_c, 0, 64, 82
1, 717848, Control_c, 0, 64, 44
1, 717863, Control_c, 0, 64, 0
1, 717997, Control_c, 0, 64, 34
1, 718012, Control_c, 0, 64, 51
1, 718027, Control_c, 0, 64, 59
1, 718041, Control_c, 0, 64, 63
1, 718056, Control_c, 0, 64, 71
1, 718071, Control_c, 0, 64, 87
1, 718086, Control_c, 0, 64, 127
1, 718167, Note_off_c, 0, 29, 60
1, 718206, Note_off_c, 0, 53, 60
1, 718225, Note_off_c, 0, 41, 59
1, 718557, Note_on_c, 0, 50, 67
1, 718592, Note_on_c, 0, 65, 84
1, 718598, Note_on_c, 0, 57, 72
1, 718609, Note_on_c, 0, 63, 62
1, 718672, Note_off_c, 0, 57, 63
1, 718698, Note_off_c, 0, 65, 64
1, 718702, Note_off_c, 0, 63, 61
1, 718798, Note_on_c, 0, 67, 77
1, 718804, Note_on_c, 0, 48, 70
1, 718810, Note_on_c, 0, 58, 68
1, 718813, Note_on_c, 0, 63, 70
1, 718820, Control_c, 0, 64, 102
1, 718835, Control_c, 0, 64, 64
1, 718850, Control_c, 0, 64, 0
1, 718872, Note_off_c, 0, 50, 54
1, 718887, Control_c, 0, 64, 39
1, 718902, Control_c, 0, 64, 56
1, 718917, Control_c, 0, 64, 64
1, 718932, Control_c, 0, 64, 72
1, 718946, Control_c, 0, 64, 85
1, 718946, Control_c, 0, 67, 21
1, 718961, Control_c, 0, 64, 104
1, 718976, Control_c, 0, 64, 112
1, 719005, Control_c, 0, 67, 19
1, 719014, Note_off_c, 0, 58, 60
1, 719018, Note_off_c, 0, 67, 61
1, 719020, Control_c, 0, 64, 115
1, 719021, Note_off_c, 0, 63, 56
1, 719035, Control_c, 0, 64, 127
1, 719064, Control_c, 0, 67, 0
1, 719094, Note_on_c, 0, 41, 45
1, 719109, Control_c, 0, 67, 20
1, 719155, Control_c, 0, 67, 0
1, 719169, Note_off_c, 0, 48, 36
1, 719244, Note_on_c, 0, 69, 73
1, 719255, Note_on_c, 0, 50, 53
1, 719260, Note_on_c, 0, 67, 68
1, 719263, Note_on_c, 0, 57, 58
1, 719272, Note_on_c, 0, 63, 47
1, 719289, Note_off_c, 0, 41, 38
1, 719329, Note_off_c, 0, 57, 60
1, 719331, Note_off_c, 0, 69, 60
1, 719370, Note_off_c, 0, 63, 49
1, 719372, Note_off_c, 0, 67, 61
1, 719411, Note_on_c, 0, 41, 47
1, 719442, Note_off_c, 0, 50, 35
1, 719551, Note_on_c, 0, 58, 68
1, 719551, Note_on_c, 0, 70, 77
1, 719555, Note_on_c, 0, 67, 45
1, 719556, Note_on_c, 0, 51, 58
1, 719558, Note_on_c, 0, 63, 60
1, 719570, Note_off_c, 0, 41, 55
1, 719597, Note_off_c, 0, 67, 54
1, 719624, Note_off_c, 0, 63, 52
1, 719632, Note_off_c, 0, 58, 44
1, 719637, Note_off_c, 0, 70, 64
1, 719706, Note_on_c, 0, 41, 55
1, 719734, Note_off_c, 0, 51, 36
1, 719810, Note_off_c, 0, 41, 50
1, 719814, Note_on_c, 0, 54, 74
1, 719816, Note_on_c, 0, 63, 60
1, 719819, Note_on_c, 0, 72, 81
1, 719823, Note_on_c, 0, 60, 71
1, 719826, Note_on_c, 0, 48, 61
1, 719832, Note_on_c, 0, 69, 65
1, 719879, Note_off_c, 0, 60, 52
1, 719879, Note_off_c, 0, 63, 61
1, 719891, Note_off_c, 0, 54, 56
1, 719892, Note_off_c, 0, 69, 61
1, 719907, Note_off_c, 0, 48, 62
1, 719913, Note_off_c, 0, 72, 61
1, 719958, Note_on_c, 0, 41, 55
1, 720041, Note_off_c, 0, 41, 56
1, 720065, Note_on_c, 0, 74, 85
1, 720071, Note_on_c, 0, 55, 80
1, 720073, Note_on_c, 0, 62, 79
1, 720078, Note_on_c, 0, 48, 63
1, 720080, Note_on_c, 0, 70, 71
1, 720088, Note_on_c, 0, 67, 55
1, 720109, Note_on_c, 0, 65, 52
1, 720125, Note_off_c, 0, 62, 59
1, 720127, Note_off_c, 0, 55, 60
1, 720136, Note_off_c, 0, 65, 58
1, 720137, Note_off_c, 0, 67, 59
1, 720147, Note_off_c, 0, 74, 64
1, 720163, Note_off_c, 0, 70, 63
1, 720166, Note_off_c, 0, 48, 58
1, 720190, Note_on_c, 0, 41, 68
1, 720284, Note_off_c, 0, 41, 48
1, 720301, Note_on_c, 0, 48, 64
1, 720306, Note_on_c, 0, 58, 87
1, 720315, Note_on_c, 0, 70, 82
1, 720316, Note_on_c, 0, 63, 93
1, 720318, Note_on_c, 0, 75, 92
1, 720321, Note_on_c, 0, 67, 75
1, 720348, Note_off_c, 0, 67, 64
1, 720366, Note_off_c, 0, 58, 63
1, 720369, Note_off_c, 0, 63, 59
1, 720377, Note_off_c, 0, 70, 63
1, 720385, Note_off_c, 0, 48, 63
1, 720395, Note_off_c, 0, 75, 63
1, 720439, Note_on_c, 0, 41, 70
1, 720470, Note_off_c, 0, 41, 63
1, 720559, Poly_aftertouch_c, 0, 43, 0
1, 720562, Note_on_c, 0, 54, 45
1, 720579, Note_on_c, 0, 59, 84
1, 720586, Note_on_c, 0, 67, 95
1, 720589, Note_on_c, 0, 79, 98
1, 720591, Note_on_c, 0, 75, 82
1, 720593, Note_on_c, 0, 71, 83
1, 720597, Note_on_c, 0, 51, 80
1, 720619, Note_on_c, 0, 55, 60
1, 720624, Note_off_c, 0, 59, 64
1, 720636, Note_off_c, 0, 67, 64
1, 720646, Note_off_c, 0, 55, 65
1, 720647, Note_off_c, 0, 54, 61
1, 720648, Note_off_c, 0, 71, 62
1, 720663, Note_off_c, 0, 51, 62
1, 720673, Note_off_c, 0, 75, 64
1, 720686, Note_off_c, 0, 79, 62
1, 720723, Note_on_c, 0, 41, 85
1, 720766, Note_on_c, 0, 40, 34
1, 720766, Note_off_c, 0, 40, 127
1, 720771, Note_off_c, 0, 41, 62
1, 720804, Poly_aftertouch_c, 0, 40, 0
1, 720828, Control_c, 0, 67, 23
1, 720838, Poly_aftertouch_c, 0, 78, 0
1, 720843, Control_c, 0, 67, 0
1, 720857, Control_c, 0, 64, 64
1, 720866, Note_on_c, 0, 81, 96
1, 720867, Note_on_c, 0, 69, 96
1, 720869, Note_on_c, 0, 62, 83
1, 720872, Note_on_c, 0, 51, 79
1, 720872, Note_on_c, 0, 55, 77
1, 720872, Control_c, 0, 64, 0
1, 720873, Note_on_c, 0, 75, 85
1, 720873, Note_on_c, 0, 79, 86
1, 720874, Note_on_c, 0, 60, 85
1, 720887, Control_c, 0, 64, 39
1, 720903, Control_c, 0, 64, 67
1, 720905, Note_off_c, 0, 60, 57
1, 720916, Note_on_c, 0, 50, 28
1, 720916, Note_off_c, 0, 50, 127
1, 720918, Control_c, 0, 64, 127
1, 720919, Note_off_c, 0, 62, 62
1, 720943, Note_off_c, 0, 69, 59
1, 720951, Poly_aftertouch_c, 0, 50, 0
1, 720951, Note_off_c, 0, 81, 64
1, 720954, Note_off_c, 0, 55, 62
1, 720955, Poly_aftertouch_c, 0, 54, 0
1, 720959, Note_off_c, 0, 51, 60
1, 720974, Note_off_c, 0, 75, 64
1, 720990, Note_off_c, 0, 79, 66
1, 721021, Note_on_c, 0, 43, 93
1, 721064, Note_off_c, 0, 43, 65
1, 721137, Poly_aftertouch_c, 0, 41, 0
1, 721181, Note_on_c, 0, 70, 106
1, 721182, Note_on_c, 0, 60, 98
1, 721183, Note_on_c, 0, 55, 73
1, 721186, Note_on_c, 0, 79, 91
1, 721186, Note_on_c, 0, 82, 98
1, 721187, Note_on_c, 0, 75, 87
1, 721191, Note_on_c, 0, 51, 84
1, 721230, Note_off_c, 0, 60, 66
1, 721249, Note_off_c, 0, 55, 64
1, 721257, Note_off_c, 0, 70, 62
1, 721272, Note_off_c, 0, 51, 62
1, 721291, Note_off_c, 0, 79, 60
1, 721293, Note_off_c, 0, 75, 61
1, 721310, Note_off_c, 0, 82, 63
1, 721354, Note_on_c, 0, 41, 95
1, 721419, Note_off_c, 0, 41, 64
1, 721448, Note_on_c, 0, 75, 35
1, 721477, Note_off_c, 0, 75, 56
1, 721534, Note_on_c, 0, 58, 104
1, 721534, Control_c, 0, 64, 85
1, 721539, Note_on_c, 0, 51, 99
1, 721543, Note_on_c, 0, 54, 84
1, 721549, Control_c, 0, 64, 38
1, 721549, Control_c, 0, 67, 65
1, 721563, Note_on_c, 0, 72, 108
1, 721563, Control_c, 0, 64, 0
1, 721563, Control_c, 0, 67, 70
1, 721564, Note_on_c, 0, 84, 108
1, 721566, Note_on_c, 0, 75, 91
1, 721568, Note_on_c, 0, 78, 100
1, 721578, Control_c, 0, 64, 52
1, 721578, Control_c, 0, 67, 57
1, 721589, Note_off_c, 0, 72, 71
1, 721593, Control_c, 0, 64, 89
1, 721593, Control_c, 0, 67, 40
1, 721597, Note_off_c, 0, 84, 68
1, 721607, Control_c, 0, 64, 127
1, 721607, Control_c, 0, 67, 0
1, 721609, Note_off_c, 0, 78, 69
1, 721609, Note_off_c, 0, 75, 67
1, 721617, Note_off_c, 0, 58, 63
1, 721641, Note_off_c, 0, 54, 61
1, 721685, Note_off_c, 0, 51, 61
1, 721843, Note_on_c, 0, 41, 96
1, 721982, Note_off_c, 0, 41, 62
1, 722146, Note_on_c, 0, 34, 85
1, 722148, Note_on_c, 0, 41, 100
1, 722178, Control_c, 0, 64, 90
1, 722189, Note_on_c, 0, 53, 92
1, 722191, Note_on_c, 0, 55, 94
1, 722193, Control_c, 0, 64, 36
1, 722193, Note_on_c, 0, 35, 55
1, 722207, Control_c, 0, 64, 0
1, 722237, Control_c, 0, 64, 39
1, 722246, Note_off_c, 0, 35, 61
1, 722252, Control_c, 0, 64, 72
1, 722265, Note_off_c, 0, 34, 62
1, 722267, Control_c, 0, 64, 127
1, 722273, Note_off_c, 0, 41, 62
1, 722288, Note_off_c, 0, 53, 62
1, 722292, Note_off_c, 0, 55, 61
1, 722497, Note_on_c, 0, 53, 91
1, 722498, Note_on_c, 0, 41, 82
1, 722498, Poly_aftertouch_c, 0, 61, 0
1, 722500, Note_on_c, 0, 51, 82
1, 722508, Note_on_c, 0, 57, 99
1, 722509, Note_on_c, 0, 65, 97
1, 722509, Note_on_c, 0, 62, 90
1, 722545, Note_off_c, 0, 57, 67
1, 722545, Note_off_c, 0, 41, 59
1, 722556, Note_off_c, 0, 62, 65
1, 722559, Note_off_c, 0, 51, 63
1, 722562, Note_off_c, 0, 53, 62
1, 722567, Note_off_c, 0, 65, 66
1, 722809, Note_on_c, 0, 69, 101
1, 722811, Note_on_c, 0, 57, 91
1, 722814, Note_on_c, 0, 63, 87
1, 722815, Note_on_c, 0, 65, 89
1, 722846, Note_on_c, 0, 74, 110
1, 722846, Note_on_c, 0, 81, 102
1, 722847, Note_on_c, 0, 77, 103
1, 722887, Note_off_c, 0, 74, 70
1, 722890, Note_on_c, 0, 83, 29
1, 722892, Note_off_c, 0, 69, 60
1, 722898, Note_off_c, 0, 65, 65
1, 722900, Note_off_c, 0, 77, 68
1, 722905, Note_off_c, 0, 81, 68
1, 722911, Note_off_c, 0, 63, 62
1, 722923, Note_off_c, 0, 57, 63
1, 722929, Note_off_c, 0, 83, 31
1, 723170, Note_on_c, 0, 53, 68
1, 723171, Note_on_c, 0, 63, 80
1, 723171, Note_on_c, 0, 57, 72
1, 723233, Note_on_c, 0, 69, 75
1, 723235, Note_on_c, 0, 65, 73
1, 723259, Note_off_c, 0, 53, 60
1, 723280, Note_off_c, 0, 57, 59
1, 723293, Note_off_c, 0, 63, 53
1, 723312, Note_off_c, 0, 65, 61
1, 723342, Note_off_c, 0, 69, 58
1, 723385, Note_on_c, 0, 63, 80
1, 723386, Note_on_c, 0, 65, 80
1, 723387, Note_on_c, 0, 74, 89
1, 723391, Note_on_c, 0, 69, 62
1, 723395, Note_on_c, 0, 57, 74
1, 723463, Note_off_c, 0, 69, 61
1, 723469, Note_off_c, 0, 65, 61
1, 723470, Note_off_c, 0, 74, 64
1, 723528, Note_on_c, 0, 77, 93
1, 723530, Note_on_c, 0, 53, 86
1, 723534, Note_on_c, 0, 65, 96
1, 723534, Note_on_c, 0, 69, 93
1, 723556, Note_off_c, 0, 57, 57
1, 723558, Note_off_c, 0, 63, 62
1, 723570, Note_off_c, 0, 53, 67
1, 723671, Note_off_c, 0, 65, 59
1, 723671, Note_off_c, 0, 77, 62
1, 723672, Note_off_c, 0, 69, 63
1, 723704, Control_c, 0, 64, 64
1, 723707, Note_on_c, 0, 34, 98
1, 723707, Note_on_c, 0, 41, 97
1, 723719, Control_c, 0, 64, 0
1, 723731, Note_off_c, 0, 34, 67
1, 723735, Note_on_c, 0, 65, 101
1, 723739, Note_on_c, 0, 77, 96
1, 723743, Note_on_c, 0, 70, 90
1, 723743, Note_off_c, 0, 41, 63
1, 723749, Control_c, 0, 64, 38
1, 723755, Note_on_c, 0, 74, 67
1, 723764, Control_c, 0, 64, 70
1, 723779, Control_c, 0, 64, 127
1, 723817, Note_off_c, 0, 65, 53
1, 723850, Note_off_c, 0, 70, 60
1, 723925, Note_on_c, 0, 46, 76
1, 723927, Note_on_c, 0, 53, 68
1, 723932, Note_off_c, 0, 77, 32
1, 723937, Note_on_c, 0, 41, 44
1, 723942, Note_on_c, 0, 70, 70
1, 723956, Note_off_c, 0, 74, 64
1, 723957, Note_off_c, 0, 46, 67
1, 723958, Note_on_c, 0, 64, 26
1, 723959, Note_on_c, 0, 62, 22
1, 723960, Note_off_c, 0, 53, 66
1, 723975, Note_off_c, 0, 70, 64
1, 723983, Note_off_c, 0, 41, 41
1, 723991, Note_off_c, 0, 64, 47
1, 723998, Note_off_c, 0, 62, 44
1, 724129, Note_on_c, 0, 60, 70
1, 724133, Note_on_c, 0, 63, 89
1, 724133, Note_on_c, 0, 67, 95
1, 724148, Note_on_c, 0, 58, 71
1, 724157, Control_c, 0, 64, 73
1, 724170, Note_on_c, 0, 72, 87
1, 724172, Note_on_c, 0, 70, 104
1, 724172, Control_c, 0, 64, 0
1, 724173, Note_on_c, 0, 82, 96
1, 724202, Note_off_c, 0, 67, 65
1, 724202, Control_c, 0, 64, 65
1, 724217, Control_c, 0, 64, 127
1, 724224, Note_off_c, 0, 82, 64
1, 724229, Note_off_c, 0, 70, 62
1, 724231, Note_off_c, 0, 72, 63
1, 724244, Note_off_c, 0, 63, 58
1, 724257, Note_off_c, 0, 60, 61
1, 724265, Note_off_c, 0, 58, 61
1, 724363, Note_on_c, 0, 53, 73
1, 724381, Note_on_c, 0, 60, 68
1, 724382, Note_on_c, 0, 70, 71
1, 724384, Note_on_c, 0, 63, 59
1, 724411, Note_off_c, 0, 53, 60
1, 724415, Note_off_c, 0, 63, 65
1, 724418, Note_off_c, 0, 60, 62
1, 724422, Note_off_c, 0, 70, 60
1, 724508, Note_on_c, 0, 74, 86
1, 724515, Note_on_c, 0, 58, 69
1, 724516, Note_on_c, 0, 70, 79
1, 724517, Note_on_c, 0, 62, 75
1, 724519, Note_on_c, 0, 65, 81
1, 724527, Control_c, 0, 64, 101
1, 724542, Control_c, 0, 64, 92
1, 724549, Note_on_c, 0, 67, 12
1, 724549, Note_off_c, 0, 67, 127
1, 724551, Note_off_c, 0, 65, 62
1, 724557, Control_c, 0, 64, 120
1, 724572, Control_c, 0, 64, 127
1, 724582, Note_off_c, 0, 70, 55
1, 724590, Poly_aftertouch_c, 0, 67, 0
1, 724632, Note_off_c, 0, 62, 57
1, 724647, Note_off_c, 0, 58, 61
1, 724651, Note_on_c, 0, 53, 82
1, 724655, Note_on_c, 0, 62, 74
1, 724664, Note_on_c, 0, 65, 80
1, 724666, Note_on_c, 0, 70, 88
1, 724688, Note_off_c, 0, 53, 62
1, 724688, Note_off_c, 0, 74, 59
1, 724691, Note_off_c, 0, 65, 63
1, 724702, Note_off_c, 0, 62, 61
1, 724732, Note_off_c, 0, 70, 65
1, 724816, Note_on_c, 0, 34, 90
1, 724877, Control_c, 0, 64, 81
1, 724892, Control_c, 0, 64, 38
1, 724893, Note_on_c, 0, 69, 85
1, 724903, Note_on_c, 0, 72, 79
1, 724906, Control_c, 0, 64, 0
1, 724921, Control_c, 0, 64, 35
1, 724927, Note_on_c, 0, 75, 80
1, 724932, Note_off_c, 0, 34, 63
1, 724936, Control_c, 0, 64, 66
1, 724950, Control_c, 0, 64, 127
1, 724954, Note_off_c, 0, 69, 63
1, 724960, Note_on_c, 0, 81, 106
1, 724966, Note_off_c, 0, 72, 66
1, 724983, Note_off_c, 0, 75, 67
1, 724990, Note_off_c, 0, 81, 70
1, 725198, Note_on_c, 0, 66, 78
1, 725199, Note_on_c, 0, 60, 55
1, 725201, Note_on_c, 0, 57, 48
1, 725227, Note_off_c, 0, 57, 58
1, 725232, Note_off_c, 0, 66, 61
1, 725233, Note_off_c, 0, 60, 65
1, 725270, Poly_aftertouch_c, 0, 51, 0
1, 725314, Note_on_c, 0, 60, 67
1, 725341, Note_on_c, 0, 63, 75
1, 725345, Note_off_c, 0, 60, 65
1, 725352, Note_on_c, 0, 68, 78
1, 725365, Note_off_c, 0, 63, 69
1, 725391, Note_off_c, 0, 68, 66
1, 725466, Note_on_c, 0, 60, 67
1, 725480, Note_on_c, 0, 54, 15
1, 725484, Note_on_c, 0, 63, 73
1, 725500, Note_on_c, 0, 69, 78
1, 725506, Note_off_c, 0, 60, 65
1, 725525, Note_off_c, 0, 54, 38
1, 725551, Note_off_c, 0, 63, 62
1, 725576, Note_off_c, 0, 69, 61
1, 725611, Note_on_c, 0, 66, 69
1, 725621, Note_on_c, 0, 69, 44
1, 725647, Note_on_c, 0, 71, 84
1, 725648, Note_off_c, 0, 66, 61
1, 725679, Note_off_c, 0, 69, 63
1, 725686, Note_off_c, 0, 71, 68
1, 725690, Note_on_c, 0, 77, 87
1, 725691, Note_on_c, 0, 78, 60
1, 725691, Note_off_c, 0, 78, 127
1, 725693, Note_on_c, 0, 73, 60
1, 725705, Note_off_c, 0, 77, 75
1, 725713, Note_off_c, 0, 73, 63
1, 725771, Note_on_c, 0, 57, 50
1, 725795, Note_on_c, 0, 63, 59
1, 725802, Note_on_c, 0, 72, 86
1, 725815, Note_on_c, 0, 66, 74
1, 725833, Note_off_c, 0, 72, 64
1, 725848, Note_off_c, 0, 66, 60
1, 725859, Note_off_c, 0, 63, 63
1, 725867, Note_off_c, 0, 57, 62
1, 725964, Note_on_c, 0, 66, 78
1, 725981, Control_c, 0, 64, 71
1, 725987, Note_on_c, 0, 68, 74
1, 725996, Control_c, 0, 64, 0
1, 726006, Note_on_c, 0, 34, 82
1, 726011, Note_on_c, 0, 71, 80
1, 726025, Control_c, 0, 64, 55
1, 726032, Note_off_c, 0, 66, 63
1, 726040, Control_c, 0, 64, 82
1, 726046, Note_off_c, 0, 34, 61
1, 726047, Note_on_c, 0, 78, 98
1, 726051, Note_off_c, 0, 68, 65
1, 726055, Control_c, 0, 64, 127
1, 726057, Note_off_c, 0, 71, 65
1, 726070, Control_c, 0, 67, 20
1, 726079, Note_on_c, 0, 73, 34
1, 726082, Note_off_c, 0, 78, 67
1, 726113, Note_off_c, 0, 73, 55
1, 726221, Note_on_c, 0, 53, 46
1, 726228, Note_on_c, 0, 56, 68
1, 726257, Note_on_c, 0, 63, 71
1, 726271, Note_off_c, 0, 53, 62
1, 726305, Note_off_c, 0, 63, 55
1, 726306, Note_off_c, 0, 56, 60
1, 726369, Note_on_c, 0, 59, 65
1, 726389, Note_on_c, 0, 62, 65
1, 726394, Note_off_c, 0, 59, 67
1, 726401, Note_on_c, 0, 64, 75
1, 726420, Note_off_c, 0, 62, 65
1, 726439, Note_off_c, 0, 64, 60
1, 726548, Note_on_c, 0, 56, 63
1, 726565, Note_on_c, 0, 65, 85
1, 726572, Note_on_c, 0, 59, 63
1, 726592, Note_off_c, 0, 56, 55
1, 726608, Note_off_c, 0, 59, 60
1, 726618, Note_off_c, 0, 65, 62
1, 726672, Control_c, 0, 67, 22
1, 726725, Note_on_c, 0, 62, 53
1, 726736, Note_on_c, 0, 65, 71
1, 726742, Note_on_c, 0, 67, 70
1, 726756, Note_off_c, 0, 62, 64
1, 726798, Note_on_c, 0, 74, 80
1, 726801, Note_off_c, 0, 65, 61
1, 726819, Note_off_c, 0, 67, 64
1, 726843, Note_off_c, 0, 74, 66
1, 726876, Poly_aftertouch_c, 0, 69, 0
1, 726879, Control_c, 0, 67, 24
1, 726906, Poly_aftertouch_c, 0, 69, 0
1, 726908, Control_c, 0, 67, 30
1, 726922, Control_c, 0, 67, 38
1, 726935, Note_on_c, 0, 59, 40
1, 726937, Control_c, 0, 67, 43
1, 726952, Control_c, 0, 67, 45
1, 726995, Note_on_c, 0, 62, 65
1, 726996, Control_c, 0, 67, 44
1, 727011, Control_c, 0, 67, 43
1, 727026, Control_c, 0, 67, 41
1, 727040, Control_c, 0, 67, 37
1, 727043, Note_on_c, 0, 68, 88
1, 727055, Control_c, 0, 67, 34
1, 727070, Control_c, 0, 67, 31
1, 727078, Note_off_c, 0, 59, 62
1, 727087, Note_off_c, 0, 68, 66
1, 727087, Note_off_c, 0, 62, 62
1, 727153, Control_c, 0, 67, 29
1, 727168, Control_c, 0, 67, 27
1, 727183, Control_c, 0, 67, 24
1, 727272, Control_c, 0, 64, 96
1, 727272, Control_c, 0, 67, 28
1, 727275, Note_on_c, 0, 39, 96
1, 727286, Control_c, 0, 64, 53
1, 727301, Control_c, 0, 64, 0
1, 727301, Control_c, 0, 67, 30
1, 727331, Control_c, 0, 64, 35
1, 727345, Control_c, 0, 64, 67
1, 727360, Control_c, 0, 64, 127
1, 727363, Note_off_c, 0, 39, 61
1, 727375, Control_c, 0, 67, 32
1, 727434, Control_c, 0, 67, 29
1, 727464, Control_c, 0, 67, 27
1, 727493, Control_c, 0, 67, 25
1, 727507, Note_on_c, 0, 62, 78
1, 727511, Note_on_c, 0, 46, 78
1, 727514, Note_on_c, 0, 67, 74
1, 727515, Note_on_c, 0, 70, 79
1, 727517, Note_on_c, 0, 55, 64
1, 727523, Control_c, 0, 67, 22
1, 727529, Note_off_c, 0, 62, 69
1, 727538, Control_c, 0, 67, 0
1, 727565, Note_off_c, 0, 67, 62
1, 727571, Note_off_c, 0, 70, 65
1, 727600, Note_off_c, 0, 46, 60
1, 727614, Note_off_c, 0, 55, 51
1, 727681, Note_on_c, 0, 61, 83
1, 727684, Note_on_c, 0, 55, 68
1, 727773, Note_on_c, 0, 77, 98
1, 727785, Note_on_c, 0, 67, 83
1, 727785, Note_on_c, 0, 70, 75
1, 727794, Note_off_c, 0, 61, 53
1, 727828, Note_off_c, 0, 67, 62
1, 727849, Note_off_c, 0, 70, 56
1, 727869, Note_off_c, 0, 55, 52
1, 727964, Note_on_c, 0, 46, 74
1, 727966, Note_off_c, 0, 77, 54
1, 727982, Note_on_c, 0, 70, 75
1, 727983, Note_on_c, 0, 55, 70
1, 727989, Note_on_c, 0, 62, 51
1, 728002, Note_on_c, 0, 67, 45
1, 728017, Note_off_c, 0, 62, 58
1, 728029, Note_off_c, 0, 46, 61
1, 728034, Note_off_c, 0, 67, 57
1, 728047, Note_off_c, 0, 55, 60
1, 728053, Note_off_c, 0, 70, 63
1, 728087, Poly_aftertouch_c, 0, 64, 0
1, 728100, Note_on_c, 0, 62, 80
1, 728103, Note_on_c, 0, 75, 96
1, 728104, Note_on_c, 0, 55, 57
1, 728104, Note_on_c, 0, 70, 73
1, 728120, Note_on_c, 0, 67, 69
1, 728149, Note_off_c, 0, 62, 63
1, 728182, Note_off_c, 0, 67, 63
1, 728193, Note_off_c, 0, 70, 62
1, 728207, Note_off_c, 0, 55, 0
1, 728219, Note_on_c, 0, 55, 51
1, 728231, Note_on_c, 0, 46, 79
1, 728238, Note_on_c, 0, 63, 80
1, 728241, Note_on_c, 0, 70, 65
1, 728244, Note_on_c, 0, 67, 66
1, 728252, Note_off_c, 0, 75, 65
1, 728286, Note_off_c, 0, 63, 55
1, 728286, Note_off_c, 0, 67, 63
1, 728292, Note_off_c, 0, 70, 65
1, 728307, Note_off_c, 0, 46, 60
1, 728345, Note_off_c, 0, 55, 56
1, 728368, Note_on_c, 0, 50, 78
1, 728371, Note_on_c, 0, 58, 81
1, 728375, Control_c, 0, 64, 92
1, 728384, Note_on_c, 0, 74, 100
1, 728387, Note_on_c, 0, 62, 92
1, 728391, Control_c, 0, 64, 58
1, 728395, Note_on_c, 0, 70, 84
1, 728406, Control_c, 0, 64, 0
1, 728421, Control_c, 0, 64, 39
1, 728436, Control_c, 0, 64, 63
1, 728444, Note_off_c, 0, 58, 59
1, 728450, Control_c, 0, 64, 88
1, 728465, Control_c, 0, 64, 127
1, 728490, Note_off_c, 0, 50, 61
1, 728520, Note_on_c, 0, 64, 76
1, 728526, Note_off_c, 0, 62, 57
1, 728532, Note_off_c, 0, 74, 60
1, 728540, Note_on_c, 0, 43, 69
1, 728546, Note_on_c, 0, 52, 67
1, 728579, Note_off_c, 0, 64, 64
1, 728579, Note_off_c, 0, 70, 62
1, 728614, Poly_aftertouch_c, 0, 51, 127
1, 728632, Poly_aftertouch_c, 0, 68, 0
1, 728640, Note_off_c, 0, 52, 56
1, 728645, Note_off_c, 0, 43, 50
1, 728649, Poly_aftertouch_c, 0, 51, 0
1, 728669, Note_on_c, 0, 58, 85
1, 728669, Note_on_c, 0, 72, 92
1, 728675, Note_on_c, 0, 70, 93
1, 728680, Note_on_c, 0, 48, 64
1, 728680, Control_c, 0, 64, 76
1, 728682, Note_on_c, 0, 59, 72
1, 728684, Note_on_c, 0, 60, 76
1, 728694, Control_c, 0, 64, 57
1, 728725, Control_c, 0, 64, 69
1, 728736, Note_off_c, 0, 58, 62
1, 728740, Control_c, 0, 64, 101
1, 728755, Control_c, 0, 64, 127
1, 728792, Note_off_c, 0, 59, 59
1, 728809, Note_off_c, 0, 60, 63
1, 728810, Note_off_c, 0, 48, 61
1, 728822, Note_on_c, 0, 63, 84
1, 728831, Note_on_c, 0, 42, 82
1, 728832, Note_on_c, 0, 51, 83
1, 728841, Note_off_c, 0, 72, 58
1, 728866, Note_off_c, 0, 70, 63
1, 728889, Note_off_c, 0, 42, 63
1, 728897, Note_off_c, 0, 51, 62
1, 728949, Note_off_c, 0, 63, 61
1, 728975, Note_on_c, 0, 50, 85
1, 728975, Note_on_c, 0, 57, 89
1, 728977, Control_c, 0, 64, 85
1, 728992, Control_c, 0, 64, 47
1, 728999, Note_on_c, 0, 69, 93
1, 729001, Note_on_c, 0, 74, 88
1, 729001, Note_on_c, 0, 62, 93
1, 729007, Control_c, 0, 64, 0
1, 729037, Control_c, 0, 64, 64
1, 729051, Control_c, 0, 64, 127
1, 729122, Note_off_c, 0, 50, 50
1, 729135, Note_off_c, 0, 57, 56
1, 729168, Note_off_c, 0, 74, 60
1, 729190, Note_on_c, 0, 63, 85
1, 729198, Note_off_c, 0, 69, 61
1, 729200, Note_off_c, 0, 62, 60
1, 729205, Note_on_c, 0, 43, 63
1, 729213, Note_on_c, 0, 52, 47
1, 729231, Note_off_c, 0, 63, 65
1, 729240, Note_off_c, 0, 43, 64
1, 729243, Note_off_c, 0, 52, 53
1, 729383, Note_on_c, 0, 41, 96
1, 729384, Note_on_c, 0, 34, 98
1, 729399, Control_c, 0, 64, 62
1, 729399, Control_c, 0, 67, 30
1, 729414, Control_c, 0, 64, 0
1, 729414, Control_c, 0, 67, 23
1, 729417, Note_on_c, 0, 63, 90
1, 729418, Note_on_c, 0, 53, 102
1, 729418, Note_on_c, 0, 57, 75
1, 729419, Note_on_c, 0, 65, 96
1, 729428, Note_off_c, 0, 34, 63
1, 729432, Note_on_c, 0, 33, 30
1, 729444, Note_off_c, 0, 41, 63
1, 729444, Control_c, 0, 64, 49
1, 729458, Control_c, 0, 64, 88
1, 729458, Control_c, 0, 67, 28
1, 729460, Note_off_c, 0, 53, 61
1, 729466, Note_off_c, 0, 57, 62
1, 729473, Control_c, 0, 64, 127
1, 729480, Note_off_c, 0, 33, 46
1, 729502, Note_off_c, 0, 63, 62
1, 729503, Note_off_c, 0, 65, 62
1, 729503, Control_c, 0, 67, 24
1, 729518, Control_c, 0, 67, 22
1, 729563, Control_c, 0, 67, 24
1, 729578, Control_c, 0, 67, 22
1, 729593, Control_c, 0, 67, 19
1, 729608, Control_c, 0, 67, 0
1, 729666, Note_on_c, 0, 65, 84
1, 729668, Note_on_c, 0, 57, 84
1, 729670, Note_on_c, 0, 53, 89
1, 729672, Note_on_c, 0, 41, 70
1, 729672, Note_on_c, 0, 62, 79
1, 729675, Note_on_c, 0, 51, 78
1, 729693, Note_off_c, 0, 57, 66
1, 729698, Note_off_c, 0, 41, 62
1, 729699, Note_off_c, 0, 62, 66
1, 729706, Note_off_c, 0, 51, 65
1, 729713, Note_off_c, 0, 53, 64
1, 729714, Note_off_c, 0, 65, 67
1, 729902, Note_on_c, 0, 69, 93
1, 729903, Note_on_c, 0, 57, 79
1, 729903, Note_on_c, 0, 65, 87
1, 729906, Note_on_c, 0, 63, 90
1, 729907, Note_on_c, 0, 86, 103
1, 729907, Note_on_c, 0, 74, 109
1, 729910, Note_on_c, 0, 81, 97
1, 729913, Note_on_c, 0, 77, 93
1, 729933, Note_off_c, 0, 69, 66
1, 729942, Note_off_c, 0, 65, 65
1, 729955, Note_off_c, 0, 86, 64
1, 729958, Note_off_c, 0, 63, 63
1, 729960, Note_off_c, 0, 74, 62
1, 729968, Note_off_c, 0, 57, 63
1, 729971, Note_off_c, 0, 77, 66
1, 729973, Note_off_c, 0, 81, 61
1, 730122, Note_on_c, 0, 41, 51
1, 730126, Note_on_c, 0, 57, 64
1, 730134, Note_on_c, 0, 51, 60
1, 730136, Note_on_c, 0, 75, 67
1, 730137, Note_on_c, 0, 77, 69
1, 730141, Note_on_c, 0, 65, 74
1, 730149, Note_off_c, 0, 41, 54
1, 730164, Note_on_c, 0, 43, 12
1, 730167, Note_on_c, 0, 69, 30
1, 730172, Note_off_c, 0, 51, 61
1, 730176, Note_off_c, 0, 57, 59
1, 730189, Note_off_c, 0, 77, 63
1, 730191, Note_off_c, 0, 65, 62
1, 730201, Note_off_c, 0, 69, 51
1, 730212, Note_off_c, 0, 43, 42
1, 730246, Note_off_c, 0, 75, 62
1, 730292, Note_on_c, 0, 76, 80
1, 730301, Note_on_c, 0, 63, 88
1, 730302, Note_on_c, 0, 57, 70
1, 730307, Note_on_c, 0, 60, 69
1, 730307, Note_on_c, 0, 67, 74
1, 730309, Note_on_c, 0, 69, 70
1, 730351, Note_off_c, 0, 67, 60
1, 730354, Note_off_c, 0, 63, 59
1, 730358, Note_off_c, 0, 57, 59
1, 730375, Note_off_c, 0, 76, 63
1, 730381, Note_off_c, 0, 69, 56
1, 730460, Control_c, 0, 64, 91
1, 730461, Note_off_c, 0, 60, 0
1, 730461, Note_on_c, 0, 60, 32
1, 730469, Note_on_c, 0, 75, 102
1, 730469, Note_on_c, 0, 77, 96
1, 730472, Note_on_c, 0, 63, 99
1, 730475, Note_on_c, 0, 53, 84
1, 730475, Control_c, 0, 64, 79
1, 730486, Note_on_c, 0, 69, 70
1, 730490, Control_c, 0, 64, 87
1, 730503, Note_off_c, 0, 69, 66
1, 730504, Note_off_c, 0, 60, 66
1, 730504, Control_c, 0, 64, 127
1, 730514, Note_off_c, 0, 53, 67
1, 730524, Note_off_c, 0, 63, 57
1, 730563, Note_off_c, 0, 75, 68
1, 730585, Note_off_c, 0, 77, 50
1, 730629, Note_on_c, 0, 62, 85
1, 730653, Control_c, 0, 64, 65
1, 730668, Control_c, 0, 64, 0
1, 730674, Note_on_c, 0, 70, 92
1, 730677, Note_on_c, 0, 34, 91
1, 730677, Note_on_c, 0, 41, 96
1, 730680, Note_off_c, 0, 62, 68
1, 730687, Note_on_c, 0, 74, 97
1, 730700, Note_off_c, 0, 34, 69
1, 730709, Note_on_c, 0, 77, 73
1, 730710, Note_off_c, 0, 41, 66
1, 730712, Control_c, 0, 64, 66
1, 730718, Note_on_c, 0, 79, 87
1, 730727, Control_c, 0, 64, 127
1, 730733, Note_off_c, 0, 79, 70
1, 730734, Note_off_c, 0, 70, 66
1, 730887, Note_on_c, 0, 53, 83
1, 730889, Note_on_c, 0, 62, 76
1, 730891, Note_on_c, 0, 50, 71
1, 730891, Note_on_c, 0, 70, 82
1, 730896, Note_on_c, 0, 46, 78
1, 730913, Note_off_c, 0, 62, 69
1, 730920, Note_on_c, 0, 41, 15
1, 730922, Note_off_c, 0, 50, 65
1, 730924, Note_off_c, 0, 46, 70
1, 730930, Note_off_c, 0, 77, 58
1, 730933, Note_off_c, 0, 53, 63
1, 730935, Note_off_c, 0, 74, 61
1, 730942, Note_off_c, 0, 41, 52
1, 730945, Note_off_c, 0, 70, 65
1, 731061, Note_on_c, 0, 63, 72
1, 731078, Note_on_c, 0, 62, 83
1, 731079, Note_on_c, 0, 65, 89
1, 731080, Note_on_c, 0, 57, 77
1, 731084, Note_on_c, 0, 58, 78
1, 731106, Note_off_c, 0, 63, 40
1, 731111, Note_on_c, 0, 82, 102
1, 731112, Note_on_c, 0, 70, 108
1, 731115, Note_on_c, 0, 74, 92
1, 731151, Note_off_c, 0, 82, 66
1, 731152, Note_off_c, 0, 70, 67
1, 731154, Note_off_c, 0, 65, 63
1, 731158, Note_off_c, 0, 74, 63
1, 731170, Note_off_c, 0, 57, 61
1, 731200, Note_off_c, 0, 58, 60
1, 731252, Note_off_c, 0, 62, 60
1, 731262, Note_on_c, 0, 64, 91
1, 731270, Note_on_c, 0, 58, 82
1, 731271, Note_on_c, 0, 55, 85
1, 731282, Note_off_c, 0, 64, 70
1, 731303, Note_off_c, 0, 58, 65
1, 731312, Note_off_c, 0, 55, 66
1, 731404, Note_on_c, 0, 63, 88
1, 731416, Note_on_c, 0, 41, 90
1, 731417, Control_c, 0, 64, 98
1, 731419, Note_on_c, 0, 54, 82
1, 731432, Control_c, 0, 64, 74
1, 731436, Note_on_c, 0, 53, 68
1, 731446, Control_c, 0, 64, 76
1, 731450, Note_on_c, 0, 57, 55
1, 731453, Note_off_c, 0, 53, 64
1, 731461, Note_on_c, 0, 52, 32
1, 731461, Control_c, 0, 64, 110
1, 731476, Control_c, 0, 64, 127
1, 731483, Note_off_c, 0, 57, 64
1, 731493, Note_off_c, 0, 54, 59
1, 731496, Note_off_c, 0, 52, 50
1, 731553, Note_off_c, 0, 63, 59
1, 731583, Note_off_c, 0, 41, 0
1, 731592, Note_on_c, 0, 34, 88
1, 731593, Note_on_c, 0, 53, 85
1, 731595, Note_on_c, 0, 62, 80
1, 731601, Note_on_c, 0, 58, 80
1, 731612, Poly_aftertouch_c, 0, 41, 0
1, 731618, Note_off_c, 0, 53, 69
1, 731631, Note_off_c, 0, 58, 64
1, 731634, Note_off_c, 0, 34, 65
1, 731645, Note_off_c, 0, 62, 67
1, 731794, Control_c, 0, 64, 65
1, 731803, Note_on_c, 0, 38, 99
1, 731806, Note_on_c, 0, 26, 97
1, 731809, Control_c, 0, 64, 0
1, 731835, Note_on_c, 0, 69, 101
1, 731836, Note_on_c, 0, 81, 94
1, 731837, Note_on_c, 0, 74, 93
1, 731839, Note_on_c, 0, 77, 87
1, 731855, Note_off_c, 0, 26, 64
1, 731869, Control_c, 0, 64, 54
1, 731884, Control_c, 0, 64, 71
1, 731889, Note_off_c, 0, 38, 66
1, 731899, Control_c, 0, 64, 91
1, 731909, Note_off_c, 0, 74, 65
1, 731914, Control_c, 0, 64, 127
1, 732012, Note_off_c, 0, 81, 43
1, 732013, Note_off_c, 0, 69, 60
1, 732039, Note_on_c, 0, 53, 76
1, 732041, Note_on_c, 0, 45, 71
1, 732042, Note_on_c, 0, 73, 77
1, 732051, Note_off_c, 0, 77, 62
1, 732063, Note_off_c, 0, 45, 64
1, 732064, Note_off_c, 0, 53, 67
1, 732092, Note_off_c, 0, 73, 62
1, 732209, Note_on_c, 0, 60, 81
1, 732209, Note_on_c, 0, 64, 88
1, 732218, Note_on_c, 0, 56, 78
1, 732234, Note_on_c, 0, 76, 78
1, 732239, Note_on_c, 0, 68, 101
1, 732240, Control_c, 0, 64, 122
1, 732242, Note_on_c, 0, 72, 94
1, 732242, Note_on_c, 0, 80, 89
1, 732255, Control_c, 0, 64, 63
1, 732269, Control_c, 0, 64, 0
1, 732314, Control_c, 0, 64, 55
1, 732329, Control_c, 0, 64, 69
1, 732350, Note_off_c, 0, 72, 56
1, 732351, Control_c, 0, 64, 92
1, 732366, Control_c, 0, 64, 127
1, 732404, Note_off_c, 0, 64, 57
1, 732411, Note_off_c, 0, 60, 61
1, 732433, Note_off_c, 0, 56, 56
1, 732441, Note_on_c, 0, 59, 58
1, 732465, Note_on_c, 0, 71, 67
1, 732465, Note_off_c, 0, 59, 64
1, 732486, Note_off_c, 0, 80, 55
1, 732513, Note_off_c, 0, 68, 60
1, 732558, Note_off_c, 0, 76, 62
1, 732573, Note_off_c, 0, 71, 61
1, 732587, Note_on_c, 0, 38, 78
1, 732589, Note_on_c, 0, 47, 69
1, 732614, Note_on_c, 0, 45, 53
1, 732644, Note_on_c, 0, 46, 25
1, 732685, Note_off_c, 0, 38, 59
1, 732695, Note_off_c, 0, 45, 30
1, 732696, Note_off_c, 0, 46, 58
1, 732711, Note_off_c, 0, 47, 64
1, 732726, Note_on_c, 0, 69, 93
1, 732727, Note_on_c, 0, 81, 93
1, 732730, Note_on_c, 0, 77, 83
1, 732732, Note_on_c, 0, 72, 86
1, 732733, Note_on_c, 0, 53, 74
1, 732773, Note_off_c, 0, 53, 62
1, 732784, Note_off_c, 0, 69, 60
1, 732788, Note_off_c, 0, 72, 62
1, 732790, Note_off_c, 0, 81, 61
1, 732810, Note_off_c, 0, 77, 60
1, 732893, Note_on_c, 0, 63, 90
1, 732897, Note_on_c, 0, 59, 42
1, 732906, Note_on_c, 0, 55, 73
1, 732945, Control_c, 0, 64, 70
1, 732948, Note_on_c, 0, 79, 90
1, 732951, Note_on_c, 0, 67, 87
1, 732952, Note_on_c, 0, 71, 69
1, 732954, Note_on_c, 0, 75, 68
1, 732959, Control_c, 0, 64, 0
1, 732989, Control_c, 0, 67, 19
1, 732990, Note_off_c, 0, 71, 59
1, 733033, Control_c, 0, 64, 51
1, 733033, Control_c, 0, 67, 21
1, 733048, Control_c, 0, 64, 67
1, 733063, Control_c, 0, 64, 81
1, 733067, Note_off_c, 0, 63, 61
1, 733078, Control_c, 0, 64, 109
1, 733091, Note_off_c, 0, 59, 57
1, 733100, Control_c, 0, 64, 127
1, 733111, Note_on_c, 0, 58, 68
1, 733122, Note_off_c, 0, 55, 60
1, 733125, Note_on_c, 0, 70, 72
1, 733130, Control_c, 0, 67, 19
1, 733130, Note_off_c, 0, 79, 62
1, 733139, Note_off_c, 0, 58, 66
1, 733145, Control_c, 0, 67, 0
1, 733152, Note_off_c, 0, 67, 55
1, 733216, Note_off_c, 0, 70, 61
1, 733269, Note_on_c, 0, 38, 83
1, 733278, Note_on_c, 0, 45, 79
1, 733300, Note_on_c, 0, 44, 30
1, 733322, Control_c, 0, 64, 85
1, 733322, Control_c, 0, 67, 19
1, 733337, Control_c, 0, 64, 66
1, 733341, Note_off_c, 0, 44, 53
1, 733352, Control_c, 0, 64, 64
1, 733352, Control_c, 0, 67, 22
1, 733366, Control_c, 0, 64, 72
1, 733381, Control_c, 0, 64, 96
1, 733396, Control_c, 0, 64, 127
1, 733404, Note_off_c, 0, 38, 58
1, 733411, Control_c, 0, 67, 25
1, 733425, Control_c, 0, 67, 28
1, 733434, Note_off_c, 0, 75, 60
1, 733437, Note_off_c, 0, 45, 63
1, 733450, Note_on_c, 0, 53, 76
1, 733452, Note_on_c, 0, 81, 81
1, 733455, Note_on_c, 0, 77, 77
1, 733456, Note_on_c, 0, 69, 76
1, 733457, Note_on_c, 0, 72, 76
1, 733487, Note_off_c, 0, 69, 62
1, 733499, Note_off_c, 0, 81, 63
1, 733502, Note_off_c, 0, 72, 59
1, 733510, Note_off_c, 0, 77, 64
1, 733514, Note_off_c, 0, 53, 61
1, 733560, Control_c, 0, 67, 30
1, 733678, Control_c, 0, 67, 32
1, 733690, Note_on_c, 0, 61, 65
1, 733693, Control_c, 0, 67, 34
1, 733707, Note_on_c, 0, 58, 61
1, 733707, Control_c, 0, 67, 37
1, 733720, Note_on_c, 0, 53, 31
1, 733722, Control_c, 0, 67, 40
1, 733737, Control_c, 0, 64, 89
1, 733737, Control_c, 0, 67, 41
1, 733752, Control_c, 0, 64, 59
1, 733752, Control_c, 0, 67, 42
1, 733765, Note_on_c, 0, 77, 69
1, 733767, Control_c, 0, 64, 0
1, 733772, Note_on_c, 0, 55, 5
1, 733772, Note_on_c, 0, 65, 70
1, 733775, Note_on_c, 0, 73, 60
1, 733780, Note_on_c, 0, 70, 55
1, 733796, Control_c, 0, 67, 43
1, 733811, Control_c, 0, 67, 43
1, 733824, Note_off_c, 0, 55, 26
1, 733826, Control_c, 0, 64, 33
1, 733826, Control_c, 0, 67, 44
1, 733848, Control_c, 0, 64, 54
1, 733848, Control_c, 0, 67, 47
1, 733863, Control_c, 0, 64, 67
1, 733863, Control_c, 0, 67, 50
1, 733878, Control_c, 0, 64, 76
1, 733878, Control_c, 0, 67, 52
1, 733881, Note_off_c, 0, 70, 57
1, 733893, Control_c, 0, 64, 83
1, 733893, Control_c, 0, 67, 55
1, 733908, Control_c, 0, 64, 84
1, 733908, Control_c, 0, 67, 58
1, 733922, Control_c, 0, 67, 61
1, 733937, Control_c, 0, 67, 63
1, 733952, Control_c, 0, 64, 84
1, 733952, Control_c, 0, 67, 66
1, 733966, Control_c, 0, 67, 69
1, 733981, Control_c, 0, 67, 72
1, 733996, Control_c, 0, 67, 76
1, 734011, Control_c, 0, 67, 79
1, 734026, Control_c, 0, 67, 83
1, 734040, Control_c, 0, 67, 87
1, 734055, Control_c, 0, 67, 91
1, 734070, Control_c, 0, 67, 94
1, 734085, Control_c, 0, 67, 97
1, 734100, Control_c, 0, 67, 99
1, 734114, Control_c, 0, 64, 84
1, 734114, Control_c, 0, 67, 101
1, 734129, Control_c, 0, 64, 83
1, 734144, Control_c, 0, 64, 80
1, 734144, Control_c, 0, 67, 105
1, 734147, Note_on_c, 0, 62, 44
1, 734152, Note_on_c, 0, 57, 45
1, 734158, Note_off_c, 0, 73, 58
1, 734159, Note_off_c, 0, 61, 37
1, 734159, Control_c, 0, 64, 75
1, 734159, Control_c, 0, 67, 108
1, 734168, Note_on_c, 0, 74, 56
1, 734173, Control_c, 0, 64, 67
1, 734173, Control_c, 0, 67, 111
1, 734178, Note_off_c, 0, 58, 36
1, 734182, Note_on_c, 0, 69, 46
1, 734188, Control_c, 0, 64, 56
1, 734188, Control_c, 0, 67, 113
1, 734203, Control_c, 0, 64, 0
1, 734218, Control_c, 0, 67, 115
1, 734248, Control_c, 0, 67, 118
1, 734263, Control_c, 0, 67, 121
1, 734277, Control_c, 0, 64, 42
1, 734277, Control_c, 0, 67, 125
1, 734292, Control_c, 0, 64, 64
1, 734292, Control_c, 0, 67, 127
1, 734299, Note_off_c, 0, 77, 53
1, 734308, Control_c, 0, 64, 78
1, 734315, Note_off_c, 0, 62, 60
1, 734323, Control_c, 0, 64, 97
1, 734337, Note_off_c, 0, 65, 42
1, 734337, Control_c, 0, 64, 127
1, 734371, Note_off_c, 0, 74, 44
1, 734379, Note_off_c, 0, 57, 56
1, 734400, Note_off_c, 0, 69, 56
1, 734415, Note_off_c, 0, 53, 41
1, 734671, Control_c, 0, 64, 79
1, 734672, Note_on_c, 0, 29, 78
1, 734686, Control_c, 0, 64, 49
1, 734701, Control_c, 0, 64, 0
1, 734760, Control_c, 0, 64, 38
1, 734775, Control_c, 0, 64, 63
1, 734789, Control_c, 0, 64, 78
1, 734804, Control_c, 0, 64, 97
1, 734811, Note_off_c, 0, 29, 63
1, 734819, Control_c, 0, 64, 120
1, 734834, Control_c, 0, 64, 127
1, 735013, Note_on_c, 0, 51, 43
1, 735022, Note_on_c, 0, 60, 48
1, 735025, Note_on_c, 0, 69, 43
1, 735034, Note_on_c, 0, 41, 20
1, 735041, Note_on_c, 0, 65, 46
1, 735060, Note_off_c, 0, 60, 65
1, 735074, Note_off_c, 0, 41, 39
1, 735076, Note_off_c, 0, 51, 54
1, 735091, Note_off_c, 0, 65, 61
1, 735106, Note_off_c, 0, 69, 55
1, 735203, Note_on_c, 0, 51, 59
1, 735203, Note_on_c, 0, 57, 58
1, 735216, Note_on_c, 0, 48, 40
1, 735243, Note_off_c, 0, 57, 59
1, 735246, Note_on_c, 0, 72, 83
1, 735271, Note_on_c, 0, 69, 60
1, 735296, Note_on_c, 0, 65, 31
1, 735298, Note_off_c, 0, 51, 54
1, 735312, Note_off_c, 0, 69, 54
1, 735336, Note_off_c, 0, 65, 50
1, 735377, Note_off_c, 0, 48, 0
1, 735402, Note_on_c, 0, 41, 26
1, 735405, Note_on_c, 0, 51, 51
1, 735413, Poly_aftertouch_c, 0, 48, 127
1, 735426, Note_on_c, 0, 65, 62
1, 735426, Note_on_c, 0, 69, 55
1, 735427, Note_off_c, 0, 51, 64
1, 735440, Note_off_c, 0, 41, 43
1, 735440, Note_off_c, 0, 72, 61
1, 735444, Note_on_c, 0, 60, 28
1, 735454, Note_off_c, 0, 65, 66
1, 735455, Note_off_c, 0, 69, 65
1, 735460, Poly_aftertouch_c, 0, 48, 0
1, 735476, Note_off_c, 0, 60, 55
1, 735561, Note_on_c, 0, 77, 91
1, 735571, Note_on_c, 0, 63, 66
1, 735573, Note_on_c, 0, 53, 55
1, 735583, Note_on_c, 0, 72, 62
1, 735587, Note_on_c, 0, 69, 62
1, 735596, Note_on_c, 0, 57, 54
1, 735607, Note_off_c, 0, 69, 65
1, 735617, Note_off_c, 0, 72, 60
1, 735643, Note_off_c, 0, 63, 61
1, 735684, Note_off_c, 0, 57, 60
1, 735716, Control_c, 0, 67, 122
1, 735724, Note_on_c, 0, 69, 46
1, 735727, Note_on_c, 0, 72, 62
1, 735730, Note_on_c, 0, 65, 68
1, 735731, Note_on_c, 0, 48, 58
1, 735731, Note_off_c, 0, 53, 33
1, 735731, Control_c, 0, 67, 108
1, 735746, Control_c, 0, 67, 99
1, 735756, Note_off_c, 0, 48, 64
1, 735761, Control_c, 0, 67, 94
1, 735765, Note_off_c, 0, 77, 60
1, 735776, Control_c, 0, 67, 92
1, 735789, Note_off_c, 0, 65, 45
1, 735791, Control_c, 0, 67, 90
1, 735805, Control_c, 0, 67, 86
1, 735820, Control_c, 0, 67, 81
1, 735827, Note_off_c, 0, 69, 52
1, 735835, Control_c, 0, 67, 78
1, 735850, Control_c, 0, 67, 76
1, 735895, Control_c, 0, 67, 75
1, 735902, Note_on_c, 0, 29, 85
1, 735908, Note_off_c, 0, 72, 54
1, 735911, Control_c, 0, 64, 100
1, 735926, Control_c, 0, 64, 61
1, 735941, Control_c, 0, 64, 0
1, 735956, Note_on_c, 0, 79, 93
1, 735970, Control_c, 0, 64, 44
1, 735985, Control_c, 0, 64, 64
1, 735985, Control_c, 0, 67, 76
1, 735997, Note_off_c, 0, 79, 67
1, 736000, Control_c, 0, 64, 80
1, 736000, Control_c, 0, 67, 77
1, 736001, Note_off_c, 0, 29, 64
1, 736015, Control_c, 0, 64, 115
1, 736029, Control_c, 0, 64, 127
1, 736074, Control_c, 0, 67, 78
1, 736096, Control_c, 0, 67, 79
1, 736182, Note_on_c, 0, 68, 58
1, 736189, Note_on_c, 0, 51, 58
1, 736191, Note_on_c, 0, 60, 50
1, 736194, Note_on_c, 0, 63, 47
1, 736205, Note_on_c, 0, 41, 27
1, 736215, Control_c, 0, 67, 77
1, 736222, Note_off_c, 0, 63, 60
1, 736225, Note_off_c, 0, 60, 58
1, 736227, Note_off_c, 0, 68, 57
1, 736231, Note_off_c, 0, 51, 60
1, 736244, Control_c, 0, 67, 76
1, 736245, Note_off_c, 0, 41, 40
1, 736259, Control_c, 0, 67, 77
1, 736304, Control_c, 0, 67, 76
1, 736331, Note_on_c, 0, 56, 53
1, 736336, Note_on_c, 0, 72, 66
1, 736348, Control_c, 0, 67, 77
1, 736355, Note_on_c, 0, 48, 47
1, 736356, Note_on_c, 0, 68, 54
1, 736359, Note_on_c, 0, 51, 45
1, 736360, Note_off_c, 0, 56, 62
1, 736377, Note_on_c, 0, 63, 33
1, 736377, Control_c, 0, 67, 76
1, 736392, Control_c, 0, 67, 75
1, 736394, Note_off_c, 0, 68, 59
1, 736404, Note_off_c, 0, 48, 51
1, 736407, Control_c, 0, 67, 74
1, 736410, Note_off_c, 0, 51, 53
1, 736448, Note_off_c, 0, 63, 0
1, 736451, Control_c, 0, 67, 74
1, 736458, Note_off_c, 0, 72, 62
1, 736460, Note_on_c, 0, 63, 42
1, 736465, Note_on_c, 0, 68, 61
1, 736466, Control_c, 0, 67, 75
1, 736469, Note_on_c, 0, 41, 32
1, 736474, Note_on_c, 0, 51, 28
1, 736489, Note_off_c, 0, 63, 55
1, 736493, Note_off_c, 0, 68, 66
1, 736496, Control_c, 0, 67, 74
1, 736507, Note_off_c, 0, 41, 44
1, 736507, Note_off_c, 0, 51, 47
1, 736510, Poly_aftertouch_c, 0, 48, 127
1, 736510, Control_c, 0, 67, 74
1, 736515, Poly_aftertouch_c, 0, 60, 127
1, 736537, Poly_aftertouch_c, 0, 48, 0
1, 736555, Control_c, 0, 67, 74
1, 736556, Poly_aftertouch_c, 0, 60, 0
1, 736570, Control_c, 0, 67, 74
1, 736585, Control_c, 0, 67, 73
1, 736598, Note_on_c, 0, 77, 87
1, 736600, Control_c, 0, 67, 72
1, 736608, Note_on_c, 0, 63, 65
1, 736613, Note_on_c, 0, 53, 65
1, 736626, Note_on_c, 0, 56, 67
1, 736629, Note_on_c, 0, 72, 46
1, 736634, Note_on_c, 0, 68, 39
1, 736644, Control_c, 0, 67, 72
1, 736647, Note_off_c, 0, 63, 62
1, 736659, Control_c, 0, 67, 67
1, 736660, Note_off_c, 0, 68, 34
1, 736669, Note_off_c, 0, 72, 46
1, 736674, Control_c, 0, 67, 54
1, 736688, Control_c, 0, 67, 35
1, 736702, Note_off_c, 0, 53, 58
1, 736703, Control_c, 0, 67, 0
1, 736705, Note_off_c, 0, 56, 57
1, 736731, Note_on_c, 0, 48, 62
1, 736737, Note_on_c, 0, 68, 69
1, 736743, Note_on_c, 0, 72, 60
1, 736745, Note_on_c, 0, 65, 71
1, 736756, Note_off_c, 0, 48, 63
1, 736809, Note_off_c, 0, 68, 58
1, 736817, Note_off_c, 0, 65, 54
1, 736823, Control_c, 0, 64, 117
1, 736845, Control_c, 0, 64, 72
1, 736860, Control_c, 0, 64, 63
1, 736869, Note_on_c, 0, 29, 84
1, 736874, Control_c, 0, 64, 67
1, 736889, Control_c, 0, 64, 79
1, 736904, Note_off_c, 0, 29, 65
1, 736904, Control_c, 0, 64, 127
1, 736943, Note_off_c, 0, 72, 34
1, 737005, Note_off_c, 0, 77, 59
1, 737010, Note_on_c, 0, 69, 71
1, 737012, Note_on_c, 0, 65, 77
1, 737012, Note_on_c, 0, 72, 58
1, 737040, Note_off_c, 0, 69, 63
1, 737042, Note_off_c, 0, 65, 67
1, 737050, Note_on_c, 0, 41, 43
1, 737050, Note_on_c, 0, 48, 42
1, 737050, Note_off_c, 0, 72, 64
1, 737083, Note_off_c, 0, 41, 46
1, 737085, Note_off_c, 0, 48, 50
1, 737150, Note_on_c, 0, 76, 100
1, 737151, Note_on_c, 0, 51, 64
1, 737156, Note_on_c, 0, 57, 69
1, 737159, Note_on_c, 0, 48, 73
1, 737165, Note_on_c, 0, 72, 76
1, 737169, Note_on_c, 0, 69, 72
1, 737201, Note_off_c, 0, 69, 59
1, 737202, Note_off_c, 0, 57, 58
1, 737218, Note_off_c, 0, 72, 58
1, 737237, Note_off_c, 0, 51, 54
1, 737274, Note_off_c, 0, 48, 0
1, 737294, Note_on_c, 0, 41, 57
1, 737294, Note_on_c, 0, 51, 42
1, 737304, Note_on_c, 0, 65, 62
1, 737311, Poly_aftertouch_c, 0, 48, 127
1, 737317, Note_off_c, 0, 41, 57
1, 737321, Note_on_c, 0, 69, 45
1, 737326, Note_on_c, 0, 72, 26
1, 737327, Note_off_c, 0, 51, 64
1, 737360, Poly_aftertouch_c, 0, 48, 0
1, 737363, Note_off_c, 0, 69, 59
1, 737369, Note_off_c, 0, 72, 54
1, 737468, Note_on_c, 0, 63, 71
1, 737469, Note_on_c, 0, 72, 75
1, 737473, Note_on_c, 0, 69, 71
1, 737476, Note_off_c, 0, 65, 34
1, 737478, Note_on_c, 0, 53, 46
1, 737484, Note_on_c, 0, 57, 71
1, 737493, Note_off_c, 0, 76, 59
1, 737545, Note_off_c, 0, 63, 60
1, 737625, Note_off_c, 0, 53, 37
1, 737627, Note_off_c, 0, 57, 60
1, 737649, Note_on_c, 0, 48, 77
1, 737651, Note_off_c, 0, 69, 60
1, 737653, Note_on_c, 0, 77, 89
1, 737656, Note_on_c, 0, 65, 88
1, 737664, Note_off_c, 0, 72, 63
1, 737686, Note_off_c, 0, 48, 61
1, 737819, Note_off_c, 0, 77, 57
1, 737869, Note_on_c, 0, 38, 86
1, 737889, Control_c, 0, 64, 68
1, 737904, Note_off_c, 0, 65, 54
1, 737904, Control_c, 0, 64, 0
1, 737954, Note_on_c, 0, 77, 78
1, 737959, Note_on_c, 0, 65, 55
1, 737963, Control_c, 0, 64, 53
1, 737970, Note_on_c, 0, 72, 60
1, 737973, Note_on_c, 0, 68, 57
1, 737978, Control_c, 0, 64, 67
1, 737993, Control_c, 0, 64, 79
1, 738001, Note_off_c, 0, 38, 63
1, 738007, Control_c, 0, 64, 100
1, 738022, Control_c, 0, 64, 127
1, 738041, Note_off_c, 0, 65, 57
1, 738050, Note_off_c, 0, 77, 61
1, 738132, Note_off_c, 0, 68, 51
1, 738215, Note_off_c, 0, 72, 0
1, 738219, Note_on_c, 0, 44, 62
1, 738226, Note_on_c, 0, 76, 82
1, 738227, Note_on_c, 0, 50, 67
1, 738233, Note_on_c, 0, 64, 72
1, 738233, Note_on_c, 0, 72, 24
1, 738245, Note_on_c, 0, 68, 72
1, 738269, Note_off_c, 0, 44, 64
1, 738301, Note_off_c, 0, 64, 60
1, 738305, Note_off_c, 0, 76, 63
1, 738321, Note_off_c, 0, 68, 62
1, 738338, Note_off_c, 0, 72, 60
1, 738359, Note_on_c, 0, 60, 83
1, 738362, Note_on_c, 0, 51, 83
1, 738371, Control_c, 0, 64, 82
1, 738381, Note_on_c, 0, 72, 59
1, 738385, Note_on_c, 0, 64, 82
1, 738385, Note_on_c, 0, 76, 89
1, 738386, Control_c, 0, 64, 65
1, 738392, Note_on_c, 0, 68, 66
1, 738400, Note_off_c, 0, 50, 58
1, 738401, Control_c, 0, 64, 61
1, 738416, Control_c, 0, 64, 64
1, 738430, Control_c, 0, 64, 73
1, 738436, Note_off_c, 0, 60, 63
1, 738445, Control_c, 0, 64, 85
1, 738455, Note_off_c, 0, 51, 60
1, 738457, Note_off_c, 0, 64, 61
1, 738460, Control_c, 0, 64, 105
1, 738463, Note_off_c, 0, 76, 64
1, 738475, Control_c, 0, 64, 127
1, 738484, Note_off_c, 0, 68, 63
1, 738493, Note_off_c, 0, 72, 63
1, 738539, Note_on_c, 0, 44, 70
1, 738543, Note_on_c, 0, 75, 78
1, 738551, Note_on_c, 0, 52, 64
1, 738551, Note_on_c, 0, 72, 29
1, 738558, Note_on_c, 0, 63, 67
1, 738582, Note_on_c, 0, 68, 47
1, 738599, Note_off_c, 0, 44, 60
1, 738605, Note_off_c, 0, 52, 58
1, 738633, Note_off_c, 0, 63, 55
1, 738635, Note_off_c, 0, 75, 61
1, 738640, Note_off_c, 0, 68, 59
1, 738655, Note_off_c, 0, 72, 57
1, 738692, Note_on_c, 0, 60, 78
1, 738694, Note_on_c, 0, 53, 79
1, 738698, Control_c, 0, 64, 79
1, 738712, Control_c, 0, 64, 0
1, 738728, Note_on_c, 0, 75, 84
1, 738730, Note_on_c, 0, 63, 80
1, 738732, Note_on_c, 0, 72, 49
1, 738742, Note_on_c, 0, 68, 69
1, 738771, Control_c, 0, 64, 57
1, 738781, Note_off_c, 0, 53, 63
1, 738786, Control_c, 0, 64, 71
1, 738801, Control_c, 0, 64, 88
1, 738816, Control_c, 0, 64, 127
1, 738830, Note_off_c, 0, 63, 60
1, 738845, Note_off_c, 0, 75, 55
1, 738903, Note_off_c, 0, 60, 56
1, 738915, Note_off_c, 0, 72, 34
1, 738932, Note_on_c, 0, 54, 56
1, 738964, Note_off_c, 0, 54, 64
1, 738969, Note_on_c, 0, 62, 76
1, 738969, Note_on_c, 0, 74, 81
1, 738972, Note_on_c, 0, 44, 55
1, 739006, Note_off_c, 0, 68, 56
1, 739008, Note_off_c, 0, 44, 49
1, 739034, Note_off_c, 0, 62, 57
1, 739082, Poly_aftertouch_c, 0, 73, 0
1, 739269, Control_c, 0, 64, 87
1, 739284, Control_c, 0, 64, 36
1, 739288, Note_on_c, 0, 31, 85
1, 739299, Control_c, 0, 64, 0
1, 739330, Note_off_c, 0, 74, 19
1, 739373, Control_c, 0, 64, 55
1, 739387, Control_c, 0, 64, 66
1, 739387, Control_c, 0, 67, 20
1, 739402, Control_c, 0, 64, 70
1, 739409, Note_off_c, 0, 31, 62
1, 739417, Control_c, 0, 64, 74
1, 739432, Control_c, 0, 64, 78
1, 739447, Control_c, 0, 64, 87
1, 739461, Control_c, 0, 64, 111
1, 739476, Control_c, 0, 64, 127
1, 739616, Note_on_c, 0, 62, 57
1, 739616, Note_on_c, 0, 71, 64
1, 739625, Note_on_c, 0, 67, 51
1, 739626, Note_on_c, 0, 52, 51
1, 739655, Note_off_c, 0, 62, 62
1, 739664, Note_off_c, 0, 52, 63
1, 739664, Note_off_c, 0, 67, 62
1, 739680, Note_off_c, 0, 71, 61
1, 739774, Note_on_c, 0, 50, 61
1, 739775, Note_on_c, 0, 59, 57
1, 739780, Note_on_c, 0, 53, 65
1, 739793, Note_on_c, 0, 74, 89
1, 739810, Note_on_c, 0, 71, 70
1, 739813, Note_off_c, 0, 59, 63
1, 739816, Note_off_c, 0, 53, 62
1, 739817, Note_on_c, 0, 67, 63
1, 739853, Note_off_c, 0, 67, 63
1, 739855, Note_off_c, 0, 50, 58
1, 739872, Note_off_c, 0, 71, 60
1, 739899, Control_c, 0, 67, 0
1, 739921, Note_on_c, 0, 50, 37
1, 739926, Note_on_c, 0, 53, 52
1, 739932, Note_on_c, 0, 43, 35
1, 739947, Note_on_c, 0, 71, 65
1, 739947, Note_off_c, 0, 53, 64
1, 739947, Note_off_c, 0, 50, 55
1, 739951, Note_on_c, 0, 67, 61
1, 739952, Note_on_c, 0, 62, 57
1, 739959, Note_off_c, 0, 74, 60
1, 739971, Note_off_c, 0, 43, 51
1, 739972, Note_off_c, 0, 62, 63
1, 739983, Note_off_c, 0, 67, 65
1, 739992, Note_off_c, 0, 71, 63
1, 740074, Note_on_c, 0, 79, 100
1, 740082, Note_on_c, 0, 65, 75
1, 740089, Note_on_c, 0, 74, 76
1, 740090, Note_on_c, 0, 59, 61
1, 740092, Note_on_c, 0, 71, 77
1, 740098, Note_on_c, 0, 55, 61
1, 740111, Note_off_c, 0, 65, 64
1, 740120, Note_on_c, 0, 54, 40
1, 740129, Note_off_c, 0, 71, 45
1, 740150, Note_off_c, 0, 54, 53
1, 740153, Note_off_c, 0, 74, 60
1, 740209, Note_off_c, 0, 55, 57
1, 740217, Note_on_c, 0, 50, 69
1, 740218, Note_off_c, 0, 59, 59
1, 740225, Note_on_c, 0, 71, 64
1, 740227, Note_on_c, 0, 67, 73
1, 740229, Note_on_c, 0, 74, 72
1, 740249, Note_off_c, 0, 79, 59
1, 740251, Note_off_c, 0, 50, 65
1, 740303, Poly_aftertouch_c, 0, 75, 127
1, 740322, Note_off_c, 0, 67, 62
1, 740344, Poly_aftertouch_c, 0, 75, 0
1, 740344, Note_off_c, 0, 71, 60
1, 740384, Note_on_c, 0, 33, 93
1, 740389, Note_off_c, 0, 74, 58
1, 740403, Control_c, 0, 64, 75
1, 740418, Control_c, 0, 64, 0
1, 740434, Note_on_c, 0, 80, 90
1, 740445, Note_on_c, 0, 78, 71
1, 740462, Control_c, 0, 64, 48
1, 740465, Note_off_c, 0, 80, 67
1, 740475, Note_off_c, 0, 78, 48
1, 740477, Control_c, 0, 64, 70
1, 740492, Control_c, 0, 64, 100
1, 740493, Note_off_c, 0, 33, 62
1, 740507, Control_c, 0, 64, 127
1, 740627, Note_on_c, 0, 54, 75
1, 740642, Note_on_c, 0, 70, 72
1, 740650, Note_on_c, 0, 61, 68
1, 740656, Note_on_c, 0, 65, 58
1, 740682, Note_off_c, 0, 61, 63
1, 740693, Note_off_c, 0, 65, 65
1, 740707, Note_off_c, 0, 70, 62
1, 740714, Note_off_c, 0, 54, 60
1, 740765, Note_on_c, 0, 73, 92
1, 740776, Note_on_c, 0, 58, 68
1, 740785, Note_on_c, 0, 53, 53
1, 740788, Note_on_c, 0, 49, 57
1, 740794, Note_on_c, 0, 70, 42
1, 740819, Note_off_c, 0, 70, 60
1, 740827, Note_off_c, 0, 58, 61
1, 740832, Note_off_c, 0, 53, 56
1, 740888, Note_on_c, 0, 70, 83
1, 740891, Note_on_c, 0, 61, 74
1, 740896, Note_off_c, 0, 49, 0
1, 740896, Note_on_c, 0, 49, 43
1, 740905, Note_off_c, 0, 73, 62
1, 740907, Note_on_c, 0, 43, 58
1, 740914, Note_on_c, 0, 65, 56
1, 740915, Note_off_c, 0, 61, 68
1, 740926, Note_off_c, 0, 49, 61
1, 740932, Note_off_c, 0, 43, 57
1, 740937, Note_off_c, 0, 65, 61
1, 740937, Note_off_c, 0, 70, 64
1, 741020, Note_on_c, 0, 64, 67
1, 741020, Note_on_c, 0, 79, 98
1, 741028, Note_on_c, 0, 73, 79
1, 741047, Note_on_c, 0, 70, 66
1, 741047, Note_off_c, 0, 64, 67
1, 741053, Note_on_c, 0, 58, 71
1, 741054, Note_on_c, 0, 55, 52
1, 741070, Note_off_c, 0, 70, 67
1, 741092, Note_off_c, 0, 73, 37
1, 741114, Poly_aftertouch_c, 0, 65, 0
1, 741149, Note_off_c, 0, 55, 59
1, 741157, Note_on_c, 0, 70, 74
1, 741157, Note_off_c, 0, 58, 61
1, 741160, Note_on_c, 0, 67, 78
1, 741160, Note_on_c, 0, 49, 79
1, 741160, Note_on_c, 0, 73, 73
1, 741184, Note_off_c, 0, 49, 69
1, 741227, Note_off_c, 0, 70, 56
1, 741247, Note_off_c, 0, 67, 60
1, 741286, Control_c, 0, 64, 70
1, 741286, Control_c, 0, 67, 47
1, 741291, Note_off_c, 0, 73, 59
1, 741297, Note_on_c, 0, 31, 95
1, 741300, Control_c, 0, 64, 0
1, 741300, Control_c, 0, 67, 57
1, 741315, Control_c, 0, 67, 54
1, 741338, Control_c, 0, 64, 54
1, 741338, Control_c, 0, 67, 53
1, 741346, Note_off_c, 0, 31, 64
1, 741352, Control_c, 0, 64, 84
1, 741367, Control_c, 0, 64, 127
1, 741367, Control_c, 0, 67, 56
1, 741382, Control_c, 0, 67, 59
1, 741412, Control_c, 0, 67, 56
1, 741426, Control_c, 0, 67, 54
1, 741437, Note_off_c, 0, 79, 63
1, 741465, Note_on_c, 0, 74, 72
1, 741466, Note_on_c, 0, 66, 76
1, 741471, Control_c, 0, 67, 55
1, 741473, Note_on_c, 0, 71, 71
1, 741479, Note_on_c, 0, 43, 51
1, 741479, Note_on_c, 0, 50, 46
1, 741485, Control_c, 0, 67, 54
1, 741500, Control_c, 0, 67, 52
1, 741501, Note_on_c, 0, 45, 52
1, 741503, Note_off_c, 0, 66, 56
1, 741511, Note_off_c, 0, 50, 54
1, 741516, Control_c, 0, 67, 51
1, 741518, Note_off_c, 0, 43, 60
1, 741530, Note_off_c, 0, 45, 56
1, 741530, Note_off_c, 0, 74, 62
1, 741531, Control_c, 0, 67, 50
1, 741536, Note_off_c, 0, 71, 62
1, 741546, Control_c, 0, 67, 52
1, 741561, Control_c, 0, 67, 54
1, 741589, Note_on_c, 0, 78, 99
1, 741590, Control_c, 0, 67, 52
1, 741591, Note_on_c, 0, 74, 72
1, 741593, Note_on_c, 0, 71, 73
1, 741595, Note_on_c, 0, 53, 65
1, 741599, Note_on_c, 0, 50, 66
1, 741599, Note_on_c, 0, 59, 80
1, 741605, Control_c, 0, 67, 50
1, 741635, Control_c, 0, 67, 51
1, 741645, Note_off_c, 0, 59, 63
1, 741649, Control_c, 0, 67, 52
1, 741664, Control_c, 0, 67, 51
1, 741676, Note_off_c, 0, 74, 58
1, 741679, Control_c, 0, 67, 50
1, 741691, Note_off_c, 0, 50, 58
1, 741694, Control_c, 0, 67, 48
1, 741717, Note_off_c, 0, 53, 0
1, 741724, Control_c, 0, 67, 49
1, 741733, Note_on_c, 0, 53, 47
1, 741739, Control_c, 0, 67, 47
1, 741739, Note_on_c, 0, 66, 78
1, 741742, Note_on_c, 0, 50, 50
1, 741746, Note_on_c, 0, 74, 63
1, 741754, Control_c, 0, 67, 36
1, 741760, Note_on_c, 0, 43, 41
1, 741768, Note_off_c, 0, 50, 60
1, 741768, Control_c, 0, 67, 0
1, 741770, Note_off_c, 0, 53, 64
1, 741789, Note_off_c, 0, 78, 60
1, 741801, Note_off_c, 0, 66, 60
1, 741806, Note_off_c, 0, 43, 49
1, 741826, Note_off_c, 0, 71, 58
1, 741830, Note_off_c, 0, 74, 63
1, 741899, Note_on_c, 0, 65, 85
1, 741900, Control_c, 0, 67, 25
1, 741907, Note_on_c, 0, 55, 73
1, 741909, Note_on_c, 0, 59, 68
1, 741912, Note_on_c, 0, 79, 103
1, 741918, Note_on_c, 0, 74, 81
1, 741921, Note_on_c, 0, 71, 88
1, 741930, Control_c, 0, 67, 0
1, 741968, Note_off_c, 0, 65, 63
1, 741974, Control_c, 0, 67, 19
1, 741989, Control_c, 0, 67, 22
1, 742004, Control_c, 0, 67, 0
1, 742061, Note_on_c, 0, 50, 74
1, 742063, Note_off_c, 0, 59, 60
1, 742080, Note_off_c, 0, 55, 58
1, 742087, Note_on_c, 0, 67, 86
1, 742104, Note_off_c, 0, 71, 50
1, 742118, Note_off_c, 0, 50, 62
1, 742132, Note_off_c, 0, 74, 63
1, 742133, Note_off_c, 0, 79, 57
1, 742280, Note_on_c, 0, 40, 94
1, 742293, Control_c, 0, 64, 96
1, 742309, Control_c, 0, 64, 48
1, 742323, Control_c, 0, 64, 0
1, 742359, Note_on_c, 0, 79, 86
1, 742363, Note_on_c, 0, 74, 70
1, 742368, Control_c, 0, 64, 36
1, 742372, Note_on_c, 0, 70, 69
1, 742383, Control_c, 0, 64, 59
1, 742397, Control_c, 0, 64, 69
1, 742409, Note_off_c, 0, 40, 63
1, 742412, Control_c, 0, 64, 83
1, 742421, Note_off_c, 0, 67, 58
1, 742427, Control_c, 0, 64, 108
1, 742440, Note_off_c, 0, 79, 63
1, 742442, Control_c, 0, 64, 127
1, 742503, Note_off_c, 0, 70, 60
1, 742520, Note_off_c, 0, 74, 45
1, 742599, Note_on_c, 0, 46, 72
1, 742605, Note_on_c, 0, 52, 78
1, 742612, Note_on_c, 0, 78, 88
1, 742615, Note_on_c, 0, 66, 86
1, 742621, Note_on_c, 0, 70, 78
1, 742624, Note_on_c, 0, 74, 75
1, 742659, Note_off_c, 0, 46, 62
1, 742674, Note_off_c, 0, 66, 60
1, 742681, Note_off_c, 0, 78, 62
1, 742690, Note_off_c, 0, 70, 61
1, 742698, Note_off_c, 0, 74, 62
1, 742700, Note_off_c, 0, 52, 62
1, 742740, Note_on_c, 0, 53, 77
1, 742743, Note_on_c, 0, 62, 78
1, 742746, Note_on_c, 0, 54, 66
1, 742754, Note_on_c, 0, 74, 74
1, 742755, Note_on_c, 0, 66, 88
1, 742755, Note_on_c, 0, 78, 90
1, 742757, Note_on_c, 0, 70, 75
1, 742794, Note_off_c, 0, 54, 47
1, 742800, Note_off_c, 0, 62, 62
1, 742803, Note_off_c, 0, 53, 62
1, 742814, Note_off_c, 0, 66, 58
1, 742827, Note_off_c, 0, 70, 61
1, 742832, Note_off_c, 0, 74, 63
1, 742837, Note_off_c, 0, 78, 63
1, 742883, Note_on_c, 0, 54, 82
1, 742885, Note_on_c, 0, 46, 84
1, 742888, Note_on_c, 0, 74, 85
1, 742888, Note_on_c, 0, 77, 81
1, 742889, Note_on_c, 0, 65, 87
1, 742898, Note_on_c, 0, 70, 71
1, 742936, Note_off_c, 0, 65, 64
1, 742937, Note_off_c, 0, 46, 61
1, 742944, Note_off_c, 0, 70, 55
1, 742952, Note_off_c, 0, 77, 65
1, 742958, Note_off_c, 0, 54, 61
1, 742961, Note_off_c, 0, 74, 64
1, 743026, Note_on_c, 0, 55, 80
1, 743027, Note_on_c, 0, 62, 87
1, 743042, Control_c, 0, 64, 124
1, 743056, Control_c, 0, 64, 65
1, 743062, Note_on_c, 0, 65, 96
1, 743062, Note_on_c, 0, 77, 89
1, 743065, Note_on_c, 0, 74, 89
1, 743071, Control_c, 0, 64, 0
1, 743076, Note_on_c, 0, 70, 70
1, 743102, Control_c, 0, 64, 57
1, 743117, Control_c, 0, 64, 79
1, 743124, Note_off_c, 0, 55, 63
1, 743132, Control_c, 0, 64, 127
1, 743140, Note_off_c, 0, 65, 59
1, 743146, Note_off_c, 0, 77, 63
1, 743153, Note_off_c, 0, 70, 63
1, 743163, Note_off_c, 0, 74, 62
1, 743216, Note_off_c, 0, 62, 59
1, 743242, Note_on_c, 0, 56, 69
1, 743269, Note_on_c, 0, 46, 78
1, 743274, Note_on_c, 0, 64, 88
1, 743274, Note_on_c, 0, 74, 93
1, 743274, Note_on_c, 0, 76, 89
1, 743277, Note_off_c, 0, 56, 62
1, 743286, Note_on_c, 0, 70, 79
1, 743297, Note_off_c, 0, 64, 65
1, 743298, Note_off_c, 0, 46, 66
1, 743299, Note_off_c, 0, 76, 62
1, 743319, Note_off_c, 0, 74, 61
1, 743326, Note_off_c, 0, 70, 62
1, 743547, Control_c, 0, 64, 98
1, 743562, Control_c, 0, 64, 48
1, 743584, Control_c, 0, 64, 0
1, 743585, Note_on_c, 0, 33, 84
1, 743590, Note_on_c, 0, 45, 93
1, 743673, Control_c, 0, 64, 53
1, 743688, Control_c, 0, 64, 63
1, 743697, Note_off_c, 0, 33, 64
1, 743703, Control_c, 0, 64, 72
1, 743718, Control_c, 0, 64, 85
1, 743733, Control_c, 0, 64, 127
1, 743736, Note_off_c, 0, 45, 63
1, 743959, Note_on_c, 0, 73, 68
1, 743977, Note_on_c, 0, 61, 53
1, 743977, Note_on_c, 0, 69, 49
1, 743983, Note_on_c, 0, 55, 45
1, 744004, Note_off_c, 0, 69, 63
1, 744031, Note_off_c, 0, 61, 50
1, 744063, Note_off_c, 0, 55, 51
1, 744081, Note_off_c, 0, 73, 35
1, 744181, Note_on_c, 0, 55, 44
1, 744184, Note_on_c, 0, 61, 57
1, 744189, Note_on_c, 0, 52, 45
1, 744212, Note_on_c, 0, 76, 79
1, 744219, Note_on_c, 0, 73, 70
1, 744219, Note_on_c, 0, 69, 65
1, 744255, Note_off_c, 0, 52, 51
1, 744260, Note_off_c, 0, 73, 56
1, 744267, Note_off_c, 0, 61, 56
1, 744273, Note_off_c, 0, 69, 53
1, 744332, Note_off_c, 0, 55, 50
1, 744374, Note_off_c, 0, 76, 61
1, 744400, Note_on_c, 0, 74, 73
1, 744401, Note_on_c, 0, 69, 70
1, 744402, Note_on_c, 0, 53, 55
1, 744404, Note_on_c, 0, 62, 58
1, 744404, Note_on_c, 0, 57, 55
1, 744445, Note_off_c, 0, 69, 54
1, 744448, Note_off_c, 0, 53, 60
1, 744448, Note_off_c, 0, 74, 63
1, 744453, Note_off_c, 0, 57, 62
1, 744454, Note_off_c, 0, 62, 49
1, 744540, Note_on_c, 0, 81, 92
1, 744546, Note_on_c, 0, 69, 76
1, 744551, Note_on_c, 0, 57, 66
1, 744554, Note_on_c, 0, 74, 68
1, 744557, Note_on_c, 0, 62, 60
1, 744559, Note_on_c, 0, 53, 44
1, 744579, Note_off_c, 0, 69, 61
1, 744579, Note_off_c, 0, 57, 67
1, 744584, Note_off_c, 0, 62, 67
1, 744595, Note_off_c, 0, 53, 48
1, 744598, Note_off_c, 0, 74, 60
1, 744657, Poly_aftertouch_c, 0, 75, 0
1, 744669, Note_off_c, 0, 81, 61
1, 744689, Note_on_c, 0, 63, 73
1, 744689, Note_on_c, 0, 75, 74
1, 744690, Note_on_c, 0, 54, 69
1, 744694, Note_on_c, 0, 70, 74
1, 744713, Note_on_c, 0, 60, 49
1, 744720, Note_off_c, 0, 70, 66
1, 744745, Note_off_c, 0, 60, 64
1, 744745, Note_off_c, 0, 63, 60
1, 744748, Note_off_c, 0, 54, 59
1, 744754, Note_off_c, 0, 75, 63
1, 744836, Note_on_c, 0, 60, 59
1, 744838, Note_on_c, 0, 75, 93
1, 744842, Note_on_c, 0, 54, 73
1, 744845, Note_on_c, 0, 63, 77
1, 744845, Note_on_c, 0, 70, 86
1, 744845, Note_on_c, 0, 82, 95
1, 744899, Note_off_c, 0, 54, 58
1, 744899, Note_off_c, 0, 70, 62
1, 744907, Note_off_c, 0, 60, 63
1, 744909, Note_off_c, 0, 63, 57
1, 744916, Note_off_c, 0, 75, 62
1, 744991, Note_on_c, 0, 76, 76
1, 744997, Note_on_c, 0, 55, 71
1, 744999, Note_on_c, 0, 61, 58
1, 745000, Note_on_c, 0, 64, 67
1, 745005, Note_on_c, 0, 70, 68
1, 745036, Note_off_c, 0, 70, 62
1, 745039, Note_off_c, 0, 61, 62
1, 745050, Note_off_c, 0, 64, 55
1, 745058, Note_off_c, 0, 76, 64
1, 745059, Note_off_c, 0, 55, 60
1, 745136, Note_on_c, 0, 61, 79
1, 745141, Note_on_c, 0, 55, 69
1, 745144, Note_on_c, 0, 70, 85
1, 745144, Note_on_c, 0, 76, 81
1, 745147, Note_on_c, 0, 64, 75
1, 745185, Note_off_c, 0, 64, 55
1, 745192, Note_off_c, 0, 61, 61
1, 745194, Note_off_c, 0, 55, 64
1, 745203, Note_off_c, 0, 70, 62
1, 745217, Note_off_c, 0, 82, 62
1, 745226, Note_off_c, 0, 76, 63
1, 745277, Note_on_c, 0, 56, 90
1, 745280, Note_on_c, 0, 65, 85
1, 745283, Note_on_c, 0, 77, 79
1, 745290, Note_on_c, 0, 71, 80
1, 745292, Note_on_c, 0, 62, 69
1, 745340, Note_off_c, 0, 65, 62
1, 745341, Note_off_c, 0, 56, 59
1, 745357, Note_off_c, 0, 71, 62
1, 745360, Note_off_c, 0, 62, 59
1, 745374, Note_off_c, 0, 77, 63
1, 745438, Note_on_c, 0, 56, 88
1, 745443, Note_on_c, 0, 83, 93
1, 745445, Note_on_c, 0, 65, 90
1, 745446, Note_on_c, 0, 62, 87
1, 745446, Note_on_c, 0, 71, 89
1, 745447, Note_on_c, 0, 77, 75
1, 745448, Note_on_c, 0, 81, 88
1, 745458, Note_on_c, 0, 72, 78
1, 745463, Note_on_c, 0, 78, 63
1, 745465, Note_on_c, 0, 80, 55
1, 745482, Note_off_c, 0, 72, 51
1, 745486, Note_off_c, 0, 80, 59
1, 745488, Note_off_c, 0, 65, 64
1, 745488, Note_off_c, 0, 78, 38
1, 745495, Note_off_c, 0, 56, 61
1, 745496, Note_off_c, 0, 62, 64
1, 745515, Note_off_c, 0, 71, 56
1, 745515, Note_off_c, 0, 77, 62
1, 745593, Note_on_c, 0, 56, 91
1, 745594, Note_off_c, 0, 81, 47
1, 745603, Note_on_c, 0, 66, 67
1, 745608, Note_on_c, 0, 63, 61
1, 745609, Note_on_c, 0, 72, 92
1, 745612, Note_on_c, 0, 78, 91
1, 745622, Note_off_c, 0, 83, 66
1, 745628, Note_off_c, 0, 66, 67
1, 745638, Note_off_c, 0, 63, 65
1, 745653, Note_off_c, 0, 56, 62
1, 745665, Note_off_c, 0, 72, 60
1, 745691, Note_off_c, 0, 78, 66
1, 745748, Control_c, 0, 64, 112
1, 745763, Control_c, 0, 64, 62
1, 745775, Note_on_c, 0, 50, 97
1, 745775, Note_on_c, 0, 38, 97
1, 745777, Note_on_c, 0, 84, 104
1, 745778, Note_on_c, 0, 78, 102
1, 745778, Control_c, 0, 64, 0
1, 745779, Note_on_c, 0, 72, 100
1, 745785, Note_on_c, 0, 74, 93
1, 745793, Control_c, 0, 64, 38
1, 745801, Note_off_c, 0, 38, 70
1, 745805, Note_off_c, 0, 50, 64
1, 745808, Control_c, 0, 64, 64
1, 745830, Control_c, 0, 64, 107
1, 745845, Control_c, 0, 64, 127
1, 745872, Note_off_c, 0, 74, 58
1, 745874, Note_off_c, 0, 72, 60
1, 745910, Note_off_c, 0, 78, 51
1, 745960, Note_on_c, 0, 60, 84
1, 745961, Note_on_c, 0, 71, 82
1, 745971, Note_on_c, 0, 59, 52
1, 745971, Note_on_c, 0, 83, 82
1, 745978, Note_on_c, 0, 78, 64
1, 745983, Note_on_c, 0, 66, 59
1, 745983, Note_off_c, 0, 84, 61
1, 746022, Note_off_c, 0, 66, 62
1, 746031, Note_off_c, 0, 78, 60
1, 746032, Note_off_c, 0, 71, 60
1, 746034, Note_off_c, 0, 60, 60
1, 746041, Note_off_c, 0, 59, 58
1, 746047, Note_off_c, 0, 83, 63
1, 746068, Poly_aftertouch_c, 0, 72, 0
1, 746072, Poly_aftertouch_c, 0, 74, 0
1, 746124, Note_on_c, 0, 83, 99
1, 746125, Note_on_c, 0, 73, 110
1, 746127, Note_on_c, 0, 71, 93
1, 746127, Note_on_c, 0, 85, 96
1, 746130, Note_on_c, 0, 60, 84
1, 746130, Note_on_c, 0, 66, 84
1, 746133, Note_on_c, 0, 78, 92
1, 746138, Note_on_c, 0, 59, 76
1, 746168, Note_off_c, 0, 71, 65
1, 746171, Note_off_c, 0, 60, 65
1, 746177, Note_off_c, 0, 59, 58
1, 746183, Note_off_c, 0, 66, 63
1, 746235, Note_off_c, 0, 73, 56
1, 746261, Note_off_c, 0, 78, 60
1, 746311, Note_on_c, 0, 78, 69
1, 746315, Note_on_c, 0, 66, 75
1, 746315, Note_on_c, 0, 73, 77
1, 746315, Note_off_c, 0, 85, 65
1, 746318, Note_on_c, 0, 61, 79
1, 746320, Note_on_c, 0, 70, 81
1, 746321, Note_on_c, 0, 82, 84
1, 746321, Note_off_c, 0, 83, 64
1, 746323, Note_on_c, 0, 58, 70
1, 746349, Note_off_c, 0, 73, 63
1, 746361, Note_off_c, 0, 78, 63
1, 746368, Note_off_c, 0, 66, 60
1, 746371, Note_off_c, 0, 70, 62
1, 746371, Note_off_c, 0, 82, 62
1, 746374, Note_off_c, 0, 58, 51
1, 746379, Note_off_c, 0, 61, 60
1, 746504, Note_on_c, 0, 70, 94
1, 746508, Note_on_c, 0, 66, 79
1, 746509, Note_on_c, 0, 74, 109
1, 746510, Note_on_c, 0, 61, 82
1, 746510, Note_on_c, 0, 86, 110
1, 746514, Note_on_c, 0, 58, 78
1, 746515, Note_on_c, 0, 78, 97
1, 746517, Note_on_c, 0, 82, 95
1, 746569, Note_off_c, 0, 70, 64
1, 746583, Note_off_c, 0, 61, 60
1, 746592, Note_off_c, 0, 58, 56
1, 746593, Note_off_c, 0, 66, 58
1, 746606, Note_off_c, 0, 74, 55
1, 746608, Note_off_c, 0, 78, 62
1, 746612, Note_off_c, 0, 82, 58
1, 746748, Note_on_c, 0, 65, 90
1, 746749, Note_on_c, 0, 69, 93
1, 746752, Note_on_c, 0, 74, 98
1, 746753, Note_on_c, 0, 57, 86
1, 746753, Note_on_c, 0, 81, 92
1, 746759, Note_on_c, 0, 60, 78
1, 746759, Note_on_c, 0, 77, 88
1, 746761, Note_on_c, 0, 62, 74
1, 746768, Note_off_c, 0, 86, 64
1, 746770, Note_off_c, 0, 69, 68
1, 746787, Note_off_c, 0, 65, 67
1, 746788, Note_off_c, 0, 62, 66
1, 746800, Note_off_c, 0, 60, 65
1, 746800, Note_off_c, 0, 74, 63
1, 746806, Note_off_c, 0, 57, 68
1, 746810, Note_off_c, 0, 77, 57
1, 746827, Note_off_c, 0, 81, 62
1, 746994, Control_c, 0, 64, 75
1, 747009, Control_c, 0, 64, 0
1, 747023, Note_on_c, 0, 43, 106
1, 747024, Note_on_c, 0, 77, 105
1, 747027, Note_on_c, 0, 31, 101
1, 747027, Note_on_c, 0, 89, 110
1, 747027, Note_on_c, 0, 84, 95
1, 747029, Note_on_c, 0, 81, 103
1, 747041, Note_on_c, 0, 83, 85
1, 747054, Control_c, 0, 64, 62
1, 747056, Note_off_c, 0, 83, 43
1, 747057, Note_on_c, 0, 29, 36
1, 747057, Note_off_c, 0, 29, 127
1, 747063, Note_off_c, 0, 77, 69
1, 747066, Note_off_c, 0, 89, 66
1, 747069, Control_c, 0, 64, 127
1, 747077, Note_off_c, 0, 31, 63
1, 747081, Note_off_c, 0, 43, 61
1, 747083, Note_off_c, 0, 81, 68
1, 747089, Note_off_c, 0, 84, 66
1, 747101, Poly_aftertouch_c, 0, 29, 0
1, 747319, Note_on_c, 0, 50, 64
1, 747342, Note_on_c, 0, 57, 50
1, 747361, Note_on_c, 0, 60, 73
1, 747373, Note_off_c, 0, 57, 0
1, 747373, Note_on_c, 0, 57, 28
1, 747379, Note_off_c, 0, 50, 60
1, 747385, Note_on_c, 0, 56, 24
1, 747388, Note_on_c, 0, 65, 90
1, 747408, Note_off_c, 0, 57, 64
1, 747411, Note_on_c, 0, 72, 92
1, 747412, Note_on_c, 0, 81, 99
1, 747419, Note_on_c, 0, 77, 82
1, 747426, Note_off_c, 0, 60, 66
1, 747426, Note_off_c, 0, 56, 51
1, 747453, Note_off_c, 0, 65, 62
1, 747492, Note_off_c, 0, 72, 46
1, 747507, Note_off_c, 0, 77, 57
1, 747521, Note_off_c, 0, 81, 60
1, 747592, Note_on_c, 0, 69, 95
1, 747596, Note_on_c, 0, 60, 83
1, 747596, Note_on_c, 0, 81, 95
1, 747596, Note_on_c, 0, 57, 68
1, 747597, Note_on_c, 0, 72, 93
1, 747604, Note_on_c, 0, 77, 87
1, 747605, Note_on_c, 0, 65, 75
1, 747611, Note_on_c, 0, 64, 72
1, 747637, Note_off_c, 0, 64, 65
1, 747660, Note_off_c, 0, 57, 63
1, 747662, Note_off_c, 0, 69, 63
1, 747671, Note_off_c, 0, 65, 62
1, 747680, Note_off_c, 0, 60, 64
1, 747710, Note_off_c, 0, 72, 50
1, 747737, Note_off_c, 0, 77, 49
1, 747782, Note_off_c, 0, 81, 57
1, 747799, Note_on_c, 0, 68, 96
1, 747802, Note_on_c, 0, 60, 84
1, 747804, Note_on_c, 0, 65, 79
1, 747806, Note_on_c, 0, 72, 100
1, 747809, Note_on_c, 0, 56, 80
1, 747810, Note_on_c, 0, 80, 93
1, 747811, Note_on_c, 0, 77, 82
1, 747852, Note_off_c, 0, 65, 61
1, 747861, Note_off_c, 0, 72, 58
1, 747884, Note_off_c, 0, 68, 60
1, 747894, Note_off_c, 0, 56, 61
1, 747897, Note_off_c, 0, 60, 62
1, 747909, Note_off_c, 0, 77, 54
1, 748011, Note_off_c, 0, 80, 23
1, 748043, Note_on_c, 0, 68, 101
1, 748046, Note_on_c, 0, 56, 92
1, 748046, Note_on_c, 0, 65, 95
1, 748050, Note_on_c, 0, 59, 73
1, 748054, Control_c, 0, 64, 70
1, 748071, Note_on_c, 0, 75, 104
1, 748074, Note_on_c, 0, 80, 98
1, 748076, Note_on_c, 0, 77, 86
1, 748076, Control_c, 0, 64, 0
1, 748078, Note_on_c, 0, 87, 98
1, 748121, Control_c, 0, 64, 63
1, 748133, Note_on_c, 0, 85, 5
1, 748133, Note_off_c, 0, 85, 127
1, 748134, Note_on_c, 0, 82, 10
1, 748136, Control_c, 0, 64, 127
1, 748183, Note_off_c, 0, 82, 51
1, 748187, Note_off_c, 0, 68, 52
1, 748189, Note_off_c, 0, 56, 54
1, 748198, Note_off_c, 0, 59, 61
1, 748201, Note_off_c, 0, 87, 63
1, 748204, Note_off_c, 0, 75, 58
1, 748207, Note_off_c, 0, 80, 61
1, 748240, Note_off_c, 0, 65, 48
1, 748392, Note_on_c, 0, 65, 46
1, 748397, Note_on_c, 0, 67, 72
1, 748409, Note_on_c, 0, 55, 79
1, 748410, Note_on_c, 0, 71, 82
1, 748413, Note_on_c, 0, 79, 87
1, 748419, Note_off_c, 0, 67, 69
1, 748422, Note_off_c, 0, 65, 65
1, 748427, Note_on_c, 0, 59, 46
1, 748446, Note_off_c, 0, 59, 65
1, 748447, Note_off_c, 0, 71, 63
1, 748464, Note_off_c, 0, 55, 63
1, 748464, Note_off_c, 0, 77, 63
1, 748467, Note_off_c, 0, 79, 65
1, 748727, Note_on_c, 0, 35, 86
1, 748727, Note_on_c, 0, 48, 89
1, 748728, Note_on_c, 0, 36, 85
1, 748729, Note_on_c, 0, 47, 89
1, 748729, Control_c, 0, 64, 63
1, 748744, Control_c, 0, 64, 0
1, 748768, Note_on_c, 0, 86, 104
1, 748768, Note_on_c, 0, 74, 101
1, 748789, Control_c, 0, 64, 64
1, 748803, Control_c, 0, 64, 100
1, 748807, Note_off_c, 0, 35, 62
1, 748810, Note_off_c, 0, 86, 66
1, 748821, Note_off_c, 0, 36, 61
1, 748822, Note_off_c, 0, 74, 61
1, 748825, Note_off_c, 0, 47, 63
1, 748825, Control_c, 0, 64, 127
1, 748846, Note_off_c, 0, 48, 62
1, 749083, Note_on_c, 0, 77, 78
1, 749084, Note_on_c, 0, 63, 77
1, 749084, Note_on_c, 0, 65, 79
1, 749087, Note_on_c, 0, 75, 64
1, 749090, Note_on_c, 0, 56, 56
1, 749095, Note_on_c, 0, 58, 65
1, 749099, Note_on_c, 0, 70, 75
1, 749107, Note_off_c, 0, 65, 69
1, 749123, Note_off_c, 0, 70, 70
1, 749129, Note_off_c, 0, 77, 63
1, 749139, Note_off_c, 0, 75, 61
1, 749142, Note_off_c, 0, 63, 60
1, 749162, Note_off_c, 0, 58, 62
1, 749188, Note_off_c, 0, 56, 0
1, 749225, Poly_aftertouch_c, 0, 56, 127
1, 749272, Poly_aftertouch_c, 0, 56, 0
1, 749284, Note_on_c, 0, 60, 84
1, 749293, Note_on_c, 0, 84, 105
1, 749294, Note_on_c, 0, 72, 99
1, 749326, Note_off_c, 0, 84, 67
1, 749330, Note_off_c, 0, 72, 66
1, 749483, Note_on_c, 0, 54, 90
1, 749486, Note_on_c, 0, 63, 95
1, 749490, Note_on_c, 0, 66, 94
1, 749491, Note_on_c, 0, 78, 88
1, 749492, Note_on_c, 0, 75, 80
1, 749499, Note_on_c, 0, 70, 78
1, 749513, Note_off_c, 0, 60, 61
1, 749528, Note_on_c, 0, 53, 33
1, 749553, Note_off_c, 0, 63, 61
1, 749572, Note_off_c, 0, 53, 48
1, 749615, Note_off_c, 0, 66, 59
1, 749648, Note_off_c, 0, 78, 61
1, 749653, Note_off_c, 0, 70, 60
1, 749662, Note_off_c, 0, 75, 58
1, 749679, Note_off_c, 0, 54, 52
1, 749827, Note_on_c, 0, 63, 82
1, 749829, Note_on_c, 0, 68, 100
1, 749831, Note_on_c, 0, 75, 77
1, 749835, Note_on_c, 0, 53, 86
1, 749835, Note_on_c, 0, 80, 90
1, 749838, Note_on_c, 0, 70, 79
1, 749849, Note_off_c, 0, 63, 67
1, 749865, Note_off_c, 0, 70, 67
1, 749868, Note_off_c, 0, 68, 63
1, 749877, Note_off_c, 0, 53, 65
1, 749885, Note_off_c, 0, 75, 62
1, 749887, Note_off_c, 0, 80, 61
1, 749915, Control_c, 0, 64, 75
1, 749930, Control_c, 0, 64, 0
1, 750010, Note_on_c, 0, 49, 101
1, 750014, Note_on_c, 0, 37, 86
1, 750019, Control_c, 0, 64, 55
1, 750020, Note_on_c, 0, 76, 106
1, 750020, Note_on_c, 0, 88, 106
1, 750034, Control_c, 0, 64, 127
1, 750035, Note_off_c, 0, 37, 65
1, 750036, Note_off_c, 0, 49, 63
1, 750037, Note_off_c, 0, 88, 69
1, 750052, Note_off_c, 0, 76, 67
1, 750172, Note_on_c, 0, 53, 71
1, 750174, Note_on_c, 0, 64, 83
1, 750174, Note_on_c, 0, 76, 80
1, 750178, Note_on_c, 0, 74, 73
1, 750178, Note_on_c, 0, 62, 69
1, 750182, Note_on_c, 0, 70, 73
1, 750188, Note_off_c, 0, 64, 72
1, 750195, Note_off_c, 0, 76, 67
1, 750204, Note_off_c, 0, 70, 70
1, 750209, Note_off_c, 0, 74, 62
1, 750212, Note_off_c, 0, 62, 62
1, 750225, Note_off_c, 0, 53, 57
1, 750339, Note_on_c, 0, 58, 92
1, 750349, Note_on_c, 0, 70, 109
1, 750351, Note_on_c, 0, 62, 84
1, 750358, Note_on_c, 0, 82, 92
1, 750380, Note_off_c, 0, 82, 67
1, 750384, Note_on_c, 0, 80, 46
1, 750386, Note_off_c, 0, 70, 68
1, 750394, Note_off_c, 0, 58, 66
1, 750401, Note_off_c, 0, 62, 61
1, 750413, Note_off_c, 0, 80, 37
1, 750491, Note_on_c, 0, 73, 64
1, 750502, Note_on_c, 0, 55, 81
1, 750505, Note_on_c, 0, 77, 88
1, 750509, Note_on_c, 0, 62, 80
1, 750517, Note_on_c, 0, 65, 82
1, 750522, Note_on_c, 0, 70, 78
1, 750523, Note_on_c, 0, 58, 64
1, 750530, Note_off_c, 0, 73, 56
1, 750536, Note_on_c, 0, 74, 51
1, 750545, Note_off_c, 0, 65, 64
1, 750556, Note_off_c, 0, 58, 64
1, 750565, Note_off_c, 0, 62, 60
1, 750572, Note_off_c, 0, 55, 61
1, 750579, Note_off_c, 0, 77, 63
1, 750606, Note_off_c, 0, 70, 61
1, 750606, Note_off_c, 0, 74, 62
1, 750688, Poly_aftertouch_c, 0, 58, 127
1, 750726, Poly_aftertouch_c, 0, 58, 0
1, 750774, Note_on_c, 0, 58, 61
1, 750778, Note_on_c, 0, 53, 72
1, 750783, Note_on_c, 0, 66, 83
1, 750788, Note_on_c, 0, 62, 46
1, 750789, Note_on_c, 0, 78, 88
1, 750792, Note_on_c, 0, 70, 80
1, 750797, Poly_aftertouch_c, 0, 74, 0
1, 750801, Note_off_c, 0, 58, 66
1, 750808, Note_off_c, 0, 66, 66
1, 750810, Note_off_c, 0, 53, 66
1, 750816, Note_off_c, 0, 70, 70
1, 750821, Note_off_c, 0, 62, 52
1, 750827, Control_c, 0, 64, 78
1, 750833, Note_off_c, 0, 78, 63
1, 750842, Control_c, 0, 64, 0
1, 750916, Control_c, 0, 64, 77
1, 750925, Note_on_c, 0, 51, 108
1, 750927, Note_on_c, 0, 39, 89
1, 750928, Note_on_c, 0, 74, 109
1, 750929, Note_on_c, 0, 86, 94
1, 750931, Control_c, 0, 64, 127
1, 750953, Note_off_c, 0, 39, 66
1, 750955, Note_on_c, 0, 84, 60
1, 750955, Note_off_c, 0, 84, 127
1, 750960, Note_off_c, 0, 74, 69
1, 750960, Note_off_c, 0, 86, 63
1, 750961, Note_off_c, 0, 51, 63
1, 751090, Note_on_c, 0, 63, 86
1, 751097, Note_on_c, 0, 75, 76
1, 751105, Note_on_c, 0, 54, 63
1, 751114, Note_off_c, 0, 63, 69
1, 751115, Note_on_c, 0, 69, 44
1, 751123, Note_off_c, 0, 75, 65
1, 751140, Note_off_c, 0, 54, 63
1, 751140, Note_off_c, 0, 69, 54
1, 751227, Note_on_c, 0, 69, 92
1, 751227, Note_on_c, 0, 81, 104
1, 751235, Note_on_c, 0, 62, 77
1, 751245, Note_on_c, 0, 58, 65
1, 751260, Note_off_c, 0, 81, 66
1, 751266, Note_off_c, 0, 69, 66
1, 751280, Note_off_c, 0, 58, 63
1, 751290, Note_off_c, 0, 62, 60
1, 751367, Note_on_c, 0, 53, 73
1, 751367, Note_on_c, 0, 64, 85
1, 751370, Note_on_c, 0, 69, 80
1, 751370, Note_on_c, 0, 76, 95
1, 751384, Note_on_c, 0, 58, 50
1, 751416, Note_off_c, 0, 58, 56
1, 751417, Note_off_c, 0, 64, 59
1, 751433, Note_off_c, 0, 53, 59
1, 751480, Note_off_c, 0, 76, 59
1, 751486, Poly_aftertouch_c, 0, 62, 0
1, 751524, Note_off_c, 0, 69, 21
1, 751623, Note_on_c, 0, 58, 52
1, 751623, Note_on_c, 0, 65, 89
1, 751628, Note_on_c, 0, 69, 64
1, 751628, Note_on_c, 0, 77, 81
1, 751632, Note_on_c, 0, 52, 76
1, 751636, Note_on_c, 0, 62, 57
1, 751649, Note_off_c, 0, 69, 70
1, 751650, Note_off_c, 0, 65, 66
1, 751653, Note_off_c, 0, 58, 64
1, 751656, Note_off_c, 0, 62, 63
1, 751657, Note_off_c, 0, 77, 64
1, 751661, Note_off_c, 0, 52, 66
1, 751666, Control_c, 0, 64, 69
1, 751680, Control_c, 0, 64, 0
1, 751740, Control_c, 0, 64, 59
1, 751755, Control_c, 0, 64, 127
1, 751760, Note_on_c, 0, 86, 97
1, 751762, Note_on_c, 0, 74, 106
1, 751766, Note_on_c, 0, 53, 88
1, 751769, Note_on_c, 0, 41, 69
1, 751769, Note_on_c, 0, 52, 74
1, 751778, Note_on_c, 0, 76, 68
1, 751779, Note_off_c, 0, 86, 67
1, 751784, Note_off_c, 0, 53, 69
1, 751786, Note_off_c, 0, 74, 68
1, 751794, Note_off_c, 0, 41, 65
1, 751795, Note_off_c, 0, 52, 64
1, 751799, Note_off_c, 0, 76, 63
1, 751878, Poly_aftertouch_c, 0, 40, 0
1, 751915, Note_on_c, 0, 49, 74
1, 751921, Note_on_c, 0, 62, 78
1, 751923, Note_on_c, 0, 68, 74
1, 751927, Note_on_c, 0, 74, 72
1, 751928, Note_on_c, 0, 58, 68
1, 751940, Note_off_c, 0, 68, 67
1, 751943, Note_off_c, 0, 62, 70
1, 751957, Note_off_c, 0, 74, 64
1, 751978, Note_off_c, 0, 58, 53
1, 752010, Note_off_c, 0, 49, 60
1, 752050, Note_on_c, 0, 55, 85
1, 752057, Note_on_c, 0, 79, 108
1, 752059, Note_on_c, 0, 67, 93
1, 752078, Note_on_c, 0, 69, 55
1, 752078, Note_off_c, 0, 69, 127
1, 752088, Note_off_c, 0, 79, 70
1, 752093, Note_off_c, 0, 67, 66
1, 752151, Note_off_c, 0, 55, 0
1, 752167, Note_on_c, 0, 55, 29
1, 752175, Note_on_c, 0, 49, 60
1, 752187, Note_off_c, 0, 55, 58
1, 752193, Note_on_c, 0, 75, 71
1, 752194, Note_on_c, 0, 58, 72
1, 752211, Note_on_c, 0, 71, 50
1, 752212, Note_on_c, 0, 64, 48
1, 752220, Note_on_c, 0, 63, 26
1, 752220, Note_off_c, 0, 63, 127
1, 752223, Note_on_c, 0, 70, 41
1, 752234, Note_off_c, 0, 64, 61
1, 752237, Note_off_c, 0, 58, 57
1, 752241, Note_off_c, 0, 71, 54
1, 752260, Poly_aftertouch_c, 0, 63, 0
1, 752274, Note_off_c, 0, 75, 0
1, 752280, Poly_aftertouch_c, 0, 73, 127
1, 752295, Note_off_c, 0, 49, 36
1, 752311, Poly_aftertouch_c, 0, 75, 127
1, 752317, Poly_aftertouch_c, 0, 73, 0
1, 752346, Note_off_c, 0, 70, 34
1, 752350, Poly_aftertouch_c, 0, 75, 0
1, 752428, Note_on_c, 0, 64, 83
1, 752428, Note_on_c, 0, 70, 68
1, 752432, Note_on_c, 0, 76, 89
1, 752435, Note_on_c, 0, 58, 65
1, 752437, Note_on_c, 0, 48, 78
1, 752453, Note_off_c, 0, 64, 67
1, 752466, Note_off_c, 0, 58, 64
1, 752467, Note_off_c, 0, 48, 67
1, 752470, Note_off_c, 0, 76, 67
1, 752474, Control_c, 0, 64, 105
1, 752476, Note_off_c, 0, 70, 63
1, 752489, Control_c, 0, 64, 57
1, 752503, Control_c, 0, 64, 0
1, 752548, Control_c, 0, 64, 61
1, 752570, Control_c, 0, 64, 127
1, 752574, Note_on_c, 0, 41, 93
1, 752577, Note_on_c, 0, 86, 97
1, 752578, Note_on_c, 0, 74, 102
1, 752581, Note_on_c, 0, 29, 76
1, 752585, Note_on_c, 0, 28, 84
1, 752598, Note_off_c, 0, 41, 69
1, 752603, Note_off_c, 0, 29, 63
1, 752607, Note_off_c, 0, 86, 66
1, 752608, Note_on_c, 0, 76, 49
1, 752608, Note_off_c, 0, 76, 127
1, 752610, Note_off_c, 0, 28, 62
1, 752614, Note_off_c, 0, 74, 65
1, 752729, Note_on_c, 0, 74, 61
1, 752731, Note_on_c, 0, 70, 70
1, 752741, Note_on_c, 0, 50, 64
1, 752784, Note_off_c, 0, 74, 0
1, 752786, Note_off_c, 0, 70, 55
1, 752801, Note_off_c, 0, 50, 63
1, 752833, Note_on_c, 0, 54, 90
1, 752839, Note_on_c, 0, 42, 78
1, 752843, Note_on_c, 0, 78, 103
1, 752846, Note_on_c, 0, 66, 97
1, 752854, Poly_aftertouch_c, 0, 74, 0
1, 752870, Note_off_c, 0, 42, 67
1, 752874, Note_off_c, 0, 54, 63
1, 752890, Note_off_c, 0, 66, 62
1, 752971, Note_on_c, 0, 74, 59
1, 752973, Note_on_c, 0, 70, 66
1, 752985, Note_on_c, 0, 62, 51
1, 753018, Note_on_c, 0, 57, 17
1, 753018, Note_off_c, 0, 62, 64
1, 753037, Note_off_c, 0, 70, 63
1, 753046, Note_off_c, 0, 74, 60
1, 753057, Poly_aftertouch_c, 0, 50, 127
1, 753057, Poly_aftertouch_c, 0, 60, 127
1, 753062, Note_off_c, 0, 57, 52
1, 753084, Poly_aftertouch_c, 0, 50, 0
1, 753088, Poly_aftertouch_c, 0, 60, 0
1, 753173, Note_off_c, 0, 78, 57
1, 753208, Note_on_c, 0, 70, 87
1, 753211, Note_on_c, 0, 58, 63
1, 753215, Note_on_c, 0, 50, 74
1, 753218, Note_on_c, 0, 74, 66
1, 753233, Note_off_c, 0, 58, 65
1, 753244, Note_off_c, 0, 74, 66
1, 753245, Note_off_c, 0, 50, 67
1, 753247, Note_off_c, 0, 70, 65
1, 753282, Control_c, 0, 64, 109
1, 753293, Poly_aftertouch_c, 0, 62, 0
1, 753297, Control_c, 0, 64, 65
1, 753319, Control_c, 0, 64, 41
1, 753334, Control_c, 0, 64, 54
1, 753338, Note_on_c, 0, 74, 104
1, 753340, Note_on_c, 0, 86, 102
1, 753343, Note_on_c, 0, 41, 94
1, 753348, Note_on_c, 0, 29, 88
1, 753349, Control_c, 0, 64, 73
1, 753349, Note_on_c, 0, 31, 80
1, 753364, Control_c, 0, 64, 127
1, 753365, Note_off_c, 0, 41, 69
1, 753370, Note_off_c, 0, 29, 67
1, 753370, Note_off_c, 0, 74, 69
1, 753370, Note_off_c, 0, 86, 64
1, 753373, Note_off_c, 0, 31, 64
1, 753477, Note_on_c, 0, 74, 84
1, 753480, Note_on_c, 0, 50, 70
1, 753495, Note_on_c, 0, 70, 56
1, 753516, Note_off_c, 0, 70, 60
1, 753530, Note_off_c, 0, 74, 61
1, 753550, Note_off_c, 0, 50, 62
1, 753594, Note_on_c, 0, 55, 97
1, 753595, Note_on_c, 0, 43, 92
1, 753597, Note_on_c, 0, 65, 106
1, 753597, Note_on_c, 0, 77, 96
1, 753629, Note_off_c, 0, 43, 65
1, 753630, Note_off_c, 0, 55, 68
1, 753641, Note_off_c, 0, 65, 63
1, 753722, Note_on_c, 0, 70, 68
1, 753731, Note_on_c, 0, 58, 76
1, 753741, Note_on_c, 0, 74, 62
1, 753746, Note_on_c, 0, 62, 56
1, 753749, Note_on_c, 0, 50, 45
1, 753766, Note_off_c, 0, 62, 64
1, 753777, Note_off_c, 0, 50, 55
1, 753778, Note_off_c, 0, 58, 60
1, 753779, Note_off_c, 0, 70, 62
1, 753801, Note_off_c, 0, 74, 61
1, 753957, Note_off_c, 0, 77, 60
1, 753970, Note_on_c, 0, 74, 76
1, 753976, Note_on_c, 0, 70, 75
1, 753978, Note_on_c, 0, 62, 56
1, 753981, Note_on_c, 0, 50, 74
1, 753999, Note_off_c, 0, 62, 60
1, 754001, Note_off_c, 0, 70, 69
1, 754013, Note_off_c, 0, 50, 64
1, 754014, Note_off_c, 0, 74, 65
1, 754069, Control_c, 0, 64, 59
1, 754083, Control_c, 0, 64, 0
1, 754109, Note_on_c, 0, 74, 111
1, 754111, Note_on_c, 0, 86, 103
1, 754113, Note_on_c, 0, 41, 99
1, 754113, Control_c, 0, 64, 66
1, 754114, Note_on_c, 0, 29, 91
1, 754128, Control_c, 0, 64, 127
1, 754137, Note_off_c, 0, 29, 70
1, 754139, Note_off_c, 0, 41, 67
1, 754139, Note_off_c, 0, 86, 68
1, 754140, Note_off_c, 0, 74, 71
1, 754258, Note_on_c, 0, 74, 82
1, 754270, Note_on_c, 0, 50, 63
1, 754285, Note_on_c, 0, 70, 36
1, 754313, Note_off_c, 0, 74, 62
1, 754321, Note_off_c, 0, 70, 32
1, 754359, Note_off_c, 0, 50, 61
1, 754390, Note_on_c, 0, 56, 100
1, 754391, Note_on_c, 0, 76, 111
1, 754392, Note_on_c, 0, 64, 96
1, 754394, Note_on_c, 0, 42, 77
1, 754403, Note_on_c, 0, 54, 73
1, 754405, Note_on_c, 0, 44, 69
1, 754416, Note_off_c, 0, 42, 67
1, 754421, Note_off_c, 0, 54, 65
1, 754423, Note_on_c, 0, 65, 50
1, 754423, Note_off_c, 0, 65, 127
1, 754424, Note_off_c, 0, 56, 62
1, 754428, Note_off_c, 0, 44, 62
1, 754434, Note_off_c, 0, 64, 66
1, 754544, Note_on_c, 0, 62, 87
1, 754546, Note_on_c, 0, 50, 87
1, 754546, Note_on_c, 0, 58, 80
1, 754551, Note_on_c, 0, 74, 86
1, 754554, Note_on_c, 0, 70, 83
1, 754586, Note_off_c, 0, 62, 64
1, 754595, Note_off_c, 0, 50, 62
1, 754606, Note_off_c, 0, 58, 62
1, 754610, Note_off_c, 0, 70, 63
1, 754643, Note_off_c, 0, 74, 62
1, 754810, Note_off_c, 0, 76, 59
1, 754818, Note_on_c, 0, 74, 83
1, 754824, Note_on_c, 0, 62, 77
1, 754825, Note_on_c, 0, 50, 85
1, 754827, Note_on_c, 0, 70, 90
1, 754831, Note_on_c, 0, 58, 69
1, 754846, Note_off_c, 0, 62, 70
1, 754847, Note_off_c, 0, 70, 70
1, 754855, Note_off_c, 0, 58, 70
1, 754861, Note_off_c, 0, 74, 67
1, 754868, Note_off_c, 0, 50, 65
1, 754877, Control_c, 0, 64, 89
1, 754891, Control_c, 0, 64, 39
1, 754906, Control_c, 0, 64, 0
1, 754974, Note_on_c, 0, 41, 103
1, 754974, Note_on_c, 0, 29, 97
1, 754976, Note_on_c, 0, 76, 104
1, 754979, Note_on_c, 0, 88, 104
1, 754980, Control_c, 0, 64, 81
1, 754995, Note_on_c, 0, 86, 74
1, 754995, Control_c, 0, 64, 127
1, 754997, Note_off_c, 0, 29, 71
1, 754997, Note_off_c, 0, 86, 56
1, 755002, Note_off_c, 0, 41, 65
1, 755005, Note_off_c, 0, 76, 69
1, 755009, Note_off_c, 0, 88, 65
1, 755154, Note_on_c, 0, 51, 87
1, 755165, Note_on_c, 0, 74, 73
1, 755165, Note_on_c, 0, 69, 71
1, 755168, Note_on_c, 0, 50, 82
1, 755182, Note_on_c, 0, 72, 54
1, 755187, Note_off_c, 0, 69, 66
1, 755193, Note_off_c, 0, 74, 65
1, 755203, Note_off_c, 0, 72, 60
1, 755244, Note_off_c, 0, 50, 0
1, 755281, Poly_aftertouch_c, 0, 50, 127
1, 755305, Note_off_c, 0, 51, 60
1, 755337, Poly_aftertouch_c, 0, 50, 0
1, 755338, Note_on_c, 0, 45, 93
1, 755338, Note_on_c, 0, 57, 101
1, 755342, Note_on_c, 0, 63, 105
1, 755344, Note_on_c, 0, 75, 101
1, 755378, Note_off_c, 0, 57, 67
1, 755380, Note_off_c, 0, 45, 67
1, 755385, Note_off_c, 0, 63, 63
1, 755516, Note_off_c, 0, 75, 59
1, 755594, Note_on_c, 0, 63, 101
1, 755599, Note_on_c, 0, 65, 106
1, 755600, Note_on_c, 0, 53, 89
1, 755600, Note_on_c, 0, 57, 77
1, 755602, Note_on_c, 0, 74, 101
1, 755603, Note_on_c, 0, 69, 92
1, 755629, Note_off_c, 0, 65, 68
1, 755635, Note_off_c, 0, 69, 67
1, 755636, Note_off_c, 0, 74, 68
1, 755678, Note_off_c, 0, 53, 57
1, 755680, Note_off_c, 0, 63, 59
1, 755852, Note_off_c, 0, 57, 37
1, 756323, Note_on_c, 0, 63, 108
1, 756327, Note_on_c, 0, 74, 89
1, 756328, Note_on_c, 0, 69, 96
1, 756329, Note_on_c, 0, 65, 97
1, 756330, Note_on_c, 0, 53, 87
1, 756330, Note_on_c, 0, 57, 87
1, 756354, Note_off_c, 0, 63, 68
1, 756355, Note_on_c, 0, 58, 48
1, 756355, Note_off_c, 0, 58, 127
1, 756362, Note_off_c, 0, 65, 63
1, 756364, Note_off_c, 0, 74, 67
1, 756364, Note_off_c, 0, 53, 62
1, 756367, Note_off_c, 0, 57, 64
1, 756367, Note_off_c, 0, 69, 66
1, 756670, Control_c, 0, 64, 86
1, 756687, Control_c, 0, 64, 45
1, 756701, Control_c, 0, 64, 0
1, 756779, Note_on_c, 0, 34, 106
1, 756782, Note_on_c, 0, 22, 99
1, 756790, Control_c, 0, 64, 61
1, 756790, Control_c, 0, 67, 96
1, 756804, Note_off_c, 0, 34, 67
1, 756805, Note_off_c, 0, 22, 67
1, 756805, Control_c, 0, 64, 127
1, 756805, Control_c, 0, 67, 127
1, 756998, Control_c, 0, 64, 101
1, 757013, Control_c, 0, 64, 78
1, 757027, Control_c, 0, 64, 62
1, 757042, Control_c, 0, 64, 0
1, 757096, Note_on_c, 0, 41, 76
1, 757097, Note_on_c, 0, 53, 78
1, 757192, Note_off_c, 0, 53, 60
1, 757212, Note_on_c, 0, 58, 76
1, 757227, Control_c, 0, 64, 36
1, 757231, Note_on_c, 0, 46, 67
1, 757231, Note_on_c, 0, 50, 71
1, 757241, Note_on_c, 0, 52, 62
1, 757242, Control_c, 0, 64, 117
1, 757257, Control_c, 0, 64, 127
1, 757286, Note_off_c, 0, 41, 44
1, 757290, Note_off_c, 0, 58, 63
1, 757292, Note_off_c, 0, 46, 62
1, 757315, Note_on_c, 0, 61, 73
1, 757341, Note_off_c, 0, 50, 61
1, 757342, Note_off_c, 0, 52, 26
1, 757359, Note_off_c, 0, 61, 59
1, 757362, Note_on_c, 0, 53, 62
1, 757395, Note_off_c, 0, 53, 64
1, 757398, Note_on_c, 0, 62, 69
1, 757420, Control_c, 0, 64, 99
1, 757434, Control_c, 0, 64, 85
1, 757449, Control_c, 0, 64, 71
1, 757455, Note_off_c, 0, 62, 61
1, 757458, Note_on_c, 0, 65, 81
1, 757464, Control_c, 0, 64, 62
1, 757480, Control_c, 0, 64, 49
1, 757495, Control_c, 0, 64, 0
1, 757505, Note_on_c, 0, 54, 67
1, 757523, Note_off_c, 0, 65, 63
1, 757529, Note_on_c, 0, 66, 77
1, 757570, Note_off_c, 0, 54, 64
1, 757578, Note_off_c, 0, 66, 61
1, 757583, Note_on_c, 0, 67, 52
1, 757593, Note_on_c, 0, 55, 56
1, 757640, Note_on_c, 0, 53, 78
1, 757648, Note_on_c, 0, 56, 84
1, 757650, Note_off_c, 0, 55, 63
1, 757654, Note_off_c, 0, 67, 65
1, 757654, Note_on_c, 0, 68, 85
1, 757687, Control_c, 0, 64, 67
1, 757701, Control_c, 0, 64, 64
1, 757716, Control_c, 0, 64, 48
1, 757731, Note_off_c, 0, 68, 63
1, 757731, Control_c, 0, 64, 0
1, 757734, Note_on_c, 0, 71, 76
1, 757772, Note_off_c, 0, 56, 61
1, 757776, Control_c, 0, 64, 55
1, 757787, Note_on_c, 0, 67, 66
1, 757791, Control_c, 0, 64, 62
1, 757794, Note_on_c, 0, 59, 57
1, 757813, Control_c, 0, 64, 61
1, 757819, Note_off_c, 0, 53, 59
1, 757828, Control_c, 0, 64, 59
1, 757829, Note_off_c, 0, 71, 62
1, 757843, Control_c, 0, 64, 60
1, 757852, Note_off_c, 0, 59, 60
1, 757852, Note_off_c, 0, 67, 64
1, 757857, Control_c, 0, 64, 62
1, 757860, Note_on_c, 0, 66, 75
1, 757872, Control_c, 0, 64, 64
1, 757887, Control_c, 0, 64, 64
1, 757894, Note_on_c, 0, 56, 62
1, 757914, Note_off_c, 0, 66, 60
1, 757918, Note_off_c, 0, 56, 63
1, 757923, Note_on_c, 0, 65, 75
1, 757931, Control_c, 0, 64, 65
1, 757946, Control_c, 0, 64, 66
1, 757961, Control_c, 0, 64, 67
1, 757961, Control_c, 0, 67, 111
1, 757964, Note_off_c, 0, 65, 63
1, 757976, Control_c, 0, 64, 67
1, 757976, Control_c, 0, 67, 81
1, 757977, Note_on_c, 0, 64, 66
1, 757988, Note_on_c, 0, 53, 58
1, 757991, Control_c, 0, 64, 68
1, 757991, Control_c, 0, 67, 41
1, 758004, Note_off_c, 0, 64, 68
1, 758005, Control_c, 0, 64, 68
1, 758005, Control_c, 0, 67, 0
1, 758020, Control_c, 0, 64, 69
1, 758041, Note_off_c, 0, 53, 58
1, 758043, Note_on_c, 0, 59, 75
1, 758050, Control_c, 0, 64, 65
1, 758065, Control_c, 0, 64, 49
1, 758075, Note_on_c, 0, 50, 60
1, 758080, Control_c, 0, 64, 0
1, 758102, Note_on_c, 0, 56, 79
1, 758116, Note_off_c, 0, 50, 63
1, 758130, Note_off_c, 0, 59, 61
1, 758145, Note_on_c, 0, 43, 31
1, 758149, Note_on_c, 0, 53, 81
1, 758153, Note_off_c, 0, 56, 63
1, 758183, Note_off_c, 0, 43, 43
1, 758202, Note_off_c, 0, 53, 62
1, 758213, Control_c, 0, 67, 25
1, 758227, Control_c, 0, 67, 79
1, 758231, Note_on_c, 0, 34, 73
1, 758242, Control_c, 0, 64, 84
1, 758242, Control_c, 0, 67, 99
1, 758247, Note_on_c, 0, 32, 52
1, 758254, Note_off_c, 0, 34, 61
1, 758257, Control_c, 0, 64, 127
1, 758257, Control_c, 0, 67, 96
1, 758280, Note_off_c, 0, 32, 56
1, 758288, Control_c, 0, 67, 96
1, 758347, Control_c, 0, 67, 94
1, 758362, Control_c, 0, 67, 94
1, 758384, Note_on_c, 0, 54, 70
1, 758404, Note_on_c, 0, 42, 69
1, 758406, Control_c, 0, 67, 94
1, 758432, Note_off_c, 0, 54, 63
1, 758440, Note_on_c, 0, 58, 76
1, 758451, Control_c, 0, 64, 105
1, 758466, Control_c, 0, 64, 90
1, 758468, Note_on_c, 0, 49, 68
1, 758472, Note_off_c, 0, 42, 61
1, 758480, Control_c, 0, 64, 88
1, 758485, Note_off_c, 0, 58, 65
1, 758491, Note_on_c, 0, 60, 76
1, 758492, Note_off_c, 0, 49, 66
1, 758495, Control_c, 0, 64, 88
1, 758510, Control_c, 0, 64, 89
1, 758510, Control_c, 0, 67, 94
1, 758516, Note_off_c, 0, 60, 70
1, 758524, Control_c, 0, 67, 93
1, 758525, Note_on_c, 0, 54, 75
1, 758539, Control_c, 0, 67, 93
1, 758558, Note_off_c, 0, 54, 67
1, 758562, Control_c, 0, 67, 92
1, 758565, Note_on_c, 0, 61, 59
1, 758577, Control_c, 0, 67, 91
1, 758579, Note_on_c, 0, 63, 66
1, 758603, Note_off_c, 0, 63, 64
1, 758617, Note_off_c, 0, 61, 61
1, 758621, Control_c, 0, 64, 89
1, 758628, Note_on_c, 0, 66, 89
1, 758636, Control_c, 0, 64, 88
1, 758636, Control_c, 0, 67, 89
1, 758650, Control_c, 0, 64, 87
1, 758650, Control_c, 0, 67, 86
1, 758665, Control_c, 0, 67, 82
1, 758667, Note_on_c, 0, 58, 70
1, 758670, Note_off_c, 0, 66, 64
1, 758680, Control_c, 0, 64, 87
1, 758680, Control_c, 0, 67, 78
1, 758695, Control_c, 0, 64, 82
1, 758695, Control_c, 0, 67, 77
1, 758696, Note_on_c, 0, 70, 84
1, 758710, Control_c, 0, 64, 71
1, 758724, Control_c, 0, 64, 57
1, 758724, Control_c, 0, 67, 76
1, 758733, Note_off_c, 0, 58, 62
1, 758739, Note_on_c, 0, 59, 73
1, 758739, Note_off_c, 0, 70, 65
1, 758739, Control_c, 0, 64, 0
1, 758739, Control_c, 0, 67, 72
1, 758754, Note_on_c, 0, 71, 65
1, 758754, Control_c, 0, 67, 59
1, 758769, Control_c, 0, 67, 31
1, 758784, Control_c, 0, 67, 0
1, 758800, Note_on_c, 0, 60, 96
1, 758806, Note_on_c, 0, 54, 83
1, 758809, Note_on_c, 0, 57, 76
1, 758809, Note_off_c, 0, 59, 66
1, 758816, Note_on_c, 0, 72, 86
1, 758827, Note_off_c, 0, 71, 65
1, 758843, Control_c, 0, 64, 64
1, 758843, Control_c, 0, 67, 25
1, 758858, Control_c, 0, 64, 98
1, 758870, Note_off_c, 0, 60, 62
1, 758873, Control_c, 0, 64, 127
1, 758873, Control_c, 0, 67, 21
1, 758881, Note_on_c, 0, 73, 60
1, 758882, Note_on_c, 0, 75, 79
1, 758885, Note_off_c, 0, 72, 64
1, 758888, Control_c, 0, 67, 19
1, 758903, Control_c, 0, 67, 0
1, 758906, Note_off_c, 0, 73, 58
1, 758932, Control_c, 0, 67, 20
1, 758943, Note_on_c, 0, 63, 66
1, 758945, Note_off_c, 0, 57, 60
1, 758953, Note_on_c, 0, 71, 66
1, 758962, Control_c, 0, 67, 0
1, 758968, Note_off_c, 0, 63, 56
1, 758989, Note_off_c, 0, 75, 64
1, 759011, Note_on_c, 0, 70, 75
1, 759013, Note_off_c, 0, 71, 65
1, 759033, Note_on_c, 0, 59, 58
1, 759066, Note_on_c, 0, 69, 76
1, 759067, Note_off_c, 0, 70, 61
1, 759097, Note_off_c, 0, 59, 60
1, 759125, Note_off_c, 0, 69, 62
1, 759134, Note_on_c, 0, 66, 78
1, 759149, Note_off_c, 0, 54, 51
1, 759194, Note_on_c, 0, 63, 86
1, 759216, Control_c, 0, 64, 98
1, 759222, Note_on_c, 0, 57, 48
1, 759230, Control_c, 0, 64, 69
1, 759245, Control_c, 0, 64, 0
1, 759249, Note_on_c, 0, 60, 77
1, 759251, Note_off_c, 0, 57, 62
1, 759255, Note_off_c, 0, 66, 63
1, 759274, Note_off_c, 0, 63, 62
1, 759278, Note_on_c, 0, 54, 67
1, 759308, Note_on_c, 0, 57, 79
1, 759314, Note_off_c, 0, 54, 65
1, 759314, Note_off_c, 0, 60, 66
1, 759340, Note_off_c, 0, 57, 66
1, 759371, Control_c, 0, 64, 41
1, 759386, Control_c, 0, 64, 127
1, 759386, Control_c, 0, 67, 92
1, 759388, Note_on_c, 0, 34, 89
1, 759401, Control_c, 0, 67, 127
1, 759412, Note_off_c, 0, 34, 65
1, 759544, Note_on_c, 0, 50, 81
1, 759544, Note_on_c, 0, 62, 84
1, 759593, Control_c, 0, 64, 82
1, 759603, Note_off_c, 0, 62, 62
1, 759607, Note_on_c, 0, 55, 60
1, 759608, Control_c, 0, 64, 61
1, 759619, Note_on_c, 0, 67, 73
1, 759622, Control_c, 0, 64, 0
1, 759630, Note_on_c, 0, 58, 76
1, 759637, Control_c, 0, 64, 45
1, 759639, Note_off_c, 0, 55, 63
1, 759652, Control_c, 0, 64, 65
1, 759666, Note_off_c, 0, 50, 61
1, 759667, Control_c, 0, 64, 86
1, 759676, Note_on_c, 0, 70, 77
1, 759681, Control_c, 0, 64, 127
1, 759690, Note_off_c, 0, 67, 65
1, 759708, Note_on_c, 0, 62, 75
1, 759716, Note_off_c, 0, 58, 63
1, 759733, Note_off_c, 0, 62, 68
1, 759738, Note_on_c, 0, 73, 83
1, 759739, Note_off_c, 0, 70, 67
1, 759761, Note_off_c, 0, 73, 68
1, 759791, Note_on_c, 0, 74, 81
1, 759830, Control_c, 0, 67, 123
1, 759845, Control_c, 0, 67, 115
1, 759854, Note_off_c, 0, 74, 63
1, 759858, Note_on_c, 0, 77, 67
1, 759860, Control_c, 0, 67, 105
1, 759863, Note_on_c, 0, 67, 46
1, 759863, Note_on_c, 0, 76, 78
1, 759871, Note_on_c, 0, 65, 33
1, 759875, Control_c, 0, 64, 109
1, 759875, Control_c, 0, 67, 98
1, 759890, Control_c, 0, 64, 75
1, 759890, Control_c, 0, 67, 92
1, 759901, Note_off_c, 0, 67, 64
1, 759904, Note_on_c, 0, 66, 82
1, 759904, Note_off_c, 0, 76, 57
1, 759904, Control_c, 0, 64, 52
1, 759904, Control_c, 0, 67, 82
1, 759905, Note_off_c, 0, 65, 59
1, 759908, Note_off_c, 0, 77, 63
1, 759912, Note_on_c, 0, 78, 86
1, 759919, Control_c, 0, 64, 0
1, 759919, Control_c, 0, 67, 55
1, 759934, Control_c, 0, 67, 24
1, 759949, Control_c, 0, 67, 0
1, 759964, Note_off_c, 0, 78, 65
1, 759967, Note_on_c, 0, 67, 82
1, 759969, Note_on_c, 0, 64, 69
1, 759973, Note_on_c, 0, 61, 68
1, 759977, Note_off_c, 0, 66, 62
1, 759982, Note_on_c, 0, 77, 65
1, 759986, Note_on_c, 0, 63, 51
1, 759986, Note_on_c, 0, 79, 61
1, 759994, Control_c, 0, 67, 23
1, 760009, Control_c, 0, 64, 60
1, 760024, Control_c, 0, 64, 71
1, 760031, Note_on_c, 0, 82, 84
1, 760035, Note_off_c, 0, 77, 64
1, 760038, Control_c, 0, 64, 73
1, 760038, Control_c, 0, 67, 21
1, 760047, Note_off_c, 0, 79, 61
1, 760068, Note_off_c, 0, 67, 63
1, 760075, Control_c, 0, 64, 73
1, 760082, Note_off_c, 0, 63, 29
1, 760095, Note_on_c, 0, 78, 76
1, 760101, Note_on_c, 0, 70, 79
1, 760104, Control_c, 0, 64, 74
1, 760119, Control_c, 0, 67, 0
1, 760125, Note_off_c, 0, 64, 59
1, 760131, Note_off_c, 0, 82, 61
1, 760149, Control_c, 0, 64, 74
1, 760159, Note_off_c, 0, 70, 64
1, 760165, Note_off_c, 0, 78, 65
1, 760168, Note_on_c, 0, 76, 72
1, 760169, Note_on_c, 0, 77, 63
1, 760179, Control_c, 0, 64, 75
1, 760183, Note_on_c, 0, 66, 77
1, 760193, Control_c, 0, 64, 77
1, 760199, Note_off_c, 0, 77, 66
1, 760208, Control_c, 0, 64, 77
1, 760237, Note_off_c, 0, 66, 62
1, 760238, Control_c, 0, 64, 78
1, 760247, Note_off_c, 0, 61, 51
1, 760267, Note_off_c, 0, 76, 68
1, 760268, Control_c, 0, 64, 79
1, 760271, Note_on_c, 0, 65, 54
1, 760277, Note_on_c, 0, 73, 87
1, 760283, Control_c, 0, 64, 80
1, 760298, Control_c, 0, 64, 83
1, 760312, Control_c, 0, 64, 85
1, 760327, Control_c, 0, 64, 88
1, 760332, Note_on_c, 0, 70, 84
1, 760333, Note_on_c, 0, 64, 68
1, 760334, Note_off_c, 0, 65, 55
1, 760342, Control_c, 0, 64, 91
1, 760357, Control_c, 0, 64, 93
1, 760366, Note_on_c, 0, 71, 60
1, 760372, Control_c, 0, 64, 86
1, 760372, Note_off_c, 0, 64, 60
1, 760386, Control_c, 0, 64, 63
1, 760390, Note_on_c, 0, 67, 74
1, 760390, Note_off_c, 0, 71, 55
1, 760394, Note_on_c, 0, 61, 42
1, 760401, Note_on_c, 0, 69, 58
1, 760401, Control_c, 0, 64, 0
1, 760403, Note_off_c, 0, 70, 66
1, 760416, Note_off_c, 0, 73, 61
1, 760419, Note_off_c, 0, 69, 62
1, 760427, Note_off_c, 0, 61, 35
1, 760438, Note_on_c, 0, 64, 77
1, 760445, Note_off_c, 0, 67, 65
1, 760488, Note_off_c, 0, 64, 63
1, 760503, Note_on_c, 0, 34, 95
1, 760504, Control_c, 0, 67, 82
1, 760519, Control_c, 0, 64, 111
1, 760519, Control_c, 0, 67, 124
1, 760531, Note_off_c, 0, 34, 65
1, 760534, Control_c, 0, 64, 127
1, 760549, Control_c, 0, 67, 119
1, 760564, Control_c, 0, 67, 117
1, 760637, Control_c, 0, 67, 114
1, 760652, Note_on_c, 0, 54, 77
1, 760655, Note_on_c, 0, 66, 77
1, 760697, Note_off_c, 0, 66, 62
1, 760702, Note_on_c, 0, 58, 68
1, 760704, Note_on_c, 0, 70, 82
1, 760712, Control_c, 0, 67, 116
1, 760736, Note_on_c, 0, 63, 75
1, 760747, Note_off_c, 0, 70, 64
1, 760751, Note_off_c, 0, 54, 60
1, 760754, Note_on_c, 0, 74, 87
1, 760763, Note_off_c, 0, 58, 62
1, 760784, Note_on_c, 0, 66, 77
1, 760786, Note_off_c, 0, 74, 66
1, 760800, Note_off_c, 0, 63, 61
1, 760830, Note_off_c, 0, 66, 56
1, 760856, Poly_aftertouch_c, 0, 75, 127
1, 760897, Note_on_c, 0, 78, 84
1, 760908, Poly_aftertouch_c, 0, 75, 0
1, 760935, Note_off_c, 0, 78, 64
1, 760946, Note_on_c, 0, 70, 73
1, 760954, Note_on_c, 0, 82, 86
1, 760993, Note_off_c, 0, 82, 62
1, 761001, Note_off_c, 0, 70, 65
1, 761007, Note_on_c, 0, 71, 80
1, 761010, Note_on_c, 0, 83, 26
1, 761016, Control_c, 0, 67, 114
1, 761016, Poly_aftertouch_c, 0, 79, 0
1, 761031, Control_c, 0, 64, 82
1, 761045, Control_c, 0, 64, 0
1, 761045, Control_c, 0, 67, 110
1, 761060, Note_off_c, 0, 71, 48
1, 761060, Control_c, 0, 67, 108
1, 761064, Note_on_c, 0, 72, 96
1, 761067, Note_on_c, 0, 66, 86
1, 761073, Note_on_c, 0, 69, 73
1, 761078, Note_on_c, 0, 84, 96
1, 761088, Note_off_c, 0, 83, 65
1, 761105, Control_c, 0, 64, 63
1, 761119, Control_c, 0, 64, 87
1, 761128, Note_off_c, 0, 72, 63
1, 761134, Control_c, 0, 64, 127
1, 761134, Control_c, 0, 67, 106
1, 761143, Note_on_c, 0, 87, 86
1, 761145, Note_off_c, 0, 84, 55
1, 761157, Note_on_c, 0, 85, 58
1, 761177, Note_off_c, 0, 85, 62
1, 761194, Note_on_c, 0, 75, 78
1, 761194, Control_c, 0, 67, 103
1, 761206, Note_off_c, 0, 69, 59
1, 761208, Control_c, 0, 67, 99
1, 761214, Note_on_c, 0, 83, 50
1, 761223, Control_c, 0, 67, 90
1, 761238, Control_c, 0, 67, 77
1, 761240, Note_off_c, 0, 75, 62
1, 761252, Control_c, 0, 67, 66
1, 761255, Note_off_c, 0, 87, 63
1, 761264, Note_on_c, 0, 82, 83
1, 761264, Note_off_c, 0, 83, 64
1, 761267, Control_c, 0, 67, 58
1, 761275, Note_on_c, 0, 71, 80
1, 761282, Control_c, 0, 67, 51
1, 761297, Control_c, 0, 67, 41
1, 761312, Note_off_c, 0, 82, 63
1, 761312, Control_c, 0, 67, 24
1, 761326, Note_on_c, 0, 81, 81
1, 761326, Note_off_c, 0, 71, 63
1, 761326, Control_c, 0, 67, 0
1, 761375, Note_off_c, 0, 81, 64
1, 761393, Note_on_c, 0, 78, 74
1, 761394, Note_off_c, 0, 66, 59
1, 761401, Note_on_c, 0, 68, 45
1, 761438, Note_off_c, 0, 68, 47
1, 761446, Note_on_c, 0, 75, 82
1, 761489, Note_on_c, 0, 72, 82
1, 761505, Note_off_c, 0, 78, 64
1, 761526, Note_off_c, 0, 75, 62
1, 761532, Poly_aftertouch_c, 0, 69, 0
1, 761553, Note_on_c, 0, 69, 65
1, 761565, Note_off_c, 0, 72, 65
1, 761603, Control_c, 0, 64, 74
1, 761618, Control_c, 0, 64, 0
1, 761618, Control_c, 0, 67, 53
1, 761622, Note_off_c, 0, 69, 61
1, 761624, Note_on_c, 0, 34, 87
1, 761632, Control_c, 0, 67, 119
1, 761647, Control_c, 0, 67, 127
1, 761649, Note_off_c, 0, 34, 67
1, 761654, Note_on_c, 0, 32, 41
1, 761654, Note_off_c, 0, 32, 127
1, 761764, Note_on_c, 0, 74, 84
1, 761765, Control_c, 0, 67, 122
1, 761782, Note_on_c, 0, 56, 71
1, 761791, Note_on_c, 0, 53, 59
1, 761810, Control_c, 0, 67, 124
1, 761821, Note_off_c, 0, 53, 63
1, 761825, Note_on_c, 0, 59, 73
1, 761833, Note_on_c, 0, 71, 79
1, 761839, Note_on_c, 0, 76, 75
1, 761848, Note_off_c, 0, 56, 63
1, 761859, Note_off_c, 0, 59, 66
1, 761863, Note_off_c, 0, 74, 64
1, 761887, Note_on_c, 0, 64, 72
1, 761890, Note_off_c, 0, 76, 66
1, 761893, Note_off_c, 0, 71, 65
1, 761932, Note_off_c, 0, 64, 63
1, 761945, Note_on_c, 0, 60, 85
1, 761958, Control_c, 0, 67, 121
1, 761998, Note_off_c, 0, 60, 63
1, 762002, Control_c, 0, 67, 123
1, 762015, Note_on_c, 0, 65, 88
1, 762017, Control_c, 0, 64, 48
1, 762018, Note_on_c, 0, 56, 92
1, 762024, Note_on_c, 0, 72, 81
1, 762026, Note_on_c, 0, 77, 81
1, 762032, Control_c, 0, 64, 0
1, 762056, Note_off_c, 0, 65, 63
1, 762065, Note_off_c, 0, 72, 63
1, 762083, Note_off_c, 0, 77, 63
1, 762090, Note_on_c, 0, 65, 59
1, 762105, Control_c, 0, 67, 126
1, 762122, Note_off_c, 0, 65, 64
1, 762137, Note_off_c, 0, 56, 58
1, 762160, Note_on_c, 0, 64, 74
1, 762207, Note_on_c, 0, 75, 74
1, 762207, Note_on_c, 0, 80, 80
1, 762212, Note_off_c, 0, 64, 63
1, 762217, Note_on_c, 0, 63, 79
1, 762232, Note_off_c, 0, 75, 53
1, 762266, Note_on_c, 0, 62, 73
1, 762266, Note_off_c, 0, 80, 65
1, 762269, Note_off_c, 0, 63, 63
1, 762274, Note_on_c, 0, 68, 80
1, 762301, Note_off_c, 0, 68, 71
1, 762346, Note_on_c, 0, 61, 82
1, 762352, Note_off_c, 0, 62, 63
1, 762382, Note_off_c, 0, 61, 61
1, 762395, Note_on_c, 0, 80, 88
1, 762406, Note_on_c, 0, 84, 86
1, 762420, Note_on_c, 0, 60, 80
1, 762441, Note_on_c, 0, 82, 27
1, 762453, Note_off_c, 0, 80, 64
1, 762460, Note_off_c, 0, 84, 64
1, 762469, Control_c, 0, 67, 124
1, 762474, Note_off_c, 0, 82, 31
1, 762475, Note_on_c, 0, 72, 74
1, 762475, Note_off_c, 0, 60, 65
1, 762497, Note_on_c, 0, 56, 88
1, 762498, Note_off_c, 0, 72, 70
1, 762528, Control_c, 0, 67, 121
1, 762543, Control_c, 0, 67, 117
1, 762546, Note_on_c, 0, 53, 74
1, 762551, Note_off_c, 0, 56, 63
1, 762558, Control_c, 0, 67, 106
1, 762572, Control_c, 0, 67, 73
1, 762587, Control_c, 0, 67, 41
1, 762596, Note_on_c, 0, 77, 92
1, 762599, Note_on_c, 0, 89, 92
1, 762602, Note_on_c, 0, 51, 85
1, 762602, Note_on_c, 0, 84, 80
1, 762602, Control_c, 0, 67, 26
1, 762615, Note_off_c, 0, 84, 72
1, 762616, Note_off_c, 0, 77, 70
1, 762617, Note_off_c, 0, 53, 62
1, 762617, Control_c, 0, 64, 127
1, 762617, Control_c, 0, 67, 23
1, 762619, Note_off_c, 0, 89, 64
1, 762622, Note_on_c, 0, 83, 54
1, 762632, Control_c, 0, 67, 20
1, 762645, Note_off_c, 0, 83, 41
1, 762647, Control_c, 0, 67, 0
1, 762665, Note_off_c, 0, 51, 61
1, 762667, Note_on_c, 0, 77, 84
1, 762669, Note_on_c, 0, 89, 95
1, 762671, Note_on_c, 0, 84, 92
1, 762700, Note_on_c, 0, 50, 82
1, 762700, Note_off_c, 0, 84, 56
1, 762710, Note_off_c, 0, 89, 63
1, 762721, Note_off_c, 0, 77, 59
1, 762730, Poly_aftertouch_c, 0, 86, 0
1, 762744, Note_off_c, 0, 50, 64
1, 762751, Control_c, 0, 64, 113
1, 762765, Control_c, 0, 64, 64
1, 762780, Control_c, 0, 64, 0
1, 762780, Control_c, 0, 67, 69
1, 762790, Note_on_c, 0, 34, 88
1, 762793, Note_on_c, 0, 32, 88
1, 762795, Control_c, 0, 64, 50
1, 762795, Control_c, 0, 67, 127
1, 762810, Control_c, 0, 64, 76
1, 762814, Note_off_c, 0, 32, 65
1, 762820, Note_off_c, 0, 34, 66
1, 762824, Control_c, 0, 64, 127
1, 762853, Control_c, 0, 64, 86
1, 762853, Control_c, 0, 67, 121
1, 762866, Poly_aftertouch_c, 0, 36, 127
1, 762868, Control_c, 0, 64, 63
1, 762868, Control_c, 0, 67, 113
1, 762883, Control_c, 0, 64, 0
1, 762883, Control_c, 0, 67, 115
1, 762909, Poly_aftertouch_c, 0, 36, 0
1, 762912, Control_c, 0, 67, 110
1, 762927, Control_c, 0, 67, 104
1, 762933, Note_on_c, 0, 76, 83
1, 762935, Note_on_c, 0, 55, 81
1, 762942, Control_c, 0, 67, 94
1, 762952, Note_on_c, 0, 58, 77
1, 762957, Control_c, 0, 67, 89
1, 762970, Note_on_c, 0, 78, 80
1, 762972, Control_c, 0, 67, 95
1, 762982, Note_off_c, 0, 55, 65
1, 762987, Control_c, 0, 67, 98
1, 763001, Note_on_c, 0, 73, 86
1, 763016, Note_off_c, 0, 76, 65
1, 763016, Control_c, 0, 67, 88
1, 763031, Control_c, 0, 67, 78
1, 763046, Note_off_c, 0, 78, 64
1, 763052, Note_off_c, 0, 58, 64
1, 763053, Control_c, 0, 67, 55
1, 763058, Note_on_c, 0, 66, 80
1, 763068, Control_c, 0, 67, 24
1, 763070, Note_off_c, 0, 73, 64
1, 763080, Note_off_c, 0, 66, 68
1, 763084, Control_c, 0, 67, 0
1, 763129, Note_on_c, 0, 62, 89
1, 763173, Control_c, 0, 64, 67
1, 763173, Control_c, 0, 67, 35
1, 763174, Note_on_c, 0, 74, 88
1, 763182, Note_on_c, 0, 79, 87
1, 763188, Control_c, 0, 64, 70
1, 763188, Control_c, 0, 67, 39
1, 763193, Note_on_c, 0, 67, 81
1, 763201, Note_on_c, 0, 58, 92
1, 763202, Control_c, 0, 64, 65
1, 763202, Control_c, 0, 67, 32
1, 763207, Note_off_c, 0, 62, 56
1, 763217, Control_c, 0, 64, 58
1, 763217, Control_c, 0, 67, 26
1, 763228, Note_on_c, 0, 65, 32
1, 763228, Note_off_c, 0, 65, 127
1, 763231, Note_off_c, 0, 67, 0
1, 763231, Note_off_c, 0, 74, 63
1, 763232, Control_c, 0, 64, 62
1, 763232, Control_c, 0, 67, 19
1, 763246, Control_c, 0, 64, 68
1, 763246, Control_c, 0, 67, 0
1, 763252, Note_off_c, 0, 79, 66
1, 763253, Note_off_c, 0, 58, 65
1, 763261, Control_c, 0, 64, 69
1, 763261, Control_c, 0, 67, 24
1, 763267, Poly_aftertouch_c, 0, 67, 127
1, 763276, Control_c, 0, 64, 62
1, 763276, Control_c, 0, 67, 36
1, 763286, Note_on_c, 0, 59, 65
1, 763291, Poly_aftertouch_c, 0, 67, 0
1, 763291, Control_c, 0, 64, 0
1, 763291, Control_c, 0, 67, 42
1, 763306, Control_c, 0, 67, 36
1, 763320, Control_c, 0, 67, 33
1, 763322, Note_off_c, 0, 59, 66
1, 763335, Control_c, 0, 64, 34
1, 763335, Control_c, 0, 67, 29
1, 763336, Note_on_c, 0, 66, 79
1, 763350, Control_c, 0, 64, 64
1, 763362, Note_on_c, 0, 77, 61
1, 763363, Note_off_c, 0, 66, 67
1, 763365, Control_c, 0, 64, 83
1, 763365, Control_c, 0, 67, 32
1, 763373, Note_on_c, 0, 65, 70
1, 763380, Control_c, 0, 64, 108
1, 763380, Control_c, 0, 67, 38
1, 763382, Note_on_c, 0, 80, 79
1, 763395, Note_on_c, 0, 64, 44
1, 763395, Note_off_c, 0, 64, 127
1, 763395, Control_c, 0, 64, 115
1, 763395, Control_c, 0, 67, 33
1, 763395, Note_on_c, 0, 76, 37
1, 763395, Note_off_c, 0, 76, 127
1, 763396, Note_on_c, 0, 81, 86
1, 763410, Control_c, 0, 67, 26
1, 763425, Control_c, 0, 64, 127
1, 763425, Control_c, 0, 67, 0
1, 763438, Note_off_c, 0, 77, 53
1, 763439, Note_on_c, 0, 70, 87
1, 763448, Note_on_c, 0, 64, 79
1, 763452, Note_off_c, 0, 80, 44
1, 763455, Note_off_c, 0, 81, 66
1, 763466, Note_off_c, 0, 70, 65
1, 763505, Note_off_c, 0, 64, 63
1, 763506, Note_off_c, 0, 65, 63
1, 763513, Control_c, 0, 64, 88
1, 763526, Note_on_c, 0, 63, 65
1, 763528, Control_c, 0, 64, 56
1, 763543, Control_c, 0, 64, 0
1, 763548, Note_off_c, 0, 63, 63
1, 763558, Control_c, 0, 67, 19
1, 763559, Note_on_c, 0, 82, 96
1, 763565, Note_on_c, 0, 86, 93
1, 763572, Control_c, 0, 64, 45
1, 763572, Control_c, 0, 67, 37
1, 763587, Control_c, 0, 64, 71
1, 763587, Control_c, 0, 67, 37
1, 763599, Note_on_c, 0, 84, 43
1, 763601, Note_on_c, 0, 62, 84
1, 763602, Control_c, 0, 64, 127
1, 763602, Control_c, 0, 67, 28
1, 763617, Control_c, 0, 67, 0
1, 763621, Note_off_c, 0, 82, 65
1, 763626, Note_on_c, 0, 74, 80
1, 763627, Note_off_c, 0, 84, 58
1, 763638, Note_off_c, 0, 86, 66
1, 763661, Note_off_c, 0, 62, 61
1, 763667, Note_off_c, 0, 74, 62
1, 763677, Note_on_c, 0, 58, 89
1, 763716, Note_on_c, 0, 55, 75
1, 763720, Control_c, 0, 64, 63
1, 763725, Note_off_c, 0, 58, 64
1, 763735, Control_c, 0, 64, 0
1, 763760, Note_on_c, 0, 79, 106
1, 763765, Control_c, 0, 64, 55
1, 763766, Note_on_c, 0, 91, 97
1, 763768, Note_on_c, 0, 85, 71
1, 763771, Note_on_c, 0, 87, 81
1, 763773, Note_on_c, 0, 52, 71
1, 763779, Control_c, 0, 64, 96
1, 763782, Note_off_c, 0, 91, 67
1, 763784, Note_off_c, 0, 55, 64
1, 763785, Note_off_c, 0, 87, 70
1, 763794, Note_off_c, 0, 85, 41
1, 763797, Note_off_c, 0, 79, 61
1, 763802, Control_c, 0, 64, 127
1, 763803, Note_on_c, 0, 84, 40
1, 763803, Note_off_c, 0, 84, 127
1, 763806, Note_on_c, 0, 82, 36
1, 763806, Note_off_c, 0, 82, 127
1, 763838, Note_on_c, 0, 91, 94
1, 763839, Note_on_c, 0, 79, 93
1, 763843, Poly_aftertouch_c, 0, 82, 0
1, 763846, Note_on_c, 0, 85, 93
1, 763858, Note_on_c, 0, 87, 70
1, 763869, Note_off_c, 0, 52, 58
1, 763875, Note_off_c, 0, 87, 67
1, 763889, Note_on_c, 0, 50, 83
1, 763907, Control_c, 0, 64, 111
1, 763920, Note_off_c, 0, 50, 61
1, 763922, Control_c, 0, 64, 60
1, 763937, Control_c, 0, 64, 0
1, 763966, Control_c, 0, 64, 52
1, 763966, Control_c, 0, 67, 72
1, 763979, Note_on_c, 0, 32, 102
1, 763981, Control_c, 0, 64, 127
1, 763981, Control_c, 0, 67, 127
1, 763982, Note_on_c, 0, 87, 28
1, 763983, Note_off_c, 0, 79, 61
1, 763990, Note_off_c, 0, 91, 60
1, 764015, Note_off_c, 0, 85, 66
1, 764016, Note_off_c, 0, 32, 62
1, 764030, Note_off_c, 0, 87, 52
1, 764154, Note_on_c, 0, 75, 90
1, 764154, Note_on_c, 0, 87, 102
1, 764158, Note_on_c, 0, 53, 79
1, 764188, Note_off_c, 0, 75, 61
1, 764188, Control_c, 0, 67, 125
1, 764200, Note_on_c, 0, 88, 34
1, 764203, Control_c, 0, 67, 109
1, 764215, Note_off_c, 0, 87, 55
1, 764218, Control_c, 0, 67, 84
1, 764233, Note_off_c, 0, 88, 54
1, 764233, Control_c, 0, 67, 75
1, 764247, Control_c, 0, 67, 82
1, 764250, Note_on_c, 0, 80, 107
1, 764250, Note_on_c, 0, 86, 88
1, 764250, Note_on_c, 0, 92, 97
1, 764253, Note_on_c, 0, 63, 82
1, 764254, Note_on_c, 0, 59, 76
1, 764257, Note_on_c, 0, 83, 90
1, 764259, Note_on_c, 0, 68, 94
1, 764262, Control_c, 0, 67, 84
1, 764265, Note_on_c, 0, 87, 70
1, 764277, Control_c, 0, 67, 81
1, 764286, Note_off_c, 0, 87, 56
1, 764292, Control_c, 0, 67, 80
1, 764298, Note_off_c, 0, 80, 62
1, 764304, Note_on_c, 0, 69, 30
1, 764307, Control_c, 0, 67, 81
1, 764310, Note_off_c, 0, 68, 65
1, 764318, Note_off_c, 0, 92, 65
1, 764322, Control_c, 0, 67, 84
1, 764327, Note_off_c, 0, 63, 63
1, 764331, Note_off_c, 0, 53, 48
1, 764333, Note_off_c, 0, 59, 61
1, 764334, Note_off_c, 0, 83, 61
1, 764337, Control_c, 0, 67, 87
1, 764339, Note_off_c, 0, 69, 50
1, 764352, Control_c, 0, 67, 86
1, 764357, Note_off_c, 0, 86, 61
1, 764367, Control_c, 0, 67, 81
1, 764382, Control_c, 0, 67, 77
1, 764396, Control_c, 0, 67, 73
1, 764411, Control_c, 0, 67, 70
1, 764423, Note_on_c, 0, 53, 74
1, 764424, Note_on_c, 0, 87, 78
1, 764441, Control_c, 0, 67, 72
1, 764447, Note_on_c, 0, 76, 40
1, 764454, Note_on_c, 0, 59, 75
1, 764456, Control_c, 0, 64, 114
1, 764456, Control_c, 0, 67, 73
1, 764470, Control_c, 0, 64, 76
1, 764470, Control_c, 0, 67, 71
1, 764472, Note_on_c, 0, 63, 78
1, 764474, Note_off_c, 0, 53, 54
1, 764476, Note_off_c, 0, 76, 49
1, 764477, Note_on_c, 0, 91, 102
1, 764482, Note_on_c, 0, 69, 86
1, 764483, Note_on_c, 0, 86, 89
1, 764485, Control_c, 0, 64, 71
1, 764485, Control_c, 0, 67, 69
1, 764486, Note_on_c, 0, 79, 99
1, 764488, Note_on_c, 0, 83, 85
1, 764500, Control_c, 0, 64, 81
1, 764500, Control_c, 0, 67, 68
1, 764501, Note_off_c, 0, 59, 64
1, 764515, Control_c, 0, 64, 127
1, 764515, Control_c, 0, 67, 70
1, 764525, Note_off_c, 0, 91, 67
1, 764527, Note_off_c, 0, 63, 64
1, 764527, Note_off_c, 0, 79, 68
1, 764527, Note_off_c, 0, 87, 58
1, 764528, Note_off_c, 0, 69, 64
1, 764530, Control_c, 0, 67, 74
1, 764546, Note_off_c, 0, 83, 64
1, 764552, Control_c, 0, 67, 76
1, 764557, Note_off_c, 0, 86, 63
1, 764566, Control_c, 0, 67, 76
1, 764581, Control_c, 0, 67, 74
1, 764596, Control_c, 0, 67, 70
1, 764611, Control_c, 0, 67, 68
1, 764626, Control_c, 0, 67, 65
1, 764635, Note_on_c, 0, 59, 67
1, 764640, Note_on_c, 0, 75, 74
1, 764641, Control_c, 0, 67, 64
1, 764643, Note_on_c, 0, 87, 89
1, 764656, Note_off_c, 0, 75, 69
1, 764656, Control_c, 0, 64, 75
1, 764656, Control_c, 0, 67, 67
1, 764657, Note_on_c, 0, 60, 54
1, 764662, Note_off_c, 0, 87, 71
1, 764671, Control_c, 0, 64, 61
1, 764671, Control_c, 0, 67, 70
1, 764679, Note_on_c, 0, 63, 68
1, 764683, Note_off_c, 0, 60, 36
1, 764686, Control_c, 0, 64, 65
1, 764692, Note_on_c, 0, 70, 93
1, 764694, Poly_aftertouch_c, 0, 87, 0
1, 764695, Note_on_c, 0, 87, 80
1, 764696, Note_on_c, 0, 66, 7
1, 764696, Note_off_c, 0, 59, 62
1, 764700, Note_on_c, 0, 91, 104
1, 764701, Control_c, 0, 64, 85
1, 764701, Control_c, 0, 67, 68
1, 764702, Note_on_c, 0, 79, 98
1, 764703, Note_on_c, 0, 67, 71
1, 764708, Note_on_c, 0, 82, 93
1, 764709, Note_on_c, 0, 86, 84
1, 764715, Note_on_c, 0, 89, 62
1, 764715, Control_c, 0, 64, 127
1, 764715, Control_c, 0, 67, 66
1, 764724, Note_off_c, 0, 67, 68
1, 764730, Control_c, 0, 67, 64
1, 764736, Note_off_c, 0, 89, 61
1, 764737, Note_off_c, 0, 70, 66
1, 764742, Note_off_c, 0, 79, 63
1, 764745, Note_off_c, 0, 66, 33
1, 764747, Note_off_c, 0, 86, 51
1, 764747, Note_off_c, 0, 91, 64
1, 764753, Note_off_c, 0, 63, 63
1, 764760, Control_c, 0, 67, 65
1, 764761, Note_off_c, 0, 87, 59
1, 764764, Note_off_c, 0, 82, 62
1, 764775, Control_c, 0, 67, 66
1, 764790, Control_c, 0, 67, 63
1, 764805, Control_c, 0, 67, 50
1, 764819, Control_c, 0, 67, 23
1, 764834, Control_c, 0, 64, 101
1, 764834, Control_c, 0, 67, 0
1, 764844, Note_on_c, 0, 58, 86
1, 764844, Note_on_c, 0, 87, 95
1, 764849, Control_c, 0, 64, 66
1, 764856, Note_on_c, 0, 56, 69
1, 764860, Note_on_c, 0, 75, 54
1, 764864, Control_c, 0, 64, 56
1, 764871, Note_off_c, 0, 87, 62
1, 764878, Note_off_c, 0, 56, 64
1, 764879, Control_c, 0, 64, 70
1, 764879, Control_c, 0, 67, 21
1, 764885, Note_off_c, 0, 75, 37
1, 764893, Control_c, 0, 64, 127
1, 764893, Control_c, 0, 67, 0
1, 764895, Note_on_c, 0, 63, 88
1, 764900, Note_on_c, 0, 88, 33
1, 764902, Note_on_c, 0, 71, 87
1, 764905, Note_on_c, 0, 86, 101
1, 764905, Note_on_c, 0, 90, 107
1, 764912, Note_on_c, 0, 82, 92
1, 764913, Note_on_c, 0, 78, 81
1, 764925, Note_on_c, 0, 66, 72
1, 764925, Note_off_c, 0, 58, 61
1, 764929, Note_off_c, 0, 78, 68
1, 764936, Note_off_c, 0, 88, 67
1, 764954, Note_off_c, 0, 71, 63
1, 764964, Note_off_c, 0, 63, 60
1, 764972, Note_off_c, 0, 82, 58
1, 764978, Note_off_c, 0, 86, 61
1, 764981, Note_off_c, 0, 90, 64
1, 765023, Note_off_c, 0, 66, 50
1, 765041, Note_on_c, 0, 57, 82
1, 765053, Note_on_c, 0, 87, 82
1, 765056, Control_c, 0, 64, 86
1, 765071, Control_c, 0, 64, 36
1, 765085, Control_c, 0, 64, 0
1, 765097, Note_on_c, 0, 63, 65
1, 765111, Note_on_c, 0, 65, 77
1, 765111, Note_on_c, 0, 72, 93
1, 765115, Control_c, 0, 64, 50
1, 765121, Note_on_c, 0, 89, 95
1, 765125, Note_on_c, 0, 77, 100
1, 765125, Note_on_c, 0, 86, 97
1, 765130, Control_c, 0, 64, 82
1, 765133, Note_on_c, 0, 81, 85
1, 765136, Note_on_c, 0, 62, 34
1, 765136, Note_off_c, 0, 62, 127
1, 765137, Note_on_c, 0, 82, 78
1, 765144, Note_off_c, 0, 57, 63
1, 765145, Control_c, 0, 64, 127
1, 765147, Note_off_c, 0, 72, 67
1, 765158, Note_off_c, 0, 87, 63
1, 765173, Note_off_c, 0, 65, 63
1, 765176, Note_off_c, 0, 63, 64
1, 765243, Note_off_c, 0, 86, 65
1, 765246, Note_off_c, 0, 82, 28
1, 765273, Note_on_c, 0, 87, 89
1, 765294, Note_off_c, 0, 81, 62
1, 765300, Control_c, 0, 64, 72
1, 765315, Control_c, 0, 64, 0
1, 765316, Note_off_c, 0, 77, 61
1, 765322, Note_off_c, 0, 89, 62
1, 765359, Control_c, 0, 67, 107
1, 765362, Note_off_c, 0, 87, 64
1, 765373, Note_on_c, 0, 46, 109
1, 765374, Control_c, 0, 64, 57
1, 765374, Control_c, 0, 67, 127
1, 765380, Note_on_c, 0, 34, 97
1, 765389, Control_c, 0, 64, 127
1, 765403, Note_off_c, 0, 34, 65
1, 765404, Note_off_c, 0, 46, 66
1, 765459, Note_on_c, 0, 87, 25
1, 765503, Note_off_c, 0, 87, 48
1, 765550, Note_on_c, 0, 88, 94
1, 765557, Note_on_c, 0, 54, 75
1, 765564, Note_on_c, 0, 76, 58
1, 765585, Note_off_c, 0, 76, 63
1, 765588, Note_off_c, 0, 88, 66
1, 765608, Note_on_c, 0, 60, 72
1, 765619, Note_on_c, 0, 64, 76
1, 765621, Note_on_c, 0, 93, 105
1, 765625, Note_on_c, 0, 69, 95
1, 765627, Note_on_c, 0, 81, 105
1, 765628, Note_on_c, 0, 87, 79
1, 765633, Note_on_c, 0, 84, 81
1, 765635, Note_on_c, 0, 85, 78
1, 765637, Note_on_c, 0, 88, 81
1, 765637, Note_off_c, 0, 54, 61
1, 765641, Note_on_c, 0, 89, 68
1, 765643, Note_on_c, 0, 83, 72
1, 765655, Poly_aftertouch_c, 0, 56, 127
1, 765656, Note_off_c, 0, 84, 65
1, 765660, Note_off_c, 0, 83, 46
1, 765660, Note_off_c, 0, 89, 64
1, 765664, Note_off_c, 0, 88, 56
1, 765669, Note_off_c, 0, 93, 65
1, 765669, Note_off_c, 0, 87, 0
1, 765669, Note_on_c, 0, 87, 15
1, 765672, Note_off_c, 0, 85, 48
1, 765672, Control_c, 0, 67, 115
1, 765678, Note_off_c, 0, 81, 63
1, 765681, Note_off_c, 0, 69, 64
1, 765687, Control_c, 0, 67, 82
1, 765690, Poly_aftertouch_c, 0, 56, 0
1, 765702, Control_c, 0, 67, 57
1, 765709, Note_off_c, 0, 87, 54
1, 765716, Control_c, 0, 67, 55
1, 765731, Control_c, 0, 67, 54
1, 765741, Note_off_c, 0, 60, 39
1, 765746, Control_c, 0, 67, 40
1, 765760, Control_c, 0, 67, 0
1, 765774, Note_on_c, 0, 54, 80
1, 765782, Note_on_c, 0, 87, 57
1, 765782, Note_off_c, 0, 87, 127
1, 765782, Note_on_c, 0, 88, 82
1, 765790, Note_on_c, 0, 77, 44
1, 765791, Note_off_c, 0, 64, 26
1, 765793, Note_on_c, 0, 76, 41
1, 765802, Note_off_c, 0, 88, 72
1, 765805, Control_c, 0, 64, 79
1, 765812, Note_on_c, 0, 60, 49
1, 765817, Note_off_c, 0, 77, 56
1, 765820, Note_off_c, 0, 76, 51
1, 765820, Control_c, 0, 64, 76
1, 765820, Control_c, 0, 67, 38
1, 765827, Note_on_c, 0, 56, 12
1, 765828, Note_off_c, 0, 54, 66
1, 765830, Note_on_c, 0, 64, 52
1, 765835, Note_on_c, 0, 80, 109
1, 765835, Control_c, 0, 64, 101
1, 765835, Control_c, 0, 67, 53
1, 765836, Note_on_c, 0, 70, 100
1, 765839, Note_on_c, 0, 92, 98
1, 765849, Control_c, 0, 64, 127
1, 765849, Control_c, 0, 67, 51
1, 765854, Note_on_c, 0, 88, 80
1, 765857, Note_on_c, 0, 84, 79
1, 765860, Note_off_c, 0, 60, 63
1, 765861, Note_on_c, 0, 89, 62
1, 765862, Note_on_c, 0, 93, 67
1, 765863, Note_on_c, 0, 85, 49
1, 765864, Control_c, 0, 67, 48
1, 765872, Note_off_c, 0, 56, 51
1, 765879, Control_c, 0, 67, 45
1, 765880, Note_off_c, 0, 93, 66
1, 765882, Note_off_c, 0, 89, 58
1, 765884, Note_off_c, 0, 64, 62
1, 765890, Note_off_c, 0, 85, 58
1, 765893, Note_off_c, 0, 84, 54
1, 765894, Control_c, 0, 67, 42
1, 765896, Note_off_c, 0, 80, 56
1, 765897, Note_off_c, 0, 70, 66
1, 765909, Control_c, 0, 67, 44
1, 765910, Note_off_c, 0, 88, 64
1, 765911, Note_off_c, 0, 92, 63
1, 765923, Control_c, 0, 67, 48
1, 765938, Control_c, 0, 67, 40
1, 765953, Control_c, 0, 67, 25
1, 765967, Control_c, 0, 67, 0
1, 765987, Note_on_c, 0, 87, 78
1, 765994, Note_on_c, 0, 76, 80
1, 765998, Note_on_c, 0, 88, 93
1, 766000, Note_on_c, 0, 61, 85
1, 766002, Note_off_c, 0, 87, 70
1, 766012, Control_c, 0, 64, 85
1, 766013, Note_off_c, 0, 76, 68
1, 766019, Note_off_c, 0, 88, 68
1, 766027, Control_c, 0, 64, 73
1, 766027, Control_c, 0, 67, 36
1, 766049, Control_c, 0, 64, 79
1, 766049, Control_c, 0, 67, 50
1, 766057, Note_on_c, 0, 68, 90
1, 766059, Note_on_c, 0, 64, 77
1, 766060, Note_on_c, 0, 71, 95
1, 766063, Note_on_c, 0, 92, 103
1, 766064, Control_c, 0, 64, 127
1, 766064, Control_c, 0, 67, 45
1, 766068, Note_on_c, 0, 80, 107
1, 766076, Note_on_c, 0, 83, 83
1, 766078, Note_on_c, 0, 87, 65
1, 766079, Control_c, 0, 67, 39
1, 766081, Note_on_c, 0, 88, 83
1, 766081, Note_on_c, 0, 93, 82
1, 766086, Note_on_c, 0, 89, 56
1, 766087, Note_off_c, 0, 61, 59
1, 766094, Note_off_c, 0, 93, 68
1, 766094, Control_c, 0, 67, 27
1, 766102, Note_on_c, 0, 84, 43
1, 766108, Note_off_c, 0, 89, 60
1, 766109, Note_off_c, 0, 71, 65
1, 766109, Control_c, 0, 67, 0
1, 766111, Poly_aftertouch_c, 0, 77, 0
1, 766121, Note_off_c, 0, 68, 64
1, 766131, Note_off_c, 0, 84, 55
1, 766131, Note_off_c, 0, 64, 61
1, 766132, Note_off_c, 0, 83, 60
1, 766136, Note_off_c, 0, 88, 61
1, 766138, Control_c, 0, 67, 21
1, 766143, Note_off_c, 0, 92, 64
1, 766146, Note_off_c, 0, 80, 62
1, 766153, Control_c, 0, 67, 0
1, 766155, Note_off_c, 0, 87, 62
1, 766215, Note_on_c, 0, 59, 82
1, 766220, Note_on_c, 0, 87, 55
1, 766221, Note_on_c, 0, 76, 88
1, 766225, Note_on_c, 0, 88, 81
1, 766227, Control_c, 0, 64, 92
1, 766235, Note_on_c, 0, 77, 59
1, 766236, Note_off_c, 0, 76, 67
1, 766242, Control_c, 0, 64, 56
1, 766245, Note_off_c, 0, 88, 72
1, 766247, Note_off_c, 0, 87, 66
1, 766255, Note_off_c, 0, 77, 61
1, 766257, Control_c, 0, 64, 0
1, 766272, Note_on_c, 0, 64, 82
1, 766276, Note_on_c, 0, 67, 80
1, 766277, Note_on_c, 0, 72, 100
1, 766283, Note_on_c, 0, 87, 97
1, 766284, Note_on_c, 0, 91, 103
1, 766286, Note_on_c, 0, 83, 93
1, 766287, Note_on_c, 0, 79, 93
1, 766287, Control_c, 0, 64, 65
1, 766290, Note_on_c, 0, 89, 68
1, 766301, Note_on_c, 0, 88, 69
1, 766302, Control_c, 0, 64, 127
1, 766308, Note_off_c, 0, 89, 66
1, 766313, Note_off_c, 0, 59, 62
1, 766320, Note_off_c, 0, 88, 65
1, 766332, Note_off_c, 0, 72, 64
1, 766343, Note_off_c, 0, 67, 58
1, 766361, Note_off_c, 0, 79, 62
1, 766388, Note_off_c, 0, 83, 54
1, 766393, Note_off_c, 0, 91, 56
1, 766403, Note_off_c, 0, 64, 36
1, 766424, Note_on_c, 0, 88, 64
1, 766457, Note_on_c, 0, 58, 91
1, 766465, Control_c, 0, 64, 97
1, 766470, Note_off_c, 0, 87, 62
1, 766480, Control_c, 0, 64, 57
1, 766494, Note_off_c, 0, 88, 66
1, 766495, Control_c, 0, 64, 0
1, 766513, Note_on_c, 0, 64, 57
1, 766523, Note_on_c, 0, 73, 100
1, 766525, Control_c, 0, 64, 60
1, 766525, Control_c, 0, 67, 66
1, 766528, Note_on_c, 0, 66, 81
1, 766530, Note_on_c, 0, 78, 103
1, 766531, Note_on_c, 0, 87, 101
1, 766533, Note_on_c, 0, 90, 108
1, 766537, Note_on_c, 0, 82, 102
1, 766539, Control_c, 0, 64, 127
1, 766539, Control_c, 0, 67, 94
1, 766554, Control_c, 0, 67, 63
1, 766558, Note_off_c, 0, 73, 73
1, 766561, Note_off_c, 0, 58, 65
1, 766569, Control_c, 0, 67, 0
1, 766579, Note_off_c, 0, 66, 63
1, 766581, Note_off_c, 0, 64, 65
1, 766585, Note_on_c, 0, 65, 8
1, 766635, Note_off_c, 0, 65, 40
1, 766646, Note_off_c, 0, 78, 56
1, 766675, Note_off_c, 0, 90, 63
1, 766713, Note_off_c, 0, 82, 59
1, 766722, Note_off_c, 0, 87, 0
1, 766725, Note_on_c, 0, 88, 89
1, 766740, Note_on_c, 0, 87, 32
1, 766761, Control_c, 0, 64, 106
1, 766776, Control_c, 0, 64, 54
1, 766777, Note_off_c, 0, 87, 56
1, 766777, Note_off_c, 0, 88, 65
1, 766798, Control_c, 0, 64, 0
1, 766827, Note_on_c, 0, 46, 112
1, 766828, Control_c, 0, 64, 51
1, 766828, Control_c, 0, 67, 74
1, 766831, Note_on_c, 0, 34, 99
1, 766843, Control_c, 0, 64, 127
1, 766843, Control_c, 0, 67, 95
1, 766853, Note_off_c, 0, 34, 71
1, 766858, Control_c, 0, 67, 90
1, 766859, Note_on_c, 0, 44, 44
1, 766859, Note_off_c, 0, 44, 127
1, 766862, Note_off_c, 0, 46, 67
1, 766872, Control_c, 0, 67, 90
1, 766887, Control_c, 0, 67, 93
1, 766902, Control_c, 0, 67, 99
1, 766931, Control_c, 0, 67, 96
1, 766946, Control_c, 0, 67, 89
1, 766961, Control_c, 0, 67, 84
1, 766976, Control_c, 0, 67, 81
1, 766990, Control_c, 0, 67, 83
1, 767005, Control_c, 0, 67, 83
1, 767020, Control_c, 0, 67, 80
1, 767035, Control_c, 0, 67, 67
1, 767048, Note_on_c, 0, 55, 88
1, 767050, Control_c, 0, 67, 32
1, 767061, Note_on_c, 0, 91, 110
1, 767066, Control_c, 0, 67, 0
1, 767106, Note_off_c, 0, 91, 70
1, 767184, Control_c, 0, 67, 23
1, 767199, Control_c, 0, 67, 30
1, 767210, Note_on_c, 0, 67, 101
1, 767212, Note_on_c, 0, 60, 85
1, 767213, Note_on_c, 0, 63, 91
1, 767213, Control_c, 0, 67, 0
1, 767227, Note_on_c, 0, 84, 112
1, 767230, Note_on_c, 0, 87, 94
1, 767230, Note_on_c, 0, 91, 99
1, 767230, Note_on_c, 0, 96, 103
1, 767234, Note_off_c, 0, 55, 0
1, 767234, Note_on_c, 0, 55, 3
1, 767248, Note_off_c, 0, 67, 66
1, 767259, Note_off_c, 0, 91, 61
1, 767261, Note_off_c, 0, 84, 66
1, 767264, Note_off_c, 0, 55, 59
1, 767266, Note_off_c, 0, 87, 63
1, 767266, Note_off_c, 0, 96, 66
1, 767275, Note_off_c, 0, 60, 63
1, 767275, Note_off_c, 0, 63, 63
1, 767325, Note_on_c, 0, 84, 106
1, 767325, Note_on_c, 0, 96, 103
1, 767327, Note_on_c, 0, 87, 98
1, 767330, Note_on_c, 0, 91, 94
1, 767354, Note_off_c, 0, 91, 64
1, 767357, Note_off_c, 0, 84, 65
1, 767360, Note_off_c, 0, 87, 65
1, 767363, Note_off_c, 0, 96, 69
1, 767413, Note_on_c, 0, 96, 98
1, 767414, Note_on_c, 0, 84, 110
1, 767418, Note_on_c, 0, 87, 97
1, 767419, Note_on_c, 0, 91, 87
1, 767434, Note_on_c, 0, 89, 76
1, 767449, Note_off_c, 0, 89, 65
1, 767455, Note_off_c, 0, 84, 61
1, 767459, Note_off_c, 0, 91, 66
1, 767460, Note_off_c, 0, 96, 65
1, 767466, Note_off_c, 0, 87, 65
1, 767474, Note_on_c, 0, 68, 99
1, 767479, Note_on_c, 0, 63, 89
1, 767479, Note_on_c, 0, 56, 85
1, 767483, Note_on_c, 0, 61, 61
1, 767483, Note_off_c, 0, 61, 127
1, 767503, Note_on_c, 0, 60, 54
1, 767506, Note_off_c, 0, 56, 66
1, 767508, Note_off_c, 0, 63, 65
1, 767509, Note_off_c, 0, 68, 63
1, 767513, Note_on_c, 0, 58, 37
1, 767529, Note_off_c, 0, 60, 59
1, 767560, Note_off_c, 0, 58, 48
1, 767570, Note_on_c, 0, 68, 88
1, 767580, Note_on_c, 0, 83, 104
1, 767580, Note_on_c, 0, 56, 85
1, 767581, Note_on_c, 0, 63, 72
1, 767583, Note_on_c, 0, 95, 88
1, 767584, Note_on_c, 0, 91, 85
1, 767586, Note_on_c, 0, 87, 86
1, 767591, Note_off_c, 0, 68, 70
1, 767593, Note_on_c, 0, 89, 73
1, 767602, Note_off_c, 0, 91, 68
1, 767604, Note_on_c, 0, 60, 49
1, 767604, Note_off_c, 0, 87, 73
1, 767606, Note_off_c, 0, 83, 61
1, 767606, Note_off_c, 0, 95, 65
1, 767608, Note_off_c, 0, 89, 67
1, 767612, Note_off_c, 0, 63, 66
1, 767629, Note_off_c, 0, 56, 61
1, 767634, Note_off_c, 0, 60, 55
1, 767646, Note_on_c, 0, 83, 97
1, 767646, Note_on_c, 0, 95, 87
1, 767650, Note_on_c, 0, 91, 105
1, 767652, Note_on_c, 0, 87, 100
1, 767695, Control_c, 0, 67, 88
1, 767710, Control_c, 0, 67, 121
1, 767712, Note_off_c, 0, 83, 47
1, 767726, Note_on_c, 0, 46, 113
1, 767726, Note_off_c, 0, 87, 59
1, 767731, Note_on_c, 0, 34, 100
1, 767738, Note_off_c, 0, 95, 0
1, 767752, Note_off_c, 0, 46, 71
1, 767753, Note_off_c, 0, 34, 69
1, 767759, Note_on_c, 0, 95, 7
1, 767761, Note_on_c, 0, 37, 45
1, 767761, Note_off_c, 0, 37, 127
1, 767783, Note_on_c, 0, 83, 18
1, 767795, Poly_aftertouch_c, 0, 37, 0
1, 767799, Control_c, 0, 67, 119
1, 767806, Note_off_c, 0, 95, 46
1, 767813, Control_c, 0, 67, 117
1, 767832, Note_off_c, 0, 83, 42
1, 767843, Control_c, 0, 67, 115
1, 767874, Control_c, 0, 67, 113
1, 767878, Note_on_c, 0, 87, 4
1, 767884, Note_off_c, 0, 91, 61
1, 767889, Control_c, 0, 67, 111
1, 767904, Control_c, 0, 67, 108
1, 767932, Note_off_c, 0, 87, 37
1, 767953, Note_on_c, 0, 56, 90
1, 767955, Note_on_c, 0, 68, 99
1, 767966, Note_on_c, 0, 63, 70
1, 767982, Note_on_c, 0, 58, 49
1, 768003, Note_off_c, 0, 58, 63
1, 768005, Note_on_c, 0, 83, 103
1, 768009, Note_on_c, 0, 60, 5
1, 768009, Note_on_c, 0, 91, 90
1, 768009, Note_on_c, 0, 95, 93
1, 768010, Note_on_c, 0, 87, 90
1, 768026, Note_off_c, 0, 91, 72
1, 768028, Note_off_c, 0, 87, 73
1, 768029, Note_off_c, 0, 83, 60
1, 768037, Note_off_c, 0, 95, 58
1, 768040, Note_off_c, 0, 68, 56
1, 768042, Note_off_c, 0, 63, 56
1, 768053, Note_off_c, 0, 60, 56
1, 768076, Note_on_c, 0, 95, 80
1, 768077, Note_on_c, 0, 83, 97
1, 768081, Control_c, 0, 67, 99
1, 768083, Note_on_c, 0, 91, 92
1, 768084, Note_on_c, 0, 87, 97
1, 768096, Control_c, 0, 67, 65
1, 768111, Control_c, 0, 67, 0
1, 768117, Note_off_c, 0, 83, 67
1, 768121, Note_off_c, 0, 56, 59
1, 768123, Note_off_c, 0, 95, 65
1, 768127, Note_off_c, 0, 87, 65
1, 768136, Note_off_c, 0, 91, 66
1, 768166, Poly_aftertouch_c, 0, 60, 127
1, 768167, Note_on_c, 0, 69, 101
1, 768173, Note_on_c, 0, 63, 94
1, 768176, Note_on_c, 0, 57, 91
1, 768191, Poly_aftertouch_c, 0, 68, 0
1, 768200, Note_off_c, 0, 69, 68
1, 768204, Note_on_c, 0, 58, 45
1, 768217, Note_off_c, 0, 63, 68
1, 768221, Note_off_c, 0, 57, 64
1, 768225, Poly_aftertouch_c, 0, 60, 0
1, 768227, Note_on_c, 0, 82, 111
1, 768230, Note_off_c, 0, 58, 57
1, 768231, Note_on_c, 0, 91, 93
1, 768236, Note_on_c, 0, 87, 82
1, 768238, Note_on_c, 0, 94, 81
1, 768254, Note_off_c, 0, 87, 73
1, 768254, Note_off_c, 0, 94, 71
1, 768257, Note_off_c, 0, 82, 62
1, 768264, Note_off_c, 0, 91, 60
1, 768309, Note_on_c, 0, 82, 110
1, 768312, Note_on_c, 0, 91, 89
1, 768314, Note_on_c, 0, 94, 93
1, 768315, Note_on_c, 0, 87, 94
1, 768340, Note_on_c, 0, 92, 44
1, 768340, Note_off_c, 0, 92, 127
1, 768340, Control_c, 0, 64, 104
1, 768353, Note_off_c, 0, 82, 57
1, 768355, Control_c, 0, 64, 63
1, 768369, Note_off_c, 0, 87, 61
1, 768370, Control_c, 0, 64, 50
1, 768370, Control_c, 0, 67, 100
1, 768375, Note_on_c, 0, 46, 122
1, 768379, Note_on_c, 0, 34, 102
1, 768385, Control_c, 0, 64, 68
1, 768385, Control_c, 0, 67, 127
1, 768397, Note_off_c, 0, 34, 74
1, 768400, Control_c, 0, 64, 127
1, 768406, Note_off_c, 0, 46, 66
1, 768460, Note_off_c, 0, 94, 0
1, 768492, Poly_aftertouch_c, 0, 82, 127
1, 768513, Poly_aftertouch_c, 0, 94, 0
1, 768535, Note_off_c, 0, 91, 54
1, 768540, Poly_aftertouch_c, 0, 82, 0
1, 768562, Control_c, 0, 67, 124
1, 768577, Control_c, 0, 67, 126
1, 768607, Control_c, 0, 67, 124
1, 768609, Note_on_c, 0, 57, 91
1, 768610, Note_on_c, 0, 69, 97
1, 768618, Note_on_c, 0, 60, 81
1, 768624, Note_on_c, 0, 63, 74
1, 768669, Note_off_c, 0, 69, 53
1, 768672, Note_on_c, 0, 82, 102
1, 768675, Note_on_c, 0, 90, 63
1, 768675, Note_off_c, 0, 90, 127
1, 768677, Note_on_c, 0, 91, 91
1, 768680, Note_on_c, 0, 94, 77
1, 768681, Note_on_c, 0, 87, 77
1, 768682, Control_c, 0, 67, 126
1, 768695, Note_off_c, 0, 63, 62
1, 768697, Note_off_c, 0, 60, 61
1, 768701, Note_off_c, 0, 82, 62
1, 768701, Note_off_c, 0, 94, 72
1, 768703, Note_off_c, 0, 87, 70
1, 768712, Control_c, 0, 67, 124
1, 768720, Note_off_c, 0, 91, 62
1, 768723, Note_off_c, 0, 57, 59
1, 768747, Note_on_c, 0, 91, 83
1, 768752, Note_on_c, 0, 82, 102
1, 768758, Note_on_c, 0, 60, 78
1, 768758, Note_on_c, 0, 57, 63
1, 768759, Note_on_c, 0, 69, 93
1, 768761, Note_on_c, 0, 94, 80
1, 768766, Note_on_c, 0, 87, 84
1, 768767, Note_on_c, 0, 63, 77
1, 768771, Control_c, 0, 67, 119
1, 768780, Note_on_c, 0, 58, 49
1, 768780, Note_off_c, 0, 94, 70
1, 768785, Control_c, 0, 67, 106
1, 768791, Note_off_c, 0, 69, 65
1, 768794, Note_off_c, 0, 87, 60
1, 768796, Note_off_c, 0, 82, 63
1, 768797, Note_off_c, 0, 57, 62
1, 768800, Control_c, 0, 67, 78
1, 768803, Note_off_c, 0, 91, 66
1, 768804, Note_off_c, 0, 58, 61
1, 768808, Note_off_c, 0, 60, 64
1, 768809, Note_off_c, 0, 63, 59
1, 768815, Control_c, 0, 67, 50
1, 768830, Control_c, 0, 67, 45
1, 768845, Control_c, 0, 67, 51
1, 768853, Poly_aftertouch_c, 0, 60, 0
1, 768854, Note_on_c, 0, 70, 107
1, 768858, Note_on_c, 0, 58, 100
1, 768858, Note_on_c, 0, 60, 78
1, 768859, Control_c, 0, 67, 54
1, 768863, Note_on_c, 0, 63, 65
1, 768874, Control_c, 0, 67, 49
1, 768884, Note_off_c, 0, 63, 71
1, 768889, Control_c, 0, 67, 42
1, 768904, Control_c, 0, 67, 32
1, 768919, Control_c, 0, 67, 0
1, 768921, Note_on_c, 0, 81, 91
1, 768922, Note_off_c, 0, 70, 62
1, 768923, Note_on_c, 0, 93, 97
1, 768927, Note_on_c, 0, 87, 84
1, 768943, Note_off_c, 0, 87, 73
1, 768944, Note_off_c, 0, 58, 54
1, 768947, Note_off_c, 0, 60, 62
1, 768948, Control_c, 0, 67, 26
1, 768957, Note_off_c, 0, 81, 57
1, 768957, Note_off_c, 0, 93, 65
1, 768963, Control_c, 0, 67, 33
1, 768978, Control_c, 0, 67, 32
1, 768984, Note_on_c, 0, 58, 70
1, 768988, Note_on_c, 0, 70, 96
1, 768993, Control_c, 0, 67, 24
1, 768999, Note_on_c, 0, 63, 81
1, 769005, Note_on_c, 0, 60, 57
1, 769007, Note_on_c, 0, 61, 49
1, 769008, Control_c, 0, 67, 0
1, 769022, Note_on_c, 0, 81, 95
1, 769023, Note_on_c, 0, 87, 101
1, 769023, Note_on_c, 0, 93, 91
1, 769036, Note_off_c, 0, 60, 71
1, 769043, Note_off_c, 0, 61, 59
1, 769045, Note_off_c, 0, 58, 64
1, 769045, Note_off_c, 0, 70, 66
1, 769054, Note_off_c, 0, 63, 65
1, 769059, Note_off_c, 0, 81, 61
1, 769065, Note_off_c, 0, 93, 63
1, 769071, Note_off_c, 0, 87, 62
1, 769113, Note_on_c, 0, 71, 102
1, 769115, Note_on_c, 0, 59, 87
1, 769117, Note_on_c, 0, 60, 91
1, 769124, Note_on_c, 0, 63, 79
1, 769127, Note_on_c, 0, 61, 61
1, 769160, Note_off_c, 0, 61, 48
1, 769169, Note_off_c, 0, 71, 59
1, 769182, Note_off_c, 0, 60, 60
1, 769187, Note_on_c, 0, 80, 103
1, 769188, Note_on_c, 0, 92, 100
1, 769190, Note_on_c, 0, 87, 93
1, 769194, Note_off_c, 0, 59, 57
1, 769198, Note_off_c, 0, 63, 59
1, 769217, Note_off_c, 0, 87, 56
1, 769224, Note_off_c, 0, 80, 60
1, 769229, Note_on_c, 0, 90, 22
1, 769229, Note_off_c, 0, 92, 64
1, 769252, Note_on_c, 0, 71, 102
1, 769254, Note_on_c, 0, 63, 89
1, 769255, Note_on_c, 0, 59, 72
1, 769263, Note_on_c, 0, 60, 84
1, 769272, Note_off_c, 0, 90, 32
1, 769282, Control_c, 0, 67, 22
1, 769297, Control_c, 0, 67, 0
1, 769301, Note_on_c, 0, 80, 110
1, 769301, Note_off_c, 0, 71, 66
1, 769303, Note_on_c, 0, 92, 101
1, 769304, Note_on_c, 0, 87, 102
1, 769305, Note_off_c, 0, 60, 63
1, 769315, Note_off_c, 0, 59, 63
1, 769324, Note_off_c, 0, 63, 64
1, 769348, Note_off_c, 0, 80, 63
1, 769350, Note_off_c, 0, 87, 65
1, 769355, Note_off_c, 0, 92, 64
1, 769400, Control_c, 0, 64, 59
1, 769404, Note_on_c, 0, 72, 103
1, 769407, Note_on_c, 0, 68, 84
1, 769410, Note_on_c, 0, 62, 83
1, 769413, Note_on_c, 0, 59, 77
1, 769415, Note_on_c, 0, 60, 78
1, 769415, Control_c, 0, 64, 0
1, 769422, Note_on_c, 0, 79, 108
1, 769423, Note_on_c, 0, 69, 79
1, 769424, Note_on_c, 0, 91, 96
1, 769425, Note_on_c, 0, 87, 102
1, 769430, Control_c, 0, 64, 54
1, 769431, Note_on_c, 0, 81, 86
1, 769434, Note_off_c, 0, 68, 0
1, 769434, Note_on_c, 0, 68, 56
1, 769445, Control_c, 0, 64, 83
1, 769448, Note_off_c, 0, 69, 52
1, 769452, Note_off_c, 0, 81, 69
1, 769461, Control_c, 0, 64, 127
1, 769465, Note_off_c, 0, 68, 59
1, 769473, Note_off_c, 0, 59, 60
1, 769474, Note_off_c, 0, 72, 62
1, 769479, Note_off_c, 0, 91, 58
1, 769488, Note_off_c, 0, 62, 61
1, 769494, Note_off_c, 0, 79, 53
1, 769499, Note_off_c, 0, 60, 59
1, 769527, Note_off_c, 0, 87, 65
1, 769623, Note_on_c, 0, 63, 95
1, 769628, Note_on_c, 0, 60, 78
1, 769630, Note_on_c, 0, 72, 93
1, 769632, Note_on_c, 0, 87, 99
1, 769633, Note_on_c, 0, 78, 109
1, 769637, Note_on_c, 0, 90, 97
1, 769640, Note_on_c, 0, 81, 91
1, 769642, Note_on_c, 0, 69, 74
1, 769682, Note_on_c, 0, 85, 16
1, 769685, Note_off_c, 0, 72, 62
1, 769699, Note_off_c, 0, 60, 62
1, 769708, Note_off_c, 0, 63, 63
1, 769712, Note_off_c, 0, 78, 63
1, 769726, Note_off_c, 0, 85, 34
1, 769732, Note_off_c, 0, 90, 60
1, 769735, Note_off_c, 0, 69, 0
1, 769755, Note_off_c, 0, 87, 58
1, 769756, Note_off_c, 0, 81, 49
1, 769772, Poly_aftertouch_c, 0, 69, 127
1, 769834, Poly_aftertouch_c, 0, 69, 0
1, 769839, Control_c, 0, 64, 83
1, 769852, Note_on_c, 0, 73, 101
1, 769853, Note_on_c, 0, 69, 54
1, 769854, Control_c, 0, 64, 61
1, 769856, Note_on_c, 0, 77, 100
1, 769856, Note_on_c, 0, 86, 95
1, 769857, Note_on_c, 0, 65, 87
1, 769859, Note_on_c, 0, 81, 88
1, 769860, Note_on_c, 0, 89, 99
1, 769863, Note_on_c, 0, 61, 80
1, 769869, Control_c, 0, 64, 63
1, 769877, Note_on_c, 0, 87, 52
1, 769877, Note_off_c, 0, 87, 127
1, 769883, Control_c, 0, 64, 87
1, 769890, Note_on_c, 0, 63, 50
1, 769898, Control_c, 0, 64, 127
1, 769917, Note_off_c, 0, 61, 61
1, 769919, Note_off_c, 0, 73, 65
1, 769923, Note_off_c, 0, 63, 57
1, 769953, Note_off_c, 0, 77, 54
1, 769965, Note_off_c, 0, 65, 61
1, 769971, Note_off_c, 0, 89, 52
1, 769979, Note_off_c, 0, 69, 34
1, 770034, Note_off_c, 0, 86, 51
1, 770093, Note_off_c, 0, 81, 50
1, 770126, Note_on_c, 0, 81, 84
1, 770127, Note_on_c, 0, 73, 106
1, 770127, Note_on_c, 0, 76, 113
1, 770129, Note_on_c, 0, 88, 103
1, 770129, Note_on_c, 0, 61, 87
1, 770129, Note_on_c, 0, 69, 83
1, 770130, Note_on_c, 0, 66, 87
1, 770130, Note_on_c, 0, 85, 105
1, 770156, Note_off_c, 0, 76, 71
1, 770157, Note_off_c, 0, 88, 69
1, 770159, Note_off_c, 0, 73, 71
1, 770174, Note_off_c, 0, 69, 65
1, 770175, Note_off_c, 0, 81, 66
1, 770177, Note_off_c, 0, 85, 69
1, 770183, Note_off_c, 0, 61, 63
1, 770185, Note_off_c, 0, 66, 65
1, 770238, Poly_aftertouch_c, 0, 86, 0
1, 770432, Control_c, 0, 64, 64
1, 770447, Control_c, 0, 64, 0
1, 770522, Note_on_c, 0, 34, 107
1, 770533, Note_on_c, 0, 22, 107
1, 770543, Control_c, 0, 64, 105
1, 770558, Note_off_c, 0, 22, 67
1, 770558, Control_c, 0, 64, 127
1, 770564, Note_off_c, 0, 34, 66
1, 770913, Note_on_c, 0, 53, 81
1, 770928, Note_on_c, 0, 58, 76
1, 770958, Note_on_c, 0, 62, 83
1, 770969, Note_on_c, 0, 65, 106
1, 771014, Note_on_c, 0, 77, 105
1, 771016, Note_on_c, 0, 89, 106
1, 771018, Note_on_c, 0, 82, 107
1, 771031, Note_on_c, 0, 86, 68
1, 771031, Note_off_c, 0, 86, 127
1, 771044, Note_off_c, 0, 77, 70
1, 771047, Note_off_c, 0, 89, 69
1, 771054, Note_off_c, 0, 82, 66
1, 771084, Note_off_c, 0, 65, 34
1, 771089, Note_off_c, 0, 58, 59
1, 771101, Note_off_c, 0, 53, 58
1, 771157, Note_off_c, 0, 62, 56
1, 771197, Note_on_c, 0, 65, 113
1, 771200, Note_on_c, 0, 62, 90
1, 771201, Note_on_c, 0, 53, 91
1, 771203, Note_on_c, 0, 58, 96
1, 771214, Note_on_c, 0, 91, 121
1, 771215, Note_on_c, 0, 94, 111
1, 771217, Note_on_c, 0, 103, 120
1, 771231, Note_off_c, 0, 65, 68
1, 771232, Note_off_c, 0, 53, 64
1, 771241, Note_off_c, 0, 62, 67
1, 771245, Note_off_c, 0, 58, 67
1, 771328, Poly_aftertouch_c, 0, 56, 0
1, 771741, Note_on_c, 0, 98, 15
1, 772011, Note_off_c, 0, 103, 58
1, 772017, Note_on_c, 0, 88, 103
1, 772019, Note_on_c, 0, 86, 97
1, 772020, Note_on_c, 0, 77, 85
1, 772021, Note_off_c, 0, 91, 56
1, 772023, Note_on_c, 0, 82, 94
1, 772037, Note_off_c, 0, 94, 62
1, 772058, Note_off_c, 0, 98, 49
1, 772089, Note_off_c, 0, 77, 61
1, 772102, Note_off_c, 0, 88, 57
1, 772105, Note_off_c, 0, 86, 58
1, 772113, Note_off_c, 0, 82, 60
1, 772226, Note_on_c, 0, 89, 100
1, 772226, Note_on_c, 0, 101, 97
1, 772229, Note_on_c, 0, 98, 90
1, 772236, Note_on_c, 0, 94, 79
1, 772266, Note_off_c, 0, 94, 60
1, 772275, Note_off_c, 0, 89, 60
1, 772288, Note_off_c, 0, 98, 62
1, 772289, Note_off_c, 0, 101, 61
1, 772337, Note_on_c, 0, 88, 93
1, 772341, Note_on_c, 0, 86, 81
1, 772344, Note_on_c, 0, 82, 82
1, 772347, Note_on_c, 0, 77, 67
1, 772369, Note_off_c, 0, 86, 62
1, 772373, Note_off_c, 0, 77, 67
1, 772374, Note_off_c, 0, 88, 67
1, 772383, Note_off_c, 0, 82, 61
1, 772417, Note_on_c, 0, 89, 89
1, 772418, Note_on_c, 0, 101, 83
1, 772427, Note_on_c, 0, 98, 61
1, 772430, Note_on_c, 0, 94, 76
1, 772448, Note_off_c, 0, 98, 63
1, 772450, Note_off_c, 0, 94, 71
1, 772460, Note_off_c, 0, 89, 64
1, 772463, Note_off_c, 0, 101, 64
1, 772484, Note_on_c, 0, 85, 86
1, 772503, Note_on_c, 0, 75, 30
1, 772506, Note_on_c, 0, 74, 65
1, 772506, Note_on_c, 0, 82, 61
1, 772511, Note_on_c, 0, 77, 53
1, 772526, Note_off_c, 0, 82, 62
1, 772530, Note_off_c, 0, 85, 59
1, 772533, Note_off_c, 0, 75, 57
1, 772538, Note_off_c, 0, 74, 56
1, 772541, Note_on_c, 0, 98, 82
1, 772543, Note_on_c, 0, 86, 87
1, 772543, Note_off_c, 0, 77, 61
1, 772551, Note_on_c, 0, 89, 75
1, 772555, Note_on_c, 0, 94, 66
1, 772573, Note_off_c, 0, 86, 61
1, 772573, Note_off_c, 0, 94, 65
1, 772574, Note_off_c, 0, 89, 69
1, 772582, Note_off_c, 0, 98, 62
1, 772600, Note_on_c, 0, 85, 82
1, 772601, Note_on_c, 0, 82, 82
1, 772616, Note_on_c, 0, 77, 74
1, 772626, Note_off_c, 0, 85, 66
1, 772627, Note_on_c, 0, 74, 63
1, 772629, Note_off_c, 0, 82, 63
1, 772639, Note_off_c, 0, 77, 69
1, 772647, Note_off_c, 0, 74, 67
1, 772649, Note_on_c, 0, 94, 79
1, 772664, Note_on_c, 0, 84, 65
1, 772666, Note_on_c, 0, 86, 65
1, 772667, Note_on_c, 0, 89, 53
1, 772670, Note_on_c, 0, 98, 57
1, 772674, Note_on_c, 0, 96, 51
1, 772686, Note_off_c, 0, 89, 62
1, 772687, Note_off_c, 0, 94, 61
1, 772689, Note_off_c, 0, 84, 66
1, 772691, Note_off_c, 0, 86, 66
1, 772691, Note_off_c, 0, 98, 61
1, 772700, Note_off_c, 0, 96, 57
1, 772719, Note_on_c, 0, 81, 83
1, 772721, Note_on_c, 0, 70, 82
1, 772724, Note_on_c, 0, 73, 72
1, 772749, Note_off_c, 0, 73, 66
1, 772763, Note_off_c, 0, 70, 62
1, 772766, Note_off_c, 0, 81, 61
1, 772782, Note_on_c, 0, 82, 90
1, 772791, Note_on_c, 0, 94, 74
1, 772804, Note_on_c, 0, 89, 33
1, 772806, Note_on_c, 0, 86, 41
1, 772807, Note_off_c, 0, 94, 67
1, 772810, Note_off_c, 0, 82, 59
1, 772825, Note_on_c, 0, 70, 72
1, 772825, Note_on_c, 0, 81, 75
1, 772826, Poly_aftertouch_c, 0, 76, 0
1, 772830, Note_on_c, 0, 74, 67
1, 772835, Note_off_c, 0, 86, 50
1, 772837, Note_off_c, 0, 89, 46
1, 772839, Note_on_c, 0, 77, 52
1, 772859, Note_off_c, 0, 81, 63
1, 772860, Note_off_c, 0, 74, 66
1, 772865, Note_on_c, 0, 82, 82
1, 772866, Note_on_c, 0, 94, 83
1, 772866, Note_off_c, 0, 77, 65
1, 772871, Note_off_c, 0, 70, 62
1, 772882, Note_on_c, 0, 89, 68
1, 772896, Note_on_c, 0, 86, 54
1, 772906, Note_off_c, 0, 82, 64
1, 772906, Note_off_c, 0, 89, 68
1, 772909, Note_off_c, 0, 94, 65
1, 772917, Note_off_c, 0, 86, 60
1, 772936, Note_on_c, 0, 76, 89
1, 772937, Note_on_c, 0, 74, 80
1, 772940, Note_on_c, 0, 65, 86
1, 772954, Note_on_c, 0, 70, 59
1, 772970, Note_off_c, 0, 76, 60
1, 772973, Note_off_c, 0, 70, 63
1, 772976, Note_off_c, 0, 65, 59
1, 772979, Note_off_c, 0, 74, 60
1, 772982, Note_on_c, 0, 77, 80
1, 772983, Note_on_c, 0, 86, 84
1, 772993, Note_on_c, 0, 89, 68
1, 773007, Note_off_c, 0, 86, 63
1, 773011, Note_off_c, 0, 89, 67
1, 773017, Note_on_c, 0, 82, 44
1, 773020, Note_off_c, 0, 77, 59
1, 773034, Note_on_c, 0, 70, 87
1, 773035, Note_on_c, 0, 76, 85
1, 773040, Note_on_c, 0, 65, 81
1, 773040, Note_on_c, 0, 74, 56
1, 773047, Note_off_c, 0, 82, 55
1, 773061, Note_off_c, 0, 74, 62
1, 773070, Note_off_c, 0, 76, 62
1, 773074, Note_off_c, 0, 65, 65
1, 773074, Note_on_c, 0, 77, 79
1, 773076, Note_on_c, 0, 68, 30
1, 773077, Note_on_c, 0, 89, 85
1, 773077, Note_on_c, 0, 86, 87
1, 773078, Note_off_c, 0, 70, 61
1, 773098, Note_off_c, 0, 89, 67
1, 773099, Note_on_c, 0, 82, 37
1, 773104, Note_off_c, 0, 86, 61
1, 773105, Note_off_c, 0, 77, 63
1, 773114, Note_off_c, 0, 68, 56
1, 773134, Note_off_c, 0, 82, 56
1, 773140, Note_on_c, 0, 73, 105
1, 773151, Note_on_c, 0, 62, 80
1, 773172, Note_off_c, 0, 62, 70
1, 773176, Note_off_c, 0, 73, 64
1, 773178, Note_on_c, 0, 65, 41
1, 773193, Note_on_c, 0, 74, 77
1, 773199, Note_on_c, 0, 86, 77
1, 773206, Note_on_c, 0, 77, 61
1, 773206, Note_on_c, 0, 82, 73
1, 773209, Note_off_c, 0, 65, 53
1, 773218, Note_off_c, 0, 74, 67
1, 773220, Note_off_c, 0, 86, 70
1, 773221, Note_off_c, 0, 82, 67
1, 773222, Note_off_c, 0, 77, 69
1, 773232, Note_on_c, 0, 73, 86
1, 773245, Note_on_c, 0, 65, 49
1, 773246, Note_on_c, 0, 62, 67
1, 773253, Note_on_c, 0, 70, 65
1, 773268, Note_off_c, 0, 70, 70
1, 773277, Note_off_c, 0, 73, 62
1, 773277, Note_off_c, 0, 65, 65
1, 773285, Note_on_c, 0, 82, 86
1, 773286, Note_on_c, 0, 74, 81
1, 773292, Note_on_c, 0, 77, 62
1, 773298, Note_off_c, 0, 62, 58
1, 773298, Note_on_c, 0, 86, 74
1, 773314, Note_off_c, 0, 86, 69
1, 773315, Note_off_c, 0, 77, 65
1, 773316, Note_off_c, 0, 74, 60
1, 773328, Note_off_c, 0, 82, 62
1, 773348, Note_on_c, 0, 69, 84
1, 773350, Note_on_c, 0, 58, 89
1, 773356, Note_on_c, 0, 61, 73
1, 773376, Note_off_c, 0, 61, 62
1, 773381, Note_on_c, 0, 65, 40
1, 773381, Note_on_c, 0, 62, 48
1, 773392, Note_off_c, 0, 58, 63
1, 773396, Note_off_c, 0, 69, 59
1, 773404, Note_on_c, 0, 70, 78
1, 773409, Note_off_c, 0, 62, 59
1, 773412, Note_off_c, 0, 65, 53
1, 773417, Note_on_c, 0, 82, 69
1, 773417, Note_on_c, 0, 73, 67
1, 773429, Note_on_c, 0, 76, 45
1, 773435, Note_off_c, 0, 82, 66
1, 773439, Note_on_c, 0, 69, 66
1, 773440, Note_off_c, 0, 73, 69
1, 773445, Note_off_c, 0, 70, 63
1, 773447, Note_on_c, 0, 58, 78
1, 773452, Note_on_c, 0, 62, 65
1, 773457, Note_off_c, 0, 76, 52
1, 773458, Note_on_c, 0, 65, 46
1, 773478, Note_off_c, 0, 62, 67
1, 773478, Note_off_c, 0, 69, 63
1, 773487, Note_off_c, 0, 65, 57
1, 773488, Note_off_c, 0, 58, 62
1, 773497, Note_on_c, 0, 70, 76
1, 773499, Note_on_c, 0, 82, 85
1, 773508, Note_on_c, 0, 76, 75
1, 773509, Note_on_c, 0, 73, 70
1, 773516, Note_off_c, 0, 82, 74
1, 773534, Note_off_c, 0, 70, 67
1, 773539, Note_off_c, 0, 73, 70
1, 773539, Note_off_c, 0, 76, 70
1, 773554, Note_on_c, 0, 62, 76
1, 773557, Note_on_c, 0, 64, 84
1, 773567, Note_on_c, 0, 53, 75
1, 773572, Note_on_c, 0, 58, 60
1, 773584, Note_on_c, 0, 54, 39
1, 773596, Note_off_c, 0, 53, 66
1, 773598, Note_off_c, 0, 64, 0
1, 773601, Note_off_c, 0, 58, 65
1, 773601, Poly_aftertouch_c, 0, 78, 0
1, 773602, Note_off_c, 0, 62, 60
1, 773609, Note_on_c, 0, 65, 76
1, 773610, Note_on_c, 0, 73, 83
1, 773616, Note_off_c, 0, 54, 52
1, 773625, Note_on_c, 0, 64, 31
1, 773628, Note_on_c, 0, 77, 51
1, 773629, Note_on_c, 0, 70, 52
1, 773631, Note_off_c, 0, 73, 67
1, 773637, Note_off_c, 0, 65, 67
1, 773647, Note_off_c, 0, 70, 65
1, 773650, Note_off_c, 0, 77, 60
1, 773653, Note_off_c, 0, 64, 0
1, 773653, Note_on_c, 0, 64, 50
1, 773656, Note_on_c, 0, 58, 88
1, 773661, Note_on_c, 0, 62, 53
1, 773661, Note_on_c, 0, 53, 76
1, 773679, Note_off_c, 0, 62, 63
1, 773689, Note_off_c, 0, 53, 68
1, 773689, Note_off_c, 0, 64, 66
1, 773694, Note_off_c, 0, 58, 62
1, 773695, Note_on_c, 0, 65, 89
1, 773700, Note_on_c, 0, 74, 81
1, 773704, Note_on_c, 0, 77, 76
1, 773722, Note_off_c, 0, 77, 73
1, 773727, Note_off_c, 0, 65, 59
1, 773728, Note_off_c, 0, 74, 63
1, 773756, Note_on_c, 0, 61, 100
1, 773770, Note_on_c, 0, 50, 77
1, 773791, Note_off_c, 0, 61, 65
1, 773792, Note_off_c, 0, 50, 68
1, 773798, Note_on_c, 0, 52, 31
1, 773807, Note_on_c, 0, 62, 70
1, 773807, Note_on_c, 0, 53, 22
1, 773819, Note_on_c, 0, 74, 78
1, 773825, Note_on_c, 0, 65, 69
1, 773830, Note_off_c, 0, 52, 51
1, 773836, Note_off_c, 0, 62, 66
1, 773841, Note_on_c, 0, 71, 31
1, 773841, Note_off_c, 0, 53, 0
1, 773841, Note_off_c, 0, 74, 69
1, 773843, Note_off_c, 0, 65, 70
1, 773847, Note_on_c, 0, 61, 88
1, 773856, Note_on_c, 0, 51, 70
1, 773859, Note_on_c, 0, 53, 51
1, 773870, Note_on_c, 0, 50, 69
1, 773879, Note_off_c, 0, 71, 46
1, 773891, Note_off_c, 0, 61, 63
1, 773897, Note_off_c, 0, 53, 62
1, 773901, Note_off_c, 0, 50, 62
1, 773903, Note_on_c, 0, 62, 77
1, 773903, Note_on_c, 0, 70, 77
1, 773906, Note_on_c, 0, 65, 68
1, 773912, Note_off_c, 0, 51, 62
1, 773918, Note_on_c, 0, 74, 73
1, 773934, Note_off_c, 0, 74, 67
1, 773934, Note_off_c, 0, 62, 63
1, 773934, Note_off_c, 0, 65, 65
1, 773935, Poly_aftertouch_c, 0, 58, 127
1, 773951, Note_off_c, 0, 70, 63
1, 773959, Note_on_c, 0, 57, 101
1, 773963, Note_on_c, 0, 46, 99
1, 773967, Poly_aftertouch_c, 0, 58, 0
1, 773973, Note_on_c, 0, 49, 67
1, 773989, Note_on_c, 0, 50, 51
1, 773989, Note_on_c, 0, 53, 50
1, 773998, Note_off_c, 0, 49, 66
1, 773999, Note_off_c, 0, 57, 66
1, 774005, Note_off_c, 0, 46, 63
1, 774007, Note_off_c, 0, 53, 64
1, 774010, Note_off_c, 0, 50, 62
1, 774023, Note_on_c, 0, 70, 73
1, 774026, Note_on_c, 0, 58, 78
1, 774046, Note_off_c, 0, 70, 67
1, 774047, Note_off_c, 0, 58, 67
1, 774049, Note_on_c, 0, 63, 27
1, 774049, Note_off_c, 0, 63, 127
1, 774052, Note_on_c, 0, 46, 85
1, 774052, Note_on_c, 0, 65, 25
1, 774056, Note_on_c, 0, 57, 81
1, 774068, Note_on_c, 0, 50, 74
1, 774068, Note_on_c, 0, 54, 57
1, 774076, Note_on_c, 0, 53, 63
1, 774077, Note_on_c, 0, 51, 29
1, 774087, Note_off_c, 0, 65, 50
1, 774089, Note_off_c, 0, 50, 72
1, 774090, Note_off_c, 0, 54, 60
1, 774094, Note_off_c, 0, 57, 60
1, 774094, Note_off_c, 0, 53, 67
1, 774096, Note_on_c, 0, 66, 72
1, 774102, Note_off_c, 0, 46, 65
1, 774108, Note_on_c, 0, 58, 89
1, 774108, Note_off_c, 0, 51, 54
1, 774121, Note_on_c, 0, 70, 59
1, 774137, Note_on_c, 0, 62, 38
1, 774141, Note_off_c, 0, 58, 62
1, 774144, Note_off_c, 0, 66, 64
1, 774146, Note_off_c, 0, 70, 60
1, 774161, Note_off_c, 0, 62, 57
1, 774161, Poly_aftertouch_c, 0, 49, 0
1, 774164, Note_on_c, 0, 53, 81
1, 774165, Note_on_c, 0, 50, 85
1, 774167, Note_on_c, 0, 52, 85
1, 774168, Note_on_c, 0, 41, 81
1, 774192, Note_on_c, 0, 47, 45
1, 774198, Note_off_c, 0, 50, 61
1, 774199, Note_off_c, 0, 53, 62
1, 774204, Note_off_c, 0, 41, 64
1, 774207, Note_off_c, 0, 52, 60
1, 774219, Note_on_c, 0, 53, 78
1, 774220, Note_off_c, 0, 47, 56
1, 774225, Note_on_c, 0, 62, 72
1, 774233, Note_on_c, 0, 65, 69
1, 774248, Note_on_c, 0, 58, 44
1, 774248, Note_off_c, 0, 62, 70
1, 774251, Note_off_c, 0, 53, 63
1, 774255, Note_off_c, 0, 65, 66
1, 774259, Note_on_c, 0, 52, 86
1, 774267, Note_on_c, 0, 41, 79
1, 774278, Note_on_c, 0, 46, 81
1, 774279, Note_off_c, 0, 58, 60
1, 774284, Note_on_c, 0, 50, 52
1, 774300, Note_off_c, 0, 46, 67
1, 774300, Note_off_c, 0, 52, 62
1, 774306, Note_off_c, 0, 50, 37
1, 774308, Note_off_c, 0, 41, 65
1, 774309, Note_on_c, 0, 53, 65
1, 774314, Note_on_c, 0, 62, 82
1, 774318, Note_on_c, 0, 65, 83
1, 774332, Note_off_c, 0, 53, 69
1, 774332, Control_c, 0, 64, 73
1, 774341, Note_off_c, 0, 65, 69
1, 774347, Control_c, 0, 64, 0
1, 774348, Note_off_c, 0, 62, 60
1, 774377, Note_on_c, 0, 58, 7
1, 774377, Note_off_c, 0, 58, 127
1, 774392, Control_c, 0, 64, 79
1, 774394, Note_on_c, 0, 34, 94
1, 774397, Note_on_c, 0, 32, 94
1, 774398, Note_on_c, 0, 22, 96
1, 774406, Control_c, 0, 64, 127
1, 774416, Note_off_c, 0, 32, 68
1, 774420, Note_off_c, 0, 34, 68
1, 774424, Note_off_c, 0, 22, 60
1, 774437, Note_on_c, 0, 21, 32
1, 774480, Note_off_c, 0, 21, 47
1, 774489, Note_on_c, 0, 33, 6
1, 774512, Note_on_c, 0, 32, 2
1, 774524, Note_off_c, 0, 33, 48
1, 774530, Note_off_c, 0, 32, 46
1, 774648, Note_on_c, 0, 58, 102
1, 774652, Note_on_c, 0, 56, 101
1, 774652, Note_on_c, 0, 70, 96
1, 774654, Note_on_c, 0, 65, 90
1, 774657, Note_on_c, 0, 62, 85
1, 774658, Note_on_c, 0, 53, 85
1, 774659, Note_on_c, 0, 44, 86
1, 774661, Note_on_c, 0, 50, 85
1, 774687, Note_off_c, 0, 53, 65
1, 774688, Note_off_c, 0, 56, 63
1, 774691, Note_off_c, 0, 58, 65
1, 774703, Note_off_c, 0, 50, 60
1, 774703, Note_off_c, 0, 62, 64
1, 774707, Note_off_c, 0, 44, 65
1, 774709, Note_off_c, 0, 65, 62
1, 774727, Note_off_c, 0, 70, 62
1, 774850, Control_c, 0, 64, 104
1, 774865, Control_c, 0, 64, 58
1, 774880, Control_c, 0, 64, 0
1, 774895, Control_c, 0, 64, 46
1, 774901, Note_on_c, 0, 46, 117
1, 774905, Note_on_c, 0, 34, 96
1, 774910, Control_c, 0, 64, 77
1, 774924, Control_c, 0, 64, 127
1, 774926, Note_off_c, 0, 34, 70
1, 774934, Note_off_c, 0, 46, 67
1, 774936, Note_on_c, 0, 44, 47
1, 774936, Note_off_c, 0, 44, 127
1, 774955, Note_on_c, 0, 33, 12
1, 774955, Note_off_c, 0, 33, 127
1, 775001, Poly_aftertouch_c, 0, 33, 0
1, 775200, Note_on_c, 0, 57, 91
1, 775202, Note_on_c, 0, 69, 93
1, 775203, Note_on_c, 0, 70, 102
1, 775205, Note_on_c, 0, 82, 99
1, 775205, Note_on_c, 0, 63, 95
1, 775205, Note_on_c, 0, 66, 94
1, 775208, Note_on_c, 0, 78, 96
1, 775212, Note_on_c, 0, 75, 91
1, 775231, Note_off_c, 0, 69, 66
1, 775234, Note_on_c, 0, 67, 43
1, 775234, Note_off_c, 0, 67, 127
1, 775244, Note_off_c, 0, 57, 66
1, 775244, Note_off_c, 0, 70, 66
1, 775247, Note_off_c, 0, 63, 66
1, 775247, Note_off_c, 0, 66, 64
1, 775264, Note_off_c, 0, 78, 62
1, 775265, Note_off_c, 0, 75, 61
1, 775266, Note_off_c, 0, 82, 61
1, 775466, Control_c, 0, 64, 63
1, 775480, Control_c, 0, 64, 0
1, 775514, Note_on_c, 0, 46, 117
1, 775518, Note_on_c, 0, 34, 94
1, 775525, Control_c, 0, 64, 85
1, 775539, Note_off_c, 0, 34, 73
1, 775540, Control_c, 0, 64, 127
1, 775544, Note_off_c, 0, 46, 70
1, 775902, Note_on_c, 0, 70, 102
1, 775907, Note_on_c, 0, 82, 115
1, 775909, Note_on_c, 0, 55, 82
1, 775909, Note_on_c, 0, 94, 98
1, 775909, Note_on_c, 0, 64, 92
1, 775912, Note_on_c, 0, 88, 102
1, 775912, Note_on_c, 0, 84, 103
1, 775914, Note_on_c, 0, 60, 81
1, 775914, Note_on_c, 0, 91, 94
1, 775925, Note_on_c, 0, 56, 62
1, 775942, Note_off_c, 0, 94, 68
1, 775945, Note_off_c, 0, 82, 72
1, 775946, Note_off_c, 0, 70, 69
1, 775947, Note_off_c, 0, 56, 38
1, 775948, Note_off_c, 0, 91, 68
1, 775951, Note_off_c, 0, 55, 66
1, 775956, Note_on_c, 0, 90, 22
1, 775956, Note_off_c, 0, 90, 127
1, 775956, Note_off_c, 0, 84, 64
1, 775956, Note_off_c, 0, 88, 69
1, 775958, Note_off_c, 0, 64, 67
1, 775964, Note_off_c, 0, 60, 65
1, 776021, Poly_aftertouch_c, 0, 58, 0
1, 776347, Control_c, 0, 64, 78
1, 776362, Control_c, 0, 64, 0
1, 776411, Note_on_c, 0, 34, 106
1, 776412, Note_on_c, 0, 46, 109
1, 776414, Note_on_c, 0, 22, 108
1, 776414, Note_on_c, 0, 58, 100
1, 776421, Control_c, 0, 64, 127
1, 776429, Note_off_c, 0, 46, 75
1, 776433, Note_off_c, 0, 58, 71
1, 776439, Note_off_c, 0, 22, 65
1, 776439, Note_off_c, 0, 34, 65
1, 777118, Note_on_c, 0, 41, 85
1, 777118, Note_on_c, 0, 46, 98
1, 777119, Note_on_c, 0, 70, 113
1, 777119, Note_on_c, 0, 53, 102
1, 777122, Note_on_c, 0, 82, 102
1, 777123, Note_on_c, 0, 77, 87
1, 777124, Note_on_c, 0, 50, 89
1, 777124, Note_on_c, 0, 74, 98
1, 777149, Note_off_c, 0, 41, 65
1, 777160, Note_off_c, 0, 53, 65
1, 777164, Note_off_c, 0, 50, 62
1, 777167, Note_off_c, 0, 46, 63
1, 777238, Note_off_c, 0, 70, 59
1, 777249, Note_off_c, 0, 82, 60
1, 777275, Note_off_c, 0, 74, 55
1, 777289, Note_off_c, 0, 77, 60
1, 777334, Note_on_c, 0, 70, 113
1, 777334, Note_on_c, 0, 77, 85
1, 777335, Note_on_c, 0, 65, 106
1, 777338, Note_on_c, 0, 53, 94
1, 777338, Note_on_c, 0, 74, 98
1, 777340, Note_on_c, 0, 82, 107
1, 777341, Note_on_c, 0, 62, 90
1, 777349, Note_on_c, 0, 58, 67
1, 777360, Note_off_c, 0, 62, 71
1, 777363, Note_off_c, 0, 65, 68
1, 777364, Note_off_c, 0, 53, 64
1, 777366, Note_off_c, 0, 58, 67
1, 777372, Note_on_c, 0, 80, 56
1, 777407, Note_off_c, 0, 80, 48
1, 777434, Poly_aftertouch_c, 0, 57, 127
1, 777465, Poly_aftertouch_c, 0, 57, 0
1, 779411, Note_off_c, 0, 70, 61
1, 779414, Note_off_c, 0, 82, 61
1, 779421, Note_off_c, 0, 74, 62
1, 779429, Note_off_c, 0, 77, 64
1, 779507, Control_c, 0, 64, 90
1, 779528, Control_c, 0, 64, 62
1, 779543, Control_c, 0, 64, 0
1, 779543, End_track
0, 0, End_of_file
