0, 0, Header, 0, 1, 384
1, 0, Start_track
1, 0, Title_t, "Etude T. Op.33/9--Kenny Broberg    "
1, 0, Text_t, "2008 e-Piano Junior Competition virtual audition round"
1, 0, Text_t, "recorded January and February 2008"
1, 0, Text_t, "http://www.piano-e-competition.com/"
1, 0, Text_t, "File processed for distribution by software from Zenph Studios, Inc., http://www.zenph.com"
1, 0, Instrument_name_t, "Yamaha Disklavier Pro Mark IV concert grand piano, model DCFIIISM4PRO"
1, 0, Sequencer_specific, 39, 67, 113, 0, 1, 0, 1, 0, 69, 116, 117, 100, 101, 32, 84, 46, 32, 79, 112, 46, 51, 51, 47, 57, 75, 101, 110, 110, 121, 32, 66, 114, 111, 98, 101, 114, 103, 32, 32, 32
1, 0, Sequencer_specific, 6, 67, 113, 0, 0, 0, 69
1, 0, System_exclusive, 21, 67, 113, 126, 21, 0, 2, 2, 0, 9, 10, 6, 4, 7, 8, 3, 12, 9, 12, 12, 5, 247
1, 0, Sequencer_specific, 5, 67, 123, 12, 2, 1
1, 0, Tempo, 512820
1, 0, Time_signature, 4, 2, 24, 8
1, 0, System_exclusive, 5, 126, 127, 9, 1, 247
1, 1, System_exclusive, 8, 67, 16, 76, 0, 0, 126, 0, 247
1, 2, System_exclusive, 8, 67, 16, 76, 8, 9, 7, 1, 247
1, 3, Control_c, 0, 0, 0
1, 3, Control_c, 1, 0, 0
1, 3, Control_c, 2, 0, 0
1, 3, Control_c, 3, 0, 0
1, 3, Control_c, 4, 0, 0
1, 3, Control_c, 5, 0, 0
1, 3, Control_c, 6, 0, 0
1, 3, Control_c, 7, 0, 0
1, 3, Control_c, 8, 0, 0
1, 3, Control_c, 9, 0, 127
1, 3, Control_c, 10, 0, 0
1, 3, Control_c, 11, 0, 0
1, 3, Control_c, 12, 0, 0
1, 3, Control_c, 13, 0, 0
1, 3, Control_c, 14, 0, 0
1, 3, Control_c, 15, 0, 0
1, 4, Control_c, 0, 32, 0
1, 4, Control_c, 1, 32, 0
1, 4, Control_c, 2, 32, 0
1, 4, Control_c, 3, 32, 0
1, 4, Control_c, 4, 32, 0
1, 4, Control_c, 5, 32, 0
1, 4, Control_c, 6, 32, 0
1, 4, Control_c, 7, 32, 0
1, 4, Control_c, 8, 32, 0
1, 4, Control_c, 9, 32, 0
1, 4, Control_c, 10, 32, 0
1, 4, Control_c, 11, 32, 0
1, 4, Control_c, 12, 32, 0
1, 4, Control_c, 13, 32, 0
1, 4, Control_c, 14, 32, 0
1, 4, Control_c, 15, 32, 0
1, 5, Program_c, 0, 0
1, 5, Program_c, 1, 0
1, 5, Program_c, 2, 0
1, 5, Program_c, 3, 0
1, 5, Program_c, 4, 0
1, 5, Program_c, 5, 0
1, 5, Program_c, 6, 0
1, 5, Program_c, 7, 0
1, 5, Program_c, 8, 0
1, 5, Program_c, 9, 0
1, 5, Program_c, 10, 0
1, 5, Program_c, 11, 0
1, 5, Program_c, 12, 0
1, 5, Program_c, 13, 0
1, 5, Program_c, 14, 0
1, 5, Program_c, 15, 0
1, 6, Control_c, 0, 7, 100
1, 117, Control_c, 0, 64, 15
1, 229, Control_c, 0, 64, 31
1, 341, Control_c, 0, 64, 46
1, 452, Control_c, 0, 64, 63
1, 564, Control_c, 0, 64, 77
1, 676, Control_c, 0, 64, 94
1, 787, Control_c, 0, 64, 108
1, 899, Control_c, 0, 64, 127
1, 899, Control_c, 1, 7, 100
1, 899, Control_c, 2, 7, 100
1, 899, Control_c, 3, 7, 100
1, 899, Control_c, 4, 7, 100
1, 899, Control_c, 5, 7, 100
1, 899, Control_c, 6, 7, 100
1, 899, Control_c, 7, 7, 100
1, 899, Control_c, 8, 7, 100
1, 899, Control_c, 9, 7, 100
1, 899, Control_c, 10, 7, 100
1, 899, Control_c, 11, 7, 100
1, 899, Control_c, 12, 7, 100
1, 899, Control_c, 13, 7, 100
1, 899, Control_c, 14, 7, 100
1, 899, Control_c, 15, 7, 100
1, 1128, Note_on_c, 0, 61, 103
1, 1138, Note_on_c, 0, 37, 91
1, 1143, Note_on_c, 0, 49, 91
1, 1182, Note_off_c, 0, 49, 62
1, 1209, Note_off_c, 0, 37, 64
1, 1209, Note_off_c, 0, 61, 65
1, 1864, Note_on_c, 0, 73, 101
1, 1881, Note_on_c, 0, 56, 75
1, 1881, Note_on_c, 0, 52, 84
1, 1896, Note_on_c, 0, 64, 54
1, 1897, Note_on_c, 0, 61, 52
1, 1917, Note_off_c, 0, 64, 62
1, 1920, Note_off_c, 0, 61, 60
1, 1933, Note_off_c, 0, 56, 61
1, 1944, Note_off_c, 0, 73, 69
1, 1954, Note_off_c, 0, 52, 66
1, 2325, Control_c, 0, 64, 116
1, 2340, Control_c, 0, 64, 80
1, 2355, Control_c, 0, 64, 54
1, 2370, Control_c, 0, 64, 0
1, 2377, Note_on_c, 0, 51, 88
1, 2378, Note_on_c, 0, 27, 73
1, 2378, Note_on_c, 0, 39, 78
1, 2410, Note_off_c, 0, 39, 70
1, 2417, Note_off_c, 0, 27, 64
1, 2420, Note_off_c, 0, 51, 63
1, 2472, Note_on_c, 0, 55, 99
1, 2485, Note_on_c, 0, 43, 91
1, 2499, Note_on_c, 0, 31, 72
1, 2503, Control_c, 0, 64, 55
1, 2517, Control_c, 0, 64, 106
1, 2532, Control_c, 0, 64, 127
1, 2534, Note_off_c, 0, 31, 63
1, 2535, Note_off_c, 0, 55, 64
1, 2560, Note_off_c, 0, 43, 59
1, 2893, Note_on_c, 0, 76, 98
1, 2904, Note_on_c, 0, 49, 80
1, 2907, Note_on_c, 0, 64, 74
1, 2907, Note_on_c, 0, 73, 63
1, 2910, Note_on_c, 0, 52, 73
1, 2911, Note_on_c, 0, 59, 67
1, 2928, Note_off_c, 0, 73, 67
1, 2931, Note_off_c, 0, 59, 65
1, 2933, Note_off_c, 0, 64, 66
1, 2937, Note_off_c, 0, 52, 67
1, 2960, Note_off_c, 0, 49, 64
1, 2975, Note_off_c, 0, 76, 72
1, 3385, Control_c, 0, 64, 87
1, 3399, Control_c, 0, 64, 54
1, 3414, Control_c, 0, 64, 0
1, 4045, Control_c, 0, 64, 33
1, 4060, Control_c, 0, 64, 63
1, 4060, Note_on_c, 0, 66, 103
1, 4071, Note_on_c, 0, 42, 86
1, 4074, Control_c, 0, 64, 84
1, 4075, Note_on_c, 0, 54, 86
1, 4089, Control_c, 0, 64, 127
1, 4140, Note_off_c, 0, 54, 53
1, 4173, Note_off_c, 0, 66, 61
1, 4177, Note_off_c, 0, 42, 62
1, 4765, Note_on_c, 0, 78, 101
1, 4775, Note_on_c, 0, 57, 81
1, 4778, Note_on_c, 0, 66, 82
1, 4781, Note_on_c, 0, 69, 76
1, 4781, Note_on_c, 0, 61, 77
1, 4799, Note_off_c, 0, 66, 71
1, 4804, Note_off_c, 0, 69, 73
1, 4848, Note_off_c, 0, 61, 60
1, 4849, Note_off_c, 0, 78, 68
1, 4876, Note_off_c, 0, 57, 63
1, 5201, Control_c, 0, 64, 89
1, 5216, Control_c, 0, 64, 64
1, 5230, Control_c, 0, 64, 0
1, 5291, Note_on_c, 0, 56, 81
1, 5304, Note_on_c, 0, 32, 75
1, 5304, Note_on_c, 0, 44, 79
1, 5327, Note_off_c, 0, 44, 68
1, 5331, Note_off_c, 0, 32, 64
1, 5333, Note_off_c, 0, 56, 64
1, 5379, Note_on_c, 0, 60, 105
1, 5397, Note_on_c, 0, 48, 90
1, 5404, Note_on_c, 0, 36, 81
1, 5408, Control_c, 0, 64, 65
1, 5423, Control_c, 0, 64, 107
1, 5437, Control_c, 0, 64, 127
1, 5455, Note_off_c, 0, 48, 53
1, 5459, Note_off_c, 0, 36, 60
1, 5462, Note_off_c, 0, 60, 64
1, 5781, Note_on_c, 0, 81, 98
1, 5794, Note_on_c, 0, 54, 77
1, 5799, Note_on_c, 0, 69, 72
1, 5801, Note_on_c, 0, 64, 69
1, 5804, Note_on_c, 0, 78, 50
1, 5810, Note_on_c, 0, 57, 58
1, 5815, Note_off_c, 0, 69, 69
1, 5836, Note_off_c, 0, 64, 67
1, 5836, Note_off_c, 0, 78, 52
1, 5840, Note_off_c, 0, 57, 62
1, 5872, Note_off_c, 0, 54, 64
1, 5889, Note_off_c, 0, 81, 58
1, 6247, Control_c, 0, 64, 87
1, 6262, Control_c, 0, 64, 53
1, 6276, Control_c, 0, 64, 0
1, 6931, Note_on_c, 0, 76, 107
1, 6936, Control_c, 0, 64, 47
1, 6948, Note_on_c, 0, 52, 81
1, 6950, Control_c, 0, 64, 68
1, 6952, Note_on_c, 0, 64, 81
1, 6965, Control_c, 0, 64, 91
1, 6980, Control_c, 0, 64, 127
1, 7002, Note_off_c, 0, 64, 63
1, 7085, Note_off_c, 0, 52, 62
1, 7091, Note_off_c, 0, 76, 62
1, 7664, Note_on_c, 0, 82, 96
1, 7672, Note_on_c, 0, 80, 80
1, 7673, Note_on_c, 0, 73, 78
1, 7676, Note_on_c, 0, 56, 81
1, 7678, Note_on_c, 0, 68, 76
1, 7681, Note_on_c, 0, 70, 67
1, 7685, Note_on_c, 0, 61, 69
1, 7690, Note_on_c, 0, 58, 71
1, 7696, Note_off_c, 0, 73, 68
1, 7697, Note_off_c, 0, 70, 68
1, 7702, Note_off_c, 0, 68, 67
1, 7731, Note_off_c, 0, 80, 62
1, 7750, Note_off_c, 0, 61, 59
1, 7762, Note_off_c, 0, 82, 62
1, 7774, Note_off_c, 0, 56, 62
1, 7775, Note_off_c, 0, 58, 62
1, 8345, Control_c, 0, 64, 90
1, 8360, Control_c, 0, 64, 67
1, 8365, Note_on_c, 0, 75, 103
1, 8367, Note_on_c, 0, 63, 97
1, 8373, Note_on_c, 0, 51, 91
1, 8374, Control_c, 0, 64, 0
1, 8376, Note_on_c, 0, 39, 80
1, 8420, Note_on_c, 0, 73, 12
1, 8421, Note_off_c, 0, 73, 127
1, 8567, Control_c, 0, 64, 14
1, 8581, Control_c, 0, 64, 59
1, 8596, Control_c, 0, 64, 74
1, 8611, Control_c, 0, 64, 106
1, 8626, Control_c, 0, 64, 127
1, 8654, Note_off_c, 0, 63, 61
1, 8675, Note_off_c, 0, 39, 61
1, 8693, Note_off_c, 0, 51, 54
1, 8710, Note_off_c, 0, 75, 61
1, 9080, Note_on_c, 0, 84, 97
1, 9091, Note_on_c, 0, 54, 75
1, 9101, Note_on_c, 0, 66, 68
1, 9102, Note_on_c, 0, 60, 65
1, 9104, Note_on_c, 0, 72, 67
1, 9107, Note_on_c, 0, 56, 68
1, 9119, Note_off_c, 0, 72, 67
1, 9127, Note_off_c, 0, 66, 63
1, 9156, Note_off_c, 0, 60, 54
1, 9207, Note_off_c, 0, 56, 54
1, 9223, Note_off_c, 0, 84, 63
1, 9312, Note_off_c, 0, 54, 58
1, 9605, Control_c, 0, 64, 91
1, 9619, Control_c, 0, 64, 70
1, 9634, Control_c, 0, 64, 37
1, 9649, Control_c, 0, 64, 0
1, 9753, Note_on_c, 0, 73, 100
1, 9756, Note_on_c, 0, 61, 91
1, 9762, Note_on_c, 0, 49, 95
1, 9765, Note_on_c, 0, 37, 86
1, 9768, Control_c, 0, 64, 55
1, 9783, Control_c, 0, 64, 81
1, 9791, Note_off_c, 0, 61, 66
1, 9798, Control_c, 0, 64, 127
1, 9812, Note_off_c, 0, 37, 64
1, 9827, Note_off_c, 0, 49, 59
1, 9832, Note_off_c, 0, 73, 65
1, 10122, Note_on_c, 0, 85, 97
1, 10132, Note_on_c, 0, 61, 66
1, 10133, Note_on_c, 0, 76, 71
1, 10135, Note_on_c, 0, 56, 64
1, 10135, Note_on_c, 0, 80, 63
1, 10136, Note_on_c, 0, 52, 79
1, 10140, Note_on_c, 0, 64, 64
1, 10141, Note_on_c, 0, 73, 57
1, 10159, Note_off_c, 0, 76, 70
1, 10160, Note_off_c, 0, 73, 62
1, 10161, Note_off_c, 0, 64, 66
1, 10163, Note_off_c, 0, 80, 66
1, 10174, Note_off_c, 0, 61, 60
1, 10194, Note_off_c, 0, 56, 62
1, 10203, Note_off_c, 0, 52, 65
1, 10217, Note_off_c, 0, 85, 67
1, 11267, Control_c, 0, 64, 76
1, 11281, Control_c, 0, 64, 0
1, 11696, Control_c, 0, 64, 29
1, 11711, Control_c, 0, 64, 60
1, 11726, Control_c, 0, 64, 71
1, 11740, Control_c, 0, 64, 87
1, 11755, Control_c, 0, 64, 127
1, 11791, Note_on_c, 0, 25, 85
1, 11791, Note_on_c, 0, 37, 94
1, 11900, Note_on_c, 0, 44, 93
1, 11905, Note_on_c, 0, 56, 86
1, 11953, Note_off_c, 0, 37, 57
1, 11956, Note_off_c, 0, 44, 63
1, 11959, Note_off_c, 0, 25, 51
1, 11994, Note_on_c, 0, 49, 85
1, 12013, Note_off_c, 0, 56, 60
1, 12108, Note_on_c, 0, 44, 87
1, 12129, Note_off_c, 0, 49, 60
1, 12162, Note_off_c, 0, 44, 64
1, 12223, Note_on_c, 0, 37, 83
1, 12308, Note_on_c, 0, 25, 79
1, 12328, Note_off_c, 0, 37, 61
1, 12359, Note_off_c, 0, 25, 62
1, 12546, Note_on_c, 0, 44, 60
1, 12613, Note_off_c, 0, 44, 52
1, 12708, Note_on_c, 0, 64, 82
1, 12721, Note_on_c, 0, 56, 48
1, 12729, Note_on_c, 0, 52, 60
1, 12759, Note_off_c, 0, 52, 61
1, 12815, Note_off_c, 0, 56, 34
1, 12841, Note_on_c, 0, 49, 57
1, 12927, Note_on_c, 0, 44, 58
1, 12928, Note_off_c, 0, 49, 61
1, 12961, Note_off_c, 0, 44, 63
1, 13053, Note_on_c, 0, 37, 61
1, 13101, Note_off_c, 0, 37, 57
1, 13110, Note_off_c, 0, 64, 53
1, 13122, Note_on_c, 0, 25, 67
1, 13156, Note_off_c, 0, 25, 65
1, 13302, Note_on_c, 0, 44, 66
1, 13348, Note_off_c, 0, 44, 52
1, 13399, Note_on_c, 0, 64, 94
1, 13405, Note_on_c, 0, 52, 89
1, 13407, Note_on_c, 0, 56, 76
1, 13453, Note_off_c, 0, 52, 63
1, 13502, Note_on_c, 0, 49, 65
1, 13509, Note_off_c, 0, 56, 59
1, 13587, Note_on_c, 0, 44, 69
1, 13604, Note_off_c, 0, 49, 63
1, 13629, Note_off_c, 0, 44, 60
1, 13716, Note_on_c, 0, 37, 85
1, 13790, Note_on_c, 0, 25, 81
1, 13808, Note_off_c, 0, 37, 59
1, 13837, Note_off_c, 0, 25, 64
1, 13854, Note_off_c, 0, 64, 46
1, 13956, Note_on_c, 0, 44, 79
1, 14020, Note_off_c, 0, 44, 60
1, 14052, Note_on_c, 0, 64, 96
1, 14055, Note_on_c, 0, 52, 94
1, 14056, Note_on_c, 0, 56, 88
1, 14106, Note_off_c, 0, 52, 65
1, 14171, Note_off_c, 0, 56, 58
1, 14176, Note_on_c, 0, 49, 69
1, 14271, Note_on_c, 0, 44, 74
1, 14289, Note_off_c, 0, 49, 64
1, 14318, Note_off_c, 0, 44, 62
1, 14392, Note_on_c, 0, 37, 91
1, 14485, Note_on_c, 0, 25, 86
1, 14505, Note_off_c, 0, 37, 63
1, 14529, Note_off_c, 0, 25, 65
1, 14630, Note_off_c, 0, 64, 50
1, 14667, Note_on_c, 0, 44, 69
1, 14745, Note_off_c, 0, 44, 56
1, 14781, Note_on_c, 0, 64, 98
1, 14783, Note_on_c, 0, 52, 94
1, 14788, Note_on_c, 0, 56, 90
1, 14854, Note_off_c, 0, 52, 58
1, 14910, Note_off_c, 0, 56, 56
1, 14924, Note_on_c, 0, 49, 74
1, 15039, Note_on_c, 0, 44, 73
1, 15061, Note_off_c, 0, 49, 62
1, 15098, Note_off_c, 0, 44, 62
1, 15185, Note_on_c, 0, 37, 94
1, 15351, Note_on_c, 0, 25, 80
1, 15402, Note_off_c, 0, 64, 61
1, 15414, Note_off_c, 0, 25, 63
1, 15432, Note_off_c, 0, 37, 60
1, 15556, Note_on_c, 0, 44, 75
1, 15741, Note_on_c, 0, 61, 105
1, 15749, Note_on_c, 0, 49, 92
1, 15751, Note_on_c, 0, 56, 91
1, 15754, Note_off_c, 0, 44, 35
1, 15788, Note_off_c, 0, 56, 65
1, 15876, Note_off_c, 0, 61, 60
1, 16045, Note_on_c, 0, 44, 80
1, 16061, Note_off_c, 0, 49, 52
1, 16127, Note_off_c, 0, 44, 60
1, 16267, Note_on_c, 0, 77, 87
1, 16279, Note_on_c, 0, 37, 71
1, 16288, Note_on_c, 0, 65, 61
1, 16290, Note_on_c, 0, 69, 60
1, 16335, Note_off_c, 0, 65, 58
1, 16351, Note_off_c, 0, 69, 52
1, 16372, Note_off_c, 0, 77, 61
1, 16474, Note_on_c, 0, 76, 86
1, 16482, Note_on_c, 0, 64, 76
1, 16492, Note_on_c, 0, 25, 68
1, 16492, Note_on_c, 0, 73, 63
1, 16525, Note_off_c, 0, 37, 40
1, 16610, Note_on_c, 0, 37, 71
1, 16643, Note_off_c, 0, 25, 39
1, 16650, Note_off_c, 0, 37, 61
1, 16777, Note_on_c, 0, 44, 69
1, 16813, Note_off_c, 0, 44, 58
1, 16919, Note_off_c, 0, 64, 34
1, 16925, Note_on_c, 0, 56, 82
1, 16951, Note_off_c, 0, 76, 62
1, 17073, Note_off_c, 0, 56, 56
1, 17079, Note_on_c, 0, 49, 68
1, 17100, Note_off_c, 0, 73, 37
1, 17164, Note_on_c, 0, 77, 75
1, 17172, Note_on_c, 0, 44, 67
1, 17179, Note_on_c, 0, 69, 62
1, 17179, Note_off_c, 0, 49, 62
1, 17183, Note_on_c, 0, 65, 54
1, 17200, Note_off_c, 0, 44, 66
1, 17210, Note_off_c, 0, 65, 62
1, 17211, Note_off_c, 0, 69, 67
1, 17217, Note_off_c, 0, 77, 61
1, 17294, Note_on_c, 0, 76, 82
1, 17301, Note_on_c, 0, 37, 67
1, 17303, Note_on_c, 0, 64, 75
1, 17307, Note_on_c, 0, 73, 65
1, 17360, Note_on_c, 0, 25, 74
1, 17367, Note_off_c, 0, 37, 58
1, 17405, Note_off_c, 0, 25, 63
1, 17534, Note_on_c, 0, 44, 77
1, 17546, Note_off_c, 0, 64, 49
1, 17584, Note_off_c, 0, 76, 52
1, 17599, Note_on_c, 0, 56, 84
1, 17608, Note_off_c, 0, 44, 49
1, 17674, Note_on_c, 0, 49, 69
1, 17700, Note_off_c, 0, 56, 59
1, 17704, Note_off_c, 0, 73, 49
1, 17741, Note_on_c, 0, 44, 70
1, 17754, Note_off_c, 0, 49, 64
1, 17766, Note_on_c, 0, 69, 69
1, 17766, Note_on_c, 0, 77, 75
1, 17773, Note_off_c, 0, 44, 65
1, 17781, Note_on_c, 0, 65, 53
1, 17793, Note_off_c, 0, 69, 70
1, 17795, Note_off_c, 0, 77, 60
1, 17809, Note_off_c, 0, 65, 64
1, 17867, Note_on_c, 0, 37, 80
1, 17869, Note_on_c, 0, 76, 91
1, 17875, Note_on_c, 0, 64, 87
1, 17888, Note_on_c, 0, 73, 69
1, 17918, Note_on_c, 0, 25, 82
1, 17931, Note_off_c, 0, 37, 62
1, 17965, Note_off_c, 0, 25, 64
1, 18087, Note_on_c, 0, 44, 73
1, 18100, Note_off_c, 0, 64, 54
1, 18126, Note_off_c, 0, 76, 59
1, 18142, Note_on_c, 0, 56, 87
1, 18151, Note_off_c, 0, 44, 43
1, 18210, Note_on_c, 0, 49, 70
1, 18225, Note_off_c, 0, 56, 62
1, 18243, Note_off_c, 0, 73, 56
1, 18268, Note_on_c, 0, 44, 73
1, 18284, Note_off_c, 0, 49, 64
1, 18302, Note_on_c, 0, 77, 72
1, 18304, Note_on_c, 0, 69, 63
1, 18306, Note_off_c, 0, 44, 61
1, 18315, Note_on_c, 0, 65, 57
1, 18323, Note_off_c, 0, 69, 67
1, 18326, Note_off_c, 0, 77, 67
1, 18335, Note_off_c, 0, 65, 64
1, 18391, Note_on_c, 0, 76, 94
1, 18392, Note_on_c, 0, 37, 76
1, 18397, Note_on_c, 0, 64, 87
1, 18404, Note_on_c, 0, 73, 74
1, 18430, Note_on_c, 0, 25, 82
1, 18440, Note_off_c, 0, 37, 62
1, 18473, Note_off_c, 0, 25, 63
1, 18518, Poly_aftertouch_c, 0, 24, 127
1, 18560, Poly_aftertouch_c, 0, 24, 0
1, 18609, Note_on_c, 0, 44, 78
1, 18657, Note_off_c, 0, 44, 49
1, 18690, Note_off_c, 0, 64, 52
1, 18691, Note_on_c, 0, 56, 96
1, 18739, Note_off_c, 0, 76, 54
1, 18813, Note_off_c, 0, 56, 57
1, 18817, Note_on_c, 0, 49, 63
1, 18821, Note_off_c, 0, 73, 38
1, 18906, Note_on_c, 0, 44, 63
1, 18912, Note_off_c, 0, 49, 62
1, 18914, Note_on_c, 0, 77, 73
1, 18932, Note_off_c, 0, 44, 63
1, 18935, Note_on_c, 0, 69, 48
1, 18944, Note_on_c, 0, 65, 45
1, 18971, Note_off_c, 0, 69, 51
1, 18976, Note_off_c, 0, 65, 53
1, 18987, Note_off_c, 0, 77, 59
1, 19046, Note_on_c, 0, 37, 65
1, 19099, Note_off_c, 0, 37, 56
1, 19111, Note_on_c, 0, 25, 72
1, 19114, Note_on_c, 0, 76, 71
1, 19119, Note_on_c, 0, 64, 67
1, 19129, Note_on_c, 0, 73, 60
1, 19152, Note_off_c, 0, 25, 65
1, 19156, Note_off_c, 0, 64, 57
1, 19173, Note_off_c, 0, 73, 53
1, 19176, Note_off_c, 0, 76, 65
1, 19264, Note_on_c, 0, 77, 78
1, 19272, Note_on_c, 0, 69, 62
1, 19273, Note_on_c, 0, 65, 60
1, 19294, Note_off_c, 0, 69, 64
1, 19310, Note_off_c, 0, 65, 58
1, 19319, Note_on_c, 0, 44, 43
1, 19326, Note_off_c, 0, 77, 58
1, 19346, Note_on_c, 0, 56, 75
1, 19349, Note_off_c, 0, 44, 53
1, 19403, Note_on_c, 0, 49, 77
1, 19408, Note_on_c, 0, 76, 79
1, 19409, Note_on_c, 0, 73, 78
1, 19409, Note_on_c, 0, 64, 76
1, 19414, Note_off_c, 0, 56, 63
1, 19438, Note_on_c, 0, 44, 72
1, 19438, Note_off_c, 0, 64, 65
1, 19453, Note_off_c, 0, 49, 64
1, 19457, Note_off_c, 0, 76, 64
1, 19463, Note_off_c, 0, 73, 60
1, 19474, Note_off_c, 0, 44, 62
1, 19528, Note_on_c, 0, 77, 82
1, 19533, Note_on_c, 0, 69, 75
1, 19535, Note_on_c, 0, 65, 73
1, 19551, Note_off_c, 0, 69, 70
1, 19561, Note_off_c, 0, 65, 70
1, 19572, Note_on_c, 0, 37, 66
1, 19572, Note_off_c, 0, 77, 55
1, 19590, Note_on_c, 0, 25, 75
1, 19599, Note_off_c, 0, 37, 64
1, 19640, Note_off_c, 0, 25, 64
1, 19644, Note_on_c, 0, 64, 83
1, 19644, Note_on_c, 0, 76, 83
1, 19649, Note_on_c, 0, 73, 72
1, 19671, Note_off_c, 0, 64, 66
1, 19673, Poly_aftertouch_c, 0, 24, 127
1, 19677, Note_off_c, 0, 73, 62
1, 19691, Note_off_c, 0, 76, 65
1, 19712, Poly_aftertouch_c, 0, 24, 0
1, 19752, Note_on_c, 0, 77, 84
1, 19756, Note_on_c, 0, 69, 74
1, 19768, Note_on_c, 0, 65, 59
1, 19783, Note_on_c, 0, 44, 45
1, 19784, Note_off_c, 0, 69, 68
1, 19785, Note_off_c, 0, 65, 67
1, 19798, Note_on_c, 0, 56, 78
1, 19802, Note_off_c, 0, 77, 60
1, 19812, Note_off_c, 0, 44, 61
1, 19856, Note_on_c, 0, 49, 73
1, 19871, Note_on_c, 0, 76, 82
1, 19871, Note_on_c, 0, 64, 80
1, 19874, Note_on_c, 0, 73, 69
1, 19875, Note_off_c, 0, 56, 63
1, 19894, Note_off_c, 0, 64, 66
1, 19899, Note_on_c, 0, 44, 72
1, 19911, Note_off_c, 0, 49, 64
1, 19921, Note_off_c, 0, 73, 49
1, 19921, Note_off_c, 0, 76, 65
1, 19930, Note_off_c, 0, 44, 64
1, 19993, Note_on_c, 0, 77, 83
1, 19999, Note_on_c, 0, 69, 58
1, 20005, Note_on_c, 0, 65, 58
1, 20023, Note_off_c, 0, 65, 64
1, 20024, Note_off_c, 0, 69, 53
1, 20049, Note_off_c, 0, 77, 59
1, 20058, Note_on_c, 0, 37, 50
1, 20060, Note_on_c, 0, 25, 76
1, 20090, Note_off_c, 0, 37, 53
1, 20109, Note_off_c, 0, 25, 63
1, 20133, Note_on_c, 0, 64, 72
1, 20141, Note_on_c, 0, 73, 61
1, 20144, Note_on_c, 0, 76, 65
1, 20153, Note_on_c, 0, 69, 40
1, 20164, Note_off_c, 0, 64, 64
1, 20174, Note_off_c, 0, 76, 68
1, 20180, Note_off_c, 0, 69, 58
1, 20180, Note_off_c, 0, 73, 62
1, 20239, Note_on_c, 0, 44, 59
1, 20252, Note_on_c, 0, 77, 89
1, 20265, Note_on_c, 0, 65, 66
1, 20295, Note_off_c, 0, 65, 65
1, 20327, Note_off_c, 0, 77, 59
1, 20354, Note_off_c, 0, 44, 35
1, 20402, Note_on_c, 0, 76, 98
1, 20405, Note_on_c, 0, 56, 83
1, 20411, Note_on_c, 0, 49, 76
1, 20411, Note_on_c, 0, 52, 80
1, 20411, Note_on_c, 0, 73, 77
1, 20412, Note_on_c, 0, 64, 83
1, 20434, Note_off_c, 0, 64, 70
1, 20435, Note_off_c, 0, 73, 66
1, 20445, Note_off_c, 0, 56, 63
1, 20458, Note_off_c, 0, 52, 65
1, 20467, Note_off_c, 0, 49, 62
1, 20533, Note_off_c, 0, 76, 61
1, 21059, Control_c, 0, 64, 83
1, 21074, Control_c, 0, 64, 50
1, 21089, Control_c, 0, 64, 0
1, 21956, Control_c, 0, 64, 34
1, 21959, Note_on_c, 0, 64, 103
1, 21968, Note_on_c, 0, 40, 78
1, 21969, Note_on_c, 0, 52, 93
1, 21971, Control_c, 0, 64, 58
1, 21986, Control_c, 0, 64, 68
1, 22001, Control_c, 0, 64, 80
1, 22015, Control_c, 0, 64, 127
1, 22144, Note_off_c, 0, 40, 61
1, 22161, Note_off_c, 0, 64, 60
1, 22177, Note_off_c, 0, 52, 61
1, 22501, Note_on_c, 0, 61, 83
1, 22507, Note_on_c, 0, 73, 72
1, 22508, Note_on_c, 0, 56, 76
1, 22512, Note_on_c, 0, 49, 74
1, 22515, Note_on_c, 0, 68, 65
1, 22524, Note_off_c, 0, 61, 65
1, 22532, Note_off_c, 0, 56, 66
1, 22532, Note_off_c, 0, 73, 68
1, 22536, Note_off_c, 0, 68, 66
1, 22541, Note_off_c, 0, 49, 64
1, 22572, Note_on_c, 0, 73, 101
1, 22577, Note_on_c, 0, 56, 83
1, 22579, Note_on_c, 0, 61, 90
1, 22586, Note_on_c, 0, 49, 84
1, 22594, Note_on_c, 0, 68, 73
1, 22623, Note_off_c, 0, 68, 63
1, 22631, Note_off_c, 0, 61, 61
1, 22637, Note_off_c, 0, 56, 59
1, 22650, Note_off_c, 0, 73, 62
1, 22673, Note_off_c, 0, 49, 53
1, 22982, Note_on_c, 0, 41, 55
1, 22986, Control_c, 0, 64, 116
1, 22988, Note_on_c, 0, 53, 61
1, 23001, Control_c, 0, 64, 84
1, 23015, Control_c, 0, 64, 61
1, 23030, Note_on_c, 0, 42, 55
1, 23031, Note_off_c, 0, 41, 60
1, 23031, Control_c, 0, 64, 0
1, 23032, Note_on_c, 0, 54, 62
1, 23051, Note_on_c, 0, 44, 70
1, 23054, Note_off_c, 0, 53, 60
1, 23076, Note_on_c, 0, 56, 62
1, 23081, Note_off_c, 0, 42, 62
1, 23093, Note_off_c, 0, 44, 62
1, 23102, Note_off_c, 0, 54, 61
1, 23131, Note_off_c, 0, 56, 60
1, 23167, Note_on_c, 0, 57, 93
1, 23176, Note_on_c, 0, 45, 97
1, 23188, Note_on_c, 0, 33, 84
1, 23216, Control_c, 0, 64, 55
1, 23231, Control_c, 0, 64, 77
1, 23239, Note_off_c, 0, 57, 66
1, 23242, Note_off_c, 0, 33, 65
1, 23246, Control_c, 0, 64, 112
1, 23260, Control_c, 0, 64, 127
1, 23261, Note_off_c, 0, 45, 62
1, 23586, Note_on_c, 0, 85, 97
1, 23600, Note_on_c, 0, 73, 65
1, 23600, Note_on_c, 0, 76, 70
1, 23600, Note_on_c, 0, 81, 73
1, 23603, Note_on_c, 0, 64, 77
1, 23604, Note_on_c, 0, 61, 76
1, 23606, Note_on_c, 0, 52, 80
1, 23609, Note_on_c, 0, 57, 71
1, 23618, Note_off_c, 0, 73, 67
1, 23626, Note_off_c, 0, 76, 70
1, 23628, Note_off_c, 0, 64, 69
1, 23649, Note_off_c, 0, 61, 61
1, 23651, Note_off_c, 0, 81, 61
1, 23671, Note_off_c, 0, 57, 61
1, 23681, Note_off_c, 0, 52, 64
1, 23681, Note_off_c, 0, 85, 68
1, 24084, Control_c, 0, 64, 104
1, 24099, Control_c, 0, 64, 68
1, 24114, Control_c, 0, 64, 0
1, 24709, Note_on_c, 0, 73, 106
1, 24709, Note_on_c, 0, 61, 99
1, 24716, Note_on_c, 0, 49, 79
1, 24759, Control_c, 0, 64, 41
1, 24774, Control_c, 0, 64, 63
1, 24789, Control_c, 0, 64, 75
1, 24804, Control_c, 0, 64, 96
1, 24819, Control_c, 0, 64, 127
1, 24944, Note_off_c, 0, 61, 58
1, 24967, Note_off_c, 0, 73, 56
1, 25066, Note_off_c, 0, 49, 31
1, 25249, Note_on_c, 0, 64, 80
1, 25250, Note_on_c, 0, 76, 82
1, 25254, Note_on_c, 0, 52, 78
1, 25256, Note_on_c, 0, 69, 73
1, 25258, Note_on_c, 0, 57, 68
1, 25275, Note_off_c, 0, 64, 66
1, 25278, Note_off_c, 0, 76, 64
1, 25279, Note_off_c, 0, 52, 70
1, 25280, Note_off_c, 0, 69, 72
1, 25285, Note_off_c, 0, 57, 66
1, 25326, Note_on_c, 0, 76, 89
1, 25330, Note_on_c, 0, 64, 70
1, 25335, Note_on_c, 0, 69, 85
1, 25341, Note_on_c, 0, 52, 78
1, 25344, Note_on_c, 0, 57, 69
1, 25354, Note_off_c, 0, 64, 69
1, 25375, Note_off_c, 0, 57, 58
1, 25379, Note_off_c, 0, 69, 63
1, 25391, Note_off_c, 0, 52, 60
1, 25406, Note_off_c, 0, 76, 66
1, 25715, Control_c, 0, 64, 99
1, 25730, Control_c, 0, 64, 73
1, 25732, Note_on_c, 0, 63, 61
1, 25734, Note_on_c, 0, 51, 58
1, 25745, Control_c, 0, 64, 43
1, 25760, Control_c, 0, 64, 0
1, 25767, Note_on_c, 0, 52, 60
1, 25780, Note_on_c, 0, 64, 65
1, 25802, Note_off_c, 0, 63, 59
1, 25809, Note_off_c, 0, 52, 63
1, 25811, Note_on_c, 0, 54, 59
1, 25813, Note_off_c, 0, 51, 58
1, 25824, Note_on_c, 0, 66, 68
1, 25837, Note_off_c, 0, 64, 65
1, 25841, Note_off_c, 0, 54, 65
1, 25883, Note_off_c, 0, 66, 64
1, 25904, Note_on_c, 0, 67, 103
1, 25917, Note_on_c, 0, 55, 90
1, 25928, Note_on_c, 0, 43, 77
1, 25967, Control_c, 0, 64, 65
1, 25981, Note_off_c, 0, 43, 61
1, 25981, Note_off_c, 0, 67, 63
1, 25981, Control_c, 0, 64, 84
1, 25996, Control_c, 0, 64, 127
1, 26004, Note_off_c, 0, 55, 62
1, 26318, Note_on_c, 0, 88, 106
1, 26328, Note_on_c, 0, 61, 85
1, 26336, Note_on_c, 0, 76, 74
1, 26339, Note_on_c, 0, 71, 72
1, 26340, Note_on_c, 0, 64, 70
1, 26345, Note_on_c, 0, 85, 59
1, 26351, Note_off_c, 0, 76, 70
1, 26362, Note_off_c, 0, 71, 66
1, 26362, Note_off_c, 0, 85, 62
1, 26371, Note_off_c, 0, 64, 63
1, 26404, Note_off_c, 0, 61, 63
1, 26432, Note_off_c, 0, 88, 57
1, 26811, Control_c, 0, 64, 79
1, 26826, Control_c, 0, 64, 44
1, 26841, Control_c, 0, 64, 0
1, 27168, Control_c, 0, 64, 50
1, 27183, Control_c, 0, 64, 67
1, 27191, Note_on_c, 0, 47, 56
1, 27198, Control_c, 0, 64, 83
1, 27202, Note_on_c, 0, 59, 53
1, 27209, Note_on_c, 0, 71, 70
1, 27213, Control_c, 0, 64, 127
1, 27216, Note_off_c, 0, 47, 61
1, 27241, Note_off_c, 0, 59, 63
1, 27276, Note_off_c, 0, 71, 53
1, 27290, Note_on_c, 0, 76, 67
1, 27335, Note_on_c, 0, 79, 68
1, 27343, Note_on_c, 0, 64, 60
1, 27345, Control_c, 0, 64, 106
1, 27356, Note_off_c, 0, 76, 64
1, 27360, Control_c, 0, 64, 80
1, 27375, Control_c, 0, 64, 60
1, 27379, Note_on_c, 0, 67, 38
1, 27379, Note_off_c, 0, 64, 60
1, 27390, Control_c, 0, 64, 0
1, 27396, Note_on_c, 0, 83, 96
1, 27397, Note_on_c, 0, 71, 86
1, 27403, Note_on_c, 0, 59, 79
1, 27408, Note_off_c, 0, 67, 56
1, 27413, Note_off_c, 0, 79, 63
1, 27708, Control_c, 0, 64, 26
1, 27723, Control_c, 0, 64, 56
1, 27738, Control_c, 0, 64, 67
1, 27750, Note_off_c, 0, 71, 59
1, 27752, Control_c, 0, 64, 77
1, 27767, Control_c, 0, 64, 95
1, 27773, Note_off_c, 0, 59, 63
1, 27782, Control_c, 0, 64, 127
1, 27804, Note_off_c, 0, 83, 61
1, 28075, Note_on_c, 0, 89, 94
1, 28086, Note_on_c, 0, 63, 80
1, 28086, Note_on_c, 0, 80, 78
1, 28101, Note_on_c, 0, 77, 55
1, 28107, Note_on_c, 0, 68, 60
1, 28107, Note_on_c, 0, 75, 47
1, 28110, Note_off_c, 0, 80, 66
1, 28113, Note_on_c, 0, 65, 61
1, 28123, Note_off_c, 0, 77, 57
1, 28130, Note_off_c, 0, 75, 57
1, 28143, Note_off_c, 0, 68, 60
1, 28175, Note_off_c, 0, 65, 58
1, 28210, Note_off_c, 0, 89, 58
1, 28250, Note_off_c, 0, 63, 59
1, 28754, Control_c, 0, 64, 120
1, 28769, Control_c, 0, 64, 94
1, 28775, Note_on_c, 0, 82, 104
1, 28780, Note_on_c, 0, 58, 83
1, 28784, Control_c, 0, 64, 76
1, 28786, Note_on_c, 0, 70, 86
1, 28798, Control_c, 0, 64, 60
1, 28813, Control_c, 0, 64, 0
1, 29021, Control_c, 0, 64, 49
1, 29043, Control_c, 0, 64, 61
1, 29058, Control_c, 0, 64, 67
1, 29073, Control_c, 0, 64, 74
1, 29088, Control_c, 0, 64, 87
1, 29102, Control_c, 0, 64, 116
1, 29111, Note_off_c, 0, 58, 61
1, 29115, Note_off_c, 0, 70, 59
1, 29117, Control_c, 0, 64, 127
1, 29135, Note_off_c, 0, 82, 57
1, 29471, Note_on_c, 0, 91, 104
1, 29483, Note_on_c, 0, 61, 85
1, 29484, Note_on_c, 0, 79, 81
1, 29486, Note_on_c, 0, 85, 71
1, 29490, Note_on_c, 0, 73, 79
1, 29492, Note_on_c, 0, 67, 71
1, 29495, Note_on_c, 0, 63, 67
1, 29498, Note_on_c, 0, 87, 53
1, 29504, Note_off_c, 0, 79, 69
1, 29509, Note_off_c, 0, 85, 66
1, 29520, Note_off_c, 0, 87, 54
1, 29538, Note_off_c, 0, 73, 63
1, 29575, Note_off_c, 0, 67, 56
1, 29633, Note_off_c, 0, 63, 53
1, 29636, Note_off_c, 0, 91, 56
1, 29679, Note_off_c, 0, 61, 56
1, 29925, Control_c, 0, 64, 105
1, 29940, Control_c, 0, 64, 80
1, 29955, Control_c, 0, 64, 61
1, 29970, Control_c, 0, 64, 0
1, 30003, Note_on_c, 0, 56, 63
1, 30057, Note_on_c, 0, 63, 63
1, 30099, Note_off_c, 0, 56, 61
1, 30103, Control_c, 0, 64, 51
1, 30118, Control_c, 0, 64, 67
1, 30133, Control_c, 0, 64, 78
1, 30135, Note_on_c, 0, 80, 95
1, 30139, Note_on_c, 0, 68, 91
1, 30145, Note_on_c, 0, 71, 67
1, 30147, Control_c, 0, 64, 99
1, 30149, Note_off_c, 0, 63, 60
1, 30156, Note_on_c, 0, 75, 68
1, 30160, Note_off_c, 0, 68, 70
1, 30162, Control_c, 0, 64, 127
1, 30175, Note_off_c, 0, 71, 61
1, 30178, Note_off_c, 0, 75, 66
1, 30207, Note_off_c, 0, 80, 66
1, 30379, Note_on_c, 0, 68, 71
1, 30457, Note_on_c, 0, 75, 70
1, 30477, Note_off_c, 0, 68, 61
1, 30674, Note_off_c, 0, 75, 60
1, 30684, Note_on_c, 0, 92, 108
1, 30688, Note_on_c, 0, 80, 100
1, 30690, Note_on_c, 0, 83, 89
1, 30697, Note_on_c, 0, 87, 80
1, 30724, Note_off_c, 0, 83, 67
1, 31228, Note_off_c, 0, 80, 48
1, 31752, Note_off_c, 0, 92, 49
1, 31851, Note_off_c, 0, 87, 57
1, 32187, Control_c, 0, 64, 92
1, 32202, Control_c, 0, 64, 70
1, 32216, Control_c, 0, 64, 41
1, 32231, Control_c, 0, 64, 0
1, 32355, Note_on_c, 0, 76, 78
1, 32363, Note_on_c, 0, 88, 78
1, 32379, Control_c, 0, 64, 53
1, 32394, Control_c, 0, 64, 69
1, 32408, Control_c, 0, 64, 79
1, 32423, Note_on_c, 0, 75, 73
1, 32423, Control_c, 0, 64, 96
1, 32427, Note_on_c, 0, 87, 80
1, 32430, Note_off_c, 0, 76, 60
1, 32436, Note_off_c, 0, 88, 61
1, 32438, Control_c, 0, 64, 127
1, 32471, Note_on_c, 0, 85, 74
1, 32479, Note_on_c, 0, 73, 70
1, 32483, Note_off_c, 0, 75, 61
1, 32489, Note_off_c, 0, 87, 64
1, 32504, Note_off_c, 0, 73, 69
1, 32527, Note_off_c, 0, 85, 64
1, 32535, Note_on_c, 0, 83, 65
1, 32566, Note_on_c, 0, 71, 72
1, 32608, Note_on_c, 0, 82, 77
1, 32608, Note_off_c, 0, 83, 61
1, 32619, Note_off_c, 0, 71, 60
1, 32620, Note_on_c, 0, 70, 69
1, 32666, Note_on_c, 0, 80, 76
1, 32674, Note_off_c, 0, 82, 62
1, 32677, Note_on_c, 0, 68, 64
1, 32680, Note_off_c, 0, 70, 64
1, 32715, Note_off_c, 0, 80, 64
1, 32730, Note_off_c, 0, 68, 62
1, 32734, Note_on_c, 0, 79, 72
1, 32741, Note_on_c, 0, 67, 66
1, 32796, Note_off_c, 0, 79, 63
1, 32801, Note_on_c, 0, 80, 76
1, 32803, Note_on_c, 0, 68, 63
1, 32814, Note_off_c, 0, 67, 61
1, 32824, Note_off_c, 0, 80, 69
1, 32860, Note_off_c, 0, 68, 63
1, 32899, Note_on_c, 0, 76, 64
1, 32911, Note_on_c, 0, 88, 75
1, 32957, Note_off_c, 0, 76, 58
1, 32977, Note_on_c, 0, 75, 67
1, 32980, Note_on_c, 0, 87, 68
1, 32982, Note_off_c, 0, 88, 62
1, 33024, Note_on_c, 0, 85, 75
1, 33031, Note_off_c, 0, 75, 62
1, 33035, Note_on_c, 0, 73, 63
1, 33040, Note_off_c, 0, 87, 63
1, 33061, Note_off_c, 0, 73, 68
1, 33079, Note_off_c, 0, 85, 64
1, 33083, Note_on_c, 0, 83, 63
1, 33120, Note_on_c, 0, 71, 69
1, 33156, Note_off_c, 0, 83, 58
1, 33165, Note_on_c, 0, 82, 76
1, 33177, Note_off_c, 0, 71, 59
1, 33182, Note_on_c, 0, 70, 68
1, 33221, Note_on_c, 0, 68, 64
1, 33230, Note_on_c, 0, 80, 73
1, 33241, Note_off_c, 0, 70, 62
1, 33250, Note_off_c, 0, 82, 59
1, 33277, Note_on_c, 0, 66, 63
1, 33278, Note_off_c, 0, 68, 63
1, 33279, Note_on_c, 0, 78, 83
1, 33297, Note_off_c, 0, 80, 64
1, 33300, Note_off_c, 0, 66, 67
1, 33335, Note_off_c, 0, 78, 64
1, 33345, Note_on_c, 0, 76, 69
1, 33356, Note_on_c, 0, 64, 75
1, 33407, Note_off_c, 0, 76, 60
1, 33416, Note_off_c, 0, 64, 62
1, 33424, Note_on_c, 0, 63, 71
1, 33424, Note_on_c, 0, 75, 74
1, 33479, Note_off_c, 0, 63, 60
1, 33485, Note_on_c, 0, 61, 62
1, 33488, Note_on_c, 0, 73, 79
1, 33492, Note_off_c, 0, 75, 63
1, 33512, Note_off_c, 0, 61, 64
1, 33547, Note_off_c, 0, 73, 64
1, 33560, Note_on_c, 0, 71, 70
1, 33574, Note_on_c, 0, 59, 63
1, 33610, Control_c, 0, 64, 88
1, 33623, Note_off_c, 0, 71, 53
1, 33624, Note_off_c, 0, 59, 60
1, 33625, Control_c, 0, 64, 68
1, 33626, Note_on_c, 0, 58, 69
1, 33626, Note_on_c, 0, 70, 77
1, 33640, Control_c, 0, 64, 28
1, 33655, Control_c, 0, 64, 0
1, 33690, Note_on_c, 0, 57, 56
1, 33693, Note_on_c, 0, 69, 68
1, 33696, Note_off_c, 0, 58, 60
1, 33711, Note_off_c, 0, 70, 64
1, 33761, Note_on_c, 0, 56, 62
1, 33761, Note_on_c, 0, 68, 81
1, 33768, Note_off_c, 0, 69, 67
1, 33778, Note_off_c, 0, 57, 62
1, 33803, Control_c, 0, 64, 63
1, 33816, Note_off_c, 0, 68, 66
1, 33818, Control_c, 0, 64, 77
1, 33830, Note_on_c, 0, 67, 81
1, 33833, Note_off_c, 0, 56, 60
1, 33833, Control_c, 0, 64, 100
1, 33848, Control_c, 0, 64, 127
1, 33848, Note_on_c, 0, 55, 67
1, 33892, Note_off_c, 0, 67, 59
1, 33896, Note_on_c, 0, 56, 60
1, 33911, Note_on_c, 0, 68, 69
1, 33921, Note_off_c, 0, 55, 59
1, 33931, Note_off_c, 0, 68, 63
1, 33955, Note_off_c, 0, 56, 61
1, 33976, Note_on_c, 0, 64, 67
1, 34000, Note_on_c, 0, 76, 74
1, 34042, Note_off_c, 0, 64, 60
1, 34052, Note_on_c, 0, 63, 68
1, 34069, Note_on_c, 0, 75, 76
1, 34081, Note_off_c, 0, 76, 64
1, 34115, Note_off_c, 0, 63, 60
1, 34117, Note_on_c, 0, 61, 71
1, 34125, Note_on_c, 0, 73, 76
1, 34139, Note_off_c, 0, 75, 63
1, 34144, Note_off_c, 0, 61, 65
1, 34175, Note_off_c, 0, 73, 66
1, 34185, Note_on_c, 0, 71, 67
1, 34206, Note_on_c, 0, 59, 71
1, 34247, Note_off_c, 0, 71, 53
1, 34263, Note_on_c, 0, 70, 76
1, 34271, Note_off_c, 0, 59, 62
1, 34274, Note_on_c, 0, 58, 69
1, 34335, Note_on_c, 0, 68, 74
1, 34340, Note_on_c, 0, 56, 58
1, 34352, Note_off_c, 0, 58, 61
1, 34357, Note_off_c, 0, 70, 61
1, 34382, Note_on_c, 0, 54, 61
1, 34388, Note_off_c, 0, 56, 60
1, 34389, Note_on_c, 0, 66, 76
1, 34405, Note_off_c, 0, 68, 64
1, 34410, Note_off_c, 0, 54, 64
1, 34441, Note_off_c, 0, 66, 67
1, 34450, Note_on_c, 0, 64, 72
1, 34468, Note_on_c, 0, 52, 76
1, 34514, Note_off_c, 0, 64, 57
1, 34526, Note_on_c, 0, 63, 77
1, 34533, Note_off_c, 0, 52, 63
1, 34595, Note_on_c, 0, 61, 75
1, 34600, Note_off_c, 0, 63, 61
1, 34615, Note_on_c, 0, 49, 47
1, 34643, Note_off_c, 0, 49, 53
1, 34649, Note_off_c, 0, 61, 60
1, 34659, Note_on_c, 0, 59, 73
1, 34682, Note_on_c, 0, 47, 71
1, 34685, Control_c, 0, 64, 92
1, 34700, Control_c, 0, 64, 71
1, 34715, Control_c, 0, 64, 45
1, 34721, Note_off_c, 0, 59, 52
1, 34729, Note_on_c, 0, 58, 73
1, 34729, Control_c, 0, 64, 0
1, 34735, Note_off_c, 0, 47, 60
1, 34745, Note_on_c, 0, 46, 67
1, 34806, Note_on_c, 0, 57, 68
1, 34809, Note_off_c, 0, 58, 65
1, 34812, Note_off_c, 0, 46, 58
1, 34823, Note_on_c, 0, 45, 53
1, 34878, Note_off_c, 0, 57, 63
1, 34881, Note_on_c, 0, 56, 71
1, 34888, Note_on_c, 0, 44, 64
1, 34892, Note_off_c, 0, 45, 64
1, 34936, Note_off_c, 0, 56, 62
1, 34936, Control_c, 0, 64, 11
1, 34951, Control_c, 0, 64, 62
1, 34960, Note_on_c, 0, 55, 66
1, 34962, Note_off_c, 0, 44, 61
1, 34966, Control_c, 0, 64, 74
1, 34975, Note_on_c, 0, 43, 58
1, 34981, Control_c, 0, 64, 95
1, 34996, Control_c, 0, 64, 127
1, 35014, Note_on_c, 0, 44, 52
1, 35041, Note_on_c, 0, 56, 74
1, 35043, Note_off_c, 0, 55, 59
1, 35047, Note_off_c, 0, 43, 56
1, 35082, Note_off_c, 0, 44, 59
1, 35100, Note_off_c, 0, 56, 62
1, 35106, Note_on_c, 0, 52, 63
1, 35112, Note_on_c, 0, 64, 72
1, 35155, Note_off_c, 0, 52, 54
1, 35164, Note_on_c, 0, 51, 70
1, 35166, Note_on_c, 0, 63, 73
1, 35200, Note_off_c, 0, 64, 63
1, 35208, Note_on_c, 0, 49, 63
1, 35209, Note_on_c, 0, 61, 72
1, 35244, Note_off_c, 0, 51, 60
1, 35254, Note_off_c, 0, 63, 60
1, 35266, Note_on_c, 0, 59, 71
1, 35267, Note_on_c, 0, 47, 67
1, 35270, Note_off_c, 0, 49, 63
1, 35282, Note_off_c, 0, 61, 60
1, 35303, Note_off_c, 0, 47, 64
1, 35305, Note_off_c, 0, 59, 59
1, 35392, Note_on_c, 0, 41, 68
1, 35392, Note_on_c, 0, 53, 71
1, 35442, Note_on_c, 0, 42, 64
1, 35448, Note_on_c, 0, 54, 66
1, 35451, Note_off_c, 0, 53, 63
1, 35463, Note_off_c, 0, 41, 61
1, 35478, Control_c, 0, 64, 90
1, 35488, Note_off_c, 0, 42, 59
1, 35493, Control_c, 0, 64, 68
1, 35504, Note_off_c, 0, 54, 62
1, 35508, Control_c, 0, 64, 0
1, 35512, Note_on_c, 0, 62, 69
1, 35523, Note_on_c, 0, 50, 67
1, 35567, Control_c, 0, 64, 40
1, 35577, Note_on_c, 0, 61, 65
1, 35578, Note_off_c, 0, 50, 55
1, 35582, Note_on_c, 0, 49, 68
1, 35582, Control_c, 0, 64, 64
1, 35597, Control_c, 0, 64, 79
1, 35610, Note_off_c, 0, 62, 61
1, 35612, Control_c, 0, 64, 127
1, 35634, Note_on_c, 0, 59, 49
1, 35642, Note_on_c, 0, 47, 66
1, 35660, Note_off_c, 0, 49, 62
1, 35679, Note_on_c, 0, 57, 65
1, 35680, Note_off_c, 0, 61, 59
1, 35685, Note_on_c, 0, 45, 60
1, 35693, Note_off_c, 0, 47, 62
1, 35696, Note_off_c, 0, 59, 62
1, 35708, Note_off_c, 0, 57, 65
1, 35714, Note_off_c, 0, 45, 66
1, 35813, Note_on_c, 0, 52, 67
1, 35821, Note_on_c, 0, 40, 60
1, 35875, Note_off_c, 0, 40, 60
1, 35880, Note_off_c, 0, 52, 62
1, 35884, Note_on_c, 0, 54, 66
1, 35895, Note_on_c, 0, 42, 50
1, 35921, Note_on_c, 0, 49, 74
1, 35941, Note_on_c, 0, 61, 72
1, 35956, Note_off_c, 0, 42, 54
1, 35958, Note_off_c, 0, 54, 60
1, 35997, Note_on_c, 0, 59, 63
1, 36000, Note_on_c, 0, 47, 65
1, 36000, Note_off_c, 0, 49, 59
1, 36021, Note_off_c, 0, 61, 60
1, 36032, Note_off_c, 0, 47, 65
1, 36049, Note_off_c, 0, 59, 62
1, 36111, Note_on_c, 0, 45, 76
1, 36114, Note_on_c, 0, 57, 81
1, 36153, Control_c, 0, 64, 100
1, 36168, Control_c, 0, 64, 73
1, 36178, Note_off_c, 0, 45, 59
1, 36179, Note_on_c, 0, 44, 64
1, 36182, Control_c, 0, 64, 0
1, 36192, Note_on_c, 0, 56, 70
1, 36215, Note_off_c, 0, 57, 60
1, 36234, Note_on_c, 0, 42, 63
1, 36255, Note_on_c, 0, 54, 67
1, 36257, Control_c, 0, 64, 50
1, 36267, Note_off_c, 0, 44, 62
1, 36272, Control_c, 0, 64, 69
1, 36277, Note_off_c, 0, 56, 64
1, 36287, Control_c, 0, 64, 85
1, 36301, Control_c, 0, 64, 127
1, 36303, Note_on_c, 0, 40, 62
1, 36304, Note_on_c, 0, 52, 80
1, 36307, Note_off_c, 0, 42, 63
1, 36327, Note_off_c, 0, 54, 59
1, 36344, Note_off_c, 0, 40, 62
1, 36355, Note_off_c, 0, 52, 61
1, 36422, Note_on_c, 0, 38, 71
1, 36432, Note_on_c, 0, 50, 79
1, 36475, Note_on_c, 0, 39, 67
1, 36499, Note_on_c, 0, 51, 73
1, 36500, Note_off_c, 0, 50, 58
1, 36506, Note_off_c, 0, 38, 61
1, 36564, Note_off_c, 0, 39, 60
1, 36574, Note_off_c, 0, 51, 61
1, 36576, Note_on_c, 0, 47, 75
1, 36583, Note_on_c, 0, 59, 69
1, 36647, Note_on_c, 0, 58, 77
1, 36659, Note_on_c, 0, 46, 73
1, 36659, Note_off_c, 0, 47, 60
1, 36671, Note_off_c, 0, 59, 62
1, 36708, Note_on_c, 0, 44, 67
1, 36722, Note_on_c, 0, 56, 74
1, 36731, Note_off_c, 0, 46, 59
1, 36754, Note_off_c, 0, 58, 62
1, 36776, Note_on_c, 0, 54, 75
1, 36778, Note_off_c, 0, 44, 63
1, 36780, Note_on_c, 0, 42, 64
1, 36797, Note_off_c, 0, 56, 64
1, 36805, Note_off_c, 0, 42, 65
1, 36844, Note_off_c, 0, 54, 64
1, 36846, Note_on_c, 0, 52, 72
1, 36871, Note_on_c, 0, 40, 75
1, 36930, Note_on_c, 0, 51, 75
1, 36931, Note_off_c, 0, 52, 61
1, 36939, Note_off_c, 0, 40, 62
1, 36945, Note_on_c, 0, 39, 68
1, 37002, Note_on_c, 0, 37, 66
1, 37003, Note_on_c, 0, 49, 76
1, 37004, Note_off_c, 0, 39, 62
1, 37008, Note_off_c, 0, 51, 58
1, 37031, Note_off_c, 0, 37, 64
1, 37062, Note_off_c, 0, 49, 61
1, 37070, Note_on_c, 0, 47, 75
1, 37080, Control_c, 0, 64, 121
1, 37085, Note_on_c, 0, 35, 68
1, 37095, Control_c, 0, 64, 88
1, 37110, Control_c, 0, 64, 69
1, 37124, Control_c, 0, 64, 40
1, 37139, Control_c, 0, 64, 0
1, 37140, Note_off_c, 0, 35, 62
1, 37140, Note_off_c, 0, 47, 58
1, 37143, Note_on_c, 0, 46, 77
1, 37154, Note_on_c, 0, 34, 63
1, 37219, Note_off_c, 0, 34, 62
1, 37221, Note_on_c, 0, 33, 65
1, 37225, Note_on_c, 0, 45, 77
1, 37241, Note_off_c, 0, 46, 59
1, 37265, Note_off_c, 0, 33, 66
1, 37327, Note_off_c, 0, 45, 63
1, 37363, Note_on_c, 0, 44, 100
1, 37368, Note_on_c, 0, 32, 91
1, 37754, Control_c, 0, 64, 59
1, 37769, Control_c, 0, 64, 70
1, 37784, Control_c, 0, 64, 83
1, 37799, Control_c, 0, 64, 120
1, 37814, Control_c, 0, 64, 127
1, 37914, Note_on_c, 0, 51, 94
1, 38062, Note_on_c, 0, 63, 95
1, 38069, Note_off_c, 0, 51, 57
1, 38106, Note_on_c, 0, 60, 36
1, 38152, Note_off_c, 0, 60, 41
1, 38174, Note_on_c, 0, 56, 80
1, 38236, Note_off_c, 0, 44, 34
1, 38300, Note_on_c, 0, 51, 86
1, 38397, Note_off_c, 0, 32, 60
1, 38415, Note_on_c, 0, 44, 86
1, 38507, Note_off_c, 0, 51, 55
1, 38525, Note_off_c, 0, 56, 51
1, 38539, Note_off_c, 0, 63, 55
1, 38540, Note_on_c, 0, 32, 70
1, 38665, Note_off_c, 0, 44, 31
1, 38689, Note_on_c, 0, 51, 73
1, 38805, Note_off_c, 0, 51, 50
1, 38815, Note_on_c, 0, 63, 73
1, 38941, Note_on_c, 0, 56, 62
1, 39038, Note_off_c, 0, 32, 22
1, 39040, Note_off_c, 0, 63, 29
1, 39065, Note_on_c, 0, 51, 61
1, 39068, Note_off_c, 0, 56, 56
1, 39160, Note_off_c, 0, 51, 48
1, 39176, Note_on_c, 0, 44, 67
1, 39277, Note_off_c, 0, 44, 55
1, 39292, Note_on_c, 0, 32, 56
1, 39393, Note_on_c, 0, 51, 57
1, 39495, Note_off_c, 0, 51, 56
1, 39510, Note_on_c, 0, 63, 61
1, 39618, Note_off_c, 0, 63, 54
1, 39621, Note_off_c, 0, 32, 34
1, 39627, Note_on_c, 0, 56, 53
1, 39732, Note_on_c, 0, 51, 55
1, 39735, Note_off_c, 0, 56, 56
1, 39783, Note_off_c, 0, 51, 54
1, 39852, Note_on_c, 0, 44, 61
1, 39932, Note_off_c, 0, 44, 59
1, 39973, Note_on_c, 0, 32, 62
1, 40006, Note_off_c, 0, 32, 61
1, 40154, Note_on_c, 0, 51, 66
1, 40195, Note_off_c, 0, 51, 51
1, 40306, Note_on_c, 0, 71, 77
1, 40321, Note_on_c, 0, 59, 53
1, 40331, Note_on_c, 0, 63, 64
1, 40352, Note_off_c, 0, 59, 54
1, 40455, Note_on_c, 0, 56, 58
1, 40459, Note_off_c, 0, 63, 34
1, 40539, Note_on_c, 0, 51, 64
1, 40542, Note_off_c, 0, 56, 61
1, 40573, Note_off_c, 0, 51, 62
1, 40665, Note_on_c, 0, 44, 74
1, 40740, Note_off_c, 0, 44, 52
1, 40742, Note_on_c, 0, 32, 73
1, 40758, Note_off_c, 0, 71, 54
1, 40790, Note_off_c, 0, 32, 63
1, 40922, Note_on_c, 0, 51, 68
1, 40990, Note_off_c, 0, 51, 56
1, 41010, Note_on_c, 0, 71, 91
1, 41023, Note_on_c, 0, 59, 84
1, 41027, Note_on_c, 0, 63, 81
1, 41071, Note_off_c, 0, 59, 61
1, 41116, Note_on_c, 0, 56, 67
1, 41119, Note_off_c, 0, 63, 59
1, 41207, Note_on_c, 0, 51, 71
1, 41214, Note_off_c, 0, 56, 62
1, 41244, Note_off_c, 0, 51, 64
1, 41324, Note_on_c, 0, 44, 85
1, 41395, Note_off_c, 0, 44, 56
1, 41402, Note_on_c, 0, 32, 79
1, 41431, Note_off_c, 0, 71, 54
1, 41450, Note_off_c, 0, 32, 62
1, 41571, Note_on_c, 0, 51, 75
1, 41644, Note_off_c, 0, 51, 58
1, 41660, Note_on_c, 0, 71, 98
1, 41661, Note_on_c, 0, 59, 89
1, 41663, Note_on_c, 0, 63, 92
1, 41709, Note_off_c, 0, 59, 64
1, 41768, Note_on_c, 0, 56, 70
1, 41774, Note_off_c, 0, 63, 59
1, 41855, Note_on_c, 0, 51, 71
1, 41867, Note_off_c, 0, 56, 62
1, 41892, Note_off_c, 0, 51, 64
1, 41968, Note_on_c, 0, 44, 89
1, 42046, Note_on_c, 0, 32, 83
1, 42051, Note_off_c, 0, 44, 46
1, 42096, Note_off_c, 0, 32, 61
1, 42121, Note_off_c, 0, 71, 54
1, 42213, Note_on_c, 0, 51, 80
1, 42299, Note_off_c, 0, 51, 55
1, 42307, Note_on_c, 0, 63, 96
1, 42309, Note_on_c, 0, 71, 96
1, 42311, Note_on_c, 0, 59, 93
1, 42357, Note_off_c, 0, 59, 61
1, 42415, Note_on_c, 0, 56, 71
1, 42430, Note_off_c, 0, 63, 60
1, 42525, Note_on_c, 0, 51, 78
1, 42541, Note_off_c, 0, 56, 62
1, 42571, Note_off_c, 0, 51, 63
1, 42659, Note_on_c, 0, 44, 94
1, 42832, Note_on_c, 0, 32, 87
1, 42889, Note_off_c, 0, 32, 60
1, 42907, Note_off_c, 0, 71, 56
1, 42912, Note_off_c, 0, 44, 61
1, 43038, Note_on_c, 0, 51, 74
1, 43195, Note_on_c, 0, 68, 102
1, 43203, Note_on_c, 0, 63, 92
1, 43205, Note_on_c, 0, 56, 93
1, 43205, Note_off_c, 0, 51, 41
1, 43241, Note_off_c, 0, 63, 64
1, 43318, Note_off_c, 0, 68, 62
1, 43469, Note_on_c, 0, 51, 75
1, 43495, Note_off_c, 0, 56, 55
1, 43542, Note_off_c, 0, 51, 57
1, 43671, Note_on_c, 0, 84, 87
1, 43686, Note_on_c, 0, 72, 64
1, 43691, Note_on_c, 0, 76, 64
1, 43692, Note_on_c, 0, 44, 70
1, 43743, Note_off_c, 0, 72, 57
1, 43748, Note_off_c, 0, 76, 62
1, 43763, Note_off_c, 0, 84, 62
1, 43858, Note_on_c, 0, 83, 84
1, 43865, Note_off_c, 0, 44, 53
1, 43866, Note_on_c, 0, 71, 76
1, 43868, Note_on_c, 0, 32, 66
1, 43882, Note_on_c, 0, 80, 56
1, 43971, Note_off_c, 0, 32, 52
1, 43975, Note_on_c, 0, 44, 73
1, 44017, Note_off_c, 0, 44, 61
1, 44150, Note_on_c, 0, 51, 73
1, 44192, Note_off_c, 0, 51, 54
1, 44275, Note_off_c, 0, 71, 35
1, 44282, Note_off_c, 0, 83, 49
1, 44290, Note_on_c, 0, 63, 88
1, 44321, Note_off_c, 0, 80, 47
1, 44425, Note_off_c, 0, 63, 54
1, 44432, Note_on_c, 0, 56, 66
1, 44526, Note_on_c, 0, 51, 65
1, 44526, Note_off_c, 0, 56, 61
1, 44537, Note_on_c, 0, 84, 74
1, 44546, Note_on_c, 0, 76, 58
1, 44554, Note_off_c, 0, 51, 64
1, 44561, Note_on_c, 0, 72, 44
1, 44579, Note_off_c, 0, 76, 68
1, 44588, Note_off_c, 0, 72, 57
1, 44589, Note_off_c, 0, 84, 63
1, 44651, Note_on_c, 0, 44, 70
1, 44663, Note_on_c, 0, 83, 77
1, 44672, Note_on_c, 0, 71, 71
1, 44672, Note_on_c, 0, 80, 67
1, 44713, Note_on_c, 0, 32, 79
1, 44720, Note_off_c, 0, 44, 58
1, 44770, Note_off_c, 0, 32, 62
1, 44892, Note_off_c, 0, 71, 49
1, 44914, Note_on_c, 0, 51, 58
1, 44916, Note_off_c, 0, 83, 53
1, 44947, Note_off_c, 0, 51, 59
1, 44961, Note_on_c, 0, 63, 87
1, 45037, Note_on_c, 0, 56, 68
1, 45043, Note_off_c, 0, 80, 26
1, 45048, Note_off_c, 0, 63, 61
1, 45104, Note_on_c, 0, 51, 69
1, 45115, Note_off_c, 0, 56, 62
1, 45128, Note_off_c, 0, 51, 68
1, 45136, Note_on_c, 0, 76, 62
1, 45137, Note_on_c, 0, 84, 69
1, 45145, Note_on_c, 0, 72, 54
1, 45155, Note_off_c, 0, 76, 68
1, 45163, Note_off_c, 0, 84, 67
1, 45165, Note_off_c, 0, 72, 62
1, 45221, Note_on_c, 0, 44, 71
1, 45222, Note_on_c, 0, 83, 86
1, 45228, Note_on_c, 0, 71, 84
1, 45237, Note_on_c, 0, 80, 71
1, 45262, Note_on_c, 0, 32, 79
1, 45274, Note_off_c, 0, 44, 63
1, 45313, Note_off_c, 0, 32, 61
1, 45423, Note_off_c, 0, 71, 52
1, 45441, Note_on_c, 0, 51, 68
1, 45444, Note_off_c, 0, 83, 54
1, 45468, Note_off_c, 0, 51, 63
1, 45482, Note_on_c, 0, 63, 93
1, 45563, Note_on_c, 0, 56, 70
1, 45575, Note_off_c, 0, 80, 33
1, 45579, Note_off_c, 0, 63, 61
1, 45626, Note_on_c, 0, 51, 69
1, 45636, Note_off_c, 0, 56, 63
1, 45637, Note_on_c, 0, 76, 66
1, 45641, Note_on_c, 0, 84, 74
1, 45653, Note_on_c, 0, 72, 54
1, 45655, Note_off_c, 0, 51, 65
1, 45665, Note_off_c, 0, 76, 67
1, 45666, Note_off_c, 0, 84, 67
1, 45674, Note_off_c, 0, 72, 62
1, 45738, Note_on_c, 0, 83, 88
1, 45745, Note_on_c, 0, 44, 75
1, 45745, Note_on_c, 0, 71, 85
1, 45753, Note_on_c, 0, 80, 71
1, 45780, Note_on_c, 0, 32, 80
1, 45795, Note_off_c, 0, 44, 59
1, 45835, Note_off_c, 0, 32, 61
1, 45954, Note_on_c, 0, 51, 79
1, 46008, Note_off_c, 0, 71, 53
1, 46024, Note_on_c, 0, 63, 95
1, 46052, Note_off_c, 0, 51, 34
1, 46055, Note_off_c, 0, 83, 50
1, 46112, Note_off_c, 0, 80, 53
1, 46121, Note_on_c, 0, 56, 61
1, 46136, Note_off_c, 0, 63, 57
1, 46219, Note_on_c, 0, 51, 64
1, 46228, Note_off_c, 0, 56, 61
1, 46234, Note_on_c, 0, 84, 74
1, 46247, Note_on_c, 0, 76, 56
1, 46255, Note_off_c, 0, 51, 61
1, 46272, Note_on_c, 0, 72, 33
1, 46292, Note_off_c, 0, 76, 63
1, 46305, Note_off_c, 0, 72, 51
1, 46309, Note_off_c, 0, 84, 61
1, 46365, Note_on_c, 0, 44, 67
1, 46428, Note_on_c, 0, 32, 76
1, 46433, Note_on_c, 0, 83, 67
1, 46433, Note_off_c, 0, 44, 53
1, 46444, Note_on_c, 0, 71, 57
1, 46448, Note_on_c, 0, 80, 58
1, 46464, Note_off_c, 0, 71, 57
1, 46482, Note_off_c, 0, 32, 59
1, 46482, Note_off_c, 0, 80, 62
1, 46484, Note_off_c, 0, 83, 54
1, 46574, Note_on_c, 0, 84, 79
1, 46575, Note_on_c, 0, 76, 71
1, 46584, Note_on_c, 0, 72, 60
1, 46600, Note_off_c, 0, 76, 67
1, 46605, Note_off_c, 0, 72, 59
1, 46615, Note_off_c, 0, 84, 52
1, 46622, Note_on_c, 0, 51, 56
1, 46659, Note_on_c, 0, 63, 82
1, 46666, Note_off_c, 0, 51, 58
1, 46699, Note_on_c, 0, 71, 80
1, 46699, Note_on_c, 0, 83, 82
1, 46702, Note_on_c, 0, 80, 79
1, 46711, Note_on_c, 0, 56, 75
1, 46723, Note_off_c, 0, 71, 60
1, 46728, Note_off_c, 0, 63, 61
1, 46746, Note_off_c, 0, 80, 57
1, 46747, Note_off_c, 0, 83, 60
1, 46754, Note_on_c, 0, 51, 73
1, 46770, Note_off_c, 0, 56, 63
1, 46785, Note_off_c, 0, 51, 60
1, 46818, Note_on_c, 0, 84, 82
1, 46820, Note_on_c, 0, 72, 75
1, 46822, Note_on_c, 0, 76, 67
1, 46838, Note_off_c, 0, 76, 70
1, 46840, Note_off_c, 0, 72, 70
1, 46862, Note_off_c, 0, 84, 58
1, 46883, Note_on_c, 0, 44, 62
1, 46906, Note_on_c, 0, 32, 84
1, 46911, Note_off_c, 0, 44, 64
1, 46930, Note_on_c, 0, 71, 79
1, 46931, Note_on_c, 0, 83, 77
1, 46931, Note_on_c, 0, 80, 72
1, 46953, Note_off_c, 0, 71, 66
1, 46955, Note_off_c, 0, 32, 62
1, 46961, Note_off_c, 0, 80, 64
1, 46970, Note_off_c, 0, 83, 58
1, 47046, Note_on_c, 0, 84, 87
1, 47062, Note_on_c, 0, 72, 55
1, 47064, Note_on_c, 0, 76, 54
1, 47080, Note_off_c, 0, 72, 64
1, 47083, Note_off_c, 0, 76, 65
1, 47093, Note_off_c, 0, 84, 60
1, 47120, Note_on_c, 0, 51, 24
1, 47123, Note_on_c, 0, 63, 84
1, 47157, Note_off_c, 0, 51, 41
1, 47161, Note_on_c, 0, 83, 76
1, 47163, Note_on_c, 0, 71, 72
1, 47167, Note_on_c, 0, 80, 68
1, 47172, Note_on_c, 0, 56, 67
1, 47188, Note_off_c, 0, 71, 65
1, 47191, Note_off_c, 0, 63, 61
1, 47200, Note_off_c, 0, 80, 57
1, 47213, Note_off_c, 0, 83, 63
1, 47224, Note_off_c, 0, 56, 63
1, 47229, Note_on_c, 0, 51, 71
1, 47253, Note_off_c, 0, 51, 66
1, 47281, Note_on_c, 0, 84, 79
1, 47295, Note_on_c, 0, 72, 54
1, 47315, Note_off_c, 0, 72, 63
1, 47334, Note_off_c, 0, 84, 62
1, 47369, Note_on_c, 0, 44, 55
1, 47370, Poly_aftertouch_c, 0, 76, 0
1, 47371, Note_on_c, 0, 32, 80
1, 47390, Note_off_c, 0, 44, 61
1, 47402, Note_on_c, 0, 71, 72
1, 47403, Note_on_c, 0, 83, 76
1, 47406, Note_on_c, 0, 80, 49
1, 47425, Note_off_c, 0, 32, 61
1, 47429, Note_off_c, 0, 71, 61
1, 47432, Note_on_c, 0, 76, 15
1, 47451, Note_off_c, 0, 80, 60
1, 47453, Note_off_c, 0, 83, 62
1, 47480, Note_off_c, 0, 76, 41
1, 47527, Note_on_c, 0, 84, 87
1, 47530, Note_on_c, 0, 72, 75
1, 47548, Note_on_c, 0, 51, 57
1, 47569, Note_off_c, 0, 72, 52
1, 47603, Note_off_c, 0, 84, 59
1, 47694, Note_off_c, 0, 51, 37
1, 47708, Note_on_c, 0, 83, 99
1, 47712, Note_on_c, 0, 63, 91
1, 47712, Note_on_c, 0, 71, 92
1, 47715, Note_on_c, 0, 80, 81
1, 47717, Note_on_c, 0, 59, 81
1, 47719, Note_on_c, 0, 56, 75
1, 47739, Note_off_c, 0, 80, 66
1, 47744, Note_off_c, 0, 71, 61
1, 47771, Note_off_c, 0, 63, 61
1, 47778, Note_off_c, 0, 59, 63
1, 47788, Note_off_c, 0, 56, 61
1, 47798, Note_off_c, 0, 83, 67
1, 48541, Control_c, 0, 64, 93
1, 48556, Control_c, 0, 64, 61
1, 48570, Control_c, 0, 64, 0
1, 49074, Control_c, 0, 64, 35
1, 49089, Control_c, 0, 64, 61
1, 49104, Control_c, 0, 64, 69
1, 49119, Control_c, 0, 64, 80
1, 49120, Note_on_c, 0, 68, 60
1, 49134, Control_c, 0, 64, 99
1, 49149, Control_c, 0, 64, 127
1, 49151, Note_off_c, 0, 68, 60
1, 49172, Note_on_c, 0, 70, 53
1, 49225, Note_off_c, 0, 70, 55
1, 49230, Note_on_c, 0, 71, 49
1, 49252, Note_on_c, 0, 73, 66
1, 49274, Note_off_c, 0, 71, 57
1, 49314, Note_on_c, 0, 75, 59
1, 49319, Note_off_c, 0, 73, 64
1, 49337, Note_off_c, 0, 75, 65
1, 49385, Note_on_c, 0, 76, 63
1, 49437, Note_on_c, 0, 78, 80
1, 49462, Note_off_c, 0, 76, 63
1, 49489, Note_on_c, 0, 79, 76
1, 49503, Note_off_c, 0, 78, 60
1, 49510, Note_on_c, 0, 80, 75
1, 49540, Note_off_c, 0, 79, 64
1, 49572, Note_off_c, 0, 80, 64
1, 49578, Note_on_c, 0, 82, 68
1, 49601, Note_off_c, 0, 82, 66
1, 49639, Note_on_c, 0, 83, 70
1, 49706, Note_off_c, 0, 83, 61
1, 49709, Note_on_c, 0, 85, 75
1, 49766, Note_on_c, 0, 87, 70
1, 49766, Note_off_c, 0, 85, 63
1, 49793, Note_off_c, 0, 87, 68
1, 49826, Note_on_c, 0, 88, 79
1, 49888, Note_on_c, 0, 90, 82
1, 49893, Note_off_c, 0, 88, 58
1, 49972, Note_off_c, 0, 90, 62
1, 49972, Control_c, 0, 64, 108
1, 49973, Note_on_c, 0, 91, 70
1, 49987, Control_c, 0, 64, 80
1, 50009, Note_off_c, 0, 91, 64
1, 50009, Control_c, 0, 64, 59
1, 50024, Control_c, 0, 64, 0
1, 50071, Note_on_c, 0, 92, 113
1, 50075, Note_on_c, 0, 40, 96
1, 50076, Note_on_c, 0, 33, 81
1, 50083, Control_c, 0, 64, 26
1, 50098, Control_c, 0, 64, 62
1, 50113, Control_c, 0, 64, 79
1, 50126, Note_off_c, 0, 33, 63
1, 50128, Control_c, 0, 64, 127
1, 50129, Note_off_c, 0, 40, 64
1, 50341, Note_off_c, 0, 92, 61
1, 50355, Note_on_c, 0, 40, 59
1, 50367, Note_on_c, 0, 49, 60
1, 50417, Note_off_c, 0, 40, 60
1, 50435, Note_on_c, 0, 52, 76
1, 50435, Note_off_c, 0, 49, 62
1, 50489, Note_off_c, 0, 52, 62
1, 50680, Note_on_c, 0, 85, 74
1, 50683, Note_on_c, 0, 52, 67
1, 50686, Note_on_c, 0, 49, 57
1, 50735, Note_off_c, 0, 49, 61
1, 50743, Note_off_c, 0, 52, 63
1, 50749, Note_on_c, 0, 80, 100
1, 50773, Note_off_c, 0, 85, 65
1, 50774, Note_on_c, 0, 61, 81
1, 50824, Note_off_c, 0, 61, 60
1, 51003, Note_on_c, 0, 52, 67
1, 51009, Note_on_c, 0, 61, 66
1, 51058, Note_off_c, 0, 52, 65
1, 51075, Note_on_c, 0, 64, 75
1, 51078, Note_off_c, 0, 61, 63
1, 51116, Note_off_c, 0, 64, 59
1, 51301, Note_on_c, 0, 64, 75
1, 51313, Note_on_c, 0, 61, 68
1, 51362, Note_off_c, 0, 64, 66
1, 51366, Note_off_c, 0, 61, 61
1, 51393, Note_on_c, 0, 73, 86
1, 51431, Note_off_c, 0, 73, 64
1, 51590, Note_off_c, 0, 80, 57
1, 51607, Note_on_c, 0, 61, 69
1, 51608, Note_on_c, 0, 52, 71
1, 51672, Note_off_c, 0, 52, 64
1, 51682, Note_off_c, 0, 61, 62
1, 51684, Note_on_c, 0, 64, 79
1, 51757, Control_c, 0, 64, 92
1, 51772, Control_c, 0, 64, 69
1, 51778, Note_on_c, 0, 61, 80
1, 51779, Note_off_c, 0, 64, 63
1, 51788, Control_c, 0, 64, 10
1, 51802, Control_c, 0, 64, 0
1, 51833, Note_off_c, 0, 61, 62
1, 51870, Note_on_c, 0, 52, 71
1, 51920, Note_off_c, 0, 52, 62
1, 51948, Note_on_c, 0, 75, 78
1, 51949, Note_on_c, 0, 87, 82
1, 51963, Note_on_c, 0, 80, 66
1, 51996, Note_off_c, 0, 80, 62
1, 52000, Note_off_c, 0, 75, 64
1, 52002, Note_off_c, 0, 87, 64
1, 52069, Control_c, 0, 64, 54
1, 52070, Note_on_c, 0, 85, 97
1, 52073, Note_on_c, 0, 73, 92
1, 52079, Note_on_c, 0, 68, 86
1, 52080, Note_on_c, 0, 61, 77
1, 52084, Control_c, 0, 64, 80
1, 52087, Note_on_c, 0, 58, 76
1, 52087, Note_on_c, 0, 80, 77
1, 52099, Control_c, 0, 64, 127
1, 52106, Note_off_c, 0, 68, 64
1, 52134, Note_off_c, 0, 61, 61
1, 52151, Note_off_c, 0, 58, 63
1, 52151, Note_off_c, 0, 85, 65
1, 52151, Note_off_c, 0, 80, 61
1, 52178, Note_off_c, 0, 73, 62
1, 52404, Note_on_c, 0, 55, 38
1, 52408, Note_on_c, 0, 50, 56
1, 52416, Note_on_c, 0, 59, 35
1, 52426, Note_on_c, 0, 60, 42
1, 52438, Note_off_c, 0, 55, 50
1, 52440, Note_on_c, 0, 49, 64
1, 52444, Note_on_c, 0, 58, 70
1, 52445, Note_off_c, 0, 50, 63
1, 52449, Note_on_c, 0, 46, 68
1, 52451, Note_off_c, 0, 59, 63
1, 52452, Note_on_c, 0, 56, 61
1, 52454, Note_off_c, 0, 60, 51
1, 52473, Note_off_c, 0, 49, 64
1, 52491, Note_off_c, 0, 56, 58
1, 52492, Note_off_c, 0, 46, 61
1, 52505, Note_off_c, 0, 58, 63
1, 52646, Note_on_c, 0, 40, 77
1, 52692, Note_off_c, 0, 40, 61
1, 52718, Note_on_c, 0, 56, 84
1, 52753, Note_off_c, 0, 56, 61
1, 52938, Note_on_c, 0, 71, 73
1, 52941, Note_on_c, 0, 67, 72
1, 52944, Note_on_c, 0, 62, 71
1, 53001, Note_off_c, 0, 67, 63
1, 53003, Note_on_c, 0, 61, 73
1, 53004, Note_on_c, 0, 70, 79
1, 53009, Note_on_c, 0, 68, 76
1, 53016, Note_off_c, 0, 62, 62
1, 53017, Note_on_c, 0, 58, 66
1, 53021, Note_off_c, 0, 71, 60
1, 53048, Note_off_c, 0, 61, 61
1, 53052, Note_off_c, 0, 68, 58
1, 53055, Note_off_c, 0, 58, 57
1, 53063, Note_off_c, 0, 70, 62
1, 53203, Note_on_c, 0, 52, 86
1, 53256, Note_off_c, 0, 52, 64
1, 53281, Note_on_c, 0, 68, 88
1, 53321, Note_off_c, 0, 68, 65
1, 53472, Note_on_c, 0, 83, 71
1, 53474, Note_on_c, 0, 79, 71
1, 53495, Note_on_c, 0, 74, 69
1, 53500, Note_off_c, 0, 79, 66
1, 53549, Note_on_c, 0, 82, 85
1, 53551, Note_on_c, 0, 80, 81
1, 53558, Note_off_c, 0, 83, 63
1, 53562, Note_on_c, 0, 73, 67
1, 53565, Note_off_c, 0, 74, 65
1, 53566, Note_on_c, 0, 70, 72
1, 53587, Note_off_c, 0, 73, 69
1, 53588, Note_off_c, 0, 80, 55
1, 53601, Note_off_c, 0, 82, 59
1, 53606, Note_off_c, 0, 70, 63
1, 53778, Note_on_c, 0, 64, 88
1, 53817, Note_off_c, 0, 64, 66
1, 53856, Control_c, 0, 64, 93
1, 53871, Control_c, 0, 64, 67
1, 53886, Control_c, 0, 64, 0
1, 53960, Control_c, 0, 64, 12
1, 53963, Note_on_c, 0, 40, 81
1, 53965, Note_on_c, 0, 80, 101
1, 53966, Note_on_c, 0, 33, 74
1, 53975, Control_c, 0, 64, 68
1, 53990, Control_c, 0, 64, 108
1, 54000, Note_off_c, 0, 33, 65
1, 54005, Control_c, 0, 64, 127
1, 54006, Note_off_c, 0, 80, 65
1, 54014, Note_off_c, 0, 40, 62
1, 54222, Note_on_c, 0, 97, 87
1, 54225, Note_on_c, 0, 85, 78
1, 54252, Note_on_c, 0, 40, 58
1, 54255, Note_off_c, 0, 85, 61
1, 54263, Note_off_c, 0, 97, 66
1, 54296, Note_off_c, 0, 40, 60
1, 54326, Note_on_c, 0, 80, 100
1, 54330, Note_on_c, 0, 92, 93
1, 54336, Note_on_c, 0, 52, 49
1, 54360, Note_off_c, 0, 80, 54
1, 54371, Note_off_c, 0, 92, 63
1, 54386, Note_off_c, 0, 52, 56
1, 54550, Note_on_c, 0, 52, 56
1, 54551, Note_on_c, 0, 49, 65
1, 54592, Note_off_c, 0, 49, 60
1, 54593, Note_off_c, 0, 52, 66
1, 54619, Note_on_c, 0, 61, 88
1, 54668, Note_off_c, 0, 61, 61
1, 54834, Note_on_c, 0, 85, 76
1, 54834, Note_on_c, 0, 73, 76
1, 54835, Note_on_c, 0, 52, 62
1, 54843, Note_on_c, 0, 61, 67
1, 54854, Note_on_c, 0, 80, 47
1, 54858, Note_off_c, 0, 85, 62
1, 54873, Note_off_c, 0, 73, 61
1, 54876, Note_off_c, 0, 80, 58
1, 54893, Note_off_c, 0, 52, 61
1, 54920, Note_on_c, 0, 64, 73
1, 54921, Note_off_c, 0, 61, 60
1, 54935, Note_on_c, 0, 80, 99
1, 54941, Note_on_c, 0, 68, 92
1, 54959, Note_off_c, 0, 68, 71
1, 54965, Note_off_c, 0, 64, 58
1, 54975, Note_on_c, 0, 73, 44
1, 55005, Note_off_c, 0, 73, 54
1, 55008, Note_off_c, 0, 80, 61
1, 55144, Note_on_c, 0, 61, 60
1, 55147, Note_on_c, 0, 64, 74
1, 55177, Note_off_c, 0, 61, 62
1, 55197, Note_off_c, 0, 64, 67
1, 55231, Note_on_c, 0, 73, 73
1, 55260, Note_off_c, 0, 73, 69
1, 55345, Note_on_c, 0, 75, 78
1, 55345, Note_on_c, 0, 87, 81
1, 55346, Note_on_c, 0, 80, 75
1, 55412, Note_off_c, 0, 75, 60
1, 55418, Note_on_c, 0, 61, 57
1, 55426, Note_on_c, 0, 52, 66
1, 55427, Note_off_c, 0, 87, 62
1, 55430, Note_off_c, 0, 80, 61
1, 55492, Note_off_c, 0, 52, 64
1, 55502, Note_off_c, 0, 61, 62
1, 55507, Note_on_c, 0, 64, 75
1, 55516, Note_on_c, 0, 75, 86
1, 55519, Note_on_c, 0, 87, 88
1, 55527, Note_on_c, 0, 80, 73
1, 55561, Control_c, 0, 64, 96
1, 55575, Note_off_c, 0, 75, 58
1, 55576, Control_c, 0, 64, 72
1, 55585, Note_off_c, 0, 87, 62
1, 55591, Control_c, 0, 64, 42
1, 55593, Note_off_c, 0, 80, 59
1, 55605, Control_c, 0, 64, 0
1, 55606, Note_off_c, 0, 64, 62
1, 55609, Note_on_c, 0, 61, 77
1, 55656, Note_off_c, 0, 61, 63
1, 55685, Note_on_c, 0, 85, 85
1, 55688, Note_on_c, 0, 73, 87
1, 55703, Note_on_c, 0, 52, 69
1, 55737, Note_on_c, 0, 80, 22
1, 55746, Note_off_c, 0, 52, 61
1, 55752, Note_off_c, 0, 73, 54
1, 55762, Note_off_c, 0, 85, 60
1, 55776, Note_off_c, 0, 80, 44
1, 55874, Control_c, 0, 64, 66
1, 55877, Note_on_c, 0, 73, 96
1, 55877, Note_on_c, 0, 85, 94
1, 55883, Note_on_c, 0, 80, 81
1, 55885, Note_on_c, 0, 68, 88
1, 55889, Control_c, 0, 64, 99
1, 55889, Note_on_c, 0, 61, 78
1, 55895, Note_on_c, 0, 58, 74
1, 55903, Control_c, 0, 64, 127
1, 55919, Note_off_c, 0, 68, 61
1, 55940, Note_off_c, 0, 61, 62
1, 55943, Note_off_c, 0, 85, 65
1, 55950, Note_off_c, 0, 80, 63
1, 55952, Note_off_c, 0, 58, 63
1, 55971, Note_off_c, 0, 73, 63
1, 56148, Note_on_c, 0, 59, 59
1, 56166, Note_on_c, 0, 55, 49
1, 56186, Note_on_c, 0, 50, 58
1, 56214, Note_off_c, 0, 55, 60
1, 56220, Note_on_c, 0, 58, 72
1, 56220, Note_off_c, 0, 59, 62
1, 56230, Note_off_c, 0, 50, 61
1, 56234, Note_on_c, 0, 49, 56
1, 56234, Note_on_c, 0, 56, 56
1, 56239, Note_on_c, 0, 46, 64
1, 56261, Note_off_c, 0, 49, 61
1, 56262, Note_off_c, 0, 56, 62
1, 56270, Note_off_c, 0, 46, 63
1, 56276, Note_off_c, 0, 58, 63
1, 56425, Note_on_c, 0, 40, 78
1, 56478, Note_off_c, 0, 40, 60
1, 56497, Note_on_c, 0, 56, 89
1, 56533, Note_off_c, 0, 56, 66
1, 56715, Note_on_c, 0, 71, 77
1, 56721, Note_on_c, 0, 67, 71
1, 56721, Note_on_c, 0, 62, 70
1, 56780, Note_on_c, 0, 61, 75
1, 56788, Note_on_c, 0, 68, 81
1, 56789, Note_off_c, 0, 67, 61
1, 56789, Note_on_c, 0, 70, 83
1, 56794, Note_off_c, 0, 62, 63
1, 56795, Note_on_c, 0, 58, 71
1, 56798, Note_off_c, 0, 71, 60
1, 56825, Note_off_c, 0, 61, 61
1, 56829, Note_off_c, 0, 68, 61
1, 56831, Note_off_c, 0, 58, 58
1, 56838, Note_off_c, 0, 70, 62
1, 56978, Note_on_c, 0, 52, 85
1, 57031, Note_off_c, 0, 52, 62
1, 57045, Note_on_c, 0, 68, 92
1, 57081, Note_off_c, 0, 68, 66
1, 57251, Note_on_c, 0, 83, 74
1, 57256, Note_on_c, 0, 79, 74
1, 57266, Note_on_c, 0, 74, 79
1, 57280, Note_off_c, 0, 79, 67
1, 57330, Note_on_c, 0, 80, 85
1, 57332, Note_on_c, 0, 82, 88
1, 57335, Note_off_c, 0, 83, 63
1, 57336, Note_off_c, 0, 74, 64
1, 57337, Note_on_c, 0, 73, 71
1, 57343, Note_on_c, 0, 70, 71
1, 57364, Note_off_c, 0, 73, 69
1, 57379, Note_off_c, 0, 80, 61
1, 57380, Note_off_c, 0, 82, 61
1, 57392, Note_off_c, 0, 70, 66
1, 57568, Note_on_c, 0, 64, 87
1, 57612, Note_off_c, 0, 64, 62
1, 57734, Control_c, 0, 64, 88
1, 57749, Control_c, 0, 64, 61
1, 57764, Control_c, 0, 64, 0
1, 57773, Note_on_c, 0, 80, 100
1, 57785, Note_on_c, 0, 33, 75
1, 57785, Note_on_c, 0, 40, 79
1, 57838, Control_c, 0, 64, 42
1, 57853, Control_c, 0, 64, 65
1, 57867, Control_c, 0, 64, 77
1, 57868, Note_off_c, 0, 33, 65
1, 57882, Control_c, 0, 64, 107
1, 57886, Note_off_c, 0, 40, 62
1, 57897, Control_c, 0, 64, 127
1, 57963, Note_off_c, 0, 80, 56
1, 58119, Note_on_c, 0, 40, 52
1, 58133, Note_on_c, 0, 49, 59
1, 58257, Note_off_c, 0, 49, 60
1, 58272, Note_off_c, 0, 40, 40
1, 58287, Note_on_c, 0, 52, 65
1, 58296, Note_on_c, 0, 92, 91
1, 58319, Note_on_c, 0, 85, 50
1, 58338, Note_off_c, 0, 85, 62
1, 58342, Note_off_c, 0, 52, 56
1, 58566, Note_on_c, 0, 52, 62
1, 58578, Note_on_c, 0, 49, 53
1, 58614, Note_off_c, 0, 49, 61
1, 58630, Note_off_c, 0, 52, 65
1, 58660, Note_on_c, 0, 61, 82
1, 58669, Note_off_c, 0, 92, 58
1, 58703, Note_off_c, 0, 61, 59
1, 58856, Note_on_c, 0, 52, 57
1, 58860, Note_on_c, 0, 61, 62
1, 58897, Note_off_c, 0, 52, 58
1, 58931, Note_off_c, 0, 61, 61
1, 58934, Note_on_c, 0, 64, 67
1, 58935, Note_on_c, 0, 92, 88
1, 58940, Note_on_c, 0, 80, 80
1, 58942, Note_on_c, 0, 85, 69
1, 58968, Note_off_c, 0, 64, 61
1, 59025, Note_off_c, 0, 85, 54
1, 59054, Note_off_c, 0, 80, 51
1, 59105, Note_on_c, 0, 56, 60
1, 59105, Note_on_c, 0, 61, 72
1, 59137, Note_off_c, 0, 92, 61
1, 59163, Note_off_c, 0, 61, 61
1, 59182, Note_off_c, 0, 56, 56
1, 59188, Note_on_c, 0, 68, 86
1, 59231, Note_off_c, 0, 68, 66
1, 59297, Note_on_c, 0, 92, 90
1, 59300, Note_on_c, 0, 80, 79
1, 59303, Note_on_c, 0, 85, 68
1, 59372, Note_off_c, 0, 80, 58
1, 59373, Note_on_c, 0, 61, 57
1, 59375, Note_on_c, 0, 52, 62
1, 59375, Note_off_c, 0, 85, 54
1, 59406, Note_off_c, 0, 92, 64
1, 59445, Note_off_c, 0, 52, 58
1, 59469, Note_on_c, 0, 64, 59
1, 59475, Note_off_c, 0, 61, 61
1, 59489, Note_off_c, 0, 64, 63
1, 59513, Note_on_c, 0, 92, 91
1, 59516, Note_on_c, 0, 85, 67
1, 59520, Note_on_c, 0, 80, 79
1, 59731, Note_on_c, 0, 32, 60
1, 59758, Note_on_c, 0, 40, 42
1, 59809, Note_off_c, 0, 80, 35
1, 59813, Note_off_c, 0, 32, 61
1, 59820, Note_on_c, 0, 44, 78
1, 59827, Note_off_c, 0, 40, 64
1, 59841, Note_off_c, 0, 92, 52
1, 59855, Note_off_c, 0, 44, 62
1, 59865, Note_off_c, 0, 85, 55
1, 59999, Note_on_c, 0, 40, 53
1, 60014, Note_on_c, 0, 49, 60
1, 60051, Note_off_c, 0, 40, 59
1, 60079, Note_off_c, 0, 49, 61
1, 60096, Note_on_c, 0, 52, 51
1, 60099, Note_on_c, 0, 92, 74
1, 60101, Note_on_c, 0, 85, 58
1, 60107, Note_on_c, 0, 80, 59
1, 60132, Note_off_c, 0, 52, 65
1, 60144, Note_off_c, 0, 80, 51
1, 60147, Note_off_c, 0, 85, 54
1, 60196, Note_off_c, 0, 92, 59
1, 60235, Note_on_c, 0, 49, 57
1, 60253, Note_on_c, 0, 52, 62
1, 60290, Note_off_c, 0, 49, 58
1, 60307, Note_off_c, 0, 52, 65
1, 60333, Note_on_c, 0, 61, 68
1, 60366, Note_on_c, 0, 92, 81
1, 60367, Note_on_c, 0, 80, 71
1, 60367, Note_on_c, 0, 85, 68
1, 60375, Note_off_c, 0, 61, 60
1, 60403, Note_off_c, 0, 80, 57
1, 60414, Note_off_c, 0, 85, 57
1, 60428, Note_off_c, 0, 92, 64
1, 60503, Note_on_c, 0, 92, 81
1, 60503, Note_on_c, 0, 61, 56
1, 60505, Note_on_c, 0, 80, 78
1, 60508, Note_on_c, 0, 52, 65
1, 60513, Note_on_c, 0, 85, 68
1, 60547, Note_off_c, 0, 85, 56
1, 60548, Note_off_c, 0, 80, 49
1, 60556, Note_off_c, 0, 52, 63
1, 60568, Note_off_c, 0, 92, 65
1, 60574, Note_off_c, 0, 61, 62
1, 60577, Note_on_c, 0, 64, 68
1, 60607, Note_off_c, 0, 64, 66
1, 60634, Note_on_c, 0, 92, 88
1, 60640, Note_on_c, 0, 80, 85
1, 60641, Note_on_c, 0, 85, 73
1, 60683, Note_off_c, 0, 80, 53
1, 60697, Note_off_c, 0, 85, 60
1, 60702, Note_on_c, 0, 57, 59
1, 60703, Note_on_c, 0, 61, 69
1, 60709, Note_off_c, 0, 92, 65
1, 60757, Note_off_c, 0, 57, 60
1, 60760, Note_off_c, 0, 61, 62
1, 60778, Note_on_c, 0, 69, 78
1, 60800, Note_off_c, 0, 69, 72
1, 60805, Note_on_c, 0, 80, 90
1, 60807, Note_on_c, 0, 85, 81
1, 60807, Note_on_c, 0, 92, 86
1, 60843, Note_off_c, 0, 80, 53
1, 60855, Note_off_c, 0, 85, 63
1, 60867, Note_off_c, 0, 92, 64
1, 60927, Note_on_c, 0, 92, 87
1, 60933, Note_on_c, 0, 80, 84
1, 60936, Note_on_c, 0, 85, 77
1, 60959, Note_on_c, 0, 61, 53
1, 60964, Note_on_c, 0, 52, 62
1, 60971, Note_off_c, 0, 80, 57
1, 60986, Note_off_c, 0, 85, 62
1, 60992, Note_off_c, 0, 92, 65
1, 61019, Note_on_c, 0, 64, 80
1, 61035, Note_off_c, 0, 61, 62
1, 61038, Note_off_c, 0, 52, 56
1, 61042, Note_off_c, 0, 64, 70
1, 61076, Note_on_c, 0, 80, 87
1, 61077, Note_on_c, 0, 92, 92
1, 61082, Note_on_c, 0, 85, 77
1, 61102, Note_off_c, 0, 80, 57
1, 61109, Note_off_c, 0, 85, 57
1, 61127, Note_off_c, 0, 92, 64
1, 61195, Note_on_c, 0, 80, 92
1, 61198, Note_on_c, 0, 92, 98
1, 61207, Note_on_c, 0, 85, 76
1, 61267, Note_off_c, 0, 80, 53
1, 61275, Note_off_c, 0, 85, 37
1, 61287, Note_on_c, 0, 37, 81
1, 61287, Note_on_c, 0, 30, 70
1, 61293, Note_off_c, 0, 92, 64
1, 61314, Control_c, 0, 64, 84
1, 61329, Control_c, 0, 64, 57
1, 61344, Control_c, 0, 64, 0
1, 61448, Control_c, 0, 64, 39
1, 61450, Note_on_c, 0, 80, 107
1, 61451, Note_on_c, 0, 85, 89
1, 61455, Note_on_c, 0, 42, 100
1, 61455, Note_on_c, 0, 92, 102
1, 61463, Control_c, 0, 64, 88
1, 61478, Control_c, 0, 64, 127
1, 61517, Note_off_c, 0, 85, 63
1, 61518, Note_off_c, 0, 92, 67
1, 61520, Note_off_c, 0, 30, 55
1, 61535, Note_off_c, 0, 37, 62
1, 61541, Note_off_c, 0, 42, 64
1, 61544, Note_off_c, 0, 80, 61
1, 61705, Note_on_c, 0, 75, 79
1, 61706, Note_on_c, 0, 80, 68
1, 61708, Note_on_c, 0, 87, 81
1, 61760, Note_on_c, 0, 42, 61
1, 61789, Note_off_c, 0, 80, 59
1, 61791, Note_off_c, 0, 75, 58
1, 61818, Note_off_c, 0, 42, 49
1, 61824, Note_off_c, 0, 87, 59
1, 61919, Note_on_c, 0, 75, 84
1, 61921, Note_on_c, 0, 80, 77
1, 61924, Note_on_c, 0, 87, 83
1, 61925, Note_on_c, 0, 58, 76
1, 61932, Note_on_c, 0, 52, 63
1, 61964, Note_off_c, 0, 52, 66
1, 61971, Note_off_c, 0, 75, 61
1, 61979, Note_off_c, 0, 87, 63
1, 61998, Note_off_c, 0, 80, 62
1, 62001, Note_off_c, 0, 58, 60
1, 62075, Note_on_c, 0, 73, 84
1, 62079, Note_on_c, 0, 85, 78
1, 62098, Note_on_c, 0, 80, 61
1, 62107, Note_on_c, 0, 52, 68
1, 62129, Note_off_c, 0, 80, 62
1, 62131, Note_off_c, 0, 73, 60
1, 62137, Note_off_c, 0, 85, 60
1, 62218, Note_on_c, 0, 73, 89
1, 62223, Note_on_c, 0, 64, 78
1, 62224, Note_on_c, 0, 85, 81
1, 62225, Note_on_c, 0, 58, 73
1, 62226, Note_on_c, 0, 80, 73
1, 62240, Note_off_c, 0, 52, 62
1, 62251, Note_off_c, 0, 85, 59
1, 62256, Note_off_c, 0, 80, 62
1, 62268, Note_off_c, 0, 73, 61
1, 62271, Note_off_c, 0, 64, 60
1, 62274, Note_off_c, 0, 58, 59
1, 62355, Note_on_c, 0, 68, 85
1, 62357, Note_on_c, 0, 80, 82
1, 62385, Note_on_c, 0, 73, 48
1, 62406, Note_off_c, 0, 68, 60
1, 62406, Note_off_c, 0, 73, 62
1, 62426, Note_off_c, 0, 80, 61
1, 62437, Note_on_c, 0, 58, 72
1, 62502, Note_on_c, 0, 73, 62
1, 62503, Note_on_c, 0, 68, 98
1, 62514, Note_on_c, 0, 80, 73
1, 62516, Note_on_c, 0, 64, 74
1, 62524, Note_off_c, 0, 58, 62
1, 62545, Note_off_c, 0, 64, 64
1, 62545, Note_off_c, 0, 80, 57
1, 62559, Note_off_c, 0, 68, 61
1, 62563, Note_off_c, 0, 73, 63
1, 62618, Poly_aftertouch_c, 0, 70, 0
1, 62658, Note_on_c, 0, 75, 77
1, 62660, Note_on_c, 0, 63, 80
1, 62675, Note_on_c, 0, 68, 59
1, 62701, Note_off_c, 0, 68, 62
1, 62719, Note_off_c, 0, 63, 54
1, 62725, Note_on_c, 0, 52, 69
1, 62733, Note_off_c, 0, 75, 61
1, 62811, Note_on_c, 0, 64, 72
1, 62816, Note_on_c, 0, 58, 70
1, 62816, Note_on_c, 0, 75, 80
1, 62818, Note_on_c, 0, 63, 86
1, 62837, Note_off_c, 0, 64, 68
1, 62852, Note_off_c, 0, 63, 57
1, 62867, Note_off_c, 0, 75, 62
1, 62871, Note_off_c, 0, 58, 52
1, 62888, Note_off_c, 0, 52, 60
1, 62948, Note_on_c, 0, 61, 87
1, 62954, Note_on_c, 0, 73, 74
1, 63010, Note_on_c, 0, 68, 22
1, 63022, Note_off_c, 0, 61, 58
1, 63025, Note_off_c, 0, 73, 61
1, 63030, Note_on_c, 0, 42, 82
1, 63052, Note_off_c, 0, 68, 54
1, 63067, Note_off_c, 0, 42, 59
1, 63131, Note_on_c, 0, 61, 92
1, 63135, Note_on_c, 0, 73, 80
1, 63139, Note_on_c, 0, 68, 72
1, 63149, Note_on_c, 0, 58, 88
1, 63156, Note_on_c, 0, 52, 83
1, 63186, Note_off_c, 0, 73, 63
1, 63193, Note_off_c, 0, 61, 62
1, 63196, Note_off_c, 0, 68, 63
1, 63208, Note_off_c, 0, 58, 61
1, 63297, Note_on_c, 0, 56, 81
1, 63300, Note_on_c, 0, 68, 85
1, 63308, Note_on_c, 0, 61, 69
1, 63329, Note_off_c, 0, 61, 66
1, 63336, Note_off_c, 0, 56, 53
1, 63358, Note_off_c, 0, 68, 61
1, 63395, Note_off_c, 0, 52, 54
1, 63436, Note_on_c, 0, 56, 84
1, 63444, Note_on_c, 0, 68, 83
1, 63445, Note_on_c, 0, 61, 75
1, 63490, Note_off_c, 0, 61, 56
1, 63495, Note_off_c, 0, 68, 61
1, 63499, Note_off_c, 0, 56, 62
1, 63597, Note_on_c, 0, 51, 86
1, 63599, Note_on_c, 0, 63, 84
1, 63621, Note_on_c, 0, 56, 56
1, 63664, Note_off_c, 0, 51, 55
1, 63683, Note_off_c, 0, 63, 59
1, 63696, Note_off_c, 0, 56, 48
1, 63700, Note_on_c, 0, 42, 78
1, 63741, Note_off_c, 0, 42, 58
1, 63851, Note_on_c, 0, 51, 95
1, 63854, Note_on_c, 0, 52, 94
1, 63855, Note_on_c, 0, 63, 92
1, 63857, Note_on_c, 0, 56, 74
1, 63903, Control_c, 0, 64, 80
1, 63910, Note_off_c, 0, 52, 64
1, 63917, Control_c, 0, 64, 45
1, 63931, Control_c, 0, 64, 0
1, 63932, Note_off_c, 0, 51, 57
1, 63943, Note_off_c, 0, 63, 61
1, 63952, Note_off_c, 0, 56, 56
1, 64115, Note_on_c, 0, 49, 77
1, 64119, Note_on_c, 0, 61, 73
1, 64136, Note_on_c, 0, 56, 49
1, 64162, Note_off_c, 0, 56, 62
1, 64170, Note_off_c, 0, 61, 62
1, 64171, Note_off_c, 0, 49, 61
1, 64219, Note_on_c, 0, 48, 74
1, 64224, Note_on_c, 0, 60, 72
1, 64265, Note_off_c, 0, 48, 63
1, 64271, Note_off_c, 0, 60, 61
1, 64354, Note_on_c, 0, 59, 88
1, 64354, Control_c, 0, 64, 59
1, 64356, Note_on_c, 0, 40, 91
1, 64357, Note_on_c, 0, 47, 91
1, 64365, Note_on_c, 0, 28, 75
1, 64367, Note_on_c, 0, 56, 70
1, 64368, Control_c, 0, 64, 100
1, 64378, Note_off_c, 0, 47, 69
1, 64383, Control_c, 0, 64, 127
1, 64395, Note_off_c, 0, 28, 61
1, 64400, Note_off_c, 0, 56, 63
1, 64404, Note_off_c, 0, 40, 64
1, 64438, Note_off_c, 0, 59, 64
1, 64569, Note_on_c, 0, 47, 63
1, 64657, Note_off_c, 0, 47, 61
1, 64658, Note_on_c, 0, 56, 71
1, 64731, Note_off_c, 0, 56, 59
1, 64759, Note_on_c, 0, 59, 74
1, 64832, Note_off_c, 0, 59, 64
1, 64837, Note_on_c, 0, 56, 69
1, 64863, Note_off_c, 0, 56, 65
1, 64947, Note_on_c, 0, 64, 85
1, 64951, Note_on_c, 0, 93, 78
1, 64954, Note_on_c, 0, 84, 69
1, 64957, Note_on_c, 0, 81, 72
1, 64975, Note_off_c, 0, 64, 65
1, 64991, Note_off_c, 0, 81, 64
1, 64992, Note_off_c, 0, 93, 58
1, 65015, Note_off_c, 0, 84, 64
1, 65073, Note_on_c, 0, 80, 93
1, 65074, Note_on_c, 0, 88, 78
1, 65080, Note_on_c, 0, 92, 91
1, 65177, Note_off_c, 0, 92, 65
1, 65187, Note_on_c, 0, 76, 69
1, 65193, Note_off_c, 0, 88, 60
1, 65222, Note_off_c, 0, 80, 59
1, 65268, Note_off_c, 0, 76, 62
1, 65344, Poly_aftertouch_c, 0, 68, 127
1, 65373, Poly_aftertouch_c, 0, 68, 0
1, 65401, Poly_aftertouch_c, 0, 67, 0
1, 65417, Note_on_c, 0, 71, 55
1, 65425, Note_on_c, 0, 69, 58
1, 65469, Note_off_c, 0, 71, 52
1, 65478, Note_off_c, 0, 69, 51
1, 65502, Note_on_c, 0, 64, 59
1, 65574, Note_on_c, 0, 59, 64
1, 65577, Note_off_c, 0, 64, 63
1, 65577, Note_on_c, 0, 81, 66
1, 65578, Note_on_c, 0, 72, 68
1, 65590, Note_on_c, 0, 69, 54
1, 65604, Note_off_c, 0, 59, 66
1, 65613, Note_off_c, 0, 69, 58
1, 65615, Note_off_c, 0, 81, 60
1, 65629, Note_off_c, 0, 72, 63
1, 65697, Note_on_c, 0, 80, 93
1, 65698, Note_on_c, 0, 68, 87
1, 65699, Note_on_c, 0, 76, 76
1, 65757, Note_off_c, 0, 80, 65
1, 65765, Note_off_c, 0, 76, 63
1, 65795, Note_off_c, 0, 68, 61
1, 65824, Note_on_c, 0, 52, 69
1, 65904, Note_on_c, 0, 47, 67
1, 65904, Note_off_c, 0, 52, 64
1, 65985, Note_off_c, 0, 47, 63
1, 66000, Note_on_c, 0, 40, 60
1, 66032, Note_off_c, 0, 40, 63
1, 66104, Note_on_c, 0, 40, 78
1, 66110, Note_on_c, 0, 46, 84
1, 66113, Note_on_c, 0, 58, 80
1, 66132, Control_c, 0, 64, 79
1, 66147, Control_c, 0, 64, 51
1, 66164, Note_off_c, 0, 46, 61
1, 66164, Control_c, 0, 64, 0
1, 66166, Note_off_c, 0, 58, 63
1, 66167, Note_off_c, 0, 40, 63
1, 66204, Note_on_c, 0, 28, 72
1, 66221, Note_on_c, 0, 45, 82
1, 66230, Note_on_c, 0, 57, 68
1, 66256, Note_off_c, 0, 57, 67
1, 66259, Note_off_c, 0, 28, 63
1, 66263, Note_off_c, 0, 45, 62
1, 66347, Note_on_c, 0, 44, 82
1, 66347, Note_on_c, 0, 48, 67
1, 66347, Note_on_c, 0, 56, 81
1, 66351, Note_on_c, 0, 54, 78
1, 66352, Note_on_c, 0, 39, 91
1, 66352, Note_on_c, 0, 27, 84
1, 66356, Control_c, 0, 64, 46
1, 66371, Control_c, 0, 64, 79
1, 66385, Control_c, 0, 64, 127
1, 66388, Note_off_c, 0, 27, 66
1, 66393, Note_off_c, 0, 44, 61
1, 66395, Note_off_c, 0, 39, 57
1, 66396, Note_off_c, 0, 48, 62
1, 66438, Note_off_c, 0, 54, 59
1, 66444, Note_off_c, 0, 56, 63
1, 66544, Note_on_c, 0, 44, 56
1, 66604, Note_off_c, 0, 44, 57
1, 66624, Note_on_c, 0, 54, 75
1, 66698, Note_off_c, 0, 54, 59
1, 66716, Note_on_c, 0, 60, 78
1, 66749, Note_off_c, 0, 60, 60
1, 66825, Note_on_c, 0, 56, 80
1, 66882, Note_on_c, 0, 69, 79
1, 66887, Note_on_c, 0, 78, 75
1, 66892, Note_on_c, 0, 81, 73
1, 66894, Note_off_c, 0, 56, 59
1, 66918, Note_off_c, 0, 81, 63
1, 66920, Note_on_c, 0, 66, 80
1, 66928, Note_off_c, 0, 69, 67
1, 66944, Note_off_c, 0, 66, 68
1, 66963, Note_off_c, 0, 78, 59
1, 67000, Note_on_c, 0, 68, 83
1, 67000, Note_on_c, 0, 72, 76
1, 67005, Note_on_c, 0, 80, 89
1, 67026, Note_off_c, 0, 68, 62
1, 67043, Note_off_c, 0, 72, 60
1, 67065, Note_off_c, 0, 80, 66
1, 67124, Note_on_c, 0, 78, 84
1, 67186, Note_off_c, 0, 78, 58
1, 67206, Note_on_c, 0, 68, 73
1, 67235, Note_off_c, 0, 68, 67
1, 67325, Note_on_c, 0, 72, 84
1, 67410, Note_off_c, 0, 72, 61
1, 67415, Note_on_c, 0, 66, 76
1, 67462, Note_off_c, 0, 66, 65
1, 67527, Note_on_c, 0, 90, 77
1, 67528, Note_on_c, 0, 81, 83
1, 67529, Note_on_c, 0, 93, 82
1, 67549, Note_on_c, 0, 56, 68
1, 67562, Note_off_c, 0, 81, 58
1, 67571, Note_off_c, 0, 93, 58
1, 67603, Note_off_c, 0, 90, 62
1, 67609, Note_off_c, 0, 56, 55
1, 67639, Note_on_c, 0, 84, 63
1, 67647, Note_on_c, 0, 80, 87
1, 67648, Note_on_c, 0, 92, 91
1, 67699, Note_off_c, 0, 92, 65
1, 67719, Note_off_c, 0, 84, 64
1, 67727, Note_off_c, 0, 80, 62
1, 67738, Note_on_c, 0, 54, 77
1, 67808, Note_off_c, 0, 54, 58
1, 67857, Note_on_c, 0, 44, 77
1, 67914, Note_off_c, 0, 44, 59
1, 67992, Note_on_c, 0, 44, 78
1, 68046, Note_off_c, 0, 44, 62
1, 68054, Control_c, 0, 64, 85
1, 68069, Control_c, 0, 64, 61
1, 68083, Control_c, 0, 64, 0
1, 68108, Note_on_c, 0, 32, 69
1, 68112, Note_on_c, 0, 42, 82
1, 68114, Note_on_c, 0, 54, 78
1, 68167, Note_off_c, 0, 42, 62
1, 68178, Note_off_c, 0, 54, 61
1, 68179, Note_off_c, 0, 32, 61
1, 68219, Note_on_c, 0, 53, 78
1, 68223, Note_on_c, 0, 41, 84
1, 68281, Note_off_c, 0, 41, 64
1, 68285, Note_off_c, 0, 53, 64
1, 68378, Note_on_c, 0, 52, 93
1, 68380, Note_on_c, 0, 40, 88
1, 68387, Note_on_c, 0, 37, 82
1, 68388, Note_on_c, 0, 25, 83
1, 68409, Control_c, 0, 64, 52
1, 68424, Control_c, 0, 64, 88
1, 68438, Control_c, 0, 64, 127
1, 68444, Note_off_c, 0, 40, 62
1, 68459, Note_off_c, 0, 25, 63
1, 68491, Note_off_c, 0, 37, 62
1, 68678, Note_off_c, 0, 52, 59
1, 68775, Note_on_c, 0, 37, 62
1, 68880, Note_on_c, 0, 44, 64
1, 68945, Note_off_c, 0, 37, 30
1, 68977, Note_off_c, 0, 44, 60
1, 68984, Note_on_c, 0, 49, 62
1, 69024, Note_off_c, 0, 49, 59
1, 69172, Note_on_c, 0, 56, 65
1, 69216, Note_on_c, 0, 64, 86
1, 69315, Note_off_c, 0, 56, 60
1, 69318, Note_on_c, 0, 49, 64
1, 69395, Note_on_c, 0, 44, 60
1, 69395, Note_off_c, 0, 49, 62
1, 69428, Note_off_c, 0, 44, 64
1, 69516, Note_on_c, 0, 37, 72
1, 69583, Note_on_c, 0, 25, 75
1, 69592, Note_off_c, 0, 37, 57
1, 69613, Note_off_c, 0, 25, 68
1, 69750, Note_on_c, 0, 44, 74
1, 69818, Note_on_c, 0, 56, 88
1, 69839, Note_off_c, 0, 44, 37
1, 69896, Note_on_c, 0, 49, 69
1, 69926, Note_off_c, 0, 56, 60
1, 69972, Note_on_c, 0, 44, 68
1, 69983, Note_off_c, 0, 49, 64
1, 70011, Note_off_c, 0, 44, 58
1, 70094, Note_on_c, 0, 37, 81
1, 70128, Note_off_c, 0, 64, 57
1, 70155, Note_on_c, 0, 25, 80
1, 70164, Note_off_c, 0, 37, 60
1, 70206, Note_off_c, 0, 25, 65
1, 70271, Control_c, 0, 64, 83
1, 70277, Note_on_c, 0, 63, 70
1, 70285, Control_c, 0, 64, 62
1, 70300, Control_c, 0, 64, 0
1, 70325, Note_on_c, 0, 61, 67
1, 70356, Note_off_c, 0, 63, 58
1, 70362, Note_on_c, 0, 43, 66
1, 70379, Note_on_c, 0, 59, 69
1, 70407, Note_off_c, 0, 61, 63
1, 70435, Note_on_c, 0, 58, 105
1, 70445, Note_on_c, 0, 55, 85
1, 70461, Note_off_c, 0, 59, 64
1, 70507, Control_c, 0, 64, 71
1, 70522, Control_c, 0, 64, 127
1, 70540, Note_off_c, 0, 58, 59
1, 70560, Note_off_c, 0, 43, 37
1, 70570, Note_off_c, 0, 55, 59
1, 70582, Note_on_c, 0, 49, 69
1, 70641, Note_off_c, 0, 49, 64
1, 70667, Note_on_c, 0, 43, 65
1, 70699, Note_off_c, 0, 43, 62
1, 70715, Note_on_c, 0, 47, 82
1, 70741, Note_off_c, 0, 47, 68
1, 70802, Note_on_c, 0, 46, 94
1, 70818, Note_on_c, 0, 37, 61
1, 70851, Note_off_c, 0, 37, 59
1, 70862, Note_off_c, 0, 46, 59
1, 70863, Note_on_c, 0, 25, 73
1, 70901, Note_off_c, 0, 25, 65
1, 71124, Note_on_c, 0, 55, 63
1, 71190, Note_off_c, 0, 55, 61
1, 71190, Note_on_c, 0, 49, 60
1, 71254, Note_on_c, 0, 43, 59
1, 71258, Note_off_c, 0, 49, 63
1, 71289, Note_off_c, 0, 43, 61
1, 71413, Note_on_c, 0, 37, 72
1, 71417, Note_on_c, 0, 34, 102
1, 71473, Note_off_c, 0, 34, 59
1, 71474, Note_on_c, 0, 25, 73
1, 71492, Note_off_c, 0, 37, 59
1, 71525, Note_off_c, 0, 25, 65
1, 71668, Note_on_c, 0, 43, 67
1, 71732, Note_off_c, 0, 43, 60
1, 71750, Note_on_c, 0, 55, 75
1, 71814, Note_off_c, 0, 55, 59
1, 71817, Note_on_c, 0, 49, 68
1, 71891, Note_off_c, 0, 49, 63
1, 71907, Note_on_c, 0, 43, 66
1, 71938, Note_off_c, 0, 43, 60
1, 71944, Note_on_c, 0, 47, 84
1, 72002, Note_off_c, 0, 47, 64
1, 72031, Note_on_c, 0, 46, 99
1, 72038, Note_on_c, 0, 37, 72
1, 72081, Note_off_c, 0, 46, 62
1, 72095, Note_on_c, 0, 25, 79
1, 72100, Note_off_c, 0, 37, 46
1, 72163, Note_off_c, 0, 25, 62
1, 72242, Note_on_c, 0, 54, 69
1, 72257, Control_c, 0, 64, 119
1, 72272, Control_c, 0, 64, 79
1, 72287, Control_c, 0, 64, 52
1, 72290, Note_off_c, 0, 54, 61
1, 72302, Control_c, 0, 64, 0
1, 72306, Note_on_c, 0, 42, 63
1, 72325, Note_on_c, 0, 57, 76
1, 72442, Note_on_c, 0, 69, 97
1, 72456, Note_on_c, 0, 54, 73
1, 72503, Note_off_c, 0, 42, 54
1, 72517, Control_c, 0, 64, 50
1, 72531, Control_c, 0, 64, 68
1, 72547, Note_on_c, 0, 45, 61
1, 72547, Control_c, 0, 64, 77
1, 72555, Note_off_c, 0, 54, 61
1, 72562, Control_c, 0, 64, 95
1, 72577, Control_c, 0, 64, 127
1, 72612, Note_on_c, 0, 42, 69
1, 72626, Note_off_c, 0, 45, 62
1, 72654, Note_off_c, 0, 42, 62
1, 72750, Note_on_c, 0, 37, 64
1, 72794, Note_on_c, 0, 25, 72
1, 72802, Note_off_c, 0, 37, 62
1, 72856, Note_off_c, 0, 25, 63
1, 72984, Note_on_c, 0, 42, 66
1, 73052, Note_off_c, 0, 42, 59
1, 73074, Note_on_c, 0, 54, 90
1, 73172, Note_on_c, 0, 45, 63
1, 73172, Note_off_c, 0, 54, 61
1, 73249, Note_on_c, 0, 42, 68
1, 73263, Note_off_c, 0, 45, 63
1, 73291, Note_off_c, 0, 42, 64
1, 73378, Note_on_c, 0, 37, 80
1, 73431, Note_off_c, 0, 37, 62
1, 73433, Note_on_c, 0, 25, 59
1, 73472, Note_on_c, 0, 24, 37
1, 73484, Note_off_c, 0, 25, 64
1, 73492, Note_off_c, 0, 57, 58
1, 73515, Note_off_c, 0, 24, 44
1, 73598, Note_on_c, 0, 42, 80
1, 73670, Note_off_c, 0, 42, 59
1, 73682, Note_on_c, 0, 54, 90
1, 73772, Note_on_c, 0, 45, 65
1, 73785, Note_off_c, 0, 54, 61
1, 73835, Note_on_c, 0, 42, 70
1, 73849, Note_off_c, 0, 45, 62
1, 73882, Note_off_c, 0, 42, 62
1, 73971, Note_on_c, 0, 37, 74
1, 74011, Note_off_c, 0, 69, 54
1, 74014, Note_on_c, 0, 25, 73
1, 74019, Note_off_c, 0, 37, 62
1, 74046, Note_on_c, 0, 24, 53
1, 74069, Note_off_c, 0, 25, 64
1, 74084, Note_off_c, 0, 24, 51
1, 74103, Note_on_c, 0, 68, 65
1, 74117, Control_c, 0, 64, 104
1, 74132, Control_c, 0, 64, 75
1, 74148, Note_on_c, 0, 66, 66
1, 74148, Control_c, 0, 64, 35
1, 74163, Control_c, 0, 64, 0
1, 74179, Note_off_c, 0, 68, 63
1, 74201, Note_on_c, 0, 64, 77
1, 74209, Note_on_c, 0, 43, 64
1, 74230, Note_off_c, 0, 66, 65
1, 74269, Note_on_c, 0, 63, 108
1, 74274, Note_off_c, 0, 64, 65
1, 74284, Note_on_c, 0, 55, 86
1, 74326, Control_c, 0, 64, 59
1, 74341, Control_c, 0, 64, 88
1, 74356, Control_c, 0, 64, 127
1, 74373, Note_off_c, 0, 63, 58
1, 74397, Note_off_c, 0, 43, 50
1, 74420, Note_off_c, 0, 55, 54
1, 74443, Note_on_c, 0, 49, 64
1, 74513, Note_off_c, 0, 49, 63
1, 74534, Note_on_c, 0, 43, 57
1, 74561, Note_on_c, 0, 52, 77
1, 74568, Note_off_c, 0, 43, 63
1, 74592, Note_off_c, 0, 52, 66
1, 74662, Note_on_c, 0, 51, 89
1, 74682, Note_on_c, 0, 37, 61
1, 74722, Note_off_c, 0, 51, 59
1, 74736, Note_on_c, 0, 25, 81
1, 74743, Note_off_c, 0, 37, 57
1, 74786, Note_off_c, 0, 25, 64
1, 74934, Note_on_c, 0, 43, 58
1, 74986, Note_on_c, 0, 55, 67
1, 74987, Note_off_c, 0, 43, 51
1, 75052, Note_on_c, 0, 49, 70
1, 75058, Note_off_c, 0, 55, 57
1, 75115, Note_off_c, 0, 49, 64
1, 75134, Note_on_c, 0, 43, 58
1, 75163, Note_off_c, 0, 43, 63
1, 75186, Note_on_c, 0, 40, 84
1, 75242, Note_off_c, 0, 40, 63
1, 75276, Note_on_c, 0, 39, 95
1, 75278, Note_on_c, 0, 37, 69
1, 75323, Note_on_c, 0, 25, 82
1, 75335, Note_off_c, 0, 39, 63
1, 75339, Note_off_c, 0, 37, 61
1, 75381, Note_off_c, 0, 25, 64
1, 75525, Note_on_c, 0, 43, 68
1, 75585, Note_off_c, 0, 43, 59
1, 75600, Note_on_c, 0, 55, 68
1, 75659, Note_on_c, 0, 49, 66
1, 75663, Note_off_c, 0, 55, 59
1, 75736, Note_off_c, 0, 49, 65
1, 75744, Note_on_c, 0, 43, 68
1, 75769, Note_on_c, 0, 52, 86
1, 75773, Note_off_c, 0, 43, 65
1, 75815, Note_off_c, 0, 52, 66
1, 75876, Note_on_c, 0, 51, 83
1, 75881, Note_on_c, 0, 37, 77
1, 75934, Note_on_c, 0, 25, 79
1, 75939, Note_off_c, 0, 51, 59
1, 75947, Note_off_c, 0, 37, 63
1, 76001, Note_off_c, 0, 25, 63
1, 76027, Note_on_c, 0, 56, 71
1, 76075, Control_c, 0, 64, 120
1, 76086, Note_off_c, 0, 56, 62
1, 76089, Control_c, 0, 64, 81
1, 76090, Note_on_c, 0, 61, 68
1, 76104, Control_c, 0, 64, 58
1, 76119, Control_c, 0, 64, 0
1, 76130, Note_on_c, 0, 44, 66
1, 76138, Note_off_c, 0, 61, 61
1, 76186, Note_on_c, 0, 64, 79
1, 76290, Note_on_c, 0, 76, 100
1, 76301, Note_on_c, 0, 56, 78
1, 76319, Control_c, 0, 64, 55
1, 76334, Note_off_c, 0, 44, 51
1, 76334, Control_c, 0, 64, 78
1, 76348, Control_c, 0, 64, 109
1, 76363, Control_c, 0, 64, 127
1, 76385, Note_off_c, 0, 56, 61
1, 76387, Note_on_c, 0, 49, 68
1, 76453, Note_on_c, 0, 44, 71
1, 76461, Note_off_c, 0, 49, 64
1, 76485, Note_off_c, 0, 44, 61
1, 76585, Note_on_c, 0, 37, 72
1, 76633, Note_on_c, 0, 25, 75
1, 76645, Note_off_c, 0, 37, 63
1, 76688, Note_off_c, 0, 25, 64
1, 76809, Note_on_c, 0, 44, 81
1, 76871, Note_off_c, 0, 44, 60
1, 76892, Note_on_c, 0, 56, 90
1, 76983, Note_on_c, 0, 49, 70
1, 76997, Note_off_c, 0, 56, 61
1, 77062, Note_on_c, 0, 44, 70
1, 77073, Note_off_c, 0, 49, 63
1, 77103, Note_off_c, 0, 44, 61
1, 77188, Note_on_c, 0, 37, 78
1, 77209, Note_off_c, 0, 64, 56
1, 77241, Note_on_c, 0, 25, 78
1, 77253, Note_off_c, 0, 37, 62
1, 77285, Note_on_c, 0, 24, 40
1, 77302, Note_off_c, 0, 25, 64
1, 77330, Note_off_c, 0, 24, 45
1, 77422, Note_on_c, 0, 44, 84
1, 77483, Note_off_c, 0, 44, 60
1, 77503, Note_on_c, 0, 56, 90
1, 77578, Note_on_c, 0, 49, 71
1, 77598, Note_off_c, 0, 56, 63
1, 77651, Note_on_c, 0, 44, 72
1, 77664, Note_off_c, 0, 49, 63
1, 77688, Note_off_c, 0, 44, 63
1, 77778, Note_on_c, 0, 37, 77
1, 77779, Note_on_c, 0, 75, 68
1, 77814, Note_off_c, 0, 76, 60
1, 77815, Note_on_c, 0, 73, 76
1, 77822, Note_on_c, 0, 25, 78
1, 77834, Note_off_c, 0, 37, 62
1, 77837, Note_off_c, 0, 75, 62
1, 77864, Note_on_c, 0, 24, 46
1, 77868, Note_off_c, 0, 73, 65
1, 77873, Note_on_c, 0, 71, 64
1, 77891, Note_off_c, 0, 25, 64
1, 77891, Control_c, 0, 64, 118
1, 77906, Control_c, 0, 64, 82
1, 77907, Note_off_c, 0, 24, 48
1, 77920, Control_c, 0, 64, 61
1, 77935, Control_c, 0, 64, 0
1, 77961, Note_off_c, 0, 71, 59
1, 77962, Note_on_c, 0, 70, 73
1, 78009, Note_on_c, 0, 68, 75
1, 78020, Note_on_c, 0, 46, 78
1, 78023, Note_off_c, 0, 70, 63
1, 78085, Note_on_c, 0, 67, 105
1, 78102, Note_off_c, 0, 68, 58
1, 78105, Note_on_c, 0, 58, 89
1, 78144, Control_c, 0, 64, 72
1, 78158, Control_c, 0, 64, 106
1, 78173, Control_c, 0, 64, 127
1, 78204, Note_off_c, 0, 67, 58
1, 78227, Note_off_c, 0, 46, 51
1, 78250, Note_off_c, 0, 58, 55
1, 78269, Note_on_c, 0, 49, 62
1, 78350, Note_on_c, 0, 46, 66
1, 78371, Note_off_c, 0, 49, 53
1, 78398, Note_on_c, 0, 56, 76
1, 78407, Note_off_c, 0, 46, 61
1, 78430, Note_off_c, 0, 56, 59
1, 78490, Note_on_c, 0, 55, 94
1, 78510, Note_on_c, 0, 37, 65
1, 78537, Note_off_c, 0, 55, 61
1, 78561, Note_on_c, 0, 25, 72
1, 78568, Note_off_c, 0, 37, 61
1, 78612, Note_off_c, 0, 25, 65
1, 78755, Note_on_c, 0, 46, 62
1, 78797, Note_on_c, 0, 58, 73
1, 78802, Note_off_c, 0, 46, 55
1, 78872, Note_off_c, 0, 58, 63
1, 78882, Note_on_c, 0, 49, 63
1, 78947, Note_on_c, 0, 46, 60
1, 78964, Note_off_c, 0, 49, 62
1, 78980, Note_off_c, 0, 46, 63
1, 79009, Note_on_c, 0, 44, 84
1, 79059, Note_off_c, 0, 44, 61
1, 79091, Note_on_c, 0, 43, 101
1, 79098, Note_on_c, 0, 37, 72
1, 79138, Note_on_c, 0, 25, 80
1, 79144, Note_off_c, 0, 43, 63
1, 79149, Note_off_c, 0, 37, 61
1, 79208, Note_off_c, 0, 25, 64
1, 79337, Note_on_c, 0, 46, 78
1, 79408, Note_on_c, 0, 58, 78
1, 79414, Note_off_c, 0, 46, 53
1, 79487, Note_on_c, 0, 49, 65
1, 79498, Note_off_c, 0, 58, 60
1, 79551, Note_on_c, 0, 46, 75
1, 79570, Note_off_c, 0, 49, 63
1, 79599, Note_off_c, 0, 46, 61
1, 79614, Note_on_c, 0, 56, 80
1, 79685, Note_off_c, 0, 56, 51
1, 79698, Note_on_c, 0, 37, 69
1, 79702, Note_on_c, 0, 55, 89
1, 79745, Note_off_c, 0, 55, 63
1, 79760, Note_on_c, 0, 25, 80
1, 79773, Note_off_c, 0, 37, 59
1, 79811, Note_off_c, 0, 25, 64
1, 79928, Note_on_c, 0, 59, 48
1, 79933, Note_on_c, 0, 60, 51
1, 79976, Note_off_c, 0, 60, 62
1, 79983, Note_off_c, 0, 59, 64
1, 79994, Note_on_c, 0, 64, 70
1, 80004, Control_c, 0, 64, 105
1, 80019, Control_c, 0, 64, 84
1, 80021, Note_off_c, 0, 64, 69
1, 80027, Note_on_c, 0, 47, 48
1, 80030, Note_on_c, 0, 45, 47
1, 80034, Control_c, 0, 64, 66
1, 80049, Control_c, 0, 64, 27
1, 80063, Control_c, 0, 64, 0
1, 80070, Note_off_c, 0, 45, 62
1, 80103, Note_on_c, 0, 67, 92
1, 80193, Note_on_c, 0, 59, 68
1, 80196, Note_on_c, 0, 79, 99
1, 80255, Note_off_c, 0, 47, 61
1, 80255, Control_c, 0, 64, 26
1, 80270, Control_c, 0, 64, 66
1, 80285, Control_c, 0, 64, 83
1, 80293, Note_on_c, 0, 52, 68
1, 80300, Control_c, 0, 64, 127
1, 80302, Note_off_c, 0, 59, 61
1, 80381, Note_off_c, 0, 52, 65
1, 80386, Note_on_c, 0, 47, 66
1, 80427, Note_off_c, 0, 47, 62
1, 80514, Note_on_c, 0, 47, 75
1, 80574, Note_off_c, 0, 47, 62
1, 80598, Note_on_c, 0, 37, 72
1, 80679, Note_on_c, 0, 47, 70
1, 80684, Note_off_c, 0, 37, 62
1, 80715, Note_off_c, 0, 47, 67
1, 80829, Note_on_c, 0, 59, 85
1, 80851, Note_off_c, 0, 67, 50
1, 80920, Note_off_c, 0, 59, 48
1, 80935, Note_on_c, 0, 52, 68
1, 81021, Note_on_c, 0, 47, 75
1, 81024, Note_off_c, 0, 52, 63
1, 81072, Note_off_c, 0, 47, 63
1, 81093, Control_c, 0, 64, 105
1, 81108, Control_c, 0, 64, 71
1, 81123, Control_c, 0, 64, 33
1, 81137, Control_c, 0, 64, 0
1, 81142, Note_on_c, 0, 47, 76
1, 81205, Note_off_c, 0, 47, 64
1, 81212, Control_c, 0, 64, 53
1, 81222, Note_on_c, 0, 37, 81
1, 81227, Control_c, 0, 64, 69
1, 81241, Control_c, 0, 64, 90
1, 81256, Control_c, 0, 64, 127
1, 81333, Note_on_c, 0, 48, 75
1, 81342, Note_off_c, 0, 37, 59
1, 81368, Note_off_c, 0, 48, 63
1, 81474, Note_off_c, 0, 79, 57
1, 81480, Note_on_c, 0, 78, 105
1, 81503, Note_on_c, 0, 60, 83
1, 81596, Note_on_c, 0, 51, 65
1, 81605, Note_off_c, 0, 60, 59
1, 81697, Note_on_c, 0, 48, 72
1, 81707, Note_off_c, 0, 51, 58
1, 81753, Note_off_c, 0, 48, 65
1, 81831, Note_on_c, 0, 48, 85
1, 81901, Note_off_c, 0, 48, 58
1, 81928, Note_on_c, 0, 37, 79
1, 82034, Note_off_c, 0, 37, 58
1, 82036, Note_on_c, 0, 48, 68
1, 82068, Note_off_c, 0, 48, 65
1, 82195, Note_on_c, 0, 60, 88
1, 82294, Note_off_c, 0, 60, 55
1, 82332, Note_on_c, 0, 51, 77
1, 82425, Note_off_c, 0, 51, 59
1, 82452, Note_on_c, 0, 48, 72
1, 82510, Note_off_c, 0, 48, 61
1, 82606, Note_on_c, 0, 48, 89
1, 82710, Note_off_c, 0, 48, 58
1, 82814, Control_c, 0, 64, 113
1, 82816, Note_on_c, 0, 37, 91
1, 82829, Control_c, 0, 64, 80
1, 82844, Control_c, 0, 64, 57
1, 82858, Control_c, 0, 64, 0
1, 83030, Control_c, 0, 64, 61
1, 83045, Control_c, 0, 64, 79
1, 83051, Note_on_c, 0, 47, 95
1, 83060, Control_c, 0, 64, 127
1, 83081, Note_off_c, 0, 37, 61
1, 83102, Note_off_c, 0, 47, 64
1, 83105, Note_off_c, 0, 78, 59
1, 83327, Note_on_c, 0, 77, 112
1, 83344, Note_on_c, 0, 61, 94
1, 83411, Note_off_c, 0, 77, 59
1, 83432, Note_off_c, 0, 61, 61
1, 83513, Note_on_c, 0, 53, 68
1, 83615, Note_off_c, 0, 53, 65
1, 83616, Note_on_c, 0, 47, 77
1, 83661, Note_off_c, 0, 47, 63
1, 83813, Note_on_c, 0, 37, 96
1, 83813, Note_on_c, 0, 57, 99
1, 83815, Note_on_c, 0, 69, 101
1, 83901, Note_off_c, 0, 57, 62
1, 83902, Poly_aftertouch_c, 0, 66, 127
1, 83937, Poly_aftertouch_c, 0, 66, 0
1, 83963, Note_off_c, 0, 69, 68
1, 84005, Note_on_c, 0, 25, 87
1, 84040, Note_off_c, 0, 37, 55
1, 84060, Note_off_c, 0, 25, 64
1, 84225, Note_on_c, 0, 47, 80
1, 84264, Note_on_c, 0, 78, 87
1, 84277, Note_off_c, 0, 47, 62
1, 84306, Note_off_c, 0, 78, 63
1, 84342, Note_on_c, 0, 77, 103
1, 84361, Note_on_c, 0, 61, 89
1, 84455, Note_off_c, 0, 61, 58
1, 84506, Poly_aftertouch_c, 0, 49, 0
1, 84506, Note_on_c, 0, 53, 70
1, 84616, Note_on_c, 0, 47, 74
1, 84616, Note_off_c, 0, 53, 65
1, 84660, Note_off_c, 0, 47, 63
1, 84776, Note_on_c, 0, 37, 95
1, 84905, Note_on_c, 0, 25, 84
1, 84923, Note_off_c, 0, 37, 63
1, 84956, Note_off_c, 0, 25, 64
1, 85089, Note_on_c, 0, 47, 81
1, 85120, Note_off_c, 0, 47, 65
1, 85187, Note_off_c, 0, 77, 55
1, 85220, Note_on_c, 0, 61, 94
1, 85316, Note_off_c, 0, 61, 60
1, 85362, Note_on_c, 0, 53, 71
1, 85477, Note_off_c, 0, 53, 65
1, 85480, Note_on_c, 0, 47, 76
1, 85522, Note_off_c, 0, 47, 63
1, 85661, Note_on_c, 0, 37, 95
1, 85661, Note_on_c, 0, 56, 98
1, 85662, Note_on_c, 0, 68, 91
1, 85707, Note_off_c, 0, 56, 64
1, 85751, Note_off_c, 0, 68, 67
1, 85827, Note_on_c, 0, 25, 82
1, 85859, Note_off_c, 0, 37, 52
1, 85868, Note_off_c, 0, 25, 63
1, 86010, Note_on_c, 0, 83, 66
1, 86036, Note_on_c, 0, 81, 75
1, 86053, Note_on_c, 0, 47, 78
1, 86079, Note_on_c, 0, 80, 78
1, 86081, Note_off_c, 0, 83, 56
1, 86105, Note_off_c, 0, 47, 60
1, 86111, Note_off_c, 0, 81, 63
1, 86116, Note_on_c, 0, 78, 79
1, 86143, Note_on_c, 0, 77, 100
1, 86166, Note_on_c, 0, 61, 90
1, 86168, Note_off_c, 0, 80, 63
1, 86181, Note_off_c, 0, 78, 63
1, 86210, Note_off_c, 0, 77, 56
1, 86227, Note_off_c, 0, 61, 60
1, 86294, Note_on_c, 0, 53, 71
1, 86402, Note_off_c, 0, 53, 65
1, 86408, Note_on_c, 0, 47, 75
1, 86451, Note_off_c, 0, 47, 65
1, 86570, Note_on_c, 0, 55, 94
1, 86575, Note_on_c, 0, 67, 91
1, 86580, Note_on_c, 0, 37, 95
1, 86616, Note_off_c, 0, 55, 64
1, 86652, Note_off_c, 0, 67, 65
1, 86740, Note_on_c, 0, 25, 88
1, 86771, Note_off_c, 0, 37, 54
1, 86792, Note_off_c, 0, 25, 64
1, 86884, Note_on_c, 0, 76, 72
1, 86922, Control_c, 0, 64, 102
1, 86933, Note_on_c, 0, 75, 77
1, 86937, Control_c, 0, 64, 74
1, 86948, Note_off_c, 0, 76, 66
1, 86952, Control_c, 0, 64, 44
1, 86963, Note_on_c, 0, 46, 72
1, 86967, Control_c, 0, 64, 0
1, 86989, Note_on_c, 0, 74, 61
1, 86995, Note_off_c, 0, 75, 66
1, 87033, Note_off_c, 0, 46, 61
1, 87079, Note_on_c, 0, 73, 99
1, 87090, Note_on_c, 0, 61, 92
1, 87105, Note_off_c, 0, 74, 68
1, 87248, Control_c, 0, 64, 53
1, 87263, Control_c, 0, 64, 72
1, 87269, Note_off_c, 0, 61, 60
1, 87271, Note_on_c, 0, 55, 68
1, 87278, Control_c, 0, 64, 87
1, 87293, Control_c, 0, 64, 127
1, 87294, Note_off_c, 0, 73, 59
1, 87378, Note_off_c, 0, 55, 62
1, 87397, Note_on_c, 0, 46, 69
1, 87465, Note_off_c, 0, 46, 61
1, 87559, Note_on_c, 0, 53, 91
1, 87562, Note_on_c, 0, 65, 92
1, 87563, Note_on_c, 0, 37, 89
1, 87607, Note_off_c, 0, 53, 66
1, 87658, Note_off_c, 0, 65, 68
1, 87676, Note_on_c, 0, 25, 85
1, 87695, Note_off_c, 0, 37, 63
1, 87734, Note_off_c, 0, 25, 64
1, 87879, Note_on_c, 0, 46, 85
1, 87925, Note_on_c, 0, 74, 81
1, 87942, Note_off_c, 0, 46, 58
1, 87974, Note_off_c, 0, 74, 63
1, 88004, Note_on_c, 0, 73, 103
1, 88009, Note_on_c, 0, 61, 87
1, 88123, Note_off_c, 0, 61, 59
1, 88144, Note_on_c, 0, 55, 69
1, 88254, Note_off_c, 0, 55, 61
1, 88271, Note_on_c, 0, 46, 72
1, 88330, Note_off_c, 0, 46, 62
1, 88423, Note_on_c, 0, 37, 90
1, 88531, Note_on_c, 0, 25, 82
1, 88552, Note_off_c, 0, 37, 63
1, 88569, Note_off_c, 0, 25, 66
1, 88707, Note_on_c, 0, 46, 85
1, 88763, Note_off_c, 0, 46, 59
1, 88838, Note_on_c, 0, 61, 97
1, 88872, Note_off_c, 0, 73, 59
1, 88978, Note_off_c, 0, 61, 59
1, 88981, Note_on_c, 0, 55, 71
1, 89076, Note_off_c, 0, 55, 61
1, 89097, Note_on_c, 0, 46, 73
1, 89160, Note_off_c, 0, 46, 62
1, 89264, Note_on_c, 0, 52, 100
1, 89266, Note_on_c, 0, 37, 91
1, 89267, Note_on_c, 0, 64, 91
1, 89304, Note_off_c, 0, 52, 68
1, 89344, Note_off_c, 0, 64, 67
1, 89395, Note_on_c, 0, 25, 87
1, 89419, Note_off_c, 0, 37, 62
1, 89454, Note_off_c, 0, 25, 64
1, 89555, Note_on_c, 0, 80, 74
1, 89600, Note_on_c, 0, 77, 61
1, 89609, Note_on_c, 0, 46, 84
1, 89617, Note_on_c, 0, 76, 77
1, 89633, Note_off_c, 0, 80, 62
1, 89653, Note_on_c, 0, 74, 70
1, 89676, Note_off_c, 0, 77, 61
1, 89678, Note_off_c, 0, 46, 59
1, 89679, Note_off_c, 0, 76, 64
1, 89706, Note_on_c, 0, 73, 107
1, 89728, Note_off_c, 0, 74, 64
1, 89734, Note_on_c, 0, 61, 88
1, 89757, Note_off_c, 0, 73, 64
1, 89842, Note_off_c, 0, 61, 58
1, 89842, Note_on_c, 0, 55, 72
1, 89940, Note_off_c, 0, 55, 61
1, 89958, Note_on_c, 0, 46, 73
1, 90007, Note_off_c, 0, 46, 64
1, 90118, Note_on_c, 0, 51, 93
1, 90122, Note_on_c, 0, 63, 88
1, 90125, Note_on_c, 0, 37, 96
1, 90157, Note_off_c, 0, 51, 64
1, 90188, Note_off_c, 0, 63, 63
1, 90244, Note_on_c, 0, 25, 86
1, 90264, Note_off_c, 0, 37, 64
1, 90301, Note_off_c, 0, 25, 64
1, 90409, Note_on_c, 0, 74, 68
1, 90448, Note_on_c, 0, 73, 70
1, 90468, Note_on_c, 0, 46, 77
1, 90478, Note_off_c, 0, 74, 64
1, 90486, Control_c, 0, 64, 86
1, 90494, Note_on_c, 0, 72, 75
1, 90501, Control_c, 0, 64, 64
1, 90515, Control_c, 0, 64, 0
1, 90522, Note_off_c, 0, 73, 62
1, 90542, Note_off_c, 0, 72, 65
1, 90543, Note_on_c, 0, 71, 77
1, 90570, Note_off_c, 0, 46, 53
1, 90610, Note_on_c, 0, 58, 93
1, 90615, Note_on_c, 0, 70, 98
1, 90640, Note_off_c, 0, 71, 61
1, 90783, Control_c, 0, 64, 63
1, 90788, Note_on_c, 0, 52, 71
1, 90797, Note_off_c, 0, 58, 62
1, 90797, Control_c, 0, 64, 77
1, 90812, Control_c, 0, 64, 110
1, 90827, Control_c, 0, 64, 127
1, 90835, Note_off_c, 0, 70, 61
1, 90840, Note_off_c, 0, 52, 66
1, 90957, Note_on_c, 0, 42, 77
1, 90992, Note_off_c, 0, 42, 59
1, 91128, Note_on_c, 0, 50, 76
1, 91131, Note_on_c, 0, 62, 80
1, 91141, Note_on_c, 0, 37, 70
1, 91168, Note_off_c, 0, 50, 60
1, 91219, Note_off_c, 0, 62, 62
1, 91224, Note_off_c, 0, 37, 60
1, 91243, Note_on_c, 0, 25, 74
1, 91300, Note_off_c, 0, 25, 63
1, 91451, Note_on_c, 0, 46, 62
1, 91498, Note_off_c, 0, 46, 56
1, 91507, Note_on_c, 0, 71, 74
1, 91563, Note_off_c, 0, 71, 60
1, 91564, Note_on_c, 0, 58, 59
1, 91570, Note_on_c, 0, 70, 89
1, 91666, Note_off_c, 0, 58, 62
1, 91672, Note_on_c, 0, 52, 62
1, 91703, Note_off_c, 0, 52, 66
1, 91815, Note_on_c, 0, 42, 68
1, 91856, Note_off_c, 0, 42, 59
1, 91968, Note_on_c, 0, 37, 69
1, 92060, Note_on_c, 0, 25, 68
1, 92062, Note_off_c, 0, 37, 47
1, 92103, Note_off_c, 0, 25, 64
1, 92248, Note_on_c, 0, 46, 71
1, 92312, Note_off_c, 0, 46, 55
1, 92354, Note_on_c, 0, 58, 66
1, 92396, Note_off_c, 0, 70, 59
1, 92450, Note_off_c, 0, 58, 62
1, 92466, Note_on_c, 0, 52, 67
1, 92501, Note_off_c, 0, 52, 65
1, 92617, Note_on_c, 0, 42, 70
1, 92695, Note_off_c, 0, 42, 59
1, 92837, Control_c, 0, 64, 93
1, 92852, Control_c, 0, 64, 72
1, 92858, Note_on_c, 0, 49, 66
1, 92858, Note_on_c, 0, 61, 73
1, 92867, Control_c, 0, 64, 48
1, 92875, Note_on_c, 0, 37, 53
1, 92882, Control_c, 0, 64, 0
1, 92927, Note_off_c, 0, 49, 62
1, 92941, Control_c, 0, 64, 45
1, 92956, Control_c, 0, 64, 66
1, 92971, Note_off_c, 0, 61, 63
1, 92971, Control_c, 0, 64, 85
1, 92986, Control_c, 0, 64, 127
1, 93044, Note_on_c, 0, 25, 70
1, 93094, Note_off_c, 0, 25, 62
1, 93115, Note_off_c, 0, 37, 62
1, 93207, Note_on_c, 0, 76, 60
1, 93268, Note_on_c, 0, 73, 66
1, 93269, Note_off_c, 0, 76, 64
1, 93271, Note_on_c, 0, 74, 37
1, 93282, Note_on_c, 0, 46, 55
1, 93306, Note_off_c, 0, 74, 64
1, 93308, Note_on_c, 0, 71, 54
1, 93332, Note_off_c, 0, 46, 54
1, 93332, Note_on_c, 0, 70, 71
1, 93332, Note_off_c, 0, 73, 62
1, 93350, Note_off_c, 0, 71, 61
1, 93368, Note_on_c, 0, 58, 55
1, 93378, Note_off_c, 0, 70, 64
1, 93422, Note_off_c, 0, 58, 61
1, 93444, Note_on_c, 0, 52, 63
1, 93471, Note_off_c, 0, 52, 67
1, 93585, Note_on_c, 0, 42, 68
1, 93621, Note_off_c, 0, 42, 59
1, 93747, Note_on_c, 0, 48, 54
1, 93748, Note_on_c, 0, 60, 70
1, 93764, Note_on_c, 0, 37, 54
1, 93778, Note_off_c, 0, 48, 65
1, 93806, Note_off_c, 0, 60, 62
1, 93877, Note_on_c, 0, 25, 69
1, 93928, Note_off_c, 0, 25, 61
1, 93934, Note_off_c, 0, 37, 33
1, 94064, Note_on_c, 0, 71, 55
1, 94119, Note_on_c, 0, 70, 65
1, 94131, Note_on_c, 0, 43, 58
1, 94134, Note_off_c, 0, 71, 61
1, 94184, Note_off_c, 0, 70, 65
1, 94200, Note_on_c, 0, 69, 58
1, 94216, Control_c, 0, 64, 96
1, 94231, Control_c, 0, 64, 76
1, 94245, Control_c, 0, 64, 61
1, 94256, Note_off_c, 0, 69, 62
1, 94260, Control_c, 0, 64, 11
1, 94269, Note_on_c, 0, 68, 63
1, 94275, Control_c, 0, 64, 0
1, 94325, Note_on_c, 0, 67, 69
1, 94328, Note_on_c, 0, 55, 40
1, 94331, Note_off_c, 0, 68, 63
1, 94408, Control_c, 0, 64, 42
1, 94423, Control_c, 0, 64, 60
1, 94438, Control_c, 0, 64, 70
1, 94453, Control_c, 0, 64, 86
1, 94456, Note_off_c, 0, 67, 60
1, 94468, Control_c, 0, 64, 127
1, 94473, Note_off_c, 0, 43, 50
1, 94488, Note_off_c, 0, 55, 49
1, 94498, Note_on_c, 0, 49, 59
1, 94573, Note_off_c, 0, 49, 63
1, 94610, Note_on_c, 0, 43, 59
1, 94648, Note_off_c, 0, 43, 59
1, 94778, Note_on_c, 0, 59, 69
1, 94778, Note_on_c, 0, 47, 67
1, 94781, Note_on_c, 0, 37, 62
1, 94808, Note_off_c, 0, 47, 65
1, 94836, Note_off_c, 0, 59, 64
1, 94870, Note_off_c, 0, 37, 56
1, 94895, Note_on_c, 0, 25, 70
1, 94951, Note_off_c, 0, 25, 64
1, 95119, Note_on_c, 0, 73, 65
1, 95149, Note_on_c, 0, 43, 57
1, 95163, Note_on_c, 0, 71, 51
1, 95185, Note_off_c, 0, 73, 62
1, 95188, Note_on_c, 0, 70, 71
1, 95228, Note_on_c, 0, 68, 67
1, 95233, Note_off_c, 0, 71, 61
1, 95261, Note_off_c, 0, 70, 64
1, 95278, Note_on_c, 0, 67, 81
1, 95279, Note_on_c, 0, 55, 59
1, 95308, Note_off_c, 0, 68, 61
1, 95341, Note_off_c, 0, 43, 30
1, 95389, Note_off_c, 0, 55, 55
1, 95430, Note_on_c, 0, 49, 62
1, 95520, Note_off_c, 0, 49, 63
1, 95544, Note_on_c, 0, 43, 65
1, 95580, Note_off_c, 0, 43, 61
1, 95689, Note_on_c, 0, 37, 79
1, 95769, Note_off_c, 0, 37, 62
1, 95794, Note_on_c, 0, 25, 78
1, 95833, Note_off_c, 0, 25, 65
1, 95971, Note_on_c, 0, 43, 70
1, 96054, Control_c, 0, 64, 92
1, 96069, Control_c, 0, 64, 68
1, 96084, Control_c, 0, 64, 0
1, 96111, Note_on_c, 0, 58, 93
1, 96117, Note_on_c, 0, 46, 76
1, 96118, Note_on_c, 0, 55, 82
1, 96173, Control_c, 0, 64, 47
1, 96188, Control_c, 0, 64, 67
1, 96193, Note_off_c, 0, 43, 48
1, 96203, Control_c, 0, 64, 84
1, 96217, Control_c, 0, 64, 127
1, 96242, Note_off_c, 0, 58, 62
1, 96253, Note_off_c, 0, 55, 56
1, 96268, Note_on_c, 0, 49, 68
1, 96316, Note_off_c, 0, 46, 36
1, 96371, Note_off_c, 0, 49, 62
1, 96375, Note_off_c, 0, 67, 35
1, 96387, Note_on_c, 0, 61, 63
1, 96393, Note_on_c, 0, 43, 65
1, 96434, Note_on_c, 0, 63, 71
1, 96437, Note_off_c, 0, 43, 61
1, 96453, Note_off_c, 0, 61, 61
1, 96479, Note_on_c, 0, 65, 69
1, 96511, Note_off_c, 0, 63, 61
1, 96532, Note_on_c, 0, 66, 82
1, 96554, Note_on_c, 0, 37, 79
1, 96565, Note_off_c, 0, 65, 66
1, 96575, Note_on_c, 0, 67, 91
1, 96623, Note_off_c, 0, 66, 65
1, 96635, Note_off_c, 0, 37, 60
1, 96664, Note_on_c, 0, 25, 77
1, 96711, Note_off_c, 0, 25, 64
1, 96849, Note_on_c, 0, 43, 71
1, 96966, Control_c, 0, 64, 118
1, 96981, Control_c, 0, 64, 85
1, 96996, Control_c, 0, 64, 64
1, 97004, Note_on_c, 0, 57, 93
1, 97011, Note_on_c, 0, 55, 87
1, 97011, Control_c, 0, 64, 0
1, 97013, Note_on_c, 0, 45, 73
1, 97078, Note_off_c, 0, 43, 54
1, 97115, Control_c, 0, 64, 14
1, 97130, Control_c, 0, 64, 64
1, 97145, Control_c, 0, 64, 80
1, 97159, Control_c, 0, 64, 127
1, 97164, Note_on_c, 0, 49, 77
1, 97171, Note_off_c, 0, 45, 59
1, 97198, Note_off_c, 0, 55, 58
1, 97313, Note_on_c, 0, 43, 74
1, 97313, Note_off_c, 0, 49, 60
1, 97359, Note_off_c, 0, 43, 61
1, 97475, Note_on_c, 0, 37, 96
1, 97621, Note_off_c, 0, 67, 58
1, 97654, Note_on_c, 0, 25, 87
1, 97688, Note_off_c, 0, 37, 58
1, 97702, Note_off_c, 0, 25, 64
1, 97714, Note_off_c, 0, 57, 54
1, 97834, Control_c, 0, 64, 85
1, 97849, Control_c, 0, 64, 63
1, 97863, Control_c, 0, 64, 0
1, 97893, Note_on_c, 0, 66, 78
1, 97903, Note_on_c, 0, 56, 80
1, 97911, Note_on_c, 0, 44, 69
1, 97936, Note_off_c, 0, 56, 67
1, 97949, Note_off_c, 0, 44, 65
1, 97958, Note_off_c, 0, 66, 62
1, 97997, Note_on_c, 0, 65, 79
1, 98013, Note_on_c, 0, 55, 73
1, 98024, Note_on_c, 0, 43, 64
1, 98040, Note_off_c, 0, 55, 66
1, 98053, Note_off_c, 0, 43, 63
1, 98054, Note_off_c, 0, 65, 66
1, 98094, Note_on_c, 0, 64, 96
1, 98113, Note_on_c, 0, 57, 81
1, 98129, Note_on_c, 0, 54, 83
1, 98144, Note_on_c, 0, 42, 67
1, 98168, Control_c, 0, 64, 50
1, 98183, Control_c, 0, 64, 69
1, 98198, Control_c, 0, 64, 77
1, 98206, Note_on_c, 0, 61, 21
1, 98212, Control_c, 0, 64, 88
1, 98227, Control_c, 0, 64, 103
1, 98242, Control_c, 0, 64, 127
1, 98255, Note_off_c, 0, 42, 60
1, 98268, Note_on_c, 0, 49, 70
1, 98269, Note_off_c, 0, 54, 57
1, 98377, Note_on_c, 0, 42, 64
1, 98396, Note_off_c, 0, 49, 61
1, 98441, Note_off_c, 0, 42, 61
1, 98457, Note_off_c, 0, 57, 36
1, 98513, Note_off_c, 0, 61, 41
1, 98521, Note_off_c, 0, 64, 58
1, 98540, Note_on_c, 0, 37, 71
1, 98635, Note_on_c, 0, 25, 72
1, 98641, Note_off_c, 0, 37, 43
1, 98705, Note_off_c, 0, 25, 63
1, 98855, Note_on_c, 0, 42, 64
1, 98983, Note_off_c, 0, 42, 53
1, 98993, Note_on_c, 0, 64, 80
1, 98996, Note_on_c, 0, 61, 66
1, 99010, Note_on_c, 0, 52, 62
1, 99014, Note_on_c, 0, 57, 57
1, 99030, Note_on_c, 0, 54, 59
1, 99043, Note_off_c, 0, 52, 63
1, 99053, Note_off_c, 0, 57, 56
1, 99099, Note_off_c, 0, 61, 57
1, 99142, Note_off_c, 0, 54, 58
1, 99147, Note_on_c, 0, 49, 63
1, 99255, Note_off_c, 0, 49, 62
1, 99261, Note_on_c, 0, 42, 66
1, 99304, Note_off_c, 0, 42, 63
1, 99387, Note_on_c, 0, 37, 90
1, 99449, Note_off_c, 0, 64, 52
1, 99502, Note_on_c, 0, 25, 80
1, 99531, Note_off_c, 0, 37, 59
1, 99554, Note_off_c, 0, 25, 63
1, 99696, Note_on_c, 0, 43, 73
1, 99770, Control_c, 0, 64, 122
1, 99784, Control_c, 0, 64, 86
1, 99799, Control_c, 0, 64, 61
1, 99814, Control_c, 0, 64, 0
1, 99821, Note_on_c, 0, 64, 96
1, 99826, Note_on_c, 0, 60, 83
1, 99833, Note_on_c, 0, 52, 84
1, 99835, Note_on_c, 0, 57, 74
1, 99836, Note_on_c, 0, 55, 77
1, 99935, Note_off_c, 0, 57, 0
1, 99941, Note_off_c, 0, 55, 55
1, 99944, Note_off_c, 0, 43, 54
1, 99947, Control_c, 0, 64, 21
1, 99962, Control_c, 0, 64, 47
1, 99971, Poly_aftertouch_c, 0, 57, 127
1, 99976, Control_c, 0, 64, 64
1, 99978, Note_on_c, 0, 48, 66
1, 99991, Control_c, 0, 64, 80
1, 99994, Note_on_c, 0, 57, 3
1, 100006, Control_c, 0, 64, 127
1, 100081, Note_on_c, 0, 43, 71
1, 100092, Note_off_c, 0, 48, 64
1, 100127, Note_off_c, 0, 43, 60
1, 100239, Note_on_c, 0, 37, 97
1, 100341, Note_off_c, 0, 60, 47
1, 100367, Note_off_c, 0, 64, 54
1, 100385, Note_on_c, 0, 25, 83
1, 100405, Note_off_c, 0, 57, 40
1, 100406, Note_off_c, 0, 52, 42
1, 100410, Note_off_c, 0, 37, 56
1, 100430, Note_off_c, 0, 25, 64
1, 100586, Note_on_c, 0, 43, 68
1, 100722, Note_on_c, 0, 64, 97
1, 100731, Note_on_c, 0, 52, 88
1, 100731, Note_on_c, 0, 55, 82
1, 100734, Note_on_c, 0, 57, 76
1, 100737, Note_on_c, 0, 60, 73
1, 100759, Note_off_c, 0, 43, 36
1, 100766, Note_off_c, 0, 52, 63
1, 100788, Note_off_c, 0, 57, 60
1, 100800, Note_off_c, 0, 60, 59
1, 100805, Note_off_c, 0, 55, 55
1, 100906, Note_on_c, 0, 48, 71
1, 101042, Note_off_c, 0, 48, 64
1, 101046, Note_on_c, 0, 43, 73
1, 101098, Note_off_c, 0, 43, 60
1, 101216, Note_on_c, 0, 37, 94
1, 101425, Note_on_c, 0, 25, 81
1, 101473, Note_off_c, 0, 37, 56
1, 101473, Note_off_c, 0, 25, 63
1, 101645, Note_on_c, 0, 43, 72
1, 101805, Note_off_c, 0, 64, 60
1, 101845, Note_off_c, 0, 43, 53
1, 101873, Note_on_c, 0, 61, 98
1, 101876, Note_on_c, 0, 52, 92
1, 101879, Note_on_c, 0, 56, 82
1, 101881, Control_c, 0, 64, 94
1, 101896, Control_c, 0, 64, 70
1, 101911, Control_c, 0, 64, 0
1, 102193, Control_c, 0, 64, 31
1, 102208, Control_c, 0, 64, 58
1, 102223, Control_c, 0, 64, 69
1, 102226, Note_off_c, 0, 52, 64
1, 102238, Control_c, 0, 64, 86
1, 102252, Control_c, 0, 64, 127
1, 102271, Note_off_c, 0, 61, 60
1, 102328, Note_on_c, 0, 49, 64
1, 102331, Note_off_c, 0, 56, 60
1, 102538, Note_on_c, 0, 77, 80
1, 102547, Note_on_c, 0, 44, 64
1, 102556, Note_off_c, 0, 49, 56
1, 102574, Note_on_c, 0, 69, 32
1, 102606, Note_off_c, 0, 44, 59
1, 102607, Note_off_c, 0, 69, 56
1, 102626, Note_off_c, 0, 77, 58
1, 102641, Poly_aftertouch_c, 0, 65, 0
1, 102768, Note_on_c, 0, 76, 84
1, 102780, Note_on_c, 0, 64, 72
1, 102786, Note_on_c, 0, 37, 79
1, 102788, Note_on_c, 0, 73, 63
1, 102853, Note_off_c, 0, 73, 55
1, 102880, Note_off_c, 0, 76, 63
1, 102943, Note_off_c, 0, 64, 60
1, 102999, Note_on_c, 0, 25, 76
1, 103040, Note_off_c, 0, 25, 64
1, 103051, Note_off_c, 0, 37, 62
1, 103219, Note_on_c, 0, 44, 71
1, 103236, Note_on_c, 0, 61, 73
1, 103267, Note_off_c, 0, 61, 65
1, 103286, Note_off_c, 0, 44, 56
1, 103310, Note_on_c, 0, 61, 64
1, 103333, Note_off_c, 0, 61, 65
1, 103390, Note_on_c, 0, 61, 90
1, 103412, Note_on_c, 0, 56, 83
1, 103452, Note_off_c, 0, 61, 62
1, 103528, Note_off_c, 0, 56, 54
1, 103598, Note_on_c, 0, 49, 68
1, 103711, Note_on_c, 0, 77, 78
1, 103718, Note_on_c, 0, 65, 62
1, 103720, Note_on_c, 0, 44, 67
1, 103725, Note_on_c, 0, 69, 62
1, 103729, Note_off_c, 0, 49, 59
1, 103756, Note_off_c, 0, 65, 62
1, 103759, Note_off_c, 0, 69, 62
1, 103769, Note_off_c, 0, 44, 61
1, 103776, Note_off_c, 0, 77, 61
1, 103858, Note_on_c, 0, 76, 89
1, 103862, Note_on_c, 0, 64, 86
1, 103867, Note_on_c, 0, 37, 82
1, 103871, Note_on_c, 0, 73, 69
1, 103921, Note_off_c, 0, 73, 53
1, 103929, Note_off_c, 0, 76, 63
1, 103966, Note_on_c, 0, 25, 77
1, 103975, Note_off_c, 0, 37, 43
1, 103980, Note_off_c, 0, 64, 60
1, 104016, Note_off_c, 0, 25, 65
1, 104166, Note_on_c, 0, 44, 71
1, 104172, Note_on_c, 0, 61, 78
1, 104191, Note_off_c, 0, 61, 68
1, 104230, Note_on_c, 0, 61, 85
1, 104246, Note_off_c, 0, 61, 72
1, 104260, Note_off_c, 0, 44, 52
1, 104296, Note_on_c, 0, 61, 101
1, 104308, Note_on_c, 0, 56, 84
1, 104348, Note_off_c, 0, 61, 65
1, 104387, Note_off_c, 0, 56, 55
1, 104472, Note_on_c, 0, 49, 67
1, 104584, Note_on_c, 0, 77, 80
1, 104591, Note_on_c, 0, 44, 69
1, 104592, Note_on_c, 0, 65, 61
1, 104594, Note_on_c, 0, 69, 65
1, 104599, Note_off_c, 0, 49, 63
1, 104632, Note_off_c, 0, 65, 65
1, 104634, Note_off_c, 0, 44, 61
1, 104637, Note_off_c, 0, 69, 64
1, 104641, Note_off_c, 0, 77, 62
1, 104720, Note_on_c, 0, 76, 93
1, 104726, Note_on_c, 0, 64, 89
1, 104731, Note_on_c, 0, 37, 84
1, 104732, Note_on_c, 0, 73, 78
1, 104776, Note_off_c, 0, 73, 56
1, 104776, Note_off_c, 0, 76, 66
1, 104810, Note_on_c, 0, 25, 82
1, 104813, Note_off_c, 0, 37, 47
1, 104820, Note_off_c, 0, 64, 64
1, 104860, Note_off_c, 0, 25, 64
1, 105009, Note_on_c, 0, 44, 70
1, 105012, Note_on_c, 0, 61, 79
1, 105035, Note_off_c, 0, 61, 67
1, 105065, Note_on_c, 0, 61, 83
1, 105083, Note_off_c, 0, 61, 71
1, 105102, Note_off_c, 0, 44, 56
1, 105136, Note_on_c, 0, 61, 106
1, 105152, Note_on_c, 0, 56, 83
1, 105187, Note_off_c, 0, 61, 66
1, 105255, Note_off_c, 0, 56, 53
1, 105342, Note_on_c, 0, 49, 69
1, 105461, Note_on_c, 0, 77, 86
1, 105473, Note_on_c, 0, 65, 68
1, 105476, Note_on_c, 0, 44, 73
1, 105476, Note_on_c, 0, 69, 70
1, 105485, Note_off_c, 0, 49, 61
1, 105516, Note_off_c, 0, 65, 59
1, 105525, Note_off_c, 0, 44, 62
1, 105529, Note_off_c, 0, 69, 65
1, 105536, Note_off_c, 0, 77, 60
1, 105626, Note_on_c, 0, 76, 95
1, 105628, Note_on_c, 0, 64, 93
1, 105638, Note_on_c, 0, 73, 77
1, 105643, Note_on_c, 0, 37, 89
1, 105828, Note_on_c, 0, 25, 90
1, 105882, Note_off_c, 0, 37, 61
1, 105893, Note_off_c, 0, 25, 64
1, 106356, Note_off_c, 0, 64, 45
1, 106428, Note_off_c, 0, 73, 55
1, 106449, Note_off_c, 0, 76, 60
1, 106459, Note_on_c, 0, 61, 93
1, 106508, Control_c, 0, 64, 85
1, 106522, Control_c, 0, 64, 60
1, 106537, Control_c, 0, 64, 0
1, 107005, Control_c, 0, 64, 39
1, 107020, Control_c, 0, 64, 61
1, 107035, Control_c, 0, 64, 71
1, 107049, Control_c, 0, 64, 88
1, 107064, Control_c, 0, 64, 127
1, 107079, Note_off_c, 0, 61, 50
1, 107194, Note_on_c, 0, 77, 56
1, 107237, Note_on_c, 0, 73, 29
1, 107242, Note_on_c, 0, 61, 33
1, 107248, Note_on_c, 0, 57, 37
1, 107249, Note_on_c, 0, 69, 26
1, 107256, Note_on_c, 0, 65, 23
1, 107292, Note_off_c, 0, 69, 51
1, 107297, Note_off_c, 0, 65, 50
1, 107310, Note_off_c, 0, 77, 58
1, 107346, Note_off_c, 0, 57, 49
1, 107370, Note_off_c, 0, 73, 41
1, 107405, Note_off_c, 0, 61, 37
1, 107461, Note_on_c, 0, 76, 62
1, 107473, Note_on_c, 0, 56, 45
1, 107476, Note_on_c, 0, 68, 48
1, 107494, Note_on_c, 0, 64, 38
1, 107512, Note_on_c, 0, 61, 8
1, 107513, Note_on_c, 0, 73, 13
1, 107540, Note_off_c, 0, 64, 53
1, 107558, Note_off_c, 0, 76, 61
1, 107560, Note_off_c, 0, 68, 48
1, 107566, Note_off_c, 0, 73, 47
1, 107569, Note_off_c, 0, 61, 45
1, 107585, Note_off_c, 0, 56, 51
1, 107652, Note_on_c, 0, 77, 63
1, 107676, Note_on_c, 0, 73, 53
1, 107679, Note_on_c, 0, 65, 53
1, 107691, Note_on_c, 0, 57, 46
1, 107697, Note_on_c, 0, 61, 40
1, 107713, Note_on_c, 0, 69, 11
1, 107720, Note_off_c, 0, 65, 60
1, 107730, Note_off_c, 0, 77, 58
1, 107739, Note_off_c, 0, 57, 58
1, 107748, Note_off_c, 0, 73, 37
1, 107751, Note_off_c, 0, 61, 40
1, 107757, Note_off_c, 0, 69, 36
1, 107826, Note_on_c, 0, 76, 72
1, 107838, Note_on_c, 0, 56, 56
1, 107838, Note_on_c, 0, 68, 63
1, 107839, Note_on_c, 0, 64, 60
1, 107866, Note_on_c, 0, 61, 35
1, 107880, Note_on_c, 0, 73, 15
1, 107883, Note_off_c, 0, 64, 59
1, 107901, Note_off_c, 0, 61, 50
1, 107904, Note_off_c, 0, 68, 58
1, 107906, Note_off_c, 0, 56, 54
1, 107914, Note_off_c, 0, 76, 61
1, 107929, Note_off_c, 0, 73, 46
1, 107974, Note_on_c, 0, 77, 75
1, 107978, Note_on_c, 0, 73, 53
1, 107983, Note_on_c, 0, 65, 62
1, 107983, Note_on_c, 0, 61, 60
1, 107998, Note_on_c, 0, 57, 51
1, 108002, Note_on_c, 0, 69, 44
1, 108014, Note_off_c, 0, 65, 65
1, 108027, Note_off_c, 0, 69, 56
1, 108030, Note_off_c, 0, 61, 53
1, 108043, Note_off_c, 0, 57, 60
1, 108049, Note_off_c, 0, 77, 59
1, 108055, Note_off_c, 0, 73, 54
1, 108120, Note_on_c, 0, 76, 73
1, 108126, Note_on_c, 0, 68, 71
1, 108129, Note_on_c, 0, 56, 64
1, 108132, Note_on_c, 0, 64, 62
1, 108139, Note_on_c, 0, 61, 59
1, 108146, Note_on_c, 0, 73, 43
1, 108171, Note_off_c, 0, 64, 58
1, 108174, Note_off_c, 0, 61, 60
1, 108185, Note_off_c, 0, 73, 47
1, 108200, Note_off_c, 0, 68, 58
1, 108201, Note_off_c, 0, 56, 59
1, 108203, Note_off_c, 0, 76, 62
1, 108262, Note_on_c, 0, 77, 77
1, 108279, Note_on_c, 0, 61, 54
1, 108279, Note_on_c, 0, 65, 67
1, 108283, Note_on_c, 0, 57, 57
1, 108287, Note_on_c, 0, 69, 55
1, 108288, Note_on_c, 0, 73, 55
1, 108311, Note_off_c, 0, 65, 62
1, 108316, Note_off_c, 0, 69, 57
1, 108320, Note_off_c, 0, 61, 57
1, 108327, Note_off_c, 0, 73, 46
1, 108333, Note_off_c, 0, 57, 50
1, 108344, Note_off_c, 0, 77, 59
1, 108472, Note_on_c, 0, 76, 77
1, 108475, Note_on_c, 0, 68, 70
1, 108477, Note_on_c, 0, 64, 64
1, 108481, Note_on_c, 0, 56, 60
1, 108487, Note_on_c, 0, 61, 43
1, 108493, Note_on_c, 0, 73, 54
1, 108499, Note_off_c, 0, 68, 69
1, 108506, Note_off_c, 0, 64, 66
1, 108509, Note_off_c, 0, 61, 60
1, 108513, Note_off_c, 0, 73, 65
1, 108514, Note_off_c, 0, 56, 64
1, 108535, Note_off_c, 0, 76, 65
1, 108706, Note_on_c, 0, 81, 59
1, 108708, Note_on_c, 0, 89, 63
1, 108715, Note_on_c, 0, 77, 50
1, 108722, Note_on_c, 0, 57, 48
1, 108727, Note_on_c, 0, 49, 58
1, 108727, Note_on_c, 0, 91, 38
1, 108734, Note_on_c, 0, 45, 45
1, 108737, Note_off_c, 0, 81, 46
1, 108741, Note_off_c, 0, 77, 52
1, 108754, Note_off_c, 0, 57, 63
1, 108758, Note_off_c, 0, 91, 45
1, 108770, Note_off_c, 0, 45, 63
1, 108774, Note_off_c, 0, 49, 60
1, 108785, Note_off_c, 0, 89, 62
1, 108883, Note_on_c, 0, 88, 80
1, 108885, Note_on_c, 0, 76, 74
1, 108889, Note_on_c, 0, 56, 74
1, 108890, Note_on_c, 0, 85, 65
1, 108898, Note_on_c, 0, 49, 62
1, 108904, Note_on_c, 0, 44, 58
1, 108929, Note_off_c, 0, 56, 50
1, 108940, Note_off_c, 0, 76, 63
1, 108949, Note_off_c, 0, 49, 53
1, 108949, Note_off_c, 0, 44, 57
1, 108961, Note_off_c, 0, 88, 58
1, 108981, Note_off_c, 0, 85, 59
1, 109038, Note_on_c, 0, 89, 90
1, 109048, Note_on_c, 0, 81, 66
1, 109050, Note_on_c, 0, 57, 75
1, 109053, Note_on_c, 0, 77, 65
1, 109055, Note_on_c, 0, 49, 72
1, 109064, Note_on_c, 0, 45, 60
1, 109084, Note_off_c, 0, 57, 62
1, 109095, Note_off_c, 0, 77, 51
1, 109096, Note_off_c, 0, 45, 64
1, 109110, Note_off_c, 0, 89, 64
1, 109113, Note_off_c, 0, 49, 59
1, 109125, Note_off_c, 0, 81, 61
1, 109202, Note_on_c, 0, 88, 87
1, 109207, Note_on_c, 0, 76, 86
1, 109209, Note_on_c, 0, 85, 72
1, 109213, Note_on_c, 0, 56, 87
1, 109220, Note_on_c, 0, 44, 72
1, 109224, Note_on_c, 0, 49, 77
1, 109277, Note_off_c, 0, 56, 53
1, 109284, Note_off_c, 0, 76, 62
1, 109295, Note_off_c, 0, 49, 58
1, 109298, Note_off_c, 0, 44, 58
1, 109298, Note_off_c, 0, 88, 60
1, 109340, Note_off_c, 0, 85, 58
1, 109384, Note_on_c, 0, 57, 82
1, 109384, Note_on_c, 0, 81, 85
1, 109384, Note_on_c, 0, 89, 94
1, 109391, Note_on_c, 0, 77, 84
1, 109393, Note_on_c, 0, 45, 66
1, 109395, Note_on_c, 0, 49, 77
1, 109437, Note_off_c, 0, 57, 61
1, 109440, Note_off_c, 0, 45, 60
1, 109472, Note_off_c, 0, 49, 58
1, 109474, Note_off_c, 0, 77, 58
1, 109474, Note_off_c, 0, 89, 63
1, 109492, Note_off_c, 0, 81, 53
1, 109567, Note_on_c, 0, 76, 91
1, 109568, Note_on_c, 0, 56, 89
1, 109569, Note_on_c, 0, 85, 78
1, 109569, Note_on_c, 0, 88, 91
1, 109576, Note_on_c, 0, 44, 77
1, 109577, Note_on_c, 0, 49, 76
1, 109659, Note_off_c, 0, 76, 61
1, 109664, Note_off_c, 0, 56, 56
1, 109670, Note_off_c, 0, 44, 55
1, 109683, Note_off_c, 0, 88, 59
1, 109709, Note_off_c, 0, 49, 37
1, 109785, Note_on_c, 0, 81, 90
1, 109786, Note_on_c, 0, 57, 87
1, 109787, Note_on_c, 0, 89, 98
1, 109789, Note_on_c, 0, 77, 96
1, 109792, Note_on_c, 0, 49, 79
1, 109793, Note_on_c, 0, 45, 78
1, 109811, Note_off_c, 0, 85, 30
1, 109822, Note_off_c, 0, 57, 63
1, 109846, Note_off_c, 0, 49, 62
1, 109855, Note_off_c, 0, 45, 65
1, 109869, Note_off_c, 0, 77, 58
1, 109889, Note_off_c, 0, 81, 55
1, 109919, Note_off_c, 0, 89, 61
1, 109970, Control_c, 0, 64, 112
1, 109985, Control_c, 0, 64, 77
1, 110000, Control_c, 0, 64, 46
1, 110014, Control_c, 0, 64, 0
1, 110101, Note_on_c, 0, 37, 102
1, 110105, Note_on_c, 0, 25, 100
1, 110134, Control_c, 0, 64, 34
1, 110149, Control_c, 0, 64, 80
1, 110153, Note_off_c, 0, 25, 64
1, 110164, Control_c, 0, 64, 127
1, 110169, Note_off_c, 0, 37, 61
1, 110412, Note_on_c, 0, 44, 65
1, 110414, Note_on_c, 0, 88, 90
1, 110417, Note_on_c, 0, 52, 70
1, 110421, Note_on_c, 0, 85, 70
1, 110422, Note_on_c, 0, 56, 71
1, 110422, Note_on_c, 0, 80, 77
1, 110424, Note_on_c, 0, 49, 67
1, 110424, Note_on_c, 0, 76, 76
1, 110454, Note_off_c, 0, 49, 62
1, 110454, Note_off_c, 0, 52, 65
1, 110455, Note_off_c, 0, 76, 59
1, 110457, Note_off_c, 0, 44, 62
1, 110469, Note_off_c, 0, 80, 60
1, 110472, Note_off_c, 0, 56, 57
1, 110482, Note_off_c, 0, 85, 61
1, 110509, Note_off_c, 0, 88, 61
1, 110663, Note_on_c, 0, 88, 90
1, 110669, Note_on_c, 0, 64, 76
1, 110669, Note_on_c, 0, 76, 87
1, 110672, Note_on_c, 0, 80, 78
1, 110672, Note_on_c, 0, 85, 67
1, 110677, Note_on_c, 0, 61, 66
1, 110686, Note_on_c, 0, 56, 60
1, 110700, Note_on_c, 0, 52, 57
1, 110718, Note_off_c, 0, 61, 52
1, 110741, Note_off_c, 0, 64, 59
1, 110752, Note_off_c, 0, 76, 61
1, 110754, Note_off_c, 0, 56, 60
1, 110765, Note_off_c, 0, 52, 58
1, 110770, Note_off_c, 0, 80, 61
1, 110776, Note_off_c, 0, 88, 62
1, 110783, Note_off_c, 0, 85, 57
1, 110848, Note_on_c, 0, 64, 72
1, 110848, Note_on_c, 0, 88, 86
1, 110851, Note_on_c, 0, 61, 61
1, 110854, Note_on_c, 0, 76, 81
1, 110855, Note_on_c, 0, 80, 78
1, 110856, Note_on_c, 0, 85, 64
1, 110867, Note_on_c, 0, 56, 62
1, 110877, Note_on_c, 0, 52, 48
1, 110901, Note_off_c, 0, 52, 58
1, 110902, Note_off_c, 0, 64, 58
1, 110914, Note_off_c, 0, 61, 50
1, 110925, Note_off_c, 0, 76, 60
1, 110937, Note_off_c, 0, 88, 60
1, 110939, Note_off_c, 0, 56, 52
1, 110944, Note_off_c, 0, 80, 61
1, 110954, Note_off_c, 0, 85, 60
1, 111030, Note_on_c, 0, 76, 96
1, 111033, Note_on_c, 0, 88, 94
1, 111034, Note_on_c, 0, 64, 84
1, 111038, Note_on_c, 0, 61, 75
1, 111039, Note_on_c, 0, 80, 87
1, 111041, Note_on_c, 0, 56, 67
1, 111042, Note_on_c, 0, 85, 75
1, 111043, Note_on_c, 0, 52, 58
1, 111085, Note_off_c, 0, 76, 62
1, 111088, Note_off_c, 0, 64, 62
1, 111090, Note_off_c, 0, 80, 60
1, 111092, Note_off_c, 0, 61, 61
1, 111092, Note_off_c, 0, 85, 62
1, 111103, Note_off_c, 0, 88, 61
1, 111104, Note_off_c, 0, 52, 62
1, 111110, Note_off_c, 0, 56, 60
1, 111167, Note_on_c, 0, 64, 64
1, 111168, Note_on_c, 0, 88, 75
1, 111173, Note_on_c, 0, 61, 57
1, 111173, Note_on_c, 0, 76, 70
1, 111173, Note_on_c, 0, 80, 65
1, 111177, Note_on_c, 0, 56, 52
1, 111185, Note_off_c, 0, 64, 67
1, 111188, Note_off_c, 0, 76, 72
1, 111190, Note_off_c, 0, 80, 66
1, 111191, Note_on_c, 0, 52, 34
1, 111201, Note_on_c, 0, 85, 27
1, 111201, Note_off_c, 0, 61, 64
1, 111211, Note_off_c, 0, 88, 58
1, 111212, Note_off_c, 0, 52, 60
1, 111212, Note_off_c, 0, 56, 61
1, 111234, Note_off_c, 0, 85, 46
1, 111263, Note_on_c, 0, 76, 70
1, 111266, Note_on_c, 0, 80, 72
1, 111268, Note_on_c, 0, 64, 70
1, 111271, Note_on_c, 0, 88, 69
1, 111276, Note_on_c, 0, 61, 69
1, 111281, Note_on_c, 0, 52, 66
1, 111287, Note_on_c, 0, 56, 65
1, 111287, Note_on_c, 0, 85, 49
1, 111295, Note_off_c, 0, 80, 63
1, 111300, Note_off_c, 0, 64, 66
1, 111301, Note_off_c, 0, 76, 62
1, 111304, Note_off_c, 0, 61, 62
1, 111307, Note_off_c, 0, 85, 64
1, 111316, Note_off_c, 0, 88, 60
1, 111318, Note_off_c, 0, 52, 64
1, 111319, Note_off_c, 0, 56, 60
1, 111369, Note_on_c, 0, 88, 69
1, 111369, Note_on_c, 0, 76, 79
1, 111378, Note_on_c, 0, 80, 73
1, 111379, Note_on_c, 0, 61, 67
1, 111380, Note_on_c, 0, 64, 77
1, 111381, Note_on_c, 0, 85, 69
1, 111393, Note_on_c, 0, 56, 62
1, 111400, Note_on_c, 0, 52, 55
1, 111402, Note_off_c, 0, 64, 68
1, 111403, Note_off_c, 0, 80, 67
1, 111412, Note_off_c, 0, 61, 62
1, 111413, Note_off_c, 0, 76, 54
1, 111414, Note_off_c, 0, 85, 65
1, 111425, Note_off_c, 0, 56, 65
1, 111425, Note_off_c, 0, 88, 63
1, 111429, Note_off_c, 0, 52, 65
1, 111477, Note_on_c, 0, 76, 74
1, 111477, Note_on_c, 0, 88, 66
1, 111482, Note_on_c, 0, 80, 71
1, 111483, Note_on_c, 0, 64, 75
1, 111489, Note_on_c, 0, 85, 68
1, 111493, Note_on_c, 0, 61, 73
1, 111505, Note_on_c, 0, 56, 61
1, 111507, Note_on_c, 0, 52, 58
1, 111521, Note_off_c, 0, 61, 63
1, 111521, Note_off_c, 0, 85, 58
1, 111523, Note_off_c, 0, 64, 63
1, 111529, Note_off_c, 0, 76, 65
1, 111531, Note_off_c, 0, 80, 61
1, 111536, Note_off_c, 0, 88, 62
1, 111536, Note_off_c, 0, 56, 62
1, 111540, Note_off_c, 0, 52, 64
1, 111587, Note_on_c, 0, 88, 79
1, 111590, Note_on_c, 0, 76, 79
1, 111594, Note_on_c, 0, 80, 69
1, 111601, Note_on_c, 0, 64, 77
1, 111605, Note_on_c, 0, 85, 70
1, 111607, Note_on_c, 0, 61, 70
1, 111610, Note_on_c, 0, 56, 63
1, 111611, Note_off_c, 0, 76, 69
1, 111623, Note_off_c, 0, 80, 66
1, 111629, Note_off_c, 0, 85, 68
1, 111632, Note_off_c, 0, 61, 65
1, 111632, Note_off_c, 0, 64, 51
1, 111638, Note_off_c, 0, 56, 60
1, 111643, Note_off_c, 0, 88, 64
1, 111645, Note_on_c, 0, 52, 25
1, 111682, Note_off_c, 0, 52, 53
1, 111839, Note_on_c, 0, 85, 100
1, 111841, Note_on_c, 0, 97, 98
1, 111852, Note_on_c, 0, 73, 96
1, 111857, Note_on_c, 0, 61, 87
1, 111892, Note_off_c, 0, 61, 54
1, 111893, Note_off_c, 0, 73, 62
1, 111906, Note_off_c, 0, 85, 60
1, 111927, Note_off_c, 0, 97, 66
1, 113469, Control_c, 0, 64, 70
1, 113484, Control_c, 0, 64, 0
1, 113499, Control_c, 0, 64, 22
1, 113514, Control_c, 0, 64, 0
1, 113514, End_track
0, 0, End_of_file
