0, 0, Header, 0, 1, 384
1, 0, Start_track
1, 0, Title_t, "Etude Op. 25/6--Chaoyin Cai     "
1, 0, Text_t, "2009 Piano-e-Competition audition round"
1, 0, Text_t, "captured January 2009"
1, 0, Text_t, "http://www.piano-e-competition.com/"
1, 0, Text_t, "File processed for distribution by software from Zenph Studios, Inc., http://www.zenph.com"
1, 0, Instrument_name_t, "Yamaha Disklavier Pro Mark IV concert grand piano, model DCFIIISM4PRO"
1, 0, Sequencer_specific, 39, 67, 113, 0, 1, 0, 1, 0, 69, 116, 117, 100, 101, 32, 79, 112, 46, 32, 50, 53, 47, 54, 32, 32, 67, 104, 97, 111, 121, 105, 110, 32, 67, 97, 105, 32, 32, 32, 32, 32
1, 0, Sequencer_specific, 6, 67, 113, 0, 0, 0, 69
1, 0, System_exclusive, 21, 67, 113, 126, 21, 0, 2, 2, 0, 3, 14, 1, 4, 1, 13, 13, 10, 11, 9, 2, 7, 247
1, 0, Sequencer_specific, 5, 67, 123, 12, 2, 1
1, 0, Tempo, 512820
1, 0, Time_signature, 4, 2, 24, 8
1, 0, System_exclusive, 5, 126, 127, 9, 1, 247
1, 1, System_exclusive, 8, 67, 16, 76, 0, 0, 126, 0, 247
1, 2, System_exclusive, 8, 67, 16, 76, 8, 9, 7, 1, 247
1, 3, Control_c, 0, 0, 0
1, 3, Control_c, 1, 0, 0
1, 3, Control_c, 2, 0, 0
1, 3, Control_c, 3, 0, 0
1, 3, Control_c, 4, 0, 0
1, 3, Control_c, 5, 0, 0
1, 3, Control_c, 6, 0, 0
1, 3, Control_c, 7, 0, 0
1, 3, Control_c, 8, 0, 0
1, 3, Control_c, 9, 0, 127
1, 3, Control_c, 10, 0, 0
1, 3, Control_c, 11, 0, 0
1, 3, Control_c, 12, 0, 0
1, 3, Control_c, 13, 0, 0
1, 3, Control_c, 14, 0, 0
1, 3, Control_c, 15, 0, 0
1, 4, Control_c, 0, 32, 0
1, 4, Control_c, 1, 32, 0
1, 4, Control_c, 2, 32, 0
1, 4, Control_c, 3, 32, 0
1, 4, Control_c, 4, 32, 0
1, 4, Control_c, 5, 32, 0
1, 4, Control_c, 6, 32, 0
1, 4, Control_c, 7, 32, 0
1, 4, Control_c, 8, 32, 0
1, 4, Control_c, 9, 32, 0
1, 4, Control_c, 10, 32, 0
1, 4, Control_c, 11, 32, 0
1, 4, Control_c, 12, 32, 0
1, 4, Control_c, 13, 32, 0
1, 4, Control_c, 14, 32, 0
1, 4, Control_c, 15, 32, 0
1, 5, Program_c, 0, 0
1, 5, Program_c, 1, 0
1, 5, Program_c, 2, 0
1, 5, Program_c, 3, 0
1, 5, Program_c, 4, 0
1, 5, Program_c, 5, 0
1, 5, Program_c, 6, 0
1, 5, Program_c, 7, 0
1, 5, Program_c, 8, 0
1, 5, Program_c, 9, 0
1, 5, Program_c, 10, 0
1, 5, Program_c, 11, 0
1, 5, Program_c, 12, 0
1, 5, Program_c, 13, 0
1, 5, Program_c, 14, 0
1, 5, Program_c, 15, 0
1, 6, Control_c, 0, 7, 100
1, 6, Control_c, 1, 7, 100
1, 6, Control_c, 2, 7, 100
1, 6, Control_c, 3, 7, 100
1, 6, Control_c, 4, 7, 100
1, 6, Control_c, 5, 7, 100
1, 6, Control_c, 6, 7, 100
1, 6, Control_c, 7, 7, 100
1, 6, Control_c, 8, 7, 100
1, 6, Control_c, 9, 7, 100
1, 6, Control_c, 10, 7, 100
1, 6, Control_c, 11, 7, 100
1, 6, Control_c, 12, 7, 100
1, 6, Control_c, 13, 7, 100
1, 6, Control_c, 14, 7, 100
1, 6, Control_c, 15, 7, 100
1, 117, Control_c, 0, 64, 8
1, 117, Control_c, 0, 67, 15
1, 229, Control_c, 0, 64, 17
1, 229, Control_c, 0, 67, 31
1, 341, Control_c, 0, 64, 25
1, 341, Control_c, 0, 67, 46
1, 452, Control_c, 0, 64, 35
1, 452, Control_c, 0, 67, 63
1, 564, Control_c, 0, 64, 42
1, 564, Control_c, 0, 67, 77
1, 676, Control_c, 0, 64, 52
1, 676, Control_c, 0, 67, 94
1, 787, Control_c, 0, 64, 59
1, 787, Control_c, 0, 67, 108
1, 899, Control_c, 0, 64, 71
1, 899, Control_c, 0, 67, 127
1, 1135, Note_on_c, 0, 71, 35
1, 1135, Control_c, 0, 64, 73
1, 1150, Control_c, 0, 64, 75
1, 1165, Note_off_c, 0, 71, 56
1, 1165, Control_c, 0, 64, 77
1, 1166, Poly_aftertouch_c, 0, 75, 127
1, 1180, Control_c, 0, 64, 79
1, 1195, Control_c, 0, 64, 81
1, 1202, Note_on_c, 0, 76, 40
1, 1209, Control_c, 0, 64, 82
1, 1210, Poly_aftertouch_c, 0, 75, 0
1, 1213, Note_on_c, 0, 73, 36
1, 1224, Control_c, 0, 64, 84
1, 1239, Control_c, 0, 64, 86
1, 1253, Note_off_c, 0, 76, 46
1, 1254, Control_c, 0, 64, 87
1, 1258, Note_off_c, 0, 73, 46
1, 1263, Note_on_c, 0, 71, 46
1, 1269, Control_c, 0, 64, 89
1, 1284, Control_c, 0, 64, 91
1, 1296, Note_on_c, 0, 75, 40
1, 1299, Control_c, 0, 64, 93
1, 1314, Control_c, 0, 64, 94
1, 1317, Note_off_c, 0, 71, 63
1, 1337, Note_off_c, 0, 75, 48
1, 1343, Control_c, 0, 64, 94
1, 1351, Note_on_c, 0, 76, 53
1, 1355, Note_on_c, 0, 73, 50
1, 1373, Control_c, 0, 64, 95
1, 1388, Control_c, 0, 64, 95
1, 1391, Note_off_c, 0, 76, 57
1, 1393, Note_off_c, 0, 73, 49
1, 1436, Note_on_c, 0, 71, 50
1, 1449, Note_on_c, 0, 75, 44
1, 1457, Note_off_c, 0, 71, 62
1, 1476, Note_off_c, 0, 75, 56
1, 1499, Note_on_c, 0, 76, 54
1, 1505, Note_on_c, 0, 73, 46
1, 1537, Note_off_c, 0, 76, 51
1, 1539, Note_off_c, 0, 73, 51
1, 1558, Note_on_c, 0, 71, 42
1, 1567, Note_on_c, 0, 75, 56
1, 1610, Note_off_c, 0, 71, 60
1, 1615, Note_off_c, 0, 75, 54
1, 1630, Note_on_c, 0, 76, 61
1, 1633, Control_c, 0, 64, 95
1, 1637, Note_on_c, 0, 73, 47
1, 1662, Control_c, 0, 64, 91
1, 1677, Control_c, 0, 64, 86
1, 1680, Note_off_c, 0, 73, 49
1, 1683, Note_off_c, 0, 76, 59
1, 1692, Control_c, 0, 64, 80
1, 1707, Note_on_c, 0, 75, 50
1, 1707, Control_c, 0, 64, 78
1, 1711, Note_on_c, 0, 71, 56
1, 1722, Control_c, 0, 64, 79
1, 1740, Note_off_c, 0, 71, 56
1, 1752, Control_c, 0, 64, 80
1, 1754, Note_off_c, 0, 75, 59
1, 1766, Control_c, 0, 64, 81
1, 1771, Note_on_c, 0, 76, 52
1, 1776, Note_on_c, 0, 73, 51
1, 1781, Control_c, 0, 64, 82
1, 1796, Control_c, 0, 64, 83
1, 1808, Note_off_c, 0, 73, 51
1, 1811, Control_c, 0, 64, 84
1, 1822, Note_off_c, 0, 76, 57
1, 1826, Control_c, 0, 64, 85
1, 1832, Note_on_c, 0, 75, 53
1, 1835, Note_on_c, 0, 71, 49
1, 1870, Control_c, 0, 64, 86
1, 1883, Note_off_c, 0, 71, 58
1, 1899, Control_c, 0, 64, 86
1, 1904, Note_on_c, 0, 73, 47
1, 1920, Note_on_c, 0, 76, 57
1, 1940, Note_off_c, 0, 75, 0
1, 1947, Note_off_c, 0, 73, 48
1, 1948, Note_off_c, 0, 76, 55
1, 1960, Note_on_c, 0, 75, 27
1, 1978, Note_on_c, 0, 71, 59
1, 2026, Note_off_c, 0, 71, 56
1, 2041, Note_on_c, 0, 76, 54
1, 2052, Note_on_c, 0, 73, 53
1, 2053, Note_off_c, 0, 75, 0
1, 2083, Note_off_c, 0, 76, 57
1, 2086, Note_off_c, 0, 73, 58
1, 2089, Note_on_c, 0, 75, 31
1, 2121, Control_c, 0, 64, 86
1, 2133, Note_on_c, 0, 71, 53
1, 2163, Note_off_c, 0, 71, 59
1, 2167, Note_off_c, 0, 75, 61
1, 2180, Note_on_c, 0, 76, 65
1, 2190, Note_on_c, 0, 73, 53
1, 2203, Control_c, 0, 64, 85
1, 2218, Control_c, 0, 64, 82
1, 2224, Note_off_c, 0, 73, 52
1, 2227, Note_off_c, 0, 76, 60
1, 2234, Control_c, 0, 64, 75
1, 2245, Note_on_c, 0, 75, 51
1, 2248, Note_on_c, 0, 71, 55
1, 2249, Control_c, 0, 64, 65
1, 2263, Control_c, 0, 64, 59
1, 2278, Control_c, 0, 64, 62
1, 2291, Control_c, 0, 64, 66
1, 2294, Note_off_c, 0, 71, 59
1, 2298, Note_off_c, 0, 75, 59
1, 2306, Control_c, 0, 64, 70
1, 2321, Control_c, 0, 64, 73
1, 2324, Note_on_c, 0, 73, 37
1, 2324, Note_on_c, 0, 76, 58
1, 2336, Control_c, 0, 64, 76
1, 2351, Control_c, 0, 64, 78
1, 2360, Note_off_c, 0, 76, 62
1, 2366, Control_c, 0, 64, 79
1, 2369, Note_off_c, 0, 73, 48
1, 2380, Control_c, 0, 64, 80
1, 2396, Note_on_c, 0, 75, 43
1, 2399, Note_on_c, 0, 71, 56
1, 2422, Note_off_c, 0, 71, 58
1, 2440, Control_c, 0, 64, 81
1, 2450, Note_on_c, 0, 76, 60
1, 2469, Control_c, 0, 64, 81
1, 2485, Note_on_c, 0, 73, 31
1, 2499, Control_c, 0, 64, 82
1, 2506, Note_off_c, 0, 75, 0
1, 2522, Note_on_c, 0, 71, 49
1, 2524, Note_off_c, 0, 73, 49
1, 2528, Control_c, 0, 64, 82
1, 2530, Note_off_c, 0, 76, 57
1, 2539, Note_on_c, 0, 75, 34
1, 2587, Note_off_c, 0, 71, 57
1, 2610, Note_on_c, 0, 76, 54
1, 2617, Control_c, 0, 64, 83
1, 2625, Note_on_c, 0, 73, 44
1, 2661, Note_off_c, 0, 73, 49
1, 2661, Note_off_c, 0, 75, 0
1, 2673, Note_off_c, 0, 76, 61
1, 2677, Note_on_c, 0, 75, 36
1, 2700, Note_on_c, 0, 71, 54
1, 2726, Note_off_c, 0, 71, 54
1, 2741, Note_off_c, 0, 75, 59
1, 2756, Note_on_c, 0, 76, 65
1, 2766, Note_on_c, 0, 73, 35
1, 2807, Note_off_c, 0, 73, 48
1, 2818, Note_off_c, 0, 76, 58
1, 2826, Note_on_c, 0, 71, 51
1, 2839, Note_on_c, 0, 75, 49
1, 2874, Note_off_c, 0, 71, 62
1, 2884, Note_off_c, 0, 75, 60
1, 2900, Note_on_c, 0, 73, 49
1, 2903, Note_on_c, 0, 76, 57
1, 2949, Note_off_c, 0, 73, 47
1, 2952, Note_off_c, 0, 76, 57
1, 2983, Note_on_c, 0, 75, 54
1, 2994, Note_on_c, 0, 71, 53
1, 3019, Note_off_c, 0, 71, 54
1, 3041, Note_off_c, 0, 75, 54
1, 3054, Note_on_c, 0, 76, 57
1, 3077, Note_on_c, 0, 73, 29
1, 3094, Note_off_c, 0, 76, 55
1, 3111, Note_on_c, 0, 71, 56
1, 3113, Note_off_c, 0, 73, 50
1, 3117, Note_on_c, 0, 75, 47
1, 3168, Note_off_c, 0, 71, 60
1, 3174, Note_off_c, 0, 75, 57
1, 3189, Note_on_c, 0, 76, 63
1, 3198, Note_on_c, 0, 73, 51
1, 3230, Note_off_c, 0, 76, 60
1, 3237, Note_off_c, 0, 73, 49
1, 3259, Note_on_c, 0, 75, 44
1, 3279, Note_on_c, 0, 71, 56
1, 3302, Note_off_c, 0, 71, 59
1, 3320, Note_off_c, 0, 75, 59
1, 3338, Note_on_c, 0, 76, 61
1, 3352, Note_on_c, 0, 73, 36
1, 3390, Note_off_c, 0, 73, 49
1, 3391, Note_off_c, 0, 76, 59
1, 3404, Note_on_c, 0, 71, 44
1, 3415, Note_on_c, 0, 44, 45
1, 3443, Note_on_c, 0, 75, 44
1, 3463, Note_off_c, 0, 71, 53
1, 3476, Note_off_c, 0, 75, 63
1, 3499, Note_on_c, 0, 73, 44
1, 3499, Note_on_c, 0, 76, 56
1, 3537, Note_off_c, 0, 76, 53
1, 3546, Note_off_c, 0, 44, 36
1, 3552, Note_off_c, 0, 73, 46
1, 3561, Note_on_c, 0, 51, 35
1, 3570, Note_on_c, 0, 75, 58
1, 3576, Note_on_c, 0, 71, 58
1, 3616, Note_off_c, 0, 75, 53
1, 3618, Note_off_c, 0, 71, 60
1, 3642, Note_on_c, 0, 76, 57
1, 3664, Note_on_c, 0, 73, 48
1, 3694, Note_off_c, 0, 76, 61
1, 3705, Note_off_c, 0, 73, 48
1, 3712, Note_on_c, 0, 59, 62
1, 3725, Note_on_c, 0, 75, 55
1, 3729, Note_on_c, 0, 71, 65
1, 3739, Note_off_c, 0, 59, 66
1, 3754, Note_off_c, 0, 51, 54
1, 3763, Note_off_c, 0, 75, 51
1, 3764, Note_off_c, 0, 71, 63
1, 3774, Control_c, 0, 64, 82
1, 3789, Note_on_c, 0, 76, 66
1, 3804, Control_c, 0, 64, 82
1, 3806, Note_on_c, 0, 73, 47
1, 3818, Control_c, 0, 64, 81
1, 3834, Control_c, 0, 64, 78
1, 3839, Note_off_c, 0, 73, 52
1, 3839, Note_off_c, 0, 76, 57
1, 3849, Control_c, 0, 64, 73
1, 3850, Note_on_c, 0, 43, 61
1, 3853, Note_on_c, 0, 75, 64
1, 3859, Note_on_c, 0, 71, 58
1, 3864, Control_c, 0, 64, 64
1, 3878, Control_c, 0, 64, 49
1, 3893, Control_c, 0, 64, 0
1, 3900, Note_off_c, 0, 71, 61
1, 3901, Note_off_c, 0, 75, 56
1, 3931, Note_on_c, 0, 76, 68
1, 3936, Note_on_c, 0, 73, 44
1, 3965, Note_off_c, 0, 73, 54
1, 3977, Note_off_c, 0, 76, 59
1, 3997, Note_on_c, 0, 71, 57
1, 4001, Note_on_c, 0, 44, 53
1, 4006, Note_on_c, 0, 75, 49
1, 4011, Note_off_c, 0, 43, 38
1, 4012, Control_c, 0, 64, 20
1, 4026, Control_c, 0, 64, 46
1, 4038, Note_off_c, 0, 71, 61
1, 4041, Control_c, 0, 64, 55
1, 4051, Note_off_c, 0, 75, 62
1, 4056, Control_c, 0, 64, 58
1, 4071, Control_c, 0, 64, 61
1, 4073, Note_on_c, 0, 76, 61
1, 4074, Note_on_c, 0, 73, 37
1, 4086, Control_c, 0, 64, 63
1, 4101, Control_c, 0, 64, 66
1, 4116, Control_c, 0, 64, 69
1, 4118, Note_off_c, 0, 73, 53
1, 4119, Note_off_c, 0, 76, 58
1, 4130, Control_c, 0, 64, 71
1, 4139, Note_off_c, 0, 44, 56
1, 4143, Note_on_c, 0, 71, 60
1, 4145, Control_c, 0, 64, 73
1, 4152, Note_on_c, 0, 75, 52
1, 4160, Control_c, 0, 64, 74
1, 4163, Note_on_c, 0, 51, 48
1, 4175, Control_c, 0, 64, 76
1, 4184, Note_off_c, 0, 71, 60
1, 4190, Control_c, 0, 64, 77
1, 4196, Note_off_c, 0, 75, 63
1, 4205, Control_c, 0, 64, 78
1, 4218, Note_on_c, 0, 76, 63
1, 4220, Control_c, 0, 64, 78
1, 4221, Note_on_c, 0, 73, 49
1, 4235, Control_c, 0, 64, 79
1, 4261, Note_off_c, 0, 73, 61
1, 4261, Note_off_c, 0, 76, 61
1, 4273, Note_on_c, 0, 59, 58
1, 4281, Note_on_c, 0, 71, 64
1, 4291, Note_on_c, 0, 75, 52
1, 4300, Note_off_c, 0, 59, 65
1, 4317, Note_off_c, 0, 71, 61
1, 4321, Note_off_c, 0, 51, 62
1, 4330, Note_off_c, 0, 75, 63
1, 4352, Note_on_c, 0, 76, 61
1, 4360, Note_on_c, 0, 73, 50
1, 4383, Control_c, 0, 64, 78
1, 4390, Note_off_c, 0, 73, 62
1, 4398, Control_c, 0, 64, 76
1, 4417, Note_off_c, 0, 76, 60
1, 4420, Note_on_c, 0, 39, 66
1, 4420, Control_c, 0, 64, 72
1, 4425, Note_on_c, 0, 71, 65
1, 4431, Note_on_c, 0, 75, 60
1, 4435, Control_c, 0, 64, 63
1, 4449, Control_c, 0, 64, 34
1, 4461, Note_off_c, 0, 71, 57
1, 4464, Control_c, 0, 64, 0
1, 4482, Note_off_c, 0, 75, 53
1, 4494, Note_on_c, 0, 73, 51
1, 4497, Note_on_c, 0, 76, 69
1, 4526, Note_off_c, 0, 73, 61
1, 4538, Control_c, 0, 64, 48
1, 4541, Note_off_c, 0, 39, 58
1, 4549, Note_on_c, 0, 44, 52
1, 4553, Control_c, 0, 64, 62
1, 4554, Note_off_c, 0, 76, 61
1, 4560, Note_on_c, 0, 71, 67
1, 4567, Control_c, 0, 64, 66
1, 4572, Note_on_c, 0, 75, 49
1, 4582, Control_c, 0, 64, 70
1, 4596, Note_off_c, 0, 71, 57
1, 4597, Control_c, 0, 64, 73
1, 4605, Note_off_c, 0, 75, 63
1, 4610, Note_on_c, 0, 73, 67
1, 4611, Control_c, 0, 64, 74
1, 4626, Note_on_c, 0, 76, 60
1, 4626, Control_c, 0, 64, 75
1, 4643, Control_c, 0, 64, 76
1, 4657, Control_c, 0, 64, 76
1, 4661, Note_off_c, 0, 73, 55
1, 4671, Note_off_c, 0, 44, 60
1, 4672, Control_c, 0, 64, 77
1, 4680, Note_off_c, 0, 76, 59
1, 4682, Note_on_c, 0, 75, 70
1, 4688, Note_on_c, 0, 71, 69
1, 4691, Note_on_c, 0, 51, 48
1, 4701, Control_c, 0, 64, 78
1, 4716, Control_c, 0, 64, 78
1, 4731, Note_off_c, 0, 75, 58
1, 4731, Control_c, 0, 64, 79
1, 4742, Note_off_c, 0, 71, 61
1, 4744, Note_on_c, 0, 74, 59
1, 4753, Note_on_c, 0, 70, 69
1, 4792, Note_off_c, 0, 70, 63
1, 4804, Note_off_c, 0, 74, 64
1, 4810, Note_on_c, 0, 59, 53
1, 4813, Note_on_c, 0, 71, 68
1, 4822, Note_on_c, 0, 75, 50
1, 4847, Note_off_c, 0, 59, 64
1, 4848, Note_off_c, 0, 51, 61
1, 4864, Note_off_c, 0, 71, 63
1, 4885, Note_on_c, 0, 73, 66
1, 4886, Note_on_c, 0, 76, 68
1, 4898, Note_off_c, 0, 75, 38
1, 4938, Note_off_c, 0, 73, 60
1, 4938, Control_c, 0, 64, 78
1, 4941, Note_on_c, 0, 75, 62
1, 4946, Note_off_c, 0, 76, 59
1, 4953, Control_c, 0, 64, 77
1, 4959, Note_on_c, 0, 71, 68
1, 4963, Note_on_c, 0, 49, 49
1, 4968, Control_c, 0, 64, 75
1, 4983, Control_c, 0, 64, 73
1, 4985, Note_off_c, 0, 75, 61
1, 4995, Note_off_c, 0, 71, 61
1, 4998, Control_c, 0, 64, 68
1, 5002, Note_on_c, 0, 74, 59
1, 5013, Control_c, 0, 64, 61
1, 5016, Note_on_c, 0, 70, 63
1, 5027, Control_c, 0, 64, 44
1, 5042, Control_c, 0, 64, 0
1, 5061, Note_off_c, 0, 70, 63
1, 5066, Note_on_c, 0, 75, 68
1, 5072, Note_off_c, 0, 74, 62
1, 5083, Note_off_c, 0, 49, 59
1, 5088, Note_on_c, 0, 71, 66
1, 5099, Note_on_c, 0, 47, 54
1, 5123, Note_off_c, 0, 71, 63
1, 5136, Note_off_c, 0, 75, 61
1, 5142, Note_on_c, 0, 76, 67
1, 5146, Control_c, 0, 64, 41
1, 5166, Note_on_c, 0, 73, 59
1, 5168, Control_c, 0, 64, 57
1, 5183, Control_c, 0, 64, 62
1, 5198, Control_c, 0, 64, 64
1, 5206, Note_on_c, 0, 75, 64
1, 5209, Note_off_c, 0, 73, 63
1, 5211, Note_off_c, 0, 76, 60
1, 5213, Control_c, 0, 64, 67
1, 5227, Note_on_c, 0, 71, 66
1, 5227, Control_c, 0, 64, 70
1, 5228, Note_on_c, 0, 51, 54
1, 5242, Control_c, 0, 64, 74
1, 5257, Control_c, 0, 64, 76
1, 5260, Note_off_c, 0, 75, 61
1, 5265, Note_off_c, 0, 71, 63
1, 5267, Note_on_c, 0, 74, 65
1, 5272, Control_c, 0, 64, 78
1, 5287, Control_c, 0, 64, 80
1, 5287, Note_on_c, 0, 70, 64
1, 5302, Control_c, 0, 64, 81
1, 5316, Control_c, 0, 64, 82
1, 5324, Note_on_c, 0, 75, 63
1, 5331, Control_c, 0, 64, 83
1, 5333, Note_off_c, 0, 70, 63
1, 5335, Note_on_c, 0, 59, 73
1, 5341, Note_off_c, 0, 51, 61
1, 5346, Note_off_c, 0, 74, 63
1, 5352, Note_off_c, 0, 59, 66
1, 5363, Note_on_c, 0, 71, 68
1, 5380, Note_off_c, 0, 47, 64
1, 5391, Note_off_c, 0, 71, 65
1, 5393, Note_off_c, 0, 75, 59
1, 5400, Note_on_c, 0, 76, 77
1, 5430, Note_on_c, 0, 73, 69
1, 5436, Control_c, 0, 64, 81
1, 5445, Note_off_c, 0, 76, 63
1, 5448, Note_on_c, 0, 75, 50
1, 5451, Control_c, 0, 64, 78
1, 5466, Control_c, 0, 64, 71
1, 5474, Note_off_c, 0, 73, 62
1, 5476, Note_on_c, 0, 39, 55
1, 5481, Control_c, 0, 64, 62
1, 5486, Note_on_c, 0, 71, 62
1, 5496, Control_c, 0, 64, 38
1, 5496, Note_off_c, 0, 75, 62
1, 5511, Control_c, 0, 64, 0
1, 5527, Note_on_c, 0, 74, 66
1, 5530, Note_off_c, 0, 71, 56
1, 5554, Note_on_c, 0, 70, 69
1, 5585, Control_c, 0, 64, 9
1, 5587, Note_off_c, 0, 74, 60
1, 5599, Note_off_c, 0, 39, 54
1, 5600, Control_c, 0, 64, 57
1, 5603, Note_on_c, 0, 44, 54
1, 5612, Note_off_c, 0, 70, 61
1, 5614, Control_c, 0, 64, 67
1, 5621, Note_on_c, 0, 75, 68
1, 5629, Control_c, 0, 64, 74
1, 5630, Note_off_c, 0, 44, 57
1, 5644, Control_c, 0, 64, 80
1, 5645, Note_on_c, 0, 71, 64
1, 5658, Control_c, 0, 64, 85
1, 5673, Control_c, 0, 64, 87
1, 5688, Control_c, 0, 64, 90
1, 5703, Control_c, 0, 64, 92
1, 5707, Note_off_c, 0, 71, 61
1, 5713, Note_off_c, 0, 75, 58
1, 5718, Control_c, 0, 64, 95
1, 5732, Control_c, 0, 64, 97
1, 5735, Note_on_c, 0, 76, 57
1, 5736, Note_on_c, 0, 73, 56
1, 5747, Control_c, 0, 64, 99
1, 5762, Control_c, 0, 64, 100
1, 5777, Control_c, 0, 64, 100
1, 5814, Note_off_c, 0, 76, 62
1, 5821, Control_c, 0, 64, 101
1, 5824, Note_on_c, 0, 68, 69
1, 5824, Note_on_c, 0, 77, 66
1, 5826, Note_off_c, 0, 73, 55
1, 5834, Note_on_c, 0, 59, 52
1, 5836, Control_c, 0, 64, 102
1, 5843, Note_on_c, 0, 74, 61
1, 5850, Note_on_c, 0, 63, 48
1, 5850, Control_c, 0, 64, 102
1, 5865, Control_c, 0, 64, 103
1, 5873, Note_off_c, 0, 77, 62
1, 5877, Note_off_c, 0, 74, 61
1, 5882, Note_off_c, 0, 68, 63
1, 5886, Note_off_c, 0, 59, 58
1, 5889, Note_off_c, 0, 63, 52
1, 5903, Control_c, 0, 64, 103
1, 5918, Control_c, 0, 64, 104
1, 5921, Note_on_c, 0, 75, 58
1, 5922, Note_on_c, 0, 78, 56
1, 5932, Control_c, 0, 64, 105
1, 5947, Control_c, 0, 64, 105
1, 5969, Note_off_c, 0, 78, 61
1, 5985, Note_off_c, 0, 75, 61
1, 5991, Note_on_c, 0, 68, 66
1, 5992, Control_c, 0, 64, 106
1, 5997, Note_on_c, 0, 79, 62
1, 6002, Note_on_c, 0, 76, 55
1, 6005, Note_on_c, 0, 59, 52
1, 6006, Control_c, 0, 64, 107
1, 6007, Note_on_c, 0, 63, 53
1, 6021, Note_off_c, 0, 68, 61
1, 6021, Control_c, 0, 64, 107
1, 6023, Note_off_c, 0, 76, 61
1, 6035, Note_off_c, 0, 79, 60
1, 6036, Note_off_c, 0, 59, 64
1, 6036, Control_c, 0, 64, 108
1, 6044, Note_off_c, 0, 63, 61
1, 6065, Control_c, 0, 64, 108
1, 6075, Note_on_c, 0, 80, 63
1, 6080, Control_c, 0, 64, 111
1, 6082, Note_on_c, 0, 77, 67
1, 6095, Control_c, 0, 64, 114
1, 6110, Control_c, 0, 64, 115
1, 6116, Note_off_c, 0, 77, 62
1, 6119, Note_off_c, 0, 80, 59
1, 6125, Control_c, 0, 64, 116
1, 6135, Note_on_c, 0, 59, 46
1, 6135, Note_on_c, 0, 78, 60
1, 6138, Note_on_c, 0, 66, 61
1, 6138, Note_on_c, 0, 81, 70
1, 6140, Control_c, 0, 64, 117
1, 6140, Note_on_c, 0, 63, 54
1, 6155, Control_c, 0, 64, 118
1, 6158, Note_off_c, 0, 78, 62
1, 6166, Note_off_c, 0, 66, 62
1, 6180, Note_off_c, 0, 63, 63
1, 6185, Note_off_c, 0, 81, 55
1, 6193, Note_off_c, 0, 59, 60
1, 6199, Control_c, 0, 64, 117
1, 6206, Note_on_c, 0, 82, 70
1, 6207, Note_on_c, 0, 79, 67
1, 6214, Control_c, 0, 64, 114
1, 6229, Control_c, 0, 64, 96
1, 6241, Note_off_c, 0, 79, 57
1, 6244, Control_c, 0, 64, 78
1, 6256, Note_on_c, 0, 80, 61
1, 6259, Control_c, 0, 64, 62
1, 6262, Note_on_c, 0, 83, 67
1, 6264, Note_on_c, 0, 66, 51
1, 6264, Note_off_c, 0, 82, 58
1, 6272, Note_on_c, 0, 59, 55
1, 6274, Control_c, 0, 64, 60
1, 6277, Note_on_c, 0, 63, 62
1, 6289, Control_c, 0, 64, 73
1, 6294, Note_off_c, 0, 66, 65
1, 6304, Control_c, 0, 64, 89
1, 6310, Note_off_c, 0, 59, 64
1, 6312, Note_off_c, 0, 83, 63
1, 6313, Note_off_c, 0, 80, 61
1, 6315, Note_on_c, 0, 84, 72
1, 6318, Control_c, 0, 64, 127
1, 6327, Note_on_c, 0, 81, 72
1, 6343, Note_off_c, 0, 63, 57
1, 6372, Note_off_c, 0, 81, 57
1, 6378, Note_on_c, 0, 82, 79
1, 6387, Note_on_c, 0, 85, 75
1, 6387, Note_off_c, 0, 84, 55
1, 6390, Note_on_c, 0, 64, 69
1, 6399, Note_on_c, 0, 59, 58
1, 6403, Note_on_c, 0, 56, 64
1, 6413, Note_off_c, 0, 85, 63
1, 6418, Note_off_c, 0, 64, 65
1, 6428, Note_off_c, 0, 59, 64
1, 6429, Note_off_c, 0, 82, 64
1, 6433, Note_off_c, 0, 56, 65
1, 6455, Note_on_c, 0, 86, 79
1, 6456, Note_on_c, 0, 83, 68
1, 6481, Note_off_c, 0, 83, 67
1, 6504, Note_off_c, 0, 86, 57
1, 6512, Note_on_c, 0, 64, 67
1, 6519, Note_on_c, 0, 56, 56
1, 6519, Note_on_c, 0, 59, 62
1, 6521, Note_on_c, 0, 87, 81
1, 6533, Note_on_c, 0, 84, 71
1, 6551, Note_off_c, 0, 59, 63
1, 6553, Note_off_c, 0, 56, 64
1, 6560, Note_off_c, 0, 64, 62
1, 6574, Note_off_c, 0, 84, 64
1, 6578, Note_on_c, 0, 88, 79
1, 6584, Note_on_c, 0, 85, 78
1, 6612, Note_off_c, 0, 87, 62
1, 6627, Note_off_c, 0, 88, 67
1, 6631, Note_on_c, 0, 63, 70
1, 6635, Note_on_c, 0, 89, 82
1, 6635, Note_off_c, 0, 85, 63
1, 6636, Note_on_c, 0, 59, 64
1, 6637, Note_on_c, 0, 56, 66
1, 6664, Note_on_c, 0, 86, 76
1, 6668, Note_off_c, 0, 63, 66
1, 6672, Note_off_c, 0, 59, 65
1, 6678, Note_off_c, 0, 56, 64
1, 6700, Note_off_c, 0, 89, 51
1, 6704, Note_on_c, 0, 90, 84
1, 6705, Note_off_c, 0, 86, 60
1, 6712, Note_on_c, 0, 87, 81
1, 6726, Control_c, 0, 64, 97
1, 6741, Control_c, 0, 64, 73
1, 6754, Note_off_c, 0, 90, 64
1, 6755, Control_c, 0, 64, 51
1, 6763, Note_on_c, 0, 63, 67
1, 6770, Control_c, 0, 64, 55
1, 6772, Note_off_c, 0, 87, 55
1, 6776, Note_on_c, 0, 91, 88
1, 6778, Note_on_c, 0, 88, 81
1, 6781, Note_on_c, 0, 56, 55
1, 6784, Note_on_c, 0, 59, 57
1, 6786, Control_c, 0, 64, 73
1, 6789, Note_off_c, 0, 63, 65
1, 6798, Note_off_c, 0, 88, 72
1, 6801, Control_c, 0, 64, 103
1, 6813, Note_off_c, 0, 56, 65
1, 6816, Control_c, 0, 64, 127
1, 6818, Note_off_c, 0, 59, 62
1, 6825, Note_off_c, 0, 91, 62
1, 6842, Note_on_c, 0, 92, 88
1, 6862, Note_on_c, 0, 89, 78
1, 6886, Note_on_c, 0, 56, 69
1, 6888, Note_on_c, 0, 61, 77
1, 6901, Note_off_c, 0, 92, 65
1, 6902, Note_on_c, 0, 93, 87
1, 6909, Note_on_c, 0, 90, 79
1, 6909, Note_off_c, 0, 89, 63
1, 6917, Note_off_c, 0, 61, 62
1, 6921, Note_on_c, 0, 51, 44
1, 6930, Note_off_c, 0, 90, 71
1, 6937, Note_off_c, 0, 56, 60
1, 6952, Note_off_c, 0, 51, 54
1, 6963, Control_c, 0, 64, 107
1, 6971, Note_on_c, 0, 94, 84
1, 6971, Note_off_c, 0, 93, 63
1, 6978, Control_c, 0, 64, 83
1, 6979, Note_on_c, 0, 91, 82
1, 6993, Control_c, 0, 64, 56
1, 7007, Control_c, 0, 64, 0
1, 7018, Note_on_c, 0, 61, 52
1, 7025, Note_on_c, 0, 92, 85
1, 7025, Note_on_c, 0, 51, 65
1, 7027, Note_on_c, 0, 95, 86
1, 7037, Note_off_c, 0, 91, 61
1, 7039, Control_c, 0, 64, 32
1, 7040, Note_on_c, 0, 56, 57
1, 7053, Control_c, 0, 64, 61
1, 7054, Note_off_c, 0, 94, 64
1, 7065, Note_off_c, 0, 61, 59
1, 7068, Control_c, 0, 64, 74
1, 7070, Note_off_c, 0, 51, 60
1, 7079, Note_off_c, 0, 56, 61
1, 7083, Control_c, 0, 64, 89
1, 7098, Control_c, 0, 64, 103
1, 7108, Note_off_c, 0, 95, 65
1, 7112, Control_c, 0, 64, 106
1, 7127, Control_c, 0, 64, 116
1, 7131, Note_off_c, 0, 92, 62
1, 7142, Control_c, 0, 64, 127
1, 7149, Note_on_c, 0, 59, 71
1, 7159, Note_on_c, 0, 56, 64
1, 7178, Note_on_c, 0, 51, 47
1, 7180, Note_off_c, 0, 59, 65
1, 7189, Note_off_c, 0, 56, 65
1, 7210, Note_off_c, 0, 51, 62
1, 7231, Control_c, 0, 64, 110
1, 7246, Control_c, 0, 64, 88
1, 7260, Control_c, 0, 64, 69
1, 7275, Control_c, 0, 64, 24
1, 7290, Note_on_c, 0, 59, 66
1, 7290, Control_c, 0, 64, 21
1, 7291, Note_on_c, 0, 56, 52
1, 7292, Note_on_c, 0, 51, 64
1, 7305, Control_c, 0, 64, 60
1, 7320, Control_c, 0, 64, 73
1, 7328, Note_off_c, 0, 56, 64
1, 7328, Note_off_c, 0, 59, 65
1, 7332, Note_off_c, 0, 51, 63
1, 7335, Control_c, 0, 64, 92
1, 7350, Control_c, 0, 64, 122
1, 7365, Control_c, 0, 64, 127
1, 7394, Control_c, 0, 64, 107
1, 7416, Control_c, 0, 64, 81
1, 7430, Control_c, 0, 64, 60
1, 7433, Note_on_c, 0, 49, 58
1, 7445, Note_on_c, 0, 58, 41
1, 7445, Control_c, 0, 64, 0
1, 7447, Note_on_c, 0, 51, 49
1, 7460, Control_c, 0, 64, 41
1, 7472, Note_off_c, 0, 49, 59
1, 7474, Note_off_c, 0, 58, 56
1, 7475, Control_c, 0, 64, 66
1, 7479, Note_off_c, 0, 51, 62
1, 7490, Control_c, 0, 64, 80
1, 7505, Control_c, 0, 64, 101
1, 7520, Control_c, 0, 64, 119
1, 7535, Control_c, 0, 64, 118
1, 7550, Control_c, 0, 64, 114
1, 7550, Note_on_c, 0, 58, 65
1, 7563, Note_on_c, 0, 49, 50
1, 7564, Control_c, 0, 64, 86
1, 7576, Note_on_c, 0, 51, 54
1, 7579, Control_c, 0, 64, 65
1, 7594, Control_c, 0, 64, 49
1, 7594, Note_off_c, 0, 58, 63
1, 7603, Note_off_c, 0, 49, 64
1, 7609, Control_c, 0, 64, 66
1, 7612, Note_off_c, 0, 51, 62
1, 7623, Control_c, 0, 64, 78
1, 7638, Control_c, 0, 64, 101
1, 7653, Control_c, 0, 64, 127
1, 7701, Note_on_c, 0, 56, 54
1, 7724, Note_on_c, 0, 51, 42
1, 7725, Note_on_c, 0, 47, 47
1, 7727, Control_c, 0, 64, 101
1, 7742, Control_c, 0, 64, 80
1, 7757, Control_c, 0, 64, 55
1, 7771, Control_c, 0, 64, 0
1, 7786, Control_c, 0, 64, 58
1, 7789, Note_off_c, 0, 47, 51
1, 7801, Control_c, 0, 64, 72
1, 7816, Control_c, 0, 64, 90
1, 7832, Control_c, 0, 64, 127
1, 7881, Note_off_c, 0, 56, 43
1, 7891, Control_c, 0, 64, 118
1, 7904, Note_off_c, 0, 51, 19
1, 7906, Control_c, 0, 64, 87
1, 7919, Note_on_c, 0, 44, 50
1, 7920, Note_on_c, 0, 80, 63
1, 7921, Control_c, 0, 64, 63
1, 7935, Control_c, 0, 64, 0
1, 7945, Note_on_c, 0, 76, 46
1, 7963, Note_off_c, 0, 80, 61
1, 7982, Note_off_c, 0, 76, 54
1, 7994, Control_c, 0, 64, 42
1, 7996, Note_on_c, 0, 81, 56
1, 8009, Control_c, 0, 64, 60
1, 8024, Control_c, 0, 64, 68
1, 8027, Note_off_c, 0, 44, 55
1, 8032, Note_off_c, 0, 81, 65
1, 8039, Control_c, 0, 64, 84
1, 8042, Note_on_c, 0, 78, 21
1, 8053, Control_c, 0, 64, 104
1, 8063, Note_on_c, 0, 80, 62
1, 8068, Control_c, 0, 64, 127
1, 8080, Note_on_c, 0, 76, 54
1, 8080, Note_off_c, 0, 78, 48
1, 8081, Note_on_c, 0, 52, 45
1, 8097, Note_off_c, 0, 80, 60
1, 8122, Note_off_c, 0, 76, 60
1, 8137, Note_on_c, 0, 81, 58
1, 8170, Note_on_c, 0, 78, 53
1, 8186, Note_off_c, 0, 81, 60
1, 8193, Note_off_c, 0, 78, 61
1, 8203, Note_on_c, 0, 80, 59
1, 8219, Note_on_c, 0, 61, 65
1, 8223, Note_on_c, 0, 76, 66
1, 8244, Note_off_c, 0, 61, 66
1, 8244, Note_off_c, 0, 80, 56
1, 8257, Note_off_c, 0, 76, 60
1, 8277, Note_off_c, 0, 52, 35
1, 8280, Note_on_c, 0, 81, 68
1, 8296, Note_on_c, 0, 78, 44
1, 8313, Control_c, 0, 64, 112
1, 8322, Note_off_c, 0, 78, 58
1, 8326, Note_off_c, 0, 81, 59
1, 8328, Control_c, 0, 64, 85
1, 8340, Note_on_c, 0, 80, 62
1, 8343, Control_c, 0, 64, 64
1, 8351, Note_on_c, 0, 76, 61
1, 8357, Note_on_c, 0, 43, 55
1, 8357, Control_c, 0, 64, 0
1, 8380, Note_off_c, 0, 80, 54
1, 8389, Note_off_c, 0, 76, 57
1, 8425, Note_on_c, 0, 81, 62
1, 8426, Note_on_c, 0, 78, 42
1, 8454, Note_off_c, 0, 43, 36
1, 8456, Note_off_c, 0, 78, 56
1, 8462, Note_off_c, 0, 81, 59
1, 8489, Note_on_c, 0, 80, 52
1, 8491, Note_on_c, 0, 76, 59
1, 8491, Control_c, 0, 64, 50
1, 8501, Note_on_c, 0, 44, 46
1, 8506, Control_c, 0, 64, 59
1, 8521, Control_c, 0, 64, 62
1, 8530, Note_off_c, 0, 76, 63
1, 8535, Note_off_c, 0, 80, 49
1, 8535, Control_c, 0, 64, 65
1, 8550, Control_c, 0, 64, 70
1, 8565, Control_c, 0, 64, 77
1, 8566, Note_on_c, 0, 78, 33
1, 8566, Note_on_c, 0, 81, 63
1, 8580, Control_c, 0, 64, 82
1, 8595, Control_c, 0, 64, 85
1, 8605, Note_off_c, 0, 81, 60
1, 8607, Note_off_c, 0, 78, 51
1, 8609, Control_c, 0, 64, 87
1, 8611, Note_off_c, 0, 44, 58
1, 8625, Control_c, 0, 64, 91
1, 8635, Note_on_c, 0, 80, 56
1, 8638, Note_on_c, 0, 76, 61
1, 8640, Note_on_c, 0, 52, 54
1, 8640, Control_c, 0, 64, 94
1, 8655, Control_c, 0, 64, 97
1, 8669, Control_c, 0, 64, 101
1, 8673, Note_off_c, 0, 76, 57
1, 8684, Control_c, 0, 64, 105
1, 8685, Note_off_c, 0, 80, 50
1, 8699, Control_c, 0, 64, 108
1, 8706, Note_on_c, 0, 78, 50
1, 8708, Note_on_c, 0, 81, 66
1, 8714, Control_c, 0, 64, 108
1, 8739, Note_off_c, 0, 78, 57
1, 8744, Control_c, 0, 64, 109
1, 8754, Note_off_c, 0, 81, 61
1, 8757, Note_on_c, 0, 61, 65
1, 8766, Note_on_c, 0, 76, 66
1, 8777, Note_on_c, 0, 80, 56
1, 8779, Note_off_c, 0, 61, 65
1, 8788, Control_c, 0, 64, 108
1, 8790, Note_off_c, 0, 52, 61
1, 8817, Control_c, 0, 64, 105
1, 8818, Note_off_c, 0, 76, 58
1, 8820, Note_off_c, 0, 80, 62
1, 8832, Control_c, 0, 64, 99
1, 8836, Note_on_c, 0, 81, 67
1, 8840, Note_on_c, 0, 78, 48
1, 8847, Control_c, 0, 64, 90
1, 8862, Control_c, 0, 64, 79
1, 8876, Control_c, 0, 64, 65
1, 8884, Note_off_c, 0, 78, 49
1, 8887, Note_off_c, 0, 81, 61
1, 8888, Note_on_c, 0, 32, 73
1, 8891, Control_c, 0, 64, 0
1, 8914, Note_on_c, 0, 80, 62
1, 8918, Note_on_c, 0, 76, 65
1, 8957, Note_off_c, 0, 80, 56
1, 8957, Note_off_c, 0, 76, 58
1, 8973, Control_c, 0, 64, 47
1, 8978, Note_on_c, 0, 81, 69
1, 8988, Control_c, 0, 64, 65
1, 8995, Note_off_c, 0, 32, 57
1, 8998, Note_on_c, 0, 78, 45
1, 9003, Control_c, 0, 64, 77
1, 9009, Note_on_c, 0, 44, 70
1, 9018, Control_c, 0, 64, 92
1, 9022, Note_off_c, 0, 78, 58
1, 9028, Note_off_c, 0, 81, 62
1, 9031, Control_c, 0, 64, 103
1, 9039, Note_on_c, 0, 80, 45
1, 9040, Note_off_c, 0, 44, 62
1, 9046, Control_c, 0, 64, 109
1, 9058, Note_on_c, 0, 76, 68
1, 9061, Note_off_c, 0, 80, 62
1, 9061, Control_c, 0, 64, 115
1, 9076, Control_c, 0, 64, 127
1, 9087, Note_off_c, 0, 76, 62
1, 9095, Note_on_c, 0, 78, 64
1, 9098, Note_on_c, 0, 81, 65
1, 9144, Note_on_c, 0, 80, 62
1, 9144, Note_off_c, 0, 78, 56
1, 9153, Note_on_c, 0, 52, 67
1, 9168, Note_off_c, 0, 81, 63
1, 9168, Note_on_c, 0, 76, 71
1, 9195, Note_off_c, 0, 80, 65
1, 9207, Note_off_c, 0, 76, 60
1, 9216, Note_on_c, 0, 79, 63
1, 9225, Note_on_c, 0, 75, 64
1, 9263, Note_off_c, 0, 75, 63
1, 9277, Note_off_c, 0, 79, 62
1, 9278, Note_on_c, 0, 80, 66
1, 9279, Note_on_c, 0, 76, 77
1, 9285, Note_on_c, 0, 61, 73
1, 9311, Note_off_c, 0, 52, 62
1, 9313, Note_off_c, 0, 61, 66
1, 9330, Note_off_c, 0, 76, 43
1, 9341, Note_off_c, 0, 80, 61
1, 9347, Note_on_c, 0, 78, 68
1, 9348, Note_on_c, 0, 81, 66
1, 9396, Note_on_c, 0, 80, 68
1, 9404, Note_off_c, 0, 78, 62
1, 9407, Note_on_c, 0, 51, 69
1, 9408, Note_off_c, 0, 81, 63
1, 9412, Note_on_c, 0, 76, 77
1, 9418, Control_c, 0, 64, 122
1, 9433, Control_c, 0, 64, 112
1, 9447, Control_c, 0, 64, 101
1, 9450, Note_off_c, 0, 80, 64
1, 9453, Note_on_c, 0, 79, 73
1, 9462, Control_c, 0, 64, 88
1, 9463, Note_off_c, 0, 76, 62
1, 9475, Note_on_c, 0, 75, 64
1, 9477, Control_c, 0, 64, 77
1, 9491, Control_c, 0, 64, 65
1, 9506, Control_c, 0, 64, 37
1, 9517, Note_off_c, 0, 75, 63
1, 9517, Note_on_c, 0, 80, 61
1, 9521, Control_c, 0, 64, 0
1, 9523, Note_off_c, 0, 79, 62
1, 9529, Note_on_c, 0, 76, 80
1, 9539, Note_on_c, 0, 49, 76
1, 9556, Note_off_c, 0, 51, 55
1, 9585, Note_off_c, 0, 76, 61
1, 9589, Note_on_c, 0, 81, 73
1, 9592, Note_off_c, 0, 80, 64
1, 9594, Note_on_c, 0, 78, 74
1, 9595, Control_c, 0, 64, 52
1, 9610, Control_c, 0, 64, 65
1, 9624, Control_c, 0, 64, 71
1, 9647, Control_c, 0, 64, 78
1, 9662, Note_on_c, 0, 80, 73
1, 9662, Control_c, 0, 64, 83
1, 9663, Note_off_c, 0, 78, 63
1, 9669, Note_off_c, 0, 81, 64
1, 9673, Note_on_c, 0, 76, 74
1, 9677, Control_c, 0, 64, 87
1, 9684, Note_on_c, 0, 52, 61
1, 9692, Control_c, 0, 64, 93
1, 9706, Control_c, 0, 64, 99
1, 9715, Note_on_c, 0, 79, 70
1, 9716, Note_off_c, 0, 80, 62
1, 9718, Note_off_c, 0, 76, 63
1, 9721, Control_c, 0, 64, 104
1, 9726, Note_on_c, 0, 75, 73
1, 9736, Control_c, 0, 64, 110
1, 9751, Control_c, 0, 64, 117
1, 9766, Control_c, 0, 64, 118
1, 9773, Note_on_c, 0, 80, 64
1, 9781, Note_off_c, 0, 75, 62
1, 9785, Note_on_c, 0, 61, 77
1, 9789, Note_on_c, 0, 76, 83
1, 9792, Note_off_c, 0, 79, 61
1, 9809, Note_off_c, 0, 61, 67
1, 9812, Note_off_c, 0, 52, 63
1, 9829, Note_off_c, 0, 80, 65
1, 9832, Note_off_c, 0, 49, 64
1, 9836, Note_off_c, 0, 76, 59
1, 9840, Control_c, 0, 64, 117
1, 9845, Note_on_c, 0, 81, 61
1, 9855, Control_c, 0, 64, 110
1, 9862, Note_on_c, 0, 78, 76
1, 9870, Control_c, 0, 64, 101
1, 9872, Note_on_c, 0, 80, 63
1, 9875, Note_off_c, 0, 81, 68
1, 9885, Control_c, 0, 64, 92
1, 9899, Control_c, 0, 64, 81
1, 9908, Note_off_c, 0, 80, 62
1, 9913, Note_off_c, 0, 78, 63
1, 9914, Control_c, 0, 64, 69
1, 9923, Note_on_c, 0, 32, 76
1, 9928, Note_on_c, 0, 76, 68
1, 9929, Control_c, 0, 64, 48
1, 9944, Control_c, 0, 64, 0
1, 9964, Note_on_c, 0, 79, 68
1, 9970, Note_off_c, 0, 76, 63
1, 9986, Note_on_c, 0, 75, 69
1, 10022, Note_off_c, 0, 79, 62
1, 10033, Control_c, 0, 64, 34
1, 10047, Note_off_c, 0, 75, 62
1, 10048, Control_c, 0, 64, 65
1, 10052, Note_off_c, 0, 32, 60
1, 10054, Note_on_c, 0, 44, 63
1, 10057, Note_on_c, 0, 80, 71
1, 10062, Control_c, 0, 64, 77
1, 10077, Control_c, 0, 64, 93
1, 10086, Note_off_c, 0, 44, 63
1, 10090, Note_on_c, 0, 76, 61
1, 10092, Control_c, 0, 64, 108
1, 10107, Control_c, 0, 64, 127
1, 10134, Note_off_c, 0, 76, 60
1, 10150, Note_off_c, 0, 80, 58
1, 10162, Note_on_c, 0, 81, 59
1, 10167, Control_c, 0, 67, 126
1, 10175, Note_on_c, 0, 78, 56
1, 10181, Control_c, 0, 67, 124
1, 10196, Control_c, 0, 67, 124
1, 10211, Control_c, 0, 67, 123
1, 10226, Control_c, 0, 67, 123
1, 10241, Control_c, 0, 67, 122
1, 10244, Note_off_c, 0, 81, 62
1, 10249, Note_off_c, 0, 78, 36
1, 10256, Control_c, 0, 67, 120
1, 10271, Control_c, 0, 67, 120
1, 10282, Note_on_c, 0, 82, 55
1, 10286, Control_c, 0, 67, 119
1, 10292, Note_on_c, 0, 79, 58
1, 10294, Note_on_c, 0, 73, 60
1, 10298, Note_on_c, 0, 64, 50
1, 10301, Control_c, 0, 67, 119
1, 10303, Note_on_c, 0, 68, 50
1, 10315, Control_c, 0, 67, 117
1, 10328, Note_off_c, 0, 64, 56
1, 10328, Note_off_c, 0, 73, 48
1, 10328, Note_off_c, 0, 79, 61
1, 10330, Control_c, 0, 67, 116
1, 10333, Note_off_c, 0, 68, 63
1, 10345, Control_c, 0, 67, 115
1, 10352, Note_on_c, 0, 83, 62
1, 10360, Control_c, 0, 67, 113
1, 10374, Note_off_c, 0, 82, 39
1, 10375, Control_c, 0, 67, 110
1, 10394, Note_on_c, 0, 80, 39
1, 10396, Control_c, 0, 67, 109
1, 10404, Note_off_c, 0, 83, 60
1, 10411, Control_c, 0, 67, 108
1, 10424, Note_off_c, 0, 80, 59
1, 10426, Note_on_c, 0, 84, 58
1, 10426, Control_c, 0, 67, 108
1, 10441, Note_on_c, 0, 64, 48
1, 10441, Note_on_c, 0, 73, 52
1, 10449, Note_on_c, 0, 81, 59
1, 10452, Note_on_c, 0, 68, 51
1, 10463, Note_off_c, 0, 84, 59
1, 10464, Note_off_c, 0, 73, 60
1, 10469, Note_off_c, 0, 64, 62
1, 10481, Note_off_c, 0, 81, 60
1, 10494, Note_on_c, 0, 82, 68
1, 10501, Control_c, 0, 67, 107
1, 10501, Note_on_c, 0, 85, 65
1, 10516, Control_c, 0, 67, 107
1, 10521, Note_off_c, 0, 68, 62
1, 10530, Control_c, 0, 67, 106
1, 10530, Note_off_c, 0, 85, 64
1, 10533, Note_off_c, 0, 82, 56
1, 10545, Control_c, 0, 67, 104
1, 10560, Control_c, 0, 67, 103
1, 10575, Note_on_c, 0, 83, 62
1, 10575, Note_on_c, 0, 86, 67
1, 10575, Control_c, 0, 67, 102
1, 10580, Note_on_c, 0, 64, 51
1, 10590, Control_c, 0, 67, 101
1, 10591, Note_on_c, 0, 69, 52
1, 10592, Note_off_c, 0, 83, 64
1, 10596, Note_on_c, 0, 61, 52
1, 10604, Control_c, 0, 67, 100
1, 10608, Note_off_c, 0, 86, 60
1, 10617, Note_off_c, 0, 69, 55
1, 10619, Note_off_c, 0, 61, 61
1, 10619, Control_c, 0, 67, 99
1, 10620, Note_off_c, 0, 64, 59
1, 10634, Control_c, 0, 67, 98
1, 10646, Note_on_c, 0, 87, 73
1, 10648, Note_on_c, 0, 84, 74
1, 10648, Control_c, 0, 67, 96
1, 10663, Control_c, 0, 67, 94
1, 10678, Control_c, 0, 64, 94
1, 10678, Control_c, 0, 67, 91
1, 10685, Note_off_c, 0, 84, 55
1, 10693, Control_c, 0, 64, 70
1, 10693, Control_c, 0, 67, 86
1, 10703, Note_on_c, 0, 69, 69
1, 10708, Control_c, 0, 64, 61
1, 10708, Control_c, 0, 67, 77
1, 10711, Note_on_c, 0, 88, 68
1, 10712, Note_on_c, 0, 85, 65
1, 10715, Note_off_c, 0, 87, 52
1, 10716, Note_on_c, 0, 61, 52
1, 10718, Note_on_c, 0, 64, 59
1, 10722, Control_c, 0, 64, 74
1, 10722, Control_c, 0, 67, 66
1, 10737, Control_c, 0, 64, 121
1, 10737, Control_c, 0, 67, 54
1, 10746, Note_off_c, 0, 88, 65
1, 10748, Note_off_c, 0, 69, 62
1, 10751, Note_off_c, 0, 85, 56
1, 10751, Note_off_c, 0, 61, 63
1, 10752, Control_c, 0, 64, 127
1, 10752, Control_c, 0, 67, 43
1, 10754, Note_off_c, 0, 64, 64
1, 10765, Note_on_c, 0, 89, 71
1, 10767, Control_c, 0, 67, 30
1, 10780, Note_on_c, 0, 86, 75
1, 10782, Control_c, 0, 67, 16
1, 10796, Control_c, 0, 67, 0
1, 10810, Note_off_c, 0, 86, 59
1, 10814, Note_off_c, 0, 89, 55
1, 10823, Note_on_c, 0, 87, 78
1, 10826, Note_on_c, 0, 68, 73
1, 10832, Note_on_c, 0, 64, 67
1, 10832, Note_on_c, 0, 90, 71
1, 10840, Note_on_c, 0, 61, 60
1, 10859, Note_off_c, 0, 90, 64
1, 10860, Note_off_c, 0, 68, 64
1, 10865, Note_off_c, 0, 64, 65
1, 10871, Note_off_c, 0, 61, 63
1, 10893, Note_off_c, 0, 87, 61
1, 10897, Note_on_c, 0, 91, 81
1, 10899, Note_on_c, 0, 88, 79
1, 10918, Note_off_c, 0, 88, 73
1, 10945, Note_off_c, 0, 91, 62
1, 10953, Note_on_c, 0, 68, 79
1, 10957, Note_on_c, 0, 92, 84
1, 10959, Note_on_c, 0, 61, 68
1, 10960, Note_on_c, 0, 64, 64
1, 10980, Note_on_c, 0, 89, 77
1, 10984, Note_off_c, 0, 68, 61
1, 10986, Note_off_c, 0, 61, 65
1, 11006, Note_off_c, 0, 64, 61
1, 11016, Note_off_c, 0, 92, 62
1, 11016, Note_off_c, 0, 89, 61
1, 11017, Note_on_c, 0, 93, 77
1, 11022, Note_on_c, 0, 90, 77
1, 11053, Note_off_c, 0, 90, 63
1, 11077, Note_on_c, 0, 61, 58
1, 11078, Note_on_c, 0, 66, 80
1, 11081, Note_off_c, 0, 93, 59
1, 11088, Note_on_c, 0, 94, 87
1, 11097, Note_on_c, 0, 56, 65
1, 11099, Note_on_c, 0, 91, 78
1, 11115, Note_off_c, 0, 66, 56
1, 11127, Note_off_c, 0, 56, 65
1, 11127, Note_off_c, 0, 91, 59
1, 11136, Note_off_c, 0, 61, 62
1, 11139, Control_c, 0, 64, 110
1, 11141, Note_on_c, 0, 95, 79
1, 11155, Note_on_c, 0, 92, 78
1, 11160, Control_c, 0, 64, 79
1, 11175, Control_c, 0, 64, 52
1, 11181, Note_off_c, 0, 94, 65
1, 11190, Control_c, 0, 64, 0
1, 11205, Control_c, 0, 64, 63
1, 11212, Note_on_c, 0, 66, 83
1, 11212, Note_on_c, 0, 96, 82
1, 11213, Note_on_c, 0, 93, 85
1, 11213, Note_off_c, 0, 92, 64
1, 11214, Note_off_c, 0, 95, 66
1, 11216, Note_on_c, 0, 56, 62
1, 11220, Control_c, 0, 64, 81
1, 11231, Note_on_c, 0, 61, 53
1, 11234, Control_c, 0, 64, 127
1, 11254, Note_off_c, 0, 56, 64
1, 11259, Note_off_c, 0, 66, 62
1, 11261, Note_off_c, 0, 61, 64
1, 11271, Note_on_c, 0, 97, 88
1, 11274, Note_off_c, 0, 93, 60
1, 11276, Note_off_c, 0, 96, 66
1, 11276, Note_on_c, 0, 94, 82
1, 11329, Note_off_c, 0, 97, 61
1, 11334, Note_on_c, 0, 64, 72
1, 11337, Note_off_c, 0, 94, 38
1, 11341, Note_on_c, 0, 61, 62
1, 11341, Note_on_c, 0, 95, 80
1, 11342, Note_on_c, 0, 56, 71
1, 11344, Note_on_c, 0, 98, 84
1, 11362, Note_off_c, 0, 64, 67
1, 11366, Note_off_c, 0, 95, 59
1, 11374, Note_off_c, 0, 56, 61
1, 11376, Note_off_c, 0, 61, 63
1, 11406, Note_off_c, 0, 98, 64
1, 11409, Note_on_c, 0, 99, 83
1, 11416, Note_on_c, 0, 96, 73
1, 11463, Note_on_c, 0, 97, 87
1, 11463, Note_on_c, 0, 100, 81
1, 11465, Note_on_c, 0, 64, 81
1, 11467, Note_on_c, 0, 56, 70
1, 11471, Note_off_c, 0, 96, 66
1, 11475, Note_on_c, 0, 61, 68
1, 11494, Note_off_c, 0, 99, 63
1, 11495, Note_off_c, 0, 64, 62
1, 11509, Note_off_c, 0, 61, 63
1, 11519, Note_off_c, 0, 56, 62
1, 11536, Note_off_c, 0, 100, 63
1, 11549, Note_off_c, 0, 97, 64
1, 11602, Note_on_c, 0, 63, 71
1, 11609, Note_on_c, 0, 56, 69
1, 11614, Note_on_c, 0, 54, 58
1, 11651, Note_off_c, 0, 54, 63
1, 11651, Note_off_c, 0, 63, 62
1, 11652, Note_off_c, 0, 56, 62
1, 11693, Control_c, 0, 64, 117
1, 11708, Control_c, 0, 64, 80
1, 11723, Control_c, 0, 64, 44
1, 11736, Note_on_c, 0, 63, 80
1, 11738, Note_on_c, 0, 54, 65
1, 11738, Control_c, 0, 64, 0
1, 11747, Note_on_c, 0, 56, 75
1, 11753, Control_c, 0, 64, 41
1, 11768, Control_c, 0, 64, 67
1, 11782, Control_c, 0, 64, 99
1, 11783, Note_off_c, 0, 63, 60
1, 11786, Note_off_c, 0, 56, 61
1, 11790, Note_off_c, 0, 54, 61
1, 11797, Control_c, 0, 64, 127
1, 11867, Note_on_c, 0, 61, 81
1, 11873, Note_on_c, 0, 52, 72
1, 11877, Note_on_c, 0, 56, 79
1, 11914, Note_off_c, 0, 52, 65
1, 11918, Note_off_c, 0, 61, 57
1, 11937, Note_off_c, 0, 56, 61
1, 12012, Note_on_c, 0, 56, 87
1, 12016, Note_on_c, 0, 54, 76
1, 12017, Note_on_c, 0, 63, 85
1, 12049, Note_off_c, 0, 54, 67
1, 12052, Note_off_c, 0, 56, 62
1, 12057, Note_off_c, 0, 63, 62
1, 12160, Note_on_c, 0, 66, 86
1, 12182, Note_on_c, 0, 64, 76
1, 12185, Note_on_c, 0, 56, 66
1, 12193, Note_on_c, 0, 61, 65
1, 12206, Note_off_c, 0, 66, 62
1, 12230, Note_off_c, 0, 64, 66
1, 12249, Note_off_c, 0, 61, 64
1, 12253, Note_off_c, 0, 56, 65
1, 12354, Control_c, 0, 64, 102
1, 12368, Control_c, 0, 64, 77
1, 12383, Control_c, 0, 64, 48
1, 12398, Control_c, 0, 64, 0
1, 12401, Note_on_c, 0, 51, 74
1, 12402, Note_on_c, 0, 100, 81
1, 12416, Note_on_c, 0, 97, 69
1, 12442, Control_c, 0, 64, 19
1, 12457, Control_c, 0, 64, 73
1, 12465, Note_off_c, 0, 51, 63
1, 12472, Control_c, 0, 64, 127
1, 12506, Note_on_c, 0, 99, 77
1, 12507, Note_off_c, 0, 100, 63
1, 12520, Note_on_c, 0, 95, 75
1, 12524, Note_off_c, 0, 97, 62
1, 12531, Note_off_c, 0, 99, 67
1, 12565, Note_off_c, 0, 95, 67
1, 12602, Note_on_c, 0, 71, 91
1, 12608, Note_on_c, 0, 94, 76
1, 12609, Note_on_c, 0, 61, 76
1, 12612, Note_on_c, 0, 97, 73
1, 12619, Note_on_c, 0, 63, 74
1, 12647, Note_off_c, 0, 97, 63
1, 12650, Note_off_c, 0, 61, 63
1, 12656, Note_off_c, 0, 71, 61
1, 12662, Note_off_c, 0, 63, 60
1, 12665, Note_on_c, 0, 92, 78
1, 12666, Note_off_c, 0, 94, 61
1, 12707, Note_on_c, 0, 95, 62
1, 12715, Note_off_c, 0, 92, 64
1, 12732, Note_on_c, 0, 91, 48
1, 12745, Note_on_c, 0, 71, 103
1, 12754, Note_on_c, 0, 61, 84
1, 12755, Note_on_c, 0, 63, 77
1, 12755, Note_off_c, 0, 91, 58
1, 12774, Note_on_c, 0, 94, 70
1, 12783, Note_on_c, 0, 92, 81
1, 12783, Note_off_c, 0, 95, 65
1, 12798, Note_off_c, 0, 94, 68
1, 12801, Note_on_c, 0, 88, 81
1, 12816, Note_off_c, 0, 92, 62
1, 12865, Note_on_c, 0, 91, 80
1, 12874, Note_on_c, 0, 70, 89
1, 12878, Note_on_c, 0, 87, 82
1, 12878, Note_off_c, 0, 88, 68
1, 12891, Note_off_c, 0, 71, 53
1, 12923, Note_off_c, 0, 87, 58
1, 12927, Note_on_c, 0, 85, 84
1, 12944, Note_on_c, 0, 88, 70
1, 12960, Note_off_c, 0, 91, 62
1, 12976, Note_on_c, 0, 87, 72
1, 12984, Control_c, 0, 64, 107
1, 12990, Note_off_c, 0, 85, 64
1, 12990, Note_off_c, 0, 88, 67
1, 12995, Note_on_c, 0, 83, 83
1, 12999, Control_c, 0, 64, 77
1, 13000, Note_on_c, 0, 68, 83
1, 13002, Note_off_c, 0, 87, 67
1, 13014, Control_c, 0, 64, 42
1, 13023, Note_off_c, 0, 70, 54
1, 13029, Control_c, 0, 64, 0
1, 13037, Note_off_c, 0, 83, 0
1, 13043, Control_c, 0, 64, 29
1, 13058, Control_c, 0, 64, 63
1, 13064, Poly_aftertouch_c, 0, 83, 0
1, 13065, Note_on_c, 0, 85, 77
1, 13067, Note_on_c, 0, 82, 79
1, 13073, Control_c, 0, 64, 83
1, 13088, Control_c, 0, 64, 127
1, 13113, Note_on_c, 0, 80, 82
1, 13117, Note_off_c, 0, 82, 65
1, 13126, Note_on_c, 0, 67, 75
1, 13139, Note_on_c, 0, 83, 65
1, 13142, Note_off_c, 0, 85, 63
1, 13153, Note_off_c, 0, 68, 59
1, 13163, Note_off_c, 0, 67, 63
1, 13167, Note_off_c, 0, 80, 63
1, 13176, Note_off_c, 0, 61, 60
1, 13178, Note_on_c, 0, 79, 69
1, 13197, Note_off_c, 0, 63, 63
1, 13198, Note_off_c, 0, 79, 65
1, 13207, Note_on_c, 0, 82, 80
1, 13222, Control_c, 0, 67, 11
1, 13234, Note_off_c, 0, 83, 63
1, 13237, Control_c, 0, 67, 23
1, 13242, Note_on_c, 0, 80, 70
1, 13251, Control_c, 0, 67, 39
1, 13253, Note_off_c, 0, 82, 64
1, 13262, Note_on_c, 0, 76, 80
1, 13264, Note_off_c, 0, 80, 71
1, 13266, Control_c, 0, 67, 60
1, 13281, Control_c, 0, 67, 87
1, 13296, Control_c, 0, 67, 111
1, 13311, Control_c, 0, 67, 127
1, 13316, Note_on_c, 0, 79, 61
1, 13327, Note_off_c, 0, 76, 64
1, 13330, Note_on_c, 0, 75, 70
1, 13374, Note_on_c, 0, 73, 86
1, 13377, Note_off_c, 0, 75, 60
1, 13396, Note_on_c, 0, 76, 67
1, 13398, Note_off_c, 0, 79, 59
1, 13407, Control_c, 0, 64, 116
1, 13422, Control_c, 0, 64, 104
1, 13431, Note_on_c, 0, 75, 53
1, 13437, Note_off_c, 0, 73, 62
1, 13437, Control_c, 0, 64, 91
1, 13443, Note_on_c, 0, 71, 77
1, 13447, Note_off_c, 0, 76, 57
1, 13452, Control_c, 0, 64, 76
1, 13459, Note_off_c, 0, 75, 64
1, 13467, Control_c, 0, 64, 52
1, 13482, Control_c, 0, 64, 0
1, 13499, Note_off_c, 0, 71, 43
1, 13520, Note_on_c, 0, 44, 57
1, 13520, Note_on_c, 0, 70, 63
1, 13526, Note_on_c, 0, 74, 61
1, 13541, Control_c, 0, 64, 62
1, 13550, Note_off_c, 0, 70, 64
1, 13556, Control_c, 0, 64, 85
1, 13568, Note_off_c, 0, 44, 60
1, 13571, Control_c, 0, 64, 120
1, 13579, Note_off_c, 0, 74, 65
1, 13586, Control_c, 0, 64, 127
1, 13602, Note_on_c, 0, 75, 58
1, 13607, Note_on_c, 0, 71, 54
1, 13616, Control_c, 0, 64, 101
1, 13628, Note_off_c, 0, 71, 62
1, 13630, Control_c, 0, 64, 77
1, 13644, Note_on_c, 0, 70, 54
1, 13645, Control_c, 0, 64, 33
1, 13646, Note_off_c, 0, 75, 61
1, 13660, Control_c, 0, 64, 0
1, 13665, Note_on_c, 0, 51, 52
1, 13671, Note_on_c, 0, 74, 63
1, 13673, Note_on_c, 0, 59, 44
1, 13693, Note_off_c, 0, 70, 63
1, 13694, Note_off_c, 0, 51, 64
1, 13702, Note_off_c, 0, 59, 56
1, 13711, Note_off_c, 0, 74, 63
1, 13716, Note_on_c, 0, 71, 62
1, 13744, Note_on_c, 0, 75, 49
1, 13774, Note_off_c, 0, 71, 57
1, 13788, Note_off_c, 0, 75, 64
1, 13789, Note_on_c, 0, 46, 61
1, 13794, Note_on_c, 0, 73, 65
1, 13806, Note_on_c, 0, 76, 69
1, 13826, Note_off_c, 0, 73, 61
1, 13851, Note_off_c, 0, 76, 63
1, 13865, Note_on_c, 0, 71, 65
1, 13873, Note_on_c, 0, 75, 56
1, 13896, Note_off_c, 0, 46, 28
1, 13910, Note_off_c, 0, 71, 60
1, 13917, Note_off_c, 0, 75, 63
1, 13932, Note_on_c, 0, 73, 59
1, 13932, Note_on_c, 0, 76, 65
1, 13948, Note_on_c, 0, 44, 49
1, 13976, Note_off_c, 0, 73, 58
1, 13997, Note_off_c, 0, 76, 60
1, 14015, Note_on_c, 0, 71, 61
1, 14016, Note_on_c, 0, 75, 43
1, 14021, Note_off_c, 0, 44, 52
1, 14030, Control_c, 0, 64, 25
1, 14044, Note_off_c, 0, 71, 63
1, 14045, Control_c, 0, 64, 83
1, 14055, Note_off_c, 0, 75, 64
1, 14057, Note_on_c, 0, 43, 53
1, 14059, Control_c, 0, 64, 127
1, 14072, Note_on_c, 0, 73, 60
1, 14078, Note_on_c, 0, 70, 51
1, 14087, Note_off_c, 0, 43, 53
1, 14110, Note_off_c, 0, 73, 61
1, 14116, Note_off_c, 0, 70, 65
1, 14119, Control_c, 0, 64, 85
1, 14134, Control_c, 0, 64, 47
1, 14137, Note_on_c, 0, 71, 56
1, 14138, Note_on_c, 0, 75, 66
1, 14155, Control_c, 0, 64, 0
1, 14189, Note_off_c, 0, 71, 60
1, 14191, Note_off_c, 0, 75, 62
1, 14200, Note_on_c, 0, 73, 62
1, 14203, Note_on_c, 0, 63, 64
1, 14207, Note_on_c, 0, 51, 65
1, 14209, Note_on_c, 0, 70, 64
1, 14235, Note_off_c, 0, 63, 65
1, 14237, Note_off_c, 0, 73, 63
1, 14239, Note_off_c, 0, 51, 63
1, 14247, Note_off_c, 0, 70, 64
1, 14258, Note_on_c, 0, 71, 70
1, 14277, Note_on_c, 0, 75, 66
1, 14286, Note_off_c, 0, 71, 64
1, 14319, Control_c, 0, 64, 48
1, 14334, Control_c, 0, 64, 86
1, 14336, Note_on_c, 0, 44, 52
1, 14338, Note_on_c, 0, 70, 49
1, 14341, Note_on_c, 0, 73, 70
1, 14343, Note_off_c, 0, 75, 61
1, 14349, Control_c, 0, 64, 127
1, 14356, Note_on_c, 0, 46, 36
1, 14364, Note_off_c, 0, 44, 54
1, 14372, Note_off_c, 0, 70, 61
1, 14384, Note_on_c, 0, 71, 64
1, 14385, Note_on_c, 0, 68, 78
1, 14388, Note_off_c, 0, 46, 54
1, 14396, Note_off_c, 0, 73, 62
1, 14423, Note_off_c, 0, 68, 64
1, 14443, Note_on_c, 0, 70, 78
1, 14447, Note_off_c, 0, 71, 64
1, 14465, Note_on_c, 0, 73, 72
1, 14468, Note_on_c, 0, 63, 75
1, 14477, Note_on_c, 0, 51, 66
1, 14492, Note_off_c, 0, 63, 67
1, 14504, Note_on_c, 0, 68, 77
1, 14507, Note_on_c, 0, 71, 73
1, 14509, Note_off_c, 0, 51, 64
1, 14509, Note_off_c, 0, 70, 51
1, 14512, Control_c, 0, 64, 108
1, 14527, Control_c, 0, 64, 96
1, 14528, Note_off_c, 0, 68, 71
1, 14530, Note_off_c, 0, 71, 71
1, 14532, Note_off_c, 0, 73, 63
1, 14542, Control_c, 0, 64, 79
1, 14557, Control_c, 0, 64, 60
1, 14571, Control_c, 0, 64, 0
1, 14630, Control_c, 0, 67, 123
1, 14640, Note_on_c, 0, 39, 70
1, 14645, Control_c, 0, 67, 112
1, 14659, Note_on_c, 0, 88, 81
1, 14660, Control_c, 0, 64, 65
1, 14660, Control_c, 0, 67, 94
1, 14666, Note_on_c, 0, 85, 75
1, 14675, Control_c, 0, 64, 87
1, 14675, Control_c, 0, 67, 74
1, 14678, Note_off_c, 0, 39, 63
1, 14689, Control_c, 0, 64, 127
1, 14689, Control_c, 0, 67, 53
1, 14704, Control_c, 0, 67, 34
1, 14719, Control_c, 0, 67, 17
1, 14726, Note_off_c, 0, 88, 66
1, 14731, Note_on_c, 0, 87, 79
1, 14734, Control_c, 0, 67, 0
1, 14743, Note_off_c, 0, 85, 62
1, 14750, Note_on_c, 0, 83, 77
1, 14751, Note_off_c, 0, 87, 69
1, 14775, Note_off_c, 0, 83, 64
1, 14808, Note_on_c, 0, 59, 68
1, 14814, Note_on_c, 0, 82, 75
1, 14816, Note_on_c, 0, 51, 60
1, 14820, Note_on_c, 0, 85, 71
1, 14829, Note_on_c, 0, 49, 41
1, 14842, Note_off_c, 0, 59, 60
1, 14858, Note_off_c, 0, 51, 62
1, 14860, Note_off_c, 0, 85, 67
1, 14862, Note_on_c, 0, 80, 79
1, 14862, Note_off_c, 0, 49, 56
1, 14865, Note_off_c, 0, 82, 60
1, 14883, Note_on_c, 0, 83, 58
1, 14918, Note_off_c, 0, 80, 63
1, 14927, Note_on_c, 0, 79, 73
1, 14940, Note_on_c, 0, 59, 82
1, 14945, Note_on_c, 0, 49, 71
1, 14950, Note_off_c, 0, 79, 67
1, 14953, Poly_aftertouch_c, 0, 84, 127
1, 14954, Note_on_c, 0, 51, 72
1, 14963, Note_on_c, 0, 82, 81
1, 14987, Poly_aftertouch_c, 0, 84, 0
1, 14990, Note_off_c, 0, 83, 62
1, 15002, Note_on_c, 0, 80, 68
1, 15008, Note_off_c, 0, 82, 65
1, 15017, Note_on_c, 0, 76, 81
1, 15024, Note_off_c, 0, 80, 70
1, 15071, Note_on_c, 0, 79, 72
1, 15076, Note_on_c, 0, 58, 82
1, 15084, Note_off_c, 0, 76, 63
1, 15087, Note_on_c, 0, 75, 70
1, 15093, Note_off_c, 0, 59, 50
1, 15123, Note_off_c, 0, 75, 59
1, 15133, Note_on_c, 0, 73, 77
1, 15141, Control_c, 0, 64, 115
1, 15154, Note_on_c, 0, 76, 64
1, 15156, Control_c, 0, 64, 85
1, 15170, Note_off_c, 0, 79, 59
1, 15171, Control_c, 0, 64, 56
1, 15185, Control_c, 0, 64, 0
1, 15193, Note_on_c, 0, 75, 63
1, 15200, Note_off_c, 0, 73, 62
1, 15201, Note_off_c, 0, 76, 64
1, 15204, Note_on_c, 0, 71, 80
1, 15209, Note_on_c, 0, 56, 75
1, 15215, Control_c, 0, 64, 56
1, 15219, Note_off_c, 0, 75, 64
1, 15230, Control_c, 0, 64, 70
1, 15244, Control_c, 0, 64, 91
1, 15253, Note_off_c, 0, 58, 37
1, 15259, Control_c, 0, 64, 127
1, 15267, Note_off_c, 0, 71, 36
1, 15283, Note_on_c, 0, 73, 74
1, 15286, Note_on_c, 0, 70, 73
1, 15322, Note_on_c, 0, 68, 78
1, 15333, Note_off_c, 0, 70, 60
1, 15336, Note_off_c, 0, 73, 64
1, 15339, Note_on_c, 0, 55, 71
1, 15348, Note_on_c, 0, 71, 70
1, 15350, Note_off_c, 0, 56, 63
1, 15373, Note_off_c, 0, 68, 66
1, 15377, Note_off_c, 0, 55, 63
1, 15379, Note_off_c, 0, 49, 62
1, 15380, Note_on_c, 0, 67, 76
1, 15390, Note_off_c, 0, 51, 63
1, 15403, Note_off_c, 0, 67, 68
1, 15418, Note_on_c, 0, 70, 79
1, 15434, Note_off_c, 0, 71, 59
1, 15464, Note_off_c, 0, 70, 62
1, 15469, Note_on_c, 0, 68, 56
1, 15477, Note_on_c, 0, 64, 77
1, 15486, Note_off_c, 0, 68, 68
1, 15535, Note_off_c, 0, 64, 64
1, 15536, Note_on_c, 0, 67, 44
1, 15543, Note_on_c, 0, 63, 74
1, 15556, Control_c, 0, 64, 111
1, 15571, Control_c, 0, 64, 102
1, 15585, Control_c, 0, 64, 94
1, 15591, Note_on_c, 0, 61, 77
1, 15600, Control_c, 0, 64, 84
1, 15603, Note_off_c, 0, 67, 62
1, 15615, Control_c, 0, 64, 73
1, 15625, Note_off_c, 0, 63, 0
1, 15627, Note_on_c, 0, 64, 51
1, 15630, Control_c, 0, 64, 62
1, 15649, Note_on_c, 0, 63, 50
1, 15652, Control_c, 0, 64, 32
1, 15659, Note_off_c, 0, 61, 62
1, 15665, Note_off_c, 0, 64, 64
1, 15667, Control_c, 0, 64, 0
1, 15671, Note_on_c, 0, 59, 67
1, 15681, Note_off_c, 0, 63, 66
1, 15727, Note_off_c, 0, 59, 61
1, 15728, Note_on_c, 0, 44, 60
1, 15740, Note_on_c, 0, 58, 60
1, 15741, Control_c, 0, 64, 31
1, 15742, Note_on_c, 0, 62, 57
1, 15756, Control_c, 0, 64, 60
1, 15768, Note_off_c, 0, 58, 66
1, 15770, Control_c, 0, 64, 68
1, 15777, Note_off_c, 0, 44, 59
1, 15784, Note_off_c, 0, 62, 64
1, 15785, Control_c, 0, 64, 74
1, 15800, Control_c, 0, 64, 80
1, 15811, Note_on_c, 0, 59, 57
1, 15816, Control_c, 0, 64, 87
1, 15831, Control_c, 0, 64, 98
1, 15831, Note_off_c, 0, 59, 62
1, 15834, Note_on_c, 0, 63, 52
1, 15845, Control_c, 0, 64, 116
1, 15860, Control_c, 0, 64, 127
1, 15881, Note_off_c, 0, 63, 57
1, 15889, Note_on_c, 0, 61, 48
1, 15898, Note_on_c, 0, 59, 58
1, 15901, Note_on_c, 0, 51, 54
1, 15904, Note_on_c, 0, 64, 58
1, 15923, Note_off_c, 0, 59, 59
1, 15926, Note_off_c, 0, 61, 61
1, 15929, Note_off_c, 0, 51, 64
1, 15934, Note_off_c, 0, 64, 65
1, 15951, Note_on_c, 0, 65, 62
1, 15962, Note_on_c, 0, 62, 61
1, 15982, Note_off_c, 0, 65, 63
1, 15989, Note_off_c, 0, 62, 65
1, 16023, Note_on_c, 0, 66, 63
1, 16028, Note_on_c, 0, 63, 50
1, 16042, Note_on_c, 0, 46, 53
1, 16057, Note_off_c, 0, 66, 61
1, 16076, Note_off_c, 0, 63, 61
1, 16095, Note_on_c, 0, 67, 68
1, 16105, Note_on_c, 0, 64, 48
1, 16128, Note_off_c, 0, 64, 62
1, 16133, Note_off_c, 0, 67, 60
1, 16150, Note_off_c, 0, 46, 59
1, 16158, Note_on_c, 0, 68, 78
1, 16173, Note_on_c, 0, 65, 73
1, 16176, Note_on_c, 0, 44, 57
1, 16204, Note_off_c, 0, 65, 57
1, 16215, Control_c, 0, 64, 92
1, 16216, Note_off_c, 0, 68, 64
1, 16227, Note_on_c, 0, 69, 69
1, 16230, Note_on_c, 0, 66, 66
1, 16230, Control_c, 0, 64, 69
1, 16245, Control_c, 0, 64, 0
1, 16259, Note_off_c, 0, 66, 66
1, 16275, Control_c, 0, 64, 20
1, 16276, Note_off_c, 0, 44, 47
1, 16278, Note_on_c, 0, 43, 82
1, 16288, Note_off_c, 0, 69, 61
1, 16290, Control_c, 0, 64, 68
1, 16294, Note_on_c, 0, 70, 76
1, 16299, Note_on_c, 0, 67, 71
1, 16304, Control_c, 0, 64, 127
1, 16316, Note_off_c, 0, 43, 65
1, 16327, Note_off_c, 0, 67, 64
1, 16348, Note_on_c, 0, 68, 69
1, 16355, Note_on_c, 0, 71, 78
1, 16370, Note_off_c, 0, 70, 53
1, 16413, Note_off_c, 0, 68, 63
1, 16423, Note_on_c, 0, 69, 77
1, 16424, Note_on_c, 0, 72, 75
1, 16424, Note_off_c, 0, 71, 66
1, 16426, Note_on_c, 0, 59, 82
1, 16427, Note_on_c, 0, 53, 83
1, 16449, Note_off_c, 0, 59, 69
1, 16454, Note_off_c, 0, 53, 70
1, 16470, Note_off_c, 0, 72, 55
1, 16477, Note_off_c, 0, 69, 55
1, 16481, Note_on_c, 0, 70, 78
1, 16485, Note_on_c, 0, 73, 84
1, 16546, Note_off_c, 0, 73, 58
1, 16558, Note_on_c, 0, 71, 88
1, 16560, Note_on_c, 0, 74, 81
1, 16562, Note_off_c, 0, 70, 59
1, 16567, Note_on_c, 0, 45, 90
1, 16584, Note_off_c, 0, 71, 67
1, 16606, Note_off_c, 0, 74, 63
1, 16630, Note_on_c, 0, 75, 88
1, 16657, Note_on_c, 0, 72, 74
1, 16677, Note_off_c, 0, 45, 63
1, 16686, Note_on_c, 0, 43, 82
1, 16698, Note_on_c, 0, 44, 54
1, 16702, Note_on_c, 0, 76, 75
1, 16707, Note_off_c, 0, 72, 62
1, 16709, Note_on_c, 0, 73, 79
1, 16721, Note_off_c, 0, 43, 64
1, 16727, Note_off_c, 0, 44, 35
1, 16735, Note_off_c, 0, 75, 61
1, 16747, Note_on_c, 0, 77, 84
1, 16752, Note_off_c, 0, 76, 60
1, 16756, Note_off_c, 0, 73, 66
1, 16767, Note_on_c, 0, 74, 75
1, 16802, Control_c, 0, 64, 109
1, 16817, Control_c, 0, 64, 82
1, 16827, Note_on_c, 0, 42, 91
1, 16827, Note_off_c, 0, 77, 64
1, 16828, Note_on_c, 0, 78, 89
1, 16831, Note_on_c, 0, 75, 84
1, 16832, Control_c, 0, 64, 55
1, 16847, Control_c, 0, 64, 0
1, 16852, Note_off_c, 0, 74, 62
1, 16970, Note_off_c, 0, 75, 64
1, 16978, Note_off_c, 0, 78, 67
1, 16980, Control_c, 0, 64, 67
1, 16995, Control_c, 0, 64, 91
1, 17009, Control_c, 0, 64, 127
1, 17047, Note_on_c, 0, 54, 94
1, 17062, Note_off_c, 0, 42, 63
1, 17077, Note_off_c, 0, 54, 66
1, 17325, Note_on_c, 0, 83, 79
1, 17334, Note_on_c, 0, 78, 69
1, 17339, Note_on_c, 0, 75, 62
1, 17341, Note_on_c, 0, 99, 84
1, 17347, Note_on_c, 0, 95, 71
1, 17366, Note_off_c, 0, 83, 54
1, 17388, Note_off_c, 0, 78, 60
1, 17403, Note_off_c, 0, 75, 62
1, 17407, Note_off_c, 0, 95, 63
1, 17419, Note_on_c, 0, 97, 73
1, 17419, Note_on_c, 0, 100, 77
1, 17444, Note_off_c, 0, 99, 54
1, 17473, Note_off_c, 0, 100, 65
1, 17479, Note_off_c, 0, 97, 63
1, 17483, Note_on_c, 0, 95, 88
1, 17484, Note_on_c, 0, 66, 76
1, 17506, Note_on_c, 0, 68, 39
1, 17509, Note_off_c, 0, 66, 68
1, 17530, Note_off_c, 0, 95, 47
1, 17536, Note_off_c, 0, 68, 55
1, 17542, Note_on_c, 0, 94, 82
1, 17547, Note_on_c, 0, 97, 78
1, 17582, Control_c, 0, 64, 86
1, 17596, Control_c, 0, 64, 52
1, 17607, Note_off_c, 0, 94, 63
1, 17609, Note_on_c, 0, 82, 94
1, 17610, Note_on_c, 0, 95, 90
1, 17611, Control_c, 0, 64, 0
1, 17616, Note_on_c, 0, 73, 75
1, 17619, Note_on_c, 0, 92, 88
1, 17623, Note_on_c, 0, 76, 68
1, 17626, Note_off_c, 0, 97, 64
1, 17626, Control_c, 0, 64, 52
1, 17640, Control_c, 0, 64, 79
1, 17655, Control_c, 0, 64, 127
1, 17670, Note_off_c, 0, 92, 62
1, 17672, Note_off_c, 0, 82, 64
1, 17679, Note_on_c, 0, 97, 72
1, 17683, Note_on_c, 0, 94, 81
1, 17688, Note_off_c, 0, 76, 60
1, 17694, Poly_aftertouch_c, 0, 77, 127
1, 17703, Note_off_c, 0, 95, 66
1, 17723, Note_off_c, 0, 73, 65
1, 17726, Poly_aftertouch_c, 0, 77, 0
1, 17729, Note_off_c, 0, 94, 66
1, 17738, Note_off_c, 0, 97, 64
1, 17739, Note_on_c, 0, 92, 85
1, 17751, Note_on_c, 0, 66, 77
1, 17762, Note_off_c, 0, 92, 65
1, 17805, Note_on_c, 0, 90, 83
1, 17813, Note_on_c, 0, 94, 76
1, 17831, Note_off_c, 0, 66, 60
1, 17848, Control_c, 0, 64, 119
1, 17863, Control_c, 0, 64, 81
1, 17870, Note_on_c, 0, 92, 80
1, 17872, Note_off_c, 0, 90, 63
1, 17877, Note_on_c, 0, 88, 82
1, 17885, Control_c, 0, 64, 53
1, 17887, Note_on_c, 0, 71, 72
1, 17888, Note_on_c, 0, 80, 89
1, 17889, Note_off_c, 0, 94, 65
1, 17893, Note_on_c, 0, 75, 80
1, 17900, Control_c, 0, 64, 0
1, 17914, Control_c, 0, 64, 42
1, 17929, Control_c, 0, 64, 78
1, 17944, Note_off_c, 0, 88, 62
1, 17944, Control_c, 0, 64, 127
1, 17948, Note_on_c, 0, 94, 73
1, 17950, Note_on_c, 0, 90, 73
1, 17958, Note_off_c, 0, 80, 64
1, 17972, Note_off_c, 0, 92, 61
1, 17998, Note_off_c, 0, 94, 65
1, 18006, Note_off_c, 0, 90, 65
1, 18008, Note_on_c, 0, 88, 70
1, 18010, Note_on_c, 0, 66, 83
1, 18033, Note_off_c, 0, 88, 64
1, 18057, Note_off_c, 0, 75, 58
1, 18062, Note_off_c, 0, 71, 62
1, 18066, Note_off_c, 0, 66, 61
1, 18070, Note_on_c, 0, 90, 75
1, 18078, Control_c, 0, 64, 109
1, 18081, Note_on_c, 0, 87, 75
1, 18089, Note_on_c, 0, 78, 74
1, 18093, Control_c, 0, 64, 75
1, 18107, Control_c, 0, 64, 0
1, 18133, Note_on_c, 0, 88, 76
1, 18138, Note_off_c, 0, 78, 42
1, 18141, Note_off_c, 0, 90, 64
1, 18145, Note_on_c, 0, 85, 82
1, 18146, Note_on_c, 0, 76, 85
1, 18152, Control_c, 0, 64, 37
1, 18157, Note_on_c, 0, 70, 80
1, 18162, Note_off_c, 0, 87, 36
1, 18166, Note_off_c, 0, 76, 68
1, 18166, Control_c, 0, 64, 83
1, 18179, Note_off_c, 0, 70, 70
1, 18181, Control_c, 0, 64, 127
1, 18200, Note_on_c, 0, 87, 66
1, 18204, Note_off_c, 0, 85, 63
1, 18208, Note_on_c, 0, 90, 78
1, 18223, Note_off_c, 0, 88, 64
1, 18246, Note_off_c, 0, 87, 63
1, 18252, Note_off_c, 0, 90, 66
1, 18263, Note_on_c, 0, 85, 79
1, 18294, Note_on_c, 0, 66, 76
1, 18301, Control_c, 0, 67, 12
1, 18316, Control_c, 0, 67, 21
1, 18320, Note_off_c, 0, 85, 61
1, 18326, Note_on_c, 0, 87, 78
1, 18326, Note_on_c, 0, 83, 68
1, 18327, Note_off_c, 0, 66, 62
1, 18331, Control_c, 0, 67, 35
1, 18345, Control_c, 0, 67, 52
1, 18360, Control_c, 0, 67, 73
1, 18375, Control_c, 0, 67, 90
1, 18389, Control_c, 0, 67, 104
1, 18397, Note_off_c, 0, 83, 63
1, 18400, Note_on_c, 0, 82, 81
1, 18400, Note_on_c, 0, 85, 73
1, 18404, Control_c, 0, 67, 119
1, 18408, Note_off_c, 0, 87, 63
1, 18413, Note_on_c, 0, 54, 77
1, 18419, Control_c, 0, 67, 127
1, 18448, Note_off_c, 0, 54, 65
1, 18456, Note_off_c, 0, 82, 62
1, 18459, Note_off_c, 0, 85, 64
1, 18469, Note_on_c, 0, 83, 68
1, 18473, Note_on_c, 0, 87, 69
1, 18526, Note_off_c, 0, 83, 59
1, 18528, Note_on_c, 0, 85, 73
1, 18539, Note_off_c, 0, 87, 63
1, 18540, Note_on_c, 0, 82, 78
1, 18549, Note_off_c, 0, 85, 69
1, 18556, Note_on_c, 0, 42, 72
1, 18561, Note_off_c, 0, 82, 71
1, 18605, Note_on_c, 0, 83, 77
1, 18612, Control_c, 0, 64, 122
1, 18615, Note_on_c, 0, 80, 62
1, 18627, Control_c, 0, 64, 96
1, 18639, Note_off_c, 0, 42, 58
1, 18649, Control_c, 0, 64, 72
1, 18663, Control_c, 0, 64, 0
1, 18673, Note_off_c, 0, 80, 49
1, 18679, Note_on_c, 0, 82, 71
1, 18685, Note_off_c, 0, 83, 63
1, 18699, Note_on_c, 0, 30, 62
1, 18701, Note_on_c, 0, 78, 71
1, 18723, Control_c, 0, 64, 55
1, 18737, Control_c, 0, 64, 75
1, 18746, Note_off_c, 0, 78, 63
1, 18752, Control_c, 0, 64, 105
1, 18762, Note_off_c, 0, 30, 49
1, 18767, Note_on_c, 0, 80, 70
1, 18767, Control_c, 0, 64, 127
1, 18772, Note_on_c, 0, 83, 61
1, 18793, Note_off_c, 0, 82, 63
1, 18799, Note_off_c, 0, 80, 64
1, 18799, Note_off_c, 0, 83, 66
1, 18819, Note_on_c, 0, 78, 69
1, 18820, Note_on_c, 0, 42, 60
1, 18842, Note_off_c, 0, 78, 70
1, 18850, Note_off_c, 0, 42, 62
1, 18891, Note_on_c, 0, 80, 71
1, 18899, Note_on_c, 0, 76, 54
1, 18901, Control_c, 0, 64, 111
1, 18916, Control_c, 0, 64, 86
1, 18931, Control_c, 0, 64, 63
1, 18945, Control_c, 0, 64, 0
1, 18951, Note_off_c, 0, 76, 52
1, 18952, Note_off_c, 0, 80, 64
1, 18960, Note_on_c, 0, 78, 65
1, 18962, Note_on_c, 0, 75, 64
1, 18975, Control_c, 0, 64, 51
1, 18979, Note_on_c, 0, 54, 56
1, 18989, Control_c, 0, 64, 68
1, 19002, Note_off_c, 0, 78, 51
1, 19004, Control_c, 0, 64, 87
1, 19009, Note_off_c, 0, 54, 55
1, 19013, Note_off_c, 0, 75, 62
1, 19020, Control_c, 0, 64, 127
1, 19032, Note_on_c, 0, 80, 67
1, 19049, Note_on_c, 0, 76, 49
1, 19089, Note_off_c, 0, 76, 50
1, 19095, Note_on_c, 0, 78, 65
1, 19095, Note_off_c, 0, 80, 64
1, 19105, Note_on_c, 0, 75, 65
1, 19114, Note_off_c, 0, 78, 68
1, 19130, Note_off_c, 0, 75, 66
1, 19130, Note_on_c, 0, 66, 57
1, 19153, Note_off_c, 0, 66, 62
1, 19172, Note_on_c, 0, 76, 70
1, 19192, Note_on_c, 0, 73, 62
1, 19257, Control_c, 0, 64, 105
1, 19262, Note_off_c, 0, 76, 49
1, 19272, Control_c, 0, 64, 82
1, 19277, Note_off_c, 0, 73, 60
1, 19286, Control_c, 0, 64, 61
1, 19301, Control_c, 0, 64, 0
1, 19307, Note_on_c, 0, 47, 46
1, 19312, Note_on_c, 0, 71, 51
1, 19312, Note_on_c, 0, 75, 51
1, 19346, Control_c, 0, 64, 36
1, 19356, Note_off_c, 0, 71, 61
1, 19360, Control_c, 0, 64, 66
1, 19375, Control_c, 0, 64, 83
1, 19398, Control_c, 0, 64, 125
1, 19400, Note_on_c, 0, 76, 49
1, 19408, Note_on_c, 0, 73, 58
1, 19412, Control_c, 0, 64, 127
1, 19414, Note_off_c, 0, 75, 36
1, 19436, Note_off_c, 0, 76, 61
1, 19464, Note_on_c, 0, 77, 61
1, 19475, Note_off_c, 0, 73, 61
1, 19478, Note_on_c, 0, 54, 47
1, 19504, Note_off_c, 0, 77, 60
1, 19507, Note_on_c, 0, 74, 48
1, 19509, Note_off_c, 0, 47, 42
1, 19533, Note_off_c, 0, 74, 57
1, 19547, Note_on_c, 0, 75, 57
1, 19556, Note_on_c, 0, 78, 60
1, 19589, Note_off_c, 0, 78, 63
1, 19601, Note_off_c, 0, 54, 56
1, 19619, Note_off_c, 0, 75, 62
1, 19624, Note_on_c, 0, 59, 54
1, 19628, Note_on_c, 0, 79, 64
1, 19639, Note_on_c, 0, 76, 49
1, 19665, Note_off_c, 0, 76, 58
1, 19689, Note_off_c, 0, 79, 41
1, 19697, Note_on_c, 0, 80, 68
1, 19714, Note_on_c, 0, 77, 59
1, 19737, Note_off_c, 0, 80, 52
1, 19747, Note_off_c, 0, 77, 59
1, 19761, Note_on_c, 0, 81, 71
1, 19762, Note_on_c, 0, 63, 67
1, 19774, Note_off_c, 0, 59, 39
1, 19774, Note_on_c, 0, 78, 54
1, 19792, Note_off_c, 0, 63, 67
1, 19795, Note_off_c, 0, 78, 63
1, 19821, Note_off_c, 0, 81, 59
1, 19838, Note_on_c, 0, 82, 68
1, 19840, Note_on_c, 0, 79, 68
1, 19858, Control_c, 0, 64, 114
1, 19873, Control_c, 0, 64, 88
1, 19879, Note_off_c, 0, 79, 55
1, 19881, Note_off_c, 0, 82, 64
1, 19887, Note_on_c, 0, 83, 76
1, 19888, Control_c, 0, 64, 66
1, 19894, Note_on_c, 0, 49, 70
1, 19896, Note_on_c, 0, 80, 65
1, 19902, Control_c, 0, 64, 0
1, 19947, Control_c, 0, 64, 50
1, 19947, Note_off_c, 0, 83, 64
1, 19950, Note_on_c, 0, 82, 64
1, 19957, Note_off_c, 0, 80, 65
1, 19962, Control_c, 0, 64, 68
1, 19969, Note_on_c, 0, 79, 72
1, 19976, Control_c, 0, 64, 85
1, 19977, Note_off_c, 0, 82, 67
1, 19991, Control_c, 0, 64, 127
1, 20018, Note_off_c, 0, 79, 40
1, 20022, Note_on_c, 0, 81, 75
1, 20024, Note_on_c, 0, 78, 76
1, 20025, Note_on_c, 0, 52, 65
1, 20054, Note_off_c, 0, 49, 54
1, 20080, Note_on_c, 0, 80, 72
1, 20082, Note_on_c, 0, 77, 79
1, 20096, Note_off_c, 0, 81, 63
1, 20120, Note_off_c, 0, 78, 62
1, 20139, Note_off_c, 0, 80, 65
1, 20140, Note_on_c, 0, 58, 60
1, 20140, Note_off_c, 0, 77, 64
1, 20155, Note_on_c, 0, 76, 83
1, 20176, Note_on_c, 0, 79, 71
1, 20206, Note_off_c, 0, 76, 54
1, 20219, Note_on_c, 0, 75, 73
1, 20223, Note_off_c, 0, 79, 62
1, 20226, Note_on_c, 0, 78, 77
1, 20245, Note_off_c, 0, 78, 72
1, 20268, Note_off_c, 0, 75, 62
1, 20272, Note_on_c, 0, 61, 63
1, 20278, Note_on_c, 0, 74, 78
1, 20292, Note_on_c, 0, 77, 71
1, 20296, Note_off_c, 0, 52, 57
1, 20310, Note_off_c, 0, 58, 37
1, 20321, Note_off_c, 0, 74, 58
1, 20333, Note_on_c, 0, 73, 73
1, 20339, Note_on_c, 0, 76, 72
1, 20342, Note_off_c, 0, 61, 60
1, 20367, Note_off_c, 0, 77, 64
1, 20368, Control_c, 0, 64, 105
1, 20383, Control_c, 0, 64, 82
1, 20397, Note_on_c, 0, 51, 68
1, 20398, Control_c, 0, 64, 56
1, 20399, Note_on_c, 0, 75, 63
1, 20407, Note_off_c, 0, 73, 61
1, 20412, Note_off_c, 0, 76, 59
1, 20413, Control_c, 0, 64, 0
1, 20417, Note_on_c, 0, 72, 65
1, 20424, Note_off_c, 0, 75, 66
1, 20433, Note_off_c, 0, 72, 67
1, 20442, Control_c, 0, 64, 9
1, 20457, Control_c, 0, 64, 56
1, 20472, Control_c, 0, 64, 67
1, 20485, Note_on_c, 0, 74, 63
1, 20487, Control_c, 0, 64, 79
1, 20494, Note_on_c, 0, 71, 73
1, 20502, Control_c, 0, 64, 90
1, 20517, Control_c, 0, 64, 95
1, 20528, Note_on_c, 0, 56, 52
1, 20531, Control_c, 0, 64, 97
1, 20541, Note_off_c, 0, 71, 63
1, 20544, Note_off_c, 0, 74, 64
1, 20546, Control_c, 0, 64, 99
1, 20549, Note_on_c, 0, 73, 69
1, 20559, Note_on_c, 0, 70, 61
1, 20561, Control_c, 0, 64, 99
1, 20578, Note_off_c, 0, 73, 66
1, 20591, Note_off_c, 0, 70, 66
1, 20619, Note_on_c, 0, 69, 71
1, 20630, Note_on_c, 0, 72, 62
1, 20654, Note_on_c, 0, 59, 55
1, 20664, Note_off_c, 0, 69, 62
1, 20668, Note_off_c, 0, 72, 63
1, 20674, Note_on_c, 0, 68, 68
1, 20675, Note_on_c, 0, 71, 73
1, 20710, Control_c, 0, 64, 100
1, 20718, Note_off_c, 0, 51, 0
1, 20721, Note_off_c, 0, 68, 57
1, 20728, Note_off_c, 0, 71, 61
1, 20743, Note_on_c, 0, 72, 66
1, 20744, Note_on_c, 0, 69, 73
1, 20772, Note_off_c, 0, 59, 51
1, 20778, Note_on_c, 0, 63, 60
1, 20781, Note_off_c, 0, 69, 52
1, 20784, Poly_aftertouch_c, 0, 51, 0
1, 20791, Note_off_c, 0, 56, 33
1, 20792, Note_off_c, 0, 72, 62
1, 20809, Note_on_c, 0, 73, 71
1, 20812, Note_on_c, 0, 70, 62
1, 20820, Note_off_c, 0, 63, 58
1, 20850, Note_off_c, 0, 73, 56
1, 20855, Note_off_c, 0, 70, 51
1, 20871, Note_on_c, 0, 71, 73
1, 20895, Control_c, 0, 64, 97
1, 20897, Note_on_c, 0, 74, 66
1, 20902, Note_off_c, 0, 71, 70
1, 20910, Control_c, 0, 64, 90
1, 20925, Control_c, 0, 64, 81
1, 20928, Note_off_c, 0, 74, 59
1, 20940, Control_c, 0, 64, 72
1, 20955, Note_on_c, 0, 51, 33
1, 20955, Control_c, 0, 64, 62
1, 20966, Note_on_c, 0, 75, 69
1, 20970, Control_c, 0, 64, 36
1, 20983, Note_on_c, 0, 72, 55
1, 20984, Control_c, 0, 64, 0
1, 21015, Note_off_c, 0, 72, 49
1, 21044, Note_on_c, 0, 76, 69
1, 21044, Control_c, 0, 64, 34
1, 21052, Note_on_c, 0, 73, 57
1, 21056, Note_off_c, 0, 75, 47
1, 21058, Control_c, 0, 64, 62
1, 21073, Control_c, 0, 64, 73
1, 21086, Note_off_c, 0, 76, 63
1, 21088, Control_c, 0, 64, 84
1, 21093, Note_on_c, 0, 55, 40
1, 21097, Note_off_c, 0, 73, 62
1, 21103, Control_c, 0, 64, 89
1, 21110, Note_on_c, 0, 77, 63
1, 21118, Control_c, 0, 64, 91
1, 21132, Control_c, 0, 64, 92
1, 21133, Note_on_c, 0, 74, 57
1, 21147, Control_c, 0, 64, 93
1, 21163, Note_off_c, 0, 74, 61
1, 21172, Note_off_c, 0, 77, 53
1, 21187, Note_on_c, 0, 75, 60
1, 21187, Note_on_c, 0, 78, 67
1, 21191, Control_c, 0, 64, 92
1, 21206, Control_c, 0, 64, 87
1, 21221, Control_c, 0, 64, 77
1, 21236, Control_c, 0, 64, 63
1, 21241, Note_off_c, 0, 78, 59
1, 21248, Note_off_c, 0, 75, 55
1, 21251, Control_c, 0, 64, 10
1, 21265, Note_on_c, 0, 61, 43
1, 21265, Control_c, 0, 64, 0
1, 21268, Note_on_c, 0, 79, 56
1, 21281, Note_on_c, 0, 76, 54
1, 21310, Control_c, 0, 64, 24
1, 21318, Note_off_c, 0, 76, 60
1, 21325, Control_c, 0, 64, 58
1, 21333, Note_off_c, 0, 79, 59
1, 21339, Control_c, 0, 64, 69
1, 21348, Note_on_c, 0, 78, 67
1, 21354, Control_c, 0, 64, 81
1, 21361, Note_on_c, 0, 75, 47
1, 21369, Control_c, 0, 64, 87
1, 21384, Control_c, 0, 64, 89
1, 21399, Control_c, 0, 64, 90
1, 21411, Note_off_c, 0, 75, 61
1, 21414, Note_on_c, 0, 63, 47
1, 21414, Control_c, 0, 64, 92
1, 21420, Note_off_c, 0, 78, 59
1, 21429, Control_c, 0, 64, 93
1, 21440, Note_on_c, 0, 77, 59
1, 21444, Note_off_c, 0, 61, 39
1, 21444, Control_c, 0, 64, 94
1, 21449, Note_off_c, 0, 63, 63
1, 21453, Note_on_c, 0, 74, 50
1, 21459, Control_c, 0, 64, 94
1, 21468, Note_off_c, 0, 55, 57
1, 21474, Control_c, 0, 64, 95
1, 21488, Control_c, 0, 64, 95
1, 21506, Note_off_c, 0, 74, 61
1, 21512, Note_off_c, 0, 51, 40
1, 21524, Note_off_c, 0, 77, 56
1, 21536, Note_on_c, 0, 76, 55
1, 21547, Note_on_c, 0, 73, 45
1, 21622, Control_c, 0, 64, 94
1, 21644, Control_c, 0, 64, 90
1, 21659, Control_c, 0, 64, 84
1, 21674, Control_c, 0, 64, 77
1, 21676, Note_on_c, 0, 44, 31
1, 21678, Note_on_c, 0, 75, 51
1, 21685, Note_off_c, 0, 76, 35
1, 21688, Note_off_c, 0, 73, 45
1, 21688, Control_c, 0, 64, 68
1, 21689, Note_on_c, 0, 71, 49
1, 21703, Control_c, 0, 64, 55
1, 21718, Control_c, 0, 64, 19
1, 21730, Note_off_c, 0, 75, 57
1, 21733, Note_off_c, 0, 71, 59
1, 21733, Control_c, 0, 64, 0
1, 21792, Note_on_c, 0, 73, 43
1, 21798, Note_on_c, 0, 76, 42
1, 21822, Control_c, 0, 64, 44
1, 21834, Note_off_c, 0, 76, 55
1, 21837, Control_c, 0, 64, 60
1, 21843, Note_off_c, 0, 73, 52
1, 21852, Control_c, 0, 64, 64
1, 21865, Note_on_c, 0, 75, 44
1, 21867, Control_c, 0, 64, 67
1, 21877, Note_on_c, 0, 71, 49
1, 21881, Control_c, 0, 64, 70
1, 21884, Note_on_c, 0, 51, 21
1, 21885, Note_off_c, 0, 44, 43
1, 21896, Control_c, 0, 64, 75
1, 21911, Control_c, 0, 64, 79
1, 21912, Note_off_c, 0, 71, 64
1, 21923, Note_off_c, 0, 75, 49
1, 21926, Control_c, 0, 64, 84
1, 21941, Note_on_c, 0, 76, 49
1, 21941, Control_c, 0, 64, 86
1, 21955, Control_c, 0, 64, 87
1, 21956, Note_on_c, 0, 73, 47
1, 21970, Control_c, 0, 64, 90
1, 21985, Control_c, 0, 64, 91
1, 22000, Note_off_c, 0, 76, 58
1, 22000, Control_c, 0, 64, 91
1, 22002, Note_off_c, 0, 73, 47
1, 22023, Note_on_c, 0, 71, 50
1, 22038, Note_on_c, 0, 59, 45
1, 22042, Note_on_c, 0, 75, 38
1, 22065, Note_off_c, 0, 59, 56
1, 22076, Note_off_c, 0, 71, 60
1, 22088, Note_off_c, 0, 75, 47
1, 22092, Note_off_c, 0, 51, 44
1, 22105, Note_on_c, 0, 76, 62
1, 22123, Note_on_c, 0, 73, 31
1, 22132, Control_c, 0, 64, 90
1, 22147, Control_c, 0, 64, 87
1, 22156, Note_off_c, 0, 73, 53
1, 22162, Note_off_c, 0, 76, 55
1, 22162, Control_c, 0, 64, 79
1, 22177, Control_c, 0, 64, 66
1, 22178, Note_on_c, 0, 43, 53
1, 22180, Note_on_c, 0, 71, 53
1, 22183, Note_on_c, 0, 75, 55
1, 22192, Control_c, 0, 64, 25
1, 22208, Control_c, 0, 64, 0
1, 22222, Note_off_c, 0, 71, 61
1, 22231, Note_off_c, 0, 75, 57
1, 22256, Note_on_c, 0, 73, 39
1, 22257, Note_on_c, 0, 76, 51
1, 22277, Note_off_c, 0, 43, 55
1, 22299, Note_off_c, 0, 73, 48
1, 22310, Note_off_c, 0, 76, 60
1, 22314, Note_on_c, 0, 44, 45
1, 22329, Note_on_c, 0, 71, 61
1, 22329, Note_on_c, 0, 75, 49
1, 22356, Control_c, 0, 64, 43
1, 22365, Note_off_c, 0, 71, 59
1, 22371, Control_c, 0, 64, 54
1, 22391, Note_off_c, 0, 75, 59
1, 22393, Control_c, 0, 64, 57
1, 22408, Control_c, 0, 64, 61
1, 22410, Note_on_c, 0, 76, 58
1, 22418, Note_on_c, 0, 73, 38
1, 22423, Control_c, 0, 64, 64
1, 22437, Control_c, 0, 64, 69
1, 22452, Control_c, 0, 64, 75
1, 22457, Note_off_c, 0, 76, 60
1, 22467, Control_c, 0, 64, 80
1, 22469, Note_off_c, 0, 44, 53
1, 22471, Note_off_c, 0, 73, 47
1, 22482, Control_c, 0, 64, 83
1, 22484, Note_on_c, 0, 71, 54
1, 22492, Note_on_c, 0, 75, 53
1, 22496, Note_on_c, 0, 51, 46
1, 22497, Control_c, 0, 64, 87
1, 22512, Control_c, 0, 64, 91
1, 22523, Note_off_c, 0, 71, 62
1, 22527, Control_c, 0, 64, 96
1, 22540, Note_off_c, 0, 75, 60
1, 22542, Control_c, 0, 64, 101
1, 22557, Control_c, 0, 64, 104
1, 22562, Note_on_c, 0, 76, 61
1, 22572, Control_c, 0, 64, 104
1, 22573, Note_on_c, 0, 73, 51
1, 22586, Control_c, 0, 64, 105
1, 22603, Note_off_c, 0, 73, 54
1, 22605, Note_off_c, 0, 76, 59
1, 22621, Note_on_c, 0, 71, 59
1, 22629, Note_on_c, 0, 59, 52
1, 22634, Note_on_c, 0, 75, 52
1, 22651, Note_off_c, 0, 59, 59
1, 22679, Note_off_c, 0, 51, 49
1, 22679, Note_off_c, 0, 71, 60
1, 22679, Note_off_c, 0, 75, 60
1, 22690, Control_c, 0, 64, 102
1, 22699, Note_on_c, 0, 73, 53
1, 22699, Note_on_c, 0, 76, 68
1, 22704, Control_c, 0, 64, 95
1, 22719, Control_c, 0, 64, 85
1, 22734, Control_c, 0, 64, 71
1, 22741, Note_off_c, 0, 73, 59
1, 22749, Note_off_c, 0, 76, 61
1, 22749, Control_c, 0, 64, 53
1, 22753, Note_on_c, 0, 39, 59
1, 22764, Control_c, 0, 64, 0
1, 22767, Note_on_c, 0, 75, 60
1, 22774, Note_on_c, 0, 71, 58
1, 22814, Note_off_c, 0, 71, 60
1, 22817, Note_off_c, 0, 75, 54
1, 22830, Note_on_c, 0, 76, 71
1, 22838, Control_c, 0, 64, 50
1, 22853, Control_c, 0, 64, 65
1, 22857, Note_on_c, 0, 73, 47
1, 22863, Note_off_c, 0, 39, 36
1, 22868, Control_c, 0, 64, 74
1, 22882, Note_off_c, 0, 73, 57
1, 22883, Control_c, 0, 64, 81
1, 22885, Note_off_c, 0, 76, 60
1, 22891, Note_on_c, 0, 75, 55
1, 22892, Note_on_c, 0, 44, 56
1, 22898, Control_c, 0, 64, 83
1, 22903, Note_on_c, 0, 71, 67
1, 22912, Control_c, 0, 64, 85
1, 22927, Control_c, 0, 64, 87
1, 22934, Note_off_c, 0, 75, 59
1, 22938, Note_off_c, 0, 71, 57
1, 22942, Control_c, 0, 64, 89
1, 22952, Note_on_c, 0, 73, 67
1, 22956, Control_c, 0, 64, 91
1, 22958, Note_on_c, 0, 76, 60
1, 22971, Control_c, 0, 64, 93
1, 22986, Control_c, 0, 64, 93
1, 23002, Control_c, 0, 64, 94
1, 23010, Note_off_c, 0, 73, 56
1, 23017, Note_on_c, 0, 75, 64
1, 23017, Control_c, 0, 64, 94
1, 23029, Note_off_c, 0, 76, 58
1, 23032, Control_c, 0, 64, 95
1, 23035, Note_on_c, 0, 71, 71
1, 23045, Note_on_c, 0, 51, 57
1, 23065, Note_off_c, 0, 44, 43
1, 23074, Note_off_c, 0, 75, 60
1, 23077, Note_off_c, 0, 71, 59
1, 23080, Note_on_c, 0, 74, 69
1, 23091, Note_on_c, 0, 70, 69
1, 23140, Note_off_c, 0, 70, 58
1, 23154, Note_off_c, 0, 74, 59
1, 23160, Note_on_c, 0, 75, 65
1, 23167, Note_on_c, 0, 71, 76
1, 23172, Note_on_c, 0, 59, 63
1, 23202, Control_c, 0, 64, 92
1, 23204, Note_off_c, 0, 59, 65
1, 23208, Note_off_c, 0, 51, 59
1, 23217, Control_c, 0, 64, 86
1, 23219, Note_off_c, 0, 71, 44
1, 23227, Note_off_c, 0, 75, 61
1, 23232, Control_c, 0, 64, 78
1, 23234, Note_on_c, 0, 73, 70
1, 23235, Note_on_c, 0, 76, 66
1, 23247, Control_c, 0, 64, 71
1, 23260, Control_c, 0, 64, 65
1, 23275, Control_c, 0, 64, 60
1, 23290, Control_c, 0, 64, 51
1, 23292, Note_off_c, 0, 73, 61
1, 23299, Note_on_c, 0, 75, 64
1, 23304, Note_off_c, 0, 76, 61
1, 23305, Note_on_c, 0, 71, 71
1, 23305, Control_c, 0, 64, 39
1, 23308, Note_on_c, 0, 49, 54
1, 23320, Control_c, 0, 64, 0
1, 23351, Note_off_c, 0, 75, 57
1, 23354, Note_on_c, 0, 74, 67
1, 23357, Note_off_c, 0, 71, 61
1, 23368, Note_on_c, 0, 70, 71
1, 23415, Note_off_c, 0, 70, 63
1, 23423, Note_off_c, 0, 74, 62
1, 23427, Note_off_c, 0, 49, 60
1, 23431, Note_on_c, 0, 75, 58
1, 23435, Note_on_c, 0, 71, 75
1, 23449, Note_on_c, 0, 47, 46
1, 23488, Note_off_c, 0, 71, 62
1, 23493, Note_off_c, 0, 75, 53
1, 23509, Note_on_c, 0, 73, 66
1, 23511, Note_on_c, 0, 76, 59
1, 23527, Control_c, 0, 64, 46
1, 23542, Control_c, 0, 64, 63
1, 23557, Control_c, 0, 64, 68
1, 23560, Note_off_c, 0, 73, 62
1, 23566, Note_on_c, 0, 75, 60
1, 23571, Control_c, 0, 64, 74
1, 23572, Note_off_c, 0, 76, 61
1, 23576, Note_on_c, 0, 71, 65
1, 23577, Note_on_c, 0, 51, 48
1, 23586, Control_c, 0, 64, 80
1, 23601, Control_c, 0, 64, 84
1, 23616, Control_c, 0, 64, 86
1, 23624, Note_off_c, 0, 71, 62
1, 23627, Note_on_c, 0, 74, 61
1, 23631, Control_c, 0, 64, 88
1, 23638, Note_on_c, 0, 70, 70
1, 23646, Control_c, 0, 64, 90
1, 23660, Control_c, 0, 64, 92
1, 23669, Note_off_c, 0, 75, 0
1, 23675, Control_c, 0, 64, 93
1, 23682, Note_on_c, 0, 75, 51
1, 23695, Note_off_c, 0, 70, 60
1, 23697, Note_on_c, 0, 59, 63
1, 23700, Note_off_c, 0, 74, 62
1, 23710, Note_off_c, 0, 51, 61
1, 23716, Note_off_c, 0, 59, 62
1, 23718, Note_on_c, 0, 71, 70
1, 23750, Note_off_c, 0, 47, 55
1, 23762, Note_on_c, 0, 76, 72
1, 23762, Note_off_c, 0, 71, 55
1, 23778, Control_c, 0, 64, 91
1, 23785, Note_off_c, 0, 75, 0
1, 23791, Note_on_c, 0, 73, 71
1, 23793, Note_off_c, 0, 76, 60
1, 23793, Control_c, 0, 64, 88
1, 23809, Note_on_c, 0, 75, 24
1, 23809, Control_c, 0, 64, 80
1, 23824, Control_c, 0, 64, 66
1, 23834, Note_off_c, 0, 73, 62
1, 23836, Note_on_c, 0, 39, 55
1, 23839, Control_c, 0, 64, 33
1, 23854, Note_on_c, 0, 71, 61
1, 23854, Control_c, 0, 64, 0
1, 23876, Note_off_c, 0, 75, 57
1, 23909, Note_on_c, 0, 74, 70
1, 23915, Note_off_c, 0, 71, 62
1, 23930, Note_on_c, 0, 70, 64
1, 23965, Control_c, 0, 64, 28
1, 23972, Note_off_c, 0, 74, 63
1, 23977, Note_off_c, 0, 39, 59
1, 23980, Control_c, 0, 64, 59
1, 23982, Note_on_c, 0, 44, 56
1, 23995, Control_c, 0, 64, 66
1, 24002, Note_on_c, 0, 75, 68
1, 24003, Note_off_c, 0, 70, 58
1, 24009, Control_c, 0, 64, 73
1, 24021, Note_off_c, 0, 44, 62
1, 24024, Control_c, 0, 64, 81
1, 24030, Note_on_c, 0, 71, 61
1, 24039, Control_c, 0, 64, 88
1, 24054, Control_c, 0, 64, 95
1, 24069, Control_c, 0, 64, 101
1, 24083, Control_c, 0, 64, 107
1, 24098, Control_c, 0, 64, 114
1, 24102, Note_off_c, 0, 71, 62
1, 24106, Note_off_c, 0, 75, 59
1, 24113, Control_c, 0, 64, 127
1, 24124, Note_on_c, 0, 76, 61
1, 24131, Note_on_c, 0, 73, 58
1, 24214, Note_off_c, 0, 76, 61
1, 24231, Note_off_c, 0, 73, 61
1, 24232, Note_on_c, 0, 77, 62
1, 24246, Note_on_c, 0, 68, 53
1, 24249, Note_on_c, 0, 74, 57
1, 24251, Note_on_c, 0, 63, 45
1, 24255, Note_on_c, 0, 59, 46
1, 24277, Note_off_c, 0, 77, 60
1, 24282, Note_off_c, 0, 68, 49
1, 24283, Note_off_c, 0, 74, 61
1, 24292, Note_off_c, 0, 59, 62
1, 24308, Note_off_c, 0, 63, 61
1, 24318, Note_on_c, 0, 78, 61
1, 24320, Note_on_c, 0, 75, 53
1, 24382, Note_off_c, 0, 78, 61
1, 24389, Note_off_c, 0, 75, 61
1, 24400, Note_on_c, 0, 79, 64
1, 24407, Note_on_c, 0, 76, 51
1, 24411, Note_on_c, 0, 68, 62
1, 24420, Note_on_c, 0, 59, 46
1, 24425, Note_on_c, 0, 63, 53
1, 24433, Note_off_c, 0, 76, 59
1, 24445, Note_off_c, 0, 68, 64
1, 24462, Note_off_c, 0, 59, 60
1, 24465, Note_off_c, 0, 79, 57
1, 24466, Note_off_c, 0, 63, 61
1, 24472, Note_on_c, 0, 80, 71
1, 24493, Note_on_c, 0, 77, 60
1, 24523, Note_off_c, 0, 77, 61
1, 24532, Note_off_c, 0, 80, 60
1, 24545, Note_on_c, 0, 78, 61
1, 24546, Note_on_c, 0, 81, 66
1, 24562, Note_on_c, 0, 59, 58
1, 24566, Note_on_c, 0, 66, 63
1, 24572, Note_on_c, 0, 63, 49
1, 24573, Note_off_c, 0, 78, 64
1, 24600, Note_off_c, 0, 66, 62
1, 24610, Note_off_c, 0, 81, 63
1, 24612, Note_on_c, 0, 82, 75
1, 24612, Note_off_c, 0, 59, 59
1, 24614, Note_off_c, 0, 63, 62
1, 24618, Control_c, 0, 64, 120
1, 24625, Note_on_c, 0, 79, 62
1, 24639, Control_c, 0, 64, 97
1, 24654, Control_c, 0, 64, 77
1, 24661, Note_off_c, 0, 79, 54
1, 24669, Control_c, 0, 64, 62
1, 24684, Note_on_c, 0, 80, 67
1, 24684, Control_c, 0, 64, 64
1, 24690, Note_on_c, 0, 83, 70
1, 24699, Note_on_c, 0, 66, 61
1, 24699, Control_c, 0, 64, 83
1, 24701, Note_off_c, 0, 82, 46
1, 24703, Note_on_c, 0, 63, 64
1, 24714, Control_c, 0, 64, 127
1, 24717, Note_on_c, 0, 59, 54
1, 24731, Note_off_c, 0, 66, 65
1, 24740, Note_off_c, 0, 80, 62
1, 24743, Note_off_c, 0, 83, 63
1, 24743, Control_c, 0, 67, 120
1, 24746, Note_off_c, 0, 59, 64
1, 24748, Note_on_c, 0, 84, 69
1, 24756, Note_on_c, 0, 81, 69
1, 24758, Control_c, 0, 67, 113
1, 24770, Note_off_c, 0, 63, 61
1, 24773, Control_c, 0, 67, 106
1, 24788, Control_c, 0, 67, 100
1, 24793, Note_off_c, 0, 81, 51
1, 24797, Note_off_c, 0, 84, 52
1, 24803, Control_c, 0, 67, 96
1, 24809, Note_on_c, 0, 82, 76
1, 24816, Note_on_c, 0, 85, 73
1, 24818, Control_c, 0, 67, 91
1, 24827, Note_on_c, 0, 64, 66
1, 24829, Note_on_c, 0, 56, 66
1, 24829, Note_on_c, 0, 59, 58
1, 24832, Control_c, 0, 67, 85
1, 24847, Control_c, 0, 67, 79
1, 24855, Note_off_c, 0, 64, 67
1, 24858, Note_off_c, 0, 59, 63
1, 24860, Note_off_c, 0, 56, 64
1, 24862, Control_c, 0, 67, 74
1, 24869, Note_off_c, 0, 85, 60
1, 24877, Control_c, 0, 67, 67
1, 24881, Note_off_c, 0, 82, 65
1, 24884, Note_on_c, 0, 86, 78
1, 24884, Note_on_c, 0, 83, 73
1, 24892, Control_c, 0, 67, 62
1, 24906, Control_c, 0, 67, 57
1, 24910, Note_off_c, 0, 83, 68
1, 24921, Control_c, 0, 67, 50
1, 24924, Note_off_c, 0, 86, 60
1, 24936, Control_c, 0, 67, 40
1, 24944, Note_on_c, 0, 64, 69
1, 24950, Note_on_c, 0, 56, 58
1, 24950, Note_on_c, 0, 87, 87
1, 24950, Control_c, 0, 67, 34
1, 24958, Note_on_c, 0, 59, 64
1, 24965, Control_c, 0, 67, 27
1, 24969, Note_on_c, 0, 84, 71
1, 24980, Control_c, 0, 67, 18
1, 24988, Note_off_c, 0, 56, 62
1, 24991, Note_off_c, 0, 59, 62
1, 24994, Note_off_c, 0, 64, 58
1, 24995, Control_c, 0, 67, 0
1, 25012, Note_off_c, 0, 84, 61
1, 25017, Note_on_c, 0, 88, 78
1, 25021, Note_on_c, 0, 85, 76
1, 25048, Note_off_c, 0, 87, 61
1, 25064, Note_off_c, 0, 88, 68
1, 25069, Note_on_c, 0, 63, 71
1, 25071, Note_on_c, 0, 59, 63
1, 25072, Note_on_c, 0, 56, 65
1, 25076, Note_off_c, 0, 85, 62
1, 25080, Note_on_c, 0, 89, 78
1, 25094, Note_on_c, 0, 86, 78
1, 25100, Note_off_c, 0, 63, 66
1, 25106, Note_off_c, 0, 59, 65
1, 25119, Note_off_c, 0, 56, 62
1, 25128, Note_off_c, 0, 89, 49
1, 25137, Note_on_c, 0, 90, 83
1, 25140, Note_off_c, 0, 86, 63
1, 25146, Note_on_c, 0, 87, 80
1, 25158, Control_c, 0, 64, 87
1, 25173, Control_c, 0, 64, 65
1, 25179, Note_off_c, 0, 87, 0
1, 25188, Control_c, 0, 64, 40
1, 25200, Note_off_c, 0, 90, 63
1, 25200, Note_on_c, 0, 63, 81
1, 25202, Control_c, 0, 64, 65
1, 25207, Note_on_c, 0, 91, 89
1, 25213, Poly_aftertouch_c, 0, 87, 0
1, 25214, Note_on_c, 0, 59, 57
1, 25214, Note_on_c, 0, 88, 80
1, 25217, Control_c, 0, 64, 84
1, 25222, Note_on_c, 0, 56, 56
1, 25231, Note_off_c, 0, 63, 65
1, 25232, Control_c, 0, 64, 127
1, 25234, Note_off_c, 0, 88, 74
1, 25241, Note_off_c, 0, 59, 66
1, 25248, Note_off_c, 0, 56, 62
1, 25253, Note_off_c, 0, 91, 63
1, 25277, Note_on_c, 0, 92, 89
1, 25296, Note_on_c, 0, 89, 73
1, 25325, Note_on_c, 0, 56, 59
1, 25327, Note_on_c, 0, 61, 75
1, 25335, Note_on_c, 0, 93, 81
1, 25335, Note_off_c, 0, 89, 52
1, 25338, Note_off_c, 0, 92, 65
1, 25342, Note_on_c, 0, 90, 75
1, 25343, Note_on_c, 0, 51, 57
1, 25352, Note_off_c, 0, 61, 66
1, 25365, Note_off_c, 0, 90, 68
1, 25381, Note_off_c, 0, 51, 62
1, 25384, Note_off_c, 0, 56, 61
1, 25410, Note_on_c, 0, 94, 82
1, 25418, Note_off_c, 0, 93, 63
1, 25428, Note_on_c, 0, 91, 71
1, 25447, Control_c, 0, 64, 86
1, 25462, Note_on_c, 0, 95, 78
1, 25462, Control_c, 0, 64, 65
1, 25468, Note_on_c, 0, 61, 42
1, 25468, Note_on_c, 0, 92, 77
1, 25469, Note_on_c, 0, 51, 54
1, 25471, Note_off_c, 0, 91, 46
1, 25477, Control_c, 0, 64, 21
1, 25492, Control_c, 0, 64, 24
1, 25498, Note_on_c, 0, 56, 40
1, 25498, Note_off_c, 0, 94, 63
1, 25508, Control_c, 0, 64, 53
1, 25510, Note_off_c, 0, 61, 56
1, 25511, Note_off_c, 0, 51, 59
1, 25522, Control_c, 0, 64, 65
1, 25525, Note_off_c, 0, 56, 59
1, 25537, Control_c, 0, 64, 82
1, 25552, Control_c, 0, 64, 127
1, 25578, Note_off_c, 0, 95, 63
1, 25607, Note_on_c, 0, 56, 54
1, 25611, Note_off_c, 0, 92, 59
1, 25617, Note_on_c, 0, 51, 57
1, 25619, Note_on_c, 0, 59, 62
1, 25647, Note_off_c, 0, 59, 65
1, 25656, Note_off_c, 0, 51, 58
1, 25665, Note_off_c, 0, 56, 63
1, 25715, Control_c, 0, 64, 88
1, 25730, Control_c, 0, 64, 57
1, 25745, Control_c, 0, 64, 0
1, 25751, Note_on_c, 0, 59, 56
1, 25765, Note_on_c, 0, 51, 52
1, 25774, Control_c, 0, 64, 33
1, 25775, Note_on_c, 0, 56, 55
1, 25789, Control_c, 0, 64, 66
1, 25796, Note_off_c, 0, 59, 63
1, 25800, Note_off_c, 0, 56, 60
1, 25804, Control_c, 0, 64, 93
1, 25814, Note_off_c, 0, 51, 61
1, 25819, Control_c, 0, 64, 127
1, 25888, Note_on_c, 0, 58, 69
1, 25895, Note_on_c, 0, 49, 63
1, 25908, Control_c, 0, 64, 89
1, 25922, Control_c, 0, 64, 60
1, 25924, Note_on_c, 0, 51, 56
1, 25929, Note_off_c, 0, 58, 58
1, 25937, Control_c, 0, 64, 0
1, 25941, Note_off_c, 0, 49, 59
1, 25947, Note_off_c, 0, 51, 61
1, 25967, Control_c, 0, 64, 61
1, 25981, Control_c, 0, 64, 90
1, 25996, Control_c, 0, 64, 127
1, 26026, Note_on_c, 0, 58, 75
1, 26027, Note_on_c, 0, 51, 67
1, 26030, Note_on_c, 0, 49, 64
1, 26063, Note_off_c, 0, 58, 61
1, 26072, Note_off_c, 0, 49, 62
1, 26090, Note_off_c, 0, 51, 61
1, 26162, Note_on_c, 0, 56, 73
1, 26168, Note_on_c, 0, 47, 65
1, 26175, Note_on_c, 0, 51, 59
1, 26261, Note_off_c, 0, 56, 56
1, 26344, Note_off_c, 0, 47, 52
1, 26382, Note_on_c, 0, 44, 63
1, 26383, Note_off_c, 0, 51, 53
1, 26404, Control_c, 0, 64, 110
1, 26418, Note_on_c, 0, 74, 82
1, 26419, Note_on_c, 0, 77, 84
1, 26419, Control_c, 0, 64, 91
1, 26434, Control_c, 0, 64, 76
1, 26449, Control_c, 0, 64, 61
1, 26464, Control_c, 0, 64, 36
1, 26478, Control_c, 0, 64, 16
1, 26493, Control_c, 0, 64, 0
1, 26512, Note_on_c, 0, 76, 83
1, 26514, Note_on_c, 0, 79, 77
1, 26517, Note_off_c, 0, 74, 63
1, 26518, Note_off_c, 0, 77, 64
1, 26583, Control_c, 0, 64, 33
1, 26595, Note_on_c, 0, 77, 84
1, 26596, Note_off_c, 0, 76, 63
1, 26597, Control_c, 0, 64, 62
1, 26601, Note_off_c, 0, 79, 62
1, 26608, Note_on_c, 0, 50, 60
1, 26609, Note_on_c, 0, 74, 71
1, 26612, Control_c, 0, 64, 73
1, 26627, Control_c, 0, 64, 94
1, 26642, Control_c, 0, 64, 127
1, 26649, Note_off_c, 0, 44, 37
1, 26670, Note_on_c, 0, 76, 83
1, 26670, Note_off_c, 0, 74, 65
1, 26671, Note_off_c, 0, 77, 64
1, 26672, Note_on_c, 0, 79, 81
1, 26702, Note_off_c, 0, 50, 55
1, 26740, Note_on_c, 0, 77, 86
1, 26744, Note_off_c, 0, 76, 60
1, 26745, Note_off_c, 0, 79, 63
1, 26751, Note_on_c, 0, 74, 80
1, 26760, Note_on_c, 0, 59, 82
1, 26788, Note_off_c, 0, 59, 63
1, 26808, Note_on_c, 0, 79, 86
1, 26809, Note_on_c, 0, 76, 80
1, 26810, Note_off_c, 0, 74, 64
1, 26810, Note_off_c, 0, 77, 64
1, 26881, Note_off_c, 0, 76, 44
1, 26884, Note_on_c, 0, 77, 88
1, 26886, Control_c, 0, 64, 97
1, 26893, Note_on_c, 0, 43, 90
1, 26895, Note_off_c, 0, 79, 61
1, 26901, Control_c, 0, 64, 74
1, 26902, Note_on_c, 0, 74, 77
1, 26916, Control_c, 0, 64, 28
1, 26930, Control_c, 0, 64, 0
1, 26958, Note_on_c, 0, 76, 80
1, 26958, Note_off_c, 0, 77, 63
1, 26958, Note_off_c, 0, 74, 63
1, 26960, Note_on_c, 0, 79, 84
1, 26988, Note_off_c, 0, 76, 57
1, 27017, Note_on_c, 0, 77, 80
1, 27018, Note_on_c, 0, 44, 82
1, 27034, Note_off_c, 0, 79, 62
1, 27039, Note_on_c, 0, 74, 72
1, 27046, Note_off_c, 0, 43, 63
1, 27087, Note_off_c, 0, 77, 50
1, 27089, Note_on_c, 0, 76, 78
1, 27092, Note_off_c, 0, 74, 63
1, 27099, Note_on_c, 0, 79, 73
1, 27146, Note_off_c, 0, 76, 56
1, 27151, Note_on_c, 0, 77, 78
1, 27154, Control_c, 0, 64, 55
1, 27160, Note_off_c, 0, 79, 62
1, 27168, Control_c, 0, 64, 74
1, 27175, Note_on_c, 0, 50, 63
1, 27176, Note_on_c, 0, 74, 62
1, 27183, Control_c, 0, 64, 101
1, 27198, Control_c, 0, 64, 127
1, 27200, Note_off_c, 0, 44, 58
1, 27220, Note_off_c, 0, 77, 51
1, 27227, Note_off_c, 0, 74, 62
1, 27232, Note_on_c, 0, 76, 76
1, 27243, Note_on_c, 0, 79, 75
1, 27275, Note_off_c, 0, 76, 52
1, 27288, Note_on_c, 0, 77, 79
1, 27289, Note_off_c, 0, 79, 58
1, 27309, Note_on_c, 0, 59, 70
1, 27319, Note_on_c, 0, 74, 65
1, 27327, Note_off_c, 0, 59, 66
1, 27343, Note_off_c, 0, 50, 30
1, 27358, Note_off_c, 0, 77, 61
1, 27363, Note_on_c, 0, 57, 11
1, 27367, Note_on_c, 0, 79, 77
1, 27369, Note_off_c, 0, 74, 63
1, 27373, Note_on_c, 0, 76, 77
1, 27411, Note_off_c, 0, 57, 42
1, 27429, Note_on_c, 0, 77, 86
1, 27431, Note_off_c, 0, 76, 61
1, 27432, Note_off_c, 0, 79, 62
1, 27436, Note_on_c, 0, 38, 83
1, 27449, Note_on_c, 0, 74, 71
1, 27450, Control_c, 0, 64, 92
1, 27465, Control_c, 0, 64, 68
1, 27480, Control_c, 0, 64, 0
1, 27509, Note_off_c, 0, 77, 62
1, 27510, Note_on_c, 0, 79, 81
1, 27515, Note_off_c, 0, 74, 63
1, 27532, Note_on_c, 0, 76, 57
1, 27558, Note_on_c, 0, 44, 76
1, 27565, Note_on_c, 0, 77, 79
1, 27571, Note_off_c, 0, 79, 62
1, 27579, Note_off_c, 0, 76, 49
1, 27587, Note_on_c, 0, 74, 73
1, 27587, Note_off_c, 0, 38, 55
1, 27598, Control_c, 0, 64, 62
1, 27613, Control_c, 0, 64, 80
1, 27635, Control_c, 0, 64, 127
1, 27650, Note_off_c, 0, 77, 56
1, 27655, Note_off_c, 0, 74, 65
1, 27656, Note_on_c, 0, 79, 82
1, 27666, Note_on_c, 0, 76, 76
1, 27705, Note_on_c, 0, 50, 72
1, 27708, Note_off_c, 0, 76, 46
1, 27727, Note_on_c, 0, 74, 81
1, 27727, Note_on_c, 0, 77, 81
1, 27731, Note_off_c, 0, 44, 60
1, 27734, Note_off_c, 0, 79, 59
1, 27785, Note_off_c, 0, 74, 66
1, 27786, Note_on_c, 0, 76, 85
1, 27794, Note_on_c, 0, 73, 82
1, 27796, Note_off_c, 0, 77, 63
1, 27842, Note_on_c, 0, 59, 69
1, 27855, Note_on_c, 0, 77, 76
1, 27858, Note_off_c, 0, 73, 62
1, 27861, Note_off_c, 0, 76, 63
1, 27863, Note_on_c, 0, 74, 83
1, 27872, Note_off_c, 0, 59, 65
1, 27883, Note_off_c, 0, 50, 60
1, 27923, Note_off_c, 0, 74, 36
1, 27926, Note_on_c, 0, 79, 81
1, 27928, Note_on_c, 0, 76, 84
1, 27930, Note_off_c, 0, 77, 66
1, 27975, Note_on_c, 0, 49, 75
1, 27975, Note_off_c, 0, 76, 60
1, 27993, Note_on_c, 0, 74, 75
1, 27999, Note_on_c, 0, 77, 79
1, 28012, Note_off_c, 0, 79, 57
1, 28050, Note_on_c, 0, 73, 83
1, 28051, Note_off_c, 0, 74, 66
1, 28055, Note_on_c, 0, 76, 80
1, 28067, Note_off_c, 0, 77, 60
1, 28079, Control_c, 0, 64, 99
1, 28094, Control_c, 0, 64, 78
1, 28109, Control_c, 0, 64, 48
1, 28113, Note_on_c, 0, 47, 85
1, 28123, Control_c, 0, 64, 0
1, 28127, Note_off_c, 0, 49, 63
1, 28127, Note_off_c, 0, 73, 62
1, 28128, Note_on_c, 0, 77, 69
1, 28129, Note_on_c, 0, 74, 83
1, 28130, Note_off_c, 0, 76, 62
1, 28186, Note_off_c, 0, 74, 66
1, 28188, Note_on_c, 0, 79, 80
1, 28192, Note_on_c, 0, 76, 77
1, 28195, Note_off_c, 0, 77, 65
1, 28241, Control_c, 0, 64, 33
1, 28243, Note_off_c, 0, 76, 60
1, 28256, Control_c, 0, 64, 61
1, 28267, Note_on_c, 0, 74, 77
1, 28269, Note_on_c, 0, 50, 75
1, 28270, Note_on_c, 0, 77, 77
1, 28271, Control_c, 0, 64, 67
1, 28279, Note_off_c, 0, 79, 59
1, 28286, Control_c, 0, 64, 77
1, 28301, Control_c, 0, 64, 87
1, 28315, Control_c, 0, 64, 99
1, 28328, Note_off_c, 0, 74, 64
1, 28330, Control_c, 0, 64, 113
1, 28335, Note_on_c, 0, 76, 76
1, 28336, Note_off_c, 0, 77, 63
1, 28337, Note_on_c, 0, 73, 77
1, 28345, Control_c, 0, 64, 127
1, 28407, Note_off_c, 0, 73, 60
1, 28409, Note_on_c, 0, 59, 84
1, 28414, Note_off_c, 0, 76, 61
1, 28417, Note_on_c, 0, 74, 78
1, 28418, Note_on_c, 0, 77, 72
1, 28435, Note_off_c, 0, 59, 65
1, 28441, Note_off_c, 0, 50, 67
1, 28467, Note_off_c, 0, 47, 66
1, 28470, Note_off_c, 0, 74, 45
1, 28488, Note_on_c, 0, 79, 78
1, 28493, Note_off_c, 0, 77, 63
1, 28496, Note_on_c, 0, 76, 75
1, 28545, Control_c, 0, 64, 111
1, 28549, Note_off_c, 0, 76, 55
1, 28558, Note_on_c, 0, 38, 83
1, 28560, Control_c, 0, 64, 94
1, 28565, Note_on_c, 0, 77, 75
1, 28568, Note_on_c, 0, 74, 77
1, 28574, Control_c, 0, 64, 75
1, 28583, Note_off_c, 0, 79, 55
1, 28589, Control_c, 0, 64, 60
1, 28605, Control_c, 0, 64, 0
1, 28639, Note_off_c, 0, 74, 63
1, 28645, Note_on_c, 0, 76, 76
1, 28647, Note_on_c, 0, 73, 68
1, 28666, Note_off_c, 0, 77, 59
1, 28739, Note_off_c, 0, 76, 62
1, 28741, Note_on_c, 0, 44, 73
1, 28744, Note_off_c, 0, 73, 64
1, 28752, Note_on_c, 0, 74, 71
1, 28756, Note_on_c, 0, 77, 68
1, 28759, Note_off_c, 0, 38, 61
1, 28768, Control_c, 0, 64, 54
1, 28783, Control_c, 0, 64, 68
1, 28797, Control_c, 0, 64, 81
1, 28803, Note_off_c, 0, 44, 61
1, 28812, Control_c, 0, 64, 102
1, 28827, Control_c, 0, 64, 127
1, 28843, Note_off_c, 0, 74, 61
1, 28846, Note_off_c, 0, 77, 65
1, 28857, Note_on_c, 0, 78, 72
1, 28863, Note_on_c, 0, 75, 65
1, 28985, Note_off_c, 0, 78, 62
1, 28987, Note_off_c, 0, 75, 61
1, 28993, Note_on_c, 0, 76, 72
1, 29001, Note_on_c, 0, 79, 66
1, 29010, Note_on_c, 0, 71, 81
1, 29021, Note_on_c, 0, 62, 64
1, 29026, Note_on_c, 0, 65, 68
1, 29036, Note_off_c, 0, 76, 61
1, 29078, Note_off_c, 0, 71, 54
1, 29092, Note_off_c, 0, 62, 50
1, 29092, Note_off_c, 0, 79, 59
1, 29096, Note_on_c, 0, 80, 71
1, 29099, Note_off_c, 0, 65, 55
1, 29121, Note_on_c, 0, 77, 68
1, 29182, Note_off_c, 0, 77, 63
1, 29193, Note_off_c, 0, 80, 63
1, 29200, Note_on_c, 0, 78, 65
1, 29208, Note_on_c, 0, 81, 64
1, 29209, Note_on_c, 0, 71, 85
1, 29218, Note_on_c, 0, 65, 73
1, 29218, Note_on_c, 0, 62, 68
1, 29245, Note_off_c, 0, 78, 61
1, 29261, Note_off_c, 0, 71, 66
1, 29271, Note_off_c, 0, 81, 62
1, 29277, Note_on_c, 0, 79, 70
1, 29283, Note_off_c, 0, 62, 62
1, 29294, Note_on_c, 0, 82, 65
1, 29295, Note_off_c, 0, 65, 62
1, 29340, Note_off_c, 0, 79, 58
1, 29357, Note_on_c, 0, 80, 61
1, 29361, Note_on_c, 0, 70, 83
1, 29361, Note_on_c, 0, 83, 68
1, 29367, Note_on_c, 0, 65, 59
1, 29372, Note_on_c, 0, 62, 61
1, 29379, Note_off_c, 0, 82, 51
1, 29412, Note_off_c, 0, 70, 62
1, 29413, Note_off_c, 0, 80, 59
1, 29417, Note_off_c, 0, 83, 62
1, 29419, Note_off_c, 0, 62, 52
1, 29420, Note_on_c, 0, 84, 70
1, 29427, Note_on_c, 0, 81, 74
1, 29434, Note_off_c, 0, 65, 61
1, 29474, Note_off_c, 0, 81, 55
1, 29486, Note_off_c, 0, 84, 59
1, 29489, Note_on_c, 0, 82, 76
1, 29489, Control_c, 0, 64, 103
1, 29498, Note_on_c, 0, 85, 76
1, 29503, Control_c, 0, 64, 74
1, 29507, Note_on_c, 0, 70, 84
1, 29518, Control_c, 0, 64, 32
1, 29521, Note_on_c, 0, 65, 69
1, 29533, Control_c, 0, 64, 23
1, 29534, Note_on_c, 0, 62, 51
1, 29546, Note_off_c, 0, 85, 55
1, 29548, Control_c, 0, 64, 74
1, 29550, Note_off_c, 0, 70, 62
1, 29553, Note_off_c, 0, 62, 66
1, 29563, Control_c, 0, 64, 127
1, 29564, Note_on_c, 0, 83, 81
1, 29567, Note_off_c, 0, 82, 64
1, 29570, Note_on_c, 0, 86, 78
1, 29587, Note_off_c, 0, 83, 65
1, 29588, Note_off_c, 0, 65, 61
1, 29615, Note_off_c, 0, 86, 62
1, 29632, Note_on_c, 0, 62, 69
1, 29637, Note_on_c, 0, 68, 84
1, 29642, Note_on_c, 0, 87, 86
1, 29650, Note_on_c, 0, 84, 77
1, 29656, Note_on_c, 0, 59, 61
1, 29679, Note_off_c, 0, 59, 60
1, 29683, Note_off_c, 0, 68, 62
1, 29691, Note_off_c, 0, 84, 51
1, 29710, Note_on_c, 0, 85, 74
1, 29711, Note_on_c, 0, 88, 75
1, 29711, Note_off_c, 0, 62, 61
1, 29736, Note_off_c, 0, 87, 59
1, 29759, Note_on_c, 0, 68, 88
1, 29760, Note_on_c, 0, 59, 65
1, 29761, Note_on_c, 0, 62, 59
1, 29763, Note_off_c, 0, 85, 62
1, 29766, Note_on_c, 0, 89, 84
1, 29766, Note_off_c, 0, 88, 66
1, 29774, Note_on_c, 0, 86, 81
1, 29794, Note_off_c, 0, 68, 61
1, 29800, Note_off_c, 0, 62, 65
1, 29809, Note_off_c, 0, 59, 63
1, 29826, Note_off_c, 0, 86, 59
1, 29832, Note_on_c, 0, 90, 81
1, 29834, Note_off_c, 0, 89, 64
1, 29835, Note_on_c, 0, 87, 84
1, 29883, Note_off_c, 0, 90, 62
1, 29898, Note_on_c, 0, 66, 86
1, 29899, Note_off_c, 0, 87, 41
1, 29907, Note_on_c, 0, 56, 73
1, 29907, Note_on_c, 0, 91, 84
1, 29909, Note_on_c, 0, 59, 76
1, 29909, Note_on_c, 0, 88, 83
1, 29930, Note_off_c, 0, 88, 73
1, 29943, Note_off_c, 0, 66, 59
1, 29950, Note_off_c, 0, 56, 60
1, 29961, Note_off_c, 0, 59, 62
1, 29974, Note_on_c, 0, 92, 90
1, 29981, Note_off_c, 0, 91, 61
1, 29990, Note_on_c, 0, 89, 78
1, 29999, Control_c, 0, 64, 115
1, 30014, Control_c, 0, 64, 70
1, 30028, Control_c, 0, 64, 0
1, 30030, Note_on_c, 0, 66, 94
1, 30035, Note_off_c, 0, 92, 66
1, 30038, Note_on_c, 0, 93, 80
1, 30038, Note_on_c, 0, 90, 82
1, 30039, Note_on_c, 0, 56, 80
1, 30042, Note_off_c, 0, 89, 62
1, 30043, Note_on_c, 0, 59, 73
1, 30058, Control_c, 0, 64, 57
1, 30073, Control_c, 0, 64, 82
1, 30074, Note_off_c, 0, 90, 61
1, 30081, Note_off_c, 0, 66, 63
1, 30086, Note_off_c, 0, 56, 59
1, 30088, Control_c, 0, 64, 127
1, 30092, Note_off_c, 0, 59, 59
1, 30102, Note_on_c, 0, 94, 85
1, 30109, Note_off_c, 0, 93, 64
1, 30121, Note_on_c, 0, 91, 69
1, 30157, Note_off_c, 0, 91, 49
1, 30160, Note_on_c, 0, 92, 84
1, 30161, Note_on_c, 0, 65, 85
1, 30169, Note_on_c, 0, 56, 71
1, 30172, Note_on_c, 0, 95, 79
1, 30173, Note_on_c, 0, 59, 71
1, 30201, Note_off_c, 0, 65, 55
1, 30201, Note_off_c, 0, 56, 64
1, 30201, Note_off_c, 0, 94, 64
1, 30204, Note_off_c, 0, 59, 59
1, 30232, Note_off_c, 0, 92, 64
1, 30233, Note_on_c, 0, 96, 85
1, 30238, Note_on_c, 0, 93, 87
1, 30245, Note_off_c, 0, 95, 67
1, 30288, Note_on_c, 0, 65, 94
1, 30289, Note_on_c, 0, 56, 83
1, 30293, Note_on_c, 0, 59, 78
1, 30299, Note_on_c, 0, 94, 91
1, 30299, Note_on_c, 0, 97, 89
1, 30303, Note_off_c, 0, 96, 63
1, 30309, Note_off_c, 0, 93, 62
1, 30326, Note_off_c, 0, 65, 61
1, 30336, Note_off_c, 0, 56, 60
1, 30345, Note_off_c, 0, 59, 58
1, 30369, Note_off_c, 0, 97, 62
1, 30370, Note_on_c, 0, 98, 92
1, 30376, Note_on_c, 0, 95, 81
1, 30377, Note_off_c, 0, 94, 68
1, 30398, Note_off_c, 0, 95, 70
1, 30401, Note_on_c, 0, 64, 90
1, 30410, Note_on_c, 0, 56, 70
1, 30413, Note_off_c, 0, 98, 65
1, 30418, Note_on_c, 0, 53, 67
1, 30440, Note_on_c, 0, 99, 103
1, 30449, Note_off_c, 0, 53, 62
1, 30451, Note_off_c, 0, 64, 61
1, 30457, Note_off_c, 0, 56, 56
1, 30476, Note_on_c, 0, 96, 69
1, 30496, Note_on_c, 0, 97, 83
1, 30501, Note_on_c, 0, 100, 79
1, 30503, Note_off_c, 0, 96, 64
1, 30532, Control_c, 0, 64, 107
1, 30535, Note_off_c, 0, 99, 64
1, 30547, Control_c, 0, 64, 82
1, 30556, Note_on_c, 0, 64, 83
1, 30562, Note_on_c, 0, 56, 68
1, 30562, Control_c, 0, 64, 60
1, 30570, Note_on_c, 0, 53, 61
1, 30574, Note_on_c, 0, 101, 99
1, 30577, Control_c, 0, 64, 0
1, 30580, Note_on_c, 0, 98, 87
1, 30589, Note_off_c, 0, 100, 62
1, 30595, Note_off_c, 0, 97, 62
1, 30619, Note_off_c, 0, 64, 60
1, 30626, Note_off_c, 0, 53, 55
1, 30639, Note_off_c, 0, 56, 61
1, 30658, Control_c, 0, 64, 53
1, 30673, Control_c, 0, 64, 76
1, 30688, Control_c, 0, 64, 102
1, 30703, Control_c, 0, 64, 127
1, 30735, Note_on_c, 0, 62, 71
1, 30751, Note_on_c, 0, 56, 62
1, 30756, Note_on_c, 0, 53, 48
1, 30766, Note_off_c, 0, 98, 60
1, 30784, Note_off_c, 0, 101, 65
1, 30795, Note_off_c, 0, 62, 62
1, 30795, Note_off_c, 0, 56, 58
1, 30796, Note_off_c, 0, 53, 62
1, 30851, Control_c, 0, 64, 94
1, 30866, Control_c, 0, 64, 68
1, 30881, Control_c, 0, 64, 0
1, 30917, Note_on_c, 0, 56, 53
1, 30921, Note_on_c, 0, 60, 58
1, 30938, Note_on_c, 0, 53, 43
1, 30940, Control_c, 0, 64, 30
1, 30940, Control_c, 0, 67, 8
1, 30955, Control_c, 0, 64, 64
1, 30955, Control_c, 0, 67, 11
1, 30969, Control_c, 0, 64, 80
1, 30969, Control_c, 0, 67, 15
1, 30975, Note_off_c, 0, 60, 60
1, 30984, Note_off_c, 0, 53, 55
1, 30985, Control_c, 0, 64, 116
1, 30985, Control_c, 0, 67, 19
1, 31000, Note_off_c, 0, 56, 57
1, 31000, Control_c, 0, 64, 127
1, 31000, Control_c, 0, 67, 26
1, 31015, Control_c, 0, 67, 36
1, 31030, Control_c, 0, 67, 46
1, 31045, Control_c, 0, 67, 55
1, 31059, Control_c, 0, 67, 64
1, 31074, Control_c, 0, 64, 98
1, 31074, Control_c, 0, 67, 73
1, 31089, Control_c, 0, 64, 70
1, 31089, Control_c, 0, 67, 81
1, 31104, Control_c, 0, 64, 35
1, 31104, Control_c, 0, 67, 90
1, 31112, Note_on_c, 0, 59, 57
1, 31119, Control_c, 0, 64, 49
1, 31119, Control_c, 0, 67, 98
1, 31121, Note_on_c, 0, 53, 36
1, 31133, Control_c, 0, 64, 69
1, 31133, Control_c, 0, 67, 102
1, 31134, Note_on_c, 0, 55, 50
1, 31148, Control_c, 0, 64, 87
1, 31148, Control_c, 0, 67, 105
1, 31163, Control_c, 0, 64, 127
1, 31163, Control_c, 0, 67, 108
1, 31175, Note_off_c, 0, 59, 57
1, 31178, Control_c, 0, 67, 111
1, 31182, Note_off_c, 0, 55, 57
1, 31192, Control_c, 0, 67, 114
1, 31194, Note_off_c, 0, 53, 64
1, 31207, Control_c, 0, 67, 114
1, 31378, Control_c, 0, 64, 100
1, 31392, Control_c, 0, 64, 80
1, 31407, Control_c, 0, 64, 63
1, 31422, Control_c, 0, 64, 0
1, 31424, Note_on_c, 0, 43, 45
1, 31477, Note_on_c, 0, 101, 53
1, 31481, Control_c, 0, 67, 114
1, 31490, Note_on_c, 0, 98, 38
1, 31493, Note_off_c, 0, 43, 54
1, 31496, Control_c, 0, 67, 113
1, 31511, Control_c, 0, 64, 58
1, 31511, Control_c, 0, 67, 113
1, 31525, Control_c, 0, 64, 74
1, 31540, Control_c, 0, 64, 90
1, 31540, Control_c, 0, 67, 112
1, 31555, Control_c, 0, 64, 108
1, 31570, Control_c, 0, 64, 116
1, 31570, Control_c, 0, 67, 112
1, 31585, Control_c, 0, 64, 127
1, 31586, Note_off_c, 0, 101, 59
1, 31588, Note_off_c, 0, 98, 46
1, 31600, Control_c, 0, 67, 111
1, 31608, Note_on_c, 0, 91, 52
1, 31613, Note_on_c, 0, 95, 48
1, 31629, Control_c, 0, 67, 111
1, 31659, Control_c, 0, 67, 110
1, 31674, Control_c, 0, 67, 110
1, 31683, Note_off_c, 0, 91, 59
1, 31707, Note_off_c, 0, 95, 30
1, 31716, Note_on_c, 0, 100, 58
1, 31718, Control_c, 0, 67, 109
1, 31723, Note_on_c, 0, 65, 47
1, 31729, Note_on_c, 0, 69, 34
1, 31738, Note_on_c, 0, 59, 36
1, 31760, Note_on_c, 0, 96, 5
1, 31763, Note_off_c, 0, 69, 53
1, 31764, Note_off_c, 0, 65, 60
1, 31770, Note_off_c, 0, 59, 52
1, 31773, Note_off_c, 0, 100, 58
1, 31809, Note_on_c, 0, 93, 46
1, 31810, Note_off_c, 0, 96, 52
1, 31814, Note_on_c, 0, 89, 48
1, 31843, Note_off_c, 0, 89, 54
1, 31843, Note_off_c, 0, 93, 47
1, 31868, Note_on_c, 0, 69, 38
1, 31874, Note_on_c, 0, 65, 49
1, 31874, Note_on_c, 0, 59, 35
1, 31874, Note_on_c, 0, 98, 65
1, 31892, Note_on_c, 0, 95, 43
1, 31911, Note_off_c, 0, 98, 62
1, 31917, Note_off_c, 0, 95, 57
1, 31948, Note_on_c, 0, 88, 57
1, 31956, Control_c, 0, 67, 109
1, 31964, Note_on_c, 0, 91, 39
1, 31969, Note_off_c, 0, 88, 65
1, 31994, Note_off_c, 0, 91, 46
1, 32009, Note_on_c, 0, 96, 62
1, 32015, Note_on_c, 0, 93, 57
1, 32038, Note_off_c, 0, 93, 52
1, 32043, Note_off_c, 0, 96, 62
1, 32077, Note_on_c, 0, 89, 56
1, 32080, Note_on_c, 0, 86, 56
1, 32089, Control_c, 0, 67, 108
1, 32096, Note_off_c, 0, 89, 62
1, 32103, Note_off_c, 0, 86, 60
1, 32129, Note_off_c, 0, 69, 45
1, 32136, Note_off_c, 0, 65, 59
1, 32142, Note_on_c, 0, 95, 66
1, 32153, Note_on_c, 0, 91, 55
1, 32173, Note_off_c, 0, 91, 60
1, 32178, Note_off_c, 0, 95, 65
1, 32213, Note_on_c, 0, 88, 54
1, 32216, Note_on_c, 0, 84, 59
1, 32230, Control_c, 0, 67, 108
1, 32231, Note_off_c, 0, 88, 64
1, 32246, Note_off_c, 0, 84, 64
1, 32270, Note_on_c, 0, 93, 68
1, 32279, Note_on_c, 0, 89, 60
1, 32305, Control_c, 0, 67, 107
1, 32309, Note_off_c, 0, 89, 50
1, 32310, Note_off_c, 0, 93, 59
1, 32336, Note_on_c, 0, 83, 63
1, 32341, Note_on_c, 0, 86, 50
1, 32362, Note_off_c, 0, 86, 62
1, 32369, Note_off_c, 0, 83, 64
1, 32393, Note_off_c, 0, 59, 40
1, 32402, Note_on_c, 0, 67, 56
1, 32402, Note_on_c, 0, 91, 66
1, 32406, Note_on_c, 0, 60, 52
1, 32406, Note_on_c, 0, 88, 66
1, 32410, Note_on_c, 0, 64, 51
1, 32423, Control_c, 0, 67, 107
1, 32434, Note_off_c, 0, 67, 61
1, 32437, Note_off_c, 0, 91, 61
1, 32440, Note_off_c, 0, 88, 62
1, 32446, Note_off_c, 0, 60, 63
1, 32474, Note_on_c, 0, 84, 58
1, 32476, Note_on_c, 0, 81, 58
1, 32499, Note_off_c, 0, 84, 59
1, 32509, Note_off_c, 0, 81, 65
1, 32510, Note_on_c, 0, 55, 57
1, 32514, Note_on_c, 0, 69, 73
1, 32527, Control_c, 0, 67, 106
1, 32533, Note_on_c, 0, 89, 75
1, 32533, Note_off_c, 0, 55, 60
1, 32545, Note_off_c, 0, 69, 67
1, 32548, Note_off_c, 0, 64, 53
1, 32553, Note_on_c, 0, 86, 45
1, 32587, Control_c, 0, 67, 106
1, 32597, Note_off_c, 0, 89, 59
1, 32598, Note_off_c, 0, 86, 47
1, 32618, Note_on_c, 0, 79, 59
1, 32618, Note_on_c, 0, 83, 55
1, 32659, Note_off_c, 0, 79, 58
1, 32661, Control_c, 0, 64, 108
1, 32663, Note_off_c, 0, 83, 58
1, 32676, Control_c, 0, 64, 95
1, 32682, Note_on_c, 0, 65, 57
1, 32685, Note_on_c, 0, 88, 70
1, 32688, Note_on_c, 0, 69, 64
1, 32691, Control_c, 0, 64, 80
1, 32691, Control_c, 0, 67, 105
1, 32694, Note_on_c, 0, 84, 58
1, 32696, Note_on_c, 0, 59, 67
1, 32706, Control_c, 0, 64, 65
1, 32720, Control_c, 0, 64, 0
1, 32732, Note_off_c, 0, 84, 54
1, 32745, Note_off_c, 0, 88, 62
1, 32765, Control_c, 0, 67, 105
1, 32771, Note_on_c, 0, 77, 56
1, 32777, Note_on_c, 0, 81, 50
1, 32795, Control_c, 0, 64, 51
1, 32795, Control_c, 0, 67, 104
1, 32801, Note_off_c, 0, 81, 57
1, 32806, Note_off_c, 0, 77, 64
1, 32810, Control_c, 0, 64, 68
1, 32810, Control_c, 0, 67, 104
1, 32825, Control_c, 0, 64, 81
1, 32825, Control_c, 0, 67, 103
1, 32832, Note_on_c, 0, 83, 63
1, 32833, Note_on_c, 0, 86, 69
1, 32839, Control_c, 0, 64, 100
1, 32839, Control_c, 0, 67, 102
1, 32854, Control_c, 0, 64, 114
1, 32854, Control_c, 0, 67, 101
1, 32866, Note_off_c, 0, 69, 61
1, 32876, Control_c, 0, 64, 118
1, 32876, Control_c, 0, 67, 100
1, 32879, Note_off_c, 0, 83, 59
1, 32881, Note_off_c, 0, 86, 58
1, 32891, Control_c, 0, 64, 127
1, 32891, Control_c, 0, 67, 99
1, 32906, Control_c, 0, 67, 98
1, 32911, Note_on_c, 0, 76, 59
1, 32914, Note_on_c, 0, 79, 54
1, 32920, Control_c, 0, 67, 97
1, 32935, Note_off_c, 0, 79, 61
1, 32935, Control_c, 0, 67, 96
1, 32938, Note_off_c, 0, 76, 61
1, 32950, Control_c, 0, 67, 96
1, 32965, Note_on_c, 0, 84, 70
1, 32965, Control_c, 0, 67, 95
1, 32972, Note_on_c, 0, 81, 54
1, 32980, Control_c, 0, 67, 93
1, 32995, Note_off_c, 0, 81, 62
1, 32995, Control_c, 0, 67, 92
1, 33001, Note_off_c, 0, 84, 59
1, 33009, Control_c, 0, 67, 90
1, 33024, Control_c, 0, 67, 89
1, 33036, Note_on_c, 0, 74, 60
1, 33039, Note_on_c, 0, 77, 55
1, 33061, Note_off_c, 0, 77, 61
1, 33063, Note_off_c, 0, 74, 64
1, 33069, Control_c, 0, 67, 89
1, 33080, Note_on_c, 0, 67, 58
1, 33086, Note_off_c, 0, 65, 31
1, 33087, Note_on_c, 0, 83, 72
1, 33093, Note_on_c, 0, 79, 49
1, 33094, Note_on_c, 0, 55, 45
1, 33099, Control_c, 0, 67, 88
1, 33111, Note_off_c, 0, 67, 65
1, 33114, Control_c, 0, 67, 88
1, 33115, Note_off_c, 0, 59, 59
1, 33123, Note_off_c, 0, 79, 62
1, 33126, Note_off_c, 0, 55, 56
1, 33128, Control_c, 0, 67, 87
1, 33133, Note_off_c, 0, 83, 57
1, 33143, Control_c, 0, 67, 84
1, 33150, Note_on_c, 0, 76, 65
1, 33154, Note_on_c, 0, 72, 61
1, 33158, Control_c, 0, 67, 80
1, 33172, Control_c, 0, 67, 75
1, 33173, Note_off_c, 0, 76, 66
1, 33187, Note_off_c, 0, 72, 65
1, 33187, Control_c, 0, 67, 66
1, 33202, Control_c, 0, 64, 113
1, 33202, Control_c, 0, 67, 49
1, 33208, Note_on_c, 0, 81, 72
1, 33212, Note_on_c, 0, 77, 56
1, 33217, Control_c, 0, 64, 103
1, 33217, Control_c, 0, 67, 33
1, 33232, Control_c, 0, 64, 94
1, 33232, Control_c, 0, 67, 19
1, 33245, Note_off_c, 0, 77, 64
1, 33246, Control_c, 0, 64, 88
1, 33246, Control_c, 0, 67, 10
1, 33249, Note_off_c, 0, 81, 60
1, 33261, Control_c, 0, 64, 79
1, 33261, Control_c, 0, 67, 0
1, 33267, Note_on_c, 0, 74, 66
1, 33276, Control_c, 0, 64, 68
1, 33281, Note_on_c, 0, 71, 59
1, 33290, Control_c, 0, 64, 53
1, 33291, Note_off_c, 0, 74, 66
1, 33305, Control_c, 0, 64, 17
1, 33312, Note_off_c, 0, 71, 64
1, 33320, Control_c, 0, 64, 13
1, 33333, Note_on_c, 0, 79, 69
1, 33335, Control_c, 0, 64, 30
1, 33350, Note_on_c, 0, 76, 44
1, 33350, Control_c, 0, 64, 47
1, 33364, Control_c, 0, 64, 59
1, 33373, Note_off_c, 0, 79, 56
1, 33379, Control_c, 0, 64, 66
1, 33380, Note_off_c, 0, 76, 55
1, 33391, Note_on_c, 0, 72, 64
1, 33395, Control_c, 0, 64, 74
1, 33410, Control_c, 0, 64, 83
1, 33411, Note_on_c, 0, 69, 55
1, 33418, Note_off_c, 0, 72, 67
1, 33425, Control_c, 0, 64, 89
1, 33433, Note_off_c, 0, 69, 61
1, 33453, Note_on_c, 0, 55, 47
1, 33472, Note_on_c, 0, 77, 57
1, 33480, Note_on_c, 0, 74, 48
1, 33484, Control_c, 0, 64, 84
1, 33499, Control_c, 0, 64, 74
1, 33501, Note_off_c, 0, 77, 55
1, 33503, Note_off_c, 0, 74, 60
1, 33510, Note_off_c, 0, 55, 51
1, 33514, Control_c, 0, 64, 51
1, 33525, Note_on_c, 0, 67, 60
1, 33527, Note_on_c, 0, 71, 48
1, 33529, Control_c, 0, 64, 0
1, 33568, Note_off_c, 0, 67, 57
1, 33571, Note_off_c, 0, 71, 53
1, 33588, Control_c, 0, 64, 53
1, 33603, Note_on_c, 0, 76, 56
1, 33603, Control_c, 0, 64, 68
1, 33615, Note_on_c, 0, 48, 53
1, 33625, Control_c, 0, 64, 83
1, 33635, Note_on_c, 0, 72, 37
1, 33640, Control_c, 0, 64, 97
1, 33647, Note_off_c, 0, 48, 63
1, 33649, Note_off_c, 0, 76, 63
1, 33655, Control_c, 0, 64, 101
1, 33667, Note_off_c, 0, 72, 54
1, 33669, Control_c, 0, 64, 102
1, 33684, Control_c, 0, 64, 103
1, 33699, Control_c, 0, 64, 103
1, 33713, Control_c, 0, 64, 104
1, 33758, Control_c, 0, 64, 103
1, 33773, Control_c, 0, 64, 99
1, 33787, Control_c, 0, 64, 90
1, 33802, Control_c, 0, 64, 75
1, 33817, Control_c, 0, 64, 61
1, 33832, Control_c, 0, 64, 0
1, 33844, Note_on_c, 0, 41, 37
1, 33877, Note_off_c, 0, 41, 52
1, 33877, Note_on_c, 0, 99, 71
1, 33883, Note_on_c, 0, 96, 61
1, 33905, Control_c, 0, 64, 57
1, 33920, Control_c, 0, 64, 74
1, 33935, Control_c, 0, 64, 99
1, 33938, Note_off_c, 0, 96, 56
1, 33942, Note_off_c, 0, 99, 62
1, 33950, Control_c, 0, 64, 127
1, 33979, Note_on_c, 0, 89, 56
1, 33986, Note_on_c, 0, 93, 39
1, 34014, Note_off_c, 0, 93, 54
1, 34020, Note_off_c, 0, 89, 57
1, 34074, Note_on_c, 0, 98, 70
1, 34097, Note_on_c, 0, 67, 50
1, 34104, Note_on_c, 0, 63, 44
1, 34109, Note_on_c, 0, 94, 33
1, 34111, Note_on_c, 0, 57, 32
1, 34123, Note_off_c, 0, 67, 57
1, 34125, Note_off_c, 0, 98, 62
1, 34134, Note_off_c, 0, 63, 60
1, 34136, Note_on_c, 0, 91, 62
1, 34142, Note_off_c, 0, 94, 51
1, 34150, Note_off_c, 0, 57, 52
1, 34157, Note_on_c, 0, 87, 58
1, 34159, Note_off_c, 0, 91, 59
1, 34187, Note_off_c, 0, 87, 64
1, 34214, Note_on_c, 0, 96, 72
1, 34224, Note_on_c, 0, 67, 51
1, 34234, Note_on_c, 0, 63, 50
1, 34247, Note_on_c, 0, 57, 51
1, 34252, Note_off_c, 0, 96, 64
1, 34292, Note_on_c, 0, 86, 46
1, 34294, Note_on_c, 0, 89, 50
1, 34320, Note_off_c, 0, 89, 54
1, 34321, Note_off_c, 0, 86, 53
1, 34336, Note_off_c, 0, 67, 38
1, 34348, Note_on_c, 0, 91, 63
1, 34348, Note_on_c, 0, 94, 69
1, 34377, Note_off_c, 0, 91, 60
1, 34398, Note_off_c, 0, 94, 58
1, 34416, Note_on_c, 0, 87, 70
1, 34418, Note_off_c, 0, 63, 53
1, 34425, Note_on_c, 0, 84, 52
1, 34444, Note_off_c, 0, 87, 63
1, 34446, Note_off_c, 0, 84, 61
1, 34488, Note_on_c, 0, 93, 71
1, 34518, Note_on_c, 0, 89, 39
1, 34532, Note_off_c, 0, 93, 61
1, 34547, Note_off_c, 0, 89, 52
1, 34548, Note_on_c, 0, 82, 67
1, 34566, Note_off_c, 0, 82, 67
1, 34607, Note_on_c, 0, 91, 79
1, 34640, Poly_aftertouch_c, 0, 86, 0
1, 34654, Note_off_c, 0, 91, 60
1, 34664, Note_on_c, 0, 84, 73
1, 34673, Note_on_c, 0, 81, 63
1, 34691, Note_off_c, 0, 84, 67
1, 34703, Note_off_c, 0, 81, 65
1, 34704, Note_off_c, 0, 57, 42
1, 34730, Note_on_c, 0, 65, 60
1, 34732, Note_on_c, 0, 89, 76
1, 34735, Note_on_c, 0, 86, 65
1, 34735, Note_on_c, 0, 58, 57
1, 34735, Note_on_c, 0, 62, 54
1, 34763, Note_off_c, 0, 86, 65
1, 34766, Note_off_c, 0, 65, 63
1, 34772, Note_off_c, 0, 58, 64
1, 34783, Note_off_c, 0, 89, 61
1, 34792, Note_off_c, 0, 62, 57
1, 34798, Note_on_c, 0, 82, 68
1, 34824, Note_on_c, 0, 79, 41
1, 34824, Note_off_c, 0, 82, 67
1, 34854, Note_off_c, 0, 79, 53
1, 34858, Note_on_c, 0, 53, 58
1, 34862, Note_on_c, 0, 87, 80
1, 34865, Note_on_c, 0, 67, 63
1, 34866, Note_on_c, 0, 84, 66
1, 34880, Note_off_c, 0, 53, 63
1, 34886, Note_off_c, 0, 67, 61
1, 34893, Note_off_c, 0, 84, 65
1, 34912, Note_off_c, 0, 87, 62
1, 34930, Note_on_c, 0, 77, 63
1, 34930, Note_on_c, 0, 81, 60
1, 34948, Note_off_c, 0, 81, 66
1, 34957, Note_off_c, 0, 77, 67
1, 34996, Control_c, 0, 64, 96
1, 34998, Note_on_c, 0, 67, 66
1, 35002, Note_on_c, 0, 86, 73
1, 35005, Note_on_c, 0, 63, 71
1, 35010, Note_on_c, 0, 82, 59
1, 35011, Control_c, 0, 64, 71
1, 35016, Note_on_c, 0, 57, 65
1, 35026, Control_c, 0, 64, 0
1, 35050, Note_off_c, 0, 86, 63
1, 35054, Note_off_c, 0, 82, 57
1, 35055, Control_c, 0, 64, 49
1, 35065, Note_on_c, 0, 79, 55
1, 35070, Control_c, 0, 64, 73
1, 35075, Note_on_c, 0, 75, 62
1, 35085, Control_c, 0, 64, 127
1, 35086, Note_off_c, 0, 79, 63
1, 35108, Note_off_c, 0, 75, 64
1, 35138, Note_on_c, 0, 84, 79
1, 35138, Note_off_c, 0, 67, 59
1, 35156, Note_on_c, 0, 81, 46
1, 35178, Note_off_c, 0, 81, 60
1, 35185, Note_off_c, 0, 84, 63
1, 35203, Note_on_c, 0, 77, 63
1, 35211, Note_on_c, 0, 74, 55
1, 35238, Note_off_c, 0, 77, 51
1, 35254, Note_off_c, 0, 74, 60
1, 35261, Note_on_c, 0, 82, 79
1, 35278, Note_on_c, 0, 79, 58
1, 35298, Note_off_c, 0, 79, 62
1, 35306, Note_off_c, 0, 82, 66
1, 35328, Note_on_c, 0, 72, 68
1, 35335, Note_on_c, 0, 75, 59
1, 35353, Note_off_c, 0, 72, 67
1, 35355, Note_off_c, 0, 75, 63
1, 35388, Note_on_c, 0, 81, 82
1, 35400, Note_on_c, 0, 77, 71
1, 35405, Note_on_c, 0, 65, 65
1, 35417, Note_on_c, 0, 53, 60
1, 35431, Note_off_c, 0, 77, 62
1, 35433, Note_off_c, 0, 57, 61
1, 35434, Note_off_c, 0, 65, 63
1, 35445, Note_off_c, 0, 53, 67
1, 35450, Note_off_c, 0, 81, 65
1, 35457, Note_off_c, 0, 63, 62
1, 35460, Note_on_c, 0, 70, 74
1, 35462, Note_on_c, 0, 74, 56
1, 35482, Note_off_c, 0, 70, 68
1, 35483, Note_off_c, 0, 74, 63
1, 35520, Note_on_c, 0, 79, 78
1, 35523, Note_on_c, 0, 75, 69
1, 35567, Note_off_c, 0, 79, 59
1, 35571, Note_off_c, 0, 75, 46
1, 35582, Note_on_c, 0, 72, 69
1, 35585, Note_on_c, 0, 69, 67
1, 35607, Note_off_c, 0, 72, 69
1, 35639, Note_off_c, 0, 69, 59
1, 35647, Note_on_c, 0, 77, 81
1, 35654, Note_on_c, 0, 74, 70
1, 35684, Note_off_c, 0, 74, 62
1, 35705, Note_on_c, 0, 70, 78
1, 35707, Note_off_c, 0, 77, 59
1, 35720, Note_on_c, 0, 67, 71
1, 35755, Note_off_c, 0, 67, 57
1, 35759, Control_c, 0, 64, 111
1, 35775, Control_c, 0, 64, 84
1, 35782, Note_on_c, 0, 75, 83
1, 35784, Note_off_c, 0, 70, 61
1, 35785, Note_on_c, 0, 72, 75
1, 35786, Note_on_c, 0, 53, 96
1, 35790, Control_c, 0, 64, 59
1, 35805, Control_c, 0, 64, 0
1, 35842, Note_off_c, 0, 72, 60
1, 35844, Note_on_c, 0, 69, 73
1, 35856, Note_on_c, 0, 65, 73
1, 35856, Control_c, 0, 64, 39
1, 35863, Note_off_c, 0, 75, 63
1, 35871, Control_c, 0, 64, 67
1, 35886, Control_c, 0, 64, 86
1, 35895, Note_off_c, 0, 69, 63
1, 35901, Control_c, 0, 64, 127
1, 35924, Note_on_c, 0, 46, 98
1, 35931, Note_on_c, 0, 70, 90
1, 35935, Note_off_c, 0, 53, 68
1, 35936, Note_on_c, 0, 74, 81
1, 35941, Note_off_c, 0, 65, 51
1, 35961, Note_off_c, 0, 46, 68
1, 35995, Note_off_c, 0, 74, 55
1, 36065, Note_off_c, 0, 70, 54
1, 36079, Control_c, 0, 64, 108
1, 36094, Control_c, 0, 64, 92
1, 36095, Note_on_c, 0, 67, 7
1, 36108, Control_c, 0, 64, 77
1, 36123, Control_c, 0, 64, 61
1, 36138, Control_c, 0, 64, 0
1, 36151, Note_on_c, 0, 40, 101
1, 36166, Note_on_c, 0, 61, 100
1, 36167, Note_on_c, 0, 73, 99
1, 36168, Note_on_c, 0, 70, 93
1, 36210, Note_off_c, 0, 40, 64
1, 36234, Note_off_c, 0, 61, 63
1, 36241, Note_off_c, 0, 67, 23
1, 36242, Control_c, 0, 64, 69
1, 36256, Control_c, 0, 64, 103
1, 36269, Note_off_c, 0, 73, 66
1, 36271, Control_c, 0, 64, 127
1, 36277, Note_off_c, 0, 70, 64
1, 36640, Note_on_c, 0, 76, 69
1, 36643, Note_on_c, 0, 97, 99
1, 36646, Note_on_c, 0, 94, 88
1, 36647, Note_on_c, 0, 79, 60
1, 36710, Note_off_c, 0, 76, 62
1, 36715, Note_off_c, 0, 79, 60
1, 36720, Note_on_c, 0, 91, 84
1, 36721, Note_on_c, 0, 82, 72
1, 36728, Note_off_c, 0, 94, 63
1, 36729, Note_on_c, 0, 85, 76
1, 36731, Note_on_c, 0, 88, 81
1, 36737, Note_off_c, 0, 97, 64
1, 36764, Note_off_c, 0, 91, 63
1, 36779, Note_off_c, 0, 85, 63
1, 36779, Note_off_c, 0, 88, 65
1, 36786, Note_off_c, 0, 82, 65
1, 36791, Note_on_c, 0, 97, 88
1, 36796, Note_on_c, 0, 79, 70
1, 36810, Note_on_c, 0, 76, 69
1, 36823, Note_on_c, 0, 94, 38
1, 36825, Note_on_c, 0, 93, 47
1, 36846, Note_on_c, 0, 91, 65
1, 36848, Note_off_c, 0, 93, 57
1, 36849, Note_off_c, 0, 94, 57
1, 36851, Note_off_c, 0, 76, 61
1, 36855, Note_on_c, 0, 88, 79
1, 36857, Note_off_c, 0, 79, 61
1, 36864, Note_off_c, 0, 97, 65
1, 36867, Note_on_c, 0, 85, 79
1, 36869, Note_on_c, 0, 82, 75
1, 36880, Note_off_c, 0, 91, 64
1, 36890, Note_off_c, 0, 88, 62
1, 36910, Note_off_c, 0, 85, 59
1, 36926, Note_on_c, 0, 96, 94
1, 36926, Note_off_c, 0, 82, 65
1, 36928, Note_on_c, 0, 92, 60
1, 36929, Note_off_c, 0, 92, 127
1, 36931, Note_on_c, 0, 93, 79
1, 36932, Note_on_c, 0, 75, 75
1, 36932, Note_on_c, 0, 78, 74
1, 36947, Note_on_c, 0, 94, 43
1, 36974, Note_off_c, 0, 94, 55
1, 36977, Note_off_c, 0, 93, 61
1, 36980, Note_off_c, 0, 75, 61
1, 36986, Note_on_c, 0, 81, 75
1, 36988, Note_on_c, 0, 90, 76
1, 36989, Note_off_c, 0, 78, 61
1, 36993, Note_off_c, 0, 96, 67
1, 36994, Note_on_c, 0, 87, 82
1, 36995, Note_on_c, 0, 84, 79
1, 37016, Note_off_c, 0, 90, 63
1, 37019, Note_off_c, 0, 87, 65
1, 37035, Control_c, 0, 64, 95
1, 37037, Note_off_c, 0, 81, 61
1, 37043, Note_off_c, 0, 84, 55
1, 37050, Control_c, 0, 64, 72
1, 37051, Note_on_c, 0, 95, 95
1, 37055, Note_on_c, 0, 92, 78
1, 37058, Note_on_c, 0, 77, 78
1, 37061, Note_on_c, 0, 74, 73
1, 37065, Control_c, 0, 64, 36
1, 37079, Control_c, 0, 64, 0
1, 37094, Control_c, 0, 64, 47
1, 37099, Note_off_c, 0, 74, 58
1, 37109, Control_c, 0, 64, 69
1, 37115, Note_off_c, 0, 95, 66
1, 37118, Note_on_c, 0, 86, 76
1, 37118, Note_on_c, 0, 89, 83
1, 37120, Note_off_c, 0, 77, 64
1, 37122, Note_on_c, 0, 80, 82
1, 37123, Note_off_c, 0, 92, 62
1, 37124, Control_c, 0, 64, 94
1, 37132, Note_on_c, 0, 83, 75
1, 37138, Control_c, 0, 64, 127
1, 37155, Note_off_c, 0, 83, 68
1, 37159, Note_off_c, 0, 86, 60
1, 37177, Note_off_c, 0, 80, 65
1, 37179, Note_on_c, 0, 94, 84
1, 37182, Note_off_c, 0, 89, 64
1, 37185, Note_on_c, 0, 73, 74
1, 37189, Note_on_c, 0, 91, 75
1, 37192, Note_on_c, 0, 76, 70
1, 37217, Note_off_c, 0, 73, 64
1, 37232, Note_on_c, 0, 85, 85
1, 37234, Note_off_c, 0, 76, 61
1, 37238, Note_on_c, 0, 88, 77
1, 37238, Note_off_c, 0, 91, 64
1, 37239, Note_on_c, 0, 82, 80
1, 37240, Note_on_c, 0, 79, 68
1, 37243, Note_off_c, 0, 94, 66
1, 37262, Note_off_c, 0, 88, 68
1, 37266, Note_off_c, 0, 79, 64
1, 37278, Note_off_c, 0, 85, 64
1, 37284, Note_off_c, 0, 82, 66
1, 37305, Note_on_c, 0, 90, 84
1, 37308, Note_on_c, 0, 93, 85
1, 37309, Note_on_c, 0, 75, 76
1, 37317, Note_on_c, 0, 72, 71
1, 37347, Note_off_c, 0, 72, 64
1, 37374, Note_off_c, 0, 75, 62
1, 37378, Note_on_c, 0, 84, 77
1, 37380, Note_on_c, 0, 87, 82
1, 37382, Note_off_c, 0, 90, 64
1, 37384, Note_off_c, 0, 93, 62
1, 37385, Note_on_c, 0, 81, 74
1, 37387, Note_on_c, 0, 78, 70
1, 37404, Note_off_c, 0, 87, 67
1, 37412, Note_off_c, 0, 81, 63
1, 37430, Note_off_c, 0, 84, 55
1, 37437, Note_off_c, 0, 78, 64
1, 37439, Note_on_c, 0, 74, 71
1, 37439, Note_on_c, 0, 89, 79
1, 37441, Note_on_c, 0, 92, 84
1, 37443, Note_on_c, 0, 71, 70
1, 37469, Note_off_c, 0, 71, 70
1, 37485, Note_off_c, 0, 74, 66
1, 37495, Note_on_c, 0, 86, 81
1, 37502, Note_on_c, 0, 83, 80
1, 37502, Note_off_c, 0, 92, 63
1, 37503, Note_off_c, 0, 89, 61
1, 37509, Note_on_c, 0, 77, 57
1, 37511, Note_on_c, 0, 80, 81
1, 37519, Note_off_c, 0, 86, 66
1, 37532, Note_off_c, 0, 83, 63
1, 37546, Poly_aftertouch_c, 0, 88, 0
1, 37561, Note_off_c, 0, 77, 56
1, 37561, Control_c, 0, 64, 99
1, 37567, Note_on_c, 0, 73, 80
1, 37567, Note_on_c, 0, 88, 67
1, 37567, Note_on_c, 0, 91, 90
1, 37568, Note_on_c, 0, 70, 81
1, 37573, Note_off_c, 0, 80, 61
1, 37576, Control_c, 0, 64, 68
1, 37591, Control_c, 0, 64, 0
1, 37612, Note_off_c, 0, 88, 66
1, 37615, Note_off_c, 0, 70, 64
1, 37621, Control_c, 0, 64, 74
1, 37626, Note_off_c, 0, 73, 60
1, 37629, Note_off_c, 0, 91, 66
1, 37633, Note_on_c, 0, 85, 76
1, 37636, Note_on_c, 0, 82, 77
1, 37636, Control_c, 0, 64, 127
1, 37641, Note_on_c, 0, 79, 75
1, 37646, Note_on_c, 0, 76, 65
1, 37657, Note_off_c, 0, 85, 69
1, 37668, Note_off_c, 0, 79, 62
1, 37680, Note_off_c, 0, 82, 62
1, 37681, Note_off_c, 0, 76, 62
1, 37694, Note_on_c, 0, 87, 86
1, 37695, Note_on_c, 0, 69, 76
1, 37695, Note_on_c, 0, 90, 86
1, 37700, Note_on_c, 0, 72, 70
1, 37722, Note_off_c, 0, 69, 68
1, 37735, Note_off_c, 0, 90, 62
1, 37747, Note_on_c, 0, 84, 72
1, 37751, Note_on_c, 0, 81, 69
1, 37752, Note_off_c, 0, 72, 64
1, 37754, Note_off_c, 0, 87, 60
1, 37760, Note_on_c, 0, 75, 75
1, 37765, Note_on_c, 0, 78, 78
1, 37782, Note_off_c, 0, 84, 58
1, 37785, Note_off_c, 0, 81, 64
1, 37817, Note_on_c, 0, 86, 82
1, 37817, Note_on_c, 0, 89, 88
1, 37818, Note_off_c, 0, 75, 60
1, 37819, Note_off_c, 0, 78, 61
1, 37821, Note_on_c, 0, 68, 76
1, 37824, Note_on_c, 0, 71, 66
1, 37854, Note_off_c, 0, 71, 65
1, 37868, Note_off_c, 0, 68, 63
1, 37871, Note_off_c, 0, 86, 62
1, 37877, Note_on_c, 0, 74, 69
1, 37878, Note_on_c, 0, 80, 79
1, 37878, Note_off_c, 0, 89, 62
1, 37879, Note_on_c, 0, 83, 69
1, 37892, Note_on_c, 0, 77, 71
1, 37897, Note_off_c, 0, 83, 65
1, 37904, Note_off_c, 0, 74, 66
1, 37928, Note_off_c, 0, 77, 58
1, 37930, Note_off_c, 0, 80, 64
1, 37946, Note_on_c, 0, 85, 81
1, 37948, Note_on_c, 0, 70, 76
1, 37949, Note_on_c, 0, 88, 83
1, 37955, Note_on_c, 0, 67, 71
1, 37985, Note_off_c, 0, 67, 65
1, 37994, Note_off_c, 0, 85, 59
1, 38000, Note_off_c, 0, 88, 65
1, 38004, Note_on_c, 0, 82, 81
1, 38006, Control_c, 0, 64, 109
1, 38008, Note_off_c, 0, 70, 61
1, 38016, Note_on_c, 0, 79, 70
1, 38021, Note_on_c, 0, 73, 70
1, 38021, Control_c, 0, 64, 77
1, 38030, Note_on_c, 0, 76, 66
1, 38035, Control_c, 0, 64, 16
1, 38043, Note_off_c, 0, 79, 64
1, 38050, Note_off_c, 0, 76, 64
1, 38050, Control_c, 0, 64, 0
1, 38058, Note_off_c, 0, 73, 62
1, 38065, Control_c, 0, 64, 26
1, 38068, Note_off_c, 0, 82, 62
1, 38069, Note_on_c, 0, 66, 79
1, 38070, Note_on_c, 0, 69, 73
1, 38071, Note_on_c, 0, 87, 88
1, 38077, Note_on_c, 0, 84, 67
1, 38080, Control_c, 0, 64, 70
1, 38095, Control_c, 0, 64, 127
1, 38129, Note_off_c, 0, 69, 60
1, 38131, Note_off_c, 0, 84, 51
1, 38132, Note_off_c, 0, 66, 63
1, 38135, Note_on_c, 0, 72, 75
1, 38143, Note_on_c, 0, 78, 78
1, 38145, Note_on_c, 0, 75, 77
1, 38151, Note_off_c, 0, 87, 64
1, 38152, Note_on_c, 0, 81, 54
1, 38159, Note_off_c, 0, 72, 68
1, 38165, Note_off_c, 0, 78, 68
1, 38170, Note_off_c, 0, 81, 64
1, 38174, Note_off_c, 0, 75, 63
1, 38175, Note_on_c, 0, 80, 19
1, 38203, Note_on_c, 0, 68, 76
1, 38208, Note_on_c, 0, 83, 80
1, 38213, Note_on_c, 0, 86, 83
1, 38214, Note_off_c, 0, 80, 52
1, 38217, Note_on_c, 0, 65, 76
1, 38237, Poly_aftertouch_c, 0, 77, 127
1, 38246, Note_off_c, 0, 65, 64
1, 38250, Note_off_c, 0, 83, 47
1, 38257, Poly_aftertouch_c, 0, 77, 0
1, 38262, Note_off_c, 0, 68, 62
1, 38264, Note_on_c, 0, 71, 70
1, 38267, Note_off_c, 0, 86, 62
1, 38271, Note_on_c, 0, 80, 76
1, 38275, Note_on_c, 0, 74, 78
1, 38283, Note_on_c, 0, 77, 36
1, 38290, Note_off_c, 0, 71, 66
1, 38298, Note_off_c, 0, 80, 63
1, 38316, Note_off_c, 0, 74, 62
1, 38325, Note_off_c, 0, 77, 56
1, 38330, Note_on_c, 0, 82, 88
1, 38333, Note_on_c, 0, 67, 72
1, 38336, Note_on_c, 0, 85, 83
1, 38345, Note_on_c, 0, 64, 63
1, 38365, Note_off_c, 0, 64, 66
1, 38387, Note_off_c, 0, 67, 64
1, 38391, Note_off_c, 0, 85, 64
1, 38393, Note_on_c, 0, 70, 76
1, 38393, Note_off_c, 0, 82, 62
1, 38399, Note_on_c, 0, 76, 73
1, 38403, Note_on_c, 0, 73, 77
1, 38406, Note_on_c, 0, 79, 55
1, 38426, Note_off_c, 0, 70, 56
1, 38427, Note_off_c, 0, 79, 62
1, 38433, Note_off_c, 0, 76, 59
1, 38450, Note_off_c, 0, 73, 56
1, 38456, Note_on_c, 0, 80, 85
1, 38460, Note_on_c, 0, 66, 75
1, 38462, Note_on_c, 0, 84, 82
1, 38469, Note_on_c, 0, 63, 65
1, 38499, Note_off_c, 0, 63, 65
1, 38505, Note_off_c, 0, 80, 63
1, 38511, Note_on_c, 0, 69, 67
1, 38512, Note_off_c, 0, 66, 61
1, 38521, Note_off_c, 0, 84, 65
1, 38527, Note_on_c, 0, 72, 72
1, 38530, Note_on_c, 0, 75, 72
1, 38531, Note_on_c, 0, 78, 66
1, 38532, Control_c, 0, 64, 105
1, 38541, Note_off_c, 0, 69, 65
1, 38547, Control_c, 0, 64, 81
1, 38556, Note_off_c, 0, 75, 68
1, 38557, Note_off_c, 0, 78, 66
1, 38560, Note_off_c, 0, 72, 61
1, 38562, Control_c, 0, 64, 41
1, 38576, Control_c, 0, 64, 0
1, 38590, Note_on_c, 0, 62, 75
1, 38590, Note_on_c, 0, 65, 71
1, 38590, Note_on_c, 0, 83, 87
1, 38592, Note_on_c, 0, 80, 78
1, 38621, Control_c, 0, 64, 63
1, 38629, Note_off_c, 0, 62, 63
1, 38636, Control_c, 0, 64, 89
1, 38646, Note_off_c, 0, 83, 62
1, 38646, Note_off_c, 0, 65, 60
1, 38649, Note_off_c, 0, 80, 60
1, 38650, Note_on_c, 0, 68, 74
1, 38650, Control_c, 0, 64, 127
1, 38654, Note_on_c, 0, 77, 66
1, 38655, Note_on_c, 0, 71, 78
1, 38655, Note_on_c, 0, 74, 66
1, 38683, Note_off_c, 0, 74, 65
1, 38686, Note_off_c, 0, 71, 65
1, 38700, Note_off_c, 0, 77, 53
1, 38707, Note_off_c, 0, 68, 61
1, 38718, Note_on_c, 0, 64, 67
1, 38718, Note_on_c, 0, 82, 88
1, 38719, Note_on_c, 0, 61, 69
1, 38719, Note_on_c, 0, 79, 74
1, 38751, Note_off_c, 0, 61, 64
1, 38770, Note_off_c, 0, 79, 55
1, 38770, Note_off_c, 0, 64, 64
1, 38773, Note_on_c, 0, 73, 79
1, 38775, Note_on_c, 0, 70, 78
1, 38779, Note_on_c, 0, 76, 66
1, 38780, Note_off_c, 0, 82, 64
1, 38784, Note_on_c, 0, 67, 55
1, 38801, Note_off_c, 0, 76, 65
1, 38807, Note_off_c, 0, 67, 62
1, 38819, Note_off_c, 0, 70, 63
1, 38828, Note_off_c, 0, 73, 63
1, 38852, Note_on_c, 0, 63, 73
1, 38856, Note_on_c, 0, 81, 79
1, 38857, Note_on_c, 0, 78, 77
1, 38861, Note_on_c, 0, 60, 66
1, 38892, Note_off_c, 0, 60, 66
1, 38905, Note_off_c, 0, 78, 48
1, 38910, Note_on_c, 0, 75, 79
1, 38910, Note_off_c, 0, 81, 63
1, 38913, Note_off_c, 0, 63, 63
1, 38917, Note_on_c, 0, 66, 65
1, 38917, Note_on_c, 0, 69, 71
1, 38924, Note_on_c, 0, 72, 65
1, 38956, Note_off_c, 0, 72, 63
1, 38958, Note_off_c, 0, 69, 59
1, 38970, Note_on_c, 0, 78, 82
1, 38972, Note_off_c, 0, 75, 61
1, 38979, Note_off_c, 0, 66, 60
1, 38984, Note_on_c, 0, 62, 64
1, 38986, Note_on_c, 0, 59, 68
1, 38987, Note_on_c, 0, 80, 74
1, 39013, Note_off_c, 0, 59, 66
1, 39040, Note_off_c, 0, 62, 60
1, 39040, Note_off_c, 0, 78, 63
1, 39045, Note_on_c, 0, 65, 68
1, 39045, Note_off_c, 0, 80, 63
1, 39045, Control_c, 0, 64, 114
1, 39046, Note_on_c, 0, 74, 65
1, 39049, Note_on_c, 0, 71, 67
1, 39060, Control_c, 0, 64, 97
1, 39064, Note_on_c, 0, 68, 61
1, 39072, Note_off_c, 0, 74, 65
1, 39075, Control_c, 0, 64, 76
1, 39075, Control_c, 0, 67, 8
1, 39082, Note_off_c, 0, 65, 58
1, 39083, Note_off_c, 0, 71, 65
1, 39089, Control_c, 0, 64, 37
1, 39089, Control_c, 0, 67, 12
1, 39104, Control_c, 0, 64, 0
1, 39104, Control_c, 0, 67, 17
1, 39105, Note_off_c, 0, 68, 62
1, 39118, Note_on_c, 0, 79, 75
1, 39119, Note_on_c, 0, 76, 75
1, 39119, Control_c, 0, 67, 24
1, 39120, Note_on_c, 0, 61, 66
1, 39125, Note_on_c, 0, 58, 68
1, 39133, Control_c, 0, 67, 30
1, 39148, Control_c, 0, 64, 32
1, 39148, Control_c, 0, 67, 36
1, 39163, Control_c, 0, 64, 65
1, 39163, Control_c, 0, 67, 42
1, 39166, Note_off_c, 0, 76, 62
1, 39168, Note_off_c, 0, 58, 62
1, 39178, Control_c, 0, 64, 82
1, 39178, Control_c, 0, 67, 49
1, 39179, Note_off_c, 0, 79, 61
1, 39185, Note_off_c, 0, 61, 61
1, 39186, Note_on_c, 0, 70, 72
1, 39193, Control_c, 0, 64, 108
1, 39193, Control_c, 0, 67, 58
1, 39198, Note_on_c, 0, 73, 56
1, 39204, Note_on_c, 0, 67, 64
1, 39207, Control_c, 0, 64, 127
1, 39207, Control_c, 0, 67, 64
1, 39211, Note_on_c, 0, 64, 42
1, 39222, Control_c, 0, 64, 118
1, 39222, Control_c, 0, 67, 70
1, 39231, Note_off_c, 0, 73, 46
1, 39237, Control_c, 0, 64, 93
1, 39237, Control_c, 0, 67, 74
1, 39240, Note_off_c, 0, 67, 61
1, 39243, Note_off_c, 0, 64, 54
1, 39245, Note_off_c, 0, 70, 62
1, 39252, Control_c, 0, 64, 69
1, 39252, Control_c, 0, 67, 75
1, 39259, Note_on_c, 0, 75, 64
1, 39266, Note_on_c, 0, 78, 57
1, 39267, Control_c, 0, 64, 0
1, 39267, Control_c, 0, 67, 76
1, 39281, Control_c, 0, 67, 76
1, 39286, Note_on_c, 0, 57, 47
1, 39287, Note_on_c, 0, 60, 46
1, 39296, Control_c, 0, 67, 77
1, 39297, Note_off_c, 0, 75, 55
1, 39311, Control_c, 0, 64, 45
1, 39311, Control_c, 0, 67, 77
1, 39317, Note_off_c, 0, 57, 56
1, 39323, Note_off_c, 0, 78, 59
1, 39326, Control_c, 0, 64, 70
1, 39326, Control_c, 0, 67, 78
1, 39335, Note_off_c, 0, 60, 63
1, 39335, Note_on_c, 0, 69, 53
1, 39341, Control_c, 0, 64, 88
1, 39341, Control_c, 0, 67, 78
1, 39344, Note_on_c, 0, 72, 43
1, 39356, Control_c, 0, 64, 127
1, 39356, Control_c, 0, 67, 80
1, 39359, Note_on_c, 0, 63, 56
1, 39359, Note_on_c, 0, 66, 58
1, 39371, Control_c, 0, 67, 82
1, 39381, Note_off_c, 0, 72, 48
1, 39386, Control_c, 0, 67, 83
1, 39389, Note_off_c, 0, 69, 56
1, 39397, Note_off_c, 0, 66, 59
1, 39399, Note_off_c, 0, 63, 63
1, 39400, Control_c, 0, 67, 84
1, 39406, Note_on_c, 0, 75, 59
1, 39418, Note_on_c, 0, 77, 62
1, 39428, Note_on_c, 0, 57, 42
1, 39438, Note_on_c, 0, 60, 55
1, 39454, Note_off_c, 0, 75, 53
1, 39457, Note_off_c, 0, 77, 60
1, 39473, Note_on_c, 0, 72, 59
1, 39474, Note_off_c, 0, 60, 62
1, 39476, Note_off_c, 0, 57, 54
1, 39497, Note_on_c, 0, 69, 46
1, 39511, Note_on_c, 0, 63, 43
1, 39515, Note_off_c, 0, 72, 60
1, 39527, Note_off_c, 0, 69, 54
1, 39530, Note_on_c, 0, 65, 44
1, 39533, Control_c, 0, 67, 83
1, 39544, Note_off_c, 0, 63, 53
1, 39550, Note_on_c, 0, 77, 67
1, 39559, Note_on_c, 0, 75, 49
1, 39560, Note_on_c, 0, 60, 49
1, 39562, Note_off_c, 0, 65, 53
1, 39572, Note_on_c, 0, 57, 55
1, 39590, Note_off_c, 0, 75, 53
1, 39603, Note_off_c, 0, 77, 57
1, 39606, Note_off_c, 0, 60, 62
1, 39611, Note_off_c, 0, 57, 64
1, 39615, Control_c, 0, 67, 83
1, 39615, Note_on_c, 0, 72, 58
1, 39618, Note_on_c, 0, 69, 54
1, 39642, Note_on_c, 0, 63, 45
1, 39646, Note_off_c, 0, 72, 66
1, 39658, Note_on_c, 0, 65, 54
1, 39659, Control_c, 0, 64, 122
1, 39670, Note_off_c, 0, 63, 55
1, 39672, Note_off_c, 0, 69, 58
1, 39674, Control_c, 0, 64, 100
1, 39687, Note_off_c, 0, 65, 58
1, 39689, Control_c, 0, 64, 79
1, 39699, Note_on_c, 0, 77, 67
1, 39702, Note_on_c, 0, 74, 55
1, 39703, Note_on_c, 0, 57, 58
1, 39704, Control_c, 0, 64, 36
1, 39712, Note_on_c, 0, 59, 49
1, 39719, Control_c, 0, 64, 0
1, 39734, Note_off_c, 0, 77, 59
1, 39734, Note_off_c, 0, 57, 64
1, 39737, Note_off_c, 0, 74, 61
1, 39748, Note_off_c, 0, 59, 61
1, 39758, Note_on_c, 0, 71, 59
1, 39762, Control_c, 0, 64, 45
1, 39767, Note_on_c, 0, 69, 50
1, 39773, Note_on_c, 0, 65, 54
1, 39778, Control_c, 0, 64, 68
1, 39793, Control_c, 0, 64, 86
1, 39800, Note_on_c, 0, 62, 18
1, 39800, Note_off_c, 0, 69, 65
1, 39808, Control_c, 0, 64, 127
1, 39812, Note_off_c, 0, 65, 61
1, 39815, Note_off_c, 0, 71, 59
1, 39837, Note_on_c, 0, 76, 68
1, 39840, Note_on_c, 0, 59, 53
1, 39842, Note_on_c, 0, 56, 59
1, 39842, Note_off_c, 0, 62, 51
1, 39845, Note_on_c, 0, 74, 54
1, 39867, Control_c, 0, 67, 83
1, 39880, Note_off_c, 0, 74, 60
1, 39882, Control_c, 0, 64, 99
1, 39891, Note_off_c, 0, 56, 60
1, 39894, Note_off_c, 0, 59, 55
1, 39897, Control_c, 0, 64, 70
1, 39899, Note_off_c, 0, 76, 61
1, 39911, Control_c, 0, 64, 25
1, 39922, Note_on_c, 0, 68, 50
1, 39925, Note_on_c, 0, 71, 33
1, 39926, Control_c, 0, 64, 29
1, 39941, Control_c, 0, 64, 62
1, 39956, Control_c, 0, 64, 75
1, 39958, Note_off_c, 0, 71, 58
1, 39967, Note_off_c, 0, 68, 61
1, 39970, Control_c, 0, 64, 103
1, 39985, Note_on_c, 0, 74, 43
1, 39985, Control_c, 0, 64, 127
1, 39990, Poly_aftertouch_c, 0, 64, 127
1, 39997, Note_on_c, 0, 76, 49
1, 40005, Note_on_c, 0, 56, 44
1, 40018, Note_on_c, 0, 59, 44
1, 40021, Poly_aftertouch_c, 0, 64, 0
1, 40026, Note_off_c, 0, 74, 59
1, 40038, Note_off_c, 0, 56, 53
1, 40044, Note_off_c, 0, 76, 50
1, 40048, Note_off_c, 0, 59, 56
1, 40050, Note_on_c, 0, 71, 47
1, 40068, Note_on_c, 0, 68, 47
1, 40099, Note_off_c, 0, 71, 49
1, 40106, Note_off_c, 0, 68, 62
1, 40114, Poly_aftertouch_c, 0, 62, 127
1, 40118, Poly_aftertouch_c, 0, 64, 127
1, 40129, Note_on_c, 0, 74, 47
1, 40137, Note_on_c, 0, 56, 41
1, 40148, Note_on_c, 0, 76, 51
1, 40148, Control_c, 0, 67, 84
1, 40152, Note_on_c, 0, 59, 47
1, 40163, Control_c, 0, 67, 84
1, 40168, Poly_aftertouch_c, 0, 64, 0
1, 40173, Note_off_c, 0, 74, 56
1, 40173, Note_off_c, 0, 56, 55
1, 40177, Poly_aftertouch_c, 0, 62, 0
1, 40184, Note_off_c, 0, 76, 49
1, 40185, Note_off_c, 0, 59, 63
1, 40190, Note_on_c, 0, 71, 53
1, 40201, Note_on_c, 0, 62, 19
1, 40208, Note_on_c, 0, 68, 48
1, 40218, Note_on_c, 0, 64, 38
1, 40222, Control_c, 0, 67, 85
1, 40232, Note_off_c, 0, 71, 59
1, 40237, Control_c, 0, 67, 87
1, 40252, Control_c, 0, 67, 92
1, 40260, Note_off_c, 0, 62, 44
1, 40267, Control_c, 0, 64, 93
1, 40267, Control_c, 0, 67, 99
1, 40268, Note_off_c, 0, 64, 48
1, 40274, Note_off_c, 0, 68, 59
1, 40281, Control_c, 0, 64, 71
1, 40281, Control_c, 0, 67, 105
1, 40291, Note_on_c, 0, 73, 58
1, 40295, Note_on_c, 0, 76, 47
1, 40296, Control_c, 0, 64, 32
1, 40296, Control_c, 0, 67, 109
1, 40301, Note_on_c, 0, 55, 44
1, 40311, Control_c, 0, 64, 0
1, 40311, Control_c, 0, 67, 113
1, 40326, Note_on_c, 0, 58, 30
1, 40326, Control_c, 0, 67, 116
1, 40341, Control_c, 0, 67, 119
1, 40345, Note_off_c, 0, 55, 59
1, 40361, Note_off_c, 0, 73, 50
1, 40363, Control_c, 0, 64, 57
1, 40363, Control_c, 0, 67, 120
1, 40372, Note_off_c, 0, 76, 55
1, 40375, Note_off_c, 0, 58, 52
1, 40378, Control_c, 0, 64, 74
1, 40385, Note_on_c, 0, 64, 49
1, 40393, Control_c, 0, 64, 94
1, 40396, Note_on_c, 0, 70, 46
1, 40408, Control_c, 0, 64, 127
1, 40408, Note_on_c, 0, 67, 40
1, 40410, Note_on_c, 0, 61, 35
1, 40426, Note_off_c, 0, 64, 63
1, 40447, Note_off_c, 0, 67, 60
1, 40458, Note_off_c, 0, 61, 51
1, 40470, Note_off_c, 0, 70, 57
1, 40480, Note_on_c, 0, 58, 47
1, 40486, Note_on_c, 0, 55, 35
1, 40487, Note_on_c, 0, 75, 50
1, 40488, Note_on_c, 0, 73, 50
1, 40525, Control_c, 0, 64, 99
1, 40525, Control_c, 0, 67, 121
1, 40527, Note_off_c, 0, 55, 59
1, 40531, Note_off_c, 0, 75, 59
1, 40540, Note_off_c, 0, 73, 56
1, 40540, Control_c, 0, 64, 80
1, 40540, Control_c, 0, 67, 123
1, 40551, Note_off_c, 0, 58, 57
1, 40554, Note_on_c, 0, 67, 43
1, 40554, Control_c, 0, 64, 62
1, 40554, Control_c, 0, 67, 126
1, 40569, Control_c, 0, 64, 0
1, 40582, Note_on_c, 0, 63, 34
1, 40591, Note_on_c, 0, 70, 21
1, 40615, Control_c, 0, 64, 44
1, 40629, Note_off_c, 0, 63, 46
1, 40630, Control_c, 0, 64, 69
1, 40641, Note_off_c, 0, 67, 48
1, 40645, Control_c, 0, 64, 86
1, 40647, Poly_aftertouch_c, 0, 61, 127
1, 40659, Control_c, 0, 64, 127
1, 40679, Note_on_c, 0, 55, 25
1, 40682, Note_on_c, 0, 73, 40
1, 40683, Note_on_c, 0, 58, 45
1, 40686, Note_on_c, 0, 75, 47
1, 40697, Poly_aftertouch_c, 0, 61, 0
1, 40734, Note_off_c, 0, 58, 55
1, 40736, Note_off_c, 0, 75, 56
1, 40736, Note_off_c, 0, 55, 42
1, 40765, Note_off_c, 0, 70, 0
1, 40780, Note_on_c, 0, 63, 32
1, 40787, Note_on_c, 0, 70, 15
1, 40790, Note_on_c, 0, 67, 37
1, 40793, Note_off_c, 0, 73, 38
1, 40804, Note_on_c, 0, 61, 11
1, 40831, Note_off_c, 0, 63, 47
1, 40843, Note_off_c, 0, 67, 56
1, 40865, Note_on_c, 0, 55, 44
1, 40878, Note_off_c, 0, 61, 41
1, 40901, Note_on_c, 0, 58, 24
1, 40902, Note_on_c, 0, 75, 40
1, 40906, Note_on_c, 0, 73, 46
1, 40942, Note_off_c, 0, 70, 0
1, 40958, Note_off_c, 0, 75, 51
1, 40966, Note_off_c, 0, 73, 48
1, 40969, Note_on_c, 0, 70, 9
1, 40983, Note_on_c, 0, 61, 25
1, 40985, Note_on_c, 0, 63, 29
1, 40985, Note_off_c, 0, 58, 34
1, 40989, Note_on_c, 0, 67, 39
1, 41022, Note_off_c, 0, 63, 51
1, 41029, Note_off_c, 0, 67, 61
1, 41031, Note_off_c, 0, 61, 54
1, 41034, Note_off_c, 0, 55, 25
1, 41156, Control_c, 0, 67, 126
1, 41171, Control_c, 0, 67, 127
1, 41185, Control_c, 0, 64, 122
1, 41185, Control_c, 0, 67, 127
1, 41200, Control_c, 0, 64, 110
1, 41215, Control_c, 0, 64, 97
1, 41230, Control_c, 0, 64, 81
1, 41242, Note_off_c, 0, 70, 41
1, 41245, Control_c, 0, 64, 67
1, 41246, Note_on_c, 0, 44, 39
1, 41259, Control_c, 0, 64, 44
1, 41260, Note_on_c, 0, 75, 42
1, 41273, Note_on_c, 0, 71, 36
1, 41274, Control_c, 0, 64, 0
1, 41329, Note_off_c, 0, 71, 59
1, 41348, Control_c, 0, 64, 32
1, 41362, Note_off_c, 0, 75, 51
1, 41363, Control_c, 0, 64, 61
1, 41374, Note_on_c, 0, 76, 42
1, 41379, Control_c, 0, 64, 69
1, 41393, Control_c, 0, 64, 77
1, 41408, Control_c, 0, 64, 84
1, 41410, Note_on_c, 0, 73, 48
1, 41423, Control_c, 0, 64, 90
1, 41434, Note_off_c, 0, 76, 44
1, 41438, Control_c, 0, 64, 95
1, 41446, Note_off_c, 0, 73, 61
1, 41451, Note_off_c, 0, 44, 39
1, 41453, Control_c, 0, 64, 100
1, 41468, Control_c, 0, 64, 103
1, 41475, Note_on_c, 0, 71, 45
1, 41477, Note_on_c, 0, 51, 30
1, 41482, Control_c, 0, 64, 104
1, 41497, Control_c, 0, 64, 105
1, 41502, Note_on_c, 0, 75, 41
1, 41512, Control_c, 0, 64, 106
1, 41517, Note_off_c, 0, 71, 61
1, 41526, Control_c, 0, 64, 107
1, 41541, Note_off_c, 0, 75, 60
1, 41541, Control_c, 0, 64, 107
1, 41554, Note_on_c, 0, 76, 55
1, 41556, Control_c, 0, 64, 109
1, 41571, Control_c, 0, 64, 112
1, 41582, Note_on_c, 0, 73, 28
1, 41586, Control_c, 0, 64, 114
1, 41600, Control_c, 0, 64, 115
1, 41609, Note_off_c, 0, 76, 58
1, 41617, Note_off_c, 0, 73, 52
1, 41624, Note_on_c, 0, 59, 45
1, 41627, Note_on_c, 0, 71, 53
1, 41645, Control_c, 0, 64, 114
1, 41651, Note_off_c, 0, 59, 55
1, 41652, Note_on_c, 0, 75, 45
1, 41669, Note_off_c, 0, 71, 61
1, 41684, Note_off_c, 0, 51, 40
1, 41686, Note_off_c, 0, 75, 61
1, 41705, Control_c, 0, 64, 113
1, 41713, Note_on_c, 0, 76, 59
1, 41716, Note_on_c, 0, 73, 42
1, 41719, Control_c, 0, 64, 109
1, 41734, Control_c, 0, 64, 104
1, 41749, Control_c, 0, 64, 94
1, 41752, Note_off_c, 0, 73, 52
1, 41755, Note_off_c, 0, 76, 58
1, 41764, Control_c, 0, 64, 81
1, 41769, Note_on_c, 0, 43, 54
1, 41776, Note_on_c, 0, 71, 58
1, 41779, Control_c, 0, 64, 66
1, 41783, Note_on_c, 0, 75, 51
1, 41793, Control_c, 0, 64, 0
1, 41819, Note_off_c, 0, 71, 62
1, 41829, Note_off_c, 0, 75, 59
1, 41865, Note_on_c, 0, 76, 63
1, 41872, Note_on_c, 0, 73, 42
1, 41877, Note_off_c, 0, 43, 55
1, 41905, Note_off_c, 0, 73, 55
1, 41908, Note_off_c, 0, 76, 60
1, 41916, Note_on_c, 0, 44, 44
1, 41934, Note_on_c, 0, 71, 58
1, 41942, Note_on_c, 0, 75, 46
1, 41949, Control_c, 0, 64, 43
1, 41964, Control_c, 0, 64, 58
1, 41973, Note_off_c, 0, 71, 59
1, 41979, Control_c, 0, 64, 63
1, 41984, Note_off_c, 0, 75, 50
1, 41994, Control_c, 0, 64, 68
1, 42009, Control_c, 0, 64, 73
1, 42012, Note_on_c, 0, 76, 57
1, 42015, Note_on_c, 0, 73, 34
1, 42024, Control_c, 0, 64, 78
1, 42039, Control_c, 0, 64, 81
1, 42046, Note_off_c, 0, 76, 61
1, 42049, Note_off_c, 0, 73, 52
1, 42053, Control_c, 0, 64, 84
1, 42068, Control_c, 0, 64, 87
1, 42071, Note_on_c, 0, 71, 60
1, 42073, Note_on_c, 0, 75, 58
1, 42080, Note_off_c, 0, 44, 33
1, 42083, Control_c, 0, 64, 91
1, 42083, Note_on_c, 0, 51, 44
1, 42098, Control_c, 0, 64, 93
1, 42110, Note_off_c, 0, 71, 60
1, 42113, Control_c, 0, 64, 94
1, 42116, Note_off_c, 0, 75, 58
1, 42127, Control_c, 0, 64, 94
1, 42141, Note_on_c, 0, 76, 63
1, 42142, Control_c, 0, 64, 95
1, 42157, Control_c, 0, 64, 95
1, 42158, Note_on_c, 0, 73, 37
1, 42191, Note_off_c, 0, 73, 53
1, 42199, Note_off_c, 0, 76, 58
1, 42203, Control_c, 0, 64, 96
1, 42215, Note_on_c, 0, 71, 62
1, 42216, Note_on_c, 0, 59, 59
1, 42232, Note_on_c, 0, 75, 48
1, 42238, Note_off_c, 0, 59, 62
1, 42247, Note_off_c, 0, 71, 62
1, 42264, Note_off_c, 0, 75, 59
1, 42265, Note_off_c, 0, 51, 54
1, 42277, Control_c, 0, 64, 95
1, 42286, Note_on_c, 0, 76, 62
1, 42287, Note_on_c, 0, 73, 45
1, 42292, Control_c, 0, 64, 92
1, 42306, Control_c, 0, 64, 83
1, 42321, Control_c, 0, 64, 67
1, 42328, Note_off_c, 0, 73, 49
1, 42334, Note_off_c, 0, 76, 57
1, 42336, Control_c, 0, 64, 0
1, 42349, Note_on_c, 0, 75, 61
1, 42349, Note_on_c, 0, 39, 60
1, 42352, Note_on_c, 0, 71, 59
1, 42391, Note_off_c, 0, 75, 52
1, 42394, Note_off_c, 0, 71, 56
1, 42427, Note_on_c, 0, 76, 69
1, 42456, Note_off_c, 0, 39, 53
1, 42468, Note_off_c, 0, 76, 56
1, 42480, Note_on_c, 0, 44, 49
1, 42483, Control_c, 0, 64, 49
1, 42488, Note_on_c, 0, 75, 52
1, 42498, Control_c, 0, 64, 65
1, 42500, Note_on_c, 0, 71, 61
1, 42513, Poly_aftertouch_c, 0, 73, 0
1, 42513, Control_c, 0, 64, 72
1, 42525, Note_off_c, 0, 75, 60
1, 42528, Control_c, 0, 64, 80
1, 42536, Note_off_c, 0, 71, 63
1, 42542, Control_c, 0, 64, 87
1, 42557, Control_c, 0, 64, 93
1, 42566, Note_on_c, 0, 73, 48
1, 42566, Note_on_c, 0, 76, 56
1, 42572, Control_c, 0, 64, 96
1, 42587, Control_c, 0, 64, 100
1, 42605, Note_off_c, 0, 73, 54
1, 42610, Control_c, 0, 64, 103
1, 42624, Control_c, 0, 64, 106
1, 42625, Note_on_c, 0, 75, 58
1, 42625, Note_off_c, 0, 44, 48
1, 42629, Note_off_c, 0, 76, 55
1, 42635, Note_on_c, 0, 71, 68
1, 42638, Note_on_c, 0, 51, 45
1, 42639, Control_c, 0, 64, 108
1, 42654, Control_c, 0, 64, 110
1, 42669, Control_c, 0, 64, 111
1, 42683, Note_off_c, 0, 71, 61
1, 42683, Note_off_c, 0, 75, 60
1, 42683, Control_c, 0, 64, 111
1, 42694, Note_on_c, 0, 70, 71
1, 42698, Control_c, 0, 64, 112
1, 42700, Note_on_c, 0, 74, 55
1, 42713, Control_c, 0, 64, 114
1, 42728, Control_c, 0, 64, 115
1, 42743, Control_c, 0, 64, 115
1, 42752, Note_off_c, 0, 70, 62
1, 42758, Note_off_c, 0, 74, 62
1, 42760, Note_on_c, 0, 71, 74
1, 42765, Note_on_c, 0, 75, 61
1, 42766, Note_on_c, 0, 59, 51
1, 42798, Note_off_c, 0, 59, 63
1, 42802, Control_c, 0, 64, 115
1, 42805, Note_off_c, 0, 71, 47
1, 42821, Note_off_c, 0, 51, 45
1, 42826, Note_off_c, 0, 75, 64
1, 42835, Note_on_c, 0, 73, 72
1, 42844, Note_on_c, 0, 76, 63
1, 42846, Control_c, 0, 64, 114
1, 42861, Control_c, 0, 64, 110
1, 42876, Control_c, 0, 64, 106
1, 42885, Note_off_c, 0, 73, 61
1, 42889, Note_on_c, 0, 75, 64
1, 42891, Control_c, 0, 64, 100
1, 42894, Note_on_c, 0, 49, 57
1, 42896, Note_off_c, 0, 76, 60
1, 42897, Note_on_c, 0, 71, 73
1, 42906, Control_c, 0, 64, 92
1, 42921, Control_c, 0, 64, 82
1, 42936, Control_c, 0, 64, 67
1, 42941, Note_off_c, 0, 75, 58
1, 42943, Note_off_c, 0, 71, 63
1, 42947, Note_on_c, 0, 74, 64
1, 42951, Control_c, 0, 64, 44
1, 42956, Note_on_c, 0, 70, 75
1, 42966, Control_c, 0, 64, 0
1, 43014, Note_off_c, 0, 49, 60
1, 43015, Note_off_c, 0, 70, 62
1, 43018, Note_on_c, 0, 75, 63
1, 43020, Note_off_c, 0, 74, 62
1, 43024, Note_on_c, 0, 47, 61
1, 43024, Note_on_c, 0, 71, 75
1, 43074, Note_off_c, 0, 71, 64
1, 43086, Note_off_c, 0, 75, 62
1, 43097, Note_on_c, 0, 73, 67
1, 43100, Note_on_c, 0, 76, 56
1, 43145, Control_c, 0, 64, 54
1, 43151, Note_off_c, 0, 73, 62
1, 43152, Note_on_c, 0, 75, 65
1, 43157, Note_off_c, 0, 76, 60
1, 43159, Control_c, 0, 64, 65
1, 43162, Note_on_c, 0, 71, 69
1, 43167, Note_on_c, 0, 51, 46
1, 43174, Control_c, 0, 64, 73
1, 43189, Control_c, 0, 64, 82
1, 43204, Control_c, 0, 64, 89
1, 43210, Note_off_c, 0, 71, 63
1, 43216, Note_on_c, 0, 74, 66
1, 43219, Control_c, 0, 64, 93
1, 43224, Note_off_c, 0, 75, 56
1, 43227, Note_on_c, 0, 70, 70
1, 43234, Control_c, 0, 64, 96
1, 43248, Control_c, 0, 64, 98
1, 43263, Control_c, 0, 64, 99
1, 43278, Control_c, 0, 64, 99
1, 43287, Note_on_c, 0, 75, 56
1, 43289, Note_off_c, 0, 70, 62
1, 43291, Note_on_c, 0, 59, 60
1, 43303, Note_off_c, 0, 74, 62
1, 43306, Note_on_c, 0, 71, 73
1, 43306, Note_off_c, 0, 51, 61
1, 43311, Note_off_c, 0, 59, 62
1, 43353, Note_off_c, 0, 71, 62
1, 43355, Note_off_c, 0, 75, 61
1, 43356, Note_off_c, 0, 47, 51
1, 43361, Note_on_c, 0, 76, 70
1, 43389, Control_c, 0, 64, 99
1, 43401, Note_on_c, 0, 73, 69
1, 43404, Control_c, 0, 64, 95
1, 43407, Note_off_c, 0, 76, 62
1, 43418, Note_on_c, 0, 75, 44
1, 43419, Control_c, 0, 64, 87
1, 43434, Control_c, 0, 64, 77
1, 43434, Note_off_c, 0, 73, 62
1, 43443, Note_on_c, 0, 39, 58
1, 43448, Control_c, 0, 64, 65
1, 43455, Note_on_c, 0, 71, 64
1, 43463, Note_off_c, 0, 75, 64
1, 43463, Control_c, 0, 64, 28
1, 43478, Control_c, 0, 64, 0
1, 43493, Note_off_c, 0, 71, 60
1, 43501, Note_on_c, 0, 74, 62
1, 43535, Note_on_c, 0, 70, 56
1, 43552, Note_off_c, 0, 74, 58
1, 43568, Note_on_c, 0, 44, 62
1, 43574, Note_off_c, 0, 39, 59
1, 43596, Control_c, 0, 64, 54
1, 43598, Note_off_c, 0, 70, 62
1, 43598, Note_on_c, 0, 75, 63
1, 43607, Note_off_c, 0, 44, 61
1, 43611, Control_c, 0, 64, 67
1, 43614, Note_on_c, 0, 71, 59
1, 43626, Control_c, 0, 64, 76
1, 43641, Control_c, 0, 64, 88
1, 43655, Control_c, 0, 64, 96
1, 43670, Control_c, 0, 64, 102
1, 43685, Control_c, 0, 64, 107
1, 43690, Note_off_c, 0, 71, 62
1, 43697, Note_off_c, 0, 75, 58
1, 43699, Control_c, 0, 64, 115
1, 43711, Note_on_c, 0, 76, 61
1, 43714, Note_on_c, 0, 73, 57
1, 43714, Control_c, 0, 64, 127
1, 43814, Note_off_c, 0, 76, 59
1, 43824, Note_off_c, 0, 73, 61
1, 43837, Note_on_c, 0, 68, 58
1, 43841, Note_on_c, 0, 77, 51
1, 43842, Note_on_c, 0, 63, 48
1, 43848, Note_on_c, 0, 74, 55
1, 43867, Note_on_c, 0, 59, 38
1, 43879, Note_off_c, 0, 77, 61
1, 43887, Note_off_c, 0, 74, 60
1, 43901, Note_off_c, 0, 59, 53
1, 43904, Note_off_c, 0, 68, 58
1, 43908, Note_off_c, 0, 63, 54
1, 43920, Note_on_c, 0, 78, 56
1, 43934, Note_on_c, 0, 75, 44
1, 43988, Note_off_c, 0, 78, 62
1, 43994, Note_off_c, 0, 75, 61
1, 44008, Note_on_c, 0, 79, 59
1, 44020, Note_on_c, 0, 68, 69
1, 44023, Note_on_c, 0, 76, 42
1, 44036, Note_on_c, 0, 63, 54
1, 44038, Note_on_c, 0, 59, 46
1, 44053, Note_off_c, 0, 76, 56
1, 44071, Note_off_c, 0, 68, 61
1, 44078, Note_off_c, 0, 59, 59
1, 44079, Note_off_c, 0, 79, 54
1, 44081, Note_on_c, 0, 80, 69
1, 44086, Note_off_c, 0, 63, 56
1, 44119, Note_on_c, 0, 77, 56
1, 44140, Note_off_c, 0, 77, 63
1, 44152, Note_off_c, 0, 80, 62
1, 44167, Note_on_c, 0, 81, 67
1, 44171, Note_on_c, 0, 78, 53
1, 44191, Note_on_c, 0, 66, 65
1, 44193, Note_on_c, 0, 59, 52
1, 44194, Note_off_c, 0, 78, 63
1, 44204, Note_on_c, 0, 63, 48
1, 44223, Note_off_c, 0, 66, 61
1, 44231, Note_off_c, 0, 81, 65
1, 44236, Note_on_c, 0, 79, 59
1, 44236, Note_on_c, 0, 82, 72
1, 44236, Note_off_c, 0, 59, 58
1, 44241, Control_c, 0, 64, 115
1, 44242, Note_off_c, 0, 63, 63
1, 44255, Control_c, 0, 64, 92
1, 44261, Note_off_c, 0, 79, 56
1, 44270, Control_c, 0, 64, 69
1, 44285, Control_c, 0, 64, 40
1, 44298, Note_on_c, 0, 80, 60
1, 44300, Control_c, 0, 64, 48
1, 44308, Note_on_c, 0, 83, 66
1, 44310, Note_on_c, 0, 66, 65
1, 44315, Control_c, 0, 64, 71
1, 44325, Note_off_c, 0, 82, 61
1, 44327, Note_on_c, 0, 63, 63
1, 44329, Control_c, 0, 64, 90
1, 44337, Note_on_c, 0, 59, 52
1, 44343, Note_off_c, 0, 66, 64
1, 44344, Control_c, 0, 64, 127
1, 44345, Note_off_c, 0, 80, 64
1, 44358, Note_on_c, 0, 81, 72
1, 44360, Note_off_c, 0, 83, 62
1, 44361, Note_off_c, 0, 59, 61
1, 44373, Note_on_c, 0, 84, 57
1, 44375, Note_off_c, 0, 63, 57
1, 44388, Note_off_c, 0, 81, 61
1, 44411, Note_off_c, 0, 84, 63
1, 44425, Note_on_c, 0, 85, 73
1, 44428, Note_on_c, 0, 82, 70
1, 44440, Note_on_c, 0, 59, 60
1, 44447, Note_on_c, 0, 64, 65
1, 44449, Note_on_c, 0, 56, 62
1, 44474, Note_off_c, 0, 64, 66
1, 44480, Note_off_c, 0, 56, 64
1, 44482, Note_off_c, 0, 85, 62
1, 44483, Note_off_c, 0, 59, 61
1, 44489, Note_on_c, 0, 83, 76
1, 44489, Note_off_c, 0, 82, 59
1, 44495, Note_on_c, 0, 86, 77
1, 44512, Note_off_c, 0, 83, 65
1, 44543, Note_off_c, 0, 86, 61
1, 44560, Note_on_c, 0, 87, 85
1, 44566, Note_on_c, 0, 64, 64
1, 44569, Note_on_c, 0, 56, 55
1, 44571, Note_on_c, 0, 84, 69
1, 44590, Note_on_c, 0, 59, 57
1, 44592, Note_off_c, 0, 84, 56
1, 44602, Note_off_c, 0, 64, 61
1, 44605, Note_off_c, 0, 56, 63
1, 44614, Note_off_c, 0, 59, 61
1, 44632, Note_on_c, 0, 88, 73
1, 44636, Note_on_c, 0, 85, 73
1, 44667, Note_off_c, 0, 87, 63
1, 44680, Note_on_c, 0, 56, 72
1, 44686, Note_off_c, 0, 85, 63
1, 44687, Note_on_c, 0, 63, 67
1, 44688, Note_on_c, 0, 59, 67
1, 44689, Note_on_c, 0, 89, 76
1, 44691, Note_off_c, 0, 88, 66
1, 44704, Note_on_c, 0, 86, 71
1, 44713, Note_off_c, 0, 59, 65
1, 44714, Note_off_c, 0, 63, 68
1, 44736, Note_off_c, 0, 56, 62
1, 44746, Note_off_c, 0, 89, 56
1, 44748, Note_off_c, 0, 86, 63
1, 44749, Note_on_c, 0, 90, 81
1, 44754, Note_on_c, 0, 87, 76
1, 44790, Control_c, 0, 64, 92
1, 44805, Control_c, 0, 64, 69
1, 44807, Note_off_c, 0, 90, 64
1, 44811, Note_on_c, 0, 63, 73
1, 44811, Note_on_c, 0, 59, 47
1, 44819, Note_on_c, 0, 91, 83
1, 44819, Control_c, 0, 64, 0
1, 44822, Note_off_c, 0, 87, 64
1, 44827, Note_on_c, 0, 88, 75
1, 44828, Note_on_c, 0, 56, 57
1, 44834, Control_c, 0, 64, 37
1, 44853, Note_off_c, 0, 63, 64
1, 44856, Control_c, 0, 64, 68
1, 44857, Note_off_c, 0, 88, 71
1, 44865, Note_off_c, 0, 56, 66
1, 44870, Note_off_c, 0, 59, 59
1, 44870, Control_c, 0, 64, 84
1, 44885, Control_c, 0, 64, 127
1, 44892, Note_off_c, 0, 91, 54
1, 44894, Note_on_c, 0, 92, 88
1, 44918, Note_on_c, 0, 89, 70
1, 44941, Note_on_c, 0, 56, 59
1, 44948, Note_on_c, 0, 61, 62
1, 44954, Note_off_c, 0, 92, 64
1, 44963, Note_on_c, 0, 93, 78
1, 44963, Note_off_c, 0, 89, 64
1, 44972, Note_off_c, 0, 61, 63
1, 44973, Note_on_c, 0, 90, 67
1, 44990, Note_on_c, 0, 51, 26
1, 44993, Note_off_c, 0, 90, 65
1, 44999, Note_off_c, 0, 56, 60
1, 45020, Control_c, 0, 64, 102
1, 45027, Note_on_c, 0, 94, 80
1, 45028, Note_off_c, 0, 93, 64
1, 45034, Note_off_c, 0, 51, 52
1, 45034, Control_c, 0, 64, 79
1, 45043, Note_on_c, 0, 91, 67
1, 45049, Control_c, 0, 64, 61
1, 45064, Control_c, 0, 64, 0
1, 45079, Note_on_c, 0, 61, 53
1, 45094, Note_on_c, 0, 95, 80
1, 45104, Note_off_c, 0, 91, 45
1, 45106, Note_on_c, 0, 92, 70
1, 45107, Note_off_c, 0, 94, 56
1, 45109, Control_c, 0, 64, 24
1, 45119, Note_on_c, 0, 56, 40
1, 45124, Control_c, 0, 64, 60
1, 45136, Note_off_c, 0, 61, 60
1, 45139, Control_c, 0, 64, 71
1, 45150, Note_off_c, 0, 56, 57
1, 45153, Control_c, 0, 64, 86
1, 45157, Poly_aftertouch_c, 0, 51, 127
1, 45168, Control_c, 0, 64, 104
1, 45183, Control_c, 0, 64, 127
1, 45184, Note_off_c, 0, 95, 60
1, 45222, Note_off_c, 0, 92, 56
1, 45228, Note_on_c, 0, 59, 66
1, 45231, Note_on_c, 0, 56, 59
1, 45232, Poly_aftertouch_c, 0, 51, 0
1, 45246, Note_on_c, 0, 51, 47
1, 45258, Note_off_c, 0, 59, 64
1, 45267, Note_off_c, 0, 56, 64
1, 45281, Note_off_c, 0, 51, 62
1, 45345, Control_c, 0, 64, 93
1, 45360, Control_c, 0, 64, 71
1, 45367, Note_on_c, 0, 59, 52
1, 45376, Note_on_c, 0, 51, 55
1, 45376, Control_c, 0, 64, 45
1, 45380, Note_on_c, 0, 56, 54
1, 45391, Control_c, 0, 64, 35
1, 45406, Control_c, 0, 64, 67
1, 45408, Note_off_c, 0, 59, 62
1, 45411, Note_off_c, 0, 56, 65
1, 45421, Control_c, 0, 64, 84
1, 45424, Note_off_c, 0, 51, 63
1, 45436, Control_c, 0, 64, 127
1, 45498, Note_on_c, 0, 58, 64
1, 45508, Note_on_c, 0, 49, 58
1, 45509, Control_c, 0, 64, 101
1, 45524, Control_c, 0, 64, 78
1, 45534, Note_off_c, 0, 58, 62
1, 45535, Note_on_c, 0, 51, 47
1, 45539, Control_c, 0, 64, 59
1, 45550, Note_off_c, 0, 49, 63
1, 45554, Control_c, 0, 64, 23
1, 45559, Note_off_c, 0, 51, 60
1, 45568, Control_c, 0, 64, 41
1, 45583, Control_c, 0, 64, 61
1, 45606, Control_c, 0, 64, 75
1, 45621, Control_c, 0, 64, 96
1, 45636, Control_c, 0, 64, 127
1, 45649, Note_on_c, 0, 58, 58
1, 45652, Note_on_c, 0, 49, 57
1, 45654, Note_on_c, 0, 51, 48
1, 45680, Control_c, 0, 64, 103
1, 45690, Note_off_c, 0, 58, 64
1, 45693, Note_off_c, 0, 49, 60
1, 45694, Control_c, 0, 64, 74
1, 45697, Note_off_c, 0, 51, 60
1, 45709, Control_c, 0, 64, 56
1, 45724, Control_c, 0, 64, 60
1, 45739, Control_c, 0, 64, 74
1, 45754, Control_c, 0, 64, 92
1, 45768, Control_c, 0, 64, 127
1, 45802, Note_on_c, 0, 56, 58
1, 45815, Note_on_c, 0, 47, 41
1, 45816, Note_on_c, 0, 51, 42
1, 45893, Note_off_c, 0, 56, 33
1, 45951, Note_off_c, 0, 51, 35
1, 45961, Control_c, 0, 64, 113
1, 45976, Control_c, 0, 64, 91
1, 45991, Control_c, 0, 64, 74
1, 46000, Note_off_c, 0, 47, 44
1, 46006, Control_c, 0, 64, 57
1, 46021, Control_c, 0, 64, 0
1, 46024, Note_on_c, 0, 44, 42
1, 46048, Note_on_c, 0, 78, 43
1, 46052, Note_on_c, 0, 75, 40
1, 46090, Note_off_c, 0, 78, 62
1, 46092, Note_off_c, 0, 75, 59
1, 46109, Control_c, 0, 64, 19
1, 46117, Note_on_c, 0, 80, 55
1, 46124, Control_c, 0, 64, 57
1, 46137, Note_on_c, 0, 76, 32
1, 46139, Control_c, 0, 64, 68
1, 46154, Control_c, 0, 64, 77
1, 46170, Control_c, 0, 64, 90
1, 46183, Note_off_c, 0, 80, 56
1, 46185, Control_c, 0, 64, 98
1, 46186, Note_off_c, 0, 76, 46
1, 46191, Note_off_c, 0, 44, 31
1, 46199, Note_on_c, 0, 75, 51
1, 46199, Control_c, 0, 64, 112
1, 46200, Note_on_c, 0, 51, 45
1, 46203, Note_on_c, 0, 78, 56
1, 46214, Control_c, 0, 64, 127
1, 46233, Note_off_c, 0, 75, 64
1, 46249, Note_off_c, 0, 78, 57
1, 46276, Note_on_c, 0, 80, 52
1, 46283, Note_on_c, 0, 76, 52
1, 46313, Note_off_c, 0, 76, 55
1, 46327, Note_off_c, 0, 80, 60
1, 46343, Note_on_c, 0, 60, 56
1, 46348, Note_on_c, 0, 78, 66
1, 46355, Note_on_c, 0, 75, 36
1, 46365, Note_off_c, 0, 60, 62
1, 46386, Note_off_c, 0, 78, 58
1, 46393, Note_off_c, 0, 75, 50
1, 46395, Note_off_c, 0, 51, 49
1, 46408, Note_on_c, 0, 76, 60
1, 46427, Note_on_c, 0, 80, 53
1, 46444, Control_c, 0, 64, 112
1, 46453, Note_off_c, 0, 76, 57
1, 46459, Control_c, 0, 64, 93
1, 46473, Control_c, 0, 64, 75
1, 46474, Note_off_c, 0, 80, 59
1, 46486, Note_on_c, 0, 78, 63
1, 46487, Note_on_c, 0, 75, 43
1, 46488, Control_c, 0, 64, 55
1, 46490, Note_on_c, 0, 43, 56
1, 46503, Control_c, 0, 64, 0
1, 46519, Note_off_c, 0, 78, 63
1, 46528, Note_off_c, 0, 75, 61
1, 46555, Note_on_c, 0, 80, 55
1, 46561, Note_on_c, 0, 76, 57
1, 46590, Note_off_c, 0, 43, 56
1, 46596, Note_off_c, 0, 80, 62
1, 46599, Note_off_c, 0, 76, 63
1, 46620, Note_on_c, 0, 78, 59
1, 46621, Control_c, 0, 64, 38
1, 46627, Note_on_c, 0, 75, 54
1, 46632, Note_on_c, 0, 44, 48
1, 46636, Control_c, 0, 64, 55
1, 46650, Control_c, 0, 64, 60
1, 46656, Note_off_c, 0, 78, 61
1, 46665, Control_c, 0, 64, 62
1, 46671, Note_off_c, 0, 75, 61
1, 46680, Control_c, 0, 64, 65
1, 46694, Note_on_c, 0, 80, 62
1, 46695, Control_c, 0, 64, 72
1, 46699, Note_on_c, 0, 76, 54
1, 46710, Control_c, 0, 64, 80
1, 46725, Control_c, 0, 64, 86
1, 46730, Note_off_c, 0, 80, 59
1, 46740, Control_c, 0, 64, 89
1, 46742, Note_off_c, 0, 76, 63
1, 46743, Note_off_c, 0, 44, 54
1, 46754, Control_c, 0, 64, 92
1, 46765, Note_on_c, 0, 78, 56
1, 46769, Control_c, 0, 64, 97
1, 46772, Note_on_c, 0, 75, 52
1, 46783, Note_on_c, 0, 51, 49
1, 46784, Control_c, 0, 64, 106
1, 46796, Note_off_c, 0, 78, 54
1, 46799, Control_c, 0, 64, 116
1, 46808, Note_off_c, 0, 75, 61
1, 46814, Control_c, 0, 64, 125
1, 46829, Control_c, 0, 64, 127
1, 46830, Note_on_c, 0, 80, 67
1, 46857, Note_on_c, 0, 76, 46
1, 46860, Note_off_c, 0, 80, 60
1, 46883, Note_off_c, 0, 76, 58
1, 46892, Note_on_c, 0, 78, 56
1, 46898, Note_on_c, 0, 75, 61
1, 46902, Note_on_c, 0, 60, 62
1, 46930, Note_off_c, 0, 60, 66
1, 46951, Note_off_c, 0, 75, 56
1, 46956, Note_off_c, 0, 78, 61
1, 46960, Note_off_c, 0, 51, 54
1, 46966, Note_on_c, 0, 80, 58
1, 46969, Note_on_c, 0, 76, 61
1, 46993, Control_c, 0, 64, 119
1, 47005, Note_off_c, 0, 80, 59
1, 47008, Control_c, 0, 64, 108
1, 47022, Control_c, 0, 64, 95
1, 47033, Note_off_c, 0, 76, 61
1, 47037, Note_on_c, 0, 39, 70
1, 47037, Control_c, 0, 64, 82
1, 47050, Note_on_c, 0, 78, 41
1, 47052, Control_c, 0, 64, 67
1, 47056, Note_on_c, 0, 75, 49
1, 47066, Control_c, 0, 64, 38
1, 47079, Note_off_c, 0, 78, 55
1, 47081, Control_c, 0, 64, 0
1, 47114, Note_on_c, 0, 80, 68
1, 47116, Note_off_c, 0, 75, 61
1, 47141, Note_on_c, 0, 76, 50
1, 47148, Control_c, 0, 64, 27
1, 47163, Control_c, 0, 64, 55
1, 47169, Note_off_c, 0, 80, 57
1, 47178, Control_c, 0, 64, 66
1, 47187, Note_on_c, 0, 78, 54
1, 47190, Note_off_c, 0, 39, 57
1, 47193, Control_c, 0, 64, 75
1, 47197, Note_on_c, 0, 44, 55
1, 47208, Control_c, 0, 64, 86
1, 47213, Note_on_c, 0, 75, 49
1, 47216, Note_off_c, 0, 76, 0
1, 47222, Control_c, 0, 64, 93
1, 47224, Note_off_c, 0, 78, 62
1, 47237, Control_c, 0, 64, 96
1, 47252, Control_c, 0, 64, 101
1, 47254, Poly_aftertouch_c, 0, 76, 127
1, 47266, Control_c, 0, 64, 110
1, 47270, Note_off_c, 0, 75, 50
1, 47272, Note_on_c, 0, 80, 71
1, 47281, Control_c, 0, 64, 127
1, 47315, Note_on_c, 0, 78, 60
1, 47328, Poly_aftertouch_c, 0, 76, 0
1, 47330, Note_off_c, 0, 80, 62
1, 47336, Note_on_c, 0, 75, 42
1, 47347, Note_on_c, 0, 51, 51
1, 47354, Note_off_c, 0, 44, 37
1, 47368, Note_off_c, 0, 78, 62
1, 47376, Note_off_c, 0, 75, 64
1, 47379, Note_on_c, 0, 74, 66
1, 47388, Note_on_c, 0, 77, 58
1, 47433, Note_off_c, 0, 74, 49
1, 47452, Note_off_c, 0, 77, 61
1, 47455, Note_on_c, 0, 78, 67
1, 47465, Note_on_c, 0, 75, 62
1, 47473, Note_on_c, 0, 60, 49
1, 47499, Note_off_c, 0, 60, 61
1, 47509, Note_off_c, 0, 75, 57
1, 47525, Note_off_c, 0, 78, 64
1, 47526, Note_on_c, 0, 76, 65
1, 47552, Note_on_c, 0, 80, 53
1, 47553, Note_off_c, 0, 76, 62
1, 47560, Note_off_c, 0, 51, 32
1, 47586, Note_off_c, 0, 80, 65
1, 47589, Note_on_c, 0, 78, 63
1, 47598, Note_on_c, 0, 75, 65
1, 47608, Note_on_c, 0, 49, 61
1, 47622, Control_c, 0, 64, 120
1, 47637, Control_c, 0, 64, 103
1, 47644, Note_off_c, 0, 78, 62
1, 47652, Control_c, 0, 64, 86
1, 47653, Note_off_c, 0, 75, 61
1, 47660, Note_on_c, 0, 77, 64
1, 47666, Control_c, 0, 64, 69
1, 47667, Note_on_c, 0, 74, 61
1, 47681, Control_c, 0, 64, 41
1, 47696, Control_c, 0, 64, 0
1, 47699, Note_off_c, 0, 74, 61
1, 47723, Note_off_c, 0, 49, 59
1, 47729, Note_on_c, 0, 78, 62
1, 47738, Note_on_c, 0, 48, 59
1, 47747, Note_on_c, 0, 75, 54
1, 47785, Note_off_c, 0, 77, 40
1, 47786, Control_c, 0, 64, 40
1, 47798, Note_off_c, 0, 78, 64
1, 47801, Control_c, 0, 64, 62
1, 47802, Note_off_c, 0, 75, 62
1, 47807, Note_on_c, 0, 80, 66
1, 47816, Control_c, 0, 64, 68
1, 47821, Note_on_c, 0, 76, 55
1, 47837, Control_c, 0, 64, 74
1, 47850, Note_off_c, 0, 76, 61
1, 47852, Control_c, 0, 64, 80
1, 47867, Control_c, 0, 64, 85
1, 47875, Note_on_c, 0, 78, 67
1, 47875, Note_off_c, 0, 80, 63
1, 47882, Control_c, 0, 64, 91
1, 47894, Note_on_c, 0, 75, 58
1, 47896, Control_c, 0, 64, 96
1, 47901, Note_on_c, 0, 51, 52
1, 47911, Control_c, 0, 64, 100
1, 47921, Note_off_c, 0, 78, 60
1, 47926, Control_c, 0, 64, 104
1, 47937, Note_off_c, 0, 75, 60
1, 47938, Note_on_c, 0, 77, 57
1, 47941, Control_c, 0, 64, 107
1, 47945, Note_on_c, 0, 74, 67
1, 47956, Control_c, 0, 64, 111
1, 47971, Control_c, 0, 64, 113
1, 47986, Control_c, 0, 64, 114
1, 47998, Note_off_c, 0, 74, 59
1, 48005, Note_on_c, 0, 78, 74
1, 48022, Note_on_c, 0, 60, 59
1, 48031, Note_off_c, 0, 77, 61
1, 48039, Note_on_c, 0, 75, 60
1, 48042, Note_off_c, 0, 60, 63
1, 48049, Note_off_c, 0, 51, 61
1, 48074, Note_off_c, 0, 48, 55
1, 48076, Note_off_c, 0, 78, 63
1, 48080, Note_on_c, 0, 80, 70
1, 48084, Note_off_c, 0, 75, 61
1, 48098, Note_on_c, 0, 76, 69
1, 48105, Control_c, 0, 64, 113
1, 48120, Control_c, 0, 64, 108
1, 48132, Note_off_c, 0, 80, 61
1, 48135, Control_c, 0, 64, 101
1, 48138, Note_off_c, 0, 76, 58
1, 48149, Control_c, 0, 64, 91
1, 48151, Note_on_c, 0, 78, 66
1, 48158, Note_on_c, 0, 75, 62
1, 48162, Note_on_c, 0, 39, 71
1, 48164, Control_c, 0, 64, 73
1, 48179, Control_c, 0, 64, 54
1, 48187, Note_off_c, 0, 78, 66
1, 48194, Control_c, 0, 64, 0
1, 48227, Note_off_c, 0, 75, 36
1, 48237, Note_on_c, 0, 77, 64
1, 48242, Note_on_c, 0, 74, 65
1, 48283, Control_c, 0, 64, 30
1, 48291, Note_off_c, 0, 39, 51
1, 48291, Note_off_c, 0, 74, 57
1, 48297, Control_c, 0, 64, 61
1, 48297, Control_c, 0, 67, 126
1, 48304, Note_on_c, 0, 44, 60
1, 48312, Control_c, 0, 64, 70
1, 48312, Control_c, 0, 67, 122
1, 48318, Note_off_c, 0, 77, 65
1, 48327, Control_c, 0, 64, 80
1, 48327, Control_c, 0, 67, 116
1, 48331, Note_on_c, 0, 78, 62
1, 48336, Note_off_c, 0, 44, 63
1, 48338, Note_on_c, 0, 75, 60
1, 48342, Control_c, 0, 64, 92
1, 48342, Control_c, 0, 67, 106
1, 48357, Control_c, 0, 64, 105
1, 48357, Control_c, 0, 67, 92
1, 48371, Control_c, 0, 64, 127
1, 48371, Control_c, 0, 67, 73
1, 48386, Control_c, 0, 67, 57
1, 48401, Control_c, 0, 67, 44
1, 48415, Control_c, 0, 67, 37
1, 48430, Control_c, 0, 67, 33
1, 48438, Note_off_c, 0, 75, 59
1, 48438, Note_off_c, 0, 78, 61
1, 48445, Note_on_c, 0, 76, 61
1, 48445, Control_c, 0, 67, 31
1, 48460, Control_c, 0, 67, 28
1, 48464, Note_on_c, 0, 79, 56
1, 48475, Control_c, 0, 67, 27
1, 48489, Control_c, 0, 67, 26
1, 48491, Note_off_c, 0, 76, 56
1, 48519, Control_c, 0, 67, 26
1, 48534, Control_c, 0, 67, 25
1, 48549, Control_c, 0, 67, 25
1, 48565, Note_off_c, 0, 79, 60
1, 48565, Control_c, 0, 67, 24
1, 48580, Control_c, 0, 67, 23
1, 48582, Note_on_c, 0, 75, 71
1, 48582, Note_on_c, 0, 80, 63
1, 48612, Note_on_c, 0, 66, 47
1, 48613, Note_on_c, 0, 77, 53
1, 48616, Note_on_c, 0, 68, 50
1, 48617, Control_c, 0, 67, 23
1, 48632, Control_c, 0, 67, 22
1, 48647, Control_c, 0, 67, 22
1, 48651, Note_off_c, 0, 66, 55
1, 48653, Note_off_c, 0, 77, 62
1, 48655, Note_off_c, 0, 68, 61
1, 48661, Control_c, 0, 67, 20
1, 48662, Note_off_c, 0, 75, 48
1, 48676, Control_c, 0, 67, 18
1, 48677, Note_off_c, 0, 80, 61
1, 48689, Note_on_c, 0, 78, 53
1, 48691, Control_c, 0, 67, 17
1, 48692, Note_on_c, 0, 81, 64
1, 48706, Control_c, 0, 67, 15
1, 48719, Control_c, 0, 67, 14
1, 48731, Note_off_c, 0, 78, 61
1, 48734, Control_c, 0, 67, 12
1, 48749, Control_c, 0, 67, 11
1, 48760, Note_off_c, 0, 81, 62
1, 48764, Control_c, 0, 67, 9
1, 48772, Note_on_c, 0, 75, 73
1, 48778, Note_on_c, 0, 79, 62
1, 48779, Control_c, 0, 67, 0
1, 48781, Note_on_c, 0, 66, 62
1, 48793, Note_on_c, 0, 82, 54
1, 48807, Note_on_c, 0, 68, 42
1, 48820, Note_off_c, 0, 79, 58
1, 48824, Note_off_c, 0, 75, 59
1, 48850, Note_off_c, 0, 68, 49
1, 48853, Note_on_c, 0, 80, 58
1, 48855, Note_off_c, 0, 66, 60
1, 48866, Note_on_c, 0, 83, 60
1, 48875, Note_off_c, 0, 82, 40
1, 48911, Note_off_c, 0, 80, 62
1, 48912, Note_off_c, 0, 83, 62
1, 48927, Note_on_c, 0, 81, 66
1, 48936, Note_on_c, 0, 84, 54
1, 48938, Note_on_c, 0, 73, 64
1, 48940, Note_on_c, 0, 64, 62
1, 48946, Note_on_c, 0, 68, 52
1, 48963, Note_off_c, 0, 81, 58
1, 48978, Note_off_c, 0, 73, 59
1, 48979, Note_off_c, 0, 84, 61
1, 48985, Note_off_c, 0, 68, 63
1, 48988, Note_on_c, 0, 82, 68
1, 48997, Note_off_c, 0, 64, 59
1, 49000, Note_on_c, 0, 85, 62
1, 49040, Note_off_c, 0, 85, 61
1, 49045, Control_c, 0, 64, 110
1, 49059, Note_off_c, 0, 82, 63
1, 49060, Control_c, 0, 64, 85
1, 49067, Note_on_c, 0, 83, 74
1, 49068, Note_on_c, 0, 73, 82
1, 49075, Control_c, 0, 64, 65
1, 49079, Note_on_c, 0, 68, 62
1, 49079, Note_on_c, 0, 86, 57
1, 49084, Note_on_c, 0, 64, 59
1, 49090, Control_c, 0, 64, 53
1, 49091, Note_off_c, 0, 83, 66
1, 49105, Control_c, 0, 64, 71
1, 49118, Note_off_c, 0, 86, 60
1, 49119, Control_c, 0, 64, 116
1, 49134, Control_c, 0, 64, 127
1, 49142, Note_off_c, 0, 73, 54
1, 49148, Note_on_c, 0, 87, 77
1, 49160, Note_on_c, 0, 84, 71
1, 49203, Note_off_c, 0, 84, 57
1, 49204, Note_off_c, 0, 64, 35
1, 49207, Note_on_c, 0, 72, 80
1, 49217, Note_on_c, 0, 63, 66
1, 49217, Note_off_c, 0, 68, 0
1, 49218, Note_on_c, 0, 88, 68
1, 49222, Note_on_c, 0, 66, 67
1, 49229, Note_on_c, 0, 85, 67
1, 49238, Note_off_c, 0, 87, 48
1, 49252, Note_off_c, 0, 63, 62
1, 49252, Note_off_c, 0, 72, 53
1, 49253, Poly_aftertouch_c, 0, 68, 127
1, 49261, Note_off_c, 0, 85, 64
1, 49270, Note_off_c, 0, 66, 57
1, 49272, Note_off_c, 0, 88, 64
1, 49276, Note_on_c, 0, 89, 80
1, 49288, Poly_aftertouch_c, 0, 68, 0
1, 49290, Note_on_c, 0, 86, 76
1, 49322, Note_off_c, 0, 86, 55
1, 49356, Note_on_c, 0, 90, 77
1, 49357, Note_off_c, 0, 89, 62
1, 49357, Note_on_c, 0, 72, 75
1, 49357, Note_on_c, 0, 87, 75
1, 49363, Note_on_c, 0, 63, 72
1, 49364, Note_on_c, 0, 66, 65
1, 49382, Note_off_c, 0, 72, 68
1, 49386, Note_off_c, 0, 90, 60
1, 49396, Note_off_c, 0, 87, 54
1, 49398, Note_off_c, 0, 63, 65
1, 49400, Note_off_c, 0, 66, 65
1, 49431, Note_on_c, 0, 88, 69
1, 49431, Note_on_c, 0, 91, 76
1, 49448, Note_off_c, 0, 88, 62
1, 49458, Note_on_c, 0, 89, 45
1, 49460, Note_off_c, 0, 91, 60
1, 49481, Note_on_c, 0, 69, 70
1, 49488, Note_on_c, 0, 92, 87
1, 49490, Note_on_c, 0, 64, 58
1, 49497, Note_on_c, 0, 61, 59
1, 49505, Note_off_c, 0, 89, 41
1, 49515, Note_off_c, 0, 69, 58
1, 49524, Note_on_c, 0, 90, 78
1, 49524, Note_off_c, 0, 64, 65
1, 49529, Note_off_c, 0, 61, 63
1, 49545, Note_on_c, 0, 93, 78
1, 49547, Note_off_c, 0, 92, 64
1, 49559, Note_off_c, 0, 90, 61
1, 49573, Note_off_c, 0, 93, 63
1, 49631, Control_c, 0, 64, 113
1, 49646, Control_c, 0, 64, 94
1, 49661, Control_c, 0, 64, 73
1, 49676, Control_c, 0, 64, 46
1, 49679, Note_on_c, 0, 99, 77
1, 49689, Note_on_c, 0, 69, 45
1, 49691, Control_c, 0, 64, 0
1, 49691, Note_on_c, 0, 90, 52
1, 49693, Note_on_c, 0, 60, 40
1, 49709, Note_on_c, 0, 63, 36
1, 49720, Note_off_c, 0, 69, 62
1, 49735, Control_c, 0, 64, 43
1, 49740, Note_off_c, 0, 63, 60
1, 49741, Note_off_c, 0, 60, 51
1, 49750, Control_c, 0, 64, 64
1, 49765, Control_c, 0, 64, 76
1, 49780, Control_c, 0, 64, 99
1, 49794, Note_off_c, 0, 90, 52
1, 49795, Control_c, 0, 64, 127
1, 49834, Note_off_c, 0, 99, 62
1, 49841, Note_on_c, 0, 60, 54
1, 49841, Note_on_c, 0, 63, 54
1, 49852, Note_on_c, 0, 68, 56
1, 49882, Note_off_c, 0, 68, 66
1, 49883, Note_off_c, 0, 60, 60
1, 49899, Note_off_c, 0, 63, 59
1, 49987, Note_on_c, 0, 68, 50
1, 49994, Note_on_c, 0, 63, 60
1, 49998, Note_on_c, 0, 60, 48
1, 50016, Note_off_c, 0, 68, 66
1, 50025, Note_off_c, 0, 63, 65
1, 50027, Note_off_c, 0, 60, 63
1, 50113, Note_on_c, 0, 66, 68
1, 50120, Note_on_c, 0, 57, 60
1, 50155, Note_on_c, 0, 61, 44
1, 50166, Note_off_c, 0, 57, 61
1, 50167, Note_off_c, 0, 66, 59
1, 50184, Note_off_c, 0, 61, 58
1, 50218, Control_c, 0, 64, 113
1, 50233, Control_c, 0, 64, 83
1, 50247, Control_c, 0, 64, 63
1, 50260, Note_on_c, 0, 57, 62
1, 50262, Control_c, 0, 64, 59
1, 50268, Note_on_c, 0, 66, 57
1, 50277, Control_c, 0, 64, 79
1, 50278, Note_on_c, 0, 61, 50
1, 50291, Control_c, 0, 64, 127
1, 50302, Note_off_c, 0, 66, 64
1, 50310, Note_off_c, 0, 57, 60
1, 50311, Note_off_c, 0, 61, 63
1, 50389, Note_on_c, 0, 64, 72
1, 50397, Note_on_c, 0, 56, 60
1, 50402, Note_on_c, 0, 61, 62
1, 50436, Note_off_c, 0, 61, 61
1, 50440, Note_off_c, 0, 56, 62
1, 50440, Note_off_c, 0, 64, 58
1, 50513, Control_c, 0, 64, 90
1, 50528, Control_c, 0, 64, 69
1, 50538, Note_on_c, 0, 61, 46
1, 50543, Control_c, 0, 64, 30
1, 50550, Note_on_c, 0, 64, 57
1, 50556, Note_on_c, 0, 56, 55
1, 50558, Control_c, 0, 64, 30
1, 50573, Control_c, 0, 64, 56
1, 50581, Note_off_c, 0, 64, 66
1, 50588, Control_c, 0, 64, 68
1, 50603, Control_c, 0, 64, 88
1, 50606, Note_off_c, 0, 56, 60
1, 50612, Note_off_c, 0, 61, 58
1, 50618, Control_c, 0, 64, 127
1, 50722, Note_on_c, 0, 63, 64
1, 50741, Note_on_c, 0, 54, 53
1, 50749, Note_on_c, 0, 56, 42
1, 50766, Note_off_c, 0, 63, 61
1, 50803, Note_off_c, 0, 54, 57
1, 50803, Note_off_c, 0, 56, 62
1, 50951, Control_c, 0, 64, 101
1, 50966, Control_c, 0, 64, 79
1, 50981, Control_c, 0, 64, 57
1, 50996, Control_c, 0, 64, 0
1, 50998, Note_on_c, 0, 37, 61
1, 51016, Note_on_c, 0, 97, 58
1, 51031, Note_on_c, 0, 100, 53
1, 51041, Control_c, 0, 64, 29
1, 51052, Note_off_c, 0, 37, 60
1, 51056, Control_c, 0, 64, 67
1, 51070, Control_c, 0, 64, 127
1, 51086, Note_off_c, 0, 100, 56
1, 51093, Note_off_c, 0, 97, 62
1, 51110, Note_on_c, 0, 95, 57
1, 51112, Note_on_c, 0, 99, 56
1, 51157, Note_off_c, 0, 95, 60
1, 51160, Note_off_c, 0, 99, 59
1, 51201, Note_on_c, 0, 97, 62
1, 51202, Note_on_c, 0, 100, 54
1, 51215, Note_on_c, 0, 49, 61
1, 51256, Note_off_c, 0, 100, 63
1, 51260, Note_on_c, 0, 95, 70
1, 51267, Note_on_c, 0, 99, 49
1, 51269, Note_off_c, 0, 97, 62
1, 51285, Note_off_c, 0, 95, 71
1, 51294, Note_off_c, 0, 99, 54
1, 51335, Note_on_c, 0, 97, 68
1, 51348, Note_on_c, 0, 94, 61
1, 51348, Note_on_c, 0, 56, 71
1, 51385, Note_off_c, 0, 94, 59
1, 51386, Note_off_c, 0, 49, 35
1, 51391, Note_on_c, 0, 95, 71
1, 51400, Note_off_c, 0, 97, 63
1, 51406, Note_on_c, 0, 92, 76
1, 51437, Note_off_c, 0, 92, 62
1, 51467, Note_on_c, 0, 94, 78
1, 51477, Note_off_c, 0, 95, 59
1, 51479, Note_on_c, 0, 97, 70
1, 51480, Note_on_c, 0, 63, 76
1, 51522, Note_off_c, 0, 94, 66
1, 51529, Note_on_c, 0, 92, 77
1, 51530, Note_off_c, 0, 97, 64
1, 51560, Note_off_c, 0, 92, 62
1, 51571, Note_off_c, 0, 56, 61
1, 51597, Note_off_c, 0, 63, 59
1, 51618, Note_on_c, 0, 64, 86
1, 51620, Note_on_c, 0, 90, 70
1, 51625, Note_on_c, 0, 94, 75
1, 51683, Note_off_c, 0, 94, 65
1, 51685, Note_on_c, 0, 88, 78
1, 51688, Note_off_c, 0, 90, 63
1, 51702, Note_on_c, 0, 92, 59
1, 51738, Note_off_c, 0, 88, 61
1, 51750, Note_on_c, 0, 61, 88
1, 51762, Note_on_c, 0, 94, 72
1, 51776, Note_off_c, 0, 64, 67
1, 51777, Note_on_c, 0, 90, 72
1, 51810, Note_off_c, 0, 94, 65
1, 51813, Note_off_c, 0, 90, 64
1, 51816, Note_on_c, 0, 88, 73
1, 51825, Note_off_c, 0, 92, 34
1, 51850, Note_off_c, 0, 88, 63
1, 51898, Note_on_c, 0, 87, 59
1, 51899, Note_on_c, 0, 90, 67
1, 51901, Note_on_c, 0, 68, 96
1, 51923, Note_off_c, 0, 61, 64
1, 51937, Note_off_c, 0, 87, 47
1, 51960, Note_off_c, 0, 90, 64
1, 51961, Note_on_c, 0, 88, 68
1, 51966, Note_on_c, 0, 85, 72
1, 52014, Note_off_c, 0, 85, 63
1, 52036, Note_on_c, 0, 87, 70
1, 52045, Note_on_c, 0, 90, 69
1, 52046, Note_on_c, 0, 70, 88
1, 52050, Note_off_c, 0, 88, 55
1, 52076, Note_off_c, 0, 68, 61
1, 52090, Note_off_c, 0, 87, 62
1, 52094, Note_off_c, 0, 90, 64
1, 52104, Note_on_c, 0, 85, 75
1, 52116, Control_c, 0, 64, 109
1, 52130, Control_c, 0, 64, 87
1, 52145, Control_c, 0, 64, 66
1, 52146, Note_off_c, 0, 85, 46
1, 52160, Control_c, 0, 64, 0
1, 52204, Note_on_c, 0, 87, 63
1, 52211, Note_on_c, 0, 71, 77
1, 52214, Note_on_c, 0, 83, 45
1, 52234, Control_c, 0, 64, 52
1, 52248, Note_off_c, 0, 71, 59
1, 52249, Control_c, 0, 64, 79
1, 52262, Note_off_c, 0, 70, 62
1, 52263, Control_c, 0, 64, 127
1, 52275, Note_off_c, 0, 83, 61
1, 52291, Note_on_c, 0, 82, 68
1, 52295, Note_off_c, 0, 87, 62
1, 52305, Note_on_c, 0, 85, 60
1, 52334, Note_off_c, 0, 82, 58
1, 52357, Note_off_c, 0, 85, 61
1, 52386, Note_on_c, 0, 87, 53
1, 52398, Note_on_c, 0, 83, 53
1, 52421, Note_on_c, 0, 44, 70
1, 52439, Note_off_c, 0, 83, 62
1, 52443, Note_on_c, 0, 82, 65
1, 52445, Note_on_c, 0, 85, 61
1, 52456, Note_off_c, 0, 87, 62
1, 52469, Note_off_c, 0, 85, 65
1, 52490, Note_off_c, 0, 82, 64
1, 52526, Note_on_c, 0, 83, 71
1, 52555, Note_on_c, 0, 51, 65
1, 52572, Note_on_c, 0, 80, 38
1, 52600, Note_off_c, 0, 44, 38
1, 52600, Note_off_c, 0, 80, 58
1, 52603, Note_on_c, 0, 82, 74
1, 52607, Note_off_c, 0, 83, 61
1, 52623, Note_on_c, 0, 78, 61
1, 52657, Note_off_c, 0, 78, 63
1, 52676, Note_off_c, 0, 82, 60
1, 52678, Note_on_c, 0, 80, 64
1, 52680, Note_on_c, 0, 83, 63
1, 52687, Note_on_c, 0, 58, 69
1, 52731, Note_on_c, 0, 78, 69
1, 52731, Note_off_c, 0, 83, 63
1, 52731, Note_off_c, 0, 80, 64
1, 52765, Note_off_c, 0, 78, 61
1, 52767, Note_off_c, 0, 58, 65
1, 52774, Control_c, 0, 64, 105
1, 52789, Control_c, 0, 64, 78
1, 52804, Control_c, 0, 64, 50
1, 52806, Note_on_c, 0, 76, 61
1, 52809, Note_on_c, 0, 59, 63
1, 52815, Note_on_c, 0, 80, 63
1, 52819, Control_c, 0, 64, 0
1, 52833, Control_c, 0, 64, 18
1, 52848, Control_c, 0, 64, 58
1, 52849, Note_off_c, 0, 59, 63
1, 52863, Control_c, 0, 64, 70
1, 52874, Note_on_c, 0, 78, 73
1, 52875, Note_off_c, 0, 51, 54
1, 52877, Control_c, 0, 64, 90
1, 52883, Note_off_c, 0, 80, 63
1, 52892, Control_c, 0, 64, 127
1, 52926, Note_off_c, 0, 76, 0
1, 52926, Note_on_c, 0, 76, 33
1, 52932, Note_off_c, 0, 78, 64
1, 52937, Note_on_c, 0, 80, 61
1, 52990, Note_on_c, 0, 78, 68
1, 53001, Note_off_c, 0, 76, 60
1, 53005, Note_on_c, 0, 75, 68
1, 53005, Note_off_c, 0, 80, 64
1, 53015, Note_off_c, 0, 78, 68
1, 53029, Note_off_c, 0, 75, 66
1, 53070, Note_on_c, 0, 76, 72
1, 53094, Note_on_c, 0, 73, 68
1, 53151, Note_off_c, 0, 73, 56
1, 53160, Note_off_c, 0, 76, 62
1, 53163, Note_on_c, 0, 75, 54
1, 53176, Note_on_c, 0, 71, 62
1, 53200, Note_off_c, 0, 71, 63
1, 53239, Note_on_c, 0, 73, 56
1, 53241, Note_on_c, 0, 76, 57
1, 53250, Note_off_c, 0, 75, 38
1, 53287, Note_on_c, 0, 71, 63
1, 53301, Note_off_c, 0, 76, 62
1, 53306, Note_on_c, 0, 75, 54
1, 53320, Note_off_c, 0, 73, 60
1, 53324, Note_off_c, 0, 71, 65
1, 53343, Note_off_c, 0, 75, 64
1, 53479, Control_c, 0, 64, 113
1, 53494, Control_c, 0, 64, 92
1, 53508, Control_c, 0, 64, 73
1, 53523, Control_c, 0, 64, 48
1, 53524, Note_on_c, 0, 40, 40
1, 53528, Note_on_c, 0, 95, 56
1, 53538, Control_c, 0, 64, 0
1, 53539, Note_on_c, 0, 92, 54
1, 53597, Control_c, 0, 64, 10
1, 53604, Note_off_c, 0, 95, 55
1, 53605, Note_off_c, 0, 92, 57
1, 53612, Control_c, 0, 64, 61
1, 53627, Control_c, 0, 64, 77
1, 53631, Note_on_c, 0, 94, 43
1, 53632, Note_on_c, 0, 90, 49
1, 53641, Control_c, 0, 64, 106
1, 53656, Control_c, 0, 64, 127
1, 53659, Note_off_c, 0, 90, 55
1, 53712, Note_on_c, 0, 47, 45
1, 53716, Note_off_c, 0, 94, 0
1, 53717, Note_on_c, 0, 95, 45
1, 53718, Note_on_c, 0, 92, 50
1, 53734, Note_on_c, 0, 94, 23
1, 53742, Note_off_c, 0, 40, 37
1, 53743, Note_off_c, 0, 95, 59
1, 53754, Note_on_c, 0, 90, 65
1, 53762, Note_off_c, 0, 92, 63
1, 53766, Note_off_c, 0, 94, 55
1, 53782, Note_off_c, 0, 90, 66
1, 53841, Note_on_c, 0, 88, 64
1, 53849, Note_on_c, 0, 92, 64
1, 53854, Note_on_c, 0, 52, 54
1, 53876, Note_off_c, 0, 47, 33
1, 53900, Note_off_c, 0, 88, 39
1, 53911, Note_off_c, 0, 92, 61
1, 53914, Note_on_c, 0, 90, 71
1, 53929, Note_on_c, 0, 87, 56
1, 53948, Note_off_c, 0, 52, 50
1, 53950, Note_off_c, 0, 90, 54
1, 53956, Note_off_c, 0, 87, 53
1, 53986, Note_on_c, 0, 92, 53
1, 53992, Note_on_c, 0, 54, 53
1, 53995, Note_on_c, 0, 88, 57
1, 54032, Note_off_c, 0, 88, 67
1, 54039, Note_on_c, 0, 87, 70
1, 54043, Note_on_c, 0, 90, 63
1, 54051, Note_off_c, 0, 92, 63
1, 54061, Note_off_c, 0, 90, 64
1, 54064, Note_off_c, 0, 87, 67
1, 54111, Note_on_c, 0, 56, 68
1, 54112, Note_off_c, 0, 54, 51
1, 54120, Note_on_c, 0, 88, 71
1, 54123, Control_c, 0, 64, 96
1, 54132, Note_on_c, 0, 85, 63
1, 54138, Control_c, 0, 64, 70
1, 54153, Control_c, 0, 64, 0
1, 54173, Note_off_c, 0, 85, 48
1, 54183, Control_c, 0, 64, 62
1, 54189, Note_on_c, 0, 87, 64
1, 54189, Note_off_c, 0, 88, 61
1, 54197, Note_on_c, 0, 83, 67
1, 54198, Control_c, 0, 64, 76
1, 54213, Control_c, 0, 64, 118
1, 54228, Control_c, 0, 64, 127
1, 54230, Note_off_c, 0, 56, 56
1, 54231, Note_off_c, 0, 83, 59
1, 54254, Note_on_c, 0, 52, 62
1, 54267, Note_on_c, 0, 85, 66
1, 54272, Note_on_c, 0, 88, 73
1, 54287, Note_off_c, 0, 87, 57
1, 54307, Note_off_c, 0, 88, 64
1, 54313, Note_off_c, 0, 85, 61
1, 54317, Note_on_c, 0, 83, 76
1, 54341, Note_off_c, 0, 83, 66
1, 54374, Note_off_c, 0, 52, 59
1, 54388, Note_on_c, 0, 82, 68
1, 54392, Note_on_c, 0, 59, 67
1, 54394, Note_on_c, 0, 85, 69
1, 54448, Note_on_c, 0, 83, 60
1, 54458, Note_off_c, 0, 85, 63
1, 54461, Note_on_c, 0, 80, 70
1, 54485, Note_off_c, 0, 59, 52
1, 54487, Note_off_c, 0, 80, 65
1, 54497, Note_off_c, 0, 82, 0
1, 54509, Note_on_c, 0, 82, 62
1, 54523, Note_on_c, 0, 61, 59
1, 54529, Note_on_c, 0, 85, 60
1, 54531, Note_off_c, 0, 83, 59
1, 54560, Note_off_c, 0, 85, 66
1, 54564, Note_off_c, 0, 82, 65
1, 54584, Note_on_c, 0, 80, 68
1, 54609, Note_off_c, 0, 80, 67
1, 54632, Note_off_c, 0, 61, 58
1, 54650, Control_c, 0, 64, 102
1, 54654, Note_on_c, 0, 63, 73
1, 54657, Note_on_c, 0, 78, 67
1, 54664, Note_on_c, 0, 82, 70
1, 54664, Control_c, 0, 64, 73
1, 54679, Control_c, 0, 64, 29
1, 54683, Note_off_c, 0, 63, 68
1, 54694, Control_c, 0, 64, 0
1, 54709, Control_c, 0, 64, 46
1, 54719, Note_off_c, 0, 82, 63
1, 54722, Note_off_c, 0, 78, 61
1, 54724, Control_c, 0, 64, 74
1, 54728, Note_on_c, 0, 80, 49
1, 54735, Note_on_c, 0, 76, 73
1, 54738, Control_c, 0, 64, 127
1, 54776, Note_off_c, 0, 76, 53
1, 54800, Note_off_c, 0, 80, 55
1, 54803, Note_on_c, 0, 82, 69
1, 54806, Note_on_c, 0, 35, 64
1, 54817, Note_on_c, 0, 78, 59
1, 54845, Note_off_c, 0, 82, 61
1, 54851, Note_off_c, 0, 78, 65
1, 54863, Note_on_c, 0, 76, 74
1, 54889, Note_off_c, 0, 76, 65
1, 54913, Note_off_c, 0, 35, 57
1, 54928, Note_on_c, 0, 75, 64
1, 54931, Note_on_c, 0, 78, 65
1, 54943, Note_on_c, 0, 42, 61
1, 54978, Note_off_c, 0, 75, 60
1, 54985, Note_on_c, 0, 76, 59
1, 54994, Note_on_c, 0, 73, 75
1, 54996, Note_off_c, 0, 78, 63
1, 55028, Note_off_c, 0, 73, 61
1, 55069, Note_on_c, 0, 75, 61
1, 55072, Note_off_c, 0, 76, 59
1, 55074, Note_on_c, 0, 49, 61
1, 55074, Note_on_c, 0, 78, 61
1, 55099, Note_off_c, 0, 75, 67
1, 55108, Note_off_c, 0, 78, 66
1, 55110, Note_off_c, 0, 49, 63
1, 55116, Note_on_c, 0, 73, 73
1, 55140, Note_off_c, 0, 73, 66
1, 55154, Control_c, 0, 64, 99
1, 55169, Control_c, 0, 64, 72
1, 55181, Note_on_c, 0, 75, 70
1, 55184, Control_c, 0, 64, 33
1, 55198, Note_on_c, 0, 71, 59
1, 55199, Control_c, 0, 64, 0
1, 55202, Note_on_c, 0, 51, 76
1, 55214, Control_c, 0, 64, 56
1, 55228, Control_c, 0, 64, 88
1, 55230, Note_off_c, 0, 42, 61
1, 55231, Note_off_c, 0, 51, 66
1, 55243, Control_c, 0, 64, 127
1, 55259, Note_off_c, 0, 71, 64
1, 55262, Note_on_c, 0, 73, 59
1, 55262, Note_off_c, 0, 75, 61
1, 55267, Note_on_c, 0, 70, 69
1, 55304, Note_off_c, 0, 70, 57
1, 55316, Note_off_c, 0, 73, 60
1, 55334, Note_on_c, 0, 75, 65
1, 55339, Note_on_c, 0, 71, 63
1, 55393, Note_off_c, 0, 71, 65
1, 55396, Note_off_c, 0, 75, 63
1, 55399, Note_on_c, 0, 70, 79
1, 55399, Note_on_c, 0, 73, 37
1, 55419, Note_off_c, 0, 70, 71
1, 55427, Note_off_c, 0, 73, 57
1, 55474, Note_on_c, 0, 68, 70
1, 55477, Note_on_c, 0, 71, 75
1, 55524, Note_on_c, 0, 70, 57
1, 55536, Note_off_c, 0, 71, 65
1, 55542, Note_off_c, 0, 68, 65
1, 55551, Note_on_c, 0, 66, 78
1, 55557, Note_off_c, 0, 70, 65
1, 55578, Note_off_c, 0, 66, 66
1, 55613, Note_on_c, 0, 64, 76
1, 55623, Note_on_c, 0, 68, 77
1, 55643, Note_on_c, 0, 66, 63
1, 55668, Note_on_c, 0, 37, 61
1, 55673, Note_off_c, 0, 64, 62
1, 55674, Note_off_c, 0, 66, 65
1, 55676, Note_off_c, 0, 68, 65
1, 55681, Note_on_c, 0, 63, 82
1, 55694, Control_c, 0, 64, 117
1, 55707, Note_off_c, 0, 63, 66
1, 55709, Control_c, 0, 64, 79
1, 55724, Control_c, 0, 64, 0
1, 55738, Note_off_c, 0, 37, 63
1, 55746, Note_on_c, 0, 52, 96
1, 55747, Note_on_c, 0, 61, 89
1, 55748, Note_on_c, 0, 64, 82
1, 55776, Note_off_c, 0, 52, 67
1, 55784, Control_c, 0, 64, 72
1, 55798, Note_off_c, 0, 61, 65
1, 55799, Control_c, 0, 64, 127
1, 55804, Note_off_c, 0, 64, 66
1, 56051, Control_c, 0, 64, 114
1, 56066, Control_c, 0, 64, 93
1, 56088, Control_c, 0, 64, 71
1, 56103, Control_c, 0, 64, 29
1, 56117, Control_c, 0, 64, 0
1, 56119, Note_on_c, 0, 49, 60
1, 56173, Note_on_c, 0, 57, 74
1, 56196, Note_off_c, 0, 49, 62
1, 56225, Note_on_c, 0, 64, 101
1, 56234, Note_on_c, 0, 90, 88
1, 56236, Note_on_c, 0, 93, 87
1, 56236, Control_c, 0, 64, 38
1, 56249, Note_off_c, 0, 57, 65
1, 56251, Control_c, 0, 64, 127
1, 56258, Note_off_c, 0, 64, 68
1, 56292, Note_off_c, 0, 90, 60
1, 56305, Note_on_c, 0, 88, 82
1, 56314, Note_on_c, 0, 92, 70
1, 56344, Note_off_c, 0, 93, 62
1, 56370, Note_on_c, 0, 90, 58
1, 56377, Note_off_c, 0, 92, 64
1, 56378, Note_on_c, 0, 86, 78
1, 56382, Note_off_c, 0, 88, 66
1, 56389, Note_off_c, 0, 90, 62
1, 56448, Note_on_c, 0, 88, 89
1, 56454, Note_on_c, 0, 85, 81
1, 56457, Note_off_c, 0, 86, 61
1, 56504, Note_off_c, 0, 85, 60
1, 56519, Note_on_c, 0, 86, 59
1, 56521, Note_on_c, 0, 83, 77
1, 56552, Note_off_c, 0, 88, 65
1, 56562, Note_on_c, 0, 85, 70
1, 56574, Note_off_c, 0, 86, 64
1, 56579, Note_on_c, 0, 81, 83
1, 56582, Note_off_c, 0, 83, 64
1, 56585, Note_off_c, 0, 85, 69
1, 56625, Note_off_c, 0, 81, 0
1, 56646, Note_on_c, 0, 83, 78
1, 56649, Poly_aftertouch_c, 0, 81, 0
1, 56653, Note_on_c, 0, 80, 80
1, 56710, Note_on_c, 0, 78, 81
1, 56714, Note_off_c, 0, 80, 63
1, 56723, Note_on_c, 0, 81, 65
1, 56755, Note_off_c, 0, 78, 65
1, 56758, Note_off_c, 0, 83, 61
1, 56768, Note_on_c, 0, 76, 64
1, 56773, Note_on_c, 0, 80, 65
1, 56788, Note_off_c, 0, 76, 65
1, 56812, Note_off_c, 0, 81, 65
1, 56832, Note_on_c, 0, 78, 72
1, 56834, Note_on_c, 0, 74, 74
1, 56838, Note_off_c, 0, 80, 64
1, 56853, Note_off_c, 0, 78, 70
1, 56905, Note_off_c, 0, 74, 54
1, 56907, Note_on_c, 0, 73, 81
1, 56910, Note_on_c, 0, 76, 69
1, 56976, Note_on_c, 0, 71, 75
1, 56978, Note_on_c, 0, 74, 59
1, 57001, Note_off_c, 0, 76, 63
1, 57012, Note_off_c, 0, 74, 64
1, 57030, Note_on_c, 0, 69, 82
1, 57031, Note_off_c, 0, 73, 64
1, 57034, Note_off_c, 0, 71, 65
1, 57090, Note_on_c, 0, 71, 73
1, 57094, Note_off_c, 0, 69, 65
1, 57099, Note_on_c, 0, 68, 74
1, 57148, Note_on_c, 0, 66, 78
1, 57152, Note_off_c, 0, 68, 65
1, 57159, Note_on_c, 0, 69, 69
1, 57199, Note_off_c, 0, 71, 61
1, 57201, Note_off_c, 0, 66, 64
1, 57202, Note_on_c, 0, 64, 78
1, 57211, Note_on_c, 0, 68, 72
1, 57224, Note_off_c, 0, 64, 70
1, 57244, Note_off_c, 0, 69, 65
1, 57269, Note_on_c, 0, 62, 82
1, 57271, Note_off_c, 0, 68, 66
1, 57276, Note_on_c, 0, 66, 63
1, 57299, Note_off_c, 0, 66, 61
1, 57340, Note_on_c, 0, 64, 69
1, 57349, Note_on_c, 0, 61, 77
1, 57351, Note_off_c, 0, 62, 37
1, 57401, Note_on_c, 0, 62, 56
1, 57408, Note_on_c, 0, 59, 76
1, 57423, Note_off_c, 0, 64, 64
1, 57441, Note_off_c, 0, 61, 65
1, 57453, Note_off_c, 0, 59, 63
1, 57455, Note_on_c, 0, 57, 80
1, 57462, Note_off_c, 0, 62, 62
1, 57519, Control_c, 0, 64, 115
1, 57523, Note_off_c, 0, 57, 62
1, 57531, Note_on_c, 0, 59, 70
1, 57534, Control_c, 0, 64, 98
1, 57536, Note_on_c, 0, 56, 67
1, 57548, Note_on_c, 0, 51, 57
1, 57548, Note_on_c, 0, 39, 53
1, 57548, Control_c, 0, 64, 82
1, 57563, Control_c, 0, 64, 65
1, 57586, Control_c, 0, 64, 0
1, 57735, Control_c, 0, 64, 26
1, 57749, Control_c, 0, 64, 56
1, 57764, Control_c, 0, 64, 65
1, 57779, Control_c, 0, 64, 71
1, 57794, Control_c, 0, 64, 76
1, 57808, Control_c, 0, 64, 80
1, 57823, Control_c, 0, 64, 82
1, 57838, Control_c, 0, 64, 84
1, 57853, Control_c, 0, 64, 85
1, 57868, Control_c, 0, 64, 86
1, 57882, Control_c, 0, 64, 86
1, 57897, Control_c, 0, 64, 87
1, 57972, Control_c, 0, 64, 86
1, 57986, Control_c, 0, 64, 83
1, 58001, Control_c, 0, 64, 78
1, 58016, Control_c, 0, 64, 70
1, 58023, Note_off_c, 0, 59, 53
1, 58031, Control_c, 0, 64, 57
1, 58046, Control_c, 0, 64, 0
1, 58056, Note_on_c, 0, 58, 46
1, 58058, Note_on_c, 0, 49, 42
1, 58059, Note_off_c, 0, 51, 36
1, 58064, Note_on_c, 0, 55, 43
1, 58105, Note_off_c, 0, 56, 38
1, 58150, Control_c, 0, 64, 25
1, 58165, Control_c, 0, 64, 58
1, 58180, Control_c, 0, 64, 67
1, 58195, Control_c, 0, 64, 75
1, 58210, Control_c, 0, 64, 83
1, 58224, Control_c, 0, 64, 87
1, 58239, Control_c, 0, 64, 90
1, 58240, Note_off_c, 0, 49, 41
1, 58252, Note_off_c, 0, 39, 58
1, 58254, Control_c, 0, 64, 93
1, 58269, Control_c, 0, 64, 96
1, 58284, Control_c, 0, 64, 98
1, 58298, Control_c, 0, 64, 100
1, 58313, Control_c, 0, 64, 100
1, 58365, Control_c, 0, 64, 101
1, 58380, Control_c, 0, 64, 101
1, 58395, Control_c, 0, 64, 102
1, 58484, Control_c, 0, 64, 101
1, 58528, Control_c, 0, 64, 98
1, 58543, Control_c, 0, 64, 93
1, 58553, Note_off_c, 0, 55, 31
1, 58558, Control_c, 0, 64, 85
1, 58572, Control_c, 0, 64, 75
1, 58587, Control_c, 0, 64, 61
1, 58595, Note_off_c, 0, 58, 45
1, 58596, Note_on_c, 0, 56, 42
1, 58602, Control_c, 0, 64, 0
1, 58602, Control_c, 0, 67, 10
1, 58612, Note_on_c, 0, 32, 35
1, 58617, Control_c, 0, 67, 13
1, 58631, Control_c, 0, 67, 18
1, 58646, Control_c, 0, 67, 25
1, 58661, Control_c, 0, 67, 35
1, 58676, Control_c, 0, 67, 45
1, 58691, Control_c, 0, 64, 56
1, 58691, Control_c, 0, 67, 55
1, 58705, Control_c, 0, 64, 72
1, 58705, Control_c, 0, 67, 64
1, 58709, Note_off_c, 0, 32, 54
1, 58720, Control_c, 0, 64, 91
1, 58720, Control_c, 0, 67, 75
1, 58735, Control_c, 0, 64, 111
1, 58735, Control_c, 0, 67, 91
1, 58748, Note_off_c, 0, 56, 52
1, 58750, Control_c, 0, 64, 120
1, 58750, Control_c, 0, 67, 103
1, 58765, Control_c, 0, 64, 127
1, 58765, Control_c, 0, 67, 109
1, 58779, Control_c, 0, 67, 113
1, 58794, Control_c, 0, 67, 114
1, 58942, Note_on_c, 0, 51, 40
1, 59003, Control_c, 0, 67, 113
1, 59084, Control_c, 0, 67, 112
1, 59203, Note_on_c, 0, 75, 45
1, 59206, Note_on_c, 0, 59, 42
1, 59209, Note_on_c, 0, 71, 46
1, 59235, Note_off_c, 0, 59, 54
1, 59235, Note_off_c, 0, 71, 56
1, 59250, Note_off_c, 0, 75, 60
1, 59256, Note_off_c, 0, 51, 46
1, 59282, Note_on_c, 0, 76, 46
1, 59323, Note_on_c, 0, 73, 21
1, 59343, Note_off_c, 0, 76, 54
1, 59350, Control_c, 0, 64, 116
1, 59360, Note_on_c, 0, 75, 58
1, 59363, Note_off_c, 0, 73, 52
1, 59365, Note_on_c, 0, 71, 42
1, 59365, Control_c, 0, 64, 105
1, 59372, Note_on_c, 0, 43, 56
1, 59380, Control_c, 0, 64, 92
1, 59394, Control_c, 0, 64, 82
1, 59408, Note_off_c, 0, 75, 51
1, 59409, Control_c, 0, 64, 70
1, 59414, Note_off_c, 0, 71, 59
1, 59424, Control_c, 0, 64, 57
1, 59439, Control_c, 0, 64, 20
1, 59452, Note_on_c, 0, 73, 45
1, 59453, Control_c, 0, 64, 0
1, 59456, Note_on_c, 0, 76, 56
1, 59468, Control_c, 0, 67, 113
1, 59481, Note_off_c, 0, 43, 50
1, 59483, Control_c, 0, 67, 113
1, 59498, Note_off_c, 0, 73, 48
1, 59499, Note_off_c, 0, 76, 60
1, 59513, Control_c, 0, 67, 114
1, 59517, Note_on_c, 0, 71, 57
1, 59519, Note_on_c, 0, 44, 48
1, 59525, Note_on_c, 0, 75, 50
1, 59555, Note_off_c, 0, 71, 61
1, 59557, Control_c, 0, 64, 29
1, 59562, Note_off_c, 0, 75, 55
1, 59572, Control_c, 0, 64, 56
1, 59587, Control_c, 0, 64, 61
1, 59593, Note_on_c, 0, 73, 47
1, 59599, Note_on_c, 0, 76, 57
1, 59602, Control_c, 0, 64, 63
1, 59617, Control_c, 0, 64, 65
1, 59632, Control_c, 0, 64, 69
1, 59635, Note_off_c, 0, 44, 55
1, 59641, Note_off_c, 0, 73, 46
1, 59646, Control_c, 0, 64, 75
1, 59650, Note_off_c, 0, 76, 59
1, 59660, Note_on_c, 0, 75, 55
1, 59661, Control_c, 0, 64, 83
1, 59668, Note_on_c, 0, 71, 52
1, 59676, Control_c, 0, 64, 87
1, 59677, Note_on_c, 0, 51, 43
1, 59691, Control_c, 0, 64, 90
1, 59698, Note_off_c, 0, 71, 64
1, 59706, Control_c, 0, 64, 94
1, 59706, Control_c, 0, 67, 114
1, 59707, Note_off_c, 0, 75, 55
1, 59720, Control_c, 0, 64, 99
1, 59735, Control_c, 0, 64, 102
1, 59742, Note_on_c, 0, 73, 49
1, 59751, Control_c, 0, 64, 105
1, 59763, Note_on_c, 0, 76, 54
1, 59766, Control_c, 0, 64, 107
1, 59775, Note_off_c, 0, 73, 50
1, 59781, Control_c, 0, 64, 109
1, 59796, Control_c, 0, 64, 111
1, 59802, Note_off_c, 0, 76, 57
1, 59805, Note_on_c, 0, 71, 49
1, 59811, Control_c, 0, 64, 111
1, 59811, Note_on_c, 0, 59, 47
1, 59832, Note_on_c, 0, 75, 53
1, 59832, Control_c, 0, 64, 112
1, 59844, Note_off_c, 0, 59, 56
1, 59853, Note_off_c, 0, 71, 61
1, 59853, Note_off_c, 0, 51, 52
1, 59870, Note_off_c, 0, 75, 61
1, 59872, Note_on_c, 0, 73, 55
1, 59900, Note_on_c, 0, 76, 60
1, 59922, Note_off_c, 0, 73, 57
1, 59935, Note_on_c, 0, 39, 62
1, 59936, Control_c, 0, 67, 115
1, 59954, Note_off_c, 0, 76, 54
1, 59966, Control_c, 0, 64, 111
1, 59969, Note_on_c, 0, 71, 53
1, 59972, Note_on_c, 0, 75, 47
1, 59981, Control_c, 0, 64, 108
1, 59995, Control_c, 0, 64, 103
1, 60001, Note_off_c, 0, 71, 60
1, 60010, Note_off_c, 0, 75, 62
1, 60010, Control_c, 0, 64, 94
1, 60018, Note_on_c, 0, 73, 61
1, 60025, Control_c, 0, 64, 82
1, 60034, Note_on_c, 0, 76, 63
1, 60037, Note_off_c, 0, 73, 62
1, 60040, Control_c, 0, 64, 66
1, 60051, Note_off_c, 0, 39, 47
1, 60055, Control_c, 0, 64, 0
1, 60060, Note_off_c, 0, 76, 65
1, 60084, Control_c, 0, 64, 31
1, 60091, Note_on_c, 0, 44, 46
1, 60099, Control_c, 0, 64, 61
1, 60109, Note_on_c, 0, 78, 62
1, 60114, Control_c, 0, 64, 70
1, 60129, Control_c, 0, 64, 84
1, 60143, Control_c, 0, 64, 104
1, 60158, Control_c, 0, 64, 112
1, 60171, Note_off_c, 0, 78, 62
1, 60172, Note_on_c, 0, 80, 71
1, 60173, Control_c, 0, 64, 115
1, 60188, Control_c, 0, 64, 121
1, 60192, Note_on_c, 0, 76, 51
1, 60202, Control_c, 0, 64, 125
1, 60209, Note_off_c, 0, 44, 49
1, 60217, Control_c, 0, 67, 115
1, 60228, Note_off_c, 0, 76, 59
1, 60232, Control_c, 0, 67, 116
1, 60242, Note_on_c, 0, 51, 41
1, 60243, Note_on_c, 0, 75, 66
1, 60243, Note_off_c, 0, 80, 61
1, 60247, Control_c, 0, 67, 118
1, 60256, Note_on_c, 0, 78, 54
1, 60262, Control_c, 0, 67, 121
1, 60276, Control_c, 0, 67, 123
1, 60291, Control_c, 0, 67, 124
1, 60293, Note_off_c, 0, 78, 64
1, 60303, Note_off_c, 0, 75, 61
1, 60306, Control_c, 0, 67, 126
1, 60309, Note_on_c, 0, 80, 62
1, 60321, Control_c, 0, 67, 127
1, 60324, Note_on_c, 0, 76, 58
1, 60336, Control_c, 0, 64, 123
1, 60350, Control_c, 0, 64, 107
1, 60353, Note_off_c, 0, 76, 54
1, 60365, Control_c, 0, 64, 87
1, 60374, Note_off_c, 0, 80, 65
1, 60380, Note_on_c, 0, 78, 62
1, 60380, Control_c, 0, 64, 64
1, 60389, Note_on_c, 0, 75, 55
1, 60391, Note_on_c, 0, 60, 45
1, 60395, Control_c, 0, 64, 0
1, 60403, Note_off_c, 0, 51, 54
1, 60415, Note_off_c, 0, 78, 61
1, 60418, Note_off_c, 0, 60, 58
1, 60430, Note_off_c, 0, 75, 62
1, 60451, Note_on_c, 0, 80, 59
1, 60455, Note_on_c, 0, 76, 58
1, 60493, Note_off_c, 0, 76, 61
1, 60499, Note_off_c, 0, 80, 62
1, 60517, Note_on_c, 0, 78, 63
1, 60520, Note_on_c, 0, 75, 61
1, 60532, Note_on_c, 0, 49, 50
1, 60550, Note_off_c, 0, 78, 64
1, 60570, Note_off_c, 0, 75, 59
1, 60590, Note_on_c, 0, 80, 62
1, 60602, Note_on_c, 0, 76, 55
1, 60618, Note_off_c, 0, 49, 49
1, 60641, Note_off_c, 0, 76, 59
1, 60647, Note_off_c, 0, 80, 63
1, 60655, Note_on_c, 0, 78, 60
1, 60669, Note_on_c, 0, 48, 33
1, 60677, Note_on_c, 0, 75, 54
1, 60685, Control_c, 0, 64, 27
1, 60689, Note_off_c, 0, 78, 59
1, 60699, Control_c, 0, 64, 55
1, 60714, Note_off_c, 0, 75, 64
1, 60714, Control_c, 0, 64, 64
1, 60729, Control_c, 0, 64, 70
1, 60731, Note_on_c, 0, 80, 62
1, 60742, Note_on_c, 0, 76, 53
1, 60744, Control_c, 0, 64, 75
1, 60759, Control_c, 0, 64, 80
1, 60774, Control_c, 0, 64, 86
1, 60784, Note_off_c, 0, 80, 61
1, 60789, Control_c, 0, 64, 93
1, 60789, Note_off_c, 0, 76, 58
1, 60800, Note_on_c, 0, 78, 59
1, 60803, Note_on_c, 0, 51, 42
1, 60803, Control_c, 0, 64, 100
1, 60806, Note_on_c, 0, 75, 56
1, 60818, Control_c, 0, 64, 109
1, 60833, Control_c, 0, 64, 122
1, 60842, Note_off_c, 0, 78, 60
1, 60842, Note_off_c, 0, 75, 62
1, 60848, Control_c, 0, 64, 127
1, 60857, Note_on_c, 0, 80, 60
1, 60885, Note_on_c, 0, 76, 60
1, 60923, Note_off_c, 0, 76, 60
1, 60928, Note_off_c, 0, 80, 64
1, 60938, Note_on_c, 0, 60, 48
1, 60941, Note_off_c, 0, 48, 0
1, 60941, Note_on_c, 0, 48, 7
1, 60945, Note_on_c, 0, 78, 56
1, 60949, Note_on_c, 0, 75, 62
1, 60963, Note_off_c, 0, 60, 58
1, 60968, Note_off_c, 0, 51, 61
1, 60977, Note_off_c, 0, 78, 55
1, 60983, Note_off_c, 0, 48, 60
1, 60989, Note_off_c, 0, 75, 59
1, 61008, Note_on_c, 0, 80, 67
1, 61014, Note_on_c, 0, 76, 67
1, 61064, Note_on_c, 0, 39, 65
1, 61072, Note_off_c, 0, 76, 60
1, 61082, Note_on_c, 0, 78, 54
1, 61099, Control_c, 0, 64, 93
1, 61106, Note_on_c, 0, 75, 55
1, 61114, Control_c, 0, 64, 67
1, 61129, Control_c, 0, 64, 0
1, 61172, Note_off_c, 0, 75, 61
1, 61172, Note_off_c, 0, 78, 63
1, 61176, Note_off_c, 0, 39, 37
1, 61178, Note_on_c, 0, 44, 69
1, 61181, Note_off_c, 0, 80, 29
1, 61185, Note_on_c, 0, 76, 73
1, 61188, Control_c, 0, 64, 77
1, 61197, Note_on_c, 0, 81, 58
1, 61203, Control_c, 0, 64, 127
1, 61208, Note_off_c, 0, 44, 62
1, 61221, Note_off_c, 0, 76, 54
1, 61251, Note_off_c, 0, 81, 65
1, 61265, Note_on_c, 0, 80, 67
1, 61271, Note_on_c, 0, 77, 64
1, 61301, Note_off_c, 0, 77, 66
1, 61301, Note_off_c, 0, 80, 55
1, 61331, Note_on_c, 0, 52, 60
1, 61334, Note_on_c, 0, 76, 72
1, 61360, Note_on_c, 0, 79, 59
1, 61368, Note_off_c, 0, 76, 57
1, 61375, Control_c, 0, 64, 115
1, 61388, Note_off_c, 0, 79, 64
1, 61390, Control_c, 0, 64, 76
1, 61397, Note_on_c, 0, 75, 63
1, 61400, Note_on_c, 0, 78, 69
1, 61404, Control_c, 0, 64, 0
1, 61424, Note_off_c, 0, 78, 70
1, 61447, Note_off_c, 0, 75, 62
1, 61461, Note_off_c, 0, 52, 58
1, 61462, Note_on_c, 0, 74, 71
1, 61465, Note_on_c, 0, 61, 50
1, 61472, Note_on_c, 0, 77, 67
1, 61493, Note_off_c, 0, 74, 57
1, 61514, Note_off_c, 0, 77, 64
1, 61515, Note_off_c, 0, 61, 57
1, 61533, Note_on_c, 0, 76, 63
1, 61534, Note_on_c, 0, 73, 58
1, 61567, Note_off_c, 0, 76, 60
1, 61576, Note_off_c, 0, 73, 64
1, 61588, Note_on_c, 0, 77, 64
1, 61599, Note_on_c, 0, 74, 61
1, 61602, Note_on_c, 0, 51, 43
1, 61631, Note_off_c, 0, 74, 60
1, 61648, Note_off_c, 0, 77, 65
1, 61663, Note_on_c, 0, 75, 59
1, 61663, Note_on_c, 0, 78, 61
1, 61698, Note_off_c, 0, 78, 64
1, 61707, Note_off_c, 0, 75, 64
1, 61713, Note_off_c, 0, 51, 55
1, 61728, Note_on_c, 0, 76, 64
1, 61730, Note_on_c, 0, 79, 60
1, 61744, Note_on_c, 0, 49, 47
1, 61745, Control_c, 0, 64, 46
1, 61754, Note_off_c, 0, 76, 54
1, 61760, Control_c, 0, 64, 67
1, 61765, Note_off_c, 0, 79, 63
1, 61775, Control_c, 0, 64, 76
1, 61775, Note_on_c, 0, 78, 65
1, 61783, Note_on_c, 0, 75, 62
1, 61790, Control_c, 0, 64, 85
1, 61805, Control_c, 0, 64, 91
1, 61820, Control_c, 0, 64, 98
1, 61827, Note_off_c, 0, 78, 61
1, 61834, Control_c, 0, 64, 110
1, 61844, Note_off_c, 0, 75, 57
1, 61849, Control_c, 0, 64, 127
1, 61857, Note_on_c, 0, 74, 68
1, 61858, Note_on_c, 0, 77, 66
1, 61872, Note_on_c, 0, 52, 48
1, 61909, Note_off_c, 0, 74, 62
1, 61915, Note_on_c, 0, 76, 73
1, 61929, Note_off_c, 0, 77, 58
1, 61930, Note_on_c, 0, 73, 66
1, 61972, Note_on_c, 0, 75, 62
1, 61979, Note_off_c, 0, 76, 61
1, 61990, Note_on_c, 0, 61, 68
1, 61997, Note_on_c, 0, 72, 72
1, 61997, Note_off_c, 0, 75, 66
1, 61999, Note_off_c, 0, 73, 61
1, 62005, Note_off_c, 0, 52, 61
1, 62009, Note_off_c, 0, 61, 65
1, 62034, Note_off_c, 0, 49, 63
1, 62046, Note_off_c, 0, 72, 65
1, 62049, Note_on_c, 0, 74, 69
1, 62067, Note_on_c, 0, 71, 67
1, 62079, Control_c, 0, 64, 95
1, 62094, Control_c, 0, 64, 70
1, 62096, Note_off_c, 0, 71, 66
1, 62109, Control_c, 0, 64, 0
1, 62128, Note_off_c, 0, 74, 63
1, 62133, Note_on_c, 0, 75, 64
1, 62139, Note_on_c, 0, 32, 64
1, 62139, Note_on_c, 0, 72, 70
1, 62165, Note_off_c, 0, 72, 68
1, 62196, Note_off_c, 0, 32, 55
1, 62206, Note_on_c, 0, 73, 70
1, 62206, Note_on_c, 0, 76, 71
1, 62215, Note_off_c, 0, 75, 54
1, 62243, Control_c, 0, 64, 62
1, 62250, Note_off_c, 0, 76, 62
1, 62254, Note_on_c, 0, 44, 64
1, 62258, Control_c, 0, 64, 80
1, 62260, Note_off_c, 0, 73, 60
1, 62262, Note_on_c, 0, 77, 67
1, 62268, Note_on_c, 0, 74, 66
1, 62272, Control_c, 0, 64, 127
1, 62289, Note_off_c, 0, 44, 62
1, 62302, Note_off_c, 0, 74, 60
1, 62316, Note_on_c, 0, 73, 67
1, 62341, Note_on_c, 0, 76, 67
1, 62357, Note_on_c, 0, 75, 67
1, 62370, Note_off_c, 0, 77, 63
1, 62375, Note_off_c, 0, 76, 62
1, 62388, Note_off_c, 0, 73, 62
1, 62389, Note_on_c, 0, 72, 82
1, 62390, Note_off_c, 0, 75, 65
1, 62410, Note_on_c, 0, 52, 63
1, 62424, Note_off_c, 0, 72, 0
1, 62455, Poly_aftertouch_c, 0, 72, 0
1, 62460, Note_on_c, 0, 71, 71
1, 62461, Note_on_c, 0, 74, 68
1, 62509, Note_on_c, 0, 73, 69
1, 62517, Note_on_c, 0, 70, 79
1, 62526, Note_off_c, 0, 74, 63
1, 62527, Note_on_c, 0, 61, 74
1, 62532, Note_off_c, 0, 71, 59
1, 62539, Control_c, 0, 64, 115
1, 62551, Note_off_c, 0, 52, 62
1, 62553, Note_off_c, 0, 61, 67
1, 62554, Control_c, 0, 64, 83
1, 62565, Note_off_c, 0, 70, 64
1, 62567, Note_off_c, 0, 73, 62
1, 62569, Control_c, 0, 64, 52
1, 62575, Note_on_c, 0, 69, 72
1, 62584, Control_c, 0, 64, 0
1, 62637, Note_on_c, 0, 71, 68
1, 62640, Note_on_c, 0, 51, 59
1, 62643, Note_off_c, 0, 69, 62
1, 62652, Note_on_c, 0, 67, 62
1, 62681, Note_off_c, 0, 71, 62
1, 62690, Note_off_c, 0, 67, 64
1, 62696, Note_on_c, 0, 73, 69
1, 62710, Note_on_c, 0, 69, 53
1, 62759, Note_off_c, 0, 69, 62
1, 62765, Note_off_c, 0, 73, 61
1, 62767, Note_off_c, 0, 51, 53
1, 62783, Note_on_c, 0, 67, 44
1, 62786, Note_on_c, 0, 71, 53
1, 62787, Note_on_c, 0, 49, 50
1, 62831, Note_off_c, 0, 67, 64
1, 62834, Note_off_c, 0, 71, 63
1, 62843, Control_c, 0, 64, 30
1, 62858, Note_on_c, 0, 69, 48
1, 62858, Control_c, 0, 64, 45
1, 62862, Note_on_c, 0, 73, 59
1, 62872, Control_c, 0, 64, 49
1, 62887, Control_c, 0, 64, 54
1, 62892, Note_off_c, 0, 69, 54
1, 62902, Control_c, 0, 64, 62
1, 62916, Note_off_c, 0, 73, 59
1, 62917, Control_c, 0, 64, 67
1, 62932, Note_on_c, 0, 52, 38
1, 62932, Control_c, 0, 64, 73
1, 62941, Note_on_c, 0, 67, 45
1, 62947, Control_c, 0, 64, 79
1, 62951, Note_on_c, 0, 71, 42
1, 62962, Control_c, 0, 64, 83
1, 62977, Control_c, 0, 64, 86
1, 62979, Note_off_c, 0, 67, 59
1, 62981, Note_off_c, 0, 71, 55
1, 62991, Control_c, 0, 64, 90
1, 62994, Note_on_c, 0, 69, 48
1, 63006, Control_c, 0, 64, 95
1, 63012, Note_on_c, 0, 73, 49
1, 63021, Control_c, 0, 64, 98
1, 63036, Control_c, 0, 64, 101
1, 63046, Note_off_c, 0, 73, 50
1, 63051, Control_c, 0, 64, 102
1, 63060, Note_on_c, 0, 61, 58
1, 63082, Note_off_c, 0, 61, 61
1, 63083, Note_on_c, 0, 71, 44
1, 63095, Control_c, 0, 64, 103
1, 63105, Note_off_c, 0, 71, 60
1, 63111, Note_off_c, 0, 52, 44
1, 63117, Note_off_c, 0, 49, 57
1, 63120, Note_on_c, 0, 73, 69
1, 63155, Control_c, 0, 64, 102
1, 63164, Note_on_c, 0, 67, 29
1, 63164, Note_off_c, 0, 73, 52
1, 63188, Note_off_c, 0, 69, 62
1, 63197, Note_on_c, 0, 71, 52
1, 63228, Control_c, 0, 64, 101
1, 63233, Note_on_c, 0, 73, 19
1, 63236, Note_on_c, 0, 32, 52
1, 63243, Control_c, 0, 64, 98
1, 63258, Control_c, 0, 64, 93
1, 63266, Note_off_c, 0, 67, 56
1, 63273, Control_c, 0, 64, 85
1, 63280, Note_off_c, 0, 73, 48
1, 63287, Control_c, 0, 64, 73
1, 63300, Note_off_c, 0, 32, 56
1, 63302, Control_c, 0, 64, 61
1, 63317, Control_c, 0, 64, 24
1, 63322, Note_on_c, 0, 69, 55
1, 63326, Note_off_c, 0, 71, 59
1, 63331, Note_on_c, 0, 64, 20
1, 63332, Control_c, 0, 64, 0
1, 63372, Note_off_c, 0, 64, 30
1, 63403, Note_on_c, 0, 44, 51
1, 63418, Note_off_c, 0, 69, 56
1, 63443, Note_on_c, 0, 68, 47
1, 63450, Control_c, 0, 64, 48
1, 63453, Note_off_c, 0, 44, 61
1, 63465, Note_on_c, 0, 63, 27
1, 63465, Control_c, 0, 64, 65
1, 63480, Control_c, 0, 64, 72
1, 63495, Control_c, 0, 64, 82
1, 63505, Note_off_c, 0, 63, 49
1, 63508, Note_off_c, 0, 68, 57
1, 63510, Control_c, 0, 64, 90
1, 63525, Control_c, 0, 64, 100
1, 63539, Control_c, 0, 64, 110
1, 63554, Control_c, 0, 64, 127
1, 63671, Note_on_c, 0, 51, 52
1, 63856, Note_on_c, 0, 60, 49
1, 63864, Note_on_c, 0, 87, 51
1, 63869, Note_on_c, 0, 84, 46
1, 63880, Note_off_c, 0, 60, 58
1, 63894, Note_off_c, 0, 84, 58
1, 63903, Note_off_c, 0, 87, 46
1, 63905, Note_off_c, 0, 51, 57
1, 63918, Control_c, 0, 64, 112
1, 63929, Note_on_c, 0, 88, 58
1, 63933, Control_c, 0, 64, 99
1, 63944, Note_on_c, 0, 85, 52
1, 63948, Control_c, 0, 64, 83
1, 63963, Control_c, 0, 64, 67
1, 63977, Note_off_c, 0, 88, 61
1, 63978, Control_c, 0, 64, 0
1, 63985, Note_off_c, 0, 85, 60
1, 63993, Note_on_c, 0, 87, 65
1, 64000, Note_on_c, 0, 84, 42
1, 64006, Note_on_c, 0, 49, 46
1, 64047, Note_off_c, 0, 84, 62
1, 64053, Note_off_c, 0, 87, 50
1, 64077, Note_on_c, 0, 88, 66
1, 64082, Note_on_c, 0, 85, 56
1, 64119, Note_off_c, 0, 49, 56
1, 64121, Note_off_c, 0, 85, 63
1, 64123, Note_off_c, 0, 88, 62
1, 64146, Note_on_c, 0, 84, 61
1, 64149, Note_on_c, 0, 48, 45
1, 64151, Note_on_c, 0, 87, 57
1, 64174, Note_off_c, 0, 84, 59
1, 64184, Control_c, 0, 64, 42
1, 64187, Note_off_c, 0, 87, 53
1, 64199, Control_c, 0, 64, 58
1, 64211, Note_on_c, 0, 88, 61
1, 64214, Control_c, 0, 64, 63
1, 64215, Note_on_c, 0, 85, 55
1, 64229, Control_c, 0, 64, 68
1, 64243, Control_c, 0, 64, 77
1, 64256, Note_off_c, 0, 85, 61
1, 64258, Control_c, 0, 64, 89
1, 64267, Note_off_c, 0, 88, 59
1, 64273, Control_c, 0, 64, 98
1, 64275, Note_on_c, 0, 87, 70
1, 64282, Note_on_c, 0, 84, 53
1, 64288, Control_c, 0, 64, 103
1, 64299, Note_on_c, 0, 51, 45
1, 64303, Control_c, 0, 64, 110
1, 64315, Note_off_c, 0, 84, 64
1, 64325, Control_c, 0, 64, 127
1, 64339, Note_off_c, 0, 87, 59
1, 64351, Note_on_c, 0, 85, 59
1, 64363, Note_on_c, 0, 88, 62
1, 64387, Note_off_c, 0, 85, 60
1, 64414, Note_off_c, 0, 88, 66
1, 64416, Note_on_c, 0, 84, 56
1, 64418, Note_on_c, 0, 87, 62
1, 64423, Note_on_c, 0, 60, 51
1, 64447, Note_off_c, 0, 60, 59
1, 64448, Note_off_c, 0, 51, 62
1, 64457, Note_off_c, 0, 84, 62
1, 64467, Note_off_c, 0, 48, 55
1, 64473, Note_off_c, 0, 87, 52
1, 64479, Note_on_c, 0, 85, 65
1, 64497, Note_on_c, 0, 88, 62
1, 64509, Note_off_c, 0, 85, 64
1, 64543, Note_off_c, 0, 88, 63
1, 64548, Note_on_c, 0, 84, 62
1, 64557, Note_on_c, 0, 39, 53
1, 64571, Note_on_c, 0, 87, 52
1, 64578, Note_off_c, 0, 84, 63
1, 64595, Note_on_c, 0, 85, 60
1, 64603, Note_off_c, 0, 87, 52
1, 64608, Control_c, 0, 64, 118
1, 64611, Note_on_c, 0, 88, 73
1, 64618, Note_off_c, 0, 85, 65
1, 64623, Control_c, 0, 64, 86
1, 64638, Control_c, 0, 64, 64
1, 64643, Note_off_c, 0, 88, 67
1, 64653, Control_c, 0, 64, 0
1, 64668, Note_off_c, 0, 39, 57
1, 64682, Control_c, 0, 64, 59
1, 64685, Note_on_c, 0, 87, 77
1, 64689, Note_on_c, 0, 44, 50
1, 64697, Control_c, 0, 64, 70
1, 64703, Note_on_c, 0, 90, 57
1, 64712, Control_c, 0, 64, 89
1, 64727, Control_c, 0, 64, 110
1, 64741, Control_c, 0, 64, 127
1, 64744, Note_off_c, 0, 90, 40
1, 64746, Note_off_c, 0, 87, 60
1, 64765, Note_on_c, 0, 92, 69
1, 64777, Note_on_c, 0, 88, 62
1, 64825, Note_off_c, 0, 92, 56
1, 64826, Note_off_c, 0, 88, 64
1, 64834, Note_off_c, 0, 44, 59
1, 64837, Note_on_c, 0, 90, 72
1, 64839, Note_on_c, 0, 51, 50
1, 64854, Note_on_c, 0, 87, 52
1, 64872, Note_off_c, 0, 90, 54
1, 64887, Note_off_c, 0, 87, 49
1, 64890, Control_c, 0, 64, 122
1, 64896, Note_on_c, 0, 92, 68
1, 64905, Control_c, 0, 64, 96
1, 64917, Note_on_c, 0, 88, 62
1, 64920, Control_c, 0, 64, 77
1, 64932, Note_off_c, 0, 51, 56
1, 64934, Control_c, 0, 64, 56
1, 64949, Note_off_c, 0, 88, 51
1, 64949, Control_c, 0, 64, 0
1, 64962, Note_off_c, 0, 92, 62
1, 64967, Note_on_c, 0, 90, 71
1, 64980, Note_on_c, 0, 87, 60
1, 64988, Note_on_c, 0, 60, 40
1, 65001, Note_off_c, 0, 90, 58
1, 65016, Note_off_c, 0, 60, 57
1, 65022, Note_off_c, 0, 87, 62
1, 65034, Note_on_c, 0, 92, 66
1, 65036, Note_on_c, 0, 88, 63
1, 65089, Note_off_c, 0, 88, 58
1, 65102, Note_off_c, 0, 92, 63
1, 65103, Note_on_c, 0, 90, 74
1, 65125, Note_on_c, 0, 87, 58
1, 65133, Note_on_c, 0, 49, 45
1, 65147, Note_off_c, 0, 90, 58
1, 65151, Note_off_c, 0, 87, 53
1, 65173, Note_on_c, 0, 92, 67
1, 65188, Note_on_c, 0, 88, 64
1, 65206, Note_off_c, 0, 49, 53
1, 65230, Note_off_c, 0, 88, 64
1, 65238, Note_off_c, 0, 92, 61
1, 65244, Note_on_c, 0, 90, 66
1, 65251, Note_on_c, 0, 87, 54
1, 65251, Control_c, 0, 64, 33
1, 65262, Note_on_c, 0, 48, 40
1, 65266, Control_c, 0, 64, 56
1, 65281, Control_c, 0, 64, 63
1, 65288, Note_off_c, 0, 90, 54
1, 65296, Control_c, 0, 64, 66
1, 65304, Note_off_c, 0, 87, 61
1, 65311, Control_c, 0, 64, 71
1, 65314, Note_on_c, 0, 92, 67
1, 65325, Control_c, 0, 64, 80
1, 65336, Note_on_c, 0, 88, 57
1, 65341, Control_c, 0, 64, 87
1, 65356, Control_c, 0, 64, 92
1, 65370, Control_c, 0, 64, 96
1, 65371, Note_off_c, 0, 88, 62
1, 65375, Note_off_c, 0, 92, 63
1, 65385, Control_c, 0, 64, 105
1, 65394, Note_on_c, 0, 51, 48
1, 65396, Note_on_c, 0, 87, 58
1, 65396, Note_on_c, 0, 90, 63
1, 65400, Control_c, 0, 64, 127
1, 65419, Note_off_c, 0, 90, 56
1, 65439, Note_off_c, 0, 87, 59
1, 65458, Note_on_c, 0, 92, 66
1, 65466, Note_on_c, 0, 88, 59
1, 65512, Note_off_c, 0, 88, 58
1, 65517, Note_on_c, 0, 90, 63
1, 65519, Note_off_c, 0, 48, 0
1, 65519, Note_on_c, 0, 48, 18
1, 65522, Note_on_c, 0, 60, 55
1, 65522, Note_off_c, 0, 92, 60
1, 65537, Note_on_c, 0, 87, 66
1, 65546, Note_off_c, 0, 60, 60
1, 65546, Note_off_c, 0, 51, 63
1, 65564, Note_off_c, 0, 48, 62
1, 65574, Note_off_c, 0, 90, 55
1, 65585, Note_off_c, 0, 87, 58
1, 65595, Note_on_c, 0, 92, 63
1, 65612, Note_on_c, 0, 88, 65
1, 65656, Note_on_c, 0, 39, 62
1, 65658, Note_off_c, 0, 88, 63
1, 65667, Control_c, 0, 64, 107
1, 65678, Note_on_c, 0, 90, 61
1, 65681, Control_c, 0, 64, 78
1, 65696, Control_c, 0, 64, 48
1, 65697, Note_on_c, 0, 87, 57
1, 65704, Note_off_c, 0, 92, 54
1, 65711, Control_c, 0, 64, 0
1, 65741, Control_c, 0, 64, 56
1, 65755, Control_c, 0, 64, 93
1, 65758, Note_off_c, 0, 90, 64
1, 65758, Note_off_c, 0, 87, 58
1, 65763, Note_on_c, 0, 44, 67
1, 65763, Note_off_c, 0, 39, 56
1, 65770, Note_on_c, 0, 93, 66
1, 65770, Control_c, 0, 64, 127
1, 65772, Note_on_c, 0, 88, 69
1, 65791, Note_off_c, 0, 44, 63
1, 65825, Note_off_c, 0, 88, 58
1, 65849, Note_off_c, 0, 93, 63
1, 65856, Note_on_c, 0, 92, 79
1, 65866, Note_on_c, 0, 89, 56
1, 65900, Note_off_c, 0, 89, 64
1, 65902, Note_off_c, 0, 92, 61
1, 65907, Note_on_c, 0, 52, 56
1, 65923, Note_on_c, 0, 88, 73
1, 65945, Note_on_c, 0, 91, 64
1, 65956, Note_off_c, 0, 88, 56
1, 65976, Note_off_c, 0, 91, 64
1, 65981, Note_on_c, 0, 90, 74
1, 65988, Note_on_c, 0, 87, 65
1, 66000, Control_c, 0, 64, 100
1, 66014, Control_c, 0, 64, 77
1, 66023, Note_off_c, 0, 90, 63
1, 66026, Note_off_c, 0, 87, 61
1, 66029, Control_c, 0, 64, 47
1, 66038, Note_on_c, 0, 61, 61
1, 66044, Control_c, 0, 64, 0
1, 66051, Note_on_c, 0, 86, 64
1, 66054, Note_off_c, 0, 52, 60
1, 66067, Note_on_c, 0, 89, 60
1, 66073, Note_off_c, 0, 61, 61
1, 66075, Note_off_c, 0, 86, 63
1, 66105, Note_off_c, 0, 89, 63
1, 66117, Note_on_c, 0, 85, 69
1, 66119, Note_on_c, 0, 88, 65
1, 66148, Note_off_c, 0, 88, 58
1, 66167, Note_off_c, 0, 85, 63
1, 66178, Note_on_c, 0, 51, 48
1, 66182, Note_on_c, 0, 86, 64
1, 66185, Note_on_c, 0, 89, 64
1, 66214, Note_off_c, 0, 86, 61
1, 66239, Note_off_c, 0, 89, 63
1, 66246, Note_on_c, 0, 90, 69
1, 66247, Note_on_c, 0, 87, 65
1, 66279, Note_off_c, 0, 90, 61
1, 66282, Control_c, 0, 64, 29
1, 66297, Control_c, 0, 64, 61
1, 66298, Note_off_c, 0, 87, 62
1, 66310, Note_off_c, 0, 51, 52
1, 66312, Note_on_c, 0, 88, 68
1, 66312, Control_c, 0, 64, 71
1, 66312, Note_on_c, 0, 49, 50
1, 66317, Note_on_c, 0, 91, 63
1, 66327, Control_c, 0, 64, 79
1, 66342, Control_c, 0, 64, 86
1, 66343, Note_off_c, 0, 88, 61
1, 66356, Control_c, 0, 64, 90
1, 66357, Note_off_c, 0, 91, 63
1, 66365, Note_on_c, 0, 87, 57
1, 66368, Note_on_c, 0, 90, 75
1, 66371, Control_c, 0, 64, 95
1, 66386, Control_c, 0, 64, 104
1, 66401, Control_c, 0, 64, 122
1, 66414, Note_off_c, 0, 90, 47
1, 66416, Control_c, 0, 64, 127
1, 66429, Note_off_c, 0, 87, 61
1, 66440, Note_on_c, 0, 86, 64
1, 66440, Note_on_c, 0, 89, 69
1, 66458, Note_on_c, 0, 52, 49
1, 66479, Note_off_c, 0, 86, 48
1, 66500, Note_on_c, 0, 88, 73
1, 66501, Note_on_c, 0, 85, 68
1, 66503, Note_off_c, 0, 89, 58
1, 66565, Note_on_c, 0, 61, 64
1, 66566, Note_on_c, 0, 87, 65
1, 66566, Note_off_c, 0, 88, 63
1, 66581, Note_on_c, 0, 84, 72
1, 66585, Note_off_c, 0, 85, 63
1, 66591, Note_off_c, 0, 52, 62
1, 66592, Note_off_c, 0, 61, 65
1, 66593, Note_off_c, 0, 87, 66
1, 66611, Note_off_c, 0, 49, 63
1, 66631, Note_off_c, 0, 84, 62
1, 66637, Note_on_c, 0, 83, 72
1, 66637, Note_on_c, 0, 86, 75
1, 66660, Control_c, 0, 64, 109
1, 66675, Control_c, 0, 64, 93
1, 66679, Note_off_c, 0, 83, 62
1, 66690, Control_c, 0, 64, 75
1, 66702, Note_on_c, 0, 32, 71
1, 66705, Control_c, 0, 64, 41
1, 66706, Note_off_c, 0, 86, 61
1, 66712, Note_on_c, 0, 87, 75
1, 66714, Note_on_c, 0, 84, 67
1, 66719, Control_c, 0, 64, 0
1, 66738, Note_off_c, 0, 84, 67
1, 66778, Control_c, 0, 64, 58
1, 66780, Note_on_c, 0, 88, 72
1, 66782, Note_on_c, 0, 85, 70
1, 66793, Control_c, 0, 64, 85
1, 66796, Note_off_c, 0, 87, 60
1, 66808, Control_c, 0, 64, 127
1, 66822, Note_on_c, 0, 44, 67
1, 66824, Note_off_c, 0, 85, 58
1, 66825, Note_off_c, 0, 88, 65
1, 66832, Note_on_c, 0, 86, 69
1, 66833, Note_on_c, 0, 89, 63
1, 66836, Note_off_c, 0, 32, 28
1, 66859, Note_off_c, 0, 44, 61
1, 66866, Note_off_c, 0, 86, 56
1, 66882, Control_c, 0, 67, 127
1, 66891, Note_on_c, 0, 85, 56
1, 66897, Control_c, 0, 67, 126
1, 66905, Note_on_c, 0, 88, 67
1, 66911, Control_c, 0, 67, 125
1, 66921, Note_on_c, 0, 87, 76
1, 66926, Control_c, 0, 67, 125
1, 66935, Note_off_c, 0, 88, 67
1, 66938, Note_off_c, 0, 89, 61
1, 66945, Note_off_c, 0, 87, 69
1, 66951, Note_on_c, 0, 84, 79
1, 66956, Note_off_c, 0, 85, 64
1, 66957, Control_c, 0, 67, 124
1, 66985, Note_on_c, 0, 52, 64
1, 67010, Note_on_c, 0, 86, 76
1, 67022, Note_on_c, 0, 83, 72
1, 67024, Note_off_c, 0, 84, 0
1, 67060, Control_c, 0, 67, 125
1, 67072, Note_on_c, 0, 85, 66
1, 67073, Poly_aftertouch_c, 0, 84, 0
1, 67075, Note_on_c, 0, 82, 78
1, 67084, Note_off_c, 0, 86, 62
1, 67087, Note_off_c, 0, 83, 56
1, 67094, Note_on_c, 0, 61, 64
1, 67105, Control_c, 0, 67, 125
1, 67111, Note_off_c, 0, 52, 61
1, 67122, Note_off_c, 0, 82, 63
1, 67124, Note_off_c, 0, 85, 63
1, 67129, Note_on_c, 0, 81, 68
1, 67129, Note_off_c, 0, 61, 61
1, 67179, Control_c, 0, 67, 126
1, 67189, Note_on_c, 0, 79, 71
1, 67189, Note_off_c, 0, 81, 61
1, 67203, Note_on_c, 0, 83, 61
1, 67205, Note_on_c, 0, 51, 58
1, 67209, Control_c, 0, 67, 126
1, 67224, Control_c, 0, 67, 127
1, 67235, Note_off_c, 0, 83, 65
1, 67239, Control_c, 0, 64, 111
1, 67251, Note_on_c, 0, 85, 74
1, 67252, Note_off_c, 0, 79, 61
1, 67253, Control_c, 0, 64, 88
1, 67268, Control_c, 0, 64, 68
1, 67275, Note_on_c, 0, 81, 54
1, 67283, Control_c, 0, 64, 0
1, 67283, Control_c, 0, 67, 127
1, 67326, Note_off_c, 0, 51, 55
1, 67328, Note_off_c, 0, 81, 61
1, 67330, Note_on_c, 0, 83, 65
1, 67331, Note_off_c, 0, 85, 63
1, 67347, Note_on_c, 0, 79, 47
1, 67353, Note_on_c, 0, 49, 55
1, 67379, Control_c, 0, 64, 15
1, 67388, Note_off_c, 0, 83, 59
1, 67394, Control_c, 0, 64, 52
1, 67394, Note_off_c, 0, 79, 56
1, 67409, Control_c, 0, 64, 64
1, 67409, Note_on_c, 0, 81, 55
1, 67414, Note_on_c, 0, 85, 59
1, 67424, Control_c, 0, 64, 71
1, 67439, Control_c, 0, 64, 82
1, 67454, Control_c, 0, 64, 93
1, 67460, Note_off_c, 0, 81, 56
1, 67469, Control_c, 0, 64, 105
1, 67475, Note_off_c, 0, 85, 63
1, 67481, Note_on_c, 0, 83, 59
1, 67484, Control_c, 0, 64, 120
1, 67499, Control_c, 0, 64, 127
1, 67503, Note_on_c, 0, 79, 55
1, 67505, Note_on_c, 0, 52, 47
1, 67537, Note_off_c, 0, 79, 61
1, 67549, Note_off_c, 0, 83, 60
1, 67571, Note_on_c, 0, 85, 63
1, 67574, Note_on_c, 0, 81, 46
1, 67623, Note_on_c, 0, 61, 65
1, 67624, Note_off_c, 0, 81, 0
1, 67624, Note_on_c, 0, 81, 27
1, 67630, Note_on_c, 0, 83, 44
1, 67630, Note_off_c, 0, 85, 63
1, 67648, Note_off_c, 0, 61, 66
1, 67657, Note_on_c, 0, 79, 52
1, 67657, Note_off_c, 0, 52, 62
1, 67665, Note_off_c, 0, 83, 62
1, 67677, Note_off_c, 0, 49, 63
1, 67701, Note_on_c, 0, 85, 69
1, 67701, Note_off_c, 0, 79, 62
1, 67740, Note_off_c, 0, 81, 58
1, 67753, Note_on_c, 0, 83, 65
1, 67772, Note_on_c, 0, 79, 56
1, 67785, Note_off_c, 0, 85, 62
1, 67810, Note_on_c, 0, 32, 43
1, 67810, Control_c, 0, 64, 109
1, 67810, Control_c, 0, 67, 127
1, 67825, Control_c, 0, 64, 95
1, 67825, Control_c, 0, 67, 126
1, 67828, Note_off_c, 0, 79, 59
1, 67840, Control_c, 0, 64, 82
1, 67840, Control_c, 0, 67, 125
1, 67843, Note_on_c, 0, 76, 59
1, 67849, Note_off_c, 0, 83, 61
1, 67855, Note_on_c, 0, 81, 65
1, 67855, Control_c, 0, 64, 67
1, 67855, Control_c, 0, 67, 124
1, 67865, Note_off_c, 0, 76, 61
1, 67870, Control_c, 0, 64, 43
1, 67870, Control_c, 0, 67, 123
1, 67884, Control_c, 0, 64, 0
1, 67884, Control_c, 0, 67, 119
1, 67899, Control_c, 0, 67, 111
1, 67914, Control_c, 0, 67, 98
1, 67929, Control_c, 0, 67, 84
1, 67944, Control_c, 0, 67, 68
1, 67946, Note_off_c, 0, 81, 59
1, 67958, Control_c, 0, 67, 50
1, 67970, Note_on_c, 0, 75, 63
1, 67971, Note_on_c, 0, 80, 56
1, 67972, Note_on_c, 0, 44, 50
1, 67973, Control_c, 0, 67, 32
1, 67977, Note_off_c, 0, 32, 49
1, 67988, Control_c, 0, 64, 58
1, 67988, Control_c, 0, 67, 15
1, 68002, Control_c, 0, 64, 75
1, 68002, Control_c, 0, 67, 0
1, 68017, Control_c, 0, 64, 100
1, 68018, Note_off_c, 0, 44, 63
1, 68023, Note_off_c, 0, 75, 57
1, 68032, Control_c, 0, 64, 127
1, 68073, Note_off_c, 0, 80, 63
1, 68214, Note_on_c, 0, 51, 57
1, 68436, Note_on_c, 0, 99, 77
1, 68440, Note_on_c, 0, 96, 72
1, 68444, Note_on_c, 0, 60, 53
1, 68476, Note_off_c, 0, 60, 65
1, 68477, Note_off_c, 0, 96, 61
1, 68491, Note_off_c, 0, 99, 63
1, 68511, Note_off_c, 0, 51, 60
1, 68531, Note_on_c, 0, 95, 84
1, 68542, Note_on_c, 0, 98, 77
1, 68593, Note_off_c, 0, 95, 66
1, 68598, Note_on_c, 0, 94, 83
1, 68601, Note_on_c, 0, 97, 78
1, 68601, Note_off_c, 0, 98, 66
1, 68608, Note_on_c, 0, 49, 76
1, 68646, Note_off_c, 0, 97, 62
1, 68663, Note_off_c, 0, 94, 65
1, 68667, Note_on_c, 0, 93, 87
1, 68676, Note_on_c, 0, 96, 80
1, 68693, Note_off_c, 0, 93, 60
1, 68730, Note_on_c, 0, 95, 77
1, 68733, Note_on_c, 0, 92, 84
1, 68737, Control_c, 0, 64, 115
1, 68739, Note_on_c, 0, 48, 91
1, 68750, Note_off_c, 0, 96, 65
1, 68751, Control_c, 0, 64, 83
1, 68752, Note_off_c, 0, 49, 59
1, 68766, Control_c, 0, 64, 55
1, 68768, Note_on_c, 0, 94, 78
1, 68781, Control_c, 0, 64, 0
1, 68785, Note_off_c, 0, 95, 67
1, 68790, Note_off_c, 0, 94, 69
1, 68792, Note_on_c, 0, 91, 79
1, 68807, Note_off_c, 0, 92, 63
1, 68819, Control_c, 0, 64, 31
1, 68833, Control_c, 0, 64, 65
1, 68848, Control_c, 0, 64, 98
1, 68859, Note_off_c, 0, 91, 41
1, 68863, Control_c, 0, 64, 127
1, 68864, Note_on_c, 0, 90, 85
1, 68867, Note_on_c, 0, 93, 78
1, 68886, Note_on_c, 0, 51, 79
1, 68928, Note_on_c, 0, 92, 78
1, 68930, Note_on_c, 0, 89, 81
1, 68938, Note_off_c, 0, 93, 60
1, 68971, Note_off_c, 0, 90, 62
1, 68986, Note_off_c, 0, 89, 61
1, 68993, Note_off_c, 0, 92, 64
1, 69007, Note_on_c, 0, 88, 83
1, 69009, Note_on_c, 0, 60, 89
1, 69017, Note_on_c, 0, 91, 73
1, 69037, Note_off_c, 0, 60, 66
1, 69058, Note_off_c, 0, 51, 63
1, 69065, Note_off_c, 0, 88, 63
1, 69070, Note_on_c, 0, 90, 83
1, 69074, Note_off_c, 0, 91, 64
1, 69075, Note_on_c, 0, 87, 75
1, 69075, Note_off_c, 0, 48, 64
1, 69113, Note_off_c, 0, 90, 65
1, 69129, Note_off_c, 0, 87, 62
1, 69140, Note_on_c, 0, 86, 79
1, 69150, Note_on_c, 0, 89, 71
1, 69155, Note_on_c, 0, 39, 81
1, 69166, Note_off_c, 0, 86, 60
1, 69208, Note_on_c, 0, 88, 76
1, 69209, Note_on_c, 0, 85, 78
1, 69233, Control_c, 0, 64, 89
1, 69233, Note_off_c, 0, 89, 60
1, 69248, Control_c, 0, 64, 55
1, 69263, Note_on_c, 0, 87, 53
1, 69263, Note_off_c, 0, 88, 67
1, 69263, Control_c, 0, 64, 0
1, 69273, Note_off_c, 0, 85, 64
1, 69278, Note_on_c, 0, 44, 76
1, 69282, Note_on_c, 0, 84, 64
1, 69284, Note_off_c, 0, 87, 59
1, 69293, Control_c, 0, 64, 23
1, 69299, Note_off_c, 0, 84, 67
1, 69299, Note_off_c, 0, 39, 56
1, 69307, Control_c, 0, 64, 78
1, 69322, Control_c, 0, 64, 127
1, 69335, Note_on_c, 0, 86, 83
1, 69345, Note_on_c, 0, 83, 77
1, 69401, Note_off_c, 0, 83, 63
1, 69402, Note_on_c, 0, 85, 77
1, 69403, Note_off_c, 0, 86, 61
1, 69408, Note_on_c, 0, 82, 78
1, 69417, Note_on_c, 0, 51, 69
1, 69424, Note_off_c, 0, 44, 58
1, 69448, Note_off_c, 0, 85, 62
1, 69463, Note_off_c, 0, 82, 62
1, 69474, Note_on_c, 0, 81, 78
1, 69479, Note_on_c, 0, 84, 75
1, 69520, Note_off_c, 0, 81, 42
1, 69538, Note_on_c, 0, 83, 76
1, 69540, Note_on_c, 0, 60, 65
1, 69540, Note_on_c, 0, 80, 73
1, 69568, Note_off_c, 0, 84, 62
1, 69585, Note_off_c, 0, 60, 63
1, 69586, Note_on_c, 0, 82, 73
1, 69598, Note_off_c, 0, 83, 62
1, 69603, Note_off_c, 0, 51, 61
1, 69609, Note_on_c, 0, 79, 80
1, 69609, Note_off_c, 0, 80, 63
1, 69610, Note_off_c, 0, 82, 69
1, 69631, Note_off_c, 0, 79, 66
1, 69669, Note_on_c, 0, 78, 76
1, 69671, Note_on_c, 0, 81, 74
1, 69680, Note_on_c, 0, 49, 70
1, 69733, Note_on_c, 0, 80, 72
1, 69734, Note_on_c, 0, 77, 78
1, 69739, Note_off_c, 0, 81, 63
1, 69744, Control_c, 0, 64, 115
1, 69759, Control_c, 0, 64, 82
1, 69770, Note_off_c, 0, 78, 63
1, 69774, Control_c, 0, 64, 56
1, 69782, Note_off_c, 0, 80, 64
1, 69786, Note_off_c, 0, 77, 62
1, 69788, Control_c, 0, 64, 0
1, 69800, Note_off_c, 0, 49, 63
1, 69800, Note_on_c, 0, 76, 79
1, 69803, Note_on_c, 0, 48, 79
1, 69827, Note_on_c, 0, 79, 57
1, 69848, Control_c, 0, 64, 42
1, 69853, Note_off_c, 0, 76, 60
1, 69860, Note_off_c, 0, 79, 64
1, 69862, Control_c, 0, 64, 69
1, 69867, Note_on_c, 0, 75, 71
1, 69867, Note_on_c, 0, 78, 79
1, 69877, Control_c, 0, 64, 87
1, 69877, Control_c, 0, 67, 9
1, 69892, Note_off_c, 0, 78, 68
1, 69892, Control_c, 0, 64, 127
1, 69892, Control_c, 0, 67, 12
1, 69907, Control_c, 0, 67, 15
1, 69922, Control_c, 0, 67, 16
1, 69926, Note_off_c, 0, 75, 62
1, 69934, Note_on_c, 0, 51, 63
1, 69937, Note_on_c, 0, 74, 73
1, 69937, Control_c, 0, 67, 17
1, 69950, Note_on_c, 0, 77, 68
1, 69952, Control_c, 0, 67, 18
1, 69967, Control_c, 0, 67, 20
1, 69971, Note_off_c, 0, 74, 53
1, 69981, Control_c, 0, 67, 24
1, 69992, Note_on_c, 0, 73, 72
1, 69996, Control_c, 0, 67, 31
1, 69997, Note_on_c, 0, 76, 69
1, 70011, Control_c, 0, 67, 37
1, 70017, Note_off_c, 0, 77, 60
1, 70026, Control_c, 0, 67, 45
1, 70041, Control_c, 0, 67, 57
1, 70046, Note_on_c, 0, 75, 64
1, 70051, Note_on_c, 0, 60, 81
1, 70055, Control_c, 0, 67, 73
1, 70056, Note_off_c, 0, 76, 60
1, 70062, Note_on_c, 0, 72, 69
1, 70068, Note_off_c, 0, 73, 61
1, 70070, Control_c, 0, 67, 96
1, 70071, Note_off_c, 0, 75, 67
1, 70073, Note_off_c, 0, 60, 70
1, 70081, Note_off_c, 0, 72, 66
1, 70085, Control_c, 0, 67, 120
1, 70089, Note_off_c, 0, 51, 62
1, 70099, Control_c, 0, 67, 127
1, 70115, Note_off_c, 0, 48, 55
1, 70129, Note_on_c, 0, 74, 76
1, 70137, Note_on_c, 0, 71, 70
1, 70180, Note_off_c, 0, 74, 65
1, 70187, Note_off_c, 0, 71, 64
1, 70190, Control_c, 0, 64, 100
1, 70190, Note_on_c, 0, 70, 79
1, 70191, Note_on_c, 0, 73, 73
1, 70193, Note_on_c, 0, 39, 71
1, 70204, Control_c, 0, 64, 79
1, 70219, Control_c, 0, 64, 37
1, 70230, Note_off_c, 0, 73, 62
1, 70234, Control_c, 0, 64, 0
1, 70252, Note_off_c, 0, 70, 60
1, 70259, Note_on_c, 0, 72, 71
1, 70264, Note_on_c, 0, 69, 70
1, 70264, Control_c, 0, 64, 23
1, 70278, Control_c, 0, 64, 69
1, 70293, Control_c, 0, 64, 103
1, 70309, Note_off_c, 0, 69, 51
1, 70315, Control_c, 0, 64, 127
1, 70321, Note_on_c, 0, 44, 82
1, 70330, Note_on_c, 0, 71, 71
1, 70330, Note_on_c, 0, 68, 72
1, 70332, Note_off_c, 0, 39, 54
1, 70336, Note_off_c, 0, 72, 59
1, 70345, Note_off_c, 0, 44, 65
1, 70360, Control_c, 0, 64, 111
1, 70369, Note_off_c, 0, 71, 61
1, 70372, Note_on_c, 0, 70, 64
1, 70375, Control_c, 0, 64, 73
1, 70386, Note_off_c, 0, 68, 64
1, 70390, Control_c, 0, 64, 0
1, 70392, Note_off_c, 0, 70, 62
1, 70395, Note_on_c, 0, 67, 71
1, 70452, Note_off_c, 0, 67, 62
1, 70453, Note_on_c, 0, 66, 69
1, 70459, Note_on_c, 0, 69, 67
1, 70509, Note_off_c, 0, 66, 56
1, 70510, Note_on_c, 0, 65, 72
1, 70510, Note_off_c, 0, 69, 64
1, 70515, Note_on_c, 0, 68, 67
1, 70557, Note_off_c, 0, 65, 61
1, 70565, Note_off_c, 0, 68, 61
1, 70587, Note_on_c, 0, 64, 73
1, 70618, Note_on_c, 0, 67, 53
1, 70631, Note_off_c, 0, 64, 48
1, 70643, Note_off_c, 0, 67, 57
1, 70654, Note_on_c, 0, 63, 70
1, 70654, Note_on_c, 0, 66, 59
1, 70679, Note_off_c, 0, 66, 67
1, 70693, Note_off_c, 0, 63, 64
1, 70719, Note_on_c, 0, 39, 47
1, 70725, Note_on_c, 0, 62, 62
1, 70735, Note_on_c, 0, 65, 63
1, 70758, Note_off_c, 0, 62, 53
1, 70783, Note_on_c, 0, 61, 60
1, 70804, Note_on_c, 0, 64, 66
1, 70804, Note_off_c, 0, 65, 60
1, 70819, Control_c, 0, 64, 59
1, 70834, Control_c, 0, 64, 90
1, 70837, Note_off_c, 0, 64, 64
1, 70838, Note_on_c, 0, 44, 69
1, 70844, Note_on_c, 0, 63, 48
1, 70849, Control_c, 0, 64, 127
1, 70852, Note_off_c, 0, 61, 63
1, 70858, Note_on_c, 0, 60, 62
1, 70869, Note_off_c, 0, 44, 63
1, 70870, Note_off_c, 0, 63, 59
1, 70879, Note_off_c, 0, 60, 64
1, 70909, Control_c, 0, 64, 110
1, 70909, Note_off_c, 0, 39, 34
1, 70924, Control_c, 0, 64, 91
1, 70930, Note_on_c, 0, 62, 58
1, 70939, Control_c, 0, 64, 71
1, 70941, Note_on_c, 0, 59, 58
1, 70954, Control_c, 0, 64, 28
1, 70969, Note_off_c, 0, 59, 57
1, 70969, Control_c, 0, 64, 0
1, 70971, Note_off_c, 0, 62, 57
1, 70975, Note_on_c, 0, 61, 70
1, 70986, Note_on_c, 0, 58, 64
1, 71014, Note_off_c, 0, 61, 61
1, 71038, Note_off_c, 0, 58, 62
1, 71061, Note_on_c, 0, 60, 63
1, 71065, Note_on_c, 0, 57, 65
1, 71108, Note_off_c, 0, 57, 63
1, 71117, Note_on_c, 0, 56, 67
1, 71120, Note_off_c, 0, 60, 63
1, 71121, Note_on_c, 0, 59, 63
1, 71163, Note_off_c, 0, 59, 65
1, 71174, Note_on_c, 0, 58, 45
1, 71177, Note_off_c, 0, 56, 63
1, 71190, Note_on_c, 0, 55, 64
1, 71201, Note_off_c, 0, 58, 57
1, 71249, Note_off_c, 0, 55, 59
1, 71251, Note_on_c, 0, 39, 57
1, 71257, Note_on_c, 0, 57, 69
1, 71263, Note_on_c, 0, 54, 49
1, 71301, Note_on_c, 0, 56, 61
1, 71307, Note_off_c, 0, 57, 62
1, 71308, Note_on_c, 0, 53, 64
1, 71341, Note_off_c, 0, 54, 60
1, 71347, Control_c, 0, 64, 40
1, 71353, Note_off_c, 0, 56, 54
1, 71353, Note_off_c, 0, 53, 66
1, 71360, Note_on_c, 0, 44, 73
1, 71361, Control_c, 0, 64, 97
1, 71374, Note_on_c, 0, 52, 73
1, 71376, Control_c, 0, 64, 127
1, 71386, Note_on_c, 0, 55, 64
1, 71387, Note_off_c, 0, 39, 59
1, 71389, Note_off_c, 0, 44, 64
1, 71391, Control_c, 0, 64, 103
1, 71406, Control_c, 0, 64, 71
1, 71421, Control_c, 0, 64, 0
1, 71421, Note_off_c, 0, 55, 64
1, 71428, Note_off_c, 0, 52, 61
1, 71439, Note_on_c, 0, 51, 67
1, 71445, Note_on_c, 0, 54, 63
1, 71471, Note_off_c, 0, 54, 66
1, 71487, Note_off_c, 0, 51, 63
1, 71504, Note_on_c, 0, 50, 72
1, 71508, Note_on_c, 0, 53, 59
1, 71553, Note_off_c, 0, 50, 65
1, 71553, Note_off_c, 0, 53, 64
1, 71564, Note_on_c, 0, 49, 63
1, 71567, Note_on_c, 0, 52, 59
1, 71623, Note_off_c, 0, 52, 56
1, 71624, Note_off_c, 0, 49, 59
1, 71636, Note_on_c, 0, 51, 57
1, 71651, Note_on_c, 0, 48, 58
1, 71678, Note_off_c, 0, 51, 60
1, 71690, Note_off_c, 0, 48, 62
1, 71711, Note_on_c, 0, 52, 38
1, 71722, Note_on_c, 0, 49, 47
1, 71754, Note_off_c, 0, 49, 55
1, 71782, Note_off_c, 0, 52, 60
1, 71785, Note_on_c, 0, 51, 55
1, 71789, Note_on_c, 0, 48, 49
1, 71840, Note_off_c, 0, 48, 62
1, 71861, Note_off_c, 0, 51, 62
1, 71869, Note_on_c, 0, 49, 41
1, 71882, Note_on_c, 0, 52, 51
1, 71918, Note_off_c, 0, 49, 61
1, 71932, Note_on_c, 0, 44, 55
1, 71934, Note_on_c, 0, 32, 53
1, 71935, Note_off_c, 0, 52, 62
1, 71940, Note_on_c, 0, 48, 53
1, 71959, Note_on_c, 0, 51, 46
1, 71960, Note_off_c, 0, 44, 56
1, 71964, Note_off_c, 0, 32, 55
1, 71980, Note_off_c, 0, 48, 60
1, 72002, Note_off_c, 0, 51, 63
1, 72021, Note_on_c, 0, 49, 42
1, 72032, Note_on_c, 0, 52, 54
1, 72057, Note_off_c, 0, 49, 51
1, 72083, Note_off_c, 0, 52, 60
1, 72091, Note_on_c, 0, 48, 36
1, 72105, Note_on_c, 0, 51, 54
1, 72144, Note_off_c, 0, 51, 61
1, 72146, Note_off_c, 0, 48, 57
1, 72176, Note_on_c, 0, 52, 42
1, 72177, Note_on_c, 0, 49, 32
1, 72220, Note_off_c, 0, 49, 59
1, 72232, Note_off_c, 0, 52, 61
1, 72247, Note_on_c, 0, 51, 46
1, 72257, Note_on_c, 0, 44, 38
1, 72260, Note_on_c, 0, 32, 42
1, 72262, Note_on_c, 0, 48, 52
1, 72292, Note_off_c, 0, 44, 51
1, 72292, Note_off_c, 0, 48, 62
1, 72297, Note_off_c, 0, 32, 46
1, 72302, Note_off_c, 0, 51, 62
1, 72326, Note_on_c, 0, 52, 48
1, 72345, Note_on_c, 0, 49, 24
1, 72384, Note_off_c, 0, 49, 54
1, 72387, Note_off_c, 0, 52, 60
1, 72409, Note_on_c, 0, 48, 25
1, 72409, Note_on_c, 0, 51, 50
1, 72450, Note_off_c, 0, 51, 59
1, 72472, Note_off_c, 0, 48, 53
1, 72477, Note_on_c, 0, 52, 39
1, 72501, Note_on_c, 0, 49, 30
1, 72624, Note_off_c, 0, 52, 38
1, 72641, Note_on_c, 0, 51, 38
1, 72657, Note_on_c, 0, 44, 25
1, 72657, Note_on_c, 0, 48, 26
1, 72657, Note_off_c, 0, 49, 41
1, 72661, Note_on_c, 0, 32, 28
1, 72739, Note_off_c, 0, 48, 51
1, 72770, Note_off_c, 0, 32, 35
1, 72792, Note_off_c, 0, 44, 39
1, 72808, Note_off_c, 0, 51, 42
1, 73111, Control_c, 0, 67, 125
1, 73125, Control_c, 0, 67, 123
1, 73140, Control_c, 0, 67, 119
1, 73155, Control_c, 0, 67, 115
1, 73170, Control_c, 0, 64, 13
1, 73170, Control_c, 0, 67, 110
1, 73185, Control_c, 0, 64, 23
1, 73185, Control_c, 0, 67, 104
1, 73199, Control_c, 0, 64, 32
1, 73199, Control_c, 0, 67, 99
1, 73214, Control_c, 0, 64, 38
1, 73214, Control_c, 0, 67, 96
1, 73229, Control_c, 0, 64, 44
1, 73229, Control_c, 0, 67, 92
1, 73244, Control_c, 0, 64, 47
1, 73244, Control_c, 0, 67, 87
1, 73259, Control_c, 0, 64, 49
1, 73259, Control_c, 0, 67, 81
1, 73273, Control_c, 0, 64, 51
1, 73273, Control_c, 0, 67, 74
1, 73288, Control_c, 0, 64, 54
1, 73288, Control_c, 0, 67, 70
1, 73311, Control_c, 0, 64, 56
1, 73311, Control_c, 0, 67, 68
1, 73326, Control_c, 0, 64, 58
1, 73326, Control_c, 0, 67, 66
1, 73341, Control_c, 0, 64, 59
1, 73341, Control_c, 0, 67, 64
1, 73356, Control_c, 0, 64, 60
1, 73356, Control_c, 0, 67, 59
1, 73371, Control_c, 0, 64, 61
1, 73371, Control_c, 0, 67, 54
1, 73386, Control_c, 0, 64, 62
1, 73386, Control_c, 0, 67, 48
1, 73401, Control_c, 0, 64, 64
1, 73401, Control_c, 0, 67, 44
1, 73416, Control_c, 0, 64, 66
1, 73416, Control_c, 0, 67, 42
1, 73429, Control_c, 0, 64, 68
1, 73429, Control_c, 0, 67, 40
1, 73444, Control_c, 0, 64, 69
1, 73444, Control_c, 0, 67, 38
1, 73459, Control_c, 0, 64, 71
1, 73459, Control_c, 0, 67, 35
1, 73468, Note_on_c, 0, 58, 49
1, 73474, Control_c, 0, 64, 72
1, 73474, Control_c, 0, 67, 31
1, 73475, Note_on_c, 0, 52, 45
1, 73487, Note_on_c, 0, 56, 38
1, 73489, Control_c, 0, 64, 74
1, 73489, Control_c, 0, 67, 24
1, 73493, Note_on_c, 0, 37, 28
1, 73503, Control_c, 0, 64, 75
1, 73503, Control_c, 0, 67, 19
1, 73505, Note_on_c, 0, 44, 16
1, 73518, Control_c, 0, 64, 77
1, 73518, Control_c, 0, 67, 15
1, 73533, Control_c, 0, 64, 78
1, 73533, Control_c, 0, 67, 11
1, 73547, Control_c, 0, 64, 79
1, 73547, Control_c, 0, 67, 0
1, 73562, Control_c, 0, 64, 81
1, 73577, Control_c, 0, 64, 83
1, 73592, Control_c, 0, 64, 85
1, 73607, Control_c, 0, 64, 87
1, 73621, Control_c, 0, 64, 89
1, 73636, Control_c, 0, 64, 90
1, 73645, Note_off_c, 0, 44, 39
1, 73651, Control_c, 0, 64, 92
1, 73666, Control_c, 0, 64, 94
1, 73681, Control_c, 0, 64, 96
1, 73696, Control_c, 0, 64, 97
1, 73711, Control_c, 0, 64, 98
1, 73717, Note_off_c, 0, 52, 37
1, 73726, Control_c, 0, 64, 100
1, 73741, Control_c, 0, 64, 101
1, 73755, Control_c, 0, 64, 101
1, 73770, Control_c, 0, 64, 102
1, 73778, Note_off_c, 0, 56, 45
1, 73785, Control_c, 0, 64, 102
1, 73800, Control_c, 0, 64, 103
1, 73815, Control_c, 0, 64, 103
1, 73874, Control_c, 0, 64, 104
1, 74179, Control_c, 0, 64, 103
1, 74342, Control_c, 0, 64, 103
1, 74357, Control_c, 0, 64, 102
1, 74371, Control_c, 0, 64, 100
1, 74386, Control_c, 0, 64, 100
1, 74401, Control_c, 0, 64, 99
1, 74416, Control_c, 0, 64, 97
1, 74431, Control_c, 0, 64, 94
1, 74441, Note_on_c, 0, 60, 38
1, 74445, Control_c, 0, 64, 89
1, 74450, Note_on_c, 0, 32, 33
1, 74450, Note_on_c, 0, 44, 29
1, 74459, Note_on_c, 0, 56, 37
1, 74460, Control_c, 0, 64, 85
1, 74468, Note_on_c, 0, 51, 36
1, 74475, Control_c, 0, 64, 82
1, 74490, Control_c, 0, 64, 80
1, 74505, Control_c, 0, 64, 76
1, 74520, Control_c, 0, 64, 72
1, 74528, Note_off_c, 0, 37, 32
1, 74534, Control_c, 0, 64, 66
1, 74535, Note_off_c, 0, 58, 31
1, 74549, Control_c, 0, 64, 60
1, 74564, Control_c, 0, 64, 48
1, 74578, Control_c, 0, 64, 35
1, 74593, Control_c, 0, 64, 0
1, 74668, Control_c, 0, 64, 42
1, 74683, Control_c, 0, 64, 59
1, 74697, Control_c, 0, 64, 65
1, 74712, Control_c, 0, 64, 68
1, 74727, Control_c, 0, 64, 71
1, 74742, Control_c, 0, 64, 74
1, 74757, Control_c, 0, 64, 77
1, 74771, Control_c, 0, 64, 80
1, 74786, Control_c, 0, 64, 81
1, 74808, Control_c, 0, 64, 81
1, 74817, Note_off_c, 0, 32, 39
1, 74826, Note_off_c, 0, 51, 43
1, 74836, Note_off_c, 0, 44, 37
1, 74838, Control_c, 0, 64, 82
1, 74852, Note_off_c, 0, 60, 52
1, 74852, Control_c, 0, 64, 83
1, 74867, Control_c, 0, 64, 86
1, 74874, Note_off_c, 0, 56, 34
1, 74882, Control_c, 0, 64, 90
1, 74897, Control_c, 0, 64, 91
1, 74912, Control_c, 0, 64, 92
1, 74928, Control_c, 0, 64, 92
1, 74957, Control_c, 0, 64, 93
1, 75121, Control_c, 0, 64, 92
1, 75150, Control_c, 0, 64, 91
1, 75165, Control_c, 0, 64, 88
1, 75180, Control_c, 0, 64, 86
1, 75194, Control_c, 0, 64, 84
1, 75209, Control_c, 0, 64, 82
1, 75224, Control_c, 0, 64, 80
1, 75239, Control_c, 0, 64, 75
1, 75254, Control_c, 0, 64, 70
1, 75268, Control_c, 0, 64, 63
1, 75283, Control_c, 0, 64, 53
1, 75298, Control_c, 0, 64, 37
1, 75313, Control_c, 0, 64, 0
1, 75416, Control_c, 0, 64, 31
1, 75423, Note_on_c, 0, 39, 70
1, 75431, Control_c, 0, 64, 67
1, 75446, Control_c, 0, 64, 99
1, 75461, Control_c, 0, 64, 127
1, 75515, Note_off_c, 0, 39, 60
1, 75751, Note_on_c, 0, 55, 75
1, 75911, Note_on_c, 0, 61, 76
1, 75914, Note_off_c, 0, 55, 60
1, 76025, Note_on_c, 0, 63, 80
1, 76402, Note_on_c, 0, 70, 66
1, 77124, Note_off_c, 0, 61, 34
1, 77299, Note_off_c, 0, 63, 39
1, 78171, Note_on_c, 0, 72, 47
1, 78184, Note_on_c, 0, 63, 41
1, 78190, Note_on_c, 0, 60, 35
1, 78199, Note_on_c, 0, 44, 34
1, 78208, Note_on_c, 0, 56, 22
1, 78222, Note_on_c, 0, 51, 30
1, 78233, Control_c, 0, 64, 117
1, 78248, Control_c, 0, 64, 104
1, 78263, Control_c, 0, 64, 94
1, 78278, Control_c, 0, 64, 85
1, 78292, Control_c, 0, 64, 76
1, 78307, Control_c, 0, 64, 66
1, 78322, Control_c, 0, 64, 53
1, 78337, Control_c, 0, 64, 38
1, 78344, Note_off_c, 0, 70, 40
1, 78352, Control_c, 0, 64, 33
1, 78367, Control_c, 0, 64, 0
1, 78552, Control_c, 0, 64, 52
1, 78567, Control_c, 0, 64, 62
1, 78582, Control_c, 0, 64, 66
1, 78596, Control_c, 0, 64, 70
1, 78611, Control_c, 0, 64, 74
1, 78626, Control_c, 0, 64, 78
1, 78641, Control_c, 0, 64, 82
1, 78656, Control_c, 0, 64, 85
1, 78671, Control_c, 0, 64, 89
1, 78686, Control_c, 0, 64, 93
1, 78700, Control_c, 0, 64, 98
1, 78715, Control_c, 0, 64, 103
1, 78730, Control_c, 0, 64, 109
1, 78744, Control_c, 0, 64, 117
1, 78759, Control_c, 0, 64, 127
1, 80273, Note_off_c, 0, 72, 36
1, 80550, Note_off_c, 0, 60, 35
1, 80606, Note_off_c, 0, 63, 37
1, 80750, Note_off_c, 0, 44, 34
1, 80802, Note_off_c, 0, 56, 33
1, 80956, Note_off_c, 0, 51, 34
1, 81436, Control_c, 0, 64, 117
1, 81451, Control_c, 0, 64, 114
1, 81466, Control_c, 0, 64, 111
1, 81481, Control_c, 0, 64, 108
1, 81496, Control_c, 0, 64, 106
1, 81510, Control_c, 0, 64, 104
1, 81525, Control_c, 0, 64, 101
1, 81548, Control_c, 0, 64, 100
1, 81562, Control_c, 0, 64, 99
1, 81577, Control_c, 0, 64, 98
1, 81592, Control_c, 0, 64, 97
1, 81607, Control_c, 0, 64, 96
1, 81622, Control_c, 0, 64, 95
1, 81637, Control_c, 0, 64, 93
1, 81651, Control_c, 0, 64, 91
1, 81666, Control_c, 0, 64, 89
1, 81681, Control_c, 0, 64, 87
1, 81695, Control_c, 0, 64, 85
1, 81710, Control_c, 0, 64, 83
1, 81725, Control_c, 0, 64, 81
1, 81740, Control_c, 0, 64, 79
1, 81755, Control_c, 0, 64, 77
1, 81769, Control_c, 0, 64, 74
1, 81784, Control_c, 0, 64, 72
1, 81799, Control_c, 0, 64, 71
1, 81814, Control_c, 0, 64, 71
1, 81843, Control_c, 0, 64, 70
1, 81858, Control_c, 0, 64, 70
1, 82007, Control_c, 0, 64, 69
1, 82021, Control_c, 0, 64, 69
1, 82036, Control_c, 0, 64, 68
1, 82051, Control_c, 0, 64, 67
1, 82066, Control_c, 0, 64, 66
1, 82080, Control_c, 0, 64, 66
1, 82095, Control_c, 0, 64, 65
1, 82111, Control_c, 0, 64, 65
1, 82126, Control_c, 0, 64, 64
1, 82141, Control_c, 0, 64, 63
1, 82156, Control_c, 0, 64, 63
1, 82171, Control_c, 0, 64, 62
1, 82185, Control_c, 0, 64, 62
1, 82200, Control_c, 0, 64, 61
1, 82259, Control_c, 0, 64, 61
1, 82296, Control_c, 0, 64, 60
1, 82326, Control_c, 0, 64, 60
1, 82355, Control_c, 0, 64, 59
1, 82370, Control_c, 0, 64, 58
1, 82385, Control_c, 0, 64, 58
1, 82400, Control_c, 0, 64, 57
1, 82415, Control_c, 0, 64, 56
1, 82430, Control_c, 0, 64, 55
1, 82445, Control_c, 0, 64, 54
1, 82460, Control_c, 0, 64, 53
1, 82474, Control_c, 0, 64, 52
1, 82489, Control_c, 0, 64, 51
1, 82504, Control_c, 0, 64, 50
1, 82518, Control_c, 0, 64, 48
1, 82533, Control_c, 0, 64, 45
1, 82548, Control_c, 0, 64, 42
1, 82563, Control_c, 0, 64, 40
1, 82578, Control_c, 0, 64, 36
1, 82592, Control_c, 0, 64, 20
1, 82607, Control_c, 0, 64, 0
1, 82682, End_track
0, 0, End_of_file
