0, 0, Header, 0, 1, 384
1, 0, Start_track
1, 0, Title_t, "Sonata in D,K119--Cai           "
1, 0, Text_t, "2009 International Piano-e-Competition finals"
1, 0, Text_t, "captured June-July 2009"
1, 0, Text_t, "http://www.piano-e-competition.com/"
1, 0, Text_t, "standard-resolution version"
1, 0, Text_t, "File processed for distribution by software from Zenph Studios, Inc., http://www.zenph.com"
1, 0, Instrument_name_t, "Yamaha Disklavier Pro Mark IV concert grand piano, model DCFIIISM4PRO"
1, 0, Sequencer_specific, 39, 67, 113, 0, 1, 0, 1, 0, 83, 111, 110, 97, 116, 97, 32, 105, 110, 32, 68, 44, 75, 49, 49, 57, 67, 104, 97, 111, 121, 105, 110, 32, 67, 97, 105, 32, 32, 32, 32, 32
1, 0, Sequencer_specific, 6, 67, 113, 0, 0, 0, 69
1, 0, System_exclusive, 21, 67, 113, 126, 21, 0, 2, 2, 1, 1, 13, 3, 4, 10, 4, 14, 3, 10, 0, 5, 3, 247
1, 0, Sequencer_specific, 5, 67, 123, 12, 2, 1
1, 0, Tempo, 512820
1, 0, Time_signature, 4, 2, 24, 8
1, 0, System_exclusive, 5, 126, 127, 9, 1, 247
1, 1, System_exclusive, 8, 67, 16, 76, 0, 0, 126, 0, 247
1, 2, System_exclusive, 8, 67, 16, 76, 8, 9, 7, 1, 247
1, 3, Control_c, 0, 0, 0
1, 3, Control_c, 1, 0, 0
1, 3, Control_c, 2, 0, 0
1, 3, Control_c, 3, 0, 0
1, 3, Control_c, 4, 0, 0
1, 3, Control_c, 5, 0, 0
1, 3, Control_c, 6, 0, 0
1, 3, Control_c, 7, 0, 0
1, 3, Control_c, 8, 0, 0
1, 3, Control_c, 9, 0, 127
1, 3, Control_c, 10, 0, 0
1, 3, Control_c, 11, 0, 0
1, 3, Control_c, 12, 0, 0
1, 3, Control_c, 13, 0, 0
1, 3, Control_c, 14, 0, 0
1, 3, Control_c, 15, 0, 0
1, 4, Control_c, 0, 32, 0
1, 4, Control_c, 1, 32, 0
1, 4, Control_c, 2, 32, 0
1, 4, Control_c, 3, 32, 0
1, 4, Control_c, 4, 32, 0
1, 4, Control_c, 5, 32, 0
1, 4, Control_c, 6, 32, 0
1, 4, Control_c, 7, 32, 0
1, 4, Control_c, 8, 32, 0
1, 4, Control_c, 9, 32, 0
1, 4, Control_c, 10, 32, 0
1, 4, Control_c, 11, 32, 0
1, 4, Control_c, 12, 32, 0
1, 4, Control_c, 13, 32, 0
1, 4, Control_c, 14, 32, 0
1, 4, Control_c, 15, 32, 0
1, 5, Program_c, 0, 0
1, 5, Program_c, 1, 0
1, 5, Program_c, 2, 0
1, 5, Program_c, 3, 0
1, 5, Program_c, 4, 0
1, 5, Program_c, 5, 0
1, 5, Program_c, 6, 0
1, 5, Program_c, 7, 0
1, 5, Program_c, 8, 0
1, 5, Program_c, 9, 0
1, 5, Program_c, 10, 0
1, 5, Program_c, 11, 0
1, 5, Program_c, 12, 0
1, 5, Program_c, 13, 0
1, 5, Program_c, 14, 0
1, 5, Program_c, 15, 0
1, 6, Control_c, 0, 7, 100
1, 6, Control_c, 1, 7, 100
1, 6, Control_c, 2, 7, 100
1, 6, Control_c, 3, 7, 100
1, 6, Control_c, 4, 7, 100
1, 6, Control_c, 5, 7, 100
1, 6, Control_c, 6, 7, 100
1, 6, Control_c, 7, 7, 100
1, 6, Control_c, 8, 7, 100
1, 6, Control_c, 9, 7, 100
1, 6, Control_c, 10, 7, 100
1, 6, Control_c, 11, 7, 100
1, 6, Control_c, 12, 7, 100
1, 6, Control_c, 13, 7, 100
1, 6, Control_c, 14, 7, 100
1, 6, Control_c, 15, 7, 100
1, 1134, Note_on_c, 0, 38, 47
1, 1135, Control_c, 0, 64, 48
1, 1150, Control_c, 0, 64, 62
1, 1165, Control_c, 0, 64, 68
1, 1181, Control_c, 0, 64, 84
1, 1182, Note_on_c, 0, 45, 68
1, 1196, Control_c, 0, 64, 127
1, 1198, Note_on_c, 0, 62, 90
1, 1198, Note_off_c, 0, 38, 62
1, 1202, Note_on_c, 0, 50, 80
1, 1206, Note_off_c, 0, 45, 67
1, 1213, Note_off_c, 0, 62, 73
1, 1226, Note_off_c, 0, 50, 66
1, 1240, Control_c, 0, 64, 76
1, 1262, Control_c, 0, 64, 0
1, 1367, Note_on_c, 0, 62, 78
1, 1392, Note_off_c, 0, 62, 66
1, 1524, Note_on_c, 0, 66, 71
1, 1545, Note_off_c, 0, 66, 72
1, 1623, Note_on_c, 0, 38, 47
1, 1661, Note_on_c, 0, 45, 68
1, 1678, Control_c, 0, 64, 34
1, 1680, Note_on_c, 0, 50, 86
1, 1680, Note_on_c, 0, 62, 93
1, 1687, Note_off_c, 0, 38, 63
1, 1692, Control_c, 0, 64, 125
1, 1694, Note_off_c, 0, 45, 70
1, 1701, Note_off_c, 0, 50, 68
1, 1707, Control_c, 0, 64, 127
1, 1709, Note_off_c, 0, 62, 61
1, 1781, Control_c, 0, 64, 66
1, 1796, Control_c, 0, 64, 0
1, 1835, Note_on_c, 0, 69, 91
1, 1858, Note_off_c, 0, 69, 70
1, 1998, Note_on_c, 0, 66, 79
1, 2026, Note_off_c, 0, 66, 73
1, 2080, Note_on_c, 0, 38, 59
1, 2103, Note_on_c, 0, 45, 60
1, 2136, Note_on_c, 0, 50, 92
1, 2137, Note_off_c, 0, 38, 64
1, 2141, Note_on_c, 0, 62, 98
1, 2144, Control_c, 0, 64, 72
1, 2157, Note_off_c, 0, 45, 65
1, 2158, Note_off_c, 0, 50, 71
1, 2158, Control_c, 0, 64, 127
1, 2172, Note_off_c, 0, 62, 62
1, 2262, Control_c, 0, 64, 50
1, 2277, Control_c, 0, 64, 0
1, 2292, Note_on_c, 0, 74, 95
1, 2325, Note_off_c, 0, 74, 69
1, 2439, Note_on_c, 0, 69, 79
1, 2464, Note_off_c, 0, 69, 67
1, 2547, Note_on_c, 0, 38, 64
1, 2565, Note_on_c, 0, 45, 71
1, 2582, Note_on_c, 0, 62, 93
1, 2588, Control_c, 0, 64, 54
1, 2592, Note_off_c, 0, 38, 62
1, 2592, Note_on_c, 0, 50, 87
1, 2598, Note_off_c, 0, 45, 68
1, 2603, Control_c, 0, 64, 127
1, 2614, Note_off_c, 0, 50, 68
1, 2614, Note_off_c, 0, 62, 60
1, 2736, Note_on_c, 0, 78, 94
1, 2758, Control_c, 0, 64, 65
1, 2768, Note_off_c, 0, 78, 65
1, 2773, Control_c, 0, 64, 0
1, 2901, Note_on_c, 0, 74, 80
1, 2919, Note_off_c, 0, 74, 74
1, 2997, Note_on_c, 0, 38, 66
1, 3012, Note_on_c, 0, 45, 68
1, 3026, Control_c, 0, 64, 68
1, 3032, Note_on_c, 0, 62, 101
1, 3039, Note_on_c, 0, 50, 85
1, 3041, Control_c, 0, 64, 127
1, 3044, Note_off_c, 0, 38, 66
1, 3050, Note_off_c, 0, 45, 66
1, 3058, Note_off_c, 0, 50, 72
1, 3061, Note_off_c, 0, 62, 67
1, 3188, Note_on_c, 0, 86, 104
1, 3188, Control_c, 0, 64, 64
1, 3203, Control_c, 0, 64, 0
1, 3216, Note_off_c, 0, 86, 69
1, 3328, Note_on_c, 0, 81, 97
1, 3348, Note_off_c, 0, 81, 66
1, 3412, Note_on_c, 0, 38, 52
1, 3450, Note_on_c, 0, 45, 64
1, 3470, Control_c, 0, 64, 74
1, 3473, Note_on_c, 0, 62, 95
1, 3476, Note_on_c, 0, 50, 89
1, 3477, Note_off_c, 0, 38, 64
1, 3485, Control_c, 0, 64, 127
1, 3487, Note_off_c, 0, 45, 67
1, 3502, Note_off_c, 0, 50, 68
1, 3503, Note_off_c, 0, 62, 66
1, 3628, Note_on_c, 0, 74, 87
1, 3649, Note_off_c, 0, 74, 68
1, 3656, Note_on_c, 0, 72, 40
1, 3682, Note_off_c, 0, 72, 59
1, 3690, Note_on_c, 0, 76, 90
1, 3730, Control_c, 0, 64, 79
1, 3739, Note_off_c, 0, 76, 63
1, 3745, Control_c, 0, 64, 61
1, 3760, Control_c, 0, 64, 0
1, 3764, Note_on_c, 0, 77, 81
1, 3765, Note_on_c, 0, 78, 30
1, 3795, Note_on_c, 0, 79, 69
1, 3806, Note_off_c, 0, 77, 62
1, 3821, Note_off_c, 0, 78, 46
1, 3842, Note_on_c, 0, 81, 96
1, 3854, Note_off_c, 0, 79, 64
1, 3859, Note_off_c, 0, 81, 70
1, 3989, Note_on_c, 0, 69, 86
1, 3993, Note_on_c, 0, 45, 44
1, 4011, Note_off_c, 0, 69, 69
1, 4026, Note_on_c, 0, 47, 57
1, 4028, Note_off_c, 0, 45, 65
1, 4089, Note_on_c, 0, 49, 63
1, 4103, Note_off_c, 0, 47, 62
1, 4118, Note_on_c, 0, 81, 78
1, 4148, Note_off_c, 0, 81, 62
1, 4154, Note_on_c, 0, 50, 61
1, 4171, Note_off_c, 0, 49, 58
1, 4209, Note_off_c, 0, 50, 61
1, 4221, Note_on_c, 0, 52, 64
1, 4259, Note_on_c, 0, 79, 82
1, 4282, Note_off_c, 0, 79, 65
1, 4300, Note_off_c, 0, 52, 64
1, 4306, Note_on_c, 0, 54, 62
1, 4386, Note_off_c, 0, 54, 58
1, 4387, Note_on_c, 0, 55, 63
1, 4401, Note_on_c, 0, 67, 72
1, 4424, Note_off_c, 0, 67, 68
1, 4428, Note_off_c, 0, 55, 64
1, 4438, Note_on_c, 0, 57, 68
1, 4512, Note_off_c, 0, 57, 60
1, 4526, Note_on_c, 0, 59, 63
1, 4541, Note_on_c, 0, 79, 81
1, 4569, Note_off_c, 0, 79, 63
1, 4597, Note_on_c, 0, 61, 77
1, 4604, Note_off_c, 0, 59, 57
1, 4664, Note_off_c, 0, 61, 62
1, 4668, Note_on_c, 0, 62, 77
1, 4670, Note_on_c, 0, 78, 97
1, 4686, Note_off_c, 0, 78, 72
1, 4712, Note_off_c, 0, 62, 60
1, 4723, Note_on_c, 0, 64, 71
1, 4791, Note_off_c, 0, 64, 64
1, 4793, Note_on_c, 0, 66, 72
1, 4808, Note_on_c, 0, 74, 84
1, 4826, Note_off_c, 0, 74, 70
1, 4865, Note_on_c, 0, 67, 71
1, 4866, Note_off_c, 0, 66, 66
1, 4896, Note_off_c, 0, 67, 62
1, 4921, Note_on_c, 0, 69, 66
1, 4938, Note_on_c, 0, 76, 85
1, 4958, Note_off_c, 0, 69, 54
1, 4973, Note_off_c, 0, 76, 57
1, 4976, Note_on_c, 0, 71, 72
1, 5027, Note_on_c, 0, 73, 81
1, 5030, Note_off_c, 0, 71, 64
1, 5065, Note_off_c, 0, 73, 66
1, 5066, Note_on_c, 0, 74, 93
1, 5075, Note_on_c, 0, 78, 81
1, 5087, Note_off_c, 0, 74, 72
1, 5096, Note_off_c, 0, 78, 64
1, 5225, Note_on_c, 0, 74, 72
1, 5261, Note_off_c, 0, 74, 53
1, 5291, Note_on_c, 0, 76, 67
1, 5328, Note_off_c, 0, 76, 65
1, 5332, Note_on_c, 0, 78, 62
1, 5388, Note_off_c, 0, 78, 64
1, 5390, Note_on_c, 0, 79, 71
1, 5445, Note_on_c, 0, 81, 81
1, 5447, Note_off_c, 0, 79, 62
1, 5463, Note_off_c, 0, 81, 71
1, 5587, Note_on_c, 0, 69, 72
1, 5600, Note_on_c, 0, 45, 52
1, 5610, Note_off_c, 0, 69, 72
1, 5643, Note_off_c, 0, 45, 64
1, 5661, Note_on_c, 0, 47, 54
1, 5723, Note_on_c, 0, 81, 73
1, 5725, Note_off_c, 0, 47, 59
1, 5732, Note_on_c, 0, 49, 55
1, 5755, Note_off_c, 0, 81, 65
1, 5797, Note_off_c, 0, 49, 59
1, 5808, Note_on_c, 0, 50, 57
1, 5852, Note_off_c, 0, 50, 63
1, 5864, Note_on_c, 0, 79, 72
1, 5871, Note_on_c, 0, 52, 63
1, 5886, Note_off_c, 0, 79, 66
1, 5935, Note_off_c, 0, 52, 62
1, 5943, Note_on_c, 0, 54, 65
1, 5991, Note_on_c, 0, 67, 67
1, 6012, Note_on_c, 0, 55, 59
1, 6014, Note_off_c, 0, 54, 57
1, 6014, Note_off_c, 0, 67, 69
1, 6055, Note_off_c, 0, 55, 64
1, 6067, Note_on_c, 0, 57, 65
1, 6132, Note_on_c, 0, 79, 68
1, 6132, Note_off_c, 0, 57, 60
1, 6138, Note_on_c, 0, 59, 64
1, 6165, Note_off_c, 0, 79, 64
1, 6200, Note_off_c, 0, 59, 63
1, 6216, Note_on_c, 0, 61, 60
1, 6267, Note_on_c, 0, 78, 78
1, 6273, Note_off_c, 0, 61, 62
1, 6278, Note_on_c, 0, 62, 71
1, 6288, Note_off_c, 0, 78, 68
1, 6328, Note_off_c, 0, 62, 58
1, 6346, Note_on_c, 0, 64, 65
1, 6398, Note_on_c, 0, 74, 76
1, 6418, Note_off_c, 0, 74, 77
1, 6420, Note_off_c, 0, 64, 60
1, 6422, Note_on_c, 0, 66, 63
1, 6484, Note_on_c, 0, 67, 73
1, 6485, Note_off_c, 0, 66, 64
1, 6535, Note_off_c, 0, 67, 58
1, 6545, Note_on_c, 0, 76, 86
1, 6550, Note_on_c, 0, 69, 75
1, 6562, Note_off_c, 0, 76, 75
1, 6608, Note_off_c, 0, 69, 66
1, 6620, Note_on_c, 0, 71, 61
1, 6667, Note_off_c, 0, 71, 63
1, 6668, Note_on_c, 0, 73, 73
1, 6720, Note_on_c, 0, 78, 85
1, 6736, Note_off_c, 0, 73, 63
1, 6737, Note_on_c, 0, 74, 74
1, 6750, Note_on_c, 0, 79, 82
1, 6751, Note_off_c, 0, 78, 56
1, 6754, Control_c, 0, 64, 127
1, 6784, Note_on_c, 0, 81, 79
1, 6807, Note_off_c, 0, 79, 64
1, 6810, Note_on_c, 0, 83, 82
1, 6816, Note_off_c, 0, 81, 60
1, 6857, Note_on_c, 0, 81, 85
1, 6934, Note_off_c, 0, 83, 59
1, 7044, Note_on_c, 0, 66, 67
1, 7088, Note_off_c, 0, 74, 42
1, 7100, Note_off_c, 0, 66, 61
1, 7131, Note_off_c, 0, 81, 62
1, 7185, Control_c, 0, 64, 66
1, 7194, Note_on_c, 0, 67, 77
1, 7200, Control_c, 0, 64, 0
1, 7203, Note_on_c, 0, 76, 76
1, 7209, Note_on_c, 0, 79, 68
1, 7214, Note_off_c, 0, 67, 71
1, 7222, Note_off_c, 0, 76, 63
1, 7250, Note_off_c, 0, 79, 58
1, 7349, Note_on_c, 0, 69, 73
1, 7358, Note_on_c, 0, 78, 75
1, 7372, Note_off_c, 0, 69, 71
1, 7377, Note_on_c, 0, 74, 53
1, 7386, Note_off_c, 0, 78, 60
1, 7409, Note_off_c, 0, 74, 67
1, 7479, Note_on_c, 0, 57, 72
1, 7491, Note_on_c, 0, 76, 76
1, 7495, Note_on_c, 0, 73, 72
1, 7509, Note_off_c, 0, 57, 64
1, 7515, Note_off_c, 0, 76, 69
1, 7516, Note_off_c, 0, 73, 68
1, 7644, Note_on_c, 0, 62, 92
1, 7647, Note_on_c, 0, 78, 77
1, 7682, Control_c, 0, 64, 65
1, 7687, Note_on_c, 0, 79, 75
1, 7696, Control_c, 0, 64, 127
1, 7698, Note_off_c, 0, 78, 56
1, 7720, Note_on_c, 0, 81, 79
1, 7742, Note_off_c, 0, 79, 64
1, 7750, Note_on_c, 0, 83, 76
1, 7764, Note_off_c, 0, 81, 57
1, 7798, Note_on_c, 0, 81, 70
1, 7808, Note_on_c, 0, 78, 87
1, 7859, Note_off_c, 0, 83, 61
1, 7949, Note_on_c, 0, 54, 80
1, 7963, Note_off_c, 0, 62, 62
1, 7987, Note_off_c, 0, 54, 60
1, 8047, Note_off_c, 0, 81, 61
1, 8050, Note_off_c, 0, 78, 63
1, 8090, Control_c, 0, 64, 68
1, 8100, Note_on_c, 0, 55, 89
1, 8104, Control_c, 0, 64, 0
1, 8112, Note_on_c, 0, 76, 83
1, 8116, Note_on_c, 0, 79, 74
1, 8121, Note_off_c, 0, 55, 71
1, 8144, Note_off_c, 0, 76, 58
1, 8158, Note_off_c, 0, 79, 53
1, 8243, Note_on_c, 0, 57, 80
1, 8251, Note_on_c, 0, 74, 67
1, 8252, Note_on_c, 0, 78, 79
1, 8270, Note_off_c, 0, 57, 64
1, 8274, Note_off_c, 0, 74, 70
1, 8279, Note_off_c, 0, 78, 66
1, 8381, Note_on_c, 0, 45, 62
1, 8391, Note_on_c, 0, 76, 76
1, 8404, Note_on_c, 0, 73, 59
1, 8415, Note_off_c, 0, 45, 65
1, 8424, Note_off_c, 0, 73, 65
1, 8425, Note_off_c, 0, 76, 64
1, 8520, Control_c, 0, 64, 83
1, 8527, Note_on_c, 0, 74, 82
1, 8529, Note_on_c, 0, 50, 74
1, 8535, Control_c, 0, 64, 127
1, 8548, Note_off_c, 0, 74, 71
1, 8561, Note_off_c, 0, 50, 64
1, 8609, Control_c, 0, 64, 116
1, 8624, Control_c, 0, 64, 71
1, 8639, Control_c, 0, 64, 0
1, 8678, Note_on_c, 0, 38, 62
1, 8679, Note_on_c, 0, 62, 76
1, 8700, Note_off_c, 0, 62, 69
1, 8723, Note_off_c, 0, 38, 60
1, 8771, Note_on_c, 0, 62, 82
1, 8790, Note_off_c, 0, 62, 70
1, 8820, Note_on_c, 0, 50, 63
1, 8844, Note_on_c, 0, 62, 86
1, 8856, Note_off_c, 0, 50, 64
1, 8863, Note_off_c, 0, 62, 67
1, 8921, Note_on_c, 0, 62, 80
1, 8941, Note_off_c, 0, 62, 70
1, 8983, Note_on_c, 0, 59, 91
1, 8989, Note_on_c, 0, 62, 89
1, 8995, Note_on_c, 0, 55, 68
1, 9001, Control_c, 0, 64, 63
1, 9016, Control_c, 0, 64, 65
1, 9022, Note_off_c, 0, 55, 66
1, 9027, Note_off_c, 0, 62, 64
1, 9031, Control_c, 0, 64, 62
1, 9045, Control_c, 0, 64, 40
1, 9060, Control_c, 0, 64, 0
1, 9144, Note_on_c, 0, 62, 82
1, 9147, Note_on_c, 0, 43, 72
1, 9169, Note_off_c, 0, 62, 65
1, 9182, Note_off_c, 0, 43, 65
1, 9227, Note_on_c, 0, 62, 80
1, 9252, Note_off_c, 0, 62, 64
1, 9301, Note_on_c, 0, 55, 65
1, 9301, Note_on_c, 0, 62, 77
1, 9326, Note_off_c, 0, 59, 60
1, 9334, Note_off_c, 0, 55, 66
1, 9366, Note_off_c, 0, 62, 63
1, 9375, Note_on_c, 0, 66, 75
1, 9426, Note_off_c, 0, 66, 66
1, 9453, Note_on_c, 0, 54, 81
1, 9454, Note_on_c, 0, 57, 84
1, 9457, Note_on_c, 0, 62, 82
1, 9476, Control_c, 0, 64, 54
1, 9498, Control_c, 0, 64, 57
1, 9500, Note_off_c, 0, 62, 60
1, 9509, Note_off_c, 0, 54, 60
1, 9513, Control_c, 0, 64, 56
1, 9528, Control_c, 0, 64, 52
1, 9543, Control_c, 0, 64, 42
1, 9558, Control_c, 0, 64, 0
1, 9621, Note_on_c, 0, 42, 63
1, 9623, Note_on_c, 0, 62, 71
1, 9645, Note_off_c, 0, 62, 66
1, 9653, Note_off_c, 0, 42, 66
1, 9704, Note_on_c, 0, 62, 77
1, 9726, Note_off_c, 0, 62, 67
1, 9770, Note_on_c, 0, 54, 67
1, 9782, Note_on_c, 0, 62, 76
1, 9797, Note_off_c, 0, 57, 58
1, 9802, Note_off_c, 0, 54, 64
1, 9841, Note_off_c, 0, 62, 62
1, 9855, Note_on_c, 0, 66, 70
1, 9904, Note_off_c, 0, 66, 65
1, 9928, Note_on_c, 0, 52, 83
1, 9932, Note_on_c, 0, 55, 77
1, 9933, Note_on_c, 0, 62, 73
1, 9957, Control_c, 0, 64, 53
1, 9967, Note_off_c, 0, 62, 62
1, 9970, Note_off_c, 0, 52, 62
1, 9972, Control_c, 0, 64, 64
1, 9987, Control_c, 0, 64, 64
1, 10002, Control_c, 0, 64, 63
1, 10017, Control_c, 0, 64, 57
1, 10032, Control_c, 0, 64, 0
1, 10085, Note_on_c, 0, 40, 66
1, 10097, Note_on_c, 0, 62, 66
1, 10114, Note_off_c, 0, 40, 67
1, 10121, Note_off_c, 0, 62, 66
1, 10178, Note_on_c, 0, 62, 73
1, 10200, Note_off_c, 0, 62, 66
1, 10249, Note_on_c, 0, 52, 70
1, 10258, Note_off_c, 0, 55, 63
1, 10260, Note_on_c, 0, 62, 81
1, 10280, Note_off_c, 0, 52, 68
1, 10321, Note_off_c, 0, 62, 61
1, 10334, Note_on_c, 0, 66, 72
1, 10403, Note_off_c, 0, 66, 61
1, 10408, Note_on_c, 0, 50, 79
1, 10411, Note_on_c, 0, 54, 78
1, 10416, Note_on_c, 0, 62, 71
1, 10436, Note_off_c, 0, 50, 67
1, 10450, Note_off_c, 0, 62, 60
1, 10567, Note_on_c, 0, 62, 70
1, 10577, Note_on_c, 0, 38, 63
1, 10593, Note_off_c, 0, 62, 66
1, 10610, Note_off_c, 0, 38, 64
1, 10619, Note_off_c, 0, 54, 51
1, 10651, Note_on_c, 0, 62, 83
1, 10676, Note_off_c, 0, 62, 65
1, 10736, Note_on_c, 0, 62, 74
1, 10736, Note_on_c, 0, 50, 56
1, 10764, Note_off_c, 0, 50, 61
1, 10800, Note_off_c, 0, 62, 63
1, 10811, Note_on_c, 0, 66, 72
1, 10843, Note_off_c, 0, 66, 66
1, 10874, Note_on_c, 0, 62, 87
1, 10877, Note_on_c, 0, 59, 87
1, 10879, Note_on_c, 0, 55, 79
1, 10885, Control_c, 0, 64, 12
1, 10899, Control_c, 0, 64, 61
1, 10909, Note_off_c, 0, 55, 67
1, 10914, Control_c, 0, 64, 59
1, 10917, Note_off_c, 0, 62, 62
1, 10929, Control_c, 0, 64, 49
1, 10944, Control_c, 0, 64, 0
1, 11043, Note_on_c, 0, 43, 67
1, 11047, Note_on_c, 0, 62, 68
1, 11067, Note_off_c, 0, 62, 65
1, 11087, Note_off_c, 0, 43, 61
1, 11126, Note_on_c, 0, 62, 81
1, 11147, Note_off_c, 0, 62, 68
1, 11195, Note_on_c, 0, 55, 68
1, 11206, Note_on_c, 0, 62, 78
1, 11225, Note_off_c, 0, 55, 65
1, 11230, Note_off_c, 0, 59, 47
1, 11272, Note_off_c, 0, 62, 59
1, 11288, Note_on_c, 0, 66, 68
1, 11329, Note_off_c, 0, 66, 63
1, 11352, Control_c, 0, 64, 38
1, 11353, Note_on_c, 0, 54, 80
1, 11353, Note_on_c, 0, 57, 84
1, 11364, Note_on_c, 0, 62, 74
1, 11367, Control_c, 0, 64, 59
1, 11382, Control_c, 0, 64, 55
1, 11387, Note_off_c, 0, 62, 67
1, 11388, Note_off_c, 0, 54, 60
1, 11396, Control_c, 0, 64, 44
1, 11411, Control_c, 0, 64, 0
1, 11519, Note_on_c, 0, 62, 66
1, 11524, Note_on_c, 0, 42, 58
1, 11545, Note_off_c, 0, 62, 66
1, 11562, Note_off_c, 0, 42, 65
1, 11598, Note_on_c, 0, 62, 80
1, 11622, Note_off_c, 0, 62, 64
1, 11666, Note_on_c, 0, 54, 67
1, 11672, Note_on_c, 0, 62, 66
1, 11694, Note_off_c, 0, 57, 59
1, 11698, Note_off_c, 0, 54, 65
1, 11747, Note_off_c, 0, 62, 62
1, 11755, Note_on_c, 0, 66, 73
1, 11806, Note_off_c, 0, 66, 66
1, 11815, Note_on_c, 0, 52, 84
1, 11825, Note_on_c, 0, 62, 69
1, 11828, Note_on_c, 0, 55, 77
1, 11834, Control_c, 0, 64, 58
1, 11849, Control_c, 0, 64, 56
1, 11861, Note_off_c, 0, 52, 64
1, 11864, Control_c, 0, 64, 44
1, 11871, Note_off_c, 0, 62, 60
1, 11878, Control_c, 0, 64, 0
1, 11976, Note_on_c, 0, 40, 64
1, 11981, Note_on_c, 0, 62, 75
1, 12003, Note_off_c, 0, 62, 68
1, 12013, Note_off_c, 0, 40, 64
1, 12066, Note_on_c, 0, 62, 74
1, 12090, Note_off_c, 0, 62, 67
1, 12116, Note_on_c, 0, 52, 71
1, 12135, Note_on_c, 0, 62, 78
1, 12139, Note_off_c, 0, 55, 48
1, 12147, Note_off_c, 0, 52, 69
1, 12199, Note_off_c, 0, 62, 62
1, 12213, Note_on_c, 0, 66, 66
1, 12262, Note_on_c, 0, 50, 81
1, 12273, Note_on_c, 0, 54, 76
1, 12274, Note_on_c, 0, 62, 71
1, 12278, Control_c, 0, 64, 54
1, 12281, Note_off_c, 0, 66, 64
1, 12293, Control_c, 0, 64, 64
1, 12294, Note_off_c, 0, 50, 63
1, 12319, Note_off_c, 0, 62, 59
1, 12323, Control_c, 0, 64, 64
1, 12337, Control_c, 0, 64, 61
1, 12352, Control_c, 0, 64, 49
1, 12368, Control_c, 0, 64, 0
1, 12422, Note_on_c, 0, 62, 76
1, 12425, Note_on_c, 0, 38, 65
1, 12451, Note_off_c, 0, 62, 63
1, 12456, Note_off_c, 0, 54, 60
1, 12465, Note_off_c, 0, 38, 63
1, 12517, Note_on_c, 0, 62, 75
1, 12545, Note_off_c, 0, 62, 63
1, 12590, Note_on_c, 0, 50, 61
1, 12596, Note_on_c, 0, 62, 70
1, 12619, Note_off_c, 0, 50, 66
1, 12658, Note_off_c, 0, 62, 63
1, 12664, Note_on_c, 0, 66, 73
1, 12694, Note_off_c, 0, 66, 66
1, 12734, Note_on_c, 0, 42, 71
1, 12740, Note_on_c, 0, 62, 73
1, 12744, Note_on_c, 0, 57, 71
1, 12761, Control_c, 0, 64, 30
1, 12773, Note_off_c, 0, 42, 63
1, 12775, Control_c, 0, 64, 31
1, 12783, Note_off_c, 0, 62, 58
1, 12790, Control_c, 0, 64, 23
1, 12805, Control_c, 0, 64, 0
1, 12891, Note_on_c, 0, 62, 71
1, 12909, Note_on_c, 0, 50, 61
1, 12915, Note_off_c, 0, 62, 67
1, 12946, Note_off_c, 0, 50, 64
1, 12977, Note_on_c, 0, 62, 67
1, 12997, Note_off_c, 0, 62, 66
1, 13037, Note_off_c, 0, 57, 37
1, 13048, Note_on_c, 0, 42, 72
1, 13049, Note_on_c, 0, 62, 75
1, 13083, Note_off_c, 0, 42, 65
1, 13107, Note_off_c, 0, 62, 62
1, 13133, Note_on_c, 0, 66, 53
1, 13168, Note_off_c, 0, 66, 67
1, 13186, Note_on_c, 0, 62, 54
1, 13195, Note_on_c, 0, 40, 69
1, 13204, Note_on_c, 0, 56, 53
1, 13206, Control_c, 0, 64, 49
1, 13221, Control_c, 0, 64, 62
1, 13223, Note_off_c, 0, 40, 68
1, 13242, Control_c, 0, 64, 65
1, 13257, Control_c, 0, 64, 70
1, 13262, Note_off_c, 0, 62, 62
1, 13272, Control_c, 0, 64, 74
1, 13285, Note_on_c, 0, 64, 57
1, 13302, Control_c, 0, 64, 74
1, 13317, Control_c, 0, 64, 70
1, 13332, Control_c, 0, 64, 66
1, 13332, Note_off_c, 0, 64, 55
1, 13347, Control_c, 0, 64, 61
1, 13362, Control_c, 0, 64, 0
1, 13366, Note_on_c, 0, 62, 56
1, 13369, Note_on_c, 0, 52, 69
1, 13391, Note_off_c, 0, 56, 61
1, 13404, Note_off_c, 0, 52, 67
1, 13415, Note_off_c, 0, 62, 58
1, 13435, Note_on_c, 0, 64, 62
1, 13480, Note_off_c, 0, 64, 60
1, 13501, Note_on_c, 0, 62, 57
1, 13508, Note_on_c, 0, 42, 84
1, 13508, Note_on_c, 0, 57, 56
1, 13547, Note_off_c, 0, 42, 64
1, 13547, Note_off_c, 0, 62, 60
1, 13552, Note_off_c, 0, 57, 61
1, 13562, Note_on_c, 0, 64, 68
1, 13618, Note_off_c, 0, 64, 65
1, 13633, Note_on_c, 0, 62, 63
1, 13655, Note_on_c, 0, 40, 85
1, 13669, Note_on_c, 0, 56, 69
1, 13672, Control_c, 0, 64, 43
1, 13684, Note_off_c, 0, 62, 62
1, 13687, Control_c, 0, 64, 98
1, 13697, Note_on_c, 0, 64, 60
1, 13702, Control_c, 0, 64, 127
1, 13703, Note_off_c, 0, 40, 63
1, 13746, Note_off_c, 0, 64, 63
1, 13755, Note_on_c, 0, 62, 61
1, 13776, Note_off_c, 0, 56, 60
1, 13816, Note_on_c, 0, 52, 76
1, 13816, Note_off_c, 0, 62, 60
1, 13824, Note_on_c, 0, 64, 64
1, 13843, Note_off_c, 0, 52, 68
1, 13850, Control_c, 0, 64, 114
1, 13865, Control_c, 0, 64, 88
1, 13880, Control_c, 0, 64, 74
1, 13893, Note_off_c, 0, 64, 64
1, 13895, Control_c, 0, 64, 63
1, 13909, Control_c, 0, 64, 0
1, 13916, Note_on_c, 0, 62, 57
1, 13944, Note_on_c, 0, 42, 92
1, 13954, Note_on_c, 0, 57, 58
1, 13960, Note_off_c, 0, 62, 64
1, 13973, Note_off_c, 0, 42, 69
1, 13975, Note_on_c, 0, 64, 62
1, 14013, Note_off_c, 0, 57, 59
1, 14026, Note_off_c, 0, 64, 64
1, 14030, Note_on_c, 0, 62, 71
1, 14091, Note_off_c, 0, 62, 62
1, 14103, Note_on_c, 0, 64, 62
1, 14104, Note_on_c, 0, 40, 90
1, 14124, Poly_aftertouch_c, 0, 62, 0
1, 14125, Control_c, 0, 64, 67
1, 14127, Note_on_c, 0, 56, 74
1, 14134, Note_on_c, 0, 62, 66
1, 14136, Note_off_c, 0, 64, 66
1, 14140, Control_c, 0, 64, 127
1, 14152, Note_off_c, 0, 40, 67
1, 14205, Note_off_c, 0, 56, 60
1, 14220, Note_off_c, 0, 62, 58
1, 14222, Note_on_c, 0, 64, 75
1, 14265, Note_on_c, 0, 52, 83
1, 14286, Note_off_c, 0, 64, 64
1, 14290, Note_on_c, 0, 62, 67
1, 14293, Note_off_c, 0, 52, 63
1, 14298, Note_on_c, 0, 42, 37
1, 14330, Note_off_c, 0, 42, 48
1, 14360, Note_off_c, 0, 62, 62
1, 14391, Note_on_c, 0, 42, 93
1, 14392, Note_on_c, 0, 57, 65
1, 14392, Note_on_c, 0, 64, 41
1, 14400, Poly_aftertouch_c, 0, 62, 0
1, 14408, Note_on_c, 0, 62, 63
1, 14415, Note_off_c, 0, 64, 60
1, 14432, Note_off_c, 0, 42, 64
1, 14472, Note_off_c, 0, 62, 60
1, 14473, Note_on_c, 0, 64, 79
1, 14500, Note_off_c, 0, 57, 58
1, 14528, Note_on_c, 0, 62, 61
1, 14554, Note_off_c, 0, 64, 57
1, 14590, Note_on_c, 0, 40, 85
1, 14598, Control_c, 0, 64, 83
1, 14604, Note_off_c, 0, 62, 59
1, 14608, Note_on_c, 0, 56, 70
1, 14613, Control_c, 0, 64, 70
1, 14628, Control_c, 0, 64, 60
1, 14643, Control_c, 0, 64, 15
1, 14657, Control_c, 0, 64, 0
1, 14672, Note_off_c, 0, 56, 61
1, 14676, Note_on_c, 0, 52, 69
1, 14752, Note_on_c, 0, 59, 67
1, 14759, Note_off_c, 0, 52, 63
1, 14812, Note_on_c, 0, 56, 68
1, 14813, Note_off_c, 0, 59, 64
1, 14879, Note_off_c, 0, 56, 63
1, 14881, Note_on_c, 0, 62, 70
1, 14915, Note_off_c, 0, 62, 63
1, 14936, Note_on_c, 0, 59, 77
1, 14986, Note_off_c, 0, 59, 63
1, 15008, Note_on_c, 0, 68, 81
1, 15067, Note_off_c, 0, 68, 63
1, 15075, Note_on_c, 0, 62, 79
1, 15141, Note_on_c, 0, 71, 81
1, 15146, Note_off_c, 0, 62, 53
1, 15194, Note_on_c, 0, 68, 78
1, 15204, Note_off_c, 0, 71, 61
1, 15255, Note_on_c, 0, 74, 79
1, 15255, Note_off_c, 0, 68, 65
1, 15284, Note_off_c, 0, 74, 66
1, 15312, Note_on_c, 0, 71, 78
1, 15354, Note_off_c, 0, 71, 55
1, 15385, Note_on_c, 0, 80, 83
1, 15436, Note_off_c, 0, 80, 63
1, 15442, Note_on_c, 0, 74, 85
1, 15518, Note_on_c, 0, 83, 88
1, 15535, Note_off_c, 0, 74, 64
1, 15572, Note_on_c, 0, 80, 86
1, 15598, Note_off_c, 0, 83, 63
1, 15648, Note_on_c, 0, 86, 89
1, 15680, Note_off_c, 0, 80, 63
1, 15874, Note_off_c, 0, 40, 19
1, 16200, Control_c, 0, 64, 36
1, 16214, Control_c, 0, 64, 59
1, 16236, Control_c, 0, 64, 66
1, 16251, Control_c, 0, 64, 79
1, 16266, Control_c, 0, 64, 127
1, 16304, Note_on_c, 0, 85, 70
1, 16347, Note_off_c, 0, 86, 49
1, 16395, Note_on_c, 0, 83, 65
1, 16412, Note_off_c, 0, 85, 61
1, 16442, Note_off_c, 0, 83, 62
1, 16453, Note_on_c, 0, 81, 66
1, 16513, Note_off_c, 0, 81, 58
1, 16519, Note_on_c, 0, 80, 69
1, 16558, Note_on_c, 0, 78, 62
1, 16588, Note_off_c, 0, 80, 61
1, 16597, Note_on_c, 0, 76, 69
1, 16619, Note_off_c, 0, 78, 60
1, 16623, Note_off_c, 0, 76, 69
1, 16635, Note_on_c, 0, 74, 71
1, 16676, Note_off_c, 0, 74, 59
1, 16696, Note_on_c, 0, 73, 67
1, 16726, Note_on_c, 0, 71, 73
1, 16742, Note_off_c, 0, 73, 62
1, 16751, Note_off_c, 0, 71, 65
1, 16766, Note_on_c, 0, 69, 73
1, 16809, Note_off_c, 0, 69, 59
1, 16825, Note_on_c, 0, 68, 71
1, 16857, Note_on_c, 0, 66, 73
1, 16887, Note_off_c, 0, 68, 63
1, 16892, Note_on_c, 0, 64, 70
1, 16909, Note_off_c, 0, 66, 64
1, 16918, Note_off_c, 0, 64, 68
1, 16924, Note_on_c, 0, 62, 79
1, 16986, Note_off_c, 0, 62, 61
1, 16986, Note_on_c, 0, 61, 78
1, 17027, Note_on_c, 0, 59, 74
1, 17044, Note_off_c, 0, 61, 60
1, 17058, Note_off_c, 0, 59, 62
1, 17068, Note_on_c, 0, 57, 76
1, 17152, Note_on_c, 0, 54, 74
1, 17176, Note_off_c, 0, 57, 61
1, 17187, Note_on_c, 0, 52, 79
1, 17215, Note_off_c, 0, 54, 62
1, 17233, Note_off_c, 0, 52, 66
1, 17245, Note_on_c, 0, 50, 76
1, 17296, Note_on_c, 0, 49, 72
1, 17323, Note_off_c, 0, 50, 56
1, 17332, Note_on_c, 0, 47, 77
1, 17356, Note_off_c, 0, 49, 63
1, 17362, Note_off_c, 0, 47, 65
1, 17397, Note_on_c, 0, 45, 67
1, 17433, Note_on_c, 0, 44, 81
1, 17459, Note_off_c, 0, 45, 60
1, 17475, Note_on_c, 0, 42, 82
1, 17493, Note_off_c, 0, 44, 63
1, 17499, Note_off_c, 0, 42, 69
1, 17530, Note_on_c, 0, 40, 85
1, 17534, Control_c, 0, 64, 74
1, 17549, Control_c, 0, 64, 0
1, 17691, Note_on_c, 0, 42, 72
1, 17694, Note_off_c, 0, 40, 63
1, 17773, Note_on_c, 0, 40, 72
1, 17778, Note_off_c, 0, 42, 64
1, 17833, Note_off_c, 0, 40, 64
1, 17833, Note_on_c, 0, 42, 61
1, 17884, Note_on_c, 0, 40, 65
1, 17894, Note_off_c, 0, 42, 63
1, 17931, Note_off_c, 0, 40, 60
1, 17937, Note_on_c, 0, 42, 60
1, 17990, Note_on_c, 0, 40, 62
1, 17997, Note_off_c, 0, 42, 58
1, 18032, Note_off_c, 0, 40, 60
1, 18042, Note_on_c, 0, 42, 57
1, 18092, Note_on_c, 0, 40, 70
1, 18100, Note_off_c, 0, 42, 54
1, 18130, Note_off_c, 0, 40, 63
1, 18137, Note_on_c, 0, 42, 51
1, 18191, Note_off_c, 0, 42, 60
1, 18197, Note_on_c, 0, 40, 67
1, 18233, Note_off_c, 0, 40, 63
1, 18240, Note_on_c, 0, 42, 54
1, 18293, Note_off_c, 0, 42, 60
1, 18295, Note_on_c, 0, 40, 62
1, 18325, Note_off_c, 0, 40, 57
1, 18334, Note_on_c, 0, 42, 62
1, 18385, Note_off_c, 0, 42, 55
1, 18393, Note_on_c, 0, 40, 50
1, 18424, Note_off_c, 0, 40, 61
1, 18432, Note_on_c, 0, 42, 50
1, 18490, Note_off_c, 0, 42, 63
1, 18500, Note_on_c, 0, 40, 59
1, 18531, Note_off_c, 0, 40, 63
1, 18545, Note_on_c, 0, 42, 63
1, 18602, Note_off_c, 0, 42, 54
1, 18616, Note_on_c, 0, 40, 57
1, 18647, Note_off_c, 0, 40, 65
1, 18656, Note_on_c, 0, 42, 38
1, 18701, Note_off_c, 0, 42, 60
1, 18725, Note_on_c, 0, 40, 51
1, 19017, Control_c, 0, 64, 17
1, 19032, Control_c, 0, 64, 29
1, 19047, Control_c, 0, 64, 38
1, 19061, Control_c, 0, 64, 45
1, 19076, Control_c, 0, 64, 50
1, 19091, Control_c, 0, 64, 53
1, 19106, Control_c, 0, 64, 55
1, 19121, Control_c, 0, 64, 57
1, 19136, Control_c, 0, 64, 59
1, 19151, Control_c, 0, 64, 60
1, 19166, Control_c, 0, 64, 61
1, 19180, Control_c, 0, 64, 62
1, 19195, Control_c, 0, 64, 62
1, 19210, Control_c, 0, 64, 63
1, 19225, Control_c, 0, 64, 64
1, 19247, Control_c, 0, 64, 65
1, 19261, Control_c, 0, 64, 65
1, 19276, Control_c, 0, 64, 66
1, 19291, Control_c, 0, 64, 68
1, 19306, Control_c, 0, 64, 70
1, 19321, Control_c, 0, 64, 71
1, 19335, Control_c, 0, 64, 73
1, 19350, Control_c, 0, 64, 73
1, 19365, Control_c, 0, 64, 74
1, 19380, Control_c, 0, 64, 75
1, 19395, Control_c, 0, 64, 75
1, 19410, Control_c, 0, 64, 76
1, 19454, Control_c, 0, 64, 76
1, 19523, Note_off_c, 0, 40, 41
1, 19825, Control_c, 0, 64, 76
1, 19855, Control_c, 0, 64, 75
1, 19899, Control_c, 0, 64, 75
1, 19914, Control_c, 0, 64, 74
1, 19929, Control_c, 0, 64, 73
1, 19944, Control_c, 0, 64, 72
1, 19958, Control_c, 0, 64, 70
1, 19981, Control_c, 0, 64, 68
1, 19996, Control_c, 0, 64, 66
1, 20010, Control_c, 0, 64, 65
1, 20025, Control_c, 0, 64, 64
1, 20040, Control_c, 0, 64, 62
1, 20055, Control_c, 0, 64, 60
1, 20069, Control_c, 0, 64, 58
1, 20084, Control_c, 0, 64, 57
1, 20099, Control_c, 0, 64, 56
1, 20113, Control_c, 0, 64, 54
1, 20128, Control_c, 0, 64, 50
1, 20143, Control_c, 0, 64, 35
1, 20158, Control_c, 0, 64, 0
1, 20292, Note_on_c, 0, 69, 30
1, 20292, Note_on_c, 0, 72, 39
1, 20319, Note_off_c, 0, 72, 59
1, 20328, Note_off_c, 0, 69, 48
1, 20459, Note_on_c, 0, 72, 45
1, 20462, Note_on_c, 0, 69, 40
1, 20470, Note_on_c, 0, 76, 47
1, 20490, Note_off_c, 0, 72, 60
1, 20493, Note_off_c, 0, 69, 64
1, 20495, Note_off_c, 0, 76, 56
1, 20622, Note_on_c, 0, 72, 45
1, 20623, Note_on_c, 0, 84, 63
1, 20633, Note_on_c, 0, 69, 40
1, 20647, Note_off_c, 0, 72, 61
1, 20663, Note_off_c, 0, 69, 53
1, 20777, Note_on_c, 0, 69, 49
1, 20781, Note_on_c, 0, 77, 66
1, 20792, Note_on_c, 0, 62, 54
1, 20818, Note_off_c, 0, 69, 62
1, 20832, Note_off_c, 0, 62, 59
1, 20934, Note_on_c, 0, 83, 75
1, 20945, Note_on_c, 0, 69, 50
1, 20950, Note_off_c, 0, 84, 66
1, 20955, Note_on_c, 0, 62, 43
1, 20956, Note_off_c, 0, 83, 68
1, 20970, Note_off_c, 0, 69, 64
1, 20987, Note_off_c, 0, 62, 53
1, 21101, Note_on_c, 0, 69, 44
1, 21101, Note_on_c, 0, 86, 78
1, 21115, Note_on_c, 0, 62, 36
1, 21118, Note_off_c, 0, 77, 61
1, 21162, Note_off_c, 0, 69, 60
1, 21170, Note_off_c, 0, 62, 44
1, 21256, Note_on_c, 0, 74, 67
1, 21259, Note_on_c, 0, 71, 57
1, 21269, Note_on_c, 0, 62, 52
1, 21277, Note_on_c, 0, 69, 55
1, 21307, Note_off_c, 0, 62, 57
1, 21307, Note_off_c, 0, 69, 59
1, 21319, Note_off_c, 0, 71, 59
1, 21416, Note_on_c, 0, 81, 75
1, 21417, Note_on_c, 0, 69, 52
1, 21419, Note_on_c, 0, 71, 59
1, 21425, Note_on_c, 0, 62, 41
1, 21449, Note_off_c, 0, 71, 64
1, 21453, Note_off_c, 0, 69, 66
1, 21456, Note_off_c, 0, 62, 54
1, 21480, Note_off_c, 0, 81, 58
1, 21497, Note_off_c, 0, 86, 54
1, 21571, Note_on_c, 0, 69, 61
1, 21575, Note_on_c, 0, 71, 57
1, 21575, Note_on_c, 0, 80, 79
1, 21583, Note_on_c, 0, 62, 44
1, 21598, Note_off_c, 0, 69, 70
1, 21610, Note_off_c, 0, 71, 63
1, 21616, Note_off_c, 0, 62, 62
1, 21628, Note_off_c, 0, 80, 63
1, 21731, Note_on_c, 0, 80, 78
1, 21737, Note_on_c, 0, 64, 63
1, 21739, Note_on_c, 0, 71, 58
1, 21742, Note_off_c, 0, 74, 63
1, 21749, Note_on_c, 0, 60, 53
1, 21771, Note_off_c, 0, 71, 63
1, 21771, Note_off_c, 0, 64, 64
1, 21775, Note_off_c, 0, 80, 64
1, 21781, Note_off_c, 0, 60, 64
1, 21901, Note_on_c, 0, 81, 60
1, 21903, Note_on_c, 0, 64, 45
1, 21920, Note_on_c, 0, 69, 30
1, 21936, Note_off_c, 0, 81, 58
1, 21958, Note_off_c, 0, 69, 53
1, 21962, Note_off_c, 0, 64, 53
1, 21974, Poly_aftertouch_c, 0, 60, 0
1, 22055, Note_on_c, 0, 77, 65
1, 22060, Note_on_c, 0, 69, 39
1, 22083, Note_on_c, 0, 64, 40
1, 22090, Note_off_c, 0, 77, 61
1, 22099, Note_on_c, 0, 60, 22
1, 22108, Note_off_c, 0, 69, 52
1, 22112, Note_off_c, 0, 64, 57
1, 22133, Note_off_c, 0, 60, 43
1, 22226, Note_on_c, 0, 75, 57
1, 22233, Note_on_c, 0, 60, 51
1, 22242, Note_on_c, 0, 69, 39
1, 22247, Note_off_c, 0, 75, 63
1, 22265, Note_off_c, 0, 60, 57
1, 22272, Note_off_c, 0, 69, 56
1, 22374, Note_on_c, 0, 69, 46
1, 22382, Note_on_c, 0, 60, 47
1, 22387, Note_on_c, 0, 76, 50
1, 22409, Note_off_c, 0, 76, 61
1, 22414, Note_off_c, 0, 60, 58
1, 22418, Note_off_c, 0, 69, 63
1, 22539, Note_on_c, 0, 84, 67
1, 22541, Note_on_c, 0, 60, 44
1, 22547, Note_on_c, 0, 69, 39
1, 22587, Note_off_c, 0, 60, 59
1, 22588, Note_off_c, 0, 69, 54
1, 22688, Note_on_c, 0, 77, 68
1, 22689, Note_on_c, 0, 60, 56
1, 22698, Note_on_c, 0, 69, 51
1, 22722, Note_off_c, 0, 60, 65
1, 22725, Note_off_c, 0, 69, 64
1, 22836, Note_on_c, 0, 83, 72
1, 22844, Note_on_c, 0, 69, 51
1, 22847, Note_on_c, 0, 62, 61
1, 22853, Note_off_c, 0, 84, 65
1, 22864, Note_off_c, 0, 83, 64
1, 22874, Note_off_c, 0, 62, 63
1, 22877, Note_off_c, 0, 69, 62
1, 23003, Note_on_c, 0, 86, 81
1, 23004, Note_on_c, 0, 69, 52
1, 23008, Note_off_c, 0, 77, 62
1, 23016, Note_on_c, 0, 62, 43
1, 23039, Note_off_c, 0, 69, 67
1, 23044, Note_off_c, 0, 62, 56
1, 23155, Note_on_c, 0, 74, 69
1, 23162, Note_on_c, 0, 62, 40
1, 23163, Note_on_c, 0, 69, 54
1, 23166, Note_on_c, 0, 71, 55
1, 23196, Note_off_c, 0, 69, 68
1, 23197, Note_off_c, 0, 71, 63
1, 23203, Note_off_c, 0, 62, 54
1, 23309, Note_on_c, 0, 81, 70
1, 23311, Note_on_c, 0, 62, 56
1, 23315, Note_on_c, 0, 71, 58
1, 23319, Note_on_c, 0, 69, 53
1, 23344, Note_off_c, 0, 81, 58
1, 23347, Note_off_c, 0, 71, 64
1, 23348, Note_off_c, 0, 86, 64
1, 23350, Note_off_c, 0, 69, 68
1, 23354, Note_off_c, 0, 62, 57
1, 23464, Note_on_c, 0, 80, 80
1, 23467, Note_on_c, 0, 69, 55
1, 23469, Note_on_c, 0, 62, 47
1, 23471, Note_on_c, 0, 71, 52
1, 23490, Note_off_c, 0, 69, 66
1, 23495, Note_off_c, 0, 62, 56
1, 23495, Note_off_c, 0, 71, 60
1, 23496, Note_off_c, 0, 80, 61
1, 23620, Note_on_c, 0, 80, 69
1, 23625, Note_on_c, 0, 64, 53
1, 23628, Note_off_c, 0, 74, 60
1, 23628, Note_on_c, 0, 60, 53
1, 23650, Note_off_c, 0, 80, 63
1, 23655, Note_off_c, 0, 64, 66
1, 23659, Note_off_c, 0, 60, 64
1, 23783, Note_on_c, 0, 81, 67
1, 23786, Note_on_c, 0, 69, 49
1, 23791, Note_on_c, 0, 64, 32
1, 23801, Note_on_c, 0, 60, 29
1, 23813, Note_off_c, 0, 69, 60
1, 23825, Note_off_c, 0, 81, 58
1, 23829, Note_off_c, 0, 64, 52
1, 23837, Note_off_c, 0, 60, 47
1, 23926, Note_on_c, 0, 64, 60
1, 23932, Note_on_c, 0, 77, 70
1, 23937, Note_on_c, 0, 69, 41
1, 23940, Note_on_c, 0, 60, 41
1, 23956, Note_off_c, 0, 77, 67
1, 23962, Note_off_c, 0, 64, 63
1, 23971, Note_off_c, 0, 60, 54
1, 23973, Note_off_c, 0, 69, 62
1, 24077, Note_on_c, 0, 60, 58
1, 24077, Note_on_c, 0, 75, 91
1, 24080, Note_on_c, 0, 69, 58
1, 24096, Note_off_c, 0, 75, 73
1, 24116, Note_off_c, 0, 69, 65
1, 24121, Note_off_c, 0, 60, 57
1, 24224, Note_on_c, 0, 76, 88
1, 24231, Note_on_c, 0, 69, 65
1, 24235, Note_on_c, 0, 60, 57
1, 24254, Note_off_c, 0, 76, 65
1, 24265, Note_off_c, 0, 69, 62
1, 24274, Note_off_c, 0, 60, 58
1, 24374, Note_on_c, 0, 76, 90
1, 24375, Note_on_c, 0, 69, 62
1, 24382, Note_on_c, 0, 60, 62
1, 24391, Note_off_c, 0, 76, 74
1, 24402, Note_off_c, 0, 69, 69
1, 24409, Note_off_c, 0, 60, 65
1, 24543, Note_on_c, 0, 76, 82
1, 24548, Note_on_c, 0, 62, 56
1, 24548, Control_c, 0, 64, 38
1, 24552, Note_on_c, 0, 64, 42
1, 24563, Control_c, 0, 64, 34
1, 24568, Note_on_c, 0, 56, 35
1, 24578, Control_c, 0, 64, 22
1, 24579, Note_off_c, 0, 64, 56
1, 24585, Note_off_c, 0, 62, 61
1, 24593, Control_c, 0, 64, 0
1, 24597, Note_off_c, 0, 56, 56
1, 24608, Note_on_c, 0, 79, 87
1, 24612, Note_off_c, 0, 76, 67
1, 24671, Note_on_c, 0, 77, 89
1, 24673, Note_on_c, 0, 62, 60
1, 24680, Note_on_c, 0, 65, 64
1, 24681, Note_off_c, 0, 79, 65
1, 24682, Note_on_c, 0, 56, 49
1, 24689, Note_off_c, 0, 77, 72
1, 24710, Note_off_c, 0, 65, 64
1, 24716, Note_off_c, 0, 56, 63
1, 24728, Note_off_c, 0, 62, 55
1, 24856, Note_on_c, 0, 74, 76
1, 24862, Note_on_c, 0, 65, 37
1, 24868, Note_on_c, 0, 56, 30
1, 24873, Note_on_c, 0, 62, 30
1, 24894, Note_off_c, 0, 65, 55
1, 24903, Note_off_c, 0, 56, 52
1, 24916, Note_off_c, 0, 62, 47
1, 24993, Control_c, 0, 64, 38
1, 25007, Control_c, 0, 64, 53
1, 25009, Note_on_c, 0, 56, 43
1, 25013, Note_on_c, 0, 64, 55
1, 25017, Note_on_c, 0, 62, 55
1, 25022, Control_c, 0, 64, 60
1, 25037, Control_c, 0, 64, 63
1, 25047, Note_off_c, 0, 64, 63
1, 25049, Note_off_c, 0, 56, 60
1, 25052, Control_c, 0, 64, 65
1, 25055, Note_off_c, 0, 62, 59
1, 25066, Control_c, 0, 64, 64
1, 25081, Control_c, 0, 64, 61
1, 25095, Note_off_c, 0, 74, 66
1, 25096, Control_c, 0, 64, 44
1, 25111, Control_c, 0, 64, 0
1, 25154, Note_on_c, 0, 64, 57
1, 25154, Note_on_c, 0, 74, 84
1, 25162, Note_on_c, 0, 56, 52
1, 25167, Note_on_c, 0, 62, 47
1, 25175, Note_off_c, 0, 74, 69
1, 25187, Note_off_c, 0, 64, 63
1, 25196, Note_off_c, 0, 56, 61
1, 25203, Note_off_c, 0, 62, 54
1, 25295, Note_on_c, 0, 71, 81
1, 25304, Note_on_c, 0, 56, 46
1, 25309, Note_on_c, 0, 64, 55
1, 25324, Note_off_c, 0, 71, 64
1, 25337, Note_on_c, 0, 62, 17
1, 25340, Note_off_c, 0, 56, 62
1, 25340, Note_off_c, 0, 64, 66
1, 25387, Note_off_c, 0, 62, 40
1, 25432, Note_on_c, 0, 74, 66
1, 25441, Note_on_c, 0, 64, 55
1, 25450, Note_on_c, 0, 57, 53
1, 25455, Note_off_c, 0, 74, 71
1, 25455, Note_on_c, 0, 72, 82
1, 25460, Control_c, 0, 64, 58
1, 25475, Control_c, 0, 64, 47
1, 25482, Note_off_c, 0, 64, 60
1, 25490, Control_c, 0, 64, 0
1, 25493, Note_off_c, 0, 57, 59
1, 25500, Note_off_c, 0, 72, 58
1, 25508, Note_on_c, 0, 74, 78
1, 25537, Note_on_c, 0, 72, 68
1, 25559, Note_off_c, 0, 74, 67
1, 25606, Note_on_c, 0, 64, 61
1, 25616, Note_on_c, 0, 57, 47
1, 25646, Note_off_c, 0, 64, 58
1, 25655, Note_off_c, 0, 57, 56
1, 25669, Note_off_c, 0, 72, 67
1, 25679, Note_on_c, 0, 71, 75
1, 25757, Note_on_c, 0, 72, 83
1, 25760, Note_on_c, 0, 57, 55
1, 25762, Note_on_c, 0, 64, 59
1, 25765, Note_off_c, 0, 71, 61
1, 25791, Note_off_c, 0, 64, 65
1, 25797, Note_off_c, 0, 57, 61
1, 25910, Note_on_c, 0, 64, 58
1, 25920, Note_on_c, 0, 57, 38
1, 25923, Note_on_c, 0, 60, 49
1, 25932, Note_off_c, 0, 72, 66
1, 25945, Note_off_c, 0, 64, 63
1, 25953, Note_off_c, 0, 60, 58
1, 25956, Note_off_c, 0, 57, 55
1, 26071, Note_on_c, 0, 76, 70
1, 26072, Note_on_c, 0, 57, 40
1, 26083, Note_on_c, 0, 64, 43
1, 26090, Note_on_c, 0, 60, 20
1, 26105, Note_off_c, 0, 76, 62
1, 26119, Note_off_c, 0, 64, 55
1, 26129, Note_off_c, 0, 60, 44
1, 26139, Note_off_c, 0, 57, 55
1, 26218, Note_on_c, 0, 76, 69
1, 26223, Note_on_c, 0, 57, 33
1, 26239, Note_on_c, 0, 64, 35
1, 26246, Note_on_c, 0, 60, 23
1, 26251, Note_off_c, 0, 76, 65
1, 26253, Note_off_c, 0, 57, 59
1, 26269, Note_off_c, 0, 64, 57
1, 26282, Note_off_c, 0, 60, 52
1, 26364, Note_on_c, 0, 64, 48
1, 26366, Note_on_c, 0, 76, 74
1, 26382, Note_on_c, 0, 56, 50
1, 26401, Note_off_c, 0, 64, 64
1, 26409, Note_on_c, 0, 62, 22
1, 26414, Note_off_c, 0, 76, 61
1, 26418, Note_off_c, 0, 56, 62
1, 26424, Note_on_c, 0, 79, 63
1, 26460, Note_off_c, 0, 62, 43
1, 26490, Note_on_c, 0, 77, 76
1, 26493, Note_off_c, 0, 79, 62
1, 26507, Note_on_c, 0, 65, 54
1, 26511, Note_off_c, 0, 77, 69
1, 26515, Note_on_c, 0, 56, 40
1, 26539, Note_off_c, 0, 65, 62
1, 26543, Note_off_c, 0, 56, 53
1, 26555, Poly_aftertouch_c, 0, 62, 127
1, 26591, Poly_aftertouch_c, 0, 62, 0
1, 26674, Note_on_c, 0, 74, 63
1, 26675, Note_on_c, 0, 65, 41
1, 26683, Note_on_c, 0, 56, 18
1, 26691, Note_on_c, 0, 62, 39
1, 26703, Note_off_c, 0, 65, 57
1, 26727, Note_off_c, 0, 56, 53
1, 26731, Note_off_c, 0, 62, 53
1, 26821, Note_on_c, 0, 56, 51
1, 26835, Note_on_c, 0, 62, 47
1, 26836, Note_on_c, 0, 64, 47
1, 26865, Note_off_c, 0, 56, 59
1, 26867, Note_off_c, 0, 64, 58
1, 26881, Note_off_c, 0, 62, 55
1, 26884, Note_off_c, 0, 74, 64
1, 26973, Note_on_c, 0, 74, 61
1, 26977, Note_on_c, 0, 64, 42
1, 26985, Note_on_c, 0, 62, 60
1, 26991, Note_on_c, 0, 56, 30
1, 26999, Note_off_c, 0, 74, 69
1, 27007, Note_off_c, 0, 64, 55
1, 27018, Note_off_c, 0, 62, 61
1, 27023, Note_off_c, 0, 56, 46
1, 27113, Note_on_c, 0, 56, 49
1, 27114, Note_on_c, 0, 64, 49
1, 27119, Note_on_c, 0, 71, 55
1, 27121, Note_on_c, 0, 62, 51
1, 27140, Note_off_c, 0, 71, 62
1, 27146, Note_off_c, 0, 62, 60
1, 27148, Note_off_c, 0, 64, 66
1, 27151, Note_off_c, 0, 56, 61
1, 27247, Note_on_c, 0, 74, 69
1, 27261, Note_on_c, 0, 64, 58
1, 27270, Note_on_c, 0, 57, 54
1, 27271, Note_off_c, 0, 74, 69
1, 27284, Note_on_c, 0, 72, 73
1, 27296, Note_off_c, 0, 64, 64
1, 27305, Note_off_c, 0, 57, 61
1, 27312, Note_off_c, 0, 72, 58
1, 27327, Note_on_c, 0, 74, 69
1, 27359, Note_on_c, 0, 72, 60
1, 27363, Note_off_c, 0, 74, 60
1, 27428, Note_on_c, 0, 57, 37
1, 27434, Note_on_c, 0, 64, 33
1, 27474, Note_off_c, 0, 57, 50
1, 27476, Note_off_c, 0, 64, 47
1, 27496, Note_off_c, 0, 72, 44
1, 27510, Note_on_c, 0, 71, 65
1, 27569, Note_on_c, 0, 64, 45
1, 27582, Note_on_c, 0, 57, 30
1, 27595, Note_off_c, 0, 64, 59
1, 27596, Note_on_c, 0, 72, 59
1, 27606, Note_off_c, 0, 71, 47
1, 27618, Note_off_c, 0, 57, 42
1, 27706, Control_c, 0, 64, 63
1, 27709, Note_on_c, 0, 57, 63
1, 27714, Note_on_c, 0, 56, 58
1, 27721, Control_c, 0, 64, 67
1, 27728, Note_on_c, 0, 59, 63
1, 27736, Control_c, 0, 64, 64
1, 27739, Note_on_c, 0, 62, 69
1, 27742, Note_off_c, 0, 72, 64
1, 27751, Control_c, 0, 64, 0
1, 27753, Note_off_c, 0, 57, 62
1, 27754, Note_off_c, 0, 59, 66
1, 27760, Note_off_c, 0, 56, 62
1, 27764, Note_off_c, 0, 62, 63
1, 27873, Note_on_c, 0, 64, 61
1, 27883, Note_on_c, 0, 56, 58
1, 27888, Note_on_c, 0, 62, 47
1, 27889, Note_on_c, 0, 59, 33
1, 27893, Note_on_c, 0, 57, 41
1, 27905, Note_off_c, 0, 64, 65
1, 27921, Note_off_c, 0, 57, 57
1, 27924, Note_off_c, 0, 56, 59
1, 27926, Note_off_c, 0, 62, 48
1, 27949, Note_off_c, 0, 59, 49
1, 28012, Note_on_c, 0, 64, 65
1, 28014, Note_on_c, 0, 57, 52
1, 28015, Note_on_c, 0, 62, 64
1, 28033, Note_on_c, 0, 56, 51
1, 28039, Note_off_c, 0, 64, 69
1, 28043, Note_off_c, 0, 62, 65
1, 28044, Note_off_c, 0, 57, 65
1, 28057, Note_off_c, 0, 56, 62
1, 28141, Note_on_c, 0, 74, 72
1, 28159, Note_on_c, 0, 57, 56
1, 28162, Note_on_c, 0, 64, 68
1, 28171, Note_off_c, 0, 74, 67
1, 28176, Note_on_c, 0, 60, 55
1, 28180, Note_on_c, 0, 72, 67
1, 28189, Note_off_c, 0, 64, 67
1, 28195, Note_off_c, 0, 57, 63
1, 28197, Note_off_c, 0, 72, 68
1, 28198, Note_off_c, 0, 60, 63
1, 28236, Note_on_c, 0, 74, 69
1, 28266, Note_on_c, 0, 72, 68
1, 28287, Note_off_c, 0, 74, 59
1, 28329, Note_on_c, 0, 60, 53
1, 28333, Note_on_c, 0, 64, 55
1, 28338, Note_on_c, 0, 57, 31
1, 28373, Note_off_c, 0, 64, 59
1, 28374, Note_off_c, 0, 60, 60
1, 28379, Note_off_c, 0, 57, 60
1, 28391, Note_off_c, 0, 72, 60
1, 28412, Note_on_c, 0, 71, 63
1, 28481, Note_off_c, 0, 71, 60
1, 28490, Note_on_c, 0, 57, 54
1, 28490, Note_on_c, 0, 64, 60
1, 28496, Note_on_c, 0, 72, 65
1, 28517, Note_on_c, 0, 60, 35
1, 28519, Note_off_c, 0, 57, 63
1, 28519, Note_off_c, 0, 64, 67
1, 28550, Note_off_c, 0, 60, 46
1, 28626, Note_on_c, 0, 57, 58
1, 28629, Note_on_c, 0, 56, 68
1, 28640, Note_on_c, 0, 62, 84
1, 28641, Note_on_c, 0, 59, 70
1, 28647, Control_c, 0, 64, 65
1, 28657, Note_off_c, 0, 72, 64
1, 28662, Control_c, 0, 64, 75
1, 28664, Note_off_c, 0, 59, 68
1, 28667, Note_off_c, 0, 57, 63
1, 28670, Note_off_c, 0, 62, 59
1, 28675, Note_off_c, 0, 56, 64
1, 28677, Control_c, 0, 64, 73
1, 28691, Control_c, 0, 64, 59
1, 28706, Control_c, 0, 64, 0
1, 28779, Note_on_c, 0, 62, 68
1, 28783, Note_on_c, 0, 64, 71
1, 28788, Note_on_c, 0, 57, 52
1, 28788, Note_on_c, 0, 56, 63
1, 28803, Note_on_c, 0, 59, 37
1, 28814, Note_off_c, 0, 64, 64
1, 28820, Note_off_c, 0, 62, 54
1, 28832, Note_off_c, 0, 57, 54
1, 28835, Note_off_c, 0, 56, 57
1, 28840, Note_off_c, 0, 59, 50
1, 28931, Note_on_c, 0, 64, 74
1, 28934, Note_on_c, 0, 62, 68
1, 28940, Note_on_c, 0, 57, 55
1, 28940, Note_on_c, 0, 59, 54
1, 28945, Note_on_c, 0, 56, 56
1, 28955, Note_off_c, 0, 64, 69
1, 28973, Note_off_c, 0, 62, 60
1, 28976, Note_off_c, 0, 57, 64
1, 28978, Note_off_c, 0, 59, 65
1, 28984, Note_off_c, 0, 56, 65
1, 29075, Note_on_c, 0, 74, 75
1, 29091, Note_on_c, 0, 64, 72
1, 29094, Note_on_c, 0, 57, 55
1, 29101, Note_off_c, 0, 74, 69
1, 29106, Note_on_c, 0, 60, 56
1, 29112, Note_on_c, 0, 72, 66
1, 29125, Note_off_c, 0, 64, 61
1, 29129, Note_off_c, 0, 72, 67
1, 29132, Note_off_c, 0, 57, 63
1, 29132, Note_off_c, 0, 60, 64
1, 29157, Note_on_c, 0, 74, 71
1, 29198, Note_on_c, 0, 72, 66
1, 29209, Note_off_c, 0, 74, 62
1, 29254, Note_on_c, 0, 64, 60
1, 29261, Note_on_c, 0, 60, 50
1, 29263, Note_on_c, 0, 57, 53
1, 29291, Note_off_c, 0, 64, 60
1, 29300, Note_off_c, 0, 60, 60
1, 29300, Note_off_c, 0, 72, 57
1, 29301, Note_off_c, 0, 57, 62
1, 29324, Note_on_c, 0, 71, 66
1, 29386, Note_off_c, 0, 71, 61
1, 29399, Note_on_c, 0, 64, 65
1, 29403, Note_on_c, 0, 72, 68
1, 29416, Note_on_c, 0, 60, 49
1, 29417, Note_on_c, 0, 57, 46
1, 29430, Note_off_c, 0, 64, 64
1, 29447, Note_off_c, 0, 57, 61
1, 29447, Note_off_c, 0, 60, 64
1, 29551, Note_off_c, 0, 72, 64
1, 29557, Note_on_c, 0, 55, 73
1, 29559, Control_c, 0, 64, 64
1, 29569, Note_on_c, 0, 60, 78
1, 29571, Note_on_c, 0, 59, 71
1, 29574, Control_c, 0, 64, 93
1, 29588, Control_c, 0, 64, 98
1, 29593, Note_off_c, 0, 59, 67
1, 29593, Note_off_c, 0, 60, 66
1, 29596, Note_off_c, 0, 55, 63
1, 29603, Control_c, 0, 64, 83
1, 29618, Control_c, 0, 64, 57
1, 29633, Control_c, 0, 64, 0
1, 29729, Note_on_c, 0, 60, 60
1, 29738, Note_on_c, 0, 72, 59
1, 29740, Note_on_c, 0, 55, 53
1, 29745, Note_on_c, 0, 64, 46
1, 29750, Note_on_c, 0, 69, 53
1, 29754, Note_on_c, 0, 59, 21
1, 29773, Note_off_c, 0, 60, 54
1, 29781, Note_off_c, 0, 55, 61
1, 29783, Note_off_c, 0, 69, 68
1, 29796, Note_off_c, 0, 59, 52
1, 29829, Note_on_c, 0, 71, 52
1, 29867, Note_off_c, 0, 71, 64
1, 29875, Note_on_c, 0, 69, 53
1, 29895, Note_on_c, 0, 60, 52
1, 29896, Note_on_c, 0, 59, 48
1, 29900, Note_on_c, 0, 55, 43
1, 29906, Note_off_c, 0, 69, 67
1, 29927, Note_on_c, 0, 71, 60
1, 29931, Note_off_c, 0, 59, 63
1, 29936, Note_off_c, 0, 55, 66
1, 29936, Note_off_c, 0, 60, 63
1, 29971, Note_off_c, 0, 71, 62
1, 29983, Note_on_c, 0, 69, 66
1, 29995, Note_off_c, 0, 72, 39
1, 30018, Note_off_c, 0, 69, 60
1, 30026, Control_c, 0, 64, 43
1, 30030, Note_on_c, 0, 53, 67
1, 30032, Note_on_c, 0, 71, 57
1, 30041, Control_c, 0, 64, 85
1, 30045, Note_on_c, 0, 57, 67
1, 30046, Note_on_c, 0, 60, 81
1, 30056, Control_c, 0, 64, 127
1, 30073, Note_off_c, 0, 57, 64
1, 30075, Note_on_c, 0, 69, 62
1, 30075, Note_off_c, 0, 64, 36
1, 30077, Note_off_c, 0, 60, 62
1, 30079, Note_off_c, 0, 71, 61
1, 30085, Note_off_c, 0, 53, 64
1, 30100, Control_c, 0, 64, 89
1, 30115, Control_c, 0, 64, 63
1, 30130, Control_c, 0, 64, 0
1, 30135, Note_off_c, 0, 69, 66
1, 30138, Note_on_c, 0, 71, 61
1, 30160, Note_on_c, 0, 72, 72
1, 30180, Note_on_c, 0, 65, 78
1, 30185, Note_on_c, 0, 60, 74
1, 30190, Note_off_c, 0, 71, 63
1, 30194, Note_on_c, 0, 53, 69
1, 30198, Note_on_c, 0, 57, 52
1, 30202, Note_on_c, 0, 69, 50
1, 30212, Note_off_c, 0, 60, 63
1, 30231, Note_off_c, 0, 57, 61
1, 30234, Note_off_c, 0, 69, 67
1, 30238, Note_off_c, 0, 53, 63
1, 30253, Note_on_c, 0, 71, 62
1, 30305, Note_off_c, 0, 71, 62
1, 30313, Note_on_c, 0, 69, 58
1, 30341, Note_on_c, 0, 60, 59
1, 30347, Note_off_c, 0, 69, 63
1, 30351, Note_on_c, 0, 53, 54
1, 30362, Note_on_c, 0, 57, 36
1, 30365, Note_on_c, 0, 71, 60
1, 30388, Note_off_c, 0, 53, 66
1, 30406, Note_off_c, 0, 57, 45
1, 30413, Note_off_c, 0, 60, 38
1, 30413, Note_off_c, 0, 71, 61
1, 30418, Note_on_c, 0, 69, 60
1, 30457, Note_off_c, 0, 72, 36
1, 30475, Note_on_c, 0, 71, 65
1, 30475, Note_off_c, 0, 69, 64
1, 30482, Note_on_c, 0, 52, 83
1, 30515, Note_on_c, 0, 57, 69
1, 30523, Note_on_c, 0, 69, 69
1, 30523, Control_c, 0, 64, 58
1, 30523, Note_on_c, 0, 60, 75
1, 30528, Note_off_c, 0, 71, 62
1, 30534, Note_off_c, 0, 52, 66
1, 30537, Control_c, 0, 64, 69
1, 30551, Control_c, 0, 64, 85
1, 30555, Note_off_c, 0, 65, 60
1, 30556, Note_off_c, 0, 60, 59
1, 30564, Note_off_c, 0, 57, 60
1, 30566, Control_c, 0, 64, 114
1, 30580, Note_off_c, 0, 69, 67
1, 30581, Note_on_c, 0, 71, 68
1, 30581, Note_on_c, 0, 72, 68
1, 30596, Control_c, 0, 64, 104
1, 30610, Control_c, 0, 64, 84
1, 30625, Control_c, 0, 64, 65
1, 30640, Control_c, 0, 64, 0
1, 30644, Note_on_c, 0, 69, 75
1, 30644, Note_off_c, 0, 71, 63
1, 30648, Note_on_c, 0, 64, 80
1, 30651, Note_on_c, 0, 52, 72
1, 30658, Note_on_c, 0, 60, 78
1, 30670, Note_on_c, 0, 57, 65
1, 30687, Note_off_c, 0, 69, 65
1, 30699, Note_on_c, 0, 71, 64
1, 30702, Note_off_c, 0, 57, 62
1, 30706, Note_off_c, 0, 52, 61
1, 30706, Note_off_c, 0, 60, 57
1, 30748, Note_on_c, 0, 69, 65
1, 30755, Note_off_c, 0, 71, 64
1, 30806, Note_on_c, 0, 71, 68
1, 30806, Note_off_c, 0, 69, 67
1, 30814, Note_on_c, 0, 60, 63
1, 30819, Note_on_c, 0, 52, 63
1, 30827, Note_on_c, 0, 57, 42
1, 30846, Note_off_c, 0, 60, 63
1, 30851, Note_off_c, 0, 52, 67
1, 30851, Note_on_c, 0, 69, 57
1, 30861, Note_off_c, 0, 71, 64
1, 30875, Note_off_c, 0, 57, 46
1, 30904, Note_off_c, 0, 69, 64
1, 30907, Note_on_c, 0, 71, 62
1, 30936, Note_on_c, 0, 50, 71
1, 30943, Note_on_c, 0, 69, 58
1, 30952, Note_on_c, 0, 57, 74
1, 30952, Control_c, 0, 64, 64
1, 30957, Note_off_c, 0, 72, 46
1, 30961, Note_on_c, 0, 59, 81
1, 30967, Control_c, 0, 64, 76
1, 30973, Note_off_c, 0, 71, 61
1, 30976, Note_off_c, 0, 64, 64
1, 30982, Control_c, 0, 64, 95
1, 30984, Note_off_c, 0, 69, 66
1, 30987, Note_off_c, 0, 50, 60
1, 30991, Note_off_c, 0, 59, 63
1, 30994, Note_off_c, 0, 57, 63
1, 30997, Control_c, 0, 64, 119
1, 31012, Control_c, 0, 64, 127
1, 31056, Control_c, 0, 64, 95
1, 31071, Control_c, 0, 64, 65
1, 31085, Control_c, 0, 64, 0
1, 31101, Note_on_c, 0, 57, 70
1, 31105, Note_on_c, 0, 50, 70
1, 31108, Note_on_c, 0, 59, 63
1, 31118, Note_on_c, 0, 71, 66
1, 31122, Note_on_c, 0, 65, 59
1, 31122, Note_on_c, 0, 68, 60
1, 31134, Note_off_c, 0, 59, 65
1, 31138, Note_off_c, 0, 50, 63
1, 31149, Note_off_c, 0, 57, 56
1, 31240, Note_off_c, 0, 68, 0
1, 31260, Note_on_c, 0, 59, 64
1, 31262, Note_on_c, 0, 50, 60
1, 31265, Note_on_c, 0, 57, 60
1, 31277, Note_on_c, 0, 68, 9
1, 31291, Note_off_c, 0, 59, 64
1, 31295, Note_off_c, 0, 57, 64
1, 31306, Note_off_c, 0, 50, 63
1, 31389, Control_c, 0, 64, 63
1, 31390, Note_on_c, 0, 48, 77
1, 31391, Note_on_c, 0, 52, 82
1, 31404, Control_c, 0, 64, 127
1, 31405, Note_on_c, 0, 57, 88
1, 31409, Note_off_c, 0, 65, 60
1, 31428, Note_off_c, 0, 71, 62
1, 31436, Note_off_c, 0, 52, 67
1, 31441, Note_off_c, 0, 48, 60
1, 31443, Note_off_c, 0, 57, 62
1, 31447, Note_off_c, 0, 68, 40
1, 31522, Control_c, 0, 64, 99
1, 31538, Control_c, 0, 64, 64
1, 31547, Note_on_c, 0, 57, 77
1, 31551, Note_on_c, 0, 64, 63
1, 31551, Note_on_c, 0, 69, 65
1, 31553, Note_on_c, 0, 52, 63
1, 31553, Control_c, 0, 64, 0
1, 31554, Note_on_c, 0, 48, 69
1, 31563, Note_on_c, 0, 72, 64
1, 31583, Note_off_c, 0, 69, 63
1, 31587, Note_off_c, 0, 52, 67
1, 31590, Note_off_c, 0, 48, 56
1, 31593, Note_off_c, 0, 57, 55
1, 31615, Note_on_c, 0, 71, 64
1, 31654, Note_off_c, 0, 71, 60
1, 31666, Note_on_c, 0, 69, 64
1, 31694, Note_off_c, 0, 72, 0
1, 31700, Note_off_c, 0, 69, 65
1, 31703, Note_on_c, 0, 57, 67
1, 31708, Note_on_c, 0, 48, 59
1, 31709, Note_on_c, 0, 52, 60
1, 31728, Note_on_c, 0, 71, 59
1, 31730, Poly_aftertouch_c, 0, 72, 127
1, 31748, Note_off_c, 0, 48, 64
1, 31748, Note_off_c, 0, 52, 61
1, 31751, Note_off_c, 0, 57, 58
1, 31761, Note_off_c, 0, 71, 66
1, 31767, Note_on_c, 0, 69, 66
1, 31767, Poly_aftertouch_c, 0, 72, 0
1, 31817, Note_on_c, 0, 71, 67
1, 31817, Note_off_c, 0, 69, 64
1, 31845, Note_on_c, 0, 47, 72
1, 31849, Note_on_c, 0, 69, 66
1, 31849, Control_c, 0, 64, 54
1, 31852, Note_on_c, 0, 56, 88
1, 31855, Note_on_c, 0, 50, 63
1, 31855, Note_on_c, 0, 52, 72
1, 31864, Control_c, 0, 64, 76
1, 31868, Note_off_c, 0, 47, 67
1, 31876, Note_off_c, 0, 64, 65
1, 31877, Note_off_c, 0, 56, 61
1, 31878, Note_off_c, 0, 71, 64
1, 31879, Control_c, 0, 64, 80
1, 31880, Note_off_c, 0, 69, 69
1, 31884, Note_off_c, 0, 50, 65
1, 31892, Note_off_c, 0, 52, 62
1, 31894, Control_c, 0, 64, 76
1, 31908, Control_c, 0, 64, 64
1, 31923, Control_c, 0, 64, 31
1, 31938, Control_c, 0, 64, 0
1, 32015, Note_on_c, 0, 56, 67
1, 32016, Note_on_c, 0, 47, 60
1, 32019, Note_on_c, 0, 52, 51
1, 32021, Note_on_c, 0, 50, 46
1, 32028, Note_on_c, 0, 74, 77
1, 32031, Note_on_c, 0, 64, 68
1, 32036, Note_on_c, 0, 62, 68
1, 32036, Note_on_c, 0, 69, 58
1, 32040, Note_on_c, 0, 71, 62
1, 32042, Note_on_c, 0, 68, 64
1, 32068, Note_off_c, 0, 56, 62
1, 32072, Note_off_c, 0, 50, 57
1, 32073, Note_off_c, 0, 47, 56
1, 32100, Note_off_c, 0, 52, 59
1, 32172, Note_on_c, 0, 56, 74
1, 32186, Note_on_c, 0, 50, 60
1, 32186, Note_on_c, 0, 47, 55
1, 32201, Note_on_c, 0, 52, 40
1, 32219, Note_off_c, 0, 47, 66
1, 32226, Note_off_c, 0, 56, 62
1, 32236, Note_off_c, 0, 52, 59
1, 32300, Note_on_c, 0, 45, 81
1, 32301, Note_off_c, 0, 50, 63
1, 32302, Control_c, 0, 64, 12
1, 32312, Note_on_c, 0, 53, 89
1, 32316, Control_c, 0, 64, 71
1, 32317, Note_on_c, 0, 57, 97
1, 32332, Control_c, 0, 64, 83
1, 32343, Note_off_c, 0, 64, 63
1, 32344, Note_off_c, 0, 62, 59
1, 32347, Note_off_c, 0, 45, 62
1, 32347, Control_c, 0, 64, 81
1, 32358, Note_off_c, 0, 74, 63
1, 32362, Control_c, 0, 64, 64
1, 32377, Control_c, 0, 64, 0
1, 32377, Note_off_c, 0, 69, 62
1, 32379, Note_off_c, 0, 68, 59
1, 32381, Note_off_c, 0, 57, 58
1, 32389, Note_off_c, 0, 71, 59
1, 32402, Note_off_c, 0, 53, 55
1, 32466, Note_on_c, 0, 57, 75
1, 32466, Note_on_c, 0, 45, 71
1, 32467, Note_on_c, 0, 53, 46
1, 32474, Note_on_c, 0, 69, 45
1, 32479, Note_on_c, 0, 65, 77
1, 32481, Note_on_c, 0, 74, 75
1, 32483, Note_on_c, 0, 68, 69
1, 32486, Note_on_c, 0, 71, 68
1, 32520, Note_off_c, 0, 57, 58
1, 32521, Note_off_c, 0, 53, 58
1, 32531, Note_off_c, 0, 45, 61
1, 32621, Note_on_c, 0, 57, 71
1, 32627, Note_on_c, 0, 45, 63
1, 32630, Note_on_c, 0, 53, 40
1, 32649, Note_off_c, 0, 57, 62
1, 32664, Note_off_c, 0, 53, 65
1, 32668, Note_off_c, 0, 45, 65
1, 32754, Control_c, 0, 64, 46
1, 32769, Note_on_c, 0, 44, 82
1, 32769, Control_c, 0, 64, 92
1, 32776, Note_on_c, 0, 50, 78
1, 32781, Note_on_c, 0, 52, 96
1, 32784, Control_c, 0, 64, 127
1, 32814, Note_off_c, 0, 65, 59
1, 32815, Note_off_c, 0, 44, 64
1, 32816, Note_off_c, 0, 50, 59
1, 32821, Note_off_c, 0, 74, 61
1, 32828, Control_c, 0, 64, 88
1, 32829, Note_off_c, 0, 52, 67
1, 32843, Control_c, 0, 64, 48
1, 32844, Note_off_c, 0, 68, 56
1, 32848, Note_off_c, 0, 71, 52
1, 32857, Control_c, 0, 64, 0
1, 32899, Note_off_c, 0, 69, 0
1, 32919, Note_on_c, 0, 69, 33
1, 32927, Note_on_c, 0, 52, 87
1, 32934, Note_on_c, 0, 44, 65
1, 32938, Note_on_c, 0, 50, 58
1, 32940, Note_on_c, 0, 74, 78
1, 32943, Note_on_c, 0, 64, 78
1, 32944, Note_on_c, 0, 62, 76
1, 32947, Note_on_c, 0, 71, 70
1, 32955, Note_on_c, 0, 68, 62
1, 32981, Note_off_c, 0, 52, 64
1, 32985, Note_off_c, 0, 44, 61
1, 32997, Note_off_c, 0, 50, 57
1, 33081, Note_on_c, 0, 52, 73
1, 33082, Note_on_c, 0, 50, 52
1, 33087, Note_on_c, 0, 44, 62
1, 33111, Note_off_c, 0, 52, 67
1, 33113, Note_off_c, 0, 50, 67
1, 33125, Note_off_c, 0, 44, 64
1, 33220, Note_on_c, 0, 41, 80
1, 33221, Note_on_c, 0, 45, 78
1, 33229, Control_c, 0, 64, 77
1, 33238, Note_on_c, 0, 50, 96
1, 33244, Control_c, 0, 64, 127
1, 33274, Note_off_c, 0, 41, 65
1, 33274, Note_off_c, 0, 45, 65
1, 33274, Note_off_c, 0, 64, 60
1, 33276, Note_off_c, 0, 62, 59
1, 33280, Note_off_c, 0, 50, 62
1, 33298, Note_off_c, 0, 74, 60
1, 33318, Control_c, 0, 64, 73
1, 33333, Control_c, 0, 64, 15
1, 33334, Note_off_c, 0, 68, 47
1, 33337, Note_off_c, 0, 71, 52
1, 33348, Control_c, 0, 64, 0
1, 33386, Note_off_c, 0, 69, 0
1, 33396, Note_on_c, 0, 45, 69
1, 33396, Note_on_c, 0, 50, 84
1, 33397, Note_on_c, 0, 41, 77
1, 33402, Note_on_c, 0, 69, 45
1, 33405, Note_on_c, 0, 65, 84
1, 33408, Note_on_c, 0, 74, 77
1, 33410, Note_on_c, 0, 71, 65
1, 33420, Note_on_c, 0, 68, 69
1, 33440, Note_off_c, 0, 45, 59
1, 33444, Note_off_c, 0, 50, 60
1, 33492, Note_off_c, 0, 41, 45
1, 33550, Note_on_c, 0, 50, 78
1, 33551, Note_on_c, 0, 45, 72
1, 33564, Note_on_c, 0, 41, 28
1, 33588, Note_off_c, 0, 41, 52
1, 33596, Note_off_c, 0, 65, 56
1, 33602, Note_off_c, 0, 74, 57
1, 33608, Note_off_c, 0, 45, 63
1, 33618, Note_off_c, 0, 50, 60
1, 33622, Note_off_c, 0, 68, 52
1, 33644, Note_off_c, 0, 71, 52
1, 33668, Note_on_c, 0, 40, 80
1, 33671, Note_on_c, 0, 47, 53
1, 33704, Note_on_c, 0, 52, 96
1, 33710, Control_c, 0, 64, 64
1, 33712, Note_on_c, 0, 68, 78
1, 33715, Note_on_c, 0, 62, 91
1, 33717, Note_on_c, 0, 74, 86
1, 33721, Note_on_c, 0, 71, 74
1, 33724, Note_on_c, 0, 64, 72
1, 33725, Control_c, 0, 64, 127
1, 33736, Note_off_c, 0, 62, 69
1, 33739, Note_off_c, 0, 69, 58
1, 33744, Note_off_c, 0, 68, 67
1, 33745, Note_off_c, 0, 64, 71
1, 33751, Note_off_c, 0, 71, 62
1, 33767, Note_off_c, 0, 74, 68
1, 33873, Control_c, 0, 64, 102
1, 33888, Control_c, 0, 64, 81
1, 33888, Note_on_c, 0, 77, 88
1, 33894, Note_on_c, 0, 74, 77
1, 33903, Control_c, 0, 64, 70
1, 33915, Note_off_c, 0, 74, 73
1, 33918, Control_c, 0, 64, 60
1, 33933, Note_off_c, 0, 77, 62
1, 33933, Control_c, 0, 64, 14
1, 33948, Control_c, 0, 64, 0
1, 34052, Note_on_c, 0, 72, 81
1, 34054, Note_on_c, 0, 76, 76
1, 34081, Note_off_c, 0, 72, 64
1, 34085, Note_off_c, 0, 76, 67
1, 34151, Note_off_c, 0, 40, 37
1, 34195, Note_off_c, 0, 52, 54
1, 34197, Note_on_c, 0, 71, 78
1, 34198, Note_on_c, 0, 74, 74
1, 34232, Note_off_c, 0, 71, 65
1, 34257, Note_off_c, 0, 74, 64
1, 34263, Note_off_c, 0, 47, 51
1, 34358, Note_on_c, 0, 69, 73
1, 34361, Note_on_c, 0, 72, 70
1, 34385, Note_off_c, 0, 69, 65
1, 34394, Note_off_c, 0, 72, 61
1, 34451, Note_on_c, 0, 40, 71
1, 34478, Note_on_c, 0, 47, 65
1, 34493, Note_off_c, 0, 40, 66
1, 34505, Note_on_c, 0, 52, 72
1, 34512, Note_on_c, 0, 64, 79
1, 34513, Note_on_c, 0, 71, 69
1, 34514, Note_off_c, 0, 47, 68
1, 34517, Note_on_c, 0, 68, 68
1, 34535, Note_off_c, 0, 52, 70
1, 34539, Note_off_c, 0, 64, 66
1, 34546, Note_off_c, 0, 68, 65
1, 34557, Note_off_c, 0, 71, 61
1, 34636, Note_on_c, 0, 45, 70
1, 34641, Note_on_c, 0, 52, 58
1, 34656, Note_on_c, 0, 57, 89
1, 34667, Note_on_c, 0, 64, 82
1, 34668, Note_on_c, 0, 69, 77
1, 34669, Note_on_c, 0, 72, 81
1, 34681, Control_c, 0, 64, 74
1, 34690, Note_off_c, 0, 69, 71
1, 34696, Control_c, 0, 64, 127
1, 34705, Note_off_c, 0, 45, 64
1, 34723, Note_off_c, 0, 57, 64
1, 34725, Note_off_c, 0, 52, 67
1, 34728, Note_off_c, 0, 72, 62
1, 34786, Control_c, 0, 64, 77
1, 34800, Control_c, 0, 64, 55
1, 34812, Note_on_c, 0, 68, 77
1, 34815, Note_on_c, 0, 71, 73
1, 34815, Control_c, 0, 64, 0
1, 34846, Note_off_c, 0, 68, 64
1, 34846, Note_off_c, 0, 71, 62
1, 34987, Note_on_c, 0, 53, 57
1, 34990, Note_on_c, 0, 72, 75
1, 34991, Note_on_c, 0, 69, 74
1, 34994, Note_on_c, 0, 57, 54
1, 35003, Note_off_c, 0, 64, 53
1, 35021, Note_off_c, 0, 69, 67
1, 35026, Note_off_c, 0, 57, 64
1, 35036, Note_off_c, 0, 53, 64
1, 35038, Note_off_c, 0, 72, 65
1, 35152, Note_on_c, 0, 59, 73
1, 35154, Note_on_c, 0, 57, 61
1, 35155, Note_on_c, 0, 50, 66
1, 35156, Note_on_c, 0, 74, 73
1, 35157, Note_on_c, 0, 65, 76
1, 35158, Note_on_c, 0, 71, 71
1, 35182, Note_off_c, 0, 71, 69
1, 35207, Note_off_c, 0, 74, 64
1, 35311, Note_on_c, 0, 69, 82
1, 35319, Note_on_c, 0, 72, 70
1, 35339, Note_off_c, 0, 69, 66
1, 35349, Note_off_c, 0, 72, 64
1, 35358, Note_off_c, 0, 59, 64
1, 35372, Note_off_c, 0, 57, 62
1, 35396, Note_off_c, 0, 50, 62
1, 35466, Note_on_c, 0, 68, 80
1, 35471, Note_on_c, 0, 71, 73
1, 35474, Note_off_c, 0, 65, 64
1, 35490, Note_off_c, 0, 68, 69
1, 35491, Note_off_c, 0, 71, 69
1, 35590, Note_on_c, 0, 40, 79
1, 35605, Note_on_c, 0, 47, 88
1, 35617, Note_on_c, 0, 52, 98
1, 35653, Control_c, 0, 64, 36
1, 35668, Control_c, 0, 64, 50
1, 35683, Control_c, 0, 64, 52
1, 35705, Control_c, 0, 64, 54
1, 35720, Control_c, 0, 64, 55
1, 35735, Control_c, 0, 64, 57
1, 35750, Control_c, 0, 64, 58
1, 35764, Control_c, 0, 64, 58
1, 35779, Control_c, 0, 64, 55
1, 35794, Control_c, 0, 64, 36
1, 35799, Note_on_c, 0, 71, 75
1, 35801, Note_on_c, 0, 68, 74
1, 35802, Note_off_c, 0, 68, 127
1, 35802, Note_on_c, 0, 77, 87
1, 35802, Note_on_c, 0, 74, 74
1, 35809, Control_c, 0, 64, 0
1, 35815, Note_on_c, 0, 69, 71
1, 35823, Note_off_c, 0, 71, 68
1, 35831, Note_off_c, 0, 69, 70
1, 35832, Note_off_c, 0, 74, 63
1, 35847, Note_off_c, 0, 77, 65
1, 35960, Note_on_c, 0, 72, 85
1, 35966, Note_on_c, 0, 76, 82
1, 35989, Note_off_c, 0, 72, 66
1, 36008, Note_off_c, 0, 76, 64
1, 36110, Note_on_c, 0, 74, 79
1, 36122, Note_on_c, 0, 71, 73
1, 36145, Note_off_c, 0, 71, 69
1, 36147, Note_off_c, 0, 74, 62
1, 36159, Note_off_c, 0, 52, 56
1, 36172, Note_off_c, 0, 40, 42
1, 36201, Note_off_c, 0, 47, 54
1, 36269, Note_on_c, 0, 69, 66
1, 36270, Note_on_c, 0, 72, 71
1, 36297, Note_off_c, 0, 69, 69
1, 36321, Note_off_c, 0, 72, 61
1, 36380, Note_on_c, 0, 40, 68
1, 36402, Note_on_c, 0, 47, 57
1, 36407, Note_off_c, 0, 40, 67
1, 36417, Note_on_c, 0, 52, 81
1, 36423, Note_on_c, 0, 64, 69
1, 36429, Note_on_c, 0, 68, 61
1, 36429, Note_on_c, 0, 71, 61
1, 36441, Note_off_c, 0, 47, 67
1, 36446, Note_off_c, 0, 52, 69
1, 36458, Note_off_c, 0, 64, 66
1, 36467, Note_off_c, 0, 68, 65
1, 36474, Note_off_c, 0, 71, 61
1, 36552, Note_on_c, 0, 45, 79
1, 36564, Note_on_c, 0, 52, 76
1, 36568, Note_on_c, 0, 57, 96
1, 36571, Note_on_c, 0, 64, 80
1, 36571, Note_on_c, 0, 69, 80
1, 36574, Note_on_c, 0, 72, 74
1, 36602, Control_c, 0, 64, 72
1, 36613, Note_off_c, 0, 69, 64
1, 36617, Control_c, 0, 64, 106
1, 36631, Note_off_c, 0, 45, 65
1, 36632, Control_c, 0, 64, 127
1, 36643, Note_off_c, 0, 57, 63
1, 36649, Note_off_c, 0, 52, 68
1, 36657, Note_off_c, 0, 72, 62
1, 36720, Note_on_c, 0, 71, 75
1, 36720, Control_c, 0, 64, 95
1, 36722, Note_on_c, 0, 68, 74
1, 36735, Control_c, 0, 64, 77
1, 36750, Control_c, 0, 64, 65
1, 36756, Note_off_c, 0, 68, 63
1, 36765, Control_c, 0, 64, 45
1, 36769, Note_off_c, 0, 71, 54
1, 36780, Control_c, 0, 64, 0
1, 36872, Note_off_c, 0, 64, 49
1, 36874, Note_on_c, 0, 72, 77
1, 36877, Note_on_c, 0, 57, 69
1, 36877, Note_on_c, 0, 69, 74
1, 36880, Note_on_c, 0, 53, 65
1, 36902, Note_off_c, 0, 57, 66
1, 36904, Note_off_c, 0, 53, 68
1, 36909, Note_off_c, 0, 69, 64
1, 36928, Note_off_c, 0, 72, 65
1, 37023, Note_on_c, 0, 50, 70
1, 37033, Note_on_c, 0, 74, 71
1, 37036, Note_on_c, 0, 71, 60
1, 37054, Note_off_c, 0, 50, 66
1, 37061, Note_off_c, 0, 71, 64
1, 37084, Note_off_c, 0, 74, 62
1, 37178, Note_on_c, 0, 52, 65
1, 37200, Note_on_c, 0, 69, 60
1, 37201, Note_on_c, 0, 72, 59
1, 37221, Note_off_c, 0, 52, 64
1, 37224, Note_off_c, 0, 69, 67
1, 37239, Note_off_c, 0, 72, 60
1, 37331, Note_on_c, 0, 40, 62
1, 37341, Note_on_c, 0, 68, 73
1, 37350, Note_on_c, 0, 71, 62
1, 37367, Note_off_c, 0, 40, 64
1, 37372, Note_off_c, 0, 68, 62
1, 37385, Note_off_c, 0, 71, 61
1, 37480, Note_on_c, 0, 69, 86
1, 37484, Note_on_c, 0, 45, 63
1, 37484, Control_c, 0, 64, 65
1, 37497, Note_off_c, 0, 69, 75
1, 37499, Control_c, 0, 64, 96
1, 37512, Note_off_c, 0, 45, 67
1, 37514, Control_c, 0, 64, 94
1, 37528, Control_c, 0, 64, 77
1, 37543, Control_c, 0, 64, 59
1, 37558, Control_c, 0, 64, 0
1, 37644, Note_on_c, 0, 49, 57
1, 37646, Note_on_c, 0, 57, 69
1, 37670, Note_off_c, 0, 57, 66
1, 37702, Note_off_c, 0, 49, 56
1, 37721, Note_on_c, 0, 57, 80
1, 37747, Note_off_c, 0, 57, 65
1, 37800, Note_on_c, 0, 45, 56
1, 37805, Note_on_c, 0, 57, 73
1, 37823, Note_off_c, 0, 57, 65
1, 37832, Note_off_c, 0, 45, 65
1, 37872, Note_on_c, 0, 57, 77
1, 37895, Note_off_c, 0, 57, 69
1, 37942, Note_on_c, 0, 57, 89
1, 37966, Note_on_c, 0, 50, 78
1, 37975, Note_on_c, 0, 54, 69
1, 37988, Note_off_c, 0, 57, 59
1, 37999, Note_off_c, 0, 50, 68
1, 38115, Note_on_c, 0, 57, 73
1, 38131, Note_on_c, 0, 38, 68
1, 38148, Note_off_c, 0, 57, 63
1, 38161, Note_off_c, 0, 38, 64
1, 38208, Note_on_c, 0, 57, 60
1, 38240, Note_off_c, 0, 57, 59
1, 38281, Note_on_c, 0, 57, 70
1, 38290, Note_on_c, 0, 50, 59
1, 38297, Note_off_c, 0, 54, 58
1, 38326, Note_off_c, 0, 50, 63
1, 38347, Note_off_c, 0, 57, 63
1, 38354, Note_on_c, 0, 61, 71
1, 38410, Note_off_c, 0, 61, 62
1, 38433, Note_on_c, 0, 49, 81
1, 38437, Note_on_c, 0, 52, 78
1, 38437, Note_on_c, 0, 57, 68
1, 38458, Note_off_c, 0, 49, 67
1, 38470, Note_off_c, 0, 57, 63
1, 38600, Note_on_c, 0, 57, 64
1, 38605, Note_on_c, 0, 49, 66
1, 38628, Note_off_c, 0, 57, 65
1, 38639, Note_off_c, 0, 49, 62
1, 38688, Note_on_c, 0, 57, 63
1, 38719, Note_off_c, 0, 57, 63
1, 38762, Note_on_c, 0, 49, 59
1, 38776, Note_on_c, 0, 57, 64
1, 38789, Note_off_c, 0, 52, 59
1, 38798, Note_off_c, 0, 49, 61
1, 38835, Note_off_c, 0, 57, 63
1, 38851, Note_on_c, 0, 61, 63
1, 38888, Note_off_c, 0, 61, 60
1, 38915, Note_on_c, 0, 47, 73
1, 38923, Note_on_c, 0, 50, 66
1, 38927, Note_on_c, 0, 57, 61
1, 38946, Note_off_c, 0, 47, 65
1, 38956, Note_off_c, 0, 57, 65
1, 39099, Note_on_c, 0, 57, 36
1, 39102, Note_on_c, 0, 47, 62
1, 39131, Note_off_c, 0, 57, 47
1, 39136, Note_off_c, 0, 47, 65
1, 39179, Note_on_c, 0, 57, 56
1, 39206, Note_off_c, 0, 57, 63
1, 39233, Note_on_c, 0, 47, 69
1, 39257, Note_on_c, 0, 57, 71
1, 39263, Note_off_c, 0, 47, 65
1, 39280, Note_off_c, 0, 50, 40
1, 39319, Note_off_c, 0, 57, 63
1, 39337, Note_on_c, 0, 61, 63
1, 39408, Note_on_c, 0, 45, 58
1, 39410, Note_on_c, 0, 49, 59
1, 39411, Note_off_c, 0, 61, 56
1, 39420, Note_on_c, 0, 57, 50
1, 39453, Note_off_c, 0, 57, 59
1, 39490, Note_on_c, 0, 52, 57
1, 39507, Control_c, 0, 64, 20
1, 39515, Note_off_c, 0, 52, 62
1, 39522, Control_c, 0, 64, 37
1, 39538, Control_c, 0, 64, 40
1, 39553, Control_c, 0, 64, 39
1, 39568, Control_c, 0, 64, 29
1, 39583, Control_c, 0, 64, 0
1, 39620, Note_off_c, 0, 45, 40
1, 39649, Note_on_c, 0, 57, 66
1, 39728, Note_off_c, 0, 57, 48
1, 39730, Note_on_c, 0, 64, 66
1, 39736, Note_off_c, 0, 49, 35
1, 39789, Note_on_c, 0, 61, 62
1, 39798, Note_off_c, 0, 64, 61
1, 39842, Note_on_c, 0, 45, 73
1, 39868, Note_on_c, 0, 52, 71
1, 39873, Note_on_c, 0, 69, 67
1, 39875, Note_off_c, 0, 61, 62
1, 39899, Note_on_c, 0, 57, 90
1, 39923, Note_off_c, 0, 69, 66
1, 39948, Note_on_c, 0, 64, 70
1, 39953, Control_c, 0, 64, 44
1, 39968, Control_c, 0, 64, 54
1, 39983, Control_c, 0, 64, 58
1, 39987, Note_off_c, 0, 64, 61
1, 39997, Control_c, 0, 64, 58
1, 40012, Control_c, 0, 64, 57
1, 40027, Control_c, 0, 64, 56
1, 40041, Control_c, 0, 64, 54
1, 40045, Note_on_c, 0, 73, 42
1, 40056, Control_c, 0, 64, 52
1, 40063, Note_on_c, 0, 74, 50
1, 40071, Control_c, 0, 64, 48
1, 40080, Note_off_c, 0, 73, 53
1, 40086, Note_off_c, 0, 74, 61
1, 40086, Control_c, 0, 64, 39
1, 40101, Control_c, 0, 64, 10
1, 40108, Note_on_c, 0, 69, 77
1, 40115, Control_c, 0, 64, 0
1, 40148, Note_off_c, 0, 57, 57
1, 40155, Note_off_c, 0, 52, 61
1, 40156, Note_off_c, 0, 45, 60
1, 40202, Note_on_c, 0, 76, 78
1, 40226, Note_off_c, 0, 69, 59
1, 40261, Note_on_c, 0, 73, 79
1, 40274, Note_off_c, 0, 76, 62
1, 40298, Note_on_c, 0, 45, 60
1, 40324, Note_on_c, 0, 52, 69
1, 40339, Note_on_c, 0, 81, 88
1, 40342, Note_off_c, 0, 73, 63
1, 40346, Control_c, 0, 64, 48
1, 40353, Note_on_c, 0, 57, 85
1, 40361, Control_c, 0, 64, 61
1, 40376, Control_c, 0, 64, 64
1, 40391, Control_c, 0, 64, 67
1, 40406, Control_c, 0, 64, 70
1, 40416, Note_on_c, 0, 76, 83
1, 40421, Control_c, 0, 64, 73
1, 40435, Note_off_c, 0, 81, 59
1, 40435, Control_c, 0, 64, 76
1, 40450, Control_c, 0, 64, 78
1, 40465, Control_c, 0, 64, 78
1, 40487, Note_on_c, 0, 73, 75
1, 40515, Note_off_c, 0, 76, 64
1, 40548, Note_off_c, 0, 73, 62
1, 40553, Note_on_c, 0, 69, 73
1, 40576, Note_off_c, 0, 69, 72
1, 40583, Control_c, 0, 64, 78
1, 40598, Control_c, 0, 64, 76
1, 40613, Control_c, 0, 64, 72
1, 40617, Note_off_c, 0, 57, 50
1, 40620, Note_off_c, 0, 52, 34
1, 40628, Control_c, 0, 64, 64
1, 40630, Note_on_c, 0, 49, 67
1, 40632, Note_on_c, 0, 64, 80
1, 40642, Note_off_c, 0, 45, 63
1, 40643, Control_c, 0, 64, 36
1, 40658, Control_c, 0, 64, 0
1, 40663, Note_off_c, 0, 49, 65
1, 40703, Note_off_c, 0, 64, 60
1, 40711, Note_on_c, 0, 61, 75
1, 40780, Note_off_c, 0, 61, 58
1, 40783, Note_on_c, 0, 66, 74
1, 40795, Note_on_c, 0, 50, 80
1, 40820, Note_off_c, 0, 50, 64
1, 40860, Note_on_c, 0, 62, 65
1, 40881, Note_off_c, 0, 66, 56
1, 40950, Note_on_c, 0, 61, 64
1, 40956, Note_on_c, 0, 52, 66
1, 40962, Note_off_c, 0, 62, 48
1, 40989, Note_off_c, 0, 52, 67
1, 40998, Note_off_c, 0, 61, 60
1, 41010, Note_on_c, 0, 59, 65
1, 41093, Note_off_c, 0, 59, 58
1, 41093, Note_on_c, 0, 40, 68
1, 41093, Note_on_c, 0, 57, 65
1, 41135, Note_off_c, 0, 40, 61
1, 41143, Note_off_c, 0, 57, 58
1, 41157, Note_on_c, 0, 56, 64
1, 41233, Note_on_c, 0, 45, 93
1, 41250, Note_off_c, 0, 56, 60
1, 41252, Note_on_c, 0, 57, 67
1, 41252, Note_off_c, 0, 45, 73
1, 41293, Note_off_c, 0, 57, 63
1, 41326, Note_on_c, 0, 52, 65
1, 41397, Note_off_c, 0, 52, 63
1, 41412, Note_on_c, 0, 61, 68
1, 41418, Note_on_c, 0, 81, 102
1, 41438, Note_off_c, 0, 81, 65
1, 41501, Note_on_c, 0, 52, 61
1, 41555, Note_off_c, 0, 61, 51
1, 41568, Note_off_c, 0, 52, 58
1, 41590, Note_on_c, 0, 57, 57
1, 41595, Note_on_c, 0, 45, 81
1, 41614, Note_on_c, 0, 43, 47
1, 41615, Note_off_c, 0, 43, 127
1, 41616, Note_off_c, 0, 45, 69
1, 41665, Note_on_c, 0, 52, 59
1, 41722, Note_off_c, 0, 57, 36
1, 41770, Note_on_c, 0, 40, 90
1, 41782, Note_off_c, 0, 52, 62
1, 41793, Note_on_c, 0, 59, 61
1, 41836, Note_off_c, 0, 59, 59
1, 41869, Note_on_c, 0, 52, 62
1, 41934, Note_off_c, 0, 52, 64
1, 41945, Note_on_c, 0, 61, 65
1, 42004, Note_off_c, 0, 61, 60
1, 42020, Note_on_c, 0, 52, 61
1, 42084, Note_off_c, 0, 52, 62
1, 42115, Note_on_c, 0, 62, 68
1, 42175, Note_off_c, 0, 62, 61
1, 42189, Note_on_c, 0, 52, 71
1, 42249, Note_on_c, 0, 45, 96
1, 42256, Note_off_c, 0, 52, 64
1, 42268, Note_off_c, 0, 40, 41
1, 42270, Note_off_c, 0, 45, 72
1, 42278, Note_on_c, 0, 61, 73
1, 42354, Note_on_c, 0, 52, 64
1, 42354, Note_off_c, 0, 61, 62
1, 42427, Note_on_c, 0, 81, 96
1, 42428, Note_off_c, 0, 52, 66
1, 42437, Note_on_c, 0, 57, 66
1, 42446, Note_off_c, 0, 81, 74
1, 42545, Note_on_c, 0, 52, 60
1, 42589, Note_on_c, 0, 45, 91
1, 42605, Note_off_c, 0, 52, 63
1, 42610, Note_off_c, 0, 45, 73
1, 42611, Note_on_c, 0, 61, 68
1, 42628, Note_off_c, 0, 57, 37
1, 42676, Note_on_c, 0, 52, 61
1, 42685, Note_off_c, 0, 61, 60
1, 42765, Note_off_c, 0, 52, 64
1, 42770, Note_on_c, 0, 40, 88
1, 42785, Note_on_c, 0, 59, 66
1, 42837, Note_off_c, 0, 59, 62
1, 42846, Note_on_c, 0, 52, 73
1, 42923, Note_off_c, 0, 52, 64
1, 42931, Note_on_c, 0, 61, 64
1, 42991, Note_off_c, 0, 61, 61
1, 42998, Note_on_c, 0, 52, 62
1, 43057, Note_off_c, 0, 52, 62
1, 43084, Note_on_c, 0, 62, 70
1, 43150, Note_on_c, 0, 52, 64
1, 43156, Note_off_c, 0, 62, 60
1, 43194, Note_off_c, 0, 52, 67
1, 43257, Note_on_c, 0, 45, 88
1, 43259, Note_on_c, 0, 61, 67
1, 43264, Note_off_c, 0, 40, 53
1, 43314, Note_off_c, 0, 61, 61
1, 43326, Control_c, 0, 64, 23
1, 43328, Note_on_c, 0, 57, 73
1, 43341, Control_c, 0, 64, 48
1, 43355, Control_c, 0, 64, 56
1, 43370, Control_c, 0, 64, 60
1, 43385, Control_c, 0, 64, 63
1, 43399, Control_c, 0, 64, 67
1, 43414, Control_c, 0, 64, 69
1, 43415, Note_on_c, 0, 64, 68
1, 43420, Note_off_c, 0, 57, 38
1, 43429, Control_c, 0, 64, 70
1, 43444, Control_c, 0, 64, 71
1, 43459, Control_c, 0, 64, 71
1, 43473, Control_c, 0, 64, 72
1, 43478, Note_on_c, 0, 61, 68
1, 43479, Note_off_c, 0, 64, 62
1, 43488, Control_c, 0, 64, 73
1, 43503, Control_c, 0, 64, 74
1, 43519, Control_c, 0, 64, 74
1, 43563, Note_on_c, 0, 49, 75
1, 43566, Note_on_c, 0, 69, 73
1, 43567, Note_off_c, 0, 61, 61
1, 43578, Control_c, 0, 64, 74
1, 43581, Note_off_c, 0, 45, 62
1, 43591, Note_off_c, 0, 49, 67
1, 43593, Control_c, 0, 64, 71
1, 43603, Note_off_c, 0, 69, 64
1, 43608, Control_c, 0, 64, 67
1, 43623, Control_c, 0, 64, 62
1, 43627, Note_on_c, 0, 64, 68
1, 43637, Control_c, 0, 64, 53
1, 43651, Note_off_c, 0, 64, 69
1, 43652, Control_c, 0, 64, 15
1, 43667, Control_c, 0, 64, 0
1, 43710, Note_on_c, 0, 50, 93
1, 43713, Note_on_c, 0, 78, 89
1, 43730, Note_off_c, 0, 50, 72
1, 43785, Note_on_c, 0, 74, 76
1, 43859, Note_on_c, 0, 73, 83
1, 43861, Note_on_c, 0, 52, 84
1, 43892, Note_off_c, 0, 74, 64
1, 43894, Note_off_c, 0, 52, 65
1, 43895, Note_off_c, 0, 78, 60
1, 43919, Note_off_c, 0, 73, 62
1, 43923, Note_on_c, 0, 71, 76
1, 44009, Note_on_c, 0, 40, 68
1, 44014, Note_on_c, 0, 69, 77
1, 44018, Note_off_c, 0, 71, 60
1, 44033, Note_off_c, 0, 40, 61
1, 44086, Note_on_c, 0, 68, 80
1, 44088, Note_off_c, 0, 69, 65
1, 44164, Note_off_c, 0, 68, 64
1, 44165, Note_on_c, 0, 57, 66
1, 44168, Note_on_c, 0, 69, 84
1, 44186, Note_off_c, 0, 69, 76
1, 44229, Note_off_c, 0, 57, 61
1, 44234, Note_on_c, 0, 64, 65
1, 44313, Note_off_c, 0, 64, 60
1, 44324, Note_on_c, 0, 81, 97
1, 44342, Note_off_c, 0, 81, 70
1, 44387, Note_on_c, 0, 64, 74
1, 44453, Note_off_c, 0, 64, 61
1, 44473, Note_on_c, 0, 57, 73
1, 44489, Note_on_c, 0, 45, 94
1, 44509, Note_off_c, 0, 45, 74
1, 44537, Note_on_c, 0, 64, 69
1, 44540, Note_off_c, 0, 57, 61
1, 44569, Note_off_c, 0, 64, 63
1, 44643, Note_on_c, 0, 52, 74
1, 44670, Note_on_c, 0, 40, 72
1, 44706, Note_on_c, 0, 42, 73
1, 44707, Note_off_c, 0, 40, 66
1, 44727, Note_on_c, 0, 64, 69
1, 44746, Note_off_c, 0, 42, 53
1, 44766, Note_on_c, 0, 40, 81
1, 44786, Note_off_c, 0, 64, 62
1, 44797, Note_off_c, 0, 40, 66
1, 44802, Note_on_c, 0, 59, 60
1, 44807, Note_on_c, 0, 42, 75
1, 44853, Note_on_c, 0, 40, 78
1, 44876, Note_off_c, 0, 42, 63
1, 44886, Note_on_c, 0, 64, 67
1, 44893, Note_off_c, 0, 59, 56
1, 44906, Note_off_c, 0, 52, 48
1, 44934, Note_off_c, 0, 64, 60
1, 44947, Note_on_c, 0, 56, 65
1, 44987, Note_off_c, 0, 56, 62
1, 45031, Note_on_c, 0, 64, 61
1, 45090, Note_off_c, 0, 64, 58
1, 45108, Note_off_c, 0, 40, 57
1, 45111, Note_on_c, 0, 57, 59
1, 45123, Note_on_c, 0, 45, 83
1, 45143, Note_off_c, 0, 45, 69
1, 45183, Note_off_c, 0, 57, 61
1, 45191, Note_on_c, 0, 64, 63
1, 45275, Note_off_c, 0, 64, 62
1, 45281, Note_on_c, 0, 61, 65
1, 45289, Note_on_c, 0, 81, 86
1, 45306, Note_off_c, 0, 81, 72
1, 45331, Note_off_c, 0, 61, 56
1, 45358, Note_on_c, 0, 64, 69
1, 45430, Note_off_c, 0, 64, 59
1, 45443, Note_on_c, 0, 69, 85
1, 45457, Note_on_c, 0, 57, 60
1, 45460, Note_off_c, 0, 69, 76
1, 45494, Note_off_c, 0, 57, 58
1, 45529, Note_on_c, 0, 64, 40
1, 45616, Note_off_c, 0, 64, 48
1, 45621, Note_on_c, 0, 52, 67
1, 45641, Note_on_c, 0, 40, 69
1, 45660, Note_on_c, 0, 38, 50
1, 45661, Note_off_c, 0, 38, 127
1, 45665, Note_off_c, 0, 40, 62
1, 45675, Control_c, 0, 64, 51
1, 45690, Control_c, 0, 64, 60
1, 45691, Note_on_c, 0, 42, 54
1, 45705, Control_c, 0, 64, 63
1, 45720, Control_c, 0, 64, 64
1, 45728, Note_on_c, 0, 64, 50
1, 45733, Note_on_c, 0, 40, 83
1, 45734, Note_off_c, 0, 42, 64
1, 45734, Control_c, 0, 64, 67
1, 45749, Control_c, 0, 64, 70
1, 45764, Control_c, 0, 64, 71
1, 45779, Note_off_c, 0, 64, 62
1, 45779, Control_c, 0, 64, 72
1, 45781, Note_on_c, 0, 42, 68
1, 45788, Note_off_c, 0, 40, 64
1, 45793, Note_on_c, 0, 59, 54
1, 45794, Control_c, 0, 64, 74
1, 45809, Control_c, 0, 64, 75
1, 45817, Note_on_c, 0, 40, 65
1, 45824, Control_c, 0, 64, 75
1, 45839, Note_off_c, 0, 42, 64
1, 45849, Note_off_c, 0, 40, 70
1, 45854, Control_c, 0, 64, 76
1, 45901, Note_on_c, 0, 64, 27
1, 45913, Control_c, 0, 64, 75
1, 45928, Control_c, 0, 64, 72
1, 45940, Note_off_c, 0, 52, 62
1, 45941, Note_on_c, 0, 56, 72
1, 45943, Note_off_c, 0, 64, 57
1, 45943, Control_c, 0, 64, 68
1, 45958, Note_off_c, 0, 59, 30
1, 45958, Control_c, 0, 64, 61
1, 45973, Control_c, 0, 64, 0
1, 46006, Note_off_c, 0, 56, 61
1, 46020, Note_on_c, 0, 64, 69
1, 46116, Note_on_c, 0, 81, 69
1, 46131, Note_on_c, 0, 57, 61
1, 46137, Note_off_c, 0, 64, 36
1, 46165, Control_c, 0, 64, 63
1, 46167, Note_off_c, 0, 57, 64
1, 46180, Control_c, 0, 64, 67
1, 46202, Control_c, 0, 64, 71
1, 46206, Note_off_c, 0, 81, 57
1, 46211, Note_on_c, 0, 76, 67
1, 46217, Control_c, 0, 64, 75
1, 46232, Control_c, 0, 64, 78
1, 46247, Control_c, 0, 64, 80
1, 46262, Control_c, 0, 64, 82
1, 46277, Note_on_c, 0, 73, 67
1, 46277, Control_c, 0, 64, 83
1, 46291, Control_c, 0, 64, 84
1, 46296, Note_off_c, 0, 76, 61
1, 46328, Note_off_c, 0, 73, 62
1, 46342, Note_on_c, 0, 69, 64
1, 46351, Control_c, 0, 64, 85
1, 46365, Control_c, 0, 64, 86
1, 46366, Note_off_c, 0, 69, 68
1, 46380, Control_c, 0, 64, 87
1, 46410, Control_c, 0, 64, 86
1, 46419, Note_on_c, 0, 49, 71
1, 46423, Note_on_c, 0, 64, 74
1, 46424, Control_c, 0, 64, 79
1, 46439, Control_c, 0, 64, 65
1, 46454, Control_c, 0, 64, 0
1, 46462, Note_off_c, 0, 49, 61
1, 46477, Note_off_c, 0, 64, 61
1, 46492, Note_on_c, 0, 61, 75
1, 46569, Note_on_c, 0, 66, 75
1, 46572, Note_off_c, 0, 61, 59
1, 46574, Note_on_c, 0, 50, 87
1, 46593, Note_off_c, 0, 50, 69
1, 46635, Note_on_c, 0, 62, 74
1, 46658, Note_off_c, 0, 66, 57
1, 46721, Note_on_c, 0, 52, 90
1, 46727, Note_on_c, 0, 61, 67
1, 46738, Note_off_c, 0, 62, 54
1, 46760, Note_off_c, 0, 52, 66
1, 46775, Note_off_c, 0, 61, 64
1, 46778, Note_on_c, 0, 59, 67
1, 46858, Note_on_c, 0, 41, 76
1, 46861, Note_on_c, 0, 57, 67
1, 46890, Note_off_c, 0, 41, 65
1, 46894, Note_off_c, 0, 59, 36
1, 46903, Note_on_c, 0, 56, 75
1, 46903, Note_off_c, 0, 57, 63
1, 46918, Note_off_c, 0, 56, 67
1, 47027, Note_on_c, 0, 45, 69
1, 47034, Note_on_c, 0, 81, 82
1, 47051, Note_on_c, 0, 83, 58
1, 47052, Note_off_c, 0, 83, 127
1, 47059, Note_off_c, 0, 45, 64
1, 47070, Control_c, 0, 64, 54
1, 47085, Control_c, 0, 64, 64
1, 47100, Control_c, 0, 64, 65
1, 47110, Note_on_c, 0, 76, 85
1, 47114, Control_c, 0, 64, 66
1, 47129, Control_c, 0, 64, 67
1, 47144, Control_c, 0, 64, 68
1, 47159, Control_c, 0, 64, 71
1, 47166, Note_off_c, 0, 81, 56
1, 47173, Control_c, 0, 64, 71
1, 47181, Note_on_c, 0, 73, 89
1, 47198, Note_on_c, 0, 57, 71
1, 47208, Note_off_c, 0, 76, 65
1, 47218, Control_c, 0, 64, 71
1, 47238, Note_off_c, 0, 57, 59
1, 47238, Note_off_c, 0, 73, 63
1, 47247, Note_on_c, 0, 69, 83
1, 47272, Note_off_c, 0, 69, 70
1, 47277, Control_c, 0, 64, 68
1, 47292, Control_c, 0, 64, 64
1, 47307, Control_c, 0, 64, 52
1, 47321, Control_c, 0, 64, 0
1, 47335, Note_on_c, 0, 64, 79
1, 47336, Note_on_c, 0, 49, 79
1, 47357, Note_off_c, 0, 49, 67
1, 47402, Note_off_c, 0, 64, 61
1, 47410, Note_on_c, 0, 61, 81
1, 47482, Note_on_c, 0, 50, 89
1, 47487, Note_on_c, 0, 66, 82
1, 47497, Note_off_c, 0, 61, 61
1, 47502, Note_off_c, 0, 50, 72
1, 47554, Note_on_c, 0, 62, 74
1, 47599, Note_off_c, 0, 66, 58
1, 47630, Note_on_c, 0, 61, 73
1, 47636, Note_on_c, 0, 52, 93
1, 47660, Note_off_c, 0, 62, 60
1, 47666, Note_off_c, 0, 52, 66
1, 47699, Note_off_c, 0, 61, 64
1, 47705, Note_on_c, 0, 59, 73
1, 47784, Note_on_c, 0, 40, 86
1, 47789, Note_on_c, 0, 57, 74
1, 47800, Note_off_c, 0, 59, 53
1, 47812, Note_off_c, 0, 40, 69
1, 47867, Note_off_c, 0, 57, 59
1, 47870, Note_on_c, 0, 56, 62
1, 47955, Note_off_c, 0, 56, 60
1, 47968, Note_on_c, 0, 57, 69
1, 47985, Note_on_c, 0, 45, 73
1, 48012, Note_off_c, 0, 57, 60
1, 48036, Note_on_c, 0, 59, 66
1, 48078, Note_off_c, 0, 59, 60
1, 48091, Note_on_c, 0, 57, 66
1, 48118, Note_off_c, 0, 57, 64
1, 48140, Note_on_c, 0, 59, 69
1, 48190, Note_on_c, 0, 57, 68
1, 48194, Note_off_c, 0, 59, 65
1, 48238, Note_on_c, 0, 59, 72
1, 48243, Note_off_c, 0, 57, 62
1, 48295, Note_off_c, 0, 59, 65
1, 48297, Note_on_c, 0, 57, 62
1, 48434, Control_c, 0, 64, 48
1, 48449, Control_c, 0, 64, 59
1, 48464, Control_c, 0, 64, 63
1, 48479, Control_c, 0, 64, 66
1, 48493, Control_c, 0, 64, 70
1, 48497, Note_off_c, 0, 45, 65
1, 48508, Control_c, 0, 64, 75
1, 48524, Control_c, 0, 64, 81
1, 48539, Control_c, 0, 64, 84
1, 48554, Control_c, 0, 64, 86
1, 48568, Control_c, 0, 64, 87
1, 48583, Control_c, 0, 64, 87
1, 48701, Note_off_c, 0, 57, 62
1, 48805, Control_c, 0, 64, 87
1, 48820, Control_c, 0, 64, 86
1, 48834, Control_c, 0, 64, 85
1, 48849, Control_c, 0, 64, 83
1, 48864, Control_c, 0, 64, 82
1, 48879, Control_c, 0, 64, 80
1, 48894, Control_c, 0, 64, 79
1, 48909, Control_c, 0, 64, 78
1, 48924, Control_c, 0, 64, 77
1, 48938, Control_c, 0, 64, 76
1, 48953, Control_c, 0, 64, 75
1, 48968, Control_c, 0, 64, 74
1, 48983, Control_c, 0, 64, 73
1, 48998, Control_c, 0, 64, 72
1, 49012, Control_c, 0, 64, 70
1, 49027, Control_c, 0, 64, 69
1, 49034, Note_on_c, 0, 69, 75
1, 49042, Control_c, 0, 64, 67
1, 49057, Control_c, 0, 64, 66
1, 49072, Control_c, 0, 64, 65
1, 49086, Control_c, 0, 64, 65
1, 49102, Control_c, 0, 64, 64
1, 49117, Control_c, 0, 64, 63
1, 49132, Control_c, 0, 64, 60
1, 49147, Control_c, 0, 64, 58
1, 49162, Control_c, 0, 64, 58
1, 49183, Control_c, 0, 64, 57
1, 49198, Control_c, 0, 64, 54
1, 49213, Control_c, 0, 64, 46
1, 49228, Control_c, 0, 64, 0
1, 49287, Note_on_c, 0, 81, 73
1, 49352, Note_off_c, 0, 81, 60
1, 49450, Note_on_c, 0, 81, 80
1, 49504, Note_off_c, 0, 81, 60
1, 49603, Note_on_c, 0, 82, 78
1, 49615, Note_on_c, 0, 81, 66
1, 49693, Note_off_c, 0, 69, 61
1, 49735, Note_off_c, 0, 81, 45
1, 49775, Note_on_c, 0, 79, 60
1, 49787, Note_on_c, 0, 69, 62
1, 49815, Note_off_c, 0, 69, 69
1, 49830, Note_off_c, 0, 79, 60
1, 49937, Note_on_c, 0, 69, 63
1, 49940, Note_on_c, 0, 77, 63
1, 49940, Note_on_c, 0, 81, 66
1, 49979, Note_off_c, 0, 81, 61
1, 49983, Note_off_c, 0, 82, 62
1, 49988, Note_off_c, 0, 77, 61
1, 50095, Note_on_c, 0, 79, 69
1, 50104, Note_on_c, 0, 77, 60
1, 50164, Note_off_c, 0, 69, 61
1, 50253, Note_on_c, 0, 76, 55
1, 50253, Note_off_c, 0, 77, 58
1, 50268, Note_on_c, 0, 69, 65
1, 50289, Note_off_c, 0, 69, 69
1, 50295, Note_off_c, 0, 76, 57
1, 50411, Note_on_c, 0, 74, 60
1, 50414, Note_on_c, 0, 69, 62
1, 50422, Note_on_c, 0, 77, 67
1, 50438, Note_off_c, 0, 79, 55
1, 50439, Note_off_c, 0, 74, 68
1, 50447, Note_off_c, 0, 77, 66
1, 50572, Note_on_c, 0, 81, 62
1, 50585, Note_on_c, 0, 76, 51
1, 50599, Note_off_c, 0, 81, 65
1, 50620, Note_on_c, 0, 79, 49
1, 50634, Note_off_c, 0, 69, 59
1, 50644, Note_off_c, 0, 79, 56
1, 50656, Note_off_c, 0, 76, 63
1, 50659, Note_on_c, 0, 81, 76
1, 50715, Note_on_c, 0, 79, 74
1, 50742, Note_off_c, 0, 81, 60
1, 50751, Note_on_c, 0, 77, 70
1, 50760, Note_on_c, 0, 69, 63
1, 50761, Note_on_c, 0, 74, 66
1, 50765, Note_off_c, 0, 79, 61
1, 50782, Note_off_c, 0, 77, 57
1, 50787, Note_off_c, 0, 69, 71
1, 50787, Note_off_c, 0, 74, 69
1, 50922, Note_on_c, 0, 69, 61
1, 50933, Note_on_c, 0, 76, 50
1, 50933, Note_on_c, 0, 79, 60
1, 50956, Note_off_c, 0, 76, 61
1, 50956, Note_off_c, 0, 79, 64
1, 50957, Note_off_c, 0, 69, 64
1, 51084, Note_on_c, 0, 57, 50
1, 51255, Note_on_c, 0, 79, 64
1, 51258, Note_on_c, 0, 76, 60
1, 51276, Note_off_c, 0, 76, 66
1, 51282, Note_off_c, 0, 79, 66
1, 51407, Note_on_c, 0, 79, 75
1, 51415, Note_on_c, 0, 82, 69
1, 51436, Note_off_c, 0, 79, 68
1, 51448, Note_off_c, 0, 82, 67
1, 51579, Note_on_c, 0, 81, 73
1, 51589, Note_on_c, 0, 79, 55
1, 51616, Note_off_c, 0, 57, 58
1, 51737, Note_off_c, 0, 79, 48
1, 51745, Note_on_c, 0, 77, 58
1, 51773, Note_on_c, 0, 69, 13
1, 51773, Note_off_c, 0, 77, 63
1, 51800, Note_off_c, 0, 69, 33
1, 51899, Note_on_c, 0, 79, 64
1, 51903, Note_on_c, 0, 69, 58
1, 51912, Note_on_c, 0, 76, 50
1, 51917, Note_off_c, 0, 81, 53
1, 51931, Note_off_c, 0, 79, 61
1, 51937, Note_off_c, 0, 76, 65
1, 52064, Note_on_c, 0, 77, 66
1, 52072, Note_on_c, 0, 76, 42
1, 52119, Note_off_c, 0, 69, 64
1, 52140, Note_off_c, 0, 76, 44
1, 52215, Note_on_c, 0, 74, 60
1, 52236, Note_on_c, 0, 69, 58
1, 52243, Note_off_c, 0, 74, 62
1, 52257, Note_off_c, 0, 69, 67
1, 52370, Note_on_c, 0, 69, 57
1, 52370, Note_on_c, 0, 73, 58
1, 52385, Note_on_c, 0, 76, 45
1, 52392, Note_off_c, 0, 73, 64
1, 52393, Note_off_c, 0, 77, 47
1, 52413, Note_off_c, 0, 76, 66
1, 52528, Note_on_c, 0, 79, 56
1, 52533, Note_on_c, 0, 74, 60
1, 52549, Note_off_c, 0, 79, 62
1, 52562, Note_off_c, 0, 74, 66
1, 52565, Note_on_c, 0, 77, 51
1, 52571, Note_off_c, 0, 69, 61
1, 52588, Note_off_c, 0, 77, 60
1, 52599, Note_on_c, 0, 79, 67
1, 52655, Note_on_c, 0, 77, 67
1, 52661, Note_off_c, 0, 79, 62
1, 52680, Note_on_c, 0, 76, 72
1, 52695, Note_off_c, 0, 77, 58
1, 52701, Note_on_c, 0, 73, 59
1, 52707, Note_on_c, 0, 69, 37
1, 52710, Note_off_c, 0, 76, 62
1, 52736, Note_off_c, 0, 73, 59
1, 52739, Note_off_c, 0, 69, 56
1, 52837, Note_on_c, 0, 69, 59
1, 52853, Note_on_c, 0, 77, 64
1, 52862, Note_on_c, 0, 74, 48
1, 52881, Note_off_c, 0, 77, 66
1, 52885, Note_off_c, 0, 74, 62
1, 52899, Note_off_c, 0, 69, 58
1, 53007, Note_on_c, 0, 57, 56
1, 53157, Note_on_c, 0, 74, 57
1, 53162, Note_on_c, 0, 77, 55
1, 53186, Note_off_c, 0, 74, 69
1, 53195, Note_off_c, 0, 77, 64
1, 53315, Note_on_c, 0, 81, 67
1, 53321, Note_on_c, 0, 77, 62
1, 53346, Note_off_c, 0, 77, 65
1, 53371, Note_off_c, 0, 81, 58
1, 53492, Note_on_c, 0, 79, 67
1, 53500, Note_off_c, 0, 57, 56
1, 53503, Note_on_c, 0, 77, 51
1, 53626, Note_off_c, 0, 77, 37
1, 53632, Note_on_c, 0, 69, 64
1, 53640, Note_on_c, 0, 76, 52
1, 53655, Note_off_c, 0, 69, 68
1, 53695, Note_off_c, 0, 76, 58
1, 53797, Note_on_c, 0, 69, 61
1, 53801, Note_on_c, 0, 77, 68
1, 53814, Note_on_c, 0, 74, 53
1, 53819, Note_off_c, 0, 79, 55
1, 53832, Note_off_c, 0, 77, 61
1, 53836, Note_off_c, 0, 69, 63
1, 53844, Note_off_c, 0, 74, 68
1, 53956, Note_on_c, 0, 57, 58
1, 53966, Note_on_c, 0, 76, 63
1, 53974, Note_on_c, 0, 74, 45
1, 53992, Note_off_c, 0, 57, 60
1, 54106, Note_on_c, 0, 73, 57
1, 54115, Note_on_c, 0, 69, 50
1, 54132, Note_off_c, 0, 74, 56
1, 54149, Note_off_c, 0, 76, 61
1, 54154, Note_off_c, 0, 69, 64
1, 54257, Note_on_c, 0, 68, 59
1, 54269, Note_on_c, 0, 71, 64
1, 54279, Note_off_c, 0, 68, 60
1, 54281, Note_on_c, 0, 74, 54
1, 54281, Note_on_c, 0, 76, 49
1, 54284, Note_off_c, 0, 73, 51
1, 54298, Note_off_c, 0, 71, 65
1, 54309, Note_off_c, 0, 76, 62
1, 54315, Note_off_c, 0, 74, 66
1, 54432, Note_on_c, 0, 69, 69
1, 54438, Control_c, 0, 64, 68
1, 54439, Note_on_c, 0, 76, 64
1, 54440, Note_on_c, 0, 74, 58
1, 54453, Control_c, 0, 64, 127
1, 54465, Note_off_c, 0, 69, 61
1, 54466, Note_off_c, 0, 76, 58
1, 54492, Note_off_c, 0, 74, 62
1, 54507, Note_on_c, 0, 73, 57
1, 54541, Note_off_c, 0, 73, 59
1, 54564, Note_on_c, 0, 74, 55
1, 54579, Note_on_c, 0, 69, 69
1, 54595, Note_on_c, 0, 76, 53
1, 54595, Note_off_c, 0, 74, 71
1, 54620, Note_off_c, 0, 76, 60
1, 54625, Note_on_c, 0, 73, 60
1, 54625, Note_off_c, 0, 69, 59
1, 54646, Note_off_c, 0, 73, 66
1, 54671, Note_on_c, 0, 74, 66
1, 54695, Note_off_c, 0, 74, 71
1, 54713, Note_on_c, 0, 73, 74
1, 54728, Note_on_c, 0, 69, 71
1, 54769, Note_on_c, 0, 74, 69
1, 54772, Note_off_c, 0, 69, 61
1, 54790, Note_off_c, 0, 73, 0
1, 54805, Note_on_c, 0, 73, 55
1, 54812, Poly_aftertouch_c, 0, 76, 0
1, 54827, Note_off_c, 0, 74, 62
1, 54861, Note_on_c, 0, 68, 87
1, 54862, Note_on_c, 0, 74, 53
1, 54862, Note_on_c, 0, 76, 87
1, 54863, Note_on_c, 0, 71, 79
1, 54868, Control_c, 0, 64, 75
1, 54880, Note_off_c, 0, 76, 69
1, 54880, Note_off_c, 0, 73, 64
1, 54883, Control_c, 0, 64, 0
1, 54886, Note_off_c, 0, 68, 62
1, 54887, Note_off_c, 0, 71, 63
1, 54895, Note_off_c, 0, 74, 66
1, 55012, Note_on_c, 0, 76, 72
1, 55019, Note_on_c, 0, 73, 68
1, 55021, Note_on_c, 0, 74, 57
1, 55023, Note_on_c, 0, 68, 59
1, 55037, Note_off_c, 0, 76, 60
1, 55050, Note_off_c, 0, 74, 66
1, 55051, Note_off_c, 0, 68, 57
1, 55056, Note_off_c, 0, 73, 56
1, 55175, Note_on_c, 0, 76, 76
1, 55178, Note_on_c, 0, 74, 69
1, 55178, Note_on_c, 0, 68, 56
1, 55210, Note_off_c, 0, 68, 56
1, 55211, Note_off_c, 0, 74, 64
1, 55214, Note_off_c, 0, 76, 63
1, 55329, Note_on_c, 0, 74, 57
1, 55331, Note_on_c, 0, 76, 77
1, 55333, Note_on_c, 0, 69, 72
1, 55336, Control_c, 0, 64, 92
1, 55351, Control_c, 0, 64, 127
1, 55358, Note_off_c, 0, 74, 67
1, 55366, Note_off_c, 0, 76, 61
1, 55375, Note_off_c, 0, 69, 62
1, 55375, Note_on_c, 0, 73, 63
1, 55406, Note_off_c, 0, 73, 64
1, 55434, Note_on_c, 0, 74, 57
1, 55465, Note_off_c, 0, 74, 64
1, 55479, Note_on_c, 0, 69, 73
1, 55482, Note_on_c, 0, 76, 69
1, 55493, Note_on_c, 0, 73, 62
1, 55513, Note_off_c, 0, 76, 59
1, 55514, Note_off_c, 0, 73, 66
1, 55519, Note_off_c, 0, 69, 62
1, 55543, Note_on_c, 0, 74, 58
1, 55569, Note_off_c, 0, 74, 69
1, 55586, Note_on_c, 0, 73, 65
1, 55625, Note_off_c, 0, 73, 61
1, 55631, Note_on_c, 0, 76, 72
1, 55632, Note_on_c, 0, 69, 73
1, 55640, Note_on_c, 0, 74, 65
1, 55661, Note_off_c, 0, 76, 61
1, 55667, Note_off_c, 0, 69, 61
1, 55687, Note_off_c, 0, 74, 60
1, 55688, Note_on_c, 0, 73, 66
1, 55750, Note_on_c, 0, 76, 97
1, 55751, Control_c, 0, 64, 105
1, 55755, Note_on_c, 0, 71, 81
1, 55761, Note_on_c, 0, 68, 77
1, 55766, Control_c, 0, 64, 45
1, 55770, Note_off_c, 0, 73, 60
1, 55773, Note_on_c, 0, 74, 53
1, 55781, Control_c, 0, 64, 0
1, 55782, Note_off_c, 0, 76, 61
1, 55784, Note_off_c, 0, 68, 67
1, 55787, Note_off_c, 0, 71, 58
1, 55802, Note_off_c, 0, 74, 69
1, 55896, Note_on_c, 0, 76, 67
1, 55907, Note_on_c, 0, 73, 67
1, 55921, Note_on_c, 0, 74, 48
1, 55931, Note_on_c, 0, 68, 42
1, 55940, Note_off_c, 0, 76, 61
1, 55943, Note_off_c, 0, 73, 62
1, 55959, Note_off_c, 0, 68, 56
1, 55959, Note_off_c, 0, 74, 64
1, 56054, Note_on_c, 0, 76, 63
1, 56056, Note_on_c, 0, 74, 67
1, 56070, Note_on_c, 0, 68, 28
1, 56085, Note_off_c, 0, 76, 64
1, 56086, Note_off_c, 0, 74, 65
1, 56106, Note_off_c, 0, 68, 52
1, 56212, Note_on_c, 0, 74, 54
1, 56226, Note_on_c, 0, 76, 56
1, 56232, Note_on_c, 0, 69, 50
1, 56242, Note_off_c, 0, 74, 68
1, 56246, Note_off_c, 0, 76, 62
1, 56257, Note_off_c, 0, 69, 60
1, 56263, Note_on_c, 0, 73, 58
1, 56299, Note_off_c, 0, 73, 63
1, 56334, Note_on_c, 0, 74, 49
1, 56358, Note_on_c, 0, 69, 48
1, 56360, Note_off_c, 0, 74, 63
1, 56367, Note_on_c, 0, 76, 46
1, 56385, Note_on_c, 0, 73, 52
1, 56403, Note_off_c, 0, 76, 54
1, 56403, Note_off_c, 0, 69, 60
1, 56407, Note_off_c, 0, 73, 62
1, 56433, Note_on_c, 0, 74, 55
1, 56462, Note_off_c, 0, 74, 66
1, 56483, Note_on_c, 0, 73, 66
1, 56511, Note_off_c, 0, 73, 62
1, 56518, Note_on_c, 0, 69, 61
1, 56529, Note_on_c, 0, 74, 68
1, 56531, Note_on_c, 0, 76, 45
1, 56552, Note_off_c, 0, 69, 65
1, 56552, Note_off_c, 0, 74, 68
1, 56556, Note_off_c, 0, 76, 60
1, 56561, Note_on_c, 0, 73, 62
1, 56601, Note_off_c, 0, 73, 61
1, 56668, Note_on_c, 0, 73, 62
1, 56677, Note_on_c, 0, 76, 62
1, 56680, Note_on_c, 0, 67, 60
1, 56701, Note_on_c, 0, 71, 69
1, 56707, Note_off_c, 0, 76, 58
1, 56709, Note_off_c, 0, 67, 56
1, 56710, Note_off_c, 0, 73, 59
1, 56773, Note_off_c, 0, 71, 57
1, 56777, Note_on_c, 0, 73, 58
1, 56810, Note_off_c, 0, 73, 63
1, 56824, Note_on_c, 0, 71, 54
1, 56832, Note_on_c, 0, 67, 58
1, 56843, Note_on_c, 0, 76, 50
1, 56862, Note_off_c, 0, 67, 54
1, 56867, Note_off_c, 0, 76, 59
1, 56868, Note_off_c, 0, 71, 60
1, 56886, Note_on_c, 0, 73, 60
1, 56913, Note_off_c, 0, 73, 63
1, 56934, Note_on_c, 0, 71, 57
1, 56966, Note_off_c, 0, 71, 57
1, 56975, Note_on_c, 0, 67, 65
1, 56975, Note_on_c, 0, 73, 75
1, 56975, Note_on_c, 0, 76, 62
1, 57000, Note_off_c, 0, 67, 63
1, 57005, Note_off_c, 0, 76, 66
1, 57020, Note_on_c, 0, 71, 60
1, 57024, Note_off_c, 0, 73, 59
1, 57048, Note_off_c, 0, 71, 66
1, 57130, Note_on_c, 0, 71, 65
1, 57137, Note_on_c, 0, 76, 72
1, 57145, Note_on_c, 0, 66, 59
1, 57162, Note_off_c, 0, 76, 66
1, 57163, Note_off_c, 0, 71, 62
1, 57166, Note_off_c, 0, 66, 64
1, 57175, Note_on_c, 0, 70, 68
1, 57206, Note_off_c, 0, 70, 60
1, 57238, Note_on_c, 0, 71, 57
1, 57273, Note_off_c, 0, 71, 62
1, 57282, Note_on_c, 0, 66, 53
1, 57288, Note_on_c, 0, 76, 53
1, 57301, Note_on_c, 0, 70, 54
1, 57314, Note_off_c, 0, 76, 57
1, 57314, Note_off_c, 0, 66, 57
1, 57391, Note_off_c, 0, 70, 0
1, 57436, Poly_aftertouch_c, 0, 70, 127
1, 57447, Note_on_c, 0, 76, 59
1, 57459, Note_on_c, 0, 67, 48
1, 57476, Note_on_c, 0, 71, 45
1, 57477, Note_off_c, 0, 76, 62
1, 57485, Note_off_c, 0, 67, 58
1, 57489, Poly_aftertouch_c, 0, 70, 0
1, 57500, Note_off_c, 0, 71, 59
1, 57605, Note_on_c, 0, 71, 57
1, 57613, Note_on_c, 0, 76, 65
1, 57625, Note_on_c, 0, 66, 53
1, 57639, Note_off_c, 0, 71, 65
1, 57646, Note_off_c, 0, 76, 61
1, 57652, Note_off_c, 0, 66, 55
1, 57670, Note_on_c, 0, 70, 47
1, 57694, Note_off_c, 0, 70, 60
1, 57704, Note_on_c, 0, 71, 54
1, 57738, Note_off_c, 0, 71, 63
1, 57762, Note_on_c, 0, 70, 56
1, 57765, Note_on_c, 0, 66, 54
1, 57777, Note_on_c, 0, 76, 52
1, 57803, Note_off_c, 0, 76, 57
1, 57810, Note_off_c, 0, 66, 61
1, 57824, Note_off_c, 0, 70, 0
1, 57861, Poly_aftertouch_c, 0, 70, 127
1, 57914, Poly_aftertouch_c, 0, 70, 0
1, 57921, Note_on_c, 0, 76, 60
1, 57929, Note_on_c, 0, 71, 57
1, 57936, Note_on_c, 0, 67, 47
1, 57953, Note_off_c, 0, 71, 65
1, 57959, Note_off_c, 0, 76, 61
1, 57963, Note_off_c, 0, 67, 57
1, 58081, Note_on_c, 0, 71, 60
1, 58097, Note_on_c, 0, 76, 54
1, 58103, Note_on_c, 0, 66, 50
1, 58109, Note_off_c, 0, 71, 65
1, 58118, Note_off_c, 0, 76, 62
1, 58126, Note_off_c, 0, 66, 61
1, 58129, Note_on_c, 0, 70, 58
1, 58159, Note_off_c, 0, 70, 66
1, 58184, Note_on_c, 0, 71, 62
1, 58212, Note_off_c, 0, 71, 65
1, 58236, Note_on_c, 0, 70, 65
1, 58251, Note_on_c, 0, 66, 55
1, 58256, Note_on_c, 0, 76, 54
1, 58287, Note_off_c, 0, 76, 56
1, 58290, Note_off_c, 0, 66, 52
1, 58396, Note_off_c, 0, 70, 57
1, 58403, Note_on_c, 0, 76, 55
1, 58409, Note_on_c, 0, 71, 59
1, 58410, Note_on_c, 0, 67, 61
1, 58424, Note_off_c, 0, 76, 63
1, 58437, Note_off_c, 0, 71, 66
1, 58440, Note_off_c, 0, 67, 66
1, 58559, Note_on_c, 0, 76, 58
1, 58579, Note_on_c, 0, 66, 61
1, 58579, Note_on_c, 0, 72, 38
1, 58594, Note_off_c, 0, 76, 65
1, 58600, Note_on_c, 0, 75, 64
1, 58607, Note_on_c, 0, 69, 29
1, 58613, Note_off_c, 0, 66, 63
1, 58630, Note_off_c, 0, 75, 68
1, 58635, Note_off_c, 0, 72, 0
1, 58635, Note_on_c, 0, 72, 32
1, 58644, Note_off_c, 0, 69, 53
1, 58654, Note_on_c, 0, 76, 61
1, 58700, Note_on_c, 0, 75, 63
1, 58717, Note_off_c, 0, 76, 54
1, 58737, Note_on_c, 0, 66, 50
1, 58740, Note_on_c, 0, 69, 48
1, 58766, Note_off_c, 0, 69, 58
1, 58775, Note_off_c, 0, 66, 64
1, 58889, Note_off_c, 0, 75, 55
1, 58892, Note_on_c, 0, 71, 53
1, 58896, Note_on_c, 0, 76, 60
1, 58898, Note_on_c, 0, 67, 33
1, 58907, Note_off_c, 0, 72, 49
1, 58926, Note_off_c, 0, 71, 62
1, 58930, Note_off_c, 0, 76, 68
1, 58940, Note_off_c, 0, 67, 51
1, 59050, Note_on_c, 0, 72, 56
1, 59053, Note_on_c, 0, 76, 48
1, 59058, Note_on_c, 0, 66, 56
1, 59059, Note_on_c, 0, 69, 55
1, 59076, Note_off_c, 0, 76, 62
1, 59077, Note_on_c, 0, 75, 76
1, 59091, Note_off_c, 0, 69, 68
1, 59093, Note_off_c, 0, 66, 63
1, 59128, Note_off_c, 0, 75, 63
1, 59142, Note_on_c, 0, 76, 75
1, 59184, Note_off_c, 0, 76, 62
1, 59192, Note_on_c, 0, 75, 52
1, 59221, Note_on_c, 0, 69, 44
1, 59226, Note_on_c, 0, 66, 43
1, 59258, Note_off_c, 0, 69, 62
1, 59262, Note_off_c, 0, 66, 63
1, 59364, Note_on_c, 0, 67, 58
1, 59367, Note_on_c, 0, 71, 58
1, 59378, Note_off_c, 0, 75, 64
1, 59381, Note_on_c, 0, 76, 69
1, 59382, Note_off_c, 0, 72, 55
1, 59396, Note_off_c, 0, 67, 65
1, 59398, Note_off_c, 0, 71, 65
1, 59405, Note_off_c, 0, 76, 70
1, 59528, Note_on_c, 0, 76, 74
1, 59536, Note_on_c, 0, 72, 64
1, 59538, Note_on_c, 0, 69, 59
1, 59546, Note_on_c, 0, 66, 49
1, 59554, Note_off_c, 0, 76, 65
1, 59569, Note_on_c, 0, 75, 64
1, 59573, Note_off_c, 0, 69, 62
1, 59578, Note_off_c, 0, 66, 65
1, 59611, Note_off_c, 0, 75, 59
1, 59624, Note_on_c, 0, 76, 76
1, 59664, Note_on_c, 0, 75, 55
1, 59687, Note_on_c, 0, 69, 60
1, 59694, Note_off_c, 0, 76, 64
1, 59700, Note_on_c, 0, 66, 53
1, 59715, Note_off_c, 0, 69, 69
1, 59730, Note_off_c, 0, 66, 67
1, 59758, Note_off_c, 0, 72, 57
1, 59846, Note_on_c, 0, 69, 63
1, 59847, Note_on_c, 0, 76, 79
1, 59849, Note_on_c, 0, 64, 62
1, 59855, Note_on_c, 0, 72, 70
1, 59871, Note_off_c, 0, 75, 64
1, 59872, Note_off_c, 0, 69, 71
1, 59877, Note_off_c, 0, 64, 67
1, 59879, Note_off_c, 0, 72, 70
1, 59882, Note_off_c, 0, 76, 65
1, 59999, Note_on_c, 0, 79, 84
1, 60002, Note_on_c, 0, 63, 75
1, 60007, Note_on_c, 0, 69, 66
1, 60016, Note_on_c, 0, 71, 70
1, 60021, Control_c, 0, 64, 104
1, 60031, Note_on_c, 0, 78, 76
1, 60031, Note_off_c, 0, 69, 70
1, 60032, Note_off_c, 0, 63, 59
1, 60036, Control_c, 0, 64, 127
1, 60043, Note_off_c, 0, 79, 58
1, 60072, Note_off_c, 0, 78, 62
1, 60097, Note_on_c, 0, 79, 76
1, 60124, Control_c, 0, 64, 72
1, 60134, Note_on_c, 0, 78, 74
1, 60139, Control_c, 0, 64, 0
1, 60144, Note_on_c, 0, 63, 62
1, 60150, Note_on_c, 0, 69, 67
1, 60162, Note_off_c, 0, 79, 61
1, 60178, Note_off_c, 0, 69, 64
1, 60192, Note_off_c, 0, 63, 59
1, 60243, Note_off_c, 0, 71, 57
1, 60299, Note_off_c, 0, 78, 54
1, 60323, Note_on_c, 0, 64, 68
1, 60323, Note_on_c, 0, 67, 57
1, 60326, Note_on_c, 0, 76, 65
1, 60328, Note_on_c, 0, 79, 82
1, 60336, Note_on_c, 0, 71, 68
1, 60350, Note_off_c, 0, 64, 68
1, 60353, Note_off_c, 0, 67, 66
1, 60353, Note_off_c, 0, 76, 68
1, 60357, Note_off_c, 0, 79, 64
1, 60361, Note_off_c, 0, 71, 67
1, 60483, Note_on_c, 0, 79, 82
1, 60493, Note_on_c, 0, 63, 70
1, 60497, Note_on_c, 0, 69, 64
1, 60502, Note_on_c, 0, 71, 70
1, 60503, Control_c, 0, 64, 59
1, 60517, Control_c, 0, 64, 127
1, 60523, Note_off_c, 0, 79, 63
1, 60523, Note_on_c, 0, 78, 74
1, 60528, Note_off_c, 0, 63, 60
1, 60529, Note_off_c, 0, 69, 64
1, 60553, Note_off_c, 0, 78, 59
1, 60581, Note_on_c, 0, 79, 75
1, 60620, Note_on_c, 0, 78, 78
1, 60631, Note_on_c, 0, 69, 68
1, 60633, Note_on_c, 0, 63, 68
1, 60648, Note_off_c, 0, 79, 60
1, 60651, Control_c, 0, 64, 92
1, 60666, Note_off_c, 0, 63, 59
1, 60666, Control_c, 0, 64, 61
1, 60669, Note_off_c, 0, 71, 59
1, 60681, Control_c, 0, 64, 0
1, 60684, Note_off_c, 0, 69, 61
1, 60794, Note_on_c, 0, 67, 63
1, 60806, Note_on_c, 0, 76, 58
1, 60809, Note_on_c, 0, 64, 54
1, 60812, Note_on_c, 0, 71, 65
1, 60812, Note_on_c, 0, 79, 71
1, 60812, Note_off_c, 0, 78, 40
1, 60828, Note_off_c, 0, 67, 64
1, 60832, Note_off_c, 0, 64, 63
1, 60834, Note_off_c, 0, 76, 67
1, 60836, Note_off_c, 0, 71, 66
1, 60845, Note_off_c, 0, 79, 64
1, 60958, Note_on_c, 0, 81, 79
1, 60966, Note_on_c, 0, 69, 55
1, 60970, Note_on_c, 0, 78, 78
1, 60972, Note_on_c, 0, 72, 69
1, 60984, Note_on_c, 0, 60, 35
1, 60986, Note_on_c, 0, 66, 42
1, 60991, Note_on_c, 0, 64, 19
1, 61004, Note_off_c, 0, 69, 63
1, 61014, Note_off_c, 0, 60, 51
1, 61023, Note_off_c, 0, 66, 55
1, 61031, Note_off_c, 0, 64, 50
1, 61115, Note_on_c, 0, 69, 69
1, 61116, Note_on_c, 0, 60, 52
1, 61119, Note_on_c, 0, 66, 63
1, 61124, Note_on_c, 0, 64, 49
1, 61168, Note_off_c, 0, 69, 60
1, 61168, Note_off_c, 0, 81, 61
1, 61169, Note_off_c, 0, 64, 57
1, 61170, Note_off_c, 0, 60, 59
1, 61172, Note_off_c, 0, 72, 63
1, 61194, Note_off_c, 0, 66, 60
1, 61272, Note_on_c, 0, 81, 84
1, 61274, Note_on_c, 0, 69, 71
1, 61274, Note_on_c, 0, 76, 74
1, 61276, Note_on_c, 0, 72, 78
1, 61277, Note_on_c, 0, 64, 62
1, 61283, Note_off_c, 0, 78, 62
1, 61287, Note_on_c, 0, 60, 53
1, 61289, Note_on_c, 0, 66, 56
1, 61295, Note_off_c, 0, 72, 74
1, 61295, Note_off_c, 0, 76, 72
1, 61298, Note_off_c, 0, 69, 70
1, 61303, Note_off_c, 0, 64, 67
1, 61308, Note_off_c, 0, 81, 61
1, 61310, Note_off_c, 0, 60, 62
1, 61313, Note_off_c, 0, 66, 68
1, 61432, Note_on_c, 0, 81, 81
1, 61435, Note_on_c, 0, 69, 62
1, 61438, Note_on_c, 0, 75, 82
1, 61444, Note_on_c, 0, 59, 55
1, 61446, Note_on_c, 0, 66, 48
1, 61447, Note_on_c, 0, 71, 67
1, 61460, Note_on_c, 0, 63, 36
1, 61493, Note_off_c, 0, 63, 53
1, 61494, Note_off_c, 0, 59, 55
1, 61495, Note_off_c, 0, 69, 64
1, 61524, Note_off_c, 0, 66, 52
1, 61584, Note_on_c, 0, 63, 53
1, 61587, Note_on_c, 0, 66, 48
1, 61589, Note_on_c, 0, 69, 64
1, 61596, Note_on_c, 0, 59, 48
1, 61622, Note_off_c, 0, 59, 58
1, 61626, Note_off_c, 0, 69, 60
1, 61641, Note_off_c, 0, 63, 62
1, 61642, Note_off_c, 0, 66, 62
1, 61644, Note_off_c, 0, 71, 58
1, 61670, Note_off_c, 0, 81, 55
1, 61712, Note_off_c, 0, 75, 67
1, 61739, Note_on_c, 0, 69, 67
1, 61742, Note_on_c, 0, 76, 80
1, 61748, Note_on_c, 0, 72, 80
1, 61750, Note_on_c, 0, 81, 81
1, 61751, Note_on_c, 0, 60, 54
1, 61761, Note_on_c, 0, 64, 43
1, 61762, Note_on_c, 0, 66, 57
1, 61766, Note_off_c, 0, 72, 72
1, 61768, Note_off_c, 0, 69, 67
1, 61775, Note_off_c, 0, 76, 67
1, 61781, Note_off_c, 0, 81, 62
1, 61781, Note_off_c, 0, 60, 64
1, 61783, Note_off_c, 0, 66, 62
1, 61789, Note_off_c, 0, 64, 55
1, 61914, Note_on_c, 0, 63, 59
1, 61915, Note_on_c, 0, 69, 61
1, 61918, Note_on_c, 0, 81, 81
1, 61922, Note_on_c, 0, 75, 82
1, 61924, Note_on_c, 0, 71, 73
1, 61933, Note_on_c, 0, 59, 49
1, 61935, Note_on_c, 0, 66, 42
1, 61980, Note_off_c, 0, 69, 62
1, 61982, Note_off_c, 0, 59, 59
1, 61995, Note_off_c, 0, 63, 55
1, 62003, Note_off_c, 0, 66, 62
1, 62079, Note_on_c, 0, 69, 72
1, 62085, Note_on_c, 0, 66, 55
1, 62086, Note_on_c, 0, 59, 56
1, 62092, Note_on_c, 0, 63, 43
1, 62114, Note_off_c, 0, 59, 65
1, 62120, Note_off_c, 0, 71, 60
1, 62125, Note_off_c, 0, 69, 58
1, 62126, Note_off_c, 0, 63, 58
1, 62136, Note_off_c, 0, 66, 60
1, 62146, Note_off_c, 0, 81, 59
1, 62183, Note_off_c, 0, 75, 65
1, 62222, Note_on_c, 0, 64, 65
1, 62222, Note_on_c, 0, 69, 82
1, 62228, Note_on_c, 0, 81, 82
1, 62233, Note_on_c, 0, 72, 73
1, 62233, Note_on_c, 0, 76, 69
1, 62246, Note_on_c, 0, 60, 51
1, 62251, Note_on_c, 0, 66, 56
1, 62256, Note_off_c, 0, 72, 69
1, 62257, Note_off_c, 0, 76, 68
1, 62259, Note_off_c, 0, 69, 61
1, 62268, Note_off_c, 0, 64, 60
1, 62269, Note_off_c, 0, 60, 59
1, 62275, Note_off_c, 0, 66, 63
1, 62283, Note_off_c, 0, 81, 61
1, 62361, Note_on_c, 0, 69, 93
1, 62368, Note_on_c, 0, 78, 86
1, 62370, Note_on_c, 0, 66, 72
1, 62370, Note_on_c, 0, 81, 86
1, 62371, Note_on_c, 0, 71, 81
1, 62371, Control_c, 0, 64, 64
1, 62372, Note_on_c, 0, 59, 79
1, 62372, Note_on_c, 0, 64, 81
1, 62374, Note_on_c, 0, 75, 82
1, 62386, Control_c, 0, 64, 99
1, 62391, Note_off_c, 0, 71, 72
1, 62393, Note_off_c, 0, 75, 73
1, 62401, Control_c, 0, 64, 127
1, 62405, Note_off_c, 0, 78, 66
1, 62423, Note_off_c, 0, 81, 66
1, 62433, Note_off_c, 0, 59, 64
1, 62444, Note_off_c, 0, 69, 69
1, 62461, Note_off_c, 0, 66, 65
1, 62462, Note_off_c, 0, 64, 65
1, 62475, Control_c, 0, 64, 110
1, 62490, Control_c, 0, 64, 80
1, 62505, Control_c, 0, 64, 65
1, 62520, Control_c, 0, 64, 0
1, 62526, Note_on_c, 0, 84, 87
1, 62528, Note_on_c, 0, 81, 91
1, 62547, Note_off_c, 0, 81, 68
1, 62571, Note_off_c, 0, 84, 64
1, 62687, Note_on_c, 0, 79, 77
1, 62690, Note_on_c, 0, 83, 66
1, 62714, Note_off_c, 0, 79, 60
1, 62725, Note_off_c, 0, 83, 60
1, 62840, Note_on_c, 0, 59, 64
1, 62842, Note_on_c, 0, 81, 71
1, 62842, Note_on_c, 0, 78, 69
1, 62844, Note_on_c, 0, 71, 65
1, 62869, Note_off_c, 0, 78, 64
1, 62898, Note_off_c, 0, 59, 63
1, 62898, Note_off_c, 0, 81, 56
1, 62988, Note_on_c, 0, 79, 66
1, 62989, Note_on_c, 0, 61, 74
1, 62992, Note_on_c, 0, 76, 54
1, 63020, Note_off_c, 0, 76, 55
1, 63033, Note_off_c, 0, 79, 55
1, 63056, Note_off_c, 0, 61, 60
1, 63131, Note_on_c, 0, 63, 82
1, 63135, Note_on_c, 0, 75, 72
1, 63143, Note_on_c, 0, 78, 63
1, 63147, Note_off_c, 0, 71, 62
1, 63164, Note_off_c, 0, 75, 66
1, 63173, Note_off_c, 0, 63, 66
1, 63175, Note_off_c, 0, 78, 63
1, 63284, Note_on_c, 0, 64, 60
1, 63284, Note_on_c, 0, 79, 66
1, 63293, Note_on_c, 0, 71, 53
1, 63307, Note_off_c, 0, 64, 62
1, 63328, Note_off_c, 0, 71, 58
1, 63444, Note_on_c, 0, 67, 60
1, 63448, Note_on_c, 0, 73, 59
1, 63470, Note_off_c, 0, 67, 62
1, 63518, Note_off_c, 0, 73, 44
1, 63593, Note_on_c, 0, 66, 58
1, 63601, Note_on_c, 0, 74, 63
1, 63614, Note_off_c, 0, 79, 50
1, 63620, Note_off_c, 0, 66, 67
1, 63625, Note_off_c, 0, 74, 71
1, 63742, Note_on_c, 0, 74, 50
1, 63743, Note_on_c, 0, 64, 49
1, 63745, Note_on_c, 0, 79, 50
1, 63763, Note_off_c, 0, 74, 61
1, 63767, Note_off_c, 0, 64, 58
1, 63778, Note_on_c, 0, 73, 57
1, 63802, Note_off_c, 0, 73, 64
1, 63828, Note_on_c, 0, 74, 68
1, 63851, Note_off_c, 0, 74, 72
1, 63868, Note_on_c, 0, 73, 65
1, 63889, Note_on_c, 0, 67, 52
1, 63931, Note_off_c, 0, 67, 57
1, 64028, Note_on_c, 0, 62, 57
1, 64028, Note_on_c, 0, 74, 71
1, 64042, Note_off_c, 0, 73, 60
1, 64049, Note_off_c, 0, 62, 61
1, 64051, Note_off_c, 0, 74, 69
1, 64067, Note_off_c, 0, 79, 50
1, 64150, Control_c, 0, 64, 55
1, 64173, Note_on_c, 0, 76, 73
1, 64173, Control_c, 0, 64, 68
1, 64174, Note_on_c, 0, 69, 79
1, 64175, Note_on_c, 0, 73, 78
1, 64175, Note_on_c, 0, 79, 80
1, 64177, Note_on_c, 0, 67, 66
1, 64182, Note_on_c, 0, 61, 62
1, 64188, Control_c, 0, 64, 66
1, 64190, Note_off_c, 0, 73, 69
1, 64192, Note_off_c, 0, 69, 75
1, 64196, Note_off_c, 0, 76, 70
1, 64203, Control_c, 0, 64, 56
1, 64217, Control_c, 0, 64, 0
1, 64219, Note_off_c, 0, 79, 64
1, 64320, Note_on_c, 0, 79, 85
1, 64326, Note_on_c, 0, 83, 73
1, 64341, Note_off_c, 0, 79, 68
1, 64370, Note_off_c, 0, 83, 56
1, 64454, Note_off_c, 0, 67, 60
1, 64464, Note_on_c, 0, 81, 78
1, 64466, Note_off_c, 0, 61, 58
1, 64481, Note_on_c, 0, 78, 62
1, 64500, Note_off_c, 0, 78, 67
1, 64506, Note_off_c, 0, 81, 57
1, 64615, Note_on_c, 0, 57, 53
1, 64618, Note_on_c, 0, 76, 68
1, 64621, Note_on_c, 0, 79, 64
1, 64622, Note_on_c, 0, 69, 52
1, 64641, Note_off_c, 0, 76, 70
1, 64647, Note_off_c, 0, 79, 62
1, 64667, Note_off_c, 0, 57, 53
1, 64757, Note_on_c, 0, 78, 68
1, 64761, Note_on_c, 0, 74, 55
1, 64769, Note_on_c, 0, 59, 54
1, 64782, Note_off_c, 0, 78, 67
1, 64788, Note_off_c, 0, 74, 66
1, 64806, Note_off_c, 0, 59, 61
1, 64886, Note_off_c, 0, 69, 58
1, 64911, Note_on_c, 0, 61, 72
1, 64912, Note_on_c, 0, 73, 69
1, 64912, Note_on_c, 0, 76, 64
1, 64933, Note_off_c, 0, 61, 69
1, 64935, Note_off_c, 0, 73, 67
1, 64949, Note_off_c, 0, 76, 65
1, 65047, Note_on_c, 0, 62, 83
1, 65052, Note_on_c, 0, 74, 71
1, 65064, Note_on_c, 0, 78, 70
1, 65083, Note_off_c, 0, 62, 59
1, 65098, Note_off_c, 0, 74, 50
1, 65138, Note_on_c, 0, 81, 71
1, 65150, Note_off_c, 0, 78, 62
1, 65192, Note_on_c, 0, 74, 69
1, 65197, Note_on_c, 0, 50, 58
1, 65207, Note_off_c, 0, 81, 58
1, 65241, Note_off_c, 0, 50, 60
1, 65262, Note_off_c, 0, 74, 63
1, 65269, Note_on_c, 0, 78, 68
1, 65321, Note_off_c, 0, 78, 62
1, 65332, Note_on_c, 0, 69, 69
1, 65340, Note_on_c, 0, 54, 60
1, 65367, Note_off_c, 0, 54, 64
1, 65392, Note_on_c, 0, 73, 75
1, 65395, Note_off_c, 0, 69, 58
1, 65465, Note_off_c, 0, 73, 60
1, 65468, Note_on_c, 0, 71, 76
1, 65470, Note_on_c, 0, 55, 79
1, 65498, Note_off_c, 0, 55, 68
1, 65522, Note_off_c, 0, 71, 59
1, 65529, Note_on_c, 0, 74, 64
1, 65602, Note_on_c, 0, 67, 72
1, 65603, Note_off_c, 0, 74, 63
1, 65616, Note_on_c, 0, 50, 55
1, 65656, Note_off_c, 0, 50, 63
1, 65656, Note_off_c, 0, 67, 61
1, 65686, Note_on_c, 0, 71, 66
1, 65736, Note_off_c, 0, 71, 62
1, 65757, Note_on_c, 0, 62, 75
1, 65761, Note_on_c, 0, 43, 58
1, 65798, Note_off_c, 0, 43, 63
1, 65825, Note_on_c, 0, 67, 70
1, 65825, Note_off_c, 0, 62, 57
1, 65895, Note_off_c, 0, 67, 59
1, 65900, Note_on_c, 0, 66, 70
1, 65906, Note_on_c, 0, 50, 88
1, 65967, Note_on_c, 0, 69, 64
1, 65978, Note_off_c, 0, 66, 52
1, 66012, Control_c, 0, 64, 27
1, 66027, Control_c, 0, 64, 39
1, 66037, Note_off_c, 0, 69, 62
1, 66042, Control_c, 0, 64, 42
1, 66044, Note_on_c, 0, 62, 65
1, 66056, Control_c, 0, 64, 41
1, 66071, Control_c, 0, 64, 34
1, 66082, Note_off_c, 0, 62, 60
1, 66086, Control_c, 0, 64, 23
1, 66101, Control_c, 0, 64, 20
1, 66136, Note_on_c, 0, 65, 51
1, 66145, Control_c, 0, 64, 0
1, 66161, Note_off_c, 0, 65, 60
1, 66177, Note_on_c, 0, 38, 69
1, 66191, Note_on_c, 0, 57, 69
1, 66191, Note_off_c, 0, 50, 62
1, 66207, Note_off_c, 0, 38, 65
1, 66257, Note_off_c, 0, 57, 37
1, 66317, Note_on_c, 0, 43, 80
1, 66319, Note_on_c, 0, 59, 65
1, 66347, Note_off_c, 0, 43, 66
1, 66379, Note_off_c, 0, 59, 62
1, 66386, Note_on_c, 0, 62, 65
1, 66457, Note_off_c, 0, 62, 60
1, 66459, Note_on_c, 0, 55, 62
1, 66468, Note_on_c, 0, 43, 75
1, 66496, Note_off_c, 0, 55, 64
1, 66502, Note_off_c, 0, 43, 64
1, 66529, Note_on_c, 0, 59, 62
1, 66589, Note_off_c, 0, 59, 60
1, 66601, Note_on_c, 0, 43, 69
1, 66607, Note_on_c, 0, 50, 67
1, 66627, Note_off_c, 0, 43, 64
1, 66655, Note_off_c, 0, 50, 54
1, 66680, Note_on_c, 0, 55, 59
1, 66732, Note_off_c, 0, 55, 62
1, 66749, Note_on_c, 0, 54, 59
1, 66755, Note_on_c, 0, 38, 70
1, 66815, Note_off_c, 0, 54, 58
1, 66829, Note_on_c, 0, 50, 61
1, 66905, Note_off_c, 0, 50, 54
1, 66914, Note_on_c, 0, 57, 53
1, 66973, Note_off_c, 0, 57, 56
1, 66976, Note_on_c, 0, 54, 60
1, 67027, Control_c, 0, 64, 19
1, 67042, Control_c, 0, 64, 28
1, 67049, Note_off_c, 0, 54, 61
1, 67052, Note_on_c, 0, 62, 68
1, 67057, Control_c, 0, 64, 32
1, 67072, Control_c, 0, 64, 33
1, 67083, Note_off_c, 0, 62, 64
1, 67087, Control_c, 0, 64, 33
1, 67112, Note_off_c, 0, 38, 60
1, 67116, Note_on_c, 0, 57, 68
1, 67116, Control_c, 0, 64, 34
1, 67165, Note_off_c, 0, 57, 59
1, 67168, Control_c, 0, 64, 29
1, 67183, Control_c, 0, 64, 15
1, 67198, Control_c, 0, 64, 0
1, 67209, Note_on_c, 0, 38, 81
1, 67211, Note_on_c, 0, 66, 72
1, 67258, Note_off_c, 0, 66, 62
1, 67275, Note_on_c, 0, 62, 75
1, 67330, Control_c, 0, 64, 21
1, 67345, Control_c, 0, 64, 43
1, 67359, Control_c, 0, 64, 51
1, 67362, Note_on_c, 0, 69, 76
1, 67368, Note_off_c, 0, 62, 39
1, 67374, Control_c, 0, 64, 55
1, 67389, Control_c, 0, 64, 57
1, 67403, Control_c, 0, 64, 60
1, 67418, Control_c, 0, 64, 62
1, 67422, Note_on_c, 0, 66, 76
1, 67433, Note_off_c, 0, 69, 60
1, 67433, Control_c, 0, 64, 64
1, 67448, Control_c, 0, 64, 66
1, 67463, Control_c, 0, 64, 67
1, 67479, Control_c, 0, 64, 68
1, 67494, Control_c, 0, 64, 71
1, 67501, Note_on_c, 0, 74, 77
1, 67504, Note_off_c, 0, 66, 67
1, 67508, Control_c, 0, 64, 74
1, 67523, Control_c, 0, 64, 76
1, 67538, Control_c, 0, 64, 76
1, 67545, Note_off_c, 0, 74, 63
1, 67558, Note_off_c, 0, 38, 64
1, 67561, Note_on_c, 0, 69, 73
1, 67583, Note_off_c, 0, 69, 69
1, 67597, Control_c, 0, 64, 76
1, 67612, Control_c, 0, 64, 75
1, 67627, Control_c, 0, 64, 72
1, 67642, Control_c, 0, 64, 67
1, 67656, Control_c, 0, 64, 59
1, 67662, Note_on_c, 0, 86, 82
1, 67665, Note_on_c, 0, 38, 75
1, 67671, Control_c, 0, 64, 0
1, 67689, Note_on_c, 0, 88, 40
1, 67690, Note_off_c, 0, 88, 127
1, 67743, Note_on_c, 0, 81, 85
1, 67745, Control_c, 0, 64, 55
1, 67760, Control_c, 0, 64, 65
1, 67775, Control_c, 0, 64, 73
1, 67781, Note_off_c, 0, 86, 56
1, 67790, Control_c, 0, 64, 81
1, 67805, Control_c, 0, 64, 87
1, 67816, Note_on_c, 0, 78, 85
1, 67820, Control_c, 0, 64, 96
1, 67834, Control_c, 0, 64, 110
1, 67845, Note_off_c, 0, 81, 62
1, 67849, Control_c, 0, 64, 127
1, 67870, Note_off_c, 0, 38, 62
1, 67876, Note_on_c, 0, 74, 81
1, 67881, Note_off_c, 0, 78, 66
1, 67952, Note_on_c, 0, 78, 89
1, 67962, Note_off_c, 0, 74, 60
1, 68017, Note_off_c, 0, 78, 63
1, 68023, Note_on_c, 0, 86, 82
1, 68094, Control_c, 0, 64, 106
1, 68108, Control_c, 0, 64, 86
1, 68113, Note_on_c, 0, 85, 73
1, 68123, Control_c, 0, 64, 70
1, 68124, Note_on_c, 0, 33, 85
1, 68138, Control_c, 0, 64, 57
1, 68142, Note_off_c, 0, 86, 61
1, 68153, Control_c, 0, 64, 0
1, 68212, Control_c, 0, 64, 44
1, 68213, Note_on_c, 0, 81, 66
1, 68226, Control_c, 0, 64, 62
1, 68240, Note_off_c, 0, 85, 62
1, 68241, Control_c, 0, 64, 67
1, 68256, Control_c, 0, 64, 74
1, 68263, Note_off_c, 0, 81, 60
1, 68271, Control_c, 0, 64, 81
1, 68287, Control_c, 0, 64, 87
1, 68293, Note_on_c, 0, 76, 66
1, 68302, Control_c, 0, 64, 96
1, 68317, Control_c, 0, 64, 127
1, 68324, Note_off_c, 0, 76, 62
1, 68377, Note_on_c, 0, 73, 58
1, 68411, Note_off_c, 0, 73, 48
1, 68439, Note_on_c, 0, 69, 71
1, 68493, Note_on_c, 0, 73, 84
1, 68497, Note_off_c, 0, 69, 66
1, 68513, Note_off_c, 0, 73, 67
1, 68519, Note_off_c, 0, 33, 62
1, 68583, Control_c, 0, 64, 119
1, 68594, Note_on_c, 0, 33, 87
1, 68598, Control_c, 0, 64, 80
1, 68600, Note_on_c, 0, 85, 83
1, 68613, Control_c, 0, 64, 64
1, 68628, Control_c, 0, 64, 45
1, 68643, Control_c, 0, 64, 0
1, 68679, Control_c, 0, 64, 25
1, 68689, Note_on_c, 0, 81, 72
1, 68694, Control_c, 0, 64, 59
1, 68709, Control_c, 0, 64, 67
1, 68713, Note_off_c, 0, 85, 63
1, 68724, Control_c, 0, 64, 78
1, 68739, Control_c, 0, 64, 98
1, 68741, Note_off_c, 0, 81, 63
1, 68754, Control_c, 0, 64, 118
1, 68756, Note_on_c, 0, 76, 70
1, 68769, Control_c, 0, 64, 127
1, 68786, Note_off_c, 0, 76, 65
1, 68828, Note_on_c, 0, 73, 85
1, 68876, Note_off_c, 0, 73, 64
1, 68894, Note_on_c, 0, 69, 78
1, 68926, Note_off_c, 0, 33, 52
1, 68958, Note_off_c, 0, 69, 63
1, 69021, Poly_aftertouch_c, 0, 73, 127
1, 69034, Poly_aftertouch_c, 0, 74, 127
1, 69048, Poly_aftertouch_c, 0, 73, 0
1, 69063, Poly_aftertouch_c, 0, 74, 0
1, 69063, Note_on_c, 0, 33, 82
1, 69065, Control_c, 0, 64, 80
1, 69069, Note_on_c, 0, 85, 83
1, 69081, Control_c, 0, 64, 62
1, 69096, Control_c, 0, 64, 0
1, 69146, Note_on_c, 0, 81, 76
1, 69155, Control_c, 0, 64, 56
1, 69170, Control_c, 0, 64, 65
1, 69183, Note_off_c, 0, 85, 64
1, 69185, Control_c, 0, 64, 74
1, 69198, Note_off_c, 0, 81, 62
1, 69200, Control_c, 0, 64, 96
1, 69215, Control_c, 0, 64, 127
1, 69219, Note_on_c, 0, 76, 66
1, 69242, Note_off_c, 0, 76, 68
1, 69289, Note_on_c, 0, 73, 83
1, 69340, Note_off_c, 0, 73, 64
1, 69356, Note_on_c, 0, 69, 80
1, 69421, Note_off_c, 0, 69, 64
1, 69428, Note_on_c, 0, 73, 79
1, 69441, Note_off_c, 0, 33, 49
1, 69450, Note_off_c, 0, 73, 67
1, 69488, Control_c, 0, 64, 84
1, 69503, Control_c, 0, 64, 0
1, 69546, Note_on_c, 0, 85, 81
1, 69552, Note_on_c, 0, 33, 61
1, 69575, Note_on_c, 0, 35, 43
1, 69606, Control_c, 0, 64, 80
1, 69612, Note_off_c, 0, 35, 31
1, 69621, Control_c, 0, 64, 127
1, 69626, Note_on_c, 0, 81, 78
1, 69652, Note_off_c, 0, 85, 62
1, 69676, Note_off_c, 0, 81, 63
1, 69693, Note_on_c, 0, 76, 70
1, 69717, Note_off_c, 0, 76, 69
1, 69758, Note_on_c, 0, 73, 77
1, 69822, Note_on_c, 0, 69, 71
1, 69854, Note_off_c, 0, 73, 60
1, 69868, Note_off_c, 0, 69, 67
1, 69877, Note_on_c, 0, 64, 74
1, 69904, Note_off_c, 0, 64, 66
1, 69950, Note_on_c, 0, 61, 78
1, 70009, Note_on_c, 0, 57, 74
1, 70040, Note_off_c, 0, 61, 61
1, 70055, Note_off_c, 0, 57, 63
1, 70071, Note_on_c, 0, 52, 77
1, 70095, Note_off_c, 0, 52, 70
1, 70139, Note_on_c, 0, 49, 76
1, 70192, Note_on_c, 0, 45, 81
1, 70245, Note_off_c, 0, 49, 62
1, 70273, Note_on_c, 0, 40, 82
1, 70283, Note_off_c, 0, 45, 60
1, 70294, Note_off_c, 0, 33, 38
1, 70310, Note_off_c, 0, 40, 66
1, 70325, Control_c, 0, 64, 101
1, 70340, Control_c, 0, 64, 79
1, 70353, Note_on_c, 0, 33, 76
1, 70355, Control_c, 0, 64, 59
1, 70370, Control_c, 0, 64, 0
1, 71182, Note_off_c, 0, 33, 66
1, 71528, Note_on_c, 0, 62, 47
1, 71538, Note_on_c, 0, 65, 46
1, 71556, Note_off_c, 0, 62, 57
1, 71569, Note_off_c, 0, 65, 62
1, 71698, Note_on_c, 0, 74, 59
1, 71705, Note_on_c, 0, 62, 29
1, 71725, Note_off_c, 0, 74, 67
1, 71741, Note_off_c, 0, 62, 48
1, 71852, Note_on_c, 0, 77, 75
1, 71853, Note_on_c, 0, 62, 51
1, 71868, Note_on_c, 0, 65, 41
1, 71892, Note_off_c, 0, 62, 59
1, 71897, Note_off_c, 0, 65, 55
1, 72004, Note_on_c, 0, 70, 70
1, 72006, Note_on_c, 0, 64, 57
1, 72014, Note_on_c, 0, 62, 41
1, 72020, Note_on_c, 0, 55, 50
1, 72049, Note_off_c, 0, 64, 56
1, 72058, Note_off_c, 0, 62, 46
1, 72069, Note_off_c, 0, 55, 57
1, 72148, Note_off_c, 0, 77, 60
1, 72153, Note_on_c, 0, 76, 74
1, 72158, Note_on_c, 0, 62, 57
1, 72163, Note_on_c, 0, 64, 58
1, 72183, Note_on_c, 0, 55, 38
1, 72190, Note_off_c, 0, 76, 63
1, 72195, Note_off_c, 0, 62, 59
1, 72199, Note_off_c, 0, 64, 61
1, 72216, Note_off_c, 0, 55, 47
1, 72309, Note_on_c, 0, 79, 78
1, 72312, Note_on_c, 0, 62, 65
1, 72315, Note_on_c, 0, 55, 49
1, 72316, Note_on_c, 0, 64, 60
1, 72342, Note_off_c, 0, 62, 65
1, 72354, Note_off_c, 0, 79, 58
1, 72356, Note_off_c, 0, 55, 60
1, 72358, Note_off_c, 0, 64, 59
1, 72467, Note_on_c, 0, 64, 67
1, 72469, Note_on_c, 0, 82, 93
1, 72479, Note_on_c, 0, 61, 62
1, 72485, Note_on_c, 0, 55, 36
1, 72496, Note_on_c, 0, 57, 45
1, 72497, Note_off_c, 0, 70, 64
1, 72506, Note_off_c, 0, 61, 65
1, 72507, Note_off_c, 0, 64, 56
1, 72523, Note_off_c, 0, 55, 52
1, 72524, Note_off_c, 0, 57, 56
1, 72524, Note_off_c, 0, 82, 67
1, 72623, Note_on_c, 0, 81, 78
1, 72630, Note_on_c, 0, 55, 46
1, 72634, Note_on_c, 0, 64, 49
1, 72640, Note_on_c, 0, 61, 48
1, 72643, Note_on_c, 0, 57, 32
1, 72666, Note_off_c, 0, 64, 57
1, 72669, Note_off_c, 0, 61, 58
1, 72670, Note_off_c, 0, 81, 60
1, 72676, Note_off_c, 0, 55, 53
1, 72676, Note_off_c, 0, 57, 56
1, 72774, Note_on_c, 0, 73, 71
1, 72777, Note_on_c, 0, 64, 49
1, 72782, Note_on_c, 0, 61, 47
1, 72786, Note_on_c, 0, 57, 38
1, 72797, Note_off_c, 0, 73, 68
1, 72801, Note_on_c, 0, 55, 34
1, 72816, Note_off_c, 0, 61, 64
1, 72816, Note_off_c, 0, 64, 62
1, 72818, Note_off_c, 0, 57, 60
1, 72834, Note_off_c, 0, 55, 46
1, 72924, Note_on_c, 0, 64, 55
1, 72931, Note_on_c, 0, 57, 41
1, 72934, Note_on_c, 0, 76, 63
1, 72944, Note_on_c, 0, 53, 42
1, 72965, Note_off_c, 0, 64, 60
1, 72967, Note_off_c, 0, 57, 59
1, 72968, Note_off_c, 0, 76, 59
1, 72976, Note_off_c, 0, 53, 57
1, 73080, Note_on_c, 0, 74, 54
1, 73092, Note_on_c, 0, 53, 37
1, 73094, Note_on_c, 0, 57, 42
1, 73096, Note_on_c, 0, 62, 52
1, 73108, Note_off_c, 0, 74, 65
1, 73128, Note_off_c, 0, 57, 57
1, 73130, Note_off_c, 0, 62, 54
1, 73131, Note_off_c, 0, 53, 51
1, 73242, Note_on_c, 0, 70, 57
1, 73254, Note_on_c, 0, 62, 42
1, 73254, Note_on_c, 0, 57, 37
1, 73259, Note_on_c, 0, 53, 41
1, 73276, Note_off_c, 0, 70, 64
1, 73293, Note_off_c, 0, 57, 54
1, 73300, Note_off_c, 0, 62, 45
1, 73304, Note_off_c, 0, 53, 51
1, 73404, Note_on_c, 0, 69, 56
1, 73409, Note_on_c, 0, 57, 47
1, 73415, Note_on_c, 0, 62, 43
1, 73427, Note_on_c, 0, 53, 34
1, 73460, Note_off_c, 0, 57, 56
1, 73483, Note_off_c, 0, 62, 38
1, 73492, Note_off_c, 0, 53, 41
1, 73553, Note_on_c, 0, 74, 52
1, 73576, Note_on_c, 0, 57, 49
1, 73582, Note_off_c, 0, 74, 68
1, 73587, Note_on_c, 0, 62, 28
1, 73611, Poly_aftertouch_c, 0, 53, 127
1, 73620, Note_off_c, 0, 57, 59
1, 73623, Note_off_c, 0, 62, 50
1, 73638, Poly_aftertouch_c, 0, 53, 0
1, 73704, Note_off_c, 0, 69, 65
1, 73710, Note_on_c, 0, 77, 70
1, 73714, Note_on_c, 0, 62, 55
1, 73722, Note_on_c, 0, 57, 49
1, 73725, Note_on_c, 0, 53, 43
1, 73750, Note_off_c, 0, 57, 61
1, 73754, Note_off_c, 0, 53, 59
1, 73755, Note_off_c, 0, 62, 60
1, 73868, Note_on_c, 0, 70, 70
1, 73874, Note_on_c, 0, 62, 58
1, 73886, Note_on_c, 0, 64, 49
1, 73895, Note_on_c, 0, 55, 49
1, 73914, Note_off_c, 0, 62, 60
1, 73917, Note_off_c, 0, 64, 60
1, 73926, Note_off_c, 0, 55, 56
1, 73984, Note_off_c, 0, 77, 57
1, 74028, Note_on_c, 0, 64, 57
1, 74032, Note_on_c, 0, 55, 53
1, 74033, Note_on_c, 0, 76, 62
1, 74039, Note_on_c, 0, 62, 52
1, 74060, Note_off_c, 0, 76, 68
1, 74071, Note_off_c, 0, 62, 62
1, 74075, Note_off_c, 0, 64, 59
1, 74077, Note_off_c, 0, 55, 59
1, 74182, Note_on_c, 0, 62, 61
1, 74185, Note_on_c, 0, 79, 74
1, 74192, Note_on_c, 0, 55, 47
1, 74194, Note_on_c, 0, 64, 52
1, 74213, Note_off_c, 0, 62, 64
1, 74216, Note_off_c, 0, 79, 63
1, 74224, Note_off_c, 0, 64, 58
1, 74226, Note_off_c, 0, 55, 55
1, 74336, Note_on_c, 0, 82, 77
1, 74338, Note_on_c, 0, 64, 48
1, 74344, Note_on_c, 0, 61, 52
1, 74348, Note_on_c, 0, 55, 41
1, 74353, Note_on_c, 0, 57, 49
1, 74356, Note_off_c, 0, 70, 60
1, 74380, Note_off_c, 0, 61, 61
1, 74380, Note_off_c, 0, 64, 61
1, 74385, Note_off_c, 0, 55, 51
1, 74386, Note_off_c, 0, 57, 61
1, 74405, Note_off_c, 0, 82, 62
1, 74497, Note_on_c, 0, 64, 48
1, 74499, Note_on_c, 0, 81, 63
1, 74500, Note_on_c, 0, 57, 42
1, 74502, Note_on_c, 0, 55, 44
1, 74502, Note_on_c, 0, 61, 48
1, 74536, Note_off_c, 0, 64, 61
1, 74536, Note_off_c, 0, 81, 57
1, 74541, Note_off_c, 0, 61, 60
1, 74543, Note_off_c, 0, 55, 54
1, 74544, Note_off_c, 0, 57, 59
1, 74655, Note_on_c, 0, 64, 51
1, 74664, Note_on_c, 0, 73, 59
1, 74666, Note_on_c, 0, 61, 46
1, 74670, Note_on_c, 0, 57, 37
1, 74673, Note_on_c, 0, 55, 40
1, 74691, Note_off_c, 0, 73, 64
1, 74692, Note_off_c, 0, 61, 59
1, 74694, Note_off_c, 0, 64, 62
1, 74700, Note_off_c, 0, 57, 57
1, 74703, Note_off_c, 0, 55, 54
1, 74810, Note_on_c, 0, 64, 56
1, 74813, Note_on_c, 0, 57, 41
1, 74813, Note_on_c, 0, 76, 61
1, 74828, Note_on_c, 0, 53, 47
1, 74842, Note_off_c, 0, 64, 65
1, 74847, Note_off_c, 0, 76, 62
1, 74850, Note_off_c, 0, 57, 62
1, 74856, Note_off_c, 0, 53, 59
1, 74962, Note_on_c, 0, 74, 57
1, 74963, Note_on_c, 0, 53, 44
1, 74963, Note_on_c, 0, 62, 60
1, 74965, Note_on_c, 0, 57, 41
1, 74995, Note_off_c, 0, 62, 63
1, 74999, Note_off_c, 0, 74, 63
1, 75004, Note_off_c, 0, 57, 60
1, 75005, Note_off_c, 0, 53, 60
1, 75107, Note_on_c, 0, 62, 56
1, 75108, Note_on_c, 0, 70, 71
1, 75109, Note_on_c, 0, 57, 47
1, 75122, Note_on_c, 0, 53, 40
1, 75132, Note_off_c, 0, 70, 70
1, 75135, Note_off_c, 0, 62, 63
1, 75138, Note_off_c, 0, 57, 62
1, 75151, Note_off_c, 0, 53, 59
1, 75254, Note_on_c, 0, 53, 50
1, 75257, Note_on_c, 0, 62, 55
1, 75260, Note_on_c, 0, 69, 81
1, 75262, Note_on_c, 0, 57, 48
1, 75300, Note_off_c, 0, 62, 58
1, 75309, Note_off_c, 0, 57, 58
1, 75314, Note_off_c, 0, 53, 59
1, 75418, Note_on_c, 0, 76, 87
1, 75423, Note_on_c, 0, 62, 60
1, 75433, Note_on_c, 0, 57, 49
1, 75441, Note_on_c, 0, 53, 47
1, 75460, Note_off_c, 0, 76, 66
1, 75472, Note_off_c, 0, 62, 56
1, 75475, Note_off_c, 0, 53, 62
1, 75478, Note_off_c, 0, 57, 59
1, 75579, Note_on_c, 0, 77, 96
1, 75584, Note_on_c, 0, 53, 52
1, 75584, Note_on_c, 0, 62, 65
1, 75585, Note_off_c, 0, 69, 64
1, 75587, Note_on_c, 0, 57, 54
1, 75618, Note_off_c, 0, 57, 64
1, 75627, Note_off_c, 0, 53, 64
1, 75633, Note_off_c, 0, 62, 53
1, 75727, Note_on_c, 0, 70, 79
1, 75731, Note_on_c, 0, 55, 50
1, 75734, Note_on_c, 0, 58, 58
1, 75737, Note_on_c, 0, 62, 58
1, 75777, Note_off_c, 0, 62, 59
1, 75780, Note_off_c, 0, 58, 55
1, 75788, Note_off_c, 0, 55, 58
1, 75865, Note_off_c, 0, 77, 63
1, 75870, Note_on_c, 0, 78, 83
1, 75889, Note_on_c, 0, 62, 66
1, 75894, Note_on_c, 0, 58, 57
1, 75910, Note_on_c, 0, 55, 47
1, 75925, Note_off_c, 0, 62, 58
1, 75925, Note_off_c, 0, 58, 63
1, 75933, Note_off_c, 0, 78, 60
1, 75943, Note_off_c, 0, 55, 62
1, 76020, Note_on_c, 0, 79, 82
1, 76032, Note_on_c, 0, 62, 65
1, 76041, Note_on_c, 0, 55, 54
1, 76044, Note_on_c, 0, 58, 42
1, 76072, Note_off_c, 0, 58, 60
1, 76072, Note_off_c, 0, 62, 60
1, 76072, Note_off_c, 0, 55, 65
1, 76185, Note_on_c, 0, 67, 79
1, 76190, Note_on_c, 0, 62, 68
1, 76194, Note_on_c, 0, 57, 66
1, 76196, Note_on_c, 0, 64, 60
1, 76235, Note_off_c, 0, 64, 56
1, 76244, Note_off_c, 0, 67, 55
1, 76245, Note_off_c, 0, 57, 56
1, 76251, Note_off_c, 0, 62, 50
1, 76342, Note_on_c, 0, 77, 80
1, 76345, Note_on_c, 0, 67, 72
1, 76351, Note_on_c, 0, 57, 63
1, 76361, Note_on_c, 0, 64, 60
1, 76363, Note_on_c, 0, 62, 61
1, 76378, Note_off_c, 0, 79, 64
1, 76390, Note_off_c, 0, 57, 60
1, 76391, Note_off_c, 0, 67, 52
1, 76393, Note_off_c, 0, 62, 63
1, 76405, Note_off_c, 0, 64, 54
1, 76422, Note_off_c, 0, 77, 60
1, 76498, Note_on_c, 0, 73, 78
1, 76502, Note_on_c, 0, 67, 60
1, 76503, Note_on_c, 0, 57, 53
1, 76519, Note_on_c, 0, 62, 45
1, 76528, Note_on_c, 0, 64, 38
1, 76534, Note_off_c, 0, 57, 63
1, 76543, Note_off_c, 0, 67, 54
1, 76557, Note_off_c, 0, 64, 57
1, 76557, Note_off_c, 0, 73, 61
1, 76557, Note_off_c, 0, 62, 58
1, 76655, Note_on_c, 0, 73, 70
1, 76658, Note_on_c, 0, 67, 56
1, 76660, Note_on_c, 0, 58, 57
1, 76665, Note_on_c, 0, 62, 47
1, 76667, Note_off_c, 0, 70, 54
1, 76702, Note_off_c, 0, 58, 58
1, 76704, Note_off_c, 0, 73, 54
1, 76714, Note_off_c, 0, 62, 55
1, 76719, Note_off_c, 0, 67, 44
1, 76802, Note_on_c, 0, 74, 62
1, 76816, Note_on_c, 0, 58, 56
1, 76816, Note_on_c, 0, 67, 58
1, 76834, Note_on_c, 0, 62, 41
1, 76849, Note_off_c, 0, 74, 54
1, 76854, Note_off_c, 0, 58, 60
1, 76861, Note_off_c, 0, 67, 53
1, 76874, Note_off_c, 0, 62, 47
1, 76964, Note_on_c, 0, 73, 70
1, 76968, Note_on_c, 0, 67, 48
1, 76970, Note_on_c, 0, 58, 48
1, 76990, Note_off_c, 0, 73, 64
1, 76994, Note_off_c, 0, 67, 58
1, 77003, Note_off_c, 0, 58, 65
1, 77113, Note_on_c, 0, 57, 54
1, 77115, Note_on_c, 0, 62, 62
1, 77117, Note_on_c, 0, 74, 67
1, 77117, Note_on_c, 0, 69, 66
1, 77121, Note_on_c, 0, 53, 54
1, 77145, Note_off_c, 0, 74, 64
1, 77147, Note_off_c, 0, 57, 63
1, 77153, Note_off_c, 0, 62, 59
1, 77154, Note_off_c, 0, 53, 63
1, 77272, Note_on_c, 0, 76, 61
1, 77274, Note_on_c, 0, 57, 41
1, 77274, Note_on_c, 0, 62, 55
1, 77280, Note_on_c, 0, 53, 35
1, 77294, Note_off_c, 0, 76, 68
1, 77300, Note_off_c, 0, 62, 61
1, 77308, Note_off_c, 0, 57, 56
1, 77314, Note_off_c, 0, 53, 55
1, 77415, Note_off_c, 0, 69, 64
1, 77423, Note_on_c, 0, 57, 45
1, 77426, Note_on_c, 0, 53, 39
1, 77430, Note_on_c, 0, 62, 46
1, 77430, Note_on_c, 0, 77, 65
1, 77456, Note_off_c, 0, 57, 64
1, 77462, Note_off_c, 0, 53, 55
1, 77466, Note_off_c, 0, 62, 58
1, 77567, Note_on_c, 0, 62, 54
1, 77577, Note_on_c, 0, 70, 66
1, 77579, Note_on_c, 0, 55, 49
1, 77587, Note_on_c, 0, 58, 43
1, 77616, Note_off_c, 0, 62, 54
1, 77624, Note_off_c, 0, 58, 59
1, 77625, Note_off_c, 0, 77, 52
1, 77627, Note_off_c, 0, 55, 60
1, 77735, Note_on_c, 0, 78, 70
1, 77740, Note_on_c, 0, 58, 49
1, 77744, Note_on_c, 0, 62, 60
1, 77752, Note_on_c, 0, 55, 43
1, 77762, Note_off_c, 0, 78, 66
1, 77776, Note_off_c, 0, 62, 62
1, 77784, Note_off_c, 0, 55, 57
1, 77785, Note_off_c, 0, 58, 61
1, 77889, Note_on_c, 0, 62, 57
1, 77892, Note_on_c, 0, 55, 52
1, 77897, Note_on_c, 0, 79, 66
1, 77903, Note_on_c, 0, 58, 44
1, 77920, Note_off_c, 0, 55, 67
1, 77920, Note_off_c, 0, 62, 64
1, 77929, Note_off_c, 0, 58, 58
1, 78041, Note_on_c, 0, 67, 69
1, 78046, Note_on_c, 0, 64, 53
1, 78050, Note_on_c, 0, 62, 47
1, 78057, Note_on_c, 0, 57, 47
1, 78067, Note_off_c, 0, 67, 63
1, 78080, Note_off_c, 0, 62, 56
1, 78083, Note_off_c, 0, 64, 63
1, 78084, Note_off_c, 0, 57, 56
1, 78190, Note_on_c, 0, 57, 45
1, 78190, Note_on_c, 0, 77, 66
1, 78200, Note_on_c, 0, 62, 40
1, 78201, Note_on_c, 0, 67, 50
1, 78204, Note_on_c, 0, 64, 44
1, 78215, Note_off_c, 0, 79, 54
1, 78231, Note_off_c, 0, 67, 55
1, 78235, Note_off_c, 0, 62, 54
1, 78237, Note_off_c, 0, 77, 55
1, 78241, Note_off_c, 0, 64, 56
1, 78242, Note_off_c, 0, 57, 60
1, 78342, Note_on_c, 0, 67, 50
1, 78348, Note_on_c, 0, 73, 59
1, 78354, Note_on_c, 0, 64, 41
1, 78357, Note_on_c, 0, 57, 42
1, 78367, Note_on_c, 0, 62, 32
1, 78387, Note_off_c, 0, 67, 59
1, 78388, Note_off_c, 0, 73, 62
1, 78393, Note_off_c, 0, 57, 52
1, 78394, Note_off_c, 0, 64, 56
1, 78415, Note_off_c, 0, 62, 50
1, 78451, Note_off_c, 0, 70, 38
1, 78505, Note_on_c, 0, 73, 54
1, 78515, Note_on_c, 0, 58, 49
1, 78518, Note_on_c, 0, 67, 37
1, 78519, Note_on_c, 0, 62, 46
1, 78544, Note_off_c, 0, 73, 58
1, 78550, Note_off_c, 0, 58, 61
1, 78554, Note_off_c, 0, 67, 51
1, 78557, Note_off_c, 0, 62, 51
1, 78638, Note_on_c, 0, 74, 65
1, 78663, Note_on_c, 0, 58, 41
1, 78666, Note_on_c, 0, 67, 43
1, 78687, Note_on_c, 0, 62, 34
1, 78706, Note_off_c, 0, 67, 50
1, 78706, Note_off_c, 0, 74, 56
1, 78707, Note_off_c, 0, 58, 50
1, 78722, Note_off_c, 0, 62, 51
1, 78796, Note_on_c, 0, 73, 67
1, 78801, Note_on_c, 0, 67, 62
1, 78807, Note_on_c, 0, 58, 57
1, 78816, Note_on_c, 0, 62, 40
1, 78823, Note_off_c, 0, 73, 65
1, 78828, Note_off_c, 0, 67, 68
1, 78840, Note_off_c, 0, 58, 64
1, 78847, Note_off_c, 0, 62, 52
1, 78948, Note_on_c, 0, 62, 63
1, 78951, Note_on_c, 0, 74, 69
1, 78955, Note_on_c, 0, 69, 61
1, 78968, Note_on_c, 0, 57, 41
1, 78977, Note_off_c, 0, 74, 65
1, 78977, Note_on_c, 0, 53, 34
1, 78985, Note_off_c, 0, 62, 60
1, 78995, Note_off_c, 0, 57, 54
1, 79007, Note_off_c, 0, 53, 50
1, 79101, Note_on_c, 0, 57, 48
1, 79105, Note_on_c, 0, 62, 63
1, 79106, Note_on_c, 0, 76, 63
1, 79107, Note_on_c, 0, 53, 44
1, 79141, Note_off_c, 0, 76, 68
1, 79143, Note_off_c, 0, 62, 62
1, 79146, Note_off_c, 0, 53, 58
1, 79151, Note_off_c, 0, 57, 62
1, 79264, Note_on_c, 0, 53, 49
1, 79266, Note_on_c, 0, 62, 58
1, 79266, Note_on_c, 0, 57, 55
1, 79279, Note_on_c, 0, 77, 58
1, 79295, Note_off_c, 0, 53, 61
1, 79298, Note_off_c, 0, 62, 64
1, 79299, Note_off_c, 0, 57, 64
1, 79383, Note_off_c, 0, 69, 54
1, 79400, Note_on_c, 0, 55, 68
1, 79416, Control_c, 0, 64, 58
1, 79421, Note_on_c, 0, 58, 67
1, 79422, Note_on_c, 0, 64, 77
1, 79428, Note_on_c, 0, 62, 65
1, 79431, Control_c, 0, 64, 64
1, 79446, Control_c, 0, 64, 55
1, 79449, Note_off_c, 0, 64, 65
1, 79454, Note_off_c, 0, 62, 66
1, 79455, Note_off_c, 0, 55, 62
1, 79455, Note_off_c, 0, 58, 62
1, 79462, Control_c, 0, 64, 0
1, 79486, Note_off_c, 0, 77, 36
1, 79568, Note_on_c, 0, 64, 63
1, 79570, Note_on_c, 0, 62, 57
1, 79573, Note_on_c, 0, 58, 62
1, 79577, Note_on_c, 0, 73, 56
1, 79579, Note_on_c, 0, 70, 51
1, 79586, Note_on_c, 0, 76, 55
1, 79601, Note_off_c, 0, 64, 61
1, 79605, Note_on_c, 0, 55, 23
1, 79605, Note_off_c, 0, 62, 62
1, 79612, Note_off_c, 0, 73, 63
1, 79612, Note_off_c, 0, 58, 59
1, 79648, Note_on_c, 0, 74, 54
1, 79654, Note_off_c, 0, 55, 28
1, 79697, Note_off_c, 0, 74, 63
1, 79708, Note_on_c, 0, 73, 60
1, 79723, Note_on_c, 0, 64, 59
1, 79733, Note_on_c, 0, 58, 57
1, 79739, Note_off_c, 0, 73, 61
1, 79749, Note_on_c, 0, 55, 38
1, 79754, Note_on_c, 0, 74, 56
1, 79755, Note_off_c, 0, 64, 64
1, 79782, Note_off_c, 0, 55, 48
1, 79782, Note_off_c, 0, 58, 55
1, 79790, Note_off_c, 0, 74, 65
1, 79797, Note_off_c, 0, 76, 55
1, 79807, Note_on_c, 0, 73, 60
1, 79838, Note_off_c, 0, 73, 64
1, 79848, Note_on_c, 0, 74, 59
1, 79862, Note_on_c, 0, 53, 68
1, 79863, Note_on_c, 0, 57, 73
1, 79872, Note_on_c, 0, 62, 80
1, 79877, Control_c, 0, 64, 57
1, 79878, Note_on_c, 0, 73, 72
1, 79879, Note_off_c, 0, 74, 68
1, 79898, Control_c, 0, 64, 56
1, 79901, Note_off_c, 0, 62, 67
1, 79906, Note_off_c, 0, 70, 60
1, 79907, Note_off_c, 0, 73, 69
1, 79908, Note_off_c, 0, 53, 65
1, 79910, Note_off_c, 0, 57, 61
1, 79913, Control_c, 0, 64, 23
1, 79928, Control_c, 0, 64, 0
1, 80021, Note_on_c, 0, 57, 69
1, 80022, Note_on_c, 0, 74, 74
1, 80023, Note_on_c, 0, 62, 71
1, 80029, Note_on_c, 0, 53, 64
1, 80029, Note_on_c, 0, 69, 64
1, 80033, Note_on_c, 0, 77, 64
1, 80055, Note_off_c, 0, 62, 59
1, 80058, Note_off_c, 0, 74, 60
1, 80066, Note_off_c, 0, 53, 64
1, 80068, Note_off_c, 0, 57, 58
1, 80079, Note_on_c, 0, 76, 73
1, 80133, Note_off_c, 0, 76, 65
1, 80149, Note_on_c, 0, 74, 68
1, 80174, Note_off_c, 0, 74, 69
1, 80178, Note_on_c, 0, 62, 62
1, 80183, Note_on_c, 0, 53, 56
1, 80189, Note_on_c, 0, 57, 51
1, 80190, Note_on_c, 0, 76, 63
1, 80209, Note_off_c, 0, 62, 63
1, 80212, Note_off_c, 0, 57, 61
1, 80219, Note_off_c, 0, 53, 66
1, 80240, Note_off_c, 0, 76, 65
1, 80241, Note_on_c, 0, 74, 61
1, 80275, Note_off_c, 0, 74, 65
1, 80283, Note_on_c, 0, 76, 67
1, 80292, Note_off_c, 0, 77, 59
1, 80325, Note_on_c, 0, 52, 64
1, 80325, Note_on_c, 0, 57, 53
1, 80325, Note_on_c, 0, 74, 60
1, 80326, Note_on_c, 0, 61, 91
1, 80331, Note_on_c, 0, 55, 53
1, 80342, Note_off_c, 0, 76, 66
1, 80343, Control_c, 0, 64, 62
1, 80349, Note_off_c, 0, 69, 60
1, 80349, Note_off_c, 0, 74, 69
1, 80350, Note_off_c, 0, 61, 65
1, 80353, Note_off_c, 0, 52, 67
1, 80357, Control_c, 0, 64, 59
1, 80365, Note_off_c, 0, 55, 65
1, 80370, Note_off_c, 0, 57, 61
1, 80372, Control_c, 0, 64, 43
1, 80387, Control_c, 0, 64, 0
1, 80481, Note_on_c, 0, 61, 74
1, 80494, Note_on_c, 0, 52, 60
1, 80497, Note_on_c, 0, 57, 53
1, 80498, Note_on_c, 0, 55, 47
1, 80501, Note_on_c, 0, 76, 69
1, 80501, Note_on_c, 0, 69, 59
1, 80501, Note_on_c, 0, 79, 73
1, 80509, Note_on_c, 0, 67, 63
1, 80512, Note_on_c, 0, 73, 63
1, 80518, Note_off_c, 0, 61, 52
1, 80542, Note_off_c, 0, 55, 60
1, 80543, Note_off_c, 0, 52, 63
1, 80571, Note_off_c, 0, 57, 41
1, 80642, Note_on_c, 0, 61, 79
1, 80660, Note_on_c, 0, 55, 56
1, 80662, Note_on_c, 0, 57, 40
1, 80665, Note_on_c, 0, 52, 58
1, 80694, Note_off_c, 0, 52, 67
1, 80694, Note_off_c, 0, 61, 63
1, 80701, Note_off_c, 0, 57, 62
1, 80773, Note_on_c, 0, 50, 77
1, 80787, Note_on_c, 0, 58, 92
1, 80794, Control_c, 0, 64, 54
1, 80801, Note_on_c, 0, 64, 86
1, 80802, Note_on_c, 0, 62, 81
1, 80809, Control_c, 0, 64, 77
1, 80812, Note_off_c, 0, 50, 60
1, 80824, Note_off_c, 0, 64, 63
1, 80824, Control_c, 0, 64, 79
1, 80834, Note_off_c, 0, 55, 64
1, 80834, Note_off_c, 0, 62, 51
1, 80835, Note_off_c, 0, 69, 60
1, 80835, Note_off_c, 0, 79, 62
1, 80838, Control_c, 0, 64, 71
1, 80840, Note_off_c, 0, 67, 58
1, 80844, Note_off_c, 0, 58, 64
1, 80853, Control_c, 0, 64, 19
1, 80868, Control_c, 0, 64, 0
1, 80932, Note_off_c, 0, 76, 0
1, 80946, Note_on_c, 0, 62, 61
1, 80948, Note_on_c, 0, 55, 44
1, 80948, Note_on_c, 0, 76, 51
1, 80950, Note_on_c, 0, 64, 61
1, 80951, Note_off_c, 0, 73, 18
1, 80954, Note_on_c, 0, 50, 64
1, 80954, Note_on_c, 0, 70, 79
1, 80956, Note_on_c, 0, 79, 83
1, 80958, Note_on_c, 0, 58, 49
1, 80961, Note_on_c, 0, 67, 68
1, 80963, Note_on_c, 0, 69, 64
1, 80991, Note_off_c, 0, 64, 49
1, 80998, Note_off_c, 0, 55, 63
1, 81006, Note_off_c, 0, 58, 56
1, 81010, Note_off_c, 0, 62, 39
1, 81013, Note_off_c, 0, 50, 57
1, 81103, Note_on_c, 0, 62, 66
1, 81104, Note_on_c, 0, 64, 68
1, 81124, Note_on_c, 0, 55, 59
1, 81130, Note_off_c, 0, 64, 67
1, 81133, Note_on_c, 0, 58, 47
1, 81150, Note_off_c, 0, 62, 59
1, 81171, Note_off_c, 0, 58, 64
1, 81189, Note_off_c, 0, 55, 64
1, 81220, Note_on_c, 0, 49, 80
1, 81240, Control_c, 0, 64, 79
1, 81243, Note_on_c, 0, 57, 78
1, 81246, Note_off_c, 0, 49, 68
1, 81248, Note_on_c, 0, 55, 47
1, 81254, Control_c, 0, 64, 127
1, 81259, Note_off_c, 0, 69, 62
1, 81261, Note_off_c, 0, 70, 60
1, 81263, Note_off_c, 0, 67, 59
1, 81265, Note_on_c, 0, 64, 80
1, 81270, Note_off_c, 0, 79, 60
1, 81279, Note_on_c, 0, 62, 49
1, 81306, Note_off_c, 0, 57, 59
1, 81307, Note_off_c, 0, 76, 58
1, 81310, Note_off_c, 0, 64, 63
1, 81314, Control_c, 0, 64, 80
1, 81322, Note_off_c, 0, 62, 47
1, 81328, Control_c, 0, 64, 47
1, 81329, Note_off_c, 0, 55, 60
1, 81343, Control_c, 0, 64, 0
1, 81395, Note_on_c, 0, 55, 49
1, 81401, Note_on_c, 0, 79, 86
1, 81404, Note_on_c, 0, 73, 72
1, 81405, Note_on_c, 0, 74, 45
1, 81405, Note_on_c, 0, 76, 73
1, 81409, Note_on_c, 0, 69, 64
1, 81410, Note_on_c, 0, 62, 60
1, 81414, Note_on_c, 0, 57, 34
1, 81414, Note_on_c, 0, 67, 63
1, 81415, Note_on_c, 0, 49, 62
1, 81418, Note_on_c, 0, 64, 59
1, 81441, Note_off_c, 0, 64, 60
1, 81449, Note_off_c, 0, 62, 54
1, 81454, Note_off_c, 0, 49, 60
1, 81468, Note_off_c, 0, 55, 62
1, 81477, Note_off_c, 0, 57, 50
1, 81532, Note_on_c, 0, 62, 66
1, 81536, Note_on_c, 0, 57, 38
1, 81547, Note_on_c, 0, 49, 69
1, 81557, Note_off_c, 0, 62, 65
1, 81569, Note_off_c, 0, 57, 62
1, 81598, Note_off_c, 0, 49, 60
1, 81672, Note_on_c, 0, 50, 78
1, 81673, Note_on_c, 0, 46, 76
1, 81676, Control_c, 0, 64, 38
1, 81684, Note_on_c, 0, 55, 94
1, 81691, Control_c, 0, 64, 127
1, 81708, Note_on_c, 0, 45, 46
1, 81717, Note_off_c, 0, 69, 60
1, 81718, Note_off_c, 0, 67, 60
1, 81720, Note_off_c, 0, 73, 60
1, 81723, Note_off_c, 0, 46, 64
1, 81726, Note_off_c, 0, 79, 60
1, 81732, Note_off_c, 0, 50, 63
1, 81732, Note_off_c, 0, 55, 63
1, 81737, Note_off_c, 0, 45, 59
1, 81750, Control_c, 0, 64, 110
1, 81758, Note_off_c, 0, 76, 61
1, 81765, Control_c, 0, 64, 65
1, 81779, Control_c, 0, 64, 0
1, 81818, Note_off_c, 0, 74, 0
1, 81836, Note_on_c, 0, 46, 81
1, 81837, Note_on_c, 0, 74, 35
1, 81842, Note_on_c, 0, 50, 65
1, 81845, Note_on_c, 0, 53, 71
1, 81845, Note_on_c, 0, 70, 79
1, 81845, Note_on_c, 0, 79, 84
1, 81848, Note_on_c, 0, 69, 72
1, 81849, Note_on_c, 0, 76, 74
1, 81857, Note_on_c, 0, 67, 73
1, 81887, Note_off_c, 0, 53, 60
1, 81896, Note_off_c, 0, 50, 46
1, 81900, Note_off_c, 0, 46, 61
1, 81995, Note_on_c, 0, 55, 76
1, 81998, Note_on_c, 0, 50, 48
1, 82002, Note_on_c, 0, 46, 69
1, 82043, Note_off_c, 0, 46, 58
1, 82051, Note_off_c, 0, 55, 63
1, 82131, Note_off_c, 0, 50, 0
1, 82137, Note_on_c, 0, 45, 86
1, 82143, Control_c, 0, 64, 24
1, 82149, Note_on_c, 0, 50, 50
1, 82156, Note_on_c, 0, 52, 83
1, 82158, Control_c, 0, 64, 119
1, 82173, Control_c, 0, 64, 127
1, 82177, Note_on_c, 0, 57, 87
1, 82179, Note_off_c, 0, 45, 62
1, 82185, Note_on_c, 0, 55, 73
1, 82199, Note_off_c, 0, 69, 62
1, 82202, Note_off_c, 0, 67, 56
1, 82207, Note_off_c, 0, 79, 59
1, 82215, Note_off_c, 0, 50, 63
1, 82215, Note_off_c, 0, 70, 59
1, 82218, Control_c, 0, 64, 81
1, 82218, Note_off_c, 0, 55, 53
1, 82221, Note_off_c, 0, 57, 62
1, 82223, Note_off_c, 0, 52, 62
1, 82230, Note_off_c, 0, 74, 60
1, 82232, Note_off_c, 0, 76, 58
1, 82232, Control_c, 0, 64, 0
1, 82310, Note_on_c, 0, 55, 78
1, 82313, Note_on_c, 0, 50, 53
1, 82316, Note_on_c, 0, 74, 53
1, 82320, Note_on_c, 0, 45, 68
1, 82320, Note_on_c, 0, 57, 72
1, 82325, Note_on_c, 0, 79, 83
1, 82328, Note_on_c, 0, 69, 70
1, 82328, Note_on_c, 0, 76, 64
1, 82330, Note_on_c, 0, 67, 75
1, 82340, Note_on_c, 0, 73, 56
1, 82349, Note_on_c, 0, 52, 29
1, 82349, Note_off_c, 0, 57, 49
1, 82361, Note_off_c, 0, 55, 58
1, 82379, Note_off_c, 0, 45, 63
1, 82389, Note_off_c, 0, 73, 0
1, 82389, Note_on_c, 0, 73, 17
1, 82413, Note_off_c, 0, 50, 53
1, 82413, Note_off_c, 0, 52, 53
1, 82458, Note_on_c, 0, 55, 82
1, 82463, Note_on_c, 0, 50, 45
1, 82464, Note_on_c, 0, 52, 61
1, 82475, Note_on_c, 0, 57, 72
1, 82477, Note_on_c, 0, 45, 57
1, 82498, Note_off_c, 0, 52, 68
1, 82499, Note_off_c, 0, 50, 65
1, 82504, Note_off_c, 0, 57, 58
1, 82512, Note_off_c, 0, 55, 57
1, 82516, Note_off_c, 0, 45, 66
1, 82593, Note_on_c, 0, 43, 78
1, 82601, Note_on_c, 0, 46, 81
1, 82602, Control_c, 0, 64, 63
1, 82607, Note_on_c, 0, 50, 81
1, 82617, Control_c, 0, 64, 127
1, 82622, Note_on_c, 0, 55, 88
1, 82623, Note_on_c, 0, 57, 92
1, 82641, Note_off_c, 0, 43, 60
1, 82652, Note_off_c, 0, 69, 62
1, 82653, Note_off_c, 0, 67, 58
1, 82659, Note_off_c, 0, 79, 59
1, 82660, Note_off_c, 0, 46, 55
1, 82660, Note_off_c, 0, 57, 63
1, 82664, Note_off_c, 0, 50, 62
1, 82668, Note_on_c, 0, 47, 36
1, 82675, Note_off_c, 0, 55, 63
1, 82687, Note_off_c, 0, 73, 35
1, 82698, Note_off_c, 0, 76, 60
1, 82706, Note_off_c, 0, 47, 51
1, 82737, Control_c, 0, 64, 79
1, 82751, Control_c, 0, 64, 0
1, 82763, Note_on_c, 0, 55, 77
1, 82766, Note_on_c, 0, 57, 70
1, 82767, Note_on_c, 0, 50, 64
1, 82769, Note_on_c, 0, 76, 78
1, 82769, Note_on_c, 0, 43, 72
1, 82769, Note_on_c, 0, 70, 82
1, 82772, Note_on_c, 0, 46, 69
1, 82773, Note_on_c, 0, 79, 86
1, 82776, Note_on_c, 0, 69, 74
1, 82780, Note_on_c, 0, 67, 74
1, 82808, Note_off_c, 0, 57, 53
1, 82813, Note_off_c, 0, 55, 58
1, 82825, Note_off_c, 0, 43, 60
1, 82829, Note_off_c, 0, 46, 53
1, 82897, Note_off_c, 0, 50, 0
1, 82912, Note_on_c, 0, 50, 44
1, 82917, Note_on_c, 0, 55, 77
1, 82922, Note_on_c, 0, 46, 56
1, 82933, Note_on_c, 0, 57, 61
1, 82956, Note_off_c, 0, 46, 63
1, 82960, Note_off_c, 0, 50, 64
1, 82966, Note_off_c, 0, 70, 62
1, 82969, Note_off_c, 0, 57, 48
1, 82981, Note_off_c, 0, 55, 62
1, 82996, Note_off_c, 0, 67, 58
1, 82996, Note_off_c, 0, 69, 61
1, 83006, Note_off_c, 0, 79, 55
1, 83037, Note_on_c, 0, 45, 76
1, 83040, Note_off_c, 0, 76, 55
1, 83043, Note_on_c, 0, 50, 66
1, 83056, Control_c, 0, 64, 63
1, 83059, Note_on_c, 0, 52, 69
1, 83071, Control_c, 0, 64, 127
1, 83080, Note_on_c, 0, 55, 82
1, 83087, Note_on_c, 0, 57, 95
1, 83089, Note_on_c, 0, 76, 70
1, 83090, Note_on_c, 0, 73, 89
1, 83092, Note_on_c, 0, 67, 79
1, 83094, Note_on_c, 0, 79, 88
1, 83095, Note_on_c, 0, 69, 72
1, 83105, Note_off_c, 0, 74, 58
1, 83109, Note_off_c, 0, 73, 69
1, 83111, Note_off_c, 0, 67, 72
1, 83114, Note_off_c, 0, 69, 69
1, 83116, Note_off_c, 0, 76, 68
1, 83124, Note_off_c, 0, 79, 62
1, 83145, Control_c, 0, 64, 81
1, 83160, Control_c, 0, 64, 0
1, 83255, Note_on_c, 0, 82, 89
1, 83259, Note_on_c, 0, 79, 82
1, 83277, Note_off_c, 0, 79, 69
1, 83300, Note_off_c, 0, 82, 64
1, 83409, Note_on_c, 0, 77, 89
1, 83413, Note_on_c, 0, 81, 74
1, 83440, Note_off_c, 0, 45, 50
1, 83442, Note_off_c, 0, 81, 62
1, 83446, Note_off_c, 0, 77, 62
1, 83485, Note_off_c, 0, 57, 57
1, 83490, Note_off_c, 0, 55, 50
1, 83520, Note_off_c, 0, 50, 49
1, 83561, Note_on_c, 0, 76, 80
1, 83561, Note_on_c, 0, 79, 72
1, 83562, Note_off_c, 0, 52, 37
1, 83593, Note_off_c, 0, 76, 64
1, 83604, Note_off_c, 0, 79, 52
1, 83720, Note_on_c, 0, 77, 78
1, 83728, Note_on_c, 0, 74, 55
1, 83758, Note_off_c, 0, 74, 67
1, 83767, Note_off_c, 0, 77, 59
1, 83772, Note_on_c, 0, 45, 57
1, 83809, Note_on_c, 0, 50, 42
1, 83810, Note_on_c, 0, 52, 53
1, 83836, Note_off_c, 0, 45, 64
1, 83845, Note_on_c, 0, 55, 61
1, 83855, Note_on_c, 0, 57, 73
1, 83870, Note_off_c, 0, 52, 65
1, 83872, Note_off_c, 0, 50, 64
1, 83873, Note_on_c, 0, 76, 66
1, 83873, Note_off_c, 0, 55, 58
1, 83877, Note_on_c, 0, 69, 68
1, 83877, Note_on_c, 0, 73, 67
1, 83881, Note_off_c, 0, 57, 68
1, 83902, Note_off_c, 0, 69, 70
1, 83908, Note_off_c, 0, 73, 64
1, 83908, Note_off_c, 0, 76, 64
1, 83989, Note_on_c, 0, 57, 67
1, 83991, Note_on_c, 0, 50, 81
1, 83992, Note_on_c, 0, 62, 88
1, 84004, Note_on_c, 0, 69, 87
1, 84005, Note_on_c, 0, 77, 87
1, 84007, Note_on_c, 0, 74, 82
1, 84027, Control_c, 0, 64, 48
1, 84030, Note_off_c, 0, 74, 68
1, 84042, Control_c, 0, 64, 68
1, 84057, Control_c, 0, 64, 66
1, 84070, Note_off_c, 0, 77, 56
1, 84072, Control_c, 0, 64, 49
1, 84087, Control_c, 0, 64, 0
1, 84105, Note_off_c, 0, 50, 56
1, 84134, Note_off_c, 0, 57, 63
1, 84140, Note_off_c, 0, 62, 62
1, 84158, Note_on_c, 0, 73, 71
1, 84158, Note_on_c, 0, 76, 71
1, 84188, Note_off_c, 0, 73, 57
1, 84204, Note_off_c, 0, 76, 57
1, 84309, Note_on_c, 0, 58, 68
1, 84313, Note_on_c, 0, 62, 72
1, 84316, Note_on_c, 0, 74, 66
1, 84325, Note_on_c, 0, 77, 68
1, 84326, Note_off_c, 0, 69, 62
1, 84338, Note_off_c, 0, 74, 71
1, 84340, Note_off_c, 0, 58, 64
1, 84354, Note_off_c, 0, 62, 59
1, 84358, Note_off_c, 0, 77, 62
1, 84471, Note_on_c, 0, 64, 78
1, 84476, Note_on_c, 0, 55, 67
1, 84480, Note_on_c, 0, 62, 73
1, 84485, Note_on_c, 0, 58, 69
1, 84486, Note_on_c, 0, 79, 76
1, 84489, Note_on_c, 0, 70, 78
1, 84489, Note_on_c, 0, 76, 72
1, 84494, Note_on_c, 0, 74, 46
1, 84518, Note_off_c, 0, 76, 63
1, 84519, Note_off_c, 0, 74, 64
1, 84523, Note_off_c, 0, 70, 60
1, 84534, Note_off_c, 0, 79, 62
1, 84650, Note_on_c, 0, 69, 72
1, 84650, Note_on_c, 0, 77, 75
1, 84671, Note_off_c, 0, 69, 73
1, 84676, Note_off_c, 0, 64, 63
1, 84694, Note_off_c, 0, 77, 57
1, 84697, Note_off_c, 0, 62, 59
1, 84713, Note_off_c, 0, 58, 63
1, 84725, Note_off_c, 0, 55, 64
1, 84798, Note_on_c, 0, 67, 81
1, 84799, Note_on_c, 0, 76, 79
1, 84815, Note_off_c, 0, 67, 71
1, 84824, Note_off_c, 0, 76, 68
1, 84912, Note_on_c, 0, 45, 74
1, 84921, Note_on_c, 0, 50, 60
1, 84933, Note_on_c, 0, 52, 91
1, 84948, Note_on_c, 0, 57, 93
1, 84950, Note_on_c, 0, 55, 84
1, 85013, Control_c, 0, 64, 34
1, 85028, Control_c, 0, 64, 50
1, 85043, Control_c, 0, 64, 51
1, 85058, Control_c, 0, 64, 41
1, 85073, Control_c, 0, 64, 0
1, 85102, Note_on_c, 0, 82, 84
1, 85105, Note_on_c, 0, 73, 72
1, 85106, Note_on_c, 0, 79, 79
1, 85115, Note_on_c, 0, 76, 56
1, 85134, Note_off_c, 0, 73, 69
1, 85142, Note_off_c, 0, 79, 60
1, 85145, Note_off_c, 0, 76, 62
1, 85156, Note_off_c, 0, 82, 66
1, 85262, Note_on_c, 0, 81, 74
1, 85271, Note_on_c, 0, 77, 67
1, 85297, Note_off_c, 0, 77, 64
1, 85308, Note_off_c, 0, 81, 57
1, 85349, Note_off_c, 0, 45, 57
1, 85372, Note_off_c, 0, 57, 58
1, 85377, Note_off_c, 0, 55, 53
1, 85401, Note_off_c, 0, 52, 53
1, 85407, Note_off_c, 0, 50, 53
1, 85426, Note_on_c, 0, 79, 77
1, 85433, Note_on_c, 0, 76, 68
1, 85454, Note_off_c, 0, 79, 60
1, 85459, Note_off_c, 0, 76, 67
1, 85580, Note_on_c, 0, 77, 70
1, 85581, Note_on_c, 0, 74, 62
1, 85611, Note_off_c, 0, 74, 64
1, 85633, Note_on_c, 0, 45, 61
1, 85642, Note_off_c, 0, 77, 57
1, 85659, Note_on_c, 0, 50, 41
1, 85686, Note_on_c, 0, 52, 53
1, 85692, Note_off_c, 0, 45, 63
1, 85712, Note_on_c, 0, 57, 71
1, 85716, Note_on_c, 0, 55, 50
1, 85728, Note_off_c, 0, 52, 63
1, 85729, Note_on_c, 0, 69, 79
1, 85732, Note_on_c, 0, 76, 69
1, 85736, Note_on_c, 0, 73, 70
1, 85736, Note_off_c, 0, 50, 63
1, 85738, Note_off_c, 0, 57, 68
1, 85743, Note_off_c, 0, 55, 58
1, 85759, Note_off_c, 0, 69, 65
1, 85775, Note_off_c, 0, 76, 62
1, 85784, Note_off_c, 0, 73, 59
1, 85855, Note_on_c, 0, 62, 94
1, 85856, Note_on_c, 0, 50, 81
1, 85856, Note_on_c, 0, 57, 72
1, 85878, Note_on_c, 0, 77, 88
1, 85880, Note_on_c, 0, 69, 85
1, 85884, Note_on_c, 0, 74, 73
1, 85888, Control_c, 0, 64, 56
1, 85899, Note_off_c, 0, 50, 65
1, 85899, Note_off_c, 0, 57, 62
1, 85901, Note_off_c, 0, 62, 67
1, 85903, Control_c, 0, 64, 127
1, 85911, Note_off_c, 0, 74, 64
1, 85965, Note_off_c, 0, 77, 62
1, 85992, Control_c, 0, 64, 72
1, 86007, Control_c, 0, 64, 0
1, 86032, Note_on_c, 0, 76, 69
1, 86033, Note_on_c, 0, 73, 70
1, 86059, Note_off_c, 0, 73, 62
1, 86072, Note_off_c, 0, 76, 60
1, 86180, Note_on_c, 0, 46, 77
1, 86182, Note_on_c, 0, 77, 76
1, 86185, Note_on_c, 0, 50, 65
1, 86185, Note_on_c, 0, 57, 63
1, 86186, Note_on_c, 0, 55, 66
1, 86188, Note_on_c, 0, 74, 71
1, 86208, Note_off_c, 0, 69, 61
1, 86218, Note_off_c, 0, 74, 62
1, 86229, Note_off_c, 0, 55, 62
1, 86230, Note_off_c, 0, 57, 62
1, 86233, Note_off_c, 0, 46, 60
1, 86242, Note_off_c, 0, 77, 60
1, 86263, Note_off_c, 0, 50, 51
1, 86332, Note_on_c, 0, 50, 66
1, 86337, Note_on_c, 0, 43, 95
1, 86344, Note_on_c, 0, 57, 82
1, 86345, Note_on_c, 0, 55, 80
1, 86347, Note_on_c, 0, 67, 82
1, 86348, Note_on_c, 0, 76, 73
1, 86349, Note_on_c, 0, 70, 74
1, 86352, Note_on_c, 0, 79, 79
1, 86373, Note_on_c, 0, 74, 40
1, 86377, Control_c, 0, 64, 68
1, 86390, Note_off_c, 0, 79, 60
1, 86392, Control_c, 0, 64, 127
1, 86401, Note_off_c, 0, 67, 59
1, 86401, Note_off_c, 0, 74, 55
1, 86431, Note_off_c, 0, 76, 60
1, 86436, Note_off_c, 0, 70, 51
1, 86442, Note_off_c, 0, 43, 61
1, 86462, Note_off_c, 0, 57, 60
1, 86465, Note_off_c, 0, 50, 62
1, 86465, Note_off_c, 0, 55, 61
1, 86498, Note_on_c, 0, 77, 79
1, 86525, Control_c, 0, 64, 80
1, 86540, Control_c, 0, 64, 57
1, 86555, Note_off_c, 0, 77, 60
1, 86555, Control_c, 0, 64, 0
1, 86650, Note_on_c, 0, 55, 74
1, 86656, Note_on_c, 0, 45, 71
1, 86656, Note_on_c, 0, 69, 67
1, 86656, Note_on_c, 0, 76, 69
1, 86664, Note_on_c, 0, 52, 57
1, 86671, Note_off_c, 0, 55, 63
1, 86671, Note_on_c, 0, 57, 56
1, 86678, Note_on_c, 0, 73, 42
1, 86681, Note_off_c, 0, 69, 69
1, 86688, Note_off_c, 0, 52, 63
1, 86695, Note_off_c, 0, 57, 59
1, 86698, Note_off_c, 0, 76, 58
1, 86701, Note_off_c, 0, 45, 63
1, 86708, Note_off_c, 0, 73, 51
1, 86795, Note_on_c, 0, 38, 86
1, 86800, Control_c, 0, 64, 75
1, 86804, Note_on_c, 0, 74, 82
1, 86815, Control_c, 0, 64, 127
1, 86820, Note_off_c, 0, 74, 74
1, 86824, Note_off_c, 0, 38, 68
1, 86933, Control_c, 0, 64, 97
1, 86948, Control_c, 0, 64, 64
1, 86960, Note_on_c, 0, 62, 81
1, 86963, Control_c, 0, 64, 0
1, 86983, Note_off_c, 0, 62, 68
1, 87045, Note_on_c, 0, 62, 80
1, 87066, Note_off_c, 0, 62, 70
1, 87117, Note_on_c, 0, 62, 85
1, 87138, Note_off_c, 0, 62, 67
1, 87187, Note_on_c, 0, 62, 80
1, 87214, Note_off_c, 0, 62, 64
1, 87264, Note_on_c, 0, 55, 77
1, 87264, Note_on_c, 0, 59, 91
1, 87276, Note_on_c, 0, 62, 58
1, 87297, Note_off_c, 0, 55, 64
1, 87299, Note_off_c, 0, 62, 59
1, 87439, Note_on_c, 0, 43, 72
1, 87440, Note_on_c, 0, 62, 73
1, 87465, Note_off_c, 0, 62, 68
1, 87476, Note_off_c, 0, 43, 63
1, 87524, Note_on_c, 0, 62, 73
1, 87548, Note_off_c, 0, 62, 66
1, 87595, Note_on_c, 0, 55, 64
1, 87610, Note_on_c, 0, 62, 75
1, 87625, Note_off_c, 0, 55, 66
1, 87626, Note_off_c, 0, 59, 58
1, 87661, Note_off_c, 0, 62, 62
1, 87671, Note_on_c, 0, 66, 72
1, 87725, Note_off_c, 0, 66, 65
1, 87750, Note_on_c, 0, 54, 80
1, 87756, Note_on_c, 0, 57, 80
1, 87757, Note_on_c, 0, 62, 80
1, 87785, Note_off_c, 0, 62, 63
1, 87795, Note_off_c, 0, 54, 59
1, 87910, Note_on_c, 0, 42, 63
1, 87917, Note_on_c, 0, 62, 70
1, 87942, Note_off_c, 0, 62, 66
1, 87948, Note_off_c, 0, 42, 63
1, 88000, Note_on_c, 0, 62, 72
1, 88024, Note_off_c, 0, 62, 67
1, 88066, Note_on_c, 0, 54, 67
1, 88069, Note_on_c, 0, 62, 70
1, 88089, Note_off_c, 0, 57, 57
1, 88092, Note_off_c, 0, 54, 65
1, 88144, Note_off_c, 0, 62, 62
1, 88158, Note_on_c, 0, 66, 68
1, 88209, Note_off_c, 0, 66, 65
1, 88236, Note_on_c, 0, 52, 85
1, 88236, Note_on_c, 0, 55, 78
1, 88240, Note_on_c, 0, 62, 77
1, 88272, Note_off_c, 0, 62, 61
1, 88274, Note_off_c, 0, 52, 66
1, 88397, Note_on_c, 0, 62, 69
1, 88403, Note_on_c, 0, 40, 55
1, 88421, Note_off_c, 0, 62, 66
1, 88434, Note_off_c, 0, 40, 55
1, 88472, Note_on_c, 0, 62, 81
1, 88501, Note_off_c, 0, 62, 61
1, 88544, Note_on_c, 0, 62, 68
1, 88545, Note_off_c, 0, 55, 35
1, 88553, Note_on_c, 0, 52, 73
1, 88579, Note_off_c, 0, 52, 69
1, 88611, Note_off_c, 0, 62, 62
1, 88624, Note_on_c, 0, 66, 70
1, 88692, Note_off_c, 0, 66, 59
1, 88706, Note_on_c, 0, 54, 67
1, 88706, Note_on_c, 0, 62, 67
1, 88707, Note_on_c, 0, 50, 73
1, 88736, Note_off_c, 0, 50, 64
1, 88746, Note_off_c, 0, 62, 58
1, 88871, Note_on_c, 0, 62, 65
1, 88889, Note_on_c, 0, 38, 54
1, 88898, Note_off_c, 0, 62, 65
1, 88905, Note_off_c, 0, 54, 56
1, 88927, Note_off_c, 0, 38, 63
1, 88953, Note_on_c, 0, 62, 80
1, 88977, Note_off_c, 0, 62, 64
1, 89027, Note_on_c, 0, 62, 77
1, 89029, Note_on_c, 0, 50, 70
1, 89059, Note_off_c, 0, 50, 65
1, 89098, Note_off_c, 0, 62, 61
1, 89109, Note_on_c, 0, 66, 72
1, 89155, Note_off_c, 0, 66, 64
1, 89175, Note_on_c, 0, 55, 81
1, 89178, Note_on_c, 0, 62, 86
1, 89182, Note_on_c, 0, 59, 74
1, 89213, Note_off_c, 0, 55, 65
1, 89217, Note_off_c, 0, 62, 59
1, 89331, Note_on_c, 0, 43, 73
1, 89334, Note_on_c, 0, 62, 77
1, 89357, Note_off_c, 0, 62, 68
1, 89366, Note_off_c, 0, 43, 65
1, 89418, Note_on_c, 0, 62, 77
1, 89446, Note_off_c, 0, 62, 60
1, 89483, Note_on_c, 0, 55, 72
1, 89491, Note_on_c, 0, 62, 69
1, 89493, Note_off_c, 0, 59, 62
1, 89510, Note_off_c, 0, 55, 66
1, 89552, Note_off_c, 0, 62, 62
1, 89562, Note_on_c, 0, 66, 74
1, 89622, Note_off_c, 0, 66, 64
1, 89647, Note_on_c, 0, 57, 70
1, 89649, Note_on_c, 0, 54, 67
1, 89652, Note_on_c, 0, 62, 62
1, 89682, Note_off_c, 0, 54, 64
1, 89685, Note_off_c, 0, 62, 58
1, 89808, Note_on_c, 0, 42, 61
1, 89813, Note_on_c, 0, 62, 60
1, 89835, Note_off_c, 0, 62, 63
1, 89847, Note_off_c, 0, 42, 63
1, 89899, Note_on_c, 0, 62, 54
1, 89955, Note_off_c, 0, 62, 0
1, 89965, Note_on_c, 0, 62, 61
1, 89970, Note_on_c, 0, 54, 60
1, 89977, Note_off_c, 0, 57, 56
1, 90004, Note_off_c, 0, 54, 62
1, 90032, Note_off_c, 0, 62, 60
1, 90045, Note_on_c, 0, 66, 68
1, 90085, Note_off_c, 0, 66, 58
1, 90111, Note_on_c, 0, 52, 75
1, 90114, Note_on_c, 0, 55, 72
1, 90117, Note_on_c, 0, 62, 66
1, 90144, Note_off_c, 0, 52, 63
1, 90155, Note_off_c, 0, 62, 59
1, 90264, Note_on_c, 0, 62, 68
1, 90269, Note_on_c, 0, 40, 60
1, 90289, Note_off_c, 0, 62, 67
1, 90311, Note_off_c, 0, 40, 63
1, 90351, Note_on_c, 0, 62, 65
1, 90391, Note_off_c, 0, 62, 55
1, 90405, Note_on_c, 0, 52, 68
1, 90434, Note_on_c, 0, 62, 61
1, 90435, Note_off_c, 0, 52, 67
1, 90446, Note_off_c, 0, 55, 50
1, 90487, Note_on_c, 0, 66, 80
1, 90487, Note_off_c, 0, 62, 63
1, 90514, Note_off_c, 0, 66, 67
1, 90573, Note_on_c, 0, 38, 65
1, 90578, Note_on_c, 0, 54, 70
1, 90642, Note_off_c, 0, 54, 62
1, 90647, Note_on_c, 0, 50, 65
1, 90725, Note_off_c, 0, 50, 58
1, 90728, Note_on_c, 0, 57, 67
1, 90799, Note_on_c, 0, 54, 68
1, 90817, Note_off_c, 0, 57, 58
1, 90882, Note_on_c, 0, 62, 71
1, 90882, Note_off_c, 0, 54, 62
1, 90925, Note_off_c, 0, 62, 60
1, 90932, Note_off_c, 0, 38, 53
1, 90940, Note_on_c, 0, 57, 72
1, 90994, Note_off_c, 0, 57, 61
1, 91029, Note_on_c, 0, 66, 78
1, 91033, Note_on_c, 0, 50, 93
1, 91040, Note_on_c, 0, 38, 82
1, 91079, Note_off_c, 0, 66, 65
1, 91104, Note_on_c, 0, 62, 78
1, 91145, Control_c, 0, 64, 10
1, 91160, Control_c, 0, 64, 43
1, 91174, Control_c, 0, 64, 51
1, 91187, Note_on_c, 0, 69, 76
1, 91189, Control_c, 0, 64, 56
1, 91199, Note_off_c, 0, 62, 55
1, 91204, Control_c, 0, 64, 60
1, 91219, Control_c, 0, 64, 61
1, 91256, Note_on_c, 0, 66, 79
1, 91256, Note_off_c, 0, 69, 66
1, 91322, Control_c, 0, 64, 61
1, 91335, Note_on_c, 0, 74, 72
1, 91337, Control_c, 0, 64, 59
1, 91340, Note_off_c, 0, 66, 65
1, 91352, Control_c, 0, 64, 57
1, 91366, Control_c, 0, 64, 53
1, 91377, Note_off_c, 0, 74, 69
1, 91381, Control_c, 0, 64, 47
1, 91387, Note_on_c, 0, 69, 79
1, 91392, Note_off_c, 0, 38, 59
1, 91396, Control_c, 0, 64, 29
1, 91397, Note_off_c, 0, 50, 60
1, 91411, Control_c, 0, 64, 0
1, 91423, Note_off_c, 0, 69, 61
1, 91481, Note_on_c, 0, 50, 94
1, 91482, Note_on_c, 0, 38, 85
1, 91486, Note_on_c, 0, 86, 93
1, 91501, Control_c, 0, 64, 62
1, 91514, Note_off_c, 0, 38, 68
1, 91515, Control_c, 0, 64, 72
1, 91527, Note_off_c, 0, 50, 63
1, 91530, Control_c, 0, 64, 94
1, 91545, Control_c, 0, 64, 127
1, 91567, Note_on_c, 0, 81, 79
1, 91593, Note_off_c, 0, 86, 59
1, 91637, Note_on_c, 0, 78, 80
1, 91659, Note_off_c, 0, 81, 59
1, 91700, Note_off_c, 0, 78, 63
1, 91711, Note_on_c, 0, 74, 71
1, 91732, Note_off_c, 0, 74, 72
1, 91816, Note_on_c, 0, 54, 88
1, 91817, Note_on_c, 0, 69, 64
1, 91821, Note_on_c, 0, 42, 80
1, 91840, Note_off_c, 0, 54, 66
1, 91841, Control_c, 0, 64, 79
1, 91855, Note_off_c, 0, 42, 65
1, 91856, Control_c, 0, 64, 36
1, 91879, Control_c, 0, 64, 0
1, 91881, Note_off_c, 0, 69, 63
1, 91882, Note_on_c, 0, 66, 74
1, 91968, Note_off_c, 0, 66, 62
1, 91971, Note_on_c, 0, 55, 99
1, 91973, Note_on_c, 0, 71, 80
1, 91977, Note_on_c, 0, 43, 92
1, 91997, Note_off_c, 0, 43, 66
1, 92000, Note_off_c, 0, 55, 65
1, 92045, Note_on_c, 0, 67, 71
1, 92059, Note_off_c, 0, 71, 58
1, 92123, Note_on_c, 0, 66, 73
1, 92131, Note_on_c, 0, 57, 75
1, 92144, Note_off_c, 0, 67, 54
1, 92171, Note_off_c, 0, 57, 60
1, 92177, Note_off_c, 0, 66, 65
1, 92190, Note_on_c, 0, 64, 69
1, 92259, Note_off_c, 0, 64, 63
1, 92262, Note_on_c, 0, 45, 65
1, 92269, Note_on_c, 0, 62, 68
1, 92297, Note_off_c, 0, 45, 66
1, 92314, Note_on_c, 0, 61, 77
1, 92315, Note_off_c, 0, 62, 63
1, 92335, Note_off_c, 0, 61, 69
1, 92423, Note_on_c, 0, 38, 86
1, 92424, Note_on_c, 0, 50, 88
1, 92436, Note_on_c, 0, 86, 85
1, 92455, Note_off_c, 0, 38, 67
1, 92457, Control_c, 0, 64, 127
1, 92465, Note_off_c, 0, 50, 65
1, 92507, Note_on_c, 0, 81, 79
1, 92529, Note_off_c, 0, 86, 58
1, 92585, Note_on_c, 0, 78, 75
1, 92619, Note_off_c, 0, 81, 59
1, 92653, Note_off_c, 0, 78, 65
1, 92663, Note_on_c, 0, 74, 64
1, 92686, Note_off_c, 0, 74, 71
1, 92755, Note_on_c, 0, 69, 72
1, 92781, Note_on_c, 0, 54, 90
1, 92782, Note_on_c, 0, 42, 82
1, 92805, Note_off_c, 0, 54, 65
1, 92821, Note_off_c, 0, 42, 62
1, 92834, Note_on_c, 0, 66, 75
1, 92842, Note_off_c, 0, 69, 60
1, 92923, Note_off_c, 0, 66, 64
1, 92923, Control_c, 0, 64, 69
1, 92928, Note_on_c, 0, 71, 74
1, 92931, Note_on_c, 0, 55, 99
1, 92935, Note_on_c, 0, 43, 89
1, 92937, Control_c, 0, 64, 0
1, 92951, Note_off_c, 0, 55, 69
1, 92961, Note_off_c, 0, 43, 67
1, 93001, Note_on_c, 0, 67, 68
1, 93013, Note_off_c, 0, 71, 59
1, 93086, Note_on_c, 0, 57, 86
1, 93091, Note_on_c, 0, 66, 75
1, 93101, Note_off_c, 0, 67, 53
1, 93128, Note_off_c, 0, 57, 58
1, 93138, Note_off_c, 0, 66, 67
1, 93157, Note_on_c, 0, 64, 72
1, 93225, Note_on_c, 0, 45, 69
1, 93238, Note_off_c, 0, 64, 61
1, 93241, Note_on_c, 0, 62, 70
1, 93289, Note_off_c, 0, 45, 61
1, 93300, Note_off_c, 0, 62, 59
1, 93307, Note_on_c, 0, 61, 72
1, 93375, Note_on_c, 0, 50, 92
1, 93393, Note_off_c, 0, 50, 73
1, 93399, Note_off_c, 0, 61, 63
1, 93400, Note_on_c, 0, 62, 78
1, 93447, Note_off_c, 0, 62, 60
1, 93472, Note_on_c, 0, 57, 68
1, 93557, Note_off_c, 0, 57, 50
1, 93562, Note_on_c, 0, 66, 71
1, 93568, Note_on_c, 0, 86, 103
1, 93584, Note_off_c, 0, 86, 68
1, 93666, Note_on_c, 0, 57, 51
1, 93735, Note_off_c, 0, 57, 57
1, 93736, Note_off_c, 0, 66, 36
1, 93737, Note_on_c, 0, 52, 97
1, 93748, Note_on_c, 0, 62, 66
1, 93766, Note_off_c, 0, 52, 69
1, 93834, Note_on_c, 0, 57, 51
1, 93918, Note_on_c, 0, 45, 89
1, 93926, Note_off_c, 0, 57, 58
1, 93928, Note_off_c, 0, 62, 28
1, 93930, Note_on_c, 0, 64, 67
1, 93992, Note_off_c, 0, 64, 63
1, 94006, Note_on_c, 0, 57, 57
1, 94078, Note_off_c, 0, 57, 59
1, 94081, Note_on_c, 0, 66, 71
1, 94150, Note_off_c, 0, 66, 63
1, 94162, Note_on_c, 0, 57, 57
1, 94222, Note_off_c, 0, 57, 58
1, 94248, Note_on_c, 0, 67, 67
1, 94300, Note_on_c, 0, 57, 62
1, 94302, Note_off_c, 0, 67, 56
1, 94374, Note_off_c, 0, 57, 61
1, 94385, Note_on_c, 0, 50, 98
1, 94392, Note_off_c, 0, 45, 62
1, 94398, Note_on_c, 0, 66, 76
1, 94407, Note_off_c, 0, 50, 68
1, 94463, Note_on_c, 0, 57, 66
1, 94468, Note_off_c, 0, 66, 64
1, 94540, Note_off_c, 0, 57, 55
1, 94552, Note_on_c, 0, 69, 73
1, 94566, Note_on_c, 0, 86, 97
1, 94579, Note_off_c, 0, 86, 75
1, 94621, Note_on_c, 0, 57, 53
1, 94668, Note_off_c, 0, 69, 57
1, 94690, Note_off_c, 0, 57, 60
1, 94706, Note_on_c, 0, 62, 67
1, 94727, Note_on_c, 0, 50, 78
1, 94752, Note_off_c, 0, 50, 68
1, 94781, Note_on_c, 0, 57, 55
1, 94883, Note_off_c, 0, 57, 54
1, 94891, Note_on_c, 0, 45, 87
1, 94909, Note_on_c, 0, 64, 66
1, 94920, Note_off_c, 0, 62, 28
1, 94965, Note_off_c, 0, 64, 59
1, 94980, Note_on_c, 0, 57, 68
1, 95051, Note_off_c, 0, 57, 54
1, 95061, Note_on_c, 0, 66, 66
1, 95133, Note_off_c, 0, 66, 62
1, 95140, Note_on_c, 0, 57, 53
1, 95171, Note_off_c, 0, 45, 63
1, 95203, Note_off_c, 0, 57, 54
1, 95217, Note_on_c, 0, 67, 67
1, 95274, Note_on_c, 0, 57, 57
1, 95291, Note_off_c, 0, 67, 57
1, 95326, Note_off_c, 0, 57, 57
1, 95359, Note_on_c, 0, 38, 63
1, 95360, Note_on_c, 0, 66, 68
1, 95406, Control_c, 0, 64, 22
1, 95419, Note_off_c, 0, 66, 66
1, 95421, Control_c, 0, 64, 50
1, 95434, Note_on_c, 0, 62, 76
1, 95437, Control_c, 0, 64, 55
1, 95452, Control_c, 0, 64, 57
1, 95467, Control_c, 0, 64, 58
1, 95481, Control_c, 0, 64, 60
1, 95492, Note_off_c, 0, 62, 47
1, 95496, Control_c, 0, 64, 60
1, 95507, Note_on_c, 0, 69, 68
1, 95555, Control_c, 0, 64, 61
1, 95564, Note_off_c, 0, 69, 65
1, 95568, Note_on_c, 0, 66, 68
1, 95585, Control_c, 0, 64, 59
1, 95600, Control_c, 0, 64, 56
1, 95623, Control_c, 0, 64, 51
1, 95628, Note_off_c, 0, 38, 60
1, 95637, Control_c, 0, 64, 50
1, 95643, Note_off_c, 0, 66, 64
1, 95649, Note_on_c, 0, 74, 71
1, 95652, Control_c, 0, 64, 47
1, 95667, Control_c, 0, 64, 35
1, 95682, Control_c, 0, 64, 8
1, 95695, Control_c, 0, 64, 0
1, 95700, Note_off_c, 0, 74, 63
1, 95714, Note_on_c, 0, 69, 65
1, 95745, Note_off_c, 0, 69, 66
1, 95755, Control_c, 0, 64, 43
1, 95766, Note_on_c, 0, 38, 72
1, 95769, Control_c, 0, 64, 62
1, 95784, Control_c, 0, 64, 68
1, 95794, Note_on_c, 0, 77, 72
1, 95799, Control_c, 0, 64, 79
1, 95805, Note_off_c, 0, 38, 65
1, 95814, Control_c, 0, 64, 102
1, 95818, Note_off_c, 0, 77, 68
1, 95829, Control_c, 0, 64, 127
1, 95856, Note_on_c, 0, 74, 82
1, 95923, Note_on_c, 0, 81, 86
1, 95933, Note_off_c, 0, 74, 61
1, 95983, Note_on_c, 0, 78, 88
1, 96007, Note_off_c, 0, 81, 57
1, 96045, Note_on_c, 0, 86, 91
1, 96061, Note_off_c, 0, 78, 67
1, 96114, Note_on_c, 0, 81, 87
1, 96118, Note_off_c, 0, 86, 62
1, 96154, Control_c, 0, 64, 74
1, 96169, Control_c, 0, 64, 0
1, 96170, Note_on_c, 0, 55, 76
1, 96187, Note_on_c, 0, 83, 83
1, 96193, Note_off_c, 0, 81, 63
1, 96194, Note_off_c, 0, 55, 69
1, 96253, Note_on_c, 0, 79, 76
1, 96254, Note_off_c, 0, 83, 61
1, 96326, Note_on_c, 0, 78, 76
1, 96326, Note_off_c, 0, 79, 61
1, 96336, Note_on_c, 0, 57, 61
1, 96377, Note_off_c, 0, 57, 60
1, 96405, Note_on_c, 0, 76, 74
1, 96409, Note_off_c, 0, 78, 62
1, 96457, Note_off_c, 0, 76, 63
1, 96474, Note_on_c, 0, 45, 51
1, 96478, Note_on_c, 0, 74, 70
1, 96502, Note_off_c, 0, 45, 56
1, 96538, Note_off_c, 0, 74, 39
1, 96550, Note_on_c, 0, 73, 72
1, 96619, Note_off_c, 0, 73, 62
1, 96621, Note_on_c, 0, 74, 84
1, 96627, Note_on_c, 0, 62, 58
1, 96638, Note_off_c, 0, 74, 72
1, 96678, Note_off_c, 0, 62, 0
1, 96710, Note_on_c, 0, 69, 66
1, 96715, Poly_aftertouch_c, 0, 62, 127
1, 96754, Poly_aftertouch_c, 0, 62, 0
1, 96779, Note_on_c, 0, 86, 95
1, 96788, Note_off_c, 0, 69, 63
1, 96793, Note_off_c, 0, 86, 76
1, 96795, Note_on_c, 0, 67, 60
1, 96824, Note_off_c, 0, 67, 63
1, 96876, Note_on_c, 0, 69, 62
1, 96896, Note_off_c, 0, 69, 65
1, 96949, Note_on_c, 0, 62, 61
1, 96949, Note_on_c, 0, 48, 85
1, 96973, Note_off_c, 0, 48, 69
1, 97005, Note_off_c, 0, 62, 58
1, 97009, Note_on_c, 0, 69, 52
1, 97071, Note_off_c, 0, 69, 65
1, 97118, Note_on_c, 0, 45, 84
1, 97122, Note_on_c, 0, 57, 61
1, 97145, Note_off_c, 0, 45, 67
1, 97164, Note_on_c, 0, 47, 71
1, 97178, Note_on_c, 0, 69, 52
1, 97183, Note_off_c, 0, 57, 0
1, 97183, Note_on_c, 0, 57, 14
1, 97203, Note_off_c, 0, 47, 65
1, 97214, Note_on_c, 0, 45, 67
1, 97243, Note_off_c, 0, 69, 65
1, 97250, Note_on_c, 0, 47, 66
1, 97250, Note_off_c, 0, 45, 67
1, 97267, Note_on_c, 0, 64, 54
1, 97306, Note_off_c, 0, 47, 64
1, 97308, Note_on_c, 0, 45, 69
1, 97334, Note_off_c, 0, 57, 33
1, 97337, Note_off_c, 0, 64, 51
1, 97345, Note_on_c, 0, 47, 62
1, 97346, Note_on_c, 0, 69, 57
1, 97352, Note_off_c, 0, 45, 64
1, 97387, Note_off_c, 0, 69, 62
1, 97412, Note_on_c, 0, 61, 65
1, 97417, Note_on_c, 0, 45, 69
1, 97418, Note_off_c, 0, 47, 65
1, 97447, Note_off_c, 0, 61, 59
1, 97490, Note_on_c, 0, 69, 60
1, 97539, Note_off_c, 0, 69, 60
1, 97570, Note_on_c, 0, 62, 58
1, 97574, Note_off_c, 0, 45, 63
1, 97576, Note_on_c, 0, 50, 80
1, 97579, Control_c, 0, 64, 27
1, 97594, Control_c, 0, 64, 64
1, 97595, Note_off_c, 0, 50, 69
1, 97608, Control_c, 0, 64, 60
1, 97623, Control_c, 0, 64, 0
1, 97635, Note_on_c, 0, 69, 72
1, 97638, Note_off_c, 0, 62, 60
1, 97706, Note_off_c, 0, 69, 55
1, 97724, Note_on_c, 0, 66, 67
1, 97744, Note_on_c, 0, 84, 86
1, 97761, Note_off_c, 0, 84, 73
1, 97766, Note_off_c, 0, 66, 56
1, 97790, Note_on_c, 0, 69, 75
1, 97869, Note_off_c, 0, 69, 52
1, 97897, Note_on_c, 0, 62, 53
1, 97906, Note_on_c, 0, 52, 90
1, 97926, Note_off_c, 0, 52, 75
1, 97927, Note_off_c, 0, 62, 61
1, 97932, Note_on_c, 0, 69, 63
1, 98043, Note_off_c, 0, 69, 63
1, 98057, Note_on_c, 0, 57, 68
1, 98077, Note_on_c, 0, 45, 76
1, 98105, Note_off_c, 0, 45, 67
1, 98106, Control_c, 0, 64, 53
1, 98121, Control_c, 0, 64, 67
1, 98122, Note_on_c, 0, 47, 67
1, 98136, Control_c, 0, 64, 70
1, 98136, Note_on_c, 0, 69, 44
1, 98151, Control_c, 0, 64, 73
1, 98159, Note_off_c, 0, 47, 66
1, 98165, Control_c, 0, 64, 74
1, 98166, Note_on_c, 0, 45, 72
1, 98180, Control_c, 0, 64, 74
1, 98195, Control_c, 0, 64, 76
1, 98197, Note_off_c, 0, 69, 63
1, 98209, Control_c, 0, 64, 77
1, 98211, Note_on_c, 0, 64, 61
1, 98215, Note_on_c, 0, 47, 72
1, 98219, Note_off_c, 0, 45, 64
1, 98224, Control_c, 0, 64, 77
1, 98239, Control_c, 0, 64, 78
1, 98267, Note_on_c, 0, 45, 76
1, 98276, Note_off_c, 0, 47, 65
1, 98288, Note_off_c, 0, 64, 58
1, 98293, Note_on_c, 0, 69, 67
1, 98293, Note_off_c, 0, 45, 47
1, 98313, Control_c, 0, 64, 77
1, 98328, Control_c, 0, 64, 73
1, 98343, Control_c, 0, 64, 66
1, 98346, Note_off_c, 0, 69, 61
1, 98352, Note_off_c, 0, 57, 32
1, 98357, Control_c, 0, 64, 40
1, 98362, Note_on_c, 0, 61, 69
1, 98372, Control_c, 0, 64, 0
1, 98407, Note_off_c, 0, 61, 54
1, 98446, Note_on_c, 0, 69, 60
1, 98542, Note_on_c, 0, 86, 76
1, 98551, Note_on_c, 0, 62, 58
1, 98555, Note_off_c, 0, 69, 39
1, 98565, Control_c, 0, 64, 31
1, 98579, Note_off_c, 0, 62, 64
1, 98580, Control_c, 0, 64, 60
1, 98595, Control_c, 0, 64, 64
1, 98616, Note_off_c, 0, 86, 54
1, 98616, Control_c, 0, 64, 71
1, 98621, Note_on_c, 0, 81, 66
1, 98633, Control_c, 0, 64, 84
1, 98648, Control_c, 0, 64, 98
1, 98662, Control_c, 0, 64, 105
1, 98677, Control_c, 0, 64, 110
1, 98692, Control_c, 0, 64, 114
1, 98694, Note_on_c, 0, 78, 67
1, 98706, Control_c, 0, 64, 121
1, 98721, Note_off_c, 0, 81, 58
1, 98721, Control_c, 0, 64, 127
1, 98746, Note_off_c, 0, 78, 63
1, 98755, Note_on_c, 0, 74, 64
1, 98779, Note_off_c, 0, 74, 70
1, 98824, Control_c, 0, 64, 98
1, 98836, Note_on_c, 0, 54, 64
1, 98839, Control_c, 0, 64, 69
1, 98843, Note_on_c, 0, 69, 73
1, 98854, Control_c, 0, 64, 0
1, 98867, Note_off_c, 0, 54, 64
1, 98899, Note_off_c, 0, 69, 64
1, 98914, Note_on_c, 0, 66, 74
1, 98980, Note_on_c, 0, 55, 83
1, 98984, Note_off_c, 0, 66, 62
1, 98987, Note_on_c, 0, 71, 72
1, 99000, Note_off_c, 0, 55, 73
1, 99060, Note_on_c, 0, 67, 71
1, 99081, Note_off_c, 0, 71, 56
1, 99130, Note_on_c, 0, 66, 70
1, 99133, Note_on_c, 0, 57, 78
1, 99149, Note_off_c, 0, 67, 57
1, 99176, Note_off_c, 0, 57, 59
1, 99182, Note_off_c, 0, 66, 67
1, 99200, Note_on_c, 0, 64, 67
1, 99270, Note_on_c, 0, 62, 75
1, 99271, Note_off_c, 0, 64, 60
1, 99272, Note_on_c, 0, 45, 63
1, 99300, Note_off_c, 0, 45, 66
1, 99316, Note_on_c, 0, 61, 81
1, 99316, Note_off_c, 0, 62, 64
1, 99337, Note_off_c, 0, 61, 70
1, 99438, Note_on_c, 0, 50, 76
1, 99440, Note_on_c, 0, 38, 82
1, 99444, Note_on_c, 0, 86, 88
1, 99455, Control_c, 0, 64, 127
1, 99465, Note_off_c, 0, 38, 66
1, 99481, Note_off_c, 0, 50, 61
1, 99520, Note_on_c, 0, 81, 82
1, 99547, Note_off_c, 0, 86, 57
1, 99595, Note_on_c, 0, 78, 73
1, 99624, Note_off_c, 0, 81, 58
1, 99652, Note_off_c, 0, 78, 65
1, 99660, Note_on_c, 0, 74, 63
1, 99686, Note_off_c, 0, 74, 69
1, 99744, Note_on_c, 0, 54, 96
1, 99746, Note_on_c, 0, 69, 83
1, 99754, Note_on_c, 0, 42, 76
1, 99773, Note_off_c, 0, 54, 61
1, 99787, Note_off_c, 0, 42, 67
1, 99835, Note_off_c, 0, 69, 58
1, 99839, Note_on_c, 0, 67, 60
1, 99872, Note_off_c, 0, 67, 62
1, 99897, Note_on_c, 0, 55, 100
1, 99900, Control_c, 0, 64, 65
1, 99908, Note_on_c, 0, 43, 83
1, 99908, Note_on_c, 0, 71, 78
1, 99915, Control_c, 0, 64, 0
1, 99915, Note_off_c, 0, 55, 74
1, 99934, Note_off_c, 0, 43, 63
1, 99940, Note_on_c, 0, 41, 20
1, 99941, Note_off_c, 0, 41, 127
1, 99980, Note_on_c, 0, 67, 68
1, 100004, Note_off_c, 0, 71, 57
1, 100049, Note_on_c, 0, 66, 74
1, 100059, Note_on_c, 0, 57, 79
1, 100082, Note_off_c, 0, 67, 59
1, 100102, Note_off_c, 0, 57, 60
1, 100112, Note_off_c, 0, 66, 67
1, 100123, Note_on_c, 0, 64, 74
1, 100197, Note_off_c, 0, 64, 63
1, 100198, Note_on_c, 0, 62, 74
1, 100199, Note_on_c, 0, 45, 69
1, 100234, Note_off_c, 0, 45, 68
1, 100251, Note_off_c, 0, 62, 62
1, 100255, Note_on_c, 0, 61, 80
1, 100275, Note_off_c, 0, 61, 70
1, 100338, Note_on_c, 0, 50, 93
1, 100345, Note_on_c, 0, 74, 90
1, 100377, Note_off_c, 0, 50, 65
1, 100382, Control_c, 0, 64, 67
1, 100397, Control_c, 0, 64, 73
1, 100412, Control_c, 0, 64, 74
1, 100424, Note_on_c, 0, 69, 78
1, 100445, Note_off_c, 0, 74, 62
1, 100456, Control_c, 0, 64, 73
1, 100471, Control_c, 0, 64, 71
1, 100496, Note_on_c, 0, 66, 78
1, 100497, Note_on_c, 0, 38, 74
1, 100500, Control_c, 0, 64, 71
1, 100515, Control_c, 0, 64, 72
1, 100529, Note_off_c, 0, 69, 65
1, 100546, Note_off_c, 0, 38, 62
1, 100554, Note_off_c, 0, 66, 66
1, 100556, Note_on_c, 0, 62, 79
1, 100574, Control_c, 0, 64, 71
1, 100578, Note_off_c, 0, 62, 68
1, 100589, Control_c, 0, 64, 69
1, 100604, Control_c, 0, 64, 67
1, 100619, Control_c, 0, 64, 64
1, 100633, Note_on_c, 0, 42, 83
1, 100634, Control_c, 0, 64, 53
1, 100646, Note_on_c, 0, 57, 85
1, 100649, Control_c, 0, 64, 0
1, 100663, Note_off_c, 0, 42, 68
1, 100732, Note_on_c, 0, 54, 77
1, 100737, Note_off_c, 0, 57, 56
1, 100797, Note_on_c, 0, 43, 105
1, 100814, Note_on_c, 0, 59, 75
1, 100817, Note_off_c, 0, 43, 72
1, 100823, Note_off_c, 0, 54, 61
1, 100899, Note_on_c, 0, 55, 72
1, 100915, Note_off_c, 0, 59, 63
1, 100979, Note_on_c, 0, 45, 100
1, 100988, Note_on_c, 0, 54, 78
1, 101016, Note_off_c, 0, 45, 63
1, 101017, Note_off_c, 0, 55, 64
1, 101046, Note_off_c, 0, 54, 64
1, 101057, Note_on_c, 0, 52, 78
1, 101158, Note_on_c, 0, 33, 90
1, 101161, Note_on_c, 0, 50, 76
1, 101167, Note_off_c, 0, 52, 65
1, 101183, Note_off_c, 0, 33, 73
1, 101249, Note_on_c, 0, 49, 75
1, 101254, Note_off_c, 0, 50, 64
1, 101382, Note_off_c, 0, 49, 61
1, 101397, Note_on_c, 0, 50, 72
1, 101409, Note_on_c, 0, 38, 81
1, 101435, Note_off_c, 0, 50, 61
1, 101465, Note_on_c, 0, 52, 77
1, 101509, Note_off_c, 0, 52, 62
1, 101522, Note_on_c, 0, 50, 70
1, 101561, Note_off_c, 0, 50, 57
1, 101580, Note_on_c, 0, 52, 71
1, 101620, Note_off_c, 0, 52, 68
1, 101629, Note_on_c, 0, 50, 66
1, 101674, Note_off_c, 0, 50, 62
1, 101679, Note_on_c, 0, 52, 75
1, 101728, Note_on_c, 0, 50, 59
1, 101736, Note_off_c, 0, 52, 67
1, 102102, Control_c, 0, 64, 10
1, 102117, Control_c, 0, 64, 33
1, 102131, Control_c, 0, 64, 54
1, 102146, Control_c, 0, 64, 61
1, 102161, Control_c, 0, 64, 63
1, 102175, Control_c, 0, 64, 64
1, 102190, Control_c, 0, 64, 65
1, 102205, Control_c, 0, 64, 66
1, 102220, Control_c, 0, 64, 67
1, 102235, Control_c, 0, 64, 68
1, 102249, Control_c, 0, 64, 69
1, 102264, Control_c, 0, 64, 69
1, 102279, Control_c, 0, 64, 70
1, 102449, Control_c, 0, 64, 70
1, 102455, Note_off_c, 0, 50, 62
1, 102464, Control_c, 0, 64, 69
1, 102479, Control_c, 0, 64, 68
1, 102487, Note_off_c, 0, 38, 66
1, 102494, Control_c, 0, 64, 68
1, 102509, Control_c, 0, 64, 66
1, 102523, Control_c, 0, 64, 66
1, 102538, Control_c, 0, 64, 65
1, 102553, Control_c, 0, 64, 64
1, 102568, Control_c, 0, 64, 63
1, 102583, Control_c, 0, 64, 62
1, 102598, Control_c, 0, 64, 61
1, 102613, Control_c, 0, 64, 60
1, 102628, Control_c, 0, 64, 59
1, 102643, Control_c, 0, 64, 58
1, 102658, Control_c, 0, 64, 55
1, 102673, Control_c, 0, 64, 48
1, 102687, Control_c, 0, 64, 32
1, 102702, Control_c, 0, 64, 0
1, 102777, End_track
0, 0, End_of_file
