0, 0, Header, 0, 1, 384
1, 0, Start_track
1, 0, Title_t, "Rondo in a, K511--Cai           "
1, 0, Text_t, "2009 International Piano-e-Competition finals"
1, 0, Text_t, "captured June-July 2009"
1, 0, Text_t, "http://www.piano-e-competition.com/"
1, 0, Text_t, "standard-resolution version"
1, 0, Text_t, "File processed for distribution by software from Zenph Studios, Inc., http://www.zenph.com"
1, 0, Instrument_name_t, "Yamaha Disklavier Pro Mark IV concert grand piano, model DCFIIISM4PRO"
1, 0, Sequencer_specific, 39, 67, 113, 0, 1, 0, 1, 0, 82, 111, 110, 100, 111, 32, 105, 110, 32, 97, 44, 75, 53, 49, 49, 32, 67, 104, 97, 111, 121, 105, 110, 32, 67, 97, 105, 32, 32, 32, 32, 32
1, 0, Sequencer_specific, 6, 67, 113, 0, 0, 0, 69
1, 0, System_exclusive, 21, 67, 113, 126, 21, 0, 2, 2, 1, 1, 13, 3, 4, 10, 4, 14, 4, 4, 1, 15, 7, 247
1, 0, Sequencer_specific, 5, 67, 123, 12, 2, 1
1, 0, Tempo, 512820
1, 0, Time_signature, 4, 2, 24, 8
1, 0, System_exclusive, 5, 126, 127, 9, 1, 247
1, 1, System_exclusive, 8, 67, 16, 76, 0, 0, 126, 0, 247
1, 2, System_exclusive, 8, 67, 16, 76, 8, 9, 7, 1, 247
1, 3, Control_c, 0, 0, 0
1, 3, Control_c, 1, 0, 0
1, 3, Control_c, 2, 0, 0
1, 3, Control_c, 3, 0, 0
1, 3, Control_c, 4, 0, 0
1, 3, Control_c, 5, 0, 0
1, 3, Control_c, 6, 0, 0
1, 3, Control_c, 7, 0, 0
1, 3, Control_c, 8, 0, 0
1, 3, Control_c, 9, 0, 127
1, 3, Control_c, 10, 0, 0
1, 3, Control_c, 11, 0, 0
1, 3, Control_c, 12, 0, 0
1, 3, Control_c, 13, 0, 0
1, 3, Control_c, 14, 0, 0
1, 3, Control_c, 15, 0, 0
1, 4, Control_c, 0, 32, 0
1, 4, Control_c, 1, 32, 0
1, 4, Control_c, 2, 32, 0
1, 4, Control_c, 3, 32, 0
1, 4, Control_c, 4, 32, 0
1, 4, Control_c, 5, 32, 0
1, 4, Control_c, 6, 32, 0
1, 4, Control_c, 7, 32, 0
1, 4, Control_c, 8, 32, 0
1, 4, Control_c, 9, 32, 0
1, 4, Control_c, 10, 32, 0
1, 4, Control_c, 11, 32, 0
1, 4, Control_c, 12, 32, 0
1, 4, Control_c, 13, 32, 0
1, 4, Control_c, 14, 32, 0
1, 4, Control_c, 15, 32, 0
1, 5, Program_c, 0, 0
1, 5, Program_c, 1, 0
1, 5, Program_c, 2, 0
1, 5, Program_c, 3, 0
1, 5, Program_c, 4, 0
1, 5, Program_c, 5, 0
1, 5, Program_c, 6, 0
1, 5, Program_c, 7, 0
1, 5, Program_c, 8, 0
1, 5, Program_c, 9, 0
1, 5, Program_c, 10, 0
1, 5, Program_c, 11, 0
1, 5, Program_c, 12, 0
1, 5, Program_c, 13, 0
1, 5, Program_c, 14, 0
1, 5, Program_c, 15, 0
1, 6, Control_c, 0, 7, 100
1, 6, Control_c, 1, 7, 100
1, 6, Control_c, 2, 7, 100
1, 6, Control_c, 3, 7, 100
1, 6, Control_c, 4, 7, 100
1, 6, Control_c, 5, 7, 100
1, 6, Control_c, 6, 7, 100
1, 6, Control_c, 7, 7, 100
1, 6, Control_c, 8, 7, 100
1, 6, Control_c, 9, 7, 100
1, 6, Control_c, 10, 7, 100
1, 6, Control_c, 11, 7, 100
1, 6, Control_c, 12, 7, 100
1, 6, Control_c, 13, 7, 100
1, 6, Control_c, 14, 7, 100
1, 6, Control_c, 15, 7, 100
1, 117, Control_c, 0, 64, 15
1, 229, Control_c, 0, 64, 31
1, 341, Control_c, 0, 64, 46
1, 452, Control_c, 0, 64, 63
1, 564, Control_c, 0, 64, 77
1, 676, Control_c, 0, 64, 94
1, 787, Control_c, 0, 64, 108
1, 899, Control_c, 0, 64, 127
1, 1133, Note_on_c, 0, 76, 47
1, 1475, Note_off_c, 0, 76, 20
1, 1725, Note_on_c, 0, 57, 30
1, 1806, Note_on_c, 0, 75, 37
1, 1883, Note_on_c, 0, 76, 55
1, 1914, Note_off_c, 0, 75, 41
1, 1924, Note_off_c, 0, 76, 60
1, 1937, Note_on_c, 0, 77, 67
1, 1938, Control_c, 0, 64, 99
1, 1952, Control_c, 0, 64, 83
1, 1967, Control_c, 0, 64, 71
1, 1982, Control_c, 0, 64, 62
1, 1997, Control_c, 0, 64, 37
1, 2012, Control_c, 0, 64, 0
1, 2029, Note_on_c, 0, 76, 55
1, 2048, Note_off_c, 0, 77, 50
1, 2219, Control_c, 0, 64, 28
1, 2234, Control_c, 0, 64, 42
1, 2249, Control_c, 0, 64, 53
1, 2264, Control_c, 0, 64, 61
1, 2279, Control_c, 0, 64, 64
1, 2301, Control_c, 0, 64, 67
1, 2315, Control_c, 0, 64, 73
1, 2330, Control_c, 0, 64, 80
1, 2345, Control_c, 0, 64, 85
1, 2360, Control_c, 0, 64, 90
1, 2375, Control_c, 0, 64, 98
1, 2390, Control_c, 0, 64, 119
1, 2405, Control_c, 0, 64, 127
1, 2585, Note_on_c, 0, 60, 33
1, 2615, Note_on_c, 0, 64, 30
1, 2777, Note_off_c, 0, 60, 39
1, 2780, Note_off_c, 0, 64, 41
1, 2786, Note_on_c, 0, 75, 54
1, 2814, Note_off_c, 0, 76, 63
1, 2944, Note_off_c, 0, 75, 30
1, 2978, Note_on_c, 0, 76, 60
1, 2983, Note_on_c, 0, 60, 34
1, 2998, Control_c, 0, 64, 119
1, 2999, Note_on_c, 0, 64, 32
1, 3013, Control_c, 0, 64, 76
1, 3028, Control_c, 0, 64, 60
1, 3043, Control_c, 0, 64, 25
1, 3064, Control_c, 0, 64, 35
1, 3079, Control_c, 0, 64, 44
1, 3080, Note_off_c, 0, 57, 40
1, 3094, Control_c, 0, 64, 51
1, 3108, Control_c, 0, 64, 59
1, 3123, Control_c, 0, 64, 64
1, 3138, Control_c, 0, 64, 69
1, 3153, Control_c, 0, 64, 76
1, 3168, Control_c, 0, 64, 81
1, 3184, Control_c, 0, 64, 84
1, 3198, Control_c, 0, 64, 87
1, 3213, Control_c, 0, 64, 89
1, 3228, Control_c, 0, 64, 90
1, 3332, Control_c, 0, 64, 89
1, 3347, Control_c, 0, 64, 86
1, 3362, Control_c, 0, 64, 82
1, 3377, Control_c, 0, 64, 78
1, 3392, Control_c, 0, 64, 75
1, 3406, Control_c, 0, 64, 71
1, 3408, Note_on_c, 0, 69, 39
1, 3415, Note_on_c, 0, 57, 33
1, 3421, Control_c, 0, 64, 68
1, 3436, Control_c, 0, 64, 64
1, 3451, Control_c, 0, 64, 59
1, 3454, Note_off_c, 0, 60, 29
1, 3457, Note_off_c, 0, 64, 28
1, 3466, Control_c, 0, 64, 52
1, 3480, Control_c, 0, 64, 38
1, 3495, Control_c, 0, 64, 0
1, 3501, Note_off_c, 0, 76, 38
1, 3821, Note_off_c, 0, 69, 40
1, 3873, Control_c, 0, 64, 35
1, 3887, Control_c, 0, 64, 56
1, 3900, Note_on_c, 0, 60, 18
1, 3902, Note_on_c, 0, 64, 26
1, 3902, Control_c, 0, 64, 61
1, 3917, Control_c, 0, 64, 63
1, 3931, Control_c, 0, 64, 65
1, 3946, Control_c, 0, 64, 70
1, 3961, Control_c, 0, 64, 77
1, 3976, Control_c, 0, 64, 84
1, 3992, Control_c, 0, 64, 90
1, 4007, Control_c, 0, 64, 99
1, 4021, Control_c, 0, 64, 116
1, 4036, Control_c, 0, 64, 127
1, 4156, Note_off_c, 0, 64, 41
1, 4168, Note_off_c, 0, 60, 39
1, 4307, Note_on_c, 0, 69, 49
1, 4314, Note_on_c, 0, 60, 34
1, 4331, Note_on_c, 0, 64, 30
1, 4417, Note_off_c, 0, 69, 64
1, 4462, Note_off_c, 0, 57, 40
1, 4706, Note_on_c, 0, 70, 56
1, 4710, Note_on_c, 0, 57, 37
1, 4760, Note_off_c, 0, 60, 34
1, 4770, Control_c, 0, 64, 105
1, 4785, Control_c, 0, 64, 91
1, 4800, Control_c, 0, 64, 84
1, 4815, Control_c, 0, 64, 78
1, 4830, Control_c, 0, 64, 71
1, 4843, Note_off_c, 0, 64, 42
1, 4843, Control_c, 0, 64, 64
1, 4858, Control_c, 0, 64, 51
1, 4873, Control_c, 0, 64, 0
1, 4992, Control_c, 0, 64, 35
1, 5007, Control_c, 0, 64, 52
1, 5022, Control_c, 0, 64, 59
1, 5037, Control_c, 0, 64, 65
1, 5051, Control_c, 0, 64, 68
1, 5066, Control_c, 0, 64, 72
1, 5081, Control_c, 0, 64, 76
1, 5095, Control_c, 0, 64, 81
1, 5099, Note_on_c, 0, 65, 36
1, 5102, Note_on_c, 0, 62, 40
1, 5110, Control_c, 0, 64, 85
1, 5125, Control_c, 0, 64, 90
1, 5140, Control_c, 0, 64, 98
1, 5155, Control_c, 0, 64, 107
1, 5169, Control_c, 0, 64, 119
1, 5184, Control_c, 0, 64, 127
1, 5243, Note_off_c, 0, 65, 44
1, 5273, Note_off_c, 0, 62, 39
1, 5477, Note_on_c, 0, 71, 58
1, 5488, Control_c, 0, 64, 118
1, 5502, Control_c, 0, 64, 88
1, 5505, Note_on_c, 0, 62, 37
1, 5517, Control_c, 0, 64, 73
1, 5519, Note_on_c, 0, 65, 34
1, 5532, Control_c, 0, 64, 62
1, 5547, Note_off_c, 0, 70, 49
1, 5547, Control_c, 0, 64, 38
1, 5562, Control_c, 0, 64, 0
1, 5593, Control_c, 0, 64, 20
1, 5607, Control_c, 0, 64, 36
1, 5612, Note_off_c, 0, 57, 50
1, 5622, Control_c, 0, 64, 50
1, 5637, Control_c, 0, 64, 61
1, 5652, Control_c, 0, 64, 66
1, 5667, Control_c, 0, 64, 70
1, 5681, Control_c, 0, 64, 74
1, 5696, Control_c, 0, 64, 76
1, 5815, Control_c, 0, 64, 76
1, 5830, Control_c, 0, 64, 75
1, 5845, Control_c, 0, 64, 74
1, 5860, Control_c, 0, 64, 71
1, 5874, Control_c, 0, 64, 67
1, 5878, Note_on_c, 0, 57, 30
1, 5888, Note_on_c, 0, 72, 43
1, 5889, Control_c, 0, 64, 64
1, 5904, Control_c, 0, 64, 63
1, 5933, Control_c, 0, 64, 62
1, 5945, Note_off_c, 0, 62, 33
1, 5948, Control_c, 0, 64, 60
1, 5952, Note_off_c, 0, 71, 35
1, 5963, Control_c, 0, 64, 54
1, 5978, Control_c, 0, 64, 35
1, 5979, Note_off_c, 0, 65, 37
1, 5992, Control_c, 0, 64, 0
1, 6207, Control_c, 0, 64, 18
1, 6222, Control_c, 0, 64, 35
1, 6237, Control_c, 0, 64, 41
1, 6252, Control_c, 0, 64, 51
1, 6267, Control_c, 0, 64, 60
1, 6281, Control_c, 0, 64, 63
1, 6286, Note_off_c, 0, 72, 42
1, 6296, Control_c, 0, 64, 64
1, 6311, Control_c, 0, 64, 65
1, 6318, Note_on_c, 0, 67, 34
1, 6325, Control_c, 0, 64, 66
1, 6328, Note_on_c, 0, 64, 32
1, 6340, Control_c, 0, 64, 67
1, 6355, Control_c, 0, 64, 68
1, 6371, Control_c, 0, 64, 69
1, 6430, Control_c, 0, 64, 66
1, 6445, Control_c, 0, 64, 60
1, 6460, Control_c, 0, 64, 18
1, 6475, Control_c, 0, 64, 0
1, 6504, Control_c, 0, 64, 37
1, 6519, Control_c, 0, 64, 57
1, 6534, Control_c, 0, 64, 63
1, 6548, Control_c, 0, 64, 67
1, 6557, Note_off_c, 0, 67, 42
1, 6560, Note_off_c, 0, 64, 44
1, 6563, Control_c, 0, 64, 72
1, 6578, Control_c, 0, 64, 74
1, 6593, Control_c, 0, 64, 75
1, 6608, Control_c, 0, 64, 77
1, 6623, Control_c, 0, 64, 79
1, 6638, Control_c, 0, 64, 81
1, 6653, Control_c, 0, 64, 85
1, 6668, Control_c, 0, 64, 86
1, 6682, Control_c, 0, 64, 87
1, 6693, Note_on_c, 0, 73, 64
1, 6697, Control_c, 0, 64, 89
1, 6703, Note_on_c, 0, 67, 37
1, 6712, Control_c, 0, 64, 90
1, 6718, Note_on_c, 0, 64, 21
1, 6727, Control_c, 0, 64, 94
1, 6741, Control_c, 0, 64, 98
1, 6756, Control_c, 0, 64, 100
1, 6771, Control_c, 0, 64, 102
1, 6793, Control_c, 0, 64, 104
1, 6808, Control_c, 0, 64, 106
1, 6823, Control_c, 0, 64, 110
1, 6837, Control_c, 0, 64, 114
1, 6852, Control_c, 0, 64, 115
1, 6881, Note_off_c, 0, 73, 46
1, 6890, Note_off_c, 0, 57, 40
1, 7060, Control_c, 0, 64, 114
1, 7074, Control_c, 0, 64, 110
1, 7085, Note_on_c, 0, 57, 39
1, 7085, Note_on_c, 0, 74, 65
1, 7089, Control_c, 0, 64, 107
1, 7103, Control_c, 0, 64, 103
1, 7118, Control_c, 0, 64, 98
1, 7133, Control_c, 0, 64, 89
1, 7147, Control_c, 0, 64, 80
1, 7163, Control_c, 0, 64, 73
1, 7178, Control_c, 0, 64, 67
1, 7192, Note_off_c, 0, 67, 42
1, 7193, Control_c, 0, 64, 62
1, 7203, Note_off_c, 0, 64, 43
1, 7208, Control_c, 0, 64, 51
1, 7223, Control_c, 0, 64, 26
1, 7238, Control_c, 0, 64, 0
1, 7356, Control_c, 0, 64, 41
1, 7371, Control_c, 0, 64, 59
1, 7386, Control_c, 0, 64, 64
1, 7401, Control_c, 0, 64, 69
1, 7416, Control_c, 0, 64, 79
1, 7431, Control_c, 0, 64, 93
1, 7445, Control_c, 0, 64, 118
1, 7460, Control_c, 0, 64, 127
1, 7472, Note_on_c, 0, 69, 50
1, 7485, Note_on_c, 0, 65, 48
1, 7583, Note_off_c, 0, 65, 58
1, 7604, Note_off_c, 0, 69, 53
1, 7880, Note_on_c, 0, 69, 34
1, 7883, Note_on_c, 0, 75, 69
1, 7920, Note_on_c, 0, 59, 28
1, 7941, Control_c, 0, 64, 111
1, 7956, Control_c, 0, 64, 86
1, 7970, Note_off_c, 0, 57, 28
1, 7972, Control_c, 0, 64, 73
1, 7986, Control_c, 0, 64, 64
1, 8000, Note_off_c, 0, 74, 49
1, 8001, Control_c, 0, 64, 40
1, 8016, Control_c, 0, 64, 0
1, 8031, Control_c, 0, 64, 45
1, 8046, Control_c, 0, 64, 59
1, 8061, Control_c, 0, 64, 65
1, 8075, Control_c, 0, 64, 70
1, 8090, Control_c, 0, 64, 83
1, 8105, Control_c, 0, 64, 100
1, 8119, Control_c, 0, 64, 111
1, 8134, Control_c, 0, 64, 118
1, 8149, Control_c, 0, 64, 127
1, 8319, Control_c, 0, 64, 125
1, 8334, Control_c, 0, 64, 115
1, 8342, Note_on_c, 0, 57, 36
1, 8349, Control_c, 0, 64, 107
1, 8350, Note_on_c, 0, 76, 62
1, 8364, Control_c, 0, 64, 101
1, 8379, Control_c, 0, 64, 92
1, 8394, Control_c, 0, 64, 84
1, 8408, Control_c, 0, 64, 76
1, 8414, Note_off_c, 0, 69, 30
1, 8423, Control_c, 0, 64, 70
1, 8438, Control_c, 0, 64, 65
1, 8444, Note_off_c, 0, 59, 43
1, 8453, Control_c, 0, 64, 62
1, 8468, Control_c, 0, 64, 56
1, 8483, Control_c, 0, 64, 42
1, 8488, Note_off_c, 0, 75, 61
1, 8498, Control_c, 0, 64, 10
1, 8513, Control_c, 0, 64, 0
1, 8676, Control_c, 0, 64, 12
1, 8691, Control_c, 0, 64, 39
1, 8706, Control_c, 0, 64, 48
1, 8720, Note_off_c, 0, 76, 42
1, 8720, Control_c, 0, 64, 54
1, 8735, Control_c, 0, 64, 59
1, 8750, Control_c, 0, 64, 63
1, 8766, Control_c, 0, 64, 65
1, 8778, Note_on_c, 0, 69, 35
1, 8781, Control_c, 0, 64, 66
1, 8793, Note_on_c, 0, 60, 33
1, 8796, Control_c, 0, 64, 68
1, 8810, Control_c, 0, 64, 70
1, 8825, Control_c, 0, 64, 73
1, 8840, Control_c, 0, 64, 76
1, 8855, Control_c, 0, 64, 77
1, 8870, Control_c, 0, 64, 78
1, 8884, Control_c, 0, 64, 79
1, 8899, Control_c, 0, 64, 80
1, 8914, Control_c, 0, 64, 80
1, 8929, Control_c, 0, 64, 81
1, 9011, Note_off_c, 0, 60, 39
1, 9114, Control_c, 0, 64, 80
1, 9129, Control_c, 0, 64, 79
1, 9139, Note_off_c, 0, 69, 43
1, 9143, Control_c, 0, 64, 77
1, 9158, Control_c, 0, 64, 74
1, 9173, Control_c, 0, 64, 68
1, 9188, Control_c, 0, 64, 62
1, 9203, Control_c, 0, 64, 56
1, 9232, Control_c, 0, 64, 59
1, 9236, Note_on_c, 0, 81, 49
1, 9247, Control_c, 0, 64, 63
1, 9256, Note_on_c, 0, 64, 28
1, 9262, Control_c, 0, 64, 65
1, 9266, Note_on_c, 0, 60, 24
1, 9276, Control_c, 0, 64, 68
1, 9291, Control_c, 0, 64, 73
1, 9306, Control_c, 0, 64, 79
1, 9321, Control_c, 0, 64, 84
1, 9336, Control_c, 0, 64, 89
1, 9350, Control_c, 0, 64, 93
1, 9365, Control_c, 0, 64, 95
1, 9380, Control_c, 0, 64, 98
1, 9395, Control_c, 0, 64, 102
1, 9410, Control_c, 0, 64, 107
1, 9425, Control_c, 0, 64, 110
1, 9440, Control_c, 0, 64, 112
1, 9455, Note_off_c, 0, 64, 43
1, 9480, Note_off_c, 0, 57, 28
1, 9511, Note_off_c, 0, 60, 40
1, 9722, Control_c, 0, 64, 110
1, 9737, Control_c, 0, 64, 107
1, 9752, Control_c, 0, 64, 105
1, 9766, Control_c, 0, 64, 103
1, 9789, Control_c, 0, 64, 100
1, 9795, Note_on_c, 0, 50, 36
1, 9803, Control_c, 0, 64, 97
1, 9806, Note_on_c, 0, 79, 50
1, 9818, Control_c, 0, 64, 91
1, 9833, Control_c, 0, 64, 84
1, 9848, Control_c, 0, 64, 78
1, 9863, Control_c, 0, 64, 75
1, 9878, Control_c, 0, 64, 73
1, 9892, Control_c, 0, 64, 71
1, 9907, Control_c, 0, 64, 68
1, 9922, Control_c, 0, 64, 64
1, 9937, Control_c, 0, 64, 62
1, 9952, Control_c, 0, 64, 60
1, 9966, Control_c, 0, 64, 58
1, 9981, Control_c, 0, 64, 52
1, 9996, Control_c, 0, 64, 31
1, 10011, Control_c, 0, 64, 0
1, 10017, Note_on_c, 0, 77, 53
1, 10033, Note_off_c, 0, 81, 18
1, 10067, Note_off_c, 0, 79, 60
1, 10080, Note_off_c, 0, 77, 62
1, 10189, Note_on_c, 0, 59, 44
1, 10195, Note_on_c, 0, 76, 56
1, 10344, Note_on_c, 0, 74, 57
1, 10359, Note_off_c, 0, 76, 64
1, 10404, Note_off_c, 0, 74, 65
1, 10513, Note_on_c, 0, 72, 52
1, 10516, Note_on_c, 0, 62, 43
1, 10667, Note_off_c, 0, 50, 39
1, 10679, Note_off_c, 0, 62, 59
1, 10698, Note_on_c, 0, 71, 53
1, 10705, Note_off_c, 0, 59, 43
1, 10737, Note_off_c, 0, 72, 63
1, 10754, Note_off_c, 0, 71, 61
1, 10886, Note_on_c, 0, 60, 34
1, 10894, Note_on_c, 0, 69, 42
1, 10897, Note_on_c, 0, 52, 28
1, 10966, Control_c, 0, 64, 35
1, 10981, Control_c, 0, 64, 48
1, 10996, Control_c, 0, 64, 56
1, 11011, Control_c, 0, 64, 61
1, 11026, Control_c, 0, 64, 63
1, 11040, Control_c, 0, 64, 64
1, 11055, Control_c, 0, 64, 65
1, 11070, Control_c, 0, 64, 66
1, 11085, Control_c, 0, 64, 67
1, 11249, Control_c, 0, 64, 66
1, 11279, Control_c, 0, 64, 66
1, 11300, Control_c, 0, 64, 65
1, 11315, Control_c, 0, 64, 65
1, 11330, Control_c, 0, 64, 64
1, 11345, Control_c, 0, 64, 60
1, 11356, Note_on_c, 0, 68, 42
1, 11360, Note_on_c, 0, 59, 32
1, 11360, Control_c, 0, 64, 50
1, 11374, Control_c, 0, 64, 41
1, 11389, Control_c, 0, 64, 40
1, 11404, Control_c, 0, 64, 38
1, 11418, Note_off_c, 0, 69, 45
1, 11419, Control_c, 0, 64, 28
1, 11431, Note_off_c, 0, 60, 32
1, 11434, Control_c, 0, 64, 0
1, 11552, Control_c, 0, 64, 23
1, 11567, Control_c, 0, 64, 57
1, 11582, Control_c, 0, 64, 65
1, 11597, Control_c, 0, 64, 69
1, 11611, Control_c, 0, 64, 73
1, 11626, Control_c, 0, 64, 80
1, 11641, Control_c, 0, 64, 87
1, 11649, Note_off_c, 0, 52, 45
1, 11655, Control_c, 0, 64, 95
1, 11670, Control_c, 0, 64, 105
1, 11685, Control_c, 0, 64, 119
1, 11700, Control_c, 0, 64, 127
1, 11769, Note_off_c, 0, 59, 37
1, 11816, Note_on_c, 0, 76, 47
1, 11901, Note_off_c, 0, 68, 44
1, 11915, Note_off_c, 0, 76, 57
1, 12357, Note_on_c, 0, 57, 32
1, 12421, Control_c, 0, 64, 114
1, 12435, Control_c, 0, 64, 97
1, 12440, Note_on_c, 0, 75, 46
1, 12450, Control_c, 0, 64, 84
1, 12465, Control_c, 0, 64, 73
1, 12479, Control_c, 0, 64, 64
1, 12494, Control_c, 0, 64, 51
1, 12499, Note_off_c, 0, 75, 57
1, 12509, Control_c, 0, 64, 19
1, 12522, Note_on_c, 0, 76, 51
1, 12524, Control_c, 0, 64, 0
1, 12562, Note_off_c, 0, 76, 62
1, 12580, Note_on_c, 0, 77, 57
1, 12648, Note_on_c, 0, 76, 53
1, 12691, Note_off_c, 0, 77, 48
1, 12962, Control_c, 0, 64, 29
1, 12977, Control_c, 0, 64, 47
1, 12987, Note_on_c, 0, 60, 20
1, 12991, Control_c, 0, 64, 54
1, 13006, Control_c, 0, 64, 58
1, 13015, Note_on_c, 0, 64, 20
1, 13021, Control_c, 0, 64, 61
1, 13036, Control_c, 0, 64, 63
1, 13051, Control_c, 0, 64, 65
1, 13065, Control_c, 0, 64, 68
1, 13080, Control_c, 0, 64, 72
1, 13095, Control_c, 0, 64, 76
1, 13109, Control_c, 0, 64, 79
1, 13124, Control_c, 0, 64, 81
1, 13139, Control_c, 0, 64, 82
1, 13154, Control_c, 0, 64, 83
1, 13184, Control_c, 0, 64, 84
1, 13188, Note_off_c, 0, 64, 41
1, 13204, Note_off_c, 0, 60, 37
1, 13219, Note_on_c, 0, 75, 46
1, 13251, Note_off_c, 0, 76, 49
1, 13317, Control_c, 0, 64, 83
1, 13332, Control_c, 0, 64, 82
1, 13347, Control_c, 0, 64, 79
1, 13362, Control_c, 0, 64, 74
1, 13376, Control_c, 0, 64, 67
1, 13384, Note_on_c, 0, 76, 56
1, 13391, Note_on_c, 0, 60, 30
1, 13391, Control_c, 0, 64, 58
1, 13406, Control_c, 0, 64, 35
1, 13415, Note_on_c, 0, 64, 29
1, 13421, Control_c, 0, 64, 0
1, 13432, Note_off_c, 0, 75, 48
1, 13435, Control_c, 0, 64, 12
1, 13450, Control_c, 0, 64, 46
1, 13465, Control_c, 0, 64, 58
1, 13480, Control_c, 0, 64, 63
1, 13482, Note_off_c, 0, 57, 41
1, 13495, Control_c, 0, 64, 66
1, 13509, Control_c, 0, 64, 70
1, 13532, Control_c, 0, 64, 75
1, 13547, Control_c, 0, 64, 79
1, 13562, Control_c, 0, 64, 79
1, 13711, Control_c, 0, 64, 79
1, 13726, Control_c, 0, 64, 77
1, 13740, Control_c, 0, 64, 75
1, 13755, Control_c, 0, 64, 72
1, 13768, Note_on_c, 0, 69, 49
1, 13770, Control_c, 0, 64, 68
1, 13774, Note_on_c, 0, 57, 32
1, 13785, Control_c, 0, 64, 65
1, 13800, Control_c, 0, 64, 62
1, 13805, Note_off_c, 0, 60, 33
1, 13814, Control_c, 0, 64, 59
1, 13829, Control_c, 0, 64, 52
1, 13844, Control_c, 0, 64, 37
1, 13858, Control_c, 0, 64, 0
1, 13876, Note_off_c, 0, 64, 33
1, 13914, Note_off_c, 0, 76, 35
1, 14111, Control_c, 0, 64, 14
1, 14123, Note_off_c, 0, 69, 42
1, 14126, Control_c, 0, 64, 31
1, 14140, Control_c, 0, 64, 39
1, 14155, Control_c, 0, 64, 47
1, 14165, Note_on_c, 0, 61, 33
1, 14170, Control_c, 0, 64, 53
1, 14185, Note_on_c, 0, 64, 32
1, 14185, Control_c, 0, 64, 57
1, 14200, Control_c, 0, 64, 59
1, 14214, Control_c, 0, 64, 61
1, 14229, Control_c, 0, 64, 63
1, 14244, Control_c, 0, 64, 64
1, 14258, Control_c, 0, 64, 65
1, 14273, Control_c, 0, 64, 67
1, 14296, Control_c, 0, 64, 69
1, 14311, Control_c, 0, 64, 71
1, 14326, Control_c, 0, 64, 75
1, 14340, Control_c, 0, 64, 78
1, 14355, Control_c, 0, 64, 82
1, 14370, Control_c, 0, 64, 85
1, 14385, Control_c, 0, 64, 86
1, 14400, Note_off_c, 0, 64, 43
1, 14406, Note_off_c, 0, 61, 41
1, 14415, Control_c, 0, 64, 86
1, 14519, Control_c, 0, 64, 85
1, 14534, Control_c, 0, 64, 81
1, 14549, Control_c, 0, 64, 74
1, 14557, Note_on_c, 0, 61, 33
1, 14563, Control_c, 0, 64, 66
1, 14566, Note_on_c, 0, 69, 48
1, 14576, Note_on_c, 0, 64, 29
1, 14578, Control_c, 0, 64, 62
1, 14593, Control_c, 0, 64, 62
1, 14608, Control_c, 0, 64, 64
1, 14623, Control_c, 0, 64, 67
1, 14637, Control_c, 0, 64, 69
1, 14652, Control_c, 0, 64, 73
1, 14660, Note_off_c, 0, 57, 39
1, 14667, Control_c, 0, 64, 77
1, 14679, Note_off_c, 0, 69, 59
1, 14681, Control_c, 0, 64, 80
1, 14696, Control_c, 0, 64, 82
1, 14711, Control_c, 0, 64, 83
1, 14741, Control_c, 0, 64, 83
1, 14934, Control_c, 0, 64, 83
1, 14949, Control_c, 0, 64, 82
1, 14963, Control_c, 0, 64, 81
1, 14975, Note_on_c, 0, 57, 35
1, 14978, Control_c, 0, 64, 80
1, 14985, Note_on_c, 0, 72, 57
1, 14993, Control_c, 0, 64, 79
1, 15007, Control_c, 0, 64, 78
1, 15022, Control_c, 0, 64, 75
1, 15044, Control_c, 0, 64, 72
1, 15059, Control_c, 0, 64, 69
1, 15072, Note_off_c, 0, 61, 31
1, 15074, Note_off_c, 0, 64, 37
1, 15074, Control_c, 0, 64, 65
1, 15089, Control_c, 0, 64, 63
1, 15104, Control_c, 0, 64, 61
1, 15118, Control_c, 0, 64, 59
1, 15133, Control_c, 0, 64, 53
1, 15148, Control_c, 0, 64, 43
1, 15164, Control_c, 0, 64, 18
1, 15178, Control_c, 0, 64, 0
1, 15383, Note_on_c, 0, 70, 57
1, 15387, Note_on_c, 0, 65, 28
1, 15399, Note_on_c, 0, 62, 30
1, 15509, Note_off_c, 0, 72, 59
1, 15549, Control_c, 0, 64, 14
1, 15564, Control_c, 0, 64, 43
1, 15578, Control_c, 0, 64, 52
1, 15593, Control_c, 0, 64, 59
1, 15608, Control_c, 0, 64, 62
1, 15623, Control_c, 0, 64, 64
1, 15625, Note_off_c, 0, 65, 46
1, 15637, Control_c, 0, 64, 64
1, 15651, Note_off_c, 0, 62, 41
1, 15756, Control_c, 0, 64, 64
1, 15769, Note_on_c, 0, 71, 67
1, 15771, Control_c, 0, 64, 63
1, 15793, Control_c, 0, 64, 62
1, 15795, Note_on_c, 0, 62, 32
1, 15808, Note_on_c, 0, 65, 37
1, 15808, Control_c, 0, 64, 60
1, 15823, Control_c, 0, 64, 54
1, 15837, Control_c, 0, 64, 41
1, 15852, Control_c, 0, 64, 28
1, 15866, Note_off_c, 0, 70, 63
1, 15867, Control_c, 0, 64, 17
1, 15882, Control_c, 0, 64, 22
1, 15888, Note_off_c, 0, 57, 50
1, 15897, Control_c, 0, 64, 39
1, 15911, Control_c, 0, 64, 55
1, 15926, Control_c, 0, 64, 63
1, 15941, Control_c, 0, 64, 64
1, 15957, Control_c, 0, 64, 66
1, 15972, Control_c, 0, 64, 69
1, 15987, Control_c, 0, 64, 73
1, 16002, Control_c, 0, 64, 75
1, 16135, Control_c, 0, 64, 75
1, 16150, Control_c, 0, 64, 74
1, 16165, Control_c, 0, 64, 74
1, 16170, Note_on_c, 0, 74, 60
1, 16174, Note_on_c, 0, 57, 33
1, 16180, Control_c, 0, 64, 72
1, 16195, Control_c, 0, 64, 70
1, 16209, Control_c, 0, 64, 68
1, 16224, Control_c, 0, 64, 67
1, 16239, Control_c, 0, 64, 66
1, 16253, Control_c, 0, 64, 65
1, 16268, Control_c, 0, 64, 65
1, 16276, Note_off_c, 0, 62, 41
1, 16283, Control_c, 0, 64, 64
1, 16298, Control_c, 0, 64, 62
1, 16313, Control_c, 0, 64, 60
1, 16317, Note_off_c, 0, 65, 42
1, 16318, Note_off_c, 0, 71, 47
1, 16327, Control_c, 0, 64, 56
1, 16342, Control_c, 0, 64, 51
1, 16357, Control_c, 0, 64, 45
1, 16372, Control_c, 0, 64, 38
1, 16387, Control_c, 0, 64, 31
1, 16401, Control_c, 0, 64, 23
1, 16416, Control_c, 0, 64, 0
1, 16612, Note_on_c, 0, 72, 46
1, 16615, Note_on_c, 0, 67, 29
1, 16631, Note_on_c, 0, 64, 24
1, 16721, Note_off_c, 0, 74, 40
1, 16838, Note_off_c, 0, 67, 49
1, 16839, Control_c, 0, 64, 47
1, 16854, Control_c, 0, 64, 59
1, 16862, Note_off_c, 0, 64, 42
1, 16869, Control_c, 0, 64, 62
1, 16874, Note_off_c, 0, 72, 62
1, 16883, Control_c, 0, 64, 63
1, 16898, Control_c, 0, 64, 64
1, 16958, Control_c, 0, 64, 64
1, 16973, Control_c, 0, 64, 62
1, 16987, Control_c, 0, 64, 56
1, 17002, Control_c, 0, 64, 34
1, 17017, Control_c, 0, 64, 0
1, 17018, Note_on_c, 0, 67, 42
1, 17031, Note_on_c, 0, 64, 33
1, 17062, Control_c, 0, 64, 20
1, 17076, Control_c, 0, 64, 57
1, 17091, Control_c, 0, 64, 63
1, 17106, Control_c, 0, 64, 65
1, 17121, Control_c, 0, 64, 67
1, 17136, Control_c, 0, 64, 69
1, 17150, Control_c, 0, 64, 72
1, 17165, Control_c, 0, 64, 74
1, 17167, Note_off_c, 0, 57, 41
1, 17177, Note_on_c, 0, 73, 68
1, 17180, Control_c, 0, 64, 75
1, 17239, Note_off_c, 0, 73, 61
1, 17321, Control_c, 0, 64, 75
1, 17336, Control_c, 0, 64, 73
1, 17351, Control_c, 0, 64, 71
1, 17363, Note_on_c, 0, 57, 36
1, 17365, Control_c, 0, 64, 69
1, 17369, Note_on_c, 0, 76, 70
1, 17380, Control_c, 0, 64, 66
1, 17395, Control_c, 0, 64, 63
1, 17409, Control_c, 0, 64, 59
1, 17424, Control_c, 0, 64, 52
1, 17439, Control_c, 0, 64, 41
1, 17452, Note_off_c, 0, 64, 35
1, 17454, Control_c, 0, 64, 18
1, 17455, Note_off_c, 0, 67, 34
1, 17469, Control_c, 0, 64, 0
1, 17543, Control_c, 0, 64, 28
1, 17559, Control_c, 0, 64, 48
1, 17574, Control_c, 0, 64, 56
1, 17588, Control_c, 0, 64, 61
1, 17603, Control_c, 0, 64, 63
1, 17618, Control_c, 0, 64, 64
1, 17632, Control_c, 0, 64, 66
1, 17647, Control_c, 0, 64, 69
1, 17662, Control_c, 0, 64, 73
1, 17677, Control_c, 0, 64, 76
1, 17692, Control_c, 0, 64, 79
1, 17706, Control_c, 0, 64, 80
1, 17721, Control_c, 0, 64, 81
1, 17736, Control_c, 0, 64, 81
1, 17749, Note_on_c, 0, 74, 77
1, 17751, Control_c, 0, 64, 83
1, 17766, Control_c, 0, 64, 85
1, 17768, Note_on_c, 0, 65, 44
1, 17770, Note_on_c, 0, 69, 42
1, 17780, Control_c, 0, 64, 86
1, 17827, Note_off_c, 0, 76, 64
1, 17905, Note_off_c, 0, 69, 61
1, 17946, Note_off_c, 0, 65, 60
1, 18040, Control_c, 0, 64, 84
1, 18055, Control_c, 0, 64, 83
1, 18070, Control_c, 0, 64, 81
1, 18084, Control_c, 0, 64, 78
1, 18099, Control_c, 0, 64, 75
1, 18114, Control_c, 0, 64, 72
1, 18129, Control_c, 0, 64, 69
1, 18144, Control_c, 0, 64, 66
1, 18159, Control_c, 0, 64, 64
1, 18173, Control_c, 0, 64, 63
1, 18188, Control_c, 0, 64, 61
1, 18189, Note_on_c, 0, 59, 35
1, 18189, Note_on_c, 0, 68, 44
1, 18203, Control_c, 0, 64, 56
1, 18204, Note_on_c, 0, 77, 73
1, 18218, Control_c, 0, 64, 47
1, 18232, Control_c, 0, 64, 0
1, 18264, Note_off_c, 0, 57, 37
1, 18302, Note_off_c, 0, 74, 51
1, 18321, Control_c, 0, 64, 29
1, 18336, Control_c, 0, 64, 53
1, 18352, Control_c, 0, 64, 61
1, 18367, Control_c, 0, 64, 64
1, 18382, Control_c, 0, 64, 67
1, 18397, Control_c, 0, 64, 70
1, 18411, Control_c, 0, 64, 75
1, 18426, Control_c, 0, 64, 81
1, 18441, Control_c, 0, 64, 86
1, 18455, Control_c, 0, 64, 91
1, 18465, Note_off_c, 0, 68, 54
1, 18470, Control_c, 0, 64, 92
1, 18485, Control_c, 0, 64, 93
1, 18633, Control_c, 0, 64, 92
1, 18648, Control_c, 0, 64, 91
1, 18663, Control_c, 0, 64, 90
1, 18678, Note_on_c, 0, 69, 46
1, 18678, Control_c, 0, 64, 86
1, 18693, Note_on_c, 0, 57, 34
1, 18693, Note_on_c, 0, 60, 45
1, 18693, Control_c, 0, 64, 81
1, 18699, Note_off_c, 0, 77, 20
1, 18707, Control_c, 0, 64, 75
1, 18722, Control_c, 0, 64, 68
1, 18737, Control_c, 0, 64, 62
1, 18752, Control_c, 0, 64, 49
1, 18767, Control_c, 0, 64, 0
1, 18768, Note_on_c, 0, 76, 66
1, 18796, Note_off_c, 0, 59, 39
1, 18848, Control_c, 0, 64, 18
1, 18862, Control_c, 0, 64, 59
1, 18877, Control_c, 0, 64, 67
1, 18892, Control_c, 0, 64, 74
1, 18907, Control_c, 0, 64, 86
1, 18922, Control_c, 0, 64, 93
1, 18937, Control_c, 0, 64, 98
1, 18952, Control_c, 0, 64, 99
1, 18969, Note_off_c, 0, 76, 65
1, 18993, Note_on_c, 0, 77, 58
1, 19038, Note_off_c, 0, 77, 60
1, 19052, Note_on_c, 0, 76, 59
1, 19070, Control_c, 0, 64, 98
1, 19084, Control_c, 0, 64, 94
1, 19098, Note_off_c, 0, 76, 65
1, 19099, Control_c, 0, 64, 87
1, 19114, Control_c, 0, 64, 79
1, 19119, Note_on_c, 0, 75, 57
1, 19128, Control_c, 0, 64, 72
1, 19144, Control_c, 0, 64, 67
1, 19159, Control_c, 0, 64, 64
1, 19165, Note_off_c, 0, 75, 63
1, 19174, Control_c, 0, 64, 62
1, 19184, Note_on_c, 0, 76, 57
1, 19189, Control_c, 0, 64, 61
1, 19204, Control_c, 0, 64, 59
1, 19219, Control_c, 0, 64, 57
1, 19233, Control_c, 0, 64, 53
1, 19248, Control_c, 0, 64, 48
1, 19263, Control_c, 0, 64, 43
1, 19277, Control_c, 0, 64, 32
1, 19292, Control_c, 0, 64, 0
1, 19369, Note_on_c, 0, 81, 45
1, 19375, Note_off_c, 0, 76, 37
1, 19468, Note_off_c, 0, 69, 44
1, 19585, Note_off_c, 0, 60, 43
1, 19648, Note_off_c, 0, 57, 37
1, 19821, Note_off_c, 0, 81, 40
1, 19863, Control_c, 0, 64, 19
1, 19877, Control_c, 0, 64, 34
1, 19892, Control_c, 0, 64, 43
1, 19907, Control_c, 0, 64, 50
1, 19922, Control_c, 0, 64, 56
1, 19937, Control_c, 0, 64, 60
1, 19953, Control_c, 0, 64, 62
1, 19967, Control_c, 0, 64, 64
1, 19982, Control_c, 0, 64, 65
1, 19997, Control_c, 0, 64, 67
1, 20012, Control_c, 0, 64, 69
1, 20026, Control_c, 0, 64, 71
1, 20041, Control_c, 0, 64, 74
1, 20056, Control_c, 0, 64, 76
1, 20071, Control_c, 0, 64, 79
1, 20086, Control_c, 0, 64, 81
1, 20100, Control_c, 0, 64, 84
1, 20115, Control_c, 0, 64, 86
1, 20130, Control_c, 0, 64, 89
1, 20145, Control_c, 0, 64, 94
1, 20160, Control_c, 0, 64, 98
1, 20174, Control_c, 0, 64, 100
1, 20189, Control_c, 0, 64, 102
1, 20204, Control_c, 0, 64, 104
1, 20219, Control_c, 0, 64, 105
1, 20234, Control_c, 0, 64, 106
1, 20263, Control_c, 0, 64, 106
1, 20284, Note_on_c, 0, 69, 36
1, 20300, Control_c, 0, 64, 107
1, 20354, Note_off_c, 0, 69, 40
1, 20538, Note_on_c, 0, 72, 53
1, 20543, Note_on_c, 0, 69, 36
1, 20568, Control_c, 0, 64, 106
1, 20574, Note_on_c, 0, 52, 32
1, 20576, Note_on_c, 0, 64, 25
1, 20582, Control_c, 0, 64, 105
1, 20597, Control_c, 0, 64, 104
1, 20612, Control_c, 0, 64, 102
1, 20626, Control_c, 0, 64, 100
1, 20641, Control_c, 0, 64, 98
1, 20656, Control_c, 0, 64, 95
1, 20671, Control_c, 0, 64, 91
1, 20686, Control_c, 0, 64, 85
1, 20700, Control_c, 0, 64, 79
1, 20715, Control_c, 0, 64, 72
1, 20730, Control_c, 0, 64, 66
1, 20746, Control_c, 0, 64, 61
1, 20761, Control_c, 0, 64, 54
1, 20776, Control_c, 0, 64, 47
1, 20790, Control_c, 0, 64, 44
1, 20805, Control_c, 0, 64, 45
1, 20820, Control_c, 0, 64, 50
1, 20835, Control_c, 0, 64, 56
1, 20849, Control_c, 0, 64, 62
1, 20864, Control_c, 0, 64, 64
1, 20879, Control_c, 0, 64, 67
1, 20894, Control_c, 0, 64, 72
1, 20909, Control_c, 0, 64, 78
1, 20923, Control_c, 0, 64, 82
1, 20938, Control_c, 0, 64, 87
1, 20953, Control_c, 0, 64, 91
1, 20968, Control_c, 0, 64, 95
1, 20983, Control_c, 0, 64, 102
1, 20997, Control_c, 0, 64, 127
1, 21067, Note_off_c, 0, 64, 42
1, 21283, Note_on_c, 0, 74, 51
1, 21283, Note_off_c, 0, 72, 58
1, 21478, Control_c, 0, 64, 108
1, 21493, Note_on_c, 0, 68, 47
1, 21493, Control_c, 0, 64, 98
1, 21500, Note_on_c, 0, 71, 48
1, 21504, Note_on_c, 0, 62, 38
1, 21508, Control_c, 0, 64, 87
1, 21522, Control_c, 0, 64, 76
1, 21537, Control_c, 0, 64, 67
1, 21553, Control_c, 0, 64, 58
1, 21568, Control_c, 0, 64, 37
1, 21572, Note_off_c, 0, 69, 45
1, 21583, Control_c, 0, 64, 14
1, 21597, Control_c, 0, 64, 0
1, 21602, Note_off_c, 0, 74, 26
1, 21627, Control_c, 0, 64, 12
1, 21642, Control_c, 0, 64, 39
1, 21657, Control_c, 0, 64, 55
1, 21671, Control_c, 0, 64, 63
1, 21686, Control_c, 0, 64, 65
1, 21701, Control_c, 0, 64, 68
1, 21716, Control_c, 0, 64, 73
1, 21731, Control_c, 0, 64, 78
1, 21745, Control_c, 0, 64, 83
1, 21768, Control_c, 0, 64, 87
1, 21783, Control_c, 0, 64, 88
1, 21797, Control_c, 0, 64, 90
1, 21812, Control_c, 0, 64, 91
1, 21827, Control_c, 0, 64, 91
1, 22019, Control_c, 0, 64, 90
1, 22034, Control_c, 0, 64, 88
1, 22041, Note_on_c, 0, 69, 44
1, 22049, Control_c, 0, 64, 84
1, 22064, Control_c, 0, 64, 80
1, 22079, Control_c, 0, 64, 76
1, 22085, Note_on_c, 0, 57, 24
1, 22089, Note_on_c, 0, 60, 23
1, 22094, Control_c, 0, 64, 72
1, 22106, Note_off_c, 0, 71, 27
1, 22109, Control_c, 0, 64, 67
1, 22112, Note_off_c, 0, 52, 27
1, 22115, Note_off_c, 0, 62, 35
1, 22121, Note_off_c, 0, 68, 43
1, 22124, Control_c, 0, 64, 60
1, 22139, Control_c, 0, 64, 44
1, 22153, Control_c, 0, 64, 23
1, 22168, Control_c, 0, 64, 0
1, 22272, Control_c, 0, 64, 41
1, 22287, Control_c, 0, 64, 54
1, 22302, Control_c, 0, 64, 61
1, 22317, Control_c, 0, 64, 64
1, 22332, Control_c, 0, 64, 66
1, 22347, Control_c, 0, 64, 69
1, 22362, Control_c, 0, 64, 73
1, 22377, Control_c, 0, 64, 78
1, 22392, Control_c, 0, 64, 81
1, 22407, Control_c, 0, 64, 83
1, 22421, Control_c, 0, 64, 86
1, 22436, Control_c, 0, 64, 89
1, 22451, Control_c, 0, 64, 90
1, 22466, Control_c, 0, 64, 91
1, 22481, Control_c, 0, 64, 91
1, 22618, Note_off_c, 0, 60, 38
1, 22624, Note_off_c, 0, 69, 37
1, 22651, Control_c, 0, 64, 90
1, 22666, Control_c, 0, 64, 90
1, 22676, Note_off_c, 0, 57, 38
1, 22681, Control_c, 0, 64, 89
1, 22710, Control_c, 0, 64, 89
1, 22725, Control_c, 0, 64, 88
1, 22740, Control_c, 0, 64, 88
1, 22755, Control_c, 0, 64, 87
1, 22769, Control_c, 0, 64, 86
1, 22784, Control_c, 0, 64, 85
1, 22799, Control_c, 0, 64, 83
1, 22813, Control_c, 0, 64, 81
1, 22828, Control_c, 0, 64, 76
1, 22843, Control_c, 0, 64, 70
1, 22858, Control_c, 0, 64, 64
1, 22873, Control_c, 0, 64, 53
1, 22888, Control_c, 0, 64, 17
1, 22902, Control_c, 0, 64, 0
1, 23108, Note_on_c, 0, 72, 39
1, 23125, Control_c, 0, 64, 36
1, 23140, Control_c, 0, 64, 57
1, 23155, Control_c, 0, 64, 63
1, 23170, Control_c, 0, 64, 65
1, 23185, Control_c, 0, 64, 68
1, 23200, Control_c, 0, 64, 76
1, 23215, Control_c, 0, 64, 90
1, 23229, Control_c, 0, 64, 114
1, 23244, Control_c, 0, 64, 127
1, 23463, Note_off_c, 0, 72, 26
1, 23610, Note_on_c, 0, 48, 35
1, 23684, Note_on_c, 0, 71, 43
1, 23696, Control_c, 0, 64, 97
1, 23710, Control_c, 0, 64, 80
1, 23725, Control_c, 0, 64, 69
1, 23734, Note_off_c, 0, 71, 56
1, 23740, Control_c, 0, 64, 60
1, 23755, Control_c, 0, 64, 39
1, 23757, Note_on_c, 0, 72, 44
1, 23769, Control_c, 0, 64, 0
1, 23781, Note_off_c, 0, 72, 58
1, 23784, Control_c, 0, 64, 30
1, 23799, Control_c, 0, 64, 48
1, 23805, Note_on_c, 0, 74, 51
1, 23814, Control_c, 0, 64, 56
1, 23829, Control_c, 0, 64, 62
1, 23844, Control_c, 0, 64, 64
1, 23858, Control_c, 0, 64, 66
1, 23868, Note_on_c, 0, 72, 52
1, 23869, Note_off_c, 0, 74, 59
1, 23873, Control_c, 0, 64, 68
1, 23888, Control_c, 0, 64, 70
1, 23903, Control_c, 0, 64, 73
1, 23918, Control_c, 0, 64, 77
1, 23933, Control_c, 0, 64, 81
1, 23948, Control_c, 0, 64, 86
1, 23963, Control_c, 0, 64, 91
1, 23978, Control_c, 0, 64, 96
1, 23993, Control_c, 0, 64, 103
1, 24007, Control_c, 0, 64, 112
1, 24030, Control_c, 0, 64, 127
1, 24228, Note_on_c, 0, 52, 35
1, 24230, Note_on_c, 0, 55, 33
1, 24380, Note_off_c, 0, 52, 42
1, 24382, Note_off_c, 0, 55, 45
1, 24414, Note_off_c, 0, 72, 41
1, 24419, Note_on_c, 0, 71, 56
1, 24578, Control_c, 0, 64, 110
1, 24584, Note_on_c, 0, 72, 67
1, 24589, Note_on_c, 0, 52, 44
1, 24592, Control_c, 0, 64, 88
1, 24607, Control_c, 0, 64, 75
1, 24612, Note_on_c, 0, 55, 29
1, 24622, Control_c, 0, 64, 66
1, 24637, Control_c, 0, 64, 56
1, 24652, Control_c, 0, 64, 51
1, 24659, Note_off_c, 0, 71, 59
1, 24666, Control_c, 0, 64, 58
1, 24681, Control_c, 0, 64, 64
1, 24688, Note_off_c, 0, 48, 38
1, 24696, Control_c, 0, 64, 68
1, 24711, Control_c, 0, 64, 75
1, 24726, Control_c, 0, 64, 86
1, 24742, Control_c, 0, 64, 96
1, 24764, Control_c, 0, 64, 103
1, 24779, Control_c, 0, 64, 105
1, 24794, Control_c, 0, 64, 106
1, 24809, Control_c, 0, 64, 107
1, 24838, Control_c, 0, 64, 107
1, 24986, Control_c, 0, 64, 107
1, 24997, Note_on_c, 0, 48, 41
1, 25001, Control_c, 0, 64, 105
1, 25007, Note_on_c, 0, 76, 55
1, 25015, Control_c, 0, 64, 102
1, 25030, Control_c, 0, 64, 97
1, 25045, Control_c, 0, 64, 89
1, 25057, Note_off_c, 0, 52, 33
1, 25060, Control_c, 0, 64, 81
1, 25072, Note_off_c, 0, 55, 31
1, 25075, Control_c, 0, 64, 74
1, 25090, Control_c, 0, 64, 68
1, 25104, Control_c, 0, 64, 63
1, 25119, Control_c, 0, 64, 55
1, 25131, Note_off_c, 0, 72, 59
1, 25134, Control_c, 0, 64, 38
1, 25149, Control_c, 0, 64, 0
1, 25223, Control_c, 0, 64, 15
1, 25238, Control_c, 0, 64, 47
1, 25253, Control_c, 0, 64, 58
1, 25268, Control_c, 0, 64, 63
1, 25283, Control_c, 0, 64, 66
1, 25297, Control_c, 0, 64, 70
1, 25312, Control_c, 0, 64, 77
1, 25327, Control_c, 0, 64, 83
1, 25341, Control_c, 0, 64, 88
1, 25356, Control_c, 0, 64, 93
1, 25371, Control_c, 0, 64, 99
1, 25386, Control_c, 0, 64, 108
1, 25401, Control_c, 0, 64, 127
1, 25469, Note_on_c, 0, 52, 38
1, 25485, Note_on_c, 0, 55, 22
1, 25644, Note_off_c, 0, 55, 41
1, 25647, Note_off_c, 0, 52, 45
1, 25868, Note_on_c, 0, 74, 39
1, 25873, Note_on_c, 0, 52, 34
1, 25876, Note_on_c, 0, 55, 29
1, 25994, Note_on_c, 0, 72, 47
1, 26017, Note_off_c, 0, 76, 31
1, 26039, Note_off_c, 0, 74, 33
1, 26083, Note_on_c, 0, 71, 48
1, 26121, Note_off_c, 0, 72, 36
1, 26134, Note_off_c, 0, 71, 59
1, 26145, Note_on_c, 0, 69, 54
1, 26224, Control_c, 0, 64, 115
1, 26227, Note_off_c, 0, 48, 33
1, 26238, Control_c, 0, 64, 95
1, 26251, Note_on_c, 0, 47, 39
1, 26253, Control_c, 0, 64, 82
1, 26270, Note_off_c, 0, 52, 28
1, 26271, Note_on_c, 0, 67, 53
1, 26276, Control_c, 0, 64, 71
1, 26285, Note_off_c, 0, 55, 35
1, 26291, Control_c, 0, 64, 64
1, 26298, Note_off_c, 0, 69, 34
1, 26306, Control_c, 0, 64, 47
1, 26320, Control_c, 0, 64, 0
1, 26425, Control_c, 0, 64, 31
1, 26440, Control_c, 0, 64, 54
1, 26455, Control_c, 0, 64, 63
1, 26469, Control_c, 0, 64, 66
1, 26484, Control_c, 0, 64, 70
1, 26499, Control_c, 0, 64, 75
1, 26514, Control_c, 0, 64, 83
1, 26529, Control_c, 0, 64, 90
1, 26543, Control_c, 0, 64, 96
1, 26558, Control_c, 0, 64, 102
1, 26573, Control_c, 0, 64, 107
1, 26587, Control_c, 0, 64, 116
1, 26602, Control_c, 0, 64, 127
1, 26696, Note_on_c, 0, 55, 22
1, 26705, Note_on_c, 0, 50, 32
1, 26712, Note_on_c, 0, 53, 31
1, 26781, Note_off_c, 0, 67, 38
1, 26800, Note_on_c, 0, 69, 48
1, 26848, Note_off_c, 0, 69, 60
1, 26858, Note_off_c, 0, 55, 42
1, 26864, Note_off_c, 0, 53, 40
1, 26867, Note_on_c, 0, 67, 46
1, 26872, Note_off_c, 0, 50, 37
1, 26893, Note_off_c, 0, 67, 58
1, 26908, Note_on_c, 0, 66, 56
1, 26943, Note_off_c, 0, 66, 63
1, 26958, Control_c, 0, 64, 121
1, 26970, Note_on_c, 0, 67, 56
1, 26973, Control_c, 0, 64, 108
1, 26987, Control_c, 0, 64, 99
1, 27002, Control_c, 0, 64, 89
1, 27024, Control_c, 0, 64, 77
1, 27039, Control_c, 0, 64, 65
1, 27054, Control_c, 0, 64, 51
1, 27062, Note_on_c, 0, 71, 47
1, 27069, Control_c, 0, 64, 0
1, 27079, Note_on_c, 0, 55, 22
1, 27088, Note_on_c, 0, 53, 17
1, 27121, Note_on_c, 0, 50, 10
1, 27124, Note_off_c, 0, 67, 36
1, 27128, Control_c, 0, 64, 33
1, 27144, Control_c, 0, 64, 49
1, 27159, Control_c, 0, 64, 60
1, 27173, Control_c, 0, 64, 64
1, 27188, Control_c, 0, 64, 67
1, 27203, Control_c, 0, 64, 70
1, 27218, Control_c, 0, 64, 73
1, 27222, Note_off_c, 0, 47, 36
1, 27233, Control_c, 0, 64, 75
1, 27248, Control_c, 0, 64, 76
1, 27275, Note_on_c, 0, 69, 46
1, 27330, Note_off_c, 0, 71, 36
1, 27410, Control_c, 0, 64, 75
1, 27425, Control_c, 0, 64, 74
1, 27429, Note_off_c, 0, 55, 34
1, 27440, Control_c, 0, 64, 72
1, 27455, Control_c, 0, 64, 70
1, 27469, Note_on_c, 0, 48, 37
1, 27470, Control_c, 0, 64, 68
1, 27471, Note_on_c, 0, 67, 45
1, 27484, Control_c, 0, 64, 65
1, 27493, Note_off_c, 0, 69, 34
1, 27497, Note_off_c, 0, 53, 29
1, 27499, Control_c, 0, 64, 61
1, 27509, Note_off_c, 0, 50, 29
1, 27514, Control_c, 0, 64, 53
1, 27529, Control_c, 0, 64, 43
1, 27543, Control_c, 0, 64, 12
1, 27558, Control_c, 0, 64, 0
1, 27692, Control_c, 0, 64, 45
1, 27707, Control_c, 0, 64, 56
1, 27722, Control_c, 0, 64, 61
1, 27736, Control_c, 0, 64, 64
1, 27751, Control_c, 0, 64, 66
1, 27773, Control_c, 0, 64, 69
1, 27781, Note_off_c, 0, 67, 37
1, 27788, Control_c, 0, 64, 73
1, 27803, Control_c, 0, 64, 77
1, 27817, Control_c, 0, 64, 80
1, 27832, Control_c, 0, 64, 83
1, 27847, Control_c, 0, 64, 84
1, 27862, Control_c, 0, 64, 86
1, 27877, Note_on_c, 0, 52, 40
1, 27877, Control_c, 0, 64, 87
1, 27886, Note_on_c, 0, 55, 30
1, 27892, Control_c, 0, 64, 87
1, 27907, Control_c, 0, 64, 88
1, 27921, Control_c, 0, 64, 88
1, 28032, Note_off_c, 0, 55, 44
1, 28052, Note_off_c, 0, 52, 45
1, 28174, Control_c, 0, 64, 88
1, 28189, Control_c, 0, 64, 86
1, 28204, Control_c, 0, 64, 82
1, 28219, Control_c, 0, 64, 75
1, 28233, Control_c, 0, 64, 66
1, 28248, Control_c, 0, 64, 59
1, 28261, Note_on_c, 0, 64, 45
1, 28263, Control_c, 0, 64, 57
1, 28264, Note_on_c, 0, 52, 38
1, 28272, Note_on_c, 0, 55, 31
1, 28278, Control_c, 0, 64, 62
1, 28291, Note_off_c, 0, 64, 61
1, 28293, Control_c, 0, 64, 65
1, 28307, Control_c, 0, 64, 68
1, 28308, Note_on_c, 0, 65, 58
1, 28322, Control_c, 0, 64, 71
1, 28337, Control_c, 0, 64, 73
1, 28340, Note_off_c, 0, 65, 64
1, 28351, Control_c, 0, 64, 74
1, 28366, Control_c, 0, 64, 75
1, 28372, Note_on_c, 0, 64, 43
1, 28388, Note_off_c, 0, 48, 39
1, 28404, Note_on_c, 0, 65, 61
1, 28426, Note_off_c, 0, 64, 0
1, 28430, Note_off_c, 0, 65, 66
1, 28436, Note_on_c, 0, 64, 60
1, 28437, Note_off_c, 0, 52, 40
1, 28455, Control_c, 0, 64, 74
1, 28470, Control_c, 0, 64, 73
1, 28472, Note_off_c, 0, 64, 64
1, 28485, Control_c, 0, 64, 72
1, 28500, Control_c, 0, 64, 70
1, 28512, Note_on_c, 0, 62, 41
1, 28522, Control_c, 0, 64, 68
1, 28537, Control_c, 0, 64, 66
1, 28552, Control_c, 0, 64, 64
1, 28558, Note_off_c, 0, 62, 44
1, 28559, Note_on_c, 0, 64, 60
1, 28566, Control_c, 0, 64, 62
1, 28581, Control_c, 0, 64, 60
1, 28596, Control_c, 0, 64, 54
1, 28611, Control_c, 0, 64, 38
1, 28626, Control_c, 0, 64, 0
1, 28643, Note_on_c, 0, 67, 65
1, 28663, Note_on_c, 0, 48, 34
1, 28665, Note_on_c, 0, 52, 37
1, 28680, Note_off_c, 0, 64, 61
1, 28729, Control_c, 0, 64, 48
1, 28745, Control_c, 0, 64, 61
1, 28756, Note_off_c, 0, 67, 63
1, 28760, Control_c, 0, 64, 65
1, 28775, Control_c, 0, 64, 66
1, 28780, Note_off_c, 0, 55, 37
1, 28804, Control_c, 0, 64, 65
1, 28819, Control_c, 0, 64, 63
1, 28834, Control_c, 0, 64, 60
1, 28849, Control_c, 0, 64, 54
1, 28863, Control_c, 0, 64, 42
1, 28878, Control_c, 0, 64, 0
1, 29060, Note_on_c, 0, 72, 72
1, 29163, Note_off_c, 0, 72, 64
1, 29165, Note_off_c, 0, 48, 35
1, 29194, Note_off_c, 0, 52, 35
1, 29446, Note_on_c, 0, 76, 72
1, 29536, Note_off_c, 0, 76, 64
1, 29909, Control_c, 0, 64, 17
1, 29924, Control_c, 0, 64, 35
1, 29929, Note_on_c, 0, 79, 58
1, 29938, Control_c, 0, 64, 42
1, 29953, Control_c, 0, 64, 47
1, 29968, Control_c, 0, 64, 52
1, 29983, Control_c, 0, 64, 55
1, 29998, Control_c, 0, 64, 58
1, 30020, Control_c, 0, 64, 61
1, 30035, Control_c, 0, 64, 63
1, 30050, Control_c, 0, 64, 64
1, 30065, Control_c, 0, 64, 65
1, 30080, Control_c, 0, 64, 67
1, 30094, Control_c, 0, 64, 70
1, 30109, Control_c, 0, 64, 75
1, 30124, Control_c, 0, 64, 79
1, 30138, Control_c, 0, 64, 84
1, 30153, Control_c, 0, 64, 88
1, 30168, Control_c, 0, 64, 94
1, 30183, Control_c, 0, 64, 103
1, 30198, Control_c, 0, 64, 127
1, 30790, Note_on_c, 0, 77, 34
1, 30895, Note_on_c, 0, 76, 43
1, 30899, Note_off_c, 0, 79, 33
1, 30940, Note_off_c, 0, 77, 39
1, 30974, Note_on_c, 0, 74, 43
1, 30980, Note_off_c, 0, 76, 60
1, 31016, Note_off_c, 0, 74, 64
1, 31021, Control_c, 0, 64, 116
1, 31035, Control_c, 0, 64, 110
1, 31043, Note_on_c, 0, 72, 51
1, 31050, Control_c, 0, 64, 103
1, 31065, Control_c, 0, 64, 97
1, 31079, Control_c, 0, 64, 92
1, 31094, Note_off_c, 0, 72, 52
1, 31094, Control_c, 0, 64, 87
1, 31109, Control_c, 0, 64, 83
1, 31124, Control_c, 0, 64, 78
1, 31133, Note_on_c, 0, 71, 49
1, 31140, Control_c, 0, 64, 73
1, 31155, Control_c, 0, 64, 70
1, 31170, Control_c, 0, 64, 67
1, 31179, Note_off_c, 0, 71, 60
1, 31184, Control_c, 0, 64, 65
1, 31196, Note_on_c, 0, 69, 54
1, 31199, Control_c, 0, 64, 63
1, 31214, Control_c, 0, 64, 58
1, 31229, Control_c, 0, 64, 46
1, 31244, Control_c, 0, 64, 0
1, 31281, Note_on_c, 0, 43, 35
1, 31283, Note_on_c, 0, 47, 27
1, 31303, Note_on_c, 0, 67, 47
1, 31369, Note_off_c, 0, 69, 42
1, 31542, Note_off_c, 0, 43, 44
1, 31561, Note_off_c, 0, 47, 53
1, 31567, Note_off_c, 0, 67, 47
1, 31704, Note_on_c, 0, 66, 47
1, 31722, Note_on_c, 0, 48, 25
1, 31726, Note_on_c, 0, 45, 27
1, 31886, Control_c, 0, 64, 17
1, 31901, Control_c, 0, 64, 48
1, 31916, Control_c, 0, 64, 53
1, 31932, Control_c, 0, 64, 55
1, 31961, Control_c, 0, 64, 54
1, 31964, Note_off_c, 0, 45, 53
1, 31966, Note_off_c, 0, 66, 52
1, 31976, Control_c, 0, 64, 52
1, 31986, Note_off_c, 0, 48, 40
1, 31991, Control_c, 0, 64, 49
1, 32005, Control_c, 0, 64, 46
1, 32020, Control_c, 0, 64, 38
1, 32035, Control_c, 0, 64, 0
1, 32122, Note_on_c, 0, 65, 39
1, 32136, Note_on_c, 0, 47, 25
1, 32144, Note_on_c, 0, 50, 23
1, 32398, Note_off_c, 0, 50, 38
1, 32411, Note_off_c, 0, 47, 41
1, 32427, Note_off_c, 0, 65, 41
1, 32641, Note_on_c, 0, 48, 27
1, 32643, Note_on_c, 0, 64, 40
1, 32680, Control_c, 0, 64, 19
1, 32695, Control_c, 0, 64, 33
1, 32710, Control_c, 0, 64, 41
1, 32726, Control_c, 0, 64, 48
1, 32741, Control_c, 0, 64, 54
1, 32755, Control_c, 0, 64, 59
1, 32770, Control_c, 0, 64, 63
1, 32785, Control_c, 0, 64, 64
1, 32800, Control_c, 0, 64, 66
1, 32815, Control_c, 0, 64, 68
1, 32829, Control_c, 0, 64, 72
1, 32844, Control_c, 0, 64, 76
1, 32859, Control_c, 0, 64, 81
1, 32870, Note_off_c, 0, 48, 36
1, 32874, Control_c, 0, 64, 85
1, 32889, Control_c, 0, 64, 89
1, 32903, Control_c, 0, 64, 94
1, 32918, Control_c, 0, 64, 101
1, 32933, Control_c, 0, 64, 110
1, 32947, Control_c, 0, 64, 119
1, 32962, Control_c, 0, 64, 127
1, 33090, Note_off_c, 0, 64, 39
1, 33341, Control_c, 0, 64, 118
1, 33355, Control_c, 0, 64, 112
1, 33370, Control_c, 0, 64, 107
1, 33385, Control_c, 0, 64, 102
1, 33400, Control_c, 0, 64, 96
1, 33415, Control_c, 0, 64, 90
1, 33429, Control_c, 0, 64, 85
1, 33444, Control_c, 0, 64, 82
1, 33459, Control_c, 0, 64, 80
1, 33473, Control_c, 0, 64, 77
1, 33488, Control_c, 0, 64, 72
1, 33503, Control_c, 0, 64, 68
1, 33518, Control_c, 0, 64, 66
1, 33534, Control_c, 0, 64, 65
1, 33549, Control_c, 0, 64, 63
1, 33564, Control_c, 0, 64, 59
1, 33578, Control_c, 0, 64, 45
1, 33593, Control_c, 0, 64, 0
1, 33638, Control_c, 0, 64, 19
1, 33652, Control_c, 0, 64, 40
1, 33667, Control_c, 0, 64, 49
1, 33682, Control_c, 0, 64, 55
1, 33697, Control_c, 0, 64, 60
1, 33710, Note_on_c, 0, 76, 39
1, 33712, Control_c, 0, 64, 63
1, 33726, Control_c, 0, 64, 66
1, 33741, Control_c, 0, 64, 68
1, 33764, Control_c, 0, 64, 71
1, 33778, Control_c, 0, 64, 75
1, 33793, Control_c, 0, 64, 81
1, 33808, Control_c, 0, 64, 87
1, 33823, Control_c, 0, 64, 95
1, 33838, Control_c, 0, 64, 118
1, 33852, Control_c, 0, 64, 127
1, 33888, Note_off_c, 0, 76, 42
1, 34199, Note_on_c, 0, 53, 26
1, 34202, Note_on_c, 0, 76, 49
1, 34643, Note_on_c, 0, 74, 50
1, 34669, Note_on_c, 0, 57, 27
1, 34670, Note_on_c, 0, 60, 25
1, 34800, Note_off_c, 0, 76, 35
1, 34830, Note_off_c, 0, 74, 57
1, 34832, Note_off_c, 0, 60, 40
1, 34838, Note_off_c, 0, 57, 40
1, 35033, Note_on_c, 0, 74, 55
1, 35046, Note_on_c, 0, 57, 36
1, 35057, Note_on_c, 0, 60, 30
1, 35156, Note_off_c, 0, 74, 60
1, 35206, Note_off_c, 0, 53, 41
1, 35472, Note_on_c, 0, 74, 53
1, 35481, Note_on_c, 0, 53, 32
1, 35513, Control_c, 0, 64, 115
1, 35528, Control_c, 0, 64, 97
1, 35543, Control_c, 0, 64, 84
1, 35552, Note_off_c, 0, 60, 31
1, 35557, Control_c, 0, 64, 75
1, 35572, Control_c, 0, 64, 69
1, 35585, Note_off_c, 0, 57, 35
1, 35587, Control_c, 0, 64, 63
1, 35602, Control_c, 0, 64, 55
1, 35617, Control_c, 0, 64, 34
1, 35631, Control_c, 0, 64, 0
1, 35705, Control_c, 0, 64, 32
1, 35720, Control_c, 0, 64, 51
1, 35735, Control_c, 0, 64, 59
1, 35749, Control_c, 0, 64, 63
1, 35764, Control_c, 0, 64, 66
1, 35779, Control_c, 0, 64, 71
1, 35794, Control_c, 0, 64, 78
1, 35809, Control_c, 0, 64, 82
1, 35824, Control_c, 0, 64, 85
1, 35839, Control_c, 0, 64, 88
1, 35854, Control_c, 0, 64, 91
1, 35868, Control_c, 0, 64, 92
1, 35868, Note_on_c, 0, 57, 37
1, 35883, Control_c, 0, 64, 94
1, 35884, Note_on_c, 0, 60, 35
1, 35898, Control_c, 0, 64, 95
1, 35967, Note_off_c, 0, 74, 61
1, 36016, Note_on_c, 0, 76, 52
1, 36026, Note_off_c, 0, 60, 34
1, 36041, Note_off_c, 0, 57, 38
1, 36053, Note_off_c, 0, 76, 64
1, 36080, Note_on_c, 0, 74, 58
1, 36107, Note_off_c, 0, 74, 66
1, 36130, Note_on_c, 0, 73, 57
1, 36178, Note_on_c, 0, 74, 53
1, 36178, Note_off_c, 0, 73, 51
1, 36202, Control_c, 0, 64, 93
1, 36217, Control_c, 0, 64, 91
1, 36232, Control_c, 0, 64, 90
1, 36247, Control_c, 0, 64, 87
1, 36262, Control_c, 0, 64, 84
1, 36277, Control_c, 0, 64, 81
1, 36292, Control_c, 0, 64, 77
1, 36296, Note_on_c, 0, 60, 36
1, 36306, Control_c, 0, 64, 71
1, 36307, Note_on_c, 0, 57, 33
1, 36321, Control_c, 0, 64, 67
1, 36322, Note_on_c, 0, 76, 57
1, 36331, Note_off_c, 0, 74, 51
1, 36336, Control_c, 0, 64, 65
1, 36351, Control_c, 0, 64, 63
1, 36366, Control_c, 0, 64, 60
1, 36380, Control_c, 0, 64, 57
1, 36395, Control_c, 0, 64, 51
1, 36410, Control_c, 0, 64, 33
1, 36425, Control_c, 0, 64, 0
1, 36528, Control_c, 0, 64, 44
1, 36543, Control_c, 0, 64, 57
1, 36558, Control_c, 0, 64, 62
1, 36563, Note_on_c, 0, 72, 46
1, 36572, Control_c, 0, 64, 64
1, 36587, Control_c, 0, 64, 67
1, 36602, Control_c, 0, 64, 69
1, 36617, Control_c, 0, 64, 71
1, 36632, Control_c, 0, 64, 76
1, 36647, Control_c, 0, 64, 80
1, 36661, Control_c, 0, 64, 81
1, 36802, Note_off_c, 0, 76, 47
1, 36819, Note_on_c, 0, 69, 48
1, 36833, Control_c, 0, 64, 80
1, 36848, Control_c, 0, 64, 79
1, 36855, Note_on_c, 0, 54, 21
1, 36863, Control_c, 0, 64, 76
1, 36864, Note_off_c, 0, 60, 28
1, 36877, Control_c, 0, 64, 71
1, 36892, Control_c, 0, 64, 67
1, 36907, Control_c, 0, 64, 64
1, 36921, Control_c, 0, 64, 60
1, 36936, Control_c, 0, 64, 54
1, 36947, Note_off_c, 0, 53, 35
1, 36951, Control_c, 0, 64, 43
1, 36953, Note_off_c, 0, 57, 34
1, 36966, Control_c, 0, 64, 20
1, 36981, Control_c, 0, 64, 0
1, 37003, Note_off_c, 0, 72, 49
1, 37115, Control_c, 0, 64, 38
1, 37129, Control_c, 0, 64, 52
1, 37144, Control_c, 0, 64, 59
1, 37159, Control_c, 0, 64, 65
1, 37174, Control_c, 0, 64, 70
1, 37189, Control_c, 0, 64, 74
1, 37203, Control_c, 0, 64, 79
1, 37218, Control_c, 0, 64, 84
1, 37233, Control_c, 0, 64, 91
1, 37234, Note_on_c, 0, 62, 42
1, 37234, Note_on_c, 0, 60, 33
1, 37243, Note_on_c, 0, 57, 32
1, 37247, Control_c, 0, 64, 100
1, 37262, Control_c, 0, 64, 114
1, 37277, Control_c, 0, 64, 127
1, 37436, Note_off_c, 0, 57, 40
1, 37438, Note_off_c, 0, 60, 40
1, 37450, Note_off_c, 0, 62, 42
1, 37645, Note_on_c, 0, 57, 34
1, 37650, Note_on_c, 0, 60, 35
1, 37652, Note_on_c, 0, 62, 44
1, 37766, Note_off_c, 0, 54, 41
1, 37997, Control_c, 0, 64, 109
1, 38012, Control_c, 0, 64, 94
1, 38026, Control_c, 0, 64, 81
1, 38030, Note_on_c, 0, 54, 36
1, 38041, Control_c, 0, 64, 72
1, 38056, Control_c, 0, 64, 64
1, 38070, Control_c, 0, 64, 45
1, 38085, Control_c, 0, 64, 0
1, 38086, Note_off_c, 0, 62, 36
1, 38115, Control_c, 0, 64, 18
1, 38119, Note_off_c, 0, 69, 52
1, 38130, Control_c, 0, 64, 42
1, 38132, Note_on_c, 0, 71, 48
1, 38136, Note_off_c, 0, 60, 33
1, 38144, Control_c, 0, 64, 54
1, 38150, Note_off_c, 0, 57, 38
1, 38159, Control_c, 0, 64, 62
1, 38174, Control_c, 0, 64, 68
1, 38189, Control_c, 0, 64, 75
1, 38202, Note_off_c, 0, 71, 57
1, 38204, Control_c, 0, 64, 80
1, 38214, Note_on_c, 0, 69, 60
1, 38218, Control_c, 0, 64, 82
1, 38233, Control_c, 0, 64, 83
1, 38262, Note_off_c, 0, 69, 59
1, 38292, Note_on_c, 0, 68, 56
1, 38361, Note_off_c, 0, 68, 62
1, 38361, Control_c, 0, 64, 81
1, 38373, Note_on_c, 0, 69, 59
1, 38375, Control_c, 0, 64, 77
1, 38390, Control_c, 0, 64, 69
1, 38393, Note_on_c, 0, 57, 38
1, 38394, Note_on_c, 0, 60, 31
1, 38400, Note_on_c, 0, 62, 31
1, 38405, Control_c, 0, 64, 60
1, 38420, Control_c, 0, 64, 0
1, 38474, Note_off_c, 0, 69, 59
1, 38477, Note_on_c, 0, 71, 56
1, 38479, Control_c, 0, 64, 45
1, 38493, Control_c, 0, 64, 58
1, 38508, Control_c, 0, 64, 64
1, 38523, Control_c, 0, 64, 67
1, 38538, Control_c, 0, 64, 69
1, 38544, Note_off_c, 0, 71, 63
1, 38553, Control_c, 0, 64, 70
1, 38560, Note_on_c, 0, 72, 63
1, 38566, Note_off_c, 0, 57, 52
1, 38582, Control_c, 0, 64, 71
1, 38584, Note_off_c, 0, 60, 40
1, 38586, Note_off_c, 0, 62, 40
1, 38621, Note_off_c, 0, 72, 63
1, 38623, Note_on_c, 0, 71, 66
1, 38671, Control_c, 0, 64, 70
1, 38686, Control_c, 0, 64, 68
1, 38700, Control_c, 0, 64, 64
1, 38715, Control_c, 0, 64, 58
1, 38718, Note_on_c, 0, 74, 64
1, 38728, Note_off_c, 0, 71, 54
1, 38730, Control_c, 0, 64, 33
1, 38745, Control_c, 0, 64, 0
1, 38746, Note_on_c, 0, 57, 31
1, 38748, Note_on_c, 0, 60, 29
1, 38756, Note_on_c, 0, 62, 33
1, 38811, Note_on_c, 0, 72, 70
1, 38834, Control_c, 0, 64, 50
1, 38849, Control_c, 0, 64, 63
1, 38856, Note_off_c, 0, 54, 48
1, 38864, Control_c, 0, 64, 66
1, 38872, Note_off_c, 0, 57, 55
1, 38879, Note_off_c, 0, 74, 62
1, 38879, Control_c, 0, 64, 67
1, 38889, Note_on_c, 0, 71, 70
1, 38922, Note_off_c, 0, 72, 66
1, 38953, Control_c, 0, 64, 67
1, 38960, Note_on_c, 0, 69, 59
1, 38967, Control_c, 0, 64, 65
1, 38982, Control_c, 0, 64, 62
1, 38995, Note_off_c, 0, 71, 62
1, 39004, Control_c, 0, 64, 56
1, 39019, Control_c, 0, 64, 43
1, 39034, Control_c, 0, 64, 0
1, 39088, Note_on_c, 0, 67, 55
1, 39103, Note_off_c, 0, 69, 63
1, 39104, Note_on_c, 0, 55, 32
1, 39121, Note_off_c, 0, 62, 39
1, 39147, Note_off_c, 0, 60, 41
1, 39243, Control_c, 0, 64, 38
1, 39258, Control_c, 0, 64, 60
1, 39272, Control_c, 0, 64, 65
1, 39287, Control_c, 0, 64, 66
1, 39302, Control_c, 0, 64, 69
1, 39313, Note_off_c, 0, 67, 35
1, 39317, Control_c, 0, 64, 74
1, 39332, Control_c, 0, 64, 80
1, 39347, Control_c, 0, 64, 84
1, 39362, Control_c, 0, 64, 85
1, 39377, Control_c, 0, 64, 86
1, 39391, Control_c, 0, 64, 86
1, 39406, Control_c, 0, 64, 87
1, 39495, Control_c, 0, 64, 85
1, 39509, Control_c, 0, 64, 83
1, 39524, Control_c, 0, 64, 79
1, 39526, Note_on_c, 0, 79, 57
1, 39539, Control_c, 0, 64, 73
1, 39541, Note_on_c, 0, 64, 30
1, 39554, Control_c, 0, 64, 65
1, 39555, Note_on_c, 0, 60, 25
1, 39569, Control_c, 0, 64, 54
1, 39584, Control_c, 0, 64, 28
1, 39598, Control_c, 0, 64, 18
1, 39613, Control_c, 0, 64, 41
1, 39628, Control_c, 0, 64, 55
1, 39642, Control_c, 0, 64, 62
1, 39657, Control_c, 0, 64, 68
1, 39672, Control_c, 0, 64, 75
1, 39687, Control_c, 0, 64, 84
1, 39702, Control_c, 0, 64, 91
1, 39717, Control_c, 0, 64, 98
1, 39732, Control_c, 0, 64, 110
1, 39754, Control_c, 0, 64, 127
1, 39785, Note_off_c, 0, 64, 41
1, 39800, Note_off_c, 0, 79, 53
1, 39803, Note_off_c, 0, 60, 40
1, 39927, Note_on_c, 0, 79, 67
1, 39956, Note_on_c, 0, 64, 43
1, 39964, Note_on_c, 0, 60, 35
1, 39977, Control_c, 0, 64, 86
1, 39992, Control_c, 0, 64, 70
1, 40007, Control_c, 0, 64, 64
1, 40021, Control_c, 0, 64, 65
1, 40036, Control_c, 0, 64, 72
1, 40051, Control_c, 0, 64, 81
1, 40058, Note_off_c, 0, 55, 40
1, 40065, Control_c, 0, 64, 92
1, 40080, Control_c, 0, 64, 101
1, 40095, Control_c, 0, 64, 112
1, 40110, Control_c, 0, 64, 127
1, 40164, Note_off_c, 0, 79, 63
1, 40319, Note_on_c, 0, 79, 73
1, 40333, Note_on_c, 0, 55, 42
1, 40346, Control_c, 0, 64, 125
1, 40361, Control_c, 0, 64, 99
1, 40366, Note_off_c, 0, 60, 36
1, 40376, Control_c, 0, 64, 82
1, 40391, Control_c, 0, 64, 67
1, 40406, Control_c, 0, 64, 51
1, 40413, Note_off_c, 0, 64, 43
1, 40420, Control_c, 0, 64, 0
1, 40480, Control_c, 0, 64, 52
1, 40502, Control_c, 0, 64, 63
1, 40517, Control_c, 0, 64, 68
1, 40532, Control_c, 0, 64, 75
1, 40546, Control_c, 0, 64, 87
1, 40561, Control_c, 0, 64, 99
1, 40576, Control_c, 0, 64, 114
1, 40591, Control_c, 0, 64, 127
1, 40624, Note_off_c, 0, 79, 59
1, 40732, Note_on_c, 0, 79, 71
1, 40745, Note_on_c, 0, 59, 36
1, 40745, Note_on_c, 0, 62, 40
1, 40784, Control_c, 0, 64, 104
1, 40799, Control_c, 0, 64, 85
1, 40814, Control_c, 0, 64, 68
1, 40829, Control_c, 0, 64, 51
1, 40844, Control_c, 0, 64, 0
1, 40859, Control_c, 0, 64, 30
1, 40873, Control_c, 0, 64, 46
1, 40888, Control_c, 0, 64, 58
1, 40903, Control_c, 0, 64, 65
1, 40918, Control_c, 0, 64, 72
1, 40933, Control_c, 0, 64, 83
1, 40948, Control_c, 0, 64, 93
1, 40962, Control_c, 0, 64, 98
1, 40977, Control_c, 0, 64, 103
1, 40991, Note_off_c, 0, 59, 42
1, 40992, Control_c, 0, 64, 108
1, 41002, Note_off_c, 0, 62, 42
1, 41007, Control_c, 0, 64, 110
1, 41022, Control_c, 0, 64, 111
1, 41036, Control_c, 0, 64, 112
1, 41043, Note_off_c, 0, 79, 56
1, 41155, Control_c, 0, 64, 108
1, 41166, Note_on_c, 0, 79, 63
1, 41169, Control_c, 0, 64, 99
1, 41184, Control_c, 0, 64, 87
1, 41199, Control_c, 0, 64, 75
1, 41203, Note_on_c, 0, 59, 32
1, 41210, Note_on_c, 0, 62, 34
1, 41214, Control_c, 0, 64, 65
1, 41229, Control_c, 0, 64, 52
1, 41251, Control_c, 0, 64, 34
1, 41281, Control_c, 0, 64, 48
1, 41295, Control_c, 0, 64, 60
1, 41310, Control_c, 0, 64, 66
1, 41325, Control_c, 0, 64, 72
1, 41340, Control_c, 0, 64, 79
1, 41355, Control_c, 0, 64, 84
1, 41369, Control_c, 0, 64, 88
1, 41384, Control_c, 0, 64, 90
1, 41393, Note_off_c, 0, 79, 50
1, 41404, Note_off_c, 0, 59, 40
1, 41413, Control_c, 0, 64, 90
1, 41427, Note_off_c, 0, 62, 39
1, 41428, Control_c, 0, 64, 91
1, 41443, Control_c, 0, 64, 93
1, 41458, Control_c, 0, 64, 94
1, 41652, Control_c, 0, 64, 93
1, 41666, Control_c, 0, 64, 93
1, 41681, Control_c, 0, 64, 92
1, 41696, Control_c, 0, 64, 91
1, 41711, Control_c, 0, 64, 89
1, 41726, Control_c, 0, 64, 87
1, 41741, Control_c, 0, 64, 86
1, 41756, Control_c, 0, 64, 84
1, 41771, Control_c, 0, 64, 83
1, 41785, Control_c, 0, 64, 79
1, 41800, Control_c, 0, 64, 76
1, 41802, Note_on_c, 0, 77, 50
1, 41812, Note_on_c, 0, 56, 26
1, 41815, Control_c, 0, 64, 73
1, 41830, Control_c, 0, 64, 71
1, 41842, Note_on_c, 0, 59, 25
1, 41845, Control_c, 0, 64, 68
1, 41846, Note_on_c, 0, 62, 18
1, 41859, Control_c, 0, 64, 66
1, 41874, Control_c, 0, 64, 63
1, 41889, Control_c, 0, 64, 62
1, 41904, Control_c, 0, 64, 60
1, 41905, Note_off_c, 0, 55, 33
1, 41918, Control_c, 0, 64, 59
1, 41933, Control_c, 0, 64, 56
1, 41948, Control_c, 0, 64, 50
1, 41963, Control_c, 0, 64, 39
1, 41978, Control_c, 0, 64, 14
1, 42000, Control_c, 0, 64, 0
1, 42178, Control_c, 0, 64, 27
1, 42192, Control_c, 0, 64, 46
1, 42207, Control_c, 0, 64, 54
1, 42222, Control_c, 0, 64, 60
1, 42236, Control_c, 0, 64, 64
1, 42251, Control_c, 0, 64, 67
1, 42266, Control_c, 0, 64, 70
1, 42281, Control_c, 0, 64, 74
1, 42296, Control_c, 0, 64, 78
1, 42312, Control_c, 0, 64, 83
1, 42327, Control_c, 0, 64, 88
1, 42341, Control_c, 0, 64, 94
1, 42356, Control_c, 0, 64, 100
1, 42371, Control_c, 0, 64, 107
1, 42386, Control_c, 0, 64, 112
1, 42401, Control_c, 0, 64, 114
1, 42415, Control_c, 0, 64, 115
1, 42644, Note_off_c, 0, 62, 38
1, 42817, Note_off_c, 0, 77, 55
1, 42863, Note_on_c, 0, 79, 35
1, 42867, Control_c, 0, 64, 113
1, 42882, Control_c, 0, 64, 111
1, 42897, Control_c, 0, 64, 110
1, 42912, Control_c, 0, 64, 107
1, 42924, Note_off_c, 0, 79, 39
1, 42927, Control_c, 0, 64, 106
1, 42933, Note_on_c, 0, 77, 42
1, 42941, Control_c, 0, 64, 104
1, 42956, Control_c, 0, 64, 102
1, 42971, Control_c, 0, 64, 99
1, 42986, Control_c, 0, 64, 97
1, 43001, Control_c, 0, 64, 94
1, 43015, Control_c, 0, 64, 90
1, 43030, Control_c, 0, 64, 85
1, 43046, Control_c, 0, 64, 79
1, 43060, Control_c, 0, 64, 74
1, 43070, Note_off_c, 0, 77, 34
1, 43075, Control_c, 0, 64, 70
1, 43078, Note_on_c, 0, 76, 36
1, 43090, Control_c, 0, 64, 67
1, 43095, Note_on_c, 0, 57, 19
1, 43100, Note_on_c, 0, 60, 22
1, 43104, Note_off_c, 0, 59, 33
1, 43106, Control_c, 0, 64, 66
1, 43121, Control_c, 0, 64, 64
1, 43136, Control_c, 0, 64, 63
1, 43151, Control_c, 0, 64, 60
1, 43165, Control_c, 0, 64, 56
1, 43175, Note_off_c, 0, 56, 22
1, 43180, Control_c, 0, 64, 51
1, 43195, Control_c, 0, 64, 40
1, 43210, Control_c, 0, 64, 12
1, 43225, Control_c, 0, 64, 0
1, 43357, Control_c, 0, 64, 19
1, 43372, Control_c, 0, 64, 46
1, 43387, Control_c, 0, 64, 57
1, 43402, Control_c, 0, 64, 62
1, 43417, Control_c, 0, 64, 64
1, 43431, Control_c, 0, 64, 65
1, 43446, Control_c, 0, 64, 67
1, 43461, Control_c, 0, 64, 68
1, 43476, Control_c, 0, 64, 69
1, 43498, Control_c, 0, 64, 70
1, 43513, Control_c, 0, 64, 71
1, 43528, Control_c, 0, 64, 71
1, 43543, Control_c, 0, 64, 72
1, 43592, Note_off_c, 0, 76, 40
1, 43676, Control_c, 0, 64, 71
1, 43681, Note_off_c, 0, 57, 18
1, 43720, Control_c, 0, 64, 71
1, 43735, Control_c, 0, 64, 70
1, 43780, Control_c, 0, 64, 70
1, 43795, Control_c, 0, 64, 69
1, 43809, Control_c, 0, 64, 69
1, 43824, Control_c, 0, 64, 68
1, 43839, Control_c, 0, 64, 67
1, 43854, Control_c, 0, 64, 66
1, 43869, Control_c, 0, 64, 66
1, 43883, Control_c, 0, 64, 65
1, 43893, Note_off_c, 0, 60, 29
1, 43898, Control_c, 0, 64, 64
1, 43914, Control_c, 0, 64, 63
1, 43929, Control_c, 0, 64, 63
1, 43959, Control_c, 0, 64, 62
1, 43974, Control_c, 0, 64, 61
1, 43988, Control_c, 0, 64, 60
1, 44003, Control_c, 0, 64, 57
1, 44018, Control_c, 0, 64, 56
1, 44033, Control_c, 0, 64, 54
1, 44048, Control_c, 0, 64, 50
1, 44062, Control_c, 0, 64, 42
1, 44077, Control_c, 0, 64, 28
1, 44084, Note_on_c, 0, 76, 37
1, 44092, Control_c, 0, 64, 0
1, 44151, Control_c, 0, 64, 28
1, 44166, Control_c, 0, 64, 50
1, 44180, Control_c, 0, 64, 58
1, 44195, Control_c, 0, 64, 62
1, 44210, Control_c, 0, 64, 64
1, 44225, Control_c, 0, 64, 67
1, 44247, Control_c, 0, 64, 70
1, 44262, Control_c, 0, 64, 75
1, 44277, Control_c, 0, 64, 79
1, 44292, Control_c, 0, 64, 81
1, 44307, Control_c, 0, 64, 83
1, 44336, Control_c, 0, 64, 83
1, 44351, Control_c, 0, 64, 85
1, 44366, Control_c, 0, 64, 86
1, 44390, Note_off_c, 0, 76, 37
1, 44528, Control_c, 0, 64, 85
1, 44542, Control_c, 0, 64, 85
1, 44557, Control_c, 0, 64, 84
1, 44568, Note_on_c, 0, 53, 29
1, 44572, Control_c, 0, 64, 83
1, 44581, Note_on_c, 0, 76, 44
1, 44586, Control_c, 0, 64, 82
1, 44601, Control_c, 0, 64, 80
1, 44616, Control_c, 0, 64, 78
1, 44630, Control_c, 0, 64, 75
1, 44645, Control_c, 0, 64, 73
1, 44660, Control_c, 0, 64, 71
1, 44675, Control_c, 0, 64, 69
1, 44690, Control_c, 0, 64, 66
1, 44706, Control_c, 0, 64, 63
1, 44721, Control_c, 0, 64, 57
1, 44735, Control_c, 0, 64, 50
1, 44750, Control_c, 0, 64, 42
1, 44765, Control_c, 0, 64, 28
1, 44780, Control_c, 0, 64, 0
1, 44809, Control_c, 0, 64, 29
1, 44824, Control_c, 0, 64, 49
1, 44839, Control_c, 0, 64, 56
1, 44853, Control_c, 0, 64, 59
1, 44868, Control_c, 0, 64, 62
1, 44883, Control_c, 0, 64, 63
1, 44898, Control_c, 0, 64, 64
1, 44913, Control_c, 0, 64, 66
1, 44927, Control_c, 0, 64, 68
1, 44942, Control_c, 0, 64, 70
1, 44957, Control_c, 0, 64, 72
1, 44972, Control_c, 0, 64, 74
1, 44995, Control_c, 0, 64, 75
1, 44997, Note_on_c, 0, 74, 47
1, 45009, Control_c, 0, 64, 77
1, 45014, Note_on_c, 0, 57, 27
1, 45015, Note_on_c, 0, 60, 34
1, 45024, Control_c, 0, 64, 79
1, 45039, Control_c, 0, 64, 80
1, 45054, Control_c, 0, 64, 81
1, 45068, Control_c, 0, 64, 83
1, 45083, Control_c, 0, 64, 84
1, 45094, Note_off_c, 0, 76, 29
1, 45098, Control_c, 0, 64, 85
1, 45142, Control_c, 0, 64, 85
1, 45157, Control_c, 0, 64, 86
1, 45195, Note_off_c, 0, 60, 35
1, 45196, Note_off_c, 0, 57, 38
1, 45196, Note_off_c, 0, 74, 38
1, 45306, Control_c, 0, 64, 83
1, 45321, Control_c, 0, 64, 79
1, 45335, Control_c, 0, 64, 72
1, 45350, Control_c, 0, 64, 64
1, 45365, Control_c, 0, 64, 57
1, 45379, Control_c, 0, 64, 61
1, 45389, Note_on_c, 0, 74, 54
1, 45393, Note_on_c, 0, 60, 38
1, 45394, Control_c, 0, 64, 65
1, 45401, Note_on_c, 0, 57, 30
1, 45409, Control_c, 0, 64, 68
1, 45424, Control_c, 0, 64, 71
1, 45439, Control_c, 0, 64, 76
1, 45453, Control_c, 0, 64, 80
1, 45468, Control_c, 0, 64, 83
1, 45477, Note_off_c, 0, 74, 61
1, 45483, Control_c, 0, 64, 85
1, 45504, Note_off_c, 0, 53, 52
1, 45706, Control_c, 0, 64, 84
1, 45721, Control_c, 0, 64, 83
1, 45744, Control_c, 0, 64, 80
1, 45758, Control_c, 0, 64, 76
1, 45773, Control_c, 0, 64, 71
1, 45788, Control_c, 0, 64, 66
1, 45791, Note_on_c, 0, 74, 50
1, 45795, Note_on_c, 0, 53, 32
1, 45803, Control_c, 0, 64, 60
1, 45817, Control_c, 0, 64, 50
1, 45820, Note_off_c, 0, 57, 29
1, 45832, Control_c, 0, 64, 36
1, 45847, Control_c, 0, 64, 0
1, 45877, Control_c, 0, 64, 40
1, 45891, Control_c, 0, 64, 57
1, 45892, Note_off_c, 0, 60, 33
1, 45906, Control_c, 0, 64, 63
1, 45921, Control_c, 0, 64, 65
1, 45936, Control_c, 0, 64, 66
1, 45951, Control_c, 0, 64, 68
1, 45959, Note_off_c, 0, 74, 64
1, 45965, Control_c, 0, 64, 69
1, 46000, Note_on_c, 0, 76, 46
1, 46039, Note_off_c, 0, 76, 65
1, 46055, Control_c, 0, 64, 68
1, 46058, Note_on_c, 0, 74, 49
1, 46070, Control_c, 0, 64, 67
1, 46084, Control_c, 0, 64, 65
1, 46087, Note_off_c, 0, 74, 66
1, 46099, Control_c, 0, 64, 61
1, 46103, Note_on_c, 0, 73, 59
1, 46114, Control_c, 0, 64, 53
1, 46129, Control_c, 0, 64, 39
1, 46144, Control_c, 0, 64, 0
1, 46152, Note_off_c, 0, 73, 60
1, 46153, Note_on_c, 0, 57, 40
1, 46162, Note_on_c, 0, 60, 27
1, 46165, Note_on_c, 0, 74, 65
1, 46248, Control_c, 0, 64, 51
1, 46263, Control_c, 0, 64, 61
1, 46278, Control_c, 0, 64, 64
1, 46292, Control_c, 0, 64, 65
1, 46308, Control_c, 0, 64, 66
1, 46323, Control_c, 0, 64, 67
1, 46334, Note_on_c, 0, 75, 72
1, 46362, Note_off_c, 0, 60, 40
1, 46369, Note_off_c, 0, 57, 50
1, 46379, Note_off_c, 0, 74, 62
1, 46397, Control_c, 0, 64, 66
1, 46412, Control_c, 0, 64, 65
1, 46426, Control_c, 0, 64, 63
1, 46441, Control_c, 0, 64, 57
1, 46456, Control_c, 0, 64, 46
1, 46471, Control_c, 0, 64, 22
1, 46493, Control_c, 0, 64, 0
1, 46502, Note_on_c, 0, 76, 71
1, 46519, Note_on_c, 0, 57, 32
1, 46535, Note_on_c, 0, 60, 30
1, 46567, Control_c, 0, 64, 42
1, 46582, Control_c, 0, 64, 58
1, 46597, Control_c, 0, 64, 62
1, 46600, Note_off_c, 0, 75, 59
1, 46612, Control_c, 0, 64, 63
1, 46627, Control_c, 0, 64, 64
1, 46641, Control_c, 0, 64, 64
1, 46686, Note_on_c, 0, 72, 65
1, 46760, Control_c, 0, 64, 64
1, 46775, Control_c, 0, 64, 63
1, 46788, Control_c, 0, 64, 63
1, 46803, Control_c, 0, 64, 62
1, 46818, Control_c, 0, 64, 61
1, 46832, Control_c, 0, 64, 61
1, 46838, Note_off_c, 0, 76, 56
1, 46847, Control_c, 0, 64, 60
1, 46862, Control_c, 0, 64, 58
1, 46877, Control_c, 0, 64, 55
1, 46892, Note_on_c, 0, 54, 37
1, 46892, Control_c, 0, 64, 50
1, 46902, Note_off_c, 0, 60, 33
1, 46907, Control_c, 0, 64, 47
1, 46907, Note_on_c, 0, 69, 54
1, 46922, Control_c, 0, 64, 46
1, 46937, Control_c, 0, 64, 43
1, 46951, Control_c, 0, 64, 38
1, 46966, Control_c, 0, 64, 28
1, 46981, Control_c, 0, 64, 0
1, 46990, Note_off_c, 0, 53, 39
1, 47014, Note_off_c, 0, 57, 41
1, 47050, Note_off_c, 0, 72, 48
1, 47175, Control_c, 0, 64, 23
1, 47190, Control_c, 0, 64, 42
1, 47204, Control_c, 0, 64, 51
1, 47219, Control_c, 0, 64, 56
1, 47241, Control_c, 0, 64, 60
1, 47256, Control_c, 0, 64, 63
1, 47270, Control_c, 0, 64, 64
1, 47285, Control_c, 0, 64, 66
1, 47300, Control_c, 0, 64, 67
1, 47315, Control_c, 0, 64, 70
1, 47329, Note_on_c, 0, 60, 29
1, 47330, Note_on_c, 0, 62, 34
1, 47330, Control_c, 0, 64, 73
1, 47331, Note_on_c, 0, 57, 30
1, 47345, Control_c, 0, 64, 76
1, 47360, Control_c, 0, 64, 85
1, 47375, Control_c, 0, 64, 93
1, 47390, Control_c, 0, 64, 97
1, 47404, Control_c, 0, 64, 101
1, 47419, Control_c, 0, 64, 108
1, 47434, Control_c, 0, 64, 118
1, 47449, Control_c, 0, 64, 127
1, 47530, Note_off_c, 0, 57, 40
1, 47533, Note_off_c, 0, 60, 39
1, 47535, Note_off_c, 0, 62, 41
1, 47718, Note_on_c, 0, 62, 35
1, 47721, Note_on_c, 0, 60, 29
1, 47732, Note_on_c, 0, 57, 37
1, 47792, Note_off_c, 0, 54, 48
1, 47827, Note_off_c, 0, 69, 38
1, 47853, Note_on_c, 0, 71, 48
1, 47917, Note_off_c, 0, 71, 51
1, 47933, Note_on_c, 0, 69, 53
1, 48008, Note_off_c, 0, 69, 53
1, 48025, Note_on_c, 0, 68, 47
1, 48034, Control_c, 0, 64, 113
1, 48049, Control_c, 0, 64, 103
1, 48064, Control_c, 0, 64, 94
1, 48078, Control_c, 0, 64, 81
1, 48093, Control_c, 0, 64, 70
1, 48108, Control_c, 0, 64, 61
1, 48112, Note_on_c, 0, 54, 35
1, 48117, Note_off_c, 0, 68, 47
1, 48120, Note_off_c, 0, 62, 35
1, 48123, Control_c, 0, 64, 29
1, 48128, Note_on_c, 0, 69, 50
1, 48138, Control_c, 0, 64, 0
1, 48147, Note_off_c, 0, 57, 35
1, 48152, Note_off_c, 0, 60, 38
1, 48168, Control_c, 0, 64, 23
1, 48183, Control_c, 0, 64, 48
1, 48184, Note_off_c, 0, 69, 60
1, 48198, Control_c, 0, 64, 59
1, 48203, Note_on_c, 0, 71, 55
1, 48212, Control_c, 0, 64, 64
1, 48227, Control_c, 0, 64, 69
1, 48242, Control_c, 0, 64, 75
1, 48257, Control_c, 0, 64, 80
1, 48272, Control_c, 0, 64, 81
1, 48275, Note_off_c, 0, 71, 57
1, 48286, Control_c, 0, 64, 82
1, 48293, Note_on_c, 0, 69, 59
1, 48349, Note_off_c, 0, 69, 61
1, 48361, Note_on_c, 0, 68, 61
1, 48390, Control_c, 0, 64, 80
1, 48404, Control_c, 0, 64, 77
1, 48419, Control_c, 0, 64, 71
1, 48433, Note_on_c, 0, 57, 40
1, 48433, Note_on_c, 0, 60, 25
1, 48433, Note_off_c, 0, 68, 62
1, 48434, Control_c, 0, 64, 64
1, 48441, Note_on_c, 0, 62, 37
1, 48449, Control_c, 0, 64, 42
1, 48453, Note_on_c, 0, 69, 67
1, 48464, Control_c, 0, 64, 0
1, 48493, Control_c, 0, 64, 20
1, 48508, Control_c, 0, 64, 47
1, 48523, Control_c, 0, 64, 59
1, 48538, Control_c, 0, 64, 63
1, 48548, Note_off_c, 0, 69, 59
1, 48549, Note_on_c, 0, 71, 61
1, 48552, Control_c, 0, 64, 66
1, 48567, Control_c, 0, 64, 68
1, 48582, Control_c, 0, 64, 70
1, 48597, Control_c, 0, 64, 72
1, 48614, Note_off_c, 0, 71, 64
1, 48617, Note_on_c, 0, 72, 77
1, 48626, Note_off_c, 0, 57, 50
1, 48633, Note_off_c, 0, 62, 41
1, 48634, Note_off_c, 0, 60, 40
1, 48686, Control_c, 0, 64, 71
1, 48689, Note_on_c, 0, 71, 70
1, 48690, Note_off_c, 0, 72, 64
1, 48701, Control_c, 0, 64, 69
1, 48716, Control_c, 0, 64, 67
1, 48739, Control_c, 0, 64, 65
1, 48754, Control_c, 0, 64, 61
1, 48769, Control_c, 0, 64, 48
1, 48775, Note_on_c, 0, 74, 69
1, 48778, Note_on_c, 0, 57, 43
1, 48783, Note_on_c, 0, 60, 34
1, 48783, Control_c, 0, 64, 0
1, 48784, Note_on_c, 0, 62, 38
1, 48790, Note_off_c, 0, 71, 54
1, 48857, Note_on_c, 0, 72, 73
1, 48871, Note_off_c, 0, 54, 46
1, 48883, Note_off_c, 0, 57, 60
1, 48887, Control_c, 0, 64, 52
1, 48901, Control_c, 0, 64, 62
1, 48911, Note_off_c, 0, 74, 65
1, 48916, Control_c, 0, 64, 64
1, 48930, Note_on_c, 0, 71, 71
1, 48931, Control_c, 0, 64, 65
1, 48964, Note_off_c, 0, 72, 67
1, 49005, Control_c, 0, 64, 64
1, 49008, Note_on_c, 0, 69, 78
1, 49020, Control_c, 0, 64, 63
1, 49024, Note_off_c, 0, 71, 60
1, 49035, Control_c, 0, 64, 59
1, 49050, Control_c, 0, 64, 51
1, 49065, Control_c, 0, 64, 46
1, 49080, Control_c, 0, 64, 40
1, 49095, Control_c, 0, 64, 26
1, 49109, Control_c, 0, 64, 0
1, 49110, Note_on_c, 0, 67, 70
1, 49121, Note_on_c, 0, 55, 28
1, 49129, Note_off_c, 0, 62, 36
1, 49141, Note_off_c, 0, 69, 65
1, 49166, Note_off_c, 0, 60, 40
1, 49277, Note_off_c, 0, 67, 44
1, 49531, Note_on_c, 0, 60, 30
1, 49532, Note_on_c, 0, 72, 51
1, 49540, Note_on_c, 0, 64, 26
1, 49617, Note_off_c, 0, 72, 64
1, 49718, Note_off_c, 0, 64, 45
1, 49736, Note_off_c, 0, 60, 41
1, 49923, Note_on_c, 0, 76, 50
1, 49939, Note_on_c, 0, 64, 33
1, 49947, Note_on_c, 0, 60, 18
1, 50022, Note_off_c, 0, 76, 64
1, 50080, Note_off_c, 0, 55, 49
1, 50335, Note_on_c, 0, 55, 31
1, 50347, Note_on_c, 0, 79, 55
1, 50418, Note_off_c, 0, 60, 32
1, 50429, Note_off_c, 0, 64, 40
1, 50457, Note_off_c, 0, 79, 52
1, 50772, Note_on_c, 0, 84, 58
1, 50804, Note_on_c, 0, 60, 26
1, 50808, Note_on_c, 0, 64, 19
1, 50855, Note_off_c, 0, 84, 55
1, 51015, Note_off_c, 0, 60, 41
1, 51023, Note_off_c, 0, 64, 45
1, 51256, Note_on_c, 0, 64, 32
1, 51262, Note_on_c, 0, 60, 27
1, 51296, Control_c, 0, 64, 40
1, 51311, Control_c, 0, 64, 57
1, 51326, Control_c, 0, 64, 62
1, 51341, Control_c, 0, 64, 64
1, 51356, Control_c, 0, 64, 67
1, 51370, Control_c, 0, 64, 72
1, 51385, Control_c, 0, 64, 79
1, 51400, Control_c, 0, 64, 85
1, 51415, Control_c, 0, 64, 92
1, 51429, Control_c, 0, 64, 104
1, 51444, Control_c, 0, 64, 127
1, 51447, Note_off_c, 0, 55, 42
1, 51582, Note_on_c, 0, 72, 45
1, 51744, Note_off_c, 0, 72, 43
1, 51752, Note_on_c, 0, 76, 45
1, 51769, Note_on_c, 0, 55, 29
1, 51778, Control_c, 0, 64, 96
1, 51779, Note_off_c, 0, 60, 34
1, 51780, Note_off_c, 0, 76, 58
1, 51792, Control_c, 0, 64, 81
1, 51807, Control_c, 0, 64, 68
1, 51811, Note_on_c, 0, 74, 50
1, 51822, Control_c, 0, 64, 57
1, 51831, Note_off_c, 0, 64, 40
1, 51837, Control_c, 0, 64, 23
1, 51846, Note_off_c, 0, 74, 64
1, 51852, Control_c, 0, 64, 0
1, 51867, Control_c, 0, 64, 28
1, 51867, Note_on_c, 0, 76, 57
1, 51882, Control_c, 0, 64, 44
1, 51897, Control_c, 0, 64, 51
1, 51905, Note_off_c, 0, 76, 62
1, 51912, Control_c, 0, 64, 57
1, 51927, Control_c, 0, 64, 62
1, 51942, Control_c, 0, 64, 66
1, 51945, Note_on_c, 0, 74, 40
1, 51956, Control_c, 0, 64, 70
1, 51971, Control_c, 0, 64, 74
1, 51972, Note_off_c, 0, 74, 56
1, 51986, Control_c, 0, 64, 77
1, 51993, Note_on_c, 0, 76, 48
1, 52001, Control_c, 0, 64, 82
1, 52016, Control_c, 0, 64, 87
1, 52017, Note_off_c, 0, 76, 59
1, 52031, Control_c, 0, 64, 91
1, 52040, Note_on_c, 0, 74, 48
1, 52045, Control_c, 0, 64, 95
1, 52060, Note_off_c, 0, 74, 62
1, 52060, Control_c, 0, 64, 100
1, 52075, Control_c, 0, 64, 107
1, 52090, Control_c, 0, 64, 118
1, 52091, Note_on_c, 0, 76, 43
1, 52105, Control_c, 0, 64, 127
1, 52116, Note_off_c, 0, 76, 57
1, 52133, Note_on_c, 0, 74, 51
1, 52155, Note_off_c, 0, 74, 62
1, 52156, Note_on_c, 0, 65, 43
1, 52171, Note_on_c, 0, 59, 32
1, 52173, Note_on_c, 0, 76, 58
1, 52192, Note_off_c, 0, 76, 65
1, 52217, Note_on_c, 0, 74, 56
1, 52240, Note_off_c, 0, 74, 62
1, 52257, Note_on_c, 0, 76, 72
1, 52283, Note_off_c, 0, 76, 65
1, 52312, Note_on_c, 0, 74, 60
1, 52330, Note_off_c, 0, 59, 42
1, 52338, Note_off_c, 0, 74, 58
1, 52356, Note_on_c, 0, 76, 70
1, 52368, Note_off_c, 0, 65, 39
1, 52383, Note_off_c, 0, 76, 66
1, 52406, Note_on_c, 0, 74, 65
1, 52438, Note_off_c, 0, 74, 61
1, 52455, Note_on_c, 0, 76, 69
1, 52487, Note_off_c, 0, 76, 64
1, 52514, Note_on_c, 0, 74, 56
1, 52537, Note_on_c, 0, 65, 45
1, 52541, Control_c, 0, 64, 95
1, 52546, Note_off_c, 0, 74, 64
1, 52550, Note_on_c, 0, 59, 44
1, 52553, Note_on_c, 0, 76, 70
1, 52556, Control_c, 0, 64, 78
1, 52570, Control_c, 0, 64, 66
1, 52573, Note_off_c, 0, 55, 40
1, 52583, Note_off_c, 0, 76, 63
1, 52585, Control_c, 0, 64, 64
1, 52600, Control_c, 0, 64, 66
1, 52612, Note_on_c, 0, 74, 59
1, 52615, Control_c, 0, 64, 69
1, 52630, Control_c, 0, 64, 74
1, 52636, Note_off_c, 0, 74, 59
1, 52645, Control_c, 0, 64, 78
1, 52656, Note_on_c, 0, 76, 63
1, 52660, Control_c, 0, 64, 86
1, 52675, Control_c, 0, 64, 96
1, 52681, Note_off_c, 0, 76, 67
1, 52690, Control_c, 0, 64, 109
1, 52705, Note_on_c, 0, 74, 63
1, 52705, Control_c, 0, 64, 127
1, 52729, Note_off_c, 0, 74, 62
1, 52752, Note_on_c, 0, 76, 69
1, 52774, Note_off_c, 0, 76, 64
1, 52797, Note_on_c, 0, 74, 67
1, 52836, Note_off_c, 0, 74, 54
1, 52847, Note_on_c, 0, 76, 65
1, 52883, Note_off_c, 0, 76, 60
1, 52904, Note_on_c, 0, 74, 52
1, 52913, Control_c, 0, 64, 108
1, 52928, Control_c, 0, 64, 92
1, 52931, Note_off_c, 0, 74, 55
1, 52932, Note_on_c, 0, 55, 63
1, 52943, Control_c, 0, 64, 78
1, 52951, Note_on_c, 0, 76, 61
1, 52958, Control_c, 0, 64, 65
1, 52973, Control_c, 0, 64, 47
1, 52979, Note_off_c, 0, 76, 67
1, 52987, Note_off_c, 0, 59, 40
1, 52988, Control_c, 0, 64, 0
1, 53008, Note_on_c, 0, 74, 53
1, 53017, Control_c, 0, 64, 29
1, 53028, Note_off_c, 0, 74, 64
1, 53032, Control_c, 0, 64, 49
1, 53044, Note_off_c, 0, 65, 37
1, 53047, Note_on_c, 0, 76, 72
1, 53047, Control_c, 0, 64, 62
1, 53062, Control_c, 0, 64, 67
1, 53072, Note_off_c, 0, 76, 65
1, 53076, Control_c, 0, 64, 73
1, 53091, Control_c, 0, 64, 81
1, 53101, Note_on_c, 0, 74, 60
1, 53106, Control_c, 0, 64, 89
1, 53121, Control_c, 0, 64, 95
1, 53129, Note_off_c, 0, 74, 53
1, 53136, Control_c, 0, 64, 103
1, 53148, Note_on_c, 0, 76, 72
1, 53150, Control_c, 0, 64, 110
1, 53165, Control_c, 0, 64, 116
1, 53170, Note_off_c, 0, 76, 67
1, 53180, Control_c, 0, 64, 119
1, 53194, Control_c, 0, 64, 121
1, 53202, Note_on_c, 0, 74, 57
1, 53209, Control_c, 0, 64, 127
1, 53237, Note_off_c, 0, 74, 54
1, 53251, Note_on_c, 0, 76, 70
1, 53279, Note_off_c, 0, 76, 62
1, 53307, Note_on_c, 0, 74, 56
1, 53335, Control_c, 0, 64, 119
1, 53338, Note_off_c, 0, 74, 57
1, 53341, Note_on_c, 0, 65, 52
1, 53343, Note_on_c, 0, 59, 58
1, 53350, Control_c, 0, 64, 102
1, 53353, Note_on_c, 0, 76, 71
1, 53365, Control_c, 0, 64, 87
1, 53380, Control_c, 0, 64, 74
1, 53381, Note_off_c, 0, 76, 61
1, 53394, Control_c, 0, 64, 64
1, 53409, Control_c, 0, 64, 55
1, 53411, Note_on_c, 0, 74, 61
1, 53424, Control_c, 0, 64, 56
1, 53439, Control_c, 0, 64, 62
1, 53441, Note_off_c, 0, 74, 53
1, 53454, Control_c, 0, 64, 65
1, 53462, Note_on_c, 0, 76, 72
1, 53468, Control_c, 0, 64, 70
1, 53483, Control_c, 0, 64, 77
1, 53484, Note_off_c, 0, 76, 67
1, 53499, Control_c, 0, 64, 87
1, 53508, Note_on_c, 0, 74, 67
1, 53514, Control_c, 0, 64, 95
1, 53529, Control_c, 0, 64, 101
1, 53544, Control_c, 0, 64, 103
1, 53551, Note_off_c, 0, 74, 58
1, 53559, Control_c, 0, 64, 103
1, 53560, Note_on_c, 0, 76, 76
1, 53592, Note_off_c, 0, 76, 59
1, 53609, Note_on_c, 0, 74, 62
1, 53611, Note_off_c, 0, 65, 48
1, 53641, Note_off_c, 0, 59, 38
1, 53657, Note_off_c, 0, 74, 60
1, 53662, Control_c, 0, 64, 103
1, 53665, Note_on_c, 0, 76, 72
1, 53677, Control_c, 0, 64, 97
1, 53691, Control_c, 0, 64, 87
1, 53698, Note_off_c, 0, 76, 60
1, 53706, Control_c, 0, 64, 76
1, 53708, Note_on_c, 0, 74, 60
1, 53721, Control_c, 0, 64, 65
1, 53736, Control_c, 0, 64, 49
1, 53746, Note_on_c, 0, 65, 50
1, 53751, Control_c, 0, 64, 0
1, 53754, Note_on_c, 0, 59, 58
1, 53774, Note_off_c, 0, 74, 0
1, 53775, Note_on_c, 0, 76, 50
1, 53781, Control_c, 0, 64, 35
1, 53792, Note_on_c, 0, 74, 47
1, 53796, Control_c, 0, 64, 55
1, 53799, Note_off_c, 0, 76, 59
1, 53811, Control_c, 0, 64, 65
1, 53825, Control_c, 0, 64, 70
1, 53840, Control_c, 0, 64, 77
1, 53840, Note_off_c, 0, 74, 65
1, 53847, Note_on_c, 0, 76, 72
1, 53855, Control_c, 0, 64, 83
1, 53859, Note_off_c, 0, 55, 56
1, 53870, Control_c, 0, 64, 86
1, 53885, Control_c, 0, 64, 88
1, 53899, Note_off_c, 0, 76, 65
1, 53899, Control_c, 0, 64, 89
1, 53900, Note_on_c, 0, 74, 65
1, 53914, Control_c, 0, 64, 89
1, 53947, Note_off_c, 0, 59, 59
1, 53990, Note_off_c, 0, 74, 64
1, 53991, Note_on_c, 0, 72, 72
1, 54094, Note_on_c, 0, 74, 75
1, 54113, Note_off_c, 0, 72, 56
1, 54143, Control_c, 0, 64, 88
1, 54158, Control_c, 0, 64, 88
1, 54173, Control_c, 0, 64, 87
1, 54188, Control_c, 0, 64, 86
1, 54203, Control_c, 0, 64, 84
1, 54217, Control_c, 0, 64, 82
1, 54232, Control_c, 0, 64, 80
1, 54247, Control_c, 0, 64, 77
1, 54262, Control_c, 0, 64, 75
1, 54277, Control_c, 0, 64, 73
1, 54293, Note_on_c, 0, 60, 55
1, 54293, Control_c, 0, 64, 70
1, 54308, Control_c, 0, 64, 67
1, 54322, Control_c, 0, 64, 64
1, 54337, Control_c, 0, 64, 61
1, 54339, Note_on_c, 0, 72, 64
1, 54352, Control_c, 0, 64, 59
1, 54366, Control_c, 0, 64, 56
1, 54381, Control_c, 0, 64, 53
1, 54396, Control_c, 0, 64, 44
1, 54411, Control_c, 0, 64, 27
1, 54426, Control_c, 0, 64, 0
1, 54452, Note_off_c, 0, 65, 37
1, 54457, Note_off_c, 0, 74, 62
1, 54663, Control_c, 0, 64, 43
1, 54678, Control_c, 0, 64, 59
1, 54693, Control_c, 0, 64, 62
1, 54708, Control_c, 0, 64, 64
1, 54729, Control_c, 0, 64, 67
1, 54744, Control_c, 0, 64, 70
1, 54759, Control_c, 0, 64, 76
1, 54773, Control_c, 0, 64, 82
1, 54788, Control_c, 0, 64, 88
1, 54803, Control_c, 0, 64, 98
1, 54806, Note_on_c, 0, 67, 46
1, 54818, Control_c, 0, 64, 118
1, 54821, Note_on_c, 0, 64, 41
1, 54833, Control_c, 0, 64, 127
1, 55021, Note_off_c, 0, 64, 42
1, 55037, Note_off_c, 0, 67, 37
1, 55185, Note_on_c, 0, 67, 50
1, 55187, Note_on_c, 0, 64, 52
1, 55197, Note_off_c, 0, 72, 30
1, 55363, Note_off_c, 0, 64, 61
1, 55370, Note_off_c, 0, 67, 38
1, 55544, Note_on_c, 0, 67, 56
1, 55560, Note_on_c, 0, 64, 48
1, 55879, Note_off_c, 0, 60, 38
1, 55901, Note_off_c, 0, 67, 35
1, 55981, Note_on_c, 0, 71, 61
1, 56008, Note_off_c, 0, 64, 37
1, 56056, Control_c, 0, 64, 95
1, 56071, Control_c, 0, 64, 77
1, 56085, Control_c, 0, 64, 64
1, 56100, Control_c, 0, 64, 24
1, 56115, Control_c, 0, 64, 0
1, 56174, Control_c, 0, 64, 55
1, 56189, Control_c, 0, 64, 65
1, 56204, Control_c, 0, 64, 69
1, 56226, Control_c, 0, 64, 75
1, 56241, Control_c, 0, 64, 81
1, 56256, Control_c, 0, 64, 85
1, 56271, Control_c, 0, 64, 86
1, 56286, Control_c, 0, 64, 87
1, 56300, Control_c, 0, 64, 88
1, 56315, Control_c, 0, 64, 89
1, 56389, Control_c, 0, 64, 86
1, 56404, Control_c, 0, 64, 81
1, 56413, Note_off_c, 0, 71, 30
1, 56419, Control_c, 0, 64, 74
1, 56431, Note_on_c, 0, 72, 62
1, 56434, Control_c, 0, 64, 65
1, 56449, Control_c, 0, 64, 54
1, 56464, Control_c, 0, 64, 0
1, 56538, Control_c, 0, 64, 41
1, 56553, Control_c, 0, 64, 57
1, 56568, Control_c, 0, 64, 64
1, 56583, Control_c, 0, 64, 69
1, 56598, Control_c, 0, 64, 76
1, 56612, Control_c, 0, 64, 84
1, 56627, Control_c, 0, 64, 90
1, 56642, Control_c, 0, 64, 95
1, 56657, Control_c, 0, 64, 99
1, 56672, Control_c, 0, 64, 100
1, 56687, Control_c, 0, 64, 101
1, 56735, Note_off_c, 0, 72, 64
1, 56835, Control_c, 0, 64, 100
1, 56840, Note_on_c, 0, 59, 34
1, 56850, Control_c, 0, 64, 99
1, 56865, Control_c, 0, 64, 98
1, 56880, Control_c, 0, 64, 94
1, 56895, Control_c, 0, 64, 90
1, 56909, Control_c, 0, 64, 87
1, 56924, Control_c, 0, 64, 84
1, 56939, Control_c, 0, 64, 81
1, 56954, Control_c, 0, 64, 78
1, 56973, Note_on_c, 0, 73, 50
1, 56976, Control_c, 0, 64, 74
1, 56991, Control_c, 0, 64, 69
1, 57006, Control_c, 0, 64, 65
1, 57021, Control_c, 0, 64, 61
1, 57036, Control_c, 0, 64, 58
1, 57050, Note_off_c, 0, 73, 42
1, 57050, Control_c, 0, 64, 53
1, 57058, Note_on_c, 0, 74, 43
1, 57065, Control_c, 0, 64, 43
1, 57080, Control_c, 0, 64, 20
1, 57091, Note_off_c, 0, 74, 62
1, 57095, Control_c, 0, 64, 0
1, 57115, Note_on_c, 0, 76, 54
1, 57192, Note_on_c, 0, 74, 49
1, 57277, Note_off_c, 0, 76, 40
1, 57391, Control_c, 0, 64, 33
1, 57406, Control_c, 0, 64, 49
1, 57420, Control_c, 0, 64, 55
1, 57435, Control_c, 0, 64, 59
1, 57450, Control_c, 0, 64, 62
1, 57465, Control_c, 0, 64, 64
1, 57480, Control_c, 0, 64, 67
1, 57494, Note_on_c, 0, 68, 35
1, 57495, Control_c, 0, 64, 72
1, 57501, Note_on_c, 0, 62, 25
1, 57507, Note_on_c, 0, 64, 27
1, 57510, Control_c, 0, 64, 79
1, 57525, Control_c, 0, 64, 86
1, 57540, Control_c, 0, 64, 94
1, 57555, Control_c, 0, 64, 105
1, 57569, Control_c, 0, 64, 127
1, 57720, Note_off_c, 0, 62, 39
1, 57724, Note_off_c, 0, 68, 42
1, 57730, Note_off_c, 0, 64, 39
1, 57923, Note_on_c, 0, 68, 31
1, 57942, Note_on_c, 0, 62, 29
1, 57949, Note_on_c, 0, 64, 20
1, 58125, Note_off_c, 0, 62, 39
1, 58125, Note_off_c, 0, 64, 39
1, 58125, Note_off_c, 0, 68, 45
1, 58305, Note_on_c, 0, 68, 36
1, 58322, Note_on_c, 0, 62, 26
1, 58326, Note_on_c, 0, 64, 23
1, 58609, Note_off_c, 0, 59, 37
1, 58677, Note_off_c, 0, 68, 39
1, 58729, Note_off_c, 0, 62, 32
1, 58733, Note_on_c, 0, 73, 47
1, 58733, Note_off_c, 0, 64, 31
1, 58798, Control_c, 0, 64, 105
1, 58813, Control_c, 0, 64, 87
1, 58827, Control_c, 0, 64, 73
1, 58842, Control_c, 0, 64, 62
1, 58857, Note_off_c, 0, 74, 35
1, 58857, Control_c, 0, 64, 50
1, 58872, Control_c, 0, 64, 53
1, 58887, Control_c, 0, 64, 58
1, 58902, Control_c, 0, 64, 62
1, 58917, Control_c, 0, 64, 66
1, 58931, Control_c, 0, 64, 74
1, 58946, Control_c, 0, 64, 86
1, 58961, Control_c, 0, 64, 94
1, 58976, Control_c, 0, 64, 95
1, 59057, Note_off_c, 0, 73, 38
1, 59125, Control_c, 0, 64, 95
1, 59140, Control_c, 0, 64, 93
1, 59154, Control_c, 0, 64, 89
1, 59169, Control_c, 0, 64, 83
1, 59184, Control_c, 0, 64, 76
1, 59199, Control_c, 0, 64, 70
1, 59215, Note_on_c, 0, 74, 42
1, 59221, Control_c, 0, 64, 63
1, 59236, Control_c, 0, 64, 47
1, 59251, Control_c, 0, 64, 17
1, 59266, Control_c, 0, 64, 0
1, 59295, Control_c, 0, 64, 21
1, 59310, Control_c, 0, 64, 38
1, 59325, Control_c, 0, 64, 51
1, 59340, Control_c, 0, 64, 61
1, 59355, Control_c, 0, 64, 66
1, 59369, Control_c, 0, 64, 73
1, 59384, Control_c, 0, 64, 81
1, 59399, Control_c, 0, 64, 90
1, 59414, Control_c, 0, 64, 99
1, 59429, Control_c, 0, 64, 110
1, 59443, Control_c, 0, 64, 125
1, 59458, Control_c, 0, 64, 127
1, 59486, Note_off_c, 0, 74, 34
1, 59737, Note_on_c, 0, 57, 30
1, 59769, Control_c, 0, 64, 118
1, 59784, Control_c, 0, 64, 112
1, 59799, Control_c, 0, 64, 107
1, 59814, Control_c, 0, 64, 101
1, 59826, Note_on_c, 0, 75, 33
1, 59829, Control_c, 0, 64, 95
1, 59844, Control_c, 0, 64, 86
1, 59859, Control_c, 0, 64, 78
1, 59874, Control_c, 0, 64, 70
1, 59885, Note_off_c, 0, 75, 42
1, 59889, Control_c, 0, 64, 64
1, 59898, Note_on_c, 0, 76, 49
1, 59904, Control_c, 0, 64, 53
1, 59919, Control_c, 0, 64, 30
1, 59933, Control_c, 0, 64, 0
1, 59936, Note_off_c, 0, 76, 61
1, 59969, Note_on_c, 0, 77, 50
1, 60056, Note_on_c, 0, 76, 45
1, 60063, Note_off_c, 0, 77, 50
1, 60237, Control_c, 0, 64, 28
1, 60252, Control_c, 0, 64, 44
1, 60267, Control_c, 0, 64, 53
1, 60282, Control_c, 0, 64, 58
1, 60297, Control_c, 0, 64, 62
1, 60311, Control_c, 0, 64, 65
1, 60326, Control_c, 0, 64, 67
1, 60341, Control_c, 0, 64, 69
1, 60356, Control_c, 0, 64, 73
1, 60371, Control_c, 0, 64, 79
1, 60385, Control_c, 0, 64, 83
1, 60400, Control_c, 0, 64, 88
1, 60415, Control_c, 0, 64, 93
1, 60430, Control_c, 0, 64, 99
1, 60445, Control_c, 0, 64, 108
1, 60459, Control_c, 0, 64, 125
1, 60474, Control_c, 0, 64, 127
1, 60609, Note_on_c, 0, 64, 19
1, 60610, Note_on_c, 0, 60, 22
1, 60797, Note_off_c, 0, 60, 38
1, 60798, Note_off_c, 0, 64, 41
1, 60816, Note_on_c, 0, 75, 48
1, 60831, Note_off_c, 0, 76, 31
1, 60881, Note_off_c, 0, 75, 54
1, 60996, Note_on_c, 0, 76, 48
1, 61001, Control_c, 0, 64, 111
1, 61015, Control_c, 0, 64, 99
1, 61015, Note_on_c, 0, 60, 22
1, 61017, Note_on_c, 0, 64, 32
1, 61030, Control_c, 0, 64, 90
1, 61045, Control_c, 0, 64, 81
1, 61060, Control_c, 0, 64, 72
1, 61075, Control_c, 0, 64, 64
1, 61085, Note_off_c, 0, 57, 39
1, 61089, Control_c, 0, 64, 45
1, 61104, Control_c, 0, 64, 0
1, 61148, Control_c, 0, 64, 26
1, 61163, Control_c, 0, 64, 43
1, 61178, Control_c, 0, 64, 54
1, 61193, Control_c, 0, 64, 62
1, 61207, Control_c, 0, 64, 66
1, 61222, Control_c, 0, 64, 70
1, 61237, Control_c, 0, 64, 73
1, 61252, Control_c, 0, 64, 74
1, 61267, Control_c, 0, 64, 75
1, 61281, Control_c, 0, 64, 76
1, 61400, Control_c, 0, 64, 75
1, 61415, Control_c, 0, 64, 74
1, 61430, Control_c, 0, 64, 73
1, 61438, Note_on_c, 0, 57, 31
1, 61439, Note_on_c, 0, 69, 43
1, 61445, Control_c, 0, 64, 72
1, 61466, Control_c, 0, 64, 69
1, 61483, Control_c, 0, 64, 66
1, 61498, Control_c, 0, 64, 63
1, 61511, Note_off_c, 0, 60, 25
1, 61512, Control_c, 0, 64, 56
1, 61527, Control_c, 0, 64, 45
1, 61542, Control_c, 0, 64, 19
1, 61556, Control_c, 0, 64, 0
1, 61566, Note_off_c, 0, 64, 34
1, 61578, Note_off_c, 0, 76, 36
1, 61764, Control_c, 0, 64, 43
1, 61773, Note_off_c, 0, 69, 43
1, 61779, Control_c, 0, 64, 56
1, 61793, Control_c, 0, 64, 60
1, 61808, Control_c, 0, 64, 62
1, 61823, Control_c, 0, 64, 63
1, 61838, Control_c, 0, 64, 64
1, 61853, Control_c, 0, 64, 66
1, 61868, Note_on_c, 0, 64, 25
1, 61868, Control_c, 0, 64, 67
1, 61870, Note_on_c, 0, 60, 24
1, 61883, Control_c, 0, 64, 68
1, 61912, Control_c, 0, 64, 67
1, 61927, Control_c, 0, 64, 65
1, 61942, Control_c, 0, 64, 57
1, 61956, Control_c, 0, 64, 30
1, 61971, Control_c, 0, 64, 0
1, 61986, Control_c, 0, 64, 21
1, 62001, Control_c, 0, 64, 43
1, 62016, Control_c, 0, 64, 55
1, 62030, Control_c, 0, 64, 62
1, 62045, Control_c, 0, 64, 65
1, 62060, Control_c, 0, 64, 68
1, 62075, Control_c, 0, 64, 71
1, 62089, Control_c, 0, 64, 75
1, 62104, Control_c, 0, 64, 79
1, 62119, Control_c, 0, 64, 82
1, 62128, Note_off_c, 0, 60, 40
1, 62134, Control_c, 0, 64, 86
1, 62136, Note_off_c, 0, 64, 42
1, 62149, Control_c, 0, 64, 91
1, 62163, Control_c, 0, 64, 94
1, 62178, Control_c, 0, 64, 95
1, 62193, Control_c, 0, 64, 95
1, 62216, Control_c, 0, 64, 96
1, 62230, Control_c, 0, 64, 97
1, 62245, Control_c, 0, 64, 98
1, 62304, Note_on_c, 0, 64, 30
1, 62304, Note_on_c, 0, 69, 45
1, 62315, Note_on_c, 0, 60, 13
1, 62321, Control_c, 0, 64, 98
1, 62443, Note_off_c, 0, 57, 41
1, 62539, Note_off_c, 0, 69, 40
1, 62601, Control_c, 0, 64, 98
1, 62616, Control_c, 0, 64, 97
1, 62631, Control_c, 0, 64, 95
1, 62646, Control_c, 0, 64, 92
1, 62661, Control_c, 0, 64, 90
1, 62676, Control_c, 0, 64, 89
1, 62691, Control_c, 0, 64, 87
1, 62705, Control_c, 0, 64, 85
1, 62711, Note_on_c, 0, 72, 52
1, 62713, Note_on_c, 0, 57, 31
1, 62720, Control_c, 0, 64, 82
1, 62735, Control_c, 0, 64, 79
1, 62750, Control_c, 0, 64, 77
1, 62765, Control_c, 0, 64, 75
1, 62779, Control_c, 0, 64, 73
1, 62793, Note_off_c, 0, 60, 32
1, 62794, Control_c, 0, 64, 69
1, 62809, Control_c, 0, 64, 64
1, 62824, Control_c, 0, 64, 58
1, 62839, Note_off_c, 0, 64, 38
1, 62839, Control_c, 0, 64, 48
1, 62853, Control_c, 0, 64, 38
1, 62868, Control_c, 0, 64, 19
1, 62883, Control_c, 0, 64, 0
1, 62994, Control_c, 0, 64, 29
1, 63009, Control_c, 0, 64, 45
1, 63024, Control_c, 0, 64, 55
1, 63039, Control_c, 0, 64, 61
1, 63054, Control_c, 0, 64, 63
1, 63068, Control_c, 0, 64, 65
1, 63084, Control_c, 0, 64, 67
1, 63099, Control_c, 0, 64, 68
1, 63111, Note_on_c, 0, 70, 58
1, 63130, Note_on_c, 0, 65, 28
1, 63132, Note_on_c, 0, 62, 31
1, 63158, Control_c, 0, 64, 67
1, 63173, Control_c, 0, 64, 65
1, 63188, Control_c, 0, 64, 60
1, 63202, Control_c, 0, 64, 48
1, 63217, Control_c, 0, 64, 0
1, 63277, Control_c, 0, 64, 31
1, 63292, Control_c, 0, 64, 55
1, 63302, Note_off_c, 0, 72, 50
1, 63307, Control_c, 0, 64, 62
1, 63322, Control_c, 0, 64, 66
1, 63335, Note_off_c, 0, 65, 51
1, 63336, Control_c, 0, 64, 69
1, 63351, Control_c, 0, 64, 71
1, 63366, Control_c, 0, 64, 71
1, 63367, Note_off_c, 0, 62, 40
1, 63440, Control_c, 0, 64, 71
1, 63455, Control_c, 0, 64, 69
1, 63470, Control_c, 0, 64, 66
1, 63484, Control_c, 0, 64, 63
1, 63499, Control_c, 0, 64, 57
1, 63503, Note_on_c, 0, 71, 63
1, 63514, Control_c, 0, 64, 46
1, 63518, Note_on_c, 0, 65, 38
1, 63519, Note_on_c, 0, 62, 27
1, 63528, Control_c, 0, 64, 0
1, 63588, Note_off_c, 0, 70, 63
1, 63618, Control_c, 0, 64, 53
1, 63633, Control_c, 0, 64, 62
1, 63635, Note_off_c, 0, 57, 53
1, 63648, Control_c, 0, 64, 64
1, 63662, Control_c, 0, 64, 66
1, 63677, Control_c, 0, 64, 68
1, 63692, Control_c, 0, 64, 71
1, 63714, Control_c, 0, 64, 74
1, 63728, Control_c, 0, 64, 75
1, 63803, Control_c, 0, 64, 74
1, 63817, Control_c, 0, 64, 74
1, 63832, Control_c, 0, 64, 72
1, 63847, Control_c, 0, 64, 71
1, 63862, Control_c, 0, 64, 70
1, 63893, Control_c, 0, 64, 69
1, 63907, Control_c, 0, 64, 67
1, 63914, Note_on_c, 0, 57, 33
1, 63921, Note_on_c, 0, 74, 57
1, 63922, Control_c, 0, 64, 65
1, 63937, Control_c, 0, 64, 63
1, 63952, Control_c, 0, 64, 63
1, 63966, Control_c, 0, 64, 62
1, 63981, Control_c, 0, 64, 61
1, 63996, Control_c, 0, 64, 58
1, 64001, Note_off_c, 0, 62, 33
1, 64011, Control_c, 0, 64, 52
1, 64026, Control_c, 0, 64, 42
1, 64041, Control_c, 0, 64, 28
1, 64056, Control_c, 0, 64, 0
1, 64057, Note_off_c, 0, 65, 43
1, 64098, Note_off_c, 0, 71, 37
1, 64329, Note_on_c, 0, 72, 42
1, 64363, Note_on_c, 0, 67, 25
1, 64373, Note_on_c, 0, 64, 21
1, 64375, Note_off_c, 0, 74, 52
1, 64590, Note_off_c, 0, 72, 58
1, 64599, Note_off_c, 0, 67, 51
1, 64616, Note_off_c, 0, 64, 45
1, 64655, Control_c, 0, 64, 33
1, 64670, Control_c, 0, 64, 44
1, 64686, Control_c, 0, 64, 52
1, 64700, Control_c, 0, 64, 58
1, 64715, Control_c, 0, 64, 61
1, 64730, Control_c, 0, 64, 63
1, 64732, Note_on_c, 0, 64, 42
1, 64736, Note_on_c, 0, 67, 39
1, 64745, Control_c, 0, 64, 66
1, 64760, Control_c, 0, 64, 67
1, 64775, Control_c, 0, 64, 69
1, 64789, Control_c, 0, 64, 71
1, 64804, Control_c, 0, 64, 74
1, 64819, Control_c, 0, 64, 78
1, 64834, Control_c, 0, 64, 79
1, 64849, Control_c, 0, 64, 80
1, 64864, Control_c, 0, 64, 80
1, 64879, Control_c, 0, 64, 81
1, 64885, Note_on_c, 0, 73, 67
1, 64894, Control_c, 0, 64, 82
1, 64923, Control_c, 0, 64, 82
1, 64933, Note_off_c, 0, 57, 40
1, 64948, Note_off_c, 0, 73, 58
1, 65012, Control_c, 0, 64, 82
1, 65027, Control_c, 0, 64, 81
1, 65042, Control_c, 0, 64, 80
1, 65056, Control_c, 0, 64, 79
1, 65070, Note_on_c, 0, 57, 33
1, 65071, Control_c, 0, 64, 77
1, 65086, Note_on_c, 0, 76, 65
1, 65086, Control_c, 0, 64, 74
1, 65100, Control_c, 0, 64, 70
1, 65115, Control_c, 0, 64, 66
1, 65130, Control_c, 0, 64, 62
1, 65145, Control_c, 0, 64, 57
1, 65153, Note_off_c, 0, 67, 35
1, 65160, Control_c, 0, 64, 51
1, 65166, Note_off_c, 0, 64, 42
1, 65174, Control_c, 0, 64, 39
1, 65189, Control_c, 0, 64, 0
1, 65345, Control_c, 0, 64, 15
1, 65360, Control_c, 0, 64, 37
1, 65374, Control_c, 0, 64, 46
1, 65389, Control_c, 0, 64, 56
1, 65404, Control_c, 0, 64, 61
1, 65419, Control_c, 0, 64, 64
1, 65433, Control_c, 0, 64, 66
1, 65448, Control_c, 0, 64, 68
1, 65463, Control_c, 0, 64, 70
1, 65479, Control_c, 0, 64, 75
1, 65483, Note_on_c, 0, 74, 70
1, 65494, Control_c, 0, 64, 79
1, 65496, Note_on_c, 0, 69, 45
1, 65499, Note_on_c, 0, 65, 44
1, 65508, Control_c, 0, 64, 82
1, 65523, Control_c, 0, 64, 83
1, 65537, Control_c, 0, 64, 85
1, 65552, Control_c, 0, 64, 87
1, 65565, Note_off_c, 0, 76, 55
1, 65567, Control_c, 0, 64, 90
1, 65582, Control_c, 0, 64, 93
1, 65597, Control_c, 0, 64, 95
1, 65648, Note_off_c, 0, 65, 58
1, 65671, Control_c, 0, 64, 95
1, 65675, Note_off_c, 0, 69, 38
1, 65775, Control_c, 0, 64, 95
1, 65790, Control_c, 0, 64, 93
1, 65804, Control_c, 0, 64, 90
1, 65819, Control_c, 0, 64, 87
1, 65834, Control_c, 0, 64, 82
1, 65849, Control_c, 0, 64, 76
1, 65864, Control_c, 0, 64, 68
1, 65877, Note_on_c, 0, 75, 74
1, 65878, Control_c, 0, 64, 62
1, 65883, Note_on_c, 0, 69, 38
1, 65886, Note_on_c, 0, 59, 34
1, 65893, Control_c, 0, 64, 50
1, 65899, Note_off_c, 0, 57, 36
1, 65908, Control_c, 0, 64, 29
1, 65922, Control_c, 0, 64, 0
1, 66013, Note_off_c, 0, 74, 51
1, 66019, Control_c, 0, 64, 50
1, 66034, Control_c, 0, 64, 60
1, 66048, Control_c, 0, 64, 63
1, 66063, Control_c, 0, 64, 66
1, 66078, Control_c, 0, 64, 71
1, 66093, Control_c, 0, 64, 78
1, 66108, Control_c, 0, 64, 82
1, 66122, Control_c, 0, 64, 83
1, 66137, Control_c, 0, 64, 84
1, 66182, Control_c, 0, 64, 84
1, 66302, Control_c, 0, 64, 84
1, 66312, Note_on_c, 0, 57, 36
1, 66317, Control_c, 0, 64, 82
1, 66332, Control_c, 0, 64, 81
1, 66346, Control_c, 0, 64, 78
1, 66351, Note_on_c, 0, 77, 54
1, 66361, Control_c, 0, 64, 76
1, 66376, Control_c, 0, 64, 74
1, 66391, Control_c, 0, 64, 71
1, 66406, Control_c, 0, 64, 68
1, 66420, Control_c, 0, 64, 65
1, 66425, Note_off_c, 0, 59, 39
1, 66435, Control_c, 0, 64, 64
1, 66437, Note_off_c, 0, 69, 37
1, 66450, Control_c, 0, 64, 63
1, 66465, Control_c, 0, 64, 60
1, 66479, Control_c, 0, 64, 55
1, 66494, Control_c, 0, 64, 44
1, 66499, Note_off_c, 0, 75, 61
1, 66509, Control_c, 0, 64, 8
1, 66524, Control_c, 0, 64, 0
1, 66839, Note_on_c, 0, 69, 36
1, 66847, Note_on_c, 0, 76, 45
1, 66850, Note_on_c, 0, 60, 28
1, 66925, Note_off_c, 0, 77, 60
1, 67006, Control_c, 0, 64, 33
1, 67020, Control_c, 0, 64, 53
1, 67035, Control_c, 0, 64, 61
1, 67050, Control_c, 0, 64, 64
1, 67061, Note_off_c, 0, 60, 48
1, 67065, Control_c, 0, 64, 66
1, 67081, Control_c, 0, 64, 67
1, 67095, Control_c, 0, 64, 69
1, 67110, Control_c, 0, 64, 71
1, 67125, Control_c, 0, 64, 72
1, 67140, Control_c, 0, 64, 73
1, 67151, Note_off_c, 0, 76, 61
1, 67184, Control_c, 0, 64, 71
1, 67199, Control_c, 0, 64, 66
1, 67207, Note_off_c, 0, 69, 41
1, 67214, Control_c, 0, 64, 57
1, 67229, Control_c, 0, 64, 31
1, 67243, Control_c, 0, 64, 0
1, 67258, Control_c, 0, 64, 20
1, 67273, Note_on_c, 0, 64, 29
1, 67273, Control_c, 0, 64, 44
1, 67285, Note_on_c, 0, 60, 29
1, 67288, Control_c, 0, 64, 58
1, 67302, Control_c, 0, 64, 65
1, 67317, Control_c, 0, 64, 70
1, 67332, Control_c, 0, 64, 76
1, 67347, Control_c, 0, 64, 83
1, 67362, Control_c, 0, 64, 86
1, 67377, Control_c, 0, 64, 86
1, 67421, Control_c, 0, 64, 87
1, 67436, Control_c, 0, 64, 88
1, 67436, Control_c, 0, 67, 11
1, 67458, Control_c, 0, 67, 16
1, 67473, Control_c, 0, 67, 21
1, 67475, Note_off_c, 0, 64, 42
1, 67488, Control_c, 0, 67, 25
1, 67502, Control_c, 0, 67, 28
1, 67510, Note_off_c, 0, 57, 37
1, 67517, Control_c, 0, 67, 31
1, 67532, Control_c, 0, 67, 34
1, 67533, Note_off_c, 0, 60, 40
1, 67543, Note_on_c, 0, 81, 48
1, 67547, Control_c, 0, 67, 37
1, 67562, Control_c, 0, 67, 41
1, 67576, Control_c, 0, 67, 45
1, 67591, Control_c, 0, 67, 48
1, 67606, Control_c, 0, 67, 49
1, 67621, Control_c, 0, 67, 50
1, 67636, Control_c, 0, 67, 51
1, 67725, Control_c, 0, 64, 87
1, 67740, Control_c, 0, 64, 86
1, 67755, Control_c, 0, 64, 85
1, 67763, Note_off_c, 0, 81, 24
1, 67770, Control_c, 0, 64, 84
1, 67784, Control_c, 0, 64, 81
1, 67794, Note_on_c, 0, 50, 38
1, 67799, Control_c, 0, 64, 78
1, 67814, Control_c, 0, 64, 76
1, 67814, Control_c, 0, 67, 50
1, 67828, Control_c, 0, 64, 73
1, 67843, Control_c, 0, 64, 71
1, 67858, Control_c, 0, 64, 68
1, 67864, Note_on_c, 0, 79, 45
1, 67874, Control_c, 0, 64, 65
1, 67889, Control_c, 0, 64, 62
1, 67904, Control_c, 0, 64, 59
1, 67918, Control_c, 0, 64, 56
1, 67933, Control_c, 0, 64, 51
1, 67948, Control_c, 0, 64, 46
1, 67963, Control_c, 0, 64, 36
1, 67963, Control_c, 0, 67, 51
1, 67978, Control_c, 0, 64, 17
1, 67992, Control_c, 0, 64, 0
1, 68066, Control_c, 0, 67, 51
1, 68077, Note_on_c, 0, 77, 54
1, 68081, Control_c, 0, 67, 52
1, 68096, Control_c, 0, 67, 52
1, 68111, Control_c, 0, 67, 53
1, 68113, Note_off_c, 0, 79, 61
1, 68125, Control_c, 0, 67, 55
1, 68139, Note_off_c, 0, 77, 61
1, 68140, Control_c, 0, 67, 57
1, 68155, Control_c, 0, 67, 58
1, 68250, Note_on_c, 0, 59, 34
1, 68262, Note_on_c, 0, 76, 56
1, 68424, Note_on_c, 0, 74, 60
1, 68440, Note_off_c, 0, 76, 65
1, 68471, Note_off_c, 0, 74, 60
1, 68578, Control_c, 0, 67, 57
1, 68583, Note_on_c, 0, 62, 45
1, 68587, Note_on_c, 0, 72, 53
1, 68637, Control_c, 0, 67, 57
1, 68666, Control_c, 0, 67, 56
1, 68682, Control_c, 0, 67, 56
1, 68697, Control_c, 0, 67, 55
1, 68712, Control_c, 0, 67, 55
1, 68727, Control_c, 0, 67, 54
1, 68741, Control_c, 0, 67, 54
1, 68743, Note_off_c, 0, 50, 40
1, 68752, Note_off_c, 0, 62, 59
1, 68756, Control_c, 0, 67, 53
1, 68770, Note_on_c, 0, 71, 61
1, 68777, Note_off_c, 0, 59, 42
1, 68786, Control_c, 0, 67, 52
1, 68801, Control_c, 0, 67, 51
1, 68815, Control_c, 0, 67, 51
1, 68821, Note_off_c, 0, 72, 60
1, 68830, Control_c, 0, 67, 50
1, 68840, Note_off_c, 0, 71, 62
1, 68845, Control_c, 0, 67, 49
1, 68860, Control_c, 0, 67, 48
1, 68874, Control_c, 0, 67, 47
1, 68889, Control_c, 0, 67, 45
1, 68904, Control_c, 0, 67, 42
1, 68919, Control_c, 0, 67, 38
1, 68934, Control_c, 0, 67, 32
1, 68956, Note_on_c, 0, 60, 35
1, 68956, Control_c, 0, 67, 24
1, 68960, Note_on_c, 0, 52, 37
1, 68969, Note_on_c, 0, 69, 44
1, 68971, Control_c, 0, 67, 15
1, 68986, Control_c, 0, 67, 0
1, 69001, Control_c, 0, 64, 30
1, 69016, Control_c, 0, 64, 39
1, 69030, Control_c, 0, 64, 46
1, 69045, Control_c, 0, 64, 53
1, 69060, Control_c, 0, 64, 58
1, 69074, Control_c, 0, 64, 61
1, 69089, Control_c, 0, 64, 62
1, 69104, Control_c, 0, 64, 63
1, 69119, Control_c, 0, 64, 65
1, 69134, Control_c, 0, 64, 66
1, 69148, Control_c, 0, 64, 66
1, 69163, Control_c, 0, 64, 67
1, 69193, Control_c, 0, 64, 67
1, 69208, Control_c, 0, 64, 68
1, 69266, Control_c, 0, 64, 67
1, 69281, Control_c, 0, 64, 66
1, 69296, Control_c, 0, 64, 65
1, 69311, Control_c, 0, 64, 64
1, 69326, Control_c, 0, 64, 59
1, 69340, Control_c, 0, 64, 45
1, 69355, Control_c, 0, 64, 0
1, 69408, Note_on_c, 0, 68, 41
1, 69418, Note_on_c, 0, 59, 29
1, 69511, Note_off_c, 0, 60, 31
1, 69522, Note_off_c, 0, 69, 37
1, 69564, Control_c, 0, 64, 46
1, 69578, Control_c, 0, 64, 57
1, 69593, Control_c, 0, 64, 61
1, 69608, Control_c, 0, 64, 63
1, 69623, Control_c, 0, 64, 65
1, 69637, Control_c, 0, 64, 68
1, 69652, Control_c, 0, 64, 72
1, 69660, Note_off_c, 0, 52, 40
1, 69667, Control_c, 0, 64, 76
1, 69682, Control_c, 0, 64, 81
1, 69704, Control_c, 0, 64, 85
1, 69719, Control_c, 0, 64, 90
1, 69734, Control_c, 0, 64, 97
1, 69749, Control_c, 0, 64, 105
1, 69764, Control_c, 0, 64, 121
1, 69778, Control_c, 0, 64, 127
1, 69782, Note_off_c, 0, 59, 40
1, 69873, Note_on_c, 0, 76, 48
1, 69945, Note_off_c, 0, 68, 36
1, 69965, Note_off_c, 0, 76, 55
1, 70450, Note_on_c, 0, 57, 23
1, 70453, Control_c, 0, 64, 112
1, 70468, Control_c, 0, 64, 100
1, 70483, Control_c, 0, 64, 90
1, 70498, Control_c, 0, 64, 81
1, 70501, Note_on_c, 0, 75, 51
1, 70513, Control_c, 0, 64, 74
1, 70527, Control_c, 0, 64, 69
1, 70542, Control_c, 0, 64, 66
1, 70557, Control_c, 0, 64, 61
1, 70572, Control_c, 0, 64, 53
1, 70587, Control_c, 0, 64, 43
1, 70602, Control_c, 0, 64, 35
1, 70617, Control_c, 0, 64, 28
1, 70632, Control_c, 0, 64, 18
1, 70646, Control_c, 0, 64, 0
1, 70741, Note_on_c, 0, 76, 61
1, 70832, Note_off_c, 0, 75, 60
1, 70942, Note_on_c, 0, 77, 66
1, 70957, Note_on_c, 0, 60, 30
1, 70962, Note_on_c, 0, 64, 29
1, 71016, Note_off_c, 0, 76, 61
1, 71106, Control_c, 0, 64, 42
1, 71121, Control_c, 0, 64, 59
1, 71134, Note_on_c, 0, 76, 65
1, 71136, Control_c, 0, 64, 62
1, 71150, Control_c, 0, 64, 64
1, 71165, Control_c, 0, 64, 67
1, 71172, Note_off_c, 0, 64, 46
1, 71180, Control_c, 0, 64, 69
1, 71195, Note_off_c, 0, 60, 41
1, 71202, Control_c, 0, 64, 72
1, 71216, Control_c, 0, 64, 74
1, 71231, Control_c, 0, 64, 75
1, 71291, Control_c, 0, 64, 74
1, 71297, Note_off_c, 0, 77, 50
1, 71305, Note_on_c, 0, 75, 60
1, 71305, Control_c, 0, 64, 70
1, 71319, Note_on_c, 0, 64, 34
1, 71320, Note_on_c, 0, 60, 35
1, 71320, Control_c, 0, 64, 62
1, 71335, Control_c, 0, 64, 26
1, 71350, Control_c, 0, 64, 0
1, 71373, Note_off_c, 0, 76, 63
1, 71410, Control_c, 0, 64, 54
1, 71424, Control_c, 0, 64, 65
1, 71427, Note_off_c, 0, 57, 41
1, 71439, Control_c, 0, 64, 70
1, 71454, Control_c, 0, 64, 74
1, 71468, Control_c, 0, 64, 75
1, 71487, Note_on_c, 0, 76, 68
1, 71545, Note_off_c, 0, 76, 60
1, 71571, Control_c, 0, 64, 75
1, 71573, Note_off_c, 0, 75, 58
1, 71586, Control_c, 0, 64, 73
1, 71601, Control_c, 0, 64, 71
1, 71615, Control_c, 0, 64, 70
1, 71630, Control_c, 0, 64, 69
1, 71645, Control_c, 0, 64, 67
1, 71660, Control_c, 0, 64, 63
1, 71675, Control_c, 0, 64, 52
1, 71678, Note_on_c, 0, 76, 52
1, 71690, Control_c, 0, 64, 15
1, 71705, Control_c, 0, 64, 0
1, 71706, Note_on_c, 0, 57, 26
1, 71708, Note_off_c, 0, 60, 36
1, 71809, Note_off_c, 0, 64, 36
1, 72155, Note_on_c, 0, 69, 37
1, 72161, Note_on_c, 0, 61, 29
1, 72173, Note_on_c, 0, 64, 27
1, 72233, Note_off_c, 0, 76, 25
1, 72261, Control_c, 0, 64, 47
1, 72276, Control_c, 0, 64, 56
1, 72290, Control_c, 0, 64, 61
1, 72305, Control_c, 0, 64, 64
1, 72320, Control_c, 0, 64, 65
1, 72335, Control_c, 0, 64, 68
1, 72350, Control_c, 0, 64, 70
1, 72364, Control_c, 0, 64, 75
1, 72379, Control_c, 0, 64, 81
1, 72394, Control_c, 0, 64, 86
1, 72404, Note_off_c, 0, 64, 44
1, 72408, Note_off_c, 0, 61, 42
1, 72409, Control_c, 0, 64, 90
1, 72423, Control_c, 0, 64, 95
1, 72438, Control_c, 0, 64, 101
1, 72453, Control_c, 0, 64, 110
1, 72468, Control_c, 0, 64, 127
1, 72513, Control_c, 0, 64, 114
1, 72528, Control_c, 0, 64, 83
1, 72543, Control_c, 0, 64, 65
1, 72549, Note_off_c, 0, 69, 46
1, 72550, Note_on_c, 0, 61, 31
1, 72557, Control_c, 0, 64, 58
1, 72571, Note_on_c, 0, 64, 32
1, 72572, Control_c, 0, 64, 64
1, 72587, Control_c, 0, 64, 71
1, 72602, Control_c, 0, 64, 92
1, 72616, Control_c, 0, 64, 127
1, 72674, Note_off_c, 0, 57, 41
1, 72708, Note_on_c, 0, 71, 54
1, 72762, Note_off_c, 0, 71, 61
1, 72772, Note_on_c, 0, 69, 36
1, 72808, Note_off_c, 0, 69, 53
1, 72819, Note_on_c, 0, 68, 56
1, 72851, Note_off_c, 0, 68, 62
1, 72862, Control_c, 0, 64, 116
1, 72870, Note_on_c, 0, 69, 57
1, 72876, Control_c, 0, 64, 115
1, 72891, Control_c, 0, 64, 112
1, 72906, Control_c, 0, 64, 106
1, 72921, Control_c, 0, 64, 100
1, 72936, Control_c, 0, 64, 97
1, 72951, Control_c, 0, 64, 95
1, 72966, Control_c, 0, 64, 91
1, 72981, Control_c, 0, 64, 83
1, 72983, Note_on_c, 0, 72, 51
1, 72995, Control_c, 0, 64, 77
1, 72998, Note_on_c, 0, 57, 37
1, 73000, Note_off_c, 0, 69, 36
1, 73010, Control_c, 0, 64, 73
1, 73022, Note_off_c, 0, 64, 38
1, 73025, Control_c, 0, 64, 71
1, 73035, Note_off_c, 0, 61, 34
1, 73039, Control_c, 0, 64, 67
1, 73054, Control_c, 0, 64, 62
1, 73069, Control_c, 0, 64, 48
1, 73084, Control_c, 0, 64, 18
1, 73099, Control_c, 0, 64, 0
1, 73416, Note_on_c, 0, 70, 50
1, 73453, Note_on_c, 0, 65, 29
1, 73461, Note_on_c, 0, 62, 30
1, 73507, Control_c, 0, 64, 12
1, 73522, Control_c, 0, 64, 51
1, 73536, Control_c, 0, 64, 58
1, 73539, Note_off_c, 0, 72, 46
1, 73551, Control_c, 0, 64, 61
1, 73566, Control_c, 0, 64, 65
1, 73581, Control_c, 0, 64, 68
1, 73596, Control_c, 0, 64, 71
1, 73610, Control_c, 0, 64, 77
1, 73625, Control_c, 0, 64, 82
1, 73640, Control_c, 0, 64, 85
1, 73643, Note_off_c, 0, 65, 41
1, 73652, Note_off_c, 0, 62, 41
1, 73655, Control_c, 0, 64, 86
1, 73699, Control_c, 0, 64, 86
1, 73714, Control_c, 0, 64, 87
1, 73777, Note_on_c, 0, 65, 45
1, 73780, Note_on_c, 0, 62, 46
1, 73800, Note_off_c, 0, 70, 28
1, 73804, Control_c, 0, 64, 86
1, 73818, Control_c, 0, 64, 86
1, 73833, Control_c, 0, 64, 84
1, 73848, Control_c, 0, 64, 82
1, 73863, Control_c, 0, 64, 80
1, 73869, Note_off_c, 0, 57, 52
1, 73878, Control_c, 0, 64, 78
1, 73893, Control_c, 0, 64, 76
1, 73902, Note_on_c, 0, 72, 61
1, 73908, Control_c, 0, 64, 75
1, 73923, Control_c, 0, 64, 72
1, 73936, Note_off_c, 0, 72, 64
1, 73937, Control_c, 0, 64, 68
1, 73947, Note_on_c, 0, 71, 52
1, 73952, Control_c, 0, 64, 63
1, 73967, Control_c, 0, 64, 58
1, 73973, Note_off_c, 0, 71, 62
1, 73982, Control_c, 0, 64, 48
1, 73984, Note_on_c, 0, 69, 67
1, 73997, Control_c, 0, 64, 0
1, 74036, Note_on_c, 0, 71, 62
1, 74079, Note_off_c, 0, 69, 47
1, 74119, Note_on_c, 0, 74, 68
1, 74134, Note_on_c, 0, 57, 33
1, 74166, Note_off_c, 0, 62, 31
1, 74251, Note_off_c, 0, 65, 42
1, 74257, Note_off_c, 0, 71, 56
1, 74561, Note_on_c, 0, 72, 46
1, 74569, Note_on_c, 0, 67, 35
1, 74578, Note_on_c, 0, 64, 33
1, 74621, Note_off_c, 0, 74, 62
1, 74656, Control_c, 0, 64, 39
1, 74671, Control_c, 0, 64, 60
1, 74686, Control_c, 0, 64, 63
1, 74701, Control_c, 0, 64, 64
1, 74716, Control_c, 0, 64, 67
1, 74731, Control_c, 0, 64, 72
1, 74745, Control_c, 0, 64, 80
1, 74760, Control_c, 0, 64, 83
1, 74775, Control_c, 0, 64, 84
1, 74777, Note_off_c, 0, 67, 36
1, 74785, Note_off_c, 0, 64, 41
1, 74790, Control_c, 0, 64, 85
1, 74804, Control_c, 0, 64, 88
1, 74808, Note_off_c, 0, 72, 64
1, 74819, Control_c, 0, 64, 90
1, 74834, Control_c, 0, 64, 90
1, 74893, Note_on_c, 0, 67, 56
1, 74900, Note_on_c, 0, 64, 47
1, 74908, Control_c, 0, 64, 90
1, 74923, Control_c, 0, 64, 88
1, 74945, Control_c, 0, 64, 85
1, 74960, Control_c, 0, 64, 82
1, 74975, Control_c, 0, 64, 79
1, 74990, Control_c, 0, 64, 75
1, 75005, Control_c, 0, 64, 73
1, 75019, Control_c, 0, 64, 73
1, 75024, Note_on_c, 0, 74, 53
1, 75029, Note_off_c, 0, 57, 40
1, 75034, Control_c, 0, 64, 71
1, 75049, Control_c, 0, 64, 69
1, 75055, Note_off_c, 0, 74, 66
1, 75064, Control_c, 0, 64, 67
1, 75067, Note_on_c, 0, 73, 60
1, 75079, Control_c, 0, 64, 64
1, 75094, Control_c, 0, 64, 62
1, 75098, Note_off_c, 0, 73, 65
1, 75107, Note_on_c, 0, 71, 69
1, 75109, Control_c, 0, 64, 61
1, 75124, Control_c, 0, 64, 57
1, 75139, Control_c, 0, 64, 47
1, 75154, Control_c, 0, 64, 0
1, 75160, Note_on_c, 0, 73, 75
1, 75198, Note_off_c, 0, 71, 37
1, 75225, Note_on_c, 0, 76, 77
1, 75233, Note_on_c, 0, 57, 40
1, 75292, Note_off_c, 0, 73, 38
1, 75303, Note_off_c, 0, 67, 29
1, 75336, Note_off_c, 0, 64, 40
1, 75618, Note_on_c, 0, 74, 72
1, 75625, Note_on_c, 0, 65, 40
1, 75625, Note_on_c, 0, 69, 41
1, 75670, Note_off_c, 0, 76, 64
1, 75723, Control_c, 0, 64, 19
1, 75738, Control_c, 0, 64, 30
1, 75753, Control_c, 0, 64, 44
1, 75764, Note_off_c, 0, 69, 62
1, 75768, Control_c, 0, 64, 54
1, 75783, Control_c, 0, 64, 60
1, 75798, Control_c, 0, 64, 63
1, 75810, Note_off_c, 0, 65, 61
1, 75813, Control_c, 0, 64, 65
1, 75828, Control_c, 0, 64, 67
1, 75842, Control_c, 0, 64, 69
1, 75857, Control_c, 0, 64, 71
1, 75872, Control_c, 0, 64, 73
1, 75887, Control_c, 0, 64, 73
1, 75977, Control_c, 0, 64, 73
1, 75991, Control_c, 0, 64, 72
1, 76006, Control_c, 0, 64, 70
1, 76007, Note_on_c, 0, 59, 36
1, 76015, Note_on_c, 0, 68, 42
1, 76020, Control_c, 0, 64, 67
1, 76035, Control_c, 0, 64, 63
1, 76039, Note_on_c, 0, 77, 72
1, 76050, Control_c, 0, 64, 56
1, 76064, Control_c, 0, 64, 50
1, 76068, Note_off_c, 0, 57, 37
1, 76079, Control_c, 0, 64, 36
1, 76094, Control_c, 0, 64, 0
1, 76113, Note_off_c, 0, 74, 61
1, 76138, Control_c, 0, 64, 33
1, 76153, Control_c, 0, 64, 56
1, 76168, Control_c, 0, 64, 63
1, 76183, Control_c, 0, 64, 66
1, 76198, Control_c, 0, 64, 73
1, 76209, Note_off_c, 0, 68, 61
1, 76212, Control_c, 0, 64, 79
1, 76227, Control_c, 0, 64, 82
1, 76242, Control_c, 0, 64, 83
1, 76257, Control_c, 0, 64, 86
1, 76272, Control_c, 0, 64, 88
1, 76287, Control_c, 0, 64, 89
1, 76390, Control_c, 0, 64, 88
1, 76405, Control_c, 0, 64, 87
1, 76420, Control_c, 0, 64, 85
1, 76442, Control_c, 0, 64, 82
1, 76456, Control_c, 0, 64, 78
1, 76471, Control_c, 0, 64, 73
1, 76486, Control_c, 0, 64, 69
1, 76487, Note_on_c, 0, 69, 28
1, 76491, Note_on_c, 0, 57, 33
1, 76501, Control_c, 0, 64, 67
1, 76505, Note_on_c, 0, 60, 32
1, 76516, Control_c, 0, 64, 64
1, 76531, Control_c, 0, 64, 58
1, 76546, Control_c, 0, 64, 31
1, 76553, Note_on_c, 0, 76, 68
1, 76561, Control_c, 0, 64, 0
1, 76570, Note_off_c, 0, 77, 54
1, 76644, Note_off_c, 0, 59, 42
1, 76727, Note_on_c, 0, 81, 67
1, 76739, Note_off_c, 0, 76, 62
1, 76789, Note_off_c, 0, 81, 57
1, 76845, Note_on_c, 0, 79, 74
1, 76865, Note_off_c, 0, 69, 46
1, 76883, Note_off_c, 0, 79, 57
1, 76952, Note_on_c, 0, 77, 71
1, 76977, Note_off_c, 0, 77, 66
1, 76996, Note_off_c, 0, 57, 42
1, 77005, Note_off_c, 0, 60, 50
1, 77062, Note_on_c, 0, 76, 55
1, 77084, Note_off_c, 0, 76, 60
1, 77156, Note_on_c, 0, 74, 66
1, 77187, Note_off_c, 0, 74, 69
1, 77265, Note_on_c, 0, 72, 67
1, 77294, Note_off_c, 0, 72, 63
1, 77381, Note_on_c, 0, 71, 49
1, 77419, Note_off_c, 0, 71, 62
1, 77472, Note_on_c, 0, 69, 52
1, 77500, Note_off_c, 0, 69, 65
1, 77642, Note_on_c, 0, 52, 38
1, 77648, Note_on_c, 0, 64, 28
1, 77665, Note_on_c, 0, 69, 41
1, 77669, Note_on_c, 0, 72, 52
1, 77682, Control_c, 0, 64, 20
1, 77697, Control_c, 0, 64, 23
1, 77711, Control_c, 0, 64, 34
1, 77726, Control_c, 0, 64, 50
1, 77741, Control_c, 0, 64, 56
1, 77756, Control_c, 0, 64, 57
1, 77771, Control_c, 0, 64, 56
1, 77785, Control_c, 0, 64, 55
1, 77800, Control_c, 0, 64, 53
1, 77815, Control_c, 0, 64, 49
1, 77829, Control_c, 0, 64, 44
1, 77834, Note_off_c, 0, 72, 63
1, 77844, Control_c, 0, 64, 28
1, 77858, Note_on_c, 0, 74, 53
1, 77859, Control_c, 0, 64, 0
1, 77905, Note_on_c, 0, 72, 58
1, 77905, Note_off_c, 0, 74, 60
1, 77956, Note_off_c, 0, 72, 64
1, 77962, Note_on_c, 0, 71, 62
1, 78031, Note_on_c, 0, 72, 60
1, 78055, Note_off_c, 0, 71, 40
1, 78216, Note_on_c, 0, 74, 63
1, 78227, Note_off_c, 0, 72, 64
1, 78230, Note_off_c, 0, 64, 42
1, 78449, Note_on_c, 0, 68, 47
1, 78451, Note_on_c, 0, 62, 34
1, 78454, Note_on_c, 0, 71, 48
1, 78546, Note_off_c, 0, 69, 38
1, 78658, Note_off_c, 0, 74, 27
1, 78969, Note_on_c, 0, 57, 27
1, 78972, Note_on_c, 0, 69, 45
1, 78981, Note_on_c, 0, 60, 27
1, 79052, Note_off_c, 0, 68, 50
1, 79058, Note_off_c, 0, 62, 29
1, 79082, Note_off_c, 0, 52, 31
1, 79086, Note_off_c, 0, 71, 34
1, 79179, Control_c, 0, 64, 12
1, 79194, Control_c, 0, 64, 41
1, 79208, Control_c, 0, 64, 55
1, 79223, Control_c, 0, 64, 61
1, 79238, Control_c, 0, 64, 63
1, 79253, Control_c, 0, 64, 64
1, 79268, Control_c, 0, 64, 66
1, 79281, Note_off_c, 0, 69, 37
1, 79282, Control_c, 0, 64, 68
1, 79297, Control_c, 0, 64, 71
1, 79312, Control_c, 0, 64, 75
1, 79327, Control_c, 0, 64, 79
1, 79342, Control_c, 0, 64, 81
1, 79357, Control_c, 0, 64, 82
1, 79409, Note_off_c, 0, 60, 41
1, 79437, Note_off_c, 0, 57, 40
1, 79586, Control_c, 0, 64, 82
1, 79616, Control_c, 0, 64, 81
1, 79631, Control_c, 0, 64, 80
1, 79646, Control_c, 0, 64, 79
1, 79661, Control_c, 0, 64, 79
1, 79676, Control_c, 0, 64, 78
1, 79690, Control_c, 0, 64, 76
1, 79705, Control_c, 0, 64, 75
1, 79720, Control_c, 0, 64, 73
1, 79734, Control_c, 0, 64, 71
1, 79749, Control_c, 0, 64, 69
1, 79763, Control_c, 0, 64, 67
1, 79778, Control_c, 0, 64, 66
1, 79793, Control_c, 0, 64, 64
1, 79807, Control_c, 0, 64, 63
1, 79822, Control_c, 0, 64, 61
1, 79837, Control_c, 0, 64, 56
1, 79853, Control_c, 0, 64, 50
1, 79868, Control_c, 0, 64, 43
1, 79883, Control_c, 0, 64, 32
1, 79897, Control_c, 0, 64, 12
1, 79912, Control_c, 0, 64, 0
1, 79942, Control_c, 0, 64, 33
1, 79957, Control_c, 0, 64, 48
1, 79971, Control_c, 0, 64, 55
1, 79986, Control_c, 0, 64, 59
1, 79988, Note_on_c, 0, 72, 65
1, 80001, Control_c, 0, 64, 63
1, 80016, Control_c, 0, 64, 67
1, 80031, Control_c, 0, 64, 71
1, 80045, Control_c, 0, 64, 75
1, 80060, Control_c, 0, 64, 80
1, 80075, Control_c, 0, 64, 83
1, 80090, Control_c, 0, 64, 89
1, 80105, Control_c, 0, 64, 97
1, 80120, Control_c, 0, 64, 110
1, 80135, Control_c, 0, 64, 127
1, 80354, Note_off_c, 0, 72, 31
1, 80469, Note_on_c, 0, 53, 39
1, 80470, Note_on_c, 0, 41, 37
1, 80499, Note_on_c, 0, 71, 56
1, 80513, Control_c, 0, 64, 107
1, 80528, Control_c, 0, 64, 94
1, 80543, Control_c, 0, 64, 85
1, 80557, Control_c, 0, 64, 77
1, 80560, Note_on_c, 0, 72, 69
1, 80572, Control_c, 0, 64, 70
1, 80576, Note_off_c, 0, 71, 59
1, 80587, Control_c, 0, 64, 64
1, 80602, Control_c, 0, 64, 51
1, 80607, Note_off_c, 0, 72, 63
1, 80612, Note_on_c, 0, 74, 70
1, 80617, Control_c, 0, 64, 18
1, 80631, Control_c, 0, 64, 0
1, 80661, Note_on_c, 0, 72, 65
1, 80715, Note_off_c, 0, 74, 55
1, 80898, Note_on_c, 0, 64, 52
1, 80995, Control_c, 0, 64, 29
1, 81010, Control_c, 0, 64, 51
1, 81025, Control_c, 0, 64, 57
1, 81040, Control_c, 0, 64, 60
1, 81054, Control_c, 0, 64, 62
1, 81069, Control_c, 0, 64, 65
1, 81084, Control_c, 0, 64, 66
1, 81086, Note_on_c, 0, 65, 65
1, 81099, Control_c, 0, 64, 67
1, 81114, Control_c, 0, 64, 68
1, 81120, Note_off_c, 0, 64, 56
1, 81217, Control_c, 0, 64, 67
1, 81232, Control_c, 0, 64, 67
1, 81247, Control_c, 0, 64, 66
1, 81261, Note_off_c, 0, 65, 62
1, 81262, Control_c, 0, 64, 64
1, 81262, Note_on_c, 0, 67, 74
1, 81277, Control_c, 0, 64, 63
1, 81292, Control_c, 0, 64, 61
1, 81306, Control_c, 0, 64, 57
1, 81321, Control_c, 0, 64, 49
1, 81336, Control_c, 0, 64, 39
1, 81351, Control_c, 0, 64, 25
1, 81366, Control_c, 0, 64, 0
1, 81436, Note_on_c, 0, 69, 73
1, 81514, Note_off_c, 0, 67, 44
1, 81599, Note_on_c, 0, 70, 76
1, 81647, Note_off_c, 0, 69, 62
1, 81799, Note_on_c, 0, 69, 64
1, 81824, Note_off_c, 0, 70, 60
1, 82004, Note_on_c, 0, 70, 72
1, 82050, Note_off_c, 0, 69, 61
1, 82084, Control_c, 0, 64, 18
1, 82099, Control_c, 0, 64, 22
1, 82114, Control_c, 0, 64, 26
1, 82129, Control_c, 0, 64, 32
1, 82144, Control_c, 0, 64, 35
1, 82159, Control_c, 0, 64, 37
1, 82170, Note_on_c, 0, 69, 66
1, 82174, Control_c, 0, 64, 38
1, 82245, Note_off_c, 0, 70, 55
1, 82263, Control_c, 0, 64, 37
1, 82278, Control_c, 0, 64, 36
1, 82293, Control_c, 0, 64, 36
1, 82308, Control_c, 0, 64, 35
1, 82323, Control_c, 0, 64, 34
1, 82338, Control_c, 0, 64, 33
1, 82343, Note_on_c, 0, 67, 74
1, 82353, Control_c, 0, 64, 32
1, 82367, Control_c, 0, 64, 31
1, 82381, Note_off_c, 0, 69, 67
1, 82382, Control_c, 0, 64, 30
1, 82397, Control_c, 0, 64, 29
1, 82412, Control_c, 0, 64, 29
1, 82433, Control_c, 0, 64, 28
1, 82448, Control_c, 0, 64, 27
1, 82463, Control_c, 0, 64, 26
1, 82478, Control_c, 0, 64, 25
1, 82493, Control_c, 0, 64, 23
1, 82508, Control_c, 0, 64, 21
1, 82517, Note_on_c, 0, 65, 67
1, 82523, Control_c, 0, 64, 19
1, 82538, Control_c, 0, 64, 15
1, 82552, Control_c, 0, 64, 12
1, 82567, Control_c, 0, 64, 8
1, 82573, Note_off_c, 0, 67, 59
1, 82582, Control_c, 0, 64, 0
1, 82695, Note_on_c, 0, 63, 72
1, 82779, Note_off_c, 0, 65, 44
1, 82863, Note_on_c, 0, 62, 69
1, 82909, Note_off_c, 0, 63, 63
1, 82967, Control_c, 0, 64, 8
1, 82982, Control_c, 0, 64, 36
1, 82997, Control_c, 0, 64, 48
1, 83011, Control_c, 0, 64, 56
1, 83024, Note_off_c, 0, 72, 62
1, 83026, Control_c, 0, 64, 61
1, 83041, Control_c, 0, 64, 63
1, 83042, Note_on_c, 0, 64, 70
1, 83056, Control_c, 0, 64, 64
1, 83071, Control_c, 0, 64, 65
1, 83086, Control_c, 0, 64, 68
1, 83101, Control_c, 0, 64, 70
1, 83116, Control_c, 0, 64, 72
1, 83131, Control_c, 0, 64, 73
1, 83182, Control_c, 0, 64, 72
1, 83183, Note_off_c, 0, 62, 36
1, 83195, Note_off_c, 0, 64, 64
1, 83197, Control_c, 0, 64, 69
1, 83212, Control_c, 0, 64, 62
1, 83214, Note_on_c, 0, 70, 73
1, 83227, Control_c, 0, 64, 33
1, 83235, Note_on_c, 0, 65, 49
1, 83242, Control_c, 0, 64, 0
1, 83286, Control_c, 0, 64, 12
1, 83301, Control_c, 0, 64, 45
1, 83316, Control_c, 0, 64, 55
1, 83330, Control_c, 0, 64, 61
1, 83345, Control_c, 0, 64, 65
1, 83352, Note_off_c, 0, 53, 44
1, 83360, Control_c, 0, 64, 68
1, 83375, Control_c, 0, 64, 73
1, 83390, Control_c, 0, 64, 78
1, 83394, Note_on_c, 0, 62, 62
1, 83405, Control_c, 0, 64, 84
1, 83420, Control_c, 0, 64, 87
1, 83435, Control_c, 0, 64, 89
1, 83449, Control_c, 0, 64, 90
1, 83468, Note_off_c, 0, 70, 54
1, 83478, Control_c, 0, 64, 90
1, 83549, Note_off_c, 0, 41, 28
1, 83549, Note_off_c, 0, 65, 23
1, 83552, Control_c, 0, 64, 85
1, 83566, Note_on_c, 0, 69, 82
1, 83567, Control_c, 0, 64, 71
1, 83581, Control_c, 0, 64, 62
1, 83583, Note_on_c, 0, 60, 57
1, 83596, Control_c, 0, 64, 51
1, 83602, Note_off_c, 0, 62, 38
1, 83611, Control_c, 0, 64, 56
1, 83626, Control_c, 0, 64, 62
1, 83631, Poly_aftertouch_c, 0, 43, 0
1, 83641, Control_c, 0, 64, 66
1, 83655, Control_c, 0, 64, 71
1, 83670, Control_c, 0, 64, 79
1, 83685, Control_c, 0, 64, 86
1, 83700, Control_c, 0, 64, 88
1, 83715, Control_c, 0, 64, 91
1, 83730, Control_c, 0, 64, 92
1, 83739, Note_on_c, 0, 65, 69
1, 83752, Note_off_c, 0, 60, 61
1, 83760, Control_c, 0, 64, 93
1, 83774, Control_c, 0, 64, 93
1, 83789, Control_c, 0, 64, 94
1, 83797, Note_off_c, 0, 69, 62
1, 83879, Control_c, 0, 64, 90
1, 83894, Control_c, 0, 64, 83
1, 83909, Control_c, 0, 64, 73
1, 83931, Control_c, 0, 64, 64
1, 83939, Note_on_c, 0, 67, 75
1, 83945, Control_c, 0, 64, 50
1, 83946, Note_on_c, 0, 46, 59
1, 83950, Note_on_c, 0, 58, 58
1, 83956, Note_off_c, 0, 65, 55
1, 83960, Control_c, 0, 64, 12
1, 83975, Control_c, 0, 64, 0
1, 84034, Control_c, 0, 64, 46
1, 84049, Control_c, 0, 64, 61
1, 84064, Control_c, 0, 64, 65
1, 84079, Control_c, 0, 64, 69
1, 84094, Control_c, 0, 64, 73
1, 84108, Control_c, 0, 64, 77
1, 84123, Control_c, 0, 64, 83
1, 84134, Note_on_c, 0, 62, 58
1, 84138, Control_c, 0, 64, 87
1, 84175, Note_off_c, 0, 67, 60
1, 84197, Note_off_c, 0, 58, 59
1, 84242, Note_off_c, 0, 46, 37
1, 84271, Control_c, 0, 64, 85
1, 84286, Control_c, 0, 64, 81
1, 84299, Note_on_c, 0, 48, 67
1, 84301, Control_c, 0, 64, 73
1, 84302, Note_on_c, 0, 65, 75
1, 84314, Note_off_c, 0, 62, 57
1, 84316, Control_c, 0, 64, 64
1, 84318, Note_on_c, 0, 57, 62
1, 84330, Control_c, 0, 64, 20
1, 84345, Control_c, 0, 64, 0
1, 84404, Control_c, 0, 64, 36
1, 84419, Control_c, 0, 64, 62
1, 84434, Control_c, 0, 64, 68
1, 84449, Control_c, 0, 64, 72
1, 84464, Control_c, 0, 64, 76
1, 84478, Control_c, 0, 64, 77
1, 84484, Note_on_c, 0, 60, 69
1, 84493, Control_c, 0, 64, 78
1, 84508, Control_c, 0, 64, 78
1, 84516, Note_off_c, 0, 57, 60
1, 84537, Note_off_c, 0, 48, 46
1, 84562, Note_off_c, 0, 65, 56
1, 84582, Control_c, 0, 64, 78
1, 84597, Control_c, 0, 64, 76
1, 84612, Control_c, 0, 64, 71
1, 84627, Control_c, 0, 64, 65
1, 84642, Control_c, 0, 64, 54
1, 84654, Note_on_c, 0, 36, 58
1, 84657, Control_c, 0, 64, 0
1, 84660, Note_on_c, 0, 64, 73
1, 84671, Note_off_c, 0, 60, 61
1, 84682, Note_on_c, 0, 55, 63
1, 84739, Control_c, 0, 64, 53
1, 84754, Control_c, 0, 64, 64
1, 84758, Note_off_c, 0, 36, 57
1, 84768, Control_c, 0, 64, 69
1, 84783, Control_c, 0, 64, 73
1, 84798, Control_c, 0, 64, 75
1, 84813, Control_c, 0, 64, 77
1, 84827, Control_c, 0, 64, 80
1, 84842, Control_c, 0, 64, 81
1, 84848, Note_on_c, 0, 58, 64
1, 84963, Note_off_c, 0, 55, 32
1, 85022, Note_off_c, 0, 64, 26
1, 85035, Control_c, 0, 64, 80
1, 85050, Control_c, 0, 64, 78
1, 85052, Note_on_c, 0, 41, 67
1, 85060, Note_on_c, 0, 65, 71
1, 85065, Control_c, 0, 64, 77
1, 85077, Note_off_c, 0, 58, 63
1, 85080, Control_c, 0, 64, 75
1, 85094, Control_c, 0, 64, 72
1, 85109, Control_c, 0, 64, 69
1, 85124, Control_c, 0, 64, 66
1, 85138, Control_c, 0, 64, 64
1, 85153, Control_c, 0, 64, 61
1, 85168, Control_c, 0, 64, 54
1, 85183, Control_c, 0, 64, 0
1, 85278, Note_on_c, 0, 64, 70
1, 85333, Note_off_c, 0, 65, 58
1, 85405, Control_c, 0, 64, 32
1, 85427, Control_c, 0, 64, 50
1, 85443, Control_c, 0, 64, 54
1, 85447, Note_on_c, 0, 65, 77
1, 85458, Control_c, 0, 64, 55
1, 85460, Note_off_c, 0, 64, 64
1, 85473, Control_c, 0, 64, 56
1, 85503, Control_c, 0, 64, 56
1, 85517, Control_c, 0, 64, 57
1, 85532, Control_c, 0, 64, 56
1, 85547, Control_c, 0, 64, 55
1, 85562, Control_c, 0, 64, 54
1, 85576, Control_c, 0, 64, 51
1, 85591, Control_c, 0, 64, 44
1, 85606, Control_c, 0, 64, 29
1, 85621, Note_on_c, 0, 67, 81
1, 85621, Control_c, 0, 64, 0
1, 85649, Note_off_c, 0, 65, 50
1, 85710, Control_c, 0, 64, 23
1, 85724, Control_c, 0, 64, 53
1, 85739, Control_c, 0, 64, 60
1, 85754, Control_c, 0, 64, 64
1, 85769, Control_c, 0, 64, 65
1, 85781, Note_on_c, 0, 69, 79
1, 85784, Control_c, 0, 64, 65
1, 85840, Note_off_c, 0, 67, 58
1, 85917, Control_c, 0, 64, 66
1, 85943, Note_on_c, 0, 70, 73
1, 85995, Note_off_c, 0, 69, 63
1, 86006, Control_c, 0, 64, 65
1, 86021, Control_c, 0, 64, 65
1, 86035, Control_c, 0, 64, 64
1, 86065, Control_c, 0, 64, 64
1, 86080, Control_c, 0, 64, 63
1, 86094, Control_c, 0, 64, 62
1, 86109, Control_c, 0, 64, 61
1, 86124, Control_c, 0, 64, 60
1, 86139, Control_c, 0, 64, 59
1, 86154, Control_c, 0, 64, 57
1, 86155, Note_on_c, 0, 53, 60
1, 86176, Control_c, 0, 64, 55
1, 86185, Note_on_c, 0, 72, 66
1, 86189, Note_on_c, 0, 69, 55
1, 86191, Control_c, 0, 64, 52
1, 86206, Control_c, 0, 64, 47
1, 86213, Note_off_c, 0, 70, 61
1, 86221, Control_c, 0, 64, 40
1, 86236, Control_c, 0, 64, 25
1, 86252, Control_c, 0, 64, 0
1, 86391, Note_off_c, 0, 69, 63
1, 86396, Note_on_c, 0, 70, 67
1, 86574, Note_on_c, 0, 69, 58
1, 86602, Note_off_c, 0, 70, 61
1, 86748, Note_on_c, 0, 67, 55
1, 86776, Note_off_c, 0, 69, 63
1, 86931, Note_off_c, 0, 67, 61
1, 86936, Note_on_c, 0, 65, 53
1, 87107, Note_on_c, 0, 63, 58
1, 87116, Note_off_c, 0, 65, 60
1, 87177, Control_c, 0, 64, 23
1, 87192, Control_c, 0, 64, 41
1, 87207, Control_c, 0, 64, 50
1, 87222, Control_c, 0, 64, 55
1, 87237, Control_c, 0, 64, 58
1, 87252, Control_c, 0, 64, 59
1, 87267, Control_c, 0, 64, 61
1, 87282, Control_c, 0, 64, 63
1, 87296, Note_on_c, 0, 62, 58
1, 87296, Control_c, 0, 64, 64
1, 87305, Note_off_c, 0, 63, 61
1, 87311, Control_c, 0, 64, 65
1, 87326, Control_c, 0, 64, 65
1, 87385, Control_c, 0, 64, 65
1, 87414, Control_c, 0, 64, 64
1, 87429, Control_c, 0, 64, 61
1, 87444, Control_c, 0, 64, 54
1, 87459, Control_c, 0, 64, 25
1, 87467, Note_off_c, 0, 72, 45
1, 87474, Control_c, 0, 64, 0
1, 87477, Note_on_c, 0, 64, 59
1, 87504, Control_c, 0, 64, 8
1, 87519, Control_c, 0, 64, 45
1, 87533, Control_c, 0, 64, 55
1, 87548, Control_c, 0, 64, 60
1, 87563, Control_c, 0, 64, 63
1, 87578, Control_c, 0, 64, 65
1, 87593, Control_c, 0, 64, 66
1, 87607, Control_c, 0, 64, 66
1, 87622, Control_c, 0, 64, 67
1, 87674, Note_off_c, 0, 64, 64
1, 87677, Note_on_c, 0, 70, 67
1, 87680, Note_on_c, 0, 65, 49
1, 87688, Note_off_c, 0, 62, 31
1, 87703, Control_c, 0, 64, 66
1, 87718, Control_c, 0, 64, 65
1, 87733, Control_c, 0, 64, 64
1, 87748, Control_c, 0, 64, 60
1, 87763, Control_c, 0, 64, 42
1, 87778, Control_c, 0, 64, 0
1, 87822, Control_c, 0, 64, 31
1, 87838, Control_c, 0, 64, 52
1, 87852, Control_c, 0, 64, 61
1, 87867, Control_c, 0, 64, 65
1, 87872, Note_on_c, 0, 62, 56
1, 87882, Control_c, 0, 64, 66
1, 87897, Control_c, 0, 64, 66
1, 87964, Note_off_c, 0, 70, 56
1, 87987, Note_off_c, 0, 65, 32
1, 88001, Control_c, 0, 64, 66
1, 88016, Control_c, 0, 64, 65
1, 88031, Control_c, 0, 64, 65
1, 88045, Control_c, 0, 64, 62
1, 88055, Note_on_c, 0, 69, 66
1, 88058, Note_off_c, 0, 62, 56
1, 88060, Control_c, 0, 64, 54
1, 88068, Note_on_c, 0, 60, 43
1, 88075, Control_c, 0, 64, 31
1, 88090, Control_c, 0, 64, 0
1, 88106, Note_off_c, 0, 53, 37
1, 88119, Control_c, 0, 64, 35
1, 88134, Control_c, 0, 64, 56
1, 88149, Control_c, 0, 64, 64
1, 88163, Control_c, 0, 64, 66
1, 88178, Control_c, 0, 64, 68
1, 88193, Control_c, 0, 64, 70
1, 88208, Control_c, 0, 64, 72
1, 88216, Note_off_c, 0, 41, 36
1, 88223, Control_c, 0, 64, 73
1, 88225, Note_off_c, 0, 60, 62
1, 88242, Note_on_c, 0, 65, 54
1, 88284, Note_off_c, 0, 69, 56
1, 88371, Control_c, 0, 64, 72
1, 88386, Control_c, 0, 64, 70
1, 88401, Control_c, 0, 64, 66
1, 88423, Control_c, 0, 64, 61
1, 88438, Control_c, 0, 64, 35
1, 88445, Note_on_c, 0, 67, 56
1, 88452, Control_c, 0, 64, 0
1, 88454, Note_on_c, 0, 58, 43
1, 88463, Note_on_c, 0, 46, 38
1, 88498, Note_off_c, 0, 65, 32
1, 88511, Control_c, 0, 64, 39
1, 88526, Control_c, 0, 64, 58
1, 88541, Control_c, 0, 64, 65
1, 88556, Control_c, 0, 64, 68
1, 88571, Control_c, 0, 64, 72
1, 88586, Control_c, 0, 64, 74
1, 88601, Control_c, 0, 64, 77
1, 88616, Control_c, 0, 64, 79
1, 88630, Control_c, 0, 64, 80
1, 88632, Note_on_c, 0, 62, 51
1, 88650, Note_off_c, 0, 67, 53
1, 88672, Note_off_c, 0, 46, 36
1, 88711, Note_off_c, 0, 58, 37
1, 88765, Control_c, 0, 64, 78
1, 88780, Control_c, 0, 64, 74
1, 88794, Control_c, 0, 64, 68
1, 88809, Control_c, 0, 64, 59
1, 88816, Note_on_c, 0, 48, 53
1, 88818, Note_on_c, 0, 65, 53
1, 88823, Note_off_c, 0, 62, 36
1, 88824, Control_c, 0, 64, 0
1, 88828, Note_on_c, 0, 57, 48
1, 88883, Control_c, 0, 64, 29
1, 88898, Control_c, 0, 64, 59
1, 88912, Control_c, 0, 64, 66
1, 88927, Control_c, 0, 64, 69
1, 88942, Control_c, 0, 64, 71
1, 88957, Control_c, 0, 64, 72
1, 88972, Control_c, 0, 64, 74
1, 88986, Control_c, 0, 64, 75
1, 89003, Note_off_c, 0, 65, 46
1, 89009, Note_on_c, 0, 60, 52
1, 89024, Note_off_c, 0, 57, 57
1, 89060, Note_off_c, 0, 48, 29
1, 89075, Control_c, 0, 64, 74
1, 89090, Control_c, 0, 64, 72
1, 89105, Control_c, 0, 64, 68
1, 89119, Control_c, 0, 64, 62
1, 89134, Control_c, 0, 64, 36
1, 89149, Control_c, 0, 64, 0
1, 89182, Note_off_c, 0, 60, 58
1, 89189, Note_on_c, 0, 36, 41
1, 89195, Note_on_c, 0, 64, 58
1, 89205, Note_on_c, 0, 55, 50
1, 89231, Control_c, 0, 64, 46
1, 89246, Control_c, 0, 64, 63
1, 89261, Control_c, 0, 64, 67
1, 89275, Control_c, 0, 64, 69
1, 89290, Control_c, 0, 64, 70
1, 89305, Control_c, 0, 64, 72
1, 89319, Control_c, 0, 64, 73
1, 89320, Note_off_c, 0, 36, 37
1, 89334, Control_c, 0, 64, 73
1, 89381, Note_on_c, 0, 58, 55
1, 89387, Note_off_c, 0, 55, 57
1, 89483, Control_c, 0, 64, 72
1, 89498, Control_c, 0, 64, 70
1, 89513, Control_c, 0, 64, 68
1, 89528, Control_c, 0, 64, 67
1, 89543, Control_c, 0, 64, 65
1, 89558, Control_c, 0, 64, 64
1, 89572, Control_c, 0, 64, 62
1, 89584, Note_off_c, 0, 58, 61
1, 89587, Control_c, 0, 64, 53
1, 89595, Note_off_c, 0, 64, 59
1, 89602, Control_c, 0, 64, 23
1, 89605, Note_on_c, 0, 65, 68
1, 89605, Note_on_c, 0, 41, 47
1, 89609, Note_on_c, 0, 53, 43
1, 89617, Control_c, 0, 64, 0
1, 89620, Note_on_c, 0, 57, 46
1, 89691, Control_c, 0, 64, 26
1, 89706, Control_c, 0, 64, 53
1, 89721, Control_c, 0, 64, 62
1, 89735, Control_c, 0, 64, 65
1, 89750, Control_c, 0, 64, 67
1, 89765, Control_c, 0, 64, 71
1, 89780, Control_c, 0, 64, 82
1, 89795, Control_c, 0, 64, 101
1, 89809, Control_c, 0, 64, 127
1, 89818, Note_on_c, 0, 60, 56
1, 89833, Note_off_c, 0, 57, 37
1, 89854, Note_off_c, 0, 60, 62
1, 89883, Note_off_c, 0, 53, 57
1, 90011, Note_on_c, 0, 69, 79
1, 90038, Note_on_c, 0, 60, 57
1, 90041, Note_off_c, 0, 65, 60
1, 90180, Note_on_c, 0, 65, 76
1, 90198, Note_off_c, 0, 60, 62
1, 90224, Note_off_c, 0, 65, 64
1, 90226, Note_off_c, 0, 69, 68
1, 90357, Note_on_c, 0, 73, 81
1, 90362, Note_on_c, 0, 40, 60
1, 90363, Note_on_c, 0, 52, 63
1, 90370, Note_on_c, 0, 67, 66
1, 90376, Note_off_c, 0, 41, 39
1, 90410, Control_c, 0, 64, 83
1, 90425, Control_c, 0, 64, 65
1, 90440, Control_c, 0, 64, 32
1, 90455, Control_c, 0, 64, 0
1, 90470, Control_c, 0, 64, 40
1, 90485, Control_c, 0, 64, 58
1, 90500, Control_c, 0, 64, 65
1, 90514, Control_c, 0, 64, 73
1, 90529, Control_c, 0, 64, 95
1, 90541, Note_on_c, 0, 69, 78
1, 90544, Control_c, 0, 64, 127
1, 90550, Note_off_c, 0, 67, 61
1, 90573, Note_off_c, 0, 52, 54
1, 90747, Note_on_c, 0, 38, 62
1, 90750, Note_on_c, 0, 50, 59
1, 90759, Note_on_c, 0, 74, 85
1, 90759, Note_off_c, 0, 69, 64
1, 90767, Note_on_c, 0, 65, 69
1, 90789, Control_c, 0, 64, 82
1, 90797, Note_off_c, 0, 40, 52
1, 90803, Note_off_c, 0, 73, 50
1, 90804, Control_c, 0, 64, 64
1, 90818, Control_c, 0, 64, 0
1, 90907, Control_c, 0, 64, 61
1, 90922, Control_c, 0, 64, 89
1, 90937, Control_c, 0, 64, 127
1, 90976, Note_on_c, 0, 69, 73
1, 90994, Note_off_c, 0, 65, 59
1, 91028, Note_off_c, 0, 69, 66
1, 91044, Note_off_c, 0, 74, 63
1, 91128, Note_off_c, 0, 50, 37
1, 91152, Note_on_c, 0, 77, 86
1, 91159, Note_on_c, 0, 69, 75
1, 91321, Note_on_c, 0, 74, 81
1, 91336, Note_off_c, 0, 69, 65
1, 91390, Note_off_c, 0, 74, 61
1, 91522, Note_on_c, 0, 81, 88
1, 91524, Note_on_c, 0, 48, 59
1, 91526, Note_on_c, 0, 74, 68
1, 91537, Control_c, 0, 64, 83
1, 91540, Note_on_c, 0, 36, 44
1, 91552, Control_c, 0, 64, 63
1, 91556, Note_off_c, 0, 77, 58
1, 91567, Control_c, 0, 64, 0
1, 91585, Note_off_c, 0, 38, 52
1, 91641, Control_c, 0, 64, 56
1, 91656, Control_c, 0, 64, 70
1, 91671, Control_c, 0, 64, 93
1, 91686, Control_c, 0, 64, 127
1, 91733, Note_on_c, 0, 77, 80
1, 91779, Note_off_c, 0, 81, 59
1, 91781, Note_off_c, 0, 74, 66
1, 91792, Note_off_c, 0, 48, 37
1, 91807, Note_off_c, 0, 77, 63
1, 91984, Note_on_c, 0, 35, 51
1, 91984, Note_on_c, 0, 47, 45
1, 92066, Note_off_c, 0, 36, 37
1, 92068, Note_on_c, 0, 79, 80
1, 92082, Note_on_c, 0, 74, 53
1, 92086, Control_c, 0, 64, 103
1, 92101, Control_c, 0, 64, 84
1, 92116, Control_c, 0, 64, 71
1, 92130, Control_c, 0, 64, 63
1, 92145, Control_c, 0, 64, 47
1, 92168, Control_c, 0, 64, 0
1, 92272, Control_c, 0, 64, 20
1, 92286, Control_c, 0, 64, 53
1, 92301, Control_c, 0, 64, 62
1, 92316, Control_c, 0, 64, 65
1, 92330, Control_c, 0, 64, 70
1, 92342, Note_on_c, 0, 77, 59
1, 92345, Control_c, 0, 64, 78
1, 92360, Control_c, 0, 64, 90
1, 92375, Control_c, 0, 64, 105
1, 92390, Control_c, 0, 64, 127
1, 92410, Note_off_c, 0, 74, 54
1, 92533, Note_on_c, 0, 74, 67
1, 92542, Note_off_c, 0, 35, 38
1, 92577, Note_off_c, 0, 77, 60
1, 92604, Note_off_c, 0, 47, 43
1, 92696, Note_on_c, 0, 77, 77
1, 92716, Note_off_c, 0, 74, 62
1, 92877, Note_on_c, 0, 76, 69
1, 92880, Control_c, 0, 64, 92
1, 92881, Note_on_c, 0, 48, 52
1, 92884, Note_on_c, 0, 36, 44
1, 92895, Control_c, 0, 64, 72
1, 92917, Control_c, 0, 64, 62
1, 92918, Note_off_c, 0, 77, 57
1, 92932, Control_c, 0, 64, 44
1, 92947, Control_c, 0, 64, 26
1, 92961, Control_c, 0, 64, 39
1, 92976, Control_c, 0, 64, 54
1, 92991, Control_c, 0, 64, 62
1, 93006, Control_c, 0, 64, 68
1, 93008, Note_off_c, 0, 36, 44
1, 93019, Note_off_c, 0, 48, 60
1, 93021, Control_c, 0, 64, 77
1, 93027, Note_off_c, 0, 79, 55
1, 93035, Control_c, 0, 64, 96
1, 93050, Control_c, 0, 64, 115
1, 93060, Note_on_c, 0, 72, 59
1, 93065, Control_c, 0, 64, 127
1, 93153, Note_off_c, 0, 76, 59
1, 93252, Note_off_c, 0, 72, 62
1, 93272, Control_c, 0, 64, 112
1, 93273, Note_on_c, 0, 77, 66
1, 93278, Note_on_c, 0, 69, 52
1, 93281, Note_on_c, 0, 41, 42
1, 93287, Control_c, 0, 64, 100
1, 93292, Note_on_c, 0, 53, 41
1, 93302, Control_c, 0, 64, 89
1, 93316, Control_c, 0, 64, 75
1, 93331, Control_c, 0, 64, 66
1, 93346, Control_c, 0, 64, 54
1, 93361, Control_c, 0, 64, 20
1, 93376, Control_c, 0, 64, 0
1, 93421, Control_c, 0, 64, 36
1, 93436, Control_c, 0, 64, 57
1, 93451, Control_c, 0, 64, 65
1, 93466, Control_c, 0, 64, 71
1, 93480, Control_c, 0, 64, 82
1, 93486, Note_on_c, 0, 74, 64
1, 93495, Control_c, 0, 64, 91
1, 93510, Control_c, 0, 64, 95
1, 93522, Note_off_c, 0, 77, 62
1, 93525, Control_c, 0, 64, 98
1, 93530, Note_off_c, 0, 69, 63
1, 93540, Control_c, 0, 64, 99
1, 93543, Note_off_c, 0, 53, 42
1, 93552, Note_off_c, 0, 41, 36
1, 93555, Control_c, 0, 64, 100
1, 93644, Control_c, 0, 64, 99
1, 93665, Control_c, 0, 64, 94
1, 93678, Note_on_c, 0, 76, 67
1, 93679, Note_off_c, 0, 74, 62
1, 93680, Control_c, 0, 64, 83
1, 93688, Note_on_c, 0, 55, 46
1, 93689, Note_on_c, 0, 67, 54
1, 93695, Note_on_c, 0, 43, 45
1, 93695, Control_c, 0, 64, 69
1, 93710, Control_c, 0, 64, 51
1, 93725, Control_c, 0, 64, 0
1, 93770, Control_c, 0, 64, 28
1, 93784, Control_c, 0, 64, 58
1, 93799, Control_c, 0, 64, 67
1, 93814, Control_c, 0, 64, 75
1, 93829, Control_c, 0, 64, 86
1, 93844, Control_c, 0, 64, 94
1, 93858, Control_c, 0, 64, 98
1, 93864, Note_on_c, 0, 72, 58
1, 93870, Note_off_c, 0, 76, 62
1, 93873, Control_c, 0, 64, 101
1, 93888, Control_c, 0, 64, 103
1, 93895, Note_off_c, 0, 67, 49
1, 93903, Note_off_c, 0, 55, 43
1, 93903, Control_c, 0, 64, 105
1, 93913, Note_off_c, 0, 43, 40
1, 93917, Control_c, 0, 64, 106
1, 93992, Control_c, 0, 64, 103
1, 94007, Control_c, 0, 64, 96
1, 94022, Control_c, 0, 64, 84
1, 94037, Control_c, 0, 64, 72
1, 94045, Note_off_c, 0, 72, 59
1, 94047, Note_on_c, 0, 74, 54
1, 94048, Note_on_c, 0, 55, 39
1, 94050, Note_on_c, 0, 43, 38
1, 94051, Control_c, 0, 64, 62
1, 94066, Control_c, 0, 64, 33
1, 94074, Note_on_c, 0, 65, 44
1, 94081, Control_c, 0, 64, 0
1, 94125, Control_c, 0, 64, 50
1, 94140, Control_c, 0, 64, 63
1, 94153, Note_off_c, 0, 55, 58
1, 94155, Control_c, 0, 64, 69
1, 94170, Control_c, 0, 64, 77
1, 94184, Control_c, 0, 64, 81
1, 94199, Control_c, 0, 64, 83
1, 94214, Control_c, 0, 64, 84
1, 94226, Note_off_c, 0, 43, 39
1, 94230, Control_c, 0, 64, 85
1, 94245, Control_c, 0, 64, 86
1, 94259, Note_off_c, 0, 74, 59
1, 94262, Note_on_c, 0, 71, 51
1, 94280, Note_off_c, 0, 65, 52
1, 94430, Control_c, 0, 64, 84
1, 94445, Control_c, 0, 64, 82
1, 94460, Control_c, 0, 64, 79
1, 94475, Control_c, 0, 64, 75
1, 94489, Control_c, 0, 64, 72
1, 94504, Control_c, 0, 64, 70
1, 94519, Control_c, 0, 64, 67
1, 94533, Control_c, 0, 64, 64
1, 94548, Control_c, 0, 64, 61
1, 94557, Note_on_c, 0, 36, 17
1, 94563, Control_c, 0, 64, 52
1, 94570, Note_on_c, 0, 72, 42
1, 94577, Note_on_c, 0, 48, 24
1, 94578, Control_c, 0, 64, 29
1, 94593, Control_c, 0, 64, 0
1, 94595, Note_on_c, 0, 64, 24
1, 94643, Note_off_c, 0, 71, 31
1, 94681, Note_off_c, 0, 72, 62
1, 94711, Control_c, 0, 64, 46
1, 94726, Control_c, 0, 64, 57
1, 94740, Control_c, 0, 64, 62
1, 94755, Control_c, 0, 64, 63
1, 94770, Control_c, 0, 64, 64
1, 94829, Control_c, 0, 64, 64
1, 94842, Note_on_c, 0, 72, 49
1, 94858, Control_c, 0, 64, 63
1, 94873, Control_c, 0, 64, 62
1, 94888, Control_c, 0, 64, 60
1, 94903, Control_c, 0, 64, 56
1, 94918, Control_c, 0, 64, 52
1, 94932, Control_c, 0, 64, 48
1, 94947, Note_off_c, 0, 36, 45
1, 94947, Control_c, 0, 64, 41
1, 94962, Control_c, 0, 64, 33
1, 94977, Control_c, 0, 64, 23
1, 94992, Control_c, 0, 64, 8
1, 95007, Control_c, 0, 64, 0
1, 95013, Note_off_c, 0, 48, 39
1, 95038, Note_on_c, 0, 71, 56
1, 95159, Note_off_c, 0, 64, 44
1, 95218, Note_on_c, 0, 70, 60
1, 95404, Note_on_c, 0, 69, 45
1, 95406, Note_on_c, 0, 52, 42
1, 95416, Note_off_c, 0, 71, 32
1, 95470, Note_off_c, 0, 70, 38
1, 95589, Note_on_c, 0, 68, 52
1, 95614, Note_off_c, 0, 69, 39
1, 95788, Note_off_c, 0, 72, 41
1, 95806, Note_on_c, 0, 69, 41
1, 95817, Note_on_c, 0, 53, 19
1, 95838, Note_off_c, 0, 68, 45
1, 95868, Note_off_c, 0, 52, 36
1, 96055, Note_on_c, 0, 72, 58
1, 96111, Note_off_c, 0, 69, 50
1, 96239, Note_off_c, 0, 53, 41
1, 96241, Note_on_c, 0, 71, 64
1, 96412, Note_on_c, 0, 70, 62
1, 96548, Note_off_c, 0, 71, 36
1, 96606, Note_on_c, 0, 69, 58
1, 96614, Note_on_c, 0, 52, 40
1, 96640, Note_off_c, 0, 70, 58
1, 96788, Note_off_c, 0, 69, 60
1, 96789, Note_on_c, 0, 68, 59
1, 96967, Note_off_c, 0, 68, 62
1, 96971, Note_on_c, 0, 69, 63
1, 96982, Note_on_c, 0, 53, 33
1, 97036, Note_off_c, 0, 52, 41
1, 97090, Control_c, 0, 64, 46
1, 97105, Control_c, 0, 64, 56
1, 97119, Control_c, 0, 64, 59
1, 97126, Note_off_c, 0, 72, 59
1, 97134, Control_c, 0, 64, 62
1, 97149, Control_c, 0, 64, 64
1, 97150, Note_on_c, 0, 71, 66
1, 97153, Note_off_c, 0, 69, 61
1, 97164, Control_c, 0, 64, 65
1, 97179, Control_c, 0, 64, 66
1, 97193, Control_c, 0, 64, 67
1, 97208, Control_c, 0, 64, 67
1, 97297, Control_c, 0, 64, 67
1, 97312, Control_c, 0, 64, 66
1, 97326, Control_c, 0, 64, 64
1, 97341, Control_c, 0, 64, 60
1, 97353, Note_on_c, 0, 77, 73
1, 97356, Control_c, 0, 64, 53
1, 97370, Note_off_c, 0, 71, 58
1, 97371, Control_c, 0, 64, 45
1, 97373, Note_on_c, 0, 72, 55
1, 97386, Control_c, 0, 64, 36
1, 97408, Control_c, 0, 64, 32
1, 97423, Control_c, 0, 64, 39
1, 97439, Control_c, 0, 64, 50
1, 97454, Control_c, 0, 64, 57
1, 97469, Control_c, 0, 64, 61
1, 97483, Control_c, 0, 64, 63
1, 97498, Control_c, 0, 64, 64
1, 97513, Control_c, 0, 64, 66
1, 97528, Control_c, 0, 64, 68
1, 97543, Control_c, 0, 64, 69
1, 97549, Note_off_c, 0, 72, 65
1, 97555, Note_on_c, 0, 69, 66
1, 97557, Control_c, 0, 64, 71
1, 97572, Control_c, 0, 64, 72
1, 97690, Control_c, 0, 64, 70
1, 97705, Control_c, 0, 64, 68
1, 97713, Note_on_c, 0, 48, 50
1, 97720, Control_c, 0, 64, 65
1, 97722, Note_on_c, 0, 76, 76
1, 97733, Note_on_c, 0, 67, 53
1, 97735, Control_c, 0, 64, 62
1, 97742, Note_off_c, 0, 77, 53
1, 97749, Control_c, 0, 64, 57
1, 97764, Control_c, 0, 64, 45
1, 97779, Control_c, 0, 64, 15
1, 97794, Control_c, 0, 64, 0
1, 97803, Note_off_c, 0, 53, 23
1, 97838, Control_c, 0, 64, 38
1, 97853, Control_c, 0, 64, 55
1, 97868, Control_c, 0, 64, 61
1, 97871, Note_off_c, 0, 69, 25
1, 97883, Control_c, 0, 64, 64
1, 97898, Control_c, 0, 64, 67
1, 97913, Control_c, 0, 64, 68
1, 97921, Note_on_c, 0, 72, 71
1, 97928, Note_off_c, 0, 67, 61
1, 97928, Control_c, 0, 64, 69
1, 97942, Control_c, 0, 64, 70
1, 97957, Control_c, 0, 64, 70
1, 97972, Control_c, 0, 64, 71
1, 97976, Note_off_c, 0, 76, 61
1, 98061, Control_c, 0, 64, 70
1, 98075, Control_c, 0, 64, 69
1, 98090, Control_c, 0, 64, 68
1, 98102, Note_on_c, 0, 74, 71
1, 98104, Note_on_c, 0, 53, 41
1, 98105, Control_c, 0, 64, 65
1, 98119, Note_on_c, 0, 65, 49
1, 98120, Control_c, 0, 64, 63
1, 98135, Control_c, 0, 64, 59
1, 98140, Note_off_c, 0, 72, 61
1, 98157, Control_c, 0, 64, 49
1, 98172, Control_c, 0, 64, 0
1, 98188, Note_off_c, 0, 48, 36
1, 98262, Control_c, 0, 64, 39
1, 98277, Control_c, 0, 64, 55
1, 98292, Control_c, 0, 64, 62
1, 98301, Note_on_c, 0, 69, 53
1, 98306, Control_c, 0, 64, 64
1, 98320, Note_off_c, 0, 65, 58
1, 98321, Control_c, 0, 64, 64
1, 98336, Control_c, 0, 64, 65
1, 98351, Control_c, 0, 64, 66
1, 98366, Control_c, 0, 64, 67
1, 98381, Note_off_c, 0, 53, 41
1, 98469, Control_c, 0, 64, 67
1, 98471, Note_off_c, 0, 74, 59
1, 98484, Control_c, 0, 64, 66
1, 98486, Note_on_c, 0, 72, 56
1, 98497, Note_off_c, 0, 69, 63
1, 98498, Control_c, 0, 64, 65
1, 98504, Note_on_c, 0, 55, 40
1, 98508, Note_on_c, 0, 64, 40
1, 98513, Control_c, 0, 64, 64
1, 98528, Control_c, 0, 64, 59
1, 98543, Control_c, 0, 64, 47
1, 98558, Control_c, 0, 64, 0
1, 98631, Control_c, 0, 64, 47
1, 98646, Control_c, 0, 64, 56
1, 98661, Control_c, 0, 64, 60
1, 98676, Control_c, 0, 64, 62
1, 98688, Note_off_c, 0, 64, 55
1, 98691, Control_c, 0, 64, 63
1, 98693, Note_on_c, 0, 67, 46
1, 98706, Control_c, 0, 64, 63
1, 98721, Control_c, 0, 64, 64
1, 98810, Control_c, 0, 64, 63
1, 98824, Control_c, 0, 64, 63
1, 98839, Control_c, 0, 64, 62
1, 98854, Control_c, 0, 64, 59
1, 98869, Control_c, 0, 64, 55
1, 98882, Note_on_c, 0, 71, 48
1, 98882, Note_off_c, 0, 67, 36
1, 98884, Control_c, 0, 64, 50
1, 98886, Note_on_c, 0, 43, 35
1, 98906, Control_c, 0, 64, 41
1, 98906, Note_off_c, 0, 55, 14
1, 98910, Note_on_c, 0, 62, 32
1, 98921, Control_c, 0, 64, 18
1, 98928, Note_off_c, 0, 72, 28
1, 98935, Control_c, 0, 64, 0
1, 99025, Control_c, 0, 64, 44
1, 99040, Control_c, 0, 64, 55
1, 99055, Control_c, 0, 64, 59
1, 99070, Control_c, 0, 64, 60
1, 99083, Note_off_c, 0, 62, 47
1, 99085, Control_c, 0, 64, 61
1, 99096, Note_on_c, 0, 65, 35
1, 99174, Control_c, 0, 64, 60
1, 99189, Control_c, 0, 64, 60
1, 99233, Control_c, 0, 64, 59
1, 99247, Control_c, 0, 64, 57
1, 99262, Control_c, 0, 64, 56
1, 99277, Control_c, 0, 64, 54
1, 99292, Control_c, 0, 64, 54
1, 99307, Control_c, 0, 64, 52
1, 99321, Control_c, 0, 64, 49
1, 99329, Note_on_c, 0, 48, 40
1, 99336, Control_c, 0, 64, 42
1, 99345, Note_on_c, 0, 72, 43
1, 99346, Note_off_c, 0, 43, 35
1, 99351, Control_c, 0, 64, 34
1, 99365, Note_on_c, 0, 64, 25
1, 99366, Control_c, 0, 64, 23
1, 99381, Control_c, 0, 64, 0
1, 99415, Note_off_c, 0, 71, 30
1, 99417, Note_off_c, 0, 65, 37
1, 99435, Note_off_c, 0, 72, 60
1, 99567, Note_off_c, 0, 48, 57
1, 99584, Note_on_c, 0, 72, 45
1, 99766, Note_on_c, 0, 71, 51
1, 99771, Note_off_c, 0, 64, 43
1, 99944, Note_on_c, 0, 70, 46
1, 100044, Note_off_c, 0, 71, 33
1, 100149, Note_on_c, 0, 69, 44
1, 100151, Note_on_c, 0, 64, 36
1, 100196, Note_off_c, 0, 70, 32
1, 100272, Note_off_c, 0, 72, 36
1, 100334, Note_on_c, 0, 68, 41
1, 100343, Note_off_c, 0, 69, 50
1, 100556, Note_on_c, 0, 69, 38
1, 100578, Note_on_c, 0, 65, 25
1, 100586, Note_off_c, 0, 68, 34
1, 100637, Note_off_c, 0, 64, 40
1, 100779, Note_on_c, 0, 72, 50
1, 100861, Note_off_c, 0, 69, 36
1, 100883, Note_off_c, 0, 65, 43
1, 100965, Note_on_c, 0, 71, 54
1, 101132, Note_on_c, 0, 70, 58
1, 101222, Note_off_c, 0, 71, 36
1, 101322, Note_on_c, 0, 69, 50
1, 101326, Note_on_c, 0, 64, 45
1, 101333, Note_off_c, 0, 70, 58
1, 101493, Note_off_c, 0, 69, 62
1, 101503, Note_on_c, 0, 68, 62
1, 101672, Control_c, 0, 64, 37
1, 101675, Note_off_c, 0, 68, 62
1, 101687, Control_c, 0, 64, 55
1, 101689, Note_on_c, 0, 65, 56
1, 101691, Note_on_c, 0, 69, 66
1, 101696, Note_off_c, 0, 72, 56
1, 101702, Control_c, 0, 64, 62
1, 101705, Note_off_c, 0, 64, 50
1, 101716, Control_c, 0, 64, 65
1, 101731, Control_c, 0, 64, 69
1, 101746, Control_c, 0, 64, 75
1, 101761, Control_c, 0, 64, 83
1, 101773, Note_off_c, 0, 65, 62
1, 101776, Control_c, 0, 64, 91
1, 101790, Control_c, 0, 64, 99
1, 101805, Control_c, 0, 64, 113
1, 101820, Control_c, 0, 64, 127
1, 101865, Note_off_c, 0, 69, 64
1, 101866, Note_on_c, 0, 72, 77
1, 102080, Note_on_c, 0, 81, 84
1, 102092, Note_on_c, 0, 71, 64
1, 102092, Note_off_c, 0, 72, 63
1, 102094, Control_c, 0, 64, 102
1, 102107, Note_on_c, 0, 50, 48
1, 102109, Note_on_c, 0, 38, 50
1, 102109, Control_c, 0, 64, 80
1, 102123, Control_c, 0, 64, 66
1, 102138, Control_c, 0, 64, 58
1, 102153, Control_c, 0, 64, 48
1, 102167, Control_c, 0, 64, 46
1, 102182, Control_c, 0, 64, 49
1, 102197, Control_c, 0, 64, 55
1, 102212, Control_c, 0, 64, 63
1, 102228, Control_c, 0, 64, 67
1, 102243, Control_c, 0, 64, 73
1, 102258, Control_c, 0, 64, 81
1, 102272, Control_c, 0, 64, 88
1, 102287, Control_c, 0, 64, 95
1, 102302, Control_c, 0, 64, 104
1, 102317, Control_c, 0, 64, 115
1, 102327, Note_on_c, 0, 77, 89
1, 102332, Control_c, 0, 64, 127
1, 102356, Note_off_c, 0, 81, 60
1, 102364, Note_off_c, 0, 71, 55
1, 102371, Note_off_c, 0, 38, 40
1, 102374, Note_off_c, 0, 50, 57
1, 102510, Control_c, 0, 64, 119
1, 102512, Note_on_c, 0, 79, 87
1, 102513, Note_on_c, 0, 40, 62
1, 102516, Note_on_c, 0, 72, 71
1, 102519, Note_on_c, 0, 52, 59
1, 102524, Control_c, 0, 64, 92
1, 102539, Control_c, 0, 64, 76
1, 102539, Note_off_c, 0, 77, 61
1, 102554, Control_c, 0, 64, 64
1, 102569, Control_c, 0, 64, 48
1, 102583, Control_c, 0, 64, 0
1, 102650, Control_c, 0, 64, 49
1, 102665, Control_c, 0, 64, 60
1, 102679, Control_c, 0, 64, 65
1, 102694, Control_c, 0, 64, 72
1, 102709, Control_c, 0, 64, 79
1, 102714, Note_on_c, 0, 76, 89
1, 102724, Control_c, 0, 64, 85
1, 102730, Note_off_c, 0, 72, 63
1, 102737, Note_off_c, 0, 40, 55
1, 102739, Control_c, 0, 64, 88
1, 102743, Note_off_c, 0, 79, 61
1, 102752, Note_off_c, 0, 52, 61
1, 102754, Control_c, 0, 64, 91
1, 102769, Control_c, 0, 64, 92
1, 102798, Control_c, 0, 64, 93
1, 102879, Note_on_c, 0, 53, 62
1, 102880, Note_on_c, 0, 77, 91
1, 102883, Note_on_c, 0, 41, 58
1, 102887, Control_c, 0, 64, 88
1, 102896, Note_on_c, 0, 69, 62
1, 102899, Note_off_c, 0, 76, 67
1, 102902, Control_c, 0, 64, 78
1, 102917, Control_c, 0, 64, 66
1, 102932, Control_c, 0, 64, 51
1, 102946, Control_c, 0, 64, 0
1, 103022, Control_c, 0, 64, 46
1, 103037, Control_c, 0, 64, 63
1, 103051, Control_c, 0, 64, 71
1, 103066, Control_c, 0, 64, 79
1, 103071, Note_on_c, 0, 74, 85
1, 103079, Note_off_c, 0, 41, 59
1, 103081, Control_c, 0, 64, 85
1, 103084, Note_off_c, 0, 69, 65
1, 103094, Note_off_c, 0, 53, 62
1, 103095, Control_c, 0, 64, 87
1, 103099, Note_off_c, 0, 77, 63
1, 103110, Control_c, 0, 64, 89
1, 103125, Control_c, 0, 64, 90
1, 103140, Control_c, 0, 64, 91
1, 103213, Control_c, 0, 64, 90
1, 103228, Control_c, 0, 64, 86
1, 103243, Control_c, 0, 64, 79
1, 103244, Note_on_c, 0, 76, 81
1, 103256, Note_on_c, 0, 67, 61
1, 103257, Note_off_c, 0, 74, 64
1, 103258, Control_c, 0, 64, 69
1, 103266, Note_on_c, 0, 43, 45
1, 103266, Note_on_c, 0, 55, 48
1, 103273, Control_c, 0, 64, 61
1, 103288, Control_c, 0, 64, 39
1, 103302, Control_c, 0, 64, 0
1, 103399, Control_c, 0, 64, 48
1, 103413, Control_c, 0, 64, 60
1, 103428, Control_c, 0, 64, 65
1, 103443, Control_c, 0, 64, 69
1, 103458, Control_c, 0, 64, 73
1, 103460, Note_on_c, 0, 72, 64
1, 103473, Control_c, 0, 64, 76
1, 103481, Note_off_c, 0, 76, 62
1, 103487, Control_c, 0, 64, 79
1, 103490, Note_off_c, 0, 55, 56
1, 103498, Note_off_c, 0, 67, 56
1, 103502, Control_c, 0, 64, 81
1, 103511, Note_off_c, 0, 43, 40
1, 103517, Control_c, 0, 64, 81
1, 103621, Control_c, 0, 64, 79
1, 103636, Control_c, 0, 64, 74
1, 103647, Note_off_c, 0, 72, 62
1, 103648, Note_on_c, 0, 74, 61
1, 103651, Control_c, 0, 64, 66
1, 103656, Note_on_c, 0, 43, 47
1, 103658, Note_on_c, 0, 55, 46
1, 103666, Control_c, 0, 64, 57
1, 103675, Note_on_c, 0, 65, 47
1, 103681, Control_c, 0, 64, 39
1, 103696, Control_c, 0, 64, 24
1, 103711, Control_c, 0, 64, 30
1, 103726, Control_c, 0, 64, 47
1, 103741, Control_c, 0, 64, 61
1, 103746, Note_off_c, 0, 55, 51
1, 103756, Control_c, 0, 64, 65
1, 103770, Control_c, 0, 64, 68
1, 103785, Control_c, 0, 64, 71
1, 103794, Note_off_c, 0, 43, 55
1, 103800, Control_c, 0, 64, 74
1, 103815, Control_c, 0, 64, 76
1, 103830, Control_c, 0, 64, 77
1, 103834, Note_off_c, 0, 74, 60
1, 103839, Note_off_c, 0, 65, 57
1, 103845, Control_c, 0, 64, 78
1, 103854, Note_on_c, 0, 71, 47
1, 103979, Control_c, 0, 64, 77
1, 103993, Control_c, 0, 64, 77
1, 104008, Control_c, 0, 64, 76
1, 104023, Control_c, 0, 64, 75
1, 104037, Control_c, 0, 64, 73
1, 104052, Control_c, 0, 64, 71
1, 104067, Control_c, 0, 64, 69
1, 104082, Control_c, 0, 64, 66
1, 104083, Note_on_c, 0, 48, 30
1, 104097, Control_c, 0, 64, 63
1, 104099, Note_off_c, 0, 71, 51
1, 104101, Note_on_c, 0, 36, 35
1, 104102, Note_on_c, 0, 72, 41
1, 104111, Control_c, 0, 64, 59
1, 104124, Note_on_c, 0, 64, 32
1, 104126, Control_c, 0, 64, 48
1, 104149, Control_c, 0, 64, 18
1, 104164, Control_c, 0, 64, 0
1, 104238, Control_c, 0, 64, 34
1, 104252, Control_c, 0, 64, 59
1, 104267, Control_c, 0, 64, 65
1, 104282, Control_c, 0, 64, 67
1, 104297, Control_c, 0, 64, 69
1, 104312, Control_c, 0, 64, 71
1, 104326, Control_c, 0, 64, 75
1, 104331, Note_on_c, 0, 67, 45
1, 104335, Note_off_c, 0, 36, 41
1, 104341, Control_c, 0, 64, 78
1, 104349, Note_off_c, 0, 72, 36
1, 104349, Note_off_c, 0, 48, 39
1, 104365, Note_off_c, 0, 64, 41
1, 104444, Control_c, 0, 64, 77
1, 104459, Control_c, 0, 64, 75
1, 104474, Control_c, 0, 64, 72
1, 104489, Control_c, 0, 64, 67
1, 104504, Control_c, 0, 64, 60
1, 104519, Control_c, 0, 64, 46
1, 104520, Note_off_c, 0, 67, 43
1, 104527, Note_on_c, 0, 48, 40
1, 104528, Note_on_c, 0, 72, 39
1, 104534, Control_c, 0, 64, 24
1, 104540, Note_on_c, 0, 36, 27
1, 104546, Note_on_c, 0, 64, 33
1, 104549, Control_c, 0, 64, 14
1, 104563, Control_c, 0, 64, 37
1, 104578, Control_c, 0, 64, 56
1, 104593, Control_c, 0, 64, 63
1, 104608, Control_c, 0, 64, 66
1, 104623, Control_c, 0, 64, 69
1, 104638, Control_c, 0, 64, 71
1, 104653, Control_c, 0, 64, 73
1, 104696, Note_off_c, 0, 72, 51
1, 104703, Note_off_c, 0, 36, 43
1, 104708, Note_off_c, 0, 48, 39
1, 104714, Note_on_c, 0, 67, 44
1, 104741, Note_off_c, 0, 64, 42
1, 104831, Control_c, 0, 64, 72
1, 104846, Control_c, 0, 64, 71
1, 104860, Control_c, 0, 64, 70
1, 104875, Control_c, 0, 64, 68
1, 104897, Control_c, 0, 64, 64
1, 104912, Control_c, 0, 64, 59
1, 104919, Note_on_c, 0, 72, 35
1, 104919, Note_on_c, 0, 76, 43
1, 104927, Control_c, 0, 64, 47
1, 104930, Note_on_c, 0, 48, 35
1, 104934, Note_on_c, 0, 36, 27
1, 104940, Note_off_c, 0, 67, 33
1, 104942, Control_c, 0, 64, 24
1, 104957, Control_c, 0, 64, 0
1, 104987, Control_c, 0, 64, 20
1, 105001, Control_c, 0, 64, 47
1, 105016, Control_c, 0, 64, 59
1, 105031, Control_c, 0, 64, 64
1, 105046, Control_c, 0, 64, 66
1, 105061, Control_c, 0, 64, 68
1, 105075, Control_c, 0, 64, 70
1, 105090, Control_c, 0, 64, 70
1, 105091, Note_off_c, 0, 36, 41
1, 105092, Note_on_c, 0, 67, 43
1, 105099, Note_off_c, 0, 48, 38
1, 105105, Control_c, 0, 64, 71
1, 105106, Note_off_c, 0, 76, 36
1, 105137, Note_off_c, 0, 72, 41
1, 105252, Control_c, 0, 64, 70
1, 105282, Control_c, 0, 64, 70
1, 105297, Control_c, 0, 64, 69
1, 105312, Control_c, 0, 64, 69
1, 105327, Control_c, 0, 64, 68
1, 105341, Control_c, 0, 64, 67
1, 105356, Control_c, 0, 64, 66
1, 105371, Control_c, 0, 64, 66
1, 105385, Control_c, 0, 64, 65
1, 105387, Note_on_c, 0, 48, 34
1, 105397, Note_on_c, 0, 36, 31
1, 105400, Note_on_c, 0, 72, 40
1, 105400, Control_c, 0, 64, 64
1, 105413, Note_on_c, 0, 64, 25
1, 105416, Control_c, 0, 64, 61
1, 105431, Control_c, 0, 64, 58
1, 105446, Control_c, 0, 64, 54
1, 105461, Control_c, 0, 64, 45
1, 105464, Note_off_c, 0, 67, 34
1, 105476, Control_c, 0, 64, 20
1, 105490, Control_c, 0, 64, 0
1, 105594, Control_c, 0, 64, 44
1, 105608, Control_c, 0, 64, 58
1, 105623, Control_c, 0, 64, 63
1, 105645, Note_off_c, 0, 64, 44
1, 105645, Control_c, 0, 64, 65
1, 105660, Control_c, 0, 64, 67
1, 105675, Control_c, 0, 64, 69
1, 105690, Control_c, 0, 64, 71
1, 105703, Note_off_c, 0, 72, 54
1, 105705, Control_c, 0, 64, 72
1, 105820, Note_off_c, 0, 36, 38
1, 105868, Control_c, 0, 64, 72
1, 105883, Control_c, 0, 64, 71
1, 105897, Control_c, 0, 64, 70
1, 105912, Control_c, 0, 64, 70
1, 105927, Control_c, 0, 64, 69
1, 105942, Control_c, 0, 64, 69
1, 105957, Control_c, 0, 64, 68
1, 105971, Control_c, 0, 64, 67
1, 105986, Control_c, 0, 64, 66
1, 106001, Control_c, 0, 64, 66
1, 106015, Control_c, 0, 64, 65
1, 106030, Control_c, 0, 64, 64
1, 106045, Control_c, 0, 64, 62
1, 106060, Control_c, 0, 64, 62
1, 106066, Note_off_c, 0, 48, 35
1, 106075, Control_c, 0, 64, 61
1, 106090, Control_c, 0, 64, 60
1, 106105, Control_c, 0, 64, 57
1, 106119, Control_c, 0, 64, 51
1, 106134, Control_c, 0, 64, 35
1, 106149, Control_c, 0, 64, 0
1, 106209, Control_c, 0, 64, 34
1, 106224, Control_c, 0, 64, 46
1, 106239, Control_c, 0, 64, 51
1, 106254, Control_c, 0, 64, 55
1, 106268, Control_c, 0, 64, 58
1, 106283, Control_c, 0, 64, 61
1, 106298, Control_c, 0, 64, 63
1, 106299, Note_on_c, 0, 72, 67
1, 106313, Control_c, 0, 64, 64
1, 106328, Control_c, 0, 64, 65
1, 106343, Control_c, 0, 64, 67
1, 106358, Control_c, 0, 64, 69
1, 106373, Control_c, 0, 64, 71
1, 106394, Control_c, 0, 64, 74
1, 106409, Control_c, 0, 64, 77
1, 106424, Control_c, 0, 64, 80
1, 106438, Control_c, 0, 64, 80
1, 106525, Note_off_c, 0, 72, 38
1, 106543, Control_c, 0, 64, 80
1, 106558, Control_c, 0, 64, 79
1, 106573, Control_c, 0, 64, 77
1, 106587, Control_c, 0, 64, 75
1, 106602, Control_c, 0, 64, 71
1, 106617, Control_c, 0, 64, 65
1, 106620, Note_on_c, 0, 71, 59
1, 106632, Control_c, 0, 64, 59
1, 106646, Control_c, 0, 64, 52
1, 106661, Control_c, 0, 64, 49
1, 106668, Note_on_c, 0, 72, 63
1, 106676, Control_c, 0, 64, 43
1, 106679, Note_off_c, 0, 71, 62
1, 106691, Control_c, 0, 64, 12
1, 106693, Note_off_c, 0, 72, 70
1, 106705, Note_on_c, 0, 74, 72
1, 106706, Control_c, 0, 64, 0
1, 106752, Note_on_c, 0, 72, 70
1, 106781, Note_off_c, 0, 74, 63
1, 106974, Note_on_c, 0, 60, 48
1, 107047, Control_c, 0, 64, 21
1, 107061, Control_c, 0, 64, 43
1, 107076, Control_c, 0, 64, 54
1, 107091, Control_c, 0, 64, 62
1, 107106, Control_c, 0, 64, 65
1, 107121, Control_c, 0, 64, 67
1, 107143, Control_c, 0, 64, 69
1, 107156, Note_on_c, 0, 63, 68
1, 107158, Control_c, 0, 64, 71
1, 107173, Control_c, 0, 64, 74
1, 107187, Control_c, 0, 64, 78
1, 107202, Control_c, 0, 64, 80
1, 107217, Control_c, 0, 64, 80
1, 107220, Note_off_c, 0, 60, 57
1, 107261, Control_c, 0, 64, 81
1, 107276, Control_c, 0, 64, 82
1, 107291, Control_c, 0, 64, 82
1, 107331, Note_on_c, 0, 62, 76
1, 107342, Note_off_c, 0, 63, 59
1, 107470, Control_c, 0, 64, 82
1, 107485, Control_c, 0, 64, 80
1, 107500, Control_c, 0, 64, 77
1, 107514, Note_on_c, 0, 60, 59
1, 107515, Control_c, 0, 64, 73
1, 107517, Note_on_c, 0, 75, 70
1, 107529, Control_c, 0, 64, 68
1, 107544, Control_c, 0, 64, 62
1, 107559, Control_c, 0, 64, 49
1, 107574, Control_c, 0, 64, 0
1, 107576, Note_off_c, 0, 62, 38
1, 107618, Control_c, 0, 64, 47
1, 107633, Control_c, 0, 64, 59
1, 107648, Control_c, 0, 64, 63
1, 107662, Control_c, 0, 64, 67
1, 107672, Note_on_c, 0, 58, 70
1, 107677, Control_c, 0, 64, 69
1, 107690, Note_off_c, 0, 60, 53
1, 107692, Control_c, 0, 64, 69
1, 107711, Note_off_c, 0, 75, 62
1, 107766, Control_c, 0, 64, 69
1, 107780, Control_c, 0, 64, 68
1, 107795, Control_c, 0, 64, 66
1, 107811, Control_c, 0, 64, 64
1, 107821, Note_on_c, 0, 74, 54
1, 107826, Control_c, 0, 64, 61
1, 107841, Control_c, 0, 64, 57
1, 107844, Note_on_c, 0, 57, 58
1, 107850, Note_on_c, 0, 75, 74
1, 107855, Note_off_c, 0, 58, 55
1, 107856, Control_c, 0, 64, 52
1, 107860, Note_off_c, 0, 74, 63
1, 107871, Control_c, 0, 64, 47
1, 107893, Control_c, 0, 64, 39
1, 107899, Note_on_c, 0, 77, 72
1, 107901, Note_off_c, 0, 75, 64
1, 107908, Control_c, 0, 64, 25
1, 107923, Control_c, 0, 64, 0
1, 107948, Note_on_c, 0, 75, 74
1, 107960, Note_off_c, 0, 77, 62
1, 108072, Note_on_c, 0, 58, 66
1, 108114, Note_off_c, 0, 57, 56
1, 108189, Control_c, 0, 64, 29
1, 108203, Control_c, 0, 64, 47
1, 108218, Control_c, 0, 64, 56
1, 108233, Control_c, 0, 64, 62
1, 108236, Note_on_c, 0, 60, 72
1, 108245, Note_off_c, 0, 58, 61
1, 108248, Control_c, 0, 64, 64
1, 108263, Control_c, 0, 64, 65
1, 108278, Control_c, 0, 64, 67
1, 108293, Control_c, 0, 64, 69
1, 108307, Control_c, 0, 64, 71
1, 108322, Control_c, 0, 64, 74
1, 108337, Control_c, 0, 64, 75
1, 108395, Note_on_c, 0, 58, 73
1, 108395, Note_off_c, 0, 60, 59
1, 108471, Control_c, 0, 64, 74
1, 108485, Control_c, 0, 64, 74
1, 108500, Control_c, 0, 64, 73
1, 108515, Control_c, 0, 64, 71
1, 108529, Control_c, 0, 64, 69
1, 108544, Control_c, 0, 64, 67
1, 108559, Control_c, 0, 64, 64
1, 108574, Control_c, 0, 64, 58
1, 108583, Note_on_c, 0, 81, 79
1, 108589, Control_c, 0, 64, 47
1, 108592, Note_on_c, 0, 57, 62
1, 108605, Control_c, 0, 64, 36
1, 108619, Note_off_c, 0, 58, 60
1, 108620, Control_c, 0, 64, 15
1, 108641, Control_c, 0, 64, 0
1, 108656, Control_c, 0, 64, 23
1, 108657, Note_off_c, 0, 75, 59
1, 108671, Control_c, 0, 64, 44
1, 108686, Control_c, 0, 64, 58
1, 108701, Control_c, 0, 64, 63
1, 108716, Control_c, 0, 64, 65
1, 108731, Control_c, 0, 64, 67
1, 108746, Control_c, 0, 64, 70
1, 108761, Control_c, 0, 64, 74
1, 108766, Note_on_c, 0, 55, 70
1, 108775, Control_c, 0, 64, 77
1, 108790, Control_c, 0, 64, 78
1, 108793, Note_off_c, 0, 57, 60
1, 108849, Control_c, 0, 64, 79
1, 108937, Control_c, 0, 64, 78
1, 108939, Note_on_c, 0, 74, 82
1, 108952, Control_c, 0, 64, 76
1, 108953, Note_on_c, 0, 54, 66
1, 108967, Control_c, 0, 64, 71
1, 108981, Control_c, 0, 64, 65
1, 108996, Note_off_c, 0, 55, 60
1, 108996, Control_c, 0, 64, 55
1, 109011, Control_c, 0, 64, 48
1, 109026, Control_c, 0, 64, 46
1, 109041, Control_c, 0, 64, 46
1, 109056, Control_c, 0, 64, 51
1, 109071, Control_c, 0, 64, 59
1, 109074, Note_off_c, 0, 72, 53
1, 109085, Control_c, 0, 64, 64
1, 109100, Control_c, 0, 64, 70
1, 109115, Control_c, 0, 64, 78
1, 109121, Note_on_c, 0, 51, 67
1, 109126, Note_off_c, 0, 81, 29
1, 109127, Note_off_c, 0, 54, 60
1, 109130, Control_c, 0, 64, 84
1, 109145, Control_c, 0, 64, 90
1, 109159, Control_c, 0, 64, 95
1, 109174, Control_c, 0, 64, 98
1, 109189, Control_c, 0, 64, 99
1, 109204, Control_c, 0, 64, 100
1, 109219, Control_c, 0, 64, 100
1, 109280, Note_off_c, 0, 51, 58
1, 109293, Note_on_c, 0, 78, 84
1, 109293, Control_c, 0, 64, 99
1, 109303, Note_on_c, 0, 50, 53
1, 109305, Note_on_c, 0, 69, 64
1, 109307, Control_c, 0, 64, 95
1, 109322, Control_c, 0, 64, 89
1, 109337, Control_c, 0, 64, 77
1, 109351, Control_c, 0, 64, 66
1, 109366, Control_c, 0, 64, 49
1, 109389, Control_c, 0, 64, 0
1, 109419, Note_off_c, 0, 74, 56
1, 109434, Control_c, 0, 64, 36
1, 109449, Note_off_c, 0, 69, 59
1, 109449, Control_c, 0, 64, 58
1, 109464, Control_c, 0, 64, 64
1, 109468, Note_off_c, 0, 50, 59
1, 109476, Note_on_c, 0, 48, 58
1, 109479, Control_c, 0, 64, 68
1, 109494, Control_c, 0, 64, 74
1, 109509, Control_c, 0, 64, 77
1, 109524, Control_c, 0, 64, 78
1, 109538, Control_c, 0, 64, 79
1, 109553, Control_c, 0, 64, 80
1, 109627, Control_c, 0, 64, 79
1, 109634, Note_off_c, 0, 48, 61
1, 109642, Control_c, 0, 64, 75
1, 109649, Note_on_c, 0, 79, 76
1, 109651, Note_on_c, 0, 46, 57
1, 109656, Control_c, 0, 64, 67
1, 109661, Note_on_c, 0, 70, 64
1, 109671, Control_c, 0, 64, 50
1, 109685, Control_c, 0, 64, 0
1, 109729, Control_c, 0, 64, 50
1, 109736, Note_off_c, 0, 78, 58
1, 109744, Control_c, 0, 64, 62
1, 109759, Control_c, 0, 64, 67
1, 109774, Control_c, 0, 64, 76
1, 109789, Control_c, 0, 64, 85
1, 109792, Note_off_c, 0, 79, 59
1, 109804, Control_c, 0, 64, 92
1, 109819, Control_c, 0, 64, 97
1, 109834, Control_c, 0, 64, 102
1, 109841, Note_on_c, 0, 55, 59
1, 109846, Note_off_c, 0, 46, 62
1, 109849, Control_c, 0, 64, 105
1, 109859, Note_off_c, 0, 70, 57
1, 109863, Control_c, 0, 64, 107
1, 109878, Control_c, 0, 64, 108
1, 109981, Control_c, 0, 64, 105
1, 109996, Control_c, 0, 64, 97
1, 110006, Note_off_c, 0, 55, 57
1, 110011, Control_c, 0, 64, 83
1, 110018, Note_on_c, 0, 75, 75
1, 110019, Note_on_c, 0, 48, 57
1, 110026, Control_c, 0, 64, 69
1, 110030, Note_on_c, 0, 67, 54
1, 110033, Note_on_c, 0, 69, 42
1, 110041, Control_c, 0, 64, 54
1, 110055, Control_c, 0, 64, 0
1, 110137, Control_c, 0, 64, 48
1, 110152, Control_c, 0, 64, 65
1, 110167, Control_c, 0, 64, 72
1, 110181, Control_c, 0, 64, 82
1, 110196, Control_c, 0, 64, 87
1, 110212, Control_c, 0, 64, 90
1, 110216, Note_on_c, 0, 57, 59
1, 110221, Note_off_c, 0, 48, 61
1, 110227, Control_c, 0, 64, 93
1, 110242, Control_c, 0, 64, 95
1, 110257, Control_c, 0, 64, 95
1, 110272, Control_c, 0, 64, 96
1, 110299, Note_off_c, 0, 75, 62
1, 110346, Control_c, 0, 64, 95
1, 110356, Note_off_c, 0, 69, 49
1, 110360, Control_c, 0, 64, 94
1, 110375, Control_c, 0, 64, 90
1, 110390, Note_off_c, 0, 57, 36
1, 110390, Control_c, 0, 64, 85
1, 110400, Note_on_c, 0, 70, 61
1, 110404, Control_c, 0, 64, 77
1, 110408, Note_on_c, 0, 50, 50
1, 110408, Note_on_c, 0, 74, 66
1, 110419, Control_c, 0, 64, 68
1, 110434, Control_c, 0, 64, 57
1, 110449, Control_c, 0, 64, 24
1, 110464, Control_c, 0, 64, 0
1, 110538, Control_c, 0, 64, 54
1, 110552, Control_c, 0, 64, 64
1, 110567, Control_c, 0, 64, 67
1, 110582, Control_c, 0, 64, 71
1, 110588, Note_on_c, 0, 58, 52
1, 110588, Note_off_c, 0, 50, 59
1, 110597, Control_c, 0, 64, 75
1, 110612, Control_c, 0, 64, 79
1, 110627, Control_c, 0, 64, 87
1, 110641, Control_c, 0, 64, 93
1, 110656, Control_c, 0, 64, 95
1, 110731, Control_c, 0, 64, 94
1, 110746, Control_c, 0, 64, 87
1, 110760, Control_c, 0, 64, 77
1, 110764, Note_off_c, 0, 67, 39
1, 110766, Note_on_c, 0, 66, 55
1, 110769, Note_on_c, 0, 50, 41
1, 110769, Note_on_c, 0, 72, 57
1, 110775, Control_c, 0, 64, 66
1, 110784, Note_off_c, 0, 58, 37
1, 110790, Control_c, 0, 64, 48
1, 110803, Note_off_c, 0, 74, 58
1, 110804, Control_c, 0, 64, 0
1, 110820, Note_off_c, 0, 70, 54
1, 110864, Control_c, 0, 64, 47
1, 110886, Control_c, 0, 64, 61
1, 110901, Control_c, 0, 64, 67
1, 110916, Control_c, 0, 64, 75
1, 110930, Control_c, 0, 64, 85
1, 110945, Control_c, 0, 64, 91
1, 110960, Control_c, 0, 64, 95
1, 110973, Note_off_c, 0, 66, 38
1, 110974, Note_on_c, 0, 57, 48
1, 110975, Control_c, 0, 64, 100
1, 110990, Note_off_c, 0, 50, 46
1, 110990, Control_c, 0, 64, 102
1, 111005, Control_c, 0, 64, 103
1, 111142, Note_off_c, 0, 72, 43
1, 111154, Control_c, 0, 64, 102
1, 111169, Control_c, 0, 64, 99
1, 111183, Control_c, 0, 64, 95
1, 111196, Note_on_c, 0, 69, 59
1, 111198, Control_c, 0, 64, 89
1, 111213, Control_c, 0, 64, 82
1, 111226, Note_on_c, 0, 55, 41
1, 111227, Control_c, 0, 64, 74
1, 111242, Control_c, 0, 64, 66
1, 111251, Note_on_c, 0, 70, 66
1, 111253, Note_off_c, 0, 69, 65
1, 111257, Control_c, 0, 64, 58
1, 111267, Note_off_c, 0, 57, 34
1, 111272, Control_c, 0, 64, 33
1, 111278, Note_off_c, 0, 70, 68
1, 111285, Note_on_c, 0, 72, 64
1, 111287, Control_c, 0, 64, 0
1, 111330, Note_on_c, 0, 70, 70
1, 111367, Note_off_c, 0, 72, 59
1, 111485, Note_on_c, 0, 58, 55
1, 111625, Note_off_c, 0, 55, 36
1, 111634, Control_c, 0, 64, 25
1, 111649, Control_c, 0, 64, 49
1, 111664, Note_on_c, 0, 61, 70
1, 111664, Control_c, 0, 64, 54
1, 111679, Control_c, 0, 64, 57
1, 111694, Control_c, 0, 64, 60
1, 111709, Control_c, 0, 64, 63
1, 111724, Control_c, 0, 64, 65
1, 111738, Control_c, 0, 64, 67
1, 111741, Note_off_c, 0, 58, 39
1, 111753, Control_c, 0, 64, 67
1, 111783, Control_c, 0, 64, 68
1, 111798, Control_c, 0, 64, 69
1, 111828, Control_c, 0, 64, 69
1, 111835, Note_off_c, 0, 61, 63
1, 111840, Note_on_c, 0, 60, 64
1, 111887, Control_c, 0, 64, 69
1, 111902, Control_c, 0, 64, 68
1, 111917, Control_c, 0, 64, 67
1, 111932, Control_c, 0, 64, 65
1, 111947, Control_c, 0, 64, 61
1, 111962, Control_c, 0, 64, 51
1, 111976, Control_c, 0, 64, 29
1, 111991, Control_c, 0, 64, 0
1, 112025, Note_on_c, 0, 58, 48
1, 112033, Note_on_c, 0, 73, 64
1, 112076, Note_off_c, 0, 60, 38
1, 112080, Control_c, 0, 64, 26
1, 112095, Control_c, 0, 64, 41
1, 112110, Control_c, 0, 64, 49
1, 112124, Control_c, 0, 64, 57
1, 112139, Control_c, 0, 64, 62
1, 112154, Control_c, 0, 64, 66
1, 112169, Control_c, 0, 64, 70
1, 112183, Control_c, 0, 64, 72
1, 112194, Note_on_c, 0, 56, 58
1, 112227, Note_off_c, 0, 58, 38
1, 112228, Control_c, 0, 64, 72
1, 112253, Note_off_c, 0, 73, 56
1, 112302, Control_c, 0, 64, 72
1, 112317, Control_c, 0, 64, 71
1, 112332, Control_c, 0, 64, 69
1, 112343, Note_on_c, 0, 72, 60
1, 112347, Control_c, 0, 64, 66
1, 112361, Control_c, 0, 64, 63
1, 112383, Control_c, 0, 64, 62
1, 112390, Note_on_c, 0, 73, 63
1, 112398, Control_c, 0, 64, 61
1, 112402, Note_off_c, 0, 72, 64
1, 112413, Note_on_c, 0, 55, 42
1, 112413, Control_c, 0, 64, 60
1, 112418, Note_off_c, 0, 56, 56
1, 112418, Note_off_c, 0, 73, 66
1, 112427, Note_on_c, 0, 75, 67
1, 112428, Control_c, 0, 64, 57
1, 112443, Control_c, 0, 64, 51
1, 112457, Control_c, 0, 64, 43
1, 112466, Note_on_c, 0, 73, 73
1, 112472, Control_c, 0, 64, 34
1, 112487, Control_c, 0, 64, 18
1, 112492, Note_off_c, 0, 75, 64
1, 112502, Control_c, 0, 64, 0
1, 112633, Note_on_c, 0, 56, 53
1, 112718, Note_off_c, 0, 55, 35
1, 112755, Control_c, 0, 64, 28
1, 112770, Control_c, 0, 64, 42
1, 112785, Control_c, 0, 64, 44
1, 112794, Note_on_c, 0, 58, 66
1, 112799, Control_c, 0, 64, 50
1, 112808, Note_off_c, 0, 56, 62
1, 112814, Control_c, 0, 64, 57
1, 112829, Control_c, 0, 64, 62
1, 112844, Control_c, 0, 64, 65
1, 112859, Control_c, 0, 64, 67
1, 112873, Control_c, 0, 64, 69
1, 112888, Control_c, 0, 64, 72
1, 112903, Control_c, 0, 64, 76
1, 112918, Control_c, 0, 64, 80
1, 112933, Control_c, 0, 64, 84
1, 112947, Control_c, 0, 64, 86
1, 112962, Control_c, 0, 64, 87
1, 112974, Note_on_c, 0, 56, 62
1, 113023, Note_off_c, 0, 58, 49
1, 113095, Control_c, 0, 64, 86
1, 113110, Control_c, 0, 64, 78
1, 113132, Control_c, 0, 64, 68
1, 113140, Note_on_c, 0, 79, 74
1, 113147, Control_c, 0, 64, 59
1, 113160, Note_on_c, 0, 55, 53
1, 113160, Note_off_c, 0, 56, 59
1, 113162, Control_c, 0, 64, 45
1, 113177, Control_c, 0, 64, 39
1, 113185, Note_off_c, 0, 73, 57
1, 113192, Control_c, 0, 64, 44
1, 113206, Control_c, 0, 64, 52
1, 113221, Control_c, 0, 64, 59
1, 113236, Control_c, 0, 64, 63
1, 113251, Control_c, 0, 64, 65
1, 113266, Control_c, 0, 64, 69
1, 113280, Control_c, 0, 64, 74
1, 113295, Control_c, 0, 64, 79
1, 113310, Control_c, 0, 64, 83
1, 113324, Control_c, 0, 64, 86
1, 113325, Note_on_c, 0, 53, 70
1, 113339, Control_c, 0, 64, 87
1, 113383, Note_off_c, 0, 55, 29
1, 113474, Control_c, 0, 64, 85
1, 113489, Control_c, 0, 64, 78
1, 113503, Control_c, 0, 64, 67
1, 113517, Note_on_c, 0, 72, 78
1, 113518, Control_c, 0, 64, 54
1, 113533, Control_c, 0, 64, 32
1, 113538, Note_on_c, 0, 52, 55
1, 113548, Control_c, 0, 64, 21
1, 113563, Control_c, 0, 64, 24
1, 113578, Control_c, 0, 64, 37
1, 113587, Note_off_c, 0, 53, 57
1, 113593, Control_c, 0, 64, 52
1, 113604, Note_off_c, 0, 70, 46
1, 113604, Note_off_c, 0, 79, 48
1, 113607, Control_c, 0, 64, 60
1, 113622, Control_c, 0, 64, 64
1, 113637, Control_c, 0, 64, 68
1, 113652, Control_c, 0, 64, 74
1, 113667, Control_c, 0, 64, 80
1, 113682, Control_c, 0, 64, 86
1, 113696, Control_c, 0, 64, 90
1, 113700, Note_on_c, 0, 49, 67
1, 113711, Control_c, 0, 64, 93
1, 113715, Note_off_c, 0, 52, 66
1, 113726, Control_c, 0, 64, 96
1, 113740, Control_c, 0, 64, 98
1, 113755, Control_c, 0, 64, 98
1, 113770, Control_c, 0, 64, 99
1, 113829, Control_c, 0, 64, 98
1, 113844, Control_c, 0, 64, 95
1, 113859, Control_c, 0, 64, 85
1, 113876, Note_on_c, 0, 76, 86
1, 113879, Note_off_c, 0, 49, 61
1, 113882, Control_c, 0, 64, 67
1, 113885, Note_on_c, 0, 48, 66
1, 113885, Note_on_c, 0, 67, 75
1, 113896, Control_c, 0, 64, 46
1, 113911, Control_c, 0, 64, 0
1, 113955, Control_c, 0, 64, 22
1, 113970, Control_c, 0, 64, 57
1, 113985, Control_c, 0, 64, 66
1, 114000, Control_c, 0, 64, 72
1, 114011, Note_off_c, 0, 72, 38
1, 114015, Control_c, 0, 64, 80
1, 114029, Control_c, 0, 64, 87
1, 114044, Control_c, 0, 64, 90
1, 114049, Note_on_c, 0, 46, 65
1, 114059, Control_c, 0, 64, 94
1, 114074, Note_off_c, 0, 67, 59
1, 114074, Control_c, 0, 64, 99
1, 114084, Note_off_c, 0, 48, 54
1, 114089, Control_c, 0, 64, 100
1, 114178, Control_c, 0, 64, 99
1, 114193, Control_c, 0, 64, 94
1, 114209, Control_c, 0, 64, 84
1, 114224, Control_c, 0, 64, 72
1, 114239, Control_c, 0, 64, 60
1, 114246, Note_on_c, 0, 77, 82
1, 114248, Note_off_c, 0, 46, 57
1, 114253, Note_on_c, 0, 45, 56
1, 114253, Control_c, 0, 64, 0
1, 114261, Note_on_c, 0, 69, 62
1, 114292, Note_off_c, 0, 76, 62
1, 114342, Control_c, 0, 64, 46
1, 114357, Control_c, 0, 64, 64
1, 114371, Control_c, 0, 64, 71
1, 114386, Control_c, 0, 64, 80
1, 114401, Control_c, 0, 64, 87
1, 114416, Control_c, 0, 64, 91
1, 114431, Control_c, 0, 64, 97
1, 114436, Note_off_c, 0, 77, 63
1, 114445, Control_c, 0, 64, 106
1, 114448, Note_on_c, 0, 53, 58
1, 114453, Note_off_c, 0, 69, 64
1, 114457, Note_off_c, 0, 45, 61
1, 114460, Control_c, 0, 64, 109
1, 114475, Control_c, 0, 64, 110
1, 114579, Control_c, 0, 64, 108
1, 114594, Control_c, 0, 64, 104
1, 114609, Control_c, 0, 64, 96
1, 114631, Note_off_c, 0, 53, 56
1, 114631, Control_c, 0, 64, 87
1, 114637, Note_on_c, 0, 46, 56
1, 114637, Note_on_c, 0, 74, 79
1, 114643, Note_on_c, 0, 67, 61
1, 114645, Control_c, 0, 64, 74
1, 114660, Control_c, 0, 64, 64
1, 114669, Note_on_c, 0, 65, 43
1, 114675, Control_c, 0, 64, 43
1, 114690, Control_c, 0, 64, 0
1, 114719, Note_off_c, 0, 65, 0
1, 114719, Note_on_c, 0, 65, 19
1, 114749, Control_c, 0, 64, 49
1, 114764, Control_c, 0, 64, 62
1, 114779, Control_c, 0, 64, 66
1, 114794, Control_c, 0, 64, 72
1, 114809, Control_c, 0, 64, 77
1, 114824, Control_c, 0, 64, 80
1, 114832, Note_on_c, 0, 55, 54
1, 114833, Note_off_c, 0, 46, 62
1, 114839, Control_c, 0, 64, 83
1, 114853, Control_c, 0, 64, 86
1, 114868, Control_c, 0, 64, 87
1, 114874, Note_off_c, 0, 74, 64
1, 114904, Note_off_c, 0, 67, 32
1, 114986, Control_c, 0, 64, 86
1, 115002, Control_c, 0, 64, 83
1, 115017, Control_c, 0, 64, 77
1, 115023, Note_on_c, 0, 48, 53
1, 115025, Note_on_c, 0, 72, 65
1, 115028, Note_on_c, 0, 69, 56
1, 115032, Control_c, 0, 64, 67
1, 115047, Control_c, 0, 64, 56
1, 115053, Note_off_c, 0, 55, 32
1, 115062, Control_c, 0, 64, 0
1, 115136, Control_c, 0, 64, 8
1, 115150, Control_c, 0, 64, 54
1, 115165, Control_c, 0, 64, 63
1, 115180, Control_c, 0, 64, 67
1, 115187, Note_off_c, 0, 65, 46
1, 115194, Control_c, 0, 64, 69
1, 115209, Control_c, 0, 64, 71
1, 115224, Control_c, 0, 64, 73
1, 115226, Note_on_c, 0, 57, 45
1, 115239, Control_c, 0, 64, 74
1, 115254, Control_c, 0, 64, 75
1, 115380, Control_c, 0, 64, 74
1, 115395, Control_c, 0, 64, 73
1, 115409, Control_c, 0, 64, 71
1, 115424, Control_c, 0, 64, 68
1, 115439, Control_c, 0, 64, 64
1, 115441, Note_off_c, 0, 57, 32
1, 115454, Control_c, 0, 64, 59
1, 115468, Control_c, 0, 64, 47
1, 115469, Note_on_c, 0, 49, 34
1, 115482, Note_on_c, 0, 70, 42
1, 115483, Control_c, 0, 64, 0
1, 115485, Note_on_c, 0, 64, 42
1, 115512, Note_off_c, 0, 69, 36
1, 115523, Note_off_c, 0, 48, 33
1, 115542, Note_off_c, 0, 72, 61
1, 115572, Control_c, 0, 64, 21
1, 115587, Control_c, 0, 64, 50
1, 115602, Control_c, 0, 64, 59
1, 115617, Control_c, 0, 64, 64
1, 115632, Control_c, 0, 64, 67
1, 115646, Control_c, 0, 64, 70
1, 115661, Control_c, 0, 64, 72
1, 115675, Control_c, 0, 64, 75
1, 115690, Control_c, 0, 64, 76
1, 115701, Note_off_c, 0, 70, 59
1, 115705, Control_c, 0, 64, 78
1, 115719, Control_c, 0, 64, 78
1, 115722, Note_on_c, 0, 55, 33
1, 115749, Control_c, 0, 64, 79
1, 115755, Note_off_c, 0, 49, 39
1, 115987, Control_c, 0, 64, 78
1, 116002, Control_c, 0, 64, 78
1, 116016, Control_c, 0, 64, 77
1, 116031, Note_off_c, 0, 64, 36
1, 116031, Control_c, 0, 64, 77
1, 116046, Control_c, 0, 64, 76
1, 116061, Control_c, 0, 64, 76
1, 116064, Note_on_c, 0, 68, 39
1, 116076, Control_c, 0, 64, 75
1, 116085, Note_on_c, 0, 53, 29
1, 116091, Note_on_c, 0, 49, 27
1, 116091, Control_c, 0, 64, 73
1, 116105, Control_c, 0, 64, 70
1, 116128, Control_c, 0, 64, 68
1, 116143, Control_c, 0, 64, 66
1, 116157, Control_c, 0, 64, 65
1, 116172, Control_c, 0, 64, 64
1, 116187, Control_c, 0, 64, 61
1, 116202, Control_c, 0, 64, 57
1, 116217, Control_c, 0, 64, 46
1, 116221, Note_off_c, 0, 55, 34
1, 116231, Control_c, 0, 64, 24
1, 116246, Control_c, 0, 64, 0
1, 116321, Note_on_c, 0, 64, 34
1, 116500, Note_on_c, 0, 65, 37
1, 116561, Note_off_c, 0, 64, 43
1, 116700, Note_on_c, 0, 60, 32
1, 116765, Control_c, 0, 64, 42
1, 116768, Note_off_c, 0, 65, 40
1, 116780, Control_c, 0, 64, 49
1, 116795, Control_c, 0, 64, 53
1, 116810, Control_c, 0, 64, 57
1, 116825, Control_c, 0, 64, 61
1, 116839, Control_c, 0, 64, 64
1, 116854, Control_c, 0, 64, 65
1, 116877, Control_c, 0, 64, 68
1, 116883, Note_on_c, 0, 61, 49
1, 116886, Note_off_c, 0, 60, 49
1, 116892, Control_c, 0, 64, 70
1, 116907, Control_c, 0, 64, 74
1, 116921, Control_c, 0, 64, 79
1, 116936, Control_c, 0, 64, 86
1, 116951, Control_c, 0, 64, 94
1, 116966, Control_c, 0, 64, 102
1, 116980, Control_c, 0, 64, 114
1, 116995, Control_c, 0, 64, 127
1, 117074, Note_on_c, 0, 56, 42
1, 117098, Note_off_c, 0, 68, 44
1, 117127, Note_off_c, 0, 61, 37
1, 117152, Note_off_c, 0, 56, 55
1, 117291, Control_c, 0, 64, 109
1, 117292, Note_on_c, 0, 68, 58
1, 117306, Control_c, 0, 64, 101
1, 117316, Note_on_c, 0, 51, 38
1, 117319, Note_on_c, 0, 48, 37
1, 117321, Control_c, 0, 64, 91
1, 117336, Control_c, 0, 64, 82
1, 117351, Control_c, 0, 64, 71
1, 117365, Control_c, 0, 64, 64
1, 117380, Control_c, 0, 64, 54
1, 117396, Control_c, 0, 64, 40
1, 117411, Control_c, 0, 64, 0
1, 117416, Note_off_c, 0, 53, 36
1, 117420, Note_off_c, 0, 49, 29
1, 117517, Note_on_c, 0, 65, 38
1, 117702, Note_on_c, 0, 66, 47
1, 117798, Note_off_c, 0, 65, 41
1, 117900, Note_on_c, 0, 62, 42
1, 118022, Note_off_c, 0, 66, 39
1, 118026, Control_c, 0, 64, 47
1, 118041, Control_c, 0, 64, 51
1, 118056, Control_c, 0, 64, 55
1, 118070, Control_c, 0, 64, 60
1, 118085, Control_c, 0, 64, 66
1, 118091, Note_off_c, 0, 62, 44
1, 118095, Note_on_c, 0, 63, 39
1, 118100, Control_c, 0, 64, 72
1, 118115, Control_c, 0, 64, 77
1, 118130, Control_c, 0, 64, 79
1, 118144, Control_c, 0, 64, 82
1, 118159, Control_c, 0, 64, 89
1, 118174, Control_c, 0, 64, 99
1, 118190, Control_c, 0, 64, 119
1, 118205, Control_c, 0, 64, 127
1, 118272, Note_on_c, 0, 56, 51
1, 118279, Note_off_c, 0, 68, 37
1, 118316, Note_off_c, 0, 56, 58
1, 118434, Control_c, 0, 64, 103
1, 118449, Control_c, 0, 64, 86
1, 118464, Control_c, 0, 64, 74
1, 118479, Control_c, 0, 64, 66
1, 118481, Note_on_c, 0, 68, 63
1, 118481, Note_off_c, 0, 63, 42
1, 118493, Control_c, 0, 64, 56
1, 118495, Note_on_c, 0, 49, 40
1, 118497, Note_on_c, 0, 53, 37
1, 118508, Control_c, 0, 64, 0
1, 118515, Note_off_c, 0, 48, 35
1, 118630, Note_off_c, 0, 51, 33
1, 118682, Note_on_c, 0, 64, 49
1, 118876, Note_on_c, 0, 65, 47
1, 118938, Note_off_c, 0, 64, 35
1, 119060, Note_on_c, 0, 60, 50
1, 119250, Note_off_c, 0, 65, 30
1, 119261, Note_on_c, 0, 61, 55
1, 119276, Note_off_c, 0, 60, 56
1, 119346, Control_c, 0, 64, 33
1, 119361, Control_c, 0, 64, 65
1, 119376, Control_c, 0, 64, 76
1, 119390, Control_c, 0, 64, 97
1, 119405, Control_c, 0, 64, 127
1, 119447, Note_on_c, 0, 56, 62
1, 119492, Note_off_c, 0, 56, 60
1, 119503, Note_off_c, 0, 61, 56
1, 119504, Note_off_c, 0, 68, 60
1, 119668, Note_on_c, 0, 69, 72
1, 119671, Control_c, 0, 64, 86
1, 119684, Note_on_c, 0, 48, 43
1, 119686, Control_c, 0, 64, 71
1, 119692, Note_on_c, 0, 51, 37
1, 119700, Control_c, 0, 64, 62
1, 119715, Control_c, 0, 64, 24
1, 119730, Control_c, 0, 64, 0
1, 119739, Note_off_c, 0, 53, 33
1, 119821, Note_off_c, 0, 49, 40
1, 119894, Note_on_c, 0, 65, 59
1, 120072, Note_on_c, 0, 66, 67
1, 120143, Note_off_c, 0, 65, 60
1, 120256, Note_on_c, 0, 62, 61
1, 120295, Note_off_c, 0, 66, 63
1, 120433, Note_on_c, 0, 63, 63
1, 120435, Control_c, 0, 64, 36
1, 120450, Control_c, 0, 64, 63
1, 120461, Note_off_c, 0, 62, 55
1, 120464, Control_c, 0, 64, 73
1, 120479, Control_c, 0, 64, 90
1, 120494, Control_c, 0, 64, 107
1, 120508, Control_c, 0, 64, 127
1, 120593, Note_off_c, 0, 69, 37
1, 120636, Note_on_c, 0, 57, 58
1, 120675, Note_off_c, 0, 57, 54
1, 120799, Control_c, 0, 64, 103
1, 120813, Control_c, 0, 64, 79
1, 120821, Note_on_c, 0, 70, 77
1, 120821, Note_off_c, 0, 63, 57
1, 120825, Note_on_c, 0, 49, 46
1, 120828, Control_c, 0, 64, 66
1, 120831, Note_on_c, 0, 53, 47
1, 120843, Control_c, 0, 64, 52
1, 120858, Control_c, 0, 64, 0
1, 120872, Note_off_c, 0, 48, 30
1, 120958, Note_off_c, 0, 51, 33
1, 121025, Note_on_c, 0, 64, 60
1, 121207, Note_on_c, 0, 65, 66
1, 121243, Note_off_c, 0, 64, 59
1, 121410, Note_on_c, 0, 60, 58
1, 121428, Note_on_c, 0, 61, 37
1, 121435, Note_off_c, 0, 65, 59
1, 121461, Note_off_c, 0, 61, 50
1, 121569, Note_on_c, 0, 61, 62
1, 121575, Note_off_c, 0, 60, 61
1, 121608, Control_c, 0, 64, 37
1, 121623, Control_c, 0, 64, 64
1, 121637, Control_c, 0, 64, 75
1, 121652, Control_c, 0, 64, 83
1, 121667, Control_c, 0, 64, 92
1, 121682, Control_c, 0, 64, 127
1, 121752, Note_on_c, 0, 58, 68
1, 121763, Note_off_c, 0, 53, 43
1, 121784, Note_off_c, 0, 58, 63
1, 121785, Note_off_c, 0, 61, 59
1, 121793, Note_off_c, 0, 70, 58
1, 121963, Note_on_c, 0, 50, 50
1, 121963, Note_on_c, 0, 71, 74
1, 121967, Note_on_c, 0, 53, 46
1, 121979, Note_off_c, 0, 49, 37
1, 121993, Control_c, 0, 64, 86
1, 122008, Control_c, 0, 64, 71
1, 122023, Control_c, 0, 64, 65
1, 122037, Control_c, 0, 64, 58
1, 122052, Control_c, 0, 64, 12
1, 122067, Control_c, 0, 64, 0
1, 122186, Note_on_c, 0, 67, 72
1, 122368, Note_on_c, 0, 68, 74
1, 122446, Note_off_c, 0, 67, 56
1, 122549, Note_on_c, 0, 64, 63
1, 122574, Note_off_c, 0, 68, 64
1, 122726, Note_on_c, 0, 65, 59
1, 122732, Note_off_c, 0, 64, 58
1, 122755, Control_c, 0, 64, 33
1, 122770, Control_c, 0, 64, 58
1, 122784, Control_c, 0, 64, 62
1, 122799, Control_c, 0, 64, 65
1, 122814, Control_c, 0, 64, 67
1, 122828, Control_c, 0, 64, 69
1, 122843, Control_c, 0, 64, 72
1, 122866, Control_c, 0, 64, 74
1, 122881, Control_c, 0, 64, 75
1, 122896, Control_c, 0, 64, 75
1, 122925, Control_c, 0, 64, 76
1, 122937, Note_on_c, 0, 59, 52
1, 122940, Control_c, 0, 64, 76
1, 123004, Note_off_c, 0, 59, 53
1, 123020, Note_off_c, 0, 71, 53
1, 123021, Note_off_c, 0, 65, 50
1, 123045, Control_c, 0, 64, 76
1, 123060, Control_c, 0, 64, 75
1, 123075, Control_c, 0, 64, 75
1, 123089, Control_c, 0, 64, 74
1, 123104, Control_c, 0, 64, 73
1, 123119, Control_c, 0, 64, 70
1, 123133, Control_c, 0, 64, 67
1, 123148, Control_c, 0, 64, 64
1, 123163, Control_c, 0, 64, 62
1, 123174, Note_on_c, 0, 48, 37
1, 123178, Control_c, 0, 64, 59
1, 123187, Note_on_c, 0, 52, 38
1, 123193, Control_c, 0, 64, 53
1, 123206, Note_off_c, 0, 53, 30
1, 123207, Control_c, 0, 64, 28
1, 123212, Note_off_c, 0, 50, 33
1, 123222, Control_c, 0, 64, 0
1, 123444, Note_on_c, 0, 72, 54
1, 123533, Note_off_c, 0, 48, 40
1, 123564, Note_off_c, 0, 52, 44
1, 123655, Note_on_c, 0, 71, 60
1, 123752, Note_off_c, 0, 72, 50
1, 123833, Note_on_c, 0, 70, 62
1, 123954, Note_off_c, 0, 71, 36
1, 124021, Note_on_c, 0, 69, 46
1, 124052, Note_on_c, 0, 65, 31
1, 124065, Note_on_c, 0, 59, 13
1, 124099, Note_off_c, 0, 70, 39
1, 124216, Note_off_c, 0, 69, 56
1, 124223, Note_on_c, 0, 68, 46
1, 124434, Note_on_c, 0, 67, 39
1, 124441, Note_on_c, 0, 60, 27
1, 124443, Note_on_c, 0, 64, 24
1, 124477, Note_off_c, 0, 65, 37
1, 124496, Note_off_c, 0, 68, 44
1, 124543, Note_off_c, 0, 67, 51
1, 124588, Note_off_c, 0, 59, 40
1, 124650, Note_on_c, 0, 72, 55
1, 124770, Note_off_c, 0, 64, 42
1, 124780, Note_off_c, 0, 60, 37
1, 124828, Note_on_c, 0, 71, 67
1, 124992, Note_off_c, 0, 72, 34
1, 125003, Note_on_c, 0, 70, 63
1, 125066, Note_off_c, 0, 71, 49
1, 125201, Note_on_c, 0, 69, 50
1, 125208, Note_on_c, 0, 65, 30
1, 125212, Note_on_c, 0, 59, 34
1, 125257, Note_off_c, 0, 70, 38
1, 125385, Note_off_c, 0, 69, 59
1, 125400, Note_on_c, 0, 68, 43
1, 125561, Note_off_c, 0, 65, 44
1, 125590, Note_on_c, 0, 67, 43
1, 125597, Note_on_c, 0, 64, 44
1, 125604, Note_on_c, 0, 60, 36
1, 125647, Note_off_c, 0, 64, 63
1, 125649, Note_off_c, 0, 59, 43
1, 125680, Note_off_c, 0, 60, 62
1, 125703, Note_off_c, 0, 68, 44
1, 125790, Note_on_c, 0, 60, 56
1, 125890, Note_off_c, 0, 67, 58
1, 125979, Note_off_c, 0, 60, 58
1, 125983, Note_on_c, 0, 59, 50
1, 126178, Note_on_c, 0, 58, 45
1, 126217, Note_off_c, 0, 59, 37
1, 126379, Note_on_c, 0, 57, 34
1, 126379, Note_on_c, 0, 65, 52
1, 126387, Note_on_c, 0, 53, 44
1, 126387, Note_on_c, 0, 60, 39
1, 126406, Note_off_c, 0, 58, 47
1, 126553, Note_off_c, 0, 53, 61
1, 126570, Note_on_c, 0, 56, 49
1, 126574, Note_off_c, 0, 57, 47
1, 126769, Note_on_c, 0, 55, 42
1, 126771, Note_on_c, 0, 48, 46
1, 126774, Note_on_c, 0, 64, 50
1, 126786, Note_off_c, 0, 60, 59
1, 126788, Note_off_c, 0, 56, 33
1, 126811, Note_off_c, 0, 48, 62
1, 126819, Note_off_c, 0, 55, 63
1, 126870, Note_off_c, 0, 65, 57
1, 126995, Note_on_c, 0, 60, 53
1, 127105, Note_off_c, 0, 64, 59
1, 127179, Note_on_c, 0, 59, 51
1, 127203, Note_off_c, 0, 60, 49
1, 127363, Note_on_c, 0, 58, 54
1, 127368, Note_off_c, 0, 59, 49
1, 127570, Note_on_c, 0, 53, 40
1, 127573, Note_on_c, 0, 65, 53
1, 127574, Note_on_c, 0, 57, 44
1, 127581, Note_on_c, 0, 60, 41
1, 127582, Note_off_c, 0, 58, 61
1, 127734, Note_off_c, 0, 53, 58
1, 127738, Note_off_c, 0, 57, 57
1, 127751, Note_on_c, 0, 56, 48
1, 127930, Note_off_c, 0, 60, 35
1, 127970, Note_on_c, 0, 55, 21
1, 127975, Note_on_c, 0, 64, 44
1, 127983, Note_on_c, 0, 48, 29
1, 127997, Control_c, 0, 64, 28
1, 128008, Note_off_c, 0, 56, 25
1, 128012, Control_c, 0, 64, 45
1, 128014, Note_off_c, 0, 64, 64
1, 128020, Note_off_c, 0, 65, 37
1, 128027, Control_c, 0, 64, 54
1, 128042, Control_c, 0, 64, 58
1, 128056, Control_c, 0, 64, 61
1, 128124, Control_c, 0, 64, 61
1, 128183, Control_c, 0, 64, 60
1, 128198, Control_c, 0, 64, 60
1, 128212, Control_c, 0, 64, 59
1, 128256, Control_c, 0, 64, 59
1, 128262, Note_on_c, 0, 79, 49
1, 128271, Control_c, 0, 64, 58
1, 128286, Control_c, 0, 64, 58
1, 128307, Note_off_c, 0, 48, 40
1, 128316, Control_c, 0, 64, 57
1, 128330, Control_c, 0, 64, 56
1, 128345, Control_c, 0, 64, 54
1, 128360, Note_off_c, 0, 55, 48
1, 128360, Control_c, 0, 64, 53
1, 128390, Control_c, 0, 64, 54
1, 128420, Control_c, 0, 64, 53
1, 128449, Control_c, 0, 64, 52
1, 128458, Note_on_c, 0, 80, 59
1, 128494, Note_off_c, 0, 79, 52
1, 128523, Control_c, 0, 64, 51
1, 128538, Control_c, 0, 64, 51
1, 128553, Control_c, 0, 64, 50
1, 128613, Control_c, 0, 64, 49
1, 128628, Control_c, 0, 64, 48
1, 128639, Note_on_c, 0, 81, 73
1, 128643, Control_c, 0, 64, 47
1, 128658, Control_c, 0, 64, 44
1, 128672, Control_c, 0, 64, 41
1, 128687, Control_c, 0, 64, 35
1, 128691, Note_off_c, 0, 80, 61
1, 128702, Control_c, 0, 64, 29
1, 128717, Control_c, 0, 64, 25
1, 128732, Control_c, 0, 64, 21
1, 128746, Control_c, 0, 64, 0
1, 128819, Note_on_c, 0, 82, 73
1, 128823, Note_on_c, 0, 65, 30
1, 128825, Note_on_c, 0, 68, 38
1, 128873, Note_off_c, 0, 81, 59
1, 129002, Note_on_c, 0, 83, 71
1, 129082, Note_off_c, 0, 82, 56
1, 129204, Note_on_c, 0, 84, 65
1, 129206, Note_on_c, 0, 67, 35
1, 129223, Note_on_c, 0, 64, 27
1, 129225, Note_on_c, 0, 60, 32
1, 129235, Note_off_c, 0, 83, 61
1, 129280, Note_off_c, 0, 65, 38
1, 129289, Note_off_c, 0, 84, 62
1, 129373, Note_off_c, 0, 68, 36
1, 129464, Note_on_c, 0, 79, 60
1, 129582, Note_off_c, 0, 60, 39
1, 129657, Note_on_c, 0, 80, 69
1, 129673, Note_off_c, 0, 79, 55
1, 129683, Note_off_c, 0, 67, 41
1, 129689, Note_off_c, 0, 64, 41
1, 129835, Note_on_c, 0, 81, 74
1, 129864, Note_off_c, 0, 80, 63
1, 130002, Note_on_c, 0, 82, 67
1, 130018, Note_on_c, 0, 68, 43
1, 130035, Note_off_c, 0, 81, 56
1, 130038, Note_on_c, 0, 65, 25
1, 130192, Note_on_c, 0, 83, 54
1, 130281, Note_off_c, 0, 82, 32
1, 130384, Control_c, 0, 64, 10
1, 130389, Note_on_c, 0, 67, 27
1, 130399, Control_c, 0, 64, 40
1, 130403, Note_on_c, 0, 84, 55
1, 130414, Control_c, 0, 64, 47
1, 130415, Note_on_c, 0, 60, 16
1, 130417, Note_on_c, 0, 64, 26
1, 130426, Note_off_c, 0, 83, 57
1, 130429, Control_c, 0, 64, 50
1, 130430, Note_off_c, 0, 68, 47
1, 130444, Control_c, 0, 64, 52
1, 130458, Control_c, 0, 64, 54
1, 130464, Note_off_c, 0, 84, 63
1, 130473, Control_c, 0, 64, 55
1, 130473, Note_off_c, 0, 65, 44
1, 130517, Control_c, 0, 64, 54
1, 130542, Note_off_c, 0, 67, 47
1, 130547, Control_c, 0, 64, 54
1, 130562, Control_c, 0, 64, 53
1, 130577, Control_c, 0, 64, 52
1, 130591, Control_c, 0, 64, 50
1, 130606, Control_c, 0, 64, 49
1, 130621, Control_c, 0, 64, 49
1, 130636, Control_c, 0, 64, 48
1, 130647, Note_on_c, 0, 67, 51
1, 130650, Control_c, 0, 64, 46
1, 130665, Control_c, 0, 64, 44
1, 130680, Control_c, 0, 64, 43
1, 130695, Control_c, 0, 64, 43
1, 130710, Control_c, 0, 64, 42
1, 130724, Control_c, 0, 64, 39
1, 130739, Control_c, 0, 64, 36
1, 130754, Control_c, 0, 64, 35
1, 130769, Control_c, 0, 64, 34
1, 130784, Control_c, 0, 64, 32
1, 130798, Control_c, 0, 64, 28
1, 130813, Control_c, 0, 64, 22
1, 130828, Control_c, 0, 64, 18
1, 130843, Control_c, 0, 64, 15
1, 130858, Control_c, 0, 64, 12
1, 130861, Note_off_c, 0, 60, 38
1, 130870, Note_on_c, 0, 68, 54
1, 130873, Control_c, 0, 64, 0
1, 130873, Note_off_c, 0, 67, 52
1, 130932, Note_off_c, 0, 64, 35
1, 131055, Note_on_c, 0, 69, 65
1, 131107, Note_off_c, 0, 68, 55
1, 131241, Note_on_c, 0, 70, 66
1, 131275, Note_off_c, 0, 69, 61
1, 131424, Note_on_c, 0, 71, 69
1, 131470, Note_off_c, 0, 70, 58
1, 131624, Note_on_c, 0, 72, 59
1, 131678, Note_off_c, 0, 71, 56
1, 131875, Note_on_c, 0, 64, 53
1, 132052, Note_on_c, 0, 65, 66
1, 132173, Note_off_c, 0, 64, 37
1, 132219, Note_on_c, 0, 66, 77
1, 132282, Note_off_c, 0, 65, 52
1, 132394, Note_on_c, 0, 67, 71
1, 132408, Note_off_c, 0, 66, 67
1, 132572, Note_on_c, 0, 69, 78
1, 132657, Note_off_c, 0, 67, 39
1, 132755, Note_on_c, 0, 70, 78
1, 132845, Note_off_c, 0, 69, 57
1, 132959, Note_on_c, 0, 59, 63
1, 133138, Note_on_c, 0, 60, 73
1, 133225, Note_off_c, 0, 59, 39
1, 133319, Note_on_c, 0, 61, 84
1, 133389, Note_off_c, 0, 60, 59
1, 133505, Note_on_c, 0, 62, 74
1, 133530, Note_off_c, 0, 61, 64
1, 133680, Note_on_c, 0, 63, 71
1, 133731, Note_off_c, 0, 62, 55
1, 133869, Control_c, 0, 64, 34
1, 133875, Note_off_c, 0, 63, 63
1, 133884, Control_c, 0, 64, 50
1, 133885, Note_on_c, 0, 64, 70
1, 133898, Control_c, 0, 64, 57
1, 133913, Control_c, 0, 64, 61
1, 133928, Control_c, 0, 64, 64
1, 133943, Control_c, 0, 64, 65
1, 133958, Control_c, 0, 64, 67
1, 133973, Control_c, 0, 64, 70
1, 133987, Control_c, 0, 64, 72
1, 134002, Control_c, 0, 64, 73
1, 134017, Control_c, 0, 64, 74
1, 134032, Control_c, 0, 64, 74
1, 134061, Control_c, 0, 64, 75
1, 134068, Note_off_c, 0, 72, 39
1, 134113, Note_on_c, 0, 48, 73
1, 134203, Control_c, 0, 64, 74
1, 134217, Control_c, 0, 64, 73
1, 134232, Control_c, 0, 64, 72
1, 134247, Control_c, 0, 64, 70
1, 134262, Control_c, 0, 64, 67
1, 134277, Control_c, 0, 64, 64
1, 134292, Control_c, 0, 64, 60
1, 134301, Note_on_c, 0, 49, 77
1, 134307, Control_c, 0, 64, 53
1, 134310, Note_on_c, 0, 72, 68
1, 134322, Control_c, 0, 64, 38
1, 134337, Control_c, 0, 64, 0
1, 134369, Note_off_c, 0, 48, 41
1, 134440, Control_c, 0, 64, 41
1, 134455, Control_c, 0, 64, 59
1, 134470, Control_c, 0, 64, 63
1, 134485, Control_c, 0, 64, 65
1, 134499, Control_c, 0, 64, 68
1, 134511, Note_on_c, 0, 50, 79
1, 134514, Control_c, 0, 64, 70
1, 134529, Control_c, 0, 64, 71
1, 134544, Control_c, 0, 64, 71
1, 134562, Note_off_c, 0, 49, 62
1, 134572, Note_off_c, 0, 72, 58
1, 134648, Note_off_c, 0, 70, 37
1, 134677, Control_c, 0, 64, 70
1, 134691, Control_c, 0, 64, 69
1, 134706, Control_c, 0, 64, 67
1, 134721, Control_c, 0, 64, 65
1, 134731, Note_on_c, 0, 51, 70
1, 134736, Note_on_c, 0, 72, 57
1, 134736, Control_c, 0, 64, 62
1, 134751, Control_c, 0, 64, 59
1, 134766, Control_c, 0, 64, 51
1, 134777, Note_off_c, 0, 50, 59
1, 134781, Control_c, 0, 64, 28
1, 134796, Control_c, 0, 64, 0
1, 134802, Note_off_c, 0, 64, 37
1, 134936, Control_c, 0, 64, 47
1, 134951, Control_c, 0, 64, 54
1, 134967, Control_c, 0, 64, 55
1, 135010, Note_on_c, 0, 52, 58
1, 135026, Control_c, 0, 64, 55
1, 135055, Control_c, 0, 64, 54
1, 135070, Control_c, 0, 64, 54
1, 135085, Control_c, 0, 64, 52
1, 135100, Control_c, 0, 64, 51
1, 135103, Note_off_c, 0, 51, 56
1, 135115, Control_c, 0, 64, 48
1, 135130, Control_c, 0, 64, 44
1, 135144, Control_c, 0, 64, 39
1, 135157, Note_off_c, 0, 72, 38
1, 135159, Control_c, 0, 64, 33
1, 135174, Control_c, 0, 64, 26
1, 135188, Control_c, 0, 64, 8
1, 135203, Control_c, 0, 64, 0
1, 135234, Note_on_c, 0, 71, 51
1, 135279, Note_off_c, 0, 71, 59
1, 135306, Note_on_c, 0, 72, 46
1, 135332, Note_off_c, 0, 72, 60
1, 135356, Note_on_c, 0, 74, 55
1, 135409, Note_off_c, 0, 74, 53
1, 135427, Note_on_c, 0, 53, 45
1, 135434, Note_on_c, 0, 72, 48
1, 135463, Note_off_c, 0, 52, 55
1, 135707, Note_on_c, 0, 64, 39
1, 135902, Note_off_c, 0, 64, 49
1, 135905, Note_on_c, 0, 65, 46
1, 135967, Control_c, 0, 64, 21
1, 135982, Control_c, 0, 64, 39
1, 135996, Control_c, 0, 64, 42
1, 136011, Control_c, 0, 64, 49
1, 136026, Control_c, 0, 64, 55
1, 136041, Control_c, 0, 64, 58
1, 136056, Control_c, 0, 64, 60
1, 136070, Control_c, 0, 64, 61
1, 136071, Note_off_c, 0, 65, 59
1, 136085, Control_c, 0, 64, 62
1, 136086, Note_on_c, 0, 67, 56
1, 136100, Control_c, 0, 64, 62
1, 136115, Control_c, 0, 64, 63
1, 136129, Control_c, 0, 64, 63
1, 136159, Control_c, 0, 64, 64
1, 136174, Control_c, 0, 64, 64
1, 136188, Control_c, 0, 64, 65
1, 136276, Note_on_c, 0, 69, 48
1, 136329, Note_off_c, 0, 67, 34
1, 136462, Note_on_c, 0, 70, 56
1, 136477, Control_c, 0, 64, 64
1, 136480, Note_off_c, 0, 69, 59
1, 136522, Control_c, 0, 64, 64
1, 136537, Control_c, 0, 64, 63
1, 136567, Control_c, 0, 64, 63
1, 136582, Control_c, 0, 64, 62
1, 136597, Control_c, 0, 64, 62
1, 136611, Control_c, 0, 64, 61
1, 136626, Control_c, 0, 64, 59
1, 136641, Control_c, 0, 64, 58
1, 136656, Control_c, 0, 64, 56
1, 136660, Note_on_c, 0, 41, 37
1, 136668, Note_off_c, 0, 70, 58
1, 136671, Control_c, 0, 64, 54
1, 136674, Note_on_c, 0, 69, 52
1, 136685, Control_c, 0, 64, 51
1, 136700, Control_c, 0, 64, 47
1, 136715, Control_c, 0, 64, 46
1, 136730, Control_c, 0, 64, 46
1, 136745, Control_c, 0, 64, 45
1, 136759, Control_c, 0, 64, 42
1, 136774, Control_c, 0, 64, 38
1, 136789, Control_c, 0, 64, 34
1, 136804, Control_c, 0, 64, 28
1, 136818, Control_c, 0, 64, 8
1, 136833, Control_c, 0, 64, 0
1, 136875, Note_on_c, 0, 70, 62
1, 136918, Note_off_c, 0, 69, 53
1, 137057, Note_on_c, 0, 69, 52
1, 137177, Note_off_c, 0, 70, 37
1, 137248, Note_on_c, 0, 67, 60
1, 137267, Note_off_c, 0, 69, 65
1, 137437, Note_on_c, 0, 65, 51
1, 137529, Note_off_c, 0, 67, 37
1, 137625, Note_on_c, 0, 63, 62
1, 137735, Note_off_c, 0, 65, 37
1, 137821, Note_on_c, 0, 62, 60
1, 137894, Note_off_c, 0, 63, 63
1, 138015, Note_off_c, 0, 72, 57
1, 138019, Control_c, 0, 64, 31
1, 138023, Note_on_c, 0, 64, 57
1, 138033, Control_c, 0, 64, 46
1, 138048, Control_c, 0, 64, 54
1, 138063, Control_c, 0, 64, 58
1, 138078, Control_c, 0, 64, 61
1, 138093, Control_c, 0, 64, 62
1, 138108, Control_c, 0, 64, 63
1, 138122, Control_c, 0, 64, 63
1, 138169, Control_c, 0, 64, 63
1, 138183, Control_c, 0, 64, 61
1, 138198, Control_c, 0, 64, 57
1, 138199, Note_off_c, 0, 64, 65
1, 138200, Note_on_c, 0, 70, 70
1, 138213, Control_c, 0, 64, 43
1, 138219, Note_on_c, 0, 65, 49
1, 138226, Note_off_c, 0, 62, 51
1, 138228, Control_c, 0, 64, 0
1, 138317, Control_c, 0, 64, 12
1, 138331, Control_c, 0, 64, 57
1, 138346, Control_c, 0, 64, 62
1, 138361, Control_c, 0, 64, 63
1, 138376, Control_c, 0, 64, 65
1, 138390, Note_on_c, 0, 62, 55
1, 138391, Control_c, 0, 64, 67
1, 138406, Control_c, 0, 64, 69
1, 138421, Control_c, 0, 64, 72
1, 138435, Control_c, 0, 64, 74
1, 138445, Note_off_c, 0, 70, 59
1, 138465, Control_c, 0, 64, 74
1, 138558, Note_off_c, 0, 53, 44
1, 138571, Note_on_c, 0, 69, 78
1, 138573, Note_off_c, 0, 65, 19
1, 138587, Note_off_c, 0, 62, 54
1, 138596, Note_on_c, 0, 60, 58
1, 138605, Control_c, 0, 64, 73
1, 138620, Control_c, 0, 64, 70
1, 138635, Control_c, 0, 64, 66
1, 138650, Control_c, 0, 64, 61
1, 138656, Note_off_c, 0, 41, 40
1, 138665, Control_c, 0, 64, 42
1, 138680, Control_c, 0, 64, 20
1, 138695, Control_c, 0, 64, 44
1, 138710, Control_c, 0, 64, 57
1, 138725, Control_c, 0, 64, 62
1, 138739, Control_c, 0, 64, 65
1, 138754, Control_c, 0, 64, 71
1, 138769, Control_c, 0, 64, 78
1, 138778, Note_on_c, 0, 65, 56
1, 138778, Note_off_c, 0, 60, 57
1, 138783, Control_c, 0, 64, 81
1, 138798, Control_c, 0, 64, 84
1, 138813, Control_c, 0, 64, 86
1, 138836, Note_off_c, 0, 69, 62
1, 138972, Note_on_c, 0, 67, 74
1, 138977, Control_c, 0, 64, 83
1, 138987, Note_on_c, 0, 46, 53
1, 138987, Note_on_c, 0, 58, 54
1, 138992, Control_c, 0, 64, 79
1, 138994, Note_off_c, 0, 65, 53
1, 139006, Control_c, 0, 64, 73
1, 139021, Control_c, 0, 64, 67
1, 139036, Control_c, 0, 64, 57
1, 139051, Control_c, 0, 64, 22
1, 139066, Control_c, 0, 64, 0
1, 139110, Control_c, 0, 64, 44
1, 139125, Control_c, 0, 64, 61
1, 139140, Control_c, 0, 64, 67
1, 139154, Control_c, 0, 64, 73
1, 139169, Control_c, 0, 64, 77
1, 139177, Note_on_c, 0, 62, 61
1, 139184, Control_c, 0, 64, 80
1, 139199, Control_c, 0, 64, 82
1, 139208, Note_off_c, 0, 67, 55
1, 139213, Control_c, 0, 64, 84
1, 139228, Control_c, 0, 64, 85
1, 139235, Note_off_c, 0, 58, 55
1, 139248, Note_off_c, 0, 46, 35
1, 139340, Control_c, 0, 64, 83
1, 139355, Control_c, 0, 64, 79
1, 139366, Note_on_c, 0, 65, 70
1, 139367, Note_on_c, 0, 48, 62
1, 139369, Note_off_c, 0, 62, 54
1, 139369, Control_c, 0, 64, 74
1, 139383, Note_on_c, 0, 57, 58
1, 139384, Control_c, 0, 64, 68
1, 139399, Control_c, 0, 64, 61
1, 139413, Control_c, 0, 64, 39
1, 139428, Control_c, 0, 64, 0
1, 139473, Control_c, 0, 64, 40
1, 139488, Control_c, 0, 64, 60
1, 139503, Control_c, 0, 64, 65
1, 139517, Control_c, 0, 64, 67
1, 139532, Control_c, 0, 64, 70
1, 139547, Control_c, 0, 64, 72
1, 139553, Note_on_c, 0, 60, 67
1, 139562, Control_c, 0, 64, 75
1, 139577, Control_c, 0, 64, 76
1, 139590, Note_off_c, 0, 65, 55
1, 139602, Note_off_c, 0, 57, 55
1, 139640, Note_off_c, 0, 48, 33
1, 139666, Control_c, 0, 64, 76
1, 139680, Control_c, 0, 64, 74
1, 139695, Control_c, 0, 64, 69
1, 139710, Control_c, 0, 64, 61
1, 139716, Note_on_c, 0, 36, 57
1, 139725, Control_c, 0, 64, 29
1, 139730, Note_on_c, 0, 64, 75
1, 139734, Note_on_c, 0, 55, 66
1, 139739, Control_c, 0, 64, 0
1, 139747, Note_off_c, 0, 60, 61
1, 139800, Control_c, 0, 64, 35
1, 139815, Control_c, 0, 64, 62
1, 139829, Control_c, 0, 64, 68
1, 139844, Control_c, 0, 64, 70
1, 139848, Note_off_c, 0, 36, 49
1, 139859, Control_c, 0, 64, 71
1, 139874, Control_c, 0, 64, 73
1, 139889, Control_c, 0, 64, 74
1, 139903, Control_c, 0, 64, 75
1, 139921, Note_on_c, 0, 58, 68
1, 139962, Control_c, 0, 64, 76
1, 140039, Note_off_c, 0, 55, 32
1, 140104, Control_c, 0, 64, 75
1, 140118, Control_c, 0, 64, 74
1, 140133, Control_c, 0, 64, 72
1, 140148, Note_off_c, 0, 58, 62
1, 140148, Control_c, 0, 64, 71
1, 140150, Note_on_c, 0, 65, 73
1, 140162, Control_c, 0, 64, 69
1, 140164, Note_on_c, 0, 53, 63
1, 140167, Note_on_c, 0, 41, 56
1, 140177, Control_c, 0, 64, 67
1, 140179, Note_off_c, 0, 64, 60
1, 140192, Control_c, 0, 64, 65
1, 140207, Control_c, 0, 64, 64
1, 140222, Control_c, 0, 64, 63
1, 140236, Control_c, 0, 64, 61
1, 140251, Control_c, 0, 64, 54
1, 140266, Control_c, 0, 64, 35
1, 140281, Control_c, 0, 64, 0
1, 140390, Note_on_c, 0, 64, 70
1, 140432, Note_off_c, 0, 65, 60
1, 140532, Control_c, 0, 64, 12
1, 140547, Control_c, 0, 64, 36
1, 140563, Control_c, 0, 64, 46
1, 140567, Note_on_c, 0, 65, 74
1, 140577, Note_off_c, 0, 64, 64
1, 140577, Control_c, 0, 64, 51
1, 140592, Control_c, 0, 64, 53
1, 140622, Control_c, 0, 64, 40
1, 140637, Control_c, 0, 64, 0
1, 140711, Control_c, 0, 64, 43
1, 140725, Control_c, 0, 64, 62
1, 140740, Control_c, 0, 64, 65
1, 140745, Note_on_c, 0, 67, 82
1, 140755, Control_c, 0, 64, 66
1, 140769, Control_c, 0, 64, 67
1, 140784, Control_c, 0, 64, 67
1, 140799, Control_c, 0, 64, 70
1, 140814, Control_c, 0, 64, 77
1, 140818, Note_off_c, 0, 65, 38
1, 140837, Control_c, 0, 64, 84
1, 140852, Control_c, 0, 64, 88
1, 140866, Control_c, 0, 64, 90
1, 140881, Control_c, 0, 64, 91
1, 140896, Control_c, 0, 64, 92
1, 140911, Control_c, 0, 64, 99
1, 140922, Note_on_c, 0, 69, 86
1, 140926, Control_c, 0, 64, 108
1, 140940, Control_c, 0, 64, 118
1, 140955, Control_c, 0, 64, 125
1, 140957, Note_off_c, 0, 67, 62
1, 140966, Note_off_c, 0, 53, 60
1, 140970, Control_c, 0, 64, 127
1, 141094, Note_on_c, 0, 70, 82
1, 141119, Note_off_c, 0, 69, 65
1, 141329, Note_on_c, 0, 54, 82
1, 141339, Note_on_c, 0, 42, 69
1, 141351, Note_on_c, 0, 72, 68
1, 141357, Control_c, 0, 64, 110
1, 141360, Note_on_c, 0, 69, 61
1, 141369, Note_off_c, 0, 70, 56
1, 141372, Control_c, 0, 64, 97
1, 141387, Control_c, 0, 64, 86
1, 141400, Note_off_c, 0, 41, 40
1, 141401, Control_c, 0, 64, 79
1, 141416, Control_c, 0, 64, 73
1, 141431, Control_c, 0, 64, 68
1, 141446, Control_c, 0, 64, 64
1, 141461, Control_c, 0, 64, 59
1, 141475, Control_c, 0, 64, 49
1, 141490, Control_c, 0, 64, 26
1, 141505, Control_c, 0, 64, 0
1, 141601, Note_on_c, 0, 70, 68
1, 141607, Note_off_c, 0, 69, 62
1, 141784, Note_on_c, 0, 69, 70
1, 141807, Note_off_c, 0, 70, 62
1, 141912, Control_c, 0, 64, 48
1, 141927, Control_c, 0, 64, 56
1, 141941, Control_c, 0, 64, 59
1, 141956, Control_c, 0, 64, 61
1, 141967, Note_off_c, 0, 69, 64
1, 141971, Note_on_c, 0, 67, 67
1, 141971, Control_c, 0, 64, 63
1, 141986, Control_c, 0, 64, 67
1, 142001, Control_c, 0, 64, 74
1, 142015, Control_c, 0, 64, 81
1, 142030, Control_c, 0, 64, 85
1, 142045, Control_c, 0, 64, 90
1, 142060, Control_c, 0, 64, 105
1, 142075, Control_c, 0, 64, 127
1, 142148, Note_on_c, 0, 66, 71
1, 142213, Note_off_c, 0, 67, 37
1, 142326, Note_on_c, 0, 63, 73
1, 142370, Note_off_c, 0, 54, 54
1, 142380, Note_off_c, 0, 42, 34
1, 142385, Note_off_c, 0, 66, 52
1, 142511, Note_on_c, 0, 55, 75
1, 142516, Note_on_c, 0, 43, 72
1, 142538, Note_on_c, 0, 62, 62
1, 142543, Control_c, 0, 64, 108
1, 142544, Note_off_c, 0, 63, 60
1, 142557, Control_c, 0, 64, 87
1, 142572, Control_c, 0, 64, 73
1, 142577, Note_off_c, 0, 72, 31
1, 142587, Control_c, 0, 64, 61
1, 142602, Control_c, 0, 64, 21
1, 142617, Control_c, 0, 64, 0
1, 142730, Note_on_c, 0, 61, 62
1, 142735, Control_c, 0, 64, 52
1, 142749, Note_off_c, 0, 62, 48
1, 142749, Control_c, 0, 64, 63
1, 142764, Control_c, 0, 64, 67
1, 142779, Control_c, 0, 64, 71
1, 142794, Control_c, 0, 64, 78
1, 142809, Control_c, 0, 64, 87
1, 142823, Control_c, 0, 64, 96
1, 142838, Control_c, 0, 64, 107
1, 142853, Control_c, 0, 64, 127
1, 142929, Note_off_c, 0, 61, 59
1, 142941, Note_on_c, 0, 70, 69
1, 142949, Note_on_c, 0, 62, 62
1, 143059, Note_off_c, 0, 43, 36
1, 143089, Note_off_c, 0, 55, 63
1, 143117, Note_off_c, 0, 70, 62
1, 143133, Note_on_c, 0, 64, 72
1, 143138, Note_off_c, 0, 62, 57
1, 143247, Control_c, 0, 64, 83
1, 143262, Control_c, 0, 64, 65
1, 143276, Control_c, 0, 64, 38
1, 143285, Note_on_c, 0, 57, 68
1, 143291, Note_on_c, 0, 69, 73
1, 143291, Control_c, 0, 64, 0
1, 143295, Note_on_c, 0, 45, 58
1, 143300, Note_off_c, 0, 64, 62
1, 143303, Note_on_c, 0, 65, 66
1, 143351, Control_c, 0, 64, 49
1, 143366, Control_c, 0, 64, 62
1, 143380, Control_c, 0, 64, 67
1, 143390, Note_off_c, 0, 57, 59
1, 143395, Control_c, 0, 64, 71
1, 143410, Control_c, 0, 64, 75
1, 143425, Control_c, 0, 64, 78
1, 143440, Control_c, 0, 64, 81
1, 143454, Control_c, 0, 64, 84
1, 143456, Note_off_c, 0, 45, 64
1, 143464, Note_off_c, 0, 69, 61
1, 143469, Control_c, 0, 64, 91
1, 143483, Note_on_c, 0, 60, 64
1, 143484, Control_c, 0, 64, 97
1, 143498, Control_c, 0, 64, 102
1, 143510, Note_off_c, 0, 65, 62
1, 143632, Control_c, 0, 64, 98
1, 143646, Control_c, 0, 64, 89
1, 143661, Control_c, 0, 64, 78
1, 143670, Note_off_c, 0, 60, 60
1, 143676, Control_c, 0, 64, 67
1, 143686, Note_on_c, 0, 46, 52
1, 143688, Note_on_c, 0, 67, 70
1, 143691, Control_c, 0, 64, 52
1, 143697, Note_on_c, 0, 34, 41
1, 143706, Control_c, 0, 64, 0
1, 143717, Note_on_c, 0, 58, 44
1, 143781, Control_c, 0, 64, 33
1, 143795, Control_c, 0, 64, 60
1, 143810, Control_c, 0, 64, 67
1, 143833, Control_c, 0, 64, 73
1, 143848, Control_c, 0, 64, 78
1, 143863, Control_c, 0, 64, 83
1, 143877, Control_c, 0, 64, 87
1, 143892, Control_c, 0, 64, 91
1, 143904, Note_off_c, 0, 34, 56
1, 143907, Control_c, 0, 64, 92
1, 143920, Note_on_c, 0, 62, 52
1, 143922, Note_off_c, 0, 46, 60
1, 143922, Control_c, 0, 64, 93
1, 143960, Note_off_c, 0, 58, 50
1, 143978, Note_off_c, 0, 67, 38
1, 144084, Control_c, 0, 64, 91
1, 144096, Note_on_c, 0, 48, 57
1, 144099, Note_on_c, 0, 36, 53
1, 144099, Control_c, 0, 64, 85
1, 144100, Note_on_c, 0, 65, 63
1, 144111, Note_on_c, 0, 57, 56
1, 144114, Control_c, 0, 64, 73
1, 144116, Note_off_c, 0, 62, 36
1, 144129, Control_c, 0, 64, 62
1, 144144, Control_c, 0, 64, 0
1, 144203, Control_c, 0, 64, 56
1, 144218, Control_c, 0, 64, 65
1, 144233, Control_c, 0, 64, 74
1, 144248, Control_c, 0, 64, 91
1, 144263, Control_c, 0, 64, 127
1, 144274, Note_off_c, 0, 48, 57
1, 144294, Note_on_c, 0, 60, 66
1, 144344, Note_off_c, 0, 57, 53
1, 144362, Note_off_c, 0, 65, 37
1, 144367, Note_off_c, 0, 36, 41
1, 144440, Control_c, 0, 64, 106
1, 144452, Note_on_c, 0, 64, 78
1, 144454, Note_on_c, 0, 49, 64
1, 144454, Note_on_c, 0, 37, 62
1, 144455, Control_c, 0, 64, 79
1, 144459, Note_on_c, 0, 55, 65
1, 144463, Note_off_c, 0, 60, 61
1, 144469, Control_c, 0, 64, 64
1, 144484, Control_c, 0, 64, 0
1, 144528, Control_c, 0, 64, 15
1, 144544, Control_c, 0, 64, 62
1, 144559, Control_c, 0, 64, 71
1, 144582, Control_c, 0, 64, 84
1, 144597, Control_c, 0, 64, 118
1, 144612, Control_c, 0, 64, 127
1, 144641, Note_on_c, 0, 58, 64
1, 144669, Note_off_c, 0, 55, 61
1, 144688, Note_off_c, 0, 49, 59
1, 144699, Note_off_c, 0, 37, 54
1, 144819, Control_c, 0, 64, 98
1, 144833, Control_c, 0, 64, 74
1, 144848, Control_c, 0, 64, 57
1, 144863, Control_c, 0, 64, 0
1, 144876, Note_on_c, 0, 50, 46
1, 144876, Note_off_c, 0, 58, 38
1, 144880, Note_on_c, 0, 38, 42
1, 144898, Note_off_c, 0, 64, 59
1, 144900, Note_on_c, 0, 65, 68
1, 144901, Note_on_c, 0, 57, 53
1, 145100, Control_c, 0, 64, 53
1, 145115, Control_c, 0, 64, 69
1, 145125, Note_off_c, 0, 57, 54
1, 145130, Control_c, 0, 64, 94
1, 145144, Control_c, 0, 64, 127
1, 145156, Note_on_c, 0, 62, 67
1, 145212, Note_off_c, 0, 62, 59
1, 145332, Note_off_c, 0, 50, 38
1, 145345, Note_on_c, 0, 69, 82
1, 145354, Note_on_c, 0, 62, 62
1, 145360, Note_off_c, 0, 65, 61
1, 145518, Note_on_c, 0, 65, 79
1, 145527, Note_off_c, 0, 62, 59
1, 145552, Note_off_c, 0, 65, 62
1, 145686, Note_off_c, 0, 69, 65
1, 145696, Note_on_c, 0, 48, 71
1, 145700, Note_on_c, 0, 74, 81
1, 145700, Control_c, 0, 64, 93
1, 145701, Note_on_c, 0, 36, 64
1, 145702, Note_on_c, 0, 66, 85
1, 145709, Note_off_c, 0, 38, 40
1, 145715, Control_c, 0, 64, 66
1, 145730, Control_c, 0, 64, 0
1, 145774, Control_c, 0, 64, 31
1, 145789, Control_c, 0, 64, 60
1, 145804, Control_c, 0, 64, 70
1, 145819, Control_c, 0, 64, 95
1, 145834, Control_c, 0, 64, 127
1, 145847, Note_off_c, 0, 48, 61
1, 145872, Note_on_c, 0, 69, 78
1, 145878, Note_off_c, 0, 66, 64
1, 145906, Note_off_c, 0, 74, 63
1, 145908, Note_off_c, 0, 69, 64
1, 146047, Note_off_c, 0, 36, 56
1, 146049, Note_on_c, 0, 46, 63
1, 146053, Note_on_c, 0, 34, 58
1, 146056, Control_c, 0, 64, 73
1, 146058, Note_on_c, 0, 79, 82
1, 146074, Note_on_c, 0, 70, 76
1, 146078, Control_c, 0, 64, 39
1, 146093, Control_c, 0, 64, 0
1, 146123, Control_c, 0, 64, 48
1, 146138, Control_c, 0, 64, 67
1, 146153, Control_c, 0, 64, 118
1, 146168, Control_c, 0, 64, 127
1, 146175, Note_off_c, 0, 34, 64
1, 146198, Note_off_c, 0, 46, 62
1, 146249, Note_on_c, 0, 74, 84
1, 146270, Note_off_c, 0, 70, 63
1, 146279, Note_off_c, 0, 79, 60
1, 146293, Note_off_c, 0, 74, 67
1, 146432, Note_on_c, 0, 55, 76
1, 146437, Note_on_c, 0, 82, 91
1, 146439, Note_on_c, 0, 43, 69
1, 146444, Note_on_c, 0, 74, 75
1, 146450, Control_c, 0, 64, 78
1, 146465, Control_c, 0, 64, 57
1, 146479, Control_c, 0, 64, 0
1, 146523, Control_c, 0, 64, 61
1, 146538, Control_c, 0, 64, 79
1, 146553, Control_c, 0, 64, 127
1, 146597, Note_on_c, 0, 79, 71
1, 146600, Note_off_c, 0, 74, 61
1, 146645, Note_off_c, 0, 79, 62
1, 146658, Note_off_c, 0, 82, 64
1, 146664, Note_off_c, 0, 55, 38
1, 146793, Note_on_c, 0, 41, 65
1, 146794, Note_on_c, 0, 53, 63
1, 146802, Note_on_c, 0, 86, 96
1, 146823, Note_on_c, 0, 79, 77
1, 146827, Control_c, 0, 64, 92
1, 146832, Note_off_c, 0, 43, 56
1, 146842, Control_c, 0, 64, 65
1, 146857, Control_c, 0, 64, 0
1, 146946, Control_c, 0, 64, 58
1, 146961, Control_c, 0, 64, 70
1, 146976, Control_c, 0, 64, 91
1, 146991, Control_c, 0, 64, 127
1, 147027, Note_on_c, 0, 82, 83
1, 147069, Note_off_c, 0, 86, 60
1, 147081, Note_off_c, 0, 79, 58
1, 147083, Note_off_c, 0, 53, 37
1, 147109, Note_off_c, 0, 82, 65
1, 147274, Note_on_c, 0, 40, 58
1, 147285, Note_on_c, 0, 52, 52
1, 147298, Note_off_c, 0, 41, 37
1, 147347, Note_on_c, 0, 84, 78
1, 147358, Note_on_c, 0, 79, 58
1, 147361, Control_c, 0, 64, 98
1, 147376, Control_c, 0, 64, 81
1, 147391, Control_c, 0, 64, 71
1, 147406, Control_c, 0, 64, 65
1, 147420, Control_c, 0, 64, 59
1, 147435, Control_c, 0, 64, 41
1, 147450, Control_c, 0, 64, 0
1, 147606, Control_c, 0, 64, 38
1, 147620, Control_c, 0, 64, 62
1, 147635, Control_c, 0, 64, 73
1, 147650, Control_c, 0, 64, 81
1, 147665, Control_c, 0, 64, 85
1, 147675, Note_on_c, 0, 82, 69
1, 147679, Control_c, 0, 64, 92
1, 147694, Control_c, 0, 64, 112
1, 147709, Control_c, 0, 64, 127
1, 147731, Note_off_c, 0, 79, 56
1, 147852, Note_off_c, 0, 40, 39
1, 147864, Note_on_c, 0, 79, 64
1, 147906, Note_off_c, 0, 82, 61
1, 147955, Note_off_c, 0, 52, 42
1, 148049, Note_on_c, 0, 82, 66
1, 148136, Note_off_c, 0, 79, 38
1, 148237, Note_on_c, 0, 81, 60
1, 148240, Note_on_c, 0, 41, 44
1, 148245, Note_on_c, 0, 53, 45
1, 148258, Control_c, 0, 64, 89
1, 148262, Note_off_c, 0, 82, 62
1, 148273, Control_c, 0, 64, 72
1, 148287, Control_c, 0, 64, 62
1, 148302, Control_c, 0, 64, 25
1, 148325, Control_c, 0, 64, 0
1, 148369, Control_c, 0, 64, 36
1, 148384, Control_c, 0, 64, 56
1, 148399, Control_c, 0, 64, 64
1, 148404, Note_off_c, 0, 53, 53
1, 148408, Note_off_c, 0, 41, 37
1, 148414, Control_c, 0, 64, 72
1, 148429, Control_c, 0, 64, 92
1, 148430, Note_on_c, 0, 77, 61
1, 148435, Note_off_c, 0, 81, 58
1, 148444, Control_c, 0, 64, 105
1, 148458, Control_c, 0, 64, 110
1, 148473, Control_c, 0, 64, 127
1, 148629, Note_off_c, 0, 77, 57
1, 148636, Note_on_c, 0, 74, 53
1, 148650, Note_on_c, 0, 46, 49
1, 148651, Control_c, 0, 64, 125
1, 148666, Control_c, 0, 64, 91
1, 148672, Note_on_c, 0, 58, 33
1, 148681, Control_c, 0, 64, 73
1, 148696, Control_c, 0, 64, 60
1, 148711, Control_c, 0, 64, 28
1, 148725, Control_c, 0, 64, 0
1, 148755, Control_c, 0, 64, 29
1, 148770, Control_c, 0, 64, 57
1, 148785, Control_c, 0, 64, 64
1, 148799, Control_c, 0, 64, 72
1, 148814, Control_c, 0, 64, 86
1, 148824, Note_off_c, 0, 84, 58
1, 148829, Control_c, 0, 64, 105
1, 148842, Note_on_c, 0, 82, 61
1, 148844, Control_c, 0, 64, 127
1, 148850, Note_on_c, 0, 79, 54
1, 148860, Note_off_c, 0, 46, 36
1, 148863, Note_off_c, 0, 74, 51
1, 148881, Note_off_c, 0, 58, 41
1, 148927, Note_off_c, 0, 82, 60
1, 148972, Note_off_c, 0, 79, 37
1, 149036, Control_c, 0, 64, 119
1, 149051, Control_c, 0, 64, 82
1, 149071, Note_on_c, 0, 60, 46
1, 149071, Note_on_c, 0, 81, 56
1, 149073, Control_c, 0, 64, 66
1, 149081, Note_on_c, 0, 48, 40
1, 149086, Note_on_c, 0, 72, 40
1, 149088, Control_c, 0, 64, 40
1, 149103, Control_c, 0, 64, 0
1, 149147, Control_c, 0, 64, 51
1, 149162, Control_c, 0, 64, 63
1, 149167, Note_off_c, 0, 60, 56
1, 149177, Control_c, 0, 64, 70
1, 149191, Control_c, 0, 64, 80
1, 149206, Control_c, 0, 64, 93
1, 149221, Control_c, 0, 64, 106
1, 149236, Control_c, 0, 64, 127
1, 149244, Note_off_c, 0, 48, 55
1, 149252, Note_off_c, 0, 81, 57
1, 149262, Note_on_c, 0, 77, 59
1, 149262, Note_off_c, 0, 72, 58
1, 149415, Control_c, 0, 64, 109
1, 149429, Control_c, 0, 64, 80
1, 149434, Note_off_c, 0, 77, 57
1, 149441, Note_on_c, 0, 79, 59
1, 149444, Control_c, 0, 64, 64
1, 149445, Note_on_c, 0, 48, 12
1, 149452, Note_on_c, 0, 70, 46
1, 149459, Control_c, 0, 64, 0
1, 149477, Note_on_c, 0, 36, 29
1, 149518, Control_c, 0, 64, 49
1, 149533, Control_c, 0, 64, 61
1, 149548, Control_c, 0, 64, 66
1, 149563, Control_c, 0, 64, 76
1, 149578, Control_c, 0, 64, 88
1, 149593, Control_c, 0, 64, 96
1, 149608, Control_c, 0, 64, 109
1, 149611, Note_off_c, 0, 36, 42
1, 149615, Note_off_c, 0, 48, 52
1, 149622, Control_c, 0, 64, 127
1, 149633, Note_off_c, 0, 79, 55
1, 149643, Note_on_c, 0, 76, 50
1, 149720, Note_off_c, 0, 70, 37
1, 149896, Control_c, 0, 64, 110
1, 149911, Control_c, 0, 64, 92
1, 149926, Control_c, 0, 64, 80
1, 149939, Note_on_c, 0, 41, 32
1, 149940, Control_c, 0, 64, 68
1, 149948, Note_on_c, 0, 53, 29
1, 149955, Control_c, 0, 64, 59
1, 149961, Note_on_c, 0, 69, 31
1, 149963, Note_on_c, 0, 77, 41
1, 149970, Control_c, 0, 64, 32
1, 149985, Control_c, 0, 64, 0
1, 150022, Note_off_c, 0, 76, 38
1, 150029, Control_c, 0, 64, 12
1, 150044, Control_c, 0, 64, 51
1, 150059, Control_c, 0, 64, 61
1, 150073, Control_c, 0, 64, 65
1, 150077, Note_off_c, 0, 77, 60
1, 150088, Control_c, 0, 64, 67
1, 150103, Control_c, 0, 64, 68
1, 150163, Control_c, 0, 64, 68
1, 150193, Control_c, 0, 64, 67
1, 150207, Note_off_c, 0, 41, 49
1, 150208, Control_c, 0, 64, 65
1, 150219, Note_on_c, 0, 77, 58
1, 150223, Control_c, 0, 64, 64
1, 150237, Control_c, 0, 64, 62
1, 150252, Control_c, 0, 64, 60
1, 150257, Note_off_c, 0, 53, 58
1, 150267, Control_c, 0, 64, 58
1, 150282, Control_c, 0, 64, 56
1, 150296, Control_c, 0, 64, 55
1, 150311, Control_c, 0, 64, 54
1, 150326, Control_c, 0, 64, 51
1, 150341, Control_c, 0, 64, 49
1, 150356, Control_c, 0, 64, 48
1, 150371, Control_c, 0, 64, 48
1, 150401, Note_on_c, 0, 76, 55
1, 150401, Control_c, 0, 64, 47
1, 150416, Control_c, 0, 64, 45
1, 150489, Control_c, 0, 64, 44
1, 150504, Control_c, 0, 64, 44
1, 150508, Note_off_c, 0, 69, 47
1, 150519, Control_c, 0, 64, 43
1, 150534, Control_c, 0, 64, 43
1, 150549, Control_c, 0, 64, 41
1, 150571, Control_c, 0, 64, 40
1, 150586, Control_c, 0, 64, 39
1, 150599, Note_on_c, 0, 75, 53
1, 150600, Control_c, 0, 64, 38
1, 150615, Control_c, 0, 64, 31
1, 150630, Control_c, 0, 64, 21
1, 150645, Control_c, 0, 64, 8
1, 150660, Control_c, 0, 64, 0
1, 150730, Note_off_c, 0, 76, 33
1, 150782, Note_on_c, 0, 74, 46
1, 150785, Note_on_c, 0, 69, 35
1, 150803, Note_off_c, 0, 75, 55
1, 150979, Note_on_c, 0, 73, 44
1, 150993, Note_off_c, 0, 74, 49
1, 151140, Note_off_c, 0, 77, 35
1, 151184, Note_on_c, 0, 70, 34
1, 151201, Note_on_c, 0, 74, 42
1, 151235, Note_off_c, 0, 73, 49
1, 151295, Note_off_c, 0, 69, 41
1, 151407, Note_on_c, 0, 77, 65
1, 151483, Note_off_c, 0, 74, 40
1, 151528, Note_off_c, 0, 70, 47
1, 151605, Note_on_c, 0, 76, 61
1, 151769, Note_on_c, 0, 75, 56
1, 151886, Note_off_c, 0, 76, 38
1, 151945, Note_on_c, 0, 69, 51
1, 151967, Note_on_c, 0, 74, 49
1, 151991, Note_off_c, 0, 75, 60
1, 152098, Control_c, 0, 64, 31
1, 152113, Control_c, 0, 64, 42
1, 152128, Control_c, 0, 64, 45
1, 152142, Note_on_c, 0, 73, 57
1, 152142, Control_c, 0, 64, 47
1, 152156, Note_off_c, 0, 74, 57
1, 152157, Control_c, 0, 64, 48
1, 152172, Control_c, 0, 64, 49
1, 152187, Control_c, 0, 64, 50
1, 152231, Control_c, 0, 64, 49
1, 152246, Control_c, 0, 64, 46
1, 152261, Control_c, 0, 64, 41
1, 152276, Control_c, 0, 64, 23
1, 152291, Control_c, 0, 64, 0
1, 152309, Note_off_c, 0, 73, 61
1, 152315, Note_on_c, 0, 70, 51
1, 152329, Note_on_c, 0, 74, 53
1, 152379, Note_off_c, 0, 69, 38
1, 152409, Control_c, 0, 64, 48
1, 152424, Control_c, 0, 64, 60
1, 152439, Control_c, 0, 64, 64
1, 152454, Control_c, 0, 64, 66
1, 152467, Note_off_c, 0, 77, 56
1, 152468, Control_c, 0, 64, 68
1, 152483, Control_c, 0, 64, 70
1, 152490, Note_on_c, 0, 76, 70
1, 152493, Note_off_c, 0, 74, 61
1, 152498, Control_c, 0, 64, 74
1, 152513, Control_c, 0, 64, 78
1, 152528, Control_c, 0, 64, 81
1, 152544, Control_c, 0, 64, 81
1, 152650, Note_off_c, 0, 76, 59
1, 152662, Control_c, 0, 64, 80
1, 152677, Control_c, 0, 64, 76
1, 152679, Note_on_c, 0, 82, 70
1, 152687, Note_on_c, 0, 77, 51
1, 152691, Control_c, 0, 64, 69
1, 152706, Control_c, 0, 64, 62
1, 152721, Control_c, 0, 64, 47
1, 152736, Control_c, 0, 64, 40
1, 152751, Control_c, 0, 64, 47
1, 152765, Control_c, 0, 64, 56
1, 152780, Control_c, 0, 64, 62
1, 152795, Control_c, 0, 64, 65
1, 152818, Control_c, 0, 64, 69
1, 152833, Control_c, 0, 64, 74
1, 152847, Control_c, 0, 64, 79
1, 152862, Control_c, 0, 64, 81
1, 152875, Note_on_c, 0, 74, 58
1, 152877, Control_c, 0, 64, 83
1, 152884, Note_off_c, 0, 77, 60
1, 152891, Control_c, 0, 64, 83
1, 152893, Note_off_c, 0, 82, 62
1, 152906, Control_c, 0, 64, 84
1, 153010, Control_c, 0, 64, 83
1, 153025, Control_c, 0, 64, 81
1, 153039, Control_c, 0, 64, 77
1, 153054, Control_c, 0, 64, 70
1, 153058, Note_off_c, 0, 70, 46
1, 153062, Note_on_c, 0, 81, 78
1, 153069, Control_c, 0, 64, 62
1, 153076, Note_on_c, 0, 65, 43
1, 153083, Note_on_c, 0, 72, 45
1, 153084, Control_c, 0, 64, 48
1, 153095, Note_off_c, 0, 74, 59
1, 153098, Control_c, 0, 64, 26
1, 153113, Control_c, 0, 64, 35
1, 153128, Control_c, 0, 64, 51
1, 153143, Control_c, 0, 64, 59
1, 153158, Control_c, 0, 64, 63
1, 153173, Control_c, 0, 64, 67
1, 153188, Control_c, 0, 64, 71
1, 153203, Control_c, 0, 64, 79
1, 153218, Control_c, 0, 64, 83
1, 153223, Note_off_c, 0, 65, 62
1, 153232, Control_c, 0, 64, 84
1, 153250, Note_on_c, 0, 77, 65
1, 153252, Note_off_c, 0, 72, 57
1, 153277, Control_c, 0, 64, 85
1, 153280, Note_off_c, 0, 81, 59
1, 153306, Control_c, 0, 64, 85
1, 153396, Control_c, 0, 64, 85
1, 153411, Control_c, 0, 64, 83
1, 153426, Control_c, 0, 64, 81
1, 153441, Control_c, 0, 64, 78
1, 153444, Note_on_c, 0, 58, 51
1, 153452, Note_on_c, 0, 70, 60
1, 153453, Note_on_c, 0, 79, 67
1, 153455, Control_c, 0, 64, 74
1, 153470, Control_c, 0, 64, 69
1, 153479, Note_off_c, 0, 77, 37
1, 153485, Control_c, 0, 64, 62
1, 153500, Control_c, 0, 64, 51
1, 153514, Control_c, 0, 64, 0
1, 153581, Control_c, 0, 64, 23
1, 153596, Control_c, 0, 64, 54
1, 153611, Control_c, 0, 64, 63
1, 153626, Control_c, 0, 64, 67
1, 153638, Note_on_c, 0, 74, 59
1, 153641, Control_c, 0, 64, 71
1, 153656, Control_c, 0, 64, 75
1, 153659, Note_off_c, 0, 79, 59
1, 153670, Control_c, 0, 64, 78
1, 153685, Control_c, 0, 64, 81
1, 153700, Control_c, 0, 64, 81
1, 153747, Note_off_c, 0, 70, 37
1, 153788, Control_c, 0, 64, 81
1, 153803, Control_c, 0, 64, 78
1, 153818, Note_on_c, 0, 60, 54
1, 153818, Control_c, 0, 64, 74
1, 153820, Note_off_c, 0, 74, 61
1, 153823, Note_on_c, 0, 77, 67
1, 153833, Control_c, 0, 64, 67
1, 153841, Note_on_c, 0, 69, 52
1, 153847, Control_c, 0, 64, 57
1, 153862, Control_c, 0, 64, 12
1, 153877, Control_c, 0, 64, 0
1, 153936, Control_c, 0, 64, 39
1, 153939, Note_off_c, 0, 58, 35
1, 153951, Control_c, 0, 64, 57
1, 153966, Control_c, 0, 64, 64
1, 153981, Control_c, 0, 64, 67
1, 153996, Control_c, 0, 64, 69
1, 154008, Note_off_c, 0, 77, 52
1, 154011, Control_c, 0, 64, 70
1, 154020, Note_on_c, 0, 72, 55
1, 154039, Note_off_c, 0, 69, 56
1, 154040, Control_c, 0, 64, 71
1, 154160, Control_c, 0, 64, 70
1, 154175, Control_c, 0, 64, 70
1, 154182, Note_off_c, 0, 72, 60
1, 154190, Control_c, 0, 64, 68
1, 154204, Control_c, 0, 64, 66
1, 154208, Note_on_c, 0, 76, 51
1, 154219, Control_c, 0, 64, 64
1, 154222, Note_on_c, 0, 67, 45
1, 154228, Note_on_c, 0, 61, 38
1, 154234, Control_c, 0, 64, 61
1, 154249, Control_c, 0, 64, 57
1, 154263, Control_c, 0, 64, 50
1, 154278, Control_c, 0, 64, 33
1, 154293, Control_c, 0, 64, 0
1, 154324, Note_off_c, 0, 60, 38
1, 154404, Control_c, 0, 64, 50
1, 154410, Note_on_c, 0, 70, 50
1, 154419, Note_off_c, 0, 67, 38
1, 154419, Control_c, 0, 64, 60
1, 154434, Control_c, 0, 64, 64
1, 154449, Control_c, 0, 64, 65
1, 154478, Control_c, 0, 64, 65
1, 154567, Control_c, 0, 64, 64
1, 154582, Control_c, 0, 64, 63
1, 154597, Control_c, 0, 64, 61
1, 154611, Control_c, 0, 64, 58
1, 154626, Control_c, 0, 64, 53
1, 154641, Control_c, 0, 64, 43
1, 154647, Note_off_c, 0, 76, 12
1, 154653, Note_on_c, 0, 77, 45
1, 154654, Note_on_c, 0, 62, 37
1, 154655, Control_c, 0, 64, 0
1, 154666, Note_on_c, 0, 65, 36
1, 154668, Note_off_c, 0, 61, 37
1, 154700, Control_c, 0, 64, 17
1, 154715, Control_c, 0, 64, 49
1, 154726, Note_off_c, 0, 70, 32
1, 154729, Control_c, 0, 64, 59
1, 154742, Note_off_c, 0, 77, 59
1, 154744, Control_c, 0, 64, 62
1, 154759, Control_c, 0, 64, 64
1, 154774, Control_c, 0, 64, 64
1, 154812, Note_off_c, 0, 65, 54
1, 154863, Control_c, 0, 64, 64
1, 154878, Control_c, 0, 64, 63
1, 154893, Control_c, 0, 64, 63
1, 154908, Control_c, 0, 64, 61
1, 154917, Note_off_c, 0, 62, 43
1, 154920, Note_on_c, 0, 65, 45
1, 154923, Control_c, 0, 64, 59
1, 154938, Control_c, 0, 64, 57
1, 154953, Control_c, 0, 64, 55
1, 154968, Control_c, 0, 64, 53
1, 154982, Control_c, 0, 64, 52
1, 154997, Control_c, 0, 64, 48
1, 155012, Control_c, 0, 64, 42
1, 155027, Control_c, 0, 64, 33
1, 155042, Control_c, 0, 64, 8
1, 155064, Control_c, 0, 64, 0
1, 155120, Note_on_c, 0, 64, 41
1, 155309, Note_on_c, 0, 63, 44
1, 155397, Note_off_c, 0, 64, 32
1, 155492, Note_off_c, 0, 63, 50
1, 155496, Note_on_c, 0, 62, 48
1, 155498, Note_on_c, 0, 57, 42
1, 155684, Note_off_c, 0, 62, 46
1, 155686, Note_on_c, 0, 61, 49
1, 155838, Note_off_c, 0, 65, 31
1, 155894, Note_off_c, 0, 61, 48
1, 155903, Note_on_c, 0, 62, 44
1, 155913, Note_on_c, 0, 58, 31
1, 155984, Note_off_c, 0, 57, 29
1, 156109, Note_on_c, 0, 65, 44
1, 156184, Note_off_c, 0, 62, 29
1, 156185, Note_off_c, 0, 58, 43
1, 156307, Note_on_c, 0, 64, 39
1, 156492, Note_on_c, 0, 63, 44
1, 156553, Note_off_c, 0, 64, 40
1, 156687, Note_on_c, 0, 62, 48
1, 156690, Note_off_c, 0, 63, 55
1, 156695, Note_on_c, 0, 57, 45
1, 156875, Note_on_c, 0, 61, 54
1, 156877, Note_off_c, 0, 62, 49
1, 157042, Note_off_c, 0, 61, 60
1, 157058, Note_off_c, 0, 65, 40
1, 157060, Note_on_c, 0, 58, 54
1, 157065, Control_c, 0, 64, 54
1, 157067, Note_on_c, 0, 62, 59
1, 157073, Note_off_c, 0, 57, 49
1, 157080, Control_c, 0, 64, 64
1, 157095, Control_c, 0, 64, 67
1, 157110, Control_c, 0, 64, 71
1, 157124, Control_c, 0, 64, 80
1, 157131, Note_off_c, 0, 58, 63
1, 157139, Control_c, 0, 64, 92
1, 157154, Control_c, 0, 64, 102
1, 157169, Control_c, 0, 64, 105
1, 157184, Control_c, 0, 64, 106
1, 157198, Control_c, 0, 64, 108
1, 157213, Control_c, 0, 64, 115
1, 157228, Control_c, 0, 64, 127
1, 157248, Note_off_c, 0, 62, 55
1, 157257, Note_on_c, 0, 65, 71
1, 157444, Control_c, 0, 64, 112
1, 157452, Note_off_c, 0, 65, 58
1, 157459, Control_c, 0, 64, 100
1, 157466, Note_on_c, 0, 74, 72
1, 157474, Control_c, 0, 64, 87
1, 157474, Note_on_c, 0, 43, 58
1, 157483, Note_on_c, 0, 64, 65
1, 157483, Note_on_c, 0, 31, 50
1, 157488, Control_c, 0, 64, 75
1, 157503, Control_c, 0, 64, 64
1, 157518, Control_c, 0, 64, 44
1, 157533, Control_c, 0, 64, 0
1, 157562, Control_c, 0, 64, 34
1, 157577, Control_c, 0, 64, 53
1, 157592, Control_c, 0, 64, 62
1, 157607, Control_c, 0, 64, 68
1, 157622, Control_c, 0, 64, 80
1, 157636, Control_c, 0, 64, 94
1, 157651, Control_c, 0, 64, 99
1, 157666, Control_c, 0, 64, 101
1, 157680, Control_c, 0, 64, 105
1, 157695, Control_c, 0, 64, 113
1, 157709, Note_on_c, 0, 70, 77
1, 157710, Control_c, 0, 64, 127
1, 157740, Note_off_c, 0, 64, 62
1, 157743, Note_off_c, 0, 74, 64
1, 157749, Note_off_c, 0, 31, 40
1, 157750, Note_off_c, 0, 43, 59
1, 157888, Control_c, 0, 64, 98
1, 157889, Note_on_c, 0, 45, 68
1, 157890, Note_on_c, 0, 72, 78
1, 157893, Note_on_c, 0, 33, 66
1, 157893, Note_on_c, 0, 65, 72
1, 157903, Control_c, 0, 64, 78
1, 157906, Note_off_c, 0, 70, 58
1, 157918, Control_c, 0, 64, 65
1, 157933, Control_c, 0, 64, 51
1, 157947, Control_c, 0, 64, 0
1, 157962, Control_c, 0, 64, 33
1, 157977, Control_c, 0, 64, 56
1, 157992, Control_c, 0, 64, 63
1, 158006, Control_c, 0, 64, 67
1, 158021, Control_c, 0, 64, 75
1, 158036, Control_c, 0, 64, 86
1, 158059, Control_c, 0, 64, 95
1, 158074, Control_c, 0, 64, 101
1, 158084, Note_on_c, 0, 69, 82
1, 158088, Control_c, 0, 64, 107
1, 158092, Note_off_c, 0, 45, 62
1, 158103, Control_c, 0, 64, 112
1, 158110, Note_off_c, 0, 72, 65
1, 158112, Note_off_c, 0, 65, 59
1, 158118, Control_c, 0, 64, 113
1, 158191, Note_off_c, 0, 33, 35
1, 158208, Control_c, 0, 64, 110
1, 158223, Control_c, 0, 64, 99
1, 158238, Control_c, 0, 64, 84
1, 158241, Note_on_c, 0, 46, 81
1, 158245, Note_on_c, 0, 70, 82
1, 158246, Note_on_c, 0, 34, 67
1, 158252, Control_c, 0, 64, 70
1, 158258, Note_on_c, 0, 62, 69
1, 158266, Note_off_c, 0, 69, 63
1, 158267, Control_c, 0, 64, 50
1, 158282, Control_c, 0, 64, 0
1, 158341, Control_c, 0, 64, 48
1, 158357, Control_c, 0, 64, 63
1, 158372, Control_c, 0, 64, 72
1, 158386, Control_c, 0, 64, 81
1, 158401, Control_c, 0, 64, 86
1, 158416, Control_c, 0, 64, 88
1, 158430, Control_c, 0, 64, 91
1, 158445, Control_c, 0, 64, 95
1, 158449, Note_on_c, 0, 67, 75
1, 158454, Note_off_c, 0, 46, 60
1, 158455, Note_off_c, 0, 34, 64
1, 158460, Control_c, 0, 64, 99
1, 158471, Note_off_c, 0, 70, 60
1, 158475, Control_c, 0, 64, 99
1, 158479, Note_off_c, 0, 62, 60
1, 158490, Control_c, 0, 64, 100
1, 158519, Control_c, 0, 64, 100
1, 158622, Control_c, 0, 64, 98
1, 158632, Note_on_c, 0, 69, 82
1, 158637, Control_c, 0, 64, 90
1, 158640, Note_on_c, 0, 60, 70
1, 158640, Note_on_c, 0, 48, 71
1, 158644, Note_on_c, 0, 36, 62
1, 158649, Note_off_c, 0, 67, 54
1, 158652, Control_c, 0, 64, 79
1, 158667, Control_c, 0, 64, 69
1, 158682, Control_c, 0, 64, 58
1, 158697, Control_c, 0, 64, 0
1, 158786, Control_c, 0, 64, 50
1, 158808, Control_c, 0, 64, 66
1, 158823, Control_c, 0, 64, 76
1, 158837, Control_c, 0, 64, 93
1, 158839, Note_on_c, 0, 65, 71
1, 158841, Note_off_c, 0, 60, 58
1, 158852, Control_c, 0, 64, 125
1, 158860, Note_off_c, 0, 69, 62
1, 158867, Control_c, 0, 64, 127
1, 158895, Note_off_c, 0, 36, 58
1, 158896, Note_off_c, 0, 48, 57
1, 159028, Note_on_c, 0, 48, 61
1, 159029, Note_on_c, 0, 58, 56
1, 159031, Control_c, 0, 64, 90
1, 159032, Note_on_c, 0, 36, 56
1, 159033, Note_on_c, 0, 67, 71
1, 159046, Control_c, 0, 64, 68
1, 159060, Control_c, 0, 64, 35
1, 159062, Note_off_c, 0, 65, 61
1, 159075, Control_c, 0, 64, 0
1, 159149, Control_c, 0, 64, 57
1, 159164, Control_c, 0, 64, 67
1, 159179, Control_c, 0, 64, 76
1, 159194, Control_c, 0, 64, 88
1, 159201, Note_off_c, 0, 36, 40
1, 159208, Control_c, 0, 64, 98
1, 159221, Note_on_c, 0, 64, 68
1, 159223, Control_c, 0, 64, 114
1, 159236, Note_off_c, 0, 48, 58
1, 159238, Control_c, 0, 64, 127
1, 159245, Note_off_c, 0, 67, 56
1, 159255, Note_off_c, 0, 58, 58
1, 159486, Note_on_c, 0, 53, 45
1, 159490, Note_on_c, 0, 65, 65
1, 159491, Note_on_c, 0, 57, 52
1, 159492, Note_on_c, 0, 41, 44
1, 159504, Control_c, 0, 64, 94
1, 159510, Note_off_c, 0, 64, 49
1, 159519, Control_c, 0, 64, 78
1, 159534, Control_c, 0, 64, 66
1, 159556, Control_c, 0, 64, 50
1, 159571, Control_c, 0, 64, 0
1, 159764, Control_c, 0, 64, 42
1, 159779, Control_c, 0, 64, 60
1, 159781, Note_on_c, 0, 60, 52
1, 159794, Control_c, 0, 64, 66
1, 159799, Note_off_c, 0, 57, 60
1, 159809, Control_c, 0, 64, 71
1, 159823, Control_c, 0, 64, 79
1, 159827, Note_off_c, 0, 60, 61
1, 159838, Control_c, 0, 64, 88
1, 159853, Control_c, 0, 64, 99
1, 159868, Control_c, 0, 64, 110
1, 159883, Control_c, 0, 64, 127
1, 159954, Note_off_c, 0, 65, 49
1, 159972, Note_on_c, 0, 69, 69
1, 159989, Note_on_c, 0, 60, 51
1, 160146, Note_off_c, 0, 60, 57
1, 160150, Note_on_c, 0, 65, 61
1, 160179, Note_off_c, 0, 65, 64
1, 160190, Note_off_c, 0, 69, 63
1, 160318, Note_on_c, 0, 72, 78
1, 160320, Control_c, 0, 64, 104
1, 160333, Note_on_c, 0, 65, 60
1, 160335, Control_c, 0, 64, 75
1, 160338, Note_off_c, 0, 41, 56
1, 160349, Control_c, 0, 64, 57
1, 160364, Control_c, 0, 64, 0
1, 160372, Note_off_c, 0, 53, 56
1, 160482, Control_c, 0, 64, 58
1, 160497, Control_c, 0, 64, 64
1, 160503, Note_on_c, 0, 69, 70
1, 160512, Control_c, 0, 64, 65
1, 160521, Note_off_c, 0, 65, 58
1, 160528, Control_c, 0, 64, 68
1, 160543, Control_c, 0, 64, 72
1, 160554, Note_off_c, 0, 69, 67
1, 160558, Control_c, 0, 64, 75
1, 160575, Note_off_c, 0, 72, 66
1, 160631, Control_c, 0, 64, 73
1, 160646, Control_c, 0, 64, 68
1, 160661, Control_c, 0, 64, 58
1, 160671, Note_on_c, 0, 77, 73
1, 160676, Control_c, 0, 64, 47
1, 160684, Note_on_c, 0, 69, 54
1, 160691, Control_c, 0, 64, 0
1, 160810, Control_c, 0, 64, 38
1, 160824, Control_c, 0, 64, 58
1, 160839, Control_c, 0, 64, 64
1, 160854, Control_c, 0, 64, 70
1, 160860, Note_on_c, 0, 72, 58
1, 160869, Control_c, 0, 64, 78
1, 160870, Note_off_c, 0, 69, 61
1, 160884, Control_c, 0, 64, 87
1, 160890, Note_off_c, 0, 72, 67
1, 160898, Control_c, 0, 64, 99
1, 160913, Control_c, 0, 64, 111
1, 160928, Control_c, 0, 64, 127
1, 161016, Control_c, 0, 64, 118
1, 161031, Control_c, 0, 64, 103
1, 161050, Note_off_c, 0, 77, 55
1, 161054, Control_c, 0, 64, 91
1, 161065, Note_on_c, 0, 81, 64
1, 161069, Control_c, 0, 64, 76
1, 161084, Control_c, 0, 64, 63
1, 161084, Note_on_c, 0, 72, 50
1, 161098, Control_c, 0, 64, 31
1, 161113, Control_c, 0, 64, 0
1, 161172, Control_c, 0, 64, 53
1, 161187, Control_c, 0, 64, 64
1, 161202, Control_c, 0, 64, 70
1, 161217, Control_c, 0, 64, 77
1, 161231, Control_c, 0, 64, 88
1, 161246, Control_c, 0, 64, 97
1, 161261, Note_on_c, 0, 77, 59
1, 161261, Control_c, 0, 64, 100
1, 161287, Note_off_c, 0, 72, 55
1, 161288, Note_off_c, 0, 81, 56
1, 161305, Control_c, 0, 64, 101
1, 161321, Control_c, 0, 64, 102
1, 161327, Note_off_c, 0, 77, 52
1, 161394, Control_c, 0, 64, 101
1, 161409, Control_c, 0, 64, 90
1, 161424, Control_c, 0, 64, 68
1, 161431, Note_on_c, 0, 53, 74
1, 161436, Note_on_c, 0, 41, 68
1, 161439, Control_c, 0, 64, 42
1, 161453, Control_c, 0, 64, 0
1, 161527, Control_c, 0, 64, 48
1, 161542, Control_c, 0, 64, 65
1, 161557, Control_c, 0, 64, 70
1, 161572, Control_c, 0, 64, 75
1, 161587, Control_c, 0, 64, 79
1, 161601, Control_c, 0, 64, 84
1, 161616, Control_c, 0, 64, 94
1, 161631, Control_c, 0, 64, 104
1, 161645, Control_c, 0, 64, 106
1, 161751, Note_off_c, 0, 53, 64
1, 161773, Poly_aftertouch_c, 0, 47, 127
1, 161779, Control_c, 0, 64, 105
1, 161801, Control_c, 0, 64, 104
1, 161816, Control_c, 0, 64, 99
1, 161831, Control_c, 0, 64, 91
1, 161845, Control_c, 0, 64, 85
1, 161860, Control_c, 0, 64, 81
1, 161875, Control_c, 0, 64, 79
1, 161882, Note_on_c, 0, 52, 69
1, 161889, Note_on_c, 0, 40, 65
1, 161890, Control_c, 0, 64, 74
1, 161897, Note_on_c, 0, 67, 78
1, 161905, Control_c, 0, 64, 68
1, 161912, Note_on_c, 0, 57, 58
1, 161919, Control_c, 0, 64, 63
1, 161934, Control_c, 0, 64, 51
1, 161941, Note_off_c, 0, 41, 50
1, 161949, Control_c, 0, 64, 0
1, 162009, Poly_aftertouch_c, 0, 47, 0
1, 162098, Control_c, 0, 64, 56
1, 162113, Control_c, 0, 64, 65
1, 162129, Control_c, 0, 64, 73
1, 162140, Note_on_c, 0, 61, 64
1, 162144, Control_c, 0, 64, 78
1, 162159, Control_c, 0, 64, 81
1, 162174, Control_c, 0, 64, 88
1, 162178, Note_off_c, 0, 61, 53
1, 162189, Control_c, 0, 64, 106
1, 162200, Note_off_c, 0, 57, 39
1, 162203, Control_c, 0, 64, 127
1, 162298, Note_on_c, 0, 69, 84
1, 162302, Note_on_c, 0, 61, 67
1, 162345, Note_off_c, 0, 67, 54
1, 162474, Note_on_c, 0, 67, 67
1, 162479, Note_off_c, 0, 61, 63
1, 162492, Note_off_c, 0, 69, 65
1, 162501, Note_off_c, 0, 67, 65
1, 162625, Control_c, 0, 64, 106
1, 162633, Note_off_c, 0, 52, 57
1, 162640, Control_c, 0, 64, 89
1, 162648, Note_on_c, 0, 73, 77
1, 162652, Note_off_c, 0, 40, 36
1, 162655, Control_c, 0, 64, 76
1, 162661, Note_on_c, 0, 67, 60
1, 162670, Control_c, 0, 64, 65
1, 162685, Control_c, 0, 64, 55
1, 162700, Control_c, 0, 64, 0
1, 162709, Note_off_c, 0, 67, 0
1, 162709, Note_on_c, 0, 67, 13
1, 162774, Control_c, 0, 64, 34
1, 162789, Control_c, 0, 64, 63
1, 162803, Control_c, 0, 64, 72
1, 162816, Note_on_c, 0, 69, 67
1, 162818, Control_c, 0, 64, 78
1, 162833, Control_c, 0, 64, 79
1, 162837, Note_off_c, 0, 67, 53
1, 162848, Control_c, 0, 64, 82
1, 162863, Note_off_c, 0, 69, 62
1, 162863, Control_c, 0, 64, 87
1, 162877, Control_c, 0, 64, 89
1, 162881, Note_off_c, 0, 73, 62
1, 162907, Control_c, 0, 64, 87
1, 162923, Control_c, 0, 64, 79
1, 162938, Control_c, 0, 64, 67
1, 162953, Control_c, 0, 64, 34
1, 162967, Control_c, 0, 64, 0
1, 162985, Note_on_c, 0, 79, 77
1, 163000, Note_on_c, 0, 69, 55
1, 163056, Control_c, 0, 64, 12
1, 163071, Control_c, 0, 64, 62
1, 163086, Control_c, 0, 64, 70
1, 163100, Control_c, 0, 64, 81
1, 163115, Control_c, 0, 64, 95
1, 163130, Control_c, 0, 64, 127
1, 163149, Note_off_c, 0, 69, 64
1, 163155, Note_on_c, 0, 73, 73
1, 163180, Note_off_c, 0, 73, 66
1, 163191, Note_off_c, 0, 79, 62
1, 163345, Control_c, 0, 64, 91
1, 163347, Note_on_c, 0, 85, 75
1, 163360, Control_c, 0, 64, 69
1, 163365, Note_on_c, 0, 79, 61
1, 163374, Control_c, 0, 64, 49
1, 163389, Control_c, 0, 64, 0
1, 163433, Control_c, 0, 64, 58
1, 163448, Control_c, 0, 64, 66
1, 163463, Control_c, 0, 64, 74
1, 163478, Control_c, 0, 64, 89
1, 163493, Control_c, 0, 64, 99
1, 163508, Control_c, 0, 64, 105
1, 163523, Control_c, 0, 64, 125
1, 163538, Control_c, 0, 64, 127
1, 163542, Note_off_c, 0, 79, 58
1, 163543, Note_on_c, 0, 81, 56
1, 163579, Note_off_c, 0, 85, 62
1, 163582, Note_off_c, 0, 81, 60
1, 163686, Control_c, 0, 64, 118
1, 163700, Control_c, 0, 64, 105
1, 163716, Control_c, 0, 64, 81
1, 163720, Note_on_c, 0, 52, 84
1, 163724, Note_on_c, 0, 40, 77
1, 163731, Control_c, 0, 64, 64
1, 163746, Control_c, 0, 64, 0
1, 163820, Control_c, 0, 64, 52
1, 163835, Control_c, 0, 64, 67
1, 163849, Control_c, 0, 64, 77
1, 163864, Control_c, 0, 64, 86
1, 163879, Control_c, 0, 64, 89
1, 163894, Control_c, 0, 64, 92
1, 163909, Control_c, 0, 64, 98
1, 163923, Control_c, 0, 64, 104
1, 163938, Control_c, 0, 64, 107
1, 164070, Note_off_c, 0, 52, 62
1, 164109, Control_c, 0, 64, 104
1, 164123, Control_c, 0, 64, 98
1, 164138, Control_c, 0, 64, 91
1, 164153, Control_c, 0, 64, 82
1, 164168, Control_c, 0, 64, 74
1, 164178, Note_on_c, 0, 50, 73
1, 164182, Control_c, 0, 64, 68
1, 164183, Note_on_c, 0, 38, 70
1, 164192, Note_on_c, 0, 65, 76
1, 164197, Control_c, 0, 64, 64
1, 164199, Note_on_c, 0, 57, 63
1, 164212, Control_c, 0, 64, 60
1, 164214, Note_off_c, 0, 40, 57
1, 164227, Control_c, 0, 64, 50
1, 164242, Control_c, 0, 64, 0
1, 164375, Control_c, 0, 64, 33
1, 164390, Control_c, 0, 64, 60
1, 164405, Control_c, 0, 64, 65
1, 164420, Control_c, 0, 64, 71
1, 164432, Note_on_c, 0, 62, 60
1, 164435, Control_c, 0, 64, 79
1, 164442, Note_off_c, 0, 57, 58
1, 164449, Control_c, 0, 64, 92
1, 164464, Control_c, 0, 64, 104
1, 164479, Control_c, 0, 64, 127
1, 164500, Note_off_c, 0, 62, 58
1, 164590, Note_on_c, 0, 69, 82
1, 164608, Note_on_c, 0, 62, 69
1, 164643, Note_off_c, 0, 65, 57
1, 164790, Note_on_c, 0, 65, 56
1, 164791, Note_off_c, 0, 62, 62
1, 164810, Note_off_c, 0, 69, 67
1, 164816, Note_off_c, 0, 65, 65
1, 164919, Note_off_c, 0, 38, 32
1, 164946, Control_c, 0, 64, 118
1, 164949, Note_off_c, 0, 50, 36
1, 164961, Note_on_c, 0, 74, 79
1, 164961, Control_c, 0, 64, 91
1, 164968, Note_on_c, 0, 65, 67
1, 164976, Control_c, 0, 64, 75
1, 164990, Control_c, 0, 64, 63
1, 165005, Control_c, 0, 64, 0
1, 165110, Control_c, 0, 64, 53
1, 165125, Control_c, 0, 64, 64
1, 165140, Control_c, 0, 64, 67
1, 165141, Note_on_c, 0, 69, 72
1, 165145, Note_off_c, 0, 65, 61
1, 165154, Control_c, 0, 64, 69
1, 165169, Control_c, 0, 64, 74
1, 165184, Control_c, 0, 64, 82
1, 165188, Note_off_c, 0, 69, 67
1, 165198, Control_c, 0, 64, 86
1, 165230, Note_off_c, 0, 74, 65
1, 165243, Control_c, 0, 64, 85
1, 165258, Control_c, 0, 64, 82
1, 165272, Control_c, 0, 64, 78
1, 165287, Control_c, 0, 64, 73
1, 165302, Control_c, 0, 64, 68
1, 165318, Control_c, 0, 64, 64
1, 165319, Note_on_c, 0, 77, 84
1, 165323, Note_on_c, 0, 69, 66
1, 165333, Control_c, 0, 64, 56
1, 165348, Control_c, 0, 64, 0
1, 165481, Control_c, 0, 64, 32
1, 165496, Control_c, 0, 64, 56
1, 165498, Note_on_c, 0, 74, 63
1, 165511, Note_off_c, 0, 69, 65
1, 165511, Control_c, 0, 64, 63
1, 165526, Control_c, 0, 64, 70
1, 165548, Control_c, 0, 64, 82
1, 165554, Note_off_c, 0, 74, 61
1, 165563, Control_c, 0, 64, 89
1, 165577, Control_c, 0, 64, 89
1, 165621, Control_c, 0, 64, 88
1, 165636, Control_c, 0, 64, 81
1, 165651, Control_c, 0, 64, 71
1, 165666, Control_c, 0, 64, 61
1, 165681, Control_c, 0, 64, 26
1, 165692, Note_on_c, 0, 81, 81
1, 165696, Control_c, 0, 64, 0
1, 165702, Note_on_c, 0, 74, 55
1, 165708, Note_off_c, 0, 77, 55
1, 165755, Control_c, 0, 64, 51
1, 165770, Control_c, 0, 64, 68
1, 165785, Control_c, 0, 64, 79
1, 165800, Control_c, 0, 64, 89
1, 165814, Control_c, 0, 64, 91
1, 165829, Control_c, 0, 64, 95
1, 165843, Control_c, 0, 64, 100
1, 165858, Control_c, 0, 64, 106
1, 165866, Note_off_c, 0, 81, 59
1, 165869, Note_on_c, 0, 77, 70
1, 165873, Control_c, 0, 64, 107
1, 165884, Note_off_c, 0, 74, 62
1, 165897, Note_off_c, 0, 77, 63
1, 165961, Control_c, 0, 64, 104
1, 165976, Control_c, 0, 64, 86
1, 165991, Control_c, 0, 64, 70
1, 166006, Control_c, 0, 64, 56
1, 166021, Control_c, 0, 64, 0
1, 166062, Note_on_c, 0, 50, 87
1, 166067, Note_on_c, 0, 38, 77
1, 166095, Control_c, 0, 64, 17
1, 166110, Control_c, 0, 64, 65
1, 166125, Control_c, 0, 64, 76
1, 166140, Control_c, 0, 64, 89
1, 166155, Control_c, 0, 64, 102
1, 166170, Control_c, 0, 64, 127
1, 166220, Note_off_c, 0, 50, 60
1, 166301, Note_off_c, 0, 38, 63
1, 166557, Note_on_c, 0, 44, 82
1, 166566, Note_on_c, 0, 32, 74
1, 166577, Control_c, 0, 64, 109
1, 166592, Control_c, 0, 64, 85
1, 166607, Control_c, 0, 64, 73
1, 166617, Note_on_c, 0, 71, 77
1, 166622, Control_c, 0, 64, 64
1, 166623, Note_on_c, 0, 62, 70
1, 166636, Control_c, 0, 64, 52
1, 166651, Control_c, 0, 64, 0
1, 166814, Control_c, 0, 64, 68
1, 166829, Control_c, 0, 64, 127
1, 166855, Note_on_c, 0, 64, 70
1, 166883, Note_off_c, 0, 62, 60
1, 166918, Note_off_c, 0, 64, 62
1, 166949, Note_off_c, 0, 71, 59
1, 167049, Note_on_c, 0, 74, 82
1, 167052, Note_on_c, 0, 64, 71
1, 167201, Note_off_c, 0, 64, 56
1, 167219, Note_on_c, 0, 71, 76
1, 167267, Note_off_c, 0, 71, 62
1, 167310, Note_off_c, 0, 32, 56
1, 167395, Note_on_c, 0, 76, 90
1, 167398, Note_off_c, 0, 44, 61
1, 167400, Note_on_c, 0, 71, 71
1, 167422, Note_off_c, 0, 74, 62
1, 167562, Note_on_c, 0, 74, 75
1, 167584, Note_off_c, 0, 71, 64
1, 167598, Note_off_c, 0, 76, 64
1, 167607, Note_off_c, 0, 74, 66
1, 167747, Note_on_c, 0, 83, 88
1, 167756, Note_on_c, 0, 74, 70
1, 167929, Note_on_c, 0, 76, 79
1, 167934, Note_off_c, 0, 74, 63
1, 167975, Note_off_c, 0, 76, 64
1, 168119, Note_on_c, 0, 86, 84
1, 168124, Note_off_c, 0, 83, 57
1, 168128, Note_on_c, 0, 76, 73
1, 168149, Control_c, 0, 64, 70
1, 168164, Control_c, 0, 64, 26
1, 168179, Control_c, 0, 64, 0
1, 168194, Control_c, 0, 64, 38
1, 168208, Control_c, 0, 64, 60
1, 168223, Control_c, 0, 64, 68
1, 168238, Control_c, 0, 64, 91
1, 168253, Control_c, 0, 64, 127
1, 168307, Note_on_c, 0, 83, 67
1, 168323, Note_off_c, 0, 76, 54
1, 168323, Note_off_c, 0, 86, 63
1, 168376, Note_off_c, 0, 83, 63
1, 168505, Control_c, 0, 64, 109
1, 168507, Note_on_c, 0, 56, 64
1, 168510, Note_on_c, 0, 44, 59
1, 168520, Control_c, 0, 64, 84
1, 168543, Control_c, 0, 64, 70
1, 168557, Control_c, 0, 64, 60
1, 168572, Control_c, 0, 64, 0
1, 168676, Control_c, 0, 64, 48
1, 168691, Control_c, 0, 64, 66
1, 168706, Control_c, 0, 64, 73
1, 168720, Control_c, 0, 64, 84
1, 168735, Control_c, 0, 64, 93
1, 168750, Control_c, 0, 64, 100
1, 168764, Control_c, 0, 64, 109
1, 168779, Control_c, 0, 64, 127
1, 168943, Note_off_c, 0, 56, 36
1, 169011, Note_off_c, 0, 44, 39
1, 169037, Note_on_c, 0, 57, 47
1, 169046, Note_on_c, 0, 45, 41
1, 169046, Control_c, 0, 64, 121
1, 169049, Note_on_c, 0, 72, 53
1, 169053, Note_on_c, 0, 64, 46
1, 169061, Control_c, 0, 64, 99
1, 169076, Control_c, 0, 64, 83
1, 169091, Control_c, 0, 64, 72
1, 169106, Control_c, 0, 64, 64
1, 169121, Control_c, 0, 64, 53
1, 169136, Control_c, 0, 64, 0
1, 169225, Control_c, 0, 64, 23
1, 169239, Control_c, 0, 64, 55
1, 169254, Control_c, 0, 64, 65
1, 169269, Control_c, 0, 64, 74
1, 169291, Control_c, 0, 64, 86
1, 169298, Note_on_c, 0, 69, 51
1, 169306, Control_c, 0, 64, 97
1, 169322, Control_c, 0, 64, 119
1, 169332, Note_off_c, 0, 64, 53
1, 169336, Control_c, 0, 64, 127
1, 169367, Note_off_c, 0, 69, 63
1, 169486, Note_on_c, 0, 76, 63
1, 169499, Note_on_c, 0, 69, 49
1, 169510, Note_off_c, 0, 72, 58
1, 169514, Control_c, 0, 64, 92
1, 169529, Control_c, 0, 64, 73
1, 169544, Control_c, 0, 64, 68
1, 169559, Control_c, 0, 64, 72
1, 169574, Control_c, 0, 64, 83
1, 169587, Control_c, 0, 64, 108
1, 169602, Control_c, 0, 64, 127
1, 169654, Note_on_c, 0, 72, 53
1, 169665, Note_off_c, 0, 69, 63
1, 169690, Note_off_c, 0, 72, 65
1, 169691, Note_off_c, 0, 76, 64
1, 169847, Note_on_c, 0, 81, 60
1, 169854, Control_c, 0, 64, 104
1, 169867, Note_on_c, 0, 72, 41
1, 169869, Control_c, 0, 64, 79
1, 169884, Control_c, 0, 64, 67
1, 169899, Control_c, 0, 64, 60
1, 169913, Control_c, 0, 64, 56
1, 169928, Control_c, 0, 64, 61
1, 169930, Note_off_c, 0, 72, 0
1, 169930, Note_on_c, 0, 72, 3
1, 169943, Control_c, 0, 64, 66
1, 169958, Control_c, 0, 64, 71
1, 169973, Control_c, 0, 64, 80
1, 169987, Control_c, 0, 64, 88
1, 170002, Control_c, 0, 64, 94
1, 170017, Note_off_c, 0, 72, 56
1, 170017, Control_c, 0, 64, 99
1, 170039, Control_c, 0, 64, 105
1, 170042, Note_on_c, 0, 76, 38
1, 170054, Control_c, 0, 64, 109
1, 170069, Control_c, 0, 64, 112
1, 170070, Note_off_c, 0, 76, 49
1, 170082, Note_off_c, 0, 81, 62
1, 170084, Control_c, 0, 64, 114
1, 170203, Control_c, 0, 64, 108
1, 170206, Note_on_c, 0, 84, 60
1, 170218, Control_c, 0, 64, 94
1, 170228, Note_on_c, 0, 76, 40
1, 170233, Control_c, 0, 64, 75
1, 170248, Control_c, 0, 64, 64
1, 170263, Control_c, 0, 64, 58
1, 170277, Control_c, 0, 64, 62
1, 170292, Control_c, 0, 64, 67
1, 170307, Control_c, 0, 64, 73
1, 170322, Note_off_c, 0, 45, 37
1, 170322, Control_c, 0, 64, 84
1, 170336, Control_c, 0, 64, 95
1, 170351, Control_c, 0, 64, 102
1, 170366, Control_c, 0, 64, 107
1, 170381, Control_c, 0, 64, 127
1, 170399, Note_off_c, 0, 76, 37
1, 170406, Note_on_c, 0, 81, 41
1, 170449, Note_off_c, 0, 81, 46
1, 170463, Note_off_c, 0, 57, 40
1, 170617, Note_on_c, 0, 88, 54
1, 170617, Control_c, 0, 64, 99
1, 170632, Control_c, 0, 64, 79
1, 170643, Note_on_c, 0, 81, 42
1, 170647, Control_c, 0, 64, 66
1, 170661, Note_off_c, 0, 84, 41
1, 170662, Control_c, 0, 64, 55
1, 170677, Control_c, 0, 64, 53
1, 170692, Control_c, 0, 64, 59
1, 170707, Control_c, 0, 64, 63
1, 170722, Control_c, 0, 64, 67
1, 170736, Control_c, 0, 64, 74
1, 170751, Control_c, 0, 64, 86
1, 170766, Control_c, 0, 64, 101
1, 170788, Control_c, 0, 64, 112
1, 170803, Control_c, 0, 64, 127
1, 170806, Note_on_c, 0, 84, 53
1, 170850, Note_off_c, 0, 88, 34
1, 170902, Note_off_c, 0, 81, 34
1, 170925, Note_off_c, 0, 84, 42
1, 171026, Control_c, 0, 64, 112
1, 171041, Control_c, 0, 64, 102
1, 171055, Control_c, 0, 64, 92
1, 171070, Control_c, 0, 64, 82
1, 171085, Control_c, 0, 64, 72
1, 171088, Note_on_c, 0, 60, 30
1, 171095, Note_on_c, 0, 64, 30
1, 171100, Control_c, 0, 64, 66
1, 171115, Control_c, 0, 64, 60
1, 171130, Control_c, 0, 64, 45
1, 171145, Control_c, 0, 64, 0
1, 171717, Note_on_c, 0, 82, 47
1, 171744, Note_on_c, 0, 62, 17
1, 171761, Note_on_c, 0, 65, 21
1, 171795, Note_off_c, 0, 64, 35
1, 171824, Note_off_c, 0, 60, 39
1, 171977, Note_on_c, 0, 76, 37
1, 172072, Control_c, 0, 64, 31
1, 172087, Control_c, 0, 64, 43
1, 172101, Control_c, 0, 64, 48
1, 172116, Control_c, 0, 64, 53
1, 172131, Control_c, 0, 64, 60
1, 172146, Control_c, 0, 64, 64
1, 172161, Control_c, 0, 64, 65
1, 172175, Control_c, 0, 64, 66
1, 172178, Note_on_c, 0, 77, 37
1, 172190, Control_c, 0, 64, 67
1, 172205, Control_c, 0, 64, 70
1, 172220, Control_c, 0, 64, 74
1, 172235, Control_c, 0, 64, 79
1, 172249, Control_c, 0, 64, 83
1, 172264, Control_c, 0, 64, 86
1, 172287, Control_c, 0, 64, 93
1, 172301, Control_c, 0, 64, 104
1, 172308, Note_off_c, 0, 76, 30
1, 172316, Control_c, 0, 64, 127
1, 172356, Note_on_c, 0, 73, 47
1, 172531, Note_on_c, 0, 74, 49
1, 172569, Note_off_c, 0, 73, 39
1, 172714, Note_on_c, 0, 70, 44
1, 172722, Note_off_c, 0, 82, 37
1, 172922, Note_off_c, 0, 74, 36
1, 172924, Note_on_c, 0, 81, 59
1, 172947, Note_on_c, 0, 60, 27
1, 172951, Note_off_c, 0, 70, 35
1, 172960, Note_on_c, 0, 64, 32
1, 172984, Control_c, 0, 64, 115
1, 172996, Note_off_c, 0, 65, 36
1, 172998, Control_c, 0, 64, 102
1, 173013, Control_c, 0, 64, 94
1, 173014, Note_off_c, 0, 77, 25
1, 173035, Control_c, 0, 64, 87
1, 173050, Control_c, 0, 64, 79
1, 173065, Control_c, 0, 64, 71
1, 173079, Control_c, 0, 64, 64
1, 173094, Note_off_c, 0, 62, 38
1, 173094, Control_c, 0, 64, 51
1, 173109, Control_c, 0, 64, 28
1, 173124, Control_c, 0, 64, 0
1, 173169, Note_on_c, 0, 75, 41
1, 173339, Note_on_c, 0, 76, 44
1, 173392, Control_c, 0, 64, 31
1, 173407, Control_c, 0, 64, 47
1, 173422, Control_c, 0, 64, 54
1, 173429, Note_off_c, 0, 75, 53
1, 173436, Control_c, 0, 64, 58
1, 173451, Control_c, 0, 64, 62
1, 173466, Control_c, 0, 64, 65
1, 173481, Control_c, 0, 64, 66
1, 173496, Control_c, 0, 64, 69
1, 173510, Control_c, 0, 64, 72
1, 173525, Control_c, 0, 64, 76
1, 173534, Note_on_c, 0, 71, 45
1, 173540, Control_c, 0, 64, 79
1, 173554, Control_c, 0, 64, 83
1, 173569, Control_c, 0, 64, 88
1, 173584, Control_c, 0, 64, 92
1, 173599, Control_c, 0, 64, 96
1, 173614, Control_c, 0, 64, 99
1, 173628, Control_c, 0, 64, 101
1, 173643, Control_c, 0, 64, 103
1, 173658, Control_c, 0, 64, 103
1, 173673, Note_off_c, 0, 81, 32
1, 173673, Control_c, 0, 64, 104
1, 173705, Note_on_c, 0, 72, 55
1, 173717, Note_off_c, 0, 71, 56
1, 173864, Note_off_c, 0, 76, 60
1, 173893, Note_on_c, 0, 69, 48
1, 174051, Control_c, 0, 64, 103
1, 174066, Control_c, 0, 64, 102
1, 174078, Control_c, 0, 64, 99
1, 174092, Note_on_c, 0, 80, 63
1, 174093, Control_c, 0, 64, 97
1, 174098, Note_on_c, 0, 59, 32
1, 174102, Note_off_c, 0, 72, 59
1, 174110, Control_c, 0, 64, 93
1, 174119, Note_on_c, 0, 62, 36
1, 174124, Control_c, 0, 64, 89
1, 174139, Control_c, 0, 64, 84
1, 174154, Control_c, 0, 64, 80
1, 174169, Control_c, 0, 64, 74
1, 174183, Control_c, 0, 64, 69
1, 174198, Control_c, 0, 64, 64
1, 174206, Note_off_c, 0, 60, 35
1, 174208, Note_off_c, 0, 69, 44
1, 174213, Control_c, 0, 64, 56
1, 174224, Note_off_c, 0, 64, 38
1, 174228, Control_c, 0, 64, 42
1, 174243, Control_c, 0, 64, 0
1, 174310, Note_on_c, 0, 73, 52
1, 174486, Note_on_c, 0, 74, 47
1, 174564, Note_off_c, 0, 73, 37
1, 174668, Note_on_c, 0, 70, 46
1, 174680, Control_c, 0, 64, 37
1, 174695, Control_c, 0, 64, 54
1, 174709, Control_c, 0, 64, 61
1, 174724, Control_c, 0, 64, 63
1, 174739, Control_c, 0, 64, 65
1, 174754, Control_c, 0, 64, 67
1, 174769, Control_c, 0, 64, 69
1, 174783, Control_c, 0, 64, 70
1, 174798, Control_c, 0, 64, 71
1, 174813, Control_c, 0, 64, 70
1, 174828, Control_c, 0, 64, 68
1, 174843, Control_c, 0, 64, 64
1, 174857, Control_c, 0, 64, 53
1, 174871, Note_on_c, 0, 71, 49
1, 174872, Control_c, 0, 64, 24
1, 174887, Control_c, 0, 64, 15
1, 174890, Note_off_c, 0, 70, 51
1, 174893, Note_off_c, 0, 74, 34
1, 174903, Control_c, 0, 64, 41
1, 174918, Control_c, 0, 64, 57
1, 174932, Control_c, 0, 64, 63
1, 174947, Control_c, 0, 64, 66
1, 174962, Control_c, 0, 64, 72
1, 174977, Control_c, 0, 64, 79
1, 174992, Control_c, 0, 64, 83
1, 175006, Control_c, 0, 64, 85
1, 175036, Control_c, 0, 64, 85
1, 175051, Control_c, 0, 64, 86
1, 175062, Note_on_c, 0, 68, 45
1, 175066, Control_c, 0, 64, 86
1, 175071, Note_off_c, 0, 71, 34
1, 175080, Control_c, 0, 64, 87
1, 175118, Note_off_c, 0, 80, 59
1, 175184, Note_off_c, 0, 68, 37
1, 175244, Control_c, 0, 64, 87
1, 175259, Control_c, 0, 64, 86
1, 175273, Note_off_c, 0, 59, 28
1, 175280, Control_c, 0, 64, 83
1, 175294, Note_on_c, 0, 81, 54
1, 175295, Control_c, 0, 64, 79
1, 175310, Control_c, 0, 64, 75
1, 175320, Note_on_c, 0, 60, 29
1, 175325, Control_c, 0, 64, 70
1, 175326, Note_on_c, 0, 64, 31
1, 175339, Control_c, 0, 64, 65
1, 175354, Control_c, 0, 64, 58
1, 175369, Control_c, 0, 64, 43
1, 175381, Note_off_c, 0, 62, 34
1, 175384, Control_c, 0, 64, 0
1, 175517, Note_on_c, 0, 75, 40
1, 175691, Note_on_c, 0, 76, 40
1, 175779, Note_off_c, 0, 75, 41
1, 175869, Note_on_c, 0, 71, 48
1, 175904, Control_c, 0, 64, 34
1, 175919, Control_c, 0, 64, 52
1, 175934, Control_c, 0, 64, 58
1, 175948, Control_c, 0, 64, 61
1, 175963, Control_c, 0, 64, 63
1, 175978, Control_c, 0, 64, 65
1, 175993, Control_c, 0, 64, 67
1, 176008, Control_c, 0, 64, 69
1, 176030, Control_c, 0, 64, 72
1, 176045, Control_c, 0, 64, 75
1, 176060, Control_c, 0, 64, 78
1, 176069, Note_off_c, 0, 71, 37
1, 176071, Note_on_c, 0, 72, 43
1, 176074, Control_c, 0, 64, 80
1, 176089, Control_c, 0, 64, 82
1, 176104, Control_c, 0, 64, 85
1, 176119, Control_c, 0, 64, 88
1, 176134, Control_c, 0, 64, 89
1, 176139, Note_off_c, 0, 81, 27
1, 176148, Control_c, 0, 64, 90
1, 176163, Control_c, 0, 64, 91
1, 176208, Control_c, 0, 64, 91
1, 176242, Note_on_c, 0, 69, 43
1, 176242, Note_off_c, 0, 72, 64
1, 176268, Note_off_c, 0, 76, 40
1, 176292, Note_off_c, 0, 69, 63
1, 176459, Control_c, 0, 64, 91
1, 176488, Control_c, 0, 64, 90
1, 176505, Control_c, 0, 64, 89
1, 176516, Note_on_c, 0, 82, 49
1, 176519, Control_c, 0, 64, 87
1, 176523, Note_on_c, 0, 62, 39
1, 176524, Note_on_c, 0, 65, 29
1, 176534, Control_c, 0, 64, 84
1, 176540, Note_off_c, 0, 60, 34
1, 176549, Control_c, 0, 64, 81
1, 176564, Control_c, 0, 64, 79
1, 176578, Control_c, 0, 64, 76
1, 176593, Control_c, 0, 64, 73
1, 176608, Control_c, 0, 64, 70
1, 176618, Note_off_c, 0, 64, 35
1, 176623, Control_c, 0, 64, 67
1, 176638, Control_c, 0, 64, 64
1, 176652, Control_c, 0, 64, 62
1, 176667, Control_c, 0, 64, 58
1, 176682, Control_c, 0, 64, 53
1, 176696, Control_c, 0, 64, 47
1, 176711, Control_c, 0, 64, 40
1, 176726, Control_c, 0, 64, 27
1, 176741, Control_c, 0, 64, 0
1, 176745, Note_on_c, 0, 76, 40
1, 176935, Note_on_c, 0, 77, 45
1, 176992, Note_off_c, 0, 76, 35
1, 177044, Control_c, 0, 64, 26
1, 177059, Control_c, 0, 64, 39
1, 177074, Control_c, 0, 64, 45
1, 177089, Control_c, 0, 64, 50
1, 177104, Control_c, 0, 64, 54
1, 177119, Control_c, 0, 64, 58
1, 177126, Note_on_c, 0, 73, 48
1, 177134, Control_c, 0, 64, 61
1, 177148, Control_c, 0, 64, 63
1, 177163, Control_c, 0, 64, 64
1, 177178, Control_c, 0, 64, 66
1, 177193, Control_c, 0, 64, 68
1, 177208, Control_c, 0, 64, 73
1, 177223, Control_c, 0, 64, 76
1, 177238, Control_c, 0, 64, 79
1, 177252, Control_c, 0, 64, 82
1, 177267, Control_c, 0, 64, 86
1, 177282, Control_c, 0, 64, 88
1, 177297, Control_c, 0, 64, 91
1, 177312, Control_c, 0, 64, 94
1, 177313, Note_on_c, 0, 74, 43
1, 177319, Note_off_c, 0, 73, 54
1, 177327, Control_c, 0, 64, 96
1, 177342, Control_c, 0, 64, 97
1, 177357, Control_c, 0, 64, 98
1, 177372, Control_c, 0, 64, 98
1, 177387, Control_c, 0, 64, 99
1, 177493, Note_on_c, 0, 70, 45
1, 177499, Note_off_c, 0, 82, 36
1, 177610, Note_off_c, 0, 70, 52
1, 177631, Control_c, 0, 64, 98
1, 177646, Control_c, 0, 64, 97
1, 177661, Control_c, 0, 64, 95
1, 177675, Control_c, 0, 64, 93
1, 177690, Control_c, 0, 64, 91
1, 177705, Control_c, 0, 64, 88
1, 177712, Note_off_c, 0, 74, 58
1, 177719, Control_c, 0, 64, 84
1, 177727, Note_on_c, 0, 81, 55
1, 177731, Note_on_c, 0, 61, 35
1, 177734, Control_c, 0, 64, 79
1, 177735, Note_on_c, 0, 64, 33
1, 177749, Control_c, 0, 64, 75
1, 177764, Control_c, 0, 64, 71
1, 177774, Note_off_c, 0, 65, 33
1, 177779, Control_c, 0, 64, 67
1, 177792, Note_off_c, 0, 77, 26
1, 177793, Control_c, 0, 64, 65
1, 177808, Control_c, 0, 64, 64
1, 177823, Control_c, 0, 64, 63
1, 177838, Note_off_c, 0, 62, 27
1, 177838, Control_c, 0, 64, 62
1, 177853, Control_c, 0, 64, 58
1, 177867, Control_c, 0, 64, 44
1, 177882, Control_c, 0, 64, 0
1, 177945, Note_on_c, 0, 75, 46
1, 177986, Control_c, 0, 64, 15
1, 178001, Control_c, 0, 64, 44
1, 178016, Control_c, 0, 64, 53
1, 178031, Control_c, 0, 64, 58
1, 178045, Control_c, 0, 64, 63
1, 178060, Control_c, 0, 64, 66
1, 178075, Control_c, 0, 64, 70
1, 178090, Control_c, 0, 64, 74
1, 178105, Control_c, 0, 64, 78
1, 178111, Note_on_c, 0, 76, 55
1, 178120, Control_c, 0, 64, 80
1, 178135, Control_c, 0, 64, 82
1, 178150, Control_c, 0, 64, 84
1, 178165, Control_c, 0, 64, 86
1, 178180, Control_c, 0, 64, 88
1, 178195, Control_c, 0, 64, 90
1, 178210, Control_c, 0, 64, 90
1, 178230, Note_off_c, 0, 75, 38
1, 178292, Note_on_c, 0, 71, 52
1, 178409, Control_c, 0, 64, 90
1, 178424, Control_c, 0, 64, 88
1, 178439, Control_c, 0, 64, 84
1, 178454, Control_c, 0, 64, 77
1, 178469, Control_c, 0, 64, 69
1, 178472, Note_on_c, 0, 72, 62
1, 178478, Note_off_c, 0, 81, 37
1, 178483, Control_c, 0, 64, 61
1, 178484, Note_off_c, 0, 71, 54
1, 178492, Note_on_c, 0, 63, 37
1, 178495, Note_on_c, 0, 60, 31
1, 178498, Control_c, 0, 64, 45
1, 178513, Control_c, 0, 64, 38
1, 178528, Control_c, 0, 64, 44
1, 178536, Note_off_c, 0, 76, 39
1, 178542, Control_c, 0, 64, 54
1, 178557, Control_c, 0, 64, 60
1, 178573, Control_c, 0, 64, 64
1, 178575, Note_off_c, 0, 64, 37
1, 178580, Note_off_c, 0, 61, 25
1, 178588, Control_c, 0, 64, 67
1, 178603, Control_c, 0, 64, 71
1, 178617, Control_c, 0, 64, 75
1, 178632, Control_c, 0, 64, 78
1, 178642, Note_off_c, 0, 63, 55
1, 178647, Control_c, 0, 64, 79
1, 178662, Control_c, 0, 64, 80
1, 178663, Note_on_c, 0, 69, 57
1, 178691, Control_c, 0, 64, 81
1, 178721, Control_c, 0, 64, 81
1, 178854, Control_c, 0, 64, 81
1, 178866, Note_on_c, 0, 80, 69
1, 178868, Control_c, 0, 64, 80
1, 178882, Note_off_c, 0, 72, 61
1, 178883, Control_c, 0, 64, 79
1, 178888, Note_on_c, 0, 59, 41
1, 178899, Control_c, 0, 64, 77
1, 178907, Note_off_c, 0, 60, 35
1, 178908, Note_on_c, 0, 62, 35
1, 178914, Control_c, 0, 64, 74
1, 178929, Control_c, 0, 64, 69
1, 178944, Control_c, 0, 64, 65
1, 178959, Control_c, 0, 64, 62
1, 178973, Control_c, 0, 64, 59
1, 178988, Control_c, 0, 64, 55
1, 179003, Control_c, 0, 64, 47
1, 179026, Control_c, 0, 64, 10
1, 179041, Control_c, 0, 64, 0
1, 179069, Note_on_c, 0, 73, 58
1, 179089, Note_off_c, 0, 69, 44
1, 179218, Control_c, 0, 64, 29
1, 179233, Control_c, 0, 64, 51
1, 179247, Note_on_c, 0, 74, 60
1, 179247, Control_c, 0, 64, 60
1, 179262, Control_c, 0, 64, 63
1, 179277, Control_c, 0, 64, 66
1, 179292, Control_c, 0, 64, 68
1, 179307, Control_c, 0, 64, 73
1, 179308, Note_off_c, 0, 73, 53
1, 179321, Control_c, 0, 64, 79
1, 179336, Control_c, 0, 64, 83
1, 179351, Control_c, 0, 64, 87
1, 179366, Control_c, 0, 64, 90
1, 179381, Control_c, 0, 64, 93
1, 179396, Control_c, 0, 64, 96
1, 179411, Control_c, 0, 64, 97
1, 179423, Note_off_c, 0, 80, 46
1, 179426, Control_c, 0, 64, 98
1, 179447, Note_on_c, 0, 69, 56
1, 179618, Control_c, 0, 64, 96
1, 179633, Control_c, 0, 64, 92
1, 179634, Note_on_c, 0, 79, 76
1, 179638, Note_on_c, 0, 70, 63
1, 179641, Note_on_c, 0, 58, 39
1, 179647, Control_c, 0, 64, 85
1, 179660, Note_on_c, 0, 61, 38
1, 179662, Control_c, 0, 64, 75
1, 179677, Note_off_c, 0, 69, 58
1, 179677, Control_c, 0, 64, 65
1, 179692, Note_off_c, 0, 59, 36
1, 179693, Control_c, 0, 64, 49
1, 179708, Control_c, 0, 64, 8
1, 179713, Note_off_c, 0, 62, 32
1, 179722, Control_c, 0, 64, 0
1, 179737, Control_c, 0, 64, 22
1, 179752, Control_c, 0, 64, 45
1, 179775, Control_c, 0, 64, 57
1, 179790, Control_c, 0, 64, 63
1, 179804, Control_c, 0, 64, 67
1, 179819, Control_c, 0, 64, 72
1, 179834, Control_c, 0, 64, 79
1, 179849, Control_c, 0, 64, 83
1, 179855, Note_on_c, 0, 67, 60
1, 179857, Note_off_c, 0, 74, 22
1, 179864, Control_c, 0, 64, 85
1, 179865, Note_off_c, 0, 79, 60
1, 179878, Control_c, 0, 64, 87
1, 179893, Control_c, 0, 64, 87
1, 179908, Control_c, 0, 64, 89
1, 179922, Control_c, 0, 64, 89
1, 179937, Control_c, 0, 64, 90
1, 180056, Control_c, 0, 64, 89
1, 180061, Note_on_c, 0, 78, 74
1, 180070, Control_c, 0, 64, 87
1, 180072, Note_on_c, 0, 57, 40
1, 180077, Note_on_c, 0, 60, 43
1, 180085, Control_c, 0, 64, 84
1, 180100, Control_c, 0, 64, 80
1, 180102, Note_off_c, 0, 70, 60
1, 180114, Control_c, 0, 64, 75
1, 180129, Control_c, 0, 64, 69
1, 180144, Control_c, 0, 64, 65
1, 180144, Note_off_c, 0, 61, 31
1, 180145, Note_off_c, 0, 58, 34
1, 180159, Control_c, 0, 64, 61
1, 180160, Note_off_c, 0, 67, 38
1, 180174, Control_c, 0, 64, 54
1, 180189, Control_c, 0, 64, 43
1, 180203, Control_c, 0, 64, 0
1, 180269, Note_on_c, 0, 71, 57
1, 180442, Note_on_c, 0, 72, 65
1, 180454, Control_c, 0, 64, 34
1, 180469, Control_c, 0, 64, 48
1, 180482, Note_off_c, 0, 71, 51
1, 180485, Control_c, 0, 64, 57
1, 180500, Control_c, 0, 64, 61
1, 180523, Control_c, 0, 64, 64
1, 180538, Control_c, 0, 64, 66
1, 180552, Control_c, 0, 64, 69
1, 180567, Control_c, 0, 64, 73
1, 180582, Control_c, 0, 64, 77
1, 180597, Control_c, 0, 64, 81
1, 180612, Control_c, 0, 64, 83
1, 180626, Control_c, 0, 64, 85
1, 180640, Note_off_c, 0, 78, 60
1, 180641, Control_c, 0, 64, 87
1, 180645, Note_on_c, 0, 68, 60
1, 180656, Control_c, 0, 64, 89
1, 180670, Control_c, 0, 64, 90
1, 180685, Control_c, 0, 64, 91
1, 180751, Note_off_c, 0, 68, 61
1, 180804, Control_c, 0, 64, 90
1, 180818, Control_c, 0, 64, 89
1, 180833, Control_c, 0, 64, 85
1, 180842, Note_on_c, 0, 77, 80
1, 180848, Control_c, 0, 64, 78
1, 180854, Note_on_c, 0, 69, 58
1, 180863, Control_c, 0, 64, 70
1, 180878, Control_c, 0, 64, 63
1, 180892, Control_c, 0, 64, 50
1, 180907, Control_c, 0, 64, 29
1, 180922, Control_c, 0, 64, 0
1, 180923, Note_off_c, 0, 72, 38
1, 180937, Control_c, 0, 64, 8
1, 180952, Control_c, 0, 64, 34
1, 180967, Control_c, 0, 64, 52
1, 180982, Control_c, 0, 64, 61
1, 180997, Control_c, 0, 64, 65
1, 181012, Control_c, 0, 64, 70
1, 181026, Control_c, 0, 64, 76
1, 181041, Control_c, 0, 64, 81
1, 181044, Note_on_c, 0, 65, 72
1, 181049, Note_off_c, 0, 60, 55
1, 181056, Control_c, 0, 64, 85
1, 181070, Control_c, 0, 64, 88
1, 181079, Note_off_c, 0, 77, 61
1, 181085, Control_c, 0, 64, 90
1, 181100, Control_c, 0, 64, 92
1, 181115, Control_c, 0, 64, 94
1, 181130, Control_c, 0, 64, 95
1, 181144, Control_c, 0, 64, 96
1, 181196, Note_off_c, 0, 69, 28
1, 181248, Control_c, 0, 64, 95
1, 181259, Note_on_c, 0, 59, 39
1, 181267, Note_on_c, 0, 76, 81
1, 181270, Note_on_c, 0, 56, 42
1, 181270, Control_c, 0, 64, 93
1, 181285, Control_c, 0, 64, 89
1, 181301, Control_c, 0, 64, 83
1, 181316, Control_c, 0, 64, 75
1, 181331, Note_off_c, 0, 65, 39
1, 181331, Control_c, 0, 64, 69
1, 181346, Control_c, 0, 64, 63
1, 181360, Control_c, 0, 64, 55
1, 181365, Note_off_c, 0, 57, 31
1, 181375, Control_c, 0, 64, 44
1, 181390, Control_c, 0, 64, 15
1, 181405, Control_c, 0, 64, 0
1, 181497, Note_on_c, 0, 70, 68
1, 181582, Control_c, 0, 64, 43
1, 181597, Control_c, 0, 64, 55
1, 181612, Control_c, 0, 64, 61
1, 181627, Control_c, 0, 64, 64
1, 181641, Control_c, 0, 64, 67
1, 181656, Control_c, 0, 64, 70
1, 181671, Control_c, 0, 64, 73
1, 181681, Note_on_c, 0, 71, 69
1, 181686, Control_c, 0, 64, 77
1, 181700, Control_c, 0, 64, 80
1, 181715, Control_c, 0, 64, 83
1, 181730, Control_c, 0, 64, 84
1, 181745, Control_c, 0, 64, 84
1, 181760, Control_c, 0, 64, 85
1, 181780, Note_off_c, 0, 70, 38
1, 181855, Note_on_c, 0, 66, 67
1, 181938, Control_c, 0, 64, 84
1, 181953, Control_c, 0, 64, 82
1, 181967, Control_c, 0, 64, 79
1, 181982, Control_c, 0, 64, 75
1, 181997, Control_c, 0, 64, 70
1, 182019, Control_c, 0, 64, 64
1, 182034, Control_c, 0, 64, 56
1, 182039, Note_on_c, 0, 67, 71
1, 182043, Note_on_c, 0, 55, 47
1, 182047, Note_on_c, 0, 58, 48
1, 182049, Control_c, 0, 64, 39
1, 182054, Note_off_c, 0, 71, 61
1, 182057, Note_off_c, 0, 66, 61
1, 182064, Control_c, 0, 64, 0
1, 182071, Note_off_c, 0, 59, 36
1, 182110, Note_off_c, 0, 56, 33
1, 182138, Control_c, 0, 64, 43
1, 182153, Control_c, 0, 64, 59
1, 182168, Control_c, 0, 64, 64
1, 182183, Control_c, 0, 64, 68
1, 182198, Control_c, 0, 64, 72
1, 182213, Control_c, 0, 64, 77
1, 182222, Note_on_c, 0, 64, 74
1, 182228, Control_c, 0, 64, 81
1, 182243, Control_c, 0, 64, 84
1, 182258, Control_c, 0, 64, 87
1, 182272, Control_c, 0, 64, 89
1, 182332, Control_c, 0, 64, 89
1, 182406, Control_c, 0, 64, 89
1, 182421, Control_c, 0, 64, 87
1, 182424, Note_on_c, 0, 69, 75
1, 182429, Note_off_c, 0, 67, 60
1, 182431, Note_on_c, 0, 57, 47
1, 182435, Control_c, 0, 64, 82
1, 182436, Note_on_c, 0, 54, 49
1, 182450, Control_c, 0, 64, 76
1, 182465, Control_c, 0, 64, 68
1, 182480, Control_c, 0, 64, 62
1, 182486, Note_off_c, 0, 64, 36
1, 182495, Control_c, 0, 64, 54
1, 182509, Control_c, 0, 64, 39
1, 182523, Note_off_c, 0, 55, 31
1, 182523, Note_off_c, 0, 58, 42
1, 182524, Control_c, 0, 64, 0
1, 182657, Note_on_c, 0, 68, 79
1, 182698, Note_off_c, 0, 69, 63
1, 182702, Control_c, 0, 64, 34
1, 182717, Control_c, 0, 64, 53
1, 182732, Control_c, 0, 64, 62
1, 182747, Control_c, 0, 64, 66
1, 182769, Control_c, 0, 64, 70
1, 182784, Control_c, 0, 64, 76
1, 182798, Control_c, 0, 64, 81
1, 182813, Control_c, 0, 64, 84
1, 182828, Control_c, 0, 64, 87
1, 182842, Control_c, 0, 64, 90
1, 182843, Note_on_c, 0, 69, 83
1, 182857, Control_c, 0, 64, 94
1, 182867, Note_off_c, 0, 68, 64
1, 182872, Control_c, 0, 64, 95
1, 182887, Control_c, 0, 64, 96
1, 183011, Note_on_c, 0, 72, 82
1, 183011, Note_off_c, 0, 76, 65
1, 183021, Control_c, 0, 64, 95
1, 183036, Control_c, 0, 64, 94
1, 183051, Control_c, 0, 64, 92
1, 183052, Note_off_c, 0, 69, 62
1, 183066, Control_c, 0, 64, 89
1, 183080, Control_c, 0, 64, 86
1, 183095, Control_c, 0, 64, 83
1, 183110, Control_c, 0, 64, 78
1, 183125, Control_c, 0, 64, 74
1, 183140, Control_c, 0, 64, 68
1, 183155, Control_c, 0, 64, 64
1, 183169, Note_off_c, 0, 54, 51
1, 183170, Control_c, 0, 64, 60
1, 183185, Control_c, 0, 64, 51
1, 183185, Note_on_c, 0, 53, 49
1, 183195, Note_on_c, 0, 75, 78
1, 183200, Control_c, 0, 64, 21
1, 183209, Note_on_c, 0, 71, 65
1, 183214, Control_c, 0, 64, 0
1, 183308, Note_off_c, 0, 72, 39
1, 183318, Control_c, 0, 64, 49
1, 183324, Note_off_c, 0, 57, 40
1, 183332, Control_c, 0, 64, 64
1, 183347, Control_c, 0, 64, 69
1, 183362, Control_c, 0, 64, 76
1, 183377, Control_c, 0, 64, 82
1, 183392, Control_c, 0, 64, 87
1, 183400, Note_on_c, 0, 69, 76
1, 183405, Note_off_c, 0, 71, 61
1, 183406, Control_c, 0, 64, 91
1, 183421, Control_c, 0, 64, 94
1, 183436, Control_c, 0, 64, 95
1, 183607, Control_c, 0, 64, 94
1, 183621, Control_c, 0, 64, 92
1, 183636, Control_c, 0, 64, 90
1, 183651, Control_c, 0, 64, 88
1, 183652, Note_on_c, 0, 52, 46
1, 183665, Control_c, 0, 64, 85
1, 183680, Control_c, 0, 64, 82
1, 183696, Control_c, 0, 64, 78
1, 183700, Note_on_c, 0, 76, 74
1, 183711, Control_c, 0, 64, 73
1, 183726, Note_off_c, 0, 53, 28
1, 183726, Control_c, 0, 64, 70
1, 183736, Note_off_c, 0, 69, 62
1, 183741, Control_c, 0, 64, 68
1, 183756, Control_c, 0, 64, 65
1, 183766, Note_off_c, 0, 75, 58
1, 183770, Control_c, 0, 64, 62
1, 183785, Control_c, 0, 64, 58
1, 183800, Control_c, 0, 64, 54
1, 183815, Control_c, 0, 64, 48
1, 183830, Control_c, 0, 64, 40
1, 183844, Control_c, 0, 64, 24
1, 183859, Control_c, 0, 64, 0
1, 183969, Note_on_c, 0, 70, 52
1, 184111, Control_c, 0, 64, 33
1, 184126, Control_c, 0, 64, 46
1, 184141, Control_c, 0, 64, 52
1, 184155, Control_c, 0, 64, 57
1, 184162, Note_on_c, 0, 71, 54
1, 184170, Control_c, 0, 64, 59
1, 184180, Note_on_c, 0, 56, 33
1, 184185, Control_c, 0, 64, 62
1, 184200, Control_c, 0, 64, 64
1, 184211, Note_off_c, 0, 70, 53
1, 184214, Control_c, 0, 64, 65
1, 184229, Control_c, 0, 64, 67
1, 184244, Control_c, 0, 64, 69
1, 184267, Control_c, 0, 64, 71
1, 184282, Control_c, 0, 64, 74
1, 184296, Control_c, 0, 64, 77
1, 184311, Control_c, 0, 64, 80
1, 184326, Control_c, 0, 64, 84
1, 184341, Control_c, 0, 64, 87
1, 184356, Control_c, 0, 64, 90
1, 184360, Note_on_c, 0, 66, 56
1, 184370, Control_c, 0, 64, 92
1, 184385, Control_c, 0, 64, 95
1, 184400, Control_c, 0, 64, 96
1, 184414, Control_c, 0, 64, 97
1, 184444, Control_c, 0, 64, 97
1, 184505, Control_c, 0, 64, 92
1, 184519, Control_c, 0, 64, 80
1, 184529, Note_on_c, 0, 68, 61
1, 184534, Control_c, 0, 64, 68
1, 184538, Note_off_c, 0, 66, 62
1, 184547, Note_on_c, 0, 59, 41
1, 184549, Control_c, 0, 64, 65
1, 184563, Control_c, 0, 64, 66
1, 184578, Control_c, 0, 64, 72
1, 184592, Control_c, 0, 64, 81
1, 184606, Note_off_c, 0, 71, 36
1, 184607, Control_c, 0, 64, 90
1, 184622, Control_c, 0, 64, 96
1, 184636, Control_c, 0, 64, 99
1, 184651, Control_c, 0, 64, 100
1, 184655, Note_off_c, 0, 56, 38
1, 184666, Note_off_c, 0, 52, 43
1, 184705, Note_on_c, 0, 64, 63
1, 184716, Note_off_c, 0, 68, 63
1, 184815, Control_c, 0, 64, 99
1, 184830, Control_c, 0, 64, 98
1, 184844, Control_c, 0, 64, 97
1, 184859, Control_c, 0, 64, 93
1, 184874, Control_c, 0, 64, 90
1, 184889, Control_c, 0, 64, 86
1, 184895, Note_on_c, 0, 75, 74
1, 184904, Control_c, 0, 64, 81
1, 184917, Note_on_c, 0, 52, 44
1, 184918, Control_c, 0, 64, 76
1, 184933, Control_c, 0, 64, 72
1, 184942, Note_off_c, 0, 76, 41
1, 184948, Control_c, 0, 64, 67
1, 184955, Note_off_c, 0, 59, 34
1, 184963, Control_c, 0, 64, 64
1, 184964, Note_off_c, 0, 64, 30
1, 184977, Control_c, 0, 64, 60
1, 184992, Control_c, 0, 64, 54
1, 185015, Control_c, 0, 64, 47
1, 185030, Control_c, 0, 64, 38
1, 185044, Control_c, 0, 64, 14
1, 185059, Control_c, 0, 64, 0
1, 185111, Note_on_c, 0, 71, 62
1, 185300, Note_on_c, 0, 72, 57
1, 185312, Note_on_c, 0, 57, 32
1, 185359, Note_off_c, 0, 71, 47
1, 185483, Note_on_c, 0, 68, 50
1, 185549, Control_c, 0, 64, 26
1, 185564, Control_c, 0, 64, 42
1, 185579, Control_c, 0, 64, 51
1, 185594, Control_c, 0, 64, 56
1, 185608, Control_c, 0, 64, 60
1, 185623, Control_c, 0, 64, 62
1, 185638, Control_c, 0, 64, 64
1, 185653, Control_c, 0, 64, 66
1, 185662, Note_on_c, 0, 69, 55
1, 185668, Control_c, 0, 64, 68
1, 185670, Note_on_c, 0, 60, 41
1, 185683, Control_c, 0, 64, 71
1, 185698, Control_c, 0, 64, 74
1, 185707, Note_off_c, 0, 68, 51
1, 185713, Control_c, 0, 64, 80
1, 185727, Control_c, 0, 64, 87
1, 185742, Control_c, 0, 64, 93
1, 185764, Control_c, 0, 64, 95
1, 185779, Control_c, 0, 64, 98
1, 185781, Note_off_c, 0, 52, 61
1, 185794, Control_c, 0, 64, 99
1, 185803, Note_off_c, 0, 57, 35
1, 185809, Control_c, 0, 64, 99
1, 185852, Note_on_c, 0, 66, 49
1, 185893, Note_off_c, 0, 69, 56
1, 186017, Note_off_c, 0, 72, 32
1, 186046, Control_c, 0, 64, 97
1, 186060, Control_c, 0, 64, 94
1, 186064, Note_on_c, 0, 52, 42
1, 186068, Note_on_c, 0, 76, 67
1, 186075, Control_c, 0, 64, 90
1, 186091, Control_c, 0, 64, 87
1, 186092, Note_off_c, 0, 60, 30
1, 186106, Control_c, 0, 64, 82
1, 186121, Control_c, 0, 64, 78
1, 186127, Note_off_c, 0, 75, 53
1, 186132, Note_off_c, 0, 66, 36
1, 186136, Control_c, 0, 64, 74
1, 186151, Control_c, 0, 64, 69
1, 186165, Control_c, 0, 64, 64
1, 186180, Control_c, 0, 64, 58
1, 186195, Control_c, 0, 64, 43
1, 186210, Control_c, 0, 64, 19
1, 186225, Control_c, 0, 64, 0
1, 186299, Note_on_c, 0, 70, 51
1, 186446, Control_c, 0, 64, 31
1, 186461, Control_c, 0, 64, 45
1, 186470, Note_on_c, 0, 71, 53
1, 186474, Note_on_c, 0, 56, 30
1, 186476, Control_c, 0, 64, 53
1, 186491, Control_c, 0, 64, 56
1, 186513, Control_c, 0, 64, 59
1, 186528, Control_c, 0, 64, 62
1, 186543, Control_c, 0, 64, 63
1, 186551, Note_off_c, 0, 70, 36
1, 186558, Control_c, 0, 64, 64
1, 186572, Control_c, 0, 64, 65
1, 186587, Control_c, 0, 64, 66
1, 186602, Control_c, 0, 64, 66
1, 186616, Control_c, 0, 64, 67
1, 186631, Control_c, 0, 64, 68
1, 186655, Note_on_c, 0, 66, 53
1, 186690, Control_c, 0, 64, 67
1, 186705, Control_c, 0, 64, 66
1, 186720, Control_c, 0, 64, 64
1, 186735, Control_c, 0, 64, 59
1, 186750, Control_c, 0, 64, 48
1, 186765, Control_c, 0, 64, 34
1, 186780, Control_c, 0, 64, 32
1, 186795, Control_c, 0, 64, 42
1, 186809, Control_c, 0, 64, 52
1, 186811, Note_off_c, 0, 66, 62
1, 186824, Control_c, 0, 64, 58
1, 186830, Note_on_c, 0, 68, 49
1, 186839, Control_c, 0, 64, 63
1, 186840, Note_on_c, 0, 59, 31
1, 186854, Control_c, 0, 64, 65
1, 186869, Control_c, 0, 64, 68
1, 186884, Control_c, 0, 64, 70
1, 186899, Control_c, 0, 64, 75
1, 186909, Note_off_c, 0, 56, 39
1, 186914, Note_off_c, 0, 71, 32
1, 186914, Control_c, 0, 64, 80
1, 186929, Control_c, 0, 64, 81
1, 186940, Note_off_c, 0, 52, 41
1, 186944, Control_c, 0, 64, 82
1, 187006, Note_off_c, 0, 68, 62
1, 187010, Note_on_c, 0, 64, 54
1, 187106, Control_c, 0, 64, 81
1, 187166, Control_c, 0, 64, 81
1, 187195, Control_c, 0, 64, 80
1, 187210, Control_c, 0, 64, 78
1, 187212, Note_off_c, 0, 64, 31
1, 187224, Control_c, 0, 64, 76
1, 187225, Note_on_c, 0, 75, 51
1, 187231, Note_on_c, 0, 52, 39
1, 187239, Control_c, 0, 64, 73
1, 187242, Note_off_c, 0, 76, 38
1, 187262, Control_c, 0, 64, 69
1, 187277, Control_c, 0, 64, 66
1, 187292, Control_c, 0, 64, 62
1, 187299, Note_off_c, 0, 59, 38
1, 187306, Control_c, 0, 64, 56
1, 187321, Control_c, 0, 64, 45
1, 187336, Control_c, 0, 64, 23
1, 187351, Control_c, 0, 64, 0
1, 187437, Note_on_c, 0, 71, 43
1, 187615, Note_on_c, 0, 57, 29
1, 187623, Note_on_c, 0, 72, 39
1, 187744, Note_off_c, 0, 71, 54
1, 187750, Control_c, 0, 64, 12
1, 187765, Control_c, 0, 64, 35
1, 187780, Control_c, 0, 64, 47
1, 187795, Control_c, 0, 64, 53
1, 187801, Note_on_c, 0, 68, 51
1, 187809, Control_c, 0, 64, 56
1, 187824, Control_c, 0, 64, 59
1, 187839, Control_c, 0, 64, 61
1, 187853, Control_c, 0, 64, 62
1, 187868, Control_c, 0, 64, 63
1, 187972, Control_c, 0, 64, 62
1, 187987, Control_c, 0, 64, 61
1, 187993, Note_on_c, 0, 60, 32
1, 187993, Note_on_c, 0, 69, 52
1, 188008, Note_off_c, 0, 68, 51
1, 188009, Note_off_c, 0, 52, 40
1, 188009, Control_c, 0, 64, 57
1, 188024, Control_c, 0, 64, 47
1, 188039, Control_c, 0, 64, 28
1, 188053, Control_c, 0, 64, 0
1, 188063, Note_off_c, 0, 72, 39
1, 188079, Note_off_c, 0, 57, 48
1, 188083, Control_c, 0, 64, 19
1, 188098, Control_c, 0, 64, 44
1, 188113, Control_c, 0, 64, 58
1, 188127, Control_c, 0, 64, 62
1, 188142, Control_c, 0, 64, 64
1, 188157, Control_c, 0, 64, 67
1, 188172, Control_c, 0, 64, 69
1, 188187, Control_c, 0, 64, 71
1, 188202, Control_c, 0, 64, 74
1, 188215, Note_on_c, 0, 63, 42
1, 188217, Control_c, 0, 64, 76
1, 188231, Control_c, 0, 64, 76
1, 188332, Note_off_c, 0, 69, 35
1, 188357, Note_off_c, 0, 63, 37
1, 188365, Control_c, 0, 64, 76
1, 188379, Control_c, 0, 64, 75
1, 188394, Control_c, 0, 64, 74
1, 188402, Note_off_c, 0, 75, 38
1, 188409, Control_c, 0, 64, 72
1, 188424, Control_c, 0, 64, 70
1, 188439, Control_c, 0, 64, 68
1, 188453, Control_c, 0, 64, 66
1, 188468, Control_c, 0, 64, 64
1, 188484, Control_c, 0, 64, 62
1, 188492, Note_on_c, 0, 56, 31
1, 188499, Control_c, 0, 64, 59
1, 188502, Note_off_c, 0, 60, 35
1, 188503, Note_on_c, 0, 52, 38
1, 188514, Control_c, 0, 64, 54
1, 188529, Control_c, 0, 64, 45
1, 188544, Control_c, 0, 64, 30
1, 188558, Control_c, 0, 64, 0
1, 188776, Note_on_c, 0, 76, 46
1, 188818, Note_off_c, 0, 52, 50
1, 188863, Note_off_c, 0, 56, 42
1, 188964, Note_on_c, 0, 75, 52
1, 189027, Note_off_c, 0, 76, 37
1, 189129, Note_on_c, 0, 74, 56
1, 189138, Note_off_c, 0, 75, 57
1, 189320, Note_on_c, 0, 69, 36
1, 189328, Note_on_c, 0, 63, 31
1, 189328, Note_on_c, 0, 73, 53
1, 189328, Note_off_c, 0, 74, 53
1, 189489, Note_on_c, 0, 72, 48
1, 189511, Note_off_c, 0, 73, 44
1, 189717, Note_on_c, 0, 71, 46
1, 189721, Note_off_c, 0, 72, 37
1, 189735, Note_on_c, 0, 68, 33
1, 189740, Note_on_c, 0, 64, 24
1, 189766, Note_off_c, 0, 63, 34
1, 189792, Note_off_c, 0, 69, 37
1, 189801, Note_off_c, 0, 71, 58
1, 189934, Note_on_c, 0, 76, 54
1, 190040, Note_off_c, 0, 64, 42
1, 190067, Note_off_c, 0, 68, 47
1, 190113, Note_on_c, 0, 75, 54
1, 190142, Note_off_c, 0, 76, 37
1, 190314, Note_on_c, 0, 74, 51
1, 190395, Note_off_c, 0, 75, 28
1, 190496, Note_on_c, 0, 63, 33
1, 190500, Note_on_c, 0, 69, 32
1, 190504, Note_on_c, 0, 73, 46
1, 190507, Note_off_c, 0, 74, 49
1, 190673, Note_off_c, 0, 73, 58
1, 190678, Note_on_c, 0, 72, 48
1, 190880, Note_off_c, 0, 69, 43
1, 190884, Note_on_c, 0, 68, 35
1, 190887, Note_on_c, 0, 71, 50
1, 190895, Note_off_c, 0, 63, 38
1, 190898, Note_on_c, 0, 64, 35
1, 190917, Note_off_c, 0, 72, 50
1, 190938, Note_off_c, 0, 68, 63
1, 190968, Note_off_c, 0, 64, 55
1, 191102, Note_on_c, 0, 64, 54
1, 191233, Note_off_c, 0, 71, 54
1, 191273, Note_on_c, 0, 63, 60
1, 191284, Note_off_c, 0, 64, 57
1, 191445, Note_off_c, 0, 63, 60
1, 191457, Note_on_c, 0, 62, 48
1, 191650, Note_on_c, 0, 69, 52
1, 191658, Note_on_c, 0, 57, 34
1, 191664, Note_on_c, 0, 61, 37
1, 191668, Note_on_c, 0, 64, 36
1, 191676, Note_off_c, 0, 62, 38
1, 191754, Control_c, 0, 64, 23
1, 191769, Control_c, 0, 64, 44
1, 191783, Control_c, 0, 64, 50
1, 191798, Control_c, 0, 64, 51
1, 191811, Note_off_c, 0, 57, 56
1, 191813, Control_c, 0, 64, 51
1, 191827, Note_off_c, 0, 61, 46
1, 191850, Note_on_c, 0, 60, 47
1, 191872, Control_c, 0, 64, 50
1, 191887, Control_c, 0, 64, 49
1, 191901, Control_c, 0, 64, 48
1, 191916, Control_c, 0, 64, 44
1, 191931, Control_c, 0, 64, 37
1, 191946, Control_c, 0, 64, 12
1, 191961, Control_c, 0, 64, 0
1, 192023, Note_off_c, 0, 60, 39
1, 192056, Note_on_c, 0, 52, 40
1, 192057, Note_on_c, 0, 59, 49
1, 192057, Note_on_c, 0, 68, 46
1, 192098, Note_off_c, 0, 52, 55
1, 192103, Note_off_c, 0, 59, 58
1, 192114, Note_off_c, 0, 64, 43
1, 192164, Note_off_c, 0, 69, 56
1, 192259, Note_on_c, 0, 64, 51
1, 192334, Note_off_c, 0, 68, 50
1, 192422, Note_off_c, 0, 64, 56
1, 192443, Note_on_c, 0, 63, 49
1, 192625, Note_off_c, 0, 63, 60
1, 192639, Note_on_c, 0, 62, 45
1, 192820, Note_on_c, 0, 69, 47
1, 192837, Note_on_c, 0, 57, 31
1, 192838, Note_on_c, 0, 64, 35
1, 192840, Note_off_c, 0, 62, 34
1, 192840, Note_on_c, 0, 61, 40
1, 192962, Control_c, 0, 64, 12
1, 192968, Note_off_c, 0, 57, 55
1, 192977, Control_c, 0, 64, 21
1, 192992, Control_c, 0, 64, 20
1, 192993, Note_off_c, 0, 61, 57
1, 193002, Note_on_c, 0, 60, 47
1, 193007, Control_c, 0, 64, 17
1, 193022, Control_c, 0, 64, 15
1, 193051, Control_c, 0, 64, 14
1, 193066, Control_c, 0, 64, 10
1, 193081, Control_c, 0, 64, 0
1, 193202, Note_off_c, 0, 64, 44
1, 193205, Note_on_c, 0, 68, 46
1, 193214, Control_c, 0, 64, 53
1, 193221, Note_on_c, 0, 59, 35
1, 193227, Note_on_c, 0, 52, 26
1, 193229, Control_c, 0, 64, 61
1, 193238, Note_off_c, 0, 60, 28
1, 193249, Note_off_c, 0, 69, 56
1, 193250, Note_off_c, 0, 68, 65
1, 193251, Control_c, 0, 64, 63
1, 193266, Control_c, 0, 64, 65
1, 193281, Control_c, 0, 64, 68
1, 193296, Control_c, 0, 64, 71
1, 193311, Control_c, 0, 64, 72
1, 193385, Control_c, 0, 64, 71
1, 193400, Control_c, 0, 64, 69
1, 193415, Control_c, 0, 64, 66
1, 193430, Control_c, 0, 64, 63
1, 193434, Note_on_c, 0, 83, 62
1, 193445, Control_c, 0, 64, 55
1, 193460, Control_c, 0, 64, 26
1, 193474, Control_c, 0, 64, 0
1, 193579, Note_off_c, 0, 52, 48
1, 193617, Note_on_c, 0, 84, 70
1, 193647, Note_off_c, 0, 59, 50
1, 193701, Note_off_c, 0, 83, 49
1, 193793, Note_on_c, 0, 85, 79
1, 193871, Note_off_c, 0, 84, 59
1, 193973, Note_on_c, 0, 86, 75
1, 194009, Note_off_c, 0, 85, 65
1, 194011, Note_on_c, 0, 69, 37
1, 194015, Note_on_c, 0, 72, 42
1, 194169, Note_on_c, 0, 87, 72
1, 194220, Note_off_c, 0, 86, 57
1, 194380, Note_on_c, 0, 88, 59
1, 194392, Note_on_c, 0, 71, 35
1, 194398, Note_on_c, 0, 68, 27
1, 194399, Note_on_c, 0, 64, 30
1, 194447, Note_off_c, 0, 87, 57
1, 194468, Note_off_c, 0, 88, 64
1, 194468, Note_off_c, 0, 72, 32
1, 194474, Note_off_c, 0, 69, 37
1, 194617, Note_on_c, 0, 83, 66
1, 194797, Note_on_c, 0, 84, 74
1, 194803, Note_off_c, 0, 64, 43
1, 194857, Note_off_c, 0, 71, 40
1, 194890, Note_off_c, 0, 68, 42
1, 194903, Note_off_c, 0, 83, 46
1, 194975, Note_on_c, 0, 85, 73
1, 195064, Note_off_c, 0, 84, 56
1, 195157, Note_on_c, 0, 86, 65
1, 195166, Note_off_c, 0, 85, 65
1, 195169, Note_on_c, 0, 72, 36
1, 195174, Note_on_c, 0, 69, 29
1, 195351, Note_on_c, 0, 87, 56
1, 195392, Note_off_c, 0, 86, 41
1, 195526, Control_c, 0, 64, 14
1, 195541, Control_c, 0, 64, 41
1, 195556, Control_c, 0, 64, 43
1, 195570, Control_c, 0, 64, 47
1, 195573, Note_on_c, 0, 88, 51
1, 195583, Note_off_c, 0, 72, 42
1, 195585, Note_on_c, 0, 68, 31
1, 195585, Control_c, 0, 64, 51
1, 195591, Note_on_c, 0, 64, 25
1, 195591, Note_on_c, 0, 71, 32
1, 195600, Control_c, 0, 64, 55
1, 195615, Control_c, 0, 64, 57
1, 195629, Note_off_c, 0, 87, 53
1, 195630, Control_c, 0, 64, 58
1, 195645, Control_c, 0, 64, 58
1, 195660, Control_c, 0, 64, 59
1, 195673, Note_off_c, 0, 88, 61
1, 195675, Control_c, 0, 64, 60
1, 195690, Control_c, 0, 64, 61
1, 195703, Note_off_c, 0, 69, 38
1, 195705, Control_c, 0, 64, 61
1, 195727, Note_off_c, 0, 71, 56
1, 195735, Control_c, 0, 64, 61
1, 195779, Control_c, 0, 64, 60
1, 195809, Control_c, 0, 64, 60
1, 195839, Control_c, 0, 64, 59
1, 195851, Note_on_c, 0, 71, 46
1, 195868, Control_c, 0, 64, 59
1, 195883, Control_c, 0, 64, 58
1, 195898, Control_c, 0, 64, 58
1, 195913, Control_c, 0, 64, 57
1, 195928, Control_c, 0, 64, 57
1, 195958, Control_c, 0, 64, 56
1, 195973, Control_c, 0, 64, 54
1, 195988, Control_c, 0, 64, 53
1, 196032, Control_c, 0, 64, 52
1, 196047, Control_c, 0, 64, 51
1, 196053, Note_on_c, 0, 72, 61
1, 196062, Control_c, 0, 64, 49
1, 196076, Control_c, 0, 64, 47
1, 196091, Control_c, 0, 64, 46
1, 196099, Note_off_c, 0, 68, 45
1, 196106, Control_c, 0, 64, 44
1, 196119, Note_off_c, 0, 71, 49
1, 196121, Control_c, 0, 64, 42
1, 196136, Control_c, 0, 64, 38
1, 196150, Control_c, 0, 64, 32
1, 196165, Control_c, 0, 64, 26
1, 196180, Control_c, 0, 64, 23
1, 196185, Note_off_c, 0, 64, 36
1, 196194, Control_c, 0, 64, 14
1, 196209, Control_c, 0, 64, 0
1, 196248, Note_on_c, 0, 73, 71
1, 196343, Note_off_c, 0, 72, 58
1, 196423, Note_on_c, 0, 74, 69
1, 196443, Note_off_c, 0, 73, 62
1, 196595, Note_on_c, 0, 75, 75
1, 196638, Note_off_c, 0, 74, 63
1, 196822, Note_on_c, 0, 76, 66
1, 196878, Note_off_c, 0, 75, 62
1, 197112, Note_on_c, 0, 68, 60
1, 197305, Note_on_c, 0, 69, 71
1, 197335, Note_off_c, 0, 68, 63
1, 197484, Note_on_c, 0, 70, 77
1, 197519, Note_off_c, 0, 69, 62
1, 197668, Note_on_c, 0, 71, 78
1, 197674, Note_off_c, 0, 70, 64
1, 197846, Note_on_c, 0, 72, 77
1, 197899, Note_off_c, 0, 71, 56
1, 198029, Note_on_c, 0, 73, 73
1, 198122, Note_off_c, 0, 72, 63
1, 198238, Note_on_c, 0, 63, 61
1, 198455, Note_on_c, 0, 64, 63
1, 198459, Note_on_c, 0, 74, 63
1, 198551, Note_off_c, 0, 73, 56
1, 198557, Note_off_c, 0, 63, 50
1, 198665, Note_on_c, 0, 65, 72
1, 198730, Note_off_c, 0, 64, 63
1, 198775, Control_c, 0, 64, 36
1, 198788, Control_c, 0, 64, 49
1, 198803, Control_c, 0, 64, 53
1, 198818, Control_c, 0, 64, 53
1, 198829, Note_on_c, 0, 66, 76
1, 198833, Control_c, 0, 64, 52
1, 198848, Control_c, 0, 64, 50
1, 198864, Control_c, 0, 64, 46
1, 198874, Note_off_c, 0, 65, 60
1, 198879, Control_c, 0, 64, 38
1, 198893, Control_c, 0, 64, 0
1, 199024, Note_on_c, 0, 67, 83
1, 199056, Control_c, 0, 64, 35
1, 199071, Control_c, 0, 64, 49
1, 199077, Note_off_c, 0, 66, 63
1, 199085, Control_c, 0, 64, 57
1, 199100, Control_c, 0, 64, 62
1, 199115, Control_c, 0, 64, 64
1, 199130, Control_c, 0, 64, 64
1, 199145, Control_c, 0, 64, 65
1, 199159, Control_c, 0, 64, 66
1, 199199, Note_on_c, 0, 68, 69
1, 199200, Note_off_c, 0, 67, 61
1, 199241, Control_c, 0, 64, 65
1, 199256, Control_c, 0, 64, 64
1, 199271, Control_c, 0, 64, 62
1, 199285, Control_c, 0, 64, 58
1, 199300, Control_c, 0, 64, 41
1, 199315, Control_c, 0, 64, 0
1, 199390, Note_on_c, 0, 52, 76
1, 199394, Note_off_c, 0, 76, 56
1, 199404, Control_c, 0, 64, 55
1, 199419, Control_c, 0, 64, 64
1, 199434, Control_c, 0, 64, 66
1, 199493, Control_c, 0, 64, 65
1, 199523, Control_c, 0, 64, 65
1, 199538, Control_c, 0, 64, 64
1, 199553, Control_c, 0, 64, 63
1, 199568, Control_c, 0, 64, 62
1, 199583, Control_c, 0, 64, 61
1, 199598, Control_c, 0, 64, 58
1, 199604, Note_on_c, 0, 53, 73
1, 199612, Control_c, 0, 64, 54
1, 199614, Note_on_c, 0, 76, 68
1, 199627, Control_c, 0, 64, 46
1, 199642, Note_off_c, 0, 52, 65
1, 199642, Control_c, 0, 64, 0
1, 199705, Note_off_c, 0, 74, 36
1, 199761, Control_c, 0, 64, 34
1, 199776, Control_c, 0, 64, 63
1, 199791, Control_c, 0, 64, 65
1, 199806, Control_c, 0, 64, 65
1, 199831, Note_on_c, 0, 54, 75
1, 199869, Note_off_c, 0, 53, 64
1, 199880, Control_c, 0, 64, 65
1, 199885, Note_off_c, 0, 76, 55
1, 199909, Control_c, 0, 64, 64
1, 199924, Control_c, 0, 64, 64
1, 199939, Control_c, 0, 64, 62
1, 199954, Control_c, 0, 64, 61
1, 199968, Control_c, 0, 64, 59
1, 199991, Control_c, 0, 64, 57
1, 200006, Control_c, 0, 64, 53
1, 200021, Control_c, 0, 64, 44
1, 200035, Control_c, 0, 64, 25
1, 200050, Control_c, 0, 64, 0
1, 200092, Note_on_c, 0, 55, 63
1, 200099, Note_on_c, 0, 76, 60
1, 200142, Note_off_c, 0, 54, 62
1, 200271, Note_off_c, 0, 68, 58
1, 200412, Note_on_c, 0, 56, 49
1, 200434, Control_c, 0, 64, 22
1, 200437, Note_off_c, 0, 55, 54
1, 200449, Control_c, 0, 64, 52
1, 200465, Control_c, 0, 64, 56
1, 200480, Control_c, 0, 64, 56
1, 200495, Control_c, 0, 64, 58
1, 200510, Control_c, 0, 64, 60
1, 200525, Control_c, 0, 64, 63
1, 200539, Control_c, 0, 64, 64
1, 200554, Control_c, 0, 64, 65
1, 200569, Control_c, 0, 64, 66
1, 200583, Control_c, 0, 64, 68
1, 200598, Control_c, 0, 64, 69
1, 200613, Control_c, 0, 64, 70
1, 200628, Control_c, 0, 64, 71
1, 200643, Control_c, 0, 64, 72
1, 200798, Control_c, 0, 64, 72
1, 200813, Control_c, 0, 64, 71
1, 200815, Note_on_c, 0, 57, 35
1, 200828, Control_c, 0, 64, 70
1, 200843, Control_c, 0, 64, 70
1, 200858, Control_c, 0, 64, 69
1, 200872, Control_c, 0, 64, 68
1, 200876, Note_off_c, 0, 56, 29
1, 200881, Note_off_c, 0, 76, 26
1, 200887, Control_c, 0, 64, 66
1, 200902, Control_c, 0, 64, 65
1, 200916, Control_c, 0, 64, 65
1, 200931, Control_c, 0, 64, 64
1, 200946, Control_c, 0, 64, 63
1, 200951, Note_on_c, 0, 75, 35
1, 200961, Control_c, 0, 64, 60
1, 200976, Control_c, 0, 64, 55
1, 200990, Control_c, 0, 64, 51
1, 201005, Control_c, 0, 64, 46
1, 201020, Control_c, 0, 64, 35
1, 201032, Note_on_c, 0, 76, 46
1, 201033, Note_off_c, 0, 75, 38
1, 201034, Control_c, 0, 64, 0
1, 201078, Note_off_c, 0, 76, 61
1, 201103, Note_on_c, 0, 77, 49
1, 201195, Note_on_c, 0, 76, 32
1, 201228, Note_off_c, 0, 77, 29
1, 201606, Control_c, 0, 64, 28
1, 201620, Control_c, 0, 64, 52
1, 201635, Control_c, 0, 64, 61
1, 201650, Control_c, 0, 64, 63
1, 201665, Control_c, 0, 64, 63
1, 201680, Control_c, 0, 64, 64
1, 201694, Control_c, 0, 64, 65
1, 201709, Control_c, 0, 64, 67
1, 201724, Control_c, 0, 64, 68
1, 201738, Control_c, 0, 64, 69
1, 201753, Control_c, 0, 64, 71
1, 201768, Control_c, 0, 64, 72
1, 201783, Control_c, 0, 64, 74
1, 201798, Control_c, 0, 64, 76
1, 201812, Control_c, 0, 64, 77
1, 201827, Control_c, 0, 64, 80
1, 201842, Control_c, 0, 64, 83
1, 201857, Control_c, 0, 64, 87
1, 201859, Note_on_c, 0, 64, 29
1, 201862, Note_on_c, 0, 60, 27
1, 201872, Control_c, 0, 64, 91
1, 201887, Control_c, 0, 64, 95
1, 201902, Control_c, 0, 64, 101
1, 201917, Control_c, 0, 64, 106
1, 201931, Control_c, 0, 64, 111
1, 201946, Control_c, 0, 64, 116
1, 201961, Control_c, 0, 64, 119
1, 201976, Control_c, 0, 64, 121
1, 202026, Note_off_c, 0, 64, 41
1, 202041, Note_off_c, 0, 60, 39
1, 202054, Note_on_c, 0, 75, 48
1, 202067, Note_off_c, 0, 76, 40
1, 202184, Control_c, 0, 64, 119
1, 202199, Control_c, 0, 64, 111
1, 202209, Note_off_c, 0, 75, 38
1, 202214, Control_c, 0, 64, 102
1, 202236, Control_c, 0, 64, 92
1, 202251, Control_c, 0, 64, 84
1, 202257, Note_on_c, 0, 76, 51
1, 202264, Note_on_c, 0, 60, 34
1, 202265, Note_on_c, 0, 64, 26
1, 202266, Control_c, 0, 64, 76
1, 202280, Control_c, 0, 64, 69
1, 202295, Control_c, 0, 64, 62
1, 202310, Control_c, 0, 64, 39
1, 202325, Control_c, 0, 64, 0
1, 202328, Note_off_c, 0, 57, 42
1, 202355, Control_c, 0, 64, 18
1, 202369, Control_c, 0, 64, 48
1, 202384, Control_c, 0, 64, 57
1, 202399, Control_c, 0, 64, 61
1, 202414, Control_c, 0, 64, 63
1, 202429, Control_c, 0, 64, 65
1, 202443, Control_c, 0, 64, 66
1, 202458, Control_c, 0, 64, 67
1, 202473, Control_c, 0, 64, 67
1, 202488, Control_c, 0, 64, 68
1, 202577, Control_c, 0, 64, 67
1, 202592, Control_c, 0, 64, 67
1, 202607, Control_c, 0, 64, 66
1, 202622, Control_c, 0, 64, 65
1, 202626, Note_off_c, 0, 64, 33
1, 202636, Control_c, 0, 64, 64
1, 202651, Control_c, 0, 64, 63
1, 202658, Note_on_c, 0, 57, 28
1, 202666, Control_c, 0, 64, 60
1, 202667, Note_on_c, 0, 69, 40
1, 202680, Control_c, 0, 64, 55
1, 202695, Control_c, 0, 64, 49
1, 202698, Note_off_c, 0, 60, 21
1, 202710, Control_c, 0, 64, 40
1, 202725, Control_c, 0, 64, 0
1, 202766, Note_off_c, 0, 76, 32
1, 202990, Note_off_c, 0, 69, 39
1, 203030, Control_c, 0, 64, 44
1, 203045, Control_c, 0, 64, 55
1, 203059, Control_c, 0, 64, 60
1, 203074, Control_c, 0, 64, 63
1, 203089, Control_c, 0, 64, 65
1, 203095, Note_on_c, 0, 64, 7
1, 203097, Note_on_c, 0, 60, 15
1, 203103, Control_c, 0, 64, 67
1, 203118, Control_c, 0, 64, 70
1, 203133, Control_c, 0, 64, 74
1, 203148, Control_c, 0, 64, 77
1, 203163, Control_c, 0, 64, 85
1, 203178, Control_c, 0, 64, 94
1, 203193, Control_c, 0, 64, 101
1, 203207, Control_c, 0, 64, 107
1, 203222, Control_c, 0, 64, 118
1, 203237, Control_c, 0, 64, 127
1, 203321, Note_off_c, 0, 64, 43
1, 203334, Note_off_c, 0, 60, 40
1, 203494, Note_on_c, 0, 69, 50
1, 203517, Note_on_c, 0, 60, 21
1, 203518, Control_c, 0, 64, 89
1, 203526, Note_on_c, 0, 64, 30
1, 203533, Control_c, 0, 64, 78
1, 203548, Control_c, 0, 64, 77
1, 203577, Control_c, 0, 64, 79
1, 203592, Control_c, 0, 64, 84
1, 203601, Note_off_c, 0, 69, 37
1, 203607, Control_c, 0, 64, 94
1, 203622, Control_c, 0, 64, 103
1, 203637, Control_c, 0, 64, 112
1, 203652, Note_off_c, 0, 57, 41
1, 203653, Control_c, 0, 64, 127
1, 203923, Note_on_c, 0, 57, 34
1, 203927, Control_c, 0, 64, 108
1, 203941, Control_c, 0, 64, 98
1, 203944, Note_on_c, 0, 70, 52
1, 203956, Control_c, 0, 64, 92
1, 203971, Control_c, 0, 64, 89
1, 203986, Control_c, 0, 64, 84
1, 204001, Control_c, 0, 64, 78
1, 204015, Control_c, 0, 64, 71
1, 204027, Note_off_c, 0, 60, 38
1, 204030, Control_c, 0, 64, 66
1, 204045, Control_c, 0, 64, 63
1, 204051, Note_off_c, 0, 64, 42
1, 204060, Control_c, 0, 64, 62
1, 204075, Control_c, 0, 64, 58
1, 204090, Control_c, 0, 64, 46
1, 204105, Control_c, 0, 64, 0
1, 204282, Control_c, 0, 64, 27
1, 204297, Control_c, 0, 64, 48
1, 204312, Control_c, 0, 64, 56
1, 204326, Control_c, 0, 64, 60
1, 204327, Note_on_c, 0, 65, 37
1, 204336, Note_on_c, 0, 62, 32
1, 204341, Control_c, 0, 64, 62
1, 204356, Control_c, 0, 64, 64
1, 204371, Control_c, 0, 64, 67
1, 204386, Control_c, 0, 64, 70
1, 204400, Control_c, 0, 64, 74
1, 204415, Control_c, 0, 64, 77
1, 204430, Control_c, 0, 64, 79
1, 204445, Control_c, 0, 64, 81
1, 204461, Control_c, 0, 64, 84
1, 204483, Control_c, 0, 64, 87
1, 204498, Control_c, 0, 64, 88
1, 204510, Note_off_c, 0, 65, 40
1, 204528, Control_c, 0, 64, 88
1, 204531, Note_off_c, 0, 62, 42
1, 204720, Control_c, 0, 64, 87
1, 204735, Control_c, 0, 64, 85
1, 204746, Note_on_c, 0, 71, 58
1, 204749, Control_c, 0, 64, 81
1, 204764, Control_c, 0, 64, 77
1, 204766, Note_on_c, 0, 65, 27
1, 204770, Note_on_c, 0, 62, 31
1, 204779, Control_c, 0, 64, 74
1, 204794, Control_c, 0, 64, 71
1, 204809, Control_c, 0, 64, 67
1, 204820, Note_off_c, 0, 70, 58
1, 204823, Control_c, 0, 64, 62
1, 204838, Control_c, 0, 64, 45
1, 204853, Control_c, 0, 64, 0
1, 204874, Note_off_c, 0, 57, 43
1, 204942, Control_c, 0, 64, 48
1, 204957, Control_c, 0, 64, 59
1, 204972, Control_c, 0, 64, 63
1, 204987, Control_c, 0, 64, 65
1, 205002, Control_c, 0, 64, 67
1, 205017, Control_c, 0, 64, 68
1, 205031, Control_c, 0, 64, 68
1, 205046, Control_c, 0, 64, 69
1, 205120, Control_c, 0, 64, 68
1, 205135, Control_c, 0, 64, 67
1, 205149, Control_c, 0, 64, 67
1, 205164, Control_c, 0, 64, 66
1, 205176, Note_on_c, 0, 72, 46
1, 205179, Control_c, 0, 64, 64
1, 205191, Note_on_c, 0, 57, 22
1, 205194, Control_c, 0, 64, 62
1, 205209, Control_c, 0, 64, 56
1, 205231, Control_c, 0, 64, 49
1, 205246, Control_c, 0, 64, 43
1, 205255, Note_off_c, 0, 71, 37
1, 205261, Control_c, 0, 64, 33
1, 205269, Note_off_c, 0, 65, 34
1, 205275, Note_off_c, 0, 62, 37
1, 205276, Control_c, 0, 64, 0
1, 205559, Note_off_c, 0, 72, 49
1, 205583, Note_on_c, 0, 67, 28
1, 205587, Note_on_c, 0, 64, 29
1, 205646, Control_c, 0, 64, 34
1, 205661, Control_c, 0, 64, 53
1, 205676, Control_c, 0, 64, 61
1, 205691, Control_c, 0, 64, 63
1, 205705, Control_c, 0, 64, 66
1, 205720, Control_c, 0, 64, 68
1, 205735, Control_c, 0, 64, 71
1, 205750, Control_c, 0, 64, 75
1, 205765, Control_c, 0, 64, 77
1, 205779, Control_c, 0, 64, 77
1, 205794, Control_c, 0, 64, 78
1, 205809, Control_c, 0, 64, 79
1, 205823, Control_c, 0, 64, 80
1, 205824, Note_off_c, 0, 64, 50
1, 205832, Note_off_c, 0, 67, 41
1, 205838, Control_c, 0, 64, 81
1, 205853, Control_c, 0, 64, 81
1, 206009, Control_c, 0, 64, 81
1, 206018, Note_on_c, 0, 73, 60
1, 206024, Control_c, 0, 64, 79
1, 206039, Control_c, 0, 64, 74
1, 206039, Note_on_c, 0, 67, 34
1, 206051, Note_on_c, 0, 64, 30
1, 206054, Control_c, 0, 64, 68
1, 206069, Control_c, 0, 64, 62
1, 206084, Control_c, 0, 64, 54
1, 206099, Control_c, 0, 64, 47
1, 206114, Control_c, 0, 64, 51
1, 206128, Control_c, 0, 64, 58
1, 206143, Control_c, 0, 64, 63
1, 206158, Control_c, 0, 64, 66
1, 206173, Control_c, 0, 64, 70
1, 206188, Control_c, 0, 64, 76
1, 206202, Control_c, 0, 64, 79
1, 206217, Control_c, 0, 64, 81
1, 206219, Note_off_c, 0, 57, 41
1, 206232, Control_c, 0, 64, 83
1, 206247, Control_c, 0, 64, 83
1, 206269, Note_off_c, 0, 73, 55
1, 206410, Control_c, 0, 64, 83
1, 206425, Control_c, 0, 64, 82
1, 206428, Note_on_c, 0, 74, 66
1, 206437, Note_on_c, 0, 57, 37
1, 206440, Control_c, 0, 64, 81
1, 206455, Control_c, 0, 64, 80
1, 206470, Control_c, 0, 64, 78
1, 206483, Note_off_c, 0, 67, 35
1, 206484, Control_c, 0, 64, 74
1, 206499, Control_c, 0, 64, 69
1, 206514, Control_c, 0, 64, 65
1, 206525, Note_off_c, 0, 64, 38
1, 206528, Control_c, 0, 64, 63
1, 206543, Control_c, 0, 64, 61
1, 206558, Control_c, 0, 64, 57
1, 206573, Control_c, 0, 64, 48
1, 206588, Control_c, 0, 64, 29
1, 206603, Control_c, 0, 64, 0
1, 206728, Control_c, 0, 64, 30
1, 206743, Control_c, 0, 64, 53
1, 206758, Control_c, 0, 64, 61
1, 206773, Control_c, 0, 64, 64
1, 206788, Control_c, 0, 64, 65
1, 206802, Control_c, 0, 64, 67
1, 206817, Control_c, 0, 64, 70
1, 206829, Note_on_c, 0, 69, 53
1, 206832, Control_c, 0, 64, 75
1, 206838, Note_on_c, 0, 65, 45
1, 206848, Control_c, 0, 64, 80
1, 206863, Control_c, 0, 64, 83
1, 206878, Control_c, 0, 64, 85
1, 206893, Control_c, 0, 64, 87
1, 206907, Control_c, 0, 64, 89
1, 206922, Control_c, 0, 64, 91
1, 206937, Control_c, 0, 64, 92
1, 206955, Note_off_c, 0, 65, 58
1, 206966, Control_c, 0, 64, 93
1, 206984, Note_off_c, 0, 69, 37
1, 207174, Control_c, 0, 64, 92
1, 207189, Control_c, 0, 64, 91
1, 207204, Control_c, 0, 64, 90
1, 207219, Control_c, 0, 64, 88
1, 207233, Control_c, 0, 64, 85
1, 207235, Note_on_c, 0, 59, 38
1, 207239, Note_on_c, 0, 75, 67
1, 207246, Note_on_c, 0, 69, 30
1, 207248, Control_c, 0, 64, 81
1, 207250, Note_off_c, 0, 57, 34
1, 207263, Control_c, 0, 64, 76
1, 207277, Control_c, 0, 64, 71
1, 207292, Control_c, 0, 64, 66
1, 207307, Control_c, 0, 64, 62
1, 207322, Control_c, 0, 64, 50
1, 207337, Control_c, 0, 64, 0
1, 207381, Control_c, 0, 64, 42
1, 207396, Control_c, 0, 64, 57
1, 207411, Note_off_c, 0, 74, 47
1, 207411, Control_c, 0, 64, 63
1, 207425, Control_c, 0, 64, 68
1, 207440, Control_c, 0, 64, 72
1, 207455, Control_c, 0, 64, 75
1, 207477, Control_c, 0, 64, 77
1, 207492, Control_c, 0, 64, 78
1, 207507, Control_c, 0, 64, 79
1, 207640, Control_c, 0, 64, 78
1, 207656, Control_c, 0, 64, 77
1, 207667, Note_on_c, 0, 57, 34
1, 207671, Control_c, 0, 64, 77
1, 207686, Control_c, 0, 64, 75
1, 207700, Control_c, 0, 64, 73
1, 207708, Note_on_c, 0, 76, 58
1, 207715, Control_c, 0, 64, 69
1, 207730, Control_c, 0, 64, 67
1, 207738, Note_off_c, 0, 69, 31
1, 207745, Control_c, 0, 64, 67
1, 207760, Control_c, 0, 64, 66
1, 207766, Note_off_c, 0, 59, 40
1, 207774, Control_c, 0, 64, 65
1, 207789, Control_c, 0, 64, 63
1, 207804, Control_c, 0, 64, 61
1, 207819, Control_c, 0, 64, 55
1, 207834, Control_c, 0, 64, 46
1, 207841, Note_off_c, 0, 75, 64
1, 207849, Control_c, 0, 64, 30
1, 207864, Control_c, 0, 64, 0
1, 208105, Note_off_c, 0, 76, 50
1, 208115, Note_on_c, 0, 69, 33
1, 208115, Control_c, 0, 64, 35
1, 208130, Control_c, 0, 64, 53
1, 208133, Note_on_c, 0, 60, 31
1, 208145, Control_c, 0, 64, 60
1, 208160, Control_c, 0, 64, 63
1, 208174, Control_c, 0, 64, 64
1, 208189, Control_c, 0, 64, 66
1, 208204, Control_c, 0, 64, 69
1, 208226, Control_c, 0, 64, 72
1, 208241, Control_c, 0, 64, 74
1, 208300, Control_c, 0, 64, 75
1, 208315, Control_c, 0, 64, 77
1, 208330, Control_c, 0, 64, 77
1, 208345, Control_c, 0, 64, 78
1, 208361, Note_off_c, 0, 60, 36
1, 208458, Note_off_c, 0, 69, 41
1, 208538, Control_c, 0, 64, 77
1, 208553, Control_c, 0, 64, 76
1, 208568, Control_c, 0, 64, 74
1, 208583, Control_c, 0, 64, 71
1, 208587, Note_on_c, 0, 81, 46
1, 208597, Control_c, 0, 64, 67
1, 208612, Control_c, 0, 64, 64
1, 208617, Note_on_c, 0, 64, 23
1, 208627, Control_c, 0, 64, 61
1, 208628, Note_on_c, 0, 60, 20
1, 208642, Control_c, 0, 64, 56
1, 208657, Control_c, 0, 64, 48
1, 208671, Control_c, 0, 64, 43
1, 208686, Control_c, 0, 64, 45
1, 208701, Control_c, 0, 64, 52
1, 208716, Control_c, 0, 64, 60
1, 208731, Control_c, 0, 64, 64
1, 208746, Control_c, 0, 64, 67
1, 208761, Control_c, 0, 64, 70
1, 208776, Control_c, 0, 64, 76
1, 208791, Control_c, 0, 64, 80
1, 208805, Control_c, 0, 64, 82
1, 208820, Control_c, 0, 64, 83
1, 208842, Note_off_c, 0, 57, 29
1, 208853, Note_off_c, 0, 64, 41
1, 208879, Control_c, 0, 64, 84
1, 208906, Note_off_c, 0, 60, 39
1, 209049, Control_c, 0, 64, 83
1, 209064, Control_c, 0, 64, 83
1, 209079, Control_c, 0, 64, 82
1, 209094, Control_c, 0, 64, 81
1, 209109, Control_c, 0, 64, 80
1, 209123, Control_c, 0, 64, 78
1, 209134, Note_on_c, 0, 79, 47
1, 209138, Control_c, 0, 64, 76
1, 209145, Note_on_c, 0, 50, 25
1, 209153, Control_c, 0, 64, 72
1, 209168, Control_c, 0, 64, 69
1, 209183, Control_c, 0, 64, 67
1, 209197, Control_c, 0, 64, 66
1, 209197, Control_c, 0, 67, 8
1, 209212, Control_c, 0, 64, 65
1, 209212, Control_c, 0, 67, 10
1, 209227, Control_c, 0, 64, 64
1, 209227, Control_c, 0, 67, 12
1, 209242, Control_c, 0, 64, 61
1, 209242, Control_c, 0, 67, 14
1, 209258, Control_c, 0, 64, 53
1, 209258, Control_c, 0, 67, 16
1, 209263, Note_off_c, 0, 81, 21
1, 209272, Control_c, 0, 64, 41
1, 209272, Control_c, 0, 67, 18
1, 209287, Control_c, 0, 64, 12
1, 209287, Control_c, 0, 67, 20
1, 209302, Control_c, 0, 64, 0
1, 209302, Control_c, 0, 67, 22
1, 209317, Control_c, 0, 67, 23
1, 209332, Control_c, 0, 67, 23
1, 209333, Note_on_c, 0, 77, 62
1, 209346, Control_c, 0, 67, 24
1, 209361, Control_c, 0, 67, 24
1, 209378, Note_off_c, 0, 79, 59
1, 209400, Note_off_c, 0, 77, 60
1, 209499, Note_on_c, 0, 76, 55
1, 209510, Note_on_c, 0, 59, 35
1, 209675, Note_on_c, 0, 74, 55
1, 209685, Note_off_c, 0, 76, 65
1, 209721, Note_off_c, 0, 74, 64
1, 209856, Note_on_c, 0, 62, 35
1, 209861, Note_on_c, 0, 72, 45
1, 209992, Note_off_c, 0, 50, 36
1, 210035, Note_off_c, 0, 62, 55
1, 210040, Note_on_c, 0, 71, 49
1, 210055, Note_off_c, 0, 59, 41
1, 210096, Note_off_c, 0, 72, 56
1, 210128, Note_off_c, 0, 71, 59
1, 210241, Note_on_c, 0, 69, 49
1, 210246, Note_on_c, 0, 60, 33
1, 210263, Note_on_c, 0, 52, 21
1, 210287, Control_c, 0, 67, 24
1, 210332, Control_c, 0, 67, 23
1, 210362, Control_c, 0, 64, 33
1, 210377, Control_c, 0, 64, 51
1, 210377, Control_c, 0, 67, 23
1, 210391, Control_c, 0, 64, 58
1, 210406, Control_c, 0, 64, 60
1, 210421, Control_c, 0, 64, 60
1, 210436, Control_c, 0, 64, 61
1, 210451, Control_c, 0, 64, 62
1, 210473, Control_c, 0, 64, 63
1, 210488, Control_c, 0, 64, 63
1, 210591, Control_c, 0, 67, 22
1, 210606, Control_c, 0, 64, 63
1, 210636, Control_c, 0, 64, 62
1, 210636, Control_c, 0, 67, 22
1, 210651, Control_c, 0, 64, 62
1, 210681, Control_c, 0, 64, 61
1, 210695, Control_c, 0, 64, 60
1, 210695, Control_c, 0, 67, 21
1, 210710, Control_c, 0, 64, 57
1, 210710, Control_c, 0, 67, 21
1, 210718, Note_on_c, 0, 68, 44
1, 210725, Control_c, 0, 64, 51
1, 210733, Note_on_c, 0, 59, 32
1, 210740, Control_c, 0, 64, 40
1, 210740, Control_c, 0, 67, 20
1, 210755, Control_c, 0, 64, 20
1, 210755, Control_c, 0, 67, 20
1, 210769, Control_c, 0, 64, 0
1, 210769, Control_c, 0, 67, 19
1, 210784, Control_c, 0, 67, 18
1, 210799, Control_c, 0, 67, 17
1, 210804, Note_off_c, 0, 69, 44
1, 210814, Control_c, 0, 67, 16
1, 210815, Note_off_c, 0, 60, 31
1, 210828, Control_c, 0, 67, 14
1, 210845, Control_c, 0, 67, 10
1, 210859, Control_c, 0, 64, 18
1, 210859, Control_c, 0, 67, 0
1, 210874, Control_c, 0, 64, 47
1, 210889, Control_c, 0, 64, 57
1, 210904, Control_c, 0, 64, 62
1, 210918, Control_c, 0, 64, 65
1, 210933, Control_c, 0, 64, 66
1, 210948, Control_c, 0, 64, 70
1, 210963, Control_c, 0, 64, 77
1, 210978, Control_c, 0, 64, 83
1, 210992, Control_c, 0, 64, 84
1, 210994, Note_off_c, 0, 52, 42
1, 211007, Control_c, 0, 64, 87
1, 211022, Control_c, 0, 64, 92
1, 211037, Control_c, 0, 64, 99
1, 211051, Control_c, 0, 64, 106
1, 211066, Control_c, 0, 64, 116
1, 211081, Control_c, 0, 64, 125
1, 211096, Control_c, 0, 64, 127
1, 211116, Note_off_c, 0, 59, 41
1, 211196, Note_off_c, 0, 68, 43
1, 211201, Note_on_c, 0, 76, 44
1, 211315, Note_off_c, 0, 76, 39
1, 211698, Note_on_c, 0, 57, 30
1, 211756, Control_c, 0, 64, 116
1, 211771, Control_c, 0, 64, 105
1, 211786, Control_c, 0, 64, 98
1, 211801, Control_c, 0, 64, 92
1, 211801, Note_on_c, 0, 75, 46
1, 211815, Control_c, 0, 64, 84
1, 211830, Control_c, 0, 64, 74
1, 211845, Control_c, 0, 64, 67
1, 211860, Control_c, 0, 64, 62
1, 211874, Control_c, 0, 64, 57
1, 211889, Control_c, 0, 64, 44
1, 211899, Note_on_c, 0, 76, 55
1, 211901, Note_off_c, 0, 75, 58
1, 211904, Control_c, 0, 64, 0
1, 211942, Note_off_c, 0, 76, 63
1, 211955, Note_on_c, 0, 77, 60
1, 212032, Note_on_c, 0, 76, 52
1, 212090, Note_off_c, 0, 77, 39
1, 212341, Control_c, 0, 64, 30
1, 212356, Control_c, 0, 64, 45
1, 212371, Control_c, 0, 64, 50
1, 212385, Control_c, 0, 64, 54
1, 212400, Control_c, 0, 64, 59
1, 212404, Note_on_c, 0, 60, 19
1, 212412, Note_on_c, 0, 64, 19
1, 212415, Control_c, 0, 64, 63
1, 212430, Control_c, 0, 64, 66
1, 212445, Control_c, 0, 64, 68
1, 212460, Control_c, 0, 64, 70
1, 212475, Control_c, 0, 64, 73
1, 212490, Control_c, 0, 64, 76
1, 212505, Control_c, 0, 64, 81
1, 212520, Control_c, 0, 64, 84
1, 212535, Control_c, 0, 64, 86
1, 212550, Control_c, 0, 64, 87
1, 212606, Note_off_c, 0, 64, 41
1, 212634, Note_off_c, 0, 60, 39
1, 212648, Note_on_c, 0, 75, 51
1, 212678, Note_off_c, 0, 76, 59
1, 212779, Control_c, 0, 64, 87
1, 212794, Control_c, 0, 64, 84
1, 212809, Control_c, 0, 64, 79
1, 212823, Control_c, 0, 64, 72
1, 212827, Note_on_c, 0, 76, 47
1, 212838, Control_c, 0, 64, 65
1, 212845, Note_on_c, 0, 64, 28
1, 212850, Note_on_c, 0, 60, 20
1, 212853, Control_c, 0, 64, 56
1, 212858, Note_off_c, 0, 75, 58
1, 212868, Control_c, 0, 64, 31
1, 212883, Control_c, 0, 64, 0
1, 212905, Note_off_c, 0, 57, 34
1, 212927, Control_c, 0, 64, 40
1, 212942, Control_c, 0, 64, 57
1, 212957, Control_c, 0, 64, 64
1, 212971, Control_c, 0, 64, 67
1, 212986, Control_c, 0, 64, 71
1, 213001, Control_c, 0, 64, 74
1, 213015, Control_c, 0, 64, 75
1, 213178, Control_c, 0, 64, 74
1, 213193, Control_c, 0, 64, 73
1, 213207, Control_c, 0, 64, 71
1, 213222, Control_c, 0, 64, 70
1, 213238, Control_c, 0, 64, 67
1, 213247, Note_on_c, 0, 69, 35
1, 213253, Control_c, 0, 64, 64
1, 213256, Note_on_c, 0, 57, 28
1, 213261, Note_off_c, 0, 60, 34
1, 213268, Control_c, 0, 64, 56
1, 213283, Control_c, 0, 64, 34
1, 213285, Note_off_c, 0, 64, 25
1, 213298, Control_c, 0, 64, 0
1, 213355, Note_off_c, 0, 76, 25
1, 213650, Note_off_c, 0, 69, 41
1, 213656, Note_on_c, 0, 64, 27
1, 213660, Note_on_c, 0, 61, 25
1, 213877, Note_off_c, 0, 61, 46
1, 213885, Note_off_c, 0, 64, 43
1, 214061, Control_c, 0, 64, 27
1, 214073, Note_on_c, 0, 69, 40
1, 214076, Control_c, 0, 64, 48
1, 214081, Note_on_c, 0, 64, 22
1, 214084, Note_on_c, 0, 61, 19
1, 214091, Control_c, 0, 64, 57
1, 214106, Control_c, 0, 64, 61
1, 214121, Control_c, 0, 64, 62
1, 214135, Control_c, 0, 64, 63
1, 214150, Control_c, 0, 64, 65
1, 214165, Control_c, 0, 64, 68
1, 214177, Note_off_c, 0, 69, 54
1, 214180, Control_c, 0, 64, 70
1, 214195, Control_c, 0, 64, 72
1, 214216, Control_c, 0, 64, 72
1, 214231, Note_off_c, 0, 57, 36
1, 214231, Control_c, 0, 64, 73
1, 214246, Control_c, 0, 64, 74
1, 214261, Control_c, 0, 64, 75
1, 214276, Control_c, 0, 64, 75
1, 214350, Control_c, 0, 64, 75
1, 214365, Control_c, 0, 64, 74
1, 214380, Control_c, 0, 64, 74
1, 214395, Control_c, 0, 64, 73
1, 214410, Control_c, 0, 64, 72
1, 214424, Control_c, 0, 64, 70
1, 214439, Control_c, 0, 64, 69
1, 214454, Control_c, 0, 64, 68
1, 214468, Control_c, 0, 64, 67
1, 214483, Control_c, 0, 64, 66
1, 214496, Note_on_c, 0, 57, 28
1, 214498, Control_c, 0, 64, 64
1, 214513, Control_c, 0, 64, 63
1, 214552, Note_off_c, 0, 61, 33
1, 214557, Control_c, 0, 64, 61
1, 214572, Control_c, 0, 64, 58
1, 214573, Note_off_c, 0, 64, 33
1, 214586, Control_c, 0, 64, 54
1, 214601, Control_c, 0, 64, 52
1, 214616, Control_c, 0, 64, 51
1, 214631, Control_c, 0, 64, 48
1, 214646, Control_c, 0, 64, 41
1, 214660, Control_c, 0, 64, 19
1, 214675, Control_c, 0, 64, 0
1, 214726, Note_on_c, 0, 72, 43
1, 214809, Control_c, 0, 64, 14
1, 214824, Control_c, 0, 64, 31
1, 214839, Control_c, 0, 64, 41
1, 214854, Control_c, 0, 64, 46
1, 214869, Control_c, 0, 64, 51
1, 214884, Control_c, 0, 64, 55
1, 214899, Control_c, 0, 64, 58
1, 214913, Control_c, 0, 64, 60
1, 214928, Control_c, 0, 64, 61
1, 214943, Control_c, 0, 64, 63
1, 214965, Control_c, 0, 64, 64
1, 214980, Control_c, 0, 64, 65
1, 214981, Note_on_c, 0, 62, 22
1, 214992, Note_on_c, 0, 65, 27
1, 214995, Control_c, 0, 64, 66
1, 215025, Control_c, 0, 64, 66
1, 215039, Control_c, 0, 64, 67
1, 215054, Control_c, 0, 64, 67
1, 215162, Note_on_c, 0, 70, 48
1, 215215, Note_off_c, 0, 65, 41
1, 215232, Note_off_c, 0, 62, 43
1, 215232, Note_off_c, 0, 72, 54
1, 215258, Note_off_c, 0, 70, 59
1, 215262, Control_c, 0, 64, 67
1, 215277, Control_c, 0, 64, 66
1, 215291, Control_c, 0, 64, 65
1, 215306, Control_c, 0, 64, 63
1, 215321, Control_c, 0, 64, 59
1, 215336, Control_c, 0, 64, 49
1, 215351, Control_c, 0, 64, 17
1, 215352, Note_on_c, 0, 65, 39
1, 215361, Note_on_c, 0, 62, 32
1, 215365, Control_c, 0, 64, 0
1, 215465, Note_off_c, 0, 57, 45
1, 215469, Control_c, 0, 64, 48
1, 215483, Control_c, 0, 64, 55
1, 215498, Control_c, 0, 64, 58
1, 215513, Control_c, 0, 64, 59
1, 215528, Note_on_c, 0, 71, 60
1, 215543, Control_c, 0, 64, 58
1, 215557, Control_c, 0, 64, 56
1, 215572, Control_c, 0, 64, 52
1, 215575, Note_off_c, 0, 71, 53
1, 215587, Control_c, 0, 64, 45
1, 215602, Control_c, 0, 64, 36
1, 215617, Control_c, 0, 64, 21
1, 215632, Control_c, 0, 64, 0
1, 215695, Note_on_c, 0, 57, 44
1, 215743, Note_off_c, 0, 65, 42
1, 215760, Note_off_c, 0, 62, 41
1, 215833, Control_c, 0, 64, 33
1, 215847, Control_c, 0, 64, 40
1, 215862, Control_c, 0, 64, 44
1, 215877, Control_c, 0, 64, 48
1, 215892, Control_c, 0, 64, 52
1, 215906, Control_c, 0, 64, 55
1, 215921, Control_c, 0, 64, 57
1, 215936, Note_on_c, 0, 74, 50
1, 215936, Control_c, 0, 64, 59
1, 215951, Control_c, 0, 64, 61
1, 215966, Control_c, 0, 64, 62
1, 215981, Control_c, 0, 64, 62
1, 215996, Control_c, 0, 64, 63
1, 216025, Control_c, 0, 64, 63
1, 216040, Control_c, 0, 64, 64
1, 216055, Control_c, 0, 64, 64
1, 216129, Control_c, 0, 64, 65
1, 216146, Note_on_c, 0, 67, 40
1, 216156, Note_on_c, 0, 64, 40
1, 216331, Note_on_c, 0, 72, 62
1, 216361, Note_off_c, 0, 64, 43
1, 216366, Note_off_c, 0, 67, 37
1, 216395, Control_c, 0, 64, 64
1, 216425, Control_c, 0, 64, 63
1, 216433, Note_off_c, 0, 72, 65
1, 216441, Control_c, 0, 64, 61
1, 216443, Note_off_c, 0, 74, 65
1, 216463, Control_c, 0, 64, 59
1, 216478, Control_c, 0, 64, 56
1, 216493, Control_c, 0, 64, 50
1, 216508, Control_c, 0, 64, 38
1, 216519, Note_on_c, 0, 67, 56
1, 216523, Control_c, 0, 64, 0
1, 216531, Note_on_c, 0, 64, 48
1, 216611, Control_c, 0, 64, 45
1, 216626, Control_c, 0, 64, 55
1, 216631, Note_off_c, 0, 57, 45
1, 216641, Control_c, 0, 64, 60
1, 216656, Control_c, 0, 64, 63
1, 216670, Control_c, 0, 64, 63
1, 216685, Control_c, 0, 64, 63
1, 216692, Note_on_c, 0, 73, 69
1, 216700, Control_c, 0, 64, 59
1, 216715, Control_c, 0, 64, 46
1, 216730, Control_c, 0, 64, 24
1, 216744, Control_c, 0, 64, 0
1, 216751, Note_off_c, 0, 73, 62
1, 216860, Note_on_c, 0, 57, 63
1, 216863, Control_c, 0, 64, 41
1, 216878, Control_c, 0, 64, 54
1, 216893, Control_c, 0, 64, 60
1, 216905, Note_off_c, 0, 67, 38
1, 216908, Control_c, 0, 64, 63
1, 216913, Note_off_c, 0, 64, 61
1, 216923, Control_c, 0, 64, 64
1, 216952, Control_c, 0, 64, 65
1, 216967, Control_c, 0, 64, 66
1, 216981, Control_c, 0, 64, 66
1, 217055, Control_c, 0, 64, 66
1, 217063, Note_on_c, 0, 76, 77
1, 217070, Control_c, 0, 64, 65
1, 217085, Control_c, 0, 64, 61
1, 217100, Control_c, 0, 64, 50
1, 217115, Control_c, 0, 64, 41
1, 217129, Control_c, 0, 64, 45
1, 217144, Control_c, 0, 64, 50
1, 217159, Control_c, 0, 64, 57
1, 217174, Control_c, 0, 64, 62
1, 217188, Control_c, 0, 64, 65
1, 217211, Control_c, 0, 64, 68
1, 217226, Control_c, 0, 64, 71
1, 217242, Control_c, 0, 64, 75
1, 217246, Note_on_c, 0, 69, 59
1, 217256, Note_on_c, 0, 65, 52
1, 217256, Control_c, 0, 64, 79
1, 217271, Control_c, 0, 64, 83
1, 217286, Control_c, 0, 64, 87
1, 217301, Control_c, 0, 64, 91
1, 217316, Control_c, 0, 64, 94
1, 217331, Control_c, 0, 64, 97
1, 217340, Note_off_c, 0, 69, 59
1, 217346, Control_c, 0, 64, 98
1, 217360, Control_c, 0, 64, 99
1, 217375, Control_c, 0, 64, 99
1, 217376, Note_off_c, 0, 65, 59
1, 217390, Control_c, 0, 64, 100
1, 217450, Note_on_c, 0, 74, 75
1, 217534, Note_off_c, 0, 74, 65
1, 217538, Control_c, 0, 64, 99
1, 217539, Note_off_c, 0, 76, 65
1, 217553, Control_c, 0, 64, 95
1, 217567, Control_c, 0, 64, 84
1, 217582, Control_c, 0, 64, 74
1, 217597, Control_c, 0, 64, 66
1, 217603, Note_on_c, 0, 68, 72
1, 217608, Note_on_c, 0, 59, 59
1, 217611, Control_c, 0, 64, 54
1, 217626, Control_c, 0, 64, 0
1, 217650, Note_off_c, 0, 57, 58
1, 217716, Control_c, 0, 64, 54
1, 217730, Control_c, 0, 64, 65
1, 217745, Control_c, 0, 64, 71
1, 217760, Control_c, 0, 64, 76
1, 217775, Control_c, 0, 64, 80
1, 217790, Control_c, 0, 64, 85
1, 217802, Note_on_c, 0, 77, 83
1, 217804, Control_c, 0, 64, 92
1, 217819, Control_c, 0, 64, 100
1, 217834, Control_c, 0, 64, 103
1, 217849, Note_off_c, 0, 77, 63
1, 217877, Note_off_c, 0, 68, 61
1, 217893, Control_c, 0, 64, 104
1, 218004, Control_c, 0, 64, 101
1, 218019, Control_c, 0, 64, 93
1, 218034, Control_c, 0, 64, 84
1, 218038, Note_on_c, 0, 69, 49
1, 218040, Note_on_c, 0, 60, 48
1, 218042, Note_on_c, 0, 57, 49
1, 218049, Control_c, 0, 64, 74
1, 218064, Control_c, 0, 64, 68
1, 218079, Control_c, 0, 64, 63
1, 218094, Control_c, 0, 64, 54
1, 218106, Note_on_c, 0, 76, 66
1, 218109, Control_c, 0, 64, 0
1, 218136, Note_off_c, 0, 59, 33
1, 218213, Control_c, 0, 64, 57
1, 218223, Note_on_c, 0, 78, 76
1, 218228, Control_c, 0, 64, 65
1, 218230, Note_off_c, 0, 76, 60
1, 218242, Control_c, 0, 64, 68
1, 218257, Control_c, 0, 64, 69
1, 218287, Control_c, 0, 64, 69
1, 218316, Control_c, 0, 64, 70
1, 218326, Note_on_c, 0, 79, 79
1, 218344, Note_off_c, 0, 78, 63
1, 218390, Control_c, 0, 64, 69
1, 218405, Control_c, 0, 64, 68
1, 218413, Note_on_c, 0, 80, 81
1, 218420, Control_c, 0, 64, 68
1, 218434, Control_c, 0, 64, 67
1, 218443, Note_off_c, 0, 79, 60
1, 218449, Control_c, 0, 64, 65
1, 218464, Control_c, 0, 64, 64
1, 218479, Control_c, 0, 64, 61
1, 218494, Control_c, 0, 64, 55
1, 218507, Note_on_c, 0, 81, 84
1, 218508, Control_c, 0, 64, 46
1, 218523, Control_c, 0, 64, 0
1, 218525, Note_off_c, 0, 80, 65
1, 218565, Note_off_c, 0, 69, 43
1, 218610, Note_on_c, 0, 79, 77
1, 218610, Note_off_c, 0, 81, 60
1, 218664, Note_off_c, 0, 79, 61
1, 218678, Note_off_c, 0, 57, 35
1, 218711, Note_on_c, 0, 77, 76
1, 218726, Note_off_c, 0, 60, 36
1, 218758, Note_off_c, 0, 77, 52
1, 218796, Note_on_c, 0, 76, 63
1, 218860, Note_off_c, 0, 76, 62
1, 218900, Note_on_c, 0, 74, 52
1, 218952, Note_off_c, 0, 74, 62
1, 218991, Note_on_c, 0, 72, 62
1, 219062, Note_off_c, 0, 72, 59
1, 219101, Note_on_c, 0, 71, 56
1, 219152, Note_off_c, 0, 71, 57
1, 219193, Note_on_c, 0, 69, 49
1, 219218, Note_off_c, 0, 69, 59
1, 219272, Control_c, 0, 64, 12
1, 219287, Control_c, 0, 64, 24
1, 219302, Control_c, 0, 64, 27
1, 219317, Control_c, 0, 64, 33
1, 219331, Control_c, 0, 64, 40
1, 219345, Note_on_c, 0, 52, 39
1, 219346, Control_c, 0, 64, 46
1, 219356, Note_on_c, 0, 64, 31
1, 219361, Control_c, 0, 64, 51
1, 219373, Note_on_c, 0, 72, 46
1, 219376, Control_c, 0, 64, 54
1, 219382, Note_on_c, 0, 69, 34
1, 219391, Control_c, 0, 64, 57
1, 219406, Control_c, 0, 64, 60
1, 219421, Control_c, 0, 64, 64
1, 219436, Control_c, 0, 64, 66
1, 219457, Control_c, 0, 64, 68
1, 219472, Control_c, 0, 64, 69
1, 219502, Control_c, 0, 64, 69
1, 219517, Control_c, 0, 64, 70
1, 219531, Control_c, 0, 64, 71
1, 219567, Note_off_c, 0, 72, 63
1, 219602, Note_on_c, 0, 74, 45
1, 219644, Note_off_c, 0, 74, 60
1, 219649, Note_on_c, 0, 72, 52
1, 219651, Control_c, 0, 64, 70
1, 219666, Control_c, 0, 64, 69
1, 219680, Control_c, 0, 64, 66
1, 219684, Note_off_c, 0, 72, 66
1, 219695, Control_c, 0, 64, 61
1, 219701, Note_on_c, 0, 71, 58
1, 219710, Control_c, 0, 64, 44
1, 219725, Control_c, 0, 64, 0
1, 219756, Note_off_c, 0, 71, 55
1, 219760, Note_on_c, 0, 72, 57
1, 219799, Control_c, 0, 64, 34
1, 219814, Control_c, 0, 64, 59
1, 219829, Control_c, 0, 64, 64
1, 219844, Control_c, 0, 64, 65
1, 219862, Note_off_c, 0, 64, 53
1, 219949, Note_off_c, 0, 72, 63
1, 219956, Note_on_c, 0, 74, 55
1, 219962, Control_c, 0, 64, 65
1, 220006, Control_c, 0, 64, 64
1, 220021, Control_c, 0, 64, 64
1, 220036, Control_c, 0, 64, 63
1, 220080, Control_c, 0, 64, 63
1, 220095, Control_c, 0, 64, 62
1, 220110, Control_c, 0, 64, 60
1, 220125, Control_c, 0, 64, 58
1, 220140, Control_c, 0, 64, 57
1, 220154, Control_c, 0, 64, 55
1, 220169, Control_c, 0, 64, 51
1, 220184, Control_c, 0, 64, 42
1, 220196, Note_on_c, 0, 71, 48
1, 220205, Note_on_c, 0, 62, 24
1, 220206, Control_c, 0, 64, 18
1, 220212, Note_on_c, 0, 68, 38
1, 220221, Control_c, 0, 64, 0
1, 220309, Note_off_c, 0, 69, 41
1, 220346, Note_off_c, 0, 74, 39
1, 220444, Control_c, 0, 64, 36
1, 220459, Control_c, 0, 64, 52
1, 220474, Control_c, 0, 64, 56
1, 220489, Control_c, 0, 64, 59
1, 220503, Control_c, 0, 64, 60
1, 220518, Control_c, 0, 64, 61
1, 220533, Control_c, 0, 64, 62
1, 220637, Control_c, 0, 64, 61
1, 220652, Control_c, 0, 64, 61
1, 220696, Control_c, 0, 64, 60
1, 220711, Control_c, 0, 64, 60
1, 220741, Control_c, 0, 64, 59
1, 220756, Control_c, 0, 64, 59
1, 220771, Control_c, 0, 64, 58
1, 220785, Control_c, 0, 64, 57
1, 220794, Note_on_c, 0, 57, 12
1, 220798, Note_on_c, 0, 69, 31
1, 220800, Control_c, 0, 64, 56
1, 220805, Note_on_c, 0, 60, 12
1, 220815, Control_c, 0, 64, 56
1, 220829, Control_c, 0, 64, 55
1, 220844, Control_c, 0, 64, 53
1, 220859, Control_c, 0, 64, 51
1, 220864, Note_off_c, 0, 68, 41
1, 220874, Control_c, 0, 64, 49
1, 220878, Note_off_c, 0, 62, 34
1, 220883, Note_off_c, 0, 52, 19
1, 220888, Note_off_c, 0, 71, 30
1, 220889, Control_c, 0, 64, 48
1, 220903, Control_c, 0, 64, 46
1, 220918, Control_c, 0, 64, 42
1, 220933, Control_c, 0, 64, 34
1, 220955, Control_c, 0, 64, 8
1, 220970, Control_c, 0, 64, 0
1, 221133, Control_c, 0, 64, 38
1, 221148, Control_c, 0, 64, 48
1, 221162, Control_c, 0, 64, 50
1, 221177, Control_c, 0, 64, 51
1, 221192, Control_c, 0, 64, 52
1, 221207, Control_c, 0, 64, 53
1, 221222, Control_c, 0, 64, 53
1, 221312, Control_c, 0, 64, 53
1, 221358, Note_off_c, 0, 69, 37
1, 221370, Control_c, 0, 64, 52
1, 221385, Control_c, 0, 64, 51
1, 221394, Note_off_c, 0, 57, 39
1, 221400, Control_c, 0, 64, 51
1, 221430, Control_c, 0, 64, 50
1, 221445, Control_c, 0, 64, 50
1, 221460, Note_off_c, 0, 60, 38
1, 221460, Control_c, 0, 64, 48
1, 221474, Control_c, 0, 64, 45
1, 221489, Control_c, 0, 64, 41
1, 221504, Control_c, 0, 64, 40
1, 221519, Control_c, 0, 64, 38
1, 221534, Control_c, 0, 64, 36
1, 221549, Control_c, 0, 64, 32
1, 221564, Control_c, 0, 64, 28
1, 221578, Control_c, 0, 64, 22
1, 221593, Control_c, 0, 64, 14
1, 221608, Control_c, 0, 64, 17
1, 221623, Control_c, 0, 64, 26
1, 221638, Control_c, 0, 64, 36
1, 221652, Control_c, 0, 64, 45
1, 221667, Control_c, 0, 64, 51
1, 221682, Control_c, 0, 64, 56
1, 221704, Control_c, 0, 64, 59
1, 221719, Control_c, 0, 64, 62
1, 221734, Control_c, 0, 64, 64
1, 221749, Control_c, 0, 64, 67
1, 221764, Control_c, 0, 64, 70
1, 221778, Control_c, 0, 64, 74
1, 221793, Control_c, 0, 64, 77
1, 221808, Control_c, 0, 64, 79
1, 221823, Control_c, 0, 64, 81
1, 221823, Note_on_c, 0, 73, 35
1, 221838, Control_c, 0, 64, 83
1, 221852, Control_c, 0, 64, 86
1, 221867, Control_c, 0, 64, 88
1, 221882, Note_off_c, 0, 73, 41
1, 221882, Control_c, 0, 64, 91
1, 221897, Control_c, 0, 64, 92
1, 221912, Control_c, 0, 64, 94
1, 221926, Control_c, 0, 64, 97
1, 221941, Control_c, 0, 64, 99
1, 221956, Control_c, 0, 64, 102
1, 221971, Control_c, 0, 64, 106
1, 221985, Control_c, 0, 64, 110
1, 222000, Control_c, 0, 64, 114
1, 222015, Control_c, 0, 64, 116
1, 222031, Control_c, 0, 64, 118
1, 222312, Control_c, 0, 64, 114
1, 222327, Control_c, 0, 64, 110
1, 222339, Note_on_c, 0, 57, 30
1, 222342, Note_on_c, 0, 73, 38
1, 222342, Control_c, 0, 64, 103
1, 222353, Note_on_c, 0, 64, 30
1, 222357, Control_c, 0, 64, 96
1, 222372, Control_c, 0, 64, 88
1, 222387, Control_c, 0, 64, 80
1, 222401, Control_c, 0, 64, 72
1, 222416, Control_c, 0, 64, 66
1, 222431, Control_c, 0, 64, 60
1, 222453, Control_c, 0, 64, 53
1, 222468, Control_c, 0, 64, 54
1, 222482, Control_c, 0, 64, 59
1, 222497, Control_c, 0, 64, 62
1, 222512, Control_c, 0, 64, 65
1, 222527, Control_c, 0, 64, 67
1, 222531, Note_off_c, 0, 73, 51
1, 222542, Control_c, 0, 64, 71
1, 222557, Control_c, 0, 64, 76
1, 222568, Note_on_c, 0, 74, 38
1, 222571, Control_c, 0, 64, 78
1, 222624, Note_off_c, 0, 74, 54
1, 222637, Note_on_c, 0, 73, 57
1, 222646, Control_c, 0, 64, 76
1, 222661, Control_c, 0, 64, 74
1, 222663, Note_off_c, 0, 73, 65
1, 222675, Control_c, 0, 64, 70
1, 222676, Note_on_c, 0, 71, 55
1, 222690, Control_c, 0, 64, 65
1, 222705, Control_c, 0, 64, 59
1, 222708, Note_off_c, 0, 64, 45
1, 222720, Control_c, 0, 64, 42
1, 222734, Control_c, 0, 64, 0
1, 222744, Note_off_c, 0, 57, 41
1, 222744, Note_on_c, 0, 73, 61
1, 222774, Note_off_c, 0, 71, 52
1, 222929, Note_on_c, 0, 74, 57
1, 222951, Note_off_c, 0, 73, 61
1, 222983, Note_off_c, 0, 74, 54
1, 223153, Note_on_c, 0, 71, 44
1, 223156, Note_on_c, 0, 52, 38
1, 223159, Note_on_c, 0, 68, 41
1, 223167, Note_on_c, 0, 62, 29
1, 223327, Note_off_c, 0, 62, 43
1, 223331, Note_off_c, 0, 52, 55
1, 223343, Note_off_c, 0, 68, 50
1, 223355, Note_off_c, 0, 71, 37
1, 223650, Note_on_c, 0, 61, 30
1, 223656, Note_on_c, 0, 69, 37
1, 223669, Note_on_c, 0, 54, 19
1, 223752, Control_c, 0, 64, 32
1, 223767, Control_c, 0, 64, 44
1, 223781, Control_c, 0, 64, 52
1, 223796, Control_c, 0, 64, 57
1, 223811, Control_c, 0, 64, 62
1, 223826, Control_c, 0, 64, 64
1, 223841, Control_c, 0, 64, 64
1, 223855, Control_c, 0, 64, 65
1, 223882, Note_off_c, 0, 69, 38
1, 223885, Control_c, 0, 64, 65
1, 223952, Control_c, 0, 64, 65
1, 223966, Control_c, 0, 64, 64
1, 223981, Control_c, 0, 64, 62
1, 223996, Control_c, 0, 64, 57
1, 224005, Note_off_c, 0, 54, 40
1, 224011, Control_c, 0, 64, 46
1, 224016, Note_off_c, 0, 61, 39
1, 224026, Control_c, 0, 64, 0
1, 224262, Control_c, 0, 64, 36
1, 224277, Control_c, 0, 64, 48
1, 224291, Control_c, 0, 64, 54
1, 224306, Control_c, 0, 64, 57
1, 224321, Control_c, 0, 64, 60
1, 224336, Control_c, 0, 64, 62
1, 224351, Control_c, 0, 64, 65
1, 224366, Control_c, 0, 64, 68
1, 224380, Control_c, 0, 64, 70
1, 224395, Control_c, 0, 64, 73
1, 224410, Control_c, 0, 64, 78
1, 224426, Control_c, 0, 64, 85
1, 224440, Control_c, 0, 64, 95
1, 224455, Control_c, 0, 64, 112
1, 224470, Control_c, 0, 64, 127
1, 224491, Note_on_c, 0, 78, 86
1, 224511, Note_on_c, 0, 57, 44
1, 224511, Note_on_c, 0, 69, 57
1, 224521, Note_on_c, 0, 54, 42
1, 224641, Note_off_c, 0, 69, 64
1, 224684, Note_off_c, 0, 78, 62
1, 224733, Note_off_c, 0, 57, 32
1, 224756, Note_off_c, 0, 54, 44
1, 224951, Control_c, 0, 64, 102
1, 224966, Control_c, 0, 64, 87
1, 224978, Note_on_c, 0, 76, 79
1, 224981, Note_on_c, 0, 56, 49
1, 224981, Control_c, 0, 64, 78
1, 224989, Note_on_c, 0, 64, 44
1, 224994, Note_on_c, 0, 71, 61
1, 224995, Control_c, 0, 64, 71
1, 225010, Control_c, 0, 64, 65
1, 225025, Control_c, 0, 64, 55
1, 225040, Control_c, 0, 64, 0
1, 225129, Control_c, 0, 64, 49
1, 225144, Control_c, 0, 64, 60
1, 225159, Control_c, 0, 64, 66
1, 225174, Control_c, 0, 64, 72
1, 225189, Control_c, 0, 64, 79
1, 225203, Control_c, 0, 64, 85
1, 225218, Control_c, 0, 64, 91
1, 225233, Control_c, 0, 64, 93
1, 225248, Control_c, 0, 64, 95
1, 225252, Note_off_c, 0, 76, 65
1, 225261, Note_on_c, 0, 78, 76
1, 225293, Control_c, 0, 64, 96
1, 225308, Control_c, 0, 64, 96
1, 225324, Note_on_c, 0, 76, 72
1, 225326, Note_off_c, 0, 78, 65
1, 225343, Note_off_c, 0, 64, 36
1, 225366, Note_on_c, 0, 75, 77
1, 225367, Control_c, 0, 64, 95
1, 225370, Note_off_c, 0, 76, 67
1, 225382, Control_c, 0, 64, 83
1, 225397, Control_c, 0, 64, 67
1, 225412, Control_c, 0, 64, 8
1, 225412, Note_on_c, 0, 76, 78
1, 225426, Control_c, 0, 64, 0
1, 225455, Note_off_c, 0, 75, 51
1, 225478, Control_c, 0, 64, 23
1, 225493, Control_c, 0, 64, 61
1, 225502, Note_off_c, 0, 71, 60
1, 225508, Control_c, 0, 64, 76
1, 225523, Control_c, 0, 64, 93
1, 225537, Control_c, 0, 64, 102
1, 225552, Control_c, 0, 64, 105
1, 225567, Control_c, 0, 64, 116
1, 225582, Control_c, 0, 64, 127
1, 225600, Note_on_c, 0, 78, 85
1, 225602, Note_off_c, 0, 76, 66
1, 225682, Note_off_c, 0, 56, 29
1, 225774, Control_c, 0, 64, 101
1, 225789, Control_c, 0, 64, 81
1, 225793, Note_off_c, 0, 78, 47
1, 225803, Note_on_c, 0, 74, 74
1, 225803, Note_on_c, 0, 68, 71
1, 225804, Control_c, 0, 64, 67
1, 225818, Note_on_c, 0, 52, 53
1, 225818, Control_c, 0, 64, 53
1, 225820, Note_on_c, 0, 59, 45
1, 225833, Control_c, 0, 64, 0
1, 225937, Control_c, 0, 64, 48
1, 225952, Control_c, 0, 64, 66
1, 225967, Control_c, 0, 64, 74
1, 225982, Control_c, 0, 64, 85
1, 225996, Control_c, 0, 64, 93
1, 226011, Control_c, 0, 64, 115
1, 226027, Control_c, 0, 64, 127
1, 226053, Note_off_c, 0, 68, 59
1, 226165, Note_off_c, 0, 59, 36
1, 226261, Note_off_c, 0, 52, 38
1, 226301, Control_c, 0, 64, 109
1, 226316, Control_c, 0, 64, 92
1, 226324, Note_on_c, 0, 73, 73
1, 226330, Control_c, 0, 64, 81
1, 226333, Note_on_c, 0, 69, 54
1, 226335, Note_on_c, 0, 57, 49
1, 226345, Control_c, 0, 64, 72
1, 226354, Note_off_c, 0, 74, 58
1, 226360, Control_c, 0, 64, 65
1, 226375, Control_c, 0, 64, 48
1, 226390, Control_c, 0, 64, 0
1, 226522, Control_c, 0, 64, 44
1, 226537, Control_c, 0, 64, 62
1, 226552, Control_c, 0, 64, 65
1, 226566, Control_c, 0, 64, 70
1, 226570, Note_off_c, 0, 69, 64
1, 226581, Control_c, 0, 64, 76
1, 226596, Control_c, 0, 64, 86
1, 226611, Control_c, 0, 64, 97
1, 226622, Note_off_c, 0, 73, 62
1, 226626, Control_c, 0, 64, 102
1, 226630, Note_off_c, 0, 57, 47
1, 226640, Control_c, 0, 64, 103
1, 226655, Control_c, 0, 64, 104
1, 226670, Control_c, 0, 64, 104
1, 226685, Control_c, 0, 64, 105
1, 226804, Control_c, 0, 64, 104
1, 226819, Control_c, 0, 64, 102
1, 226834, Control_c, 0, 64, 101
1, 226849, Control_c, 0, 64, 98
1, 226864, Control_c, 0, 64, 94
1, 226879, Control_c, 0, 64, 88
1, 226894, Control_c, 0, 64, 83
1, 226909, Control_c, 0, 64, 79
1, 226924, Control_c, 0, 64, 77
1, 226945, Control_c, 0, 64, 74
1, 226960, Control_c, 0, 64, 70
1, 226975, Control_c, 0, 64, 64
1, 226990, Control_c, 0, 64, 55
1, 227004, Control_c, 0, 64, 37
1, 227019, Control_c, 0, 64, 0
1, 227422, Note_on_c, 0, 85, 46
1, 227424, Note_on_c, 0, 57, 26
1, 227430, Note_on_c, 0, 73, 40
1, 227435, Note_on_c, 0, 64, 23
1, 227499, Note_off_c, 0, 73, 47
1, 227505, Note_off_c, 0, 85, 60
1, 227553, Note_off_c, 0, 64, 43
1, 227563, Note_off_c, 0, 57, 36
1, 227842, Control_c, 0, 64, 12
1, 227857, Control_c, 0, 64, 23
1, 227872, Control_c, 0, 64, 30
1, 227887, Control_c, 0, 64, 34
1, 227901, Note_on_c, 0, 85, 40
1, 227901, Control_c, 0, 64, 38
1, 227906, Note_on_c, 0, 73, 35
1, 227910, Note_on_c, 0, 57, 22
1, 227916, Control_c, 0, 64, 41
1, 227925, Note_on_c, 0, 64, 17
1, 227931, Control_c, 0, 64, 45
1, 227946, Control_c, 0, 64, 47
1, 227961, Control_c, 0, 64, 48
1, 227976, Control_c, 0, 64, 49
1, 228035, Control_c, 0, 64, 48
1, 228050, Control_c, 0, 64, 48
1, 228052, Note_off_c, 0, 85, 0
1, 228059, Note_off_c, 0, 73, 43
1, 228065, Control_c, 0, 64, 47
1, 228070, Note_off_c, 0, 64, 42
1, 228080, Control_c, 0, 64, 46
1, 228086, Poly_aftertouch_c, 0, 85, 0
1, 228094, Control_c, 0, 64, 44
1, 228099, Note_off_c, 0, 57, 37
1, 228109, Control_c, 0, 64, 43
1, 228124, Control_c, 0, 64, 42
1, 228138, Control_c, 0, 64, 40
1, 228153, Control_c, 0, 64, 38
1, 228168, Control_c, 0, 64, 36
1, 228183, Control_c, 0, 64, 32
1, 228198, Control_c, 0, 64, 27
1, 228212, Control_c, 0, 64, 21
1, 228227, Control_c, 0, 64, 12
1, 228242, Control_c, 0, 64, 0
1, 228849, Note_on_c, 0, 84, 56
1, 228855, Note_on_c, 0, 72, 45
1, 228873, Note_on_c, 0, 57, 29
1, 228881, Note_on_c, 0, 63, 25
1, 228966, Note_off_c, 0, 84, 63
1, 228969, Note_off_c, 0, 72, 63
1, 228995, Note_off_c, 0, 57, 50
1, 229003, Note_off_c, 0, 63, 52
1, 229281, Control_c, 0, 64, 28
1, 229296, Control_c, 0, 64, 35
1, 229311, Control_c, 0, 64, 42
1, 229325, Control_c, 0, 64, 48
1, 229340, Control_c, 0, 64, 54
1, 229355, Control_c, 0, 64, 57
1, 229359, Note_on_c, 0, 57, 12
1, 229367, Note_on_c, 0, 84, 46
1, 229370, Control_c, 0, 64, 60
1, 229373, Note_on_c, 0, 72, 29
1, 229379, Note_on_c, 0, 63, 18
1, 229385, Control_c, 0, 64, 62
1, 229399, Control_c, 0, 64, 64
1, 229414, Control_c, 0, 64, 64
1, 229429, Control_c, 0, 64, 65
1, 229534, Note_off_c, 0, 84, 56
1, 229536, Note_off_c, 0, 72, 44
1, 229577, Control_c, 0, 64, 64
1, 229597, Note_off_c, 0, 57, 41
1, 229606, Control_c, 0, 64, 64
1, 229609, Note_off_c, 0, 63, 38
1, 229651, Control_c, 0, 64, 63
1, 229681, Control_c, 0, 64, 63
1, 229696, Control_c, 0, 64, 62
1, 229710, Control_c, 0, 64, 62
1, 229725, Control_c, 0, 64, 61
1, 229755, Control_c, 0, 64, 60
1, 229770, Control_c, 0, 64, 59
1, 229784, Control_c, 0, 64, 56
1, 229799, Control_c, 0, 64, 51
1, 229814, Control_c, 0, 64, 37
1, 229829, Control_c, 0, 64, 0
1, 229985, Control_c, 0, 64, 28
1, 229999, Control_c, 0, 64, 43
1, 230015, Control_c, 0, 64, 53
1, 230030, Control_c, 0, 64, 59
1, 230045, Control_c, 0, 64, 63
1, 230059, Control_c, 0, 64, 65
1, 230074, Control_c, 0, 64, 67
1, 230089, Control_c, 0, 64, 71
1, 230104, Control_c, 0, 64, 78
1, 230119, Control_c, 0, 64, 87
1, 230134, Control_c, 0, 64, 97
1, 230148, Control_c, 0, 64, 116
1, 230163, Control_c, 0, 64, 127
1, 230331, Note_on_c, 0, 56, 37
1, 230331, Note_on_c, 0, 83, 76
1, 230344, Note_on_c, 0, 64, 32
1, 230352, Note_on_c, 0, 71, 49
1, 230620, Note_off_c, 0, 56, 41
1, 230669, Note_off_c, 0, 64, 33
1, 230745, Note_off_c, 0, 71, 55
1, 230751, Note_off_c, 0, 83, 56
1, 230924, Note_on_c, 0, 83, 79
1, 230939, Note_on_c, 0, 71, 59
1, 230944, Note_on_c, 0, 56, 41
1, 230961, Note_on_c, 0, 64, 21
1, 231031, Control_c, 0, 64, 92
1, 231045, Control_c, 0, 64, 77
1, 231060, Control_c, 0, 64, 65
1, 231075, Control_c, 0, 64, 48
1, 231090, Control_c, 0, 64, 0
1, 231149, Control_c, 0, 64, 25
1, 231163, Control_c, 0, 64, 48
1, 231178, Control_c, 0, 64, 60
1, 231193, Control_c, 0, 64, 66
1, 231198, Note_on_c, 0, 82, 81
1, 231208, Control_c, 0, 64, 71
1, 231223, Control_c, 0, 64, 78
1, 231237, Control_c, 0, 64, 87
1, 231252, Control_c, 0, 64, 101
1, 231262, Note_off_c, 0, 83, 60
1, 231267, Control_c, 0, 64, 119
1, 231282, Control_c, 0, 64, 127
1, 231391, Note_on_c, 0, 81, 87
1, 231406, Note_off_c, 0, 82, 63
1, 231441, Note_off_c, 0, 64, 40
1, 231542, Note_off_c, 0, 71, 56
1, 231571, Note_on_c, 0, 80, 83
1, 231714, Note_off_c, 0, 81, 33
1, 231720, Control_c, 0, 64, 109
1, 231735, Control_c, 0, 64, 89
1, 231750, Control_c, 0, 64, 75
1, 231765, Control_c, 0, 64, 64
1, 231770, Note_on_c, 0, 78, 79
1, 231778, Note_on_c, 0, 69, 61
1, 231779, Control_c, 0, 64, 33
1, 231784, Note_on_c, 0, 57, 36
1, 231787, Note_on_c, 0, 66, 35
1, 231794, Control_c, 0, 64, 0
1, 231815, Note_off_c, 0, 80, 62
1, 231839, Note_off_c, 0, 56, 31
1, 231898, Control_c, 0, 64, 47
1, 231912, Control_c, 0, 64, 64
1, 231927, Control_c, 0, 64, 68
1, 231942, Control_c, 0, 64, 72
1, 231957, Control_c, 0, 64, 78
1, 231972, Control_c, 0, 64, 86
1, 231984, Note_off_c, 0, 69, 65
1, 231986, Control_c, 0, 64, 90
1, 231996, Note_on_c, 0, 81, 74
1, 232001, Control_c, 0, 64, 92
1, 232016, Control_c, 0, 64, 93
1, 232046, Control_c, 0, 64, 94
1, 232053, Note_off_c, 0, 78, 59
1, 232060, Control_c, 0, 64, 95
1, 232075, Control_c, 0, 64, 97
1, 232119, Control_c, 0, 64, 97
1, 232246, Control_c, 0, 64, 97
1, 232260, Control_c, 0, 64, 96
1, 232275, Control_c, 0, 64, 94
1, 232290, Control_c, 0, 64, 90
1, 232305, Control_c, 0, 64, 84
1, 232306, Note_on_c, 0, 76, 57
1, 232319, Control_c, 0, 64, 79
1, 232328, Note_on_c, 0, 68, 46
1, 232334, Control_c, 0, 64, 74
1, 232337, Note_on_c, 0, 59, 34
1, 232341, Note_off_c, 0, 66, 41
1, 232349, Control_c, 0, 64, 68
1, 232364, Control_c, 0, 64, 63
1, 232379, Control_c, 0, 64, 53
1, 232394, Control_c, 0, 64, 32
1, 232396, Note_off_c, 0, 81, 52
1, 232406, Note_off_c, 0, 57, 39
1, 232409, Control_c, 0, 64, 0
1, 232587, Control_c, 0, 64, 50
1, 232602, Control_c, 0, 64, 61
1, 232617, Control_c, 0, 64, 65
1, 232632, Control_c, 0, 64, 69
1, 232647, Control_c, 0, 64, 75
1, 232662, Control_c, 0, 64, 81
1, 232677, Control_c, 0, 64, 84
1, 232691, Control_c, 0, 64, 86
1, 232706, Control_c, 0, 64, 87
1, 232721, Control_c, 0, 64, 89
1, 232735, Control_c, 0, 64, 91
1, 232750, Control_c, 0, 64, 91
1, 232765, Control_c, 0, 64, 92
1, 232919, Note_off_c, 0, 76, 60
1, 232980, Note_on_c, 0, 78, 45
1, 233034, Note_off_c, 0, 78, 50
1, 233060, Note_on_c, 0, 76, 46
1, 233083, Control_c, 0, 64, 91
1, 233089, Note_off_c, 0, 76, 59
1, 233098, Control_c, 0, 64, 90
1, 233113, Control_c, 0, 64, 89
1, 233127, Note_on_c, 0, 75, 48
1, 233128, Control_c, 0, 64, 88
1, 233142, Control_c, 0, 64, 86
1, 233157, Control_c, 0, 64, 82
1, 233172, Control_c, 0, 64, 79
1, 233187, Control_c, 0, 64, 75
1, 233202, Note_off_c, 0, 68, 41
1, 233202, Control_c, 0, 64, 72
1, 233208, Note_on_c, 0, 76, 45
1, 233213, Note_off_c, 0, 75, 54
1, 233218, Control_c, 0, 64, 68
1, 233233, Control_c, 0, 64, 65
1, 233248, Control_c, 0, 64, 63
1, 233263, Control_c, 0, 64, 61
1, 233278, Control_c, 0, 64, 58
1, 233293, Control_c, 0, 64, 54
1, 233307, Control_c, 0, 64, 48
1, 233322, Control_c, 0, 64, 40
1, 233337, Control_c, 0, 64, 29
1, 233352, Control_c, 0, 64, 0
1, 233372, Note_on_c, 0, 80, 46
1, 233410, Note_on_c, 0, 69, 20
1, 233410, Note_off_c, 0, 76, 34
1, 233544, Control_c, 0, 64, 45
1, 233559, Control_c, 0, 64, 58
1, 233574, Control_c, 0, 64, 63
1, 233589, Control_c, 0, 64, 67
1, 233604, Control_c, 0, 64, 70
1, 233619, Control_c, 0, 64, 72
1, 233633, Control_c, 0, 64, 74
1, 233648, Control_c, 0, 64, 75
1, 233665, Note_on_c, 0, 78, 43
1, 233678, Control_c, 0, 64, 76
1, 233833, Control_c, 0, 64, 75
1, 233848, Control_c, 0, 64, 74
1, 233863, Control_c, 0, 64, 73
1, 233872, Note_off_c, 0, 69, 36
1, 233878, Control_c, 0, 64, 72
1, 233892, Control_c, 0, 64, 71
1, 233896, Note_on_c, 0, 76, 40
1, 233907, Control_c, 0, 64, 70
1, 233922, Control_c, 0, 64, 68
1, 233937, Control_c, 0, 64, 66
1, 233952, Control_c, 0, 64, 63
1, 233956, Note_off_c, 0, 80, 34
1, 233961, Note_on_c, 0, 68, 4
1, 233966, Control_c, 0, 64, 61
1, 233979, Poly_aftertouch_c, 0, 64, 127
1, 233981, Note_off_c, 0, 78, 36
1, 233981, Control_c, 0, 64, 58
1, 233996, Control_c, 0, 64, 53
1, 234007, Note_off_c, 0, 76, 53
1, 234012, Control_c, 0, 64, 46
1, 234027, Control_c, 0, 64, 25
1, 234042, Control_c, 0, 64, 0
1, 234057, Note_on_c, 0, 71, 47
1, 234086, Note_off_c, 0, 71, 59
1, 234149, Note_on_c, 0, 73, 59
1, 234185, Note_off_c, 0, 73, 58
1, 234258, Note_on_c, 0, 75, 56
1, 234295, Note_off_c, 0, 75, 65
1, 234369, Note_on_c, 0, 76, 55
1, 234402, Note_off_c, 0, 76, 63
1, 234475, Note_on_c, 0, 78, 58
1, 234510, Note_off_c, 0, 78, 59
1, 234587, Note_on_c, 0, 80, 59
1, 234620, Note_off_c, 0, 80, 65
1, 234672, Note_off_c, 0, 59, 18
1, 234698, Note_on_c, 0, 81, 60
1, 234731, Note_off_c, 0, 81, 60
1, 234789, Note_on_c, 0, 82, 63
1, 234811, Note_off_c, 0, 68, 43
1, 234825, Note_off_c, 0, 82, 60
1, 234910, Note_on_c, 0, 83, 59
1, 234914, Poly_aftertouch_c, 0, 64, 0
1, 235014, Note_on_c, 0, 85, 64
1, 235023, Note_off_c, 0, 83, 57
1, 235127, Note_on_c, 0, 82, 69
1, 235134, Note_off_c, 0, 85, 58
1, 235239, Note_on_c, 0, 83, 72
1, 235261, Note_off_c, 0, 82, 56
1, 235345, Note_on_c, 0, 85, 74
1, 235392, Note_off_c, 0, 83, 54
1, 235455, Note_on_c, 0, 82, 74
1, 235487, Note_off_c, 0, 85, 63
1, 235570, Note_on_c, 0, 83, 77
1, 235610, Note_off_c, 0, 82, 59
1, 235681, Note_on_c, 0, 85, 84
1, 235774, Note_off_c, 0, 83, 51
1, 235783, Note_on_c, 0, 82, 85
1, 235867, Note_off_c, 0, 85, 57
1, 235927, Note_on_c, 0, 83, 73
1, 235935, Note_on_c, 0, 64, 38
1, 235940, Note_on_c, 0, 68, 44
1, 235942, Note_on_c, 0, 59, 39
1, 235980, Note_off_c, 0, 82, 62
1, 236075, Note_on_c, 0, 88, 72
1, 236084, Note_off_c, 0, 83, 55
1, 236141, Note_off_c, 0, 88, 59
1, 236198, Note_on_c, 0, 87, 74
1, 236254, Note_off_c, 0, 87, 56
1, 236311, Note_on_c, 0, 85, 67
1, 236349, Note_off_c, 0, 85, 59
1, 236416, Note_on_c, 0, 83, 64
1, 236451, Note_off_c, 0, 83, 59
1, 236526, Note_on_c, 0, 81, 64
1, 236556, Note_off_c, 0, 81, 63
1, 236629, Note_on_c, 0, 80, 64
1, 236681, Note_off_c, 0, 80, 60
1, 236745, Note_on_c, 0, 78, 60
1, 236768, Note_off_c, 0, 68, 56
1, 236787, Note_off_c, 0, 78, 59
1, 236852, Note_on_c, 0, 76, 55
1, 236892, Note_off_c, 0, 76, 54
1, 236973, Note_on_c, 0, 75, 49
1, 236975, Note_on_c, 0, 66, 43
1, 236984, Note_on_c, 0, 69, 31
1, 237097, Note_on_c, 0, 73, 54
1, 237154, Note_off_c, 0, 75, 55
1, 237173, Note_off_c, 0, 64, 35
1, 237211, Note_off_c, 0, 73, 61
1, 237213, Note_on_c, 0, 71, 57
1, 237322, Note_off_c, 0, 71, 57
1, 237332, Note_on_c, 0, 70, 56
1, 237432, Note_off_c, 0, 70, 63
1, 237453, Note_on_c, 0, 71, 56
1, 237566, Note_on_c, 0, 72, 50
1, 237567, Note_off_c, 0, 71, 55
1, 237622, Control_c, 0, 64, 20
1, 237637, Control_c, 0, 64, 38
1, 237651, Control_c, 0, 64, 39
1, 237666, Control_c, 0, 64, 42
1, 237668, Note_on_c, 0, 73, 54
1, 237681, Control_c, 0, 64, 45
1, 237693, Note_off_c, 0, 72, 49
1, 237696, Control_c, 0, 64, 48
1, 237709, Note_off_c, 0, 69, 46
1, 237711, Control_c, 0, 64, 50
1, 237725, Control_c, 0, 64, 51
1, 237753, Note_off_c, 0, 73, 62
1, 237755, Control_c, 0, 64, 51
1, 237770, Control_c, 0, 64, 50
1, 237780, Note_on_c, 0, 74, 53
1, 237785, Control_c, 0, 64, 49
1, 237799, Control_c, 0, 64, 46
1, 237814, Control_c, 0, 64, 43
1, 237829, Control_c, 0, 64, 41
1, 237844, Control_c, 0, 64, 38
1, 237858, Control_c, 0, 64, 33
1, 237873, Control_c, 0, 64, 19
1, 237888, Control_c, 0, 64, 0
1, 237905, Note_on_c, 0, 75, 43
1, 237905, Note_off_c, 0, 74, 50
1, 238046, Note_on_c, 0, 76, 45
1, 238050, Note_on_c, 0, 64, 25
1, 238053, Note_off_c, 0, 75, 59
1, 238056, Note_on_c, 0, 68, 26
1, 238102, Note_off_c, 0, 76, 57
1, 238133, Note_off_c, 0, 66, 46
1, 238168, Note_on_c, 0, 71, 53
1, 238218, Note_off_c, 0, 71, 57
1, 238285, Note_on_c, 0, 73, 59
1, 238320, Note_off_c, 0, 73, 60
1, 238395, Note_on_c, 0, 75, 58
1, 238432, Note_off_c, 0, 75, 63
1, 238501, Note_on_c, 0, 76, 64
1, 238545, Note_off_c, 0, 76, 54
1, 238606, Note_on_c, 0, 78, 69
1, 238641, Note_off_c, 0, 78, 58
1, 238716, Note_on_c, 0, 80, 69
1, 238755, Note_off_c, 0, 80, 61
1, 238805, Note_off_c, 0, 59, 34
1, 238820, Note_on_c, 0, 81, 71
1, 238859, Note_off_c, 0, 81, 58
1, 238898, Note_off_c, 0, 68, 42
1, 238925, Note_on_c, 0, 82, 73
1, 238947, Note_off_c, 0, 64, 38
1, 238966, Note_off_c, 0, 82, 59
1, 239042, Note_on_c, 0, 83, 72
1, 239155, Note_on_c, 0, 85, 78
1, 239177, Note_off_c, 0, 83, 57
1, 239265, Note_on_c, 0, 82, 79
1, 239308, Note_off_c, 0, 85, 62
1, 239379, Note_on_c, 0, 83, 78
1, 239408, Note_off_c, 0, 82, 62
1, 239500, Note_on_c, 0, 85, 80
1, 239552, Note_off_c, 0, 83, 54
1, 239622, Note_on_c, 0, 82, 77
1, 239671, Note_off_c, 0, 85, 63
1, 239753, Note_on_c, 0, 83, 75
1, 239804, Note_off_c, 0, 82, 59
1, 239869, Note_on_c, 0, 85, 74
1, 239941, Note_off_c, 0, 83, 52
1, 239993, Note_on_c, 0, 82, 68
1, 240057, Note_off_c, 0, 85, 58
1, 240129, Note_on_c, 0, 59, 24
1, 240138, Note_on_c, 0, 68, 31
1, 240141, Note_on_c, 0, 64, 33
1, 240163, Note_on_c, 0, 83, 50
1, 240215, Note_off_c, 0, 82, 54
1, 240309, Note_off_c, 0, 83, 51
1, 240320, Note_on_c, 0, 88, 59
1, 240405, Note_off_c, 0, 88, 55
1, 240454, Note_on_c, 0, 87, 61
1, 240489, Note_off_c, 0, 87, 60
1, 240568, Note_on_c, 0, 85, 57
1, 240603, Note_off_c, 0, 85, 63
1, 240679, Note_on_c, 0, 83, 53
1, 240717, Note_off_c, 0, 83, 62
1, 240794, Note_on_c, 0, 81, 58
1, 240821, Note_off_c, 0, 81, 62
1, 240900, Note_on_c, 0, 80, 59
1, 240938, Note_off_c, 0, 80, 63
1, 241007, Note_on_c, 0, 78, 62
1, 241057, Note_off_c, 0, 78, 61
1, 241065, Note_off_c, 0, 68, 49
1, 241127, Note_on_c, 0, 76, 58
1, 241208, Note_on_c, 0, 66, 38
1, 241218, Note_on_c, 0, 69, 33
1, 241237, Note_off_c, 0, 76, 60
1, 241248, Note_on_c, 0, 75, 60
1, 241368, Note_on_c, 0, 73, 59
1, 241429, Note_off_c, 0, 75, 48
1, 241436, Note_off_c, 0, 64, 42
1, 241482, Note_on_c, 0, 71, 64
1, 241482, Note_off_c, 0, 73, 62
1, 241600, Note_on_c, 0, 70, 59
1, 241605, Note_off_c, 0, 71, 58
1, 241702, Note_off_c, 0, 70, 64
1, 241718, Note_on_c, 0, 71, 61
1, 241809, Control_c, 0, 64, 32
1, 241823, Control_c, 0, 64, 57
1, 241824, Note_off_c, 0, 71, 54
1, 241831, Note_on_c, 0, 72, 48
1, 241838, Control_c, 0, 64, 62
1, 241868, Control_c, 0, 64, 61
1, 241883, Control_c, 0, 64, 61
1, 241896, Note_off_c, 0, 69, 48
1, 241935, Control_c, 0, 64, 58
1, 241950, Control_c, 0, 64, 35
1, 241959, Note_on_c, 0, 73, 58
1, 241965, Control_c, 0, 64, 0
1, 241974, Note_off_c, 0, 72, 55
1, 242040, Note_off_c, 0, 73, 63
1, 242065, Note_on_c, 0, 74, 56
1, 242069, Control_c, 0, 64, 46
1, 242084, Control_c, 0, 64, 58
1, 242099, Control_c, 0, 64, 59
1, 242114, Control_c, 0, 64, 59
1, 242128, Control_c, 0, 64, 57
1, 242143, Control_c, 0, 64, 56
1, 242158, Control_c, 0, 64, 55
1, 242174, Note_off_c, 0, 74, 53
1, 242182, Note_on_c, 0, 75, 51
1, 242188, Control_c, 0, 64, 54
1, 242202, Control_c, 0, 64, 51
1, 242217, Control_c, 0, 64, 46
1, 242232, Note_off_c, 0, 75, 56
1, 242232, Control_c, 0, 64, 39
1, 242246, Control_c, 0, 64, 14
1, 242261, Control_c, 0, 64, 0
1, 242336, Note_off_c, 0, 59, 39
1, 242338, Note_on_c, 0, 76, 47
1, 242340, Note_off_c, 0, 66, 43
1, 242342, Note_on_c, 0, 68, 31
1, 242350, Note_on_c, 0, 64, 22
1, 242424, Control_c, 0, 64, 48
1, 242439, Control_c, 0, 64, 61
1, 242454, Control_c, 0, 64, 62
1, 242469, Control_c, 0, 64, 63
1, 242484, Control_c, 0, 64, 65
1, 242499, Control_c, 0, 64, 67
1, 242513, Control_c, 0, 64, 68
1, 242528, Control_c, 0, 64, 69
1, 242550, Note_off_c, 0, 68, 43
1, 242558, Note_off_c, 0, 64, 44
1, 242600, Note_off_c, 0, 76, 64
1, 242632, Control_c, 0, 64, 69
1, 242646, Control_c, 0, 64, 68
1, 242657, Note_on_c, 0, 71, 35
1, 242669, Control_c, 0, 64, 68
1, 242684, Control_c, 0, 64, 66
1, 242698, Control_c, 0, 64, 63
1, 242713, Control_c, 0, 64, 59
1, 242718, Note_off_c, 0, 71, 42
1, 242728, Control_c, 0, 64, 48
1, 242743, Control_c, 0, 64, 34
1, 242754, Note_on_c, 0, 68, 36
1, 242755, Note_on_c, 0, 80, 53
1, 242755, Note_on_c, 0, 64, 26
1, 242758, Control_c, 0, 64, 0
1, 242833, Control_c, 0, 64, 38
1, 242848, Control_c, 0, 64, 51
1, 242862, Control_c, 0, 64, 59
1, 242877, Control_c, 0, 64, 63
1, 242892, Control_c, 0, 64, 64
1, 242937, Control_c, 0, 64, 65
1, 242951, Control_c, 0, 64, 65
1, 242964, Note_off_c, 0, 64, 43
1, 242966, Control_c, 0, 64, 66
1, 242967, Note_off_c, 0, 68, 44
1, 243053, Note_off_c, 0, 80, 61
1, 243055, Control_c, 0, 64, 65
1, 243066, Note_on_c, 0, 71, 34
1, 243069, Control_c, 0, 64, 65
1, 243084, Control_c, 0, 64, 64
1, 243099, Control_c, 0, 64, 62
1, 243104, Note_off_c, 0, 71, 52
1, 243114, Control_c, 0, 64, 58
1, 243129, Control_c, 0, 64, 52
1, 243143, Control_c, 0, 64, 40
1, 243158, Control_c, 0, 64, 0
1, 243164, Note_on_c, 0, 83, 52
1, 243166, Note_on_c, 0, 68, 31
1, 243178, Note_on_c, 0, 64, 30
1, 243247, Control_c, 0, 64, 40
1, 243262, Control_c, 0, 64, 56
1, 243277, Control_c, 0, 64, 62
1, 243292, Control_c, 0, 64, 64
1, 243372, Note_off_c, 0, 68, 45
1, 243381, Control_c, 0, 64, 64
1, 243382, Note_off_c, 0, 64, 46
1, 243466, Note_on_c, 0, 71, 44
1, 243477, Control_c, 0, 64, 64
1, 243491, Control_c, 0, 64, 63
1, 243506, Control_c, 0, 64, 63
1, 243508, Note_off_c, 0, 71, 48
1, 243521, Control_c, 0, 64, 62
1, 243536, Control_c, 0, 64, 62
1, 243550, Note_off_c, 0, 83, 20
1, 243551, Control_c, 0, 64, 60
1, 243566, Control_c, 0, 64, 58
1, 243581, Control_c, 0, 64, 54
1, 243596, Control_c, 0, 64, 49
1, 243609, Note_on_c, 0, 76, 40
1, 243611, Control_c, 0, 64, 41
1, 243623, Note_on_c, 0, 68, 30
1, 243626, Control_c, 0, 64, 25
1, 243637, Note_on_c, 0, 64, 21
1, 243640, Control_c, 0, 64, 0
1, 243775, Control_c, 0, 64, 49
1, 243790, Control_c, 0, 64, 60
1, 243804, Control_c, 0, 64, 63
1, 243819, Control_c, 0, 64, 64
1, 243822, Note_off_c, 0, 76, 49
1, 243834, Control_c, 0, 64, 65
1, 243849, Control_c, 0, 64, 66
1, 243864, Control_c, 0, 64, 67
1, 243893, Control_c, 0, 64, 67
1, 244026, Control_c, 0, 64, 67
1, 244071, Control_c, 0, 64, 66
1, 244085, Control_c, 0, 64, 65
1, 244100, Control_c, 0, 64, 65
1, 244115, Control_c, 0, 64, 64
1, 244122, Note_off_c, 0, 64, 38
1, 244128, Note_off_c, 0, 68, 46
1, 244130, Control_c, 0, 64, 63
1, 244145, Control_c, 0, 64, 62
1, 244160, Control_c, 0, 64, 61
1, 244182, Control_c, 0, 64, 61
1, 244197, Control_c, 0, 64, 59
1, 244212, Control_c, 0, 64, 58
1, 244226, Control_c, 0, 64, 55
1, 244241, Control_c, 0, 64, 53
1, 244256, Control_c, 0, 64, 50
1, 244271, Control_c, 0, 64, 50
1, 244286, Control_c, 0, 64, 48
1, 244300, Control_c, 0, 64, 45
1, 244315, Control_c, 0, 64, 42
1, 244330, Control_c, 0, 64, 36
1, 244345, Control_c, 0, 64, 27
1, 244360, Control_c, 0, 64, 14
1, 244374, Control_c, 0, 64, 0
1, 244491, Note_on_c, 0, 76, 45
1, 244505, Note_on_c, 0, 73, 36
1, 244642, Note_off_c, 0, 73, 52
1, 244790, Note_off_c, 0, 76, 42
1, 244857, Note_on_c, 0, 73, 50
1, 244857, Note_on_c, 0, 75, 32
1, 244889, Note_on_c, 0, 76, 57
1, 244895, Note_off_c, 0, 75, 55
1, 244928, Note_off_c, 0, 76, 67
1, 244947, Note_on_c, 0, 78, 59
1, 245008, Note_on_c, 0, 76, 61
1, 245108, Note_off_c, 0, 78, 35
1, 245212, Control_c, 0, 64, 23
1, 245227, Control_c, 0, 64, 51
1, 245242, Control_c, 0, 64, 58
1, 245257, Control_c, 0, 64, 61
1, 245271, Control_c, 0, 64, 62
1, 245286, Control_c, 0, 64, 64
1, 245301, Control_c, 0, 64, 66
1, 245316, Control_c, 0, 64, 68
1, 245331, Control_c, 0, 64, 69
1, 245346, Control_c, 0, 64, 70
1, 245360, Control_c, 0, 64, 71
1, 245423, Note_off_c, 0, 73, 59
1, 245509, Control_c, 0, 64, 70
1, 245524, Control_c, 0, 64, 70
1, 245538, Control_c, 0, 64, 69
1, 245553, Control_c, 0, 64, 68
1, 245566, Note_on_c, 0, 74, 48
1, 245571, Note_on_c, 0, 71, 49
1, 245573, Note_off_c, 0, 76, 46
1, 245582, Control_c, 0, 64, 68
1, 245597, Control_c, 0, 64, 67
1, 245600, Note_off_c, 0, 74, 68
1, 245612, Control_c, 0, 64, 66
1, 245627, Control_c, 0, 64, 65
1, 245679, Control_c, 0, 64, 65
1, 245694, Control_c, 0, 64, 64
1, 245709, Control_c, 0, 64, 63
1, 245724, Control_c, 0, 64, 61
1, 245738, Control_c, 0, 64, 59
1, 245753, Control_c, 0, 64, 55
1, 245768, Control_c, 0, 64, 48
1, 245773, Note_on_c, 0, 73, 53
1, 245774, Note_on_c, 0, 67, 45
1, 245776, Note_on_c, 0, 70, 51
1, 245783, Control_c, 0, 64, 34
1, 245796, Note_on_c, 0, 64, 31
1, 245797, Control_c, 0, 64, 0
1, 245818, Note_off_c, 0, 71, 34
1, 245894, Note_off_c, 0, 67, 59
1, 245918, Note_off_c, 0, 64, 43
1, 246016, Note_off_c, 0, 70, 52
1, 246031, Note_off_c, 0, 73, 36
1, 246169, Note_on_c, 0, 70, 50
1, 246174, Note_on_c, 0, 73, 55
1, 246181, Note_on_c, 0, 67, 47
1, 246201, Note_on_c, 0, 64, 39
1, 246258, Control_c, 0, 64, 24
1, 246273, Control_c, 0, 64, 43
1, 246287, Control_c, 0, 64, 49
1, 246302, Control_c, 0, 64, 53
1, 246317, Control_c, 0, 64, 57
1, 246332, Control_c, 0, 64, 62
1, 246347, Control_c, 0, 64, 67
1, 246361, Control_c, 0, 64, 71
1, 246376, Control_c, 0, 64, 73
1, 246391, Control_c, 0, 64, 74
1, 246413, Control_c, 0, 64, 74
1, 246551, Note_off_c, 0, 70, 53
1, 246583, Note_off_c, 0, 73, 36
1, 246710, Control_c, 0, 64, 74
1, 246725, Control_c, 0, 64, 73
1, 246740, Control_c, 0, 64, 73
1, 246755, Control_c, 0, 64, 72
1, 246785, Note_on_c, 0, 66, 57
1, 246799, Note_off_c, 0, 64, 60
1, 246800, Control_c, 0, 64, 71
1, 246806, Note_on_c, 0, 62, 46
1, 246815, Note_off_c, 0, 67, 38
1, 246815, Control_c, 0, 64, 71
1, 246830, Control_c, 0, 64, 70
1, 246844, Control_c, 0, 64, 70
1, 246859, Control_c, 0, 64, 69
1, 246871, Note_off_c, 0, 66, 63
1, 246874, Control_c, 0, 64, 67
1, 246889, Control_c, 0, 64, 64
1, 246904, Control_c, 0, 64, 61
1, 246918, Control_c, 0, 64, 53
1, 246933, Control_c, 0, 64, 0
1, 246991, Note_on_c, 0, 79, 71
1, 246997, Note_on_c, 0, 76, 61
1, 247006, Note_on_c, 0, 64, 42
1, 247018, Note_on_c, 0, 61, 39
1, 247030, Note_off_c, 0, 62, 32
1, 247066, Control_c, 0, 64, 42
1, 247081, Control_c, 0, 64, 58
1, 247096, Control_c, 0, 64, 63
1, 247110, Control_c, 0, 64, 64
1, 247125, Control_c, 0, 64, 66
1, 247140, Control_c, 0, 64, 67
1, 247142, Note_off_c, 0, 76, 65
1, 247163, Control_c, 0, 64, 67
1, 247170, Note_off_c, 0, 79, 63
1, 247171, Note_off_c, 0, 64, 53
1, 247185, Note_off_c, 0, 61, 57
1, 247236, Control_c, 0, 64, 67
1, 247251, Control_c, 0, 64, 66
1, 247266, Control_c, 0, 64, 66
1, 247281, Control_c, 0, 64, 65
1, 247296, Control_c, 0, 64, 64
1, 247310, Control_c, 0, 64, 62
1, 247325, Control_c, 0, 64, 60
1, 247340, Control_c, 0, 64, 58
1, 247355, Control_c, 0, 64, 54
1, 247370, Control_c, 0, 64, 50
1, 247373, Note_on_c, 0, 61, 39
1, 247382, Note_on_c, 0, 78, 65
1, 247383, Note_on_c, 0, 64, 41
1, 247384, Control_c, 0, 64, 42
1, 247396, Note_on_c, 0, 76, 52
1, 247399, Control_c, 0, 64, 20
1, 247414, Control_c, 0, 64, 0
1, 247429, Note_on_c, 0, 79, 63
1, 247457, Note_off_c, 0, 78, 63
1, 247482, Note_off_c, 0, 79, 63
1, 247489, Note_on_c, 0, 81, 74
1, 247536, Note_on_c, 0, 79, 76
1, 247662, Note_off_c, 0, 81, 40
1, 247727, Control_c, 0, 64, 38
1, 247741, Control_c, 0, 64, 54
1, 247756, Control_c, 0, 64, 59
1, 247771, Control_c, 0, 64, 62
1, 247785, Control_c, 0, 64, 64
1, 247787, Note_off_c, 0, 76, 65
1, 247792, Note_off_c, 0, 61, 37
1, 247800, Control_c, 0, 64, 67
1, 247815, Control_c, 0, 64, 69
1, 247830, Control_c, 0, 64, 71
1, 247845, Control_c, 0, 64, 74
1, 247859, Control_c, 0, 64, 75
1, 247874, Control_c, 0, 64, 76
1, 248059, Control_c, 0, 64, 75
1, 248068, Note_on_c, 0, 78, 64
1, 248074, Control_c, 0, 64, 74
1, 248076, Note_on_c, 0, 74, 48
1, 248083, Note_off_c, 0, 79, 55
1, 248089, Control_c, 0, 64, 72
1, 248104, Control_c, 0, 64, 71
1, 248119, Control_c, 0, 64, 70
1, 248129, Note_off_c, 0, 78, 64
1, 248133, Control_c, 0, 64, 68
1, 248148, Control_c, 0, 64, 68
1, 248163, Control_c, 0, 64, 67
1, 248178, Control_c, 0, 64, 67
1, 248192, Control_c, 0, 64, 65
1, 248207, Control_c, 0, 64, 63
1, 248222, Control_c, 0, 64, 56
1, 248228, Note_off_c, 0, 64, 11
1, 248237, Control_c, 0, 64, 33
1, 248249, Note_off_c, 0, 74, 63
1, 248252, Control_c, 0, 64, 0
1, 248254, Note_on_c, 0, 73, 60
1, 248255, Note_on_c, 0, 76, 69
1, 248271, Note_on_c, 0, 58, 49
1, 248273, Note_on_c, 0, 54, 43
1, 248341, Control_c, 0, 64, 40
1, 248356, Control_c, 0, 64, 56
1, 248371, Control_c, 0, 64, 62
1, 248386, Control_c, 0, 64, 64
1, 248401, Control_c, 0, 64, 65
1, 248416, Control_c, 0, 64, 66
1, 248431, Control_c, 0, 64, 66
1, 248437, Note_off_c, 0, 58, 56
1, 248440, Note_off_c, 0, 54, 57
1, 248446, Control_c, 0, 64, 67
1, 248449, Note_off_c, 0, 73, 57
1, 248452, Note_off_c, 0, 76, 62
1, 248564, Control_c, 0, 64, 66
1, 248579, Control_c, 0, 64, 66
1, 248594, Control_c, 0, 64, 65
1, 248608, Control_c, 0, 64, 64
1, 248623, Control_c, 0, 64, 63
1, 248638, Control_c, 0, 64, 61
1, 248653, Note_on_c, 0, 58, 56
1, 248653, Control_c, 0, 64, 59
1, 248666, Note_on_c, 0, 76, 69
1, 248670, Note_on_c, 0, 54, 52
1, 248675, Control_c, 0, 64, 56
1, 248677, Note_on_c, 0, 73, 58
1, 248690, Control_c, 0, 64, 53
1, 248705, Control_c, 0, 64, 46
1, 248720, Control_c, 0, 64, 34
1, 248735, Control_c, 0, 64, 0
1, 248868, Control_c, 0, 64, 43
1, 248882, Control_c, 0, 64, 53
1, 248897, Control_c, 0, 64, 58
1, 248912, Control_c, 0, 64, 62
1, 248927, Control_c, 0, 64, 64
1, 248942, Control_c, 0, 64, 66
1, 248955, Control_c, 0, 64, 67
1, 248970, Control_c, 0, 64, 68
1, 249163, Control_c, 0, 64, 67
1, 249194, Control_c, 0, 64, 67
1, 249224, Control_c, 0, 64, 66
1, 249233, Note_on_c, 0, 56, 63
1, 249237, Note_on_c, 0, 59, 64
1, 249238, Control_c, 0, 64, 66
1, 249253, Control_c, 0, 64, 65
1, 249267, Note_off_c, 0, 54, 60
1, 249268, Control_c, 0, 64, 64
1, 249273, Note_off_c, 0, 58, 61
1, 249283, Control_c, 0, 64, 63
1, 249296, Note_off_c, 0, 56, 64
1, 249298, Control_c, 0, 64, 62
1, 249312, Control_c, 0, 64, 59
1, 249327, Control_c, 0, 64, 52
1, 249342, Control_c, 0, 64, 12
1, 249357, Control_c, 0, 64, 0
1, 249411, Note_on_c, 0, 61, 77
1, 249428, Note_on_c, 0, 58, 67
1, 249431, Note_off_c, 0, 76, 58
1, 249438, Control_c, 0, 64, 26
1, 249448, Note_off_c, 0, 59, 61
1, 249453, Control_c, 0, 64, 58
1, 249456, Note_off_c, 0, 73, 48
1, 249468, Control_c, 0, 64, 64
1, 249483, Control_c, 0, 64, 64
1, 249498, Control_c, 0, 64, 64
1, 249512, Control_c, 0, 64, 63
1, 249527, Control_c, 0, 64, 61
1, 249542, Control_c, 0, 64, 59
1, 249556, Control_c, 0, 64, 57
1, 249571, Control_c, 0, 64, 55
1, 249586, Control_c, 0, 64, 52
1, 249601, Control_c, 0, 64, 46
1, 249616, Control_c, 0, 64, 33
1, 249630, Control_c, 0, 64, 0
1, 249820, Note_on_c, 0, 74, 71
1, 249820, Note_on_c, 0, 62, 47
1, 249832, Note_on_c, 0, 59, 30
1, 249856, Note_off_c, 0, 58, 35
1, 249914, Note_off_c, 0, 61, 56
1, 250187, Control_c, 0, 64, 31
1, 250201, Control_c, 0, 64, 47
1, 250216, Control_c, 0, 64, 52
1, 250218, Note_on_c, 0, 66, 70
1, 250231, Control_c, 0, 64, 54
1, 250246, Control_c, 0, 64, 57
1, 250261, Control_c, 0, 64, 60
1, 250276, Control_c, 0, 64, 61
1, 250291, Control_c, 0, 64, 63
1, 250306, Control_c, 0, 64, 64
1, 250321, Control_c, 0, 64, 64
1, 250365, Control_c, 0, 64, 65
1, 250484, Control_c, 0, 64, 64
1, 250528, Control_c, 0, 64, 64
1, 250543, Control_c, 0, 64, 63
1, 250558, Control_c, 0, 64, 62
1, 250573, Control_c, 0, 64, 59
1, 250587, Control_c, 0, 64, 51
1, 250602, Control_c, 0, 64, 0
1, 250610, Note_on_c, 0, 67, 74
1, 250619, Note_on_c, 0, 58, 48
1, 250645, Note_off_c, 0, 66, 65
1, 250706, Control_c, 0, 64, 47
1, 250721, Control_c, 0, 64, 57
1, 250735, Control_c, 0, 64, 60
1, 250750, Control_c, 0, 64, 61
1, 250754, Note_off_c, 0, 59, 41
1, 250765, Control_c, 0, 64, 61
1, 250806, Note_off_c, 0, 62, 51
1, 250855, Control_c, 0, 64, 61
1, 250870, Control_c, 0, 64, 60
1, 250952, Control_c, 0, 64, 60
1, 250966, Control_c, 0, 64, 59
1, 250981, Control_c, 0, 64, 59
1, 250996, Control_c, 0, 64, 58
1, 251010, Control_c, 0, 64, 57
1, 251025, Control_c, 0, 64, 56
1, 251033, Note_on_c, 0, 57, 34
1, 251040, Control_c, 0, 64, 53
1, 251045, Note_on_c, 0, 68, 72
1, 251051, Note_on_c, 0, 64, 33
1, 251053, Note_off_c, 0, 58, 35
1, 251055, Control_c, 0, 64, 50
1, 251070, Control_c, 0, 64, 47
1, 251084, Control_c, 0, 64, 42
1, 251099, Control_c, 0, 64, 36
1, 251114, Control_c, 0, 64, 25
1, 251129, Control_c, 0, 64, 0
1, 251187, Note_off_c, 0, 67, 36
1, 251431, Note_off_c, 0, 74, 63
1, 251436, Note_on_c, 0, 73, 64
1, 251444, Note_on_c, 0, 69, 48
1, 251543, Control_c, 0, 64, 32
1, 251558, Control_c, 0, 64, 44
1, 251574, Control_c, 0, 64, 49
1, 251589, Control_c, 0, 64, 51
1, 251595, Note_off_c, 0, 68, 62
1, 251604, Control_c, 0, 64, 52
1, 251619, Control_c, 0, 64, 53
1, 251633, Control_c, 0, 64, 53
1, 251671, Control_c, 0, 64, 53
1, 251701, Control_c, 0, 64, 52
1, 251715, Control_c, 0, 64, 52
1, 251730, Control_c, 0, 64, 51
1, 251745, Control_c, 0, 64, 50
1, 251760, Control_c, 0, 64, 49
1, 251775, Control_c, 0, 64, 48
1, 251789, Control_c, 0, 64, 46
1, 251804, Control_c, 0, 64, 45
1, 251819, Control_c, 0, 64, 43
1, 251833, Control_c, 0, 64, 40
1, 251848, Control_c, 0, 64, 36
1, 251863, Control_c, 0, 64, 33
1, 251866, Note_on_c, 0, 79, 52
1, 251878, Control_c, 0, 64, 28
1, 251893, Control_c, 0, 64, 22
1, 251894, Note_on_c, 0, 61, 31
1, 251907, Control_c, 0, 64, 12
1, 251922, Control_c, 0, 64, 0
1, 251963, Note_off_c, 0, 73, 59
1, 251970, Note_off_c, 0, 69, 40
1, 252074, Note_off_c, 0, 64, 38
1, 252152, Note_off_c, 0, 57, 30
1, 252326, Note_on_c, 0, 78, 37
1, 252375, Note_off_c, 0, 79, 32
1, 252376, Poly_aftertouch_c, 0, 62, 127
1, 252410, Note_off_c, 0, 61, 32
1, 252527, Note_on_c, 0, 74, 43
1, 252551, Note_off_c, 0, 78, 55
1, 252703, Note_on_c, 0, 81, 50
1, 252720, Note_off_c, 0, 74, 55
1, 252729, Poly_aftertouch_c, 0, 62, 0
1, 252745, Note_off_c, 0, 81, 59
1, 252903, Note_on_c, 0, 81, 44
1, 252944, Note_off_c, 0, 81, 47
1, 253084, Note_on_c, 0, 81, 45
1, 253108, Note_on_c, 0, 67, 28
1, 253111, Note_on_c, 0, 61, 32
1, 253131, Note_on_c, 0, 64, 19
1, 253140, Note_off_c, 0, 81, 53
1, 253271, Note_off_c, 0, 67, 42
1, 253278, Note_on_c, 0, 81, 57
1, 253325, Note_off_c, 0, 81, 55
1, 253478, Note_on_c, 0, 81, 59
1, 253486, Note_on_c, 0, 62, 30
1, 253495, Note_on_c, 0, 66, 28
1, 253526, Note_off_c, 0, 61, 31
1, 253566, Note_off_c, 0, 64, 23
1, 253683, Note_on_c, 0, 78, 50
1, 253749, Note_off_c, 0, 81, 60
1, 253844, Note_off_c, 0, 66, 43
1, 253868, Note_off_c, 0, 62, 41
1, 253871, Note_on_c, 0, 81, 61
1, 253906, Note_off_c, 0, 78, 61
1, 253925, Note_off_c, 0, 81, 54
1, 254052, Note_on_c, 0, 81, 58
1, 254100, Note_off_c, 0, 81, 54
1, 254229, Note_on_c, 0, 81, 52
1, 254245, Note_on_c, 0, 67, 33
1, 254250, Note_on_c, 0, 61, 32
1, 254254, Note_on_c, 0, 64, 32
1, 254282, Note_off_c, 0, 81, 52
1, 254353, Note_off_c, 0, 67, 50
1, 254413, Note_on_c, 0, 81, 52
1, 254446, Note_off_c, 0, 81, 61
1, 254620, Note_on_c, 0, 81, 55
1, 254625, Note_on_c, 0, 66, 32
1, 254648, Note_on_c, 0, 62, 25
1, 254702, Note_off_c, 0, 61, 29
1, 254751, Note_off_c, 0, 64, 34
1, 254819, Note_on_c, 0, 78, 62
1, 254860, Note_off_c, 0, 81, 60
1, 254869, Note_off_c, 0, 78, 55
1, 255005, Note_on_c, 0, 78, 60
1, 255184, Note_on_c, 0, 81, 71
1, 255246, Note_off_c, 0, 78, 64
1, 255254, Note_off_c, 0, 81, 60
1, 255308, Note_off_c, 0, 66, 37
1, 255346, Note_off_c, 0, 62, 32
1, 255367, Note_on_c, 0, 81, 73
1, 255546, Note_on_c, 0, 74, 71
1, 255585, Note_off_c, 0, 81, 61
1, 255602, Note_off_c, 0, 74, 65
1, 255719, Note_on_c, 0, 74, 60
1, 255905, Note_on_c, 0, 78, 61
1, 255932, Note_off_c, 0, 74, 62
1, 255972, Note_off_c, 0, 78, 64
1, 256098, Note_on_c, 0, 78, 55
1, 256285, Note_on_c, 0, 71, 53
1, 256304, Note_off_c, 0, 78, 60
1, 256343, Note_off_c, 0, 71, 61
1, 256479, Note_on_c, 0, 71, 46
1, 256670, Note_on_c, 0, 74, 44
1, 256692, Note_off_c, 0, 71, 51
1, 256816, Note_off_c, 0, 74, 53
1, 256874, Note_on_c, 0, 52, 37
1, 256884, Note_on_c, 0, 69, 44
1, 257072, Control_c, 0, 64, 36
1, 257086, Note_on_c, 0, 59, 45
1, 257087, Control_c, 0, 64, 52
1, 257102, Control_c, 0, 64, 57
1, 257117, Control_c, 0, 64, 59
1, 257132, Control_c, 0, 64, 61
1, 257147, Control_c, 0, 64, 62
1, 257162, Control_c, 0, 64, 62
1, 257177, Control_c, 0, 64, 63
1, 257258, Note_on_c, 0, 60, 53
1, 257277, Note_off_c, 0, 59, 63
1, 257455, Note_on_c, 0, 61, 67
1, 257490, Note_off_c, 0, 60, 62
1, 257549, Control_c, 0, 64, 62
1, 257645, Control_c, 0, 64, 62
1, 257647, Note_on_c, 0, 62, 69
1, 257648, Note_off_c, 0, 61, 62
1, 257704, Control_c, 0, 64, 61
1, 257719, Control_c, 0, 64, 61
1, 257734, Control_c, 0, 64, 60
1, 257749, Control_c, 0, 64, 59
1, 257764, Control_c, 0, 64, 59
1, 257778, Control_c, 0, 64, 58
1, 257793, Control_c, 0, 64, 58
1, 257808, Control_c, 0, 64, 57
1, 257823, Control_c, 0, 64, 57
1, 257833, Note_on_c, 0, 63, 70
1, 257838, Control_c, 0, 64, 55
1, 257852, Control_c, 0, 64, 54
1, 257867, Control_c, 0, 64, 52
1, 257880, Note_off_c, 0, 62, 58
1, 257882, Control_c, 0, 64, 50
1, 257896, Control_c, 0, 64, 48
1, 257911, Control_c, 0, 64, 46
1, 257926, Control_c, 0, 64, 42
1, 257941, Control_c, 0, 64, 28
1, 257956, Control_c, 0, 64, 0
1, 258039, Note_on_c, 0, 64, 56
1, 258088, Note_off_c, 0, 63, 50
1, 258242, Note_on_c, 0, 68, 73
1, 258273, Note_off_c, 0, 69, 41
1, 258436, Note_on_c, 0, 69, 70
1, 258467, Note_off_c, 0, 68, 64
1, 258472, Note_off_c, 0, 52, 42
1, 258512, Note_off_c, 0, 64, 36
1, 258618, Note_on_c, 0, 70, 79
1, 258670, Note_off_c, 0, 69, 58
1, 258806, Note_on_c, 0, 71, 70
1, 258838, Note_off_c, 0, 70, 65
1, 259004, Note_on_c, 0, 72, 54
1, 259053, Note_off_c, 0, 71, 47
1, 259155, Note_off_c, 0, 72, 38
1, 259254, Note_on_c, 0, 73, 48
1, 259260, Note_on_c, 0, 57, 29
1, 259278, Note_on_c, 0, 64, 22
1, 259445, Note_off_c, 0, 73, 60
1, 259476, Note_on_c, 0, 74, 38
1, 259511, Note_on_c, 0, 73, 55
1, 259519, Note_off_c, 0, 74, 63
1, 259550, Note_off_c, 0, 73, 61
1, 259567, Note_on_c, 0, 71, 54
1, 259618, Note_off_c, 0, 64, 47
1, 259622, Note_off_c, 0, 57, 56
1, 259628, Note_on_c, 0, 73, 56
1, 259651, Note_off_c, 0, 71, 58
1, 259806, Note_on_c, 0, 74, 56
1, 259820, Note_off_c, 0, 73, 54
1, 259872, Note_off_c, 0, 74, 57
1, 260047, Note_on_c, 0, 71, 41
1, 260056, Note_on_c, 0, 62, 27
1, 260056, Note_on_c, 0, 68, 40
1, 260059, Note_on_c, 0, 53, 33
1, 260223, Note_off_c, 0, 62, 43
1, 260286, Note_off_c, 0, 71, 35
1, 260292, Note_off_c, 0, 68, 46
1, 260323, Note_off_c, 0, 53, 42
1, 260552, Note_on_c, 0, 54, 30
1, 260554, Note_on_c, 0, 61, 32
1, 260554, Note_on_c, 0, 69, 40
1, 260603, Control_c, 0, 64, 27
1, 260618, Control_c, 0, 64, 37
1, 260641, Control_c, 0, 64, 39
1, 260665, Note_off_c, 0, 69, 62
1, 260670, Control_c, 0, 64, 39
1, 260685, Control_c, 0, 64, 38
1, 260714, Control_c, 0, 64, 38
1, 260729, Control_c, 0, 64, 35
1, 260744, Control_c, 0, 64, 31
1, 260759, Control_c, 0, 64, 26
1, 260774, Control_c, 0, 64, 18
1, 260788, Control_c, 0, 64, 0
1, 260900, Note_on_c, 0, 85, 59
1, 261008, Note_off_c, 0, 85, 60
1, 261098, Note_off_c, 0, 54, 34
1, 261108, Note_on_c, 0, 83, 71
1, 261136, Note_off_c, 0, 61, 35
1, 261217, Note_off_c, 0, 83, 55
1, 261298, Note_on_c, 0, 81, 80
1, 261369, Note_off_c, 0, 81, 57
1, 261471, Note_on_c, 0, 80, 82
1, 261549, Note_off_c, 0, 80, 63
1, 261642, Note_on_c, 0, 78, 89
1, 261695, Note_off_c, 0, 78, 62
1, 261817, Note_on_c, 0, 76, 68
1, 261820, Note_on_c, 0, 56, 57
1, 261826, Note_on_c, 0, 59, 52
1, 261927, Note_on_c, 0, 78, 75
1, 261943, Note_off_c, 0, 76, 53
1, 261967, Control_c, 0, 64, 36
1, 261982, Control_c, 0, 64, 41
1, 261994, Note_on_c, 0, 76, 63
1, 261997, Control_c, 0, 64, 43
1, 262062, Note_off_c, 0, 78, 61
1, 262071, Control_c, 0, 64, 41
1, 262077, Note_on_c, 0, 75, 79
1, 262086, Control_c, 0, 64, 37
1, 262101, Control_c, 0, 64, 33
1, 262116, Control_c, 0, 64, 26
1, 262116, Note_off_c, 0, 76, 67
1, 262138, Control_c, 0, 64, 17
1, 262153, Control_c, 0, 64, 0
1, 262172, Note_on_c, 0, 76, 81
1, 262198, Note_off_c, 0, 75, 65
1, 262236, Note_off_c, 0, 76, 54
1, 262275, Note_off_c, 0, 56, 62
1, 262361, Note_on_c, 0, 77, 80
1, 262441, Note_off_c, 0, 77, 53
1, 262547, Note_on_c, 0, 78, 70
1, 262559, Note_on_c, 0, 52, 46
1, 262560, Note_on_c, 0, 56, 44
1, 262612, Note_off_c, 0, 78, 65
1, 262641, Note_off_c, 0, 59, 59
1, 262716, Note_on_c, 0, 74, 65
1, 262739, Note_off_c, 0, 74, 70
1, 262969, Note_on_c, 0, 73, 47
1, 262988, Note_on_c, 0, 57, 28
1, 263009, Note_off_c, 0, 52, 36
1, 263020, Control_c, 0, 64, 47
1, 263028, Note_off_c, 0, 56, 34
1, 263035, Control_c, 0, 64, 54
1, 263050, Control_c, 0, 64, 55
1, 263064, Control_c, 0, 64, 57
1, 263079, Control_c, 0, 64, 60
1, 263094, Control_c, 0, 64, 62
1, 263183, Control_c, 0, 64, 62
1, 263198, Control_c, 0, 64, 62
1, 263213, Control_c, 0, 64, 61
1, 263228, Note_off_c, 0, 73, 59
1, 263243, Control_c, 0, 64, 61
1, 263257, Control_c, 0, 64, 60
1, 263272, Control_c, 0, 64, 59
1, 263284, Note_off_c, 0, 57, 40
1, 263287, Control_c, 0, 64, 56
1, 263302, Control_c, 0, 64, 52
1, 263316, Control_c, 0, 64, 47
1, 263331, Control_c, 0, 64, 36
1, 263346, Control_c, 0, 64, 0
1, 263761, Note_on_c, 0, 66, 37
1, 263782, Note_on_c, 0, 57, 17
1, 263789, Note_on_c, 0, 50, 20
1, 263934, Note_off_c, 0, 50, 53
1, 263941, Note_on_c, 0, 78, 46
1, 263942, Note_off_c, 0, 57, 49
1, 263964, Note_off_c, 0, 66, 57
1, 263966, Note_off_c, 0, 78, 60
1, 264188, Note_on_c, 0, 66, 45
1, 264201, Note_on_c, 0, 57, 13
1, 264215, Note_on_c, 0, 50, 23
1, 264419, Note_on_c, 0, 78, 39
1, 264426, Note_off_c, 0, 66, 59
1, 264456, Note_off_c, 0, 78, 52
1, 264464, Note_off_c, 0, 57, 44
1, 264497, Note_off_c, 0, 50, 39
1, 264918, Control_c, 0, 64, 28
1, 264933, Control_c, 0, 64, 58
1, 264948, Control_c, 0, 64, 62
1, 264962, Control_c, 0, 64, 64
1, 264977, Control_c, 0, 64, 68
1, 264992, Control_c, 0, 64, 74
1, 265007, Control_c, 0, 64, 82
1, 265012, Note_on_c, 0, 65, 86
1, 265018, Note_on_c, 0, 50, 41
1, 265020, Note_on_c, 0, 56, 37
1, 265022, Control_c, 0, 64, 86
1, 265095, Control_c, 0, 64, 86
1, 265110, Control_c, 0, 64, 87
1, 265148, Control_c, 0, 64, 86
1, 265163, Control_c, 0, 64, 82
1, 265178, Control_c, 0, 64, 74
1, 265192, Control_c, 0, 64, 65
1, 265207, Control_c, 0, 64, 49
1, 265219, Note_on_c, 0, 77, 87
1, 265222, Control_c, 0, 64, 0
1, 265267, Note_off_c, 0, 50, 39
1, 265268, Note_off_c, 0, 65, 63
1, 265278, Note_off_c, 0, 56, 37
1, 265279, Note_off_c, 0, 77, 64
1, 265458, Control_c, 0, 64, 24
1, 265473, Control_c, 0, 64, 37
1, 265488, Control_c, 0, 64, 47
1, 265503, Control_c, 0, 64, 55
1, 265505, Note_on_c, 0, 65, 77
1, 265517, Control_c, 0, 64, 62
1, 265523, Note_on_c, 0, 56, 34
1, 265532, Note_on_c, 0, 50, 38
1, 265532, Control_c, 0, 64, 64
1, 265547, Control_c, 0, 64, 65
1, 265562, Control_c, 0, 64, 67
1, 265577, Control_c, 0, 64, 70
1, 265592, Control_c, 0, 64, 78
1, 265607, Control_c, 0, 64, 85
1, 265622, Control_c, 0, 64, 89
1, 265636, Control_c, 0, 64, 91
1, 265651, Control_c, 0, 64, 93
1, 265696, Control_c, 0, 64, 94
1, 265733, Note_on_c, 0, 77, 76
1, 265783, Note_off_c, 0, 65, 59
1, 265808, Note_off_c, 0, 77, 61
1, 265828, Control_c, 0, 64, 92
1, 265842, Note_off_c, 0, 50, 37
1, 265843, Control_c, 0, 64, 91
1, 265858, Control_c, 0, 64, 87
1, 265861, Note_off_c, 0, 56, 35
1, 265881, Control_c, 0, 64, 83
1, 265896, Control_c, 0, 64, 79
1, 265910, Control_c, 0, 64, 76
1, 265925, Control_c, 0, 64, 72
1, 265940, Control_c, 0, 64, 67
1, 265955, Control_c, 0, 64, 63
1, 265970, Control_c, 0, 64, 53
1, 265985, Control_c, 0, 64, 39
1, 266000, Control_c, 0, 64, 0
1, 266266, Control_c, 0, 64, 24
1, 266280, Control_c, 0, 64, 40
1, 266295, Control_c, 0, 64, 50
1, 266310, Control_c, 0, 64, 55
1, 266325, Control_c, 0, 64, 57
1, 266340, Control_c, 0, 64, 60
1, 266355, Control_c, 0, 64, 63
1, 266370, Control_c, 0, 64, 64
1, 266385, Control_c, 0, 64, 64
1, 266400, Control_c, 0, 64, 65
1, 266414, Control_c, 0, 64, 65
1, 266429, Control_c, 0, 64, 66
1, 266444, Control_c, 0, 64, 67
1, 266458, Control_c, 0, 64, 68
1, 266473, Control_c, 0, 64, 68
1, 266488, Control_c, 0, 64, 69
1, 266503, Control_c, 0, 64, 69
1, 266532, Control_c, 0, 64, 70
1, 266547, Control_c, 0, 64, 71
1, 266562, Control_c, 0, 64, 71
1, 266577, Control_c, 0, 64, 72
1, 266586, Note_on_c, 0, 49, 26
1, 266587, Note_on_c, 0, 57, 25
1, 266605, Note_on_c, 0, 64, 40
1, 266621, Control_c, 0, 64, 72
1, 266658, Control_c, 0, 64, 73
1, 266801, Note_off_c, 0, 64, 42
1, 266820, Note_off_c, 0, 49, 39
1, 266830, Note_off_c, 0, 57, 40
1, 266832, Note_on_c, 0, 76, 52
1, 266881, Control_c, 0, 64, 72
1, 266911, Control_c, 0, 64, 72
1, 266913, Note_off_c, 0, 76, 56
1, 266926, Control_c, 0, 64, 71
1, 266955, Control_c, 0, 64, 70
1, 266970, Control_c, 0, 64, 69
1, 266985, Control_c, 0, 64, 68
1, 267000, Control_c, 0, 64, 67
1, 267015, Control_c, 0, 64, 67
1, 267029, Control_c, 0, 64, 66
1, 267044, Control_c, 0, 64, 64
1, 267059, Control_c, 0, 64, 63
1, 267073, Control_c, 0, 64, 60
1, 267088, Control_c, 0, 64, 57
1, 267103, Control_c, 0, 64, 54
1, 267108, Note_on_c, 0, 49, 30
1, 267108, Note_on_c, 0, 57, 26
1, 267108, Note_on_c, 0, 76, 43
1, 267118, Control_c, 0, 64, 48
1, 267133, Control_c, 0, 64, 35
1, 267148, Control_c, 0, 64, 0
1, 267162, Note_off_c, 0, 76, 51
1, 267324, Note_on_c, 0, 81, 55
1, 267421, Note_off_c, 0, 81, 49
1, 267517, Note_on_c, 0, 80, 61
1, 267578, Note_off_c, 0, 80, 60
1, 267699, Note_off_c, 0, 57, 41
1, 267712, Note_on_c, 0, 79, 59
1, 267747, Note_off_c, 0, 79, 60
1, 267925, Note_on_c, 0, 77, 45
1, 267938, Note_on_c, 0, 59, 29
1, 267940, Note_on_c, 0, 50, 23
1, 268021, Note_off_c, 0, 49, 34
1, 268031, Note_off_c, 0, 77, 60
1, 268038, Note_on_c, 0, 78, 54
1, 268134, Note_off_c, 0, 59, 49
1, 268148, Note_on_c, 0, 74, 47
1, 268167, Note_off_c, 0, 78, 50
1, 268220, Note_off_c, 0, 74, 64
1, 268260, Note_on_c, 0, 71, 39
1, 268419, Note_on_c, 0, 69, 50
1, 268433, Note_on_c, 0, 61, 31
1, 268439, Note_on_c, 0, 52, 39
1, 268449, Note_off_c, 0, 71, 33
1, 268563, Note_off_c, 0, 50, 21
1, 268632, Control_c, 0, 64, 33
1, 268646, Control_c, 0, 64, 52
1, 268661, Control_c, 0, 64, 59
1, 268676, Control_c, 0, 64, 62
1, 268691, Control_c, 0, 64, 63
1, 268706, Control_c, 0, 64, 65
1, 268720, Control_c, 0, 64, 66
1, 268735, Control_c, 0, 64, 67
1, 268750, Control_c, 0, 64, 68
1, 268780, Control_c, 0, 64, 68
1, 268794, Control_c, 0, 64, 69
1, 268809, Control_c, 0, 64, 70
1, 268824, Control_c, 0, 64, 72
1, 269030, Note_off_c, 0, 69, 45
1, 269068, Note_on_c, 0, 71, 41
1, 269113, Control_c, 0, 64, 71
1, 269115, Note_off_c, 0, 71, 56
1, 269127, Note_on_c, 0, 69, 51
1, 269127, Control_c, 0, 64, 71
1, 269158, Control_c, 0, 64, 70
1, 269166, Note_off_c, 0, 69, 66
1, 269173, Control_c, 0, 64, 69
1, 269180, Note_on_c, 0, 68, 55
1, 269184, Note_off_c, 0, 61, 40
1, 269188, Control_c, 0, 64, 69
1, 269203, Control_c, 0, 64, 68
1, 269218, Control_c, 0, 64, 67
1, 269224, Note_off_c, 0, 68, 64
1, 269232, Control_c, 0, 64, 66
1, 269247, Control_c, 0, 64, 65
1, 269253, Note_on_c, 0, 69, 53
1, 269262, Control_c, 0, 64, 64
1, 269276, Control_c, 0, 64, 64
1, 269291, Control_c, 0, 64, 63
1, 269306, Control_c, 0, 64, 62
1, 269321, Control_c, 0, 64, 59
1, 269336, Control_c, 0, 64, 57
1, 269351, Control_c, 0, 64, 53
1, 269357, Note_on_c, 0, 62, 37
1, 269366, Control_c, 0, 64, 49
1, 269375, Note_off_c, 0, 69, 48
1, 269378, Note_on_c, 0, 73, 51
1, 269381, Control_c, 0, 64, 45
1, 269395, Control_c, 0, 64, 40
1, 269410, Control_c, 0, 64, 20
1, 269425, Control_c, 0, 64, 0
1, 269573, Control_c, 0, 64, 36
1, 269588, Control_c, 0, 64, 48
1, 269603, Control_c, 0, 64, 53
1, 269625, Control_c, 0, 64, 55
1, 269640, Control_c, 0, 64, 55
1, 269656, Note_on_c, 0, 71, 42
1, 269684, Control_c, 0, 64, 55
1, 269714, Control_c, 0, 64, 54
1, 269729, Control_c, 0, 64, 54
1, 269744, Control_c, 0, 64, 53
1, 269758, Control_c, 0, 64, 53
1, 269764, Note_off_c, 0, 73, 30
1, 269788, Control_c, 0, 64, 52
1, 269802, Control_c, 0, 64, 51
1, 269817, Control_c, 0, 64, 48
1, 269832, Control_c, 0, 64, 46
1, 269847, Control_c, 0, 64, 43
1, 269862, Control_c, 0, 64, 40
1, 269876, Control_c, 0, 64, 36
1, 269891, Control_c, 0, 64, 26
1, 269906, Control_c, 0, 64, 0
1, 269918, Note_on_c, 0, 69, 45
1, 269933, Note_on_c, 0, 61, 31
1, 269942, Note_on_c, 0, 57, 19
1, 269985, Note_off_c, 0, 71, 28
1, 270007, Note_off_c, 0, 62, 31
1, 270013, Note_off_c, 0, 69, 59
1, 270066, Note_on_c, 0, 64, 50
1, 270097, Note_off_c, 0, 64, 59
1, 270196, Note_on_c, 0, 66, 51
1, 270231, Note_off_c, 0, 66, 64
1, 270289, Note_off_c, 0, 52, 31
1, 270296, Note_on_c, 0, 68, 61
1, 270328, Note_off_c, 0, 68, 66
1, 270411, Note_on_c, 0, 69, 59
1, 270443, Note_off_c, 0, 69, 64
1, 270513, Note_on_c, 0, 71, 62
1, 270547, Note_off_c, 0, 71, 61
1, 270599, Note_off_c, 0, 61, 41
1, 270628, Note_on_c, 0, 73, 61
1, 270630, Note_off_c, 0, 57, 41
1, 270660, Note_off_c, 0, 73, 63
1, 270740, Note_on_c, 0, 74, 56
1, 270771, Note_off_c, 0, 74, 67
1, 270837, Note_on_c, 0, 75, 60
1, 270860, Note_off_c, 0, 75, 61
1, 270960, Note_on_c, 0, 76, 60
1, 271073, Note_off_c, 0, 76, 59
1, 271077, Note_on_c, 0, 78, 64
1, 271200, Note_on_c, 0, 75, 64
1, 271222, Note_off_c, 0, 78, 58
1, 271324, Note_on_c, 0, 76, 74
1, 271348, Note_off_c, 0, 75, 61
1, 271436, Note_on_c, 0, 78, 77
1, 271482, Note_off_c, 0, 76, 58
1, 271539, Note_on_c, 0, 75, 75
1, 271583, Note_off_c, 0, 78, 60
1, 271670, Note_on_c, 0, 76, 74
1, 271714, Note_off_c, 0, 75, 60
1, 271783, Note_on_c, 0, 78, 78
1, 271844, Note_off_c, 0, 76, 52
1, 271905, Note_on_c, 0, 75, 71
1, 272013, Note_off_c, 0, 78, 49
1, 272045, Note_on_c, 0, 76, 64
1, 272055, Note_on_c, 0, 52, 36
1, 272065, Note_on_c, 0, 61, 32
1, 272066, Note_on_c, 0, 57, 32
1, 272098, Note_off_c, 0, 75, 62
1, 272209, Note_off_c, 0, 76, 51
1, 272212, Note_on_c, 0, 81, 57
1, 272287, Note_off_c, 0, 81, 51
1, 272341, Note_on_c, 0, 80, 61
1, 272392, Note_off_c, 0, 80, 59
1, 272462, Note_on_c, 0, 78, 62
1, 272497, Note_off_c, 0, 78, 60
1, 272579, Note_on_c, 0, 76, 55
1, 272620, Note_off_c, 0, 76, 61
1, 272695, Note_on_c, 0, 74, 51
1, 272729, Note_off_c, 0, 74, 53
1, 272811, Note_on_c, 0, 73, 55
1, 272852, Note_off_c, 0, 73, 59
1, 272931, Note_on_c, 0, 71, 45
1, 272961, Note_off_c, 0, 71, 59
1, 273039, Note_on_c, 0, 69, 48
1, 273046, Note_off_c, 0, 61, 40
1, 273128, Note_off_c, 0, 69, 33
1, 273174, Note_on_c, 0, 68, 48
1, 273187, Note_on_c, 0, 59, 34
1, 273187, Note_on_c, 0, 62, 40
1, 273314, Note_on_c, 0, 66, 53
1, 273384, Note_off_c, 0, 57, 38
1, 273411, Note_off_c, 0, 68, 37
1, 273441, Note_on_c, 0, 64, 54
1, 273444, Note_off_c, 0, 66, 63
1, 273563, Note_on_c, 0, 63, 63
1, 273570, Note_off_c, 0, 64, 59
1, 273675, Note_off_c, 0, 63, 63
1, 273682, Note_on_c, 0, 64, 70
1, 273796, Note_on_c, 0, 65, 59
1, 273810, Note_off_c, 0, 64, 53
1, 273829, Note_off_c, 0, 62, 42
1, 273910, Note_on_c, 0, 66, 66
1, 273949, Note_off_c, 0, 65, 57
1, 273998, Note_off_c, 0, 66, 65
1, 274017, Note_on_c, 0, 67, 56
1, 274155, Note_on_c, 0, 68, 39
1, 274178, Note_off_c, 0, 67, 37
1, 274302, Note_on_c, 0, 61, 32
1, 274302, Note_on_c, 0, 69, 43
1, 274306, Note_on_c, 0, 57, 38
1, 274331, Note_off_c, 0, 68, 42
1, 274351, Note_off_c, 0, 69, 61
1, 274409, Note_off_c, 0, 59, 41
1, 274438, Note_on_c, 0, 64, 49
1, 274472, Note_off_c, 0, 64, 62
1, 274545, Note_on_c, 0, 66, 54
1, 274582, Note_off_c, 0, 66, 62
1, 274657, Note_on_c, 0, 68, 61
1, 274699, Note_off_c, 0, 68, 60
1, 274772, Note_on_c, 0, 69, 66
1, 274812, Note_off_c, 0, 69, 58
1, 274882, Note_on_c, 0, 71, 68
1, 274913, Note_off_c, 0, 71, 63
1, 274958, Note_off_c, 0, 52, 31
1, 274998, Note_on_c, 0, 73, 70
1, 275028, Note_off_c, 0, 73, 62
1, 275064, Note_off_c, 0, 61, 35
1, 275111, Note_on_c, 0, 74, 66
1, 275156, Note_off_c, 0, 74, 57
1, 275180, Note_off_c, 0, 57, 36
1, 275211, Note_on_c, 0, 75, 72
1, 275237, Note_off_c, 0, 75, 65
1, 275323, Note_on_c, 0, 76, 73
1, 275429, Note_on_c, 0, 78, 78
1, 275441, Note_off_c, 0, 76, 61
1, 275544, Note_on_c, 0, 75, 75
1, 275571, Note_off_c, 0, 78, 60
1, 275670, Note_on_c, 0, 76, 76
1, 275703, Note_off_c, 0, 75, 62
1, 275777, Note_on_c, 0, 78, 81
1, 275826, Note_off_c, 0, 76, 59
1, 275887, Note_on_c, 0, 75, 77
1, 275921, Note_off_c, 0, 78, 63
1, 276007, Note_on_c, 0, 76, 81
1, 276043, Note_off_c, 0, 75, 65
1, 276112, Note_on_c, 0, 78, 84
1, 276216, Note_on_c, 0, 75, 87
1, 276219, Note_off_c, 0, 76, 61
1, 276311, Note_off_c, 0, 78, 53
1, 276338, Note_on_c, 0, 76, 81
1, 276348, Note_on_c, 0, 61, 56
1, 276356, Note_on_c, 0, 52, 48
1, 276367, Note_on_c, 0, 57, 47
1, 276385, Note_off_c, 0, 75, 65
1, 276514, Note_off_c, 0, 76, 60
1, 276521, Note_on_c, 0, 81, 75
1, 276596, Note_off_c, 0, 81, 59
1, 276657, Note_on_c, 0, 80, 77
1, 276730, Note_off_c, 0, 80, 63
1, 276777, Note_on_c, 0, 78, 82
1, 276833, Note_off_c, 0, 78, 64
1, 276892, Note_on_c, 0, 76, 72
1, 276934, Note_off_c, 0, 76, 65
1, 277006, Note_on_c, 0, 74, 71
1, 277041, Note_off_c, 0, 74, 65
1, 277122, Note_on_c, 0, 73, 72
1, 277170, Note_off_c, 0, 73, 58
1, 277235, Note_on_c, 0, 71, 69
1, 277274, Note_off_c, 0, 71, 60
1, 277310, Note_off_c, 0, 61, 54
1, 277349, Note_on_c, 0, 69, 67
1, 277396, Note_off_c, 0, 69, 61
1, 277471, Note_on_c, 0, 68, 61
1, 277483, Note_on_c, 0, 59, 43
1, 277486, Note_on_c, 0, 62, 39
1, 277597, Note_on_c, 0, 66, 67
1, 277629, Note_off_c, 0, 68, 60
1, 277705, Note_off_c, 0, 66, 64
1, 277712, Note_on_c, 0, 64, 65
1, 277729, Note_off_c, 0, 57, 36
1, 277832, Note_on_c, 0, 63, 65
1, 277835, Note_off_c, 0, 64, 59
1, 277949, Note_off_c, 0, 63, 62
1, 277957, Note_on_c, 0, 64, 69
1, 278067, Note_on_c, 0, 65, 66
1, 278076, Note_off_c, 0, 64, 55
1, 278124, Note_off_c, 0, 62, 40
1, 278180, Note_on_c, 0, 66, 69
1, 278218, Note_off_c, 0, 65, 56
1, 278277, Note_off_c, 0, 66, 65
1, 278286, Note_on_c, 0, 67, 71
1, 278323, Note_off_c, 0, 52, 36
1, 278388, Note_off_c, 0, 59, 35
1, 278399, Note_on_c, 0, 68, 70
1, 278438, Note_off_c, 0, 67, 38
1, 278514, Note_on_c, 0, 69, 72
1, 278551, Note_off_c, 0, 68, 58
1, 278649, Note_on_c, 0, 57, 67
1, 278687, Note_off_c, 0, 57, 58
1, 278767, Note_on_c, 0, 56, 68
1, 278818, Note_off_c, 0, 56, 62
1, 278872, Note_on_c, 0, 54, 77
1, 278898, Note_off_c, 0, 54, 68
1, 278978, Note_on_c, 0, 52, 85
1, 279008, Note_off_c, 0, 52, 70
1, 279008, Note_off_c, 0, 69, 62
1, 279092, Note_on_c, 0, 50, 76
1, 279127, Note_off_c, 0, 50, 64
1, 279191, Note_on_c, 0, 49, 78
1, 279220, Note_off_c, 0, 49, 67
1, 279308, Note_on_c, 0, 47, 69
1, 279334, Note_off_c, 0, 47, 66
1, 279413, Note_on_c, 0, 45, 74
1, 279442, Note_off_c, 0, 45, 63
1, 279513, Note_on_c, 0, 74, 78
1, 279516, Note_on_c, 0, 71, 73
1, 279519, Note_on_c, 0, 64, 72
1, 279522, Note_on_c, 0, 44, 60
1, 279626, Control_c, 0, 64, 32
1, 279634, Note_on_c, 0, 42, 72
1, 279641, Control_c, 0, 64, 53
1, 279656, Control_c, 0, 64, 60
1, 279665, Note_off_c, 0, 44, 63
1, 279671, Control_c, 0, 64, 61
1, 279686, Control_c, 0, 64, 62
1, 279700, Control_c, 0, 64, 63
1, 279740, Note_off_c, 0, 42, 63
1, 279742, Note_on_c, 0, 40, 69
1, 279759, Control_c, 0, 64, 63
1, 279774, Control_c, 0, 64, 62
1, 279789, Control_c, 0, 64, 61
1, 279803, Control_c, 0, 64, 60
1, 279818, Control_c, 0, 64, 58
1, 279833, Control_c, 0, 64, 54
1, 279848, Control_c, 0, 64, 41
1, 279859, Note_on_c, 0, 39, 70
1, 279863, Control_c, 0, 64, 0
1, 279891, Note_off_c, 0, 40, 61
1, 279982, Note_on_c, 0, 40, 76
1, 279987, Note_off_c, 0, 39, 61
1, 280088, Note_on_c, 0, 42, 69
1, 280095, Note_off_c, 0, 40, 57
1, 280205, Note_on_c, 0, 44, 72
1, 280252, Note_off_c, 0, 42, 59
1, 280332, Note_off_c, 0, 44, 63
1, 280337, Note_on_c, 0, 45, 71
1, 280431, Note_on_c, 0, 47, 68
1, 280433, Note_off_c, 0, 45, 62
1, 280535, Note_off_c, 0, 47, 63
1, 280538, Note_on_c, 0, 49, 70
1, 280593, Note_on_c, 0, 69, 63
1, 280596, Note_on_c, 0, 73, 74
1, 280616, Note_off_c, 0, 49, 59
1, 280640, Control_c, 0, 64, 23
1, 280641, Note_off_c, 0, 74, 59
1, 280655, Control_c, 0, 64, 0
1, 280696, Note_on_c, 0, 55, 84
1, 280702, Note_off_c, 0, 71, 40
1, 280727, Note_off_c, 0, 55, 67
1, 280811, Note_on_c, 0, 56, 80
1, 280830, Note_off_c, 0, 56, 70
1, 280915, Note_on_c, 0, 54, 76
1, 280940, Note_off_c, 0, 54, 66
1, 281026, Note_on_c, 0, 52, 47
1, 281059, Note_off_c, 0, 52, 55
1, 281131, Note_on_c, 0, 50, 61
1, 281168, Note_off_c, 0, 50, 62
1, 281241, Note_on_c, 0, 49, 60
1, 281278, Note_off_c, 0, 49, 62
1, 281298, Note_off_c, 0, 64, 54
1, 281326, Note_off_c, 0, 69, 51
1, 281350, Note_on_c, 0, 47, 61
1, 281355, Note_off_c, 0, 73, 59
1, 281420, Note_off_c, 0, 47, 61
1, 281438, Note_on_c, 0, 45, 56
1, 281477, Note_off_c, 0, 45, 65
1, 281528, Note_on_c, 0, 44, 59
1, 281529, Note_on_c, 0, 71, 82
1, 281536, Note_on_c, 0, 61, 83
1, 281545, Note_on_c, 0, 68, 81
1, 281597, Control_c, 0, 64, 34
1, 281620, Control_c, 0, 64, 43
1, 281629, Note_on_c, 0, 42, 64
1, 281635, Control_c, 0, 64, 47
1, 281635, Note_off_c, 0, 44, 59
1, 281650, Control_c, 0, 64, 52
1, 281664, Control_c, 0, 64, 57
1, 281679, Control_c, 0, 64, 59
1, 281694, Control_c, 0, 64, 60
1, 281695, Note_off_c, 0, 42, 63
1, 281708, Control_c, 0, 64, 61
1, 281738, Control_c, 0, 64, 61
1, 281748, Note_on_c, 0, 41, 44
1, 281753, Control_c, 0, 64, 62
1, 281829, Note_off_c, 0, 41, 54
1, 281844, Note_on_c, 0, 39, 58
1, 281856, Control_c, 0, 64, 61
1, 281871, Control_c, 0, 64, 61
1, 281886, Control_c, 0, 64, 60
1, 281900, Control_c, 0, 64, 58
1, 281906, Note_off_c, 0, 39, 61
1, 281915, Control_c, 0, 64, 56
1, 281922, Note_on_c, 0, 37, 51
1, 281932, Control_c, 0, 64, 51
1, 281947, Control_c, 0, 64, 39
1, 281953, Note_off_c, 0, 37, 63
1, 281961, Control_c, 0, 64, 0
1, 281970, Note_on_c, 0, 36, 56
1, 282035, Control_c, 0, 64, 32
1, 282043, Note_on_c, 0, 37, 64
1, 282050, Control_c, 0, 64, 48
1, 282065, Control_c, 0, 64, 53
1, 282079, Control_c, 0, 64, 56
1, 282094, Control_c, 0, 64, 58
1, 282109, Control_c, 0, 64, 59
1, 282119, Note_off_c, 0, 36, 33
1, 282124, Control_c, 0, 64, 59
1, 282136, Note_on_c, 0, 39, 61
1, 282154, Control_c, 0, 64, 60
1, 282172, Note_off_c, 0, 37, 59
1, 282206, Note_off_c, 0, 39, 63
1, 282207, Note_on_c, 0, 41, 64
1, 282258, Control_c, 0, 64, 59
1, 282287, Control_c, 0, 64, 59
1, 282292, Note_off_c, 0, 41, 38
1, 282303, Note_off_c, 0, 68, 55
1, 282311, Note_on_c, 0, 42, 67
1, 282317, Control_c, 0, 64, 58
1, 282331, Control_c, 0, 64, 57
1, 282346, Control_c, 0, 64, 55
1, 282368, Control_c, 0, 64, 51
1, 282383, Control_c, 0, 64, 31
1, 282388, Note_off_c, 0, 42, 59
1, 282398, Control_c, 0, 64, 0
1, 282458, Control_c, 0, 64, 24
1, 282473, Control_c, 0, 64, 37
1, 282476, Note_on_c, 0, 69, 71
1, 282483, Note_on_c, 0, 66, 79
1, 282487, Control_c, 0, 64, 40
1, 282502, Control_c, 0, 64, 34
1, 282517, Control_c, 0, 64, 14
1, 282531, Control_c, 0, 64, 0
1, 282579, Note_on_c, 0, 50, 59
1, 282607, Note_off_c, 0, 50, 64
1, 282609, Note_off_c, 0, 71, 23
1, 282693, Note_on_c, 0, 49, 61
1, 282719, Note_off_c, 0, 49, 62
1, 282811, Note_on_c, 0, 50, 46
1, 282842, Note_off_c, 0, 50, 37
1, 282905, Note_on_c, 0, 45, 71
1, 282942, Note_off_c, 0, 45, 62
1, 283012, Note_on_c, 0, 43, 61
1, 283045, Note_off_c, 0, 43, 63
1, 283087, Note_on_c, 0, 42, 30
1, 283088, Note_off_c, 0, 42, 127
1, 283176, Note_on_c, 0, 41, 70
1, 283212, Note_off_c, 0, 41, 66
1, 283220, Note_off_c, 0, 66, 59
1, 283221, Note_off_c, 0, 69, 62
1, 283277, Note_off_c, 0, 61, 59
1, 283282, Note_on_c, 0, 40, 79
1, 283324, Note_off_c, 0, 40, 61
1, 283385, Note_on_c, 0, 67, 82
1, 283388, Note_on_c, 0, 64, 74
1, 283388, Note_on_c, 0, 57, 78
1, 283487, Control_c, 0, 64, 29
1, 283498, Note_on_c, 0, 36, 62
1, 283502, Control_c, 0, 64, 46
1, 283517, Control_c, 0, 64, 49
1, 283533, Control_c, 0, 64, 51
1, 283548, Control_c, 0, 64, 51
1, 283563, Control_c, 0, 64, 52
1, 283573, Note_off_c, 0, 36, 58
1, 283577, Control_c, 0, 64, 53
1, 283592, Control_c, 0, 64, 53
1, 283603, Note_on_c, 0, 35, 53
1, 283622, Control_c, 0, 64, 54
1, 283651, Control_c, 0, 64, 53
1, 283665, Note_off_c, 0, 35, 64
1, 283666, Control_c, 0, 64, 53
1, 283696, Control_c, 0, 64, 50
1, 283705, Note_on_c, 0, 34, 36
1, 283711, Control_c, 0, 64, 42
1, 283725, Control_c, 0, 64, 15
1, 283740, Control_c, 0, 64, 0
1, 283776, Note_off_c, 0, 34, 60
1, 283799, Control_c, 0, 64, 35
1, 283814, Control_c, 0, 64, 48
1, 283829, Control_c, 0, 64, 57
1, 283851, Control_c, 0, 64, 60
1, 283866, Control_c, 0, 64, 61
1, 283874, Note_on_c, 0, 35, 27
1, 283881, Control_c, 0, 64, 63
1, 283896, Control_c, 0, 64, 64
1, 283900, Note_off_c, 0, 57, 49
1, 283911, Control_c, 0, 64, 66
1, 283925, Control_c, 0, 64, 67
1, 283942, Note_on_c, 0, 34, 38
1, 283954, Note_off_c, 0, 35, 59
1, 284014, Note_off_c, 0, 64, 53
1, 284088, Control_c, 0, 64, 66
1, 284091, Note_on_c, 0, 37, 39
1, 284103, Control_c, 0, 64, 66
1, 284118, Control_c, 0, 64, 65
1, 284133, Control_c, 0, 64, 62
1, 284148, Control_c, 0, 64, 56
1, 284163, Control_c, 0, 64, 46
1, 284178, Control_c, 0, 64, 23
1, 284191, Note_on_c, 0, 38, 51
1, 284193, Control_c, 0, 64, 0
1, 284246, Note_off_c, 0, 37, 30
1, 284306, Note_off_c, 0, 67, 38
1, 284327, Note_on_c, 0, 65, 66
1, 284416, Control_c, 0, 64, 28
1, 284431, Control_c, 0, 64, 49
1, 284440, Note_off_c, 0, 65, 59
1, 284441, Note_on_c, 0, 66, 69
1, 284446, Control_c, 0, 64, 55
1, 284461, Control_c, 0, 64, 59
1, 284475, Control_c, 0, 64, 61
1, 284490, Control_c, 0, 64, 63
1, 284495, Note_off_c, 0, 34, 42
1, 284505, Control_c, 0, 64, 64
1, 284519, Control_c, 0, 64, 65
1, 284528, Note_off_c, 0, 38, 57
1, 284534, Control_c, 0, 64, 66
1, 284549, Control_c, 0, 64, 67
1, 284551, Note_off_c, 0, 66, 66
1, 284556, Note_on_c, 0, 67, 77
1, 284564, Control_c, 0, 64, 68
1, 284661, Control_c, 0, 64, 68
1, 284664, Note_on_c, 0, 68, 77
1, 284675, Control_c, 0, 64, 65
1, 284682, Note_off_c, 0, 67, 49
1, 284690, Control_c, 0, 64, 63
1, 284705, Control_c, 0, 64, 61
1, 284734, Control_c, 0, 64, 63
1, 284749, Control_c, 0, 64, 65
1, 284764, Control_c, 0, 64, 68
1, 284777, Note_on_c, 0, 69, 83
1, 284779, Control_c, 0, 64, 70
1, 284784, Note_off_c, 0, 68, 64
1, 284794, Control_c, 0, 64, 72
1, 284808, Control_c, 0, 64, 74
1, 284823, Control_c, 0, 64, 75
1, 284838, Control_c, 0, 64, 75
1, 284892, Note_on_c, 0, 70, 77
1, 284893, Note_off_c, 0, 69, 60
1, 284956, Control_c, 0, 64, 72
1, 284965, Note_off_c, 0, 70, 63
1, 284971, Control_c, 0, 64, 65
1, 284976, Note_on_c, 0, 71, 79
1, 284986, Control_c, 0, 64, 54
1, 285000, Control_c, 0, 64, 40
1, 285015, Control_c, 0, 64, 50
1, 285030, Control_c, 0, 64, 57
1, 285039, Note_on_c, 0, 72, 76
1, 285045, Control_c, 0, 64, 60
1, 285049, Note_off_c, 0, 71, 59
1, 285060, Control_c, 0, 64, 63
1, 285074, Control_c, 0, 64, 67
1, 285089, Control_c, 0, 64, 69
1, 285104, Control_c, 0, 64, 72
1, 285111, Note_on_c, 0, 73, 80
1, 285132, Note_off_c, 0, 72, 63
1, 285149, Control_c, 0, 64, 69
1, 285164, Control_c, 0, 64, 64
1, 285173, Note_on_c, 0, 66, 49
1, 285179, Control_c, 0, 64, 55
1, 285181, Note_on_c, 0, 62, 49
1, 285182, Note_off_c, 0, 73, 62
1, 285189, Note_on_c, 0, 74, 72
1, 285194, Control_c, 0, 64, 0
1, 285265, Note_off_c, 0, 74, 63
1, 285268, Note_on_c, 0, 75, 69
1, 285283, Control_c, 0, 64, 10
1, 285297, Control_c, 0, 64, 62
1, 285312, Control_c, 0, 64, 67
1, 285324, Note_off_c, 0, 75, 66
1, 285327, Control_c, 0, 64, 70
1, 285340, Note_on_c, 0, 76, 75
1, 285342, Control_c, 0, 64, 71
1, 285379, Control_c, 0, 64, 71
1, 285394, Control_c, 0, 64, 65
1, 285409, Control_c, 0, 64, 40
1, 285423, Control_c, 0, 64, 0
1, 285427, Note_on_c, 0, 77, 74
1, 285433, Note_off_c, 0, 76, 57
1, 285483, Control_c, 0, 64, 61
1, 285497, Control_c, 0, 64, 69
1, 285504, Note_on_c, 0, 78, 74
1, 285512, Control_c, 0, 64, 75
1, 285520, Note_off_c, 0, 77, 50
1, 285527, Control_c, 0, 64, 75
1, 285542, Control_c, 0, 64, 71
1, 285556, Control_c, 0, 64, 63
1, 285564, Note_off_c, 0, 78, 65
1, 285571, Control_c, 0, 64, 22
1, 285581, Note_on_c, 0, 79, 72
1, 285586, Control_c, 0, 64, 0
1, 285601, Control_c, 0, 64, 42
1, 285616, Control_c, 0, 64, 61
1, 285630, Control_c, 0, 64, 68
1, 285645, Control_c, 0, 64, 73
1, 285655, Note_off_c, 0, 79, 57
1, 285662, Note_on_c, 0, 80, 69
1, 285675, Control_c, 0, 64, 67
1, 285690, Control_c, 0, 64, 54
1, 285704, Control_c, 0, 64, 0
1, 285719, Note_off_c, 0, 80, 63
1, 285749, Note_on_c, 0, 81, 68
1, 285749, Control_c, 0, 64, 32
1, 285764, Control_c, 0, 64, 61
1, 285779, Control_c, 0, 64, 68
1, 285794, Control_c, 0, 64, 73
1, 285809, Control_c, 0, 64, 74
1, 285823, Control_c, 0, 64, 73
1, 285826, Note_off_c, 0, 81, 56
1, 285838, Control_c, 0, 64, 67
1, 285840, Note_on_c, 0, 82, 58
1, 285853, Control_c, 0, 64, 60
1, 285868, Control_c, 0, 64, 52
1, 285883, Control_c, 0, 64, 59
1, 285898, Control_c, 0, 64, 64
1, 285898, Control_c, 0, 67, 14
1, 285913, Control_c, 0, 64, 68
1, 285913, Control_c, 0, 67, 20
1, 285928, Control_c, 0, 64, 70
1, 285928, Control_c, 0, 67, 23
1, 285942, Note_on_c, 0, 83, 56
1, 285943, Control_c, 0, 64, 70
1, 285943, Control_c, 0, 67, 26
1, 285958, Control_c, 0, 67, 27
1, 285972, Control_c, 0, 67, 27
1, 285987, Control_c, 0, 67, 28
1, 286002, Control_c, 0, 67, 29
1, 286003, Note_off_c, 0, 82, 29
1, 286017, Control_c, 0, 67, 31
1, 286032, Control_c, 0, 67, 33
1, 286047, Note_on_c, 0, 84, 61
1, 286047, Control_c, 0, 67, 35
1, 286047, Note_off_c, 0, 83, 57
1, 286062, Control_c, 0, 67, 37
1, 286077, Control_c, 0, 67, 39
1, 286092, Control_c, 0, 67, 41
1, 286113, Control_c, 0, 67, 42
1, 286128, Control_c, 0, 67, 43
1, 286142, Note_off_c, 0, 66, 39
1, 286143, Control_c, 0, 67, 44
1, 286158, Control_c, 0, 67, 45
1, 286173, Control_c, 0, 67, 45
1, 286187, Control_c, 0, 64, 70
1, 286187, Control_c, 0, 67, 46
1, 286202, Control_c, 0, 64, 69
1, 286217, Control_c, 0, 64, 69
1, 286217, Control_c, 0, 67, 46
1, 286232, Control_c, 0, 64, 68
1, 286247, Control_c, 0, 64, 66
1, 286252, Note_on_c, 0, 61, 31
1, 286261, Control_c, 0, 64, 65
1, 286273, Note_on_c, 0, 65, 27
1, 286276, Control_c, 0, 64, 64
1, 286276, Control_c, 0, 67, 47
1, 286291, Control_c, 0, 64, 63
1, 286296, Note_off_c, 0, 84, 61
1, 286300, Note_on_c, 0, 85, 58
1, 286306, Control_c, 0, 64, 61
1, 286306, Control_c, 0, 67, 47
1, 286321, Control_c, 0, 64, 54
1, 286336, Control_c, 0, 64, 44
1, 286336, Control_c, 0, 67, 48
1, 286351, Control_c, 0, 64, 29
1, 286351, Note_off_c, 0, 62, 34
1, 286366, Control_c, 0, 64, 0
1, 286366, Control_c, 0, 67, 49
1, 286496, Note_on_c, 0, 80, 44
1, 286528, Control_c, 0, 64, 38
1, 286543, Control_c, 0, 64, 55
1, 286543, Control_c, 0, 67, 48
1, 286558, Control_c, 0, 64, 59
1, 286572, Control_c, 0, 64, 61
1, 286587, Control_c, 0, 64, 63
1, 286602, Control_c, 0, 64, 66
1, 286617, Control_c, 0, 64, 70
1, 286617, Control_c, 0, 67, 48
1, 286630, Note_on_c, 0, 77, 42
1, 286632, Control_c, 0, 64, 78
1, 286646, Control_c, 0, 64, 83
1, 286646, Control_c, 0, 67, 47
1, 286661, Control_c, 0, 64, 86
1, 286661, Control_c, 0, 67, 47
1, 286676, Control_c, 0, 64, 91
1, 286691, Control_c, 0, 64, 96
1, 286706, Control_c, 0, 64, 104
1, 286721, Control_c, 0, 64, 114
1, 286736, Control_c, 0, 64, 127
1, 286745, Note_off_c, 0, 80, 37
1, 286749, Note_off_c, 0, 85, 35
1, 286756, Note_on_c, 0, 73, 49
1, 286810, Control_c, 0, 67, 46
1, 286875, Note_on_c, 0, 80, 48
1, 286891, Note_off_c, 0, 77, 36
1, 286892, Control_c, 0, 67, 46
1, 287001, Note_off_c, 0, 65, 40
1, 287005, Note_off_c, 0, 73, 36
1, 287014, Note_on_c, 0, 77, 51
1, 287040, Control_c, 0, 67, 45
1, 287069, Note_off_c, 0, 80, 35
1, 287114, Note_on_c, 0, 85, 56
1, 287129, Control_c, 0, 67, 45
1, 287183, Note_off_c, 0, 77, 37
1, 287236, Note_on_c, 0, 80, 51
1, 287332, Note_on_c, 0, 77, 50
1, 287332, Note_off_c, 0, 85, 36
1, 287433, Note_off_c, 0, 80, 34
1, 287469, Note_on_c, 0, 84, 63
1, 287472, Note_off_c, 0, 77, 54
1, 287496, Note_on_c, 0, 69, 37
1, 287499, Control_c, 0, 64, 101
1, 287515, Control_c, 0, 64, 88
1, 287530, Control_c, 0, 64, 78
1, 287544, Control_c, 0, 64, 68
1, 287559, Control_c, 0, 64, 60
1, 287574, Control_c, 0, 64, 37
1, 287597, Control_c, 0, 64, 0
1, 287612, Control_c, 0, 64, 31
1, 287613, Note_on_c, 0, 81, 55
1, 287626, Control_c, 0, 64, 51
1, 287641, Control_c, 0, 64, 60
1, 287656, Control_c, 0, 64, 64
1, 287671, Control_c, 0, 64, 68
1, 287686, Control_c, 0, 64, 77
1, 287700, Control_c, 0, 64, 85
1, 287700, Control_c, 0, 67, 44
1, 287715, Control_c, 0, 64, 88
1, 287730, Control_c, 0, 64, 90
1, 287738, Note_on_c, 0, 75, 54
1, 287745, Control_c, 0, 64, 91
1, 287759, Control_c, 0, 64, 92
1, 287774, Control_c, 0, 67, 44
1, 287787, Note_off_c, 0, 84, 30
1, 287789, Control_c, 0, 64, 92
1, 287856, Note_off_c, 0, 81, 49
1, 287859, Note_on_c, 0, 68, 60
1, 287859, Note_on_c, 0, 72, 58
1, 287863, Control_c, 0, 64, 92
1, 287863, Control_c, 0, 67, 43
1, 287878, Control_c, 0, 64, 90
1, 287894, Control_c, 0, 64, 86
1, 287908, Control_c, 0, 64, 78
1, 287923, Control_c, 0, 64, 69
1, 287938, Control_c, 0, 64, 61
1, 287938, Control_c, 0, 67, 43
1, 287952, Control_c, 0, 64, 45
1, 287967, Control_c, 0, 64, 49
1, 287974, Note_off_c, 0, 75, 59
1, 287982, Control_c, 0, 64, 59
1, 287982, Control_c, 0, 67, 42
1, 287984, Note_on_c, 0, 81, 63
1, 287997, Control_c, 0, 64, 62
1, 288008, Note_off_c, 0, 69, 45
1, 288012, Control_c, 0, 64, 65
1, 288012, Control_c, 0, 67, 42
1, 288026, Control_c, 0, 64, 69
1, 288041, Control_c, 0, 64, 75
1, 288056, Control_c, 0, 64, 81
1, 288071, Control_c, 0, 64, 82
1, 288071, Control_c, 0, 67, 41
1, 288088, Note_on_c, 0, 75, 66
1, 288116, Control_c, 0, 64, 82
1, 288180, Note_off_c, 0, 72, 36
1, 288219, Control_c, 0, 64, 82
1, 288228, Note_on_c, 0, 84, 72
1, 288232, Note_on_c, 0, 66, 58
1, 288234, Control_c, 0, 64, 79
1, 288242, Note_off_c, 0, 81, 54
1, 288249, Control_c, 0, 64, 73
1, 288249, Control_c, 0, 67, 41
1, 288264, Control_c, 0, 64, 66
1, 288274, Note_off_c, 0, 75, 57
1, 288278, Control_c, 0, 64, 55
1, 288293, Control_c, 0, 64, 0
1, 288324, Control_c, 0, 64, 23
1, 288346, Control_c, 0, 64, 54
1, 288361, Control_c, 0, 64, 64
1, 288365, Note_on_c, 0, 81, 69
1, 288367, Note_off_c, 0, 61, 52
1, 288367, Note_off_c, 0, 68, 56
1, 288375, Control_c, 0, 64, 68
1, 288390, Control_c, 0, 64, 74
1, 288405, Control_c, 0, 64, 80
1, 288420, Control_c, 0, 64, 83
1, 288434, Note_off_c, 0, 84, 60
1, 288449, Control_c, 0, 64, 84
1, 288468, Note_on_c, 0, 75, 62
1, 288509, Control_c, 0, 64, 84
1, 288634, Note_on_c, 0, 85, 64
1, 288636, Note_on_c, 0, 65, 37
1, 288642, Control_c, 0, 64, 84
1, 288651, Note_on_c, 0, 61, 39
1, 288656, Control_c, 0, 64, 82
1, 288661, Note_off_c, 0, 75, 54
1, 288665, Note_off_c, 0, 66, 0
1, 288671, Control_c, 0, 64, 80
1, 288686, Control_c, 0, 64, 77
1, 288700, Control_c, 0, 64, 72
1, 288715, Control_c, 0, 64, 67
1, 288725, Note_off_c, 0, 81, 36
1, 288730, Poly_aftertouch_c, 0, 66, 0
1, 288730, Control_c, 0, 64, 63
1, 288745, Control_c, 0, 64, 55
1, 288760, Control_c, 0, 64, 38
1, 288774, Control_c, 0, 64, 0
1, 288803, Note_on_c, 0, 80, 50
1, 288819, Control_c, 0, 67, 41
1, 288893, Control_c, 0, 64, 10
1, 288908, Control_c, 0, 64, 43
1, 288920, Note_on_c, 0, 77, 49
1, 288923, Control_c, 0, 64, 56
1, 288938, Control_c, 0, 64, 62
1, 288953, Control_c, 0, 64, 65
1, 288967, Control_c, 0, 64, 69
1, 288982, Control_c, 0, 64, 75
1, 288982, Control_c, 0, 67, 41
1, 288997, Control_c, 0, 64, 82
1, 289012, Control_c, 0, 64, 87
1, 289015, Note_off_c, 0, 80, 37
1, 289024, Note_on_c, 0, 73, 47
1, 289027, Control_c, 0, 64, 92
1, 289041, Control_c, 0, 64, 98
1, 289056, Control_c, 0, 64, 106
1, 289071, Control_c, 0, 64, 119
1, 289086, Control_c, 0, 64, 127
1, 289109, Note_off_c, 0, 77, 52
1, 289157, Note_on_c, 0, 80, 54
1, 289264, Note_off_c, 0, 85, 47
1, 289266, Note_off_c, 0, 65, 39
1, 289278, Note_on_c, 0, 77, 53
1, 289382, Note_off_c, 0, 80, 36
1, 289383, Note_on_c, 0, 85, 59
1, 289400, Note_off_c, 0, 73, 41
1, 289501, Note_off_c, 0, 77, 36
1, 289514, Note_on_c, 0, 80, 52
1, 289620, Note_off_c, 0, 85, 36
1, 289639, Note_on_c, 0, 77, 54
1, 289726, Note_off_c, 0, 80, 34
1, 289766, Note_on_c, 0, 84, 60
1, 289770, Note_on_c, 0, 69, 41
1, 289785, Note_off_c, 0, 77, 52
1, 289790, Control_c, 0, 64, 111
1, 289805, Control_c, 0, 64, 95
1, 289820, Control_c, 0, 64, 81
1, 289835, Control_c, 0, 64, 69
1, 289856, Control_c, 0, 64, 59
1, 289871, Control_c, 0, 64, 27
1, 289886, Control_c, 0, 64, 0
1, 289901, Control_c, 0, 64, 26
1, 289917, Control_c, 0, 64, 45
1, 289920, Note_on_c, 0, 81, 55
1, 289932, Control_c, 0, 64, 54
1, 289932, Control_c, 0, 67, 40
1, 289946, Control_c, 0, 64, 60
1, 289961, Control_c, 0, 64, 64
1, 289976, Control_c, 0, 64, 69
1, 289976, Control_c, 0, 67, 40
1, 289991, Control_c, 0, 64, 78
1, 289991, Control_c, 0, 67, 39
1, 290006, Control_c, 0, 64, 85
1, 290006, Control_c, 0, 67, 39
1, 290020, Control_c, 0, 64, 90
1, 290035, Control_c, 0, 64, 93
1, 290035, Control_c, 0, 67, 38
1, 290050, Control_c, 0, 64, 97
1, 290050, Control_c, 0, 67, 37
1, 290053, Note_on_c, 0, 75, 46
1, 290065, Control_c, 0, 64, 99
1, 290065, Control_c, 0, 67, 34
1, 290080, Control_c, 0, 64, 100
1, 290080, Control_c, 0, 67, 30
1, 290095, Control_c, 0, 67, 24
1, 290110, Control_c, 0, 67, 17
1, 290125, Control_c, 0, 67, 9
1, 290139, Control_c, 0, 67, 0
1, 290149, Note_off_c, 0, 81, 37
1, 290152, Note_on_c, 0, 68, 54
1, 290169, Note_on_c, 0, 72, 59
1, 290184, Control_c, 0, 64, 96
1, 290199, Control_c, 0, 64, 87
1, 290213, Control_c, 0, 64, 75
1, 290228, Control_c, 0, 64, 66
1, 290243, Control_c, 0, 64, 59
1, 290258, Control_c, 0, 64, 60
1, 290272, Note_off_c, 0, 75, 57
1, 290273, Control_c, 0, 64, 64
1, 290280, Note_on_c, 0, 81, 59
1, 290287, Control_c, 0, 64, 66
1, 290302, Control_c, 0, 64, 68
1, 290317, Control_c, 0, 64, 72
1, 290332, Control_c, 0, 64, 79
1, 290341, Note_off_c, 0, 84, 14
1, 290346, Control_c, 0, 64, 87
1, 290361, Control_c, 0, 64, 93
1, 290369, Note_off_c, 0, 69, 38
1, 290376, Control_c, 0, 64, 95
1, 290391, Control_c, 0, 64, 96
1, 290400, Note_on_c, 0, 75, 62
1, 290406, Control_c, 0, 64, 97
1, 290494, Control_c, 0, 64, 96
1, 290509, Control_c, 0, 64, 94
1, 290524, Control_c, 0, 64, 88
1, 290531, Note_on_c, 0, 84, 74
1, 290535, Note_off_c, 0, 81, 57
1, 290539, Note_on_c, 0, 66, 57
1, 290539, Control_c, 0, 64, 78
1, 290549, Note_off_c, 0, 72, 39
1, 290554, Control_c, 0, 64, 67
1, 290569, Control_c, 0, 64, 54
1, 290576, Note_off_c, 0, 75, 58
1, 290584, Control_c, 0, 64, 20
1, 290606, Control_c, 0, 64, 36
1, 290620, Control_c, 0, 64, 53
1, 290635, Control_c, 0, 64, 60
1, 290648, Note_on_c, 0, 81, 74
1, 290650, Control_c, 0, 64, 65
1, 290661, Note_off_c, 0, 61, 42
1, 290665, Control_c, 0, 64, 70
1, 290679, Control_c, 0, 64, 77
1, 290694, Control_c, 0, 64, 83
1, 290709, Control_c, 0, 64, 86
1, 290719, Note_off_c, 0, 84, 57
1, 290725, Control_c, 0, 64, 87
1, 290736, Note_off_c, 0, 68, 33
1, 290740, Control_c, 0, 64, 88
1, 290755, Control_c, 0, 64, 89
1, 290762, Note_on_c, 0, 75, 63
1, 290769, Control_c, 0, 64, 89
1, 290873, Control_c, 0, 64, 89
1, 290887, Control_c, 0, 64, 88
1, 290902, Control_c, 0, 64, 86
1, 290910, Note_on_c, 0, 65, 42
1, 290915, Note_on_c, 0, 85, 67
1, 290915, Note_off_c, 0, 75, 60
1, 290917, Control_c, 0, 64, 82
1, 290932, Control_c, 0, 64, 77
1, 290933, Note_on_c, 0, 61, 40
1, 290947, Control_c, 0, 64, 72
1, 290953, Note_off_c, 0, 81, 56
1, 290961, Control_c, 0, 64, 66
1, 290976, Control_c, 0, 64, 59
1, 290991, Control_c, 0, 64, 28
1, 291006, Control_c, 0, 64, 0
1, 291015, Note_off_c, 0, 66, 34
1, 291090, Note_on_c, 0, 80, 52
1, 291124, Control_c, 0, 64, 38
1, 291139, Control_c, 0, 64, 52
1, 291154, Control_c, 0, 64, 60
1, 291168, Control_c, 0, 64, 64
1, 291183, Control_c, 0, 64, 67
1, 291197, Note_on_c, 0, 77, 49
1, 291198, Control_c, 0, 64, 70
1, 291213, Control_c, 0, 64, 76
1, 291228, Control_c, 0, 64, 83
1, 291243, Control_c, 0, 64, 90
1, 291257, Control_c, 0, 64, 100
1, 291272, Control_c, 0, 64, 118
1, 291287, Control_c, 0, 64, 127
1, 291326, Note_on_c, 0, 73, 51
1, 291329, Note_off_c, 0, 80, 36
1, 291448, Note_on_c, 0, 80, 59
1, 291451, Note_off_c, 0, 77, 29
1, 291484, Note_off_c, 0, 85, 36
1, 291495, Note_off_c, 0, 73, 51
1, 291570, Note_on_c, 0, 77, 65
1, 291577, Control_c, 0, 64, 97
1, 291591, Control_c, 0, 64, 71
1, 291606, Control_c, 0, 64, 66
1, 291621, Control_c, 0, 64, 71
1, 291636, Control_c, 0, 64, 82
1, 291651, Control_c, 0, 64, 105
1, 291666, Control_c, 0, 64, 127
1, 291684, Note_off_c, 0, 80, 23
1, 291688, Note_on_c, 0, 83, 72
1, 291747, Note_off_c, 0, 77, 53
1, 291797, Note_on_c, 0, 80, 72
1, 291854, Note_off_c, 0, 65, 42
1, 291863, Note_off_c, 0, 61, 30
1, 291865, Note_off_c, 0, 83, 59
1, 291923, Note_on_c, 0, 77, 63
1, 292066, Note_on_c, 0, 67, 48
1, 292072, Note_on_c, 0, 82, 73
1, 292091, Note_on_c, 0, 60, 35
1, 292098, Note_off_c, 0, 80, 53
1, 292106, Note_off_c, 0, 77, 59
1, 292132, Control_c, 0, 64, 97
1, 292147, Control_c, 0, 64, 78
1, 292162, Control_c, 0, 64, 65
1, 292177, Control_c, 0, 64, 31
1, 292191, Control_c, 0, 64, 0
1, 292234, Note_on_c, 0, 79, 59
1, 292265, Control_c, 0, 64, 31
1, 292280, Control_c, 0, 64, 57
1, 292295, Control_c, 0, 64, 65
1, 292310, Control_c, 0, 64, 71
1, 292326, Control_c, 0, 64, 79
1, 292340, Control_c, 0, 64, 89
1, 292343, Note_on_c, 0, 76, 61
1, 292355, Control_c, 0, 64, 101
1, 292370, Control_c, 0, 64, 127
1, 292444, Note_off_c, 0, 79, 44
1, 292448, Note_on_c, 0, 70, 64
1, 292466, Note_on_c, 0, 66, 70
1, 292486, Note_off_c, 0, 76, 52
1, 292533, Control_c, 0, 64, 106
1, 292548, Control_c, 0, 64, 76
1, 292563, Control_c, 0, 64, 61
1, 292577, Note_off_c, 0, 67, 38
1, 292578, Control_c, 0, 64, 48
1, 292582, Note_on_c, 0, 79, 59
1, 292593, Control_c, 0, 64, 50
1, 292608, Control_c, 0, 64, 58
1, 292622, Control_c, 0, 64, 65
1, 292637, Control_c, 0, 64, 72
1, 292652, Control_c, 0, 64, 88
1, 292665, Note_off_c, 0, 82, 51
1, 292666, Control_c, 0, 64, 101
1, 292678, Note_off_c, 0, 70, 38
1, 292681, Control_c, 0, 64, 107
1, 292691, Note_on_c, 0, 76, 70
1, 292696, Control_c, 0, 64, 115
1, 292711, Control_c, 0, 64, 127
1, 292781, Note_off_c, 0, 79, 33
1, 292800, Control_c, 0, 64, 118
1, 292810, Note_on_c, 0, 64, 71
1, 292814, Control_c, 0, 64, 95
1, 292821, Note_on_c, 0, 82, 72
1, 292837, Control_c, 0, 64, 76
1, 292852, Control_c, 0, 64, 61
1, 292866, Control_c, 0, 64, 35
1, 292874, Note_off_c, 0, 60, 53
1, 292881, Control_c, 0, 64, 0
1, 292888, Note_off_c, 0, 76, 59
1, 292911, Control_c, 0, 64, 37
1, 292926, Control_c, 0, 64, 57
1, 292939, Note_on_c, 0, 79, 70
1, 292940, Control_c, 0, 64, 64
1, 292955, Control_c, 0, 64, 71
1, 292970, Control_c, 0, 64, 84
1, 292985, Control_c, 0, 64, 104
1, 293000, Control_c, 0, 64, 127
1, 293010, Note_off_c, 0, 82, 52
1, 293013, Note_off_c, 0, 66, 57
1, 293044, Note_on_c, 0, 76, 73
1, 293119, Note_off_c, 0, 79, 51
1, 293163, Control_c, 0, 64, 121
1, 293178, Control_c, 0, 64, 97
1, 293193, Note_on_c, 0, 83, 74
1, 293193, Control_c, 0, 64, 83
1, 293197, Note_on_c, 0, 59, 51
1, 293208, Control_c, 0, 64, 72
1, 293212, Note_off_c, 0, 76, 65
1, 293223, Control_c, 0, 64, 65
1, 293237, Control_c, 0, 64, 52
1, 293252, Control_c, 0, 64, 0
1, 293341, Note_on_c, 0, 78, 66
1, 293371, Control_c, 0, 64, 45
1, 293386, Control_c, 0, 64, 60
1, 293401, Control_c, 0, 64, 65
1, 293416, Control_c, 0, 64, 71
1, 293430, Control_c, 0, 64, 79
1, 293445, Note_on_c, 0, 75, 57
1, 293445, Control_c, 0, 64, 86
1, 293460, Control_c, 0, 64, 92
1, 293475, Control_c, 0, 64, 95
1, 293489, Control_c, 0, 64, 98
1, 293504, Control_c, 0, 64, 100
1, 293519, Control_c, 0, 64, 102
1, 293561, Note_on_c, 0, 63, 55
1, 293562, Note_off_c, 0, 78, 56
1, 293577, Note_on_c, 0, 71, 60
1, 293578, Control_c, 0, 64, 101
1, 293600, Control_c, 0, 64, 92
1, 293606, Note_off_c, 0, 75, 61
1, 293615, Control_c, 0, 64, 77
1, 293630, Control_c, 0, 64, 65
1, 293645, Control_c, 0, 64, 48
1, 293660, Control_c, 0, 64, 0
1, 293698, Note_off_c, 0, 64, 54
1, 293704, Control_c, 0, 64, 37
1, 293710, Note_on_c, 0, 78, 63
1, 293719, Control_c, 0, 64, 56
1, 293734, Control_c, 0, 64, 63
1, 293749, Control_c, 0, 64, 68
1, 293763, Control_c, 0, 64, 80
1, 293778, Control_c, 0, 64, 108
1, 293791, Note_off_c, 0, 83, 54
1, 293793, Control_c, 0, 64, 127
1, 293825, Note_on_c, 0, 75, 62
1, 293857, Note_off_c, 0, 59, 56
1, 293950, Note_on_c, 0, 81, 78
1, 293957, Note_off_c, 0, 78, 58
1, 293982, Note_off_c, 0, 75, 61
1, 294060, Note_on_c, 0, 78, 74
1, 294142, Note_off_c, 0, 81, 59
1, 294164, Note_off_c, 0, 63, 38
1, 294169, Note_on_c, 0, 75, 72
1, 294184, Note_off_c, 0, 71, 35
1, 294202, Note_off_c, 0, 78, 62
1, 294319, Note_on_c, 0, 65, 61
1, 294336, Note_on_c, 0, 80, 75
1, 294338, Note_on_c, 0, 58, 52
1, 294344, Note_off_c, 0, 75, 59
1, 294349, Control_c, 0, 64, 95
1, 294364, Control_c, 0, 64, 76
1, 294379, Control_c, 0, 64, 63
1, 294393, Control_c, 0, 64, 22
1, 294408, Control_c, 0, 64, 0
1, 294471, Note_on_c, 0, 77, 68
1, 294512, Control_c, 0, 64, 42
1, 294527, Control_c, 0, 64, 58
1, 294542, Control_c, 0, 64, 63
1, 294557, Control_c, 0, 64, 67
1, 294564, Note_on_c, 0, 74, 65
1, 294572, Control_c, 0, 64, 73
1, 294586, Control_c, 0, 64, 83
1, 294601, Control_c, 0, 64, 94
1, 294616, Control_c, 0, 64, 102
1, 294632, Control_c, 0, 64, 106
1, 294646, Control_c, 0, 64, 107
1, 294669, Note_off_c, 0, 77, 37
1, 294687, Note_on_c, 0, 68, 72
1, 294697, Note_on_c, 0, 64, 71
1, 294706, Control_c, 0, 64, 105
1, 294721, Control_c, 0, 64, 92
1, 294736, Control_c, 0, 64, 75
1, 294749, Note_off_c, 0, 74, 50
1, 294751, Control_c, 0, 64, 61
1, 294766, Control_c, 0, 64, 10
1, 294781, Control_c, 0, 64, 0
1, 294802, Note_off_c, 0, 65, 38
1, 294810, Control_c, 0, 64, 38
1, 294818, Note_on_c, 0, 77, 72
1, 294825, Control_c, 0, 64, 57
1, 294840, Control_c, 0, 64, 64
1, 294854, Control_c, 0, 64, 70
1, 294869, Control_c, 0, 64, 79
1, 294884, Control_c, 0, 64, 89
1, 294899, Control_c, 0, 64, 93
1, 294905, Note_off_c, 0, 80, 56
1, 294914, Control_c, 0, 64, 95
1, 294927, Note_on_c, 0, 74, 76
1, 294928, Control_c, 0, 64, 95
1, 294941, Note_off_c, 0, 68, 34
1, 295032, Note_off_c, 0, 58, 60
1, 295032, Control_c, 0, 64, 94
1, 295047, Control_c, 0, 64, 88
1, 295058, Note_on_c, 0, 62, 67
1, 295060, Note_off_c, 0, 77, 28
1, 295061, Control_c, 0, 64, 76
1, 295064, Note_on_c, 0, 80, 80
1, 295084, Control_c, 0, 64, 64
1, 295099, Control_c, 0, 64, 37
1, 295114, Control_c, 0, 64, 0
1, 295158, Control_c, 0, 64, 36
1, 295168, Note_off_c, 0, 74, 59
1, 295173, Control_c, 0, 64, 61
1, 295183, Note_on_c, 0, 77, 77
1, 295188, Control_c, 0, 64, 68
1, 295203, Control_c, 0, 64, 76
1, 295217, Control_c, 0, 64, 85
1, 295232, Control_c, 0, 64, 89
1, 295243, Note_off_c, 0, 80, 60
1, 295247, Control_c, 0, 64, 90
1, 295261, Control_c, 0, 64, 92
1, 295288, Note_on_c, 0, 74, 72
1, 295306, Control_c, 0, 64, 92
1, 295351, Note_off_c, 0, 77, 55
1, 295380, Control_c, 0, 64, 92
1, 295395, Control_c, 0, 64, 90
1, 295409, Control_c, 0, 64, 87
1, 295424, Control_c, 0, 64, 83
1, 295436, Note_on_c, 0, 57, 45
1, 295439, Control_c, 0, 64, 76
1, 295454, Control_c, 0, 64, 69
1, 295458, Note_on_c, 0, 81, 76
1, 295468, Control_c, 0, 64, 64
1, 295475, Note_off_c, 0, 62, 50
1, 295483, Control_c, 0, 64, 58
1, 295496, Note_off_c, 0, 74, 62
1, 295498, Control_c, 0, 64, 51
1, 295514, Control_c, 0, 64, 40
1, 295529, Control_c, 0, 64, 0
1, 295611, Note_on_c, 0, 76, 66
1, 295706, Control_c, 0, 64, 29
1, 295721, Control_c, 0, 64, 43
1, 295731, Note_on_c, 0, 73, 57
1, 295736, Control_c, 0, 64, 52
1, 295750, Control_c, 0, 64, 58
1, 295765, Control_c, 0, 64, 62
1, 295780, Control_c, 0, 64, 63
1, 295795, Control_c, 0, 64, 64
1, 295810, Control_c, 0, 64, 66
1, 295814, Note_off_c, 0, 76, 39
1, 295832, Control_c, 0, 64, 68
1, 295844, Note_on_c, 0, 61, 46
1, 295847, Control_c, 0, 64, 72
1, 295850, Note_on_c, 0, 69, 61
1, 295862, Control_c, 0, 64, 78
1, 295873, Note_off_c, 0, 73, 52
1, 295877, Control_c, 0, 64, 84
1, 295891, Control_c, 0, 64, 90
1, 295906, Control_c, 0, 64, 97
1, 295921, Control_c, 0, 64, 108
1, 295936, Control_c, 0, 64, 127
1, 295969, Note_on_c, 0, 76, 57
1, 296038, Note_off_c, 0, 81, 55
1, 296053, Note_off_c, 0, 64, 37
1, 296070, Note_on_c, 0, 73, 62
1, 296098, Control_c, 0, 64, 106
1, 296113, Control_c, 0, 64, 85
1, 296128, Control_c, 0, 64, 76
1, 296143, Control_c, 0, 64, 75
1, 296173, Control_c, 0, 64, 79
1, 296188, Control_c, 0, 64, 94
1, 296188, Note_on_c, 0, 79, 76
1, 296188, Note_off_c, 0, 76, 48
1, 296203, Note_off_c, 0, 69, 44
1, 296203, Control_c, 0, 64, 125
1, 296205, Note_off_c, 0, 57, 41
1, 296217, Control_c, 0, 64, 127
1, 296237, Note_off_c, 0, 73, 55
1, 296239, Note_off_c, 0, 61, 59
1, 296301, Note_on_c, 0, 76, 71
1, 296366, Note_off_c, 0, 79, 56
1, 296400, Note_on_c, 0, 73, 66
1, 296412, Note_off_c, 0, 76, 63
1, 296564, Note_on_c, 0, 63, 56
1, 296569, Note_on_c, 0, 78, 79
1, 296582, Note_on_c, 0, 60, 50
1, 296587, Note_on_c, 0, 57, 50
1, 296589, Note_off_c, 0, 73, 57
1, 296596, Control_c, 0, 64, 111
1, 296611, Control_c, 0, 64, 91
1, 296626, Control_c, 0, 64, 77
1, 296640, Control_c, 0, 64, 66
1, 296655, Control_c, 0, 64, 51
1, 296670, Control_c, 0, 64, 0
1, 296731, Note_on_c, 0, 75, 64
1, 296788, Control_c, 0, 64, 49
1, 296803, Control_c, 0, 64, 59
1, 296818, Control_c, 0, 64, 62
1, 296832, Control_c, 0, 64, 65
1, 296847, Note_on_c, 0, 72, 61
1, 296847, Control_c, 0, 64, 67
1, 296862, Control_c, 0, 64, 71
1, 296877, Control_c, 0, 64, 74
1, 296892, Control_c, 0, 64, 77
1, 296906, Control_c, 0, 64, 81
1, 296921, Control_c, 0, 64, 85
1, 296936, Control_c, 0, 64, 87
1, 296944, Note_off_c, 0, 75, 59
1, 296951, Control_c, 0, 64, 89
1, 296957, Note_on_c, 0, 66, 64
1, 296966, Control_c, 0, 64, 90
1, 296981, Control_c, 0, 64, 91
1, 296989, Note_off_c, 0, 72, 61
1, 296996, Control_c, 0, 64, 92
1, 297011, Control_c, 0, 64, 93
1, 297025, Control_c, 0, 64, 94
1, 297082, Note_on_c, 0, 75, 63
1, 297180, Note_off_c, 0, 78, 59
1, 297187, Note_on_c, 0, 72, 69
1, 297222, Note_off_c, 0, 66, 38
1, 297263, Note_off_c, 0, 75, 50
1, 297263, Control_c, 0, 64, 91
1, 297278, Control_c, 0, 64, 87
1, 297293, Control_c, 0, 64, 80
1, 297308, Control_c, 0, 64, 69
1, 297323, Control_c, 0, 64, 59
1, 297343, Note_on_c, 0, 78, 66
1, 297344, Control_c, 0, 64, 40
1, 297359, Control_c, 0, 64, 38
1, 297374, Control_c, 0, 64, 45
1, 297389, Control_c, 0, 64, 54
1, 297404, Control_c, 0, 64, 61
1, 297419, Control_c, 0, 64, 65
1, 297425, Note_off_c, 0, 72, 51
1, 297434, Control_c, 0, 64, 69
1, 297449, Control_c, 0, 64, 77
1, 297463, Control_c, 0, 64, 84
1, 297478, Control_c, 0, 64, 87
1, 297484, Note_on_c, 0, 75, 58
1, 297493, Control_c, 0, 64, 88
1, 297508, Control_c, 0, 64, 89
1, 297523, Control_c, 0, 64, 90
1, 297552, Control_c, 0, 64, 90
1, 297577, Note_off_c, 0, 63, 27
1, 297600, Note_on_c, 0, 72, 46
1, 297606, Note_off_c, 0, 78, 39
1, 297701, Control_c, 0, 64, 90
1, 297716, Control_c, 0, 64, 89
1, 297730, Control_c, 0, 64, 87
1, 297745, Control_c, 0, 64, 84
1, 297751, Note_off_c, 0, 57, 38
1, 297760, Control_c, 0, 64, 79
1, 297768, Note_on_c, 0, 56, 38
1, 297771, Note_off_c, 0, 72, 49
1, 297775, Control_c, 0, 64, 74
1, 297775, Note_on_c, 0, 77, 57
1, 297777, Note_off_c, 0, 75, 21
1, 297780, Note_on_c, 0, 62, 37
1, 297788, Note_on_c, 0, 59, 24
1, 297789, Control_c, 0, 64, 68
1, 297793, Note_off_c, 0, 60, 27
1, 297804, Control_c, 0, 64, 64
1, 297819, Control_c, 0, 64, 55
1, 297834, Control_c, 0, 64, 43
1, 297849, Control_c, 0, 64, 23
1, 297863, Control_c, 0, 64, 0
1, 297920, Note_on_c, 0, 74, 51
1, 297953, Control_c, 0, 64, 39
1, 297968, Control_c, 0, 64, 53
1, 297983, Control_c, 0, 64, 60
1, 297998, Control_c, 0, 64, 63
1, 298013, Control_c, 0, 64, 66
1, 298027, Control_c, 0, 64, 69
1, 298042, Control_c, 0, 64, 74
1, 298056, Note_on_c, 0, 71, 42
1, 298057, Control_c, 0, 64, 81
1, 298072, Control_c, 0, 64, 85
1, 298094, Control_c, 0, 64, 88
1, 298109, Control_c, 0, 64, 91
1, 298124, Control_c, 0, 64, 95
1, 298130, Note_off_c, 0, 74, 39
1, 298139, Control_c, 0, 64, 97
1, 298152, Note_off_c, 0, 71, 59
1, 298154, Control_c, 0, 64, 98
1, 298163, Note_on_c, 0, 65, 47
1, 298168, Control_c, 0, 64, 99
1, 298198, Control_c, 0, 64, 100
1, 298213, Control_c, 0, 64, 100
1, 298242, Control_c, 0, 64, 101
1, 298253, Note_on_c, 0, 74, 50
1, 298325, Note_off_c, 0, 77, 35
1, 298375, Note_off_c, 0, 74, 51
1, 298380, Note_on_c, 0, 71, 53
1, 298424, Note_off_c, 0, 56, 32
1, 298459, Note_off_c, 0, 65, 37
1, 298479, Control_c, 0, 64, 99
1, 298486, Note_off_c, 0, 62, 39
1, 298494, Control_c, 0, 64, 94
1, 298509, Control_c, 0, 64, 83
1, 298510, Note_off_c, 0, 59, 36
1, 298512, Note_on_c, 0, 76, 59
1, 298517, Note_off_c, 0, 71, 54
1, 298519, Note_on_c, 0, 60, 42
1, 298519, Note_on_c, 0, 57, 33
1, 298524, Control_c, 0, 64, 70
1, 298539, Control_c, 0, 64, 59
1, 298553, Control_c, 0, 64, 46
1, 298568, Control_c, 0, 64, 54
1, 298583, Control_c, 0, 64, 61
1, 298597, Control_c, 0, 64, 65
1, 298612, Control_c, 0, 64, 68
1, 298627, Control_c, 0, 64, 75
1, 298629, Note_off_c, 0, 60, 59
1, 298642, Control_c, 0, 64, 85
1, 298654, Note_on_c, 0, 72, 46
1, 298657, Control_c, 0, 64, 92
1, 298662, Note_off_c, 0, 57, 52
1, 298671, Control_c, 0, 64, 93
1, 298687, Note_off_c, 0, 76, 45
1, 298758, Note_on_c, 0, 69, 50
1, 298781, Note_off_c, 0, 72, 43
1, 298873, Control_c, 0, 64, 93
1, 298888, Control_c, 0, 64, 91
1, 298895, Note_off_c, 0, 69, 58
1, 298903, Control_c, 0, 64, 89
1, 298903, Note_on_c, 0, 74, 55
1, 298912, Note_on_c, 0, 58, 33
1, 298917, Control_c, 0, 64, 85
1, 298932, Control_c, 0, 64, 80
1, 298937, Note_on_c, 0, 50, 35
1, 298947, Control_c, 0, 64, 75
1, 298962, Control_c, 0, 64, 68
1, 298977, Control_c, 0, 64, 61
1, 298991, Control_c, 0, 64, 41
1, 299006, Control_c, 0, 64, 0
1, 299054, Note_on_c, 0, 70, 49
1, 299080, Control_c, 0, 64, 43
1, 299095, Control_c, 0, 64, 55
1, 299109, Control_c, 0, 64, 62
1, 299124, Control_c, 0, 64, 65
1, 299139, Control_c, 0, 64, 68
1, 299154, Control_c, 0, 64, 71
1, 299169, Control_c, 0, 64, 75
1, 299175, Note_off_c, 0, 70, 54
1, 299178, Note_on_c, 0, 65, 42
1, 299183, Control_c, 0, 64, 78
1, 299198, Control_c, 0, 64, 80
1, 299213, Control_c, 0, 64, 82
1, 299227, Control_c, 0, 64, 84
1, 299242, Control_c, 0, 64, 87
1, 299257, Control_c, 0, 64, 88
1, 299272, Control_c, 0, 64, 88
1, 299286, Note_on_c, 0, 62, 44
1, 299372, Note_off_c, 0, 65, 24
1, 299398, Note_off_c, 0, 58, 42
1, 299408, Note_on_c, 0, 70, 49
1, 299510, Note_off_c, 0, 74, 41
1, 299512, Note_on_c, 0, 65, 45
1, 299541, Note_off_c, 0, 62, 28
1, 299554, Control_c, 0, 64, 88
1, 299577, Control_c, 0, 64, 86
1, 299592, Control_c, 0, 64, 84
1, 299606, Control_c, 0, 64, 79
1, 299621, Control_c, 0, 64, 73
1, 299633, Note_off_c, 0, 50, 31
1, 299636, Control_c, 0, 64, 64
1, 299647, Note_on_c, 0, 57, 35
1, 299651, Control_c, 0, 64, 53
1, 299652, Note_off_c, 0, 65, 53
1, 299659, Note_on_c, 0, 51, 34
1, 299665, Control_c, 0, 64, 27
1, 299671, Note_on_c, 0, 72, 57
1, 299675, Note_off_c, 0, 70, 35
1, 299680, Control_c, 0, 64, 19
1, 299695, Control_c, 0, 64, 38
1, 299710, Control_c, 0, 64, 53
1, 299724, Control_c, 0, 64, 60
1, 299739, Control_c, 0, 64, 64
1, 299745, Note_off_c, 0, 57, 51
1, 299754, Control_c, 0, 64, 68
1, 299769, Control_c, 0, 64, 73
1, 299784, Control_c, 0, 64, 76
1, 299794, Note_on_c, 0, 69, 45
1, 299799, Control_c, 0, 64, 78
1, 299813, Control_c, 0, 64, 79
1, 299827, Note_off_c, 0, 72, 59
1, 299828, Control_c, 0, 64, 79
1, 299882, Note_off_c, 0, 69, 63
1, 299905, Note_on_c, 0, 66, 55
1, 299932, Control_c, 0, 64, 79
1, 299947, Control_c, 0, 64, 76
1, 299962, Control_c, 0, 64, 70
1, 299977, Control_c, 0, 64, 63
1, 299991, Note_off_c, 0, 51, 49
1, 299991, Control_c, 0, 64, 45
1, 300006, Control_c, 0, 64, 0
1, 300020, Note_on_c, 0, 52, 56
1, 300036, Note_on_c, 0, 71, 58
1, 300037, Note_off_c, 0, 66, 53
1, 300039, Note_on_c, 0, 68, 57
1, 300050, Control_c, 0, 64, 40
1, 300065, Control_c, 0, 64, 55
1, 300080, Control_c, 0, 64, 61
1, 300095, Control_c, 0, 64, 64
1, 300110, Control_c, 0, 64, 65
1, 300152, Note_on_c, 0, 40, 63
1, 300166, Note_off_c, 0, 52, 51
1, 300198, Control_c, 0, 64, 65
1, 300213, Control_c, 0, 64, 64
1, 300228, Control_c, 0, 64, 64
1, 300243, Control_c, 0, 64, 62
1, 300257, Control_c, 0, 64, 60
1, 300272, Control_c, 0, 64, 58
1, 300273, Note_on_c, 0, 41, 66
1, 300278, Note_off_c, 0, 71, 46
1, 300285, Note_off_c, 0, 40, 61
1, 300287, Control_c, 0, 64, 56
1, 300303, Control_c, 0, 64, 51
1, 300325, Control_c, 0, 64, 48
1, 300340, Control_c, 0, 64, 47
1, 300344, Note_off_c, 0, 68, 54
1, 300355, Control_c, 0, 64, 44
1, 300370, Control_c, 0, 64, 41
1, 300385, Control_c, 0, 64, 37
1, 300400, Control_c, 0, 64, 34
1, 300403, Note_on_c, 0, 42, 75
1, 300415, Control_c, 0, 64, 29
1, 300429, Control_c, 0, 64, 22
1, 300437, Note_off_c, 0, 41, 65
1, 300444, Control_c, 0, 64, 0
1, 300525, Note_on_c, 0, 43, 84
1, 300543, Note_off_c, 0, 42, 63
1, 300638, Note_on_c, 0, 44, 72
1, 300667, Note_off_c, 0, 43, 59
1, 300677, Note_on_c, 0, 45, 61
1, 300748, Note_off_c, 0, 45, 0
1, 300773, Note_on_c, 0, 74, 81
1, 300777, Note_on_c, 0, 64, 72
1, 300778, Note_on_c, 0, 45, 31
1, 300781, Note_on_c, 0, 71, 69
1, 300790, Note_off_c, 0, 44, 62
1, 300877, Note_off_c, 0, 45, 62
1, 300883, Note_on_c, 0, 46, 68
1, 300903, Control_c, 0, 64, 10
1, 300918, Control_c, 0, 64, 48
1, 300933, Control_c, 0, 64, 57
1, 300947, Control_c, 0, 64, 60
1, 300962, Control_c, 0, 64, 60
1, 300992, Control_c, 0, 64, 60
1, 301006, Note_on_c, 0, 47, 72
1, 301014, Note_off_c, 0, 46, 62
1, 301036, Control_c, 0, 64, 59
1, 301051, Control_c, 0, 64, 59
1, 301066, Control_c, 0, 64, 58
1, 301088, Control_c, 0, 64, 56
1, 301103, Control_c, 0, 64, 53
1, 301118, Control_c, 0, 64, 51
1, 301133, Note_on_c, 0, 48, 67
1, 301133, Control_c, 0, 64, 46
1, 301142, Note_off_c, 0, 47, 61
1, 301145, Note_on_c, 0, 72, 76
1, 301148, Control_c, 0, 64, 40
1, 301163, Control_c, 0, 64, 31
1, 301178, Control_c, 0, 64, 0
1, 301249, Note_on_c, 0, 44, 62
1, 301294, Note_off_c, 0, 48, 50
1, 301371, Note_on_c, 0, 45, 67
1, 301404, Note_off_c, 0, 44, 58
1, 301413, Note_off_c, 0, 74, 39
1, 301475, Control_c, 0, 64, 26
1, 301483, Note_on_c, 0, 46, 74
1, 301490, Control_c, 0, 64, 42
1, 301500, Note_off_c, 0, 45, 58
1, 301504, Control_c, 0, 64, 51
1, 301519, Control_c, 0, 64, 54
1, 301534, Control_c, 0, 64, 56
1, 301549, Control_c, 0, 64, 58
1, 301564, Control_c, 0, 64, 60
1, 301578, Control_c, 0, 64, 62
1, 301596, Note_on_c, 0, 47, 72
1, 301599, Note_off_c, 0, 46, 62
1, 301708, Note_on_c, 0, 48, 72
1, 301711, Control_c, 0, 64, 61
1, 301723, Note_off_c, 0, 47, 52
1, 301726, Control_c, 0, 64, 60
1, 301741, Control_c, 0, 64, 59
1, 301756, Control_c, 0, 64, 58
1, 301771, Control_c, 0, 64, 52
1, 301786, Control_c, 0, 64, 35
1, 301801, Control_c, 0, 64, 0
1, 301840, Note_on_c, 0, 49, 61
1, 301853, Note_on_c, 0, 69, 73
1, 301859, Note_off_c, 0, 48, 46
1, 301883, Note_off_c, 0, 71, 49
1, 301897, Control_c, 0, 64, 38
1, 301913, Control_c, 0, 64, 50
1, 301927, Control_c, 0, 64, 54
1, 301942, Control_c, 0, 64, 57
1, 301957, Control_c, 0, 64, 58
1, 301960, Note_on_c, 0, 50, 65
1, 301961, Note_off_c, 0, 49, 61
1, 302060, Control_c, 0, 64, 57
1, 302071, Note_off_c, 0, 50, 61
1, 302075, Note_on_c, 0, 51, 62
1, 302090, Note_off_c, 0, 69, 65
1, 302090, Control_c, 0, 64, 56
1, 302105, Control_c, 0, 64, 54
1, 302120, Control_c, 0, 64, 50
1, 302135, Control_c, 0, 64, 43
1, 302150, Control_c, 0, 64, 32
1, 302165, Control_c, 0, 64, 0
1, 302200, Note_on_c, 0, 52, 64
1, 302200, Note_off_c, 0, 51, 58
1, 302206, Note_on_c, 0, 71, 57
1, 302209, Control_c, 0, 64, 23
1, 302214, Note_on_c, 0, 68, 58
1, 302224, Control_c, 0, 64, 41
1, 302236, Note_off_c, 0, 52, 68
1, 302239, Control_c, 0, 64, 45
1, 302253, Control_c, 0, 64, 44
1, 302268, Control_c, 0, 64, 41
1, 302280, Note_off_c, 0, 72, 61
1, 302283, Control_c, 0, 64, 36
1, 302298, Control_c, 0, 64, 23
1, 302313, Control_c, 0, 64, 0
1, 302332, Note_on_c, 0, 52, 61
1, 302370, Note_off_c, 0, 64, 43
1, 302401, Control_c, 0, 64, 36
1, 302416, Control_c, 0, 64, 51
1, 302431, Control_c, 0, 64, 56
1, 302442, Note_off_c, 0, 52, 64
1, 302445, Control_c, 0, 64, 59
1, 302450, Note_on_c, 0, 53, 59
1, 302460, Control_c, 0, 64, 61
1, 302475, Control_c, 0, 64, 62
1, 302490, Control_c, 0, 64, 63
1, 302505, Control_c, 0, 64, 64
1, 302515, Note_off_c, 0, 68, 62
1, 302519, Control_c, 0, 64, 65
1, 302553, Note_off_c, 0, 71, 60
1, 302564, Note_off_c, 0, 53, 61
1, 302578, Note_on_c, 0, 54, 64
1, 302616, Control_c, 0, 64, 64
1, 302631, Control_c, 0, 64, 64
1, 302646, Control_c, 0, 64, 63
1, 302660, Control_c, 0, 64, 63
1, 302678, Note_off_c, 0, 54, 62
1, 302688, Note_on_c, 0, 55, 61
1, 302706, Control_c, 0, 64, 62
1, 302721, Control_c, 0, 64, 61
1, 302736, Control_c, 0, 64, 61
1, 302750, Control_c, 0, 64, 60
1, 302765, Control_c, 0, 64, 60
1, 302780, Control_c, 0, 64, 59
1, 302794, Note_off_c, 0, 55, 61
1, 302795, Control_c, 0, 64, 58
1, 302808, Note_on_c, 0, 56, 48
1, 302809, Control_c, 0, 64, 57
1, 302824, Control_c, 0, 64, 57
1, 302839, Control_c, 0, 64, 56
1, 302854, Control_c, 0, 64, 55
1, 302869, Control_c, 0, 64, 54
1, 302883, Control_c, 0, 64, 53
1, 302908, Note_off_c, 0, 56, 58
1, 302928, Control_c, 0, 64, 53
1, 302937, Note_on_c, 0, 57, 53
1, 302943, Control_c, 0, 64, 52
1, 302948, Note_on_c, 0, 83, 57
1, 302957, Control_c, 0, 64, 52
1, 302962, Note_on_c, 0, 74, 40
1, 302972, Control_c, 0, 64, 51
1, 302987, Note_on_c, 0, 76, 39
1, 302987, Control_c, 0, 64, 51
1, 303002, Control_c, 0, 64, 50
1, 303032, Control_c, 0, 64, 50
1, 303035, Note_off_c, 0, 57, 57
1, 303047, Control_c, 0, 64, 49
1, 303056, Note_on_c, 0, 58, 53
1, 303062, Control_c, 0, 64, 49
1, 303076, Control_c, 0, 64, 48
1, 303091, Control_c, 0, 64, 47
1, 303106, Control_c, 0, 64, 46
1, 303121, Control_c, 0, 64, 46
1, 303136, Control_c, 0, 64, 45
1, 303150, Control_c, 0, 64, 45
1, 303156, Note_off_c, 0, 74, 63
1, 303158, Note_off_c, 0, 58, 56
1, 303165, Control_c, 0, 64, 44
1, 303175, Note_on_c, 0, 59, 49
1, 303180, Control_c, 0, 64, 42
1, 303194, Control_c, 0, 64, 40
1, 303209, Control_c, 0, 64, 37
1, 303224, Control_c, 0, 64, 33
1, 303239, Control_c, 0, 64, 27
1, 303254, Control_c, 0, 64, 20
1, 303268, Control_c, 0, 64, 0
1, 303322, Note_off_c, 0, 59, 43
1, 303326, Note_on_c, 0, 60, 38
1, 303332, Note_on_c, 0, 72, 47
1, 303409, Control_c, 0, 64, 22
1, 303424, Control_c, 0, 64, 32
1, 303439, Control_c, 0, 64, 38
1, 303445, Note_on_c, 0, 56, 42
1, 303454, Control_c, 0, 64, 43
1, 303469, Control_c, 0, 64, 48
1, 303483, Note_off_c, 0, 60, 32
1, 303483, Control_c, 0, 64, 51
1, 303499, Control_c, 0, 64, 53
1, 303514, Control_c, 0, 64, 54
1, 303529, Control_c, 0, 64, 55
1, 303544, Control_c, 0, 64, 56
1, 303559, Control_c, 0, 64, 57
1, 303573, Control_c, 0, 64, 58
1, 303580, Note_on_c, 0, 57, 42
1, 303603, Control_c, 0, 64, 58
1, 303637, Note_off_c, 0, 56, 36
1, 303706, Note_on_c, 0, 58, 48
1, 303726, Note_off_c, 0, 57, 36
1, 303765, Control_c, 0, 64, 58
1, 303793, Note_off_c, 0, 83, 40
1, 303816, Note_off_c, 0, 58, 63
1, 303834, Note_on_c, 0, 59, 48
1, 303934, Note_off_c, 0, 59, 56
1, 303942, Control_c, 0, 64, 57
1, 303953, Note_on_c, 0, 60, 39
1, 303957, Control_c, 0, 64, 57
1, 304031, Control_c, 0, 64, 56
1, 304045, Control_c, 0, 64, 55
1, 304060, Control_c, 0, 64, 52
1, 304083, Control_c, 0, 64, 45
1, 304097, Control_c, 0, 64, 36
1, 304099, Note_on_c, 0, 81, 50
1, 304106, Note_off_c, 0, 60, 41
1, 304108, Note_on_c, 0, 61, 46
1, 304112, Control_c, 0, 64, 0
1, 304171, Control_c, 0, 64, 37
1, 304186, Control_c, 0, 64, 48
1, 304194, Note_off_c, 0, 61, 62
1, 304196, Note_off_c, 0, 76, 46
1, 304201, Control_c, 0, 64, 53
1, 304216, Control_c, 0, 64, 57
1, 304218, Note_off_c, 0, 72, 45
1, 304224, Note_on_c, 0, 62, 46
1, 304230, Control_c, 0, 64, 60
1, 304245, Control_c, 0, 64, 61
1, 304260, Control_c, 0, 64, 62
1, 304308, Note_off_c, 0, 62, 56
1, 304339, Note_on_c, 0, 63, 40
1, 304350, Control_c, 0, 64, 61
1, 304380, Control_c, 0, 64, 61
1, 304394, Control_c, 0, 64, 60
1, 304409, Control_c, 0, 64, 58
1, 304424, Control_c, 0, 64, 52
1, 304439, Control_c, 0, 64, 37
1, 304454, Control_c, 0, 64, 0
1, 304490, Note_on_c, 0, 71, 40
1, 304493, Note_on_c, 0, 80, 49
1, 304506, Note_on_c, 0, 64, 31
1, 304528, Control_c, 0, 64, 34
1, 304534, Note_off_c, 0, 63, 46
1, 304538, Note_off_c, 0, 71, 54
1, 304540, Note_off_c, 0, 81, 52
1, 304543, Control_c, 0, 64, 53
1, 304558, Control_c, 0, 64, 59
1, 304572, Control_c, 0, 64, 61
1, 304587, Control_c, 0, 64, 63
1, 304602, Control_c, 0, 64, 64
1, 304617, Control_c, 0, 64, 65
1, 304632, Control_c, 0, 64, 65
1, 304680, Note_off_c, 0, 80, 63
1, 304695, Note_on_c, 0, 76, 64
1, 304779, Control_c, 0, 64, 65
1, 304809, Control_c, 0, 64, 64
1, 304862, Note_on_c, 0, 80, 71
1, 304891, Control_c, 0, 64, 64
1, 304935, Control_c, 0, 64, 63
1, 304943, Note_off_c, 0, 76, 37
1, 304947, Note_off_c, 0, 64, 37
1, 305000, Note_on_c, 0, 83, 77
1, 305043, Note_off_c, 0, 80, 63
1, 305068, Control_c, 0, 64, 63
1, 305135, Note_on_c, 0, 88, 82
1, 305165, Note_off_c, 0, 83, 62
1, 305233, Control_c, 0, 64, 62
1, 305250, Note_on_c, 0, 83, 77
1, 305277, Control_c, 0, 64, 62
1, 305279, Note_off_c, 0, 88, 64
1, 305322, Control_c, 0, 64, 61
1, 305336, Control_c, 0, 64, 60
1, 305351, Control_c, 0, 64, 60
1, 305366, Control_c, 0, 64, 58
1, 305369, Note_on_c, 0, 80, 82
1, 305381, Control_c, 0, 64, 57
1, 305388, Note_off_c, 0, 83, 62
1, 305396, Control_c, 0, 64, 56
1, 305411, Control_c, 0, 64, 54
1, 305426, Control_c, 0, 64, 51
1, 305441, Control_c, 0, 64, 47
1, 305455, Control_c, 0, 64, 41
1, 305470, Control_c, 0, 64, 28
1, 305482, Note_on_c, 0, 83, 79
1, 305485, Control_c, 0, 64, 0
1, 305499, Note_off_c, 0, 80, 59
1, 305603, Note_on_c, 0, 80, 76
1, 305662, Note_off_c, 0, 83, 46
1, 305711, Note_on_c, 0, 76, 72
1, 305724, Note_off_c, 0, 80, 63
1, 305827, Note_off_c, 0, 76, 63
1, 305828, Note_on_c, 0, 80, 69
1, 305876, Control_c, 0, 64, 29
1, 305892, Control_c, 0, 64, 39
1, 305907, Control_c, 0, 64, 39
1, 305922, Control_c, 0, 64, 40
1, 305935, Note_on_c, 0, 76, 70
1, 305937, Control_c, 0, 64, 42
1, 305952, Control_c, 0, 64, 44
1, 305966, Control_c, 0, 64, 46
1, 305981, Control_c, 0, 64, 48
1, 305996, Control_c, 0, 64, 50
1, 306000, Note_off_c, 0, 80, 58
1, 306010, Control_c, 0, 64, 53
1, 306025, Control_c, 0, 64, 56
1, 306034, Note_on_c, 0, 59, 52
1, 306040, Control_c, 0, 64, 58
1, 306043, Note_off_c, 0, 76, 61
1, 306055, Control_c, 0, 64, 58
1, 306056, Note_on_c, 0, 71, 67
1, 306070, Control_c, 0, 64, 59
1, 306084, Control_c, 0, 64, 60
1, 306114, Control_c, 0, 64, 60
1, 306129, Control_c, 0, 64, 61
1, 306162, Note_off_c, 0, 71, 59
1, 306162, Note_on_c, 0, 64, 53
1, 306165, Note_off_c, 0, 59, 60
1, 306171, Note_on_c, 0, 76, 61
1, 306174, Control_c, 0, 64, 60
1, 306233, Control_c, 0, 64, 60
1, 306248, Control_c, 0, 64, 59
1, 306275, Note_off_c, 0, 64, 39
1, 306283, Note_on_c, 0, 59, 64
1, 306288, Note_on_c, 0, 71, 66
1, 306302, Note_off_c, 0, 76, 50
1, 306329, Control_c, 0, 64, 59
1, 306374, Control_c, 0, 64, 58
1, 306401, Note_off_c, 0, 59, 57
1, 306403, Control_c, 0, 64, 58
1, 306406, Note_on_c, 0, 56, 56
1, 306412, Note_on_c, 0, 68, 69
1, 306418, Control_c, 0, 64, 57
1, 306439, Note_off_c, 0, 71, 61
1, 306448, Control_c, 0, 64, 57
1, 306492, Control_c, 0, 64, 56
1, 306507, Control_c, 0, 64, 56
1, 306514, Note_off_c, 0, 56, 62
1, 306520, Note_on_c, 0, 59, 60
1, 306532, Note_on_c, 0, 71, 73
1, 306537, Control_c, 0, 64, 55
1, 306538, Note_off_c, 0, 68, 64
1, 306551, Control_c, 0, 64, 55
1, 306566, Control_c, 0, 64, 54
1, 306581, Control_c, 0, 64, 53
1, 306625, Control_c, 0, 64, 53
1, 306632, Note_off_c, 0, 59, 59
1, 306636, Note_on_c, 0, 56, 60
1, 306640, Control_c, 0, 64, 52
1, 306645, Note_on_c, 0, 68, 73
1, 306655, Control_c, 0, 64, 51
1, 306670, Control_c, 0, 64, 50
1, 306685, Control_c, 0, 64, 50
1, 306701, Control_c, 0, 64, 49
1, 306716, Control_c, 0, 64, 49
1, 306718, Note_off_c, 0, 71, 37
1, 306730, Control_c, 0, 64, 48
1, 306742, Note_on_c, 0, 64, 67
1, 306743, Note_off_c, 0, 56, 58
1, 306745, Control_c, 0, 64, 46
1, 306749, Note_on_c, 0, 52, 55
1, 306755, Note_off_c, 0, 68, 61
1, 306759, Control_c, 0, 64, 44
1, 306774, Control_c, 0, 64, 42
1, 306789, Control_c, 0, 64, 40
1, 306804, Control_c, 0, 64, 38
1, 306819, Control_c, 0, 64, 35
1, 306834, Control_c, 0, 64, 28
1, 306848, Control_c, 0, 64, 10
1, 306849, Note_off_c, 0, 52, 66
1, 306859, Note_off_c, 0, 64, 58
1, 306860, Note_on_c, 0, 68, 71
1, 306861, Note_on_c, 0, 56, 58
1, 306863, Control_c, 0, 64, 0
1, 306967, Note_off_c, 0, 56, 60
1, 306972, Note_on_c, 0, 52, 67
1, 306974, Note_on_c, 0, 64, 68
1, 307014, Note_off_c, 0, 68, 54
1, 307080, Note_off_c, 0, 52, 63
1, 307089, Note_on_c, 0, 47, 57
1, 307092, Note_off_c, 0, 64, 62
1, 307097, Note_on_c, 0, 59, 65
1, 307201, Note_off_c, 0, 59, 58
1, 307205, Note_on_c, 0, 64, 68
1, 307209, Note_off_c, 0, 47, 63
1, 307216, Note_on_c, 0, 52, 59
1, 307315, Note_on_c, 0, 59, 67
1, 307319, Note_off_c, 0, 64, 59
1, 307330, Note_off_c, 0, 52, 40
1, 307331, Note_on_c, 0, 47, 62
1, 307420, Note_off_c, 0, 47, 61
1, 307420, Note_off_c, 0, 59, 63
1, 307429, Note_on_c, 0, 56, 60
1, 307432, Note_on_c, 0, 44, 56
1, 307522, Note_off_c, 0, 44, 63
1, 307524, Note_off_c, 0, 56, 62
1, 307542, Note_on_c, 0, 59, 58
1, 307542, Note_on_c, 0, 47, 57
1, 307653, Note_on_c, 0, 56, 56
1, 307666, Note_on_c, 0, 44, 43
1, 307691, Note_off_c, 0, 47, 34
1, 307702, Note_off_c, 0, 59, 36
1, 307790, Note_on_c, 0, 52, 58
1, 307794, Note_off_c, 0, 56, 61
1, 307800, Note_on_c, 0, 40, 46
1, 307849, Note_off_c, 0, 44, 36
1, 307885, Note_off_c, 0, 52, 64
1, 308074, Note_on_c, 0, 44, 58
1, 308117, Note_off_c, 0, 44, 60
1, 308126, Note_off_c, 0, 40, 56
1, 308195, Note_on_c, 0, 47, 63
1, 308315, Note_on_c, 0, 43, 60
1, 308347, Note_off_c, 0, 47, 63
1, 308414, Note_off_c, 0, 43, 59
1, 308418, Note_on_c, 0, 44, 63
1, 308458, Note_off_c, 0, 44, 64
1, 308538, Note_on_c, 0, 52, 68
1, 308662, Note_on_c, 0, 46, 70
1, 308686, Note_off_c, 0, 52, 65
1, 308753, Note_off_c, 0, 46, 64
1, 308755, Note_on_c, 0, 47, 75
1, 308814, Note_off_c, 0, 47, 63
1, 308866, Note_on_c, 0, 56, 68
1, 308996, Note_on_c, 0, 51, 71
1, 309075, Note_off_c, 0, 56, 61
1, 309100, Note_on_c, 0, 52, 72
1, 309102, Note_off_c, 0, 51, 62
1, 309150, Note_off_c, 0, 52, 64
1, 309196, Note_on_c, 0, 59, 74
1, 309304, Control_c, 0, 64, 45
1, 309320, Note_on_c, 0, 55, 69
1, 309325, Control_c, 0, 64, 58
1, 309340, Control_c, 0, 64, 59
1, 309346, Note_off_c, 0, 59, 63
1, 309355, Control_c, 0, 64, 60
1, 309369, Control_c, 0, 64, 61
1, 309384, Control_c, 0, 64, 62
1, 309429, Control_c, 0, 64, 61
1, 309433, Note_on_c, 0, 56, 73
1, 309444, Control_c, 0, 64, 61
1, 309448, Note_off_c, 0, 55, 60
1, 309459, Control_c, 0, 64, 60
1, 309474, Control_c, 0, 64, 60
1, 309489, Control_c, 0, 64, 58
1, 309504, Control_c, 0, 64, 54
1, 309507, Note_off_c, 0, 56, 59
1, 309518, Control_c, 0, 64, 47
1, 309531, Note_on_c, 0, 64, 63
1, 309533, Control_c, 0, 64, 34
1, 309548, Control_c, 0, 64, 0
1, 309635, Control_c, 0, 64, 41
1, 309650, Control_c, 0, 64, 54
1, 309661, Note_on_c, 0, 58, 63
1, 309665, Control_c, 0, 64, 59
1, 309677, Note_off_c, 0, 64, 64
1, 309680, Control_c, 0, 64, 62
1, 309695, Control_c, 0, 64, 64
1, 309709, Control_c, 0, 64, 65
1, 309724, Control_c, 0, 64, 67
1, 309739, Control_c, 0, 64, 68
1, 309758, Note_off_c, 0, 58, 64
1, 309767, Note_on_c, 0, 59, 70
1, 309873, Control_c, 0, 64, 67
1, 309888, Control_c, 0, 64, 67
1, 309903, Control_c, 0, 64, 66
1, 309906, Note_on_c, 0, 68, 67
1, 309918, Control_c, 0, 64, 65
1, 309933, Control_c, 0, 64, 64
1, 309935, Note_off_c, 0, 59, 36
1, 309948, Control_c, 0, 64, 62
1, 309963, Control_c, 0, 64, 59
1, 309977, Control_c, 0, 64, 55
1, 309992, Control_c, 0, 64, 47
1, 310007, Control_c, 0, 64, 33
1, 310022, Control_c, 0, 64, 0
1, 310061, Note_on_c, 0, 63, 63
1, 310150, Note_off_c, 0, 68, 61
1, 310185, Note_on_c, 0, 64, 70
1, 310213, Note_off_c, 0, 63, 62
1, 310290, Note_on_c, 0, 68, 69
1, 310338, Note_off_c, 0, 64, 54
1, 310423, Note_on_c, 0, 63, 69
1, 310493, Note_off_c, 0, 68, 58
1, 310523, Note_on_c, 0, 64, 65
1, 310553, Note_off_c, 0, 63, 57
1, 310634, Note_on_c, 0, 68, 64
1, 310684, Note_off_c, 0, 64, 54
1, 310762, Note_on_c, 0, 63, 59
1, 310847, Note_off_c, 0, 68, 53
1, 310886, Note_on_c, 0, 64, 57
1, 310893, Note_off_c, 0, 63, 59
1, 311025, Note_on_c, 0, 69, 58
1, 311049, Note_off_c, 0, 64, 39
1, 311173, Note_on_c, 0, 64, 51
1, 311207, Control_c, 0, 64, 26
1, 311222, Control_c, 0, 64, 37
1, 311237, Control_c, 0, 64, 43
1, 311252, Control_c, 0, 64, 46
1, 311267, Control_c, 0, 64, 49
1, 311269, Note_off_c, 0, 69, 58
1, 311281, Control_c, 0, 64, 51
1, 311296, Control_c, 0, 64, 53
1, 311306, Note_on_c, 0, 65, 49
1, 311311, Control_c, 0, 64, 54
1, 311326, Control_c, 0, 64, 54
1, 311340, Control_c, 0, 64, 55
1, 311344, Note_off_c, 0, 64, 37
1, 311400, Control_c, 0, 64, 54
1, 311414, Control_c, 0, 64, 54
1, 311416, Note_on_c, 0, 69, 47
1, 311428, Note_off_c, 0, 65, 53
1, 311429, Control_c, 0, 64, 53
1, 311444, Control_c, 0, 64, 52
1, 311459, Control_c, 0, 64, 52
1, 311474, Control_c, 0, 64, 51
1, 311490, Control_c, 0, 64, 51
1, 311504, Control_c, 0, 64, 50
1, 311519, Control_c, 0, 64, 49
1, 311534, Control_c, 0, 64, 49
1, 311556, Control_c, 0, 64, 48
1, 311557, Note_on_c, 0, 65, 51
1, 311571, Control_c, 0, 64, 48
1, 311586, Control_c, 0, 64, 47
1, 311601, Control_c, 0, 64, 46
1, 311616, Control_c, 0, 64, 45
1, 311617, Note_off_c, 0, 69, 42
1, 311660, Control_c, 0, 64, 44
1, 311662, Note_on_c, 0, 66, 50
1, 311690, Control_c, 0, 64, 44
1, 311703, Note_off_c, 0, 65, 37
1, 311719, Control_c, 0, 64, 43
1, 311749, Control_c, 0, 64, 43
1, 311763, Control_c, 0, 64, 42
1, 311772, Note_on_c, 0, 69, 49
1, 311778, Control_c, 0, 64, 42
1, 311793, Control_c, 0, 64, 41
1, 311814, Note_off_c, 0, 66, 37
1, 311838, Control_c, 0, 64, 41
1, 311853, Control_c, 0, 64, 40
1, 311868, Control_c, 0, 64, 40
1, 311883, Control_c, 0, 64, 39
1, 311902, Note_on_c, 0, 65, 51
1, 311927, Control_c, 0, 64, 39
1, 311935, Note_off_c, 0, 69, 50
1, 311942, Control_c, 0, 64, 38
1, 311957, Control_c, 0, 64, 38
1, 311987, Control_c, 0, 64, 37
1, 312011, Note_on_c, 0, 66, 40
1, 312016, Control_c, 0, 64, 37
1, 312025, Note_off_c, 0, 65, 47
1, 312031, Control_c, 0, 64, 36
1, 312046, Control_c, 0, 64, 36
1, 312061, Control_c, 0, 64, 35
1, 312076, Control_c, 0, 64, 35
1, 312123, Note_on_c, 0, 70, 51
1, 312125, Note_off_c, 0, 66, 54
1, 312135, Control_c, 0, 64, 36
1, 312150, Control_c, 0, 64, 37
1, 312164, Control_c, 0, 64, 38
1, 312179, Control_c, 0, 64, 39
1, 312194, Control_c, 0, 64, 41
1, 312209, Control_c, 0, 64, 43
1, 312224, Control_c, 0, 64, 45
1, 312238, Control_c, 0, 64, 46
1, 312253, Control_c, 0, 64, 47
1, 312259, Note_on_c, 0, 66, 51
1, 312268, Control_c, 0, 64, 48
1, 312284, Control_c, 0, 64, 48
1, 312353, Note_off_c, 0, 70, 53
1, 312380, Control_c, 0, 64, 48
1, 312383, Note_on_c, 0, 67, 49
1, 312395, Control_c, 0, 64, 47
1, 312410, Control_c, 0, 64, 47
1, 312412, Note_off_c, 0, 66, 49
1, 312440, Control_c, 0, 64, 46
1, 312455, Control_c, 0, 64, 45
1, 312469, Control_c, 0, 64, 45
1, 312484, Control_c, 0, 64, 44
1, 312499, Control_c, 0, 64, 43
1, 312514, Control_c, 0, 64, 42
1, 312523, Note_on_c, 0, 71, 50
1, 312528, Note_off_c, 0, 67, 55
1, 312528, Control_c, 0, 64, 41
1, 312543, Control_c, 0, 64, 39
1, 312558, Control_c, 0, 64, 37
1, 312573, Control_c, 0, 64, 36
1, 312587, Control_c, 0, 64, 35
1, 312602, Control_c, 0, 64, 34
1, 312617, Control_c, 0, 64, 31
1, 312632, Control_c, 0, 64, 28
1, 312647, Control_c, 0, 64, 25
1, 312651, Note_on_c, 0, 67, 49
1, 312661, Control_c, 0, 64, 23
1, 312676, Control_c, 0, 64, 19
1, 312691, Control_c, 0, 64, 14
1, 312705, Control_c, 0, 64, 10
1, 312715, Note_off_c, 0, 71, 54
1, 312720, Control_c, 0, 64, 0
1, 312761, Note_on_c, 0, 68, 53
1, 312818, Note_off_c, 0, 67, 36
1, 312893, Note_on_c, 0, 71, 51
1, 312903, Note_off_c, 0, 68, 54
1, 313017, Note_on_c, 0, 67, 46
1, 313087, Note_off_c, 0, 71, 40
1, 313131, Note_on_c, 0, 68, 45
1, 313190, Note_off_c, 0, 67, 38
1, 313264, Note_on_c, 0, 72, 50
1, 313301, Note_off_c, 0, 68, 37
1, 313411, Note_on_c, 0, 68, 46
1, 313450, Note_off_c, 0, 72, 55
1, 313533, Note_on_c, 0, 69, 43
1, 313578, Note_off_c, 0, 68, 44
1, 313648, Note_on_c, 0, 72, 39
1, 313674, Note_off_c, 0, 69, 37
1, 313763, Note_on_c, 0, 68, 45
1, 313818, Note_off_c, 0, 72, 36
1, 313897, Note_on_c, 0, 69, 42
1, 313954, Note_off_c, 0, 68, 44
1, 314040, Note_on_c, 0, 73, 43
1, 314049, Note_off_c, 0, 69, 44
1, 314172, Note_on_c, 0, 69, 50
1, 314262, Note_off_c, 0, 69, 50
1, 314284, Note_on_c, 0, 70, 47
1, 314293, Note_off_c, 0, 73, 38
1, 314380, Control_c, 0, 64, 8
1, 314395, Control_c, 0, 64, 14
1, 314398, Note_off_c, 0, 70, 55
1, 314409, Note_on_c, 0, 74, 45
1, 314410, Control_c, 0, 64, 17
1, 314425, Control_c, 0, 64, 18
1, 314440, Control_c, 0, 64, 19
1, 314469, Control_c, 0, 64, 18
1, 314484, Control_c, 0, 64, 10
1, 314499, Control_c, 0, 64, 0
1, 314537, Note_on_c, 0, 70, 42
1, 314580, Control_c, 0, 67, 15
1, 314592, Note_off_c, 0, 74, 38
1, 314595, Control_c, 0, 67, 25
1, 314610, Control_c, 0, 64, 33
1, 314610, Control_c, 0, 67, 32
1, 314625, Control_c, 0, 64, 42
1, 314625, Control_c, 0, 67, 36
1, 314640, Control_c, 0, 64, 47
1, 314640, Control_c, 0, 67, 39
1, 314655, Control_c, 0, 64, 51
1, 314655, Control_c, 0, 67, 42
1, 314669, Control_c, 0, 64, 56
1, 314669, Control_c, 0, 67, 44
1, 314685, Control_c, 0, 64, 61
1, 314685, Control_c, 0, 67, 45
1, 314686, Note_on_c, 0, 71, 40
1, 314700, Control_c, 0, 64, 63
1, 314715, Control_c, 0, 64, 64
1, 314715, Control_c, 0, 67, 45
1, 314729, Note_off_c, 0, 70, 35
1, 314798, Note_off_c, 0, 71, 47
1, 314818, Control_c, 0, 67, 46
1, 314833, Control_c, 0, 64, 64
1, 314838, Note_on_c, 0, 75, 33
1, 314849, Control_c, 0, 64, 63
1, 314878, Control_c, 0, 64, 62
1, 314893, Control_c, 0, 64, 60
1, 314908, Control_c, 0, 64, 57
1, 314923, Control_c, 0, 64, 50
1, 314938, Control_c, 0, 64, 41
1, 314953, Control_c, 0, 64, 28
1, 314968, Control_c, 0, 64, 24
1, 314982, Control_c, 0, 64, 25
1, 314997, Note_on_c, 0, 71, 37
1, 314997, Control_c, 0, 64, 28
1, 315012, Control_c, 0, 64, 32
1, 315027, Control_c, 0, 64, 40
1, 315042, Control_c, 0, 64, 48
1, 315056, Control_c, 0, 64, 54
1, 315056, Control_c, 0, 67, 45
1, 315071, Control_c, 0, 64, 59
1, 315071, Control_c, 0, 67, 44
1, 315086, Control_c, 0, 64, 62
1, 315086, Control_c, 0, 67, 43
1, 315100, Control_c, 0, 64, 63
1, 315111, Note_off_c, 0, 75, 38
1, 315115, Control_c, 0, 64, 63
1, 315130, Control_c, 0, 64, 64
1, 315139, Note_on_c, 0, 72, 37
1, 315145, Control_c, 0, 64, 65
1, 315160, Control_c, 0, 67, 43
1, 315189, Control_c, 0, 67, 43
1, 315204, Control_c, 0, 67, 44
1, 315234, Control_c, 0, 64, 64
1, 315234, Control_c, 0, 67, 43
1, 315236, Note_off_c, 0, 71, 38
1, 315248, Control_c, 0, 64, 64
1, 315248, Control_c, 0, 67, 43
1, 315263, Control_c, 0, 64, 63
1, 315278, Control_c, 0, 64, 62
1, 315278, Control_c, 0, 67, 43
1, 315293, Control_c, 0, 64, 61
1, 315293, Control_c, 0, 67, 44
1, 315315, Control_c, 0, 64, 58
1, 315330, Control_c, 0, 64, 51
1, 315336, Note_on_c, 0, 75, 38
1, 315345, Control_c, 0, 64, 42
1, 315360, Control_c, 0, 64, 28
1, 315375, Control_c, 0, 64, 0
1, 315378, Note_off_c, 0, 72, 38
1, 315463, Control_c, 0, 67, 43
1, 315479, Control_c, 0, 67, 42
1, 315494, Control_c, 0, 64, 20
1, 315494, Control_c, 0, 67, 42
1, 315509, Control_c, 0, 64, 46
1, 315524, Control_c, 0, 64, 55
1, 315527, Note_on_c, 0, 71, 36
1, 315538, Control_c, 0, 64, 58
1, 315553, Control_c, 0, 64, 60
1, 315568, Control_c, 0, 64, 62
1, 315568, Control_c, 0, 67, 41
1, 315582, Note_off_c, 0, 75, 38
1, 315583, Control_c, 0, 64, 64
1, 315598, Control_c, 0, 64, 65
1, 315598, Control_c, 0, 67, 40
1, 315612, Control_c, 0, 64, 65
1, 315612, Control_c, 0, 67, 39
1, 315627, Control_c, 0, 67, 38
1, 315642, Control_c, 0, 64, 66
1, 315642, Control_c, 0, 67, 37
1, 315657, Control_c, 0, 67, 35
1, 315672, Control_c, 0, 67, 33
1, 315686, Control_c, 0, 67, 29
1, 315701, Control_c, 0, 67, 22
1, 315716, Control_c, 0, 67, 10
1, 315731, Control_c, 0, 67, 0
1, 315739, Note_on_c, 0, 72, 29
1, 315769, Note_off_c, 0, 71, 35
1, 315909, Control_c, 0, 64, 65
1, 316109, Control_c, 0, 64, 65
1, 316168, Note_on_c, 0, 57, 22
1, 316198, Control_c, 0, 64, 64
1, 316237, Note_on_c, 0, 76, 42
1, 316256, Control_c, 0, 64, 64
1, 316288, Control_c, 0, 64, 63
1, 316332, Control_c, 0, 64, 63
1, 316347, Control_c, 0, 64, 62
1, 316361, Control_c, 0, 64, 62
1, 316376, Control_c, 0, 64, 61
1, 316391, Control_c, 0, 64, 60
1, 316392, Note_off_c, 0, 72, 40
1, 316406, Control_c, 0, 64, 59
1, 316421, Control_c, 0, 64, 56
1, 316435, Control_c, 0, 64, 51
1, 316450, Control_c, 0, 64, 43
1, 316465, Control_c, 0, 64, 34
1, 316480, Control_c, 0, 64, 30
1, 316509, Control_c, 0, 64, 32
1, 316524, Control_c, 0, 64, 36
1, 316539, Control_c, 0, 64, 44
1, 316553, Control_c, 0, 64, 53
1, 316568, Control_c, 0, 64, 61
1, 316583, Control_c, 0, 64, 64
1, 316598, Control_c, 0, 64, 66
1, 316613, Control_c, 0, 64, 69
1, 316628, Control_c, 0, 64, 74
1, 316643, Control_c, 0, 64, 83
1, 316658, Control_c, 0, 64, 94
1, 316672, Control_c, 0, 64, 105
1, 316687, Control_c, 0, 64, 125
1, 316702, Control_c, 0, 64, 127
1, 316903, Note_on_c, 0, 60, 36
1, 316910, Note_on_c, 0, 64, 16
1, 316961, Note_off_c, 0, 60, 50
1, 317075, Note_off_c, 0, 64, 41
1, 317112, Note_on_c, 0, 75, 57
1, 317123, Note_off_c, 0, 76, 56
1, 317291, Note_on_c, 0, 76, 59
1, 317308, Note_on_c, 0, 60, 31
1, 317325, Note_on_c, 0, 64, 30
1, 317331, Control_c, 0, 64, 91
1, 317346, Control_c, 0, 64, 74
1, 317347, Note_off_c, 0, 75, 56
1, 317361, Control_c, 0, 64, 62
1, 317375, Control_c, 0, 64, 28
1, 317376, Note_off_c, 0, 57, 41
1, 317390, Control_c, 0, 64, 0
1, 317420, Control_c, 0, 64, 41
1, 317435, Control_c, 0, 64, 55
1, 317449, Control_c, 0, 64, 61
1, 317464, Control_c, 0, 64, 64
1, 317479, Control_c, 0, 64, 68
1, 317493, Control_c, 0, 64, 72
1, 317508, Control_c, 0, 64, 76
1, 317523, Control_c, 0, 64, 78
1, 317708, Control_c, 0, 64, 77
1, 317723, Control_c, 0, 64, 75
1, 317738, Control_c, 0, 64, 73
1, 317749, Note_on_c, 0, 57, 29
1, 317751, Note_on_c, 0, 69, 37
1, 317753, Control_c, 0, 64, 70
1, 317768, Control_c, 0, 64, 67
1, 317782, Control_c, 0, 64, 64
1, 317793, Note_off_c, 0, 60, 29
1, 317797, Control_c, 0, 64, 60
1, 317802, Note_off_c, 0, 64, 29
1, 317812, Control_c, 0, 64, 46
1, 317826, Control_c, 0, 64, 8
1, 317841, Control_c, 0, 64, 0
1, 318014, Note_off_c, 0, 76, 33
1, 318200, Note_on_c, 0, 60, 19
1, 318205, Note_on_c, 0, 64, 24
1, 318268, Note_off_c, 0, 69, 41
1, 318491, Note_off_c, 0, 64, 47
1, 318494, Note_off_c, 0, 60, 41
1, 318502, Control_c, 0, 64, 44
1, 318517, Control_c, 0, 64, 55
1, 318531, Control_c, 0, 64, 58
1, 318546, Control_c, 0, 64, 62
1, 318561, Control_c, 0, 64, 65
1, 318576, Control_c, 0, 64, 70
1, 318592, Control_c, 0, 64, 74
1, 318606, Control_c, 0, 64, 77
1, 318621, Control_c, 0, 64, 80
1, 318629, Note_on_c, 0, 60, 32
1, 318636, Control_c, 0, 64, 84
1, 318643, Note_on_c, 0, 69, 44
1, 318646, Note_on_c, 0, 64, 23
1, 318650, Control_c, 0, 64, 91
1, 318665, Control_c, 0, 64, 99
1, 318682, Control_c, 0, 64, 105
1, 318696, Control_c, 0, 64, 106
1, 318711, Control_c, 0, 64, 108
1, 318726, Control_c, 0, 64, 113
1, 318741, Control_c, 0, 64, 127
1, 318799, Note_off_c, 0, 69, 49
1, 318820, Note_off_c, 0, 57, 38
1, 319036, Control_c, 0, 64, 125
1, 319055, Note_on_c, 0, 70, 56
1, 319059, Control_c, 0, 64, 110
1, 319063, Note_on_c, 0, 57, 37
1, 319073, Control_c, 0, 64, 102
1, 319088, Control_c, 0, 64, 95
1, 319103, Control_c, 0, 64, 90
1, 319118, Control_c, 0, 64, 85
1, 319133, Control_c, 0, 64, 80
1, 319147, Control_c, 0, 64, 74
1, 319149, Note_off_c, 0, 60, 32
1, 319162, Control_c, 0, 64, 69
1, 319177, Control_c, 0, 64, 65
1, 319185, Note_off_c, 0, 64, 42
1, 319192, Control_c, 0, 64, 63
1, 319207, Control_c, 0, 64, 60
1, 319221, Control_c, 0, 64, 52
1, 319236, Control_c, 0, 64, 12
1, 319251, Control_c, 0, 64, 0
1, 319475, Note_on_c, 0, 62, 34
1, 319476, Note_on_c, 0, 65, 33
1, 319709, Note_off_c, 0, 65, 45
1, 319729, Note_off_c, 0, 62, 46
1, 319741, Control_c, 0, 64, 36
1, 319756, Control_c, 0, 64, 46
1, 319770, Control_c, 0, 64, 52
1, 319785, Control_c, 0, 64, 57
1, 319808, Control_c, 0, 64, 59
1, 319823, Control_c, 0, 64, 60
1, 319838, Control_c, 0, 64, 59
1, 319852, Control_c, 0, 64, 58
1, 319867, Control_c, 0, 64, 55
1, 319882, Control_c, 0, 64, 47
1, 319886, Note_on_c, 0, 71, 52
1, 319886, Note_on_c, 0, 62, 21
1, 319896, Control_c, 0, 64, 27
1, 319906, Note_on_c, 0, 65, 29
1, 319911, Control_c, 0, 64, 0
1, 319999, Note_off_c, 0, 70, 60
1, 320030, Control_c, 0, 64, 14
1, 320035, Note_off_c, 0, 57, 50
1, 320044, Control_c, 0, 64, 44
1, 320059, Control_c, 0, 64, 54
1, 320074, Control_c, 0, 64, 57
1, 320089, Control_c, 0, 64, 59
1, 320103, Control_c, 0, 64, 60
1, 320118, Control_c, 0, 64, 61
1, 320177, Control_c, 0, 64, 61
1, 320221, Control_c, 0, 64, 60
1, 320236, Control_c, 0, 64, 59
1, 320251, Control_c, 0, 64, 58
1, 320267, Control_c, 0, 64, 57
1, 320282, Control_c, 0, 64, 56
1, 320291, Note_on_c, 0, 57, 25
1, 320297, Control_c, 0, 64, 54
1, 320298, Note_on_c, 0, 72, 48
1, 320312, Control_c, 0, 64, 51
1, 320326, Control_c, 0, 64, 45
1, 320341, Control_c, 0, 64, 40
1, 320356, Control_c, 0, 64, 38
1, 320371, Control_c, 0, 64, 33
1, 320381, Note_off_c, 0, 62, 39
1, 320386, Control_c, 0, 64, 21
1, 320387, Note_off_c, 0, 71, 38
1, 320400, Control_c, 0, 64, 0
1, 320416, Note_off_c, 0, 65, 42
1, 320630, Control_c, 0, 64, 29
1, 320645, Control_c, 0, 64, 38
1, 320660, Control_c, 0, 64, 41
1, 320674, Control_c, 0, 64, 42
1, 320682, Note_off_c, 0, 72, 60
1, 320689, Control_c, 0, 64, 39
1, 320704, Control_c, 0, 64, 28
1, 320718, Note_on_c, 0, 67, 37
1, 320718, Control_c, 0, 64, 0
1, 320732, Note_on_c, 0, 64, 32
1, 320822, Control_c, 0, 64, 34
1, 320837, Control_c, 0, 64, 53
1, 320852, Control_c, 0, 64, 58
1, 320867, Control_c, 0, 64, 60
1, 320882, Control_c, 0, 64, 61
1, 320897, Control_c, 0, 64, 63
1, 320911, Control_c, 0, 64, 65
1, 320926, Control_c, 0, 64, 66
1, 320938, Note_off_c, 0, 67, 57
1, 320941, Control_c, 0, 64, 66
1, 320953, Note_off_c, 0, 64, 54
1, 320986, Control_c, 0, 64, 67
1, 321015, Control_c, 0, 64, 67
1, 321075, Control_c, 0, 64, 68
1, 321110, Note_on_c, 0, 73, 59
1, 321120, Control_c, 0, 64, 68
1, 321129, Note_on_c, 0, 67, 30
1, 321135, Control_c, 0, 64, 70
1, 321142, Note_on_c, 0, 64, 22
1, 321149, Control_c, 0, 64, 71
1, 321264, Note_off_c, 0, 73, 56
1, 321281, Note_off_c, 0, 57, 40
1, 321423, Control_c, 0, 64, 70
1, 321438, Control_c, 0, 64, 70
1, 321453, Control_c, 0, 64, 69
1, 321467, Control_c, 0, 64, 69
1, 321482, Control_c, 0, 64, 68
1, 321497, Control_c, 0, 64, 68
1, 321506, Note_on_c, 0, 74, 66
1, 321512, Control_c, 0, 64, 66
1, 321514, Note_on_c, 0, 57, 37
1, 321527, Control_c, 0, 64, 65
1, 321541, Control_c, 0, 64, 63
1, 321556, Control_c, 0, 64, 61
1, 321558, Note_off_c, 0, 67, 38
1, 321571, Control_c, 0, 64, 59
1, 321587, Control_c, 0, 64, 55
1, 321602, Control_c, 0, 64, 48
1, 321606, Note_off_c, 0, 64, 43
1, 321616, Control_c, 0, 64, 35
1, 321631, Control_c, 0, 64, 0
1, 321794, Control_c, 0, 64, 40
1, 321809, Control_c, 0, 64, 54
1, 321824, Control_c, 0, 64, 58
1, 321838, Control_c, 0, 64, 62
1, 321853, Control_c, 0, 64, 64
1, 321869, Control_c, 0, 64, 65
1, 321883, Control_c, 0, 64, 67
1, 321898, Control_c, 0, 64, 69
1, 321909, Note_on_c, 0, 69, 43
1, 321913, Note_on_c, 0, 65, 44
1, 321913, Control_c, 0, 64, 72
1, 321928, Control_c, 0, 64, 74
1, 321943, Control_c, 0, 64, 75
1, 321958, Control_c, 0, 64, 76
1, 321973, Control_c, 0, 64, 77
1, 322032, Note_off_c, 0, 65, 59
1, 322068, Note_off_c, 0, 69, 38
1, 322277, Control_c, 0, 64, 76
1, 322291, Control_c, 0, 64, 75
1, 322306, Control_c, 0, 64, 73
1, 322310, Note_on_c, 0, 75, 70
1, 322316, Note_on_c, 0, 69, 29
1, 322321, Control_c, 0, 64, 70
1, 322336, Control_c, 0, 64, 68
1, 322342, Note_off_c, 0, 57, 34
1, 322345, Note_on_c, 0, 59, 33
1, 322351, Control_c, 0, 64, 65
1, 322365, Control_c, 0, 64, 63
1, 322380, Control_c, 0, 64, 61
1, 322395, Control_c, 0, 64, 54
1, 322410, Control_c, 0, 64, 33
1, 322424, Control_c, 0, 64, 0
1, 322435, Note_off_c, 0, 74, 54
1, 322484, Control_c, 0, 64, 36
1, 322498, Control_c, 0, 64, 55
1, 322513, Control_c, 0, 64, 62
1, 322528, Control_c, 0, 64, 65
1, 322543, Control_c, 0, 64, 68
1, 322558, Control_c, 0, 64, 69
1, 322572, Control_c, 0, 64, 70
1, 322587, Control_c, 0, 64, 71
1, 322692, Control_c, 0, 64, 70
1, 322707, Control_c, 0, 64, 69
1, 322721, Note_on_c, 0, 76, 62
1, 322721, Control_c, 0, 64, 69
1, 322736, Control_c, 0, 64, 68
1, 322748, Note_on_c, 0, 57, 36
1, 322751, Control_c, 0, 64, 66
1, 322766, Control_c, 0, 64, 64
1, 322788, Control_c, 0, 64, 62
1, 322803, Control_c, 0, 64, 57
1, 322818, Control_c, 0, 64, 45
1, 322822, Note_off_c, 0, 59, 40
1, 322827, Note_off_c, 0, 69, 33
1, 322833, Control_c, 0, 64, 0
1, 322861, Note_off_c, 0, 75, 62
1, 323159, Control_c, 0, 64, 21
1, 323174, Control_c, 0, 64, 50
1, 323185, Note_on_c, 0, 69, 37
1, 323188, Control_c, 0, 64, 56
1, 323196, Note_off_c, 0, 76, 38
1, 323203, Control_c, 0, 64, 58
1, 323206, Note_on_c, 0, 60, 25
1, 323218, Control_c, 0, 64, 58
1, 323233, Control_c, 0, 64, 59
1, 323247, Control_c, 0, 64, 58
1, 323277, Control_c, 0, 64, 58
1, 323292, Control_c, 0, 64, 57
1, 323307, Control_c, 0, 64, 55
1, 323321, Control_c, 0, 64, 51
1, 323336, Control_c, 0, 64, 41
1, 323351, Control_c, 0, 64, 20
1, 323366, Control_c, 0, 64, 0
1, 323401, Note_off_c, 0, 60, 40
1, 323410, Control_c, 0, 64, 39
1, 323425, Control_c, 0, 64, 54
1, 323439, Control_c, 0, 64, 61
1, 323454, Control_c, 0, 64, 64
1, 323470, Control_c, 0, 64, 66
1, 323485, Control_c, 0, 64, 67
1, 323500, Control_c, 0, 64, 68
1, 323515, Control_c, 0, 64, 69
1, 323530, Control_c, 0, 64, 70
1, 323579, Note_off_c, 0, 69, 43
1, 323582, Control_c, 0, 64, 69
1, 323597, Control_c, 0, 64, 67
1, 323612, Control_c, 0, 64, 63
1, 323621, Note_on_c, 0, 81, 51
1, 323626, Control_c, 0, 64, 55
1, 323641, Control_c, 0, 64, 42
1, 323656, Control_c, 0, 64, 47
1, 323661, Note_on_c, 0, 60, 27
1, 323666, Note_on_c, 0, 64, 22
1, 323670, Control_c, 0, 64, 56
1, 323685, Control_c, 0, 64, 61
1, 323700, Control_c, 0, 64, 64
1, 323715, Control_c, 0, 64, 67
1, 323730, Control_c, 0, 64, 69
1, 323744, Control_c, 0, 64, 72
1, 323759, Control_c, 0, 64, 73
1, 323774, Control_c, 0, 64, 75
1, 323815, Note_off_c, 0, 57, 35
1, 323832, Note_off_c, 0, 64, 43
1, 323875, Note_off_c, 0, 60, 40
1, 323952, Control_c, 0, 64, 74
1, 323967, Control_c, 0, 64, 73
1, 323982, Control_c, 0, 64, 72
1, 323997, Control_c, 0, 64, 72
1, 324011, Control_c, 0, 64, 71
1, 324026, Control_c, 0, 64, 70
1, 324041, Control_c, 0, 64, 68
1, 324056, Control_c, 0, 64, 67
1, 324070, Control_c, 0, 64, 65
1, 324085, Control_c, 0, 64, 64
1, 324100, Control_c, 0, 64, 63
1, 324115, Control_c, 0, 64, 60
1, 324128, Note_on_c, 0, 79, 50
1, 324130, Control_c, 0, 64, 54
1, 324144, Control_c, 0, 64, 48
1, 324147, Note_off_c, 0, 81, 12
1, 324159, Control_c, 0, 64, 45
1, 324164, Note_on_c, 0, 50, 12
1, 324174, Control_c, 0, 64, 41
1, 324189, Control_c, 0, 64, 36
1, 324204, Control_c, 0, 64, 23
1, 324218, Control_c, 0, 64, 0
1, 324348, Note_on_c, 0, 77, 57
1, 324405, Note_off_c, 0, 79, 61
1, 324419, Note_off_c, 0, 77, 60
1, 324517, Note_on_c, 0, 59, 37
1, 324530, Note_on_c, 0, 76, 61
1, 324679, Note_on_c, 0, 74, 61
1, 324717, Note_off_c, 0, 76, 67
1, 324729, Note_off_c, 0, 74, 64
1, 324888, Note_on_c, 0, 62, 37
1, 324898, Note_on_c, 0, 72, 50
1, 324988, Note_on_c, 0, 71, 45
1, 325011, Note_off_c, 0, 72, 60
1, 325064, Control_c, 0, 64, 36
1, 325079, Control_c, 0, 64, 48
1, 325090, Note_off_c, 0, 50, 39
1, 325094, Control_c, 0, 64, 50
1, 325101, Note_on_c, 0, 74, 47
1, 325109, Control_c, 0, 64, 52
1, 325120, Note_off_c, 0, 62, 49
1, 325123, Control_c, 0, 64, 54
1, 325134, Note_off_c, 0, 59, 37
1, 325138, Control_c, 0, 64, 55
1, 325152, Note_off_c, 0, 71, 56
1, 325153, Control_c, 0, 64, 56
1, 325168, Control_c, 0, 64, 57
1, 325183, Control_c, 0, 64, 57
1, 325197, Control_c, 0, 64, 58
1, 325206, Note_on_c, 0, 77, 51
1, 325256, Note_off_c, 0, 74, 37
1, 325315, Control_c, 0, 64, 57
1, 325361, Control_c, 0, 64, 57
1, 325390, Control_c, 0, 64, 56
1, 325405, Control_c, 0, 64, 56
1, 325413, Note_on_c, 0, 60, 25
1, 325419, Note_on_c, 0, 69, 42
1, 325420, Control_c, 0, 64, 55
1, 325426, Note_on_c, 0, 52, 30
1, 325434, Control_c, 0, 64, 55
1, 325449, Control_c, 0, 64, 54
1, 325453, Note_off_c, 0, 77, 39
1, 325464, Control_c, 0, 64, 53
1, 325479, Control_c, 0, 64, 53
1, 325494, Control_c, 0, 64, 51
1, 325508, Control_c, 0, 64, 49
1, 325523, Control_c, 0, 64, 45
1, 325538, Control_c, 0, 64, 39
1, 325553, Control_c, 0, 64, 20
1, 325568, Control_c, 0, 64, 0
1, 325702, Control_c, 0, 64, 28
1, 325716, Control_c, 0, 64, 54
1, 325731, Control_c, 0, 64, 59
1, 325746, Control_c, 0, 64, 60
1, 325761, Control_c, 0, 64, 62
1, 325776, Control_c, 0, 64, 64
1, 325797, Control_c, 0, 64, 65
1, 325812, Control_c, 0, 64, 66
1, 325827, Control_c, 0, 64, 68
1, 325842, Control_c, 0, 64, 68
1, 325857, Control_c, 0, 64, 69
1, 325902, Control_c, 0, 64, 70
1, 325917, Control_c, 0, 64, 70
1, 325926, Note_on_c, 0, 68, 36
1, 325949, Note_on_c, 0, 59, 31
1, 325991, Control_c, 0, 64, 70
1, 326006, Control_c, 0, 64, 69
1, 326015, Note_off_c, 0, 60, 37
1, 326021, Control_c, 0, 64, 67
1, 326024, Note_off_c, 0, 69, 42
1, 326036, Control_c, 0, 64, 64
1, 326051, Control_c, 0, 64, 54
1, 326065, Control_c, 0, 64, 37
1, 326080, Control_c, 0, 64, 33
1, 326095, Control_c, 0, 64, 46
1, 326110, Control_c, 0, 64, 57
1, 326125, Control_c, 0, 64, 62
1, 326139, Control_c, 0, 64, 68
1, 326154, Control_c, 0, 64, 76
1, 326169, Control_c, 0, 64, 87
1, 326184, Control_c, 0, 64, 94
1, 326194, Note_off_c, 0, 52, 41
1, 326199, Control_c, 0, 64, 100
1, 326213, Control_c, 0, 64, 119
1, 326228, Control_c, 0, 64, 127
1, 326286, Note_off_c, 0, 59, 40
1, 326325, Note_on_c, 0, 76, 57
1, 326396, Note_off_c, 0, 68, 45
1, 326764, Note_off_c, 0, 76, 32
1, 326799, Control_c, 0, 64, 103
1, 326811, Note_on_c, 0, 57, 35
1, 326814, Control_c, 0, 64, 86
1, 326829, Control_c, 0, 64, 76
1, 326836, Note_on_c, 0, 75, 50
1, 326843, Control_c, 0, 64, 69
1, 326858, Control_c, 0, 64, 63
1, 326873, Control_c, 0, 64, 56
1, 326888, Control_c, 0, 64, 46
1, 326918, Control_c, 0, 64, 54
1, 326933, Control_c, 0, 64, 61
1, 326948, Control_c, 0, 64, 64
1, 326962, Control_c, 0, 64, 66
1, 326977, Control_c, 0, 64, 68
1, 326992, Control_c, 0, 64, 71
1, 327006, Control_c, 0, 64, 72
1, 327021, Control_c, 0, 64, 73
1, 327042, Note_on_c, 0, 76, 59
1, 327095, Control_c, 0, 64, 72
1, 327110, Control_c, 0, 64, 71
1, 327125, Control_c, 0, 64, 70
1, 327140, Control_c, 0, 64, 69
1, 327154, Control_c, 0, 64, 67
1, 327169, Control_c, 0, 64, 66
1, 327182, Note_off_c, 0, 75, 39
1, 327184, Control_c, 0, 64, 66
1, 327185, Note_on_c, 0, 77, 61
1, 327199, Control_c, 0, 64, 65
1, 327213, Control_c, 0, 64, 63
1, 327217, Note_off_c, 0, 76, 65
1, 327228, Control_c, 0, 64, 58
1, 327228, Control_c, 0, 67, 8
1, 327243, Control_c, 0, 64, 56
1, 327243, Control_c, 0, 67, 13
1, 327258, Control_c, 0, 67, 19
1, 327273, Control_c, 0, 64, 55
1, 327273, Control_c, 0, 67, 24
1, 327295, Control_c, 0, 64, 53
1, 327295, Control_c, 0, 67, 29
1, 327310, Control_c, 0, 64, 45
1, 327310, Control_c, 0, 67, 31
1, 327325, Control_c, 0, 64, 27
1, 327325, Control_c, 0, 67, 34
1, 327340, Control_c, 0, 64, 0
1, 327340, Control_c, 0, 67, 37
1, 327355, Note_on_c, 0, 76, 55
1, 327355, Control_c, 0, 67, 40
1, 327369, Control_c, 0, 67, 42
1, 327370, Note_on_c, 0, 60, 22
1, 327377, Note_on_c, 0, 64, 25
1, 327384, Control_c, 0, 67, 44
1, 327399, Control_c, 0, 67, 45
1, 327404, Note_off_c, 0, 77, 58
1, 327413, Control_c, 0, 67, 46
1, 327428, Control_c, 0, 67, 48
1, 327442, Note_off_c, 0, 76, 51
1, 327443, Control_c, 0, 67, 50
1, 327459, Control_c, 0, 67, 51
1, 327489, Control_c, 0, 67, 52
1, 327504, Control_c, 0, 67, 53
1, 327504, Note_on_c, 0, 75, 50
1, 327518, Control_c, 0, 67, 54
1, 327533, Control_c, 0, 67, 55
1, 327548, Control_c, 0, 67, 56
1, 327563, Control_c, 0, 67, 56
1, 327566, Note_off_c, 0, 75, 46
1, 327578, Control_c, 0, 67, 57
1, 327589, Note_off_c, 0, 64, 42
1, 327592, Control_c, 0, 67, 58
1, 327607, Note_off_c, 0, 60, 41
1, 327619, Note_on_c, 0, 74, 45
1, 327658, Note_off_c, 0, 74, 49
1, 327744, Note_on_c, 0, 73, 52
1, 327748, Note_on_c, 0, 60, 29
1, 327770, Note_on_c, 0, 64, 21
1, 327818, Note_off_c, 0, 73, 46
1, 327852, Note_on_c, 0, 72, 47
1, 327869, Note_off_c, 0, 57, 40
1, 327892, Note_off_c, 0, 72, 62
1, 327960, Note_on_c, 0, 71, 41
1, 327991, Note_off_c, 0, 71, 54
1, 328049, Note_on_c, 0, 70, 44
1, 328115, Note_off_c, 0, 70, 49
1, 328169, Note_on_c, 0, 57, 27
1, 328173, Note_on_c, 0, 69, 42
1, 328199, Note_off_c, 0, 60, 36
1, 328222, Control_c, 0, 67, 57
1, 328251, Control_c, 0, 67, 57
1, 328276, Note_off_c, 0, 64, 38
1, 328297, Control_c, 0, 67, 56
1, 328312, Control_c, 0, 67, 56
1, 328341, Control_c, 0, 64, 37
1, 328341, Control_c, 0, 67, 55
1, 328356, Control_c, 0, 64, 45
1, 328356, Control_c, 0, 67, 55
1, 328371, Control_c, 0, 64, 53
1, 328386, Control_c, 0, 64, 59
1, 328400, Control_c, 0, 64, 62
1, 328415, Control_c, 0, 64, 63
1, 328415, Control_c, 0, 67, 54
1, 328430, Control_c, 0, 64, 65
1, 328430, Control_c, 0, 67, 54
1, 328445, Control_c, 0, 64, 68
1, 328459, Control_c, 0, 64, 70
1, 328474, Control_c, 0, 64, 72
1, 328474, Control_c, 0, 67, 53
1, 328489, Control_c, 0, 64, 74
1, 328504, Control_c, 0, 64, 78
1, 328504, Control_c, 0, 67, 53
1, 328519, Control_c, 0, 64, 81
1, 328534, Control_c, 0, 64, 86
1, 328549, Control_c, 0, 64, 90
1, 328549, Control_c, 0, 67, 52
1, 328563, Control_c, 0, 64, 95
1, 328578, Control_c, 0, 64, 103
1, 328578, Control_c, 0, 67, 52
1, 328593, Control_c, 0, 64, 112
1, 328597, Note_on_c, 0, 64, 36
1, 328608, Control_c, 0, 64, 121
1, 328623, Control_c, 0, 64, 127
1, 328641, Poly_aftertouch_c, 0, 61, 127
1, 328652, Control_c, 0, 67, 51
1, 328681, Poly_aftertouch_c, 0, 61, 0
1, 328682, Note_off_c, 0, 64, 34
1, 328756, Control_c, 0, 67, 51
1, 328768, Note_off_c, 0, 69, 44
1, 328941, Control_c, 0, 67, 50
1, 328999, Note_on_c, 0, 69, 48
1, 329000, Control_c, 0, 64, 104
1, 329005, Note_on_c, 0, 64, 46
1, 329015, Control_c, 0, 64, 88
1, 329030, Control_c, 0, 64, 79
1, 329030, Control_c, 0, 67, 50
1, 329045, Control_c, 0, 64, 74
1, 329061, Control_c, 0, 64, 74
1, 329076, Control_c, 0, 64, 75
1, 329090, Control_c, 0, 64, 78
1, 329105, Control_c, 0, 64, 84
1, 329112, Note_off_c, 0, 57, 39
1, 329120, Control_c, 0, 64, 87
1, 329120, Control_c, 0, 67, 49
1, 329135, Control_c, 0, 64, 91
1, 329150, Control_c, 0, 64, 94
1, 329164, Control_c, 0, 64, 95
1, 329179, Control_c, 0, 64, 96
1, 329208, Control_c, 0, 67, 49
1, 329381, Note_off_c, 0, 69, 50
1, 329386, Control_c, 0, 64, 95
1, 329401, Control_c, 0, 64, 94
1, 329401, Note_on_c, 0, 72, 43
1, 329407, Note_on_c, 0, 57, 38
1, 329416, Control_c, 0, 64, 92
1, 329431, Control_c, 0, 64, 88
1, 329437, Note_off_c, 0, 72, 48
1, 329446, Control_c, 0, 64, 84
1, 329461, Control_c, 0, 64, 79
1, 329466, Note_on_c, 0, 70, 51
1, 329475, Control_c, 0, 64, 72
1, 329490, Control_c, 0, 64, 66
1, 329499, Note_off_c, 0, 70, 64
1, 329505, Control_c, 0, 64, 60
1, 329520, Control_c, 0, 64, 43
1, 329535, Note_off_c, 0, 64, 44
1, 329542, Control_c, 0, 64, 0
1, 329544, Note_on_c, 0, 72, 49
1, 329572, Note_off_c, 0, 72, 56
1, 329589, Note_on_c, 0, 70, 57
1, 329622, Note_off_c, 0, 70, 65
1, 329651, Note_on_c, 0, 72, 45
1, 329675, Control_c, 0, 64, 28
1, 329677, Note_off_c, 0, 72, 58
1, 329690, Control_c, 0, 64, 44
1, 329699, Note_on_c, 0, 70, 54
1, 329705, Control_c, 0, 64, 53
1, 329720, Control_c, 0, 64, 58
1, 329720, Note_off_c, 0, 70, 64
1, 329735, Control_c, 0, 64, 62
1, 329740, Note_on_c, 0, 72, 57
1, 329750, Control_c, 0, 64, 63
1, 329764, Control_c, 0, 64, 64
1, 329771, Note_off_c, 0, 72, 66
1, 329779, Control_c, 0, 64, 66
1, 329779, Control_c, 0, 67, 48
1, 329794, Control_c, 0, 64, 68
1, 329798, Note_on_c, 0, 70, 56
1, 329808, Control_c, 0, 64, 70
1, 329817, Note_off_c, 0, 70, 64
1, 329823, Control_c, 0, 64, 72
1, 329823, Control_c, 0, 67, 48
1, 329834, Note_on_c, 0, 65, 37
1, 329837, Note_on_c, 0, 72, 60
1, 329837, Control_c, 0, 64, 74
1, 329839, Note_on_c, 0, 62, 40
1, 329853, Control_c, 0, 64, 75
1, 329858, Note_off_c, 0, 72, 65
1, 329868, Control_c, 0, 64, 77
1, 329881, Note_on_c, 0, 70, 65
1, 329883, Control_c, 0, 64, 78
1, 329898, Control_c, 0, 64, 80
1, 329905, Note_off_c, 0, 70, 62
1, 329912, Control_c, 0, 64, 81
1, 329912, Control_c, 0, 67, 47
1, 329927, Note_on_c, 0, 72, 67
1, 329927, Control_c, 0, 64, 81
1, 329927, Control_c, 0, 67, 47
1, 329938, Note_off_c, 0, 62, 0
1, 329942, Control_c, 0, 64, 82
1, 329955, Note_off_c, 0, 72, 68
1, 329957, Control_c, 0, 64, 82
1, 329979, Note_on_c, 0, 70, 58
1, 329984, Note_off_c, 0, 65, 43
1, 329998, Note_off_c, 0, 70, 65
1, 330000, Poly_aftertouch_c, 0, 62, 0
1, 330016, Control_c, 0, 67, 46
1, 330021, Note_on_c, 0, 72, 68
1, 330045, Control_c, 0, 67, 46
1, 330048, Note_off_c, 0, 72, 61
1, 330063, Note_on_c, 0, 70, 65
1, 330075, Control_c, 0, 67, 45
1, 330090, Control_c, 0, 67, 45
1, 330099, Note_off_c, 0, 70, 59
1, 330105, Control_c, 0, 67, 44
1, 330111, Note_on_c, 0, 72, 57
1, 330119, Control_c, 0, 67, 43
1, 330134, Control_c, 0, 67, 43
1, 330156, Note_off_c, 0, 72, 59
1, 330159, Note_on_c, 0, 70, 51
1, 330179, Control_c, 0, 67, 42
1, 330209, Control_c, 0, 64, 81
1, 330209, Control_c, 0, 67, 42
1, 330210, Note_off_c, 0, 70, 63
1, 330222, Note_on_c, 0, 71, 59
1, 330223, Control_c, 0, 64, 76
1, 330223, Control_c, 0, 67, 40
1, 330224, Note_on_c, 0, 65, 37
1, 330233, Note_on_c, 0, 62, 40
1, 330238, Control_c, 0, 64, 68
1, 330238, Control_c, 0, 67, 36
1, 330253, Control_c, 0, 64, 58
1, 330253, Control_c, 0, 67, 29
1, 330268, Control_c, 0, 64, 50
1, 330268, Control_c, 0, 67, 19
1, 330288, Note_off_c, 0, 71, 60
1, 330290, Control_c, 0, 64, 57
1, 330290, Control_c, 0, 67, 8
1, 330298, Note_on_c, 0, 72, 65
1, 330304, Control_c, 0, 64, 63
1, 330304, Control_c, 0, 67, 0
1, 330319, Control_c, 0, 64, 66
1, 330328, Note_off_c, 0, 72, 65
1, 330334, Control_c, 0, 64, 69
1, 330336, Note_off_c, 0, 57, 40
1, 330349, Control_c, 0, 64, 73
1, 330353, Note_on_c, 0, 71, 64
1, 330364, Control_c, 0, 64, 77
1, 330379, Control_c, 0, 64, 78
1, 330390, Note_off_c, 0, 71, 58
1, 330394, Control_c, 0, 64, 80
1, 330409, Control_c, 0, 64, 82
1, 330419, Note_on_c, 0, 72, 59
1, 330424, Control_c, 0, 64, 83
1, 330438, Control_c, 0, 64, 84
1, 330439, Note_off_c, 0, 72, 63
1, 330455, Note_on_c, 0, 71, 56
1, 330468, Control_c, 0, 64, 85
1, 330477, Note_off_c, 0, 71, 59
1, 330507, Note_on_c, 0, 72, 70
1, 330522, Note_off_c, 0, 72, 66
1, 330546, Note_on_c, 0, 71, 69
1, 330585, Note_off_c, 0, 71, 54
1, 330585, Control_c, 0, 64, 84
1, 330600, Control_c, 0, 64, 81
1, 330602, Note_on_c, 0, 72, 54
1, 330615, Control_c, 0, 64, 76
1, 330629, Control_c, 0, 64, 69
1, 330632, Note_on_c, 0, 57, 43
1, 330644, Control_c, 0, 64, 62
1, 330659, Note_off_c, 0, 62, 38
1, 330660, Control_c, 0, 64, 44
1, 330663, Note_off_c, 0, 72, 65
1, 330675, Note_on_c, 0, 74, 61
1, 330675, Control_c, 0, 64, 0
1, 330705, Note_off_c, 0, 74, 63
1, 330705, Control_c, 0, 64, 31
1, 330712, Note_off_c, 0, 65, 42
1, 330720, Control_c, 0, 64, 53
1, 330734, Control_c, 0, 64, 60
1, 330737, Note_on_c, 0, 72, 56
1, 330749, Control_c, 0, 64, 63
1, 330763, Note_off_c, 0, 72, 58
1, 330764, Control_c, 0, 64, 66
1, 330779, Control_c, 0, 64, 68
1, 330793, Note_on_c, 0, 74, 59
1, 330794, Control_c, 0, 64, 70
1, 330808, Control_c, 0, 64, 73
1, 330820, Note_off_c, 0, 74, 66
1, 330823, Control_c, 0, 64, 75
1, 330838, Control_c, 0, 64, 77
1, 330844, Note_on_c, 0, 72, 63
1, 330853, Control_c, 0, 64, 80
1, 330860, Note_off_c, 0, 72, 66
1, 330868, Control_c, 0, 64, 82
1, 330883, Control_c, 0, 64, 84
1, 330884, Note_on_c, 0, 74, 66
1, 330910, Note_off_c, 0, 74, 66
1, 330912, Control_c, 0, 64, 84
1, 330927, Note_on_c, 0, 72, 70
1, 330958, Note_off_c, 0, 72, 56
1, 330990, Note_on_c, 0, 74, 61
1, 331016, Note_off_c, 0, 74, 66
1, 331016, Control_c, 0, 64, 81
1, 331029, Note_on_c, 0, 67, 45
1, 331038, Note_on_c, 0, 64, 42
1, 331038, Control_c, 0, 64, 74
1, 331043, Note_on_c, 0, 72, 64
1, 331052, Control_c, 0, 64, 67
1, 331061, Note_off_c, 0, 72, 63
1, 331067, Control_c, 0, 64, 62
1, 331082, Control_c, 0, 64, 64
1, 331089, Note_on_c, 0, 74, 68
1, 331097, Control_c, 0, 64, 66
1, 331112, Control_c, 0, 64, 70
1, 331113, Note_off_c, 0, 74, 66
1, 331127, Control_c, 0, 64, 73
1, 331131, Note_on_c, 0, 72, 72
1, 331142, Control_c, 0, 64, 77
1, 331157, Control_c, 0, 64, 82
1, 331169, Note_off_c, 0, 72, 57
1, 331172, Control_c, 0, 64, 85
1, 331186, Control_c, 0, 64, 89
1, 331190, Note_off_c, 0, 67, 37
1, 331191, Note_on_c, 0, 74, 64
1, 331201, Control_c, 0, 64, 90
1, 331216, Note_off_c, 0, 74, 68
1, 331225, Note_off_c, 0, 64, 40
1, 331237, Note_on_c, 0, 72, 70
1, 331246, Control_c, 0, 64, 91
1, 331269, Note_off_c, 0, 72, 62
1, 331280, Note_on_c, 0, 74, 71
1, 331326, Note_off_c, 0, 74, 60
1, 331334, Control_c, 0, 64, 90
1, 331339, Note_on_c, 0, 72, 69
1, 331349, Control_c, 0, 64, 88
1, 331364, Control_c, 0, 64, 82
1, 331371, Note_on_c, 0, 73, 74
1, 331377, Note_off_c, 0, 72, 55
1, 331378, Control_c, 0, 64, 73
1, 331388, Note_on_c, 0, 67, 56
1, 331393, Control_c, 0, 64, 62
1, 331394, Note_on_c, 0, 64, 51
1, 331408, Control_c, 0, 64, 38
1, 331422, Note_off_c, 0, 73, 63
1, 331423, Control_c, 0, 64, 26
1, 331428, Note_on_c, 0, 74, 69
1, 331438, Control_c, 0, 64, 47
1, 331454, Control_c, 0, 64, 59
1, 331469, Control_c, 0, 64, 63
1, 331482, Note_off_c, 0, 57, 41
1, 331483, Note_off_c, 0, 74, 64
1, 331483, Control_c, 0, 64, 68
1, 331485, Note_on_c, 0, 73, 71
1, 331498, Control_c, 0, 64, 74
1, 331513, Control_c, 0, 64, 81
1, 331528, Control_c, 0, 64, 86
1, 331532, Note_on_c, 0, 74, 57
1, 331532, Note_off_c, 0, 73, 60
1, 331543, Control_c, 0, 64, 89
1, 331557, Control_c, 0, 64, 92
1, 331572, Control_c, 0, 64, 94
1, 331578, Note_on_c, 0, 73, 66
1, 331580, Note_off_c, 0, 74, 63
1, 331587, Control_c, 0, 64, 95
1, 331601, Control_c, 0, 64, 95
1, 331628, Note_on_c, 0, 74, 65
1, 331631, Note_off_c, 0, 73, 62
1, 331679, Note_on_c, 0, 73, 72
1, 331683, Note_off_c, 0, 74, 64
1, 331720, Control_c, 0, 64, 94
1, 331735, Control_c, 0, 64, 90
1, 331743, Note_off_c, 0, 73, 60
1, 331750, Control_c, 0, 64, 85
1, 331757, Note_on_c, 0, 74, 68
1, 331765, Control_c, 0, 64, 78
1, 331779, Note_on_c, 0, 57, 60
1, 331787, Control_c, 0, 64, 69
1, 331801, Control_c, 0, 64, 61
1, 331807, Note_off_c, 0, 64, 31
1, 331816, Control_c, 0, 64, 43
1, 331819, Note_off_c, 0, 67, 35
1, 331831, Note_off_c, 0, 74, 61
1, 331831, Control_c, 0, 64, 0
1, 331846, Note_on_c, 0, 76, 72
1, 331875, Control_c, 0, 64, 21
1, 331890, Note_off_c, 0, 76, 60
1, 331890, Control_c, 0, 64, 47
1, 331905, Note_on_c, 0, 74, 70
1, 331905, Control_c, 0, 64, 58
1, 331920, Control_c, 0, 64, 63
1, 331935, Control_c, 0, 64, 67
1, 331948, Note_off_c, 0, 74, 57
1, 331950, Control_c, 0, 64, 72
1, 331963, Note_on_c, 0, 76, 70
1, 331965, Control_c, 0, 64, 77
1, 331980, Control_c, 0, 64, 81
1, 331991, Note_off_c, 0, 76, 64
1, 331994, Control_c, 0, 64, 84
1, 332004, Note_on_c, 0, 74, 66
1, 332009, Control_c, 0, 64, 87
1, 332024, Control_c, 0, 64, 89
1, 332039, Control_c, 0, 64, 91
1, 332049, Note_off_c, 0, 74, 50
1, 332054, Control_c, 0, 64, 92
1, 332058, Note_on_c, 0, 76, 75
1, 332069, Control_c, 0, 64, 92
1, 332089, Note_off_c, 0, 76, 58
1, 332100, Note_on_c, 0, 74, 66
1, 332143, Note_on_c, 0, 69, 57
1, 332143, Control_c, 0, 64, 87
1, 332146, Note_on_c, 0, 65, 57
1, 332149, Note_off_c, 0, 74, 61
1, 332158, Control_c, 0, 64, 72
1, 332161, Note_on_c, 0, 76, 75
1, 332173, Control_c, 0, 64, 63
1, 332188, Control_c, 0, 64, 62
1, 332191, Note_off_c, 0, 76, 63
1, 332202, Control_c, 0, 64, 66
1, 332206, Note_on_c, 0, 74, 64
1, 332217, Control_c, 0, 64, 70
1, 332232, Control_c, 0, 64, 77
1, 332248, Control_c, 0, 64, 86
1, 332259, Note_off_c, 0, 74, 62
1, 332262, Note_on_c, 0, 76, 74
1, 332263, Control_c, 0, 64, 95
1, 332278, Control_c, 0, 64, 98
1, 332293, Control_c, 0, 64, 99
1, 332297, Note_off_c, 0, 76, 57
1, 332303, Note_on_c, 0, 74, 65
1, 332307, Note_off_c, 0, 69, 62
1, 332337, Control_c, 0, 64, 99
1, 332352, Control_c, 0, 64, 101
1, 332358, Note_off_c, 0, 74, 58
1, 332368, Note_on_c, 0, 76, 75
1, 332387, Note_off_c, 0, 65, 53
1, 332404, Note_on_c, 0, 74, 66
1, 332409, Note_off_c, 0, 76, 61
1, 332470, Control_c, 0, 64, 100
1, 332485, Control_c, 0, 64, 98
1, 332499, Control_c, 0, 64, 94
1, 332514, Control_c, 0, 64, 86
1, 332531, Note_on_c, 0, 77, 72
1, 332533, Note_off_c, 0, 74, 64
1, 332537, Control_c, 0, 64, 74
1, 332550, Note_on_c, 0, 59, 59
1, 332552, Control_c, 0, 64, 58
1, 332565, Note_on_c, 0, 68, 54
1, 332567, Control_c, 0, 64, 0
1, 332585, Note_off_c, 0, 57, 49
1, 332601, Note_off_c, 0, 77, 62
1, 332611, Note_on_c, 0, 79, 74
1, 332611, Control_c, 0, 64, 43
1, 332625, Control_c, 0, 64, 60
1, 332640, Control_c, 0, 64, 66
1, 332655, Control_c, 0, 64, 72
1, 332665, Note_off_c, 0, 79, 60
1, 332666, Note_on_c, 0, 77, 70
1, 332670, Control_c, 0, 64, 80
1, 332685, Control_c, 0, 64, 85
1, 332699, Control_c, 0, 64, 89
1, 332708, Note_off_c, 0, 77, 61
1, 332713, Note_on_c, 0, 79, 67
1, 332714, Control_c, 0, 64, 92
1, 332729, Control_c, 0, 64, 95
1, 332744, Control_c, 0, 64, 96
1, 332759, Control_c, 0, 64, 96
1, 332761, Note_on_c, 0, 77, 71
1, 332764, Note_off_c, 0, 79, 62
1, 332774, Control_c, 0, 64, 97
1, 332810, Note_on_c, 0, 79, 73
1, 332814, Note_off_c, 0, 77, 62
1, 332824, Note_off_c, 0, 68, 58
1, 332856, Note_on_c, 0, 77, 71
1, 332863, Note_off_c, 0, 79, 63
1, 332892, Control_c, 0, 64, 96
1, 332897, Poly_aftertouch_c, 0, 79, 0
1, 332904, Note_on_c, 0, 79, 73
1, 332907, Control_c, 0, 64, 96
1, 332913, Note_off_c, 0, 77, 64
1, 332921, Control_c, 0, 64, 93
1, 332936, Control_c, 0, 64, 89
1, 332951, Control_c, 0, 64, 85
1, 332964, Note_on_c, 0, 77, 77
1, 332966, Control_c, 0, 64, 81
1, 332981, Control_c, 0, 64, 76
1, 332984, Note_off_c, 0, 79, 62
1, 332996, Control_c, 0, 64, 71
1, 333011, Control_c, 0, 64, 66
1, 333025, Control_c, 0, 64, 60
1, 333040, Control_c, 0, 64, 44
1, 333045, Note_on_c, 0, 60, 54
1, 333053, Note_on_c, 0, 57, 46
1, 333053, Note_on_c, 0, 69, 49
1, 333056, Control_c, 0, 64, 0
1, 333074, Note_on_c, 0, 76, 84
1, 333094, Note_off_c, 0, 77, 61
1, 333130, Control_c, 0, 64, 35
1, 333145, Control_c, 0, 64, 60
1, 333160, Control_c, 0, 64, 68
1, 333163, Note_off_c, 0, 59, 35
1, 333175, Control_c, 0, 64, 75
1, 333190, Control_c, 0, 64, 81
1, 333219, Control_c, 0, 64, 80
1, 333230, Note_on_c, 0, 81, 74
1, 333231, Note_off_c, 0, 76, 54
1, 333234, Control_c, 0, 64, 76
1, 333248, Control_c, 0, 64, 70
1, 333263, Control_c, 0, 64, 65
1, 333285, Control_c, 0, 64, 61
1, 333296, Note_off_c, 0, 81, 61
1, 333300, Control_c, 0, 64, 56
1, 333315, Control_c, 0, 64, 40
1, 333330, Control_c, 0, 64, 0
1, 333366, Note_on_c, 0, 80, 77
1, 333420, Note_off_c, 0, 80, 64
1, 333461, Note_on_c, 0, 79, 79
1, 333506, Note_off_c, 0, 79, 58
1, 333562, Note_on_c, 0, 78, 77
1, 333613, Note_off_c, 0, 78, 63
1, 333658, Note_on_c, 0, 77, 68
1, 333666, Note_off_c, 0, 69, 40
1, 333700, Note_off_c, 0, 77, 58
1, 333739, Note_off_c, 0, 57, 55
1, 333762, Note_off_c, 0, 60, 53
1, 333764, Note_on_c, 0, 76, 70
1, 333809, Note_off_c, 0, 76, 64
1, 333855, Note_on_c, 0, 75, 62
1, 333885, Note_off_c, 0, 75, 64
1, 333952, Note_on_c, 0, 74, 62
1, 333980, Note_off_c, 0, 74, 64
1, 334057, Note_on_c, 0, 72, 62
1, 334088, Note_off_c, 0, 72, 64
1, 334153, Note_on_c, 0, 71, 50
1, 334195, Note_off_c, 0, 71, 59
1, 334242, Note_on_c, 0, 69, 56
1, 334264, Note_off_c, 0, 69, 67
1, 334419, Control_c, 0, 64, 14
1, 334434, Control_c, 0, 64, 20
1, 334442, Note_on_c, 0, 52, 40
1, 334449, Control_c, 0, 64, 26
1, 334450, Note_on_c, 0, 64, 23
1, 334464, Control_c, 0, 64, 37
1, 334478, Note_on_c, 0, 69, 50
1, 334478, Control_c, 0, 64, 49
1, 334489, Note_on_c, 0, 72, 52
1, 334493, Control_c, 0, 64, 55
1, 334508, Control_c, 0, 64, 54
1, 334552, Control_c, 0, 64, 56
1, 334567, Control_c, 0, 64, 57
1, 334597, Control_c, 0, 64, 56
1, 334657, Control_c, 0, 64, 56
1, 334665, Note_off_c, 0, 72, 64
1, 334672, Control_c, 0, 64, 55
1, 334687, Control_c, 0, 64, 54
1, 334693, Note_on_c, 0, 74, 51
1, 334701, Control_c, 0, 64, 53
1, 334731, Control_c, 0, 64, 52
1, 334746, Note_on_c, 0, 72, 57
1, 334746, Control_c, 0, 64, 50
1, 334747, Note_off_c, 0, 74, 57
1, 334761, Control_c, 0, 64, 44
1, 334783, Control_c, 0, 64, 24
1, 334791, Note_off_c, 0, 72, 64
1, 334798, Control_c, 0, 64, 0
1, 334811, Note_on_c, 0, 71, 62
1, 334874, Note_on_c, 0, 72, 59
1, 334875, Note_off_c, 0, 71, 55
1, 335005, Control_c, 0, 64, 22
1, 335020, Control_c, 0, 64, 42
1, 335034, Note_off_c, 0, 64, 55
1, 335035, Control_c, 0, 64, 47
1, 335050, Control_c, 0, 64, 53
1, 335065, Control_c, 0, 64, 57
1, 335074, Note_off_c, 0, 72, 63
1, 335080, Control_c, 0, 64, 60
1, 335094, Control_c, 0, 64, 61
1, 335097, Note_on_c, 0, 74, 49
1, 335242, Control_c, 0, 64, 60
1, 335257, Control_c, 0, 64, 60
1, 335272, Control_c, 0, 64, 59
1, 335287, Control_c, 0, 64, 59
1, 335316, Control_c, 0, 64, 58
1, 335331, Control_c, 0, 64, 56
1, 335342, Note_on_c, 0, 71, 49
1, 335345, Control_c, 0, 64, 53
1, 335351, Note_on_c, 0, 62, 22
1, 335352, Note_on_c, 0, 68, 42
1, 335360, Control_c, 0, 64, 48
1, 335375, Control_c, 0, 64, 38
1, 335390, Control_c, 0, 64, 26
1, 335405, Control_c, 0, 64, 0
1, 335472, Note_off_c, 0, 69, 45
1, 335562, Control_c, 0, 64, 8
1, 335576, Control_c, 0, 64, 42
1, 335591, Control_c, 0, 64, 49
1, 335606, Control_c, 0, 64, 53
1, 335621, Control_c, 0, 64, 55
1, 335627, Note_off_c, 0, 74, 27
1, 335636, Control_c, 0, 64, 58
1, 335650, Control_c, 0, 64, 60
1, 335665, Control_c, 0, 64, 61
1, 335680, Control_c, 0, 64, 62
1, 335783, Control_c, 0, 64, 61
1, 335843, Control_c, 0, 64, 61
1, 335858, Control_c, 0, 64, 60
1, 335870, Note_off_c, 0, 62, 40
1, 335872, Note_on_c, 0, 69, 42
1, 335884, Note_on_c, 0, 57, 16
1, 335888, Note_off_c, 0, 52, 32
1, 335891, Note_on_c, 0, 60, 22
1, 335917, Control_c, 0, 64, 59
1, 335932, Control_c, 0, 64, 58
1, 335947, Control_c, 0, 64, 58
1, 335961, Note_off_c, 0, 68, 45
1, 335962, Control_c, 0, 64, 57
1, 335968, Note_off_c, 0, 71, 30
1, 335991, Control_c, 0, 64, 56
1, 336006, Control_c, 0, 64, 55
1, 336021, Control_c, 0, 64, 51
1, 336036, Control_c, 0, 64, 45
1, 336050, Control_c, 0, 64, 38
1, 336065, Control_c, 0, 64, 29
1, 336080, Control_c, 0, 64, 0
1, 336183, Control_c, 0, 64, 42
1, 336198, Control_c, 0, 64, 51
1, 336213, Control_c, 0, 64, 58
1, 336228, Control_c, 0, 64, 61
1, 336244, Control_c, 0, 64, 63
1, 336259, Control_c, 0, 64, 64
1, 336281, Control_c, 0, 64, 65
1, 336325, Note_off_c, 0, 60, 43
1, 336338, Note_off_c, 0, 57, 41
1, 336341, Control_c, 0, 64, 65
1, 336384, Note_off_c, 0, 69, 32
1, 336444, Control_c, 0, 64, 65
1, 336473, Control_c, 0, 64, 64
1, 336503, Control_c, 0, 64, 64
1, 336518, Control_c, 0, 64, 63
1, 336533, Control_c, 0, 64, 63
1, 336577, Control_c, 0, 64, 62
1, 336591, Control_c, 0, 64, 62
1, 336606, Control_c, 0, 64, 61
1, 336621, Control_c, 0, 64, 59
1, 336636, Control_c, 0, 64, 58
1, 336651, Control_c, 0, 64, 58
1, 336666, Control_c, 0, 64, 56
1, 336680, Control_c, 0, 64, 54
1, 336695, Control_c, 0, 64, 49
1, 336710, Control_c, 0, 64, 38
1, 336725, Control_c, 0, 64, 0
1, 336844, Control_c, 0, 64, 40
1, 336859, Control_c, 0, 64, 50
1, 336873, Control_c, 0, 64, 57
1, 336888, Control_c, 0, 64, 61
1, 336903, Control_c, 0, 64, 63
1, 336917, Control_c, 0, 64, 64
1, 336932, Control_c, 0, 64, 66
1, 336947, Control_c, 0, 64, 67
1, 336952, Note_on_c, 0, 72, 42
1, 336962, Control_c, 0, 64, 70
1, 336977, Control_c, 0, 64, 72
1, 336991, Control_c, 0, 64, 75
1, 337006, Control_c, 0, 64, 76
1, 337029, Control_c, 0, 64, 78
1, 337044, Control_c, 0, 64, 79
1, 337059, Control_c, 0, 64, 80
1, 337074, Control_c, 0, 64, 81
1, 337089, Control_c, 0, 64, 81
1, 337270, Note_off_c, 0, 72, 23
1, 337400, Control_c, 0, 64, 81
1, 337429, Control_c, 0, 64, 80
1, 337444, Control_c, 0, 64, 80
1, 337459, Note_on_c, 0, 48, 31
1, 337474, Control_c, 0, 64, 79
1, 337488, Control_c, 0, 64, 79
1, 337503, Control_c, 0, 64, 77
1, 337518, Control_c, 0, 64, 76
1, 337533, Control_c, 0, 64, 74
1, 337535, Note_on_c, 0, 71, 40
1, 337548, Control_c, 0, 64, 72
1, 337563, Control_c, 0, 64, 70
1, 337578, Control_c, 0, 64, 67
1, 337578, Note_off_c, 0, 71, 54
1, 337593, Control_c, 0, 64, 64
1, 337605, Note_on_c, 0, 72, 36
1, 337607, Control_c, 0, 64, 60
1, 337622, Control_c, 0, 64, 53
1, 337632, Note_off_c, 0, 72, 56
1, 337637, Control_c, 0, 64, 37
1, 337649, Note_on_c, 0, 74, 48
1, 337652, Control_c, 0, 64, 0
1, 337705, Note_off_c, 0, 74, 51
1, 337722, Note_on_c, 0, 72, 42
1, 337784, Note_off_c, 0, 72, 0
1, 337784, Note_on_c, 0, 72, 7
1, 337956, Control_c, 0, 64, 45
1, 337971, Control_c, 0, 64, 56
1, 337986, Control_c, 0, 64, 59
1, 338001, Control_c, 0, 64, 61
1, 338016, Control_c, 0, 64, 63
1, 338031, Control_c, 0, 64, 64
1, 338045, Control_c, 0, 64, 66
1, 338060, Control_c, 0, 64, 67
1, 338075, Control_c, 0, 64, 68
1, 338090, Control_c, 0, 64, 71
1, 338105, Control_c, 0, 64, 73
1, 338119, Control_c, 0, 64, 75
1, 338134, Control_c, 0, 64, 77
1, 338149, Control_c, 0, 64, 79
1, 338163, Control_c, 0, 64, 81
1, 338178, Control_c, 0, 64, 83
1, 338193, Control_c, 0, 64, 86
1, 338208, Control_c, 0, 64, 98
1, 338212, Note_on_c, 0, 52, 34
1, 338217, Note_on_c, 0, 55, 31
1, 338223, Control_c, 0, 64, 121
1, 338237, Control_c, 0, 64, 127
1, 338354, Note_off_c, 0, 52, 42
1, 338365, Note_off_c, 0, 55, 41
1, 338397, Note_off_c, 0, 72, 51
1, 338401, Note_on_c, 0, 71, 58
1, 338570, Control_c, 0, 64, 114
1, 338585, Control_c, 0, 64, 98
1, 338600, Control_c, 0, 64, 86
1, 338607, Note_on_c, 0, 72, 64
1, 338609, Note_on_c, 0, 52, 40
1, 338612, Note_on_c, 0, 55, 33
1, 338615, Control_c, 0, 64, 74
1, 338630, Control_c, 0, 64, 64
1, 338646, Control_c, 0, 64, 44
1, 338661, Control_c, 0, 64, 0
1, 338686, Note_off_c, 0, 71, 60
1, 338690, Control_c, 0, 64, 10
1, 338705, Control_c, 0, 64, 42
1, 338718, Note_off_c, 0, 48, 39
1, 338720, Control_c, 0, 64, 54
1, 338735, Control_c, 0, 64, 63
1, 338749, Control_c, 0, 64, 66
1, 338764, Control_c, 0, 64, 71
1, 338779, Control_c, 0, 64, 74
1, 338794, Control_c, 0, 64, 77
1, 338809, Control_c, 0, 64, 80
1, 338824, Control_c, 0, 64, 81
1, 338987, Control_c, 0, 64, 79
1, 339001, Control_c, 0, 64, 77
1, 339014, Note_on_c, 0, 76, 52
1, 339016, Control_c, 0, 64, 75
1, 339023, Note_on_c, 0, 48, 37
1, 339031, Control_c, 0, 64, 72
1, 339046, Control_c, 0, 64, 69
1, 339060, Control_c, 0, 64, 66
1, 339075, Control_c, 0, 64, 63
1, 339090, Control_c, 0, 64, 58
1, 339091, Note_off_c, 0, 52, 37
1, 339101, Note_off_c, 0, 55, 35
1, 339105, Control_c, 0, 64, 47
1, 339119, Control_c, 0, 64, 0
1, 339132, Note_off_c, 0, 72, 53
1, 339253, Control_c, 0, 64, 43
1, 339275, Control_c, 0, 64, 54
1, 339290, Control_c, 0, 64, 59
1, 339305, Control_c, 0, 64, 63
1, 339319, Control_c, 0, 64, 64
1, 339334, Control_c, 0, 64, 66
1, 339349, Control_c, 0, 64, 69
1, 339364, Control_c, 0, 64, 72
1, 339379, Control_c, 0, 64, 75
1, 339393, Control_c, 0, 64, 76
1, 339408, Control_c, 0, 64, 78
1, 339423, Control_c, 0, 64, 80
1, 339439, Control_c, 0, 64, 81
1, 339454, Control_c, 0, 64, 83
1, 339469, Control_c, 0, 64, 85
1, 339484, Control_c, 0, 64, 87
1, 339498, Control_c, 0, 64, 87
1, 339519, Note_on_c, 0, 52, 18
1, 339530, Note_on_c, 0, 55, 22
1, 339676, Note_on_c, 0, 74, 44
1, 339723, Note_off_c, 0, 55, 42
1, 339726, Note_off_c, 0, 52, 39
1, 339757, Note_off_c, 0, 76, 36
1, 339784, Note_on_c, 0, 72, 47
1, 339813, Note_off_c, 0, 74, 56
1, 339839, Control_c, 0, 64, 87
1, 339853, Note_off_c, 0, 72, 59
1, 339854, Control_c, 0, 64, 86
1, 339857, Note_on_c, 0, 71, 51
1, 339869, Control_c, 0, 64, 84
1, 339883, Control_c, 0, 64, 82
1, 339898, Control_c, 0, 64, 80
1, 339913, Control_c, 0, 64, 75
1, 339928, Control_c, 0, 64, 70
1, 339939, Note_off_c, 0, 71, 55
1, 339942, Control_c, 0, 64, 64
1, 339944, Note_on_c, 0, 74, 47
1, 339957, Control_c, 0, 64, 52
1, 339958, Note_on_c, 0, 55, 31
1, 339962, Note_on_c, 0, 52, 29
1, 339972, Control_c, 0, 64, 32
1, 339987, Control_c, 0, 64, 22
1, 340002, Control_c, 0, 64, 29
1, 340024, Control_c, 0, 64, 44
1, 340039, Control_c, 0, 64, 56
1, 340054, Control_c, 0, 64, 61
1, 340055, Note_on_c, 0, 72, 55
1, 340069, Control_c, 0, 64, 64
1, 340073, Note_off_c, 0, 74, 52
1, 340084, Control_c, 0, 64, 66
1, 340098, Control_c, 0, 64, 67
1, 340133, Note_on_c, 0, 71, 59
1, 340157, Control_c, 0, 64, 67
1, 340180, Note_off_c, 0, 72, 58
1, 340193, Note_on_c, 0, 69, 60
1, 340262, Control_c, 0, 64, 67
1, 340277, Control_c, 0, 64, 66
1, 340287, Note_off_c, 0, 71, 37
1, 340292, Control_c, 0, 64, 64
1, 340293, Note_off_c, 0, 48, 33
1, 340307, Control_c, 0, 64, 62
1, 340311, Note_on_c, 0, 67, 55
1, 340314, Note_on_c, 0, 47, 40
1, 340321, Control_c, 0, 64, 58
1, 340336, Control_c, 0, 64, 55
1, 340349, Note_off_c, 0, 69, 39
1, 340351, Control_c, 0, 64, 47
1, 340362, Note_off_c, 0, 52, 24
1, 340365, Control_c, 0, 64, 28
1, 340380, Control_c, 0, 64, 0
1, 340389, Note_off_c, 0, 55, 39
1, 340529, Control_c, 0, 64, 26
1, 340544, Control_c, 0, 64, 50
1, 340558, Control_c, 0, 64, 59
1, 340573, Control_c, 0, 64, 63
1, 340588, Control_c, 0, 64, 65
1, 340603, Control_c, 0, 64, 66
1, 340618, Control_c, 0, 64, 68
1, 340632, Control_c, 0, 64, 72
1, 340647, Control_c, 0, 64, 77
1, 340662, Control_c, 0, 64, 79
1, 340677, Control_c, 0, 64, 80
1, 340692, Control_c, 0, 64, 81
1, 340707, Control_c, 0, 64, 82
1, 340721, Control_c, 0, 64, 83
1, 340724, Note_on_c, 0, 55, 28
1, 340726, Note_on_c, 0, 50, 32
1, 340733, Note_on_c, 0, 53, 28
1, 340736, Control_c, 0, 64, 83
1, 340812, Note_off_c, 0, 67, 51
1, 340855, Note_on_c, 0, 69, 46
1, 340869, Note_off_c, 0, 55, 41
1, 340887, Note_off_c, 0, 53, 41
1, 340896, Note_off_c, 0, 69, 63
1, 340897, Note_off_c, 0, 50, 36
1, 340919, Note_on_c, 0, 67, 49
1, 340945, Note_off_c, 0, 67, 58
1, 340965, Note_on_c, 0, 66, 53
1, 340965, Control_c, 0, 64, 83
1, 340980, Control_c, 0, 64, 82
1, 340995, Control_c, 0, 64, 80
1, 341003, Note_off_c, 0, 66, 62
1, 341010, Control_c, 0, 64, 76
1, 341025, Control_c, 0, 64, 72
1, 341027, Note_on_c, 0, 67, 46
1, 341041, Control_c, 0, 64, 67
1, 341056, Control_c, 0, 64, 60
1, 341070, Control_c, 0, 64, 40
1, 341085, Control_c, 0, 64, 0
1, 341095, Note_on_c, 0, 53, 31
1, 341099, Note_on_c, 0, 55, 35
1, 341113, Note_on_c, 0, 50, 26
1, 341133, Note_on_c, 0, 71, 42
1, 341144, Note_off_c, 0, 67, 38
1, 341188, Control_c, 0, 64, 50
1, 341203, Control_c, 0, 64, 60
1, 341218, Control_c, 0, 64, 63
1, 341233, Control_c, 0, 64, 64
1, 341238, Note_off_c, 0, 47, 37
1, 341248, Control_c, 0, 64, 65
1, 341262, Control_c, 0, 64, 66
1, 341277, Control_c, 0, 64, 67
1, 341292, Control_c, 0, 64, 68
1, 341307, Control_c, 0, 64, 68
1, 341357, Note_on_c, 0, 69, 42
1, 341432, Note_off_c, 0, 71, 30
1, 341441, Control_c, 0, 64, 68
1, 341470, Control_c, 0, 64, 67
1, 341473, Note_off_c, 0, 55, 34
1, 341485, Control_c, 0, 64, 67
1, 341500, Control_c, 0, 64, 66
1, 341521, Control_c, 0, 64, 66
1, 341524, Note_off_c, 0, 53, 29
1, 341536, Control_c, 0, 64, 65
1, 341537, Note_on_c, 0, 48, 38
1, 341551, Control_c, 0, 64, 63
1, 341566, Note_on_c, 0, 67, 39
1, 341566, Control_c, 0, 64, 61
1, 341570, Note_off_c, 0, 50, 27
1, 341581, Control_c, 0, 64, 56
1, 341596, Control_c, 0, 64, 48
1, 341602, Note_off_c, 0, 69, 30
1, 341611, Control_c, 0, 64, 34
1, 341626, Control_c, 0, 64, 0
1, 341774, Control_c, 0, 64, 28
1, 341788, Control_c, 0, 64, 51
1, 341803, Control_c, 0, 64, 59
1, 341818, Control_c, 0, 64, 64
1, 341834, Control_c, 0, 64, 66
1, 341841, Note_off_c, 0, 67, 51
1, 341849, Control_c, 0, 64, 69
1, 341864, Control_c, 0, 64, 73
1, 341879, Control_c, 0, 64, 78
1, 341893, Control_c, 0, 64, 81
1, 341908, Control_c, 0, 64, 81
1, 341937, Control_c, 0, 64, 82
1, 341951, Note_on_c, 0, 52, 41
1, 341952, Control_c, 0, 64, 82
1, 341959, Note_on_c, 0, 55, 39
1, 341967, Control_c, 0, 64, 83
1, 342098, Note_off_c, 0, 55, 36
1, 342112, Note_off_c, 0, 52, 40
1, 342219, Control_c, 0, 64, 82
1, 342234, Control_c, 0, 64, 81
1, 342249, Control_c, 0, 64, 79
1, 342271, Control_c, 0, 64, 75
1, 342285, Control_c, 0, 64, 69
1, 342300, Control_c, 0, 64, 59
1, 342315, Control_c, 0, 64, 0
1, 342336, Note_on_c, 0, 64, 41
1, 342340, Note_on_c, 0, 52, 36
1, 342340, Note_on_c, 0, 55, 32
1, 342359, Control_c, 0, 64, 48
1, 342364, Note_off_c, 0, 64, 57
1, 342374, Control_c, 0, 64, 60
1, 342382, Note_on_c, 0, 65, 55
1, 342389, Control_c, 0, 64, 65
1, 342404, Control_c, 0, 64, 70
1, 342407, Note_off_c, 0, 65, 63
1, 342419, Control_c, 0, 64, 75
1, 342434, Control_c, 0, 64, 76
1, 342437, Note_off_c, 0, 48, 39
1, 342441, Note_on_c, 0, 64, 46
1, 342469, Note_off_c, 0, 64, 56
1, 342473, Note_on_c, 0, 65, 65
1, 342478, Control_c, 0, 64, 75
1, 342493, Control_c, 0, 64, 71
1, 342499, Note_off_c, 0, 65, 66
1, 342501, Note_off_c, 0, 52, 41
1, 342508, Control_c, 0, 64, 65
1, 342517, Note_on_c, 0, 64, 58
1, 342523, Control_c, 0, 64, 55
1, 342537, Control_c, 0, 64, 46
1, 342545, Note_off_c, 0, 64, 67
1, 342552, Control_c, 0, 64, 58
1, 342566, Control_c, 0, 64, 64
1, 342569, Note_on_c, 0, 62, 59
1, 342581, Control_c, 0, 64, 66
1, 342596, Control_c, 0, 64, 69
1, 342609, Note_off_c, 0, 62, 48
1, 342610, Control_c, 0, 64, 70
1, 342634, Note_on_c, 0, 64, 61
1, 342656, Control_c, 0, 64, 69
1, 342671, Control_c, 0, 64, 68
1, 342686, Control_c, 0, 64, 66
1, 342701, Control_c, 0, 64, 63
1, 342715, Control_c, 0, 64, 58
1, 342718, Note_on_c, 0, 67, 62
1, 342726, Note_off_c, 0, 64, 61
1, 342730, Control_c, 0, 64, 48
1, 342739, Note_on_c, 0, 48, 35
1, 342745, Control_c, 0, 64, 27
1, 342747, Note_on_c, 0, 52, 31
1, 342752, Note_off_c, 0, 67, 61
1, 342759, Control_c, 0, 64, 0
1, 342840, Note_off_c, 0, 55, 32
1, 342914, Note_on_c, 0, 67, 71
1, 343095, Note_on_c, 0, 72, 67
1, 343100, Note_off_c, 0, 67, 61
1, 343146, Note_off_c, 0, 72, 65
1, 343278, Note_on_c, 0, 72, 78
1, 343370, Note_off_c, 0, 48, 35
1, 343392, Note_off_c, 0, 52, 39
1, 343456, Note_on_c, 0, 76, 84
1, 343508, Note_off_c, 0, 72, 60
1, 343526, Note_off_c, 0, 76, 65
1, 343623, Note_on_c, 0, 76, 76
1, 343897, Note_on_c, 0, 79, 60
1, 343988, Note_off_c, 0, 76, 47
1, 344494, Control_c, 0, 64, 33
1, 344517, Control_c, 0, 64, 39
1, 344531, Control_c, 0, 64, 43
1, 344546, Control_c, 0, 64, 48
1, 344561, Control_c, 0, 64, 52
1, 344576, Control_c, 0, 64, 55
1, 344591, Control_c, 0, 64, 58
1, 344605, Control_c, 0, 64, 59
1, 344620, Control_c, 0, 64, 60
1, 344635, Control_c, 0, 64, 61
1, 344650, Control_c, 0, 64, 62
1, 344665, Control_c, 0, 64, 63
1, 344679, Control_c, 0, 64, 64
1, 344694, Control_c, 0, 64, 65
1, 344756, Note_on_c, 0, 77, 44
1, 344768, Control_c, 0, 64, 66
1, 344824, Note_off_c, 0, 79, 36
1, 344842, Control_c, 0, 67, 14
1, 344851, Note_on_c, 0, 76, 42
1, 344857, Control_c, 0, 67, 22
1, 344872, Control_c, 0, 67, 27
1, 344887, Control_c, 0, 67, 32
1, 344902, Control_c, 0, 67, 37
1, 344917, Control_c, 0, 67, 43
1, 344920, Note_off_c, 0, 77, 38
1, 344931, Control_c, 0, 67, 49
1, 344935, Note_on_c, 0, 74, 51
1, 344946, Control_c, 0, 67, 54
1, 344955, Note_off_c, 0, 76, 63
1, 344961, Control_c, 0, 64, 65
1, 344961, Control_c, 0, 67, 57
1, 344976, Control_c, 0, 67, 60
1, 344987, Note_off_c, 0, 74, 63
1, 344991, Control_c, 0, 67, 63
1, 345001, Note_on_c, 0, 72, 57
1, 345005, Control_c, 0, 67, 66
1, 345020, Control_c, 0, 64, 65
1, 345020, Control_c, 0, 67, 70
1, 345036, Control_c, 0, 67, 72
1, 345051, Control_c, 0, 67, 74
1, 345062, Note_off_c, 0, 72, 62
1, 345066, Control_c, 0, 67, 76
1, 345075, Note_on_c, 0, 71, 56
1, 345081, Control_c, 0, 67, 79
1, 345096, Control_c, 0, 64, 64
1, 345096, Control_c, 0, 67, 83
1, 345110, Control_c, 0, 67, 86
1, 345125, Control_c, 0, 67, 89
1, 345140, Control_c, 0, 64, 64
1, 345140, Control_c, 0, 67, 91
1, 345150, Note_on_c, 0, 69, 56
1, 345154, Control_c, 0, 67, 93
1, 345169, Control_c, 0, 67, 95
1, 345170, Note_off_c, 0, 71, 53
1, 345184, Control_c, 0, 64, 63
1, 345184, Control_c, 0, 67, 97
1, 345199, Control_c, 0, 64, 62
1, 345199, Control_c, 0, 67, 99
1, 345214, Control_c, 0, 64, 62
1, 345243, Control_c, 0, 64, 61
1, 345243, Control_c, 0, 67, 99
1, 345265, Control_c, 0, 64, 60
1, 345280, Control_c, 0, 64, 58
1, 345289, Note_on_c, 0, 67, 47
1, 345295, Note_on_c, 0, 43, 35
1, 345295, Control_c, 0, 64, 56
1, 345306, Note_on_c, 0, 47, 28
1, 345310, Control_c, 0, 64, 54
1, 345325, Control_c, 0, 64, 52
1, 345331, Note_off_c, 0, 69, 62
1, 345340, Control_c, 0, 64, 49
1, 345355, Control_c, 0, 64, 43
1, 345369, Control_c, 0, 64, 0
1, 345388, Note_off_c, 0, 67, 57
1, 345414, Control_c, 0, 67, 100
1, 345528, Note_on_c, 0, 67, 47
1, 345620, Note_off_c, 0, 67, 57
1, 345635, Control_c, 0, 67, 99
1, 345646, Note_off_c, 0, 47, 50
1, 345650, Note_off_c, 0, 43, 41
1, 345650, Control_c, 0, 67, 99
1, 345665, Control_c, 0, 67, 98
1, 345695, Control_c, 0, 67, 98
1, 345729, Note_on_c, 0, 66, 56
1, 345734, Note_on_c, 0, 48, 39
1, 345736, Note_on_c, 0, 45, 43
1, 345769, Control_c, 0, 67, 97
1, 345814, Control_c, 0, 67, 97
1, 345832, Note_off_c, 0, 66, 62
1, 345859, Control_c, 0, 67, 96
1, 345888, Control_c, 0, 67, 96
1, 345918, Control_c, 0, 67, 95
1, 345932, Note_on_c, 0, 66, 64
1, 345945, Note_off_c, 0, 45, 60
1, 345948, Control_c, 0, 67, 95
1, 345960, Note_off_c, 0, 48, 53
1, 345975, Note_off_c, 0, 66, 58
1, 345977, Control_c, 0, 67, 94
1, 345992, Control_c, 0, 67, 94
1, 346073, Control_c, 0, 67, 93
1, 346110, Note_on_c, 0, 47, 43
1, 346115, Note_on_c, 0, 65, 54
1, 346122, Note_on_c, 0, 50, 35
1, 346190, Note_off_c, 0, 65, 59
1, 346281, Control_c, 0, 67, 93
1, 346300, Note_on_c, 0, 65, 47
1, 346301, Note_off_c, 0, 47, 53
1, 346314, Note_off_c, 0, 50, 41
1, 346332, Note_off_c, 0, 65, 54
1, 346355, Control_c, 0, 67, 92
1, 346370, Control_c, 0, 67, 92
1, 346384, Control_c, 0, 67, 91
1, 346399, Control_c, 0, 67, 90
1, 346414, Control_c, 0, 67, 90
1, 346429, Control_c, 0, 67, 89
1, 346444, Control_c, 0, 67, 88
1, 346458, Control_c, 0, 67, 87
1, 346473, Control_c, 0, 67, 84
1, 346488, Control_c, 0, 67, 81
1, 346502, Control_c, 0, 67, 77
1, 346517, Control_c, 0, 64, 24
1, 346517, Control_c, 0, 67, 72
1, 346532, Control_c, 0, 64, 41
1, 346532, Control_c, 0, 67, 67
1, 346542, Note_on_c, 0, 64, 34
1, 346544, Note_on_c, 0, 48, 18
1, 346547, Control_c, 0, 64, 48
1, 346547, Control_c, 0, 67, 62
1, 346562, Control_c, 0, 64, 53
1, 346562, Control_c, 0, 67, 56
1, 346577, Control_c, 0, 64, 58
1, 346577, Control_c, 0, 67, 49
1, 346592, Control_c, 0, 64, 62
1, 346592, Control_c, 0, 67, 42
1, 346607, Control_c, 0, 64, 64
1, 346607, Control_c, 0, 67, 36
1, 346622, Control_c, 0, 64, 65
1, 346622, Control_c, 0, 67, 31
1, 346637, Control_c, 0, 64, 67
1, 346637, Control_c, 0, 67, 23
1, 346652, Control_c, 0, 64, 70
1, 346652, Control_c, 0, 67, 14
1, 346667, Control_c, 0, 64, 76
1, 346667, Control_c, 0, 67, 0
1, 346681, Control_c, 0, 64, 81
1, 346696, Control_c, 0, 64, 87
1, 346711, Control_c, 0, 64, 93
1, 346726, Control_c, 0, 64, 101
1, 346741, Control_c, 0, 64, 118
1, 346763, Control_c, 0, 64, 127
1, 346791, Note_off_c, 0, 48, 36
1, 346985, Note_off_c, 0, 64, 36
1, 347355, Control_c, 0, 64, 104
1, 347370, Control_c, 0, 64, 85
1, 347385, Control_c, 0, 64, 72
1, 347400, Control_c, 0, 64, 63
1, 347415, Control_c, 0, 64, 43
1, 347430, Control_c, 0, 64, 0
1, 347467, Note_on_c, 0, 76, 39
1, 347527, Control_c, 0, 64, 33
1, 347542, Control_c, 0, 64, 58
1, 347556, Control_c, 0, 64, 63
1, 347571, Control_c, 0, 64, 68
1, 347586, Control_c, 0, 64, 75
1, 347601, Control_c, 0, 64, 84
1, 347616, Control_c, 0, 64, 92
1, 347630, Control_c, 0, 64, 102
1, 347635, Note_off_c, 0, 76, 36
1, 347645, Control_c, 0, 64, 127
1, 347947, Note_on_c, 0, 53, 23
1, 347951, Note_on_c, 0, 76, 61
1, 348016, Control_c, 0, 64, 106
1, 348030, Control_c, 0, 64, 94
1, 348045, Control_c, 0, 64, 84
1, 348060, Control_c, 0, 64, 76
1, 348074, Control_c, 0, 64, 69
1, 348089, Control_c, 0, 64, 63
1, 348104, Control_c, 0, 64, 53
1, 348119, Control_c, 0, 64, 36
1, 348134, Control_c, 0, 64, 22
1, 348148, Control_c, 0, 64, 29
1, 348163, Control_c, 0, 64, 39
1, 348178, Control_c, 0, 64, 50
1, 348193, Control_c, 0, 64, 59
1, 348208, Control_c, 0, 64, 65
1, 348224, Control_c, 0, 64, 71
1, 348239, Control_c, 0, 64, 78
1, 348261, Control_c, 0, 64, 86
1, 348276, Control_c, 0, 64, 94
1, 348291, Control_c, 0, 64, 105
1, 348305, Control_c, 0, 64, 127
1, 348371, Note_on_c, 0, 57, 33
1, 348375, Note_on_c, 0, 74, 61
1, 348396, Note_on_c, 0, 60, 34
1, 348529, Note_off_c, 0, 76, 54
1, 348543, Note_off_c, 0, 57, 38
1, 348544, Note_off_c, 0, 60, 35
1, 348547, Note_off_c, 0, 74, 62
1, 348757, Note_on_c, 0, 74, 56
1, 348774, Note_on_c, 0, 57, 39
1, 348781, Note_on_c, 0, 60, 30
1, 348847, Note_off_c, 0, 74, 62
1, 348890, Note_off_c, 0, 53, 41
1, 349188, Control_c, 0, 64, 112
1, 349199, Note_on_c, 0, 74, 50
1, 349202, Control_c, 0, 64, 99
1, 349212, Note_on_c, 0, 53, 29
1, 349217, Control_c, 0, 64, 89
1, 349232, Control_c, 0, 64, 79
1, 349247, Control_c, 0, 64, 70
1, 349262, Control_c, 0, 64, 64
1, 349275, Note_off_c, 0, 60, 36
1, 349276, Control_c, 0, 64, 53
1, 349280, Note_off_c, 0, 57, 35
1, 349291, Control_c, 0, 64, 17
1, 349306, Control_c, 0, 64, 0
1, 349365, Control_c, 0, 64, 22
1, 349380, Control_c, 0, 64, 51
1, 349394, Control_c, 0, 64, 63
1, 349409, Control_c, 0, 64, 66
1, 349424, Control_c, 0, 64, 68
1, 349439, Control_c, 0, 64, 72
1, 349454, Control_c, 0, 64, 80
1, 349468, Control_c, 0, 64, 89
1, 349483, Control_c, 0, 64, 98
1, 349498, Control_c, 0, 64, 110
1, 349513, Control_c, 0, 64, 127
1, 349622, Note_on_c, 0, 57, 32
1, 349625, Note_on_c, 0, 60, 35
1, 349722, Note_off_c, 0, 74, 63
1, 349784, Note_on_c, 0, 76, 45
1, 349810, Note_off_c, 0, 60, 39
1, 349813, Note_off_c, 0, 57, 37
1, 349820, Note_off_c, 0, 76, 63
1, 349841, Note_on_c, 0, 74, 55
1, 349864, Note_off_c, 0, 74, 65
1, 349883, Note_on_c, 0, 73, 59
1, 349939, Note_on_c, 0, 74, 63
1, 349942, Note_off_c, 0, 73, 54
1, 349981, Control_c, 0, 64, 116
1, 349996, Control_c, 0, 64, 102
1, 350011, Control_c, 0, 64, 91
1, 350025, Control_c, 0, 64, 82
1, 350029, Note_on_c, 0, 60, 34
1, 350035, Note_on_c, 0, 57, 35
1, 350040, Control_c, 0, 64, 75
1, 350047, Note_on_c, 0, 76, 64
1, 350055, Control_c, 0, 64, 68
1, 350070, Control_c, 0, 64, 63
1, 350071, Note_off_c, 0, 74, 52
1, 350084, Control_c, 0, 64, 52
1, 350099, Control_c, 0, 64, 25
1, 350114, Control_c, 0, 64, 0
1, 350232, Control_c, 0, 64, 55
1, 350247, Control_c, 0, 64, 63
1, 350262, Control_c, 0, 64, 66
1, 350266, Note_on_c, 0, 72, 60
1, 350276, Control_c, 0, 64, 69
1, 350291, Control_c, 0, 64, 73
1, 350306, Control_c, 0, 64, 76
1, 350321, Control_c, 0, 64, 77
1, 350484, Control_c, 0, 64, 77
1, 350506, Control_c, 0, 64, 75
1, 350519, Note_on_c, 0, 54, 33
1, 350521, Control_c, 0, 64, 72
1, 350528, Note_on_c, 0, 69, 51
1, 350536, Control_c, 0, 64, 68
1, 350551, Control_c, 0, 64, 65
1, 350551, Note_off_c, 0, 60, 26
1, 350565, Control_c, 0, 64, 62
1, 350574, Note_off_c, 0, 76, 32
1, 350580, Control_c, 0, 64, 57
1, 350595, Control_c, 0, 64, 46
1, 350610, Control_c, 0, 64, 21
1, 350618, Note_off_c, 0, 53, 34
1, 350626, Control_c, 0, 64, 0
1, 350655, Note_off_c, 0, 57, 40
1, 350692, Note_off_c, 0, 72, 39
1, 350848, Control_c, 0, 64, 45
1, 350863, Control_c, 0, 64, 61
1, 350878, Control_c, 0, 64, 63
1, 350892, Control_c, 0, 64, 64
1, 350907, Control_c, 0, 64, 67
1, 350922, Control_c, 0, 64, 71
1, 350937, Control_c, 0, 64, 76
1, 350950, Note_on_c, 0, 60, 31
1, 350952, Control_c, 0, 64, 80
1, 350956, Note_on_c, 0, 62, 36
1, 350967, Control_c, 0, 64, 82
1, 350968, Note_on_c, 0, 57, 36
1, 350981, Control_c, 0, 64, 85
1, 350996, Control_c, 0, 64, 90
1, 351011, Control_c, 0, 64, 99
1, 351026, Control_c, 0, 64, 109
1, 351041, Control_c, 0, 64, 127
1, 351171, Note_off_c, 0, 57, 41
1, 351171, Note_off_c, 0, 60, 40
1, 351172, Note_off_c, 0, 62, 41
1, 351335, Note_on_c, 0, 60, 35
1, 351337, Note_on_c, 0, 57, 32
1, 351339, Note_on_c, 0, 62, 38
1, 351452, Note_off_c, 0, 54, 48
1, 351671, Control_c, 0, 64, 105
1, 351686, Control_c, 0, 64, 94
1, 351701, Control_c, 0, 64, 84
1, 351715, Control_c, 0, 64, 75
1, 351716, Note_on_c, 0, 54, 34
1, 351730, Control_c, 0, 64, 67
1, 351745, Control_c, 0, 64, 56
1, 351760, Control_c, 0, 64, 10
1, 351775, Control_c, 0, 64, 0
1, 351804, Control_c, 0, 64, 42
1, 351812, Note_off_c, 0, 69, 57
1, 351819, Control_c, 0, 64, 53
1, 351828, Note_off_c, 0, 62, 41
1, 351834, Control_c, 0, 64, 59
1, 351846, Note_off_c, 0, 60, 42
1, 351848, Control_c, 0, 64, 64
1, 351849, Note_on_c, 0, 71, 43
1, 351852, Note_off_c, 0, 57, 41
1, 351863, Control_c, 0, 64, 68
1, 351878, Control_c, 0, 64, 72
1, 351893, Control_c, 0, 64, 73
1, 351908, Control_c, 0, 64, 74
1, 351943, Note_on_c, 0, 69, 47
1, 351969, Note_off_c, 0, 71, 51
1, 351993, Note_off_c, 0, 69, 62
1, 352010, Note_on_c, 0, 68, 60
1, 352048, Control_c, 0, 64, 73
1, 352063, Control_c, 0, 64, 71
1, 352078, Control_c, 0, 64, 68
1, 352088, Note_off_c, 0, 68, 63
1, 352093, Control_c, 0, 64, 62
1, 352098, Note_on_c, 0, 60, 34
1, 352098, Note_on_c, 0, 57, 37
1, 352098, Note_on_c, 0, 62, 37
1, 352098, Note_on_c, 0, 69, 59
1, 352108, Control_c, 0, 64, 49
1, 352122, Control_c, 0, 64, 12
1, 352137, Control_c, 0, 64, 0
1, 352152, Control_c, 0, 64, 26
1, 352167, Control_c, 0, 64, 47
1, 352182, Control_c, 0, 64, 57
1, 352190, Note_on_c, 0, 71, 61
1, 352196, Control_c, 0, 64, 61
1, 352204, Note_off_c, 0, 69, 54
1, 352211, Control_c, 0, 64, 65
1, 352227, Control_c, 0, 64, 66
1, 352242, Control_c, 0, 64, 67
1, 352259, Note_off_c, 0, 71, 63
1, 352266, Note_on_c, 0, 72, 72
1, 352268, Note_off_c, 0, 60, 50
1, 352277, Note_off_c, 0, 62, 44
1, 352279, Note_off_c, 0, 57, 57
1, 352336, Note_on_c, 0, 71, 71
1, 352339, Note_off_c, 0, 72, 63
1, 352361, Control_c, 0, 64, 66
1, 352376, Control_c, 0, 64, 65
1, 352391, Control_c, 0, 64, 63
1, 352406, Control_c, 0, 64, 61
1, 352417, Note_on_c, 0, 74, 73
1, 352420, Control_c, 0, 64, 54
1, 352435, Control_c, 0, 64, 0
1, 352438, Note_off_c, 0, 71, 58
1, 352440, Note_on_c, 0, 57, 42
1, 352443, Note_on_c, 0, 60, 34
1, 352443, Note_on_c, 0, 62, 34
1, 352512, Note_on_c, 0, 72, 72
1, 352538, Note_off_c, 0, 54, 43
1, 352539, Control_c, 0, 64, 54
1, 352554, Control_c, 0, 64, 64
1, 352557, Note_off_c, 0, 57, 60
1, 352569, Control_c, 0, 64, 66
1, 352584, Control_c, 0, 64, 67
1, 352587, Note_on_c, 0, 71, 68
1, 352587, Note_off_c, 0, 74, 62
1, 352625, Note_off_c, 0, 72, 65
1, 352643, Control_c, 0, 64, 66
1, 352658, Control_c, 0, 64, 65
1, 352661, Note_on_c, 0, 69, 71
1, 352672, Control_c, 0, 64, 63
1, 352687, Control_c, 0, 64, 58
1, 352696, Note_off_c, 0, 71, 59
1, 352702, Control_c, 0, 64, 45
1, 352717, Control_c, 0, 64, 0
1, 352793, Note_on_c, 0, 67, 63
1, 352803, Note_on_c, 0, 55, 38
1, 352805, Note_off_c, 0, 69, 64
1, 352826, Note_off_c, 0, 62, 31
1, 352828, Note_off_c, 0, 60, 37
1, 352961, Control_c, 0, 64, 18
1, 352976, Control_c, 0, 64, 57
1, 352991, Control_c, 0, 64, 64
1, 353005, Control_c, 0, 64, 68
1, 353022, Control_c, 0, 64, 72
1, 353037, Control_c, 0, 64, 77
1, 353051, Control_c, 0, 64, 83
1, 353066, Control_c, 0, 64, 88
1, 353081, Control_c, 0, 64, 93
1, 353095, Control_c, 0, 64, 97
1, 353100, Note_off_c, 0, 67, 26
1, 353110, Control_c, 0, 64, 99
1, 353125, Control_c, 0, 64, 102
1, 353140, Control_c, 0, 64, 103
1, 353155, Control_c, 0, 64, 104
1, 353229, Control_c, 0, 64, 103
1, 353234, Note_on_c, 0, 79, 51
1, 353243, Control_c, 0, 64, 94
1, 353248, Note_on_c, 0, 60, 34
1, 353258, Control_c, 0, 64, 80
1, 353262, Note_on_c, 0, 64, 26
1, 353273, Control_c, 0, 64, 66
1, 353287, Control_c, 0, 64, 44
1, 353302, Control_c, 0, 64, 0
1, 353317, Control_c, 0, 64, 48
1, 353332, Control_c, 0, 64, 58
1, 353347, Control_c, 0, 64, 63
1, 353362, Control_c, 0, 64, 68
1, 353376, Control_c, 0, 64, 75
1, 353391, Control_c, 0, 64, 89
1, 353406, Control_c, 0, 64, 96
1, 353421, Control_c, 0, 64, 98
1, 353436, Control_c, 0, 64, 101
1, 353451, Control_c, 0, 64, 104
1, 353466, Control_c, 0, 64, 109
1, 353481, Control_c, 0, 64, 127
1, 353499, Note_off_c, 0, 64, 43
1, 353528, Note_off_c, 0, 60, 39
1, 353551, Note_off_c, 0, 79, 48
1, 353663, Note_on_c, 0, 79, 70
1, 353666, Control_c, 0, 64, 118
1, 353681, Control_c, 0, 64, 83
1, 353686, Note_on_c, 0, 64, 38
1, 353691, Note_on_c, 0, 60, 28
1, 353695, Control_c, 0, 64, 69
1, 353710, Control_c, 0, 64, 63
1, 353725, Control_c, 0, 64, 65
1, 353740, Control_c, 0, 64, 69
1, 353755, Control_c, 0, 64, 76
1, 353769, Control_c, 0, 64, 84
1, 353784, Control_c, 0, 64, 92
1, 353796, Note_off_c, 0, 55, 42
1, 353798, Control_c, 0, 64, 99
1, 353814, Control_c, 0, 64, 107
1, 353829, Control_c, 0, 64, 119
1, 353843, Control_c, 0, 64, 127
1, 353936, Note_off_c, 0, 79, 51
1, 354021, Control_c, 0, 64, 119
1, 354035, Control_c, 0, 64, 103
1, 354042, Note_on_c, 0, 79, 77
1, 354050, Control_c, 0, 64, 87
1, 354065, Control_c, 0, 64, 70
1, 354067, Note_on_c, 0, 55, 43
1, 354080, Control_c, 0, 64, 59
1, 354095, Note_off_c, 0, 60, 38
1, 354095, Control_c, 0, 64, 21
1, 354110, Control_c, 0, 64, 0
1, 354111, Note_off_c, 0, 64, 41
1, 354140, Control_c, 0, 64, 41
1, 354154, Control_c, 0, 64, 60
1, 354169, Control_c, 0, 64, 66
1, 354184, Control_c, 0, 64, 71
1, 354199, Control_c, 0, 64, 77
1, 354214, Control_c, 0, 64, 83
1, 354229, Control_c, 0, 64, 89
1, 354250, Control_c, 0, 64, 97
1, 354265, Control_c, 0, 64, 127
1, 354333, Note_off_c, 0, 79, 61
1, 354474, Note_on_c, 0, 79, 77
1, 354479, Note_on_c, 0, 62, 44
1, 354484, Note_on_c, 0, 59, 43
1, 354503, Control_c, 0, 64, 102
1, 354517, Control_c, 0, 64, 79
1, 354532, Control_c, 0, 64, 67
1, 354547, Control_c, 0, 64, 59
1, 354562, Control_c, 0, 64, 58
1, 354577, Control_c, 0, 64, 62
1, 354591, Control_c, 0, 64, 66
1, 354606, Control_c, 0, 64, 70
1, 354622, Control_c, 0, 64, 78
1, 354637, Control_c, 0, 64, 88
1, 354652, Control_c, 0, 64, 98
1, 354666, Control_c, 0, 64, 121
1, 354681, Control_c, 0, 64, 127
1, 354715, Note_off_c, 0, 59, 51
1, 354736, Note_off_c, 0, 62, 41
1, 354777, Note_off_c, 0, 79, 58
1, 354873, Control_c, 0, 64, 91
1, 354888, Control_c, 0, 64, 72
1, 354893, Note_on_c, 0, 79, 72
1, 354903, Control_c, 0, 64, 61
1, 354915, Note_on_c, 0, 62, 40
1, 354918, Control_c, 0, 64, 35
1, 354924, Note_on_c, 0, 59, 35
1, 354932, Control_c, 0, 64, 32
1, 354947, Control_c, 0, 64, 50
1, 354962, Control_c, 0, 64, 62
1, 354977, Control_c, 0, 64, 68
1, 354999, Control_c, 0, 64, 76
1, 355014, Control_c, 0, 64, 89
1, 355029, Control_c, 0, 64, 108
1, 355044, Control_c, 0, 64, 127
1, 355067, Note_off_c, 0, 79, 58
1, 355096, Note_off_c, 0, 59, 43
1, 355135, Note_off_c, 0, 62, 40
1, 355475, Control_c, 0, 64, 110
1, 355489, Control_c, 0, 64, 100
1, 355490, Note_on_c, 0, 56, 33
1, 355504, Control_c, 0, 64, 93
1, 355505, Note_on_c, 0, 59, 31
1, 355509, Note_on_c, 0, 62, 30
1, 355519, Control_c, 0, 64, 87
1, 355525, Note_on_c, 0, 77, 58
1, 355534, Control_c, 0, 64, 81
1, 355549, Control_c, 0, 64, 75
1, 355563, Control_c, 0, 64, 70
1, 355566, Note_off_c, 0, 55, 41
1, 355578, Control_c, 0, 64, 66
1, 355593, Control_c, 0, 64, 62
1, 355608, Control_c, 0, 64, 57
1, 355622, Control_c, 0, 64, 48
1, 355637, Control_c, 0, 64, 33
1, 355652, Control_c, 0, 64, 0
1, 355793, Control_c, 0, 64, 31
1, 355808, Control_c, 0, 64, 54
1, 355822, Control_c, 0, 64, 62
1, 355837, Control_c, 0, 64, 64
1, 355852, Control_c, 0, 64, 67
1, 355867, Control_c, 0, 64, 70
1, 355882, Control_c, 0, 64, 77
1, 355896, Control_c, 0, 64, 86
1, 355911, Control_c, 0, 64, 95
1, 355926, Control_c, 0, 64, 103
1, 355941, Control_c, 0, 64, 125
1, 355956, Control_c, 0, 64, 127
1, 356107, Note_off_c, 0, 62, 35
1, 356267, Control_c, 0, 67, 9
1, 356282, Control_c, 0, 67, 15
1, 356297, Control_c, 0, 67, 20
1, 356311, Control_c, 0, 67, 23
1, 356326, Control_c, 0, 67, 26
1, 356341, Control_c, 0, 67, 30
1, 356356, Control_c, 0, 67, 33
1, 356371, Control_c, 0, 67, 34
1, 356375, Note_off_c, 0, 77, 58
1, 356391, Note_on_c, 0, 79, 46
1, 356415, Control_c, 0, 67, 34
1, 356430, Control_c, 0, 67, 35
1, 356502, Note_on_c, 0, 77, 45
1, 356530, Note_off_c, 0, 79, 38
1, 356579, Note_off_c, 0, 77, 59
1, 356610, Note_on_c, 0, 76, 42
1, 356695, Note_on_c, 0, 77, 50
1, 356730, Note_off_c, 0, 76, 41
1, 356760, Note_off_c, 0, 77, 60
1, 356778, Note_on_c, 0, 79, 53
1, 356807, Control_c, 0, 67, 34
1, 356852, Control_c, 0, 64, 115
1, 356861, Note_on_c, 0, 77, 46
1, 356867, Control_c, 0, 64, 109
1, 356882, Control_c, 0, 64, 103
1, 356894, Note_off_c, 0, 79, 33
1, 356897, Control_c, 0, 64, 99
1, 356911, Control_c, 0, 64, 95
1, 356926, Control_c, 0, 64, 92
1, 356926, Control_c, 0, 67, 34
1, 356941, Control_c, 0, 64, 89
1, 356955, Control_c, 0, 64, 86
1, 356970, Control_c, 0, 64, 82
1, 356985, Control_c, 0, 64, 78
1, 357000, Control_c, 0, 64, 75
1, 357016, Control_c, 0, 64, 72
1, 357031, Control_c, 0, 64, 68
1, 357037, Note_on_c, 0, 57, 27
1, 357038, Note_on_c, 0, 76, 37
1, 357046, Control_c, 0, 64, 64
1, 357053, Note_on_c, 0, 60, 24
1, 357058, Note_off_c, 0, 77, 35
1, 357060, Control_c, 0, 64, 59
1, 357075, Control_c, 0, 64, 54
1, 357090, Control_c, 0, 64, 51
1, 357105, Control_c, 0, 64, 49
1, 357111, Note_off_c, 0, 59, 33
1, 357120, Control_c, 0, 64, 42
1, 357134, Control_c, 0, 64, 18
1, 357139, Note_off_c, 0, 56, 28
1, 357149, Control_c, 0, 64, 0
1, 357334, Control_c, 0, 64, 38
1, 357349, Control_c, 0, 64, 50
1, 357364, Control_c, 0, 64, 57
1, 357379, Control_c, 0, 64, 60
1, 357379, Control_c, 0, 67, 35
1, 357394, Control_c, 0, 64, 62
1, 357409, Control_c, 0, 64, 64
1, 357423, Control_c, 0, 64, 65
1, 357423, Control_c, 0, 67, 34
1, 357438, Control_c, 0, 64, 66
1, 357453, Control_c, 0, 64, 66
1, 357453, Control_c, 0, 67, 35
1, 357467, Control_c, 0, 64, 67
1, 357574, Note_off_c, 0, 76, 39
1, 357615, Note_off_c, 0, 57, 28
1, 357645, Control_c, 0, 64, 66
1, 357675, Control_c, 0, 64, 66
1, 357675, Control_c, 0, 67, 35
1, 357690, Control_c, 0, 67, 36
1, 357705, Control_c, 0, 64, 65
1, 357720, Control_c, 0, 64, 64
1, 357734, Control_c, 0, 64, 63
1, 357749, Control_c, 0, 64, 63
1, 357779, Control_c, 0, 64, 62
1, 357793, Control_c, 0, 64, 62
1, 357794, Note_off_c, 0, 60, 17
1, 357809, Control_c, 0, 64, 61
1, 357824, Control_c, 0, 64, 59
1, 357839, Control_c, 0, 64, 56
1, 357854, Control_c, 0, 64, 52
1, 357869, Control_c, 0, 64, 48
1, 357883, Control_c, 0, 64, 40
1, 357898, Control_c, 0, 64, 23
1, 357913, Control_c, 0, 64, 0
1, 358023, Note_on_c, 0, 76, 42
1, 358024, Control_c, 0, 64, 30
1, 358039, Control_c, 0, 64, 47
1, 358039, Control_c, 0, 67, 35
1, 358053, Control_c, 0, 64, 53
1, 358068, Control_c, 0, 64, 57
1, 358083, Control_c, 0, 64, 62
1, 358098, Control_c, 0, 64, 65
1, 358113, Control_c, 0, 64, 66
1, 358128, Control_c, 0, 64, 68
1, 358143, Control_c, 0, 64, 70
1, 358157, Control_c, 0, 64, 72
1, 358172, Control_c, 0, 64, 75
1, 358187, Control_c, 0, 64, 78
1, 358202, Control_c, 0, 64, 80
1, 358216, Control_c, 0, 64, 81
1, 358229, Note_off_c, 0, 76, 36
1, 358246, Control_c, 0, 64, 81
1, 358246, Control_c, 0, 67, 35
1, 358276, Control_c, 0, 64, 82
1, 358305, Control_c, 0, 67, 35
1, 358423, Control_c, 0, 67, 35
1, 358468, Control_c, 0, 64, 81
1, 358483, Control_c, 0, 64, 81
1, 358483, Control_c, 0, 67, 34
1, 358484, Note_on_c, 0, 53, 28
1, 358498, Note_on_c, 0, 76, 49
1, 358498, Control_c, 0, 64, 80
1, 358498, Control_c, 0, 67, 34
1, 358513, Control_c, 0, 64, 79
1, 358527, Control_c, 0, 64, 78
1, 358527, Control_c, 0, 67, 33
1, 358542, Control_c, 0, 64, 77
1, 358542, Control_c, 0, 67, 33
1, 358557, Control_c, 0, 64, 74
1, 358557, Control_c, 0, 67, 32
1, 358572, Control_c, 0, 64, 71
1, 358572, Control_c, 0, 67, 32
1, 358587, Control_c, 0, 64, 69
1, 358587, Control_c, 0, 67, 31
1, 358602, Control_c, 0, 64, 67
1, 358602, Control_c, 0, 67, 31
1, 358617, Control_c, 0, 64, 65
1, 358617, Control_c, 0, 67, 30
1, 358632, Control_c, 0, 64, 63
1, 358632, Control_c, 0, 67, 29
1, 358647, Control_c, 0, 64, 60
1, 358647, Control_c, 0, 67, 28
1, 358662, Control_c, 0, 64, 56
1, 358662, Control_c, 0, 67, 28
1, 358677, Control_c, 0, 64, 52
1, 358677, Control_c, 0, 67, 27
1, 358691, Control_c, 0, 64, 50
1, 358691, Control_c, 0, 67, 26
1, 358706, Control_c, 0, 64, 53
1, 358706, Control_c, 0, 67, 25
1, 358721, Control_c, 0, 64, 58
1, 358721, Control_c, 0, 67, 24
1, 358743, Control_c, 0, 64, 62
1, 358743, Control_c, 0, 67, 23
1, 358758, Control_c, 0, 64, 64
1, 358758, Control_c, 0, 67, 19
1, 358773, Control_c, 0, 64, 66
1, 358773, Control_c, 0, 67, 13
1, 358787, Control_c, 0, 64, 68
1, 358787, Control_c, 0, 67, 0
1, 358802, Control_c, 0, 64, 72
1, 358817, Control_c, 0, 64, 75
1, 358832, Control_c, 0, 64, 78
1, 358846, Control_c, 0, 64, 81
1, 358861, Control_c, 0, 64, 83
1, 358876, Control_c, 0, 64, 86
1, 358891, Control_c, 0, 64, 89
1, 358896, Note_on_c, 0, 74, 51
1, 358906, Control_c, 0, 64, 90
1, 358921, Control_c, 0, 64, 91
1, 358922, Note_on_c, 0, 57, 25
1, 358929, Note_on_c, 0, 60, 31
1, 358936, Control_c, 0, 64, 92
1, 358951, Control_c, 0, 64, 93
1, 358966, Control_c, 0, 64, 94
1, 358980, Control_c, 0, 64, 95
1, 358995, Control_c, 0, 64, 95
1, 359040, Control_c, 0, 64, 96
1, 359050, Note_off_c, 0, 76, 35
1, 359055, Control_c, 0, 64, 97
1, 359071, Note_off_c, 0, 74, 57
1, 359102, Note_off_c, 0, 60, 41
1, 359111, Note_off_c, 0, 57, 38
1, 359277, Control_c, 0, 64, 95
1, 359292, Control_c, 0, 64, 90
1, 359305, Note_on_c, 0, 74, 50
1, 359306, Control_c, 0, 64, 81
1, 359318, Note_on_c, 0, 57, 36
1, 359321, Control_c, 0, 64, 71
1, 359335, Note_on_c, 0, 60, 29
1, 359336, Control_c, 0, 64, 66
1, 359365, Control_c, 0, 64, 69
1, 359380, Control_c, 0, 64, 74
1, 359395, Control_c, 0, 64, 80
1, 359411, Control_c, 0, 64, 84
1, 359426, Control_c, 0, 64, 88
1, 359427, Note_off_c, 0, 74, 57
1, 359441, Control_c, 0, 64, 91
1, 359455, Control_c, 0, 64, 93
1, 359470, Control_c, 0, 64, 94
1, 359487, Note_off_c, 0, 53, 42
1, 359655, Control_c, 0, 64, 93
1, 359670, Control_c, 0, 64, 91
1, 359685, Control_c, 0, 64, 88
1, 359700, Control_c, 0, 64, 85
1, 359714, Note_on_c, 0, 53, 37
1, 359715, Control_c, 0, 64, 81
1, 359729, Control_c, 0, 64, 77
1, 359735, Note_on_c, 0, 74, 50
1, 359744, Control_c, 0, 64, 72
1, 359759, Control_c, 0, 64, 66
1, 359774, Control_c, 0, 64, 61
1, 359780, Note_off_c, 0, 57, 34
1, 359788, Control_c, 0, 64, 50
1, 359803, Control_c, 0, 64, 29
1, 359818, Control_c, 0, 64, 25
1, 359832, Note_off_c, 0, 60, 37
1, 359833, Control_c, 0, 64, 40
1, 359848, Control_c, 0, 64, 56
1, 359862, Control_c, 0, 64, 63
1, 359877, Control_c, 0, 64, 65
1, 359889, Note_off_c, 0, 74, 64
1, 359892, Control_c, 0, 64, 67
1, 359907, Control_c, 0, 64, 71
1, 359922, Control_c, 0, 64, 74
1, 359924, Note_on_c, 0, 76, 54
1, 359936, Control_c, 0, 64, 74
1, 359972, Note_off_c, 0, 76, 56
1, 359982, Note_on_c, 0, 74, 47
1, 360020, Note_off_c, 0, 74, 65
1, 360025, Control_c, 0, 64, 74
1, 360040, Control_c, 0, 64, 72
1, 360041, Note_on_c, 0, 73, 61
1, 360054, Control_c, 0, 64, 69
1, 360069, Control_c, 0, 64, 66
1, 360084, Control_c, 0, 64, 61
1, 360092, Note_off_c, 0, 73, 60
1, 360099, Control_c, 0, 64, 54
1, 360104, Note_on_c, 0, 74, 62
1, 360110, Note_on_c, 0, 57, 37
1, 360111, Note_on_c, 0, 60, 34
1, 360114, Control_c, 0, 64, 46
1, 360128, Control_c, 0, 64, 26
1, 360143, Control_c, 0, 64, 0
1, 360203, Control_c, 0, 64, 46
1, 360218, Control_c, 0, 64, 59
1, 360241, Control_c, 0, 64, 63
1, 360256, Control_c, 0, 64, 65
1, 360271, Control_c, 0, 64, 66
1, 360285, Control_c, 0, 64, 68
1, 360296, Note_on_c, 0, 75, 68
1, 360300, Control_c, 0, 64, 70
1, 360315, Control_c, 0, 64, 70
1, 360342, Note_off_c, 0, 74, 54
1, 360351, Note_off_c, 0, 57, 58
1, 360353, Note_off_c, 0, 60, 41
1, 360404, Control_c, 0, 64, 70
1, 360418, Control_c, 0, 64, 69
1, 360433, Control_c, 0, 64, 68
1, 360448, Control_c, 0, 64, 66
1, 360463, Control_c, 0, 64, 64
1, 360465, Note_on_c, 0, 76, 68
1, 360477, Control_c, 0, 64, 59
1, 360489, Note_on_c, 0, 57, 41
1, 360492, Note_on_c, 0, 60, 33
1, 360492, Control_c, 0, 64, 54
1, 360507, Control_c, 0, 64, 47
1, 360522, Control_c, 0, 64, 37
1, 360531, Note_off_c, 0, 75, 59
1, 360537, Control_c, 0, 64, 17
1, 360552, Control_c, 0, 64, 0
1, 360581, Control_c, 0, 64, 36
1, 360596, Control_c, 0, 64, 53
1, 360611, Control_c, 0, 64, 60
1, 360626, Control_c, 0, 64, 63
1, 360641, Control_c, 0, 64, 64
1, 360656, Control_c, 0, 64, 64
1, 360661, Note_on_c, 0, 72, 69
1, 360671, Control_c, 0, 64, 65
1, 360759, Control_c, 0, 64, 64
1, 360818, Control_c, 0, 64, 64
1, 360838, Note_off_c, 0, 76, 38
1, 360848, Control_c, 0, 64, 63
1, 360856, Note_off_c, 0, 60, 32
1, 360863, Control_c, 0, 64, 63
1, 360877, Control_c, 0, 64, 62
1, 360892, Control_c, 0, 64, 62
1, 360907, Control_c, 0, 64, 60
1, 360917, Note_on_c, 0, 54, 30
1, 360922, Control_c, 0, 64, 59
1, 360927, Note_on_c, 0, 69, 53
1, 360936, Control_c, 0, 64, 56
1, 360951, Control_c, 0, 64, 54
1, 360966, Control_c, 0, 64, 53
1, 360989, Control_c, 0, 64, 50
1, 361005, Control_c, 0, 64, 46
1, 361015, Note_off_c, 0, 53, 41
1, 361019, Control_c, 0, 64, 41
1, 361027, Note_off_c, 0, 57, 31
1, 361034, Control_c, 0, 64, 36
1, 361046, Note_off_c, 0, 72, 46
1, 361049, Control_c, 0, 64, 31
1, 361064, Control_c, 0, 64, 12
1, 361079, Control_c, 0, 64, 0
1, 361241, Control_c, 0, 64, 39
1, 361256, Control_c, 0, 64, 51
1, 361271, Control_c, 0, 64, 57
1, 361286, Control_c, 0, 64, 61
1, 361300, Control_c, 0, 64, 63
1, 361315, Control_c, 0, 64, 64
1, 361330, Control_c, 0, 64, 66
1, 361345, Control_c, 0, 64, 67
1, 361351, Note_on_c, 0, 60, 30
1, 361354, Note_on_c, 0, 62, 37
1, 361356, Note_on_c, 0, 57, 32
1, 361360, Control_c, 0, 64, 69
1, 361374, Control_c, 0, 64, 71
1, 361389, Control_c, 0, 64, 73
1, 361404, Control_c, 0, 64, 74
1, 361419, Control_c, 0, 64, 77
1, 361434, Control_c, 0, 64, 79
1, 361449, Control_c, 0, 64, 82
1, 361464, Control_c, 0, 64, 84
1, 361479, Control_c, 0, 64, 86
1, 361493, Control_c, 0, 64, 89
1, 361508, Control_c, 0, 64, 92
1, 361523, Control_c, 0, 64, 95
1, 361535, Note_off_c, 0, 62, 42
1, 361538, Note_off_c, 0, 60, 39
1, 361538, Control_c, 0, 64, 96
1, 361541, Note_off_c, 0, 57, 37
1, 361552, Control_c, 0, 64, 97
1, 361567, Control_c, 0, 64, 97
1, 361612, Control_c, 0, 64, 98
1, 361703, Note_on_c, 0, 57, 37
1, 361712, Note_on_c, 0, 60, 33
1, 361716, Note_on_c, 0, 62, 39
1, 361789, Note_off_c, 0, 54, 47
1, 361807, Note_off_c, 0, 69, 38
1, 361830, Note_on_c, 0, 71, 55
1, 361908, Note_off_c, 0, 71, 58
1, 361911, Note_on_c, 0, 69, 61
1, 361961, Control_c, 0, 64, 97
1, 361975, Control_c, 0, 64, 97
1, 361985, Note_off_c, 0, 69, 57
1, 361990, Control_c, 0, 64, 96
1, 362005, Control_c, 0, 64, 94
1, 362007, Note_on_c, 0, 68, 52
1, 362020, Control_c, 0, 64, 91
1, 362035, Control_c, 0, 64, 87
1, 362050, Control_c, 0, 64, 83
1, 362064, Control_c, 0, 64, 78
1, 362079, Control_c, 0, 64, 72
1, 362094, Control_c, 0, 64, 65
1, 362107, Note_on_c, 0, 54, 36
1, 362109, Control_c, 0, 64, 58
1, 362115, Note_on_c, 0, 69, 54
1, 362115, Note_off_c, 0, 68, 56
1, 362124, Control_c, 0, 64, 43
1, 362138, Control_c, 0, 64, 23
1, 362140, Note_off_c, 0, 57, 33
1, 362142, Note_off_c, 0, 62, 37
1, 362153, Control_c, 0, 64, 10
1, 362168, Control_c, 0, 64, 22
1, 362182, Control_c, 0, 64, 38
1, 362191, Note_off_c, 0, 60, 34
1, 362197, Control_c, 0, 64, 55
1, 362206, Note_off_c, 0, 69, 65
1, 362212, Control_c, 0, 64, 62
1, 362224, Note_on_c, 0, 71, 60
1, 362227, Control_c, 0, 64, 65
1, 362242, Control_c, 0, 64, 67
1, 362257, Control_c, 0, 64, 69
1, 362271, Control_c, 0, 64, 70
1, 362286, Control_c, 0, 64, 71
1, 362301, Note_on_c, 0, 69, 65
1, 362303, Note_off_c, 0, 71, 58
1, 362371, Note_off_c, 0, 69, 62
1, 362376, Note_on_c, 0, 68, 72
1, 362390, Control_c, 0, 64, 70
1, 362405, Control_c, 0, 64, 69
1, 362420, Control_c, 0, 64, 67
1, 362435, Control_c, 0, 64, 62
1, 362449, Control_c, 0, 64, 49
1, 362451, Note_off_c, 0, 68, 62
1, 362456, Note_on_c, 0, 57, 41
1, 362464, Control_c, 0, 64, 0
1, 362465, Note_on_c, 0, 69, 71
1, 362483, Note_on_c, 0, 60, 31
1, 362484, Note_on_c, 0, 62, 38
1, 362531, Control_c, 0, 64, 40
1, 362546, Control_c, 0, 64, 55
1, 362561, Note_on_c, 0, 71, 68
1, 362561, Control_c, 0, 64, 61
1, 362575, Control_c, 0, 64, 64
1, 362579, Note_off_c, 0, 69, 49
1, 362590, Control_c, 0, 64, 65
1, 362605, Control_c, 0, 64, 66
1, 362647, Note_off_c, 0, 71, 62
1, 362649, Note_on_c, 0, 72, 74
1, 362658, Note_off_c, 0, 57, 59
1, 362662, Note_off_c, 0, 60, 41
1, 362665, Note_off_c, 0, 62, 41
1, 362695, Control_c, 0, 64, 65
1, 362710, Control_c, 0, 64, 65
1, 362710, Note_on_c, 0, 71, 73
1, 362718, Note_off_c, 0, 72, 65
1, 362725, Control_c, 0, 64, 64
1, 362739, Control_c, 0, 64, 63
1, 362754, Control_c, 0, 64, 61
1, 362769, Control_c, 0, 64, 53
1, 362784, Control_c, 0, 64, 31
1, 362799, Control_c, 0, 64, 0
1, 362802, Note_on_c, 0, 74, 73
1, 362823, Note_on_c, 0, 60, 33
1, 362823, Note_on_c, 0, 57, 38
1, 362828, Note_on_c, 0, 62, 37
1, 362830, Note_off_c, 0, 71, 57
1, 362888, Control_c, 0, 64, 45
1, 362896, Note_on_c, 0, 72, 74
1, 362903, Control_c, 0, 64, 59
1, 362908, Note_off_c, 0, 54, 39
1, 362918, Control_c, 0, 64, 64
1, 362921, Note_off_c, 0, 57, 60
1, 362933, Control_c, 0, 64, 66
1, 362948, Control_c, 0, 64, 67
1, 362960, Note_off_c, 0, 74, 61
1, 362962, Control_c, 0, 64, 69
1, 362977, Control_c, 0, 64, 71
1, 362984, Note_on_c, 0, 71, 76
1, 362992, Control_c, 0, 64, 72
1, 363006, Control_c, 0, 64, 72
1, 363030, Note_off_c, 0, 72, 65
1, 363066, Note_on_c, 0, 69, 68
1, 363080, Control_c, 0, 64, 71
1, 363094, Note_off_c, 0, 71, 62
1, 363095, Control_c, 0, 64, 70
1, 363110, Control_c, 0, 64, 69
1, 363125, Control_c, 0, 64, 67
1, 363140, Control_c, 0, 64, 65
1, 363154, Control_c, 0, 64, 62
1, 363169, Control_c, 0, 64, 57
1, 363184, Control_c, 0, 64, 50
1, 363199, Control_c, 0, 64, 39
1, 363205, Note_off_c, 0, 62, 38
1, 363212, Note_on_c, 0, 67, 72
1, 363213, Control_c, 0, 64, 8
1, 363228, Note_on_c, 0, 55, 37
1, 363236, Control_c, 0, 64, 0
1, 363248, Note_off_c, 0, 60, 40
1, 363267, Note_off_c, 0, 69, 62
1, 363384, Control_c, 0, 64, 42
1, 363400, Control_c, 0, 64, 56
1, 363415, Control_c, 0, 64, 61
1, 363429, Control_c, 0, 64, 64
1, 363444, Control_c, 0, 64, 66
1, 363459, Control_c, 0, 64, 69
1, 363474, Control_c, 0, 64, 71
1, 363489, Control_c, 0, 64, 74
1, 363503, Control_c, 0, 64, 75
1, 363518, Control_c, 0, 64, 76
1, 363533, Control_c, 0, 64, 78
1, 363548, Control_c, 0, 64, 80
1, 363549, Note_on_c, 0, 69, 62
1, 363563, Control_c, 0, 64, 81
1, 363577, Control_c, 0, 64, 83
1, 363583, Note_off_c, 0, 67, 49
1, 363592, Control_c, 0, 64, 84
1, 363607, Control_c, 0, 64, 85
1, 363622, Control_c, 0, 64, 85
1, 363667, Note_on_c, 0, 71, 68
1, 363698, Note_off_c, 0, 69, 61
1, 363742, Note_off_c, 0, 71, 63
1, 363749, Note_on_c, 0, 64, 37
1, 363752, Note_on_c, 0, 60, 36
1, 363755, Control_c, 0, 64, 84
1, 363760, Note_on_c, 0, 72, 74
1, 363770, Control_c, 0, 64, 78
1, 363785, Control_c, 0, 64, 69
1, 363800, Control_c, 0, 64, 63
1, 363815, Control_c, 0, 64, 64
1, 363829, Note_off_c, 0, 64, 0
1, 363829, Note_on_c, 0, 64, 3
1, 363829, Control_c, 0, 64, 67
1, 363844, Control_c, 0, 64, 72
1, 363852, Note_on_c, 0, 74, 72
1, 363858, Note_off_c, 0, 72, 61
1, 363859, Control_c, 0, 64, 77
1, 363874, Control_c, 0, 64, 81
1, 363889, Control_c, 0, 64, 84
1, 363903, Control_c, 0, 64, 86
1, 363918, Control_c, 0, 64, 88
1, 363926, Note_on_c, 0, 76, 71
1, 363933, Note_off_c, 0, 64, 42
1, 363933, Control_c, 0, 64, 90
1, 363940, Note_off_c, 0, 74, 59
1, 363941, Note_off_c, 0, 60, 50
1, 363947, Control_c, 0, 64, 90
1, 363962, Control_c, 0, 64, 91
1, 363981, Note_off_c, 0, 76, 65
1, 363997, Note_on_c, 0, 77, 78
1, 364059, Control_c, 0, 64, 88
1, 364070, Note_on_c, 0, 64, 41
1, 364074, Control_c, 0, 64, 79
1, 364078, Note_on_c, 0, 79, 70
1, 364089, Control_c, 0, 64, 66
1, 364090, Note_off_c, 0, 77, 57
1, 364094, Note_on_c, 0, 60, 41
1, 364101, Note_off_c, 0, 55, 42
1, 364103, Control_c, 0, 64, 34
1, 364118, Control_c, 0, 64, 0
1, 364133, Control_c, 0, 64, 50
1, 364138, Note_on_c, 0, 81, 74
1, 364148, Control_c, 0, 64, 61
1, 364162, Control_c, 0, 64, 66
1, 364164, Note_off_c, 0, 79, 57
1, 364177, Control_c, 0, 64, 73
1, 364192, Note_on_c, 0, 83, 70
1, 364192, Control_c, 0, 64, 81
1, 364202, Note_off_c, 0, 81, 61
1, 364208, Control_c, 0, 64, 85
1, 364229, Note_off_c, 0, 83, 61
1, 364254, Note_on_c, 0, 84, 71
1, 364267, Control_c, 0, 64, 84
1, 364311, Control_c, 0, 64, 84
1, 364318, Note_off_c, 0, 84, 59
1, 364325, Control_c, 0, 64, 83
1, 364331, Note_on_c, 0, 86, 64
1, 364340, Control_c, 0, 64, 81
1, 364355, Control_c, 0, 64, 80
1, 364370, Control_c, 0, 64, 79
1, 364385, Control_c, 0, 64, 78
1, 364400, Control_c, 0, 64, 75
1, 364415, Control_c, 0, 64, 72
1, 364430, Control_c, 0, 64, 68
1, 364444, Control_c, 0, 64, 67
1, 364448, Note_off_c, 0, 60, 30
1, 364456, Note_on_c, 0, 55, 34
1, 364467, Note_on_c, 0, 88, 56
1, 364474, Control_c, 0, 64, 67
1, 364487, Note_off_c, 0, 86, 38
1, 364489, Control_c, 0, 64, 66
1, 364504, Control_c, 0, 64, 64
1, 364507, Note_off_c, 0, 64, 34
1, 364518, Control_c, 0, 64, 61
1, 364533, Control_c, 0, 64, 56
1, 364548, Control_c, 0, 64, 47
1, 364563, Control_c, 0, 64, 14
1, 364577, Control_c, 0, 64, 0
1, 364681, Control_c, 0, 64, 42
1, 364696, Control_c, 0, 64, 56
1, 364711, Control_c, 0, 64, 63
1, 364733, Control_c, 0, 64, 66
1, 364748, Control_c, 0, 64, 68
1, 364763, Control_c, 0, 64, 69
1, 364777, Control_c, 0, 64, 72
1, 364779, Note_off_c, 0, 88, 38
1, 364792, Control_c, 0, 64, 74
1, 364807, Control_c, 0, 64, 76
1, 364822, Control_c, 0, 64, 76
1, 364837, Control_c, 0, 64, 77
1, 364851, Control_c, 0, 64, 77
1, 364866, Control_c, 0, 64, 78
1, 364881, Control_c, 0, 64, 79
1, 364896, Control_c, 0, 64, 80
1, 364911, Control_c, 0, 64, 81
1, 364925, Control_c, 0, 64, 81
1, 364970, Control_c, 0, 64, 82
1, 364984, Control_c, 0, 64, 82
1, 365035, Note_on_c, 0, 60, 33
1, 365044, Note_on_c, 0, 64, 16
1, 365134, Control_c, 0, 64, 82
1, 365148, Control_c, 0, 64, 79
1, 365163, Control_c, 0, 64, 72
1, 365178, Control_c, 0, 64, 65
1, 365193, Control_c, 0, 64, 60
1, 365202, Note_on_c, 0, 86, 47
1, 365208, Control_c, 0, 64, 62
1, 365223, Control_c, 0, 64, 64
1, 365237, Control_c, 0, 64, 67
1, 365252, Control_c, 0, 64, 72
1, 365267, Control_c, 0, 64, 77
1, 365282, Control_c, 0, 64, 81
1, 365287, Note_off_c, 0, 60, 38
1, 365288, Note_off_c, 0, 64, 42
1, 365297, Control_c, 0, 64, 83
1, 365309, Note_on_c, 0, 84, 56
1, 365310, Note_off_c, 0, 86, 52
1, 365312, Control_c, 0, 64, 83
1, 365389, Note_on_c, 0, 83, 54
1, 365410, Note_off_c, 0, 84, 48
1, 365460, Control_c, 0, 64, 83
1, 365476, Note_on_c, 0, 81, 50
1, 365481, Note_off_c, 0, 83, 56
1, 365482, Control_c, 0, 64, 79
1, 365497, Control_c, 0, 64, 72
1, 365512, Control_c, 0, 64, 63
1, 365521, Note_off_c, 0, 81, 63
1, 365522, Note_on_c, 0, 64, 24
1, 365523, Note_on_c, 0, 60, 23
1, 365526, Control_c, 0, 64, 51
1, 365540, Note_on_c, 0, 79, 51
1, 365541, Control_c, 0, 64, 55
1, 365556, Control_c, 0, 64, 62
1, 365571, Control_c, 0, 64, 67
1, 365586, Control_c, 0, 64, 76
1, 365589, Note_off_c, 0, 79, 55
1, 365600, Control_c, 0, 64, 91
1, 365606, Note_off_c, 0, 55, 40
1, 365615, Control_c, 0, 64, 103
1, 365623, Note_on_c, 0, 77, 53
1, 365630, Control_c, 0, 64, 104
1, 365685, Note_on_c, 0, 76, 48
1, 365694, Note_off_c, 0, 77, 40
1, 365725, Note_off_c, 0, 76, 50
1, 365734, Note_on_c, 0, 74, 52
1, 365763, Control_c, 0, 64, 104
1, 365777, Note_off_c, 0, 74, 59
1, 365779, Control_c, 0, 64, 103
1, 365792, Note_on_c, 0, 72, 53
1, 365794, Control_c, 0, 64, 102
1, 365810, Control_c, 0, 64, 99
1, 365824, Control_c, 0, 64, 95
1, 365824, Control_c, 0, 67, 8
1, 365839, Control_c, 0, 64, 86
1, 365839, Control_c, 0, 67, 18
1, 365854, Control_c, 0, 64, 74
1, 365854, Control_c, 0, 67, 26
1, 365855, Note_off_c, 0, 72, 59
1, 365869, Control_c, 0, 64, 63
1, 365869, Control_c, 0, 67, 32
1, 365875, Note_on_c, 0, 76, 44
1, 365879, Note_on_c, 0, 55, 36
1, 365884, Control_c, 0, 64, 40
1, 365884, Control_c, 0, 67, 36
1, 365890, Note_off_c, 0, 60, 39
1, 365898, Control_c, 0, 64, 0
1, 365898, Control_c, 0, 67, 37
1, 365901, Note_off_c, 0, 76, 64
1, 365902, Note_off_c, 0, 64, 41
1, 365913, Control_c, 0, 64, 15
1, 365917, Note_on_c, 0, 74, 53
1, 365928, Control_c, 0, 64, 44
1, 365943, Control_c, 0, 64, 54
1, 365954, Note_off_c, 0, 74, 61
1, 365957, Control_c, 0, 64, 58
1, 365972, Control_c, 0, 64, 62
1, 365972, Control_c, 0, 67, 36
1, 365987, Control_c, 0, 64, 65
1, 365987, Control_c, 0, 67, 36
1, 365992, Note_on_c, 0, 76, 53
1, 366002, Control_c, 0, 64, 68
1, 366013, Note_off_c, 0, 76, 65
1, 366016, Control_c, 0, 64, 72
1, 366016, Control_c, 0, 67, 35
1, 366031, Control_c, 0, 64, 75
1, 366031, Control_c, 0, 67, 34
1, 366037, Note_on_c, 0, 74, 54
1, 366046, Control_c, 0, 64, 81
1, 366046, Control_c, 0, 67, 34
1, 366061, Control_c, 0, 64, 88
1, 366065, Note_off_c, 0, 74, 66
1, 366076, Control_c, 0, 64, 92
1, 366090, Control_c, 0, 64, 94
1, 366096, Note_on_c, 0, 76, 50
1, 366105, Control_c, 0, 64, 95
1, 366120, Note_off_c, 0, 76, 59
1, 366120, Control_c, 0, 64, 97
1, 366130, Note_on_c, 0, 74, 68
1, 366135, Control_c, 0, 64, 99
1, 366135, Control_c, 0, 67, 33
1, 366150, Control_c, 0, 64, 100
1, 366157, Note_off_c, 0, 74, 65
1, 366165, Control_c, 0, 64, 100
1, 366165, Control_c, 0, 67, 33
1, 366179, Control_c, 0, 64, 101
1, 366191, Note_on_c, 0, 76, 57
1, 366209, Control_c, 0, 64, 101
1, 366212, Note_off_c, 0, 76, 62
1, 366237, Note_on_c, 0, 74, 58
1, 366243, Note_on_c, 0, 65, 42
1, 366265, Note_off_c, 0, 74, 63
1, 366275, Note_on_c, 0, 59, 30
1, 366283, Note_on_c, 0, 76, 70
1, 366308, Note_off_c, 0, 76, 63
1, 366320, Control_c, 0, 64, 102
1, 366320, Control_c, 0, 67, 32
1, 366335, Note_on_c, 0, 74, 61
1, 366335, Control_c, 0, 67, 32
1, 366349, Control_c, 0, 64, 102
1, 366349, Control_c, 0, 67, 31
1, 366364, Control_c, 0, 67, 31
1, 366365, Note_off_c, 0, 74, 57
1, 366375, Note_on_c, 0, 76, 72
1, 366379, Control_c, 0, 67, 30
1, 366394, Control_c, 0, 64, 103
1, 366394, Control_c, 0, 67, 29
1, 366398, Note_off_c, 0, 65, 42
1, 366406, Note_off_c, 0, 76, 61
1, 366409, Control_c, 0, 64, 104
1, 366409, Control_c, 0, 67, 27
1, 366424, Control_c, 0, 64, 104
1, 366424, Control_c, 0, 67, 25
1, 366424, Note_off_c, 0, 59, 39
1, 366432, Note_on_c, 0, 74, 65
1, 366439, Control_c, 0, 64, 105
1, 366439, Control_c, 0, 67, 21
1, 366454, Control_c, 0, 64, 106
1, 366454, Control_c, 0, 67, 12
1, 366467, Note_off_c, 0, 74, 62
1, 366469, Control_c, 0, 64, 106
1, 366469, Control_c, 0, 67, 0
1, 366482, Note_on_c, 0, 76, 71
1, 366483, Control_c, 0, 64, 108
1, 366498, Control_c, 0, 64, 110
1, 366513, Control_c, 0, 64, 113
1, 366515, Note_off_c, 0, 76, 59
1, 366528, Control_c, 0, 64, 116
1, 366531, Note_on_c, 0, 74, 63
1, 366542, Control_c, 0, 64, 118
1, 366557, Control_c, 0, 64, 119
1, 366570, Note_off_c, 0, 74, 57
1, 366572, Control_c, 0, 64, 121
1, 366580, Note_on_c, 0, 76, 67
1, 366587, Control_c, 0, 64, 127
1, 366620, Note_off_c, 0, 76, 60
1, 366627, Note_on_c, 0, 74, 63
1, 366633, Note_on_c, 0, 65, 56
1, 366638, Note_on_c, 0, 59, 61
1, 366656, Note_off_c, 0, 55, 41
1, 366680, Note_off_c, 0, 74, 63
1, 366686, Note_on_c, 0, 76, 65
1, 366715, Note_off_c, 0, 76, 60
1, 366734, Note_on_c, 0, 74, 57
1, 366778, Note_off_c, 0, 74, 61
1, 366790, Note_on_c, 0, 76, 69
1, 366825, Note_off_c, 0, 76, 57
1, 366837, Note_on_c, 0, 74, 60
1, 366886, Note_off_c, 0, 74, 61
1, 366888, Note_on_c, 0, 76, 70
1, 366928, Note_off_c, 0, 76, 59
1, 366939, Note_on_c, 0, 74, 62
1, 366997, Note_off_c, 0, 74, 62
1, 367001, Note_on_c, 0, 76, 70
1, 367032, Note_on_c, 0, 55, 68
1, 367049, Note_off_c, 0, 76, 61
1, 367054, Note_on_c, 0, 74, 58
1, 367054, Control_c, 0, 64, 125
1, 367069, Control_c, 0, 64, 104
1, 367084, Control_c, 0, 64, 89
1, 367099, Control_c, 0, 64, 74
1, 367101, Note_off_c, 0, 74, 59
1, 367108, Note_on_c, 0, 76, 62
1, 367114, Control_c, 0, 64, 63
1, 367121, Note_off_c, 0, 59, 56
1, 367128, Control_c, 0, 64, 40
1, 367143, Control_c, 0, 64, 0
1, 367144, Note_off_c, 0, 76, 62
1, 367157, Note_on_c, 0, 74, 62
1, 367158, Control_c, 0, 64, 12
1, 367172, Control_c, 0, 64, 45
1, 367187, Control_c, 0, 64, 58
1, 367193, Note_off_c, 0, 65, 36
1, 367202, Control_c, 0, 64, 63
1, 367208, Note_off_c, 0, 74, 61
1, 367215, Note_on_c, 0, 76, 67
1, 367217, Control_c, 0, 64, 66
1, 367232, Control_c, 0, 64, 70
1, 367247, Control_c, 0, 64, 77
1, 367247, Note_off_c, 0, 76, 59
1, 367258, Note_on_c, 0, 74, 59
1, 367262, Control_c, 0, 64, 85
1, 367276, Control_c, 0, 64, 90
1, 367291, Control_c, 0, 64, 95
1, 367306, Control_c, 0, 64, 99
1, 367311, Note_off_c, 0, 74, 64
1, 367315, Note_on_c, 0, 76, 72
1, 367321, Control_c, 0, 64, 101
1, 367336, Control_c, 0, 64, 103
1, 367351, Control_c, 0, 64, 104
1, 367360, Note_off_c, 0, 76, 62
1, 367363, Note_on_c, 0, 74, 59
1, 367417, Note_off_c, 0, 74, 64
1, 367418, Note_on_c, 0, 76, 69
1, 367437, Note_on_c, 0, 65, 68
1, 367446, Note_on_c, 0, 59, 67
1, 367466, Note_off_c, 0, 76, 64
1, 367470, Control_c, 0, 64, 99
1, 367470, Note_on_c, 0, 74, 59
1, 367485, Control_c, 0, 64, 89
1, 367500, Control_c, 0, 64, 74
1, 367515, Control_c, 0, 64, 64
1, 367515, Note_off_c, 0, 74, 62
1, 367522, Note_on_c, 0, 76, 65
1, 367530, Control_c, 0, 64, 54
1, 367544, Control_c, 0, 64, 58
1, 367559, Control_c, 0, 64, 64
1, 367572, Note_off_c, 0, 76, 64
1, 367574, Control_c, 0, 64, 68
1, 367582, Note_on_c, 0, 74, 65
1, 367589, Control_c, 0, 64, 74
1, 367603, Control_c, 0, 64, 84
1, 367616, Note_off_c, 0, 74, 58
1, 367618, Control_c, 0, 64, 94
1, 367628, Note_on_c, 0, 76, 67
1, 367633, Control_c, 0, 64, 105
1, 367648, Control_c, 0, 64, 125
1, 367663, Control_c, 0, 64, 127
1, 367675, Note_off_c, 0, 76, 64
1, 367685, Note_on_c, 0, 74, 72
1, 367686, Note_off_c, 0, 65, 60
1, 367694, Note_off_c, 0, 59, 56
1, 367735, Note_off_c, 0, 74, 61
1, 367741, Note_on_c, 0, 76, 67
1, 367789, Control_c, 0, 64, 125
1, 367792, Note_off_c, 0, 76, 65
1, 367792, Note_on_c, 0, 74, 68
1, 367803, Control_c, 0, 64, 93
1, 367818, Control_c, 0, 64, 72
1, 367827, Note_on_c, 0, 65, 67
1, 367830, Note_on_c, 0, 59, 57
1, 367833, Control_c, 0, 64, 59
1, 367843, Note_off_c, 0, 74, 63
1, 367846, Note_on_c, 0, 76, 69
1, 367848, Control_c, 0, 64, 52
1, 367863, Control_c, 0, 64, 61
1, 367877, Control_c, 0, 64, 66
1, 367887, Note_off_c, 0, 55, 56
1, 367892, Control_c, 0, 64, 74
1, 367893, Note_on_c, 0, 74, 63
1, 367896, Note_off_c, 0, 76, 65
1, 367907, Control_c, 0, 64, 93
1, 367921, Control_c, 0, 64, 127
1, 367940, Note_on_c, 0, 76, 68
1, 367944, Note_off_c, 0, 74, 66
1, 367982, Note_off_c, 0, 59, 57
1, 367996, Note_on_c, 0, 74, 64
1, 368009, Note_off_c, 0, 76, 65
1, 368066, Note_on_c, 0, 72, 77
1, 368069, Note_off_c, 0, 74, 64
1, 368150, Note_on_c, 0, 74, 76
1, 368174, Note_off_c, 0, 72, 60
1, 368292, Control_c, 0, 64, 104
1, 368307, Control_c, 0, 64, 93
1, 368322, Control_c, 0, 64, 83
1, 368337, Control_c, 0, 64, 77
1, 368344, Note_on_c, 0, 60, 55
1, 368347, Note_on_c, 0, 72, 72
1, 368351, Control_c, 0, 64, 72
1, 368366, Control_c, 0, 64, 68
1, 368381, Control_c, 0, 64, 65
1, 368396, Control_c, 0, 64, 61
1, 368410, Control_c, 0, 64, 50
1, 368425, Control_c, 0, 64, 22
1, 368440, Control_c, 0, 64, 0
1, 368472, Note_off_c, 0, 74, 62
1, 368493, Note_off_c, 0, 65, 48
1, 368729, Control_c, 0, 64, 34
1, 368743, Control_c, 0, 64, 52
1, 368758, Control_c, 0, 64, 58
1, 368773, Control_c, 0, 64, 62
1, 368788, Control_c, 0, 64, 65
1, 368803, Control_c, 0, 64, 70
1, 368817, Control_c, 0, 64, 76
1, 368821, Note_on_c, 0, 64, 49
1, 368826, Note_on_c, 0, 67, 47
1, 368832, Control_c, 0, 64, 81
1, 368847, Control_c, 0, 64, 87
1, 368862, Control_c, 0, 64, 99
1, 368876, Control_c, 0, 64, 127
1, 368996, Note_off_c, 0, 72, 58
1, 369019, Note_off_c, 0, 64, 54
1, 369022, Note_off_c, 0, 67, 53
1, 369196, Note_on_c, 0, 67, 55
1, 369208, Note_on_c, 0, 64, 51
1, 369352, Note_off_c, 0, 64, 55
1, 369369, Note_off_c, 0, 67, 38
1, 369546, Note_on_c, 0, 67, 53
1, 369569, Note_on_c, 0, 64, 43
1, 369778, Note_on_c, 0, 72, 72
1, 369932, Note_off_c, 0, 67, 36
1, 369954, Note_off_c, 0, 60, 38
1, 370023, Note_on_c, 0, 71, 70
1, 370029, Note_off_c, 0, 64, 39
1, 370104, Note_off_c, 0, 72, 65
1, 370110, Note_off_c, 0, 71, 60
1, 370153, Control_c, 0, 64, 102
1, 370168, Control_c, 0, 64, 89
1, 370183, Note_on_c, 0, 71, 68
1, 370183, Control_c, 0, 64, 81
1, 370197, Control_c, 0, 64, 75
1, 370212, Control_c, 0, 64, 69
1, 370227, Control_c, 0, 64, 62
1, 370242, Control_c, 0, 64, 46
1, 370257, Control_c, 0, 64, 17
1, 370270, Control_c, 0, 64, 0
1, 370349, Note_on_c, 0, 72, 74
1, 370402, Note_off_c, 0, 71, 59
1, 370422, Note_off_c, 0, 72, 65
1, 370508, Note_on_c, 0, 72, 67
1, 370713, Note_on_c, 0, 59, 36
1, 370750, Note_on_c, 0, 73, 51
1, 370806, Note_off_c, 0, 72, 56
1, 370980, Note_on_c, 0, 74, 50
1, 371050, Note_off_c, 0, 73, 47
1, 371137, Control_c, 0, 64, 27
1, 371152, Control_c, 0, 64, 43
1, 371167, Control_c, 0, 64, 49
1, 371182, Control_c, 0, 64, 54
1, 371197, Control_c, 0, 64, 59
1, 371211, Note_on_c, 0, 62, 26
1, 371211, Note_on_c, 0, 68, 22
1, 371211, Control_c, 0, 64, 63
1, 371226, Control_c, 0, 64, 65
1, 371236, Note_on_c, 0, 64, 6
1, 371241, Control_c, 0, 64, 67
1, 371256, Control_c, 0, 64, 71
1, 371271, Control_c, 0, 64, 76
1, 371286, Control_c, 0, 64, 86
1, 371301, Control_c, 0, 64, 101
1, 371316, Control_c, 0, 64, 127
1, 371441, Note_off_c, 0, 68, 44
1, 371473, Note_off_c, 0, 62, 38
1, 371485, Note_off_c, 0, 64, 38
1, 371620, Note_on_c, 0, 68, 36
1, 371622, Note_on_c, 0, 62, 39
1, 371632, Note_on_c, 0, 64, 33
1, 371779, Note_off_c, 0, 68, 45
1, 371784, Note_off_c, 0, 62, 32
1, 371798, Control_c, 0, 67, 9
1, 371810, Note_off_c, 0, 64, 36
1, 371813, Control_c, 0, 67, 16
1, 371828, Control_c, 0, 67, 21
1, 371842, Control_c, 0, 67, 25
1, 371857, Control_c, 0, 67, 30
1, 371861, Note_off_c, 0, 74, 41
1, 371872, Control_c, 0, 67, 34
1, 371886, Control_c, 0, 67, 38
1, 371901, Control_c, 0, 67, 40
1, 371916, Control_c, 0, 67, 41
1, 371931, Control_c, 0, 67, 42
1, 371946, Control_c, 0, 67, 44
1, 371960, Control_c, 0, 67, 46
1, 371975, Control_c, 0, 67, 47
1, 371981, Note_on_c, 0, 68, 44
1, 371983, Note_on_c, 0, 64, 33
1, 371988, Note_on_c, 0, 62, 33
1, 371990, Control_c, 0, 67, 48
1, 372005, Control_c, 0, 67, 48
1, 372020, Control_c, 0, 67, 50
1, 372034, Control_c, 0, 67, 52
1, 372049, Control_c, 0, 67, 55
1, 372064, Control_c, 0, 67, 56
1, 372079, Control_c, 0, 67, 58
1, 372094, Control_c, 0, 67, 61
1, 372108, Control_c, 0, 67, 64
1, 372123, Control_c, 0, 67, 67
1, 372138, Control_c, 0, 67, 69
1, 372153, Control_c, 0, 67, 70
1, 372168, Control_c, 0, 67, 70
1, 372169, Note_on_c, 0, 74, 53
1, 372198, Control_c, 0, 67, 71
1, 372204, Note_off_c, 0, 59, 36
1, 372279, Note_off_c, 0, 68, 43
1, 372319, Note_off_c, 0, 62, 33
1, 372324, Control_c, 0, 67, 72
1, 372353, Note_off_c, 0, 64, 37
1, 372354, Control_c, 0, 64, 125
1, 372354, Control_c, 0, 67, 73
1, 372369, Control_c, 0, 64, 98
1, 372369, Control_c, 0, 67, 76
1, 372384, Control_c, 0, 64, 87
1, 372384, Control_c, 0, 67, 78
1, 372386, Note_on_c, 0, 73, 60
1, 372398, Control_c, 0, 64, 80
1, 372398, Control_c, 0, 67, 79
1, 372413, Control_c, 0, 64, 74
1, 372413, Control_c, 0, 67, 81
1, 372428, Control_c, 0, 64, 68
1, 372428, Control_c, 0, 67, 82
1, 372443, Control_c, 0, 64, 63
1, 372443, Control_c, 0, 67, 84
1, 372454, Note_off_c, 0, 74, 61
1, 372454, Note_off_c, 0, 73, 61
1, 372458, Control_c, 0, 64, 53
1, 372458, Control_c, 0, 67, 86
1, 372472, Control_c, 0, 64, 40
1, 372472, Control_c, 0, 67, 88
1, 372487, Control_c, 0, 64, 0
1, 372487, Control_c, 0, 67, 89
1, 372502, Control_c, 0, 67, 90
1, 372547, Control_c, 0, 67, 90
1, 372562, Control_c, 0, 67, 91
1, 372568, Note_on_c, 0, 73, 54
1, 372760, Note_on_c, 0, 74, 50
1, 372806, Note_off_c, 0, 73, 57
1, 372824, Note_off_c, 0, 74, 63
1, 372940, Note_on_c, 0, 74, 46
1, 373030, Control_c, 0, 67, 90
1, 373074, Control_c, 0, 67, 90
1, 373133, Control_c, 0, 67, 89
1, 373148, Control_c, 0, 67, 89
1, 373185, Note_on_c, 0, 57, 28
1, 373193, Control_c, 0, 67, 88
1, 373208, Control_c, 0, 67, 88
1, 373222, Control_c, 0, 67, 87
1, 373237, Control_c, 0, 67, 87
1, 373250, Note_off_c, 0, 74, 37
1, 373259, Note_on_c, 0, 75, 36
1, 373267, Control_c, 0, 64, 26
1, 373282, Control_c, 0, 64, 38
1, 373282, Control_c, 0, 67, 86
1, 373296, Control_c, 0, 64, 43
1, 373296, Control_c, 0, 67, 86
1, 373311, Control_c, 0, 64, 44
1, 373315, Note_off_c, 0, 75, 57
1, 373332, Note_on_c, 0, 76, 47
1, 373340, Control_c, 0, 64, 44
1, 373364, Note_off_c, 0, 76, 62
1, 373370, Control_c, 0, 64, 43
1, 373385, Note_on_c, 0, 77, 54
1, 373385, Control_c, 0, 64, 40
1, 373400, Control_c, 0, 64, 36
1, 373414, Control_c, 0, 64, 28
1, 373429, Control_c, 0, 64, 0
1, 373468, Note_off_c, 0, 77, 45
1, 373474, Note_on_c, 0, 76, 47
1, 373489, Control_c, 0, 67, 86
1, 373518, Control_c, 0, 67, 87
1, 373539, Note_off_c, 0, 76, 0
1, 373539, Note_on_c, 0, 76, 15
1, 373748, Control_c, 0, 64, 17
1, 373763, Control_c, 0, 64, 41
1, 373778, Control_c, 0, 64, 49
1, 373793, Control_c, 0, 64, 54
1, 373793, Control_c, 0, 67, 86
1, 373808, Control_c, 0, 64, 57
1, 373808, Control_c, 0, 67, 86
1, 373823, Control_c, 0, 64, 60
1, 373837, Control_c, 0, 64, 62
1, 373852, Control_c, 0, 64, 64
1, 373852, Control_c, 0, 67, 85
1, 373867, Control_c, 0, 64, 65
1, 373867, Control_c, 0, 67, 85
1, 373882, Control_c, 0, 64, 66
1, 373897, Control_c, 0, 64, 68
1, 373911, Note_on_c, 0, 64, 33
1, 373912, Control_c, 0, 64, 70
1, 373923, Note_on_c, 0, 60, 21
1, 373927, Control_c, 0, 64, 72
1, 373927, Control_c, 0, 67, 84
1, 373942, Control_c, 0, 64, 75
1, 373942, Control_c, 0, 67, 84
1, 373956, Control_c, 0, 64, 78
1, 373971, Control_c, 0, 64, 81
1, 373986, Control_c, 0, 64, 83
1, 374001, Control_c, 0, 64, 85
1, 374016, Control_c, 0, 64, 88
1, 374016, Control_c, 0, 67, 83
1, 374031, Control_c, 0, 64, 90
1, 374045, Control_c, 0, 64, 91
1, 374060, Control_c, 0, 64, 92
1, 374075, Control_c, 0, 64, 92
1, 374075, Control_c, 0, 67, 83
1, 374086, Note_off_c, 0, 60, 34
1, 374087, Note_off_c, 0, 64, 41
1, 374093, Note_on_c, 0, 75, 52
1, 374104, Control_c, 0, 64, 93
1, 374117, Note_off_c, 0, 76, 41
1, 374237, Control_c, 0, 64, 92
1, 374251, Note_off_c, 0, 75, 25
1, 374252, Control_c, 0, 64, 89
1, 374267, Control_c, 0, 64, 84
1, 374282, Control_c, 0, 64, 77
1, 374283, Note_on_c, 0, 76, 56
1, 374296, Note_on_c, 0, 60, 30
1, 374296, Control_c, 0, 64, 68
1, 374307, Note_on_c, 0, 64, 19
1, 374311, Control_c, 0, 64, 60
1, 374326, Control_c, 0, 64, 37
1, 374341, Control_c, 0, 64, 0
1, 374356, Control_c, 0, 64, 25
1, 374356, Note_off_c, 0, 57, 31
1, 374371, Control_c, 0, 64, 41
1, 374386, Control_c, 0, 64, 55
1, 374401, Control_c, 0, 64, 63
1, 374416, Control_c, 0, 64, 66
1, 374430, Control_c, 0, 64, 69
1, 374445, Control_c, 0, 64, 71
1, 374467, Control_c, 0, 64, 72
1, 374482, Control_c, 0, 64, 72
1, 374496, Control_c, 0, 64, 73
1, 374511, Control_c, 0, 64, 73
1, 374616, Control_c, 0, 64, 73
1, 374631, Control_c, 0, 64, 72
1, 374660, Control_c, 0, 64, 72
1, 374675, Control_c, 0, 64, 71
1, 374690, Control_c, 0, 64, 69
1, 374705, Control_c, 0, 64, 68
1, 374720, Control_c, 0, 64, 66
1, 374725, Note_on_c, 0, 57, 31
1, 374729, Note_on_c, 0, 69, 40
1, 374735, Control_c, 0, 64, 65
1, 374747, Note_off_c, 0, 60, 30
1, 374750, Control_c, 0, 64, 64
1, 374764, Control_c, 0, 64, 60
1, 374778, Control_c, 0, 64, 47
1, 374793, Control_c, 0, 64, 10
1, 374799, Note_off_c, 0, 64, 31
1, 374808, Control_c, 0, 64, 0
1, 374879, Note_off_c, 0, 76, 37
1, 374941, Control_c, 0, 67, 82
1, 374971, Control_c, 0, 64, 22
1, 374971, Control_c, 0, 67, 82
1, 374985, Control_c, 0, 64, 51
1, 375000, Control_c, 0, 64, 58
1, 375015, Control_c, 0, 64, 61
1, 375015, Control_c, 0, 67, 81
1, 375030, Control_c, 0, 64, 63
1, 375030, Control_c, 0, 67, 81
1, 375045, Control_c, 0, 64, 65
1, 375060, Control_c, 0, 64, 67
1, 375074, Control_c, 0, 64, 69
1, 375089, Control_c, 0, 64, 71
1, 375089, Control_c, 0, 67, 80
1, 375103, Note_off_c, 0, 69, 38
1, 375104, Control_c, 0, 64, 74
1, 375104, Control_c, 0, 67, 80
1, 375119, Control_c, 0, 64, 76
1, 375132, Note_on_c, 0, 64, 36
1, 375134, Control_c, 0, 64, 78
1, 375134, Control_c, 0, 67, 78
1, 375137, Note_on_c, 0, 60, 29
1, 375149, Control_c, 0, 64, 79
1, 375149, Control_c, 0, 67, 76
1, 375164, Control_c, 0, 64, 79
1, 375164, Control_c, 0, 67, 73
1, 375178, Control_c, 0, 67, 71
1, 375193, Control_c, 0, 67, 68
1, 375215, Control_c, 0, 67, 66
1, 375230, Control_c, 0, 67, 60
1, 375244, Control_c, 0, 67, 53
1, 375259, Control_c, 0, 67, 46
1, 375274, Control_c, 0, 64, 78
1, 375274, Control_c, 0, 67, 39
1, 375289, Control_c, 0, 64, 75
1, 375289, Control_c, 0, 67, 33
1, 375304, Control_c, 0, 64, 69
1, 375304, Control_c, 0, 67, 26
1, 375319, Control_c, 0, 64, 65
1, 375319, Control_c, 0, 67, 17
1, 375334, Control_c, 0, 64, 62
1, 375334, Control_c, 0, 67, 8
1, 375349, Control_c, 0, 64, 62
1, 375349, Control_c, 0, 67, 0
1, 375364, Control_c, 0, 64, 64
1, 375367, Note_off_c, 0, 60, 40
1, 375367, Note_off_c, 0, 64, 46
1, 375379, Control_c, 0, 64, 66
1, 375394, Control_c, 0, 64, 69
1, 375408, Control_c, 0, 64, 72
1, 375423, Control_c, 0, 64, 76
1, 375438, Control_c, 0, 64, 81
1, 375453, Control_c, 0, 64, 86
1, 375468, Control_c, 0, 64, 89
1, 375483, Control_c, 0, 64, 91
1, 375498, Control_c, 0, 64, 92
1, 375513, Control_c, 0, 64, 94
1, 375527, Control_c, 0, 64, 95
1, 375541, Note_on_c, 0, 69, 52
1, 375542, Control_c, 0, 64, 97
1, 375557, Control_c, 0, 64, 98
1, 375560, Note_on_c, 0, 64, 32
1, 375569, Note_on_c, 0, 60, 26
1, 375616, Control_c, 0, 64, 98
1, 375671, Note_off_c, 0, 57, 39
1, 375751, Note_off_c, 0, 69, 34
1, 375897, Control_c, 0, 64, 98
1, 375927, Control_c, 0, 64, 97
1, 375942, Control_c, 0, 64, 96
1, 375964, Control_c, 0, 64, 94
1, 375969, Note_on_c, 0, 57, 38
1, 375979, Control_c, 0, 64, 92
1, 375983, Note_on_c, 0, 72, 54
1, 375994, Control_c, 0, 64, 90
1, 376008, Control_c, 0, 64, 89
1, 376023, Control_c, 0, 64, 88
1, 376038, Control_c, 0, 64, 86
1, 376048, Note_off_c, 0, 60, 30
1, 376053, Control_c, 0, 64, 85
1, 376067, Control_c, 0, 64, 82
1, 376082, Control_c, 0, 64, 81
1, 376097, Control_c, 0, 64, 80
1, 376112, Control_c, 0, 64, 79
1, 376127, Note_off_c, 0, 64, 39
1, 376127, Control_c, 0, 64, 77
1, 376142, Control_c, 0, 64, 75
1, 376157, Control_c, 0, 64, 71
1, 376171, Control_c, 0, 64, 67
1, 376187, Control_c, 0, 64, 65
1, 376202, Control_c, 0, 64, 63
1, 376217, Control_c, 0, 64, 61
1, 376231, Control_c, 0, 64, 57
1, 376246, Control_c, 0, 64, 52
1, 376262, Control_c, 0, 64, 41
1, 376276, Control_c, 0, 64, 23
1, 376291, Control_c, 0, 64, 0
1, 376469, Note_on_c, 0, 70, 54
1, 376494, Note_on_c, 0, 62, 27
1, 376500, Note_on_c, 0, 65, 24
1, 376558, Control_c, 0, 64, 40
1, 376573, Control_c, 0, 64, 55
1, 376588, Control_c, 0, 64, 60
1, 376603, Control_c, 0, 64, 61
1, 376604, Note_off_c, 0, 72, 63
1, 376618, Control_c, 0, 64, 63
1, 376632, Control_c, 0, 64, 65
1, 376647, Control_c, 0, 64, 67
1, 376662, Control_c, 0, 64, 68
1, 376676, Control_c, 0, 64, 70
1, 376691, Control_c, 0, 64, 72
1, 376714, Control_c, 0, 64, 74
1, 376729, Control_c, 0, 64, 75
1, 376729, Note_off_c, 0, 65, 42
1, 376744, Control_c, 0, 64, 78
1, 376753, Note_off_c, 0, 62, 42
1, 376758, Control_c, 0, 64, 80
1, 376773, Control_c, 0, 64, 83
1, 376788, Control_c, 0, 64, 85
1, 376803, Control_c, 0, 64, 86
1, 376818, Control_c, 0, 64, 87
1, 376832, Control_c, 0, 64, 89
1, 376847, Control_c, 0, 64, 92
1, 376862, Control_c, 0, 64, 96
1, 376876, Control_c, 0, 64, 99
1, 376891, Control_c, 0, 64, 102
1, 376907, Note_on_c, 0, 62, 32
1, 376909, Note_on_c, 0, 65, 38
1, 376921, Control_c, 0, 64, 102
1, 376936, Control_c, 0, 64, 103
1, 376941, Note_off_c, 0, 70, 31
1, 377033, Note_off_c, 0, 57, 41
1, 377042, Note_on_c, 0, 72, 57
1, 377086, Note_off_c, 0, 72, 60
1, 377096, Note_on_c, 0, 71, 63
1, 377114, Control_c, 0, 64, 102
1, 377125, Note_off_c, 0, 71, 65
1, 377126, Note_on_c, 0, 69, 66
1, 377129, Control_c, 0, 64, 100
1, 377144, Control_c, 0, 64, 97
1, 377159, Control_c, 0, 64, 95
1, 377174, Control_c, 0, 64, 92
1, 377188, Note_on_c, 0, 71, 68
1, 377188, Control_c, 0, 64, 90
1, 377203, Control_c, 0, 64, 87
1, 377218, Control_c, 0, 64, 83
1, 377233, Control_c, 0, 64, 79
1, 377245, Note_off_c, 0, 69, 39
1, 377248, Control_c, 0, 64, 75
1, 377262, Control_c, 0, 64, 72
1, 377265, Note_on_c, 0, 74, 72
1, 377275, Note_on_c, 0, 57, 33
1, 377277, Control_c, 0, 64, 70
1, 377292, Control_c, 0, 64, 67
1, 377307, Control_c, 0, 64, 64
1, 377322, Control_c, 0, 64, 59
1, 377327, Note_off_c, 0, 62, 28
1, 377336, Note_off_c, 0, 71, 61
1, 377337, Control_c, 0, 64, 51
1, 377352, Control_c, 0, 64, 38
1, 377367, Control_c, 0, 64, 10
1, 377367, Note_off_c, 0, 65, 37
1, 377381, Control_c, 0, 64, 0
1, 377701, Note_on_c, 0, 72, 60
1, 377728, Note_on_c, 0, 64, 32
1, 377736, Note_on_c, 0, 67, 35
1, 377804, Control_c, 0, 64, 24
1, 377805, Note_off_c, 0, 74, 62
1, 377819, Control_c, 0, 64, 46
1, 377834, Control_c, 0, 64, 51
1, 377849, Control_c, 0, 64, 54
1, 377864, Control_c, 0, 64, 58
1, 377878, Control_c, 0, 64, 61
1, 377893, Control_c, 0, 64, 63
1, 377908, Control_c, 0, 64, 65
1, 377923, Control_c, 0, 64, 67
1, 377925, Note_off_c, 0, 67, 56
1, 377937, Control_c, 0, 64, 72
1, 377952, Control_c, 0, 64, 81
1, 377964, Note_off_c, 0, 64, 41
1, 377967, Control_c, 0, 64, 87
1, 377982, Control_c, 0, 64, 88
1, 377997, Control_c, 0, 64, 89
1, 378011, Control_c, 0, 64, 90
1, 378041, Control_c, 0, 64, 91
1, 378047, Note_off_c, 0, 72, 53
1, 378067, Note_on_c, 0, 67, 55
1, 378073, Note_on_c, 0, 64, 51
1, 378160, Control_c, 0, 64, 90
1, 378201, Note_on_c, 0, 74, 59
1, 378240, Note_off_c, 0, 57, 41
1, 378243, Note_off_c, 0, 74, 61
1, 378248, Note_on_c, 0, 73, 70
1, 378270, Control_c, 0, 64, 89
1, 378279, Note_off_c, 0, 73, 60
1, 378285, Control_c, 0, 64, 89
1, 378294, Note_on_c, 0, 71, 67
1, 378300, Control_c, 0, 64, 87
1, 378315, Control_c, 0, 64, 85
1, 378330, Control_c, 0, 64, 84
1, 378345, Note_on_c, 0, 73, 62
1, 378345, Control_c, 0, 64, 83
1, 378359, Control_c, 0, 64, 82
1, 378374, Control_c, 0, 64, 81
1, 378388, Note_off_c, 0, 71, 50
1, 378389, Control_c, 0, 64, 79
1, 378404, Control_c, 0, 64, 77
1, 378419, Note_on_c, 0, 76, 78
1, 378419, Control_c, 0, 64, 75
1, 378434, Control_c, 0, 64, 72
1, 378439, Note_on_c, 0, 57, 45
1, 378448, Note_off_c, 0, 73, 60
1, 378448, Control_c, 0, 64, 69
1, 378463, Control_c, 0, 64, 66
1, 378478, Control_c, 0, 64, 63
1, 378493, Control_c, 0, 64, 59
1, 378497, Note_off_c, 0, 67, 32
1, 378507, Control_c, 0, 64, 51
1, 378520, Note_off_c, 0, 64, 30
1, 378521, Control_c, 0, 64, 38
1, 378536, Control_c, 0, 64, 0
1, 378685, Control_c, 0, 64, 47
1, 378700, Control_c, 0, 64, 58
1, 378715, Control_c, 0, 64, 60
1, 378730, Control_c, 0, 64, 63
1, 378745, Control_c, 0, 64, 68
1, 378759, Control_c, 0, 64, 70
1, 378774, Control_c, 0, 64, 72
1, 378789, Control_c, 0, 64, 73
1, 378804, Control_c, 0, 64, 74
1, 378819, Control_c, 0, 64, 75
1, 378830, Note_on_c, 0, 74, 75
1, 378830, Note_on_c, 0, 65, 41
1, 378833, Note_on_c, 0, 69, 46
1, 378833, Control_c, 0, 64, 76
1, 378848, Control_c, 0, 64, 77
1, 378896, Note_off_c, 0, 76, 62
1, 378923, Control_c, 0, 64, 77
1, 379011, Note_off_c, 0, 65, 60
1, 379021, Note_off_c, 0, 69, 47
1, 379108, Control_c, 0, 64, 77
1, 379167, Control_c, 0, 64, 76
1, 379197, Control_c, 0, 64, 76
1, 379211, Control_c, 0, 64, 75
1, 379226, Control_c, 0, 64, 74
1, 379241, Control_c, 0, 64, 72
1, 379257, Control_c, 0, 64, 69
1, 379263, Note_on_c, 0, 69, 32
1, 379269, Note_on_c, 0, 75, 70
1, 379271, Control_c, 0, 64, 67
1, 379272, Note_on_c, 0, 59, 35
1, 379286, Control_c, 0, 64, 65
1, 379301, Control_c, 0, 64, 63
1, 379316, Control_c, 0, 64, 59
1, 379331, Control_c, 0, 64, 54
1, 379331, Note_off_c, 0, 57, 28
1, 379345, Control_c, 0, 64, 41
1, 379360, Control_c, 0, 64, 0
1, 379385, Note_off_c, 0, 74, 57
1, 379465, Control_c, 0, 64, 31
1, 379480, Control_c, 0, 64, 53
1, 379494, Control_c, 0, 64, 60
1, 379509, Control_c, 0, 64, 62
1, 379524, Control_c, 0, 64, 65
1, 379539, Control_c, 0, 64, 67
1, 379554, Control_c, 0, 64, 69
1, 379568, Control_c, 0, 64, 70
1, 379583, Control_c, 0, 64, 70
1, 379687, Control_c, 0, 64, 70
1, 379709, Control_c, 0, 64, 69
1, 379739, Control_c, 0, 64, 69
1, 379754, Control_c, 0, 64, 68
1, 379758, Note_on_c, 0, 57, 32
1, 379769, Control_c, 0, 64, 67
1, 379781, Note_on_c, 0, 76, 59
1, 379783, Control_c, 0, 64, 65
1, 379798, Control_c, 0, 64, 64
1, 379813, Control_c, 0, 64, 63
1, 379827, Control_c, 0, 64, 61
1, 379842, Control_c, 0, 64, 58
1, 379848, Note_off_c, 0, 75, 60
1, 379857, Control_c, 0, 64, 54
1, 379872, Control_c, 0, 64, 46
1, 379885, Note_off_c, 0, 59, 38
1, 379887, Control_c, 0, 64, 15
1, 379892, Note_off_c, 0, 69, 39
1, 379901, Control_c, 0, 64, 0
1, 379961, Note_off_c, 0, 76, 44
1, 379990, Control_c, 0, 64, 35
1, 380005, Control_c, 0, 64, 57
1, 380005, Control_c, 0, 67, 9
1, 380020, Control_c, 0, 64, 60
1, 380020, Control_c, 0, 67, 11
1, 380027, Note_on_c, 0, 77, 58
1, 380035, Control_c, 0, 64, 59
1, 380035, Control_c, 0, 67, 13
1, 380050, Control_c, 0, 64, 59
1, 380050, Control_c, 0, 67, 15
1, 380064, Control_c, 0, 64, 57
1, 380064, Control_c, 0, 67, 18
1, 380079, Control_c, 0, 64, 55
1, 380079, Control_c, 0, 67, 19
1, 380094, Control_c, 0, 64, 54
1, 380094, Control_c, 0, 67, 20
1, 380101, Note_off_c, 0, 77, 56
1, 380109, Control_c, 0, 64, 52
1, 380109, Control_c, 0, 67, 22
1, 380124, Control_c, 0, 64, 50
1, 380124, Control_c, 0, 67, 23
1, 380139, Control_c, 0, 64, 46
1, 380139, Control_c, 0, 67, 25
1, 380154, Control_c, 0, 64, 40
1, 380169, Control_c, 0, 64, 31
1, 380169, Control_c, 0, 67, 26
1, 380184, Control_c, 0, 64, 0
1, 380199, Control_c, 0, 67, 27
1, 380213, Note_on_c, 0, 78, 60
1, 380227, Note_on_c, 0, 60, 34
1, 380238, Note_on_c, 0, 69, 34
1, 380243, Control_c, 0, 67, 27
1, 380273, Control_c, 0, 67, 28
1, 380297, Note_off_c, 0, 78, 50
1, 380377, Control_c, 0, 67, 27
1, 380395, Note_off_c, 0, 60, 53
1, 380404, Note_on_c, 0, 79, 62
1, 380421, Control_c, 0, 67, 27
1, 380436, Control_c, 0, 64, 32
1, 380458, Control_c, 0, 64, 49
1, 380461, Note_off_c, 0, 79, 59
1, 380473, Control_c, 0, 64, 55
1, 380488, Control_c, 0, 64, 48
1, 380503, Control_c, 0, 64, 0
1, 380518, Control_c, 0, 67, 26
1, 380532, Control_c, 0, 67, 26
1, 380547, Control_c, 0, 67, 25
1, 380562, Control_c, 0, 67, 25
1, 380572, Note_off_c, 0, 69, 38
1, 380574, Note_on_c, 0, 80, 60
1, 380577, Control_c, 0, 64, 37
1, 380592, Control_c, 0, 64, 60
1, 380593, Note_on_c, 0, 64, 33
1, 380598, Note_on_c, 0, 60, 27
1, 380606, Control_c, 0, 64, 62
1, 380619, Note_off_c, 0, 80, 54
1, 380621, Control_c, 0, 64, 57
1, 380636, Control_c, 0, 64, 36
1, 380650, Control_c, 0, 64, 0
1, 380680, Control_c, 0, 67, 24
1, 380695, Control_c, 0, 64, 56
1, 380710, Control_c, 0, 64, 68
1, 380710, Control_c, 0, 67, 23
1, 380724, Control_c, 0, 64, 70
1, 380724, Control_c, 0, 67, 23
1, 380730, Note_off_c, 0, 64, 52
1, 380750, Note_on_c, 0, 81, 57
1, 380762, Note_off_c, 0, 60, 54
1, 380775, Note_off_c, 0, 57, 40
1, 380798, Note_off_c, 0, 81, 51
1, 380843, Control_c, 0, 64, 69
1, 380857, Control_c, 0, 64, 68
1, 380872, Control_c, 0, 64, 65
1, 380887, Control_c, 0, 64, 63
1, 380902, Control_c, 0, 64, 60
1, 380902, Control_c, 0, 67, 23
1, 380917, Control_c, 0, 64, 55
1, 380917, Control_c, 0, 67, 24
1, 380920, Note_on_c, 0, 50, 37
1, 380932, Control_c, 0, 64, 49
1, 380944, Note_on_c, 0, 79, 49
1, 380947, Control_c, 0, 64, 43
1, 380962, Control_c, 0, 64, 24
1, 380977, Control_c, 0, 64, 0
1, 381044, Note_off_c, 0, 79, 52
1, 381045, Note_on_c, 0, 77, 59
1, 381081, Control_c, 0, 67, 24
1, 381110, Note_off_c, 0, 77, 61
1, 381111, Control_c, 0, 67, 24
1, 381123, Note_on_c, 0, 76, 61
1, 381187, Note_off_c, 0, 76, 64
1, 381210, Note_on_c, 0, 77, 49
1, 381282, Note_on_c, 0, 76, 53
1, 381293, Note_on_c, 0, 59, 34
1, 381293, Note_off_c, 0, 77, 59
1, 381344, Note_off_c, 0, 76, 65
1, 381362, Note_on_c, 0, 74, 56
1, 381370, Control_c, 0, 67, 24
1, 381385, Control_c, 0, 67, 25
1, 381439, Note_off_c, 0, 74, 59
1, 381439, Note_on_c, 0, 73, 60
1, 381520, Note_off_c, 0, 73, 58
1, 381531, Note_on_c, 0, 74, 60
1, 381546, Control_c, 0, 67, 25
1, 381605, Control_c, 0, 67, 26
1, 381611, Note_on_c, 0, 62, 39
1, 381621, Note_on_c, 0, 72, 55
1, 381650, Control_c, 0, 67, 26
1, 381659, Note_off_c, 0, 74, 62
1, 381709, Note_on_c, 0, 71, 56
1, 381713, Note_off_c, 0, 72, 61
1, 381723, Note_off_c, 0, 50, 36
1, 381745, Note_off_c, 0, 62, 53
1, 381770, Note_off_c, 0, 59, 42
1, 381779, Note_off_c, 0, 71, 62
1, 381793, Note_on_c, 0, 74, 54
1, 381843, Control_c, 0, 67, 26
1, 381873, Note_on_c, 0, 71, 45
1, 381909, Note_off_c, 0, 74, 60
1, 381996, Note_on_c, 0, 60, 27
1, 382014, Note_on_c, 0, 52, 31
1, 382041, Note_on_c, 0, 69, 43
1, 382051, Note_off_c, 0, 71, 49
1, 382309, Control_c, 0, 67, 25
1, 382339, Control_c, 0, 67, 25
1, 382399, Control_c, 0, 67, 24
1, 382413, Control_c, 0, 67, 24
1, 382428, Control_c, 0, 67, 23
1, 382443, Control_c, 0, 67, 23
1, 382458, Control_c, 0, 67, 22
1, 382473, Control_c, 0, 67, 21
1, 382488, Control_c, 0, 67, 21
1, 382502, Note_on_c, 0, 68, 38
1, 382502, Control_c, 0, 67, 19
1, 382517, Control_c, 0, 67, 17
1, 382524, Note_on_c, 0, 59, 18
1, 382532, Control_c, 0, 64, 28
1, 382532, Control_c, 0, 67, 15
1, 382547, Control_c, 0, 64, 40
1, 382547, Control_c, 0, 67, 10
1, 382562, Control_c, 0, 64, 48
1, 382562, Control_c, 0, 67, 0
1, 382565, Note_off_c, 0, 60, 37
1, 382577, Control_c, 0, 64, 51
1, 382592, Control_c, 0, 64, 53
1, 382594, Note_off_c, 0, 69, 45
1, 382607, Control_c, 0, 64, 56
1, 382622, Control_c, 0, 64, 58
1, 382637, Control_c, 0, 64, 60
1, 382651, Control_c, 0, 64, 61
1, 382666, Control_c, 0, 64, 62
1, 382681, Control_c, 0, 64, 63
1, 382703, Control_c, 0, 64, 64
1, 382718, Control_c, 0, 64, 64
1, 382732, Control_c, 0, 64, 65
1, 382747, Control_c, 0, 64, 66
1, 382762, Control_c, 0, 64, 67
1, 382777, Control_c, 0, 64, 68
1, 382792, Control_c, 0, 64, 70
1, 382807, Control_c, 0, 64, 71
1, 382819, Note_off_c, 0, 52, 40
1, 382822, Control_c, 0, 64, 73
1, 382837, Control_c, 0, 64, 75
1, 382851, Control_c, 0, 64, 78
1, 382866, Control_c, 0, 64, 81
1, 382881, Control_c, 0, 64, 83
1, 382896, Control_c, 0, 64, 86
1, 382911, Control_c, 0, 64, 89
1, 382924, Note_off_c, 0, 59, 39
1, 382925, Control_c, 0, 64, 92
1, 382930, Note_off_c, 0, 68, 46
1, 382940, Control_c, 0, 64, 96
1, 382941, Note_on_c, 0, 76, 42
1, 382955, Control_c, 0, 64, 100
1, 382970, Control_c, 0, 64, 102
1, 382985, Control_c, 0, 64, 104
1, 383000, Control_c, 0, 64, 106
1, 383015, Control_c, 0, 64, 107
1, 383030, Control_c, 0, 64, 107
1, 383047, Note_off_c, 0, 76, 52
1, 383059, Control_c, 0, 64, 108
1, 383311, Control_c, 0, 64, 107
1, 383326, Control_c, 0, 64, 105
1, 383341, Control_c, 0, 64, 104
1, 383355, Control_c, 0, 64, 103
1, 383371, Control_c, 0, 64, 102
1, 383386, Control_c, 0, 64, 100
1, 383401, Control_c, 0, 64, 99
1, 383415, Control_c, 0, 64, 96
1, 383430, Control_c, 0, 64, 93
1, 383431, Note_on_c, 0, 57, 27
1, 383453, Control_c, 0, 64, 89
1, 383468, Control_c, 0, 64, 84
1, 383472, Note_on_c, 0, 75, 36
1, 383482, Control_c, 0, 64, 79
1, 383497, Control_c, 0, 64, 74
1, 383512, Control_c, 0, 64, 68
1, 383527, Control_c, 0, 64, 63
1, 383542, Control_c, 0, 64, 55
1, 383556, Control_c, 0, 64, 38
1, 383571, Control_c, 0, 64, 0
1, 383572, Note_off_c, 0, 75, 54
1, 383668, Note_on_c, 0, 76, 54
1, 383732, Note_off_c, 0, 76, 55
1, 383848, Note_on_c, 0, 77, 59
1, 383870, Note_on_c, 0, 60, 27
1, 383873, Note_on_c, 0, 64, 29
1, 383910, Note_off_c, 0, 77, 55
1, 384005, Note_on_c, 0, 78, 70
1, 384051, Note_off_c, 0, 64, 42
1, 384072, Note_off_c, 0, 78, 60
1, 384077, Note_off_c, 0, 60, 42
1, 384163, Note_on_c, 0, 79, 59
1, 384196, Note_on_c, 0, 64, 35
1, 384202, Note_on_c, 0, 60, 41
1, 384229, Note_off_c, 0, 79, 62
1, 384293, Note_off_c, 0, 57, 41
1, 384304, Note_on_c, 0, 80, 68
1, 384351, Note_off_c, 0, 80, 60
1, 384417, Note_on_c, 0, 81, 69
1, 384464, Note_off_c, 0, 81, 51
1, 384585, Note_on_c, 0, 57, 27
1, 384599, Note_off_c, 0, 60, 36
1, 384619, Note_on_c, 0, 81, 55
1, 384699, Note_off_c, 0, 64, 30
1, 384764, Control_c, 0, 64, 17
1, 384779, Control_c, 0, 64, 45
1, 384794, Control_c, 0, 64, 54
1, 384809, Control_c, 0, 64, 57
1, 384823, Control_c, 0, 64, 58
1, 384838, Control_c, 0, 64, 59
1, 384853, Control_c, 0, 64, 62
1, 384868, Control_c, 0, 64, 64
1, 384883, Control_c, 0, 64, 65
1, 384897, Control_c, 0, 64, 65
1, 384927, Control_c, 0, 64, 66
1, 384950, Control_c, 0, 64, 67
1, 384965, Control_c, 0, 64, 70
1, 384980, Control_c, 0, 64, 72
1, 384995, Control_c, 0, 64, 75
1, 385010, Control_c, 0, 64, 79
1, 385025, Control_c, 0, 64, 83
1, 385039, Control_c, 0, 64, 86
1, 385047, Note_on_c, 0, 69, 37
1, 385054, Control_c, 0, 64, 91
1, 385066, Note_on_c, 0, 61, 30
1, 385069, Control_c, 0, 64, 96
1, 385084, Control_c, 0, 64, 103
1, 385099, Control_c, 0, 64, 110
1, 385099, Note_on_c, 0, 64, 18
1, 385113, Control_c, 0, 64, 127
1, 385181, Note_off_c, 0, 69, 57
1, 385189, Note_off_c, 0, 81, 50
1, 385235, Note_off_c, 0, 61, 34
1, 385237, Note_off_c, 0, 64, 42
1, 385432, Note_on_c, 0, 61, 49
1, 385432, Note_on_c, 0, 64, 39
1, 385466, Note_off_c, 0, 57, 38
1, 385605, Note_on_c, 0, 81, 71
1, 385660, Note_off_c, 0, 81, 58
1, 385803, Control_c, 0, 64, 107
1, 385817, Control_c, 0, 64, 90
1, 385818, Note_on_c, 0, 81, 56
1, 385832, Note_on_c, 0, 57, 37
1, 385832, Control_c, 0, 64, 80
1, 385847, Control_c, 0, 64, 74
1, 385861, Control_c, 0, 64, 68
1, 385864, Note_off_c, 0, 61, 37
1, 385876, Control_c, 0, 64, 64
1, 385885, Note_off_c, 0, 64, 42
1, 385891, Control_c, 0, 64, 57
1, 385906, Control_c, 0, 64, 30
1, 385921, Control_c, 0, 64, 0
1, 385995, Control_c, 0, 64, 15
1, 386009, Control_c, 0, 64, 52
1, 386024, Control_c, 0, 64, 61
1, 386039, Control_c, 0, 64, 64
1, 386041, Note_on_c, 0, 70, 52
1, 386054, Control_c, 0, 64, 67
1, 386068, Note_off_c, 0, 81, 59
1, 386068, Control_c, 0, 64, 70
1, 386083, Control_c, 0, 64, 75
1, 386098, Control_c, 0, 64, 79
1, 386113, Control_c, 0, 64, 83
1, 386128, Control_c, 0, 64, 85
1, 386143, Control_c, 0, 64, 86
1, 386146, Note_off_c, 0, 70, 64
1, 386157, Control_c, 0, 64, 88
1, 386172, Control_c, 0, 64, 89
1, 386187, Control_c, 0, 64, 90
1, 386218, Note_on_c, 0, 65, 40
1, 386229, Note_on_c, 0, 62, 39
1, 386247, Control_c, 0, 64, 90
1, 386313, Note_on_c, 0, 72, 44
1, 386336, Note_off_c, 0, 65, 34
1, 386354, Note_off_c, 0, 72, 52
1, 386360, Note_on_c, 0, 70, 65
1, 386366, Note_off_c, 0, 62, 38
1, 386390, Note_off_c, 0, 70, 64
1, 386415, Note_on_c, 0, 69, 64
1, 386475, Note_off_c, 0, 69, 61
1, 386480, Note_on_c, 0, 70, 73
1, 386506, Control_c, 0, 64, 90
1, 386521, Control_c, 0, 64, 88
1, 386535, Note_off_c, 0, 70, 62
1, 386536, Control_c, 0, 64, 85
1, 386550, Control_c, 0, 64, 81
1, 386560, Note_on_c, 0, 81, 80
1, 386566, Control_c, 0, 64, 76
1, 386575, Note_on_c, 0, 65, 42
1, 386581, Control_c, 0, 64, 70
1, 386589, Note_on_c, 0, 62, 36
1, 386596, Control_c, 0, 64, 64
1, 386611, Control_c, 0, 64, 57
1, 386616, Note_off_c, 0, 57, 38
1, 386625, Control_c, 0, 64, 33
1, 386640, Control_c, 0, 64, 0
1, 386684, Control_c, 0, 64, 36
1, 386699, Control_c, 0, 64, 55
1, 386714, Control_c, 0, 64, 63
1, 386729, Control_c, 0, 64, 66
1, 386745, Control_c, 0, 64, 70
1, 386746, Note_on_c, 0, 71, 75
1, 386759, Control_c, 0, 64, 73
1, 386774, Control_c, 0, 64, 76
1, 386789, Control_c, 0, 64, 77
1, 386802, Note_off_c, 0, 81, 57
1, 386818, Control_c, 0, 64, 78
1, 386833, Control_c, 0, 64, 78
1, 386848, Control_c, 0, 64, 79
1, 386952, Control_c, 0, 64, 78
1, 386966, Control_c, 0, 64, 76
1, 386967, Note_off_c, 0, 71, 38
1, 386980, Note_on_c, 0, 57, 41
1, 386981, Control_c, 0, 64, 73
1, 386986, Note_on_c, 0, 81, 70
1, 386996, Control_c, 0, 64, 69
1, 387010, Control_c, 0, 64, 66
1, 387025, Control_c, 0, 64, 63
1, 387031, Note_off_c, 0, 65, 31
1, 387040, Control_c, 0, 64, 59
1, 387045, Note_off_c, 0, 62, 39
1, 387055, Control_c, 0, 64, 55
1, 387070, Control_c, 0, 64, 48
1, 387085, Control_c, 0, 64, 32
1, 387099, Control_c, 0, 64, 0
1, 387179, Note_on_c, 0, 72, 68
1, 387255, Control_c, 0, 64, 44
1, 387270, Control_c, 0, 64, 60
1, 387285, Control_c, 0, 64, 65
1, 387294, Note_off_c, 0, 81, 54
1, 387299, Control_c, 0, 64, 67
1, 387314, Control_c, 0, 64, 71
1, 387329, Control_c, 0, 64, 75
1, 387333, Note_off_c, 0, 72, 62
1, 387344, Control_c, 0, 64, 80
1, 387356, Note_on_c, 0, 67, 52
1, 387359, Control_c, 0, 64, 83
1, 387359, Note_on_c, 0, 64, 50
1, 387375, Control_c, 0, 64, 83
1, 387389, Control_c, 0, 64, 84
1, 387404, Control_c, 0, 64, 86
1, 387419, Control_c, 0, 64, 86
1, 387444, Note_off_c, 0, 67, 51
1, 387463, Note_on_c, 0, 74, 54
1, 387499, Note_off_c, 0, 74, 64
1, 387502, Note_off_c, 0, 64, 35
1, 387508, Note_on_c, 0, 72, 64
1, 387535, Note_off_c, 0, 72, 69
1, 387541, Note_on_c, 0, 71, 70
1, 387596, Note_on_c, 0, 72, 77
1, 387596, Note_off_c, 0, 71, 60
1, 387612, Control_c, 0, 64, 86
1, 387627, Control_c, 0, 64, 84
1, 387641, Control_c, 0, 64, 80
1, 387656, Control_c, 0, 64, 75
1, 387670, Note_on_c, 0, 81, 82
1, 387671, Control_c, 0, 64, 71
1, 387682, Note_off_c, 0, 72, 64
1, 387686, Control_c, 0, 64, 65
1, 387687, Note_on_c, 0, 67, 48
1, 387694, Note_on_c, 0, 64, 44
1, 387701, Control_c, 0, 64, 56
1, 387715, Control_c, 0, 64, 0
1, 387775, Control_c, 0, 64, 15
1, 387777, Note_off_c, 0, 57, 30
1, 387789, Control_c, 0, 64, 50
1, 387804, Control_c, 0, 64, 61
1, 387819, Control_c, 0, 64, 65
1, 387833, Control_c, 0, 64, 69
1, 387845, Note_on_c, 0, 73, 84
1, 387848, Control_c, 0, 64, 72
1, 387863, Control_c, 0, 64, 73
1, 387878, Control_c, 0, 64, 74
1, 387879, Note_off_c, 0, 81, 61
1, 387922, Control_c, 0, 64, 74
1, 388033, Control_c, 0, 64, 73
1, 388048, Control_c, 0, 64, 70
1, 388059, Note_on_c, 0, 81, 78
1, 388059, Note_on_c, 0, 57, 41
1, 388063, Control_c, 0, 64, 68
1, 388078, Control_c, 0, 64, 65
1, 388089, Note_off_c, 0, 67, 38
1, 388092, Note_off_c, 0, 64, 31
1, 388093, Control_c, 0, 64, 62
1, 388108, Control_c, 0, 64, 60
1, 388118, Note_off_c, 0, 73, 59
1, 388122, Control_c, 0, 64, 57
1, 388137, Control_c, 0, 64, 51
1, 388152, Control_c, 0, 64, 27
1, 388168, Control_c, 0, 64, 0
1, 388247, Note_on_c, 0, 74, 71
1, 388301, Control_c, 0, 64, 53
1, 388316, Control_c, 0, 64, 61
1, 388331, Control_c, 0, 64, 65
1, 388336, Note_off_c, 0, 81, 59
1, 388345, Note_off_c, 0, 74, 65
1, 388345, Control_c, 0, 64, 69
1, 388360, Control_c, 0, 64, 74
1, 388375, Control_c, 0, 64, 79
1, 388390, Control_c, 0, 64, 84
1, 388405, Control_c, 0, 64, 87
1, 388417, Note_on_c, 0, 69, 58
1, 388420, Control_c, 0, 64, 90
1, 388423, Note_on_c, 0, 65, 57
1, 388435, Control_c, 0, 64, 93
1, 388450, Control_c, 0, 64, 95
1, 388464, Control_c, 0, 64, 96
1, 388494, Control_c, 0, 64, 97
1, 388509, Note_off_c, 0, 69, 63
1, 388509, Control_c, 0, 64, 98
1, 388524, Control_c, 0, 64, 99
1, 388531, Note_off_c, 0, 65, 59
1, 388538, Control_c, 0, 64, 99
1, 388558, Note_on_c, 0, 76, 73
1, 388588, Note_off_c, 0, 76, 65
1, 388610, Note_on_c, 0, 74, 74
1, 388653, Note_off_c, 0, 74, 61
1, 388661, Note_on_c, 0, 73, 73
1, 388709, Control_c, 0, 64, 99
1, 388721, Note_off_c, 0, 73, 62
1, 388722, Note_on_c, 0, 74, 76
1, 388724, Control_c, 0, 64, 98
1, 388738, Control_c, 0, 64, 95
1, 388753, Control_c, 0, 64, 91
1, 388768, Control_c, 0, 64, 86
1, 388782, Control_c, 0, 64, 79
1, 388797, Control_c, 0, 64, 70
1, 388808, Note_on_c, 0, 59, 43
1, 388808, Note_on_c, 0, 68, 49
1, 388812, Control_c, 0, 64, 64
1, 388819, Note_on_c, 0, 79, 82
1, 388827, Control_c, 0, 64, 54
1, 388842, Control_c, 0, 64, 24
1, 388843, Note_off_c, 0, 57, 34
1, 388856, Control_c, 0, 64, 0
1, 388870, Note_off_c, 0, 74, 59
1, 388931, Control_c, 0, 64, 36
1, 388945, Control_c, 0, 64, 55
1, 388961, Control_c, 0, 64, 63
1, 388976, Control_c, 0, 64, 69
1, 388990, Control_c, 0, 64, 75
1, 389005, Control_c, 0, 64, 81
1, 389019, Note_on_c, 0, 77, 85
1, 389019, Control_c, 0, 64, 87
1, 389034, Control_c, 0, 64, 94
1, 389046, Note_off_c, 0, 68, 57
1, 389049, Control_c, 0, 64, 102
1, 389064, Control_c, 0, 64, 110
1, 389079, Control_c, 0, 64, 127
1, 389089, Note_off_c, 0, 79, 53
1, 389104, Note_off_c, 0, 77, 63
1, 389268, Note_on_c, 0, 69, 50
1, 389276, Note_on_c, 0, 60, 43
1, 389291, Note_on_c, 0, 57, 43
1, 389339, Note_on_c, 0, 76, 72
1, 389364, Note_off_c, 0, 59, 22
1, 389375, Control_c, 0, 64, 115
1, 389390, Control_c, 0, 64, 99
1, 389404, Control_c, 0, 64, 87
1, 389419, Control_c, 0, 64, 76
1, 389442, Control_c, 0, 64, 68
1, 389457, Control_c, 0, 64, 58
1, 389472, Control_c, 0, 64, 17
1, 389486, Control_c, 0, 64, 0
1, 389499, Note_on_c, 0, 81, 75
1, 389544, Note_off_c, 0, 76, 63
1, 389546, Control_c, 0, 64, 39
1, 389560, Control_c, 0, 64, 58
1, 389575, Control_c, 0, 64, 65
1, 389590, Control_c, 0, 64, 69
1, 389604, Control_c, 0, 64, 73
1, 389607, Note_on_c, 0, 84, 77
1, 389619, Control_c, 0, 64, 76
1, 389634, Control_c, 0, 64, 79
1, 389649, Control_c, 0, 64, 81
1, 389664, Control_c, 0, 64, 82
1, 389669, Note_off_c, 0, 81, 40
1, 389700, Note_off_c, 0, 84, 64
1, 389702, Note_on_c, 0, 80, 79
1, 389777, Note_off_c, 0, 80, 62
1, 389784, Control_c, 0, 64, 81
1, 389795, Note_on_c, 0, 81, 73
1, 389799, Control_c, 0, 64, 77
1, 389814, Control_c, 0, 64, 68
1, 389828, Control_c, 0, 64, 50
1, 389843, Control_c, 0, 64, 0
1, 389871, Note_off_c, 0, 81, 52
1, 389888, Control_c, 0, 64, 38
1, 389890, Note_on_c, 0, 75, 70
1, 389903, Control_c, 0, 64, 63
1, 389917, Control_c, 0, 64, 68
1, 389945, Note_off_c, 0, 69, 45
1, 389947, Control_c, 0, 64, 61
1, 389962, Control_c, 0, 64, 0
1, 389970, Note_off_c, 0, 75, 63
1, 389976, Note_on_c, 0, 76, 66
1, 390032, Note_off_c, 0, 76, 65
1, 390036, Control_c, 0, 64, 64
1, 390051, Control_c, 0, 64, 72
1, 390060, Note_on_c, 0, 71, 61
1, 390064, Note_off_c, 0, 57, 38
1, 390065, Control_c, 0, 64, 70
1, 390073, Note_off_c, 0, 60, 55
1, 390080, Control_c, 0, 64, 55
1, 390095, Control_c, 0, 64, 0
1, 390134, Note_off_c, 0, 71, 58
1, 390140, Note_on_c, 0, 72, 64
1, 390140, Control_c, 0, 64, 42
1, 390154, Control_c, 0, 64, 65
1, 390169, Control_c, 0, 64, 63
1, 390191, Control_c, 0, 64, 50
1, 390206, Control_c, 0, 64, 0
1, 390241, Note_on_c, 0, 68, 54
1, 390250, Control_c, 0, 64, 62
1, 390265, Control_c, 0, 64, 81
1, 390268, Note_off_c, 0, 72, 60
1, 390280, Control_c, 0, 64, 81
1, 390295, Control_c, 0, 64, 74
1, 390310, Control_c, 0, 64, 60
1, 390310, Note_on_c, 0, 69, 57
1, 390325, Control_c, 0, 64, 45
1, 390340, Control_c, 0, 64, 58
1, 390344, Note_off_c, 0, 68, 38
1, 390355, Control_c, 0, 64, 68
1, 390369, Control_c, 0, 64, 92
1, 390384, Control_c, 0, 64, 101
1, 390389, Note_off_c, 0, 69, 63
1, 390396, Note_on_c, 0, 64, 67
1, 390399, Control_c, 0, 64, 94
1, 390414, Control_c, 0, 64, 75
1, 390421, Note_off_c, 0, 64, 68
1, 390429, Control_c, 0, 64, 64
1, 390443, Control_c, 0, 64, 59
1, 390458, Control_c, 0, 64, 61
1, 390473, Control_c, 0, 64, 61
1, 390488, Control_c, 0, 64, 62
1, 390503, Control_c, 0, 64, 62
1, 390517, Control_c, 0, 64, 62
1, 390561, Note_on_c, 0, 52, 47
1, 390567, Note_on_c, 0, 64, 29
1, 390578, Control_c, 0, 64, 60
1, 390592, Control_c, 0, 64, 56
1, 390607, Control_c, 0, 64, 41
1, 390609, Note_on_c, 0, 72, 53
1, 390620, Note_on_c, 0, 69, 48
1, 390622, Control_c, 0, 64, 0
1, 390778, Note_off_c, 0, 72, 65
1, 390799, Note_on_c, 0, 74, 53
1, 390849, Note_off_c, 0, 74, 61
1, 390851, Note_on_c, 0, 72, 54
1, 390890, Note_off_c, 0, 72, 65
1, 390903, Note_on_c, 0, 71, 60
1, 390957, Note_off_c, 0, 71, 59
1, 390959, Note_on_c, 0, 72, 54
1, 391058, Note_off_c, 0, 64, 53
1, 391117, Note_off_c, 0, 72, 64
1, 391153, Note_on_c, 0, 74, 47
1, 391357, Note_on_c, 0, 71, 50
1, 391365, Note_on_c, 0, 62, 39
1, 391369, Note_on_c, 0, 68, 40
1, 391386, Note_off_c, 0, 69, 36
1, 391407, Note_off_c, 0, 74, 35
1, 391791, Note_on_c, 0, 69, 48
1, 391806, Note_off_c, 0, 68, 43
1, 391809, Note_on_c, 0, 57, 30
1, 391809, Note_on_c, 0, 60, 30
1, 391818, Note_off_c, 0, 52, 34
1, 391822, Note_off_c, 0, 71, 35
1, 391826, Note_off_c, 0, 62, 39
1, 391985, Control_c, 0, 64, 32
1, 392000, Control_c, 0, 64, 53
1, 392015, Control_c, 0, 64, 60
1, 392030, Control_c, 0, 64, 63
1, 392045, Control_c, 0, 64, 68
1, 392060, Control_c, 0, 64, 71
1, 392075, Control_c, 0, 64, 74
1, 392089, Control_c, 0, 64, 76
1, 392104, Control_c, 0, 64, 77
1, 392119, Control_c, 0, 64, 78
1, 392133, Control_c, 0, 64, 79
1, 392179, Control_c, 0, 64, 79
1, 392194, Note_off_c, 0, 57, 39
1, 392249, Note_off_c, 0, 60, 35
1, 392307, Note_on_c, 0, 81, 76
1, 392311, Note_off_c, 0, 69, 13
1, 392438, Control_c, 0, 64, 79
1, 392468, Control_c, 0, 64, 78
1, 392498, Control_c, 0, 64, 77
1, 392512, Control_c, 0, 64, 77
1, 392527, Control_c, 0, 64, 76
1, 392542, Control_c, 0, 64, 75
1, 392556, Control_c, 0, 64, 74
1, 392616, Control_c, 0, 64, 74
1, 392645, Control_c, 0, 64, 73
1, 392660, Control_c, 0, 64, 73
1, 392675, Control_c, 0, 64, 72
1, 392690, Control_c, 0, 64, 72
1, 392704, Control_c, 0, 64, 71
1, 392719, Control_c, 0, 64, 71
1, 392749, Control_c, 0, 64, 70
1, 392763, Control_c, 0, 64, 68
1, 392778, Control_c, 0, 64, 68
1, 392808, Control_c, 0, 64, 67
1, 392823, Control_c, 0, 64, 65
1, 392836, Note_on_c, 0, 64, 52
1, 392838, Control_c, 0, 64, 65
1, 392844, Note_on_c, 0, 60, 49
1, 392853, Control_c, 0, 64, 64
1, 392867, Control_c, 0, 64, 62
1, 392882, Control_c, 0, 64, 61
1, 392927, Control_c, 0, 64, 60
1, 392942, Control_c, 0, 64, 59
1, 392957, Control_c, 0, 64, 56
1, 392972, Control_c, 0, 64, 52
1, 393017, Control_c, 0, 64, 52
1, 393031, Control_c, 0, 64, 51
1, 393046, Control_c, 0, 64, 50
1, 393061, Control_c, 0, 64, 47
1, 393076, Control_c, 0, 64, 45
1, 393091, Control_c, 0, 64, 40
1, 393106, Control_c, 0, 64, 23
1, 393121, Control_c, 0, 64, 0
1, 393261, Note_on_c, 0, 65, 63
1, 393273, Note_on_c, 0, 62, 63
1, 393360, Note_off_c, 0, 64, 64
1, 393362, Note_off_c, 0, 60, 59
1, 393498, Control_c, 0, 64, 14
1, 393513, Control_c, 0, 64, 46
1, 393527, Control_c, 0, 64, 54
1, 393542, Control_c, 0, 64, 57
1, 393557, Control_c, 0, 64, 60
1, 393572, Control_c, 0, 64, 62
1, 393586, Control_c, 0, 64, 64
1, 393601, Control_c, 0, 64, 65
1, 393616, Control_c, 0, 64, 66
1, 393631, Control_c, 0, 64, 67
1, 393646, Control_c, 0, 64, 68
1, 393660, Control_c, 0, 64, 69
1, 393675, Control_c, 0, 64, 70
1, 393690, Control_c, 0, 64, 71
1, 393694, Note_on_c, 0, 70, 72
1, 393735, Control_c, 0, 64, 71
1, 393750, Control_c, 0, 64, 72
1, 393765, Control_c, 0, 64, 72
1, 393795, Control_c, 0, 64, 73
1, 393824, Control_c, 0, 64, 73
1, 393869, Note_off_c, 0, 65, 51
1, 393953, Note_off_c, 0, 62, 36
1, 394128, Control_c, 0, 64, 73
1, 394158, Note_on_c, 0, 77, 67
1, 394173, Control_c, 0, 64, 72
1, 394188, Control_c, 0, 64, 72
1, 394202, Control_c, 0, 64, 71
1, 394217, Control_c, 0, 64, 71
1, 394232, Control_c, 0, 64, 70
1, 394247, Control_c, 0, 64, 70
1, 394262, Control_c, 0, 64, 69
1, 394276, Control_c, 0, 64, 68
1, 394291, Control_c, 0, 64, 67
1, 394335, Control_c, 0, 64, 67
1, 394349, Note_off_c, 0, 70, 37
1, 394350, Control_c, 0, 64, 66
1, 394356, Note_off_c, 0, 81, 33
1, 394365, Control_c, 0, 64, 66
1, 394380, Control_c, 0, 64, 65
1, 394394, Control_c, 0, 64, 64
1, 394409, Control_c, 0, 64, 64
1, 394424, Control_c, 0, 64, 63
1, 394439, Control_c, 0, 64, 62
1, 394454, Control_c, 0, 64, 60
1, 394468, Control_c, 0, 64, 58
1, 394483, Control_c, 0, 64, 56
1, 394498, Control_c, 0, 64, 55
1, 394513, Control_c, 0, 64, 54
1, 394528, Control_c, 0, 64, 53
1, 394543, Control_c, 0, 64, 50
1, 394557, Note_on_c, 0, 69, 52
1, 394558, Control_c, 0, 64, 46
1, 394573, Control_c, 0, 64, 40
1, 394588, Control_c, 0, 64, 31
1, 394603, Control_c, 0, 64, 8
1, 394618, Control_c, 0, 64, 0
1, 394712, Note_off_c, 0, 77, 58
1, 394773, Control_c, 0, 64, 37
1, 394788, Control_c, 0, 64, 46
1, 394803, Control_c, 0, 64, 52
1, 394818, Control_c, 0, 64, 58
1, 394832, Control_c, 0, 64, 61
1, 394847, Control_c, 0, 64, 63
1, 394862, Control_c, 0, 64, 65
1, 394877, Control_c, 0, 64, 67
1, 394892, Control_c, 0, 64, 69
1, 394906, Control_c, 0, 64, 71
1, 394921, Control_c, 0, 64, 74
1, 394936, Control_c, 0, 64, 77
1, 394945, Note_on_c, 0, 60, 36
1, 394951, Control_c, 0, 64, 79
1, 394957, Note_on_c, 0, 52, 38
1, 394966, Control_c, 0, 64, 81
1, 394980, Control_c, 0, 64, 83
1, 394995, Control_c, 0, 64, 84
1, 395010, Control_c, 0, 64, 85
1, 395069, Control_c, 0, 64, 86
1, 395127, Note_off_c, 0, 60, 49
1, 395321, Control_c, 0, 64, 85
1, 395336, Control_c, 0, 64, 85
1, 395351, Control_c, 0, 64, 84
1, 395365, Control_c, 0, 64, 82
1, 395380, Control_c, 0, 64, 78
1, 395384, Note_on_c, 0, 72, 43
1, 395386, Note_on_c, 0, 62, 37
1, 395392, Note_on_c, 0, 68, 42
1, 395395, Control_c, 0, 64, 74
1, 395410, Control_c, 0, 64, 69
1, 395433, Control_c, 0, 64, 63
1, 395448, Control_c, 0, 64, 53
1, 395462, Control_c, 0, 64, 29
1, 395477, Control_c, 0, 64, 0
1, 395492, Control_c, 0, 64, 38
1, 395506, Note_off_c, 0, 69, 38
1, 395507, Control_c, 0, 64, 54
1, 395522, Control_c, 0, 64, 60
1, 395536, Control_c, 0, 64, 63
1, 395551, Control_c, 0, 64, 65
1, 395566, Control_c, 0, 64, 68
1, 395580, Control_c, 0, 64, 69
1, 395587, Note_off_c, 0, 62, 41
1, 395607, Note_on_c, 0, 71, 44
1, 395636, Note_off_c, 0, 72, 33
1, 395702, Note_off_c, 0, 68, 44
1, 395758, Control_c, 0, 64, 68
1, 395772, Control_c, 0, 64, 67
1, 395787, Control_c, 0, 64, 66
1, 395802, Control_c, 0, 64, 65
1, 395817, Control_c, 0, 64, 64
1, 395832, Control_c, 0, 64, 63
1, 395846, Control_c, 0, 64, 62
1, 395861, Control_c, 0, 64, 56
1, 395869, Note_on_c, 0, 69, 45
1, 395876, Control_c, 0, 64, 46
1, 395886, Note_on_c, 0, 60, 20
1, 395891, Control_c, 0, 64, 38
1, 395905, Control_c, 0, 64, 32
1, 395910, Note_off_c, 0, 71, 32
1, 395920, Control_c, 0, 64, 17
1, 395921, Note_on_c, 0, 53, 20
1, 395930, Note_off_c, 0, 52, 31
1, 395935, Control_c, 0, 64, 0
1, 396225, Control_c, 0, 64, 12
1, 396240, Control_c, 0, 64, 48
1, 396255, Control_c, 0, 64, 58
1, 396269, Control_c, 0, 64, 60
1, 396281, Note_off_c, 0, 69, 39
1, 396284, Control_c, 0, 64, 62
1, 396299, Control_c, 0, 64, 63
1, 396314, Control_c, 0, 64, 64
1, 396328, Control_c, 0, 64, 65
1, 396373, Control_c, 0, 64, 64
1, 396448, Control_c, 0, 64, 64
1, 396477, Note_on_c, 0, 81, 49
1, 396492, Control_c, 0, 64, 63
1, 396507, Control_c, 0, 64, 63
1, 396522, Control_c, 0, 64, 62
1, 396537, Control_c, 0, 64, 61
1, 396542, Note_off_c, 0, 60, 30
1, 396545, Note_off_c, 0, 53, 39
1, 396552, Control_c, 0, 64, 60
1, 396567, Control_c, 0, 64, 59
1, 396582, Control_c, 0, 64, 58
1, 396596, Control_c, 0, 64, 57
1, 396611, Control_c, 0, 64, 55
1, 396626, Control_c, 0, 64, 51
1, 396641, Control_c, 0, 64, 45
1, 396656, Control_c, 0, 64, 39
1, 396670, Control_c, 0, 64, 29
1, 396685, Control_c, 0, 64, 0
1, 396990, Control_c, 0, 64, 10
1, 397005, Control_c, 0, 64, 32
1, 397019, Control_c, 0, 64, 41
1, 397034, Control_c, 0, 64, 47
1, 397042, Note_on_c, 0, 64, 35
1, 397045, Note_on_c, 0, 60, 23
1, 397049, Control_c, 0, 64, 51
1, 397064, Control_c, 0, 64, 55
1, 397079, Control_c, 0, 64, 57
1, 397093, Control_c, 0, 64, 58
1, 397108, Control_c, 0, 64, 60
1, 397123, Control_c, 0, 64, 61
1, 397138, Control_c, 0, 64, 62
1, 397152, Control_c, 0, 64, 63
1, 397167, Control_c, 0, 64, 63
1, 397182, Control_c, 0, 64, 64
1, 397241, Control_c, 0, 64, 64
1, 397375, Control_c, 0, 64, 64
1, 397449, Control_c, 0, 64, 63
1, 397466, Note_on_c, 0, 62, 32
1, 397476, Note_on_c, 0, 65, 27
1, 397506, Note_off_c, 0, 64, 34
1, 397508, Control_c, 0, 64, 63
1, 397525, Note_off_c, 0, 60, 34
1, 397538, Control_c, 0, 64, 62
1, 397567, Control_c, 0, 64, 61
1, 397582, Control_c, 0, 64, 60
1, 397597, Control_c, 0, 64, 58
1, 397612, Control_c, 0, 64, 56
1, 397626, Control_c, 0, 64, 53
1, 397641, Control_c, 0, 64, 50
1, 397656, Control_c, 0, 64, 47
1, 397679, Control_c, 0, 64, 44
1, 397694, Control_c, 0, 64, 40
1, 397708, Control_c, 0, 64, 31
1, 397723, Control_c, 0, 64, 0
1, 397872, Control_c, 0, 64, 34
1, 397885, Note_on_c, 0, 70, 46
1, 397887, Control_c, 0, 64, 44
1, 397902, Control_c, 0, 64, 53
1, 397916, Control_c, 0, 64, 58
1, 397931, Control_c, 0, 64, 60
1, 397946, Control_c, 0, 64, 62
1, 397961, Control_c, 0, 64, 64
1, 397963, Note_off_c, 0, 62, 33
1, 397975, Control_c, 0, 64, 67
1, 397990, Control_c, 0, 64, 69
1, 398005, Control_c, 0, 64, 73
1, 398020, Control_c, 0, 64, 76
1, 398035, Control_c, 0, 64, 81
1, 398049, Control_c, 0, 64, 85
1, 398064, Control_c, 0, 64, 91
1, 398079, Control_c, 0, 64, 97
1, 398093, Control_c, 0, 64, 105
1, 398108, Control_c, 0, 64, 119
1, 398117, Note_off_c, 0, 70, 57
1, 398123, Control_c, 0, 64, 127
1, 398207, Note_off_c, 0, 81, 33
1, 398264, Note_on_c, 0, 77, 52
1, 398339, Note_off_c, 0, 77, 57
1, 398668, Note_on_c, 0, 74, 56
1, 398673, Note_on_c, 0, 67, 39
1, 398682, Note_on_c, 0, 64, 38
1, 398754, Control_c, 0, 64, 100
1, 398767, Note_off_c, 0, 65, 37
1, 398769, Control_c, 0, 64, 88
1, 398784, Control_c, 0, 64, 80
1, 398798, Control_c, 0, 64, 73
1, 398813, Control_c, 0, 64, 68
1, 398828, Control_c, 0, 64, 63
1, 398843, Control_c, 0, 64, 58
1, 398858, Control_c, 0, 64, 49
1, 398872, Control_c, 0, 64, 38
1, 398887, Control_c, 0, 64, 26
1, 398902, Control_c, 0, 64, 0
1, 399058, Note_on_c, 0, 73, 64
1, 399192, Note_off_c, 0, 74, 60
1, 399220, Control_c, 0, 64, 43
1, 399235, Control_c, 0, 64, 55
1, 399250, Control_c, 0, 64, 60
1, 399265, Control_c, 0, 64, 63
1, 399279, Control_c, 0, 64, 65
1, 399294, Control_c, 0, 64, 67
1, 399309, Control_c, 0, 64, 71
1, 399324, Control_c, 0, 64, 76
1, 399339, Control_c, 0, 64, 81
1, 399354, Control_c, 0, 64, 87
1, 399369, Control_c, 0, 64, 97
1, 399384, Control_c, 0, 64, 115
1, 399399, Control_c, 0, 64, 127
1, 399449, Note_on_c, 0, 79, 63
1, 399488, Note_off_c, 0, 67, 54
1, 399531, Note_off_c, 0, 73, 56
1, 399551, Note_off_c, 0, 79, 59
1, 399843, Note_on_c, 0, 69, 45
1, 399846, Note_on_c, 0, 72, 44
1, 399851, Note_on_c, 0, 76, 76
1, 399924, Control_c, 0, 64, 106
1, 399938, Control_c, 0, 64, 91
1, 399953, Control_c, 0, 64, 81
1, 399968, Control_c, 0, 64, 73
1, 399983, Control_c, 0, 64, 67
1, 399998, Control_c, 0, 64, 62
1, 400013, Control_c, 0, 64, 54
1, 400028, Control_c, 0, 64, 31
1, 400043, Control_c, 0, 64, 0
1, 400052, Note_off_c, 0, 64, 40
1, 400239, Note_on_c, 0, 75, 77
1, 400251, Control_c, 0, 64, 38
1, 400266, Control_c, 0, 64, 51
1, 400281, Control_c, 0, 64, 56
1, 400296, Control_c, 0, 64, 60
1, 400305, Note_off_c, 0, 76, 62
1, 400311, Control_c, 0, 64, 62
1, 400326, Control_c, 0, 64, 64
1, 400341, Control_c, 0, 64, 65
1, 400355, Control_c, 0, 64, 67
1, 400370, Control_c, 0, 64, 72
1, 400385, Control_c, 0, 64, 78
1, 400400, Control_c, 0, 64, 85
1, 400415, Control_c, 0, 64, 91
1, 400430, Control_c, 0, 64, 99
1, 400444, Control_c, 0, 64, 125
1, 400459, Control_c, 0, 64, 127
1, 400600, Note_on_c, 0, 81, 83
1, 400692, Note_off_c, 0, 75, 64
1, 400704, Note_off_c, 0, 81, 63
1, 400831, Note_off_c, 0, 72, 57
1, 401035, Note_on_c, 0, 68, 54
1, 401041, Note_on_c, 0, 71, 49
1, 401044, Note_on_c, 0, 77, 86
1, 401074, Control_c, 0, 64, 101
1, 401089, Control_c, 0, 64, 83
1, 401104, Control_c, 0, 64, 71
1, 401119, Control_c, 0, 64, 62
1, 401134, Control_c, 0, 64, 49
1, 401148, Control_c, 0, 64, 0
1, 401154, Note_off_c, 0, 69, 44
1, 401326, Control_c, 0, 64, 19
1, 401341, Control_c, 0, 64, 46
1, 401356, Control_c, 0, 64, 56
1, 401371, Control_c, 0, 64, 62
1, 401385, Control_c, 0, 64, 65
1, 401400, Control_c, 0, 64, 68
1, 401423, Control_c, 0, 64, 73
1, 401438, Control_c, 0, 64, 81
1, 401452, Control_c, 0, 64, 88
1, 401464, Note_on_c, 0, 76, 87
1, 401467, Control_c, 0, 64, 93
1, 401482, Control_c, 0, 64, 100
1, 401497, Control_c, 0, 64, 115
1, 401498, Note_off_c, 0, 77, 62
1, 401512, Control_c, 0, 64, 127
1, 401933, Note_on_c, 0, 85, 85
1, 402197, Note_off_c, 0, 71, 37
1, 402213, Note_off_c, 0, 76, 31
1, 402257, Note_off_c, 0, 68, 32
1, 402543, Control_c, 0, 64, 113
1, 402557, Control_c, 0, 64, 104
1, 402572, Control_c, 0, 64, 98
1, 402587, Control_c, 0, 64, 93
1, 402602, Control_c, 0, 64, 87
1, 402606, Note_on_c, 0, 88, 79
1, 402617, Control_c, 0, 64, 81
1, 402631, Control_c, 0, 64, 77
1, 402646, Control_c, 0, 64, 74
1, 402661, Control_c, 0, 64, 72
1, 402676, Control_c, 0, 64, 70
1, 402690, Control_c, 0, 64, 68
1, 402705, Control_c, 0, 64, 66
1, 402720, Control_c, 0, 64, 64
1, 402735, Control_c, 0, 64, 62
1, 402750, Control_c, 0, 64, 59
1, 402764, Control_c, 0, 64, 56
1, 402779, Control_c, 0, 64, 53
1, 402794, Control_c, 0, 64, 48
1, 402800, Note_off_c, 0, 85, 48
1, 402809, Control_c, 0, 64, 43
1, 402824, Control_c, 0, 64, 35
1, 402839, Control_c, 0, 64, 19
1, 402853, Control_c, 0, 64, 0
1, 403366, Control_c, 0, 64, 20
1, 403381, Control_c, 0, 64, 30
1, 403396, Control_c, 0, 64, 36
1, 403411, Control_c, 0, 64, 40
1, 403426, Control_c, 0, 64, 44
1, 403441, Control_c, 0, 64, 47
1, 403456, Control_c, 0, 64, 50
1, 403470, Control_c, 0, 64, 54
1, 403485, Control_c, 0, 64, 56
1, 403500, Control_c, 0, 64, 59
1, 403514, Control_c, 0, 64, 61
1, 403529, Control_c, 0, 64, 62
1, 403544, Control_c, 0, 64, 63
1, 403559, Control_c, 0, 64, 64
1, 403574, Control_c, 0, 64, 65
1, 403588, Control_c, 0, 64, 66
1, 403603, Control_c, 0, 64, 67
1, 403618, Control_c, 0, 64, 68
1, 403633, Control_c, 0, 64, 69
1, 403648, Control_c, 0, 64, 70
1, 403670, Control_c, 0, 64, 71
1, 403685, Control_c, 0, 64, 72
1, 403700, Control_c, 0, 64, 74
1, 403714, Control_c, 0, 64, 75
1, 403729, Control_c, 0, 64, 76
1, 403744, Control_c, 0, 64, 77
1, 403759, Control_c, 0, 64, 79
1, 403774, Control_c, 0, 64, 80
1, 403788, Control_c, 0, 64, 81
1, 403803, Control_c, 0, 64, 83
1, 403818, Control_c, 0, 64, 84
1, 403833, Control_c, 0, 64, 85
1, 403848, Control_c, 0, 64, 86
1, 403862, Control_c, 0, 64, 87
1, 403877, Control_c, 0, 64, 87
1, 404140, Note_on_c, 0, 86, 42
1, 404204, Control_c, 0, 64, 87
1, 404218, Control_c, 0, 64, 86
1, 404233, Control_c, 0, 64, 86
1, 404248, Control_c, 0, 64, 85
1, 404263, Control_c, 0, 64, 84
1, 404278, Control_c, 0, 64, 83
1, 404292, Control_c, 0, 64, 82
1, 404307, Control_c, 0, 64, 81
1, 404322, Control_c, 0, 64, 81
1, 404337, Note_off_c, 0, 88, 38
1, 404351, Control_c, 0, 64, 80
1, 404366, Control_c, 0, 64, 80
1, 404381, Control_c, 0, 64, 79
1, 404418, Control_c, 0, 64, 79
1, 404448, Control_c, 0, 64, 78
1, 404669, Control_c, 0, 64, 78
1, 404714, Control_c, 0, 64, 77
1, 404758, Control_c, 0, 64, 77
1, 404818, Control_c, 0, 64, 76
1, 404848, Control_c, 0, 64, 76
1, 404877, Control_c, 0, 64, 75
1, 404885, Note_off_c, 0, 86, 30
1, 404937, Control_c, 0, 64, 75
1, 404952, Control_c, 0, 64, 74
1, 404967, Control_c, 0, 64, 74
1, 404982, Control_c, 0, 64, 73
1, 405012, Control_c, 0, 64, 73
1, 405027, Control_c, 0, 64, 72
1, 405041, Control_c, 0, 64, 72
1, 405071, Control_c, 0, 64, 71
1, 405085, Control_c, 0, 64, 71
1, 405100, Control_c, 0, 64, 70
1, 405115, Control_c, 0, 64, 69
1, 405130, Control_c, 0, 64, 69
1, 405145, Control_c, 0, 64, 68
1, 405167, Control_c, 0, 64, 67
1, 405182, Control_c, 0, 64, 67
1, 405196, Control_c, 0, 64, 66
1, 405211, Control_c, 0, 64, 65
1, 405226, Control_c, 0, 64, 64
1, 405241, Control_c, 0, 64, 64
1, 405256, Control_c, 0, 64, 63
1, 405285, Control_c, 0, 64, 63
1, 405300, Control_c, 0, 64, 62
1, 405315, Control_c, 0, 64, 61
1, 405330, Control_c, 0, 64, 60
1, 405345, Control_c, 0, 64, 60
1, 405374, Control_c, 0, 64, 59
1, 405389, Control_c, 0, 64, 59
1, 405404, Control_c, 0, 64, 58
1, 405419, Control_c, 0, 64, 57
1, 405433, Control_c, 0, 64, 57
1, 405463, Control_c, 0, 64, 56
1, 405477, Control_c, 0, 64, 56
1, 405491, Note_on_c, 0, 40, 28
1, 405492, Control_c, 0, 64, 55
1, 405522, Control_c, 0, 64, 55
1, 405537, Control_c, 0, 64, 54
1, 405551, Control_c, 0, 64, 53
1, 405566, Control_c, 0, 64, 53
1, 405581, Control_c, 0, 64, 51
1, 405596, Control_c, 0, 64, 51
1, 405611, Control_c, 0, 64, 50
1, 405626, Control_c, 0, 64, 49
1, 405670, Control_c, 0, 64, 50
1, 405685, Control_c, 0, 64, 50
1, 405700, Control_c, 0, 64, 51
1, 405715, Control_c, 0, 64, 52
1, 405728, Note_on_c, 0, 44, 36
1, 405745, Control_c, 0, 64, 53
1, 405787, Note_off_c, 0, 40, 38
1, 405790, Control_c, 0, 64, 52
1, 405805, Control_c, 0, 64, 52
1, 405819, Control_c, 0, 64, 51
1, 405894, Control_c, 0, 64, 52
1, 405915, Control_c, 0, 64, 52
1, 405918, Note_on_c, 0, 47, 50
1, 405960, Control_c, 0, 64, 53
1, 405989, Control_c, 0, 64, 53
1, 406004, Control_c, 0, 64, 54
1, 406019, Control_c, 0, 64, 54
1, 406022, Note_off_c, 0, 44, 40
1, 406049, Control_c, 0, 64, 55
1, 406079, Control_c, 0, 64, 55
1, 406094, Note_off_c, 0, 47, 64
1, 406108, Control_c, 0, 64, 56
1, 406109, Note_on_c, 0, 52, 57
1, 406123, Control_c, 0, 64, 56
1, 406138, Control_c, 0, 64, 57
1, 406282, Note_on_c, 0, 56, 59
1, 406290, Note_off_c, 0, 52, 59
1, 406345, Control_c, 0, 64, 56
1, 406389, Control_c, 0, 64, 56
1, 406419, Control_c, 0, 64, 56
1, 406434, Control_c, 0, 64, 57
1, 406448, Control_c, 0, 64, 57
1, 406456, Note_on_c, 0, 59, 69
1, 406463, Control_c, 0, 64, 58
1, 406478, Control_c, 0, 64, 59
1, 406529, Note_off_c, 0, 56, 39
1, 406598, Control_c, 0, 64, 58
1, 406643, Note_on_c, 0, 62, 70
1, 406660, Note_off_c, 0, 59, 64
1, 406753, Control_c, 0, 64, 58
1, 406812, Control_c, 0, 64, 57
1, 406838, Note_on_c, 0, 65, 71
1, 406857, Control_c, 0, 64, 57
1, 406872, Control_c, 0, 64, 56
1, 406878, Note_off_c, 0, 62, 53
1, 406887, Control_c, 0, 64, 56
1, 406902, Control_c, 0, 64, 55
1, 406916, Control_c, 0, 64, 55
1, 406931, Control_c, 0, 64, 54
1, 406946, Control_c, 0, 64, 54
1, 406961, Control_c, 0, 64, 53
1, 406976, Control_c, 0, 64, 53
1, 406991, Control_c, 0, 64, 51
1, 407006, Control_c, 0, 64, 50
1, 407021, Control_c, 0, 64, 50
1, 407027, Note_on_c, 0, 64, 72
1, 407051, Control_c, 0, 64, 49
1, 407095, Control_c, 0, 64, 49
1, 407097, Note_off_c, 0, 65, 54
1, 407110, Control_c, 0, 64, 48
1, 407139, Control_c, 0, 64, 48
1, 407204, Note_on_c, 0, 62, 75
1, 407211, Note_off_c, 0, 64, 65
1, 407213, Control_c, 0, 64, 47
1, 407228, Control_c, 0, 64, 47
1, 407272, Control_c, 0, 64, 46
1, 407347, Control_c, 0, 64, 46
1, 407377, Control_c, 0, 64, 45
1, 407390, Note_on_c, 0, 60, 64
1, 407392, Control_c, 0, 64, 45
1, 407429, Control_c, 0, 64, 44
1, 407432, Note_off_c, 0, 62, 59
1, 407444, Control_c, 0, 64, 44
1, 407474, Control_c, 0, 64, 43
1, 407488, Control_c, 0, 64, 43
1, 407518, Control_c, 0, 64, 42
1, 407533, Control_c, 0, 64, 41
1, 407562, Control_c, 0, 64, 40
1, 407577, Control_c, 0, 64, 40
1, 407583, Note_on_c, 0, 59, 62
1, 407592, Control_c, 0, 64, 39
1, 407607, Control_c, 0, 64, 38
1, 407617, Note_off_c, 0, 60, 58
1, 407622, Control_c, 0, 64, 37
1, 407636, Control_c, 0, 64, 36
1, 407651, Control_c, 0, 64, 34
1, 407666, Control_c, 0, 64, 33
1, 407680, Control_c, 0, 64, 31
1, 407695, Control_c, 0, 64, 29
1, 407709, Control_c, 0, 64, 26
1, 407724, Control_c, 0, 64, 24
1, 407739, Control_c, 0, 64, 22
1, 407753, Control_c, 0, 64, 19
1, 407761, Note_off_c, 0, 59, 61
1, 407764, Note_on_c, 0, 57, 60
1, 407768, Control_c, 0, 64, 17
1, 407783, Control_c, 0, 64, 12
1, 407798, Control_c, 0, 64, 8
1, 407813, Control_c, 0, 64, 0
1, 407934, Note_on_c, 0, 56, 48
1, 407939, Note_off_c, 0, 57, 52
1, 408109, Control_c, 0, 64, 8
1, 408115, Note_off_c, 0, 56, 62
1, 408124, Control_c, 0, 64, 12
1, 408130, Note_on_c, 0, 53, 50
1, 408139, Control_c, 0, 64, 15
1, 408162, Control_c, 0, 64, 19
1, 408176, Control_c, 0, 64, 23
1, 408191, Control_c, 0, 64, 26
1, 408206, Control_c, 0, 64, 31
1, 408221, Control_c, 0, 64, 34
1, 408236, Control_c, 0, 64, 36
1, 408250, Control_c, 0, 64, 41
1, 408265, Control_c, 0, 64, 45
1, 408280, Control_c, 0, 64, 48
1, 408295, Control_c, 0, 64, 50
1, 408309, Control_c, 0, 64, 51
1, 408324, Control_c, 0, 64, 52
1, 408326, Note_on_c, 0, 52, 49
1, 408331, Note_on_c, 0, 76, 60
1, 408339, Control_c, 0, 64, 53
1, 408354, Control_c, 0, 64, 54
1, 408369, Control_c, 0, 64, 56
1, 408371, Note_off_c, 0, 53, 29
1, 408383, Control_c, 0, 64, 57
1, 408398, Control_c, 0, 64, 58
1, 408413, Control_c, 0, 64, 58
1, 408428, Control_c, 0, 64, 59
1, 408443, Control_c, 0, 64, 60
1, 408458, Control_c, 0, 64, 61
1, 408472, Control_c, 0, 64, 61
1, 408511, Note_on_c, 0, 50, 43
1, 408559, Note_off_c, 0, 52, 36
1, 408576, Control_c, 0, 64, 61
1, 408606, Control_c, 0, 64, 60
1, 408621, Control_c, 0, 64, 60
1, 408635, Control_c, 0, 64, 59
1, 408646, Note_off_c, 0, 76, 60
1, 408650, Control_c, 0, 64, 59
1, 408665, Control_c, 0, 64, 58
1, 408680, Control_c, 0, 64, 57
1, 408688, Note_on_c, 0, 75, 52
1, 408695, Control_c, 0, 64, 55
1, 408701, Note_on_c, 0, 48, 45
1, 408709, Control_c, 0, 64, 54
1, 408723, Note_off_c, 0, 50, 36
1, 408724, Control_c, 0, 64, 52
1, 408739, Control_c, 0, 64, 50
1, 408741, Note_off_c, 0, 75, 58
1, 408754, Control_c, 0, 64, 48
1, 408756, Note_on_c, 0, 76, 60
1, 408769, Control_c, 0, 64, 45
1, 408783, Note_off_c, 0, 76, 67
1, 408783, Control_c, 0, 64, 40
1, 408794, Note_on_c, 0, 77, 66
1, 408798, Control_c, 0, 64, 36
1, 408813, Control_c, 0, 64, 30
1, 408827, Control_c, 0, 64, 22
1, 408842, Control_c, 0, 64, 0
1, 408854, Note_on_c, 0, 76, 68
1, 408884, Note_off_c, 0, 77, 55
1, 408985, Control_c, 0, 64, 45
1, 408985, Note_on_c, 0, 57, 50
1, 409000, Control_c, 0, 64, 53
1, 409012, Note_off_c, 0, 48, 59
1, 409014, Control_c, 0, 64, 57
1, 409029, Control_c, 0, 64, 60
1, 409044, Control_c, 0, 64, 63
1, 409058, Control_c, 0, 64, 65
1, 409073, Control_c, 0, 64, 67
1, 409088, Control_c, 0, 64, 69
1, 409103, Control_c, 0, 64, 70
1, 409118, Control_c, 0, 64, 72
1, 409132, Control_c, 0, 64, 72
1, 409147, Control_c, 0, 64, 73
1, 409159, Note_off_c, 0, 57, 52
1, 409160, Note_on_c, 0, 50, 63
1, 409251, Control_c, 0, 64, 72
1, 409265, Control_c, 0, 64, 71
1, 409280, Control_c, 0, 64, 67
1, 409295, Control_c, 0, 64, 63
1, 409310, Control_c, 0, 64, 58
1, 409325, Control_c, 0, 64, 59
1, 409340, Control_c, 0, 64, 63
1, 409351, Note_on_c, 0, 59, 48
1, 409351, Note_off_c, 0, 50, 62
1, 409352, Note_on_c, 0, 75, 73
1, 409355, Control_c, 0, 64, 65
1, 409366, Note_off_c, 0, 76, 64
1, 409370, Control_c, 0, 64, 67
1, 409385, Control_c, 0, 64, 68
1, 409399, Control_c, 0, 64, 70
1, 409444, Control_c, 0, 64, 69
1, 409458, Control_c, 0, 64, 69
1, 409473, Control_c, 0, 64, 68
1, 409488, Control_c, 0, 64, 67
1, 409503, Control_c, 0, 64, 65
1, 409518, Control_c, 0, 64, 63
1, 409532, Control_c, 0, 64, 61
1, 409546, Note_on_c, 0, 52, 43
1, 409547, Note_on_c, 0, 76, 72
1, 409547, Control_c, 0, 64, 57
1, 409562, Control_c, 0, 64, 51
1, 409572, Note_off_c, 0, 59, 36
1, 409577, Control_c, 0, 64, 40
1, 409592, Control_c, 0, 64, 0
1, 409595, Note_off_c, 0, 75, 63
1, 409733, Note_on_c, 0, 56, 50
1, 409740, Note_off_c, 0, 52, 64
1, 409748, Control_c, 0, 64, 20
1, 409763, Control_c, 0, 64, 34
1, 409778, Control_c, 0, 64, 39
1, 409793, Control_c, 0, 64, 43
1, 409808, Control_c, 0, 64, 45
1, 409823, Control_c, 0, 64, 48
1, 409837, Control_c, 0, 64, 50
1, 409852, Control_c, 0, 64, 50
1, 409881, Control_c, 0, 64, 50
1, 409896, Control_c, 0, 64, 49
1, 409926, Control_c, 0, 64, 48
1, 409941, Control_c, 0, 64, 47
1, 409955, Control_c, 0, 64, 45
1, 409958, Note_on_c, 0, 53, 30
1, 409963, Note_on_c, 0, 69, 52
1, 409970, Note_off_c, 0, 56, 37
1, 409970, Control_c, 0, 64, 41
1, 409985, Control_c, 0, 64, 36
1, 410000, Control_c, 0, 64, 28
1, 410015, Control_c, 0, 64, 15
1, 410025, Note_off_c, 0, 76, 53
1, 410029, Control_c, 0, 64, 0
1, 410192, Control_c, 0, 64, 23
1, 410201, Note_on_c, 0, 57, 33
1, 410207, Control_c, 0, 64, 34
1, 410222, Control_c, 0, 64, 37
1, 410237, Control_c, 0, 64, 38
1, 410266, Note_off_c, 0, 53, 43
1, 410266, Control_c, 0, 64, 39
1, 410281, Control_c, 0, 64, 40
1, 410296, Control_c, 0, 64, 42
1, 410311, Control_c, 0, 64, 41
1, 410326, Control_c, 0, 64, 38
1, 410341, Control_c, 0, 64, 26
1, 410355, Control_c, 0, 64, 0
1, 410386, Note_on_c, 0, 60, 47
1, 410401, Note_off_c, 0, 57, 53
1, 410479, Note_off_c, 0, 69, 56
1, 410496, Control_c, 0, 64, 21
1, 410511, Control_c, 0, 64, 31
1, 410526, Control_c, 0, 64, 40
1, 410541, Control_c, 0, 64, 47
1, 410556, Control_c, 0, 64, 52
1, 410571, Control_c, 0, 64, 54
1, 410574, Note_on_c, 0, 57, 45
1, 410586, Control_c, 0, 64, 55
1, 410604, Note_off_c, 0, 60, 49
1, 410646, Control_c, 0, 64, 56
1, 410660, Control_c, 0, 64, 56
1, 410690, Control_c, 0, 64, 56
1, 410704, Control_c, 0, 64, 54
1, 410719, Control_c, 0, 64, 51
1, 410734, Control_c, 0, 64, 44
1, 410749, Control_c, 0, 64, 28
1, 410752, Note_on_c, 0, 69, 58
1, 410762, Note_on_c, 0, 53, 37
1, 410764, Control_c, 0, 64, 0
1, 410809, Note_off_c, 0, 57, 35
1, 410822, Control_c, 0, 64, 36
1, 410837, Control_c, 0, 64, 49
1, 410852, Control_c, 0, 64, 54
1, 410867, Control_c, 0, 64, 57
1, 410882, Control_c, 0, 64, 59
1, 410896, Control_c, 0, 64, 60
1, 410911, Control_c, 0, 64, 60
1, 410962, Note_on_c, 0, 51, 44
1, 410989, Note_off_c, 0, 53, 41
1, 411000, Control_c, 0, 64, 60
1, 411006, Note_off_c, 0, 69, 59
1, 411030, Control_c, 0, 64, 59
1, 411045, Control_c, 0, 64, 58
1, 411060, Control_c, 0, 64, 58
1, 411075, Control_c, 0, 64, 56
1, 411089, Control_c, 0, 64, 54
1, 411104, Control_c, 0, 64, 53
1, 411119, Control_c, 0, 64, 52
1, 411134, Control_c, 0, 64, 51
1, 411149, Note_on_c, 0, 70, 61
1, 411152, Note_off_c, 0, 51, 55
1, 411156, Control_c, 0, 64, 49
1, 411171, Control_c, 0, 64, 47
1, 411172, Note_on_c, 0, 50, 45
1, 411185, Control_c, 0, 64, 44
1, 411200, Control_c, 0, 64, 42
1, 411215, Control_c, 0, 64, 40
1, 411230, Control_c, 0, 64, 38
1, 411245, Control_c, 0, 64, 35
1, 411260, Control_c, 0, 64, 31
1, 411275, Control_c, 0, 64, 27
1, 411289, Control_c, 0, 64, 23
1, 411304, Control_c, 0, 64, 19
1, 411319, Control_c, 0, 64, 12
1, 411334, Control_c, 0, 64, 0
1, 411354, Note_on_c, 0, 48, 52
1, 411377, Note_off_c, 0, 50, 52
1, 411548, Note_on_c, 0, 46, 60
1, 411599, Note_off_c, 0, 48, 54
1, 411730, Note_on_c, 0, 44, 56
1, 411787, Note_off_c, 0, 46, 51
1, 411915, Note_off_c, 0, 44, 62
1, 411921, Note_on_c, 0, 43, 62
1, 411938, Note_on_c, 0, 71, 69
1, 411972, Note_off_c, 0, 70, 60
1, 412107, Note_on_c, 0, 41, 56
1, 412129, Note_off_c, 0, 43, 38
1, 412292, Note_off_c, 0, 41, 49
1, 412302, Note_on_c, 0, 40, 48
1, 412305, Note_on_c, 0, 72, 60
1, 412347, Note_off_c, 0, 71, 53
1, 412501, Note_on_c, 0, 52, 57
1, 412503, Note_off_c, 0, 40, 56
1, 412701, Note_on_c, 0, 55, 63
1, 412702, Note_off_c, 0, 52, 62
1, 412715, Note_off_c, 0, 72, 59
1, 412882, Note_on_c, 0, 58, 62
1, 412927, Note_off_c, 0, 55, 62
1, 413062, Note_on_c, 0, 73, 74
1, 413071, Note_on_c, 0, 57, 57
1, 413096, Note_off_c, 0, 58, 62
1, 413158, Control_c, 0, 64, 29
1, 413173, Control_c, 0, 64, 54
1, 413188, Control_c, 0, 64, 58
1, 413203, Control_c, 0, 64, 60
1, 413217, Control_c, 0, 64, 62
1, 413232, Control_c, 0, 64, 63
1, 413251, Note_on_c, 0, 55, 64
1, 413262, Control_c, 0, 64, 63
1, 413308, Note_off_c, 0, 57, 32
1, 413321, Control_c, 0, 64, 63
1, 413351, Control_c, 0, 64, 62
1, 413365, Control_c, 0, 64, 61
1, 413380, Control_c, 0, 64, 60
1, 413402, Note_off_c, 0, 73, 38
1, 413403, Control_c, 0, 64, 59
1, 413418, Control_c, 0, 64, 57
1, 413432, Control_c, 0, 64, 55
1, 413447, Control_c, 0, 64, 53
1, 413451, Note_on_c, 0, 74, 84
1, 413462, Note_on_c, 0, 53, 55
1, 413462, Control_c, 0, 64, 50
1, 413477, Control_c, 0, 64, 48
1, 413492, Control_c, 0, 64, 43
1, 413506, Control_c, 0, 64, 33
1, 413512, Note_off_c, 0, 55, 57
1, 413521, Control_c, 0, 64, 0
1, 413645, Note_on_c, 0, 52, 70
1, 413647, Note_off_c, 0, 53, 66
1, 413832, Note_on_c, 0, 50, 69
1, 413889, Note_off_c, 0, 52, 41
1, 413982, Control_c, 0, 64, 17
1, 413996, Control_c, 0, 64, 32
1, 414003, Note_on_c, 0, 48, 74
1, 414011, Control_c, 0, 64, 40
1, 414026, Control_c, 0, 64, 45
1, 414041, Control_c, 0, 64, 48
1, 414054, Note_off_c, 0, 50, 47
1, 414056, Control_c, 0, 64, 50
1, 414071, Control_c, 0, 64, 51
1, 414130, Control_c, 0, 64, 51
1, 414152, Control_c, 0, 64, 49
1, 414167, Control_c, 0, 64, 46
1, 414182, Control_c, 0, 64, 38
1, 414187, Note_on_c, 0, 75, 78
1, 414194, Note_on_c, 0, 47, 55
1, 414196, Control_c, 0, 64, 0
1, 414199, Note_off_c, 0, 48, 61
1, 414247, Note_off_c, 0, 74, 56
1, 414315, Control_c, 0, 64, 36
1, 414330, Control_c, 0, 64, 55
1, 414345, Control_c, 0, 64, 57
1, 414360, Control_c, 0, 64, 60
1, 414364, Note_on_c, 0, 45, 64
1, 414374, Control_c, 0, 64, 62
1, 414389, Control_c, 0, 64, 63
1, 414395, Note_off_c, 0, 47, 49
1, 414419, Control_c, 0, 64, 62
1, 414434, Control_c, 0, 64, 62
1, 414447, Control_c, 0, 64, 61
1, 414462, Control_c, 0, 64, 61
1, 414477, Control_c, 0, 64, 60
1, 414492, Control_c, 0, 64, 58
1, 414507, Control_c, 0, 64, 57
1, 414523, Control_c, 0, 64, 53
1, 414538, Control_c, 0, 64, 48
1, 414542, Note_on_c, 0, 44, 52
1, 414552, Control_c, 0, 64, 41
1, 414567, Control_c, 0, 64, 26
1, 414578, Note_off_c, 0, 45, 58
1, 414581, Note_on_c, 0, 76, 73
1, 414582, Control_c, 0, 64, 0
1, 414662, Note_off_c, 0, 75, 60
1, 414744, Control_c, 0, 64, 51
1, 414759, Control_c, 0, 64, 58
1, 414766, Note_on_c, 0, 47, 61
1, 414774, Control_c, 0, 64, 58
1, 414810, Note_off_c, 0, 44, 55
1, 414819, Control_c, 0, 64, 58
1, 414863, Control_c, 0, 64, 57
1, 414900, Control_c, 0, 64, 57
1, 414915, Control_c, 0, 64, 56
1, 414930, Control_c, 0, 64, 55
1, 414944, Control_c, 0, 64, 54
1, 414954, Note_off_c, 0, 47, 63
1, 414959, Control_c, 0, 64, 52
1, 414965, Note_on_c, 0, 52, 53
1, 414970, Note_on_c, 0, 74, 75
1, 414974, Control_c, 0, 64, 50
1, 414989, Control_c, 0, 64, 46
1, 415004, Control_c, 0, 64, 40
1, 415019, Control_c, 0, 64, 35
1, 415033, Control_c, 0, 64, 28
1, 415048, Control_c, 0, 64, 19
1, 415063, Control_c, 0, 64, 18
1, 415078, Control_c, 0, 64, 30
1, 415093, Control_c, 0, 64, 43
1, 415108, Control_c, 0, 64, 47
1, 415123, Control_c, 0, 64, 49
1, 415124, Note_off_c, 0, 52, 65
1, 415138, Note_on_c, 0, 56, 50
1, 415138, Control_c, 0, 64, 49
1, 415167, Control_c, 0, 64, 49
1, 415182, Control_c, 0, 64, 48
1, 415191, Note_off_c, 0, 76, 55
1, 415256, Control_c, 0, 64, 47
1, 415270, Control_c, 0, 64, 47
1, 415285, Control_c, 0, 64, 46
1, 415300, Control_c, 0, 64, 46
1, 415316, Control_c, 0, 64, 45
1, 415324, Note_off_c, 0, 56, 56
1, 415331, Control_c, 0, 64, 44
1, 415335, Note_on_c, 0, 57, 46
1, 415346, Control_c, 0, 64, 42
1, 415351, Note_on_c, 0, 72, 61
1, 415361, Control_c, 0, 64, 42
1, 415390, Control_c, 0, 64, 41
1, 415405, Control_c, 0, 64, 41
1, 415419, Control_c, 0, 64, 39
1, 415434, Control_c, 0, 64, 37
1, 415449, Control_c, 0, 64, 34
1, 415464, Control_c, 0, 64, 33
1, 415479, Control_c, 0, 64, 32
1, 415493, Control_c, 0, 64, 31
1, 415508, Control_c, 0, 64, 29
1, 415512, Note_on_c, 0, 48, 49
1, 415512, Note_off_c, 0, 74, 55
1, 415523, Control_c, 0, 64, 26
1, 415538, Control_c, 0, 64, 17
1, 415553, Control_c, 0, 64, 0
1, 415601, Note_off_c, 0, 57, 41
1, 415606, Note_off_c, 0, 72, 64
1, 415709, Note_off_c, 0, 48, 57
1, 415712, Note_on_c, 0, 50, 46
1, 415738, Note_on_c, 0, 72, 56
1, 415892, Note_on_c, 0, 71, 55
1, 415896, Note_on_c, 0, 47, 44
1, 415917, Note_off_c, 0, 50, 39
1, 415946, Note_off_c, 0, 72, 57
1, 416089, Note_on_c, 0, 48, 38
1, 416089, Note_off_c, 0, 47, 40
1, 416094, Note_on_c, 0, 69, 55
1, 416148, Note_off_c, 0, 71, 46
1, 416263, Note_on_c, 0, 50, 47
1, 416268, Note_off_c, 0, 48, 45
1, 416334, Note_off_c, 0, 69, 58
1, 416432, Note_off_c, 0, 50, 50
1, 416458, Note_on_c, 0, 52, 45
1, 416464, Note_on_c, 0, 68, 50
1, 416638, Note_on_c, 0, 40, 43
1, 416719, Note_off_c, 0, 68, 37
1, 416774, Note_off_c, 0, 52, 29
1, 416861, Note_on_c, 0, 69, 52
1, 416868, Note_on_c, 0, 45, 28
1, 416872, Control_c, 0, 64, 43
1, 416887, Control_c, 0, 64, 47
1, 416902, Control_c, 0, 64, 49
1, 416915, Note_off_c, 0, 69, 60
1, 416917, Control_c, 0, 64, 52
1, 416932, Control_c, 0, 64, 53
1, 416947, Control_c, 0, 64, 54
1, 416963, Note_off_c, 0, 40, 41
1, 416977, Control_c, 0, 64, 53
1, 416991, Control_c, 0, 64, 52
1, 417006, Control_c, 0, 64, 52
1, 417036, Control_c, 0, 64, 51
1, 417051, Control_c, 0, 64, 49
1, 417058, Note_on_c, 0, 76, 63
1, 417065, Control_c, 0, 64, 46
1, 417080, Control_c, 0, 64, 42
1, 417095, Control_c, 0, 64, 38
1, 417110, Control_c, 0, 64, 34
1, 417125, Control_c, 0, 64, 26
1, 417147, Control_c, 0, 64, 0
1, 417243, Note_on_c, 0, 77, 58
1, 417292, Note_off_c, 0, 76, 43
1, 417390, Note_off_c, 0, 45, 38
1, 417421, Note_on_c, 0, 78, 71
1, 417483, Note_off_c, 0, 77, 59
1, 417606, Note_on_c, 0, 79, 71
1, 417607, Note_off_c, 0, 78, 66
1, 417770, Note_on_c, 0, 80, 72
1, 417852, Note_off_c, 0, 79, 48
1, 417958, Note_off_c, 0, 80, 59
1, 417975, Note_on_c, 0, 81, 55
1, 417996, Note_off_c, 0, 81, 59
1, 418024, Note_on_c, 0, 83, 56
1, 418067, Note_on_c, 0, 81, 64
1, 418086, Note_off_c, 0, 83, 41
1, 418260, Note_on_c, 0, 80, 70
1, 418289, Note_off_c, 0, 81, 62
1, 418438, Note_on_c, 0, 81, 75
1, 418474, Note_off_c, 0, 80, 62
1, 418616, Note_on_c, 0, 83, 74
1, 418660, Note_off_c, 0, 81, 56
1, 418828, Note_on_c, 0, 84, 69
1, 418876, Note_off_c, 0, 83, 60
1, 419006, Note_on_c, 0, 76, 58
1, 419045, Note_off_c, 0, 84, 50
1, 419231, Note_on_c, 0, 75, 38
1, 419264, Note_off_c, 0, 76, 33
1, 419438, Note_on_c, 0, 84, 56
1, 419546, Note_off_c, 0, 75, 46
1, 419630, Note_on_c, 0, 83, 52
1, 419680, Note_off_c, 0, 84, 54
1, 419807, Note_on_c, 0, 74, 51
1, 419809, Note_off_c, 0, 83, 60
1, 419927, Control_c, 0, 64, 23
1, 419941, Control_c, 0, 64, 51
1, 419956, Control_c, 0, 64, 55
1, 419971, Control_c, 0, 64, 59
1, 419985, Control_c, 0, 64, 62
1, 419991, Note_on_c, 0, 73, 48
1, 419991, Note_off_c, 0, 74, 57
1, 420000, Control_c, 0, 64, 63
1, 420015, Control_c, 0, 64, 64
1, 420016, Note_on_c, 0, 52, 42
1, 420030, Control_c, 0, 64, 65
1, 420045, Control_c, 0, 64, 67
1, 420059, Control_c, 0, 64, 68
1, 420074, Control_c, 0, 64, 70
1, 420089, Control_c, 0, 64, 71
1, 420105, Control_c, 0, 64, 73
1, 420120, Control_c, 0, 64, 75
1, 420143, Control_c, 0, 64, 75
1, 420181, Note_on_c, 0, 82, 58
1, 420214, Note_off_c, 0, 52, 39
1, 420269, Note_on_c, 0, 51, 47
1, 420290, Control_c, 0, 64, 75
1, 420305, Control_c, 0, 64, 73
1, 420306, Note_off_c, 0, 51, 61
1, 420313, Note_on_c, 0, 52, 68
1, 420320, Control_c, 0, 64, 71
1, 420335, Control_c, 0, 64, 67
1, 420345, Note_off_c, 0, 52, 67
1, 420350, Control_c, 0, 64, 62
1, 420358, Note_off_c, 0, 82, 55
1, 420364, Control_c, 0, 64, 53
1, 420371, Note_on_c, 0, 53, 56
1, 420379, Control_c, 0, 64, 26
1, 420383, Note_off_c, 0, 73, 31
1, 420394, Control_c, 0, 64, 0
1, 420426, Note_off_c, 0, 53, 55
1, 420428, Note_on_c, 0, 52, 64
1, 420435, Note_on_c, 0, 81, 63
1, 420647, Note_on_c, 0, 72, 54
1, 420714, Note_off_c, 0, 81, 36
1, 420815, Note_off_c, 0, 72, 64
1, 420819, Note_on_c, 0, 71, 64
1, 421025, Note_on_c, 0, 51, 55
1, 421029, Note_on_c, 0, 81, 57
1, 421087, Note_off_c, 0, 71, 36
1, 421096, Note_off_c, 0, 52, 60
1, 421219, Note_on_c, 0, 52, 61
1, 421223, Note_on_c, 0, 80, 53
1, 421233, Note_off_c, 0, 81, 48
1, 421263, Note_off_c, 0, 51, 62
1, 421395, Note_on_c, 0, 74, 47
1, 421432, Note_off_c, 0, 80, 48
1, 421606, Note_off_c, 0, 74, 62
1, 421623, Note_on_c, 0, 45, 39
1, 421624, Note_on_c, 0, 72, 44
1, 421729, Note_off_c, 0, 52, 41
1, 421826, Note_on_c, 0, 76, 53
1, 421838, Note_off_c, 0, 72, 51
1, 422018, Note_on_c, 0, 78, 55
1, 422036, Note_off_c, 0, 76, 62
1, 422110, Note_off_c, 0, 45, 43
1, 422217, Note_on_c, 0, 80, 57
1, 422242, Note_off_c, 0, 78, 49
1, 422405, Note_on_c, 0, 81, 54
1, 422415, Note_on_c, 0, 45, 35
1, 422425, Note_off_c, 0, 80, 51
1, 422536, Control_c, 0, 64, 19
1, 422551, Control_c, 0, 64, 42
1, 422566, Control_c, 0, 64, 49
1, 422571, Note_off_c, 0, 81, 51
1, 422581, Control_c, 0, 64, 54
1, 422596, Control_c, 0, 64, 57
1, 422603, Note_on_c, 0, 73, 49
1, 422610, Control_c, 0, 64, 59
1, 422625, Control_c, 0, 64, 61
1, 422640, Control_c, 0, 64, 62
1, 422655, Control_c, 0, 64, 63
1, 422743, Control_c, 0, 64, 62
1, 422758, Control_c, 0, 64, 62
1, 422773, Control_c, 0, 64, 61
1, 422785, Note_off_c, 0, 73, 51
1, 422788, Control_c, 0, 64, 60
1, 422802, Control_c, 0, 64, 58
1, 422807, Note_on_c, 0, 74, 54
1, 422813, Note_on_c, 0, 46, 40
1, 422817, Control_c, 0, 64, 56
1, 422832, Control_c, 0, 64, 52
1, 422847, Control_c, 0, 64, 49
1, 422862, Control_c, 0, 64, 46
1, 422876, Control_c, 0, 64, 39
1, 422891, Control_c, 0, 64, 29
1, 422906, Control_c, 0, 64, 0
1, 422957, Note_off_c, 0, 45, 42
1, 423000, Note_on_c, 0, 68, 57
1, 423141, Note_off_c, 0, 74, 36
1, 423190, Note_on_c, 0, 67, 61
1, 423208, Note_off_c, 0, 68, 62
1, 423368, Note_on_c, 0, 66, 66
1, 423388, Note_off_c, 0, 67, 54
1, 423551, Note_off_c, 0, 66, 64
1, 423553, Note_on_c, 0, 47, 66
1, 423559, Note_on_c, 0, 67, 61
1, 423717, Note_off_c, 0, 46, 41
1, 423735, Note_on_c, 0, 77, 63
1, 423757, Note_off_c, 0, 67, 48
1, 423940, Note_on_c, 0, 76, 61
1, 423949, Note_on_c, 0, 48, 64
1, 423949, Note_off_c, 0, 77, 53
1, 424063, Note_off_c, 0, 47, 64
1, 424146, Note_on_c, 0, 70, 62
1, 424185, Note_off_c, 0, 76, 62
1, 424326, Note_off_c, 0, 48, 59
1, 424342, Note_on_c, 0, 69, 67
1, 424353, Note_off_c, 0, 70, 61
1, 424513, Note_on_c, 0, 68, 69
1, 424539, Note_off_c, 0, 69, 61
1, 424697, Note_on_c, 0, 49, 64
1, 424706, Note_off_c, 0, 68, 63
1, 424708, Control_c, 0, 64, 26
1, 424713, Note_on_c, 0, 69, 63
1, 424723, Control_c, 0, 64, 36
1, 424738, Control_c, 0, 64, 43
1, 424753, Control_c, 0, 64, 51
1, 424768, Control_c, 0, 64, 55
1, 424782, Control_c, 0, 64, 57
1, 424797, Control_c, 0, 64, 58
1, 424812, Control_c, 0, 64, 60
1, 424827, Control_c, 0, 64, 60
1, 424842, Control_c, 0, 64, 61
1, 424856, Control_c, 0, 64, 62
1, 424871, Control_c, 0, 64, 62
1, 424886, Note_on_c, 0, 79, 71
1, 424902, Control_c, 0, 64, 63
1, 424940, Note_off_c, 0, 69, 37
1, 424946, Control_c, 0, 64, 62
1, 424960, Control_c, 0, 64, 62
1, 424975, Control_c, 0, 64, 61
1, 424990, Control_c, 0, 64, 61
1, 425005, Control_c, 0, 64, 60
1, 425019, Control_c, 0, 64, 59
1, 425034, Control_c, 0, 64, 57
1, 425049, Control_c, 0, 64, 55
1, 425064, Control_c, 0, 64, 54
1, 425079, Control_c, 0, 64, 52
1, 425085, Note_on_c, 0, 50, 71
1, 425094, Control_c, 0, 64, 49
1, 425104, Note_on_c, 0, 78, 69
1, 425109, Control_c, 0, 64, 46
1, 425123, Control_c, 0, 64, 41
1, 425138, Control_c, 0, 64, 35
1, 425153, Control_c, 0, 64, 27
1, 425157, Note_off_c, 0, 79, 53
1, 425168, Control_c, 0, 64, 0
1, 425171, Note_off_c, 0, 49, 60
1, 425295, Note_on_c, 0, 72, 68
1, 425341, Note_off_c, 0, 78, 63
1, 425360, Control_c, 0, 64, 26
1, 425383, Control_c, 0, 64, 49
1, 425398, Control_c, 0, 64, 54
1, 425412, Control_c, 0, 64, 58
1, 425427, Control_c, 0, 64, 62
1, 425442, Control_c, 0, 64, 65
1, 425457, Control_c, 0, 64, 67
1, 425472, Control_c, 0, 64, 68
1, 425475, Note_off_c, 0, 72, 65
1, 425475, Note_on_c, 0, 71, 74
1, 425486, Control_c, 0, 64, 69
1, 425501, Control_c, 0, 64, 70
1, 425516, Control_c, 0, 64, 71
1, 425530, Control_c, 0, 64, 72
1, 425643, Note_on_c, 0, 70, 79
1, 425664, Note_off_c, 0, 71, 59
1, 425664, Control_c, 0, 64, 71
1, 425678, Control_c, 0, 64, 71
1, 425693, Control_c, 0, 64, 70
1, 425709, Control_c, 0, 64, 69
1, 425724, Control_c, 0, 64, 68
1, 425739, Control_c, 0, 64, 68
1, 425753, Control_c, 0, 64, 66
1, 425768, Control_c, 0, 64, 65
1, 425783, Control_c, 0, 64, 63
1, 425798, Control_c, 0, 64, 61
1, 425807, Note_on_c, 0, 51, 74
1, 425807, Note_off_c, 0, 70, 63
1, 425812, Note_on_c, 0, 71, 74
1, 425813, Control_c, 0, 64, 56
1, 425827, Control_c, 0, 64, 42
1, 425842, Control_c, 0, 64, 0
1, 425884, Note_off_c, 0, 50, 58
1, 425946, Control_c, 0, 64, 50
1, 425961, Control_c, 0, 64, 60
1, 425976, Control_c, 0, 64, 63
1, 425991, Control_c, 0, 64, 65
1, 426006, Note_on_c, 0, 81, 80
1, 426006, Control_c, 0, 64, 65
1, 426018, Note_off_c, 0, 71, 54
1, 426021, Control_c, 0, 64, 66
1, 426035, Control_c, 0, 64, 66
1, 426050, Control_c, 0, 64, 67
1, 426161, Control_c, 0, 64, 66
1, 426176, Control_c, 0, 64, 66
1, 426191, Control_c, 0, 64, 65
1, 426206, Control_c, 0, 64, 64
1, 426221, Control_c, 0, 64, 63
1, 426223, Note_on_c, 0, 52, 70
1, 426233, Note_on_c, 0, 80, 77
1, 426235, Control_c, 0, 64, 62
1, 426250, Control_c, 0, 64, 59
1, 426265, Control_c, 0, 64, 57
1, 426279, Note_off_c, 0, 51, 59
1, 426279, Control_c, 0, 64, 53
1, 426285, Note_off_c, 0, 81, 55
1, 426294, Control_c, 0, 64, 48
1, 426309, Control_c, 0, 64, 39
1, 426324, Control_c, 0, 64, 0
1, 426435, Note_on_c, 0, 76, 82
1, 426457, Control_c, 0, 64, 44
1, 426468, Note_off_c, 0, 80, 64
1, 426471, Control_c, 0, 64, 59
1, 426486, Control_c, 0, 64, 62
1, 426503, Control_c, 0, 64, 64
1, 426518, Control_c, 0, 64, 65
1, 426532, Control_c, 0, 64, 66
1, 426547, Control_c, 0, 64, 67
1, 426562, Control_c, 0, 64, 68
1, 426613, Note_on_c, 0, 83, 81
1, 426661, Note_off_c, 0, 76, 62
1, 426665, Control_c, 0, 64, 66
1, 426680, Control_c, 0, 64, 64
1, 426695, Control_c, 0, 64, 61
1, 426710, Control_c, 0, 64, 59
1, 426725, Control_c, 0, 64, 55
1, 426739, Control_c, 0, 64, 49
1, 426754, Control_c, 0, 64, 46
1, 426769, Control_c, 0, 64, 51
1, 426784, Control_c, 0, 64, 60
1, 426799, Control_c, 0, 64, 64
1, 426805, Note_on_c, 0, 74, 65
1, 426814, Control_c, 0, 64, 67
1, 426829, Control_c, 0, 64, 69
1, 426843, Control_c, 0, 64, 70
1, 426897, Note_off_c, 0, 83, 53
1, 426969, Control_c, 0, 64, 70
1, 426984, Control_c, 0, 64, 69
1, 426999, Control_c, 0, 64, 68
1, 427003, Note_on_c, 0, 72, 66
1, 427014, Control_c, 0, 64, 67
1, 427020, Note_on_c, 0, 53, 49
1, 427029, Control_c, 0, 64, 65
1, 427044, Control_c, 0, 64, 61
1, 427058, Control_c, 0, 64, 56
1, 427058, Note_off_c, 0, 74, 59
1, 427070, Note_off_c, 0, 52, 45
1, 427073, Control_c, 0, 64, 50
1, 427088, Control_c, 0, 64, 40
1, 427102, Control_c, 0, 64, 17
1, 427117, Control_c, 0, 64, 0
1, 427162, Control_c, 0, 64, 43
1, 427177, Control_c, 0, 64, 54
1, 427192, Control_c, 0, 64, 59
1, 427204, Note_on_c, 0, 81, 67
1, 427207, Control_c, 0, 64, 63
1, 427222, Control_c, 0, 64, 65
1, 427237, Control_c, 0, 64, 67
1, 427251, Control_c, 0, 64, 68
1, 427264, Note_off_c, 0, 72, 38
1, 427266, Control_c, 0, 64, 69
1, 427416, Note_on_c, 0, 77, 58
1, 427418, Note_on_c, 0, 62, 38
1, 427428, Note_on_c, 0, 50, 36
1, 427430, Control_c, 0, 64, 68
1, 427440, Note_off_c, 0, 53, 31
1, 427445, Control_c, 0, 64, 67
1, 427460, Control_c, 0, 64, 65
1, 427470, Note_off_c, 0, 62, 0
1, 427470, Note_on_c, 0, 62, 8
1, 427474, Control_c, 0, 64, 62
1, 427489, Control_c, 0, 64, 59
1, 427504, Control_c, 0, 64, 53
1, 427518, Control_c, 0, 64, 35
1, 427520, Note_off_c, 0, 81, 31
1, 427533, Control_c, 0, 64, 0
1, 427607, Control_c, 0, 64, 46
1, 427630, Control_c, 0, 64, 59
1, 427645, Control_c, 0, 64, 63
1, 427660, Control_c, 0, 64, 65
1, 427661, Note_on_c, 0, 71, 48
1, 427672, Note_off_c, 0, 77, 60
1, 427674, Control_c, 0, 64, 66
1, 427689, Note_off_c, 0, 62, 43
1, 427689, Control_c, 0, 64, 67
1, 427719, Control_c, 0, 64, 67
1, 427807, Control_c, 0, 64, 67
1, 427822, Control_c, 0, 64, 66
1, 427837, Control_c, 0, 64, 65
1, 427852, Control_c, 0, 64, 63
1, 427857, Note_off_c, 0, 50, 35
1, 427859, Note_on_c, 0, 76, 51
1, 427866, Note_off_c, 0, 71, 52
1, 427867, Control_c, 0, 64, 60
1, 427876, Note_on_c, 0, 52, 28
1, 427877, Note_on_c, 0, 60, 29
1, 427881, Control_c, 0, 64, 54
1, 427896, Control_c, 0, 64, 44
1, 427911, Control_c, 0, 64, 33
1, 427926, Control_c, 0, 64, 27
1, 427941, Control_c, 0, 64, 34
1, 427956, Control_c, 0, 64, 48
1, 427971, Control_c, 0, 64, 57
1, 427985, Control_c, 0, 64, 62
1, 428000, Control_c, 0, 64, 64
1, 428015, Control_c, 0, 64, 65
1, 428030, Control_c, 0, 64, 65
1, 428045, Control_c, 0, 64, 66
1, 428052, Note_off_c, 0, 76, 60
1, 428059, Control_c, 0, 64, 66
1, 428061, Note_on_c, 0, 69, 52
1, 428074, Control_c, 0, 64, 67
1, 428084, Note_off_c, 0, 52, 57
1, 428085, Note_off_c, 0, 60, 47
1, 428135, Control_c, 0, 64, 66
1, 428164, Control_c, 0, 64, 66
1, 428179, Control_c, 0, 64, 65
1, 428194, Control_c, 0, 64, 64
1, 428209, Control_c, 0, 64, 61
1, 428223, Control_c, 0, 64, 55
1, 428235, Note_on_c, 0, 74, 47
1, 428238, Note_on_c, 0, 52, 41
1, 428238, Control_c, 0, 64, 42
1, 428244, Note_on_c, 0, 59, 45
1, 428248, Note_off_c, 0, 69, 40
1, 428253, Control_c, 0, 64, 10
1, 428268, Control_c, 0, 64, 0
1, 428312, Control_c, 0, 64, 17
1, 428327, Control_c, 0, 64, 51
1, 428341, Control_c, 0, 64, 60
1, 428356, Control_c, 0, 64, 64
1, 428379, Control_c, 0, 64, 65
1, 428399, Note_off_c, 0, 59, 59
1, 428411, Note_off_c, 0, 74, 62
1, 428429, Note_on_c, 0, 68, 48
1, 428512, Control_c, 0, 64, 64
1, 428527, Control_c, 0, 64, 64
1, 428556, Control_c, 0, 64, 63
1, 428571, Control_c, 0, 64, 63
1, 428586, Control_c, 0, 64, 62
1, 428601, Control_c, 0, 64, 61
1, 428616, Control_c, 0, 64, 60
1, 428630, Control_c, 0, 64, 59
1, 428645, Control_c, 0, 64, 58
1, 428660, Control_c, 0, 64, 56
1, 428673, Note_on_c, 0, 69, 46
1, 428674, Control_c, 0, 64, 53
1, 428683, Note_on_c, 0, 57, 29
1, 428689, Control_c, 0, 64, 49
1, 428692, Note_on_c, 0, 60, 23
1, 428704, Control_c, 0, 64, 41
1, 428719, Control_c, 0, 64, 27
1, 428731, Note_off_c, 0, 68, 39
1, 428734, Control_c, 0, 64, 0
1, 428777, Note_off_c, 0, 69, 53
1, 428825, Note_on_c, 0, 64, 47
1, 428862, Note_off_c, 0, 64, 58
1, 428930, Note_on_c, 0, 66, 53
1, 428972, Note_off_c, 0, 66, 59
1, 429022, Note_off_c, 0, 52, 35
1, 429029, Note_on_c, 0, 68, 55
1, 429064, Note_off_c, 0, 68, 66
1, 429145, Note_on_c, 0, 69, 59
1, 429193, Note_off_c, 0, 69, 57
1, 429246, Note_on_c, 0, 71, 65
1, 429306, Note_off_c, 0, 71, 55
1, 429335, Note_off_c, 0, 60, 35
1, 429354, Note_on_c, 0, 72, 60
1, 429360, Note_off_c, 0, 57, 32
1, 429383, Note_off_c, 0, 72, 67
1, 429452, Note_on_c, 0, 74, 61
1, 429488, Note_off_c, 0, 74, 60
1, 429551, Note_on_c, 0, 75, 60
1, 429582, Note_off_c, 0, 75, 68
1, 429673, Note_on_c, 0, 76, 56
1, 429791, Note_on_c, 0, 77, 60
1, 429837, Note_off_c, 0, 76, 37
1, 429908, Note_on_c, 0, 75, 61
1, 429923, Note_off_c, 0, 77, 59
1, 430026, Note_on_c, 0, 76, 68
1, 430043, Note_off_c, 0, 75, 60
1, 430144, Note_on_c, 0, 77, 74
1, 430190, Note_off_c, 0, 76, 54
1, 430250, Note_on_c, 0, 75, 72
1, 430272, Note_off_c, 0, 77, 60
1, 430369, Note_on_c, 0, 76, 78
1, 430475, Note_off_c, 0, 75, 27
1, 430477, Note_on_c, 0, 77, 80
1, 430559, Note_off_c, 0, 76, 48
1, 430584, Note_on_c, 0, 75, 81
1, 430633, Note_off_c, 0, 77, 61
1, 430719, Note_on_c, 0, 57, 43
1, 430720, Note_on_c, 0, 60, 44
1, 430729, Note_on_c, 0, 52, 47
1, 430735, Note_on_c, 0, 76, 72
1, 430784, Note_off_c, 0, 75, 65
1, 430883, Note_off_c, 0, 76, 60
1, 430890, Note_on_c, 0, 81, 67
1, 430980, Note_off_c, 0, 81, 46
1, 431005, Note_on_c, 0, 79, 69
1, 431053, Note_off_c, 0, 79, 55
1, 431112, Note_on_c, 0, 77, 65
1, 431140, Note_off_c, 0, 77, 63
1, 431214, Note_on_c, 0, 76, 61
1, 431251, Note_off_c, 0, 76, 63
1, 431321, Note_on_c, 0, 74, 61
1, 431347, Note_off_c, 0, 74, 70
1, 431430, Note_on_c, 0, 72, 62
1, 431458, Note_off_c, 0, 72, 67
1, 431530, Note_off_c, 0, 57, 61
1, 431535, Note_on_c, 0, 71, 63
1, 431551, Note_off_c, 0, 60, 59
1, 431572, Note_off_c, 0, 71, 63
1, 431637, Note_on_c, 0, 69, 55
1, 431658, Note_off_c, 0, 69, 63
1, 431749, Note_on_c, 0, 68, 55
1, 431759, Note_on_c, 0, 59, 38
1, 431771, Note_on_c, 0, 62, 38
1, 431882, Note_on_c, 0, 66, 55
1, 431928, Note_off_c, 0, 68, 53
1, 431968, Note_off_c, 0, 66, 63
1, 431992, Note_on_c, 0, 64, 51
1, 432086, Note_off_c, 0, 64, 59
1, 432105, Note_on_c, 0, 63, 52
1, 432200, Note_off_c, 0, 63, 62
1, 432222, Note_on_c, 0, 64, 51
1, 432343, Note_on_c, 0, 65, 46
1, 432355, Note_off_c, 0, 64, 38
1, 432457, Note_on_c, 0, 66, 50
1, 432471, Note_off_c, 0, 62, 44
1, 432502, Note_off_c, 0, 65, 37
1, 432534, Note_off_c, 0, 66, 65
1, 432569, Note_on_c, 0, 67, 49
1, 432683, Note_on_c, 0, 68, 43
1, 432700, Note_off_c, 0, 67, 38
1, 432803, Note_off_c, 0, 68, 61
1, 432808, Note_on_c, 0, 69, 48
1, 432824, Note_on_c, 0, 60, 32
1, 432826, Note_on_c, 0, 57, 37
1, 432852, Note_off_c, 0, 69, 65
1, 432886, Note_off_c, 0, 59, 34
1, 432999, Note_on_c, 0, 76, 61
1, 433033, Note_off_c, 0, 76, 65
1, 433129, Note_on_c, 0, 78, 44
1, 433153, Note_off_c, 0, 78, 61
1, 433235, Note_on_c, 0, 80, 58
1, 433269, Note_off_c, 0, 80, 64
1, 433336, Note_on_c, 0, 81, 60
1, 433369, Note_off_c, 0, 81, 59
1, 433437, Note_on_c, 0, 83, 71
1, 433470, Note_off_c, 0, 52, 30
1, 433477, Note_off_c, 0, 83, 58
1, 433480, Note_off_c, 0, 57, 37
1, 433517, Note_off_c, 0, 60, 28
1, 433544, Note_on_c, 0, 84, 68
1, 433576, Note_off_c, 0, 84, 65
1, 433660, Note_on_c, 0, 86, 65
1, 433691, Note_off_c, 0, 86, 63
1, 433767, Note_on_c, 0, 87, 71
1, 433805, Note_off_c, 0, 87, 60
1, 433882, Note_on_c, 0, 88, 70
1, 434007, Note_on_c, 0, 89, 77
1, 434047, Note_off_c, 0, 88, 61
1, 434129, Note_on_c, 0, 87, 81
1, 434154, Note_off_c, 0, 89, 64
1, 434237, Note_on_c, 0, 88, 82
1, 434282, Note_off_c, 0, 87, 57
1, 434349, Note_on_c, 0, 89, 80
1, 434406, Note_off_c, 0, 88, 56
1, 434466, Note_on_c, 0, 87, 81
1, 434501, Note_off_c, 0, 89, 64
1, 434578, Note_on_c, 0, 88, 80
1, 434620, Note_off_c, 0, 87, 58
1, 434690, Note_on_c, 0, 89, 80
1, 434743, Note_off_c, 0, 88, 50
1, 434800, Note_on_c, 0, 87, 83
1, 434842, Note_off_c, 0, 89, 63
1, 434971, Note_on_c, 0, 88, 76
1, 434982, Note_on_c, 0, 52, 53
1, 434982, Note_on_c, 0, 60, 45
1, 434982, Note_on_c, 0, 57, 47
1, 435008, Note_off_c, 0, 87, 60
1, 435080, Control_c, 0, 64, 41
1, 435095, Control_c, 0, 64, 58
1, 435116, Control_c, 0, 64, 64
1, 435125, Note_off_c, 0, 88, 55
1, 435131, Control_c, 0, 64, 67
1, 435146, Control_c, 0, 64, 70
1, 435161, Control_c, 0, 64, 73
1, 435176, Control_c, 0, 64, 75
1, 435182, Note_on_c, 0, 84, 77
1, 435190, Control_c, 0, 64, 77
1, 435205, Control_c, 0, 64, 78
1, 435220, Control_c, 0, 64, 78
1, 435316, Note_on_c, 0, 83, 81
1, 435340, Note_off_c, 0, 84, 60
1, 435354, Control_c, 0, 64, 78
1, 435369, Control_c, 0, 64, 76
1, 435384, Control_c, 0, 64, 71
1, 435399, Control_c, 0, 64, 63
1, 435413, Control_c, 0, 64, 46
1, 435428, Control_c, 0, 64, 0
1, 435432, Note_on_c, 0, 84, 84
1, 435454, Note_off_c, 0, 83, 60
1, 435487, Control_c, 0, 64, 45
1, 435502, Control_c, 0, 64, 59
1, 435517, Control_c, 0, 64, 64
1, 435531, Control_c, 0, 64, 67
1, 435540, Note_off_c, 0, 84, 64
1, 435544, Note_on_c, 0, 81, 79
1, 435546, Control_c, 0, 64, 70
1, 435561, Control_c, 0, 64, 73
1, 435576, Control_c, 0, 64, 76
1, 435591, Control_c, 0, 64, 77
1, 435644, Note_on_c, 0, 80, 79
1, 435649, Note_off_c, 0, 81, 58
1, 435664, Control_c, 0, 64, 74
1, 435679, Control_c, 0, 64, 68
1, 435694, Control_c, 0, 64, 60
1, 435709, Control_c, 0, 64, 52
1, 435724, Control_c, 0, 64, 57
1, 435727, Note_off_c, 0, 60, 61
1, 435739, Control_c, 0, 64, 62
1, 435752, Note_on_c, 0, 81, 82
1, 435754, Control_c, 0, 64, 65
1, 435769, Control_c, 0, 64, 68
1, 435775, Note_off_c, 0, 80, 63
1, 435783, Note_off_c, 0, 52, 60
1, 435784, Control_c, 0, 64, 73
1, 435784, Note_off_c, 0, 57, 62
1, 435798, Control_c, 0, 64, 77
1, 435813, Control_c, 0, 64, 78
1, 435828, Control_c, 0, 64, 79
1, 435867, Note_on_c, 0, 76, 76
1, 435887, Note_off_c, 0, 81, 56
1, 435983, Note_on_c, 0, 75, 73
1, 435999, Note_off_c, 0, 76, 47
1, 436043, Control_c, 0, 64, 78
1, 436057, Control_c, 0, 64, 77
1, 436072, Control_c, 0, 64, 75
1, 436088, Control_c, 0, 64, 74
1, 436102, Control_c, 0, 64, 72
1, 436105, Note_on_c, 0, 40, 58
1, 436117, Note_on_c, 0, 76, 76
1, 436117, Control_c, 0, 64, 69
1, 436130, Note_off_c, 0, 75, 65
1, 436132, Control_c, 0, 64, 65
1, 436147, Control_c, 0, 64, 62
1, 436162, Control_c, 0, 64, 58
1, 436177, Control_c, 0, 64, 49
1, 436192, Control_c, 0, 64, 23
1, 436207, Control_c, 0, 64, 0
1, 436268, Note_on_c, 0, 72, 75
1, 436292, Note_off_c, 0, 76, 57
1, 436295, Control_c, 0, 64, 45
1, 436310, Control_c, 0, 64, 58
1, 436325, Control_c, 0, 64, 63
1, 436340, Control_c, 0, 64, 64
1, 436354, Control_c, 0, 64, 65
1, 436369, Control_c, 0, 64, 66
1, 436386, Note_off_c, 0, 72, 66
1, 436388, Note_on_c, 0, 69, 73
1, 436399, Control_c, 0, 64, 66
1, 436429, Control_c, 0, 64, 67
1, 436502, Control_c, 0, 64, 66
1, 436517, Control_c, 0, 64, 65
1, 436518, Note_on_c, 0, 72, 79
1, 436521, Note_off_c, 0, 69, 64
1, 436532, Control_c, 0, 64, 65
1, 436547, Control_c, 0, 64, 64
1, 436562, Control_c, 0, 64, 63
1, 436576, Control_c, 0, 64, 59
1, 436591, Control_c, 0, 64, 50
1, 436613, Control_c, 0, 64, 32
1, 436628, Control_c, 0, 64, 0
1, 436657, Note_on_c, 0, 69, 68
1, 436673, Control_c, 0, 64, 36
1, 436687, Control_c, 0, 64, 53
1, 436702, Control_c, 0, 64, 60
1, 436714, Note_off_c, 0, 72, 58
1, 436717, Control_c, 0, 64, 63
1, 436732, Control_c, 0, 64, 64
1, 436747, Control_c, 0, 64, 65
1, 436761, Control_c, 0, 64, 66
1, 436771, Note_on_c, 0, 64, 79
1, 436776, Control_c, 0, 64, 67
1, 436797, Note_off_c, 0, 69, 63
1, 436866, Control_c, 0, 64, 66
1, 436881, Control_c, 0, 64, 62
1, 436894, Note_off_c, 0, 40, 63
1, 436896, Note_on_c, 0, 71, 77
1, 436896, Control_c, 0, 64, 49
1, 436910, Control_c, 0, 64, 37
1, 436925, Control_c, 0, 64, 45
1, 436940, Control_c, 0, 64, 56
1, 436955, Control_c, 0, 64, 62
1, 436970, Control_c, 0, 64, 65
1, 436971, Note_off_c, 0, 64, 58
1, 436985, Control_c, 0, 64, 68
1, 437000, Control_c, 0, 64, 70
1, 437015, Control_c, 0, 64, 71
1, 437021, Note_on_c, 0, 68, 75
1, 437074, Note_off_c, 0, 71, 58
1, 437131, Note_off_c, 0, 68, 66
1, 437135, Note_on_c, 0, 62, 76
1, 437177, Control_c, 0, 64, 71
1, 437207, Control_c, 0, 64, 70
1, 437222, Control_c, 0, 64, 69
1, 437236, Control_c, 0, 64, 69
1, 437251, Control_c, 0, 64, 68
1, 437266, Control_c, 0, 64, 67
1, 437281, Control_c, 0, 64, 66
1, 437296, Control_c, 0, 64, 64
1, 437297, Note_on_c, 0, 45, 52
1, 437299, Note_on_c, 0, 69, 70
1, 437310, Control_c, 0, 64, 61
1, 437316, Note_on_c, 0, 60, 51
1, 437325, Control_c, 0, 64, 56
1, 437340, Control_c, 0, 64, 49
1, 437346, Note_off_c, 0, 62, 36
1, 437363, Control_c, 0, 64, 31
1, 437378, Control_c, 0, 64, 0
1, 437436, Control_c, 0, 64, 36
1, 437451, Control_c, 0, 64, 55
1, 437466, Control_c, 0, 64, 61
1, 437474, Note_on_c, 0, 48, 60
1, 437481, Control_c, 0, 64, 65
1, 437496, Control_c, 0, 64, 68
1, 437510, Control_c, 0, 64, 71
1, 437525, Control_c, 0, 64, 74
1, 437533, Note_off_c, 0, 45, 57
1, 437540, Control_c, 0, 64, 77
1, 437555, Control_c, 0, 64, 81
1, 437570, Control_c, 0, 64, 90
1, 437584, Control_c, 0, 64, 96
1, 437596, Note_on_c, 0, 52, 71
1, 437599, Control_c, 0, 64, 97
1, 437614, Control_c, 0, 64, 97
1, 437629, Control_c, 0, 64, 98
1, 437688, Note_off_c, 0, 48, 50
1, 437733, Note_on_c, 0, 57, 74
1, 437739, Note_off_c, 0, 60, 55
1, 437774, Note_off_c, 0, 52, 67
1, 437792, Note_off_c, 0, 69, 38
1, 437882, Note_on_c, 0, 52, 63
1, 437998, Note_on_c, 0, 48, 67
1, 438018, Note_off_c, 0, 52, 61
1, 438127, Note_on_c, 0, 45, 71
1, 438141, Note_off_c, 0, 48, 60
1, 438268, Note_on_c, 0, 48, 76
1, 438285, Note_off_c, 0, 45, 64
1, 438372, Note_on_c, 0, 52, 79
1, 438378, Note_off_c, 0, 48, 62
1, 438408, Control_c, 0, 64, 97
1, 438423, Control_c, 0, 64, 95
1, 438438, Control_c, 0, 64, 93
1, 438452, Control_c, 0, 64, 90
1, 438467, Control_c, 0, 64, 87
1, 438470, Note_on_c, 0, 45, 75
1, 438483, Control_c, 0, 64, 78
1, 438486, Note_off_c, 0, 52, 65
1, 438498, Control_c, 0, 64, 68
1, 438513, Control_c, 0, 64, 54
1, 438528, Control_c, 0, 64, 0
1, 438602, Control_c, 0, 64, 12
1, 438617, Control_c, 0, 64, 64
1, 438618, Note_on_c, 0, 50, 72
1, 438631, Control_c, 0, 64, 74
1, 438639, Note_off_c, 0, 57, 62
1, 438645, Note_off_c, 0, 45, 60
1, 438646, Control_c, 0, 64, 79
1, 438661, Control_c, 0, 64, 81
1, 438675, Control_c, 0, 64, 85
1, 438690, Control_c, 0, 64, 94
1, 438705, Control_c, 0, 64, 106
1, 438720, Note_on_c, 0, 53, 78
1, 438720, Control_c, 0, 64, 127
1, 438817, Note_off_c, 0, 50, 41
1, 438824, Control_c, 0, 64, 110
1, 438839, Control_c, 0, 64, 90
1, 438854, Note_on_c, 0, 58, 78
1, 438861, Control_c, 0, 64, 72
1, 438876, Control_c, 0, 64, 60
1, 438887, Note_off_c, 0, 53, 66
1, 438890, Control_c, 0, 64, 0
1, 438950, Control_c, 0, 64, 43
1, 438964, Control_c, 0, 64, 51
1, 438979, Control_c, 0, 64, 59
1, 438994, Control_c, 0, 64, 66
1, 439009, Control_c, 0, 64, 75
1, 439011, Note_on_c, 0, 53, 53
1, 439024, Control_c, 0, 64, 85
1, 439039, Control_c, 0, 64, 92
1, 439054, Control_c, 0, 64, 102
1, 439068, Control_c, 0, 64, 127
1, 439077, Note_off_c, 0, 53, 64
1, 439105, Note_on_c, 0, 50, 52
1, 439210, Note_off_c, 0, 50, 60
1, 439212, Note_on_c, 0, 45, 62
1, 439337, Note_off_c, 0, 45, 39
1, 439340, Note_on_c, 0, 50, 63
1, 439435, Note_on_c, 0, 53, 68
1, 439439, Note_off_c, 0, 50, 62
1, 439525, Note_off_c, 0, 53, 64
1, 439558, Note_on_c, 0, 45, 58
1, 439587, Control_c, 0, 64, 101
1, 439609, Control_c, 0, 64, 78
1, 439624, Control_c, 0, 64, 63
1, 439638, Control_c, 0, 64, 0
1, 439680, Note_on_c, 0, 48, 60
1, 439736, Note_off_c, 0, 45, 53
1, 439742, Control_c, 0, 64, 60
1, 439757, Control_c, 0, 64, 70
1, 439772, Control_c, 0, 64, 77
1, 439781, Note_off_c, 0, 58, 57
1, 439787, Control_c, 0, 64, 80
1, 439795, Note_on_c, 0, 52, 63
1, 439802, Control_c, 0, 64, 84
1, 439817, Control_c, 0, 64, 89
1, 439831, Control_c, 0, 64, 92
1, 439846, Control_c, 0, 64, 93
1, 439873, Note_off_c, 0, 48, 45
1, 439876, Control_c, 0, 64, 89
1, 439891, Control_c, 0, 64, 74
1, 439905, Control_c, 0, 64, 62
1, 439913, Note_on_c, 0, 57, 58
1, 439914, Note_off_c, 0, 52, 64
1, 439920, Control_c, 0, 64, 19
1, 439935, Control_c, 0, 64, 0
1, 439950, Control_c, 0, 64, 15
1, 439965, Control_c, 0, 64, 49
1, 439979, Control_c, 0, 64, 60
1, 439994, Control_c, 0, 64, 67
1, 440009, Control_c, 0, 64, 72
1, 440023, Control_c, 0, 64, 77
1, 440038, Control_c, 0, 64, 80
1, 440053, Control_c, 0, 64, 83
1, 440055, Note_on_c, 0, 52, 52
1, 440068, Control_c, 0, 64, 87
1, 440084, Control_c, 0, 64, 89
1, 440099, Control_c, 0, 64, 90
1, 440178, Note_on_c, 0, 48, 40
1, 440186, Note_off_c, 0, 52, 37
1, 440247, Control_c, 0, 64, 88
1, 440261, Control_c, 0, 64, 82
1, 440276, Control_c, 0, 64, 72
1, 440291, Control_c, 0, 64, 63
1, 440292, Note_on_c, 0, 76, 56
1, 440306, Control_c, 0, 64, 54
1, 440312, Note_off_c, 0, 48, 38
1, 440320, Control_c, 0, 64, 51
1, 440324, Note_on_c, 0, 45, 41
1, 440335, Control_c, 0, 64, 54
1, 440358, Control_c, 0, 64, 61
1, 440373, Control_c, 0, 64, 66
1, 440388, Control_c, 0, 64, 71
1, 440402, Control_c, 0, 64, 77
1, 440417, Control_c, 0, 64, 85
1, 440432, Control_c, 0, 64, 88
1, 440447, Control_c, 0, 64, 88
1, 440449, Note_on_c, 0, 48, 51
1, 440480, Note_off_c, 0, 45, 33
1, 440535, Control_c, 0, 67, 11
1, 440550, Control_c, 0, 67, 15
1, 440553, Note_on_c, 0, 52, 47
1, 440565, Control_c, 0, 67, 17
1, 440572, Note_off_c, 0, 48, 36
1, 440580, Control_c, 0, 67, 19
1, 440595, Control_c, 0, 64, 88
1, 440595, Control_c, 0, 67, 20
1, 440606, Note_off_c, 0, 76, 38
1, 440610, Control_c, 0, 64, 86
1, 440610, Control_c, 0, 67, 21
1, 440625, Control_c, 0, 64, 80
1, 440625, Control_c, 0, 67, 23
1, 440639, Control_c, 0, 64, 73
1, 440639, Control_c, 0, 67, 25
1, 440652, Note_on_c, 0, 75, 49
1, 440654, Control_c, 0, 64, 66
1, 440654, Control_c, 0, 67, 26
1, 440669, Control_c, 0, 64, 59
1, 440669, Control_c, 0, 67, 28
1, 440680, Note_on_c, 0, 45, 30
1, 440684, Control_c, 0, 64, 28
1, 440684, Control_c, 0, 67, 29
1, 440688, Note_off_c, 0, 52, 36
1, 440698, Note_off_c, 0, 75, 62
1, 440699, Control_c, 0, 64, 0
1, 440699, Control_c, 0, 67, 29
1, 440708, Note_on_c, 0, 76, 60
1, 440714, Control_c, 0, 67, 30
1, 440729, Control_c, 0, 67, 32
1, 440735, Note_off_c, 0, 76, 66
1, 440744, Control_c, 0, 67, 34
1, 440750, Note_on_c, 0, 77, 61
1, 440759, Control_c, 0, 67, 36
1, 440773, Control_c, 0, 67, 37
1, 440780, Note_off_c, 0, 57, 41
1, 440788, Control_c, 0, 67, 39
1, 440803, Control_c, 0, 67, 42
1, 440812, Note_on_c, 0, 76, 58
1, 440818, Control_c, 0, 67, 45
1, 440833, Control_c, 0, 67, 47
1, 440847, Control_c, 0, 67, 48
1, 440861, Note_off_c, 0, 77, 52
1, 440862, Control_c, 0, 67, 49
1, 440878, Control_c, 0, 67, 51
1, 440890, Note_on_c, 0, 47, 53
1, 440893, Control_c, 0, 67, 53
1, 440908, Control_c, 0, 67, 55
1, 440923, Control_c, 0, 64, 51
1, 440923, Control_c, 0, 67, 56
1, 440935, Note_off_c, 0, 45, 42
1, 440938, Control_c, 0, 64, 61
1, 440938, Control_c, 0, 67, 56
1, 440952, Control_c, 0, 64, 64
1, 440952, Control_c, 0, 67, 57
1, 440967, Control_c, 0, 64, 66
1, 440982, Control_c, 0, 64, 68
1, 440996, Control_c, 0, 64, 71
1, 441011, Control_c, 0, 64, 76
1, 441022, Note_on_c, 0, 50, 44
1, 441026, Control_c, 0, 64, 80
1, 441041, Control_c, 0, 64, 83
1, 441056, Control_c, 0, 64, 85
1, 441062, Note_off_c, 0, 47, 58
1, 441071, Control_c, 0, 64, 87
1, 441085, Control_c, 0, 64, 90
1, 441107, Control_c, 0, 64, 92
1, 441109, Note_off_c, 0, 50, 59
1, 441113, Note_on_c, 0, 56, 51
1, 441122, Control_c, 0, 64, 93
1, 441167, Control_c, 0, 64, 94
1, 441182, Control_c, 0, 64, 95
1, 441197, Control_c, 0, 64, 95
1, 441211, Control_c, 0, 64, 96
1, 441247, Note_on_c, 0, 50, 48
1, 441354, Note_off_c, 0, 76, 54
1, 441358, Note_on_c, 0, 47, 47
1, 441359, Note_on_c, 0, 75, 58
1, 441370, Note_off_c, 0, 50, 34
1, 441389, Control_c, 0, 64, 95
1, 441389, Control_c, 0, 67, 56
1, 441418, Control_c, 0, 64, 94
1, 441433, Control_c, 0, 64, 90
1, 441448, Control_c, 0, 64, 83
1, 441462, Note_off_c, 0, 47, 49
1, 441463, Control_c, 0, 64, 76
1, 441477, Control_c, 0, 64, 69
1, 441486, Note_on_c, 0, 45, 46
1, 441492, Control_c, 0, 64, 62
1, 441504, Note_off_c, 0, 75, 59
1, 441506, Note_on_c, 0, 76, 56
1, 441507, Control_c, 0, 64, 46
1, 441522, Control_c, 0, 64, 0
1, 441566, Control_c, 0, 64, 41
1, 441581, Control_c, 0, 64, 56
1, 441596, Control_c, 0, 64, 62
1, 441611, Control_c, 0, 64, 65
1, 441614, Note_on_c, 0, 47, 40
1, 441626, Control_c, 0, 64, 68
1, 441635, Note_off_c, 0, 45, 36
1, 441641, Control_c, 0, 64, 69
1, 441656, Control_c, 0, 64, 70
1, 441671, Control_c, 0, 64, 70
1, 441686, Control_c, 0, 67, 56
1, 441701, Control_c, 0, 64, 71
1, 441707, Note_off_c, 0, 56, 37
1, 441721, Note_on_c, 0, 50, 38
1, 441745, Control_c, 0, 67, 55
1, 441760, Control_c, 0, 67, 55
1, 441775, Control_c, 0, 67, 54
1, 441776, Note_off_c, 0, 47, 29
1, 441790, Control_c, 0, 67, 54
1, 441805, Control_c, 0, 67, 53
1, 441819, Control_c, 0, 64, 70
1, 441819, Control_c, 0, 67, 53
1, 441834, Control_c, 0, 67, 52
1, 441856, Control_c, 0, 64, 70
1, 441856, Control_c, 0, 67, 51
1, 441871, Control_c, 0, 64, 69
1, 441871, Control_c, 0, 67, 50
1, 441886, Control_c, 0, 64, 66
1, 441886, Control_c, 0, 67, 49
1, 441900, Control_c, 0, 64, 64
1, 441900, Control_c, 0, 67, 48
1, 441913, Note_off_c, 0, 76, 37
1, 441915, Control_c, 0, 64, 62
1, 441915, Control_c, 0, 67, 48
1, 441928, Note_on_c, 0, 69, 46
1, 441930, Control_c, 0, 64, 57
1, 441930, Control_c, 0, 67, 47
1, 441932, Note_off_c, 0, 50, 38
1, 441944, Note_on_c, 0, 45, 33
1, 441945, Control_c, 0, 64, 46
1, 441945, Control_c, 0, 67, 45
1, 441960, Control_c, 0, 64, 0
1, 441960, Control_c, 0, 67, 42
1, 441975, Control_c, 0, 67, 38
1, 441990, Control_c, 0, 67, 33
1, 442005, Control_c, 0, 67, 27
1, 442020, Control_c, 0, 67, 18
1, 442034, Control_c, 0, 64, 35
1, 442034, Control_c, 0, 67, 8
1, 442049, Control_c, 0, 64, 50
1, 442049, Control_c, 0, 67, 0
1, 442064, Control_c, 0, 64, 59
1, 442079, Control_c, 0, 64, 64
1, 442090, Note_on_c, 0, 48, 38
1, 442094, Control_c, 0, 64, 67
1, 442108, Control_c, 0, 64, 70
1, 442123, Control_c, 0, 64, 72
1, 442138, Control_c, 0, 64, 76
1, 442153, Note_off_c, 0, 45, 40
1, 442153, Control_c, 0, 64, 79
1, 442168, Control_c, 0, 64, 84
1, 442182, Control_c, 0, 64, 88
1, 442197, Control_c, 0, 64, 91
1, 442212, Control_c, 0, 64, 93
1, 442216, Note_off_c, 0, 69, 38
1, 442218, Note_on_c, 0, 52, 51
1, 442226, Control_c, 0, 64, 95
1, 442241, Control_c, 0, 64, 97
1, 442256, Control_c, 0, 64, 98
1, 442271, Control_c, 0, 64, 99
1, 442286, Control_c, 0, 64, 99
1, 442296, Note_off_c, 0, 48, 36
1, 442300, Control_c, 0, 64, 100
1, 442320, Note_on_c, 0, 57, 61
1, 442330, Control_c, 0, 64, 100
1, 442339, Note_off_c, 0, 52, 64
1, 442374, Control_c, 0, 64, 101
1, 442460, Note_on_c, 0, 52, 59
1, 442568, Note_on_c, 0, 48, 60
1, 442655, Note_off_c, 0, 52, 35
1, 442691, Note_on_c, 0, 45, 68
1, 442714, Note_off_c, 0, 48, 56
1, 442828, Note_on_c, 0, 48, 74
1, 442848, Note_off_c, 0, 45, 62
1, 442929, Note_on_c, 0, 52, 76
1, 442933, Note_off_c, 0, 48, 62
1, 442990, Control_c, 0, 64, 100
1, 443005, Control_c, 0, 64, 99
1, 443020, Control_c, 0, 64, 97
1, 443032, Note_on_c, 0, 45, 76
1, 443035, Control_c, 0, 64, 93
1, 443049, Control_c, 0, 64, 88
1, 443053, Note_off_c, 0, 52, 57
1, 443064, Control_c, 0, 64, 81
1, 443079, Control_c, 0, 64, 72
1, 443094, Control_c, 0, 64, 62
1, 443109, Control_c, 0, 64, 26
1, 443123, Control_c, 0, 64, 0
1, 443162, Note_on_c, 0, 50, 67
1, 443182, Control_c, 0, 64, 44
1, 443197, Control_c, 0, 64, 62
1, 443212, Note_off_c, 0, 45, 57
1, 443212, Control_c, 0, 64, 71
1, 443226, Note_off_c, 0, 57, 64
1, 443227, Control_c, 0, 64, 81
1, 443242, Control_c, 0, 64, 87
1, 443257, Control_c, 0, 64, 93
1, 443272, Control_c, 0, 64, 109
1, 443273, Note_on_c, 0, 53, 75
1, 443287, Control_c, 0, 64, 127
1, 443379, Note_off_c, 0, 50, 55
1, 443400, Note_on_c, 0, 58, 80
1, 443443, Control_c, 0, 64, 106
1, 443458, Control_c, 0, 64, 85
1, 443471, Note_off_c, 0, 53, 62
1, 443472, Control_c, 0, 64, 70
1, 443487, Control_c, 0, 64, 59
1, 443502, Control_c, 0, 64, 0
1, 443544, Note_on_c, 0, 53, 53
1, 443591, Control_c, 0, 64, 41
1, 443605, Control_c, 0, 64, 57
1, 443620, Control_c, 0, 64, 63
1, 443635, Control_c, 0, 64, 67
1, 443649, Note_on_c, 0, 50, 59
1, 443650, Control_c, 0, 64, 72
1, 443665, Control_c, 0, 64, 80
1, 443679, Control_c, 0, 64, 91
1, 443691, Note_off_c, 0, 53, 48
1, 443694, Control_c, 0, 64, 101
1, 443709, Control_c, 0, 64, 106
1, 443724, Control_c, 0, 64, 112
1, 443739, Control_c, 0, 64, 127
1, 443757, Note_off_c, 0, 50, 61
1, 443769, Note_on_c, 0, 45, 60
1, 443867, Note_off_c, 0, 45, 60
1, 443873, Note_on_c, 0, 50, 63
1, 443976, Note_on_c, 0, 53, 69
1, 443988, Note_off_c, 0, 50, 59
1, 444058, Note_off_c, 0, 53, 64
1, 444122, Note_on_c, 0, 45, 60
1, 444162, Control_c, 0, 64, 93
1, 444176, Control_c, 0, 64, 73
1, 444191, Control_c, 0, 64, 61
1, 444206, Control_c, 0, 64, 18
1, 444220, Control_c, 0, 64, 0
1, 444243, Note_on_c, 0, 48, 57
1, 444265, Control_c, 0, 64, 21
1, 444280, Control_c, 0, 64, 48
1, 444294, Control_c, 0, 64, 59
1, 444309, Control_c, 0, 64, 65
1, 444324, Control_c, 0, 64, 71
1, 444330, Note_off_c, 0, 45, 39
1, 444339, Control_c, 0, 64, 77
1, 444342, Note_off_c, 0, 58, 58
1, 444354, Control_c, 0, 64, 81
1, 444369, Control_c, 0, 64, 85
1, 444371, Note_on_c, 0, 52, 58
1, 444383, Control_c, 0, 64, 88
1, 444399, Control_c, 0, 64, 90
1, 444451, Note_off_c, 0, 48, 34
1, 444458, Control_c, 0, 64, 88
1, 444473, Control_c, 0, 64, 81
1, 444485, Note_on_c, 0, 57, 60
1, 444485, Note_off_c, 0, 52, 62
1, 444488, Control_c, 0, 64, 70
1, 444503, Control_c, 0, 64, 59
1, 444518, Control_c, 0, 64, 0
1, 444592, Control_c, 0, 64, 43
1, 444607, Control_c, 0, 64, 58
1, 444621, Control_c, 0, 64, 63
1, 444636, Control_c, 0, 64, 68
1, 444641, Note_on_c, 0, 52, 48
1, 444651, Control_c, 0, 64, 72
1, 444666, Control_c, 0, 64, 82
1, 444681, Control_c, 0, 64, 91
1, 444695, Control_c, 0, 64, 95
1, 444710, Control_c, 0, 64, 97
1, 444725, Control_c, 0, 64, 98
1, 444740, Control_c, 0, 64, 99
1, 444754, Control_c, 0, 64, 99
1, 444769, Control_c, 0, 64, 101
1, 444778, Note_on_c, 0, 48, 55
1, 444784, Control_c, 0, 64, 102
1, 444784, Control_c, 0, 67, 8
1, 444799, Control_c, 0, 67, 11
1, 444814, Control_c, 0, 64, 102
1, 444814, Control_c, 0, 67, 15
1, 444828, Control_c, 0, 67, 19
1, 444851, Control_c, 0, 67, 23
1, 444866, Control_c, 0, 67, 25
1, 444881, Control_c, 0, 67, 27
1, 444896, Control_c, 0, 67, 30
1, 444902, Note_off_c, 0, 52, 22
1, 444911, Control_c, 0, 67, 32
1, 444926, Control_c, 0, 64, 102
1, 444926, Control_c, 0, 67, 35
1, 444940, Note_off_c, 0, 48, 36
1, 444941, Control_c, 0, 64, 98
1, 444941, Control_c, 0, 67, 37
1, 444949, Note_on_c, 0, 88, 55
1, 444950, Note_on_c, 0, 45, 44
1, 444956, Control_c, 0, 64, 90
1, 444956, Control_c, 0, 67, 38
1, 444971, Control_c, 0, 64, 79
1, 444971, Control_c, 0, 67, 38
1, 444986, Control_c, 0, 64, 68
1, 445000, Control_c, 0, 64, 60
1, 445000, Control_c, 0, 67, 39
1, 445015, Control_c, 0, 64, 46
1, 445030, Control_c, 0, 64, 42
1, 445044, Control_c, 0, 64, 53
1, 445059, Control_c, 0, 64, 61
1, 445074, Control_c, 0, 64, 64
1, 445089, Control_c, 0, 64, 66
1, 445103, Note_on_c, 0, 48, 47
1, 445104, Control_c, 0, 64, 70
1, 445118, Control_c, 0, 64, 75
1, 445121, Note_off_c, 0, 45, 37
1, 445133, Control_c, 0, 64, 80
1, 445148, Control_c, 0, 64, 82
1, 445177, Control_c, 0, 64, 82
1, 445227, Note_on_c, 0, 52, 46
1, 445279, Note_off_c, 0, 48, 30
1, 445316, Note_off_c, 0, 88, 26
1, 445355, Control_c, 0, 64, 82
1, 445370, Control_c, 0, 64, 81
1, 445381, Note_on_c, 0, 87, 47
1, 445385, Control_c, 0, 64, 80
1, 445388, Note_off_c, 0, 52, 34
1, 445400, Control_c, 0, 64, 78
1, 445415, Control_c, 0, 64, 73
1, 445416, Note_on_c, 0, 45, 35
1, 445425, Note_on_c, 0, 88, 59
1, 445430, Note_off_c, 0, 87, 46
1, 445430, Control_c, 0, 64, 67
1, 445444, Control_c, 0, 64, 62
1, 445459, Control_c, 0, 64, 48
1, 445460, Note_off_c, 0, 88, 62
1, 445474, Control_c, 0, 64, 0
1, 445481, Note_on_c, 0, 89, 51
1, 445540, Note_on_c, 0, 88, 49
1, 445552, Note_off_c, 0, 89, 59
1, 445575, Note_off_c, 0, 57, 41
1, 445629, Note_on_c, 0, 47, 40
1, 445644, Control_c, 0, 64, 45
1, 445656, Note_off_c, 0, 45, 39
1, 445659, Control_c, 0, 64, 56
1, 445674, Control_c, 0, 64, 61
1, 445689, Control_c, 0, 64, 64
1, 445704, Control_c, 0, 64, 67
1, 445719, Control_c, 0, 64, 69
1, 445734, Control_c, 0, 64, 72
1, 445749, Control_c, 0, 64, 74
1, 445764, Control_c, 0, 64, 75
1, 445790, Note_on_c, 0, 50, 37
1, 445805, Note_off_c, 0, 47, 41
1, 445823, Control_c, 0, 64, 75
1, 445838, Control_c, 0, 64, 76
1, 445878, Note_off_c, 0, 50, 45
1, 445892, Note_on_c, 0, 56, 43
1, 446044, Note_on_c, 0, 50, 37
1, 446156, Note_on_c, 0, 87, 51
1, 446163, Control_c, 0, 64, 75
1, 446178, Control_c, 0, 64, 75
1, 446179, Note_on_c, 0, 47, 36
1, 446193, Control_c, 0, 64, 74
1, 446198, Note_off_c, 0, 88, 37
1, 446208, Control_c, 0, 64, 74
1, 446234, Note_off_c, 0, 50, 22
1, 446252, Control_c, 0, 64, 73
1, 446258, Note_off_c, 0, 47, 48
1, 446267, Control_c, 0, 64, 72
1, 446282, Control_c, 0, 64, 71
1, 446293, Note_on_c, 0, 45, 40
1, 446297, Control_c, 0, 64, 68
1, 446303, Note_on_c, 0, 88, 56
1, 446312, Control_c, 0, 64, 64
1, 446327, Control_c, 0, 64, 59
1, 446348, Control_c, 0, 64, 48
1, 446363, Control_c, 0, 64, 20
1, 446378, Control_c, 0, 64, 0
1, 446383, Note_off_c, 0, 87, 36
1, 446425, Note_on_c, 0, 47, 38
1, 446437, Control_c, 0, 64, 24
1, 446452, Control_c, 0, 64, 52
1, 446463, Note_off_c, 0, 45, 34
1, 446468, Control_c, 0, 64, 60
1, 446483, Control_c, 0, 64, 62
1, 446497, Control_c, 0, 64, 64
1, 446512, Control_c, 0, 64, 65
1, 446527, Control_c, 0, 64, 67
1, 446542, Control_c, 0, 64, 67
1, 446551, Note_on_c, 0, 50, 37
1, 446557, Control_c, 0, 64, 68
1, 446601, Note_off_c, 0, 47, 38
1, 446654, Note_off_c, 0, 56, 34
1, 446689, Control_c, 0, 64, 67
1, 446733, Control_c, 0, 64, 67
1, 446763, Control_c, 0, 64, 66
1, 446792, Control_c, 0, 64, 66
1, 446807, Control_c, 0, 64, 65
1, 446822, Control_c, 0, 64, 64
1, 446837, Control_c, 0, 64, 63
1, 446852, Control_c, 0, 64, 63
1, 446867, Control_c, 0, 64, 61
1, 446870, Note_off_c, 0, 50, 34
1, 446873, Note_on_c, 0, 81, 45
1, 446877, Note_on_c, 0, 57, 27
1, 446881, Control_c, 0, 64, 59
1, 446889, Note_on_c, 0, 45, 28
1, 446896, Control_c, 0, 64, 55
1, 446900, Note_on_c, 0, 48, 32
1, 446911, Control_c, 0, 64, 51
1, 446926, Control_c, 0, 64, 47
1, 446940, Control_c, 0, 64, 31
1, 446955, Control_c, 0, 64, 0
1, 446970, Control_c, 0, 67, 38
1, 446992, Note_off_c, 0, 88, 32
1, 447096, Control_c, 0, 64, 30
1, 447096, Control_c, 0, 67, 38
1, 447111, Control_c, 0, 64, 54
1, 447126, Control_c, 0, 64, 59
1, 447140, Control_c, 0, 64, 61
1, 447155, Control_c, 0, 64, 62
1, 447169, Note_off_c, 0, 81, 55
1, 447170, Control_c, 0, 64, 63
1, 447170, Control_c, 0, 67, 38
1, 447187, Note_off_c, 0, 45, 42
1, 447197, Note_off_c, 0, 57, 38
1, 447216, Note_off_c, 0, 48, 39
1, 447244, Control_c, 0, 64, 63
1, 447244, Control_c, 0, 67, 39
1, 447259, Control_c, 0, 64, 62
1, 447290, Control_c, 0, 64, 61
1, 447305, Control_c, 0, 64, 59
1, 447305, Control_c, 0, 67, 39
1, 447319, Control_c, 0, 64, 56
1, 447334, Control_c, 0, 64, 52
1, 447349, Control_c, 0, 64, 51
1, 447363, Control_c, 0, 64, 49
1, 447378, Control_c, 0, 64, 44
1, 447378, Control_c, 0, 67, 40
1, 447394, Control_c, 0, 64, 34
1, 447409, Control_c, 0, 64, 0
1, 447424, Control_c, 0, 67, 40
1, 447438, Control_c, 0, 67, 41
1, 447542, Control_c, 0, 67, 41
1, 447557, Control_c, 0, 67, 42
1, 447571, Control_c, 0, 67, 48
1, 447586, Control_c, 0, 67, 51
1, 447601, Control_c, 0, 67, 53
1, 447616, Control_c, 0, 64, 17
1, 447616, Control_c, 0, 67, 55
1, 447631, Control_c, 0, 64, 29
1, 447645, Control_c, 0, 64, 34
1, 447660, Control_c, 0, 64, 39
1, 447675, Control_c, 0, 64, 43
1, 447690, Control_c, 0, 64, 46
1, 447705, Control_c, 0, 64, 50
1, 447719, Control_c, 0, 64, 54
1, 447734, Control_c, 0, 64, 57
1, 447749, Control_c, 0, 64, 59
1, 447764, Control_c, 0, 64, 60
1, 447779, Control_c, 0, 64, 61
1, 447794, Control_c, 0, 64, 61
1, 447809, Control_c, 0, 64, 62
1, 447823, Control_c, 0, 64, 63
1, 447845, Control_c, 0, 64, 64
1, 447845, Control_c, 0, 67, 54
1, 447860, Control_c, 0, 67, 54
1, 447890, Control_c, 0, 64, 64
1, 447905, Control_c, 0, 64, 65
1, 447919, Control_c, 0, 64, 65
1, 447949, Control_c, 0, 67, 53
1, 447964, Control_c, 0, 64, 66
1, 447978, Control_c, 0, 64, 66
1, 447993, Control_c, 0, 67, 53
1, 448023, Control_c, 0, 67, 52
1, 448038, Control_c, 0, 64, 67
1, 448076, Note_on_c, 0, 68, 35
1, 448076, Note_on_c, 0, 76, 36
1, 448081, Note_on_c, 0, 52, 26
1, 448093, Note_on_c, 0, 62, 19
1, 448113, Control_c, 0, 67, 52
1, 448128, Control_c, 0, 67, 51
1, 448157, Control_c, 0, 67, 51
1, 448172, Control_c, 0, 64, 66
1, 448172, Control_c, 0, 67, 50
1, 448187, Control_c, 0, 64, 66
1, 448187, Control_c, 0, 67, 49
1, 448202, Control_c, 0, 67, 49
1, 448217, Control_c, 0, 67, 48
1, 448232, Control_c, 0, 64, 65
1, 448232, Control_c, 0, 67, 48
1, 448247, Control_c, 0, 64, 64
1, 448247, Control_c, 0, 67, 47
1, 448259, Note_off_c, 0, 62, 39
1, 448262, Control_c, 0, 64, 64
1, 448262, Control_c, 0, 67, 46
1, 448271, Note_off_c, 0, 76, 51
1, 448277, Control_c, 0, 64, 63
1, 448277, Control_c, 0, 67, 45
1, 448291, Note_off_c, 0, 52, 44
1, 448291, Control_c, 0, 64, 63
1, 448291, Control_c, 0, 67, 44
1, 448306, Control_c, 0, 64, 62
1, 448306, Control_c, 0, 67, 43
1, 448312, Note_off_c, 0, 68, 49
1, 448321, Control_c, 0, 64, 61
1, 448321, Control_c, 0, 67, 41
1, 448336, Control_c, 0, 64, 59
1, 448336, Control_c, 0, 67, 37
1, 448351, Control_c, 0, 64, 55
1, 448351, Control_c, 0, 67, 33
1, 448366, Control_c, 0, 64, 48
1, 448366, Control_c, 0, 67, 26
1, 448381, Control_c, 0, 64, 34
1, 448381, Control_c, 0, 67, 20
1, 448395, Control_c, 0, 64, 0
1, 448395, Control_c, 0, 67, 10
1, 448410, Control_c, 0, 67, 0
1, 448773, Control_c, 0, 64, 14
1, 448787, Control_c, 0, 64, 21
1, 448802, Control_c, 0, 64, 28
1, 448817, Control_c, 0, 64, 33
1, 448832, Control_c, 0, 64, 37
1, 448847, Control_c, 0, 64, 40
1, 448863, Control_c, 0, 64, 44
1, 448878, Control_c, 0, 64, 46
1, 448892, Control_c, 0, 64, 48
1, 448907, Control_c, 0, 64, 50
1, 448922, Control_c, 0, 64, 52
1, 448937, Control_c, 0, 64, 53
1, 448952, Control_c, 0, 64, 55
1, 448966, Control_c, 0, 64, 56
1, 448981, Control_c, 0, 64, 58
1, 448996, Control_c, 0, 64, 59
1, 449010, Control_c, 0, 64, 60
1, 449025, Control_c, 0, 64, 60
1, 449040, Control_c, 0, 64, 61
1, 449055, Control_c, 0, 64, 62
1, 449070, Control_c, 0, 64, 62
1, 449084, Control_c, 0, 64, 63
1, 449099, Control_c, 0, 64, 63
1, 449114, Control_c, 0, 64, 64
1, 449129, Control_c, 0, 64, 64
1, 449159, Control_c, 0, 64, 65
1, 449189, Control_c, 0, 64, 65
1, 449218, Control_c, 0, 64, 66
1, 449248, Control_c, 0, 64, 66
1, 449278, Control_c, 0, 64, 67
1, 449344, Control_c, 0, 64, 67
1, 449373, Control_c, 0, 64, 68
1, 449424, Note_on_c, 0, 69, 34
1, 449433, Control_c, 0, 64, 68
1, 449439, Note_on_c, 0, 57, 25
1, 449446, Note_on_c, 0, 60, 22
1, 449611, Note_off_c, 0, 57, 41
1, 449614, Note_off_c, 0, 60, 41
1, 449646, Note_off_c, 0, 69, 38
1, 449714, Control_c, 0, 64, 68
1, 449729, Control_c, 0, 64, 67
1, 449744, Control_c, 0, 64, 66
1, 449758, Control_c, 0, 64, 65
1, 449803, Control_c, 0, 64, 64
1, 449818, Control_c, 0, 64, 63
1, 449833, Control_c, 0, 64, 62
1, 449847, Control_c, 0, 64, 61
1, 449862, Control_c, 0, 64, 59
1, 449877, Control_c, 0, 64, 57
1, 449892, Control_c, 0, 64, 56
1, 449907, Control_c, 0, 64, 51
1, 449922, Control_c, 0, 64, 44
1, 449937, Control_c, 0, 64, 34
1, 449952, Control_c, 0, 64, 14
1, 449966, Control_c, 0, 64, 0
1, 450041, End_track
0, 0, End_of_file
