0, 0, Header, 0, 1, 384
1, 0, Start_track
1, 0, Title_t, "Ondine--Chaoyin Cai             "
1, 0, Text_t, "2009 Piano-e-Competition audition round"
1, 0, Text_t, "captured January 2009"
1, 0, Text_t, "http://www.piano-e-competition.com/"
1, 0, Text_t, "File processed for distribution by software from Zenph Studios, Inc., http://www.zenph.com"
1, 0, Instrument_name_t, "Yamaha Disklavier Pro Mark IV concert grand piano, model DCFIIISM4PRO"
1, 0, Sequencer_specific, 39, 67, 113, 0, 1, 0, 1, 0, 79, 110, 100, 105, 110, 101, 44, 32, 82, 97, 118, 101, 108, 32, 32, 32, 67, 104, 97, 111, 121, 105, 110, 32, 67, 97, 105, 32, 32, 32, 32, 32
1, 0, Sequencer_specific, 6, 67, 113, 0, 0, 0, 69
1, 0, System_exclusive, 21, 67, 113, 126, 21, 0, 2, 2, 0, 3, 14, 1, 4, 1, 13, 13, 10, 11, 9, 2, 7, 247
1, 0, Sequencer_specific, 5, 67, 123, 12, 2, 1
1, 0, Tempo, 512820
1, 0, Time_signature, 4, 2, 24, 8
1, 0, System_exclusive, 5, 126, 127, 9, 1, 247
1, 1, System_exclusive, 8, 67, 16, 76, 0, 0, 126, 0, 247
1, 2, System_exclusive, 8, 67, 16, 76, 8, 9, 7, 1, 247
1, 3, Control_c, 0, 0, 0
1, 3, Control_c, 1, 0, 0
1, 3, Control_c, 2, 0, 0
1, 3, Control_c, 3, 0, 0
1, 3, Control_c, 4, 0, 0
1, 3, Control_c, 5, 0, 0
1, 3, Control_c, 6, 0, 0
1, 3, Control_c, 7, 0, 0
1, 3, Control_c, 8, 0, 0
1, 3, Control_c, 9, 0, 127
1, 3, Control_c, 10, 0, 0
1, 3, Control_c, 11, 0, 0
1, 3, Control_c, 12, 0, 0
1, 3, Control_c, 13, 0, 0
1, 3, Control_c, 14, 0, 0
1, 3, Control_c, 15, 0, 0
1, 4, Control_c, 0, 32, 0
1, 4, Control_c, 1, 32, 0
1, 4, Control_c, 2, 32, 0
1, 4, Control_c, 3, 32, 0
1, 4, Control_c, 4, 32, 0
1, 4, Control_c, 5, 32, 0
1, 4, Control_c, 6, 32, 0
1, 4, Control_c, 7, 32, 0
1, 4, Control_c, 8, 32, 0
1, 4, Control_c, 9, 32, 0
1, 4, Control_c, 10, 32, 0
1, 4, Control_c, 11, 32, 0
1, 4, Control_c, 12, 32, 0
1, 4, Control_c, 13, 32, 0
1, 4, Control_c, 14, 32, 0
1, 4, Control_c, 15, 32, 0
1, 5, Program_c, 0, 0
1, 5, Program_c, 1, 0
1, 5, Program_c, 2, 0
1, 5, Program_c, 3, 0
1, 5, Program_c, 4, 0
1, 5, Program_c, 5, 0
1, 5, Program_c, 6, 0
1, 5, Program_c, 7, 0
1, 5, Program_c, 8, 0
1, 5, Program_c, 9, 0
1, 5, Program_c, 10, 0
1, 5, Program_c, 11, 0
1, 5, Program_c, 12, 0
1, 5, Program_c, 13, 0
1, 5, Program_c, 14, 0
1, 5, Program_c, 15, 0
1, 6, Control_c, 0, 7, 100
1, 6, Control_c, 1, 7, 100
1, 6, Control_c, 2, 7, 100
1, 6, Control_c, 3, 7, 100
1, 6, Control_c, 4, 7, 100
1, 6, Control_c, 5, 7, 100
1, 6, Control_c, 6, 7, 100
1, 6, Control_c, 7, 7, 100
1, 6, Control_c, 8, 7, 100
1, 6, Control_c, 9, 7, 100
1, 6, Control_c, 10, 7, 100
1, 6, Control_c, 11, 7, 100
1, 6, Control_c, 12, 7, 100
1, 6, Control_c, 13, 7, 100
1, 6, Control_c, 14, 7, 100
1, 6, Control_c, 15, 7, 100
1, 117, Control_c, 0, 64, 10
1, 117, Control_c, 0, 67, 15
1, 229, Control_c, 0, 64, 21
1, 229, Control_c, 0, 67, 31
1, 341, Control_c, 0, 64, 31
1, 341, Control_c, 0, 67, 46
1, 452, Control_c, 0, 64, 43
1, 452, Control_c, 0, 67, 63
1, 564, Control_c, 0, 64, 52
1, 564, Control_c, 0, 67, 77
1, 676, Control_c, 0, 64, 64
1, 676, Control_c, 0, 67, 94
1, 787, Control_c, 0, 64, 73
1, 787, Control_c, 0, 67, 108
1, 899, Control_c, 0, 64, 86
1, 899, Control_c, 0, 67, 127
1, 1141, Note_on_c, 0, 80, 22
1, 1142, Note_on_c, 0, 73, 20
1, 1147, Note_on_c, 0, 77, 27
1, 1160, Control_c, 0, 64, 87
1, 1324, Control_c, 0, 64, 87
1, 1343, Note_off_c, 0, 73, 42
1, 1349, Note_off_c, 0, 80, 40
1, 1353, Control_c, 0, 64, 88
1, 1355, Note_on_c, 0, 81, 38
1, 1381, Note_off_c, 0, 77, 41
1, 1382, Control_c, 0, 64, 88
1, 1412, Control_c, 0, 64, 89
1, 1428, Control_c, 0, 64, 90
1, 1443, Control_c, 0, 64, 90
1, 1466, Control_c, 0, 64, 91
1, 1480, Control_c, 0, 64, 91
1, 1495, Control_c, 0, 64, 92
1, 1510, Control_c, 0, 64, 93
1, 1525, Note_on_c, 0, 80, 34
1, 1525, Control_c, 0, 64, 93
1, 1529, Note_off_c, 0, 81, 44
1, 1534, Note_on_c, 0, 73, 23
1, 1534, Note_on_c, 0, 77, 38
1, 1554, Control_c, 0, 64, 94
1, 1569, Control_c, 0, 64, 94
1, 1581, Note_off_c, 0, 80, 42
1, 1583, Note_off_c, 0, 77, 45
1, 1599, Control_c, 0, 64, 95
1, 1613, Control_c, 0, 64, 96
1, 1624, Note_off_c, 0, 73, 0
1, 1628, Control_c, 0, 64, 97
1, 1641, Note_on_c, 0, 73, 34
1, 1643, Control_c, 0, 64, 98
1, 1644, Note_on_c, 0, 77, 39
1, 1649, Note_on_c, 0, 80, 35
1, 1658, Control_c, 0, 64, 99
1, 1695, Note_off_c, 0, 73, 45
1, 1702, Control_c, 0, 64, 99
1, 1716, Note_off_c, 0, 80, 52
1, 1717, Control_c, 0, 64, 100
1, 1764, Note_on_c, 0, 81, 46
1, 1811, Note_off_c, 0, 81, 57
1, 1814, Note_off_c, 0, 77, 0
1, 1833, Note_on_c, 0, 77, 31
1, 1847, Note_on_c, 0, 73, 35
1, 1848, Note_on_c, 0, 80, 51
1, 1888, Note_off_c, 0, 73, 47
1, 1889, Note_off_c, 0, 80, 60
1, 1924, Note_off_c, 0, 77, 0
1, 1955, Note_on_c, 0, 73, 44
1, 1955, Note_on_c, 0, 77, 15
1, 1977, Note_on_c, 0, 80, 46
1, 2016, Note_off_c, 0, 80, 47
1, 2017, Note_off_c, 0, 73, 43
1, 2045, Note_on_c, 0, 81, 44
1, 2103, Note_off_c, 0, 81, 55
1, 2116, Note_off_c, 0, 77, 0
1, 2136, Note_on_c, 0, 77, 29
1, 2142, Note_on_c, 0, 80, 42
1, 2144, Note_on_c, 0, 73, 42
1, 2193, Note_off_c, 0, 73, 44
1, 2208, Note_off_c, 0, 80, 40
1, 2238, Note_on_c, 0, 81, 46
1, 2288, Note_off_c, 0, 81, 52
1, 2294, Note_off_c, 0, 77, 0
1, 2322, Note_on_c, 0, 77, 20
1, 2331, Note_on_c, 0, 73, 45
1, 2336, Note_on_c, 0, 80, 51
1, 2363, Note_off_c, 0, 73, 50
1, 2365, Note_off_c, 0, 80, 60
1, 2413, Note_off_c, 0, 77, 0
1, 2413, Note_on_c, 0, 77, 32
1, 2428, Note_on_c, 0, 73, 52
1, 2457, Note_on_c, 0, 80, 42
1, 2466, Note_off_c, 0, 73, 48
1, 2493, Note_off_c, 0, 80, 49
1, 2524, Note_on_c, 0, 81, 50
1, 2533, Note_off_c, 0, 77, 35
1, 2575, Note_off_c, 0, 81, 63
1, 2601, Note_on_c, 0, 77, 48
1, 2604, Note_on_c, 0, 80, 46
1, 2608, Note_on_c, 0, 73, 49
1, 2632, Note_off_c, 0, 80, 58
1, 2633, Note_off_c, 0, 73, 56
1, 2644, Note_off_c, 0, 77, 56
1, 2720, Note_on_c, 0, 73, 36
1, 2724, Note_on_c, 0, 80, 41
1, 2735, Note_on_c, 0, 77, 21
1, 2759, Note_off_c, 0, 73, 48
1, 2767, Note_off_c, 0, 80, 45
1, 2783, Note_on_c, 0, 81, 50
1, 2786, Note_off_c, 0, 77, 50
1, 2843, Note_off_c, 0, 81, 60
1, 2895, Note_on_c, 0, 73, 37
1, 2895, Note_on_c, 0, 77, 45
1, 2895, Note_on_c, 0, 80, 47
1, 2938, Note_off_c, 0, 80, 51
1, 2956, Note_off_c, 0, 73, 46
1, 2961, Note_off_c, 0, 77, 51
1, 2980, Note_on_c, 0, 81, 50
1, 3025, Note_off_c, 0, 81, 59
1, 3065, Note_on_c, 0, 80, 49
1, 3066, Note_on_c, 0, 73, 47
1, 3070, Note_on_c, 0, 77, 41
1, 3093, Note_off_c, 0, 80, 59
1, 3095, Note_off_c, 0, 73, 52
1, 3137, Note_off_c, 0, 77, 0
1, 3159, Note_on_c, 0, 77, 30
1, 3166, Note_on_c, 0, 73, 42
1, 3172, Note_on_c, 0, 80, 45
1, 3201, Note_off_c, 0, 73, 50
1, 3225, Note_off_c, 0, 80, 49
1, 3249, Note_off_c, 0, 77, 45
1, 3254, Note_on_c, 0, 81, 46
1, 3296, Note_off_c, 0, 81, 57
1, 3336, Note_on_c, 0, 73, 33
1, 3339, Note_on_c, 0, 77, 42
1, 3348, Note_on_c, 0, 80, 43
1, 3373, Note_off_c, 0, 80, 58
1, 3375, Note_off_c, 0, 73, 47
1, 3402, Note_off_c, 0, 77, 0
1, 3424, Note_on_c, 0, 77, 27
1, 3429, Note_on_c, 0, 73, 40
1, 3454, Note_on_c, 0, 80, 48
1, 3478, Note_off_c, 0, 73, 43
1, 3490, Note_off_c, 0, 80, 50
1, 3519, Note_on_c, 0, 81, 48
1, 3570, Note_off_c, 0, 81, 62
1, 3578, Note_off_c, 0, 77, 0
1, 3598, Note_on_c, 0, 77, 33
1, 3613, Note_on_c, 0, 80, 42
1, 3615, Note_on_c, 0, 73, 39
1, 3667, Note_off_c, 0, 80, 43
1, 3671, Note_off_c, 0, 73, 43
1, 3701, Note_on_c, 0, 81, 52
1, 3756, Note_off_c, 0, 77, 0
1, 3759, Note_off_c, 0, 81, 56
1, 3790, Note_on_c, 0, 77, 15
1, 3795, Note_on_c, 0, 73, 47
1, 3804, Note_on_c, 0, 80, 49
1, 3832, Note_off_c, 0, 73, 48
1, 3834, Note_off_c, 0, 80, 57
1, 3880, Note_off_c, 0, 77, 0
1, 3880, Note_on_c, 0, 77, 15
1, 3898, Note_on_c, 0, 73, 45
1, 3900, Note_on_c, 0, 80, 49
1, 3948, Note_off_c, 0, 73, 44
1, 3961, Note_off_c, 0, 80, 53
1, 4002, Note_on_c, 0, 81, 51
1, 4040, Note_off_c, 0, 77, 0
1, 4050, Note_off_c, 0, 81, 60
1, 4060, Note_on_c, 0, 77, 36
1, 4071, Note_on_c, 0, 73, 39
1, 4081, Note_on_c, 0, 80, 45
1, 4101, Note_off_c, 0, 73, 53
1, 4115, Note_off_c, 0, 80, 48
1, 4148, Note_off_c, 0, 77, 0
1, 4148, Note_on_c, 0, 77, 8
1, 4168, Note_on_c, 0, 80, 47
1, 4172, Note_on_c, 0, 73, 42
1, 4204, Note_off_c, 0, 73, 50
1, 4223, Note_off_c, 0, 80, 58
1, 4251, Note_on_c, 0, 81, 48
1, 4268, Note_off_c, 0, 77, 43
1, 4303, Note_off_c, 0, 81, 62
1, 4343, Note_on_c, 0, 77, 40
1, 4348, Note_on_c, 0, 80, 46
1, 4378, Poly_aftertouch_c, 0, 73, 127
1, 4385, Note_off_c, 0, 80, 49
1, 4427, Poly_aftertouch_c, 0, 73, 0
1, 4429, Note_on_c, 0, 81, 42
1, 4479, Note_off_c, 0, 81, 49
1, 4483, Note_off_c, 0, 77, 0
1, 4510, Note_on_c, 0, 77, 24
1, 4524, Note_on_c, 0, 80, 40
1, 4533, Note_on_c, 0, 73, 35
1, 4567, Note_off_c, 0, 80, 44
1, 4592, Note_off_c, 0, 73, 0
1, 4599, Note_off_c, 0, 77, 0
1, 4599, Note_on_c, 0, 77, 9
1, 4607, Note_on_c, 0, 73, 39
1, 4617, Note_on_c, 0, 80, 36
1, 4670, Note_off_c, 0, 73, 43
1, 4703, Note_off_c, 0, 80, 38
1, 4718, Note_on_c, 0, 81, 47
1, 4757, Note_off_c, 0, 77, 0
1, 4765, Note_off_c, 0, 81, 59
1, 4780, Note_on_c, 0, 77, 28
1, 4789, Note_on_c, 0, 73, 50
1, 4804, Note_on_c, 0, 80, 35
1, 4826, Note_off_c, 0, 73, 47
1, 4849, Note_off_c, 0, 80, 44
1, 4874, Note_off_c, 0, 77, 0
1, 4874, Note_on_c, 0, 77, 10
1, 4894, Note_on_c, 0, 73, 35
1, 4895, Note_on_c, 0, 80, 37
1, 4948, Note_off_c, 0, 73, 44
1, 4967, Note_off_c, 0, 80, 41
1, 4983, Note_on_c, 0, 81, 46
1, 5023, Control_c, 0, 64, 100
1, 5034, Note_off_c, 0, 81, 62
1, 5046, Note_off_c, 0, 77, 0
1, 5053, Control_c, 0, 64, 101
1, 5068, Control_c, 0, 64, 101
1, 5070, Note_on_c, 0, 73, 40
1, 5071, Note_on_c, 0, 77, 22
1, 5079, Note_on_c, 0, 80, 40
1, 5083, Control_c, 0, 64, 102
1, 5097, Control_c, 0, 64, 103
1, 5108, Note_off_c, 0, 73, 47
1, 5112, Control_c, 0, 64, 103
1, 5127, Control_c, 0, 64, 105
1, 5129, Note_off_c, 0, 80, 44
1, 5142, Control_c, 0, 64, 106
1, 5156, Control_c, 0, 64, 106
1, 5160, Note_on_c, 0, 81, 46
1, 5171, Control_c, 0, 64, 107
1, 5186, Control_c, 0, 64, 109
1, 5209, Control_c, 0, 64, 110
1, 5223, Note_off_c, 0, 81, 59
1, 5223, Control_c, 0, 64, 113
1, 5231, Note_off_c, 0, 77, 0
1, 5238, Control_c, 0, 64, 115
1, 5251, Note_on_c, 0, 73, 43
1, 5252, Note_on_c, 0, 77, 32
1, 5253, Control_c, 0, 64, 117
1, 5263, Note_on_c, 0, 80, 46
1, 5268, Control_c, 0, 64, 122
1, 5281, Note_off_c, 0, 73, 53
1, 5283, Control_c, 0, 64, 127
1, 5292, Note_off_c, 0, 80, 59
1, 5362, Note_on_c, 0, 73, 40
1, 5371, Note_on_c, 0, 80, 40
1, 5406, Note_off_c, 0, 73, 46
1, 5414, Note_off_c, 0, 80, 50
1, 5452, Note_on_c, 0, 81, 45
1, 5459, Note_off_c, 0, 77, 43
1, 5501, Note_off_c, 0, 81, 60
1, 5526, Note_on_c, 0, 73, 44
1, 5527, Note_on_c, 0, 80, 49
1, 5531, Note_on_c, 0, 77, 44
1, 5555, Note_off_c, 0, 73, 53
1, 5568, Note_off_c, 0, 80, 61
1, 5624, Note_off_c, 0, 77, 0
1, 5645, Note_on_c, 0, 80, 42
1, 5651, Note_on_c, 0, 73, 36
1, 5661, Poly_aftertouch_c, 0, 77, 127
1, 5675, Note_on_c, 0, 77, 10
1, 5692, Note_off_c, 0, 73, 48
1, 5700, Note_off_c, 0, 80, 43
1, 5725, Note_on_c, 0, 81, 42
1, 5727, Note_off_c, 0, 77, 52
1, 5914, Note_off_c, 0, 81, 48
1, 5933, Note_on_c, 0, 75, 63
1, 5987, Note_on_c, 0, 73, 31
1, 6003, Note_on_c, 0, 80, 22
1, 6025, Note_on_c, 0, 77, 13
1, 6114, Note_off_c, 0, 73, 44
1, 6131, Note_on_c, 0, 81, 41
1, 6160, Note_off_c, 0, 80, 23
1, 6191, Note_off_c, 0, 81, 56
1, 6223, Note_on_c, 0, 73, 45
1, 6226, Note_on_c, 0, 80, 37
1, 6228, Note_off_c, 0, 77, 0
1, 6228, Note_on_c, 0, 77, 11
1, 6255, Note_off_c, 0, 73, 51
1, 6317, Note_off_c, 0, 80, 0
1, 6327, Note_off_c, 0, 77, 0
1, 6327, Note_on_c, 0, 77, 20
1, 6348, Note_on_c, 0, 80, 26
1, 6360, Note_on_c, 0, 73, 22
1, 6401, Note_off_c, 0, 80, 54
1, 6402, Note_off_c, 0, 73, 53
1, 6443, Note_on_c, 0, 81, 42
1, 6451, Note_off_c, 0, 77, 43
1, 6487, Note_off_c, 0, 81, 58
1, 6503, Note_on_c, 0, 73, 48
1, 6516, Note_on_c, 0, 77, 37
1, 6539, Note_off_c, 0, 73, 52
1, 6552, Note_on_c, 0, 80, 15
1, 6593, Note_off_c, 0, 77, 0
1, 6612, Note_on_c, 0, 73, 44
1, 6614, Note_on_c, 0, 77, 35
1, 6655, Note_off_c, 0, 73, 45
1, 6676, Note_off_c, 0, 77, 54
1, 6688, Note_off_c, 0, 80, 50
1, 6724, Note_on_c, 0, 81, 37
1, 6778, Note_off_c, 0, 81, 46
1, 6801, Note_on_c, 0, 71, 64
1, 6821, Note_on_c, 0, 80, 33
1, 6852, Note_on_c, 0, 77, 25
1, 6876, Poly_aftertouch_c, 0, 73, 127
1, 6915, Note_on_c, 0, 81, 29
1, 6916, Note_off_c, 0, 80, 31
1, 6924, Poly_aftertouch_c, 0, 73, 0
1, 6938, Note_off_c, 0, 77, 36
1, 6960, Note_off_c, 0, 75, 35
1, 7001, Note_on_c, 0, 80, 32
1, 7004, Note_on_c, 0, 73, 40
1, 7005, Note_on_c, 0, 77, 31
1, 7007, Note_off_c, 0, 81, 40
1, 7040, Note_off_c, 0, 73, 48
1, 7079, Note_off_c, 0, 77, 0
1, 7088, Note_off_c, 0, 80, 0
1, 7100, Note_on_c, 0, 73, 47
1, 7103, Note_on_c, 0, 77, 31
1, 7110, Note_on_c, 0, 80, 18
1, 7152, Note_off_c, 0, 73, 42
1, 7195, Note_off_c, 0, 80, 39
1, 7216, Note_on_c, 0, 81, 47
1, 7257, Note_off_c, 0, 77, 0
1, 7261, Note_off_c, 0, 81, 59
1, 7280, Note_on_c, 0, 73, 47
1, 7280, Note_on_c, 0, 77, 22
1, 7287, Note_on_c, 0, 80, 39
1, 7311, Note_off_c, 0, 73, 49
1, 7335, Note_off_c, 0, 80, 42
1, 7371, Note_off_c, 0, 77, 0
1, 7371, Note_on_c, 0, 77, 23
1, 7371, Note_on_c, 0, 73, 46
1, 7383, Note_on_c, 0, 80, 37
1, 7409, Note_off_c, 0, 73, 48
1, 7432, Note_off_c, 0, 80, 58
1, 7478, Note_on_c, 0, 81, 39
1, 7478, Note_off_c, 0, 77, 39
1, 7517, Note_off_c, 0, 81, 51
1, 7562, Note_on_c, 0, 73, 39
1, 7562, Note_on_c, 0, 80, 41
1, 7563, Note_on_c, 0, 77, 35
1, 7600, Note_off_c, 0, 80, 50
1, 7604, Note_off_c, 0, 73, 47
1, 7634, Note_on_c, 0, 81, 39
1, 7641, Note_off_c, 0, 77, 40
1, 7697, Note_off_c, 0, 81, 56
1, 7731, Note_on_c, 0, 73, 41
1, 7747, Note_on_c, 0, 77, 42
1, 7749, Note_on_c, 0, 80, 30
1, 7764, Note_off_c, 0, 73, 49
1, 7798, Note_off_c, 0, 80, 42
1, 7806, Note_off_c, 0, 77, 0
1, 7836, Note_on_c, 0, 77, 19
1, 7846, Note_on_c, 0, 73, 36
1, 7855, Note_on_c, 0, 80, 28
1, 7895, Note_off_c, 0, 73, 43
1, 7919, Note_off_c, 0, 80, 41
1, 7942, Note_on_c, 0, 68, 52
1, 7969, Note_on_c, 0, 81, 35
1, 7982, Note_off_c, 0, 77, 38
1, 8015, Note_off_c, 0, 81, 48
1, 8045, Note_on_c, 0, 73, 37
1, 8045, Note_on_c, 0, 80, 50
1, 8053, Note_on_c, 0, 77, 29
1, 8082, Note_off_c, 0, 80, 63
1, 8086, Note_off_c, 0, 73, 47
1, 8098, Note_off_c, 0, 71, 41
1, 8107, Note_off_c, 0, 77, 44
1, 8164, Note_on_c, 0, 73, 33
1, 8176, Note_on_c, 0, 80, 48
1, 8197, Note_on_c, 0, 77, 5
1, 8214, Note_off_c, 0, 73, 47
1, 8214, Note_off_c, 0, 80, 55
1, 8245, Note_on_c, 0, 81, 43
1, 8259, Note_off_c, 0, 77, 49
1, 8299, Note_off_c, 0, 81, 61
1, 8329, Note_on_c, 0, 71, 71
1, 8333, Note_on_c, 0, 80, 46
1, 8337, Note_on_c, 0, 73, 45
1, 8358, Note_on_c, 0, 77, 45
1, 8387, Note_off_c, 0, 80, 58
1, 8402, Note_off_c, 0, 77, 56
1, 8419, Note_on_c, 0, 81, 53
1, 8436, Note_off_c, 0, 73, 35
1, 8491, Note_off_c, 0, 81, 55
1, 8492, Note_off_c, 0, 68, 54
1, 8509, Note_on_c, 0, 80, 56
1, 8512, Note_on_c, 0, 77, 55
1, 8535, Note_off_c, 0, 77, 66
1, 8539, Note_off_c, 0, 80, 65
1, 8617, Note_on_c, 0, 80, 51
1, 8619, Note_on_c, 0, 77, 38
1, 8664, Note_off_c, 0, 80, 46
1, 8670, Note_off_c, 0, 77, 47
1, 8693, Note_on_c, 0, 73, 79
1, 8712, Note_on_c, 0, 81, 50
1, 8772, Note_off_c, 0, 81, 55
1, 8797, Note_on_c, 0, 80, 48
1, 8799, Note_on_c, 0, 77, 47
1, 8825, Note_off_c, 0, 80, 61
1, 8827, Note_off_c, 0, 71, 53
1, 8865, Note_off_c, 0, 77, 0
1, 8891, Note_on_c, 0, 77, 25
1, 8911, Note_on_c, 0, 80, 51
1, 8954, Note_off_c, 0, 80, 62
1, 8960, Note_off_c, 0, 77, 47
1, 8992, Note_on_c, 0, 81, 45
1, 9171, Note_off_c, 0, 81, 49
1, 9188, Note_on_c, 0, 75, 68
1, 9189, Control_c, 0, 64, 115
1, 9204, Control_c, 0, 64, 103
1, 9213, Note_on_c, 0, 80, 39
1, 9219, Control_c, 0, 64, 91
1, 9234, Control_c, 0, 64, 79
1, 9238, Note_on_c, 0, 77, 24
1, 9249, Control_c, 0, 64, 66
1, 9264, Control_c, 0, 64, 44
1, 9279, Control_c, 0, 64, 0
1, 9305, Note_on_c, 0, 81, 29
1, 9308, Control_c, 0, 64, 15
1, 9314, Note_off_c, 0, 73, 49
1, 9323, Control_c, 0, 64, 47
1, 9325, Note_off_c, 0, 77, 34
1, 9325, Note_off_c, 0, 80, 26
1, 9338, Control_c, 0, 64, 61
1, 9353, Control_c, 0, 64, 68
1, 9368, Control_c, 0, 64, 77
1, 9383, Control_c, 0, 64, 85
1, 9397, Control_c, 0, 64, 90
1, 9413, Control_c, 0, 64, 94
1, 9420, Note_off_c, 0, 81, 37
1, 9428, Control_c, 0, 64, 96
1, 9431, Note_on_c, 0, 73, 47
1, 9433, Note_on_c, 0, 77, 36
1, 9443, Control_c, 0, 64, 98
1, 9443, Note_on_c, 0, 80, 44
1, 9457, Control_c, 0, 64, 100
1, 9465, Note_off_c, 0, 73, 50
1, 9472, Note_off_c, 0, 80, 54
1, 9472, Control_c, 0, 64, 103
1, 9484, Note_off_c, 0, 77, 44
1, 9487, Control_c, 0, 64, 107
1, 9502, Control_c, 0, 64, 113
1, 9517, Control_c, 0, 64, 118
1, 9532, Control_c, 0, 64, 127
1, 9536, Note_on_c, 0, 73, 45
1, 9538, Note_on_c, 0, 77, 35
1, 9561, Note_on_c, 0, 80, 46
1, 9579, Note_off_c, 0, 73, 46
1, 9589, Note_off_c, 0, 80, 57
1, 9618, Note_off_c, 0, 77, 41
1, 9636, Note_on_c, 0, 81, 40
1, 9680, Note_off_c, 0, 81, 48
1, 9705, Note_on_c, 0, 80, 42
1, 9713, Note_on_c, 0, 73, 41
1, 9720, Note_on_c, 0, 77, 41
1, 9736, Note_off_c, 0, 80, 56
1, 9748, Note_off_c, 0, 73, 47
1, 9803, Note_on_c, 0, 73, 40
1, 9806, Note_off_c, 0, 77, 0
1, 9806, Note_on_c, 0, 77, 19
1, 9815, Note_on_c, 0, 80, 44
1, 9840, Note_off_c, 0, 73, 48
1, 9858, Note_off_c, 0, 80, 58
1, 9884, Note_off_c, 0, 77, 44
1, 9898, Note_on_c, 0, 81, 38
1, 9952, Note_off_c, 0, 81, 51
1, 9976, Note_on_c, 0, 71, 56
1, 10011, Note_on_c, 0, 80, 30
1, 10012, Note_on_c, 0, 77, 43
1, 10021, Note_on_c, 0, 73, 26
1, 10063, Note_off_c, 0, 73, 48
1, 10072, Note_off_c, 0, 80, 43
1, 10075, Note_off_c, 0, 77, 43
1, 10084, Note_on_c, 0, 81, 39
1, 10124, Note_off_c, 0, 75, 42
1, 10145, Note_off_c, 0, 81, 57
1, 10170, Note_on_c, 0, 73, 48
1, 10182, Note_on_c, 0, 77, 38
1, 10197, Note_on_c, 0, 80, 29
1, 10204, Note_off_c, 0, 73, 48
1, 10246, Note_off_c, 0, 80, 0
1, 10265, Note_off_c, 0, 77, 0
1, 10265, Note_on_c, 0, 77, 18
1, 10265, Note_on_c, 0, 73, 48
1, 10271, Note_on_c, 0, 80, 16
1, 10302, Note_off_c, 0, 73, 48
1, 10328, Note_off_c, 0, 80, 51
1, 10361, Note_on_c, 0, 81, 44
1, 10366, Note_off_c, 0, 77, 38
1, 10404, Note_off_c, 0, 81, 61
1, 10417, Note_on_c, 0, 73, 48
1, 10436, Note_on_c, 0, 77, 33
1, 10452, Note_on_c, 0, 80, 39
1, 10461, Note_off_c, 0, 73, 49
1, 10520, Note_off_c, 0, 80, 0
1, 10525, Note_off_c, 0, 77, 0
1, 10525, Note_on_c, 0, 77, 29
1, 10533, Note_on_c, 0, 80, 37
1, 10534, Note_on_c, 0, 73, 39
1, 10563, Note_off_c, 0, 73, 52
1, 10592, Note_off_c, 0, 80, 54
1, 10621, Note_on_c, 0, 81, 40
1, 10632, Note_off_c, 0, 77, 38
1, 10664, Note_off_c, 0, 81, 62
1, 10714, Note_on_c, 0, 80, 40
1, 10715, Note_on_c, 0, 73, 37
1, 10715, Note_on_c, 0, 77, 35
1, 10757, Note_off_c, 0, 73, 47
1, 10760, Note_off_c, 0, 80, 45
1, 10781, Note_on_c, 0, 81, 43
1, 10798, Note_off_c, 0, 77, 40
1, 10858, Note_off_c, 0, 81, 58
1, 10876, Note_on_c, 0, 73, 43
1, 10888, Note_on_c, 0, 80, 44
1, 10900, Note_on_c, 0, 77, 35
1, 10912, Note_off_c, 0, 73, 46
1, 10951, Note_off_c, 0, 80, 0
1, 10957, Note_on_c, 0, 73, 48
1, 10965, Note_on_c, 0, 80, 37
1, 10969, Note_off_c, 0, 77, 0
1, 10969, Note_on_c, 0, 77, 19
1, 11031, Note_off_c, 0, 80, 54
1, 11040, Note_off_c, 0, 73, 43
1, 11076, Note_on_c, 0, 68, 55
1, 11085, Note_off_c, 0, 77, 36
1, 11088, Note_on_c, 0, 81, 42
1, 11129, Note_off_c, 0, 81, 56
1, 11143, Note_off_c, 0, 71, 48
1, 11154, Note_on_c, 0, 73, 47
1, 11156, Note_on_c, 0, 77, 36
1, 11165, Note_on_c, 0, 80, 44
1, 11191, Note_off_c, 0, 73, 52
1, 11197, Note_off_c, 0, 80, 57
1, 11240, Note_off_c, 0, 77, 0
1, 11264, Note_on_c, 0, 77, 25
1, 11275, Note_on_c, 0, 73, 48
1, 11288, Note_on_c, 0, 80, 40
1, 11316, Note_off_c, 0, 73, 47
1, 11324, Note_off_c, 0, 80, 50
1, 11350, Note_on_c, 0, 81, 41
1, 11350, Note_off_c, 0, 77, 40
1, 11407, Note_off_c, 0, 81, 60
1, 11429, Note_on_c, 0, 73, 45
1, 11434, Note_on_c, 0, 71, 71
1, 11434, Note_on_c, 0, 80, 51
1, 11453, Note_on_c, 0, 77, 47
1, 11470, Note_off_c, 0, 73, 45
1, 11487, Note_off_c, 0, 80, 53
1, 11497, Note_off_c, 0, 77, 50
1, 11540, Note_on_c, 0, 81, 45
1, 11583, Note_off_c, 0, 68, 56
1, 11586, Note_off_c, 0, 81, 58
1, 11620, Note_on_c, 0, 73, 54
1, 11628, Note_on_c, 0, 80, 47
1, 11633, Note_on_c, 0, 77, 47
1, 11650, Note_off_c, 0, 80, 62
1, 11654, Note_off_c, 0, 73, 52
1, 11671, Note_off_c, 0, 77, 45
1, 11723, Note_on_c, 0, 80, 49
1, 11724, Note_on_c, 0, 77, 37
1, 11762, Poly_aftertouch_c, 0, 73, 127
1, 11769, Note_off_c, 0, 80, 56
1, 11770, Note_off_c, 0, 77, 49
1, 11777, Poly_aftertouch_c, 0, 73, 0
1, 11794, Note_on_c, 0, 73, 58
1, 11818, Note_on_c, 0, 81, 52
1, 11879, Note_off_c, 0, 81, 59
1, 11899, Note_on_c, 0, 77, 46
1, 11902, Note_on_c, 0, 80, 46
1, 11926, Note_off_c, 0, 80, 62
1, 11928, Note_off_c, 0, 77, 59
1, 11930, Note_off_c, 0, 71, 52
1, 12006, Note_on_c, 0, 77, 46
1, 12021, Note_on_c, 0, 80, 54
1, 12054, Note_off_c, 0, 77, 57
1, 12061, Note_off_c, 0, 80, 62
1, 12086, Note_on_c, 0, 81, 53
1, 12146, Note_off_c, 0, 81, 50
1, 12155, Control_c, 0, 64, 121
1, 12170, Control_c, 0, 64, 108
1, 12185, Control_c, 0, 64, 97
1, 12188, Note_on_c, 0, 75, 72
1, 12200, Control_c, 0, 64, 85
1, 12215, Control_c, 0, 64, 71
1, 12224, Note_on_c, 0, 80, 45
1, 12227, Note_on_c, 0, 77, 35
1, 12230, Control_c, 0, 64, 57
1, 12245, Control_c, 0, 64, 35
1, 12259, Control_c, 0, 64, 52
1, 12271, Note_off_c, 0, 80, 58
1, 12274, Control_c, 0, 64, 64
1, 12280, Note_off_c, 0, 73, 60
1, 12286, Note_off_c, 0, 77, 45
1, 12289, Control_c, 0, 64, 73
1, 12296, Note_on_c, 0, 81, 49
1, 12304, Control_c, 0, 64, 86
1, 12319, Control_c, 0, 64, 99
1, 12333, Control_c, 0, 64, 108
1, 12348, Control_c, 0, 64, 117
1, 12363, Control_c, 0, 64, 127
1, 12364, Note_off_c, 0, 81, 60
1, 12385, Note_on_c, 0, 80, 56
1, 12395, Note_on_c, 0, 77, 52
1, 12406, Note_on_c, 0, 73, 38
1, 12412, Note_off_c, 0, 80, 66
1, 12416, Note_off_c, 0, 77, 63
1, 12444, Note_off_c, 0, 73, 45
1, 12452, Control_c, 0, 67, 125
1, 12466, Control_c, 0, 67, 123
1, 12481, Control_c, 0, 67, 121
1, 12492, Note_on_c, 0, 80, 51
1, 12496, Control_c, 0, 67, 120
1, 12504, Note_on_c, 0, 77, 37
1, 12511, Control_c, 0, 67, 118
1, 12521, Note_off_c, 0, 80, 58
1, 12521, Poly_aftertouch_c, 0, 73, 127
1, 12526, Control_c, 0, 67, 117
1, 12537, Note_off_c, 0, 77, 55
1, 12540, Control_c, 0, 67, 116
1, 12555, Note_on_c, 0, 73, 49
1, 12555, Control_c, 0, 67, 115
1, 12570, Control_c, 0, 67, 113
1, 12585, Control_c, 0, 67, 112
1, 12589, Note_off_c, 0, 75, 54
1, 12600, Control_c, 0, 67, 110
1, 12608, Note_on_c, 0, 81, 50
1, 12616, Control_c, 0, 67, 109
1, 12630, Note_off_c, 0, 73, 63
1, 12630, Control_c, 0, 67, 108
1, 12645, Control_c, 0, 67, 106
1, 12652, Note_off_c, 0, 81, 62
1, 12660, Control_c, 0, 67, 103
1, 12675, Control_c, 0, 67, 99
1, 12697, Note_on_c, 0, 80, 52
1, 12698, Control_c, 0, 67, 95
1, 12703, Note_on_c, 0, 77, 43
1, 12712, Control_c, 0, 67, 93
1, 12713, Note_on_c, 0, 73, 31
1, 12718, Note_off_c, 0, 80, 64
1, 12727, Control_c, 0, 67, 91
1, 12734, Note_off_c, 0, 77, 52
1, 12742, Control_c, 0, 67, 88
1, 12748, Note_off_c, 0, 73, 50
1, 12757, Control_c, 0, 67, 86
1, 12796, Note_on_c, 0, 77, 38
1, 12801, Note_on_c, 0, 80, 52
1, 12816, Note_on_c, 0, 73, 41
1, 12824, Note_off_c, 0, 80, 59
1, 12831, Control_c, 0, 67, 86
1, 12850, Note_off_c, 0, 73, 58
1, 12860, Control_c, 0, 67, 85
1, 12871, Note_off_c, 0, 77, 43
1, 12875, Control_c, 0, 67, 84
1, 12877, Note_on_c, 0, 81, 56
1, 12889, Control_c, 0, 67, 78
1, 12904, Control_c, 0, 67, 70
1, 12915, Note_off_c, 0, 81, 60
1, 12919, Control_c, 0, 67, 66
1, 12934, Control_c, 0, 67, 63
1, 12949, Control_c, 0, 67, 59
1, 12963, Control_c, 0, 67, 54
1, 12978, Control_c, 0, 67, 51
1, 12993, Control_c, 0, 67, 50
1, 13008, Control_c, 0, 67, 49
1, 13014, Note_on_c, 0, 80, 67
1, 13023, Control_c, 0, 64, 109
1, 13023, Control_c, 0, 67, 48
1, 13038, Control_c, 0, 64, 95
1, 13052, Control_c, 0, 64, 83
1, 13055, Note_on_c, 0, 73, 51
1, 13065, Note_on_c, 0, 77, 36
1, 13067, Control_c, 0, 64, 69
1, 13082, Control_c, 0, 64, 55
1, 13082, Control_c, 0, 67, 48
1, 13097, Control_c, 0, 64, 42
1, 13112, Control_c, 0, 64, 52
1, 13127, Control_c, 0, 64, 59
1, 13127, Control_c, 0, 67, 46
1, 13142, Note_off_c, 0, 77, 42
1, 13142, Control_c, 0, 64, 65
1, 13142, Control_c, 0, 67, 43
1, 13152, Note_off_c, 0, 73, 34
1, 13157, Control_c, 0, 64, 75
1, 13157, Control_c, 0, 67, 42
1, 13171, Control_c, 0, 64, 92
1, 13171, Control_c, 0, 67, 41
1, 13173, Note_on_c, 0, 81, 45
1, 13186, Control_c, 0, 64, 113
1, 13197, Note_off_c, 0, 81, 58
1, 13201, Control_c, 0, 64, 127
1, 13278, Note_on_c, 0, 81, 60
1, 13315, Note_off_c, 0, 81, 62
1, 13318, Control_c, 0, 67, 42
1, 13348, Note_on_c, 0, 73, 51
1, 13362, Control_c, 0, 67, 42
1, 13371, Note_off_c, 0, 73, 58
1, 13377, Control_c, 0, 67, 43
1, 13392, Control_c, 0, 67, 44
1, 13408, Control_c, 0, 67, 45
1, 13423, Control_c, 0, 67, 46
1, 13446, Control_c, 0, 67, 47
1, 13459, Note_on_c, 0, 77, 71
1, 13461, Control_c, 0, 67, 48
1, 13475, Control_c, 0, 67, 50
1, 13478, Note_off_c, 0, 80, 48
1, 13488, Note_on_c, 0, 81, 55
1, 13490, Control_c, 0, 67, 52
1, 13505, Control_c, 0, 67, 55
1, 13519, Control_c, 0, 67, 57
1, 13533, Note_off_c, 0, 77, 63
1, 13534, Control_c, 0, 67, 60
1, 13544, Note_off_c, 0, 81, 57
1, 13549, Control_c, 0, 67, 65
1, 13564, Control_c, 0, 67, 71
1, 13576, Note_on_c, 0, 80, 58
1, 13577, Note_on_c, 0, 73, 53
1, 13579, Control_c, 0, 67, 76
1, 13593, Control_c, 0, 67, 80
1, 13601, Note_off_c, 0, 73, 58
1, 13608, Note_off_c, 0, 80, 63
1, 13608, Control_c, 0, 67, 83
1, 13623, Control_c, 0, 67, 87
1, 13638, Control_c, 0, 67, 89
1, 13653, Control_c, 0, 67, 91
1, 13667, Control_c, 0, 67, 93
1, 13682, Control_c, 0, 67, 95
1, 13685, Note_on_c, 0, 80, 47
1, 13697, Control_c, 0, 67, 96
1, 13711, Control_c, 0, 67, 96
1, 13726, Control_c, 0, 67, 97
1, 13729, Poly_aftertouch_c, 0, 73, 127
1, 13741, Note_off_c, 0, 80, 54
1, 13741, Control_c, 0, 67, 98
1, 13768, Poly_aftertouch_c, 0, 73, 0
1, 13771, Control_c, 0, 67, 98
1, 13777, Note_on_c, 0, 81, 39
1, 13801, Control_c, 0, 67, 99
1, 13896, Note_off_c, 0, 81, 39
1, 13911, Note_on_c, 0, 72, 60
1, 13919, Control_c, 0, 67, 99
1, 13923, Note_on_c, 0, 80, 43
1, 13927, Note_on_c, 0, 73, 42
1, 13934, Control_c, 0, 64, 114
1, 13947, Note_on_c, 0, 77, 30
1, 13949, Control_c, 0, 64, 100
1, 13949, Control_c, 0, 67, 100
1, 13964, Control_c, 0, 64, 85
1, 13964, Control_c, 0, 67, 101
1, 13978, Control_c, 0, 64, 73
1, 13978, Control_c, 0, 67, 102
1, 13993, Control_c, 0, 64, 62
1, 13993, Control_c, 0, 67, 103
1, 13996, Note_off_c, 0, 80, 53
1, 14005, Note_off_c, 0, 77, 47
1, 14007, Control_c, 0, 64, 52
1, 14007, Control_c, 0, 67, 103
1, 14010, Note_off_c, 0, 73, 39
1, 14018, Note_on_c, 0, 81, 33
1, 14022, Control_c, 0, 64, 53
1, 14037, Control_c, 0, 64, 59
1, 14048, Note_off_c, 0, 81, 53
1, 14051, Control_c, 0, 64, 64
1, 14066, Control_c, 0, 64, 73
1, 14081, Control_c, 0, 64, 83
1, 14096, Control_c, 0, 64, 93
1, 14111, Control_c, 0, 64, 98
1, 14111, Control_c, 0, 67, 104
1, 14121, Note_on_c, 0, 81, 32
1, 14126, Control_c, 0, 64, 102
1, 14140, Control_c, 0, 64, 108
1, 14155, Control_c, 0, 64, 120
1, 14162, Note_off_c, 0, 81, 50
1, 14170, Control_c, 0, 64, 127
1, 14192, Control_c, 0, 67, 104
1, 14203, Note_on_c, 0, 80, 40
1, 14210, Note_on_c, 0, 73, 41
1, 14224, Note_on_c, 0, 77, 29
1, 14253, Control_c, 0, 67, 105
1, 14260, Note_off_c, 0, 73, 45
1, 14268, Control_c, 0, 67, 105
1, 14273, Note_off_c, 0, 80, 37
1, 14282, Control_c, 0, 67, 106
1, 14297, Control_c, 0, 67, 106
1, 14304, Note_on_c, 0, 81, 46
1, 14313, Note_off_c, 0, 77, 40
1, 14357, Note_off_c, 0, 81, 62
1, 14386, Note_on_c, 0, 73, 46
1, 14392, Note_on_c, 0, 80, 48
1, 14414, Note_off_c, 0, 73, 55
1, 14429, Note_off_c, 0, 80, 45
1, 14443, Note_on_c, 0, 77, 19
1, 14445, Control_c, 0, 67, 107
1, 14480, Note_on_c, 0, 80, 39
1, 14489, Control_c, 0, 67, 106
1, 14495, Note_on_c, 0, 73, 29
1, 14531, Note_off_c, 0, 73, 53
1, 14536, Note_off_c, 0, 80, 51
1, 14564, Note_on_c, 0, 81, 48
1, 14567, Note_off_c, 0, 77, 48
1, 14611, Note_off_c, 0, 81, 62
1, 14653, Control_c, 0, 64, 117
1, 14663, Note_on_c, 0, 70, 50
1, 14667, Note_on_c, 0, 80, 40
1, 14668, Control_c, 0, 64, 105
1, 14682, Control_c, 0, 64, 96
1, 14684, Note_on_c, 0, 77, 43
1, 14697, Control_c, 0, 64, 86
1, 14699, Note_on_c, 0, 73, 19
1, 14712, Control_c, 0, 64, 76
1, 14712, Control_c, 0, 67, 107
1, 14726, Control_c, 0, 64, 64
1, 14736, Note_off_c, 0, 72, 34
1, 14741, Note_off_c, 0, 80, 38
1, 14741, Control_c, 0, 64, 53
1, 14755, Note_off_c, 0, 77, 40
1, 14766, Note_on_c, 0, 82, 45
1, 14769, Note_off_c, 0, 73, 45
1, 14772, Control_c, 0, 64, 59
1, 14787, Control_c, 0, 64, 65
1, 14796, Note_off_c, 0, 82, 58
1, 14802, Control_c, 0, 64, 73
1, 14816, Control_c, 0, 64, 87
1, 14831, Control_c, 0, 64, 96
1, 14846, Control_c, 0, 64, 98
1, 14860, Control_c, 0, 64, 99
1, 14875, Control_c, 0, 64, 102
1, 14887, Note_on_c, 0, 82, 54
1, 14890, Control_c, 0, 64, 106
1, 14905, Control_c, 0, 64, 112
1, 14920, Control_c, 0, 64, 127
1, 14921, Note_off_c, 0, 82, 57
1, 14975, Note_on_c, 0, 80, 35
1, 14976, Note_on_c, 0, 77, 40
1, 14992, Note_on_c, 0, 73, 36
1, 15046, Note_off_c, 0, 73, 42
1, 15079, Note_on_c, 0, 68, 47
1, 15091, Control_c, 0, 64, 116
1, 15106, Control_c, 0, 64, 105
1, 15107, Note_off_c, 0, 80, 34
1, 15115, Note_on_c, 0, 82, 50
1, 15121, Control_c, 0, 64, 92
1, 15136, Control_c, 0, 64, 83
1, 15142, Note_off_c, 0, 77, 44
1, 15151, Control_c, 0, 64, 74
1, 15165, Control_c, 0, 64, 67
1, 15180, Control_c, 0, 64, 62
1, 15183, Note_off_c, 0, 82, 57
1, 15195, Control_c, 0, 64, 62
1, 15199, Note_off_c, 0, 70, 35
1, 15210, Control_c, 0, 64, 66
1, 15225, Control_c, 0, 64, 74
1, 15228, Note_on_c, 0, 73, 31
1, 15239, Note_on_c, 0, 80, 34
1, 15239, Control_c, 0, 64, 85
1, 15254, Control_c, 0, 64, 96
1, 15264, Poly_aftertouch_c, 0, 77, 127
1, 15267, Note_off_c, 0, 73, 49
1, 15269, Control_c, 0, 64, 101
1, 15276, Note_off_c, 0, 80, 48
1, 15283, Control_c, 0, 64, 102
1, 15298, Control_c, 0, 64, 104
1, 15313, Control_c, 0, 64, 107
1, 15328, Control_c, 0, 64, 112
1, 15335, Note_on_c, 0, 73, 43
1, 15343, Control_c, 0, 64, 119
1, 15357, Control_c, 0, 64, 127
1, 15360, Note_on_c, 0, 80, 36
1, 15435, Note_off_c, 0, 80, 51
1, 15437, Note_off_c, 0, 73, 36
1, 15462, Note_on_c, 0, 82, 41
1, 15473, Poly_aftertouch_c, 0, 77, 0
1, 15595, Control_c, 0, 67, 107
1, 15610, Control_c, 0, 64, 121
1, 15624, Control_c, 0, 64, 115
1, 15629, Note_off_c, 0, 82, 49
1, 15639, Control_c, 0, 64, 110
1, 15646, Note_on_c, 0, 72, 48
1, 15654, Control_c, 0, 64, 103
1, 15664, Note_on_c, 0, 80, 43
1, 15668, Note_on_c, 0, 77, 28
1, 15669, Control_c, 0, 64, 94
1, 15682, Note_on_c, 0, 74, 26
1, 15691, Control_c, 0, 64, 85
1, 15691, Control_c, 0, 67, 108
1, 15705, Control_c, 0, 64, 76
1, 15720, Control_c, 0, 64, 66
1, 15720, Control_c, 0, 67, 110
1, 15735, Control_c, 0, 64, 57
1, 15735, Control_c, 0, 67, 114
1, 15750, Control_c, 0, 64, 51
1, 15750, Control_c, 0, 67, 118
1, 15765, Control_c, 0, 64, 54
1, 15765, Control_c, 0, 67, 120
1, 15779, Note_off_c, 0, 80, 34
1, 15780, Control_c, 0, 64, 60
1, 15780, Control_c, 0, 67, 122
1, 15793, Note_on_c, 0, 82, 36
1, 15795, Control_c, 0, 64, 67
1, 15795, Control_c, 0, 67, 123
1, 15805, Note_off_c, 0, 74, 28
1, 15810, Control_c, 0, 64, 77
1, 15810, Control_c, 0, 67, 124
1, 15815, Note_off_c, 0, 77, 44
1, 15825, Note_off_c, 0, 68, 34
1, 15825, Control_c, 0, 64, 91
1, 15825, Control_c, 0, 67, 126
1, 15837, Note_off_c, 0, 82, 64
1, 15840, Control_c, 0, 64, 103
1, 15840, Control_c, 0, 67, 127
1, 15854, Control_c, 0, 64, 109
1, 15869, Control_c, 0, 64, 117
1, 15884, Control_c, 0, 64, 127
1, 15913, Note_on_c, 0, 82, 49
1, 15966, Note_off_c, 0, 82, 59
1, 16001, Note_on_c, 0, 80, 40
1, 16009, Note_on_c, 0, 77, 41
1, 16015, Note_on_c, 0, 74, 36
1, 16057, Note_off_c, 0, 80, 54
1, 16062, Note_off_c, 0, 74, 54
1, 16086, Note_off_c, 0, 77, 50
1, 16094, Note_on_c, 0, 82, 57
1, 16165, Note_off_c, 0, 82, 56
1, 16179, Note_on_c, 0, 74, 48
1, 16183, Note_on_c, 0, 80, 48
1, 16192, Note_on_c, 0, 77, 37
1, 16204, Note_off_c, 0, 74, 59
1, 16210, Note_off_c, 0, 80, 60
1, 16266, Note_off_c, 0, 77, 0
1, 16295, Note_on_c, 0, 77, 11
1, 16295, Note_on_c, 0, 80, 38
1, 16301, Note_on_c, 0, 74, 27
1, 16334, Note_off_c, 0, 80, 47
1, 16335, Note_off_c, 0, 74, 54
1, 16358, Note_on_c, 0, 82, 57
1, 16369, Note_off_c, 0, 77, 43
1, 16409, Note_off_c, 0, 82, 56
1, 16453, Note_on_c, 0, 74, 33
1, 16453, Note_on_c, 0, 80, 43
1, 16477, Note_on_c, 0, 77, 39
1, 16505, Note_off_c, 0, 80, 58
1, 16507, Note_off_c, 0, 74, 50
1, 16526, Note_off_c, 0, 77, 47
1, 16532, Note_on_c, 0, 82, 57
1, 16562, Note_off_c, 0, 82, 67
1, 16638, Note_on_c, 0, 82, 61
1, 16678, Note_off_c, 0, 82, 59
1, 16722, Note_on_c, 0, 80, 44
1, 16738, Note_on_c, 0, 74, 18
1, 16741, Note_on_c, 0, 77, 29
1, 16772, Note_off_c, 0, 80, 53
1, 16787, Note_off_c, 0, 74, 48
1, 16821, Note_on_c, 0, 82, 51
1, 16831, Note_off_c, 0, 77, 41
1, 16886, Note_off_c, 0, 82, 57
1, 16895, Note_on_c, 0, 74, 36
1, 16898, Note_on_c, 0, 80, 45
1, 16907, Note_on_c, 0, 77, 44
1, 16926, Note_off_c, 0, 74, 54
1, 16928, Note_off_c, 0, 80, 62
1, 16951, Note_off_c, 0, 77, 44
1, 17017, Note_on_c, 0, 80, 43
1, 17031, Note_on_c, 0, 74, 22
1, 17037, Poly_aftertouch_c, 0, 77, 127
1, 17056, Note_off_c, 0, 80, 48
1, 17067, Note_off_c, 0, 74, 52
1, 17082, Note_on_c, 0, 82, 51
1, 17092, Poly_aftertouch_c, 0, 77, 0
1, 17132, Note_off_c, 0, 82, 59
1, 17166, Note_on_c, 0, 80, 42
1, 17178, Note_on_c, 0, 74, 38
1, 17213, Note_on_c, 0, 77, 39
1, 17222, Note_off_c, 0, 80, 60
1, 17224, Note_off_c, 0, 74, 57
1, 17244, Note_off_c, 0, 77, 56
1, 17248, Note_on_c, 0, 82, 58
1, 17266, Note_off_c, 0, 82, 66
1, 17337, Note_on_c, 0, 82, 66
1, 17379, Note_off_c, 0, 82, 54
1, 17431, Note_on_c, 0, 80, 40
1, 17438, Note_on_c, 0, 74, 34
1, 17441, Note_on_c, 0, 77, 35
1, 17498, Note_off_c, 0, 80, 42
1, 17504, Note_off_c, 0, 74, 42
1, 17530, Note_on_c, 0, 65, 57
1, 17534, Note_on_c, 0, 82, 47
1, 17550, Note_off_c, 0, 77, 39
1, 17589, Note_off_c, 0, 82, 59
1, 17616, Note_on_c, 0, 74, 40
1, 17619, Note_on_c, 0, 77, 41
1, 17635, Note_on_c, 0, 80, 38
1, 17638, Note_off_c, 0, 72, 61
1, 17648, Note_off_c, 0, 74, 53
1, 17661, Note_off_c, 0, 80, 56
1, 17661, Note_off_c, 0, 77, 54
1, 17721, Note_on_c, 0, 74, 43
1, 17728, Note_on_c, 0, 77, 39
1, 17728, Note_on_c, 0, 80, 52
1, 17747, Note_off_c, 0, 74, 58
1, 17801, Note_off_c, 0, 77, 52
1, 17804, Note_off_c, 0, 80, 50
1, 17811, Note_on_c, 0, 82, 51
1, 17898, Note_off_c, 0, 82, 61
1, 17914, Note_on_c, 0, 70, 72
1, 17947, Note_on_c, 0, 80, 45
1, 17952, Control_c, 0, 64, 110
1, 17953, Note_on_c, 0, 77, 48
1, 17957, Note_on_c, 0, 73, 50
1, 17967, Control_c, 0, 64, 96
1, 17982, Control_c, 0, 64, 84
1, 17997, Control_c, 0, 64, 73
1, 18012, Control_c, 0, 64, 64
1, 18027, Control_c, 0, 64, 61
1, 18030, Note_off_c, 0, 80, 47
1, 18037, Note_on_c, 0, 82, 57
1, 18039, Note_off_c, 0, 73, 46
1, 18041, Control_c, 0, 64, 65
1, 18051, Note_off_c, 0, 77, 52
1, 18056, Control_c, 0, 64, 72
1, 18071, Control_c, 0, 64, 81
1, 18072, Note_off_c, 0, 82, 65
1, 18081, Note_off_c, 0, 65, 59
1, 18085, Control_c, 0, 64, 90
1, 18100, Control_c, 0, 64, 96
1, 18115, Control_c, 0, 64, 99
1, 18130, Control_c, 0, 64, 100
1, 18145, Control_c, 0, 64, 103
1, 18152, Note_on_c, 0, 82, 53
1, 18159, Control_c, 0, 64, 104
1, 18178, Note_off_c, 0, 82, 58
1, 18189, Control_c, 0, 64, 105
1, 18205, Control_c, 0, 64, 106
1, 18206, Note_on_c, 0, 77, 46
1, 18208, Note_on_c, 0, 73, 54
1, 18209, Note_on_c, 0, 80, 52
1, 18235, Control_c, 0, 64, 107
1, 18249, Control_c, 0, 64, 108
1, 18254, Note_off_c, 0, 80, 58
1, 18257, Note_off_c, 0, 73, 56
1, 18264, Control_c, 0, 64, 110
1, 18279, Control_c, 0, 64, 112
1, 18294, Control_c, 0, 64, 113
1, 18308, Control_c, 0, 64, 113
1, 18311, Note_on_c, 0, 68, 77
1, 18323, Control_c, 0, 64, 115
1, 18327, Note_on_c, 0, 82, 54
1, 18338, Control_c, 0, 64, 118
1, 18345, Note_off_c, 0, 77, 36
1, 18353, Control_c, 0, 64, 123
1, 18368, Control_c, 0, 64, 125
1, 18404, Note_off_c, 0, 82, 61
1, 18412, Control_c, 0, 64, 127
1, 18441, Note_on_c, 0, 73, 35
1, 18443, Note_on_c, 0, 77, 41
1, 18450, Note_on_c, 0, 80, 26
1, 18478, Note_off_c, 0, 70, 58
1, 18484, Note_off_c, 0, 73, 43
1, 18504, Note_off_c, 0, 77, 0
1, 18504, Note_on_c, 0, 77, 35
1, 18507, Note_off_c, 0, 80, 0
1, 18525, Note_on_c, 0, 73, 40
1, 18525, Note_on_c, 0, 80, 25
1, 18546, Control_c, 0, 67, 127
1, 18575, Control_c, 0, 67, 126
1, 18583, Note_off_c, 0, 73, 41
1, 18625, Note_on_c, 0, 82, 51
1, 18631, Note_off_c, 0, 80, 37
1, 18647, Note_off_c, 0, 77, 34
1, 18716, Control_c, 0, 64, 125
1, 18790, Control_c, 0, 64, 120
1, 18805, Control_c, 0, 64, 115
1, 18817, Note_off_c, 0, 82, 47
1, 18820, Note_on_c, 0, 72, 68
1, 18820, Control_c, 0, 64, 110
1, 18835, Control_c, 0, 64, 104
1, 18844, Note_on_c, 0, 80, 44
1, 18846, Note_on_c, 0, 74, 41
1, 18850, Note_on_c, 0, 77, 37
1, 18850, Control_c, 0, 64, 97
1, 18864, Control_c, 0, 64, 88
1, 18879, Control_c, 0, 64, 79
1, 18894, Control_c, 0, 64, 69
1, 18908, Control_c, 0, 64, 53
1, 18914, Note_off_c, 0, 80, 39
1, 18923, Control_c, 0, 64, 30
1, 18924, Note_off_c, 0, 68, 62
1, 18938, Control_c, 0, 64, 28
1, 18953, Control_c, 0, 64, 32
1, 18961, Note_on_c, 0, 82, 42
1, 18968, Control_c, 0, 64, 46
1, 18968, Control_c, 0, 67, 126
1, 18982, Control_c, 0, 64, 60
1, 18984, Note_off_c, 0, 77, 47
1, 18997, Control_c, 0, 64, 69
1, 19002, Note_off_c, 0, 74, 40
1, 19008, Note_off_c, 0, 82, 62
1, 19013, Control_c, 0, 64, 81
1, 19028, Control_c, 0, 64, 92
1, 19043, Control_c, 0, 64, 99
1, 19058, Control_c, 0, 64, 103
1, 19073, Control_c, 0, 64, 107
1, 19074, Note_on_c, 0, 82, 53
1, 19087, Control_c, 0, 64, 113
1, 19102, Control_c, 0, 64, 118
1, 19116, Note_off_c, 0, 82, 62
1, 19117, Control_c, 0, 64, 125
1, 19131, Control_c, 0, 64, 127
1, 19131, Control_c, 0, 67, 126
1, 19152, Note_on_c, 0, 74, 33
1, 19161, Control_c, 0, 67, 127
1, 19163, Note_on_c, 0, 77, 36
1, 19163, Note_on_c, 0, 80, 43
1, 19214, Note_off_c, 0, 80, 58
1, 19247, Note_off_c, 0, 74, 52
1, 19254, Note_on_c, 0, 82, 52
1, 19257, Note_off_c, 0, 77, 39
1, 19280, Control_c, 0, 67, 127
1, 19303, Note_off_c, 0, 82, 57
1, 19339, Note_on_c, 0, 80, 44
1, 19344, Note_on_c, 0, 77, 50
1, 19366, Note_off_c, 0, 80, 59
1, 19369, Note_on_c, 0, 74, 16
1, 19372, Note_off_c, 0, 77, 60
1, 19449, Note_on_c, 0, 77, 43
1, 19449, Note_on_c, 0, 80, 51
1, 19489, Note_off_c, 0, 80, 62
1, 19504, Note_off_c, 0, 77, 53
1, 19512, Note_off_c, 0, 74, 45
1, 19527, Note_on_c, 0, 82, 52
1, 19588, Note_off_c, 0, 82, 57
1, 19612, Note_on_c, 0, 65, 54
1, 19619, Note_on_c, 0, 74, 44
1, 19627, Note_on_c, 0, 80, 47
1, 19638, Note_on_c, 0, 77, 46
1, 19685, Note_off_c, 0, 80, 54
1, 19691, Note_off_c, 0, 77, 53
1, 19703, Note_off_c, 0, 74, 55
1, 19709, Note_on_c, 0, 82, 58
1, 19740, Note_off_c, 0, 82, 64
1, 19750, Note_off_c, 0, 72, 44
1, 19819, Note_on_c, 0, 82, 37
1, 19857, Note_off_c, 0, 82, 50
1, 19885, Note_on_c, 0, 74, 36
1, 19888, Note_on_c, 0, 80, 37
1, 19893, Note_on_c, 0, 77, 39
1, 19938, Note_off_c, 0, 74, 58
1, 19945, Note_off_c, 0, 80, 45
1, 19950, Note_off_c, 0, 77, 54
1, 19981, Note_on_c, 0, 82, 58
1, 20044, Note_off_c, 0, 82, 59
1, 20063, Note_on_c, 0, 80, 49
1, 20069, Note_on_c, 0, 74, 42
1, 20081, Note_on_c, 0, 77, 36
1, 20087, Note_off_c, 0, 80, 59
1, 20131, Note_off_c, 0, 77, 0
1, 20156, Note_on_c, 0, 77, 26
1, 20156, Note_off_c, 0, 74, 0
1, 20177, Note_on_c, 0, 80, 46
1, 20201, Poly_aftertouch_c, 0, 74, 127
1, 20217, Note_off_c, 0, 80, 59
1, 20228, Control_c, 0, 67, 127
1, 20239, Note_off_c, 0, 77, 43
1, 20249, Note_on_c, 0, 82, 56
1, 20251, Poly_aftertouch_c, 0, 74, 0
1, 20313, Note_off_c, 0, 82, 52
1, 20339, Note_on_c, 0, 68, 66
1, 20344, Note_on_c, 0, 80, 43
1, 20356, Note_on_c, 0, 74, 46
1, 20356, Note_on_c, 0, 77, 48
1, 20391, Control_c, 0, 67, 126
1, 20418, Note_off_c, 0, 77, 53
1, 20426, Note_off_c, 0, 74, 45
1, 20430, Note_off_c, 0, 80, 50
1, 20432, Note_on_c, 0, 82, 62
1, 20439, Note_off_c, 0, 65, 50
1, 20466, Control_c, 0, 67, 126
1, 20479, Note_off_c, 0, 82, 60
1, 20545, Note_on_c, 0, 82, 58
1, 20604, Note_off_c, 0, 82, 61
1, 20627, Note_on_c, 0, 74, 38
1, 20627, Note_on_c, 0, 80, 48
1, 20633, Note_on_c, 0, 77, 48
1, 20689, Note_off_c, 0, 80, 49
1, 20699, Note_off_c, 0, 74, 40
1, 20702, Note_off_c, 0, 77, 40
1, 20708, Note_on_c, 0, 70, 86
1, 20735, Note_on_c, 0, 82, 63
1, 20819, Note_off_c, 0, 82, 57
1, 20836, Note_on_c, 0, 74, 42
1, 20839, Note_on_c, 0, 80, 55
1, 20845, Note_on_c, 0, 77, 52
1, 20858, Note_off_c, 0, 68, 59
1, 20869, Note_off_c, 0, 74, 53
1, 20869, Note_off_c, 0, 80, 66
1, 20874, Note_off_c, 0, 77, 64
1, 20954, Note_on_c, 0, 80, 61
1, 20964, Control_c, 0, 67, 126
1, 20974, Note_on_c, 0, 74, 32
1, 20978, Control_c, 0, 67, 127
1, 20980, Note_on_c, 0, 77, 41
1, 21015, Note_off_c, 0, 77, 56
1, 21023, Control_c, 0, 67, 127
1, 21024, Note_off_c, 0, 80, 61
1, 21032, Note_off_c, 0, 74, 59
1, 21035, Note_on_c, 0, 82, 65
1, 21062, Note_off_c, 0, 82, 67
1, 21249, Note_on_c, 0, 77, 72
1, 21274, Control_c, 0, 64, 114
1, 21289, Control_c, 0, 64, 100
1, 21297, Note_on_c, 0, 82, 49
1, 21302, Note_on_c, 0, 74, 45
1, 21304, Control_c, 0, 64, 90
1, 21318, Control_c, 0, 64, 79
1, 21324, Note_on_c, 0, 80, 38
1, 21333, Control_c, 0, 64, 69
1, 21348, Control_c, 0, 64, 55
1, 21352, Note_off_c, 0, 70, 58
1, 21363, Control_c, 0, 64, 28
1, 21378, Control_c, 0, 64, 19
1, 21408, Control_c, 0, 64, 29
1, 21423, Control_c, 0, 64, 52
1, 21438, Control_c, 0, 64, 65
1, 21453, Control_c, 0, 64, 77
1, 21468, Control_c, 0, 64, 95
1, 21482, Control_c, 0, 64, 111
1, 21484, Note_on_c, 0, 84, 52
1, 21497, Control_c, 0, 64, 125
1, 21502, Note_off_c, 0, 74, 59
1, 21506, Note_off_c, 0, 82, 46
1, 21507, Note_off_c, 0, 84, 64
1, 21509, Note_off_c, 0, 80, 43
1, 21512, Control_c, 0, 64, 127
1, 21594, Note_on_c, 0, 84, 51
1, 21679, Note_off_c, 0, 84, 62
1, 21708, Note_on_c, 0, 80, 43
1, 21712, Note_on_c, 0, 74, 34
1, 21722, Note_on_c, 0, 82, 39
1, 21762, Note_off_c, 0, 80, 50
1, 21776, Note_off_c, 0, 82, 49
1, 21783, Note_off_c, 0, 74, 50
1, 21811, Note_on_c, 0, 84, 51
1, 21859, Note_off_c, 0, 84, 56
1, 21884, Note_on_c, 0, 82, 52
1, 21893, Note_on_c, 0, 80, 47
1, 21909, Note_on_c, 0, 74, 38
1, 21919, Note_off_c, 0, 80, 58
1, 21920, Note_off_c, 0, 82, 63
1, 21982, Note_off_c, 0, 74, 0
1, 22000, Note_on_c, 0, 82, 52
1, 22006, Note_on_c, 0, 74, 16
1, 22013, Note_on_c, 0, 80, 40
1, 22049, Note_off_c, 0, 82, 60
1, 22051, Note_off_c, 0, 80, 48
1, 22058, Note_off_c, 0, 74, 48
1, 22084, Note_on_c, 0, 84, 47
1, 22128, Note_off_c, 0, 84, 60
1, 22167, Note_on_c, 0, 74, 43
1, 22168, Note_on_c, 0, 82, 54
1, 22171, Note_on_c, 0, 80, 38
1, 22222, Note_off_c, 0, 82, 55
1, 22231, Note_off_c, 0, 80, 44
1, 22235, Note_off_c, 0, 74, 54
1, 22262, Note_on_c, 0, 84, 51
1, 22282, Note_off_c, 0, 84, 63
1, 22374, Note_on_c, 0, 84, 48
1, 22403, Note_off_c, 0, 84, 57
1, 22441, Note_on_c, 0, 80, 41
1, 22455, Note_on_c, 0, 82, 37
1, 22463, Note_on_c, 0, 74, 35
1, 22496, Note_off_c, 0, 80, 49
1, 22508, Note_off_c, 0, 82, 46
1, 22509, Note_off_c, 0, 74, 47
1, 22529, Note_on_c, 0, 84, 50
1, 22600, Note_off_c, 0, 84, 58
1, 22615, Note_on_c, 0, 74, 46
1, 22618, Note_on_c, 0, 82, 51
1, 22620, Note_on_c, 0, 80, 50
1, 22645, Note_off_c, 0, 74, 59
1, 22646, Note_off_c, 0, 80, 61
1, 22656, Note_off_c, 0, 82, 61
1, 22730, Note_on_c, 0, 82, 45
1, 22747, Note_on_c, 0, 80, 43
1, 22764, Poly_aftertouch_c, 0, 74, 127
1, 22783, Note_off_c, 0, 80, 49
1, 22787, Note_off_c, 0, 82, 60
1, 22814, Poly_aftertouch_c, 0, 74, 0
1, 22817, Note_on_c, 0, 84, 52
1, 22842, Note_off_c, 0, 77, 36
1, 22866, Note_off_c, 0, 84, 56
1, 22909, Note_on_c, 0, 80, 43
1, 22911, Note_on_c, 0, 74, 44
1, 22912, Note_on_c, 0, 82, 54
1, 22954, Note_off_c, 0, 82, 59
1, 22970, Note_off_c, 0, 80, 51
1, 22981, Note_off_c, 0, 74, 56
1, 22985, Note_on_c, 0, 84, 58
1, 23014, Note_off_c, 0, 84, 66
1, 23089, Note_on_c, 0, 84, 52
1, 23177, Note_off_c, 0, 84, 59
1, 23207, Note_on_c, 0, 82, 39
1, 23213, Note_on_c, 0, 80, 32
1, 23214, Note_on_c, 0, 74, 29
1, 23262, Note_off_c, 0, 74, 47
1, 23264, Note_off_c, 0, 80, 43
1, 23289, Note_off_c, 0, 82, 35
1, 23316, Note_on_c, 0, 77, 55
1, 23340, Note_on_c, 0, 84, 42
1, 23392, Note_off_c, 0, 77, 56
1, 23401, Note_off_c, 0, 84, 53
1, 23435, Note_on_c, 0, 82, 41
1, 23450, Note_on_c, 0, 80, 37
1, 23453, Note_on_c, 0, 74, 35
1, 23477, Note_off_c, 0, 82, 59
1, 23478, Note_off_c, 0, 80, 55
1, 23485, Note_off_c, 0, 74, 54
1, 23592, Note_on_c, 0, 80, 39
1, 23599, Note_on_c, 0, 74, 20
1, 23609, Note_on_c, 0, 82, 45
1, 23638, Note_off_c, 0, 74, 53
1, 23662, Note_off_c, 0, 82, 53
1, 23686, Note_off_c, 0, 80, 37
1, 23697, Note_on_c, 0, 84, 40
1, 23941, Note_on_c, 0, 77, 67
1, 23944, Control_c, 0, 64, 118
1, 23948, Note_off_c, 0, 84, 53
1, 23959, Control_c, 0, 64, 105
1, 23974, Control_c, 0, 64, 96
1, 23980, Note_on_c, 0, 75, 37
1, 23986, Note_on_c, 0, 82, 41
1, 23989, Control_c, 0, 64, 89
1, 24003, Note_on_c, 0, 78, 37
1, 24003, Control_c, 0, 64, 82
1, 24018, Control_c, 0, 64, 76
1, 24033, Control_c, 0, 64, 69
1, 24048, Control_c, 0, 64, 59
1, 24063, Control_c, 0, 64, 46
1, 24077, Control_c, 0, 64, 44
1, 24107, Control_c, 0, 64, 45
1, 24121, Control_c, 0, 64, 55
1, 24136, Control_c, 0, 64, 65
1, 24143, Note_on_c, 0, 84, 47
1, 24151, Control_c, 0, 64, 76
1, 24161, Note_off_c, 0, 75, 44
1, 24161, Note_off_c, 0, 82, 42
1, 24166, Control_c, 0, 64, 89
1, 24174, Note_off_c, 0, 78, 45
1, 24181, Control_c, 0, 64, 98
1, 24195, Control_c, 0, 64, 103
1, 24210, Control_c, 0, 64, 108
1, 24225, Control_c, 0, 64, 120
1, 24240, Control_c, 0, 64, 127
1, 24267, Note_on_c, 0, 75, 42
1, 24270, Note_on_c, 0, 82, 49
1, 24274, Note_off_c, 0, 84, 33
1, 24283, Note_on_c, 0, 78, 38
1, 24298, Note_off_c, 0, 82, 57
1, 24315, Note_off_c, 0, 78, 50
1, 24343, Note_off_c, 0, 75, 0
1, 24360, Note_on_c, 0, 75, 35
1, 24378, Note_on_c, 0, 82, 47
1, 24400, Note_on_c, 0, 78, 31
1, 24431, Note_off_c, 0, 75, 43
1, 24434, Note_off_c, 0, 82, 57
1, 24441, Note_off_c, 0, 78, 52
1, 24468, Note_on_c, 0, 84, 56
1, 24521, Note_off_c, 0, 84, 57
1, 24538, Note_on_c, 0, 78, 54
1, 24543, Note_on_c, 0, 75, 48
1, 24551, Note_on_c, 0, 82, 51
1, 24566, Note_off_c, 0, 78, 65
1, 24570, Note_off_c, 0, 75, 56
1, 24574, Note_off_c, 0, 82, 62
1, 24651, Note_on_c, 0, 75, 34
1, 24678, Note_on_c, 0, 82, 45
1, 24683, Note_on_c, 0, 78, 32
1, 24695, Note_off_c, 0, 75, 49
1, 24717, Note_off_c, 0, 82, 59
1, 24727, Note_off_c, 0, 78, 49
1, 24738, Note_on_c, 0, 84, 51
1, 24815, Note_off_c, 0, 84, 55
1, 24850, Note_on_c, 0, 73, 73
1, 24864, Note_on_c, 0, 78, 26
1, 24868, Note_on_c, 0, 75, 43
1, 24875, Note_on_c, 0, 82, 39
1, 24931, Note_off_c, 0, 75, 53
1, 24971, Note_off_c, 0, 82, 39
1, 24972, Note_on_c, 0, 84, 38
1, 24982, Note_off_c, 0, 78, 45
1, 25030, Note_off_c, 0, 84, 57
1, 25042, Note_off_c, 0, 77, 32
1, 25068, Note_on_c, 0, 75, 41
1, 25080, Note_on_c, 0, 78, 42
1, 25086, Note_on_c, 0, 82, 42
1, 25097, Note_off_c, 0, 75, 54
1, 25115, Note_off_c, 0, 78, 48
1, 25123, Note_off_c, 0, 82, 46
1, 25176, Note_on_c, 0, 78, 27
1, 25179, Note_on_c, 0, 75, 40
1, 25186, Note_on_c, 0, 82, 37
1, 25221, Note_off_c, 0, 75, 48
1, 25238, Note_off_c, 0, 82, 54
1, 25274, Note_on_c, 0, 84, 42
1, 25281, Note_off_c, 0, 78, 45
1, 25319, Note_off_c, 0, 84, 57
1, 25346, Note_on_c, 0, 75, 40
1, 25355, Note_on_c, 0, 82, 50
1, 25355, Note_on_c, 0, 78, 38
1, 25387, Note_off_c, 0, 82, 64
1, 25430, Note_off_c, 0, 75, 0
1, 25434, Note_off_c, 0, 78, 0
1, 25448, Note_on_c, 0, 75, 31
1, 25452, Note_on_c, 0, 78, 32
1, 25466, Note_on_c, 0, 82, 51
1, 25510, Note_off_c, 0, 82, 58
1, 25516, Note_off_c, 0, 75, 42
1, 25548, Note_on_c, 0, 84, 46
1, 25564, Note_off_c, 0, 78, 45
1, 25601, Note_off_c, 0, 84, 59
1, 25623, Note_on_c, 0, 75, 50
1, 25635, Note_on_c, 0, 82, 46
1, 25641, Note_on_c, 0, 78, 47
1, 25671, Note_off_c, 0, 75, 54
1, 25688, Note_off_c, 0, 82, 57
1, 25692, Note_off_c, 0, 78, 53
1, 25725, Note_on_c, 0, 84, 49
1, 25777, Note_off_c, 0, 84, 59
1, 25806, Note_on_c, 0, 75, 45
1, 25806, Note_on_c, 0, 82, 54
1, 25808, Note_on_c, 0, 78, 50
1, 25827, Note_off_c, 0, 82, 65
1, 25829, Note_off_c, 0, 78, 61
1, 25862, Note_off_c, 0, 75, 0
1, 25879, Note_on_c, 0, 75, 38
1, 25902, Note_on_c, 0, 78, 49
1, 25909, Note_on_c, 0, 82, 58
1, 25949, Note_off_c, 0, 82, 59
1, 25972, Note_off_c, 0, 78, 55
1, 25977, Note_off_c, 0, 75, 38
1, 25988, Note_on_c, 0, 70, 68
1, 26002, Note_on_c, 0, 84, 55
1, 26050, Note_off_c, 0, 84, 57
1, 26082, Note_on_c, 0, 82, 45
1, 26088, Note_on_c, 0, 75, 44
1, 26091, Note_on_c, 0, 78, 45
1, 26103, Note_off_c, 0, 73, 60
1, 26106, Note_off_c, 0, 82, 61
1, 26115, Note_off_c, 0, 75, 57
1, 26118, Note_off_c, 0, 78, 55
1, 26193, Note_on_c, 0, 78, 43
1, 26196, Note_on_c, 0, 82, 48
1, 26201, Note_on_c, 0, 75, 40
1, 26237, Note_off_c, 0, 75, 51
1, 26240, Note_off_c, 0, 78, 60
1, 26240, Note_off_c, 0, 82, 47
1, 26254, Note_on_c, 0, 84, 59
1, 26324, Note_off_c, 0, 84, 51
1, 26337, Control_c, 0, 64, 114
1, 26352, Control_c, 0, 64, 101
1, 26367, Note_on_c, 0, 75, 40
1, 26367, Control_c, 0, 64, 89
1, 26368, Note_on_c, 0, 73, 74
1, 26377, Note_on_c, 0, 78, 52
1, 26377, Note_on_c, 0, 81, 54
1, 26382, Control_c, 0, 64, 78
1, 26396, Control_c, 0, 64, 67
1, 26411, Control_c, 0, 64, 55
1, 26426, Control_c, 0, 64, 44
1, 26440, Control_c, 0, 64, 45
1, 26455, Control_c, 0, 64, 49
1, 26460, Note_off_c, 0, 75, 42
1, 26465, Note_off_c, 0, 81, 62
1, 26469, Note_off_c, 0, 78, 57
1, 26470, Note_on_c, 0, 83, 54
1, 26470, Control_c, 0, 64, 59
1, 26485, Control_c, 0, 64, 68
1, 26500, Control_c, 0, 64, 81
1, 26514, Control_c, 0, 64, 105
1, 26529, Control_c, 0, 64, 127
1, 26532, Note_off_c, 0, 83, 60
1, 26553, Note_on_c, 0, 75, 58
1, 26560, Note_on_c, 0, 81, 48
1, 26579, Note_on_c, 0, 78, 41
1, 26580, Note_off_c, 0, 75, 64
1, 26589, Note_off_c, 0, 81, 66
1, 26605, Note_off_c, 0, 78, 57
1, 26627, Note_off_c, 0, 70, 32
1, 26654, Note_on_c, 0, 75, 58
1, 26665, Note_on_c, 0, 81, 52
1, 26672, Note_off_c, 0, 75, 65
1, 26684, Note_on_c, 0, 78, 55
1, 26719, Note_off_c, 0, 78, 62
1, 26720, Note_off_c, 0, 81, 60
1, 26744, Note_on_c, 0, 75, 79
1, 26759, Note_on_c, 0, 83, 55
1, 26825, Note_off_c, 0, 83, 57
1, 26848, Note_on_c, 0, 81, 52
1, 26851, Note_on_c, 0, 78, 56
1, 26880, Note_off_c, 0, 81, 65
1, 26881, Note_off_c, 0, 78, 66
1, 26946, Note_off_c, 0, 73, 40
1, 26965, Note_on_c, 0, 81, 40
1, 26973, Note_on_c, 0, 78, 54
1, 27004, Note_off_c, 0, 78, 66
1, 27009, Note_off_c, 0, 81, 60
1, 27030, Note_on_c, 0, 83, 55
1, 27207, Note_off_c, 0, 75, 61
1, 27233, Note_off_c, 0, 83, 46
1, 27234, Control_c, 0, 64, 115
1, 27242, Note_on_c, 0, 77, 77
1, 27249, Control_c, 0, 64, 105
1, 27263, Control_c, 0, 64, 95
1, 27278, Control_c, 0, 64, 84
1, 27280, Note_on_c, 0, 78, 45
1, 27280, Note_on_c, 0, 82, 49
1, 27283, Note_on_c, 0, 75, 24
1, 27293, Control_c, 0, 64, 73
1, 27308, Control_c, 0, 64, 62
1, 27323, Control_c, 0, 64, 41
1, 27337, Control_c, 0, 64, 25
1, 27367, Control_c, 0, 64, 24
1, 27382, Control_c, 0, 64, 25
1, 27397, Control_c, 0, 64, 43
1, 27405, Note_off_c, 0, 75, 45
1, 27408, Note_on_c, 0, 84, 52
1, 27411, Control_c, 0, 64, 60
1, 27414, Note_off_c, 0, 82, 44
1, 27424, Note_off_c, 0, 78, 43
1, 27426, Control_c, 0, 64, 69
1, 27441, Control_c, 0, 64, 78
1, 27456, Control_c, 0, 64, 87
1, 27471, Control_c, 0, 64, 92
1, 27484, Note_off_c, 0, 84, 61
1, 27486, Control_c, 0, 64, 95
1, 27501, Control_c, 0, 64, 100
1, 27516, Control_c, 0, 64, 106
1, 27518, Note_on_c, 0, 75, 42
1, 27522, Note_on_c, 0, 82, 49
1, 27525, Note_on_c, 0, 78, 54
1, 27531, Control_c, 0, 64, 110
1, 27546, Control_c, 0, 64, 116
1, 27551, Note_off_c, 0, 78, 61
1, 27555, Note_off_c, 0, 75, 52
1, 27557, Note_off_c, 0, 82, 55
1, 27560, Control_c, 0, 64, 127
1, 27619, Note_on_c, 0, 82, 44
1, 27636, Note_on_c, 0, 75, 37
1, 27673, Note_on_c, 0, 78, 27
1, 27686, Note_off_c, 0, 75, 48
1, 27690, Note_off_c, 0, 82, 57
1, 27708, Note_off_c, 0, 78, 52
1, 27732, Note_on_c, 0, 84, 50
1, 27779, Note_off_c, 0, 84, 59
1, 27790, Note_on_c, 0, 75, 42
1, 27802, Note_on_c, 0, 78, 46
1, 27813, Note_on_c, 0, 82, 48
1, 27827, Note_off_c, 0, 75, 56
1, 27834, Note_off_c, 0, 78, 54
1, 27838, Note_off_c, 0, 82, 60
1, 27904, Note_on_c, 0, 75, 35
1, 27911, Note_on_c, 0, 82, 46
1, 27912, Note_on_c, 0, 78, 24
1, 27951, Note_off_c, 0, 82, 53
1, 27953, Note_off_c, 0, 75, 45
1, 27974, Note_off_c, 0, 78, 44
1, 28002, Note_on_c, 0, 84, 40
1, 28042, Note_off_c, 0, 84, 47
1, 28092, Note_on_c, 0, 73, 60
1, 28106, Note_on_c, 0, 78, 40
1, 28119, Note_on_c, 0, 82, 38
1, 28125, Note_on_c, 0, 75, 33
1, 28170, Note_off_c, 0, 75, 47
1, 28180, Note_off_c, 0, 82, 43
1, 28218, Note_on_c, 0, 84, 37
1, 28221, Note_off_c, 0, 78, 37
1, 28227, Note_off_c, 0, 77, 33
1, 28269, Note_off_c, 0, 84, 45
1, 28293, Note_on_c, 0, 75, 36
1, 28300, Note_on_c, 0, 82, 45
1, 28308, Note_on_c, 0, 78, 42
1, 28324, Note_off_c, 0, 75, 54
1, 28371, Note_off_c, 0, 78, 0
1, 28380, Note_off_c, 0, 82, 0
1, 28392, Note_on_c, 0, 78, 25
1, 28395, Note_on_c, 0, 82, 36
1, 28409, Note_on_c, 0, 75, 42
1, 28444, Note_off_c, 0, 75, 50
1, 28456, Note_off_c, 0, 82, 50
1, 28500, Note_on_c, 0, 84, 44
1, 28501, Note_off_c, 0, 78, 41
1, 28544, Note_off_c, 0, 84, 58
1, 28571, Note_on_c, 0, 82, 45
1, 28574, Note_on_c, 0, 75, 34
1, 28588, Note_on_c, 0, 78, 37
1, 28616, Note_off_c, 0, 82, 47
1, 28632, Note_off_c, 0, 78, 0
1, 28643, Note_off_c, 0, 75, 0
1, 28654, Note_on_c, 0, 78, 38
1, 28658, Note_on_c, 0, 75, 37
1, 28669, Note_on_c, 0, 82, 47
1, 28703, Note_off_c, 0, 75, 51
1, 28714, Note_off_c, 0, 82, 61
1, 28740, Note_off_c, 0, 78, 54
1, 28762, Note_on_c, 0, 84, 44
1, 28801, Note_off_c, 0, 84, 63
1, 28827, Note_on_c, 0, 82, 52
1, 28830, Note_on_c, 0, 75, 44
1, 28848, Note_on_c, 0, 78, 41
1, 28882, Note_off_c, 0, 82, 55
1, 28888, Note_off_c, 0, 75, 58
1, 28907, Note_off_c, 0, 78, 44
1, 28912, Note_on_c, 0, 84, 46
1, 28962, Note_off_c, 0, 84, 58
1, 29003, Note_on_c, 0, 75, 44
1, 29015, Note_on_c, 0, 82, 47
1, 29021, Note_on_c, 0, 78, 41
1, 29030, Note_off_c, 0, 75, 56
1, 29062, Note_off_c, 0, 78, 0
1, 29077, Note_off_c, 0, 82, 0
1, 29082, Note_on_c, 0, 78, 41
1, 29093, Note_on_c, 0, 82, 41
1, 29103, Note_on_c, 0, 75, 48
1, 29130, Note_off_c, 0, 75, 54
1, 29169, Note_off_c, 0, 82, 58
1, 29186, Note_on_c, 0, 70, 57
1, 29200, Note_on_c, 0, 84, 51
1, 29207, Note_off_c, 0, 78, 37
1, 29248, Note_off_c, 0, 84, 60
1, 29266, Note_off_c, 0, 73, 58
1, 29281, Note_on_c, 0, 78, 47
1, 29288, Note_on_c, 0, 82, 52
1, 29298, Note_on_c, 0, 75, 22
1, 29312, Note_off_c, 0, 78, 52
1, 29312, Note_off_c, 0, 82, 58
1, 29361, Note_off_c, 0, 75, 0
1, 29370, Note_on_c, 0, 78, 48
1, 29379, Note_on_c, 0, 82, 50
1, 29385, Note_on_c, 0, 75, 23
1, 29423, Note_off_c, 0, 82, 62
1, 29435, Note_off_c, 0, 75, 52
1, 29447, Note_on_c, 0, 84, 57
1, 29474, Note_off_c, 0, 78, 50
1, 29504, Note_off_c, 0, 84, 55
1, 29525, Control_c, 0, 64, 120
1, 29540, Control_c, 0, 64, 105
1, 29549, Note_on_c, 0, 73, 76
1, 29553, Note_on_c, 0, 75, 47
1, 29555, Control_c, 0, 64, 92
1, 29564, Note_on_c, 0, 78, 47
1, 29570, Control_c, 0, 64, 76
1, 29582, Note_on_c, 0, 81, 40
1, 29585, Control_c, 0, 64, 64
1, 29599, Control_c, 0, 64, 44
1, 29614, Control_c, 0, 64, 39
1, 29629, Control_c, 0, 64, 54
1, 29635, Note_off_c, 0, 75, 58
1, 29635, Note_off_c, 0, 81, 57
1, 29644, Control_c, 0, 64, 64
1, 29656, Note_on_c, 0, 83, 52
1, 29658, Note_off_c, 0, 78, 57
1, 29658, Control_c, 0, 64, 75
1, 29664, Note_off_c, 0, 70, 50
1, 29673, Control_c, 0, 64, 92
1, 29688, Control_c, 0, 64, 112
1, 29703, Control_c, 0, 64, 127
1, 29723, Note_off_c, 0, 83, 62
1, 29745, Note_on_c, 0, 81, 45
1, 29751, Note_on_c, 0, 75, 50
1, 29775, Note_off_c, 0, 75, 59
1, 29777, Note_off_c, 0, 81, 54
1, 29803, Poly_aftertouch_c, 0, 78, 127
1, 29845, Note_on_c, 0, 75, 63
1, 29850, Note_on_c, 0, 81, 50
1, 29862, Note_off_c, 0, 75, 66
1, 29887, Note_off_c, 0, 81, 62
1, 29924, Poly_aftertouch_c, 0, 78, 0
1, 29938, Note_on_c, 0, 75, 81
1, 29947, Control_c, 0, 67, 126
1, 29949, Note_on_c, 0, 83, 61
1, 29962, Control_c, 0, 67, 125
1, 29977, Control_c, 0, 67, 124
1, 29992, Control_c, 0, 67, 121
1, 30007, Control_c, 0, 67, 119
1, 30017, Note_off_c, 0, 83, 61
1, 30021, Control_c, 0, 67, 117
1, 30035, Note_on_c, 0, 78, 54
1, 30036, Control_c, 0, 67, 115
1, 30041, Note_on_c, 0, 81, 53
1, 30043, Note_off_c, 0, 73, 28
1, 30051, Control_c, 0, 67, 114
1, 30065, Control_c, 0, 67, 112
1, 30067, Note_off_c, 0, 81, 66
1, 30070, Note_off_c, 0, 78, 62
1, 30080, Control_c, 0, 67, 110
1, 30095, Control_c, 0, 67, 109
1, 30110, Control_c, 0, 67, 108
1, 30125, Control_c, 0, 67, 107
1, 30139, Control_c, 0, 67, 106
1, 30149, Note_on_c, 0, 81, 57
1, 30154, Control_c, 0, 67, 104
1, 30162, Note_on_c, 0, 78, 53
1, 30169, Control_c, 0, 67, 102
1, 30185, Control_c, 0, 67, 101
1, 30197, Note_off_c, 0, 81, 55
1, 30200, Control_c, 0, 67, 100
1, 30205, Note_off_c, 0, 78, 58
1, 30215, Control_c, 0, 67, 96
1, 30225, Note_on_c, 0, 83, 52
1, 30230, Control_c, 0, 67, 88
1, 30244, Control_c, 0, 67, 83
1, 30259, Control_c, 0, 67, 80
1, 30274, Control_c, 0, 67, 78
1, 30288, Control_c, 0, 67, 75
1, 30303, Control_c, 0, 67, 71
1, 30318, Control_c, 0, 67, 68
1, 30333, Control_c, 0, 67, 66
1, 30348, Control_c, 0, 67, 65
1, 30363, Control_c, 0, 67, 63
1, 30377, Control_c, 0, 64, 117
1, 30377, Control_c, 0, 67, 61
1, 30392, Control_c, 0, 64, 110
1, 30392, Control_c, 0, 67, 59
1, 30407, Control_c, 0, 64, 103
1, 30407, Control_c, 0, 67, 57
1, 30422, Control_c, 0, 64, 98
1, 30422, Control_c, 0, 67, 55
1, 30423, Note_off_c, 0, 83, 56
1, 30431, Note_on_c, 0, 85, 81
1, 30437, Control_c, 0, 64, 91
1, 30437, Control_c, 0, 67, 53
1, 30452, Control_c, 0, 64, 82
1, 30452, Control_c, 0, 67, 52
1, 30463, Note_on_c, 0, 73, 48
1, 30467, Control_c, 0, 64, 72
1, 30467, Control_c, 0, 67, 51
1, 30476, Note_on_c, 0, 78, 43
1, 30477, Note_on_c, 0, 81, 42
1, 30482, Control_c, 0, 64, 61
1, 30482, Control_c, 0, 67, 49
1, 30497, Control_c, 0, 64, 39
1, 30497, Control_c, 0, 67, 48
1, 30504, Note_off_c, 0, 75, 58
1, 30512, Control_c, 0, 64, 31
1, 30512, Control_c, 0, 67, 47
1, 30526, Control_c, 0, 67, 46
1, 30541, Control_c, 0, 64, 32
1, 30541, Control_c, 0, 67, 46
1, 30556, Control_c, 0, 64, 41
1, 30556, Control_c, 0, 67, 45
1, 30571, Control_c, 0, 64, 56
1, 30571, Control_c, 0, 67, 44
1, 30586, Control_c, 0, 64, 66
1, 30586, Control_c, 0, 67, 43
1, 30600, Control_c, 0, 64, 79
1, 30600, Control_c, 0, 67, 43
1, 30604, Note_off_c, 0, 81, 57
1, 30615, Note_off_c, 0, 73, 52
1, 30615, Control_c, 0, 64, 93
1, 30622, Note_on_c, 0, 83, 49
1, 30630, Control_c, 0, 64, 103
1, 30645, Control_c, 0, 64, 111
1, 30661, Note_off_c, 0, 78, 39
1, 30667, Control_c, 0, 64, 127
1, 30705, Note_off_c, 0, 83, 60
1, 30751, Note_on_c, 0, 81, 39
1, 30754, Note_on_c, 0, 73, 41
1, 30787, Note_on_c, 0, 78, 8
1, 30787, Note_off_c, 0, 73, 48
1, 30798, Note_off_c, 0, 81, 42
1, 30839, Note_on_c, 0, 81, 41
1, 30848, Note_on_c, 0, 73, 42
1, 30893, Note_off_c, 0, 73, 46
1, 30902, Note_off_c, 0, 81, 51
1, 30932, Note_off_c, 0, 78, 45
1, 30943, Note_on_c, 0, 83, 52
1, 30989, Note_off_c, 0, 83, 60
1, 31028, Note_on_c, 0, 73, 36
1, 31034, Note_on_c, 0, 78, 50
1, 31036, Note_on_c, 0, 81, 37
1, 31071, Note_off_c, 0, 73, 44
1, 31072, Note_off_c, 0, 78, 45
1, 31096, Note_off_c, 0, 81, 0
1, 31108, Note_on_c, 0, 81, 46
1, 31121, Note_on_c, 0, 73, 38
1, 31121, Note_on_c, 0, 78, 44
1, 31165, Note_off_c, 0, 73, 48
1, 31174, Note_off_c, 0, 81, 58
1, 31176, Note_off_c, 0, 78, 56
1, 31206, Note_on_c, 0, 83, 51
1, 31282, Note_on_c, 0, 78, 72
1, 31287, Note_off_c, 0, 83, 60
1, 31307, Note_on_c, 0, 81, 55
1, 31330, Note_on_c, 0, 73, 44
1, 31369, Note_off_c, 0, 73, 48
1, 31382, Note_off_c, 0, 81, 55
1, 31420, Note_on_c, 0, 83, 54
1, 31424, Poly_aftertouch_c, 0, 77, 0
1, 31439, Note_off_c, 0, 85, 46
1, 31462, Note_off_c, 0, 83, 60
1, 31484, Note_on_c, 0, 73, 50
1, 31502, Note_on_c, 0, 81, 54
1, 31517, Note_off_c, 0, 73, 58
1, 31524, Note_off_c, 0, 81, 64
1, 31592, Note_on_c, 0, 73, 44
1, 31601, Note_on_c, 0, 81, 52
1, 31626, Note_off_c, 0, 73, 49
1, 31632, Note_off_c, 0, 81, 56
1, 31678, Note_on_c, 0, 83, 54
1, 31712, Control_c, 0, 67, 43
1, 31727, Control_c, 0, 67, 44
1, 31728, Note_off_c, 0, 83, 58
1, 31751, Note_on_c, 0, 73, 47
1, 31752, Note_on_c, 0, 81, 46
1, 31781, Note_off_c, 0, 73, 57
1, 31784, Note_off_c, 0, 81, 61
1, 31857, Note_on_c, 0, 81, 45
1, 31867, Note_on_c, 0, 73, 46
1, 31895, Note_off_c, 0, 81, 53
1, 31902, Note_off_c, 0, 73, 50
1, 31930, Note_off_c, 0, 78, 60
1, 31931, Note_on_c, 0, 83, 53
1, 31976, Note_off_c, 0, 83, 59
1, 32038, Note_on_c, 0, 81, 74
1, 32058, Note_on_c, 0, 78, 56
1, 32071, Note_on_c, 0, 73, 54
1, 32103, Note_off_c, 0, 73, 61
1, 32123, Note_off_c, 0, 78, 56
1, 32157, Note_on_c, 0, 83, 49
1, 32214, Note_off_c, 0, 83, 55
1, 32225, Note_on_c, 0, 73, 49
1, 32246, Note_on_c, 0, 78, 49
1, 32261, Note_off_c, 0, 73, 59
1, 32270, Note_off_c, 0, 78, 59
1, 32323, Note_on_c, 0, 73, 56
1, 32349, Note_on_c, 0, 78, 54
1, 32357, Note_off_c, 0, 73, 58
1, 32385, Note_off_c, 0, 78, 51
1, 32431, Note_on_c, 0, 85, 82
1, 32440, Note_on_c, 0, 83, 61
1, 32481, Note_off_c, 0, 81, 54
1, 32521, Note_off_c, 0, 83, 61
1, 32536, Note_on_c, 0, 81, 32
1, 32539, Note_on_c, 0, 73, 57
1, 32550, Note_on_c, 0, 78, 46
1, 32562, Note_off_c, 0, 73, 60
1, 32576, Note_off_c, 0, 78, 59
1, 32586, Note_off_c, 0, 81, 44
1, 32635, Note_on_c, 0, 81, 38
1, 32639, Note_on_c, 0, 73, 58
1, 32661, Note_on_c, 0, 78, 59
1, 32675, Note_off_c, 0, 73, 62
1, 32696, Note_off_c, 0, 78, 61
1, 32698, Note_off_c, 0, 81, 0
1, 32731, Note_on_c, 0, 83, 52
1, 32762, Poly_aftertouch_c, 0, 81, 0
1, 32872, Note_off_c, 0, 83, 61
1, 32875, Control_c, 0, 64, 112
1, 32881, Note_on_c, 0, 87, 75
1, 32890, Control_c, 0, 64, 98
1, 32906, Note_on_c, 0, 81, 39
1, 32907, Note_on_c, 0, 75, 52
1, 32913, Control_c, 0, 64, 87
1, 32919, Note_on_c, 0, 78, 47
1, 32928, Control_c, 0, 64, 76
1, 32943, Control_c, 0, 64, 64
1, 32957, Control_c, 0, 64, 45
1, 32972, Control_c, 0, 64, 33
1, 32987, Control_c, 0, 64, 34
1, 33016, Control_c, 0, 64, 38
1, 33031, Control_c, 0, 64, 52
1, 33041, Note_off_c, 0, 85, 32
1, 33046, Control_c, 0, 64, 63
1, 33061, Control_c, 0, 64, 72
1, 33066, Note_off_c, 0, 81, 42
1, 33072, Note_on_c, 0, 83, 46
1, 33076, Control_c, 0, 64, 86
1, 33083, Note_off_c, 0, 75, 46
1, 33090, Control_c, 0, 64, 98
1, 33105, Control_c, 0, 64, 104
1, 33112, Note_off_c, 0, 78, 46
1, 33120, Control_c, 0, 64, 108
1, 33135, Control_c, 0, 64, 117
1, 33140, Note_off_c, 0, 83, 57
1, 33150, Control_c, 0, 64, 127
1, 33183, Note_on_c, 0, 81, 47
1, 33187, Note_on_c, 0, 75, 43
1, 33196, Note_on_c, 0, 78, 36
1, 33212, Note_off_c, 0, 75, 58
1, 33212, Note_off_c, 0, 81, 57
1, 33241, Note_off_c, 0, 78, 43
1, 33290, Note_on_c, 0, 78, 35
1, 33297, Note_on_c, 0, 81, 44
1, 33314, Note_on_c, 0, 75, 32
1, 33342, Note_off_c, 0, 81, 49
1, 33349, Note_off_c, 0, 75, 50
1, 33352, Note_off_c, 0, 78, 58
1, 33373, Note_on_c, 0, 83, 48
1, 33424, Note_off_c, 0, 83, 58
1, 33451, Note_on_c, 0, 75, 32
1, 33458, Note_on_c, 0, 81, 33
1, 33469, Note_on_c, 0, 78, 44
1, 33486, Note_off_c, 0, 75, 51
1, 33496, Note_off_c, 0, 81, 49
1, 33506, Note_off_c, 0, 78, 46
1, 33543, Note_on_c, 0, 75, 52
1, 33558, Note_on_c, 0, 78, 46
1, 33576, Note_on_c, 0, 81, 33
1, 33576, Note_off_c, 0, 75, 58
1, 33606, Note_off_c, 0, 78, 56
1, 33618, Note_off_c, 0, 81, 49
1, 33635, Note_on_c, 0, 83, 49
1, 33690, Note_off_c, 0, 83, 59
1, 33692, Control_c, 0, 67, 44
1, 33728, Note_on_c, 0, 81, 44
1, 33730, Note_on_c, 0, 78, 52
1, 33741, Note_on_c, 0, 75, 43
1, 33775, Note_off_c, 0, 81, 59
1, 33779, Note_off_c, 0, 75, 47
1, 33781, Control_c, 0, 67, 45
1, 33788, Note_off_c, 0, 78, 51
1, 33799, Note_on_c, 0, 83, 51
1, 33840, Control_c, 0, 67, 45
1, 33856, Note_off_c, 0, 83, 55
1, 33895, Note_on_c, 0, 75, 40
1, 33900, Note_on_c, 0, 81, 35
1, 33900, Control_c, 0, 67, 46
1, 33918, Note_on_c, 0, 78, 39
1, 33931, Note_off_c, 0, 75, 46
1, 33942, Note_off_c, 0, 81, 44
1, 33963, Note_off_c, 0, 78, 0
1, 33980, Note_on_c, 0, 75, 48
1, 33990, Note_on_c, 0, 78, 23
1, 33990, Note_on_c, 0, 81, 42
1, 34048, Note_off_c, 0, 75, 57
1, 34077, Note_off_c, 0, 81, 43
1, 34092, Control_c, 0, 64, 121
1, 34095, Note_on_c, 0, 85, 75
1, 34107, Control_c, 0, 64, 108
1, 34121, Note_on_c, 0, 83, 50
1, 34121, Control_c, 0, 64, 94
1, 34129, Note_off_c, 0, 78, 37
1, 34136, Control_c, 0, 64, 81
1, 34136, Control_c, 0, 67, 46
1, 34151, Control_c, 0, 64, 68
1, 34166, Control_c, 0, 64, 57
1, 34178, Note_off_c, 0, 83, 56
1, 34182, Control_c, 0, 64, 51
1, 34188, Note_off_c, 0, 87, 41
1, 34196, Control_c, 0, 64, 58
1, 34211, Control_c, 0, 64, 64
1, 34226, Note_on_c, 0, 78, 52
1, 34226, Control_c, 0, 64, 72
1, 34232, Note_on_c, 0, 73, 42
1, 34237, Note_on_c, 0, 81, 34
1, 34241, Control_c, 0, 64, 84
1, 34256, Control_c, 0, 64, 98
1, 34260, Note_off_c, 0, 73, 54
1, 34260, Note_off_c, 0, 78, 61
1, 34270, Control_c, 0, 64, 107
1, 34273, Note_off_c, 0, 81, 49
1, 34285, Control_c, 0, 64, 111
1, 34300, Control_c, 0, 64, 116
1, 34315, Control_c, 0, 64, 127
1, 34341, Note_on_c, 0, 73, 39
1, 34349, Note_on_c, 0, 81, 33
1, 34350, Note_on_c, 0, 78, 43
1, 34371, Note_off_c, 0, 73, 54
1, 34402, Note_off_c, 0, 81, 49
1, 34413, Note_off_c, 0, 78, 60
1, 34414, Note_on_c, 0, 83, 65
1, 34501, Note_off_c, 0, 83, 60
1, 34506, Note_on_c, 0, 90, 85
1, 34524, Note_on_c, 0, 81, 54
1, 34528, Note_on_c, 0, 78, 57
1, 34545, Control_c, 0, 64, 112
1, 34560, Control_c, 0, 64, 96
1, 34575, Control_c, 0, 64, 83
1, 34589, Control_c, 0, 64, 72
1, 34604, Control_c, 0, 64, 66
1, 34610, Note_off_c, 0, 78, 58
1, 34613, Note_off_c, 0, 81, 62
1, 34619, Control_c, 0, 64, 69
1, 34622, Note_on_c, 0, 83, 58
1, 34634, Control_c, 0, 64, 78
1, 34649, Control_c, 0, 64, 91
1, 34663, Control_c, 0, 64, 105
1, 34663, Control_c, 0, 67, 46
1, 34678, Control_c, 0, 64, 111
1, 34686, Note_off_c, 0, 83, 59
1, 34693, Control_c, 0, 64, 113
1, 34698, Note_on_c, 0, 81, 50
1, 34706, Note_on_c, 0, 78, 43
1, 34708, Control_c, 0, 64, 114
1, 34718, Note_off_c, 0, 85, 59
1, 34723, Control_c, 0, 64, 116
1, 34729, Note_off_c, 0, 81, 66
1, 34731, Note_off_c, 0, 78, 58
1, 34737, Control_c, 0, 64, 117
1, 34752, Control_c, 0, 64, 119
1, 34767, Control_c, 0, 64, 120
1, 34781, Control_c, 0, 64, 121
1, 34817, Note_on_c, 0, 78, 41
1, 34822, Note_on_c, 0, 81, 39
1, 34826, Control_c, 0, 64, 118
1, 34841, Control_c, 0, 64, 110
1, 34855, Control_c, 0, 64, 102
1, 34870, Control_c, 0, 64, 92
1, 34885, Control_c, 0, 64, 81
1, 34896, Note_on_c, 0, 89, 72
1, 34900, Control_c, 0, 64, 71
1, 34915, Control_c, 0, 64, 62
1, 34929, Control_c, 0, 64, 55
1, 34940, Note_on_c, 0, 77, 46
1, 34944, Control_c, 0, 64, 54
1, 34975, Control_c, 0, 64, 57
1, 34990, Control_c, 0, 64, 62
1, 35005, Control_c, 0, 64, 69
1, 35009, Note_off_c, 0, 77, 56
1, 35019, Control_c, 0, 64, 79
1, 35022, Note_off_c, 0, 81, 41
1, 35028, Note_on_c, 0, 83, 48
1, 35034, Control_c, 0, 64, 92
1, 35049, Control_c, 0, 64, 99
1, 35064, Control_c, 0, 64, 100
1, 35078, Control_c, 0, 64, 101
1, 35080, Note_off_c, 0, 78, 0
1, 35093, Note_off_c, 0, 83, 53
1, 35093, Control_c, 0, 64, 103
1, 35108, Control_c, 0, 64, 107
1, 35117, Poly_aftertouch_c, 0, 78, 127
1, 35123, Control_c, 0, 64, 110
1, 35126, Note_on_c, 0, 78, 22
1, 35138, Control_c, 0, 64, 114
1, 35141, Note_on_c, 0, 81, 51
1, 35143, Note_on_c, 0, 77, 43
1, 35160, Control_c, 0, 64, 116
1, 35175, Control_c, 0, 64, 118
1, 35180, Note_off_c, 0, 81, 62
1, 35191, Note_off_c, 0, 77, 48
1, 35191, Note_off_c, 0, 78, 55
1, 35205, Note_off_c, 0, 90, 30
1, 35245, Note_on_c, 0, 77, 49
1, 35257, Note_on_c, 0, 78, 32
1, 35277, Note_on_c, 0, 81, 44
1, 35280, Note_off_c, 0, 77, 58
1, 35363, Note_off_c, 0, 78, 0
1, 35384, Note_off_c, 0, 81, 0
1, 35397, Control_c, 0, 64, 117
1, 35400, Poly_aftertouch_c, 0, 78, 127
1, 35403, Note_on_c, 0, 87, 55
1, 35412, Control_c, 0, 64, 112
1, 35421, Note_on_c, 0, 81, 11
1, 35426, Note_on_c, 0, 75, 47
1, 35427, Control_c, 0, 64, 104
1, 35442, Control_c, 0, 64, 92
1, 35457, Control_c, 0, 64, 79
1, 35471, Control_c, 0, 64, 69
1, 35486, Control_c, 0, 64, 61
1, 35501, Control_c, 0, 64, 56
1, 35516, Control_c, 0, 64, 57
1, 35531, Control_c, 0, 64, 60
1, 35541, Note_off_c, 0, 81, 29
1, 35545, Control_c, 0, 64, 65
1, 35546, Note_on_c, 0, 83, 35
1, 35548, Note_off_c, 0, 75, 36
1, 35551, Note_off_c, 0, 89, 47
1, 35560, Control_c, 0, 64, 76
1, 35575, Control_c, 0, 64, 91
1, 35590, Control_c, 0, 64, 104
1, 35604, Control_c, 0, 64, 109
1, 35610, Note_off_c, 0, 83, 47
1, 35616, Poly_aftertouch_c, 0, 78, 0
1, 35619, Control_c, 0, 64, 111
1, 35633, Note_on_c, 0, 78, 37
1, 35634, Control_c, 0, 64, 115
1, 35637, Note_on_c, 0, 81, 43
1, 35649, Control_c, 0, 64, 127
1, 35652, Note_on_c, 0, 75, 49
1, 35676, Note_off_c, 0, 75, 57
1, 35681, Note_off_c, 0, 81, 60
1, 35737, Note_off_c, 0, 78, 0
1, 35737, Note_on_c, 0, 78, 17
1, 35746, Note_on_c, 0, 75, 42
1, 35752, Note_on_c, 0, 81, 48
1, 35752, Control_c, 0, 67, 46
1, 35793, Note_off_c, 0, 75, 50
1, 35798, Control_c, 0, 67, 46
1, 35805, Note_off_c, 0, 81, 59
1, 35823, Note_off_c, 0, 78, 52
1, 35839, Note_on_c, 0, 83, 48
1, 35901, Note_off_c, 0, 83, 55
1, 35905, Note_on_c, 0, 75, 49
1, 35907, Note_on_c, 0, 78, 36
1, 35909, Control_c, 0, 67, 47
1, 35931, Note_on_c, 0, 81, 41
1, 35939, Note_off_c, 0, 75, 62
1, 35939, Control_c, 0, 67, 46
1, 35954, Control_c, 0, 67, 45
1, 35955, Note_off_c, 0, 78, 59
1, 35961, Note_off_c, 0, 81, 52
1, 35983, Control_c, 0, 67, 47
1, 36017, Note_on_c, 0, 78, 40
1, 36023, Note_on_c, 0, 75, 51
1, 36051, Note_on_c, 0, 81, 30
1, 36058, Note_off_c, 0, 75, 56
1, 36094, Note_off_c, 0, 81, 49
1, 36100, Note_off_c, 0, 78, 50
1, 36104, Note_on_c, 0, 83, 54
1, 36163, Note_off_c, 0, 83, 56
1, 36190, Control_c, 0, 64, 112
1, 36200, Note_on_c, 0, 85, 67
1, 36205, Control_c, 0, 64, 98
1, 36208, Note_on_c, 0, 81, 42
1, 36215, Note_on_c, 0, 78, 49
1, 36220, Control_c, 0, 64, 82
1, 36225, Note_on_c, 0, 73, 44
1, 36235, Control_c, 0, 64, 68
1, 36250, Control_c, 0, 64, 54
1, 36265, Control_c, 0, 64, 48
1, 36280, Control_c, 0, 64, 57
1, 36282, Note_off_c, 0, 73, 45
1, 36283, Note_off_c, 0, 81, 37
1, 36294, Control_c, 0, 64, 65
1, 36309, Control_c, 0, 64, 75
1, 36310, Note_on_c, 0, 83, 48
1, 36324, Control_c, 0, 64, 88
1, 36339, Control_c, 0, 64, 100
1, 36344, Note_off_c, 0, 87, 58
1, 36354, Control_c, 0, 64, 103
1, 36368, Control_c, 0, 64, 106
1, 36379, Note_off_c, 0, 78, 0
1, 36383, Control_c, 0, 64, 110
1, 36388, Note_off_c, 0, 83, 57
1, 36393, Note_on_c, 0, 78, 47
1, 36395, Note_on_c, 0, 73, 53
1, 36398, Control_c, 0, 64, 118
1, 36408, Note_on_c, 0, 81, 51
1, 36413, Control_c, 0, 64, 127
1, 36420, Note_off_c, 0, 73, 61
1, 36432, Note_off_c, 0, 81, 58
1, 36435, Note_off_c, 0, 78, 56
1, 36442, Control_c, 0, 67, 47
1, 36457, Control_c, 0, 67, 48
1, 36471, Control_c, 0, 67, 48
1, 36483, Note_on_c, 0, 73, 64
1, 36487, Note_on_c, 0, 81, 51
1, 36495, Poly_aftertouch_c, 0, 78, 127
1, 36507, Note_off_c, 0, 73, 65
1, 36530, Control_c, 0, 64, 118
1, 36544, Note_off_c, 0, 81, 51
1, 36545, Control_c, 0, 64, 108
1, 36545, Control_c, 0, 67, 49
1, 36560, Control_c, 0, 64, 98
1, 36560, Note_on_c, 0, 87, 81
1, 36565, Poly_aftertouch_c, 0, 78, 0
1, 36576, Control_c, 0, 64, 87
1, 36589, Note_on_c, 0, 83, 60
1, 36591, Control_c, 0, 64, 76
1, 36605, Control_c, 0, 64, 63
1, 36620, Control_c, 0, 64, 49
1, 36635, Control_c, 0, 64, 49
1, 36655, Note_off_c, 0, 83, 59
1, 36657, Control_c, 0, 64, 56
1, 36672, Control_c, 0, 64, 63
1, 36673, Note_off_c, 0, 85, 61
1, 36682, Note_on_c, 0, 75, 53
1, 36685, Note_on_c, 0, 78, 59
1, 36687, Control_c, 0, 64, 72
1, 36690, Note_on_c, 0, 81, 45
1, 36702, Control_c, 0, 64, 87
1, 36702, Control_c, 0, 67, 49
1, 36707, Note_off_c, 0, 75, 58
1, 36715, Note_off_c, 0, 81, 61
1, 36715, Note_off_c, 0, 78, 64
1, 36717, Control_c, 0, 64, 98
1, 36731, Control_c, 0, 64, 100
1, 36746, Control_c, 0, 64, 100
1, 36761, Control_c, 0, 64, 102
1, 36771, Note_on_c, 0, 75, 56
1, 36776, Control_c, 0, 64, 104
1, 36776, Control_c, 0, 67, 50
1, 36783, Note_on_c, 0, 78, 54
1, 36791, Control_c, 0, 64, 110
1, 36795, Note_on_c, 0, 81, 46
1, 36805, Control_c, 0, 64, 114
1, 36820, Control_c, 0, 64, 116
1, 36834, Note_off_c, 0, 75, 60
1, 36835, Control_c, 0, 64, 117
1, 36858, Note_off_c, 0, 78, 56
1, 36867, Note_on_c, 0, 83, 54
1, 36870, Note_off_c, 0, 81, 58
1, 36923, Control_c, 0, 64, 116
1, 36938, Control_c, 0, 64, 112
1, 36953, Control_c, 0, 64, 107
1, 36959, Note_off_c, 0, 83, 62
1, 36968, Control_c, 0, 64, 100
1, 36968, Note_on_c, 0, 90, 79
1, 36983, Control_c, 0, 64, 90
1, 36983, Control_c, 0, 67, 51
1, 36995, Note_on_c, 0, 81, 54
1, 36998, Control_c, 0, 64, 80
1, 37001, Note_on_c, 0, 78, 50
1, 37013, Control_c, 0, 64, 70
1, 37028, Control_c, 0, 64, 61
1, 37042, Control_c, 0, 64, 51
1, 37057, Control_c, 0, 64, 52
1, 37072, Control_c, 0, 64, 56
1, 37076, Note_off_c, 0, 78, 56
1, 37087, Control_c, 0, 64, 63
1, 37088, Note_on_c, 0, 83, 51
1, 37096, Note_off_c, 0, 81, 39
1, 37102, Control_c, 0, 64, 70
1, 37116, Control_c, 0, 64, 81
1, 37131, Control_c, 0, 64, 92
1, 37138, Note_off_c, 0, 87, 62
1, 37143, Note_off_c, 0, 83, 54
1, 37146, Control_c, 0, 64, 95
1, 37175, Control_c, 0, 64, 97
1, 37178, Note_on_c, 0, 81, 53
1, 37189, Note_on_c, 0, 78, 40
1, 37190, Control_c, 0, 64, 99
1, 37190, Control_c, 0, 67, 51
1, 37205, Control_c, 0, 64, 101
1, 37210, Note_off_c, 0, 81, 64
1, 37229, Note_off_c, 0, 78, 47
1, 37236, Control_c, 0, 67, 52
1, 37280, Control_c, 0, 67, 52
1, 37285, Note_on_c, 0, 78, 34
1, 37295, Control_c, 0, 64, 100
1, 37310, Control_c, 0, 64, 98
1, 37310, Control_c, 0, 67, 53
1, 37311, Note_on_c, 0, 81, 42
1, 37324, Control_c, 0, 64, 94
1, 37339, Control_c, 0, 64, 89
1, 37339, Control_c, 0, 67, 54
1, 37354, Control_c, 0, 64, 80
1, 37354, Control_c, 0, 67, 56
1, 37370, Control_c, 0, 64, 71
1, 37370, Control_c, 0, 67, 59
1, 37371, Note_on_c, 0, 89, 60
1, 37383, Note_off_c, 0, 81, 37
1, 37385, Control_c, 0, 64, 62
1, 37385, Control_c, 0, 67, 61
1, 37407, Control_c, 0, 64, 54
1, 37407, Control_c, 0, 67, 63
1, 37421, Control_c, 0, 67, 64
1, 37426, Note_on_c, 0, 77, 31
1, 37436, Control_c, 0, 64, 56
1, 37436, Control_c, 0, 67, 65
1, 37451, Control_c, 0, 64, 61
1, 37451, Control_c, 0, 67, 66
1, 37466, Control_c, 0, 64, 67
1, 37466, Control_c, 0, 67, 66
1, 37481, Control_c, 0, 64, 76
1, 37481, Control_c, 0, 67, 67
1, 37485, Note_off_c, 0, 77, 49
1, 37496, Control_c, 0, 64, 87
1, 37496, Control_c, 0, 67, 69
1, 37499, Note_on_c, 0, 83, 56
1, 37511, Control_c, 0, 64, 93
1, 37511, Control_c, 0, 67, 71
1, 37526, Control_c, 0, 64, 93
1, 37526, Control_c, 0, 67, 73
1, 37530, Note_off_c, 0, 90, 38
1, 37541, Control_c, 0, 64, 95
1, 37541, Control_c, 0, 67, 75
1, 37553, Note_off_c, 0, 78, 0
1, 37555, Control_c, 0, 64, 97
1, 37555, Control_c, 0, 67, 77
1, 37565, Note_off_c, 0, 83, 55
1, 37570, Control_c, 0, 64, 99
1, 37570, Control_c, 0, 67, 80
1, 37576, Note_on_c, 0, 78, 34
1, 37584, Note_on_c, 0, 81, 40
1, 37585, Control_c, 0, 64, 101
1, 37585, Control_c, 0, 67, 81
1, 37591, Note_on_c, 0, 77, 47
1, 37599, Control_c, 0, 67, 83
1, 37614, Control_c, 0, 67, 85
1, 37615, Note_off_c, 0, 81, 58
1, 37617, Note_off_c, 0, 77, 58
1, 37618, Note_off_c, 0, 78, 64
1, 37629, Control_c, 0, 67, 87
1, 37644, Control_c, 0, 67, 89
1, 37659, Control_c, 0, 67, 91
1, 37673, Control_c, 0, 67, 93
1, 37688, Control_c, 0, 67, 96
1, 37698, Note_on_c, 0, 77, 33
1, 37698, Note_on_c, 0, 78, 43
1, 37703, Control_c, 0, 67, 99
1, 37718, Control_c, 0, 67, 102
1, 37722, Note_on_c, 0, 81, 35
1, 37728, Note_off_c, 0, 78, 55
1, 37731, Note_off_c, 0, 77, 53
1, 37733, Control_c, 0, 67, 106
1, 37747, Control_c, 0, 67, 109
1, 37751, Note_off_c, 0, 81, 54
1, 37762, Control_c, 0, 67, 112
1, 37777, Control_c, 0, 64, 100
1, 37777, Control_c, 0, 67, 115
1, 37792, Control_c, 0, 64, 98
1, 37792, Control_c, 0, 67, 119
1, 37806, Control_c, 0, 64, 94
1, 37806, Control_c, 0, 67, 123
1, 37821, Control_c, 0, 64, 89
1, 37821, Control_c, 0, 67, 126
1, 37836, Control_c, 0, 64, 81
1, 37836, Control_c, 0, 67, 127
1, 37843, Note_on_c, 0, 81, 38
1, 37845, Note_on_c, 0, 85, 49
1, 37851, Control_c, 0, 64, 73
1, 37861, Note_on_c, 0, 73, 50
1, 37866, Control_c, 0, 64, 66
1, 37880, Control_c, 0, 64, 59
1, 37883, Note_on_c, 0, 78, 17
1, 37895, Control_c, 0, 64, 52
1, 37910, Control_c, 0, 64, 51
1, 37925, Control_c, 0, 64, 52
1, 37940, Control_c, 0, 64, 57
1, 37944, Note_off_c, 0, 73, 50
1, 37955, Control_c, 0, 64, 64
1, 37958, Note_off_c, 0, 89, 34
1, 37969, Control_c, 0, 64, 71
1, 37976, Note_off_c, 0, 81, 46
1, 37982, Note_on_c, 0, 83, 42
1, 37984, Control_c, 0, 64, 81
1, 37995, Note_off_c, 0, 78, 41
1, 37998, Control_c, 0, 64, 90
1, 38013, Control_c, 0, 64, 95
1, 38028, Control_c, 0, 64, 98
1, 38029, Note_off_c, 0, 83, 54
1, 38043, Control_c, 0, 64, 103
1, 38058, Control_c, 0, 64, 112
1, 38071, Note_on_c, 0, 73, 42
1, 38072, Control_c, 0, 64, 127
1, 38083, Note_on_c, 0, 78, 30
1, 38091, Note_on_c, 0, 81, 30
1, 38106, Note_off_c, 0, 73, 47
1, 38155, Note_off_c, 0, 78, 0
1, 38155, Note_on_c, 0, 78, 6
1, 38161, Note_off_c, 0, 81, 0
1, 38161, Note_on_c, 0, 81, 21
1, 38170, Note_on_c, 0, 73, 42
1, 38208, Note_off_c, 0, 73, 48
1, 38256, Note_off_c, 0, 81, 38
1, 38256, Note_on_c, 0, 83, 46
1, 38302, Note_off_c, 0, 83, 55
1, 38313, Note_off_c, 0, 78, 0
1, 38330, Note_on_c, 0, 78, 36
1, 38333, Note_on_c, 0, 73, 39
1, 38348, Note_on_c, 0, 81, 23
1, 38375, Note_off_c, 0, 73, 45
1, 38426, Note_off_c, 0, 81, 0
1, 38429, Note_on_c, 0, 73, 46
1, 38439, Note_on_c, 0, 81, 42
1, 38444, Note_off_c, 0, 78, 0
1, 38444, Note_on_c, 0, 78, 8
1, 38488, Note_off_c, 0, 81, 64
1, 38500, Note_off_c, 0, 73, 59
1, 38516, Note_on_c, 0, 83, 49
1, 38517, Note_off_c, 0, 78, 55
1, 38539, Note_off_c, 0, 85, 56
1, 38549, Note_off_c, 0, 83, 64
1, 38633, Note_on_c, 0, 78, 49
1, 38637, Note_on_c, 0, 83, 51
1, 38646, Note_on_c, 0, 71, 43
1, 38673, Control_c, 0, 64, 104
1, 38688, Control_c, 0, 64, 87
1, 38703, Control_c, 0, 64, 74
1, 38717, Control_c, 0, 64, 64
1, 38724, Note_off_c, 0, 71, 53
1, 38728, Note_off_c, 0, 78, 53
1, 38732, Control_c, 0, 64, 57
1, 38746, Control_c, 0, 64, 61
1, 38748, Note_on_c, 0, 81, 45
1, 38761, Control_c, 0, 64, 67
1, 38776, Control_c, 0, 64, 76
1, 38791, Control_c, 0, 64, 86
1, 38802, Note_off_c, 0, 81, 58
1, 38806, Control_c, 0, 64, 92
1, 38820, Control_c, 0, 64, 93
1, 38835, Control_c, 0, 64, 95
1, 38841, Note_on_c, 0, 71, 47
1, 38843, Note_on_c, 0, 78, 53
1, 38850, Control_c, 0, 64, 97
1, 38865, Note_off_c, 0, 78, 61
1, 38865, Control_c, 0, 64, 98
1, 38867, Note_off_c, 0, 71, 56
1, 38880, Control_c, 0, 64, 99
1, 38902, Control_c, 0, 64, 99
1, 38932, Control_c, 0, 64, 100
1, 38946, Control_c, 0, 64, 100
1, 38950, Note_on_c, 0, 78, 58
1, 38956, Note_on_c, 0, 71, 21
1, 38970, Note_off_c, 0, 78, 65
1, 38996, Note_off_c, 0, 71, 53
1, 39022, Control_c, 0, 64, 100
1, 39037, Control_c, 0, 64, 99
1, 39051, Control_c, 0, 64, 95
1, 39055, Note_off_c, 0, 83, 37
1, 39066, Control_c, 0, 64, 86
1, 39081, Control_c, 0, 64, 75
1, 39084, Note_on_c, 0, 85, 51
1, 39096, Control_c, 0, 64, 64
1, 39106, Note_on_c, 0, 78, 26
1, 39111, Control_c, 0, 64, 52
1, 39114, Note_on_c, 0, 81, 39
1, 39117, Note_on_c, 0, 73, 46
1, 39125, Control_c, 0, 64, 47
1, 39140, Control_c, 0, 64, 51
1, 39155, Control_c, 0, 64, 57
1, 39170, Control_c, 0, 64, 64
1, 39185, Note_off_c, 0, 73, 53
1, 39185, Control_c, 0, 64, 73
1, 39199, Note_off_c, 0, 85, 58
1, 39199, Control_c, 0, 64, 85
1, 39214, Control_c, 0, 64, 96
1, 39229, Control_c, 0, 64, 99
1, 39232, Note_on_c, 0, 83, 48
1, 39238, Note_off_c, 0, 78, 42
1, 39243, Control_c, 0, 64, 101
1, 39249, Note_off_c, 0, 81, 41
1, 39258, Control_c, 0, 64, 105
1, 39273, Control_c, 0, 64, 111
1, 39276, Note_off_c, 0, 83, 59
1, 39288, Control_c, 0, 64, 115
1, 39303, Control_c, 0, 64, 120
1, 39317, Control_c, 0, 64, 127
1, 39318, Note_on_c, 0, 73, 47
1, 39341, Note_on_c, 0, 81, 28
1, 39343, Note_off_c, 0, 73, 58
1, 39349, Note_on_c, 0, 78, 25
1, 39374, Note_off_c, 0, 81, 50
1, 39391, Note_off_c, 0, 78, 48
1, 39428, Note_on_c, 0, 73, 53
1, 39461, Note_off_c, 0, 73, 63
1, 39469, Note_on_c, 0, 78, 16
1, 39512, Note_off_c, 0, 78, 54
1, 39555, Control_c, 0, 64, 118
1, 39569, Control_c, 0, 64, 111
1, 39584, Control_c, 0, 64, 103
1, 39599, Control_c, 0, 64, 94
1, 39613, Note_on_c, 0, 75, 43
1, 39614, Control_c, 0, 64, 85
1, 39629, Control_c, 0, 64, 74
1, 39651, Control_c, 0, 64, 62
1, 39666, Control_c, 0, 64, 47
1, 39681, Control_c, 0, 64, 43
1, 39696, Control_c, 0, 64, 44
1, 39711, Control_c, 0, 64, 51
1, 39722, Note_on_c, 0, 87, 76
1, 39725, Control_c, 0, 64, 62
1, 39726, Note_on_c, 0, 80, 55
1, 39736, Note_on_c, 0, 77, 32
1, 39740, Control_c, 0, 64, 74
1, 39755, Control_c, 0, 64, 96
1, 39770, Control_c, 0, 64, 127
1, 39774, Note_off_c, 0, 75, 56
1, 39795, Note_off_c, 0, 87, 64
1, 39838, Note_off_c, 0, 80, 56
1, 39864, Note_off_c, 0, 77, 46
1, 39869, Note_on_c, 0, 81, 39
1, 39967, Note_off_c, 0, 81, 59
1, 39972, Note_on_c, 0, 80, 51
1, 39977, Note_on_c, 0, 77, 41
1, 39994, Note_off_c, 0, 80, 65
1, 40006, Note_off_c, 0, 77, 57
1, 40066, Note_on_c, 0, 80, 65
1, 40106, Note_off_c, 0, 80, 56
1, 40144, Note_on_c, 0, 93, 54
1, 40229, Note_on_c, 0, 89, 61
1, 40239, Note_on_c, 0, 92, 52
1, 40252, Note_off_c, 0, 93, 41
1, 40263, Note_off_c, 0, 92, 59
1, 40267, Note_off_c, 0, 89, 59
1, 40302, Note_on_c, 0, 80, 60
1, 40329, Note_off_c, 0, 80, 68
1, 40394, Note_on_c, 0, 81, 59
1, 40409, Note_on_c, 0, 71, 62
1, 40470, Note_off_c, 0, 71, 58
1, 40485, Note_off_c, 0, 81, 59
1, 40505, Note_on_c, 0, 83, 76
1, 40521, Note_on_c, 0, 77, 47
1, 40521, Note_on_c, 0, 80, 44
1, 40554, Note_off_c, 0, 83, 61
1, 40564, Note_off_c, 0, 80, 52
1, 40593, Note_off_c, 0, 77, 61
1, 40603, Note_on_c, 0, 81, 56
1, 40690, Note_on_c, 0, 80, 40
1, 40701, Note_off_c, 0, 81, 50
1, 40711, Note_on_c, 0, 77, 51
1, 40739, Note_off_c, 0, 77, 58
1, 40743, Note_off_c, 0, 80, 63
1, 40772, Note_on_c, 0, 68, 61
1, 40799, Note_off_c, 0, 68, 68
1, 40867, Note_on_c, 0, 69, 62
1, 40925, Note_off_c, 0, 69, 58
1, 40946, Note_on_c, 0, 68, 51
1, 40951, Note_on_c, 0, 65, 50
1, 40978, Note_off_c, 0, 65, 56
1, 40978, Note_off_c, 0, 68, 68
1, 41061, Note_on_c, 0, 68, 48
1, 41083, Note_off_c, 0, 68, 63
1, 41115, Note_on_c, 0, 81, 54
1, 41166, Note_off_c, 0, 81, 59
1, 41222, Note_on_c, 0, 80, 43
1, 41225, Note_on_c, 0, 77, 46
1, 41257, Note_off_c, 0, 77, 53
1, 41285, Note_off_c, 0, 80, 59
1, 41302, Note_on_c, 0, 81, 48
1, 41348, Note_off_c, 0, 81, 63
1, 41356, Note_on_c, 0, 77, 51
1, 41377, Note_on_c, 0, 80, 51
1, 41380, Note_off_c, 0, 77, 64
1, 41396, Note_off_c, 0, 80, 64
1, 41462, Note_on_c, 0, 80, 65
1, 41481, Note_on_c, 0, 68, 48
1, 41489, Note_off_c, 0, 80, 68
1, 41532, Note_on_c, 0, 93, 71
1, 41539, Note_on_c, 0, 80, 82
1, 41558, Note_off_c, 0, 68, 65
1, 41578, Note_off_c, 0, 80, 61
1, 41606, Note_off_c, 0, 93, 62
1, 41628, Note_on_c, 0, 92, 61
1, 41654, Note_on_c, 0, 89, 44
1, 41662, Note_off_c, 0, 92, 61
1, 41681, Note_off_c, 0, 89, 54
1, 41696, Note_on_c, 0, 80, 66
1, 41719, Note_off_c, 0, 80, 68
1, 41789, Note_on_c, 0, 81, 56
1, 41835, Note_on_c, 0, 71, 65
1, 41870, Note_off_c, 0, 81, 64
1, 41905, Note_on_c, 0, 83, 84
1, 41913, Note_off_c, 0, 71, 65
1, 41916, Note_on_c, 0, 80, 56
1, 41925, Note_on_c, 0, 77, 55
1, 41927, Note_off_c, 0, 83, 66
1, 41949, Note_off_c, 0, 80, 66
1, 41963, Note_off_c, 0, 77, 61
1, 41996, Note_on_c, 0, 81, 50
1, 42049, Note_on_c, 0, 80, 58
1, 42058, Note_off_c, 0, 81, 56
1, 42122, Poly_aftertouch_c, 0, 77, 127
1, 42123, Note_off_c, 0, 80, 53
1, 42158, Note_on_c, 0, 68, 46
1, 42168, Poly_aftertouch_c, 0, 77, 0
1, 42185, Note_off_c, 0, 68, 57
1, 42228, Note_on_c, 0, 73, 68
1, 42280, Note_off_c, 0, 73, 64
1, 42283, Note_on_c, 0, 85, 81
1, 42304, Note_on_c, 0, 69, 57
1, 42328, Note_off_c, 0, 85, 62
1, 42374, Note_off_c, 0, 69, 52
1, 42395, Note_on_c, 0, 68, 38
1, 42396, Note_on_c, 0, 65, 33
1, 42425, Note_off_c, 0, 68, 56
1, 42432, Note_off_c, 0, 65, 53
1, 42510, Note_on_c, 0, 68, 47
1, 42522, Control_c, 0, 64, 125
1, 42531, Note_off_c, 0, 68, 62
1, 42536, Control_c, 0, 64, 122
1, 42551, Control_c, 0, 64, 119
1, 42566, Control_c, 0, 64, 115
1, 42575, Note_on_c, 0, 81, 50
1, 42581, Control_c, 0, 64, 110
1, 42595, Control_c, 0, 64, 106
1, 42610, Control_c, 0, 64, 100
1, 42625, Control_c, 0, 64, 95
1, 42647, Control_c, 0, 64, 89
1, 42662, Control_c, 0, 64, 81
1, 42677, Control_c, 0, 64, 71
1, 42692, Control_c, 0, 64, 50
1, 42697, Note_on_c, 0, 75, 53
1, 42703, Note_off_c, 0, 81, 60
1, 42706, Control_c, 0, 64, 0
1, 42736, Note_on_c, 0, 80, 48
1, 42741, Note_on_c, 0, 87, 76
1, 42748, Note_on_c, 0, 77, 45
1, 42751, Control_c, 0, 64, 49
1, 42766, Control_c, 0, 64, 67
1, 42773, Note_off_c, 0, 75, 62
1, 42781, Control_c, 0, 64, 88
1, 42796, Control_c, 0, 64, 127
1, 42801, Note_off_c, 0, 87, 63
1, 42818, Note_off_c, 0, 77, 52
1, 42820, Note_off_c, 0, 80, 61
1, 42849, Note_on_c, 0, 81, 48
1, 42893, Note_off_c, 0, 81, 63
1, 42932, Note_on_c, 0, 80, 47
1, 42963, Note_off_c, 0, 80, 64
1, 42980, Poly_aftertouch_c, 0, 77, 127
1, 43025, Poly_aftertouch_c, 0, 77, 0
1, 43051, Note_on_c, 0, 80, 45
1, 43072, Note_off_c, 0, 80, 61
1, 43102, Note_on_c, 0, 93, 63
1, 43157, Note_off_c, 0, 93, 60
1, 43185, Note_on_c, 0, 92, 58
1, 43192, Note_on_c, 0, 89, 53
1, 43217, Note_off_c, 0, 89, 62
1, 43220, Note_off_c, 0, 92, 64
1, 43265, Note_on_c, 0, 80, 58
1, 43282, Note_off_c, 0, 80, 65
1, 43337, Note_on_c, 0, 81, 56
1, 43361, Note_on_c, 0, 71, 51
1, 43419, Note_off_c, 0, 71, 57
1, 43419, Note_off_c, 0, 81, 63
1, 43456, Note_on_c, 0, 83, 73
1, 43458, Note_on_c, 0, 80, 43
1, 43464, Note_on_c, 0, 77, 50
1, 43485, Note_off_c, 0, 80, 56
1, 43494, Note_off_c, 0, 83, 59
1, 43495, Note_off_c, 0, 77, 63
1, 43541, Note_on_c, 0, 81, 56
1, 43586, Note_off_c, 0, 81, 45
1, 43590, Note_on_c, 0, 80, 44
1, 43608, Note_on_c, 0, 77, 48
1, 43636, Note_off_c, 0, 80, 62
1, 43649, Note_off_c, 0, 77, 57
1, 43690, Note_on_c, 0, 68, 49
1, 43714, Note_off_c, 0, 68, 59
1, 43786, Note_on_c, 0, 69, 51
1, 43832, Note_off_c, 0, 69, 54
1, 43837, Note_on_c, 0, 68, 41
1, 43847, Note_on_c, 0, 65, 50
1, 43874, Note_off_c, 0, 65, 61
1, 43881, Note_off_c, 0, 68, 65
1, 43948, Note_on_c, 0, 68, 63
1, 43976, Note_off_c, 0, 68, 69
1, 44020, Note_on_c, 0, 81, 62
1, 44066, Note_off_c, 0, 81, 61
1, 44102, Note_on_c, 0, 80, 50
1, 44115, Note_on_c, 0, 77, 54
1, 44157, Note_off_c, 0, 77, 61
1, 44171, Note_off_c, 0, 80, 60
1, 44200, Note_on_c, 0, 81, 54
1, 44240, Note_off_c, 0, 81, 63
1, 44262, Note_on_c, 0, 80, 56
1, 44262, Note_on_c, 0, 77, 43
1, 44290, Note_off_c, 0, 77, 58
1, 44292, Note_off_c, 0, 80, 66
1, 44362, Note_on_c, 0, 68, 49
1, 44367, Note_on_c, 0, 80, 49
1, 44382, Control_c, 0, 64, 109
1, 44388, Note_off_c, 0, 80, 61
1, 44397, Control_c, 0, 64, 93
1, 44412, Control_c, 0, 64, 87
1, 44427, Control_c, 0, 64, 91
1, 44432, Note_on_c, 0, 93, 65
1, 44441, Control_c, 0, 64, 108
1, 44449, Note_on_c, 0, 80, 70
1, 44451, Note_off_c, 0, 68, 65
1, 44456, Control_c, 0, 64, 127
1, 44473, Note_off_c, 0, 80, 69
1, 44498, Note_off_c, 0, 93, 62
1, 44522, Note_on_c, 0, 92, 62
1, 44529, Note_on_c, 0, 89, 52
1, 44544, Note_off_c, 0, 92, 64
1, 44551, Note_off_c, 0, 89, 59
1, 44587, Note_on_c, 0, 80, 47
1, 44607, Note_off_c, 0, 80, 61
1, 44662, Note_on_c, 0, 81, 66
1, 44719, Note_on_c, 0, 71, 59
1, 44751, Note_off_c, 0, 81, 64
1, 44780, Note_on_c, 0, 80, 56
1, 44782, Note_on_c, 0, 83, 86
1, 44788, Note_off_c, 0, 71, 64
1, 44796, Note_on_c, 0, 77, 55
1, 44806, Note_off_c, 0, 83, 65
1, 44815, Note_off_c, 0, 80, 62
1, 44844, Note_off_c, 0, 77, 60
1, 44862, Note_on_c, 0, 81, 54
1, 44912, Note_off_c, 0, 81, 48
1, 44938, Note_on_c, 0, 80, 54
1, 44977, Note_on_c, 0, 77, 43
1, 45002, Note_off_c, 0, 77, 58
1, 45006, Note_off_c, 0, 80, 64
1, 45040, Note_on_c, 0, 68, 48
1, 45062, Note_off_c, 0, 68, 61
1, 45103, Poly_aftertouch_c, 0, 75, 0
1, 45146, Note_on_c, 0, 73, 62
1, 45201, Note_on_c, 0, 69, 59
1, 45226, Note_on_c, 0, 85, 74
1, 45254, Note_off_c, 0, 73, 62
1, 45274, Note_off_c, 0, 85, 59
1, 45308, Note_on_c, 0, 65, 51
1, 45312, Note_on_c, 0, 68, 46
1, 45336, Note_off_c, 0, 69, 52
1, 45350, Note_off_c, 0, 65, 60
1, 45366, Note_off_c, 0, 68, 59
1, 45476, Note_on_c, 0, 68, 56
1, 45532, Note_off_c, 0, 68, 59
1, 45577, Note_on_c, 0, 81, 52
1, 45613, Note_off_c, 0, 81, 63
1, 45777, Control_c, 0, 64, 122
1, 45792, Control_c, 0, 64, 118
1, 45793, Note_on_c, 0, 76, 38
1, 45807, Control_c, 0, 64, 115
1, 45821, Control_c, 0, 64, 112
1, 45836, Control_c, 0, 64, 110
1, 45851, Control_c, 0, 64, 107
1, 45866, Control_c, 0, 64, 104
1, 45879, Note_on_c, 0, 80, 40
1, 45881, Control_c, 0, 64, 100
1, 45895, Control_c, 0, 64, 97
1, 45910, Control_c, 0, 64, 93
1, 45919, Note_on_c, 0, 61, 37
1, 45925, Control_c, 0, 64, 88
1, 45939, Control_c, 0, 64, 85
1, 45954, Control_c, 0, 64, 81
1, 45969, Control_c, 0, 64, 77
1, 45984, Control_c, 0, 64, 73
1, 45999, Control_c, 0, 64, 68
1, 46013, Control_c, 0, 64, 61
1, 46028, Control_c, 0, 64, 54
1, 46039, Note_on_c, 0, 87, 56
1, 46043, Control_c, 0, 64, 50
1, 46058, Control_c, 0, 64, 45
1, 46073, Control_c, 0, 64, 37
1, 46087, Control_c, 0, 64, 31
1, 46117, Control_c, 0, 64, 38
1, 46131, Control_c, 0, 64, 53
1, 46146, Control_c, 0, 64, 64
1, 46163, Control_c, 0, 64, 71
1, 46177, Control_c, 0, 64, 80
1, 46192, Control_c, 0, 64, 88
1, 46208, Control_c, 0, 64, 94
1, 46215, Note_on_c, 0, 64, 31
1, 46223, Control_c, 0, 64, 99
1, 46237, Control_c, 0, 64, 108
1, 46252, Control_c, 0, 64, 120
1, 46253, Note_off_c, 0, 61, 43
1, 46267, Control_c, 0, 64, 127
1, 46300, Note_on_c, 0, 66, 35
1, 46307, Note_off_c, 0, 64, 32
1, 46354, Note_off_c, 0, 66, 43
1, 46364, Note_on_c, 0, 68, 45
1, 46424, Note_off_c, 0, 68, 62
1, 46439, Note_on_c, 0, 70, 51
1, 46471, Note_off_c, 0, 70, 63
1, 46481, Note_on_c, 0, 85, 67
1, 46483, Note_off_c, 0, 76, 43
1, 46555, Note_on_c, 0, 73, 50
1, 46558, Note_off_c, 0, 87, 62
1, 46572, Note_off_c, 0, 80, 65
1, 46577, Note_off_c, 0, 85, 64
1, 46620, Note_off_c, 0, 73, 62
1, 46625, Note_on_c, 0, 76, 53
1, 46700, Note_on_c, 0, 78, 59
1, 46704, Note_off_c, 0, 76, 50
1, 46730, Note_off_c, 0, 78, 67
1, 46796, Note_on_c, 0, 80, 68
1, 46870, Note_on_c, 0, 78, 58
1, 46941, Note_on_c, 0, 76, 53
1, 46994, Note_on_c, 0, 73, 55
1, 47076, Note_on_c, 0, 70, 50
1, 47086, Note_off_c, 0, 73, 60
1, 47094, Note_off_c, 0, 76, 58
1, 47115, Note_off_c, 0, 70, 60
1, 47152, Note_on_c, 0, 68, 52
1, 47192, Note_off_c, 0, 78, 56
1, 47197, Note_off_c, 0, 68, 59
1, 47205, Note_on_c, 0, 66, 54
1, 47269, Note_off_c, 0, 80, 65
1, 47292, Note_on_c, 0, 64, 48
1, 47300, Note_off_c, 0, 66, 53
1, 47333, Note_off_c, 0, 64, 61
1, 47356, Note_on_c, 0, 61, 56
1, 47363, Note_on_c, 0, 82, 78
1, 47429, Note_off_c, 0, 61, 58
1, 47461, Note_on_c, 0, 66, 50
1, 47547, Note_on_c, 0, 68, 52
1, 47547, Note_off_c, 0, 66, 59
1, 47587, Note_off_c, 0, 68, 61
1, 47598, Note_off_c, 0, 82, 61
1, 47599, Note_on_c, 0, 70, 54
1, 47639, Note_off_c, 0, 70, 60
1, 47686, Note_on_c, 0, 76, 43
1, 47691, Note_on_c, 0, 83, 81
1, 47763, Note_off_c, 0, 76, 40
1, 47765, Note_on_c, 0, 70, 51
1, 47844, Note_on_c, 0, 68, 38
1, 47888, Note_off_c, 0, 68, 60
1, 47889, Note_off_c, 0, 70, 35
1, 47905, Note_on_c, 0, 66, 47
1, 47932, Note_off_c, 0, 66, 64
1, 48097, Control_c, 0, 64, 115
1, 48112, Control_c, 0, 64, 106
1, 48127, Control_c, 0, 64, 98
1, 48141, Control_c, 0, 64, 89
1, 48147, Note_on_c, 0, 58, 36
1, 48156, Control_c, 0, 64, 80
1, 48171, Control_c, 0, 64, 70
1, 48186, Control_c, 0, 64, 59
1, 48200, Note_on_c, 0, 84, 58
1, 48200, Control_c, 0, 64, 39
1, 48205, Note_on_c, 0, 72, 44
1, 48205, Note_on_c, 0, 76, 41
1, 48211, Note_on_c, 0, 80, 53
1, 48215, Control_c, 0, 64, 33
1, 48230, Control_c, 0, 64, 28
1, 48235, Note_off_c, 0, 83, 60
1, 48245, Control_c, 0, 64, 0
1, 48305, Control_c, 0, 64, 45
1, 48319, Control_c, 0, 64, 65
1, 48334, Control_c, 0, 64, 76
1, 48342, Note_off_c, 0, 84, 61
1, 48346, Note_off_c, 0, 80, 64
1, 48349, Control_c, 0, 64, 93
1, 48349, Control_c, 0, 67, 126
1, 48355, Note_off_c, 0, 76, 52
1, 48364, Control_c, 0, 64, 109
1, 48364, Control_c, 0, 67, 125
1, 48374, Note_off_c, 0, 72, 62
1, 48379, Control_c, 0, 64, 127
1, 48391, Note_on_c, 0, 60, 36
1, 48423, Control_c, 0, 67, 125
1, 48438, Control_c, 0, 67, 126
1, 48458, Note_off_c, 0, 58, 42
1, 48468, Control_c, 0, 67, 126
1, 48513, Note_on_c, 0, 68, 40
1, 48541, Control_c, 0, 67, 126
1, 48561, Note_off_c, 0, 60, 45
1, 48567, Note_off_c, 0, 68, 63
1, 48638, Note_on_c, 0, 64, 34
1, 48706, Note_on_c, 0, 68, 45
1, 48713, Control_c, 0, 67, 125
1, 48760, Note_on_c, 0, 72, 53
1, 48787, Note_off_c, 0, 64, 22
1, 48797, Note_off_c, 0, 72, 63
1, 48803, Note_off_c, 0, 68, 45
1, 48811, Note_on_c, 0, 76, 52
1, 48846, Note_off_c, 0, 76, 57
1, 48872, Note_on_c, 0, 63, 54
1, 48877, Note_on_c, 0, 75, 56
1, 48915, Note_off_c, 0, 75, 62
1, 48917, Note_off_c, 0, 63, 60
1, 48950, Control_c, 0, 67, 126
1, 48971, Note_on_c, 0, 64, 32
1, 48979, Control_c, 0, 67, 125
1, 49003, Note_off_c, 0, 64, 54
1, 49009, Control_c, 0, 67, 125
1, 49020, Note_on_c, 0, 68, 57
1, 49024, Control_c, 0, 67, 126
1, 49053, Control_c, 0, 67, 125
1, 49068, Control_c, 0, 67, 125
1, 49080, Note_off_c, 0, 68, 63
1, 49083, Control_c, 0, 67, 126
1, 49084, Note_on_c, 0, 72, 54
1, 49115, Note_off_c, 0, 72, 66
1, 49127, Control_c, 0, 67, 125
1, 49157, Control_c, 0, 67, 126
1, 49172, Note_on_c, 0, 72, 54
1, 49202, Control_c, 0, 67, 125
1, 49204, Note_off_c, 0, 72, 51
1, 49231, Control_c, 0, 67, 126
1, 49239, Note_on_c, 0, 76, 51
1, 49261, Control_c, 0, 67, 125
1, 49263, Note_off_c, 0, 76, 59
1, 49274, Note_on_c, 0, 80, 59
1, 49305, Control_c, 0, 67, 126
1, 49329, Note_on_c, 0, 76, 61
1, 49344, Note_off_c, 0, 80, 58
1, 49351, Control_c, 0, 67, 125
1, 49360, Note_off_c, 0, 76, 62
1, 49393, Note_on_c, 0, 72, 45
1, 49419, Note_off_c, 0, 72, 56
1, 49485, Note_on_c, 0, 72, 46
1, 49542, Note_on_c, 0, 68, 45
1, 49582, Note_off_c, 0, 68, 61
1, 49594, Note_on_c, 0, 60, 43
1, 49599, Note_on_c, 0, 64, 23
1, 49622, Note_off_c, 0, 72, 37
1, 49625, Note_off_c, 0, 60, 63
1, 49638, Note_off_c, 0, 64, 54
1, 49726, Note_on_c, 0, 64, 34
1, 49759, Note_off_c, 0, 64, 53
1, 49768, Note_on_c, 0, 68, 60
1, 49803, Note_off_c, 0, 68, 66
1, 49832, Control_c, 0, 67, 126
1, 49905, Control_c, 0, 67, 126
1, 49915, Note_on_c, 0, 76, 61
1, 49917, Poly_aftertouch_c, 0, 72, 0
1, 49920, Control_c, 0, 67, 127
1, 49935, Control_c, 0, 67, 127
1, 50003, Note_on_c, 0, 80, 56
1, 50150, Note_on_c, 0, 56, 37
1, 50152, Control_c, 0, 64, 114
1, 50167, Control_c, 0, 64, 105
1, 50182, Control_c, 0, 64, 96
1, 50197, Control_c, 0, 64, 85
1, 50211, Control_c, 0, 64, 74
1, 50226, Control_c, 0, 64, 65
1, 50241, Control_c, 0, 64, 56
1, 50256, Control_c, 0, 64, 49
1, 50271, Control_c, 0, 64, 47
1, 50278, Note_on_c, 0, 87, 67
1, 50285, Control_c, 0, 64, 43
1, 50300, Control_c, 0, 64, 38
1, 50315, Control_c, 0, 64, 37
1, 50329, Control_c, 0, 64, 40
1, 50344, Control_c, 0, 64, 51
1, 50359, Control_c, 0, 64, 61
1, 50374, Control_c, 0, 64, 67
1, 50389, Control_c, 0, 64, 75
1, 50403, Control_c, 0, 64, 82
1, 50418, Control_c, 0, 64, 90
1, 50433, Control_c, 0, 64, 98
1, 50448, Control_c, 0, 64, 109
1, 50460, Note_on_c, 0, 58, 35
1, 50463, Control_c, 0, 64, 127
1, 50538, Note_off_c, 0, 56, 44
1, 50575, Note_on_c, 0, 61, 43
1, 50588, Note_off_c, 0, 58, 35
1, 50613, Note_off_c, 0, 61, 60
1, 50659, Note_on_c, 0, 64, 43
1, 50676, Note_off_c, 0, 76, 34
1, 50707, Note_off_c, 0, 64, 53
1, 50773, Note_on_c, 0, 85, 63
1, 50791, Note_on_c, 0, 68, 48
1, 50899, Note_on_c, 0, 70, 50
1, 50904, Note_off_c, 0, 87, 62
1, 50943, Note_off_c, 0, 80, 63
1, 50953, Note_off_c, 0, 85, 63
1, 50958, Control_c, 0, 67, 127
1, 50980, Note_on_c, 0, 73, 49
1, 51062, Note_on_c, 0, 76, 57
1, 51077, Control_c, 0, 67, 126
1, 51098, Note_off_c, 0, 76, 59
1, 51100, Note_off_c, 0, 73, 52
1, 51120, Note_off_c, 0, 70, 57
1, 51139, Note_on_c, 0, 80, 65
1, 51151, Control_c, 0, 67, 126
1, 51169, Note_off_c, 0, 68, 46
1, 51214, Note_on_c, 0, 76, 56
1, 51235, Note_on_c, 0, 78, 23
1, 51255, Control_c, 0, 67, 125
1, 51285, Note_off_c, 0, 78, 45
1, 51300, Note_on_c, 0, 73, 50
1, 51329, Control_c, 0, 67, 125
1, 51343, Note_on_c, 0, 70, 61
1, 51388, Control_c, 0, 67, 124
1, 51390, Note_on_c, 0, 68, 46
1, 51393, Note_off_c, 0, 73, 54
1, 51395, Note_off_c, 0, 70, 60
1, 51400, Note_off_c, 0, 76, 50
1, 51436, Note_off_c, 0, 68, 64
1, 51462, Control_c, 0, 67, 124
1, 51480, Note_on_c, 0, 64, 49
1, 51492, Control_c, 0, 67, 123
1, 51506, Control_c, 0, 67, 121
1, 51521, Control_c, 0, 67, 119
1, 51530, Note_off_c, 0, 64, 55
1, 51536, Control_c, 0, 67, 118
1, 51551, Control_c, 0, 67, 117
1, 51567, Note_on_c, 0, 61, 55
1, 51578, Note_off_c, 0, 80, 63
1, 51614, Note_off_c, 0, 61, 59
1, 51633, Note_on_c, 0, 58, 61
1, 51674, Note_off_c, 0, 58, 63
1, 51707, Note_on_c, 0, 56, 56
1, 51716, Note_on_c, 0, 82, 77
1, 51806, Note_on_c, 0, 58, 56
1, 51809, Note_off_c, 0, 56, 46
1, 51870, Control_c, 0, 67, 117
1, 51876, Note_off_c, 0, 58, 54
1, 51879, Note_on_c, 0, 61, 57
1, 51918, Note_off_c, 0, 61, 62
1, 51921, Note_off_c, 0, 82, 64
1, 51951, Note_on_c, 0, 64, 55
1, 51959, Control_c, 0, 67, 117
1, 52016, Note_on_c, 0, 83, 86
1, 52062, Note_on_c, 0, 71, 53
1, 52075, Note_off_c, 0, 64, 35
1, 52122, Note_off_c, 0, 71, 64
1, 52126, Note_on_c, 0, 68, 61
1, 52165, Note_off_c, 0, 68, 63
1, 52197, Note_on_c, 0, 64, 51
1, 52301, Note_off_c, 0, 64, 36
1, 52308, Note_on_c, 0, 61, 62
1, 52344, Control_c, 0, 64, 117
1, 52359, Control_c, 0, 64, 110
1, 52381, Control_c, 0, 64, 103
1, 52396, Control_c, 0, 64, 97
1, 52411, Control_c, 0, 64, 93
1, 52426, Control_c, 0, 64, 88
1, 52441, Control_c, 0, 64, 82
1, 52455, Control_c, 0, 64, 77
1, 52470, Control_c, 0, 64, 71
1, 52478, Note_off_c, 0, 61, 44
1, 52485, Control_c, 0, 64, 65
1, 52487, Note_on_c, 0, 52, 45
1, 52499, Control_c, 0, 64, 62
1, 52514, Control_c, 0, 64, 57
1, 52514, Control_c, 0, 67, 117
1, 52529, Control_c, 0, 64, 51
1, 52530, Note_on_c, 0, 84, 60
1, 52532, Note_on_c, 0, 80, 51
1, 52536, Note_on_c, 0, 72, 49
1, 52544, Note_on_c, 0, 76, 50
1, 52544, Control_c, 0, 64, 38
1, 52560, Note_off_c, 0, 83, 60
1, 52560, Control_c, 0, 64, 0
1, 52649, Control_c, 0, 64, 50
1, 52649, Control_c, 0, 67, 117
1, 52664, Control_c, 0, 64, 67
1, 52678, Control_c, 0, 64, 77
1, 52685, Note_off_c, 0, 76, 59
1, 52687, Note_off_c, 0, 84, 64
1, 52690, Note_off_c, 0, 80, 64
1, 52693, Control_c, 0, 64, 91
1, 52700, Note_on_c, 0, 56, 45
1, 52703, Note_off_c, 0, 72, 64
1, 52708, Control_c, 0, 64, 103
1, 52722, Control_c, 0, 64, 119
1, 52737, Control_c, 0, 64, 127
1, 52767, Note_off_c, 0, 52, 36
1, 52794, Note_on_c, 0, 58, 53
1, 52797, Control_c, 0, 67, 118
1, 52824, Note_off_c, 0, 56, 52
1, 52827, Note_off_c, 0, 58, 64
1, 52856, Control_c, 0, 67, 118
1, 52886, Control_c, 0, 67, 119
1, 52899, Note_on_c, 0, 64, 55
1, 52965, Note_on_c, 0, 68, 45
1, 53005, Note_on_c, 0, 72, 55
1, 53005, Note_off_c, 0, 64, 39
1, 53056, Note_off_c, 0, 68, 59
1, 53060, Note_on_c, 0, 76, 48
1, 53065, Note_off_c, 0, 72, 58
1, 53094, Note_off_c, 0, 76, 58
1, 53094, Control_c, 0, 67, 118
1, 53124, Note_on_c, 0, 63, 62
1, 53130, Note_on_c, 0, 75, 68
1, 53158, Note_off_c, 0, 75, 66
1, 53159, Note_off_c, 0, 63, 63
1, 53175, Control_c, 0, 67, 118
1, 53224, Note_on_c, 0, 64, 48
1, 53253, Note_off_c, 0, 64, 58
1, 53264, Note_on_c, 0, 68, 61
1, 53265, Control_c, 0, 67, 117
1, 53323, Note_off_c, 0, 68, 64
1, 53334, Note_on_c, 0, 72, 50
1, 53355, Note_off_c, 0, 72, 62
1, 53411, Note_on_c, 0, 72, 66
1, 53443, Note_off_c, 0, 72, 61
1, 53458, Control_c, 0, 67, 117
1, 53469, Note_on_c, 0, 76, 60
1, 53494, Note_off_c, 0, 76, 64
1, 53509, Note_on_c, 0, 80, 63
1, 53532, Control_c, 0, 67, 116
1, 53567, Note_off_c, 0, 80, 63
1, 53569, Note_on_c, 0, 76, 64
1, 53591, Note_off_c, 0, 76, 63
1, 53593, Note_on_c, 0, 72, 68
1, 53617, Note_off_c, 0, 72, 68
1, 53679, Note_on_c, 0, 72, 65
1, 53694, Control_c, 0, 67, 116
1, 53721, Note_on_c, 0, 68, 58
1, 53739, Control_c, 0, 67, 115
1, 53768, Control_c, 0, 67, 113
1, 53779, Note_on_c, 0, 64, 48
1, 53783, Control_c, 0, 67, 112
1, 53798, Control_c, 0, 67, 111
1, 53802, Note_off_c, 0, 64, 63
1, 53812, Control_c, 0, 67, 109
1, 53819, Note_on_c, 0, 60, 55
1, 53824, Note_off_c, 0, 68, 62
1, 53827, Control_c, 0, 67, 108
1, 53842, Control_c, 0, 67, 107
1, 53855, Note_off_c, 0, 60, 65
1, 53857, Control_c, 0, 67, 105
1, 53879, Control_c, 0, 67, 103
1, 53892, Note_off_c, 0, 72, 0
1, 53894, Control_c, 0, 67, 101
1, 53909, Control_c, 0, 67, 99
1, 53914, Note_on_c, 0, 64, 50
1, 53924, Control_c, 0, 67, 95
1, 53932, Poly_aftertouch_c, 0, 72, 0
1, 53938, Control_c, 0, 67, 92
1, 53953, Control_c, 0, 67, 89
1, 53959, Note_off_c, 0, 64, 60
1, 53962, Note_on_c, 0, 68, 60
1, 53968, Control_c, 0, 67, 85
1, 53983, Control_c, 0, 67, 82
1, 53998, Control_c, 0, 67, 78
1, 54013, Control_c, 0, 67, 73
1, 54015, Note_off_c, 0, 68, 65
1, 54027, Control_c, 0, 67, 69
1, 54033, Note_on_c, 0, 72, 53
1, 54042, Control_c, 0, 67, 65
1, 54053, Note_off_c, 0, 72, 60
1, 54057, Control_c, 0, 67, 61
1, 54071, Control_c, 0, 67, 59
1, 54086, Control_c, 0, 67, 56
1, 54101, Control_c, 0, 67, 52
1, 54110, Note_on_c, 0, 76, 61
1, 54116, Control_c, 0, 67, 49
1, 54131, Control_c, 0, 67, 46
1, 54147, Control_c, 0, 67, 41
1, 54162, Control_c, 0, 67, 35
1, 54171, Note_off_c, 0, 76, 62
1, 54176, Control_c, 0, 67, 32
1, 54186, Note_on_c, 0, 80, 69
1, 54206, Control_c, 0, 67, 32
1, 54216, Note_off_c, 0, 80, 59
1, 54354, Control_c, 0, 64, 123
1, 54368, Control_c, 0, 64, 111
1, 54373, Note_on_c, 0, 75, 41
1, 54383, Control_c, 0, 64, 103
1, 54398, Control_c, 0, 64, 97
1, 54413, Control_c, 0, 64, 92
1, 54428, Control_c, 0, 64, 87
1, 54430, Note_on_c, 0, 49, 36
1, 54442, Control_c, 0, 64, 84
1, 54449, Note_on_c, 0, 80, 58
1, 54457, Control_c, 0, 64, 81
1, 54472, Control_c, 0, 64, 76
1, 54487, Control_c, 0, 64, 71
1, 54502, Control_c, 0, 64, 64
1, 54517, Control_c, 0, 64, 57
1, 54529, Note_on_c, 0, 87, 63
1, 54532, Control_c, 0, 64, 52
1, 54547, Control_c, 0, 64, 50
1, 54561, Control_c, 0, 64, 42
1, 54576, Control_c, 0, 64, 38
1, 54591, Control_c, 0, 64, 39
1, 54591, Control_c, 0, 67, 31
1, 54606, Control_c, 0, 64, 45
1, 54628, Control_c, 0, 64, 57
1, 54643, Control_c, 0, 64, 66
1, 54643, Control_c, 0, 67, 31
1, 54657, Control_c, 0, 64, 74
1, 54657, Control_c, 0, 67, 30
1, 54672, Control_c, 0, 64, 85
1, 54672, Control_c, 0, 67, 28
1, 54687, Control_c, 0, 64, 93
1, 54687, Control_c, 0, 67, 25
1, 54702, Control_c, 0, 64, 100
1, 54702, Control_c, 0, 67, 23
1, 54716, Note_on_c, 0, 54, 36
1, 54716, Control_c, 0, 64, 117
1, 54716, Control_c, 0, 67, 20
1, 54731, Control_c, 0, 64, 127
1, 54731, Control_c, 0, 67, 17
1, 54738, Note_off_c, 0, 49, 42
1, 54744, Note_off_c, 0, 87, 56
1, 54746, Control_c, 0, 67, 13
1, 54761, Control_c, 0, 67, 8
1, 54776, Control_c, 0, 67, 0
1, 54785, Note_off_c, 0, 75, 42
1, 54790, Note_on_c, 0, 56, 44
1, 54849, Note_off_c, 0, 54, 33
1, 54866, Note_on_c, 0, 58, 45
1, 54905, Note_off_c, 0, 56, 35
1, 54922, Note_off_c, 0, 58, 60
1, 54942, Note_on_c, 0, 85, 74
1, 54949, Note_on_c, 0, 64, 46
1, 54954, Note_on_c, 0, 73, 63
1, 54982, Note_off_c, 0, 64, 57
1, 55035, Note_off_c, 0, 80, 64
1, 55035, Note_off_c, 0, 85, 64
1, 55053, Note_on_c, 0, 66, 57
1, 55125, Note_on_c, 0, 68, 51
1, 55165, Note_on_c, 0, 70, 61
1, 55173, Note_off_c, 0, 73, 48
1, 55230, Note_on_c, 0, 80, 66
1, 55250, Note_on_c, 0, 76, 64
1, 55274, Note_off_c, 0, 66, 35
1, 55281, Note_off_c, 0, 76, 64
1, 55283, Note_off_c, 0, 68, 55
1, 55299, Note_on_c, 0, 78, 60
1, 55310, Note_off_c, 0, 70, 56
1, 55354, Note_off_c, 0, 80, 62
1, 55367, Note_on_c, 0, 73, 53
1, 55390, Note_off_c, 0, 78, 63
1, 55399, Note_off_c, 0, 73, 64
1, 55406, Note_on_c, 0, 68, 65
1, 55438, Note_off_c, 0, 68, 64
1, 55486, Note_on_c, 0, 66, 61
1, 55505, Note_off_c, 0, 66, 65
1, 55521, Note_on_c, 0, 64, 48
1, 55556, Note_off_c, 0, 64, 56
1, 55572, Note_on_c, 0, 58, 64
1, 55632, Note_off_c, 0, 58, 62
1, 55645, Note_on_c, 0, 56, 52
1, 55669, Note_on_c, 0, 54, 62
1, 55687, Note_off_c, 0, 56, 59
1, 55758, Note_off_c, 0, 54, 62
1, 55775, Note_on_c, 0, 49, 61
1, 55808, Note_on_c, 0, 82, 81
1, 55813, Note_on_c, 0, 70, 71
1, 55869, Note_off_c, 0, 49, 60
1, 55879, Note_on_c, 0, 54, 49
1, 55915, Note_on_c, 0, 56, 58
1, 55935, Note_off_c, 0, 54, 55
1, 55954, Note_on_c, 0, 58, 61
1, 55960, Note_off_c, 0, 56, 56
1, 55977, Note_off_c, 0, 70, 63
1, 55986, Note_off_c, 0, 58, 64
1, 56006, Note_on_c, 0, 64, 64
1, 56025, Note_off_c, 0, 82, 63
1, 56048, Note_off_c, 0, 64, 58
1, 56100, Note_on_c, 0, 68, 61
1, 56106, Note_on_c, 0, 83, 90
1, 56122, Note_on_c, 0, 71, 76
1, 56153, Note_off_c, 0, 68, 64
1, 56183, Note_on_c, 0, 64, 66
1, 56235, Note_off_c, 0, 71, 61
1, 56260, Note_off_c, 0, 64, 58
1, 56279, Note_on_c, 0, 58, 62
1, 56311, Note_off_c, 0, 83, 65
1, 56322, Note_on_c, 0, 56, 62
1, 56328, Note_off_c, 0, 58, 52
1, 56350, Note_off_c, 0, 56, 66
1, 56357, Note_on_c, 0, 54, 65
1, 56385, Note_off_c, 0, 54, 65
1, 56481, Control_c, 0, 64, 114
1, 56496, Note_on_c, 0, 46, 61
1, 56496, Control_c, 0, 64, 102
1, 56511, Control_c, 0, 64, 93
1, 56524, Note_on_c, 0, 92, 88
1, 56526, Control_c, 0, 64, 84
1, 56530, Note_on_c, 0, 84, 47
1, 56536, Note_on_c, 0, 80, 63
1, 56542, Control_c, 0, 64, 72
1, 56557, Control_c, 0, 64, 58
1, 56562, Note_off_c, 0, 84, 0
1, 56562, Note_on_c, 0, 84, 11
1, 56571, Control_c, 0, 64, 31
1, 56586, Control_c, 0, 64, 22
1, 56601, Control_c, 0, 64, 15
1, 56616, Control_c, 0, 64, 0
1, 56645, Control_c, 0, 64, 21
1, 56660, Control_c, 0, 64, 61
1, 56675, Control_c, 0, 64, 78
1, 56679, Note_off_c, 0, 46, 61
1, 56690, Control_c, 0, 64, 127
1, 56695, Note_on_c, 0, 52, 46
1, 56745, Note_on_c, 0, 56, 64
1, 56769, Note_off_c, 0, 52, 59
1, 56793, Note_off_c, 0, 80, 62
1, 56793, Note_off_c, 0, 92, 64
1, 56808, Note_off_c, 0, 56, 62
1, 56815, Note_on_c, 0, 60, 58
1, 56844, Note_off_c, 0, 60, 66
1, 56938, Note_on_c, 0, 88, 91
1, 56940, Note_on_c, 0, 60, 54
1, 56957, Note_on_c, 0, 76, 71
1, 57016, Note_on_c, 0, 64, 58
1, 57030, Note_off_c, 0, 60, 53
1, 57055, Note_off_c, 0, 84, 54
1, 57071, Note_off_c, 0, 88, 63
1, 57077, Note_on_c, 0, 68, 67
1, 57080, Note_off_c, 0, 76, 61
1, 57091, Poly_aftertouch_c, 0, 63, 0
1, 57095, Note_off_c, 0, 64, 63
1, 57133, Note_off_c, 0, 68, 64
1, 57146, Note_on_c, 0, 72, 67
1, 57173, Note_off_c, 0, 72, 66
1, 57223, Note_on_c, 0, 84, 86
1, 57226, Note_on_c, 0, 72, 80
1, 57226, Note_on_c, 0, 75, 64
1, 57226, Note_on_c, 0, 76, 79
1, 57263, Note_on_c, 0, 83, 37
1, 57280, Note_off_c, 0, 72, 64
1, 57292, Note_off_c, 0, 83, 55
1, 57296, Note_off_c, 0, 76, 61
1, 57304, Note_off_c, 0, 75, 58
1, 57328, Note_on_c, 0, 80, 71
1, 57364, Note_off_c, 0, 80, 57
1, 57415, Note_on_c, 0, 75, 65
1, 57449, Note_on_c, 0, 70, 74
1, 57450, Note_off_c, 0, 75, 62
1, 57490, Note_off_c, 0, 70, 64
1, 57522, Note_on_c, 0, 72, 70
1, 57548, Note_off_c, 0, 72, 61
1, 57617, Note_on_c, 0, 67, 53
1, 57640, Note_off_c, 0, 67, 60
1, 57645, Note_on_c, 0, 64, 66
1, 57721, Note_off_c, 0, 64, 64
1, 57730, Note_on_c, 0, 60, 62
1, 57772, Note_off_c, 0, 60, 60
1, 57801, Control_c, 0, 64, 108
1, 57814, Note_on_c, 0, 85, 85
1, 57816, Control_c, 0, 64, 93
1, 57826, Note_on_c, 0, 80, 68
1, 57829, Note_on_c, 0, 63, 66
1, 57831, Control_c, 0, 64, 80
1, 57832, Note_on_c, 0, 73, 65
1, 57846, Control_c, 0, 64, 66
1, 57858, Note_off_c, 0, 84, 62
1, 57861, Control_c, 0, 64, 40
1, 57875, Control_c, 0, 64, 0
1, 57934, Control_c, 0, 64, 33
1, 57938, Note_on_c, 0, 61, 53
1, 57940, Note_off_c, 0, 63, 52
1, 57949, Control_c, 0, 64, 60
1, 57964, Control_c, 0, 64, 72
1, 57979, Control_c, 0, 64, 87
1, 57993, Control_c, 0, 64, 99
1, 58008, Control_c, 0, 64, 101
1, 58020, Note_on_c, 0, 58, 57
1, 58023, Control_c, 0, 64, 110
1, 58025, Note_off_c, 0, 61, 52
1, 58031, Note_off_c, 0, 73, 62
1, 58038, Control_c, 0, 64, 127
1, 58096, Note_off_c, 0, 58, 60
1, 58116, Note_on_c, 0, 56, 47
1, 58216, Note_off_c, 0, 56, 56
1, 58231, Control_c, 0, 64, 107
1, 58231, Control_c, 0, 67, 8
1, 58246, Control_c, 0, 64, 94
1, 58246, Control_c, 0, 67, 9
1, 58249, Note_on_c, 0, 61, 47
1, 58261, Control_c, 0, 64, 81
1, 58261, Control_c, 0, 67, 11
1, 58263, Note_on_c, 0, 87, 69
1, 58274, Note_on_c, 0, 75, 48
1, 58276, Control_c, 0, 64, 67
1, 58276, Control_c, 0, 67, 14
1, 58291, Control_c, 0, 64, 52
1, 58291, Control_c, 0, 67, 19
1, 58306, Control_c, 0, 64, 44
1, 58306, Control_c, 0, 67, 23
1, 58320, Control_c, 0, 64, 45
1, 58320, Control_c, 0, 67, 27
1, 58335, Control_c, 0, 64, 46
1, 58335, Control_c, 0, 67, 30
1, 58350, Control_c, 0, 64, 52
1, 58350, Control_c, 0, 67, 36
1, 58372, Control_c, 0, 64, 63
1, 58372, Control_c, 0, 67, 44
1, 58374, Note_on_c, 0, 58, 41
1, 58387, Note_off_c, 0, 61, 37
1, 58387, Control_c, 0, 64, 70
1, 58387, Control_c, 0, 67, 53
1, 58402, Control_c, 0, 64, 81
1, 58402, Control_c, 0, 67, 62
1, 58416, Control_c, 0, 64, 90
1, 58416, Control_c, 0, 67, 70
1, 58431, Control_c, 0, 64, 94
1, 58431, Control_c, 0, 67, 79
1, 58445, Note_on_c, 0, 56, 54
1, 58445, Note_off_c, 0, 58, 50
1, 58446, Control_c, 0, 64, 97
1, 58446, Control_c, 0, 67, 89
1, 58461, Control_c, 0, 64, 104
1, 58461, Control_c, 0, 67, 97
1, 58476, Control_c, 0, 64, 116
1, 58476, Control_c, 0, 67, 104
1, 58490, Control_c, 0, 64, 127
1, 58490, Control_c, 0, 67, 109
1, 58505, Control_c, 0, 67, 112
1, 58520, Control_c, 0, 67, 115
1, 58535, Control_c, 0, 67, 118
1, 58535, Note_off_c, 0, 75, 35
1, 58536, Note_off_c, 0, 87, 50
1, 58545, Note_on_c, 0, 52, 48
1, 58550, Control_c, 0, 67, 122
1, 58565, Control_c, 0, 67, 123
1, 58580, Control_c, 0, 67, 124
1, 58587, Note_off_c, 0, 52, 60
1, 58600, Note_off_c, 0, 56, 34
1, 58609, Control_c, 0, 67, 125
1, 58624, Control_c, 0, 67, 125
1, 58639, Control_c, 0, 67, 126
1, 58654, Control_c, 0, 67, 127
1, 58683, Control_c, 0, 67, 127
1, 58698, Control_c, 0, 64, 118
1, 58712, Note_on_c, 0, 56, 40
1, 58713, Control_c, 0, 64, 112
1, 58728, Control_c, 0, 64, 105
1, 58742, Control_c, 0, 64, 97
1, 58743, Note_on_c, 0, 88, 58
1, 58757, Control_c, 0, 64, 86
1, 58771, Note_on_c, 0, 76, 45
1, 58772, Control_c, 0, 64, 77
1, 58787, Control_c, 0, 64, 67
1, 58802, Control_c, 0, 64, 58
1, 58816, Control_c, 0, 64, 50
1, 58860, Control_c, 0, 64, 54
1, 58875, Control_c, 0, 64, 61
1, 58888, Note_on_c, 0, 52, 37
1, 58890, Control_c, 0, 64, 68
1, 58905, Note_off_c, 0, 56, 31
1, 58905, Control_c, 0, 64, 77
1, 58920, Control_c, 0, 64, 88
1, 58936, Control_c, 0, 64, 94
1, 58951, Control_c, 0, 64, 95
1, 58965, Control_c, 0, 64, 98
1, 58980, Control_c, 0, 64, 103
1, 58988, Note_off_c, 0, 76, 42
1, 58995, Control_c, 0, 64, 112
1, 59006, Note_off_c, 0, 80, 37
1, 59010, Control_c, 0, 64, 127
1, 59055, Note_on_c, 0, 49, 36
1, 59057, Note_off_c, 0, 52, 44
1, 59069, Note_off_c, 0, 85, 63
1, 59155, Note_on_c, 0, 46, 51
1, 59170, Note_off_c, 0, 49, 38
1, 59197, Note_off_c, 0, 88, 63
1, 59205, Note_off_c, 0, 46, 60
1, 59551, Control_c, 0, 64, 121
1, 59565, Control_c, 0, 64, 118
1, 59580, Control_c, 0, 64, 116
1, 59595, Control_c, 0, 64, 114
1, 59610, Control_c, 0, 64, 113
1, 59625, Control_c, 0, 64, 112
1, 59639, Control_c, 0, 64, 110
1, 59654, Control_c, 0, 64, 108
1, 59665, Note_on_c, 0, 32, 37
1, 59669, Control_c, 0, 64, 106
1, 59685, Control_c, 0, 64, 104
1, 59699, Control_c, 0, 64, 101
1, 59714, Control_c, 0, 64, 98
1, 59729, Control_c, 0, 64, 93
1, 59737, Note_on_c, 0, 94, 53
1, 59745, Control_c, 0, 64, 88
1, 59746, Note_on_c, 0, 87, 44
1, 59747, Note_on_c, 0, 82, 42
1, 59760, Control_c, 0, 64, 81
1, 59775, Control_c, 0, 64, 74
1, 59789, Control_c, 0, 64, 67
1, 59804, Control_c, 0, 64, 58
1, 59819, Control_c, 0, 64, 52
1, 59834, Control_c, 0, 64, 51
1, 59849, Control_c, 0, 64, 50
1, 59885, Control_c, 0, 64, 51
1, 59900, Control_c, 0, 64, 56
1, 59915, Control_c, 0, 64, 61
1, 59930, Control_c, 0, 64, 66
1, 59945, Control_c, 0, 64, 70
1, 59960, Control_c, 0, 64, 74
1, 59975, Control_c, 0, 64, 77
1, 59987, Note_off_c, 0, 32, 35
1, 59989, Control_c, 0, 64, 80
1, 60004, Control_c, 0, 64, 82
1, 60014, Note_on_c, 0, 34, 21
1, 60019, Control_c, 0, 64, 86
1, 60034, Control_c, 0, 64, 88
1, 60049, Control_c, 0, 64, 89
1, 60058, Note_off_c, 0, 34, 56
1, 60063, Control_c, 0, 64, 90
1, 60078, Control_c, 0, 64, 90
1, 60093, Control_c, 0, 64, 91
1, 60094, Note_on_c, 0, 36, 33
1, 60108, Control_c, 0, 64, 91
1, 60115, Note_off_c, 0, 94, 37
1, 60122, Control_c, 0, 64, 92
1, 60137, Control_c, 0, 64, 92
1, 60144, Note_off_c, 0, 36, 44
1, 60148, Note_off_c, 0, 82, 44
1, 60152, Control_c, 0, 64, 93
1, 60196, Control_c, 0, 64, 93
1, 60207, Note_on_c, 0, 37, 32
1, 60226, Control_c, 0, 64, 94
1, 60270, Control_c, 0, 64, 94
1, 60274, Note_on_c, 0, 39, 44
1, 60285, Control_c, 0, 64, 95
1, 60286, Note_off_c, 0, 37, 33
1, 60315, Control_c, 0, 64, 95
1, 60322, Note_off_c, 0, 39, 53
1, 60352, Note_on_c, 0, 41, 41
1, 60359, Control_c, 0, 64, 96
1, 60406, Note_off_c, 0, 41, 41
1, 60452, Note_on_c, 0, 43, 50
1, 60510, Note_off_c, 0, 43, 51
1, 60523, Note_on_c, 0, 44, 49
1, 60538, Control_c, 0, 64, 95
1, 60553, Control_c, 0, 64, 92
1, 60558, Note_on_c, 0, 89, 51
1, 60561, Note_on_c, 0, 92, 57
1, 60568, Control_c, 0, 64, 87
1, 60574, Note_on_c, 0, 80, 43
1, 60583, Control_c, 0, 64, 80
1, 60590, Note_off_c, 0, 44, 51
1, 60598, Control_c, 0, 64, 74
1, 60619, Control_c, 0, 64, 70
1, 60622, Note_on_c, 0, 46, 43
1, 60634, Control_c, 0, 64, 71
1, 60649, Control_c, 0, 64, 74
1, 60654, Note_off_c, 0, 46, 64
1, 60664, Control_c, 0, 64, 79
1, 60679, Note_on_c, 0, 48, 51
1, 60679, Control_c, 0, 64, 83
1, 60693, Control_c, 0, 64, 86
1, 60708, Control_c, 0, 64, 89
1, 60723, Control_c, 0, 64, 91
1, 60726, Note_off_c, 0, 48, 54
1, 60738, Control_c, 0, 64, 93
1, 60753, Control_c, 0, 64, 95
1, 60768, Control_c, 0, 64, 96
1, 60777, Note_on_c, 0, 49, 45
1, 60777, Note_off_c, 0, 89, 62
1, 60782, Note_off_c, 0, 92, 62
1, 60791, Note_off_c, 0, 87, 43
1, 60798, Control_c, 0, 64, 97
1, 60812, Control_c, 0, 64, 97
1, 60830, Note_off_c, 0, 49, 56
1, 60832, Note_on_c, 0, 51, 51
1, 60834, Note_off_c, 0, 80, 65
1, 60875, Note_off_c, 0, 51, 63
1, 60898, Note_on_c, 0, 53, 55
1, 60956, Note_off_c, 0, 53, 58
1, 60992, Note_on_c, 0, 55, 52
1, 61029, Note_off_c, 0, 55, 59
1, 61072, Note_on_c, 0, 56, 30
1, 61102, Note_on_c, 0, 58, 57
1, 61123, Control_c, 0, 64, 97
1, 61125, Note_off_c, 0, 56, 43
1, 61137, Control_c, 0, 64, 96
1, 61152, Control_c, 0, 64, 95
1, 61161, Note_off_c, 0, 58, 57
1, 61167, Control_c, 0, 64, 94
1, 61182, Control_c, 0, 64, 90
1, 61185, Note_on_c, 0, 60, 55
1, 61191, Note_on_c, 0, 79, 47
1, 61191, Note_on_c, 0, 84, 56
1, 61197, Control_c, 0, 64, 83
1, 61209, Note_on_c, 0, 72, 49
1, 61212, Control_c, 0, 64, 75
1, 61220, Note_on_c, 0, 75, 41
1, 61227, Control_c, 0, 64, 69
1, 61240, Note_off_c, 0, 60, 56
1, 61242, Control_c, 0, 64, 69
1, 61256, Control_c, 0, 64, 74
1, 61271, Control_c, 0, 64, 80
1, 61282, Note_on_c, 0, 61, 49
1, 61286, Control_c, 0, 64, 85
1, 61301, Control_c, 0, 64, 88
1, 61316, Control_c, 0, 64, 90
1, 61331, Note_off_c, 0, 72, 33
1, 61331, Control_c, 0, 64, 91
1, 61334, Note_on_c, 0, 63, 50
1, 61337, Note_off_c, 0, 61, 49
1, 61346, Control_c, 0, 64, 92
1, 61361, Note_off_c, 0, 84, 49
1, 61368, Control_c, 0, 64, 93
1, 61391, Note_off_c, 0, 63, 61
1, 61406, Note_on_c, 0, 65, 59
1, 61450, Note_off_c, 0, 65, 53
1, 61501, Note_on_c, 0, 67, 51
1, 61534, Note_off_c, 0, 67, 59
1, 61557, Note_on_c, 0, 68, 44
1, 61632, Note_off_c, 0, 68, 53
1, 61641, Note_on_c, 0, 70, 48
1, 61695, Note_off_c, 0, 70, 59
1, 61712, Note_on_c, 0, 72, 51
1, 61808, Note_off_c, 0, 72, 56
1, 61809, Note_off_c, 0, 75, 41
1, 61825, Note_on_c, 0, 73, 48
1, 61857, Control_c, 0, 64, 92
1, 61886, Control_c, 0, 64, 92
1, 61930, Control_c, 0, 64, 91
1, 61945, Control_c, 0, 64, 91
1, 61960, Control_c, 0, 64, 90
1, 61975, Control_c, 0, 64, 88
1, 61990, Control_c, 0, 64, 85
1, 62005, Control_c, 0, 64, 79
1, 62015, Note_off_c, 0, 73, 30
1, 62020, Control_c, 0, 64, 70
1, 62034, Control_c, 0, 64, 59
1, 62035, Note_on_c, 0, 63, 37
1, 62049, Control_c, 0, 64, 44
1, 62064, Control_c, 0, 64, 42
1, 62078, Control_c, 0, 64, 43
1, 62093, Control_c, 0, 64, 50
1, 62115, Control_c, 0, 64, 60
1, 62123, Note_on_c, 0, 68, 40
1, 62130, Control_c, 0, 64, 68
1, 62146, Control_c, 0, 64, 81
1, 62147, Note_off_c, 0, 63, 61
1, 62161, Control_c, 0, 64, 100
1, 62165, Note_on_c, 0, 70, 50
1, 62176, Control_c, 0, 64, 127
1, 62248, Note_on_c, 0, 73, 40
1, 62312, Note_on_c, 0, 77, 46
1, 62316, Note_off_c, 0, 73, 0
1, 62316, Note_on_c, 0, 73, 11
1, 62417, Note_on_c, 0, 82, 62
1, 62524, Note_off_c, 0, 77, 43
1, 62557, Note_off_c, 0, 68, 36
1, 62562, Note_off_c, 0, 70, 30
1, 62564, Note_off_c, 0, 73, 41
1, 62570, Note_off_c, 0, 79, 55
1, 62576, Control_c, 0, 67, 127
1, 62822, Note_on_c, 0, 79, 39
1, 62838, Note_on_c, 0, 75, 17
1, 62876, Note_off_c, 0, 79, 56
1, 62893, Note_off_c, 0, 75, 48
1, 63000, Note_on_c, 0, 75, 38
1, 63014, Note_on_c, 0, 79, 33
1, 63030, Note_off_c, 0, 75, 54
1, 63049, Note_off_c, 0, 79, 50
1, 63105, Note_on_c, 0, 77, 39
1, 63111, Note_on_c, 0, 70, 38
1, 63118, Note_on_c, 0, 73, 32
1, 63124, Note_on_c, 0, 68, 26
1, 63144, Note_off_c, 0, 70, 56
1, 63152, Note_off_c, 0, 77, 47
1, 63159, Note_off_c, 0, 73, 48
1, 63164, Note_off_c, 0, 68, 50
1, 63207, Note_on_c, 0, 75, 40
1, 63208, Note_on_c, 0, 79, 37
1, 63236, Note_off_c, 0, 75, 56
1, 63247, Note_off_c, 0, 79, 48
1, 63282, Note_on_c, 0, 68, 47
1, 63289, Note_on_c, 0, 73, 39
1, 63292, Note_on_c, 0, 77, 44
1, 63321, Note_off_c, 0, 73, 54
1, 63326, Note_off_c, 0, 68, 55
1, 63326, Note_off_c, 0, 77, 51
1, 63337, Poly_aftertouch_c, 0, 70, 127
1, 63384, Note_on_c, 0, 73, 48
1, 63412, Note_on_c, 0, 77, 17
1, 63417, Poly_aftertouch_c, 0, 68, 0
1, 63418, Note_off_c, 0, 73, 61
1, 63428, Poly_aftertouch_c, 0, 70, 0
1, 63459, Note_off_c, 0, 77, 54
1, 63472, Note_on_c, 0, 79, 44
1, 63474, Note_on_c, 0, 75, 35
1, 63506, Note_off_c, 0, 75, 53
1, 63507, Note_off_c, 0, 79, 50
1, 63554, Note_on_c, 0, 70, 39
1, 63559, Note_on_c, 0, 68, 39
1, 63562, Note_on_c, 0, 77, 42
1, 63567, Note_on_c, 0, 73, 24
1, 63588, Note_off_c, 0, 70, 51
1, 63591, Note_off_c, 0, 77, 57
1, 63594, Note_off_c, 0, 68, 50
1, 63614, Note_off_c, 0, 73, 52
1, 63626, Note_on_c, 0, 75, 46
1, 63638, Note_on_c, 0, 79, 43
1, 63662, Note_off_c, 0, 75, 60
1, 63713, Note_off_c, 0, 79, 0
1, 63726, Note_on_c, 0, 75, 45
1, 63727, Note_on_c, 0, 79, 39
1, 63755, Note_off_c, 0, 75, 54
1, 63766, Note_off_c, 0, 79, 61
1, 63803, Note_on_c, 0, 77, 39
1, 63811, Note_on_c, 0, 73, 34
1, 63815, Note_on_c, 0, 70, 39
1, 63822, Control_c, 0, 67, 126
1, 63823, Note_on_c, 0, 68, 34
1, 63836, Control_c, 0, 67, 127
1, 63846, Note_off_c, 0, 77, 49
1, 63848, Note_off_c, 0, 70, 57
1, 63856, Note_off_c, 0, 68, 54
1, 63859, Note_off_c, 0, 73, 45
1, 63895, Note_on_c, 0, 79, 48
1, 63914, Note_on_c, 0, 75, 41
1, 63939, Note_off_c, 0, 79, 57
1, 63940, Note_off_c, 0, 75, 56
1, 63999, Note_on_c, 0, 73, 44
1, 63999, Note_on_c, 0, 77, 50
1, 64002, Note_on_c, 0, 70, 44
1, 64011, Note_on_c, 0, 68, 31
1, 64025, Note_off_c, 0, 73, 58
1, 64029, Note_off_c, 0, 70, 56
1, 64033, Note_off_c, 0, 77, 48
1, 64088, Note_off_c, 0, 68, 0
1, 64103, Note_on_c, 0, 77, 10
1, 64111, Note_on_c, 0, 73, 45
1, 64113, Note_on_c, 0, 70, 43
1, 64126, Poly_aftertouch_c, 0, 68, 127
1, 64135, Note_off_c, 0, 73, 58
1, 64138, Note_off_c, 0, 70, 57
1, 64154, Note_off_c, 0, 77, 54
1, 64163, Note_on_c, 0, 79, 51
1, 64183, Note_on_c, 0, 75, 45
1, 64183, Poly_aftertouch_c, 0, 68, 0
1, 64191, Control_c, 0, 64, 111
1, 64206, Control_c, 0, 64, 97
1, 64220, Control_c, 0, 64, 85
1, 64226, Note_on_c, 0, 76, 39
1, 64235, Control_c, 0, 64, 73
1, 64242, Note_off_c, 0, 75, 59
1, 64250, Note_on_c, 0, 67, 47
1, 64250, Control_c, 0, 64, 61
1, 64252, Note_on_c, 0, 69, 34
1, 64252, Note_on_c, 0, 81, 71
1, 64265, Control_c, 0, 64, 33
1, 64279, Control_c, 0, 64, 32
1, 64294, Control_c, 0, 64, 38
1, 64309, Control_c, 0, 64, 51
1, 64324, Control_c, 0, 64, 63
1, 64339, Control_c, 0, 64, 73
1, 64339, Control_c, 0, 67, 127
1, 64340, Note_off_c, 0, 82, 37
1, 64361, Control_c, 0, 64, 92
1, 64376, Control_c, 0, 64, 106
1, 64376, Control_c, 0, 67, 126
1, 64391, Control_c, 0, 64, 111
1, 64401, Note_off_c, 0, 67, 36
1, 64405, Note_off_c, 0, 76, 42
1, 64406, Control_c, 0, 64, 115
1, 64413, Note_off_c, 0, 69, 34
1, 64414, Note_on_c, 0, 73, 57
1, 64421, Control_c, 0, 64, 127
1, 64435, Control_c, 0, 67, 126
1, 64437, Note_off_c, 0, 73, 57
1, 64440, Note_off_c, 0, 79, 20
1, 64451, Poly_aftertouch_c, 0, 78, 127
1, 64518, Note_on_c, 0, 78, 12
1, 64525, Note_on_c, 0, 73, 56
1, 64569, Note_off_c, 0, 73, 59
1, 64573, Note_on_c, 0, 76, 49
1, 64574, Note_on_c, 0, 69, 44
1, 64589, Note_on_c, 0, 67, 35
1, 64599, Note_off_c, 0, 76, 57
1, 64601, Note_off_c, 0, 69, 58
1, 64607, Note_off_c, 0, 81, 55
1, 64619, Note_off_c, 0, 67, 55
1, 64688, Control_c, 0, 67, 125
1, 64708, Note_on_c, 0, 84, 81
1, 64720, Note_on_c, 0, 76, 55
1, 64733, Note_on_c, 0, 81, 61
1, 64747, Note_off_c, 0, 78, 44
1, 64747, Control_c, 0, 64, 100
1, 64747, Control_c, 0, 67, 125
1, 64762, Control_c, 0, 64, 86
1, 64762, Control_c, 0, 67, 124
1, 64777, Control_c, 0, 64, 73
1, 64780, Note_on_c, 0, 70, 50
1, 64792, Control_c, 0, 64, 63
1, 64792, Control_c, 0, 67, 124
1, 64792, Note_on_c, 0, 73, 43
1, 64807, Control_c, 0, 64, 54
1, 64809, Note_on_c, 0, 79, 39
1, 64822, Control_c, 0, 64, 57
1, 64822, Note_off_c, 0, 76, 46
1, 64828, Note_off_c, 0, 70, 56
1, 64837, Control_c, 0, 64, 64
1, 64839, Note_off_c, 0, 79, 57
1, 64840, Note_off_c, 0, 73, 57
1, 64851, Control_c, 0, 64, 72
1, 64866, Control_c, 0, 64, 82
1, 64869, Note_off_c, 0, 81, 60
1, 64881, Control_c, 0, 64, 91
1, 64896, Control_c, 0, 64, 94
1, 64910, Control_c, 0, 64, 97
1, 64925, Control_c, 0, 64, 102
1, 64927, Note_on_c, 0, 79, 51
1, 64936, Note_on_c, 0, 70, 47
1, 64940, Control_c, 0, 64, 108
1, 64947, Note_on_c, 0, 73, 51
1, 64955, Control_c, 0, 64, 112
1, 64966, Note_off_c, 0, 79, 47
1, 64970, Control_c, 0, 64, 115
1, 64984, Control_c, 0, 64, 117
1, 64999, Control_c, 0, 64, 125
1, 65014, Control_c, 0, 64, 127
1, 65022, Note_off_c, 0, 73, 33
1, 65036, Note_off_c, 0, 70, 33
1, 65058, Control_c, 0, 67, 124
1, 65063, Note_on_c, 0, 81, 48
1, 65066, Note_on_c, 0, 76, 35
1, 65088, Control_c, 0, 67, 125
1, 65110, Control_c, 0, 67, 125
1, 65126, Note_off_c, 0, 76, 47
1, 65131, Note_off_c, 0, 81, 63
1, 65140, Control_c, 0, 67, 126
1, 65155, Control_c, 0, 67, 126
1, 65170, Control_c, 0, 64, 123
1, 65170, Control_c, 0, 67, 127
1, 65179, Note_on_c, 0, 63, 52
1, 65184, Control_c, 0, 64, 114
1, 65199, Control_c, 0, 64, 106
1, 65214, Control_c, 0, 64, 95
1, 65228, Control_c, 0, 64, 85
1, 65243, Control_c, 0, 64, 75
1, 65246, Note_on_c, 0, 68, 45
1, 65257, Note_off_c, 0, 63, 59
1, 65258, Control_c, 0, 64, 66
1, 65273, Control_c, 0, 64, 56
1, 65288, Control_c, 0, 64, 51
1, 65302, Control_c, 0, 64, 52
1, 65308, Note_on_c, 0, 70, 34
1, 65317, Control_c, 0, 64, 55
1, 65326, Note_on_c, 0, 73, 43
1, 65333, Control_c, 0, 64, 59
1, 65348, Control_c, 0, 64, 63
1, 65363, Control_c, 0, 64, 66
1, 65378, Control_c, 0, 64, 72
1, 65386, Note_on_c, 0, 77, 52
1, 65393, Control_c, 0, 64, 80
1, 65396, Note_on_c, 0, 82, 65
1, 65407, Control_c, 0, 64, 89
1, 65422, Control_c, 0, 64, 94
1, 65437, Control_c, 0, 64, 96
1, 65452, Control_c, 0, 64, 101
1, 65467, Control_c, 0, 64, 110
1, 65469, Note_off_c, 0, 84, 59
1, 65481, Control_c, 0, 64, 127
1, 65536, Note_off_c, 0, 68, 58
1, 65543, Note_off_c, 0, 73, 49
1, 65549, Note_off_c, 0, 77, 39
1, 65567, Note_off_c, 0, 70, 41
1, 65614, Note_on_c, 0, 79, 36
1, 65645, Note_off_c, 0, 79, 53
1, 65651, Poly_aftertouch_c, 0, 75, 127
1, 65721, Note_on_c, 0, 75, 4
1, 65737, Note_on_c, 0, 79, 36
1, 65770, Note_off_c, 0, 79, 52
1, 65780, Note_off_c, 0, 75, 47
1, 65813, Note_on_c, 0, 77, 36
1, 65817, Note_on_c, 0, 70, 37
1, 65823, Note_on_c, 0, 68, 33
1, 65823, Note_on_c, 0, 73, 32
1, 65862, Note_off_c, 0, 70, 48
1, 65865, Note_off_c, 0, 77, 48
1, 65871, Note_off_c, 0, 73, 48
1, 65876, Note_off_c, 0, 68, 48
1, 65907, Note_on_c, 0, 75, 42
1, 65934, Note_on_c, 0, 79, 29
1, 65957, Note_off_c, 0, 75, 57
1, 65971, Note_off_c, 0, 79, 51
1, 65999, Note_on_c, 0, 73, 43
1, 66003, Note_on_c, 0, 77, 43
1, 66004, Note_on_c, 0, 68, 40
1, 66021, Note_on_c, 0, 70, 25
1, 66061, Note_off_c, 0, 77, 0
1, 66071, Note_off_c, 0, 70, 0
1, 66075, Note_on_c, 0, 77, 51
1, 66076, Note_off_c, 0, 73, 0
1, 66089, Note_on_c, 0, 73, 47
1, 66091, Note_on_c, 0, 70, 34
1, 66122, Note_off_c, 0, 77, 61
1, 66124, Note_off_c, 0, 70, 63
1, 66124, Note_off_c, 0, 73, 62
1, 66130, Note_off_c, 0, 68, 60
1, 66181, Note_on_c, 0, 75, 43
1, 66187, Note_on_c, 0, 79, 41
1, 66210, Note_off_c, 0, 75, 55
1, 66220, Note_off_c, 0, 79, 51
1, 66241, Note_on_c, 0, 77, 53
1, 66253, Note_on_c, 0, 70, 42
1, 66253, Note_on_c, 0, 73, 44
1, 66255, Note_on_c, 0, 68, 52
1, 66282, Note_off_c, 0, 77, 57
1, 66283, Note_off_c, 0, 73, 54
1, 66288, Note_off_c, 0, 70, 61
1, 66294, Note_off_c, 0, 68, 62
1, 66324, Note_on_c, 0, 75, 50
1, 66332, Note_on_c, 0, 79, 50
1, 66361, Note_off_c, 0, 75, 60
1, 66363, Note_off_c, 0, 79, 62
1, 66415, Note_off_c, 0, 82, 46
1, 66437, Note_on_c, 0, 75, 37
1, 66448, Note_on_c, 0, 79, 36
1, 66467, Note_on_c, 0, 77, 47
1, 66470, Note_off_c, 0, 75, 53
1, 66474, Note_on_c, 0, 73, 44
1, 66475, Note_on_c, 0, 70, 45
1, 66480, Note_off_c, 0, 79, 52
1, 66501, Note_on_c, 0, 68, 35
1, 66521, Note_off_c, 0, 77, 62
1, 66531, Note_off_c, 0, 73, 57
1, 66533, Note_off_c, 0, 70, 57
1, 66541, Note_off_c, 0, 68, 49
1, 66585, Note_on_c, 0, 82, 76
1, 66603, Note_on_c, 0, 79, 46
1, 66607, Note_on_c, 0, 75, 40
1, 66652, Note_off_c, 0, 75, 56
1, 66668, Note_on_c, 0, 77, 63
1, 66673, Note_on_c, 0, 70, 54
1, 66675, Note_on_c, 0, 68, 46
1, 66675, Note_on_c, 0, 73, 54
1, 66679, Note_off_c, 0, 79, 47
1, 66703, Note_off_c, 0, 77, 62
1, 66707, Note_off_c, 0, 73, 65
1, 66708, Note_off_c, 0, 70, 64
1, 66714, Note_off_c, 0, 68, 65
1, 66727, Control_c, 0, 67, 127
1, 66773, Note_on_c, 0, 77, 63
1, 66795, Note_on_c, 0, 68, 49
1, 66795, Note_on_c, 0, 73, 50
1, 66796, Note_on_c, 0, 70, 51
1, 66803, Note_off_c, 0, 77, 64
1, 66819, Note_off_c, 0, 73, 61
1, 66826, Note_off_c, 0, 70, 63
1, 66831, Control_c, 0, 67, 126
1, 66832, Note_off_c, 0, 68, 65
1, 66846, Control_c, 0, 67, 126
1, 66851, Note_on_c, 0, 79, 52
1, 66862, Note_on_c, 0, 75, 56
1, 66887, Note_off_c, 0, 79, 62
1, 66898, Note_off_c, 0, 75, 61
1, 66905, Control_c, 0, 64, 114
1, 66920, Control_c, 0, 64, 93
1, 66934, Note_on_c, 0, 76, 53
1, 66935, Note_on_c, 0, 81, 82
1, 66935, Control_c, 0, 64, 76
1, 66935, Control_c, 0, 67, 125
1, 66938, Note_on_c, 0, 69, 45
1, 66945, Note_on_c, 0, 67, 50
1, 66950, Control_c, 0, 64, 60
1, 66950, Control_c, 0, 67, 125
1, 66965, Control_c, 0, 64, 40
1, 66974, Note_off_c, 0, 76, 46
1, 66974, Note_off_c, 0, 82, 59
1, 66980, Control_c, 0, 64, 48
1, 66980, Control_c, 0, 67, 124
1, 66989, Note_off_c, 0, 67, 55
1, 66995, Control_c, 0, 64, 60
1, 66995, Control_c, 0, 67, 124
1, 66998, Note_off_c, 0, 69, 50
1, 67010, Control_c, 0, 64, 68
1, 67010, Control_c, 0, 67, 123
1, 67025, Control_c, 0, 64, 81
1, 67031, Note_on_c, 0, 78, 71
1, 67040, Control_c, 0, 64, 108
1, 67040, Control_c, 0, 67, 123
1, 67044, Note_on_c, 0, 73, 54
1, 67054, Control_c, 0, 64, 127
1, 67060, Note_off_c, 0, 78, 63
1, 67064, Note_off_c, 0, 73, 62
1, 67132, Note_on_c, 0, 73, 57
1, 67135, Note_on_c, 0, 78, 70
1, 67157, Note_off_c, 0, 73, 54
1, 67192, Note_off_c, 0, 78, 56
1, 67202, Control_c, 0, 67, 122
1, 67212, Note_on_c, 0, 76, 49
1, 67215, Note_on_c, 0, 69, 46
1, 67217, Control_c, 0, 67, 122
1, 67232, Control_c, 0, 67, 121
1, 67234, Note_on_c, 0, 67, 22
1, 67236, Note_off_c, 0, 76, 59
1, 67239, Note_off_c, 0, 69, 59
1, 67246, Control_c, 0, 67, 121
1, 67275, Note_off_c, 0, 67, 51
1, 67305, Control_c, 0, 64, 115
1, 67320, Control_c, 0, 64, 102
1, 67335, Control_c, 0, 64, 90
1, 67336, Note_on_c, 0, 85, 76
1, 67353, Note_on_c, 0, 76, 48
1, 67354, Note_on_c, 0, 82, 71
1, 67358, Control_c, 0, 64, 78
1, 67373, Control_c, 0, 64, 67
1, 67387, Control_c, 0, 64, 57
1, 67388, Note_off_c, 0, 76, 0
1, 67388, Note_on_c, 0, 76, 27
1, 67402, Control_c, 0, 64, 54
1, 67417, Control_c, 0, 64, 56
1, 67431, Control_c, 0, 64, 60
1, 67435, Note_on_c, 0, 70, 42
1, 67445, Note_on_c, 0, 73, 48
1, 67445, Note_on_c, 0, 79, 44
1, 67446, Control_c, 0, 64, 65
1, 67453, Note_off_c, 0, 81, 62
1, 67461, Note_off_c, 0, 76, 55
1, 67461, Control_c, 0, 64, 73
1, 67474, Note_off_c, 0, 70, 60
1, 67475, Note_off_c, 0, 79, 54
1, 67476, Control_c, 0, 64, 84
1, 67484, Note_off_c, 0, 73, 63
1, 67485, Note_off_c, 0, 82, 62
1, 67491, Control_c, 0, 64, 93
1, 67505, Control_c, 0, 64, 96
1, 67520, Control_c, 0, 64, 97
1, 67535, Control_c, 0, 64, 99
1, 67550, Control_c, 0, 64, 103
1, 67565, Control_c, 0, 64, 108
1, 67579, Control_c, 0, 64, 110
1, 67579, Control_c, 0, 67, 121
1, 67585, Note_on_c, 0, 79, 27
1, 67594, Control_c, 0, 64, 111
1, 67602, Note_on_c, 0, 70, 29
1, 67612, Note_on_c, 0, 73, 13
1, 67622, Note_off_c, 0, 79, 48
1, 67649, Note_off_c, 0, 70, 43
1, 67656, Note_on_c, 0, 82, 59
1, 67680, Note_on_c, 0, 76, 33
1, 67716, Note_off_c, 0, 76, 52
1, 67722, Note_off_c, 0, 82, 60
1, 67737, Note_off_c, 0, 73, 28
1, 67773, Control_c, 0, 64, 108
1, 67783, Note_on_c, 0, 63, 55
1, 67788, Control_c, 0, 64, 103
1, 67788, Control_c, 0, 67, 122
1, 67803, Control_c, 0, 64, 96
1, 67803, Control_c, 0, 67, 122
1, 67818, Control_c, 0, 64, 88
1, 67832, Control_c, 0, 64, 79
1, 67847, Control_c, 0, 64, 70
1, 67847, Control_c, 0, 67, 123
1, 67856, Note_off_c, 0, 63, 52
1, 67862, Control_c, 0, 64, 60
1, 67862, Control_c, 0, 67, 123
1, 67862, Note_on_c, 0, 68, 51
1, 67877, Control_c, 0, 64, 46
1, 67877, Control_c, 0, 67, 124
1, 67892, Control_c, 0, 64, 45
1, 67907, Control_c, 0, 67, 124
1, 67913, Note_on_c, 0, 70, 44
1, 67921, Control_c, 0, 64, 47
1, 67921, Control_c, 0, 67, 125
1, 67935, Control_c, 0, 64, 52
1, 67939, Note_on_c, 0, 82, 65
1, 67950, Control_c, 0, 64, 61
1, 67951, Note_on_c, 0, 73, 39
1, 67965, Control_c, 0, 64, 70
1, 67980, Control_c, 0, 64, 82
1, 67994, Control_c, 0, 64, 98
1, 68001, Note_on_c, 0, 77, 44
1, 68009, Control_c, 0, 64, 108
1, 68024, Control_c, 0, 64, 113
1, 68032, Note_off_c, 0, 85, 34
1, 68038, Control_c, 0, 64, 119
1, 68053, Control_c, 0, 64, 127
1, 68073, Note_off_c, 0, 68, 56
1, 68084, Note_off_c, 0, 70, 55
1, 68101, Note_off_c, 0, 77, 46
1, 68110, Note_on_c, 0, 79, 50
1, 68116, Note_off_c, 0, 73, 44
1, 68126, Note_on_c, 0, 75, 35
1, 68142, Note_off_c, 0, 79, 62
1, 68158, Note_off_c, 0, 75, 53
1, 68234, Note_on_c, 0, 75, 40
1, 68247, Note_on_c, 0, 79, 27
1, 68263, Note_off_c, 0, 75, 55
1, 68283, Note_off_c, 0, 79, 50
1, 68284, Note_on_c, 0, 77, 51
1, 68302, Note_on_c, 0, 70, 40
1, 68310, Note_on_c, 0, 73, 32
1, 68316, Note_on_c, 0, 68, 29
1, 68329, Note_off_c, 0, 77, 56
1, 68337, Note_off_c, 0, 70, 60
1, 68345, Note_off_c, 0, 73, 52
1, 68345, Note_off_c, 0, 68, 55
1, 68377, Note_on_c, 0, 75, 37
1, 68388, Note_on_c, 0, 79, 43
1, 68417, Control_c, 0, 67, 124
1, 68419, Note_off_c, 0, 79, 53
1, 68423, Note_off_c, 0, 75, 47
1, 68461, Note_on_c, 0, 73, 43
1, 68463, Note_on_c, 0, 68, 42
1, 68466, Note_on_c, 0, 77, 56
1, 68473, Note_on_c, 0, 70, 46
1, 68497, Note_off_c, 0, 77, 62
1, 68508, Note_off_c, 0, 68, 61
1, 68510, Note_off_c, 0, 70, 59
1, 68511, Note_off_c, 0, 73, 57
1, 68576, Note_on_c, 0, 73, 39
1, 68581, Control_c, 0, 67, 124
1, 68596, Note_on_c, 0, 77, 37
1, 68616, Note_on_c, 0, 70, 8
1, 68616, Note_off_c, 0, 73, 48
1, 68618, Note_on_c, 0, 75, 28
1, 68629, Note_off_c, 0, 77, 54
1, 68633, Note_on_c, 0, 79, 17
1, 68640, Poly_aftertouch_c, 0, 68, 127
1, 68655, Note_off_c, 0, 75, 49
1, 68655, Control_c, 0, 67, 123
1, 68670, Note_off_c, 0, 70, 50
1, 68677, Note_off_c, 0, 79, 44
1, 68683, Poly_aftertouch_c, 0, 68, 0
1, 68721, Note_on_c, 0, 77, 60
1, 68730, Note_on_c, 0, 68, 53
1, 68760, Note_off_c, 0, 77, 60
1, 68765, Note_off_c, 0, 68, 66
1, 68789, Control_c, 0, 67, 123
1, 68789, Note_on_c, 0, 79, 46
1, 68809, Note_on_c, 0, 75, 35
1, 68837, Note_off_c, 0, 79, 58
1, 68851, Note_off_c, 0, 75, 50
1, 68870, Control_c, 0, 67, 122
1, 68900, Control_c, 0, 67, 122
1, 68911, Note_on_c, 0, 75, 52
1, 68922, Note_on_c, 0, 79, 44
1, 68931, Note_off_c, 0, 82, 59
1, 68944, Note_off_c, 0, 75, 63
1, 68946, Note_off_c, 0, 79, 58
1, 68958, Note_on_c, 0, 68, 53
1, 68959, Control_c, 0, 67, 121
1, 68965, Note_on_c, 0, 77, 46
1, 68994, Note_off_c, 0, 68, 64
1, 68997, Note_off_c, 0, 77, 55
1, 69019, Control_c, 0, 67, 121
1, 69048, Control_c, 0, 67, 120
1, 69064, Note_on_c, 0, 82, 71
1, 69065, Note_on_c, 0, 79, 51
1, 69077, Control_c, 0, 67, 120
1, 69081, Note_on_c, 0, 70, 51
1, 69092, Control_c, 0, 67, 119
1, 69093, Note_on_c, 0, 75, 50
1, 69103, Note_off_c, 0, 70, 60
1, 69122, Control_c, 0, 67, 117
1, 69123, Note_off_c, 0, 75, 64
1, 69137, Note_off_c, 0, 79, 61
1, 69137, Control_c, 0, 67, 116
1, 69151, Control_c, 0, 67, 115
1, 69164, Note_on_c, 0, 68, 62
1, 69165, Note_on_c, 0, 77, 58
1, 69166, Control_c, 0, 67, 115
1, 69181, Control_c, 0, 67, 114
1, 69186, Note_off_c, 0, 77, 64
1, 69194, Note_off_c, 0, 68, 66
1, 69195, Control_c, 0, 67, 114
1, 69210, Control_c, 0, 67, 113
1, 69225, Control_c, 0, 67, 111
1, 69240, Control_c, 0, 67, 107
1, 69255, Control_c, 0, 67, 104
1, 69261, Note_on_c, 0, 77, 61
1, 69269, Control_c, 0, 67, 100
1, 69281, Note_on_c, 0, 68, 44
1, 69284, Control_c, 0, 67, 96
1, 69287, Note_off_c, 0, 77, 61
1, 69299, Control_c, 0, 67, 91
1, 69305, Note_off_c, 0, 68, 61
1, 69314, Note_on_c, 0, 75, 51
1, 69314, Control_c, 0, 67, 85
1, 69315, Note_on_c, 0, 79, 52
1, 69330, Control_c, 0, 67, 80
1, 69345, Control_c, 0, 67, 75
1, 69346, Note_off_c, 0, 75, 51
1, 69351, Note_off_c, 0, 79, 60
1, 69360, Control_c, 0, 67, 70
1, 69371, Note_on_c, 0, 77, 62
1, 69374, Control_c, 0, 67, 63
1, 69389, Control_c, 0, 67, 58
1, 69400, Note_on_c, 0, 68, 44
1, 69404, Control_c, 0, 67, 56
1, 69419, Control_c, 0, 67, 53
1, 69427, Note_on_c, 0, 70, 26
1, 69430, Note_off_c, 0, 77, 51
1, 69432, Note_off_c, 0, 68, 52
1, 69434, Control_c, 0, 67, 50
1, 69448, Control_c, 0, 67, 47
1, 69463, Note_off_c, 0, 70, 53
1, 69463, Control_c, 0, 67, 42
1, 69471, Note_on_c, 0, 75, 52
1, 69471, Poly_aftertouch_c, 0, 73, 127
1, 69475, Note_on_c, 0, 79, 56
1, 69478, Control_c, 0, 67, 38
1, 69493, Control_c, 0, 67, 33
1, 69507, Note_off_c, 0, 79, 62
1, 69508, Poly_aftertouch_c, 0, 73, 0
1, 69508, Control_c, 0, 67, 28
1, 69520, Note_off_c, 0, 75, 61
1, 69523, Control_c, 0, 67, 24
1, 69538, Control_c, 0, 67, 20
1, 69552, Control_c, 0, 67, 16
1, 69555, Note_off_c, 0, 82, 62
1, 69561, Note_on_c, 0, 79, 80
1, 69567, Control_c, 0, 67, 12
1, 69582, Control_c, 0, 67, 0
1, 69586, Note_off_c, 0, 79, 64
1, 69596, Note_on_c, 0, 75, 16
1, 69631, Note_on_c, 0, 70, 35
1, 69633, Note_on_c, 0, 68, 48
1, 69642, Note_off_c, 0, 75, 53
1, 69782, Note_on_c, 0, 73, 55
1, 69790, Note_off_c, 0, 68, 61
1, 69795, Note_on_c, 0, 79, 35
1, 69807, Note_on_c, 0, 89, 86
1, 69815, Note_off_c, 0, 70, 51
1, 69822, Note_on_c, 0, 82, 72
1, 69826, Note_on_c, 0, 77, 58
1, 69871, Note_off_c, 0, 79, 39
1, 69919, Note_on_c, 0, 70, 56
1, 69926, Note_on_c, 0, 68, 53
1, 69961, Note_off_c, 0, 68, 63
1, 69976, Note_off_c, 0, 73, 34
1, 69990, Note_off_c, 0, 70, 51
1, 70018, Note_off_c, 0, 77, 42
1, 70032, Note_on_c, 0, 68, 60
1, 70037, Note_on_c, 0, 70, 34
1, 70134, Note_off_c, 0, 82, 58
1, 70166, Note_on_c, 0, 73, 57
1, 70170, Note_on_c, 0, 79, 64
1, 70190, Note_off_c, 0, 79, 65
1, 70202, Note_off_c, 0, 73, 63
1, 70205, Note_off_c, 0, 70, 63
1, 70238, Note_off_c, 0, 68, 48
1, 70306, Note_off_c, 0, 89, 36
1, 70428, Note_on_c, 0, 60, 46
1, 70441, Note_on_c, 0, 89, 74
1, 70442, Control_c, 0, 64, 113
1, 70456, Control_c, 0, 64, 97
1, 70462, Note_on_c, 0, 78, 61
1, 70462, Note_on_c, 0, 82, 60
1, 70471, Control_c, 0, 64, 82
1, 70474, Note_on_c, 0, 77, 53
1, 70486, Control_c, 0, 64, 67
1, 70501, Control_c, 0, 64, 50
1, 70516, Control_c, 0, 64, 25
1, 70520, Note_off_c, 0, 77, 0
1, 70520, Note_on_c, 0, 77, 12
1, 70530, Control_c, 0, 64, 17
1, 70545, Control_c, 0, 64, 0
1, 70590, Control_c, 0, 64, 37
1, 70603, Note_off_c, 0, 60, 55
1, 70605, Control_c, 0, 64, 64
1, 70617, Note_off_c, 0, 78, 64
1, 70620, Control_c, 0, 64, 78
1, 70623, Note_on_c, 0, 63, 46
1, 70635, Control_c, 0, 64, 107
1, 70637, Note_off_c, 0, 77, 45
1, 70641, Note_off_c, 0, 82, 62
1, 70649, Control_c, 0, 64, 127
1, 70690, Note_on_c, 0, 66, 49
1, 70707, Note_off_c, 0, 63, 52
1, 70730, Note_off_c, 0, 66, 58
1, 70736, Note_on_c, 0, 70, 57
1, 70766, Note_off_c, 0, 70, 65
1, 70781, Note_on_c, 0, 72, 64
1, 70810, Note_off_c, 0, 72, 64
1, 70861, Note_on_c, 0, 75, 66
1, 70934, Note_on_c, 0, 78, 54
1, 70937, Note_off_c, 0, 75, 61
1, 70970, Note_on_c, 0, 82, 64
1, 70971, Note_off_c, 0, 78, 61
1, 71012, Note_off_c, 0, 82, 62
1, 71014, Note_on_c, 0, 87, 89
1, 71030, Note_on_c, 0, 84, 62
1, 71072, Note_off_c, 0, 84, 57
1, 71106, Note_on_c, 0, 82, 62
1, 71162, Note_off_c, 0, 82, 63
1, 71174, Note_on_c, 0, 78, 52
1, 71189, Note_off_c, 0, 89, 32
1, 71193, Note_on_c, 0, 75, 63
1, 71201, Note_off_c, 0, 78, 66
1, 71220, Note_off_c, 0, 75, 67
1, 71272, Note_on_c, 0, 72, 64
1, 71296, Note_off_c, 0, 87, 62
1, 71299, Note_off_c, 0, 72, 65
1, 71340, Note_on_c, 0, 70, 66
1, 71393, Note_off_c, 0, 70, 60
1, 71423, Note_on_c, 0, 66, 50
1, 71448, Note_off_c, 0, 66, 64
1, 71454, Note_on_c, 0, 63, 47
1, 71487, Control_c, 0, 67, 8
1, 71490, Note_off_c, 0, 63, 64
1, 71502, Control_c, 0, 67, 9
1, 71517, Control_c, 0, 67, 11
1, 71532, Control_c, 0, 67, 12
1, 71546, Control_c, 0, 67, 14
1, 71550, Note_on_c, 0, 60, 55
1, 71561, Control_c, 0, 67, 17
1, 71576, Control_c, 0, 67, 20
1, 71580, Note_on_c, 0, 82, 63
1, 71583, Note_on_c, 0, 78, 48
1, 71588, Note_on_c, 0, 75, 55
1, 71590, Control_c, 0, 67, 24
1, 71593, Note_on_c, 0, 70, 48
1, 71605, Control_c, 0, 67, 30
1, 71618, Note_off_c, 0, 60, 46
1, 71620, Control_c, 0, 67, 35
1, 71635, Control_c, 0, 67, 40
1, 71650, Control_c, 0, 67, 46
1, 71664, Control_c, 0, 67, 53
1, 71669, Note_on_c, 0, 58, 49
1, 71679, Control_c, 0, 67, 60
1, 71694, Control_c, 0, 67, 67
1, 71710, Control_c, 0, 67, 76
1, 71725, Control_c, 0, 67, 83
1, 71740, Control_c, 0, 67, 92
1, 71755, Control_c, 0, 67, 99
1, 71769, Control_c, 0, 67, 106
1, 71779, Note_off_c, 0, 58, 57
1, 71784, Control_c, 0, 67, 112
1, 71799, Control_c, 0, 67, 118
1, 71800, Note_on_c, 0, 54, 37
1, 71814, Control_c, 0, 67, 125
1, 71829, Control_c, 0, 67, 127
1, 71871, Note_on_c, 0, 51, 42
1, 71873, Note_off_c, 0, 54, 43
1, 71940, Note_off_c, 0, 82, 39
1, 72005, Note_on_c, 0, 48, 36
1, 72008, Note_off_c, 0, 75, 35
1, 72011, Note_off_c, 0, 78, 35
1, 72044, Note_off_c, 0, 48, 51
1, 72047, Note_off_c, 0, 51, 33
1, 72163, Note_off_c, 0, 70, 37
1, 72206, Control_c, 0, 64, 114
1, 72220, Control_c, 0, 64, 102
1, 72235, Control_c, 0, 64, 87
1, 72250, Control_c, 0, 64, 67
1, 72258, Note_on_c, 0, 41, 41
1, 72265, Control_c, 0, 64, 29
1, 72280, Control_c, 0, 64, 0
1, 72340, Control_c, 0, 64, 48
1, 72355, Control_c, 0, 64, 76
1, 72369, Control_c, 0, 64, 110
1, 72384, Control_c, 0, 64, 127
1, 72385, Note_on_c, 0, 48, 34
1, 72414, Note_off_c, 0, 41, 31
1, 72468, Note_off_c, 0, 48, 58
1, 72531, Note_on_c, 0, 57, 40
1, 72565, Note_off_c, 0, 57, 61
1, 72622, Note_on_c, 0, 67, 47
1, 72688, Control_c, 0, 67, 127
1, 72689, Note_off_c, 0, 67, 55
1, 72699, Note_on_c, 0, 75, 43
1, 72703, Control_c, 0, 67, 125
1, 72718, Control_c, 0, 67, 122
1, 72733, Control_c, 0, 67, 119
1, 72748, Control_c, 0, 67, 114
1, 72756, Note_on_c, 0, 79, 60
1, 72763, Control_c, 0, 67, 108
1, 72775, Note_on_c, 0, 63, 44
1, 72778, Control_c, 0, 67, 100
1, 72790, Note_on_c, 0, 67, 40
1, 72792, Control_c, 0, 67, 90
1, 72807, Control_c, 0, 67, 79
1, 72816, Note_off_c, 0, 75, 57
1, 72822, Control_c, 0, 67, 68
1, 72837, Control_c, 0, 67, 56
1, 72840, Note_off_c, 0, 67, 57
1, 72849, Note_off_c, 0, 63, 55
1, 72851, Control_c, 0, 67, 44
1, 72866, Control_c, 0, 67, 36
1, 72881, Control_c, 0, 67, 29
1, 72896, Control_c, 0, 67, 26
1, 72911, Control_c, 0, 67, 24
1, 73043, Control_c, 0, 67, 25
1, 73058, Control_c, 0, 67, 26
1, 73073, Control_c, 0, 67, 27
1, 73088, Control_c, 0, 67, 27
1, 73103, Control_c, 0, 67, 28
1, 73118, Control_c, 0, 67, 28
1, 73128, Note_on_c, 0, 69, 30
1, 73130, Note_on_c, 0, 75, 36
1, 73147, Control_c, 0, 67, 29
1, 73162, Control_c, 0, 67, 30
1, 73180, Note_off_c, 0, 75, 51
1, 73186, Note_off_c, 0, 69, 44
1, 73207, Control_c, 0, 67, 31
1, 73222, Control_c, 0, 67, 31
1, 73317, Note_on_c, 0, 75, 33
1, 73344, Poly_aftertouch_c, 0, 69, 127
1, 73363, Note_off_c, 0, 75, 50
1, 73386, Poly_aftertouch_c, 0, 69, 0
1, 73429, Note_on_c, 0, 57, 37
1, 73440, Note_on_c, 0, 63, 26
1, 73448, Note_on_c, 0, 67, 4
1, 73469, Note_off_c, 0, 57, 50
1, 73482, Note_off_c, 0, 63, 49
1, 73506, Note_off_c, 0, 67, 50
1, 73526, Note_on_c, 0, 69, 30
1, 73531, Note_on_c, 0, 75, 47
1, 73570, Note_off_c, 0, 75, 59
1, 73579, Note_off_c, 0, 69, 46
1, 73627, Note_on_c, 0, 67, 43
1, 73632, Note_on_c, 0, 63, 33
1, 73640, Note_on_c, 0, 57, 34
1, 73672, Note_off_c, 0, 67, 54
1, 73684, Note_off_c, 0, 63, 44
1, 73726, Note_off_c, 0, 57, 0
1, 73734, Control_c, 0, 67, 32
1, 73746, Note_on_c, 0, 57, 28
1, 73748, Control_c, 0, 67, 34
1, 73753, Note_on_c, 0, 67, 29
1, 73763, Control_c, 0, 67, 36
1, 73779, Note_on_c, 0, 63, 33
1, 73797, Note_off_c, 0, 67, 47
1, 73803, Note_on_c, 0, 75, 57
1, 73806, Note_off_c, 0, 57, 45
1, 73811, Note_off_c, 0, 63, 54
1, 73814, Note_on_c, 0, 69, 32
1, 73837, Control_c, 0, 67, 35
1, 73844, Note_off_c, 0, 75, 57
1, 73851, Note_off_c, 0, 69, 51
1, 73852, Control_c, 0, 67, 33
1, 73881, Control_c, 0, 67, 36
1, 73896, Control_c, 0, 67, 39
1, 73908, Note_on_c, 0, 63, 44
1, 73908, Note_on_c, 0, 67, 47
1, 73911, Control_c, 0, 67, 42
1, 73926, Control_c, 0, 67, 41
1, 73931, Note_on_c, 0, 57, 41
1, 73940, Control_c, 0, 67, 42
1, 73944, Note_off_c, 0, 67, 62
1, 73952, Note_off_c, 0, 63, 60
1, 73955, Control_c, 0, 67, 43
1, 73968, Note_off_c, 0, 57, 50
1, 74000, Control_c, 0, 67, 41
1, 74004, Note_on_c, 0, 75, 49
1, 74009, Note_on_c, 0, 69, 30
1, 74030, Control_c, 0, 67, 42
1, 74041, Note_off_c, 0, 75, 58
1, 74045, Control_c, 0, 67, 43
1, 74061, Note_off_c, 0, 69, 0
1, 74074, Control_c, 0, 67, 42
1, 74083, Note_on_c, 0, 69, 32
1, 74105, Note_on_c, 0, 75, 52
1, 74111, Control_c, 0, 67, 42
1, 74138, Note_off_c, 0, 69, 56
1, 74144, Note_off_c, 0, 75, 59
1, 74161, Note_off_c, 0, 79, 59
1, 74186, Note_on_c, 0, 67, 38
1, 74194, Note_on_c, 0, 63, 35
1, 74202, Note_on_c, 0, 57, 29
1, 74229, Note_off_c, 0, 67, 54
1, 74241, Note_off_c, 0, 63, 48
1, 74241, Note_off_c, 0, 57, 52
1, 74265, Note_on_c, 0, 79, 74
1, 74280, Note_on_c, 0, 75, 58
1, 74286, Note_on_c, 0, 69, 38
1, 74289, Control_c, 0, 67, 42
1, 74304, Control_c, 0, 67, 41
1, 74367, Note_off_c, 0, 69, 38
1, 74373, Note_on_c, 0, 63, 48
1, 74381, Note_off_c, 0, 75, 36
1, 74386, Note_on_c, 0, 57, 37
1, 74390, Note_on_c, 0, 67, 35
1, 74393, Control_c, 0, 67, 41
1, 74409, Note_off_c, 0, 63, 62
1, 74465, Note_off_c, 0, 57, 0
1, 74468, Note_off_c, 0, 67, 0
1, 74481, Note_on_c, 0, 57, 34
1, 74486, Note_on_c, 0, 67, 20
1, 74506, Note_on_c, 0, 63, 39
1, 74523, Note_off_c, 0, 57, 50
1, 74531, Note_off_c, 0, 67, 50
1, 74540, Note_off_c, 0, 63, 54
1, 74549, Note_on_c, 0, 75, 62
1, 74551, Note_on_c, 0, 69, 54
1, 74572, Note_off_c, 0, 69, 61
1, 74578, Note_off_c, 0, 75, 61
1, 74668, Note_on_c, 0, 69, 23
1, 74677, Poly_aftertouch_c, 0, 75, 0
1, 74702, Note_off_c, 0, 69, 53
1, 74723, Note_on_c, 0, 63, 44
1, 74734, Note_on_c, 0, 57, 41
1, 74734, Note_on_c, 0, 67, 34
1, 74763, Note_off_c, 0, 63, 62
1, 74768, Note_off_c, 0, 67, 52
1, 74778, Note_off_c, 0, 57, 50
1, 74793, Control_c, 0, 67, 40
1, 74855, Note_on_c, 0, 67, 37
1, 74874, Note_on_c, 0, 63, 39
1, 74888, Note_off_c, 0, 67, 53
1, 74897, Poly_aftertouch_c, 0, 57, 127
1, 74909, Note_off_c, 0, 63, 53
1, 74910, Note_on_c, 0, 69, 54
1, 74915, Note_on_c, 0, 75, 50
1, 74918, Note_off_c, 0, 79, 58
1, 74932, Note_off_c, 0, 69, 62
1, 74938, Note_off_c, 0, 75, 62
1, 74946, Poly_aftertouch_c, 0, 57, 0
1, 74994, Control_c, 0, 67, 40
1, 75018, Note_on_c, 0, 69, 60
1, 75021, Note_on_c, 0, 75, 64
1, 75023, Note_on_c, 0, 81, 75
1, 75024, Note_on_c, 0, 78, 74
1, 75024, Control_c, 0, 67, 39
1, 75053, Control_c, 0, 64, 98
1, 75068, Control_c, 0, 64, 79
1, 75068, Control_c, 0, 67, 39
1, 75083, Control_c, 0, 64, 63
1, 75083, Control_c, 0, 67, 38
1, 75098, Control_c, 0, 64, 43
1, 75112, Control_c, 0, 64, 42
1, 75127, Control_c, 0, 64, 49
1, 75142, Control_c, 0, 64, 60
1, 75146, Note_on_c, 0, 57, 41
1, 75149, Note_on_c, 0, 63, 44
1, 75154, Note_off_c, 0, 69, 60
1, 75157, Note_on_c, 0, 66, 33
1, 75157, Control_c, 0, 64, 70
1, 75170, Note_off_c, 0, 75, 54
1, 75172, Control_c, 0, 64, 87
1, 75183, Note_off_c, 0, 57, 53
1, 75185, Note_off_c, 0, 63, 63
1, 75186, Control_c, 0, 64, 127
1, 75191, Note_off_c, 0, 66, 46
1, 75264, Note_on_c, 0, 66, 42
1, 75293, Note_off_c, 0, 66, 56
1, 75300, Note_on_c, 0, 57, 29
1, 75301, Note_on_c, 0, 63, 28
1, 75336, Note_off_c, 0, 57, 54
1, 75341, Note_off_c, 0, 63, 54
1, 75349, Note_on_c, 0, 69, 54
1, 75360, Note_on_c, 0, 75, 46
1, 75394, Note_off_c, 0, 69, 58
1, 75422, Note_off_c, 0, 81, 64
1, 75447, Note_off_c, 0, 75, 54
1, 75454, Control_c, 0, 67, 38
1, 75543, Control_c, 0, 67, 37
1, 75557, Control_c, 0, 64, 118
1, 75572, Control_c, 0, 64, 105
1, 75572, Control_c, 0, 67, 37
1, 75592, Note_on_c, 0, 46, 46
1, 75595, Control_c, 0, 64, 96
1, 75610, Control_c, 0, 64, 87
1, 75625, Control_c, 0, 64, 79
1, 75639, Control_c, 0, 64, 69
1, 75652, Note_on_c, 0, 84, 75
1, 75654, Control_c, 0, 64, 57
1, 75668, Note_on_c, 0, 76, 59
1, 75669, Control_c, 0, 64, 36
1, 75669, Note_off_c, 0, 78, 52
1, 75675, Note_on_c, 0, 72, 53
1, 75684, Control_c, 0, 64, 33
1, 75699, Control_c, 0, 64, 32
1, 75714, Control_c, 0, 64, 32
1, 75729, Control_c, 0, 64, 34
1, 75744, Control_c, 0, 64, 49
1, 75759, Control_c, 0, 64, 63
1, 75774, Control_c, 0, 64, 77
1, 75774, Control_c, 0, 67, 37
1, 75789, Control_c, 0, 64, 98
1, 75789, Control_c, 0, 67, 38
1, 75800, Note_off_c, 0, 46, 41
1, 75801, Note_on_c, 0, 52, 39
1, 75803, Control_c, 0, 64, 127
1, 75803, Control_c, 0, 67, 38
1, 75818, Control_c, 0, 67, 39
1, 75833, Control_c, 0, 67, 40
1, 75848, Control_c, 0, 67, 41
1, 75852, Note_off_c, 0, 76, 62
1, 75855, Note_off_c, 0, 72, 59
1, 75862, Control_c, 0, 67, 41
1, 75863, Note_on_c, 0, 56, 54
1, 75877, Control_c, 0, 67, 42
1, 75879, Note_off_c, 0, 52, 60
1, 75892, Control_c, 0, 67, 42
1, 75907, Control_c, 0, 67, 43
1, 75908, Note_off_c, 0, 56, 64
1, 75923, Note_on_c, 0, 60, 50
1, 75952, Note_off_c, 0, 60, 66
1, 76025, Control_c, 0, 67, 42
1, 76036, Note_on_c, 0, 64, 55
1, 76097, Note_off_c, 0, 64, 54
1, 76099, Control_c, 0, 67, 42
1, 76103, Note_on_c, 0, 68, 57
1, 76146, Note_on_c, 0, 72, 60
1, 76172, Note_off_c, 0, 68, 64
1, 76182, Note_off_c, 0, 72, 63
1, 76216, Note_on_c, 0, 82, 81
1, 76223, Note_on_c, 0, 76, 55
1, 76246, Control_c, 0, 67, 41
1, 76268, Note_off_c, 0, 76, 55
1, 76281, Note_off_c, 0, 84, 58
1, 76304, Note_on_c, 0, 72, 49
1, 76305, Control_c, 0, 67, 41
1, 76339, Note_on_c, 0, 68, 51
1, 76342, Note_off_c, 0, 72, 57
1, 76357, Control_c, 0, 67, 40
1, 76394, Note_off_c, 0, 68, 64
1, 76406, Note_on_c, 0, 64, 32
1, 76461, Note_off_c, 0, 64, 0
1, 76481, Note_on_c, 0, 64, 34
1, 76543, Note_on_c, 0, 60, 58
1, 76544, Note_off_c, 0, 64, 63
1, 76580, Control_c, 0, 67, 41
1, 76593, Note_on_c, 0, 56, 55
1, 76595, Control_c, 0, 64, 110
1, 76600, Note_off_c, 0, 60, 61
1, 76609, Control_c, 0, 64, 94
1, 76624, Control_c, 0, 64, 74
1, 76632, Note_off_c, 0, 56, 64
1, 76639, Control_c, 0, 64, 59
1, 76644, Note_on_c, 0, 52, 59
1, 76654, Control_c, 0, 64, 46
1, 76669, Control_c, 0, 64, 56
1, 76683, Control_c, 0, 64, 64
1, 76698, Control_c, 0, 64, 72
1, 76713, Control_c, 0, 64, 87
1, 76717, Note_off_c, 0, 52, 59
1, 76728, Control_c, 0, 64, 127
1, 76728, Control_c, 0, 67, 40
1, 76739, Note_on_c, 0, 56, 51
1, 76768, Note_on_c, 0, 60, 45
1, 76779, Note_off_c, 0, 56, 62
1, 76799, Note_off_c, 0, 60, 65
1, 76817, Note_on_c, 0, 64, 51
1, 76842, Note_off_c, 0, 64, 63
1, 76862, Control_c, 0, 67, 40
1, 76904, Note_on_c, 0, 68, 59
1, 76965, Control_c, 0, 67, 39
1, 76976, Note_on_c, 0, 72, 52
1, 76990, Note_off_c, 0, 68, 64
1, 77015, Note_off_c, 0, 72, 63
1, 77034, Note_on_c, 0, 80, 68
1, 77038, Note_on_c, 0, 76, 52
1, 77099, Note_off_c, 0, 76, 55
1, 77123, Note_on_c, 0, 72, 54
1, 77155, Note_off_c, 0, 82, 48
1, 77159, Note_off_c, 0, 72, 63
1, 77163, Note_on_c, 0, 68, 51
1, 77195, Note_off_c, 0, 68, 67
1, 77197, Note_off_c, 0, 80, 58
1, 77199, Note_on_c, 0, 64, 55
1, 77222, Note_off_c, 0, 64, 64
1, 77302, Note_on_c, 0, 64, 42
1, 77332, Note_off_c, 0, 64, 55
1, 77355, Note_on_c, 0, 60, 52
1, 77386, Note_on_c, 0, 56, 62
1, 77389, Note_off_c, 0, 60, 61
1, 77457, Note_on_c, 0, 52, 49
1, 77466, Note_off_c, 0, 56, 62
1, 77490, Note_off_c, 0, 52, 64
1, 77492, Control_c, 0, 67, 39
1, 77610, Control_c, 0, 64, 113
1, 77625, Control_c, 0, 64, 103
1, 77628, Note_on_c, 0, 47, 45
1, 77640, Control_c, 0, 64, 94
1, 77655, Control_c, 0, 64, 85
1, 77669, Control_c, 0, 64, 75
1, 77684, Control_c, 0, 64, 67
1, 77699, Control_c, 0, 64, 57
1, 77703, Note_on_c, 0, 73, 66
1, 77710, Note_on_c, 0, 69, 51
1, 77714, Control_c, 0, 64, 42
1, 77726, Note_on_c, 0, 61, 46
1, 77729, Control_c, 0, 64, 33
1, 77744, Control_c, 0, 64, 26
1, 77759, Control_c, 0, 64, 16
1, 77774, Control_c, 0, 64, 12
1, 77803, Control_c, 0, 64, 23
1, 77803, Control_c, 0, 67, 39
1, 77818, Control_c, 0, 64, 47
1, 77839, Control_c, 0, 64, 63
1, 77854, Control_c, 0, 64, 71
1, 77869, Control_c, 0, 64, 85
1, 77884, Control_c, 0, 64, 98
1, 77899, Control_c, 0, 64, 111
1, 77908, Note_off_c, 0, 47, 44
1, 77914, Control_c, 0, 64, 127
1, 77929, Control_c, 0, 67, 40
1, 77932, Note_on_c, 0, 54, 46
1, 77944, Control_c, 0, 67, 41
1, 77958, Control_c, 0, 67, 41
1, 77973, Control_c, 0, 67, 42
1, 77982, Note_off_c, 0, 61, 56
1, 77988, Control_c, 0, 67, 42
1, 78003, Control_c, 0, 67, 43
1, 78018, Control_c, 0, 67, 44
1, 78021, Note_off_c, 0, 73, 62
1, 78030, Note_off_c, 0, 69, 64
1, 78032, Control_c, 0, 67, 44
1, 78035, Note_on_c, 0, 57, 48
1, 78047, Control_c, 0, 67, 46
1, 78062, Control_c, 0, 67, 53
1, 78077, Control_c, 0, 67, 60
1, 78092, Control_c, 0, 67, 70
1, 78108, Control_c, 0, 67, 79
1, 78123, Control_c, 0, 67, 89
1, 78125, Note_on_c, 0, 61, 49
1, 78137, Control_c, 0, 67, 99
1, 78152, Control_c, 0, 67, 106
1, 78167, Control_c, 0, 67, 110
1, 78182, Control_c, 0, 67, 112
1, 78188, Note_off_c, 0, 57, 53
1, 78197, Note_off_c, 0, 61, 62
1, 78226, Control_c, 0, 67, 112
1, 78249, Note_off_c, 0, 54, 40
1, 78275, Note_on_c, 0, 66, 51
1, 78352, Note_on_c, 0, 63, 52
1, 78384, Note_off_c, 0, 66, 55
1, 78432, Note_on_c, 0, 61, 46
1, 78447, Note_off_c, 0, 63, 57
1, 78459, Note_off_c, 0, 61, 63
1, 78474, Note_on_c, 0, 57, 56
1, 78505, Note_off_c, 0, 57, 65
1, 78552, Control_c, 0, 67, 113
1, 78556, Note_on_c, 0, 54, 52
1, 78567, Control_c, 0, 67, 113
1, 78588, Control_c, 0, 67, 114
1, 78603, Control_c, 0, 67, 117
1, 78618, Control_c, 0, 67, 121
1, 78633, Control_c, 0, 67, 124
1, 78648, Note_on_c, 0, 49, 56
1, 78648, Control_c, 0, 67, 127
1, 78662, Control_c, 0, 67, 127
1, 78677, Note_off_c, 0, 54, 55
1, 78681, Note_off_c, 0, 49, 64
1, 78714, Note_on_c, 0, 47, 37
1, 78744, Note_on_c, 0, 42, 65
1, 78790, Note_off_c, 0, 47, 47
1, 78796, Control_c, 0, 64, 120
1, 78811, Control_c, 0, 64, 100
1, 78826, Control_c, 0, 64, 85
1, 78835, Note_off_c, 0, 42, 59
1, 78838, Note_on_c, 0, 35, 60
1, 78841, Control_c, 0, 64, 69
1, 78855, Control_c, 0, 64, 46
1, 78870, Control_c, 0, 64, 0
1, 78900, Control_c, 0, 64, 34
1, 78915, Control_c, 0, 64, 59
1, 78930, Control_c, 0, 64, 69
1, 78936, Note_off_c, 0, 35, 62
1, 78945, Control_c, 0, 64, 83
1, 78960, Control_c, 0, 64, 101
1, 78965, Note_on_c, 0, 47, 52
1, 78975, Control_c, 0, 64, 113
1, 78990, Control_c, 0, 64, 117
1, 78999, Note_off_c, 0, 47, 64
1, 79004, Control_c, 0, 64, 127
1, 79077, Note_on_c, 0, 51, 53
1, 79131, Note_off_c, 0, 51, 60
1, 79179, Note_on_c, 0, 57, 47
1, 79258, Note_off_c, 0, 57, 36
1, 79348, Note_on_c, 0, 68, 47
1, 79354, Note_on_c, 0, 60, 47
1, 79403, Note_off_c, 0, 60, 57
1, 79453, Note_on_c, 0, 63, 47
1, 79479, Note_off_c, 0, 68, 51
1, 79530, Note_on_c, 0, 60, 44
1, 79585, Note_off_c, 0, 60, 60
1, 79596, Note_off_c, 0, 63, 36
1, 79615, Note_on_c, 0, 57, 48
1, 79641, Note_off_c, 0, 57, 60
1, 79731, Note_on_c, 0, 57, 51
1, 79861, Note_on_c, 0, 54, 35
1, 79971, Note_on_c, 0, 51, 32
1, 80088, Note_off_c, 0, 57, 41
1, 80112, Note_on_c, 0, 48, 40
1, 80151, Note_off_c, 0, 48, 60
1, 80173, Note_off_c, 0, 54, 42
1, 80179, Note_off_c, 0, 51, 40
1, 80249, Control_c, 0, 64, 125
1, 80264, Control_c, 0, 64, 119
1, 80279, Control_c, 0, 64, 117
1, 80294, Control_c, 0, 64, 116
1, 80308, Control_c, 0, 64, 115
1, 80323, Control_c, 0, 64, 113
1, 80338, Control_c, 0, 64, 111
1, 80352, Control_c, 0, 64, 109
1, 80367, Control_c, 0, 64, 108
1, 80382, Control_c, 0, 64, 106
1, 80397, Control_c, 0, 64, 105
1, 80412, Control_c, 0, 64, 103
1, 80427, Control_c, 0, 64, 100
1, 80442, Control_c, 0, 64, 98
1, 80457, Control_c, 0, 64, 96
1, 80472, Control_c, 0, 64, 95
1, 80486, Control_c, 0, 64, 93
1, 80502, Control_c, 0, 64, 91
1, 80517, Control_c, 0, 64, 89
1, 80531, Control_c, 0, 64, 86
1, 80546, Control_c, 0, 64, 83
1, 80561, Note_on_c, 0, 44, 32
1, 80561, Control_c, 0, 64, 79
1, 80576, Control_c, 0, 64, 74
1, 80591, Control_c, 0, 64, 67
1, 80606, Control_c, 0, 64, 60
1, 80621, Control_c, 0, 64, 46
1, 80635, Control_c, 0, 64, 31
1, 80650, Control_c, 0, 64, 0
1, 80652, Note_on_c, 0, 63, 37
1, 80655, Note_on_c, 0, 59, 30
1, 80754, Control_c, 0, 64, 40
1, 80769, Control_c, 0, 64, 60
1, 80783, Control_c, 0, 64, 66
1, 80798, Control_c, 0, 64, 71
1, 80813, Control_c, 0, 64, 79
1, 80835, Control_c, 0, 64, 86
1, 80850, Control_c, 0, 64, 90
1, 80865, Control_c, 0, 64, 93
1, 80880, Control_c, 0, 64, 97
1, 80889, Note_off_c, 0, 44, 41
1, 80892, Note_on_c, 0, 64, 41
1, 80895, Control_c, 0, 64, 100
1, 80898, Note_off_c, 0, 63, 43
1, 80910, Control_c, 0, 64, 105
1, 80917, Note_off_c, 0, 59, 41
1, 80919, Note_on_c, 0, 51, 28
1, 80924, Control_c, 0, 64, 109
1, 80939, Control_c, 0, 64, 112
1, 80954, Control_c, 0, 64, 115
1, 80969, Control_c, 0, 64, 118
1, 80983, Control_c, 0, 64, 123
1, 80998, Control_c, 0, 64, 127
1, 81023, Note_on_c, 0, 63, 57
1, 81050, Note_on_c, 0, 56, 43
1, 81056, Note_off_c, 0, 63, 65
1, 81059, Note_off_c, 0, 64, 42
1, 81133, Note_on_c, 0, 63, 63
1, 81148, Note_off_c, 0, 51, 43
1, 81181, Note_off_c, 0, 63, 53
1, 81185, Note_on_c, 0, 60, 38
1, 81263, Note_on_c, 0, 76, 53
1, 81279, Control_c, 0, 64, 116
1, 81294, Control_c, 0, 64, 99
1, 81310, Control_c, 0, 64, 86
1, 81325, Control_c, 0, 64, 75
1, 81333, Note_off_c, 0, 76, 55
1, 81340, Control_c, 0, 64, 72
1, 81354, Control_c, 0, 64, 76
1, 81363, Note_on_c, 0, 75, 43
1, 81369, Control_c, 0, 64, 87
1, 81373, Note_on_c, 0, 68, 40
1, 81373, Note_on_c, 0, 72, 44
1, 81384, Control_c, 0, 64, 98
1, 81397, Note_off_c, 0, 75, 57
1, 81399, Control_c, 0, 64, 102
1, 81400, Note_off_c, 0, 68, 57
1, 81413, Control_c, 0, 64, 102
1, 81455, Note_off_c, 0, 72, 0
1, 81461, Note_on_c, 0, 75, 45
1, 81473, Note_on_c, 0, 72, 29
1, 81488, Control_c, 0, 64, 103
1, 81495, Note_on_c, 0, 68, 23
1, 81524, Note_off_c, 0, 75, 53
1, 81535, Note_off_c, 0, 68, 54
1, 81554, Note_off_c, 0, 72, 40
1, 81554, Note_on_c, 0, 76, 56
1, 81613, Control_c, 0, 64, 102
1, 81619, Note_off_c, 0, 76, 59
1, 81628, Control_c, 0, 64, 99
1, 81643, Control_c, 0, 64, 92
1, 81647, Note_on_c, 0, 68, 42
1, 81658, Control_c, 0, 64, 83
1, 81663, Note_on_c, 0, 75, 49
1, 81673, Control_c, 0, 64, 72
1, 81688, Control_c, 0, 64, 65
1, 81689, Note_on_c, 0, 72, 31
1, 81694, Note_off_c, 0, 68, 46
1, 81707, Note_off_c, 0, 75, 57
1, 81718, Control_c, 0, 64, 71
1, 81730, Note_off_c, 0, 72, 47
1, 81732, Control_c, 0, 64, 79
1, 81747, Control_c, 0, 64, 87
1, 81755, Note_on_c, 0, 76, 49
1, 81762, Control_c, 0, 64, 90
1, 81797, Note_off_c, 0, 76, 52
1, 81825, Note_on_c, 0, 75, 50
1, 81831, Note_on_c, 0, 68, 34
1, 81832, Note_on_c, 0, 72, 54
1, 81836, Control_c, 0, 64, 91
1, 81858, Note_off_c, 0, 75, 57
1, 81863, Note_off_c, 0, 68, 51
1, 81896, Note_off_c, 0, 72, 0
1, 81911, Note_on_c, 0, 72, 38
1, 81920, Note_on_c, 0, 68, 39
1, 81920, Note_on_c, 0, 75, 51
1, 81970, Note_off_c, 0, 75, 51
1, 81972, Note_off_c, 0, 68, 44
1, 82015, Note_on_c, 0, 76, 53
1, 82017, Note_off_c, 0, 72, 37
1, 82060, Note_off_c, 0, 76, 61
1, 82090, Note_on_c, 0, 68, 42
1, 82091, Note_on_c, 0, 72, 39
1, 82094, Note_on_c, 0, 75, 53
1, 82116, Note_off_c, 0, 68, 58
1, 82118, Note_off_c, 0, 75, 59
1, 82169, Note_off_c, 0, 72, 0
1, 82185, Note_on_c, 0, 72, 31
1, 82196, Note_on_c, 0, 68, 40
1, 82210, Note_on_c, 0, 75, 47
1, 82227, Note_off_c, 0, 68, 51
1, 82248, Note_off_c, 0, 75, 47
1, 82268, Note_off_c, 0, 72, 36
1, 82282, Note_off_c, 0, 60, 32
1, 82290, Note_on_c, 0, 76, 45
1, 82311, Control_c, 0, 64, 90
1, 82334, Control_c, 0, 64, 89
1, 82348, Note_off_c, 0, 56, 42
1, 82349, Control_c, 0, 64, 87
1, 82353, Note_off_c, 0, 76, 47
1, 82364, Control_c, 0, 64, 83
1, 82378, Control_c, 0, 64, 75
1, 82393, Control_c, 0, 64, 65
1, 82401, Note_on_c, 0, 75, 31
1, 82408, Control_c, 0, 64, 55
1, 82412, Note_on_c, 0, 72, 37
1, 82422, Note_on_c, 0, 68, 31
1, 82423, Control_c, 0, 64, 50
1, 82437, Control_c, 0, 64, 53
1, 82452, Control_c, 0, 64, 59
1, 82467, Control_c, 0, 64, 63
1, 82482, Control_c, 0, 64, 69
1, 82484, Note_off_c, 0, 68, 46
1, 82497, Control_c, 0, 64, 79
1, 82503, Note_off_c, 0, 75, 34
1, 82504, Note_on_c, 0, 76, 35
1, 82511, Control_c, 0, 64, 90
1, 82514, Note_off_c, 0, 72, 33
1, 82526, Control_c, 0, 64, 96
1, 82541, Control_c, 0, 64, 97
1, 82555, Control_c, 0, 64, 98
1, 82570, Control_c, 0, 64, 101
1, 82574, Note_off_c, 0, 76, 47
1, 82585, Control_c, 0, 64, 103
1, 82599, Note_on_c, 0, 72, 34
1, 82600, Note_on_c, 0, 75, 42
1, 82600, Control_c, 0, 64, 103
1, 82606, Note_on_c, 0, 68, 43
1, 82615, Control_c, 0, 64, 105
1, 82630, Control_c, 0, 64, 106
1, 82645, Control_c, 0, 64, 107
1, 82646, Note_off_c, 0, 68, 45
1, 82659, Control_c, 0, 64, 108
1, 82674, Control_c, 0, 64, 108
1, 82686, Note_off_c, 0, 72, 0
1, 82686, Note_on_c, 0, 72, 30
1, 82686, Note_off_c, 0, 75, 0
1, 82694, Note_on_c, 0, 68, 40
1, 82701, Note_on_c, 0, 75, 38
1, 82749, Note_off_c, 0, 68, 53
1, 82756, Note_off_c, 0, 75, 55
1, 82763, Control_c, 0, 64, 109
1, 82767, Note_off_c, 0, 72, 53
1, 82793, Control_c, 0, 64, 109
1, 82800, Note_on_c, 0, 76, 47
1, 82822, Control_c, 0, 64, 110
1, 82837, Control_c, 0, 64, 110
1, 82838, Note_off_c, 0, 76, 55
1, 82852, Control_c, 0, 64, 111
1, 82867, Control_c, 0, 64, 112
1, 82870, Note_on_c, 0, 72, 39
1, 82872, Note_on_c, 0, 75, 48
1, 82874, Note_on_c, 0, 68, 43
1, 82882, Control_c, 0, 64, 113
1, 82910, Note_off_c, 0, 68, 48
1, 82911, Note_off_c, 0, 75, 56
1, 82912, Control_c, 0, 64, 113
1, 82926, Control_c, 0, 64, 114
1, 82941, Control_c, 0, 64, 115
1, 82956, Control_c, 0, 64, 115
1, 82963, Note_on_c, 0, 68, 43
1, 82967, Note_on_c, 0, 75, 45
1, 82971, Control_c, 0, 64, 116
1, 82986, Control_c, 0, 64, 116
1, 82995, Note_off_c, 0, 68, 57
1, 83000, Control_c, 0, 64, 117
1, 83015, Control_c, 0, 64, 117
1, 83019, Note_off_c, 0, 75, 53
1, 83030, Control_c, 0, 64, 118
1, 83037, Note_off_c, 0, 72, 53
1, 83044, Control_c, 0, 64, 119
1, 83053, Note_on_c, 0, 76, 47
1, 83082, Control_c, 0, 64, 120
1, 83104, Note_off_c, 0, 76, 58
1, 83112, Control_c, 0, 64, 120
1, 83126, Control_c, 0, 64, 121
1, 83141, Control_c, 0, 64, 122
1, 83147, Note_on_c, 0, 75, 47
1, 83149, Note_on_c, 0, 72, 43
1, 83150, Note_on_c, 0, 68, 36
1, 83156, Control_c, 0, 64, 123
1, 83185, Control_c, 0, 64, 125
1, 83192, Note_off_c, 0, 75, 56
1, 83195, Note_off_c, 0, 68, 48
1, 83200, Control_c, 0, 64, 127
1, 83204, Note_off_c, 0, 72, 55
1, 83222, Note_on_c, 0, 76, 44
1, 83277, Note_off_c, 0, 76, 53
1, 83306, Note_on_c, 0, 68, 43
1, 83317, Note_on_c, 0, 75, 43
1, 83321, Note_on_c, 0, 72, 42
1, 83330, Note_off_c, 0, 68, 57
1, 83391, Note_off_c, 0, 72, 0
1, 83391, Note_on_c, 0, 72, 28
1, 83391, Note_off_c, 0, 75, 0
1, 83397, Note_on_c, 0, 68, 51
1, 83407, Note_on_c, 0, 75, 39
1, 83432, Note_off_c, 0, 68, 56
1, 83460, Note_off_c, 0, 75, 53
1, 83500, Note_off_c, 0, 72, 37
1, 83505, Note_on_c, 0, 76, 49
1, 83549, Note_off_c, 0, 76, 56
1, 83567, Note_on_c, 0, 72, 36
1, 83581, Note_on_c, 0, 75, 38
1, 83592, Note_on_c, 0, 68, 23
1, 83623, Note_off_c, 0, 75, 43
1, 83657, Note_off_c, 0, 68, 0
1, 83657, Note_on_c, 0, 68, 26
1, 83665, Note_on_c, 0, 75, 45
1, 83715, Note_off_c, 0, 68, 51
1, 83717, Note_off_c, 0, 75, 55
1, 83756, Note_on_c, 0, 76, 53
1, 83772, Note_off_c, 0, 72, 38
1, 83803, Note_off_c, 0, 76, 58
1, 83838, Note_on_c, 0, 68, 43
1, 83851, Note_on_c, 0, 75, 43
1, 83852, Note_on_c, 0, 72, 35
1, 83879, Note_off_c, 0, 68, 47
1, 83891, Note_off_c, 0, 75, 58
1, 83905, Note_off_c, 0, 72, 53
1, 83930, Note_on_c, 0, 76, 46
1, 83968, Note_off_c, 0, 76, 55
1, 84007, Note_on_c, 0, 75, 49
1, 84016, Note_on_c, 0, 68, 24
1, 84022, Note_on_c, 0, 72, 40
1, 84042, Note_off_c, 0, 75, 57
1, 84073, Note_off_c, 0, 68, 0
1, 84093, Note_on_c, 0, 68, 28
1, 84093, Note_off_c, 0, 72, 0
1, 84093, Note_on_c, 0, 72, 24
1, 84104, Note_on_c, 0, 75, 46
1, 84146, Note_off_c, 0, 68, 47
1, 84150, Note_off_c, 0, 75, 55
1, 84189, Note_on_c, 0, 76, 50
1, 84190, Note_off_c, 0, 72, 37
1, 84236, Note_off_c, 0, 76, 55
1, 84260, Note_on_c, 0, 68, 40
1, 84265, Note_on_c, 0, 72, 37
1, 84267, Note_on_c, 0, 75, 46
1, 84289, Note_off_c, 0, 68, 54
1, 84300, Note_off_c, 0, 75, 55
1, 84340, Note_off_c, 0, 72, 0
1, 84359, Note_on_c, 0, 72, 27
1, 84362, Note_on_c, 0, 68, 44
1, 84371, Note_on_c, 0, 75, 44
1, 84400, Note_off_c, 0, 68, 49
1, 84421, Note_off_c, 0, 75, 52
1, 84445, Note_on_c, 0, 76, 46
1, 84499, Note_off_c, 0, 76, 55
1, 84511, Note_off_c, 0, 72, 0
1, 84527, Note_on_c, 0, 72, 34
1, 84535, Note_on_c, 0, 68, 37
1, 84539, Note_on_c, 0, 75, 41
1, 84592, Note_off_c, 0, 68, 55
1, 84596, Note_off_c, 0, 75, 52
1, 84618, Note_off_c, 0, 72, 53
1, 84630, Note_on_c, 0, 76, 47
1, 84680, Note_off_c, 0, 76, 54
1, 84714, Note_on_c, 0, 68, 40
1, 84719, Note_on_c, 0, 72, 39
1, 84728, Note_on_c, 0, 75, 41
1, 84743, Note_off_c, 0, 68, 55
1, 84771, Note_off_c, 0, 75, 44
1, 84776, Note_off_c, 0, 72, 0
1, 84800, Note_on_c, 0, 72, 32
1, 84809, Note_on_c, 0, 68, 46
1, 84820, Note_on_c, 0, 75, 38
1, 84848, Note_off_c, 0, 68, 55
1, 84871, Note_off_c, 0, 75, 48
1, 84877, Note_off_c, 0, 72, 51
1, 84905, Note_on_c, 0, 76, 45
1, 84949, Note_off_c, 0, 76, 56
1, 84984, Note_on_c, 0, 72, 38
1, 84985, Note_on_c, 0, 68, 36
1, 84992, Note_on_c, 0, 75, 43
1, 85023, Note_off_c, 0, 68, 48
1, 85034, Note_off_c, 0, 75, 44
1, 85044, Note_off_c, 0, 72, 0
1, 85075, Note_on_c, 0, 68, 37
1, 85081, Poly_aftertouch_c, 0, 72, 127
1, 85083, Note_on_c, 0, 75, 39
1, 85084, Note_on_c, 0, 72, 14
1, 85132, Note_off_c, 0, 68, 44
1, 85134, Note_off_c, 0, 75, 52
1, 85159, Note_off_c, 0, 72, 41
1, 85193, Note_on_c, 0, 76, 35
1, 85358, Note_off_c, 0, 76, 22
1, 85382, Note_on_c, 0, 70, 58
1, 85454, Note_on_c, 0, 72, 30
1, 85459, Note_on_c, 0, 75, 30
1, 85461, Note_on_c, 0, 68, 21
1, 85599, Note_on_c, 0, 76, 47
1, 85604, Note_off_c, 0, 68, 47
1, 85620, Note_off_c, 0, 75, 43
1, 85649, Note_off_c, 0, 76, 53
1, 85673, Note_off_c, 0, 72, 0
1, 85693, Note_on_c, 0, 72, 24
1, 85709, Note_on_c, 0, 75, 39
1, 85710, Note_on_c, 0, 68, 42
1, 85747, Note_off_c, 0, 75, 48
1, 85766, Note_off_c, 0, 68, 0
1, 85773, Note_off_c, 0, 72, 0
1, 85787, Note_on_c, 0, 72, 40
1, 85791, Note_on_c, 0, 68, 21
1, 85816, Note_on_c, 0, 75, 37
1, 85831, Note_off_c, 0, 68, 48
1, 85837, Note_off_c, 0, 72, 56
1, 85861, Note_off_c, 0, 75, 46
1, 85900, Note_on_c, 0, 68, 73
1, 85915, Note_on_c, 0, 76, 48
1, 85971, Note_off_c, 0, 76, 53
1, 86008, Note_on_c, 0, 75, 42
1, 86011, Note_on_c, 0, 72, 46
1, 86027, Note_off_c, 0, 70, 36
1, 86044, Note_off_c, 0, 75, 61
1, 86051, Note_off_c, 0, 72, 60
1, 86129, Note_on_c, 0, 72, 43
1, 86153, Note_on_c, 0, 75, 31
1, 86162, Note_off_c, 0, 72, 51
1, 86187, Note_off_c, 0, 75, 49
1, 86198, Note_on_c, 0, 76, 52
1, 86246, Note_off_c, 0, 68, 62
1, 86248, Note_off_c, 0, 76, 55
1, 86290, Note_on_c, 0, 66, 73
1, 86293, Note_on_c, 0, 75, 39
1, 86322, Note_on_c, 0, 72, 41
1, 86323, Note_on_c, 0, 68, 37
1, 86362, Note_off_c, 0, 68, 60
1, 86372, Note_off_c, 0, 75, 55
1, 86380, Note_off_c, 0, 72, 58
1, 86393, Note_on_c, 0, 76, 49
1, 86447, Note_off_c, 0, 76, 57
1, 86481, Note_on_c, 0, 68, 38
1, 86502, Note_on_c, 0, 72, 39
1, 86511, Note_off_c, 0, 68, 54
1, 86536, Note_on_c, 0, 75, 3
1, 86548, Note_off_c, 0, 72, 0
1, 86548, Note_on_c, 0, 72, 31
1, 86565, Note_on_c, 0, 68, 49
1, 86604, Note_off_c, 0, 68, 59
1, 86651, Note_on_c, 0, 64, 76
1, 86653, Note_off_c, 0, 75, 44
1, 86663, Note_off_c, 0, 72, 37
1, 86677, Note_on_c, 0, 76, 50
1, 86694, Note_off_c, 0, 66, 58
1, 86724, Note_off_c, 0, 76, 59
1, 86748, Note_on_c, 0, 75, 53
1, 86755, Note_on_c, 0, 72, 46
1, 86765, Note_on_c, 0, 68, 37
1, 86782, Note_off_c, 0, 75, 61
1, 86798, Note_off_c, 0, 68, 47
1, 86803, Note_off_c, 0, 72, 0
1, 86848, Poly_aftertouch_c, 0, 72, 127
1, 86854, Note_on_c, 0, 68, 40
1, 86864, Note_on_c, 0, 75, 53
1, 86886, Note_off_c, 0, 68, 51
1, 86898, Note_off_c, 0, 75, 61
1, 86900, Poly_aftertouch_c, 0, 72, 0
1, 86950, Note_on_c, 0, 76, 47
1, 87078, Control_c, 0, 64, 118
1, 87087, Note_on_c, 0, 70, 77
1, 87091, Note_off_c, 0, 76, 35
1, 87092, Control_c, 0, 64, 108
1, 87107, Control_c, 0, 64, 101
1, 87122, Control_c, 0, 64, 94
1, 87129, Note_on_c, 0, 75, 41
1, 87137, Control_c, 0, 64, 87
1, 87143, Note_on_c, 0, 72, 37
1, 87152, Note_on_c, 0, 68, 32
1, 87152, Control_c, 0, 64, 80
1, 87155, Note_off_c, 0, 64, 58
1, 87167, Control_c, 0, 64, 72
1, 87182, Control_c, 0, 64, 61
1, 87196, Control_c, 0, 64, 46
1, 87211, Control_c, 0, 64, 34
1, 87212, Note_off_c, 0, 68, 41
1, 87226, Control_c, 0, 64, 33
1, 87238, Note_on_c, 0, 76, 44
1, 87241, Control_c, 0, 64, 36
1, 87256, Control_c, 0, 64, 50
1, 87265, Note_off_c, 0, 75, 36
1, 87271, Control_c, 0, 64, 63
1, 87286, Control_c, 0, 64, 70
1, 87300, Control_c, 0, 64, 81
1, 87306, Note_off_c, 0, 76, 57
1, 87315, Control_c, 0, 64, 93
1, 87323, Note_off_c, 0, 72, 0
1, 87330, Control_c, 0, 64, 97
1, 87337, Note_on_c, 0, 72, 35
1, 87341, Note_on_c, 0, 75, 48
1, 87344, Note_on_c, 0, 68, 41
1, 87344, Control_c, 0, 64, 98
1, 87359, Control_c, 0, 64, 99
1, 87374, Note_off_c, 0, 68, 53
1, 87374, Control_c, 0, 64, 102
1, 87378, Note_off_c, 0, 75, 61
1, 87389, Control_c, 0, 64, 105
1, 87404, Control_c, 0, 64, 110
1, 87414, Note_off_c, 0, 72, 0
1, 87418, Control_c, 0, 64, 117
1, 87433, Note_on_c, 0, 72, 34
1, 87433, Control_c, 0, 64, 127
1, 87437, Note_on_c, 0, 68, 44
1, 87462, Note_on_c, 0, 75, 47
1, 87475, Note_off_c, 0, 68, 48
1, 87502, Note_off_c, 0, 75, 55
1, 87519, Note_off_c, 0, 72, 54
1, 87548, Note_on_c, 0, 76, 48
1, 87593, Note_off_c, 0, 76, 60
1, 87626, Note_on_c, 0, 68, 44
1, 87626, Note_on_c, 0, 72, 45
1, 87640, Note_on_c, 0, 75, 33
1, 87649, Note_off_c, 0, 68, 58
1, 87682, Note_off_c, 0, 72, 0
1, 87697, Note_off_c, 0, 75, 0
1, 87702, Note_on_c, 0, 72, 35
1, 87704, Note_on_c, 0, 68, 50
1, 87716, Note_on_c, 0, 75, 33
1, 87761, Note_off_c, 0, 68, 58
1, 87772, Note_off_c, 0, 75, 53
1, 87787, Note_off_c, 0, 72, 58
1, 87792, Note_on_c, 0, 76, 56
1, 87891, Note_off_c, 0, 76, 51
1, 87915, Note_on_c, 0, 68, 71
1, 87919, Note_on_c, 0, 72, 53
1, 87928, Note_on_c, 0, 75, 48
1, 87930, Control_c, 0, 64, 109
1, 87945, Control_c, 0, 64, 96
1, 87960, Control_c, 0, 64, 85
1, 87974, Control_c, 0, 64, 75
1, 87989, Note_off_c, 0, 75, 50
1, 87989, Control_c, 0, 64, 66
1, 87992, Note_off_c, 0, 72, 50
1, 88004, Control_c, 0, 64, 63
1, 88019, Control_c, 0, 64, 67
1, 88034, Note_on_c, 0, 76, 44
1, 88034, Control_c, 0, 64, 77
1, 88049, Control_c, 0, 64, 89
1, 88052, Note_off_c, 0, 70, 49
1, 88064, Control_c, 0, 64, 98
1, 88079, Control_c, 0, 64, 99
1, 88094, Control_c, 0, 64, 100
1, 88105, Note_off_c, 0, 76, 43
1, 88109, Control_c, 0, 64, 101
1, 88121, Note_on_c, 0, 75, 49
1, 88123, Control_c, 0, 64, 101
1, 88127, Note_on_c, 0, 72, 51
1, 88138, Control_c, 0, 64, 104
1, 88144, Note_off_c, 0, 75, 61
1, 88150, Note_off_c, 0, 72, 60
1, 88153, Control_c, 0, 64, 107
1, 88167, Control_c, 0, 64, 108
1, 88231, Note_on_c, 0, 75, 53
1, 88244, Note_on_c, 0, 72, 33
1, 88286, Control_c, 0, 64, 106
1, 88301, Control_c, 0, 64, 102
1, 88323, Control_c, 0, 64, 94
1, 88335, Note_off_c, 0, 72, 40
1, 88338, Control_c, 0, 64, 86
1, 88342, Note_on_c, 0, 63, 63
1, 88350, Note_off_c, 0, 75, 35
1, 88353, Control_c, 0, 64, 77
1, 88367, Control_c, 0, 64, 68
1, 88368, Note_off_c, 0, 68, 65
1, 88379, Note_on_c, 0, 76, 44
1, 88382, Control_c, 0, 64, 59
1, 88397, Control_c, 0, 64, 49
1, 88412, Control_c, 0, 64, 48
1, 88441, Control_c, 0, 64, 50
1, 88456, Control_c, 0, 64, 56
1, 88460, Note_off_c, 0, 76, 45
1, 88471, Control_c, 0, 64, 64
1, 88486, Control_c, 0, 64, 72
1, 88492, Note_on_c, 0, 75, 41
1, 88494, Note_on_c, 0, 68, 46
1, 88495, Note_on_c, 0, 72, 42
1, 88502, Control_c, 0, 64, 84
1, 88517, Control_c, 0, 64, 95
1, 88532, Control_c, 0, 64, 96
1, 88533, Note_off_c, 0, 75, 57
1, 88546, Control_c, 0, 64, 97
1, 88561, Control_c, 0, 64, 99
1, 88576, Control_c, 0, 64, 102
1, 88583, Note_off_c, 0, 68, 0
1, 88590, Control_c, 0, 64, 106
1, 88603, Note_on_c, 0, 68, 26
1, 88605, Control_c, 0, 64, 109
1, 88618, Note_on_c, 0, 75, 45
1, 88620, Control_c, 0, 64, 110
1, 88621, Note_off_c, 0, 72, 0
1, 88621, Note_on_c, 0, 72, 17
1, 88667, Note_off_c, 0, 63, 59
1, 88690, Note_off_c, 0, 72, 57
1, 88704, Note_off_c, 0, 75, 47
1, 88727, Note_on_c, 0, 76, 54
1, 88740, Note_off_c, 0, 68, 37
1, 88842, Control_c, 0, 64, 109
1, 88857, Control_c, 0, 64, 108
1, 88863, Note_off_c, 0, 76, 57
1, 88870, Note_on_c, 0, 63, 49
1, 88872, Control_c, 0, 64, 106
1, 88886, Control_c, 0, 64, 102
1, 88901, Control_c, 0, 64, 99
1, 88916, Control_c, 0, 64, 95
1, 88920, Note_on_c, 0, 73, 41
1, 88925, Note_on_c, 0, 66, 36
1, 88925, Note_on_c, 0, 69, 34
1, 88931, Control_c, 0, 64, 91
1, 88945, Control_c, 0, 64, 86
1, 88960, Control_c, 0, 64, 80
1, 88975, Control_c, 0, 64, 73
1, 88989, Control_c, 0, 64, 65
1, 89004, Control_c, 0, 64, 58
1, 89019, Control_c, 0, 64, 53
1, 89034, Control_c, 0, 64, 54
1, 89042, Note_off_c, 0, 66, 40
1, 89049, Control_c, 0, 64, 56
1, 89071, Control_c, 0, 64, 61
1, 89080, Note_on_c, 0, 75, 38
1, 89086, Control_c, 0, 64, 67
1, 89088, Note_off_c, 0, 73, 43
1, 89098, Note_off_c, 0, 69, 43
1, 89101, Control_c, 0, 64, 74
1, 89115, Control_c, 0, 64, 82
1, 89130, Control_c, 0, 64, 88
1, 89145, Note_off_c, 0, 75, 48
1, 89145, Control_c, 0, 64, 90
1, 89160, Control_c, 0, 64, 91
1, 89173, Note_on_c, 0, 66, 38
1, 89175, Control_c, 0, 64, 94
1, 89188, Note_on_c, 0, 69, 37
1, 89189, Control_c, 0, 64, 97
1, 89199, Note_on_c, 0, 73, 30
1, 89204, Control_c, 0, 64, 99
1, 89206, Note_off_c, 0, 66, 51
1, 89219, Control_c, 0, 64, 101
1, 89234, Control_c, 0, 64, 103
1, 89249, Control_c, 0, 64, 105
1, 89251, Note_off_c, 0, 69, 0
1, 89251, Note_on_c, 0, 69, 29
1, 89263, Note_off_c, 0, 73, 0
1, 89263, Note_on_c, 0, 73, 20
1, 89263, Control_c, 0, 64, 107
1, 89268, Note_on_c, 0, 66, 43
1, 89278, Control_c, 0, 64, 107
1, 89294, Control_c, 0, 64, 108
1, 89309, Control_c, 0, 64, 108
1, 89320, Note_off_c, 0, 66, 50
1, 89324, Control_c, 0, 64, 109
1, 89339, Control_c, 0, 64, 109
1, 89354, Control_c, 0, 64, 110
1, 89368, Control_c, 0, 64, 111
1, 89370, Note_on_c, 0, 75, 50
1, 89420, Note_off_c, 0, 69, 0
1, 89422, Note_off_c, 0, 75, 54
1, 89427, Note_off_c, 0, 73, 0
1, 89438, Note_on_c, 0, 69, 35
1, 89444, Note_on_c, 0, 73, 36
1, 89445, Note_on_c, 0, 66, 50
1, 89472, Control_c, 0, 64, 111
1, 89474, Note_off_c, 0, 66, 57
1, 89492, Note_off_c, 0, 69, 0
1, 89521, Note_off_c, 0, 73, 0
1, 89530, Poly_aftertouch_c, 0, 69, 127
1, 89534, Note_on_c, 0, 73, 45
1, 89574, Note_on_c, 0, 66, 19
1, 89608, Poly_aftertouch_c, 0, 69, 0
1, 89611, Note_off_c, 0, 66, 53
1, 89612, Note_on_c, 0, 75, 54
1, 89613, Note_off_c, 0, 73, 51
1, 89635, Control_c, 0, 64, 112
1, 89678, Note_off_c, 0, 75, 56
1, 89701, Note_on_c, 0, 66, 53
1, 89703, Note_on_c, 0, 73, 47
1, 89715, Note_on_c, 0, 69, 43
1, 89724, Control_c, 0, 64, 112
1, 89738, Control_c, 0, 64, 113
1, 89740, Note_off_c, 0, 66, 61
1, 89753, Control_c, 0, 64, 113
1, 89759, Note_off_c, 0, 69, 59
1, 89767, Note_off_c, 0, 73, 55
1, 89768, Control_c, 0, 64, 114
1, 89797, Note_on_c, 0, 75, 42
1, 89849, Note_off_c, 0, 75, 58
1, 89868, Note_on_c, 0, 66, 46
1, 89871, Note_on_c, 0, 69, 52
1, 89882, Note_on_c, 0, 73, 44
1, 89891, Note_off_c, 0, 66, 62
1, 89909, Note_off_c, 0, 69, 56
1, 89921, Note_off_c, 0, 73, 43
1, 89957, Note_on_c, 0, 73, 56
1, 89960, Note_on_c, 0, 66, 59
1, 89966, Poly_aftertouch_c, 0, 69, 127
1, 90002, Note_off_c, 0, 66, 55
1, 90041, Poly_aftertouch_c, 0, 69, 0
1, 90047, Note_on_c, 0, 61, 76
1, 90061, Note_on_c, 0, 75, 58
1, 90077, Note_off_c, 0, 73, 37
1, 90143, Note_off_c, 0, 75, 56
1, 90162, Note_on_c, 0, 73, 47
1, 90170, Note_on_c, 0, 66, 46
1, 90178, Note_on_c, 0, 69, 39
1, 90189, Note_off_c, 0, 73, 57
1, 90192, Note_off_c, 0, 66, 59
1, 90199, Note_off_c, 0, 63, 38
1, 90232, Note_off_c, 0, 69, 0
1, 90252, Note_on_c, 0, 69, 33
1, 90258, Note_on_c, 0, 73, 58
1, 90261, Note_on_c, 0, 66, 49
1, 90289, Note_off_c, 0, 66, 59
1, 90318, Note_off_c, 0, 69, 54
1, 90320, Note_off_c, 0, 73, 47
1, 90338, Note_on_c, 0, 75, 54
1, 90368, Control_c, 0, 64, 112
1, 90383, Control_c, 0, 64, 110
1, 90398, Control_c, 0, 64, 108
1, 90413, Control_c, 0, 64, 105
1, 90428, Control_c, 0, 64, 101
1, 90431, Note_off_c, 0, 75, 58
1, 90436, Note_on_c, 0, 66, 77
1, 90443, Control_c, 0, 64, 97
1, 90458, Control_c, 0, 64, 92
1, 90461, Note_on_c, 0, 69, 46
1, 90461, Note_on_c, 0, 73, 55
1, 90472, Control_c, 0, 64, 85
1, 90487, Control_c, 0, 64, 76
1, 90502, Control_c, 0, 64, 65
1, 90517, Control_c, 0, 64, 54
1, 90532, Control_c, 0, 64, 51
1, 90547, Note_off_c, 0, 69, 53
1, 90547, Control_c, 0, 64, 58
1, 90549, Note_off_c, 0, 73, 53
1, 90554, Note_on_c, 0, 75, 59
1, 90568, Control_c, 0, 64, 65
1, 90579, Note_off_c, 0, 61, 61
1, 90583, Control_c, 0, 64, 73
1, 90598, Control_c, 0, 64, 83
1, 90613, Control_c, 0, 64, 95
1, 90628, Control_c, 0, 64, 98
1, 90630, Note_off_c, 0, 75, 56
1, 90642, Control_c, 0, 64, 98
1, 90657, Note_on_c, 0, 69, 47
1, 90660, Note_on_c, 0, 73, 52
1, 90684, Note_off_c, 0, 73, 58
1, 90696, Note_off_c, 0, 69, 45
1, 90702, Control_c, 0, 64, 99
1, 90734, Note_on_c, 0, 69, 55
1, 90760, Note_on_c, 0, 73, 54
1, 90806, Control_c, 0, 64, 98
1, 90821, Control_c, 0, 64, 95
1, 90823, Note_off_c, 0, 69, 56
1, 90825, Note_off_c, 0, 73, 51
1, 90835, Control_c, 0, 64, 92
1, 90840, Note_on_c, 0, 65, 72
1, 90850, Control_c, 0, 64, 86
1, 90854, Note_on_c, 0, 75, 55
1, 90865, Control_c, 0, 64, 79
1, 90876, Note_off_c, 0, 66, 57
1, 90880, Control_c, 0, 64, 71
1, 90896, Control_c, 0, 64, 60
1, 90911, Control_c, 0, 64, 44
1, 90926, Control_c, 0, 64, 41
1, 90933, Note_off_c, 0, 75, 59
1, 90940, Control_c, 0, 64, 45
1, 90955, Control_c, 0, 64, 55
1, 90958, Note_on_c, 0, 69, 56
1, 90964, Note_on_c, 0, 73, 55
1, 90970, Control_c, 0, 64, 64
1, 90971, Note_on_c, 0, 66, 46
1, 90984, Control_c, 0, 64, 74
1, 90997, Note_off_c, 0, 69, 59
1, 90997, Note_off_c, 0, 73, 62
1, 90999, Control_c, 0, 64, 84
1, 91005, Note_off_c, 0, 66, 49
1, 91014, Control_c, 0, 64, 88
1, 91070, Note_on_c, 0, 66, 37
1, 91072, Note_on_c, 0, 73, 58
1, 91088, Control_c, 0, 64, 88
1, 91112, Note_off_c, 0, 73, 57
1, 91113, Poly_aftertouch_c, 0, 69, 0
1, 91119, Note_off_c, 0, 66, 49
1, 91146, Note_on_c, 0, 75, 54
1, 91192, Control_c, 0, 64, 88
1, 91207, Control_c, 0, 64, 87
1, 91222, Control_c, 0, 64, 86
1, 91237, Control_c, 0, 64, 83
1, 91252, Control_c, 0, 64, 79
1, 91266, Control_c, 0, 64, 72
1, 91273, Note_off_c, 0, 75, 35
1, 91281, Control_c, 0, 64, 66
1, 91295, Note_on_c, 0, 63, 63
1, 91296, Control_c, 0, 64, 61
1, 91302, Note_on_c, 0, 73, 40
1, 91317, Note_on_c, 0, 69, 32
1, 91319, Control_c, 0, 64, 56
1, 91334, Control_c, 0, 64, 53
1, 91335, Note_on_c, 0, 66, 28
1, 91348, Control_c, 0, 64, 47
1, 91363, Control_c, 0, 64, 37
1, 91378, Control_c, 0, 64, 26
1, 91391, Note_off_c, 0, 66, 43
1, 91392, Control_c, 0, 64, 21
1, 91408, Note_off_c, 0, 65, 59
1, 91422, Control_c, 0, 64, 21
1, 91437, Control_c, 0, 64, 31
1, 91451, Note_on_c, 0, 75, 39
1, 91452, Control_c, 0, 64, 47
1, 91466, Control_c, 0, 64, 60
1, 91480, Note_off_c, 0, 69, 39
1, 91481, Control_c, 0, 64, 64
1, 91494, Note_off_c, 0, 73, 40
1, 91496, Control_c, 0, 64, 69
1, 91510, Control_c, 0, 64, 74
1, 91525, Control_c, 0, 64, 80
1, 91534, Note_off_c, 0, 75, 53
1, 91540, Control_c, 0, 64, 83
1, 91555, Control_c, 0, 64, 86
1, 91559, Note_on_c, 0, 69, 47
1, 91560, Note_on_c, 0, 73, 36
1, 91570, Control_c, 0, 64, 89
1, 91573, Note_on_c, 0, 66, 40
1, 91584, Control_c, 0, 64, 91
1, 91599, Control_c, 0, 64, 93
1, 91607, Note_off_c, 0, 66, 49
1, 91614, Control_c, 0, 64, 95
1, 91623, Note_off_c, 0, 69, 0
1, 91629, Control_c, 0, 64, 96
1, 91635, Note_off_c, 0, 73, 0
1, 91644, Control_c, 0, 64, 96
1, 91651, Note_on_c, 0, 73, 39
1, 91659, Note_on_c, 0, 66, 38
1, 91659, Poly_aftertouch_c, 0, 69, 127
1, 91674, Control_c, 0, 64, 97
1, 91689, Control_c, 0, 64, 98
1, 91699, Note_off_c, 0, 66, 49
1, 91704, Control_c, 0, 64, 100
1, 91719, Control_c, 0, 64, 101
1, 91727, Poly_aftertouch_c, 0, 69, 0
1, 91727, Note_off_c, 0, 73, 52
1, 91734, Control_c, 0, 64, 102
1, 91745, Note_on_c, 0, 75, 48
1, 91797, Note_off_c, 0, 75, 56
1, 91817, Note_on_c, 0, 73, 40
1, 91820, Note_on_c, 0, 66, 38
1, 91822, Note_on_c, 0, 69, 47
1, 91872, Note_off_c, 0, 69, 0
1, 91884, Note_off_c, 0, 73, 0
1, 91886, Note_off_c, 0, 66, 0
1, 91900, Note_on_c, 0, 66, 43
1, 91900, Note_on_c, 0, 73, 45
1, 91909, Poly_aftertouch_c, 0, 69, 127
1, 91946, Note_off_c, 0, 66, 56
1, 91968, Note_off_c, 0, 73, 51
1, 91973, Poly_aftertouch_c, 0, 69, 0
1, 91985, Note_on_c, 0, 75, 51
1, 92045, Control_c, 0, 64, 101
1, 92067, Note_off_c, 0, 75, 54
1, 92067, Control_c, 0, 64, 99
1, 92079, Note_on_c, 0, 61, 73
1, 92082, Control_c, 0, 64, 96
1, 92085, Note_on_c, 0, 66, 43
1, 92097, Control_c, 0, 64, 91
1, 92102, Note_on_c, 0, 69, 38
1, 92103, Note_on_c, 0, 73, 50
1, 92112, Control_c, 0, 64, 84
1, 92127, Control_c, 0, 64, 74
1, 92141, Control_c, 0, 64, 66
1, 92147, Note_off_c, 0, 66, 50
1, 92153, Note_off_c, 0, 73, 55
1, 92156, Control_c, 0, 64, 60
1, 92162, Note_off_c, 0, 69, 50
1, 92171, Control_c, 0, 64, 60
1, 92186, Control_c, 0, 64, 63
1, 92193, Note_on_c, 0, 75, 44
1, 92201, Control_c, 0, 64, 67
1, 92203, Note_off_c, 0, 63, 49
1, 92215, Control_c, 0, 64, 72
1, 92230, Control_c, 0, 64, 80
1, 92243, Note_off_c, 0, 75, 58
1, 92245, Control_c, 0, 64, 84
1, 92260, Note_on_c, 0, 66, 52
1, 92260, Control_c, 0, 64, 86
1, 92274, Note_on_c, 0, 73, 48
1, 92276, Note_on_c, 0, 69, 40
1, 92282, Note_off_c, 0, 66, 61
1, 92319, Control_c, 0, 64, 87
1, 92327, Note_off_c, 0, 73, 0
1, 92333, Control_c, 0, 64, 87
1, 92342, Note_off_c, 0, 69, 0
1, 92342, Note_on_c, 0, 69, 30
1, 92343, Note_on_c, 0, 73, 40
1, 92348, Control_c, 0, 64, 88
1, 92362, Note_on_c, 0, 66, 50
1, 92393, Control_c, 0, 64, 87
1, 92395, Note_off_c, 0, 66, 51
1, 92408, Control_c, 0, 64, 86
1, 92422, Control_c, 0, 64, 84
1, 92423, Note_off_c, 0, 73, 50
1, 92437, Control_c, 0, 64, 80
1, 92445, Note_on_c, 0, 63, 70
1, 92452, Control_c, 0, 64, 73
1, 92462, Note_on_c, 0, 75, 44
1, 92465, Note_off_c, 0, 69, 37
1, 92467, Control_c, 0, 64, 66
1, 92483, Control_c, 0, 64, 59
1, 92498, Control_c, 0, 64, 57
1, 92512, Control_c, 0, 64, 59
1, 92516, Note_off_c, 0, 75, 58
1, 92520, Note_off_c, 0, 61, 62
1, 92527, Control_c, 0, 64, 63
1, 92541, Note_on_c, 0, 66, 30
1, 92542, Control_c, 0, 64, 69
1, 92543, Note_on_c, 0, 69, 40
1, 92555, Note_on_c, 0, 73, 32
1, 92556, Control_c, 0, 64, 76
1, 92571, Control_c, 0, 64, 82
1, 92577, Note_off_c, 0, 66, 47
1, 92586, Control_c, 0, 64, 84
1, 92587, Note_off_c, 0, 69, 0
1, 92619, Note_on_c, 0, 69, 33
1, 92627, Note_off_c, 0, 73, 0
1, 92631, Note_on_c, 0, 66, 48
1, 92640, Note_on_c, 0, 73, 46
1, 92646, Control_c, 0, 64, 85
1, 92660, Control_c, 0, 64, 85
1, 92670, Note_off_c, 0, 66, 49
1, 92675, Control_c, 0, 64, 86
1, 92694, Note_off_c, 0, 73, 55
1, 92711, Note_off_c, 0, 69, 41
1, 92736, Note_on_c, 0, 75, 50
1, 92750, Control_c, 0, 64, 85
1, 92764, Control_c, 0, 64, 84
1, 92779, Control_c, 0, 64, 82
1, 92794, Control_c, 0, 64, 78
1, 92799, Note_off_c, 0, 75, 55
1, 92816, Control_c, 0, 64, 71
1, 92818, Note_on_c, 0, 66, 63
1, 92831, Control_c, 0, 64, 64
1, 92841, Note_on_c, 0, 73, 50
1, 92845, Control_c, 0, 64, 57
1, 92853, Note_on_c, 0, 69, 48
1, 92860, Control_c, 0, 64, 54
1, 92890, Control_c, 0, 64, 57
1, 92905, Control_c, 0, 64, 61
1, 92911, Note_off_c, 0, 69, 59
1, 92911, Note_off_c, 0, 63, 62
1, 92916, Note_off_c, 0, 73, 57
1, 92920, Control_c, 0, 64, 67
1, 92928, Note_on_c, 0, 75, 55
1, 92935, Control_c, 0, 64, 73
1, 92950, Control_c, 0, 64, 78
1, 92964, Control_c, 0, 64, 81
1, 92997, Note_off_c, 0, 75, 53
1, 93009, Control_c, 0, 64, 82
1, 93024, Control_c, 0, 64, 83
1, 93027, Note_on_c, 0, 69, 48
1, 93033, Note_on_c, 0, 73, 43
1, 93038, Control_c, 0, 64, 84
1, 93063, Note_off_c, 0, 73, 53
1, 93093, Note_off_c, 0, 69, 0
1, 93114, Note_on_c, 0, 69, 20
1, 93129, Note_on_c, 0, 73, 46
1, 93142, Control_c, 0, 64, 83
1, 93156, Control_c, 0, 64, 81
1, 93171, Control_c, 0, 64, 77
1, 93176, Note_off_c, 0, 73, 44
1, 93182, Note_on_c, 0, 65, 56
1, 93186, Control_c, 0, 64, 70
1, 93201, Control_c, 0, 64, 62
1, 93206, Note_off_c, 0, 69, 41
1, 93208, Note_on_c, 0, 75, 54
1, 93215, Note_off_c, 0, 66, 45
1, 93216, Control_c, 0, 64, 52
1, 93230, Control_c, 0, 64, 50
1, 93245, Control_c, 0, 64, 52
1, 93260, Control_c, 0, 64, 59
1, 93275, Control_c, 0, 64, 65
1, 93284, Note_off_c, 0, 75, 56
1, 93291, Control_c, 0, 64, 71
1, 93306, Control_c, 0, 64, 77
1, 93307, Note_on_c, 0, 69, 50
1, 93319, Note_on_c, 0, 73, 31
1, 93321, Control_c, 0, 64, 81
1, 93331, Note_off_c, 0, 69, 60
1, 93359, Poly_aftertouch_c, 0, 66, 127
1, 93362, Note_off_c, 0, 73, 45
1, 93379, Control_c, 0, 64, 81
1, 93394, Control_c, 0, 64, 82
1, 93408, Note_on_c, 0, 73, 38
1, 93435, Note_on_c, 0, 69, 38
1, 93477, Poly_aftertouch_c, 0, 66, 0
1, 93480, Note_off_c, 0, 69, 60
1, 93504, Note_on_c, 0, 75, 48
1, 93513, Note_off_c, 0, 73, 29
1, 93527, Control_c, 0, 64, 81
1, 93542, Control_c, 0, 64, 80
1, 93564, Control_c, 0, 64, 77
1, 93570, Note_off_c, 0, 75, 53
1, 93579, Control_c, 0, 64, 72
1, 93593, Control_c, 0, 64, 66
1, 93605, Note_on_c, 0, 61, 48
1, 93608, Control_c, 0, 64, 60
1, 93623, Control_c, 0, 64, 53
1, 93624, Note_on_c, 0, 66, 30
1, 93628, Note_on_c, 0, 69, 14
1, 93628, Note_on_c, 0, 73, 50
1, 93638, Control_c, 0, 64, 50
1, 93647, Note_off_c, 0, 65, 43
1, 93653, Control_c, 0, 64, 48
1, 93668, Control_c, 0, 64, 44
1, 93679, Note_off_c, 0, 66, 46
1, 93683, Control_c, 0, 64, 42
1, 93712, Control_c, 0, 64, 44
1, 93713, Note_off_c, 0, 73, 48
1, 93727, Control_c, 0, 64, 50
1, 93733, Note_on_c, 0, 75, 42
1, 93742, Control_c, 0, 64, 58
1, 93742, Note_off_c, 0, 69, 45
1, 93757, Control_c, 0, 64, 63
1, 93772, Control_c, 0, 64, 66
1, 93784, Note_off_c, 0, 75, 58
1, 93786, Control_c, 0, 64, 69
1, 93801, Control_c, 0, 64, 73
1, 93816, Control_c, 0, 64, 78
1, 93820, Note_on_c, 0, 66, 39
1, 93831, Control_c, 0, 64, 81
1, 93837, Note_on_c, 0, 69, 28
1, 93841, Note_on_c, 0, 73, 37
1, 93846, Control_c, 0, 64, 84
1, 93860, Control_c, 0, 64, 86
1, 93875, Control_c, 0, 64, 88
1, 93887, Note_off_c, 0, 66, 0
1, 93887, Note_on_c, 0, 66, 30
1, 93890, Control_c, 0, 64, 91
1, 93894, Note_off_c, 0, 69, 0
1, 93894, Note_on_c, 0, 69, 11
1, 93897, Note_off_c, 0, 73, 0
1, 93897, Note_on_c, 0, 73, 29
1, 93904, Control_c, 0, 64, 95
1, 93919, Control_c, 0, 64, 97
1, 93934, Control_c, 0, 64, 99
1, 93948, Note_off_c, 0, 66, 57
1, 93949, Control_c, 0, 64, 100
1, 93969, Note_off_c, 0, 73, 51
1, 93978, Control_c, 0, 64, 101
1, 93984, Note_on_c, 0, 75, 56
1, 93993, Control_c, 0, 64, 103
1, 94008, Control_c, 0, 64, 105
1, 94023, Control_c, 0, 64, 106
1, 94034, Note_off_c, 0, 69, 0
1, 94038, Note_off_c, 0, 75, 54
1, 94050, Note_on_c, 0, 69, 41
1, 94074, Note_on_c, 0, 66, 39
1, 94078, Note_on_c, 0, 73, 36
1, 94106, Note_off_c, 0, 66, 54
1, 94110, Note_off_c, 0, 69, 0
1, 94136, Note_off_c, 0, 73, 0
1, 94148, Poly_aftertouch_c, 0, 69, 127
1, 94151, Note_on_c, 0, 66, 47
1, 94159, Note_on_c, 0, 73, 29
1, 94193, Note_off_c, 0, 66, 48
1, 94227, Poly_aftertouch_c, 0, 69, 0
1, 94234, Note_off_c, 0, 73, 43
1, 94246, Note_on_c, 0, 75, 52
1, 94286, Note_off_c, 0, 75, 63
1, 94327, Note_on_c, 0, 69, 38
1, 94333, Note_on_c, 0, 66, 45
1, 94333, Note_on_c, 0, 73, 54
1, 94366, Note_off_c, 0, 66, 55
1, 94383, Note_off_c, 0, 73, 55
1, 94409, Note_on_c, 0, 75, 51
1, 94413, Note_off_c, 0, 69, 40
1, 94467, Note_off_c, 0, 75, 57
1, 94508, Note_on_c, 0, 66, 35
1, 94518, Note_on_c, 0, 69, 41
1, 94520, Note_on_c, 0, 73, 45
1, 94539, Note_off_c, 0, 66, 54
1, 94552, Note_off_c, 0, 73, 51
1, 94556, Note_off_c, 0, 69, 46
1, 94609, Control_c, 0, 64, 104
1, 94616, Note_on_c, 0, 73, 51
1, 94624, Control_c, 0, 64, 103
1, 94637, Note_on_c, 0, 66, 48
1, 94639, Control_c, 0, 64, 99
1, 94649, Note_on_c, 0, 69, 38
1, 94654, Control_c, 0, 64, 92
1, 94669, Control_c, 0, 64, 83
1, 94673, Note_off_c, 0, 66, 52
1, 94681, Note_off_c, 0, 73, 51
1, 94683, Control_c, 0, 64, 73
1, 94693, Note_off_c, 0, 69, 58
1, 94697, Note_on_c, 0, 59, 41
1, 94698, Control_c, 0, 64, 65
1, 94712, Note_on_c, 0, 75, 54
1, 94713, Control_c, 0, 64, 62
1, 94725, Note_off_c, 0, 61, 54
1, 94727, Control_c, 0, 64, 64
1, 94742, Control_c, 0, 64, 68
1, 94757, Control_c, 0, 64, 74
1, 94761, Note_off_c, 0, 75, 57
1, 94772, Control_c, 0, 64, 80
1, 94787, Control_c, 0, 64, 86
1, 94789, Note_on_c, 0, 66, 35
1, 94793, Note_on_c, 0, 73, 51
1, 94801, Control_c, 0, 64, 87
1, 94809, Note_on_c, 0, 69, 35
1, 94816, Note_off_c, 0, 73, 59
1, 94824, Note_off_c, 0, 66, 50
1, 94831, Control_c, 0, 64, 87
1, 94846, Control_c, 0, 64, 88
1, 94861, Control_c, 0, 64, 88
1, 94873, Note_on_c, 0, 66, 42
1, 94883, Note_off_c, 0, 69, 0
1, 94891, Note_on_c, 0, 73, 60
1, 94903, Note_on_c, 0, 69, 27
1, 94943, Note_off_c, 0, 66, 59
1, 94957, Note_off_c, 0, 69, 47
1, 94962, Note_off_c, 0, 73, 62
1, 94966, Note_on_c, 0, 75, 63
1, 94995, Note_off_c, 0, 75, 65
1, 94996, Control_c, 0, 64, 88
1, 95011, Control_c, 0, 64, 86
1, 95025, Control_c, 0, 64, 85
1, 95040, Control_c, 0, 64, 81
1, 95063, Control_c, 0, 64, 76
1, 95078, Control_c, 0, 64, 70
1, 95093, Control_c, 0, 64, 64
1, 95107, Control_c, 0, 64, 56
1, 95122, Control_c, 0, 64, 48
1, 95133, Note_on_c, 0, 63, 48
1, 95136, Note_on_c, 0, 75, 40
1, 95137, Control_c, 0, 64, 41
1, 95147, Note_on_c, 0, 68, 42
1, 95152, Control_c, 0, 64, 34
1, 95159, Note_on_c, 0, 72, 37
1, 95166, Control_c, 0, 64, 29
1, 95188, Note_off_c, 0, 68, 49
1, 95196, Control_c, 0, 64, 33
1, 95203, Note_off_c, 0, 72, 48
1, 95211, Control_c, 0, 64, 47
1, 95218, Note_off_c, 0, 75, 61
1, 95226, Control_c, 0, 64, 58
1, 95240, Control_c, 0, 64, 63
1, 95245, Note_off_c, 0, 59, 40
1, 95247, Note_on_c, 0, 76, 49
1, 95255, Control_c, 0, 64, 66
1, 95270, Control_c, 0, 64, 71
1, 95285, Control_c, 0, 64, 76
1, 95289, Note_off_c, 0, 76, 57
1, 95300, Control_c, 0, 64, 82
1, 95314, Control_c, 0, 64, 88
1, 95329, Control_c, 0, 64, 93
1, 95337, Note_on_c, 0, 75, 43
1, 95344, Control_c, 0, 64, 97
1, 95358, Control_c, 0, 64, 101
1, 95365, Note_off_c, 0, 75, 57
1, 95373, Control_c, 0, 64, 106
1, 95388, Control_c, 0, 64, 112
1, 95402, Note_on_c, 0, 75, 49
1, 95403, Control_c, 0, 64, 120
1, 95418, Control_c, 0, 64, 127
1, 95486, Note_on_c, 0, 88, 63
1, 95497, Note_off_c, 0, 75, 36
1, 95543, Note_off_c, 0, 88, 62
1, 95567, Note_on_c, 0, 87, 58
1, 95572, Note_on_c, 0, 84, 53
1, 95596, Note_off_c, 0, 63, 51
1, 95603, Note_off_c, 0, 87, 65
1, 95604, Note_off_c, 0, 84, 65
1, 95637, Note_on_c, 0, 75, 58
1, 95664, Note_off_c, 0, 75, 65
1, 95716, Note_on_c, 0, 76, 66
1, 95783, Note_off_c, 0, 76, 61
1, 95811, Note_on_c, 0, 75, 50
1, 95822, Note_on_c, 0, 72, 50
1, 95862, Note_off_c, 0, 75, 62
1, 95871, Note_off_c, 0, 72, 60
1, 95899, Note_on_c, 0, 76, 49
1, 95938, Note_off_c, 0, 76, 51
1, 95959, Note_on_c, 0, 72, 52
1, 95967, Note_on_c, 0, 75, 48
1, 95999, Note_off_c, 0, 72, 65
1, 96001, Note_off_c, 0, 75, 63
1, 96046, Note_on_c, 0, 63, 54
1, 96069, Note_off_c, 0, 63, 60
1, 96122, Control_c, 0, 67, 127
1, 96128, Note_on_c, 0, 64, 58
1, 96137, Control_c, 0, 67, 125
1, 96152, Control_c, 0, 67, 123
1, 96167, Control_c, 0, 67, 120
1, 96181, Control_c, 0, 67, 117
1, 96182, Note_off_c, 0, 64, 57
1, 96188, Note_on_c, 0, 63, 41
1, 96196, Control_c, 0, 67, 114
1, 96197, Note_on_c, 0, 60, 51
1, 96211, Control_c, 0, 67, 111
1, 96226, Control_c, 0, 67, 107
1, 96227, Note_off_c, 0, 60, 66
1, 96241, Note_off_c, 0, 63, 63
1, 96241, Control_c, 0, 67, 102
1, 96255, Control_c, 0, 67, 99
1, 96270, Control_c, 0, 67, 97
1, 96285, Control_c, 0, 67, 95
1, 96300, Control_c, 0, 67, 93
1, 96309, Note_on_c, 0, 63, 57
1, 96315, Control_c, 0, 67, 91
1, 96330, Control_c, 0, 67, 89
1, 96342, Note_off_c, 0, 63, 66
1, 96345, Control_c, 0, 67, 87
1, 96360, Control_c, 0, 67, 86
1, 96374, Control_c, 0, 67, 85
1, 96387, Note_on_c, 0, 76, 62
1, 96389, Control_c, 0, 67, 82
1, 96404, Control_c, 0, 67, 79
1, 96419, Control_c, 0, 67, 75
1, 96434, Control_c, 0, 67, 73
1, 96448, Control_c, 0, 67, 71
1, 96463, Control_c, 0, 67, 70
1, 96479, Control_c, 0, 67, 68
1, 96494, Control_c, 0, 67, 66
1, 96509, Control_c, 0, 64, 121
1, 96509, Control_c, 0, 67, 64
1, 96523, Control_c, 0, 64, 108
1, 96523, Control_c, 0, 67, 61
1, 96538, Control_c, 0, 64, 96
1, 96538, Control_c, 0, 67, 59
1, 96558, Note_on_c, 0, 82, 80
1, 96560, Control_c, 0, 64, 85
1, 96560, Control_c, 0, 67, 58
1, 96566, Note_off_c, 0, 76, 59
1, 96575, Note_on_c, 0, 70, 66
1, 96575, Control_c, 0, 64, 72
1, 96575, Control_c, 0, 67, 57
1, 96590, Control_c, 0, 64, 61
1, 96590, Control_c, 0, 67, 57
1, 96604, Control_c, 0, 64, 46
1, 96604, Control_c, 0, 67, 56
1, 96619, Control_c, 0, 64, 50
1, 96619, Control_c, 0, 67, 55
1, 96620, Note_on_c, 0, 75, 33
1, 96634, Control_c, 0, 64, 59
1, 96647, Note_on_c, 0, 72, 9
1, 96649, Control_c, 0, 64, 66
1, 96649, Control_c, 0, 67, 55
1, 96664, Control_c, 0, 64, 78
1, 96664, Control_c, 0, 67, 53
1, 96679, Control_c, 0, 64, 106
1, 96679, Control_c, 0, 67, 51
1, 96694, Control_c, 0, 64, 127
1, 96694, Control_c, 0, 67, 49
1, 96695, Note_off_c, 0, 75, 57
1, 96697, Note_off_c, 0, 72, 52
1, 96708, Note_on_c, 0, 76, 54
1, 96708, Control_c, 0, 67, 48
1, 96723, Control_c, 0, 67, 47
1, 96738, Control_c, 0, 67, 46
1, 96753, Control_c, 0, 67, 46
1, 96768, Control_c, 0, 67, 45
1, 96773, Note_off_c, 0, 82, 64
1, 96774, Note_off_c, 0, 76, 54
1, 96783, Control_c, 0, 67, 45
1, 96797, Note_on_c, 0, 72, 51
1, 96815, Note_on_c, 0, 75, 52
1, 96821, Note_off_c, 0, 72, 62
1, 96846, Note_off_c, 0, 75, 64
1, 96916, Note_on_c, 0, 75, 63
1, 96946, Note_off_c, 0, 75, 64
1, 97035, Note_on_c, 0, 88, 64
1, 97042, Note_on_c, 0, 80, 87
1, 97051, Note_on_c, 0, 68, 68
1, 97119, Note_off_c, 0, 88, 62
1, 97137, Control_c, 0, 67, 44
1, 97142, Note_off_c, 0, 80, 64
1, 97144, Note_off_c, 0, 70, 32
1, 97147, Note_on_c, 0, 84, 53
1, 97148, Note_on_c, 0, 87, 62
1, 97183, Note_off_c, 0, 84, 64
1, 97191, Note_off_c, 0, 87, 61
1, 97227, Note_on_c, 0, 75, 58
1, 97247, Note_off_c, 0, 75, 63
1, 97319, Note_on_c, 0, 76, 68
1, 97395, Note_off_c, 0, 76, 61
1, 97419, Note_on_c, 0, 66, 78
1, 97420, Note_on_c, 0, 78, 87
1, 97426, Note_on_c, 0, 75, 51
1, 97428, Note_on_c, 0, 72, 55
1, 97449, Note_off_c, 0, 68, 63
1, 97468, Note_off_c, 0, 75, 61
1, 97475, Note_off_c, 0, 72, 56
1, 97487, Control_c, 0, 67, 44
1, 97504, Note_on_c, 0, 76, 65
1, 97531, Control_c, 0, 67, 43
1, 97550, Note_off_c, 0, 78, 61
1, 97560, Control_c, 0, 67, 43
1, 97575, Note_off_c, 0, 76, 61
1, 97575, Control_c, 0, 67, 42
1, 97577, Note_on_c, 0, 72, 59
1, 97577, Note_on_c, 0, 75, 60
1, 97590, Control_c, 0, 67, 39
1, 97605, Control_c, 0, 67, 36
1, 97614, Note_off_c, 0, 72, 66
1, 97617, Note_off_c, 0, 75, 61
1, 97620, Control_c, 0, 67, 33
1, 97634, Control_c, 0, 67, 29
1, 97649, Control_c, 0, 67, 27
1, 97654, Note_on_c, 0, 63, 51
1, 97664, Control_c, 0, 67, 23
1, 97678, Control_c, 0, 67, 18
1, 97679, Note_off_c, 0, 63, 60
1, 97693, Control_c, 0, 67, 15
1, 97723, Control_c, 0, 67, 15
1, 97773, Note_on_c, 0, 76, 83
1, 97782, Control_c, 0, 67, 14
1, 97787, Note_on_c, 0, 64, 55
1, 97797, Control_c, 0, 67, 14
1, 97826, Control_c, 0, 67, 12
1, 97830, Note_off_c, 0, 76, 64
1, 97841, Control_c, 0, 67, 10
1, 97856, Control_c, 0, 67, 9
1, 97871, Note_off_c, 0, 66, 65
1, 97871, Control_c, 0, 67, 9
1, 97886, Control_c, 0, 67, 8
1, 97890, Note_on_c, 0, 63, 55
1, 97892, Note_on_c, 0, 60, 50
1, 97901, Control_c, 0, 67, 0
1, 97904, Note_off_c, 0, 64, 50
1, 97920, Note_off_c, 0, 60, 63
1, 97931, Note_off_c, 0, 63, 64
1, 98021, Note_on_c, 0, 63, 57
1, 98065, Note_off_c, 0, 63, 64
1, 98098, Note_on_c, 0, 76, 67
1, 98139, Note_off_c, 0, 76, 62
1, 98229, Note_on_c, 0, 70, 64
1, 98265, Control_c, 0, 64, 92
1, 98273, Note_on_c, 0, 72, 61
1, 98278, Note_off_c, 0, 70, 62
1, 98280, Control_c, 0, 64, 70
1, 98288, Note_on_c, 0, 44, 46
1, 98295, Control_c, 0, 64, 42
1, 98300, Note_on_c, 0, 75, 67
1, 98309, Control_c, 0, 64, 0
1, 98310, Note_off_c, 0, 72, 53
1, 98344, Note_on_c, 0, 82, 80
1, 98354, Control_c, 0, 64, 33
1, 98369, Control_c, 0, 64, 67
1, 98384, Control_c, 0, 64, 123
1, 98399, Control_c, 0, 64, 127
1, 98426, Note_off_c, 0, 75, 32
1, 98479, Note_off_c, 0, 44, 37
1, 98507, Note_on_c, 0, 51, 32
1, 98527, Note_on_c, 0, 76, 66
1, 98571, Note_off_c, 0, 82, 66
1, 98589, Note_on_c, 0, 75, 67
1, 98590, Note_off_c, 0, 76, 61
1, 98595, Note_on_c, 0, 56, 46
1, 98605, Note_off_c, 0, 51, 46
1, 98619, Note_off_c, 0, 75, 65
1, 98642, Note_off_c, 0, 56, 60
1, 98671, Note_on_c, 0, 60, 57
1, 98681, Note_on_c, 0, 75, 65
1, 98711, Note_off_c, 0, 60, 60
1, 98755, Note_off_c, 0, 75, 43
1, 98764, Note_on_c, 0, 88, 69
1, 98769, Note_on_c, 0, 63, 56
1, 98835, Note_off_c, 0, 63, 50
1, 98837, Note_off_c, 0, 88, 63
1, 98838, Note_on_c, 0, 87, 59
1, 98845, Note_on_c, 0, 84, 51
1, 98870, Note_on_c, 0, 64, 40
1, 98883, Note_off_c, 0, 87, 58
1, 98888, Note_off_c, 0, 84, 64
1, 98912, Note_on_c, 0, 68, 61
1, 98915, Note_off_c, 0, 64, 58
1, 98917, Note_on_c, 0, 75, 62
1, 98944, Note_off_c, 0, 75, 63
1, 98950, Note_off_c, 0, 68, 62
1, 99002, Note_on_c, 0, 76, 71
1, 99007, Note_on_c, 0, 72, 36
1, 99040, Note_off_c, 0, 72, 53
1, 99063, Note_on_c, 0, 68, 65
1, 99067, Note_on_c, 0, 80, 90
1, 99072, Note_off_c, 0, 76, 62
1, 99139, Note_off_c, 0, 68, 62
1, 99140, Note_on_c, 0, 64, 50
1, 99173, Note_on_c, 0, 76, 67
1, 99179, Note_on_c, 0, 72, 56
1, 99193, Note_off_c, 0, 80, 61
1, 99215, Note_on_c, 0, 63, 34
1, 99229, Note_off_c, 0, 76, 60
1, 99236, Note_off_c, 0, 72, 64
1, 99245, Note_on_c, 0, 68, 72
1, 99251, Note_off_c, 0, 64, 61
1, 99254, Note_on_c, 0, 60, 57
1, 99264, Note_off_c, 0, 63, 63
1, 99272, Note_off_c, 0, 68, 67
1, 99281, Note_off_c, 0, 60, 66
1, 99326, Note_on_c, 0, 68, 71
1, 99382, Note_on_c, 0, 58, 63
1, 99391, Note_off_c, 0, 68, 64
1, 99415, Note_on_c, 0, 75, 85
1, 99421, Note_on_c, 0, 63, 75
1, 99435, Note_off_c, 0, 58, 43
1, 99486, Note_on_c, 0, 56, 44
1, 99501, Note_off_c, 0, 63, 58
1, 99512, Note_on_c, 0, 72, 65
1, 99525, Note_off_c, 0, 56, 60
1, 99537, Note_off_c, 0, 75, 62
1, 99555, Note_on_c, 0, 51, 54
1, 99594, Note_on_c, 0, 64, 66
1, 99644, Note_on_c, 0, 44, 52
1, 99650, Note_off_c, 0, 51, 58
1, 99684, Note_on_c, 0, 63, 63
1, 99689, Note_off_c, 0, 44, 60
1, 99689, Note_off_c, 0, 64, 63
1, 99720, Note_off_c, 0, 72, 37
1, 99723, Note_off_c, 0, 63, 65
1, 99852, Control_c, 0, 64, 112
1, 99857, Note_on_c, 0, 42, 52
1, 99867, Control_c, 0, 64, 97
1, 99882, Control_c, 0, 64, 83
1, 99896, Control_c, 0, 64, 69
1, 99905, Note_on_c, 0, 75, 75
1, 99911, Control_c, 0, 64, 52
1, 99920, Note_on_c, 0, 63, 57
1, 99922, Note_on_c, 0, 68, 64
1, 99926, Control_c, 0, 64, 0
1, 100044, Control_c, 0, 64, 51
1, 100059, Control_c, 0, 64, 66
1, 100074, Control_c, 0, 64, 76
1, 100089, Control_c, 0, 64, 91
1, 100089, Note_on_c, 0, 70, 61
1, 100097, Note_on_c, 0, 49, 39
1, 100104, Control_c, 0, 64, 115
1, 100110, Note_off_c, 0, 68, 63
1, 100119, Control_c, 0, 64, 127
1, 100128, Note_off_c, 0, 70, 60
1, 100134, Note_off_c, 0, 42, 34
1, 100163, Note_off_c, 0, 49, 61
1, 100192, Note_on_c, 0, 52, 47
1, 100211, Note_off_c, 0, 63, 60
1, 100217, Note_on_c, 0, 68, 52
1, 100226, Note_off_c, 0, 52, 63
1, 100242, Note_off_c, 0, 68, 61
1, 100303, Note_on_c, 0, 56, 53
1, 100308, Note_on_c, 0, 68, 56
1, 100345, Note_off_c, 0, 68, 60
1, 100381, Note_off_c, 0, 56, 59
1, 100387, Note_on_c, 0, 70, 58
1, 100432, Note_off_c, 0, 70, 50
1, 100447, Poly_aftertouch_c, 0, 58, 127
1, 100450, Note_on_c, 0, 68, 55
1, 100476, Poly_aftertouch_c, 0, 58, 0
1, 100480, Note_on_c, 0, 61, 45
1, 100482, Note_off_c, 0, 68, 65
1, 100509, Note_off_c, 0, 61, 58
1, 100545, Note_on_c, 0, 64, 44
1, 100555, Note_on_c, 0, 68, 51
1, 100579, Note_off_c, 0, 68, 60
1, 100587, Note_off_c, 0, 64, 47
1, 100622, Note_on_c, 0, 70, 46
1, 100631, Note_on_c, 0, 66, 45
1, 100656, Note_off_c, 0, 70, 49
1, 100657, Note_off_c, 0, 66, 58
1, 100668, Note_on_c, 0, 68, 58
1, 100739, Note_on_c, 0, 66, 57
1, 100742, Note_off_c, 0, 68, 64
1, 100771, Note_on_c, 0, 70, 53
1, 100786, Note_off_c, 0, 66, 62
1, 100825, Note_on_c, 0, 64, 52
1, 100831, Note_off_c, 0, 70, 46
1, 100843, Note_on_c, 0, 68, 52
1, 100846, Note_off_c, 0, 75, 37
1, 100854, Note_off_c, 0, 64, 64
1, 100867, Note_off_c, 0, 68, 59
1, 100906, Note_on_c, 0, 61, 55
1, 100920, Note_on_c, 0, 68, 67
1, 100948, Note_off_c, 0, 61, 62
1, 100986, Note_on_c, 0, 58, 43
1, 101004, Note_on_c, 0, 73, 86
1, 101009, Note_off_c, 0, 68, 61
1, 101015, Note_off_c, 0, 58, 56
1, 101016, Note_on_c, 0, 61, 76
1, 101020, Note_on_c, 0, 70, 69
1, 101127, Note_off_c, 0, 61, 60
1, 101135, Note_on_c, 0, 68, 59
1, 101135, Note_on_c, 0, 52, 50
1, 101165, Note_off_c, 0, 68, 67
1, 101177, Note_off_c, 0, 70, 57
1, 101189, Note_off_c, 0, 52, 58
1, 101201, Note_off_c, 0, 73, 59
1, 101208, Note_on_c, 0, 49, 46
1, 101228, Note_on_c, 0, 68, 76
1, 101276, Note_off_c, 0, 68, 45
1, 101296, Note_on_c, 0, 70, 65
1, 101298, Note_off_c, 0, 49, 51
1, 101326, Note_on_c, 0, 42, 52
1, 101364, Control_c, 0, 64, 87
1, 101365, Note_on_c, 0, 78, 89
1, 101369, Note_on_c, 0, 68, 79
1, 101374, Note_off_c, 0, 70, 63
1, 101379, Control_c, 0, 64, 62
1, 101382, Note_on_c, 0, 66, 63
1, 101393, Control_c, 0, 64, 0
1, 101423, Control_c, 0, 64, 35
1, 101438, Control_c, 0, 64, 67
1, 101453, Control_c, 0, 64, 99
1, 101463, Note_on_c, 0, 49, 48
1, 101467, Control_c, 0, 64, 127
1, 101479, Note_off_c, 0, 42, 50
1, 101490, Note_off_c, 0, 68, 60
1, 101500, Note_on_c, 0, 70, 66
1, 101539, Note_off_c, 0, 49, 60
1, 101566, Note_on_c, 0, 52, 45
1, 101567, Note_off_c, 0, 78, 63
1, 101595, Note_on_c, 0, 68, 62
1, 101624, Note_off_c, 0, 68, 67
1, 101640, Note_off_c, 0, 52, 59
1, 101662, Note_off_c, 0, 66, 60
1, 101675, Note_on_c, 0, 56, 51
1, 101687, Note_off_c, 0, 70, 55
1, 101698, Note_on_c, 0, 68, 58
1, 101716, Note_off_c, 0, 56, 61
1, 101766, Note_on_c, 0, 58, 46
1, 101776, Note_on_c, 0, 76, 87
1, 101801, Note_on_c, 0, 64, 66
1, 101809, Note_on_c, 0, 70, 69
1, 101819, Note_off_c, 0, 68, 59
1, 101849, Note_on_c, 0, 56, 46
1, 101853, Note_off_c, 0, 58, 53
1, 101904, Note_off_c, 0, 56, 57
1, 101951, Note_on_c, 0, 68, 26
1, 101964, Note_on_c, 0, 52, 41
1, 101997, Note_off_c, 0, 68, 0
1, 101998, Note_off_c, 0, 70, 55
1, 102012, Note_off_c, 0, 76, 57
1, 102017, Note_on_c, 0, 68, 34
1, 102030, Note_off_c, 0, 64, 56
1, 102076, Note_on_c, 0, 49, 44
1, 102081, Note_off_c, 0, 52, 36
1, 102134, Note_on_c, 0, 70, 51
1, 102143, Note_off_c, 0, 68, 56
1, 102254, Note_on_c, 0, 42, 51
1, 102261, Control_c, 0, 64, 97
1, 102275, Note_off_c, 0, 49, 36
1, 102276, Control_c, 0, 64, 76
1, 102286, Note_on_c, 0, 73, 70
1, 102290, Control_c, 0, 64, 56
1, 102293, Note_on_c, 0, 61, 51
1, 102305, Control_c, 0, 64, 0
1, 102315, Note_off_c, 0, 70, 59
1, 102379, Control_c, 0, 64, 60
1, 102391, Note_off_c, 0, 42, 58
1, 102394, Control_c, 0, 64, 82
1, 102399, Note_on_c, 0, 49, 42
1, 102402, Note_off_c, 0, 73, 62
1, 102409, Control_c, 0, 64, 127
1, 102447, Note_off_c, 0, 61, 63
1, 102485, Note_on_c, 0, 52, 48
1, 102548, Note_on_c, 0, 55, 52
1, 102580, Note_off_c, 0, 52, 61
1, 102580, Note_off_c, 0, 49, 47
1, 102589, Note_off_c, 0, 55, 61
1, 102611, Note_on_c, 0, 57, 56
1, 102649, Note_off_c, 0, 57, 60
1, 102658, Note_on_c, 0, 61, 60
1, 102715, Note_on_c, 0, 64, 55
1, 102718, Note_off_c, 0, 61, 63
1, 102727, Note_on_c, 0, 67, 65
1, 102742, Note_off_c, 0, 64, 65
1, 102751, Note_off_c, 0, 67, 66
1, 102807, Note_on_c, 0, 69, 64
1, 102855, Note_on_c, 0, 73, 70
1, 102863, Note_off_c, 0, 69, 43
1, 102899, Note_off_c, 0, 73, 55
1, 102908, Note_on_c, 0, 76, 65
1, 102963, Note_on_c, 0, 79, 56
1, 102965, Control_c, 0, 64, 113
1, 102972, Note_on_c, 0, 59, 80
1, 102973, Note_off_c, 0, 76, 54
1, 102977, Note_on_c, 0, 71, 89
1, 102980, Control_c, 0, 64, 84
1, 102995, Control_c, 0, 64, 64
1, 102995, Note_off_c, 0, 79, 63
1, 103004, Note_on_c, 0, 81, 65
1, 103010, Control_c, 0, 64, 38
1, 103025, Control_c, 0, 64, 62
1, 103039, Control_c, 0, 64, 81
1, 103054, Control_c, 0, 64, 127
1, 103067, Note_off_c, 0, 59, 60
1, 103073, Note_off_c, 0, 71, 62
1, 103079, Note_on_c, 0, 79, 61
1, 103079, Note_off_c, 0, 81, 62
1, 103120, Note_on_c, 0, 76, 52
1, 103142, Note_on_c, 0, 73, 63
1, 103142, Note_off_c, 0, 79, 57
1, 103151, Note_off_c, 0, 76, 62
1, 103173, Note_off_c, 0, 73, 65
1, 103195, Note_on_c, 0, 69, 60
1, 103215, Note_off_c, 0, 69, 64
1, 103305, Note_on_c, 0, 67, 41
1, 103314, Note_on_c, 0, 65, 37
1, 103344, Note_off_c, 0, 67, 62
1, 103349, Note_off_c, 0, 65, 51
1, 103365, Note_on_c, 0, 73, 90
1, 103368, Note_on_c, 0, 61, 79
1, 103368, Note_on_c, 0, 64, 61
1, 103396, Note_off_c, 0, 64, 65
1, 103407, Note_off_c, 0, 73, 67
1, 103410, Note_off_c, 0, 61, 63
1, 103437, Note_on_c, 0, 67, 59
1, 103475, Note_off_c, 0, 67, 59
1, 103481, Note_on_c, 0, 64, 45
1, 103528, Note_off_c, 0, 64, 62
1, 103537, Note_on_c, 0, 61, 52
1, 103565, Note_off_c, 0, 61, 58
1, 103596, Note_on_c, 0, 57, 44
1, 103627, Note_off_c, 0, 57, 55
1, 103670, Note_on_c, 0, 52, 51
1, 103691, Note_on_c, 0, 49, 74
1, 103697, Note_off_c, 0, 52, 59
1, 103713, Note_off_c, 0, 49, 67
1, 103865, Note_on_c, 0, 42, 58
1, 103877, Control_c, 0, 64, 109
1, 103892, Control_c, 0, 64, 93
1, 103907, Control_c, 0, 64, 76
1, 103913, Note_on_c, 0, 75, 82
1, 103921, Control_c, 0, 64, 50
1, 103929, Note_on_c, 0, 68, 60
1, 103936, Control_c, 0, 64, 0
1, 103943, Note_on_c, 0, 63, 46
1, 103995, Control_c, 0, 64, 27
1, 104010, Control_c, 0, 64, 66
1, 104025, Control_c, 0, 64, 83
1, 104047, Control_c, 0, 64, 116
1, 104062, Control_c, 0, 64, 127
1, 104099, Note_on_c, 0, 49, 47
1, 104107, Note_on_c, 0, 70, 64
1, 104107, Note_off_c, 0, 68, 64
1, 104113, Note_off_c, 0, 42, 50
1, 104143, Note_off_c, 0, 70, 57
1, 104164, Note_off_c, 0, 49, 60
1, 104201, Note_on_c, 0, 52, 45
1, 104208, Note_off_c, 0, 75, 57
1, 104208, Note_on_c, 0, 68, 53
1, 104231, Note_off_c, 0, 63, 60
1, 104232, Note_off_c, 0, 68, 63
1, 104234, Note_off_c, 0, 52, 63
1, 104295, Note_on_c, 0, 68, 65
1, 104303, Note_on_c, 0, 56, 55
1, 104360, Note_on_c, 0, 73, 91
1, 104365, Note_on_c, 0, 61, 81
1, 104372, Note_on_c, 0, 70, 78
1, 104375, Note_off_c, 0, 68, 65
1, 104385, Note_off_c, 0, 56, 56
1, 104387, Note_on_c, 0, 58, 64
1, 104407, Note_off_c, 0, 61, 51
1, 104474, Note_off_c, 0, 58, 61
1, 104489, Note_on_c, 0, 61, 52
1, 104491, Note_on_c, 0, 68, 48
1, 104513, Note_off_c, 0, 73, 60
1, 104517, Note_off_c, 0, 68, 58
1, 104520, Note_off_c, 0, 61, 65
1, 104533, Note_off_c, 0, 70, 50
1, 104557, Note_on_c, 0, 64, 57
1, 104572, Note_on_c, 0, 68, 49
1, 104612, Note_off_c, 0, 68, 54
1, 104645, Note_on_c, 0, 70, 62
1, 104648, Note_off_c, 0, 64, 58
1, 104662, Note_on_c, 0, 66, 55
1, 104699, Note_on_c, 0, 78, 93
1, 104700, Control_c, 0, 64, 109
1, 104703, Note_on_c, 0, 68, 79
1, 104704, Note_off_c, 0, 66, 62
1, 104715, Control_c, 0, 64, 85
1, 104730, Control_c, 0, 64, 69
1, 104734, Note_off_c, 0, 70, 62
1, 104744, Control_c, 0, 64, 65
1, 104759, Control_c, 0, 64, 74
1, 104774, Control_c, 0, 64, 101
1, 104796, Control_c, 0, 64, 127
1, 104817, Note_on_c, 0, 70, 69
1, 104818, Note_off_c, 0, 68, 62
1, 104820, Note_on_c, 0, 66, 63
1, 104855, Note_off_c, 0, 66, 64
1, 104886, Note_off_c, 0, 78, 62
1, 104899, Note_on_c, 0, 64, 49
1, 104915, Note_on_c, 0, 68, 43
1, 104933, Note_off_c, 0, 64, 50
1, 104935, Note_off_c, 0, 68, 64
1, 104967, Note_off_c, 0, 70, 59
1, 104978, Note_on_c, 0, 61, 62
1, 105008, Note_on_c, 0, 68, 66
1, 105037, Note_off_c, 0, 61, 59
1, 105043, Note_on_c, 0, 76, 89
1, 105055, Note_on_c, 0, 58, 49
1, 105058, Note_on_c, 0, 64, 64
1, 105073, Note_on_c, 0, 70, 74
1, 105094, Note_off_c, 0, 68, 64
1, 105111, Note_off_c, 0, 58, 62
1, 105118, Note_on_c, 0, 56, 53
1, 105147, Note_off_c, 0, 56, 65
1, 105207, Note_on_c, 0, 68, 53
1, 105214, Note_on_c, 0, 52, 49
1, 105222, Note_off_c, 0, 70, 56
1, 105249, Note_off_c, 0, 68, 54
1, 105270, Note_off_c, 0, 64, 56
1, 105282, Note_off_c, 0, 52, 59
1, 105297, Note_off_c, 0, 76, 59
1, 105311, Poly_aftertouch_c, 0, 68, 127
1, 105326, Note_on_c, 0, 49, 35
1, 105380, Note_on_c, 0, 70, 54
1, 105434, Poly_aftertouch_c, 0, 68, 0
1, 105463, Control_c, 0, 64, 121
1, 105478, Control_c, 0, 64, 109
1, 105487, Note_on_c, 0, 42, 58
1, 105493, Control_c, 0, 64, 98
1, 105500, Note_off_c, 0, 49, 46
1, 105508, Control_c, 0, 64, 87
1, 105523, Control_c, 0, 64, 71
1, 105528, Note_on_c, 0, 75, 73
1, 105545, Note_on_c, 0, 63, 62
1, 105545, Control_c, 0, 64, 50
1, 105560, Control_c, 0, 64, 0
1, 105630, Note_off_c, 0, 42, 57
1, 105634, Control_c, 0, 64, 47
1, 105648, Control_c, 0, 64, 69
1, 105658, Note_on_c, 0, 49, 43
1, 105660, Note_off_c, 0, 70, 62
1, 105663, Control_c, 0, 64, 88
1, 105677, Note_off_c, 0, 75, 62
1, 105678, Control_c, 0, 64, 127
1, 105716, Note_off_c, 0, 63, 62
1, 105764, Note_on_c, 0, 52, 48
1, 105815, Note_on_c, 0, 55, 52
1, 105843, Note_off_c, 0, 49, 31
1, 105845, Note_off_c, 0, 52, 61
1, 105853, Note_off_c, 0, 55, 61
1, 105871, Note_on_c, 0, 57, 56
1, 105909, Note_off_c, 0, 57, 60
1, 105929, Note_on_c, 0, 61, 61
1, 105977, Note_on_c, 0, 64, 48
1, 105981, Note_off_c, 0, 61, 64
1, 105999, Note_on_c, 0, 67, 68
1, 106006, Note_off_c, 0, 64, 66
1, 106022, Note_off_c, 0, 67, 67
1, 106087, Note_on_c, 0, 69, 42
1, 106119, Note_off_c, 0, 69, 50
1, 106143, Note_on_c, 0, 73, 54
1, 106171, Note_off_c, 0, 73, 53
1, 106182, Note_on_c, 0, 76, 57
1, 106229, Note_on_c, 0, 79, 59
1, 106237, Note_off_c, 0, 76, 48
1, 106242, Control_c, 0, 64, 106
1, 106257, Control_c, 0, 64, 89
1, 106259, Note_on_c, 0, 73, 75
1, 106265, Note_off_c, 0, 79, 62
1, 106271, Control_c, 0, 64, 73
1, 106287, Note_on_c, 0, 61, 61
1, 106294, Control_c, 0, 64, 53
1, 106295, Note_on_c, 0, 81, 56
1, 106309, Control_c, 0, 64, 28
1, 106323, Control_c, 0, 64, 41
1, 106338, Control_c, 0, 64, 57
1, 106353, Control_c, 0, 64, 68
1, 106364, Note_off_c, 0, 81, 61
1, 106368, Control_c, 0, 64, 86
1, 106373, Note_off_c, 0, 73, 63
1, 106383, Control_c, 0, 64, 127
1, 106389, Note_on_c, 0, 79, 56
1, 106417, Note_on_c, 0, 76, 54
1, 106429, Note_off_c, 0, 79, 57
1, 106450, Note_on_c, 0, 73, 54
1, 106453, Note_off_c, 0, 76, 60
1, 106480, Note_off_c, 0, 73, 64
1, 106500, Note_on_c, 0, 69, 58
1, 106520, Note_off_c, 0, 69, 63
1, 106571, Note_on_c, 0, 67, 56
1, 106618, Note_off_c, 0, 67, 58
1, 106635, Note_on_c, 0, 64, 60
1, 106649, Control_c, 0, 64, 105
1, 106664, Control_c, 0, 64, 88
1, 106668, Note_off_c, 0, 64, 57
1, 106674, Note_off_c, 0, 61, 59
1, 106679, Control_c, 0, 64, 69
1, 106694, Control_c, 0, 64, 52
1, 106703, Note_on_c, 0, 71, 50
1, 106708, Control_c, 0, 64, 42
1, 106709, Note_on_c, 0, 59, 40
1, 106716, Note_on_c, 0, 67, 64
1, 106723, Control_c, 0, 64, 54
1, 106737, Note_off_c, 0, 71, 58
1, 106738, Control_c, 0, 64, 64
1, 106753, Control_c, 0, 64, 75
1, 106768, Control_c, 0, 64, 102
1, 106782, Control_c, 0, 64, 127
1, 106803, Note_off_c, 0, 67, 55
1, 106807, Note_off_c, 0, 59, 35
1, 106813, Note_on_c, 0, 64, 46
1, 106847, Note_on_c, 0, 61, 57
1, 106878, Note_off_c, 0, 64, 46
1, 106894, Note_off_c, 0, 61, 61
1, 106988, Poly_aftertouch_c, 0, 57, 127
1, 107019, Poly_aftertouch_c, 0, 57, 0
1, 107061, Note_on_c, 0, 52, 43
1, 107113, Note_off_c, 0, 52, 54
1, 107124, Note_on_c, 0, 49, 50
1, 107168, Note_off_c, 0, 49, 61
1, 107338, Control_c, 0, 64, 119
1, 107353, Control_c, 0, 64, 110
1, 107368, Control_c, 0, 64, 102
1, 107383, Control_c, 0, 64, 95
1, 107398, Control_c, 0, 64, 89
1, 107413, Control_c, 0, 64, 84
1, 107422, Note_on_c, 0, 39, 38
1, 107428, Control_c, 0, 64, 78
1, 107443, Control_c, 0, 64, 73
1, 107457, Control_c, 0, 64, 69
1, 107472, Control_c, 0, 64, 64
1, 107487, Control_c, 0, 64, 58
1, 107491, Note_on_c, 0, 58, 32
1, 107493, Note_on_c, 0, 55, 33
1, 107502, Control_c, 0, 64, 47
1, 107517, Control_c, 0, 64, 33
1, 107531, Control_c, 0, 64, 10
1, 107546, Control_c, 0, 64, 0
1, 107591, Control_c, 0, 64, 37
1, 107605, Control_c, 0, 64, 58
1, 107607, Note_off_c, 0, 58, 40
1, 107613, Note_off_c, 0, 55, 37
1, 107620, Control_c, 0, 64, 68
1, 107621, Note_on_c, 0, 59, 37
1, 107635, Control_c, 0, 64, 75
1, 107650, Control_c, 0, 64, 81
1, 107666, Control_c, 0, 64, 85
1, 107675, Note_off_c, 0, 59, 56
1, 107680, Control_c, 0, 64, 90
1, 107695, Control_c, 0, 64, 95
1, 107710, Control_c, 0, 64, 103
1, 107725, Control_c, 0, 64, 108
1, 107737, Note_on_c, 0, 46, 36
1, 107738, Note_off_c, 0, 39, 40
1, 107740, Control_c, 0, 64, 113
1, 107753, Poly_aftertouch_c, 0, 58, 127
1, 107754, Control_c, 0, 64, 117
1, 107769, Control_c, 0, 64, 121
1, 107791, Control_c, 0, 64, 127
1, 107851, Control_c, 0, 64, 125
1, 107866, Control_c, 0, 64, 121
1, 107881, Control_c, 0, 64, 109
1, 107885, Note_on_c, 0, 71, 56
1, 107891, Poly_aftertouch_c, 0, 58, 0
1, 107895, Control_c, 0, 64, 98
1, 107910, Control_c, 0, 64, 87
1, 107918, Note_on_c, 0, 51, 41
1, 107925, Control_c, 0, 64, 86
1, 107940, Control_c, 0, 64, 88
1, 107955, Control_c, 0, 64, 93
1, 107956, Note_off_c, 0, 46, 41
1, 107964, Note_off_c, 0, 71, 58
1, 107969, Control_c, 0, 64, 100
1, 107984, Control_c, 0, 64, 106
1, 107994, Note_on_c, 0, 70, 46
1, 107999, Control_c, 0, 64, 110
1, 108004, Note_on_c, 0, 67, 29
1, 108014, Control_c, 0, 64, 111
1, 108043, Control_c, 0, 64, 111
1, 108058, Control_c, 0, 64, 112
1, 108065, Note_on_c, 0, 58, 55
1, 108066, Note_off_c, 0, 67, 43
1, 108067, Note_on_c, 0, 55, 42
1, 108073, Control_c, 0, 64, 113
1, 108075, Note_off_c, 0, 70, 45
1, 108082, Note_off_c, 0, 51, 39
1, 108087, Control_c, 0, 64, 114
1, 108090, Note_off_c, 0, 58, 65
1, 108142, Note_on_c, 0, 71, 51
1, 108191, Control_c, 0, 64, 113
1, 108200, Note_off_c, 0, 71, 56
1, 108206, Control_c, 0, 64, 108
1, 108209, Note_off_c, 0, 55, 56
1, 108209, Note_on_c, 0, 58, 57
1, 108221, Control_c, 0, 64, 99
1, 108227, Note_on_c, 0, 70, 53
1, 108236, Control_c, 0, 64, 87
1, 108245, Note_on_c, 0, 67, 39
1, 108251, Control_c, 0, 64, 76
1, 108265, Control_c, 0, 64, 67
1, 108271, Note_off_c, 0, 70, 62
1, 108280, Control_c, 0, 64, 67
1, 108295, Control_c, 0, 64, 74
1, 108310, Control_c, 0, 64, 85
1, 108317, Note_off_c, 0, 67, 40
1, 108321, Note_on_c, 0, 71, 56
1, 108325, Control_c, 0, 64, 94
1, 108340, Control_c, 0, 64, 96
1, 108354, Control_c, 0, 64, 97
1, 108355, Note_off_c, 0, 71, 65
1, 108369, Control_c, 0, 64, 98
1, 108376, Note_on_c, 0, 70, 60
1, 108384, Control_c, 0, 64, 99
1, 108385, Note_on_c, 0, 63, 51
1, 108395, Note_off_c, 0, 70, 63
1, 108399, Control_c, 0, 64, 101
1, 108412, Note_off_c, 0, 58, 38
1, 108413, Control_c, 0, 64, 103
1, 108428, Control_c, 0, 64, 103
1, 108481, Note_on_c, 0, 70, 37
1, 108489, Control_c, 0, 64, 103
1, 108503, Control_c, 0, 64, 98
1, 108507, Note_off_c, 0, 63, 58
1, 108518, Control_c, 0, 64, 88
1, 108523, Note_off_c, 0, 70, 50
1, 108540, Control_c, 0, 64, 76
1, 108544, Note_on_c, 0, 83, 55
1, 108555, Control_c, 0, 64, 68
1, 108560, Note_on_c, 0, 67, 42
1, 108570, Control_c, 0, 64, 64
1, 108584, Control_c, 0, 64, 69
1, 108599, Control_c, 0, 64, 78
1, 108602, Note_off_c, 0, 83, 61
1, 108614, Control_c, 0, 64, 91
1, 108629, Control_c, 0, 64, 103
1, 108632, Note_on_c, 0, 82, 57
1, 108644, Control_c, 0, 64, 106
1, 108650, Note_on_c, 0, 79, 52
1, 108659, Control_c, 0, 64, 107
1, 108674, Control_c, 0, 64, 108
1, 108689, Control_c, 0, 64, 109
1, 108693, Note_off_c, 0, 67, 34
1, 108704, Control_c, 0, 64, 109
1, 108722, Note_on_c, 0, 75, 51
1, 108723, Note_on_c, 0, 70, 60
1, 108748, Note_off_c, 0, 79, 30
1, 108751, Note_off_c, 0, 70, 64
1, 108784, Note_off_c, 0, 82, 57
1, 108814, Note_on_c, 0, 83, 53
1, 108852, Control_c, 0, 64, 109
1, 108866, Control_c, 0, 64, 106
1, 108881, Control_c, 0, 64, 102
1, 108896, Control_c, 0, 64, 94
1, 108907, Note_off_c, 0, 83, 52
1, 108910, Control_c, 0, 64, 84
1, 108925, Control_c, 0, 64, 72
1, 108940, Control_c, 0, 64, 62
1, 108955, Control_c, 0, 64, 53
1, 108970, Control_c, 0, 64, 57
1, 108977, Note_on_c, 0, 79, 46
1, 108984, Control_c, 0, 64, 63
1, 108986, Note_on_c, 0, 82, 35
1, 108999, Control_c, 0, 64, 71
1, 109014, Control_c, 0, 64, 86
1, 109021, Note_off_c, 0, 75, 51
1, 109029, Control_c, 0, 64, 122
1, 109035, Note_off_c, 0, 79, 55
1, 109043, Control_c, 0, 64, 127
1, 109045, Note_on_c, 0, 83, 49
1, 109055, Note_off_c, 0, 82, 60
1, 109097, Note_off_c, 0, 83, 62
1, 109103, Control_c, 0, 67, 8
1, 109118, Control_c, 0, 67, 9
1, 109133, Note_on_c, 0, 82, 66
1, 109133, Control_c, 0, 67, 10
1, 109148, Control_c, 0, 67, 12
1, 109161, Note_off_c, 0, 82, 67
1, 109163, Control_c, 0, 67, 16
1, 109178, Control_c, 0, 67, 18
1, 109192, Control_c, 0, 67, 20
1, 109207, Control_c, 0, 67, 21
1, 109222, Control_c, 0, 67, 23
1, 109231, Note_on_c, 0, 82, 41
1, 109236, Control_c, 0, 67, 26
1, 109252, Control_c, 0, 67, 27
1, 109267, Control_c, 0, 67, 28
1, 109288, Note_off_c, 0, 82, 47
1, 109289, Control_c, 0, 67, 28
1, 109304, Control_c, 0, 67, 29
1, 109310, Note_on_c, 0, 87, 59
1, 109315, Note_on_c, 0, 83, 50
1, 109319, Control_c, 0, 67, 30
1, 109333, Control_c, 0, 67, 32
1, 109348, Control_c, 0, 67, 33
1, 109387, Note_on_c, 0, 82, 54
1, 109397, Note_off_c, 0, 83, 49
1, 109401, Note_off_c, 0, 87, 53
1, 109425, Note_off_c, 0, 82, 60
1, 109489, Note_on_c, 0, 82, 65
1, 109526, Control_c, 0, 67, 33
1, 109550, Note_off_c, 0, 82, 63
1, 109556, Control_c, 0, 67, 31
1, 109571, Control_c, 0, 67, 30
1, 109575, Note_on_c, 0, 83, 45
1, 109586, Control_c, 0, 67, 29
1, 109601, Control_c, 0, 67, 28
1, 109615, Control_c, 0, 67, 27
1, 109627, Note_off_c, 0, 83, 46
1, 109630, Control_c, 0, 67, 26
1, 109645, Control_c, 0, 67, 25
1, 109658, Note_on_c, 0, 79, 44
1, 109658, Note_on_c, 0, 82, 46
1, 109659, Control_c, 0, 67, 24
1, 109674, Control_c, 0, 67, 21
1, 109689, Control_c, 0, 67, 16
1, 109694, Note_off_c, 0, 82, 58
1, 109704, Control_c, 0, 67, 12
1, 109719, Control_c, 0, 67, 9
1, 109729, Note_on_c, 0, 83, 55
1, 109730, Note_off_c, 0, 79, 52
1, 109733, Control_c, 0, 67, 0
1, 109783, Note_off_c, 0, 83, 54
1, 109794, Note_on_c, 0, 82, 61
1, 109823, Note_off_c, 0, 82, 67
1, 109890, Note_on_c, 0, 82, 63
1, 109935, Note_off_c, 0, 82, 56
1, 109978, Note_on_c, 0, 87, 54
1, 110004, Note_on_c, 0, 83, 41
1, 110051, Note_on_c, 0, 82, 64
1, 110060, Note_off_c, 0, 83, 58
1, 110060, Note_off_c, 0, 87, 55
1, 110081, Note_off_c, 0, 82, 66
1, 110152, Note_on_c, 0, 82, 61
1, 110201, Note_off_c, 0, 82, 57
1, 110240, Note_on_c, 0, 83, 42
1, 110286, Note_off_c, 0, 83, 46
1, 110328, Note_on_c, 0, 82, 50
1, 110331, Note_on_c, 0, 79, 44
1, 110372, Note_off_c, 0, 82, 60
1, 110404, Note_on_c, 0, 83, 47
1, 110435, Note_off_c, 0, 79, 36
1, 110468, Note_off_c, 0, 83, 54
1, 110478, Note_on_c, 0, 82, 57
1, 110508, Note_off_c, 0, 82, 67
1, 110581, Note_on_c, 0, 82, 57
1, 110618, Note_off_c, 0, 82, 47
1, 110689, Note_on_c, 0, 87, 45
1, 110701, Note_on_c, 0, 83, 22
1, 110737, Note_on_c, 0, 82, 57
1, 110759, Note_off_c, 0, 83, 44
1, 110781, Note_off_c, 0, 82, 64
1, 110788, Note_off_c, 0, 87, 38
1, 110874, Note_on_c, 0, 82, 54
1, 110933, Note_off_c, 0, 82, 56
1, 110982, Note_on_c, 0, 83, 32
1, 111205, Note_off_c, 0, 83, 30
1, 111231, Note_on_c, 0, 77, 72
1, 111246, Control_c, 0, 64, 117
1, 111261, Control_c, 0, 64, 110
1, 111276, Control_c, 0, 64, 105
1, 111291, Control_c, 0, 64, 99
1, 111297, Note_on_c, 0, 82, 32
1, 111300, Note_on_c, 0, 79, 25
1, 111306, Control_c, 0, 64, 92
1, 111321, Control_c, 0, 64, 83
1, 111336, Control_c, 0, 64, 73
1, 111351, Control_c, 0, 64, 64
1, 111366, Control_c, 0, 64, 54
1, 111380, Control_c, 0, 64, 50
1, 111410, Control_c, 0, 64, 51
1, 111418, Note_off_c, 0, 82, 46
1, 111424, Note_on_c, 0, 83, 42
1, 111424, Control_c, 0, 64, 54
1, 111439, Control_c, 0, 64, 61
1, 111454, Control_c, 0, 64, 67
1, 111455, Note_off_c, 0, 79, 28
1, 111469, Control_c, 0, 64, 75
1, 111484, Control_c, 0, 64, 85
1, 111489, Note_off_c, 0, 83, 54
1, 111498, Control_c, 0, 64, 91
1, 111513, Control_c, 0, 64, 93
1, 111533, Note_on_c, 0, 82, 41
1, 111536, Control_c, 0, 64, 96
1, 111550, Control_c, 0, 64, 101
1, 111562, Note_off_c, 0, 82, 53
1, 111565, Control_c, 0, 64, 109
1, 111580, Control_c, 0, 64, 125
1, 111595, Control_c, 0, 64, 127
1, 111630, Note_on_c, 0, 82, 53
1, 111688, Note_off_c, 0, 82, 56
1, 111720, Note_on_c, 0, 87, 47
1, 111741, Note_on_c, 0, 83, 37
1, 111799, Note_off_c, 0, 83, 48
1, 111802, Note_off_c, 0, 87, 38
1, 111811, Note_on_c, 0, 82, 49
1, 111849, Note_off_c, 0, 82, 45
1, 111899, Note_on_c, 0, 82, 46
1, 111944, Note_off_c, 0, 82, 61
1, 111981, Note_on_c, 0, 83, 45
1, 112057, Note_off_c, 0, 83, 35
1, 112094, Note_on_c, 0, 73, 58
1, 112114, Note_on_c, 0, 79, 39
1, 112119, Note_on_c, 0, 82, 37
1, 112188, Note_off_c, 0, 82, 54
1, 112213, Note_off_c, 0, 79, 38
1, 112227, Note_on_c, 0, 83, 36
1, 112313, Note_on_c, 0, 82, 56
1, 112320, Note_off_c, 0, 77, 39
1, 112322, Note_off_c, 0, 83, 46
1, 112332, Note_off_c, 0, 82, 64
1, 112410, Note_on_c, 0, 82, 63
1, 112451, Note_off_c, 0, 82, 59
1, 112496, Note_on_c, 0, 83, 43
1, 112498, Note_on_c, 0, 87, 52
1, 112561, Note_off_c, 0, 87, 51
1, 112573, Note_on_c, 0, 82, 53
1, 112576, Note_off_c, 0, 83, 61
1, 112596, Note_off_c, 0, 82, 61
1, 112651, Note_on_c, 0, 82, 57
1, 112694, Note_off_c, 0, 82, 60
1, 112718, Note_on_c, 0, 83, 55
1, 112775, Note_off_c, 0, 83, 54
1, 112806, Note_on_c, 0, 82, 51
1, 112823, Note_on_c, 0, 79, 44
1, 112855, Note_off_c, 0, 82, 57
1, 112878, Note_off_c, 0, 79, 54
1, 112893, Note_on_c, 0, 83, 54
1, 112947, Note_off_c, 0, 83, 53
1, 112961, Note_on_c, 0, 82, 59
1, 112984, Note_off_c, 0, 82, 66
1, 113058, Note_on_c, 0, 82, 67
1, 113092, Note_off_c, 0, 82, 57
1, 113142, Note_on_c, 0, 70, 56
1, 113151, Note_on_c, 0, 87, 55
1, 113153, Note_on_c, 0, 83, 45
1, 113213, Note_off_c, 0, 83, 54
1, 113218, Note_on_c, 0, 82, 67
1, 113231, Note_off_c, 0, 87, 56
1, 113247, Note_off_c, 0, 82, 67
1, 113256, Note_off_c, 0, 73, 49
1, 113308, Note_on_c, 0, 82, 69
1, 113362, Note_off_c, 0, 82, 59
1, 113379, Note_on_c, 0, 83, 59
1, 113491, Note_off_c, 0, 83, 38
1, 113497, Note_on_c, 0, 73, 68
1, 113503, Note_on_c, 0, 79, 50
1, 113507, Control_c, 0, 64, 110
1, 113522, Control_c, 0, 64, 96
1, 113531, Note_on_c, 0, 81, 46
1, 113537, Control_c, 0, 64, 82
1, 113552, Note_off_c, 0, 79, 54
1, 113552, Control_c, 0, 64, 68
1, 113567, Control_c, 0, 64, 54
1, 113579, Note_off_c, 0, 81, 55
1, 113581, Control_c, 0, 64, 50
1, 113596, Control_c, 0, 64, 56
1, 113600, Note_on_c, 0, 83, 60
1, 113611, Control_c, 0, 64, 62
1, 113625, Control_c, 0, 64, 69
1, 113640, Control_c, 0, 64, 80
1, 113641, Note_off_c, 0, 83, 60
1, 113655, Control_c, 0, 64, 97
1, 113670, Note_on_c, 0, 81, 60
1, 113670, Control_c, 0, 64, 111
1, 113677, Note_off_c, 0, 70, 54
1, 113685, Control_c, 0, 64, 112
1, 113688, Note_off_c, 0, 81, 65
1, 113700, Control_c, 0, 64, 115
1, 113715, Control_c, 0, 64, 127
1, 113738, Note_on_c, 0, 81, 50
1, 113784, Note_off_c, 0, 81, 49
1, 113814, Note_on_c, 0, 85, 60
1, 113863, Note_off_c, 0, 85, 55
1, 113869, Note_on_c, 0, 88, 57
1, 113901, Note_off_c, 0, 88, 67
1, 113914, Control_c, 0, 64, 118
1, 113915, Note_on_c, 0, 91, 69
1, 113921, Note_on_c, 0, 75, 71
1, 113929, Control_c, 0, 64, 106
1, 113944, Control_c, 0, 64, 96
1, 113959, Control_c, 0, 64, 84
1, 113974, Control_c, 0, 64, 74
1, 113989, Control_c, 0, 64, 66
1, 113995, Note_on_c, 0, 88, 42
1, 114004, Control_c, 0, 64, 63
1, 114019, Control_c, 0, 64, 66
1, 114027, Note_off_c, 0, 91, 53
1, 114033, Control_c, 0, 64, 71
1, 114048, Note_on_c, 0, 85, 53
1, 114048, Control_c, 0, 64, 81
1, 114063, Control_c, 0, 64, 92
1, 114069, Note_off_c, 0, 88, 59
1, 114078, Control_c, 0, 64, 100
1, 114088, Note_off_c, 0, 85, 63
1, 114093, Control_c, 0, 64, 102
1, 114097, Note_off_c, 0, 73, 55
1, 114108, Control_c, 0, 64, 106
1, 114112, Note_on_c, 0, 81, 53
1, 114123, Control_c, 0, 64, 109
1, 114135, Note_off_c, 0, 81, 66
1, 114138, Control_c, 0, 64, 110
1, 114153, Control_c, 0, 64, 111
1, 114212, Note_on_c, 0, 81, 48
1, 114227, Control_c, 0, 64, 110
1, 114256, Control_c, 0, 64, 110
1, 114260, Note_off_c, 0, 81, 62
1, 114271, Control_c, 0, 64, 108
1, 114286, Control_c, 0, 64, 105
1, 114299, Note_on_c, 0, 83, 54
1, 114301, Control_c, 0, 64, 103
1, 114316, Control_c, 0, 64, 101
1, 114330, Control_c, 0, 64, 98
1, 114345, Control_c, 0, 64, 96
1, 114359, Control_c, 0, 64, 94
1, 114374, Control_c, 0, 64, 91
1, 114389, Control_c, 0, 64, 89
1, 114403, Control_c, 0, 64, 88
1, 114418, Control_c, 0, 64, 87
1, 114433, Control_c, 0, 64, 86
1, 114448, Control_c, 0, 64, 84
1, 114448, Note_off_c, 0, 83, 58
1, 114463, Note_on_c, 0, 77, 52
1, 114463, Control_c, 0, 64, 81
1, 114478, Control_c, 0, 64, 78
1, 114481, Note_on_c, 0, 79, 42
1, 114493, Control_c, 0, 64, 74
1, 114496, Note_on_c, 0, 82, 41
1, 114507, Control_c, 0, 64, 68
1, 114529, Control_c, 0, 64, 62
1, 114544, Control_c, 0, 64, 54
1, 114559, Control_c, 0, 64, 50
1, 114566, Note_off_c, 0, 75, 54
1, 114569, Note_off_c, 0, 82, 50
1, 114574, Control_c, 0, 64, 46
1, 114589, Control_c, 0, 64, 42
1, 114603, Note_on_c, 0, 83, 40
1, 114618, Control_c, 0, 64, 45
1, 114633, Control_c, 0, 64, 53
1, 114648, Control_c, 0, 64, 61
1, 114659, Note_off_c, 0, 79, 37
1, 114662, Control_c, 0, 64, 65
1, 114677, Control_c, 0, 64, 68
1, 114687, Note_on_c, 0, 82, 56
1, 114692, Note_off_c, 0, 83, 55
1, 114692, Control_c, 0, 64, 71
1, 114707, Control_c, 0, 64, 79
1, 114719, Note_off_c, 0, 82, 67
1, 114722, Control_c, 0, 64, 92
1, 114737, Control_c, 0, 64, 109
1, 114752, Control_c, 0, 64, 127
1, 114795, Note_on_c, 0, 82, 44
1, 114871, Note_off_c, 0, 82, 41
1, 114878, Note_on_c, 0, 87, 52
1, 114887, Note_on_c, 0, 83, 57
1, 114939, Note_off_c, 0, 87, 49
1, 114940, Note_off_c, 0, 83, 60
1, 114973, Note_on_c, 0, 82, 43
1, 115015, Note_off_c, 0, 82, 0
1, 115028, Note_on_c, 0, 82, 56
1, 115084, Note_off_c, 0, 82, 61
1, 115117, Note_on_c, 0, 83, 48
1, 115175, Note_off_c, 0, 83, 50
1, 115204, Note_on_c, 0, 73, 50
1, 115213, Note_on_c, 0, 82, 52
1, 115228, Note_on_c, 0, 79, 40
1, 115294, Note_off_c, 0, 82, 59
1, 115302, Note_off_c, 0, 79, 52
1, 115312, Note_on_c, 0, 83, 44
1, 115378, Note_off_c, 0, 77, 38
1, 115392, Note_off_c, 0, 83, 54
1, 115397, Note_on_c, 0, 82, 56
1, 115422, Note_off_c, 0, 82, 64
1, 115491, Note_on_c, 0, 82, 58
1, 115544, Note_off_c, 0, 82, 57
1, 115587, Note_on_c, 0, 83, 34
1, 115591, Note_on_c, 0, 87, 51
1, 115648, Note_off_c, 0, 87, 57
1, 115658, Note_on_c, 0, 82, 60
1, 115676, Note_off_c, 0, 82, 65
1, 115679, Note_off_c, 0, 83, 40
1, 115751, Note_on_c, 0, 82, 62
1, 115776, Note_off_c, 0, 82, 57
1, 115822, Note_on_c, 0, 83, 46
1, 115873, Note_off_c, 0, 83, 57
1, 115893, Note_on_c, 0, 82, 41
1, 115921, Note_on_c, 0, 79, 40
1, 115953, Note_off_c, 0, 82, 61
1, 115965, Note_off_c, 0, 79, 45
1, 115983, Note_on_c, 0, 83, 53
1, 116045, Note_off_c, 0, 83, 54
1, 116083, Note_on_c, 0, 82, 39
1, 116123, Note_off_c, 0, 82, 0
1, 116137, Note_on_c, 0, 82, 53
1, 116230, Note_off_c, 0, 82, 47
1, 116252, Note_on_c, 0, 87, 55
1, 116270, Note_on_c, 0, 70, 46
1, 116301, Note_on_c, 0, 83, 12
1, 116325, Note_on_c, 0, 82, 51
1, 116326, Note_off_c, 0, 87, 52
1, 116347, Note_off_c, 0, 83, 46
1, 116359, Note_off_c, 0, 82, 61
1, 116376, Note_off_c, 0, 73, 57
1, 116415, Note_on_c, 0, 82, 56
1, 116461, Note_off_c, 0, 82, 59
1, 116483, Note_on_c, 0, 83, 56
1, 116565, Note_off_c, 0, 83, 45
1, 116592, Note_on_c, 0, 73, 57
1, 116614, Note_on_c, 0, 79, 44
1, 116621, Control_c, 0, 64, 106
1, 116624, Note_on_c, 0, 81, 53
1, 116636, Control_c, 0, 64, 85
1, 116650, Control_c, 0, 64, 67
1, 116660, Note_off_c, 0, 79, 57
1, 116665, Control_c, 0, 64, 62
1, 116666, Note_off_c, 0, 81, 65
1, 116680, Control_c, 0, 64, 68
1, 116695, Control_c, 0, 64, 78
1, 116695, Note_on_c, 0, 83, 56
1, 116707, Note_off_c, 0, 70, 0
1, 116710, Control_c, 0, 64, 99
1, 116724, Control_c, 0, 64, 127
1, 116731, Note_off_c, 0, 83, 63
1, 116749, Note_on_c, 0, 81, 62
1, 116775, Note_off_c, 0, 81, 67
1, 116792, Poly_aftertouch_c, 0, 70, 0
1, 116823, Note_on_c, 0, 81, 60
1, 116856, Note_off_c, 0, 81, 59
1, 116890, Note_on_c, 0, 85, 64
1, 116925, Note_off_c, 0, 85, 59
1, 116940, Note_on_c, 0, 88, 64
1, 116970, Note_off_c, 0, 88, 66
1, 116976, Note_on_c, 0, 75, 71
1, 116982, Note_on_c, 0, 91, 62
1, 117044, Note_on_c, 0, 88, 64
1, 117061, Note_off_c, 0, 91, 57
1, 117082, Note_off_c, 0, 88, 59
1, 117087, Note_on_c, 0, 85, 61
1, 117116, Note_off_c, 0, 73, 35
1, 117117, Note_off_c, 0, 85, 67
1, 117129, Note_on_c, 0, 81, 60
1, 117155, Note_off_c, 0, 81, 67
1, 117216, Note_on_c, 0, 81, 56
1, 117253, Note_off_c, 0, 81, 57
1, 117281, Note_on_c, 0, 83, 55
1, 117340, Control_c, 0, 64, 111
1, 117355, Control_c, 0, 64, 97
1, 117366, Note_on_c, 0, 77, 74
1, 117370, Control_c, 0, 64, 85
1, 117385, Control_c, 0, 64, 71
1, 117390, Note_off_c, 0, 83, 57
1, 117397, Note_on_c, 0, 79, 46
1, 117400, Note_on_c, 0, 82, 49
1, 117400, Control_c, 0, 64, 57
1, 117414, Control_c, 0, 64, 35
1, 117429, Control_c, 0, 64, 37
1, 117437, Note_off_c, 0, 75, 63
1, 117444, Control_c, 0, 64, 38
1, 117450, Note_off_c, 0, 82, 60
1, 117459, Control_c, 0, 64, 47
1, 117463, Note_off_c, 0, 79, 57
1, 117473, Control_c, 0, 64, 61
1, 117488, Note_on_c, 0, 83, 39
1, 117488, Control_c, 0, 64, 71
1, 117503, Control_c, 0, 64, 93
1, 117526, Control_c, 0, 64, 127
1, 117542, Note_off_c, 0, 83, 59
1, 117552, Note_on_c, 0, 82, 65
1, 117571, Note_off_c, 0, 82, 68
1, 117640, Note_on_c, 0, 82, 64
1, 117689, Note_off_c, 0, 82, 44
1, 117736, Note_on_c, 0, 75, 79
1, 117747, Note_on_c, 0, 83, 55
1, 117747, Note_on_c, 0, 87, 62
1, 117798, Note_off_c, 0, 77, 61
1, 117817, Note_off_c, 0, 83, 59
1, 117822, Note_off_c, 0, 87, 57
1, 117828, Note_on_c, 0, 82, 50
1, 117853, Note_off_c, 0, 82, 61
1, 117919, Note_on_c, 0, 82, 61
1, 117984, Note_on_c, 0, 83, 61
1, 117991, Note_off_c, 0, 82, 63
1, 118003, Note_off_c, 0, 83, 66
1, 118214, Note_on_c, 0, 82, 77
1, 118222, Control_c, 0, 64, 120
1, 118237, Control_c, 0, 64, 109
1, 118251, Control_c, 0, 64, 101
1, 118274, Control_c, 0, 64, 92
1, 118289, Control_c, 0, 64, 82
1, 118303, Control_c, 0, 64, 70
1, 118318, Control_c, 0, 64, 58
1, 118333, Control_c, 0, 64, 47
1, 118348, Control_c, 0, 64, 48
1, 118374, Note_off_c, 0, 75, 61
1, 118377, Control_c, 0, 64, 48
1, 118392, Control_c, 0, 64, 54
1, 118407, Control_c, 0, 64, 62
1, 118421, Control_c, 0, 64, 70
1, 118422, Note_on_c, 0, 83, 41
1, 118436, Control_c, 0, 64, 86
1, 118451, Control_c, 0, 64, 127
1, 118490, Note_off_c, 0, 83, 55
1, 118502, Note_on_c, 0, 84, 46
1, 118564, Note_on_c, 0, 85, 55
1, 118576, Note_off_c, 0, 84, 60
1, 118606, Note_off_c, 0, 85, 62
1, 118611, Note_on_c, 0, 87, 49
1, 118632, Note_off_c, 0, 87, 61
1, 118661, Note_on_c, 0, 88, 63
1, 118680, Note_off_c, 0, 88, 65
1, 118721, Note_on_c, 0, 94, 63
1, 118731, Note_on_c, 0, 79, 57
1, 118777, Control_c, 0, 67, 12
1, 118792, Control_c, 0, 67, 23
1, 118807, Control_c, 0, 67, 39
1, 118817, Note_on_c, 0, 91, 54
1, 118821, Control_c, 0, 67, 56
1, 118824, Note_off_c, 0, 82, 60
1, 118837, Control_c, 0, 67, 73
1, 118852, Control_c, 0, 67, 88
1, 118867, Control_c, 0, 67, 103
1, 118870, Note_on_c, 0, 88, 50
1, 118870, Note_off_c, 0, 94, 39
1, 118882, Control_c, 0, 67, 114
1, 118897, Control_c, 0, 67, 124
1, 118898, Note_off_c, 0, 91, 52
1, 118911, Note_on_c, 0, 85, 55
1, 118911, Control_c, 0, 67, 127
1, 118919, Note_off_c, 0, 88, 59
1, 118943, Note_off_c, 0, 85, 65
1, 118946, Note_on_c, 0, 82, 61
1, 118977, Note_off_c, 0, 82, 67
1, 118991, Note_off_c, 0, 79, 61
1, 119021, Note_on_c, 0, 77, 63
1, 119052, Control_c, 0, 64, 98
1, 119067, Control_c, 0, 64, 77
1, 119082, Control_c, 0, 64, 62
1, 119092, Note_on_c, 0, 78, 61
1, 119097, Control_c, 0, 64, 53
1, 119112, Control_c, 0, 64, 60
1, 119123, Note_off_c, 0, 78, 65
1, 119126, Control_c, 0, 64, 69
1, 119141, Control_c, 0, 64, 83
1, 119152, Note_on_c, 0, 79, 61
1, 119156, Control_c, 0, 64, 110
1, 119171, Control_c, 0, 64, 127
1, 119173, Note_off_c, 0, 79, 64
1, 119214, Note_on_c, 0, 80, 56
1, 119233, Note_off_c, 0, 80, 65
1, 119256, Note_on_c, 0, 81, 68
1, 119282, Note_off_c, 0, 81, 65
1, 119304, Control_c, 0, 64, 103
1, 119314, Note_on_c, 0, 82, 62
1, 119319, Control_c, 0, 64, 81
1, 119334, Control_c, 0, 64, 67
1, 119342, Note_off_c, 0, 82, 54
1, 119348, Control_c, 0, 64, 63
1, 119363, Control_c, 0, 64, 70
1, 119372, Note_on_c, 0, 89, 54
1, 119378, Control_c, 0, 64, 85
1, 119393, Control_c, 0, 64, 127
1, 119420, Note_on_c, 0, 87, 60
1, 119463, Note_off_c, 0, 89, 55
1, 119465, Note_on_c, 0, 85, 45
1, 119479, Note_off_c, 0, 77, 54
1, 119500, Note_on_c, 0, 82, 41
1, 119509, Note_off_c, 0, 85, 48
1, 119513, Note_off_c, 0, 87, 62
1, 119533, Note_off_c, 0, 82, 65
1, 119539, Note_on_c, 0, 79, 62
1, 119564, Note_off_c, 0, 79, 65
1, 119585, Control_c, 0, 64, 100
1, 119596, Note_on_c, 0, 75, 65
1, 119600, Control_c, 0, 64, 76
1, 119615, Control_c, 0, 64, 61
1, 119630, Control_c, 0, 64, 50
1, 119646, Control_c, 0, 64, 60
1, 119660, Control_c, 0, 64, 68
1, 119671, Note_on_c, 0, 77, 55
1, 119675, Control_c, 0, 64, 82
1, 119690, Control_c, 0, 64, 112
1, 119705, Control_c, 0, 64, 127
1, 119722, Note_off_c, 0, 77, 60
1, 119736, Note_on_c, 0, 73, 53
1, 119778, Note_off_c, 0, 73, 63
1, 119799, Note_on_c, 0, 67, 57
1, 119828, Note_off_c, 0, 67, 65
1, 119899, Note_on_c, 0, 65, 53
1, 119995, Note_on_c, 0, 63, 45
1, 120025, Note_on_c, 0, 70, 42
1, 120047, Note_off_c, 0, 75, 37
1, 120064, Note_on_c, 0, 61, 45
1, 120103, Note_off_c, 0, 65, 31
1, 120106, Note_off_c, 0, 70, 63
1, 120158, Note_on_c, 0, 58, 57
1, 120198, Note_off_c, 0, 63, 59
1, 120210, Note_off_c, 0, 61, 62
1, 120232, Note_off_c, 0, 58, 63
1, 120248, Note_on_c, 0, 55, 58
1, 120368, Note_off_c, 0, 55, 45
1, 120377, Note_on_c, 0, 53, 54
1, 120428, Note_off_c, 0, 53, 63
1, 120639, Control_c, 0, 64, 122
1, 120654, Control_c, 0, 64, 111
1, 120669, Control_c, 0, 64, 103
1, 120684, Control_c, 0, 64, 95
1, 120699, Control_c, 0, 64, 88
1, 120714, Control_c, 0, 64, 79
1, 120715, Note_on_c, 0, 43, 41
1, 120717, Note_on_c, 0, 36, 37
1, 120729, Control_c, 0, 64, 69
1, 120744, Control_c, 0, 64, 55
1, 120758, Control_c, 0, 64, 28
1, 120761, Note_on_c, 0, 55, 40
1, 120773, Control_c, 0, 64, 0
1, 120776, Note_on_c, 0, 52, 28
1, 120891, Control_c, 0, 64, 30
1, 120906, Control_c, 0, 64, 55
1, 120920, Note_off_c, 0, 55, 43
1, 120921, Control_c, 0, 64, 63
1, 120923, Note_on_c, 0, 56, 42
1, 120936, Control_c, 0, 64, 68
1, 120939, Note_off_c, 0, 52, 40
1, 120951, Control_c, 0, 64, 73
1, 120965, Control_c, 0, 64, 80
1, 120980, Control_c, 0, 64, 87
1, 120995, Control_c, 0, 64, 91
1, 121009, Control_c, 0, 64, 93
1, 121024, Control_c, 0, 64, 95
1, 121026, Note_on_c, 0, 55, 44
1, 121039, Control_c, 0, 64, 99
1, 121054, Control_c, 0, 64, 101
1, 121057, Note_off_c, 0, 55, 60
1, 121057, Note_off_c, 0, 56, 32
1, 121069, Control_c, 0, 64, 102
1, 121116, Note_on_c, 0, 55, 50
1, 121143, Control_c, 0, 64, 101
1, 121158, Control_c, 0, 64, 99
1, 121173, Control_c, 0, 64, 96
1, 121188, Control_c, 0, 64, 91
1, 121196, Note_off_c, 0, 55, 49
1, 121203, Control_c, 0, 64, 83
1, 121211, Note_on_c, 0, 44, 66
1, 121217, Control_c, 0, 64, 72
1, 121226, Note_on_c, 0, 67, 53
1, 121232, Control_c, 0, 64, 62
1, 121247, Control_c, 0, 64, 38
1, 121251, Note_on_c, 0, 64, 41
1, 121270, Control_c, 0, 64, 0
1, 121284, Note_off_c, 0, 67, 58
1, 121290, Note_off_c, 0, 64, 59
1, 121315, Control_c, 0, 64, 36
1, 121323, Note_on_c, 0, 55, 55
1, 121329, Control_c, 0, 64, 55
1, 121344, Control_c, 0, 64, 63
1, 121350, Note_off_c, 0, 43, 43
1, 121353, Note_off_c, 0, 55, 64
1, 121359, Control_c, 0, 64, 68
1, 121374, Control_c, 0, 64, 74
1, 121388, Control_c, 0, 64, 80
1, 121403, Control_c, 0, 64, 85
1, 121418, Control_c, 0, 64, 89
1, 121433, Control_c, 0, 64, 91
1, 121436, Note_on_c, 0, 55, 49
1, 121447, Control_c, 0, 64, 91
1, 121475, Note_off_c, 0, 55, 60
1, 121489, Note_on_c, 0, 56, 60
1, 121536, Control_c, 0, 64, 91
1, 121551, Control_c, 0, 64, 89
1, 121566, Control_c, 0, 64, 87
1, 121574, Note_on_c, 0, 46, 80
1, 121581, Control_c, 0, 64, 83
1, 121596, Control_c, 0, 64, 76
1, 121607, Note_on_c, 0, 52, 44
1, 121607, Note_on_c, 0, 55, 47
1, 121607, Note_off_c, 0, 56, 36
1, 121611, Control_c, 0, 64, 68
1, 121626, Control_c, 0, 64, 57
1, 121640, Control_c, 0, 64, 31
1, 121655, Note_off_c, 0, 52, 57
1, 121655, Control_c, 0, 64, 0
1, 121666, Note_off_c, 0, 55, 58
1, 121671, Note_off_c, 0, 44, 51
1, 121693, Note_on_c, 0, 56, 56
1, 121759, Note_off_c, 0, 56, 52
1, 121801, Note_on_c, 0, 55, 26
1, 121803, Control_c, 0, 64, 44
1, 121818, Control_c, 0, 64, 54
1, 121832, Control_c, 0, 64, 56
1, 121841, Note_off_c, 0, 55, 0
1, 121841, Note_on_c, 0, 55, 16
1, 121847, Control_c, 0, 64, 57
1, 121862, Control_c, 0, 64, 59
1, 121877, Control_c, 0, 64, 63
1, 121892, Control_c, 0, 64, 66
1, 121906, Control_c, 0, 64, 68
1, 121915, Note_off_c, 0, 55, 55
1, 121921, Control_c, 0, 64, 70
1, 121936, Control_c, 0, 64, 72
1, 121951, Control_c, 0, 64, 76
1, 121957, Note_on_c, 0, 67, 59
1, 121966, Control_c, 0, 64, 81
1, 121981, Control_c, 0, 64, 84
1, 121993, Note_on_c, 0, 64, 35
1, 121995, Control_c, 0, 64, 86
1, 121999, Note_off_c, 0, 67, 63
1, 122018, Control_c, 0, 64, 87
1, 122033, Note_off_c, 0, 64, 53
1, 122033, Control_c, 0, 64, 88
1, 122037, Note_on_c, 0, 55, 59
1, 122049, Control_c, 0, 64, 90
1, 122063, Control_c, 0, 64, 90
1, 122067, Note_off_c, 0, 55, 63
1, 122093, Control_c, 0, 64, 91
1, 122108, Control_c, 0, 64, 92
1, 122123, Control_c, 0, 64, 93
1, 122144, Note_on_c, 0, 55, 44
1, 122152, Control_c, 0, 64, 93
1, 122174, Note_off_c, 0, 55, 56
1, 122182, Control_c, 0, 64, 93
1, 122197, Control_c, 0, 64, 92
1, 122199, Note_on_c, 0, 56, 69
1, 122212, Control_c, 0, 64, 87
1, 122226, Control_c, 0, 64, 79
1, 122241, Control_c, 0, 64, 72
1, 122256, Control_c, 0, 64, 67
1, 122270, Control_c, 0, 64, 66
1, 122279, Note_off_c, 0, 56, 54
1, 122285, Control_c, 0, 64, 69
1, 122289, Note_on_c, 0, 52, 50
1, 122291, Note_on_c, 0, 55, 39
1, 122300, Control_c, 0, 64, 74
1, 122315, Control_c, 0, 64, 82
1, 122330, Control_c, 0, 64, 90
1, 122339, Note_off_c, 0, 52, 56
1, 122344, Control_c, 0, 64, 94
1, 122365, Note_off_c, 0, 55, 58
1, 122377, Note_on_c, 0, 56, 66
1, 122389, Control_c, 0, 64, 95
1, 122398, Note_off_c, 0, 36, 39
1, 122419, Control_c, 0, 64, 95
1, 122436, Note_off_c, 0, 56, 53
1, 122464, Note_on_c, 0, 55, 39
1, 122509, Note_off_c, 0, 55, 0
1, 122509, Note_on_c, 0, 55, 35
1, 122592, Note_off_c, 0, 55, 54
1, 122595, Control_c, 0, 64, 94
1, 122610, Control_c, 0, 64, 92
1, 122624, Note_on_c, 0, 48, 87
1, 122625, Control_c, 0, 64, 89
1, 122636, Note_on_c, 0, 67, 69
1, 122640, Control_c, 0, 64, 82
1, 122654, Control_c, 0, 64, 73
1, 122660, Note_on_c, 0, 64, 52
1, 122669, Control_c, 0, 64, 63
1, 122684, Control_c, 0, 64, 50
1, 122692, Note_off_c, 0, 64, 65
1, 122696, Note_off_c, 0, 67, 60
1, 122699, Control_c, 0, 64, 50
1, 122714, Control_c, 0, 64, 60
1, 122716, Note_off_c, 0, 46, 64
1, 122719, Note_on_c, 0, 55, 65
1, 122729, Control_c, 0, 64, 68
1, 122744, Control_c, 0, 64, 80
1, 122759, Note_off_c, 0, 55, 63
1, 122766, Control_c, 0, 64, 91
1, 122781, Control_c, 0, 64, 95
1, 122824, Note_on_c, 0, 55, 65
1, 122856, Control_c, 0, 67, 127
1, 122871, Control_c, 0, 67, 126
1, 122875, Note_off_c, 0, 55, 61
1, 122886, Control_c, 0, 67, 124
1, 122890, Note_on_c, 0, 56, 68
1, 122900, Control_c, 0, 67, 123
1, 122959, Control_c, 0, 64, 94
1, 122974, Control_c, 0, 64, 93
1, 122974, Control_c, 0, 67, 123
1, 122989, Control_c, 0, 64, 91
1, 122989, Control_c, 0, 67, 122
1, 123004, Control_c, 0, 64, 89
1, 123004, Control_c, 0, 67, 121
1, 123018, Control_c, 0, 64, 85
1, 123018, Control_c, 0, 67, 120
1, 123033, Control_c, 0, 64, 78
1, 123033, Control_c, 0, 67, 119
1, 123042, Note_on_c, 0, 51, 80
1, 123048, Note_on_c, 0, 42, 71
1, 123048, Control_c, 0, 64, 70
1, 123048, Control_c, 0, 67, 117
1, 123063, Control_c, 0, 64, 61
1, 123063, Control_c, 0, 67, 116
1, 123064, Note_off_c, 0, 56, 55
1, 123070, Note_on_c, 0, 63, 65
1, 123078, Control_c, 0, 64, 46
1, 123078, Control_c, 0, 67, 114
1, 123092, Control_c, 0, 64, 31
1, 123092, Control_c, 0, 67, 109
1, 123107, Control_c, 0, 64, 18
1, 123107, Control_c, 0, 67, 102
1, 123122, Control_c, 0, 64, 0
1, 123122, Control_c, 0, 67, 94
1, 123137, Control_c, 0, 67, 90
1, 123152, Control_c, 0, 67, 87
1, 123158, Note_off_c, 0, 48, 36
1, 123167, Control_c, 0, 67, 85
1, 123182, Control_c, 0, 64, 20
1, 123182, Control_c, 0, 67, 84
1, 123197, Control_c, 0, 64, 55
1, 123197, Control_c, 0, 67, 83
1, 123199, Note_on_c, 0, 52, 50
1, 123199, Note_off_c, 0, 63, 60
1, 123211, Control_c, 0, 64, 67
1, 123211, Control_c, 0, 67, 84
1, 123226, Control_c, 0, 64, 76
1, 123241, Control_c, 0, 64, 85
1, 123256, Control_c, 0, 64, 89
1, 123271, Control_c, 0, 64, 90
1, 123285, Control_c, 0, 64, 91
1, 123285, Control_c, 0, 67, 83
1, 123286, Note_on_c, 0, 54, 52
1, 123308, Note_off_c, 0, 52, 37
1, 123331, Control_c, 0, 67, 83
1, 123346, Control_c, 0, 64, 90
1, 123346, Control_c, 0, 67, 82
1, 123360, Control_c, 0, 64, 88
1, 123360, Control_c, 0, 67, 77
1, 123370, Note_on_c, 0, 56, 55
1, 123375, Control_c, 0, 64, 84
1, 123375, Control_c, 0, 67, 72
1, 123390, Control_c, 0, 64, 76
1, 123390, Control_c, 0, 67, 66
1, 123404, Control_c, 0, 64, 65
1, 123404, Control_c, 0, 67, 61
1, 123411, Note_on_c, 0, 58, 53
1, 123419, Control_c, 0, 64, 49
1, 123419, Control_c, 0, 67, 58
1, 123430, Note_off_c, 0, 54, 36
1, 123434, Control_c, 0, 64, 35
1, 123434, Control_c, 0, 67, 56
1, 123449, Control_c, 0, 67, 55
1, 123453, Note_on_c, 0, 61, 55
1, 123464, Control_c, 0, 67, 54
1, 123466, Note_off_c, 0, 56, 63
1, 123479, Control_c, 0, 64, 42
1, 123486, Note_off_c, 0, 58, 64
1, 123493, Control_c, 0, 64, 57
1, 123498, Note_on_c, 0, 49, 55
1, 123516, Control_c, 0, 64, 66
1, 123516, Control_c, 0, 67, 55
1, 123518, Note_off_c, 0, 61, 63
1, 123531, Control_c, 0, 64, 72
1, 123545, Control_c, 0, 64, 78
1, 123545, Control_c, 0, 67, 55
1, 123560, Control_c, 0, 64, 80
1, 123560, Control_c, 0, 67, 56
1, 123566, Note_on_c, 0, 64, 53
1, 123575, Control_c, 0, 64, 80
1, 123575, Control_c, 0, 67, 56
1, 123583, Note_off_c, 0, 51, 62
1, 123590, Control_c, 0, 64, 82
1, 123590, Control_c, 0, 67, 57
1, 123591, Note_off_c, 0, 64, 60
1, 123605, Control_c, 0, 64, 86
1, 123605, Control_c, 0, 67, 58
1, 123619, Control_c, 0, 64, 89
1, 123619, Control_c, 0, 67, 59
1, 123635, Control_c, 0, 64, 91
1, 123635, Control_c, 0, 67, 59
1, 123637, Note_on_c, 0, 66, 62
1, 123650, Control_c, 0, 64, 91
1, 123650, Control_c, 0, 67, 60
1, 123680, Control_c, 0, 67, 61
1, 123681, Note_off_c, 0, 66, 54
1, 123685, Note_off_c, 0, 49, 62
1, 123695, Control_c, 0, 67, 62
1, 123699, Note_on_c, 0, 68, 60
1, 123709, Control_c, 0, 67, 63
1, 123724, Control_c, 0, 67, 63
1, 123745, Note_off_c, 0, 42, 33
1, 123745, Note_off_c, 0, 68, 55
1, 123754, Control_c, 0, 67, 64
1, 123764, Note_on_c, 0, 70, 63
1, 123769, Control_c, 0, 67, 65
1, 123783, Control_c, 0, 67, 67
1, 123796, Note_off_c, 0, 70, 65
1, 123798, Control_c, 0, 67, 68
1, 123813, Control_c, 0, 64, 91
1, 123813, Control_c, 0, 67, 71
1, 123828, Control_c, 0, 67, 74
1, 123842, Control_c, 0, 64, 90
1, 123842, Control_c, 0, 67, 76
1, 123857, Control_c, 0, 64, 89
1, 123857, Control_c, 0, 67, 80
1, 123872, Control_c, 0, 64, 88
1, 123872, Control_c, 0, 67, 84
1, 123887, Control_c, 0, 64, 86
1, 123887, Control_c, 0, 67, 89
1, 123902, Control_c, 0, 64, 85
1, 123902, Control_c, 0, 67, 94
1, 123916, Control_c, 0, 64, 83
1, 123916, Control_c, 0, 67, 99
1, 123931, Control_c, 0, 64, 80
1, 123931, Control_c, 0, 67, 106
1, 123946, Control_c, 0, 64, 77
1, 123946, Control_c, 0, 67, 113
1, 123961, Control_c, 0, 64, 73
1, 123961, Control_c, 0, 67, 117
1, 123976, Control_c, 0, 64, 69
1, 123976, Control_c, 0, 67, 120
1, 123990, Control_c, 0, 64, 63
1, 123990, Control_c, 0, 67, 123
1, 124005, Control_c, 0, 64, 56
1, 124005, Control_c, 0, 67, 127
1, 124011, Note_on_c, 0, 43, 47
1, 124013, Note_on_c, 0, 36, 43
1, 124020, Control_c, 0, 64, 46
1, 124020, Control_c, 0, 67, 127
1, 124029, Note_on_c, 0, 52, 41
1, 124034, Control_c, 0, 64, 35
1, 124043, Note_on_c, 0, 55, 43
1, 124049, Control_c, 0, 64, 17
1, 124064, Control_c, 0, 64, 0
1, 124097, Note_off_c, 0, 55, 56
1, 124099, Note_off_c, 0, 52, 54
1, 124113, Note_on_c, 0, 56, 53
1, 124124, Control_c, 0, 64, 41
1, 124139, Control_c, 0, 64, 58
1, 124154, Control_c, 0, 64, 64
1, 124168, Note_off_c, 0, 56, 53
1, 124168, Control_c, 0, 64, 68
1, 124183, Control_c, 0, 64, 71
1, 124198, Control_c, 0, 64, 74
1, 124205, Note_on_c, 0, 55, 58
1, 124213, Control_c, 0, 64, 77
1, 124227, Control_c, 0, 64, 79
1, 124229, Note_off_c, 0, 55, 62
1, 124239, Note_off_c, 0, 36, 38
1, 124242, Control_c, 0, 64, 80
1, 124264, Control_c, 0, 64, 81
1, 124276, Note_on_c, 0, 55, 57
1, 124279, Control_c, 0, 64, 82
1, 124294, Control_c, 0, 64, 83
1, 124309, Control_c, 0, 64, 83
1, 124309, Note_off_c, 0, 55, 63
1, 124376, Note_on_c, 0, 52, 46
1, 124387, Note_on_c, 0, 68, 55
1, 124405, Note_off_c, 0, 43, 42
1, 124476, Note_off_c, 0, 68, 33
1, 124477, Note_off_c, 0, 52, 56
1, 124478, Note_on_c, 0, 64, 54
1, 124485, Note_on_c, 0, 67, 42
1, 124516, Note_off_c, 0, 67, 54
1, 124526, Note_off_c, 0, 64, 42
1, 124547, Note_on_c, 0, 55, 57
1, 124570, Note_off_c, 0, 55, 61
1, 124616, Note_on_c, 0, 68, 55
1, 124646, Note_off_c, 0, 68, 64
1, 124651, Control_c, 0, 64, 82
1, 124665, Control_c, 0, 64, 81
1, 124680, Control_c, 0, 64, 77
1, 124686, Note_on_c, 0, 55, 51
1, 124695, Control_c, 0, 64, 71
1, 124699, Note_on_c, 0, 64, 59
1, 124708, Note_on_c, 0, 67, 32
1, 124710, Control_c, 0, 64, 65
1, 124725, Control_c, 0, 64, 63
1, 124737, Note_off_c, 0, 64, 62
1, 124739, Control_c, 0, 64, 67
1, 124754, Control_c, 0, 64, 73
1, 124762, Note_off_c, 0, 67, 56
1, 124769, Control_c, 0, 64, 78
1, 124777, Note_on_c, 0, 68, 47
1, 124783, Control_c, 0, 64, 81
1, 124798, Control_c, 0, 64, 82
1, 124826, Note_off_c, 0, 68, 66
1, 124849, Note_on_c, 0, 67, 65
1, 124869, Note_off_c, 0, 67, 62
1, 124918, Note_on_c, 0, 67, 68
1, 124942, Note_off_c, 0, 67, 68
1, 124961, Control_c, 0, 64, 81
1, 124976, Control_c, 0, 64, 80
1, 124991, Control_c, 0, 64, 78
1, 125013, Control_c, 0, 64, 74
1, 125016, Note_on_c, 0, 64, 54
1, 125018, Note_on_c, 0, 80, 61
1, 125028, Control_c, 0, 64, 69
1, 125043, Control_c, 0, 64, 64
1, 125058, Control_c, 0, 64, 62
1, 125072, Control_c, 0, 64, 64
1, 125080, Note_off_c, 0, 55, 35
1, 125087, Control_c, 0, 64, 69
1, 125095, Note_off_c, 0, 80, 54
1, 125099, Note_on_c, 0, 76, 47
1, 125100, Note_on_c, 0, 79, 52
1, 125102, Control_c, 0, 64, 76
1, 125117, Control_c, 0, 64, 83
1, 125132, Control_c, 0, 64, 85
1, 125145, Note_off_c, 0, 79, 54
1, 125176, Control_c, 0, 67, 127
1, 125185, Note_on_c, 0, 67, 51
1, 125191, Control_c, 0, 67, 126
1, 125212, Note_off_c, 0, 67, 58
1, 125221, Control_c, 0, 67, 126
1, 125240, Note_off_c, 0, 76, 36
1, 125248, Note_on_c, 0, 80, 62
1, 125266, Control_c, 0, 67, 125
1, 125274, Note_off_c, 0, 80, 69
1, 125280, Control_c, 0, 64, 84
1, 125295, Control_c, 0, 64, 79
1, 125295, Control_c, 0, 67, 125
1, 125310, Control_c, 0, 64, 70
1, 125310, Control_c, 0, 67, 124
1, 125315, Note_on_c, 0, 67, 54
1, 125316, Note_off_c, 0, 64, 43
1, 125325, Control_c, 0, 64, 61
1, 125325, Control_c, 0, 67, 124
1, 125330, Note_on_c, 0, 79, 46
1, 125337, Note_on_c, 0, 76, 61
1, 125340, Control_c, 0, 64, 56
1, 125340, Control_c, 0, 67, 123
1, 125355, Control_c, 0, 64, 61
1, 125355, Control_c, 0, 67, 122
1, 125364, Note_off_c, 0, 76, 57
1, 125370, Control_c, 0, 64, 66
1, 125370, Control_c, 0, 67, 120
1, 125385, Control_c, 0, 64, 73
1, 125385, Control_c, 0, 67, 119
1, 125388, Note_off_c, 0, 79, 60
1, 125400, Note_on_c, 0, 80, 55
1, 125400, Control_c, 0, 64, 81
1, 125400, Control_c, 0, 67, 117
1, 125414, Control_c, 0, 64, 85
1, 125429, Control_c, 0, 64, 85
1, 125437, Note_off_c, 0, 80, 59
1, 125464, Note_on_c, 0, 79, 64
1, 125483, Note_off_c, 0, 79, 65
1, 125533, Control_c, 0, 64, 83
1, 125541, Note_on_c, 0, 79, 71
1, 125548, Control_c, 0, 64, 79
1, 125562, Control_c, 0, 64, 73
1, 125566, Note_off_c, 0, 79, 63
1, 125577, Control_c, 0, 64, 68
1, 125577, Control_c, 0, 67, 117
1, 125606, Control_c, 0, 64, 73
1, 125608, Note_off_c, 0, 67, 43
1, 125621, Control_c, 0, 64, 82
1, 125634, Note_on_c, 0, 76, 60
1, 125636, Control_c, 0, 64, 91
1, 125648, Note_on_c, 0, 92, 60
1, 125651, Control_c, 0, 64, 95
1, 125651, Control_c, 0, 67, 116
1, 125666, Control_c, 0, 64, 96
1, 125673, Note_off_c, 0, 76, 58
1, 125680, Control_c, 0, 64, 98
1, 125695, Control_c, 0, 64, 103
1, 125695, Control_c, 0, 67, 116
1, 125710, Note_on_c, 0, 87, 25
1, 125710, Control_c, 0, 64, 111
1, 125710, Control_c, 0, 67, 114
1, 125722, Note_on_c, 0, 91, 63
1, 125725, Control_c, 0, 64, 122
1, 125725, Control_c, 0, 67, 106
1, 125737, Note_on_c, 0, 88, 61
1, 125740, Control_c, 0, 64, 127
1, 125740, Control_c, 0, 67, 98
1, 125755, Note_off_c, 0, 92, 37
1, 125762, Control_c, 0, 67, 96
1, 125766, Note_off_c, 0, 91, 64
1, 125771, Note_off_c, 0, 88, 67
1, 125777, Control_c, 0, 67, 95
1, 125792, Control_c, 0, 67, 93
1, 125806, Control_c, 0, 67, 88
1, 125818, Note_off_c, 0, 87, 27
1, 125821, Control_c, 0, 67, 81
1, 125827, Note_on_c, 0, 79, 55
1, 125836, Control_c, 0, 67, 71
1, 125851, Control_c, 0, 67, 58
1, 125866, Control_c, 0, 67, 52
1, 125881, Control_c, 0, 67, 51
1, 125906, Note_off_c, 0, 79, 60
1, 125916, Note_on_c, 0, 80, 57
1, 125954, Control_c, 0, 67, 51
1, 125984, Control_c, 0, 67, 50
1, 125999, Control_c, 0, 67, 47
1, 126014, Control_c, 0, 67, 43
1, 126029, Control_c, 0, 64, 123
1, 126029, Control_c, 0, 67, 41
1, 126044, Control_c, 0, 64, 120
1, 126044, Control_c, 0, 67, 40
1, 126059, Note_off_c, 0, 80, 47
1, 126059, Control_c, 0, 64, 115
1, 126074, Control_c, 0, 64, 108
1, 126089, Control_c, 0, 64, 99
1, 126103, Control_c, 0, 64, 88
1, 126118, Control_c, 0, 64, 75
1, 126133, Control_c, 0, 64, 64
1, 126140, Note_on_c, 0, 86, 69
1, 126142, Note_on_c, 0, 74, 60
1, 126148, Control_c, 0, 64, 54
1, 126163, Control_c, 0, 64, 58
1, 126163, Control_c, 0, 67, 41
1, 126178, Control_c, 0, 64, 65
1, 126181, Note_on_c, 0, 79, 54
1, 126187, Note_off_c, 0, 74, 61
1, 126190, Note_off_c, 0, 86, 64
1, 126193, Control_c, 0, 64, 77
1, 126193, Control_c, 0, 67, 41
1, 126208, Control_c, 0, 64, 101
1, 126216, Note_off_c, 0, 79, 58
1, 126222, Control_c, 0, 64, 127
1, 126237, Control_c, 0, 67, 42
1, 126241, Poly_aftertouch_c, 0, 76, 127
1, 126267, Control_c, 0, 67, 43
1, 126270, Poly_aftertouch_c, 0, 76, 0
1, 126282, Control_c, 0, 67, 43
1, 126297, Control_c, 0, 67, 44
1, 126303, Note_on_c, 0, 80, 19
1, 126340, Note_off_c, 0, 80, 53
1, 126340, Control_c, 0, 67, 43
1, 126354, Control_c, 0, 67, 43
1, 126364, Note_on_c, 0, 79, 55
1, 126369, Control_c, 0, 67, 42
1, 126384, Control_c, 0, 67, 42
1, 126392, Note_off_c, 0, 79, 64
1, 126399, Control_c, 0, 67, 41
1, 126414, Control_c, 0, 67, 41
1, 126434, Note_on_c, 0, 79, 59
1, 126467, Note_off_c, 0, 79, 64
1, 126539, Note_on_c, 0, 92, 61
1, 126604, Note_off_c, 0, 92, 43
1, 126624, Note_on_c, 0, 91, 57
1, 126635, Note_on_c, 0, 88, 41
1, 126643, Note_off_c, 0, 91, 61
1, 126662, Note_off_c, 0, 88, 57
1, 126707, Note_on_c, 0, 79, 57
1, 126768, Note_off_c, 0, 79, 60
1, 126818, Note_on_c, 0, 80, 51
1, 126896, Note_on_c, 0, 82, 81
1, 126899, Note_on_c, 0, 70, 75
1, 126900, Note_off_c, 0, 80, 62
1, 126924, Note_off_c, 0, 70, 69
1, 126945, Note_off_c, 0, 82, 64
1, 126956, Note_on_c, 0, 76, 37
1, 126994, Note_off_c, 0, 76, 50
1, 127022, Note_on_c, 0, 80, 60
1, 127082, Note_off_c, 0, 80, 48
1, 127105, Note_on_c, 0, 79, 44
1, 127135, Note_off_c, 0, 79, 63
1, 127174, Note_on_c, 0, 79, 59
1, 127203, Note_off_c, 0, 79, 64
1, 127276, Note_on_c, 0, 92, 64
1, 127349, Note_off_c, 0, 92, 55
1, 127352, Note_on_c, 0, 88, 57
1, 127353, Note_on_c, 0, 91, 59
1, 127385, Note_off_c, 0, 91, 65
1, 127386, Note_off_c, 0, 88, 67
1, 127445, Note_on_c, 0, 79, 49
1, 127476, Note_off_c, 0, 79, 58
1, 127510, Note_on_c, 0, 80, 65
1, 127574, Note_off_c, 0, 80, 61
1, 127591, Note_on_c, 0, 79, 56
1, 127623, Note_on_c, 0, 76, 57
1, 127632, Note_off_c, 0, 79, 56
1, 127655, Note_off_c, 0, 76, 59
1, 127691, Note_on_c, 0, 80, 53
1, 127728, Note_off_c, 0, 80, 63
1, 127738, Note_on_c, 0, 79, 59
1, 127749, Control_c, 0, 67, 40
1, 127765, Note_off_c, 0, 79, 64
1, 127778, Control_c, 0, 67, 40
1, 127808, Control_c, 0, 67, 39
1, 127828, Note_on_c, 0, 79, 63
1, 127838, Control_c, 0, 67, 38
1, 127848, Note_off_c, 0, 79, 65
1, 127853, Control_c, 0, 67, 35
1, 127868, Control_c, 0, 67, 28
1, 127882, Control_c, 0, 67, 23
1, 127897, Control_c, 0, 67, 20
1, 127905, Note_on_c, 0, 67, 66
1, 127907, Note_on_c, 0, 79, 73
1, 127912, Control_c, 0, 67, 18
1, 127922, Note_on_c, 0, 92, 66
1, 127927, Control_c, 0, 67, 16
1, 127942, Control_c, 0, 67, 14
1, 127948, Note_off_c, 0, 67, 61
1, 127956, Control_c, 0, 67, 10
1, 127960, Note_off_c, 0, 79, 58
1, 127971, Control_c, 0, 67, 0
1, 128004, Note_on_c, 0, 88, 59
1, 128006, Note_on_c, 0, 91, 60
1, 128017, Note_off_c, 0, 92, 55
1, 128030, Note_off_c, 0, 91, 64
1, 128032, Note_off_c, 0, 88, 68
1, 128078, Note_on_c, 0, 79, 67
1, 128106, Note_off_c, 0, 79, 60
1, 128166, Note_on_c, 0, 80, 51
1, 128186, Note_off_c, 0, 80, 62
1, 128230, Control_c, 0, 64, 102
1, 128245, Control_c, 0, 64, 80
1, 128256, Note_on_c, 0, 82, 82
1, 128258, Note_on_c, 0, 70, 67
1, 128260, Control_c, 0, 64, 64
1, 128274, Control_c, 0, 64, 65
1, 128289, Control_c, 0, 64, 81
1, 128304, Control_c, 0, 64, 127
1, 128308, Note_off_c, 0, 70, 62
1, 128310, Note_off_c, 0, 82, 64
1, 128329, Note_on_c, 0, 76, 56
1, 128366, Note_off_c, 0, 76, 60
1, 128387, Note_on_c, 0, 78, 65
1, 128429, Note_off_c, 0, 78, 62
1, 128432, Note_on_c, 0, 82, 64
1, 128459, Note_on_c, 0, 85, 68
1, 128460, Note_off_c, 0, 82, 67
1, 128485, Note_off_c, 0, 85, 68
1, 128539, Note_on_c, 0, 88, 55
1, 128558, Note_off_c, 0, 88, 63
1, 128583, Note_on_c, 0, 90, 71
1, 128625, Note_on_c, 0, 94, 66
1, 128634, Note_off_c, 0, 90, 62
1, 128652, Note_off_c, 0, 94, 68
1, 128657, Note_on_c, 0, 72, 76
1, 128662, Note_on_c, 0, 84, 86
1, 128670, Note_on_c, 0, 97, 71
1, 128697, Note_off_c, 0, 72, 66
1, 128704, Note_off_c, 0, 84, 64
1, 128737, Note_on_c, 0, 94, 59
1, 128762, Note_off_c, 0, 97, 62
1, 128765, Note_on_c, 0, 90, 65
1, 128778, Note_off_c, 0, 94, 66
1, 128798, Note_off_c, 0, 90, 66
1, 128815, Note_on_c, 0, 88, 57
1, 128833, Note_off_c, 0, 88, 65
1, 128899, Note_on_c, 0, 85, 65
1, 128944, Note_on_c, 0, 82, 52
1, 128981, Note_off_c, 0, 85, 59
1, 128983, Note_on_c, 0, 78, 59
1, 128991, Note_off_c, 0, 82, 58
1, 129020, Note_off_c, 0, 78, 63
1, 129039, Note_on_c, 0, 76, 53
1, 129089, Note_off_c, 0, 76, 54
1, 129141, Control_c, 0, 64, 116
1, 129156, Control_c, 0, 64, 100
1, 129171, Control_c, 0, 64, 85
1, 129185, Control_c, 0, 64, 68
1, 129194, Note_on_c, 0, 74, 61
1, 129196, Note_on_c, 0, 86, 62
1, 129200, Control_c, 0, 64, 20
1, 129206, Note_on_c, 0, 79, 57
1, 129215, Control_c, 0, 64, 0
1, 129217, Note_on_c, 0, 76, 44
1, 129260, Control_c, 0, 64, 40
1, 129275, Control_c, 0, 64, 68
1, 129282, Note_off_c, 0, 86, 57
1, 129288, Note_off_c, 0, 74, 60
1, 129290, Control_c, 0, 64, 89
1, 129305, Control_c, 0, 64, 127
1, 129319, Note_off_c, 0, 79, 52
1, 129334, Control_c, 0, 67, 8
1, 129337, Note_on_c, 0, 80, 55
1, 129349, Control_c, 0, 67, 12
1, 129356, Note_off_c, 0, 76, 34
1, 129364, Control_c, 0, 67, 19
1, 129379, Control_c, 0, 67, 30
1, 129394, Control_c, 0, 67, 45
1, 129409, Control_c, 0, 67, 60
1, 129424, Control_c, 0, 67, 72
1, 129439, Control_c, 0, 67, 82
1, 129445, Note_on_c, 0, 79, 52
1, 129453, Control_c, 0, 67, 90
1, 129468, Control_c, 0, 67, 96
1, 129472, Note_off_c, 0, 80, 31
1, 129475, Note_off_c, 0, 79, 62
1, 129483, Control_c, 0, 67, 100
1, 129505, Control_c, 0, 67, 105
1, 129520, Control_c, 0, 67, 108
1, 129534, Control_c, 0, 67, 113
1, 129535, Note_on_c, 0, 79, 65
1, 129549, Control_c, 0, 67, 117
1, 129563, Note_off_c, 0, 79, 66
1, 129564, Control_c, 0, 67, 122
1, 129579, Control_c, 0, 67, 125
1, 129594, Control_c, 0, 67, 127
1, 129634, Note_on_c, 0, 92, 63
1, 129706, Note_on_c, 0, 88, 54
1, 129711, Note_on_c, 0, 91, 58
1, 129734, Note_off_c, 0, 92, 54
1, 129740, Note_off_c, 0, 88, 67
1, 129740, Note_off_c, 0, 91, 65
1, 129805, Note_on_c, 0, 79, 40
1, 129842, Note_off_c, 0, 79, 48
1, 129874, Note_on_c, 0, 80, 58
1, 129940, Note_off_c, 0, 80, 58
1, 129963, Note_on_c, 0, 82, 71
1, 129967, Note_on_c, 0, 70, 61
1, 129991, Note_on_c, 0, 76, 50
1, 129991, Note_on_c, 0, 79, 39
1, 129999, Note_off_c, 0, 70, 66
1, 130014, Note_off_c, 0, 82, 64
1, 130040, Note_off_c, 0, 76, 54
1, 130043, Note_off_c, 0, 79, 46
1, 130065, Note_on_c, 0, 80, 52
1, 130137, Note_off_c, 0, 80, 57
1, 130144, Note_on_c, 0, 79, 59
1, 130172, Note_off_c, 0, 79, 64
1, 130232, Note_on_c, 0, 79, 55
1, 130259, Note_off_c, 0, 79, 62
1, 130318, Note_on_c, 0, 92, 64
1, 130387, Note_on_c, 0, 88, 59
1, 130390, Note_on_c, 0, 91, 57
1, 130393, Note_off_c, 0, 92, 60
1, 130412, Note_off_c, 0, 91, 62
1, 130419, Note_off_c, 0, 88, 68
1, 130470, Note_on_c, 0, 79, 53
1, 130500, Note_off_c, 0, 79, 62
1, 130560, Note_on_c, 0, 80, 49
1, 130615, Note_off_c, 0, 80, 62
1, 130625, Control_c, 0, 67, 126
1, 130637, Note_on_c, 0, 79, 46
1, 130640, Control_c, 0, 67, 126
1, 130641, Note_on_c, 0, 76, 51
1, 130670, Control_c, 0, 67, 125
1, 130678, Note_off_c, 0, 79, 57
1, 130680, Note_off_c, 0, 76, 58
1, 130724, Note_on_c, 0, 80, 47
1, 130758, Control_c, 0, 67, 125
1, 130774, Note_on_c, 0, 79, 61
1, 130780, Note_off_c, 0, 80, 60
1, 130788, Control_c, 0, 67, 124
1, 130802, Note_off_c, 0, 79, 64
1, 130848, Control_c, 0, 67, 124
1, 130866, Note_on_c, 0, 79, 61
1, 130886, Note_off_c, 0, 79, 62
1, 130892, Control_c, 0, 67, 123
1, 130907, Control_c, 0, 67, 123
1, 130922, Control_c, 0, 67, 122
1, 130937, Control_c, 0, 67, 122
1, 130956, Note_on_c, 0, 92, 63
1, 130957, Note_on_c, 0, 79, 69
1, 130960, Note_on_c, 0, 67, 67
1, 130966, Control_c, 0, 67, 121
1, 131000, Note_off_c, 0, 67, 64
1, 131004, Control_c, 0, 67, 121
1, 131019, Control_c, 0, 67, 120
1, 131022, Note_off_c, 0, 79, 58
1, 131033, Control_c, 0, 67, 120
1, 131046, Note_on_c, 0, 91, 61
1, 131046, Note_off_c, 0, 92, 58
1, 131048, Control_c, 0, 67, 119
1, 131055, Note_on_c, 0, 88, 49
1, 131063, Control_c, 0, 67, 117
1, 131077, Note_off_c, 0, 91, 65
1, 131078, Control_c, 0, 67, 114
1, 131078, Note_off_c, 0, 88, 65
1, 131093, Control_c, 0, 67, 112
1, 131107, Control_c, 0, 67, 109
1, 131118, Note_on_c, 0, 79, 67
1, 131122, Control_c, 0, 67, 106
1, 131137, Control_c, 0, 67, 101
1, 131143, Note_off_c, 0, 79, 67
1, 131151, Control_c, 0, 67, 94
1, 131166, Control_c, 0, 67, 85
1, 131181, Control_c, 0, 67, 77
1, 131188, Note_on_c, 0, 80, 67
1, 131196, Control_c, 0, 67, 68
1, 131211, Control_c, 0, 67, 62
1, 131225, Control_c, 0, 67, 56
1, 131230, Note_off_c, 0, 80, 55
1, 131240, Control_c, 0, 67, 52
1, 131255, Control_c, 0, 67, 50
1, 131270, Control_c, 0, 64, 100
1, 131270, Control_c, 0, 67, 48
1, 131285, Control_c, 0, 64, 80
1, 131285, Control_c, 0, 67, 47
1, 131293, Note_on_c, 0, 82, 88
1, 131293, Note_on_c, 0, 70, 72
1, 131299, Control_c, 0, 64, 64
1, 131299, Control_c, 0, 67, 44
1, 131314, Control_c, 0, 64, 65
1, 131314, Control_c, 0, 67, 42
1, 131329, Control_c, 0, 64, 79
1, 131329, Control_c, 0, 67, 38
1, 131344, Control_c, 0, 64, 108
1, 131344, Control_c, 0, 67, 35
1, 131344, Note_off_c, 0, 82, 64
1, 131348, Note_off_c, 0, 70, 61
1, 131349, Note_on_c, 0, 76, 60
1, 131359, Control_c, 0, 64, 127
1, 131359, Control_c, 0, 67, 33
1, 131373, Control_c, 0, 67, 29
1, 131388, Control_c, 0, 67, 25
1, 131391, Note_off_c, 0, 76, 59
1, 131403, Control_c, 0, 67, 20
1, 131408, Note_on_c, 0, 78, 69
1, 131418, Control_c, 0, 67, 17
1, 131433, Control_c, 0, 67, 14
1, 131442, Note_off_c, 0, 78, 65
1, 131448, Control_c, 0, 67, 12
1, 131454, Note_on_c, 0, 82, 66
1, 131463, Control_c, 0, 67, 10
1, 131478, Control_c, 0, 67, 9
1, 131481, Note_off_c, 0, 82, 68
1, 131483, Note_on_c, 0, 85, 65
1, 131493, Control_c, 0, 67, 8
1, 131507, Note_off_c, 0, 85, 65
1, 131507, Control_c, 0, 67, 0
1, 131541, Note_on_c, 0, 88, 68
1, 131569, Note_off_c, 0, 88, 69
1, 131591, Note_on_c, 0, 90, 77
1, 131641, Note_on_c, 0, 94, 59
1, 131643, Note_off_c, 0, 90, 64
1, 131663, Note_off_c, 0, 94, 62
1, 131674, Note_on_c, 0, 97, 74
1, 131683, Note_on_c, 0, 72, 80
1, 131686, Note_on_c, 0, 84, 86
1, 131724, Note_on_c, 0, 94, 65
1, 131727, Note_off_c, 0, 72, 64
1, 131731, Note_off_c, 0, 84, 65
1, 131760, Note_on_c, 0, 90, 68
1, 131764, Note_off_c, 0, 97, 63
1, 131782, Note_off_c, 0, 94, 64
1, 131789, Note_off_c, 0, 90, 66
1, 131805, Note_on_c, 0, 88, 65
1, 131823, Note_off_c, 0, 88, 67
1, 131878, Note_on_c, 0, 85, 68
1, 131925, Note_on_c, 0, 82, 55
1, 131934, Note_off_c, 0, 85, 62
1, 131964, Note_on_c, 0, 78, 60
1, 131967, Note_off_c, 0, 82, 64
1, 131991, Note_off_c, 0, 78, 66
1, 131995, Note_on_c, 0, 76, 57
1, 132019, Control_c, 0, 64, 103
1, 132034, Control_c, 0, 64, 81
1, 132041, Note_off_c, 0, 76, 59
1, 132048, Control_c, 0, 64, 63
1, 132063, Control_c, 0, 64, 27
1, 132072, Note_on_c, 0, 86, 82
1, 132078, Control_c, 0, 64, 35
1, 132080, Note_on_c, 0, 74, 64
1, 132093, Control_c, 0, 64, 52
1, 132098, Note_on_c, 0, 79, 57
1, 132108, Control_c, 0, 64, 65
1, 132115, Note_on_c, 0, 75, 43
1, 132122, Control_c, 0, 64, 87
1, 132127, Note_on_c, 0, 76, 38
1, 132137, Control_c, 0, 64, 127
1, 132145, Note_off_c, 0, 75, 51
1, 132145, Note_off_c, 0, 86, 63
1, 132153, Note_off_c, 0, 74, 63
1, 132177, Note_off_c, 0, 76, 47
1, 132177, Note_off_c, 0, 79, 51
1, 132191, Note_on_c, 0, 80, 65
1, 132254, Note_off_c, 0, 80, 57
1, 132261, Note_on_c, 0, 79, 60
1, 132290, Note_off_c, 0, 79, 65
1, 132341, Note_on_c, 0, 79, 72
1, 132369, Note_off_c, 0, 79, 61
1, 132437, Note_on_c, 0, 72, 84
1, 132437, Note_on_c, 0, 84, 89
1, 132456, Note_on_c, 0, 92, 64
1, 132474, Note_off_c, 0, 72, 65
1, 132475, Note_off_c, 0, 84, 65
1, 132536, Note_on_c, 0, 91, 64
1, 132542, Note_on_c, 0, 88, 64
1, 132557, Note_off_c, 0, 92, 62
1, 132569, Note_off_c, 0, 91, 65
1, 132576, Note_off_c, 0, 88, 64
1, 132612, Note_on_c, 0, 79, 70
1, 132685, Note_off_c, 0, 79, 33
1, 132693, Note_on_c, 0, 80, 60
1, 132711, Note_off_c, 0, 80, 66
1, 132911, Note_on_c, 0, 91, 94
1, 132921, Note_on_c, 0, 79, 77
1, 132930, Control_c, 0, 64, 111
1, 132945, Control_c, 0, 64, 90
1, 132960, Control_c, 0, 64, 72
1, 132975, Control_c, 0, 64, 57
1, 132989, Control_c, 0, 64, 45
1, 133004, Control_c, 0, 64, 56
1, 133019, Control_c, 0, 64, 66
1, 133034, Control_c, 0, 64, 84
1, 133049, Control_c, 0, 64, 127
1, 133127, Note_off_c, 0, 91, 64
1, 133183, Note_on_c, 0, 86, 60
1, 133268, Note_on_c, 0, 90, 54
1, 133269, Note_off_c, 0, 86, 56
1, 133321, Note_on_c, 0, 94, 58
1, 133350, Note_off_c, 0, 90, 57
1, 133380, Note_off_c, 0, 79, 59
1, 133386, Note_off_c, 0, 94, 63
1, 133398, Note_on_c, 0, 88, 92
1, 133399, Note_on_c, 0, 87, 68
1, 133407, Note_on_c, 0, 76, 82
1, 133442, Control_c, 0, 64, 92
1, 133457, Control_c, 0, 64, 70
1, 133462, Note_off_c, 0, 87, 61
1, 133472, Control_c, 0, 64, 57
1, 133481, Note_on_c, 0, 91, 53
1, 133487, Control_c, 0, 64, 68
1, 133502, Control_c, 0, 64, 92
1, 133515, Note_on_c, 0, 95, 59
1, 133517, Control_c, 0, 64, 127
1, 133519, Note_off_c, 0, 91, 48
1, 133559, Note_off_c, 0, 95, 66
1, 133578, Note_on_c, 0, 89, 65
1, 133603, Note_off_c, 0, 89, 62
1, 133618, Note_on_c, 0, 90, 71
1, 133644, Note_off_c, 0, 90, 68
1, 133645, Note_off_c, 0, 76, 62
1, 133654, Note_off_c, 0, 88, 61
1, 133684, Note_on_c, 0, 91, 69
1, 133705, Note_off_c, 0, 91, 59
1, 133743, Note_on_c, 0, 94, 67
1, 133805, Note_off_c, 0, 94, 62
1, 133830, Note_on_c, 0, 98, 49
1, 133842, Control_c, 0, 64, 97
1, 133851, Note_off_c, 0, 98, 61
1, 133855, Note_on_c, 0, 86, 93
1, 133857, Control_c, 0, 64, 70
1, 133859, Note_on_c, 0, 74, 80
1, 133862, Note_on_c, 0, 103, 75
1, 133872, Control_c, 0, 64, 50
1, 133886, Control_c, 0, 64, 56
1, 133901, Control_c, 0, 64, 71
1, 133916, Control_c, 0, 64, 113
1, 133931, Note_on_c, 0, 98, 75
1, 133931, Control_c, 0, 64, 127
1, 133936, Note_off_c, 0, 103, 62
1, 133961, Note_off_c, 0, 86, 67
1, 133977, Note_off_c, 0, 74, 59
1, 133980, Note_off_c, 0, 98, 62
1, 133982, Note_on_c, 0, 94, 48
1, 134014, Note_off_c, 0, 94, 60
1, 134026, Note_on_c, 0, 91, 62
1, 134043, Note_off_c, 0, 91, 64
1, 134129, Note_on_c, 0, 90, 57
1, 134162, Note_on_c, 0, 85, 60
1, 134166, Note_off_c, 0, 90, 63
1, 134218, Note_on_c, 0, 82, 45
1, 134221, Note_off_c, 0, 85, 47
1, 134249, Note_off_c, 0, 82, 65
1, 134256, Note_on_c, 0, 78, 58
1, 134325, Note_off_c, 0, 78, 59
1, 134339, Note_on_c, 0, 82, 56
1, 134355, Note_on_c, 0, 85, 51
1, 134398, Note_off_c, 0, 82, 61
1, 134406, Note_off_c, 0, 85, 58
1, 134432, Note_on_c, 0, 79, 48
1, 134461, Note_off_c, 0, 79, 55
1, 134482, Note_on_c, 0, 82, 47
1, 134513, Note_on_c, 0, 86, 62
1, 134527, Note_off_c, 0, 82, 65
1, 134548, Note_off_c, 0, 86, 62
1, 134635, Control_c, 0, 64, 93
1, 134642, Note_on_c, 0, 72, 65
1, 134642, Note_on_c, 0, 84, 66
1, 134650, Control_c, 0, 64, 73
1, 134665, Control_c, 0, 64, 59
1, 134680, Control_c, 0, 64, 59
1, 134694, Control_c, 0, 64, 69
1, 134695, Note_off_c, 0, 84, 65
1, 134709, Control_c, 0, 64, 85
1, 134724, Control_c, 0, 64, 127
1, 134752, Note_off_c, 0, 72, 66
1, 134795, Note_on_c, 0, 82, 58
1, 134857, Note_on_c, 0, 79, 47
1, 134864, Note_off_c, 0, 82, 60
1, 134896, Control_c, 0, 67, 8
1, 134897, Note_on_c, 0, 76, 41
1, 134902, Note_off_c, 0, 79, 60
1, 134911, Control_c, 0, 67, 10
1, 134926, Control_c, 0, 67, 13
1, 134930, Note_off_c, 0, 76, 55
1, 134940, Control_c, 0, 67, 14
1, 134951, Note_on_c, 0, 74, 51
1, 134955, Control_c, 0, 67, 15
1, 134970, Control_c, 0, 67, 16
1, 134983, Note_off_c, 0, 74, 49
1, 134985, Control_c, 0, 67, 19
1, 134999, Control_c, 0, 67, 23
1, 135014, Control_c, 0, 67, 29
1, 135029, Note_on_c, 0, 70, 52
1, 135029, Control_c, 0, 67, 32
1, 135044, Control_c, 0, 67, 34
1, 135059, Control_c, 0, 67, 36
1, 135065, Note_off_c, 0, 70, 63
1, 135073, Control_c, 0, 67, 40
1, 135088, Control_c, 0, 67, 46
1, 135103, Control_c, 0, 67, 49
1, 135117, Control_c, 0, 67, 52
1, 135132, Control_c, 0, 67, 55
1, 135147, Control_c, 0, 67, 61
1, 135150, Note_on_c, 0, 67, 46
1, 135153, Note_on_c, 0, 79, 57
1, 135162, Control_c, 0, 64, 108
1, 135162, Control_c, 0, 67, 68
1, 135177, Control_c, 0, 64, 89
1, 135177, Control_c, 0, 67, 75
1, 135192, Control_c, 0, 64, 71
1, 135192, Control_c, 0, 67, 81
1, 135207, Control_c, 0, 64, 57
1, 135207, Control_c, 0, 67, 85
1, 135222, Control_c, 0, 64, 55
1, 135222, Control_c, 0, 67, 89
1, 135233, Note_off_c, 0, 79, 57
1, 135237, Control_c, 0, 64, 65
1, 135237, Control_c, 0, 67, 92
1, 135252, Control_c, 0, 64, 76
1, 135252, Control_c, 0, 67, 94
1, 135266, Control_c, 0, 64, 96
1, 135266, Control_c, 0, 67, 95
1, 135278, Note_off_c, 0, 67, 46
1, 135280, Note_on_c, 0, 76, 51
1, 135281, Control_c, 0, 64, 127
1, 135296, Control_c, 0, 67, 96
1, 135383, Note_on_c, 0, 74, 37
1, 135424, Note_on_c, 0, 70, 52
1, 135460, Note_off_c, 0, 74, 49
1, 135460, Note_off_c, 0, 76, 37
1, 135496, Note_off_c, 0, 70, 62
1, 135527, Note_on_c, 0, 64, 34
1, 135585, Note_off_c, 0, 64, 44
1, 135659, Note_on_c, 0, 62, 22
1, 135705, Note_off_c, 0, 62, 49
1, 135793, Control_c, 0, 64, 110
1, 135793, Control_c, 0, 67, 96
1, 135808, Control_c, 0, 64, 93
1, 135808, Control_c, 0, 67, 97
1, 135810, Note_on_c, 0, 33, 45
1, 135822, Control_c, 0, 64, 77
1, 135837, Control_c, 0, 64, 61
1, 135852, Control_c, 0, 64, 0
1, 135907, Note_off_c, 0, 33, 55
1, 135911, Control_c, 0, 67, 96
1, 135924, Note_on_c, 0, 45, 44
1, 135926, Control_c, 0, 67, 96
1, 135940, Control_c, 0, 64, 52
1, 135940, Control_c, 0, 67, 95
1, 135955, Control_c, 0, 64, 66
1, 135955, Control_c, 0, 67, 94
1, 135970, Control_c, 0, 64, 73
1, 135970, Control_c, 0, 67, 93
1, 135985, Control_c, 0, 64, 80
1, 135985, Control_c, 0, 67, 92
1, 136000, Control_c, 0, 64, 87
1, 136000, Control_c, 0, 67, 91
1, 136015, Control_c, 0, 64, 94
1, 136015, Control_c, 0, 67, 91
1, 136024, Note_off_c, 0, 45, 57
1, 136030, Control_c, 0, 64, 99
1, 136030, Control_c, 0, 67, 90
1, 136044, Control_c, 0, 64, 108
1, 136060, Control_c, 0, 64, 127
1, 136060, Control_c, 0, 67, 89
1, 136089, Control_c, 0, 67, 89
1, 136104, Control_c, 0, 67, 88
1, 136119, Control_c, 0, 67, 88
1, 136136, Note_on_c, 0, 61, 46
1, 136140, Note_on_c, 0, 52, 25
1, 136149, Control_c, 0, 67, 87
1, 136153, Note_on_c, 0, 64, 40
1, 136179, Control_c, 0, 67, 87
1, 136208, Control_c, 0, 67, 85
1, 136223, Control_c, 0, 67, 83
1, 136245, Control_c, 0, 67, 79
1, 136260, Control_c, 0, 67, 73
1, 136275, Control_c, 0, 67, 67
1, 136289, Note_off_c, 0, 61, 34
1, 136290, Control_c, 0, 67, 63
1, 136304, Control_c, 0, 67, 60
1, 136309, Note_on_c, 0, 65, 47
1, 136310, Note_off_c, 0, 64, 40
1, 136319, Control_c, 0, 67, 55
1, 136334, Control_c, 0, 67, 50
1, 136349, Control_c, 0, 67, 44
1, 136360, Note_off_c, 0, 65, 57
1, 136363, Control_c, 0, 67, 36
1, 136378, Control_c, 0, 67, 28
1, 136393, Control_c, 0, 67, 20
1, 136402, Note_on_c, 0, 64, 29
1, 136408, Control_c, 0, 67, 10
1, 136424, Control_c, 0, 67, 0
1, 136460, Note_off_c, 0, 64, 0
1, 136460, Note_on_c, 0, 64, 40
1, 136568, Note_on_c, 0, 53, 61
1, 136581, Note_on_c, 0, 76, 55
1, 136583, Note_off_c, 0, 64, 34
1, 136604, Note_on_c, 0, 73, 43
1, 136625, Note_off_c, 0, 76, 50
1, 136636, Note_off_c, 0, 73, 53
1, 136663, Note_off_c, 0, 52, 40
1, 136674, Note_on_c, 0, 64, 41
1, 136706, Note_off_c, 0, 64, 52
1, 136751, Note_on_c, 0, 64, 48
1, 136850, Note_on_c, 0, 65, 48
1, 136858, Note_off_c, 0, 64, 35
1, 136957, Note_on_c, 0, 55, 76
1, 136967, Note_off_c, 0, 65, 59
1, 136971, Control_c, 0, 64, 110
1, 136975, Note_on_c, 0, 61, 54
1, 136993, Control_c, 0, 64, 98
1, 136999, Note_on_c, 0, 64, 51
1, 137008, Control_c, 0, 64, 84
1, 137023, Control_c, 0, 64, 69
1, 137038, Control_c, 0, 64, 52
1, 137052, Control_c, 0, 64, 25
1, 137067, Control_c, 0, 64, 34
1, 137077, Note_off_c, 0, 64, 61
1, 137078, Note_off_c, 0, 61, 49
1, 137082, Control_c, 0, 64, 47
1, 137097, Control_c, 0, 64, 62
1, 137102, Note_on_c, 0, 65, 52
1, 137112, Control_c, 0, 64, 71
1, 137127, Control_c, 0, 64, 89
1, 137133, Note_off_c, 0, 53, 35
1, 137141, Control_c, 0, 64, 127
1, 137157, Note_off_c, 0, 65, 55
1, 137172, Note_on_c, 0, 64, 56
1, 137207, Note_off_c, 0, 64, 64
1, 137254, Note_on_c, 0, 64, 58
1, 137326, Note_off_c, 0, 64, 52
1, 137352, Note_on_c, 0, 76, 64
1, 137361, Note_on_c, 0, 73, 57
1, 137389, Note_off_c, 0, 76, 55
1, 137392, Note_off_c, 0, 73, 62
1, 137423, Note_on_c, 0, 64, 60
1, 137451, Note_off_c, 0, 64, 65
1, 137503, Note_on_c, 0, 64, 67
1, 137550, Note_off_c, 0, 64, 53
1, 137583, Note_on_c, 0, 65, 58
1, 137653, Note_off_c, 0, 65, 59
1, 137663, Note_on_c, 0, 61, 59
1, 137678, Note_on_c, 0, 64, 55
1, 137726, Note_off_c, 0, 61, 61
1, 137726, Note_off_c, 0, 64, 60
1, 137750, Note_on_c, 0, 65, 66
1, 137795, Note_off_c, 0, 65, 57
1, 137820, Note_on_c, 0, 64, 76
1, 137842, Note_off_c, 0, 64, 70
1, 137899, Note_on_c, 0, 64, 75
1, 137989, Note_on_c, 0, 57, 95
1, 137991, Note_off_c, 0, 64, 50
1, 138008, Note_on_c, 0, 76, 73
1, 138017, Note_on_c, 0, 73, 69
1, 138027, Note_off_c, 0, 55, 60
1, 138071, Note_off_c, 0, 76, 61
1, 138078, Note_off_c, 0, 73, 60
1, 138095, Note_on_c, 0, 64, 73
1, 138095, Note_off_c, 0, 57, 60
1, 138119, Note_off_c, 0, 64, 68
1, 138185, Note_on_c, 0, 64, 67
1, 138232, Note_on_c, 0, 45, 52
1, 138290, Note_on_c, 0, 49, 55
1, 138304, Note_off_c, 0, 45, 57
1, 138304, Note_on_c, 0, 65, 62
1, 138306, Note_off_c, 0, 64, 52
1, 138319, Note_on_c, 0, 51, 52
1, 138325, Note_on_c, 0, 55, 63
1, 138334, Control_c, 0, 64, 117
1, 138349, Control_c, 0, 64, 111
1, 138364, Control_c, 0, 64, 106
1, 138379, Control_c, 0, 64, 100
1, 138394, Control_c, 0, 64, 95
1, 138408, Control_c, 0, 64, 90
1, 138423, Control_c, 0, 64, 81
1, 138424, Note_on_c, 0, 60, 84
1, 138438, Control_c, 0, 64, 72
1, 138453, Control_c, 0, 64, 61
1, 138468, Control_c, 0, 64, 34
1, 138490, Control_c, 0, 64, 21
1, 138501, Note_on_c, 0, 72, 74
1, 138534, Control_c, 0, 64, 30
1, 138549, Control_c, 0, 64, 49
1, 138564, Control_c, 0, 64, 63
1, 138579, Control_c, 0, 64, 71
1, 138594, Control_c, 0, 64, 82
1, 138609, Control_c, 0, 64, 91
1, 138614, Note_off_c, 0, 72, 56
1, 138623, Control_c, 0, 64, 96
1, 138638, Control_c, 0, 64, 101
1, 138653, Control_c, 0, 64, 111
1, 138656, Note_off_c, 0, 65, 44
1, 138663, Note_on_c, 0, 61, 64
1, 138668, Control_c, 0, 64, 127
1, 138674, Note_off_c, 0, 55, 60
1, 138703, Note_off_c, 0, 61, 57
1, 138704, Note_off_c, 0, 49, 61
1, 138712, Note_off_c, 0, 51, 62
1, 138736, Note_on_c, 0, 63, 58
1, 138782, Note_off_c, 0, 63, 56
1, 138790, Note_on_c, 0, 65, 52
1, 138832, Control_c, 0, 64, 108
1, 138847, Control_c, 0, 64, 91
1, 138850, Note_on_c, 0, 67, 57
1, 138850, Note_off_c, 0, 65, 55
1, 138861, Control_c, 0, 64, 75
1, 138876, Control_c, 0, 64, 62
1, 138889, Note_off_c, 0, 67, 63
1, 138891, Control_c, 0, 64, 50
1, 138906, Note_on_c, 0, 70, 61
1, 138906, Control_c, 0, 64, 55
1, 138908, Note_on_c, 0, 58, 55
1, 138908, Note_off_c, 0, 60, 56
1, 138921, Control_c, 0, 64, 63
1, 138936, Control_c, 0, 64, 71
1, 138951, Control_c, 0, 64, 83
1, 138965, Control_c, 0, 64, 100
1, 138971, Note_off_c, 0, 58, 62
1, 138976, Note_on_c, 0, 67, 54
1, 138980, Control_c, 0, 64, 127
1, 139002, Note_on_c, 0, 65, 48
1, 139007, Note_off_c, 0, 70, 51
1, 139018, Note_off_c, 0, 67, 58
1, 139050, Note_on_c, 0, 63, 49
1, 139050, Note_off_c, 0, 65, 57
1, 139081, Note_off_c, 0, 63, 63
1, 139100, Note_on_c, 0, 61, 38
1, 139131, Note_off_c, 0, 61, 55
1, 139171, Note_on_c, 0, 55, 58
1, 139186, Control_c, 0, 64, 120
1, 139195, Note_off_c, 0, 55, 60
1, 139201, Control_c, 0, 64, 101
1, 139216, Control_c, 0, 64, 86
1, 139238, Control_c, 0, 64, 72
1, 139252, Note_on_c, 0, 33, 47
1, 139253, Control_c, 0, 64, 57
1, 139268, Control_c, 0, 64, 26
1, 139282, Control_c, 0, 64, 18
1, 139297, Control_c, 0, 64, 9
1, 139312, Control_c, 0, 64, 0
1, 139327, Control_c, 0, 64, 14
1, 139340, Note_off_c, 0, 33, 60
1, 139342, Control_c, 0, 64, 42
1, 139356, Control_c, 0, 64, 61
1, 139360, Note_on_c, 0, 45, 57
1, 139371, Control_c, 0, 64, 70
1, 139386, Control_c, 0, 64, 83
1, 139401, Control_c, 0, 64, 96
1, 139407, Note_off_c, 0, 45, 64
1, 139416, Control_c, 0, 64, 108
1, 139431, Control_c, 0, 64, 127
1, 139497, Note_on_c, 0, 64, 52
1, 139517, Note_on_c, 0, 52, 53
1, 139529, Note_on_c, 0, 61, 37
1, 139574, Note_off_c, 0, 61, 47
1, 139583, Note_off_c, 0, 64, 58
1, 139624, Note_on_c, 0, 65, 42
1, 139671, Note_off_c, 0, 65, 45
1, 139686, Note_on_c, 0, 64, 62
1, 139714, Note_off_c, 0, 64, 66
1, 139777, Note_on_c, 0, 64, 60
1, 139812, Note_off_c, 0, 64, 60
1, 139860, Note_on_c, 0, 77, 65
1, 139877, Control_c, 0, 64, 108
1, 139879, Note_on_c, 0, 61, 56
1, 139892, Control_c, 0, 64, 94
1, 139906, Control_c, 0, 64, 88
1, 139908, Note_off_c, 0, 77, 59
1, 139911, Note_off_c, 0, 52, 58
1, 139921, Control_c, 0, 64, 90
1, 139936, Control_c, 0, 64, 100
1, 139942, Note_on_c, 0, 76, 57
1, 139946, Note_on_c, 0, 73, 54
1, 139951, Control_c, 0, 64, 127
1, 140011, Note_off_c, 0, 76, 54
1, 140032, Note_on_c, 0, 64, 58
1, 140051, Note_off_c, 0, 73, 58
1, 140051, Note_off_c, 0, 64, 64
1, 140103, Note_on_c, 0, 77, 64
1, 140173, Note_off_c, 0, 77, 63
1, 140188, Note_on_c, 0, 64, 44
1, 140195, Control_c, 0, 64, 116
1, 140207, Note_on_c, 0, 76, 56
1, 140210, Control_c, 0, 64, 95
1, 140211, Note_on_c, 0, 73, 54
1, 140225, Note_off_c, 0, 61, 43
1, 140225, Control_c, 0, 64, 80
1, 140240, Control_c, 0, 64, 69
1, 140249, Note_off_c, 0, 73, 59
1, 140254, Control_c, 0, 64, 67
1, 140259, Note_off_c, 0, 76, 56
1, 140269, Control_c, 0, 64, 73
1, 140284, Control_c, 0, 64, 87
1, 140299, Control_c, 0, 64, 110
1, 140304, Note_on_c, 0, 77, 54
1, 140313, Control_c, 0, 64, 127
1, 140341, Note_off_c, 0, 77, 63
1, 140363, Note_on_c, 0, 76, 65
1, 140393, Note_off_c, 0, 76, 63
1, 140450, Note_on_c, 0, 76, 67
1, 140480, Note_off_c, 0, 76, 61
1, 140507, Control_c, 0, 64, 122
1, 140522, Control_c, 0, 64, 97
1, 140537, Control_c, 0, 64, 82
1, 140537, Note_on_c, 0, 89, 66
1, 140544, Note_on_c, 0, 69, 51
1, 140552, Control_c, 0, 64, 72
1, 140567, Control_c, 0, 64, 70
1, 140578, Note_off_c, 0, 64, 44
1, 140581, Control_c, 0, 64, 75
1, 140596, Control_c, 0, 64, 85
1, 140608, Note_off_c, 0, 89, 59
1, 140611, Control_c, 0, 64, 107
1, 140626, Control_c, 0, 64, 127
1, 140634, Note_on_c, 0, 88, 54
1, 140637, Note_on_c, 0, 85, 53
1, 140671, Note_off_c, 0, 88, 66
1, 140677, Note_off_c, 0, 85, 63
1, 140718, Note_on_c, 0, 76, 58
1, 140766, Note_off_c, 0, 76, 55
1, 140830, Note_on_c, 0, 77, 52
1, 140880, Note_off_c, 0, 77, 58
1, 140885, Control_c, 0, 64, 105
1, 140900, Control_c, 0, 64, 86
1, 140915, Control_c, 0, 64, 73
1, 140918, Note_on_c, 0, 73, 48
1, 140924, Note_off_c, 0, 69, 47
1, 140930, Note_on_c, 0, 76, 42
1, 140930, Control_c, 0, 64, 63
1, 140944, Control_c, 0, 64, 62
1, 140959, Control_c, 0, 64, 69
1, 140974, Control_c, 0, 64, 82
1, 140987, Note_off_c, 0, 76, 48
1, 140989, Control_c, 0, 64, 108
1, 141002, Note_on_c, 0, 77, 47
1, 141004, Control_c, 0, 64, 127
1, 141073, Note_off_c, 0, 77, 63
1, 141088, Note_on_c, 0, 76, 68
1, 141116, Note_off_c, 0, 76, 65
1, 141173, Note_on_c, 0, 76, 67
1, 141214, Note_off_c, 0, 76, 53
1, 141299, Note_on_c, 0, 89, 59
1, 141306, Note_on_c, 0, 76, 51
1, 141342, Note_off_c, 0, 76, 59
1, 141369, Note_off_c, 0, 73, 52
1, 141398, Note_on_c, 0, 85, 51
1, 141405, Note_off_c, 0, 89, 52
1, 141407, Note_on_c, 0, 88, 49
1, 141453, Note_off_c, 0, 88, 62
1, 141487, Note_off_c, 0, 85, 62
1, 141538, Note_on_c, 0, 77, 48
1, 141631, Note_off_c, 0, 77, 55
1, 141649, Note_on_c, 0, 73, 48
1, 141782, Control_c, 0, 64, 119
1, 141797, Control_c, 0, 64, 112
1, 141812, Control_c, 0, 64, 108
1, 141827, Control_c, 0, 64, 106
1, 141841, Control_c, 0, 64, 103
1, 141856, Control_c, 0, 64, 99
1, 141871, Control_c, 0, 64, 97
1, 141885, Control_c, 0, 64, 94
1, 141897, Note_on_c, 0, 57, 45
1, 141900, Control_c, 0, 64, 91
1, 141915, Control_c, 0, 64, 87
1, 141930, Control_c, 0, 64, 82
1, 141945, Control_c, 0, 64, 77
1, 141959, Control_c, 0, 64, 72
1, 141974, Control_c, 0, 64, 67
1, 141989, Control_c, 0, 64, 62
1, 142005, Control_c, 0, 64, 57
1, 142018, Note_on_c, 0, 81, 74
1, 142020, Control_c, 0, 64, 55
1, 142035, Control_c, 0, 64, 52
1, 142049, Control_c, 0, 64, 52
1, 142064, Control_c, 0, 64, 52
1, 142079, Control_c, 0, 64, 56
1, 142094, Control_c, 0, 64, 62
1, 142108, Control_c, 0, 64, 69
1, 142123, Control_c, 0, 64, 83
1, 142138, Control_c, 0, 64, 114
1, 142139, Note_off_c, 0, 73, 36
1, 142153, Control_c, 0, 64, 127
1, 142228, Note_on_c, 0, 61, 35
1, 142232, Note_on_c, 0, 69, 35
1, 142266, Note_off_c, 0, 81, 62
1, 142298, Note_off_c, 0, 57, 44
1, 142321, Note_on_c, 0, 73, 45
1, 142367, Note_off_c, 0, 69, 36
1, 142370, Note_on_c, 0, 67, 52
1, 142389, Note_off_c, 0, 61, 44
1, 142398, Note_off_c, 0, 67, 65
1, 142401, Note_off_c, 0, 73, 63
1, 142414, Note_on_c, 0, 81, 50
1, 142468, Note_off_c, 0, 81, 57
1, 142531, Note_on_c, 0, 79, 63
1, 142617, Note_on_c, 0, 81, 61
1, 142628, Note_off_c, 0, 79, 60
1, 142634, Note_on_c, 0, 70, 37
1, 142639, Note_off_c, 0, 81, 60
1, 142709, Note_on_c, 0, 73, 53
1, 142710, Note_on_c, 0, 81, 56
1, 142746, Note_on_c, 0, 82, 69
1, 142755, Note_off_c, 0, 73, 60
1, 142770, Note_on_c, 0, 93, 78
1, 142771, Note_off_c, 0, 82, 68
1, 142775, Note_off_c, 0, 81, 36
1, 142783, Note_off_c, 0, 70, 55
1, 142792, Note_off_c, 0, 93, 69
1, 142904, Note_on_c, 0, 57, 69
1, 142918, Control_c, 0, 64, 105
1, 142921, Note_on_c, 0, 77, 82
1, 142932, Control_c, 0, 64, 84
1, 142947, Control_c, 0, 64, 66
1, 142962, Control_c, 0, 64, 44
1, 142984, Control_c, 0, 64, 45
1, 142999, Control_c, 0, 64, 54
1, 143014, Control_c, 0, 64, 65
1, 143029, Control_c, 0, 64, 82
1, 143044, Control_c, 0, 64, 127
1, 143057, Note_on_c, 0, 69, 51
1, 143062, Note_on_c, 0, 61, 43
1, 143067, Note_off_c, 0, 57, 52
1, 143112, Note_off_c, 0, 69, 55
1, 143120, Note_on_c, 0, 73, 55
1, 143151, Note_off_c, 0, 61, 60
1, 143154, Note_on_c, 0, 67, 51
1, 143178, Note_off_c, 0, 67, 59
1, 143180, Note_off_c, 0, 73, 63
1, 143193, Note_on_c, 0, 81, 63
1, 143217, Note_off_c, 0, 77, 63
1, 143228, Note_off_c, 0, 81, 62
1, 143286, Note_on_c, 0, 76, 82
1, 143377, Note_on_c, 0, 81, 62
1, 143398, Note_off_c, 0, 81, 60
1, 143432, Note_on_c, 0, 70, 28
1, 143439, Note_off_c, 0, 76, 52
1, 143466, Note_on_c, 0, 73, 54
1, 143466, Note_on_c, 0, 81, 66
1, 143538, Note_on_c, 0, 82, 57
1, 143549, Note_off_c, 0, 73, 63
1, 143554, Note_off_c, 0, 81, 60
1, 143557, Note_off_c, 0, 82, 64
1, 143559, Note_on_c, 0, 93, 61
1, 143559, Note_off_c, 0, 70, 54
1, 143586, Note_off_c, 0, 93, 63
1, 143745, Note_on_c, 0, 57, 51
1, 143777, Control_c, 0, 64, 118
1, 143792, Control_c, 0, 64, 97
1, 143795, Note_on_c, 0, 81, 76
1, 143807, Control_c, 0, 64, 80
1, 143822, Control_c, 0, 64, 64
1, 143836, Control_c, 0, 64, 43
1, 143851, Control_c, 0, 64, 39
1, 143880, Control_c, 0, 64, 39
1, 143895, Control_c, 0, 64, 50
1, 143910, Control_c, 0, 64, 66
1, 143925, Control_c, 0, 64, 86
1, 143940, Control_c, 0, 64, 127
1, 143941, Note_on_c, 0, 69, 51
1, 143981, Note_on_c, 0, 62, 40
1, 143988, Note_off_c, 0, 57, 37
1, 144019, Note_off_c, 0, 81, 63
1, 144026, Note_off_c, 0, 69, 59
1, 144041, Note_on_c, 0, 74, 35
1, 144042, Note_off_c, 0, 62, 59
1, 144071, Note_on_c, 0, 71, 46
1, 144101, Note_off_c, 0, 71, 64
1, 144107, Note_off_c, 0, 74, 63
1, 144117, Note_on_c, 0, 81, 59
1, 144149, Note_off_c, 0, 81, 67
1, 144197, Note_on_c, 0, 77, 59
1, 144298, Note_on_c, 0, 71, 49
1, 144308, Note_on_c, 0, 81, 43
1, 144352, Note_off_c, 0, 81, 0
1, 144364, Note_on_c, 0, 81, 53
1, 144409, Note_on_c, 0, 83, 56
1, 144429, Note_off_c, 0, 77, 20
1, 144437, Note_off_c, 0, 81, 57
1, 144437, Note_off_c, 0, 83, 66
1, 144454, Note_on_c, 0, 93, 71
1, 144454, Note_off_c, 0, 71, 65
1, 144491, Note_off_c, 0, 93, 66
1, 144638, Note_on_c, 0, 57, 52
1, 144644, Control_c, 0, 64, 108
1, 144659, Control_c, 0, 64, 98
1, 144674, Control_c, 0, 64, 87
1, 144680, Note_on_c, 0, 79, 70
1, 144689, Control_c, 0, 64, 72
1, 144703, Control_c, 0, 64, 49
1, 144718, Control_c, 0, 64, 0
1, 144763, Control_c, 0, 64, 33
1, 144777, Control_c, 0, 64, 59
1, 144792, Control_c, 0, 64, 73
1, 144807, Control_c, 0, 64, 106
1, 144822, Control_c, 0, 64, 127
1, 144844, Note_on_c, 0, 69, 54
1, 144852, Note_off_c, 0, 57, 37
1, 144864, Note_on_c, 0, 62, 33
1, 144918, Note_on_c, 0, 74, 55
1, 144922, Note_off_c, 0, 69, 61
1, 144945, Note_off_c, 0, 62, 50
1, 144975, Note_on_c, 0, 71, 49
1, 144987, Note_off_c, 0, 74, 60
1, 145002, Note_on_c, 0, 81, 62
1, 145006, Note_off_c, 0, 71, 66
1, 145037, Note_off_c, 0, 79, 60
1, 145068, Note_off_c, 0, 81, 66
1, 145099, Note_on_c, 0, 74, 69
1, 145197, Note_on_c, 0, 81, 65
1, 145214, Note_on_c, 0, 71, 39
1, 145216, Note_off_c, 0, 74, 57
1, 145236, Note_off_c, 0, 81, 65
1, 145313, Note_on_c, 0, 81, 51
1, 145355, Note_on_c, 0, 83, 52
1, 145378, Note_off_c, 0, 83, 58
1, 145388, Note_off_c, 0, 81, 36
1, 145401, Note_on_c, 0, 93, 60
1, 145422, Note_off_c, 0, 71, 61
1, 145437, Note_off_c, 0, 93, 62
1, 145644, Note_on_c, 0, 57, 49
1, 145659, Control_c, 0, 64, 116
1, 145674, Control_c, 0, 64, 101
1, 145689, Control_c, 0, 64, 85
1, 145704, Control_c, 0, 64, 70
1, 145718, Control_c, 0, 64, 51
1, 145721, Note_on_c, 0, 74, 47
1, 145733, Control_c, 0, 64, 12
1, 145748, Control_c, 0, 64, 16
1, 145763, Control_c, 0, 64, 17
1, 145778, Control_c, 0, 64, 32
1, 145793, Control_c, 0, 64, 56
1, 145808, Control_c, 0, 64, 70
1, 145823, Control_c, 0, 64, 88
1, 145838, Control_c, 0, 64, 127
1, 145845, Note_on_c, 0, 69, 40
1, 145893, Note_on_c, 0, 63, 37
1, 145913, Note_off_c, 0, 57, 32
1, 145924, Note_off_c, 0, 69, 60
1, 145931, Note_on_c, 0, 79, 52
1, 145933, Note_off_c, 0, 74, 36
1, 145955, Note_off_c, 0, 63, 56
1, 145989, Note_on_c, 0, 67, 29
1, 146025, Note_off_c, 0, 67, 52
1, 146038, Note_on_c, 0, 81, 35
1, 146039, Note_off_c, 0, 79, 56
1, 146065, Note_off_c, 0, 81, 58
1, 146104, Note_on_c, 0, 69, 58
1, 146179, Note_on_c, 0, 81, 48
1, 146216, Note_off_c, 0, 81, 66
1, 146268, Note_on_c, 0, 75, 49
1, 146270, Note_on_c, 0, 81, 51
1, 146311, Note_on_c, 0, 79, 51
1, 146313, Note_off_c, 0, 75, 61
1, 146314, Note_off_c, 0, 81, 63
1, 146317, Note_off_c, 0, 69, 63
1, 146334, Note_off_c, 0, 79, 58
1, 146349, Note_on_c, 0, 93, 61
1, 146367, Note_off_c, 0, 93, 63
1, 146454, Note_on_c, 0, 57, 65
1, 146454, Control_c, 0, 64, 107
1, 146469, Control_c, 0, 64, 87
1, 146483, Control_c, 0, 64, 72
1, 146498, Control_c, 0, 64, 67
1, 146513, Control_c, 0, 64, 77
1, 146528, Control_c, 0, 64, 102
1, 146542, Control_c, 0, 64, 127
1, 146552, Note_on_c, 0, 69, 62
1, 146588, Note_on_c, 0, 63, 52
1, 146617, Note_off_c, 0, 69, 59
1, 146624, Note_on_c, 0, 79, 64
1, 146633, Note_off_c, 0, 57, 41
1, 146653, Note_off_c, 0, 63, 59
1, 146665, Note_on_c, 0, 67, 51
1, 146689, Note_on_c, 0, 81, 59
1, 146690, Note_off_c, 0, 67, 62
1, 146732, Note_off_c, 0, 79, 59
1, 146754, Note_off_c, 0, 81, 66
1, 146797, Note_on_c, 0, 72, 84
1, 146919, Note_on_c, 0, 81, 52
1, 146966, Note_on_c, 0, 75, 57
1, 146980, Note_off_c, 0, 81, 0
1, 146996, Note_on_c, 0, 81, 51
1, 147033, Note_on_c, 0, 79, 52
1, 147048, Note_off_c, 0, 75, 64
1, 147049, Note_off_c, 0, 72, 66
1, 147055, Note_off_c, 0, 79, 59
1, 147068, Note_off_c, 0, 81, 65
1, 147089, Note_on_c, 0, 93, 78
1, 147104, Note_off_c, 0, 93, 67
1, 147225, Note_on_c, 0, 57, 60
1, 147286, Note_on_c, 0, 77, 80
1, 147291, Control_c, 0, 64, 111
1, 147305, Control_c, 0, 64, 93
1, 147320, Control_c, 0, 64, 76
1, 147335, Control_c, 0, 64, 60
1, 147350, Control_c, 0, 64, 36
1, 147365, Control_c, 0, 64, 48
1, 147379, Control_c, 0, 64, 60
1, 147394, Control_c, 0, 64, 71
1, 147409, Control_c, 0, 64, 98
1, 147423, Control_c, 0, 64, 127
1, 147435, Note_off_c, 0, 77, 65
1, 147438, Note_on_c, 0, 69, 40
1, 147442, Note_on_c, 0, 63, 40
1, 147483, Note_off_c, 0, 57, 59
1, 147518, Note_on_c, 0, 67, 45
1, 147525, Note_off_c, 0, 63, 60
1, 147536, Note_off_c, 0, 69, 63
1, 147548, Note_on_c, 0, 77, 47
1, 147550, Note_off_c, 0, 67, 63
1, 147618, Note_on_c, 0, 81, 52
1, 147619, Note_off_c, 0, 77, 63
1, 147650, Note_off_c, 0, 81, 67
1, 147691, Note_on_c, 0, 75, 66
1, 147829, Note_on_c, 0, 69, 49
1, 147854, Poly_aftertouch_c, 0, 81, 127
1, 147899, Note_on_c, 0, 81, 3
1, 147938, Note_on_c, 0, 79, 44
1, 147962, Note_off_c, 0, 75, 59
1, 147964, Note_off_c, 0, 79, 58
1, 147970, Note_off_c, 0, 69, 60
1, 147987, Note_on_c, 0, 93, 63
1, 148006, Note_off_c, 0, 93, 61
1, 148014, Note_off_c, 0, 81, 45
1, 148188, Control_c, 0, 64, 115
1, 148190, Note_on_c, 0, 57, 46
1, 148202, Control_c, 0, 64, 98
1, 148224, Control_c, 0, 64, 81
1, 148239, Control_c, 0, 64, 66
1, 148254, Control_c, 0, 64, 47
1, 148260, Note_on_c, 0, 74, 44
1, 148269, Control_c, 0, 64, 31
1, 148314, Control_c, 0, 64, 34
1, 148328, Control_c, 0, 64, 57
1, 148343, Control_c, 0, 64, 71
1, 148358, Control_c, 0, 64, 92
1, 148366, Note_on_c, 0, 69, 56
1, 148373, Control_c, 0, 64, 127
1, 148403, Note_off_c, 0, 57, 44
1, 148416, Note_off_c, 0, 74, 32
1, 148419, Note_on_c, 0, 66, 38
1, 148432, Note_off_c, 0, 69, 58
1, 148457, Note_on_c, 0, 78, 47
1, 148470, Note_off_c, 0, 66, 62
1, 148477, Note_on_c, 0, 69, 41
1, 148503, Note_off_c, 0, 78, 59
1, 148511, Note_off_c, 0, 69, 65
1, 148526, Note_on_c, 0, 81, 36
1, 148556, Note_off_c, 0, 81, 59
1, 148602, Note_on_c, 0, 66, 52
1, 148678, Note_on_c, 0, 81, 64
1, 148706, Note_off_c, 0, 81, 67
1, 148730, Note_on_c, 0, 69, 41
1, 148768, Note_on_c, 0, 81, 62
1, 148797, Note_off_c, 0, 66, 57
1, 148805, Note_on_c, 0, 78, 45
1, 148815, Note_off_c, 0, 69, 63
1, 148818, Note_off_c, 0, 81, 62
1, 148828, Note_off_c, 0, 78, 58
1, 148844, Note_on_c, 0, 93, 68
1, 148861, Note_off_c, 0, 93, 66
1, 149019, Control_c, 0, 64, 109
1, 149029, Note_on_c, 0, 57, 53
1, 149033, Control_c, 0, 64, 93
1, 149048, Control_c, 0, 64, 77
1, 149054, Note_on_c, 0, 72, 60
1, 149063, Control_c, 0, 64, 63
1, 149077, Control_c, 0, 64, 37
1, 149092, Control_c, 0, 64, 35
1, 149122, Control_c, 0, 64, 39
1, 149126, Note_off_c, 0, 72, 65
1, 149137, Control_c, 0, 64, 56
1, 149152, Control_c, 0, 64, 71
1, 149162, Note_on_c, 0, 67, 55
1, 149166, Control_c, 0, 64, 93
1, 149181, Control_c, 0, 64, 127
1, 149189, Note_on_c, 0, 63, 40
1, 149211, Note_off_c, 0, 57, 36
1, 149226, Note_off_c, 0, 67, 0
1, 149250, Note_on_c, 0, 73, 57
1, 149264, Poly_aftertouch_c, 0, 67, 127
1, 149268, Note_off_c, 0, 63, 59
1, 149296, Note_off_c, 0, 73, 61
1, 149298, Poly_aftertouch_c, 0, 67, 0
1, 149304, Note_on_c, 0, 81, 62
1, 149339, Note_off_c, 0, 81, 62
1, 149435, Note_on_c, 0, 70, 60
1, 149571, Note_on_c, 0, 73, 48
1, 149578, Note_on_c, 0, 81, 28
1, 149611, Note_off_c, 0, 81, 62
1, 149659, Note_on_c, 0, 75, 39
1, 149691, Note_on_c, 0, 82, 57
1, 149693, Note_on_c, 0, 81, 37
1, 149710, Note_off_c, 0, 70, 35
1, 149728, Note_off_c, 0, 82, 67
1, 149748, Note_off_c, 0, 75, 38
1, 149764, Note_off_c, 0, 73, 62
1, 149795, Note_off_c, 0, 81, 51
1, 149804, Note_on_c, 0, 93, 42
1, 149830, Note_off_c, 0, 93, 54
1, 150092, Note_on_c, 0, 45, 41
1, 150094, Control_c, 0, 64, 110
1, 150109, Control_c, 0, 64, 93
1, 150123, Control_c, 0, 64, 74
1, 150138, Control_c, 0, 64, 55
1, 150153, Control_c, 0, 64, 0
1, 150189, Note_on_c, 0, 57, 49
1, 150198, Control_c, 0, 64, 19
1, 150213, Control_c, 0, 64, 59
1, 150228, Control_c, 0, 64, 87
1, 150243, Control_c, 0, 64, 127
1, 150243, Note_off_c, 0, 57, 58
1, 150266, Note_on_c, 0, 61, 58
1, 150272, Note_off_c, 0, 45, 44
1, 150312, Note_off_c, 0, 61, 64
1, 150315, Note_on_c, 0, 49, 30
1, 150330, Note_on_c, 0, 64, 59
1, 150355, Note_off_c, 0, 49, 61
1, 150355, Note_off_c, 0, 64, 65
1, 150367, Note_on_c, 0, 58, 62
1, 150395, Note_off_c, 0, 58, 66
1, 150408, Note_on_c, 0, 69, 68
1, 150443, Note_off_c, 0, 69, 59
1, 150475, Note_on_c, 0, 73, 79
1, 150478, Note_on_c, 0, 61, 59
1, 150498, Note_off_c, 0, 73, 70
1, 150507, Note_on_c, 0, 76, 75
1, 150530, Note_off_c, 0, 76, 66
1, 150552, Note_off_c, 0, 61, 63
1, 150555, Note_on_c, 0, 70, 77
1, 150576, Note_on_c, 0, 81, 85
1, 150582, Note_off_c, 0, 70, 64
1, 150623, Note_off_c, 0, 81, 57
1, 150636, Note_on_c, 0, 85, 86
1, 150655, Note_on_c, 0, 73, 64
1, 150667, Note_on_c, 0, 88, 85
1, 150689, Note_off_c, 0, 85, 66
1, 150708, Note_off_c, 0, 88, 68
1, 150791, Note_on_c, 0, 82, 60
1, 150817, Note_on_c, 0, 93, 88
1, 150826, Note_on_c, 0, 81, 68
1, 150827, Note_on_c, 0, 88, 73
1, 150833, Note_off_c, 0, 73, 52
1, 150965, Note_off_c, 0, 82, 55
1, 150982, Note_on_c, 0, 79, 56
1, 151061, Note_off_c, 0, 79, 59
1, 151065, Note_on_c, 0, 73, 55
1, 151122, Note_off_c, 0, 93, 62
1, 151125, Note_off_c, 0, 81, 60
1, 151132, Note_on_c, 0, 70, 48
1, 151142, Note_off_c, 0, 73, 63
1, 151160, Note_off_c, 0, 70, 58
1, 151234, Note_on_c, 0, 67, 56
1, 151247, Note_on_c, 0, 91, 91
1, 151259, Note_on_c, 0, 79, 72
1, 151286, Note_off_c, 0, 67, 56
1, 151295, Note_on_c, 0, 89, 22
1, 151335, Note_on_c, 0, 61, 55
1, 151337, Note_off_c, 0, 89, 42
1, 151364, Note_on_c, 0, 58, 69
1, 151368, Note_off_c, 0, 61, 64
1, 151398, Note_off_c, 0, 58, 67
1, 151418, Note_off_c, 0, 79, 56
1, 151446, Note_off_c, 0, 91, 62
1, 151447, Note_on_c, 0, 55, 73
1, 151493, Note_off_c, 0, 55, 51
1, 151504, Note_on_c, 0, 52, 69
1, 151596, Note_on_c, 0, 45, 62
1, 151599, Note_off_c, 0, 52, 60
1, 151627, Note_on_c, 0, 89, 98
1, 151635, Control_c, 0, 64, 123
1, 151635, Note_on_c, 0, 77, 84
1, 151650, Control_c, 0, 64, 91
1, 151664, Control_c, 0, 64, 69
1, 151679, Control_c, 0, 64, 32
1, 151694, Control_c, 0, 64, 0
1, 151724, Control_c, 0, 64, 47
1, 151727, Note_on_c, 0, 49, 59
1, 151739, Control_c, 0, 64, 71
1, 151739, Note_off_c, 0, 45, 60
1, 151754, Control_c, 0, 64, 99
1, 151768, Control_c, 0, 64, 127
1, 151776, Note_off_c, 0, 88, 63
1, 151794, Note_off_c, 0, 49, 61
1, 151798, Note_on_c, 0, 55, 67
1, 151834, Note_off_c, 0, 55, 64
1, 151879, Note_on_c, 0, 58, 73
1, 151914, Note_off_c, 0, 77, 58
1, 151919, Note_off_c, 0, 89, 59
1, 151939, Note_on_c, 0, 61, 72
1, 151944, Note_off_c, 0, 58, 63
1, 152001, Note_off_c, 0, 61, 62
1, 152010, Note_on_c, 0, 64, 72
1, 152037, Note_on_c, 0, 88, 97
1, 152040, Note_on_c, 0, 76, 94
1, 152063, Note_off_c, 0, 64, 57
1, 152086, Note_on_c, 0, 61, 67
1, 152126, Note_off_c, 0, 76, 58
1, 152141, Note_on_c, 0, 58, 69
1, 152151, Note_off_c, 0, 61, 63
1, 152158, Note_off_c, 0, 88, 65
1, 152192, Note_off_c, 0, 58, 64
1, 152219, Note_on_c, 0, 55, 79
1, 152303, Note_on_c, 0, 49, 74
1, 152311, Note_off_c, 0, 55, 57
1, 152532, Note_on_c, 0, 43, 63
1, 152547, Control_c, 0, 64, 111
1, 152549, Note_off_c, 0, 49, 58
1, 152562, Control_c, 0, 64, 102
1, 152577, Control_c, 0, 64, 95
1, 152591, Control_c, 0, 64, 88
1, 152606, Control_c, 0, 64, 80
1, 152613, Note_on_c, 0, 93, 98
1, 152618, Note_on_c, 0, 86, 85
1, 152621, Control_c, 0, 64, 72
1, 152622, Note_on_c, 0, 81, 78
1, 152636, Control_c, 0, 64, 64
1, 152651, Control_c, 0, 64, 52
1, 152666, Control_c, 0, 64, 35
1, 152681, Control_c, 0, 64, 17
1, 152696, Control_c, 0, 64, 0
1, 152777, Control_c, 0, 64, 54
1, 152791, Control_c, 0, 64, 75
1, 152806, Control_c, 0, 64, 103
1, 152821, Control_c, 0, 64, 127
1, 152878, Note_on_c, 0, 50, 58
1, 152893, Note_off_c, 0, 43, 53
1, 152943, Note_off_c, 0, 50, 65
1, 152951, Note_on_c, 0, 55, 62
1, 152986, Note_off_c, 0, 55, 64
1, 153045, Note_on_c, 0, 59, 71
1, 153109, Note_on_c, 0, 62, 65
1, 153128, Note_off_c, 0, 59, 58
1, 153152, Note_off_c, 0, 62, 61
1, 153163, Note_on_c, 0, 67, 72
1, 153189, Note_off_c, 0, 67, 66
1, 153202, Note_off_c, 0, 93, 57
1, 153223, Note_on_c, 0, 71, 80
1, 153249, Note_off_c, 0, 81, 63
1, 153250, Note_off_c, 0, 71, 65
1, 153276, Note_on_c, 0, 74, 78
1, 153316, Note_off_c, 0, 74, 59
1, 153328, Note_on_c, 0, 79, 87
1, 153391, Note_off_c, 0, 79, 0
1, 153402, Note_on_c, 0, 79, 73
1, 153403, Note_on_c, 0, 91, 105
1, 153405, Note_on_c, 0, 83, 84
1, 153484, Note_off_c, 0, 79, 63
1, 153489, Note_off_c, 0, 83, 61
1, 153506, Note_off_c, 0, 91, 66
1, 153512, Note_off_c, 0, 86, 63
1, 153543, Note_on_c, 0, 79, 51
1, 153575, Note_off_c, 0, 79, 47
1, 153608, Note_on_c, 0, 74, 68
1, 153680, Note_off_c, 0, 74, 63
1, 153683, Note_on_c, 0, 71, 76
1, 153709, Note_off_c, 0, 71, 67
1, 153771, Note_on_c, 0, 67, 68
1, 153781, Note_on_c, 0, 86, 91
1, 153788, Note_on_c, 0, 74, 82
1, 153802, Note_off_c, 0, 67, 62
1, 153811, Note_off_c, 0, 74, 68
1, 153820, Note_off_c, 0, 86, 64
1, 153838, Note_on_c, 0, 62, 67
1, 153888, Note_on_c, 0, 59, 72
1, 153888, Note_off_c, 0, 62, 64
1, 153913, Note_off_c, 0, 59, 68
1, 153961, Note_on_c, 0, 55, 76
1, 154011, Note_off_c, 0, 55, 55
1, 154019, Note_on_c, 0, 50, 76
1, 154067, Note_off_c, 0, 50, 64
1, 154118, Control_c, 0, 64, 90
1, 154133, Control_c, 0, 64, 61
1, 154148, Control_c, 0, 64, 0
1, 154172, Note_on_c, 0, 37, 67
1, 154189, Note_on_c, 0, 62, 83
1, 154192, Control_c, 0, 64, 61
1, 154195, Note_off_c, 0, 37, 61
1, 154215, Control_c, 0, 64, 127
1, 154241, Note_off_c, 0, 62, 63
1, 154249, Note_on_c, 0, 65, 75
1, 154292, Note_on_c, 0, 71, 77
1, 154294, Note_off_c, 0, 65, 62
1, 154314, Note_off_c, 0, 71, 70
1, 154359, Note_on_c, 0, 74, 83
1, 154382, Note_off_c, 0, 74, 69
1, 154412, Note_on_c, 0, 77, 83
1, 154440, Note_off_c, 0, 77, 65
1, 154441, Note_on_c, 0, 83, 84
1, 154463, Note_off_c, 0, 83, 68
1, 154508, Note_on_c, 0, 86, 93
1, 154551, Note_off_c, 0, 86, 64
1, 154562, Note_on_c, 0, 89, 91
1, 154593, Note_on_c, 0, 95, 87
1, 154620, Note_off_c, 0, 89, 62
1, 154626, Note_on_c, 0, 98, 90
1, 154651, Note_off_c, 0, 95, 68
1, 154667, Note_off_c, 0, 98, 66
1, 154780, Note_on_c, 0, 49, 54
1, 154781, Note_on_c, 0, 53, 46
1, 154785, Note_on_c, 0, 56, 47
1, 154808, Note_on_c, 0, 44, 32
1, 154823, Control_c, 0, 64, 105
1, 154838, Control_c, 0, 64, 86
1, 154839, Note_on_c, 0, 98, 62
1, 154848, Note_on_c, 0, 95, 55
1, 154853, Control_c, 0, 64, 69
1, 154867, Control_c, 0, 64, 51
1, 154882, Control_c, 0, 64, 37
1, 154897, Control_c, 0, 64, 40
1, 154911, Control_c, 0, 64, 49
1, 154926, Control_c, 0, 64, 66
1, 154941, Control_c, 0, 64, 97
1, 154964, Control_c, 0, 64, 127
1, 154970, Note_off_c, 0, 95, 60
1, 154997, Note_off_c, 0, 98, 60
1, 155020, Note_on_c, 0, 100, 44
1, 155024, Note_on_c, 0, 97, 55
1, 155030, Note_off_c, 0, 44, 41
1, 155084, Note_off_c, 0, 97, 55
1, 155084, Note_off_c, 0, 100, 54
1, 155112, Note_on_c, 0, 95, 46
1, 155118, Note_on_c, 0, 98, 47
1, 155118, Note_off_c, 0, 56, 34
1, 155141, Note_off_c, 0, 98, 58
1, 155143, Note_off_c, 0, 95, 58
1, 155216, Note_on_c, 0, 97, 52
1, 155221, Note_on_c, 0, 94, 56
1, 155266, Note_off_c, 0, 94, 58
1, 155284, Note_off_c, 0, 97, 58
1, 155304, Note_on_c, 0, 58, 73
1, 155321, Note_on_c, 0, 89, 59
1, 155321, Note_on_c, 0, 95, 64
1, 155322, Note_on_c, 0, 46, 64
1, 155372, Note_off_c, 0, 89, 60
1, 155376, Note_off_c, 0, 95, 64
1, 155396, Note_off_c, 0, 53, 47
1, 155402, Note_on_c, 0, 97, 62
1, 155408, Note_on_c, 0, 94, 57
1, 155412, Note_off_c, 0, 49, 43
1, 155424, Note_off_c, 0, 46, 63
1, 155437, Note_off_c, 0, 58, 60
1, 155470, Note_off_c, 0, 94, 61
1, 155480, Note_off_c, 0, 97, 63
1, 155484, Note_on_c, 0, 89, 67
1, 155510, Note_off_c, 0, 89, 64
1, 155567, Note_on_c, 0, 89, 75
1, 155575, Note_on_c, 0, 94, 70
1, 155621, Note_off_c, 0, 89, 61
1, 155639, Note_off_c, 0, 94, 62
1, 155652, Note_on_c, 0, 59, 97
1, 155654, Note_on_c, 0, 91, 74
1, 155656, Note_on_c, 0, 88, 69
1, 155656, Note_on_c, 0, 55, 83
1, 155660, Note_on_c, 0, 47, 72
1, 155668, Note_on_c, 0, 52, 72
1, 155713, Control_c, 0, 64, 108
1, 155721, Note_off_c, 0, 88, 63
1, 155728, Control_c, 0, 64, 88
1, 155737, Note_off_c, 0, 91, 60
1, 155742, Control_c, 0, 64, 66
1, 155747, Note_on_c, 0, 95, 68
1, 155757, Control_c, 0, 64, 31
1, 155769, Note_on_c, 0, 90, 69
1, 155772, Control_c, 0, 64, 0
1, 155817, Control_c, 0, 64, 46
1, 155818, Note_off_c, 0, 95, 64
1, 155832, Control_c, 0, 64, 73
1, 155834, Note_off_c, 0, 90, 63
1, 155836, Note_on_c, 0, 91, 59
1, 155838, Note_on_c, 0, 88, 69
1, 155847, Control_c, 0, 64, 104
1, 155856, Note_off_c, 0, 91, 58
1, 155861, Control_c, 0, 64, 127
1, 155866, Note_off_c, 0, 88, 68
1, 155918, Note_on_c, 0, 87, 76
1, 155933, Note_on_c, 0, 90, 68
1, 155994, Note_off_c, 0, 90, 62
1, 155999, Note_on_c, 0, 88, 73
1, 156002, Note_on_c, 0, 83, 71
1, 156017, Note_off_c, 0, 87, 56
1, 156063, Note_off_c, 0, 88, 65
1, 156065, Note_on_c, 0, 90, 73
1, 156074, Note_off_c, 0, 83, 60
1, 156075, Note_on_c, 0, 87, 61
1, 156139, Note_on_c, 0, 88, 73
1, 156148, Note_off_c, 0, 87, 63
1, 156151, Note_off_c, 0, 90, 64
1, 156159, Note_on_c, 0, 83, 68
1, 156163, Note_off_c, 0, 88, 71
1, 156189, Note_off_c, 0, 83, 64
1, 156199, Note_off_c, 0, 47, 38
1, 156233, Note_on_c, 0, 82, 80
1, 156240, Note_on_c, 0, 87, 76
1, 156274, Note_off_c, 0, 59, 56
1, 156300, Note_off_c, 0, 82, 64
1, 156303, Note_on_c, 0, 83, 75
1, 156309, Note_off_c, 0, 87, 62
1, 156312, Note_on_c, 0, 79, 71
1, 156367, Note_off_c, 0, 83, 61
1, 156371, Note_off_c, 0, 79, 57
1, 156380, Note_on_c, 0, 82, 84
1, 156381, Note_on_c, 0, 87, 78
1, 156445, Note_off_c, 0, 82, 64
1, 156448, Note_off_c, 0, 87, 64
1, 156461, Note_on_c, 0, 83, 54
1, 156470, Note_on_c, 0, 79, 75
1, 156481, Note_off_c, 0, 83, 61
1, 156499, Note_off_c, 0, 55, 0
1, 156501, Note_off_c, 0, 79, 53
1, 156536, Note_on_c, 0, 78, 82
1, 156536, Poly_aftertouch_c, 0, 55, 127
1, 156550, Note_on_c, 0, 82, 79
1, 156624, Note_on_c, 0, 61, 102
1, 156626, Note_on_c, 0, 79, 80
1, 156626, Note_off_c, 0, 78, 62
1, 156632, Note_on_c, 0, 76, 78
1, 156634, Note_on_c, 0, 49, 87
1, 156647, Note_off_c, 0, 82, 63
1, 156673, Note_off_c, 0, 61, 68
1, 156689, Poly_aftertouch_c, 0, 55, 0
1, 156702, Note_off_c, 0, 76, 53
1, 156706, Note_off_c, 0, 52, 40
1, 156708, Note_off_c, 0, 79, 59
1, 156712, Note_on_c, 0, 82, 77
1, 156717, Note_off_c, 0, 49, 62
1, 156726, Note_on_c, 0, 78, 75
1, 156795, Note_on_c, 0, 79, 71
1, 156803, Note_on_c, 0, 76, 83
1, 156808, Note_off_c, 0, 78, 61
1, 156809, Note_off_c, 0, 82, 63
1, 156815, Note_off_c, 0, 79, 68
1, 156896, Note_on_c, 0, 73, 82
1, 156896, Note_off_c, 0, 76, 54
1, 156911, Note_on_c, 0, 78, 75
1, 156912, Note_on_c, 0, 43, 94
1, 156927, Note_on_c, 0, 45, 70
1, 156963, Note_off_c, 0, 43, 64
1, 156967, Note_off_c, 0, 45, 64
1, 156967, Note_off_c, 0, 73, 58
1, 156971, Note_off_c, 0, 78, 62
1, 157072, Note_on_c, 0, 64, 91
1, 157077, Note_on_c, 0, 55, 75
1, 157078, Note_on_c, 0, 53, 84
1, 157078, Note_on_c, 0, 59, 74
1, 157083, Note_on_c, 0, 76, 83
1, 157128, Control_c, 0, 64, 91
1, 157143, Control_c, 0, 64, 71
1, 157158, Control_c, 0, 64, 24
1, 157173, Control_c, 0, 64, 0
1, 157179, Note_off_c, 0, 76, 59
1, 157180, Note_on_c, 0, 65, 71
1, 157211, Control_c, 0, 64, 43
1, 157226, Control_c, 0, 64, 70
1, 157239, Note_off_c, 0, 65, 56
1, 157241, Control_c, 0, 64, 108
1, 157248, Note_on_c, 0, 67, 71
1, 157255, Control_c, 0, 64, 127
1, 157278, Note_off_c, 0, 67, 66
1, 157281, Note_on_c, 0, 71, 76
1, 157304, Note_off_c, 0, 71, 68
1, 157351, Note_on_c, 0, 76, 84
1, 157370, Note_off_c, 0, 64, 56
1, 157375, Note_off_c, 0, 76, 67
1, 157412, Note_on_c, 0, 79, 82
1, 157435, Note_on_c, 0, 83, 88
1, 157457, Note_off_c, 0, 79, 61
1, 157481, Note_on_c, 0, 88, 79
1, 157484, Note_off_c, 0, 83, 64
1, 157536, Note_on_c, 0, 62, 98
1, 157538, Note_on_c, 0, 86, 86
1, 157550, Note_off_c, 0, 53, 67
1, 157565, Note_off_c, 0, 59, 61
1, 157573, Note_off_c, 0, 88, 64
1, 157576, Note_off_c, 0, 55, 63
1, 157579, Note_on_c, 0, 83, 75
1, 157583, Note_off_c, 0, 62, 66
1, 157608, Note_off_c, 0, 86, 64
1, 157629, Note_off_c, 0, 83, 64
1, 157631, Note_on_c, 0, 74, 75
1, 157674, Note_off_c, 0, 74, 61
1, 157689, Note_on_c, 0, 83, 80
1, 157724, Note_on_c, 0, 86, 82
1, 157730, Note_off_c, 0, 83, 66
1, 157745, Note_off_c, 0, 86, 70
1, 157793, Note_on_c, 0, 86, 85
1, 157841, Note_off_c, 0, 86, 61
1, 157848, Note_on_c, 0, 95, 87
1, 157906, Control_c, 0, 64, 110
1, 157920, Note_on_c, 0, 98, 81
1, 157921, Control_c, 0, 64, 73
1, 157936, Control_c, 0, 64, 29
1, 157944, Note_on_c, 0, 37, 68
1, 157957, Note_off_c, 0, 95, 66
1, 157958, Control_c, 0, 64, 0
1, 157973, Control_c, 0, 64, 46
1, 157989, Control_c, 0, 64, 65
1, 158003, Control_c, 0, 64, 86
1, 158004, Note_off_c, 0, 37, 61
1, 158018, Control_c, 0, 64, 127
1, 158046, Note_off_c, 0, 98, 65
1, 158078, Poly_aftertouch_c, 0, 36, 0
1, 158126, Note_on_c, 0, 56, 60
1, 158133, Note_on_c, 0, 53, 53
1, 158138, Note_on_c, 0, 95, 63
1, 158151, Note_on_c, 0, 49, 48
1, 158154, Note_on_c, 0, 98, 56
1, 158158, Note_on_c, 0, 44, 52
1, 158193, Note_off_c, 0, 44, 51
1, 158229, Note_off_c, 0, 56, 60
1, 158243, Note_off_c, 0, 95, 62
1, 158270, Note_off_c, 0, 98, 61
1, 158274, Note_on_c, 0, 97, 56
1, 158280, Note_on_c, 0, 100, 54
1, 158365, Note_off_c, 0, 100, 62
1, 158365, Note_off_c, 0, 97, 56
1, 158371, Note_on_c, 0, 95, 60
1, 158384, Note_on_c, 0, 98, 49
1, 158404, Note_off_c, 0, 95, 67
1, 158407, Note_off_c, 0, 98, 59
1, 158467, Note_on_c, 0, 94, 63
1, 158470, Note_on_c, 0, 97, 67
1, 158506, Note_off_c, 0, 94, 60
1, 158519, Note_off_c, 0, 97, 51
1, 158537, Note_on_c, 0, 58, 81
1, 158543, Note_on_c, 0, 46, 76
1, 158549, Note_on_c, 0, 95, 70
1, 158556, Note_on_c, 0, 89, 67
1, 158602, Note_off_c, 0, 53, 64
1, 158604, Note_off_c, 0, 95, 64
1, 158616, Note_off_c, 0, 89, 60
1, 158624, Note_off_c, 0, 49, 42
1, 158628, Note_on_c, 0, 97, 73
1, 158635, Note_on_c, 0, 94, 65
1, 158641, Note_off_c, 0, 58, 63
1, 158643, Note_off_c, 0, 46, 62
1, 158713, Note_off_c, 0, 94, 63
1, 158715, Note_on_c, 0, 95, 61
1, 158719, Note_on_c, 0, 89, 70
1, 158719, Note_off_c, 0, 97, 64
1, 158733, Note_off_c, 0, 95, 65
1, 158744, Note_off_c, 0, 89, 66
1, 158796, Note_on_c, 0, 89, 83
1, 158808, Note_on_c, 0, 94, 65
1, 158866, Note_off_c, 0, 89, 59
1, 158883, Note_on_c, 0, 59, 94
1, 158884, Note_on_c, 0, 55, 83
1, 158887, Note_on_c, 0, 52, 74
1, 158890, Note_on_c, 0, 47, 81
1, 158893, Note_on_c, 0, 88, 71
1, 158894, Note_on_c, 0, 91, 67
1, 158898, Note_off_c, 0, 94, 58
1, 158916, Control_c, 0, 64, 109
1, 158931, Control_c, 0, 64, 85
1, 158946, Control_c, 0, 64, 66
1, 158948, Note_off_c, 0, 91, 57
1, 158954, Note_off_c, 0, 88, 62
1, 158960, Control_c, 0, 64, 36
1, 158975, Control_c, 0, 64, 0
1, 158976, Note_on_c, 0, 95, 71
1, 158990, Control_c, 0, 64, 14
1, 158995, Note_on_c, 0, 90, 63
1, 159004, Control_c, 0, 64, 47
1, 159019, Control_c, 0, 64, 74
1, 159034, Control_c, 0, 64, 127
1, 159040, Note_off_c, 0, 95, 65
1, 159053, Note_off_c, 0, 90, 61
1, 159061, Note_on_c, 0, 88, 73
1, 159068, Note_on_c, 0, 91, 31
1, 159084, Note_off_c, 0, 88, 71
1, 159099, Note_off_c, 0, 91, 55
1, 159139, Note_on_c, 0, 87, 71
1, 159141, Note_on_c, 0, 90, 69
1, 159201, Note_off_c, 0, 90, 63
1, 159217, Note_on_c, 0, 83, 67
1, 159219, Note_on_c, 0, 88, 63
1, 159235, Note_off_c, 0, 87, 0
1, 159235, Note_on_c, 0, 87, 18
1, 159255, Note_off_c, 0, 83, 58
1, 159281, Note_off_c, 0, 88, 65
1, 159282, Note_off_c, 0, 87, 0
1, 159282, Note_on_c, 0, 87, 34
1, 159282, Note_on_c, 0, 90, 75
1, 159319, Note_off_c, 0, 47, 47
1, 159358, Note_off_c, 0, 90, 65
1, 159361, Note_off_c, 0, 87, 63
1, 159364, Note_on_c, 0, 83, 72
1, 159369, Note_on_c, 0, 88, 46
1, 159382, Note_off_c, 0, 59, 54
1, 159394, Note_off_c, 0, 88, 59
1, 159398, Note_off_c, 0, 83, 61
1, 159440, Note_on_c, 0, 82, 83
1, 159479, Note_on_c, 0, 87, 55
1, 159515, Note_on_c, 0, 83, 77
1, 159520, Note_off_c, 0, 82, 63
1, 159520, Note_off_c, 0, 87, 59
1, 159528, Note_on_c, 0, 79, 72
1, 159562, Note_off_c, 0, 83, 63
1, 159594, Note_off_c, 0, 79, 56
1, 159600, Note_on_c, 0, 87, 83
1, 159606, Note_on_c, 0, 82, 72
1, 159658, Note_on_c, 0, 83, 77
1, 159659, Note_off_c, 0, 82, 64
1, 159662, Note_off_c, 0, 87, 63
1, 159678, Note_on_c, 0, 79, 75
1, 159680, Note_off_c, 0, 83, 70
1, 159700, Note_off_c, 0, 79, 69
1, 159741, Note_on_c, 0, 78, 83
1, 159758, Note_on_c, 0, 82, 72
1, 159817, Note_off_c, 0, 78, 62
1, 159826, Note_on_c, 0, 61, 105
1, 159829, Note_on_c, 0, 76, 80
1, 159830, Note_on_c, 0, 79, 68
1, 159834, Note_on_c, 0, 49, 88
1, 159841, Note_off_c, 0, 82, 63
1, 159886, Note_off_c, 0, 61, 67
1, 159889, Note_off_c, 0, 76, 61
1, 159896, Note_off_c, 0, 79, 59
1, 159910, Note_on_c, 0, 82, 71
1, 159910, Note_off_c, 0, 55, 46
1, 159915, Note_on_c, 0, 78, 73
1, 159925, Note_off_c, 0, 52, 54
1, 159934, Note_off_c, 0, 49, 61
1, 159979, Note_off_c, 0, 78, 63
1, 159985, Note_on_c, 0, 79, 61
1, 159993, Note_off_c, 0, 82, 64
1, 159995, Note_on_c, 0, 76, 78
1, 160005, Note_off_c, 0, 79, 62
1, 160059, Note_off_c, 0, 76, 39
1, 160071, Note_on_c, 0, 73, 81
1, 160077, Note_on_c, 0, 43, 95
1, 160081, Note_on_c, 0, 78, 75
1, 160128, Note_off_c, 0, 43, 63
1, 160130, Note_off_c, 0, 73, 60
1, 160139, Note_off_c, 0, 78, 63
1, 160240, Note_on_c, 0, 76, 85
1, 160241, Note_on_c, 0, 64, 98
1, 160245, Note_on_c, 0, 55, 80
1, 160246, Note_on_c, 0, 59, 79
1, 160252, Note_on_c, 0, 53, 82
1, 160273, Note_on_c, 0, 52, 37
1, 160279, Control_c, 0, 64, 102
1, 160294, Control_c, 0, 64, 77
1, 160302, Note_off_c, 0, 76, 56
1, 160306, Note_off_c, 0, 52, 58
1, 160309, Control_c, 0, 64, 48
1, 160324, Control_c, 0, 64, 0
1, 160334, Note_on_c, 0, 65, 75
1, 160339, Control_c, 0, 64, 26
1, 160354, Control_c, 0, 64, 58
1, 160369, Control_c, 0, 64, 79
1, 160375, Note_off_c, 0, 65, 60
1, 160384, Control_c, 0, 64, 127
1, 160396, Note_on_c, 0, 67, 72
1, 160432, Note_on_c, 0, 71, 80
1, 160435, Note_off_c, 0, 67, 63
1, 160453, Note_off_c, 0, 71, 71
1, 160505, Note_on_c, 0, 76, 85
1, 160533, Note_off_c, 0, 76, 62
1, 160564, Note_off_c, 0, 64, 60
1, 160566, Note_on_c, 0, 79, 77
1, 160598, Note_on_c, 0, 83, 80
1, 160616, Note_off_c, 0, 79, 61
1, 160628, Note_off_c, 0, 83, 62
1, 160631, Note_on_c, 0, 88, 83
1, 160682, Note_on_c, 0, 62, 92
1, 160692, Note_on_c, 0, 86, 83
1, 160704, Note_off_c, 0, 53, 64
1, 160710, Note_off_c, 0, 88, 55
1, 160714, Note_off_c, 0, 59, 61
1, 160721, Note_off_c, 0, 55, 63
1, 160727, Note_off_c, 0, 62, 67
1, 160733, Note_on_c, 0, 83, 76
1, 160764, Note_off_c, 0, 86, 63
1, 160783, Note_off_c, 0, 83, 63
1, 160788, Note_on_c, 0, 74, 80
1, 160843, Note_off_c, 0, 74, 63
1, 160851, Note_on_c, 0, 83, 76
1, 160883, Note_on_c, 0, 86, 81
1, 160889, Note_off_c, 0, 83, 63
1, 160904, Note_off_c, 0, 86, 71
1, 160962, Note_on_c, 0, 86, 86
1, 161014, Note_off_c, 0, 86, 59
1, 161024, Note_on_c, 0, 95, 84
1, 161087, Note_on_c, 0, 37, 76
1, 161087, Note_on_c, 0, 98, 77
1, 161105, Note_off_c, 0, 95, 64
1, 161124, Note_off_c, 0, 37, 63
1, 161190, Note_off_c, 0, 98, 57
1, 161281, Note_on_c, 0, 53, 43
1, 161285, Note_on_c, 0, 56, 68
1, 161288, Note_on_c, 0, 95, 63
1, 161290, Note_on_c, 0, 44, 55
1, 161293, Note_on_c, 0, 49, 52
1, 161296, Control_c, 0, 64, 102
1, 161300, Note_on_c, 0, 98, 63
1, 161311, Control_c, 0, 64, 78
1, 161326, Control_c, 0, 64, 55
1, 161340, Control_c, 0, 64, 0
1, 161385, Control_c, 0, 64, 25
1, 161397, Note_off_c, 0, 95, 60
1, 161399, Control_c, 0, 64, 66
1, 161414, Control_c, 0, 64, 104
1, 161428, Note_on_c, 0, 97, 59
1, 161429, Control_c, 0, 64, 127
1, 161430, Note_off_c, 0, 98, 58
1, 161445, Note_on_c, 0, 100, 50
1, 161498, Note_off_c, 0, 44, 51
1, 161510, Note_off_c, 0, 97, 56
1, 161511, Note_off_c, 0, 100, 57
1, 161517, Note_on_c, 0, 95, 64
1, 161540, Note_off_c, 0, 56, 55
1, 161549, Note_off_c, 0, 95, 67
1, 161613, Note_on_c, 0, 94, 69
1, 161621, Note_on_c, 0, 97, 62
1, 161668, Note_off_c, 0, 97, 59
1, 161669, Note_off_c, 0, 94, 54
1, 161701, Note_on_c, 0, 58, 90
1, 161705, Note_on_c, 0, 89, 68
1, 161709, Note_on_c, 0, 46, 74
1, 161710, Note_on_c, 0, 95, 68
1, 161762, Note_off_c, 0, 95, 60
1, 161772, Note_off_c, 0, 49, 59
1, 161776, Note_off_c, 0, 53, 64
1, 161776, Note_off_c, 0, 89, 56
1, 161791, Note_on_c, 0, 97, 66
1, 161797, Note_on_c, 0, 94, 65
1, 161803, Note_off_c, 0, 58, 58
1, 161809, Note_off_c, 0, 46, 62
1, 161853, Note_off_c, 0, 94, 58
1, 161862, Note_off_c, 0, 97, 64
1, 161868, Note_on_c, 0, 89, 71
1, 161892, Note_off_c, 0, 89, 67
1, 161943, Note_on_c, 0, 89, 83
1, 161955, Note_on_c, 0, 94, 74
1, 162002, Note_off_c, 0, 89, 60
1, 162020, Note_on_c, 0, 59, 99
1, 162024, Note_on_c, 0, 47, 82
1, 162024, Note_on_c, 0, 55, 84
1, 162026, Note_on_c, 0, 88, 74
1, 162027, Note_on_c, 0, 91, 74
1, 162028, Note_on_c, 0, 52, 75
1, 162032, Note_off_c, 0, 94, 60
1, 162044, Control_c, 0, 64, 112
1, 162059, Control_c, 0, 64, 82
1, 162074, Control_c, 0, 64, 62
1, 162089, Control_c, 0, 64, 38
1, 162098, Note_off_c, 0, 88, 57
1, 162099, Note_off_c, 0, 91, 60
1, 162104, Note_on_c, 0, 95, 75
1, 162104, Control_c, 0, 64, 64
1, 162115, Note_on_c, 0, 90, 74
1, 162118, Control_c, 0, 64, 85
1, 162133, Control_c, 0, 64, 127
1, 162175, Note_off_c, 0, 95, 66
1, 162185, Note_on_c, 0, 91, 63
1, 162187, Note_off_c, 0, 90, 58
1, 162192, Note_on_c, 0, 88, 76
1, 162199, Note_off_c, 0, 47, 63
1, 162205, Note_off_c, 0, 91, 60
1, 162214, Note_off_c, 0, 88, 71
1, 162222, Note_off_c, 0, 59, 61
1, 162261, Note_on_c, 0, 87, 82
1, 162270, Note_on_c, 0, 90, 73
1, 162339, Note_on_c, 0, 61, 106
1, 162343, Note_off_c, 0, 87, 60
1, 162348, Note_on_c, 0, 49, 87
1, 162348, Note_on_c, 0, 83, 76
1, 162352, Note_on_c, 0, 88, 68
1, 162353, Note_off_c, 0, 90, 62
1, 162407, Note_off_c, 0, 88, 61
1, 162427, Note_on_c, 0, 90, 64
1, 162429, Note_off_c, 0, 83, 62
1, 162441, Note_on_c, 0, 87, 75
1, 162463, Note_off_c, 0, 55, 61
1, 162470, Note_off_c, 0, 52, 62
1, 162489, Note_off_c, 0, 49, 64
1, 162504, Note_on_c, 0, 88, 64
1, 162506, Note_off_c, 0, 87, 63
1, 162510, Note_off_c, 0, 61, 58
1, 162512, Note_off_c, 0, 90, 64
1, 162521, Note_off_c, 0, 88, 67
1, 162523, Note_on_c, 0, 83, 69
1, 162549, Note_off_c, 0, 83, 67
1, 162592, Note_on_c, 0, 82, 83
1, 162604, Note_on_c, 0, 87, 76
1, 162671, Note_off_c, 0, 82, 63
1, 162673, Note_on_c, 0, 63, 103
1, 162676, Note_on_c, 0, 83, 72
1, 162679, Note_off_c, 0, 87, 61
1, 162679, Note_on_c, 0, 59, 74
1, 162681, Note_on_c, 0, 55, 71
1, 162682, Note_on_c, 0, 51, 85
1, 162684, Note_on_c, 0, 79, 70
1, 162689, Control_c, 0, 64, 90
1, 162703, Control_c, 0, 64, 65
1, 162718, Control_c, 0, 64, 0
1, 162728, Note_off_c, 0, 83, 58
1, 162747, Control_c, 0, 64, 44
1, 162755, Note_off_c, 0, 79, 58
1, 162759, Note_on_c, 0, 87, 74
1, 162762, Control_c, 0, 64, 68
1, 162770, Note_on_c, 0, 82, 72
1, 162779, Control_c, 0, 64, 127
1, 162830, Note_on_c, 0, 83, 60
1, 162837, Note_off_c, 0, 87, 62
1, 162841, Note_off_c, 0, 82, 63
1, 162848, Note_off_c, 0, 83, 64
1, 162852, Note_on_c, 0, 79, 72
1, 162890, Note_off_c, 0, 79, 53
1, 162918, Note_on_c, 0, 78, 84
1, 162918, Note_off_c, 0, 63, 60
1, 162926, Note_off_c, 0, 51, 60
1, 162935, Note_on_c, 0, 82, 77
1, 163027, Note_on_c, 0, 79, 76
1, 163028, Note_on_c, 0, 64, 105
1, 163029, Note_off_c, 0, 78, 61
1, 163033, Note_on_c, 0, 76, 73
1, 163039, Note_on_c, 0, 52, 84
1, 163043, Note_off_c, 0, 82, 63
1, 163104, Note_off_c, 0, 79, 59
1, 163126, Note_off_c, 0, 76, 60
1, 163133, Note_on_c, 0, 82, 71
1, 163138, Note_off_c, 0, 64, 60
1, 163146, Note_on_c, 0, 78, 67
1, 163165, Note_off_c, 0, 59, 61
1, 163183, Note_off_c, 0, 55, 62
1, 163204, Note_off_c, 0, 52, 64
1, 163215, Note_on_c, 0, 79, 73
1, 163230, Note_off_c, 0, 78, 64
1, 163232, Note_off_c, 0, 82, 64
1, 163236, Note_off_c, 0, 79, 69
1, 163240, Note_on_c, 0, 76, 75
1, 163272, Note_off_c, 0, 76, 65
1, 163327, Note_on_c, 0, 71, 78
1, 163348, Note_on_c, 0, 78, 66
1, 163391, Note_off_c, 0, 71, 58
1, 163438, Control_c, 0, 64, 108
1, 163452, Control_c, 0, 64, 79
1, 163458, Note_off_c, 0, 78, 63
1, 163467, Control_c, 0, 64, 48
1, 163472, Note_on_c, 0, 34, 76
1, 163482, Control_c, 0, 64, 0
1, 163512, Control_c, 0, 64, 33
1, 163520, Note_on_c, 0, 65, 58
1, 163526, Control_c, 0, 64, 74
1, 163541, Control_c, 0, 64, 127
1, 163555, Note_off_c, 0, 34, 61
1, 163576, Note_off_c, 0, 65, 60
1, 163579, Note_on_c, 0, 68, 68
1, 163636, Note_on_c, 0, 72, 67
1, 163643, Note_off_c, 0, 68, 65
1, 163662, Note_off_c, 0, 72, 67
1, 163730, Note_on_c, 0, 77, 70
1, 163791, Note_off_c, 0, 77, 38
1, 163797, Note_on_c, 0, 80, 70
1, 163829, Note_on_c, 0, 84, 62
1, 163857, Note_off_c, 0, 80, 63
1, 163874, Note_on_c, 0, 89, 71
1, 163886, Note_off_c, 0, 84, 62
1, 163907, Note_off_c, 0, 89, 63
1, 164032, Note_on_c, 0, 65, 56
1, 164033, Note_on_c, 0, 60, 52
1, 164040, Note_on_c, 0, 56, 52
1, 164041, Note_on_c, 0, 53, 50
1, 164062, Note_on_c, 0, 92, 62
1, 164067, Note_on_c, 0, 96, 57
1, 164097, Control_c, 0, 64, 117
1, 164112, Control_c, 0, 64, 93
1, 164127, Control_c, 0, 64, 75
1, 164142, Control_c, 0, 64, 63
1, 164156, Control_c, 0, 64, 59
1, 164171, Control_c, 0, 64, 66
1, 164186, Control_c, 0, 64, 77
1, 164200, Control_c, 0, 64, 127
1, 164251, Note_off_c, 0, 96, 61
1, 164259, Note_off_c, 0, 92, 61
1, 164271, Note_on_c, 0, 98, 60
1, 164283, Note_on_c, 0, 91, 54
1, 164331, Note_off_c, 0, 98, 57
1, 164357, Note_off_c, 0, 91, 59
1, 164364, Note_off_c, 0, 53, 51
1, 164386, Note_on_c, 0, 90, 55
1, 164389, Note_on_c, 0, 95, 57
1, 164402, Note_off_c, 0, 65, 59
1, 164448, Note_off_c, 0, 90, 53
1, 164450, Note_off_c, 0, 95, 59
1, 164476, Note_on_c, 0, 96, 65
1, 164489, Note_on_c, 0, 89, 50
1, 164525, Note_off_c, 0, 96, 59
1, 164541, Note_off_c, 0, 89, 38
1, 164581, Note_on_c, 0, 67, 79
1, 164581, Note_on_c, 0, 88, 67
1, 164582, Note_on_c, 0, 55, 71
1, 164586, Note_on_c, 0, 92, 68
1, 164605, Note_off_c, 0, 56, 41
1, 164636, Note_off_c, 0, 88, 46
1, 164673, Note_off_c, 0, 55, 58
1, 164673, Note_off_c, 0, 60, 45
1, 164689, Note_off_c, 0, 92, 60
1, 164699, Note_on_c, 0, 94, 71
1, 164713, Note_on_c, 0, 87, 57
1, 164749, Note_off_c, 0, 67, 56
1, 164768, Note_off_c, 0, 94, 64
1, 164780, Note_on_c, 0, 91, 69
1, 164798, Note_on_c, 0, 86, 61
1, 164831, Note_off_c, 0, 87, 23
1, 164849, Note_off_c, 0, 86, 49
1, 164861, Note_on_c, 0, 92, 77
1, 164864, Note_on_c, 0, 85, 74
1, 164867, Note_off_c, 0, 91, 61
1, 164897, Note_off_c, 0, 85, 59
1, 164923, Note_off_c, 0, 92, 62
1, 164952, Note_on_c, 0, 68, 92
1, 164956, Note_on_c, 0, 88, 72
1, 164961, Note_on_c, 0, 65, 76
1, 164963, Note_on_c, 0, 84, 77
1, 164964, Note_on_c, 0, 60, 63
1, 164964, Control_c, 0, 64, 125
1, 164966, Note_on_c, 0, 56, 68
1, 164978, Control_c, 0, 64, 89
1, 164993, Control_c, 0, 64, 67
1, 164998, Note_off_c, 0, 84, 65
1, 165008, Control_c, 0, 64, 32
1, 165022, Control_c, 0, 64, 24
1, 165023, Note_off_c, 0, 88, 63
1, 165037, Control_c, 0, 64, 59
1, 165052, Control_c, 0, 64, 80
1, 165058, Note_on_c, 0, 89, 74
1, 165067, Control_c, 0, 64, 127
1, 165070, Note_on_c, 0, 83, 73
1, 165122, Note_off_c, 0, 89, 54
1, 165129, Note_off_c, 0, 83, 63
1, 165138, Note_on_c, 0, 82, 72
1, 165140, Note_on_c, 0, 85, 74
1, 165195, Note_off_c, 0, 85, 59
1, 165208, Note_off_c, 0, 82, 63
1, 165212, Note_on_c, 0, 81, 71
1, 165219, Note_on_c, 0, 86, 70
1, 165265, Note_off_c, 0, 56, 37
1, 165278, Note_off_c, 0, 81, 64
1, 165285, Note_on_c, 0, 83, 67
1, 165289, Note_on_c, 0, 80, 70
1, 165289, Note_off_c, 0, 86, 61
1, 165339, Note_off_c, 0, 80, 63
1, 165343, Note_off_c, 0, 83, 64
1, 165367, Note_on_c, 0, 85, 79
1, 165368, Note_on_c, 0, 79, 77
1, 165430, Note_off_c, 0, 85, 63
1, 165434, Note_off_c, 0, 79, 62
1, 165445, Note_on_c, 0, 80, 79
1, 165448, Note_on_c, 0, 78, 74
1, 165500, Note_off_c, 0, 80, 63
1, 165502, Note_off_c, 0, 78, 61
1, 165514, Note_off_c, 0, 68, 55
1, 165517, Note_on_c, 0, 77, 85
1, 165525, Note_on_c, 0, 83, 75
1, 165563, Note_off_c, 0, 77, 58
1, 165585, Note_off_c, 0, 83, 65
1, 165592, Note_on_c, 0, 79, 72
1, 165595, Note_on_c, 0, 76, 75
1, 165626, Note_off_c, 0, 76, 63
1, 165648, Note_off_c, 0, 79, 60
1, 165659, Note_on_c, 0, 82, 86
1, 165662, Note_on_c, 0, 75, 80
1, 165721, Note_on_c, 0, 73, 64
1, 165724, Note_off_c, 0, 82, 64
1, 165734, Note_on_c, 0, 77, 81
1, 165734, Note_off_c, 0, 75, 61
1, 165742, Note_on_c, 0, 74, 74
1, 165743, Note_off_c, 0, 73, 43
1, 165799, Note_off_c, 0, 74, 62
1, 165805, Note_on_c, 0, 73, 76
1, 165813, Note_off_c, 0, 77, 64
1, 165819, Note_on_c, 0, 80, 74
1, 165866, Note_off_c, 0, 73, 61
1, 165884, Note_off_c, 0, 80, 62
1, 165905, Note_on_c, 0, 76, 73
1, 165907, Note_on_c, 0, 70, 111
1, 165916, Note_on_c, 0, 58, 90
1, 165926, Note_on_c, 0, 72, 66
1, 165966, Note_off_c, 0, 70, 69
1, 165976, Note_off_c, 0, 65, 48
1, 165989, Note_off_c, 0, 72, 59
1, 165997, Note_on_c, 0, 75, 71
1, 166006, Note_off_c, 0, 60, 40
1, 166008, Note_on_c, 0, 79, 71
1, 166009, Note_off_c, 0, 76, 58
1, 166019, Note_off_c, 0, 58, 66
1, 166085, Note_off_c, 0, 75, 61
1, 166095, Note_on_c, 0, 77, 74
1, 166096, Note_on_c, 0, 72, 71
1, 166112, Note_off_c, 0, 72, 69
1, 166125, Note_off_c, 0, 79, 57
1, 166196, Note_on_c, 0, 40, 92
1, 166216, Note_on_c, 0, 68, 80
1, 166219, Note_on_c, 0, 75, 74
1, 166232, Note_off_c, 0, 77, 63
1, 166233, Note_off_c, 0, 40, 61
1, 166242, Note_off_c, 0, 75, 69
1, 166265, Note_off_c, 0, 68, 65
1, 166373, Control_c, 0, 64, 105
1, 166381, Note_on_c, 0, 64, 97
1, 166387, Control_c, 0, 64, 66
1, 166389, Note_on_c, 0, 61, 77
1, 166395, Note_on_c, 0, 56, 69
1, 166396, Note_on_c, 0, 73, 79
1, 166402, Control_c, 0, 64, 0
1, 166432, Control_c, 0, 64, 53
1, 166447, Control_c, 0, 64, 76
1, 166462, Control_c, 0, 64, 127
1, 166480, Note_on_c, 0, 62, 70
1, 166497, Note_off_c, 0, 64, 63
1, 166512, Note_off_c, 0, 56, 63
1, 166519, Note_off_c, 0, 73, 61
1, 166533, Note_on_c, 0, 66, 67
1, 166539, Note_off_c, 0, 62, 57
1, 166559, Note_on_c, 0, 68, 76
1, 166569, Note_off_c, 0, 61, 57
1, 166612, Note_off_c, 0, 66, 62
1, 166617, Note_on_c, 0, 70, 41
1, 166619, Note_off_c, 0, 68, 67
1, 166628, Note_on_c, 0, 73, 69
1, 166647, Note_off_c, 0, 70, 54
1, 166648, Note_off_c, 0, 73, 65
1, 166692, Note_on_c, 0, 74, 71
1, 166717, Note_off_c, 0, 74, 67
1, 166750, Note_on_c, 0, 78, 74
1, 166802, Note_on_c, 0, 85, 62
1, 166803, Note_off_c, 0, 78, 63
1, 166815, Note_on_c, 0, 71, 92
1, 166821, Note_on_c, 0, 66, 81
1, 166821, Note_on_c, 0, 83, 83
1, 166826, Note_on_c, 0, 62, 65
1, 166828, Note_on_c, 0, 59, 75
1, 166831, Note_off_c, 0, 85, 66
1, 166834, Note_off_c, 0, 71, 72
1, 166863, Note_off_c, 0, 83, 61
1, 166867, Note_off_c, 0, 66, 65
1, 166876, Note_off_c, 0, 62, 62
1, 166885, Note_off_c, 0, 59, 64
1, 166894, Note_on_c, 0, 71, 81
1, 166956, Note_on_c, 0, 74, 79
1, 166959, Note_off_c, 0, 71, 61
1, 166963, Note_on_c, 0, 72, 21
1, 166990, Note_off_c, 0, 74, 60
1, 167002, Note_on_c, 0, 78, 77
1, 167004, Note_off_c, 0, 72, 53
1, 167023, Note_off_c, 0, 78, 71
1, 167068, Note_on_c, 0, 83, 77
1, 167099, Note_off_c, 0, 83, 59
1, 167120, Note_on_c, 0, 86, 84
1, 167137, Control_c, 0, 64, 99
1, 167152, Control_c, 0, 64, 71
1, 167166, Control_c, 0, 64, 21
1, 167171, Note_on_c, 0, 90, 74
1, 167176, Note_off_c, 0, 86, 60
1, 167181, Control_c, 0, 64, 0
1, 167208, Note_on_c, 0, 95, 83
1, 167210, Note_on_c, 0, 34, 72
1, 167225, Control_c, 0, 64, 29
1, 167240, Control_c, 0, 64, 79
1, 167244, Note_off_c, 0, 90, 61
1, 167246, Note_off_c, 0, 34, 66
1, 167255, Control_c, 0, 64, 127
1, 167296, Note_off_c, 0, 95, 64
1, 167427, Note_on_c, 0, 65, 64
1, 167428, Note_on_c, 0, 96, 58
1, 167430, Note_on_c, 0, 92, 59
1, 167441, Note_on_c, 0, 60, 41
1, 167461, Note_on_c, 0, 56, 42
1, 167465, Note_on_c, 0, 53, 31
1, 167484, Note_off_c, 0, 92, 47
1, 167533, Note_off_c, 0, 96, 64
1, 167542, Note_off_c, 0, 53, 57
1, 167552, Note_off_c, 0, 65, 32
1, 167562, Note_on_c, 0, 98, 68
1, 167580, Note_on_c, 0, 91, 57
1, 167611, Note_off_c, 0, 91, 50
1, 167620, Note_off_c, 0, 98, 54
1, 167657, Note_on_c, 0, 90, 68
1, 167658, Note_on_c, 0, 95, 65
1, 167712, Note_off_c, 0, 90, 57
1, 167712, Note_off_c, 0, 95, 62
1, 167737, Note_on_c, 0, 96, 76
1, 167745, Note_on_c, 0, 89, 71
1, 167785, Note_off_c, 0, 96, 62
1, 167785, Note_off_c, 0, 56, 38
1, 167818, Note_off_c, 0, 89, 36
1, 167820, Note_on_c, 0, 55, 77
1, 167823, Note_on_c, 0, 67, 82
1, 167828, Note_on_c, 0, 88, 74
1, 167834, Note_on_c, 0, 92, 74
1, 167839, Note_off_c, 0, 60, 42
1, 167861, Note_off_c, 0, 88, 61
1, 167866, Note_off_c, 0, 55, 59
1, 167869, Note_off_c, 0, 67, 62
1, 167907, Note_off_c, 0, 92, 62
1, 167910, Note_on_c, 0, 94, 84
1, 167917, Note_on_c, 0, 87, 74
1, 167977, Note_off_c, 0, 94, 63
1, 167979, Note_off_c, 0, 87, 34
1, 167987, Note_on_c, 0, 86, 73
1, 167988, Note_on_c, 0, 91, 73
1, 168035, Note_off_c, 0, 86, 60
1, 168050, Note_off_c, 0, 91, 62
1, 168052, Note_on_c, 0, 92, 89
1, 168057, Note_on_c, 0, 85, 80
1, 168089, Note_off_c, 0, 85, 61
1, 168112, Note_off_c, 0, 92, 62
1, 168122, Control_c, 0, 64, 115
1, 168126, Note_on_c, 0, 60, 48
1, 168134, Note_on_c, 0, 65, 86
1, 168135, Note_on_c, 0, 68, 97
1, 168137, Control_c, 0, 64, 83
1, 168140, Note_on_c, 0, 88, 82
1, 168147, Note_on_c, 0, 56, 67
1, 168152, Control_c, 0, 64, 62
1, 168153, Note_on_c, 0, 84, 69
1, 168167, Control_c, 0, 64, 45
1, 168182, Control_c, 0, 64, 70
1, 168184, Note_off_c, 0, 84, 65
1, 168197, Control_c, 0, 64, 100
1, 168208, Note_off_c, 0, 88, 59
1, 168211, Control_c, 0, 64, 127
1, 168232, Note_on_c, 0, 89, 84
1, 168247, Note_on_c, 0, 83, 76
1, 168265, Note_off_c, 0, 56, 61
1, 168306, Note_off_c, 0, 89, 61
1, 168308, Note_off_c, 0, 83, 65
1, 168310, Note_on_c, 0, 82, 78
1, 168313, Note_on_c, 0, 85, 78
1, 168331, Note_off_c, 0, 68, 63
1, 168379, Note_on_c, 0, 81, 83
1, 168384, Note_off_c, 0, 82, 65
1, 168384, Note_off_c, 0, 85, 59
1, 168394, Note_on_c, 0, 86, 70
1, 168466, Note_off_c, 0, 81, 66
1, 168468, Note_off_c, 0, 86, 64
1, 168471, Note_on_c, 0, 83, 76
1, 168475, Note_on_c, 0, 80, 78
1, 168478, Note_on_c, 0, 70, 105
1, 168487, Note_on_c, 0, 58, 81
1, 168529, Note_off_c, 0, 83, 64
1, 168543, Note_off_c, 0, 80, 63
1, 168563, Note_on_c, 0, 79, 78
1, 168563, Note_off_c, 0, 65, 60
1, 168566, Note_on_c, 0, 85, 77
1, 168574, Note_off_c, 0, 60, 63
1, 168585, Note_off_c, 0, 58, 63
1, 168610, Note_off_c, 0, 70, 60
1, 168620, Note_off_c, 0, 85, 61
1, 168623, Note_off_c, 0, 79, 62
1, 168624, Note_on_c, 0, 78, 79
1, 168631, Note_on_c, 0, 80, 77
1, 168696, Note_on_c, 0, 77, 90
1, 168705, Note_on_c, 0, 83, 87
1, 168706, Note_off_c, 0, 78, 63
1, 168708, Note_off_c, 0, 80, 63
1, 168768, Control_c, 0, 64, 93
1, 168769, Note_off_c, 0, 77, 42
1, 168782, Note_on_c, 0, 72, 106
1, 168783, Control_c, 0, 64, 71
1, 168785, Note_off_c, 0, 83, 63
1, 168785, Note_on_c, 0, 65, 79
1, 168786, Note_on_c, 0, 68, 88
1, 168789, Note_on_c, 0, 60, 81
1, 168789, Note_on_c, 0, 79, 70
1, 168792, Note_on_c, 0, 76, 66
1, 168797, Control_c, 0, 64, 32
1, 168812, Control_c, 0, 64, 0
1, 168827, Control_c, 0, 64, 29
1, 168842, Control_c, 0, 64, 63
1, 168855, Note_off_c, 0, 76, 62
1, 168857, Control_c, 0, 64, 83
1, 168860, Note_off_c, 0, 79, 62
1, 168871, Control_c, 0, 64, 127
1, 168875, Note_on_c, 0, 82, 81
1, 168876, Note_on_c, 0, 75, 81
1, 168951, Note_off_c, 0, 82, 63
1, 168957, Note_off_c, 0, 75, 64
1, 168957, Note_on_c, 0, 77, 78
1, 168958, Note_on_c, 0, 74, 74
1, 169012, Note_off_c, 0, 60, 58
1, 169034, Note_on_c, 0, 73, 87
1, 169037, Note_off_c, 0, 77, 59
1, 169039, Note_off_c, 0, 74, 63
1, 169040, Note_off_c, 0, 72, 62
1, 169046, Note_on_c, 0, 80, 67
1, 169086, Note_off_c, 0, 73, 60
1, 169106, Note_off_c, 0, 80, 63
1, 169136, Note_on_c, 0, 74, 101
1, 169138, Control_c, 0, 64, 103
1, 169144, Note_on_c, 0, 72, 90
1, 169148, Note_on_c, 0, 62, 82
1, 169152, Note_on_c, 0, 76, 76
1, 169153, Control_c, 0, 64, 73
1, 169168, Control_c, 0, 64, 31
1, 169191, Control_c, 0, 64, 41
1, 169206, Control_c, 0, 64, 74
1, 169220, Control_c, 0, 64, 127
1, 169240, Note_off_c, 0, 74, 65
1, 169250, Note_off_c, 0, 72, 62
1, 169262, Note_off_c, 0, 76, 54
1, 169280, Note_on_c, 0, 79, 77
1, 169297, Note_on_c, 0, 70, 81
1, 169302, Note_off_c, 0, 62, 61
1, 169305, Note_off_c, 0, 65, 60
1, 169311, Note_off_c, 0, 68, 63
1, 169351, Note_off_c, 0, 70, 58
1, 169375, Note_off_c, 0, 79, 59
1, 169386, Note_on_c, 0, 69, 42
1, 169386, Note_on_c, 0, 73, 75
1, 169502, Note_on_c, 0, 74, 67
1, 169505, Note_on_c, 0, 68, 73
1, 169516, Note_off_c, 0, 73, 60
1, 169529, Note_off_c, 0, 69, 26
1, 169632, Note_off_c, 0, 68, 56
1, 169650, Note_on_c, 0, 51, 93
1, 169654, Note_on_c, 0, 75, 79
1, 169665, Control_c, 0, 64, 89
1, 169680, Control_c, 0, 64, 67
1, 169694, Control_c, 0, 64, 29
1, 169709, Control_c, 0, 64, 0
1, 169723, Note_off_c, 0, 74, 62
1, 169724, Control_c, 0, 64, 29
1, 169735, Note_on_c, 0, 68, 71
1, 169738, Control_c, 0, 64, 56
1, 169753, Control_c, 0, 64, 73
1, 169768, Control_c, 0, 64, 116
1, 169778, Note_off_c, 0, 75, 61
1, 169783, Control_c, 0, 64, 127
1, 169807, Note_on_c, 0, 63, 75
1, 169809, Note_off_c, 0, 68, 65
1, 169836, Note_off_c, 0, 63, 67
1, 169896, Note_on_c, 0, 44, 64
1, 169940, Note_off_c, 0, 51, 61
1, 169952, Note_on_c, 0, 63, 61
1, 170024, Note_on_c, 0, 56, 60
1, 170060, Note_off_c, 0, 63, 60
1, 170070, Note_on_c, 0, 39, 53
1, 170082, Note_off_c, 0, 44, 59
1, 170083, Note_on_c, 0, 51, 60
1, 170092, Note_off_c, 0, 56, 62
1, 170117, Note_off_c, 0, 51, 64
1, 170357, Note_on_c, 0, 53, 51
1, 170364, Note_on_c, 0, 32, 39
1, 170393, Note_on_c, 0, 48, 41
1, 170399, Control_c, 0, 64, 102
1, 170414, Control_c, 0, 64, 87
1, 170429, Control_c, 0, 64, 73
1, 170443, Control_c, 0, 64, 59
1, 170445, Note_on_c, 0, 44, 51
1, 170449, Note_off_c, 0, 39, 36
1, 170458, Control_c, 0, 64, 0
1, 170532, Note_on_c, 0, 41, 30
1, 170532, Control_c, 0, 64, 46
1, 170547, Control_c, 0, 64, 64
1, 170561, Control_c, 0, 64, 76
1, 170570, Note_off_c, 0, 32, 53
1, 170576, Control_c, 0, 64, 90
1, 170591, Control_c, 0, 64, 96
1, 170606, Control_c, 0, 64, 101
1, 170607, Note_on_c, 0, 39, 40
1, 170618, Note_off_c, 0, 44, 49
1, 170621, Control_c, 0, 64, 109
1, 170629, Note_off_c, 0, 48, 50
1, 170635, Control_c, 0, 64, 119
1, 170636, Note_off_c, 0, 53, 60
1, 170646, Note_off_c, 0, 41, 35
1, 170650, Control_c, 0, 64, 125
1, 170665, Control_c, 0, 64, 127
1, 170736, Note_on_c, 0, 44, 49
1, 170780, Note_off_c, 0, 39, 31
1, 170852, Control_c, 0, 64, 114
1, 170866, Control_c, 0, 64, 102
1, 170881, Control_c, 0, 64, 89
1, 170896, Control_c, 0, 64, 75
1, 170901, Note_on_c, 0, 55, 53
1, 170904, Note_on_c, 0, 51, 48
1, 170911, Control_c, 0, 64, 63
1, 170917, Note_on_c, 0, 48, 31
1, 170919, Note_on_c, 0, 43, 46
1, 170926, Control_c, 0, 64, 49
1, 170937, Note_off_c, 0, 44, 38
1, 170940, Control_c, 0, 64, 52
1, 170955, Control_c, 0, 64, 62
1, 170970, Control_c, 0, 64, 69
1, 170984, Control_c, 0, 64, 79
1, 170991, Note_off_c, 0, 51, 50
1, 170999, Control_c, 0, 64, 91
1, 171014, Control_c, 0, 64, 101
1, 171029, Control_c, 0, 64, 104
1, 171044, Control_c, 0, 64, 107
1, 171058, Control_c, 0, 64, 111
1, 171061, Note_on_c, 0, 44, 48
1, 171069, Note_off_c, 0, 55, 59
1, 171073, Control_c, 0, 64, 125
1, 171088, Control_c, 0, 64, 127
1, 171091, Note_off_c, 0, 43, 41
1, 171136, Note_off_c, 0, 44, 52
1, 171195, Note_on_c, 0, 39, 42
1, 171267, Control_c, 0, 64, 111
1, 171276, Note_on_c, 0, 56, 63
1, 171279, Note_on_c, 0, 44, 49
1, 171282, Control_c, 0, 64, 90
1, 171297, Control_c, 0, 64, 79
1, 171309, Note_off_c, 0, 39, 45
1, 171312, Control_c, 0, 64, 79
1, 171316, Note_on_c, 0, 32, 46
1, 171326, Control_c, 0, 64, 92
1, 171341, Control_c, 0, 64, 127
1, 171379, Note_off_c, 0, 32, 54
1, 171401, Note_off_c, 0, 48, 40
1, 171402, Note_off_c, 0, 44, 58
1, 171432, Note_on_c, 0, 39, 44
1, 171439, Note_off_c, 0, 56, 63
1, 171520, Note_off_c, 0, 39, 51
1, 171523, Note_on_c, 0, 44, 58
1, 171628, Note_on_c, 0, 58, 70
1, 171631, Note_on_c, 0, 56, 62
1, 171631, Control_c, 0, 64, 113
1, 171645, Control_c, 0, 64, 83
1, 171650, Note_on_c, 0, 46, 51
1, 171653, Note_on_c, 0, 51, 46
1, 171654, Note_off_c, 0, 44, 56
1, 171660, Control_c, 0, 64, 61
1, 171675, Control_c, 0, 64, 0
1, 171705, Control_c, 0, 64, 62
1, 171720, Control_c, 0, 64, 80
1, 171735, Control_c, 0, 64, 127
1, 171762, Note_off_c, 0, 46, 56
1, 171770, Note_off_c, 0, 51, 36
1, 171780, Note_on_c, 0, 44, 49
1, 171809, Note_off_c, 0, 58, 61
1, 171848, Note_off_c, 0, 44, 58
1, 171879, Note_on_c, 0, 39, 48
1, 171971, Control_c, 0, 64, 97
1, 171976, Note_off_c, 0, 39, 57
1, 171986, Control_c, 0, 64, 74
1, 171991, Note_on_c, 0, 32, 51
1, 171994, Note_on_c, 0, 60, 70
1, 172000, Control_c, 0, 64, 71
1, 172005, Note_on_c, 0, 48, 51
1, 172015, Control_c, 0, 64, 85
1, 172030, Control_c, 0, 64, 127
1, 172107, Note_on_c, 0, 39, 56
1, 172109, Note_off_c, 0, 56, 62
1, 172116, Note_off_c, 0, 48, 60
1, 172129, Note_off_c, 0, 60, 64
1, 172156, Note_off_c, 0, 32, 52
1, 172195, Note_on_c, 0, 44, 64
1, 172248, Note_off_c, 0, 44, 59
1, 172304, Control_c, 0, 64, 114
1, 172319, Control_c, 0, 64, 81
1, 172320, Note_on_c, 0, 61, 73
1, 172322, Note_off_c, 0, 39, 22
1, 172327, Note_on_c, 0, 57, 63
1, 172333, Note_on_c, 0, 49, 58
1, 172334, Control_c, 0, 64, 52
1, 172334, Note_on_c, 0, 54, 54
1, 172336, Note_on_c, 0, 30, 51
1, 172349, Control_c, 0, 64, 0
1, 172409, Control_c, 0, 64, 61
1, 172424, Control_c, 0, 64, 80
1, 172438, Control_c, 0, 64, 127
1, 172444, Note_off_c, 0, 30, 52
1, 172474, Note_on_c, 0, 37, 51
1, 172496, Note_off_c, 0, 49, 61
1, 172498, Note_off_c, 0, 61, 62
1, 172558, Note_off_c, 0, 37, 59
1, 172561, Note_on_c, 0, 42, 63
1, 172661, Note_on_c, 0, 49, 62
1, 172668, Note_on_c, 0, 63, 87
1, 172678, Note_on_c, 0, 51, 75
1, 172683, Note_off_c, 0, 42, 56
1, 172767, Note_off_c, 0, 49, 61
1, 172777, Note_off_c, 0, 57, 62
1, 172791, Note_on_c, 0, 42, 69
1, 172802, Note_off_c, 0, 54, 62
1, 172811, Note_off_c, 0, 51, 61
1, 172861, Note_off_c, 0, 63, 62
1, 172864, Note_off_c, 0, 42, 58
1, 172870, Note_on_c, 0, 37, 69
1, 172993, Control_c, 0, 64, 99
1, 172999, Note_on_c, 0, 65, 92
1, 173002, Note_on_c, 0, 30, 67
1, 173003, Note_on_c, 0, 57, 49
1, 173005, Note_on_c, 0, 61, 77
1, 173008, Note_on_c, 0, 53, 72
1, 173008, Note_off_c, 0, 37, 52
1, 173008, Control_c, 0, 64, 75
1, 173023, Control_c, 0, 64, 49
1, 173038, Control_c, 0, 64, 0
1, 173082, Control_c, 0, 64, 46
1, 173097, Control_c, 0, 64, 67
1, 173112, Control_c, 0, 64, 82
1, 173113, Note_off_c, 0, 30, 60
1, 173126, Note_on_c, 0, 37, 63
1, 173127, Control_c, 0, 64, 112
1, 173142, Control_c, 0, 64, 127
1, 173193, Note_off_c, 0, 53, 65
1, 173212, Note_off_c, 0, 65, 62
1, 173229, Note_on_c, 0, 42, 69
1, 173243, Note_off_c, 0, 37, 57
1, 173339, Note_on_c, 0, 66, 91
1, 173341, Note_on_c, 0, 49, 74
1, 173344, Note_on_c, 0, 54, 83
1, 173370, Note_off_c, 0, 42, 58
1, 173433, Note_off_c, 0, 57, 59
1, 173443, Note_off_c, 0, 49, 62
1, 173469, Note_on_c, 0, 42, 78
1, 173502, Note_off_c, 0, 54, 61
1, 173524, Note_off_c, 0, 61, 61
1, 173553, Note_on_c, 0, 37, 71
1, 173553, Note_off_c, 0, 66, 61
1, 173556, Note_off_c, 0, 42, 61
1, 173661, Note_off_c, 0, 37, 60
1, 173661, Control_c, 0, 64, 101
1, 173663, Note_on_c, 0, 30, 73
1, 173666, Note_on_c, 0, 66, 82
1, 173666, Note_on_c, 0, 56, 88
1, 173667, Note_on_c, 0, 68, 89
1, 173670, Note_on_c, 0, 61, 80
1, 173683, Control_c, 0, 64, 76
1, 173698, Control_c, 0, 64, 47
1, 173713, Control_c, 0, 64, 0
1, 173757, Control_c, 0, 64, 21
1, 173772, Control_c, 0, 64, 65
1, 173784, Note_off_c, 0, 30, 61
1, 173786, Control_c, 0, 64, 87
1, 173792, Note_on_c, 0, 37, 64
1, 173801, Control_c, 0, 64, 127
1, 173862, Note_off_c, 0, 56, 61
1, 173891, Note_on_c, 0, 42, 79
1, 173911, Note_off_c, 0, 68, 64
1, 173913, Note_off_c, 0, 37, 59
1, 174001, Note_on_c, 0, 49, 78
1, 174004, Note_on_c, 0, 69, 93
1, 174006, Note_off_c, 0, 42, 60
1, 174008, Note_on_c, 0, 57, 95
1, 174103, Note_off_c, 0, 49, 60
1, 174109, Note_on_c, 0, 42, 77
1, 174172, Note_off_c, 0, 61, 61
1, 174179, Note_on_c, 0, 37, 78
1, 174189, Note_off_c, 0, 42, 62
1, 174197, Note_off_c, 0, 57, 60
1, 174200, Note_off_c, 0, 66, 63
1, 174209, Note_off_c, 0, 37, 65
1, 174224, Note_off_c, 0, 69, 60
1, 174335, Control_c, 0, 64, 104
1, 174350, Control_c, 0, 64, 84
1, 174356, Note_on_c, 0, 28, 71
1, 174358, Note_on_c, 0, 71, 97
1, 174358, Note_on_c, 0, 59, 96
1, 174361, Note_on_c, 0, 64, 69
1, 174363, Note_on_c, 0, 67, 80
1, 174365, Control_c, 0, 64, 60
1, 174380, Control_c, 0, 64, 0
1, 174462, Control_c, 0, 64, 32
1, 174477, Control_c, 0, 64, 68
1, 174491, Control_c, 0, 64, 87
1, 174506, Control_c, 0, 64, 127
1, 174514, Note_off_c, 0, 28, 57
1, 174522, Note_on_c, 0, 40, 70
1, 174555, Note_off_c, 0, 40, 61
1, 174598, Note_off_c, 0, 59, 64
1, 174620, Note_off_c, 0, 71, 65
1, 174659, Note_on_c, 0, 47, 68
1, 174735, Note_off_c, 0, 47, 58
1, 174752, Note_on_c, 0, 73, 99
1, 174755, Note_on_c, 0, 52, 74
1, 174755, Note_on_c, 0, 61, 94
1, 174757, Note_on_c, 0, 59, 80
1, 174802, Note_off_c, 0, 59, 63
1, 174804, Note_off_c, 0, 67, 58
1, 174829, Note_off_c, 0, 64, 63
1, 174847, Note_on_c, 0, 47, 67
1, 174853, Note_off_c, 0, 52, 64
1, 174872, Note_off_c, 0, 47, 66
1, 174897, Note_off_c, 0, 61, 58
1, 174942, Note_on_c, 0, 40, 80
1, 174942, Note_off_c, 0, 73, 60
1, 175026, Control_c, 0, 64, 100
1, 175041, Control_c, 0, 64, 65
1, 175042, Note_on_c, 0, 63, 94
1, 175042, Note_on_c, 0, 67, 69
1, 175043, Note_on_c, 0, 75, 92
1, 175043, Note_off_c, 0, 40, 45
1, 175046, Note_on_c, 0, 71, 74
1, 175050, Note_on_c, 0, 28, 77
1, 175056, Control_c, 0, 64, 0
1, 175085, Control_c, 0, 64, 59
1, 175100, Control_c, 0, 64, 86
1, 175115, Control_c, 0, 64, 127
1, 175135, Note_off_c, 0, 28, 58
1, 175151, Note_on_c, 0, 40, 79
1, 175191, Note_off_c, 0, 40, 61
1, 175223, Note_off_c, 0, 63, 63
1, 175230, Note_off_c, 0, 75, 62
1, 175290, Note_on_c, 0, 47, 66
1, 175351, Note_off_c, 0, 67, 37
1, 175366, Note_on_c, 0, 76, 100
1, 175369, Note_on_c, 0, 64, 96
1, 175375, Note_on_c, 0, 59, 80
1, 175378, Note_on_c, 0, 52, 67
1, 175378, Note_off_c, 0, 47, 60
1, 175386, Note_off_c, 0, 71, 66
1, 175416, Poly_aftertouch_c, 0, 67, 127
1, 175423, Note_off_c, 0, 59, 61
1, 175457, Poly_aftertouch_c, 0, 67, 0
1, 175473, Note_on_c, 0, 47, 69
1, 175480, Note_off_c, 0, 52, 63
1, 175498, Note_off_c, 0, 47, 67
1, 175505, Note_off_c, 0, 64, 66
1, 175532, Note_off_c, 0, 76, 62
1, 175575, Note_on_c, 0, 40, 81
1, 175642, Control_c, 0, 64, 116
1, 175656, Control_c, 0, 64, 78
1, 175671, Control_c, 0, 64, 21
1, 175677, Note_on_c, 0, 76, 82
1, 175678, Note_on_c, 0, 66, 102
1, 175679, Note_on_c, 0, 78, 97
1, 175686, Control_c, 0, 64, 0
1, 175688, Note_on_c, 0, 71, 72
1, 175688, Note_off_c, 0, 40, 42
1, 175690, Note_on_c, 0, 28, 73
1, 175745, Control_c, 0, 64, 72
1, 175759, Control_c, 0, 64, 127
1, 175774, Note_off_c, 0, 28, 57
1, 175790, Note_on_c, 0, 40, 74
1, 175819, Note_off_c, 0, 40, 63
1, 175856, Note_off_c, 0, 66, 63
1, 175878, Note_off_c, 0, 78, 61
1, 175903, Note_on_c, 0, 47, 72
1, 175995, Note_off_c, 0, 47, 63
1, 176003, Note_on_c, 0, 79, 95
1, 176004, Note_on_c, 0, 67, 103
1, 176006, Note_on_c, 0, 52, 63
1, 176011, Note_on_c, 0, 59, 81
1, 176057, Note_off_c, 0, 59, 64
1, 176093, Note_on_c, 0, 47, 80
1, 176117, Note_off_c, 0, 52, 64
1, 176120, Note_off_c, 0, 67, 58
1, 176124, Note_off_c, 0, 47, 66
1, 176143, Note_off_c, 0, 79, 55
1, 176168, Note_off_c, 0, 76, 62
1, 176200, Note_off_c, 0, 71, 37
1, 176209, Note_on_c, 0, 40, 76
1, 176209, Note_on_c, 0, 41, 59
1, 176241, Note_off_c, 0, 41, 63
1, 176242, Note_off_c, 0, 40, 61
1, 176343, Control_c, 0, 64, 95
1, 176349, Note_on_c, 0, 25, 87
1, 176354, Note_on_c, 0, 80, 99
1, 176358, Note_on_c, 0, 77, 86
1, 176359, Note_on_c, 0, 68, 95
1, 176359, Control_c, 0, 64, 63
1, 176370, Note_on_c, 0, 71, 67
1, 176374, Control_c, 0, 64, 0
1, 176380, Note_on_c, 0, 72, 70
1, 176463, Control_c, 0, 64, 69
1, 176464, Note_off_c, 0, 72, 55
1, 176477, Control_c, 0, 64, 127
1, 176498, Note_off_c, 0, 68, 64
1, 176507, Note_on_c, 0, 37, 71
1, 176508, Note_off_c, 0, 25, 59
1, 176534, Note_off_c, 0, 37, 65
1, 176535, Note_off_c, 0, 80, 65
1, 176535, Note_off_c, 0, 71, 64
1, 176548, Note_off_c, 0, 77, 63
1, 176616, Note_on_c, 0, 37, 72
1, 176737, Note_on_c, 0, 49, 79
1, 176748, Note_off_c, 0, 37, 61
1, 176756, Note_on_c, 0, 82, 94
1, 176758, Note_on_c, 0, 70, 99
1, 176760, Note_on_c, 0, 73, 93
1, 176760, Note_on_c, 0, 77, 77
1, 176773, Note_off_c, 0, 49, 61
1, 176805, Note_off_c, 0, 70, 65
1, 176817, Note_off_c, 0, 82, 67
1, 176820, Note_off_c, 0, 73, 61
1, 176826, Note_off_c, 0, 77, 64
1, 176871, Note_on_c, 0, 49, 81
1, 176961, Note_on_c, 0, 61, 73
1, 176999, Note_off_c, 0, 49, 48
1, 177020, Note_off_c, 0, 61, 63
1, 177048, Control_c, 0, 64, 113
1, 177062, Note_on_c, 0, 75, 38
1, 177063, Control_c, 0, 64, 76
1, 177067, Note_on_c, 0, 56, 71
1, 177067, Note_on_c, 0, 71, 99
1, 177070, Note_on_c, 0, 59, 87
1, 177070, Note_on_c, 0, 80, 91
1, 177070, Note_on_c, 0, 83, 94
1, 177077, Control_c, 0, 64, 0
1, 177082, Note_on_c, 0, 51, 83
1, 177092, Note_off_c, 0, 59, 67
1, 177111, Note_off_c, 0, 51, 68
1, 177116, Note_off_c, 0, 56, 65
1, 177121, Control_c, 0, 64, 59
1, 177136, Control_c, 0, 64, 127
1, 177159, Note_off_c, 0, 71, 64
1, 177177, Note_off_c, 0, 83, 63
1, 177208, Note_off_c, 0, 75, 61
1, 177228, Note_on_c, 0, 49, 78
1, 177239, Note_off_c, 0, 80, 63
1, 177325, Note_on_c, 0, 37, 70
1, 177330, Note_off_c, 0, 49, 60
1, 177407, Note_on_c, 0, 73, 101
1, 177408, Note_on_c, 0, 85, 94
1, 177408, Note_on_c, 0, 77, 86
1, 177409, Note_on_c, 0, 80, 89
1, 177425, Note_on_c, 0, 49, 84
1, 177436, Note_off_c, 0, 37, 60
1, 177449, Note_off_c, 0, 73, 65
1, 177450, Note_off_c, 0, 49, 68
1, 177463, Note_off_c, 0, 77, 61
1, 177485, Note_off_c, 0, 80, 62
1, 177485, Note_off_c, 0, 85, 63
1, 177543, Note_on_c, 0, 49, 79
1, 177641, Note_on_c, 0, 61, 78
1, 177641, Note_off_c, 0, 49, 56
1, 177668, Note_off_c, 0, 61, 67
1, 177734, Poly_aftertouch_c, 0, 58, 127
1, 177782, Control_c, 0, 64, 112
1, 177785, Note_on_c, 0, 75, 100
1, 177786, Note_on_c, 0, 63, 92
1, 177786, Poly_aftertouch_c, 0, 58, 0
1, 177789, Note_on_c, 0, 53, 81
1, 177789, Note_on_c, 0, 59, 84
1, 177789, Note_on_c, 0, 87, 92
1, 177790, Note_on_c, 0, 80, 89
1, 177790, Note_on_c, 0, 83, 85
1, 177797, Control_c, 0, 64, 71
1, 177806, Note_off_c, 0, 63, 71
1, 177810, Note_on_c, 0, 61, 58
1, 177812, Control_c, 0, 64, 0
1, 177822, Note_off_c, 0, 59, 64
1, 177833, Note_off_c, 0, 61, 38
1, 177839, Note_off_c, 0, 53, 63
1, 177856, Control_c, 0, 64, 45
1, 177871, Control_c, 0, 64, 91
1, 177886, Control_c, 0, 64, 127
1, 177920, Note_off_c, 0, 75, 58
1, 177996, Note_on_c, 0, 37, 92
1, 177996, Note_off_c, 0, 83, 58
1, 178021, Note_off_c, 0, 80, 58
1, 178028, Note_off_c, 0, 87, 60
1, 178096, Note_on_c, 0, 49, 88
1, 178110, Note_off_c, 0, 37, 53
1, 178132, Note_off_c, 0, 49, 62
1, 178270, Note_on_c, 0, 85, 87
1, 178271, Note_on_c, 0, 80, 94
1, 178271, Note_on_c, 0, 89, 96
1, 178274, Note_on_c, 0, 77, 92
1, 178278, Note_on_c, 0, 65, 106
1, 178281, Note_on_c, 0, 61, 96
1, 178282, Note_on_c, 0, 56, 83
1, 178300, Note_off_c, 0, 65, 65
1, 178317, Note_off_c, 0, 61, 65
1, 178331, Note_off_c, 0, 56, 63
1, 178483, Note_on_c, 0, 49, 91
1, 178581, Note_off_c, 0, 77, 47
1, 178591, Note_off_c, 0, 89, 50
1, 178600, Note_off_c, 0, 49, 64
1, 178606, Note_on_c, 0, 37, 83
1, 178652, Note_off_c, 0, 37, 62
1, 178666, Note_off_c, 0, 80, 57
1, 178668, Note_off_c, 0, 85, 56
1, 178695, Poly_aftertouch_c, 0, 39, 127
1, 178736, Poly_aftertouch_c, 0, 39, 0
1, 178963, Note_on_c, 0, 23, 95
1, 179028, Control_c, 0, 64, 103
1, 179032, Note_on_c, 0, 85, 104
1, 179043, Control_c, 0, 64, 84
1, 179058, Control_c, 0, 64, 66
1, 179072, Control_c, 0, 64, 0
1, 179176, Control_c, 0, 64, 37
1, 179191, Control_c, 0, 64, 86
1, 179192, Note_on_c, 0, 35, 68
1, 179193, Note_off_c, 0, 23, 62
1, 179194, Note_on_c, 0, 97, 89
1, 179205, Control_c, 0, 64, 127
1, 179226, Note_off_c, 0, 35, 65
1, 179239, Note_off_c, 0, 85, 56
1, 179268, Note_on_c, 0, 90, 88
1, 179301, Note_off_c, 0, 97, 64
1, 179316, Note_on_c, 0, 42, 77
1, 179324, Note_off_c, 0, 90, 66
1, 179326, Note_on_c, 0, 85, 82
1, 179346, Note_off_c, 0, 85, 70
1, 179350, Note_off_c, 0, 42, 64
1, 179362, Note_on_c, 0, 50, 80
1, 179389, Note_off_c, 0, 50, 69
1, 179412, Note_on_c, 0, 85, 87
1, 179468, Note_on_c, 0, 54, 72
1, 179469, Note_on_c, 0, 78, 81
1, 179488, Note_off_c, 0, 85, 59
1, 179504, Note_on_c, 0, 62, 69
1, 179524, Note_on_c, 0, 73, 87
1, 179531, Note_off_c, 0, 54, 61
1, 179533, Note_off_c, 0, 78, 62
1, 179538, Note_off_c, 0, 62, 63
1, 179577, Note_off_c, 0, 73, 64
1, 179593, Note_on_c, 0, 64, 58
1, 179607, Note_on_c, 0, 83, 105
1, 179624, Note_off_c, 0, 64, 49
1, 179666, Note_on_c, 0, 78, 72
1, 179667, Note_on_c, 0, 60, 65
1, 179720, Note_on_c, 0, 54, 71
1, 179724, Note_off_c, 0, 60, 65
1, 179727, Note_on_c, 0, 71, 77
1, 179741, Note_off_c, 0, 78, 65
1, 179757, Note_off_c, 0, 54, 63
1, 179765, Note_off_c, 0, 71, 61
1, 179794, Note_on_c, 0, 78, 84
1, 179804, Note_off_c, 0, 83, 66
1, 179821, Note_on_c, 0, 50, 76
1, 179830, Note_off_c, 0, 78, 67
1, 179855, Note_off_c, 0, 50, 66
1, 179889, Note_on_c, 0, 38, 75
1, 179899, Note_on_c, 0, 83, 63
1, 179901, Note_on_c, 0, 84, 78
1, 179919, Note_off_c, 0, 38, 63
1, 179923, Note_off_c, 0, 83, 66
1, 179923, Note_off_c, 0, 84, 71
1, 179956, Note_on_c, 0, 95, 96
1, 179976, Note_on_c, 0, 83, 47
1, 179982, Note_on_c, 0, 40, 68
1, 179985, Note_on_c, 0, 38, 70
1, 179998, Note_off_c, 0, 83, 60
1, 180021, Note_on_c, 0, 86, 42
1, 180021, Note_off_c, 0, 40, 59
1, 180028, Note_off_c, 0, 95, 67
1, 180034, Note_on_c, 0, 26, 84
1, 180051, Note_off_c, 0, 38, 58
1, 180055, Note_off_c, 0, 86, 49
1, 180071, Note_off_c, 0, 26, 64
1, 180162, Control_c, 0, 64, 97
1, 180175, Note_on_c, 0, 81, 96
1, 180177, Control_c, 0, 64, 62
1, 180178, Note_on_c, 0, 31, 80
1, 180192, Control_c, 0, 64, 0
1, 180259, Note_on_c, 0, 93, 88
1, 180266, Note_off_c, 0, 81, 67
1, 180295, Control_c, 0, 64, 42
1, 180310, Control_c, 0, 64, 92
1, 180313, Note_off_c, 0, 31, 62
1, 180317, Note_on_c, 0, 86, 82
1, 180318, Note_on_c, 0, 43, 66
1, 180325, Control_c, 0, 64, 127
1, 180345, Note_off_c, 0, 93, 63
1, 180346, Note_off_c, 0, 43, 65
1, 180358, Note_off_c, 0, 86, 66
1, 180365, Note_on_c, 0, 81, 74
1, 180386, Note_off_c, 0, 81, 71
1, 180457, Note_on_c, 0, 81, 81
1, 180490, Note_on_c, 0, 50, 51
1, 180517, Note_on_c, 0, 74, 73
1, 180529, Note_off_c, 0, 81, 59
1, 180532, Note_on_c, 0, 58, 65
1, 180549, Note_off_c, 0, 50, 52
1, 180568, Note_off_c, 0, 58, 64
1, 180572, Note_off_c, 0, 74, 64
1, 180576, Note_on_c, 0, 69, 75
1, 180593, Note_on_c, 0, 62, 75
1, 180645, Note_off_c, 0, 62, 53
1, 180647, Note_on_c, 0, 79, 96
1, 180663, Note_off_c, 0, 69, 63
1, 180675, Note_on_c, 0, 60, 72
1, 180706, Note_on_c, 0, 74, 76
1, 180740, Note_on_c, 0, 56, 70
1, 180749, Note_off_c, 0, 60, 61
1, 180764, Note_off_c, 0, 74, 67
1, 180767, Note_on_c, 0, 67, 83
1, 180797, Note_on_c, 0, 50, 76
1, 180810, Note_off_c, 0, 56, 65
1, 180821, Note_off_c, 0, 67, 62
1, 180823, Note_off_c, 0, 50, 69
1, 180832, Note_on_c, 0, 74, 85
1, 180854, Note_off_c, 0, 79, 57
1, 180864, Note_off_c, 0, 74, 65
1, 180900, Note_on_c, 0, 46, 79
1, 180937, Note_on_c, 0, 79, 85
1, 180988, Note_off_c, 0, 79, 60
1, 180999, Note_on_c, 0, 34, 72
1, 181004, Note_on_c, 0, 91, 89
1, 181008, Note_off_c, 0, 46, 62
1, 181039, Note_off_c, 0, 34, 63
1, 181041, Note_off_c, 0, 91, 65
1, 181191, Note_on_c, 0, 39, 69
1, 181201, Control_c, 0, 64, 122
1, 181216, Control_c, 0, 64, 79
1, 181223, Note_on_c, 0, 77, 89
1, 181231, Control_c, 0, 64, 37
1, 181246, Control_c, 0, 64, 0
1, 181315, Note_on_c, 0, 89, 80
1, 181334, Control_c, 0, 64, 73
1, 181349, Control_c, 0, 64, 127
1, 181357, Note_on_c, 0, 46, 59
1, 181371, Note_off_c, 0, 77, 61
1, 181382, Note_off_c, 0, 39, 58
1, 181388, Note_on_c, 0, 82, 75
1, 181416, Note_off_c, 0, 89, 62
1, 181424, Note_off_c, 0, 46, 62
1, 181431, Note_on_c, 0, 51, 66
1, 181443, Note_off_c, 0, 82, 63
1, 181444, Note_on_c, 0, 77, 67
1, 181457, Note_off_c, 0, 51, 65
1, 181468, Note_off_c, 0, 77, 70
1, 181538, Note_on_c, 0, 77, 73
1, 181549, Note_on_c, 0, 54, 59
1, 181596, Note_on_c, 0, 70, 59
1, 181623, Note_off_c, 0, 54, 32
1, 181623, Note_on_c, 0, 65, 68
1, 181626, Note_off_c, 0, 77, 59
1, 181660, Note_on_c, 0, 58, 28
1, 181663, Note_off_c, 0, 65, 62
1, 181668, Note_off_c, 0, 70, 61
1, 181696, Note_off_c, 0, 58, 52
1, 181707, Note_on_c, 0, 66, 62
1, 181723, Note_on_c, 0, 65, 64
1, 181733, Note_off_c, 0, 66, 66
1, 181783, Note_on_c, 0, 58, 60
1, 181785, Note_on_c, 0, 70, 70
1, 181787, Note_off_c, 0, 65, 61
1, 181807, Note_on_c, 0, 54, 68
1, 181815, Note_off_c, 0, 58, 66
1, 181838, Note_off_c, 0, 54, 65
1, 181842, Note_off_c, 0, 70, 63
1, 181853, Note_on_c, 0, 77, 67
1, 181888, Note_off_c, 0, 77, 63
1, 181923, Note_on_c, 0, 51, 57
1, 181932, Note_on_c, 0, 70, 75
1, 181959, Note_off_c, 0, 51, 62
1, 181985, Note_on_c, 0, 46, 62
1, 181999, Note_on_c, 0, 77, 77
1, 182016, Note_off_c, 0, 70, 61
1, 182041, Note_on_c, 0, 39, 63
1, 182052, Note_on_c, 0, 82, 73
1, 182055, Note_off_c, 0, 77, 65
1, 182067, Note_off_c, 0, 46, 62
1, 182076, Note_off_c, 0, 39, 63
1, 182078, Note_off_c, 0, 82, 69
1, 182195, Note_on_c, 0, 42, 62
1, 182216, Control_c, 0, 64, 115
1, 182231, Control_c, 0, 64, 86
1, 182234, Note_on_c, 0, 87, 88
1, 182246, Control_c, 0, 64, 63
1, 182261, Control_c, 0, 64, 0
1, 182335, Control_c, 0, 64, 44
1, 182340, Note_on_c, 0, 82, 58
1, 182350, Control_c, 0, 64, 80
1, 182365, Control_c, 0, 64, 127
1, 182383, Note_on_c, 0, 49, 45
1, 182403, Note_off_c, 0, 87, 61
1, 182419, Note_off_c, 0, 82, 64
1, 182426, Note_off_c, 0, 42, 36
1, 182427, Note_on_c, 0, 75, 68
1, 182445, Note_off_c, 0, 49, 60
1, 182454, Note_off_c, 0, 75, 66
1, 182466, Note_on_c, 0, 54, 48
1, 182493, Note_off_c, 0, 54, 58
1, 182541, Note_on_c, 0, 75, 57
1, 182601, Note_on_c, 0, 70, 48
1, 182636, Note_off_c, 0, 75, 61
1, 182651, Note_off_c, 0, 70, 63
1, 182655, Note_on_c, 0, 68, 70
1, 182682, Note_on_c, 0, 64, 28
1, 182694, Note_off_c, 0, 68, 65
1, 182728, Note_off_c, 0, 64, 49
1, 182749, Note_on_c, 0, 82, 89
1, 182756, Note_on_c, 0, 67, 51
1, 182821, Note_on_c, 0, 64, 60
1, 182826, Note_off_c, 0, 67, 60
1, 182853, Note_on_c, 0, 79, 64
1, 182891, Note_on_c, 0, 76, 64
1, 182898, Note_off_c, 0, 64, 61
1, 182922, Note_on_c, 0, 58, 49
1, 182922, Note_off_c, 0, 82, 61
1, 182934, Note_off_c, 0, 79, 60
1, 182946, Note_off_c, 0, 76, 63
1, 182947, Note_off_c, 0, 58, 58
1, 182961, Note_on_c, 0, 70, 64
1, 182992, Note_off_c, 0, 70, 65
1, 183035, Note_on_c, 0, 54, 50
1, 183080, Note_off_c, 0, 54, 55
1, 183089, Note_on_c, 0, 67, 56
1, 183140, Note_on_c, 0, 42, 48
1, 183161, Note_on_c, 0, 64, 59
1, 183185, Note_off_c, 0, 42, 60
1, 183186, Note_off_c, 0, 67, 62
1, 183189, Note_off_c, 0, 64, 66
1, 183401, Note_on_c, 0, 35, 44
1, 183461, Control_c, 0, 64, 118
1, 183476, Note_on_c, 0, 73, 75
1, 183476, Control_c, 0, 64, 97
1, 183490, Control_c, 0, 64, 82
1, 183505, Control_c, 0, 64, 65
1, 183520, Control_c, 0, 64, 38
1, 183535, Control_c, 0, 64, 0
1, 183610, Control_c, 0, 64, 54
1, 183625, Control_c, 0, 64, 76
1, 183640, Control_c, 0, 64, 107
1, 183647, Note_on_c, 0, 85, 51
1, 183655, Control_c, 0, 64, 127
1, 183697, Note_off_c, 0, 35, 39
1, 183703, Note_off_c, 0, 73, 52
1, 183718, Note_off_c, 0, 85, 63
1, 183736, Note_on_c, 0, 42, 31
1, 183745, Note_on_c, 0, 78, 59
1, 183823, Note_off_c, 0, 42, 52
1, 183826, Note_on_c, 0, 74, 46
1, 183830, Note_on_c, 0, 50, 49
1, 183865, Note_off_c, 0, 50, 66
1, 183873, Note_off_c, 0, 78, 62
1, 183912, Note_off_c, 0, 74, 45
1, 183913, Note_on_c, 0, 66, 61
1, 183965, Note_off_c, 0, 66, 57
1, 183990, Note_on_c, 0, 78, 69
1, 184004, Note_on_c, 0, 54, 43
1, 184031, Note_on_c, 0, 62, 50
1, 184055, Note_off_c, 0, 54, 57
1, 184055, Note_off_c, 0, 78, 63
1, 184076, Note_on_c, 0, 71, 75
1, 184087, Note_off_c, 0, 62, 61
1, 184126, Note_on_c, 0, 64, 42
1, 184168, Note_on_c, 0, 83, 62
1, 184168, Note_off_c, 0, 71, 59
1, 184177, Note_off_c, 0, 64, 47
1, 184219, Note_off_c, 0, 83, 57
1, 184237, Note_on_c, 0, 60, 18
1, 184240, Note_on_c, 0, 78, 63
1, 184270, Note_on_c, 0, 54, 39
1, 184278, Note_off_c, 0, 60, 54
1, 184302, Note_off_c, 0, 54, 55
1, 184307, Note_on_c, 0, 74, 57
1, 184355, Note_off_c, 0, 78, 63
1, 184365, Note_on_c, 0, 50, 63
1, 184374, Note_on_c, 0, 66, 66
1, 184384, Note_off_c, 0, 74, 50
1, 184399, Note_off_c, 0, 50, 62
1, 184436, Note_on_c, 0, 38, 60
1, 184439, Note_off_c, 0, 66, 63
1, 184454, Note_on_c, 0, 78, 71
1, 184463, Note_off_c, 0, 38, 55
1, 184520, Note_off_c, 0, 78, 59
1, 184532, Note_on_c, 0, 69, 73
1, 184536, Control_c, 0, 64, 104
1, 184551, Control_c, 0, 64, 74
1, 184566, Control_c, 0, 64, 45
1, 184571, Note_on_c, 0, 43, 44
1, 184581, Control_c, 0, 64, 0
1, 184596, Control_c, 0, 64, 46
1, 184603, Note_on_c, 0, 81, 65
1, 184610, Control_c, 0, 64, 67
1, 184621, Note_off_c, 0, 69, 53
1, 184625, Control_c, 0, 64, 83
1, 184640, Control_c, 0, 64, 127
1, 184662, Note_off_c, 0, 81, 63
1, 184675, Note_on_c, 0, 74, 59
1, 184678, Note_on_c, 0, 50, 55
1, 184694, Note_off_c, 0, 43, 39
1, 184720, Note_off_c, 0, 50, 65
1, 184732, Note_on_c, 0, 70, 60
1, 184737, Note_off_c, 0, 74, 63
1, 184755, Note_on_c, 0, 58, 53
1, 184784, Note_off_c, 0, 58, 66
1, 184815, Note_on_c, 0, 62, 61
1, 184850, Note_on_c, 0, 50, 53
1, 184850, Note_off_c, 0, 62, 60
1, 184883, Note_off_c, 0, 70, 0
1, 184884, Note_on_c, 0, 74, 58
1, 184890, Note_on_c, 0, 58, 53
1, 184928, Poly_aftertouch_c, 0, 70, 127
1, 184930, Note_off_c, 0, 50, 58
1, 184944, Control_c, 0, 64, 109
1, 184952, Note_off_c, 0, 74, 62
1, 184959, Control_c, 0, 64, 86
1, 184964, Note_off_c, 0, 58, 63
1, 184973, Note_on_c, 0, 67, 79
1, 184974, Control_c, 0, 64, 67
1, 184981, Poly_aftertouch_c, 0, 70, 0
1, 184986, Note_on_c, 0, 60, 56
1, 184989, Control_c, 0, 64, 47
1, 185004, Control_c, 0, 64, 56
1, 185018, Control_c, 0, 64, 71
1, 185033, Control_c, 0, 64, 86
1, 185048, Note_on_c, 0, 79, 62
1, 185048, Control_c, 0, 64, 108
1, 185062, Control_c, 0, 64, 127
1, 185069, Note_off_c, 0, 60, 47
1, 185089, Note_off_c, 0, 67, 34
1, 185107, Note_on_c, 0, 56, 46
1, 185118, Note_off_c, 0, 79, 57
1, 185122, Note_on_c, 0, 74, 59
1, 185159, Note_on_c, 0, 50, 57
1, 185159, Note_off_c, 0, 56, 59
1, 185188, Note_on_c, 0, 70, 64
1, 185188, Note_off_c, 0, 74, 63
1, 185190, Note_off_c, 0, 50, 68
1, 185264, Note_on_c, 0, 62, 57
1, 185289, Note_off_c, 0, 70, 49
1, 185290, Note_on_c, 0, 46, 46
1, 185334, Note_off_c, 0, 62, 50
1, 185347, Note_off_c, 0, 46, 47
1, 185353, Note_on_c, 0, 34, 56
1, 185357, Note_on_c, 0, 74, 57
1, 185393, Note_off_c, 0, 34, 62
1, 185481, Note_off_c, 0, 74, 56
1, 185494, Note_on_c, 0, 65, 61
1, 185508, Control_c, 0, 64, 116
1, 185511, Note_on_c, 0, 39, 55
1, 185523, Control_c, 0, 64, 89
1, 185538, Control_c, 0, 64, 67
1, 185553, Control_c, 0, 64, 18
1, 185567, Control_c, 0, 64, 0
1, 185575, Note_on_c, 0, 77, 60
1, 185597, Control_c, 0, 64, 36
1, 185612, Control_c, 0, 64, 63
1, 185627, Control_c, 0, 64, 77
1, 185634, Note_off_c, 0, 77, 61
1, 185641, Control_c, 0, 64, 102
1, 185660, Note_off_c, 0, 65, 50
1, 185664, Control_c, 0, 64, 127
1, 185668, Note_on_c, 0, 70, 54
1, 185679, Note_on_c, 0, 46, 49
1, 185685, Note_off_c, 0, 39, 52
1, 185750, Note_on_c, 0, 66, 45
1, 185758, Note_off_c, 0, 46, 62
1, 185759, Note_off_c, 0, 70, 60
1, 185772, Note_on_c, 0, 54, 51
1, 185813, Note_off_c, 0, 54, 61
1, 185823, Note_on_c, 0, 58, 66
1, 185864, Note_off_c, 0, 58, 57
1, 185869, Note_off_c, 0, 66, 36
1, 185888, Note_on_c, 0, 70, 54
1, 185891, Note_on_c, 0, 46, 37
1, 185930, Note_off_c, 0, 70, 57
1, 185930, Note_off_c, 0, 46, 51
1, 185955, Note_on_c, 0, 54, 42
1, 185967, Note_on_c, 0, 65, 58
1, 185997, Note_off_c, 0, 54, 61
1, 186012, Note_on_c, 0, 58, 47
1, 186035, Note_on_c, 0, 70, 65
1, 186051, Note_off_c, 0, 58, 63
1, 186059, Note_off_c, 0, 65, 53
1, 186092, Note_on_c, 0, 54, 48
1, 186103, Note_on_c, 0, 66, 56
1, 186130, Note_off_c, 0, 70, 58
1, 186138, Note_off_c, 0, 54, 60
1, 186141, Note_off_c, 0, 66, 62
1, 186164, Note_on_c, 0, 46, 45
1, 186177, Note_on_c, 0, 58, 53
1, 186214, Note_off_c, 0, 46, 62
1, 186232, Note_off_c, 0, 58, 60
1, 186240, Note_on_c, 0, 54, 50
1, 186253, Note_on_c, 0, 70, 57
1, 186314, Note_off_c, 0, 54, 53
1, 186327, Note_off_c, 0, 70, 62
1, 186338, Note_on_c, 0, 66, 58
1, 186342, Note_on_c, 0, 46, 44
1, 186501, Note_off_c, 0, 46, 46
1, 186502, Note_on_c, 0, 42, 48
1, 186516, Control_c, 0, 64, 112
1, 186517, Note_on_c, 0, 75, 76
1, 186531, Control_c, 0, 64, 96
1, 186546, Control_c, 0, 64, 79
1, 186561, Control_c, 0, 64, 64
1, 186571, Note_off_c, 0, 66, 39
1, 186576, Control_c, 0, 64, 9
1, 186590, Control_c, 0, 64, 0
1, 186657, Note_on_c, 0, 64, 43
1, 186664, Control_c, 0, 64, 55
1, 186679, Control_c, 0, 64, 66
1, 186694, Control_c, 0, 64, 73
1, 186702, Note_off_c, 0, 64, 62
1, 186702, Note_off_c, 0, 42, 56
1, 186708, Control_c, 0, 64, 81
1, 186723, Control_c, 0, 64, 85
1, 186739, Control_c, 0, 64, 91
1, 186740, Note_on_c, 0, 49, 39
1, 186754, Control_c, 0, 64, 96
1, 186756, Note_off_c, 0, 75, 38
1, 186768, Note_on_c, 0, 68, 50
1, 186769, Control_c, 0, 64, 102
1, 186784, Control_c, 0, 64, 109
1, 186799, Control_c, 0, 64, 116
1, 186813, Control_c, 0, 64, 127
1, 186825, Note_off_c, 0, 68, 58
1, 186857, Note_on_c, 0, 63, 44
1, 186890, Note_on_c, 0, 52, 33
1, 186920, Note_off_c, 0, 63, 48
1, 186931, Note_off_c, 0, 49, 41
1, 186938, Note_on_c, 0, 68, 45
1, 186950, Note_off_c, 0, 52, 54
1, 186973, Note_on_c, 0, 56, 40
1, 186996, Note_off_c, 0, 68, 58
1, 187032, Note_on_c, 0, 64, 40
1, 187057, Note_off_c, 0, 56, 47
1, 187138, Control_c, 0, 64, 108
1, 187146, Note_on_c, 0, 70, 65
1, 187146, Note_off_c, 0, 64, 51
1, 187161, Control_c, 0, 64, 89
1, 187162, Note_on_c, 0, 58, 47
1, 187176, Control_c, 0, 64, 73
1, 187191, Control_c, 0, 64, 60
1, 187206, Control_c, 0, 64, 44
1, 187220, Control_c, 0, 64, 54
1, 187235, Control_c, 0, 64, 64
1, 187250, Control_c, 0, 64, 72
1, 187256, Note_off_c, 0, 58, 39
1, 187264, Control_c, 0, 64, 85
1, 187273, Note_on_c, 0, 64, 45
1, 187279, Note_on_c, 0, 55, 42
1, 187279, Control_c, 0, 64, 96
1, 187294, Control_c, 0, 64, 103
1, 187309, Control_c, 0, 64, 106
1, 187324, Control_c, 0, 64, 110
1, 187338, Control_c, 0, 64, 117
1, 187353, Control_c, 0, 64, 127
1, 187372, Note_on_c, 0, 67, 44
1, 187389, Note_off_c, 0, 55, 38
1, 187402, Note_off_c, 0, 64, 28
1, 187435, Note_off_c, 0, 67, 58
1, 187467, Note_on_c, 0, 58, 35
1, 187480, Poly_aftertouch_c, 0, 52, 127
1, 187536, Poly_aftertouch_c, 0, 52, 0
1, 187549, Note_on_c, 0, 49, 35
1, 187589, Note_on_c, 0, 67, 42
1, 187685, Note_on_c, 0, 64, 38
1, 187686, Note_off_c, 0, 70, 28
1, 187702, Note_on_c, 0, 42, 34
1, 187721, Note_off_c, 0, 67, 29
1, 187727, Note_off_c, 0, 49, 44
1, 187772, Note_off_c, 0, 42, 45
1, 187782, Note_off_c, 0, 64, 53
1, 188012, Note_on_c, 0, 35, 27
1, 188073, Control_c, 0, 64, 109
1, 188085, Note_on_c, 0, 70, 59
1, 188088, Control_c, 0, 64, 97
1, 188094, Note_off_c, 0, 58, 41
1, 188103, Control_c, 0, 64, 84
1, 188118, Control_c, 0, 64, 73
1, 188133, Control_c, 0, 64, 62
1, 188148, Control_c, 0, 64, 34
1, 188162, Control_c, 0, 64, 0
1, 188251, Control_c, 0, 64, 57
1, 188266, Control_c, 0, 64, 70
1, 188280, Control_c, 0, 64, 82
1, 188295, Control_c, 0, 64, 97
1, 188297, Note_on_c, 0, 66, 26
1, 188310, Control_c, 0, 64, 116
1, 188325, Control_c, 0, 64, 127
1, 188368, Note_off_c, 0, 70, 33
1, 188397, Note_on_c, 0, 62, 39
1, 188420, Note_off_c, 0, 35, 38
1, 188434, Note_on_c, 0, 42, 29
1, 188450, Note_off_c, 0, 66, 43
1, 188464, Note_off_c, 0, 62, 57
1, 188504, Note_on_c, 0, 56, 42
1, 188583, Note_off_c, 0, 42, 43
1, 188586, Note_off_c, 0, 56, 62
1, 188602, Note_on_c, 0, 50, 39
1, 188613, Note_on_c, 0, 54, 47
1, 188646, Note_off_c, 0, 50, 51
1, 188660, Note_off_c, 0, 54, 63
1, 188706, Note_on_c, 0, 56, 41
1, 188762, Note_off_c, 0, 56, 55
1, 188786, Note_on_c, 0, 54, 37
1, 188801, Note_on_c, 0, 62, 50
1, 188884, Note_off_c, 0, 62, 48
1, 188897, Note_on_c, 0, 66, 37
1, 188941, Note_off_c, 0, 66, 49
1, 188941, Note_off_c, 0, 54, 38
1, 188956, Note_on_c, 0, 62, 45
1, 189023, Note_off_c, 0, 62, 51
1, 189038, Note_on_c, 0, 66, 53
1, 189112, Note_on_c, 0, 54, 49
1, 189128, Note_on_c, 0, 62, 41
1, 189143, Note_off_c, 0, 54, 64
1, 189176, Note_off_c, 0, 66, 56
1, 189210, Note_on_c, 0, 56, 49
1, 189291, Note_on_c, 0, 50, 51
1, 189303, Note_on_c, 0, 68, 66
1, 189330, Note_off_c, 0, 56, 0
1, 189351, Note_off_c, 0, 62, 42
1, 189361, Poly_aftertouch_c, 0, 56, 0
1, 189416, Note_on_c, 0, 66, 50
1, 189443, Note_off_c, 0, 50, 30
1, 189475, Note_on_c, 0, 42, 37
1, 189480, Note_on_c, 0, 62, 46
1, 189552, Note_off_c, 0, 68, 59
1, 189564, Note_on_c, 0, 54, 58
1, 189595, Note_off_c, 0, 54, 66
1, 189626, Note_off_c, 0, 62, 53
1, 189650, Note_off_c, 0, 66, 61
1, 189752, Note_on_c, 0, 35, 44
1, 189806, Control_c, 0, 64, 119
1, 189817, Note_off_c, 0, 42, 38
1, 189821, Control_c, 0, 64, 105
1, 189831, Note_on_c, 0, 73, 75
1, 189836, Control_c, 0, 64, 94
1, 189850, Control_c, 0, 64, 81
1, 189865, Control_c, 0, 64, 66
1, 189880, Control_c, 0, 64, 43
1, 189895, Control_c, 0, 64, 0
1, 189970, Control_c, 0, 64, 51
1, 189985, Control_c, 0, 64, 67
1, 189987, Note_on_c, 0, 68, 50
1, 190000, Control_c, 0, 64, 79
1, 190015, Control_c, 0, 64, 95
1, 190029, Control_c, 0, 64, 106
1, 190044, Control_c, 0, 64, 115
1, 190059, Control_c, 0, 64, 127
1, 190074, Note_off_c, 0, 35, 39
1, 190094, Note_on_c, 0, 66, 47
1, 190102, Note_on_c, 0, 42, 29
1, 190127, Note_off_c, 0, 73, 57
1, 190137, Note_off_c, 0, 66, 62
1, 190160, Note_off_c, 0, 68, 42
1, 190173, Note_on_c, 0, 62, 44
1, 190228, Note_off_c, 0, 42, 36
1, 190233, Note_off_c, 0, 62, 54
1, 190252, Note_on_c, 0, 50, 45
1, 190264, Note_on_c, 0, 61, 53
1, 190295, Note_off_c, 0, 50, 64
1, 190298, Note_off_c, 0, 61, 63
1, 190344, Note_on_c, 0, 62, 44
1, 190378, Note_off_c, 0, 62, 51
1, 190431, Note_on_c, 0, 66, 47
1, 190435, Note_on_c, 0, 54, 22
1, 190488, Note_off_c, 0, 66, 54
1, 190510, Note_on_c, 0, 68, 49
1, 190570, Control_c, 0, 64, 117
1, 190585, Control_c, 0, 64, 99
1, 190590, Note_off_c, 0, 68, 62
1, 190597, Note_on_c, 0, 71, 63
1, 190600, Control_c, 0, 64, 84
1, 190603, Note_on_c, 0, 62, 36
1, 190615, Control_c, 0, 64, 69
1, 190629, Control_c, 0, 64, 52
1, 190633, Note_off_c, 0, 54, 48
1, 190644, Control_c, 0, 64, 42
1, 190659, Control_c, 0, 64, 50
1, 190673, Control_c, 0, 64, 60
1, 190688, Control_c, 0, 64, 68
1, 190703, Control_c, 0, 64, 80
1, 190706, Note_off_c, 0, 62, 29
1, 190708, Note_on_c, 0, 68, 41
1, 190719, Control_c, 0, 64, 104
1, 190735, Control_c, 0, 64, 127
1, 190758, Note_on_c, 0, 54, 45
1, 190771, Note_on_c, 0, 66, 53
1, 190773, Note_off_c, 0, 71, 39
1, 190810, Note_off_c, 0, 68, 59
1, 190815, Note_off_c, 0, 54, 62
1, 190836, Note_off_c, 0, 66, 60
1, 190864, Note_on_c, 0, 62, 44
1, 190935, Note_off_c, 0, 62, 51
1, 190959, Note_on_c, 0, 50, 50
1, 190979, Note_on_c, 0, 59, 47
1, 191011, Note_off_c, 0, 59, 64
1, 191060, Note_on_c, 0, 62, 46
1, 191075, Note_off_c, 0, 50, 35
1, 191104, Note_off_c, 0, 62, 45
1, 191143, Note_on_c, 0, 42, 28
1, 191176, Note_on_c, 0, 66, 37
1, 191259, Note_on_c, 0, 68, 51
1, 191278, Note_off_c, 0, 66, 37
1, 191297, Note_off_c, 0, 68, 64
1, 191471, Note_off_c, 0, 42, 38
1, 191512, Control_c, 0, 64, 122
1, 191528, Control_c, 0, 64, 111
1, 191538, Note_on_c, 0, 35, 39
1, 191543, Control_c, 0, 64, 104
1, 191558, Control_c, 0, 64, 98
1, 191563, Note_on_c, 0, 47, 23
1, 191573, Control_c, 0, 64, 91
1, 191588, Control_c, 0, 64, 82
1, 191602, Control_c, 0, 64, 71
1, 191617, Control_c, 0, 64, 57
1, 191632, Control_c, 0, 64, 30
1, 191644, Note_on_c, 0, 82, 63
1, 191653, Control_c, 0, 64, 25
1, 191668, Control_c, 0, 64, 21
1, 191683, Control_c, 0, 64, 9
1, 191698, Control_c, 0, 64, 10
1, 191713, Control_c, 0, 64, 32
1, 191728, Control_c, 0, 64, 58
1, 191743, Control_c, 0, 64, 71
1, 191758, Control_c, 0, 64, 87
1, 191760, Note_off_c, 0, 35, 43
1, 191772, Control_c, 0, 64, 127
1, 191830, Note_off_c, 0, 47, 44
1, 191926, Note_on_c, 0, 78, 31
1, 192005, Note_on_c, 0, 74, 39
1, 192012, Note_off_c, 0, 82, 35
1, 192029, Note_on_c, 0, 54, 54
1, 192053, Control_c, 0, 67, 8
1, 192067, Note_off_c, 0, 54, 63
1, 192077, Note_off_c, 0, 78, 46
1, 192083, Control_c, 0, 67, 8
1, 192091, Note_off_c, 0, 74, 63
1, 192127, Control_c, 0, 67, 9
1, 192129, Note_on_c, 0, 68, 45
1, 192157, Control_c, 0, 67, 9
1, 192172, Control_c, 0, 67, 11
1, 192187, Control_c, 0, 67, 12
1, 192202, Note_off_c, 0, 68, 63
1, 192202, Control_c, 0, 67, 14
1, 192217, Control_c, 0, 67, 14
1, 192220, Note_on_c, 0, 66, 58
1, 192232, Control_c, 0, 67, 15
1, 192240, Note_on_c, 0, 58, 42
1, 192246, Control_c, 0, 67, 17
1, 192255, Note_off_c, 0, 66, 65
1, 192261, Control_c, 0, 67, 18
1, 192274, Note_off_c, 0, 58, 51
1, 192276, Control_c, 0, 67, 19
1, 192304, Note_on_c, 0, 68, 56
1, 192334, Note_off_c, 0, 68, 67
1, 192336, Control_c, 0, 67, 20
1, 192390, Note_on_c, 0, 74, 57
1, 192406, Note_on_c, 0, 70, 62
1, 192440, Note_off_c, 0, 70, 62
1, 192447, Control_c, 0, 67, 19
1, 192460, Note_off_c, 0, 74, 48
1, 192479, Note_on_c, 0, 78, 54
1, 192530, Note_off_c, 0, 78, 55
1, 192565, Control_c, 0, 67, 19
1, 192566, Note_on_c, 0, 74, 65
1, 192592, Note_off_c, 0, 74, 65
1, 192646, Note_on_c, 0, 78, 61
1, 192669, Control_c, 0, 67, 18
1, 192698, Note_on_c, 0, 74, 42
1, 192708, Note_on_c, 0, 66, 50
1, 192729, Note_off_c, 0, 78, 61
1, 192783, Note_on_c, 0, 68, 50
1, 192788, Control_c, 0, 67, 18
1, 192862, Control_c, 0, 67, 17
1, 192876, Control_c, 0, 64, 118
1, 192879, Note_on_c, 0, 56, 46
1, 192891, Control_c, 0, 64, 103
1, 192891, Control_c, 0, 67, 17
1, 192897, Note_off_c, 0, 66, 59
1, 192901, Note_on_c, 0, 80, 77
1, 192906, Control_c, 0, 64, 87
1, 192921, Control_c, 0, 64, 74
1, 192934, Note_off_c, 0, 68, 41
1, 192936, Control_c, 0, 64, 62
1, 192936, Control_c, 0, 67, 16
1, 192944, Note_off_c, 0, 74, 59
1, 192950, Control_c, 0, 64, 46
1, 192950, Control_c, 0, 67, 16
1, 192965, Control_c, 0, 64, 51
1, 192965, Control_c, 0, 67, 15
1, 192980, Control_c, 0, 64, 62
1, 192980, Control_c, 0, 67, 14
1, 192995, Control_c, 0, 64, 72
1, 192995, Control_c, 0, 67, 14
1, 193010, Control_c, 0, 64, 85
1, 193010, Control_c, 0, 67, 13
1, 193014, Note_on_c, 0, 78, 56
1, 193024, Control_c, 0, 64, 102
1, 193039, Control_c, 0, 64, 114
1, 193039, Control_c, 0, 67, 12
1, 193054, Control_c, 0, 64, 120
1, 193054, Control_c, 0, 67, 12
1, 193069, Control_c, 0, 64, 127
1, 193084, Control_c, 0, 67, 11
1, 193098, Note_on_c, 0, 74, 45
1, 193111, Note_off_c, 0, 56, 36
1, 193117, Note_on_c, 0, 68, 29
1, 193184, Note_off_c, 0, 68, 0
1, 193184, Note_on_c, 0, 68, 2
1, 193188, Note_on_c, 0, 66, 49
1, 193212, Note_off_c, 0, 66, 60
1, 193220, Note_off_c, 0, 80, 57
1, 193226, Note_off_c, 0, 74, 62
1, 193241, Control_c, 0, 67, 12
1, 193271, Note_off_c, 0, 78, 62
1, 193371, Note_on_c, 0, 61, 46
1, 193377, Note_off_c, 0, 68, 45
1, 193403, Control_c, 0, 64, 111
1, 193418, Note_on_c, 0, 85, 69
1, 193418, Control_c, 0, 64, 101
1, 193433, Control_c, 0, 64, 92
1, 193448, Control_c, 0, 64, 80
1, 193463, Control_c, 0, 64, 68
1, 193478, Control_c, 0, 64, 54
1, 193492, Control_c, 0, 64, 48
1, 193507, Control_c, 0, 64, 52
1, 193522, Control_c, 0, 64, 54
1, 193537, Control_c, 0, 64, 59
1, 193552, Control_c, 0, 64, 66
1, 193564, Note_on_c, 0, 80, 37
1, 193567, Control_c, 0, 64, 75
1, 193581, Control_c, 0, 64, 89
1, 193596, Control_c, 0, 64, 95
1, 193611, Control_c, 0, 64, 98
1, 193616, Note_on_c, 0, 73, 48
1, 193625, Control_c, 0, 64, 103
1, 193633, Note_on_c, 0, 78, 47
1, 193640, Control_c, 0, 64, 114
1, 193654, Note_off_c, 0, 85, 55
1, 193655, Control_c, 0, 64, 127
1, 193677, Note_off_c, 0, 73, 51
1, 193684, Note_off_c, 0, 78, 61
1, 193686, Note_off_c, 0, 80, 39
1, 193724, Note_on_c, 0, 74, 41
1, 193778, Note_off_c, 0, 74, 54
1, 193793, Note_on_c, 0, 66, 42
1, 193797, Note_on_c, 0, 73, 51
1, 193847, Control_c, 0, 67, 11
1, 193853, Note_off_c, 0, 73, 60
1, 193897, Note_off_c, 0, 61, 34
1, 193922, Note_on_c, 0, 74, 39
1, 193963, Note_off_c, 0, 66, 54
1, 194003, Note_off_c, 0, 74, 33
1, 194008, Note_on_c, 0, 68, 39
1, 194020, Note_on_c, 0, 78, 47
1, 194098, Note_off_c, 0, 78, 49
1, 194122, Control_c, 0, 67, 11
1, 194124, Note_on_c, 0, 80, 40
1, 194187, Note_off_c, 0, 80, 59
1, 194196, Control_c, 0, 64, 120
1, 194200, Note_on_c, 0, 59, 47
1, 194211, Control_c, 0, 64, 108
1, 194214, Note_on_c, 0, 83, 52
1, 194226, Control_c, 0, 64, 97
1, 194241, Control_c, 0, 64, 84
1, 194250, Note_off_c, 0, 68, 40
1, 194256, Control_c, 0, 64, 72
1, 194270, Control_c, 0, 64, 59
1, 194285, Control_c, 0, 64, 37
1, 194315, Control_c, 0, 64, 39
1, 194315, Control_c, 0, 67, 10
1, 194318, Note_on_c, 0, 80, 51
1, 194330, Control_c, 0, 64, 44
1, 194345, Control_c, 0, 64, 55
1, 194345, Control_c, 0, 67, 10
1, 194360, Control_c, 0, 64, 66
1, 194360, Control_c, 0, 67, 9
1, 194375, Control_c, 0, 64, 76
1, 194375, Control_c, 0, 67, 0
1, 194390, Control_c, 0, 64, 92
1, 194393, Note_off_c, 0, 83, 36
1, 194404, Control_c, 0, 64, 105
1, 194419, Control_c, 0, 64, 112
1, 194420, Note_on_c, 0, 71, 46
1, 194426, Note_on_c, 0, 78, 45
1, 194434, Control_c, 0, 64, 127
1, 194451, Note_off_c, 0, 71, 63
1, 194468, Note_off_c, 0, 78, 62
1, 194488, Note_off_c, 0, 80, 41
1, 194514, Note_on_c, 0, 74, 39
1, 194596, Note_off_c, 0, 74, 34
1, 194617, Note_on_c, 0, 66, 42
1, 194631, Note_on_c, 0, 71, 40
1, 194676, Note_off_c, 0, 71, 63
1, 194731, Note_on_c, 0, 74, 36
1, 194871, Note_off_c, 0, 74, 51
1, 194882, Note_on_c, 0, 68, 38
1, 194917, Note_on_c, 0, 78, 25
1, 194917, Note_off_c, 0, 68, 65
1, 194964, Note_off_c, 0, 66, 41
1, 194993, Note_off_c, 0, 59, 40
1, 195021, Note_on_c, 0, 80, 34
1, 195070, Note_off_c, 0, 80, 63
1, 195076, Note_off_c, 0, 78, 43
1, 195269, Note_on_c, 0, 32, 35
1, 195360, Control_c, 0, 64, 108
1, 195364, Note_on_c, 0, 56, 45
1, 195375, Control_c, 0, 64, 90
1, 195397, Control_c, 0, 64, 74
1, 195412, Control_c, 0, 64, 58
1, 195427, Control_c, 0, 64, 38
1, 195442, Control_c, 0, 64, 48
1, 195457, Control_c, 0, 64, 62
1, 195463, Note_on_c, 0, 44, 40
1, 195471, Control_c, 0, 64, 74
1, 195472, Note_off_c, 0, 56, 62
1, 195486, Control_c, 0, 64, 105
1, 195501, Control_c, 0, 64, 127
1, 195506, Note_off_c, 0, 32, 39
1, 195508, Note_on_c, 0, 62, 27
1, 195525, Note_off_c, 0, 44, 58
1, 195547, Note_off_c, 0, 62, 50
1, 195557, Note_on_c, 0, 66, 44
1, 195584, Note_off_c, 0, 66, 57
1, 195673, Note_on_c, 0, 68, 61
1, 195725, Note_off_c, 0, 68, 57
1, 195734, Note_on_c, 0, 54, 45
1, 195745, Note_on_c, 0, 75, 37
1, 195768, Note_on_c, 0, 62, 56
1, 195778, Note_off_c, 0, 75, 53
1, 195786, Note_on_c, 0, 76, 48
1, 195793, Note_off_c, 0, 62, 62
1, 195803, Note_off_c, 0, 54, 63
1, 195810, Note_on_c, 0, 80, 61
1, 195812, Note_off_c, 0, 76, 59
1, 195835, Note_off_c, 0, 80, 67
1, 196005, Note_on_c, 0, 70, 67
1, 196035, Control_c, 0, 64, 98
1, 196050, Control_c, 0, 64, 76
1, 196065, Control_c, 0, 64, 66
1, 196076, Note_off_c, 0, 70, 64
1, 196080, Control_c, 0, 64, 69
1, 196090, Note_on_c, 0, 82, 76
1, 196094, Control_c, 0, 64, 81
1, 196109, Control_c, 0, 64, 102
1, 196114, Note_off_c, 0, 82, 70
1, 196124, Control_c, 0, 64, 127
1, 196264, Note_on_c, 0, 94, 82
1, 196306, Note_off_c, 0, 94, 66
1, 196399, Control_c, 0, 67, 11
1, 196414, Control_c, 0, 67, 18
1, 196429, Control_c, 0, 67, 27
1, 196442, Note_on_c, 0, 92, 48
1, 196443, Control_c, 0, 67, 38
1, 196458, Control_c, 0, 67, 48
1, 196473, Control_c, 0, 67, 60
1, 196488, Control_c, 0, 67, 74
1, 196503, Control_c, 0, 67, 86
1, 196517, Control_c, 0, 67, 97
1, 196530, Note_on_c, 0, 90, 42
1, 196532, Control_c, 0, 67, 106
1, 196547, Control_c, 0, 67, 111
1, 196550, Note_off_c, 0, 92, 38
1, 196562, Control_c, 0, 67, 118
1, 196566, Note_on_c, 0, 86, 41
1, 196577, Control_c, 0, 67, 125
1, 196584, Note_off_c, 0, 90, 46
1, 196590, Note_off_c, 0, 86, 58
1, 196591, Control_c, 0, 67, 127
1, 196632, Note_on_c, 0, 78, 54
1, 196667, Note_off_c, 0, 78, 64
1, 196736, Note_on_c, 0, 80, 46
1, 196781, Note_off_c, 0, 80, 61
1, 196819, Note_on_c, 0, 74, 48
1, 196826, Note_on_c, 0, 78, 53
1, 196840, Note_off_c, 0, 74, 62
1, 196860, Note_off_c, 0, 78, 65
1, 196944, Note_on_c, 0, 78, 51
1, 196954, Control_c, 0, 67, 127
1, 196967, Note_off_c, 0, 78, 59
1, 196984, Control_c, 0, 67, 126
1, 196998, Control_c, 0, 67, 126
1, 197009, Note_on_c, 0, 92, 64
1, 197013, Control_c, 0, 67, 125
1, 197043, Control_c, 0, 67, 125
1, 197058, Control_c, 0, 67, 124
1, 197073, Control_c, 0, 67, 124
1, 197087, Control_c, 0, 67, 123
1, 197089, Note_off_c, 0, 92, 62
1, 197110, Note_on_c, 0, 90, 60
1, 197118, Control_c, 0, 67, 123
1, 197126, Note_on_c, 0, 86, 48
1, 197133, Control_c, 0, 67, 122
1, 197147, Control_c, 0, 67, 122
1, 197159, Note_off_c, 0, 86, 51
1, 197162, Control_c, 0, 67, 121
1, 197172, Note_off_c, 0, 90, 60
1, 197177, Control_c, 0, 67, 121
1, 197192, Control_c, 0, 67, 120
1, 197210, Note_on_c, 0, 92, 54
1, 197222, Control_c, 0, 67, 120
1, 197236, Control_c, 0, 67, 119
1, 197260, Note_on_c, 0, 86, 48
1, 197280, Note_on_c, 0, 90, 38
1, 197281, Control_c, 0, 67, 119
1, 197281, Note_off_c, 0, 92, 48
1, 197299, Note_on_c, 0, 68, 54
1, 197311, Note_off_c, 0, 86, 62
1, 197311, Control_c, 0, 67, 117
1, 197314, Note_off_c, 0, 90, 53
1, 197320, Note_off_c, 0, 68, 64
1, 197326, Control_c, 0, 67, 117
1, 197340, Control_c, 0, 67, 116
1, 197347, Note_on_c, 0, 78, 62
1, 197380, Note_off_c, 0, 78, 65
1, 197491, Note_on_c, 0, 80, 55
1, 197499, Note_on_c, 0, 92, 88
1, 197527, Note_off_c, 0, 92, 62
1, 197592, Note_off_c, 0, 80, 57
1, 197606, Note_on_c, 0, 74, 53
1, 197607, Control_c, 0, 67, 116
1, 197621, Note_on_c, 0, 78, 50
1, 197640, Note_off_c, 0, 74, 66
1, 197644, Control_c, 0, 67, 115
1, 197659, Control_c, 0, 67, 115
1, 197666, Note_off_c, 0, 78, 64
1, 197673, Control_c, 0, 67, 113
1, 197688, Control_c, 0, 67, 108
1, 197703, Control_c, 0, 67, 103
1, 197718, Control_c, 0, 67, 98
1, 197733, Control_c, 0, 67, 93
1, 197740, Note_on_c, 0, 78, 61
1, 197747, Control_c, 0, 67, 89
1, 197758, Note_off_c, 0, 78, 66
1, 197762, Control_c, 0, 67, 85
1, 197777, Control_c, 0, 67, 83
1, 197791, Control_c, 0, 67, 82
1, 197806, Control_c, 0, 67, 83
1, 197811, Note_on_c, 0, 73, 78
1, 197822, Note_on_c, 0, 92, 56
1, 197835, Note_off_c, 0, 73, 68
1, 197836, Control_c, 0, 67, 82
1, 197865, Control_c, 0, 67, 83
1, 197877, Note_on_c, 0, 85, 75
1, 197900, Note_off_c, 0, 85, 69
1, 198066, Note_on_c, 0, 97, 85
1, 198070, Note_off_c, 0, 92, 60
1, 198085, Note_off_c, 0, 97, 71
1, 198115, Note_on_c, 0, 86, 33
1, 198128, Note_on_c, 0, 90, 45
1, 198192, Note_off_c, 0, 86, 38
1, 198193, Control_c, 0, 67, 83
1, 198199, Note_off_c, 0, 90, 60
1, 198203, Note_on_c, 0, 92, 51
1, 198208, Control_c, 0, 67, 84
1, 198223, Control_c, 0, 67, 85
1, 198237, Control_c, 0, 67, 85
1, 198252, Control_c, 0, 67, 86
1, 198267, Control_c, 0, 67, 87
1, 198281, Control_c, 0, 67, 88
1, 198296, Control_c, 0, 67, 89
1, 198315, Note_off_c, 0, 92, 37
1, 198319, Note_on_c, 0, 86, 48
1, 198326, Control_c, 0, 67, 90
1, 198336, Note_on_c, 0, 90, 48
1, 198360, Note_off_c, 0, 90, 59
1, 198363, Note_off_c, 0, 86, 61
1, 198370, Control_c, 0, 67, 90
1, 198408, Note_on_c, 0, 78, 57
1, 198437, Control_c, 0, 67, 91
1, 198450, Note_off_c, 0, 78, 63
1, 198524, Note_on_c, 0, 80, 46
1, 198569, Note_off_c, 0, 80, 61
1, 198584, Note_on_c, 0, 74, 54
1, 198596, Note_on_c, 0, 78, 52
1, 198611, Note_off_c, 0, 74, 66
1, 198614, Control_c, 0, 67, 90
1, 198629, Note_off_c, 0, 78, 65
1, 198688, Control_c, 0, 67, 90
1, 198699, Note_on_c, 0, 78, 61
1, 198718, Note_off_c, 0, 78, 67
1, 198777, Note_on_c, 0, 71, 51
1, 198789, Note_on_c, 0, 92, 60
1, 198822, Note_off_c, 0, 71, 63
1, 198849, Note_on_c, 0, 83, 75
1, 198867, Control_c, 0, 67, 89
1, 198873, Note_off_c, 0, 83, 68
1, 198912, Control_c, 0, 67, 89
1, 198971, Control_c, 0, 67, 89
1, 198995, Note_off_c, 0, 92, 61
1, 199016, Note_on_c, 0, 95, 82
1, 199025, Note_on_c, 0, 86, 40
1, 199035, Note_on_c, 0, 90, 51
1, 199056, Note_off_c, 0, 95, 66
1, 199103, Note_off_c, 0, 90, 57
1, 199120, Note_on_c, 0, 92, 56
1, 199141, Note_off_c, 0, 86, 42
1, 199243, Note_off_c, 0, 92, 52
1, 199249, Note_on_c, 0, 90, 48
1, 199249, Note_on_c, 0, 86, 47
1, 199299, Note_off_c, 0, 90, 62
1, 199310, Note_off_c, 0, 86, 64
1, 199352, Note_on_c, 0, 78, 52
1, 199379, Control_c, 0, 67, 89
1, 199394, Note_off_c, 0, 78, 63
1, 199448, Note_on_c, 0, 80, 52
1, 199522, Note_off_c, 0, 80, 62
1, 199540, Note_on_c, 0, 78, 55
1, 199542, Note_on_c, 0, 74, 49
1, 199565, Note_off_c, 0, 74, 62
1, 199588, Note_off_c, 0, 78, 62
1, 199660, Note_on_c, 0, 78, 51
1, 199696, Note_off_c, 0, 78, 65
1, 199763, Note_on_c, 0, 92, 55
1, 199824, Control_c, 0, 67, 88
1, 199857, Note_on_c, 0, 68, 46
1, 199964, Control_c, 0, 64, 118
1, 199979, Control_c, 0, 64, 109
1, 199985, Note_off_c, 0, 92, 46
1, 199989, Note_on_c, 0, 80, 54
1, 199994, Control_c, 0, 64, 100
1, 200009, Control_c, 0, 64, 87
1, 200009, Note_on_c, 0, 90, 52
1, 200024, Control_c, 0, 64, 75
1, 200030, Note_on_c, 0, 86, 39
1, 200039, Control_c, 0, 64, 64
1, 200053, Control_c, 0, 64, 63
1, 200068, Control_c, 0, 64, 71
1, 200083, Control_c, 0, 64, 84
1, 200089, Note_off_c, 0, 80, 55
1, 200098, Control_c, 0, 64, 102
1, 200113, Control_c, 0, 64, 115
1, 200128, Control_c, 0, 64, 123
1, 200142, Control_c, 0, 64, 127
1, 200151, Note_off_c, 0, 90, 49
1, 200171, Note_on_c, 0, 92, 49
1, 200181, Note_off_c, 0, 86, 42
1, 200247, Note_off_c, 0, 92, 48
1, 200289, Note_on_c, 0, 86, 47
1, 200298, Note_on_c, 0, 90, 30
1, 200332, Note_off_c, 0, 90, 52
1, 200333, Note_off_c, 0, 86, 49
1, 200380, Note_on_c, 0, 78, 49
1, 200414, Note_off_c, 0, 78, 55
1, 200470, Control_c, 0, 67, 88
1, 200477, Note_on_c, 0, 80, 51
1, 200539, Note_off_c, 0, 80, 61
1, 200561, Note_on_c, 0, 78, 47
1, 200567, Note_on_c, 0, 74, 46
1, 200590, Note_off_c, 0, 74, 60
1, 200599, Note_off_c, 0, 78, 64
1, 200694, Note_on_c, 0, 78, 46
1, 200719, Note_off_c, 0, 78, 59
1, 200758, Note_on_c, 0, 92, 68
1, 200836, Note_off_c, 0, 92, 62
1, 200870, Note_on_c, 0, 90, 56
1, 200885, Note_on_c, 0, 86, 40
1, 200924, Note_off_c, 0, 86, 47
1, 200940, Note_off_c, 0, 90, 58
1, 200960, Note_on_c, 0, 92, 54
1, 201017, Note_off_c, 0, 92, 50
1, 201031, Note_on_c, 0, 86, 44
1, 201034, Note_on_c, 0, 90, 43
1, 201079, Note_off_c, 0, 90, 63
1, 201085, Note_off_c, 0, 86, 55
1, 201124, Note_on_c, 0, 78, 53
1, 201156, Note_off_c, 0, 78, 65
1, 201219, Note_on_c, 0, 80, 48
1, 201262, Note_off_c, 0, 80, 62
1, 201289, Note_on_c, 0, 74, 53
1, 201300, Note_on_c, 0, 78, 47
1, 201316, Note_off_c, 0, 74, 65
1, 201333, Note_off_c, 0, 78, 65
1, 201424, Note_on_c, 0, 78, 50
1, 201448, Note_off_c, 0, 78, 61
1, 201502, Note_on_c, 0, 92, 58
1, 201565, Note_on_c, 0, 66, 41
1, 201577, Note_off_c, 0, 68, 38
1, 201609, Control_c, 0, 64, 106
1, 201622, Note_off_c, 0, 92, 55
1, 201624, Control_c, 0, 64, 91
1, 201639, Control_c, 0, 64, 78
1, 201654, Control_c, 0, 64, 68
1, 201658, Note_on_c, 0, 78, 49
1, 201658, Note_on_c, 0, 90, 51
1, 201669, Control_c, 0, 64, 66
1, 201680, Note_on_c, 0, 86, 32
1, 201684, Control_c, 0, 64, 70
1, 201699, Control_c, 0, 64, 77
1, 201702, Note_off_c, 0, 66, 58
1, 201712, Note_off_c, 0, 78, 58
1, 201713, Control_c, 0, 64, 89
1, 201728, Control_c, 0, 64, 105
1, 201741, Note_off_c, 0, 86, 41
1, 201743, Control_c, 0, 64, 127
1, 201750, Note_on_c, 0, 92, 54
1, 201760, Note_off_c, 0, 90, 47
1, 201849, Note_off_c, 0, 92, 56
1, 201860, Note_on_c, 0, 90, 44
1, 201869, Note_on_c, 0, 86, 47
1, 201911, Note_off_c, 0, 90, 63
1, 201914, Note_off_c, 0, 86, 57
1, 201954, Note_on_c, 0, 78, 54
1, 201991, Note_off_c, 0, 78, 64
1, 202060, Note_on_c, 0, 80, 45
1, 202101, Note_off_c, 0, 80, 62
1, 202140, Note_on_c, 0, 74, 50
1, 202154, Note_on_c, 0, 78, 44
1, 202170, Note_off_c, 0, 74, 65
1, 202189, Note_off_c, 0, 78, 60
1, 202267, Note_on_c, 0, 78, 69
1, 202302, Note_off_c, 0, 78, 58
1, 202382, Note_on_c, 0, 92, 53
1, 202412, Note_on_c, 0, 68, 40
1, 202505, Note_off_c, 0, 92, 58
1, 202507, Control_c, 0, 64, 114
1, 202522, Control_c, 0, 64, 94
1, 202536, Note_on_c, 0, 90, 53
1, 202536, Control_c, 0, 64, 79
1, 202551, Note_on_c, 0, 80, 41
1, 202551, Control_c, 0, 64, 68
1, 202557, Note_on_c, 0, 86, 36
1, 202566, Control_c, 0, 64, 65
1, 202580, Control_c, 0, 64, 73
1, 202595, Control_c, 0, 64, 91
1, 202610, Control_c, 0, 64, 127
1, 202618, Note_off_c, 0, 80, 53
1, 202649, Note_off_c, 0, 68, 46
1, 202653, Note_off_c, 0, 86, 31
1, 202656, Note_on_c, 0, 92, 52
1, 202667, Note_off_c, 0, 90, 44
1, 202684, Control_c, 0, 67, 87
1, 202774, Control_c, 0, 67, 87
1, 202787, Note_on_c, 0, 90, 46
1, 202787, Note_off_c, 0, 92, 36
1, 202790, Note_on_c, 0, 86, 45
1, 202837, Note_off_c, 0, 90, 52
1, 202853, Note_off_c, 0, 86, 55
1, 202908, Note_on_c, 0, 78, 54
1, 202954, Note_off_c, 0, 78, 56
1, 203023, Note_on_c, 0, 80, 52
1, 203107, Control_c, 0, 67, 86
1, 203111, Note_off_c, 0, 80, 52
1, 203163, Note_on_c, 0, 74, 41
1, 203175, Note_on_c, 0, 78, 36
1, 203196, Note_off_c, 0, 74, 63
1, 203223, Note_off_c, 0, 78, 47
1, 203255, Control_c, 0, 67, 86
1, 203344, Note_on_c, 0, 78, 42
1, 203467, Note_off_c, 0, 78, 48
1, 203559, Note_on_c, 0, 92, 42
1, 203594, Note_off_c, 0, 92, 47
1, 203679, Control_c, 0, 67, 86
1, 203723, Control_c, 0, 67, 87
1, 203753, Control_c, 0, 67, 87
1, 203768, Control_c, 0, 67, 88
1, 203797, Control_c, 0, 67, 88
1, 203812, Control_c, 0, 67, 89
1, 203857, Control_c, 0, 67, 89
1, 203902, Control_c, 0, 67, 90
1, 203916, Control_c, 0, 64, 118
1, 203931, Control_c, 0, 64, 109
1, 203931, Control_c, 0, 67, 90
1, 203946, Control_c, 0, 64, 101
1, 203946, Control_c, 0, 67, 91
1, 203961, Control_c, 0, 64, 96
1, 203976, Control_c, 0, 64, 92
1, 203976, Control_c, 0, 67, 91
1, 203980, Note_on_c, 0, 57, 30
1, 203990, Control_c, 0, 64, 88
1, 204005, Control_c, 0, 64, 82
1, 204005, Control_c, 0, 67, 92
1, 204020, Control_c, 0, 64, 76
1, 204034, Control_c, 0, 64, 67
1, 204038, Note_on_c, 0, 60, 27
1, 204049, Control_c, 0, 64, 58
1, 204049, Control_c, 0, 67, 92
1, 204064, Control_c, 0, 64, 47
1, 204064, Control_c, 0, 67, 93
1, 204079, Control_c, 0, 64, 45
1, 204079, Control_c, 0, 67, 95
1, 204094, Control_c, 0, 64, 41
1, 204094, Control_c, 0, 67, 96
1, 204108, Control_c, 0, 64, 34
1, 204108, Control_c, 0, 67, 97
1, 204123, Control_c, 0, 64, 31
1, 204138, Control_c, 0, 64, 37
1, 204152, Note_on_c, 0, 64, 29
1, 204152, Control_c, 0, 64, 53
1, 204167, Control_c, 0, 64, 63
1, 204182, Control_c, 0, 64, 70
1, 204197, Control_c, 0, 64, 78
1, 204197, Control_c, 0, 67, 96
1, 204200, Note_on_c, 0, 69, 44
1, 204212, Control_c, 0, 64, 87
1, 204212, Control_c, 0, 67, 96
1, 204226, Control_c, 0, 64, 94
1, 204226, Control_c, 0, 67, 95
1, 204241, Control_c, 0, 64, 102
1, 204241, Control_c, 0, 67, 94
1, 204256, Control_c, 0, 64, 123
1, 204256, Control_c, 0, 67, 93
1, 204268, Note_off_c, 0, 69, 51
1, 204271, Control_c, 0, 64, 127
1, 204271, Control_c, 0, 67, 93
1, 204286, Control_c, 0, 67, 92
1, 204301, Note_on_c, 0, 76, 46
1, 204301, Control_c, 0, 67, 92
1, 204316, Control_c, 0, 67, 91
1, 204331, Control_c, 0, 67, 91
1, 204346, Control_c, 0, 67, 90
1, 204361, Control_c, 0, 67, 89
1, 204362, Note_off_c, 0, 64, 42
1, 204383, Note_on_c, 0, 81, 47
1, 204383, Control_c, 0, 67, 88
1, 204396, Note_off_c, 0, 60, 46
1, 204398, Control_c, 0, 67, 88
1, 204412, Control_c, 0, 67, 87
1, 204414, Note_off_c, 0, 57, 42
1, 204426, Note_off_c, 0, 76, 36
1, 204467, Note_on_c, 0, 84, 53
1, 204545, Note_on_c, 0, 88, 51
1, 204554, Note_off_c, 0, 81, 55
1, 204679, Control_c, 0, 67, 88
1, 204701, Note_off_c, 0, 84, 58
1, 204842, Control_c, 0, 67, 88
1, 204897, Note_on_c, 0, 24, 23
1, 204917, Note_on_c, 0, 93, 45
1, 204930, Control_c, 0, 67, 88
1, 205020, Control_c, 0, 67, 87
1, 205086, Note_off_c, 0, 93, 39
1, 205091, Note_off_c, 0, 24, 37
1, 205132, Control_c, 0, 67, 87
1, 205137, Note_off_c, 0, 88, 36
1, 205185, Note_on_c, 0, 26, 10
1, 205243, Note_off_c, 0, 26, 43
1, 205269, Note_on_c, 0, 28, 28
1, 205390, Note_on_c, 0, 29, 43
1, 205422, Note_off_c, 0, 28, 23
1, 205491, Note_off_c, 0, 29, 34
1, 205500, Note_on_c, 0, 31, 45
1, 205547, Control_c, 0, 67, 86
1, 205581, Note_off_c, 0, 31, 35
1, 205591, Control_c, 0, 67, 86
1, 205599, Note_on_c, 0, 33, 42
1, 205605, Control_c, 0, 67, 85
1, 205620, Control_c, 0, 67, 84
1, 205635, Control_c, 0, 67, 82
1, 205643, Note_on_c, 0, 91, 60
1, 205643, Note_off_c, 0, 33, 44
1, 205650, Control_c, 0, 67, 80
1, 205653, Note_on_c, 0, 88, 42
1, 205658, Note_on_c, 0, 84, 40
1, 205660, Note_on_c, 0, 79, 41
1, 205665, Control_c, 0, 67, 79
1, 205679, Control_c, 0, 67, 78
1, 205694, Control_c, 0, 67, 74
1, 205703, Note_on_c, 0, 35, 26
1, 205709, Control_c, 0, 67, 69
1, 205724, Control_c, 0, 67, 63
1, 205739, Control_c, 0, 67, 58
1, 205745, Note_off_c, 0, 35, 51
1, 205752, Note_off_c, 0, 91, 60
1, 205753, Control_c, 0, 67, 55
1, 205768, Note_on_c, 0, 36, 38
1, 205768, Control_c, 0, 67, 54
1, 205783, Note_off_c, 0, 88, 58
1, 205798, Note_off_c, 0, 84, 57
1, 205798, Control_c, 0, 67, 54
1, 205802, Note_off_c, 0, 36, 49
1, 205813, Control_c, 0, 67, 55
1, 205827, Control_c, 0, 67, 55
1, 205833, Note_on_c, 0, 38, 43
1, 205837, Note_off_c, 0, 79, 57
1, 205842, Control_c, 0, 67, 56
1, 205857, Control_c, 0, 67, 57
1, 205869, Note_off_c, 0, 38, 50
1, 205872, Control_c, 0, 67, 58
1, 205894, Control_c, 0, 67, 59
1, 205903, Note_on_c, 0, 40, 54
1, 205910, Control_c, 0, 67, 59
1, 205925, Control_c, 0, 67, 60
1, 205934, Note_off_c, 0, 40, 51
1, 205940, Control_c, 0, 67, 61
1, 205955, Control_c, 0, 67, 61
1, 205970, Control_c, 0, 67, 62
1, 205977, Note_on_c, 0, 41, 37
1, 206011, Note_off_c, 0, 41, 50
1, 206030, Note_on_c, 0, 43, 45
1, 206065, Note_off_c, 0, 43, 51
1, 206083, Note_on_c, 0, 45, 41
1, 206117, Note_off_c, 0, 45, 52
1, 206117, Control_c, 0, 67, 61
1, 206129, Note_on_c, 0, 47, 40
1, 206162, Note_off_c, 0, 47, 53
1, 206170, Note_on_c, 0, 48, 44
1, 206191, Control_c, 0, 67, 61
1, 206201, Note_off_c, 0, 48, 53
1, 206210, Note_on_c, 0, 50, 51
1, 206222, Note_on_c, 0, 79, 46
1, 206222, Note_on_c, 0, 83, 60
1, 206236, Note_on_c, 0, 71, 46
1, 206236, Note_on_c, 0, 76, 50
1, 206247, Note_off_c, 0, 50, 48
1, 206259, Note_on_c, 0, 52, 48
1, 206301, Note_off_c, 0, 52, 43
1, 206312, Note_on_c, 0, 53, 47
1, 206314, Note_off_c, 0, 76, 56
1, 206330, Note_off_c, 0, 83, 55
1, 206337, Note_off_c, 0, 79, 55
1, 206376, Note_off_c, 0, 53, 36
1, 206379, Note_on_c, 0, 55, 13
1, 206384, Note_off_c, 0, 71, 58
1, 206428, Note_off_c, 0, 55, 50
1, 206472, Poly_aftertouch_c, 0, 57, 127
1, 206495, Note_on_c, 0, 59, 32
1, 206520, Poly_aftertouch_c, 0, 57, 0
1, 206532, Control_c, 0, 67, 60
1, 206539, Note_off_c, 0, 59, 47
1, 206542, Note_on_c, 0, 60, 39
1, 206587, Note_off_c, 0, 60, 0
1, 206591, Note_on_c, 0, 62, 52
1, 206614, Poly_aftertouch_c, 0, 60, 0
1, 206650, Note_on_c, 0, 64, 60
1, 206658, Poly_aftertouch_c, 0, 60, 127
1, 206658, Control_c, 0, 67, 61
1, 206677, Note_off_c, 0, 62, 63
1, 206684, Poly_aftertouch_c, 0, 60, 0
1, 206709, Note_on_c, 0, 81, 52
1, 206711, Note_on_c, 0, 76, 24
1, 206718, Note_on_c, 0, 69, 53
1, 206725, Note_on_c, 0, 72, 43
1, 206731, Note_on_c, 0, 65, 55
1, 206778, Control_c, 0, 67, 61
1, 206781, Note_off_c, 0, 69, 65
1, 206782, Note_off_c, 0, 64, 26
1, 206786, Note_off_c, 0, 72, 60
1, 206800, Note_on_c, 0, 67, 61
1, 206800, Note_off_c, 0, 65, 38
1, 206822, Control_c, 0, 67, 61
1, 206836, Note_off_c, 0, 67, 55
1, 206848, Note_off_c, 0, 76, 41
1, 206853, Note_on_c, 0, 69, 50
1, 206866, Control_c, 0, 67, 60
1, 206869, Note_off_c, 0, 81, 52
1, 206879, Note_off_c, 0, 69, 61
1, 206881, Control_c, 0, 67, 60
1, 206907, Note_on_c, 0, 71, 57
1, 206927, Note_off_c, 0, 71, 63
1, 206950, Note_on_c, 0, 72, 58
1, 206971, Note_off_c, 0, 72, 62
1, 206984, Control_c, 0, 67, 59
1, 206993, Note_on_c, 0, 74, 57
1, 207014, Note_off_c, 0, 74, 62
1, 207041, Note_on_c, 0, 76, 55
1, 207064, Note_off_c, 0, 76, 61
1, 207070, Note_on_c, 0, 77, 58
1, 207091, Note_off_c, 0, 77, 63
1, 207109, Note_on_c, 0, 79, 51
1, 207132, Note_off_c, 0, 79, 59
1, 207133, Control_c, 0, 67, 59
1, 207139, Note_on_c, 0, 81, 58
1, 207148, Control_c, 0, 67, 58
1, 207157, Note_off_c, 0, 81, 64
1, 207163, Control_c, 0, 67, 57
1, 207172, Note_on_c, 0, 83, 64
1, 207177, Control_c, 0, 67, 57
1, 207191, Note_off_c, 0, 83, 63
1, 207210, Note_on_c, 0, 84, 65
1, 207223, Control_c, 0, 67, 56
1, 207238, Note_off_c, 0, 84, 63
1, 207250, Note_on_c, 0, 86, 61
1, 207277, Note_off_c, 0, 86, 65
1, 207295, Note_on_c, 0, 88, 69
1, 207312, Control_c, 0, 67, 56
1, 207317, Note_off_c, 0, 88, 64
1, 207326, Control_c, 0, 67, 55
1, 207336, Note_on_c, 0, 89, 64
1, 207341, Control_c, 0, 67, 55
1, 207356, Control_c, 0, 67, 54
1, 207366, Note_off_c, 0, 89, 65
1, 207381, Note_on_c, 0, 91, 64
1, 207407, Note_off_c, 0, 91, 64
1, 207426, Note_on_c, 0, 93, 55
1, 207446, Note_off_c, 0, 93, 60
1, 207452, Control_c, 0, 67, 54
1, 207455, Note_on_c, 0, 95, 59
1, 207473, Note_off_c, 0, 95, 63
1, 207482, Control_c, 0, 67, 53
1, 207488, Note_on_c, 0, 96, 58
1, 207497, Control_c, 0, 67, 49
1, 207506, Note_off_c, 0, 96, 64
1, 207512, Control_c, 0, 67, 40
1, 207521, Note_on_c, 0, 98, 57
1, 207527, Control_c, 0, 67, 30
1, 207540, Note_off_c, 0, 98, 61
1, 207542, Control_c, 0, 67, 22
1, 207556, Control_c, 0, 67, 17
1, 207563, Note_on_c, 0, 100, 45
1, 207571, Control_c, 0, 67, 12
1, 207586, Control_c, 0, 67, 0
1, 207587, Note_on_c, 0, 101, 70
1, 207590, Note_off_c, 0, 100, 57
1, 207640, Note_on_c, 0, 103, 41
1, 207643, Note_off_c, 0, 101, 69
1, 207666, Note_off_c, 0, 103, 57
1, 207800, Note_on_c, 0, 105, 45
1, 207873, Note_on_c, 0, 103, 64
1, 207895, Note_off_c, 0, 105, 52
1, 207946, Note_on_c, 0, 100, 55
1, 207962, Note_off_c, 0, 103, 55
1, 207977, Note_on_c, 0, 96, 62
1, 208016, Note_off_c, 0, 100, 62
1, 208024, Note_on_c, 0, 93, 56
1, 208033, Note_off_c, 0, 96, 66
1, 208059, Note_off_c, 0, 93, 50
1, 208082, Note_on_c, 0, 91, 60
1, 208109, Note_on_c, 0, 88, 55
1, 208138, Note_off_c, 0, 91, 41
1, 208139, Note_on_c, 0, 84, 48
1, 208197, Note_on_c, 0, 81, 57
1, 208206, Note_off_c, 0, 88, 64
1, 208223, Note_off_c, 0, 81, 68
1, 208230, Note_off_c, 0, 84, 64
1, 208275, Note_on_c, 0, 79, 54
1, 208325, Note_on_c, 0, 76, 49
1, 208334, Note_off_c, 0, 79, 54
1, 208373, Note_on_c, 0, 72, 55
1, 208414, Note_on_c, 0, 69, 41
1, 208414, Note_off_c, 0, 76, 50
1, 208422, Note_off_c, 0, 72, 56
1, 208441, Note_off_c, 0, 69, 56
1, 208474, Note_on_c, 0, 67, 69
1, 208527, Note_on_c, 0, 64, 44
1, 208537, Note_off_c, 0, 67, 47
1, 208589, Note_on_c, 0, 60, 58
1, 208614, Note_off_c, 0, 64, 57
1, 208642, Note_on_c, 0, 57, 55
1, 208675, Note_off_c, 0, 60, 61
1, 208725, Note_on_c, 0, 55, 55
1, 208750, Note_off_c, 0, 57, 60
1, 208761, Note_off_c, 0, 55, 62
1, 208978, Control_c, 0, 64, 112
1, 208993, Control_c, 0, 64, 103
1, 209008, Control_c, 0, 64, 95
1, 209023, Control_c, 0, 64, 87
1, 209038, Control_c, 0, 64, 80
1, 209038, Note_on_c, 0, 48, 34
1, 209053, Control_c, 0, 64, 73
1, 209068, Control_c, 0, 64, 65
1, 209083, Note_on_c, 0, 79, 61
1, 209083, Control_c, 0, 64, 58
1, 209089, Note_on_c, 0, 72, 52
1, 209098, Control_c, 0, 64, 55
1, 209100, Note_on_c, 0, 67, 51
1, 209113, Control_c, 0, 64, 53
1, 209127, Control_c, 0, 64, 46
1, 209142, Control_c, 0, 64, 31
1, 209157, Control_c, 0, 64, 0
1, 209217, Control_c, 0, 64, 31
1, 209232, Control_c, 0, 64, 56
1, 209246, Control_c, 0, 64, 67
1, 209261, Control_c, 0, 64, 78
1, 209276, Control_c, 0, 64, 91
1, 209291, Control_c, 0, 64, 105
1, 209306, Control_c, 0, 64, 127
1, 209314, Note_on_c, 0, 55, 39
1, 209336, Note_off_c, 0, 67, 41
1, 209357, Note_off_c, 0, 48, 41
1, 209372, Note_off_c, 0, 55, 60
1, 209401, Note_off_c, 0, 72, 59
1, 209412, Note_on_c, 0, 60, 46
1, 209441, Note_off_c, 0, 60, 64
1, 209512, Note_on_c, 0, 64, 56
1, 209585, Note_off_c, 0, 64, 50
1, 209592, Note_on_c, 0, 67, 45
1, 209664, Note_off_c, 0, 67, 58
1, 209676, Note_on_c, 0, 69, 56
1, 209734, Note_off_c, 0, 69, 60
1, 209770, Note_on_c, 0, 67, 51
1, 209813, Note_off_c, 0, 67, 62
1, 209831, Note_on_c, 0, 64, 56
1, 209852, Note_off_c, 0, 64, 63
1, 209912, Note_on_c, 0, 60, 59
1, 209962, Note_off_c, 0, 60, 60
1, 209983, Note_on_c, 0, 55, 58
1, 210045, Note_off_c, 0, 55, 60
1, 210048, Note_on_c, 0, 48, 58
1, 210078, Note_off_c, 0, 48, 64
1, 210159, Note_on_c, 0, 48, 55
1, 210223, Note_off_c, 0, 48, 53
1, 210228, Note_on_c, 0, 43, 56
1, 210377, Note_off_c, 0, 43, 54
1, 210386, Note_on_c, 0, 36, 46
1, 210388, Control_c, 0, 64, 113
1, 210403, Control_c, 0, 64, 102
1, 210418, Control_c, 0, 64, 91
1, 210428, Note_on_c, 0, 81, 73
1, 210433, Control_c, 0, 64, 83
1, 210446, Note_on_c, 0, 76, 59
1, 210448, Control_c, 0, 64, 75
1, 210448, Note_on_c, 0, 69, 48
1, 210463, Control_c, 0, 64, 66
1, 210477, Control_c, 0, 64, 53
1, 210492, Control_c, 0, 64, 36
1, 210507, Control_c, 0, 64, 32
1, 210521, Control_c, 0, 64, 25
1, 210524, Note_off_c, 0, 79, 54
1, 210536, Control_c, 0, 64, 18
1, 210566, Control_c, 0, 64, 26
1, 210581, Control_c, 0, 64, 49
1, 210596, Control_c, 0, 64, 65
1, 210610, Control_c, 0, 64, 72
1, 210615, Note_on_c, 0, 43, 38
1, 210625, Control_c, 0, 64, 81
1, 210640, Control_c, 0, 64, 88
1, 210645, Note_off_c, 0, 36, 36
1, 210655, Control_c, 0, 64, 95
1, 210669, Control_c, 0, 64, 104
1, 210677, Note_off_c, 0, 43, 56
1, 210684, Control_c, 0, 64, 123
1, 210700, Control_c, 0, 64, 127
1, 210704, Note_on_c, 0, 48, 50
1, 210735, Note_off_c, 0, 48, 63
1, 210825, Note_on_c, 0, 52, 36
1, 210887, Note_off_c, 0, 52, 54
1, 210907, Note_on_c, 0, 55, 47
1, 210974, Note_off_c, 0, 55, 58
1, 211011, Note_on_c, 0, 57, 53
1, 211057, Note_off_c, 0, 57, 57
1, 211122, Note_on_c, 0, 55, 42
1, 211181, Control_c, 0, 67, 8
1, 211184, Note_off_c, 0, 55, 58
1, 211196, Control_c, 0, 67, 9
1, 211197, Note_on_c, 0, 52, 54
1, 211211, Control_c, 0, 67, 10
1, 211226, Note_off_c, 0, 52, 64
1, 211226, Control_c, 0, 67, 11
1, 211241, Control_c, 0, 67, 11
1, 211256, Control_c, 0, 67, 12
1, 211271, Control_c, 0, 67, 12
1, 211285, Control_c, 0, 67, 14
1, 211300, Control_c, 0, 67, 15
1, 211308, Note_on_c, 0, 48, 51
1, 211315, Control_c, 0, 67, 16
1, 211330, Control_c, 0, 67, 16
1, 211344, Control_c, 0, 67, 17
1, 211354, Note_off_c, 0, 48, 48
1, 211359, Control_c, 0, 67, 18
1, 211374, Control_c, 0, 67, 21
1, 211389, Control_c, 0, 67, 24
1, 211404, Control_c, 0, 67, 27
1, 211418, Control_c, 0, 67, 30
1, 211432, Note_on_c, 0, 43, 42
1, 211433, Control_c, 0, 67, 32
1, 211448, Control_c, 0, 67, 34
1, 211463, Control_c, 0, 67, 36
1, 211478, Control_c, 0, 67, 39
1, 211494, Control_c, 0, 67, 41
1, 211509, Control_c, 0, 67, 42
1, 211516, Note_on_c, 0, 36, 40
1, 211523, Control_c, 0, 67, 44
1, 211538, Control_c, 0, 67, 45
1, 211553, Control_c, 0, 67, 47
1, 211566, Note_off_c, 0, 43, 33
1, 211568, Control_c, 0, 67, 48
1, 211583, Control_c, 0, 67, 50
1, 211584, Note_off_c, 0, 69, 41
1, 211597, Control_c, 0, 67, 52
1, 211612, Control_c, 0, 67, 54
1, 211627, Control_c, 0, 67, 56
1, 211641, Note_off_c, 0, 76, 35
1, 211641, Control_c, 0, 67, 59
1, 211656, Control_c, 0, 67, 62
1, 211671, Control_c, 0, 67, 65
1, 211685, Note_on_c, 0, 43, 45
1, 211686, Control_c, 0, 67, 68
1, 211688, Note_off_c, 0, 36, 30
1, 211701, Control_c, 0, 67, 70
1, 211715, Control_c, 0, 67, 73
1, 211730, Control_c, 0, 67, 76
1, 211745, Control_c, 0, 67, 80
1, 211746, Note_off_c, 0, 81, 59
1, 211760, Control_c, 0, 67, 83
1, 211774, Control_c, 0, 67, 88
1, 211789, Control_c, 0, 67, 92
1, 211804, Control_c, 0, 67, 97
1, 211819, Control_c, 0, 67, 101
1, 211827, Note_off_c, 0, 43, 0
1, 211829, Note_on_c, 0, 36, 38
1, 211834, Control_c, 0, 67, 105
1, 211849, Control_c, 0, 67, 109
1, 211871, Control_c, 0, 67, 113
1, 211872, Poly_aftertouch_c, 0, 43, 0
1, 211873, Note_off_c, 0, 36, 48
1, 211886, Control_c, 0, 67, 117
1, 211901, Control_c, 0, 67, 120
1, 211916, Control_c, 0, 67, 123
1, 211930, Control_c, 0, 67, 125
1, 211945, Control_c, 0, 67, 127
1, 212034, Control_c, 0, 64, 123
1, 212049, Control_c, 0, 64, 120
1, 212063, Control_c, 0, 64, 118
1, 212078, Control_c, 0, 64, 116
1, 212093, Control_c, 0, 64, 115
1, 212108, Control_c, 0, 64, 113
1, 212123, Control_c, 0, 64, 110
1, 212138, Control_c, 0, 64, 107
1, 212153, Control_c, 0, 64, 106
1, 212167, Control_c, 0, 64, 105
1, 212182, Control_c, 0, 64, 104
1, 212197, Control_c, 0, 64, 103
1, 212212, Control_c, 0, 64, 103
1, 212227, Control_c, 0, 64, 102
1, 212241, Control_c, 0, 64, 101
1, 212256, Control_c, 0, 64, 101
1, 212286, Control_c, 0, 64, 100
1, 212302, Control_c, 0, 64, 99
1, 212317, Control_c, 0, 64, 99
1, 212332, Control_c, 0, 64, 98
1, 212346, Control_c, 0, 64, 98
1, 212361, Control_c, 0, 64, 97
1, 212391, Control_c, 0, 64, 97
1, 212405, Control_c, 0, 64, 96
1, 212420, Control_c, 0, 64, 95
1, 212435, Control_c, 0, 64, 95
1, 212449, Control_c, 0, 64, 94
1, 212478, Control_c, 0, 64, 94
1, 212493, Control_c, 0, 64, 93
1, 212508, Control_c, 0, 64, 92
1, 212523, Control_c, 0, 64, 92
1, 212537, Control_c, 0, 64, 91
1, 212552, Control_c, 0, 64, 89
1, 212567, Control_c, 0, 64, 88
1, 212582, Control_c, 0, 64, 85
1, 212586, Note_on_c, 0, 30, 32
1, 212597, Control_c, 0, 64, 81
1, 212619, Control_c, 0, 64, 76
1, 212634, Control_c, 0, 64, 71
1, 212639, Note_on_c, 0, 87, 48
1, 212648, Note_on_c, 0, 82, 39
1, 212649, Control_c, 0, 64, 65
1, 212654, Note_on_c, 0, 75, 39
1, 212664, Control_c, 0, 64, 60
1, 212678, Control_c, 0, 64, 53
1, 212693, Control_c, 0, 64, 47
1, 212708, Control_c, 0, 64, 44
1, 212723, Control_c, 0, 64, 41
1, 212752, Control_c, 0, 64, 42
1, 212767, Control_c, 0, 64, 51
1, 212782, Control_c, 0, 64, 62
1, 212797, Control_c, 0, 64, 66
1, 212812, Control_c, 0, 64, 71
1, 212827, Control_c, 0, 64, 77
1, 212842, Control_c, 0, 64, 84
1, 212856, Control_c, 0, 64, 90
1, 212871, Control_c, 0, 64, 95
1, 212886, Control_c, 0, 64, 101
1, 212901, Control_c, 0, 64, 107
1, 212916, Control_c, 0, 64, 113
1, 212918, Note_off_c, 0, 30, 39
1, 212931, Control_c, 0, 64, 120
1, 212944, Note_on_c, 0, 32, 49
1, 212945, Control_c, 0, 64, 127
1, 212949, Note_off_c, 0, 82, 41
1, 212964, Note_off_c, 0, 87, 41
1, 212979, Note_off_c, 0, 32, 52
1, 212995, Note_on_c, 0, 34, 51
1, 213027, Note_off_c, 0, 34, 63
1, 213071, Note_on_c, 0, 37, 42
1, 213097, Note_off_c, 0, 75, 47
1, 213130, Note_off_c, 0, 37, 60
1, 213155, Note_on_c, 0, 39, 40
1, 213203, Note_off_c, 0, 39, 62
1, 213229, Note_on_c, 0, 42, 45
1, 213243, Control_c, 0, 64, 112
1, 213258, Control_c, 0, 64, 96
1, 213265, Note_on_c, 0, 85, 60
1, 213267, Note_on_c, 0, 78, 49
1, 213273, Control_c, 0, 64, 87
1, 213280, Note_on_c, 0, 73, 46
1, 213287, Control_c, 0, 64, 80
1, 213292, Note_off_c, 0, 42, 61
1, 213299, Note_on_c, 0, 44, 38
1, 213302, Control_c, 0, 64, 78
1, 213337, Note_off_c, 0, 44, 61
1, 213354, Note_off_c, 0, 73, 0
1, 213354, Note_on_c, 0, 73, 3
1, 213365, Note_on_c, 0, 46, 51
1, 213369, Note_off_c, 0, 85, 63
1, 213384, Control_c, 0, 64, 80
1, 213393, Note_off_c, 0, 46, 65
1, 213399, Control_c, 0, 64, 84
1, 213399, Note_off_c, 0, 78, 58
1, 213414, Control_c, 0, 64, 89
1, 213424, Note_on_c, 0, 49, 49
1, 213428, Control_c, 0, 64, 94
1, 213443, Control_c, 0, 64, 99
1, 213457, Note_off_c, 0, 73, 52
1, 213458, Control_c, 0, 64, 101
1, 213463, Note_off_c, 0, 49, 64
1, 213471, Note_on_c, 0, 51, 51
1, 213473, Control_c, 0, 64, 106
1, 213488, Control_c, 0, 64, 112
1, 213502, Control_c, 0, 64, 122
1, 213512, Note_off_c, 0, 51, 65
1, 213517, Control_c, 0, 64, 127
1, 213531, Note_on_c, 0, 54, 51
1, 213587, Note_on_c, 0, 56, 43
1, 213593, Note_off_c, 0, 54, 63
1, 213636, Note_off_c, 0, 56, 64
1, 213647, Note_on_c, 0, 58, 50
1, 213682, Note_off_c, 0, 58, 66
1, 213701, Note_on_c, 0, 61, 49
1, 213755, Note_off_c, 0, 61, 0
1, 213755, Note_on_c, 0, 61, 21
1, 213760, Note_on_c, 0, 63, 45
1, 213779, Note_on_c, 0, 73, 59
1, 213780, Note_on_c, 0, 77, 65
1, 213785, Note_on_c, 0, 65, 57
1, 213787, Note_off_c, 0, 61, 49
1, 213817, Note_off_c, 0, 65, 64
1, 213832, Note_off_c, 0, 63, 61
1, 213844, Note_on_c, 0, 66, 44
1, 213876, Note_off_c, 0, 77, 61
1, 213879, Note_off_c, 0, 73, 62
1, 213926, Note_on_c, 0, 68, 37
1, 213946, Note_off_c, 0, 66, 0
1, 213975, Poly_aftertouch_c, 0, 66, 0
1, 213984, Note_on_c, 0, 70, 47
1, 214019, Note_off_c, 0, 68, 46
1, 214028, Note_off_c, 0, 70, 64
1, 214086, Note_on_c, 0, 73, 4
1, 214295, Control_c, 0, 64, 123
1, 214296, Note_off_c, 0, 73, 45
1, 214305, Note_on_c, 0, 75, 49
1, 214310, Control_c, 0, 64, 112
1, 214324, Control_c, 0, 64, 104
1, 214339, Control_c, 0, 64, 96
1, 214354, Control_c, 0, 64, 84
1, 214368, Control_c, 0, 64, 71
1, 214383, Control_c, 0, 64, 58
1, 214396, Note_on_c, 0, 63, 49
1, 214398, Control_c, 0, 64, 45
1, 214413, Control_c, 0, 64, 50
1, 214428, Control_c, 0, 64, 57
1, 214442, Control_c, 0, 64, 64
1, 214457, Control_c, 0, 64, 73
1, 214472, Note_off_c, 0, 75, 63
1, 214472, Control_c, 0, 64, 89
1, 214487, Control_c, 0, 64, 114
1, 214502, Control_c, 0, 64, 127
1, 214584, Note_off_c, 0, 63, 63
1, 214631, Note_on_c, 0, 66, 42
1, 214680, Note_off_c, 0, 66, 49
1, 214713, Note_on_c, 0, 68, 45
1, 214737, Note_off_c, 0, 68, 58
1, 214769, Note_on_c, 0, 70, 48
1, 214794, Note_off_c, 0, 70, 63
1, 214835, Note_on_c, 0, 73, 53
1, 214864, Note_off_c, 0, 73, 60
1, 214895, Note_on_c, 0, 75, 50
1, 214919, Note_off_c, 0, 75, 59
1, 214949, Note_on_c, 0, 78, 52
1, 214972, Note_off_c, 0, 78, 61
1, 214986, Note_on_c, 0, 80, 55
1, 215006, Note_off_c, 0, 80, 62
1, 215025, Note_on_c, 0, 82, 54
1, 215047, Note_off_c, 0, 82, 62
1, 215071, Note_on_c, 0, 85, 58
1, 215089, Note_off_c, 0, 85, 64
1, 215117, Note_on_c, 0, 87, 59
1, 215135, Note_off_c, 0, 87, 63
1, 215176, Note_on_c, 0, 90, 56
1, 215195, Note_off_c, 0, 90, 63
1, 215223, Note_on_c, 0, 92, 57
1, 215241, Note_off_c, 0, 92, 61
1, 215275, Note_on_c, 0, 94, 49
1, 215295, Note_off_c, 0, 94, 62
1, 215338, Note_on_c, 0, 97, 49
1, 215354, Control_c, 0, 64, 113
1, 215369, Control_c, 0, 64, 97
1, 215383, Control_c, 0, 64, 82
1, 215394, Note_on_c, 0, 42, 48
1, 215398, Control_c, 0, 64, 68
1, 215404, Note_off_c, 0, 97, 60
1, 215405, Note_on_c, 0, 99, 50
1, 215413, Control_c, 0, 64, 54
1, 215428, Control_c, 0, 64, 48
1, 215443, Control_c, 0, 64, 51
1, 215457, Control_c, 0, 64, 53
1, 215472, Control_c, 0, 64, 61
1, 215488, Control_c, 0, 64, 71
1, 215503, Control_c, 0, 64, 89
1, 215518, Control_c, 0, 64, 127
1, 215550, Note_off_c, 0, 99, 55
1, 215868, Note_on_c, 0, 49, 36
1, 215888, Note_off_c, 0, 42, 40
1, 216081, Note_on_c, 0, 58, 48
1, 216115, Note_off_c, 0, 49, 42
1, 216122, Note_off_c, 0, 58, 62
1, 216367, Note_on_c, 0, 58, 43
1, 216414, Note_on_c, 0, 63, 31
1, 216553, Note_on_c, 0, 65, 45
1, 216566, Note_off_c, 0, 63, 38
1, 216591, Note_off_c, 0, 58, 39
1, 216624, Note_off_c, 0, 65, 54
1, 216626, Note_on_c, 0, 61, 31
1, 216660, Note_on_c, 0, 70, 45
1, 216703, Note_off_c, 0, 70, 60
1, 216740, Note_on_c, 0, 75, 43
1, 216753, Note_off_c, 0, 61, 37
1, 216764, Note_on_c, 0, 65, 36
1, 216823, Note_on_c, 0, 70, 43
1, 216833, Note_off_c, 0, 65, 50
1, 216857, Note_off_c, 0, 75, 34
1, 216884, Note_on_c, 0, 63, 32
1, 216901, Note_on_c, 0, 66, 45
1, 216921, Note_off_c, 0, 63, 51
1, 216955, Note_off_c, 0, 66, 61
1, 216974, Note_off_c, 0, 70, 27
1, 216979, Note_on_c, 0, 63, 42
1, 216982, Note_on_c, 0, 58, 39
1, 217040, Note_off_c, 0, 63, 52
1, 217074, Note_on_c, 0, 65, 41
1, 217074, Note_off_c, 0, 58, 37
1, 217098, Note_on_c, 0, 61, 36
1, 217134, Note_off_c, 0, 65, 54
1, 217155, Note_on_c, 0, 70, 50
1, 217200, Note_off_c, 0, 70, 61
1, 217230, Note_on_c, 0, 65, 43
1, 217235, Note_on_c, 0, 75, 49
1, 217235, Note_off_c, 0, 61, 35
1, 217274, Note_off_c, 0, 65, 58
1, 217290, Note_off_c, 0, 75, 50
1, 217324, Note_on_c, 0, 70, 40
1, 217331, Note_on_c, 0, 63, 34
1, 217360, Note_on_c, 0, 66, 46
1, 217367, Note_off_c, 0, 70, 52
1, 217368, Note_off_c, 0, 63, 50
1, 217399, Note_off_c, 0, 66, 64
1, 217424, Note_on_c, 0, 58, 43
1, 217431, Note_on_c, 0, 63, 43
1, 217480, Note_off_c, 0, 58, 54
1, 217483, Note_off_c, 0, 63, 57
1, 217514, Note_on_c, 0, 65, 48
1, 217542, Note_on_c, 0, 61, 36
1, 217556, Note_off_c, 0, 65, 59
1, 217583, Note_on_c, 0, 70, 56
1, 217608, Note_off_c, 0, 61, 56
1, 217616, Note_off_c, 0, 70, 64
1, 217651, Note_on_c, 0, 75, 45
1, 217661, Note_on_c, 0, 65, 37
1, 217694, Note_off_c, 0, 65, 52
1, 217694, Note_off_c, 0, 75, 55
1, 217702, Note_on_c, 0, 70, 50
1, 217745, Note_on_c, 0, 63, 34
1, 217753, Note_off_c, 0, 70, 54
1, 217760, Note_on_c, 0, 66, 41
1, 217788, Note_off_c, 0, 63, 0
1, 217795, Note_off_c, 0, 66, 61
1, 217812, Note_on_c, 0, 63, 33
1, 217829, Note_on_c, 0, 58, 45
1, 217903, Note_off_c, 0, 63, 55
1, 217905, Note_off_c, 0, 58, 51
1, 217925, Note_on_c, 0, 65, 48
1, 217965, Note_off_c, 0, 65, 59
1, 217969, Note_on_c, 0, 61, 34
1, 217993, Note_on_c, 0, 70, 53
1, 218026, Note_off_c, 0, 70, 64
1, 218034, Note_off_c, 0, 61, 42
1, 218053, Note_on_c, 0, 75, 54
1, 218080, Note_on_c, 0, 65, 36
1, 218103, Note_off_c, 0, 75, 52
1, 218108, Note_off_c, 0, 65, 55
1, 218128, Note_on_c, 0, 70, 39
1, 218153, Note_on_c, 0, 63, 42
1, 218160, Note_on_c, 0, 66, 45
1, 218178, Note_off_c, 0, 70, 45
1, 218202, Note_off_c, 0, 66, 64
1, 218249, Note_on_c, 0, 58, 44
1, 218303, Note_off_c, 0, 63, 59
1, 218307, Note_off_c, 0, 58, 55
1, 218314, Note_on_c, 0, 65, 51
1, 218349, Note_off_c, 0, 65, 61
1, 218362, Note_on_c, 0, 61, 35
1, 218375, Note_on_c, 0, 70, 53
1, 218409, Note_off_c, 0, 70, 63
1, 218411, Note_off_c, 0, 61, 56
1, 218447, Note_on_c, 0, 75, 44
1, 218460, Note_on_c, 0, 65, 43
1, 218490, Note_off_c, 0, 75, 45
1, 218493, Note_on_c, 0, 70, 52
1, 218494, Note_off_c, 0, 65, 51
1, 218531, Note_on_c, 0, 63, 45
1, 218538, Note_off_c, 0, 70, 53
1, 218545, Note_on_c, 0, 66, 45
1, 218586, Note_off_c, 0, 66, 64
1, 218642, Note_on_c, 0, 58, 45
1, 218678, Note_off_c, 0, 63, 59
1, 218686, Note_off_c, 0, 58, 59
1, 218704, Note_on_c, 0, 65, 46
1, 218732, Note_off_c, 0, 65, 53
1, 218754, Note_on_c, 0, 61, 30
1, 218758, Note_on_c, 0, 70, 49
1, 218796, Note_off_c, 0, 70, 60
1, 218803, Note_off_c, 0, 61, 46
1, 218828, Note_on_c, 0, 75, 43
1, 218839, Note_on_c, 0, 65, 45
1, 218870, Note_off_c, 0, 75, 46
1, 218875, Note_off_c, 0, 65, 53
1, 218909, Note_on_c, 0, 70, 34
1, 218923, Note_on_c, 0, 66, 50
1, 218923, Note_on_c, 0, 63, 43
1, 218952, Note_off_c, 0, 70, 45
1, 218964, Note_off_c, 0, 66, 62
1, 218979, Note_off_c, 0, 63, 0
1, 218979, Note_on_c, 0, 63, 29
1, 219016, Note_on_c, 0, 58, 45
1, 219063, Note_off_c, 0, 58, 58
1, 219066, Note_off_c, 0, 63, 54
1, 219079, Note_on_c, 0, 65, 47
1, 219116, Note_off_c, 0, 65, 51
1, 219119, Note_on_c, 0, 61, 42
1, 219143, Note_on_c, 0, 70, 50
1, 219162, Note_off_c, 0, 61, 60
1, 219179, Note_off_c, 0, 70, 60
1, 219209, Note_on_c, 0, 75, 43
1, 219222, Note_on_c, 0, 65, 34
1, 219255, Note_off_c, 0, 65, 53
1, 219276, Note_off_c, 0, 75, 45
1, 219279, Note_on_c, 0, 70, 37
1, 219290, Note_on_c, 0, 63, 28
1, 219295, Note_on_c, 0, 66, 52
1, 219330, Note_off_c, 0, 63, 52
1, 219356, Note_off_c, 0, 66, 55
1, 219394, Note_off_c, 0, 70, 30
1, 219402, Control_c, 0, 64, 106
1, 219413, Note_on_c, 0, 57, 44
1, 219417, Control_c, 0, 64, 90
1, 219420, Note_on_c, 0, 62, 52
1, 219431, Control_c, 0, 64, 75
1, 219446, Control_c, 0, 64, 60
1, 219461, Control_c, 0, 64, 44
1, 219475, Note_off_c, 0, 62, 57
1, 219476, Control_c, 0, 64, 45
1, 219492, Control_c, 0, 64, 52
1, 219507, Control_c, 0, 64, 61
1, 219509, Note_on_c, 0, 64, 53
1, 219522, Control_c, 0, 64, 67
1, 219536, Control_c, 0, 64, 77
1, 219551, Control_c, 0, 64, 88
1, 219566, Control_c, 0, 64, 95
1, 219571, Note_on_c, 0, 60, 39
1, 219580, Control_c, 0, 64, 98
1, 219587, Note_on_c, 0, 69, 60
1, 219587, Note_off_c, 0, 64, 59
1, 219595, Control_c, 0, 64, 99
1, 219610, Control_c, 0, 64, 103
1, 219625, Control_c, 0, 64, 106
1, 219639, Note_off_c, 0, 57, 41
1, 219640, Control_c, 0, 64, 108
1, 219652, Note_on_c, 0, 74, 76
1, 219654, Control_c, 0, 64, 113
1, 219669, Control_c, 0, 64, 127
1, 219671, Note_off_c, 0, 60, 55
1, 219671, Note_off_c, 0, 69, 59
1, 219683, Note_on_c, 0, 64, 37
1, 219776, Note_off_c, 0, 64, 38
1, 219793, Note_on_c, 0, 69, 57
1, 219851, Note_on_c, 0, 62, 20
1, 219873, Note_on_c, 0, 66, 46
1, 219896, Note_off_c, 0, 62, 49
1, 219906, Note_off_c, 0, 69, 62
1, 219934, Note_on_c, 0, 60, 32
1, 219936, Control_c, 0, 64, 109
1, 219939, Note_off_c, 0, 66, 57
1, 219951, Control_c, 0, 64, 94
1, 219966, Control_c, 0, 64, 79
1, 219972, Note_on_c, 0, 65, 53
1, 219981, Control_c, 0, 64, 67
1, 219996, Control_c, 0, 64, 61
1, 220011, Control_c, 0, 64, 67
1, 220025, Control_c, 0, 64, 78
1, 220040, Control_c, 0, 64, 97
1, 220052, Note_off_c, 0, 65, 57
1, 220055, Control_c, 0, 64, 127
1, 220087, Note_on_c, 0, 67, 51
1, 220116, Note_off_c, 0, 74, 57
1, 220155, Note_on_c, 0, 63, 34
1, 220164, Note_off_c, 0, 67, 55
1, 220216, Note_off_c, 0, 60, 42
1, 220220, Note_on_c, 0, 72, 29
1, 220294, Note_on_c, 0, 77, 67
1, 220299, Note_off_c, 0, 63, 37
1, 220306, Note_off_c, 0, 72, 40
1, 220316, Note_on_c, 0, 67, 44
1, 220423, Note_off_c, 0, 67, 53
1, 220431, Note_on_c, 0, 72, 35
1, 220476, Note_on_c, 0, 65, 39
1, 220518, Note_off_c, 0, 65, 61
1, 220540, Note_off_c, 0, 77, 52
1, 220577, Note_on_c, 0, 69, 48
1, 220640, Note_off_c, 0, 72, 50
1, 220755, Note_on_c, 0, 54, 30
1, 220772, Note_off_c, 0, 69, 61
1, 220804, Control_c, 0, 64, 115
1, 220818, Control_c, 0, 64, 104
1, 220833, Control_c, 0, 64, 94
1, 220856, Control_c, 0, 64, 83
1, 220859, Note_on_c, 0, 63, 45
1, 220871, Control_c, 0, 64, 69
1, 220885, Control_c, 0, 64, 56
1, 220900, Control_c, 0, 64, 42
1, 220915, Control_c, 0, 64, 44
1, 220929, Control_c, 0, 64, 49
1, 220944, Note_on_c, 0, 58, 15
1, 220944, Control_c, 0, 64, 57
1, 220959, Control_c, 0, 64, 65
1, 220971, Note_off_c, 0, 63, 50
1, 220974, Control_c, 0, 64, 76
1, 220989, Control_c, 0, 64, 88
1, 220995, Note_on_c, 0, 65, 46
1, 221003, Control_c, 0, 64, 97
1, 221018, Control_c, 0, 64, 100
1, 221033, Control_c, 0, 64, 102
1, 221048, Control_c, 0, 64, 107
1, 221062, Note_off_c, 0, 65, 55
1, 221063, Control_c, 0, 64, 114
1, 221079, Control_c, 0, 64, 120
1, 221083, Note_off_c, 0, 54, 45
1, 221086, Note_on_c, 0, 70, 50
1, 221094, Control_c, 0, 64, 127
1, 221095, Note_on_c, 0, 61, 33
1, 221119, Note_off_c, 0, 70, 63
1, 221130, Note_off_c, 0, 58, 44
1, 221131, Note_off_c, 0, 61, 53
1, 221140, Note_on_c, 0, 75, 55
1, 221161, Note_on_c, 0, 65, 36
1, 221197, Note_off_c, 0, 65, 56
1, 221218, Note_on_c, 0, 70, 47
1, 221227, Note_off_c, 0, 75, 47
1, 221260, Note_on_c, 0, 63, 36
1, 221266, Note_off_c, 0, 70, 53
1, 221276, Note_on_c, 0, 66, 45
1, 221313, Note_off_c, 0, 66, 56
1, 221327, Note_off_c, 0, 63, 0
1, 221340, Note_on_c, 0, 63, 47
1, 221355, Note_on_c, 0, 58, 34
1, 221407, Note_off_c, 0, 58, 46
1, 221407, Note_off_c, 0, 63, 57
1, 221426, Note_on_c, 0, 65, 47
1, 221460, Note_on_c, 0, 61, 36
1, 221464, Note_off_c, 0, 65, 60
1, 221486, Note_on_c, 0, 70, 51
1, 221512, Note_off_c, 0, 61, 45
1, 221522, Note_off_c, 0, 70, 62
1, 221559, Note_on_c, 0, 65, 44
1, 221561, Note_on_c, 0, 75, 43
1, 221608, Note_off_c, 0, 65, 50
1, 221611, Note_off_c, 0, 75, 45
1, 221636, Note_on_c, 0, 70, 36
1, 221649, Note_on_c, 0, 63, 45
1, 221662, Note_on_c, 0, 66, 44
1, 221675, Note_off_c, 0, 63, 59
1, 221677, Note_off_c, 0, 70, 49
1, 221706, Note_off_c, 0, 66, 62
1, 221737, Note_on_c, 0, 63, 45
1, 221748, Note_on_c, 0, 58, 42
1, 221781, Note_off_c, 0, 63, 58
1, 221799, Note_off_c, 0, 58, 57
1, 221816, Note_on_c, 0, 65, 50
1, 221841, Note_off_c, 0, 65, 58
1, 221848, Note_on_c, 0, 61, 38
1, 221871, Note_on_c, 0, 70, 53
1, 221898, Note_off_c, 0, 61, 55
1, 221902, Note_off_c, 0, 70, 64
1, 221933, Note_on_c, 0, 75, 45
1, 221945, Note_on_c, 0, 65, 50
1, 221972, Note_off_c, 0, 75, 46
1, 221975, Note_off_c, 0, 65, 58
1, 222002, Note_on_c, 0, 70, 41
1, 222023, Note_on_c, 0, 63, 42
1, 222026, Note_on_c, 0, 66, 47
1, 222035, Note_off_c, 0, 70, 48
1, 222068, Note_off_c, 0, 66, 63
1, 222071, Note_off_c, 0, 63, 0
1, 222088, Note_on_c, 0, 63, 40
1, 222111, Note_on_c, 0, 58, 46
1, 222159, Note_off_c, 0, 63, 52
1, 222172, Note_off_c, 0, 58, 54
1, 222196, Note_on_c, 0, 65, 34
1, 222224, Note_on_c, 0, 61, 40
1, 222225, Note_off_c, 0, 65, 54
1, 222240, Note_on_c, 0, 70, 56
1, 222291, Note_off_c, 0, 61, 46
1, 222304, Note_off_c, 0, 70, 59
1, 222309, Note_on_c, 0, 65, 53
1, 222312, Note_on_c, 0, 75, 71
1, 222424, Note_off_c, 0, 65, 36
1, 222428, Note_on_c, 0, 70, 53
1, 222435, Note_on_c, 0, 63, 47
1, 222466, Note_off_c, 0, 63, 64
1, 222472, Note_on_c, 0, 66, 45
1, 222516, Note_off_c, 0, 66, 51
1, 222526, Note_off_c, 0, 75, 62
1, 222561, Control_c, 0, 64, 110
1, 222566, Note_on_c, 0, 62, 60
1, 222571, Note_on_c, 0, 57, 50
1, 222574, Note_off_c, 0, 70, 56
1, 222576, Control_c, 0, 64, 88
1, 222590, Control_c, 0, 64, 72
1, 222605, Control_c, 0, 64, 59
1, 222620, Note_off_c, 0, 62, 53
1, 222620, Control_c, 0, 64, 55
1, 222635, Control_c, 0, 64, 64
1, 222650, Note_on_c, 0, 64, 50
1, 222650, Control_c, 0, 64, 75
1, 222664, Control_c, 0, 64, 99
1, 222680, Control_c, 0, 64, 127
1, 222695, Note_on_c, 0, 60, 46
1, 222714, Note_off_c, 0, 64, 60
1, 222719, Note_on_c, 0, 69, 63
1, 222723, Note_off_c, 0, 57, 32
1, 222774, Note_off_c, 0, 69, 64
1, 222774, Note_off_c, 0, 60, 63
1, 222776, Note_on_c, 0, 74, 80
1, 222791, Note_on_c, 0, 64, 46
1, 222878, Note_on_c, 0, 69, 59
1, 222884, Note_off_c, 0, 64, 59
1, 222922, Note_on_c, 0, 62, 41
1, 222927, Note_on_c, 0, 66, 35
1, 222947, Note_off_c, 0, 69, 61
1, 222966, Note_off_c, 0, 66, 50
1, 222989, Note_off_c, 0, 62, 57
1, 223014, Note_on_c, 0, 60, 46
1, 223051, Control_c, 0, 64, 122
1, 223063, Note_on_c, 0, 66, 47
1, 223066, Control_c, 0, 64, 103
1, 223080, Control_c, 0, 64, 87
1, 223102, Control_c, 0, 64, 71
1, 223117, Control_c, 0, 64, 51
1, 223132, Control_c, 0, 64, 23
1, 223146, Control_c, 0, 64, 40
1, 223150, Note_off_c, 0, 66, 55
1, 223161, Control_c, 0, 64, 57
1, 223173, Note_on_c, 0, 68, 54
1, 223176, Control_c, 0, 64, 67
1, 223191, Control_c, 0, 64, 79
1, 223196, Note_off_c, 0, 74, 55
1, 223206, Control_c, 0, 64, 99
1, 223221, Control_c, 0, 64, 116
1, 223226, Note_on_c, 0, 63, 43
1, 223236, Control_c, 0, 64, 127
1, 223258, Note_on_c, 0, 72, 52
1, 223260, Note_off_c, 0, 60, 29
1, 223263, Note_off_c, 0, 68, 52
1, 223367, Note_off_c, 0, 63, 61
1, 223379, Note_off_c, 0, 72, 63
1, 223394, Note_on_c, 0, 68, 34
1, 223400, Note_on_c, 0, 78, 63
1, 223554, Note_off_c, 0, 68, 39
1, 223560, Note_on_c, 0, 72, 34
1, 223608, Note_on_c, 0, 66, 32
1, 223641, Note_off_c, 0, 66, 54
1, 223653, Note_off_c, 0, 78, 37
1, 223695, Note_on_c, 0, 69, 47
1, 223776, Note_off_c, 0, 72, 43
1, 223797, Note_off_c, 0, 69, 63
1, 223878, Note_on_c, 0, 54, 30
1, 223939, Note_on_c, 0, 63, 43
1, 223940, Control_c, 0, 64, 111
1, 223954, Control_c, 0, 64, 99
1, 223969, Control_c, 0, 64, 88
1, 223984, Control_c, 0, 64, 78
1, 223999, Control_c, 0, 64, 65
1, 224014, Control_c, 0, 64, 49
1, 224029, Control_c, 0, 64, 38
1, 224044, Control_c, 0, 64, 39
1, 224073, Control_c, 0, 64, 41
1, 224085, Note_on_c, 0, 58, 18
1, 224088, Control_c, 0, 64, 52
1, 224088, Note_off_c, 0, 63, 46
1, 224099, Note_off_c, 0, 54, 34
1, 224103, Control_c, 0, 64, 65
1, 224118, Control_c, 0, 64, 75
1, 224133, Control_c, 0, 64, 89
1, 224141, Poly_aftertouch_c, 0, 65, 127
1, 224147, Control_c, 0, 64, 99
1, 224162, Control_c, 0, 64, 103
1, 224177, Control_c, 0, 64, 108
1, 224184, Poly_aftertouch_c, 0, 65, 0
1, 224192, Control_c, 0, 64, 127
1, 224194, Note_on_c, 0, 70, 47
1, 224205, Note_on_c, 0, 61, 31
1, 224234, Note_off_c, 0, 70, 62
1, 224246, Note_off_c, 0, 58, 43
1, 224247, Note_off_c, 0, 61, 50
1, 224260, Note_on_c, 0, 65, 40
1, 224278, Note_on_c, 0, 75, 39
1, 224307, Note_off_c, 0, 65, 58
1, 224326, Note_off_c, 0, 75, 43
1, 224345, Note_on_c, 0, 70, 39
1, 224368, Note_on_c, 0, 63, 46
1, 224393, Note_off_c, 0, 70, 49
1, 224400, Note_off_c, 0, 63, 64
1, 224408, Note_on_c, 0, 66, 39
1, 224438, Note_off_c, 0, 66, 56
1, 224460, Note_on_c, 0, 58, 41
1, 224480, Note_on_c, 0, 63, 45
1, 224503, Note_off_c, 0, 58, 59
1, 224509, Note_off_c, 0, 63, 55
1, 224540, Note_on_c, 0, 65, 51
1, 224548, Note_on_c, 0, 61, 48
1, 224571, Note_off_c, 0, 65, 58
1, 224594, Note_off_c, 0, 61, 57
1, 224607, Note_on_c, 0, 70, 55
1, 224641, Note_off_c, 0, 70, 64
1, 224660, Note_on_c, 0, 65, 45
1, 224673, Note_on_c, 0, 75, 45
1, 224696, Note_off_c, 0, 65, 53
1, 224723, Note_on_c, 0, 70, 49
1, 224730, Note_off_c, 0, 75, 45
1, 224740, Note_on_c, 0, 63, 46
1, 224768, Note_off_c, 0, 63, 63
1, 224771, Note_off_c, 0, 70, 51
1, 224785, Note_on_c, 0, 66, 39
1, 224814, Note_off_c, 0, 66, 60
1, 224833, Note_on_c, 0, 58, 41
1, 224856, Note_on_c, 0, 63, 50
1, 224887, Note_off_c, 0, 63, 61
1, 224887, Note_off_c, 0, 58, 56
1, 224914, Note_on_c, 0, 65, 50
1, 224925, Note_on_c, 0, 61, 48
1, 224963, Note_off_c, 0, 65, 43
1, 224970, Note_off_c, 0, 61, 59
1, 224973, Note_on_c, 0, 70, 51
1, 225007, Note_on_c, 0, 65, 42
1, 225011, Note_off_c, 0, 70, 60
1, 225042, Note_on_c, 0, 75, 39
1, 225054, Note_off_c, 0, 65, 56
1, 225102, Note_off_c, 0, 75, 40
1, 225105, Note_on_c, 0, 70, 30
1, 225120, Note_on_c, 0, 63, 35
1, 225135, Note_on_c, 0, 66, 43
1, 225147, Note_off_c, 0, 63, 57
1, 225304, Note_on_c, 0, 49, 78
1, 225354, Note_off_c, 0, 66, 42
1, 225366, Note_on_c, 0, 63, 39
1, 225382, Note_off_c, 0, 49, 62
1, 225409, Note_off_c, 0, 70, 10
1, 225450, Note_off_c, 0, 63, 54
1, 225537, Note_on_c, 0, 65, 5
1, 225571, Note_on_c, 0, 58, 51
1, 225602, Note_off_c, 0, 65, 47
1, 225634, Note_on_c, 0, 70, 45
1, 225689, Note_off_c, 0, 58, 60
1, 225697, Note_on_c, 0, 61, 50
1, 225719, Note_on_c, 0, 75, 76
1, 225735, Note_off_c, 0, 70, 51
1, 225752, Note_on_c, 0, 65, 52
1, 225761, Note_off_c, 0, 61, 61
1, 225802, Note_off_c, 0, 65, 59
1, 225843, Note_on_c, 0, 70, 56
1, 225881, Note_on_c, 0, 63, 50
1, 225909, Note_on_c, 0, 66, 53
1, 225923, Note_off_c, 0, 63, 63
1, 225947, Note_off_c, 0, 75, 54
1, 225962, Note_on_c, 0, 58, 50
1, 225965, Note_off_c, 0, 66, 42
1, 225996, Note_off_c, 0, 70, 52
1, 226015, Note_on_c, 0, 63, 50
1, 226057, Note_off_c, 0, 63, 58
1, 226068, Note_off_c, 0, 58, 54
1, 226097, Note_on_c, 0, 65, 47
1, 226098, Note_on_c, 0, 61, 47
1, 226146, Note_off_c, 0, 65, 57
1, 226168, Note_on_c, 0, 70, 51
1, 226202, Note_off_c, 0, 61, 37
1, 226205, Note_off_c, 0, 70, 63
1, 226229, Note_on_c, 0, 65, 43
1, 226239, Note_on_c, 0, 75, 47
1, 226300, Note_on_c, 0, 70, 41
1, 226339, Note_off_c, 0, 65, 35
1, 226341, Note_on_c, 0, 63, 43
1, 226366, Note_off_c, 0, 75, 33
1, 226372, Note_off_c, 0, 63, 63
1, 226384, Note_on_c, 0, 66, 44
1, 226607, Note_on_c, 0, 42, 58
1, 226615, Control_c, 0, 64, 99
1, 226630, Control_c, 0, 64, 81
1, 226638, Note_on_c, 0, 63, 47
1, 226645, Control_c, 0, 64, 65
1, 226655, Note_off_c, 0, 66, 39
1, 226660, Control_c, 0, 64, 47
1, 226676, Control_c, 0, 64, 49
1, 226691, Control_c, 0, 64, 56
1, 226706, Control_c, 0, 64, 63
1, 226710, Note_off_c, 0, 70, 43
1, 226720, Control_c, 0, 64, 72
1, 226735, Control_c, 0, 64, 96
1, 226750, Control_c, 0, 64, 127
1, 226760, Note_off_c, 0, 42, 58
1, 226767, Note_on_c, 0, 65, 42
1, 226771, Note_off_c, 0, 63, 36
1, 226817, Note_off_c, 0, 65, 57
1, 226845, Note_on_c, 0, 70, 48
1, 226876, Note_on_c, 0, 58, 50
1, 226893, Note_off_c, 0, 70, 62
1, 226920, Note_off_c, 0, 58, 62
1, 226974, Note_on_c, 0, 70, 37
1, 227087, Note_on_c, 0, 61, 41
1, 227236, Note_on_c, 0, 82, 68
1, 227328, Note_on_c, 0, 65, 36
1, 227470, Note_off_c, 0, 70, 43
1, 227491, Note_on_c, 0, 75, 40
1, 227531, Note_on_c, 0, 63, 38
1, 227607, Note_off_c, 0, 65, 40
1, 227654, Note_on_c, 0, 70, 46
1, 227654, Note_off_c, 0, 63, 57
1, 227669, Note_off_c, 0, 82, 62
1, 227698, Note_off_c, 0, 61, 40
1, 227717, Note_off_c, 0, 75, 61
1, 227744, Note_off_c, 0, 70, 60
1, 228035, Note_on_c, 0, 39, 30
1, 228039, Control_c, 0, 64, 110
1, 228054, Control_c, 0, 64, 101
1, 228068, Control_c, 0, 64, 93
1, 228083, Control_c, 0, 64, 82
1, 228098, Control_c, 0, 64, 71
1, 228113, Control_c, 0, 64, 59
1, 228124, Note_on_c, 0, 53, 19
1, 228128, Control_c, 0, 64, 35
1, 228142, Control_c, 0, 64, 33
1, 228172, Control_c, 0, 64, 35
1, 228187, Control_c, 0, 64, 52
1, 228202, Control_c, 0, 64, 66
1, 228217, Control_c, 0, 64, 81
1, 228232, Note_on_c, 0, 58, 44
1, 228232, Control_c, 0, 64, 109
1, 228233, Note_off_c, 0, 53, 38
1, 228246, Control_c, 0, 64, 127
1, 228297, Note_off_c, 0, 39, 36
1, 228297, Note_on_c, 0, 46, 44
1, 228316, Note_on_c, 0, 61, 51
1, 228324, Note_off_c, 0, 58, 64
1, 228356, Note_off_c, 0, 61, 64
1, 228397, Note_off_c, 0, 46, 47
1, 228425, Note_on_c, 0, 49, 32
1, 228436, Note_on_c, 0, 65, 46
1, 228462, Note_off_c, 0, 49, 51
1, 228483, Note_on_c, 0, 55, 46
1, 228498, Note_off_c, 0, 65, 59
1, 228518, Note_on_c, 0, 70, 54
1, 228522, Note_off_c, 0, 55, 59
1, 228594, Note_on_c, 0, 58, 50
1, 228607, Note_off_c, 0, 70, 52
1, 228613, Note_on_c, 0, 73, 62
1, 228703, Note_off_c, 0, 58, 38
1, 228713, Note_on_c, 0, 61, 33
1, 228836, Note_off_c, 0, 61, 50
1, 228863, Note_on_c, 0, 67, 41
1, 228870, Note_on_c, 0, 82, 73
1, 228916, Note_off_c, 0, 73, 60
1, 229018, Note_off_c, 0, 67, 35
1, 229063, Note_on_c, 0, 70, 43
1, 229138, Note_off_c, 0, 70, 45
1, 229150, Note_on_c, 0, 73, 50
1, 229195, Note_off_c, 0, 73, 60
1, 229248, Note_on_c, 0, 77, 49
1, 229296, Note_off_c, 0, 77, 53
1, 229325, Note_on_c, 0, 73, 52
1, 229370, Note_off_c, 0, 73, 61
1, 229394, Note_on_c, 0, 70, 44
1, 229420, Note_off_c, 0, 70, 57
1, 229464, Note_on_c, 0, 67, 62
1, 229492, Control_c, 0, 67, 127
1, 229504, Note_off_c, 0, 67, 50
1, 229560, Note_off_c, 0, 82, 62
1, 229586, Note_on_c, 0, 61, 35
1, 229605, Note_on_c, 0, 58, 56
1, 229621, Note_off_c, 0, 61, 50
1, 229632, Note_off_c, 0, 58, 66
1, 229690, Note_on_c, 0, 55, 52
1, 229721, Note_off_c, 0, 55, 50
1, 229727, Note_on_c, 0, 79, 75
1, 229742, Note_on_c, 0, 75, 64
1, 229748, Note_on_c, 0, 67, 61
1, 229795, Note_on_c, 0, 49, 51
1, 229850, Note_off_c, 0, 49, 60
1, 229874, Note_on_c, 0, 46, 58
1, 229939, Note_off_c, 0, 46, 61
1, 229945, Control_c, 0, 64, 121
1, 229945, Control_c, 0, 67, 127
1, 229960, Control_c, 0, 64, 101
1, 229975, Control_c, 0, 64, 84
1, 229982, Note_on_c, 0, 39, 57
1, 229989, Control_c, 0, 64, 66
1, 230004, Control_c, 0, 64, 33
1, 230019, Control_c, 0, 64, 23
1, 230034, Control_c, 0, 64, 42
1, 230049, Control_c, 0, 64, 56
1, 230064, Control_c, 0, 64, 65
1, 230065, Note_off_c, 0, 39, 58
1, 230068, Note_on_c, 0, 46, 51
1, 230078, Control_c, 0, 64, 76
1, 230093, Control_c, 0, 64, 99
1, 230108, Control_c, 0, 64, 127
1, 230140, Note_on_c, 0, 49, 59
1, 230150, Note_off_c, 0, 46, 39
1, 230184, Note_off_c, 0, 49, 63
1, 230210, Note_on_c, 0, 55, 53
1, 230244, Note_off_c, 0, 55, 62
1, 230311, Note_off_c, 0, 67, 52
1, 230322, Note_on_c, 0, 58, 50
1, 230392, Note_off_c, 0, 58, 60
1, 230398, Note_on_c, 0, 61, 57
1, 230433, Control_c, 0, 64, 108
1, 230448, Control_c, 0, 64, 92
1, 230463, Control_c, 0, 64, 78
1, 230467, Note_off_c, 0, 61, 51
1, 230478, Control_c, 0, 64, 69
1, 230482, Note_on_c, 0, 63, 46
1, 230493, Control_c, 0, 64, 64
1, 230507, Control_c, 0, 64, 65
1, 230522, Control_c, 0, 64, 69
1, 230534, Note_off_c, 0, 63, 63
1, 230537, Control_c, 0, 64, 76
1, 230542, Note_on_c, 0, 73, 62
1, 230545, Note_on_c, 0, 77, 73
1, 230552, Control_c, 0, 64, 87
1, 230559, Note_on_c, 0, 65, 55
1, 230567, Control_c, 0, 64, 98
1, 230589, Control_c, 0, 64, 105
1, 230602, Note_off_c, 0, 79, 58
1, 230604, Control_c, 0, 64, 110
1, 230614, Note_off_c, 0, 65, 56
1, 230619, Control_c, 0, 64, 116
1, 230634, Control_c, 0, 64, 127
1, 230671, Note_on_c, 0, 70, 54
1, 230724, Note_off_c, 0, 70, 55
1, 230749, Note_on_c, 0, 67, 59
1, 230783, Control_c, 0, 64, 114
1, 230787, Note_off_c, 0, 67, 53
1, 230798, Control_c, 0, 64, 102
1, 230812, Control_c, 0, 64, 91
1, 230827, Control_c, 0, 64, 81
1, 230842, Control_c, 0, 64, 74
1, 230857, Control_c, 0, 64, 74
1, 230864, Note_on_c, 0, 65, 50
1, 230872, Control_c, 0, 64, 80
1, 230886, Control_c, 0, 64, 92
1, 230901, Control_c, 0, 64, 106
1, 230916, Control_c, 0, 64, 113
1, 230924, Note_off_c, 0, 65, 56
1, 230931, Control_c, 0, 64, 115
1, 230945, Control_c, 0, 64, 117
1, 230953, Note_on_c, 0, 61, 49
1, 230960, Control_c, 0, 64, 125
1, 230975, Control_c, 0, 64, 127
1, 231050, Note_on_c, 0, 58, 47
1, 231055, Note_off_c, 0, 61, 63
1, 231123, Note_off_c, 0, 58, 60
1, 231179, Note_on_c, 0, 55, 47
1, 231199, Note_off_c, 0, 77, 51
1, 231238, Note_off_c, 0, 75, 40
1, 231253, Note_off_c, 0, 73, 52
1, 231268, Note_off_c, 0, 55, 55
1, 231315, Note_on_c, 0, 53, 50
1, 231442, Control_c, 0, 64, 125
1, 231457, Control_c, 0, 64, 117
1, 231472, Control_c, 0, 64, 111
1, 231487, Control_c, 0, 64, 106
1, 231502, Control_c, 0, 64, 101
1, 231517, Control_c, 0, 64, 97
1, 231532, Control_c, 0, 64, 95
1, 231547, Control_c, 0, 64, 92
1, 231561, Control_c, 0, 64, 90
1, 231576, Control_c, 0, 64, 87
1, 231591, Control_c, 0, 64, 85
1, 231606, Control_c, 0, 64, 84
1, 231621, Control_c, 0, 64, 83
1, 231635, Control_c, 0, 64, 81
1, 231639, Note_on_c, 0, 44, 40
1, 231650, Control_c, 0, 64, 79
1, 231665, Control_c, 0, 64, 76
1, 231680, Control_c, 0, 64, 73
1, 231694, Control_c, 0, 64, 70
1, 231699, Note_off_c, 0, 53, 41
1, 231709, Control_c, 0, 64, 65
1, 231724, Control_c, 0, 64, 59
1, 231739, Control_c, 0, 64, 54
1, 231754, Control_c, 0, 64, 50
1, 231768, Control_c, 0, 64, 44
1, 231783, Control_c, 0, 64, 35
1, 231798, Control_c, 0, 64, 27
1, 231813, Control_c, 0, 64, 25
1, 231842, Control_c, 0, 64, 26
1, 231857, Control_c, 0, 64, 33
1, 231872, Control_c, 0, 64, 48
1, 231887, Control_c, 0, 64, 60
1, 231889, Note_on_c, 0, 51, 37
1, 231901, Control_c, 0, 64, 65
1, 231916, Control_c, 0, 64, 69
1, 231931, Control_c, 0, 64, 74
1, 231946, Control_c, 0, 64, 80
1, 231961, Control_c, 0, 64, 86
1, 231976, Control_c, 0, 64, 90
1, 231991, Control_c, 0, 64, 96
1, 231992, Note_off_c, 0, 44, 41
1, 232006, Control_c, 0, 64, 103
1, 232021, Control_c, 0, 64, 112
1, 232035, Control_c, 0, 64, 127
1, 232039, Note_on_c, 0, 59, 42
1, 232059, Note_off_c, 0, 51, 43
1, 232173, Note_off_c, 0, 59, 33
1, 232176, Note_on_c, 0, 63, 41
1, 232262, Note_on_c, 0, 66, 47
1, 232291, Note_off_c, 0, 63, 61
1, 232304, Note_off_c, 0, 66, 61
1, 232343, Note_on_c, 0, 44, 47
1, 232373, Note_off_c, 0, 44, 53
1, 232747, Note_on_c, 0, 70, 64
1, 232774, Note_on_c, 0, 63, 49
1, 232783, Note_on_c, 0, 59, 38
1, 232816, Note_on_c, 0, 75, 41
1, 232817, Note_on_c, 0, 71, 32
1, 232981, Note_off_c, 0, 71, 44
1, 232992, Note_off_c, 0, 75, 36
1, 233001, Note_on_c, 0, 77, 36
1, 233121, Note_on_c, 0, 75, 43
1, 233122, Note_off_c, 0, 77, 44
1, 233147, Note_off_c, 0, 75, 60
1, 233236, Note_on_c, 0, 75, 49
1, 233261, Note_off_c, 0, 75, 58
1, 233329, Note_on_c, 0, 89, 42
1, 233351, Note_off_c, 0, 70, 59
1, 233416, Note_off_c, 0, 89, 35
1, 233417, Note_on_c, 0, 83, 48
1, 233422, Note_on_c, 0, 87, 56
1, 233478, Note_off_c, 0, 87, 57
1, 233481, Note_off_c, 0, 83, 61
1, 233520, Note_on_c, 0, 75, 59
1, 233545, Note_off_c, 0, 75, 65
1, 233621, Note_on_c, 0, 77, 50
1, 233702, Note_off_c, 0, 77, 52
1, 233719, Note_on_c, 0, 66, 63
1, 233735, Note_on_c, 0, 71, 50
1, 233750, Note_on_c, 0, 75, 48
1, 233767, Note_off_c, 0, 63, 61
1, 233779, Note_off_c, 0, 71, 55
1, 233788, Note_off_c, 0, 75, 62
1, 233802, Note_off_c, 0, 66, 59
1, 233822, Note_on_c, 0, 77, 57
1, 233881, Note_off_c, 0, 77, 46
1, 233917, Note_on_c, 0, 75, 45
1, 233938, Note_on_c, 0, 71, 49
1, 233964, Note_off_c, 0, 75, 60
1, 233971, Note_off_c, 0, 71, 65
1, 234015, Note_on_c, 0, 63, 53
1, 234046, Note_off_c, 0, 63, 65
1, 234108, Note_on_c, 0, 65, 53
1, 234157, Note_off_c, 0, 65, 59
1, 234193, Note_on_c, 0, 63, 50
1, 234233, Note_off_c, 0, 63, 63
1, 234286, Note_on_c, 0, 63, 52
1, 234316, Note_off_c, 0, 63, 65
1, 234387, Note_on_c, 0, 77, 63
1, 234432, Note_off_c, 0, 77, 54
1, 234495, Note_on_c, 0, 71, 51
1, 234497, Note_on_c, 0, 75, 47
1, 234538, Note_off_c, 0, 71, 59
1, 234543, Note_off_c, 0, 75, 62
1, 234562, Note_on_c, 0, 77, 54
1, 234625, Note_off_c, 0, 77, 60
1, 234643, Note_on_c, 0, 71, 55
1, 234661, Note_on_c, 0, 75, 56
1, 234667, Note_off_c, 0, 71, 65
1, 234689, Note_off_c, 0, 75, 65
1, 234757, Note_on_c, 0, 75, 62
1, 234785, Note_off_c, 0, 75, 64
1, 234838, Note_on_c, 0, 63, 60
1, 234846, Note_on_c, 0, 89, 67
1, 234927, Note_off_c, 0, 89, 59
1, 234963, Note_on_c, 0, 87, 54
1, 234965, Note_on_c, 0, 83, 49
1, 235002, Note_off_c, 0, 83, 63
1, 235002, Note_off_c, 0, 87, 60
1, 235005, Note_off_c, 0, 59, 50
1, 235047, Note_on_c, 0, 75, 57
1, 235080, Note_off_c, 0, 75, 65
1, 235139, Note_on_c, 0, 77, 57
1, 235245, Control_c, 0, 64, 111
1, 235257, Note_off_c, 0, 77, 59
1, 235260, Control_c, 0, 64, 101
1, 235262, Note_on_c, 0, 60, 56
1, 235269, Note_on_c, 0, 66, 77
1, 235275, Control_c, 0, 64, 92
1, 235279, Note_on_c, 0, 56, 54
1, 235284, Note_on_c, 0, 74, 53
1, 235290, Control_c, 0, 64, 82
1, 235294, Note_on_c, 0, 71, 42
1, 235304, Control_c, 0, 64, 73
1, 235319, Control_c, 0, 64, 63
1, 235334, Control_c, 0, 64, 50
1, 235335, Note_off_c, 0, 63, 40
1, 235349, Control_c, 0, 64, 42
1, 235355, Note_off_c, 0, 71, 47
1, 235360, Note_off_c, 0, 74, 61
1, 235378, Control_c, 0, 64, 44
1, 235387, Note_on_c, 0, 76, 57
1, 235393, Control_c, 0, 64, 54
1, 235408, Control_c, 0, 64, 66
1, 235423, Control_c, 0, 64, 77
1, 235437, Control_c, 0, 64, 93
1, 235454, Control_c, 0, 64, 107
1, 235455, Note_off_c, 0, 76, 49
1, 235455, Note_off_c, 0, 66, 65
1, 235469, Control_c, 0, 64, 111
1, 235471, Note_on_c, 0, 71, 52
1, 235483, Control_c, 0, 64, 113
1, 235495, Note_on_c, 0, 74, 43
1, 235498, Control_c, 0, 64, 116
1, 235513, Control_c, 0, 64, 119
1, 235521, Note_off_c, 0, 74, 58
1, 235527, Control_c, 0, 64, 127
1, 235530, Note_off_c, 0, 71, 57
1, 235559, Note_on_c, 0, 62, 48
1, 235601, Note_off_c, 0, 62, 61
1, 235712, Note_on_c, 0, 68, 74
1, 235718, Note_on_c, 0, 64, 57
1, 235791, Note_off_c, 0, 68, 64
1, 235812, Note_off_c, 0, 64, 57
1, 235819, Note_off_c, 0, 60, 64
1, 235841, Note_on_c, 0, 62, 49
1, 235841, Note_off_c, 0, 56, 62
1, 235873, Note_off_c, 0, 62, 62
1, 235932, Note_on_c, 0, 62, 54
1, 235979, Note_off_c, 0, 62, 53
1, 236032, Note_on_c, 0, 76, 61
1, 236092, Note_on_c, 0, 44, 54
1, 236130, Note_off_c, 0, 44, 61
1, 236381, Control_c, 0, 64, 116
1, 236384, Note_off_c, 0, 76, 51
1, 236396, Control_c, 0, 64, 110
1, 236411, Control_c, 0, 64, 105
1, 236416, Note_on_c, 0, 70, 72
1, 236426, Note_on_c, 0, 63, 50
1, 236426, Control_c, 0, 64, 99
1, 236429, Note_on_c, 0, 71, 50
1, 236432, Note_on_c, 0, 59, 57
1, 236440, Control_c, 0, 64, 93
1, 236445, Note_on_c, 0, 75, 36
1, 236455, Control_c, 0, 64, 85
1, 236470, Control_c, 0, 64, 76
1, 236484, Control_c, 0, 64, 66
1, 236499, Control_c, 0, 64, 52
1, 236514, Control_c, 0, 64, 33
1, 236529, Control_c, 0, 64, 31
1, 236544, Control_c, 0, 64, 26
1, 236558, Note_off_c, 0, 75, 33
1, 236558, Control_c, 0, 64, 23
1, 236561, Note_off_c, 0, 71, 32
1, 236581, Note_on_c, 0, 77, 45
1, 236581, Control_c, 0, 64, 29
1, 236596, Control_c, 0, 64, 50
1, 236611, Control_c, 0, 64, 64
1, 236626, Control_c, 0, 64, 73
1, 236640, Control_c, 0, 64, 85
1, 236655, Control_c, 0, 64, 96
1, 236670, Control_c, 0, 64, 100
1, 236672, Note_off_c, 0, 77, 62
1, 236684, Control_c, 0, 64, 104
1, 236691, Note_on_c, 0, 71, 56
1, 236699, Control_c, 0, 64, 113
1, 236700, Note_on_c, 0, 75, 47
1, 236714, Control_c, 0, 64, 127
1, 236722, Note_off_c, 0, 71, 65
1, 236747, Note_off_c, 0, 75, 61
1, 236810, Note_on_c, 0, 75, 44
1, 236848, Note_off_c, 0, 75, 64
1, 236897, Note_off_c, 0, 70, 62
1, 236902, Note_on_c, 0, 89, 61
1, 236965, Note_off_c, 0, 89, 36
1, 236998, Note_on_c, 0, 87, 54
1, 237002, Note_on_c, 0, 83, 44
1, 237039, Note_off_c, 0, 83, 63
1, 237041, Note_off_c, 0, 87, 62
1, 237087, Note_on_c, 0, 75, 56
1, 237114, Note_off_c, 0, 75, 65
1, 237196, Note_on_c, 0, 77, 43
1, 237288, Note_off_c, 0, 77, 39
1, 237293, Note_on_c, 0, 66, 58
1, 237306, Note_on_c, 0, 71, 46
1, 237306, Note_on_c, 0, 75, 48
1, 237357, Note_off_c, 0, 66, 57
1, 237358, Note_off_c, 0, 71, 57
1, 237364, Note_off_c, 0, 75, 57
1, 237375, Note_off_c, 0, 63, 59
1, 237401, Note_on_c, 0, 77, 51
1, 237433, Note_off_c, 0, 77, 50
1, 237492, Note_on_c, 0, 75, 50
1, 237510, Note_on_c, 0, 71, 36
1, 237531, Note_off_c, 0, 75, 61
1, 237535, Note_off_c, 0, 71, 58
1, 237584, Note_on_c, 0, 63, 50
1, 237613, Note_off_c, 0, 63, 62
1, 237683, Note_on_c, 0, 65, 50
1, 237726, Note_off_c, 0, 65, 60
1, 237762, Note_on_c, 0, 63, 44
1, 237801, Note_off_c, 0, 63, 63
1, 237849, Note_on_c, 0, 63, 54
1, 237878, Note_off_c, 0, 63, 67
1, 237946, Note_on_c, 0, 77, 62
1, 238012, Note_off_c, 0, 77, 61
1, 238041, Note_on_c, 0, 75, 55
1, 238063, Note_on_c, 0, 71, 44
1, 238106, Note_off_c, 0, 75, 51
1, 238111, Note_off_c, 0, 71, 59
1, 238146, Note_on_c, 0, 77, 52
1, 238194, Note_off_c, 0, 77, 61
1, 238208, Note_on_c, 0, 71, 55
1, 238225, Note_on_c, 0, 75, 53
1, 238231, Note_off_c, 0, 71, 62
1, 238253, Note_off_c, 0, 75, 65
1, 238322, Note_on_c, 0, 75, 51
1, 238348, Note_off_c, 0, 75, 65
1, 238397, Note_on_c, 0, 63, 52
1, 238400, Note_on_c, 0, 89, 67
1, 238473, Note_off_c, 0, 89, 59
1, 238484, Note_off_c, 0, 59, 60
1, 238501, Note_on_c, 0, 87, 58
1, 238504, Note_on_c, 0, 83, 48
1, 238540, Note_off_c, 0, 83, 63
1, 238542, Note_off_c, 0, 87, 61
1, 238582, Note_on_c, 0, 75, 61
1, 238606, Note_off_c, 0, 75, 66
1, 238663, Note_on_c, 0, 77, 63
1, 238742, Note_off_c, 0, 77, 58
1, 238745, Control_c, 0, 64, 116
1, 238760, Control_c, 0, 64, 107
1, 238770, Note_on_c, 0, 60, 53
1, 238775, Control_c, 0, 64, 98
1, 238782, Note_on_c, 0, 66, 68
1, 238790, Control_c, 0, 64, 90
1, 238791, Note_on_c, 0, 56, 52
1, 238796, Note_on_c, 0, 74, 53
1, 238799, Note_on_c, 0, 71, 49
1, 238805, Control_c, 0, 64, 79
1, 238826, Control_c, 0, 64, 68
1, 238841, Control_c, 0, 64, 52
1, 238853, Note_off_c, 0, 71, 61
1, 238856, Note_off_c, 0, 74, 62
1, 238856, Control_c, 0, 64, 45
1, 238868, Note_off_c, 0, 63, 38
1, 238871, Control_c, 0, 64, 49
1, 238886, Control_c, 0, 64, 54
1, 238889, Note_on_c, 0, 76, 51
1, 238901, Control_c, 0, 64, 61
1, 238915, Control_c, 0, 64, 68
1, 238930, Control_c, 0, 64, 81
1, 238942, Note_off_c, 0, 76, 54
1, 238945, Control_c, 0, 64, 100
1, 238954, Note_off_c, 0, 66, 64
1, 238960, Control_c, 0, 64, 127
1, 238975, Note_on_c, 0, 74, 57
1, 238982, Note_on_c, 0, 71, 48
1, 239001, Note_off_c, 0, 74, 66
1, 239009, Note_off_c, 0, 71, 56
1, 239076, Note_on_c, 0, 62, 36
1, 239155, Note_off_c, 0, 62, 35
1, 239187, Note_on_c, 0, 64, 61
1, 239190, Note_on_c, 0, 68, 65
1, 239241, Note_off_c, 0, 68, 64
1, 239265, Note_off_c, 0, 64, 60
1, 239274, Note_off_c, 0, 60, 64
1, 239291, Note_on_c, 0, 62, 37
1, 239297, Note_off_c, 0, 56, 63
1, 239328, Note_off_c, 0, 62, 52
1, 239385, Note_on_c, 0, 62, 54
1, 239409, Note_off_c, 0, 62, 61
1, 239509, Note_on_c, 0, 76, 33
1, 239513, Note_on_c, 0, 44, 41
1, 239548, Note_off_c, 0, 44, 49
1, 239746, Note_on_c, 0, 70, 74
1, 239753, Control_c, 0, 64, 111
1, 239755, Note_off_c, 0, 76, 40
1, 239762, Note_on_c, 0, 63, 58
1, 239766, Note_on_c, 0, 75, 37
1, 239767, Note_on_c, 0, 59, 62
1, 239768, Control_c, 0, 64, 101
1, 239770, Note_on_c, 0, 71, 45
1, 239782, Control_c, 0, 64, 90
1, 239797, Control_c, 0, 64, 79
1, 239812, Control_c, 0, 64, 67
1, 239820, Note_off_c, 0, 71, 47
1, 239826, Control_c, 0, 64, 53
1, 239841, Control_c, 0, 64, 38
1, 239856, Control_c, 0, 64, 39
1, 239857, Note_off_c, 0, 75, 47
1, 239871, Note_on_c, 0, 77, 45
1, 239871, Control_c, 0, 64, 40
1, 239871, Control_c, 0, 67, 127
1, 239886, Control_c, 0, 64, 50
1, 239900, Control_c, 0, 64, 62
1, 239915, Control_c, 0, 64, 73
1, 239915, Control_c, 0, 67, 126
1, 239930, Control_c, 0, 64, 92
1, 239945, Control_c, 0, 64, 127
1, 239950, Note_off_c, 0, 77, 59
1, 239977, Note_on_c, 0, 75, 56
1, 239981, Note_on_c, 0, 71, 43
1, 239989, Control_c, 0, 67, 126
1, 240006, Note_off_c, 0, 71, 57
1, 240017, Note_off_c, 0, 75, 62
1, 240022, Note_off_c, 0, 70, 63
1, 240099, Note_on_c, 0, 75, 54
1, 240120, Note_off_c, 0, 75, 62
1, 240182, Control_c, 0, 67, 125
1, 240197, Note_on_c, 0, 89, 65
1, 240197, Control_c, 0, 67, 124
1, 240201, Note_on_c, 0, 68, 86
1, 240212, Control_c, 0, 67, 122
1, 240226, Control_c, 0, 67, 118
1, 240242, Control_c, 0, 67, 116
1, 240257, Control_c, 0, 67, 114
1, 240272, Control_c, 0, 67, 113
1, 240281, Note_off_c, 0, 89, 58
1, 240287, Control_c, 0, 67, 112
1, 240302, Control_c, 0, 67, 111
1, 240316, Control_c, 0, 67, 110
1, 240328, Note_on_c, 0, 83, 49
1, 240329, Note_on_c, 0, 87, 52
1, 240338, Control_c, 0, 67, 108
1, 240353, Control_c, 0, 67, 107
1, 240368, Control_c, 0, 67, 107
1, 240371, Note_off_c, 0, 87, 55
1, 240374, Note_off_c, 0, 83, 61
1, 240383, Control_c, 0, 67, 106
1, 240412, Control_c, 0, 67, 106
1, 240427, Control_c, 0, 67, 105
1, 240442, Control_c, 0, 67, 105
1, 240444, Note_on_c, 0, 75, 48
1, 240448, Note_off_c, 0, 59, 59
1, 240457, Control_c, 0, 67, 104
1, 240475, Note_off_c, 0, 75, 64
1, 240501, Control_c, 0, 67, 103
1, 240508, Note_off_c, 0, 68, 64
1, 240516, Control_c, 0, 67, 102
1, 240518, Note_off_c, 0, 63, 60
1, 240531, Control_c, 0, 67, 101
1, 240546, Control_c, 0, 67, 100
1, 240567, Note_on_c, 0, 77, 50
1, 240605, Control_c, 0, 67, 100
1, 240664, Control_c, 0, 67, 100
1, 240826, Note_off_c, 0, 77, 36
1, 240844, Note_on_c, 0, 75, 74
1, 240878, Note_on_c, 0, 71, 49
1, 240914, Note_off_c, 0, 75, 55
1, 241002, Note_off_c, 0, 71, 55
1, 241033, Note_on_c, 0, 77, 56
1, 241072, Control_c, 0, 67, 101
1, 241132, Control_c, 0, 67, 101
1, 241152, Note_off_c, 0, 77, 54
1, 241182, Note_on_c, 0, 71, 41
1, 241182, Note_on_c, 0, 75, 44
1, 241191, Control_c, 0, 67, 102
1, 241206, Control_c, 0, 67, 102
1, 241217, Note_off_c, 0, 71, 64
1, 241232, Note_off_c, 0, 75, 59
1, 241265, Control_c, 0, 67, 103
1, 241315, Note_on_c, 0, 75, 59
1, 241324, Control_c, 0, 67, 103
1, 241373, Note_off_c, 0, 75, 62
1, 241413, Note_on_c, 0, 89, 58
1, 241477, Note_off_c, 0, 89, 59
1, 241493, Note_on_c, 0, 83, 52
1, 241504, Note_on_c, 0, 87, 56
1, 241542, Note_off_c, 0, 83, 60
1, 241545, Note_off_c, 0, 87, 61
1, 241595, Note_on_c, 0, 75, 51
1, 241616, Note_off_c, 0, 75, 62
1, 241682, Note_on_c, 0, 77, 54
1, 241743, Note_off_c, 0, 77, 60
1, 241773, Note_on_c, 0, 71, 43
1, 241780, Note_on_c, 0, 75, 33
1, 241821, Note_off_c, 0, 71, 47
1, 241834, Note_off_c, 0, 75, 47
1, 241872, Note_on_c, 0, 77, 53
1, 241911, Note_off_c, 0, 77, 60
1, 241926, Note_on_c, 0, 75, 56
1, 241932, Note_on_c, 0, 71, 50
1, 241955, Control_c, 0, 67, 104
1, 241956, Note_off_c, 0, 71, 58
1, 241963, Note_off_c, 0, 75, 64
1, 242047, Note_on_c, 0, 75, 48
1, 242074, Note_off_c, 0, 75, 64
1, 242135, Note_on_c, 0, 70, 60
1, 242135, Note_on_c, 0, 89, 65
1, 242206, Note_off_c, 0, 89, 58
1, 242239, Note_on_c, 0, 87, 50
1, 242243, Note_on_c, 0, 83, 45
1, 242278, Note_off_c, 0, 83, 63
1, 242283, Note_off_c, 0, 87, 61
1, 242322, Note_on_c, 0, 75, 59
1, 242350, Note_off_c, 0, 75, 65
1, 242418, Note_on_c, 0, 77, 57
1, 242503, Control_c, 0, 67, 104
1, 242525, Note_off_c, 0, 77, 57
1, 242570, Control_c, 0, 64, 110
1, 242571, Note_on_c, 0, 66, 61
1, 242585, Control_c, 0, 64, 99
1, 242585, Control_c, 0, 67, 105
1, 242587, Note_on_c, 0, 71, 46
1, 242589, Note_on_c, 0, 75, 37
1, 242600, Control_c, 0, 64, 88
1, 242615, Control_c, 0, 64, 77
1, 242629, Control_c, 0, 64, 67
1, 242630, Note_off_c, 0, 71, 54
1, 242645, Control_c, 0, 64, 57
1, 242654, Note_off_c, 0, 70, 51
1, 242656, Note_off_c, 0, 75, 53
1, 242659, Control_c, 0, 64, 55
1, 242674, Control_c, 0, 64, 61
1, 242682, Note_on_c, 0, 77, 27
1, 242689, Control_c, 0, 64, 67
1, 242689, Control_c, 0, 67, 104
1, 242704, Control_c, 0, 64, 77
1, 242719, Control_c, 0, 64, 92
1, 242734, Control_c, 0, 64, 108
1, 242749, Control_c, 0, 64, 113
1, 242764, Control_c, 0, 64, 115
1, 242767, Note_off_c, 0, 77, 41
1, 242779, Control_c, 0, 64, 119
1, 242787, Note_on_c, 0, 71, 39
1, 242788, Note_on_c, 0, 75, 43
1, 242793, Control_c, 0, 64, 127
1, 242814, Note_off_c, 0, 71, 56
1, 242818, Note_off_c, 0, 75, 62
1, 242898, Note_on_c, 0, 75, 34
1, 242912, Control_c, 0, 67, 105
1, 242931, Note_off_c, 0, 75, 52
1, 242975, Note_on_c, 0, 89, 58
1, 243030, Control_c, 0, 67, 105
1, 243061, Note_off_c, 0, 89, 30
1, 243085, Note_on_c, 0, 83, 42
1, 243087, Note_on_c, 0, 87, 52
1, 243125, Note_off_c, 0, 83, 59
1, 243130, Note_off_c, 0, 87, 59
1, 243163, Control_c, 0, 67, 106
1, 243177, Note_on_c, 0, 75, 53
1, 243206, Note_off_c, 0, 75, 65
1, 243277, Note_on_c, 0, 77, 46
1, 243397, Note_off_c, 0, 77, 38
1, 243419, Note_on_c, 0, 71, 48
1, 243426, Note_on_c, 0, 63, 43
1, 243426, Note_on_c, 0, 75, 41
1, 243453, Control_c, 0, 67, 105
1, 243480, Note_off_c, 0, 75, 57
1, 243501, Note_off_c, 0, 66, 38
1, 243512, Note_off_c, 0, 71, 59
1, 243519, Note_on_c, 0, 77, 45
1, 243586, Note_off_c, 0, 77, 43
1, 243590, Note_off_c, 0, 63, 57
1, 243637, Note_on_c, 0, 75, 39
1, 243657, Note_on_c, 0, 71, 41
1, 243694, Note_off_c, 0, 71, 63
1, 243696, Note_off_c, 0, 75, 57
1, 243741, Note_on_c, 0, 63, 51
1, 243835, Note_off_c, 0, 63, 40
1, 243906, Note_on_c, 0, 58, 43
1, 243919, Note_on_c, 0, 65, 37
1, 243941, Note_off_c, 0, 58, 55
1, 243956, Control_c, 0, 67, 105
1, 244001, Note_off_c, 0, 65, 0
1, 244001, Note_on_c, 0, 65, 3
1, 244095, Note_on_c, 0, 63, 46
1, 244137, Note_off_c, 0, 65, 38
1, 244230, Control_c, 0, 67, 105
1, 244257, Note_on_c, 0, 59, 25
1, 244394, Control_c, 0, 67, 105
1, 244442, Note_on_c, 0, 51, 22
1, 244466, Note_off_c, 0, 63, 33
1, 244468, Note_off_c, 0, 59, 43
1, 244568, Note_off_c, 0, 51, 43
1, 244645, Control_c, 0, 64, 123
1, 244660, Control_c, 0, 64, 116
1, 244660, Control_c, 0, 67, 105
1, 244675, Control_c, 0, 64, 110
1, 244689, Control_c, 0, 64, 104
1, 244704, Control_c, 0, 64, 98
1, 244704, Control_c, 0, 67, 106
1, 244719, Control_c, 0, 64, 91
1, 244734, Control_c, 0, 64, 81
1, 244734, Control_c, 0, 67, 106
1, 244741, Note_on_c, 0, 26, 37
1, 244749, Control_c, 0, 64, 73
1, 244764, Control_c, 0, 64, 64
1, 244764, Control_c, 0, 67, 107
1, 244779, Control_c, 0, 64, 50
1, 244794, Control_c, 0, 64, 31
1, 244815, Control_c, 0, 64, 12
1, 244830, Control_c, 0, 64, 0
1, 244853, Note_on_c, 0, 38, 31
1, 244860, Control_c, 0, 64, 14
1, 244875, Control_c, 0, 64, 47
1, 244889, Control_c, 0, 64, 61
1, 244904, Control_c, 0, 64, 65
1, 244919, Control_c, 0, 64, 70
1, 244919, Control_c, 0, 67, 106
1, 244924, Note_off_c, 0, 26, 40
1, 244925, Note_on_c, 0, 45, 41
1, 244934, Control_c, 0, 64, 74
1, 244949, Control_c, 0, 64, 79
1, 244964, Control_c, 0, 64, 83
1, 244964, Control_c, 0, 67, 106
1, 244979, Control_c, 0, 64, 86
1, 244994, Control_c, 0, 64, 87
1, 244998, Note_off_c, 0, 38, 39
1, 245004, Note_off_c, 0, 45, 41
1, 245008, Control_c, 0, 64, 90
1, 245013, Note_on_c, 0, 50, 46
1, 245023, Control_c, 0, 64, 93
1, 245038, Control_c, 0, 64, 96
1, 245038, Control_c, 0, 67, 105
1, 245053, Control_c, 0, 64, 98
1, 245068, Control_c, 0, 64, 100
1, 245083, Control_c, 0, 64, 103
1, 245089, Note_on_c, 0, 53, 41
1, 245098, Control_c, 0, 64, 107
1, 245113, Control_c, 0, 64, 113
1, 245113, Control_c, 0, 67, 105
1, 245128, Control_c, 0, 64, 120
1, 245143, Control_c, 0, 64, 127
1, 245218, Note_on_c, 0, 57, 49
1, 245277, Note_off_c, 0, 50, 37
1, 245351, Note_off_c, 0, 53, 37
1, 245365, Control_c, 0, 67, 105
1, 245432, Note_off_c, 0, 57, 51
1, 245448, Note_on_c, 0, 59, 39
1, 245499, Control_c, 0, 67, 106
1, 245527, Note_off_c, 0, 59, 52
1, 245590, Note_on_c, 0, 57, 47
1, 245600, Note_on_c, 0, 53, 50
1, 245634, Note_off_c, 0, 53, 66
1, 245642, Note_off_c, 0, 57, 62
1, 245742, Note_on_c, 0, 53, 37
1, 245756, Note_on_c, 0, 57, 48
1, 245776, Note_off_c, 0, 53, 63
1, 245782, Note_off_c, 0, 57, 59
1, 245836, Note_on_c, 0, 71, 63
1, 245892, Control_c, 0, 67, 106
1, 245945, Note_on_c, 0, 65, 56
1, 245955, Note_on_c, 0, 69, 54
1, 245957, Note_off_c, 0, 71, 58
1, 245974, Note_off_c, 0, 65, 64
1, 245981, Note_off_c, 0, 69, 66
1, 246055, Note_on_c, 0, 65, 50
1, 246055, Note_on_c, 0, 69, 56
1, 246155, Note_on_c, 0, 71, 62
1, 246165, Note_off_c, 0, 65, 52
1, 246180, Note_off_c, 0, 69, 45
1, 246189, Note_off_c, 0, 71, 66
1, 246255, Note_on_c, 0, 81, 48
1, 246271, Note_on_c, 0, 77, 46
1, 246352, Note_off_c, 0, 77, 62
1, 246359, Control_c, 0, 67, 106
1, 246361, Note_off_c, 0, 81, 61
1, 246372, Note_on_c, 0, 83, 53
1, 246463, Note_off_c, 0, 83, 56
1, 246465, Note_on_c, 0, 81, 51
1, 246481, Note_on_c, 0, 77, 25
1, 246492, Control_c, 0, 67, 105
1, 246493, Note_off_c, 0, 81, 65
1, 246559, Note_off_c, 0, 77, 0
1, 246576, Note_on_c, 0, 77, 35
1, 246601, Note_on_c, 0, 81, 25
1, 246616, Note_off_c, 0, 77, 56
1, 246625, Control_c, 0, 67, 105
1, 246638, Note_off_c, 0, 81, 53
1, 246699, Note_on_c, 0, 95, 56
1, 246715, Control_c, 0, 67, 104
1, 246789, Control_c, 0, 67, 104
1, 246792, Note_off_c, 0, 95, 59
1, 246795, Note_on_c, 0, 93, 53
1, 246803, Note_on_c, 0, 89, 38
1, 246804, Control_c, 0, 67, 103
1, 246817, Note_off_c, 0, 93, 57
1, 246818, Control_c, 0, 67, 103
1, 246832, Note_off_c, 0, 89, 49
1, 246833, Control_c, 0, 67, 102
1, 246916, Note_on_c, 0, 89, 47
1, 246927, Note_on_c, 0, 93, 45
1, 246937, Control_c, 0, 67, 102
1, 246952, Control_c, 0, 67, 101
1, 247032, Note_off_c, 0, 89, 36
1, 247042, Note_off_c, 0, 93, 42
1, 247044, Note_on_c, 0, 95, 46
1, 247098, Note_off_c, 0, 95, 66
1, 247182, Control_c, 0, 67, 102
1, 247196, Control_c, 0, 67, 102
1, 247300, Control_c, 0, 67, 103
1, 247359, Control_c, 0, 67, 103
1, 247446, Note_on_c, 0, 101, 39
1, 247456, Note_on_c, 0, 105, 44
1, 247479, Control_c, 0, 67, 104
1, 247503, Note_off_c, 0, 105, 43
1, 247510, Note_off_c, 0, 101, 39
1, 247582, Control_c, 0, 67, 104
1, 247989, Control_c, 0, 67, 104
1, 248048, Control_c, 0, 67, 103
1, 248093, Control_c, 0, 64, 123
1, 248107, Control_c, 0, 64, 120
1, 248122, Control_c, 0, 64, 118
1, 248122, Control_c, 0, 67, 103
1, 248137, Control_c, 0, 64, 117
1, 248152, Control_c, 0, 64, 115
1, 248166, Control_c, 0, 64, 114
1, 248181, Control_c, 0, 64, 113
1, 248196, Control_c, 0, 64, 113
1, 248196, Control_c, 0, 67, 102
1, 248211, Control_c, 0, 64, 112
1, 248226, Control_c, 0, 64, 112
1, 248256, Control_c, 0, 64, 111
1, 248271, Control_c, 0, 64, 111
1, 248301, Control_c, 0, 64, 110
1, 248301, Control_c, 0, 67, 102
1, 248330, Control_c, 0, 67, 101
1, 248345, Control_c, 0, 64, 110
1, 248375, Control_c, 0, 64, 109
1, 248391, Control_c, 0, 64, 109
1, 248405, Control_c, 0, 64, 108
1, 248420, Control_c, 0, 64, 107
1, 248435, Control_c, 0, 64, 106
1, 248450, Control_c, 0, 64, 104
1, 248464, Control_c, 0, 64, 103
1, 248479, Control_c, 0, 64, 102
1, 248479, Control_c, 0, 67, 101
1, 248494, Control_c, 0, 64, 100
1, 248509, Control_c, 0, 64, 99
1, 248509, Control_c, 0, 67, 101
1, 248524, Control_c, 0, 64, 98
1, 248538, Control_c, 0, 64, 97
1, 248561, Control_c, 0, 64, 96
1, 248576, Control_c, 0, 64, 96
1, 248576, Control_c, 0, 67, 102
1, 248590, Control_c, 0, 64, 95
1, 248590, Control_c, 0, 67, 102
1, 248605, Control_c, 0, 64, 95
1, 248620, Control_c, 0, 64, 94
1, 248635, Control_c, 0, 64, 93
1, 248635, Control_c, 0, 67, 103
1, 248650, Control_c, 0, 64, 92
1, 248664, Control_c, 0, 64, 91
1, 248679, Control_c, 0, 64, 90
1, 248694, Control_c, 0, 64, 89
1, 248709, Control_c, 0, 64, 88
1, 248724, Control_c, 0, 64, 87
1, 248738, Control_c, 0, 64, 86
1, 248753, Control_c, 0, 64, 85
1, 248768, Control_c, 0, 64, 84
1, 248783, Control_c, 0, 64, 83
1, 248783, Control_c, 0, 67, 103
1, 248797, Control_c, 0, 64, 81
1, 248812, Control_c, 0, 64, 80
1, 248827, Control_c, 0, 64, 78
1, 248842, Control_c, 0, 64, 78
1, 248857, Control_c, 0, 64, 77
1, 248872, Control_c, 0, 64, 76
1, 248887, Control_c, 0, 64, 76
1, 248902, Control_c, 0, 67, 104
1, 248916, Control_c, 0, 64, 75
1, 248931, Control_c, 0, 64, 75
1, 248946, Control_c, 0, 64, 74
1, 248961, Control_c, 0, 67, 104
1, 248976, Control_c, 0, 64, 73
1, 248990, Control_c, 0, 64, 73
1, 249005, Control_c, 0, 64, 72
1, 249020, Control_c, 0, 64, 71
1, 249051, Control_c, 0, 64, 70
1, 249051, Control_c, 0, 67, 105
1, 249065, Control_c, 0, 64, 70
1, 249095, Control_c, 0, 64, 69
1, 249110, Control_c, 0, 64, 68
1, 249125, Control_c, 0, 64, 68
1, 249140, Control_c, 0, 64, 67
1, 249154, Control_c, 0, 64, 67
1, 249169, Control_c, 0, 64, 66
1, 249199, Control_c, 0, 64, 66
1, 249213, Control_c, 0, 64, 65
1, 249213, Control_c, 0, 67, 105
1, 249228, Control_c, 0, 64, 65
1, 249243, Control_c, 0, 64, 64
1, 249273, Control_c, 0, 64, 63
1, 249287, Control_c, 0, 64, 62
1, 249310, Control_c, 0, 64, 62
1, 249325, Control_c, 0, 64, 61
1, 249355, Control_c, 0, 64, 61
1, 249369, Control_c, 0, 64, 60
1, 249384, Control_c, 0, 64, 59
1, 249399, Control_c, 0, 64, 58
1, 249413, Control_c, 0, 64, 58
1, 249428, Control_c, 0, 64, 57
1, 249443, Control_c, 0, 64, 56
1, 249458, Control_c, 0, 64, 55
1, 249458, Control_c, 0, 67, 106
1, 249473, Control_c, 0, 64, 54
1, 249487, Control_c, 0, 64, 54
1, 249517, Control_c, 0, 64, 53
1, 249532, Control_c, 0, 64, 52
1, 249547, Control_c, 0, 64, 50
1, 249561, Control_c, 0, 64, 49
1, 249576, Control_c, 0, 64, 48
1, 249591, Control_c, 0, 64, 46
1, 249606, Control_c, 0, 64, 43
1, 249620, Control_c, 0, 64, 40
1, 249635, Control_c, 0, 64, 37
1, 249650, Control_c, 0, 64, 33
1, 249665, Control_c, 0, 64, 28
1, 249680, Control_c, 0, 64, 21
1, 249694, Control_c, 0, 64, 0
1, 249873, Control_c, 0, 67, 105
1, 249948, Control_c, 0, 64, 26
1, 249948, Control_c, 0, 67, 105
1, 249963, Control_c, 0, 64, 43
1, 249977, Control_c, 0, 64, 50
1, 249992, Control_c, 0, 64, 53
1, 249992, Control_c, 0, 67, 104
1, 250007, Control_c, 0, 64, 55
1, 250022, Control_c, 0, 64, 57
1, 250036, Control_c, 0, 64, 59
1, 250058, Control_c, 0, 64, 61
1, 250058, Control_c, 0, 67, 104
1, 250073, Control_c, 0, 64, 62
1, 250088, Control_c, 0, 64, 64
1, 250103, Control_c, 0, 64, 65
1, 250118, Control_c, 0, 64, 66
1, 250133, Control_c, 0, 64, 67
1, 250133, Control_c, 0, 67, 103
1, 250148, Control_c, 0, 64, 68
1, 250162, Control_c, 0, 64, 70
1, 250177, Control_c, 0, 64, 71
1, 250192, Control_c, 0, 64, 72
1, 250207, Control_c, 0, 64, 73
1, 250222, Control_c, 0, 64, 74
1, 250236, Control_c, 0, 64, 76
1, 250251, Control_c, 0, 64, 77
1, 250266, Control_c, 0, 64, 78
1, 250266, Control_c, 0, 67, 103
1, 250281, Control_c, 0, 64, 80
1, 250296, Control_c, 0, 64, 81
1, 250310, Control_c, 0, 64, 82
1, 250325, Control_c, 0, 64, 83
1, 250340, Control_c, 0, 64, 84
1, 250354, Control_c, 0, 64, 86
1, 250369, Control_c, 0, 64, 87
1, 250384, Control_c, 0, 64, 88
1, 250399, Control_c, 0, 64, 89
1, 250399, Control_c, 0, 67, 102
1, 250414, Control_c, 0, 64, 91
1, 250428, Control_c, 0, 64, 92
1, 250443, Control_c, 0, 64, 94
1, 250458, Control_c, 0, 64, 95
1, 250473, Control_c, 0, 64, 97
1, 250488, Control_c, 0, 64, 99
1, 250502, Control_c, 0, 64, 101
1, 250502, Control_c, 0, 67, 102
1, 250517, Control_c, 0, 64, 104
1, 250532, Control_c, 0, 64, 108
1, 250547, Control_c, 0, 64, 112
1, 250547, Control_c, 0, 67, 101
1, 250562, Control_c, 0, 64, 116
1, 250577, Control_c, 0, 64, 127
1, 250621, Control_c, 0, 67, 101
1, 250741, Control_c, 0, 67, 100
1, 250825, Note_on_c, 0, 69, 42
1, 251459, Control_c, 0, 67, 100
1, 251718, Control_c, 0, 67, 100
1, 252157, Note_on_c, 0, 62, 36
1, 252378, Control_c, 0, 67, 101
1, 252600, Note_off_c, 0, 69, 37
1, 252763, Control_c, 0, 67, 101
1, 253489, Note_on_c, 0, 65, 39
1, 253814, Note_off_c, 0, 62, 36
1, 254065, Note_on_c, 0, 69, 51
1, 254344, Note_off_c, 0, 65, 60
1, 254468, Control_c, 0, 67, 102
1, 254698, Control_c, 0, 67, 102
1, 254772, Control_c, 0, 64, 115
1, 254787, Control_c, 0, 64, 109
1, 254802, Control_c, 0, 64, 103
1, 254817, Control_c, 0, 64, 99
1, 254827, Note_on_c, 0, 71, 41
1, 254831, Control_c, 0, 64, 96
1, 254846, Control_c, 0, 64, 93
1, 254861, Control_c, 0, 64, 91
1, 254876, Control_c, 0, 64, 88
1, 254891, Control_c, 0, 64, 86
1, 254905, Control_c, 0, 64, 83
1, 254920, Control_c, 0, 64, 80
1, 254935, Control_c, 0, 64, 77
1, 254945, Note_off_c, 0, 69, 56
1, 254950, Control_c, 0, 64, 74
1, 254965, Control_c, 0, 64, 70
1, 254980, Control_c, 0, 64, 66
1, 254994, Control_c, 0, 64, 62
1, 255009, Control_c, 0, 64, 60
1, 255024, Control_c, 0, 64, 59
1, 255039, Control_c, 0, 64, 58
1, 255054, Control_c, 0, 64, 55
1, 255069, Control_c, 0, 64, 52
1, 255084, Control_c, 0, 64, 48
1, 255098, Control_c, 0, 64, 46
1, 255113, Control_c, 0, 64, 45
1, 255129, Control_c, 0, 64, 46
1, 255143, Control_c, 0, 64, 49
1, 255158, Control_c, 0, 64, 53
1, 255173, Control_c, 0, 64, 57
1, 255188, Control_c, 0, 64, 60
1, 255203, Control_c, 0, 64, 63
1, 255218, Control_c, 0, 64, 66
1, 255232, Control_c, 0, 64, 70
1, 255247, Control_c, 0, 64, 75
1, 255262, Control_c, 0, 64, 80
1, 255277, Control_c, 0, 64, 84
1, 255292, Control_c, 0, 64, 87
1, 255313, Control_c, 0, 64, 90
1, 255328, Control_c, 0, 64, 93
1, 255343, Control_c, 0, 64, 95
1, 255358, Control_c, 0, 64, 97
1, 255373, Control_c, 0, 64, 99
1, 255388, Control_c, 0, 64, 102
1, 255403, Control_c, 0, 64, 106
1, 255418, Control_c, 0, 64, 111
1, 255433, Control_c, 0, 64, 115
1, 255448, Control_c, 0, 64, 120
1, 255462, Control_c, 0, 64, 127
1, 255494, Note_off_c, 0, 71, 44
1, 255847, Control_c, 0, 64, 123
1, 255862, Control_c, 0, 64, 121
1, 255877, Control_c, 0, 64, 119
1, 255892, Control_c, 0, 64, 117
1, 255907, Control_c, 0, 64, 115
1, 255922, Control_c, 0, 64, 114
1, 255936, Control_c, 0, 64, 113
1, 255951, Control_c, 0, 64, 110
1, 255966, Control_c, 0, 64, 108
1, 255981, Control_c, 0, 64, 107
1, 255996, Control_c, 0, 64, 105
1, 256011, Control_c, 0, 64, 103
1, 256026, Control_c, 0, 64, 101
1, 256047, Control_c, 0, 64, 100
1, 256062, Control_c, 0, 64, 98
1, 256077, Control_c, 0, 64, 96
1, 256092, Control_c, 0, 64, 95
1, 256107, Control_c, 0, 64, 93
1, 256122, Control_c, 0, 64, 91
1, 256136, Control_c, 0, 64, 89
1, 256151, Control_c, 0, 64, 88
1, 256166, Control_c, 0, 64, 86
1, 256181, Control_c, 0, 64, 85
1, 256196, Control_c, 0, 64, 83
1, 256211, Control_c, 0, 64, 81
1, 256226, Control_c, 0, 64, 79
1, 256241, Control_c, 0, 64, 78
1, 256256, Control_c, 0, 64, 77
1, 256270, Control_c, 0, 64, 75
1, 256285, Control_c, 0, 64, 74
1, 256300, Control_c, 0, 64, 72
1, 256315, Control_c, 0, 64, 70
1, 256330, Control_c, 0, 64, 68
1, 256345, Control_c, 0, 64, 65
1, 256360, Control_c, 0, 64, 61
1, 256375, Control_c, 0, 64, 58
1, 256390, Control_c, 0, 64, 57
1, 256404, Control_c, 0, 64, 56
1, 256419, Control_c, 0, 64, 54
1, 256434, Control_c, 0, 64, 53
1, 256449, Control_c, 0, 64, 53
1, 256493, Control_c, 0, 64, 53
1, 256508, Control_c, 0, 64, 54
1, 256523, Control_c, 0, 64, 57
1, 256523, Control_c, 0, 67, 102
1, 256538, Control_c, 0, 64, 59
1, 256552, Control_c, 0, 64, 62
1, 256567, Control_c, 0, 64, 65
1, 256582, Control_c, 0, 64, 68
1, 256596, Control_c, 0, 64, 71
1, 256596, Control_c, 0, 67, 101
1, 256611, Control_c, 0, 64, 74
1, 256626, Control_c, 0, 64, 76
1, 256641, Control_c, 0, 64, 78
1, 256656, Control_c, 0, 64, 82
1, 256670, Control_c, 0, 64, 86
1, 256685, Control_c, 0, 64, 89
1, 256700, Control_c, 0, 64, 90
1, 256715, Control_c, 0, 64, 91
1, 256730, Control_c, 0, 64, 93
1, 256741, Note_on_c, 0, 69, 47
1, 256744, Control_c, 0, 64, 96
1, 256759, Control_c, 0, 64, 99
1, 256759, Control_c, 0, 67, 101
1, 256774, Control_c, 0, 64, 102
1, 256796, Control_c, 0, 64, 104
1, 256811, Control_c, 0, 64, 106
1, 256826, Control_c, 0, 64, 109
1, 256841, Control_c, 0, 64, 114
1, 256856, Control_c, 0, 64, 127
1, 256929, Control_c, 0, 67, 100
1, 257108, Control_c, 0, 67, 100
1, 257272, Control_c, 0, 67, 99
1, 257323, Note_on_c, 0, 74, 54
1, 257345, Control_c, 0, 67, 99
1, 257360, Control_c, 0, 67, 98
1, 257375, Control_c, 0, 67, 98
1, 257405, Control_c, 0, 67, 93
1, 257419, Control_c, 0, 67, 87
1, 257434, Control_c, 0, 67, 83
1, 257449, Control_c, 0, 67, 80
1, 257464, Control_c, 0, 67, 78
1, 257479, Control_c, 0, 67, 77
1, 257480, Note_off_c, 0, 69, 53
1, 257493, Control_c, 0, 67, 77
1, 257649, Control_c, 0, 67, 77
1, 257693, Control_c, 0, 67, 78
1, 257708, Control_c, 0, 67, 78
1, 257752, Control_c, 0, 67, 79
1, 257767, Control_c, 0, 64, 114
1, 257782, Control_c, 0, 64, 105
1, 257797, Control_c, 0, 64, 97
1, 257812, Control_c, 0, 64, 91
1, 257828, Control_c, 0, 64, 85
1, 257829, Note_on_c, 0, 73, 57
1, 257842, Control_c, 0, 64, 78
1, 257857, Control_c, 0, 64, 72
1, 257872, Control_c, 0, 64, 67
1, 257872, Control_c, 0, 67, 79
1, 257887, Control_c, 0, 64, 66
1, 257902, Control_c, 0, 64, 66
1, 257917, Control_c, 0, 64, 68
1, 257931, Control_c, 0, 64, 71
1, 257936, Note_off_c, 0, 74, 39
1, 257946, Control_c, 0, 64, 77
1, 257961, Control_c, 0, 64, 82
1, 257975, Control_c, 0, 64, 87
1, 257990, Control_c, 0, 64, 90
1, 258005, Control_c, 0, 64, 92
1, 258020, Control_c, 0, 64, 94
1, 258050, Control_c, 0, 64, 94
1, 258339, Control_c, 0, 64, 94
1, 258354, Control_c, 0, 64, 93
1, 258368, Control_c, 0, 64, 93
1, 258413, Control_c, 0, 64, 92
1, 258428, Control_c, 0, 64, 92
1, 258457, Control_c, 0, 64, 91
1, 258472, Control_c, 0, 64, 90
1, 258487, Control_c, 0, 64, 90
1, 258502, Control_c, 0, 64, 89
1, 258516, Control_c, 0, 64, 89
1, 258531, Control_c, 0, 64, 88
1, 258531, Control_c, 0, 67, 80
1, 258546, Control_c, 0, 64, 87
1, 258561, Control_c, 0, 64, 86
1, 258565, Note_on_c, 0, 71, 47
1, 258575, Control_c, 0, 64, 84
1, 258590, Control_c, 0, 64, 83
1, 258605, Control_c, 0, 64, 82
1, 258621, Control_c, 0, 64, 81
1, 258636, Control_c, 0, 64, 79
1, 258651, Control_c, 0, 64, 78
1, 258665, Control_c, 0, 64, 76
1, 258680, Control_c, 0, 64, 75
1, 258695, Control_c, 0, 64, 73
1, 258703, Note_off_c, 0, 73, 28
1, 258710, Control_c, 0, 64, 71
1, 258725, Control_c, 0, 64, 68
1, 258739, Control_c, 0, 64, 66
1, 258754, Control_c, 0, 64, 64
1, 258769, Control_c, 0, 64, 62
1, 258784, Control_c, 0, 64, 59
1, 258798, Control_c, 0, 64, 57
1, 258813, Control_c, 0, 64, 56
1, 258828, Control_c, 0, 64, 55
1, 258843, Control_c, 0, 64, 54
1, 258858, Control_c, 0, 67, 79
1, 258917, Control_c, 0, 64, 54
1, 258932, Control_c, 0, 64, 56
1, 258947, Control_c, 0, 64, 60
1, 258962, Control_c, 0, 64, 63
1, 258977, Control_c, 0, 64, 65
1, 258991, Control_c, 0, 64, 69
1, 259006, Control_c, 0, 64, 73
1, 259006, Control_c, 0, 67, 79
1, 259021, Control_c, 0, 64, 77
1, 259036, Control_c, 0, 64, 82
1, 259058, Control_c, 0, 64, 86
1, 259072, Control_c, 0, 64, 88
1, 259087, Control_c, 0, 64, 91
1, 259102, Control_c, 0, 64, 93
1, 259117, Control_c, 0, 64, 95
1, 259132, Control_c, 0, 64, 97
1, 259147, Control_c, 0, 64, 99
1, 259162, Control_c, 0, 64, 100
1, 259177, Control_c, 0, 64, 100
1, 259191, Control_c, 0, 64, 102
1, 259206, Control_c, 0, 64, 104
1, 259221, Control_c, 0, 64, 105
1, 259236, Control_c, 0, 64, 105
1, 259354, Control_c, 0, 67, 78
1, 259666, Control_c, 0, 64, 105
1, 259710, Control_c, 0, 64, 104
1, 259755, Control_c, 0, 64, 104
1, 259785, Control_c, 0, 64, 103
1, 259836, Control_c, 0, 64, 103
1, 259866, Control_c, 0, 64, 102
1, 259881, Control_c, 0, 64, 102
1, 259895, Control_c, 0, 64, 101
1, 259910, Control_c, 0, 64, 101
1, 259925, Control_c, 0, 64, 100
1, 259940, Control_c, 0, 64, 100
1, 259955, Control_c, 0, 64, 99
1, 259970, Control_c, 0, 64, 98
1, 259971, Note_on_c, 0, 69, 41
1, 259985, Control_c, 0, 64, 97
1, 259999, Control_c, 0, 64, 95
1, 260014, Control_c, 0, 64, 94
1, 260029, Control_c, 0, 64, 92
1, 260044, Control_c, 0, 64, 89
1, 260059, Control_c, 0, 64, 85
1, 260074, Control_c, 0, 64, 80
1, 260088, Control_c, 0, 64, 74
1, 260092, Note_off_c, 0, 71, 37
1, 260103, Control_c, 0, 64, 67
1, 260118, Control_c, 0, 64, 60
1, 260118, Control_c, 0, 67, 78
1, 260133, Control_c, 0, 64, 55
1, 260207, Control_c, 0, 64, 57
1, 260223, Control_c, 0, 64, 62
1, 260223, Control_c, 0, 67, 77
1, 260237, Control_c, 0, 64, 67
1, 260252, Control_c, 0, 64, 74
1, 260267, Control_c, 0, 64, 83
1, 260282, Control_c, 0, 64, 88
1, 260297, Control_c, 0, 64, 90
1, 260311, Control_c, 0, 64, 91
1, 260326, Control_c, 0, 64, 94
1, 260326, Control_c, 0, 67, 77
1, 260341, Control_c, 0, 64, 96
1, 260356, Control_c, 0, 64, 98
1, 260370, Control_c, 0, 64, 100
1, 260385, Control_c, 0, 64, 101
1, 260400, Control_c, 0, 64, 102
1, 260415, Control_c, 0, 64, 103
1, 260430, Control_c, 0, 64, 103
1, 260444, Control_c, 0, 64, 104
1, 260509, Note_on_c, 0, 71, 54
1, 260615, Control_c, 0, 64, 102
1, 260630, Control_c, 0, 64, 99
1, 260644, Control_c, 0, 64, 95
1, 260659, Control_c, 0, 64, 87
1, 260674, Control_c, 0, 64, 79
1, 260689, Control_c, 0, 64, 72
1, 260704, Control_c, 0, 64, 72
1, 260711, Note_off_c, 0, 69, 37
1, 260718, Control_c, 0, 64, 78
1, 260733, Control_c, 0, 64, 88
1, 260748, Control_c, 0, 64, 97
1, 260763, Control_c, 0, 64, 102
1, 260777, Control_c, 0, 64, 104
1, 260792, Control_c, 0, 64, 105
1, 260792, Control_c, 0, 67, 76
1, 260941, Control_c, 0, 64, 104
1, 260985, Control_c, 0, 64, 103
1, 261000, Control_c, 0, 64, 103
1, 261016, Control_c, 0, 64, 102
1, 261031, Control_c, 0, 64, 101
1, 261040, Note_on_c, 0, 74, 52
1, 261046, Control_c, 0, 64, 99
1, 261060, Control_c, 0, 64, 95
1, 261075, Control_c, 0, 64, 88
1, 261090, Control_c, 0, 64, 81
1, 261105, Control_c, 0, 64, 73
1, 261120, Control_c, 0, 64, 66
1, 261135, Control_c, 0, 64, 59
1, 261150, Control_c, 0, 64, 53
1, 261165, Control_c, 0, 64, 52
1, 261180, Control_c, 0, 64, 51
1, 261194, Control_c, 0, 64, 51
1, 261209, Control_c, 0, 64, 52
1, 261224, Control_c, 0, 64, 55
1, 261239, Control_c, 0, 64, 60
1, 261254, Control_c, 0, 64, 64
1, 261257, Note_off_c, 0, 71, 62
1, 261268, Control_c, 0, 64, 67
1, 261290, Control_c, 0, 64, 71
1, 261305, Control_c, 0, 64, 75
1, 261320, Control_c, 0, 64, 78
1, 261335, Control_c, 0, 64, 80
1, 261350, Control_c, 0, 64, 81
1, 261365, Control_c, 0, 64, 83
1, 261380, Control_c, 0, 64, 85
1, 261380, Control_c, 0, 67, 77
1, 261394, Control_c, 0, 64, 87
1, 261409, Control_c, 0, 64, 89
1, 261424, Control_c, 0, 64, 90
1, 261616, Control_c, 0, 64, 89
1, 261631, Control_c, 0, 64, 89
1, 261675, Control_c, 0, 64, 88
1, 261690, Control_c, 0, 64, 88
1, 261705, Control_c, 0, 64, 87
1, 261719, Control_c, 0, 64, 87
1, 261734, Control_c, 0, 64, 86
1, 261749, Control_c, 0, 64, 85
1, 261764, Control_c, 0, 64, 84
1, 261779, Control_c, 0, 64, 83
1, 261794, Note_on_c, 0, 73, 41
1, 261794, Control_c, 0, 64, 82
1, 261809, Control_c, 0, 64, 81
1, 261824, Control_c, 0, 64, 80
1, 261839, Control_c, 0, 64, 79
1, 261851, Note_off_c, 0, 73, 0
1, 261851, Note_on_c, 0, 73, 12
1, 261854, Control_c, 0, 64, 77
1, 261869, Control_c, 0, 64, 74
1, 261883, Control_c, 0, 64, 71
1, 261898, Control_c, 0, 64, 67
1, 261913, Control_c, 0, 64, 63
1, 261928, Control_c, 0, 64, 60
1, 261943, Control_c, 0, 64, 58
1, 261958, Control_c, 0, 64, 56
1, 261973, Control_c, 0, 64, 55
1, 261980, Note_off_c, 0, 74, 36
1, 261988, Control_c, 0, 64, 54
1, 262017, Control_c, 0, 64, 54
1, 262039, Control_c, 0, 64, 57
1, 262054, Control_c, 0, 64, 60
1, 262069, Control_c, 0, 64, 62
1, 262084, Control_c, 0, 64, 64
1, 262098, Control_c, 0, 64, 66
1, 262113, Control_c, 0, 64, 69
1, 262128, Control_c, 0, 64, 73
1, 262143, Control_c, 0, 64, 76
1, 262158, Control_c, 0, 64, 79
1, 262172, Control_c, 0, 64, 82
1, 262187, Control_c, 0, 64, 83
1, 262202, Control_c, 0, 64, 84
1, 262217, Control_c, 0, 64, 85
1, 262232, Control_c, 0, 64, 86
1, 262247, Control_c, 0, 64, 86
1, 262528, Control_c, 0, 64, 86
1, 262617, Control_c, 0, 64, 85
1, 262646, Control_c, 0, 64, 85
1, 262676, Control_c, 0, 64, 84
1, 262691, Control_c, 0, 64, 84
1, 262696, Note_on_c, 0, 69, 37
1, 262721, Control_c, 0, 64, 83
1, 262736, Control_c, 0, 64, 83
1, 262751, Control_c, 0, 64, 82
1, 262765, Control_c, 0, 64, 82
1, 262787, Control_c, 0, 64, 81
1, 262802, Control_c, 0, 64, 79
1, 262817, Control_c, 0, 64, 78
1, 262832, Control_c, 0, 64, 76
1, 262846, Control_c, 0, 64, 73
1, 262861, Control_c, 0, 64, 69
1, 262874, Note_off_c, 0, 73, 44
1, 262876, Control_c, 0, 64, 64
1, 262891, Control_c, 0, 64, 58
1, 262906, Control_c, 0, 64, 56
1, 262921, Control_c, 0, 64, 55
1, 262936, Control_c, 0, 64, 55
1, 262965, Control_c, 0, 64, 55
1, 262980, Control_c, 0, 64, 59
1, 262995, Control_c, 0, 64, 63
1, 263010, Control_c, 0, 64, 67
1, 263025, Control_c, 0, 64, 71
1, 263039, Control_c, 0, 64, 75
1, 263054, Control_c, 0, 64, 79
1, 263069, Control_c, 0, 64, 82
1, 263084, Control_c, 0, 64, 84
1, 263099, Control_c, 0, 64, 86
1, 263113, Control_c, 0, 64, 87
1, 263123, Note_off_c, 0, 69, 46
1, 263128, Control_c, 0, 64, 88
1, 263143, Control_c, 0, 64, 90
1, 263158, Control_c, 0, 64, 92
1, 263172, Control_c, 0, 64, 94
1, 263394, Control_c, 0, 67, 77
1, 263410, Control_c, 0, 64, 93
1, 263424, Control_c, 0, 64, 93
1, 263454, Control_c, 0, 64, 92
1, 263469, Control_c, 0, 64, 92
1, 263484, Control_c, 0, 64, 91
1, 263499, Control_c, 0, 64, 91
1, 263514, Control_c, 0, 64, 90
1, 263529, Control_c, 0, 64, 90
1, 263565, Control_c, 0, 64, 89
1, 263580, Control_c, 0, 64, 89
1, 263594, Control_c, 0, 64, 88
1, 263609, Control_c, 0, 64, 87
1, 263624, Control_c, 0, 64, 87
1, 263639, Control_c, 0, 64, 86
1, 263654, Control_c, 0, 64, 85
1, 263669, Control_c, 0, 64, 83
1, 263684, Control_c, 0, 64, 81
1, 263699, Control_c, 0, 64, 79
1, 263713, Control_c, 0, 64, 78
1, 263743, Control_c, 0, 64, 77
1, 263758, Control_c, 0, 64, 76
1, 263773, Control_c, 0, 64, 75
1, 263787, Control_c, 0, 64, 74
1, 263802, Control_c, 0, 64, 73
1, 263847, Control_c, 0, 64, 72
1, 263861, Control_c, 0, 64, 72
1, 263876, Control_c, 0, 64, 71
1, 264009, Control_c, 0, 64, 71
1, 264024, Control_c, 0, 64, 70
1, 264039, Control_c, 0, 64, 70
1, 264053, Control_c, 0, 64, 69
1, 264083, Control_c, 0, 64, 69
1, 264098, Control_c, 0, 67, 77
1, 264113, Control_c, 0, 64, 68
1, 264128, Control_c, 0, 64, 67
1, 264143, Control_c, 0, 64, 67
1, 264170, Note_on_c, 0, 68, 52
1, 264173, Control_c, 0, 64, 66
1, 264217, Control_c, 0, 64, 66
1, 264232, Control_c, 0, 64, 65
1, 264247, Control_c, 0, 64, 64
1, 264262, Control_c, 0, 64, 64
1, 264284, Control_c, 0, 64, 63
1, 264299, Control_c, 0, 64, 61
1, 264299, Control_c, 0, 67, 77
1, 264314, Control_c, 0, 64, 59
1, 264329, Control_c, 0, 64, 57
1, 264343, Control_c, 0, 64, 54
1, 264358, Control_c, 0, 64, 51
1, 264373, Control_c, 0, 64, 47
1, 264388, Control_c, 0, 64, 43
1, 264403, Control_c, 0, 64, 40
1, 264417, Control_c, 0, 64, 39
1, 264447, Control_c, 0, 64, 39
1, 264492, Control_c, 0, 64, 39
1, 264507, Control_c, 0, 64, 42
1, 264521, Control_c, 0, 64, 48
1, 264536, Control_c, 0, 64, 54
1, 264551, Control_c, 0, 64, 59
1, 264566, Control_c, 0, 64, 61
1, 264581, Control_c, 0, 64, 63
1, 264596, Control_c, 0, 64, 65
1, 264610, Control_c, 0, 64, 68
1, 264625, Control_c, 0, 64, 72
1, 264640, Control_c, 0, 64, 77
1, 264655, Control_c, 0, 64, 81
1, 264670, Control_c, 0, 64, 84
1, 264684, Control_c, 0, 64, 86
1, 264699, Control_c, 0, 64, 88
1, 264714, Control_c, 0, 64, 91
1, 264728, Control_c, 0, 64, 94
1, 264743, Control_c, 0, 64, 98
1, 264758, Control_c, 0, 64, 101
1, 264758, Control_c, 0, 67, 77
1, 264773, Control_c, 0, 64, 104
1, 264788, Control_c, 0, 64, 108
1, 264803, Control_c, 0, 64, 112
1, 264817, Control_c, 0, 64, 116
1, 264832, Control_c, 0, 64, 123
1, 264847, Control_c, 0, 64, 127
1, 265078, Control_c, 0, 67, 76
1, 265419, Control_c, 0, 67, 77
1, 266589, Control_c, 0, 64, 122
1, 266605, Control_c, 0, 64, 120
1, 266620, Note_on_c, 0, 69, 22
1, 266620, Control_c, 0, 64, 117
1, 266635, Control_c, 0, 64, 115
1, 266650, Control_c, 0, 64, 113
1, 266665, Control_c, 0, 64, 111
1, 266679, Control_c, 0, 64, 108
1, 266692, Note_off_c, 0, 69, 0
1, 266692, Note_on_c, 0, 69, 6
1, 266694, Control_c, 0, 64, 105
1, 266709, Control_c, 0, 64, 103
1, 266724, Control_c, 0, 64, 102
1, 266738, Control_c, 0, 64, 101
1, 266753, Control_c, 0, 64, 99
1, 266768, Control_c, 0, 64, 96
1, 266783, Control_c, 0, 64, 94
1, 266798, Control_c, 0, 64, 93
1, 266812, Control_c, 0, 64, 91
1, 266827, Control_c, 0, 64, 88
1, 266842, Control_c, 0, 64, 85
1, 266857, Control_c, 0, 64, 82
1, 266866, Note_off_c, 0, 68, 27
1, 266872, Control_c, 0, 64, 80
1, 266886, Control_c, 0, 64, 77
1, 266901, Control_c, 0, 64, 74
1, 266916, Control_c, 0, 64, 71
1, 266930, Control_c, 0, 64, 66
1, 266945, Control_c, 0, 64, 61
1, 266960, Control_c, 0, 64, 56
1, 266975, Control_c, 0, 64, 53
1, 266990, Control_c, 0, 64, 51
1, 267005, Control_c, 0, 64, 50
1, 267034, Control_c, 0, 64, 51
1, 267034, Control_c, 0, 67, 76
1, 267049, Control_c, 0, 64, 53
1, 267064, Control_c, 0, 64, 56
1, 267079, Control_c, 0, 64, 57
1, 267094, Control_c, 0, 64, 58
1, 267109, Control_c, 0, 64, 59
1, 267109, Control_c, 0, 67, 76
1, 267123, Control_c, 0, 64, 61
1, 267138, Control_c, 0, 64, 63
1, 267153, Control_c, 0, 64, 65
1, 267153, Control_c, 0, 67, 75
1, 267168, Control_c, 0, 64, 68
1, 267183, Control_c, 0, 64, 71
1, 267197, Control_c, 0, 64, 74
1, 267197, Control_c, 0, 67, 75
1, 267212, Control_c, 0, 64, 78
1, 267212, Control_c, 0, 67, 72
1, 267227, Control_c, 0, 64, 81
1, 267227, Control_c, 0, 67, 67
1, 267242, Control_c, 0, 64, 84
1, 267242, Control_c, 0, 67, 64
1, 267257, Control_c, 0, 64, 87
1, 267257, Control_c, 0, 67, 63
1, 267272, Control_c, 0, 64, 89
1, 267272, Control_c, 0, 67, 63
1, 267294, Control_c, 0, 64, 91
1, 267294, Control_c, 0, 67, 62
1, 267309, Control_c, 0, 64, 93
1, 267309, Control_c, 0, 67, 61
1, 267323, Control_c, 0, 64, 95
1, 267323, Control_c, 0, 67, 60
1, 267338, Control_c, 0, 64, 97
1, 267338, Control_c, 0, 67, 59
1, 267353, Control_c, 0, 64, 99
1, 267353, Control_c, 0, 67, 59
1, 267368, Control_c, 0, 64, 102
1, 267368, Control_c, 0, 67, 58
1, 267383, Control_c, 0, 64, 103
1, 267383, Control_c, 0, 67, 57
1, 267398, Control_c, 0, 64, 106
1, 267398, Control_c, 0, 67, 56
1, 267413, Control_c, 0, 64, 108
1, 267413, Control_c, 0, 67, 55
1, 267428, Control_c, 0, 64, 111
1, 267428, Control_c, 0, 67, 55
1, 267443, Control_c, 0, 64, 113
1, 267443, Control_c, 0, 67, 53
1, 267458, Control_c, 0, 64, 114
1, 267458, Control_c, 0, 67, 52
1, 267473, Control_c, 0, 64, 115
1, 267473, Control_c, 0, 67, 50
1, 267487, Control_c, 0, 64, 116
1, 267487, Control_c, 0, 67, 49
1, 267502, Control_c, 0, 64, 117
1, 267502, Control_c, 0, 67, 47
1, 267517, Control_c, 0, 64, 118
1, 267517, Control_c, 0, 67, 46
1, 267532, Control_c, 0, 67, 45
1, 267547, Control_c, 0, 64, 118
1, 267547, Control_c, 0, 67, 45
1, 267561, Control_c, 0, 67, 44
1, 267591, Control_c, 0, 67, 44
1, 267606, Control_c, 0, 67, 43
1, 267621, Control_c, 0, 67, 43
1, 267635, Control_c, 0, 67, 42
1, 267650, Control_c, 0, 67, 42
1, 267678, Note_off_c, 0, 69, 32
1, 267946, Control_c, 0, 64, 118
1, 268043, Control_c, 0, 64, 117
1, 268058, Control_c, 0, 64, 116
1, 268073, Control_c, 0, 64, 115
1, 268117, Control_c, 0, 64, 115
1, 268132, Control_c, 0, 64, 114
1, 268147, Control_c, 0, 64, 114
1, 268161, Control_c, 0, 64, 113
1, 268191, Control_c, 0, 64, 113
1, 268222, Control_c, 0, 64, 112
1, 268237, Control_c, 0, 64, 111
1, 268252, Control_c, 0, 64, 111
1, 268266, Control_c, 0, 64, 110
1, 268281, Control_c, 0, 64, 110
1, 268296, Control_c, 0, 64, 109
1, 268311, Control_c, 0, 64, 109
1, 268340, Control_c, 0, 64, 108
1, 268370, Control_c, 0, 64, 108
1, 268385, Control_c, 0, 64, 107
1, 268400, Control_c, 0, 64, 107
1, 268414, Control_c, 0, 64, 106
1, 268429, Control_c, 0, 64, 106
1, 268444, Control_c, 0, 64, 105
1, 268459, Control_c, 0, 64, 104
1, 268474, Control_c, 0, 64, 104
1, 268489, Control_c, 0, 64, 103
1, 268503, Control_c, 0, 64, 102
1, 268518, Control_c, 0, 64, 101
1, 268533, Control_c, 0, 64, 100
1, 268548, Control_c, 0, 64, 99
1, 268563, Control_c, 0, 64, 98
1, 268577, Control_c, 0, 64, 97
1, 268592, Control_c, 0, 64, 96
1, 268606, Control_c, 0, 64, 95
1, 268621, Control_c, 0, 64, 95
1, 268636, Control_c, 0, 64, 94
1, 268650, Control_c, 0, 64, 94
1, 268665, Control_c, 0, 64, 93
1, 268680, Control_c, 0, 64, 92
1, 268695, Control_c, 0, 64, 91
1, 268710, Control_c, 0, 64, 91
1, 268739, Control_c, 0, 64, 90
1, 268791, Control_c, 0, 64, 90
1, 268806, Control_c, 0, 64, 89
1, 268821, Control_c, 0, 64, 89
1, 268880, Control_c, 0, 64, 88
1, 268895, Control_c, 0, 64, 88
1, 268924, Control_c, 0, 64, 87
1, 268954, Control_c, 0, 64, 86
1, 268969, Control_c, 0, 64, 85
1, 268984, Control_c, 0, 64, 84
1, 268999, Control_c, 0, 64, 83
1, 269014, Control_c, 0, 64, 83
1, 269029, Control_c, 0, 64, 81
1, 269044, Control_c, 0, 64, 79
1, 269059, Control_c, 0, 64, 77
1, 269073, Control_c, 0, 64, 74
1, 269088, Control_c, 0, 64, 72
1, 269103, Control_c, 0, 64, 70
1, 269118, Control_c, 0, 64, 66
1, 269133, Control_c, 0, 64, 63
1, 269148, Control_c, 0, 64, 61
1, 269163, Control_c, 0, 64, 60
1, 269178, Control_c, 0, 64, 61
1, 269193, Control_c, 0, 64, 64
1, 269207, Control_c, 0, 64, 67
1, 269216, Note_on_c, 0, 27, 3
1, 269222, Control_c, 0, 64, 72
1, 269222, Control_c, 0, 67, 41
1, 269237, Control_c, 0, 64, 76
1, 269237, Control_c, 0, 67, 41
1, 269252, Control_c, 0, 64, 80
1, 269267, Control_c, 0, 64, 86
1, 269267, Control_c, 0, 67, 40
1, 269281, Control_c, 0, 64, 93
1, 269281, Control_c, 0, 67, 36
1, 269296, Control_c, 0, 64, 101
1, 269296, Control_c, 0, 67, 29
1, 269311, Control_c, 0, 64, 108
1, 269311, Control_c, 0, 67, 23
1, 269325, Control_c, 0, 64, 117
1, 269325, Control_c, 0, 67, 20
1, 269340, Control_c, 0, 64, 127
1, 269340, Control_c, 0, 67, 17
1, 269355, Control_c, 0, 67, 14
1, 269370, Control_c, 0, 67, 9
1, 269385, Control_c, 0, 67, 0
1, 269427, Note_on_c, 0, 39, 37
1, 269447, Note_off_c, 0, 27, 40
1, 269479, Note_off_c, 0, 39, 50
1, 269547, Note_on_c, 0, 48, 34
1, 269626, Note_off_c, 0, 48, 39
1, 269628, Note_on_c, 0, 52, 52
1, 269663, Note_on_c, 0, 43, 56
1, 269697, Note_off_c, 0, 52, 63
1, 269711, Note_on_c, 0, 55, 52
1, 269742, Note_off_c, 0, 55, 63
1, 269752, Note_off_c, 0, 43, 56
1, 269756, Note_on_c, 0, 49, 58
1, 269790, Note_on_c, 0, 60, 72
1, 269795, Note_off_c, 0, 49, 63
1, 269825, Note_on_c, 0, 52, 46
1, 269832, Note_off_c, 0, 60, 62
1, 269849, Note_off_c, 0, 52, 59
1, 269862, Note_on_c, 0, 64, 68
1, 269891, Note_off_c, 0, 64, 65
1, 269905, Note_on_c, 0, 67, 70
1, 269907, Note_on_c, 0, 55, 49
1, 269932, Note_off_c, 0, 67, 66
1, 269949, Note_off_c, 0, 55, 60
1, 269951, Note_on_c, 0, 61, 61
1, 269970, Note_on_c, 0, 72, 82
1, 269978, Note_off_c, 0, 61, 65
1, 269992, Note_on_c, 0, 64, 62
1, 269996, Note_off_c, 0, 72, 65
1, 270018, Note_off_c, 0, 64, 67
1, 270031, Note_on_c, 0, 76, 81
1, 270060, Note_off_c, 0, 76, 64
1, 270061, Note_on_c, 0, 67, 61
1, 270066, Note_on_c, 0, 79, 75
1, 270088, Note_off_c, 0, 79, 67
1, 270120, Note_off_c, 0, 67, 64
1, 270126, Note_on_c, 0, 84, 87
1, 270146, Note_on_c, 0, 73, 13
1, 270147, Note_off_c, 0, 73, 127
1, 270153, Note_off_c, 0, 84, 62
1, 270156, Note_on_c, 0, 76, 74
1, 270177, Note_off_c, 0, 76, 66
1, 270181, Note_on_c, 0, 88, 90
1, 270215, Note_on_c, 0, 79, 65
1, 270220, Note_on_c, 0, 91, 95
1, 270239, Note_off_c, 0, 88, 67
1, 270265, Note_on_c, 0, 85, 79
1, 270269, Note_on_c, 0, 96, 96
1, 270279, Note_off_c, 0, 79, 63
1, 270282, Note_off_c, 0, 91, 67
1, 270294, Note_off_c, 0, 85, 67
1, 270319, Note_on_c, 0, 88, 79
1, 270325, Note_on_c, 0, 91, 95
1, 270336, Note_off_c, 0, 88, 69
1, 270353, Note_off_c, 0, 96, 65
1, 270370, Note_on_c, 0, 88, 82
1, 270373, Note_off_c, 0, 91, 67
1, 270385, Note_on_c, 0, 79, 78
1, 270406, Note_off_c, 0, 79, 69
1, 270410, Note_on_c, 0, 84, 79
1, 270410, Note_off_c, 0, 88, 68
1, 270430, Note_off_c, 0, 84, 72
1, 270447, Note_on_c, 0, 76, 77
1, 270464, Note_off_c, 0, 76, 68
1, 270474, Note_on_c, 0, 79, 79
1, 270502, Note_on_c, 0, 73, 69
1, 270510, Poly_aftertouch_c, 0, 86, 0
1, 270521, Note_on_c, 0, 76, 90
1, 270522, Poly_aftertouch_c, 0, 74, 127
1, 270527, Note_off_c, 0, 73, 66
1, 270531, Note_on_c, 0, 67, 73
1, 270540, Note_off_c, 0, 79, 58
1, 270552, Note_off_c, 0, 67, 66
1, 270559, Note_off_c, 0, 76, 63
1, 270570, Poly_aftertouch_c, 0, 74, 0
1, 270573, Note_on_c, 0, 72, 80
1, 270595, Note_off_c, 0, 72, 71
1, 270604, Note_on_c, 0, 64, 70
1, 270630, Note_on_c, 0, 67, 74
1, 270632, Note_off_c, 0, 64, 67
1, 270648, Note_on_c, 0, 61, 66
1, 270679, Note_on_c, 0, 64, 78
1, 270688, Note_off_c, 0, 61, 52
1, 270698, Note_on_c, 0, 55, 65
1, 270710, Note_off_c, 0, 67, 61
1, 270731, Note_off_c, 0, 55, 66
1, 270731, Note_on_c, 0, 60, 87
1, 270735, Note_off_c, 0, 64, 62
1, 270737, Note_on_c, 0, 52, 78
1, 270781, Note_on_c, 0, 64, 69
1, 270784, Note_off_c, 0, 60, 63
1, 270790, Note_off_c, 0, 52, 61
1, 270814, Note_on_c, 0, 55, 64
1, 270833, Note_on_c, 0, 67, 89
1, 270839, Note_on_c, 0, 61, 75
1, 270841, Note_off_c, 0, 64, 64
1, 270842, Note_off_c, 0, 55, 63
1, 270854, Note_off_c, 0, 67, 72
1, 270878, Note_off_c, 0, 61, 64
1, 270885, Poly_aftertouch_c, 0, 64, 0
1, 270892, Note_on_c, 0, 64, 56
1, 270904, Note_on_c, 0, 72, 85
1, 270918, Note_off_c, 0, 64, 64
1, 270930, Note_off_c, 0, 72, 65
1, 270958, Note_on_c, 0, 67, 73
1, 270961, Note_on_c, 0, 76, 89
1, 270996, Note_on_c, 0, 79, 86
1, 271002, Note_off_c, 0, 76, 65
1, 271026, Note_on_c, 0, 73, 76
1, 271027, Note_off_c, 0, 79, 65
1, 271029, Note_off_c, 0, 67, 62
1, 271053, Note_off_c, 0, 73, 65
1, 271076, Note_on_c, 0, 84, 86
1, 271082, Note_on_c, 0, 76, 61
1, 271103, Note_off_c, 0, 76, 62
1, 271104, Note_off_c, 0, 84, 62
1, 271125, Note_on_c, 0, 88, 96
1, 271132, Note_on_c, 0, 79, 76
1, 271170, Note_on_c, 0, 91, 95
1, 271190, Note_on_c, 0, 85, 80
1, 271192, Note_off_c, 0, 79, 63
1, 271199, Note_off_c, 0, 88, 64
1, 271205, Note_on_c, 0, 96, 104
1, 271217, Note_off_c, 0, 91, 67
1, 271233, Note_off_c, 0, 85, 61
1, 271234, Note_on_c, 0, 88, 70
1, 271264, Note_on_c, 0, 91, 97
1, 271273, Note_off_c, 0, 88, 63
1, 271279, Note_off_c, 0, 96, 65
1, 271281, Note_on_c, 0, 85, 71
1, 271297, Note_off_c, 0, 85, 64
1, 271307, Note_on_c, 0, 88, 69
1, 271312, Note_on_c, 0, 84, 53
1, 271318, Note_on_c, 0, 79, 68
1, 271326, Note_off_c, 0, 91, 61
1, 271331, Note_on_c, 0, 81, 35
1, 271337, Note_off_c, 0, 79, 65
1, 271337, Note_off_c, 0, 84, 0
1, 271349, Note_off_c, 0, 88, 64
1, 271355, Note_on_c, 0, 84, 56
1, 271361, Note_off_c, 0, 81, 57
1, 271374, Note_on_c, 0, 86, 30
1, 271380, Note_off_c, 0, 84, 67
1, 271391, Note_on_c, 0, 76, 60
1, 271409, Note_off_c, 0, 86, 52
1, 271413, Note_off_c, 0, 76, 62
1, 271414, Note_on_c, 0, 79, 71
1, 271424, Note_on_c, 0, 73, 79
1, 271467, Note_on_c, 0, 76, 90
1, 271475, Note_on_c, 0, 67, 64
1, 271476, Note_off_c, 0, 73, 61
1, 271480, Note_off_c, 0, 79, 57
1, 271505, Note_off_c, 0, 76, 62
1, 271509, Note_off_c, 0, 67, 64
1, 271517, Note_on_c, 0, 64, 69
1, 271525, Note_on_c, 0, 72, 88
1, 271547, Note_off_c, 0, 64, 51
1, 271576, Note_off_c, 0, 72, 61
1, 271580, Note_on_c, 0, 67, 72
1, 271588, Note_on_c, 0, 76, 82
1, 271623, Note_off_c, 0, 67, 58
1, 271624, Note_on_c, 0, 73, 67
1, 271632, Note_on_c, 0, 79, 77
1, 271637, Note_off_c, 0, 76, 63
1, 271652, Note_off_c, 0, 73, 66
1, 271655, Note_off_c, 0, 79, 69
1, 271684, Note_on_c, 0, 76, 53
1, 271696, Note_on_c, 0, 84, 83
1, 271710, Note_off_c, 0, 76, 58
1, 271730, Note_on_c, 0, 79, 80
1, 271730, Note_off_c, 0, 84, 62
1, 271752, Note_on_c, 0, 88, 91
1, 271801, Note_on_c, 0, 85, 80
1, 271804, Note_on_c, 0, 91, 90
1, 271811, Note_off_c, 0, 79, 58
1, 271823, Note_off_c, 0, 88, 66
1, 271843, Note_off_c, 0, 85, 64
1, 271848, Note_on_c, 0, 96, 96
1, 271857, Note_off_c, 0, 91, 65
1, 271897, Note_on_c, 0, 91, 81
1, 271914, Note_on_c, 0, 85, 74
1, 271914, Note_off_c, 0, 96, 65
1, 271935, Note_off_c, 0, 85, 70
1, 271942, Note_on_c, 0, 79, 57
1, 271949, Note_on_c, 0, 88, 87
1, 271951, Note_on_c, 0, 77, 67
1, 271964, Note_off_c, 0, 79, 60
1, 271968, Note_off_c, 0, 77, 68
1, 271971, Note_off_c, 0, 91, 62
1, 271986, Note_off_c, 0, 88, 68
1, 271992, Note_on_c, 0, 84, 84
1, 272010, Note_on_c, 0, 76, 74
1, 272011, Note_off_c, 0, 84, 71
1, 272027, Note_off_c, 0, 76, 68
1, 272052, Note_on_c, 0, 74, 27
1, 272053, Note_on_c, 0, 79, 76
1, 272057, Note_on_c, 0, 73, 73
1, 272087, Note_off_c, 0, 74, 52
1, 272102, Note_on_c, 0, 67, 66
1, 272105, Note_on_c, 0, 76, 71
1, 272111, Note_off_c, 0, 73, 61
1, 272126, Note_off_c, 0, 79, 59
1, 272135, Note_off_c, 0, 67, 64
1, 272138, Note_on_c, 0, 64, 75
1, 272158, Note_on_c, 0, 72, 83
1, 272159, Note_off_c, 0, 76, 63
1, 272195, Note_off_c, 0, 64, 62
1, 272203, Note_on_c, 0, 67, 72
1, 272209, Note_off_c, 0, 72, 61
1, 272218, Note_on_c, 0, 76, 86
1, 272261, Note_off_c, 0, 67, 59
1, 272269, Note_on_c, 0, 79, 76
1, 272269, Note_off_c, 0, 76, 63
1, 272291, Note_off_c, 0, 79, 69
1, 272303, Note_on_c, 0, 76, 58
1, 272328, Note_off_c, 0, 76, 63
1, 272332, Poly_aftertouch_c, 0, 73, 0
1, 272341, Note_on_c, 0, 84, 84
1, 272369, Note_on_c, 0, 79, 75
1, 272371, Note_off_c, 0, 84, 58
1, 272396, Note_on_c, 0, 88, 88
1, 272433, Note_on_c, 0, 85, 72
1, 272450, Note_on_c, 0, 91, 92
1, 272459, Note_off_c, 0, 79, 45
1, 272480, Note_off_c, 0, 88, 63
1, 272481, Note_off_c, 0, 85, 64
1, 272491, Note_on_c, 0, 96, 101
1, 272522, Note_off_c, 0, 91, 65
1, 272561, Note_on_c, 0, 91, 80
1, 272588, Note_off_c, 0, 96, 64
1, 272594, Note_on_c, 0, 85, 60
1, 272596, Note_on_c, 0, 79, 73
1, 272612, Note_off_c, 0, 85, 64
1, 272616, Note_on_c, 0, 88, 85
1, 272623, Note_off_c, 0, 91, 64
1, 272650, Note_on_c, 0, 76, 71
1, 272657, Note_off_c, 0, 88, 66
1, 272660, Note_off_c, 0, 79, 56
1, 272691, Note_on_c, 0, 84, 56
1, 272725, Note_off_c, 0, 76, 61
1, 272731, Note_on_c, 0, 94, 91
1, 272752, Note_off_c, 0, 84, 66
1, 272772, Note_on_c, 0, 83, 80
1, 272774, Note_on_c, 0, 89, 79
1, 272804, Note_on_c, 0, 77, 73
1, 272814, Note_off_c, 0, 83, 61
1, 272823, Note_off_c, 0, 94, 65
1, 272824, Note_on_c, 0, 86, 59
1, 272847, Note_off_c, 0, 89, 62
1, 272850, Note_on_c, 0, 82, 84
1, 272851, Note_on_c, 0, 74, 77
1, 272857, Note_off_c, 0, 86, 66
1, 272858, Note_off_c, 0, 77, 65
1, 272869, Note_off_c, 0, 82, 72
1, 272894, Note_off_c, 0, 74, 63
1, 272914, Note_on_c, 0, 83, 77
1, 272920, Note_on_c, 0, 91, 100
1, 272944, Note_on_c, 0, 81, 48
1, 272946, Note_off_c, 0, 83, 56
1, 272951, Note_on_c, 0, 86, 76
1, 272965, Note_on_c, 0, 80, 66
1, 272970, Note_off_c, 0, 81, 39
1, 272984, Note_off_c, 0, 91, 60
1, 273005, Note_on_c, 0, 83, 72
1, 273005, Note_on_c, 0, 74, 70
1, 273017, Note_off_c, 0, 80, 65
1, 273022, Note_off_c, 0, 86, 65
1, 273035, Note_off_c, 0, 74, 65
1, 273039, Note_on_c, 0, 71, 82
1, 273049, Note_on_c, 0, 79, 78
1, 273049, Note_off_c, 0, 83, 65
1, 273096, Note_off_c, 0, 79, 59
1, 273097, Note_on_c, 0, 81, 72
1, 273097, Note_off_c, 0, 71, 60
1, 273106, Note_on_c, 0, 89, 96
1, 273123, Note_off_c, 0, 81, 67
1, 273140, Note_on_c, 0, 78, 74
1, 273145, Note_on_c, 0, 88, 41
1, 273151, Note_on_c, 0, 84, 78
1, 273168, Note_off_c, 0, 89, 60
1, 273173, Note_off_c, 0, 88, 37
1, 273184, Note_on_c, 0, 72, 68
1, 273192, Note_on_c, 0, 81, 81
1, 273194, Note_off_c, 0, 78, 64
1, 273218, Note_off_c, 0, 84, 64
1, 273222, Note_on_c, 0, 69, 68
1, 273238, Note_off_c, 0, 81, 66
1, 273238, Note_off_c, 0, 72, 64
1, 273241, Note_on_c, 0, 77, 74
1, 273253, Note_off_c, 0, 69, 65
1, 273274, Note_off_c, 0, 77, 68
1, 273285, Control_c, 0, 64, 89
1, 273298, Note_on_c, 0, 76, 82
1, 273299, Control_c, 0, 64, 63
1, 273306, Note_on_c, 0, 84, 99
1, 273314, Control_c, 0, 64, 0
1, 273329, Control_c, 0, 64, 43
1, 273341, Note_off_c, 0, 76, 58
1, 273344, Control_c, 0, 64, 74
1, 273354, Note_on_c, 0, 79, 81
1, 273355, Note_on_c, 0, 73, 75
1, 273359, Control_c, 0, 64, 127
1, 273382, Note_off_c, 0, 84, 62
1, 273395, Note_on_c, 0, 76, 75
1, 273402, Note_on_c, 0, 67, 72
1, 273404, Note_off_c, 0, 73, 64
1, 273408, Note_off_c, 0, 79, 62
1, 273433, Note_off_c, 0, 76, 63
1, 273438, Note_on_c, 0, 72, 75
1, 273441, Note_on_c, 0, 64, 70
1, 273443, Note_off_c, 0, 67, 57
1, 273460, Note_off_c, 0, 72, 69
1, 273493, Note_off_c, 0, 64, 62
1, 273495, Note_on_c, 0, 74, 66
1, 273502, Note_on_c, 0, 82, 95
1, 273544, Note_on_c, 0, 77, 75
1, 273551, Note_off_c, 0, 74, 63
1, 273560, Note_on_c, 0, 71, 77
1, 273577, Poly_aftertouch_c, 0, 74, 0
1, 273588, Note_on_c, 0, 74, 53
1, 273592, Note_on_c, 0, 65, 73
1, 273592, Note_off_c, 0, 82, 62
1, 273601, Note_off_c, 0, 71, 61
1, 273609, Note_off_c, 0, 77, 64
1, 273613, Note_on_c, 0, 70, 83
1, 273619, Note_off_c, 0, 74, 66
1, 273627, Note_on_c, 0, 62, 67
1, 273633, Note_off_c, 0, 70, 71
1, 273640, Note_off_c, 0, 65, 59
1, 273659, Note_off_c, 0, 62, 64
1, 273691, Note_on_c, 0, 79, 85
1, 273692, Note_on_c, 0, 71, 73
1, 273715, Note_off_c, 0, 71, 68
1, 273723, Note_on_c, 0, 74, 75
1, 273740, Note_on_c, 0, 68, 67
1, 273757, Note_off_c, 0, 79, 59
1, 273773, Note_on_c, 0, 71, 74
1, 273779, Note_off_c, 0, 68, 61
1, 273783, Note_on_c, 0, 62, 70
1, 273784, Note_off_c, 0, 74, 64
1, 273813, Note_on_c, 0, 67, 83
1, 273814, Note_on_c, 0, 59, 80
1, 273818, Note_off_c, 0, 71, 64
1, 273824, Note_off_c, 0, 62, 63
1, 273860, Note_off_c, 0, 67, 60
1, 273873, Note_off_c, 0, 59, 50
1, 273878, Note_on_c, 0, 77, 87
1, 273881, Note_on_c, 0, 69, 74
1, 273908, Note_off_c, 0, 69, 66
1, 273915, Note_on_c, 0, 72, 83
1, 273926, Note_on_c, 0, 66, 71
1, 273936, Note_off_c, 0, 77, 60
1, 273953, Note_off_c, 0, 66, 68
1, 273956, Note_on_c, 0, 68, 74
1, 273972, Note_on_c, 0, 60, 72
1, 273974, Note_on_c, 0, 69, 65
1, 273987, Note_off_c, 0, 72, 65
1, 273995, Note_on_c, 0, 57, 76
1, 274001, Note_off_c, 0, 69, 66
1, 274004, Note_off_c, 0, 68, 64
1, 274018, Note_off_c, 0, 60, 65
1, 274019, Note_on_c, 0, 65, 81
1, 274031, Note_off_c, 0, 57, 67
1, 274044, Note_off_c, 0, 65, 59
1, 274048, Control_c, 0, 64, 98
1, 274063, Control_c, 0, 64, 67
1, 274069, Note_on_c, 0, 64, 78
1, 274076, Note_on_c, 0, 72, 91
1, 274078, Control_c, 0, 64, 0
1, 274108, Note_off_c, 0, 64, 58
1, 274108, Control_c, 0, 64, 60
1, 274123, Control_c, 0, 64, 86
1, 274126, Note_on_c, 0, 67, 81
1, 274132, Note_on_c, 0, 61, 67
1, 274138, Control_c, 0, 64, 127
1, 274145, Note_off_c, 0, 72, 56
1, 274162, Note_on_c, 0, 64, 68
1, 274163, Note_off_c, 0, 61, 66
1, 274182, Note_on_c, 0, 55, 63
1, 274195, Note_off_c, 0, 67, 60
1, 274207, Note_off_c, 0, 64, 65
1, 274210, Note_on_c, 0, 60, 77
1, 274218, Note_on_c, 0, 52, 66
1, 274219, Note_off_c, 0, 55, 60
1, 274234, Note_off_c, 0, 60, 70
1, 274267, Note_on_c, 0, 62, 78
1, 274272, Note_on_c, 0, 70, 90
1, 274275, Note_off_c, 0, 52, 59
1, 274315, Note_on_c, 0, 65, 66
1, 274327, Note_on_c, 0, 59, 73
1, 274335, Note_off_c, 0, 62, 0
1, 274349, Note_on_c, 0, 62, 54
1, 274358, Note_off_c, 0, 70, 60
1, 274361, Note_off_c, 0, 59, 62
1, 274367, Note_on_c, 0, 53, 69
1, 274386, Note_off_c, 0, 65, 62
1, 274395, Note_on_c, 0, 58, 80
1, 274397, Note_on_c, 0, 50, 80
1, 274398, Note_off_c, 0, 62, 63
1, 274406, Note_off_c, 0, 53, 65
1, 274419, Note_off_c, 0, 58, 70
1, 274433, Note_off_c, 0, 50, 65
1, 274453, Note_on_c, 0, 59, 76
1, 274467, Note_on_c, 0, 67, 84
1, 274484, Note_off_c, 0, 59, 62
1, 274493, Note_on_c, 0, 62, 80
1, 274514, Note_on_c, 0, 56, 70
1, 274528, Note_off_c, 0, 67, 61
1, 274543, Note_off_c, 0, 56, 66
1, 274543, Note_on_c, 0, 59, 56
1, 274551, Note_on_c, 0, 50, 63
1, 274553, Note_off_c, 0, 62, 62
1, 274577, Note_off_c, 0, 59, 65
1, 274581, Note_on_c, 0, 55, 74
1, 274583, Note_on_c, 0, 47, 77
1, 274588, Note_off_c, 0, 50, 66
1, 274625, Note_off_c, 0, 55, 56
1, 274632, Note_off_c, 0, 47, 58
1, 274645, Note_on_c, 0, 65, 86
1, 274646, Note_on_c, 0, 57, 75
1, 274680, Note_off_c, 0, 57, 65
1, 274692, Note_on_c, 0, 60, 74
1, 274697, Note_on_c, 0, 54, 67
1, 274713, Note_off_c, 0, 65, 57
1, 274731, Note_on_c, 0, 57, 69
1, 274739, Note_on_c, 0, 48, 64
1, 274740, Note_off_c, 0, 54, 62
1, 274755, Note_off_c, 0, 60, 64
1, 274771, Note_on_c, 0, 45, 63
1, 274782, Note_off_c, 0, 48, 63
1, 274785, Note_off_c, 0, 57, 64
1, 274794, Note_on_c, 0, 53, 69
1, 274810, Note_off_c, 0, 45, 64
1, 274817, Note_off_c, 0, 53, 66
1, 274857, Note_on_c, 0, 60, 82
1, 274857, Control_c, 0, 64, 108
1, 274868, Note_on_c, 0, 52, 55
1, 274871, Control_c, 0, 64, 81
1, 274886, Control_c, 0, 64, 60
1, 274901, Control_c, 0, 64, 0
1, 274902, Note_on_c, 0, 50, 40
1, 274904, Note_off_c, 0, 52, 53
1, 274927, Note_on_c, 0, 55, 62
1, 274934, Note_off_c, 0, 50, 33
1, 274950, Note_on_c, 0, 49, 46
1, 274961, Control_c, 0, 64, 60
1, 274975, Note_off_c, 0, 60, 61
1, 274975, Control_c, 0, 64, 71
1, 274990, Note_on_c, 0, 52, 64
1, 274990, Control_c, 0, 64, 83
1, 275005, Control_c, 0, 64, 94
1, 275019, Note_off_c, 0, 49, 42
1, 275020, Control_c, 0, 64, 95
1, 275024, Note_off_c, 0, 55, 62
1, 275026, Note_on_c, 0, 46, 56
1, 275035, Control_c, 0, 64, 97
1, 275045, Note_off_c, 0, 52, 60
1, 275050, Control_c, 0, 64, 99
1, 275065, Control_c, 0, 64, 101
1, 275121, Note_off_c, 0, 46, 61
1, 275158, Note_on_c, 0, 50, 58
1, 275163, Note_on_c, 0, 58, 75
1, 275183, Control_c, 0, 64, 99
1, 275198, Control_c, 0, 64, 89
1, 275212, Control_c, 0, 64, 75
1, 275217, Note_off_c, 0, 50, 41
1, 275227, Control_c, 0, 64, 58
1, 275242, Control_c, 0, 64, 0
1, 275248, Note_on_c, 0, 53, 62
1, 275250, Note_on_c, 0, 47, 54
1, 275271, Control_c, 0, 64, 46
1, 275286, Control_c, 0, 64, 62
1, 275301, Control_c, 0, 64, 71
1, 275316, Control_c, 0, 64, 83
1, 275321, Note_off_c, 0, 47, 48
1, 275323, Note_off_c, 0, 58, 50
1, 275331, Note_on_c, 0, 50, 57
1, 275331, Control_c, 0, 64, 95
1, 275345, Control_c, 0, 64, 99
1, 275357, Note_on_c, 0, 44, 42
1, 275360, Control_c, 0, 64, 101
1, 275375, Control_c, 0, 64, 106
1, 275391, Control_c, 0, 64, 110
1, 275394, Note_off_c, 0, 44, 49
1, 275406, Control_c, 0, 64, 111
1, 275454, Note_on_c, 0, 46, 28
1, 275532, Control_c, 0, 64, 107
1, 275547, Control_c, 0, 64, 102
1, 275562, Control_c, 0, 64, 97
1, 275576, Control_c, 0, 64, 91
1, 275591, Control_c, 0, 64, 84
1, 275604, Note_on_c, 0, 39, 47
1, 275606, Control_c, 0, 64, 74
1, 275621, Control_c, 0, 64, 65
1, 275633, Note_off_c, 0, 46, 44
1, 275636, Control_c, 0, 64, 49
1, 275650, Control_c, 0, 64, 34
1, 275664, Note_on_c, 0, 56, 64
1, 275665, Control_c, 0, 64, 21
1, 275680, Control_c, 0, 64, 0
1, 275704, Note_off_c, 0, 50, 44
1, 275749, Note_off_c, 0, 53, 59
1, 275813, Control_c, 0, 64, 21
1, 275828, Control_c, 0, 64, 53
1, 275843, Control_c, 0, 64, 64
1, 275858, Control_c, 0, 64, 70
1, 275873, Control_c, 0, 64, 77
1, 275885, Note_on_c, 0, 45, 24
1, 275888, Control_c, 0, 64, 82
1, 275902, Control_c, 0, 64, 86
1, 275917, Control_c, 0, 64, 90
1, 275932, Control_c, 0, 64, 95
1, 275947, Control_c, 0, 64, 102
1, 275961, Control_c, 0, 64, 110
1, 275965, Note_off_c, 0, 45, 40
1, 275976, Control_c, 0, 64, 122
1, 275981, Note_on_c, 0, 49, 43
1, 275991, Control_c, 0, 64, 127
1, 276040, Note_off_c, 0, 39, 32
1, 276044, Note_on_c, 0, 51, 48
1, 276078, Note_off_c, 0, 56, 56
1, 276093, Note_on_c, 0, 54, 54
1, 276093, Note_off_c, 0, 49, 62
1, 276120, Note_off_c, 0, 51, 62
1, 276141, Note_off_c, 0, 54, 62
1, 276194, Note_on_c, 0, 57, 57
1, 276234, Note_off_c, 0, 57, 57
1, 276273, Note_on_c, 0, 61, 61
1, 276326, Note_off_c, 0, 61, 53
1, 276353, Note_on_c, 0, 63, 47
1, 276385, Note_off_c, 0, 63, 52
1, 276388, Note_on_c, 0, 68, 58
1, 276403, Note_on_c, 0, 49, 48
1, 276441, Note_off_c, 0, 49, 62
1, 276466, Note_on_c, 0, 66, 53
1, 276506, Note_off_c, 0, 68, 38
1, 276526, Note_on_c, 0, 63, 26
1, 276541, Note_on_c, 0, 61, 50
1, 276548, Note_off_c, 0, 66, 59
1, 276566, Note_off_c, 0, 63, 51
1, 276577, Note_off_c, 0, 61, 63
1, 276604, Note_on_c, 0, 57, 57
1, 276633, Note_on_c, 0, 51, 39
1, 276643, Note_off_c, 0, 57, 57
1, 276668, Note_off_c, 0, 51, 53
1, 276708, Note_on_c, 0, 54, 55
1, 276751, Note_on_c, 0, 51, 57
1, 276804, Note_on_c, 0, 49, 53
1, 276856, Control_c, 0, 64, 100
1, 276868, Note_off_c, 0, 54, 29
1, 276871, Control_c, 0, 64, 81
1, 276882, Note_on_c, 0, 56, 68
1, 276886, Control_c, 0, 64, 65
1, 276889, Note_off_c, 0, 51, 34
1, 276901, Control_c, 0, 64, 38
1, 276903, Note_off_c, 0, 49, 39
1, 276916, Control_c, 0, 64, 13
1, 276931, Control_c, 0, 64, 33
1, 276946, Control_c, 0, 64, 57
1, 276961, Control_c, 0, 64, 71
1, 276976, Note_on_c, 0, 45, 54
1, 276976, Control_c, 0, 64, 87
1, 276991, Control_c, 0, 64, 113
1, 277013, Control_c, 0, 64, 127
1, 277026, Note_off_c, 0, 45, 48
1, 277057, Note_off_c, 0, 56, 58
1, 277058, Note_on_c, 0, 49, 53
1, 277114, Note_on_c, 0, 51, 47
1, 277134, Note_off_c, 0, 49, 62
1, 277140, Note_on_c, 0, 54, 65
1, 277148, Note_off_c, 0, 51, 63
1, 277167, Note_off_c, 0, 54, 65
1, 277223, Note_on_c, 0, 57, 53
1, 277257, Note_off_c, 0, 57, 49
1, 277291, Note_on_c, 0, 61, 59
1, 277345, Note_off_c, 0, 61, 53
1, 277350, Note_on_c, 0, 63, 56
1, 277384, Note_off_c, 0, 63, 63
1, 277394, Note_on_c, 0, 49, 49
1, 277395, Note_on_c, 0, 68, 57
1, 277436, Note_off_c, 0, 49, 59
1, 277443, Note_off_c, 0, 68, 56
1, 277472, Note_on_c, 0, 66, 46
1, 277482, Note_on_c, 0, 63, 42
1, 277517, Note_off_c, 0, 66, 58
1, 277534, Note_on_c, 0, 61, 40
1, 277546, Note_off_c, 0, 63, 44
1, 277565, Note_off_c, 0, 61, 61
1, 277593, Note_on_c, 0, 57, 57
1, 277609, Note_on_c, 0, 51, 57
1, 277625, Note_off_c, 0, 57, 65
1, 277638, Note_off_c, 0, 51, 63
1, 277688, Note_on_c, 0, 54, 55
1, 277733, Note_on_c, 0, 51, 51
1, 277796, Note_on_c, 0, 49, 48
1, 277807, Control_c, 0, 64, 114
1, 277822, Control_c, 0, 64, 96
1, 277837, Control_c, 0, 64, 80
1, 277852, Control_c, 0, 64, 63
1, 277852, Note_off_c, 0, 49, 56
1, 277867, Control_c, 0, 64, 28
1, 277867, Note_on_c, 0, 56, 63
1, 277874, Note_off_c, 0, 54, 25
1, 277881, Note_off_c, 0, 51, 45
1, 277882, Control_c, 0, 64, 0
1, 277896, Control_c, 0, 64, 24
1, 277911, Control_c, 0, 64, 52
1, 277926, Control_c, 0, 64, 66
1, 277941, Control_c, 0, 64, 78
1, 277950, Note_on_c, 0, 45, 49
1, 277956, Control_c, 0, 64, 96
1, 277970, Control_c, 0, 64, 115
1, 277985, Control_c, 0, 64, 127
1, 277994, Note_off_c, 0, 56, 56
1, 278010, Note_off_c, 0, 45, 44
1, 278035, Note_on_c, 0, 49, 53
1, 278082, Note_on_c, 0, 51, 44
1, 278099, Note_on_c, 0, 54, 59
1, 278099, Note_off_c, 0, 49, 61
1, 278114, Note_off_c, 0, 51, 62
1, 278130, Note_off_c, 0, 54, 64
1, 278189, Note_on_c, 0, 57, 51
1, 278222, Note_off_c, 0, 57, 51
1, 278251, Note_on_c, 0, 61, 62
1, 278303, Note_off_c, 0, 61, 51
1, 278314, Note_on_c, 0, 63, 52
1, 278350, Note_off_c, 0, 63, 62
1, 278350, Note_on_c, 0, 49, 38
1, 278356, Note_on_c, 0, 68, 52
1, 278392, Note_off_c, 0, 49, 58
1, 278422, Note_off_c, 0, 68, 55
1, 278436, Note_on_c, 0, 66, 41
1, 278455, Note_on_c, 0, 63, 37
1, 278476, Note_off_c, 0, 66, 51
1, 278490, Note_on_c, 0, 61, 43
1, 278496, Note_off_c, 0, 63, 49
1, 278527, Note_off_c, 0, 61, 56
1, 278557, Note_on_c, 0, 57, 51
1, 278578, Note_on_c, 0, 51, 53
1, 278603, Note_off_c, 0, 57, 58
1, 278606, Note_off_c, 0, 51, 63
1, 278655, Note_on_c, 0, 54, 53
1, 278719, Note_on_c, 0, 51, 37
1, 278756, Note_off_c, 0, 54, 47
1, 278767, Note_off_c, 0, 51, 50
1, 278776, Note_on_c, 0, 49, 41
1, 278897, Control_c, 0, 64, 125
1, 278911, Control_c, 0, 64, 114
1, 278926, Control_c, 0, 64, 108
1, 278941, Control_c, 0, 64, 101
1, 278946, Note_on_c, 0, 39, 70
1, 278956, Control_c, 0, 64, 95
1, 278967, Note_on_c, 0, 56, 60
1, 278971, Control_c, 0, 64, 90
1, 278985, Control_c, 0, 64, 84
1, 279000, Control_c, 0, 64, 79
1, 279006, Note_off_c, 0, 49, 41
1, 279015, Control_c, 0, 64, 73
1, 279029, Control_c, 0, 64, 67
1, 279044, Control_c, 0, 64, 61
1, 279059, Control_c, 0, 64, 50
1, 279074, Control_c, 0, 64, 37
1, 279089, Control_c, 0, 64, 21
1, 279103, Control_c, 0, 64, 0
1, 279148, Control_c, 0, 64, 39
1, 279163, Control_c, 0, 64, 58
1, 279164, Note_on_c, 0, 45, 38
1, 279177, Control_c, 0, 64, 65
1, 279192, Control_c, 0, 64, 70
1, 279207, Control_c, 0, 64, 77
1, 279222, Control_c, 0, 64, 84
1, 279236, Control_c, 0, 64, 94
1, 279251, Control_c, 0, 64, 103
1, 279265, Note_off_c, 0, 45, 36
1, 279267, Note_on_c, 0, 49, 49
1, 279274, Control_c, 0, 64, 113
1, 279289, Control_c, 0, 64, 127
1, 279303, Note_off_c, 0, 56, 31
1, 279338, Note_on_c, 0, 51, 41
1, 279390, Note_off_c, 0, 49, 62
1, 279395, Note_on_c, 0, 54, 47
1, 279410, Note_off_c, 0, 51, 59
1, 279431, Note_off_c, 0, 54, 64
1, 279480, Note_on_c, 0, 57, 54
1, 279509, Note_off_c, 0, 57, 58
1, 279564, Note_on_c, 0, 61, 56
1, 279573, Note_off_c, 0, 39, 58
1, 279617, Note_off_c, 0, 61, 57
1, 279639, Note_on_c, 0, 66, 56
1, 279709, Note_on_c, 0, 54, 75
1, 279737, Note_on_c, 0, 63, 51
1, 279764, Note_off_c, 0, 66, 38
1, 279766, Note_off_c, 0, 54, 63
1, 279808, Note_on_c, 0, 61, 46
1, 279816, Note_off_c, 0, 63, 45
1, 279847, Note_off_c, 0, 61, 61
1, 279887, Note_on_c, 0, 57, 53
1, 279942, Note_off_c, 0, 57, 53
1, 279993, Note_on_c, 0, 56, 43
1, 280120, Note_on_c, 0, 54, 37
1, 280153, Note_on_c, 0, 51, 30
1, 280185, Note_off_c, 0, 56, 35
1, 280205, Note_off_c, 0, 54, 48
1, 280210, Note_on_c, 0, 49, 44
1, 280281, Note_off_c, 0, 49, 55
1, 280287, Note_on_c, 0, 45, 49
1, 280287, Note_off_c, 0, 51, 36
1, 280350, Control_c, 0, 64, 115
1, 280364, Control_c, 0, 64, 102
1, 280368, Note_off_c, 0, 45, 53
1, 280379, Control_c, 0, 64, 87
1, 280382, Note_on_c, 0, 49, 72
1, 280394, Control_c, 0, 64, 73
1, 280409, Control_c, 0, 64, 60
1, 280424, Control_c, 0, 64, 44
1, 280438, Control_c, 0, 64, 54
1, 280453, Control_c, 0, 64, 65
1, 280468, Control_c, 0, 64, 76
1, 280476, Note_off_c, 0, 49, 60
1, 280482, Control_c, 0, 64, 90
1, 280497, Note_on_c, 0, 45, 48
1, 280497, Control_c, 0, 64, 98
1, 280512, Control_c, 0, 64, 101
1, 280527, Control_c, 0, 64, 103
1, 280542, Control_c, 0, 64, 106
1, 280551, Note_off_c, 0, 45, 52
1, 280556, Control_c, 0, 64, 112
1, 280571, Control_c, 0, 64, 117
1, 280587, Control_c, 0, 64, 120
1, 280599, Note_on_c, 0, 49, 48
1, 280602, Control_c, 0, 64, 122
1, 280617, Control_c, 0, 64, 123
1, 280654, Note_on_c, 0, 51, 42
1, 280696, Note_off_c, 0, 49, 61
1, 280705, Control_c, 0, 64, 122
1, 280715, Note_on_c, 0, 54, 58
1, 280737, Note_off_c, 0, 51, 59
1, 280764, Note_off_c, 0, 54, 63
1, 280821, Note_on_c, 0, 57, 49
1, 280881, Note_off_c, 0, 57, 53
1, 280908, Note_on_c, 0, 61, 56
1, 280964, Control_c, 0, 64, 121
1, 280980, Control_c, 0, 64, 120
1, 280995, Control_c, 0, 64, 119
1, 281010, Control_c, 0, 64, 118
1, 281016, Note_on_c, 0, 66, 48
1, 281025, Control_c, 0, 64, 118
1, 281040, Control_c, 0, 64, 117
1, 281044, Note_off_c, 0, 61, 35
1, 281054, Control_c, 0, 64, 115
1, 281069, Control_c, 0, 64, 114
1, 281084, Control_c, 0, 64, 110
1, 281099, Control_c, 0, 64, 104
1, 281113, Control_c, 0, 64, 95
1, 281128, Control_c, 0, 64, 85
1, 281136, Note_on_c, 0, 51, 54
1, 281143, Note_on_c, 0, 63, 45
1, 281143, Control_c, 0, 64, 73
1, 281158, Control_c, 0, 64, 64
1, 281173, Control_c, 0, 64, 54
1, 281188, Control_c, 0, 64, 53
1, 281203, Control_c, 0, 64, 59
1, 281203, Control_c, 0, 67, 8
1, 281216, Note_off_c, 0, 66, 37
1, 281217, Control_c, 0, 64, 65
1, 281232, Control_c, 0, 64, 73
1, 281232, Control_c, 0, 67, 8
1, 281247, Control_c, 0, 64, 84
1, 281247, Control_c, 0, 67, 9
1, 281253, Note_on_c, 0, 61, 31
1, 281262, Control_c, 0, 64, 92
1, 281262, Control_c, 0, 67, 10
1, 281277, Control_c, 0, 64, 96
1, 281277, Control_c, 0, 67, 11
1, 281292, Control_c, 0, 64, 99
1, 281292, Control_c, 0, 67, 12
1, 281306, Control_c, 0, 64, 102
1, 281306, Control_c, 0, 67, 12
1, 281317, Note_off_c, 0, 63, 33
1, 281321, Control_c, 0, 64, 104
1, 281321, Control_c, 0, 67, 13
1, 281332, Note_off_c, 0, 61, 53
1, 281336, Control_c, 0, 64, 105
1, 281336, Control_c, 0, 67, 14
1, 281348, Note_off_c, 0, 51, 33
1, 281351, Control_c, 0, 67, 16
1, 281362, Note_on_c, 0, 57, 49
1, 281366, Control_c, 0, 64, 106
1, 281366, Control_c, 0, 67, 19
1, 281380, Control_c, 0, 67, 21
1, 281395, Control_c, 0, 64, 107
1, 281395, Control_c, 0, 67, 24
1, 281410, Control_c, 0, 64, 108
1, 281410, Control_c, 0, 67, 27
1, 281425, Control_c, 0, 67, 30
1, 281439, Control_c, 0, 67, 34
1, 281445, Note_off_c, 0, 57, 50
1, 281454, Control_c, 0, 67, 38
1, 281469, Control_c, 0, 67, 43
1, 281484, Control_c, 0, 67, 48
1, 281486, Note_on_c, 0, 56, 46
1, 281499, Control_c, 0, 67, 51
1, 281521, Control_c, 0, 67, 54
1, 281536, Control_c, 0, 67, 58
1, 281551, Control_c, 0, 67, 62
1, 281566, Control_c, 0, 67, 65
1, 281581, Control_c, 0, 67, 68
1, 281595, Control_c, 0, 67, 71
1, 281610, Control_c, 0, 67, 74
1, 281625, Control_c, 0, 67, 76
1, 281628, Note_on_c, 0, 54, 44
1, 281639, Control_c, 0, 67, 78
1, 281654, Control_c, 0, 67, 80
1, 281669, Control_c, 0, 64, 107
1, 281669, Control_c, 0, 67, 81
1, 281684, Control_c, 0, 67, 83
1, 281699, Control_c, 0, 67, 84
1, 281713, Control_c, 0, 67, 85
1, 281728, Control_c, 0, 67, 86
1, 281730, Note_off_c, 0, 56, 39
1, 281743, Control_c, 0, 67, 87
1, 281758, Control_c, 0, 67, 87
1, 281765, Note_on_c, 0, 51, 41
1, 281773, Control_c, 0, 67, 88
1, 281818, Control_c, 0, 67, 88
1, 281848, Control_c, 0, 67, 89
1, 281884, Note_on_c, 0, 49, 41
1, 281892, Control_c, 0, 67, 89
1, 281915, Note_off_c, 0, 54, 26
1, 281922, Control_c, 0, 64, 107
1, 281936, Control_c, 0, 64, 106
1, 281966, Control_c, 0, 64, 106
1, 282049, Note_on_c, 0, 45, 41
1, 282055, Control_c, 0, 64, 105
1, 282114, Note_off_c, 0, 49, 0
1, 282139, Note_off_c, 0, 51, 36
1, 282144, Control_c, 0, 64, 105
1, 282144, Control_c, 0, 67, 90
1, 282161, Poly_aftertouch_c, 0, 49, 0
1, 282166, Note_off_c, 0, 45, 34
1, 282189, Control_c, 0, 64, 104
1, 282233, Control_c, 0, 64, 103
1, 282248, Control_c, 0, 64, 103
1, 282270, Control_c, 0, 64, 102
1, 282285, Control_c, 0, 64, 101
1, 282300, Control_c, 0, 64, 99
1, 282314, Control_c, 0, 64, 97
1, 282329, Control_c, 0, 64, 95
1, 282344, Control_c, 0, 64, 93
1, 282359, Control_c, 0, 64, 90
1, 282374, Control_c, 0, 64, 85
1, 282374, Control_c, 0, 67, 90
1, 282380, Note_on_c, 0, 37, 33
1, 282389, Control_c, 0, 64, 79
1, 282389, Control_c, 0, 67, 91
1, 282403, Control_c, 0, 64, 72
1, 282403, Control_c, 0, 67, 95
1, 282418, Control_c, 0, 64, 64
1, 282418, Control_c, 0, 67, 99
1, 282433, Control_c, 0, 64, 54
1, 282433, Control_c, 0, 67, 102
1, 282448, Control_c, 0, 64, 45
1, 282448, Control_c, 0, 67, 105
1, 282462, Control_c, 0, 64, 44
1, 282462, Control_c, 0, 67, 108
1, 282477, Control_c, 0, 64, 43
1, 282477, Control_c, 0, 67, 111
1, 282492, Control_c, 0, 67, 113
1, 282507, Control_c, 0, 64, 44
1, 282507, Control_c, 0, 67, 114
1, 282522, Control_c, 0, 64, 50
1, 282522, Control_c, 0, 67, 115
1, 282536, Control_c, 0, 64, 58
1, 282536, Control_c, 0, 67, 115
1, 282551, Control_c, 0, 64, 63
1, 282566, Control_c, 0, 64, 67
1, 282566, Control_c, 0, 67, 116
1, 282582, Control_c, 0, 64, 74
1, 282597, Control_c, 0, 64, 80
1, 282612, Control_c, 0, 64, 86
1, 282613, Note_off_c, 0, 37, 39
1, 282626, Control_c, 0, 64, 91
1, 282629, Note_on_c, 0, 44, 36
1, 282641, Control_c, 0, 64, 96
1, 282656, Control_c, 0, 64, 102
1, 282671, Control_c, 0, 64, 109
1, 282685, Control_c, 0, 64, 113
1, 282700, Control_c, 0, 64, 115
1, 282715, Control_c, 0, 64, 119
1, 282730, Control_c, 0, 64, 127
1, 282769, Note_on_c, 0, 56, 43
1, 282785, Note_on_c, 0, 49, 40
1, 282788, Note_off_c, 0, 44, 41
1, 282841, Note_off_c, 0, 56, 59
1, 282846, Note_off_c, 0, 49, 57
1, 282880, Note_on_c, 0, 57, 54
1, 282881, Note_on_c, 0, 53, 46
1, 282920, Note_off_c, 0, 53, 61
1, 282920, Note_off_c, 0, 57, 59
1, 282980, Note_on_c, 0, 56, 57
1, 282994, Note_on_c, 0, 65, 55
1, 283072, Note_off_c, 0, 65, 59
1, 283090, Note_on_c, 0, 68, 48
1, 283108, Note_on_c, 0, 61, 49
1, 283126, Note_off_c, 0, 56, 35
1, 283130, Note_off_c, 0, 68, 64
1, 283158, Note_off_c, 0, 61, 60
1, 283182, Note_on_c, 0, 69, 54
1, 283204, Note_on_c, 0, 65, 52
1, 283208, Note_off_c, 0, 69, 61
1, 283238, Note_off_c, 0, 65, 62
1, 283281, Note_on_c, 0, 77, 54
1, 283295, Note_on_c, 0, 68, 47
1, 283342, Note_off_c, 0, 77, 63
1, 283361, Note_off_c, 0, 68, 54
1, 283368, Note_on_c, 0, 80, 48
1, 283376, Note_on_c, 0, 73, 53
1, 283390, Control_c, 0, 64, 125
1, 283394, Note_off_c, 0, 80, 62
1, 283405, Control_c, 0, 64, 123
1, 283420, Note_off_c, 0, 73, 62
1, 283420, Control_c, 0, 64, 121
1, 283435, Control_c, 0, 64, 119
1, 283448, Note_on_c, 0, 81, 59
1, 283449, Control_c, 0, 64, 117
1, 283464, Control_c, 0, 64, 114
1, 283468, Note_on_c, 0, 77, 48
1, 283479, Control_c, 0, 64, 110
1, 283489, Note_off_c, 0, 81, 49
1, 283494, Control_c, 0, 64, 103
1, 283508, Control_c, 0, 64, 95
1, 283510, Note_off_c, 0, 77, 56
1, 283523, Control_c, 0, 64, 90
1, 283543, Note_on_c, 0, 89, 63
1, 283553, Control_c, 0, 64, 91
1, 283555, Note_on_c, 0, 80, 41
1, 283555, Note_on_c, 0, 85, 53
1, 283568, Control_c, 0, 64, 93
1, 283581, Note_off_c, 0, 80, 57
1, 283582, Control_c, 0, 64, 96
1, 283596, Note_off_c, 0, 89, 59
1, 283597, Control_c, 0, 64, 98
1, 283605, Note_off_c, 0, 85, 54
1, 283612, Control_c, 0, 64, 99
1, 283623, Note_on_c, 0, 77, 52
1, 283643, Note_on_c, 0, 81, 59
1, 283654, Note_off_c, 0, 77, 52
1, 283680, Note_off_c, 0, 81, 55
1, 283725, Note_on_c, 0, 80, 53
1, 283731, Note_on_c, 0, 73, 46
1, 283779, Note_off_c, 0, 73, 51
1, 283805, Note_on_c, 0, 68, 52
1, 283817, Note_on_c, 0, 77, 48
1, 283817, Note_off_c, 0, 80, 58
1, 283836, Note_off_c, 0, 68, 67
1, 283843, Note_off_c, 0, 77, 58
1, 283892, Note_on_c, 0, 69, 58
1, 283910, Note_on_c, 0, 65, 37
1, 283942, Note_off_c, 0, 65, 52
1, 283956, Note_off_c, 0, 69, 57
1, 283987, Note_on_c, 0, 61, 50
1, 283993, Note_on_c, 0, 68, 56
1, 284035, Note_off_c, 0, 61, 61
1, 284055, Note_on_c, 0, 56, 51
1, 284057, Note_on_c, 0, 65, 46
1, 284087, Note_off_c, 0, 56, 65
1, 284093, Note_off_c, 0, 68, 52
1, 284099, Note_off_c, 0, 65, 63
1, 284108, Control_c, 0, 64, 99
1, 284123, Control_c, 0, 64, 98
1, 284138, Control_c, 0, 64, 97
1, 284151, Note_on_c, 0, 53, 50
1, 284153, Control_c, 0, 64, 95
1, 284157, Note_on_c, 0, 57, 51
1, 284168, Control_c, 0, 64, 92
1, 284183, Control_c, 0, 64, 86
1, 284195, Note_off_c, 0, 53, 52
1, 284198, Control_c, 0, 64, 80
1, 284213, Control_c, 0, 64, 76
1, 284219, Note_off_c, 0, 57, 59
1, 284238, Note_on_c, 0, 49, 43
1, 284243, Control_c, 0, 64, 77
1, 284257, Control_c, 0, 64, 79
1, 284257, Control_c, 0, 67, 115
1, 284258, Note_on_c, 0, 56, 44
1, 284272, Control_c, 0, 64, 82
1, 284287, Control_c, 0, 64, 84
1, 284290, Note_off_c, 0, 49, 59
1, 284294, Note_off_c, 0, 56, 63
1, 284302, Control_c, 0, 64, 85
1, 284317, Control_c, 0, 64, 85
1, 284329, Note_on_c, 0, 57, 58
1, 284331, Note_on_c, 0, 53, 42
1, 284331, Control_c, 0, 64, 86
1, 284346, Control_c, 0, 64, 87
1, 284351, Note_off_c, 0, 57, 61
1, 284361, Control_c, 0, 64, 88
1, 284370, Note_off_c, 0, 53, 62
1, 284376, Control_c, 0, 64, 89
1, 284405, Control_c, 0, 64, 89
1, 284418, Note_on_c, 0, 56, 51
1, 284431, Note_on_c, 0, 65, 55
1, 284464, Control_c, 0, 64, 90
1, 284491, Note_off_c, 0, 65, 59
1, 284492, Note_off_c, 0, 56, 56
1, 284518, Note_on_c, 0, 68, 54
1, 284529, Note_on_c, 0, 61, 54
1, 284552, Note_off_c, 0, 68, 66
1, 284564, Note_off_c, 0, 61, 62
1, 284602, Note_on_c, 0, 69, 51
1, 284614, Note_on_c, 0, 65, 43
1, 284626, Note_off_c, 0, 69, 58
1, 284648, Note_off_c, 0, 65, 50
1, 284688, Note_on_c, 0, 77, 62
1, 284691, Note_on_c, 0, 68, 50
1, 284738, Note_off_c, 0, 77, 58
1, 284753, Note_off_c, 0, 68, 56
1, 284761, Note_on_c, 0, 80, 52
1, 284765, Note_on_c, 0, 73, 56
1, 284785, Note_off_c, 0, 80, 60
1, 284812, Note_off_c, 0, 73, 61
1, 284847, Note_on_c, 0, 81, 59
1, 284860, Note_on_c, 0, 77, 49
1, 284908, Note_off_c, 0, 81, 39
1, 284911, Note_off_c, 0, 77, 46
1, 284932, Note_on_c, 0, 80, 53
1, 284933, Note_on_c, 0, 89, 65
1, 284944, Note_on_c, 0, 85, 54
1, 284976, Note_off_c, 0, 80, 61
1, 284979, Note_off_c, 0, 89, 59
1, 284984, Note_off_c, 0, 85, 61
1, 285012, Note_on_c, 0, 77, 60
1, 285036, Note_on_c, 0, 81, 54
1, 285038, Note_off_c, 0, 77, 57
1, 285061, Note_off_c, 0, 81, 56
1, 285112, Note_on_c, 0, 80, 51
1, 285117, Note_on_c, 0, 73, 47
1, 285158, Note_off_c, 0, 73, 52
1, 285182, Note_off_c, 0, 80, 54
1, 285182, Note_on_c, 0, 77, 50
1, 285185, Note_on_c, 0, 68, 58
1, 285212, Note_off_c, 0, 77, 64
1, 285212, Note_off_c, 0, 68, 67
1, 285263, Note_on_c, 0, 69, 63
1, 285280, Note_on_c, 0, 65, 60
1, 285304, Note_off_c, 0, 65, 58
1, 285304, Note_off_c, 0, 69, 59
1, 285362, Note_on_c, 0, 68, 54
1, 285369, Control_c, 0, 64, 89
1, 285372, Note_on_c, 0, 61, 49
1, 285398, Control_c, 0, 64, 89
1, 285403, Note_off_c, 0, 61, 65
1, 285424, Note_on_c, 0, 65, 41
1, 285429, Note_on_c, 0, 56, 55
1, 285439, Note_off_c, 0, 68, 53
1, 285457, Note_off_c, 0, 56, 66
1, 285460, Note_off_c, 0, 65, 62
1, 285472, Control_c, 0, 64, 88
1, 285502, Control_c, 0, 64, 87
1, 285517, Note_on_c, 0, 57, 53
1, 285517, Control_c, 0, 64, 85
1, 285519, Note_on_c, 0, 53, 55
1, 285532, Control_c, 0, 64, 81
1, 285546, Control_c, 0, 64, 76
1, 285561, Note_off_c, 0, 53, 61
1, 285561, Control_c, 0, 64, 72
1, 285582, Note_off_c, 0, 57, 60
1, 285591, Control_c, 0, 64, 75
1, 285602, Note_on_c, 0, 49, 52
1, 285605, Control_c, 0, 64, 81
1, 285606, Note_on_c, 0, 56, 45
1, 285620, Control_c, 0, 64, 86
1, 285635, Control_c, 0, 64, 89
1, 285644, Note_off_c, 0, 56, 63
1, 285646, Note_off_c, 0, 49, 61
1, 285650, Control_c, 0, 64, 90
1, 285680, Control_c, 0, 64, 91
1, 285703, Note_on_c, 0, 57, 42
1, 285704, Note_on_c, 0, 53, 29
1, 285730, Note_off_c, 0, 57, 57
1, 285747, Note_off_c, 0, 53, 56
1, 285777, Note_on_c, 0, 56, 47
1, 285790, Note_on_c, 0, 65, 54
1, 285814, Control_c, 0, 64, 89
1, 285829, Control_c, 0, 64, 86
1, 285837, Note_off_c, 0, 65, 59
1, 285844, Control_c, 0, 64, 82
1, 285853, Note_on_c, 0, 68, 51
1, 285859, Control_c, 0, 64, 78
1, 285869, Note_on_c, 0, 61, 50
1, 285874, Control_c, 0, 64, 78
1, 285877, Note_off_c, 0, 56, 38
1, 285889, Control_c, 0, 64, 80
1, 285889, Note_off_c, 0, 68, 66
1, 285903, Control_c, 0, 64, 84
1, 285913, Note_off_c, 0, 61, 62
1, 285918, Control_c, 0, 64, 89
1, 285929, Note_on_c, 0, 69, 63
1, 285933, Control_c, 0, 64, 92
1, 285938, Note_on_c, 0, 65, 58
1, 285948, Control_c, 0, 64, 92
1, 285954, Note_off_c, 0, 69, 57
1, 285978, Note_off_c, 0, 65, 63
1, 286032, Note_on_c, 0, 77, 60
1, 286038, Note_on_c, 0, 68, 52
1, 286079, Note_off_c, 0, 77, 53
1, 286092, Note_on_c, 0, 80, 59
1, 286103, Note_off_c, 0, 68, 56
1, 286111, Note_on_c, 0, 73, 58
1, 286123, Note_off_c, 0, 80, 67
1, 286154, Note_off_c, 0, 73, 62
1, 286173, Note_on_c, 0, 81, 60
1, 286176, Note_on_c, 0, 77, 59
1, 286207, Control_c, 0, 64, 91
1, 286212, Note_off_c, 0, 81, 47
1, 286221, Control_c, 0, 64, 89
1, 286236, Control_c, 0, 64, 85
1, 286249, Note_off_c, 0, 77, 59
1, 286251, Control_c, 0, 64, 79
1, 286266, Note_on_c, 0, 89, 61
1, 286266, Control_c, 0, 64, 76
1, 286271, Note_on_c, 0, 80, 51
1, 286273, Note_on_c, 0, 85, 55
1, 286281, Control_c, 0, 64, 77
1, 286296, Control_c, 0, 64, 80
1, 286305, Note_off_c, 0, 80, 59
1, 286308, Note_off_c, 0, 89, 61
1, 286310, Control_c, 0, 64, 83
1, 286315, Note_off_c, 0, 85, 62
1, 286325, Control_c, 0, 64, 85
1, 286340, Control_c, 0, 64, 86
1, 286351, Note_on_c, 0, 81, 56
1, 286359, Note_on_c, 0, 77, 49
1, 286385, Note_off_c, 0, 77, 57
1, 286385, Note_off_c, 0, 81, 48
1, 286444, Note_on_c, 0, 80, 52
1, 286449, Note_on_c, 0, 73, 45
1, 286485, Note_off_c, 0, 73, 64
1, 286502, Note_on_c, 0, 77, 35
1, 286523, Note_off_c, 0, 80, 62
1, 286526, Note_on_c, 0, 68, 54
1, 286553, Note_off_c, 0, 77, 51
1, 286554, Note_off_c, 0, 68, 67
1, 286590, Note_on_c, 0, 69, 60
1, 286613, Note_on_c, 0, 65, 55
1, 286643, Note_off_c, 0, 69, 47
1, 286649, Note_off_c, 0, 65, 51
1, 286690, Note_on_c, 0, 68, 50
1, 286712, Note_on_c, 0, 61, 43
1, 286750, Note_off_c, 0, 61, 61
1, 286770, Note_on_c, 0, 65, 48
1, 286776, Note_on_c, 0, 56, 50
1, 286792, Note_off_c, 0, 68, 59
1, 286793, Control_c, 0, 64, 85
1, 286802, Note_off_c, 0, 65, 63
1, 286807, Note_off_c, 0, 56, 64
1, 286822, Control_c, 0, 64, 85
1, 286837, Control_c, 0, 64, 83
1, 286851, Control_c, 0, 64, 80
1, 286857, Note_on_c, 0, 57, 48
1, 286863, Note_on_c, 0, 53, 51
1, 286866, Control_c, 0, 64, 76
1, 286881, Control_c, 0, 64, 70
1, 286896, Control_c, 0, 64, 69
1, 286906, Note_off_c, 0, 53, 59
1, 286911, Control_c, 0, 64, 71
1, 286926, Control_c, 0, 64, 75
1, 286938, Note_off_c, 0, 57, 45
1, 286941, Control_c, 0, 64, 80
1, 286944, Note_on_c, 0, 49, 50
1, 286952, Note_on_c, 0, 56, 44
1, 286956, Control_c, 0, 64, 83
1, 286971, Control_c, 0, 64, 84
1, 286986, Control_c, 0, 64, 85
1, 286990, Note_off_c, 0, 56, 64
1, 286991, Note_off_c, 0, 49, 61
1, 287015, Control_c, 0, 64, 85
1, 287030, Control_c, 0, 67, 116
1, 287032, Note_on_c, 0, 53, 44
1, 287044, Control_c, 0, 64, 86
1, 287045, Note_on_c, 0, 57, 47
1, 287059, Control_c, 0, 64, 86
1, 287067, Note_off_c, 0, 53, 62
1, 287081, Note_off_c, 0, 57, 52
1, 287104, Control_c, 0, 67, 116
1, 287124, Note_on_c, 0, 56, 47
1, 287137, Note_on_c, 0, 65, 56
1, 287163, Control_c, 0, 67, 117
1, 287192, Note_off_c, 0, 56, 53
1, 287196, Note_off_c, 0, 65, 57
1, 287216, Note_on_c, 0, 68, 57
1, 287217, Note_on_c, 0, 61, 46
1, 287237, Control_c, 0, 67, 117
1, 287249, Note_off_c, 0, 68, 66
1, 287254, Note_off_c, 0, 61, 58
1, 287281, Control_c, 0, 67, 118
1, 287298, Note_on_c, 0, 69, 57
1, 287311, Control_c, 0, 67, 120
1, 287313, Note_on_c, 0, 65, 44
1, 287323, Note_off_c, 0, 69, 56
1, 287325, Control_c, 0, 67, 122
1, 287340, Control_c, 0, 67, 123
1, 287344, Note_off_c, 0, 65, 51
1, 287371, Control_c, 0, 67, 124
1, 287388, Note_on_c, 0, 68, 55
1, 287389, Note_on_c, 0, 77, 59
1, 287459, Note_off_c, 0, 68, 56
1, 287462, Note_off_c, 0, 77, 59
1, 287469, Note_on_c, 0, 73, 57
1, 287487, Note_on_c, 0, 80, 54
1, 287514, Note_off_c, 0, 80, 63
1, 287522, Note_off_c, 0, 73, 63
1, 287564, Note_on_c, 0, 81, 56
1, 287573, Note_on_c, 0, 77, 47
1, 287610, Note_off_c, 0, 81, 55
1, 287620, Note_off_c, 0, 77, 46
1, 287650, Note_on_c, 0, 80, 47
1, 287660, Note_on_c, 0, 89, 66
1, 287668, Note_on_c, 0, 85, 54
1, 287688, Note_off_c, 0, 80, 53
1, 287696, Note_off_c, 0, 89, 60
1, 287706, Note_off_c, 0, 85, 57
1, 287733, Note_on_c, 0, 77, 54
1, 287754, Note_on_c, 0, 81, 51
1, 287759, Note_off_c, 0, 77, 55
1, 287794, Note_off_c, 0, 81, 48
1, 287838, Note_on_c, 0, 73, 46
1, 287841, Note_on_c, 0, 80, 53
1, 287882, Note_off_c, 0, 73, 51
1, 287920, Note_off_c, 0, 80, 58
1, 287925, Note_on_c, 0, 68, 47
1, 287925, Note_on_c, 0, 77, 50
1, 287951, Note_off_c, 0, 77, 62
1, 287956, Note_off_c, 0, 68, 66
1, 288001, Note_on_c, 0, 69, 60
1, 288009, Note_on_c, 0, 65, 56
1, 288047, Note_off_c, 0, 69, 57
1, 288049, Note_off_c, 0, 65, 61
1, 288089, Control_c, 0, 64, 86
1, 288099, Note_on_c, 0, 68, 57
1, 288101, Note_on_c, 0, 61, 49
1, 288156, Note_off_c, 0, 61, 63
1, 288181, Note_on_c, 0, 56, 53
1, 288183, Note_on_c, 0, 65, 55
1, 288193, Note_off_c, 0, 68, 58
1, 288206, Note_off_c, 0, 56, 60
1, 288215, Note_off_c, 0, 65, 54
1, 288276, Control_c, 0, 64, 85
1, 288281, Note_on_c, 0, 53, 52
1, 288283, Note_on_c, 0, 57, 54
1, 288291, Control_c, 0, 64, 85
1, 288305, Control_c, 0, 64, 84
1, 288320, Control_c, 0, 64, 82
1, 288335, Control_c, 0, 64, 79
1, 288339, Note_off_c, 0, 53, 55
1, 288350, Control_c, 0, 64, 73
1, 288350, Control_c, 0, 67, 124
1, 288357, Note_off_c, 0, 57, 58
1, 288365, Control_c, 0, 64, 66
1, 288379, Control_c, 0, 64, 59
1, 288394, Control_c, 0, 64, 61
1, 288397, Note_on_c, 0, 49, 46
1, 288405, Note_on_c, 0, 56, 47
1, 288409, Control_c, 0, 64, 64
1, 288423, Control_c, 0, 64, 68
1, 288438, Control_c, 0, 64, 73
1, 288438, Control_c, 0, 67, 125
1, 288446, Note_off_c, 0, 56, 63
1, 288453, Control_c, 0, 64, 76
1, 288455, Note_off_c, 0, 49, 61
1, 288468, Control_c, 0, 64, 78
1, 288483, Control_c, 0, 64, 79
1, 288489, Note_on_c, 0, 57, 52
1, 288490, Note_on_c, 0, 53, 46
1, 288497, Control_c, 0, 64, 80
1, 288512, Control_c, 0, 64, 81
1, 288516, Note_off_c, 0, 57, 57
1, 288527, Control_c, 0, 64, 81
1, 288528, Note_off_c, 0, 53, 62
1, 288542, Control_c, 0, 64, 82
1, 288557, Control_c, 0, 64, 82
1, 288571, Control_c, 0, 64, 83
1, 288590, Note_on_c, 0, 56, 48
1, 288601, Note_on_c, 0, 65, 48
1, 288601, Control_c, 0, 64, 83
1, 288668, Note_off_c, 0, 65, 60
1, 288676, Control_c, 0, 67, 125
1, 288678, Note_on_c, 0, 68, 53
1, 288691, Note_on_c, 0, 61, 49
1, 288697, Note_off_c, 0, 56, 36
1, 288733, Note_off_c, 0, 68, 62
1, 288735, Control_c, 0, 67, 126
1, 288741, Note_off_c, 0, 61, 61
1, 288750, Control_c, 0, 67, 127
1, 288785, Note_on_c, 0, 69, 58
1, 288799, Note_on_c, 0, 65, 49
1, 288823, Note_off_c, 0, 69, 62
1, 288850, Note_off_c, 0, 65, 44
1, 288917, Note_on_c, 0, 77, 41
1, 288923, Note_on_c, 0, 68, 44
1, 289030, Note_off_c, 0, 68, 50
1, 289039, Note_on_c, 0, 73, 44
1, 289040, Note_on_c, 0, 80, 57
1, 289057, Note_off_c, 0, 77, 44
1, 289068, Control_c, 0, 64, 83
1, 289112, Note_off_c, 0, 80, 64
1, 289113, Control_c, 0, 64, 82
1, 289142, Control_c, 0, 64, 82
1, 289171, Note_on_c, 0, 81, 48
1, 289180, Note_on_c, 0, 77, 35
1, 289187, Control_c, 0, 64, 81
1, 289260, Control_c, 0, 64, 81
1, 289290, Control_c, 0, 64, 80
1, 289305, Control_c, 0, 64, 80
1, 289320, Control_c, 0, 64, 79
1, 289334, Control_c, 0, 64, 79
1, 289349, Control_c, 0, 64, 78
1, 289364, Control_c, 0, 64, 77
1, 289379, Control_c, 0, 64, 76
1, 289394, Control_c, 0, 64, 75
1, 289409, Control_c, 0, 64, 73
1, 289424, Control_c, 0, 64, 72
1, 289439, Control_c, 0, 64, 71
1, 289453, Control_c, 0, 64, 71
1, 289454, Note_off_c, 0, 81, 23
1, 289468, Control_c, 0, 64, 70
1, 289483, Control_c, 0, 64, 70
1, 289498, Control_c, 0, 64, 68
1, 289513, Control_c, 0, 64, 67
1, 289519, Note_on_c, 0, 68, 30
1, 289527, Control_c, 0, 64, 66
1, 289537, Note_on_c, 0, 65, 27
1, 289538, Note_on_c, 0, 89, 48
1, 289542, Control_c, 0, 64, 64
1, 289549, Note_on_c, 0, 85, 29
1, 289557, Control_c, 0, 64, 63
1, 289570, Control_c, 0, 64, 60
1, 289585, Control_c, 0, 64, 57
1, 289600, Control_c, 0, 64, 51
1, 289615, Control_c, 0, 64, 45
1, 289630, Control_c, 0, 64, 37
1, 289644, Control_c, 0, 64, 24
1, 289659, Control_c, 0, 64, 0
1, 289787, Control_c, 0, 64, 19
1, 289802, Control_c, 0, 64, 47
1, 289817, Control_c, 0, 64, 56
1, 289831, Control_c, 0, 64, 58
1, 289846, Control_c, 0, 64, 59
1, 289861, Control_c, 0, 64, 62
1, 289875, Control_c, 0, 64, 65
1, 289890, Control_c, 0, 64, 67
1, 289901, Note_off_c, 0, 85, 42
1, 289905, Control_c, 0, 64, 69
1, 289920, Control_c, 0, 64, 70
1, 289934, Note_off_c, 0, 89, 32
1, 289935, Control_c, 0, 64, 71
1, 289949, Control_c, 0, 64, 72
1, 289964, Control_c, 0, 64, 73
1, 289979, Control_c, 0, 64, 74
1, 290083, Control_c, 0, 64, 73
1, 290112, Control_c, 0, 64, 73
1, 290127, Control_c, 0, 64, 72
1, 290142, Control_c, 0, 64, 72
1, 290157, Control_c, 0, 64, 71
1, 290172, Control_c, 0, 64, 69
1, 290187, Control_c, 0, 64, 67
1, 290201, Control_c, 0, 64, 65
1, 290216, Control_c, 0, 64, 63
1, 290231, Control_c, 0, 64, 62
1, 290275, Control_c, 0, 64, 62
1, 290290, Control_c, 0, 64, 61
1, 290305, Control_c, 0, 64, 61
1, 290335, Control_c, 0, 64, 60
1, 290350, Control_c, 0, 64, 60
1, 290365, Control_c, 0, 64, 59
1, 290380, Control_c, 0, 64, 59
1, 290394, Control_c, 0, 64, 58
1, 290409, Control_c, 0, 64, 58
1, 290424, Control_c, 0, 64, 57
1, 290439, Control_c, 0, 64, 57
1, 290454, Control_c, 0, 64, 56
1, 290483, Control_c, 0, 64, 56
1, 290506, Control_c, 0, 64, 55
1, 290550, Control_c, 0, 64, 54
1, 290565, Control_c, 0, 64, 54
1, 290595, Control_c, 0, 64, 53
1, 290610, Control_c, 0, 64, 53
1, 290625, Control_c, 0, 64, 52
1, 290640, Control_c, 0, 64, 52
1, 290655, Control_c, 0, 64, 51
1, 290670, Control_c, 0, 64, 50
1, 290685, Control_c, 0, 64, 50
1, 290699, Control_c, 0, 64, 49
1, 290714, Control_c, 0, 64, 48
1, 290729, Control_c, 0, 64, 47
1, 290744, Control_c, 0, 64, 46
1, 290759, Control_c, 0, 64, 45
1, 290773, Control_c, 0, 64, 45
1, 290788, Control_c, 0, 64, 44
1, 290803, Control_c, 0, 64, 43
1, 290817, Control_c, 0, 64, 42
1, 290832, Control_c, 0, 64, 42
1, 290847, Control_c, 0, 64, 41
1, 290862, Control_c, 0, 64, 39
1, 290877, Control_c, 0, 64, 38
1, 290891, Control_c, 0, 64, 36
1, 290906, Control_c, 0, 64, 34
1, 290921, Control_c, 0, 64, 30
1, 290936, Control_c, 0, 64, 28
1, 290951, Control_c, 0, 64, 26
1, 290965, Control_c, 0, 64, 25
1, 290980, Control_c, 0, 64, 24
1, 290995, Control_c, 0, 64, 21
1, 291010, Control_c, 0, 64, 18
1, 291025, Control_c, 0, 64, 15
1, 291040, Control_c, 0, 64, 12
1, 291054, Control_c, 0, 64, 0
1, 291582, Control_c, 0, 67, 127
1, 291596, Control_c, 0, 67, 126
1, 291611, Control_c, 0, 67, 125
1, 291626, Control_c, 0, 67, 124
1, 291640, Control_c, 0, 67, 123
1, 291655, Control_c, 0, 67, 122
1, 291670, Control_c, 0, 67, 121
1, 291685, Control_c, 0, 67, 119
1, 291700, Control_c, 0, 67, 117
1, 291714, Control_c, 0, 67, 115
1, 291729, Control_c, 0, 67, 115
1, 291744, Control_c, 0, 67, 113
1, 291759, Control_c, 0, 67, 109
1, 291774, Control_c, 0, 67, 105
1, 291788, Control_c, 0, 67, 100
1, 291803, Control_c, 0, 67, 97
1, 291818, Control_c, 0, 67, 93
1, 291833, Control_c, 0, 67, 89
1, 291847, Control_c, 0, 67, 85
1, 291862, Control_c, 0, 67, 81
1, 291877, Control_c, 0, 67, 76
1, 291892, Control_c, 0, 67, 73
1, 291907, Control_c, 0, 67, 70
1, 291922, Control_c, 0, 67, 68
1, 291937, Control_c, 0, 67, 64
1, 291952, Control_c, 0, 67, 61
1, 291966, Control_c, 0, 67, 58
1, 291988, Control_c, 0, 67, 55
1, 292003, Control_c, 0, 67, 52
1, 292018, Control_c, 0, 67, 50
1, 292033, Control_c, 0, 67, 47
1, 292047, Control_c, 0, 67, 43
1, 292062, Control_c, 0, 67, 41
1, 292077, Control_c, 0, 67, 40
1, 292092, Control_c, 0, 67, 38
1, 292107, Control_c, 0, 67, 36
1, 292122, Control_c, 0, 67, 32
1, 292137, Control_c, 0, 67, 28
1, 292151, Control_c, 0, 67, 25
1, 292167, Control_c, 0, 67, 22
1, 292182, Control_c, 0, 67, 18
1, 292197, Control_c, 0, 67, 14
1, 292211, Control_c, 0, 67, 9
1, 292226, Control_c, 0, 67, 0
1, 292277, Note_off_c, 0, 65, 2
1, 292993, Note_off_c, 0, 77, 9
1, 293191, Note_off_c, 0, 73, 32
1, 293270, Note_off_c, 0, 68, 31
1, 293345, End_track
0, 0, End_of_file
