0, 0, Header, 0, 1, 384
1, 0, Start_track
1, 0, Title_t, "Feux d'artifice--Lie Chen       "
1, 0, Text_t, "2009 Piano-e-Competition audition round"
1, 0, Text_t, "captured January 2009"
1, 0, Text_t, "http://www.piano-e-competition.com/"
1, 0, Text_t, "File processed for distribution by software from Zenph Studios, Inc., http://www.zenph.com"
1, 0, Instrument_name_t, "Yamaha Disklavier Pro Mark IV concert grand piano, model DCFIIISM4PRO"
1, 0, Sequencer_specific, 39, 67, 113, 0, 1, 0, 1, 0, 70, 101, 117, 120, 32, 100, 39, 97, 114, 116, 105, 102, 105, 99, 101, 32, 76, 105, 101, 32, 67, 104, 101, 110, 32, 32, 32, 32, 32, 32, 32, 32
1, 0, Sequencer_specific, 6, 67, 113, 0, 0, 0, 69
1, 0, System_exclusive, 21, 67, 113, 126, 21, 0, 2, 2, 0, 3, 14, 1, 4, 1, 13, 13, 10, 11, 9, 2, 7, 247
1, 0, Sequencer_specific, 5, 67, 123, 12, 2, 1
1, 0, Tempo, 512820
1, 0, Time_signature, 4, 2, 24, 8
1, 0, System_exclusive, 5, 126, 127, 9, 1, 247
1, 1, System_exclusive, 8, 67, 16, 76, 0, 0, 126, 0, 247
1, 2, System_exclusive, 8, 67, 16, 76, 8, 9, 7, 1, 247
1, 3, Control_c, 0, 0, 0
1, 3, Control_c, 1, 0, 0
1, 3, Control_c, 2, 0, 0
1, 3, Control_c, 3, 0, 0
1, 3, Control_c, 4, 0, 0
1, 3, Control_c, 5, 0, 0
1, 3, Control_c, 6, 0, 0
1, 3, Control_c, 7, 0, 0
1, 3, Control_c, 8, 0, 0
1, 3, Control_c, 9, 0, 127
1, 3, Control_c, 10, 0, 0
1, 3, Control_c, 11, 0, 0
1, 3, Control_c, 12, 0, 0
1, 3, Control_c, 13, 0, 0
1, 3, Control_c, 14, 0, 0
1, 3, Control_c, 15, 0, 0
1, 4, Control_c, 0, 32, 0
1, 4, Control_c, 1, 32, 0
1, 4, Control_c, 2, 32, 0
1, 4, Control_c, 3, 32, 0
1, 4, Control_c, 4, 32, 0
1, 4, Control_c, 5, 32, 0
1, 4, Control_c, 6, 32, 0
1, 4, Control_c, 7, 32, 0
1, 4, Control_c, 8, 32, 0
1, 4, Control_c, 9, 32, 0
1, 4, Control_c, 10, 32, 0
1, 4, Control_c, 11, 32, 0
1, 4, Control_c, 12, 32, 0
1, 4, Control_c, 13, 32, 0
1, 4, Control_c, 14, 32, 0
1, 4, Control_c, 15, 32, 0
1, 5, Program_c, 0, 0
1, 5, Program_c, 1, 0
1, 5, Program_c, 2, 0
1, 5, Program_c, 3, 0
1, 5, Program_c, 4, 0
1, 5, Program_c, 5, 0
1, 5, Program_c, 6, 0
1, 5, Program_c, 7, 0
1, 5, Program_c, 8, 0
1, 5, Program_c, 9, 0
1, 5, Program_c, 10, 0
1, 5, Program_c, 11, 0
1, 5, Program_c, 12, 0
1, 5, Program_c, 13, 0
1, 5, Program_c, 14, 0
1, 5, Program_c, 15, 0
1, 6, Control_c, 0, 7, 100
1, 6, Control_c, 1, 7, 100
1, 6, Control_c, 2, 7, 100
1, 6, Control_c, 3, 7, 100
1, 6, Control_c, 4, 7, 100
1, 6, Control_c, 5, 7, 100
1, 6, Control_c, 6, 7, 100
1, 6, Control_c, 7, 7, 100
1, 6, Control_c, 8, 7, 100
1, 6, Control_c, 9, 7, 100
1, 6, Control_c, 10, 7, 100
1, 6, Control_c, 11, 7, 100
1, 6, Control_c, 12, 7, 100
1, 6, Control_c, 13, 7, 100
1, 6, Control_c, 14, 7, 100
1, 6, Control_c, 15, 7, 100
1, 117, Control_c, 0, 64, 15
1, 117, Control_c, 0, 67, 15
1, 229, Control_c, 0, 64, 31
1, 229, Control_c, 0, 67, 31
1, 341, Control_c, 0, 64, 46
1, 341, Control_c, 0, 67, 46
1, 452, Control_c, 0, 64, 63
1, 452, Control_c, 0, 67, 63
1, 564, Control_c, 0, 64, 77
1, 564, Control_c, 0, 67, 77
1, 676, Control_c, 0, 64, 94
1, 676, Control_c, 0, 67, 94
1, 787, Control_c, 0, 64, 108
1, 787, Control_c, 0, 67, 108
1, 899, Control_c, 0, 64, 127
1, 899, Control_c, 0, 67, 127
1, 1138, Note_on_c, 0, 65, 35
1, 1222, Note_off_c, 0, 65, 40
1, 1227, Note_on_c, 0, 67, 38
1, 1278, Note_off_c, 0, 67, 44
1, 1282, Note_on_c, 0, 69, 29
1, 1306, Note_on_c, 0, 70, 37
1, 1320, Note_off_c, 0, 69, 51
1, 1376, Note_on_c, 0, 68, 20
1, 1433, Note_off_c, 0, 70, 25
1, 1433, Note_on_c, 0, 66, 24
1, 1434, Note_off_c, 0, 68, 42
1, 1473, Note_off_c, 0, 66, 50
1, 1490, Note_on_c, 0, 65, 42
1, 1540, Note_off_c, 0, 65, 45
1, 1552, Note_on_c, 0, 67, 40
1, 1591, Note_off_c, 0, 67, 48
1, 1605, Note_on_c, 0, 69, 13
1, 1618, Note_on_c, 0, 70, 37
1, 1660, Note_off_c, 0, 69, 45
1, 1701, Note_on_c, 0, 68, 16
1, 1728, Note_on_c, 0, 66, 44
1, 1748, Note_off_c, 0, 70, 29
1, 1749, Note_off_c, 0, 68, 48
1, 1772, Note_off_c, 0, 66, 46
1, 1817, Note_on_c, 0, 65, 24
1, 1856, Note_off_c, 0, 65, 52
1, 1866, Note_on_c, 0, 67, 42
1, 1909, Note_on_c, 0, 69, 45
1, 1910, Note_off_c, 0, 67, 46
1, 1943, Note_on_c, 0, 70, 38
1, 1968, Note_off_c, 0, 69, 46
1, 2008, Note_on_c, 0, 68, 39
1, 2052, Note_off_c, 0, 68, 46
1, 2057, Note_on_c, 0, 66, 38
1, 2057, Note_off_c, 0, 70, 36
1, 2093, Note_off_c, 0, 66, 49
1, 2121, Note_on_c, 0, 65, 37
1, 2165, Note_off_c, 0, 65, 48
1, 2171, Note_on_c, 0, 67, 44
1, 2202, Note_off_c, 0, 67, 53
1, 2210, Note_on_c, 0, 69, 40
1, 2235, Note_on_c, 0, 70, 40
1, 2287, Note_off_c, 0, 69, 40
1, 2298, Note_on_c, 0, 68, 38
1, 2335, Note_off_c, 0, 70, 36
1, 2338, Note_off_c, 0, 68, 48
1, 2348, Note_on_c, 0, 66, 35
1, 2380, Note_off_c, 0, 66, 52
1, 2404, Note_on_c, 0, 65, 43
1, 2454, Note_off_c, 0, 65, 60
1, 2472, Note_on_c, 0, 67, 39
1, 2503, Note_off_c, 0, 67, 54
1, 2512, Note_on_c, 0, 69, 41
1, 2518, Note_on_c, 0, 70, 43
1, 2569, Note_off_c, 0, 69, 46
1, 2590, Note_on_c, 0, 68, 39
1, 2639, Note_on_c, 0, 66, 40
1, 2640, Note_off_c, 0, 68, 45
1, 2652, Note_off_c, 0, 70, 36
1, 2676, Note_off_c, 0, 66, 49
1, 2716, Note_on_c, 0, 65, 36
1, 2766, Note_off_c, 0, 65, 45
1, 2772, Note_on_c, 0, 67, 47
1, 2800, Note_off_c, 0, 67, 56
1, 2813, Note_on_c, 0, 69, 36
1, 2820, Note_on_c, 0, 70, 35
1, 2859, Note_off_c, 0, 69, 46
1, 2882, Note_on_c, 0, 68, 41
1, 2906, Note_off_c, 0, 70, 32
1, 2926, Note_on_c, 0, 66, 51
1, 2932, Note_off_c, 0, 68, 44
1, 2966, Note_off_c, 0, 66, 49
1, 3005, Note_on_c, 0, 65, 34
1, 3043, Note_off_c, 0, 65, 50
1, 3053, Note_on_c, 0, 67, 43
1, 3081, Note_off_c, 0, 67, 57
1, 3102, Note_on_c, 0, 69, 34
1, 3123, Note_on_c, 0, 70, 45
1, 3150, Note_off_c, 0, 69, 46
1, 3171, Note_on_c, 0, 68, 48
1, 3198, Note_off_c, 0, 70, 34
1, 3212, Note_off_c, 0, 68, 60
1, 3242, Note_on_c, 0, 66, 26
1, 3281, Note_off_c, 0, 66, 50
1, 3291, Note_on_c, 0, 65, 39
1, 3337, Note_off_c, 0, 65, 46
1, 3346, Note_on_c, 0, 67, 42
1, 3347, Note_on_c, 0, 70, 40
1, 3378, Note_off_c, 0, 67, 52
1, 3400, Note_on_c, 0, 68, 38
1, 3400, Note_off_c, 0, 70, 40
1, 3410, Note_on_c, 0, 69, 22
1, 3441, Note_off_c, 0, 68, 49
1, 3469, Note_off_c, 0, 69, 46
1, 3594, Note_on_c, 0, 86, 67
1, 3598, Note_on_c, 0, 65, 46
1, 3605, Note_on_c, 0, 74, 43
1, 3611, Note_off_c, 0, 86, 64
1, 3629, Note_off_c, 0, 74, 60
1, 3678, Note_off_c, 0, 65, 59
1, 3695, Note_on_c, 0, 67, 35
1, 3729, Note_off_c, 0, 67, 51
1, 3774, Poly_aftertouch_c, 0, 69, 127
1, 3854, Poly_aftertouch_c, 0, 69, 0
1, 3892, Note_on_c, 0, 65, 41
1, 3937, Note_off_c, 0, 65, 58
1, 3949, Note_on_c, 0, 67, 50
1, 3950, Poly_aftertouch_c, 0, 66, 0
1, 3982, Note_off_c, 0, 67, 56
1, 3986, Note_on_c, 0, 69, 37
1, 4011, Note_on_c, 0, 70, 49
1, 4025, Note_off_c, 0, 69, 48
1, 4065, Note_off_c, 0, 70, 47
1, 4070, Note_on_c, 0, 68, 48
1, 4109, Note_off_c, 0, 68, 49
1, 4125, Note_on_c, 0, 66, 33
1, 4160, Note_off_c, 0, 66, 48
1, 4190, Note_on_c, 0, 65, 37
1, 4253, Note_on_c, 0, 67, 37
1, 4259, Note_off_c, 0, 65, 41
1, 4283, Note_off_c, 0, 67, 55
1, 4296, Note_on_c, 0, 69, 28
1, 4315, Note_on_c, 0, 70, 37
1, 4331, Note_off_c, 0, 69, 54
1, 4352, Note_off_c, 0, 70, 49
1, 4361, Note_on_c, 0, 68, 53
1, 4395, Note_off_c, 0, 68, 55
1, 4405, Note_on_c, 0, 66, 42
1, 4429, Note_off_c, 0, 66, 56
1, 4492, Note_on_c, 0, 65, 40
1, 4528, Note_off_c, 0, 65, 52
1, 4531, Note_on_c, 0, 67, 48
1, 4555, Note_off_c, 0, 67, 59
1, 4570, Note_on_c, 0, 69, 40
1, 4582, Note_on_c, 0, 70, 46
1, 4628, Note_off_c, 0, 69, 44
1, 4639, Note_off_c, 0, 70, 59
1, 4644, Note_on_c, 0, 68, 45
1, 4667, Note_on_c, 0, 66, 58
1, 4674, Note_off_c, 0, 68, 52
1, 4686, Note_off_c, 0, 66, 62
1, 4811, Note_on_c, 0, 65, 50
1, 4814, Note_on_c, 0, 92, 73
1, 4818, Note_on_c, 0, 80, 70
1, 4830, Note_off_c, 0, 92, 69
1, 4834, Note_off_c, 0, 80, 69
1, 4896, Note_off_c, 0, 65, 60
1, 4900, Note_on_c, 0, 67, 49
1, 4940, Note_off_c, 0, 67, 57
1, 4976, Note_on_c, 0, 69, 31
1, 5010, Note_off_c, 0, 69, 54
1, 5029, Note_on_c, 0, 70, 57
1, 5082, Note_on_c, 0, 68, 46
1, 5089, Note_off_c, 0, 70, 49
1, 5112, Note_off_c, 0, 68, 52
1, 5115, Note_on_c, 0, 66, 48
1, 5138, Note_on_c, 0, 65, 43
1, 5140, Note_off_c, 0, 66, 56
1, 5187, Note_off_c, 0, 65, 51
1, 5198, Note_on_c, 0, 67, 47
1, 5222, Note_off_c, 0, 67, 61
1, 5238, Note_on_c, 0, 69, 35
1, 5262, Note_on_c, 0, 70, 52
1, 5270, Note_off_c, 0, 69, 54
1, 5321, Note_on_c, 0, 68, 50
1, 5336, Note_off_c, 0, 70, 49
1, 5362, Note_off_c, 0, 68, 54
1, 5370, Note_on_c, 0, 66, 43
1, 5395, Note_off_c, 0, 66, 56
1, 5435, Note_on_c, 0, 65, 42
1, 5441, Control_c, 0, 64, 93
1, 5456, Control_c, 0, 64, 75
1, 5471, Control_c, 0, 64, 69
1, 5481, Note_off_c, 0, 65, 46
1, 5482, Note_on_c, 0, 67, 51
1, 5500, Control_c, 0, 64, 70
1, 5514, Note_off_c, 0, 67, 57
1, 5515, Control_c, 0, 64, 79
1, 5529, Note_on_c, 0, 70, 55
1, 5530, Control_c, 0, 64, 98
1, 5543, Note_on_c, 0, 69, 22
1, 5545, Control_c, 0, 64, 127
1, 5583, Note_on_c, 0, 68, 50
1, 5583, Note_off_c, 0, 69, 52
1, 5587, Note_off_c, 0, 70, 51
1, 5613, Note_off_c, 0, 68, 56
1, 5625, Note_on_c, 0, 66, 42
1, 5655, Note_off_c, 0, 66, 52
1, 5707, Note_on_c, 0, 65, 49
1, 5746, Note_off_c, 0, 65, 61
1, 5767, Note_on_c, 0, 67, 34
1, 5791, Note_on_c, 0, 70, 53
1, 5800, Note_off_c, 0, 67, 52
1, 5813, Note_on_c, 0, 69, 27
1, 5833, Note_off_c, 0, 70, 61
1, 5858, Note_off_c, 0, 69, 48
1, 5865, Note_on_c, 0, 68, 8
1, 5866, Note_on_c, 0, 66, 65
1, 5886, Note_off_c, 0, 66, 61
1, 5913, Note_off_c, 0, 68, 49
1, 6027, Note_on_c, 0, 98, 84
1, 6033, Note_on_c, 0, 65, 51
1, 6035, Note_on_c, 0, 86, 70
1, 6045, Note_off_c, 0, 98, 73
1, 6051, Note_off_c, 0, 86, 68
1, 6128, Note_off_c, 0, 65, 56
1, 6131, Note_on_c, 0, 67, 46
1, 6164, Note_off_c, 0, 67, 55
1, 6205, Note_on_c, 0, 69, 18
1, 6237, Note_on_c, 0, 70, 57
1, 6245, Note_off_c, 0, 69, 54
1, 6289, Note_on_c, 0, 68, 58
1, 6293, Note_off_c, 0, 70, 60
1, 6309, Note_off_c, 0, 68, 62
1, 6325, Note_on_c, 0, 66, 43
1, 6355, Note_off_c, 0, 66, 53
1, 6364, Note_on_c, 0, 65, 26
1, 6395, Note_off_c, 0, 65, 55
1, 6396, Note_on_c, 0, 67, 56
1, 6434, Note_off_c, 0, 67, 65
1, 6453, Note_on_c, 0, 69, 37
1, 6482, Note_off_c, 0, 69, 54
1, 6486, Note_on_c, 0, 70, 52
1, 6523, Note_on_c, 0, 68, 54
1, 6524, Note_off_c, 0, 70, 49
1, 6559, Note_off_c, 0, 68, 62
1, 6566, Note_on_c, 0, 66, 49
1, 6587, Note_off_c, 0, 66, 60
1, 6644, Note_on_c, 0, 65, 40
1, 6696, Note_off_c, 0, 65, 46
1, 6699, Note_on_c, 0, 67, 42
1, 6723, Note_off_c, 0, 67, 59
1, 6730, Note_on_c, 0, 69, 37
1, 6757, Note_on_c, 0, 70, 37
1, 6772, Note_off_c, 0, 69, 48
1, 6786, Note_on_c, 0, 68, 52
1, 6791, Note_off_c, 0, 70, 53
1, 6819, Note_off_c, 0, 68, 63
1, 6885, Poly_aftertouch_c, 0, 66, 127
1, 6913, Poly_aftertouch_c, 0, 66, 0
1, 6929, Note_on_c, 0, 65, 43
1, 6971, Note_off_c, 0, 65, 48
1, 6977, Note_on_c, 0, 70, 42
1, 6986, Note_on_c, 0, 67, 38
1, 7016, Note_off_c, 0, 70, 55
1, 7019, Note_off_c, 0, 67, 53
1, 7031, Note_on_c, 0, 69, 32
1, 7037, Note_on_c, 0, 68, 50
1, 7061, Note_off_c, 0, 68, 57
1, 7070, Note_off_c, 0, 69, 49
1, 7073, Note_on_c, 0, 66, 52
1, 7099, Note_off_c, 0, 66, 60
1, 7222, Note_on_c, 0, 80, 81
1, 7222, Note_on_c, 0, 92, 74
1, 7241, Note_on_c, 0, 65, 49
1, 7241, Note_off_c, 0, 80, 71
1, 7244, Note_off_c, 0, 92, 71
1, 7310, Note_off_c, 0, 65, 59
1, 7323, Note_on_c, 0, 67, 43
1, 7352, Note_off_c, 0, 67, 57
1, 7376, Note_on_c, 0, 69, 32
1, 7409, Note_off_c, 0, 69, 55
1, 7416, Note_on_c, 0, 70, 54
1, 7460, Note_on_c, 0, 68, 56
1, 7461, Note_off_c, 0, 70, 60
1, 7486, Note_off_c, 0, 68, 59
1, 7511, Note_on_c, 0, 66, 26
1, 7547, Note_on_c, 0, 65, 28
1, 7550, Note_off_c, 0, 66, 50
1, 7578, Note_on_c, 0, 67, 52
1, 7584, Note_off_c, 0, 65, 52
1, 7607, Note_off_c, 0, 67, 58
1, 7617, Note_on_c, 0, 69, 43
1, 7650, Note_off_c, 0, 69, 52
1, 7654, Note_on_c, 0, 70, 46
1, 7711, Note_off_c, 0, 70, 54
1, 7717, Note_on_c, 0, 68, 48
1, 7747, Note_off_c, 0, 68, 54
1, 7763, Note_on_c, 0, 66, 40
1, 7791, Note_off_c, 0, 66, 53
1, 7806, Control_c, 0, 64, 99
1, 7821, Control_c, 0, 64, 78
1, 7822, Note_on_c, 0, 65, 38
1, 7836, Control_c, 0, 64, 74
1, 7866, Control_c, 0, 64, 74
1, 7866, Note_off_c, 0, 65, 48
1, 7869, Note_on_c, 0, 67, 51
1, 7880, Control_c, 0, 64, 78
1, 7895, Control_c, 0, 64, 92
1, 7896, Note_off_c, 0, 67, 60
1, 7910, Control_c, 0, 64, 127
1, 7912, Note_on_c, 0, 69, 40
1, 7946, Note_on_c, 0, 70, 45
1, 7955, Note_off_c, 0, 69, 49
1, 7988, Note_off_c, 0, 70, 46
1, 7996, Note_on_c, 0, 68, 47
1, 8029, Note_off_c, 0, 68, 54
1, 8054, Note_on_c, 0, 66, 25
1, 8092, Note_off_c, 0, 66, 50
1, 8106, Note_on_c, 0, 65, 38
1, 8141, Note_off_c, 0, 65, 51
1, 8148, Note_on_c, 0, 67, 46
1, 8176, Note_off_c, 0, 67, 59
1, 8188, Note_on_c, 0, 69, 41
1, 8197, Note_on_c, 0, 70, 44
1, 8215, Note_off_c, 0, 69, 59
1, 8239, Note_on_c, 0, 68, 61
1, 8260, Note_off_c, 0, 70, 58
1, 8274, Note_on_c, 0, 66, 60
1, 8282, Note_off_c, 0, 68, 57
1, 8295, Note_off_c, 0, 66, 64
1, 8379, Note_on_c, 0, 62, 75
1, 8400, Note_on_c, 0, 60, 48
1, 8401, Note_on_c, 0, 65, 49
1, 8403, Note_off_c, 0, 62, 68
1, 8424, Note_off_c, 0, 60, 61
1, 8492, Note_off_c, 0, 65, 61
1, 8510, Note_on_c, 0, 67, 43
1, 8546, Note_off_c, 0, 67, 57
1, 8582, Note_on_c, 0, 69, 32
1, 8596, Note_on_c, 0, 70, 55
1, 8616, Note_off_c, 0, 69, 55
1, 8644, Note_on_c, 0, 65, 45
1, 8657, Note_on_c, 0, 68, 41
1, 8676, Note_off_c, 0, 70, 47
1, 8692, Note_off_c, 0, 68, 55
1, 8702, Note_off_c, 0, 65, 59
1, 8769, Note_on_c, 0, 69, 36
1, 8799, Note_off_c, 0, 69, 56
1, 8830, Note_on_c, 0, 70, 39
1, 8902, Note_off_c, 0, 70, 37
1, 8906, Note_on_c, 0, 68, 42
1, 8947, Note_off_c, 0, 68, 45
1, 8956, Note_on_c, 0, 66, 41
1, 9026, Note_on_c, 0, 32, 57
1, 9048, Note_off_c, 0, 66, 35
1, 9055, Note_off_c, 0, 32, 54
1, 9151, Note_on_c, 0, 70, 52
1, 9206, Note_off_c, 0, 70, 51
1, 9207, Note_on_c, 0, 68, 55
1, 9233, Note_on_c, 0, 66, 63
1, 9240, Note_off_c, 0, 68, 55
1, 9255, Note_off_c, 0, 66, 64
1, 9318, Note_on_c, 0, 65, 49
1, 9333, Control_c, 0, 64, 83
1, 9347, Control_c, 0, 64, 79
1, 9352, Note_off_c, 0, 65, 66
1, 9362, Control_c, 0, 64, 79
1, 9377, Control_c, 0, 64, 86
1, 9380, Note_on_c, 0, 67, 44
1, 9393, Control_c, 0, 64, 105
1, 9406, Note_on_c, 0, 70, 58
1, 9408, Control_c, 0, 64, 127
1, 9410, Note_off_c, 0, 67, 54
1, 9410, Note_on_c, 0, 69, 46
1, 9444, Note_off_c, 0, 69, 57
1, 9468, Note_on_c, 0, 68, 46
1, 9472, Note_off_c, 0, 70, 59
1, 9491, Note_on_c, 0, 66, 59
1, 9494, Note_off_c, 0, 68, 55
1, 9511, Note_off_c, 0, 66, 63
1, 9642, Note_on_c, 0, 98, 81
1, 9646, Note_on_c, 0, 65, 57
1, 9658, Note_on_c, 0, 86, 59
1, 9661, Note_off_c, 0, 98, 73
1, 9664, Note_on_c, 0, 96, 44
1, 9679, Note_off_c, 0, 86, 60
1, 9695, Note_off_c, 0, 96, 36
1, 9728, Note_off_c, 0, 65, 61
1, 9757, Note_on_c, 0, 67, 38
1, 9786, Note_off_c, 0, 67, 53
1, 9789, Note_on_c, 0, 69, 44
1, 9815, Note_off_c, 0, 69, 55
1, 9853, Note_on_c, 0, 70, 56
1, 9891, Note_on_c, 0, 68, 59
1, 9908, Note_off_c, 0, 70, 50
1, 9922, Note_off_c, 0, 68, 64
1, 9942, Note_on_c, 0, 66, 37
1, 9973, Note_on_c, 0, 65, 43
1, 9976, Note_off_c, 0, 66, 51
1, 10015, Note_off_c, 0, 65, 61
1, 10033, Note_on_c, 0, 67, 44
1, 10062, Note_off_c, 0, 67, 55
1, 10077, Note_on_c, 0, 69, 27
1, 10097, Note_on_c, 0, 70, 49
1, 10114, Note_off_c, 0, 69, 48
1, 10152, Note_on_c, 0, 68, 50
1, 10157, Note_off_c, 0, 70, 52
1, 10200, Note_off_c, 0, 68, 59
1, 10218, Note_on_c, 0, 66, 34
1, 10224, Control_c, 0, 64, 102
1, 10239, Control_c, 0, 64, 74
1, 10248, Note_off_c, 0, 66, 52
1, 10254, Control_c, 0, 64, 65
1, 10254, Note_on_c, 0, 65, 45
1, 10269, Control_c, 0, 64, 62
1, 10293, Note_off_c, 0, 65, 52
1, 10298, Control_c, 0, 64, 64
1, 10303, Note_on_c, 0, 67, 54
1, 10313, Control_c, 0, 64, 67
1, 10327, Control_c, 0, 64, 72
1, 10331, Note_off_c, 0, 67, 62
1, 10342, Control_c, 0, 64, 80
1, 10346, Note_on_c, 0, 69, 45
1, 10357, Control_c, 0, 64, 88
1, 10372, Control_c, 0, 64, 95
1, 10379, Note_on_c, 0, 70, 47
1, 10379, Note_off_c, 0, 69, 53
1, 10387, Control_c, 0, 64, 102
1, 10401, Control_c, 0, 64, 108
1, 10416, Control_c, 0, 64, 117
1, 10419, Note_on_c, 0, 68, 48
1, 10421, Note_off_c, 0, 70, 45
1, 10431, Control_c, 0, 64, 127
1, 10456, Note_off_c, 0, 68, 50
1, 10460, Note_on_c, 0, 66, 45
1, 10489, Note_off_c, 0, 66, 55
1, 10526, Note_on_c, 0, 65, 45
1, 10563, Note_off_c, 0, 65, 50
1, 10576, Note_on_c, 0, 67, 45
1, 10600, Note_off_c, 0, 67, 60
1, 10620, Note_on_c, 0, 69, 34
1, 10652, Note_off_c, 0, 69, 53
1, 10657, Note_on_c, 0, 70, 37
1, 10696, Note_on_c, 0, 68, 59
1, 10722, Note_off_c, 0, 70, 46
1, 10736, Note_off_c, 0, 68, 56
1, 10749, Note_on_c, 0, 66, 26
1, 10789, Note_off_c, 0, 66, 50
1, 10801, Control_c, 0, 64, 83
1, 10816, Control_c, 0, 64, 66
1, 10829, Note_on_c, 0, 62, 72
1, 10831, Control_c, 0, 64, 56
1, 10836, Note_on_c, 0, 60, 72
1, 10843, Note_on_c, 0, 65, 54
1, 10846, Control_c, 0, 64, 51
1, 10853, Note_off_c, 0, 60, 67
1, 10859, Note_off_c, 0, 62, 66
1, 10861, Control_c, 0, 64, 55
1, 10875, Control_c, 0, 64, 62
1, 10890, Control_c, 0, 64, 72
1, 10905, Control_c, 0, 64, 90
1, 10927, Control_c, 0, 64, 115
1, 10936, Note_off_c, 0, 65, 59
1, 10942, Control_c, 0, 64, 127
1, 10947, Note_on_c, 0, 67, 54
1, 10993, Note_off_c, 0, 67, 57
1, 11029, Note_on_c, 0, 69, 35
1, 11045, Note_on_c, 0, 70, 55
1, 11073, Note_off_c, 0, 69, 47
1, 11094, Note_on_c, 0, 68, 49
1, 11095, Note_off_c, 0, 70, 55
1, 11115, Note_off_c, 0, 68, 59
1, 11139, Note_on_c, 0, 66, 28
1, 11147, Note_on_c, 0, 65, 43
1, 11174, Note_off_c, 0, 66, 52
1, 11183, Note_off_c, 0, 65, 53
1, 11219, Note_on_c, 0, 67, 44
1, 11246, Note_off_c, 0, 67, 57
1, 11306, Note_on_c, 0, 70, 41
1, 11318, Poly_aftertouch_c, 0, 69, 0
1, 11360, Note_off_c, 0, 70, 54
1, 11363, Note_on_c, 0, 68, 51
1, 11408, Note_off_c, 0, 68, 44
1, 11436, Note_on_c, 0, 66, 20
1, 11468, Note_on_c, 0, 32, 68
1, 11476, Note_off_c, 0, 66, 50
1, 11501, Note_off_c, 0, 32, 63
1, 11625, Note_on_c, 0, 70, 49
1, 11676, Note_off_c, 0, 70, 47
1, 11681, Note_on_c, 0, 68, 50
1, 11706, Note_off_c, 0, 68, 58
1, 11724, Note_on_c, 0, 66, 29
1, 11758, Note_off_c, 0, 66, 51
1, 11787, Note_on_c, 0, 65, 48
1, 11813, Note_off_c, 0, 65, 64
1, 11839, Note_on_c, 0, 67, 50
1, 11865, Note_off_c, 0, 67, 58
1, 11876, Note_on_c, 0, 69, 49
1, 11895, Note_on_c, 0, 70, 48
1, 11900, Note_off_c, 0, 69, 59
1, 11927, Note_on_c, 0, 68, 52
1, 11952, Note_off_c, 0, 68, 63
1, 11963, Note_off_c, 0, 70, 45
1, 11968, Note_on_c, 0, 66, 44
1, 11996, Note_off_c, 0, 66, 58
1, 12117, Note_on_c, 0, 98, 78
1, 12123, Note_on_c, 0, 86, 73
1, 12136, Note_on_c, 0, 65, 48
1, 12136, Note_off_c, 0, 98, 71
1, 12138, Note_on_c, 0, 96, 43
1, 12139, Note_off_c, 0, 86, 67
1, 12167, Note_off_c, 0, 96, 36
1, 12218, Note_off_c, 0, 65, 63
1, 12239, Note_on_c, 0, 67, 48
1, 12264, Note_off_c, 0, 67, 63
1, 12288, Note_on_c, 0, 69, 36
1, 12319, Note_off_c, 0, 69, 55
1, 12329, Note_on_c, 0, 70, 59
1, 12374, Note_on_c, 0, 68, 59
1, 12394, Note_off_c, 0, 70, 51
1, 12400, Note_off_c, 0, 68, 62
1, 12430, Note_on_c, 0, 66, 34
1, 12465, Note_off_c, 0, 66, 51
1, 12469, Note_on_c, 0, 65, 41
1, 12501, Note_off_c, 0, 65, 57
1, 12520, Note_on_c, 0, 67, 37
1, 12531, Note_on_c, 0, 69, 48
1, 12555, Note_off_c, 0, 67, 53
1, 12566, Note_off_c, 0, 69, 51
1, 12573, Note_on_c, 0, 70, 45
1, 12627, Note_on_c, 0, 68, 46
1, 12635, Note_off_c, 0, 70, 39
1, 12660, Note_off_c, 0, 68, 51
1, 12676, Note_on_c, 0, 66, 38
1, 12708, Note_off_c, 0, 66, 50
1, 12721, Control_c, 0, 64, 119
1, 12736, Control_c, 0, 64, 83
1, 12745, Note_on_c, 0, 65, 41
1, 12751, Control_c, 0, 64, 69
1, 12766, Control_c, 0, 64, 64
1, 12781, Control_c, 0, 64, 63
1, 12785, Note_off_c, 0, 65, 61
1, 12794, Note_on_c, 0, 67, 55
1, 12795, Control_c, 0, 64, 64
1, 12810, Control_c, 0, 64, 66
1, 12821, Note_off_c, 0, 67, 63
1, 12825, Control_c, 0, 64, 71
1, 12840, Control_c, 0, 64, 78
1, 12847, Note_on_c, 0, 69, 36
1, 12855, Control_c, 0, 64, 85
1, 12857, Note_on_c, 0, 70, 38
1, 12869, Control_c, 0, 64, 91
1, 12880, Note_off_c, 0, 69, 54
1, 12884, Control_c, 0, 64, 95
1, 12899, Control_c, 0, 64, 99
1, 12901, Note_on_c, 0, 68, 40
1, 12902, Note_off_c, 0, 70, 45
1, 12913, Control_c, 0, 64, 105
1, 12928, Control_c, 0, 64, 114
1, 12933, Note_off_c, 0, 68, 50
1, 12943, Control_c, 0, 64, 127
1, 12945, Note_on_c, 0, 66, 35
1, 12974, Note_off_c, 0, 66, 54
1, 13024, Note_on_c, 0, 65, 38
1, 13061, Note_off_c, 0, 65, 53
1, 13074, Note_on_c, 0, 67, 42
1, 13106, Note_off_c, 0, 67, 53
1, 13113, Note_on_c, 0, 69, 34
1, 13132, Note_on_c, 0, 70, 47
1, 13153, Note_off_c, 0, 69, 50
1, 13189, Note_on_c, 0, 68, 49
1, 13210, Note_off_c, 0, 70, 44
1, 13217, Note_off_c, 0, 68, 55
1, 13292, Control_c, 0, 64, 101
1, 13302, Note_on_c, 0, 65, 49
1, 13307, Control_c, 0, 64, 78
1, 13321, Control_c, 0, 64, 66
1, 13336, Control_c, 0, 64, 63
1, 13342, Note_off_c, 0, 65, 61
1, 13347, Note_on_c, 0, 67, 54
1, 13351, Control_c, 0, 64, 64
1, 13366, Control_c, 0, 64, 68
1, 13381, Control_c, 0, 64, 78
1, 13385, Note_off_c, 0, 67, 61
1, 13397, Control_c, 0, 64, 100
1, 13401, Note_on_c, 0, 70, 43
1, 13412, Note_on_c, 0, 69, 34
1, 13412, Control_c, 0, 64, 127
1, 13437, Note_on_c, 0, 68, 46
1, 13443, Note_off_c, 0, 70, 48
1, 13457, Note_off_c, 0, 69, 46
1, 13467, Note_off_c, 0, 68, 53
1, 13469, Note_on_c, 0, 66, 56
1, 13490, Note_off_c, 0, 66, 60
1, 13595, Note_on_c, 0, 86, 77
1, 13606, Note_on_c, 0, 65, 47
1, 13606, Note_on_c, 0, 74, 55
1, 13616, Note_off_c, 0, 86, 68
1, 13625, Note_off_c, 0, 74, 65
1, 13677, Note_off_c, 0, 65, 61
1, 13691, Note_on_c, 0, 67, 47
1, 13720, Note_off_c, 0, 67, 59
1, 13745, Note_on_c, 0, 69, 29
1, 13781, Note_off_c, 0, 69, 54
1, 13787, Note_on_c, 0, 70, 53
1, 13828, Note_off_c, 0, 70, 46
1, 13836, Note_on_c, 0, 68, 40
1, 13855, Control_c, 0, 64, 104
1, 13866, Note_off_c, 0, 68, 52
1, 13869, Control_c, 0, 64, 78
1, 13873, Note_on_c, 0, 66, 33
1, 13884, Control_c, 0, 64, 65
1, 13896, Note_on_c, 0, 65, 46
1, 13899, Control_c, 0, 64, 58
1, 13907, Note_off_c, 0, 66, 52
1, 13921, Control_c, 0, 64, 54
1, 13936, Control_c, 0, 64, 55
1, 13947, Note_on_c, 0, 67, 56
1, 13950, Control_c, 0, 64, 60
1, 13954, Note_off_c, 0, 65, 45
1, 13965, Control_c, 0, 64, 65
1, 13980, Note_off_c, 0, 67, 56
1, 13980, Control_c, 0, 64, 74
1, 13995, Control_c, 0, 64, 85
1, 14004, Note_on_c, 0, 70, 56
1, 14005, Note_on_c, 0, 69, 31
1, 14010, Control_c, 0, 64, 90
1, 14024, Control_c, 0, 64, 92
1, 14039, Control_c, 0, 64, 93
1, 14046, Note_on_c, 0, 68, 47
1, 14049, Note_off_c, 0, 69, 48
1, 14054, Control_c, 0, 64, 94
1, 14057, Note_off_c, 0, 70, 55
1, 14069, Control_c, 0, 64, 96
1, 14076, Note_off_c, 0, 68, 49
1, 14084, Control_c, 0, 64, 98
1, 14099, Control_c, 0, 64, 100
1, 14164, Poly_aftertouch_c, 0, 66, 0
1, 14203, Control_c, 0, 64, 100
1, 14222, Note_on_c, 0, 80, 79
1, 14222, Note_on_c, 0, 92, 73
1, 14237, Note_off_c, 0, 92, 69
1, 14243, Note_off_c, 0, 80, 68
1, 14255, Note_on_c, 0, 65, 46
1, 14292, Control_c, 0, 64, 101
1, 14315, Note_off_c, 0, 65, 62
1, 14329, Note_on_c, 0, 67, 43
1, 14351, Note_off_c, 0, 67, 62
1, 14380, Note_on_c, 0, 69, 33
1, 14409, Note_on_c, 0, 70, 59
1, 14415, Note_off_c, 0, 69, 54
1, 14440, Control_c, 0, 64, 100
1, 14451, Note_on_c, 0, 68, 55
1, 14465, Note_off_c, 0, 70, 55
1, 14470, Control_c, 0, 64, 99
1, 14475, Note_off_c, 0, 68, 60
1, 14485, Control_c, 0, 64, 97
1, 14499, Control_c, 0, 64, 93
1, 14514, Control_c, 0, 64, 81
1, 14529, Control_c, 0, 64, 67
1, 14538, Note_on_c, 0, 65, 40
1, 14544, Control_c, 0, 64, 57
1, 14558, Control_c, 0, 64, 47
1, 14573, Control_c, 0, 64, 45
1, 14574, Note_off_c, 0, 65, 51
1, 14588, Control_c, 0, 64, 51
1, 14597, Note_on_c, 0, 67, 46
1, 14603, Control_c, 0, 64, 58
1, 14618, Control_c, 0, 64, 64
1, 14627, Note_off_c, 0, 67, 52
1, 14632, Note_on_c, 0, 70, 57
1, 14633, Control_c, 0, 64, 71
1, 14635, Note_on_c, 0, 69, 28
1, 14647, Control_c, 0, 64, 74
1, 14680, Note_off_c, 0, 69, 51
1, 14681, Note_on_c, 0, 68, 54
1, 14685, Control_c, 0, 64, 75
1, 14699, Control_c, 0, 64, 78
1, 14700, Note_off_c, 0, 70, 55
1, 14711, Note_off_c, 0, 68, 50
1, 14714, Control_c, 0, 64, 81
1, 14729, Control_c, 0, 64, 84
1, 14737, Note_on_c, 0, 66, 12
1, 14738, Note_off_c, 0, 66, 127
1, 14744, Control_c, 0, 64, 84
1, 14783, Poly_aftertouch_c, 0, 66, 0
1, 14871, Note_on_c, 0, 98, 72
1, 14872, Note_on_c, 0, 86, 77
1, 14886, Note_off_c, 0, 98, 69
1, 14893, Note_off_c, 0, 86, 69
1, 14897, Note_on_c, 0, 65, 43
1, 14954, Note_off_c, 0, 65, 61
1, 14965, Note_on_c, 0, 67, 49
1, 14990, Note_off_c, 0, 67, 63
1, 15010, Note_on_c, 0, 69, 42
1, 15038, Note_off_c, 0, 69, 55
1, 15073, Note_on_c, 0, 70, 63
1, 15121, Note_on_c, 0, 68, 52
1, 15126, Note_off_c, 0, 70, 52
1, 15147, Note_off_c, 0, 68, 58
1, 15159, Note_on_c, 0, 66, 49
1, 15169, Note_on_c, 0, 65, 47
1, 15184, Note_off_c, 0, 66, 57
1, 15189, Control_c, 0, 64, 85
1, 15204, Control_c, 0, 64, 85
1, 15214, Note_off_c, 0, 65, 60
1, 15219, Control_c, 0, 64, 86
1, 15232, Note_on_c, 0, 67, 58
1, 15234, Control_c, 0, 64, 87
1, 15249, Control_c, 0, 64, 88
1, 15254, Note_off_c, 0, 67, 67
1, 15263, Control_c, 0, 64, 89
1, 15278, Control_c, 0, 64, 90
1, 15282, Note_on_c, 0, 69, 35
1, 15293, Control_c, 0, 64, 92
1, 15303, Note_on_c, 0, 70, 52
1, 15307, Control_c, 0, 64, 95
1, 15322, Control_c, 0, 64, 101
1, 15329, Note_off_c, 0, 69, 46
1, 15330, Note_off_c, 0, 70, 59
1, 15337, Control_c, 0, 64, 109
1, 15349, Note_on_c, 0, 68, 31
1, 15352, Control_c, 0, 64, 127
1, 15382, Note_off_c, 0, 68, 52
1, 15491, Note_on_c, 0, 92, 73
1, 15497, Note_on_c, 0, 80, 71
1, 15501, Note_on_c, 0, 65, 46
1, 15508, Note_off_c, 0, 92, 70
1, 15511, Note_off_c, 0, 80, 68
1, 15577, Note_off_c, 0, 65, 62
1, 15585, Note_on_c, 0, 67, 50
1, 15607, Note_off_c, 0, 67, 64
1, 15640, Note_on_c, 0, 69, 29
1, 15671, Note_on_c, 0, 70, 59
1, 15680, Note_off_c, 0, 69, 54
1, 15715, Note_on_c, 0, 68, 56
1, 15741, Note_off_c, 0, 70, 57
1, 15747, Note_off_c, 0, 68, 64
1, 15759, Control_c, 0, 64, 92
1, 15768, Note_on_c, 0, 66, 34
1, 15774, Control_c, 0, 64, 74
1, 15790, Control_c, 0, 64, 65
1, 15801, Note_off_c, 0, 66, 53
1, 15805, Control_c, 0, 64, 62
1, 15807, Note_on_c, 0, 65, 48
1, 15819, Control_c, 0, 64, 61
1, 15834, Control_c, 0, 64, 62
1, 15849, Control_c, 0, 64, 63
1, 15851, Note_off_c, 0, 65, 51
1, 15857, Note_on_c, 0, 67, 54
1, 15864, Control_c, 0, 64, 64
1, 15879, Control_c, 0, 64, 67
1, 15884, Note_off_c, 0, 67, 60
1, 15894, Control_c, 0, 64, 72
1, 15900, Note_on_c, 0, 69, 38
1, 15900, Note_on_c, 0, 70, 53
1, 15908, Control_c, 0, 64, 78
1, 15923, Control_c, 0, 64, 83
1, 15932, Note_on_c, 0, 68, 52
1, 15938, Note_off_c, 0, 70, 50
1, 15938, Control_c, 0, 64, 86
1, 15943, Note_off_c, 0, 69, 46
1, 15953, Control_c, 0, 64, 88
1, 15955, Note_off_c, 0, 68, 61
1, 15968, Control_c, 0, 64, 88
1, 16060, Poly_aftertouch_c, 0, 66, 0
1, 16090, Note_on_c, 0, 86, 74
1, 16099, Note_on_c, 0, 74, 58
1, 16104, Note_on_c, 0, 65, 42
1, 16106, Note_off_c, 0, 86, 65
1, 16118, Note_off_c, 0, 74, 66
1, 16170, Note_off_c, 0, 65, 61
1, 16183, Control_c, 0, 64, 89
1, 16195, Note_on_c, 0, 67, 49
1, 16198, Control_c, 0, 64, 90
1, 16212, Control_c, 0, 64, 92
1, 16221, Note_off_c, 0, 67, 57
1, 16227, Control_c, 0, 64, 95
1, 16239, Note_on_c, 0, 69, 35
1, 16242, Control_c, 0, 64, 99
1, 16257, Control_c, 0, 64, 101
1, 16271, Note_on_c, 0, 70, 65
1, 16271, Control_c, 0, 64, 103
1, 16272, Note_off_c, 0, 69, 52
1, 16286, Control_c, 0, 64, 105
1, 16301, Control_c, 0, 64, 107
1, 16316, Control_c, 0, 64, 111
1, 16317, Note_on_c, 0, 68, 57
1, 16331, Control_c, 0, 64, 117
1, 16343, Note_off_c, 0, 70, 59
1, 16345, Control_c, 0, 64, 127
1, 16352, Note_off_c, 0, 68, 62
1, 16369, Note_on_c, 0, 66, 40
1, 16393, Note_on_c, 0, 65, 50
1, 16400, Note_off_c, 0, 66, 54
1, 16432, Note_off_c, 0, 65, 63
1, 16448, Note_on_c, 0, 67, 53
1, 16467, Note_off_c, 0, 67, 66
1, 16487, Note_on_c, 0, 69, 43
1, 16499, Note_on_c, 0, 70, 60
1, 16521, Note_off_c, 0, 69, 50
1, 16540, Note_on_c, 0, 68, 56
1, 16561, Note_off_c, 0, 70, 60
1, 16575, Note_off_c, 0, 68, 50
1, 16695, Note_on_c, 0, 80, 80
1, 16698, Note_on_c, 0, 92, 64
1, 16699, Note_on_c, 0, 65, 46
1, 16713, Note_off_c, 0, 80, 72
1, 16716, Note_off_c, 0, 92, 67
1, 16777, Note_on_c, 0, 67, 57
1, 16778, Note_off_c, 0, 65, 61
1, 16819, Note_off_c, 0, 67, 62
1, 16848, Note_on_c, 0, 69, 37
1, 16877, Note_on_c, 0, 70, 64
1, 16880, Note_off_c, 0, 69, 52
1, 16922, Note_on_c, 0, 68, 51
1, 16931, Note_off_c, 0, 70, 57
1, 16949, Note_off_c, 0, 68, 58
1, 17002, Note_on_c, 0, 65, 53
1, 17041, Note_off_c, 0, 65, 63
1, 17045, Note_on_c, 0, 67, 55
1, 17072, Note_off_c, 0, 67, 67
1, 17091, Note_on_c, 0, 69, 45
1, 17112, Note_on_c, 0, 70, 57
1, 17134, Note_off_c, 0, 69, 47
1, 17140, Note_off_c, 0, 70, 55
1, 17157, Note_on_c, 0, 68, 27
1, 17199, Note_off_c, 0, 68, 50
1, 17297, Note_on_c, 0, 98, 82
1, 17302, Note_on_c, 0, 65, 50
1, 17310, Note_off_c, 0, 98, 71
1, 17318, Note_on_c, 0, 86, 54
1, 17342, Note_off_c, 0, 86, 59
1, 17385, Note_off_c, 0, 65, 60
1, 17398, Note_on_c, 0, 67, 52
1, 17432, Note_off_c, 0, 67, 64
1, 17442, Note_on_c, 0, 69, 52
1, 17468, Note_off_c, 0, 69, 54
1, 17493, Note_on_c, 0, 70, 67
1, 17553, Note_on_c, 0, 68, 43
1, 17557, Note_off_c, 0, 70, 60
1, 17580, Note_on_c, 0, 66, 52
1, 17580, Note_off_c, 0, 68, 54
1, 17604, Note_off_c, 0, 66, 58
1, 17613, Note_on_c, 0, 65, 43
1, 17667, Note_off_c, 0, 65, 63
1, 17682, Note_on_c, 0, 67, 52
1, 17705, Note_off_c, 0, 67, 63
1, 17721, Note_on_c, 0, 70, 57
1, 17742, Note_on_c, 0, 69, 14
1, 17754, Note_on_c, 0, 68, 51
1, 17757, Note_off_c, 0, 70, 56
1, 17777, Note_off_c, 0, 68, 64
1, 17785, Note_off_c, 0, 69, 54
1, 17886, Poly_aftertouch_c, 0, 66, 0
1, 17912, Note_on_c, 0, 65, 44
1, 17915, Note_on_c, 0, 92, 84
1, 17918, Note_on_c, 0, 80, 82
1, 17933, Note_off_c, 0, 92, 69
1, 17937, Note_off_c, 0, 80, 72
1, 17968, Note_off_c, 0, 65, 59
1, 17989, Note_on_c, 0, 67, 48
1, 18017, Note_off_c, 0, 67, 60
1, 18053, Note_on_c, 0, 69, 21
1, 18089, Note_on_c, 0, 70, 54
1, 18096, Note_off_c, 0, 69, 54
1, 18139, Note_on_c, 0, 68, 54
1, 18145, Note_off_c, 0, 70, 56
1, 18172, Note_off_c, 0, 68, 63
1, 18194, Note_on_c, 0, 66, 38
1, 18225, Note_off_c, 0, 66, 54
1, 18229, Control_c, 0, 64, 72
1, 18230, Note_on_c, 0, 65, 50
1, 18244, Control_c, 0, 64, 63
1, 18258, Control_c, 0, 64, 62
1, 18266, Note_off_c, 0, 65, 64
1, 18273, Control_c, 0, 64, 64
1, 18278, Note_on_c, 0, 67, 57
1, 18288, Control_c, 0, 64, 70
1, 18302, Note_off_c, 0, 67, 66
1, 18303, Control_c, 0, 64, 89
1, 18318, Control_c, 0, 64, 127
1, 18328, Note_on_c, 0, 69, 45
1, 18341, Note_on_c, 0, 70, 59
1, 18352, Note_off_c, 0, 69, 59
1, 18389, Note_on_c, 0, 68, 59
1, 18418, Note_off_c, 0, 70, 58
1, 18429, Note_off_c, 0, 68, 64
1, 18439, Note_on_c, 0, 66, 48
1, 18468, Note_off_c, 0, 66, 55
1, 18478, Note_on_c, 0, 65, 57
1, 18508, Note_off_c, 0, 65, 68
1, 18520, Note_on_c, 0, 67, 60
1, 18548, Note_off_c, 0, 67, 66
1, 18567, Note_on_c, 0, 69, 57
1, 18579, Note_on_c, 0, 70, 57
1, 18588, Note_off_c, 0, 69, 64
1, 18629, Note_on_c, 0, 68, 66
1, 18645, Note_off_c, 0, 70, 61
1, 18658, Note_off_c, 0, 68, 63
1, 18676, Note_on_c, 0, 66, 42
1, 18681, Control_c, 0, 67, 119
1, 18696, Control_c, 0, 67, 89
1, 18704, Note_off_c, 0, 66, 59
1, 18710, Control_c, 0, 67, 54
1, 18725, Control_c, 0, 67, 24
1, 18740, Control_c, 0, 67, 0
1, 18743, Note_on_c, 0, 77, 66
1, 18787, Note_off_c, 0, 77, 62
1, 18796, Note_on_c, 0, 79, 66
1, 18824, Note_off_c, 0, 79, 66
1, 18849, Note_on_c, 0, 82, 65
1, 18875, Note_on_c, 0, 81, 19
1, 18898, Note_on_c, 0, 80, 61
1, 18920, Note_off_c, 0, 81, 53
1, 18928, Note_off_c, 0, 82, 64
1, 18929, Note_off_c, 0, 80, 66
1, 18935, Note_on_c, 0, 78, 64
1, 18954, Note_off_c, 0, 78, 65
1, 18990, Note_on_c, 0, 77, 74
1, 19020, Note_off_c, 0, 77, 64
1, 19029, Note_on_c, 0, 79, 67
1, 19053, Note_off_c, 0, 79, 67
1, 19077, Note_on_c, 0, 81, 70
1, 19080, Note_on_c, 0, 82, 66
1, 19104, Note_off_c, 0, 81, 68
1, 19127, Note_on_c, 0, 80, 77
1, 19165, Note_off_c, 0, 82, 59
1, 19180, Note_off_c, 0, 80, 60
1, 19182, Note_on_c, 0, 78, 62
1, 19205, Note_off_c, 0, 78, 38
1, 19237, Control_c, 0, 64, 98
1, 19246, Note_on_c, 0, 89, 84
1, 19252, Control_c, 0, 64, 59
1, 19267, Control_c, 0, 64, 33
1, 19281, Control_c, 0, 64, 26
1, 19291, Note_on_c, 0, 91, 82
1, 19295, Note_off_c, 0, 89, 66
1, 19296, Control_c, 0, 64, 42
1, 19311, Control_c, 0, 64, 58
1, 19326, Control_c, 0, 64, 103
1, 19337, Note_off_c, 0, 91, 61
1, 19341, Control_c, 0, 64, 127
1, 19348, Note_on_c, 0, 93, 82
1, 19360, Note_on_c, 0, 94, 78
1, 19389, Note_off_c, 0, 93, 65
1, 19396, Note_on_c, 0, 92, 78
1, 19438, Note_on_c, 0, 90, 83
1, 19441, Note_off_c, 0, 94, 65
1, 19451, Note_off_c, 0, 92, 66
1, 19457, Note_off_c, 0, 90, 73
1, 19491, Note_on_c, 0, 89, 88
1, 19537, Note_off_c, 0, 89, 68
1, 19540, Note_on_c, 0, 91, 83
1, 19593, Note_off_c, 0, 91, 49
1, 19595, Note_on_c, 0, 93, 92
1, 19614, Note_on_c, 0, 94, 84
1, 19641, Note_off_c, 0, 93, 64
1, 19649, Note_on_c, 0, 92, 85
1, 19690, Note_on_c, 0, 90, 88
1, 19699, Note_off_c, 0, 94, 64
1, 19706, Note_off_c, 0, 92, 66
1, 19709, Note_off_c, 0, 90, 74
1, 19744, Note_on_c, 0, 89, 97
1, 19785, Note_on_c, 0, 91, 91
1, 19790, Note_off_c, 0, 89, 67
1, 19847, Note_on_c, 0, 93, 98
1, 19866, Note_off_c, 0, 91, 51
1, 19878, Note_on_c, 0, 94, 85
1, 19886, Note_off_c, 0, 93, 68
1, 19909, Note_on_c, 0, 92, 90
1, 19945, Note_on_c, 0, 90, 89
1, 19954, Note_off_c, 0, 94, 66
1, 19970, Note_off_c, 0, 90, 70
1, 19972, Note_off_c, 0, 92, 69
1, 20004, Note_on_c, 0, 89, 96
1, 20048, Note_on_c, 0, 91, 100
1, 20052, Note_off_c, 0, 89, 66
1, 20098, Note_on_c, 0, 93, 97
1, 20107, Note_off_c, 0, 91, 60
1, 20138, Note_off_c, 0, 93, 66
1, 20162, Note_on_c, 0, 94, 91
1, 20183, Note_on_c, 0, 92, 93
1, 20227, Note_off_c, 0, 94, 68
1, 20233, Note_off_c, 0, 92, 70
1, 20234, Note_on_c, 0, 90, 59
1, 20256, Note_off_c, 0, 90, 64
1, 20359, Note_on_c, 0, 94, 109
1, 20374, Note_on_c, 0, 95, 81
1, 20387, Note_off_c, 0, 95, 69
1, 20482, Note_on_c, 0, 92, 78
1, 20493, Note_off_c, 0, 94, 67
1, 20517, Note_on_c, 0, 90, 88
1, 20529, Note_off_c, 0, 92, 69
1, 20556, Note_on_c, 0, 87, 79
1, 20560, Note_off_c, 0, 90, 68
1, 20588, Note_on_c, 0, 85, 84
1, 20603, Note_off_c, 0, 87, 70
1, 20624, Note_on_c, 0, 82, 83
1, 20626, Note_off_c, 0, 85, 68
1, 20659, Note_on_c, 0, 80, 83
1, 20675, Note_off_c, 0, 82, 69
1, 20681, Note_on_c, 0, 78, 88
1, 20699, Note_off_c, 0, 80, 68
1, 20714, Note_on_c, 0, 75, 84
1, 20717, Note_off_c, 0, 78, 70
1, 20743, Note_on_c, 0, 73, 81
1, 20752, Note_off_c, 0, 75, 65
1, 20768, Note_on_c, 0, 70, 90
1, 20773, Note_off_c, 0, 73, 71
1, 20794, Note_on_c, 0, 68, 81
1, 20810, Note_off_c, 0, 70, 69
1, 20815, Note_on_c, 0, 66, 89
1, 20835, Note_off_c, 0, 68, 66
1, 20845, Note_on_c, 0, 63, 88
1, 20854, Note_off_c, 0, 66, 67
1, 20869, Note_on_c, 0, 61, 86
1, 20886, Note_off_c, 0, 63, 68
1, 20896, Note_on_c, 0, 58, 87
1, 20904, Note_off_c, 0, 61, 68
1, 20918, Note_on_c, 0, 56, 89
1, 20931, Note_off_c, 0, 58, 69
1, 20938, Note_on_c, 0, 54, 89
1, 20953, Note_off_c, 0, 56, 69
1, 20965, Note_on_c, 0, 51, 90
1, 20976, Note_off_c, 0, 54, 68
1, 20990, Note_on_c, 0, 49, 87
1, 21009, Note_off_c, 0, 51, 70
1, 21023, Note_on_c, 0, 46, 85
1, 21033, Note_off_c, 0, 49, 69
1, 21050, Note_on_c, 0, 44, 78
1, 21069, Note_off_c, 0, 46, 69
1, 21080, Note_on_c, 0, 42, 79
1, 21095, Note_off_c, 0, 44, 66
1, 21121, Note_on_c, 0, 39, 81
1, 21127, Note_off_c, 0, 42, 61
1, 21151, Note_on_c, 0, 37, 73
1, 21158, Note_off_c, 0, 39, 65
1, 21183, Note_off_c, 0, 37, 66
1, 21191, Note_on_c, 0, 34, 71
1, 21215, Note_off_c, 0, 34, 69
1, 21227, Note_on_c, 0, 32, 60
1, 21259, Note_off_c, 0, 32, 60
1, 21319, Note_on_c, 0, 22, 96
1, 21360, Note_off_c, 0, 22, 64
1, 21498, Note_on_c, 0, 57, 91
1, 21501, Note_on_c, 0, 60, 79
1, 21513, Note_on_c, 0, 61, 57
1, 21517, Note_off_c, 0, 57, 71
1, 21525, Note_off_c, 0, 60, 67
1, 21535, Note_off_c, 0, 61, 63
1, 21707, Control_c, 0, 64, 93
1, 21722, Control_c, 0, 64, 85
1, 21737, Control_c, 0, 64, 78
1, 21751, Control_c, 0, 64, 68
1, 21766, Control_c, 0, 64, 63
1, 21781, Control_c, 0, 64, 59
1, 21796, Control_c, 0, 64, 55
1, 21811, Control_c, 0, 64, 49
1, 21826, Control_c, 0, 64, 39
1, 21840, Control_c, 0, 64, 31
1, 21855, Control_c, 0, 64, 28
1, 21870, Control_c, 0, 64, 26
1, 21885, Control_c, 0, 64, 23
1, 21900, Control_c, 0, 64, 22
1, 21915, Control_c, 0, 64, 20
1, 21930, Control_c, 0, 64, 19
1, 21945, Control_c, 0, 64, 15
1, 21959, Control_c, 0, 64, 9
1, 21974, Control_c, 0, 64, 0
1, 22158, Control_c, 0, 67, 8
1, 22173, Control_c, 0, 67, 15
1, 22189, Control_c, 0, 67, 30
1, 22204, Control_c, 0, 67, 48
1, 22219, Control_c, 0, 67, 65
1, 22233, Control_c, 0, 67, 77
1, 22248, Control_c, 0, 67, 85
1, 22263, Control_c, 0, 67, 95
1, 22278, Control_c, 0, 67, 106
1, 22293, Control_c, 0, 67, 120
1, 22307, Control_c, 0, 67, 127
1, 22869, Note_on_c, 0, 61, 28
1, 22871, Note_on_c, 0, 59, 35
1, 22975, Note_off_c, 0, 59, 56
1, 22980, Note_off_c, 0, 61, 58
1, 24240, Note_on_c, 0, 59, 51
1, 24264, Note_off_c, 0, 59, 61
1, 24274, Note_on_c, 0, 61, 58
1, 24294, Note_on_c, 0, 60, 34
1, 24296, Note_off_c, 0, 61, 67
1, 24325, Note_off_c, 0, 60, 50
1, 24343, Note_on_c, 0, 59, 60
1, 24368, Note_off_c, 0, 59, 65
1, 24377, Note_on_c, 0, 61, 54
1, 24407, Note_off_c, 0, 61, 65
1, 24458, Note_on_c, 0, 59, 49
1, 24477, Note_on_c, 0, 61, 66
1, 24481, Note_off_c, 0, 59, 58
1, 24490, Poly_aftertouch_c, 0, 60, 127
1, 24505, Note_off_c, 0, 61, 68
1, 24511, Poly_aftertouch_c, 0, 60, 0
1, 24559, Note_on_c, 0, 60, 55
1, 24591, Note_off_c, 0, 60, 65
1, 24594, Note_on_c, 0, 61, 59
1, 24609, Note_on_c, 0, 63, 54
1, 24627, Note_off_c, 0, 61, 65
1, 24635, Note_off_c, 0, 63, 63
1, 24672, Note_on_c, 0, 60, 67
1, 24699, Note_off_c, 0, 60, 67
1, 24714, Note_on_c, 0, 61, 39
1, 24725, Note_on_c, 0, 63, 44
1, 24743, Note_off_c, 0, 61, 57
1, 24756, Note_off_c, 0, 63, 57
1, 24771, Note_on_c, 0, 60, 55
1, 24790, Note_off_c, 0, 60, 64
1, 24818, Note_on_c, 0, 61, 48
1, 24842, Note_off_c, 0, 61, 60
1, 24891, Note_on_c, 0, 59, 56
1, 24913, Note_off_c, 0, 59, 58
1, 24920, Note_on_c, 0, 61, 63
1, 24937, Note_on_c, 0, 60, 45
1, 24958, Note_off_c, 0, 61, 63
1, 24961, Note_off_c, 0, 60, 57
1, 24977, Note_on_c, 0, 59, 66
1, 25003, Note_off_c, 0, 59, 65
1, 25032, Note_on_c, 0, 60, 61
1, 25042, Note_on_c, 0, 61, 57
1, 25054, Note_off_c, 0, 60, 61
1, 25063, Note_off_c, 0, 61, 66
1, 25088, Note_on_c, 0, 59, 60
1, 25109, Note_off_c, 0, 59, 63
1, 25133, Note_on_c, 0, 61, 64
1, 25135, Note_on_c, 0, 60, 48
1, 25166, Note_off_c, 0, 60, 59
1, 25166, Note_off_c, 0, 61, 68
1, 25216, Note_on_c, 0, 60, 77
1, 25238, Note_off_c, 0, 60, 71
1, 25252, Note_on_c, 0, 61, 67
1, 25262, Note_on_c, 0, 63, 62
1, 25280, Note_off_c, 0, 61, 65
1, 25292, Note_off_c, 0, 63, 67
1, 25315, Note_on_c, 0, 60, 73
1, 25340, Note_off_c, 0, 60, 67
1, 25364, Note_on_c, 0, 61, 54
1, 25379, Note_on_c, 0, 63, 44
1, 25388, Note_off_c, 0, 61, 61
1, 25409, Note_off_c, 0, 63, 56
1, 25421, Note_on_c, 0, 60, 64
1, 25440, Note_off_c, 0, 60, 65
1, 25454, Note_on_c, 0, 61, 59
1, 25476, Note_off_c, 0, 61, 63
1, 25494, Note_on_c, 0, 63, 6
1, 25524, Note_on_c, 0, 59, 63
1, 25525, Control_c, 0, 64, 10
1, 25539, Note_off_c, 0, 63, 34
1, 25540, Control_c, 0, 64, 16
1, 25544, Note_off_c, 0, 59, 64
1, 25555, Control_c, 0, 64, 21
1, 25559, Note_on_c, 0, 61, 62
1, 25570, Control_c, 0, 64, 26
1, 25573, Note_on_c, 0, 60, 51
1, 25585, Control_c, 0, 64, 33
1, 25593, Note_off_c, 0, 61, 66
1, 25593, Note_off_c, 0, 60, 61
1, 25599, Control_c, 0, 64, 39
1, 25614, Control_c, 0, 64, 46
1, 25624, Note_on_c, 0, 59, 67
1, 25629, Control_c, 0, 64, 53
1, 25644, Control_c, 0, 64, 57
1, 25649, Note_off_c, 0, 59, 65
1, 25659, Control_c, 0, 64, 59
1, 25671, Note_on_c, 0, 60, 50
1, 25674, Control_c, 0, 64, 60
1, 25677, Note_on_c, 0, 61, 62
1, 25694, Note_off_c, 0, 60, 60
1, 25700, Note_off_c, 0, 61, 61
1, 25749, Note_on_c, 0, 60, 69
1, 25763, Control_c, 0, 64, 59
1, 25765, Note_off_c, 0, 60, 69
1, 25772, Note_on_c, 0, 61, 66
1, 25777, Control_c, 0, 64, 57
1, 25780, Note_on_c, 0, 63, 68
1, 25791, Control_c, 0, 64, 55
1, 25800, Note_off_c, 0, 61, 67
1, 25806, Control_c, 0, 64, 52
1, 25809, Note_off_c, 0, 63, 67
1, 25821, Control_c, 0, 64, 49
1, 25836, Control_c, 0, 64, 47
1, 25844, Note_on_c, 0, 59, 68
1, 25850, Control_c, 0, 64, 47
1, 25867, Note_off_c, 0, 59, 68
1, 25884, Note_on_c, 0, 61, 63
1, 25886, Note_on_c, 0, 60, 52
1, 25916, Note_off_c, 0, 60, 66
1, 25919, Note_off_c, 0, 61, 68
1, 25932, Control_c, 0, 64, 46
1, 25952, Note_on_c, 0, 59, 64
1, 25962, Control_c, 0, 64, 46
1, 25975, Note_off_c, 0, 59, 68
1, 25987, Note_on_c, 0, 61, 73
1, 25998, Note_on_c, 0, 60, 44
1, 26016, Note_off_c, 0, 61, 66
1, 26021, Note_off_c, 0, 60, 60
1, 26036, Control_c, 0, 64, 45
1, 26065, Control_c, 0, 64, 45
1, 26070, Note_on_c, 0, 60, 69
1, 26085, Note_off_c, 0, 60, 70
1, 26090, Note_on_c, 0, 61, 71
1, 26095, Control_c, 0, 64, 44
1, 26101, Note_on_c, 0, 63, 67
1, 26110, Control_c, 0, 64, 44
1, 26112, Note_off_c, 0, 61, 70
1, 26124, Control_c, 0, 64, 43
1, 26127, Note_off_c, 0, 63, 68
1, 26139, Control_c, 0, 64, 42
1, 26154, Control_c, 0, 64, 41
1, 26169, Note_on_c, 0, 59, 66
1, 26170, Control_c, 0, 64, 39
1, 26185, Control_c, 0, 64, 38
1, 26196, Note_off_c, 0, 59, 64
1, 26199, Note_on_c, 0, 60, 57
1, 26204, Note_on_c, 0, 61, 62
1, 26228, Note_off_c, 0, 60, 67
1, 26229, Control_c, 0, 64, 39
1, 26230, Note_off_c, 0, 61, 69
1, 26244, Control_c, 0, 64, 41
1, 26259, Control_c, 0, 64, 44
1, 26269, Note_on_c, 0, 59, 69
1, 26273, Control_c, 0, 64, 47
1, 26288, Control_c, 0, 64, 51
1, 26292, Note_on_c, 0, 61, 70
1, 26295, Note_off_c, 0, 59, 66
1, 26302, Note_on_c, 0, 60, 49
1, 26303, Control_c, 0, 64, 55
1, 26318, Control_c, 0, 64, 57
1, 26324, Note_off_c, 0, 61, 67
1, 26328, Note_off_c, 0, 60, 57
1, 26333, Control_c, 0, 64, 58
1, 26348, Control_c, 0, 64, 58
1, 26362, Control_c, 0, 64, 59
1, 26381, Note_on_c, 0, 60, 69
1, 26397, Note_off_c, 0, 60, 67
1, 26408, Note_on_c, 0, 61, 58
1, 26411, Note_on_c, 0, 63, 60
1, 26425, Note_off_c, 0, 61, 69
1, 26433, Note_off_c, 0, 63, 64
1, 26437, Control_c, 0, 64, 59
1, 26452, Control_c, 0, 64, 60
1, 26477, Note_on_c, 0, 59, 70
1, 26497, Note_off_c, 0, 59, 67
1, 26503, Note_on_c, 0, 61, 60
1, 26511, Note_on_c, 0, 60, 57
1, 26532, Note_off_c, 0, 60, 64
1, 26534, Note_off_c, 0, 61, 68
1, 26541, Control_c, 0, 64, 59
1, 26569, Note_on_c, 0, 59, 60
1, 26599, Note_off_c, 0, 59, 64
1, 26608, Note_on_c, 0, 60, 54
1, 26614, Note_on_c, 0, 61, 58
1, 26615, Control_c, 0, 64, 59
1, 26625, Note_off_c, 0, 60, 66
1, 26631, Note_off_c, 0, 61, 68
1, 26685, Note_on_c, 0, 60, 78
1, 26696, Control_c, 0, 64, 59
1, 26697, Note_on_c, 0, 61, 59
1, 26700, Note_off_c, 0, 60, 71
1, 26703, Note_on_c, 0, 63, 71
1, 26711, Control_c, 0, 64, 60
1, 26715, Note_off_c, 0, 61, 68
1, 26723, Note_off_c, 0, 63, 66
1, 26726, Control_c, 0, 64, 60
1, 26756, Control_c, 0, 64, 61
1, 26771, Control_c, 0, 64, 60
1, 26786, Control_c, 0, 64, 58
1, 26800, Control_c, 0, 64, 50
1, 26815, Control_c, 0, 64, 37
1, 26826, Note_on_c, 0, 71, 71
1, 26830, Control_c, 0, 64, 23
1, 26845, Control_c, 0, 64, 22
1, 26848, Note_off_c, 0, 71, 72
1, 26874, Control_c, 0, 64, 25
1, 26875, Note_on_c, 0, 73, 76
1, 26889, Control_c, 0, 64, 31
1, 26891, Note_on_c, 0, 72, 55
1, 26896, Note_off_c, 0, 73, 69
1, 26904, Control_c, 0, 64, 38
1, 26914, Note_off_c, 0, 72, 59
1, 26919, Control_c, 0, 64, 45
1, 26930, Note_on_c, 0, 71, 71
1, 26934, Control_c, 0, 64, 48
1, 26948, Control_c, 0, 64, 49
1, 26953, Note_off_c, 0, 71, 71
1, 26976, Note_on_c, 0, 72, 67
1, 26980, Note_on_c, 0, 73, 69
1, 26994, Note_off_c, 0, 72, 64
1, 27000, Note_off_c, 0, 73, 69
1, 27030, Note_on_c, 0, 71, 66
1, 27055, Note_off_c, 0, 71, 69
1, 27070, Note_on_c, 0, 73, 60
1, 27072, Note_on_c, 0, 72, 54
1, 27091, Note_off_c, 0, 72, 63
1, 27094, Note_off_c, 0, 73, 67
1, 27143, Note_on_c, 0, 72, 75
1, 27157, Control_c, 0, 64, 48
1, 27162, Note_off_c, 0, 72, 66
1, 27171, Control_c, 0, 64, 47
1, 27182, Note_on_c, 0, 73, 67
1, 27186, Control_c, 0, 64, 44
1, 27190, Note_on_c, 0, 75, 63
1, 27201, Control_c, 0, 64, 42
1, 27203, Note_off_c, 0, 73, 59
1, 27212, Note_off_c, 0, 75, 65
1, 27215, Control_c, 0, 64, 41
1, 27235, Note_on_c, 0, 72, 69
1, 27245, Control_c, 0, 64, 41
1, 27260, Note_off_c, 0, 72, 65
1, 27260, Control_c, 0, 64, 40
1, 27275, Control_c, 0, 64, 38
1, 27284, Note_on_c, 0, 73, 58
1, 27290, Control_c, 0, 64, 35
1, 27297, Note_on_c, 0, 75, 55
1, 27304, Control_c, 0, 64, 29
1, 27307, Note_off_c, 0, 73, 61
1, 27319, Control_c, 0, 64, 24
1, 27321, Note_off_c, 0, 75, 58
1, 27334, Control_c, 0, 64, 20
1, 27349, Control_c, 0, 64, 14
1, 27352, Note_on_c, 0, 72, 47
1, 27364, Control_c, 0, 64, 0
1, 27373, Note_on_c, 0, 73, 66
1, 27376, Note_off_c, 0, 72, 37
1, 27400, Note_off_c, 0, 73, 65
1, 27406, Note_on_c, 0, 75, 58
1, 27424, Note_off_c, 0, 75, 64
1, 27442, Note_on_c, 0, 71, 71
1, 27465, Note_off_c, 0, 71, 72
1, 27493, Note_on_c, 0, 73, 61
1, 27505, Note_on_c, 0, 72, 51
1, 27525, Note_off_c, 0, 73, 65
1, 27528, Note_off_c, 0, 72, 59
1, 27534, Control_c, 0, 64, 13
1, 27536, Note_on_c, 0, 71, 74
1, 27549, Control_c, 0, 64, 22
1, 27560, Note_off_c, 0, 71, 70
1, 27564, Control_c, 0, 64, 28
1, 27578, Control_c, 0, 64, 31
1, 27593, Control_c, 0, 64, 34
1, 27597, Note_on_c, 0, 72, 56
1, 27604, Note_on_c, 0, 73, 63
1, 27608, Control_c, 0, 64, 38
1, 27619, Note_off_c, 0, 72, 60
1, 27621, Note_off_c, 0, 73, 69
1, 27622, Control_c, 0, 64, 41
1, 27637, Control_c, 0, 64, 43
1, 27638, Note_on_c, 0, 71, 68
1, 27652, Control_c, 0, 64, 44
1, 27663, Note_off_c, 0, 71, 68
1, 27667, Control_c, 0, 64, 45
1, 27682, Control_c, 0, 64, 46
1, 27692, Note_on_c, 0, 73, 69
1, 27695, Note_on_c, 0, 72, 49
1, 27697, Control_c, 0, 64, 47
1, 27712, Control_c, 0, 64, 49
1, 27713, Note_off_c, 0, 73, 71
1, 27724, Note_off_c, 0, 72, 0
1, 27727, Control_c, 0, 64, 50
1, 27740, Note_on_c, 0, 72, 70
1, 27742, Control_c, 0, 64, 53
1, 27756, Control_c, 0, 64, 55
1, 27772, Control_c, 0, 64, 59
1, 27774, Note_off_c, 0, 72, 62
1, 27787, Control_c, 0, 64, 62
1, 27802, Control_c, 0, 64, 64
1, 27803, Note_on_c, 0, 73, 65
1, 27807, Note_on_c, 0, 75, 66
1, 27817, Control_c, 0, 64, 64
1, 27822, Note_off_c, 0, 73, 66
1, 27829, Note_off_c, 0, 75, 65
1, 27847, Note_on_c, 0, 72, 76
1, 27870, Note_off_c, 0, 72, 67
1, 27876, Control_c, 0, 64, 65
1, 27896, Note_on_c, 0, 73, 72
1, 27906, Control_c, 0, 64, 65
1, 27907, Note_on_c, 0, 75, 67
1, 27923, Note_off_c, 0, 73, 62
1, 27936, Note_off_c, 0, 75, 64
1, 27950, Control_c, 0, 64, 65
1, 27965, Control_c, 0, 64, 64
1, 27970, Note_on_c, 0, 72, 36
1, 27980, Control_c, 0, 64, 61
1, 27994, Control_c, 0, 64, 53
1, 27996, Note_off_c, 0, 72, 60
1, 28009, Control_c, 0, 64, 43
1, 28017, Note_on_c, 0, 73, 77
1, 28023, Control_c, 0, 64, 36
1, 28028, Note_on_c, 0, 71, 71
1, 28038, Control_c, 0, 64, 36
1, 28044, Note_off_c, 0, 73, 64
1, 28050, Note_off_c, 0, 71, 70
1, 28053, Control_c, 0, 64, 37
1, 28068, Control_c, 0, 64, 41
1, 28082, Control_c, 0, 64, 47
1, 28097, Control_c, 0, 64, 55
1, 28112, Control_c, 0, 64, 62
1, 28122, Note_on_c, 0, 73, 75
1, 28127, Control_c, 0, 64, 66
1, 28130, Note_on_c, 0, 71, 61
1, 28130, Note_on_c, 0, 72, 44
1, 28149, Control_c, 0, 64, 68
1, 28153, Note_off_c, 0, 73, 68
1, 28157, Note_off_c, 0, 71, 67
1, 28163, Control_c, 0, 64, 69
1, 28165, Note_off_c, 0, 72, 57
1, 28178, Control_c, 0, 64, 72
1, 28193, Control_c, 0, 64, 75
1, 28208, Control_c, 0, 64, 79
1, 28223, Control_c, 0, 64, 82
1, 28226, Note_on_c, 0, 73, 63
1, 28226, Note_on_c, 0, 75, 77
1, 28231, Note_on_c, 0, 72, 62
1, 28238, Control_c, 0, 64, 85
1, 28249, Note_off_c, 0, 72, 65
1, 28249, Note_off_c, 0, 73, 66
1, 28252, Note_off_c, 0, 75, 63
1, 28252, Control_c, 0, 64, 86
1, 28267, Control_c, 0, 64, 88
1, 28282, Control_c, 0, 64, 89
1, 28333, Note_on_c, 0, 71, 63
1, 28333, Note_on_c, 0, 73, 69
1, 28334, Note_on_c, 0, 72, 71
1, 28352, Note_off_c, 0, 71, 66
1, 28357, Note_off_c, 0, 72, 69
1, 28360, Note_off_c, 0, 73, 68
1, 28415, Note_on_c, 0, 71, 65
1, 28433, Note_off_c, 0, 71, 69
1, 28442, Note_on_c, 0, 73, 61
1, 28451, Note_on_c, 0, 72, 39
1, 28461, Note_off_c, 0, 73, 68
1, 28482, Note_off_c, 0, 72, 55
1, 28490, Control_c, 0, 64, 89
1, 28505, Control_c, 0, 64, 92
1, 28508, Note_on_c, 0, 72, 73
1, 28519, Control_c, 0, 64, 96
1, 28534, Control_c, 0, 64, 100
1, 28535, Note_off_c, 0, 72, 64
1, 28549, Control_c, 0, 64, 102
1, 28550, Note_on_c, 0, 73, 65
1, 28553, Note_on_c, 0, 75, 69
1, 28565, Control_c, 0, 64, 103
1, 28574, Note_off_c, 0, 73, 62
1, 28579, Note_off_c, 0, 75, 67
1, 28628, Note_on_c, 0, 71, 76
1, 28649, Note_off_c, 0, 71, 73
1, 28657, Note_on_c, 0, 73, 65
1, 28665, Note_on_c, 0, 72, 68
1, 28682, Note_off_c, 0, 72, 68
1, 28682, Note_off_c, 0, 73, 67
1, 28723, Note_on_c, 0, 71, 75
1, 28742, Note_off_c, 0, 71, 70
1, 28767, Note_on_c, 0, 73, 66
1, 28784, Note_off_c, 0, 73, 69
1, 28813, Note_on_c, 0, 72, 62
1, 28854, Note_off_c, 0, 72, 63
1, 28867, Note_on_c, 0, 73, 68
1, 28872, Note_on_c, 0, 75, 69
1, 28898, Control_c, 0, 64, 103
1, 28901, Note_off_c, 0, 73, 63
1, 28905, Note_off_c, 0, 75, 66
1, 28936, Note_on_c, 0, 71, 78
1, 28957, Note_off_c, 0, 71, 72
1, 28984, Note_on_c, 0, 73, 57
1, 28986, Note_on_c, 0, 72, 66
1, 29004, Note_off_c, 0, 72, 65
1, 29004, Note_off_c, 0, 73, 64
1, 29036, Note_on_c, 0, 71, 70
1, 29057, Note_off_c, 0, 71, 70
1, 29069, Note_on_c, 0, 73, 69
1, 29075, Control_c, 0, 64, 106
1, 29083, Note_on_c, 0, 72, 46
1, 29087, Note_off_c, 0, 73, 70
1, 29090, Control_c, 0, 64, 127
1, 29103, Note_off_c, 0, 72, 0
1, 29116, Note_on_c, 0, 72, 70
1, 29142, Note_on_c, 0, 75, 73
1, 29144, Note_off_c, 0, 72, 67
1, 29158, Note_off_c, 0, 75, 65
1, 29224, Control_c, 0, 64, 79
1, 29239, Control_c, 0, 64, 61
1, 29252, Note_on_c, 0, 83, 90
1, 29254, Control_c, 0, 64, 49
1, 29268, Control_c, 0, 64, 46
1, 29272, Note_off_c, 0, 83, 69
1, 29283, Control_c, 0, 64, 51
1, 29287, Note_on_c, 0, 85, 90
1, 29298, Control_c, 0, 64, 58
1, 29303, Note_on_c, 0, 84, 68
1, 29313, Control_c, 0, 64, 68
1, 29320, Note_off_c, 0, 84, 65
1, 29320, Note_off_c, 0, 85, 62
1, 29327, Control_c, 0, 64, 95
1, 29342, Control_c, 0, 64, 127
1, 29350, Note_on_c, 0, 83, 88
1, 29381, Note_off_c, 0, 83, 62
1, 29393, Note_on_c, 0, 85, 73
1, 29394, Note_on_c, 0, 84, 60
1, 29412, Note_off_c, 0, 84, 65
1, 29415, Note_off_c, 0, 85, 68
1, 29454, Note_on_c, 0, 84, 93
1, 29482, Note_off_c, 0, 84, 61
1, 29498, Note_on_c, 0, 85, 66
1, 29500, Note_on_c, 0, 87, 78
1, 29523, Note_off_c, 0, 85, 68
1, 29525, Note_off_c, 0, 87, 66
1, 29555, Note_on_c, 0, 83, 89
1, 29587, Note_off_c, 0, 83, 63
1, 29599, Note_on_c, 0, 85, 84
1, 29632, Note_off_c, 0, 85, 65
1, 29666, Note_on_c, 0, 83, 88
1, 29696, Note_off_c, 0, 83, 63
1, 29711, Note_on_c, 0, 85, 86
1, 29762, Note_on_c, 0, 84, 102
1, 29769, Note_on_c, 0, 87, 89
1, 29780, Control_c, 0, 67, 107
1, 29787, Note_off_c, 0, 87, 73
1, 29789, Note_off_c, 0, 84, 66
1, 29795, Control_c, 0, 67, 60
1, 29797, Note_off_c, 0, 85, 32
1, 29810, Control_c, 0, 67, 0
1, 29854, Control_c, 0, 64, 73
1, 29869, Control_c, 0, 64, 63
1, 29884, Note_on_c, 0, 95, 103
1, 29884, Control_c, 0, 64, 62
1, 29898, Control_c, 0, 64, 70
1, 29911, Note_off_c, 0, 95, 71
1, 29913, Control_c, 0, 64, 115
1, 29928, Control_c, 0, 64, 127
1, 29932, Note_on_c, 0, 97, 95
1, 29939, Note_on_c, 0, 96, 79
1, 29958, Note_off_c, 0, 96, 70
1, 29967, Note_off_c, 0, 97, 67
1, 29990, Note_on_c, 0, 95, 111
1, 30020, Note_off_c, 0, 95, 68
1, 30032, Note_on_c, 0, 97, 101
1, 30062, Note_off_c, 0, 97, 67
1, 30093, Note_on_c, 0, 96, 106
1, 30122, Note_off_c, 0, 96, 67
1, 30149, Note_on_c, 0, 99, 106
1, 30155, Note_on_c, 0, 97, 89
1, 30174, Note_off_c, 0, 97, 76
1, 30186, Note_off_c, 0, 99, 66
1, 30209, Note_on_c, 0, 95, 109
1, 30244, Note_off_c, 0, 95, 67
1, 30273, Note_on_c, 0, 97, 109
1, 30307, Note_off_c, 0, 97, 67
1, 30323, Note_on_c, 0, 95, 116
1, 30358, Note_off_c, 0, 95, 65
1, 30405, Note_on_c, 0, 97, 111
1, 30434, Note_off_c, 0, 97, 67
1, 30453, Note_on_c, 0, 96, 110
1, 30491, Note_off_c, 0, 96, 65
1, 30519, Note_on_c, 0, 99, 108
1, 30521, Note_on_c, 0, 97, 97
1, 30536, Note_off_c, 0, 97, 77
1, 30548, Note_off_c, 0, 99, 63
1, 30769, Note_on_c, 0, 100, 94
1, 30781, Control_c, 0, 64, 65
1, 30796, Control_c, 0, 64, 45
1, 30811, Control_c, 0, 64, 9
1, 30826, Control_c, 0, 64, 0
1, 30831, Note_on_c, 0, 98, 84
1, 30840, Control_c, 0, 64, 26
1, 30855, Control_c, 0, 64, 44
1, 30869, Note_off_c, 0, 100, 65
1, 30870, Control_c, 0, 64, 63
1, 30871, Note_on_c, 0, 96, 81
1, 30885, Control_c, 0, 64, 127
1, 30926, Note_on_c, 0, 94, 84
1, 30942, Note_off_c, 0, 96, 64
1, 30947, Note_off_c, 0, 98, 65
1, 30966, Note_off_c, 0, 94, 70
1, 30968, Note_on_c, 0, 91, 82
1, 30986, Note_off_c, 0, 91, 68
1, 30987, Note_on_c, 0, 88, 81
1, 31028, Note_off_c, 0, 88, 69
1, 31042, Note_on_c, 0, 86, 78
1, 31081, Note_on_c, 0, 84, 72
1, 31090, Note_off_c, 0, 86, 64
1, 31109, Note_on_c, 0, 82, 71
1, 31131, Note_off_c, 0, 84, 63
1, 31172, Note_off_c, 0, 82, 57
1, 31188, Note_on_c, 0, 79, 61
1, 31192, Note_on_c, 0, 76, 80
1, 31226, Note_on_c, 0, 74, 66
1, 31241, Note_off_c, 0, 76, 56
1, 31272, Note_on_c, 0, 72, 62
1, 31279, Note_off_c, 0, 74, 65
1, 31299, Note_on_c, 0, 70, 75
1, 31299, Note_off_c, 0, 72, 67
1, 31321, Note_off_c, 0, 70, 69
1, 31341, Note_on_c, 0, 67, 77
1, 31386, Note_on_c, 0, 70, 76
1, 31390, Note_off_c, 0, 79, 31
1, 31391, Note_off_c, 0, 67, 60
1, 31416, Note_on_c, 0, 72, 65
1, 31426, Note_off_c, 0, 70, 63
1, 31467, Note_on_c, 0, 74, 75
1, 31469, Note_off_c, 0, 72, 63
1, 31485, Note_on_c, 0, 76, 81
1, 31493, Note_off_c, 0, 74, 64
1, 31505, Note_on_c, 0, 79, 68
1, 31505, Note_off_c, 0, 76, 73
1, 31560, Note_on_c, 0, 82, 77
1, 31560, Note_off_c, 0, 79, 61
1, 31592, Note_on_c, 0, 84, 74
1, 31624, Note_off_c, 0, 82, 65
1, 31638, Note_on_c, 0, 86, 76
1, 31647, Note_off_c, 0, 84, 65
1, 31679, Note_off_c, 0, 86, 62
1, 31686, Note_on_c, 0, 88, 79
1, 31708, Note_off_c, 0, 88, 69
1, 31739, Note_on_c, 0, 91, 84
1, 31784, Note_off_c, 0, 91, 59
1, 31791, Note_on_c, 0, 94, 78
1, 31838, Note_on_c, 0, 96, 78
1, 31838, Note_off_c, 0, 94, 69
1, 31889, Note_on_c, 0, 98, 72
1, 31911, Note_off_c, 0, 96, 56
1, 31935, Note_on_c, 0, 100, 86
1, 31943, Note_off_c, 0, 98, 65
1, 31990, Note_on_c, 0, 98, 70
1, 32014, Note_off_c, 0, 100, 67
1, 32036, Note_on_c, 0, 96, 76
1, 32071, Note_off_c, 0, 98, 63
1, 32083, Note_on_c, 0, 94, 85
1, 32095, Note_off_c, 0, 96, 65
1, 32119, Note_off_c, 0, 94, 68
1, 32125, Note_on_c, 0, 91, 84
1, 32145, Note_off_c, 0, 91, 67
1, 32158, Note_on_c, 0, 88, 71
1, 32205, Note_off_c, 0, 88, 62
1, 32213, Note_on_c, 0, 86, 82
1, 32253, Note_off_c, 0, 86, 62
1, 32256, Note_on_c, 0, 84, 70
1, 32281, Note_on_c, 0, 82, 74
1, 32283, Note_off_c, 0, 84, 67
1, 32323, Note_off_c, 0, 82, 64
1, 32330, Note_on_c, 0, 79, 69
1, 32366, Note_on_c, 0, 76, 73
1, 32402, Note_on_c, 0, 74, 69
1, 32406, Note_off_c, 0, 76, 62
1, 32420, Note_off_c, 0, 79, 49
1, 32443, Note_on_c, 0, 72, 63
1, 32454, Note_off_c, 0, 74, 63
1, 32476, Note_off_c, 0, 72, 64
1, 32480, Note_on_c, 0, 70, 69
1, 32505, Note_off_c, 0, 70, 69
1, 32522, Note_on_c, 0, 67, 77
1, 32571, Note_off_c, 0, 67, 60
1, 32584, Note_on_c, 0, 70, 69
1, 32604, Note_off_c, 0, 70, 71
1, 32604, Note_on_c, 0, 72, 69
1, 32666, Note_on_c, 0, 74, 79
1, 32670, Note_off_c, 0, 72, 63
1, 32691, Note_off_c, 0, 74, 66
1, 32696, Note_on_c, 0, 76, 72
1, 32715, Note_off_c, 0, 76, 72
1, 32717, Note_on_c, 0, 79, 70
1, 32767, Note_off_c, 0, 79, 61
1, 32770, Note_on_c, 0, 82, 74
1, 32801, Note_on_c, 0, 84, 73
1, 32828, Note_off_c, 0, 82, 65
1, 32845, Note_on_c, 0, 86, 80
1, 32856, Note_off_c, 0, 84, 65
1, 32891, Note_off_c, 0, 86, 62
1, 32891, Note_on_c, 0, 88, 78
1, 32912, Note_off_c, 0, 88, 70
1, 32933, Note_on_c, 0, 91, 86
1, 32982, Note_off_c, 0, 91, 58
1, 32989, Note_on_c, 0, 94, 80
1, 33031, Note_on_c, 0, 96, 79
1, 33031, Note_off_c, 0, 94, 67
1, 33079, Note_on_c, 0, 98, 76
1, 33105, Note_off_c, 0, 96, 62
1, 33118, Note_on_c, 0, 100, 81
1, 33122, Note_off_c, 0, 98, 66
1, 33169, Note_on_c, 0, 98, 71
1, 33193, Note_off_c, 0, 100, 64
1, 33213, Note_on_c, 0, 96, 77
1, 33254, Note_on_c, 0, 94, 81
1, 33258, Note_off_c, 0, 98, 59
1, 33270, Note_off_c, 0, 96, 65
1, 33295, Note_off_c, 0, 94, 66
1, 33296, Note_on_c, 0, 91, 81
1, 33311, Note_on_c, 0, 88, 77
1, 33311, Note_off_c, 0, 91, 67
1, 33367, Note_off_c, 0, 88, 67
1, 33369, Note_on_c, 0, 86, 72
1, 33398, Note_off_c, 0, 86, 67
1, 33424, Note_on_c, 0, 84, 54
1, 33434, Note_on_c, 0, 82, 71
1, 33445, Note_off_c, 0, 84, 62
1, 33453, Note_off_c, 0, 82, 70
1, 33457, Note_on_c, 0, 79, 79
1, 33490, Note_off_c, 0, 79, 67
1, 33522, Note_on_c, 0, 76, 72
1, 33540, Note_on_c, 0, 77, 46
1, 33567, Note_on_c, 0, 74, 69
1, 33567, Note_off_c, 0, 77, 57
1, 33577, Note_off_c, 0, 76, 64
1, 33609, Note_on_c, 0, 72, 69
1, 33642, Note_off_c, 0, 74, 61
1, 33671, Note_off_c, 0, 72, 64
1, 33674, Note_on_c, 0, 70, 78
1, 33754, Note_on_c, 0, 60, 100
1, 33779, Note_off_c, 0, 70, 52
1, 33791, Control_c, 0, 64, 85
1, 33806, Control_c, 0, 64, 51
1, 33821, Control_c, 0, 64, 0
1, 33838, Note_on_c, 0, 67, 98
1, 33880, Control_c, 0, 64, 34
1, 33895, Control_c, 0, 64, 61
1, 33908, Note_off_c, 0, 60, 66
1, 33910, Control_c, 0, 64, 127
1, 33913, Note_off_c, 0, 67, 65
1, 33934, Note_on_c, 0, 70, 77
1, 33990, Note_off_c, 0, 70, 65
1, 33997, Note_on_c, 0, 72, 72
1, 34051, Note_on_c, 0, 74, 67
1, 34056, Note_off_c, 0, 72, 60
1, 34087, Note_on_c, 0, 76, 61
1, 34110, Note_off_c, 0, 76, 68
1, 34119, Note_off_c, 0, 74, 62
1, 34176, Note_on_c, 0, 79, 74
1, 34230, Note_off_c, 0, 79, 54
1, 34271, Note_on_c, 0, 84, 64
1, 34307, Note_on_c, 0, 86, 68
1, 34309, Note_off_c, 0, 84, 62
1, 34335, Note_off_c, 0, 86, 66
1, 34354, Note_on_c, 0, 88, 70
1, 34376, Note_off_c, 0, 88, 69
1, 34387, Note_on_c, 0, 91, 77
1, 34440, Note_on_c, 0, 94, 80
1, 34441, Note_off_c, 0, 91, 58
1, 34468, Note_on_c, 0, 96, 75
1, 34479, Note_off_c, 0, 94, 67
1, 34531, Note_on_c, 0, 98, 71
1, 34536, Note_off_c, 0, 96, 64
1, 34553, Note_off_c, 0, 98, 69
1, 34556, Note_on_c, 0, 100, 81
1, 34608, Note_on_c, 0, 98, 74
1, 34620, Note_off_c, 0, 100, 65
1, 34649, Note_on_c, 0, 96, 68
1, 34677, Note_on_c, 0, 94, 80
1, 34678, Note_off_c, 0, 98, 65
1, 34691, Note_off_c, 0, 96, 62
1, 34715, Note_off_c, 0, 94, 66
1, 34717, Note_on_c, 0, 91, 79
1, 34735, Note_off_c, 0, 91, 64
1, 34744, Note_on_c, 0, 88, 73
1, 34775, Note_off_c, 0, 88, 67
1, 34786, Note_on_c, 0, 86, 75
1, 34824, Note_off_c, 0, 86, 59
1, 34825, Note_on_c, 0, 84, 63
1, 34846, Note_on_c, 0, 82, 68
1, 34860, Note_off_c, 0, 84, 60
1, 34901, Note_on_c, 0, 79, 70
1, 34913, Note_off_c, 0, 82, 62
1, 34926, Note_on_c, 0, 76, 76
1, 34953, Note_on_c, 0, 74, 71
1, 34956, Note_off_c, 0, 76, 53
1, 34998, Note_on_c, 0, 72, 64
1, 35004, Note_off_c, 0, 74, 63
1, 35019, Note_off_c, 0, 79, 55
1, 35025, Note_off_c, 0, 72, 67
1, 35030, Note_on_c, 0, 70, 65
1, 35057, Note_off_c, 0, 70, 67
1, 35070, Note_on_c, 0, 67, 73
1, 35114, Note_off_c, 0, 67, 60
1, 35124, Note_on_c, 0, 70, 60
1, 35138, Note_on_c, 0, 72, 63
1, 35152, Note_off_c, 0, 70, 65
1, 35192, Note_on_c, 0, 74, 65
1, 35192, Note_off_c, 0, 72, 63
1, 35213, Note_off_c, 0, 74, 73
1, 35213, Note_on_c, 0, 76, 63
1, 35217, Note_on_c, 0, 79, 71
1, 35230, Note_off_c, 0, 76, 66
1, 35272, Note_off_c, 0, 79, 59
1, 35296, Note_on_c, 0, 82, 15
1, 35310, Note_on_c, 0, 84, 61
1, 35311, Note_on_c, 0, 81, 33
1, 35317, Note_on_c, 0, 83, 62
1, 35335, Note_on_c, 0, 86, 77
1, 35343, Note_off_c, 0, 83, 66
1, 35349, Note_off_c, 0, 81, 53
1, 35359, Note_off_c, 0, 84, 54
1, 35377, Note_off_c, 0, 86, 63
1, 35389, Note_on_c, 0, 88, 71
1, 35409, Note_off_c, 0, 88, 64
1, 35411, Note_off_c, 0, 82, 47
1, 35427, Note_on_c, 0, 91, 82
1, 35481, Note_off_c, 0, 91, 59
1, 35484, Note_on_c, 0, 94, 71
1, 35502, Note_off_c, 0, 94, 66
1, 35511, Note_on_c, 0, 96, 78
1, 35523, Note_on_c, 0, 95, 52
1, 35546, Note_off_c, 0, 95, 58
1, 35571, Note_on_c, 0, 98, 75
1, 35587, Note_off_c, 0, 96, 63
1, 35597, Note_on_c, 0, 100, 81
1, 35606, Note_off_c, 0, 98, 56
1, 35658, Note_on_c, 0, 98, 66
1, 35682, Note_off_c, 0, 100, 65
1, 35696, Note_on_c, 0, 96, 74
1, 35734, Note_on_c, 0, 94, 81
1, 35752, Note_off_c, 0, 96, 64
1, 35761, Note_off_c, 0, 98, 59
1, 35777, Note_off_c, 0, 94, 66
1, 35778, Note_on_c, 0, 91, 83
1, 35797, Note_on_c, 0, 88, 79
1, 35797, Note_off_c, 0, 91, 69
1, 35844, Note_off_c, 0, 88, 67
1, 35851, Note_on_c, 0, 86, 73
1, 35876, Note_off_c, 0, 86, 64
1, 35907, Note_on_c, 0, 82, 71
1, 35910, Note_on_c, 0, 84, 42
1, 35925, Note_off_c, 0, 82, 70
1, 35937, Note_on_c, 0, 79, 80
1, 35939, Note_off_c, 0, 84, 55
1, 35967, Note_off_c, 0, 79, 66
1, 35989, Note_on_c, 0, 76, 86
1, 36038, Note_on_c, 0, 74, 68
1, 36050, Note_off_c, 0, 76, 64
1, 36073, Note_on_c, 0, 72, 73
1, 36092, Note_off_c, 0, 74, 59
1, 36143, Note_off_c, 0, 72, 64
1, 36144, Note_on_c, 0, 70, 76
1, 36241, Note_on_c, 0, 60, 93
1, 36267, Note_off_c, 0, 70, 57
1, 36304, Control_c, 0, 64, 63
1, 36319, Control_c, 0, 64, 31
1, 36331, Note_on_c, 0, 69, 88
1, 36334, Control_c, 0, 64, 0
1, 36365, Note_off_c, 0, 60, 61
1, 36401, Control_c, 0, 64, 36
1, 36405, Note_off_c, 0, 69, 69
1, 36408, Note_on_c, 0, 67, 93
1, 36416, Control_c, 0, 64, 58
1, 36431, Control_c, 0, 64, 127
1, 36447, Note_off_c, 0, 67, 68
1, 36460, Note_on_c, 0, 70, 81
1, 36519, Note_on_c, 0, 72, 69
1, 36540, Note_off_c, 0, 70, 62
1, 36568, Note_on_c, 0, 74, 55
1, 36577, Note_on_c, 0, 76, 63
1, 36602, Note_off_c, 0, 76, 64
1, 36607, Note_off_c, 0, 72, 59
1, 36611, Note_off_c, 0, 74, 62
1, 36656, Note_on_c, 0, 79, 74
1, 36718, Note_on_c, 0, 82, 70
1, 36727, Note_off_c, 0, 79, 51
1, 36748, Note_on_c, 0, 84, 74
1, 36782, Note_off_c, 0, 82, 66
1, 36784, Note_on_c, 0, 86, 73
1, 36799, Note_off_c, 0, 84, 61
1, 36816, Note_off_c, 0, 86, 63
1, 36820, Note_on_c, 0, 88, 77
1, 36843, Note_off_c, 0, 88, 72
1, 36871, Note_on_c, 0, 91, 85
1, 36926, Note_on_c, 0, 94, 89
1, 36951, Note_off_c, 0, 91, 55
1, 36961, Note_on_c, 0, 96, 71
1, 36986, Note_on_c, 0, 98, 95
1, 37002, Note_off_c, 0, 94, 67
1, 37020, Note_off_c, 0, 96, 56
1, 37025, Note_off_c, 0, 98, 70
1, 37284, Control_c, 0, 64, 104
1, 37299, Control_c, 0, 64, 93
1, 37314, Control_c, 0, 64, 85
1, 37328, Control_c, 0, 64, 77
1, 37343, Control_c, 0, 64, 67
1, 37356, Note_on_c, 0, 65, 79
1, 37359, Control_c, 0, 64, 57
1, 37374, Control_c, 0, 64, 36
1, 37389, Control_c, 0, 64, 0
1, 37457, Note_off_c, 0, 65, 37
1, 37475, Note_on_c, 0, 71, 68
1, 37537, Control_c, 0, 64, 20
1, 37551, Control_c, 0, 64, 32
1, 37566, Control_c, 0, 64, 43
1, 37572, Note_on_c, 0, 73, 64
1, 37577, Note_on_c, 0, 61, 93
1, 37581, Control_c, 0, 64, 55
1, 37583, Note_off_c, 0, 71, 63
1, 37596, Control_c, 0, 64, 66
1, 37611, Control_c, 0, 64, 85
1, 37626, Control_c, 0, 64, 127
1, 37628, Note_off_c, 0, 61, 62
1, 37657, Note_on_c, 0, 75, 72
1, 37660, Note_off_c, 0, 73, 65
1, 37696, Note_off_c, 0, 75, 62
1, 37747, Note_on_c, 0, 70, 92
1, 37752, Note_on_c, 0, 77, 76
1, 37783, Note_off_c, 0, 70, 64
1, 37811, Note_off_c, 0, 77, 58
1, 37828, Note_on_c, 0, 83, 71
1, 37855, Note_on_c, 0, 85, 69
1, 37863, Note_on_c, 0, 68, 82
1, 37867, Note_off_c, 0, 83, 59
1, 37894, Note_off_c, 0, 68, 68
1, 37923, Note_off_c, 0, 85, 64
1, 37954, Note_on_c, 0, 87, 55
1, 37968, Note_on_c, 0, 90, 81
1, 37974, Note_off_c, 0, 87, 61
1, 37979, Note_on_c, 0, 71, 96
1, 38024, Note_off_c, 0, 71, 69
1, 38033, Control_c, 0, 64, 115
1, 38036, Note_on_c, 0, 88, 72
1, 38048, Control_c, 0, 64, 68
1, 38058, Note_off_c, 0, 90, 64
1, 38062, Control_c, 0, 64, 60
1, 38075, Note_on_c, 0, 69, 91
1, 38076, Note_on_c, 0, 86, 69
1, 38077, Control_c, 0, 64, 59
1, 38092, Control_c, 0, 64, 66
1, 38107, Control_c, 0, 64, 115
1, 38122, Control_c, 0, 64, 127
1, 38127, Note_on_c, 0, 84, 67
1, 38128, Note_off_c, 0, 88, 64
1, 38140, Note_off_c, 0, 86, 62
1, 38149, Note_off_c, 0, 69, 62
1, 38153, Note_on_c, 0, 62, 88
1, 38157, Note_off_c, 0, 84, 66
1, 38165, Note_on_c, 0, 78, 85
1, 38183, Note_off_c, 0, 78, 75
1, 38200, Note_off_c, 0, 62, 61
1, 38248, Note_on_c, 0, 76, 77
1, 38287, Note_on_c, 0, 74, 67
1, 38297, Note_off_c, 0, 76, 67
1, 38319, Note_off_c, 0, 74, 67
1, 38344, Note_on_c, 0, 72, 48
1, 38365, Note_on_c, 0, 66, 82
1, 38373, Note_off_c, 0, 72, 63
1, 38380, Note_off_c, 0, 66, 71
1, 38596, Control_c, 0, 64, 117
1, 38611, Control_c, 0, 64, 69
1, 38634, Control_c, 0, 64, 54
1, 38649, Control_c, 0, 64, 23
1, 38663, Control_c, 0, 64, 0
1, 38714, Note_on_c, 0, 100, 84
1, 38737, Control_c, 0, 64, 28
1, 38752, Control_c, 0, 64, 48
1, 38759, Note_on_c, 0, 98, 77
1, 38767, Control_c, 0, 64, 67
1, 38781, Control_c, 0, 64, 127
1, 38789, Note_off_c, 0, 100, 64
1, 38797, Note_on_c, 0, 96, 70
1, 38841, Note_on_c, 0, 94, 79
1, 38855, Note_off_c, 0, 98, 58
1, 38860, Note_off_c, 0, 96, 63
1, 38876, Note_on_c, 0, 91, 79
1, 38879, Note_off_c, 0, 94, 68
1, 38896, Note_off_c, 0, 91, 68
1, 38900, Note_on_c, 0, 88, 82
1, 38936, Note_off_c, 0, 88, 69
1, 38948, Note_on_c, 0, 86, 71
1, 38986, Note_on_c, 0, 84, 55
1, 38990, Note_off_c, 0, 86, 61
1, 39013, Note_off_c, 0, 84, 65
1, 39017, Note_on_c, 0, 82, 41
1, 39022, Note_on_c, 0, 79, 79
1, 39047, Note_off_c, 0, 82, 33
1, 39066, Note_off_c, 0, 79, 65
1, 39090, Note_on_c, 0, 76, 69
1, 39123, Note_on_c, 0, 74, 71
1, 39144, Note_off_c, 0, 76, 66
1, 39161, Note_on_c, 0, 72, 72
1, 39214, Note_off_c, 0, 74, 60
1, 39226, Note_on_c, 0, 70, 77
1, 39230, Note_off_c, 0, 72, 64
1, 39279, Note_on_c, 0, 60, 96
1, 39316, Control_c, 0, 64, 86
1, 39320, Note_off_c, 0, 70, 56
1, 39330, Control_c, 0, 64, 55
1, 39345, Control_c, 0, 64, 0
1, 39359, Note_on_c, 0, 67, 101
1, 39412, Control_c, 0, 64, 18
1, 39427, Note_off_c, 0, 60, 66
1, 39427, Control_c, 0, 64, 45
1, 39434, Note_off_c, 0, 67, 63
1, 39442, Control_c, 0, 64, 77
1, 39446, Note_on_c, 0, 70, 78
1, 39457, Control_c, 0, 64, 127
1, 39508, Note_off_c, 0, 70, 65
1, 39510, Note_on_c, 0, 72, 71
1, 39565, Note_off_c, 0, 72, 61
1, 39571, Note_on_c, 0, 74, 63
1, 39591, Note_on_c, 0, 76, 68
1, 39613, Note_off_c, 0, 76, 69
1, 39624, Note_off_c, 0, 74, 60
1, 39674, Note_on_c, 0, 79, 71
1, 39726, Note_off_c, 0, 79, 58
1, 39732, Note_on_c, 0, 82, 67
1, 39760, Note_on_c, 0, 84, 68
1, 39785, Note_off_c, 0, 82, 64
1, 39798, Note_on_c, 0, 86, 74
1, 39809, Note_off_c, 0, 84, 61
1, 39829, Note_off_c, 0, 86, 63
1, 39839, Note_on_c, 0, 88, 70
1, 39863, Note_off_c, 0, 88, 71
1, 39881, Note_on_c, 0, 91, 80
1, 39943, Note_on_c, 0, 94, 83
1, 39950, Note_off_c, 0, 91, 46
1, 39972, Note_on_c, 0, 96, 84
1, 39979, Note_off_c, 0, 94, 64
1, 40034, Note_on_c, 0, 98, 72
1, 40050, Note_off_c, 0, 96, 63
1, 40060, Note_off_c, 0, 98, 67
1, 40066, Note_on_c, 0, 100, 78
1, 40113, Note_on_c, 0, 98, 75
1, 40134, Note_off_c, 0, 100, 67
1, 40162, Note_on_c, 0, 96, 74
1, 40203, Note_on_c, 0, 94, 81
1, 40205, Note_off_c, 0, 98, 64
1, 40223, Note_off_c, 0, 96, 64
1, 40245, Note_off_c, 0, 94, 68
1, 40248, Note_on_c, 0, 91, 80
1, 40270, Note_off_c, 0, 91, 68
1, 40277, Note_on_c, 0, 88, 75
1, 40297, Note_off_c, 0, 88, 73
1, 40326, Note_on_c, 0, 86, 75
1, 40361, Note_off_c, 0, 86, 62
1, 40367, Note_on_c, 0, 84, 59
1, 40395, Note_off_c, 0, 84, 62
1, 40417, Note_on_c, 0, 79, 69
1, 40438, Note_on_c, 0, 81, 45
1, 40447, Note_off_c, 0, 79, 60
1, 40464, Note_off_c, 0, 81, 56
1, 40472, Note_on_c, 0, 88, 75
1, 40520, Note_on_c, 0, 86, 79
1, 40527, Note_off_c, 0, 88, 57
1, 40560, Note_on_c, 0, 84, 63
1, 40602, Note_off_c, 0, 86, 61
1, 40602, Note_on_c, 0, 82, 64
1, 40609, Note_off_c, 0, 84, 60
1, 40638, Note_off_c, 0, 82, 66
1, 40646, Note_on_c, 0, 79, 66
1, 40662, Note_off_c, 0, 79, 66
1, 40665, Note_on_c, 0, 76, 71
1, 40704, Note_off_c, 0, 76, 64
1, 40714, Note_on_c, 0, 74, 73
1, 40751, Note_off_c, 0, 74, 62
1, 40774, Note_on_c, 0, 72, 57
1, 40790, Note_on_c, 0, 70, 69
1, 40797, Note_off_c, 0, 72, 65
1, 40825, Note_on_c, 0, 67, 66
1, 40843, Note_off_c, 0, 70, 64
1, 40846, Note_on_c, 0, 68, 12
1, 40857, Note_off_c, 0, 67, 65
1, 40896, Note_on_c, 0, 76, 69
1, 40904, Note_off_c, 0, 68, 48
1, 40939, Note_on_c, 0, 74, 66
1, 40962, Note_off_c, 0, 76, 63
1, 40989, Note_on_c, 0, 72, 60
1, 41026, Note_off_c, 0, 74, 64
1, 41026, Note_on_c, 0, 70, 65
1, 41031, Note_off_c, 0, 72, 58
1, 41067, Note_off_c, 0, 70, 63
1, 41077, Note_on_c, 0, 67, 58
1, 41118, Note_off_c, 0, 67, 64
1, 41125, Note_on_c, 0, 64, 54
1, 41151, Note_off_c, 0, 64, 64
1, 41154, Note_on_c, 0, 62, 71
1, 41183, Note_off_c, 0, 62, 66
1, 41218, Note_on_c, 0, 58, 66
1, 41254, Note_on_c, 0, 55, 62
1, 41283, Note_off_c, 0, 55, 67
1, 41292, Note_off_c, 0, 58, 61
1, 41330, Note_on_c, 0, 76, 67
1, 41383, Note_on_c, 0, 74, 61
1, 41407, Note_off_c, 0, 76, 61
1, 41423, Note_on_c, 0, 72, 50
1, 41454, Note_off_c, 0, 72, 59
1, 41460, Note_off_c, 0, 74, 61
1, 41465, Note_on_c, 0, 70, 58
1, 41499, Note_off_c, 0, 70, 63
1, 41513, Note_on_c, 0, 67, 60
1, 41526, Note_on_c, 0, 64, 60
1, 41536, Note_off_c, 0, 67, 62
1, 41572, Note_off_c, 0, 64, 60
1, 41582, Note_on_c, 0, 62, 63
1, 41625, Note_off_c, 0, 62, 63
1, 41665, Note_on_c, 0, 58, 55
1, 41738, Note_on_c, 0, 55, 57
1, 41740, Note_off_c, 0, 58, 60
1, 41792, Control_c, 0, 64, 90
1, 41806, Control_c, 0, 64, 64
1, 41820, Note_on_c, 0, 48, 65
1, 41821, Control_c, 0, 64, 51
1, 41836, Control_c, 0, 64, 46
1, 41850, Control_c, 0, 64, 54
1, 41863, Note_off_c, 0, 48, 65
1, 41865, Control_c, 0, 64, 65
1, 41880, Control_c, 0, 64, 99
1, 41895, Control_c, 0, 64, 127
1, 41971, Note_off_c, 0, 55, 63
1, 41979, Note_on_c, 0, 58, 56
1, 42026, Note_on_c, 0, 61, 63
1, 42029, Note_off_c, 0, 58, 63
1, 42072, Note_off_c, 0, 61, 62
1, 42086, Note_on_c, 0, 62, 45
1, 42117, Note_off_c, 0, 62, 54
1, 42131, Note_on_c, 0, 64, 36
1, 42146, Note_on_c, 0, 67, 40
1, 42166, Note_off_c, 0, 64, 52
1, 42182, Note_off_c, 0, 67, 52
1, 42195, Note_on_c, 0, 70, 51
1, 42210, Note_on_c, 0, 73, 59
1, 42245, Note_off_c, 0, 70, 58
1, 42245, Note_off_c, 0, 73, 62
1, 42272, Note_on_c, 0, 74, 27
1, 42284, Note_on_c, 0, 76, 68
1, 42326, Note_off_c, 0, 74, 0
1, 42326, Note_on_c, 0, 74, 20
1, 42350, Note_off_c, 0, 76, 63
1, 42396, Note_on_c, 0, 72, 47
1, 42433, Note_off_c, 0, 72, 48
1, 42442, Note_on_c, 0, 70, 34
1, 42471, Note_off_c, 0, 74, 33
1, 42473, Note_off_c, 0, 70, 52
1, 42474, Note_on_c, 0, 67, 40
1, 42497, Note_on_c, 0, 64, 36
1, 42501, Note_off_c, 0, 67, 56
1, 42516, Note_on_c, 0, 62, 58
1, 42532, Note_off_c, 0, 64, 52
1, 42552, Note_off_c, 0, 62, 62
1, 42586, Note_on_c, 0, 58, 52
1, 42643, Note_off_c, 0, 58, 61
1, 42647, Note_on_c, 0, 55, 51
1, 42703, Control_c, 0, 64, 73
1, 42718, Control_c, 0, 64, 61
1, 42722, Note_on_c, 0, 48, 52
1, 42733, Control_c, 0, 64, 53
1, 42747, Control_c, 0, 64, 54
1, 42748, Note_off_c, 0, 48, 62
1, 42762, Control_c, 0, 64, 61
1, 42777, Control_c, 0, 64, 75
1, 42792, Control_c, 0, 64, 127
1, 42844, Note_off_c, 0, 55, 62
1, 42866, Note_on_c, 0, 58, 47
1, 42905, Note_off_c, 0, 58, 63
1, 42914, Note_on_c, 0, 61, 57
1, 42954, Note_off_c, 0, 61, 64
1, 43023, Poly_aftertouch_c, 0, 62, 127
1, 43026, Note_on_c, 0, 64, 31
1, 43051, Note_on_c, 0, 67, 51
1, 43062, Note_off_c, 0, 64, 52
1, 43066, Poly_aftertouch_c, 0, 62, 0
1, 43085, Note_off_c, 0, 67, 50
1, 43102, Note_on_c, 0, 70, 51
1, 43129, Note_on_c, 0, 73, 58
1, 43155, Control_c, 0, 67, 15
1, 43170, Control_c, 0, 67, 25
1, 43184, Control_c, 0, 67, 37
1, 43187, Note_off_c, 0, 73, 63
1, 43198, Note_off_c, 0, 70, 47
1, 43199, Control_c, 0, 67, 50
1, 43214, Control_c, 0, 67, 61
1, 43219, Note_on_c, 0, 76, 60
1, 43229, Control_c, 0, 67, 71
1, 43244, Control_c, 0, 67, 81
1, 43258, Control_c, 0, 67, 92
1, 43261, Note_off_c, 0, 76, 56
1, 43267, Note_on_c, 0, 74, 59
1, 43273, Control_c, 0, 67, 99
1, 43288, Control_c, 0, 67, 106
1, 43303, Control_c, 0, 67, 113
1, 43318, Control_c, 0, 67, 119
1, 43325, Note_on_c, 0, 72, 41
1, 43333, Control_c, 0, 67, 124
1, 43348, Control_c, 0, 67, 127
1, 43360, Note_off_c, 0, 72, 48
1, 43372, Note_on_c, 0, 64, 45
1, 43374, Note_on_c, 0, 70, 27
1, 43387, Note_off_c, 0, 74, 35
1, 43406, Note_on_c, 0, 67, 37
1, 43411, Note_off_c, 0, 70, 51
1, 43419, Note_off_c, 0, 64, 45
1, 43428, Note_on_c, 0, 62, 56
1, 43439, Note_off_c, 0, 67, 54
1, 43467, Note_off_c, 0, 62, 60
1, 43496, Note_on_c, 0, 58, 50
1, 43554, Note_off_c, 0, 58, 58
1, 43562, Note_on_c, 0, 55, 52
1, 43643, Control_c, 0, 64, 89
1, 43658, Control_c, 0, 64, 69
1, 43673, Control_c, 0, 64, 63
1, 43685, Note_on_c, 0, 48, 54
1, 43687, Control_c, 0, 64, 62
1, 43702, Control_c, 0, 64, 66
1, 43715, Note_off_c, 0, 48, 63
1, 43717, Control_c, 0, 64, 75
1, 43732, Control_c, 0, 64, 104
1, 43749, Control_c, 0, 64, 127
1, 43757, Note_off_c, 0, 55, 61
1, 43792, Note_on_c, 0, 58, 43
1, 43850, Note_off_c, 0, 58, 61
1, 43852, Note_on_c, 0, 61, 55
1, 43913, Note_off_c, 0, 61, 62
1, 43938, Note_on_c, 0, 62, 39
1, 43971, Note_off_c, 0, 62, 53
1, 43974, Note_on_c, 0, 64, 41
1, 44003, Note_off_c, 0, 64, 52
1, 44027, Note_on_c, 0, 67, 49
1, 44060, Note_off_c, 0, 67, 50
1, 44072, Note_on_c, 0, 70, 62
1, 44107, Note_on_c, 0, 73, 65
1, 44136, Note_off_c, 0, 70, 56
1, 44176, Note_off_c, 0, 73, 63
1, 44209, Note_on_c, 0, 76, 58
1, 44232, Note_on_c, 0, 74, 26
1, 44245, Note_off_c, 0, 76, 61
1, 44309, Note_on_c, 0, 72, 46
1, 44336, Note_off_c, 0, 72, 55
1, 44347, Note_off_c, 0, 74, 53
1, 44349, Note_on_c, 0, 70, 44
1, 44376, Note_off_c, 0, 70, 58
1, 44395, Note_on_c, 0, 64, 41
1, 44403, Note_on_c, 0, 67, 31
1, 44436, Note_off_c, 0, 67, 54
1, 44437, Note_on_c, 0, 62, 53
1, 44437, Note_off_c, 0, 64, 47
1, 44477, Note_off_c, 0, 62, 61
1, 44508, Note_on_c, 0, 58, 53
1, 44587, Note_on_c, 0, 55, 56
1, 44587, Note_off_c, 0, 58, 61
1, 44713, Control_c, 0, 67, 124
1, 44728, Control_c, 0, 67, 121
1, 44742, Control_c, 0, 67, 117
1, 44757, Note_on_c, 0, 48, 58
1, 44757, Control_c, 0, 67, 113
1, 44772, Control_c, 0, 67, 108
1, 44787, Control_c, 0, 67, 101
1, 44802, Note_off_c, 0, 48, 61
1, 44802, Control_c, 0, 67, 92
1, 44816, Control_c, 0, 67, 80
1, 44831, Control_c, 0, 67, 65
1, 44846, Control_c, 0, 67, 45
1, 44861, Control_c, 0, 67, 23
1, 44875, Control_c, 0, 67, 0
1, 45035, Note_on_c, 0, 58, 54
1, 45053, Note_off_c, 0, 55, 52
1, 45114, Note_on_c, 0, 60, 71
1, 45147, Note_off_c, 0, 58, 62
1, 45166, Note_on_c, 0, 62, 65
1, 45174, Note_off_c, 0, 60, 65
1, 45202, Note_off_c, 0, 62, 63
1, 45214, Note_on_c, 0, 64, 75
1, 45238, Note_off_c, 0, 64, 69
1, 45248, Note_on_c, 0, 67, 82
1, 45279, Note_on_c, 0, 70, 65
1, 45292, Note_on_c, 0, 72, 61
1, 45340, Note_on_c, 0, 74, 58
1, 45346, Note_on_c, 0, 76, 95
1, 45361, Note_off_c, 0, 67, 37
1, 45442, Note_off_c, 0, 76, 61
1, 45446, Note_off_c, 0, 74, 62
1, 45450, Note_off_c, 0, 72, 28
1, 45461, Note_off_c, 0, 70, 61
1, 45506, Control_c, 0, 64, 76
1, 45513, Note_on_c, 0, 73, 93
1, 45514, Note_on_c, 0, 33, 87
1, 45514, Note_on_c, 0, 71, 93
1, 45515, Note_on_c, 0, 77, 100
1, 45517, Note_on_c, 0, 65, 96
1, 45521, Control_c, 0, 64, 47
1, 45531, Note_on_c, 0, 31, 76
1, 45533, Note_off_c, 0, 65, 77
1, 45536, Control_c, 0, 64, 0
1, 45560, Note_off_c, 0, 31, 38
1, 45560, Note_off_c, 0, 71, 63
1, 45560, Note_off_c, 0, 73, 64
1, 45563, Note_off_c, 0, 77, 67
1, 45563, Note_off_c, 0, 33, 65
1, 45580, Control_c, 0, 64, 33
1, 45591, Note_on_c, 0, 43, 71
1, 45595, Control_c, 0, 64, 51
1, 45610, Control_c, 0, 64, 70
1, 45616, Note_off_c, 0, 43, 66
1, 45625, Control_c, 0, 64, 127
1, 45659, Note_on_c, 0, 83, 100
1, 45661, Note_on_c, 0, 71, 96
1, 45670, Note_on_c, 0, 49, 76
1, 45724, Note_off_c, 0, 49, 65
1, 45727, Note_on_c, 0, 51, 83
1, 45755, Note_off_c, 0, 51, 67
1, 45782, Note_on_c, 0, 53, 54
1, 45807, Note_off_c, 0, 53, 59
1, 45862, Note_on_c, 0, 59, 69
1, 45907, Note_off_c, 0, 59, 61
1, 45913, Note_on_c, 0, 61, 58
1, 45941, Note_off_c, 0, 61, 68
1, 45953, Note_on_c, 0, 63, 58
1, 45960, Note_on_c, 0, 65, 60
1, 45979, Note_off_c, 0, 65, 68
1, 45989, Note_off_c, 0, 63, 57
1, 46029, Note_on_c, 0, 59, 53
1, 46046, Note_off_c, 0, 59, 64
1, 46119, Note_on_c, 0, 53, 70
1, 46165, Note_off_c, 0, 53, 46
1, 46202, Note_on_c, 0, 51, 47
1, 46211, Note_on_c, 0, 49, 63
1, 46252, Note_off_c, 0, 49, 61
1, 46253, Note_off_c, 0, 51, 63
1, 46267, Note_on_c, 0, 43, 77
1, 46278, Note_off_c, 0, 71, 47
1, 46335, Note_off_c, 0, 43, 61
1, 46343, Note_on_c, 0, 49, 74
1, 46346, Note_off_c, 0, 83, 53
1, 46379, Note_off_c, 0, 49, 65
1, 46379, Note_on_c, 0, 51, 67
1, 46408, Note_off_c, 0, 51, 68
1, 46489, Poly_aftertouch_c, 0, 53, 127
1, 46511, Note_on_c, 0, 59, 54
1, 46516, Poly_aftertouch_c, 0, 53, 0
1, 46549, Note_off_c, 0, 59, 63
1, 46570, Note_on_c, 0, 63, 67
1, 46600, Note_off_c, 0, 63, 64
1, 46645, Note_on_c, 0, 59, 54
1, 46664, Note_off_c, 0, 59, 63
1, 46716, Note_on_c, 0, 53, 72
1, 46749, Note_off_c, 0, 53, 67
1, 46800, Note_on_c, 0, 51, 47
1, 46829, Note_off_c, 0, 51, 55
1, 46839, Note_on_c, 0, 49, 37
1, 46879, Note_off_c, 0, 49, 56
1, 46898, Note_on_c, 0, 43, 80
1, 47013, Note_on_c, 0, 31, 91
1, 47026, Note_off_c, 0, 43, 56
1, 47033, Control_c, 0, 64, 68
1, 47036, Note_on_c, 0, 77, 102
1, 47037, Note_on_c, 0, 65, 101
1, 47039, Note_on_c, 0, 71, 85
1, 47039, Note_on_c, 0, 73, 88
1, 47048, Control_c, 0, 64, 48
1, 47063, Control_c, 0, 64, 27
1, 47077, Control_c, 0, 64, 32
1, 47087, Note_off_c, 0, 65, 63
1, 47092, Control_c, 0, 64, 48
1, 47098, Note_off_c, 0, 31, 64
1, 47107, Control_c, 0, 64, 62
1, 47121, Note_off_c, 0, 71, 66
1, 47122, Control_c, 0, 64, 108
1, 47125, Note_on_c, 0, 43, 72
1, 47127, Note_off_c, 0, 77, 64
1, 47137, Note_off_c, 0, 73, 64
1, 47137, Control_c, 0, 64, 127
1, 47154, Note_off_c, 0, 43, 62
1, 47215, Note_on_c, 0, 49, 73
1, 47243, Note_on_c, 0, 85, 95
1, 47244, Note_on_c, 0, 73, 91
1, 47256, Note_off_c, 0, 49, 65
1, 47257, Note_off_c, 0, 85, 76
1, 47260, Note_off_c, 0, 73, 74
1, 47265, Note_on_c, 0, 51, 61
1, 47289, Note_off_c, 0, 51, 62
1, 47324, Note_on_c, 0, 53, 32
1, 47355, Note_off_c, 0, 53, 60
1, 47363, Note_on_c, 0, 83, 91
1, 47366, Note_on_c, 0, 71, 89
1, 47381, Note_on_c, 0, 59, 71
1, 47429, Note_off_c, 0, 59, 58
1, 47446, Note_on_c, 0, 63, 66
1, 47470, Note_on_c, 0, 65, 38
1, 47494, Note_off_c, 0, 63, 54
1, 47496, Note_off_c, 0, 65, 62
1, 47535, Note_on_c, 0, 59, 60
1, 47556, Note_off_c, 0, 59, 60
1, 47625, Note_on_c, 0, 53, 54
1, 47676, Note_off_c, 0, 53, 52
1, 47704, Note_on_c, 0, 51, 47
1, 47730, Note_off_c, 0, 51, 63
1, 47750, Note_on_c, 0, 43, 63
1, 47762, Poly_aftertouch_c, 0, 49, 127
1, 47784, Note_off_c, 0, 71, 35
1, 47807, Note_off_c, 0, 43, 56
1, 47840, Note_on_c, 0, 51, 53
1, 47864, Poly_aftertouch_c, 0, 49, 0
1, 47879, Note_off_c, 0, 51, 65
1, 47879, Note_off_c, 0, 83, 55
1, 47899, Note_on_c, 0, 53, 42
1, 47929, Note_off_c, 0, 53, 57
1, 47992, Note_on_c, 0, 59, 45
1, 48016, Note_on_c, 0, 61, 65
1, 48030, Note_off_c, 0, 59, 52
1, 48044, Note_off_c, 0, 61, 69
1, 48071, Note_on_c, 0, 63, 46
1, 48098, Note_off_c, 0, 63, 62
1, 48126, Note_on_c, 0, 59, 56
1, 48152, Note_off_c, 0, 59, 66
1, 48224, Note_on_c, 0, 53, 60
1, 48244, Note_off_c, 0, 53, 66
1, 48390, Poly_aftertouch_c, 0, 51, 0
1, 48394, Poly_aftertouch_c, 0, 49, 127
1, 48414, Note_on_c, 0, 43, 66
1, 48433, Poly_aftertouch_c, 0, 49, 0
1, 48552, Note_on_c, 0, 31, 65
1, 48585, Note_off_c, 0, 43, 34
1, 48587, Note_on_c, 0, 77, 82
1, 48590, Note_on_c, 0, 73, 70
1, 48590, Control_c, 0, 64, 94
1, 48591, Note_on_c, 0, 71, 63
1, 48594, Note_on_c, 0, 65, 64
1, 48605, Control_c, 0, 64, 66
1, 48620, Control_c, 0, 64, 53
1, 48635, Control_c, 0, 64, 47
1, 48640, Note_off_c, 0, 31, 63
1, 48650, Control_c, 0, 64, 49
1, 48651, Note_off_c, 0, 65, 0
1, 48651, Note_on_c, 0, 65, 7
1, 48664, Control_c, 0, 64, 57
1, 48679, Control_c, 0, 64, 67
1, 48688, Note_on_c, 0, 43, 58
1, 48694, Control_c, 0, 64, 104
1, 48709, Control_c, 0, 64, 127
1, 48717, Note_off_c, 0, 43, 63
1, 48739, Note_off_c, 0, 65, 40
1, 48773, Note_off_c, 0, 77, 61
1, 48783, Note_on_c, 0, 49, 66
1, 48793, Note_off_c, 0, 71, 62
1, 48821, Note_off_c, 0, 73, 61
1, 48847, Note_on_c, 0, 51, 66
1, 48847, Note_off_c, 0, 49, 64
1, 48874, Note_off_c, 0, 51, 68
1, 48891, Note_on_c, 0, 53, 62
1, 48916, Note_off_c, 0, 53, 65
1, 48984, Note_on_c, 0, 59, 62
1, 49016, Note_off_c, 0, 59, 62
1, 49020, Note_on_c, 0, 61, 62
1, 49045, Note_on_c, 0, 85, 89
1, 49047, Note_on_c, 0, 73, 87
1, 49058, Note_off_c, 0, 61, 66
1, 49074, Note_on_c, 0, 63, 58
1, 49096, Note_off_c, 0, 63, 64
1, 49099, Note_on_c, 0, 65, 70
1, 49113, Note_off_c, 0, 73, 62
1, 49121, Note_off_c, 0, 85, 63
1, 49166, Note_on_c, 0, 63, 78
1, 49188, Note_off_c, 0, 65, 53
1, 49206, Note_on_c, 0, 61, 66
1, 49238, Note_off_c, 0, 63, 62
1, 49241, Note_on_c, 0, 59, 61
1, 49315, Note_on_c, 0, 83, 90
1, 49317, Note_on_c, 0, 71, 85
1, 49317, Note_off_c, 0, 61, 65
1, 49324, Note_on_c, 0, 53, 60
1, 49324, Note_off_c, 0, 59, 60
1, 49336, Note_off_c, 0, 71, 74
1, 49352, Note_on_c, 0, 55, 40
1, 49361, Note_off_c, 0, 83, 64
1, 49364, Note_off_c, 0, 53, 59
1, 49386, Note_off_c, 0, 55, 60
1, 49397, Note_on_c, 0, 59, 60
1, 49425, Note_on_c, 0, 61, 76
1, 49461, Note_off_c, 0, 59, 59
1, 49465, Note_on_c, 0, 82, 26
1, 49489, Note_on_c, 0, 63, 73
1, 49504, Note_off_c, 0, 82, 53
1, 49513, Note_off_c, 0, 61, 63
1, 49540, Note_off_c, 0, 63, 65
1, 49543, Note_on_c, 0, 83, 82
1, 49543, Note_on_c, 0, 87, 92
1, 49546, Note_on_c, 0, 75, 91
1, 49552, Note_on_c, 0, 77, 54
1, 49558, Note_on_c, 0, 82, 65
1, 49565, Note_on_c, 0, 71, 67
1, 49575, Note_on_c, 0, 69, 35
1, 49582, Note_off_c, 0, 71, 71
1, 49598, Note_off_c, 0, 75, 61
1, 49608, Note_off_c, 0, 69, 51
1, 49657, Note_on_c, 0, 73, 62
1, 49659, Note_off_c, 0, 87, 64
1, 49664, Note_off_c, 0, 77, 35
1, 49692, Note_off_c, 0, 73, 64
1, 49730, Note_on_c, 0, 75, 23
1, 49745, Note_on_c, 0, 77, 67
1, 49781, Note_off_c, 0, 83, 0
1, 49782, Note_off_c, 0, 75, 0
1, 49784, Note_off_c, 0, 77, 55
1, 49797, Note_on_c, 0, 75, 36
1, 49818, Poly_aftertouch_c, 0, 83, 127
1, 49837, Note_on_c, 0, 73, 70
1, 49840, Note_off_c, 0, 75, 61
1, 49840, Note_off_c, 0, 82, 60
1, 49866, Note_off_c, 0, 73, 70
1, 49876, Poly_aftertouch_c, 0, 83, 0
1, 49901, Note_on_c, 0, 85, 100
1, 49907, Note_on_c, 0, 73, 103
1, 49918, Note_on_c, 0, 71, 76
1, 49948, Note_off_c, 0, 73, 65
1, 49949, Note_off_c, 0, 85, 69
1, 49971, Note_off_c, 0, 71, 66
1, 49991, Note_on_c, 0, 65, 78
1, 50063, Note_on_c, 0, 63, 54
1, 50064, Note_off_c, 0, 65, 63
1, 50082, Note_on_c, 0, 61, 78
1, 50099, Note_off_c, 0, 63, 66
1, 50124, Note_off_c, 0, 61, 65
1, 50159, Note_on_c, 0, 67, 94
1, 50159, Note_on_c, 0, 79, 94
1, 50167, Note_on_c, 0, 59, 75
1, 50174, Note_on_c, 0, 69, 58
1, 50179, Note_off_c, 0, 67, 66
1, 50179, Note_off_c, 0, 79, 62
1, 50189, Note_on_c, 0, 78, 35
1, 50190, Note_off_c, 0, 78, 127
1, 50195, Note_off_c, 0, 69, 64
1, 50219, Note_off_c, 0, 59, 62
1, 50239, Note_on_c, 0, 53, 75
1, 50281, Note_off_c, 0, 53, 64
1, 50286, Note_on_c, 0, 51, 60
1, 50288, Note_on_c, 0, 49, 77
1, 50308, Note_off_c, 0, 49, 70
1, 50310, Note_off_c, 0, 51, 60
1, 50471, Note_on_c, 0, 31, 93
1, 50473, Control_c, 0, 64, 62
1, 50474, Note_on_c, 0, 71, 90
1, 50475, Note_on_c, 0, 65, 106
1, 50475, Note_on_c, 0, 77, 100
1, 50476, Note_on_c, 0, 73, 89
1, 50488, Control_c, 0, 64, 31
1, 50492, Note_off_c, 0, 65, 76
1, 50503, Control_c, 0, 64, 0
1, 50505, Note_on_c, 0, 32, 39
1, 50506, Note_off_c, 0, 32, 127
1, 50518, Control_c, 0, 64, 21
1, 50526, Note_off_c, 0, 71, 66
1, 50527, Note_off_c, 0, 31, 63
1, 50529, Note_off_c, 0, 73, 62
1, 50533, Control_c, 0, 64, 44
1, 50539, Note_off_c, 0, 77, 65
1, 50548, Control_c, 0, 64, 61
1, 50559, Note_on_c, 0, 43, 72
1, 50562, Control_c, 0, 64, 127
1, 50588, Note_off_c, 0, 43, 65
1, 50643, Note_on_c, 0, 83, 95
1, 50649, Note_on_c, 0, 71, 89
1, 50658, Note_on_c, 0, 49, 69
1, 50707, Note_off_c, 0, 49, 63
1, 50716, Note_on_c, 0, 51, 60
1, 50739, Note_off_c, 0, 51, 64
1, 50771, Note_on_c, 0, 53, 35
1, 50808, Note_off_c, 0, 53, 54
1, 50857, Note_on_c, 0, 59, 51
1, 50888, Note_off_c, 0, 59, 64
1, 50921, Note_on_c, 0, 63, 49
1, 50940, Note_on_c, 0, 65, 34
1, 50948, Note_off_c, 0, 63, 63
1, 50973, Note_off_c, 0, 65, 55
1, 51006, Note_on_c, 0, 59, 46
1, 51030, Note_off_c, 0, 59, 59
1, 51061, Note_off_c, 0, 83, 58
1, 51083, Note_on_c, 0, 53, 68
1, 51144, Note_off_c, 0, 53, 52
1, 51193, Note_on_c, 0, 49, 60
1, 51193, Note_on_c, 0, 51, 29
1, 51196, Note_off_c, 0, 71, 60
1, 51235, Note_off_c, 0, 51, 54
1, 51237, Note_off_c, 0, 49, 65
1, 51245, Note_on_c, 0, 43, 71
1, 51251, Control_c, 0, 64, 66
1, 51266, Control_c, 0, 64, 53
1, 51281, Control_c, 0, 64, 47
1, 51296, Control_c, 0, 64, 55
1, 51306, Note_off_c, 0, 43, 60
1, 51310, Control_c, 0, 64, 65
1, 51313, Note_on_c, 0, 49, 59
1, 51325, Control_c, 0, 64, 101
1, 51340, Control_c, 0, 64, 127
1, 51345, Note_on_c, 0, 51, 66
1, 51360, Note_off_c, 0, 49, 66
1, 51392, Note_off_c, 0, 51, 66
1, 51399, Note_on_c, 0, 53, 67
1, 51417, Note_off_c, 0, 53, 69
1, 51444, Note_on_c, 0, 59, 61
1, 51488, Note_off_c, 0, 59, 59
1, 51489, Note_on_c, 0, 61, 69
1, 51515, Note_on_c, 0, 63, 69
1, 51519, Note_off_c, 0, 61, 66
1, 51558, Note_on_c, 0, 65, 66
1, 51563, Note_off_c, 0, 63, 67
1, 51587, Note_off_c, 0, 65, 68
1, 51615, Note_on_c, 0, 55, 71
1, 51672, Note_off_c, 0, 55, 63
1, 51673, Note_on_c, 0, 61, 75
1, 51714, Note_on_c, 0, 63, 68
1, 51733, Note_off_c, 0, 61, 64
1, 51763, Note_on_c, 0, 65, 71
1, 51767, Note_off_c, 0, 63, 61
1, 51784, Note_off_c, 0, 65, 68
1, 51793, Note_on_c, 0, 71, 69
1, 51836, Note_on_c, 0, 73, 66
1, 51843, Note_off_c, 0, 71, 63
1, 51858, Note_on_c, 0, 75, 76
1, 51894, Note_off_c, 0, 73, 65
1, 51897, Note_on_c, 0, 77, 66
1, 51913, Note_off_c, 0, 75, 64
1, 51922, Note_off_c, 0, 77, 66
1, 51943, Note_on_c, 0, 67, 77
1, 51998, Note_off_c, 0, 67, 61
1, 52004, Note_on_c, 0, 73, 77
1, 52050, Note_on_c, 0, 75, 75
1, 52056, Note_off_c, 0, 73, 65
1, 52089, Note_on_c, 0, 77, 80
1, 52096, Note_off_c, 0, 75, 58
1, 52117, Note_off_c, 0, 77, 70
1, 52126, Note_on_c, 0, 83, 78
1, 52168, Note_on_c, 0, 85, 75
1, 52195, Note_off_c, 0, 83, 56
1, 52204, Note_on_c, 0, 87, 76
1, 52240, Note_off_c, 0, 85, 65
1, 52252, Note_on_c, 0, 89, 57
1, 52262, Note_off_c, 0, 87, 66
1, 52272, Note_off_c, 0, 89, 62
1, 52286, Note_on_c, 0, 79, 81
1, 52340, Note_off_c, 0, 79, 60
1, 52353, Note_on_c, 0, 85, 78
1, 52391, Note_on_c, 0, 87, 74
1, 52396, Note_off_c, 0, 85, 67
1, 52433, Note_off_c, 0, 87, 66
1, 52439, Note_on_c, 0, 89, 78
1, 52461, Note_off_c, 0, 89, 68
1, 52472, Note_on_c, 0, 95, 88
1, 52544, Note_on_c, 0, 97, 84
1, 52562, Note_off_c, 0, 95, 62
1, 52591, Note_on_c, 0, 99, 75
1, 52602, Note_off_c, 0, 97, 66
1, 52612, Note_off_c, 0, 99, 70
1, 52666, Note_on_c, 0, 101, 97
1, 52675, Control_c, 0, 64, 80
1, 52690, Control_c, 0, 64, 56
1, 52705, Control_c, 0, 64, 36
1, 52734, Control_c, 0, 64, 53
1, 52740, Note_on_c, 0, 99, 86
1, 52749, Control_c, 0, 64, 69
1, 52763, Control_c, 0, 64, 127
1, 52794, Note_on_c, 0, 97, 79
1, 52812, Note_off_c, 0, 101, 56
1, 52838, Note_on_c, 0, 95, 80
1, 52879, Note_off_c, 0, 99, 62
1, 52892, Note_off_c, 0, 95, 68
1, 52892, Note_off_c, 0, 97, 63
1, 52893, Note_on_c, 0, 89, 61
1, 52901, Note_on_c, 0, 94, 82
1, 52912, Note_off_c, 0, 89, 66
1, 52922, Note_off_c, 0, 94, 70
1, 52949, Note_on_c, 0, 92, 81
1, 52989, Note_on_c, 0, 90, 62
1, 53011, Note_on_c, 0, 87, 77
1, 53012, Note_off_c, 0, 92, 66
1, 53032, Note_off_c, 0, 90, 67
1, 53060, Note_off_c, 0, 87, 65
1, 53066, Note_on_c, 0, 89, 89
1, 53134, Note_on_c, 0, 87, 77
1, 53173, Note_on_c, 0, 85, 69
1, 53177, Note_off_c, 0, 89, 54
1, 53214, Note_on_c, 0, 83, 70
1, 53229, Note_off_c, 0, 87, 61
1, 53239, Note_off_c, 0, 85, 56
1, 53247, Note_off_c, 0, 83, 68
1, 53250, Note_on_c, 0, 77, 68
1, 53271, Note_off_c, 0, 77, 68
1, 53277, Note_on_c, 0, 82, 70
1, 53300, Note_off_c, 0, 82, 69
1, 53310, Note_on_c, 0, 80, 76
1, 53355, Note_on_c, 0, 78, 59
1, 53377, Note_on_c, 0, 75, 71
1, 53381, Note_off_c, 0, 80, 62
1, 53402, Note_off_c, 0, 78, 63
1, 53426, Note_off_c, 0, 75, 64
1, 53428, Note_on_c, 0, 77, 79
1, 53496, Note_on_c, 0, 75, 69
1, 53525, Note_off_c, 0, 77, 59
1, 53548, Note_on_c, 0, 73, 54
1, 53556, Note_on_c, 0, 76, 15
1, 53573, Note_off_c, 0, 75, 61
1, 53581, Note_on_c, 0, 71, 65
1, 53593, Note_off_c, 0, 73, 51
1, 53608, Note_off_c, 0, 76, 54
1, 53626, Note_off_c, 0, 71, 66
1, 53637, Note_on_c, 0, 65, 60
1, 53645, Note_on_c, 0, 70, 56
1, 53663, Note_off_c, 0, 65, 68
1, 53666, Note_off_c, 0, 70, 61
1, 53679, Note_on_c, 0, 68, 70
1, 53722, Note_on_c, 0, 66, 53
1, 53741, Note_off_c, 0, 68, 61
1, 53750, Note_on_c, 0, 63, 72
1, 53761, Note_off_c, 0, 66, 64
1, 53802, Note_off_c, 0, 63, 64
1, 53826, Note_on_c, 0, 65, 70
1, 53884, Note_on_c, 0, 63, 69
1, 53908, Note_off_c, 0, 65, 61
1, 53927, Note_on_c, 0, 61, 57
1, 53975, Note_on_c, 0, 59, 62
1, 53976, Note_off_c, 0, 63, 61
1, 53990, Note_off_c, 0, 61, 57
1, 54011, Note_off_c, 0, 59, 62
1, 54035, Note_on_c, 0, 53, 42
1, 54046, Note_on_c, 0, 58, 61
1, 54068, Note_off_c, 0, 53, 55
1, 54074, Note_off_c, 0, 58, 65
1, 54098, Note_on_c, 0, 56, 61
1, 54140, Note_off_c, 0, 56, 61
1, 54180, Note_on_c, 0, 51, 59
1, 54212, Note_off_c, 0, 51, 67
1, 54241, Note_on_c, 0, 65, 62
1, 54281, Note_on_c, 0, 63, 66
1, 54306, Note_off_c, 0, 65, 59
1, 54332, Note_on_c, 0, 61, 46
1, 54385, Note_off_c, 0, 61, 51
1, 54386, Note_on_c, 0, 59, 56
1, 54395, Note_off_c, 0, 63, 54
1, 54414, Note_off_c, 0, 59, 64
1, 54447, Note_on_c, 0, 58, 59
1, 54481, Note_off_c, 0, 58, 57
1, 54494, Note_on_c, 0, 56, 58
1, 54537, Note_off_c, 0, 56, 61
1, 54549, Note_on_c, 0, 54, 42
1, 54581, Note_off_c, 0, 54, 54
1, 54586, Note_on_c, 0, 51, 62
1, 54653, Control_c, 0, 64, 81
1, 54668, Control_c, 0, 64, 60
1, 54672, Note_on_c, 0, 44, 76
1, 54683, Control_c, 0, 64, 39
1, 54698, Control_c, 0, 64, 15
1, 54705, Note_off_c, 0, 44, 65
1, 54713, Control_c, 0, 64, 15
1, 54727, Control_c, 0, 64, 28
1, 54742, Control_c, 0, 64, 44
1, 54757, Control_c, 0, 64, 60
1, 54772, Control_c, 0, 64, 81
1, 54786, Control_c, 0, 64, 127
1, 54806, Note_off_c, 0, 51, 61
1, 54832, Note_on_c, 0, 54, 55
1, 54870, Note_on_c, 0, 56, 58
1, 54875, Note_off_c, 0, 54, 63
1, 54900, Note_off_c, 0, 56, 67
1, 54911, Note_on_c, 0, 58, 59
1, 54941, Note_off_c, 0, 58, 65
1, 54953, Note_on_c, 0, 59, 61
1, 54995, Note_off_c, 0, 59, 53
1, 55021, Note_on_c, 0, 61, 44
1, 55030, Note_on_c, 0, 63, 53
1, 55054, Note_off_c, 0, 61, 57
1, 55066, Note_off_c, 0, 63, 67
1, 55079, Note_on_c, 0, 65, 67
1, 55140, Note_on_c, 0, 63, 59
1, 55160, Note_off_c, 0, 65, 58
1, 55195, Note_on_c, 0, 61, 32
1, 55221, Note_on_c, 0, 59, 57
1, 55230, Note_off_c, 0, 61, 50
1, 55243, Note_off_c, 0, 63, 52
1, 55251, Note_off_c, 0, 59, 63
1, 55271, Note_on_c, 0, 58, 56
1, 55308, Note_off_c, 0, 58, 63
1, 55346, Note_on_c, 0, 54, 55
1, 55413, Note_off_c, 0, 54, 62
1, 55429, Note_on_c, 0, 51, 58
1, 55491, Control_c, 0, 64, 72
1, 55506, Control_c, 0, 64, 54
1, 55521, Control_c, 0, 64, 37
1, 55528, Note_on_c, 0, 44, 59
1, 55536, Control_c, 0, 64, 33
1, 55550, Control_c, 0, 64, 39
1, 55555, Note_off_c, 0, 44, 58
1, 55565, Control_c, 0, 64, 50
1, 55580, Control_c, 0, 64, 63
1, 55595, Control_c, 0, 64, 100
1, 55609, Control_c, 0, 64, 127
1, 55644, Note_off_c, 0, 51, 43
1, 55674, Note_on_c, 0, 54, 29
1, 55683, Control_c, 0, 67, 9
1, 55698, Control_c, 0, 67, 15
1, 55709, Note_on_c, 0, 56, 52
1, 55711, Note_off_c, 0, 54, 54
1, 55713, Control_c, 0, 67, 23
1, 55729, Control_c, 0, 67, 35
1, 55744, Control_c, 0, 67, 47
1, 55747, Note_off_c, 0, 56, 64
1, 55759, Control_c, 0, 67, 64
1, 55766, Note_on_c, 0, 58, 51
1, 55773, Control_c, 0, 67, 81
1, 55787, Note_off_c, 0, 58, 61
1, 55788, Control_c, 0, 67, 98
1, 55803, Control_c, 0, 67, 113
1, 55809, Note_on_c, 0, 59, 49
1, 55817, Control_c, 0, 67, 126
1, 55832, Note_off_c, 0, 59, 60
1, 55832, Control_c, 0, 67, 127
1, 55891, Note_on_c, 0, 61, 57
1, 55928, Note_off_c, 0, 61, 66
1, 55952, Note_on_c, 0, 63, 39
1, 55984, Note_off_c, 0, 63, 56
1, 56002, Note_on_c, 0, 65, 43
1, 56029, Note_off_c, 0, 65, 57
1, 56046, Note_on_c, 0, 63, 55
1, 56084, Note_off_c, 0, 63, 64
1, 56115, Note_on_c, 0, 60, 53
1, 56139, Note_off_c, 0, 60, 65
1, 56195, Note_on_c, 0, 58, 63
1, 56234, Note_off_c, 0, 58, 61
1, 56295, Note_on_c, 0, 54, 42
1, 56327, Note_off_c, 0, 54, 56
1, 56329, Note_on_c, 0, 51, 49
1, 56344, Control_c, 0, 64, 103
1, 56356, Note_off_c, 0, 51, 58
1, 56359, Control_c, 0, 64, 65
1, 56368, Note_on_c, 0, 44, 68
1, 56374, Control_c, 0, 64, 52
1, 56389, Control_c, 0, 64, 43
1, 56404, Control_c, 0, 64, 44
1, 56418, Control_c, 0, 64, 50
1, 56419, Note_off_c, 0, 44, 54
1, 56433, Control_c, 0, 64, 58
1, 56437, Note_on_c, 0, 51, 62
1, 56448, Control_c, 0, 64, 70
1, 56463, Control_c, 0, 64, 93
1, 56478, Control_c, 0, 64, 127
1, 56495, Note_off_c, 0, 51, 63
1, 56519, Note_on_c, 0, 54, 36
1, 56551, Note_off_c, 0, 54, 56
1, 56554, Note_on_c, 0, 56, 44
1, 56583, Note_off_c, 0, 56, 54
1, 56645, Note_on_c, 0, 60, 56
1, 56682, Note_off_c, 0, 60, 63
1, 56696, Note_on_c, 0, 61, 56
1, 56720, Note_off_c, 0, 61, 66
1, 56768, Note_on_c, 0, 65, 51
1, 56800, Note_on_c, 0, 63, 37
1, 56802, Note_off_c, 0, 65, 56
1, 56857, Note_off_c, 0, 63, 63
1, 56878, Note_on_c, 0, 60, 60
1, 56908, Note_off_c, 0, 60, 66
1, 56983, Note_on_c, 0, 58, 57
1, 57021, Note_off_c, 0, 58, 49
1, 57079, Note_on_c, 0, 54, 40
1, 57113, Note_off_c, 0, 54, 53
1, 57122, Note_on_c, 0, 51, 45
1, 57151, Note_off_c, 0, 51, 58
1, 57182, Note_on_c, 0, 44, 53
1, 57182, Control_c, 0, 64, 77
1, 57197, Control_c, 0, 64, 61
1, 57212, Control_c, 0, 64, 44
1, 57227, Control_c, 0, 64, 23
1, 57243, Note_off_c, 0, 44, 52
1, 57254, Note_on_c, 0, 51, 50
1, 57256, Control_c, 0, 64, 30
1, 57271, Control_c, 0, 64, 40
1, 57286, Control_c, 0, 64, 52
1, 57301, Control_c, 0, 64, 64
1, 57316, Control_c, 0, 64, 106
1, 57327, Note_off_c, 0, 51, 61
1, 57331, Control_c, 0, 64, 127
1, 57338, Note_on_c, 0, 54, 47
1, 57374, Note_off_c, 0, 54, 59
1, 57398, Note_on_c, 0, 56, 51
1, 57420, Note_off_c, 0, 56, 64
1, 57499, Note_on_c, 0, 60, 51
1, 57568, Note_off_c, 0, 60, 60
1, 57580, Note_on_c, 0, 61, 54
1, 57634, Note_off_c, 0, 61, 59
1, 57662, Note_on_c, 0, 63, 45
1, 57693, Note_off_c, 0, 63, 56
1, 57755, Note_on_c, 0, 65, 30
1, 57811, Note_on_c, 0, 70, 68
1, 57820, Note_off_c, 0, 65, 42
1, 57832, Note_off_c, 0, 70, 67
1, 57841, Note_on_c, 0, 63, 19
1, 57890, Note_on_c, 0, 70, 71
1, 57903, Note_off_c, 0, 63, 46
1, 57921, Note_on_c, 0, 61, 38
1, 57942, Note_off_c, 0, 70, 60
1, 57954, Note_on_c, 0, 75, 70
1, 57957, Note_off_c, 0, 61, 54
1, 57995, Note_on_c, 0, 60, 47
1, 58023, Note_off_c, 0, 60, 62
1, 58101, Note_on_c, 0, 58, 56
1, 58140, Note_off_c, 0, 58, 61
1, 58192, Note_on_c, 0, 54, 55
1, 58222, Note_off_c, 0, 54, 65
1, 58235, Control_c, 0, 64, 80
1, 58250, Control_c, 0, 64, 63
1, 58265, Control_c, 0, 64, 50
1, 58280, Control_c, 0, 64, 43
1, 58281, Note_on_c, 0, 44, 57
1, 58295, Control_c, 0, 64, 49
1, 58309, Control_c, 0, 64, 58
1, 58312, Poly_aftertouch_c, 0, 51, 0
1, 58324, Control_c, 0, 64, 67
1, 58327, Note_off_c, 0, 44, 50
1, 58339, Control_c, 0, 64, 89
1, 58354, Control_c, 0, 64, 127
1, 58400, Note_on_c, 0, 54, 57
1, 58400, Poly_aftertouch_c, 0, 51, 0
1, 58424, Note_off_c, 0, 54, 61
1, 58534, Note_on_c, 0, 60, 57
1, 58558, Note_off_c, 0, 75, 28
1, 58576, Note_off_c, 0, 60, 63
1, 58588, Note_on_c, 0, 61, 59
1, 58617, Note_off_c, 0, 61, 67
1, 58659, Note_on_c, 0, 65, 51
1, 58690, Note_off_c, 0, 65, 54
1, 58711, Note_on_c, 0, 63, 51
1, 58747, Note_off_c, 0, 63, 66
1, 58771, Note_on_c, 0, 60, 62
1, 58814, Note_off_c, 0, 60, 66
1, 58890, Note_on_c, 0, 58, 56
1, 58917, Note_off_c, 0, 58, 61
1, 59000, Note_on_c, 0, 54, 49
1, 59044, Note_off_c, 0, 54, 58
1, 59099, Note_on_c, 0, 94, 67
1, 59120, Note_off_c, 0, 94, 67
1, 59120, Note_on_c, 0, 51, 15
1, 59162, Note_off_c, 0, 51, 50
1, 59172, Note_on_c, 0, 94, 68
1, 59191, Control_c, 0, 64, 84
1, 59194, Note_off_c, 0, 94, 63
1, 59206, Control_c, 0, 64, 65
1, 59207, Note_on_c, 0, 44, 46
1, 59221, Control_c, 0, 64, 57
1, 59235, Note_on_c, 0, 99, 76
1, 59236, Control_c, 0, 64, 55
1, 59251, Control_c, 0, 64, 61
1, 59260, Note_off_c, 0, 99, 65
1, 59266, Control_c, 0, 64, 70
1, 59269, Note_off_c, 0, 44, 48
1, 59272, Note_on_c, 0, 51, 49
1, 59281, Control_c, 0, 64, 96
1, 59295, Control_c, 0, 64, 127
1, 59356, Note_off_c, 0, 51, 63
1, 59357, Note_on_c, 0, 54, 57
1, 59389, Note_off_c, 0, 54, 65
1, 59406, Note_on_c, 0, 56, 59
1, 59434, Note_off_c, 0, 56, 68
1, 59516, Note_on_c, 0, 60, 45
1, 59522, Note_on_c, 0, 87, 71
1, 59546, Note_off_c, 0, 87, 66
1, 59621, Note_on_c, 0, 61, 46
1, 59638, Note_off_c, 0, 60, 47
1, 59657, Note_on_c, 0, 72, 67
1, 59677, Note_off_c, 0, 72, 67
1, 59684, Note_off_c, 0, 61, 57
1, 59698, Note_on_c, 0, 63, 54
1, 59742, Note_off_c, 0, 63, 62
1, 59791, Note_on_c, 0, 65, 51
1, 59887, Note_off_c, 0, 65, 41
1, 59895, Note_on_c, 0, 63, 48
1, 59897, Note_on_c, 0, 70, 67
1, 59924, Note_off_c, 0, 70, 65
1, 59948, Note_off_c, 0, 63, 62
1, 59971, Note_on_c, 0, 70, 71
1, 59972, Note_on_c, 0, 61, 24
1, 60003, Note_off_c, 0, 70, 57
1, 60011, Note_off_c, 0, 61, 53
1, 60017, Note_on_c, 0, 77, 60
1, 60028, Note_on_c, 0, 60, 50
1, 60059, Note_off_c, 0, 60, 66
1, 60070, Note_on_c, 0, 75, 73
1, 60093, Note_off_c, 0, 77, 61
1, 60118, Note_on_c, 0, 58, 63
1, 60156, Note_off_c, 0, 58, 61
1, 60217, Note_on_c, 0, 54, 53
1, 60240, Note_off_c, 0, 54, 62
1, 60256, Note_on_c, 0, 51, 49
1, 60266, Control_c, 0, 64, 113
1, 60281, Control_c, 0, 64, 66
1, 60282, Note_off_c, 0, 51, 60
1, 60296, Control_c, 0, 64, 52
1, 60306, Note_on_c, 0, 44, 55
1, 60311, Control_c, 0, 64, 39
1, 60325, Control_c, 0, 64, 39
1, 60348, Control_c, 0, 64, 47
1, 60363, Control_c, 0, 64, 57
1, 60369, Note_off_c, 0, 44, 41
1, 60374, Note_on_c, 0, 51, 57
1, 60378, Control_c, 0, 64, 69
1, 60392, Control_c, 0, 64, 94
1, 60407, Control_c, 0, 64, 127
1, 60420, Note_off_c, 0, 51, 64
1, 60437, Note_on_c, 0, 54, 44
1, 60467, Note_off_c, 0, 54, 54
1, 60474, Note_off_c, 0, 75, 51
1, 60478, Note_on_c, 0, 56, 49
1, 60502, Note_off_c, 0, 56, 60
1, 60563, Note_on_c, 0, 60, 56
1, 60602, Note_off_c, 0, 60, 64
1, 60613, Note_on_c, 0, 61, 59
1, 60641, Note_off_c, 0, 61, 68
1, 60693, Note_on_c, 0, 65, 51
1, 60734, Note_off_c, 0, 65, 53
1, 60757, Note_on_c, 0, 63, 43
1, 60786, Note_off_c, 0, 63, 58
1, 60819, Note_on_c, 0, 60, 53
1, 60851, Note_off_c, 0, 60, 63
1, 60933, Note_on_c, 0, 58, 53
1, 60961, Note_off_c, 0, 58, 60
1, 61062, Note_on_c, 0, 54, 34
1, 61073, Note_on_c, 0, 94, 74
1, 61105, Note_off_c, 0, 94, 68
1, 61107, Note_off_c, 0, 54, 51
1, 61162, Note_on_c, 0, 94, 63
1, 61164, Note_on_c, 0, 51, 36
1, 61171, Control_c, 0, 64, 105
1, 61183, Note_off_c, 0, 94, 64
1, 61186, Control_c, 0, 64, 73
1, 61200, Note_off_c, 0, 51, 60
1, 61201, Control_c, 0, 64, 60
1, 61216, Control_c, 0, 64, 46
1, 61224, Note_on_c, 0, 99, 77
1, 61230, Control_c, 0, 64, 35
1, 61234, Note_on_c, 0, 44, 52
1, 61245, Control_c, 0, 64, 38
1, 61260, Control_c, 0, 64, 46
1, 61272, Note_off_c, 0, 99, 61
1, 61275, Control_c, 0, 64, 57
1, 61290, Control_c, 0, 64, 71
1, 61305, Control_c, 0, 64, 127
1, 61312, Note_on_c, 0, 51, 53
1, 61322, Note_off_c, 0, 44, 59
1, 61408, Note_off_c, 0, 51, 64
1, 61426, Note_on_c, 0, 54, 37
1, 61427, Note_on_c, 0, 82, 57
1, 61453, Note_off_c, 0, 82, 58
1, 61454, Note_on_c, 0, 56, 57
1, 61460, Note_off_c, 0, 54, 53
1, 61477, Note_off_c, 0, 56, 67
1, 61556, Note_on_c, 0, 87, 68
1, 61576, Note_on_c, 0, 60, 54
1, 61588, Note_off_c, 0, 87, 61
1, 61660, Note_off_c, 0, 60, 58
1, 61685, Note_on_c, 0, 61, 38
1, 61718, Note_off_c, 0, 61, 55
1, 61746, Note_on_c, 0, 63, 54
1, 61746, Note_on_c, 0, 72, 54
1, 61768, Note_off_c, 0, 63, 62
1, 61770, Note_off_c, 0, 72, 57
1, 62083, Control_c, 0, 64, 114
1, 62098, Control_c, 0, 64, 93
1, 62099, Note_on_c, 0, 42, 40
1, 62112, Control_c, 0, 64, 74
1, 62128, Control_c, 0, 64, 61
1, 62142, Control_c, 0, 64, 41
1, 62157, Control_c, 0, 64, 0
1, 62217, Control_c, 0, 64, 20
1, 62232, Control_c, 0, 64, 39
1, 62247, Control_c, 0, 64, 54
1, 62261, Control_c, 0, 64, 71
1, 62276, Control_c, 0, 64, 127
1, 62321, Note_on_c, 0, 49, 40
1, 62394, Note_off_c, 0, 42, 53
1, 62468, Note_on_c, 0, 52, 50
1, 62475, Note_on_c, 0, 70, 43
1, 62478, Note_off_c, 0, 49, 35
1, 62513, Note_off_c, 0, 52, 59
1, 62563, Note_off_c, 0, 70, 57
1, 62594, Note_on_c, 0, 54, 48
1, 62638, Note_off_c, 0, 54, 61
1, 62667, Note_on_c, 0, 56, 51
1, 62667, Note_on_c, 0, 78, 67
1, 62691, Note_off_c, 0, 56, 64
1, 62726, Note_on_c, 0, 58, 52
1, 62751, Note_off_c, 0, 58, 63
1, 62760, Note_off_c, 0, 78, 62
1, 62802, Note_on_c, 0, 76, 74
1, 62810, Note_on_c, 0, 61, 54
1, 62828, Note_off_c, 0, 76, 65
1, 62879, Note_off_c, 0, 61, 63
1, 62891, Note_on_c, 0, 64, 52
1, 62905, Control_c, 0, 64, 86
1, 62917, Note_off_c, 0, 64, 62
1, 62921, Control_c, 0, 64, 66
1, 62936, Control_c, 0, 64, 59
1, 62941, Note_on_c, 0, 79, 81
1, 62950, Note_on_c, 0, 65, 59
1, 62951, Control_c, 0, 64, 59
1, 62965, Control_c, 0, 64, 64
1, 62980, Control_c, 0, 64, 76
1, 62985, Note_off_c, 0, 65, 67
1, 62995, Control_c, 0, 64, 127
1, 63010, Note_off_c, 0, 79, 53
1, 63031, Note_on_c, 0, 62, 57
1, 63052, Note_off_c, 0, 62, 61
1, 63054, Note_on_c, 0, 77, 71
1, 63108, Note_off_c, 0, 77, 57
1, 63111, Note_on_c, 0, 56, 61
1, 63135, Note_off_c, 0, 56, 67
1, 63174, Note_on_c, 0, 71, 66
1, 63189, Note_on_c, 0, 53, 64
1, 63199, Note_off_c, 0, 71, 70
1, 63217, Control_c, 0, 67, 124
1, 63232, Control_c, 0, 67, 116
1, 63233, Note_off_c, 0, 53, 62
1, 63247, Control_c, 0, 67, 108
1, 63262, Control_c, 0, 67, 100
1, 63277, Control_c, 0, 67, 93
1, 63291, Control_c, 0, 67, 86
1, 63306, Control_c, 0, 67, 80
1, 63321, Control_c, 0, 67, 74
1, 63343, Control_c, 0, 67, 69
1, 63358, Control_c, 0, 67, 65
1, 63373, Control_c, 0, 67, 59
1, 63388, Control_c, 0, 67, 53
1, 63403, Control_c, 0, 67, 45
1, 63417, Control_c, 0, 67, 36
1, 63432, Control_c, 0, 67, 28
1, 63447, Control_c, 0, 64, 75
1, 63447, Control_c, 0, 67, 20
1, 63462, Control_c, 0, 64, 57
1, 63462, Control_c, 0, 67, 12
1, 63472, Note_on_c, 0, 38, 58
1, 63477, Control_c, 0, 64, 32
1, 63477, Control_c, 0, 67, 0
1, 63484, Note_on_c, 0, 72, 69
1, 63491, Control_c, 0, 64, 16
1, 63495, Note_on_c, 0, 60, 43
1, 63495, Note_on_c, 0, 66, 52
1, 63506, Control_c, 0, 64, 28
1, 63509, Note_on_c, 0, 68, 34
1, 63520, Note_off_c, 0, 60, 58
1, 63521, Control_c, 0, 64, 43
1, 63526, Note_off_c, 0, 66, 66
1, 63536, Note_off_c, 0, 72, 62
1, 63536, Control_c, 0, 64, 62
1, 63543, Note_off_c, 0, 68, 44
1, 63550, Control_c, 0, 64, 119
1, 63558, Note_off_c, 0, 38, 59
1, 63565, Control_c, 0, 64, 127
1, 63573, Note_on_c, 0, 44, 49
1, 63604, Note_off_c, 0, 44, 58
1, 63642, Note_on_c, 0, 50, 48
1, 63645, Note_on_c, 0, 80, 89
1, 63648, Note_on_c, 0, 68, 63
1, 63662, Note_off_c, 0, 80, 69
1, 63668, Note_off_c, 0, 68, 64
1, 63670, Note_off_c, 0, 50, 55
1, 63726, Note_on_c, 0, 54, 65
1, 63788, Note_on_c, 0, 56, 64
1, 63838, Note_off_c, 0, 54, 64
1, 63840, Note_on_c, 0, 60, 72
1, 63844, Note_off_c, 0, 56, 66
1, 63894, Note_off_c, 0, 60, 66
1, 63904, Note_on_c, 0, 78, 83
1, 63904, Note_on_c, 0, 84, 84
1, 63905, Note_on_c, 0, 62, 67
1, 63910, Note_on_c, 0, 72, 68
1, 63911, Note_off_c, 0, 72, 127
1, 63915, Note_on_c, 0, 80, 56
1, 63922, Note_off_c, 0, 84, 71
1, 63924, Note_off_c, 0, 78, 73
1, 63930, Note_off_c, 0, 62, 67
1, 63935, Note_off_c, 0, 80, 62
1, 63993, Note_on_c, 0, 66, 73
1, 64027, Note_on_c, 0, 80, 65
1, 64030, Note_on_c, 0, 91, 75
1, 64036, Note_on_c, 0, 90, 60
1, 64037, Note_off_c, 0, 90, 127
1, 64045, Note_off_c, 0, 80, 66
1, 64045, Note_off_c, 0, 91, 66
1, 64049, Note_on_c, 0, 68, 57
1, 64092, Note_off_c, 0, 66, 62
1, 64092, Note_off_c, 0, 68, 61
1, 64095, Note_on_c, 0, 72, 65
1, 64129, Note_off_c, 0, 72, 60
1, 64144, Note_on_c, 0, 74, 75
1, 64163, Note_off_c, 0, 74, 74
1, 64271, Control_c, 0, 64, 109
1, 64285, Control_c, 0, 64, 64
1, 64290, Note_on_c, 0, 83, 100
1, 64291, Note_on_c, 0, 95, 102
1, 64292, Note_on_c, 0, 87, 96
1, 64295, Note_on_c, 0, 90, 85
1, 64300, Control_c, 0, 64, 49
1, 64315, Control_c, 0, 64, 51
1, 64317, Note_off_c, 0, 90, 74
1, 64327, Note_off_c, 0, 83, 60
1, 64330, Control_c, 0, 64, 65
1, 64330, Note_off_c, 0, 95, 66
1, 64335, Note_on_c, 0, 84, 21
1, 64336, Note_off_c, 0, 84, 127
1, 64345, Control_c, 0, 64, 127
1, 64363, Note_off_c, 0, 87, 67
1, 64420, Note_on_c, 0, 81, 102
1, 64420, Note_on_c, 0, 90, 91
1, 64430, Note_on_c, 0, 93, 70
1, 64438, Note_off_c, 0, 90, 75
1, 64449, Note_off_c, 0, 93, 63
1, 64451, Note_off_c, 0, 81, 58
1, 64457, Note_on_c, 0, 85, 9
1, 64519, Note_off_c, 0, 85, 50
1, 64552, Note_on_c, 0, 85, 92
1, 64553, Control_c, 0, 64, 101
1, 64558, Note_on_c, 0, 87, 86
1, 64568, Control_c, 0, 64, 88
1, 64575, Note_off_c, 0, 87, 73
1, 64583, Control_c, 0, 64, 79
1, 64587, Note_off_c, 0, 85, 61
1, 64597, Control_c, 0, 64, 73
1, 64612, Control_c, 0, 64, 64
1, 64627, Control_c, 0, 64, 50
1, 64642, Control_c, 0, 64, 0
1, 64676, Note_on_c, 0, 78, 61
1, 64681, Note_on_c, 0, 75, 85
1, 64681, Note_on_c, 0, 83, 80
1, 64684, Note_on_c, 0, 71, 82
1, 64707, Note_off_c, 0, 71, 71
1, 64716, Control_c, 0, 64, 20
1, 64719, Note_off_c, 0, 83, 63
1, 64720, Note_off_c, 0, 78, 67
1, 64731, Control_c, 0, 64, 41
1, 64739, Note_off_c, 0, 75, 62
1, 64745, Control_c, 0, 64, 57
1, 64760, Control_c, 0, 64, 73
1, 64775, Control_c, 0, 64, 127
1, 64800, Note_on_c, 0, 78, 81
1, 64801, Note_on_c, 0, 69, 84
1, 64813, Note_on_c, 0, 81, 53
1, 64825, Note_off_c, 0, 69, 66
1, 64825, Note_off_c, 0, 78, 63
1, 64845, Note_off_c, 0, 81, 59
1, 64912, Note_on_c, 0, 73, 68
1, 64930, Note_off_c, 0, 73, 66
1, 65004, Control_c, 0, 64, 85
1, 65019, Control_c, 0, 64, 61
1, 65034, Control_c, 0, 64, 32
1, 65049, Control_c, 0, 64, 0
1, 65072, Note_on_c, 0, 38, 66
1, 65079, Note_on_c, 0, 72, 66
1, 65084, Note_on_c, 0, 60, 54
1, 65084, Note_on_c, 0, 66, 63
1, 65084, Note_on_c, 0, 68, 59
1, 65093, Control_c, 0, 64, 24
1, 65107, Note_off_c, 0, 68, 62
1, 65108, Note_off_c, 0, 60, 60
1, 65108, Control_c, 0, 64, 42
1, 65109, Note_off_c, 0, 72, 66
1, 65113, Note_off_c, 0, 66, 65
1, 65123, Control_c, 0, 64, 60
1, 65138, Control_c, 0, 64, 104
1, 65147, Note_off_c, 0, 38, 61
1, 65149, Note_on_c, 0, 44, 66
1, 65153, Control_c, 0, 64, 127
1, 65191, Note_off_c, 0, 44, 61
1, 65218, Note_on_c, 0, 50, 59
1, 65241, Note_on_c, 0, 80, 90
1, 65245, Note_off_c, 0, 50, 67
1, 65248, Note_on_c, 0, 68, 62
1, 65258, Note_off_c, 0, 80, 71
1, 65266, Note_off_c, 0, 68, 62
1, 65345, Note_on_c, 0, 53, 41
1, 65364, Note_on_c, 0, 56, 62
1, 65398, Note_off_c, 0, 53, 47
1, 65412, Note_on_c, 0, 60, 79
1, 65443, Note_off_c, 0, 56, 64
1, 65472, Note_off_c, 0, 60, 63
1, 65475, Note_on_c, 0, 62, 79
1, 65485, Note_on_c, 0, 84, 92
1, 65489, Note_on_c, 0, 78, 81
1, 65490, Note_on_c, 0, 72, 78
1, 65491, Note_off_c, 0, 72, 127
1, 65493, Note_on_c, 0, 80, 66
1, 65502, Note_off_c, 0, 62, 65
1, 65505, Note_off_c, 0, 84, 69
1, 65510, Note_off_c, 0, 78, 72
1, 65510, Note_off_c, 0, 80, 66
1, 65572, Note_on_c, 0, 66, 76
1, 65618, Note_on_c, 0, 92, 97
1, 65622, Note_on_c, 0, 80, 81
1, 65633, Note_off_c, 0, 92, 77
1, 65639, Note_off_c, 0, 80, 74
1, 65646, Note_on_c, 0, 68, 64
1, 65674, Note_off_c, 0, 66, 61
1, 65684, Note_on_c, 0, 72, 64
1, 65690, Note_off_c, 0, 68, 60
1, 65735, Note_on_c, 0, 74, 83
1, 65742, Note_off_c, 0, 72, 63
1, 65759, Note_off_c, 0, 74, 67
1, 65856, Control_c, 0, 64, 71
1, 65871, Control_c, 0, 64, 53
1, 65872, Note_on_c, 0, 83, 106
1, 65875, Note_on_c, 0, 90, 100
1, 65876, Note_on_c, 0, 95, 101
1, 65877, Note_on_c, 0, 87, 99
1, 65885, Control_c, 0, 64, 43
1, 65900, Control_c, 0, 64, 54
1, 65915, Control_c, 0, 64, 85
1, 65929, Note_off_c, 0, 95, 64
1, 65930, Note_off_c, 0, 83, 67
1, 65930, Control_c, 0, 64, 127
1, 65933, Note_off_c, 0, 90, 65
1, 65937, Note_on_c, 0, 92, 3
1, 65938, Note_off_c, 0, 92, 127
1, 65958, Note_off_c, 0, 87, 67
1, 66005, Note_on_c, 0, 90, 88
1, 66006, Note_on_c, 0, 81, 98
1, 66019, Note_on_c, 0, 93, 57
1, 66023, Note_off_c, 0, 90, 74
1, 66028, Note_off_c, 0, 81, 64
1, 66045, Note_off_c, 0, 93, 60
1, 66134, Note_on_c, 0, 85, 97
1, 66140, Note_on_c, 0, 87, 87
1, 66154, Note_off_c, 0, 85, 61
1, 66158, Note_off_c, 0, 87, 74
1, 66167, Control_c, 0, 64, 91
1, 66182, Control_c, 0, 64, 67
1, 66197, Control_c, 0, 64, 50
1, 66212, Control_c, 0, 64, 0
1, 66261, Note_on_c, 0, 78, 76
1, 66265, Note_on_c, 0, 75, 79
1, 66267, Note_on_c, 0, 83, 83
1, 66268, Note_on_c, 0, 71, 83
1, 66271, Control_c, 0, 64, 15
1, 66286, Control_c, 0, 64, 41
1, 66290, Note_off_c, 0, 71, 71
1, 66295, Note_off_c, 0, 83, 56
1, 66301, Control_c, 0, 64, 63
1, 66307, Note_off_c, 0, 78, 66
1, 66315, Control_c, 0, 64, 127
1, 66337, Note_off_c, 0, 75, 61
1, 66399, Note_on_c, 0, 69, 84
1, 66402, Note_on_c, 0, 78, 75
1, 66417, Note_on_c, 0, 81, 42
1, 66426, Note_off_c, 0, 69, 60
1, 66426, Note_off_c, 0, 78, 70
1, 66441, Control_c, 0, 67, 10
1, 66445, Note_off_c, 0, 81, 35
1, 66456, Control_c, 0, 67, 17
1, 66471, Control_c, 0, 67, 26
1, 66486, Control_c, 0, 67, 37
1, 66501, Control_c, 0, 67, 50
1, 66515, Control_c, 0, 67, 64
1, 66519, Note_on_c, 0, 73, 76
1, 66524, Note_on_c, 0, 75, 65
1, 66530, Control_c, 0, 64, 122
1, 66530, Control_c, 0, 67, 79
1, 66535, Note_off_c, 0, 73, 72
1, 66541, Note_off_c, 0, 75, 67
1, 66545, Control_c, 0, 64, 105
1, 66545, Control_c, 0, 67, 96
1, 66560, Control_c, 0, 64, 93
1, 66560, Control_c, 0, 67, 111
1, 66575, Control_c, 0, 64, 83
1, 66575, Control_c, 0, 67, 127
1, 66590, Control_c, 0, 64, 74
1, 66605, Control_c, 0, 64, 68
1, 66620, Control_c, 0, 64, 63
1, 66634, Control_c, 0, 64, 57
1, 66649, Control_c, 0, 64, 48
1, 66664, Control_c, 0, 64, 38
1, 66679, Control_c, 0, 64, 26
1, 66693, Control_c, 0, 64, 16
1, 66708, Control_c, 0, 64, 0
1, 66731, Note_on_c, 0, 71, 63
1, 66739, Note_on_c, 0, 59, 51
1, 66750, Note_on_c, 0, 66, 45
1, 66754, Note_on_c, 0, 63, 47
1, 66761, Note_off_c, 0, 71, 64
1, 66763, Note_off_c, 0, 59, 58
1, 66776, Note_off_c, 0, 66, 57
1, 66804, Note_off_c, 0, 63, 58
1, 66861, Note_on_c, 0, 57, 65
1, 66861, Note_on_c, 0, 66, 60
1, 66873, Note_on_c, 0, 69, 42
1, 66879, Note_off_c, 0, 57, 63
1, 66899, Note_off_c, 0, 66, 61
1, 66900, Note_off_c, 0, 69, 57
1, 66992, Note_on_c, 0, 61, 59
1, 66998, Note_on_c, 0, 63, 56
1, 67025, Note_off_c, 0, 63, 65
1, 67026, Note_off_c, 0, 61, 68
1, 67116, Note_on_c, 0, 73, 50
1, 67135, Note_on_c, 0, 61, 37
1, 67140, Note_on_c, 0, 65, 28
1, 67142, Note_off_c, 0, 73, 36
1, 67167, Note_off_c, 0, 61, 55
1, 67172, Note_off_c, 0, 65, 56
1, 67236, Note_on_c, 0, 68, 63
1, 67238, Note_on_c, 0, 59, 58
1, 67259, Note_off_c, 0, 59, 60
1, 67263, Note_on_c, 0, 71, 14
1, 67271, Note_off_c, 0, 68, 59
1, 67303, Note_off_c, 0, 71, 29
1, 67359, Note_on_c, 0, 61, 56
1, 67368, Note_on_c, 0, 63, 40
1, 67381, Note_off_c, 0, 61, 64
1, 67397, Note_off_c, 0, 63, 54
1, 67468, Note_on_c, 0, 63, 64
1, 67470, Note_on_c, 0, 59, 65
1, 67477, Note_on_c, 0, 71, 53
1, 67480, Note_on_c, 0, 66, 53
1, 67490, Note_off_c, 0, 59, 63
1, 67498, Note_off_c, 0, 71, 64
1, 67502, Note_off_c, 0, 66, 61
1, 67502, Control_c, 0, 64, 11
1, 67516, Control_c, 0, 64, 26
1, 67531, Note_off_c, 0, 63, 64
1, 67531, Control_c, 0, 64, 35
1, 67546, Control_c, 0, 64, 43
1, 67561, Control_c, 0, 64, 47
1, 67576, Control_c, 0, 64, 49
1, 67582, Note_on_c, 0, 66, 65
1, 67594, Note_on_c, 0, 57, 46
1, 67601, Note_on_c, 0, 69, 41
1, 67605, Control_c, 0, 64, 48
1, 67612, Note_off_c, 0, 66, 66
1, 67620, Control_c, 0, 64, 48
1, 67622, Note_off_c, 0, 57, 56
1, 67629, Note_off_c, 0, 69, 55
1, 67635, Control_c, 0, 64, 46
1, 67650, Control_c, 0, 64, 43
1, 67664, Control_c, 0, 64, 37
1, 67679, Control_c, 0, 64, 24
1, 67694, Control_c, 0, 64, 0
1, 67710, Note_on_c, 0, 61, 62
1, 67714, Note_on_c, 0, 63, 51
1, 67738, Note_off_c, 0, 61, 67
1, 67738, Note_off_c, 0, 63, 61
1, 67813, Control_c, 0, 64, 18
1, 67821, Note_on_c, 0, 71, 65
1, 67821, Note_on_c, 0, 78, 65
1, 67824, Note_on_c, 0, 83, 65
1, 67826, Note_on_c, 0, 75, 66
1, 67836, Control_c, 0, 64, 27
1, 67845, Note_off_c, 0, 71, 69
1, 67847, Note_off_c, 0, 78, 66
1, 67848, Note_off_c, 0, 83, 67
1, 67851, Control_c, 0, 64, 32
1, 67866, Control_c, 0, 64, 36
1, 67874, Note_off_c, 0, 75, 60
1, 67880, Control_c, 0, 64, 41
1, 67895, Control_c, 0, 64, 45
1, 67910, Control_c, 0, 64, 46
1, 67925, Control_c, 0, 64, 46
1, 67939, Note_on_c, 0, 78, 68
1, 67939, Control_c, 0, 64, 45
1, 67944, Note_on_c, 0, 81, 68
1, 67954, Note_on_c, 0, 69, 49
1, 67955, Note_off_c, 0, 69, 127
1, 67955, Control_c, 0, 64, 43
1, 67961, Note_off_c, 0, 81, 66
1, 67963, Note_off_c, 0, 78, 63
1, 67969, Control_c, 0, 64, 40
1, 67984, Control_c, 0, 64, 36
1, 67999, Control_c, 0, 64, 31
1, 68013, Control_c, 0, 64, 27
1, 68028, Control_c, 0, 64, 21
1, 68043, Control_c, 0, 64, 16
1, 68058, Control_c, 0, 64, 10
1, 68070, Note_on_c, 0, 73, 69
1, 68073, Control_c, 0, 64, 0
1, 68078, Note_on_c, 0, 75, 59
1, 68088, Note_off_c, 0, 73, 67
1, 68096, Note_off_c, 0, 75, 63
1, 68161, Control_c, 0, 64, 9
1, 68176, Control_c, 0, 64, 18
1, 68191, Control_c, 0, 64, 31
1, 68194, Note_on_c, 0, 90, 86
1, 68194, Note_on_c, 0, 95, 91
1, 68195, Note_on_c, 0, 83, 84
1, 68196, Note_on_c, 0, 87, 85
1, 68205, Control_c, 0, 64, 43
1, 68211, Note_off_c, 0, 83, 66
1, 68216, Note_off_c, 0, 90, 72
1, 68217, Note_off_c, 0, 95, 62
1, 68220, Control_c, 0, 64, 57
1, 68235, Control_c, 0, 64, 63
1, 68247, Note_off_c, 0, 87, 65
1, 68250, Control_c, 0, 64, 64
1, 68265, Control_c, 0, 64, 63
1, 68280, Control_c, 0, 64, 63
1, 68295, Control_c, 0, 64, 62
1, 68310, Control_c, 0, 64, 60
1, 68313, Note_on_c, 0, 81, 84
1, 68318, Note_on_c, 0, 90, 67
1, 68325, Control_c, 0, 64, 57
1, 68332, Note_off_c, 0, 81, 71
1, 68334, Note_off_c, 0, 90, 70
1, 68339, Control_c, 0, 64, 53
1, 68354, Control_c, 0, 64, 49
1, 68369, Control_c, 0, 64, 45
1, 68384, Control_c, 0, 64, 42
1, 68399, Control_c, 0, 64, 39
1, 68413, Control_c, 0, 64, 35
1, 68426, Note_on_c, 0, 85, 77
1, 68428, Control_c, 0, 64, 30
1, 68431, Note_on_c, 0, 87, 69
1, 68443, Note_off_c, 0, 85, 71
1, 68443, Control_c, 0, 64, 23
1, 68448, Note_off_c, 0, 87, 64
1, 68457, Control_c, 0, 64, 12
1, 68472, Control_c, 0, 64, 0
1, 68551, Note_on_c, 0, 83, 68
1, 68558, Note_on_c, 0, 75, 58
1, 68559, Note_on_c, 0, 71, 56
1, 68559, Note_on_c, 0, 78, 61
1, 68567, Note_off_c, 0, 83, 65
1, 68585, Note_off_c, 0, 78, 68
1, 68587, Note_off_c, 0, 71, 66
1, 68603, Note_off_c, 0, 75, 61
1, 68667, Note_on_c, 0, 78, 70
1, 68670, Note_on_c, 0, 69, 74
1, 68692, Note_off_c, 0, 78, 71
1, 68694, Note_off_c, 0, 69, 71
1, 68786, Note_on_c, 0, 73, 63
1, 68803, Note_on_c, 0, 75, 37
1, 68804, Note_off_c, 0, 73, 67
1, 68833, Note_off_c, 0, 75, 33
1, 68906, Note_on_c, 0, 71, 67
1, 68908, Note_on_c, 0, 59, 64
1, 68916, Note_on_c, 0, 63, 51
1, 68927, Note_off_c, 0, 71, 61
1, 68927, Note_off_c, 0, 59, 62
1, 68946, Note_off_c, 0, 63, 58
1, 69021, Note_on_c, 0, 57, 68
1, 69031, Note_on_c, 0, 66, 35
1, 69033, Note_on_c, 0, 69, 41
1, 69047, Note_off_c, 0, 57, 64
1, 69061, Note_off_c, 0, 69, 57
1, 69068, Note_off_c, 0, 66, 52
1, 69132, Note_on_c, 0, 61, 53
1, 69138, Note_on_c, 0, 63, 47
1, 69157, Note_off_c, 0, 61, 64
1, 69168, Note_off_c, 0, 63, 54
1, 69240, Note_on_c, 0, 61, 60
1, 69245, Note_on_c, 0, 69, 58
1, 69247, Note_on_c, 0, 57, 58
1, 69264, Note_off_c, 0, 69, 63
1, 69269, Note_off_c, 0, 57, 60
1, 69284, Note_off_c, 0, 61, 65
1, 69359, Note_on_c, 0, 64, 68
1, 69362, Note_on_c, 0, 55, 69
1, 69374, Note_on_c, 0, 67, 44
1, 69382, Note_off_c, 0, 55, 64
1, 69399, Note_off_c, 0, 64, 57
1, 69402, Note_off_c, 0, 67, 54
1, 69484, Note_on_c, 0, 61, 60
1, 69492, Note_on_c, 0, 59, 52
1, 69514, Note_off_c, 0, 61, 67
1, 69515, Note_off_c, 0, 59, 60
1, 69587, Note_on_c, 0, 67, 56
1, 69588, Note_on_c, 0, 55, 59
1, 69601, Note_on_c, 0, 63, 47
1, 69607, Note_on_c, 0, 60, 48
1, 69608, Note_off_c, 0, 67, 62
1, 69609, Note_off_c, 0, 55, 63
1, 69627, Note_off_c, 0, 63, 61
1, 69638, Note_off_c, 0, 60, 58
1, 69696, Note_on_c, 0, 66, 69
1, 69705, Note_on_c, 0, 54, 58
1, 69726, Note_off_c, 0, 66, 63
1, 69731, Note_off_c, 0, 54, 58
1, 69810, Note_on_c, 0, 57, 55
1, 69818, Note_on_c, 0, 59, 56
1, 69842, Note_off_c, 0, 59, 61
1, 69851, Note_off_c, 0, 57, 64
1, 69915, Note_on_c, 0, 69, 59
1, 69922, Note_on_c, 0, 61, 57
1, 69925, Note_on_c, 0, 57, 51
1, 69935, Note_off_c, 0, 69, 62
1, 69951, Note_off_c, 0, 57, 55
1, 69952, Note_off_c, 0, 61, 67
1, 70027, Note_on_c, 0, 67, 60
1, 70031, Note_on_c, 0, 55, 66
1, 70039, Note_on_c, 0, 64, 52
1, 70050, Note_off_c, 0, 55, 64
1, 70054, Note_off_c, 0, 67, 54
1, 70060, Note_off_c, 0, 64, 61
1, 70149, Note_on_c, 0, 60, 57
1, 70154, Note_on_c, 0, 58, 56
1, 70169, Note_off_c, 0, 60, 65
1, 70185, Note_off_c, 0, 58, 64
1, 70267, Note_on_c, 0, 55, 63
1, 70269, Note_on_c, 0, 60, 48
1, 70271, Note_on_c, 0, 63, 59
1, 70271, Note_on_c, 0, 67, 51
1, 70286, Note_off_c, 0, 55, 65
1, 70294, Note_off_c, 0, 67, 59
1, 70301, Note_off_c, 0, 63, 68
1, 70313, Note_off_c, 0, 60, 63
1, 70369, Note_on_c, 0, 66, 70
1, 70375, Note_on_c, 0, 54, 57
1, 70399, Note_off_c, 0, 54, 59
1, 70399, Note_off_c, 0, 66, 61
1, 70470, Note_on_c, 0, 59, 66
1, 70479, Note_on_c, 0, 57, 58
1, 70493, Note_off_c, 0, 59, 64
1, 70502, Note_off_c, 0, 57, 63
1, 70578, Note_on_c, 0, 66, 88
1, 70580, Note_on_c, 0, 74, 76
1, 70584, Note_on_c, 0, 62, 73
1, 70598, Note_off_c, 0, 74, 73
1, 70601, Note_off_c, 0, 62, 68
1, 70617, Note_off_c, 0, 66, 59
1, 70687, Note_on_c, 0, 60, 68
1, 70691, Note_on_c, 0, 69, 63
1, 70696, Note_on_c, 0, 72, 49
1, 70705, Note_off_c, 0, 60, 69
1, 70709, Note_off_c, 0, 69, 66
1, 70721, Note_off_c, 0, 72, 36
1, 70795, Note_on_c, 0, 65, 64
1, 70800, Note_on_c, 0, 63, 60
1, 70814, Note_off_c, 0, 65, 68
1, 70838, Note_off_c, 0, 63, 68
1, 70913, Note_on_c, 0, 63, 55
1, 70915, Note_on_c, 0, 67, 48
1, 70917, Note_on_c, 0, 55, 54
1, 70939, Note_off_c, 0, 67, 59
1, 70941, Note_off_c, 0, 55, 61
1, 70945, Note_off_c, 0, 63, 67
1, 70946, Note_on_c, 0, 60, 25
1, 70973, Note_off_c, 0, 60, 52
1, 71025, Note_on_c, 0, 66, 68
1, 71031, Note_on_c, 0, 54, 59
1, 71054, Note_off_c, 0, 54, 60
1, 71054, Note_off_c, 0, 66, 62
1, 71138, Note_on_c, 0, 59, 55
1, 71143, Note_on_c, 0, 57, 50
1, 71161, Note_off_c, 0, 59, 59
1, 71173, Note_off_c, 0, 57, 63
1, 71243, Note_on_c, 0, 61, 61
1, 71246, Note_on_c, 0, 57, 56
1, 71246, Note_on_c, 0, 69, 56
1, 71268, Note_off_c, 0, 69, 60
1, 71269, Note_off_c, 0, 57, 59
1, 71276, Note_off_c, 0, 61, 67
1, 71347, Note_on_c, 0, 67, 54
1, 71350, Note_on_c, 0, 55, 60
1, 71351, Note_on_c, 0, 64, 59
1, 71371, Note_off_c, 0, 67, 58
1, 71373, Note_off_c, 0, 55, 62
1, 71377, Note_off_c, 0, 64, 60
1, 71464, Note_on_c, 0, 60, 57
1, 71471, Note_on_c, 0, 58, 56
1, 71482, Note_off_c, 0, 60, 66
1, 71501, Note_off_c, 0, 58, 65
1, 71557, Control_c, 0, 64, 10
1, 71578, Note_on_c, 0, 55, 52
1, 71579, Note_on_c, 0, 63, 51
1, 71580, Control_c, 0, 64, 25
1, 71580, Note_on_c, 0, 60, 49
1, 71582, Note_on_c, 0, 67, 38
1, 71595, Control_c, 0, 64, 36
1, 71603, Note_off_c, 0, 63, 62
1, 71606, Note_off_c, 0, 55, 35
1, 71610, Control_c, 0, 64, 45
1, 71615, Note_off_c, 0, 67, 33
1, 71621, Note_off_c, 0, 60, 62
1, 71624, Control_c, 0, 64, 52
1, 71639, Control_c, 0, 64, 55
1, 71654, Control_c, 0, 64, 55
1, 71673, Note_on_c, 0, 66, 70
1, 71683, Control_c, 0, 64, 55
1, 71688, Note_on_c, 0, 54, 45
1, 71689, Note_off_c, 0, 54, 127
1, 71699, Control_c, 0, 64, 54
1, 71702, Note_off_c, 0, 66, 66
1, 71714, Control_c, 0, 64, 52
1, 71729, Control_c, 0, 64, 50
1, 71744, Control_c, 0, 64, 47
1, 71759, Control_c, 0, 64, 43
1, 71773, Control_c, 0, 64, 39
1, 71782, Note_on_c, 0, 59, 53
1, 71788, Note_on_c, 0, 57, 49
1, 71788, Control_c, 0, 64, 34
1, 71803, Control_c, 0, 64, 28
1, 71805, Note_off_c, 0, 59, 59
1, 71812, Note_off_c, 0, 57, 58
1, 71818, Control_c, 0, 64, 20
1, 71833, Control_c, 0, 64, 11
1, 71848, Control_c, 0, 64, 0
1, 71888, Note_on_c, 0, 66, 74
1, 71890, Note_on_c, 0, 74, 66
1, 71893, Note_on_c, 0, 62, 68
1, 71906, Control_c, 0, 64, 16
1, 71907, Note_off_c, 0, 74, 69
1, 71911, Note_off_c, 0, 62, 65
1, 71917, Note_off_c, 0, 66, 65
1, 71921, Control_c, 0, 64, 23
1, 71936, Control_c, 0, 64, 23
1, 71995, Control_c, 0, 64, 22
1, 72002, Note_on_c, 0, 60, 55
1, 72003, Note_off_c, 0, 60, 127
1, 72005, Note_on_c, 0, 72, 48
1, 72010, Control_c, 0, 64, 20
1, 72013, Note_on_c, 0, 69, 36
1, 72025, Control_c, 0, 64, 18
1, 72029, Note_off_c, 0, 72, 58
1, 72040, Control_c, 0, 64, 16
1, 72043, Note_off_c, 0, 69, 55
1, 72054, Control_c, 0, 64, 12
1, 72069, Control_c, 0, 64, 8
1, 72084, Control_c, 0, 64, 0
1, 72103, Note_on_c, 0, 65, 69
1, 72111, Note_on_c, 0, 63, 59
1, 72130, Note_off_c, 0, 65, 68
1, 72143, Note_off_c, 0, 63, 66
1, 72202, Control_c, 0, 64, 9
1, 72208, Note_on_c, 0, 79, 61
1, 72209, Note_on_c, 0, 67, 58
1, 72217, Control_c, 0, 64, 18
1, 72222, Note_on_c, 0, 75, 39
1, 72227, Note_off_c, 0, 79, 63
1, 72232, Note_off_c, 0, 67, 63
1, 72232, Control_c, 0, 64, 28
1, 72246, Control_c, 0, 64, 34
1, 72250, Note_off_c, 0, 75, 47
1, 72261, Control_c, 0, 64, 38
1, 72276, Control_c, 0, 64, 41
1, 72315, Note_on_c, 0, 66, 73
1, 72316, Note_on_c, 0, 78, 76
1, 72328, Control_c, 0, 64, 40
1, 72343, Control_c, 0, 64, 39
1, 72350, Note_off_c, 0, 66, 63
1, 72350, Note_off_c, 0, 78, 63
1, 72358, Control_c, 0, 64, 37
1, 72373, Control_c, 0, 64, 34
1, 72387, Control_c, 0, 64, 30
1, 72402, Control_c, 0, 64, 26
1, 72417, Control_c, 0, 64, 19
1, 72432, Control_c, 0, 64, 9
1, 72432, Note_on_c, 0, 71, 67
1, 72441, Note_on_c, 0, 69, 57
1, 72447, Control_c, 0, 64, 0
1, 72451, Note_off_c, 0, 71, 69
1, 72469, Note_off_c, 0, 69, 67
1, 72528, Note_on_c, 0, 71, 56
1, 72531, Note_on_c, 0, 79, 56
1, 72537, Note_on_c, 0, 67, 57
1, 72550, Note_off_c, 0, 79, 61
1, 72560, Note_off_c, 0, 67, 61
1, 72560, Note_off_c, 0, 71, 55
1, 72595, Control_c, 0, 64, 9
1, 72610, Control_c, 0, 64, 10
1, 72641, Note_on_c, 0, 77, 70
1, 72642, Note_on_c, 0, 65, 69
1, 72659, Note_off_c, 0, 65, 69
1, 72661, Note_on_c, 0, 74, 46
1, 72665, Note_off_c, 0, 77, 60
1, 72684, Control_c, 0, 64, 10
1, 72685, Note_off_c, 0, 74, 60
1, 72699, Control_c, 0, 64, 8
1, 72714, Control_c, 0, 64, 0
1, 72746, Note_on_c, 0, 70, 61
1, 72748, Note_on_c, 0, 68, 58
1, 72771, Note_off_c, 0, 68, 64
1, 72772, Note_off_c, 0, 70, 65
1, 72788, Control_c, 0, 64, 10
1, 72802, Control_c, 0, 64, 15
1, 72817, Control_c, 0, 64, 19
1, 72832, Control_c, 0, 64, 24
1, 72847, Note_on_c, 0, 67, 71
1, 72847, Control_c, 0, 64, 30
1, 72850, Note_on_c, 0, 79, 63
1, 72853, Note_on_c, 0, 75, 61
1, 72862, Note_on_c, 0, 72, 51
1, 72862, Control_c, 0, 64, 36
1, 72865, Note_off_c, 0, 67, 67
1, 72868, Note_off_c, 0, 79, 65
1, 72876, Control_c, 0, 64, 43
1, 72879, Note_off_c, 0, 75, 64
1, 72891, Note_off_c, 0, 72, 58
1, 72891, Control_c, 0, 64, 50
1, 72906, Control_c, 0, 64, 54
1, 72921, Control_c, 0, 64, 57
1, 72936, Control_c, 0, 64, 57
1, 72954, Note_on_c, 0, 78, 81
1, 72957, Note_on_c, 0, 66, 75
1, 72966, Control_c, 0, 64, 57
1, 72981, Control_c, 0, 64, 56
1, 72987, Note_off_c, 0, 66, 61
1, 72995, Control_c, 0, 64, 54
1, 73010, Control_c, 0, 64, 51
1, 73011, Note_off_c, 0, 78, 49
1, 73025, Control_c, 0, 64, 46
1, 73040, Control_c, 0, 64, 38
1, 73054, Control_c, 0, 64, 28
1, 73063, Note_on_c, 0, 71, 71
1, 73076, Control_c, 0, 64, 18
1, 73079, Note_on_c, 0, 69, 66
1, 73091, Control_c, 0, 64, 8
1, 73094, Note_off_c, 0, 71, 71
1, 73104, Note_off_c, 0, 69, 69
1, 73106, Control_c, 0, 64, 0
1, 73136, Control_c, 0, 64, 11
1, 73151, Control_c, 0, 64, 24
1, 73166, Control_c, 0, 64, 36
1, 73178, Note_on_c, 0, 71, 70
1, 73181, Control_c, 0, 64, 48
1, 73186, Note_on_c, 0, 67, 70
1, 73187, Note_on_c, 0, 79, 59
1, 73195, Control_c, 0, 64, 60
1, 73203, Note_off_c, 0, 67, 68
1, 73206, Note_off_c, 0, 79, 63
1, 73206, Note_off_c, 0, 71, 65
1, 73210, Control_c, 0, 64, 67
1, 73225, Control_c, 0, 64, 73
1, 73240, Control_c, 0, 64, 74
1, 73254, Control_c, 0, 64, 74
1, 73269, Control_c, 0, 64, 75
1, 73284, Control_c, 0, 64, 77
1, 73290, Note_on_c, 0, 65, 76
1, 73290, Note_on_c, 0, 77, 74
1, 73300, Control_c, 0, 64, 78
1, 73306, Note_off_c, 0, 65, 71
1, 73315, Control_c, 0, 64, 78
1, 73321, Note_off_c, 0, 77, 60
1, 73350, Note_on_c, 0, 68, 53
1, 73355, Poly_aftertouch_c, 0, 74, 127
1, 73356, Note_on_c, 0, 70, 46
1, 73372, Note_off_c, 0, 68, 58
1, 73374, Control_c, 0, 64, 78
1, 73380, Note_off_c, 0, 70, 57
1, 73389, Control_c, 0, 64, 71
1, 73394, Poly_aftertouch_c, 0, 74, 0
1, 73404, Control_c, 0, 64, 62
1, 73419, Control_c, 0, 64, 48
1, 73433, Control_c, 0, 64, 29
1, 73448, Control_c, 0, 64, 22
1, 73463, Control_c, 0, 64, 27
1, 73465, Note_on_c, 0, 69, 75
1, 73468, Note_on_c, 0, 67, 72
1, 73474, Note_on_c, 0, 79, 63
1, 73476, Note_on_c, 0, 75, 66
1, 73478, Control_c, 0, 64, 40
1, 73479, Note_on_c, 0, 72, 60
1, 73481, Note_off_c, 0, 69, 70
1, 73487, Note_off_c, 0, 67, 69
1, 73491, Note_off_c, 0, 79, 64
1, 73492, Control_c, 0, 64, 53
1, 73502, Note_off_c, 0, 75, 65
1, 73507, Control_c, 0, 64, 66
1, 73511, Note_off_c, 0, 72, 64
1, 73522, Control_c, 0, 64, 94
1, 73537, Control_c, 0, 64, 127
1, 73580, Note_on_c, 0, 78, 86
1, 73590, Note_on_c, 0, 68, 72
1, 73629, Note_off_c, 0, 68, 50
1, 73651, Note_on_c, 0, 81, 97
1, 73657, Note_off_c, 0, 78, 61
1, 73662, Note_off_c, 0, 81, 75
1, 73708, Note_on_c, 0, 83, 3
1, 73744, Control_c, 0, 64, 88
1, 73746, Note_off_c, 0, 83, 49
1, 73759, Control_c, 0, 64, 61
1, 73774, Control_c, 0, 64, 41
1, 73789, Control_c, 0, 64, 27
1, 73796, Note_on_c, 0, 67, 86
1, 73796, Note_on_c, 0, 71, 76
1, 73798, Note_on_c, 0, 79, 74
1, 73804, Control_c, 0, 64, 34
1, 73804, Note_on_c, 0, 69, 59
1, 73810, Note_on_c, 0, 70, 55
1, 73823, Note_off_c, 0, 79, 66
1, 73823, Note_off_c, 0, 67, 68
1, 73825, Control_c, 0, 64, 46
1, 73829, Note_off_c, 0, 69, 68
1, 73840, Control_c, 0, 64, 59
1, 73841, Note_off_c, 0, 70, 61
1, 73851, Note_off_c, 0, 71, 63
1, 73855, Control_c, 0, 64, 75
1, 73870, Control_c, 0, 64, 127
1, 73904, Note_on_c, 0, 77, 81
1, 73913, Note_on_c, 0, 65, 68
1, 73914, Note_on_c, 0, 74, 69
1, 73932, Note_off_c, 0, 65, 68
1, 73935, Note_off_c, 0, 74, 69
1, 73938, Note_on_c, 0, 67, 33
1, 73957, Note_off_c, 0, 77, 60
1, 73962, Note_off_c, 0, 67, 58
1, 73973, Note_on_c, 0, 80, 106
1, 73976, Note_on_c, 0, 82, 90
1, 73989, Note_off_c, 0, 80, 67
1, 73994, Note_off_c, 0, 82, 71
1, 74092, Control_c, 0, 64, 75
1, 74108, Control_c, 0, 64, 55
1, 74122, Control_c, 0, 64, 27
1, 74133, Note_on_c, 0, 71, 94
1, 74133, Note_on_c, 0, 79, 74
1, 74135, Note_on_c, 0, 67, 82
1, 74135, Note_on_c, 0, 75, 57
1, 74137, Note_on_c, 0, 69, 80
1, 74137, Control_c, 0, 64, 0
1, 74144, Note_on_c, 0, 72, 53
1, 74145, Note_off_c, 0, 71, 77
1, 74152, Control_c, 0, 64, 24
1, 74154, Note_off_c, 0, 69, 70
1, 74154, Note_off_c, 0, 79, 64
1, 74157, Note_off_c, 0, 67, 70
1, 74167, Control_c, 0, 64, 42
1, 74174, Note_off_c, 0, 72, 65
1, 74176, Note_off_c, 0, 75, 63
1, 74182, Control_c, 0, 64, 59
1, 74197, Control_c, 0, 64, 105
1, 74212, Control_c, 0, 64, 127
1, 74228, Note_on_c, 0, 78, 90
1, 74230, Note_on_c, 0, 66, 91
1, 74260, Poly_aftertouch_c, 0, 71, 0
1, 74280, Note_off_c, 0, 66, 62
1, 74283, Poly_aftertouch_c, 0, 71, 0
1, 74307, Note_off_c, 0, 78, 64
1, 74321, Note_on_c, 0, 81, 116
1, 74325, Note_on_c, 0, 83, 101
1, 74337, Note_off_c, 0, 81, 69
1, 74338, Note_off_c, 0, 83, 79
1, 74493, Control_c, 0, 64, 71
1, 74505, Note_on_c, 0, 70, 93
1, 74505, Note_on_c, 0, 71, 91
1, 74508, Control_c, 0, 64, 49
1, 74510, Note_on_c, 0, 79, 75
1, 74513, Note_on_c, 0, 67, 89
1, 74520, Note_on_c, 0, 68, 63
1, 74523, Control_c, 0, 64, 0
1, 74537, Note_off_c, 0, 79, 53
1, 74542, Note_off_c, 0, 68, 60
1, 74546, Note_off_c, 0, 67, 58
1, 74575, Control_c, 0, 64, 30
1, 74582, Note_off_c, 0, 70, 55
1, 74590, Control_c, 0, 64, 50
1, 74596, Note_off_c, 0, 71, 61
1, 74605, Control_c, 0, 64, 73
1, 74620, Control_c, 0, 64, 127
1, 74633, Note_on_c, 0, 77, 78
1, 74638, Note_on_c, 0, 65, 88
1, 74638, Note_on_c, 0, 74, 85
1, 74654, Note_on_c, 0, 71, 24
1, 74666, Note_off_c, 0, 65, 58
1, 74684, Note_off_c, 0, 71, 56
1, 74695, Note_on_c, 0, 67, 3
1, 74708, Note_off_c, 0, 77, 60
1, 74731, Note_off_c, 0, 67, 51
1, 74751, Note_off_c, 0, 74, 54
1, 74768, Note_on_c, 0, 80, 101
1, 74771, Note_on_c, 0, 82, 97
1, 75220, Note_off_c, 0, 82, 61
1, 75273, Note_off_c, 0, 80, 58
1, 75404, Note_on_c, 0, 94, 103
1, 75407, Note_on_c, 0, 92, 101
1, 75441, Note_off_c, 0, 94, 64
1, 75443, Note_off_c, 0, 92, 63
1, 75576, Control_c, 0, 67, 126
1, 75591, Control_c, 0, 67, 125
1, 75710, Control_c, 0, 67, 125
1, 75725, Control_c, 0, 67, 124
1, 75754, Control_c, 0, 67, 123
1, 75769, Control_c, 0, 67, 123
1, 75814, Control_c, 0, 67, 122
1, 76161, Control_c, 0, 67, 123
1, 76191, Control_c, 0, 64, 114
1, 76191, Control_c, 0, 67, 124
1, 76206, Control_c, 0, 64, 100
1, 76206, Control_c, 0, 67, 124
1, 76220, Control_c, 0, 64, 93
1, 76220, Control_c, 0, 67, 125
1, 76235, Control_c, 0, 64, 89
1, 76235, Control_c, 0, 67, 126
1, 76250, Control_c, 0, 64, 85
1, 76250, Control_c, 0, 67, 127
1, 76265, Control_c, 0, 64, 83
1, 76265, Control_c, 0, 67, 127
1, 76279, Control_c, 0, 64, 81
1, 76294, Control_c, 0, 64, 79
1, 76309, Control_c, 0, 64, 76
1, 76324, Control_c, 0, 64, 73
1, 76339, Control_c, 0, 64, 70
1, 76353, Control_c, 0, 64, 68
1, 76368, Control_c, 0, 64, 66
1, 76383, Control_c, 0, 64, 64
1, 76398, Control_c, 0, 64, 62
1, 76412, Control_c, 0, 64, 60
1, 76427, Control_c, 0, 64, 58
1, 76442, Control_c, 0, 64, 57
1, 76457, Control_c, 0, 64, 56
1, 76471, Control_c, 0, 64, 56
1, 76486, Control_c, 0, 64, 55
1, 76502, Control_c, 0, 64, 53
1, 76517, Control_c, 0, 64, 51
1, 76532, Control_c, 0, 64, 48
1, 76547, Control_c, 0, 64, 46
1, 76562, Control_c, 0, 64, 43
1, 76576, Control_c, 0, 64, 40
1, 76591, Control_c, 0, 64, 37
1, 76606, Control_c, 0, 64, 35
1, 76621, Control_c, 0, 64, 33
1, 76636, Control_c, 0, 64, 31
1, 76650, Control_c, 0, 64, 31
1, 76665, Control_c, 0, 64, 30
1, 76695, Control_c, 0, 64, 29
1, 76710, Control_c, 0, 64, 28
1, 76725, Control_c, 0, 64, 27
1, 76740, Control_c, 0, 64, 26
1, 76755, Control_c, 0, 64, 24
1, 76769, Control_c, 0, 64, 21
1, 76784, Control_c, 0, 64, 16
1, 76799, Control_c, 0, 64, 9
1, 76821, Control_c, 0, 64, 0
1, 77127, Note_on_c, 0, 26, 26
1, 77310, Control_c, 0, 64, 15
1, 77325, Control_c, 0, 64, 20
1, 77340, Control_c, 0, 64, 26
1, 77355, Control_c, 0, 64, 33
1, 77370, Control_c, 0, 64, 40
1, 77384, Control_c, 0, 64, 49
1, 77399, Control_c, 0, 64, 56
1, 77414, Control_c, 0, 64, 60
1, 77429, Control_c, 0, 64, 62
1, 77444, Control_c, 0, 64, 63
1, 77459, Control_c, 0, 64, 64
1, 77473, Note_off_c, 0, 26, 39
1, 77474, Control_c, 0, 64, 67
1, 77489, Control_c, 0, 64, 74
1, 77504, Control_c, 0, 64, 80
1, 77518, Control_c, 0, 64, 85
1, 77533, Control_c, 0, 64, 89
1, 77548, Control_c, 0, 64, 94
1, 77571, Control_c, 0, 64, 100
1, 77586, Control_c, 0, 64, 107
1, 77600, Control_c, 0, 64, 114
1, 77615, Control_c, 0, 64, 127
1, 77706, Note_on_c, 0, 60, 37
1, 77710, Note_on_c, 0, 62, 28
1, 77800, Note_off_c, 0, 60, 38
1, 77824, Note_on_c, 0, 74, 42
1, 77828, Note_off_c, 0, 62, 39
1, 77841, Note_on_c, 0, 72, 11
1, 77867, Note_off_c, 0, 74, 61
1, 77887, Note_off_c, 0, 72, 50
1, 77937, Note_on_c, 0, 66, 44
1, 77937, Note_on_c, 0, 68, 44
1, 78021, Note_off_c, 0, 66, 54
1, 78031, Note_off_c, 0, 68, 53
1, 78069, Note_on_c, 0, 76, 43
1, 78072, Note_on_c, 0, 74, 41
1, 78141, Note_off_c, 0, 74, 57
1, 78191, Note_off_c, 0, 76, 43
1, 78200, Note_on_c, 0, 88, 64
1, 78210, Note_on_c, 0, 86, 51
1, 78248, Note_off_c, 0, 88, 65
1, 78254, Note_off_c, 0, 86, 60
1, 78453, Control_c, 0, 67, 116
1, 78467, Control_c, 0, 67, 94
1, 78482, Control_c, 0, 67, 72
1, 78497, Control_c, 0, 67, 49
1, 78512, Control_c, 0, 67, 26
1, 78527, Control_c, 0, 67, 0
1, 78630, Control_c, 0, 64, 110
1, 78645, Control_c, 0, 64, 97
1, 78660, Control_c, 0, 64, 85
1, 78674, Control_c, 0, 64, 76
1, 78689, Control_c, 0, 64, 69
1, 78704, Control_c, 0, 64, 64
1, 78719, Control_c, 0, 64, 57
1, 78734, Control_c, 0, 64, 49
1, 78749, Control_c, 0, 64, 39
1, 78764, Control_c, 0, 64, 22
1, 78779, Control_c, 0, 64, 0
1, 78847, Note_on_c, 0, 82, 97
1, 78848, Note_on_c, 0, 80, 93
1, 78876, Note_off_c, 0, 82, 68
1, 78882, Control_c, 0, 64, 17
1, 78892, Note_off_c, 0, 80, 63
1, 78898, Control_c, 0, 64, 50
1, 78913, Control_c, 0, 64, 127
1, 78951, Note_on_c, 0, 94, 118
1, 78954, Note_on_c, 0, 92, 114
1, 78969, Note_off_c, 0, 92, 66
1, 78975, Note_off_c, 0, 94, 72
1, 79422, Control_c, 0, 67, 9
1, 79437, Control_c, 0, 67, 14
1, 79452, Control_c, 0, 67, 23
1, 79467, Control_c, 0, 67, 34
1, 79482, Control_c, 0, 67, 47
1, 79496, Control_c, 0, 67, 60
1, 79511, Control_c, 0, 67, 72
1, 79526, Control_c, 0, 67, 83
1, 79541, Control_c, 0, 67, 94
1, 79556, Control_c, 0, 64, 110
1, 79556, Control_c, 0, 67, 106
1, 79570, Control_c, 0, 64, 101
1, 79570, Control_c, 0, 67, 118
1, 79585, Control_c, 0, 64, 93
1, 79585, Control_c, 0, 67, 127
1, 79600, Control_c, 0, 64, 88
1, 79614, Control_c, 0, 64, 84
1, 79629, Control_c, 0, 64, 80
1, 79644, Control_c, 0, 64, 76
1, 79659, Control_c, 0, 64, 73
1, 79674, Control_c, 0, 64, 71
1, 79690, Control_c, 0, 64, 69
1, 79705, Control_c, 0, 64, 67
1, 79719, Control_c, 0, 64, 67
1, 79734, Control_c, 0, 64, 66
1, 79749, Control_c, 0, 64, 65
1, 79764, Control_c, 0, 64, 65
1, 79779, Control_c, 0, 64, 64
1, 79793, Control_c, 0, 64, 63
1, 79816, Control_c, 0, 64, 62
1, 79831, Control_c, 0, 64, 61
1, 79845, Control_c, 0, 64, 60
1, 79860, Control_c, 0, 64, 59
1, 79875, Control_c, 0, 64, 59
1, 79890, Control_c, 0, 64, 58
1, 79905, Control_c, 0, 64, 57
1, 79919, Control_c, 0, 64, 57
1, 79934, Control_c, 0, 64, 56
1, 79949, Control_c, 0, 64, 55
1, 79964, Control_c, 0, 64, 55
1, 79979, Control_c, 0, 64, 54
1, 80008, Control_c, 0, 64, 53
1, 80023, Control_c, 0, 64, 53
1, 80052, Control_c, 0, 64, 52
1, 80082, Control_c, 0, 64, 52
1, 80126, Control_c, 0, 64, 51
1, 80141, Control_c, 0, 64, 50
1, 80156, Control_c, 0, 64, 49
1, 80171, Control_c, 0, 64, 48
1, 80186, Control_c, 0, 64, 47
1, 80201, Control_c, 0, 64, 46
1, 80215, Control_c, 0, 64, 44
1, 80230, Control_c, 0, 64, 41
1, 80245, Control_c, 0, 64, 37
1, 80257, Note_on_c, 0, 26, 39
1, 80260, Control_c, 0, 64, 32
1, 80275, Control_c, 0, 64, 27
1, 80290, Control_c, 0, 64, 20
1, 80305, Control_c, 0, 64, 0
1, 80564, Control_c, 0, 64, 13
1, 80579, Control_c, 0, 64, 28
1, 80594, Control_c, 0, 64, 37
1, 80609, Control_c, 0, 64, 46
1, 80624, Control_c, 0, 64, 56
1, 80624, Note_off_c, 0, 26, 47
1, 80639, Control_c, 0, 64, 65
1, 80654, Control_c, 0, 64, 76
1, 80668, Control_c, 0, 64, 87
1, 80683, Control_c, 0, 64, 93
1, 80698, Control_c, 0, 64, 98
1, 80713, Control_c, 0, 64, 105
1, 80728, Control_c, 0, 64, 113
1, 80742, Control_c, 0, 64, 127
1, 80899, Note_on_c, 0, 60, 39
1, 80900, Note_on_c, 0, 62, 33
1, 81050, Note_off_c, 0, 60, 35
1, 81071, Note_off_c, 0, 62, 48
1, 81083, Note_on_c, 0, 74, 51
1, 81096, Note_on_c, 0, 72, 38
1, 81138, Note_off_c, 0, 74, 62
1, 81141, Note_off_c, 0, 72, 43
1, 81232, Note_on_c, 0, 68, 43
1, 81238, Note_on_c, 0, 66, 39
1, 81314, Note_off_c, 0, 68, 54
1, 81317, Note_off_c, 0, 66, 41
1, 81360, Note_on_c, 0, 74, 32
1, 81370, Note_on_c, 0, 76, 37
1, 81441, Note_off_c, 0, 74, 38
1, 81444, Note_off_c, 0, 76, 33
1, 81475, Note_on_c, 0, 88, 60
1, 81482, Note_on_c, 0, 86, 54
1, 81493, Note_off_c, 0, 88, 68
1, 81506, Note_off_c, 0, 86, 61
1, 81596, Note_on_c, 0, 80, 66
1, 81599, Note_on_c, 0, 82, 66
1, 81648, Note_off_c, 0, 82, 51
1, 81661, Note_off_c, 0, 80, 62
1, 81740, Note_on_c, 0, 60, 42
1, 81756, Note_on_c, 0, 62, 39
1, 81779, Note_off_c, 0, 60, 50
1, 81790, Note_off_c, 0, 62, 54
1, 81847, Note_on_c, 0, 74, 61
1, 81896, Note_off_c, 0, 74, 61
1, 81905, Note_on_c, 0, 72, 4
1, 81956, Note_off_c, 0, 72, 51
1, 81968, Note_on_c, 0, 68, 56
1, 81979, Note_on_c, 0, 66, 48
1, 82018, Note_off_c, 0, 66, 61
1, 82037, Note_off_c, 0, 68, 58
1, 82096, Note_on_c, 0, 76, 55
1, 82098, Note_on_c, 0, 74, 51
1, 82134, Note_off_c, 0, 76, 0
1, 82134, Note_on_c, 0, 76, 13
1, 82176, Note_off_c, 0, 74, 61
1, 82215, Note_on_c, 0, 88, 74
1, 82225, Note_off_c, 0, 76, 53
1, 82229, Note_on_c, 0, 86, 55
1, 82238, Note_off_c, 0, 88, 70
1, 82254, Note_off_c, 0, 86, 60
1, 82325, Note_on_c, 0, 82, 64
1, 82334, Note_on_c, 0, 80, 59
1, 82377, Note_off_c, 0, 80, 46
1, 82380, Note_off_c, 0, 82, 63
1, 82454, Note_on_c, 0, 62, 45
1, 82469, Note_on_c, 0, 60, 48
1, 82490, Note_off_c, 0, 60, 61
1, 82514, Note_off_c, 0, 62, 39
1, 82579, Note_on_c, 0, 74, 54
1, 82608, Note_on_c, 0, 72, 35
1, 82617, Note_off_c, 0, 74, 62
1, 82636, Note_off_c, 0, 72, 54
1, 82697, Note_on_c, 0, 68, 52
1, 82698, Note_on_c, 0, 66, 46
1, 82756, Note_off_c, 0, 66, 58
1, 82771, Note_off_c, 0, 68, 58
1, 82837, Note_on_c, 0, 74, 32
1, 82847, Note_on_c, 0, 76, 38
1, 82948, Note_off_c, 0, 74, 40
1, 82964, Note_on_c, 0, 88, 56
1, 82970, Note_on_c, 0, 86, 46
1, 82981, Note_off_c, 0, 76, 40
1, 82987, Note_off_c, 0, 88, 64
1, 82997, Note_off_c, 0, 86, 57
1, 83102, Note_on_c, 0, 80, 49
1, 83108, Note_on_c, 0, 82, 50
1, 83151, Note_off_c, 0, 82, 65
1, 83167, Note_off_c, 0, 80, 60
1, 83253, Note_on_c, 0, 62, 32
1, 83254, Note_on_c, 0, 60, 38
1, 83290, Note_off_c, 0, 60, 51
1, 83354, Note_off_c, 0, 62, 34
1, 83396, Note_on_c, 0, 74, 50
1, 83426, Note_on_c, 0, 72, 24
1, 83454, Note_off_c, 0, 74, 53
1, 83466, Note_off_c, 0, 72, 49
1, 83542, Note_on_c, 0, 68, 48
1, 83546, Note_on_c, 0, 66, 43
1, 83635, Note_off_c, 0, 66, 55
1, 83647, Note_off_c, 0, 68, 54
1, 83730, Note_on_c, 0, 74, 18
1, 83731, Note_on_c, 0, 76, 44
1, 83768, Note_off_c, 0, 76, 0
1, 83768, Note_on_c, 0, 76, 5
1, 83886, Note_off_c, 0, 74, 45
1, 83890, Note_on_c, 0, 86, 51
1, 83891, Note_on_c, 0, 88, 52
1, 83918, Note_off_c, 0, 76, 44
1, 83926, Note_off_c, 0, 88, 59
1, 83932, Note_off_c, 0, 86, 59
1, 84079, Note_on_c, 0, 82, 43
1, 84084, Note_on_c, 0, 80, 47
1, 84161, Note_off_c, 0, 80, 53
1, 84166, Note_off_c, 0, 82, 62
1, 84283, Note_on_c, 0, 60, 45
1, 84283, Note_on_c, 0, 62, 33
1, 84350, Note_off_c, 0, 60, 40
1, 84424, Note_off_c, 0, 62, 39
1, 84512, Note_on_c, 0, 72, 33
1, 84520, Note_on_c, 0, 74, 35
1, 84580, Note_off_c, 0, 74, 41
1, 84605, Note_off_c, 0, 72, 33
1, 84776, Note_on_c, 0, 66, 47
1, 84779, Note_on_c, 0, 68, 39
1, 85010, Note_off_c, 0, 68, 35
1, 85022, Note_off_c, 0, 66, 36
1, 85103, Note_on_c, 0, 74, 27
1, 85106, Note_on_c, 0, 76, 33
1, 85307, Note_off_c, 0, 74, 42
1, 85340, Note_off_c, 0, 76, 43
1, 85599, Note_on_c, 0, 88, 30
1, 85600, Note_on_c, 0, 86, 37
1, 85723, Note_off_c, 0, 88, 40
1, 85739, Note_off_c, 0, 86, 40
1, 86267, Control_c, 0, 64, 114
1, 86281, Control_c, 0, 64, 107
1, 86296, Control_c, 0, 64, 103
1, 86311, Control_c, 0, 64, 98
1, 86326, Control_c, 0, 64, 95
1, 86341, Control_c, 0, 64, 92
1, 86355, Control_c, 0, 64, 89
1, 86370, Control_c, 0, 64, 85
1, 86385, Control_c, 0, 64, 83
1, 86399, Control_c, 0, 64, 82
1, 86414, Control_c, 0, 64, 81
1, 86428, Control_c, 0, 64, 81
1, 86443, Control_c, 0, 64, 80
1, 86458, Control_c, 0, 64, 79
1, 86472, Control_c, 0, 64, 78
1, 86487, Control_c, 0, 64, 76
1, 86502, Control_c, 0, 64, 75
1, 86517, Control_c, 0, 64, 73
1, 86532, Control_c, 0, 64, 72
1, 86554, Control_c, 0, 64, 70
1, 86569, Control_c, 0, 64, 69
1, 86584, Control_c, 0, 64, 68
1, 86599, Control_c, 0, 64, 68
1, 86613, Control_c, 0, 64, 67
1, 86628, Control_c, 0, 64, 66
1, 86643, Control_c, 0, 64, 65
1, 86658, Control_c, 0, 64, 64
1, 86673, Control_c, 0, 64, 64
1, 86687, Control_c, 0, 64, 63
1, 86702, Control_c, 0, 64, 62
1, 86717, Control_c, 0, 64, 61
1, 86732, Control_c, 0, 64, 60
1, 86747, Control_c, 0, 64, 58
1, 86759, Note_on_c, 0, 32, 25
1, 86762, Control_c, 0, 64, 57
1, 86776, Control_c, 0, 64, 55
1, 86791, Control_c, 0, 64, 53
1, 86806, Control_c, 0, 64, 50
1, 86821, Control_c, 0, 64, 46
1, 86835, Note_on_c, 0, 85, 47
1, 86836, Control_c, 0, 64, 40
1, 86851, Control_c, 0, 64, 28
1, 86866, Control_c, 0, 64, 0
1, 86955, Control_c, 0, 64, 33
1, 86970, Control_c, 0, 64, 47
1, 86985, Control_c, 0, 64, 61
1, 86996, Note_off_c, 0, 32, 52
1, 87000, Control_c, 0, 64, 82
1, 87015, Control_c, 0, 64, 127
1, 87179, Note_on_c, 0, 80, 50
1, 87192, Note_off_c, 0, 85, 42
1, 87262, Note_off_c, 0, 80, 55
1, 87271, Note_on_c, 0, 78, 48
1, 87324, Note_off_c, 0, 78, 48
1, 87364, Note_on_c, 0, 74, 17
1, 87405, Note_off_c, 0, 74, 55
1, 87423, Note_on_c, 0, 73, 48
1, 87476, Note_off_c, 0, 73, 50
1, 87496, Note_on_c, 0, 68, 39
1, 87527, Note_on_c, 0, 66, 53
1, 87531, Note_off_c, 0, 68, 50
1, 87570, Note_off_c, 0, 66, 59
1, 87590, Note_on_c, 0, 62, 55
1, 87645, Note_off_c, 0, 62, 53
1, 87820, Note_on_c, 0, 73, 48
1, 87887, Note_on_c, 0, 68, 50
1, 87937, Note_on_c, 0, 66, 54
1, 87945, Note_off_c, 0, 68, 51
1, 87947, Note_off_c, 0, 73, 34
1, 87987, Note_off_c, 0, 66, 57
1, 88005, Note_on_c, 0, 62, 33
1, 88040, Note_off_c, 0, 62, 54
1, 88066, Note_on_c, 0, 61, 48
1, 88112, Note_off_c, 0, 61, 63
1, 88122, Note_on_c, 0, 56, 55
1, 88159, Note_off_c, 0, 56, 60
1, 88180, Note_on_c, 0, 54, 51
1, 88220, Note_off_c, 0, 54, 60
1, 88238, Note_on_c, 0, 50, 49
1, 88291, Note_off_c, 0, 50, 59
1, 88502, Note_on_c, 0, 72, 58
1, 88513, Control_c, 0, 64, 98
1, 88528, Control_c, 0, 64, 77
1, 88542, Control_c, 0, 64, 64
1, 88557, Control_c, 0, 64, 55
1, 88570, Note_on_c, 0, 68, 57
1, 88572, Control_c, 0, 64, 50
1, 88587, Note_off_c, 0, 72, 51
1, 88587, Control_c, 0, 64, 54
1, 88601, Control_c, 0, 64, 62
1, 88616, Control_c, 0, 64, 73
1, 88618, Note_on_c, 0, 66, 62
1, 88631, Note_off_c, 0, 68, 47
1, 88631, Control_c, 0, 64, 96
1, 88646, Control_c, 0, 64, 127
1, 88679, Note_off_c, 0, 66, 53
1, 88685, Note_on_c, 0, 62, 41
1, 88714, Note_off_c, 0, 62, 57
1, 88721, Note_on_c, 0, 60, 33
1, 88765, Note_off_c, 0, 60, 47
1, 88777, Note_on_c, 0, 56, 52
1, 88818, Note_off_c, 0, 56, 64
1, 88845, Note_on_c, 0, 54, 54
1, 88887, Note_off_c, 0, 54, 62
1, 88908, Note_on_c, 0, 50, 50
1, 88939, Note_off_c, 0, 50, 65
1, 89239, Note_on_c, 0, 84, 60
1, 89310, Note_on_c, 0, 80, 59
1, 89344, Note_off_c, 0, 84, 61
1, 89355, Note_on_c, 0, 78, 59
1, 89395, Note_off_c, 0, 78, 59
1, 89401, Note_on_c, 0, 74, 42
1, 89402, Note_off_c, 0, 80, 33
1, 89429, Note_off_c, 0, 74, 56
1, 89439, Note_on_c, 0, 72, 48
1, 89502, Note_on_c, 0, 68, 54
1, 89513, Note_off_c, 0, 72, 39
1, 89555, Note_on_c, 0, 66, 47
1, 89592, Note_off_c, 0, 68, 46
1, 89606, Note_on_c, 0, 62, 55
1, 89613, Note_off_c, 0, 66, 59
1, 89641, Note_off_c, 0, 62, 63
1, 90045, Note_on_c, 0, 32, 41
1, 90085, Control_c, 0, 64, 110
1, 90100, Control_c, 0, 64, 84
1, 90115, Control_c, 0, 64, 67
1, 90123, Note_on_c, 0, 85, 50
1, 90129, Control_c, 0, 64, 55
1, 90144, Control_c, 0, 64, 33
1, 90159, Control_c, 0, 64, 0
1, 90217, Note_off_c, 0, 32, 57
1, 90218, Control_c, 0, 64, 22
1, 90233, Control_c, 0, 64, 37
1, 90247, Control_c, 0, 64, 52
1, 90262, Control_c, 0, 64, 68
1, 90277, Control_c, 0, 64, 127
1, 90359, Note_on_c, 0, 80, 40
1, 90377, Note_off_c, 0, 85, 35
1, 90415, Note_off_c, 0, 80, 42
1, 90419, Note_on_c, 0, 78, 47
1, 90464, Note_off_c, 0, 78, 51
1, 90478, Note_on_c, 0, 74, 47
1, 90502, Note_off_c, 0, 74, 61
1, 90531, Note_on_c, 0, 73, 55
1, 90578, Note_off_c, 0, 73, 56
1, 90599, Note_on_c, 0, 68, 49
1, 90637, Note_on_c, 0, 66, 55
1, 90643, Note_off_c, 0, 68, 47
1, 90686, Note_off_c, 0, 66, 53
1, 90687, Note_on_c, 0, 62, 55
1, 90761, Note_off_c, 0, 62, 61
1, 90861, Note_on_c, 0, 73, 57
1, 90942, Note_on_c, 0, 68, 44
1, 90982, Note_on_c, 0, 66, 55
1, 91006, Note_off_c, 0, 73, 36
1, 91011, Note_off_c, 0, 68, 38
1, 91049, Note_on_c, 0, 62, 53
1, 91053, Note_off_c, 0, 66, 54
1, 91072, Note_off_c, 0, 62, 60
1, 91087, Note_on_c, 0, 61, 55
1, 91136, Note_off_c, 0, 61, 58
1, 91176, Note_on_c, 0, 56, 34
1, 91204, Note_on_c, 0, 54, 59
1, 91209, Note_off_c, 0, 56, 54
1, 91257, Note_off_c, 0, 54, 56
1, 91269, Note_on_c, 0, 50, 46
1, 91441, Note_off_c, 0, 50, 25
1, 91475, Note_on_c, 0, 74, 63
1, 91492, Control_c, 0, 64, 80
1, 91507, Control_c, 0, 64, 64
1, 91522, Control_c, 0, 64, 50
1, 91537, Control_c, 0, 64, 40
1, 91552, Control_c, 0, 64, 44
1, 91552, Note_on_c, 0, 68, 62
1, 91567, Control_c, 0, 64, 55
1, 91572, Note_off_c, 0, 74, 47
1, 91582, Control_c, 0, 64, 67
1, 91596, Control_c, 0, 64, 127
1, 91599, Note_on_c, 0, 66, 61
1, 91652, Note_on_c, 0, 62, 49
1, 91653, Note_off_c, 0, 66, 57
1, 91658, Note_off_c, 0, 68, 31
1, 91679, Note_off_c, 0, 62, 58
1, 91695, Note_on_c, 0, 56, 50
1, 91747, Note_off_c, 0, 56, 63
1, 91770, Note_on_c, 0, 54, 56
1, 91820, Note_off_c, 0, 54, 64
1, 91843, Note_on_c, 0, 50, 50
1, 91869, Note_off_c, 0, 50, 63
1, 92099, Note_on_c, 0, 86, 69
1, 92160, Note_on_c, 0, 80, 65
1, 92176, Note_off_c, 0, 86, 53
1, 92204, Note_on_c, 0, 78, 61
1, 92205, Note_off_c, 0, 80, 56
1, 92253, Note_on_c, 0, 74, 46
1, 92258, Note_off_c, 0, 78, 54
1, 92279, Note_off_c, 0, 74, 59
1, 92313, Note_on_c, 0, 68, 49
1, 92372, Note_on_c, 0, 66, 57
1, 92411, Note_off_c, 0, 68, 38
1, 92422, Note_off_c, 0, 66, 52
1, 92437, Note_on_c, 0, 62, 55
1, 92472, Note_off_c, 0, 62, 65
1, 92819, Note_on_c, 0, 35, 39
1, 92871, Control_c, 0, 64, 92
1, 92886, Control_c, 0, 64, 72
1, 92901, Control_c, 0, 64, 60
1, 92915, Control_c, 0, 64, 44
1, 92929, Note_on_c, 0, 90, 60
1, 92930, Control_c, 0, 64, 22
1, 92945, Control_c, 0, 64, 12
1, 92960, Control_c, 0, 64, 14
1, 92974, Control_c, 0, 64, 25
1, 92983, Note_off_c, 0, 35, 56
1, 92989, Control_c, 0, 64, 38
1, 93004, Control_c, 0, 64, 53
1, 93019, Control_c, 0, 64, 72
1, 93034, Control_c, 0, 64, 127
1, 93107, Note_off_c, 0, 90, 61
1, 93111, Note_on_c, 0, 85, 51
1, 93170, Note_off_c, 0, 85, 56
1, 93182, Note_on_c, 0, 80, 54
1, 93219, Note_off_c, 0, 80, 58
1, 93234, Note_on_c, 0, 78, 68
1, 93264, Note_off_c, 0, 78, 62
1, 93299, Note_on_c, 0, 74, 60
1, 93338, Note_off_c, 0, 74, 59
1, 93362, Note_on_c, 0, 73, 49
1, 93390, Note_off_c, 0, 73, 58
1, 93405, Note_on_c, 0, 68, 56
1, 93453, Note_on_c, 0, 66, 55
1, 93511, Note_off_c, 0, 66, 60
1, 93513, Note_off_c, 0, 68, 36
1, 93555, Note_on_c, 0, 78, 68
1, 93629, Note_off_c, 0, 78, 62
1, 93634, Note_on_c, 0, 73, 41
1, 93676, Note_on_c, 0, 68, 67
1, 93680, Note_off_c, 0, 73, 51
1, 93731, Note_off_c, 0, 68, 58
1, 93752, Note_on_c, 0, 66, 50
1, 93786, Note_off_c, 0, 66, 53
1, 93806, Note_on_c, 0, 62, 38
1, 93838, Note_off_c, 0, 62, 54
1, 93847, Note_on_c, 0, 61, 54
1, 93904, Note_off_c, 0, 61, 61
1, 93924, Note_on_c, 0, 56, 57
1, 93932, Note_on_c, 0, 54, 54
1, 93951, Note_off_c, 0, 56, 68
1, 93958, Note_off_c, 0, 54, 64
1, 94101, Control_c, 0, 64, 88
1, 94114, Note_on_c, 0, 38, 57
1, 94116, Control_c, 0, 64, 61
1, 94128, Note_on_c, 0, 76, 65
1, 94129, Note_on_c, 0, 50, 27
1, 94131, Control_c, 0, 64, 43
1, 94145, Control_c, 0, 64, 19
1, 94160, Control_c, 0, 64, 20
1, 94169, Note_off_c, 0, 38, 63
1, 94175, Control_c, 0, 64, 32
1, 94180, Note_off_c, 0, 50, 46
1, 94190, Control_c, 0, 64, 46
1, 94194, Note_on_c, 0, 72, 63
1, 94205, Control_c, 0, 64, 62
1, 94220, Control_c, 0, 64, 127
1, 94225, Note_off_c, 0, 76, 39
1, 94263, Note_off_c, 0, 72, 59
1, 94264, Note_on_c, 0, 68, 48
1, 94308, Note_on_c, 0, 64, 54
1, 94319, Note_off_c, 0, 68, 48
1, 94330, Note_off_c, 0, 64, 61
1, 94405, Note_on_c, 0, 62, 62
1, 94445, Note_off_c, 0, 62, 61
1, 94485, Note_on_c, 0, 60, 43
1, 94510, Note_off_c, 0, 60, 58
1, 94526, Note_on_c, 0, 56, 59
1, 94586, Note_off_c, 0, 56, 63
1, 94592, Note_on_c, 0, 54, 67
1, 94624, Note_off_c, 0, 54, 66
1, 94729, Note_on_c, 0, 88, 70
1, 94793, Note_on_c, 0, 84, 67
1, 94825, Note_off_c, 0, 88, 61
1, 94863, Note_on_c, 0, 80, 54
1, 94871, Note_off_c, 0, 84, 60
1, 94897, Note_off_c, 0, 80, 52
1, 94911, Note_on_c, 0, 76, 57
1, 94932, Note_off_c, 0, 76, 61
1, 94989, Note_on_c, 0, 74, 50
1, 95026, Note_off_c, 0, 74, 64
1, 95056, Note_on_c, 0, 72, 46
1, 95101, Note_off_c, 0, 72, 44
1, 95117, Note_on_c, 0, 68, 53
1, 95162, Note_on_c, 0, 66, 55
1, 95200, Note_off_c, 0, 66, 61
1, 95202, Note_off_c, 0, 68, 59
1, 95528, Note_on_c, 0, 37, 40
1, 95555, Control_c, 0, 64, 105
1, 95557, Note_on_c, 0, 49, 23
1, 95569, Control_c, 0, 64, 84
1, 95584, Control_c, 0, 64, 69
1, 95599, Control_c, 0, 64, 57
1, 95614, Control_c, 0, 64, 34
1, 95626, Note_on_c, 0, 92, 63
1, 95629, Control_c, 0, 64, 0
1, 95704, Control_c, 0, 64, 28
1, 95719, Control_c, 0, 64, 47
1, 95720, Note_off_c, 0, 37, 59
1, 95734, Control_c, 0, 64, 64
1, 95748, Control_c, 0, 64, 127
1, 95791, Note_off_c, 0, 49, 40
1, 95812, Note_off_c, 0, 92, 53
1, 95817, Note_on_c, 0, 87, 56
1, 95894, Note_on_c, 0, 82, 57
1, 95901, Note_off_c, 0, 87, 52
1, 95948, Note_off_c, 0, 82, 62
1, 95963, Note_on_c, 0, 80, 52
1, 95989, Note_off_c, 0, 80, 56
1, 96011, Note_on_c, 0, 76, 60
1, 96053, Note_off_c, 0, 76, 61
1, 96079, Note_on_c, 0, 75, 46
1, 96105, Note_off_c, 0, 75, 57
1, 96122, Note_on_c, 0, 70, 54
1, 96163, Note_on_c, 0, 68, 56
1, 96214, Note_off_c, 0, 70, 53
1, 96221, Note_off_c, 0, 68, 54
1, 96265, Note_on_c, 0, 80, 67
1, 96342, Note_off_c, 0, 80, 54
1, 96347, Note_on_c, 0, 75, 47
1, 96398, Note_on_c, 0, 70, 61
1, 96399, Note_off_c, 0, 75, 55
1, 96446, Note_off_c, 0, 70, 59
1, 96474, Note_on_c, 0, 68, 42
1, 96507, Note_off_c, 0, 68, 52
1, 96517, Note_on_c, 0, 64, 36
1, 96548, Note_off_c, 0, 64, 53
1, 96564, Note_on_c, 0, 63, 56
1, 96629, Note_off_c, 0, 63, 62
1, 96638, Note_on_c, 0, 58, 56
1, 96647, Note_on_c, 0, 56, 63
1, 96670, Note_off_c, 0, 58, 64
1, 96674, Note_off_c, 0, 56, 69
1, 96807, Control_c, 0, 64, 95
1, 96822, Control_c, 0, 64, 65
1, 96833, Note_on_c, 0, 40, 62
1, 96837, Control_c, 0, 64, 49
1, 96840, Note_on_c, 0, 78, 69
1, 96852, Control_c, 0, 64, 27
1, 96861, Note_on_c, 0, 52, 23
1, 96867, Note_off_c, 0, 40, 56
1, 96867, Control_c, 0, 64, 24
1, 96882, Control_c, 0, 64, 36
1, 96897, Control_c, 0, 64, 51
1, 96902, Note_on_c, 0, 74, 59
1, 96903, Note_off_c, 0, 52, 52
1, 96911, Control_c, 0, 64, 69
1, 96926, Control_c, 0, 64, 127
1, 96942, Note_off_c, 0, 78, 59
1, 96975, Note_on_c, 0, 70, 56
1, 96992, Note_off_c, 0, 74, 57
1, 97020, Note_off_c, 0, 70, 58
1, 97025, Note_on_c, 0, 66, 57
1, 97055, Note_off_c, 0, 66, 65
1, 97134, Note_on_c, 0, 64, 54
1, 97183, Note_off_c, 0, 64, 57
1, 97203, Note_on_c, 0, 62, 51
1, 97241, Note_off_c, 0, 62, 62
1, 97263, Note_on_c, 0, 58, 58
1, 97335, Note_off_c, 0, 58, 62
1, 97344, Note_on_c, 0, 56, 66
1, 97378, Note_off_c, 0, 56, 65
1, 97483, Note_on_c, 0, 90, 71
1, 97555, Note_on_c, 0, 86, 64
1, 97603, Note_off_c, 0, 90, 60
1, 97630, Note_on_c, 0, 82, 51
1, 97672, Note_off_c, 0, 82, 48
1, 97681, Note_on_c, 0, 78, 50
1, 97708, Note_off_c, 0, 78, 57
1, 97716, Note_off_c, 0, 86, 27
1, 97795, Note_on_c, 0, 76, 52
1, 97844, Note_off_c, 0, 76, 53
1, 97871, Note_on_c, 0, 74, 56
1, 97944, Note_off_c, 0, 74, 61
1, 97958, Note_on_c, 0, 70, 58
1, 98059, Note_on_c, 0, 68, 59
1, 98086, Note_off_c, 0, 70, 35
1, 98118, Note_off_c, 0, 68, 58
1, 98757, Control_c, 0, 64, 108
1, 98772, Control_c, 0, 64, 103
1, 98786, Control_c, 0, 64, 99
1, 98801, Control_c, 0, 64, 95
1, 98816, Control_c, 0, 64, 91
1, 98831, Control_c, 0, 64, 87
1, 98846, Control_c, 0, 64, 83
1, 98862, Control_c, 0, 64, 79
1, 98876, Note_on_c, 0, 24, 26
1, 98877, Control_c, 0, 64, 74
1, 98884, Note_on_c, 0, 31, 31
1, 98884, Note_on_c, 0, 96, 48
1, 98890, Note_on_c, 0, 91, 46
1, 98891, Control_c, 0, 64, 67
1, 98906, Control_c, 0, 64, 62
1, 98909, Note_on_c, 0, 84, 29
1, 98910, Note_on_c, 0, 88, 40
1, 98921, Control_c, 0, 64, 54
1, 98936, Control_c, 0, 64, 40
1, 98950, Control_c, 0, 64, 14
1, 98965, Control_c, 0, 64, 0
1, 99128, Control_c, 0, 64, 20
1, 99132, Note_off_c, 0, 96, 56
1, 99143, Control_c, 0, 64, 35
1, 99158, Control_c, 0, 64, 49
1, 99173, Control_c, 0, 64, 66
1, 99182, Note_off_c, 0, 84, 40
1, 99188, Control_c, 0, 64, 114
1, 99189, Note_off_c, 0, 91, 52
1, 99199, Note_off_c, 0, 88, 56
1, 99202, Control_c, 0, 64, 127
1, 99281, Note_off_c, 0, 31, 40
1, 99299, Note_off_c, 0, 24, 39
1, 99745, Note_on_c, 0, 48, 18
1, 99789, Note_off_c, 0, 48, 53
1, 99811, Note_on_c, 0, 50, 42
1, 99840, Note_off_c, 0, 50, 49
1, 99879, Note_on_c, 0, 52, 53
1, 99904, Note_off_c, 0, 52, 58
1, 99929, Note_on_c, 0, 53, 49
1, 99956, Note_off_c, 0, 53, 59
1, 99981, Note_on_c, 0, 55, 46
1, 100009, Note_off_c, 0, 55, 59
1, 100021, Note_on_c, 0, 57, 51
1, 100053, Note_off_c, 0, 57, 57
1, 100080, Note_on_c, 0, 59, 42
1, 100109, Note_off_c, 0, 59, 55
1, 100115, Note_on_c, 0, 60, 49
1, 100138, Note_off_c, 0, 60, 59
1, 100155, Note_on_c, 0, 62, 50
1, 100182, Note_off_c, 0, 62, 58
1, 100200, Note_on_c, 0, 64, 47
1, 100226, Note_off_c, 0, 64, 56
1, 100246, Note_on_c, 0, 65, 50
1, 100270, Note_off_c, 0, 65, 60
1, 100291, Note_on_c, 0, 67, 54
1, 100313, Note_off_c, 0, 67, 61
1, 100343, Note_on_c, 0, 69, 51
1, 100363, Note_off_c, 0, 69, 63
1, 100395, Note_on_c, 0, 71, 55
1, 100414, Note_off_c, 0, 71, 64
1, 100450, Note_on_c, 0, 72, 41
1, 100480, Note_off_c, 0, 72, 55
1, 100509, Note_on_c, 0, 66, 58
1, 100512, Note_on_c, 0, 61, 56
1, 100523, Note_on_c, 0, 54, 45
1, 100525, Note_on_c, 0, 58, 53
1, 100552, Control_c, 0, 64, 80
1, 100567, Control_c, 0, 64, 63
1, 100581, Control_c, 0, 64, 47
1, 100596, Control_c, 0, 64, 0
1, 100700, Control_c, 0, 64, 19
1, 100715, Control_c, 0, 64, 36
1, 100730, Control_c, 0, 64, 48
1, 100731, Note_off_c, 0, 54, 58
1, 100745, Control_c, 0, 64, 60
1, 100760, Control_c, 0, 64, 73
1, 100775, Control_c, 0, 64, 107
1, 100796, Control_c, 0, 64, 127
1, 100888, Note_off_c, 0, 66, 49
1, 100895, Note_off_c, 0, 58, 60
1, 100918, Note_off_c, 0, 61, 64
1, 101144, Note_on_c, 0, 76, 72
1, 101148, Note_on_c, 0, 64, 57
1, 101153, Note_on_c, 0, 68, 52
1, 101169, Note_off_c, 0, 64, 63
1, 101177, Note_on_c, 0, 71, 20
1, 101183, Note_off_c, 0, 68, 49
1, 101194, Note_off_c, 0, 76, 64
1, 101216, Note_off_c, 0, 71, 56
1, 101235, Note_on_c, 0, 70, 63
1, 101238, Note_on_c, 0, 62, 58
1, 101238, Note_on_c, 0, 65, 58
1, 101240, Control_c, 0, 64, 83
1, 101249, Note_on_c, 0, 58, 57
1, 101257, Control_c, 0, 64, 65
1, 101272, Control_c, 0, 64, 50
1, 101286, Control_c, 0, 64, 0
1, 101370, Note_off_c, 0, 70, 63
1, 101390, Control_c, 0, 64, 28
1, 101404, Control_c, 0, 64, 41
1, 101419, Control_c, 0, 64, 52
1, 101422, Note_off_c, 0, 58, 59
1, 101426, Note_off_c, 0, 65, 62
1, 101434, Control_c, 0, 64, 60
1, 101435, Note_off_c, 0, 62, 58
1, 101449, Control_c, 0, 64, 67
1, 101464, Control_c, 0, 64, 76
1, 101478, Control_c, 0, 64, 88
1, 101493, Control_c, 0, 64, 92
1, 101508, Control_c, 0, 64, 93
1, 101530, Control_c, 0, 64, 93
1, 101545, Control_c, 0, 64, 94
1, 101619, Control_c, 0, 64, 93
1, 101649, Control_c, 0, 64, 93
1, 101664, Control_c, 0, 64, 92
1, 101678, Control_c, 0, 64, 91
1, 101693, Control_c, 0, 64, 90
1, 101708, Control_c, 0, 64, 89
1, 101723, Control_c, 0, 64, 88
1, 101738, Control_c, 0, 64, 87
1, 101752, Control_c, 0, 64, 85
1, 101767, Control_c, 0, 64, 83
1, 101782, Control_c, 0, 64, 81
1, 101797, Control_c, 0, 64, 80
1, 101812, Control_c, 0, 64, 78
1, 101827, Control_c, 0, 64, 77
1, 101842, Control_c, 0, 64, 75
1, 101856, Control_c, 0, 64, 71
1, 101871, Control_c, 0, 64, 69
1, 101886, Control_c, 0, 64, 66
1, 101901, Control_c, 0, 64, 64
1, 101916, Control_c, 0, 64, 63
1, 101930, Control_c, 0, 64, 61
1, 101945, Control_c, 0, 64, 58
1, 101960, Control_c, 0, 64, 54
1, 101975, Control_c, 0, 64, 51
1, 101990, Control_c, 0, 64, 50
1, 102004, Control_c, 0, 64, 49
1, 102019, Control_c, 0, 64, 48
1, 102034, Control_c, 0, 64, 47
1, 102050, Control_c, 0, 64, 45
1, 102065, Control_c, 0, 64, 43
1, 102080, Control_c, 0, 64, 41
1, 102095, Control_c, 0, 64, 39
1, 102109, Control_c, 0, 64, 38
1, 102124, Control_c, 0, 64, 36
1, 102139, Control_c, 0, 64, 32
1, 102153, Control_c, 0, 64, 30
1, 102168, Control_c, 0, 64, 28
1, 102183, Control_c, 0, 64, 25
1, 102198, Control_c, 0, 64, 22
1, 102213, Control_c, 0, 64, 18
1, 102227, Control_c, 0, 64, 13
1, 102242, Control_c, 0, 64, 0
1, 102268, Note_on_c, 0, 96, 52
1, 102278, Note_on_c, 0, 24, 26
1, 102279, Note_on_c, 0, 91, 51
1, 102289, Note_on_c, 0, 88, 43
1, 102298, Note_on_c, 0, 31, 32
1, 102302, Note_on_c, 0, 84, 27
1, 102442, Control_c, 0, 64, 17
1, 102457, Control_c, 0, 64, 28
1, 102472, Control_c, 0, 64, 37
1, 102474, Note_off_c, 0, 96, 53
1, 102486, Control_c, 0, 64, 47
1, 102501, Note_off_c, 0, 84, 42
1, 102501, Control_c, 0, 64, 57
1, 102516, Control_c, 0, 64, 66
1, 102517, Note_off_c, 0, 91, 57
1, 102519, Note_off_c, 0, 88, 63
1, 102531, Control_c, 0, 64, 83
1, 102546, Control_c, 0, 64, 99
1, 102560, Control_c, 0, 64, 115
1, 102575, Control_c, 0, 64, 127
1, 102576, Note_off_c, 0, 31, 38
1, 102578, Note_off_c, 0, 24, 39
1, 103078, Note_on_c, 0, 48, 45
1, 103109, Note_off_c, 0, 48, 55
1, 103142, Note_on_c, 0, 50, 44
1, 103171, Note_off_c, 0, 50, 64
1, 103212, Note_on_c, 0, 52, 56
1, 103237, Note_off_c, 0, 52, 59
1, 103258, Note_on_c, 0, 53, 56
1, 103282, Note_off_c, 0, 53, 60
1, 103306, Note_on_c, 0, 55, 52
1, 103332, Note_off_c, 0, 55, 58
1, 103345, Note_on_c, 0, 57, 55
1, 103368, Note_off_c, 0, 57, 59
1, 103398, Note_on_c, 0, 59, 44
1, 103428, Note_off_c, 0, 59, 56
1, 103436, Note_on_c, 0, 60, 51
1, 103459, Note_off_c, 0, 60, 60
1, 103478, Note_on_c, 0, 62, 49
1, 103506, Note_off_c, 0, 62, 57
1, 103522, Note_on_c, 0, 64, 48
1, 103547, Note_off_c, 0, 64, 56
1, 103565, Note_on_c, 0, 65, 51
1, 103587, Note_off_c, 0, 65, 62
1, 103610, Note_on_c, 0, 67, 51
1, 103633, Note_off_c, 0, 67, 63
1, 103663, Note_on_c, 0, 69, 54
1, 103685, Note_off_c, 0, 69, 63
1, 103721, Note_on_c, 0, 71, 52
1, 103744, Note_off_c, 0, 71, 62
1, 103777, Note_on_c, 0, 72, 44
1, 103803, Note_off_c, 0, 72, 57
1, 103836, Note_on_c, 0, 61, 56
1, 103839, Note_on_c, 0, 58, 55
1, 103842, Note_on_c, 0, 66, 57
1, 103843, Note_on_c, 0, 54, 49
1, 103851, Control_c, 0, 64, 107
1, 103866, Control_c, 0, 64, 88
1, 103881, Control_c, 0, 64, 73
1, 103896, Control_c, 0, 64, 62
1, 103911, Control_c, 0, 64, 44
1, 103925, Control_c, 0, 64, 0
1, 104016, Note_off_c, 0, 54, 63
1, 104029, Control_c, 0, 64, 11
1, 104044, Control_c, 0, 64, 32
1, 104058, Control_c, 0, 64, 51
1, 104073, Control_c, 0, 64, 66
1, 104088, Control_c, 0, 64, 90
1, 104103, Control_c, 0, 64, 127
1, 104160, Note_off_c, 0, 66, 56
1, 104165, Note_off_c, 0, 58, 58
1, 104191, Note_off_c, 0, 61, 62
1, 104405, Note_on_c, 0, 76, 65
1, 104414, Note_on_c, 0, 68, 58
1, 104424, Note_on_c, 0, 64, 37
1, 104430, Note_on_c, 0, 71, 35
1, 104445, Note_off_c, 0, 68, 60
1, 104455, Note_off_c, 0, 76, 59
1, 104457, Note_off_c, 0, 64, 51
1, 104458, Control_c, 0, 64, 84
1, 104460, Note_off_c, 0, 71, 56
1, 104472, Control_c, 0, 64, 63
1, 104487, Note_on_c, 0, 65, 63
1, 104487, Control_c, 0, 64, 44
1, 104488, Note_on_c, 0, 70, 70
1, 104489, Note_on_c, 0, 62, 54
1, 104501, Note_on_c, 0, 58, 62
1, 104502, Control_c, 0, 64, 20
1, 104525, Note_off_c, 0, 70, 64
1, 104525, Control_c, 0, 64, 28
1, 104540, Control_c, 0, 64, 46
1, 104546, Note_off_c, 0, 58, 62
1, 104548, Note_off_c, 0, 62, 62
1, 104549, Note_off_c, 0, 65, 64
1, 104554, Control_c, 0, 64, 62
1, 104569, Control_c, 0, 64, 98
1, 104584, Control_c, 0, 64, 127
1, 104643, Control_c, 0, 64, 108
1, 104658, Control_c, 0, 64, 87
1, 104672, Control_c, 0, 64, 76
1, 104687, Control_c, 0, 64, 68
1, 104702, Control_c, 0, 64, 61
1, 104717, Control_c, 0, 64, 50
1, 104732, Control_c, 0, 64, 38
1, 104746, Control_c, 0, 64, 26
1, 104761, Control_c, 0, 64, 11
1, 104776, Control_c, 0, 64, 0
1, 104841, Note_on_c, 0, 79, 67
1, 104850, Note_on_c, 0, 74, 49
1, 104853, Note_on_c, 0, 55, 54
1, 104855, Note_on_c, 0, 59, 45
1, 104862, Note_on_c, 0, 67, 33
1, 104865, Note_on_c, 0, 71, 45
1, 104875, Note_on_c, 0, 62, 21
1, 104892, Note_off_c, 0, 67, 53
1, 104894, Control_c, 0, 64, 23
1, 104897, Note_off_c, 0, 59, 61
1, 104906, Note_off_c, 0, 71, 59
1, 104909, Control_c, 0, 64, 42
1, 104916, Note_off_c, 0, 62, 42
1, 104918, Note_off_c, 0, 74, 64
1, 104921, Note_off_c, 0, 55, 64
1, 104924, Control_c, 0, 64, 56
1, 104939, Control_c, 0, 64, 67
1, 104945, Note_off_c, 0, 79, 65
1, 104954, Control_c, 0, 64, 82
1, 104969, Control_c, 0, 64, 86
1, 105072, Control_c, 0, 64, 84
1, 105087, Control_c, 0, 64, 81
1, 105102, Control_c, 0, 64, 78
1, 105117, Control_c, 0, 64, 75
1, 105132, Control_c, 0, 64, 73
1, 105147, Control_c, 0, 64, 71
1, 105162, Control_c, 0, 64, 69
1, 105177, Control_c, 0, 64, 66
1, 105192, Control_c, 0, 64, 63
1, 105207, Control_c, 0, 64, 58
1, 105221, Control_c, 0, 64, 53
1, 105236, Control_c, 0, 64, 48
1, 105252, Control_c, 0, 64, 43
1, 105274, Control_c, 0, 64, 38
1, 105289, Control_c, 0, 64, 35
1, 105303, Control_c, 0, 64, 32
1, 105318, Control_c, 0, 64, 29
1, 105333, Control_c, 0, 64, 25
1, 105348, Control_c, 0, 64, 22
1, 105363, Control_c, 0, 64, 20
1, 105377, Control_c, 0, 64, 16
1, 105392, Control_c, 0, 64, 11
1, 105407, Control_c, 0, 64, 0
1, 105541, Note_on_c, 0, 94, 47
1, 105544, Note_on_c, 0, 99, 48
1, 105551, Note_on_c, 0, 87, 33
1, 105561, Note_on_c, 0, 90, 33
1, 105565, Note_on_c, 0, 27, 32
1, 105567, Note_on_c, 0, 34, 24
1, 105577, Note_on_c, 0, 39, 15
1, 105644, Control_c, 0, 64, 8
1, 105659, Control_c, 0, 64, 14
1, 105674, Control_c, 0, 64, 20
1, 105689, Control_c, 0, 64, 28
1, 105703, Control_c, 0, 64, 34
1, 105718, Control_c, 0, 64, 42
1, 105733, Control_c, 0, 64, 52
1, 105748, Control_c, 0, 64, 62
1, 105759, Note_off_c, 0, 99, 61
1, 105763, Control_c, 0, 64, 74
1, 105777, Control_c, 0, 64, 94
1, 105792, Control_c, 0, 64, 110
1, 105798, Note_off_c, 0, 94, 55
1, 105804, Note_off_c, 0, 87, 42
1, 105807, Control_c, 0, 64, 127
1, 105818, Note_off_c, 0, 90, 55
1, 105883, Note_off_c, 0, 27, 41
1, 105914, Note_off_c, 0, 34, 40
1, 105951, Note_off_c, 0, 39, 41
1, 106283, Note_on_c, 0, 51, 58
1, 106320, Note_off_c, 0, 51, 67
1, 106386, Note_on_c, 0, 54, 55
1, 106415, Note_off_c, 0, 54, 66
1, 106448, Note_on_c, 0, 56, 58
1, 106473, Note_off_c, 0, 56, 68
1, 106500, Note_on_c, 0, 58, 56
1, 106527, Note_off_c, 0, 58, 66
1, 106567, Note_on_c, 0, 61, 58
1, 106590, Note_off_c, 0, 61, 69
1, 106619, Note_on_c, 0, 63, 58
1, 106640, Note_off_c, 0, 63, 64
1, 106677, Note_on_c, 0, 66, 59
1, 106706, Note_off_c, 0, 66, 65
1, 106726, Note_on_c, 0, 68, 61
1, 106748, Note_off_c, 0, 68, 63
1, 106778, Note_on_c, 0, 70, 62
1, 106800, Note_off_c, 0, 70, 65
1, 106844, Note_on_c, 0, 73, 61
1, 106865, Note_off_c, 0, 73, 68
1, 106998, Note_on_c, 0, 69, 56
1, 106999, Note_on_c, 0, 61, 52
1, 107000, Note_on_c, 0, 64, 58
1, 107006, Note_on_c, 0, 57, 49
1, 107023, Control_c, 0, 64, 114
1, 107038, Control_c, 0, 64, 82
1, 107053, Control_c, 0, 64, 65
1, 107067, Control_c, 0, 64, 52
1, 107082, Control_c, 0, 64, 26
1, 107097, Control_c, 0, 64, 0
1, 107187, Control_c, 0, 64, 9
1, 107201, Note_off_c, 0, 57, 50
1, 107202, Control_c, 0, 64, 28
1, 107216, Control_c, 0, 64, 43
1, 107231, Control_c, 0, 64, 56
1, 107246, Control_c, 0, 64, 68
1, 107261, Control_c, 0, 64, 94
1, 107262, Note_off_c, 0, 69, 57
1, 107275, Control_c, 0, 64, 117
1, 107290, Control_c, 0, 64, 119
1, 107305, Control_c, 0, 64, 127
1, 107330, Note_off_c, 0, 64, 60
1, 107342, Note_off_c, 0, 61, 63
1, 107602, Note_on_c, 0, 79, 71
1, 107613, Note_on_c, 0, 67, 48
1, 107619, Note_on_c, 0, 74, 46
1, 107630, Note_on_c, 0, 71, 34
1, 107639, Note_off_c, 0, 67, 58
1, 107643, Note_off_c, 0, 74, 62
1, 107658, Note_off_c, 0, 79, 59
1, 107663, Note_off_c, 0, 71, 55
1, 107668, Control_c, 0, 64, 103
1, 107683, Control_c, 0, 64, 79
1, 107697, Control_c, 0, 64, 62
1, 107702, Note_on_c, 0, 65, 57
1, 107703, Note_on_c, 0, 73, 59
1, 107712, Control_c, 0, 64, 44
1, 107713, Note_on_c, 0, 61, 51
1, 107713, Note_on_c, 0, 68, 54
1, 107727, Control_c, 0, 64, 0
1, 107751, Note_off_c, 0, 73, 0
1, 107751, Note_on_c, 0, 73, 28
1, 107816, Control_c, 0, 64, 23
1, 107828, Note_off_c, 0, 73, 59
1, 107831, Control_c, 0, 64, 36
1, 107845, Control_c, 0, 64, 47
1, 107860, Control_c, 0, 64, 57
1, 107872, Note_off_c, 0, 65, 58
1, 107875, Control_c, 0, 64, 67
1, 107878, Note_off_c, 0, 61, 39
1, 107879, Note_off_c, 0, 68, 58
1, 107890, Control_c, 0, 64, 77
1, 107905, Control_c, 0, 64, 83
1, 107920, Control_c, 0, 64, 84
1, 107964, Control_c, 0, 64, 85
1, 108024, Control_c, 0, 64, 84
1, 108038, Control_c, 0, 64, 83
1, 108053, Control_c, 0, 64, 82
1, 108068, Control_c, 0, 64, 80
1, 108083, Control_c, 0, 64, 79
1, 108097, Control_c, 0, 64, 78
1, 108112, Control_c, 0, 64, 77
1, 108127, Control_c, 0, 64, 75
1, 108143, Control_c, 0, 64, 74
1, 108158, Control_c, 0, 64, 73
1, 108172, Control_c, 0, 64, 72
1, 108187, Control_c, 0, 64, 71
1, 108202, Control_c, 0, 64, 69
1, 108216, Control_c, 0, 64, 67
1, 108231, Control_c, 0, 64, 65
1, 108246, Control_c, 0, 64, 63
1, 108261, Control_c, 0, 64, 61
1, 108284, Control_c, 0, 64, 58
1, 108298, Control_c, 0, 64, 54
1, 108313, Control_c, 0, 64, 51
1, 108328, Control_c, 0, 64, 50
1, 108343, Control_c, 0, 64, 49
1, 108358, Control_c, 0, 64, 47
1, 108372, Control_c, 0, 64, 45
1, 108387, Control_c, 0, 64, 43
1, 108402, Control_c, 0, 64, 41
1, 108416, Control_c, 0, 64, 39
1, 108431, Control_c, 0, 64, 38
1, 108447, Control_c, 0, 64, 36
1, 108462, Control_c, 0, 64, 33
1, 108477, Control_c, 0, 64, 31
1, 108492, Control_c, 0, 64, 28
1, 108507, Control_c, 0, 64, 26
1, 108521, Control_c, 0, 64, 25
1, 108536, Control_c, 0, 64, 22
1, 108551, Control_c, 0, 64, 19
1, 108566, Control_c, 0, 64, 15
1, 108581, Control_c, 0, 64, 8
1, 108595, Control_c, 0, 64, 0
1, 108616, Note_on_c, 0, 94, 51
1, 108622, Note_on_c, 0, 99, 53
1, 108629, Note_on_c, 0, 87, 36
1, 108631, Note_on_c, 0, 34, 23
1, 108638, Note_on_c, 0, 90, 39
1, 108641, Note_on_c, 0, 39, 27
1, 108641, Note_on_c, 0, 27, 28
1, 108773, Control_c, 0, 64, 14
1, 108787, Control_c, 0, 64, 26
1, 108802, Control_c, 0, 64, 35
1, 108817, Control_c, 0, 64, 45
1, 108828, Note_off_c, 0, 99, 61
1, 108832, Control_c, 0, 64, 57
1, 108847, Control_c, 0, 64, 66
1, 108862, Control_c, 0, 64, 80
1, 108871, Note_off_c, 0, 94, 56
1, 108877, Control_c, 0, 64, 90
1, 108886, Note_off_c, 0, 87, 45
1, 108892, Control_c, 0, 64, 93
1, 108902, Note_off_c, 0, 90, 54
1, 108907, Control_c, 0, 64, 99
1, 108921, Control_c, 0, 64, 111
1, 108936, Control_c, 0, 64, 127
1, 108943, Note_off_c, 0, 27, 41
1, 108982, Note_off_c, 0, 34, 40
1, 109022, Note_off_c, 0, 39, 41
1, 109387, Note_on_c, 0, 51, 57
1, 109413, Note_off_c, 0, 51, 68
1, 109488, Note_on_c, 0, 54, 51
1, 109515, Note_off_c, 0, 54, 66
1, 109547, Note_on_c, 0, 56, 54
1, 109569, Note_off_c, 0, 56, 64
1, 109592, Note_on_c, 0, 58, 56
1, 109613, Note_off_c, 0, 58, 63
1, 109651, Note_on_c, 0, 61, 50
1, 109678, Note_off_c, 0, 61, 67
1, 109706, Note_on_c, 0, 63, 55
1, 109729, Note_off_c, 0, 63, 61
1, 109770, Note_on_c, 0, 66, 55
1, 109793, Note_off_c, 0, 66, 63
1, 109825, Note_on_c, 0, 68, 52
1, 109848, Note_off_c, 0, 68, 57
1, 109868, Note_on_c, 0, 70, 57
1, 109887, Note_off_c, 0, 70, 62
1, 109933, Note_on_c, 0, 73, 56
1, 109955, Note_off_c, 0, 73, 67
1, 110090, Poly_aftertouch_c, 0, 75, 0
1, 110106, Note_on_c, 0, 69, 56
1, 110111, Note_on_c, 0, 61, 54
1, 110114, Note_on_c, 0, 64, 51
1, 110117, Note_on_c, 0, 57, 42
1, 110167, Control_c, 0, 64, 93
1, 110182, Control_c, 0, 64, 70
1, 110197, Control_c, 0, 64, 56
1, 110212, Control_c, 0, 64, 29
1, 110227, Control_c, 0, 64, 0
1, 110293, Note_off_c, 0, 57, 50
1, 110315, Control_c, 0, 64, 9
1, 110330, Control_c, 0, 64, 31
1, 110345, Control_c, 0, 64, 46
1, 110359, Control_c, 0, 64, 62
1, 110372, Note_off_c, 0, 69, 50
1, 110374, Control_c, 0, 64, 80
1, 110389, Control_c, 0, 64, 127
1, 110482, Note_off_c, 0, 64, 54
1, 110484, Note_off_c, 0, 61, 60
1, 110785, Note_on_c, 0, 79, 62
1, 110798, Note_on_c, 0, 74, 44
1, 110808, Note_on_c, 0, 67, 29
1, 110825, Note_on_c, 0, 71, 7
1, 110835, Note_off_c, 0, 74, 51
1, 110845, Note_off_c, 0, 67, 53
1, 110868, Note_off_c, 0, 79, 60
1, 110869, Note_off_c, 0, 71, 54
1, 110886, Control_c, 0, 64, 115
1, 110901, Control_c, 0, 64, 86
1, 110916, Control_c, 0, 64, 68
1, 110916, Note_on_c, 0, 65, 46
1, 110920, Note_on_c, 0, 68, 47
1, 110924, Note_on_c, 0, 73, 41
1, 110928, Note_on_c, 0, 61, 45
1, 110931, Control_c, 0, 64, 54
1, 110946, Control_c, 0, 64, 13
1, 110960, Control_c, 0, 64, 0
1, 110967, Note_off_c, 0, 73, 0
1, 110967, Note_on_c, 0, 73, 17
1, 110990, Note_off_c, 0, 61, 0
1, 110990, Note_on_c, 0, 61, 12
1, 111049, Control_c, 0, 64, 25
1, 111064, Control_c, 0, 64, 37
1, 111079, Control_c, 0, 64, 49
1, 111094, Control_c, 0, 64, 60
1, 111108, Control_c, 0, 64, 71
1, 111123, Control_c, 0, 64, 87
1, 111134, Note_off_c, 0, 73, 40
1, 111138, Control_c, 0, 64, 88
1, 111153, Control_c, 0, 64, 89
1, 111168, Control_c, 0, 64, 92
1, 111176, Note_off_c, 0, 65, 41
1, 111181, Note_off_c, 0, 68, 35
1, 111182, Control_c, 0, 64, 99
1, 111197, Control_c, 0, 64, 105
1, 111212, Control_c, 0, 64, 111
1, 111218, Note_off_c, 0, 61, 44
1, 111227, Control_c, 0, 64, 113
1, 111241, Control_c, 0, 64, 115
1, 111264, Control_c, 0, 64, 119
1, 111279, Control_c, 0, 64, 127
1, 111577, Note_on_c, 0, 97, 51
1, 111592, Note_on_c, 0, 85, 37
1, 111702, Note_off_c, 0, 85, 43
1, 111708, Note_off_c, 0, 97, 45
1, 112190, Control_c, 0, 64, 119
1, 112205, Control_c, 0, 64, 115
1, 112220, Control_c, 0, 64, 113
1, 112235, Control_c, 0, 64, 110
1, 112250, Control_c, 0, 64, 108
1, 112264, Control_c, 0, 64, 105
1, 112279, Control_c, 0, 64, 103
1, 112294, Control_c, 0, 64, 101
1, 112309, Control_c, 0, 64, 99
1, 112324, Control_c, 0, 64, 98
1, 112338, Control_c, 0, 64, 97
1, 112353, Control_c, 0, 64, 96
1, 112368, Control_c, 0, 64, 94
1, 112382, Control_c, 0, 64, 93
1, 112397, Control_c, 0, 64, 91
1, 112412, Control_c, 0, 64, 90
1, 112427, Control_c, 0, 64, 88
1, 112443, Control_c, 0, 64, 87
1, 112458, Control_c, 0, 64, 85
1, 112473, Control_c, 0, 64, 85
1, 112487, Control_c, 0, 64, 84
1, 112502, Control_c, 0, 64, 84
1, 112517, Control_c, 0, 64, 83
1, 112532, Control_c, 0, 64, 83
1, 112547, Control_c, 0, 64, 82
1, 112561, Control_c, 0, 64, 82
1, 112576, Control_c, 0, 64, 81
1, 112591, Control_c, 0, 64, 81
1, 112606, Control_c, 0, 64, 80
1, 112621, Control_c, 0, 64, 80
1, 112636, Control_c, 0, 64, 79
1, 112651, Control_c, 0, 64, 79
1, 112666, Control_c, 0, 64, 78
1, 112680, Control_c, 0, 64, 78
1, 112695, Control_c, 0, 64, 77
1, 112710, Control_c, 0, 64, 76
1, 112716, Note_on_c, 0, 29, 28
1, 112725, Control_c, 0, 64, 75
1, 112740, Control_c, 0, 64, 74
1, 112755, Control_c, 0, 64, 73
1, 112776, Control_c, 0, 64, 72
1, 112791, Control_c, 0, 64, 71
1, 112806, Control_c, 0, 64, 70
1, 112821, Control_c, 0, 64, 68
1, 112825, Note_on_c, 0, 99, 40
1, 112835, Control_c, 0, 64, 65
1, 112850, Control_c, 0, 64, 60
1, 112865, Control_c, 0, 64, 49
1, 112880, Control_c, 0, 64, 32
1, 112895, Control_c, 0, 64, 8
1, 112910, Control_c, 0, 64, 0
1, 112955, Control_c, 0, 64, 24
1, 112969, Control_c, 0, 64, 38
1, 112984, Control_c, 0, 64, 51
1, 112997, Note_off_c, 0, 29, 46
1, 112999, Control_c, 0, 64, 64
1, 113013, Control_c, 0, 64, 90
1, 113028, Control_c, 0, 64, 127
1, 113195, Note_on_c, 0, 97, 50
1, 113306, Note_off_c, 0, 99, 47
1, 113337, Note_on_c, 0, 95, 50
1, 113430, Note_off_c, 0, 97, 53
1, 113446, Note_on_c, 0, 92, 53
1, 113481, Note_off_c, 0, 95, 37
1, 113537, Note_off_c, 0, 92, 64
1, 113538, Note_on_c, 0, 85, 45
1, 113569, Note_off_c, 0, 85, 56
1, 113618, Note_on_c, 0, 83, 40
1, 113695, Note_off_c, 0, 83, 39
1, 113706, Note_on_c, 0, 75, 15
1, 113717, Note_on_c, 0, 73, 47
1, 113748, Note_off_c, 0, 75, 37
1, 113772, Note_on_c, 0, 71, 41
1, 113801, Note_off_c, 0, 71, 56
1, 113834, Note_on_c, 0, 87, 51
1, 113852, Note_off_c, 0, 73, 33
1, 113858, Note_on_c, 0, 85, 56
1, 113902, Note_off_c, 0, 87, 62
1, 113936, Note_on_c, 0, 83, 46
1, 113966, Note_on_c, 0, 80, 64
1, 113979, Note_off_c, 0, 83, 52
1, 113983, Note_off_c, 0, 85, 61
1, 114004, Note_off_c, 0, 80, 59
1, 114016, Note_on_c, 0, 73, 58
1, 114027, Note_on_c, 0, 71, 46
1, 114037, Note_off_c, 0, 73, 65
1, 114081, Note_on_c, 0, 63, 51
1, 114083, Note_off_c, 0, 71, 58
1, 114105, Note_on_c, 0, 61, 58
1, 114111, Note_off_c, 0, 63, 58
1, 114157, Note_on_c, 0, 59, 40
1, 114184, Note_off_c, 0, 61, 63
1, 114189, Note_off_c, 0, 59, 51
1, 114210, Note_on_c, 0, 75, 67
1, 114263, Note_on_c, 0, 73, 65
1, 114292, Note_off_c, 0, 75, 60
1, 114328, Note_on_c, 0, 71, 38
1, 114359, Note_on_c, 0, 68, 52
1, 114360, Note_off_c, 0, 73, 60
1, 114365, Note_off_c, 0, 71, 52
1, 114402, Note_on_c, 0, 61, 54
1, 114405, Note_on_c, 0, 59, 41
1, 114414, Note_off_c, 0, 68, 51
1, 114424, Note_off_c, 0, 61, 64
1, 114451, Note_on_c, 0, 51, 61
1, 114453, Note_off_c, 0, 59, 59
1, 114497, Note_off_c, 0, 51, 54
1, 114505, Note_on_c, 0, 49, 58
1, 114586, Note_on_c, 0, 47, 63
1, 114620, Note_off_c, 0, 47, 65
1, 114621, Note_off_c, 0, 49, 38
1, 114963, Note_on_c, 0, 61, 68
1, 114994, Note_off_c, 0, 61, 65
1, 115077, Note_on_c, 0, 80, 67
1, 115084, Note_on_c, 0, 68, 52
1, 115559, Note_off_c, 0, 68, 40
1, 115677, Note_off_c, 0, 80, 37
1, 115837, Note_on_c, 0, 35, 36
1, 116065, Note_off_c, 0, 35, 40
1, 116379, Control_c, 0, 64, 119
1, 116394, Control_c, 0, 64, 110
1, 116409, Control_c, 0, 64, 104
1, 116424, Control_c, 0, 64, 99
1, 116439, Control_c, 0, 64, 93
1, 116454, Control_c, 0, 64, 89
1, 116469, Control_c, 0, 64, 85
1, 116484, Control_c, 0, 64, 82
1, 116506, Control_c, 0, 64, 80
1, 116521, Control_c, 0, 64, 78
1, 116535, Control_c, 0, 64, 77
1, 116550, Control_c, 0, 64, 75
1, 116565, Control_c, 0, 64, 73
1, 116580, Control_c, 0, 64, 71
1, 116594, Control_c, 0, 64, 70
1, 116609, Control_c, 0, 64, 68
1, 116624, Control_c, 0, 64, 67
1, 116639, Control_c, 0, 64, 66
1, 116654, Control_c, 0, 64, 65
1, 116669, Control_c, 0, 64, 64
1, 116684, Control_c, 0, 64, 63
1, 116699, Control_c, 0, 64, 63
1, 116714, Control_c, 0, 64, 62
1, 116728, Control_c, 0, 64, 61
1, 116743, Control_c, 0, 64, 60
1, 116758, Control_c, 0, 64, 60
1, 116773, Control_c, 0, 64, 59
1, 116787, Control_c, 0, 64, 58
1, 116802, Control_c, 0, 64, 57
1, 116814, Note_on_c, 0, 29, 35
1, 116817, Control_c, 0, 64, 56
1, 116832, Control_c, 0, 64, 55
1, 116847, Control_c, 0, 64, 53
1, 116861, Control_c, 0, 64, 52
1, 116876, Control_c, 0, 64, 49
1, 116891, Control_c, 0, 64, 45
1, 116906, Control_c, 0, 64, 38
1, 116921, Control_c, 0, 64, 30
1, 116932, Note_on_c, 0, 99, 47
1, 116935, Control_c, 0, 64, 22
1, 116950, Control_c, 0, 64, 18
1, 116965, Control_c, 0, 64, 17
1, 116979, Control_c, 0, 64, 17
1, 116994, Control_c, 0, 64, 22
1, 117009, Control_c, 0, 64, 32
1, 117024, Control_c, 0, 64, 44
1, 117039, Control_c, 0, 64, 57
1, 117048, Note_off_c, 0, 29, 49
1, 117053, Control_c, 0, 64, 75
1, 117068, Control_c, 0, 64, 127
1, 117144, Note_on_c, 0, 97, 56
1, 117212, Note_off_c, 0, 99, 42
1, 117263, Note_on_c, 0, 95, 53
1, 117321, Note_off_c, 0, 97, 60
1, 117335, Note_on_c, 0, 92, 61
1, 117380, Note_off_c, 0, 95, 36
1, 117399, Note_off_c, 0, 92, 64
1, 117404, Note_on_c, 0, 85, 54
1, 117423, Note_off_c, 0, 85, 63
1, 117468, Note_on_c, 0, 83, 51
1, 117489, Note_off_c, 0, 83, 67
1, 117527, Note_on_c, 0, 75, 51
1, 117548, Note_on_c, 0, 73, 57
1, 117555, Note_off_c, 0, 75, 57
1, 117612, Note_on_c, 0, 71, 34
1, 117620, Note_off_c, 0, 73, 58
1, 117632, Note_on_c, 0, 87, 54
1, 117643, Note_off_c, 0, 71, 55
1, 117677, Note_on_c, 0, 85, 61
1, 117712, Note_off_c, 0, 87, 61
1, 117739, Note_on_c, 0, 83, 50
1, 117768, Note_on_c, 0, 80, 71
1, 117786, Note_off_c, 0, 83, 64
1, 117787, Note_off_c, 0, 85, 60
1, 117817, Note_off_c, 0, 80, 60
1, 117828, Note_on_c, 0, 73, 52
1, 117831, Note_on_c, 0, 71, 49
1, 117852, Note_off_c, 0, 73, 60
1, 117883, Note_off_c, 0, 71, 59
1, 117885, Note_on_c, 0, 63, 48
1, 117912, Note_on_c, 0, 61, 53
1, 117915, Note_off_c, 0, 63, 57
1, 117966, Note_on_c, 0, 59, 28
1, 117969, Note_off_c, 0, 61, 58
1, 117986, Note_on_c, 0, 75, 64
1, 118010, Note_off_c, 0, 59, 53
1, 118042, Note_on_c, 0, 73, 65
1, 118070, Note_off_c, 0, 75, 60
1, 118103, Note_on_c, 0, 71, 38
1, 118128, Note_on_c, 0, 68, 58
1, 118132, Note_off_c, 0, 73, 63
1, 118137, Note_off_c, 0, 71, 52
1, 118178, Note_on_c, 0, 59, 43
1, 118179, Note_on_c, 0, 61, 52
1, 118197, Note_off_c, 0, 68, 55
1, 118199, Note_off_c, 0, 61, 65
1, 118224, Note_off_c, 0, 59, 57
1, 118234, Note_on_c, 0, 51, 56
1, 118273, Note_off_c, 0, 51, 61
1, 118287, Note_on_c, 0, 49, 55
1, 118370, Note_on_c, 0, 47, 58
1, 118375, Note_off_c, 0, 49, 53
1, 118396, Note_off_c, 0, 47, 62
1, 118688, Note_on_c, 0, 61, 65
1, 118706, Note_off_c, 0, 61, 66
1, 118779, Note_on_c, 0, 82, 76
1, 118780, Note_on_c, 0, 70, 67
1, 118798, Note_off_c, 0, 70, 66
1, 118802, Note_off_c, 0, 82, 66
1, 118881, Note_on_c, 0, 68, 71
1, 118959, Control_c, 0, 64, 113
1, 118973, Control_c, 0, 64, 96
1, 118988, Control_c, 0, 64, 87
1, 119003, Control_c, 0, 64, 77
1, 119018, Control_c, 0, 64, 66
1, 119033, Control_c, 0, 64, 54
1, 119048, Control_c, 0, 64, 27
1, 119063, Control_c, 0, 64, 0
1, 119107, Control_c, 0, 64, 20
1, 119122, Control_c, 0, 64, 39
1, 119137, Control_c, 0, 64, 56
1, 119152, Control_c, 0, 64, 84
1, 119167, Control_c, 0, 64, 127
1, 119186, Note_off_c, 0, 68, 59
1, 119777, Note_on_c, 0, 35, 30
1, 120019, Note_off_c, 0, 35, 40
1, 120634, Control_c, 0, 64, 107
1, 120649, Control_c, 0, 64, 95
1, 120664, Control_c, 0, 64, 86
1, 120679, Control_c, 0, 64, 75
1, 120681, Note_on_c, 0, 29, 41
1, 120693, Control_c, 0, 64, 63
1, 120708, Control_c, 0, 64, 50
1, 120723, Control_c, 0, 64, 32
1, 120738, Control_c, 0, 64, 22
1, 120753, Control_c, 0, 64, 23
1, 120768, Control_c, 0, 64, 29
1, 120783, Control_c, 0, 64, 39
1, 120797, Control_c, 0, 64, 51
1, 120812, Control_c, 0, 64, 63
1, 120827, Control_c, 0, 64, 78
1, 120842, Control_c, 0, 64, 103
1, 120857, Control_c, 0, 64, 111
1, 120862, Note_off_c, 0, 29, 39
1, 120872, Control_c, 0, 64, 127
1, 120872, Control_c, 0, 67, 127
1, 120887, Control_c, 0, 67, 106
1, 120901, Control_c, 0, 67, 84
1, 120916, Control_c, 0, 67, 59
1, 120931, Control_c, 0, 67, 36
1, 120945, Control_c, 0, 67, 16
1, 120960, Control_c, 0, 67, 0
1, 121131, Control_c, 0, 64, 87
1, 121146, Control_c, 0, 64, 68
1, 121160, Control_c, 0, 64, 52
1, 121175, Control_c, 0, 64, 32
1, 121190, Control_c, 0, 64, 22
1, 121205, Control_c, 0, 64, 26
1, 121220, Note_on_c, 0, 61, 84
1, 121220, Control_c, 0, 64, 36
1, 121236, Control_c, 0, 64, 48
1, 121250, Control_c, 0, 64, 62
1, 121265, Control_c, 0, 64, 127
1, 121277, Note_off_c, 0, 61, 65
1, 121331, Note_on_c, 0, 70, 87
1, 121337, Note_on_c, 0, 82, 72
1, 121350, Note_off_c, 0, 70, 73
1, 121353, Note_off_c, 0, 82, 69
1, 121382, Note_on_c, 0, 83, 19
1, 121406, Note_on_c, 0, 68, 97
1, 121423, Note_off_c, 0, 83, 57
1, 121446, Note_on_c, 0, 83, 76
1, 121446, Note_off_c, 0, 68, 58
1, 121458, Note_on_c, 0, 71, 71
1, 121481, Note_off_c, 0, 71, 72
1, 121487, Note_off_c, 0, 83, 66
1, 121495, Note_on_c, 0, 69, 95
1, 121564, Note_off_c, 0, 69, 64
1, 121574, Note_on_c, 0, 62, 98
1, 121680, Control_c, 0, 64, 106
1, 121695, Control_c, 0, 64, 90
1, 121710, Control_c, 0, 64, 80
1, 121725, Control_c, 0, 64, 72
1, 121747, Control_c, 0, 64, 63
1, 121762, Control_c, 0, 64, 52
1, 121776, Control_c, 0, 64, 33
1, 121791, Control_c, 0, 64, 0
1, 122029, Control_c, 0, 64, 8
1, 122044, Control_c, 0, 64, 20
1, 122059, Control_c, 0, 64, 27
1, 122073, Control_c, 0, 64, 33
1, 122088, Control_c, 0, 64, 39
1, 122103, Control_c, 0, 64, 46
1, 122118, Control_c, 0, 64, 55
1, 122133, Control_c, 0, 64, 61
1, 122148, Control_c, 0, 64, 64
1, 122163, Control_c, 0, 64, 66
1, 122178, Control_c, 0, 64, 67
1, 122192, Control_c, 0, 64, 70
1, 122207, Control_c, 0, 64, 75
1, 122222, Control_c, 0, 64, 86
1, 122237, Control_c, 0, 64, 95
1, 122252, Control_c, 0, 64, 102
1, 122267, Control_c, 0, 64, 115
1, 122281, Control_c, 0, 64, 127
1, 122429, Note_on_c, 0, 69, 81
1, 122498, Note_off_c, 0, 62, 54
1, 122547, Note_on_c, 0, 72, 75
1, 122550, Note_off_c, 0, 69, 63
1, 122564, Note_on_c, 0, 75, 67
1, 122568, Note_off_c, 0, 72, 71
1, 122606, Note_on_c, 0, 78, 66
1, 122610, Note_off_c, 0, 75, 62
1, 122642, Note_on_c, 0, 81, 61
1, 122670, Note_off_c, 0, 78, 68
1, 122682, Note_on_c, 0, 84, 57
1, 122698, Note_off_c, 0, 81, 64
1, 122705, Note_off_c, 0, 84, 65
1, 122754, Note_on_c, 0, 87, 80
1, 122816, Note_on_c, 0, 90, 95
1, 122821, Note_off_c, 0, 87, 45
1, 122855, Note_off_c, 0, 90, 66
1, 122867, Note_on_c, 0, 89, 71
1, 122919, Note_on_c, 0, 93, 93
1, 122927, Note_off_c, 0, 89, 65
1, 122943, Poly_aftertouch_c, 0, 91, 127
1, 122969, Note_on_c, 0, 96, 82
1, 122981, Poly_aftertouch_c, 0, 91, 0
1, 123009, Note_on_c, 0, 101, 104
1, 123015, Note_off_c, 0, 96, 65
1, 123021, Note_off_c, 0, 93, 65
1, 124023, Control_c, 0, 67, 9
1, 124038, Control_c, 0, 67, 14
1, 124052, Control_c, 0, 67, 21
1, 124067, Control_c, 0, 67, 31
1, 124082, Control_c, 0, 67, 41
1, 124097, Control_c, 0, 67, 51
1, 124112, Control_c, 0, 67, 65
1, 124126, Control_c, 0, 67, 78
1, 124141, Control_c, 0, 67, 89
1, 124156, Control_c, 0, 67, 99
1, 124170, Control_c, 0, 67, 108
1, 124185, Control_c, 0, 67, 118
1, 124200, Control_c, 0, 67, 126
1, 124215, Control_c, 0, 67, 127
1, 124768, Note_on_c, 0, 90, 33
1, 124860, Control_c, 0, 64, 103
1, 124875, Control_c, 0, 64, 90
1, 124890, Control_c, 0, 64, 83
1, 124905, Control_c, 0, 64, 82
1, 124979, Control_c, 0, 64, 83
1, 124980, Note_on_c, 0, 96, 42
1, 124987, Note_on_c, 0, 87, 45
1, 124993, Control_c, 0, 64, 84
1, 125009, Note_off_c, 0, 101, 36
1, 125053, Control_c, 0, 64, 83
1, 125067, Control_c, 0, 64, 79
1, 125082, Control_c, 0, 64, 73
1, 125097, Control_c, 0, 64, 72
1, 125108, Note_off_c, 0, 90, 41
1, 125121, Note_on_c, 0, 93, 47
1, 125134, Note_on_c, 0, 84, 40
1, 125134, Note_off_c, 0, 87, 36
1, 125141, Control_c, 0, 64, 73
1, 125156, Control_c, 0, 64, 78
1, 125170, Note_off_c, 0, 96, 31
1, 125171, Control_c, 0, 64, 84
1, 125185, Note_off_c, 0, 93, 57
1, 125186, Control_c, 0, 64, 95
1, 125200, Control_c, 0, 64, 108
1, 125208, Note_on_c, 0, 89, 45
1, 125216, Control_c, 0, 64, 127
1, 125317, Note_on_c, 0, 90, 37
1, 125318, Note_off_c, 0, 84, 59
1, 125332, Note_on_c, 0, 101, 21
1, 125343, Note_off_c, 0, 89, 41
1, 125365, Control_c, 0, 64, 103
1, 125376, Note_on_c, 0, 87, 43
1, 125379, Note_on_c, 0, 96, 41
1, 125380, Control_c, 0, 64, 89
1, 125395, Control_c, 0, 64, 82
1, 125403, Note_off_c, 0, 101, 35
1, 125408, Note_off_c, 0, 90, 42
1, 125409, Control_c, 0, 64, 79
1, 125427, Note_on_c, 0, 93, 51
1, 125434, Note_off_c, 0, 87, 59
1, 125451, Note_off_c, 0, 96, 38
1, 125454, Control_c, 0, 64, 82
1, 125463, Note_on_c, 0, 84, 45
1, 125467, Note_on_c, 0, 89, 49
1, 125467, Note_off_c, 0, 93, 57
1, 125469, Control_c, 0, 64, 91
1, 125491, Control_c, 0, 64, 107
1, 125506, Control_c, 0, 64, 127
1, 125558, Note_on_c, 0, 101, 48
1, 125564, Note_on_c, 0, 90, 40
1, 125586, Note_off_c, 0, 84, 59
1, 125603, Note_off_c, 0, 89, 35
1, 125632, Note_on_c, 0, 96, 40
1, 125634, Note_on_c, 0, 87, 50
1, 125654, Note_off_c, 0, 90, 44
1, 125669, Note_on_c, 0, 93, 50
1, 125671, Note_off_c, 0, 96, 47
1, 125696, Note_off_c, 0, 101, 38
1, 125698, Note_off_c, 0, 87, 56
1, 125698, Note_off_c, 0, 93, 54
1, 125710, Note_on_c, 0, 89, 46
1, 125735, Note_on_c, 0, 84, 42
1, 125778, Note_off_c, 0, 84, 58
1, 125784, Note_on_c, 0, 101, 61
1, 125793, Note_on_c, 0, 90, 40
1, 125808, Note_off_c, 0, 89, 37
1, 125820, Note_on_c, 0, 87, 46
1, 125848, Note_on_c, 0, 96, 48
1, 125859, Note_off_c, 0, 87, 58
1, 125867, Note_off_c, 0, 101, 38
1, 125877, Note_off_c, 0, 90, 45
1, 125880, Note_on_c, 0, 84, 52
1, 125887, Note_on_c, 0, 93, 56
1, 125897, Note_off_c, 0, 96, 60
1, 125907, Note_off_c, 0, 84, 61
1, 125919, Note_off_c, 0, 93, 63
1, 125937, Note_on_c, 0, 89, 49
1, 126003, Note_off_c, 0, 89, 41
1, 126009, Note_on_c, 0, 101, 62
1, 126026, Note_on_c, 0, 92, 28
1, 126056, Note_on_c, 0, 90, 52
1, 126064, Note_off_c, 0, 92, 53
1, 126076, Note_off_c, 0, 101, 56
1, 126085, Note_off_c, 0, 90, 59
1, 126092, Note_on_c, 0, 96, 46
1, 126103, Note_on_c, 0, 87, 53
1, 126118, Note_on_c, 0, 93, 59
1, 126119, Note_off_c, 0, 96, 56
1, 126145, Note_off_c, 0, 87, 62
1, 126150, Note_off_c, 0, 93, 63
1, 126167, Note_on_c, 0, 84, 53
1, 126182, Note_on_c, 0, 89, 47
1, 126222, Note_off_c, 0, 89, 45
1, 126238, Note_on_c, 0, 101, 61
1, 126253, Note_on_c, 0, 92, 43
1, 126256, Note_off_c, 0, 84, 62
1, 126284, Note_on_c, 0, 90, 55
1, 126284, Note_off_c, 0, 92, 56
1, 126309, Note_on_c, 0, 96, 48
1, 126312, Note_off_c, 0, 90, 57
1, 126322, Note_on_c, 0, 87, 57
1, 126334, Note_off_c, 0, 96, 57
1, 126336, Note_on_c, 0, 93, 56
1, 126343, Note_off_c, 0, 101, 45
1, 126363, Note_off_c, 0, 87, 62
1, 126363, Note_off_c, 0, 93, 64
1, 126384, Note_on_c, 0, 84, 60
1, 126384, Note_on_c, 0, 89, 51
1, 126431, Note_on_c, 0, 101, 75
1, 126441, Note_off_c, 0, 89, 52
1, 126460, Note_on_c, 0, 92, 52
1, 126468, Note_off_c, 0, 84, 62
1, 126486, Note_off_c, 0, 92, 56
1, 126491, Note_on_c, 0, 90, 62
1, 126510, Note_on_c, 0, 96, 50
1, 126510, Note_off_c, 0, 101, 62
1, 126530, Note_on_c, 0, 87, 67
1, 126530, Note_off_c, 0, 90, 63
1, 126538, Note_on_c, 0, 93, 64
1, 126540, Note_off_c, 0, 96, 57
1, 126568, Note_off_c, 0, 93, 61
1, 126575, Note_on_c, 0, 89, 58
1, 126607, Note_off_c, 0, 87, 55
1, 126613, Note_on_c, 0, 92, 63
1, 126625, Note_on_c, 0, 101, 79
1, 126638, Note_off_c, 0, 89, 63
1, 126643, Note_on_c, 0, 90, 61
1, 126645, Note_off_c, 0, 92, 64
1, 126693, Note_on_c, 0, 96, 56
1, 126704, Note_off_c, 0, 90, 67
1, 126711, Note_off_c, 0, 101, 57
1, 126716, Note_on_c, 0, 84, 57
1, 126721, Note_on_c, 0, 93, 74
1, 126745, Note_off_c, 0, 96, 62
1, 126748, Note_off_c, 0, 84, 65
1, 126759, Note_off_c, 0, 93, 60
1, 126775, Note_on_c, 0, 89, 61
1, 126793, Note_off_c, 0, 89, 67
1, 126850, Note_on_c, 0, 80, 64
1, 126854, Note_on_c, 0, 89, 79
1, 126880, Note_off_c, 0, 80, 62
1, 126904, Note_on_c, 0, 78, 61
1, 126906, Note_on_c, 0, 84, 66
1, 126906, Note_off_c, 0, 89, 59
1, 126924, Note_off_c, 0, 78, 65
1, 126948, Note_on_c, 0, 75, 57
1, 126948, Note_off_c, 0, 84, 62
1, 126950, Note_on_c, 0, 81, 72
1, 126981, Note_off_c, 0, 81, 64
1, 126995, Note_off_c, 0, 75, 62
1, 127001, Note_on_c, 0, 77, 64
1, 127022, Note_on_c, 0, 72, 57
1, 127029, Note_off_c, 0, 77, 62
1, 127048, Note_on_c, 0, 80, 64
1, 127050, Note_off_c, 0, 72, 56
1, 127053, Note_on_c, 0, 89, 88
1, 127074, Note_off_c, 0, 80, 66
1, 127093, Note_on_c, 0, 78, 59
1, 127117, Note_on_c, 0, 84, 67
1, 127119, Note_off_c, 0, 89, 61
1, 127129, Note_on_c, 0, 75, 49
1, 127133, Note_on_c, 0, 72, 61
1, 127133, Note_off_c, 0, 78, 66
1, 127150, Note_on_c, 0, 81, 78
1, 127150, Note_off_c, 0, 75, 60
1, 127156, Note_off_c, 0, 72, 69
1, 127165, Note_off_c, 0, 84, 65
1, 127183, Note_off_c, 0, 81, 63
1, 127186, Note_on_c, 0, 77, 77
1, 127204, Note_off_c, 0, 77, 70
1, 127210, Control_c, 0, 67, 124
1, 127225, Control_c, 0, 67, 120
1, 127240, Control_c, 0, 67, 114
1, 127255, Control_c, 0, 67, 106
1, 127257, Note_on_c, 0, 68, 67
1, 127258, Note_on_c, 0, 77, 85
1, 127269, Control_c, 0, 67, 96
1, 127284, Note_off_c, 0, 68, 64
1, 127284, Control_c, 0, 67, 82
1, 127299, Control_c, 0, 67, 68
1, 127309, Note_off_c, 0, 77, 63
1, 127314, Note_on_c, 0, 72, 75
1, 127314, Control_c, 0, 67, 56
1, 127320, Note_on_c, 0, 66, 71
1, 127329, Control_c, 0, 67, 45
1, 127344, Control_c, 0, 67, 36
1, 127347, Note_off_c, 0, 66, 68
1, 127356, Note_on_c, 0, 63, 64
1, 127358, Control_c, 0, 67, 27
1, 127361, Note_on_c, 0, 69, 82
1, 127365, Note_off_c, 0, 72, 64
1, 127373, Control_c, 0, 67, 18
1, 127388, Control_c, 0, 67, 11
1, 127403, Control_c, 0, 67, 0
1, 127406, Note_off_c, 0, 69, 63
1, 127410, Note_off_c, 0, 63, 64
1, 127415, Note_on_c, 0, 65, 68
1, 127419, Note_on_c, 0, 60, 67
1, 127449, Note_off_c, 0, 65, 66
1, 127464, Note_on_c, 0, 68, 67
1, 127469, Note_on_c, 0, 77, 88
1, 127498, Note_off_c, 0, 68, 58
1, 127520, Note_off_c, 0, 60, 62
1, 127526, Note_on_c, 0, 66, 75
1, 127537, Note_on_c, 0, 72, 77
1, 127537, Note_off_c, 0, 77, 59
1, 127552, Note_off_c, 0, 66, 66
1, 127584, Note_on_c, 0, 69, 77
1, 127588, Note_on_c, 0, 63, 69
1, 127613, Note_off_c, 0, 63, 72
1, 127615, Note_off_c, 0, 72, 62
1, 127630, Note_on_c, 0, 60, 66
1, 127639, Note_off_c, 0, 69, 65
1, 127651, Note_on_c, 0, 65, 74
1, 127688, Note_off_c, 0, 65, 61
1, 127709, Note_on_c, 0, 68, 63
1, 127709, Note_on_c, 0, 77, 80
1, 127751, Note_off_c, 0, 68, 62
1, 127759, Note_off_c, 0, 60, 64
1, 127764, Note_on_c, 0, 72, 68
1, 127770, Note_on_c, 0, 66, 68
1, 127801, Note_off_c, 0, 77, 62
1, 127805, Note_off_c, 0, 66, 59
1, 127812, Note_on_c, 0, 69, 75
1, 127814, Note_off_c, 0, 72, 63
1, 127821, Note_on_c, 0, 63, 72
1, 127838, Note_on_c, 0, 65, 59
1, 127848, Note_on_c, 0, 66, 74
1, 127853, Note_off_c, 0, 65, 70
1, 127855, Note_off_c, 0, 63, 68
1, 127883, Note_off_c, 0, 69, 63
1, 127895, Note_off_c, 0, 66, 64
1, 127895, Note_on_c, 0, 72, 43
1, 127901, Note_on_c, 0, 68, 80
1, 127920, Note_off_c, 0, 72, 58
1, 127921, Note_off_c, 0, 68, 70
1, 127925, Note_on_c, 0, 77, 37
1, 127955, Note_off_c, 0, 77, 0
1, 127955, Note_on_c, 0, 77, 36
1, 127998, Note_on_c, 0, 75, 67
1, 128009, Note_off_c, 0, 77, 63
1, 128019, Note_on_c, 0, 81, 90
1, 128023, Note_off_c, 0, 75, 65
1, 128047, Note_on_c, 0, 78, 84
1, 128061, Note_on_c, 0, 84, 72
1, 128081, Note_off_c, 0, 81, 64
1, 128086, Note_off_c, 0, 78, 66
1, 128095, Note_on_c, 0, 89, 74
1, 128096, Note_off_c, 0, 84, 64
1, 128107, Note_on_c, 0, 80, 65
1, 128110, Note_off_c, 0, 89, 70
1, 128126, Note_off_c, 0, 80, 64
1, 128156, Note_on_c, 0, 89, 97
1, 128206, Note_off_c, 0, 89, 64
1, 128207, Note_on_c, 0, 87, 55
1, 128215, Note_on_c, 0, 93, 98
1, 128229, Note_off_c, 0, 87, 61
1, 128254, Note_on_c, 0, 90, 83
1, 128266, Note_on_c, 0, 96, 82
1, 128289, Note_off_c, 0, 90, 64
1, 128296, Note_on_c, 0, 101, 107
1, 128297, Note_off_c, 0, 96, 66
1, 128298, Note_on_c, 0, 92, 100
1, 128298, Note_off_c, 0, 93, 66
1, 128326, Note_off_c, 0, 101, 69
1, 128333, Note_off_c, 0, 92, 66
1, 128724, Control_c, 0, 64, 114
1, 128739, Control_c, 0, 64, 101
1, 128753, Control_c, 0, 64, 92
1, 128768, Control_c, 0, 64, 85
1, 128783, Control_c, 0, 64, 81
1, 128798, Control_c, 0, 64, 78
1, 128813, Control_c, 0, 64, 76
1, 128828, Control_c, 0, 64, 75
1, 128842, Control_c, 0, 64, 73
1, 128857, Control_c, 0, 64, 71
1, 128872, Control_c, 0, 64, 68
1, 128886, Control_c, 0, 64, 67
1, 128901, Control_c, 0, 64, 66
1, 128916, Control_c, 0, 64, 65
1, 128931, Control_c, 0, 64, 64
1, 128946, Control_c, 0, 64, 63
1, 128960, Control_c, 0, 64, 62
1, 128975, Control_c, 0, 64, 61
1, 128990, Control_c, 0, 64, 60
1, 129005, Control_c, 0, 64, 59
1, 129020, Control_c, 0, 64, 58
1, 129034, Control_c, 0, 64, 57
1, 129049, Control_c, 0, 64, 56
1, 129064, Control_c, 0, 64, 55
1, 129078, Control_c, 0, 64, 55
1, 129093, Control_c, 0, 64, 54
1, 129108, Control_c, 0, 64, 53
1, 129123, Control_c, 0, 64, 51
1, 129138, Control_c, 0, 64, 48
1, 129153, Control_c, 0, 64, 45
1, 129168, Control_c, 0, 64, 42
1, 129183, Control_c, 0, 64, 41
1, 129198, Control_c, 0, 64, 39
1, 129213, Control_c, 0, 64, 37
1, 129236, Control_c, 0, 64, 33
1, 129251, Control_c, 0, 64, 29
1, 129265, Control_c, 0, 64, 27
1, 129280, Control_c, 0, 64, 27
1, 129339, Control_c, 0, 64, 26
1, 129457, Control_c, 0, 64, 25
1, 129472, Control_c, 0, 64, 22
1, 129487, Control_c, 0, 64, 16
1, 129502, Control_c, 0, 64, 0
1, 129561, Control_c, 0, 67, 8
1, 129576, Control_c, 0, 67, 10
1, 129591, Control_c, 0, 67, 13
1, 129606, Control_c, 0, 67, 17
1, 129621, Control_c, 0, 67, 22
1, 129636, Control_c, 0, 67, 29
1, 129651, Control_c, 0, 67, 35
1, 129665, Control_c, 0, 67, 45
1, 129680, Control_c, 0, 67, 53
1, 129695, Control_c, 0, 67, 62
1, 129709, Control_c, 0, 67, 71
1, 129724, Control_c, 0, 67, 79
1, 129739, Control_c, 0, 67, 88
1, 129754, Control_c, 0, 67, 98
1, 129769, Control_c, 0, 67, 108
1, 129783, Control_c, 0, 67, 118
1, 129798, Control_c, 0, 67, 127
1, 129813, Control_c, 0, 67, 127
1, 130118, Control_c, 0, 64, 8
1, 130132, Control_c, 0, 64, 14
1, 130147, Control_c, 0, 64, 19
1, 130162, Control_c, 0, 64, 23
1, 130177, Control_c, 0, 64, 27
1, 130192, Control_c, 0, 64, 31
1, 130206, Control_c, 0, 64, 37
1, 130221, Control_c, 0, 64, 42
1, 130236, Control_c, 0, 64, 48
1, 130251, Control_c, 0, 64, 53
1, 130266, Control_c, 0, 64, 57
1, 130280, Control_c, 0, 64, 60
1, 130295, Control_c, 0, 64, 62
1, 130310, Control_c, 0, 64, 63
1, 130325, Control_c, 0, 64, 65
1, 130339, Control_c, 0, 64, 67
1, 130354, Control_c, 0, 64, 69
1, 130369, Control_c, 0, 64, 71
1, 130384, Control_c, 0, 64, 72
1, 130399, Control_c, 0, 64, 75
1, 130414, Control_c, 0, 64, 77
1, 130429, Control_c, 0, 64, 80
1, 130444, Control_c, 0, 64, 83
1, 130458, Control_c, 0, 64, 85
1, 130473, Control_c, 0, 64, 88
1, 130488, Control_c, 0, 64, 92
1, 130503, Control_c, 0, 64, 99
1, 130518, Control_c, 0, 64, 108
1, 130532, Control_c, 0, 64, 127
1, 130719, Note_on_c, 0, 29, 26
1, 130811, Note_on_c, 0, 99, 38
1, 130953, Note_off_c, 0, 29, 38
1, 131108, Note_on_c, 0, 97, 47
1, 131200, Note_off_c, 0, 99, 42
1, 131248, Note_on_c, 0, 95, 48
1, 131334, Note_off_c, 0, 97, 52
1, 131338, Note_on_c, 0, 92, 54
1, 131371, Note_off_c, 0, 95, 33
1, 131407, Note_off_c, 0, 92, 64
1, 131414, Note_on_c, 0, 85, 50
1, 131436, Note_off_c, 0, 85, 59
1, 131472, Note_on_c, 0, 83, 40
1, 131518, Note_off_c, 0, 83, 49
1, 131548, Note_on_c, 0, 75, 36
1, 131577, Note_on_c, 0, 73, 45
1, 131581, Note_off_c, 0, 75, 50
1, 131618, Note_on_c, 0, 71, 46
1, 131640, Note_off_c, 0, 73, 45
1, 131644, Note_off_c, 0, 71, 60
1, 131654, Note_on_c, 0, 87, 54
1, 131696, Note_on_c, 0, 85, 54
1, 131729, Note_off_c, 0, 87, 60
1, 131764, Note_on_c, 0, 83, 47
1, 131794, Note_on_c, 0, 80, 66
1, 131803, Note_off_c, 0, 83, 56
1, 131809, Note_off_c, 0, 85, 63
1, 131825, Note_off_c, 0, 80, 65
1, 131845, Note_on_c, 0, 73, 52
1, 131849, Note_on_c, 0, 71, 47
1, 131868, Note_off_c, 0, 73, 60
1, 131886, Note_off_c, 0, 71, 48
1, 131905, Note_on_c, 0, 63, 43
1, 131932, Note_on_c, 0, 61, 49
1, 131937, Note_off_c, 0, 63, 54
1, 131982, Note_off_c, 0, 61, 58
1, 132003, Note_on_c, 0, 75, 63
1, 132050, Note_on_c, 0, 73, 60
1, 132056, Poly_aftertouch_c, 0, 59, 0
1, 132085, Note_off_c, 0, 75, 57
1, 132104, Note_on_c, 0, 71, 46
1, 132136, Note_on_c, 0, 68, 59
1, 132162, Note_on_c, 0, 59, 52
1, 132162, Note_off_c, 0, 71, 46
1, 132174, Note_off_c, 0, 73, 37
1, 132176, Note_on_c, 0, 61, 55
1, 132193, Note_off_c, 0, 68, 46
1, 132206, Note_off_c, 0, 61, 68
1, 132233, Note_off_c, 0, 59, 54
1, 132240, Note_on_c, 0, 51, 54
1, 132276, Note_off_c, 0, 51, 63
1, 132301, Note_on_c, 0, 49, 48
1, 132363, Note_off_c, 0, 49, 58
1, 132364, Note_on_c, 0, 47, 58
1, 132400, Note_off_c, 0, 47, 64
1, 132667, Note_on_c, 0, 61, 61
1, 132700, Note_off_c, 0, 61, 66
1, 132771, Note_on_c, 0, 80, 69
1, 132781, Note_on_c, 0, 68, 52
1, 132910, Note_off_c, 0, 68, 29
1, 133249, Note_off_c, 0, 80, 36
1, 133610, Note_on_c, 0, 35, 33
1, 133857, Note_off_c, 0, 35, 39
1, 134378, Control_c, 0, 64, 114
1, 134393, Control_c, 0, 64, 105
1, 134408, Control_c, 0, 64, 100
1, 134423, Control_c, 0, 64, 97
1, 134438, Control_c, 0, 64, 95
1, 134453, Control_c, 0, 64, 92
1, 134468, Control_c, 0, 64, 90
1, 134490, Control_c, 0, 64, 88
1, 134504, Control_c, 0, 64, 87
1, 134519, Control_c, 0, 64, 85
1, 134534, Control_c, 0, 64, 83
1, 134549, Control_c, 0, 64, 80
1, 134564, Control_c, 0, 64, 79
1, 134578, Control_c, 0, 64, 77
1, 134585, Note_on_c, 0, 29, 35
1, 134593, Control_c, 0, 64, 75
1, 134608, Control_c, 0, 64, 73
1, 134623, Control_c, 0, 64, 70
1, 134638, Control_c, 0, 64, 66
1, 134653, Control_c, 0, 64, 63
1, 134668, Control_c, 0, 64, 57
1, 134683, Control_c, 0, 64, 45
1, 134697, Control_c, 0, 64, 25
1, 134712, Control_c, 0, 64, 0
1, 134718, Note_on_c, 0, 99, 43
1, 134786, Control_c, 0, 64, 16
1, 134793, Note_off_c, 0, 29, 55
1, 134802, Control_c, 0, 64, 33
1, 134817, Control_c, 0, 64, 46
1, 134832, Control_c, 0, 64, 63
1, 134846, Control_c, 0, 64, 87
1, 134861, Control_c, 0, 64, 127
1, 134920, Note_on_c, 0, 97, 56
1, 134972, Note_off_c, 0, 99, 45
1, 135023, Note_on_c, 0, 95, 48
1, 135069, Note_off_c, 0, 97, 57
1, 135078, Note_on_c, 0, 92, 63
1, 135105, Note_off_c, 0, 95, 47
1, 135128, Note_off_c, 0, 92, 62
1, 135159, Note_on_c, 0, 85, 46
1, 135186, Note_on_c, 0, 83, 49
1, 135186, Note_off_c, 0, 85, 54
1, 135206, Note_off_c, 0, 83, 65
1, 135263, Note_on_c, 0, 75, 36
1, 135279, Note_on_c, 0, 73, 54
1, 135294, Note_off_c, 0, 75, 52
1, 135324, Note_on_c, 0, 71, 45
1, 135338, Note_off_c, 0, 73, 54
1, 135348, Note_off_c, 0, 71, 63
1, 135351, Note_on_c, 0, 87, 55
1, 135395, Note_on_c, 0, 85, 59
1, 135430, Note_off_c, 0, 87, 62
1, 135455, Note_on_c, 0, 83, 53
1, 135491, Note_on_c, 0, 80, 65
1, 135499, Note_off_c, 0, 83, 63
1, 135508, Note_off_c, 0, 85, 63
1, 135521, Note_off_c, 0, 80, 64
1, 135537, Note_on_c, 0, 71, 52
1, 135537, Note_on_c, 0, 73, 55
1, 135557, Note_off_c, 0, 73, 64
1, 135598, Note_on_c, 0, 63, 50
1, 135621, Note_on_c, 0, 61, 60
1, 135627, Note_off_c, 0, 63, 58
1, 135652, Note_off_c, 0, 71, 37
1, 135674, Note_on_c, 0, 59, 32
1, 135687, Note_off_c, 0, 61, 57
1, 135701, Note_on_c, 0, 75, 63
1, 135711, Note_off_c, 0, 59, 53
1, 135738, Note_on_c, 0, 73, 60
1, 135769, Note_off_c, 0, 75, 60
1, 135802, Note_on_c, 0, 71, 42
1, 135831, Note_on_c, 0, 68, 59
1, 135854, Note_off_c, 0, 71, 50
1, 135856, Note_on_c, 0, 59, 46
1, 135871, Note_off_c, 0, 73, 35
1, 135875, Note_on_c, 0, 61, 55
1, 135902, Note_off_c, 0, 61, 65
1, 135912, Note_off_c, 0, 68, 36
1, 135919, Note_off_c, 0, 59, 55
1, 135927, Note_on_c, 0, 51, 59
1, 135964, Note_off_c, 0, 51, 61
1, 135982, Note_on_c, 0, 49, 58
1, 136061, Note_on_c, 0, 47, 58
1, 136068, Note_off_c, 0, 49, 52
1, 136090, Note_off_c, 0, 47, 58
1, 136320, Note_on_c, 0, 61, 68
1, 136346, Note_off_c, 0, 61, 68
1, 136405, Note_on_c, 0, 82, 74
1, 136411, Note_on_c, 0, 70, 57
1, 136430, Note_off_c, 0, 82, 63
1, 136432, Note_off_c, 0, 70, 62
1, 136497, Note_on_c, 0, 68, 75
1, 136544, Note_off_c, 0, 68, 53
1, 137378, Note_on_c, 0, 35, 38
1, 137511, Note_off_c, 0, 35, 35
1, 137915, Control_c, 0, 67, 120
1, 137929, Control_c, 0, 67, 111
1, 137944, Control_c, 0, 67, 103
1, 137959, Control_c, 0, 67, 96
1, 137974, Control_c, 0, 67, 90
1, 137989, Control_c, 0, 67, 87
1, 138005, Control_c, 0, 67, 85
1, 138064, Control_c, 0, 67, 85
1, 138138, Control_c, 0, 67, 84
1, 138197, Control_c, 0, 64, 110
1, 138197, Control_c, 0, 67, 84
1, 138219, Control_c, 0, 64, 92
1, 138219, Control_c, 0, 67, 81
1, 138234, Control_c, 0, 64, 78
1, 138234, Control_c, 0, 67, 76
1, 138249, Control_c, 0, 64, 65
1, 138249, Control_c, 0, 67, 71
1, 138264, Control_c, 0, 64, 54
1, 138264, Control_c, 0, 67, 68
1, 138278, Control_c, 0, 64, 21
1, 138278, Control_c, 0, 67, 65
1, 138293, Control_c, 0, 64, 0
1, 138293, Control_c, 0, 67, 61
1, 138295, Note_on_c, 0, 29, 44
1, 138308, Control_c, 0, 67, 54
1, 138323, Control_c, 0, 67, 45
1, 138338, Control_c, 0, 67, 36
1, 138352, Control_c, 0, 67, 26
1, 138367, Control_c, 0, 64, 13
1, 138367, Control_c, 0, 67, 17
1, 138382, Control_c, 0, 64, 29
1, 138382, Control_c, 0, 67, 0
1, 138397, Control_c, 0, 64, 40
1, 138406, Note_off_c, 0, 29, 53
1, 138412, Control_c, 0, 64, 51
1, 138427, Control_c, 0, 64, 62
1, 138441, Control_c, 0, 64, 83
1, 138456, Control_c, 0, 64, 127
1, 138678, Control_c, 0, 64, 90
1, 138693, Control_c, 0, 64, 67
1, 138708, Control_c, 0, 64, 55
1, 138723, Control_c, 0, 64, 40
1, 138738, Control_c, 0, 64, 34
1, 138741, Note_on_c, 0, 61, 84
1, 138752, Control_c, 0, 64, 38
1, 138767, Control_c, 0, 64, 48
1, 138782, Control_c, 0, 64, 63
1, 138797, Note_off_c, 0, 61, 64
1, 138798, Control_c, 0, 64, 122
1, 138813, Control_c, 0, 64, 127
1, 138839, Note_on_c, 0, 70, 84
1, 138840, Note_on_c, 0, 82, 88
1, 138862, Note_off_c, 0, 70, 67
1, 138867, Note_off_c, 0, 82, 63
1, 138914, Note_on_c, 0, 68, 91
1, 138950, Note_on_c, 0, 83, 87
1, 138954, Note_off_c, 0, 68, 58
1, 138959, Note_on_c, 0, 71, 73
1, 138987, Note_off_c, 0, 71, 69
1, 139004, Note_off_c, 0, 83, 60
1, 139023, Note_on_c, 0, 69, 85
1, 139069, Note_off_c, 0, 69, 59
1, 139073, Control_c, 0, 64, 68
1, 139088, Control_c, 0, 64, 43
1, 139090, Note_on_c, 0, 62, 99
1, 139102, Control_c, 0, 64, 0
1, 139162, Control_c, 0, 64, 36
1, 139176, Control_c, 0, 64, 58
1, 139181, Note_off_c, 0, 62, 64
1, 139191, Control_c, 0, 64, 127
1, 139294, Control_c, 0, 64, 88
1, 139309, Control_c, 0, 64, 75
1, 139324, Control_c, 0, 64, 65
1, 139339, Control_c, 0, 64, 55
1, 139354, Control_c, 0, 64, 32
1, 139368, Control_c, 0, 64, 0
1, 139409, Note_on_c, 0, 63, 101
1, 139473, Control_c, 0, 64, 32
1, 139487, Control_c, 0, 64, 49
1, 139492, Note_off_c, 0, 63, 63
1, 139502, Control_c, 0, 64, 65
1, 139508, Note_on_c, 0, 72, 99
1, 139510, Note_on_c, 0, 84, 96
1, 139517, Control_c, 0, 64, 127
1, 139538, Note_off_c, 0, 72, 62
1, 139543, Note_off_c, 0, 84, 60
1, 139599, Note_on_c, 0, 70, 93
1, 139628, Note_off_c, 0, 70, 57
1, 139644, Note_on_c, 0, 85, 100
1, 139646, Note_on_c, 0, 73, 91
1, 139684, Note_off_c, 0, 73, 62
1, 139685, Note_off_c, 0, 85, 64
1, 139724, Note_on_c, 0, 71, 88
1, 139762, Control_c, 0, 64, 114
1, 139763, Note_off_c, 0, 71, 68
1, 139777, Control_c, 0, 64, 64
1, 139792, Control_c, 0, 64, 40
1, 139803, Note_on_c, 0, 64, 95
1, 139807, Control_c, 0, 64, 0
1, 139822, Control_c, 0, 64, 22
1, 139836, Control_c, 0, 64, 44
1, 139851, Control_c, 0, 64, 65
1, 139866, Control_c, 0, 64, 127
1, 139869, Note_off_c, 0, 64, 63
1, 140029, Control_c, 0, 64, 122
1, 140043, Control_c, 0, 64, 95
1, 140058, Control_c, 0, 64, 85
1, 140073, Control_c, 0, 64, 76
1, 140088, Control_c, 0, 64, 69
1, 140103, Control_c, 0, 64, 64
1, 140117, Control_c, 0, 64, 58
1, 140132, Control_c, 0, 64, 51
1, 140147, Control_c, 0, 64, 43
1, 140162, Control_c, 0, 64, 36
1, 140177, Control_c, 0, 64, 29
1, 140177, Control_c, 0, 67, 8
1, 140191, Control_c, 0, 64, 18
1, 140191, Control_c, 0, 67, 17
1, 140206, Control_c, 0, 64, 0
1, 140206, Control_c, 0, 67, 29
1, 140221, Control_c, 0, 67, 45
1, 140236, Control_c, 0, 67, 64
1, 140251, Control_c, 0, 67, 82
1, 140266, Control_c, 0, 67, 98
1, 140281, Control_c, 0, 67, 113
1, 140296, Control_c, 0, 67, 127
1, 140379, Note_on_c, 0, 63, 49
1, 140412, Note_off_c, 0, 63, 59
1, 140468, Note_on_c, 0, 65, 46
1, 140471, Note_on_c, 0, 64, 46
1, 140498, Note_off_c, 0, 64, 56
1, 140524, Note_off_c, 0, 65, 49
1, 140532, Note_on_c, 0, 63, 47
1, 140547, Note_on_c, 0, 73, 45
1, 140580, Note_off_c, 0, 63, 47
1, 140584, Note_off_c, 0, 73, 62
1, 140596, Note_on_c, 0, 64, 44
1, 140615, Note_on_c, 0, 71, 46
1, 140654, Note_off_c, 0, 64, 59
1, 140675, Note_off_c, 0, 71, 54
1, 140688, Note_on_c, 0, 75, 55
1, 140692, Note_on_c, 0, 62, 58
1, 140726, Note_off_c, 0, 75, 63
1, 140732, Note_off_c, 0, 62, 62
1, 140751, Note_on_c, 0, 74, 58
1, 140773, Note_on_c, 0, 64, 58
1, 140801, Note_off_c, 0, 74, 63
1, 140814, Note_off_c, 0, 64, 59
1, 140829, Note_on_c, 0, 66, 55
1, 140843, Note_on_c, 0, 62, 59
1, 140850, Note_off_c, 0, 66, 60
1, 140873, Note_off_c, 0, 62, 63
1, 140922, Note_on_c, 0, 64, 57
1, 140958, Note_off_c, 0, 64, 61
1, 140998, Note_on_c, 0, 63, 55
1, 141029, Note_off_c, 0, 63, 55
1, 141065, Note_on_c, 0, 67, 57
1, 141074, Note_on_c, 0, 64, 50
1, 141098, Note_off_c, 0, 67, 51
1, 141099, Note_off_c, 0, 64, 59
1, 141139, Note_on_c, 0, 63, 45
1, 141148, Note_on_c, 0, 75, 48
1, 141189, Note_off_c, 0, 63, 46
1, 141196, Note_off_c, 0, 75, 59
1, 141219, Note_on_c, 0, 64, 44
1, 141221, Note_on_c, 0, 73, 54
1, 141272, Note_off_c, 0, 64, 57
1, 141287, Note_off_c, 0, 73, 56
1, 141303, Note_on_c, 0, 77, 48
1, 141306, Note_on_c, 0, 62, 61
1, 141334, Note_off_c, 0, 77, 58
1, 141344, Note_off_c, 0, 62, 64
1, 141367, Note_on_c, 0, 76, 56
1, 141383, Note_on_c, 0, 64, 57
1, 141411, Note_off_c, 0, 76, 64
1, 141425, Note_off_c, 0, 64, 59
1, 141441, Note_on_c, 0, 68, 64
1, 141457, Note_on_c, 0, 62, 56
1, 141461, Note_off_c, 0, 68, 61
1, 141486, Note_off_c, 0, 62, 62
1, 141532, Note_on_c, 0, 64, 58
1, 141567, Note_off_c, 0, 64, 62
1, 141600, Control_c, 0, 64, 12
1, 141603, Note_on_c, 0, 63, 65
1, 141614, Control_c, 0, 64, 22
1, 141629, Control_c, 0, 64, 25
1, 141635, Note_off_c, 0, 63, 65
1, 141644, Control_c, 0, 64, 26
1, 141659, Control_c, 0, 64, 27
1, 141676, Note_on_c, 0, 64, 60
1, 141678, Note_on_c, 0, 72, 38
1, 141682, Note_on_c, 0, 74, 47
1, 141703, Note_off_c, 0, 74, 62
1, 141706, Note_off_c, 0, 72, 57
1, 141714, Note_off_c, 0, 64, 61
1, 141742, Note_on_c, 0, 86, 70
1, 141747, Note_on_c, 0, 84, 61
1, 141747, Note_on_c, 0, 63, 59
1, 141777, Control_c, 0, 64, 27
1, 141789, Note_off_c, 0, 63, 62
1, 141792, Control_c, 0, 64, 26
1, 141807, Control_c, 0, 64, 24
1, 141815, Note_off_c, 0, 86, 54
1, 141818, Note_on_c, 0, 64, 59
1, 141822, Control_c, 0, 64, 20
1, 141823, Note_on_c, 0, 74, 17
1, 141823, Note_off_c, 0, 84, 63
1, 141837, Control_c, 0, 64, 14
1, 141852, Control_c, 0, 64, 0
1, 141852, Note_off_c, 0, 64, 62
1, 141865, Note_off_c, 0, 74, 46
1, 141884, Note_on_c, 0, 62, 68
1, 141924, Note_off_c, 0, 62, 61
1, 141968, Note_on_c, 0, 64, 59
1, 142010, Note_off_c, 0, 64, 58
1, 142026, Note_on_c, 0, 86, 26
1, 142053, Note_off_c, 0, 86, 33
1, 142054, Note_on_c, 0, 62, 52
1, 142054, Note_on_c, 0, 96, 64
1, 142054, Note_on_c, 0, 98, 73
1, 142081, Note_off_c, 0, 62, 62
1, 142098, Note_off_c, 0, 98, 60
1, 142124, Note_on_c, 0, 64, 57
1, 142124, Note_off_c, 0, 96, 63
1, 142165, Note_off_c, 0, 64, 61
1, 142203, Note_on_c, 0, 63, 63
1, 142230, Control_c, 0, 64, 22
1, 142239, Note_off_c, 0, 63, 63
1, 142245, Control_c, 0, 64, 35
1, 142260, Control_c, 0, 64, 44
1, 142275, Control_c, 0, 64, 52
1, 142275, Note_on_c, 0, 84, 72
1, 142278, Note_on_c, 0, 64, 62
1, 142290, Control_c, 0, 64, 57
1, 142290, Note_on_c, 0, 86, 61
1, 142305, Control_c, 0, 64, 57
1, 142314, Note_off_c, 0, 86, 57
1, 142316, Note_off_c, 0, 64, 58
1, 142318, Note_off_c, 0, 84, 49
1, 142319, Control_c, 0, 64, 57
1, 142349, Control_c, 0, 64, 56
1, 142356, Note_on_c, 0, 63, 57
1, 142358, Note_on_c, 0, 98, 70
1, 142364, Control_c, 0, 64, 56
1, 142374, Note_on_c, 0, 96, 57
1, 142379, Control_c, 0, 64, 55
1, 142379, Note_on_c, 0, 97, 51
1, 142387, Note_off_c, 0, 98, 62
1, 142393, Control_c, 0, 64, 54
1, 142397, Note_off_c, 0, 63, 49
1, 142406, Note_off_c, 0, 97, 61
1, 142408, Control_c, 0, 64, 53
1, 142411, Note_on_c, 0, 86, 66
1, 142412, Note_off_c, 0, 96, 61
1, 142423, Control_c, 0, 64, 50
1, 142427, Note_on_c, 0, 64, 57
1, 142436, Note_off_c, 0, 86, 66
1, 142437, Control_c, 0, 64, 45
1, 142452, Control_c, 0, 64, 37
1, 142465, Note_off_c, 0, 64, 61
1, 142467, Control_c, 0, 64, 25
1, 142482, Control_c, 0, 64, 8
1, 142497, Control_c, 0, 64, 0
1, 142503, Note_on_c, 0, 62, 61
1, 142537, Note_off_c, 0, 62, 63
1, 142573, Note_on_c, 0, 64, 59
1, 142581, Note_on_c, 0, 74, 58
1, 142592, Note_on_c, 0, 72, 55
1, 142603, Note_off_c, 0, 74, 62
1, 142613, Note_off_c, 0, 72, 61
1, 142615, Note_off_c, 0, 64, 59
1, 142656, Note_on_c, 0, 86, 65
1, 142657, Note_on_c, 0, 62, 49
1, 142665, Note_on_c, 0, 84, 53
1, 142685, Note_off_c, 0, 62, 61
1, 142692, Note_off_c, 0, 86, 57
1, 142715, Note_off_c, 0, 84, 61
1, 142728, Note_on_c, 0, 74, 35
1, 142734, Note_on_c, 0, 64, 57
1, 142758, Note_off_c, 0, 74, 56
1, 142773, Note_off_c, 0, 64, 62
1, 142814, Note_on_c, 0, 63, 59
1, 142850, Note_off_c, 0, 63, 65
1, 142889, Note_on_c, 0, 64, 60
1, 142895, Note_on_c, 0, 65, 66
1, 142922, Note_off_c, 0, 64, 62
1, 142936, Note_off_c, 0, 65, 59
1, 142960, Note_on_c, 0, 63, 53
1, 142968, Note_on_c, 0, 73, 54
1, 143001, Note_off_c, 0, 63, 52
1, 143020, Note_off_c, 0, 73, 62
1, 143033, Note_on_c, 0, 64, 46
1, 143055, Note_on_c, 0, 71, 37
1, 143068, Note_off_c, 0, 64, 57
1, 143103, Note_on_c, 0, 62, 56
1, 143115, Note_on_c, 0, 75, 61
1, 143118, Note_off_c, 0, 71, 53
1, 143141, Note_off_c, 0, 62, 65
1, 143163, Note_off_c, 0, 75, 59
1, 143176, Note_on_c, 0, 64, 55
1, 143184, Note_on_c, 0, 74, 58
1, 143220, Note_off_c, 0, 64, 59
1, 143226, Note_off_c, 0, 74, 65
1, 143255, Note_on_c, 0, 62, 47
1, 143261, Note_on_c, 0, 66, 65
1, 143281, Note_off_c, 0, 66, 63
1, 143282, Note_off_c, 0, 62, 62
1, 143321, Note_on_c, 0, 64, 60
1, 143355, Note_off_c, 0, 64, 61
1, 143395, Note_on_c, 0, 63, 59
1, 143425, Note_off_c, 0, 63, 62
1, 143479, Note_on_c, 0, 64, 56
1, 143493, Note_on_c, 0, 67, 68
1, 143512, Note_off_c, 0, 64, 60
1, 143521, Note_off_c, 0, 67, 61
1, 143538, Note_on_c, 0, 63, 51
1, 143580, Note_on_c, 0, 76, 56
1, 143593, Note_off_c, 0, 63, 55
1, 143619, Note_on_c, 0, 64, 56
1, 143640, Note_off_c, 0, 76, 65
1, 143673, Note_off_c, 0, 64, 60
1, 143697, Note_on_c, 0, 74, 32
1, 143706, Note_on_c, 0, 62, 57
1, 143712, Control_c, 0, 64, 19
1, 143724, Note_off_c, 0, 74, 58
1, 143727, Note_on_c, 0, 77, 64
1, 143727, Control_c, 0, 64, 28
1, 143731, Poly_aftertouch_c, 0, 73, 0
1, 143734, Note_off_c, 0, 62, 63
1, 143742, Control_c, 0, 64, 32
1, 143757, Control_c, 0, 64, 35
1, 143760, Note_off_c, 0, 77, 59
1, 143771, Control_c, 0, 64, 38
1, 143774, Note_on_c, 0, 76, 62
1, 143783, Note_on_c, 0, 64, 50
1, 143786, Control_c, 0, 64, 42
1, 143801, Control_c, 0, 64, 46
1, 143809, Note_off_c, 0, 64, 56
1, 143816, Control_c, 0, 64, 48
1, 143819, Note_off_c, 0, 76, 62
1, 143835, Note_on_c, 0, 62, 54
1, 143846, Control_c, 0, 64, 47
1, 143860, Note_off_c, 0, 62, 62
1, 143865, Note_on_c, 0, 68, 48
1, 143890, Control_c, 0, 64, 47
1, 143891, Note_off_c, 0, 68, 56
1, 143892, Note_on_c, 0, 64, 52
1, 143905, Control_c, 0, 64, 45
1, 143920, Control_c, 0, 64, 42
1, 143935, Control_c, 0, 64, 38
1, 143946, Note_off_c, 0, 64, 55
1, 143950, Control_c, 0, 64, 31
1, 143964, Control_c, 0, 64, 24
1, 143979, Control_c, 0, 64, 15
1, 143994, Control_c, 0, 64, 0
1, 143998, Note_on_c, 0, 61, 58
1, 144033, Note_off_c, 0, 61, 66
1, 144068, Note_on_c, 0, 63, 66
1, 144072, Note_on_c, 0, 71, 57
1, 144099, Note_off_c, 0, 71, 60
1, 144101, Note_off_c, 0, 63, 63
1, 144144, Note_on_c, 0, 79, 51
1, 144145, Note_on_c, 0, 61, 47
1, 144174, Note_off_c, 0, 61, 58
1, 144183, Note_off_c, 0, 79, 54
1, 144213, Note_on_c, 0, 63, 61
1, 144213, Note_on_c, 0, 77, 65
1, 144254, Note_off_c, 0, 63, 64
1, 144267, Note_off_c, 0, 77, 54
1, 144278, Note_on_c, 0, 60, 58
1, 144282, Note_on_c, 0, 80, 70
1, 144317, Note_off_c, 0, 60, 62
1, 144345, Note_off_c, 0, 80, 63
1, 144348, Note_on_c, 0, 78, 71
1, 144356, Control_c, 0, 64, 17
1, 144371, Control_c, 0, 64, 28
1, 144376, Note_on_c, 0, 62, 30
1, 144387, Control_c, 0, 64, 39
1, 144396, Note_off_c, 0, 78, 65
1, 144402, Control_c, 0, 64, 48
1, 144415, Note_on_c, 0, 70, 71
1, 144415, Note_off_c, 0, 62, 53
1, 144417, Control_c, 0, 64, 58
1, 144432, Control_c, 0, 64, 65
1, 144438, Note_off_c, 0, 70, 68
1, 144446, Control_c, 0, 64, 74
1, 144461, Control_c, 0, 64, 79
1, 144476, Control_c, 0, 64, 81
1, 144491, Control_c, 0, 64, 82
1, 144496, Note_on_c, 0, 62, 20
1, 144506, Control_c, 0, 64, 83
1, 144508, Note_on_c, 0, 68, 53
1, 144520, Control_c, 0, 64, 84
1, 144535, Control_c, 0, 64, 84
1, 144539, Note_off_c, 0, 62, 52
1, 144558, Note_off_c, 0, 68, 0
1, 144558, Note_on_c, 0, 68, 14
1, 144565, Control_c, 0, 64, 85
1, 144574, Note_on_c, 0, 66, 63
1, 144574, Note_on_c, 0, 72, 54
1, 144580, Control_c, 0, 64, 86
1, 144594, Control_c, 0, 64, 88
1, 144599, Note_off_c, 0, 72, 62
1, 144605, Note_off_c, 0, 68, 38
1, 144609, Control_c, 0, 64, 88
1, 144624, Note_off_c, 0, 66, 63
1, 144624, Control_c, 0, 64, 89
1, 144639, Control_c, 0, 64, 90
1, 144654, Control_c, 0, 64, 91
1, 144656, Note_on_c, 0, 58, 68
1, 144657, Note_on_c, 0, 74, 53
1, 144669, Control_c, 0, 64, 93
1, 144683, Control_c, 0, 64, 94
1, 144686, Note_off_c, 0, 58, 62
1, 144698, Control_c, 0, 64, 95
1, 144703, Note_on_c, 0, 72, 61
1, 144721, Note_on_c, 0, 66, 62
1, 144732, Note_off_c, 0, 72, 64
1, 144758, Control_c, 0, 64, 95
1, 144772, Note_off_c, 0, 74, 0
1, 144795, Note_off_c, 0, 66, 62
1, 144798, Note_on_c, 0, 68, 62
1, 144811, Poly_aftertouch_c, 0, 74, 0
1, 144820, Note_off_c, 0, 68, 62
1, 144873, Note_on_c, 0, 60, 59
1, 144883, Note_on_c, 0, 70, 73
1, 144906, Note_off_c, 0, 60, 66
1, 144920, Control_c, 0, 64, 95
1, 144945, Note_off_c, 0, 70, 53
1, 144957, Control_c, 0, 64, 94
1, 144962, Note_on_c, 0, 62, 58
1, 144964, Note_on_c, 0, 78, 72
1, 144972, Control_c, 0, 64, 94
1, 144987, Control_c, 0, 64, 93
1, 144988, Note_off_c, 0, 62, 64
1, 145002, Control_c, 0, 64, 92
1, 145017, Control_c, 0, 64, 92
1, 145019, Note_on_c, 0, 60, 63
1, 145031, Control_c, 0, 64, 90
1, 145033, Note_off_c, 0, 78, 62
1, 145041, Note_on_c, 0, 80, 66
1, 145046, Control_c, 0, 64, 88
1, 145056, Note_off_c, 0, 60, 64
1, 145061, Control_c, 0, 64, 83
1, 145067, Note_off_c, 0, 80, 68
1, 145076, Control_c, 0, 64, 78
1, 145091, Control_c, 0, 64, 69
1, 145094, Note_on_c, 0, 62, 60
1, 145105, Control_c, 0, 64, 59
1, 145120, Control_c, 0, 64, 40
1, 145125, Note_off_c, 0, 62, 64
1, 145135, Control_c, 0, 64, 0
1, 145166, Note_on_c, 0, 61, 67
1, 145206, Note_off_c, 0, 61, 66
1, 145210, Control_c, 0, 64, 22
1, 145225, Control_c, 0, 64, 34
1, 145240, Control_c, 0, 64, 41
1, 145247, Note_on_c, 0, 63, 62
1, 145254, Note_on_c, 0, 71, 49
1, 145255, Control_c, 0, 64, 46
1, 145269, Control_c, 0, 64, 47
1, 145274, Note_off_c, 0, 63, 54
1, 145280, Note_off_c, 0, 71, 57
1, 145303, Note_on_c, 0, 79, 69
1, 145312, Note_on_c, 0, 61, 58
1, 145314, Control_c, 0, 64, 47
1, 145329, Control_c, 0, 64, 46
1, 145343, Note_off_c, 0, 79, 59
1, 145343, Control_c, 0, 64, 43
1, 145346, Note_off_c, 0, 61, 65
1, 145358, Control_c, 0, 64, 38
1, 145363, Note_on_c, 0, 63, 60
1, 145373, Control_c, 0, 64, 34
1, 145375, Note_on_c, 0, 77, 65
1, 145387, Control_c, 0, 64, 30
1, 145402, Control_c, 0, 64, 30
1, 145408, Note_off_c, 0, 63, 61
1, 145422, Note_off_c, 0, 77, 63
1, 145428, Note_on_c, 0, 80, 72
1, 145431, Note_on_c, 0, 60, 56
1, 145432, Control_c, 0, 64, 32
1, 145447, Control_c, 0, 64, 36
1, 145461, Control_c, 0, 64, 44
1, 145465, Note_off_c, 0, 60, 63
1, 145476, Control_c, 0, 64, 53
1, 145491, Control_c, 0, 64, 63
1, 145494, Note_on_c, 0, 78, 73
1, 145497, Note_off_c, 0, 80, 63
1, 145506, Control_c, 0, 64, 75
1, 145521, Control_c, 0, 64, 93
1, 145523, Note_on_c, 0, 62, 33
1, 145536, Control_c, 0, 64, 103
1, 145540, Note_off_c, 0, 78, 65
1, 145551, Control_c, 0, 64, 115
1, 145554, Note_on_c, 0, 70, 76
1, 145558, Note_off_c, 0, 62, 53
1, 145566, Control_c, 0, 64, 127
1, 145575, Note_off_c, 0, 70, 70
1, 145613, Note_on_c, 0, 62, 35
1, 145646, Note_off_c, 0, 62, 55
1, 145658, Note_on_c, 0, 68, 48
1, 145702, Note_off_c, 0, 68, 61
1, 145713, Note_on_c, 0, 66, 72
1, 145713, Note_on_c, 0, 72, 73
1, 145740, Note_off_c, 0, 72, 61
1, 145777, Note_off_c, 0, 66, 64
1, 145795, Note_on_c, 0, 74, 56
1, 145801, Note_on_c, 0, 58, 77
1, 145820, Note_off_c, 0, 74, 55
1, 145852, Note_on_c, 0, 72, 60
1, 145855, Note_off_c, 0, 58, 59
1, 145876, Note_on_c, 0, 66, 68
1, 145879, Note_off_c, 0, 72, 67
1, 145934, Note_off_c, 0, 66, 64
1, 145943, Note_on_c, 0, 68, 61
1, 145953, Poly_aftertouch_c, 0, 74, 127
1, 145962, Note_off_c, 0, 68, 63
1, 145988, Poly_aftertouch_c, 0, 74, 0
1, 146011, Note_on_c, 0, 60, 67
1, 146024, Note_on_c, 0, 70, 72
1, 146038, Note_off_c, 0, 60, 67
1, 146090, Note_on_c, 0, 62, 63
1, 146092, Note_off_c, 0, 70, 58
1, 146093, Note_on_c, 0, 78, 71
1, 146125, Note_off_c, 0, 62, 61
1, 146153, Note_on_c, 0, 60, 58
1, 146169, Note_on_c, 0, 80, 69
1, 146187, Note_off_c, 0, 60, 64
1, 146189, Note_off_c, 0, 78, 63
1, 146197, Note_off_c, 0, 80, 63
1, 146226, Note_on_c, 0, 70, 64
1, 146239, Note_on_c, 0, 62, 52
1, 146251, Note_off_c, 0, 70, 65
1, 146256, Control_c, 0, 64, 89
1, 146262, Note_off_c, 0, 62, 61
1, 146271, Control_c, 0, 64, 68
1, 146285, Control_c, 0, 64, 57
1, 146300, Note_on_c, 0, 60, 60
1, 146300, Control_c, 0, 64, 40
1, 146314, Note_on_c, 0, 68, 63
1, 146315, Control_c, 0, 64, 35
1, 146330, Control_c, 0, 64, 39
1, 146332, Note_off_c, 0, 60, 65
1, 146345, Control_c, 0, 64, 48
1, 146355, Note_on_c, 0, 62, 58
1, 146359, Control_c, 0, 64, 59
1, 146374, Note_on_c, 0, 66, 71
1, 146374, Control_c, 0, 64, 73
1, 146389, Control_c, 0, 64, 127
1, 146396, Note_off_c, 0, 68, 59
1, 146399, Note_off_c, 0, 62, 62
1, 146427, Note_off_c, 0, 66, 64
1, 146439, Note_on_c, 0, 60, 45
1, 146444, Note_on_c, 0, 58, 71
1, 146472, Note_off_c, 0, 60, 57
1, 146486, Note_off_c, 0, 58, 61
1, 146512, Note_on_c, 0, 62, 34
1, 146515, Note_on_c, 0, 66, 64
1, 146537, Note_off_c, 0, 62, 60
1, 146555, Note_on_c, 0, 60, 41
1, 146566, Note_off_c, 0, 66, 64
1, 146576, Note_off_c, 0, 60, 61
1, 146578, Note_on_c, 0, 68, 68
1, 146621, Note_on_c, 0, 62, 49
1, 146640, Note_on_c, 0, 66, 68
1, 146644, Note_off_c, 0, 68, 58
1, 146645, Note_off_c, 0, 62, 60
1, 146655, Note_on_c, 0, 60, 50
1, 146677, Note_off_c, 0, 66, 63
1, 146681, Note_off_c, 0, 60, 57
1, 146694, Note_on_c, 0, 58, 72
1, 146714, Note_off_c, 0, 58, 71
1, 146800, Note_on_c, 0, 53, 57
1, 146822, Note_on_c, 0, 48, 44
1, 146838, Note_off_c, 0, 53, 66
1, 146842, Control_c, 0, 64, 82
1, 146854, Note_off_c, 0, 48, 55
1, 146857, Control_c, 0, 64, 65
1, 146861, Note_on_c, 0, 56, 59
1, 146871, Control_c, 0, 64, 52
1, 146886, Control_c, 0, 64, 42
1, 146887, Note_on_c, 0, 50, 55
1, 146901, Control_c, 0, 64, 43
1, 146902, Note_off_c, 0, 56, 66
1, 146909, Note_on_c, 0, 54, 69
1, 146911, Note_off_c, 0, 50, 59
1, 146916, Control_c, 0, 64, 49
1, 146931, Control_c, 0, 64, 58
1, 146940, Note_on_c, 0, 48, 61
1, 146946, Control_c, 0, 64, 68
1, 146955, Note_off_c, 0, 54, 63
1, 146961, Control_c, 0, 64, 92
1, 146970, Note_on_c, 0, 46, 73
1, 146973, Note_off_c, 0, 48, 64
1, 146975, Control_c, 0, 64, 127
1, 146999, Note_on_c, 0, 50, 58
1, 147009, Note_off_c, 0, 46, 63
1, 147029, Note_off_c, 0, 50, 63
1, 147035, Note_on_c, 0, 54, 66
1, 147053, Note_on_c, 0, 48, 63
1, 147064, Control_c, 0, 67, 118
1, 147079, Control_c, 0, 67, 102
1, 147083, Note_off_c, 0, 48, 64
1, 147090, Note_off_c, 0, 54, 64
1, 147093, Control_c, 0, 67, 79
1, 147100, Note_on_c, 0, 56, 71
1, 147107, Control_c, 0, 67, 54
1, 147115, Note_on_c, 0, 50, 50
1, 147122, Control_c, 0, 67, 26
1, 147137, Control_c, 0, 67, 0
1, 147144, Note_off_c, 0, 50, 55
1, 147162, Note_on_c, 0, 54, 76
1, 147164, Note_off_c, 0, 56, 66
1, 147167, Note_on_c, 0, 48, 64
1, 147221, Note_off_c, 0, 48, 60
1, 147223, Note_off_c, 0, 54, 64
1, 147252, Note_on_c, 0, 46, 35
1, 147286, Note_off_c, 0, 46, 60
1, 147322, Note_on_c, 0, 42, 69
1, 147372, Note_off_c, 0, 42, 60
1, 147381, Control_c, 0, 64, 101
1, 147393, Note_on_c, 0, 44, 64
1, 147396, Control_c, 0, 64, 68
1, 147407, Note_on_c, 0, 36, 51
1, 147411, Control_c, 0, 64, 56
1, 147426, Control_c, 0, 64, 44
1, 147436, Note_on_c, 0, 42, 59
1, 147438, Note_off_c, 0, 36, 57
1, 147441, Control_c, 0, 64, 40
1, 147456, Control_c, 0, 64, 44
1, 147459, Note_off_c, 0, 44, 56
1, 147462, Note_on_c, 0, 38, 60
1, 147471, Control_c, 0, 64, 50
1, 147485, Control_c, 0, 64, 59
1, 147497, Note_off_c, 0, 38, 62
1, 147500, Note_off_c, 0, 42, 61
1, 147500, Control_c, 0, 64, 67
1, 147515, Control_c, 0, 64, 77
1, 147524, Note_on_c, 0, 36, 61
1, 147530, Control_c, 0, 64, 81
1, 147573, Note_on_c, 0, 42, 66
1, 147573, Note_off_c, 0, 36, 61
1, 147590, Control_c, 0, 64, 82
1, 147599, Note_on_c, 0, 38, 63
1, 147605, Control_c, 0, 64, 83
1, 147620, Control_c, 0, 64, 85
1, 147635, Control_c, 0, 64, 90
1, 147642, Note_off_c, 0, 42, 60
1, 147649, Control_c, 0, 64, 98
1, 147649, Note_on_c, 0, 44, 69
1, 147652, Note_off_c, 0, 38, 59
1, 147664, Control_c, 0, 64, 122
1, 147679, Note_on_c, 0, 36, 64
1, 147679, Control_c, 0, 64, 127
1, 147705, Note_on_c, 0, 42, 63
1, 147707, Note_off_c, 0, 44, 59
1, 147717, Note_off_c, 0, 36, 60
1, 147753, Note_on_c, 0, 38, 67
1, 147766, Note_off_c, 0, 42, 60
1, 147784, Note_on_c, 0, 34, 61
1, 147791, Note_off_c, 0, 38, 59
1, 147810, Note_off_c, 0, 34, 63
1, 147822, Note_on_c, 0, 36, 65
1, 147845, Note_on_c, 0, 42, 66
1, 147858, Note_off_c, 0, 36, 62
1, 147892, Note_on_c, 0, 38, 66
1, 147901, Control_c, 0, 64, 97
1, 147903, Note_off_c, 0, 42, 58
1, 147911, Note_on_c, 0, 44, 78
1, 147916, Control_c, 0, 64, 72
1, 147930, Control_c, 0, 64, 65
1, 147933, Note_off_c, 0, 38, 56
1, 147953, Control_c, 0, 64, 65
1, 147968, Control_c, 0, 64, 66
1, 147973, Note_on_c, 0, 36, 68
1, 147982, Control_c, 0, 64, 71
1, 147984, Note_on_c, 0, 42, 71
1, 147997, Control_c, 0, 64, 82
1, 148012, Control_c, 0, 64, 100
1, 148016, Note_off_c, 0, 44, 57
1, 148017, Note_off_c, 0, 36, 62
1, 148027, Control_c, 0, 64, 127
1, 148049, Note_off_c, 0, 42, 61
1, 148049, Note_on_c, 0, 38, 67
1, 148064, Note_on_c, 0, 34, 60
1, 148091, Note_off_c, 0, 38, 61
1, 148091, Note_off_c, 0, 34, 55
1, 148120, Note_on_c, 0, 42, 68
1, 148196, Note_off_c, 0, 42, 60
1, 148198, Note_on_c, 0, 44, 79
1, 148235, Note_on_c, 0, 36, 72
1, 148259, Note_on_c, 0, 42, 69
1, 148259, Note_off_c, 0, 44, 62
1, 148267, Note_off_c, 0, 36, 63
1, 148317, Note_on_c, 0, 38, 47
1, 148337, Note_off_c, 0, 42, 59
1, 148347, Note_on_c, 0, 34, 61
1, 148367, Note_off_c, 0, 38, 58
1, 148382, Note_on_c, 0, 36, 34
1, 148382, Note_off_c, 0, 34, 65
1, 148401, Note_on_c, 0, 42, 67
1, 148407, Note_off_c, 0, 36, 57
1, 148468, Note_on_c, 0, 36, 93
1, 148469, Note_on_c, 0, 44, 83
1, 148469, Note_off_c, 0, 42, 60
1, 148516, Note_off_c, 0, 36, 61
1, 148542, Note_on_c, 0, 42, 71
1, 148544, Note_off_c, 0, 44, 61
1, 148555, Note_on_c, 0, 38, 79
1, 148614, Note_off_c, 0, 42, 56
1, 148616, Note_on_c, 0, 34, 65
1, 148616, Note_on_c, 0, 36, 85
1, 148616, Note_off_c, 0, 38, 56
1, 148651, Note_off_c, 0, 34, 65
1, 148673, Note_off_c, 0, 36, 63
1, 148682, Note_on_c, 0, 42, 66
1, 148710, Note_on_c, 0, 38, 70
1, 148736, Note_off_c, 0, 38, 65
1, 148766, Note_on_c, 0, 44, 86
1, 148770, Note_on_c, 0, 36, 97
1, 148770, Note_off_c, 0, 42, 60
1, 148843, Note_on_c, 0, 42, 77
1, 148846, Note_off_c, 0, 36, 64
1, 148851, Note_on_c, 0, 38, 84
1, 148881, Note_off_c, 0, 44, 59
1, 148900, Note_off_c, 0, 38, 64
1, 148924, Note_on_c, 0, 36, 93
1, 148932, Note_on_c, 0, 34, 65
1, 148938, Note_off_c, 0, 42, 49
1, 148964, Note_off_c, 0, 34, 55
1, 148991, Note_on_c, 0, 42, 56
1, 148996, Note_off_c, 0, 36, 57
1, 149015, Note_on_c, 0, 38, 79
1, 149033, Note_off_c, 0, 42, 59
1, 149047, Note_off_c, 0, 38, 62
1, 149071, Note_on_c, 0, 44, 95
1, 149076, Note_on_c, 0, 36, 97
1, 149160, Note_on_c, 0, 42, 83
1, 149161, Note_off_c, 0, 36, 64
1, 149162, Note_on_c, 0, 38, 80
1, 149164, Note_off_c, 0, 44, 61
1, 149220, Note_off_c, 0, 38, 62
1, 149250, Note_on_c, 0, 36, 90
1, 149259, Note_on_c, 0, 34, 69
1, 149269, Note_off_c, 0, 42, 61
1, 149286, Note_off_c, 0, 34, 66
1, 149319, Note_off_c, 0, 36, 64
1, 149328, Note_on_c, 0, 42, 62
1, 149331, Note_on_c, 0, 38, 81
1, 149372, Note_off_c, 0, 42, 59
1, 149388, Note_off_c, 0, 38, 60
1, 149404, Note_on_c, 0, 36, 87
1, 149412, Note_on_c, 0, 44, 90
1, 149477, Note_off_c, 0, 36, 62
1, 149486, Note_off_c, 0, 44, 54
1, 149489, Note_on_c, 0, 38, 79
1, 149506, Note_on_c, 0, 42, 80
1, 149537, Note_off_c, 0, 38, 0
1, 149558, Note_on_c, 0, 36, 91
1, 149569, Poly_aftertouch_c, 0, 38, 0
1, 149590, Note_off_c, 0, 36, 67
1, 149605, Note_on_c, 0, 34, 77
1, 149611, Note_off_c, 0, 42, 57
1, 149632, Note_off_c, 0, 34, 67
1, 149687, Note_on_c, 0, 42, 89
1, 149781, Note_off_c, 0, 42, 59
1, 149933, Note_on_c, 0, 22, 97
1, 149965, Note_on_c, 0, 25, 36
1, 149969, Control_c, 0, 64, 73
1, 149985, Control_c, 0, 64, 50
1, 149995, Note_off_c, 0, 25, 51
1, 150000, Control_c, 0, 64, 0
1, 150074, Control_c, 0, 64, 23
1, 150082, Note_on_c, 0, 24, 59
1, 150089, Control_c, 0, 64, 45
1, 150104, Control_c, 0, 64, 63
1, 150119, Control_c, 0, 64, 102
1, 150133, Control_c, 0, 64, 127
1, 150166, Note_off_c, 0, 22, 59
1, 150184, Note_on_c, 0, 34, 80
1, 150218, Note_off_c, 0, 24, 56
1, 150231, Note_off_c, 0, 34, 67
1, 150233, Note_on_c, 0, 36, 46
1, 150238, Note_on_c, 0, 38, 53
1, 150252, Note_on_c, 0, 46, 68
1, 150270, Note_off_c, 0, 36, 60
1, 150276, Note_off_c, 0, 38, 63
1, 150299, Note_on_c, 0, 48, 73
1, 150328, Note_on_c, 0, 50, 65
1, 150336, Note_off_c, 0, 46, 65
1, 150341, Note_off_c, 0, 48, 63
1, 150354, Note_off_c, 0, 50, 66
1, 150403, Note_on_c, 0, 34, 89
1, 150448, Note_on_c, 0, 36, 65
1, 150502, Note_on_c, 0, 46, 88
1, 150509, Poly_aftertouch_c, 0, 58, 127
1, 150515, Note_off_c, 0, 34, 62
1, 150529, Note_on_c, 0, 48, 49
1, 150529, Note_on_c, 0, 50, 57
1, 150535, Note_off_c, 0, 36, 62
1, 150541, Note_on_c, 0, 58, 18
1, 150547, Note_off_c, 0, 46, 63
1, 150559, Note_off_c, 0, 48, 64
1, 150564, Note_off_c, 0, 50, 65
1, 150594, Note_on_c, 0, 60, 63
1, 150598, Note_on_c, 0, 56, 37
1, 150607, Note_on_c, 0, 62, 84
1, 150617, Note_off_c, 0, 58, 62
1, 150623, Note_off_c, 0, 60, 67
1, 150633, Note_off_c, 0, 56, 45
1, 150636, Note_off_c, 0, 62, 66
1, 150682, Note_on_c, 0, 46, 92
1, 150725, Note_on_c, 0, 48, 61
1, 150741, Note_on_c, 0, 70, 33
1, 150772, Note_on_c, 0, 58, 86
1, 150776, Note_off_c, 0, 70, 54
1, 150782, Note_off_c, 0, 46, 62
1, 150797, Note_off_c, 0, 48, 64
1, 150800, Note_on_c, 0, 60, 57
1, 150801, Note_on_c, 0, 62, 55
1, 150824, Note_off_c, 0, 58, 63
1, 150827, Note_off_c, 0, 60, 69
1, 150836, Note_off_c, 0, 62, 65
1, 150836, Note_on_c, 0, 70, 79
1, 150883, Note_on_c, 0, 72, 71
1, 150894, Note_on_c, 0, 74, 92
1, 150912, Note_off_c, 0, 70, 60
1, 150928, Note_off_c, 0, 72, 61
1, 150930, Note_off_c, 0, 74, 69
1, 151212, Note_on_c, 0, 84, 104
1, 151215, Note_on_c, 0, 60, 72
1, 151215, Note_on_c, 0, 72, 72
1, 151231, Note_off_c, 0, 72, 67
1, 151236, Note_off_c, 0, 84, 66
1, 151241, Note_off_c, 0, 60, 67
1, 151274, Note_on_c, 0, 67, 86
1, 151283, Note_on_c, 0, 91, 105
1, 151285, Note_on_c, 0, 79, 100
1, 151304, Note_on_c, 0, 81, 66
1, 151305, Note_off_c, 0, 81, 127
1, 151310, Note_off_c, 0, 67, 63
1, 151402, Poly_aftertouch_c, 0, 81, 127
1, 151424, Note_off_c, 0, 79, 56
1, 151534, Poly_aftertouch_c, 0, 81, 0
1, 151584, Note_off_c, 0, 91, 46
1, 152005, Note_on_c, 0, 28, 104
1, 152115, Note_off_c, 0, 28, 61
1, 152785, Note_on_c, 0, 22, 101
1, 152787, Control_c, 0, 64, 70
1, 152802, Control_c, 0, 64, 41
1, 152817, Control_c, 0, 64, 0
1, 152891, Control_c, 0, 64, 20
1, 152906, Control_c, 0, 64, 43
1, 152920, Control_c, 0, 64, 61
1, 152931, Note_on_c, 0, 24, 67
1, 152935, Control_c, 0, 64, 114
1, 152950, Control_c, 0, 64, 127
1, 152974, Note_off_c, 0, 22, 60
1, 153015, Note_on_c, 0, 34, 77
1, 153031, Note_off_c, 0, 24, 60
1, 153042, Note_off_c, 0, 34, 67
1, 153051, Poly_aftertouch_c, 0, 46, 127
1, 153064, Note_on_c, 0, 36, 52
1, 153077, Poly_aftertouch_c, 0, 46, 0
1, 153095, Note_on_c, 0, 38, 42
1, 153101, Note_on_c, 0, 46, 51
1, 153116, Note_off_c, 0, 36, 45
1, 153138, Note_off_c, 0, 38, 46
1, 153152, Note_on_c, 0, 48, 68
1, 153180, Note_off_c, 0, 46, 66
1, 153211, Note_off_c, 0, 48, 65
1, 153221, Note_on_c, 0, 50, 51
1, 153248, Note_off_c, 0, 50, 54
1, 153254, Note_on_c, 0, 34, 80
1, 153307, Note_on_c, 0, 36, 60
1, 153347, Note_off_c, 0, 34, 63
1, 153354, Note_on_c, 0, 46, 83
1, 153377, Note_off_c, 0, 36, 64
1, 153382, Note_off_c, 0, 46, 69
1, 153384, Note_on_c, 0, 48, 51
1, 153411, Note_on_c, 0, 58, 54
1, 153412, Note_on_c, 0, 50, 44
1, 153448, Note_off_c, 0, 50, 55
1, 153462, Note_on_c, 0, 60, 57
1, 153489, Note_on_c, 0, 62, 78
1, 153493, Note_off_c, 0, 48, 41
1, 153495, Note_off_c, 0, 60, 66
1, 153498, Note_off_c, 0, 58, 63
1, 153513, Note_off_c, 0, 62, 69
1, 153543, Note_on_c, 0, 46, 90
1, 153556, Note_on_c, 0, 44, 60
1, 153581, Note_off_c, 0, 44, 58
1, 153592, Note_on_c, 0, 48, 68
1, 153628, Note_on_c, 0, 58, 87
1, 153641, Note_off_c, 0, 46, 64
1, 153656, Note_on_c, 0, 60, 51
1, 153656, Note_off_c, 0, 48, 66
1, 153676, Note_on_c, 0, 62, 44
1, 153687, Note_on_c, 0, 70, 45
1, 153692, Note_off_c, 0, 58, 61
1, 153705, Note_off_c, 0, 62, 56
1, 153739, Note_off_c, 0, 60, 43
1, 153757, Note_on_c, 0, 74, 89
1, 153760, Note_on_c, 0, 72, 47
1, 153786, Note_off_c, 0, 70, 59
1, 153787, Note_off_c, 0, 72, 63
1, 153790, Note_off_c, 0, 74, 71
1, 154101, Note_on_c, 0, 72, 85
1, 154104, Note_on_c, 0, 84, 99
1, 154110, Note_on_c, 0, 60, 69
1, 154130, Note_off_c, 0, 72, 56
1, 154138, Note_off_c, 0, 84, 66
1, 154142, Note_off_c, 0, 60, 67
1, 154197, Note_on_c, 0, 69, 86
1, 154197, Note_on_c, 0, 81, 95
1, 154201, Note_on_c, 0, 93, 87
1, 154216, Note_off_c, 0, 81, 68
1, 154219, Note_off_c, 0, 93, 68
1, 154226, Note_off_c, 0, 69, 64
1, 154272, Note_on_c, 0, 67, 101
1, 154274, Note_on_c, 0, 79, 108
1, 154275, Note_on_c, 0, 91, 104
1, 154300, Note_on_c, 0, 89, 59
1, 154301, Note_off_c, 0, 89, 127
1, 154599, Note_off_c, 0, 91, 51
1, 154605, Note_off_c, 0, 79, 43
1, 154677, Note_off_c, 0, 67, 44
1, 155315, Control_c, 0, 64, 109
1, 155329, Control_c, 0, 64, 102
1, 155344, Control_c, 0, 64, 96
1, 155358, Control_c, 0, 64, 92
1, 155373, Control_c, 0, 64, 88
1, 155388, Control_c, 0, 64, 86
1, 155403, Control_c, 0, 64, 83
1, 155418, Control_c, 0, 64, 81
1, 155433, Control_c, 0, 64, 78
1, 155455, Control_c, 0, 64, 76
1, 155470, Control_c, 0, 64, 74
1, 155485, Control_c, 0, 64, 69
1, 155499, Control_c, 0, 64, 61
1, 155500, Note_on_c, 0, 60, 95
1, 155514, Control_c, 0, 64, 47
1, 155529, Control_c, 0, 64, 0
1, 155634, Control_c, 0, 64, 29
1, 155649, Control_c, 0, 64, 45
1, 155651, Note_on_c, 0, 84, 92
1, 155655, Note_on_c, 0, 72, 82
1, 155664, Control_c, 0, 64, 63
1, 155674, Note_off_c, 0, 72, 58
1, 155678, Control_c, 0, 64, 110
1, 155693, Control_c, 0, 64, 127
1, 155710, Note_off_c, 0, 84, 64
1, 155756, Note_off_c, 0, 60, 57
1, 155798, Note_on_c, 0, 69, 95
1, 155850, Note_off_c, 0, 69, 65
1, 155895, Note_on_c, 0, 93, 95
1, 155897, Note_on_c, 0, 81, 95
1, 155911, Note_off_c, 0, 93, 71
1, 155913, Note_off_c, 0, 81, 71
1, 155966, Note_on_c, 0, 67, 101
1, 155986, Note_off_c, 0, 67, 67
1, 156025, Note_on_c, 0, 79, 85
1, 156026, Note_on_c, 0, 91, 87
1, 156039, Note_off_c, 0, 79, 71
1, 156045, Note_off_c, 0, 91, 69
1, 156090, Note_on_c, 0, 70, 93
1, 156112, Note_on_c, 0, 68, 58
1, 156133, Note_on_c, 0, 94, 94
1, 156133, Note_off_c, 0, 70, 64
1, 156135, Note_on_c, 0, 82, 96
1, 156137, Note_off_c, 0, 68, 38
1, 156151, Note_off_c, 0, 94, 70
1, 156152, Note_off_c, 0, 82, 70
1, 156209, Note_on_c, 0, 68, 86
1, 156243, Note_off_c, 0, 68, 57
1, 156245, Note_on_c, 0, 80, 93
1, 156246, Poly_aftertouch_c, 0, 92, 0
1, 156250, Note_on_c, 0, 90, 74
1, 156261, Note_off_c, 0, 80, 69
1, 156265, Note_off_c, 0, 90, 70
1, 156326, Note_on_c, 0, 80, 25
1, 156342, Note_on_c, 0, 61, 94
1, 156354, Note_on_c, 0, 85, 99
1, 156363, Note_on_c, 0, 73, 83
1, 156366, Note_off_c, 0, 80, 47
1, 156381, Note_off_c, 0, 73, 74
1, 156388, Note_off_c, 0, 85, 60
1, 156444, Poly_aftertouch_c, 0, 63, 127
1, 156588, Note_on_c, 0, 83, 106
1, 156589, Note_on_c, 0, 71, 101
1, 156590, Control_c, 0, 64, 90
1, 156591, Note_on_c, 0, 95, 106
1, 156598, Poly_aftertouch_c, 0, 63, 0
1, 156605, Control_c, 0, 64, 60
1, 156613, Note_on_c, 0, 94, 62
1, 156619, Control_c, 0, 64, 16
1, 156634, Control_c, 0, 64, 0
1, 156637, Note_off_c, 0, 94, 38
1, 156690, Note_off_c, 0, 61, 58
1, 156723, Control_c, 0, 64, 30
1, 156738, Control_c, 0, 64, 53
1, 156753, Control_c, 0, 64, 104
1, 156768, Control_c, 0, 64, 127
1, 156774, Note_off_c, 0, 83, 55
1, 156786, Note_off_c, 0, 71, 58
1, 156791, Note_off_c, 0, 95, 63
1, 157176, Control_c, 0, 67, 9
1, 157191, Control_c, 0, 67, 13
1, 157206, Control_c, 0, 67, 18
1, 157221, Control_c, 0, 67, 25
1, 157236, Control_c, 0, 67, 32
1, 157250, Control_c, 0, 67, 43
1, 157265, Control_c, 0, 67, 55
1, 157280, Control_c, 0, 67, 71
1, 157295, Control_c, 0, 67, 83
1, 157309, Control_c, 0, 67, 94
1, 157324, Control_c, 0, 67, 104
1, 157339, Control_c, 0, 67, 115
1, 157354, Control_c, 0, 67, 125
1, 157368, Control_c, 0, 67, 127
1, 157535, Note_on_c, 0, 58, 40
1, 157653, Note_on_c, 0, 70, 47
1, 157710, Note_off_c, 0, 58, 47
1, 157739, Note_on_c, 0, 56, 37
1, 157773, Note_off_c, 0, 70, 58
1, 157797, Note_on_c, 0, 68, 47
1, 157800, Note_off_c, 0, 56, 57
1, 157838, Note_on_c, 0, 49, 47
1, 157877, Note_off_c, 0, 68, 58
1, 157895, Note_off_c, 0, 49, 63
1, 157901, Note_on_c, 0, 61, 55
1, 157931, Note_off_c, 0, 61, 67
1, 157992, Note_on_c, 0, 46, 57
1, 158055, Note_on_c, 0, 58, 42
1, 158086, Note_off_c, 0, 46, 53
1, 158127, Note_on_c, 0, 44, 42
1, 158141, Note_off_c, 0, 58, 60
1, 158160, Note_on_c, 0, 56, 48
1, 158205, Note_off_c, 0, 44, 59
1, 158206, Note_on_c, 0, 37, 47
1, 158239, Note_off_c, 0, 56, 65
1, 158261, Note_off_c, 0, 37, 57
1, 158265, Note_on_c, 0, 49, 60
1, 158305, Note_off_c, 0, 49, 63
1, 158373, Note_on_c, 0, 34, 57
1, 158452, Note_on_c, 0, 46, 52
1, 158491, Note_off_c, 0, 34, 59
1, 158524, Note_on_c, 0, 32, 44
1, 158539, Note_off_c, 0, 46, 60
1, 158547, Note_on_c, 0, 44, 54
1, 158592, Note_off_c, 0, 44, 58
1, 158607, Note_off_c, 0, 32, 46
1, 158628, Control_c, 0, 67, 122
1, 158640, Note_on_c, 0, 25, 51
1, 158643, Control_c, 0, 67, 104
1, 158658, Control_c, 0, 67, 75
1, 158671, Note_off_c, 0, 25, 61
1, 158672, Control_c, 0, 67, 36
1, 158687, Control_c, 0, 67, 0
1, 158712, Note_on_c, 0, 37, 54
1, 158750, Note_off_c, 0, 37, 61
1, 159055, Note_on_c, 0, 22, 94
1, 159103, Control_c, 0, 64, 85
1, 159118, Control_c, 0, 64, 55
1, 159132, Control_c, 0, 64, 0
1, 159140, Poly_aftertouch_c, 0, 26, 0
1, 159199, Note_on_c, 0, 24, 49
1, 159214, Control_c, 0, 64, 12
1, 159229, Control_c, 0, 64, 44
1, 159244, Control_c, 0, 64, 64
1, 159259, Control_c, 0, 64, 127
1, 159262, Note_off_c, 0, 22, 50
1, 159282, Note_on_c, 0, 34, 80
1, 159316, Note_off_c, 0, 24, 56
1, 159320, Note_off_c, 0, 34, 67
1, 159334, Note_on_c, 0, 36, 60
1, 159349, Note_on_c, 0, 38, 50
1, 159364, Note_off_c, 0, 36, 55
1, 159379, Note_on_c, 0, 46, 73
1, 159385, Note_off_c, 0, 38, 58
1, 159415, Note_on_c, 0, 48, 71
1, 159442, Note_off_c, 0, 46, 66
1, 159449, Note_off_c, 0, 48, 67
1, 159454, Note_on_c, 0, 50, 58
1, 159477, Note_off_c, 0, 50, 62
1, 159501, Note_on_c, 0, 34, 85
1, 159571, Note_on_c, 0, 36, 57
1, 159603, Note_on_c, 0, 46, 84
1, 159609, Note_off_c, 0, 34, 63
1, 159629, Note_off_c, 0, 36, 63
1, 159633, Note_on_c, 0, 48, 53
1, 159635, Note_off_c, 0, 46, 69
1, 159637, Note_on_c, 0, 50, 57
1, 159656, Note_on_c, 0, 58, 56
1, 159668, Note_off_c, 0, 48, 59
1, 159676, Note_off_c, 0, 50, 64
1, 159704, Note_on_c, 0, 60, 67
1, 159723, Note_on_c, 0, 62, 85
1, 159731, Note_off_c, 0, 60, 67
1, 159734, Note_off_c, 0, 58, 63
1, 159751, Note_off_c, 0, 62, 67
1, 159788, Note_on_c, 0, 46, 97
1, 159854, Note_on_c, 0, 48, 53
1, 159859, Note_on_c, 0, 70, 31
1, 159881, Note_on_c, 0, 58, 90
1, 159892, Note_off_c, 0, 46, 67
1, 159892, Note_off_c, 0, 70, 55
1, 159907, Note_on_c, 0, 60, 52
1, 159909, Note_on_c, 0, 62, 57
1, 159916, Note_off_c, 0, 48, 64
1, 159946, Note_off_c, 0, 60, 68
1, 159950, Note_off_c, 0, 58, 64
1, 159955, Note_off_c, 0, 62, 65
1, 159957, Note_on_c, 0, 70, 70
1, 159968, Poly_aftertouch_c, 0, 49, 0
1, 159995, Note_on_c, 0, 72, 71
1, 160014, Note_on_c, 0, 74, 91
1, 160024, Note_off_c, 0, 70, 61
1, 160051, Note_off_c, 0, 72, 64
1, 160055, Note_off_c, 0, 74, 68
1, 160331, Note_on_c, 0, 72, 82
1, 160333, Note_on_c, 0, 84, 107
1, 160334, Note_on_c, 0, 60, 74
1, 160350, Note_off_c, 0, 72, 72
1, 160357, Note_off_c, 0, 84, 66
1, 160362, Note_off_c, 0, 60, 67
1, 160399, Note_on_c, 0, 67, 82
1, 160408, Note_on_c, 0, 91, 109
1, 160410, Note_on_c, 0, 79, 103
1, 160422, Note_off_c, 0, 67, 71
1, 160692, Note_off_c, 0, 91, 50
1, 160758, Note_off_c, 0, 79, 49
1, 161185, Note_on_c, 0, 28, 106
1, 161302, Note_off_c, 0, 28, 59
1, 161941, Note_on_c, 0, 22, 99
1, 161995, Control_c, 0, 64, 79
1, 162010, Control_c, 0, 64, 60
1, 162025, Control_c, 0, 64, 35
1, 162039, Control_c, 0, 64, 0
1, 162116, Note_on_c, 0, 24, 66
1, 162143, Control_c, 0, 64, 16
1, 162154, Note_off_c, 0, 22, 60
1, 162157, Control_c, 0, 64, 37
1, 162172, Control_c, 0, 64, 57
1, 162194, Control_c, 0, 64, 76
1, 162209, Control_c, 0, 64, 127
1, 162216, Note_on_c, 0, 34, 78
1, 162231, Note_off_c, 0, 24, 61
1, 162253, Note_off_c, 0, 34, 67
1, 162283, Note_on_c, 0, 36, 58
1, 162313, Note_on_c, 0, 38, 47
1, 162318, Note_off_c, 0, 36, 54
1, 162327, Note_on_c, 0, 46, 73
1, 162350, Note_off_c, 0, 38, 50
1, 162372, Note_on_c, 0, 48, 67
1, 162399, Note_off_c, 0, 46, 67
1, 162420, Note_on_c, 0, 50, 60
1, 162420, Note_off_c, 0, 48, 63
1, 162443, Note_off_c, 0, 50, 65
1, 162462, Note_on_c, 0, 34, 86
1, 162530, Note_on_c, 0, 36, 55
1, 162552, Note_on_c, 0, 46, 87
1, 162560, Note_on_c, 0, 37, 20
1, 162564, Note_off_c, 0, 34, 65
1, 162592, Note_off_c, 0, 36, 63
1, 162594, Note_on_c, 0, 48, 42
1, 162597, Note_off_c, 0, 46, 66
1, 162598, Note_on_c, 0, 50, 51
1, 162613, Note_off_c, 0, 37, 45
1, 162617, Note_on_c, 0, 58, 72
1, 162634, Note_off_c, 0, 48, 63
1, 162643, Note_off_c, 0, 50, 64
1, 162658, Note_on_c, 0, 60, 60
1, 162676, Note_on_c, 0, 56, 20
1, 162685, Note_on_c, 0, 62, 83
1, 162694, Note_off_c, 0, 60, 65
1, 162697, Note_off_c, 0, 58, 64
1, 162713, Note_off_c, 0, 62, 66
1, 162717, Note_off_c, 0, 56, 40
1, 162749, Note_on_c, 0, 46, 96
1, 162818, Note_on_c, 0, 48, 52
1, 162818, Note_on_c, 0, 70, 40
1, 162837, Note_on_c, 0, 58, 95
1, 162839, Note_on_c, 0, 49, 34
1, 162848, Note_off_c, 0, 70, 53
1, 162860, Note_off_c, 0, 46, 64
1, 162873, Note_off_c, 0, 48, 64
1, 162878, Note_on_c, 0, 62, 69
1, 162879, Note_on_c, 0, 60, 64
1, 162897, Note_off_c, 0, 58, 63
1, 162907, Note_off_c, 0, 60, 64
1, 162919, Note_on_c, 0, 70, 77
1, 162937, Note_off_c, 0, 62, 62
1, 162944, Note_off_c, 0, 49, 50
1, 162968, Note_on_c, 0, 72, 58
1, 162992, Note_on_c, 0, 71, 37
1, 163001, Note_on_c, 0, 74, 90
1, 163007, Note_off_c, 0, 70, 61
1, 163022, Note_off_c, 0, 71, 57
1, 163041, Note_off_c, 0, 72, 62
1, 163047, Note_off_c, 0, 74, 70
1, 163377, Note_on_c, 0, 72, 85
1, 163383, Note_on_c, 0, 60, 73
1, 163386, Note_on_c, 0, 84, 101
1, 163409, Note_off_c, 0, 72, 56
1, 163413, Note_off_c, 0, 60, 65
1, 163415, Note_off_c, 0, 84, 66
1, 163478, Note_on_c, 0, 81, 103
1, 163479, Note_on_c, 0, 69, 89
1, 163481, Note_on_c, 0, 93, 97
1, 163496, Note_off_c, 0, 93, 73
1, 163501, Note_off_c, 0, 81, 65
1, 163509, Note_off_c, 0, 69, 64
1, 163552, Note_on_c, 0, 67, 103
1, 163557, Note_on_c, 0, 79, 104
1, 163557, Note_on_c, 0, 91, 101
1, 163599, Note_on_c, 0, 90, 41
1, 163635, Note_off_c, 0, 90, 56
1, 163904, Note_off_c, 0, 91, 51
1, 163916, Note_off_c, 0, 79, 42
1, 164019, Note_off_c, 0, 67, 42
1, 164738, Control_c, 0, 64, 107
1, 164752, Control_c, 0, 64, 81
1, 164763, Note_on_c, 0, 60, 91
1, 164767, Control_c, 0, 64, 66
1, 164782, Control_c, 0, 64, 55
1, 164797, Control_c, 0, 64, 36
1, 164812, Control_c, 0, 64, 9
1, 164826, Control_c, 0, 64, 0
1, 164871, Control_c, 0, 64, 18
1, 164885, Control_c, 0, 64, 29
1, 164900, Control_c, 0, 64, 40
1, 164915, Control_c, 0, 64, 52
1, 164930, Control_c, 0, 64, 63
1, 164933, Note_on_c, 0, 84, 89
1, 164936, Note_on_c, 0, 72, 75
1, 164945, Control_c, 0, 64, 83
1, 164960, Control_c, 0, 64, 113
1, 164964, Note_off_c, 0, 72, 65
1, 164974, Control_c, 0, 64, 127
1, 164997, Note_off_c, 0, 84, 61
1, 165089, Note_on_c, 0, 69, 87
1, 165149, Note_off_c, 0, 60, 60
1, 165192, Note_on_c, 0, 93, 86
1, 165196, Note_on_c, 0, 81, 71
1, 165198, Note_off_c, 0, 69, 61
1, 165214, Note_off_c, 0, 93, 67
1, 165220, Note_on_c, 0, 91, 51
1, 165221, Note_off_c, 0, 91, 127
1, 165221, Note_off_c, 0, 81, 67
1, 165227, Note_on_c, 0, 79, 33
1, 165228, Note_off_c, 0, 79, 127
1, 165276, Note_on_c, 0, 67, 97
1, 165305, Note_off_c, 0, 67, 63
1, 165342, Note_on_c, 0, 79, 81
1, 165347, Note_on_c, 0, 91, 81
1, 165362, Note_off_c, 0, 79, 71
1, 165371, Note_off_c, 0, 91, 63
1, 165390, Note_on_c, 0, 90, 12
1, 165422, Note_on_c, 0, 70, 98
1, 165443, Note_off_c, 0, 90, 29
1, 165480, Note_on_c, 0, 94, 84
1, 165481, Note_on_c, 0, 82, 89
1, 165498, Note_off_c, 0, 82, 73
1, 165499, Note_off_c, 0, 70, 58
1, 165500, Note_off_c, 0, 94, 71
1, 165544, Note_on_c, 0, 68, 91
1, 165584, Note_off_c, 0, 68, 63
1, 165586, Note_on_c, 0, 92, 85
1, 165590, Note_on_c, 0, 80, 92
1, 165603, Note_off_c, 0, 92, 75
1, 165605, Note_off_c, 0, 80, 75
1, 165679, Note_on_c, 0, 61, 82
1, 165699, Note_off_c, 0, 61, 72
1, 165706, Note_on_c, 0, 85, 91
1, 165708, Note_on_c, 0, 73, 91
1, 165723, Note_off_c, 0, 73, 73
1, 165726, Note_off_c, 0, 85, 64
1, 165812, Control_c, 0, 64, 98
1, 165814, Note_on_c, 0, 62, 102
1, 165827, Control_c, 0, 64, 61
1, 165842, Control_c, 0, 64, 31
1, 165857, Control_c, 0, 64, 0
1, 165884, Note_on_c, 0, 86, 97
1, 165885, Note_on_c, 0, 74, 87
1, 165887, Control_c, 0, 64, 12
1, 165901, Note_off_c, 0, 74, 76
1, 165901, Control_c, 0, 64, 34
1, 165914, Note_off_c, 0, 86, 67
1, 165916, Control_c, 0, 64, 53
1, 165938, Control_c, 0, 64, 78
1, 165954, Control_c, 0, 64, 127
1, 165975, Note_on_c, 0, 71, 94
1, 166018, Note_off_c, 0, 71, 71
1, 166027, Note_on_c, 0, 95, 100
1, 166029, Note_on_c, 0, 83, 95
1, 166047, Note_off_c, 0, 83, 72
1, 166049, Note_off_c, 0, 95, 65
1, 166054, Note_off_c, 0, 62, 60
1, 166108, Note_on_c, 0, 69, 90
1, 166127, Note_off_c, 0, 69, 72
1, 166151, Note_on_c, 0, 81, 101
1, 166152, Note_on_c, 0, 93, 100
1, 166167, Note_off_c, 0, 81, 72
1, 166182, Note_off_c, 0, 93, 60
1, 166250, Note_on_c, 0, 72, 100
1, 166313, Note_on_c, 0, 96, 102
1, 166316, Note_on_c, 0, 84, 99
1, 166340, Note_off_c, 0, 84, 64
1, 166340, Note_off_c, 0, 96, 70
1, 166402, Note_on_c, 0, 70, 92
1, 166421, Note_off_c, 0, 72, 62
1, 166458, Note_on_c, 0, 94, 86
1, 166459, Note_on_c, 0, 82, 93
1, 166477, Note_on_c, 0, 95, 66
1, 166477, Note_off_c, 0, 82, 70
1, 166479, Note_off_c, 0, 94, 69
1, 166497, Note_off_c, 0, 95, 43
1, 166529, Note_off_c, 0, 70, 57
1, 166561, Note_on_c, 0, 63, 92
1, 166601, Note_off_c, 0, 63, 66
1, 166611, Note_on_c, 0, 75, 94
1, 166611, Note_on_c, 0, 87, 94
1, 166627, Note_off_c, 0, 75, 67
1, 166629, Note_off_c, 0, 87, 71
1, 166649, Note_on_c, 0, 88, 41
1, 166689, Note_off_c, 0, 88, 60
1, 166702, Note_on_c, 0, 75, 23
1, 166738, Note_off_c, 0, 75, 39
1, 166880, Control_c, 0, 64, 80
1, 166891, Note_on_c, 0, 87, 98
1, 166892, Note_on_c, 0, 84, 101
1, 166893, Note_on_c, 0, 96, 96
1, 166894, Note_on_c, 0, 91, 93
1, 166895, Control_c, 0, 64, 51
1, 166899, Note_on_c, 0, 27, 84
1, 166899, Note_on_c, 0, 39, 83
1, 166909, Note_on_c, 0, 95, 74
1, 166910, Control_c, 0, 64, 0
1, 166924, Note_off_c, 0, 27, 61
1, 166934, Note_on_c, 0, 37, 27
1, 166935, Note_off_c, 0, 37, 127
1, 166935, Note_on_c, 0, 26, 36
1, 166939, Note_off_c, 0, 39, 67
1, 166945, Note_off_c, 0, 95, 0
1, 166945, Note_on_c, 0, 95, 35
1, 166953, Note_off_c, 0, 96, 61
1, 166955, Control_c, 0, 64, 36
1, 166968, Note_off_c, 0, 84, 63
1, 166970, Control_c, 0, 64, 54
1, 166978, Note_off_c, 0, 95, 63
1, 166981, Note_off_c, 0, 26, 40
1, 166985, Control_c, 0, 64, 79
1, 167000, Control_c, 0, 64, 127
1, 167022, Note_off_c, 0, 91, 58
1, 167054, Note_off_c, 0, 87, 62
1, 167098, Note_on_c, 0, 63, 55
1, 167098, Note_on_c, 0, 82, 97
1, 167102, Note_on_c, 0, 94, 88
1, 167118, Note_off_c, 0, 82, 69
1, 167122, Note_off_c, 0, 94, 71
1, 167127, Note_off_c, 0, 63, 55
1, 167180, Note_on_c, 0, 64, 86
1, 167180, Note_on_c, 0, 67, 93
1, 167191, Note_on_c, 0, 58, 75
1, 167191, Note_on_c, 0, 61, 71
1, 167195, Note_on_c, 0, 55, 60
1, 167197, Note_off_c, 0, 67, 74
1, 167216, Note_off_c, 0, 55, 62
1, 167216, Note_off_c, 0, 64, 61
1, 167227, Note_off_c, 0, 61, 64
1, 167239, Note_off_c, 0, 58, 62
1, 167245, Note_on_c, 0, 75, 84
1, 167256, Note_on_c, 0, 86, 84
1, 167263, Note_off_c, 0, 75, 70
1, 167274, Note_off_c, 0, 86, 70
1, 167282, Note_on_c, 0, 85, 20
1, 167283, Note_off_c, 0, 85, 127
1, 167392, Note_on_c, 0, 92, 9
1, 167399, Note_off_c, 0, 92, 38
1, 167414, Control_c, 0, 64, 67
1, 167429, Note_on_c, 0, 88, 88
1, 167433, Note_on_c, 0, 85, 97
1, 167434, Note_on_c, 0, 97, 100
1, 167437, Note_on_c, 0, 40, 111
1, 167437, Control_c, 0, 64, 31
1, 167441, Note_on_c, 0, 28, 94
1, 167452, Control_c, 0, 64, 0
1, 167455, Poly_aftertouch_c, 0, 92, 127
1, 167462, Note_off_c, 0, 40, 67
1, 167467, Note_off_c, 0, 28, 63
1, 167472, Note_on_c, 0, 94, 19
1, 167478, Note_on_c, 0, 30, 18
1, 167479, Note_off_c, 0, 30, 127
1, 167481, Control_c, 0, 64, 16
1, 167496, Control_c, 0, 64, 47
1, 167511, Control_c, 0, 64, 73
1, 167513, Note_off_c, 0, 85, 60
1, 167523, Note_off_c, 0, 97, 65
1, 167526, Control_c, 0, 64, 127
1, 167528, Note_off_c, 0, 94, 47
1, 167562, Poly_aftertouch_c, 0, 92, 0
1, 167577, Note_off_c, 0, 88, 0
1, 167595, Note_on_c, 0, 88, 29
1, 167601, Note_on_c, 0, 83, 89
1, 167619, Note_off_c, 0, 83, 73
1, 167631, Note_off_c, 0, 88, 47
1, 167686, Note_on_c, 0, 66, 83
1, 167692, Note_on_c, 0, 68, 81
1, 167696, Note_on_c, 0, 58, 56
1, 167708, Note_on_c, 0, 60, 61
1, 167714, Note_off_c, 0, 68, 68
1, 167719, Note_off_c, 0, 58, 61
1, 167732, Note_off_c, 0, 66, 65
1, 167745, Note_off_c, 0, 60, 66
1, 167749, Note_on_c, 0, 76, 90
1, 167750, Note_on_c, 0, 88, 92
1, 167763, Note_off_c, 0, 76, 74
1, 167772, Note_on_c, 0, 85, 51
1, 167775, Poly_aftertouch_c, 0, 62, 127
1, 167780, Note_on_c, 0, 77, 45
1, 167780, Note_off_c, 0, 88, 65
1, 167788, Note_on_c, 0, 80, 25
1, 167797, Note_off_c, 0, 85, 36
1, 167807, Note_off_c, 0, 77, 57
1, 167810, Poly_aftertouch_c, 0, 62, 0
1, 167827, Note_off_c, 0, 80, 51
1, 167938, Note_on_c, 0, 93, 76
1, 167941, Note_on_c, 0, 86, 99
1, 167941, Note_on_c, 0, 98, 100
1, 167941, Control_c, 0, 64, 75
1, 167947, Note_on_c, 0, 89, 83
1, 167952, Note_on_c, 0, 41, 98
1, 167954, Note_on_c, 0, 90, 63
1, 167956, Control_c, 0, 64, 45
1, 167961, Note_on_c, 0, 29, 90
1, 167962, Note_on_c, 0, 40, 83
1, 167968, Note_on_c, 0, 30, 66
1, 167969, Note_off_c, 0, 30, 127
1, 167970, Note_on_c, 0, 96, 52
1, 167970, Control_c, 0, 64, 0
1, 167976, Note_off_c, 0, 41, 70
1, 167976, Note_off_c, 0, 90, 62
1, 167976, Note_on_c, 0, 94, 32
1, 167982, Note_off_c, 0, 40, 40
1, 167990, Note_off_c, 0, 29, 61
1, 168015, Control_c, 0, 64, 32
1, 168027, Note_off_c, 0, 94, 46
1, 168027, Note_off_c, 0, 98, 61
1, 168030, Control_c, 0, 64, 53
1, 168030, Note_off_c, 0, 86, 59
1, 168045, Control_c, 0, 64, 81
1, 168047, Note_off_c, 0, 93, 59
1, 168060, Control_c, 0, 64, 127
1, 168063, Note_off_c, 0, 96, 38
1, 168077, Note_off_c, 0, 89, 64
1, 168119, Note_on_c, 0, 84, 97
1, 168119, Note_on_c, 0, 93, 93
1, 168122, Note_on_c, 0, 96, 86
1, 168139, Note_off_c, 0, 96, 72
1, 168141, Note_off_c, 0, 84, 66
1, 168151, Note_on_c, 0, 92, 12
1, 168154, Note_off_c, 0, 93, 59
1, 168159, Note_off_c, 0, 92, 37
1, 168229, Note_on_c, 0, 63, 90
1, 168230, Note_on_c, 0, 69, 85
1, 168234, Note_on_c, 0, 59, 59
1, 168238, Note_on_c, 0, 57, 69
1, 168242, Note_on_c, 0, 67, 71
1, 168245, Note_on_c, 0, 65, 78
1, 168247, Note_off_c, 0, 69, 74
1, 168259, Note_on_c, 0, 60, 52
1, 168261, Note_off_c, 0, 67, 67
1, 168266, Note_off_c, 0, 57, 64
1, 168269, Note_off_c, 0, 65, 71
1, 168284, Note_off_c, 0, 63, 66
1, 168286, Note_off_c, 0, 60, 36
1, 168292, Note_off_c, 0, 59, 63
1, 168303, Note_on_c, 0, 77, 92
1, 168304, Note_on_c, 0, 89, 96
1, 168317, Note_on_c, 0, 79, 67
1, 168320, Note_off_c, 0, 77, 74
1, 168323, Note_on_c, 0, 87, 53
1, 168327, Note_off_c, 0, 89, 66
1, 168329, Poly_aftertouch_c, 0, 66, 0
1, 168332, Note_on_c, 0, 85, 41
1, 168333, Note_off_c, 0, 85, 127
1, 168337, Note_off_c, 0, 79, 44
1, 168347, Note_off_c, 0, 87, 61
1, 168438, Note_on_c, 0, 87, 38
1, 168446, Note_on_c, 0, 94, 43
1, 168469, Note_off_c, 0, 87, 54
1, 168471, Note_off_c, 0, 94, 53
1, 168513, Control_c, 0, 64, 78
1, 168515, Note_on_c, 0, 87, 101
1, 168515, Note_on_c, 0, 99, 97
1, 168516, Note_on_c, 0, 90, 81
1, 168517, Note_on_c, 0, 42, 107
1, 168519, Note_on_c, 0, 94, 98
1, 168522, Note_on_c, 0, 30, 100
1, 168527, Control_c, 0, 64, 46
1, 168542, Control_c, 0, 64, 0
1, 168543, Note_on_c, 0, 32, 52
1, 168558, Note_off_c, 0, 30, 62
1, 168580, Note_off_c, 0, 32, 33
1, 168587, Control_c, 0, 64, 20
1, 168593, Note_off_c, 0, 42, 60
1, 168601, Control_c, 0, 64, 45
1, 168616, Control_c, 0, 64, 66
1, 168626, Note_off_c, 0, 99, 63
1, 168631, Control_c, 0, 64, 127
1, 168664, Note_off_c, 0, 87, 62
1, 168695, Note_off_c, 0, 94, 63
1, 168719, Note_off_c, 0, 90, 67
1, 168760, Note_on_c, 0, 94, 95
1, 168760, Note_on_c, 0, 97, 97
1, 168760, Note_on_c, 0, 85, 103
1, 168772, Note_on_c, 0, 90, 53
1, 168793, Note_off_c, 0, 97, 61
1, 168794, Note_off_c, 0, 85, 63
1, 168796, Note_off_c, 0, 90, 67
1, 168802, Note_off_c, 0, 94, 67
1, 168844, Note_on_c, 0, 67, 79
1, 168850, Note_on_c, 0, 70, 100
1, 168856, Note_on_c, 0, 61, 84
1, 168856, Note_on_c, 0, 64, 61
1, 168894, Note_on_c, 0, 58, 13
1, 168900, Note_on_c, 0, 59, 43
1, 168927, Note_off_c, 0, 70, 61
1, 168937, Note_off_c, 0, 59, 54
1, 168951, Note_off_c, 0, 58, 48
1, 168987, Note_off_c, 0, 67, 61
1, 168996, Note_off_c, 0, 64, 59
1, 168999, Note_off_c, 0, 61, 65
1, 169030, Note_on_c, 0, 78, 94
1, 169031, Note_on_c, 0, 85, 89
1, 169032, Note_off_c, 0, 85, 127
1, 169034, Note_on_c, 0, 81, 89
1, 169036, Note_on_c, 0, 77, 84
1, 169037, Note_on_c, 0, 89, 85
1, 169038, Note_on_c, 0, 82, 70
1, 169044, Note_on_c, 0, 87, 60
1, 169045, Note_off_c, 0, 87, 127
1, 169045, Note_off_c, 0, 78, 70
1, 169057, Note_on_c, 0, 88, 47
1, 169058, Note_off_c, 0, 82, 41
1, 169059, Note_on_c, 0, 76, 37
1, 169060, Note_on_c, 0, 84, 56
1, 169067, Note_off_c, 0, 77, 50
1, 169073, Note_off_c, 0, 81, 44
1, 169080, Note_off_c, 0, 89, 56
1, 169084, Note_off_c, 0, 88, 61
1, 169087, Note_off_c, 0, 76, 60
1, 169097, Note_off_c, 0, 84, 62
1, 169434, Note_on_c, 0, 21, 120
1, 169467, Control_c, 0, 64, 62
1, 169482, Control_c, 0, 64, 26
1, 169496, Control_c, 0, 64, 0
1, 169545, Note_off_c, 0, 21, 64
1, 169556, Control_c, 0, 64, 29
1, 169571, Control_c, 0, 64, 50
1, 169586, Control_c, 0, 64, 70
1, 169601, Control_c, 0, 64, 127
1, 170078, Note_on_c, 0, 105, 94
1, 170083, Note_on_c, 0, 104, 112
1, 170096, Note_on_c, 0, 103, 78
1, 170117, Note_off_c, 0, 104, 67
1, 170145, Note_off_c, 0, 105, 67
1, 170157, Note_on_c, 0, 102, 52
1, 170164, Note_on_c, 0, 101, 68
1, 170182, Note_off_c, 0, 103, 69
1, 170206, Note_on_c, 0, 100, 78
1, 170226, Note_off_c, 0, 101, 66
1, 170230, Note_off_c, 0, 102, 66
1, 170234, Note_on_c, 0, 99, 84
1, 170240, Note_on_c, 0, 98, 80
1, 170251, Note_off_c, 0, 100, 65
1, 170272, Note_on_c, 0, 96, 83
1, 170275, Note_off_c, 0, 98, 64
1, 170276, Note_on_c, 0, 97, 86
1, 170282, Note_off_c, 0, 99, 68
1, 170298, Note_on_c, 0, 95, 85
1, 170298, Note_off_c, 0, 96, 52
1, 170301, Note_off_c, 0, 97, 68
1, 170309, Note_on_c, 0, 94, 90
1, 170317, Note_off_c, 0, 95, 71
1, 170322, Note_on_c, 0, 93, 89
1, 170334, Note_on_c, 0, 92, 92
1, 170340, Note_off_c, 0, 93, 71
1, 170342, Note_off_c, 0, 94, 69
1, 170346, Note_on_c, 0, 91, 89
1, 170358, Note_on_c, 0, 90, 93
1, 170363, Note_off_c, 0, 91, 70
1, 170367, Note_off_c, 0, 92, 69
1, 170369, Note_on_c, 0, 89, 85
1, 170385, Note_off_c, 0, 90, 68
1, 170387, Note_on_c, 0, 87, 98
1, 170388, Note_off_c, 0, 89, 73
1, 170391, Note_on_c, 0, 88, 88
1, 170405, Note_off_c, 0, 88, 72
1, 170409, Note_on_c, 0, 85, 92
1, 170421, Note_on_c, 0, 86, 81
1, 170430, Note_off_c, 0, 87, 67
1, 170438, Note_off_c, 0, 86, 68
1, 170444, Note_on_c, 0, 84, 77
1, 170445, Note_off_c, 0, 85, 69
1, 170447, Note_on_c, 0, 82, 94
1, 170459, Note_off_c, 0, 84, 67
1, 170467, Note_on_c, 0, 83, 65
1, 170474, Note_on_c, 0, 80, 87
1, 170483, Note_off_c, 0, 82, 71
1, 170483, Note_on_c, 0, 81, 77
1, 170485, Note_off_c, 0, 83, 69
1, 170497, Note_on_c, 0, 78, 94
1, 170498, Note_off_c, 0, 81, 69
1, 170506, Note_on_c, 0, 79, 74
1, 170507, Note_off_c, 0, 80, 68
1, 170524, Note_off_c, 0, 79, 67
1, 170528, Note_on_c, 0, 77, 73
1, 170528, Note_off_c, 0, 78, 69
1, 170531, Note_on_c, 0, 75, 91
1, 170543, Note_on_c, 0, 76, 75
1, 170547, Note_off_c, 0, 77, 64
1, 170559, Note_on_c, 0, 73, 87
1, 170561, Note_off_c, 0, 76, 41
1, 170564, Note_off_c, 0, 75, 68
1, 170564, Note_on_c, 0, 74, 74
1, 170579, Note_off_c, 0, 74, 70
1, 170585, Note_on_c, 0, 70, 89
1, 170587, Note_off_c, 0, 73, 70
1, 170587, Note_on_c, 0, 72, 72
1, 170604, Note_off_c, 0, 72, 66
1, 170608, Note_on_c, 0, 71, 71
1, 170614, Note_on_c, 0, 68, 84
1, 170623, Note_off_c, 0, 70, 69
1, 170623, Note_off_c, 0, 71, 71
1, 170626, Note_on_c, 0, 69, 81
1, 170638, Note_on_c, 0, 66, 85
1, 170640, Note_off_c, 0, 69, 71
1, 170647, Note_on_c, 0, 67, 78
1, 170649, Note_off_c, 0, 68, 67
1, 170665, Note_off_c, 0, 67, 70
1, 170669, Note_on_c, 0, 65, 74
1, 170671, Note_on_c, 0, 63, 90
1, 170676, Note_off_c, 0, 66, 65
1, 170690, Note_on_c, 0, 64, 79
1, 170692, Note_off_c, 0, 65, 72
1, 170700, Note_on_c, 0, 61, 81
1, 170710, Note_off_c, 0, 63, 71
1, 170711, Note_off_c, 0, 64, 70
1, 170718, Note_on_c, 0, 62, 79
1, 170737, Note_on_c, 0, 58, 82
1, 170737, Note_off_c, 0, 61, 70
1, 170742, Note_off_c, 0, 62, 65
1, 170749, Note_on_c, 0, 60, 74
1, 170768, Note_on_c, 0, 56, 75
1, 170771, Note_off_c, 0, 60, 69
1, 170778, Note_off_c, 0, 58, 67
1, 170783, Note_on_c, 0, 59, 71
1, 170799, Note_on_c, 0, 54, 79
1, 170805, Note_off_c, 0, 59, 66
1, 170811, Note_off_c, 0, 56, 67
1, 170811, Note_on_c, 0, 57, 73
1, 170835, Note_off_c, 0, 57, 66
1, 170841, Note_on_c, 0, 55, 76
1, 170843, Note_off_c, 0, 54, 66
1, 170844, Note_on_c, 0, 51, 78
1, 170865, Note_off_c, 0, 55, 70
1, 170867, Note_on_c, 0, 53, 75
1, 170886, Note_on_c, 0, 49, 67
1, 170892, Note_off_c, 0, 53, 68
1, 170896, Note_on_c, 0, 52, 77
1, 170903, Note_off_c, 0, 51, 67
1, 170918, Note_off_c, 0, 52, 71
1, 170924, Note_on_c, 0, 50, 75
1, 170942, Note_off_c, 0, 49, 67
1, 170948, Note_on_c, 0, 46, 76
1, 170951, Note_off_c, 0, 50, 54
1, 170962, Note_on_c, 0, 48, 72
1, 170995, Note_off_c, 0, 48, 63
1, 170999, Note_on_c, 0, 47, 73
1, 171004, Note_on_c, 0, 44, 61
1, 171011, Note_off_c, 0, 46, 66
1, 171047, Note_off_c, 0, 47, 53
1, 171050, Note_on_c, 0, 45, 68
1, 171055, Note_off_c, 0, 44, 60
1, 171062, Note_on_c, 0, 42, 53
1, 171091, Note_off_c, 0, 45, 57
1, 171097, Note_off_c, 0, 42, 61
1, 172077, Control_c, 0, 64, 119
1, 172092, Control_c, 0, 64, 101
1, 172107, Control_c, 0, 64, 89
1, 172122, Control_c, 0, 64, 83
1, 172136, Control_c, 0, 64, 76
1, 172151, Control_c, 0, 64, 70
1, 172166, Control_c, 0, 64, 68
1, 172269, Control_c, 0, 64, 67
1, 172284, Control_c, 0, 64, 66
1, 172299, Control_c, 0, 64, 65
1, 172314, Control_c, 0, 64, 66
1, 172329, Control_c, 0, 64, 68
1, 172345, Control_c, 0, 64, 69
1, 172389, Control_c, 0, 64, 68
1, 172404, Control_c, 0, 64, 65
1, 172418, Control_c, 0, 64, 62
1, 172448, Control_c, 0, 64, 64
1, 172463, Control_c, 0, 64, 66
1, 172478, Control_c, 0, 64, 67
1, 172522, Control_c, 0, 64, 67
1, 172537, Control_c, 0, 64, 65
1, 172552, Control_c, 0, 64, 63
1, 172567, Control_c, 0, 64, 61
1, 172582, Control_c, 0, 64, 61
1, 172597, Control_c, 0, 64, 63
1, 172611, Control_c, 0, 64, 65
1, 172626, Control_c, 0, 64, 66
1, 172641, Control_c, 0, 64, 67
1, 172678, Control_c, 0, 64, 66
1, 172692, Control_c, 0, 64, 66
1, 172707, Control_c, 0, 64, 64
1, 172722, Control_c, 0, 64, 62
1, 172737, Control_c, 0, 64, 61
1, 172752, Control_c, 0, 64, 62
1, 172767, Control_c, 0, 64, 63
1, 172781, Control_c, 0, 64, 64
1, 172856, Control_c, 0, 64, 63
1, 172871, Control_c, 0, 64, 61
1, 172886, Control_c, 0, 64, 60
1, 172915, Control_c, 0, 64, 62
1, 172930, Control_c, 0, 64, 67
1, 172945, Control_c, 0, 64, 74
1, 172960, Control_c, 0, 64, 76
1, 172989, Control_c, 0, 64, 76
1, 173004, Control_c, 0, 64, 75
1, 173018, Control_c, 0, 64, 73
1, 173033, Control_c, 0, 64, 70
1, 173048, Control_c, 0, 64, 67
1, 173063, Control_c, 0, 64, 66
1, 173078, Control_c, 0, 64, 66
1, 173092, Control_c, 0, 64, 67
1, 173107, Control_c, 0, 64, 67
1, 173153, Control_c, 0, 64, 67
1, 173168, Control_c, 0, 64, 66
1, 173183, Control_c, 0, 64, 64
1, 173197, Control_c, 0, 64, 61
1, 173212, Control_c, 0, 64, 58
1, 173227, Control_c, 0, 64, 58
1, 173241, Control_c, 0, 64, 61
1, 173256, Control_c, 0, 64, 64
1, 173271, Control_c, 0, 64, 66
1, 173286, Control_c, 0, 64, 67
1, 173315, Control_c, 0, 64, 66
1, 173330, Control_c, 0, 64, 65
1, 173345, Control_c, 0, 64, 64
1, 173360, Control_c, 0, 64, 63
1, 173390, Control_c, 0, 64, 62
1, 173404, Control_c, 0, 64, 62
1, 173441, Control_c, 0, 64, 62
1, 173486, Control_c, 0, 64, 62
1, 173515, Control_c, 0, 64, 61
1, 173530, Control_c, 0, 64, 60
1, 173560, Control_c, 0, 64, 61
1, 173574, Control_c, 0, 64, 61
1, 173604, Control_c, 0, 64, 61
1, 173619, Control_c, 0, 64, 60
1, 173649, Control_c, 0, 64, 58
1, 173664, Control_c, 0, 64, 54
1, 173679, Control_c, 0, 64, 50
1, 173694, Control_c, 0, 64, 50
1, 173709, Control_c, 0, 64, 53
1, 173723, Control_c, 0, 64, 56
1, 173738, Control_c, 0, 64, 60
1, 173753, Control_c, 0, 64, 62
1, 173767, Control_c, 0, 64, 62
1, 173841, Control_c, 0, 64, 63
1, 173915, Control_c, 0, 64, 64
1, 173961, Control_c, 0, 64, 63
1, 173976, Control_c, 0, 64, 62
1, 173991, Control_c, 0, 64, 60
1, 174006, Control_c, 0, 64, 57
1, 174020, Control_c, 0, 64, 51
1, 174035, Control_c, 0, 64, 50
1, 174050, Control_c, 0, 64, 52
1, 174064, Control_c, 0, 64, 55
1, 174079, Control_c, 0, 64, 58
1, 174094, Control_c, 0, 64, 60
1, 174138, Control_c, 0, 64, 60
1, 174153, Control_c, 0, 64, 61
1, 174235, Control_c, 0, 64, 61
1, 174250, Control_c, 0, 64, 62
1, 174264, Control_c, 0, 64, 64
1, 174279, Control_c, 0, 64, 65
1, 174294, Control_c, 0, 64, 65
1, 174324, Control_c, 0, 64, 66
1, 174383, Control_c, 0, 64, 65
1, 174397, Control_c, 0, 64, 64
1, 174412, Control_c, 0, 64, 63
1, 174427, Control_c, 0, 64, 61
1, 174442, Control_c, 0, 64, 58
1, 174457, Control_c, 0, 64, 55
1, 174472, Control_c, 0, 64, 55
1, 174487, Control_c, 0, 64, 59
1, 174501, Control_c, 0, 64, 62
1, 174516, Control_c, 0, 64, 64
1, 174531, Control_c, 0, 64, 65
1, 174590, Control_c, 0, 64, 65
1, 174664, Control_c, 0, 64, 66
1, 174679, Control_c, 0, 64, 67
1, 174694, Control_c, 0, 64, 69
1, 174895, Note_on_c, 0, 53, 35
1, 174964, Note_off_c, 0, 53, 55
1, 174967, Note_on_c, 0, 55, 50
1, 175018, Note_off_c, 0, 55, 58
1, 175029, Note_on_c, 0, 57, 48
1, 175070, Note_off_c, 0, 57, 61
1, 175086, Note_on_c, 0, 58, 47
1, 175140, Note_off_c, 0, 58, 56
1, 175153, Note_on_c, 0, 56, 51
1, 175202, Note_off_c, 0, 56, 62
1, 175235, Control_c, 0, 64, 68
1, 175249, Note_on_c, 0, 54, 40
1, 175250, Control_c, 0, 64, 67
1, 175265, Control_c, 0, 64, 64
1, 175280, Control_c, 0, 64, 61
1, 175294, Control_c, 0, 64, 58
1, 175297, Note_off_c, 0, 54, 49
1, 175309, Control_c, 0, 64, 57
1, 175323, Note_on_c, 0, 50, 24
1, 175324, Control_c, 0, 64, 60
1, 175339, Control_c, 0, 64, 64
1, 175354, Control_c, 0, 64, 68
1, 175363, Note_off_c, 0, 50, 52
1, 175369, Control_c, 0, 64, 70
1, 175399, Control_c, 0, 64, 69
1, 175413, Control_c, 0, 64, 68
1, 175428, Control_c, 0, 64, 66
1, 175443, Control_c, 0, 64, 65
1, 175563, Control_c, 0, 64, 64
1, 175578, Control_c, 0, 64, 62
1, 175592, Control_c, 0, 64, 59
1, 175607, Control_c, 0, 64, 56
1, 175622, Control_c, 0, 64, 55
1, 175651, Control_c, 0, 64, 56
1, 175673, Control_c, 0, 64, 57
1, 175688, Control_c, 0, 64, 59
1, 175703, Control_c, 0, 64, 60
1, 175747, Control_c, 0, 64, 59
1, 175762, Control_c, 0, 64, 57
1, 175777, Control_c, 0, 64, 56
1, 175792, Control_c, 0, 64, 57
1, 175807, Control_c, 0, 64, 61
1, 175822, Control_c, 0, 64, 64
1, 175837, Control_c, 0, 64, 67
1, 175866, Control_c, 0, 64, 66
1, 175881, Control_c, 0, 64, 64
1, 175896, Control_c, 0, 64, 61
1, 175910, Control_c, 0, 64, 57
1, 175925, Control_c, 0, 64, 51
1, 175940, Control_c, 0, 64, 49
1, 175955, Control_c, 0, 64, 52
1, 175969, Control_c, 0, 64, 56
1, 175984, Control_c, 0, 64, 61
1, 175999, Control_c, 0, 64, 63
1, 176029, Control_c, 0, 64, 62
1, 176103, Control_c, 0, 64, 62
1, 176132, Control_c, 0, 64, 60
1, 176147, Control_c, 0, 64, 58
1, 176162, Control_c, 0, 64, 55
1, 176177, Control_c, 0, 64, 55
1, 176192, Control_c, 0, 64, 56
1, 176207, Control_c, 0, 64, 57
1, 176221, Control_c, 0, 64, 59
1, 176236, Control_c, 0, 64, 60
1, 176251, Control_c, 0, 64, 61
1, 176266, Control_c, 0, 64, 60
1, 176281, Control_c, 0, 64, 59
1, 176296, Control_c, 0, 64, 58
1, 176310, Control_c, 0, 64, 58
1, 176325, Control_c, 0, 64, 58
1, 176370, Control_c, 0, 64, 58
1, 176400, Control_c, 0, 64, 57
1, 176422, Control_c, 0, 64, 55
1, 176437, Control_c, 0, 64, 52
1, 176452, Control_c, 0, 64, 51
1, 176466, Control_c, 0, 64, 52
1, 176481, Control_c, 0, 64, 53
1, 176496, Control_c, 0, 64, 55
1, 176511, Control_c, 0, 64, 58
1, 176526, Control_c, 0, 64, 60
1, 176540, Control_c, 0, 64, 60
1, 176570, Control_c, 0, 64, 59
1, 176585, Control_c, 0, 64, 59
1, 176615, Control_c, 0, 64, 58
1, 176630, Control_c, 0, 64, 58
1, 176645, Control_c, 0, 64, 57
1, 176674, Control_c, 0, 64, 58
1, 176689, Control_c, 0, 64, 58
1, 176704, Control_c, 0, 64, 59
1, 176748, Control_c, 0, 64, 58
1, 176778, Control_c, 0, 64, 57
1, 176792, Control_c, 0, 64, 56
1, 176807, Control_c, 0, 64, 54
1, 176822, Control_c, 0, 64, 52
1, 176837, Control_c, 0, 64, 51
1, 176852, Control_c, 0, 64, 52
1, 176866, Control_c, 0, 64, 53
1, 176881, Control_c, 0, 64, 55
1, 176896, Control_c, 0, 64, 57
1, 176911, Control_c, 0, 64, 59
1, 176926, Control_c, 0, 64, 59
1, 176940, Control_c, 0, 64, 58
1, 176955, Control_c, 0, 64, 57
1, 176970, Control_c, 0, 64, 57
1, 176999, Control_c, 0, 64, 57
1, 177029, Control_c, 0, 64, 58
1, 177044, Control_c, 0, 64, 59
1, 177059, Control_c, 0, 64, 61
1, 177074, Control_c, 0, 64, 62
1, 177089, Control_c, 0, 64, 63
1, 177104, Control_c, 0, 64, 64
1, 177119, Control_c, 0, 64, 65
1, 177186, Control_c, 0, 64, 66
1, 177201, Control_c, 0, 64, 66
1, 177215, Control_c, 0, 64, 67
1, 177230, Control_c, 0, 64, 68
1, 177245, Control_c, 0, 64, 69
1, 177304, Control_c, 0, 64, 69
1, 177393, Control_c, 0, 64, 70
1, 177408, Control_c, 0, 64, 70
1, 177423, Control_c, 0, 64, 71
1, 177453, Control_c, 0, 64, 71
1, 177497, Control_c, 0, 64, 71
1, 177512, Control_c, 0, 64, 69
1, 177512, Note_on_c, 0, 53, 18
1, 177527, Control_c, 0, 64, 66
1, 177542, Control_c, 0, 64, 64
1, 177556, Control_c, 0, 64, 62
1, 177566, Note_on_c, 0, 55, 45
1, 177571, Control_c, 0, 64, 62
1, 177586, Control_c, 0, 64, 63
1, 177587, Note_off_c, 0, 53, 39
1, 177601, Control_c, 0, 64, 65
1, 177615, Control_c, 0, 64, 66
1, 177643, Note_on_c, 0, 57, 42
1, 177655, Note_off_c, 0, 55, 47
1, 177674, Control_c, 0, 64, 66
1, 177684, Note_off_c, 0, 57, 62
1, 177700, Note_on_c, 0, 58, 37
1, 177757, Note_on_c, 0, 56, 41
1, 177766, Note_off_c, 0, 58, 39
1, 177796, Note_off_c, 0, 56, 57
1, 177862, Note_on_c, 0, 54, 31
1, 177946, Note_off_c, 0, 54, 40
1, 177956, Note_on_c, 0, 50, 22
1, 178000, Note_off_c, 0, 50, 51
1, 178098, Control_c, 0, 64, 66
1, 178112, Control_c, 0, 64, 65
1, 178127, Control_c, 0, 64, 63
1, 178142, Control_c, 0, 64, 61
1, 178156, Control_c, 0, 64, 59
1, 178171, Control_c, 0, 64, 58
1, 178186, Control_c, 0, 64, 58
1, 178201, Control_c, 0, 64, 60
1, 178216, Control_c, 0, 64, 63
1, 178231, Control_c, 0, 64, 66
1, 178245, Control_c, 0, 64, 66
1, 178260, Control_c, 0, 64, 66
1, 178275, Control_c, 0, 64, 65
1, 178290, Control_c, 0, 64, 64
1, 178305, Control_c, 0, 64, 62
1, 178320, Control_c, 0, 64, 59
1, 178320, Control_c, 0, 67, 10
1, 178335, Control_c, 0, 64, 58
1, 178335, Control_c, 0, 67, 14
1, 178350, Control_c, 0, 64, 59
1, 178350, Control_c, 0, 67, 20
1, 178364, Control_c, 0, 64, 60
1, 178364, Control_c, 0, 67, 28
1, 178379, Control_c, 0, 64, 61
1, 178379, Control_c, 0, 67, 38
1, 178394, Control_c, 0, 67, 49
1, 178409, Control_c, 0, 67, 61
1, 178424, Control_c, 0, 64, 60
1, 178424, Control_c, 0, 67, 73
1, 178438, Control_c, 0, 64, 60
1, 178438, Control_c, 0, 67, 84
1, 178453, Control_c, 0, 64, 59
1, 178453, Control_c, 0, 67, 95
1, 178468, Control_c, 0, 64, 58
1, 178468, Control_c, 0, 67, 104
1, 178483, Control_c, 0, 64, 57
1, 178483, Control_c, 0, 67, 113
1, 178498, Control_c, 0, 64, 56
1, 178498, Control_c, 0, 67, 123
1, 178512, Control_c, 0, 67, 127
1, 178571, Control_c, 0, 64, 55
1, 178586, Control_c, 0, 64, 55
1, 178616, Control_c, 0, 64, 56
1, 178630, Control_c, 0, 64, 57
1, 178645, Control_c, 0, 64, 59
1, 178668, Control_c, 0, 64, 60
1, 178698, Control_c, 0, 64, 60
1, 178727, Control_c, 0, 64, 60
1, 178743, Control_c, 0, 64, 61
1, 178758, Control_c, 0, 64, 61
1, 178773, Control_c, 0, 64, 62
1, 178787, Control_c, 0, 64, 61
1, 178802, Control_c, 0, 64, 61
1, 178817, Control_c, 0, 64, 60
1, 178832, Control_c, 0, 64, 58
1, 178847, Control_c, 0, 64, 56
1, 178861, Control_c, 0, 64, 53
1, 178876, Control_c, 0, 64, 51
1, 178906, Control_c, 0, 64, 52
1, 178921, Control_c, 0, 64, 54
1, 178935, Control_c, 0, 64, 56
1, 178950, Control_c, 0, 64, 57
1, 178979, Control_c, 0, 64, 58
1, 178994, Control_c, 0, 64, 57
1, 179009, Control_c, 0, 64, 57
1, 179024, Control_c, 0, 64, 56
1, 179039, Control_c, 0, 64, 56
1, 179053, Control_c, 0, 64, 55
1, 179068, Control_c, 0, 64, 54
1, 179083, Control_c, 0, 64, 54
1, 179113, Control_c, 0, 64, 54
1, 179187, Control_c, 0, 64, 53
1, 179202, Control_c, 0, 64, 52
1, 179232, Control_c, 0, 64, 53
1, 179247, Control_c, 0, 64, 54
1, 179261, Control_c, 0, 64, 54
1, 179276, Control_c, 0, 64, 55
1, 179306, Control_c, 0, 64, 54
1, 179321, Control_c, 0, 64, 54
1, 179335, Control_c, 0, 64, 53
1, 179350, Control_c, 0, 64, 53
1, 179379, Control_c, 0, 64, 52
1, 179394, Control_c, 0, 64, 52
1, 179447, Control_c, 0, 64, 51
1, 179461, Control_c, 0, 64, 51
1, 179491, Control_c, 0, 64, 52
1, 179505, Control_c, 0, 64, 53
1, 179520, Control_c, 0, 64, 55
1, 179536, Control_c, 0, 64, 56
1, 179625, Control_c, 0, 64, 55
1, 179655, Control_c, 0, 64, 55
1, 179670, Control_c, 0, 64, 54
1, 179684, Control_c, 0, 64, 53
1, 179699, Control_c, 0, 64, 51
1, 179714, Control_c, 0, 64, 50
1, 179906, Control_c, 0, 64, 51
1, 179921, Control_c, 0, 64, 52
1, 179936, Control_c, 0, 64, 53
1, 179951, Control_c, 0, 64, 55
1, 179965, Control_c, 0, 64, 56
1, 179980, Control_c, 0, 64, 56
1, 179995, Control_c, 0, 64, 57
1, 180010, Control_c, 0, 64, 58
1, 180025, Control_c, 0, 64, 59
1, 180040, Control_c, 0, 64, 60
1, 180055, Control_c, 0, 64, 60
1, 180085, Control_c, 0, 64, 61
1, 180100, Control_c, 0, 64, 61
1, 180114, Control_c, 0, 64, 62
1, 180144, Control_c, 0, 64, 62
1, 180210, Control_c, 0, 64, 63
1, 180240, Control_c, 0, 64, 63
1, 180255, Control_c, 0, 64, 64
1, 180270, Control_c, 0, 64, 64
1, 180299, Control_c, 0, 64, 65
1, 180345, Control_c, 0, 64, 65
1, 180389, Control_c, 0, 64, 66
1, 180496, Note_on_c, 0, 41, 13
1, 180596, Note_on_c, 0, 43, 25
1, 180597, Control_c, 0, 64, 66
1, 180641, Control_c, 0, 64, 67
1, 180656, Control_c, 0, 64, 67
1, 180666, Note_on_c, 0, 45, 38
1, 180686, Control_c, 0, 64, 68
1, 180687, Note_off_c, 0, 41, 37
1, 180700, Control_c, 0, 64, 68
1, 180715, Control_c, 0, 64, 69
1, 180730, Control_c, 0, 64, 69
1, 180745, Control_c, 0, 64, 70
1, 180749, Note_on_c, 0, 46, 33
1, 180759, Control_c, 0, 64, 70
1, 180764, Note_off_c, 0, 43, 43
1, 180776, Note_off_c, 0, 45, 51
1, 180829, Note_on_c, 0, 44, 36
1, 180886, Note_off_c, 0, 44, 51
1, 180887, Note_off_c, 0, 46, 36
1, 180945, Note_on_c, 0, 42, 31
1, 181059, Note_on_c, 0, 38, 28
1, 181069, Note_off_c, 0, 42, 35
1, 181077, Control_c, 0, 64, 70
1, 181182, Control_c, 0, 64, 69
1, 181185, Note_off_c, 0, 38, 39
1, 181197, Control_c, 0, 64, 69
1, 181211, Control_c, 0, 64, 67
1, 181226, Control_c, 0, 64, 65
1, 181241, Control_c, 0, 64, 62
1, 181256, Control_c, 0, 64, 59
1, 181271, Control_c, 0, 64, 57
1, 181286, Control_c, 0, 64, 56
1, 181316, Control_c, 0, 64, 57
1, 181330, Control_c, 0, 64, 57
1, 181345, Control_c, 0, 64, 58
1, 181360, Control_c, 0, 64, 59
1, 181493, Control_c, 0, 64, 58
1, 181508, Control_c, 0, 64, 57
1, 181523, Control_c, 0, 64, 57
1, 181641, Control_c, 0, 64, 56
1, 181663, Control_c, 0, 64, 55
1, 181707, Control_c, 0, 64, 56
1, 181722, Control_c, 0, 64, 57
1, 181737, Control_c, 0, 64, 57
1, 181796, Control_c, 0, 64, 57
1, 181811, Control_c, 0, 64, 56
1, 181826, Control_c, 0, 64, 55
1, 181841, Control_c, 0, 64, 52
1, 181855, Control_c, 0, 64, 49
1, 181900, Control_c, 0, 64, 50
1, 181915, Control_c, 0, 64, 51
1, 181931, Control_c, 0, 64, 51
1, 181946, Control_c, 0, 64, 52
1, 182049, Control_c, 0, 64, 51
1, 182064, Control_c, 0, 64, 50
1, 182109, Control_c, 0, 64, 52
1, 182124, Control_c, 0, 64, 53
1, 182168, Control_c, 0, 64, 52
1, 182183, Control_c, 0, 64, 52
1, 182197, Control_c, 0, 64, 51
1, 182212, Control_c, 0, 64, 49
1, 182227, Control_c, 0, 64, 46
1, 182242, Control_c, 0, 64, 46
1, 182285, Control_c, 0, 64, 47
1, 182314, Control_c, 0, 64, 47
1, 182344, Control_c, 0, 64, 47
1, 182471, Control_c, 0, 64, 46
1, 182485, Control_c, 0, 64, 46
1, 182618, Control_c, 0, 64, 47
1, 182633, Control_c, 0, 64, 48
1, 182693, Control_c, 0, 64, 47
1, 182723, Control_c, 0, 64, 46
1, 182738, Control_c, 0, 64, 45
1, 182753, Control_c, 0, 64, 42
1, 182767, Control_c, 0, 64, 40
1, 182812, Control_c, 0, 64, 41
1, 182827, Control_c, 0, 64, 41
1, 182842, Control_c, 0, 64, 42
1, 182857, Control_c, 0, 64, 43
1, 182872, Control_c, 0, 64, 44
1, 182887, Control_c, 0, 64, 45
1, 182901, Control_c, 0, 64, 46
1, 182960, Control_c, 0, 64, 45
1, 182975, Control_c, 0, 64, 44
1, 182990, Control_c, 0, 64, 43
1, 183005, Control_c, 0, 64, 42
1, 183019, Control_c, 0, 64, 42
1, 183034, Control_c, 0, 64, 41
1, 183079, Control_c, 0, 64, 42
1, 183093, Control_c, 0, 64, 42
1, 183108, Control_c, 0, 64, 43
1, 183138, Control_c, 0, 64, 44
1, 183175, Control_c, 0, 64, 45
1, 183190, Control_c, 0, 64, 46
1, 183205, Control_c, 0, 64, 47
1, 183220, Control_c, 0, 64, 49
1, 183234, Control_c, 0, 64, 50
1, 183249, Control_c, 0, 64, 52
1, 183264, Control_c, 0, 64, 53
1, 183279, Control_c, 0, 64, 53
1, 183293, Control_c, 0, 64, 54
1, 183308, Control_c, 0, 64, 55
1, 183323, Control_c, 0, 64, 56
1, 183338, Control_c, 0, 64, 56
1, 183397, Control_c, 0, 64, 55
1, 183412, Control_c, 0, 64, 54
1, 183426, Control_c, 0, 64, 53
1, 183441, Control_c, 0, 64, 51
1, 183456, Control_c, 0, 64, 49
1, 183471, Control_c, 0, 64, 46
1, 183486, Control_c, 0, 64, 46
1, 183590, Control_c, 0, 64, 45
1, 183605, Control_c, 0, 64, 45
1, 183620, Control_c, 0, 64, 44
1, 183635, Control_c, 0, 64, 43
1, 183650, Control_c, 0, 64, 42
1, 183665, Control_c, 0, 64, 42
1, 183676, Note_on_c, 0, 35, 27
1, 183680, Control_c, 0, 64, 41
1, 183695, Control_c, 0, 64, 41
1, 183709, Control_c, 0, 64, 40
1, 183724, Control_c, 0, 64, 40
1, 183739, Control_c, 0, 64, 39
1, 183768, Control_c, 0, 64, 40
1, 183783, Control_c, 0, 64, 41
1, 183798, Control_c, 0, 64, 43
1, 183813, Control_c, 0, 64, 47
1, 183828, Control_c, 0, 64, 51
1, 183842, Control_c, 0, 64, 56
1, 183857, Control_c, 0, 64, 59
1, 183872, Control_c, 0, 64, 60
1, 183887, Control_c, 0, 64, 61
1, 183909, Control_c, 0, 64, 62
1, 183924, Control_c, 0, 64, 63
1, 183939, Control_c, 0, 64, 63
1, 183954, Note_off_c, 0, 35, 38
1, 183969, Control_c, 0, 64, 63
1, 184101, Control_c, 0, 64, 62
1, 184175, Control_c, 0, 64, 62
1, 184180, Note_on_c, 0, 34, 44
1, 184205, Control_c, 0, 64, 61
1, 184220, Control_c, 0, 64, 60
1, 184235, Control_c, 0, 64, 59
1, 184249, Control_c, 0, 64, 56
1, 184264, Control_c, 0, 64, 51
1, 184279, Control_c, 0, 64, 47
1, 184294, Control_c, 0, 64, 45
1, 184309, Control_c, 0, 64, 47
1, 184325, Control_c, 0, 64, 51
1, 184340, Control_c, 0, 64, 57
1, 184354, Control_c, 0, 64, 61
1, 184369, Control_c, 0, 64, 63
1, 184384, Control_c, 0, 64, 64
1, 184398, Control_c, 0, 64, 64
1, 184502, Note_off_c, 0, 34, 36
1, 184562, Control_c, 0, 64, 64
1, 184565, Note_on_c, 0, 33, 42
1, 184591, Control_c, 0, 64, 63
1, 184606, Control_c, 0, 64, 62
1, 184621, Control_c, 0, 64, 61
1, 184636, Control_c, 0, 64, 58
1, 184658, Control_c, 0, 64, 53
1, 184672, Control_c, 0, 64, 49
1, 184687, Control_c, 0, 64, 47
1, 184717, Control_c, 0, 64, 49
1, 184732, Control_c, 0, 64, 52
1, 184747, Control_c, 0, 64, 55
1, 184762, Control_c, 0, 64, 59
1, 184777, Control_c, 0, 64, 62
1, 184792, Control_c, 0, 64, 64
1, 184806, Control_c, 0, 64, 65
1, 184821, Control_c, 0, 64, 65
1, 184907, Note_off_c, 0, 33, 42
1, 185192, Control_c, 0, 64, 65
1, 185230, Note_on_c, 0, 32, 40
1, 185310, Control_c, 0, 64, 64
1, 185355, Control_c, 0, 64, 64
1, 185370, Control_c, 0, 64, 63
1, 185385, Control_c, 0, 64, 62
1, 185407, Control_c, 0, 64, 58
1, 185421, Control_c, 0, 64, 54
1, 185436, Control_c, 0, 64, 49
1, 185451, Control_c, 0, 64, 47
1, 185481, Control_c, 0, 64, 47
1, 185491, Note_on_c, 0, 25, 34
1, 185495, Control_c, 0, 64, 49
1, 185510, Control_c, 0, 64, 52
1, 185516, Note_off_c, 0, 32, 36
1, 185525, Control_c, 0, 64, 54
1, 185540, Control_c, 0, 64, 57
1, 185555, Control_c, 0, 64, 60
1, 185570, Control_c, 0, 64, 62
1, 185584, Control_c, 0, 64, 63
1, 185599, Control_c, 0, 64, 64
1, 185629, Control_c, 0, 64, 64
1, 185631, Note_off_c, 0, 25, 36
1, 185636, Note_on_c, 0, 32, 35
1, 185644, Control_c, 0, 64, 65
1, 185673, Control_c, 0, 64, 65
1, 185733, Control_c, 0, 64, 66
1, 185752, Note_off_c, 0, 32, 36
1, 185762, Control_c, 0, 64, 66
1, 185767, Note_on_c, 0, 25, 35
1, 185792, Control_c, 0, 64, 67
1, 185807, Control_c, 0, 64, 67
1, 185813, Note_off_c, 0, 25, 52
1, 185821, Control_c, 0, 64, 68
1, 185836, Control_c, 0, 64, 68
1, 185851, Control_c, 0, 64, 69
1, 185856, Note_on_c, 0, 32, 33
1, 185865, Control_c, 0, 64, 69
1, 185880, Control_c, 0, 64, 70
1, 185895, Control_c, 0, 64, 70
1, 185910, Control_c, 0, 64, 71
1, 185912, Note_off_c, 0, 32, 52
1, 185941, Control_c, 0, 64, 71
1, 185960, Note_on_c, 0, 25, 10
1, 186013, Note_off_c, 0, 25, 35
1, 186044, Note_on_c, 0, 32, 15
1, 186091, Note_off_c, 0, 32, 47
1, 186170, Control_c, 0, 64, 72
1, 186215, Control_c, 0, 64, 72
1, 186218, Note_on_c, 0, 32, 36
1, 186268, Note_off_c, 0, 32, 47
1, 186303, Control_c, 0, 64, 73
1, 186333, Control_c, 0, 64, 73
1, 186363, Control_c, 0, 64, 74
1, 186385, Poly_aftertouch_c, 0, 25, 0
1, 186392, Control_c, 0, 64, 74
1, 186407, Control_c, 0, 64, 75
1, 186422, Control_c, 0, 64, 75
1, 186434, Poly_aftertouch_c, 0, 32, 127
1, 186437, Control_c, 0, 64, 76
1, 186452, Control_c, 0, 64, 77
1, 186467, Control_c, 0, 64, 78
1, 186482, Control_c, 0, 64, 78
1, 186490, Poly_aftertouch_c, 0, 32, 0
1, 186526, Control_c, 0, 64, 79
1, 186541, Control_c, 0, 64, 79
1, 186556, Note_on_c, 0, 32, 6
1, 186556, Control_c, 0, 64, 80
1, 186570, Control_c, 0, 64, 81
1, 186600, Control_c, 0, 64, 81
1, 186604, Note_off_c, 0, 32, 47
1, 186630, Control_c, 0, 64, 82
1, 186631, Note_on_c, 0, 25, 28
1, 186644, Control_c, 0, 64, 82
1, 186659, Control_c, 0, 64, 83
1, 186672, Note_off_c, 0, 25, 45
1, 186716, Note_on_c, 0, 32, 25
1, 186719, Control_c, 0, 64, 83
1, 186749, Control_c, 0, 64, 84
1, 186757, Note_off_c, 0, 32, 46
1, 186790, Note_on_c, 0, 25, 26
1, 186831, Note_off_c, 0, 25, 37
1, 186867, Control_c, 0, 64, 84
1, 186905, Control_c, 0, 64, 85
1, 186905, Poly_aftertouch_c, 0, 32, 127
1, 186934, Control_c, 0, 64, 85
1, 186974, Poly_aftertouch_c, 0, 32, 0
1, 187010, Poly_aftertouch_c, 0, 32, 127
1, 187060, Note_on_c, 0, 25, 5
1, 187069, Poly_aftertouch_c, 0, 32, 0
1, 187100, Note_off_c, 0, 25, 55
1, 187130, Note_on_c, 0, 32, 27
1, 187171, Control_c, 0, 64, 86
1, 187180, Note_off_c, 0, 32, 47
1, 187218, Note_on_c, 0, 25, 17
1, 187303, Poly_aftertouch_c, 0, 32, 127
1, 187304, Note_off_c, 0, 25, 0
1, 187320, Note_on_c, 0, 25, 19
1, 187359, Poly_aftertouch_c, 0, 32, 0
1, 187364, Note_off_c, 0, 25, 44
1, 187396, Poly_aftertouch_c, 0, 32, 127
1, 187438, Control_c, 0, 64, 86
1, 187459, Poly_aftertouch_c, 0, 32, 0
1, 187544, Note_on_c, 0, 35, 33
1, 187575, Poly_aftertouch_c, 0, 32, 127
1, 187620, Poly_aftertouch_c, 0, 32, 0
1, 187655, Note_on_c, 0, 34, 45
1, 187713, Note_off_c, 0, 35, 37
1, 187753, Note_on_c, 0, 33, 48
1, 187755, Note_off_c, 0, 34, 50
1, 187782, Poly_aftertouch_c, 0, 32, 0
1, 187844, Note_off_c, 0, 33, 54
1, 187886, Note_on_c, 0, 32, 29
1, 187933, Note_off_c, 0, 32, 47
1, 187951, Note_on_c, 0, 25, 10
1, 187994, Control_c, 0, 64, 86
1, 187995, Note_off_c, 0, 25, 53
1, 188027, Note_on_c, 0, 32, 43
1, 188038, Control_c, 0, 64, 85
1, 188053, Control_c, 0, 64, 85
1, 188068, Control_c, 0, 64, 84
1, 188076, Note_off_c, 0, 32, 56
1, 188082, Control_c, 0, 64, 83
1, 188121, Note_on_c, 0, 25, 28
1, 188127, Control_c, 0, 64, 83
1, 188165, Note_off_c, 0, 25, 38
1, 188187, Control_c, 0, 64, 82
1, 188190, Note_on_c, 0, 32, 31
1, 188202, Control_c, 0, 64, 82
1, 188216, Control_c, 0, 64, 81
1, 188240, Note_off_c, 0, 32, 46
1, 188246, Control_c, 0, 64, 81
1, 188261, Control_c, 0, 64, 80
1, 188321, Control_c, 0, 64, 80
1, 188341, Note_on_c, 0, 32, 25
1, 188365, Control_c, 0, 64, 79
1, 188394, Note_off_c, 0, 32, 45
1, 188432, Control_c, 0, 64, 79
1, 188446, Control_c, 0, 64, 78
1, 188461, Control_c, 0, 64, 77
1, 188476, Control_c, 0, 64, 76
1, 188485, Poly_aftertouch_c, 0, 25, 0
1, 188491, Control_c, 0, 64, 74
1, 188506, Control_c, 0, 64, 71
1, 188509, Note_on_c, 0, 32, 20
1, 188521, Control_c, 0, 64, 68
1, 188536, Control_c, 0, 64, 65
1, 188550, Control_c, 0, 64, 61
1, 188551, Note_off_c, 0, 32, 48
1, 188565, Control_c, 0, 64, 58
1, 188595, Control_c, 0, 64, 59
1, 188610, Control_c, 0, 64, 60
1, 188625, Control_c, 0, 64, 62
1, 188639, Control_c, 0, 64, 62
1, 188654, Control_c, 0, 64, 63
1, 188655, Poly_aftertouch_c, 0, 25, 0
1, 188669, Control_c, 0, 64, 63
1, 188698, Control_c, 0, 64, 64
1, 188708, Poly_aftertouch_c, 0, 32, 127
1, 188743, Control_c, 0, 64, 65
1, 188758, Control_c, 0, 64, 66
1, 188772, Control_c, 0, 64, 66
1, 188776, Poly_aftertouch_c, 0, 32, 0
1, 188787, Control_c, 0, 64, 67
1, 188813, Poly_aftertouch_c, 0, 32, 127
1, 188816, Note_on_c, 0, 32, 3
1, 188819, Poly_aftertouch_c, 0, 25, 0
1, 188846, Control_c, 0, 64, 66
1, 188861, Control_c, 0, 64, 66
1, 188873, Note_on_c, 0, 25, 20
1, 188876, Control_c, 0, 64, 65
1, 188877, Note_off_c, 0, 32, 40
1, 188890, Control_c, 0, 64, 64
1, 188905, Control_c, 0, 64, 63
1, 188917, Note_off_c, 0, 25, 52
1, 188920, Control_c, 0, 64, 62
1, 188935, Control_c, 0, 64, 60
1, 188944, Note_on_c, 0, 32, 25
1, 188993, Note_off_c, 0, 32, 46
1, 188995, Control_c, 0, 64, 61
1, 189009, Control_c, 0, 64, 61
1, 189024, Control_c, 0, 64, 62
1, 189039, Control_c, 0, 64, 63
1, 189054, Control_c, 0, 64, 63
1, 189069, Control_c, 0, 64, 64
1, 189084, Control_c, 0, 64, 64
1, 189129, Control_c, 0, 64, 65
1, 189166, Control_c, 0, 64, 65
1, 189195, Control_c, 0, 64, 66
1, 189210, Control_c, 0, 64, 66
1, 189225, Control_c, 0, 64, 67
1, 189240, Control_c, 0, 64, 67
1, 189251, Note_on_c, 0, 32, 20
1, 189255, Control_c, 0, 64, 68
1, 189269, Control_c, 0, 64, 68
1, 189284, Control_c, 0, 64, 69
1, 189299, Control_c, 0, 64, 69
1, 189314, Control_c, 0, 64, 70
1, 189328, Poly_aftertouch_c, 0, 25, 127
1, 189328, Control_c, 0, 64, 71
1, 189329, Note_on_c, 0, 25, 3
1, 189334, Note_off_c, 0, 32, 37
1, 189343, Control_c, 0, 64, 72
1, 189367, Note_off_c, 0, 25, 53
1, 189373, Control_c, 0, 64, 72
1, 189420, Poly_aftertouch_c, 0, 32, 127
1, 189433, Control_c, 0, 64, 73
1, 189448, Control_c, 0, 64, 73
1, 189462, Control_c, 0, 64, 74
1, 189467, Poly_aftertouch_c, 0, 32, 0
1, 189477, Control_c, 0, 64, 75
1, 189492, Control_c, 0, 64, 76
1, 189507, Control_c, 0, 64, 76
1, 189521, Control_c, 0, 64, 77
1, 189551, Control_c, 0, 64, 78
1, 189566, Control_c, 0, 64, 78
1, 189594, Poly_aftertouch_c, 0, 32, 127
1, 189595, Control_c, 0, 64, 79
1, 189642, Note_on_c, 0, 25, 10
1, 189643, Poly_aftertouch_c, 0, 32, 0
1, 189669, Note_on_c, 0, 32, 13
1, 189669, Control_c, 0, 64, 78
1, 189684, Control_c, 0, 64, 76
1, 189699, Control_c, 0, 64, 73
1, 189702, Note_off_c, 0, 25, 32
1, 189713, Control_c, 0, 64, 70
1, 189728, Control_c, 0, 64, 67
1, 189743, Control_c, 0, 64, 65
1, 189758, Note_off_c, 0, 32, 49
1, 189786, Poly_aftertouch_c, 0, 25, 127
1, 189788, Control_c, 0, 64, 66
1, 189803, Control_c, 0, 64, 67
1, 189818, Control_c, 0, 64, 68
1, 189829, Poly_aftertouch_c, 0, 25, 0
1, 189833, Control_c, 0, 64, 70
1, 189845, Note_on_c, 0, 32, 15
1, 189847, Control_c, 0, 64, 72
1, 189862, Control_c, 0, 64, 72
1, 189900, Control_c, 0, 64, 73
1, 189911, Note_off_c, 0, 32, 47
1, 189916, Control_c, 0, 64, 74
1, 189918, Note_on_c, 0, 25, 36
1, 189931, Control_c, 0, 64, 74
1, 189945, Control_c, 0, 64, 75
1, 189960, Control_c, 0, 64, 75
1, 189963, Note_off_c, 0, 25, 55
1, 189975, Control_c, 0, 64, 76
1, 189990, Control_c, 0, 64, 77
1, 189998, Note_on_c, 0, 32, 29
1, 190005, Control_c, 0, 64, 77
1, 190019, Control_c, 0, 64, 78
1, 190034, Control_c, 0, 64, 78
1, 190047, Note_off_c, 0, 32, 48
1, 190079, Control_c, 0, 64, 79
1, 190092, Note_on_c, 0, 25, 5
1, 190093, Control_c, 0, 64, 79
1, 190141, Note_off_c, 0, 25, 32
1, 190184, Poly_aftertouch_c, 0, 32, 127
1, 190211, Control_c, 0, 64, 80
1, 190226, Control_c, 0, 64, 80
1, 190256, Control_c, 0, 64, 81
1, 190264, Poly_aftertouch_c, 0, 32, 0
1, 190270, Control_c, 0, 64, 82
1, 190285, Control_c, 0, 64, 83
1, 190287, Note_on_c, 0, 32, 11
1, 190300, Control_c, 0, 64, 84
1, 190315, Control_c, 0, 64, 84
1, 190316, Poly_aftertouch_c, 0, 25, 0
1, 190330, Control_c, 0, 64, 85
1, 190332, Note_on_c, 0, 25, 26
1, 190336, Note_off_c, 0, 32, 47
1, 190345, Control_c, 0, 64, 86
1, 190360, Control_c, 0, 64, 87
1, 190381, Note_off_c, 0, 25, 56
1, 190452, Poly_aftertouch_c, 0, 32, 127
1, 190488, Note_on_c, 0, 25, 24
1, 190508, Control_c, 0, 64, 86
1, 190523, Control_c, 0, 64, 85
1, 190525, Poly_aftertouch_c, 0, 32, 0
1, 190533, Note_off_c, 0, 25, 37
1, 190537, Control_c, 0, 64, 84
1, 190552, Control_c, 0, 64, 82
1, 190562, Poly_aftertouch_c, 0, 32, 127
1, 190567, Control_c, 0, 64, 80
1, 190582, Control_c, 0, 64, 78
1, 190597, Control_c, 0, 64, 76
1, 190607, Poly_aftertouch_c, 0, 32, 0
1, 190610, Note_on_c, 0, 25, 28
1, 190611, Control_c, 0, 64, 74
1, 190656, Note_off_c, 0, 25, 46
1, 190693, Control_c, 0, 64, 75
1, 190708, Control_c, 0, 64, 77
1, 190724, Control_c, 0, 64, 78
1, 190738, Control_c, 0, 64, 79
1, 190753, Control_c, 0, 64, 80
1, 190768, Control_c, 0, 64, 82
1, 190783, Control_c, 0, 64, 84
1, 190798, Control_c, 0, 64, 85
1, 190813, Control_c, 0, 64, 86
1, 190828, Control_c, 0, 64, 86
1, 190842, Control_c, 0, 64, 87
1, 190857, Control_c, 0, 64, 87
1, 190863, Poly_aftertouch_c, 0, 32, 0
1, 190872, Control_c, 0, 64, 88
1, 190886, Control_c, 0, 64, 90
1, 190901, Control_c, 0, 64, 93
1, 190916, Control_c, 0, 64, 96
1, 190931, Control_c, 0, 64, 98
1, 190938, Poly_aftertouch_c, 0, 25, 0
1, 190946, Control_c, 0, 64, 101
1, 190960, Control_c, 0, 64, 105
1, 190975, Control_c, 0, 64, 113
1, 190990, Control_c, 0, 64, 127
1, 191260, Note_on_c, 0, 79, 55
1, 191355, Note_off_c, 0, 79, 59
1, 191419, Note_on_c, 0, 25, 13
1, 191461, Note_off_c, 0, 25, 36
1, 191545, Note_on_c, 0, 79, 59
1, 191550, Note_on_c, 0, 25, 30
1, 191592, Note_off_c, 0, 25, 40
1, 191677, Note_on_c, 0, 25, 32
1, 191719, Note_off_c, 0, 25, 40
1, 191958, Note_on_c, 0, 25, 3
1, 191973, Note_off_c, 0, 79, 34
1, 191990, Note_off_c, 0, 25, 41
1, 192058, Poly_aftertouch_c, 0, 32, 127
1, 192163, Poly_aftertouch_c, 0, 32, 0
1, 192200, Poly_aftertouch_c, 0, 32, 127
1, 192221, Note_on_c, 0, 25, 16
1, 192264, Poly_aftertouch_c, 0, 32, 0
1, 192271, Note_off_c, 0, 25, 45
1, 192301, Poly_aftertouch_c, 0, 32, 127
1, 192341, Note_on_c, 0, 25, 33
1, 192347, Poly_aftertouch_c, 0, 32, 0
1, 192386, Note_off_c, 0, 25, 54
1, 192435, Note_on_c, 0, 32, 11
1, 192481, Note_off_c, 0, 32, 47
1, 192531, Note_on_c, 0, 25, 3
1, 192612, Note_off_c, 0, 25, 0
1, 192631, Note_on_c, 0, 25, 10
1, 192677, Note_off_c, 0, 25, 40
1, 192684, Poly_aftertouch_c, 0, 32, 0
1, 192721, Poly_aftertouch_c, 0, 32, 127
1, 192767, Poly_aftertouch_c, 0, 32, 0
1, 192777, Note_on_c, 0, 25, 24
1, 192826, Note_off_c, 0, 25, 34
1, 192912, Note_on_c, 0, 25, 14
1, 192965, Note_off_c, 0, 25, 33
1, 193046, Note_on_c, 0, 25, 3
1, 193076, Note_off_c, 0, 25, 36
1, 193280, Note_on_c, 0, 25, 12
1, 193337, Note_off_c, 0, 25, 43
1, 193358, Poly_aftertouch_c, 0, 32, 0
1, 193381, Note_on_c, 0, 79, 59
1, 193402, Note_on_c, 0, 25, 30
1, 193444, Note_off_c, 0, 25, 58
1, 193464, Poly_aftertouch_c, 0, 32, 0
1, 193501, Poly_aftertouch_c, 0, 32, 127
1, 193529, Poly_aftertouch_c, 0, 32, 0
1, 193549, Poly_aftertouch_c, 0, 32, 0
1, 193566, Note_off_c, 0, 79, 52
1, 193574, Note_on_c, 0, 25, 17
1, 193613, Note_off_c, 0, 25, 38
1, 193762, Note_on_c, 0, 76, 62
1, 193838, Note_on_c, 0, 25, 20
1, 193885, Note_off_c, 0, 25, 50
1, 193938, Poly_aftertouch_c, 0, 32, 127
1, 193940, Note_on_c, 0, 32, 3
1, 193953, Note_off_c, 0, 76, 59
1, 193980, Note_off_c, 0, 32, 45
1, 194003, Note_on_c, 0, 25, 30
1, 194044, Note_off_c, 0, 25, 42
1, 194113, Poly_aftertouch_c, 0, 32, 127
1, 194158, Note_on_c, 0, 25, 36
1, 194170, Poly_aftertouch_c, 0, 32, 0
1, 194190, Note_off_c, 0, 25, 47
1, 194268, Poly_aftertouch_c, 0, 32, 127
1, 194314, Poly_aftertouch_c, 0, 32, 0
1, 194374, Poly_aftertouch_c, 0, 25, 0
1, 194470, Note_on_c, 0, 72, 50
1, 194472, Note_on_c, 0, 25, 29
1, 194510, Note_off_c, 0, 25, 55
1, 194625, Note_on_c, 0, 25, 37
1, 194648, Note_on_c, 0, 74, 59
1, 194660, Note_off_c, 0, 25, 51
1, 194672, Note_on_c, 0, 60, 37
1, 194694, Note_on_c, 0, 32, 21
1, 194713, Note_off_c, 0, 72, 40
1, 194744, Note_off_c, 0, 32, 47
1, 194770, Note_on_c, 0, 25, 41
1, 194806, Note_off_c, 0, 25, 42
1, 194808, Control_c, 0, 64, 88
1, 194821, Note_on_c, 0, 67, 47
1, 194823, Control_c, 0, 64, 76
1, 194838, Control_c, 0, 64, 70
1, 194852, Control_c, 0, 64, 70
1, 194867, Control_c, 0, 64, 71
1, 194882, Control_c, 0, 64, 75
1, 194888, Note_off_c, 0, 60, 34
1, 194897, Control_c, 0, 64, 84
1, 194906, Note_on_c, 0, 25, 37
1, 194912, Control_c, 0, 64, 95
1, 194927, Control_c, 0, 64, 105
1, 194941, Note_off_c, 0, 25, 48
1, 194941, Control_c, 0, 64, 111
1, 194956, Control_c, 0, 64, 117
1, 194971, Control_c, 0, 64, 122
1, 194998, Poly_aftertouch_c, 0, 32, 127
1, 195053, Poly_aftertouch_c, 0, 32, 0
1, 195159, Poly_aftertouch_c, 0, 32, 127
1, 195187, Note_on_c, 0, 25, 3
1, 195195, Note_off_c, 0, 67, 35
1, 195212, Poly_aftertouch_c, 0, 32, 0
1, 195224, Note_off_c, 0, 25, 42
1, 195249, Poly_aftertouch_c, 0, 32, 127
1, 195298, Poly_aftertouch_c, 0, 32, 0
1, 195302, Note_on_c, 0, 25, 31
1, 195338, Note_off_c, 0, 25, 45
1, 195362, Control_c, 0, 64, 127
1, 195409, Poly_aftertouch_c, 0, 32, 127
1, 195493, Poly_aftertouch_c, 0, 32, 0
1, 195532, Poly_aftertouch_c, 0, 32, 127
1, 195551, Note_on_c, 0, 25, 8
1, 195598, Note_off_c, 0, 25, 54
1, 195601, Poly_aftertouch_c, 0, 32, 0
1, 195638, Poly_aftertouch_c, 0, 32, 127
1, 195686, Poly_aftertouch_c, 0, 32, 0
1, 195709, Note_on_c, 0, 25, 13
1, 195756, Note_off_c, 0, 25, 34
1, 196027, Poly_aftertouch_c, 0, 25, 0
1, 196079, Poly_aftertouch_c, 0, 32, 127
1, 196168, Poly_aftertouch_c, 0, 32, 0
1, 196176, Note_on_c, 0, 60, 49
1, 196205, Poly_aftertouch_c, 0, 32, 127
1, 196251, Poly_aftertouch_c, 0, 32, 0
1, 196283, Poly_aftertouch_c, 0, 25, 127
1, 196301, Note_on_c, 0, 69, 47
1, 196324, Poly_aftertouch_c, 0, 25, 0
1, 196338, Note_off_c, 0, 60, 33
1, 196447, Note_on_c, 0, 67, 49
1, 196505, Poly_aftertouch_c, 0, 25, 0
1, 196506, Note_off_c, 0, 69, 35
1, 196530, Poly_aftertouch_c, 0, 32, 127
1, 196584, Poly_aftertouch_c, 0, 32, 0
1, 196657, Poly_aftertouch_c, 0, 25, 0
1, 196679, Poly_aftertouch_c, 0, 32, 127
1, 196706, Note_on_c, 0, 25, 22
1, 196760, Note_off_c, 0, 25, 49
1, 196766, Poly_aftertouch_c, 0, 32, 0
1, 196786, Note_on_c, 0, 32, 10
1, 196848, Note_on_c, 0, 25, 30
1, 196852, Note_off_c, 0, 32, 40
1, 196903, Note_off_c, 0, 25, 45
1, 196931, Note_on_c, 0, 32, 13
1, 196993, Note_off_c, 0, 32, 42
1, 197006, Note_on_c, 0, 25, 26
1, 197055, Note_off_c, 0, 25, 41
1, 197076, Note_on_c, 0, 32, 16
1, 197135, Note_off_c, 0, 32, 43
1, 197154, Note_on_c, 0, 25, 8
1, 197207, Note_off_c, 0, 25, 33
1, 197225, Note_on_c, 0, 32, 6
1, 197276, Note_off_c, 0, 32, 46
1, 197416, Poly_aftertouch_c, 0, 32, 127
1, 197434, Note_on_c, 0, 25, 15
1, 197473, Poly_aftertouch_c, 0, 32, 0
1, 197480, Note_off_c, 0, 25, 44
1, 197487, Note_off_c, 0, 67, 32
1, 197495, Note_off_c, 0, 74, 36
1, 197511, Poly_aftertouch_c, 0, 32, 127
1, 197564, Poly_aftertouch_c, 0, 32, 0
1, 197578, Note_on_c, 0, 25, 26
1, 197617, Note_off_c, 0, 25, 41
1, 197681, Poly_aftertouch_c, 0, 32, 127
1, 197734, Note_on_c, 0, 25, 11
1, 197776, Note_off_c, 0, 25, 36
1, 197777, Poly_aftertouch_c, 0, 32, 0
1, 197815, Poly_aftertouch_c, 0, 32, 127
1, 197817, Note_on_c, 0, 32, 3
1, 197864, Note_on_c, 0, 25, 23
1, 197868, Note_off_c, 0, 32, 42
1, 197904, Note_off_c, 0, 25, 43
1, 197940, Note_on_c, 0, 32, 21
1, 198001, Note_off_c, 0, 32, 41
1, 198106, Poly_aftertouch_c, 0, 32, 127
1, 198146, Poly_aftertouch_c, 0, 25, 127
1, 198185, Poly_aftertouch_c, 0, 32, 0
1, 198199, Poly_aftertouch_c, 0, 25, 0
1, 198223, Poly_aftertouch_c, 0, 32, 127
1, 198269, Note_on_c, 0, 25, 18
1, 198286, Poly_aftertouch_c, 0, 32, 0
1, 198314, Note_off_c, 0, 25, 44
1, 198367, Poly_aftertouch_c, 0, 32, 127
1, 198478, Poly_aftertouch_c, 0, 32, 0
1, 198516, Poly_aftertouch_c, 0, 32, 127
1, 198525, Poly_aftertouch_c, 0, 25, 127
1, 198567, Poly_aftertouch_c, 0, 25, 0
1, 198571, Poly_aftertouch_c, 0, 32, 0
1, 198608, Poly_aftertouch_c, 0, 32, 127
1, 198651, Poly_aftertouch_c, 0, 32, 0
1, 198886, Note_on_c, 0, 67, 50
1, 198912, Note_on_c, 0, 32, 9
1, 198974, Note_off_c, 0, 32, 43
1, 198980, Note_on_c, 0, 25, 12
1, 199024, Note_off_c, 0, 25, 53
1, 199069, Note_on_c, 0, 32, 15
1, 199121, Note_off_c, 0, 32, 46
1, 199156, Note_on_c, 0, 25, 22
1, 199201, Note_off_c, 0, 25, 35
1, 199227, Note_on_c, 0, 32, 22
1, 199273, Note_off_c, 0, 32, 47
1, 199392, Poly_aftertouch_c, 0, 25, 0
1, 199409, Poly_aftertouch_c, 0, 32, 127
1, 199410, Note_on_c, 0, 25, 15
1, 199456, Note_off_c, 0, 25, 48
1, 199456, Poly_aftertouch_c, 0, 32, 0
1, 199494, Poly_aftertouch_c, 0, 32, 127
1, 199505, Note_off_c, 0, 67, 37
1, 199539, Poly_aftertouch_c, 0, 32, 0
1, 199547, Note_on_c, 0, 25, 19
1, 199592, Note_off_c, 0, 25, 35
1, 199744, Note_on_c, 0, 72, 56
1, 199744, Poly_aftertouch_c, 0, 25, 0
1, 199920, Poly_aftertouch_c, 0, 32, 127
1, 199953, Note_on_c, 0, 25, 24
1, 199975, Poly_aftertouch_c, 0, 32, 0
1, 200000, Note_off_c, 0, 25, 54
1, 200043, Note_on_c, 0, 32, 12
1, 200091, Note_off_c, 0, 32, 47
1, 200094, Note_on_c, 0, 25, 32
1, 200133, Note_off_c, 0, 25, 48
1, 200206, Poly_aftertouch_c, 0, 32, 127
1, 200246, Note_on_c, 0, 25, 32
1, 200282, Note_off_c, 0, 25, 43
1, 200307, Poly_aftertouch_c, 0, 32, 0
1, 200343, Poly_aftertouch_c, 0, 32, 127
1, 200409, Poly_aftertouch_c, 0, 32, 0
1, 200500, Poly_aftertouch_c, 0, 32, 127
1, 200554, Note_off_c, 0, 72, 32
1, 200582, Poly_aftertouch_c, 0, 32, 0
1, 200589, Poly_aftertouch_c, 0, 25, 0
1, 200619, Poly_aftertouch_c, 0, 32, 127
1, 200664, Poly_aftertouch_c, 0, 32, 0
1, 200687, Note_on_c, 0, 25, 3
1, 200724, Note_off_c, 0, 25, 34
1, 200774, Poly_aftertouch_c, 0, 32, 127
1, 200857, Poly_aftertouch_c, 0, 32, 0
1, 200894, Poly_aftertouch_c, 0, 32, 127
1, 200913, Note_on_c, 0, 25, 13
1, 200954, Note_off_c, 0, 25, 49
1, 201052, Poly_aftertouch_c, 0, 32, 0
1, 201061, Note_on_c, 0, 74, 55
1, 201204, Poly_aftertouch_c, 0, 25, 127
1, 201246, Poly_aftertouch_c, 0, 25, 0
1, 201309, Poly_aftertouch_c, 0, 32, 127
1, 201341, Note_on_c, 0, 25, 19
1, 201372, Poly_aftertouch_c, 0, 32, 0
1, 201382, Note_off_c, 0, 25, 37
1, 201410, Poly_aftertouch_c, 0, 32, 127
1, 201468, Poly_aftertouch_c, 0, 32, 0
1, 201469, Note_on_c, 0, 25, 7
1, 201517, Note_off_c, 0, 25, 34
1, 201568, Poly_aftertouch_c, 0, 32, 127
1, 201597, Note_on_c, 0, 25, 12
1, 201629, Poly_aftertouch_c, 0, 32, 0
1, 201666, Poly_aftertouch_c, 0, 32, 127
1, 201686, Note_off_c, 0, 25, 0
1, 201702, Note_on_c, 0, 25, 24
1, 201741, Note_off_c, 0, 25, 52
1, 201741, Note_off_c, 0, 74, 35
1, 201762, Poly_aftertouch_c, 0, 32, 0
1, 201799, Poly_aftertouch_c, 0, 32, 127
1, 201861, Poly_aftertouch_c, 0, 32, 0
1, 201907, Poly_aftertouch_c, 0, 32, 127
1, 201931, Poly_aftertouch_c, 0, 25, 127
1, 202009, Poly_aftertouch_c, 0, 25, 0
1, 202027, Note_on_c, 0, 25, 9
1, 202054, Note_off_c, 0, 25, 0
1, 202091, Poly_aftertouch_c, 0, 25, 127
1, 202110, Note_on_c, 0, 25, 3
1, 202111, Poly_aftertouch_c, 0, 32, 0
1, 202175, Note_off_c, 0, 25, 0
1, 202192, Note_on_c, 0, 25, 21
1, 202196, Note_on_c, 0, 60, 44
1, 202266, Note_off_c, 0, 60, 51
1, 202272, Note_off_c, 0, 25, 0
1, 202286, Note_on_c, 0, 25, 29
1, 202335, Poly_aftertouch_c, 0, 32, 127
1, 202391, Poly_aftertouch_c, 0, 32, 0
1, 202397, Note_on_c, 0, 69, 51
1, 202421, Note_off_c, 0, 25, 35
1, 202554, Note_off_c, 0, 69, 62
1, 202576, Note_on_c, 0, 67, 57
1, 202643, Note_off_c, 0, 67, 51
1, 202818, Note_on_c, 0, 56, 41
1, 202820, Note_on_c, 0, 61, 43
1, 202838, Note_on_c, 0, 65, 25
1, 202872, Note_off_c, 0, 65, 52
1, 202877, Note_on_c, 0, 76, 64
1, 202889, Note_on_c, 0, 70, 56
1, 202906, Note_off_c, 0, 61, 63
1, 202927, Note_off_c, 0, 56, 66
1, 203066, Note_off_c, 0, 76, 64
1, 203101, Note_on_c, 0, 68, 45
1, 203103, Note_off_c, 0, 70, 58
1, 203155, Note_off_c, 0, 68, 52
1, 203173, Note_on_c, 0, 25, 32
1, 203214, Note_off_c, 0, 25, 44
1, 203274, Note_on_c, 0, 61, 46
1, 203324, Note_on_c, 0, 25, 29
1, 203326, Note_off_c, 0, 61, 49
1, 203376, Note_off_c, 0, 25, 36
1, 203407, Note_on_c, 0, 32, 3
1, 203446, Note_off_c, 0, 32, 49
1, 203477, Note_on_c, 0, 25, 35
1, 203512, Note_off_c, 0, 25, 45
1, 203568, Note_on_c, 0, 32, 6
1, 203607, Note_on_c, 0, 25, 42
1, 203619, Note_off_c, 0, 32, 49
1, 203650, Note_off_c, 0, 25, 47
1, 203717, Poly_aftertouch_c, 0, 32, 127
1, 203720, Note_on_c, 0, 32, 3
1, 203762, Note_off_c, 0, 32, 50
1, 203860, Poly_aftertouch_c, 0, 32, 127
1, 203908, Poly_aftertouch_c, 0, 32, 0
1, 203972, Poly_aftertouch_c, 0, 25, 0
1, 204210, Note_on_c, 0, 25, 15
1, 204248, Note_off_c, 0, 25, 41
1, 204310, Poly_aftertouch_c, 0, 32, 127
1, 204346, Note_on_c, 0, 25, 28
1, 204348, Poly_aftertouch_c, 0, 32, 0
1, 204390, Note_off_c, 0, 25, 38
1, 204490, Note_on_c, 0, 25, 22
1, 204535, Note_off_c, 0, 25, 35
1, 204576, Poly_aftertouch_c, 0, 32, 127
1, 204615, Note_on_c, 0, 25, 19
1, 204626, Poly_aftertouch_c, 0, 32, 0
1, 204654, Note_off_c, 0, 25, 41
1, 205074, Poly_aftertouch_c, 0, 25, 127
1, 205099, Note_on_c, 0, 97, 43
1, 205103, Note_on_c, 0, 85, 36
1, 205210, Poly_aftertouch_c, 0, 25, 0
1, 205228, Note_on_c, 0, 25, 19
1, 205238, Note_off_c, 0, 85, 41
1, 205255, Note_off_c, 0, 97, 40
1, 205275, Note_off_c, 0, 25, 55
1, 205348, Poly_aftertouch_c, 0, 32, 127
1, 205447, Poly_aftertouch_c, 0, 32, 0
1, 205455, Poly_aftertouch_c, 0, 25, 0
1, 205484, Poly_aftertouch_c, 0, 32, 127
1, 205529, Note_on_c, 0, 25, 29
1, 205537, Poly_aftertouch_c, 0, 32, 0
1, 205573, Note_off_c, 0, 25, 51
1, 205602, Note_on_c, 0, 32, 8
1, 205670, Note_off_c, 0, 32, 43
1, 205801, Poly_aftertouch_c, 0, 32, 127
1, 205846, Note_on_c, 0, 25, 7
1, 205893, Poly_aftertouch_c, 0, 32, 0
1, 205893, Note_off_c, 0, 25, 38
1, 205931, Poly_aftertouch_c, 0, 32, 127
1, 205987, Poly_aftertouch_c, 0, 32, 0
1, 205989, Note_on_c, 0, 25, 21
1, 206033, Note_off_c, 0, 25, 38
1, 206084, Poly_aftertouch_c, 0, 32, 127
1, 206150, Note_on_c, 0, 25, 9
1, 206176, Poly_aftertouch_c, 0, 32, 0
1, 206204, Note_off_c, 0, 25, 31
1, 206212, Poly_aftertouch_c, 0, 32, 127
1, 206266, Note_on_c, 0, 25, 12
1, 206272, Poly_aftertouch_c, 0, 32, 0
1, 206326, Note_off_c, 0, 25, 38
1, 206370, Poly_aftertouch_c, 0, 32, 127
1, 206398, Note_on_c, 0, 25, 26
1, 206447, Note_off_c, 0, 25, 51
1, 206478, Poly_aftertouch_c, 0, 32, 0
1, 206514, Poly_aftertouch_c, 0, 32, 127
1, 206689, Poly_aftertouch_c, 0, 25, 0
1, 206692, Poly_aftertouch_c, 0, 32, 0
1, 206762, Poly_aftertouch_c, 0, 25, 0
1, 206802, Poly_aftertouch_c, 0, 32, 127
1, 206827, Note_on_c, 0, 25, 25
1, 206869, Note_off_c, 0, 25, 51
1, 206913, Poly_aftertouch_c, 0, 32, 0
1, 206950, Poly_aftertouch_c, 0, 32, 127
1, 206996, Poly_aftertouch_c, 0, 32, 0
1, 207197, Poly_aftertouch_c, 0, 25, 0
1, 207247, Poly_aftertouch_c, 0, 32, 127
1, 207286, Note_on_c, 0, 25, 13
1, 207299, Poly_aftertouch_c, 0, 32, 0
1, 207339, Note_off_c, 0, 25, 40
1, 207670, Poly_aftertouch_c, 0, 25, 0
1, 207796, Poly_aftertouch_c, 0, 25, 0
1, 207923, Poly_aftertouch_c, 0, 25, 0
1, 208005, Poly_aftertouch_c, 0, 25, 0
1, 208186, Note_on_c, 0, 97, 40
1, 208188, Poly_aftertouch_c, 0, 25, 127
1, 208197, Note_on_c, 0, 85, 30
1, 208224, Poly_aftertouch_c, 0, 25, 0
1, 208366, Note_off_c, 0, 97, 41
1, 208376, Note_off_c, 0, 85, 38
1, 208481, Poly_aftertouch_c, 0, 25, 0
1, 208563, Note_on_c, 0, 25, 22
1, 208616, Note_off_c, 0, 25, 44
1, 208811, Poly_aftertouch_c, 0, 25, 0
1, 208850, Poly_aftertouch_c, 0, 32, 127
1, 208893, Poly_aftertouch_c, 0, 32, 0
1, 208939, Poly_aftertouch_c, 0, 25, 127
1, 208984, Poly_aftertouch_c, 0, 25, 0
1, 209153, Poly_aftertouch_c, 0, 25, 0
1, 209196, Poly_aftertouch_c, 0, 32, 127
1, 209239, Poly_aftertouch_c, 0, 32, 0
1, 209332, Poly_aftertouch_c, 0, 25, 0
1, 209442, Note_on_c, 0, 25, 13
1, 209492, Note_off_c, 0, 25, 44
1, 209711, Poly_aftertouch_c, 0, 25, 0
1, 209760, Poly_aftertouch_c, 0, 32, 127
1, 209807, Poly_aftertouch_c, 0, 32, 0
1, 209852, Poly_aftertouch_c, 0, 25, 127
1, 209918, Poly_aftertouch_c, 0, 25, 0
1, 210005, Poly_aftertouch_c, 0, 32, 127
1, 210053, Poly_aftertouch_c, 0, 32, 0
1, 210085, Note_on_c, 0, 25, 23
1, 210156, Note_off_c, 0, 25, 44
1, 210468, Poly_aftertouch_c, 0, 25, 127
1, 210630, Poly_aftertouch_c, 0, 25, 0
1, 211458, Control_c, 0, 64, 111
1, 211473, Control_c, 0, 64, 106
1, 211488, Control_c, 0, 64, 103
1, 211503, Control_c, 0, 64, 100
1, 211518, Control_c, 0, 64, 99
1, 211533, Control_c, 0, 64, 97
1, 211547, Control_c, 0, 64, 95
1, 211562, Control_c, 0, 64, 94
1, 211577, Control_c, 0, 64, 93
1, 211592, Control_c, 0, 64, 92
1, 211614, Control_c, 0, 64, 90
1, 211629, Control_c, 0, 64, 89
1, 211643, Control_c, 0, 64, 88
1, 211658, Control_c, 0, 64, 88
1, 211673, Control_c, 0, 64, 87
1, 211688, Control_c, 0, 64, 86
1, 211703, Control_c, 0, 64, 86
1, 211718, Control_c, 0, 64, 85
1, 211733, Control_c, 0, 64, 84
1, 211748, Control_c, 0, 64, 84
1, 211762, Control_c, 0, 64, 83
1, 211777, Control_c, 0, 64, 82
1, 211792, Control_c, 0, 64, 82
1, 211807, Control_c, 0, 64, 81
1, 211822, Control_c, 0, 64, 80
1, 211836, Control_c, 0, 64, 80
1, 211851, Control_c, 0, 64, 79
1, 211866, Control_c, 0, 64, 79
1, 211881, Control_c, 0, 64, 78
1, 211896, Control_c, 0, 64, 78
1, 211910, Control_c, 0, 64, 77
1, 211925, Control_c, 0, 64, 77
1, 211940, Control_c, 0, 64, 76
1, 211954, Control_c, 0, 64, 75
1, 211969, Control_c, 0, 64, 75
1, 211984, Control_c, 0, 64, 74
1, 211999, Control_c, 0, 64, 73
1, 212014, Control_c, 0, 64, 72
1, 212028, Control_c, 0, 64, 72
1, 212043, Control_c, 0, 64, 71
1, 212058, Control_c, 0, 64, 69
1, 212073, Control_c, 0, 64, 68
1, 212088, Control_c, 0, 64, 67
1, 212103, Control_c, 0, 64, 67
1, 212117, Control_c, 0, 64, 66
1, 212132, Control_c, 0, 64, 66
1, 212147, Control_c, 0, 64, 65
1, 212281, Control_c, 0, 64, 65
1, 212325, Control_c, 0, 64, 64
1, 212340, Control_c, 0, 64, 64
1, 212377, Control_c, 0, 64, 63
1, 212421, Control_c, 0, 64, 63
1, 212451, Control_c, 0, 64, 62
1, 212481, Control_c, 0, 64, 62
1, 212511, Control_c, 0, 64, 61
1, 212525, Control_c, 0, 64, 61
1, 212555, Control_c, 0, 64, 60
1, 212570, Control_c, 0, 64, 60
1, 212599, Control_c, 0, 64, 59
1, 212658, Control_c, 0, 64, 59
1, 212702, Control_c, 0, 64, 58
1, 212732, Control_c, 0, 64, 58
1, 212747, Control_c, 0, 64, 57
1, 212776, Control_c, 0, 64, 57
1, 212791, Control_c, 0, 64, 56
1, 212806, Control_c, 0, 64, 55
1, 212821, Control_c, 0, 64, 55
1, 212866, Control_c, 0, 64, 54
1, 212881, Control_c, 0, 64, 54
1, 212910, Control_c, 0, 64, 53
1, 212925, Control_c, 0, 64, 53
1, 212940, Control_c, 0, 64, 52
1, 212955, Control_c, 0, 64, 52
1, 213029, Control_c, 0, 64, 51
1, 213125, Control_c, 0, 64, 51
1, 213155, Control_c, 0, 64, 50
1, 213185, Control_c, 0, 64, 50
1, 213200, Control_c, 0, 64, 49
1, 213214, Control_c, 0, 64, 49
1, 213229, Control_c, 0, 64, 48
1, 213244, Control_c, 0, 64, 47
1, 213274, Control_c, 0, 64, 47
1, 213333, Control_c, 0, 64, 46
1, 213467, Control_c, 0, 64, 46
1, 213540, Control_c, 0, 64, 45
1, 213570, Control_c, 0, 64, 45
1, 213599, Control_c, 0, 64, 44
1, 213614, Control_c, 0, 64, 44
1, 213629, Control_c, 0, 64, 43
1, 213644, Control_c, 0, 64, 42
1, 213659, Control_c, 0, 64, 42
1, 213673, Control_c, 0, 64, 41
1, 213703, Control_c, 0, 64, 41
1, 213733, Control_c, 0, 64, 40
1, 213763, Control_c, 0, 64, 40
1, 213808, Control_c, 0, 64, 39
1, 213837, Control_c, 0, 64, 39
1, 213860, Control_c, 0, 64, 38
1, 213876, Control_c, 0, 64, 38
1, 213891, Control_c, 0, 64, 37
1, 213905, Control_c, 0, 64, 36
1, 213920, Control_c, 0, 64, 35
1, 213935, Control_c, 0, 64, 34
1, 213949, Control_c, 0, 64, 33
1, 213964, Control_c, 0, 64, 32
1, 213979, Control_c, 0, 64, 30
1, 213994, Control_c, 0, 64, 30
1, 214009, Control_c, 0, 64, 29
1, 214023, Control_c, 0, 64, 29
1, 214038, Control_c, 0, 64, 28
1, 214053, Control_c, 0, 64, 28
1, 214083, Control_c, 0, 64, 27
1, 214127, Control_c, 0, 64, 27
1, 214156, Control_c, 0, 64, 26
1, 214171, Control_c, 0, 64, 26
1, 214186, Control_c, 0, 64, 25
1, 214201, Control_c, 0, 64, 24
1, 214216, Control_c, 0, 64, 24
1, 214231, Control_c, 0, 64, 23
1, 214246, Control_c, 0, 64, 23
1, 214261, Control_c, 0, 64, 22
1, 214276, Control_c, 0, 64, 22
1, 214291, Control_c, 0, 64, 21
1, 214305, Control_c, 0, 64, 20
1, 214335, Control_c, 0, 64, 20
1, 214349, Control_c, 0, 64, 19
1, 214379, Control_c, 0, 64, 18
1, 214438, Control_c, 0, 64, 18
1, 214512, Control_c, 0, 64, 17
1, 214527, Control_c, 0, 64, 17
1, 214541, Control_c, 0, 64, 16
1, 214556, Control_c, 0, 64, 16
1, 214586, Control_c, 0, 64, 15
1, 214609, Control_c, 0, 64, 15
1, 214623, Control_c, 0, 64, 14
1, 214653, Control_c, 0, 64, 14
1, 215113, Control_c, 0, 64, 13
1, 215291, Control_c, 0, 64, 13
1, 215477, Control_c, 0, 64, 12
1, 215699, Control_c, 0, 64, 12
1, 215773, Control_c, 0, 64, 11
1, 215862, Control_c, 0, 64, 11
1, 215980, Control_c, 0, 64, 10
1, 216009, Control_c, 0, 64, 10
1, 216039, Control_c, 0, 64, 9
1, 216083, Control_c, 0, 64, 9
1, 216150, Control_c, 0, 64, 8
1, 216358, Control_c, 0, 64, 8
1, 216447, Control_c, 0, 64, 0
1, 217107, Control_c, 0, 67, 122
1, 217122, Control_c, 0, 67, 113
1, 217137, Control_c, 0, 67, 102
1, 217152, Control_c, 0, 67, 90
1, 217166, Control_c, 0, 67, 73
1, 217181, Control_c, 0, 67, 56
1, 217196, Control_c, 0, 67, 39
1, 217211, Control_c, 0, 67, 22
1, 217226, Control_c, 0, 67, 0
1, 217522, Control_c, 0, 64, 8
1, 217537, Control_c, 0, 64, 8
1, 217612, End_track
0, 0, End_of_file
