0, 0, Header, 0, 1, 384
1, 0, Start_track
1, 0, Title_t, "Polonaise-Fantasie--Lie Chen    "
1, 0, Text_t, "2009 Piano-e-Competition audition round"
1, 0, Text_t, "captured January 2009"
1, 0, Text_t, "http://www.piano-e-competition.com/"
1, 0, Text_t, "File processed for distribution by software from Zenph Studios, Inc., http://www.zenph.com"
1, 0, Instrument_name_t, "Yamaha Disklavier Pro Mark IV concert grand piano, model DCFIIISM4PRO"
1, 0, Sequencer_specific, 39, 67, 113, 0, 1, 0, 1, 0, 80, 111, 108, 111, 110, 97, 105, 115, 101, 45, 70, 97, 110, 116, 46, 32, 76, 105, 101, 32, 67, 104, 101, 110, 32, 32, 32, 32, 32, 32, 32, 32
1, 0, Sequencer_specific, 6, 67, 113, 0, 0, 0, 69
1, 0, System_exclusive, 21, 67, 113, 126, 21, 0, 2, 2, 0, 3, 14, 1, 4, 1, 13, 13, 10, 11, 9, 2, 7, 247
1, 0, Sequencer_specific, 5, 67, 123, 12, 2, 1
1, 0, Tempo, 512820
1, 0, Time_signature, 4, 2, 24, 8
1, 0, System_exclusive, 5, 126, 127, 9, 1, 247
1, 1, System_exclusive, 8, 67, 16, 76, 0, 0, 126, 0, 247
1, 2, System_exclusive, 8, 67, 16, 76, 8, 9, 7, 1, 247
1, 3, Control_c, 0, 0, 0
1, 3, Control_c, 1, 0, 0
1, 3, Control_c, 2, 0, 0
1, 3, Control_c, 3, 0, 0
1, 3, Control_c, 4, 0, 0
1, 3, Control_c, 5, 0, 0
1, 3, Control_c, 6, 0, 0
1, 3, Control_c, 7, 0, 0
1, 3, Control_c, 8, 0, 0
1, 3, Control_c, 9, 0, 127
1, 3, Control_c, 10, 0, 0
1, 3, Control_c, 11, 0, 0
1, 3, Control_c, 12, 0, 0
1, 3, Control_c, 13, 0, 0
1, 3, Control_c, 14, 0, 0
1, 3, Control_c, 15, 0, 0
1, 4, Control_c, 0, 32, 0
1, 4, Control_c, 1, 32, 0
1, 4, Control_c, 2, 32, 0
1, 4, Control_c, 3, 32, 0
1, 4, Control_c, 4, 32, 0
1, 4, Control_c, 5, 32, 0
1, 4, Control_c, 6, 32, 0
1, 4, Control_c, 7, 32, 0
1, 4, Control_c, 8, 32, 0
1, 4, Control_c, 9, 32, 0
1, 4, Control_c, 10, 32, 0
1, 4, Control_c, 11, 32, 0
1, 4, Control_c, 12, 32, 0
1, 4, Control_c, 13, 32, 0
1, 4, Control_c, 14, 32, 0
1, 4, Control_c, 15, 32, 0
1, 5, Program_c, 0, 0
1, 5, Program_c, 1, 0
1, 5, Program_c, 2, 0
1, 5, Program_c, 3, 0
1, 5, Program_c, 4, 0
1, 5, Program_c, 5, 0
1, 5, Program_c, 6, 0
1, 5, Program_c, 7, 0
1, 5, Program_c, 8, 0
1, 5, Program_c, 9, 0
1, 5, Program_c, 10, 0
1, 5, Program_c, 11, 0
1, 5, Program_c, 12, 0
1, 5, Program_c, 13, 0
1, 5, Program_c, 14, 0
1, 5, Program_c, 15, 0
1, 6, Control_c, 0, 7, 100
1, 6, Control_c, 1, 7, 100
1, 6, Control_c, 2, 7, 100
1, 6, Control_c, 3, 7, 100
1, 6, Control_c, 4, 7, 100
1, 6, Control_c, 5, 7, 100
1, 6, Control_c, 6, 7, 100
1, 6, Control_c, 7, 7, 100
1, 6, Control_c, 8, 7, 100
1, 6, Control_c, 9, 7, 100
1, 6, Control_c, 10, 7, 100
1, 6, Control_c, 11, 7, 100
1, 6, Control_c, 12, 7, 100
1, 6, Control_c, 13, 7, 100
1, 6, Control_c, 14, 7, 100
1, 6, Control_c, 15, 7, 100
1, 117, Control_c, 0, 64, 15
1, 229, Control_c, 0, 64, 31
1, 341, Control_c, 0, 64, 46
1, 452, Control_c, 0, 64, 63
1, 564, Control_c, 0, 64, 77
1, 676, Control_c, 0, 64, 94
1, 787, Control_c, 0, 64, 108
1, 899, Control_c, 0, 64, 127
1, 1129, Note_on_c, 0, 59, 85
1, 1132, Note_on_c, 0, 68, 93
1, 1133, Note_on_c, 0, 56, 97
1, 1144, Note_on_c, 0, 44, 90
1, 1153, Note_on_c, 0, 32, 76
1, 1192, Note_off_c, 0, 68, 63
1, 1251, Note_on_c, 0, 63, 98
1, 1359, Note_off_c, 0, 32, 59
1, 1413, Note_off_c, 0, 44, 56
1, 1499, Note_off_c, 0, 56, 35
1, 1732, Note_off_c, 0, 59, 49
1, 1792, Note_off_c, 0, 63, 55
1, 2052, Note_on_c, 0, 63, 100
1, 2057, Note_on_c, 0, 54, 98
1, 2057, Note_on_c, 0, 59, 86
1, 2063, Note_on_c, 0, 47, 90
1, 2074, Note_on_c, 0, 35, 73
1, 2180, Control_c, 0, 64, 86
1, 2194, Control_c, 0, 64, 71
1, 2209, Control_c, 0, 64, 61
1, 2224, Control_c, 0, 64, 46
1, 2239, Control_c, 0, 64, 0
1, 2396, Control_c, 0, 64, 20
1, 2411, Control_c, 0, 64, 30
1, 2425, Control_c, 0, 64, 40
1, 2440, Control_c, 0, 64, 50
1, 2455, Control_c, 0, 64, 58
1, 2470, Control_c, 0, 64, 63
1, 2485, Control_c, 0, 64, 69
1, 2499, Control_c, 0, 64, 76
1, 2514, Control_c, 0, 64, 81
1, 2529, Control_c, 0, 64, 87
1, 2543, Control_c, 0, 64, 95
1, 2558, Control_c, 0, 64, 109
1, 2573, Control_c, 0, 64, 127
1, 2581, Note_off_c, 0, 35, 36
1, 2817, Note_off_c, 0, 47, 18
1, 3753, Note_off_c, 0, 54, 21
1, 3840, Note_off_c, 0, 63, 18
1, 3843, Note_off_c, 0, 59, 35
1, 4337, Note_on_c, 0, 35, 33
1, 4854, Note_on_c, 0, 42, 36
1, 5166, Note_on_c, 0, 47, 38
1, 5410, Note_on_c, 0, 54, 36
1, 5625, Note_on_c, 0, 59, 42
1, 5723, Note_off_c, 0, 54, 42
1, 5800, Note_on_c, 0, 61, 49
1, 5805, Note_off_c, 0, 59, 54
1, 5958, Note_off_c, 0, 61, 65
1, 5979, Note_on_c, 0, 64, 49
1, 6119, Note_off_c, 0, 64, 56
1, 6178, Note_on_c, 0, 63, 42
1, 6229, Control_c, 0, 64, 110
1, 6243, Control_c, 0, 64, 78
1, 6258, Control_c, 0, 64, 66
1, 6273, Control_c, 0, 64, 61
1, 6287, Control_c, 0, 64, 58
1, 6302, Control_c, 0, 64, 59
1, 6317, Control_c, 0, 64, 62
1, 6328, Note_on_c, 0, 66, 51
1, 6332, Control_c, 0, 64, 69
1, 6348, Control_c, 0, 64, 85
1, 6363, Control_c, 0, 64, 127
1, 6388, Note_off_c, 0, 63, 37
1, 6471, Note_off_c, 0, 66, 63
1, 6499, Note_on_c, 0, 71, 46
1, 6546, Note_off_c, 0, 71, 0
1, 6546, Note_on_c, 0, 71, 4
1, 6637, Note_off_c, 0, 71, 53
1, 6649, Note_on_c, 0, 73, 49
1, 6801, Note_off_c, 0, 73, 63
1, 6810, Note_on_c, 0, 76, 52
1, 6906, Note_off_c, 0, 76, 51
1, 6971, Note_on_c, 0, 75, 50
1, 7124, Note_on_c, 0, 78, 55
1, 7154, Note_off_c, 0, 75, 57
1, 7257, Note_off_c, 0, 78, 65
1, 7275, Note_on_c, 0, 83, 56
1, 7395, Note_off_c, 0, 83, 52
1, 7422, Note_on_c, 0, 85, 55
1, 7574, Note_off_c, 0, 85, 64
1, 7586, Note_on_c, 0, 88, 56
1, 7670, Note_off_c, 0, 88, 58
1, 7742, Note_on_c, 0, 87, 50
1, 7920, Note_on_c, 0, 90, 54
1, 7975, Note_off_c, 0, 87, 62
1, 8117, Note_on_c, 0, 95, 57
1, 8120, Note_off_c, 0, 90, 62
1, 8322, Note_off_c, 0, 95, 56
1, 8356, Note_on_c, 0, 97, 50
1, 8651, Note_on_c, 0, 100, 47
1, 8686, Note_off_c, 0, 97, 36
1, 9303, Note_off_c, 0, 100, 38
1, 9313, Note_on_c, 0, 99, 40
1, 9628, Note_off_c, 0, 99, 40
1, 9702, Note_off_c, 0, 42, 18
1, 9805, Note_off_c, 0, 35, 1
1, 9814, Note_off_c, 0, 47, 17
1, 10928, Control_c, 0, 64, 119
1, 10943, Control_c, 0, 64, 110
1, 10957, Control_c, 0, 64, 105
1, 10972, Control_c, 0, 64, 100
1, 10987, Control_c, 0, 64, 97
1, 11002, Control_c, 0, 64, 94
1, 11017, Control_c, 0, 64, 91
1, 11032, Control_c, 0, 64, 89
1, 11047, Control_c, 0, 64, 87
1, 11062, Control_c, 0, 64, 85
1, 11076, Control_c, 0, 64, 83
1, 11091, Control_c, 0, 64, 82
1, 11106, Control_c, 0, 64, 81
1, 11121, Control_c, 0, 64, 79
1, 11136, Control_c, 0, 64, 78
1, 11151, Control_c, 0, 64, 77
1, 11166, Control_c, 0, 64, 76
1, 11181, Control_c, 0, 64, 74
1, 11196, Control_c, 0, 64, 73
1, 11211, Control_c, 0, 64, 72
1, 11226, Control_c, 0, 64, 71
1, 11241, Control_c, 0, 64, 69
1, 11262, Control_c, 0, 64, 68
1, 11277, Control_c, 0, 64, 67
1, 11292, Control_c, 0, 64, 66
1, 11306, Control_c, 0, 64, 65
1, 11321, Control_c, 0, 64, 64
1, 11336, Control_c, 0, 64, 63
1, 11351, Control_c, 0, 64, 62
1, 11366, Control_c, 0, 64, 60
1, 11381, Control_c, 0, 64, 59
1, 11396, Control_c, 0, 64, 57
1, 11411, Control_c, 0, 64, 55
1, 11425, Control_c, 0, 64, 53
1, 11440, Control_c, 0, 64, 52
1, 11455, Control_c, 0, 64, 50
1, 11470, Control_c, 0, 64, 49
1, 11485, Control_c, 0, 64, 48
1, 11500, Control_c, 0, 64, 48
1, 11514, Control_c, 0, 64, 47
1, 11559, Control_c, 0, 64, 47
1, 11574, Control_c, 0, 64, 46
1, 11603, Control_c, 0, 64, 46
1, 11618, Control_c, 0, 64, 45
1, 11632, Control_c, 0, 64, 45
1, 11647, Control_c, 0, 64, 44
1, 11662, Control_c, 0, 64, 44
1, 11677, Control_c, 0, 64, 42
1, 11692, Control_c, 0, 64, 41
1, 11706, Control_c, 0, 64, 40
1, 11721, Control_c, 0, 64, 39
1, 11736, Control_c, 0, 64, 38
1, 11751, Control_c, 0, 64, 37
1, 11766, Control_c, 0, 64, 36
1, 11780, Control_c, 0, 64, 34
1, 11796, Control_c, 0, 64, 31
1, 11811, Control_c, 0, 64, 27
1, 11825, Control_c, 0, 64, 22
1, 11840, Control_c, 0, 64, 13
1, 11855, Control_c, 0, 64, 0
1, 12101, Control_c, 0, 64, 9
1, 12116, Control_c, 0, 64, 23
1, 12130, Control_c, 0, 64, 34
1, 12145, Control_c, 0, 64, 43
1, 12160, Control_c, 0, 64, 54
1, 12175, Control_c, 0, 64, 62
1, 12190, Control_c, 0, 64, 68
1, 12204, Control_c, 0, 64, 73
1, 12219, Control_c, 0, 64, 78
1, 12234, Control_c, 0, 64, 80
1, 12249, Control_c, 0, 64, 83
1, 12263, Control_c, 0, 64, 84
1, 12278, Control_c, 0, 64, 86
1, 12293, Control_c, 0, 64, 87
1, 12308, Control_c, 0, 64, 89
1, 12323, Control_c, 0, 64, 91
1, 12338, Control_c, 0, 64, 92
1, 12353, Control_c, 0, 64, 93
1, 12367, Control_c, 0, 64, 94
1, 12373, Note_on_c, 0, 66, 87
1, 12376, Note_on_c, 0, 42, 63
1, 12376, Note_on_c, 0, 54, 86
1, 12377, Note_on_c, 0, 58, 81
1, 12379, Note_on_c, 0, 30, 62
1, 12382, Control_c, 0, 64, 95
1, 12397, Control_c, 0, 64, 98
1, 12412, Control_c, 0, 64, 100
1, 12427, Control_c, 0, 64, 102
1, 12442, Control_c, 0, 64, 105
1, 12457, Control_c, 0, 64, 111
1, 12471, Control_c, 0, 64, 127
1, 12476, Note_off_c, 0, 66, 0
1, 12493, Note_on_c, 0, 61, 91
1, 12505, Poly_aftertouch_c, 0, 66, 0
1, 12659, Note_off_c, 0, 30, 50
1, 12718, Note_off_c, 0, 42, 55
1, 12952, Note_off_c, 0, 54, 62
1, 13016, Note_off_c, 0, 58, 36
1, 13016, Note_off_c, 0, 61, 51
1, 13395, Note_on_c, 0, 61, 94
1, 13398, Note_on_c, 0, 52, 90
1, 13398, Note_on_c, 0, 57, 82
1, 13408, Note_on_c, 0, 45, 83
1, 13415, Note_on_c, 0, 33, 72
1, 13508, Poly_aftertouch_c, 0, 35, 127
1, 13524, Control_c, 0, 64, 99
1, 13539, Control_c, 0, 64, 85
1, 13548, Poly_aftertouch_c, 0, 35, 0
1, 13554, Control_c, 0, 64, 74
1, 13569, Control_c, 0, 64, 64
1, 13584, Control_c, 0, 64, 55
1, 13599, Control_c, 0, 64, 36
1, 13613, Control_c, 0, 64, 0
1, 13835, Control_c, 0, 64, 11
1, 13850, Control_c, 0, 64, 19
1, 13865, Control_c, 0, 64, 25
1, 13880, Control_c, 0, 64, 31
1, 13895, Control_c, 0, 64, 37
1, 13909, Control_c, 0, 64, 43
1, 13924, Control_c, 0, 64, 51
1, 13939, Control_c, 0, 64, 58
1, 13954, Control_c, 0, 64, 61
1, 13969, Control_c, 0, 64, 62
1, 13983, Control_c, 0, 64, 63
1, 13998, Control_c, 0, 64, 64
1, 14013, Control_c, 0, 64, 66
1, 14028, Control_c, 0, 64, 68
1, 14043, Control_c, 0, 64, 72
1, 14058, Control_c, 0, 64, 75
1, 14073, Control_c, 0, 64, 79
1, 14087, Control_c, 0, 64, 83
1, 14102, Control_c, 0, 64, 89
1, 14117, Control_c, 0, 64, 93
1, 14132, Control_c, 0, 64, 98
1, 14147, Control_c, 0, 64, 104
1, 14162, Control_c, 0, 64, 113
1, 14176, Control_c, 0, 64, 127
1, 14186, Note_off_c, 0, 33, 34
1, 14417, Note_off_c, 0, 45, 0
1, 14454, Poly_aftertouch_c, 0, 45, 127
1, 14769, Note_off_c, 0, 52, 33
1, 14796, Poly_aftertouch_c, 0, 45, 0
1, 14991, Note_off_c, 0, 57, 31
1, 15060, Note_off_c, 0, 61, 28
1, 15443, Note_on_c, 0, 33, 36
1, 15875, Note_on_c, 0, 40, 37
1, 16178, Note_on_c, 0, 45, 35
1, 16396, Note_on_c, 0, 52, 43
1, 16642, Note_on_c, 0, 57, 42
1, 16815, Note_on_c, 0, 59, 44
1, 16840, Note_off_c, 0, 57, 50
1, 16869, Note_off_c, 0, 52, 40
1, 16970, Note_off_c, 0, 59, 58
1, 16994, Note_on_c, 0, 62, 48
1, 17129, Note_off_c, 0, 62, 60
1, 17173, Note_on_c, 0, 61, 48
1, 17266, Control_c, 0, 64, 122
1, 17281, Control_c, 0, 64, 81
1, 17296, Control_c, 0, 64, 66
1, 17311, Control_c, 0, 64, 60
1, 17325, Control_c, 0, 64, 57
1, 17350, Note_on_c, 0, 64, 50
1, 17355, Control_c, 0, 64, 59
1, 17370, Control_c, 0, 64, 63
1, 17385, Control_c, 0, 64, 70
1, 17399, Control_c, 0, 64, 82
1, 17400, Note_off_c, 0, 61, 53
1, 17414, Control_c, 0, 64, 98
1, 17429, Control_c, 0, 64, 119
1, 17444, Control_c, 0, 64, 127
1, 17498, Note_off_c, 0, 64, 57
1, 17515, Note_on_c, 0, 69, 51
1, 17645, Note_off_c, 0, 69, 61
1, 17679, Note_on_c, 0, 71, 42
1, 17808, Note_off_c, 0, 71, 64
1, 17828, Note_on_c, 0, 74, 49
1, 17915, Note_off_c, 0, 74, 61
1, 17981, Note_on_c, 0, 73, 52
1, 18141, Note_on_c, 0, 76, 53
1, 18179, Note_off_c, 0, 73, 61
1, 18276, Note_off_c, 0, 76, 60
1, 18294, Note_on_c, 0, 81, 56
1, 18395, Note_off_c, 0, 81, 59
1, 18454, Note_on_c, 0, 83, 47
1, 18592, Note_off_c, 0, 83, 66
1, 18603, Note_on_c, 0, 86, 59
1, 18685, Note_off_c, 0, 86, 52
1, 18774, Note_on_c, 0, 85, 48
1, 18948, Note_on_c, 0, 88, 49
1, 18997, Note_off_c, 0, 85, 53
1, 19136, Note_off_c, 0, 88, 53
1, 19144, Note_on_c, 0, 93, 53
1, 19281, Note_off_c, 0, 93, 55
1, 19375, Note_on_c, 0, 95, 56
1, 19671, Note_on_c, 0, 98, 42
1, 19676, Note_off_c, 0, 95, 39
1, 19923, Note_off_c, 0, 98, 39
1, 20205, Note_off_c, 0, 33, 22
1, 20244, Note_on_c, 0, 97, 39
1, 20411, Note_off_c, 0, 97, 41
1, 20473, Note_off_c, 0, 45, 19
1, 20531, Note_off_c, 0, 40, 25
1, 21248, Control_c, 0, 64, 110
1, 21262, Control_c, 0, 64, 103
1, 21277, Control_c, 0, 64, 99
1, 21292, Control_c, 0, 64, 95
1, 21307, Control_c, 0, 64, 91
1, 21322, Control_c, 0, 64, 88
1, 21336, Control_c, 0, 64, 86
1, 21351, Control_c, 0, 64, 83
1, 21366, Control_c, 0, 64, 81
1, 21381, Control_c, 0, 64, 78
1, 21396, Control_c, 0, 64, 76
1, 21411, Control_c, 0, 64, 74
1, 21425, Control_c, 0, 64, 73
1, 21440, Control_c, 0, 64, 71
1, 21455, Control_c, 0, 64, 70
1, 21470, Control_c, 0, 64, 68
1, 21485, Control_c, 0, 64, 67
1, 21499, Control_c, 0, 64, 66
1, 21515, Control_c, 0, 64, 65
1, 21530, Control_c, 0, 64, 64
1, 21545, Control_c, 0, 64, 63
1, 21560, Control_c, 0, 64, 63
1, 21575, Control_c, 0, 64, 62
1, 21589, Control_c, 0, 64, 61
1, 21604, Control_c, 0, 64, 60
1, 21619, Control_c, 0, 64, 59
1, 21633, Control_c, 0, 64, 58
1, 21648, Control_c, 0, 64, 56
1, 21663, Control_c, 0, 64, 55
1, 21678, Control_c, 0, 64, 54
1, 21693, Control_c, 0, 64, 53
1, 21707, Control_c, 0, 64, 52
1, 21722, Control_c, 0, 64, 51
1, 21745, Control_c, 0, 64, 51
1, 21760, Control_c, 0, 64, 50
1, 21775, Control_c, 0, 64, 50
1, 21789, Control_c, 0, 64, 49
1, 21804, Control_c, 0, 64, 49
1, 21819, Control_c, 0, 64, 48
1, 21848, Control_c, 0, 64, 48
1, 21863, Control_c, 0, 64, 47
1, 21878, Control_c, 0, 64, 47
1, 21893, Control_c, 0, 64, 46
1, 21922, Control_c, 0, 64, 46
1, 21952, Control_c, 0, 64, 45
1, 21981, Control_c, 0, 64, 45
1, 22026, Control_c, 0, 64, 44
1, 22040, Control_c, 0, 64, 44
1, 22055, Control_c, 0, 64, 43
1, 22070, Control_c, 0, 64, 43
1, 22085, Control_c, 0, 64, 42
1, 22100, Control_c, 0, 64, 41
1, 22115, Control_c, 0, 64, 40
1, 22130, Control_c, 0, 64, 39
1, 22145, Control_c, 0, 64, 38
1, 22159, Control_c, 0, 64, 37
1, 22174, Control_c, 0, 64, 36
1, 22189, Control_c, 0, 64, 34
1, 22204, Control_c, 0, 64, 33
1, 22219, Control_c, 0, 64, 32
1, 22233, Control_c, 0, 64, 31
1, 22248, Control_c, 0, 64, 30
1, 22263, Control_c, 0, 64, 28
1, 22279, Control_c, 0, 64, 27
1, 22294, Control_c, 0, 64, 26
1, 22309, Control_c, 0, 64, 23
1, 22324, Control_c, 0, 64, 18
1, 22339, Control_c, 0, 64, 0
1, 22583, Control_c, 0, 64, 16
1, 22598, Control_c, 0, 64, 24
1, 22613, Control_c, 0, 64, 30
1, 22628, Control_c, 0, 64, 35
1, 22643, Control_c, 0, 64, 42
1, 22658, Control_c, 0, 64, 48
1, 22672, Control_c, 0, 64, 55
1, 22687, Control_c, 0, 64, 59
1, 22702, Control_c, 0, 64, 62
1, 22717, Control_c, 0, 64, 63
1, 22732, Control_c, 0, 64, 64
1, 22746, Control_c, 0, 64, 65
1, 22761, Control_c, 0, 64, 65
1, 22776, Control_c, 0, 64, 66
1, 22790, Control_c, 0, 64, 67
1, 22805, Control_c, 0, 64, 68
1, 22820, Control_c, 0, 64, 69
1, 22835, Control_c, 0, 64, 70
1, 22864, Control_c, 0, 64, 71
1, 22909, Control_c, 0, 64, 71
1, 22914, Note_on_c, 0, 64, 75
1, 22920, Note_on_c, 0, 49, 55
1, 22923, Note_on_c, 0, 37, 50
1, 22923, Note_on_c, 0, 52, 68
1, 22924, Control_c, 0, 64, 72
1, 22938, Control_c, 0, 64, 72
1, 22968, Control_c, 0, 64, 73
1, 23012, Control_c, 0, 64, 73
1, 23030, Note_on_c, 0, 59, 83
1, 23060, Note_off_c, 0, 64, 63
1, 23102, Control_c, 0, 64, 73
1, 23117, Control_c, 0, 64, 72
1, 23132, Control_c, 0, 64, 71
1, 23147, Control_c, 0, 64, 70
1, 23161, Control_c, 0, 64, 67
1, 23176, Control_c, 0, 64, 64
1, 23191, Control_c, 0, 64, 59
1, 23206, Control_c, 0, 64, 46
1, 23221, Control_c, 0, 64, 29
1, 23243, Control_c, 0, 64, 0
1, 23332, Control_c, 0, 64, 23
1, 23347, Control_c, 0, 64, 38
1, 23361, Control_c, 0, 64, 53
1, 23376, Control_c, 0, 64, 67
1, 23391, Control_c, 0, 64, 88
1, 23406, Control_c, 0, 64, 127
1, 23647, Note_off_c, 0, 49, 49
1, 23683, Note_on_c, 0, 57, 80
1, 23716, Note_off_c, 0, 59, 63
1, 23746, Control_c, 0, 64, 97
1, 23761, Control_c, 0, 64, 75
1, 23776, Control_c, 0, 64, 64
1, 23791, Control_c, 0, 64, 53
1, 23805, Control_c, 0, 64, 41
1, 23820, Control_c, 0, 64, 39
1, 23835, Control_c, 0, 64, 44
1, 23850, Control_c, 0, 64, 52
1, 23865, Control_c, 0, 64, 63
1, 23880, Control_c, 0, 64, 83
1, 23883, Note_off_c, 0, 52, 37
1, 23895, Control_c, 0, 64, 117
1, 23910, Control_c, 0, 64, 127
1, 23932, Note_off_c, 0, 57, 53
1, 24345, Note_on_c, 0, 56, 78
1, 24354, Note_on_c, 0, 40, 58
1, 24355, Note_on_c, 0, 49, 65
1, 24407, Control_c, 0, 64, 108
1, 24422, Control_c, 0, 64, 97
1, 24436, Control_c, 0, 64, 89
1, 24451, Control_c, 0, 64, 82
1, 24466, Control_c, 0, 64, 76
1, 24481, Control_c, 0, 64, 71
1, 24496, Control_c, 0, 64, 67
1, 24510, Control_c, 0, 64, 63
1, 24525, Control_c, 0, 64, 59
1, 24540, Control_c, 0, 64, 52
1, 24546, Note_off_c, 0, 37, 37
1, 24555, Control_c, 0, 64, 43
1, 24569, Control_c, 0, 64, 32
1, 24584, Control_c, 0, 64, 15
1, 24599, Control_c, 0, 64, 0
1, 24785, Control_c, 0, 64, 11
1, 24800, Control_c, 0, 64, 20
1, 24815, Control_c, 0, 64, 25
1, 24830, Control_c, 0, 64, 30
1, 24845, Control_c, 0, 64, 34
1, 24859, Control_c, 0, 64, 37
1, 24874, Control_c, 0, 64, 40
1, 24889, Control_c, 0, 64, 43
1, 24904, Control_c, 0, 64, 44
1, 24933, Control_c, 0, 64, 43
1, 24948, Control_c, 0, 64, 42
1, 24963, Control_c, 0, 64, 41
1, 24978, Control_c, 0, 64, 39
1, 24992, Control_c, 0, 64, 38
1, 25007, Control_c, 0, 64, 36
1, 25022, Control_c, 0, 64, 35
1, 25037, Control_c, 0, 64, 33
1, 25045, Note_on_c, 0, 55, 76
1, 25052, Control_c, 0, 64, 31
1, 25066, Control_c, 0, 64, 30
1, 25081, Control_c, 0, 64, 28
1, 25096, Control_c, 0, 64, 27
1, 25111, Control_c, 0, 64, 25
1, 25126, Note_off_c, 0, 56, 59
1, 25126, Control_c, 0, 64, 24
1, 25141, Control_c, 0, 64, 24
1, 25215, Control_c, 0, 64, 24
1, 25230, Control_c, 0, 64, 25
1, 25245, Control_c, 0, 64, 26
1, 25259, Control_c, 0, 64, 27
1, 25274, Control_c, 0, 64, 29
1, 25289, Control_c, 0, 64, 32
1, 25304, Control_c, 0, 64, 35
1, 25319, Control_c, 0, 64, 40
1, 25333, Control_c, 0, 64, 44
1, 25348, Control_c, 0, 64, 49
1, 25363, Control_c, 0, 64, 55
1, 25377, Control_c, 0, 64, 59
1, 25392, Control_c, 0, 64, 62
1, 25407, Control_c, 0, 64, 65
1, 25422, Control_c, 0, 64, 67
1, 25437, Control_c, 0, 64, 69
1, 25451, Control_c, 0, 64, 71
1, 25466, Control_c, 0, 64, 72
1, 25489, Control_c, 0, 64, 73
1, 25504, Control_c, 0, 64, 75
1, 25519, Control_c, 0, 64, 76
1, 25534, Control_c, 0, 64, 77
1, 25549, Control_c, 0, 64, 77
1, 25558, Note_off_c, 0, 55, 36
1, 25564, Control_c, 0, 64, 78
1, 25579, Control_c, 0, 64, 78
1, 25729, Note_on_c, 0, 59, 72
1, 25731, Note_on_c, 0, 56, 61
1, 25771, Note_off_c, 0, 56, 65
1, 25786, Control_c, 0, 64, 78
1, 25801, Control_c, 0, 64, 77
1, 25815, Control_c, 0, 64, 77
1, 25830, Control_c, 0, 64, 75
1, 25845, Control_c, 0, 64, 74
1, 25849, Note_on_c, 0, 55, 69
1, 25851, Note_on_c, 0, 58, 76
1, 25860, Control_c, 0, 64, 73
1, 25872, Note_off_c, 0, 59, 60
1, 25875, Control_c, 0, 64, 71
1, 25889, Control_c, 0, 64, 69
1, 25904, Control_c, 0, 64, 68
1, 25919, Control_c, 0, 64, 66
1, 25934, Control_c, 0, 64, 64
1, 25948, Control_c, 0, 64, 63
1, 25963, Control_c, 0, 64, 62
1, 25978, Control_c, 0, 64, 60
1, 25993, Control_c, 0, 64, 57
1, 26008, Control_c, 0, 64, 53
1, 26023, Control_c, 0, 64, 49
1, 26038, Control_c, 0, 64, 44
1, 26053, Control_c, 0, 64, 40
1, 26068, Control_c, 0, 64, 38
1, 26082, Control_c, 0, 64, 36
1, 26097, Control_c, 0, 64, 35
1, 26112, Control_c, 0, 64, 34
1, 26127, Control_c, 0, 64, 33
1, 26141, Control_c, 0, 64, 33
1, 26156, Control_c, 0, 64, 32
1, 26171, Control_c, 0, 64, 32
1, 26215, Control_c, 0, 64, 31
1, 26250, Note_on_c, 0, 38, 62
1, 26342, Note_on_c, 0, 39, 69
1, 26342, Control_c, 0, 64, 31
1, 26361, Note_off_c, 0, 40, 40
1, 26378, Note_off_c, 0, 38, 64
1, 26416, Control_c, 0, 64, 30
1, 26435, Note_on_c, 0, 42, 72
1, 26444, Note_off_c, 0, 39, 65
1, 26446, Control_c, 0, 64, 30
1, 26491, Control_c, 0, 64, 29
1, 26505, Control_c, 0, 64, 29
1, 26520, Control_c, 0, 64, 28
1, 26527, Note_on_c, 0, 40, 76
1, 26535, Control_c, 0, 64, 28
1, 26537, Note_off_c, 0, 42, 58
1, 26550, Control_c, 0, 64, 26
1, 26564, Control_c, 0, 64, 23
1, 26579, Control_c, 0, 64, 17
1, 26594, Control_c, 0, 64, 0
1, 26756, Control_c, 0, 64, 18
1, 26771, Control_c, 0, 64, 28
1, 26786, Control_c, 0, 64, 36
1, 26801, Control_c, 0, 64, 45
1, 26816, Control_c, 0, 64, 54
1, 26831, Control_c, 0, 64, 61
1, 26846, Control_c, 0, 64, 66
1, 26861, Control_c, 0, 64, 69
1, 26875, Control_c, 0, 64, 70
1, 26890, Control_c, 0, 64, 70
1, 27007, Note_on_c, 0, 39, 70
1, 27014, Note_off_c, 0, 40, 63
1, 27042, Note_off_c, 0, 39, 61
1, 27045, Control_c, 0, 64, 70
1, 27060, Control_c, 0, 64, 69
1, 27075, Control_c, 0, 64, 68
1, 27090, Control_c, 0, 64, 66
1, 27106, Control_c, 0, 64, 65
1, 27121, Control_c, 0, 64, 63
1, 27133, Note_on_c, 0, 39, 62
1, 27135, Control_c, 0, 64, 59
1, 27150, Control_c, 0, 64, 55
1, 27165, Control_c, 0, 64, 50
1, 27180, Control_c, 0, 64, 45
1, 27194, Control_c, 0, 64, 41
1, 27209, Control_c, 0, 64, 36
1, 27224, Control_c, 0, 64, 28
1, 27239, Control_c, 0, 64, 17
1, 27254, Control_c, 0, 64, 0
1, 27794, Note_off_c, 0, 39, 58
1, 27816, Note_on_c, 0, 34, 42
1, 27938, Note_off_c, 0, 34, 60
1, 27950, Note_on_c, 0, 39, 43
1, 28420, Note_off_c, 0, 49, 41
1, 28842, Note_off_c, 0, 58, 26
1, 28892, Note_off_c, 0, 39, 36
1, 29165, Control_c, 0, 64, 11
1, 29180, Control_c, 0, 64, 18
1, 29195, Control_c, 0, 64, 23
1, 29210, Control_c, 0, 64, 28
1, 29232, Control_c, 0, 64, 33
1, 29247, Control_c, 0, 64, 38
1, 29262, Control_c, 0, 64, 43
1, 29277, Control_c, 0, 64, 47
1, 29292, Control_c, 0, 64, 51
1, 29306, Control_c, 0, 64, 54
1, 29321, Control_c, 0, 64, 56
1, 29336, Control_c, 0, 64, 57
1, 29350, Control_c, 0, 64, 58
1, 29365, Control_c, 0, 64, 59
1, 29380, Control_c, 0, 64, 59
1, 29410, Control_c, 0, 64, 60
1, 29424, Control_c, 0, 64, 60
1, 29439, Control_c, 0, 64, 61
1, 29454, Control_c, 0, 64, 62
1, 29484, Control_c, 0, 64, 62
1, 29796, Control_c, 0, 64, 62
1, 29883, Note_on_c, 0, 67, 43
1, 29885, Control_c, 0, 64, 61
1, 29929, Control_c, 0, 64, 61
1, 29944, Control_c, 0, 64, 60
1, 29981, Control_c, 0, 64, 59
1, 29996, Control_c, 0, 64, 57
1, 30011, Control_c, 0, 64, 54
1, 30026, Control_c, 0, 64, 50
1, 30041, Control_c, 0, 64, 46
1, 30055, Control_c, 0, 64, 46
1, 30070, Control_c, 0, 64, 47
1, 30085, Control_c, 0, 64, 49
1, 30099, Control_c, 0, 64, 52
1, 30114, Control_c, 0, 64, 57
1, 30129, Control_c, 0, 64, 62
1, 30144, Control_c, 0, 64, 65
1, 30159, Control_c, 0, 64, 68
1, 30173, Control_c, 0, 64, 71
1, 30188, Control_c, 0, 64, 73
1, 30203, Control_c, 0, 64, 75
1, 30218, Control_c, 0, 64, 79
1, 30233, Control_c, 0, 64, 83
1, 30247, Control_c, 0, 64, 87
1, 30262, Control_c, 0, 64, 91
1, 30277, Control_c, 0, 64, 94
1, 30292, Control_c, 0, 64, 98
1, 30308, Control_c, 0, 64, 105
1, 30323, Control_c, 0, 64, 127
1, 30664, Control_c, 0, 67, 13
1, 30678, Control_c, 0, 67, 22
1, 30693, Control_c, 0, 67, 34
1, 30708, Control_c, 0, 67, 49
1, 30730, Control_c, 0, 67, 64
1, 30745, Control_c, 0, 67, 80
1, 30760, Control_c, 0, 67, 95
1, 30775, Control_c, 0, 67, 112
1, 30789, Control_c, 0, 67, 127
1, 31347, Note_off_c, 0, 55, 38
1, 31352, Control_c, 0, 64, 122
1, 31367, Control_c, 0, 64, 111
1, 31382, Control_c, 0, 64, 105
1, 31388, Note_on_c, 0, 66, 39
1, 31397, Control_c, 0, 64, 99
1, 31400, Note_on_c, 0, 54, 32
1, 31412, Control_c, 0, 64, 94
1, 31426, Control_c, 0, 64, 89
1, 31434, Note_off_c, 0, 67, 35
1, 31441, Control_c, 0, 64, 85
1, 31456, Control_c, 0, 64, 80
1, 31478, Control_c, 0, 64, 74
1, 31493, Control_c, 0, 64, 68
1, 31508, Control_c, 0, 64, 62
1, 31523, Control_c, 0, 64, 53
1, 31538, Control_c, 0, 64, 35
1, 31552, Control_c, 0, 64, 16
1, 31567, Control_c, 0, 64, 10
1, 31582, Control_c, 0, 64, 11
1, 31597, Control_c, 0, 64, 16
1, 31612, Control_c, 0, 64, 24
1, 31626, Control_c, 0, 64, 34
1, 31641, Control_c, 0, 64, 43
1, 31656, Control_c, 0, 64, 52
1, 31671, Control_c, 0, 64, 60
1, 31681, Note_off_c, 0, 54, 44
1, 31686, Control_c, 0, 64, 65
1, 31700, Control_c, 0, 64, 69
1, 31715, Control_c, 0, 64, 72
1, 31730, Control_c, 0, 64, 76
1, 31737, Note_off_c, 0, 66, 42
1, 31745, Control_c, 0, 64, 79
1, 31759, Control_c, 0, 64, 82
1, 31774, Control_c, 0, 64, 83
1, 31789, Control_c, 0, 64, 84
1, 31804, Control_c, 0, 64, 85
1, 31819, Control_c, 0, 64, 85
1, 32131, Control_c, 0, 64, 85
1, 32176, Control_c, 0, 64, 84
1, 32205, Control_c, 0, 64, 84
1, 32228, Control_c, 0, 64, 83
1, 32243, Control_c, 0, 64, 83
1, 32272, Control_c, 0, 64, 82
1, 32287, Control_c, 0, 64, 82
1, 32301, Control_c, 0, 64, 81
1, 32316, Control_c, 0, 64, 81
1, 32331, Control_c, 0, 64, 80
1, 32346, Control_c, 0, 64, 80
1, 32361, Control_c, 0, 64, 79
1, 32375, Control_c, 0, 64, 79
1, 32390, Control_c, 0, 64, 78
1, 32405, Control_c, 0, 64, 77
1, 32420, Control_c, 0, 64, 77
1, 32435, Control_c, 0, 64, 76
1, 32450, Control_c, 0, 64, 75
1, 32465, Control_c, 0, 64, 74
1, 32477, Note_on_c, 0, 75, 41
1, 32479, Note_on_c, 0, 66, 43
1, 32480, Control_c, 0, 64, 73
1, 32494, Note_on_c, 0, 39, 30
1, 32494, Control_c, 0, 64, 72
1, 32498, Note_on_c, 0, 51, 24
1, 32501, Note_on_c, 0, 63, 16
1, 32509, Control_c, 0, 64, 71
1, 32524, Control_c, 0, 64, 70
1, 32539, Control_c, 0, 64, 69
1, 32549, Note_off_c, 0, 66, 0
1, 32549, Note_on_c, 0, 66, 3
1, 32554, Control_c, 0, 64, 67
1, 32569, Control_c, 0, 64, 66
1, 32583, Control_c, 0, 64, 64
1, 32598, Control_c, 0, 64, 60
1, 32613, Control_c, 0, 64, 54
1, 32626, Note_on_c, 0, 70, 54
1, 32628, Control_c, 0, 64, 44
1, 32643, Control_c, 0, 64, 34
1, 32657, Control_c, 0, 64, 28
1, 32672, Control_c, 0, 64, 27
1, 32687, Control_c, 0, 64, 28
1, 32703, Control_c, 0, 64, 30
1, 32717, Control_c, 0, 64, 35
1, 32718, Note_off_c, 0, 75, 34
1, 32732, Control_c, 0, 64, 42
1, 32747, Control_c, 0, 64, 50
1, 32762, Control_c, 0, 64, 57
1, 32777, Control_c, 0, 64, 61
1, 32791, Control_c, 0, 64, 64
1, 32806, Control_c, 0, 64, 66
1, 32821, Control_c, 0, 64, 70
1, 32836, Control_c, 0, 64, 75
1, 32851, Control_c, 0, 64, 79
1, 32865, Control_c, 0, 64, 82
1, 32880, Control_c, 0, 64, 84
1, 32895, Control_c, 0, 64, 87
1, 32910, Control_c, 0, 64, 91
1, 32924, Control_c, 0, 64, 95
1, 32926, Note_off_c, 0, 39, 41
1, 32939, Control_c, 0, 64, 98
1, 32954, Control_c, 0, 64, 100
1, 32974, Note_off_c, 0, 63, 46
1, 32977, Control_c, 0, 64, 101
1, 32992, Control_c, 0, 64, 103
1, 33006, Control_c, 0, 64, 104
1, 33036, Control_c, 0, 64, 105
1, 33083, Note_off_c, 0, 66, 40
1, 33091, Note_off_c, 0, 51, 43
1, 33184, Control_c, 0, 64, 104
1, 33198, Control_c, 0, 64, 103
1, 33213, Control_c, 0, 64, 101
1, 33228, Control_c, 0, 64, 100
1, 33243, Control_c, 0, 64, 99
1, 33258, Control_c, 0, 64, 97
1, 33273, Control_c, 0, 64, 96
1, 33287, Control_c, 0, 64, 95
1, 33302, Control_c, 0, 64, 93
1, 33317, Control_c, 0, 64, 91
1, 33332, Control_c, 0, 64, 90
1, 33347, Control_c, 0, 64, 88
1, 33362, Control_c, 0, 64, 86
1, 33377, Control_c, 0, 64, 84
1, 33391, Control_c, 0, 64, 82
1, 33406, Control_c, 0, 64, 81
1, 33421, Control_c, 0, 64, 79
1, 33436, Control_c, 0, 64, 77
1, 33450, Control_c, 0, 64, 74
1, 33465, Control_c, 0, 64, 71
1, 33480, Control_c, 0, 64, 65
1, 33496, Control_c, 0, 64, 57
1, 33511, Control_c, 0, 64, 43
1, 33512, Note_on_c, 0, 42, 35
1, 33526, Control_c, 0, 64, 28
1, 33541, Control_c, 0, 64, 19
1, 33570, Control_c, 0, 64, 21
1, 33585, Control_c, 0, 64, 26
1, 33600, Control_c, 0, 64, 34
1, 33614, Control_c, 0, 64, 43
1, 33629, Control_c, 0, 64, 53
1, 33644, Control_c, 0, 64, 60
1, 33659, Control_c, 0, 64, 65
1, 33674, Control_c, 0, 64, 69
1, 33688, Control_c, 0, 64, 72
1, 33703, Control_c, 0, 64, 75
1, 33726, Control_c, 0, 64, 77
1, 33726, Note_on_c, 0, 49, 38
1, 33741, Control_c, 0, 64, 79
1, 33755, Control_c, 0, 64, 80
1, 33770, Control_c, 0, 64, 80
1, 33785, Control_c, 0, 64, 81
1, 33791, Note_off_c, 0, 70, 37
1, 33800, Control_c, 0, 64, 81
1, 33829, Control_c, 0, 64, 82
1, 33839, Note_on_c, 0, 54, 41
1, 33933, Control_c, 0, 64, 82
1, 33934, Note_on_c, 0, 58, 44
1, 33977, Control_c, 0, 64, 83
1, 34015, Note_on_c, 0, 61, 46
1, 34021, Control_c, 0, 64, 83
1, 34051, Control_c, 0, 64, 84
1, 34065, Control_c, 0, 64, 84
1, 34080, Control_c, 0, 64, 85
1, 34092, Note_on_c, 0, 66, 50
1, 34110, Control_c, 0, 64, 85
1, 34140, Control_c, 0, 64, 86
1, 34186, Note_off_c, 0, 54, 39
1, 34196, Note_on_c, 0, 70, 50
1, 34304, Control_c, 0, 64, 86
1, 34334, Control_c, 0, 64, 87
1, 34349, Control_c, 0, 64, 88
1, 34363, Control_c, 0, 64, 90
1, 34378, Control_c, 0, 64, 92
1, 34393, Control_c, 0, 64, 95
1, 34408, Control_c, 0, 64, 97
1, 34423, Control_c, 0, 64, 99
1, 34437, Control_c, 0, 64, 101
1, 34452, Control_c, 0, 64, 105
1, 34474, Control_c, 0, 64, 114
1, 34489, Control_c, 0, 64, 127
1, 34513, Note_off_c, 0, 49, 40
1, 34766, Note_off_c, 0, 42, 30
1, 35506, Note_off_c, 0, 70, 35
1, 35589, Note_off_c, 0, 58, 35
1, 35780, Note_off_c, 0, 66, 31
1, 35804, Note_off_c, 0, 61, 33
1, 36030, Note_on_c, 0, 30, 32
1, 36592, Note_on_c, 0, 42, 38
1, 36969, Note_on_c, 0, 49, 34
1, 37257, Note_on_c, 0, 54, 38
1, 37494, Note_on_c, 0, 56, 47
1, 37524, Note_off_c, 0, 49, 42
1, 37544, Note_off_c, 0, 54, 42
1, 37688, Note_off_c, 0, 56, 64
1, 37720, Note_on_c, 0, 59, 48
1, 37869, Note_off_c, 0, 59, 56
1, 37913, Note_on_c, 0, 58, 43
1, 38047, Control_c, 0, 64, 82
1, 38062, Control_c, 0, 64, 67
1, 38077, Control_c, 0, 64, 59
1, 38092, Control_c, 0, 64, 51
1, 38099, Note_off_c, 0, 58, 53
1, 38101, Note_on_c, 0, 61, 48
1, 38107, Control_c, 0, 64, 48
1, 38121, Control_c, 0, 64, 51
1, 38136, Control_c, 0, 64, 57
1, 38151, Control_c, 0, 64, 63
1, 38166, Control_c, 0, 64, 70
1, 38181, Control_c, 0, 64, 80
1, 38195, Control_c, 0, 64, 89
1, 38218, Control_c, 0, 64, 97
1, 38233, Control_c, 0, 64, 105
1, 38247, Control_c, 0, 64, 119
1, 38262, Control_c, 0, 64, 127
1, 38270, Note_off_c, 0, 61, 64
1, 38289, Note_on_c, 0, 66, 54
1, 38382, Note_off_c, 0, 66, 62
1, 38456, Note_on_c, 0, 68, 55
1, 38608, Note_off_c, 0, 68, 60
1, 38626, Note_on_c, 0, 71, 51
1, 38702, Note_off_c, 0, 71, 63
1, 38788, Note_on_c, 0, 70, 47
1, 38949, Note_on_c, 0, 73, 50
1, 39011, Note_off_c, 0, 70, 37
1, 39107, Note_off_c, 0, 73, 59
1, 39119, Note_on_c, 0, 78, 51
1, 39202, Note_off_c, 0, 78, 56
1, 39279, Note_on_c, 0, 80, 56
1, 39421, Note_off_c, 0, 80, 63
1, 39435, Note_on_c, 0, 83, 51
1, 39507, Note_off_c, 0, 83, 58
1, 39595, Note_on_c, 0, 82, 55
1, 39786, Note_on_c, 0, 85, 50
1, 39867, Note_off_c, 0, 82, 62
1, 39898, Note_off_c, 0, 30, 22
1, 39992, Note_off_c, 0, 85, 62
1, 39993, Note_on_c, 0, 90, 59
1, 40084, Note_off_c, 0, 90, 65
1, 40228, Note_on_c, 0, 92, 56
1, 40462, Note_off_c, 0, 42, 28
1, 40562, Note_on_c, 0, 95, 47
1, 40631, Note_off_c, 0, 92, 41
1, 41122, Note_off_c, 0, 95, 40
1, 41168, Note_on_c, 0, 94, 36
1, 41515, Note_off_c, 0, 94, 41
1, 41938, Control_c, 0, 64, 108
1, 41960, Control_c, 0, 64, 103
1, 41975, Control_c, 0, 64, 100
1, 41990, Control_c, 0, 64, 98
1, 42004, Control_c, 0, 64, 95
1, 42019, Control_c, 0, 64, 93
1, 42034, Control_c, 0, 64, 91
1, 42049, Control_c, 0, 64, 89
1, 42064, Control_c, 0, 64, 87
1, 42079, Control_c, 0, 64, 85
1, 42093, Control_c, 0, 64, 82
1, 42108, Control_c, 0, 64, 80
1, 42123, Control_c, 0, 64, 78
1, 42138, Control_c, 0, 64, 76
1, 42153, Control_c, 0, 64, 75
1, 42168, Control_c, 0, 64, 73
1, 42182, Control_c, 0, 64, 72
1, 42197, Control_c, 0, 64, 71
1, 42212, Control_c, 0, 64, 69
1, 42227, Control_c, 0, 64, 68
1, 42242, Control_c, 0, 64, 67
1, 42257, Control_c, 0, 64, 66
1, 42272, Control_c, 0, 64, 65
1, 42287, Control_c, 0, 64, 64
1, 42302, Control_c, 0, 64, 63
1, 42317, Control_c, 0, 64, 63
1, 42331, Control_c, 0, 64, 62
1, 42346, Control_c, 0, 64, 61
1, 42361, Control_c, 0, 64, 60
1, 42376, Control_c, 0, 64, 60
1, 42391, Control_c, 0, 64, 59
1, 42406, Control_c, 0, 64, 59
1, 42421, Control_c, 0, 64, 58
1, 42436, Control_c, 0, 64, 57
1, 42450, Control_c, 0, 64, 57
1, 42465, Control_c, 0, 64, 56
1, 42480, Control_c, 0, 64, 55
1, 42495, Control_c, 0, 64, 55
1, 42510, Control_c, 0, 64, 54
1, 42525, Control_c, 0, 64, 53
1, 42540, Control_c, 0, 64, 52
1, 42555, Control_c, 0, 64, 52
1, 42599, Control_c, 0, 64, 51
1, 42628, Control_c, 0, 64, 51
1, 42643, Control_c, 0, 64, 50
1, 42658, Control_c, 0, 64, 50
1, 42673, Control_c, 0, 64, 49
1, 42688, Control_c, 0, 64, 49
1, 42710, Control_c, 0, 64, 48
1, 42725, Control_c, 0, 64, 47
1, 42740, Control_c, 0, 64, 46
1, 42755, Control_c, 0, 64, 45
1, 42770, Control_c, 0, 64, 45
1, 42784, Control_c, 0, 64, 44
1, 42799, Control_c, 0, 64, 44
1, 42814, Control_c, 0, 64, 43
1, 42829, Control_c, 0, 64, 42
1, 42843, Control_c, 0, 64, 41
1, 42858, Control_c, 0, 64, 41
1, 42873, Control_c, 0, 64, 40
1, 42888, Control_c, 0, 64, 39
1, 42903, Control_c, 0, 64, 39
1, 42917, Control_c, 0, 64, 38
1, 42932, Control_c, 0, 64, 37
1, 42947, Control_c, 0, 64, 37
1, 42962, Control_c, 0, 64, 36
1, 42977, Control_c, 0, 64, 35
1, 42991, Control_c, 0, 64, 34
1, 43006, Control_c, 0, 64, 33
1, 43021, Control_c, 0, 64, 32
1, 43035, Control_c, 0, 64, 31
1, 43050, Control_c, 0, 64, 31
1, 43065, Control_c, 0, 64, 29
1, 43081, Control_c, 0, 64, 28
1, 43096, Control_c, 0, 64, 26
1, 43111, Control_c, 0, 64, 25
1, 43125, Control_c, 0, 64, 24
1, 43140, Control_c, 0, 64, 23
1, 43155, Control_c, 0, 64, 22
1, 43170, Control_c, 0, 64, 21
1, 43185, Control_c, 0, 64, 20
1, 43199, Control_c, 0, 64, 19
1, 43214, Control_c, 0, 64, 19
1, 43229, Control_c, 0, 64, 18
1, 43259, Control_c, 0, 64, 17
1, 43273, Control_c, 0, 64, 16
1, 43288, Control_c, 0, 64, 14
1, 43303, Control_c, 0, 64, 11
1, 43318, Control_c, 0, 64, 0
1, 43488, Control_c, 0, 64, 9
1, 43503, Control_c, 0, 64, 19
1, 43518, Control_c, 0, 64, 26
1, 43533, Control_c, 0, 64, 31
1, 43548, Control_c, 0, 64, 37
1, 43563, Control_c, 0, 64, 44
1, 43577, Control_c, 0, 64, 53
1, 43592, Control_c, 0, 64, 60
1, 43607, Control_c, 0, 64, 64
1, 43622, Control_c, 0, 64, 67
1, 43637, Control_c, 0, 64, 68
1, 43652, Control_c, 0, 64, 70
1, 43666, Control_c, 0, 64, 72
1, 43681, Control_c, 0, 64, 76
1, 43696, Control_c, 0, 64, 80
1, 43711, Control_c, 0, 64, 85
1, 43726, Control_c, 0, 64, 91
1, 43740, Control_c, 0, 64, 97
1, 43755, Control_c, 0, 64, 105
1, 43770, Control_c, 0, 64, 114
1, 43785, Control_c, 0, 64, 127
1, 44428, Note_on_c, 0, 37, 27
1, 44430, Note_on_c, 0, 73, 35
1, 44432, Note_on_c, 0, 65, 37
1, 44443, Note_on_c, 0, 49, 14
1, 44456, Note_on_c, 0, 61, 8
1, 44584, Note_on_c, 0, 68, 44
1, 44645, Note_off_c, 0, 73, 32
1, 44801, Note_off_c, 0, 37, 40
1, 44977, Note_off_c, 0, 61, 42
1, 44982, Note_off_c, 0, 49, 45
1, 45007, Note_off_c, 0, 65, 38
1, 45639, Control_c, 0, 64, 113
1, 45648, Note_on_c, 0, 40, 33
1, 45653, Control_c, 0, 64, 103
1, 45668, Control_c, 0, 64, 89
1, 45683, Control_c, 0, 64, 74
1, 45706, Control_c, 0, 64, 63
1, 45721, Control_c, 0, 64, 53
1, 45735, Control_c, 0, 64, 39
1, 45750, Control_c, 0, 64, 25
1, 45765, Control_c, 0, 64, 20
1, 45780, Control_c, 0, 64, 20
1, 45795, Control_c, 0, 64, 26
1, 45809, Control_c, 0, 64, 34
1, 45824, Control_c, 0, 64, 44
1, 45839, Control_c, 0, 64, 55
1, 45853, Control_c, 0, 64, 65
1, 45868, Control_c, 0, 64, 82
1, 45883, Control_c, 0, 64, 93
1, 45898, Control_c, 0, 64, 97
1, 45913, Control_c, 0, 64, 99
1, 45927, Control_c, 0, 64, 101
1, 45932, Note_off_c, 0, 68, 40
1, 45938, Note_on_c, 0, 47, 26
1, 45942, Control_c, 0, 64, 103
1, 45957, Control_c, 0, 64, 105
1, 45972, Control_c, 0, 64, 105
1, 46064, Note_on_c, 0, 52, 34
1, 46119, Note_on_c, 0, 56, 43
1, 46225, Note_on_c, 0, 59, 33
1, 46302, Note_on_c, 0, 64, 42
1, 46450, Note_on_c, 0, 68, 40
1, 46544, Note_off_c, 0, 52, 31
1, 46662, Control_c, 0, 64, 106
1, 46691, Control_c, 0, 64, 108
1, 46706, Control_c, 0, 64, 109
1, 46721, Control_c, 0, 64, 113
1, 46736, Control_c, 0, 64, 115
1, 46750, Control_c, 0, 64, 119
1, 46765, Control_c, 0, 64, 127
1, 46812, Note_off_c, 0, 47, 37
1, 47071, Note_off_c, 0, 40, 23
1, 47660, Note_off_c, 0, 68, 33
1, 47953, Note_off_c, 0, 64, 29
1, 48000, Note_off_c, 0, 56, 28
1, 48144, Note_off_c, 0, 59, 33
1, 48213, Note_on_c, 0, 28, 35
1, 48797, Note_on_c, 0, 40, 42
1, 49215, Note_on_c, 0, 47, 34
1, 49530, Note_on_c, 0, 52, 39
1, 49699, Note_off_c, 0, 47, 41
1, 49793, Note_on_c, 0, 54, 44
1, 49851, Note_off_c, 0, 52, 34
1, 49995, Note_off_c, 0, 54, 55
1, 50006, Note_on_c, 0, 57, 43
1, 50149, Note_off_c, 0, 57, 56
1, 50235, Note_on_c, 0, 56, 46
1, 50332, Control_c, 0, 64, 97
1, 50347, Control_c, 0, 64, 81
1, 50362, Control_c, 0, 64, 68
1, 50377, Control_c, 0, 64, 60
1, 50392, Control_c, 0, 64, 50
1, 50406, Control_c, 0, 64, 40
1, 50421, Control_c, 0, 64, 37
1, 50430, Note_on_c, 0, 59, 46
1, 50436, Control_c, 0, 64, 39
1, 50450, Control_c, 0, 64, 46
1, 50465, Control_c, 0, 64, 55
1, 50480, Control_c, 0, 64, 63
1, 50490, Note_off_c, 0, 56, 35
1, 50495, Control_c, 0, 64, 72
1, 50510, Control_c, 0, 64, 81
1, 50524, Control_c, 0, 64, 86
1, 50539, Control_c, 0, 64, 89
1, 50554, Control_c, 0, 64, 91
1, 50569, Control_c, 0, 64, 93
1, 50584, Control_c, 0, 64, 95
1, 50598, Control_c, 0, 64, 99
1, 50603, Note_off_c, 0, 59, 54
1, 50613, Control_c, 0, 64, 103
1, 50627, Note_on_c, 0, 64, 45
1, 50628, Control_c, 0, 64, 107
1, 50642, Control_c, 0, 64, 111
1, 50657, Control_c, 0, 64, 115
1, 50672, Control_c, 0, 64, 119
1, 50687, Control_c, 0, 64, 127
1, 50771, Note_off_c, 0, 64, 52
1, 50799, Note_on_c, 0, 66, 50
1, 50967, Note_off_c, 0, 66, 54
1, 50976, Note_on_c, 0, 69, 48
1, 51054, Note_off_c, 0, 69, 59
1, 51155, Note_on_c, 0, 68, 46
1, 51320, Note_on_c, 0, 71, 47
1, 51353, Note_off_c, 0, 68, 56
1, 51468, Note_off_c, 0, 71, 62
1, 51490, Note_on_c, 0, 76, 52
1, 51563, Note_off_c, 0, 76, 0
1, 51563, Note_on_c, 0, 76, 6
1, 51628, Note_off_c, 0, 76, 50
1, 51649, Note_on_c, 0, 78, 56
1, 51820, Note_off_c, 0, 78, 64
1, 51830, Note_on_c, 0, 81, 47
1, 51942, Note_off_c, 0, 81, 34
1, 52009, Note_on_c, 0, 80, 47
1, 52195, Note_on_c, 0, 83, 45
1, 52272, Note_off_c, 0, 80, 56
1, 52401, Note_off_c, 0, 83, 49
1, 52419, Note_on_c, 0, 88, 47
1, 52645, Note_off_c, 0, 88, 34
1, 52672, Note_on_c, 0, 90, 49
1, 53006, Note_on_c, 0, 93, 40
1, 53025, Note_off_c, 0, 90, 43
1, 53769, Note_on_c, 0, 92, 46
1, 53784, Note_off_c, 0, 93, 34
1, 54106, Note_off_c, 0, 92, 37
1, 54152, Note_off_c, 0, 28, 36
1, 54198, Note_off_c, 0, 40, 37
1, 54550, Control_c, 0, 64, 119
1, 54564, Control_c, 0, 64, 111
1, 54579, Control_c, 0, 64, 106
1, 54594, Control_c, 0, 64, 101
1, 54608, Control_c, 0, 64, 96
1, 54623, Control_c, 0, 64, 93
1, 54638, Control_c, 0, 64, 90
1, 54653, Control_c, 0, 64, 87
1, 54668, Control_c, 0, 64, 85
1, 54690, Control_c, 0, 64, 83
1, 54705, Control_c, 0, 64, 82
1, 54720, Control_c, 0, 64, 80
1, 54734, Control_c, 0, 64, 79
1, 54749, Control_c, 0, 64, 77
1, 54764, Control_c, 0, 64, 75
1, 54779, Control_c, 0, 64, 74
1, 54794, Control_c, 0, 64, 72
1, 54809, Control_c, 0, 64, 71
1, 54823, Control_c, 0, 64, 69
1, 54838, Control_c, 0, 64, 68
1, 54853, Control_c, 0, 64, 67
1, 54868, Control_c, 0, 64, 66
1, 54883, Control_c, 0, 64, 65
1, 54897, Control_c, 0, 64, 64
1, 54912, Control_c, 0, 64, 63
1, 54927, Control_c, 0, 64, 63
1, 54941, Control_c, 0, 64, 62
1, 54956, Control_c, 0, 64, 61
1, 54971, Control_c, 0, 64, 60
1, 54986, Control_c, 0, 64, 60
1, 55001, Control_c, 0, 64, 59
1, 55015, Control_c, 0, 64, 59
1, 55030, Control_c, 0, 64, 58
1, 55045, Control_c, 0, 64, 57
1, 55061, Control_c, 0, 64, 56
1, 55076, Control_c, 0, 64, 55
1, 55091, Control_c, 0, 64, 55
1, 55135, Control_c, 0, 64, 54
1, 55164, Control_c, 0, 64, 54
1, 55179, Control_c, 0, 64, 53
1, 55194, Control_c, 0, 64, 53
1, 55224, Control_c, 0, 64, 52
1, 55254, Control_c, 0, 64, 52
1, 55283, Control_c, 0, 64, 51
1, 55298, Control_c, 0, 64, 51
1, 55313, Control_c, 0, 64, 50
1, 55328, Control_c, 0, 64, 49
1, 55343, Control_c, 0, 64, 48
1, 55357, Control_c, 0, 64, 48
1, 55372, Control_c, 0, 64, 47
1, 55402, Control_c, 0, 64, 47
1, 55439, Control_c, 0, 64, 46
1, 55468, Control_c, 0, 64, 46
1, 55483, Control_c, 0, 64, 45
1, 55498, Control_c, 0, 64, 45
1, 55528, Control_c, 0, 64, 44
1, 55543, Control_c, 0, 64, 43
1, 55557, Control_c, 0, 64, 43
1, 55572, Control_c, 0, 64, 42
1, 55587, Control_c, 0, 64, 42
1, 55602, Control_c, 0, 64, 41
1, 55617, Control_c, 0, 64, 40
1, 55631, Control_c, 0, 64, 39
1, 55646, Control_c, 0, 64, 38
1, 55661, Control_c, 0, 64, 37
1, 55676, Control_c, 0, 64, 36
1, 55690, Control_c, 0, 64, 35
1, 55705, Control_c, 0, 64, 34
1, 55720, Control_c, 0, 64, 33
1, 55735, Control_c, 0, 64, 31
1, 55750, Control_c, 0, 64, 29
1, 55764, Control_c, 0, 64, 27
1, 55779, Control_c, 0, 64, 26
1, 55794, Control_c, 0, 64, 25
1, 55809, Control_c, 0, 64, 24
1, 55824, Control_c, 0, 64, 22
1, 55838, Control_c, 0, 64, 21
1, 55853, Control_c, 0, 64, 19
1, 55869, Control_c, 0, 64, 17
1, 55884, Control_c, 0, 64, 16
1, 55899, Control_c, 0, 64, 14
1, 55914, Control_c, 0, 64, 14
1, 55929, Control_c, 0, 64, 13
1, 55943, Control_c, 0, 64, 12
1, 55958, Control_c, 0, 64, 9
1, 55974, Control_c, 0, 64, 0
1, 56151, Control_c, 0, 64, 11
1, 56166, Control_c, 0, 64, 22
1, 56188, Control_c, 0, 64, 30
1, 56203, Control_c, 0, 64, 37
1, 56218, Control_c, 0, 64, 45
1, 56233, Control_c, 0, 64, 54
1, 56248, Control_c, 0, 64, 62
1, 56262, Control_c, 0, 64, 66
1, 56277, Control_c, 0, 64, 69
1, 56292, Control_c, 0, 64, 71
1, 56307, Control_c, 0, 64, 73
1, 56322, Control_c, 0, 64, 78
1, 56336, Control_c, 0, 64, 83
1, 56351, Control_c, 0, 64, 87
1, 56366, Control_c, 0, 64, 91
1, 56380, Control_c, 0, 64, 95
1, 56395, Control_c, 0, 64, 98
1, 56410, Control_c, 0, 64, 103
1, 56425, Control_c, 0, 64, 107
1, 56440, Control_c, 0, 64, 111
1, 56455, Control_c, 0, 64, 119
1, 56470, Control_c, 0, 64, 127
1, 56736, Note_on_c, 0, 71, 48
1, 56739, Note_on_c, 0, 59, 38
1, 56743, Note_on_c, 0, 32, 33
1, 56752, Note_on_c, 0, 44, 24
1, 56861, Note_on_c, 0, 66, 61
1, 56907, Note_off_c, 0, 71, 47
1, 57010, Control_c, 0, 64, 117
1, 57025, Control_c, 0, 64, 109
1, 57040, Control_c, 0, 64, 105
1, 57055, Control_c, 0, 64, 100
1, 57070, Control_c, 0, 64, 95
1, 57084, Control_c, 0, 64, 83
1, 57099, Control_c, 0, 64, 70
1, 57114, Control_c, 0, 64, 61
1, 57129, Control_c, 0, 64, 50
1, 57144, Control_c, 0, 64, 42
1, 57158, Control_c, 0, 64, 43
1, 57173, Control_c, 0, 64, 48
1, 57188, Control_c, 0, 64, 56
1, 57203, Control_c, 0, 64, 65
1, 57218, Control_c, 0, 64, 81
1, 57233, Control_c, 0, 64, 109
1, 57248, Control_c, 0, 64, 127
1, 57441, Note_off_c, 0, 32, 39
1, 57474, Note_on_c, 0, 64, 58
1, 57509, Note_off_c, 0, 59, 42
1, 57548, Note_off_c, 0, 66, 49
1, 57654, Note_off_c, 0, 44, 40
1, 57714, Note_off_c, 0, 64, 46
1, 58172, Note_on_c, 0, 63, 61
1, 58181, Note_on_c, 0, 56, 49
1, 58189, Note_on_c, 0, 51, 41
1, 58193, Note_on_c, 0, 47, 42
1, 58199, Note_on_c, 0, 35, 38
1, 58219, Control_c, 0, 64, 117
1, 58233, Control_c, 0, 64, 105
1, 58249, Control_c, 0, 64, 99
1, 58264, Control_c, 0, 64, 93
1, 58279, Control_c, 0, 64, 87
1, 58294, Control_c, 0, 64, 82
1, 58309, Control_c, 0, 64, 76
1, 58323, Control_c, 0, 64, 68
1, 58338, Control_c, 0, 64, 61
1, 58353, Control_c, 0, 64, 50
1, 58368, Control_c, 0, 64, 35
1, 58382, Control_c, 0, 64, 19
1, 58397, Control_c, 0, 64, 17
1, 58412, Control_c, 0, 64, 18
1, 58434, Control_c, 0, 64, 22
1, 58449, Control_c, 0, 64, 29
1, 58464, Control_c, 0, 64, 36
1, 58479, Control_c, 0, 64, 46
1, 58491, Note_off_c, 0, 51, 0
1, 58494, Control_c, 0, 64, 55
1, 58509, Control_c, 0, 64, 63
1, 58524, Control_c, 0, 64, 71
1, 58530, Poly_aftertouch_c, 0, 51, 0
1, 58538, Control_c, 0, 64, 79
1, 58553, Control_c, 0, 64, 81
1, 58568, Control_c, 0, 64, 83
1, 58582, Control_c, 0, 64, 84
1, 58597, Control_c, 0, 64, 85
1, 58612, Control_c, 0, 64, 86
1, 58701, Control_c, 0, 64, 85
1, 58715, Control_c, 0, 64, 84
1, 58730, Control_c, 0, 64, 82
1, 58745, Control_c, 0, 64, 81
1, 58760, Control_c, 0, 64, 79
1, 58775, Control_c, 0, 64, 76
1, 58789, Control_c, 0, 64, 74
1, 58804, Control_c, 0, 64, 69
1, 58810, Note_on_c, 0, 62, 71
1, 58819, Control_c, 0, 64, 63
1, 58820, Note_on_c, 0, 53, 56
1, 58834, Control_c, 0, 64, 53
1, 58849, Control_c, 0, 64, 37
1, 58864, Control_c, 0, 64, 19
1, 58876, Note_off_c, 0, 63, 49
1, 58878, Control_c, 0, 64, 18
1, 58893, Control_c, 0, 64, 18
1, 58893, Control_c, 0, 67, 116
1, 58908, Control_c, 0, 64, 23
1, 58908, Control_c, 0, 67, 102
1, 58923, Control_c, 0, 64, 30
1, 58923, Control_c, 0, 67, 86
1, 58938, Control_c, 0, 64, 39
1, 58938, Control_c, 0, 67, 69
1, 58953, Control_c, 0, 64, 51
1, 58953, Control_c, 0, 67, 50
1, 58968, Control_c, 0, 64, 60
1, 58968, Control_c, 0, 67, 38
1, 58982, Control_c, 0, 64, 68
1, 58982, Control_c, 0, 67, 32
1, 58997, Control_c, 0, 64, 76
1, 58997, Control_c, 0, 67, 30
1, 59012, Control_c, 0, 64, 79
1, 59042, Control_c, 0, 64, 81
1, 59042, Control_c, 0, 67, 32
1, 59057, Control_c, 0, 64, 84
1, 59057, Control_c, 0, 67, 33
1, 59072, Control_c, 0, 64, 88
1, 59072, Control_c, 0, 67, 35
1, 59079, Note_off_c, 0, 53, 36
1, 59087, Control_c, 0, 64, 92
1, 59087, Control_c, 0, 67, 37
1, 59093, Note_off_c, 0, 56, 64
1, 59102, Control_c, 0, 64, 96
1, 59102, Control_c, 0, 67, 38
1, 59117, Control_c, 0, 64, 99
1, 59117, Control_c, 0, 67, 40
1, 59131, Control_c, 0, 64, 103
1, 59131, Control_c, 0, 67, 43
1, 59146, Control_c, 0, 64, 106
1, 59146, Control_c, 0, 67, 49
1, 59161, Control_c, 0, 64, 107
1, 59161, Control_c, 0, 67, 62
1, 59183, Control_c, 0, 67, 75
1, 59197, Note_off_c, 0, 62, 56
1, 59198, Control_c, 0, 64, 108
1, 59198, Control_c, 0, 67, 87
1, 59212, Control_c, 0, 64, 108
1, 59212, Control_c, 0, 67, 99
1, 59227, Control_c, 0, 67, 113
1, 59242, Control_c, 0, 67, 126
1, 59257, Control_c, 0, 67, 127
1, 59421, Note_off_c, 0, 47, 42
1, 59428, Note_on_c, 0, 66, 66
1, 59440, Note_on_c, 0, 56, 50
1, 59441, Note_on_c, 0, 63, 55
1, 59465, Note_off_c, 0, 56, 60
1, 59483, Note_off_c, 0, 66, 54
1, 59494, Note_off_c, 0, 63, 54
1, 59509, Control_c, 0, 64, 106
1, 59524, Control_c, 0, 64, 101
1, 59538, Control_c, 0, 64, 94
1, 59547, Note_on_c, 0, 56, 56
1, 59551, Note_on_c, 0, 65, 68
1, 59553, Control_c, 0, 64, 81
1, 59554, Note_on_c, 0, 62, 59
1, 59568, Control_c, 0, 64, 68
1, 59583, Control_c, 0, 64, 57
1, 59598, Control_c, 0, 64, 39
1, 59612, Control_c, 0, 64, 18
1, 59627, Control_c, 0, 64, 13
1, 59642, Control_c, 0, 64, 15
1, 59657, Control_c, 0, 64, 22
1, 59672, Control_c, 0, 64, 31
1, 59686, Note_off_c, 0, 35, 51
1, 59686, Control_c, 0, 64, 40
1, 59701, Control_c, 0, 64, 49
1, 59717, Control_c, 0, 64, 59
1, 59731, Control_c, 0, 64, 65
1, 59746, Control_c, 0, 64, 70
1, 59761, Control_c, 0, 64, 72
1, 59776, Control_c, 0, 64, 72
1, 59791, Control_c, 0, 64, 74
1, 59806, Control_c, 0, 64, 77
1, 59820, Control_c, 0, 64, 81
1, 59835, Control_c, 0, 64, 84
1, 59847, Note_on_c, 0, 45, 55
1, 59851, Control_c, 0, 64, 86
1, 59856, Note_on_c, 0, 33, 42
1, 59866, Control_c, 0, 64, 88
1, 59881, Control_c, 0, 64, 92
1, 59894, Note_off_c, 0, 33, 52
1, 59895, Control_c, 0, 64, 95
1, 59910, Control_c, 0, 64, 101
1, 59933, Control_c, 0, 64, 105
1, 59939, Note_on_c, 0, 34, 64
1, 59939, Note_off_c, 0, 45, 31
1, 59948, Control_c, 0, 64, 108
1, 59962, Control_c, 0, 64, 108
1, 59969, Note_off_c, 0, 34, 64
1, 60028, Note_on_c, 0, 37, 68
1, 60029, Note_on_c, 0, 49, 72
1, 60036, Control_c, 0, 64, 108
1, 60050, Note_off_c, 0, 49, 64
1, 60051, Control_c, 0, 64, 103
1, 60056, Note_off_c, 0, 37, 65
1, 60066, Control_c, 0, 64, 99
1, 60081, Control_c, 0, 64, 93
1, 60096, Control_c, 0, 64, 87
1, 60110, Control_c, 0, 64, 79
1, 60125, Control_c, 0, 64, 72
1, 60137, Note_on_c, 0, 47, 72
1, 60140, Control_c, 0, 64, 65
1, 60148, Note_on_c, 0, 35, 55
1, 60154, Control_c, 0, 64, 56
1, 60169, Control_c, 0, 64, 39
1, 60184, Control_c, 0, 64, 0
1, 60253, Note_off_c, 0, 62, 38
1, 60255, Note_off_c, 0, 65, 39
1, 60333, Control_c, 0, 64, 20
1, 60347, Control_c, 0, 64, 30
1, 60362, Control_c, 0, 64, 38
1, 60377, Control_c, 0, 64, 47
1, 60388, Note_off_c, 0, 56, 63
1, 60392, Control_c, 0, 64, 58
1, 60407, Control_c, 0, 64, 65
1, 60422, Control_c, 0, 64, 72
1, 60436, Control_c, 0, 64, 77
1, 60451, Control_c, 0, 64, 82
1, 60465, Control_c, 0, 64, 88
1, 60479, Control_c, 0, 64, 96
1, 60494, Control_c, 0, 64, 103
1, 60509, Control_c, 0, 64, 108
1, 60524, Control_c, 0, 64, 113
1, 60539, Control_c, 0, 64, 117
1, 60554, Control_c, 0, 64, 127
1, 60586, Note_on_c, 0, 63, 67
1, 60591, Note_on_c, 0, 57, 54
1, 60594, Note_on_c, 0, 54, 55
1, 60735, Note_off_c, 0, 57, 60
1, 60792, Note_off_c, 0, 54, 62
1, 60858, Control_c, 0, 64, 113
1, 60873, Control_c, 0, 64, 103
1, 60888, Control_c, 0, 64, 96
1, 60894, Note_on_c, 0, 56, 66
1, 60896, Note_on_c, 0, 62, 73
1, 60900, Note_on_c, 0, 53, 58
1, 60902, Note_off_c, 0, 63, 63
1, 60903, Control_c, 0, 64, 86
1, 60918, Control_c, 0, 64, 74
1, 60932, Control_c, 0, 64, 63
1, 60947, Control_c, 0, 64, 52
1, 60962, Control_c, 0, 64, 34
1, 60977, Control_c, 0, 64, 23
1, 60992, Control_c, 0, 64, 24
1, 61007, Control_c, 0, 64, 28
1, 61022, Control_c, 0, 64, 35
1, 61037, Control_c, 0, 64, 45
1, 61051, Control_c, 0, 64, 56
1, 61066, Control_c, 0, 64, 68
1, 61081, Control_c, 0, 64, 86
1, 61092, Note_off_c, 0, 53, 37
1, 61096, Control_c, 0, 64, 97
1, 61110, Control_c, 0, 64, 101
1, 61125, Control_c, 0, 64, 107
1, 61140, Control_c, 0, 64, 127
1, 61160, Note_off_c, 0, 56, 62
1, 61177, Note_off_c, 0, 62, 61
1, 61335, Note_on_c, 0, 66, 72
1, 61336, Note_on_c, 0, 56, 75
1, 61347, Note_on_c, 0, 63, 62
1, 61361, Note_off_c, 0, 56, 70
1, 61391, Note_off_c, 0, 66, 55
1, 61397, Note_off_c, 0, 63, 53
1, 61401, Note_off_c, 0, 47, 34
1, 61454, Note_on_c, 0, 56, 64
1, 61457, Note_on_c, 0, 65, 70
1, 61460, Note_on_c, 0, 62, 68
1, 61460, Control_c, 0, 64, 100
1, 61475, Control_c, 0, 64, 76
1, 61489, Control_c, 0, 64, 62
1, 61504, Control_c, 0, 64, 45
1, 61519, Control_c, 0, 64, 18
1, 61533, Control_c, 0, 64, 0
1, 61548, Control_c, 0, 64, 9
1, 61563, Control_c, 0, 64, 19
1, 61578, Control_c, 0, 64, 30
1, 61593, Control_c, 0, 64, 41
1, 61607, Control_c, 0, 64, 53
1, 61622, Control_c, 0, 64, 63
1, 61637, Control_c, 0, 64, 75
1, 61652, Control_c, 0, 64, 82
1, 61667, Control_c, 0, 64, 84
1, 61681, Control_c, 0, 64, 86
1, 61692, Note_on_c, 0, 33, 62
1, 61696, Note_off_c, 0, 35, 39
1, 61696, Control_c, 0, 64, 91
1, 61707, Note_on_c, 0, 45, 54
1, 61711, Control_c, 0, 64, 99
1, 61725, Note_off_c, 0, 33, 66
1, 61725, Control_c, 0, 64, 110
1, 61740, Control_c, 0, 64, 127
1, 61745, Note_off_c, 0, 45, 53
1, 61773, Note_on_c, 0, 34, 70
1, 61804, Note_off_c, 0, 34, 64
1, 61862, Note_on_c, 0, 49, 77
1, 61862, Note_on_c, 0, 37, 72
1, 61880, Note_off_c, 0, 49, 68
1, 61889, Note_off_c, 0, 37, 63
1, 61918, Control_c, 0, 64, 108
1, 61933, Control_c, 0, 64, 95
1, 61948, Control_c, 0, 64, 82
1, 61959, Note_off_c, 0, 62, 36
1, 61962, Note_on_c, 0, 47, 78
1, 61963, Control_c, 0, 64, 68
1, 61978, Control_c, 0, 64, 59
1, 61980, Note_on_c, 0, 35, 58
1, 61986, Note_off_c, 0, 65, 61
1, 61992, Control_c, 0, 64, 41
1, 62000, Note_off_c, 0, 56, 55
1, 62007, Control_c, 0, 64, 0
1, 62096, Control_c, 0, 64, 12
1, 62111, Control_c, 0, 64, 35
1, 62125, Control_c, 0, 64, 49
1, 62140, Control_c, 0, 64, 63
1, 62155, Control_c, 0, 64, 84
1, 62178, Control_c, 0, 64, 127
1, 62182, Note_off_c, 0, 35, 51
1, 62223, Note_on_c, 0, 66, 80
1, 62228, Note_on_c, 0, 63, 67
1, 62229, Note_on_c, 0, 57, 66
1, 62329, Note_off_c, 0, 57, 61
1, 62372, Note_off_c, 0, 63, 64
1, 62389, Note_off_c, 0, 66, 63
1, 62583, Note_on_c, 0, 68, 81
1, 62587, Note_on_c, 0, 64, 69
1, 62592, Note_on_c, 0, 56, 68
1, 62593, Control_c, 0, 67, 123
1, 62608, Control_c, 0, 67, 118
1, 62622, Control_c, 0, 64, 93
1, 62622, Control_c, 0, 67, 112
1, 62637, Control_c, 0, 64, 72
1, 62637, Control_c, 0, 67, 105
1, 62652, Control_c, 0, 64, 62
1, 62652, Control_c, 0, 67, 98
1, 62667, Control_c, 0, 64, 52
1, 62667, Control_c, 0, 67, 92
1, 62682, Control_c, 0, 64, 41
1, 62682, Control_c, 0, 67, 87
1, 62697, Control_c, 0, 64, 39
1, 62697, Control_c, 0, 67, 82
1, 62712, Control_c, 0, 64, 41
1, 62712, Control_c, 0, 67, 78
1, 62727, Control_c, 0, 64, 47
1, 62727, Control_c, 0, 67, 73
1, 62742, Control_c, 0, 64, 56
1, 62742, Control_c, 0, 67, 68
1, 62757, Control_c, 0, 64, 65
1, 62757, Control_c, 0, 67, 63
1, 62772, Control_c, 0, 64, 78
1, 62772, Control_c, 0, 67, 57
1, 62781, Note_off_c, 0, 56, 38
1, 62786, Control_c, 0, 64, 95
1, 62786, Control_c, 0, 67, 49
1, 62801, Control_c, 0, 64, 103
1, 62801, Control_c, 0, 67, 42
1, 62816, Control_c, 0, 64, 111
1, 62816, Control_c, 0, 67, 34
1, 62831, Control_c, 0, 64, 127
1, 62831, Control_c, 0, 67, 25
1, 62846, Control_c, 0, 67, 16
1, 62861, Control_c, 0, 67, 8
1, 62875, Control_c, 0, 67, 0
1, 62891, Note_off_c, 0, 64, 57
1, 63046, Control_c, 0, 64, 109
1, 63061, Control_c, 0, 64, 101
1, 63076, Control_c, 0, 64, 95
1, 63091, Control_c, 0, 64, 90
1, 63095, Note_on_c, 0, 69, 70
1, 63105, Control_c, 0, 64, 85
1, 63116, Note_on_c, 0, 54, 51
1, 63117, Note_on_c, 0, 63, 51
1, 63120, Control_c, 0, 64, 79
1, 63135, Control_c, 0, 64, 75
1, 63145, Note_off_c, 0, 68, 48
1, 63150, Control_c, 0, 64, 73
1, 63157, Note_off_c, 0, 63, 49
1, 63165, Control_c, 0, 64, 70
1, 63180, Control_c, 0, 64, 67
1, 63195, Control_c, 0, 64, 65
1, 63210, Control_c, 0, 64, 63
1, 63225, Control_c, 0, 64, 61
1, 63240, Control_c, 0, 64, 57
1, 63247, Note_on_c, 0, 66, 68
1, 63254, Control_c, 0, 64, 51
1, 63257, Note_on_c, 0, 63, 52
1, 63264, Note_off_c, 0, 54, 59
1, 63266, Note_on_c, 0, 57, 45
1, 63269, Control_c, 0, 64, 48
1, 63284, Control_c, 0, 64, 47
1, 63298, Control_c, 0, 64, 46
1, 63313, Control_c, 0, 64, 43
1, 63328, Control_c, 0, 64, 37
1, 63329, Note_off_c, 0, 69, 51
1, 63343, Control_c, 0, 64, 20
1, 63358, Control_c, 0, 64, 0
1, 63461, Control_c, 0, 64, 27
1, 63476, Control_c, 0, 64, 41
1, 63491, Control_c, 0, 64, 53
1, 63505, Control_c, 0, 64, 63
1, 63520, Control_c, 0, 64, 71
1, 63535, Control_c, 0, 64, 74
1, 63536, Note_off_c, 0, 47, 58
1, 63540, Note_on_c, 0, 49, 65
1, 63565, Control_c, 0, 64, 75
1, 63594, Control_c, 0, 64, 75
1, 63648, Note_on_c, 0, 48, 62
1, 63684, Note_off_c, 0, 49, 60
1, 63687, Note_off_c, 0, 63, 56
1, 63705, Control_c, 0, 64, 74
1, 63720, Control_c, 0, 64, 74
1, 63735, Control_c, 0, 64, 72
1, 63750, Control_c, 0, 64, 70
1, 63765, Control_c, 0, 64, 68
1, 63779, Control_c, 0, 64, 66
1, 63791, Note_on_c, 0, 47, 77
1, 63794, Control_c, 0, 64, 62
1, 63809, Control_c, 0, 64, 53
1, 63816, Note_off_c, 0, 48, 58
1, 63824, Control_c, 0, 64, 34
1, 63835, Note_off_c, 0, 66, 54
1, 63839, Control_c, 0, 64, 0
1, 63859, Note_off_c, 0, 57, 39
1, 63943, Control_c, 0, 64, 18
1, 63958, Control_c, 0, 64, 31
1, 63973, Control_c, 0, 64, 41
1, 63988, Control_c, 0, 64, 51
1, 64003, Control_c, 0, 64, 59
1, 64018, Control_c, 0, 64, 66
1, 64031, Note_on_c, 0, 68, 78
1, 64032, Control_c, 0, 64, 70
1, 64039, Note_on_c, 0, 64, 54
1, 64047, Control_c, 0, 64, 74
1, 64049, Note_on_c, 0, 56, 54
1, 64062, Control_c, 0, 64, 78
1, 64077, Control_c, 0, 64, 83
1, 64079, Note_off_c, 0, 56, 67
1, 64092, Control_c, 0, 64, 90
1, 64107, Control_c, 0, 64, 96
1, 64116, Note_off_c, 0, 64, 61
1, 64121, Control_c, 0, 64, 101
1, 64132, Note_off_c, 0, 68, 61
1, 64136, Control_c, 0, 64, 102
1, 64210, Control_c, 0, 64, 101
1, 64225, Control_c, 0, 64, 98
1, 64240, Control_c, 0, 64, 94
1, 64255, Control_c, 0, 64, 89
1, 64269, Control_c, 0, 64, 84
1, 64284, Control_c, 0, 64, 77
1, 64299, Control_c, 0, 64, 68
1, 64300, Note_on_c, 0, 69, 75
1, 64304, Note_on_c, 0, 54, 55
1, 64311, Note_on_c, 0, 63, 63
1, 64314, Control_c, 0, 64, 58
1, 64328, Control_c, 0, 64, 43
1, 64343, Control_c, 0, 64, 22
1, 64358, Control_c, 0, 64, 0
1, 64425, Control_c, 0, 64, 16
1, 64440, Control_c, 0, 64, 28
1, 64455, Control_c, 0, 64, 40
1, 64470, Control_c, 0, 64, 52
1, 64484, Control_c, 0, 64, 63
1, 64499, Control_c, 0, 64, 79
1, 64501, Note_off_c, 0, 63, 58
1, 64514, Control_c, 0, 64, 87
1, 64558, Control_c, 0, 64, 88
1, 64573, Control_c, 0, 64, 89
1, 64588, Control_c, 0, 64, 90
1, 64602, Control_c, 0, 64, 92
1, 64617, Control_c, 0, 64, 93
1, 64647, Note_on_c, 0, 73, 76
1, 64649, Note_on_c, 0, 57, 65
1, 64653, Note_off_c, 0, 54, 63
1, 64655, Note_on_c, 0, 63, 63
1, 64667, Note_off_c, 0, 69, 49
1, 64675, Note_off_c, 0, 57, 65
1, 64713, Note_off_c, 0, 63, 62
1, 64722, Control_c, 0, 64, 92
1, 64737, Control_c, 0, 64, 87
1, 64745, Note_off_c, 0, 73, 57
1, 64751, Control_c, 0, 64, 76
1, 64766, Control_c, 0, 64, 64
1, 64775, Note_on_c, 0, 71, 73
1, 64775, Note_on_c, 0, 56, 61
1, 64778, Note_on_c, 0, 64, 67
1, 64781, Control_c, 0, 64, 46
1, 64796, Control_c, 0, 64, 17
1, 64811, Control_c, 0, 64, 0
1, 64855, Control_c, 0, 64, 19
1, 64870, Control_c, 0, 64, 33
1, 64885, Control_c, 0, 64, 48
1, 64900, Control_c, 0, 64, 60
1, 64915, Control_c, 0, 64, 72
1, 64918, Note_off_c, 0, 64, 60
1, 64930, Control_c, 0, 64, 88
1, 64944, Control_c, 0, 64, 91
1, 64971, Note_off_c, 0, 56, 64
1, 64982, Note_on_c, 0, 49, 70
1, 64994, Note_off_c, 0, 47, 64
1, 65003, Control_c, 0, 64, 92
1, 65032, Control_c, 0, 64, 92
1, 65064, Note_on_c, 0, 66, 74
1, 65065, Note_on_c, 0, 63, 66
1, 65075, Note_on_c, 0, 48, 62
1, 65076, Note_off_c, 0, 49, 64
1, 65076, Note_on_c, 0, 57, 49
1, 65091, Control_c, 0, 64, 91
1, 65094, Note_off_c, 0, 71, 61
1, 65103, Note_off_c, 0, 57, 55
1, 65106, Control_c, 0, 64, 89
1, 65121, Control_c, 0, 64, 86
1, 65135, Note_off_c, 0, 63, 64
1, 65136, Control_c, 0, 64, 83
1, 65150, Control_c, 0, 64, 79
1, 65173, Control_c, 0, 64, 72
1, 65188, Control_c, 0, 64, 65
1, 65203, Control_c, 0, 64, 57
1, 65209, Note_on_c, 0, 68, 81
1, 65211, Note_off_c, 0, 48, 64
1, 65213, Note_on_c, 0, 64, 66
1, 65218, Control_c, 0, 64, 39
1, 65221, Note_on_c, 0, 56, 71
1, 65226, Note_on_c, 0, 47, 59
1, 65228, Note_off_c, 0, 66, 51
1, 65232, Control_c, 0, 64, 0
1, 65350, Control_c, 0, 64, 23
1, 65365, Control_c, 0, 64, 42
1, 65380, Control_c, 0, 64, 56
1, 65386, Note_off_c, 0, 64, 53
1, 65395, Control_c, 0, 64, 68
1, 65410, Control_c, 0, 64, 87
1, 65425, Control_c, 0, 64, 95
1, 65443, Note_off_c, 0, 56, 59
1, 65553, Note_off_c, 0, 68, 52
1, 65557, Note_on_c, 0, 55, 65
1, 65557, Note_on_c, 0, 73, 84
1, 65568, Note_on_c, 0, 64, 64
1, 65573, Note_on_c, 0, 58, 62
1, 65590, Note_off_c, 0, 55, 65
1, 65590, Note_off_c, 0, 64, 65
1, 65633, Control_c, 0, 64, 95
1, 65636, Note_off_c, 0, 58, 61
1, 65648, Control_c, 0, 64, 93
1, 65663, Control_c, 0, 64, 91
1, 65678, Control_c, 0, 64, 89
1, 65692, Control_c, 0, 64, 86
1, 65707, Control_c, 0, 64, 83
1, 65722, Control_c, 0, 64, 80
1, 65737, Control_c, 0, 64, 77
1, 65742, Note_on_c, 0, 63, 67
1, 65743, Note_on_c, 0, 66, 75
1, 65747, Note_on_c, 0, 54, 53
1, 65752, Control_c, 0, 64, 73
1, 65758, Note_on_c, 0, 59, 51
1, 65766, Control_c, 0, 64, 68
1, 65781, Control_c, 0, 64, 62
1, 65788, Note_off_c, 0, 73, 62
1, 65796, Control_c, 0, 64, 52
1, 65811, Control_c, 0, 64, 30
1, 65826, Control_c, 0, 64, 0
1, 65937, Control_c, 0, 64, 23
1, 65952, Control_c, 0, 64, 35
1, 65967, Control_c, 0, 64, 46
1, 65981, Control_c, 0, 64, 57
1, 65996, Control_c, 0, 64, 66
1, 66011, Note_off_c, 0, 63, 38
1, 66011, Control_c, 0, 64, 73
1, 66026, Control_c, 0, 64, 75
1, 66041, Control_c, 0, 64, 76
1, 66055, Control_c, 0, 64, 77
1, 66058, Note_off_c, 0, 59, 28
1, 66070, Control_c, 0, 64, 80
1, 66085, Control_c, 0, 64, 82
1, 66099, Control_c, 0, 64, 83
1, 66155, Note_off_c, 0, 54, 54
1, 66192, Note_on_c, 0, 68, 70
1, 66198, Note_on_c, 0, 53, 47
1, 66203, Note_on_c, 0, 62, 58
1, 66261, Note_off_c, 0, 62, 61
1, 66322, Control_c, 0, 64, 83
1, 66337, Control_c, 0, 64, 82
1, 66352, Control_c, 0, 64, 82
1, 66367, Control_c, 0, 64, 81
1, 66382, Control_c, 0, 64, 81
1, 66396, Control_c, 0, 64, 80
1, 66402, Note_off_c, 0, 66, 33
1, 66411, Control_c, 0, 64, 78
1, 66426, Control_c, 0, 64, 77
1, 66441, Control_c, 0, 64, 76
1, 66457, Control_c, 0, 64, 75
1, 66471, Note_on_c, 0, 54, 44
1, 66471, Control_c, 0, 64, 73
1, 66486, Control_c, 0, 64, 71
1, 66501, Control_c, 0, 64, 69
1, 66506, Note_on_c, 0, 61, 52
1, 66516, Control_c, 0, 64, 66
1, 66530, Note_on_c, 0, 71, 46
1, 66530, Control_c, 0, 64, 64
1, 66537, Note_off_c, 0, 53, 38
1, 66541, Note_off_c, 0, 68, 53
1, 66545, Control_c, 0, 64, 61
1, 66560, Control_c, 0, 64, 53
1, 66575, Control_c, 0, 64, 41
1, 66590, Control_c, 0, 64, 27
1, 66605, Control_c, 0, 64, 14
1, 66620, Control_c, 0, 64, 9
1, 66635, Control_c, 0, 64, 8
1, 66650, Control_c, 0, 64, 8
1, 66671, Control_c, 0, 64, 15
1, 66686, Control_c, 0, 64, 24
1, 66701, Control_c, 0, 64, 35
1, 66715, Control_c, 0, 64, 45
1, 66730, Control_c, 0, 64, 54
1, 66745, Control_c, 0, 64, 62
1, 66758, Note_on_c, 0, 69, 67
1, 66760, Control_c, 0, 64, 68
1, 66775, Control_c, 0, 64, 72
1, 66790, Control_c, 0, 64, 74
1, 66805, Control_c, 0, 64, 75
1, 66820, Control_c, 0, 64, 76
1, 66834, Control_c, 0, 64, 78
1, 66849, Control_c, 0, 64, 78
1, 66852, Note_off_c, 0, 61, 36
1, 66915, Note_off_c, 0, 71, 61
1, 66917, Note_on_c, 0, 68, 74
1, 66938, Control_c, 0, 64, 78
1, 66948, Note_off_c, 0, 69, 61
1, 66953, Control_c, 0, 64, 77
1, 66968, Control_c, 0, 64, 76
1, 66983, Control_c, 0, 64, 75
1, 66997, Control_c, 0, 64, 73
1, 67012, Control_c, 0, 64, 71
1, 67027, Control_c, 0, 64, 69
1, 67043, Control_c, 0, 64, 64
1, 67058, Control_c, 0, 64, 57
1, 67061, Note_on_c, 0, 66, 66
1, 67064, Note_on_c, 0, 63, 51
1, 67073, Control_c, 0, 64, 43
1, 67073, Note_on_c, 0, 57, 43
1, 67078, Note_off_c, 0, 68, 53
1, 67088, Control_c, 0, 64, 24
1, 67102, Control_c, 0, 64, 17
1, 67117, Control_c, 0, 64, 16
1, 67125, Note_off_c, 0, 63, 0
1, 67125, Note_on_c, 0, 63, 7
1, 67146, Control_c, 0, 64, 17
1, 67161, Control_c, 0, 64, 19
1, 67176, Control_c, 0, 64, 27
1, 67191, Control_c, 0, 64, 36
1, 67204, Control_c, 0, 64, 46
1, 67207, Note_off_c, 0, 54, 34
1, 67219, Control_c, 0, 64, 57
1, 67226, Note_off_c, 0, 63, 42
1, 67234, Control_c, 0, 64, 64
1, 67249, Control_c, 0, 64, 69
1, 67264, Control_c, 0, 64, 71
1, 67278, Control_c, 0, 64, 72
1, 67293, Control_c, 0, 64, 72
1, 67308, Control_c, 0, 64, 73
1, 67323, Control_c, 0, 64, 74
1, 67337, Control_c, 0, 64, 75
1, 67342, Note_off_c, 0, 57, 45
1, 67416, Note_off_c, 0, 47, 59
1, 67452, Note_on_c, 0, 68, 64
1, 67453, Note_off_c, 0, 66, 61
1, 67478, Control_c, 0, 64, 74
1, 67493, Control_c, 0, 64, 74
1, 67508, Control_c, 0, 64, 73
1, 67523, Control_c, 0, 64, 72
1, 67537, Control_c, 0, 64, 71
1, 67552, Control_c, 0, 64, 70
1, 67567, Control_c, 0, 64, 69
1, 67582, Control_c, 0, 64, 67
1, 67597, Control_c, 0, 64, 65
1, 67611, Control_c, 0, 64, 63
1, 67626, Control_c, 0, 64, 60
1, 67627, Note_on_c, 0, 64, 51
1, 67628, Note_off_c, 0, 68, 49
1, 67641, Note_on_c, 0, 47, 40
1, 67641, Control_c, 0, 64, 57
1, 67642, Note_on_c, 0, 56, 42
1, 67656, Control_c, 0, 64, 52
1, 67670, Control_c, 0, 64, 47
1, 67685, Control_c, 0, 64, 41
1, 67700, Control_c, 0, 64, 34
1, 67715, Control_c, 0, 64, 24
1, 67730, Control_c, 0, 64, 8
1, 67744, Control_c, 0, 64, 0
1, 67849, Control_c, 0, 64, 9
1, 67864, Control_c, 0, 64, 22
1, 67879, Control_c, 0, 64, 30
1, 67893, Control_c, 0, 64, 38
1, 67908, Control_c, 0, 64, 47
1, 67923, Control_c, 0, 64, 55
1, 67938, Control_c, 0, 64, 62
1, 67953, Control_c, 0, 64, 66
1, 67967, Control_c, 0, 64, 69
1, 67982, Control_c, 0, 64, 71
1, 67997, Control_c, 0, 64, 74
1, 68012, Control_c, 0, 64, 77
1, 68027, Control_c, 0, 64, 79
1, 68042, Control_c, 0, 64, 81
1, 68057, Control_c, 0, 64, 81
1, 68072, Control_c, 0, 64, 82
1, 68086, Control_c, 0, 64, 82
1, 68116, Control_c, 0, 64, 83
1, 68130, Note_off_c, 0, 56, 42
1, 68227, Note_on_c, 0, 59, 48
1, 68380, Note_off_c, 0, 64, 35
1, 68499, Note_on_c, 0, 51, 62
1, 68508, Control_c, 0, 64, 82
1, 68538, Control_c, 0, 64, 82
1, 68553, Control_c, 0, 64, 81
1, 68582, Control_c, 0, 64, 81
1, 68597, Control_c, 0, 64, 80
1, 68611, Control_c, 0, 64, 80
1, 68626, Control_c, 0, 64, 79
1, 68643, Control_c, 0, 64, 78
1, 68658, Control_c, 0, 64, 77
1, 68672, Control_c, 0, 64, 75
1, 68687, Control_c, 0, 64, 74
1, 68702, Control_c, 0, 64, 73
1, 68716, Control_c, 0, 64, 71
1, 68731, Control_c, 0, 64, 69
1, 68746, Control_c, 0, 64, 68
1, 68761, Control_c, 0, 64, 66
1, 68776, Control_c, 0, 64, 64
1, 68787, Note_on_c, 0, 68, 59
1, 68788, Note_on_c, 0, 64, 53
1, 68790, Control_c, 0, 64, 62
1, 68792, Note_on_c, 0, 52, 61
1, 68793, Note_off_c, 0, 59, 29
1, 68805, Control_c, 0, 64, 59
1, 68820, Control_c, 0, 64, 55
1, 68831, Note_off_c, 0, 51, 52
1, 68835, Control_c, 0, 64, 50
1, 68850, Control_c, 0, 64, 44
1, 68864, Control_c, 0, 64, 37
1, 68879, Control_c, 0, 64, 27
1, 68894, Control_c, 0, 64, 0
1, 69020, Control_c, 0, 64, 10
1, 69035, Control_c, 0, 64, 24
1, 69049, Control_c, 0, 64, 34
1, 69064, Control_c, 0, 64, 43
1, 69079, Control_c, 0, 64, 52
1, 69094, Control_c, 0, 64, 62
1, 69109, Control_c, 0, 64, 67
1, 69124, Control_c, 0, 64, 70
1, 69154, Control_c, 0, 64, 71
1, 69169, Note_off_c, 0, 52, 56
1, 69183, Control_c, 0, 64, 72
1, 69246, Note_off_c, 0, 64, 57
1, 69249, Note_on_c, 0, 61, 63
1, 69376, Control_c, 0, 64, 71
1, 69390, Control_c, 0, 64, 71
1, 69395, Note_off_c, 0, 61, 32
1, 69405, Control_c, 0, 64, 70
1, 69420, Control_c, 0, 64, 69
1, 69436, Control_c, 0, 64, 68
1, 69451, Control_c, 0, 64, 67
1, 69466, Control_c, 0, 64, 65
1, 69478, Note_on_c, 0, 54, 48
1, 69480, Control_c, 0, 64, 63
1, 69495, Control_c, 0, 64, 61
1, 69510, Control_c, 0, 64, 58
1, 69514, Note_on_c, 0, 69, 57
1, 69525, Control_c, 0, 64, 54
1, 69529, Note_on_c, 0, 64, 49
1, 69539, Control_c, 0, 64, 50
1, 69554, Control_c, 0, 64, 47
1, 69568, Note_off_c, 0, 68, 45
1, 69569, Control_c, 0, 64, 45
1, 69584, Control_c, 0, 64, 42
1, 69599, Control_c, 0, 64, 38
1, 69613, Control_c, 0, 64, 30
1, 69628, Control_c, 0, 64, 16
1, 69643, Control_c, 0, 64, 0
1, 69769, Control_c, 0, 64, 10
1, 69784, Control_c, 0, 64, 25
1, 69799, Control_c, 0, 64, 35
1, 69813, Control_c, 0, 64, 43
1, 69828, Control_c, 0, 64, 51
1, 69843, Control_c, 0, 64, 58
1, 69858, Control_c, 0, 64, 63
1, 69872, Control_c, 0, 64, 65
1, 69887, Control_c, 0, 64, 65
1, 69935, Note_on_c, 0, 56, 55
1, 69947, Control_c, 0, 64, 66
1, 69987, Note_off_c, 0, 54, 55
1, 70080, Control_c, 0, 64, 65
1, 70110, Control_c, 0, 64, 65
1, 70139, Control_c, 0, 64, 64
1, 70169, Control_c, 0, 64, 63
1, 70184, Control_c, 0, 64, 62
1, 70200, Control_c, 0, 64, 56
1, 70205, Note_on_c, 0, 59, 55
1, 70214, Control_c, 0, 64, 44
1, 70230, Control_c, 0, 64, 25
1, 70245, Control_c, 0, 64, 18
1, 70257, Note_off_c, 0, 56, 35
1, 70289, Control_c, 0, 64, 19
1, 70304, Control_c, 0, 64, 25
1, 70316, Note_off_c, 0, 69, 39
1, 70319, Control_c, 0, 64, 33
1, 70334, Control_c, 0, 64, 44
1, 70347, Note_off_c, 0, 64, 38
1, 70349, Control_c, 0, 64, 53
1, 70363, Control_c, 0, 64, 60
1, 70378, Control_c, 0, 64, 64
1, 70393, Control_c, 0, 64, 66
1, 70429, Note_on_c, 0, 57, 50
1, 70430, Control_c, 0, 64, 66
1, 70444, Control_c, 0, 64, 67
1, 70459, Control_c, 0, 64, 68
1, 70474, Control_c, 0, 64, 68
1, 70560, Note_off_c, 0, 57, 57
1, 70585, Note_on_c, 0, 56, 53
1, 70623, Control_c, 0, 64, 68
1, 70637, Control_c, 0, 64, 67
1, 70652, Control_c, 0, 64, 67
1, 70667, Control_c, 0, 64, 66
1, 70682, Control_c, 0, 64, 66
1, 70696, Control_c, 0, 64, 65
1, 70711, Control_c, 0, 64, 64
1, 70726, Control_c, 0, 64, 63
1, 70741, Control_c, 0, 64, 62
1, 70756, Control_c, 0, 64, 61
1, 70770, Control_c, 0, 64, 59
1, 70785, Control_c, 0, 64, 57
1, 70800, Control_c, 0, 64, 54
1, 70814, Control_c, 0, 64, 49
1, 70818, Note_off_c, 0, 56, 31
1, 70829, Control_c, 0, 64, 43
1, 70834, Note_on_c, 0, 54, 40
1, 70838, Note_on_c, 0, 69, 43
1, 70839, Note_on_c, 0, 63, 38
1, 70844, Control_c, 0, 64, 36
1, 70859, Control_c, 0, 64, 29
1, 70874, Control_c, 0, 64, 22
1, 70889, Control_c, 0, 64, 15
1, 70903, Control_c, 0, 64, 9
1, 70918, Control_c, 0, 64, 8
1, 70933, Control_c, 0, 64, 9
1, 70948, Control_c, 0, 64, 13
1, 70962, Control_c, 0, 64, 20
1, 70977, Control_c, 0, 64, 28
1, 70992, Control_c, 0, 64, 37
1, 71001, Note_off_c, 0, 59, 17
1, 71006, Control_c, 0, 64, 46
1, 71021, Control_c, 0, 64, 56
1, 71038, Control_c, 0, 64, 63
1, 71052, Control_c, 0, 64, 68
1, 71067, Control_c, 0, 64, 71
1, 71082, Control_c, 0, 64, 72
1, 71088, Note_off_c, 0, 54, 48
1, 71111, Control_c, 0, 64, 72
1, 71124, Note_off_c, 0, 69, 38
1, 71231, Note_on_c, 0, 68, 63
1, 71244, Note_on_c, 0, 56, 40
1, 71276, Note_off_c, 0, 63, 41
1, 71279, Note_off_c, 0, 68, 52
1, 71282, Control_c, 0, 64, 72
1, 71297, Control_c, 0, 64, 71
1, 71311, Control_c, 0, 64, 70
1, 71326, Control_c, 0, 64, 69
1, 71341, Control_c, 0, 64, 68
1, 71356, Control_c, 0, 64, 67
1, 71361, Note_off_c, 0, 56, 37
1, 71371, Control_c, 0, 64, 65
1, 71385, Control_c, 0, 64, 63
1, 71391, Note_on_c, 0, 52, 51
1, 71392, Note_on_c, 0, 64, 44
1, 71394, Note_on_c, 0, 68, 58
1, 71400, Control_c, 0, 64, 60
1, 71402, Note_on_c, 0, 59, 34
1, 71415, Control_c, 0, 64, 56
1, 71429, Control_c, 0, 64, 52
1, 71444, Control_c, 0, 64, 45
1, 71459, Control_c, 0, 64, 37
1, 71461, Note_off_c, 0, 59, 0
1, 71461, Note_on_c, 0, 59, 6
1, 71474, Control_c, 0, 64, 25
1, 71489, Control_c, 0, 64, 11
1, 71504, Control_c, 0, 64, 0
1, 71610, Note_off_c, 0, 47, 45
1, 71622, Control_c, 0, 64, 20
1, 71637, Control_c, 0, 64, 34
1, 71652, Control_c, 0, 64, 46
1, 71667, Control_c, 0, 64, 61
1, 71681, Control_c, 0, 64, 78
1, 71696, Control_c, 0, 64, 127
1, 71729, Note_off_c, 0, 59, 42
1, 71839, Note_off_c, 0, 64, 61
1, 71875, Control_c, 0, 64, 83
1, 71890, Control_c, 0, 64, 66
1, 71899, Note_on_c, 0, 47, 69
1, 71912, Control_c, 0, 64, 55
1, 71927, Control_c, 0, 64, 41
1, 71929, Note_on_c, 0, 63, 61
1, 71929, Note_off_c, 0, 68, 60
1, 71936, Note_off_c, 0, 52, 60
1, 71941, Control_c, 0, 64, 37
1, 71956, Control_c, 0, 64, 43
1, 71971, Control_c, 0, 64, 52
1, 71986, Control_c, 0, 64, 63
1, 72001, Control_c, 0, 64, 79
1, 72015, Control_c, 0, 64, 127
1, 72033, Note_off_c, 0, 47, 63
1, 72159, Note_on_c, 0, 70, 86
1, 72242, Note_off_c, 0, 63, 37
1, 72371, Control_c, 0, 64, 113
1, 72386, Control_c, 0, 64, 106
1, 72401, Control_c, 0, 64, 98
1, 72409, Note_on_c, 0, 71, 82
1, 72410, Note_on_c, 0, 44, 71
1, 72412, Note_on_c, 0, 32, 72
1, 72412, Note_on_c, 0, 63, 82
1, 72415, Control_c, 0, 64, 80
1, 72430, Control_c, 0, 64, 61
1, 72445, Control_c, 0, 64, 34
1, 72459, Control_c, 0, 64, 0
1, 72467, Note_off_c, 0, 70, 54
1, 72473, Poly_aftertouch_c, 0, 68, 0
1, 72534, Control_c, 0, 64, 14
1, 72549, Control_c, 0, 64, 35
1, 72561, Note_off_c, 0, 32, 63
1, 72564, Control_c, 0, 64, 52
1, 72578, Control_c, 0, 64, 68
1, 72593, Control_c, 0, 64, 95
1, 72597, Note_off_c, 0, 44, 61
1, 72608, Control_c, 0, 64, 107
1, 72632, Note_off_c, 0, 63, 61
1, 72642, Note_off_c, 0, 71, 64
1, 72720, Control_c, 0, 64, 108
1, 72735, Control_c, 0, 64, 109
1, 72750, Control_c, 0, 64, 111
1, 72764, Control_c, 0, 64, 114
1, 72784, Note_on_c, 0, 76, 92
1, 72809, Control_c, 0, 64, 115
1, 72852, Note_off_c, 0, 76, 62
1, 72883, Control_c, 0, 64, 114
1, 72898, Control_c, 0, 64, 105
1, 72913, Control_c, 0, 64, 95
1, 72922, Note_on_c, 0, 64, 76
1, 72922, Note_on_c, 0, 70, 84
1, 72927, Control_c, 0, 64, 89
1, 72929, Note_on_c, 0, 68, 75
1, 72932, Note_on_c, 0, 37, 67
1, 72938, Note_on_c, 0, 49, 57
1, 72942, Control_c, 0, 64, 83
1, 72957, Control_c, 0, 64, 74
1, 72972, Control_c, 0, 64, 65
1, 72987, Control_c, 0, 64, 56
1, 73002, Control_c, 0, 64, 37
1, 73017, Control_c, 0, 64, 0
1, 73090, Control_c, 0, 64, 11
1, 73105, Control_c, 0, 64, 33
1, 73120, Control_c, 0, 64, 47
1, 73135, Control_c, 0, 64, 60
1, 73149, Control_c, 0, 64, 72
1, 73160, Note_off_c, 0, 49, 55
1, 73164, Control_c, 0, 64, 91
1, 73179, Control_c, 0, 64, 94
1, 73209, Control_c, 0, 64, 95
1, 73224, Control_c, 0, 64, 97
1, 73239, Control_c, 0, 64, 98
1, 73254, Control_c, 0, 64, 99
1, 73269, Control_c, 0, 64, 99
1, 73328, Note_on_c, 0, 71, 76
1, 73359, Note_off_c, 0, 64, 50
1, 73360, Note_off_c, 0, 68, 57
1, 73411, Note_off_c, 0, 70, 48
1, 73470, Control_c, 0, 64, 97
1, 73485, Control_c, 0, 64, 95
1, 73500, Control_c, 0, 64, 92
1, 73514, Control_c, 0, 64, 90
1, 73525, Note_off_c, 0, 37, 55
1, 73529, Control_c, 0, 64, 87
1, 73544, Control_c, 0, 64, 84
1, 73559, Control_c, 0, 64, 79
1, 73574, Control_c, 0, 64, 70
1, 73582, Note_on_c, 0, 46, 45
1, 73588, Control_c, 0, 64, 60
1, 73589, Note_on_c, 0, 34, 43
1, 73594, Note_on_c, 0, 75, 65
1, 73603, Note_on_c, 0, 68, 53
1, 73603, Control_c, 0, 64, 46
1, 73604, Note_on_c, 0, 64, 49
1, 73606, Note_off_c, 0, 71, 55
1, 73618, Control_c, 0, 64, 27
1, 73632, Control_c, 0, 64, 10
1, 73647, Control_c, 0, 64, 8
1, 73662, Control_c, 0, 64, 9
1, 73677, Control_c, 0, 64, 14
1, 73692, Control_c, 0, 64, 24
1, 73706, Control_c, 0, 64, 34
1, 73721, Control_c, 0, 64, 45
1, 73736, Control_c, 0, 64, 56
1, 73751, Control_c, 0, 64, 65
1, 73766, Control_c, 0, 64, 77
1, 73780, Control_c, 0, 64, 81
1, 73795, Control_c, 0, 64, 82
1, 73810, Control_c, 0, 64, 82
1, 73813, Note_on_c, 0, 73, 70
1, 73815, Note_off_c, 0, 34, 40
1, 73824, Note_off_c, 0, 68, 58
1, 73825, Control_c, 0, 64, 84
1, 73832, Note_off_c, 0, 75, 62
1, 73838, Note_off_c, 0, 46, 62
1, 73840, Control_c, 0, 64, 86
1, 73855, Control_c, 0, 64, 88
1, 73869, Control_c, 0, 64, 88
1, 73874, Note_off_c, 0, 73, 62
1, 73884, Control_c, 0, 64, 89
1, 73930, Note_off_c, 0, 64, 62
1, 73959, Note_on_c, 0, 71, 73
1, 73974, Control_c, 0, 64, 89
1, 73988, Control_c, 0, 64, 87
1, 74003, Control_c, 0, 64, 86
1, 74018, Control_c, 0, 64, 83
1, 74032, Control_c, 0, 64, 80
1, 74047, Control_c, 0, 64, 75
1, 74061, Note_off_c, 0, 71, 63
1, 74062, Control_c, 0, 64, 67
1, 74077, Control_c, 0, 64, 58
1, 74087, Note_on_c, 0, 67, 61
1, 74092, Control_c, 0, 64, 44
1, 74097, Note_on_c, 0, 70, 62
1, 74099, Note_on_c, 0, 39, 43
1, 74099, Note_on_c, 0, 61, 57
1, 74106, Control_c, 0, 64, 27
1, 74112, Note_on_c, 0, 51, 28
1, 74121, Control_c, 0, 64, 13
1, 74136, Control_c, 0, 64, 10
1, 74168, Note_off_c, 0, 67, 0
1, 74168, Note_on_c, 0, 67, 18
1, 74173, Control_c, 0, 64, 11
1, 74188, Note_off_c, 0, 51, 57
1, 74188, Control_c, 0, 64, 18
1, 74203, Control_c, 0, 64, 27
1, 74218, Control_c, 0, 64, 37
1, 74233, Control_c, 0, 64, 48
1, 74248, Control_c, 0, 64, 60
1, 74263, Control_c, 0, 64, 68
1, 74278, Control_c, 0, 64, 79
1, 74293, Control_c, 0, 64, 85
1, 74293, Note_off_c, 0, 67, 38
1, 74308, Control_c, 0, 64, 86
1, 74323, Control_c, 0, 64, 87
1, 74367, Control_c, 0, 64, 87
1, 74382, Control_c, 0, 64, 88
1, 74395, Note_off_c, 0, 70, 38
1, 74409, Note_off_c, 0, 39, 60
1, 74478, Note_off_c, 0, 61, 62
1, 74515, Control_c, 0, 64, 87
1, 74520, Note_on_c, 0, 71, 63
1, 74529, Control_c, 0, 64, 86
1, 74544, Control_c, 0, 64, 84
1, 74559, Control_c, 0, 64, 83
1, 74574, Control_c, 0, 64, 81
1, 74588, Control_c, 0, 64, 79
1, 74603, Control_c, 0, 64, 76
1, 74618, Control_c, 0, 64, 72
1, 74633, Control_c, 0, 64, 66
1, 74638, Note_off_c, 0, 71, 63
1, 74648, Control_c, 0, 64, 61
1, 74658, Note_on_c, 0, 61, 49
1, 74662, Control_c, 0, 64, 51
1, 74664, Note_on_c, 0, 68, 56
1, 74666, Note_on_c, 0, 44, 45
1, 74667, Note_on_c, 0, 64, 47
1, 74676, Note_on_c, 0, 32, 42
1, 74677, Control_c, 0, 64, 38
1, 74692, Control_c, 0, 64, 22
1, 74707, Control_c, 0, 64, 0
1, 74716, Note_off_c, 0, 61, 0
1, 74716, Note_on_c, 0, 61, 4
1, 74796, Control_c, 0, 64, 16
1, 74811, Control_c, 0, 64, 31
1, 74826, Control_c, 0, 64, 41
1, 74841, Control_c, 0, 64, 50
1, 74855, Control_c, 0, 64, 58
1, 74870, Control_c, 0, 64, 63
1, 74885, Control_c, 0, 64, 66
1, 74907, Control_c, 0, 64, 67
1, 74916, Note_off_c, 0, 64, 36
1, 74922, Control_c, 0, 64, 68
1, 74936, Note_off_c, 0, 61, 42
1, 74937, Control_c, 0, 64, 69
1, 74951, Control_c, 0, 64, 70
1, 74953, Note_off_c, 0, 32, 39
1, 74966, Control_c, 0, 64, 70
1, 75115, Control_c, 0, 64, 70
1, 75130, Control_c, 0, 64, 69
1, 75160, Control_c, 0, 64, 69
1, 75190, Control_c, 0, 64, 68
1, 75204, Control_c, 0, 64, 68
1, 75219, Control_c, 0, 64, 67
1, 75234, Control_c, 0, 64, 67
1, 75249, Control_c, 0, 64, 66
1, 75264, Control_c, 0, 64, 65
1, 75293, Control_c, 0, 64, 65
1, 75308, Control_c, 0, 64, 64
1, 75323, Control_c, 0, 64, 64
1, 75352, Control_c, 0, 64, 63
1, 75367, Control_c, 0, 64, 63
1, 75382, Control_c, 0, 64, 62
1, 75397, Control_c, 0, 64, 61
1, 75401, Note_on_c, 0, 63, 36
1, 75411, Control_c, 0, 64, 60
1, 75422, Note_on_c, 0, 59, 30
1, 75426, Control_c, 0, 64, 54
1, 75440, Control_c, 0, 64, 42
1, 75455, Control_c, 0, 64, 26
1, 75470, Control_c, 0, 64, 19
1, 75485, Control_c, 0, 64, 20
1, 75500, Control_c, 0, 64, 24
1, 75515, Control_c, 0, 64, 30
1, 75530, Control_c, 0, 64, 38
1, 75544, Note_off_c, 0, 68, 28
1, 75545, Control_c, 0, 64, 47
1, 75559, Control_c, 0, 64, 56
1, 75574, Control_c, 0, 64, 62
1, 75583, Note_off_c, 0, 44, 37
1, 75589, Control_c, 0, 64, 66
1, 75603, Control_c, 0, 64, 68
1, 75618, Control_c, 0, 64, 70
1, 75633, Control_c, 0, 64, 72
1, 75655, Control_c, 0, 64, 75
1, 75670, Control_c, 0, 64, 77
1, 75685, Control_c, 0, 64, 79
1, 75692, Note_off_c, 0, 59, 39
1, 75774, Control_c, 0, 64, 78
1, 75778, Note_off_c, 0, 63, 42
1, 75789, Control_c, 0, 64, 78
1, 75803, Control_c, 0, 64, 77
1, 75818, Control_c, 0, 64, 76
1, 75834, Control_c, 0, 64, 75
1, 75849, Control_c, 0, 64, 74
1, 75864, Control_c, 0, 64, 73
1, 75879, Control_c, 0, 64, 72
1, 75893, Control_c, 0, 64, 70
1, 75908, Control_c, 0, 64, 68
1, 75920, Note_on_c, 0, 46, 40
1, 75923, Control_c, 0, 64, 67
1, 75938, Control_c, 0, 64, 66
1, 75953, Control_c, 0, 64, 64
1, 75968, Control_c, 0, 64, 62
1, 75982, Control_c, 0, 64, 60
1, 75997, Control_c, 0, 64, 56
1, 76012, Control_c, 0, 64, 52
1, 76026, Control_c, 0, 64, 49
1, 76041, Control_c, 0, 64, 46
1, 76056, Control_c, 0, 64, 45
1, 76071, Control_c, 0, 64, 44
1, 76086, Control_c, 0, 64, 43
1, 76100, Control_c, 0, 64, 42
1, 76100, Control_c, 0, 67, 9
1, 76115, Control_c, 0, 64, 41
1, 76115, Control_c, 0, 67, 14
1, 76130, Control_c, 0, 64, 39
1, 76130, Control_c, 0, 67, 20
1, 76145, Control_c, 0, 64, 37
1, 76145, Control_c, 0, 67, 30
1, 76160, Control_c, 0, 64, 35
1, 76160, Control_c, 0, 67, 39
1, 76174, Control_c, 0, 64, 32
1, 76174, Control_c, 0, 67, 48
1, 76189, Control_c, 0, 64, 29
1, 76189, Control_c, 0, 67, 58
1, 76204, Control_c, 0, 64, 26
1, 76204, Control_c, 0, 67, 70
1, 76219, Control_c, 0, 64, 24
1, 76219, Control_c, 0, 67, 83
1, 76233, Control_c, 0, 64, 20
1, 76233, Control_c, 0, 67, 95
1, 76248, Control_c, 0, 64, 15
1, 76248, Control_c, 0, 67, 107
1, 76263, Control_c, 0, 64, 9
1, 76263, Control_c, 0, 67, 117
1, 76265, Note_on_c, 0, 47, 40
1, 76278, Control_c, 0, 64, 0
1, 76278, Control_c, 0, 67, 126
1, 76293, Control_c, 0, 67, 127
1, 76331, Note_off_c, 0, 46, 44
1, 76537, Control_c, 0, 64, 14
1, 76552, Control_c, 0, 64, 23
1, 76567, Control_c, 0, 64, 27
1, 76582, Control_c, 0, 64, 30
1, 76597, Control_c, 0, 64, 33
1, 76612, Control_c, 0, 64, 36
1, 76627, Control_c, 0, 64, 37
1, 76642, Control_c, 0, 64, 38
1, 76731, Control_c, 0, 64, 37
1, 76741, Note_on_c, 0, 52, 50
1, 76746, Control_c, 0, 64, 37
1, 76761, Control_c, 0, 64, 36
1, 76767, Note_off_c, 0, 47, 42
1, 76776, Control_c, 0, 64, 36
1, 76791, Control_c, 0, 64, 35
1, 76805, Control_c, 0, 64, 34
1, 76820, Control_c, 0, 64, 33
1, 76835, Control_c, 0, 64, 33
1, 76849, Control_c, 0, 64, 32
1, 76864, Control_c, 0, 64, 31
1, 76879, Control_c, 0, 64, 31
1, 76894, Control_c, 0, 64, 30
1, 76901, Note_on_c, 0, 46, 44
1, 76909, Control_c, 0, 64, 30
1, 76934, Note_off_c, 0, 52, 31
1, 76939, Control_c, 0, 64, 29
1, 76954, Control_c, 0, 64, 29
1, 76969, Control_c, 0, 64, 28
1, 76984, Control_c, 0, 64, 27
1, 76998, Control_c, 0, 64, 26
1, 77013, Control_c, 0, 64, 24
1, 77028, Control_c, 0, 64, 22
1, 77043, Control_c, 0, 64, 19
1, 77057, Control_c, 0, 64, 16
1, 77072, Control_c, 0, 64, 14
1, 77087, Control_c, 0, 64, 13
1, 77102, Control_c, 0, 64, 13
1, 77359, Note_on_c, 0, 47, 47
1, 77360, Note_off_c, 0, 46, 54
1, 77593, Note_off_c, 0, 47, 54
1, 77605, Note_on_c, 0, 51, 42
1, 77613, Control_c, 0, 64, 13
1, 77628, Control_c, 0, 64, 14
1, 77643, Control_c, 0, 64, 15
1, 77658, Control_c, 0, 64, 18
1, 77673, Control_c, 0, 64, 20
1, 77688, Control_c, 0, 64, 24
1, 77703, Control_c, 0, 64, 27
1, 77718, Control_c, 0, 64, 31
1, 77733, Control_c, 0, 64, 34
1, 77747, Control_c, 0, 64, 38
1, 77762, Control_c, 0, 64, 42
1, 77777, Control_c, 0, 64, 46
1, 77791, Control_c, 0, 64, 51
1, 77806, Note_off_c, 0, 51, 57
1, 77806, Control_c, 0, 64, 55
1, 77821, Control_c, 0, 64, 57
1, 77834, Note_on_c, 0, 49, 48
1, 77836, Control_c, 0, 64, 58
1, 77851, Control_c, 0, 64, 59
1, 77865, Control_c, 0, 64, 59
1, 77932, Control_c, 0, 64, 59
1, 77959, Note_off_c, 0, 49, 63
1, 77962, Control_c, 0, 64, 58
1, 77977, Control_c, 0, 64, 58
1, 77989, Note_on_c, 0, 47, 55
1, 77992, Control_c, 0, 64, 57
1, 78006, Control_c, 0, 64, 56
1, 78021, Control_c, 0, 64, 55
1, 78036, Control_c, 0, 64, 54
1, 78051, Control_c, 0, 64, 53
1, 78066, Control_c, 0, 64, 51
1, 78080, Control_c, 0, 64, 49
1, 78095, Control_c, 0, 64, 48
1, 78110, Control_c, 0, 64, 46
1, 78125, Control_c, 0, 64, 43
1, 78140, Control_c, 0, 64, 39
1, 78147, Note_off_c, 0, 47, 37
1, 78154, Control_c, 0, 64, 33
1, 78161, Note_on_c, 0, 63, 54
1, 78164, Note_on_c, 0, 46, 43
1, 78166, Note_on_c, 0, 61, 46
1, 78169, Control_c, 0, 64, 25
1, 78179, Note_on_c, 0, 55, 36
1, 78184, Control_c, 0, 64, 18
1, 78198, Control_c, 0, 64, 13
1, 78213, Control_c, 0, 64, 11
1, 78229, Control_c, 0, 64, 10
1, 78259, Control_c, 0, 64, 10
1, 78274, Control_c, 0, 64, 14
1, 78289, Control_c, 0, 64, 20
1, 78303, Control_c, 0, 64, 27
1, 78318, Control_c, 0, 64, 34
1, 78333, Control_c, 0, 64, 41
1, 78348, Control_c, 0, 64, 48
1, 78363, Control_c, 0, 64, 55
1, 78377, Control_c, 0, 64, 59
1, 78392, Control_c, 0, 64, 62
1, 78407, Control_c, 0, 64, 64
1, 78408, Note_off_c, 0, 55, 43
1, 78421, Control_c, 0, 64, 65
1, 78436, Control_c, 0, 64, 66
1, 78451, Control_c, 0, 64, 67
1, 78466, Control_c, 0, 64, 68
1, 78481, Control_c, 0, 64, 69
1, 78496, Control_c, 0, 64, 69
1, 78522, Note_off_c, 0, 61, 43
1, 78545, Note_off_c, 0, 63, 35
1, 78579, Note_off_c, 0, 46, 63
1, 78606, Note_on_c, 0, 47, 56
1, 78614, Control_c, 0, 64, 69
1, 78629, Control_c, 0, 64, 68
1, 78651, Control_c, 0, 64, 68
1, 78666, Control_c, 0, 64, 67
1, 78681, Control_c, 0, 64, 66
1, 78696, Control_c, 0, 64, 65
1, 78710, Control_c, 0, 64, 64
1, 78725, Control_c, 0, 64, 62
1, 78740, Control_c, 0, 64, 59
1, 78742, Note_off_c, 0, 47, 54
1, 78755, Control_c, 0, 64, 55
1, 78763, Note_on_c, 0, 63, 54
1, 78768, Note_on_c, 0, 44, 44
1, 78770, Control_c, 0, 64, 51
1, 78777, Note_on_c, 0, 54, 46
1, 78778, Note_on_c, 0, 60, 49
1, 78785, Control_c, 0, 64, 47
1, 78800, Control_c, 0, 64, 42
1, 78815, Control_c, 0, 64, 37
1, 78829, Control_c, 0, 64, 28
1, 78844, Control_c, 0, 64, 14
1, 78859, Control_c, 0, 64, 0
1, 78933, Control_c, 0, 64, 16
1, 78947, Control_c, 0, 64, 24
1, 78955, Note_off_c, 0, 60, 62
1, 78962, Control_c, 0, 64, 31
1, 78977, Control_c, 0, 64, 38
1, 78992, Control_c, 0, 64, 44
1, 79007, Control_c, 0, 64, 51
1, 79023, Control_c, 0, 64, 56
1, 79038, Control_c, 0, 64, 60
1, 79052, Control_c, 0, 64, 62
1, 79067, Control_c, 0, 64, 63
1, 79068, Note_off_c, 0, 54, 52
1, 79082, Control_c, 0, 64, 64
1, 79097, Control_c, 0, 64, 65
1, 79112, Control_c, 0, 64, 67
1, 79126, Control_c, 0, 64, 69
1, 79141, Control_c, 0, 64, 70
1, 79156, Control_c, 0, 64, 71
1, 79171, Control_c, 0, 64, 72
1, 79333, Control_c, 0, 64, 72
1, 79348, Control_c, 0, 64, 71
1, 79363, Control_c, 0, 64, 71
1, 79377, Control_c, 0, 64, 70
1, 79399, Control_c, 0, 64, 70
1, 79414, Control_c, 0, 64, 69
1, 79429, Control_c, 0, 64, 68
1, 79438, Note_off_c, 0, 44, 41
1, 79444, Control_c, 0, 64, 67
1, 79456, Note_on_c, 0, 61, 47
1, 79457, Note_on_c, 0, 37, 40
1, 79459, Control_c, 0, 64, 65
1, 79468, Note_on_c, 0, 52, 45
1, 79474, Control_c, 0, 64, 64
1, 79488, Control_c, 0, 64, 62
1, 79503, Control_c, 0, 64, 60
1, 79518, Control_c, 0, 64, 57
1, 79533, Control_c, 0, 64, 53
1, 79548, Control_c, 0, 64, 49
1, 79563, Control_c, 0, 64, 43
1, 79577, Control_c, 0, 64, 35
1, 79592, Control_c, 0, 64, 25
1, 79595, Note_off_c, 0, 63, 40
1, 79607, Control_c, 0, 64, 0
1, 79725, Control_c, 0, 64, 8
1, 79740, Control_c, 0, 64, 18
1, 79755, Control_c, 0, 64, 24
1, 79769, Control_c, 0, 64, 29
1, 79784, Control_c, 0, 64, 34
1, 79799, Control_c, 0, 64, 41
1, 79815, Control_c, 0, 64, 47
1, 79830, Control_c, 0, 64, 53
1, 79845, Control_c, 0, 64, 57
1, 79860, Control_c, 0, 64, 60
1, 79874, Control_c, 0, 64, 62
1, 79889, Control_c, 0, 64, 64
1, 79904, Control_c, 0, 64, 66
1, 79919, Control_c, 0, 64, 69
1, 79934, Control_c, 0, 64, 71
1, 79948, Control_c, 0, 64, 74
1, 79963, Control_c, 0, 64, 76
1, 79978, Control_c, 0, 64, 78
1, 79992, Control_c, 0, 64, 79
1, 80007, Control_c, 0, 64, 80
1, 80022, Control_c, 0, 64, 81
1, 80037, Control_c, 0, 64, 82
1, 80052, Control_c, 0, 64, 82
1, 80082, Control_c, 0, 64, 83
1, 80172, Note_on_c, 0, 57, 43
1, 80182, Note_off_c, 0, 52, 38
1, 80272, Note_off_c, 0, 61, 43
1, 80484, Note_off_c, 0, 57, 27
1, 80498, Note_off_c, 0, 37, 31
1, 80607, Control_c, 0, 64, 82
1, 80653, Control_c, 0, 64, 82
1, 80727, Control_c, 0, 64, 81
1, 80815, Control_c, 0, 64, 81
1, 80845, Control_c, 0, 64, 80
1, 80912, Control_c, 0, 64, 80
1, 80927, Control_c, 0, 64, 79
1, 80942, Control_c, 0, 64, 79
1, 80957, Control_c, 0, 64, 78
1, 80971, Control_c, 0, 64, 77
1, 80986, Control_c, 0, 64, 76
1, 81001, Control_c, 0, 64, 74
1, 81016, Control_c, 0, 64, 68
1, 81030, Control_c, 0, 64, 60
1, 81042, Note_on_c, 0, 46, 38
1, 81042, Note_on_c, 0, 55, 43
1, 81045, Control_c, 0, 64, 42
1, 81049, Note_on_c, 0, 39, 33
1, 81060, Control_c, 0, 64, 20
1, 81075, Control_c, 0, 64, 0
1, 81119, Control_c, 0, 64, 11
1, 81134, Control_c, 0, 64, 27
1, 81149, Control_c, 0, 64, 39
1, 81164, Control_c, 0, 64, 51
1, 81179, Control_c, 0, 64, 62
1, 81184, Note_off_c, 0, 46, 63
1, 81185, Note_off_c, 0, 39, 57
1, 81194, Control_c, 0, 64, 74
1, 81207, Note_off_c, 0, 55, 36
1, 81208, Control_c, 0, 64, 94
1, 81223, Control_c, 0, 64, 105
1, 81238, Control_c, 0, 64, 117
1, 81253, Control_c, 0, 64, 127
1, 81283, Control_c, 0, 67, 125
1, 81297, Control_c, 0, 67, 108
1, 81312, Control_c, 0, 67, 86
1, 81327, Control_c, 0, 67, 61
1, 81341, Control_c, 0, 67, 33
1, 81356, Control_c, 0, 67, 12
1, 81371, Control_c, 0, 67, 0
1, 81714, Note_on_c, 0, 63, 77
1, 81715, Note_on_c, 0, 51, 75
1, 81736, Note_off_c, 0, 63, 73
1, 81742, Note_off_c, 0, 51, 69
1, 81794, Note_on_c, 0, 63, 84
1, 81804, Note_on_c, 0, 51, 73
1, 81817, Note_off_c, 0, 63, 69
1, 81820, Note_off_c, 0, 51, 71
1, 81870, Note_on_c, 0, 51, 80
1, 81870, Note_on_c, 0, 63, 77
1, 81891, Note_off_c, 0, 63, 71
1, 81894, Note_off_c, 0, 51, 69
1, 82157, Note_on_c, 0, 63, 86
1, 82159, Note_on_c, 0, 51, 82
1, 82174, Note_off_c, 0, 63, 74
1, 82182, Note_off_c, 0, 51, 71
1, 82372, Control_c, 0, 64, 78
1, 82394, Control_c, 0, 64, 63
1, 82409, Control_c, 0, 64, 55
1, 82424, Control_c, 0, 64, 51
1, 82439, Control_c, 0, 64, 54
1, 82447, Note_on_c, 0, 63, 94
1, 82449, Note_on_c, 0, 51, 87
1, 82454, Control_c, 0, 64, 61
1, 82468, Control_c, 0, 64, 73
1, 82471, Note_off_c, 0, 63, 61
1, 82474, Note_off_c, 0, 51, 67
1, 82483, Control_c, 0, 64, 127
1, 82732, Note_on_c, 0, 63, 77
1, 82737, Note_on_c, 0, 51, 70
1, 82755, Note_off_c, 0, 51, 68
1, 82760, Note_off_c, 0, 63, 67
1, 82812, Note_on_c, 0, 51, 78
1, 82820, Note_on_c, 0, 63, 68
1, 82833, Note_off_c, 0, 51, 73
1, 82839, Note_off_c, 0, 63, 68
1, 82898, Note_on_c, 0, 63, 77
1, 82902, Note_on_c, 0, 51, 72
1, 82913, Note_off_c, 0, 63, 78
1, 82928, Note_off_c, 0, 51, 60
1, 83125, Note_on_c, 0, 63, 77
1, 83130, Note_on_c, 0, 51, 72
1, 83154, Note_off_c, 0, 51, 71
1, 83155, Note_off_c, 0, 63, 73
1, 83208, Note_on_c, 0, 51, 81
1, 83214, Note_on_c, 0, 63, 84
1, 83227, Note_off_c, 0, 51, 71
1, 83236, Note_off_c, 0, 63, 69
1, 83305, Note_on_c, 0, 51, 79
1, 83305, Note_on_c, 0, 63, 78
1, 83326, Note_off_c, 0, 63, 67
1, 83328, Note_off_c, 0, 51, 70
1, 83539, Note_on_c, 0, 63, 61
1, 83544, Note_on_c, 0, 51, 58
1, 83583, Note_off_c, 0, 51, 64
1, 83590, Note_off_c, 0, 63, 58
1, 83772, Note_on_c, 0, 63, 39
1, 83775, Note_on_c, 0, 51, 36
1, 83820, Note_off_c, 0, 51, 48
1, 83864, Note_off_c, 0, 63, 37
1, 83995, Note_on_c, 0, 63, 48
1, 84002, Note_on_c, 0, 51, 42
1, 84049, Note_off_c, 0, 63, 52
1, 84052, Note_off_c, 0, 51, 59
1, 84160, Control_c, 0, 64, 106
1, 84174, Control_c, 0, 64, 74
1, 84189, Control_c, 0, 64, 67
1, 84213, Note_on_c, 0, 51, 45
1, 84219, Control_c, 0, 64, 69
1, 84220, Note_on_c, 0, 63, 45
1, 84234, Control_c, 0, 64, 76
1, 84248, Control_c, 0, 64, 95
1, 84255, Note_off_c, 0, 51, 59
1, 84263, Control_c, 0, 64, 127
1, 84291, Note_off_c, 0, 63, 53
1, 84443, Note_on_c, 0, 61, 45
1, 84467, Note_on_c, 0, 53, 21
1, 84489, Poly_aftertouch_c, 0, 63, 127
1, 84517, Note_off_c, 0, 53, 47
1, 84529, Note_off_c, 0, 61, 55
1, 84538, Poly_aftertouch_c, 0, 63, 0
1, 84686, Control_c, 0, 64, 109
1, 84701, Control_c, 0, 64, 99
1, 84707, Note_on_c, 0, 55, 37
1, 84711, Note_on_c, 0, 61, 34
1, 84716, Control_c, 0, 64, 92
1, 84731, Control_c, 0, 64, 87
1, 84744, Poly_aftertouch_c, 0, 63, 127
1, 84745, Control_c, 0, 64, 81
1, 84760, Control_c, 0, 64, 73
1, 84775, Control_c, 0, 64, 65
1, 84777, Note_on_c, 0, 70, 66
1, 84789, Control_c, 0, 64, 57
1, 84804, Control_c, 0, 64, 44
1, 84819, Control_c, 0, 64, 30
1, 84834, Control_c, 0, 64, 23
1, 84849, Control_c, 0, 64, 24
1, 84863, Control_c, 0, 64, 27
1, 84869, Poly_aftertouch_c, 0, 63, 0
1, 84878, Control_c, 0, 64, 34
1, 84893, Control_c, 0, 64, 44
1, 84896, Note_off_c, 0, 61, 58
1, 84908, Control_c, 0, 64, 56
1, 84923, Control_c, 0, 64, 66
1, 84938, Control_c, 0, 64, 79
1, 84952, Note_off_c, 0, 55, 53
1, 84952, Control_c, 0, 64, 87
1, 84967, Control_c, 0, 64, 87
1, 84982, Control_c, 0, 64, 89
1, 84997, Control_c, 0, 64, 94
1, 85012, Control_c, 0, 64, 100
1, 85027, Control_c, 0, 64, 108
1, 85042, Control_c, 0, 64, 122
1, 85045, Note_on_c, 0, 63, 40
1, 85051, Note_on_c, 0, 51, 42
1, 85057, Control_c, 0, 64, 127
1, 85079, Note_off_c, 0, 63, 55
1, 85091, Note_off_c, 0, 51, 49
1, 85204, Control_c, 0, 64, 95
1, 85219, Control_c, 0, 64, 74
1, 85232, Note_on_c, 0, 72, 73
1, 85234, Control_c, 0, 64, 60
1, 85236, Note_on_c, 0, 56, 47
1, 85249, Control_c, 0, 64, 47
1, 85251, Note_on_c, 0, 61, 29
1, 85257, Note_on_c, 0, 63, 27
1, 85263, Control_c, 0, 64, 34
1, 85278, Control_c, 0, 64, 33
1, 85293, Control_c, 0, 64, 37
1, 85307, Control_c, 0, 64, 45
1, 85316, Note_off_c, 0, 61, 40
1, 85321, Note_off_c, 0, 63, 43
1, 85322, Control_c, 0, 64, 56
1, 85337, Control_c, 0, 64, 67
1, 85352, Control_c, 0, 64, 85
1, 85367, Control_c, 0, 64, 96
1, 85389, Control_c, 0, 64, 97
1, 85391, Note_off_c, 0, 70, 29
1, 85404, Control_c, 0, 64, 99
1, 85420, Control_c, 0, 64, 106
1, 85435, Control_c, 0, 64, 127
1, 85460, Note_off_c, 0, 56, 45
1, 85462, Note_on_c, 0, 53, 48
1, 85536, Poly_aftertouch_c, 0, 63, 0
1, 85539, Control_c, 0, 64, 119
1, 85554, Control_c, 0, 64, 85
1, 85568, Control_c, 0, 64, 69
1, 85583, Control_c, 0, 64, 59
1, 85598, Control_c, 0, 64, 48
1, 85612, Control_c, 0, 64, 43
1, 85627, Control_c, 0, 64, 47
1, 85638, Note_off_c, 0, 53, 42
1, 85642, Control_c, 0, 64, 55
1, 85657, Control_c, 0, 64, 64
1, 85662, Note_on_c, 0, 61, 55
1, 85669, Note_on_c, 0, 70, 71
1, 85672, Note_on_c, 0, 55, 40
1, 85672, Control_c, 0, 64, 76
1, 85686, Control_c, 0, 64, 85
1, 85687, Note_off_c, 0, 72, 57
1, 85696, Poly_aftertouch_c, 0, 63, 127
1, 85745, Poly_aftertouch_c, 0, 63, 0
1, 85748, Note_off_c, 0, 61, 59
1, 85790, Control_c, 0, 64, 84
1, 85805, Control_c, 0, 64, 83
1, 85811, Note_off_c, 0, 55, 57
1, 85820, Control_c, 0, 64, 82
1, 85835, Control_c, 0, 64, 81
1, 85850, Control_c, 0, 64, 81
1, 85865, Control_c, 0, 64, 79
1, 85879, Note_on_c, 0, 61, 47
1, 85879, Control_c, 0, 64, 78
1, 85883, Note_on_c, 0, 63, 67
1, 85887, Note_on_c, 0, 53, 54
1, 85894, Control_c, 0, 64, 76
1, 85900, Note_off_c, 0, 61, 63
1, 85903, Note_off_c, 0, 63, 69
1, 85909, Control_c, 0, 64, 72
1, 85922, Note_off_c, 0, 53, 50
1, 85923, Control_c, 0, 64, 69
1, 85937, Control_c, 0, 64, 66
1, 85952, Control_c, 0, 64, 62
1, 85963, Note_on_c, 0, 63, 73
1, 85967, Control_c, 0, 64, 54
1, 85982, Control_c, 0, 64, 40
1, 85988, Note_off_c, 0, 63, 66
1, 85997, Control_c, 0, 64, 10
1, 86011, Control_c, 0, 64, 0
1, 86040, Note_on_c, 0, 55, 53
1, 86049, Note_on_c, 0, 63, 74
1, 86106, Note_off_c, 0, 63, 63
1, 86115, Control_c, 0, 64, 23
1, 86137, Control_c, 0, 64, 39
1, 86152, Control_c, 0, 64, 53
1, 86167, Control_c, 0, 64, 65
1, 86182, Control_c, 0, 64, 78
1, 86197, Control_c, 0, 64, 86
1, 86213, Control_c, 0, 64, 86
1, 86228, Control_c, 0, 64, 89
1, 86234, Note_off_c, 0, 55, 43
1, 86242, Control_c, 0, 64, 95
1, 86257, Control_c, 0, 64, 105
1, 86272, Control_c, 0, 64, 119
1, 86279, Note_on_c, 0, 72, 75
1, 86283, Note_on_c, 0, 63, 43
1, 86287, Control_c, 0, 64, 127
1, 86291, Note_on_c, 0, 51, 36
1, 86326, Note_off_c, 0, 70, 56
1, 86398, Note_off_c, 0, 63, 42
1, 86449, Control_c, 0, 64, 88
1, 86464, Control_c, 0, 64, 68
1, 86479, Control_c, 0, 64, 53
1, 86494, Note_on_c, 0, 68, 75
1, 86494, Control_c, 0, 64, 37
1, 86500, Note_on_c, 0, 60, 40
1, 86505, Note_off_c, 0, 51, 39
1, 86508, Control_c, 0, 64, 34
1, 86510, Note_on_c, 0, 56, 48
1, 86518, Note_off_c, 0, 72, 63
1, 86523, Control_c, 0, 64, 41
1, 86538, Control_c, 0, 64, 51
1, 86551, Note_off_c, 0, 60, 64
1, 86553, Control_c, 0, 64, 62
1, 86568, Control_c, 0, 64, 79
1, 86583, Control_c, 0, 64, 127
1, 86595, Note_off_c, 0, 56, 65
1, 86718, Note_on_c, 0, 77, 81
1, 86726, Note_on_c, 0, 58, 33
1, 86729, Note_on_c, 0, 49, 37
1, 86733, Note_on_c, 0, 56, 37
1, 86775, Note_off_c, 0, 68, 57
1, 86777, Note_off_c, 0, 56, 53
1, 86778, Note_off_c, 0, 58, 61
1, 86894, Note_off_c, 0, 49, 36
1, 86929, Note_on_c, 0, 61, 50
1, 86935, Note_on_c, 0, 55, 48
1, 86941, Note_on_c, 0, 51, 49
1, 86947, Control_c, 0, 64, 74
1, 86961, Control_c, 0, 64, 56
1, 86976, Control_c, 0, 64, 35
1, 86988, Note_off_c, 0, 61, 62
1, 86991, Control_c, 0, 64, 13
1, 87006, Control_c, 0, 64, 14
1, 87021, Note_on_c, 0, 70, 73
1, 87021, Control_c, 0, 64, 23
1, 87033, Note_off_c, 0, 77, 57
1, 87036, Control_c, 0, 64, 34
1, 87048, Note_off_c, 0, 55, 64
1, 87051, Control_c, 0, 64, 47
1, 87066, Control_c, 0, 64, 62
1, 87075, Note_off_c, 0, 51, 65
1, 87081, Control_c, 0, 64, 86
1, 87096, Control_c, 0, 64, 127
1, 87188, Note_off_c, 0, 70, 58
1, 87236, Note_on_c, 0, 39, 49
1, 87309, Note_off_c, 0, 39, 60
1, 87412, Note_on_c, 0, 72, 70
1, 87616, Note_on_c, 0, 75, 69
1, 87725, Note_off_c, 0, 72, 56
1, 87779, Note_on_c, 0, 63, 60
1, 87787, Note_on_c, 0, 73, 75
1, 87795, Note_on_c, 0, 51, 41
1, 87813, Note_off_c, 0, 63, 48
1, 87840, Note_off_c, 0, 51, 47
1, 87843, Note_off_c, 0, 75, 59
1, 87897, Note_on_c, 0, 72, 79
1, 87897, Note_off_c, 0, 73, 64
1, 87978, Control_c, 0, 64, 75
1, 87993, Control_c, 0, 64, 60
1, 88007, Control_c, 0, 64, 38
1, 88009, Note_on_c, 0, 55, 47
1, 88014, Note_on_c, 0, 61, 52
1, 88014, Note_on_c, 0, 70, 79
1, 88017, Note_off_c, 0, 72, 55
1, 88022, Control_c, 0, 64, 15
1, 88037, Control_c, 0, 64, 11
1, 88052, Control_c, 0, 64, 13
1, 88067, Control_c, 0, 64, 20
1, 88068, Note_on_c, 0, 63, 4
1, 88081, Control_c, 0, 64, 32
1, 88096, Control_c, 0, 64, 44
1, 88109, Note_off_c, 0, 63, 40
1, 88111, Control_c, 0, 64, 59
1, 88125, Control_c, 0, 64, 75
1, 88140, Control_c, 0, 64, 127
1, 88158, Note_off_c, 0, 70, 61
1, 88193, Note_off_c, 0, 61, 37
1, 88196, Note_off_c, 0, 55, 34
1, 88227, Note_on_c, 0, 63, 54
1, 88248, Note_on_c, 0, 51, 55
1, 88273, Note_off_c, 0, 63, 63
1, 88311, Note_off_c, 0, 51, 63
1, 88366, Note_on_c, 0, 72, 67
1, 88474, Control_c, 0, 64, 117
1, 88488, Control_c, 0, 64, 103
1, 88503, Control_c, 0, 64, 88
1, 88518, Control_c, 0, 64, 72
1, 88532, Control_c, 0, 64, 59
1, 88546, Note_on_c, 0, 44, 51
1, 88547, Control_c, 0, 64, 38
1, 88552, Note_on_c, 0, 68, 61
1, 88562, Control_c, 0, 64, 0
1, 88567, Note_off_c, 0, 72, 53
1, 88637, Control_c, 0, 64, 20
1, 88652, Control_c, 0, 64, 37
1, 88667, Control_c, 0, 64, 51
1, 88682, Note_off_c, 0, 44, 61
1, 88682, Control_c, 0, 64, 67
1, 88697, Control_c, 0, 64, 110
1, 88711, Control_c, 0, 64, 127
1, 88914, Note_on_c, 0, 60, 41
1, 88915, Note_on_c, 0, 51, 49
1, 88928, Note_on_c, 0, 63, 37
1, 89030, Note_off_c, 0, 51, 61
1, 89066, Note_off_c, 0, 60, 52
1, 89066, Note_off_c, 0, 63, 34
1, 89155, Note_on_c, 0, 53, 60
1, 89175, Note_on_c, 0, 63, 52
1, 89188, Poly_aftertouch_c, 0, 60, 127
1, 89245, Note_off_c, 0, 63, 59
1, 89254, Poly_aftertouch_c, 0, 60, 0
1, 89326, Control_c, 0, 64, 84
1, 89341, Control_c, 0, 64, 64
1, 89355, Control_c, 0, 64, 51
1, 89356, Note_on_c, 0, 60, 57
1, 89364, Note_on_c, 0, 55, 62
1, 89367, Note_on_c, 0, 63, 55
1, 89370, Control_c, 0, 64, 51
1, 89379, Note_off_c, 0, 53, 52
1, 89385, Control_c, 0, 64, 60
1, 89400, Control_c, 0, 64, 70
1, 89406, Note_off_c, 0, 63, 51
1, 89416, Control_c, 0, 64, 101
1, 89431, Control_c, 0, 64, 127
1, 89511, Note_off_c, 0, 60, 40
1, 89534, Control_c, 0, 64, 95
1, 89549, Control_c, 0, 64, 64
1, 89564, Control_c, 0, 64, 49
1, 89579, Control_c, 0, 64, 32
1, 89584, Note_on_c, 0, 63, 67
1, 89585, Note_on_c, 0, 56, 50
1, 89594, Control_c, 0, 64, 33
1, 89609, Control_c, 0, 64, 44
1, 89622, Note_off_c, 0, 55, 28
1, 89624, Control_c, 0, 64, 57
1, 89635, Note_off_c, 0, 56, 67
1, 89638, Control_c, 0, 64, 79
1, 89643, Note_off_c, 0, 68, 48
1, 89653, Control_c, 0, 64, 127
1, 89752, Note_off_c, 0, 63, 66
1, 89777, Note_on_c, 0, 58, 70
1, 89799, Note_on_c, 0, 42, 42
1, 89807, Note_off_c, 0, 58, 65
1, 89887, Note_on_c, 0, 57, 74
1, 89922, Note_off_c, 0, 57, 60
1, 89962, Note_off_c, 0, 42, 58
1, 89996, Note_on_c, 0, 41, 51
1, 90089, Control_c, 0, 64, 82
1, 90104, Control_c, 0, 64, 64
1, 90104, Note_on_c, 0, 72, 82
1, 90118, Control_c, 0, 64, 43
1, 90133, Control_c, 0, 64, 0
1, 90193, Control_c, 0, 64, 27
1, 90195, Note_off_c, 0, 41, 64
1, 90208, Control_c, 0, 64, 45
1, 90223, Control_c, 0, 64, 60
1, 90238, Control_c, 0, 64, 85
1, 90253, Control_c, 0, 64, 127
1, 90455, Note_on_c, 0, 65, 49
1, 90458, Note_on_c, 0, 55, 46
1, 90468, Note_on_c, 0, 63, 33
1, 90562, Note_off_c, 0, 63, 37
1, 90573, Note_off_c, 0, 65, 44
1, 90577, Note_off_c, 0, 55, 56
1, 90676, Control_c, 0, 64, 88
1, 90687, Note_on_c, 0, 63, 51
1, 90691, Note_on_c, 0, 65, 50
1, 90691, Control_c, 0, 64, 64
1, 90699, Note_on_c, 0, 57, 51
1, 90706, Control_c, 0, 64, 51
1, 90720, Control_c, 0, 64, 40
1, 90735, Control_c, 0, 64, 42
1, 90750, Control_c, 0, 64, 50
1, 90763, Note_off_c, 0, 65, 59
1, 90764, Note_off_c, 0, 63, 54
1, 90765, Control_c, 0, 64, 58
1, 90780, Control_c, 0, 64, 67
1, 90795, Control_c, 0, 64, 89
1, 90801, Note_off_c, 0, 57, 43
1, 90809, Control_c, 0, 64, 114
1, 90824, Control_c, 0, 64, 127
1, 90844, Note_off_c, 0, 72, 59
1, 90895, Note_on_c, 0, 65, 56
1, 90899, Note_on_c, 0, 63, 33
1, 90905, Note_on_c, 0, 53, 50
1, 90929, Note_off_c, 0, 63, 56
1, 90957, Note_off_c, 0, 65, 63
1, 91028, Note_off_c, 0, 53, 35
1, 91032, Control_c, 0, 64, 119
1, 91047, Control_c, 0, 64, 100
1, 91062, Control_c, 0, 64, 80
1, 91077, Control_c, 0, 64, 64
1, 91092, Control_c, 0, 64, 51
1, 91098, Note_on_c, 0, 73, 73
1, 91105, Note_on_c, 0, 58, 38
1, 91106, Control_c, 0, 64, 33
1, 91110, Note_on_c, 0, 65, 27
1, 91121, Control_c, 0, 64, 21
1, 91123, Note_on_c, 0, 61, 38
1, 91150, Control_c, 0, 64, 25
1, 91165, Control_c, 0, 64, 34
1, 91180, Control_c, 0, 64, 46
1, 91195, Control_c, 0, 64, 59
1, 91200, Note_off_c, 0, 65, 44
1, 91201, Note_off_c, 0, 61, 50
1, 91210, Control_c, 0, 64, 75
1, 91224, Control_c, 0, 64, 127
1, 91249, Note_off_c, 0, 58, 35
1, 91318, Note_on_c, 0, 65, 58
1, 91324, Note_on_c, 0, 55, 55
1, 91386, Note_off_c, 0, 55, 53
1, 91394, Note_off_c, 0, 65, 57
1, 91439, Control_c, 0, 64, 92
1, 91454, Control_c, 0, 64, 66
1, 91467, Note_off_c, 0, 73, 45
1, 91469, Control_c, 0, 64, 54
1, 91484, Control_c, 0, 64, 40
1, 91498, Control_c, 0, 64, 40
1, 91513, Control_c, 0, 64, 48
1, 91528, Control_c, 0, 64, 57
1, 91536, Note_on_c, 0, 72, 74
1, 91537, Note_on_c, 0, 63, 58
1, 91543, Note_on_c, 0, 57, 48
1, 91543, Control_c, 0, 64, 67
1, 91558, Control_c, 0, 64, 82
1, 91573, Control_c, 0, 64, 85
1, 91588, Control_c, 0, 64, 85
1, 91591, Note_off_c, 0, 63, 62
1, 91603, Control_c, 0, 64, 83
1, 91606, Note_off_c, 0, 57, 52
1, 91618, Control_c, 0, 64, 81
1, 91632, Control_c, 0, 64, 79
1, 91647, Control_c, 0, 64, 79
1, 91662, Control_c, 0, 64, 78
1, 91676, Control_c, 0, 64, 76
1, 91691, Control_c, 0, 64, 74
1, 91706, Control_c, 0, 64, 72
1, 91721, Control_c, 0, 64, 70
1, 91736, Control_c, 0, 64, 67
1, 91746, Note_on_c, 0, 55, 67
1, 91750, Control_c, 0, 64, 64
1, 91758, Note_on_c, 0, 65, 67
1, 91765, Control_c, 0, 64, 62
1, 91771, Note_on_c, 0, 63, 29
1, 91776, Note_off_c, 0, 55, 64
1, 91780, Control_c, 0, 64, 58
1, 91783, Note_off_c, 0, 65, 70
1, 91796, Control_c, 0, 64, 51
1, 91811, Control_c, 0, 64, 43
1, 91814, Note_off_c, 0, 63, 51
1, 91826, Control_c, 0, 64, 32
1, 91832, Note_on_c, 0, 65, 77
1, 91841, Control_c, 0, 64, 0
1, 91853, Note_off_c, 0, 65, 72
1, 91903, Note_on_c, 0, 63, 49
1, 91910, Note_on_c, 0, 57, 51
1, 91912, Note_on_c, 0, 65, 73
1, 91929, Note_off_c, 0, 63, 58
1, 91929, Control_c, 0, 64, 29
1, 91932, Note_off_c, 0, 72, 46
1, 91944, Control_c, 0, 64, 44
1, 91959, Control_c, 0, 64, 58
1, 91973, Note_off_c, 0, 65, 62
1, 91973, Control_c, 0, 64, 72
1, 91988, Control_c, 0, 64, 109
1, 92003, Control_c, 0, 64, 127
1, 92110, Note_off_c, 0, 57, 40
1, 92139, Note_on_c, 0, 73, 87
1, 92143, Note_on_c, 0, 65, 53
1, 92152, Note_on_c, 0, 53, 50
1, 92250, Note_off_c, 0, 65, 56
1, 92315, Note_off_c, 0, 53, 63
1, 92345, Note_on_c, 0, 58, 55
1, 92345, Note_on_c, 0, 61, 61
1, 92351, Control_c, 0, 64, 85
1, 92366, Control_c, 0, 64, 65
1, 92373, Note_on_c, 0, 70, 85
1, 92381, Control_c, 0, 64, 51
1, 92396, Control_c, 0, 64, 34
1, 92401, Note_off_c, 0, 73, 68
1, 92411, Control_c, 0, 64, 33
1, 92426, Control_c, 0, 64, 42
1, 92434, Note_off_c, 0, 61, 65
1, 92440, Control_c, 0, 64, 54
1, 92449, Note_off_c, 0, 58, 63
1, 92455, Control_c, 0, 64, 66
1, 92470, Control_c, 0, 64, 105
1, 92485, Control_c, 0, 64, 127
1, 92560, Note_on_c, 0, 51, 57
1, 92560, Note_on_c, 0, 60, 55
1, 92585, Note_on_c, 0, 58, 58
1, 92591, Note_on_c, 0, 78, 95
1, 92625, Note_off_c, 0, 70, 60
1, 92637, Note_off_c, 0, 51, 63
1, 92637, Note_off_c, 0, 60, 62
1, 92686, Note_off_c, 0, 58, 60
1, 92792, Note_on_c, 0, 57, 56
1, 92794, Note_on_c, 0, 53, 54
1, 92798, Note_on_c, 0, 63, 57
1, 92810, Control_c, 0, 64, 71
1, 92825, Control_c, 0, 64, 54
1, 92835, Note_off_c, 0, 63, 66
1, 92840, Note_off_c, 0, 78, 61
1, 92840, Control_c, 0, 64, 29
1, 92855, Control_c, 0, 64, 16
1, 92861, Note_on_c, 0, 72, 86
1, 92876, Control_c, 0, 64, 24
1, 92891, Control_c, 0, 64, 39
1, 92894, Note_off_c, 0, 57, 62
1, 92906, Control_c, 0, 64, 53
1, 92921, Control_c, 0, 64, 69
1, 92934, Note_off_c, 0, 53, 65
1, 92935, Control_c, 0, 64, 127
1, 93082, Note_on_c, 0, 41, 61
1, 93125, Note_off_c, 0, 41, 65
1, 93250, Note_on_c, 0, 73, 84
1, 93296, Note_off_c, 0, 72, 52
1, 93426, Note_on_c, 0, 77, 85
1, 93479, Note_off_c, 0, 73, 62
1, 93587, Note_on_c, 0, 75, 87
1, 93597, Note_on_c, 0, 65, 72
1, 93602, Note_on_c, 0, 53, 66
1, 93603, Note_off_c, 0, 77, 60
1, 93689, Note_off_c, 0, 65, 53
1, 93705, Note_on_c, 0, 73, 87
1, 93717, Note_off_c, 0, 53, 34
1, 93743, Note_off_c, 0, 75, 59
1, 93745, Control_c, 0, 64, 79
1, 93759, Control_c, 0, 64, 59
1, 93774, Control_c, 0, 64, 38
1, 93789, Control_c, 0, 64, 22
1, 93799, Note_on_c, 0, 63, 66
1, 93802, Note_on_c, 0, 72, 89
1, 93804, Control_c, 0, 64, 29
1, 93811, Note_on_c, 0, 65, 64
1, 93812, Note_on_c, 0, 57, 56
1, 93819, Control_c, 0, 64, 41
1, 93833, Control_c, 0, 64, 56
1, 93845, Note_off_c, 0, 73, 29
1, 93848, Control_c, 0, 64, 83
1, 93849, Note_off_c, 0, 72, 66
1, 93863, Control_c, 0, 64, 127
1, 93888, Note_off_c, 0, 65, 62
1, 93945, Note_off_c, 0, 57, 57
1, 93958, Note_off_c, 0, 63, 61
1, 94014, Note_on_c, 0, 65, 62
1, 94018, Note_on_c, 0, 53, 72
1, 94032, Note_off_c, 0, 65, 68
1, 94046, Note_off_c, 0, 53, 66
1, 94116, Note_on_c, 0, 73, 90
1, 94160, Note_off_c, 0, 73, 63
1, 94174, Control_c, 0, 64, 77
1, 94189, Control_c, 0, 64, 52
1, 94205, Control_c, 0, 64, 0
1, 94206, Note_on_c, 0, 46, 89
1, 94208, Note_on_c, 0, 34, 81
1, 94209, Note_on_c, 0, 70, 101
1, 94229, Note_off_c, 0, 34, 69
1, 94231, Note_off_c, 0, 46, 70
1, 94249, Control_c, 0, 64, 16
1, 94264, Control_c, 0, 64, 43
1, 94279, Control_c, 0, 64, 68
1, 94294, Control_c, 0, 64, 127
1, 94301, Note_off_c, 0, 70, 59
1, 94515, Note_on_c, 0, 61, 78
1, 94515, Note_on_c, 0, 53, 73
1, 94515, Note_on_c, 0, 58, 75
1, 94624, Note_off_c, 0, 58, 63
1, 94629, Note_off_c, 0, 53, 63
1, 94634, Note_off_c, 0, 61, 64
1, 94706, Note_on_c, 0, 61, 55
1, 94715, Note_on_c, 0, 58, 54
1, 94719, Note_on_c, 0, 65, 60
1, 94769, Note_off_c, 0, 58, 59
1, 94784, Note_off_c, 0, 61, 64
1, 94798, Note_on_c, 0, 82, 106
1, 94807, Note_off_c, 0, 65, 63
1, 95037, Note_on_c, 0, 61, 79
1, 95038, Note_on_c, 0, 70, 91
1, 95121, Note_off_c, 0, 61, 64
1, 95123, Note_off_c, 0, 82, 58
1, 95257, Note_off_c, 0, 70, 62
1, 95272, Note_on_c, 0, 65, 91
1, 95272, Note_on_c, 0, 73, 97
1, 95327, Note_off_c, 0, 73, 65
1, 95357, Note_off_c, 0, 65, 65
1, 95624, Note_on_c, 0, 80, 86
1, 95669, Note_off_c, 0, 80, 62
1, 95716, Control_c, 0, 64, 95
1, 95722, Note_on_c, 0, 80, 95
1, 95731, Control_c, 0, 64, 61
1, 95733, Note_on_c, 0, 72, 86
1, 95736, Note_on_c, 0, 39, 86
1, 95746, Control_c, 0, 64, 28
1, 95761, Control_c, 0, 64, 0
1, 95791, Control_c, 0, 64, 18
1, 95806, Control_c, 0, 64, 38
1, 95821, Control_c, 0, 64, 56
1, 95836, Control_c, 0, 64, 79
1, 95842, Note_off_c, 0, 72, 63
1, 95847, Note_off_c, 0, 39, 65
1, 95851, Control_c, 0, 64, 127
1, 95903, Note_off_c, 0, 80, 56
1, 95999, Note_on_c, 0, 79, 98
1, 96001, Note_on_c, 0, 63, 87
1, 96006, Note_on_c, 0, 51, 71
1, 96008, Note_on_c, 0, 73, 80
1, 96011, Note_on_c, 0, 70, 72
1, 96021, Note_off_c, 0, 63, 73
1, 96027, Note_off_c, 0, 51, 67
1, 96030, Note_off_c, 0, 70, 67
1, 96035, Note_off_c, 0, 73, 62
1, 96048, Note_off_c, 0, 79, 67
1, 96263, Note_on_c, 0, 67, 63
1, 96265, Note_on_c, 0, 72, 68
1, 96271, Note_on_c, 0, 61, 64
1, 96283, Note_on_c, 0, 84, 95
1, 96289, Note_on_c, 0, 73, 91
1, 96363, Note_off_c, 0, 72, 63
1, 96369, Note_off_c, 0, 61, 63
1, 96422, Note_off_c, 0, 73, 62
1, 96453, Note_off_c, 0, 67, 57
1, 96469, Note_off_c, 0, 84, 57
1, 96509, Note_on_c, 0, 70, 70
1, 96509, Note_on_c, 0, 82, 94
1, 96510, Note_on_c, 0, 61, 82
1, 96510, Note_on_c, 0, 73, 96
1, 96526, Note_off_c, 0, 70, 67
1, 96530, Note_on_c, 0, 84, 23
1, 96535, Note_off_c, 0, 61, 70
1, 96567, Note_off_c, 0, 84, 53
1, 96578, Poly_aftertouch_c, 0, 67, 0
1, 96587, Note_off_c, 0, 82, 62
1, 96680, Control_c, 0, 64, 77
1, 96694, Control_c, 0, 64, 55
1, 96709, Control_c, 0, 64, 34
1, 96715, Note_on_c, 0, 53, 96
1, 96719, Note_on_c, 0, 41, 76
1, 96724, Note_on_c, 0, 80, 93
1, 96724, Control_c, 0, 64, 40
1, 96731, Note_off_c, 0, 73, 62
1, 96734, Note_off_c, 0, 53, 75
1, 96739, Control_c, 0, 64, 54
1, 96745, Note_off_c, 0, 41, 67
1, 96754, Control_c, 0, 64, 65
1, 96769, Control_c, 0, 64, 92
1, 96784, Control_c, 0, 64, 127
1, 96900, Note_on_c, 0, 65, 72
1, 96902, Note_on_c, 0, 56, 74
1, 96904, Note_on_c, 0, 61, 69
1, 96916, Note_on_c, 0, 68, 72
1, 96916, Note_off_c, 0, 65, 72
1, 96918, Note_on_c, 0, 73, 72
1, 96918, Note_off_c, 0, 80, 59
1, 96922, Note_off_c, 0, 61, 70
1, 96929, Note_off_c, 0, 56, 68
1, 96993, Note_on_c, 0, 77, 83
1, 97004, Note_off_c, 0, 73, 58
1, 97016, Note_off_c, 0, 68, 57
1, 97055, Note_off_c, 0, 77, 60
1, 97094, Control_c, 0, 64, 94
1, 97109, Control_c, 0, 64, 62
1, 97124, Control_c, 0, 64, 34
1, 97126, Note_on_c, 0, 77, 96
1, 97130, Note_on_c, 0, 48, 78
1, 97132, Note_on_c, 0, 67, 85
1, 97139, Control_c, 0, 64, 0
1, 97147, Note_on_c, 0, 36, 57
1, 97152, Note_on_c, 0, 72, 55
1, 97184, Control_c, 0, 64, 16
1, 97194, Note_off_c, 0, 36, 65
1, 97196, Note_on_c, 0, 47, 27
1, 97197, Note_off_c, 0, 47, 127
1, 97199, Control_c, 0, 64, 38
1, 97214, Control_c, 0, 64, 56
1, 97221, Note_off_c, 0, 48, 67
1, 97229, Control_c, 0, 64, 78
1, 97243, Control_c, 0, 64, 127
1, 97283, Note_off_c, 0, 67, 58
1, 97336, Note_off_c, 0, 72, 41
1, 97385, Note_on_c, 0, 60, 66
1, 97386, Note_on_c, 0, 75, 94
1, 97388, Note_on_c, 0, 67, 73
1, 97399, Note_off_c, 0, 77, 64
1, 97404, Note_on_c, 0, 72, 47
1, 97409, Note_on_c, 0, 63, 59
1, 97410, Note_off_c, 0, 67, 66
1, 97413, Note_off_c, 0, 60, 67
1, 97428, Note_off_c, 0, 72, 59
1, 97480, Note_off_c, 0, 75, 60
1, 97610, Note_on_c, 0, 60, 60
1, 97624, Note_on_c, 0, 68, 65
1, 97630, Note_on_c, 0, 80, 91
1, 97632, Note_on_c, 0, 72, 82
1, 97685, Note_off_c, 0, 63, 14
1, 97758, Note_off_c, 0, 68, 60
1, 97774, Note_on_c, 0, 78, 19
1, 97774, Note_off_c, 0, 60, 63
1, 97782, Note_off_c, 0, 80, 59
1, 97788, Note_off_c, 0, 72, 61
1, 97823, Note_off_c, 0, 78, 53
1, 97850, Note_on_c, 0, 79, 90
1, 97856, Note_on_c, 0, 63, 71
1, 97857, Note_on_c, 0, 75, 75
1, 97857, Note_on_c, 0, 60, 64
1, 97858, Note_on_c, 0, 72, 76
1, 97878, Note_off_c, 0, 63, 69
1, 97881, Note_off_c, 0, 60, 71
1, 97901, Note_off_c, 0, 75, 53
1, 97946, Note_off_c, 0, 79, 63
1, 98022, Control_c, 0, 64, 83
1, 98036, Control_c, 0, 64, 60
1, 98051, Control_c, 0, 64, 33
1, 98066, Note_on_c, 0, 37, 71
1, 98066, Note_on_c, 0, 49, 74
1, 98066, Control_c, 0, 64, 19
1, 98069, Note_on_c, 0, 77, 90
1, 98081, Control_c, 0, 64, 32
1, 98088, Note_off_c, 0, 72, 64
1, 98096, Control_c, 0, 64, 47
1, 98118, Control_c, 0, 64, 64
1, 98122, Note_off_c, 0, 37, 62
1, 98128, Note_off_c, 0, 77, 63
1, 98133, Control_c, 0, 64, 127
1, 98140, Note_off_c, 0, 49, 65
1, 98307, Note_on_c, 0, 56, 65
1, 98316, Note_on_c, 0, 61, 49
1, 98316, Note_on_c, 0, 65, 71
1, 98321, Note_on_c, 0, 68, 76
1, 98338, Note_off_c, 0, 56, 66
1, 98342, Note_off_c, 0, 61, 60
1, 98420, Note_on_c, 0, 73, 89
1, 98449, Note_off_c, 0, 65, 64
1, 98465, Note_off_c, 0, 68, 55
1, 98522, Note_off_c, 0, 73, 60
1, 98607, Note_on_c, 0, 32, 68
1, 98611, Note_on_c, 0, 44, 60
1, 98626, Note_on_c, 0, 73, 86
1, 98638, Note_on_c, 0, 65, 69
1, 98667, Control_c, 0, 64, 70
1, 98682, Control_c, 0, 64, 54
1, 98697, Control_c, 0, 64, 29
1, 98712, Control_c, 0, 64, 0
1, 98727, Control_c, 0, 64, 14
1, 98741, Control_c, 0, 64, 32
1, 98743, Note_off_c, 0, 32, 63
1, 98756, Control_c, 0, 64, 47
1, 98771, Control_c, 0, 64, 63
1, 98786, Control_c, 0, 64, 110
1, 98787, Note_off_c, 0, 65, 63
1, 98796, Note_off_c, 0, 44, 61
1, 98801, Control_c, 0, 64, 127
1, 98974, Note_on_c, 0, 72, 77
1, 98981, Note_off_c, 0, 73, 38
1, 98982, Note_on_c, 0, 63, 59
1, 98984, Note_on_c, 0, 68, 68
1, 98991, Note_on_c, 0, 60, 35
1, 98992, Note_on_c, 0, 56, 42
1, 98995, Note_on_c, 0, 51, 46
1, 99019, Note_off_c, 0, 63, 54
1, 99020, Note_off_c, 0, 60, 53
1, 99022, Note_off_c, 0, 56, 58
1, 99028, Note_off_c, 0, 51, 57
1, 99088, Note_off_c, 0, 72, 59
1, 99097, Note_off_c, 0, 68, 50
1, 99194, Note_on_c, 0, 41, 77
1, 99194, Control_c, 0, 64, 66
1, 99209, Control_c, 0, 64, 46
1, 99224, Control_c, 0, 64, 0
1, 99259, Note_off_c, 0, 41, 61
1, 99268, Control_c, 0, 64, 26
1, 99283, Control_c, 0, 64, 42
1, 99297, Control_c, 0, 64, 60
1, 99312, Control_c, 0, 64, 88
1, 99327, Control_c, 0, 64, 127
1, 99425, Note_on_c, 0, 62, 59
1, 99428, Note_on_c, 0, 53, 62
1, 99451, Note_off_c, 0, 62, 64
1, 99514, Note_off_c, 0, 53, 64
1, 99534, Note_on_c, 0, 72, 71
1, 99547, Note_on_c, 0, 68, 56
1, 99604, Note_off_c, 0, 68, 54
1, 99635, Note_off_c, 0, 72, 60
1, 99754, Note_on_c, 0, 43, 51
1, 99779, Control_c, 0, 64, 92
1, 99794, Control_c, 0, 64, 65
1, 99809, Control_c, 0, 64, 43
1, 99821, Note_on_c, 0, 72, 64
1, 99824, Control_c, 0, 64, 0
1, 99913, Control_c, 0, 64, 27
1, 99928, Control_c, 0, 64, 49
1, 99943, Control_c, 0, 64, 68
1, 99956, Note_off_c, 0, 43, 58
1, 99958, Control_c, 0, 64, 127
1, 100206, Note_on_c, 0, 71, 70
1, 100220, Note_on_c, 0, 55, 40
1, 100221, Note_on_c, 0, 67, 56
1, 100221, Note_on_c, 0, 65, 51
1, 100229, Note_on_c, 0, 62, 41
1, 100239, Note_off_c, 0, 72, 61
1, 100342, Note_off_c, 0, 62, 63
1, 100365, Note_off_c, 0, 67, 51
1, 100382, Note_off_c, 0, 55, 63
1, 100390, Note_off_c, 0, 65, 56
1, 100462, Note_on_c, 0, 55, 37
1, 100471, Note_on_c, 0, 57, 50
1, 100476, Note_on_c, 0, 72, 85
1, 100483, Note_on_c, 0, 67, 50
1, 100490, Note_on_c, 0, 65, 58
1, 100542, Note_off_c, 0, 65, 53
1, 100558, Note_off_c, 0, 71, 56
1, 100619, Note_off_c, 0, 55, 36
1, 100625, Note_off_c, 0, 67, 25
1, 100641, Note_off_c, 0, 57, 58
1, 100704, Note_off_c, 0, 72, 52
1, 100706, Note_on_c, 0, 74, 93
1, 100712, Note_on_c, 0, 59, 42
1, 100713, Note_on_c, 0, 67, 68
1, 100719, Note_on_c, 0, 55, 53
1, 100740, Note_on_c, 0, 65, 34
1, 100742, Note_off_c, 0, 59, 55
1, 100749, Note_off_c, 0, 55, 66
1, 100778, Note_off_c, 0, 65, 54
1, 100867, Note_off_c, 0, 74, 61
1, 100903, Note_off_c, 0, 67, 36
1, 100914, Control_c, 0, 64, 76
1, 100929, Control_c, 0, 64, 56
1, 100932, Note_on_c, 0, 48, 90
1, 100943, Control_c, 0, 64, 31
1, 100958, Control_c, 0, 64, 24
1, 100973, Control_c, 0, 64, 37
1, 100988, Control_c, 0, 64, 51
1, 100996, Note_off_c, 0, 48, 65
1, 101002, Control_c, 0, 64, 69
1, 101017, Control_c, 0, 64, 127
1, 101155, Note_on_c, 0, 65, 69
1, 101158, Note_on_c, 0, 56, 73
1, 101180, Note_off_c, 0, 65, 70
1, 101191, Note_off_c, 0, 56, 65
1, 101253, Note_on_c, 0, 77, 93
1, 101260, Note_on_c, 0, 68, 90
1, 101277, Note_off_c, 0, 77, 64
1, 101278, Note_off_c, 0, 68, 71
1, 101321, Control_c, 0, 64, 73
1, 101336, Control_c, 0, 64, 54
1, 101347, Note_on_c, 0, 77, 95
1, 101350, Note_on_c, 0, 68, 95
1, 101350, Control_c, 0, 64, 31
1, 101356, Note_on_c, 0, 36, 76
1, 101380, Note_off_c, 0, 36, 68
1, 101380, Control_c, 0, 64, 46
1, 101396, Control_c, 0, 64, 64
1, 101411, Control_c, 0, 64, 127
1, 101487, Note_off_c, 0, 68, 32
1, 101574, Note_off_c, 0, 77, 39
1, 101582, Note_on_c, 0, 75, 94
1, 101586, Note_on_c, 0, 67, 86
1, 101591, Note_on_c, 0, 63, 68
1, 101592, Note_on_c, 0, 55, 75
1, 101604, Note_on_c, 0, 72, 50
1, 101610, Note_off_c, 0, 63, 69
1, 101618, Note_off_c, 0, 55, 68
1, 101621, Note_off_c, 0, 67, 59
1, 101628, Note_off_c, 0, 72, 59
1, 101639, Note_off_c, 0, 75, 61
1, 101863, Control_c, 0, 64, 117
1, 101870, Note_on_c, 0, 66, 83
1, 101872, Note_on_c, 0, 75, 88
1, 101878, Control_c, 0, 64, 61
1, 101880, Note_on_c, 0, 37, 75
1, 101892, Control_c, 0, 64, 38
1, 101907, Control_c, 0, 64, 0
1, 101922, Control_c, 0, 64, 17
1, 101937, Control_c, 0, 64, 38
1, 101952, Control_c, 0, 64, 56
1, 101966, Control_c, 0, 64, 127
1, 101979, Note_off_c, 0, 37, 63
1, 102024, Note_off_c, 0, 66, 58
1, 102090, Note_off_c, 0, 75, 59
1, 102152, Note_on_c, 0, 73, 84
1, 102161, Note_on_c, 0, 70, 76
1, 102164, Note_on_c, 0, 58, 59
1, 102164, Note_on_c, 0, 61, 60
1, 102166, Note_on_c, 0, 65, 63
1, 102216, Note_off_c, 0, 65, 52
1, 102288, Note_off_c, 0, 61, 61
1, 102312, Note_off_c, 0, 58, 62
1, 102316, Note_off_c, 0, 70, 62
1, 102321, Note_off_c, 0, 73, 63
1, 102416, Note_on_c, 0, 61, 47
1, 102421, Note_on_c, 0, 58, 50
1, 102492, Note_on_c, 0, 79, 88
1, 102501, Note_on_c, 0, 67, 66
1, 102675, Note_off_c, 0, 58, 30
1, 102695, Note_off_c, 0, 61, 59
1, 102711, Note_off_c, 0, 67, 61
1, 102732, Note_off_c, 0, 79, 59
1, 102809, Note_on_c, 0, 58, 52
1, 102816, Note_on_c, 0, 61, 46
1, 102841, Note_on_c, 0, 77, 88
1, 102847, Note_off_c, 0, 61, 64
1, 102849, Note_on_c, 0, 68, 78
1, 102891, Note_off_c, 0, 58, 62
1, 102942, Note_off_c, 0, 68, 56
1, 103071, Control_c, 0, 64, 89
1, 103086, Control_c, 0, 64, 63
1, 103091, Note_on_c, 0, 39, 57
1, 103093, Note_on_c, 0, 75, 80
1, 103101, Control_c, 0, 64, 47
1, 103116, Control_c, 0, 64, 33
1, 103118, Note_off_c, 0, 77, 59
1, 103130, Control_c, 0, 64, 37
1, 103145, Control_c, 0, 64, 48
1, 103160, Note_off_c, 0, 39, 65
1, 103160, Control_c, 0, 64, 60
1, 103175, Control_c, 0, 64, 81
1, 103190, Control_c, 0, 64, 127
1, 103331, Note_on_c, 0, 60, 59
1, 103335, Note_on_c, 0, 72, 76
1, 103341, Note_on_c, 0, 67, 63
1, 103341, Note_off_c, 0, 75, 62
1, 103343, Note_on_c, 0, 63, 47
1, 103378, Note_off_c, 0, 63, 60
1, 103382, Note_off_c, 0, 60, 59
1, 103440, Note_off_c, 0, 72, 60
1, 103441, Note_off_c, 0, 67, 61
1, 103612, Control_c, 0, 64, 107
1, 103627, Control_c, 0, 64, 83
1, 103640, Note_on_c, 0, 41, 47
1, 103642, Control_c, 0, 64, 67
1, 103656, Control_c, 0, 64, 56
1, 103671, Control_c, 0, 64, 31
1, 103686, Control_c, 0, 64, 0
1, 103688, Note_on_c, 0, 68, 67
1, 103806, Control_c, 0, 64, 22
1, 103821, Control_c, 0, 64, 47
1, 103835, Control_c, 0, 64, 65
1, 103850, Control_c, 0, 64, 127
1, 103857, Note_off_c, 0, 41, 62
1, 104051, Note_on_c, 0, 60, 67
1, 104054, Note_on_c, 0, 53, 51
1, 104063, Note_on_c, 0, 56, 40
1, 104091, Note_off_c, 0, 56, 57
1, 104120, Note_off_c, 0, 53, 63
1, 104273, Control_c, 0, 64, 78
1, 104287, Control_c, 0, 64, 53
1, 104292, Note_on_c, 0, 40, 78
1, 104294, Note_on_c, 0, 61, 77
1, 104302, Control_c, 0, 64, 0
1, 104341, Note_off_c, 0, 60, 60
1, 104347, Note_off_c, 0, 40, 64
1, 104361, Control_c, 0, 64, 31
1, 104376, Control_c, 0, 64, 54
1, 104391, Control_c, 0, 64, 97
1, 104406, Control_c, 0, 64, 127
1, 104450, Note_off_c, 0, 61, 64
1, 104504, Note_on_c, 0, 52, 69
1, 104504, Note_on_c, 0, 58, 80
1, 104507, Note_on_c, 0, 56, 52
1, 104507, Note_on_c, 0, 62, 80
1, 104531, Note_off_c, 0, 56, 60
1, 104532, Note_off_c, 0, 52, 66
1, 104549, Note_off_c, 0, 68, 60
1, 104621, Note_on_c, 0, 68, 88
1, 104656, Note_off_c, 0, 62, 59
1, 104659, Note_off_c, 0, 58, 62
1, 104707, Note_off_c, 0, 68, 58
1, 104776, Control_c, 0, 64, 77
1, 104791, Control_c, 0, 64, 55
1, 104796, Note_on_c, 0, 58, 75
1, 104799, Note_on_c, 0, 39, 68
1, 104800, Note_on_c, 0, 70, 76
1, 104806, Note_on_c, 0, 63, 68
1, 104806, Control_c, 0, 64, 0
1, 104807, Note_on_c, 0, 68, 67
1, 104873, Control_c, 0, 64, 19
1, 104888, Control_c, 0, 64, 44
1, 104899, Note_off_c, 0, 58, 63
1, 104903, Control_c, 0, 64, 63
1, 104917, Control_c, 0, 64, 127
1, 104918, Note_off_c, 0, 70, 62
1, 104919, Note_off_c, 0, 68, 57
1, 104945, Note_off_c, 0, 39, 65
1, 104951, Note_off_c, 0, 63, 65
1, 104995, Note_on_c, 0, 72, 87
1, 105004, Note_on_c, 0, 60, 69
1, 105023, Note_off_c, 0, 60, 62
1, 105091, Note_off_c, 0, 72, 60
1, 105096, Note_on_c, 0, 51, 81
1, 105096, Note_on_c, 0, 58, 79
1, 105115, Note_off_c, 0, 58, 73
1, 105128, Note_off_c, 0, 51, 62
1, 105325, Note_on_c, 0, 73, 79
1, 105333, Note_on_c, 0, 61, 68
1, 105359, Note_off_c, 0, 61, 59
1, 105392, Note_off_c, 0, 73, 62
1, 105437, Control_c, 0, 64, 117
1, 105451, Control_c, 0, 64, 88
1, 105466, Control_c, 0, 64, 71
1, 105481, Control_c, 0, 64, 59
1, 105496, Control_c, 0, 64, 33
1, 105500, Note_on_c, 0, 46, 58
1, 105500, Note_on_c, 0, 73, 71
1, 105505, Note_on_c, 0, 34, 59
1, 105511, Control_c, 0, 64, 0
1, 105515, Note_on_c, 0, 61, 52
1, 105637, Control_c, 0, 64, 22
1, 105652, Control_c, 0, 64, 39
1, 105654, Note_off_c, 0, 46, 65
1, 105666, Control_c, 0, 64, 54
1, 105681, Control_c, 0, 64, 66
1, 105696, Control_c, 0, 64, 100
1, 105711, Control_c, 0, 64, 127
1, 105767, Note_on_c, 0, 67, 59
1, 105771, Note_on_c, 0, 65, 57
1, 105846, Note_off_c, 0, 34, 34
1, 105852, Note_on_c, 0, 33, 59
1, 105855, Note_on_c, 0, 45, 49
1, 105878, Note_off_c, 0, 65, 58
1, 105885, Note_off_c, 0, 67, 57
1, 105885, Note_off_c, 0, 45, 55
1, 105888, Note_off_c, 0, 33, 54
1, 105965, Note_on_c, 0, 34, 64
1, 105967, Note_on_c, 0, 46, 71
1, 105972, Note_on_c, 0, 67, 65
1, 105973, Note_on_c, 0, 65, 62
1, 106000, Note_off_c, 0, 46, 65
1, 106013, Note_off_c, 0, 34, 63
1, 106076, Note_off_c, 0, 67, 60
1, 106095, Note_off_c, 0, 65, 62
1, 106111, Note_on_c, 0, 49, 81
1, 106112, Note_on_c, 0, 37, 67
1, 106135, Note_off_c, 0, 49, 72
1, 106140, Note_off_c, 0, 37, 65
1, 106182, Note_on_c, 0, 68, 77
1, 106195, Note_on_c, 0, 65, 66
1, 106240, Note_on_c, 0, 60, 91
1, 106243, Note_off_c, 0, 65, 59
1, 106251, Note_on_c, 0, 48, 64
1, 106253, Note_off_c, 0, 68, 58
1, 106257, Note_off_c, 0, 60, 75
1, 106272, Note_off_c, 0, 48, 62
1, 106290, Note_off_c, 0, 61, 63
1, 106303, Control_c, 0, 64, 78
1, 106318, Control_c, 0, 64, 55
1, 106330, Note_on_c, 0, 68, 70
1, 106331, Note_on_c, 0, 65, 73
1, 106333, Control_c, 0, 64, 8
1, 106338, Note_on_c, 0, 58, 91
1, 106341, Note_on_c, 0, 46, 91
1, 106355, Control_c, 0, 64, 0
1, 106385, Control_c, 0, 64, 34
1, 106388, Note_off_c, 0, 46, 59
1, 106394, Note_off_c, 0, 58, 57
1, 106400, Control_c, 0, 64, 54
1, 106414, Control_c, 0, 64, 87
1, 106429, Control_c, 0, 64, 127
1, 106452, Note_off_c, 0, 68, 58
1, 106458, Note_off_c, 0, 65, 61
1, 106522, Note_on_c, 0, 67, 80
1, 106522, Note_off_c, 0, 73, 65
1, 106527, Note_on_c, 0, 65, 73
1, 106611, Note_off_c, 0, 67, 60
1, 106620, Note_on_c, 0, 58, 94
1, 106621, Note_on_c, 0, 70, 90
1, 106636, Note_off_c, 0, 58, 75
1, 106641, Note_off_c, 0, 65, 64
1, 106665, Note_off_c, 0, 70, 63
1, 106758, Note_on_c, 0, 49, 81
1, 106767, Note_on_c, 0, 37, 67
1, 106785, Control_c, 0, 64, 71
1, 106799, Control_c, 0, 64, 51
1, 106814, Control_c, 0, 64, 0
1, 106816, Note_on_c, 0, 77, 96
1, 106820, Note_on_c, 0, 65, 86
1, 106844, Note_on_c, 0, 64, 45
1, 106845, Note_off_c, 0, 64, 127
1, 106859, Control_c, 0, 64, 29
1, 106873, Control_c, 0, 64, 47
1, 106877, Note_off_c, 0, 49, 63
1, 106888, Control_c, 0, 64, 65
1, 106903, Control_c, 0, 64, 127
1, 106916, Note_off_c, 0, 65, 66
1, 107020, Note_on_c, 0, 67, 80
1, 107020, Note_off_c, 0, 37, 54
1, 107022, Note_on_c, 0, 70, 77
1, 107100, Note_on_c, 0, 36, 73
1, 107122, Note_on_c, 0, 48, 40
1, 107127, Note_off_c, 0, 36, 65
1, 107148, Note_off_c, 0, 67, 63
1, 107151, Note_off_c, 0, 70, 60
1, 107157, Note_off_c, 0, 48, 53
1, 107212, Note_on_c, 0, 49, 84
1, 107215, Note_on_c, 0, 37, 71
1, 107218, Note_on_c, 0, 67, 83
1, 107218, Note_on_c, 0, 70, 77
1, 107235, Note_off_c, 0, 49, 71
1, 107246, Note_off_c, 0, 37, 64
1, 107342, Note_off_c, 0, 67, 60
1, 107346, Note_off_c, 0, 70, 60
1, 107363, Note_on_c, 0, 55, 97
1, 107369, Note_on_c, 0, 43, 77
1, 107380, Note_off_c, 0, 55, 76
1, 107390, Note_off_c, 0, 43, 65
1, 107430, Note_on_c, 0, 67, 96
1, 107432, Note_on_c, 0, 72, 77
1, 107491, Note_on_c, 0, 63, 92
1, 107500, Note_on_c, 0, 51, 68
1, 107500, Note_off_c, 0, 67, 61
1, 107506, Note_off_c, 0, 72, 61
1, 107508, Note_off_c, 0, 63, 76
1, 107518, Control_c, 0, 64, 77
1, 107521, Note_off_c, 0, 51, 64
1, 107533, Control_c, 0, 64, 56
1, 107548, Control_c, 0, 64, 31
1, 107563, Control_c, 0, 64, 28
1, 107572, Note_on_c, 0, 72, 86
1, 107574, Note_on_c, 0, 61, 95
1, 107575, Note_on_c, 0, 67, 95
1, 107577, Control_c, 0, 64, 46
1, 107578, Note_on_c, 0, 49, 92
1, 107592, Control_c, 0, 64, 62
1, 107595, Note_off_c, 0, 61, 68
1, 107601, Note_on_c, 0, 51, 43
1, 107601, Note_off_c, 0, 49, 70
1, 107607, Control_c, 0, 64, 127
1, 107628, Note_off_c, 0, 51, 57
1, 107660, Note_off_c, 0, 77, 39
1, 107704, Note_off_c, 0, 67, 60
1, 107737, Note_off_c, 0, 72, 61
1, 107777, Note_on_c, 0, 70, 87
1, 107780, Note_on_c, 0, 67, 86
1, 107831, Note_off_c, 0, 67, 63
1, 107835, Note_off_c, 0, 70, 60
1, 107878, Note_on_c, 0, 64, 101
1, 107879, Note_on_c, 0, 76, 97
1, 107979, Note_off_c, 0, 76, 64
1, 107989, Note_off_c, 0, 64, 62
1, 108045, Note_on_c, 0, 64, 98
1, 108046, Note_on_c, 0, 37, 94
1, 108048, Note_on_c, 0, 25, 94
1, 108048, Note_on_c, 0, 76, 101
1, 108060, Control_c, 0, 64, 86
1, 108075, Control_c, 0, 64, 58
1, 108090, Control_c, 0, 64, 0
1, 108164, Control_c, 0, 64, 21
1, 108178, Control_c, 0, 64, 49
1, 108183, Note_off_c, 0, 37, 62
1, 108193, Control_c, 0, 64, 71
1, 108208, Control_c, 0, 64, 127
1, 108263, Note_off_c, 0, 25, 61
1, 108301, Note_on_c, 0, 67, 77
1, 108301, Note_on_c, 0, 70, 74
1, 108359, Note_on_c, 0, 36, 83
1, 108370, Note_on_c, 0, 24, 58
1, 108381, Note_off_c, 0, 36, 67
1, 108404, Note_off_c, 0, 67, 62
1, 108406, Note_off_c, 0, 70, 60
1, 108409, Note_off_c, 0, 24, 50
1, 108411, Note_off_c, 0, 64, 58
1, 108460, Note_on_c, 0, 36, 85
1, 108460, Note_on_c, 0, 70, 80
1, 108467, Note_on_c, 0, 67, 86
1, 108468, Note_on_c, 0, 24, 87
1, 108473, Note_off_c, 0, 76, 69
1, 108493, Note_off_c, 0, 24, 63
1, 108510, Note_off_c, 0, 67, 62
1, 108517, Note_off_c, 0, 36, 61
1, 108530, Note_off_c, 0, 70, 62
1, 108580, Poly_aftertouch_c, 0, 35, 0
1, 108828, Note_on_c, 0, 61, 66
1, 108829, Note_on_c, 0, 70, 97
1, 108830, Note_on_c, 0, 80, 88
1, 108831, Note_on_c, 0, 58, 53
1, 108842, Note_on_c, 0, 68, 47
1, 108848, Note_off_c, 0, 80, 70
1, 108851, Note_off_c, 0, 70, 63
1, 108854, Note_off_c, 0, 58, 60
1, 108856, Note_off_c, 0, 61, 69
1, 108871, Note_off_c, 0, 68, 55
1, 108905, Note_on_c, 0, 68, 90
1, 108906, Note_on_c, 0, 80, 104
1, 108907, Note_on_c, 0, 58, 92
1, 108907, Note_on_c, 0, 61, 83
1, 108911, Note_on_c, 0, 70, 96
1, 109044, Note_off_c, 0, 68, 58
1, 109049, Note_off_c, 0, 58, 60
1, 109058, Note_off_c, 0, 61, 61
1, 109062, Note_off_c, 0, 70, 57
1, 109081, Note_off_c, 0, 80, 58
1, 109139, Note_on_c, 0, 70, 105
1, 109139, Note_on_c, 0, 79, 102
1, 109141, Note_on_c, 0, 58, 89
1, 109142, Note_on_c, 0, 61, 80
1, 109149, Note_on_c, 0, 67, 63
1, 109163, Note_off_c, 0, 58, 67
1, 109164, Note_off_c, 0, 61, 73
1, 109170, Note_off_c, 0, 67, 38
1, 109172, Note_off_c, 0, 70, 63
1, 109181, Note_off_c, 0, 79, 67
1, 109395, Control_c, 0, 64, 85
1, 109410, Control_c, 0, 64, 55
1, 109411, Note_on_c, 0, 77, 94
1, 109414, Note_on_c, 0, 65, 95
1, 109419, Note_on_c, 0, 49, 97
1, 109424, Control_c, 0, 64, 0
1, 109425, Note_on_c, 0, 37, 85
1, 109469, Note_off_c, 0, 77, 54
1, 109513, Control_c, 0, 64, 35
1, 109528, Control_c, 0, 64, 52
1, 109543, Control_c, 0, 64, 69
1, 109548, Note_off_c, 0, 49, 63
1, 109558, Control_c, 0, 64, 127
1, 109639, Note_off_c, 0, 37, 61
1, 109657, Note_on_c, 0, 67, 78
1, 109658, Note_on_c, 0, 70, 78
1, 109691, Note_off_c, 0, 65, 62
1, 109737, Note_on_c, 0, 48, 94
1, 109748, Note_on_c, 0, 36, 69
1, 109760, Note_off_c, 0, 48, 71
1, 109771, Note_off_c, 0, 36, 61
1, 109792, Note_off_c, 0, 70, 62
1, 109798, Note_off_c, 0, 67, 60
1, 109810, Control_c, 0, 64, 63
1, 109824, Control_c, 0, 64, 23
1, 109839, Note_on_c, 0, 48, 105
1, 109839, Control_c, 0, 64, 0
1, 109840, Note_on_c, 0, 76, 97
1, 109840, Note_on_c, 0, 64, 97
1, 109843, Note_on_c, 0, 36, 87
1, 109882, Note_off_c, 0, 64, 65
1, 109884, Control_c, 0, 64, 43
1, 109887, Note_on_c, 0, 73, 20
1, 109894, Note_off_c, 0, 76, 66
1, 109898, Control_c, 0, 64, 80
1, 109913, Control_c, 0, 64, 127
1, 109925, Note_off_c, 0, 36, 63
1, 109929, Note_off_c, 0, 73, 29
1, 109976, Note_off_c, 0, 48, 65
1, 110268, Note_on_c, 0, 80, 98
1, 110275, Note_on_c, 0, 70, 89
1, 110277, Note_on_c, 0, 68, 60
1, 110278, Note_on_c, 0, 58, 53
1, 110279, Note_on_c, 0, 61, 61
1, 110297, Note_off_c, 0, 68, 62
1, 110301, Note_off_c, 0, 58, 60
1, 110302, Note_off_c, 0, 70, 61
1, 110307, Note_off_c, 0, 61, 68
1, 110310, Note_off_c, 0, 80, 65
1, 110368, Note_on_c, 0, 80, 99
1, 110372, Note_on_c, 0, 68, 85
1, 110374, Note_on_c, 0, 58, 76
1, 110374, Note_on_c, 0, 61, 82
1, 110377, Note_on_c, 0, 70, 97
1, 110537, Note_off_c, 0, 70, 62
1, 110552, Note_off_c, 0, 80, 61
1, 110557, Note_off_c, 0, 68, 58
1, 110602, Note_off_c, 0, 61, 61
1, 110609, Note_off_c, 0, 58, 59
1, 110701, Note_on_c, 0, 58, 76
1, 110701, Note_on_c, 0, 79, 97
1, 110704, Note_on_c, 0, 61, 64
1, 110706, Note_on_c, 0, 70, 96
1, 110734, Note_off_c, 0, 61, 66
1, 110767, Note_off_c, 0, 58, 60
1, 110819, Note_off_c, 0, 79, 54
1, 110827, Note_off_c, 0, 70, 58
1, 110988, Note_on_c, 0, 37, 70
1, 111059, Note_on_c, 0, 49, 85
1, 111070, Control_c, 0, 64, 87
1, 111073, Note_on_c, 0, 77, 94
1, 111076, Note_on_c, 0, 65, 90
1, 111085, Control_c, 0, 64, 60
1, 111100, Control_c, 0, 64, 32
1, 111115, Control_c, 0, 64, 0
1, 111174, Control_c, 0, 64, 29
1, 111189, Control_c, 0, 64, 48
1, 111203, Control_c, 0, 64, 66
1, 111208, Note_off_c, 0, 77, 58
1, 111214, Note_off_c, 0, 37, 64
1, 111218, Control_c, 0, 64, 127
1, 111262, Note_off_c, 0, 49, 65
1, 111447, Note_on_c, 0, 55, 56
1, 111450, Note_on_c, 0, 58, 62
1, 111455, Note_on_c, 0, 70, 75
1, 111459, Note_on_c, 0, 67, 69
1, 111493, Note_off_c, 0, 65, 58
1, 111638, Note_off_c, 0, 58, 53
1, 111717, Note_on_c, 0, 76, 89
1, 111723, Note_off_c, 0, 55, 36
1, 111724, Note_on_c, 0, 64, 77
1, 111739, Note_off_c, 0, 70, 62
1, 111745, Note_off_c, 0, 67, 60
1, 111946, Note_on_c, 0, 67, 66
1, 111947, Note_on_c, 0, 70, 72
1, 111960, Note_on_c, 0, 55, 51
1, 111961, Note_on_c, 0, 58, 52
1, 111967, Note_off_c, 0, 76, 63
1, 111980, Note_off_c, 0, 64, 60
1, 112136, Note_off_c, 0, 58, 37
1, 112138, Note_off_c, 0, 55, 56
1, 112153, Note_on_c, 0, 75, 83
1, 112159, Note_on_c, 0, 63, 77
1, 112161, Note_on_c, 0, 49, 52
1, 112170, Note_off_c, 0, 70, 59
1, 112174, Control_c, 0, 64, 72
1, 112189, Control_c, 0, 64, 54
1, 112193, Note_off_c, 0, 67, 55
1, 112204, Control_c, 0, 64, 33
1, 112219, Control_c, 0, 64, 20
1, 112234, Control_c, 0, 64, 23
1, 112249, Control_c, 0, 64, 32
1, 112263, Control_c, 0, 64, 42
1, 112278, Control_c, 0, 64, 56
1, 112293, Control_c, 0, 64, 67
1, 112308, Control_c, 0, 64, 91
1, 112323, Control_c, 0, 64, 127
1, 112360, Note_off_c, 0, 49, 59
1, 112365, Note_on_c, 0, 67, 59
1, 112371, Note_on_c, 0, 55, 47
1, 112371, Note_on_c, 0, 70, 62
1, 112376, Note_on_c, 0, 58, 38
1, 112422, Note_off_c, 0, 75, 54
1, 112458, Note_off_c, 0, 63, 56
1, 112486, Note_off_c, 0, 58, 29
1, 112582, Control_c, 0, 64, 114
1, 112591, Note_off_c, 0, 55, 41
1, 112595, Note_on_c, 0, 50, 39
1, 112597, Control_c, 0, 64, 89
1, 112606, Note_off_c, 0, 70, 58
1, 112609, Note_on_c, 0, 74, 71
1, 112612, Control_c, 0, 64, 70
1, 112625, Note_on_c, 0, 62, 55
1, 112627, Control_c, 0, 64, 57
1, 112630, Note_off_c, 0, 67, 50
1, 112642, Control_c, 0, 64, 34
1, 112657, Control_c, 0, 64, 0
1, 112731, Control_c, 0, 64, 19
1, 112746, Control_c, 0, 64, 37
1, 112761, Control_c, 0, 64, 51
1, 112775, Control_c, 0, 64, 66
1, 112790, Control_c, 0, 64, 90
1, 112805, Control_c, 0, 64, 127
1, 112842, Note_off_c, 0, 50, 49
1, 112870, Note_on_c, 0, 58, 37
1, 112877, Note_on_c, 0, 70, 50
1, 112883, Note_off_c, 0, 74, 59
1, 112891, Note_on_c, 0, 55, 33
1, 112892, Note_on_c, 0, 67, 47
1, 112920, Note_off_c, 0, 62, 55
1, 113016, Note_off_c, 0, 58, 35
1, 113104, Note_off_c, 0, 55, 44
1, 113123, Control_c, 0, 64, 115
1, 113138, Control_c, 0, 64, 108
1, 113153, Control_c, 0, 64, 100
1, 113167, Control_c, 0, 64, 92
1, 113182, Control_c, 0, 64, 78
1, 113197, Control_c, 0, 64, 66
1, 113210, Note_on_c, 0, 73, 56
1, 113211, Note_on_c, 0, 61, 47
1, 113212, Control_c, 0, 64, 54
1, 113214, Note_on_c, 0, 51, 45
1, 113227, Control_c, 0, 64, 30
1, 113241, Control_c, 0, 64, 0
1, 113244, Note_off_c, 0, 67, 31
1, 113247, Note_off_c, 0, 70, 35
1, 113346, Control_c, 0, 64, 32
1, 113354, Note_off_c, 0, 61, 44
1, 113360, Control_c, 0, 64, 47
1, 113376, Control_c, 0, 64, 62
1, 113390, Control_c, 0, 64, 84
1, 113405, Control_c, 0, 64, 127
1, 113486, Note_off_c, 0, 51, 41
1, 113504, Note_on_c, 0, 67, 44
1, 113547, Note_off_c, 0, 73, 57
1, 113613, Note_on_c, 0, 65, 50
1, 113659, Note_off_c, 0, 65, 60
1, 113841, Note_on_c, 0, 65, 30
1, 113942, Note_on_c, 0, 73, 53
1, 114043, Note_off_c, 0, 67, 36
1, 114275, Note_off_c, 0, 65, 38
1, 114349, Note_on_c, 0, 63, 35
1, 114445, Note_off_c, 0, 73, 39
1, 114645, Note_on_c, 0, 72, 45
1, 114654, Note_off_c, 0, 63, 40
1, 114693, Note_off_c, 0, 72, 45
1, 114802, Note_on_c, 0, 72, 52
1, 115274, Note_on_c, 0, 63, 31
1, 115275, Note_on_c, 0, 61, 32
1, 115283, Note_on_c, 0, 53, 31
1, 115318, Control_c, 0, 64, 92
1, 115340, Control_c, 0, 64, 72
1, 115355, Control_c, 0, 64, 59
1, 115370, Control_c, 0, 64, 45
1, 115384, Control_c, 0, 64, 37
1, 115399, Control_c, 0, 64, 42
1, 115414, Control_c, 0, 64, 51
1, 115429, Control_c, 0, 64, 61
1, 115444, Control_c, 0, 64, 73
1, 115454, Note_off_c, 0, 61, 49
1, 115457, Note_off_c, 0, 63, 46
1, 115459, Control_c, 0, 64, 92
1, 115474, Control_c, 0, 64, 101
1, 115476, Note_off_c, 0, 53, 44
1, 115489, Control_c, 0, 64, 102
1, 115504, Control_c, 0, 64, 103
1, 115548, Control_c, 0, 64, 103
1, 115562, Control_c, 0, 64, 100
1, 115577, Control_c, 0, 64, 96
1, 115592, Control_c, 0, 64, 92
1, 115607, Control_c, 0, 64, 87
1, 115622, Control_c, 0, 64, 80
1, 115636, Control_c, 0, 64, 68
1, 115651, Control_c, 0, 64, 60
1, 115658, Note_on_c, 0, 70, 53
1, 115666, Control_c, 0, 64, 47
1, 115669, Note_on_c, 0, 55, 34
1, 115669, Note_on_c, 0, 61, 37
1, 115681, Control_c, 0, 64, 31
1, 115689, Note_on_c, 0, 63, 17
1, 115694, Note_off_c, 0, 72, 34
1, 115695, Control_c, 0, 64, 23
1, 115725, Control_c, 0, 64, 26
1, 115740, Control_c, 0, 64, 32
1, 115755, Control_c, 0, 64, 41
1, 115771, Control_c, 0, 64, 52
1, 115785, Control_c, 0, 64, 63
1, 115800, Control_c, 0, 64, 76
1, 115815, Control_c, 0, 64, 93
1, 115822, Note_off_c, 0, 63, 44
1, 115829, Note_off_c, 0, 61, 42
1, 115830, Control_c, 0, 64, 96
1, 115845, Control_c, 0, 64, 97
1, 115847, Note_off_c, 0, 55, 43
1, 115859, Control_c, 0, 64, 98
1, 115874, Control_c, 0, 64, 99
1, 115889, Control_c, 0, 64, 101
1, 115904, Control_c, 0, 64, 103
1, 115919, Control_c, 0, 64, 104
1, 115933, Control_c, 0, 64, 105
1, 115969, Note_on_c, 0, 61, 33
1, 115969, Note_on_c, 0, 51, 38
1, 115977, Note_on_c, 0, 63, 29
1, 116037, Control_c, 0, 64, 104
1, 116047, Note_off_c, 0, 61, 40
1, 116048, Note_off_c, 0, 63, 42
1, 116052, Control_c, 0, 64, 103
1, 116067, Control_c, 0, 64, 101
1, 116067, Note_off_c, 0, 51, 35
1, 116089, Control_c, 0, 64, 99
1, 116104, Control_c, 0, 64, 97
1, 116119, Control_c, 0, 64, 92
1, 116134, Control_c, 0, 64, 83
1, 116148, Control_c, 0, 64, 70
1, 116163, Control_c, 0, 64, 60
1, 116178, Control_c, 0, 64, 45
1, 116192, Control_c, 0, 64, 33
1, 116207, Control_c, 0, 64, 34
1, 116209, Note_on_c, 0, 72, 58
1, 116211, Note_on_c, 0, 56, 44
1, 116222, Control_c, 0, 64, 41
1, 116237, Control_c, 0, 64, 51
1, 116243, Note_on_c, 0, 63, 17
1, 116252, Control_c, 0, 64, 61
1, 116267, Control_c, 0, 64, 72
1, 116273, Poly_aftertouch_c, 0, 61, 127
1, 116278, Note_off_c, 0, 70, 41
1, 116282, Control_c, 0, 64, 85
1, 116297, Control_c, 0, 64, 86
1, 116323, Poly_aftertouch_c, 0, 61, 0
1, 116326, Control_c, 0, 64, 86
1, 116347, Note_off_c, 0, 63, 45
1, 116377, Note_off_c, 0, 56, 45
1, 116454, Note_on_c, 0, 53, 44
1, 116478, Note_on_c, 0, 63, 15
1, 116504, Control_c, 0, 64, 85
1, 116518, Control_c, 0, 64, 84
1, 116527, Note_off_c, 0, 63, 52
1, 116533, Control_c, 0, 64, 80
1, 116548, Control_c, 0, 64, 70
1, 116564, Control_c, 0, 64, 61
1, 116579, Control_c, 0, 64, 47
1, 116587, Note_off_c, 0, 53, 35
1, 116594, Control_c, 0, 64, 33
1, 116608, Control_c, 0, 64, 34
1, 116623, Control_c, 0, 64, 42
1, 116638, Control_c, 0, 64, 51
1, 116653, Control_c, 0, 64, 62
1, 116667, Note_off_c, 0, 72, 56
1, 116668, Control_c, 0, 64, 72
1, 116674, Note_on_c, 0, 70, 62
1, 116676, Note_on_c, 0, 61, 44
1, 116682, Control_c, 0, 64, 81
1, 116687, Note_on_c, 0, 55, 39
1, 116712, Control_c, 0, 64, 80
1, 116727, Control_c, 0, 64, 79
1, 116741, Control_c, 0, 64, 78
1, 116756, Control_c, 0, 64, 77
1, 116771, Control_c, 0, 64, 74
1, 116786, Control_c, 0, 64, 72
1, 116791, Note_off_c, 0, 61, 55
1, 116801, Control_c, 0, 64, 69
1, 116815, Control_c, 0, 64, 67
1, 116838, Control_c, 0, 64, 66
1, 116853, Control_c, 0, 64, 64
1, 116868, Control_c, 0, 64, 63
1, 116883, Control_c, 0, 64, 60
1, 116897, Control_c, 0, 64, 56
1, 116906, Note_off_c, 0, 55, 31
1, 116912, Control_c, 0, 64, 52
1, 116920, Note_on_c, 0, 61, 47
1, 116925, Note_on_c, 0, 53, 51
1, 116927, Control_c, 0, 64, 47
1, 116930, Note_on_c, 0, 63, 59
1, 116941, Control_c, 0, 64, 44
1, 116949, Note_off_c, 0, 61, 55
1, 116952, Note_off_c, 0, 63, 62
1, 116956, Control_c, 0, 64, 40
1, 116971, Control_c, 0, 64, 32
1, 116986, Control_c, 0, 64, 22
1, 117001, Control_c, 0, 64, 0
1, 117018, Note_on_c, 0, 63, 54
1, 117039, Note_off_c, 0, 53, 34
1, 117040, Note_off_c, 0, 63, 64
1, 117101, Note_on_c, 0, 55, 41
1, 117107, Note_on_c, 0, 63, 58
1, 117149, Control_c, 0, 64, 17
1, 117156, Note_off_c, 0, 63, 54
1, 117164, Control_c, 0, 64, 34
1, 117179, Control_c, 0, 64, 46
1, 117194, Control_c, 0, 64, 58
1, 117208, Control_c, 0, 64, 69
1, 117223, Control_c, 0, 64, 86
1, 117238, Control_c, 0, 64, 92
1, 117268, Control_c, 0, 64, 93
1, 117282, Control_c, 0, 64, 93
1, 117297, Control_c, 0, 64, 94
1, 117307, Note_off_c, 0, 55, 61
1, 117341, Control_c, 0, 64, 95
1, 117347, Note_on_c, 0, 72, 61
1, 117349, Note_on_c, 0, 51, 36
1, 117355, Note_on_c, 0, 63, 27
1, 117357, Control_c, 0, 64, 95
1, 117412, Note_off_c, 0, 70, 37
1, 117414, Note_off_c, 0, 63, 44
1, 117477, Control_c, 0, 64, 94
1, 117492, Control_c, 0, 64, 88
1, 117506, Control_c, 0, 64, 74
1, 117521, Control_c, 0, 64, 62
1, 117536, Control_c, 0, 64, 48
1, 117551, Control_c, 0, 64, 27
1, 117565, Control_c, 0, 64, 21
1, 117573, Note_off_c, 0, 51, 42
1, 117576, Note_on_c, 0, 56, 42
1, 117587, Control_c, 0, 64, 24
1, 117589, Note_on_c, 0, 68, 59
1, 117596, Note_off_c, 0, 72, 60
1, 117597, Note_on_c, 0, 60, 28
1, 117602, Control_c, 0, 64, 33
1, 117617, Control_c, 0, 64, 45
1, 117628, Note_off_c, 0, 60, 55
1, 117632, Control_c, 0, 64, 58
1, 117647, Control_c, 0, 64, 73
1, 117656, Note_off_c, 0, 56, 64
1, 117662, Control_c, 0, 64, 95
1, 117677, Control_c, 0, 64, 98
1, 117810, Control_c, 0, 64, 98
1, 117825, Control_c, 0, 64, 97
1, 117849, Note_on_c, 0, 77, 59
1, 117850, Note_on_c, 0, 56, 41
1, 117854, Control_c, 0, 64, 96
1, 117856, Note_on_c, 0, 49, 44
1, 117869, Control_c, 0, 64, 96
1, 117884, Control_c, 0, 64, 95
1, 117892, Poly_aftertouch_c, 0, 58, 127
1, 117893, Note_on_c, 0, 58, 3
1, 117899, Control_c, 0, 64, 94
1, 117913, Control_c, 0, 64, 93
1, 117928, Control_c, 0, 64, 92
1, 117935, Note_off_c, 0, 68, 57
1, 117950, Note_off_c, 0, 58, 42
1, 117957, Note_off_c, 0, 56, 58
1, 117958, Control_c, 0, 64, 92
1, 117987, Control_c, 0, 64, 91
1, 118017, Control_c, 0, 64, 90
1, 118032, Control_c, 0, 64, 90
1, 118076, Control_c, 0, 64, 89
1, 118079, Note_off_c, 0, 49, 34
1, 118106, Control_c, 0, 64, 88
1, 118121, Control_c, 0, 64, 87
1, 118136, Control_c, 0, 64, 86
1, 118151, Control_c, 0, 64, 84
1, 118166, Control_c, 0, 64, 82
1, 118181, Control_c, 0, 64, 81
1, 118195, Control_c, 0, 64, 79
1, 118204, Note_on_c, 0, 70, 43
1, 118210, Control_c, 0, 64, 78
1, 118224, Note_off_c, 0, 77, 49
1, 118225, Control_c, 0, 64, 76
1, 118240, Control_c, 0, 64, 73
1, 118255, Control_c, 0, 64, 67
1, 118270, Control_c, 0, 64, 59
1, 118285, Control_c, 0, 64, 43
1, 118300, Control_c, 0, 64, 17
1, 118315, Control_c, 0, 64, 0
1, 118336, Control_c, 0, 64, 9
1, 118351, Control_c, 0, 64, 16
1, 118366, Control_c, 0, 64, 25
1, 118381, Control_c, 0, 64, 36
1, 118395, Control_c, 0, 64, 47
1, 118410, Control_c, 0, 64, 60
1, 118425, Control_c, 0, 64, 70
1, 118440, Control_c, 0, 64, 84
1, 118455, Control_c, 0, 64, 88
1, 118470, Control_c, 0, 64, 89
1, 118485, Control_c, 0, 64, 90
1, 118500, Control_c, 0, 64, 92
1, 118514, Control_c, 0, 64, 93
1, 118514, Note_on_c, 0, 39, 40
1, 118544, Control_c, 0, 64, 93
1, 118559, Control_c, 0, 64, 94
1, 118574, Control_c, 0, 64, 94
1, 118619, Note_off_c, 0, 70, 38
1, 118666, Note_off_c, 0, 39, 36
1, 118713, Note_on_c, 0, 72, 50
1, 118919, Note_on_c, 0, 75, 56
1, 118927, Control_c, 0, 64, 95
1, 119003, Control_c, 0, 64, 95
1, 119030, Note_on_c, 0, 73, 56
1, 119047, Control_c, 0, 64, 96
1, 119062, Control_c, 0, 64, 96
1, 119070, Note_off_c, 0, 72, 58
1, 119086, Note_off_c, 0, 75, 59
1, 119117, Note_off_c, 0, 73, 60
1, 119128, Note_on_c, 0, 63, 54
1, 119143, Note_on_c, 0, 51, 28
1, 119173, Note_off_c, 0, 63, 45
1, 119193, Note_off_c, 0, 51, 44
1, 119236, Note_on_c, 0, 72, 62
1, 119247, Control_c, 0, 64, 95
1, 119262, Control_c, 0, 64, 93
1, 119277, Control_c, 0, 64, 91
1, 119291, Control_c, 0, 64, 89
1, 119306, Control_c, 0, 64, 85
1, 119321, Control_c, 0, 64, 75
1, 119331, Note_off_c, 0, 72, 35
1, 119335, Control_c, 0, 64, 63
1, 119350, Control_c, 0, 64, 49
1, 119365, Control_c, 0, 64, 23
1, 119366, Note_on_c, 0, 55, 39
1, 119372, Note_on_c, 0, 70, 52
1, 119373, Note_on_c, 0, 61, 39
1, 119375, Note_on_c, 0, 63, 27
1, 119380, Control_c, 0, 64, 14
1, 119395, Control_c, 0, 64, 18
1, 119409, Control_c, 0, 64, 27
1, 119424, Control_c, 0, 64, 36
1, 119439, Control_c, 0, 64, 48
1, 119450, Note_off_c, 0, 63, 42
1, 119454, Control_c, 0, 64, 61
1, 119469, Control_c, 0, 64, 73
1, 119478, Note_off_c, 0, 70, 61
1, 119483, Control_c, 0, 64, 88
1, 119498, Control_c, 0, 64, 90
1, 119528, Control_c, 0, 64, 91
1, 119534, Note_off_c, 0, 61, 36
1, 119573, Note_off_c, 0, 55, 43
1, 119636, Note_on_c, 0, 51, 45
1, 119648, Note_on_c, 0, 63, 21
1, 119691, Note_off_c, 0, 63, 54
1, 119695, Note_off_c, 0, 51, 63
1, 119763, Note_on_c, 0, 72, 52
1, 119862, Control_c, 0, 64, 89
1, 119877, Control_c, 0, 64, 87
1, 119892, Control_c, 0, 64, 85
1, 119907, Control_c, 0, 64, 84
1, 119921, Control_c, 0, 64, 83
1, 119936, Control_c, 0, 64, 81
1, 119951, Control_c, 0, 64, 78
1, 119966, Control_c, 0, 64, 72
1, 119981, Control_c, 0, 64, 63
1, 119996, Control_c, 0, 64, 50
1, 120011, Control_c, 0, 64, 27
1, 120012, Note_on_c, 0, 68, 46
1, 120015, Note_on_c, 0, 39, 36
1, 120026, Control_c, 0, 64, 0
1, 120070, Note_off_c, 0, 72, 37
1, 120100, Control_c, 0, 64, 18
1, 120114, Control_c, 0, 64, 32
1, 120129, Control_c, 0, 64, 47
1, 120144, Control_c, 0, 64, 61
1, 120157, Note_off_c, 0, 39, 58
1, 120158, Control_c, 0, 64, 80
1, 120173, Control_c, 0, 64, 127
1, 120422, Note_on_c, 0, 60, 35
1, 120423, Note_on_c, 0, 63, 39
1, 120428, Note_on_c, 0, 51, 42
1, 120538, Note_off_c, 0, 51, 62
1, 120589, Note_off_c, 0, 63, 35
1, 120683, Note_on_c, 0, 53, 48
1, 120706, Note_on_c, 0, 63, 38
1, 120815, Note_off_c, 0, 60, 41
1, 120847, Note_off_c, 0, 63, 47
1, 120887, Note_off_c, 0, 53, 57
1, 120909, Note_on_c, 0, 55, 47
1, 120916, Note_on_c, 0, 60, 33
1, 120945, Note_off_c, 0, 68, 22
1, 120973, Note_off_c, 0, 60, 43
1, 121073, Note_off_c, 0, 55, 58
1, 121114, Control_c, 0, 64, 89
1, 121120, Note_on_c, 0, 56, 47
1, 121129, Control_c, 0, 64, 67
1, 121139, Note_on_c, 0, 60, 35
1, 121144, Control_c, 0, 64, 53
1, 121159, Control_c, 0, 64, 35
1, 121168, Note_on_c, 0, 63, 51
1, 121173, Control_c, 0, 64, 24
1, 121188, Control_c, 0, 64, 27
1, 121203, Control_c, 0, 64, 35
1, 121217, Note_off_c, 0, 56, 64
1, 121218, Control_c, 0, 64, 45
1, 121233, Control_c, 0, 64, 59
1, 121248, Control_c, 0, 64, 75
1, 121263, Control_c, 0, 64, 127
1, 121297, Note_off_c, 0, 60, 39
1, 121316, Note_off_c, 0, 63, 59
1, 121403, Note_on_c, 0, 60, 26
1, 121421, Note_on_c, 0, 66, 58
1, 121448, Note_on_c, 0, 58, 41
1, 121462, Note_off_c, 0, 66, 59
1, 121495, Note_off_c, 0, 60, 59
1, 121514, Note_off_c, 0, 58, 63
1, 121701, Control_c, 0, 64, 95
1, 121716, Control_c, 0, 64, 70
1, 121729, Note_on_c, 0, 39, 55
1, 121730, Control_c, 0, 64, 55
1, 121745, Control_c, 0, 64, 24
1, 121760, Control_c, 0, 64, 0
1, 121781, Note_on_c, 0, 72, 66
1, 121819, Control_c, 0, 64, 14
1, 121834, Control_c, 0, 64, 32
1, 121849, Control_c, 0, 64, 48
1, 121863, Control_c, 0, 64, 62
1, 121874, Note_off_c, 0, 39, 63
1, 121878, Control_c, 0, 64, 81
1, 121893, Control_c, 0, 64, 127
1, 122189, Note_on_c, 0, 55, 41
1, 122191, Note_on_c, 0, 65, 30
1, 122198, Note_on_c, 0, 63, 50
1, 122334, Note_off_c, 0, 65, 44
1, 122345, Note_off_c, 0, 55, 36
1, 122345, Note_off_c, 0, 63, 34
1, 122458, Note_on_c, 0, 57, 42
1, 122465, Note_on_c, 0, 65, 29
1, 122466, Note_on_c, 0, 63, 33
1, 122494, Control_c, 0, 64, 110
1, 122509, Control_c, 0, 64, 88
1, 122524, Control_c, 0, 64, 85
1, 122528, Note_off_c, 0, 65, 45
1, 122539, Control_c, 0, 64, 87
1, 122553, Control_c, 0, 64, 96
1, 122562, Note_off_c, 0, 63, 33
1, 122568, Control_c, 0, 64, 115
1, 122583, Control_c, 0, 64, 127
1, 122607, Note_off_c, 0, 57, 33
1, 122671, Note_on_c, 0, 65, 47
1, 122682, Note_on_c, 0, 53, 37
1, 122720, Note_off_c, 0, 65, 61
1, 122775, Control_c, 0, 64, 115
1, 122790, Control_c, 0, 64, 105
1, 122805, Control_c, 0, 64, 96
1, 122813, Note_off_c, 0, 53, 33
1, 122820, Control_c, 0, 64, 83
1, 122842, Control_c, 0, 64, 68
1, 122857, Control_c, 0, 64, 56
1, 122872, Control_c, 0, 64, 29
1, 122886, Control_c, 0, 64, 0
1, 122901, Note_on_c, 0, 73, 64
1, 122906, Note_on_c, 0, 58, 31
1, 122914, Note_off_c, 0, 72, 51
1, 122923, Note_on_c, 0, 61, 32
1, 122927, Note_on_c, 0, 65, 27
1, 122976, Control_c, 0, 64, 14
1, 122991, Control_c, 0, 64, 37
1, 123006, Control_c, 0, 64, 51
1, 123021, Control_c, 0, 64, 63
1, 123026, Note_off_c, 0, 65, 44
1, 123036, Control_c, 0, 64, 81
1, 123050, Control_c, 0, 64, 110
1, 123065, Control_c, 0, 64, 113
1, 123069, Note_off_c, 0, 61, 41
1, 123095, Control_c, 0, 64, 114
1, 123101, Note_off_c, 0, 58, 41
1, 123109, Control_c, 0, 64, 115
1, 123138, Note_on_c, 0, 65, 44
1, 123140, Note_on_c, 0, 55, 45
1, 123182, Note_off_c, 0, 65, 53
1, 123200, Note_off_c, 0, 55, 58
1, 123213, Control_c, 0, 64, 114
1, 123228, Control_c, 0, 64, 106
1, 123243, Control_c, 0, 64, 91
1, 123257, Control_c, 0, 64, 73
1, 123272, Control_c, 0, 64, 61
1, 123287, Control_c, 0, 64, 42
1, 123302, Control_c, 0, 64, 31
1, 123317, Control_c, 0, 64, 37
1, 123332, Control_c, 0, 64, 48
1, 123343, Note_on_c, 0, 72, 64
1, 123346, Control_c, 0, 64, 59
1, 123349, Note_on_c, 0, 57, 45
1, 123349, Note_on_c, 0, 63, 48
1, 123361, Control_c, 0, 64, 69
1, 123362, Note_off_c, 0, 73, 58
1, 123376, Control_c, 0, 64, 83
1, 123391, Control_c, 0, 64, 83
1, 123411, Note_off_c, 0, 63, 60
1, 123436, Control_c, 0, 64, 83
1, 123450, Control_c, 0, 64, 82
1, 123465, Control_c, 0, 64, 81
1, 123480, Control_c, 0, 64, 80
1, 123494, Control_c, 0, 64, 79
1, 123509, Control_c, 0, 64, 78
1, 123510, Note_off_c, 0, 57, 35
1, 123524, Control_c, 0, 64, 78
1, 123539, Control_c, 0, 64, 77
1, 123554, Control_c, 0, 64, 76
1, 123564, Note_on_c, 0, 55, 55
1, 123569, Control_c, 0, 64, 76
1, 123572, Note_on_c, 0, 65, 63
1, 123581, Note_on_c, 0, 63, 38
1, 123591, Control_c, 0, 64, 75
1, 123600, Note_off_c, 0, 65, 68
1, 123606, Control_c, 0, 64, 74
1, 123609, Note_off_c, 0, 55, 60
1, 123611, Note_off_c, 0, 63, 57
1, 123621, Control_c, 0, 64, 73
1, 123636, Control_c, 0, 64, 72
1, 123651, Control_c, 0, 64, 71
1, 123659, Note_on_c, 0, 65, 62
1, 123665, Control_c, 0, 64, 69
1, 123679, Note_off_c, 0, 65, 65
1, 123680, Control_c, 0, 64, 66
1, 123695, Control_c, 0, 64, 60
1, 123709, Control_c, 0, 64, 48
1, 123724, Control_c, 0, 64, 29
1, 123739, Control_c, 0, 64, 0
1, 123740, Note_on_c, 0, 57, 51
1, 123754, Note_on_c, 0, 65, 63
1, 123785, Control_c, 0, 64, 11
1, 123788, Note_off_c, 0, 72, 50
1, 123799, Control_c, 0, 64, 29
1, 123803, Note_off_c, 0, 65, 52
1, 123814, Control_c, 0, 64, 42
1, 123829, Control_c, 0, 64, 55
1, 123844, Control_c, 0, 64, 67
1, 123859, Control_c, 0, 64, 91
1, 123873, Control_c, 0, 64, 98
1, 123907, Note_off_c, 0, 57, 57
1, 123969, Note_on_c, 0, 65, 38
1, 123973, Note_on_c, 0, 73, 69
1, 123977, Note_on_c, 0, 53, 36
1, 124051, Control_c, 0, 64, 97
1, 124066, Control_c, 0, 64, 93
1, 124080, Control_c, 0, 64, 90
1, 124095, Control_c, 0, 64, 86
1, 124104, Note_off_c, 0, 65, 43
1, 124110, Control_c, 0, 64, 82
1, 124125, Control_c, 0, 64, 76
1, 124140, Control_c, 0, 64, 69
1, 124155, Control_c, 0, 64, 61
1, 124170, Control_c, 0, 64, 46
1, 124185, Control_c, 0, 64, 14
1, 124186, Note_off_c, 0, 53, 55
1, 124199, Control_c, 0, 64, 0
1, 124217, Note_on_c, 0, 58, 43
1, 124220, Note_on_c, 0, 61, 30
1, 124222, Note_on_c, 0, 70, 69
1, 124259, Control_c, 0, 64, 21
1, 124274, Control_c, 0, 64, 38
1, 124288, Control_c, 0, 64, 52
1, 124289, Note_off_c, 0, 73, 65
1, 124291, Note_off_c, 0, 61, 64
1, 124303, Control_c, 0, 64, 66
1, 124318, Note_off_c, 0, 58, 62
1, 124318, Control_c, 0, 64, 108
1, 124340, Control_c, 0, 64, 127
1, 124473, Note_on_c, 0, 58, 48
1, 124482, Note_on_c, 0, 78, 78
1, 124485, Note_on_c, 0, 60, 23
1, 124486, Note_on_c, 0, 51, 51
1, 124522, Note_off_c, 0, 60, 52
1, 124530, Note_off_c, 0, 58, 60
1, 124551, Note_off_c, 0, 51, 64
1, 124563, Note_off_c, 0, 70, 62
1, 124697, Control_c, 0, 64, 117
1, 124712, Control_c, 0, 64, 103
1, 124727, Control_c, 0, 64, 89
1, 124742, Control_c, 0, 64, 72
1, 124752, Note_on_c, 0, 39, 48
1, 124756, Control_c, 0, 64, 60
1, 124771, Control_c, 0, 64, 39
1, 124786, Control_c, 0, 64, 0
1, 124799, Note_off_c, 0, 78, 58
1, 124846, Note_on_c, 0, 72, 60
1, 124860, Control_c, 0, 64, 18
1, 124874, Control_c, 0, 64, 37
1, 124888, Note_off_c, 0, 39, 64
1, 124889, Control_c, 0, 64, 52
1, 124904, Control_c, 0, 64, 70
1, 124919, Control_c, 0, 64, 127
1, 125222, Note_on_c, 0, 65, 51
1, 125232, Note_on_c, 0, 53, 38
1, 125420, Note_on_c, 0, 73, 56
1, 125484, Note_off_c, 0, 72, 29
1, 125598, Note_off_c, 0, 53, 39
1, 125630, Note_on_c, 0, 77, 69
1, 125671, Note_off_c, 0, 73, 62
1, 125710, Note_off_c, 0, 65, 59
1, 125805, Note_on_c, 0, 75, 71
1, 125837, Note_on_c, 0, 65, 52
1, 125842, Note_on_c, 0, 53, 39
1, 125928, Note_off_c, 0, 53, 36
1, 125937, Note_off_c, 0, 77, 36
1, 125937, Note_on_c, 0, 73, 71
1, 125937, Note_off_c, 0, 65, 38
1, 126003, Note_off_c, 0, 75, 55
1, 126015, Control_c, 0, 64, 100
1, 126029, Control_c, 0, 64, 70
1, 126044, Control_c, 0, 64, 55
1, 126059, Control_c, 0, 64, 38
1, 126074, Note_on_c, 0, 72, 66
1, 126074, Note_on_c, 0, 65, 40
1, 126074, Control_c, 0, 64, 33
1, 126083, Note_on_c, 0, 63, 56
1, 126086, Note_on_c, 0, 57, 40
1, 126089, Control_c, 0, 64, 39
1, 126092, Note_off_c, 0, 73, 62
1, 126104, Control_c, 0, 64, 47
1, 126119, Control_c, 0, 64, 59
1, 126134, Control_c, 0, 64, 73
1, 126149, Control_c, 0, 64, 127
1, 126151, Note_off_c, 0, 65, 51
1, 126184, Note_off_c, 0, 72, 0
1, 126206, Note_off_c, 0, 63, 57
1, 126220, Poly_aftertouch_c, 0, 72, 127
1, 126276, Note_on_c, 0, 65, 46
1, 126277, Note_off_c, 0, 57, 36
1, 126278, Note_on_c, 0, 53, 56
1, 126301, Note_off_c, 0, 65, 64
1, 126326, Note_on_c, 0, 77, 74
1, 126337, Note_off_c, 0, 53, 65
1, 126349, Poly_aftertouch_c, 0, 72, 0
1, 126534, Control_c, 0, 64, 101
1, 126549, Control_c, 0, 64, 74
1, 126552, Note_on_c, 0, 39, 58
1, 126572, Control_c, 0, 64, 59
1, 126587, Control_c, 0, 64, 38
1, 126601, Control_c, 0, 64, 0
1, 126641, Note_on_c, 0, 74, 66
1, 126648, Note_on_c, 0, 71, 48
1, 126660, Control_c, 0, 64, 25
1, 126675, Control_c, 0, 64, 41
1, 126681, Note_off_c, 0, 77, 57
1, 126690, Control_c, 0, 64, 57
1, 126696, Note_off_c, 0, 39, 64
1, 126705, Control_c, 0, 64, 75
1, 126719, Control_c, 0, 64, 127
1, 126862, Note_off_c, 0, 74, 61
1, 126943, Note_on_c, 0, 68, 55
1, 126950, Note_on_c, 0, 56, 47
1, 127080, Note_on_c, 0, 75, 70
1, 127141, Note_off_c, 0, 75, 60
1, 127246, Note_on_c, 0, 75, 63
1, 127250, Note_on_c, 0, 79, 67
1, 127256, Note_off_c, 0, 56, 62
1, 127275, Note_off_c, 0, 68, 52
1, 127306, Note_off_c, 0, 75, 60
1, 127400, Note_off_c, 0, 79, 61
1, 127406, Note_on_c, 0, 77, 72
1, 127409, Note_on_c, 0, 68, 58
1, 127418, Note_on_c, 0, 74, 60
1, 127427, Note_on_c, 0, 56, 49
1, 127452, Note_off_c, 0, 71, 53
1, 127466, Note_off_c, 0, 68, 45
1, 127478, Note_off_c, 0, 56, 0
1, 127478, Note_on_c, 0, 56, 4
1, 127546, Note_off_c, 0, 74, 35
1, 127547, Note_on_c, 0, 75, 71
1, 127588, Note_off_c, 0, 77, 60
1, 127617, Control_c, 0, 64, 86
1, 127631, Control_c, 0, 64, 65
1, 127646, Control_c, 0, 64, 52
1, 127654, Note_off_c, 0, 56, 49
1, 127661, Control_c, 0, 64, 33
1, 127672, Note_on_c, 0, 74, 56
1, 127674, Note_on_c, 0, 65, 39
1, 127675, Note_on_c, 0, 71, 51
1, 127675, Control_c, 0, 64, 25
1, 127679, Note_on_c, 0, 59, 35
1, 127682, Note_on_c, 0, 68, 32
1, 127690, Control_c, 0, 64, 26
1, 127705, Control_c, 0, 64, 32
1, 127716, Note_off_c, 0, 75, 60
1, 127720, Control_c, 0, 64, 40
1, 127735, Control_c, 0, 64, 52
1, 127751, Control_c, 0, 64, 64
1, 127765, Control_c, 0, 64, 98
1, 127780, Control_c, 0, 64, 127
1, 127803, Note_off_c, 0, 68, 36
1, 127854, Note_off_c, 0, 65, 37
1, 127934, Note_on_c, 0, 79, 65
1, 127940, Note_on_c, 0, 56, 50
1, 127949, Note_on_c, 0, 75, 58
1, 127975, Note_off_c, 0, 74, 53
1, 128008, Note_off_c, 0, 59, 29
1, 128027, Note_off_c, 0, 56, 65
1, 128137, Note_off_c, 0, 75, 36
1, 128247, Control_c, 0, 64, 86
1, 128262, Control_c, 0, 64, 66
1, 128277, Control_c, 0, 64, 53
1, 128292, Control_c, 0, 64, 33
1, 128301, Note_on_c, 0, 77, 57
1, 128304, Note_on_c, 0, 51, 36
1, 128307, Note_on_c, 0, 74, 42
1, 128307, Control_c, 0, 64, 17
1, 128322, Control_c, 0, 64, 17
1, 128327, Note_off_c, 0, 79, 36
1, 128337, Control_c, 0, 64, 18
1, 128351, Control_c, 0, 64, 24
1, 128366, Control_c, 0, 64, 34
1, 128381, Control_c, 0, 64, 45
1, 128396, Control_c, 0, 64, 57
1, 128411, Control_c, 0, 64, 68
1, 128417, Note_off_c, 0, 71, 38
1, 128425, Control_c, 0, 64, 92
1, 128440, Control_c, 0, 64, 106
1, 128450, Note_off_c, 0, 51, 62
1, 128485, Control_c, 0, 64, 107
1, 128493, Note_on_c, 0, 75, 61
1, 128500, Note_off_c, 0, 74, 36
1, 128511, Note_off_c, 0, 77, 61
1, 128514, Control_c, 0, 64, 108
1, 128541, Note_on_c, 0, 71, 49
1, 128545, Control_c, 0, 64, 109
1, 128560, Control_c, 0, 64, 111
1, 128575, Control_c, 0, 64, 114
1, 128589, Control_c, 0, 64, 117
1, 128604, Control_c, 0, 64, 122
1, 128614, Note_off_c, 0, 75, 61
1, 128619, Control_c, 0, 64, 127
1, 128627, Note_on_c, 0, 74, 55
1, 128647, Note_on_c, 0, 56, 46
1, 128655, Note_on_c, 0, 65, 49
1, 128660, Note_on_c, 0, 68, 23
1, 128732, Note_off_c, 0, 68, 38
1, 128745, Note_on_c, 0, 79, 66
1, 128753, Note_off_c, 0, 74, 53
1, 128754, Note_on_c, 0, 75, 40
1, 128783, Note_off_c, 0, 75, 49
1, 128792, Note_off_c, 0, 56, 57
1, 128837, Note_off_c, 0, 79, 62
1, 128841, Note_off_c, 0, 65, 50
1, 128852, Note_on_c, 0, 77, 64
1, 128861, Note_off_c, 0, 71, 32
1, 128973, Note_off_c, 0, 77, 60
1, 128976, Poly_aftertouch_c, 0, 74, 127
1, 128989, Note_on_c, 0, 75, 55
1, 129020, Note_on_c, 0, 56, 54
1, 129027, Note_on_c, 0, 71, 56
1, 129031, Poly_aftertouch_c, 0, 74, 0
1, 129038, Note_on_c, 0, 65, 43
1, 129039, Note_off_c, 0, 75, 59
1, 129065, Note_off_c, 0, 56, 64
1, 129071, Note_off_c, 0, 71, 55
1, 129105, Note_on_c, 0, 75, 66
1, 129175, Note_off_c, 0, 75, 61
1, 129189, Control_c, 0, 64, 108
1, 129204, Control_c, 0, 64, 71
1, 129213, Note_off_c, 0, 65, 55
1, 129219, Control_c, 0, 64, 58
1, 129219, Note_on_c, 0, 76, 58
1, 129222, Note_on_c, 0, 62, 52
1, 129232, Note_on_c, 0, 71, 47
1, 129234, Control_c, 0, 64, 39
1, 129235, Note_on_c, 0, 73, 43
1, 129248, Control_c, 0, 64, 21
1, 129263, Control_c, 0, 64, 20
1, 129278, Control_c, 0, 64, 22
1, 129293, Control_c, 0, 64, 28
1, 129308, Control_c, 0, 64, 37
1, 129320, Note_off_c, 0, 76, 65
1, 129322, Note_off_c, 0, 73, 52
1, 129322, Control_c, 0, 64, 48
1, 129325, Note_on_c, 0, 77, 68
1, 129337, Note_on_c, 0, 74, 58
1, 129338, Control_c, 0, 64, 59
1, 129353, Control_c, 0, 64, 71
1, 129367, Control_c, 0, 64, 95
1, 129382, Control_c, 0, 64, 113
1, 129386, Note_off_c, 0, 71, 43
1, 129397, Control_c, 0, 64, 114
1, 129411, Control_c, 0, 64, 122
1, 129413, Note_off_c, 0, 74, 50
1, 129417, Note_off_c, 0, 77, 62
1, 129425, Note_on_c, 0, 78, 70
1, 129426, Control_c, 0, 64, 127
1, 129428, Note_off_c, 0, 62, 36
1, 129434, Note_on_c, 0, 75, 59
1, 129508, Note_off_c, 0, 78, 65
1, 129511, Note_off_c, 0, 75, 61
1, 129516, Note_on_c, 0, 79, 70
1, 129527, Note_on_c, 0, 76, 64
1, 129621, Note_off_c, 0, 79, 60
1, 129622, Note_off_c, 0, 76, 59
1, 129624, Note_on_c, 0, 80, 74
1, 129635, Note_on_c, 0, 77, 68
1, 129672, Note_off_c, 0, 77, 56
1, 129689, Note_off_c, 0, 80, 61
1, 129726, Note_on_c, 0, 79, 76
1, 129729, Note_on_c, 0, 75, 71
1, 129815, Note_off_c, 0, 79, 61
1, 129821, Note_on_c, 0, 77, 73
1, 129822, Note_on_c, 0, 68, 71
1, 129838, Note_on_c, 0, 59, 53
1, 129900, Note_on_c, 0, 82, 78
1, 129917, Note_off_c, 0, 75, 31
1, 129919, Note_off_c, 0, 77, 60
1, 129994, Note_on_c, 0, 80, 79
1, 130001, Note_on_c, 0, 71, 71
1, 130009, Note_off_c, 0, 68, 60
1, 130010, Note_off_c, 0, 82, 64
1, 130015, Note_on_c, 0, 62, 61
1, 130030, Note_off_c, 0, 59, 36
1, 130080, Poly_aftertouch_c, 0, 77, 127
1, 130086, Note_on_c, 0, 79, 67
1, 130089, Note_off_c, 0, 80, 60
1, 130168, Note_off_c, 0, 79, 62
1, 130178, Note_on_c, 0, 74, 74
1, 130181, Poly_aftertouch_c, 0, 77, 0
1, 130183, Note_off_c, 0, 62, 62
1, 130191, Note_on_c, 0, 68, 71
1, 130194, Note_off_c, 0, 71, 56
1, 130206, Note_on_c, 0, 59, 30
1, 130244, Note_off_c, 0, 59, 52
1, 130253, Note_off_c, 0, 74, 40
1, 130266, Note_on_c, 0, 78, 68
1, 130271, Note_on_c, 0, 75, 66
1, 130294, Note_off_c, 0, 78, 66
1, 130301, Note_off_c, 0, 75, 62
1, 130331, Control_c, 0, 64, 103
1, 130346, Control_c, 0, 64, 70
1, 130347, Note_off_c, 0, 68, 60
1, 130361, Control_c, 0, 64, 54
1, 130368, Note_on_c, 0, 65, 64
1, 130375, Note_on_c, 0, 79, 75
1, 130375, Control_c, 0, 64, 35
1, 130381, Note_on_c, 0, 74, 57
1, 130386, Note_on_c, 0, 76, 60
1, 130390, Control_c, 0, 64, 27
1, 130405, Control_c, 0, 64, 31
1, 130405, Note_off_c, 0, 79, 58
1, 130410, Note_off_c, 0, 76, 66
1, 130419, Control_c, 0, 64, 39
1, 130425, Note_off_c, 0, 74, 45
1, 130434, Control_c, 0, 64, 50
1, 130449, Control_c, 0, 64, 64
1, 130464, Control_c, 0, 64, 89
1, 130471, Note_on_c, 0, 80, 86
1, 130478, Note_off_c, 0, 65, 61
1, 130479, Control_c, 0, 64, 127
1, 130515, Note_off_c, 0, 80, 63
1, 130564, Note_on_c, 0, 78, 81
1, 130566, Note_on_c, 0, 81, 79
1, 130602, Note_off_c, 0, 78, 62
1, 130611, Note_off_c, 0, 81, 57
1, 130653, Note_on_c, 0, 82, 85
1, 130661, Note_on_c, 0, 79, 72
1, 130688, Note_off_c, 0, 79, 61
1, 130741, Note_off_c, 0, 82, 63
1, 130749, Note_on_c, 0, 80, 82
1, 130750, Note_on_c, 0, 83, 78
1, 130760, Control_c, 0, 64, 75
1, 130775, Control_c, 0, 64, 62
1, 130790, Control_c, 0, 64, 52
1, 130790, Note_on_c, 0, 79, 13
1, 130805, Control_c, 0, 64, 51
1, 130819, Control_c, 0, 64, 58
1, 130834, Note_off_c, 0, 80, 39
1, 130834, Control_c, 0, 64, 70
1, 130834, Note_on_c, 0, 82, 86
1, 130849, Control_c, 0, 64, 109
1, 130850, Note_off_c, 0, 83, 57
1, 130864, Control_c, 0, 64, 127
1, 130891, Note_off_c, 0, 79, 35
1, 130912, Note_on_c, 0, 62, 78
1, 130918, Note_on_c, 0, 71, 80
1, 130929, Note_on_c, 0, 80, 79
1, 130932, Note_off_c, 0, 82, 64
1, 130957, Note_off_c, 0, 80, 60
1, 131011, Note_on_c, 0, 83, 87
1, 131028, Note_on_c, 0, 87, 71
1, 131050, Note_off_c, 0, 87, 67
1, 131071, Note_off_c, 0, 83, 62
1, 131108, Note_off_c, 0, 62, 60
1, 131124, Control_c, 0, 64, 87
1, 131139, Control_c, 0, 64, 65
1, 131140, Note_on_c, 0, 74, 63
1, 131145, Note_on_c, 0, 65, 60
1, 131146, Note_on_c, 0, 86, 80
1, 131147, Note_on_c, 0, 82, 80
1, 131154, Control_c, 0, 64, 53
1, 131160, Note_off_c, 0, 71, 57
1, 131169, Control_c, 0, 64, 44
1, 131184, Control_c, 0, 64, 47
1, 131188, Note_off_c, 0, 82, 61
1, 131198, Control_c, 0, 64, 56
1, 131213, Control_c, 0, 64, 67
1, 131228, Control_c, 0, 64, 100
1, 131233, Note_off_c, 0, 74, 60
1, 131237, Note_on_c, 0, 83, 73
1, 131243, Control_c, 0, 64, 127
1, 131244, Note_on_c, 0, 80, 71
1, 131270, Note_off_c, 0, 80, 67
1, 131298, Note_off_c, 0, 86, 55
1, 131303, Note_off_c, 0, 65, 63
1, 131321, Note_on_c, 0, 82, 78
1, 131322, Note_on_c, 0, 79, 65
1, 131341, Note_off_c, 0, 79, 65
1, 131356, Note_off_c, 0, 83, 64
1, 131389, Note_on_c, 0, 80, 81
1, 131408, Note_off_c, 0, 82, 64
1, 131423, Note_on_c, 0, 77, 80
1, 131437, Note_off_c, 0, 80, 64
1, 131508, Note_on_c, 0, 79, 86
1, 131511, Note_on_c, 0, 82, 88
1, 131528, Note_off_c, 0, 77, 62
1, 131550, Note_off_c, 0, 79, 60
1, 131593, Note_on_c, 0, 80, 86
1, 131662, Note_off_c, 0, 82, 57
1, 131678, Note_on_c, 0, 75, 80
1, 131684, Note_on_c, 0, 79, 86
1, 131686, Control_c, 0, 64, 92
1, 131701, Control_c, 0, 64, 69
1, 131715, Control_c, 0, 64, 57
1, 131731, Control_c, 0, 64, 39
1, 131732, Note_off_c, 0, 80, 54
1, 131746, Control_c, 0, 64, 20
1, 131761, Control_c, 0, 64, 22
1, 131770, Note_on_c, 0, 74, 80
1, 131772, Note_on_c, 0, 77, 96
1, 131773, Note_off_c, 0, 79, 61
1, 131776, Control_c, 0, 64, 32
1, 131781, Note_off_c, 0, 75, 59
1, 131791, Control_c, 0, 64, 42
1, 131812, Note_off_c, 0, 74, 64
1, 131812, Control_c, 0, 64, 55
1, 131827, Control_c, 0, 64, 68
1, 131842, Note_off_c, 0, 77, 63
1, 131842, Control_c, 0, 64, 106
1, 131857, Control_c, 0, 64, 127
1, 131883, Note_on_c, 0, 83, 97
1, 131886, Note_on_c, 0, 80, 97
1, 131916, Note_off_c, 0, 83, 68
1, 131920, Note_off_c, 0, 80, 68
1, 132126, Note_on_c, 0, 91, 91
1, 132131, Note_on_c, 0, 55, 82
1, 132132, Note_on_c, 0, 87, 87
1, 132212, Control_c, 0, 64, 88
1, 132227, Control_c, 0, 64, 61
1, 132242, Control_c, 0, 64, 31
1, 132251, Note_off_c, 0, 87, 64
1, 132256, Control_c, 0, 64, 0
1, 132295, Note_on_c, 0, 56, 83
1, 132301, Note_on_c, 0, 89, 82
1, 132306, Note_on_c, 0, 86, 93
1, 132317, Note_off_c, 0, 91, 57
1, 132321, Note_off_c, 0, 55, 65
1, 132361, Control_c, 0, 64, 32
1, 132376, Control_c, 0, 64, 47
1, 132390, Control_c, 0, 64, 62
1, 132405, Control_c, 0, 64, 80
1, 132417, Note_on_c, 0, 59, 85
1, 132420, Control_c, 0, 64, 127
1, 132423, Note_on_c, 0, 83, 81
1, 132423, Note_off_c, 0, 56, 65
1, 132425, Note_on_c, 0, 87, 72
1, 132429, Note_off_c, 0, 86, 58
1, 132445, Note_off_c, 0, 89, 65
1, 132452, Note_off_c, 0, 87, 67
1, 132483, Note_off_c, 0, 83, 67
1, 132499, Note_off_c, 0, 59, 63
1, 132510, Note_on_c, 0, 62, 79
1, 132527, Note_on_c, 0, 86, 79
1, 132531, Note_on_c, 0, 82, 83
1, 132546, Note_off_c, 0, 62, 64
1, 132582, Note_off_c, 0, 86, 61
1, 132587, Note_off_c, 0, 82, 63
1, 132619, Note_on_c, 0, 65, 83
1, 132622, Note_on_c, 0, 83, 78
1, 132623, Note_on_c, 0, 80, 88
1, 132637, Poly_aftertouch_c, 0, 81, 0
1, 132672, Note_off_c, 0, 80, 62
1, 132684, Note_off_c, 0, 65, 65
1, 132712, Note_on_c, 0, 79, 68
1, 132716, Note_on_c, 0, 82, 76
1, 132727, Note_off_c, 0, 83, 64
1, 132772, Note_on_c, 0, 80, 90
1, 132782, Note_off_c, 0, 82, 65
1, 132783, Note_on_c, 0, 62, 87
1, 132807, Note_off_c, 0, 62, 61
1, 132807, Note_off_c, 0, 79, 61
1, 132869, Note_on_c, 0, 77, 106
1, 132870, Note_on_c, 0, 85, 88
1, 132872, Note_on_c, 0, 82, 91
1, 132896, Note_off_c, 0, 80, 61
1, 132909, Note_off_c, 0, 77, 67
1, 133019, Note_off_c, 0, 82, 53
1, 133176, Note_off_c, 0, 85, 57
1, 133240, Note_on_c, 0, 83, 81
1, 133240, Note_on_c, 0, 80, 85
1, 133285, Note_off_c, 0, 83, 64
1, 133286, Note_off_c, 0, 80, 63
1, 133362, Note_on_c, 0, 83, 82
1, 133369, Note_on_c, 0, 80, 83
1, 133394, Note_off_c, 0, 80, 59
1, 133442, Note_on_c, 0, 82, 84
1, 133449, Note_on_c, 0, 79, 85
1, 133452, Note_off_c, 0, 83, 61
1, 133510, Note_on_c, 0, 80, 82
1, 133515, Note_on_c, 0, 77, 85
1, 133528, Note_off_c, 0, 79, 61
1, 133535, Note_off_c, 0, 82, 64
1, 133558, Note_off_c, 0, 80, 64
1, 133565, Note_off_c, 0, 77, 65
1, 133578, Control_c, 0, 64, 73
1, 133592, Control_c, 0, 64, 42
1, 133598, Note_on_c, 0, 82, 91
1, 133598, Note_on_c, 0, 51, 100
1, 133600, Note_on_c, 0, 79, 90
1, 133602, Note_on_c, 0, 39, 92
1, 133607, Control_c, 0, 64, 0
1, 133629, Note_off_c, 0, 39, 68
1, 133637, Note_off_c, 0, 51, 61
1, 133666, Control_c, 0, 64, 36
1, 133681, Control_c, 0, 64, 60
1, 133682, Note_off_c, 0, 79, 63
1, 133696, Control_c, 0, 64, 127
1, 133705, Note_off_c, 0, 82, 66
1, 133938, Note_on_c, 0, 67, 70
1, 133944, Note_on_c, 0, 58, 68
1, 133944, Note_on_c, 0, 63, 71
1, 133969, Note_off_c, 0, 67, 64
1, 133975, Note_on_c, 0, 55, 38
1, 134000, Note_on_c, 0, 87, 96
1, 134000, Note_on_c, 0, 75, 98
1, 134028, Note_off_c, 0, 55, 47
1, 134053, Note_off_c, 0, 63, 64
1, 134081, Note_off_c, 0, 58, 63
1, 134238, Note_off_c, 0, 75, 58
1, 134307, Note_off_c, 0, 87, 63
1, 134327, Control_c, 0, 64, 73
1, 134341, Control_c, 0, 64, 51
1, 134356, Control_c, 0, 64, 0
1, 134366, Note_on_c, 0, 76, 101
1, 134366, Note_on_c, 0, 88, 103
1, 134369, Note_on_c, 0, 49, 99
1, 134373, Note_on_c, 0, 37, 82
1, 134401, Control_c, 0, 64, 29
1, 134413, Note_off_c, 0, 37, 66
1, 134415, Control_c, 0, 64, 48
1, 134430, Control_c, 0, 64, 67
1, 134445, Control_c, 0, 64, 127
1, 134447, Note_off_c, 0, 49, 66
1, 134486, Note_off_c, 0, 88, 69
1, 134495, Note_off_c, 0, 76, 63
1, 134692, Note_on_c, 0, 57, 79
1, 134693, Note_on_c, 0, 64, 69
1, 134698, Note_on_c, 0, 69, 100
1, 134700, Note_on_c, 0, 81, 103
1, 134713, Note_off_c, 0, 57, 70
1, 134719, Note_off_c, 0, 64, 66
1, 134779, Poly_aftertouch_c, 0, 67, 0
1, 134868, Control_c, 0, 64, 92
1, 134883, Control_c, 0, 64, 61
1, 134892, Note_off_c, 0, 69, 63
1, 134897, Control_c, 0, 64, 41
1, 134912, Control_c, 0, 64, 38
1, 134917, Note_on_c, 0, 48, 99
1, 134924, Note_on_c, 0, 36, 81
1, 134926, Note_off_c, 0, 81, 62
1, 134927, Control_c, 0, 64, 52
1, 134941, Note_off_c, 0, 48, 69
1, 134943, Control_c, 0, 64, 71
1, 134951, Note_on_c, 0, 37, 36
1, 134955, Note_off_c, 0, 36, 64
1, 134958, Control_c, 0, 64, 127
1, 134978, Note_off_c, 0, 37, 58
1, 135123, Note_on_c, 0, 87, 100
1, 135125, Note_on_c, 0, 63, 83
1, 135126, Note_on_c, 0, 75, 100
1, 135127, Note_on_c, 0, 67, 76
1, 135129, Note_on_c, 0, 57, 74
1, 135144, Note_off_c, 0, 67, 69
1, 135144, Note_off_c, 0, 63, 73
1, 135146, Note_off_c, 0, 57, 67
1, 135328, Control_c, 0, 64, 80
1, 135343, Control_c, 0, 64, 56
1, 135357, Control_c, 0, 64, 18
1, 135372, Control_c, 0, 64, 0
1, 135394, Note_on_c, 0, 49, 107
1, 135399, Note_on_c, 0, 37, 87
1, 135416, Control_c, 0, 64, 27
1, 135420, Note_off_c, 0, 37, 67
1, 135422, Note_off_c, 0, 49, 68
1, 135431, Control_c, 0, 64, 45
1, 135446, Control_c, 0, 64, 61
1, 135461, Control_c, 0, 64, 87
1, 135467, Note_off_c, 0, 75, 57
1, 135467, Poly_aftertouch_c, 0, 85, 127
1, 135476, Control_c, 0, 64, 127
1, 135586, Poly_aftertouch_c, 0, 85, 0
1, 135637, Note_off_c, 0, 87, 62
1, 135684, Note_on_c, 0, 88, 95
1, 135685, Note_on_c, 0, 57, 77
1, 135687, Note_on_c, 0, 76, 89
1, 135689, Note_on_c, 0, 64, 69
1, 135689, Note_on_c, 0, 67, 72
1, 135710, Note_off_c, 0, 57, 65
1, 135712, Note_off_c, 0, 67, 70
1, 135717, Note_off_c, 0, 64, 65
1, 135764, Note_off_c, 0, 76, 47
1, 135771, Note_on_c, 0, 64, 68
1, 135780, Note_on_c, 0, 67, 55
1, 135786, Note_off_c, 0, 88, 63
1, 135788, Note_on_c, 0, 57, 40
1, 135788, Note_off_c, 0, 64, 67
1, 135796, Note_off_c, 0, 67, 67
1, 135812, Note_off_c, 0, 57, 59
1, 135847, Note_on_c, 0, 64, 80
1, 135848, Note_on_c, 0, 67, 83
1, 135860, Note_on_c, 0, 57, 68
1, 135923, Note_off_c, 0, 57, 35
1, 135930, Note_off_c, 0, 67, 55
1, 135959, Note_off_c, 0, 64, 52
1, 136074, Note_on_c, 0, 64, 71
1, 136077, Note_on_c, 0, 57, 73
1, 136085, Note_on_c, 0, 69, 94
1, 136088, Note_on_c, 0, 81, 95
1, 136099, Note_off_c, 0, 57, 66
1, 136100, Note_off_c, 0, 64, 66
1, 136239, Control_c, 0, 64, 72
1, 136248, Note_off_c, 0, 69, 63
1, 136254, Control_c, 0, 64, 54
1, 136269, Control_c, 0, 64, 42
1, 136274, Note_on_c, 0, 48, 91
1, 136276, Note_off_c, 0, 81, 62
1, 136284, Control_c, 0, 64, 52
1, 136305, Control_c, 0, 64, 68
1, 136318, Note_off_c, 0, 48, 65
1, 136320, Control_c, 0, 64, 127
1, 136469, Note_on_c, 0, 87, 97
1, 136471, Note_on_c, 0, 66, 75
1, 136475, Note_on_c, 0, 75, 94
1, 136476, Note_on_c, 0, 57, 71
1, 136480, Note_on_c, 0, 63, 71
1, 136487, Note_off_c, 0, 66, 69
1, 136495, Note_off_c, 0, 57, 67
1, 136507, Note_off_c, 0, 63, 70
1, 136662, Control_c, 0, 64, 74
1, 136677, Control_c, 0, 64, 48
1, 136692, Control_c, 0, 64, 0
1, 136706, Note_on_c, 0, 48, 94
1, 136736, Control_c, 0, 64, 35
1, 136751, Control_c, 0, 64, 57
1, 136752, Note_off_c, 0, 87, 59
1, 136754, Note_off_c, 0, 48, 66
1, 136766, Control_c, 0, 64, 119
1, 136780, Control_c, 0, 64, 127
1, 136793, Note_off_c, 0, 75, 58
1, 136908, Note_on_c, 0, 57, 74
1, 136919, Note_on_c, 0, 66, 70
1, 136922, Note_on_c, 0, 86, 89
1, 136924, Note_on_c, 0, 74, 80
1, 136933, Note_off_c, 0, 57, 66
1, 136935, Note_off_c, 0, 66, 66
1, 136988, Note_on_c, 0, 56, 83
1, 136991, Note_on_c, 0, 66, 84
1, 137009, Poly_aftertouch_c, 0, 61, 0
1, 137013, Note_off_c, 0, 66, 69
1, 137014, Note_off_c, 0, 56, 67
1, 137014, Note_off_c, 0, 86, 60
1, 137023, Note_off_c, 0, 74, 60
1, 137089, Note_on_c, 0, 56, 79
1, 137089, Note_on_c, 0, 66, 87
1, 137121, Note_off_c, 0, 66, 59
1, 137130, Note_off_c, 0, 56, 59
1, 137312, Note_on_c, 0, 56, 78
1, 137315, Note_on_c, 0, 80, 101
1, 137321, Note_on_c, 0, 68, 84
1, 137327, Note_on_c, 0, 66, 46
1, 137340, Note_off_c, 0, 56, 67
1, 137354, Note_off_c, 0, 66, 58
1, 137375, Note_off_c, 0, 68, 58
1, 137485, Control_c, 0, 64, 66
1, 137500, Control_c, 0, 64, 46
1, 137505, Note_on_c, 0, 47, 95
1, 137515, Control_c, 0, 64, 29
1, 137530, Control_c, 0, 64, 42
1, 137545, Control_c, 0, 64, 58
1, 137551, Note_off_c, 0, 47, 66
1, 137559, Control_c, 0, 64, 86
1, 137574, Control_c, 0, 64, 127
1, 137635, Note_off_c, 0, 80, 59
1, 137697, Note_on_c, 0, 65, 78
1, 137698, Note_on_c, 0, 56, 85
1, 137709, Note_on_c, 0, 85, 97
1, 137712, Note_off_c, 0, 65, 73
1, 137713, Note_on_c, 0, 73, 94
1, 137729, Note_off_c, 0, 56, 66
1, 137878, Control_c, 0, 64, 98
1, 137893, Control_c, 0, 64, 64
1, 137908, Control_c, 0, 64, 43
1, 137923, Control_c, 0, 64, 18
1, 137938, Control_c, 0, 64, 20
1, 137952, Control_c, 0, 64, 36
1, 137958, Note_on_c, 0, 46, 100
1, 137967, Control_c, 0, 64, 52
1, 137982, Control_c, 0, 64, 70
1, 137996, Note_off_c, 0, 46, 61
1, 137997, Control_c, 0, 64, 127
1, 138090, Note_off_c, 0, 85, 55
1, 138103, Note_off_c, 0, 73, 61
1, 138171, Poly_aftertouch_c, 0, 82, 0
1, 138176, Note_on_c, 0, 56, 81
1, 138178, Note_on_c, 0, 64, 83
1, 138193, Note_on_c, 0, 84, 94
1, 138197, Note_off_c, 0, 56, 70
1, 138199, Note_off_c, 0, 64, 71
1, 138200, Note_on_c, 0, 72, 73
1, 138257, Note_on_c, 0, 64, 78
1, 138260, Note_on_c, 0, 55, 77
1, 138278, Note_off_c, 0, 64, 71
1, 138286, Note_off_c, 0, 55, 68
1, 138338, Control_c, 0, 64, 69
1, 138353, Control_c, 0, 64, 51
1, 138356, Note_off_c, 0, 84, 61
1, 138367, Note_off_c, 0, 72, 54
1, 138368, Control_c, 0, 64, 33
1, 138378, Note_on_c, 0, 64, 95
1, 138381, Note_on_c, 0, 54, 95
1, 138382, Control_c, 0, 64, 43
1, 138397, Control_c, 0, 64, 58
1, 138401, Note_off_c, 0, 64, 67
1, 138412, Control_c, 0, 64, 79
1, 138415, Note_off_c, 0, 54, 63
1, 138427, Control_c, 0, 64, 127
1, 138606, Note_on_c, 0, 78, 99
1, 138609, Note_on_c, 0, 54, 60
1, 138609, Note_on_c, 0, 66, 90
1, 138610, Note_on_c, 0, 64, 68
1, 138627, Note_off_c, 0, 64, 68
1, 138629, Note_off_c, 0, 54, 66
1, 138685, Note_on_c, 0, 54, 86
1, 138687, Note_on_c, 0, 63, 73
1, 138701, Note_off_c, 0, 66, 57
1, 138709, Note_off_c, 0, 54, 69
1, 138711, Note_off_c, 0, 63, 71
1, 138820, Control_c, 0, 64, 79
1, 138834, Note_on_c, 0, 45, 93
1, 138834, Control_c, 0, 64, 56
1, 138849, Control_c, 0, 64, 31
1, 138862, Note_on_c, 0, 54, 52
1, 138864, Control_c, 0, 64, 33
1, 138872, Note_off_c, 0, 78, 60
1, 138877, Note_off_c, 0, 45, 64
1, 138879, Control_c, 0, 64, 50
1, 138880, Note_off_c, 0, 54, 41
1, 138894, Control_c, 0, 64, 66
1, 138908, Control_c, 0, 64, 127
1, 139075, Note_on_c, 0, 59, 74
1, 139079, Note_on_c, 0, 63, 75
1, 139087, Note_on_c, 0, 54, 77
1, 139118, Note_off_c, 0, 63, 50
1, 139158, Note_on_c, 0, 83, 94
1, 139160, Note_on_c, 0, 71, 93
1, 139168, Note_off_c, 0, 59, 60
1, 139193, Note_off_c, 0, 54, 63
1, 139422, Note_off_c, 0, 83, 62
1, 139429, Note_off_c, 0, 71, 62
1, 139598, Note_on_c, 0, 44, 86
1, 139607, Note_on_c, 0, 71, 97
1, 139607, Note_on_c, 0, 83, 96
1, 139613, Control_c, 0, 64, 89
1, 139628, Control_c, 0, 64, 56
1, 139643, Control_c, 0, 64, 0
1, 139717, Control_c, 0, 64, 24
1, 139732, Control_c, 0, 64, 44
1, 139747, Control_c, 0, 64, 62
1, 139762, Control_c, 0, 64, 127
1, 139795, Note_off_c, 0, 44, 63
1, 139862, Note_off_c, 0, 71, 55
1, 139908, Note_off_c, 0, 83, 60
1, 140051, Note_on_c, 0, 64, 87
1, 140054, Note_on_c, 0, 59, 75
1, 140071, Note_on_c, 0, 52, 70
1, 140290, Note_on_c, 0, 82, 91
1, 140293, Note_on_c, 0, 70, 89
1, 140335, Note_off_c, 0, 64, 54
1, 140349, Note_off_c, 0, 52, 37
1, 140425, Note_off_c, 0, 70, 60
1, 140464, Note_off_c, 0, 82, 62
1, 140509, Note_off_c, 0, 59, 53
1, 140567, Note_on_c, 0, 81, 97
1, 140568, Note_on_c, 0, 69, 84
1, 140664, Note_off_c, 0, 81, 60
1, 140666, Note_off_c, 0, 69, 62
1, 140767, Note_on_c, 0, 80, 90
1, 140774, Note_on_c, 0, 68, 79
1, 140803, Note_off_c, 0, 68, 68
1, 140830, Note_off_c, 0, 80, 61
1, 140895, Note_on_c, 0, 79, 80
1, 140897, Note_on_c, 0, 67, 80
1, 140912, Note_off_c, 0, 67, 70
1, 140916, Note_off_c, 0, 79, 69
1, 141000, Note_on_c, 0, 52, 68
1, 141002, Note_on_c, 0, 59, 60
1, 141008, Note_on_c, 0, 66, 88
1, 141010, Note_on_c, 0, 78, 85
1, 141029, Note_off_c, 0, 59, 65
1, 141029, Note_off_c, 0, 78, 71
1, 141029, Note_off_c, 0, 66, 67
1, 141057, Note_off_c, 0, 52, 56
1, 141102, Note_on_c, 0, 77, 82
1, 141108, Note_on_c, 0, 65, 72
1, 141122, Note_off_c, 0, 77, 71
1, 141125, Note_off_c, 0, 65, 70
1, 141179, Note_on_c, 0, 64, 88
1, 141180, Note_on_c, 0, 76, 87
1, 141199, Note_off_c, 0, 76, 72
1, 141205, Note_off_c, 0, 64, 65
1, 141288, Note_on_c, 0, 75, 92
1, 141292, Note_on_c, 0, 63, 87
1, 141301, Note_on_c, 0, 44, 67
1, 141302, Control_c, 0, 64, 75
1, 141317, Control_c, 0, 64, 53
1, 141333, Control_c, 0, 64, 0
1, 141408, Control_c, 0, 64, 33
1, 141423, Control_c, 0, 64, 51
1, 141438, Control_c, 0, 64, 77
1, 141452, Control_c, 0, 64, 127
1, 141488, Note_off_c, 0, 44, 61
1, 141516, Note_off_c, 0, 75, 59
1, 141517, Note_off_c, 0, 63, 64
1, 141641, Note_on_c, 0, 58, 59
1, 141643, Note_on_c, 0, 53, 61
1, 141646, Note_on_c, 0, 74, 92
1, 141649, Note_on_c, 0, 62, 84
1, 141673, Note_off_c, 0, 58, 64
1, 141706, Note_off_c, 0, 53, 65
1, 141933, Control_c, 0, 64, 85
1, 141948, Control_c, 0, 64, 63
1, 141953, Note_on_c, 0, 43, 79
1, 141963, Control_c, 0, 64, 49
1, 141977, Control_c, 0, 64, 32
1, 141992, Control_c, 0, 64, 28
1, 142007, Control_c, 0, 64, 36
1, 142022, Control_c, 0, 64, 47
1, 142037, Control_c, 0, 64, 60
1, 142052, Control_c, 0, 64, 81
1, 142061, Note_off_c, 0, 62, 61
1, 142067, Control_c, 0, 64, 127
1, 142111, Note_off_c, 0, 43, 50
1, 142199, Note_on_c, 0, 73, 86
1, 142204, Note_on_c, 0, 61, 80
1, 142207, Note_on_c, 0, 51, 69
1, 142211, Note_on_c, 0, 58, 64
1, 142229, Note_off_c, 0, 51, 62
1, 142230, Note_off_c, 0, 58, 63
1, 142231, Note_off_c, 0, 74, 52
1, 142344, Note_off_c, 0, 61, 63
1, 142384, Note_off_c, 0, 73, 61
1, 142415, Control_c, 0, 64, 75
1, 142430, Control_c, 0, 64, 56
1, 142445, Control_c, 0, 64, 32
1, 142447, Note_on_c, 0, 44, 74
1, 142449, Note_on_c, 0, 72, 88
1, 142452, Note_on_c, 0, 60, 80
1, 142460, Control_c, 0, 64, 27
1, 142474, Note_off_c, 0, 60, 69
1, 142475, Control_c, 0, 64, 41
1, 142490, Control_c, 0, 64, 58
1, 142498, Note_off_c, 0, 72, 66
1, 142504, Note_off_c, 0, 44, 56
1, 142505, Control_c, 0, 64, 88
1, 142520, Control_c, 0, 64, 127
1, 142653, Note_on_c, 0, 68, 92
1, 142741, Note_on_c, 0, 51, 76
1, 142743, Note_on_c, 0, 80, 101
1, 142748, Note_on_c, 0, 60, 57
1, 142763, Note_off_c, 0, 60, 70
1, 142766, Note_off_c, 0, 68, 57
1, 142788, Note_off_c, 0, 80, 63
1, 142798, Note_off_c, 0, 51, 62
1, 143075, Note_on_c, 0, 41, 70
1, 143157, Note_on_c, 0, 68, 88
1, 143159, Note_on_c, 0, 56, 82
1, 143253, Control_c, 0, 64, 69
1, 143268, Control_c, 0, 64, 53
1, 143283, Control_c, 0, 64, 29
1, 143298, Control_c, 0, 64, 16
1, 143313, Control_c, 0, 64, 23
1, 143327, Control_c, 0, 64, 34
1, 143342, Control_c, 0, 64, 45
1, 143357, Control_c, 0, 64, 61
1, 143372, Control_c, 0, 64, 84
1, 143387, Control_c, 0, 64, 127
1, 143438, Note_on_c, 0, 62, 81
1, 143439, Note_on_c, 0, 40, 82
1, 143460, Note_off_c, 0, 41, 64
1, 143488, Note_off_c, 0, 56, 58
1, 143528, Note_off_c, 0, 68, 56
1, 143579, Note_off_c, 0, 62, 61
1, 143670, Note_on_c, 0, 70, 92
1, 143673, Note_on_c, 0, 58, 84
1, 143726, Note_off_c, 0, 58, 58
1, 143739, Note_off_c, 0, 70, 59
1, 143817, Note_on_c, 0, 39, 69
1, 143817, Note_on_c, 0, 70, 91
1, 143819, Note_on_c, 0, 58, 87
1, 143819, Note_off_c, 0, 40, 62
1, 143854, Control_c, 0, 64, 74
1, 143869, Control_c, 0, 64, 55
1, 143884, Control_c, 0, 64, 0
1, 143987, Control_c, 0, 64, 16
1, 144002, Control_c, 0, 64, 34
1, 144017, Control_c, 0, 64, 54
1, 144032, Control_c, 0, 64, 72
1, 144035, Note_off_c, 0, 39, 57
1, 144046, Control_c, 0, 64, 127
1, 144059, Note_off_c, 0, 58, 58
1, 144352, Note_on_c, 0, 67, 71
1, 144353, Note_on_c, 0, 63, 71
1, 144360, Note_on_c, 0, 51, 57
1, 144582, Note_off_c, 0, 51, 63
1, 144595, Note_off_c, 0, 67, 57
1, 144603, Note_off_c, 0, 63, 60
1, 144689, Note_on_c, 0, 67, 66
1, 144700, Note_on_c, 0, 63, 67
1, 144713, Note_on_c, 0, 51, 56
1, 144791, Note_off_c, 0, 67, 60
1, 144934, Note_off_c, 0, 51, 62
1, 144935, Note_on_c, 0, 64, 63
1, 144936, Note_on_c, 0, 68, 66
1, 144940, Note_on_c, 0, 50, 50
1, 144981, Note_off_c, 0, 63, 61
1, 145156, Note_off_c, 0, 68, 58
1, 145189, Note_on_c, 0, 67, 53
1, 145203, Note_on_c, 0, 63, 49
1, 145210, Note_on_c, 0, 51, 51
1, 145239, Control_c, 0, 64, 88
1, 145247, Note_off_c, 0, 50, 34
1, 145254, Control_c, 0, 64, 66
1, 145268, Note_off_c, 0, 64, 37
1, 145268, Control_c, 0, 64, 55
1, 145283, Control_c, 0, 64, 43
1, 145299, Note_off_c, 0, 67, 60
1, 145306, Control_c, 0, 64, 42
1, 145322, Control_c, 0, 64, 49
1, 145337, Control_c, 0, 64, 59
1, 145351, Control_c, 0, 64, 69
1, 145366, Control_c, 0, 64, 90
1, 145381, Control_c, 0, 64, 106
1, 145396, Control_c, 0, 64, 108
1, 145436, Note_off_c, 0, 63, 54
1, 145455, Control_c, 0, 64, 104
1, 145470, Control_c, 0, 64, 98
1, 145485, Control_c, 0, 64, 92
1, 145497, Note_off_c, 0, 51, 36
1, 145499, Control_c, 0, 64, 87
1, 145514, Control_c, 0, 64, 83
1, 145529, Control_c, 0, 64, 80
1, 145543, Control_c, 0, 64, 76
1, 145558, Control_c, 0, 64, 72
1, 145573, Control_c, 0, 64, 67
1, 145588, Control_c, 0, 64, 62
1, 145593, Note_on_c, 0, 68, 47
1, 145603, Control_c, 0, 64, 52
1, 145610, Note_on_c, 0, 52, 43
1, 145610, Note_on_c, 0, 62, 38
1, 145617, Control_c, 0, 64, 33
1, 145632, Control_c, 0, 64, 0
1, 145703, Note_off_c, 0, 70, 32
1, 145736, Control_c, 0, 64, 22
1, 145751, Control_c, 0, 64, 35
1, 145766, Control_c, 0, 64, 46
1, 145781, Control_c, 0, 64, 57
1, 145796, Control_c, 0, 64, 64
1, 145811, Control_c, 0, 64, 67
1, 145868, Note_off_c, 0, 52, 43
1, 145886, Note_off_c, 0, 62, 43
1, 145899, Control_c, 0, 64, 67
1, 145928, Note_off_c, 0, 68, 40
1, 145958, Control_c, 0, 64, 67
1, 145973, Control_c, 0, 64, 66
1, 145988, Control_c, 0, 64, 66
1, 146003, Control_c, 0, 64, 65
1, 146017, Control_c, 0, 64, 64
1, 146032, Control_c, 0, 64, 64
1, 146055, Control_c, 0, 64, 63
1, 146070, Control_c, 0, 64, 62
1, 146085, Control_c, 0, 64, 61
1, 146099, Control_c, 0, 64, 60
1, 146115, Control_c, 0, 64, 58
1, 146130, Control_c, 0, 64, 57
1, 146144, Control_c, 0, 64, 56
1, 146159, Control_c, 0, 64, 55
1, 146174, Control_c, 0, 64, 55
1, 146189, Control_c, 0, 64, 54
1, 146204, Control_c, 0, 64, 53
1, 146219, Control_c, 0, 64, 52
1, 146234, Control_c, 0, 64, 52
1, 146248, Control_c, 0, 64, 51
1, 146263, Control_c, 0, 64, 51
1, 146293, Control_c, 0, 64, 50
1, 146308, Control_c, 0, 64, 49
1, 146322, Control_c, 0, 64, 48
1, 146337, Control_c, 0, 64, 47
1, 146352, Control_c, 0, 64, 46
1, 146366, Control_c, 0, 64, 46
1, 146381, Control_c, 0, 64, 45
1, 146396, Control_c, 0, 64, 45
1, 146411, Control_c, 0, 64, 44
1, 146426, Control_c, 0, 64, 44
1, 146440, Control_c, 0, 64, 43
1, 146455, Control_c, 0, 64, 42
1, 146470, Control_c, 0, 64, 39
1, 146485, Control_c, 0, 64, 36
1, 146500, Control_c, 0, 64, 22
1, 146514, Control_c, 0, 64, 0
1, 146677, Control_c, 0, 64, 14
1, 146691, Control_c, 0, 64, 23
1, 146706, Control_c, 0, 64, 30
1, 146721, Control_c, 0, 64, 35
1, 146736, Control_c, 0, 64, 39
1, 146751, Control_c, 0, 64, 44
1, 146765, Control_c, 0, 64, 49
1, 146780, Control_c, 0, 64, 53
1, 146803, Control_c, 0, 64, 56
1, 146818, Control_c, 0, 64, 57
1, 146833, Control_c, 0, 64, 58
1, 146847, Control_c, 0, 64, 59
1, 146862, Control_c, 0, 64, 60
1, 146876, Note_on_c, 0, 70, 53
1, 146877, Control_c, 0, 64, 61
1, 146886, Note_on_c, 0, 58, 39
1, 146906, Control_c, 0, 64, 61
1, 146937, Note_off_c, 0, 58, 47
1, 146937, Control_c, 0, 64, 62
1, 146952, Control_c, 0, 64, 62
1, 146955, Note_off_c, 0, 70, 54
1, 146967, Control_c, 0, 64, 63
1, 146996, Control_c, 0, 64, 63
1, 147011, Control_c, 0, 64, 64
1, 147026, Control_c, 0, 64, 64
1, 147045, Note_on_c, 0, 70, 44
1, 147056, Control_c, 0, 64, 65
1, 147057, Note_on_c, 0, 58, 35
1, 147070, Control_c, 0, 64, 65
1, 147072, Note_on_c, 0, 39, 42
1, 147085, Control_c, 0, 64, 66
1, 147114, Control_c, 0, 64, 66
1, 147129, Control_c, 0, 64, 67
1, 147144, Control_c, 0, 64, 68
1, 147159, Control_c, 0, 64, 68
1, 147174, Control_c, 0, 64, 69
1, 147188, Control_c, 0, 64, 71
1, 147203, Control_c, 0, 64, 72
1, 147218, Control_c, 0, 64, 74
1, 147233, Control_c, 0, 64, 76
1, 147248, Control_c, 0, 64, 78
1, 147262, Control_c, 0, 64, 81
1, 147277, Control_c, 0, 64, 84
1, 147282, Note_off_c, 0, 39, 39
1, 147292, Control_c, 0, 64, 86
1, 147295, Note_off_c, 0, 58, 39
1, 147307, Control_c, 0, 64, 89
1, 147322, Control_c, 0, 64, 91
1, 147337, Control_c, 0, 64, 93
1, 147352, Control_c, 0, 64, 95
1, 147367, Control_c, 0, 64, 98
1, 147381, Control_c, 0, 64, 100
1, 147396, Control_c, 0, 64, 103
1, 147411, Control_c, 0, 64, 108
1, 147426, Control_c, 0, 64, 113
1, 147441, Control_c, 0, 64, 119
1, 147455, Control_c, 0, 64, 127
1, 147752, Note_on_c, 0, 63, 28
1, 147752, Note_on_c, 0, 67, 37
1, 147769, Note_on_c, 0, 51, 28
1, 147916, Note_off_c, 0, 67, 52
1, 147927, Note_off_c, 0, 51, 50
1, 147945, Note_off_c, 0, 63, 41
1, 148088, Note_on_c, 0, 51, 30
1, 148092, Note_on_c, 0, 67, 31
1, 148105, Note_on_c, 0, 63, 39
1, 148188, Note_off_c, 0, 67, 37
1, 148344, Note_off_c, 0, 51, 44
1, 148365, Note_on_c, 0, 50, 33
1, 148365, Note_on_c, 0, 68, 48
1, 148373, Note_on_c, 0, 64, 34
1, 148390, Note_off_c, 0, 63, 45
1, 148527, Note_off_c, 0, 68, 50
1, 148539, Control_c, 0, 64, 122
1, 148554, Control_c, 0, 64, 114
1, 148568, Control_c, 0, 64, 108
1, 148583, Control_c, 0, 64, 103
1, 148598, Control_c, 0, 64, 95
1, 148613, Control_c, 0, 64, 76
1, 148628, Control_c, 0, 64, 63
1, 148642, Control_c, 0, 64, 50
1, 148647, Note_off_c, 0, 50, 40
1, 148654, Note_on_c, 0, 67, 36
1, 148655, Note_on_c, 0, 51, 39
1, 148656, Note_off_c, 0, 64, 42
1, 148657, Control_c, 0, 64, 32
1, 148663, Note_on_c, 0, 63, 33
1, 148672, Control_c, 0, 64, 23
1, 148687, Control_c, 0, 64, 26
1, 148702, Control_c, 0, 64, 36
1, 148717, Control_c, 0, 64, 47
1, 148732, Control_c, 0, 64, 59
1, 148747, Control_c, 0, 64, 70
1, 148761, Control_c, 0, 64, 82
1, 148766, Note_off_c, 0, 67, 38
1, 148776, Control_c, 0, 64, 84
1, 148791, Control_c, 0, 64, 84
1, 148815, Note_off_c, 0, 63, 38
1, 148865, Note_off_c, 0, 51, 45
1, 148880, Control_c, 0, 64, 83
1, 148894, Control_c, 0, 64, 81
1, 148909, Control_c, 0, 64, 79
1, 148924, Control_c, 0, 64, 78
1, 148939, Control_c, 0, 64, 76
1, 148954, Control_c, 0, 64, 75
1, 148968, Control_c, 0, 64, 74
1, 148983, Control_c, 0, 64, 73
1, 148998, Control_c, 0, 64, 71
1, 149013, Control_c, 0, 64, 69
1, 149035, Control_c, 0, 64, 67
1, 149050, Control_c, 0, 64, 64
1, 149065, Control_c, 0, 64, 58
1, 149080, Control_c, 0, 64, 46
1, 149081, Note_on_c, 0, 68, 33
1, 149091, Note_on_c, 0, 52, 34
1, 149094, Control_c, 0, 64, 24
1, 149097, Note_on_c, 0, 62, 26
1, 149109, Control_c, 0, 64, 0
1, 149122, Note_off_c, 0, 70, 40
1, 149168, Control_c, 0, 64, 22
1, 149183, Control_c, 0, 64, 37
1, 149198, Control_c, 0, 64, 47
1, 149213, Control_c, 0, 64, 57
1, 149228, Control_c, 0, 64, 64
1, 149242, Control_c, 0, 64, 69
1, 149257, Control_c, 0, 64, 71
1, 149272, Control_c, 0, 64, 72
1, 149332, Control_c, 0, 64, 71
1, 149333, Note_off_c, 0, 52, 45
1, 149340, Note_off_c, 0, 68, 35
1, 149347, Control_c, 0, 64, 71
1, 149362, Control_c, 0, 64, 69
1, 149374, Note_off_c, 0, 62, 41
1, 149377, Control_c, 0, 64, 68
1, 149391, Control_c, 0, 64, 66
1, 149406, Control_c, 0, 64, 65
1, 149421, Control_c, 0, 64, 64
1, 149436, Control_c, 0, 64, 64
1, 149451, Control_c, 0, 64, 63
1, 149465, Control_c, 0, 64, 62
1, 149480, Control_c, 0, 64, 61
1, 149495, Control_c, 0, 64, 59
1, 149510, Control_c, 0, 64, 58
1, 149525, Control_c, 0, 64, 56
1, 149540, Control_c, 0, 64, 56
1, 149555, Control_c, 0, 64, 55
1, 149584, Control_c, 0, 64, 55
1, 149599, Control_c, 0, 64, 54
1, 149614, Control_c, 0, 64, 54
1, 149629, Control_c, 0, 64, 53
1, 149644, Control_c, 0, 64, 53
1, 149673, Control_c, 0, 64, 52
1, 149688, Control_c, 0, 64, 52
1, 149703, Control_c, 0, 64, 51
1, 149717, Control_c, 0, 64, 51
1, 149732, Control_c, 0, 64, 50
1, 149747, Control_c, 0, 64, 49
1, 149777, Control_c, 0, 64, 49
1, 149799, Control_c, 0, 64, 48
1, 149814, Control_c, 0, 64, 47
1, 149829, Control_c, 0, 64, 46
1, 149844, Control_c, 0, 64, 45
1, 149859, Control_c, 0, 64, 43
1, 149873, Control_c, 0, 64, 41
1, 149888, Control_c, 0, 64, 38
1, 149903, Control_c, 0, 64, 34
1, 149917, Control_c, 0, 64, 29
1, 149932, Control_c, 0, 64, 21
1, 149947, Control_c, 0, 64, 0
1, 150185, Control_c, 0, 64, 15
1, 150200, Control_c, 0, 64, 20
1, 150214, Control_c, 0, 64, 25
1, 150229, Control_c, 0, 64, 30
1, 150244, Control_c, 0, 64, 34
1, 150259, Control_c, 0, 64, 39
1, 150274, Control_c, 0, 64, 43
1, 150288, Control_c, 0, 64, 48
1, 150303, Control_c, 0, 64, 53
1, 150318, Control_c, 0, 64, 56
1, 150332, Control_c, 0, 64, 59
1, 150347, Control_c, 0, 64, 61
1, 150362, Control_c, 0, 64, 63
1, 150377, Control_c, 0, 64, 64
1, 150392, Control_c, 0, 64, 66
1, 150406, Control_c, 0, 64, 67
1, 150421, Control_c, 0, 64, 69
1, 150436, Control_c, 0, 64, 71
1, 150451, Control_c, 0, 64, 73
1, 150466, Control_c, 0, 64, 74
1, 150480, Control_c, 0, 64, 77
1, 150495, Control_c, 0, 64, 79
1, 150510, Control_c, 0, 64, 80
1, 150525, Control_c, 0, 64, 82
1, 150547, Control_c, 0, 64, 83
1, 150562, Control_c, 0, 64, 84
1, 150577, Control_c, 0, 64, 86
1, 150592, Control_c, 0, 64, 87
1, 150607, Control_c, 0, 64, 88
1, 150621, Control_c, 0, 64, 88
1, 150636, Control_c, 0, 64, 89
1, 150651, Control_c, 0, 64, 90
1, 150666, Control_c, 0, 64, 92
1, 150681, Control_c, 0, 64, 93
1, 150686, Note_on_c, 0, 70, 40
1, 150695, Control_c, 0, 64, 95
1, 150710, Control_c, 0, 64, 97
1, 150717, Note_on_c, 0, 58, 24
1, 150772, Note_off_c, 0, 58, 43
1, 150778, Note_off_c, 0, 70, 38
1, 150784, Control_c, 0, 64, 97
1, 150872, Control_c, 0, 64, 97
1, 150887, Control_c, 0, 64, 96
1, 150903, Control_c, 0, 64, 95
1, 150918, Control_c, 0, 64, 94
1, 150933, Note_on_c, 0, 70, 31
1, 150933, Control_c, 0, 64, 93
1, 150947, Note_on_c, 0, 51, 34
1, 150947, Note_on_c, 0, 67, 36
1, 150948, Control_c, 0, 64, 92
1, 150951, Note_on_c, 0, 63, 25
1, 150962, Control_c, 0, 64, 90
1, 150977, Control_c, 0, 64, 89
1, 150982, Note_on_c, 0, 58, 3
1, 150992, Control_c, 0, 64, 87
1, 151007, Control_c, 0, 64, 85
1, 151022, Control_c, 0, 64, 82
1, 151036, Control_c, 0, 64, 79
1, 151051, Control_c, 0, 64, 74
1, 151066, Control_c, 0, 64, 69
1, 151081, Control_c, 0, 64, 63
1, 151096, Control_c, 0, 64, 55
1, 151111, Control_c, 0, 64, 46
1, 151126, Control_c, 0, 64, 40
1, 151140, Control_c, 0, 64, 40
1, 151155, Control_c, 0, 64, 41
1, 151170, Control_c, 0, 64, 44
1, 151185, Control_c, 0, 64, 50
1, 151200, Control_c, 0, 64, 56
1, 151215, Control_c, 0, 64, 61
1, 151229, Control_c, 0, 64, 64
1, 151244, Control_c, 0, 64, 66
1, 151259, Control_c, 0, 64, 68
1, 151281, Control_c, 0, 64, 71
1, 151295, Control_c, 0, 64, 75
1, 151304, Note_off_c, 0, 67, 34
1, 151310, Control_c, 0, 64, 78
1, 151325, Control_c, 0, 64, 80
1, 151340, Control_c, 0, 64, 82
1, 151355, Control_c, 0, 64, 85
1, 151355, Note_off_c, 0, 63, 36
1, 151370, Control_c, 0, 64, 87
1, 151385, Control_c, 0, 64, 88
1, 151400, Control_c, 0, 64, 89
1, 151415, Control_c, 0, 64, 89
1, 151427, Note_off_c, 0, 70, 35
1, 151607, Control_c, 0, 64, 89
1, 151622, Control_c, 0, 64, 88
1, 151636, Control_c, 0, 64, 87
1, 151651, Control_c, 0, 64, 86
1, 151666, Control_c, 0, 64, 85
1, 151680, Control_c, 0, 64, 84
1, 151695, Control_c, 0, 64, 83
1, 151709, Note_on_c, 0, 70, 53
1, 151711, Control_c, 0, 64, 82
1, 151716, Note_on_c, 0, 66, 46
1, 151726, Control_c, 0, 64, 81
1, 151730, Note_on_c, 0, 63, 31
1, 151741, Control_c, 0, 64, 79
1, 151756, Control_c, 0, 64, 78
1, 151771, Control_c, 0, 64, 77
1, 151785, Control_c, 0, 64, 74
1, 151800, Control_c, 0, 64, 69
1, 151815, Control_c, 0, 64, 63
1, 151831, Control_c, 0, 64, 56
1, 151846, Control_c, 0, 64, 46
1, 151860, Control_c, 0, 64, 39
1, 151875, Control_c, 0, 64, 39
1, 151890, Control_c, 0, 64, 41
1, 151904, Control_c, 0, 64, 45
1, 151919, Control_c, 0, 64, 52
1, 151934, Control_c, 0, 64, 59
1, 151938, Note_off_c, 0, 58, 40
1, 151949, Control_c, 0, 64, 66
1, 151957, Note_off_c, 0, 63, 43
1, 151964, Control_c, 0, 64, 74
1, 151978, Control_c, 0, 64, 79
1, 151993, Control_c, 0, 64, 84
1, 152008, Control_c, 0, 64, 92
1, 152031, Control_c, 0, 64, 101
1, 152046, Control_c, 0, 64, 110
1, 152056, Note_off_c, 0, 66, 31
1, 152060, Control_c, 0, 64, 117
1, 152075, Control_c, 0, 64, 122
1, 152193, Control_c, 0, 64, 117
1, 152208, Control_c, 0, 64, 108
1, 152223, Control_c, 0, 64, 98
1, 152238, Control_c, 0, 64, 81
1, 152252, Note_off_c, 0, 70, 38
1, 152253, Control_c, 0, 64, 68
1, 152256, Note_on_c, 0, 66, 62
1, 152256, Note_on_c, 0, 72, 71
1, 152267, Control_c, 0, 64, 60
1, 152273, Note_on_c, 0, 60, 45
1, 152275, Note_on_c, 0, 44, 50
1, 152277, Note_on_c, 0, 56, 44
1, 152282, Control_c, 0, 64, 49
1, 152297, Control_c, 0, 64, 41
1, 152327, Control_c, 0, 64, 45
1, 152342, Control_c, 0, 64, 54
1, 152345, Note_off_c, 0, 51, 39
1, 152357, Control_c, 0, 64, 63
1, 152372, Control_c, 0, 64, 78
1, 152372, Note_off_c, 0, 56, 36
1, 152386, Control_c, 0, 64, 127
1, 152458, Note_off_c, 0, 44, 61
1, 152463, Note_off_c, 0, 60, 62
1, 152463, Note_off_c, 0, 72, 62
1, 152509, Note_off_c, 0, 66, 63
1, 152563, Note_on_c, 0, 37, 62
1, 152643, Note_on_c, 0, 60, 55
1, 152658, Note_off_c, 0, 37, 62
1, 152665, Note_off_c, 0, 60, 61
1, 152715, Note_on_c, 0, 60, 53
1, 152734, Note_off_c, 0, 60, 62
1, 152808, Note_on_c, 0, 66, 64
1, 152897, Note_on_c, 0, 57, 54
1, 152958, Note_on_c, 0, 75, 81
1, 153108, Note_off_c, 0, 57, 58
1, 153125, Note_off_c, 0, 66, 56
1, 153558, Control_c, 0, 64, 110
1, 153561, Note_on_c, 0, 73, 65
1, 153567, Note_on_c, 0, 49, 44
1, 153573, Control_c, 0, 64, 98
1, 153575, Note_on_c, 0, 58, 34
1, 153582, Note_on_c, 0, 65, 43
1, 153588, Control_c, 0, 64, 86
1, 153594, Note_off_c, 0, 75, 59
1, 153603, Control_c, 0, 64, 77
1, 153618, Control_c, 0, 64, 68
1, 153632, Control_c, 0, 64, 60
1, 153647, Control_c, 0, 64, 47
1, 153662, Control_c, 0, 64, 31
1, 153677, Control_c, 0, 64, 16
1, 153721, Control_c, 0, 64, 18
1, 153736, Control_c, 0, 64, 24
1, 153751, Control_c, 0, 64, 31
1, 153765, Control_c, 0, 64, 41
1, 153774, Note_off_c, 0, 65, 60
1, 153780, Control_c, 0, 64, 50
1, 153795, Control_c, 0, 64, 59
1, 153810, Control_c, 0, 64, 66
1, 153811, Note_off_c, 0, 58, 40
1, 153824, Control_c, 0, 64, 73
1, 153839, Control_c, 0, 64, 76
1, 153854, Control_c, 0, 64, 76
1, 153869, Control_c, 0, 64, 77
1, 153883, Control_c, 0, 64, 80
1, 153898, Control_c, 0, 64, 83
1, 153913, Control_c, 0, 64, 85
1, 153928, Control_c, 0, 64, 86
1, 153943, Control_c, 0, 64, 87
1, 154091, Control_c, 0, 64, 86
1, 154106, Control_c, 0, 64, 85
1, 154121, Control_c, 0, 64, 84
1, 154136, Control_c, 0, 64, 83
1, 154151, Control_c, 0, 64, 82
1, 154166, Control_c, 0, 64, 79
1, 154171, Note_on_c, 0, 51, 39
1, 154172, Note_on_c, 0, 67, 52
1, 154175, Note_off_c, 0, 49, 41
1, 154181, Control_c, 0, 64, 76
1, 154183, Note_on_c, 0, 61, 38
1, 154196, Control_c, 0, 64, 72
1, 154206, Note_on_c, 0, 58, 25
1, 154211, Control_c, 0, 64, 66
1, 154226, Control_c, 0, 64, 59
1, 154241, Control_c, 0, 64, 46
1, 154249, Note_off_c, 0, 73, 39
1, 154255, Control_c, 0, 64, 34
1, 154270, Control_c, 0, 64, 24
1, 154292, Control_c, 0, 64, 21
1, 154336, Control_c, 0, 64, 22
1, 154351, Control_c, 0, 64, 28
1, 154365, Note_off_c, 0, 58, 41
1, 154366, Control_c, 0, 64, 35
1, 154375, Note_off_c, 0, 61, 38
1, 154381, Control_c, 0, 64, 44
1, 154396, Control_c, 0, 64, 53
1, 154410, Control_c, 0, 64, 62
1, 154425, Control_c, 0, 64, 69
1, 154440, Control_c, 0, 64, 78
1, 154455, Control_c, 0, 64, 79
1, 154485, Control_c, 0, 64, 79
1, 154500, Control_c, 0, 64, 80
1, 154544, Control_c, 0, 64, 80
1, 154555, Note_off_c, 0, 67, 56
1, 154610, Note_off_c, 0, 51, 44
1, 154706, Control_c, 0, 64, 80
1, 154736, Control_c, 0, 64, 79
1, 154766, Control_c, 0, 64, 79
1, 154780, Control_c, 0, 64, 78
1, 154795, Control_c, 0, 64, 78
1, 154810, Control_c, 0, 64, 77
1, 154825, Control_c, 0, 64, 76
1, 154840, Control_c, 0, 64, 75
1, 154855, Control_c, 0, 64, 75
1, 154870, Control_c, 0, 64, 74
1, 154884, Control_c, 0, 64, 73
1, 154900, Control_c, 0, 64, 72
1, 154915, Control_c, 0, 64, 70
1, 154929, Control_c, 0, 64, 69
1, 154944, Control_c, 0, 64, 67
1, 154959, Control_c, 0, 64, 64
1, 154974, Control_c, 0, 64, 58
1, 154983, Note_on_c, 0, 68, 43
1, 154983, Note_on_c, 0, 44, 30
1, 154989, Control_c, 0, 64, 48
1, 155002, Note_on_c, 0, 60, 24
1, 155004, Control_c, 0, 64, 36
1, 155026, Control_c, 0, 64, 30
1, 155041, Control_c, 0, 64, 29
1, 155056, Control_c, 0, 64, 30
1, 155071, Control_c, 0, 64, 32
1, 155085, Control_c, 0, 64, 38
1, 155100, Control_c, 0, 64, 46
1, 155115, Control_c, 0, 64, 57
1, 155129, Control_c, 0, 64, 64
1, 155144, Control_c, 0, 64, 71
1, 155159, Control_c, 0, 64, 74
1, 155258, Note_off_c, 0, 44, 40
1, 155277, Note_off_c, 0, 60, 42
1, 155278, Control_c, 0, 64, 73
1, 155293, Control_c, 0, 64, 73
1, 155308, Control_c, 0, 64, 71
1, 155323, Control_c, 0, 64, 70
1, 155337, Control_c, 0, 64, 68
1, 155352, Control_c, 0, 64, 66
1, 155367, Control_c, 0, 64, 64
1, 155382, Control_c, 0, 64, 63
1, 155397, Control_c, 0, 64, 61
1, 155405, Note_on_c, 0, 51, 41
1, 155411, Control_c, 0, 64, 59
1, 155426, Control_c, 0, 64, 57
1, 155441, Control_c, 0, 64, 55
1, 155455, Control_c, 0, 64, 53
1, 155466, Note_off_c, 0, 68, 37
1, 155470, Control_c, 0, 64, 52
1, 155485, Control_c, 0, 64, 51
1, 155500, Control_c, 0, 64, 50
1, 155515, Note_off_c, 0, 51, 37
1, 155515, Control_c, 0, 64, 49
1, 155516, Note_on_c, 0, 53, 48
1, 155529, Control_c, 0, 64, 47
1, 155544, Control_c, 0, 64, 46
1, 155559, Control_c, 0, 64, 45
1, 155574, Control_c, 0, 64, 44
1, 155589, Control_c, 0, 64, 43
1, 155591, Note_off_c, 0, 53, 64
1, 155603, Control_c, 0, 64, 42
1, 155618, Control_c, 0, 64, 41
1, 155622, Note_on_c, 0, 55, 51
1, 155633, Control_c, 0, 64, 40
1, 155648, Control_c, 0, 64, 39
1, 155662, Control_c, 0, 64, 37
1, 155677, Control_c, 0, 64, 35
1, 155693, Control_c, 0, 64, 32
1, 155708, Control_c, 0, 64, 30
1, 155719, Note_off_c, 0, 55, 53
1, 155721, Note_on_c, 0, 56, 50
1, 155723, Control_c, 0, 64, 28
1, 155738, Control_c, 0, 64, 25
1, 155752, Control_c, 0, 64, 23
1, 155775, Control_c, 0, 64, 20
1, 155790, Control_c, 0, 64, 16
1, 155805, Control_c, 0, 64, 10
1, 155820, Control_c, 0, 64, 0
1, 155835, Note_off_c, 0, 56, 65
1, 155846, Note_on_c, 0, 58, 58
1, 155938, Note_off_c, 0, 58, 63
1, 155958, Note_on_c, 0, 60, 51
1, 156055, Note_on_c, 0, 65, 52
1, 156073, Note_on_c, 0, 61, 31
1, 156075, Note_off_c, 0, 60, 60
1, 156145, Control_c, 0, 64, 8
1, 156160, Control_c, 0, 64, 23
1, 156163, Note_on_c, 0, 73, 54
1, 156175, Control_c, 0, 64, 33
1, 156190, Control_c, 0, 64, 42
1, 156205, Control_c, 0, 64, 52
1, 156220, Control_c, 0, 64, 61
1, 156234, Control_c, 0, 64, 67
1, 156249, Control_c, 0, 64, 72
1, 156258, Note_off_c, 0, 61, 46
1, 156262, Note_off_c, 0, 73, 61
1, 156273, Note_on_c, 0, 68, 60
1, 156278, Note_off_c, 0, 65, 38
1, 156363, Note_on_c, 0, 70, 54
1, 156366, Note_off_c, 0, 68, 52
1, 156412, Control_c, 0, 64, 71
1, 156426, Control_c, 0, 64, 70
1, 156441, Control_c, 0, 64, 67
1, 156456, Control_c, 0, 64, 63
1, 156470, Control_c, 0, 64, 57
1, 156480, Note_off_c, 0, 70, 57
1, 156485, Control_c, 0, 64, 44
1, 156501, Note_on_c, 0, 72, 57
1, 156501, Control_c, 0, 64, 24
1, 156509, Note_on_c, 0, 63, 45
1, 156524, Control_c, 0, 64, 10
1, 156529, Note_on_c, 0, 44, 24
1, 156533, Note_on_c, 0, 60, 23
1, 156539, Control_c, 0, 64, 10
1, 156554, Control_c, 0, 64, 18
1, 156569, Control_c, 0, 64, 27
1, 156583, Control_c, 0, 64, 37
1, 156598, Control_c, 0, 64, 45
1, 156613, Control_c, 0, 64, 52
1, 156628, Control_c, 0, 64, 54
1, 156643, Control_c, 0, 64, 53
1, 156657, Control_c, 0, 64, 52
1, 156672, Control_c, 0, 64, 51
1, 156687, Control_c, 0, 64, 49
1, 156701, Control_c, 0, 64, 47
1, 156716, Control_c, 0, 64, 45
1, 156731, Control_c, 0, 64, 42
1, 156746, Control_c, 0, 64, 39
1, 156761, Control_c, 0, 64, 37
1, 156767, Note_off_c, 0, 44, 41
1, 156767, Note_off_c, 0, 60, 41
1, 156775, Control_c, 0, 64, 36
1, 156790, Control_c, 0, 64, 32
1, 156792, Note_on_c, 0, 51, 48
1, 156805, Control_c, 0, 64, 29
1, 156818, Note_off_c, 0, 72, 35
1, 156820, Control_c, 0, 64, 27
1, 156835, Control_c, 0, 64, 26
1, 156849, Control_c, 0, 64, 25
1, 156889, Note_off_c, 0, 51, 59
1, 156894, Control_c, 0, 64, 25
1, 156895, Note_on_c, 0, 53, 50
1, 156923, Control_c, 0, 64, 24
1, 156942, Note_off_c, 0, 63, 35
1, 156953, Control_c, 0, 64, 23
1, 156968, Control_c, 0, 64, 22
1, 156971, Note_off_c, 0, 53, 65
1, 156983, Control_c, 0, 64, 22
1, 156998, Note_on_c, 0, 55, 57
1, 156998, Control_c, 0, 64, 21
1, 157013, Control_c, 0, 64, 20
1, 157027, Control_c, 0, 64, 19
1, 157042, Control_c, 0, 64, 19
1, 157057, Control_c, 0, 64, 18
1, 157072, Control_c, 0, 64, 18
1, 157087, Note_off_c, 0, 55, 64
1, 157087, Control_c, 0, 64, 17
1, 157091, Note_on_c, 0, 56, 61
1, 157101, Control_c, 0, 64, 17
1, 157146, Control_c, 0, 64, 16
1, 157189, Note_off_c, 0, 56, 65
1, 157193, Note_on_c, 0, 58, 67
1, 157255, Note_off_c, 0, 58, 64
1, 157296, Note_on_c, 0, 60, 57
1, 157366, Note_off_c, 0, 60, 44
1, 157402, Note_on_c, 0, 61, 50
1, 157406, Control_c, 0, 64, 16
1, 157411, Note_on_c, 0, 63, 43
1, 157415, Note_on_c, 0, 51, 37
1, 157436, Control_c, 0, 64, 15
1, 157450, Control_c, 0, 64, 15
1, 157480, Control_c, 0, 64, 14
1, 157495, Control_c, 0, 64, 14
1, 157502, Note_on_c, 0, 70, 55
1, 157510, Control_c, 0, 64, 13
1, 157522, Note_off_c, 0, 63, 60
1, 157524, Control_c, 0, 64, 12
1, 157539, Control_c, 0, 64, 11
1, 157554, Control_c, 0, 64, 10
1, 157569, Control_c, 0, 64, 9
1, 157584, Control_c, 0, 64, 0
1, 157597, Note_off_c, 0, 70, 62
1, 157611, Note_on_c, 0, 65, 59
1, 157680, Note_off_c, 0, 65, 61
1, 157692, Note_on_c, 0, 67, 59
1, 157778, Note_off_c, 0, 67, 62
1, 157791, Control_c, 0, 64, 16
1, 157793, Note_on_c, 0, 68, 58
1, 157795, Note_on_c, 0, 63, 54
1, 157798, Note_on_c, 0, 44, 43
1, 157806, Control_c, 0, 64, 31
1, 157811, Note_off_c, 0, 51, 44
1, 157819, Control_c, 0, 64, 41
1, 157832, Note_off_c, 0, 44, 54
1, 157834, Control_c, 0, 64, 51
1, 157844, Note_off_c, 0, 63, 60
1, 157848, Control_c, 0, 64, 60
1, 157860, Note_off_c, 0, 68, 58
1, 157863, Control_c, 0, 64, 64
1, 157878, Control_c, 0, 64, 65
1, 157937, Control_c, 0, 64, 65
1, 157952, Control_c, 0, 64, 64
1, 157967, Control_c, 0, 64, 63
1, 157978, Note_off_c, 0, 61, 60
1, 157982, Control_c, 0, 64, 62
1, 157996, Control_c, 0, 64, 59
1, 158011, Control_c, 0, 64, 54
1, 158034, Control_c, 0, 64, 46
1, 158048, Control_c, 0, 64, 38
1, 158057, Note_on_c, 0, 63, 66
1, 158063, Control_c, 0, 64, 29
1, 158077, Note_off_c, 0, 63, 69
1, 158078, Control_c, 0, 64, 20
1, 158093, Control_c, 0, 64, 8
1, 158109, Control_c, 0, 64, 0
1, 158120, Note_on_c, 0, 60, 38
1, 158146, Note_on_c, 0, 63, 64
1, 158168, Note_off_c, 0, 63, 64
1, 158213, Note_off_c, 0, 60, 38
1, 158228, Note_on_c, 0, 58, 57
1, 158229, Note_on_c, 0, 63, 71
1, 158253, Note_off_c, 0, 63, 69
1, 158325, Note_off_c, 0, 58, 63
1, 158347, Note_on_c, 0, 56, 55
1, 158412, Note_off_c, 0, 56, 64
1, 158433, Note_on_c, 0, 63, 63
1, 158442, Note_on_c, 0, 55, 62
1, 158453, Note_off_c, 0, 63, 65
1, 158482, Note_off_c, 0, 55, 61
1, 158534, Note_on_c, 0, 53, 54
1, 158638, Note_off_c, 0, 53, 61
1, 158664, Note_on_c, 0, 51, 41
1, 158679, Note_on_c, 0, 61, 41
1, 158679, Note_on_c, 0, 63, 40
1, 158789, Note_on_c, 0, 70, 55
1, 158795, Note_off_c, 0, 63, 57
1, 158876, Note_off_c, 0, 70, 61
1, 158891, Note_on_c, 0, 65, 58
1, 158961, Note_off_c, 0, 65, 58
1, 158965, Note_on_c, 0, 67, 59
1, 159061, Note_off_c, 0, 51, 48
1, 159064, Note_off_c, 0, 67, 62
1, 159079, Note_on_c, 0, 44, 46
1, 159085, Note_on_c, 0, 68, 55
1, 159086, Note_on_c, 0, 63, 45
1, 159095, Control_c, 0, 64, 8
1, 159110, Control_c, 0, 64, 27
1, 159122, Note_off_c, 0, 44, 61
1, 159124, Note_off_c, 0, 63, 66
1, 159125, Control_c, 0, 64, 40
1, 159139, Note_off_c, 0, 68, 58
1, 159140, Control_c, 0, 64, 50
1, 159155, Control_c, 0, 64, 58
1, 159169, Control_c, 0, 64, 62
1, 159184, Control_c, 0, 64, 64
1, 159258, Control_c, 0, 64, 64
1, 159262, Note_off_c, 0, 61, 57
1, 159273, Control_c, 0, 64, 63
1, 159288, Control_c, 0, 64, 62
1, 159302, Control_c, 0, 64, 59
1, 159317, Control_c, 0, 64, 55
1, 159319, Note_on_c, 0, 63, 70
1, 159332, Control_c, 0, 64, 49
1, 159339, Note_off_c, 0, 63, 68
1, 159347, Control_c, 0, 64, 42
1, 159362, Control_c, 0, 64, 35
1, 159377, Control_c, 0, 64, 28
1, 159392, Control_c, 0, 64, 19
1, 159392, Note_on_c, 0, 60, 45
1, 159403, Note_on_c, 0, 63, 71
1, 159406, Control_c, 0, 64, 0
1, 159426, Note_off_c, 0, 63, 69
1, 159475, Note_off_c, 0, 60, 58
1, 159486, Note_on_c, 0, 63, 73
1, 159499, Note_on_c, 0, 58, 57
1, 159521, Note_off_c, 0, 63, 68
1, 159591, Note_off_c, 0, 58, 63
1, 159611, Note_on_c, 0, 56, 55
1, 159680, Note_off_c, 0, 56, 66
1, 159698, Note_on_c, 0, 63, 74
1, 159716, Note_on_c, 0, 55, 58
1, 159722, Note_off_c, 0, 63, 71
1, 159758, Note_off_c, 0, 55, 59
1, 159803, Note_on_c, 0, 53, 45
1, 159916, Note_off_c, 0, 53, 58
1, 159946, Note_on_c, 0, 63, 47
1, 159949, Note_on_c, 0, 51, 41
1, 159953, Note_on_c, 0, 61, 35
1, 160007, Control_c, 0, 64, 10
1, 160022, Control_c, 0, 64, 15
1, 160037, Control_c, 0, 64, 19
1, 160050, Note_off_c, 0, 63, 65
1, 160051, Control_c, 0, 64, 22
1, 160059, Note_on_c, 0, 70, 55
1, 160066, Control_c, 0, 64, 26
1, 160081, Control_c, 0, 64, 31
1, 160096, Control_c, 0, 64, 37
1, 160111, Control_c, 0, 64, 43
1, 160125, Control_c, 0, 64, 48
1, 160140, Control_c, 0, 64, 51
1, 160155, Control_c, 0, 64, 53
1, 160170, Control_c, 0, 64, 56
1, 160185, Control_c, 0, 64, 59
1, 160187, Note_on_c, 0, 65, 63
1, 160199, Control_c, 0, 64, 62
1, 160201, Note_off_c, 0, 70, 53
1, 160214, Control_c, 0, 64, 64
1, 160229, Control_c, 0, 64, 65
1, 160244, Control_c, 0, 64, 65
1, 160259, Control_c, 0, 64, 66
1, 160281, Control_c, 0, 64, 66
1, 160296, Control_c, 0, 64, 67
1, 160311, Control_c, 0, 64, 69
1, 160325, Control_c, 0, 64, 70
1, 160332, Note_off_c, 0, 65, 62
1, 160335, Note_on_c, 0, 67, 61
1, 160340, Control_c, 0, 64, 71
1, 160405, Note_off_c, 0, 61, 35
1, 160459, Control_c, 0, 64, 70
1, 160474, Control_c, 0, 64, 69
1, 160483, Note_on_c, 0, 44, 41
1, 160489, Control_c, 0, 64, 68
1, 160497, Note_off_c, 0, 51, 40
1, 160504, Control_c, 0, 64, 67
1, 160519, Control_c, 0, 64, 64
1, 160534, Control_c, 0, 64, 61
1, 160548, Control_c, 0, 64, 52
1, 160559, Note_on_c, 0, 70, 59
1, 160563, Control_c, 0, 64, 37
1, 160577, Note_on_c, 0, 61, 28
1, 160578, Note_on_c, 0, 63, 50
1, 160578, Control_c, 0, 64, 23
1, 160593, Control_c, 0, 64, 16
1, 160608, Control_c, 0, 64, 14
1, 160628, Note_off_c, 0, 67, 37
1, 160638, Control_c, 0, 64, 15
1, 160652, Control_c, 0, 64, 22
1, 160667, Control_c, 0, 64, 30
1, 160682, Control_c, 0, 64, 39
1, 160697, Control_c, 0, 64, 48
1, 160712, Control_c, 0, 64, 58
1, 160727, Control_c, 0, 64, 64
1, 160741, Control_c, 0, 64, 69
1, 160756, Control_c, 0, 64, 70
1, 160771, Control_c, 0, 64, 70
1, 160786, Control_c, 0, 64, 71
1, 160801, Control_c, 0, 64, 72
1, 160814, Control_c, 0, 64, 73
1, 160829, Control_c, 0, 64, 73
1, 160837, Note_on_c, 0, 72, 64
1, 160980, Note_off_c, 0, 70, 35
1, 160998, Note_on_c, 0, 51, 36
1, 161069, Note_on_c, 0, 67, 62
1, 161085, Note_off_c, 0, 72, 63
1, 161147, Control_c, 0, 64, 73
1, 161168, Note_off_c, 0, 51, 62
1, 161207, Note_on_c, 0, 53, 43
1, 161281, Control_c, 0, 64, 72
1, 161341, Control_c, 0, 64, 72
1, 161370, Note_off_c, 0, 53, 45
1, 161372, Note_on_c, 0, 51, 34
1, 161377, Note_on_c, 0, 70, 63
1, 161386, Control_c, 0, 64, 71
1, 161415, Control_c, 0, 64, 71
1, 161430, Control_c, 0, 64, 70
1, 161445, Control_c, 0, 64, 70
1, 161460, Control_c, 0, 64, 69
1, 161475, Control_c, 0, 64, 69
1, 161488, Note_off_c, 0, 67, 36
1, 161489, Control_c, 0, 64, 68
1, 161504, Control_c, 0, 64, 66
1, 161505, Note_off_c, 0, 51, 54
1, 161519, Control_c, 0, 64, 64
1, 161532, Note_on_c, 0, 53, 41
1, 161534, Control_c, 0, 64, 63
1, 161549, Control_c, 0, 64, 63
1, 161597, Note_off_c, 0, 53, 60
1, 161609, Control_c, 0, 64, 62
1, 161610, Note_off_c, 0, 61, 43
1, 161632, Note_on_c, 0, 51, 56
1, 161638, Control_c, 0, 64, 62
1, 161653, Control_c, 0, 64, 61
1, 161668, Control_c, 0, 64, 60
1, 161683, Control_c, 0, 64, 59
1, 161697, Control_c, 0, 64, 58
1, 161699, Note_off_c, 0, 51, 58
1, 161712, Control_c, 0, 64, 58
1, 161727, Control_c, 0, 64, 57
1, 161738, Note_on_c, 0, 53, 46
1, 161742, Control_c, 0, 64, 57
1, 161779, Control_c, 0, 64, 56
1, 161794, Control_c, 0, 64, 54
1, 161803, Note_off_c, 0, 53, 57
1, 161809, Control_c, 0, 64, 50
1, 161823, Control_c, 0, 64, 44
1, 161838, Control_c, 0, 64, 34
1, 161842, Note_on_c, 0, 51, 49
1, 161848, Note_on_c, 0, 68, 51
1, 161851, Note_off_c, 0, 63, 44
1, 161853, Control_c, 0, 64, 22
1, 161868, Control_c, 0, 64, 9
1, 161870, Note_on_c, 0, 60, 24
1, 161879, Note_off_c, 0, 70, 55
1, 161883, Control_c, 0, 64, 0
1, 161904, Note_off_c, 0, 51, 60
1, 161912, Control_c, 0, 64, 14
1, 161927, Control_c, 0, 64, 23
1, 161942, Control_c, 0, 64, 31
1, 161946, Note_on_c, 0, 53, 42
1, 161957, Control_c, 0, 64, 37
1, 161971, Control_c, 0, 64, 42
1, 161986, Control_c, 0, 64, 45
1, 162001, Control_c, 0, 64, 47
1, 162015, Control_c, 0, 64, 47
1, 162035, Note_off_c, 0, 44, 40
1, 162045, Note_on_c, 0, 51, 53
1, 162067, Note_off_c, 0, 60, 40
1, 162091, Control_c, 0, 64, 47
1, 162092, Note_off_c, 0, 53, 29
1, 162116, Note_off_c, 0, 68, 45
1, 162120, Control_c, 0, 64, 46
1, 162135, Control_c, 0, 64, 46
1, 162145, Note_off_c, 0, 51, 61
1, 162150, Control_c, 0, 64, 45
1, 162165, Control_c, 0, 64, 44
1, 162179, Note_on_c, 0, 46, 48
1, 162180, Control_c, 0, 64, 44
1, 162194, Control_c, 0, 64, 43
1, 162209, Control_c, 0, 64, 41
1, 162224, Control_c, 0, 64, 39
1, 162238, Control_c, 0, 64, 37
1, 162253, Control_c, 0, 64, 35
1, 162258, Note_off_c, 0, 46, 61
1, 162268, Control_c, 0, 64, 33
1, 162283, Control_c, 0, 64, 31
1, 162286, Note_on_c, 0, 44, 43
1, 162298, Control_c, 0, 64, 30
1, 162313, Control_c, 0, 64, 29
1, 162328, Control_c, 0, 64, 28
1, 162343, Control_c, 0, 64, 26
1, 162358, Control_c, 0, 64, 25
1, 162372, Control_c, 0, 64, 24
1, 162381, Note_on_c, 0, 61, 51
1, 162387, Control_c, 0, 64, 23
1, 162390, Note_on_c, 0, 49, 45
1, 162402, Control_c, 0, 64, 22
1, 162408, Note_off_c, 0, 44, 46
1, 162417, Control_c, 0, 64, 22
1, 162432, Control_c, 0, 64, 21
1, 162446, Control_c, 0, 64, 20
1, 162456, Note_off_c, 0, 49, 63
1, 162461, Control_c, 0, 64, 19
1, 162462, Note_off_c, 0, 61, 62
1, 162476, Control_c, 0, 64, 18
1, 162488, Note_on_c, 0, 48, 50
1, 162490, Note_on_c, 0, 60, 45
1, 162491, Control_c, 0, 64, 18
1, 162506, Control_c, 0, 64, 17
1, 162527, Control_c, 0, 64, 16
1, 162542, Control_c, 0, 64, 16
1, 162572, Control_c, 0, 64, 15
1, 162580, Note_off_c, 0, 60, 57
1, 162581, Note_on_c, 0, 44, 47
1, 162587, Control_c, 0, 64, 15
1, 162591, Note_off_c, 0, 48, 53
1, 162602, Control_c, 0, 64, 14
1, 162632, Control_c, 0, 64, 14
1, 162661, Control_c, 0, 64, 13
1, 162676, Control_c, 0, 64, 13
1, 162682, Note_off_c, 0, 44, 57
1, 162691, Control_c, 0, 64, 12
1, 162691, Note_on_c, 0, 43, 59
1, 162706, Control_c, 0, 64, 12
1, 162720, Control_c, 0, 64, 11
1, 162735, Control_c, 0, 64, 10
1, 162750, Control_c, 0, 64, 8
1, 162764, Control_c, 0, 64, 0
1, 162793, Note_off_c, 0, 43, 59
1, 162795, Note_on_c, 0, 49, 55
1, 162808, Note_on_c, 0, 61, 54
1, 162869, Note_off_c, 0, 49, 64
1, 162894, Note_on_c, 0, 48, 57
1, 162905, Note_off_c, 0, 61, 62
1, 162907, Note_on_c, 0, 60, 56
1, 162998, Note_on_c, 0, 43, 58
1, 163107, Note_off_c, 0, 43, 57
1, 163109, Note_on_c, 0, 41, 56
1, 163150, Note_off_c, 0, 48, 20
1, 163159, Note_off_c, 0, 60, 49
1, 163201, Note_on_c, 0, 49, 51
1, 163208, Note_on_c, 0, 61, 58
1, 163228, Note_off_c, 0, 41, 60
1, 163273, Note_off_c, 0, 49, 62
1, 163310, Note_off_c, 0, 61, 58
1, 163313, Note_on_c, 0, 48, 48
1, 163329, Note_on_c, 0, 60, 48
1, 163336, Control_c, 0, 64, 17
1, 163350, Control_c, 0, 64, 29
1, 163365, Control_c, 0, 64, 40
1, 163380, Control_c, 0, 64, 51
1, 163382, Note_off_c, 0, 60, 63
1, 163395, Control_c, 0, 64, 61
1, 163410, Control_c, 0, 64, 66
1, 163425, Note_on_c, 0, 62, 56
1, 163425, Control_c, 0, 64, 69
1, 163431, Note_off_c, 0, 48, 36
1, 163433, Note_on_c, 0, 41, 40
1, 163440, Control_c, 0, 64, 69
1, 163455, Control_c, 0, 64, 70
1, 163469, Control_c, 0, 64, 72
1, 163484, Control_c, 0, 64, 73
1, 163499, Control_c, 0, 64, 74
1, 163508, Note_off_c, 0, 62, 50
1, 163514, Control_c, 0, 64, 76
1, 163529, Control_c, 0, 64, 77
1, 163538, Note_on_c, 0, 55, 57
1, 163543, Control_c, 0, 64, 78
1, 163558, Control_c, 0, 64, 79
1, 163573, Control_c, 0, 64, 80
1, 163597, Note_off_c, 0, 55, 45
1, 163638, Note_on_c, 0, 64, 50
1, 163675, Note_off_c, 0, 64, 63
1, 163742, Note_off_c, 0, 41, 43
1, 163766, Control_c, 0, 64, 79
1, 163770, Note_on_c, 0, 36, 42
1, 163781, Control_c, 0, 64, 79
1, 163796, Control_c, 0, 64, 78
1, 163810, Control_c, 0, 64, 76
1, 163825, Control_c, 0, 64, 72
1, 163840, Control_c, 0, 64, 65
1, 163855, Control_c, 0, 64, 57
1, 163870, Control_c, 0, 64, 42
1, 163884, Control_c, 0, 64, 21
1, 163886, Note_on_c, 0, 72, 51
1, 163899, Control_c, 0, 64, 11
1, 163914, Control_c, 0, 64, 15
1, 163929, Control_c, 0, 64, 26
1, 163944, Control_c, 0, 64, 36
1, 163958, Control_c, 0, 64, 46
1, 163973, Control_c, 0, 64, 56
1, 163988, Control_c, 0, 64, 63
1, 164010, Control_c, 0, 64, 64
1, 164025, Control_c, 0, 64, 64
1, 164040, Control_c, 0, 64, 63
1, 164055, Control_c, 0, 64, 62
1, 164070, Control_c, 0, 64, 61
1, 164084, Control_c, 0, 64, 60
1, 164099, Control_c, 0, 64, 59
1, 164114, Control_c, 0, 64, 58
1, 164129, Control_c, 0, 64, 57
1, 164138, Note_off_c, 0, 72, 36
1, 164144, Control_c, 0, 64, 56
1, 164158, Note_on_c, 0, 43, 47
1, 164158, Control_c, 0, 64, 55
1, 164170, Note_off_c, 0, 36, 40
1, 164173, Control_c, 0, 64, 54
1, 164188, Control_c, 0, 64, 53
1, 164203, Control_c, 0, 64, 52
1, 164218, Control_c, 0, 64, 52
1, 164225, Note_off_c, 0, 43, 60
1, 164233, Control_c, 0, 64, 51
1, 164247, Control_c, 0, 64, 50
1, 164256, Note_on_c, 0, 45, 51
1, 164262, Control_c, 0, 64, 50
1, 164277, Control_c, 0, 64, 49
1, 164292, Control_c, 0, 64, 48
1, 164307, Control_c, 0, 64, 48
1, 164322, Control_c, 0, 64, 47
1, 164337, Control_c, 0, 64, 46
1, 164345, Note_off_c, 0, 45, 58
1, 164349, Note_on_c, 0, 47, 54
1, 164352, Control_c, 0, 64, 45
1, 164366, Control_c, 0, 64, 45
1, 164381, Control_c, 0, 64, 44
1, 164396, Control_c, 0, 64, 43
1, 164410, Control_c, 0, 64, 42
1, 164425, Control_c, 0, 64, 40
1, 164440, Control_c, 0, 64, 39
1, 164447, Note_on_c, 0, 48, 62
1, 164447, Note_off_c, 0, 47, 61
1, 164455, Control_c, 0, 64, 37
1, 164470, Control_c, 0, 64, 35
1, 164486, Control_c, 0, 64, 34
1, 164501, Control_c, 0, 64, 32
1, 164515, Control_c, 0, 64, 31
1, 164522, Note_off_c, 0, 48, 64
1, 164530, Control_c, 0, 64, 29
1, 164543, Note_on_c, 0, 50, 60
1, 164545, Control_c, 0, 64, 28
1, 164560, Control_c, 0, 64, 27
1, 164575, Control_c, 0, 64, 26
1, 164589, Control_c, 0, 64, 26
1, 164604, Control_c, 0, 64, 25
1, 164612, Note_off_c, 0, 50, 59
1, 164619, Control_c, 0, 64, 25
1, 164623, Note_on_c, 0, 52, 66
1, 164633, Control_c, 0, 64, 24
1, 164648, Control_c, 0, 64, 23
1, 164663, Control_c, 0, 64, 22
1, 164678, Control_c, 0, 64, 20
1, 164693, Control_c, 0, 64, 17
1, 164707, Control_c, 0, 64, 0
1, 164724, Note_off_c, 0, 52, 63
1, 164751, Note_on_c, 0, 56, 63
1, 164764, Note_on_c, 0, 53, 44
1, 164859, Note_on_c, 0, 68, 64
1, 164878, Control_c, 0, 64, 25
1, 164893, Control_c, 0, 64, 37
1, 164908, Control_c, 0, 64, 48
1, 164919, Note_off_c, 0, 53, 64
1, 164922, Control_c, 0, 64, 60
1, 164937, Control_c, 0, 64, 68
1, 164950, Note_on_c, 0, 60, 64
1, 164952, Control_c, 0, 64, 74
1, 164999, Note_off_c, 0, 68, 36
1, 165023, Note_off_c, 0, 56, 63
1, 165040, Control_c, 0, 64, 73
1, 165055, Control_c, 0, 64, 72
1, 165058, Note_on_c, 0, 62, 53
1, 165070, Control_c, 0, 64, 71
1, 165085, Control_c, 0, 64, 69
1, 165100, Control_c, 0, 64, 68
1, 165115, Control_c, 0, 64, 66
1, 165130, Control_c, 0, 64, 63
1, 165145, Control_c, 0, 64, 57
1, 165159, Control_c, 0, 64, 45
1, 165160, Note_off_c, 0, 60, 51
1, 165172, Note_off_c, 0, 62, 52
1, 165174, Control_c, 0, 64, 28
1, 165189, Control_c, 0, 64, 0
1, 165214, Note_on_c, 0, 67, 51
1, 165218, Note_on_c, 0, 64, 43
1, 165229, Note_on_c, 0, 36, 33
1, 165242, Note_on_c, 0, 55, 8
1, 165294, Control_c, 0, 64, 11
1, 165309, Control_c, 0, 64, 20
1, 165324, Control_c, 0, 64, 29
1, 165338, Control_c, 0, 64, 37
1, 165353, Control_c, 0, 64, 43
1, 165368, Control_c, 0, 64, 47
1, 165383, Control_c, 0, 64, 52
1, 165398, Control_c, 0, 64, 57
1, 165412, Control_c, 0, 64, 60
1, 165427, Control_c, 0, 64, 61
1, 165465, Note_off_c, 0, 55, 43
1, 165471, Control_c, 0, 64, 61
1, 165476, Note_on_c, 0, 43, 47
1, 165486, Control_c, 0, 64, 60
1, 165501, Control_c, 0, 64, 57
1, 165504, Note_off_c, 0, 36, 40
1, 165523, Control_c, 0, 64, 53
1, 165532, Note_off_c, 0, 67, 36
1, 165538, Control_c, 0, 64, 49
1, 165545, Note_off_c, 0, 43, 60
1, 165553, Control_c, 0, 64, 45
1, 165568, Control_c, 0, 64, 43
1, 165583, Control_c, 0, 64, 43
1, 165584, Note_on_c, 0, 45, 45
1, 165612, Control_c, 0, 64, 44
1, 165627, Control_c, 0, 64, 50
1, 165642, Control_c, 0, 64, 55
1, 165657, Control_c, 0, 64, 58
1, 165671, Control_c, 0, 64, 55
1, 165681, Note_on_c, 0, 47, 50
1, 165683, Note_off_c, 0, 45, 55
1, 165686, Control_c, 0, 64, 50
1, 165693, Note_off_c, 0, 64, 40
1, 165701, Control_c, 0, 64, 44
1, 165716, Control_c, 0, 64, 38
1, 165731, Control_c, 0, 64, 32
1, 165745, Control_c, 0, 64, 24
1, 165760, Control_c, 0, 64, 12
1, 165774, Note_off_c, 0, 47, 57
1, 165775, Control_c, 0, 64, 0
1, 165786, Note_on_c, 0, 48, 47
1, 165819, Control_c, 0, 67, 9
1, 165834, Control_c, 0, 67, 15
1, 165849, Control_c, 0, 67, 25
1, 165851, Note_off_c, 0, 48, 47
1, 165863, Control_c, 0, 67, 39
1, 165869, Note_on_c, 0, 50, 55
1, 165878, Control_c, 0, 67, 55
1, 165893, Control_c, 0, 67, 70
1, 165908, Control_c, 0, 67, 83
1, 165923, Control_c, 0, 67, 95
1, 165937, Note_off_c, 0, 50, 51
1, 165938, Control_c, 0, 67, 109
1, 165953, Control_c, 0, 67, 122
1, 165967, Note_on_c, 0, 52, 56
1, 165967, Control_c, 0, 67, 127
1, 166051, Note_off_c, 0, 52, 63
1, 166084, Note_on_c, 0, 53, 46
1, 166087, Note_on_c, 0, 56, 58
1, 166161, Control_c, 0, 64, 14
1, 166176, Control_c, 0, 64, 27
1, 166191, Control_c, 0, 64, 38
1, 166194, Note_on_c, 0, 65, 50
1, 166205, Control_c, 0, 64, 48
1, 166220, Control_c, 0, 64, 57
1, 166235, Control_c, 0, 64, 63
1, 166250, Control_c, 0, 64, 65
1, 166272, Control_c, 0, 64, 65
1, 166273, Note_off_c, 0, 53, 63
1, 166296, Note_off_c, 0, 65, 58
1, 166303, Note_on_c, 0, 60, 56
1, 166361, Control_c, 0, 64, 65
1, 166373, Note_off_c, 0, 60, 62
1, 166376, Control_c, 0, 64, 64
1, 166383, Note_on_c, 0, 62, 61
1, 166391, Control_c, 0, 64, 60
1, 166406, Note_off_c, 0, 56, 52
1, 166406, Control_c, 0, 64, 51
1, 166420, Control_c, 0, 64, 36
1, 166435, Control_c, 0, 64, 15
1, 166450, Control_c, 0, 64, 0
1, 166479, Note_off_c, 0, 62, 63
1, 166480, Control_c, 0, 64, 14
1, 166494, Control_c, 0, 64, 24
1, 166500, Note_on_c, 0, 36, 48
1, 166502, Note_on_c, 0, 64, 56
1, 166505, Note_on_c, 0, 60, 46
1, 166509, Control_c, 0, 64, 34
1, 166524, Control_c, 0, 64, 43
1, 166534, Note_off_c, 0, 36, 63
1, 166539, Control_c, 0, 64, 50
1, 166546, Note_off_c, 0, 60, 63
1, 166554, Control_c, 0, 64, 55
1, 166568, Control_c, 0, 64, 57
1, 166583, Control_c, 0, 64, 57
1, 166598, Control_c, 0, 64, 56
1, 166612, Control_c, 0, 64, 56
1, 166627, Control_c, 0, 64, 55
1, 166642, Control_c, 0, 64, 53
1, 166657, Control_c, 0, 64, 51
1, 166671, Note_off_c, 0, 64, 59
1, 166672, Control_c, 0, 64, 49
1, 166686, Control_c, 0, 64, 48
1, 166701, Control_c, 0, 64, 46
1, 166716, Control_c, 0, 64, 43
1, 166731, Control_c, 0, 64, 41
1, 166746, Control_c, 0, 64, 37
1, 166755, Note_on_c, 0, 60, 69
1, 166760, Control_c, 0, 64, 31
1, 166775, Control_c, 0, 64, 25
1, 166781, Note_off_c, 0, 60, 66
1, 166790, Control_c, 0, 64, 14
1, 166805, Control_c, 0, 64, 0
1, 166824, Note_on_c, 0, 55, 51
1, 166838, Note_on_c, 0, 60, 68
1, 166863, Note_off_c, 0, 60, 70
1, 166912, Note_off_c, 0, 55, 38
1, 166933, Note_on_c, 0, 53, 56
1, 166938, Note_on_c, 0, 60, 54
1, 166960, Note_off_c, 0, 60, 61
1, 166996, Note_off_c, 0, 53, 59
1, 167063, Note_on_c, 0, 52, 20
1, 167100, Note_off_c, 0, 52, 56
1, 167143, Note_on_c, 0, 60, 44
1, 167148, Note_on_c, 0, 48, 57
1, 167193, Note_off_c, 0, 48, 58
1, 167230, Note_on_c, 0, 43, 63
1, 167307, Note_off_c, 0, 43, 59
1, 167331, Note_on_c, 0, 41, 45
1, 167333, Note_off_c, 0, 60, 55
1, 167336, Note_on_c, 0, 56, 56
1, 167429, Note_on_c, 0, 64, 56
1, 167515, Note_off_c, 0, 64, 62
1, 167526, Note_on_c, 0, 60, 64
1, 167584, Note_off_c, 0, 60, 63
1, 167601, Note_on_c, 0, 62, 60
1, 167602, Note_off_c, 0, 56, 58
1, 167613, Note_on_c, 0, 59, 52
1, 167681, Note_off_c, 0, 41, 61
1, 167698, Note_off_c, 0, 62, 57
1, 167701, Note_off_c, 0, 59, 52
1, 167718, Control_c, 0, 64, 23
1, 167721, Note_on_c, 0, 36, 51
1, 167724, Note_on_c, 0, 64, 61
1, 167733, Note_on_c, 0, 60, 32
1, 167733, Control_c, 0, 64, 36
1, 167756, Control_c, 0, 64, 47
1, 167757, Note_off_c, 0, 36, 59
1, 167770, Note_off_c, 0, 60, 50
1, 167771, Control_c, 0, 64, 57
1, 167783, Note_off_c, 0, 64, 58
1, 167785, Control_c, 0, 64, 62
1, 167800, Control_c, 0, 64, 65
1, 167904, Control_c, 0, 64, 64
1, 167919, Control_c, 0, 64, 64
1, 167933, Control_c, 0, 64, 63
1, 167948, Control_c, 0, 64, 61
1, 167963, Control_c, 0, 64, 57
1, 167965, Note_on_c, 0, 60, 71
1, 167977, Control_c, 0, 64, 51
1, 167980, Note_off_c, 0, 60, 68
1, 167992, Control_c, 0, 64, 41
1, 168007, Control_c, 0, 64, 26
1, 168022, Control_c, 0, 64, 10
1, 168030, Note_on_c, 0, 55, 63
1, 168037, Control_c, 0, 64, 0
1, 168042, Note_on_c, 0, 60, 73
1, 168063, Note_off_c, 0, 60, 70
1, 168123, Note_off_c, 0, 55, 59
1, 168129, Note_on_c, 0, 60, 64
1, 168132, Note_on_c, 0, 53, 62
1, 168152, Note_off_c, 0, 60, 70
1, 168201, Note_off_c, 0, 53, 60
1, 168222, Note_on_c, 0, 52, 63
1, 168290, Note_off_c, 0, 52, 63
1, 168325, Note_on_c, 0, 60, 65
1, 168328, Note_on_c, 0, 48, 60
1, 168373, Note_off_c, 0, 48, 60
1, 168424, Note_on_c, 0, 43, 62
1, 168514, Note_off_c, 0, 43, 58
1, 168538, Note_off_c, 0, 60, 59
1, 168540, Note_on_c, 0, 41, 42
1, 168546, Note_on_c, 0, 56, 58
1, 168663, Note_on_c, 0, 64, 61
1, 168728, Control_c, 0, 64, 11
1, 168743, Control_c, 0, 64, 20
1, 168757, Control_c, 0, 64, 26
1, 168767, Note_off_c, 0, 64, 61
1, 168772, Control_c, 0, 64, 32
1, 168773, Note_on_c, 0, 60, 59
1, 168787, Control_c, 0, 64, 38
1, 168801, Control_c, 0, 64, 44
1, 168816, Control_c, 0, 64, 51
1, 168831, Control_c, 0, 64, 57
1, 168846, Control_c, 0, 64, 60
1, 168855, Note_off_c, 0, 60, 61
1, 168861, Control_c, 0, 64, 62
1, 168877, Note_on_c, 0, 62, 55
1, 168884, Note_on_c, 0, 59, 56
1, 168885, Note_off_c, 0, 56, 60
1, 168964, Control_c, 0, 64, 61
1, 168979, Control_c, 0, 64, 61
1, 168994, Control_c, 0, 64, 60
1, 169008, Control_c, 0, 64, 59
1, 169023, Control_c, 0, 64, 57
1, 169038, Control_c, 0, 64, 55
1, 169053, Control_c, 0, 64, 53
1, 169059, Note_off_c, 0, 41, 41
1, 169068, Control_c, 0, 64, 48
1, 169076, Note_off_c, 0, 62, 43
1, 169082, Control_c, 0, 64, 42
1, 169097, Note_off_c, 0, 59, 49
1, 169097, Control_c, 0, 64, 31
1, 169112, Control_c, 0, 64, 13
1, 169126, Control_c, 0, 64, 0
1, 169141, Note_on_c, 0, 36, 43
1, 169142, Note_on_c, 0, 64, 55
1, 169144, Note_on_c, 0, 55, 42
1, 169163, Note_on_c, 0, 60, 31
1, 169213, Note_off_c, 0, 55, 55
1, 169230, Control_c, 0, 64, 25
1, 169245, Control_c, 0, 64, 38
1, 169258, Note_off_c, 0, 36, 55
1, 169267, Control_c, 0, 64, 48
1, 169283, Control_c, 0, 64, 57
1, 169297, Note_off_c, 0, 60, 40
1, 169298, Control_c, 0, 64, 63
1, 169309, Note_off_c, 0, 64, 60
1, 169312, Control_c, 0, 64, 67
1, 169327, Control_c, 0, 64, 69
1, 169342, Control_c, 0, 64, 70
1, 169357, Control_c, 0, 64, 70
1, 169372, Control_c, 0, 64, 71
1, 169547, Note_on_c, 0, 64, 47
1, 169554, Note_on_c, 0, 61, 49
1, 169557, Note_on_c, 0, 55, 47
1, 169566, Note_on_c, 0, 58, 32
1, 169605, Note_off_c, 0, 55, 64
1, 169628, Note_off_c, 0, 61, 64
1, 169630, Note_off_c, 0, 64, 57
1, 169637, Note_on_c, 0, 65, 61
1, 169643, Note_on_c, 0, 56, 52
1, 169705, Note_off_c, 0, 58, 40
1, 169707, Note_off_c, 0, 56, 58
1, 169718, Note_off_c, 0, 65, 63
1, 169734, Note_on_c, 0, 55, 42
1, 169744, Note_on_c, 0, 64, 52
1, 169749, Note_on_c, 0, 61, 58
1, 169798, Note_off_c, 0, 55, 61
1, 169817, Note_on_c, 0, 48, 55
1, 169817, Note_off_c, 0, 64, 60
1, 169832, Note_off_c, 0, 61, 65
1, 169840, Note_on_c, 0, 68, 62
1, 169855, Note_off_c, 0, 48, 60
1, 169875, Control_c, 0, 64, 70
1, 169898, Note_off_c, 0, 68, 59
1, 169905, Control_c, 0, 64, 69
1, 169920, Control_c, 0, 64, 69
1, 169935, Control_c, 0, 64, 67
1, 169940, Note_on_c, 0, 58, 60
1, 169949, Note_on_c, 0, 64, 55
1, 169949, Control_c, 0, 64, 62
1, 169955, Note_on_c, 0, 67, 54
1, 169964, Control_c, 0, 64, 52
1, 169979, Control_c, 0, 64, 35
1, 169990, Note_on_c, 0, 61, 3
1, 169994, Control_c, 0, 64, 12
1, 170016, Note_off_c, 0, 58, 63
1, 170016, Control_c, 0, 64, 0
1, 170040, Note_on_c, 0, 68, 66
1, 170044, Note_on_c, 0, 60, 57
1, 170045, Note_off_c, 0, 64, 62
1, 170047, Note_off_c, 0, 67, 60
1, 170059, Note_off_c, 0, 61, 39
1, 170060, Control_c, 0, 64, 14
1, 170075, Control_c, 0, 64, 26
1, 170091, Control_c, 0, 64, 38
1, 170106, Control_c, 0, 64, 49
1, 170121, Control_c, 0, 64, 61
1, 170123, Note_off_c, 0, 60, 57
1, 170131, Note_off_c, 0, 68, 57
1, 170135, Control_c, 0, 64, 67
1, 170137, Note_on_c, 0, 67, 57
1, 170138, Note_on_c, 0, 58, 60
1, 170145, Note_on_c, 0, 64, 50
1, 170150, Control_c, 0, 64, 73
1, 170165, Control_c, 0, 64, 74
1, 170179, Control_c, 0, 64, 74
1, 170193, Note_off_c, 0, 58, 60
1, 170194, Control_c, 0, 64, 75
1, 170196, Note_off_c, 0, 64, 51
1, 170197, Note_off_c, 0, 67, 60
1, 170209, Control_c, 0, 64, 75
1, 170225, Note_on_c, 0, 48, 54
1, 170236, Note_on_c, 0, 72, 61
1, 170250, Note_off_c, 0, 48, 59
1, 170269, Control_c, 0, 64, 76
1, 170311, Note_off_c, 0, 72, 56
1, 170326, Note_on_c, 0, 61, 63
1, 170340, Note_on_c, 0, 70, 60
1, 170346, Note_on_c, 0, 67, 49
1, 170351, Note_on_c, 0, 64, 44
1, 170373, Control_c, 0, 64, 75
1, 170387, Control_c, 0, 64, 73
1, 170401, Note_off_c, 0, 61, 62
1, 170402, Control_c, 0, 64, 65
1, 170412, Note_on_c, 0, 63, 61
1, 170417, Note_off_c, 0, 70, 59
1, 170417, Control_c, 0, 64, 57
1, 170422, Note_off_c, 0, 67, 62
1, 170432, Control_c, 0, 64, 43
1, 170434, Note_on_c, 0, 72, 62
1, 170447, Control_c, 0, 64, 32
1, 170461, Control_c, 0, 64, 32
1, 170476, Control_c, 0, 64, 37
1, 170485, Note_off_c, 0, 64, 46
1, 170491, Control_c, 0, 64, 46
1, 170506, Control_c, 0, 64, 56
1, 170509, Note_off_c, 0, 72, 61
1, 170516, Note_off_c, 0, 63, 51
1, 170519, Note_on_c, 0, 70, 66
1, 170520, Control_c, 0, 64, 64
1, 170527, Note_on_c, 0, 61, 54
1, 170535, Control_c, 0, 64, 71
1, 170547, Note_off_c, 0, 70, 66
1, 170549, Control_c, 0, 64, 75
1, 170559, Note_off_c, 0, 61, 67
1, 170579, Control_c, 0, 64, 75
1, 170581, Note_on_c, 0, 60, 58
1, 170613, Poly_aftertouch_c, 0, 67, 0
1, 170630, Note_on_c, 0, 77, 75
1, 170642, Note_off_c, 0, 60, 62
1, 170695, Note_off_c, 0, 77, 60
1, 170698, Control_c, 0, 64, 75
1, 170707, Note_on_c, 0, 67, 60
1, 170712, Note_on_c, 0, 73, 70
1, 170713, Control_c, 0, 64, 72
1, 170719, Note_on_c, 0, 76, 55
1, 170727, Note_on_c, 0, 70, 40
1, 170727, Control_c, 0, 64, 66
1, 170749, Control_c, 0, 64, 59
1, 170764, Control_c, 0, 64, 45
1, 170773, Note_off_c, 0, 70, 45
1, 170779, Control_c, 0, 64, 29
1, 170784, Note_off_c, 0, 67, 62
1, 170787, Note_off_c, 0, 76, 0
1, 170787, Note_on_c, 0, 76, 14
1, 170794, Control_c, 0, 64, 23
1, 170803, Note_off_c, 0, 73, 63
1, 170808, Control_c, 0, 64, 23
1, 170812, Note_off_c, 0, 76, 60
1, 170814, Note_on_c, 0, 77, 74
1, 170815, Note_on_c, 0, 68, 60
1, 170823, Control_c, 0, 64, 26
1, 170838, Control_c, 0, 64, 32
1, 170853, Control_c, 0, 64, 41
1, 170868, Control_c, 0, 64, 52
1, 170880, Note_off_c, 0, 77, 61
1, 170883, Control_c, 0, 64, 63
1, 170893, Note_on_c, 0, 76, 73
1, 170898, Control_c, 0, 64, 71
1, 170899, Note_off_c, 0, 68, 52
1, 170902, Note_on_c, 0, 73, 66
1, 170907, Note_on_c, 0, 67, 52
1, 170913, Control_c, 0, 64, 76
1, 170931, Note_off_c, 0, 76, 62
1, 170937, Note_off_c, 0, 73, 63
1, 170950, Note_off_c, 0, 67, 63
1, 170975, Note_on_c, 0, 60, 53
1, 170996, Note_on_c, 0, 80, 69
1, 170997, Note_off_c, 0, 60, 63
1, 171017, Control_c, 0, 64, 75
1, 171032, Control_c, 0, 64, 74
1, 171034, Note_off_c, 0, 80, 0
1, 171047, Control_c, 0, 64, 72
1, 171052, Poly_aftertouch_c, 0, 80, 0
1, 171062, Control_c, 0, 64, 68
1, 171076, Control_c, 0, 64, 59
1, 171083, Note_on_c, 0, 76, 64
1, 171088, Note_on_c, 0, 79, 60
1, 171091, Control_c, 0, 64, 46
1, 171093, Note_on_c, 0, 73, 25
1, 171106, Control_c, 0, 64, 29
1, 171111, Note_on_c, 0, 71, 42
1, 171121, Control_c, 0, 64, 23
1, 171130, Note_off_c, 0, 73, 48
1, 171136, Control_c, 0, 64, 25
1, 171136, Note_off_c, 0, 71, 60
1, 171150, Control_c, 0, 64, 32
1, 171152, Poly_aftertouch_c, 0, 70, 0
1, 171158, Note_off_c, 0, 76, 65
1, 171165, Note_on_c, 0, 80, 71
1, 171165, Control_c, 0, 64, 41
1, 171172, Note_off_c, 0, 79, 52
1, 171176, Note_on_c, 0, 72, 57
1, 171180, Control_c, 0, 64, 51
1, 171195, Control_c, 0, 64, 61
1, 171209, Control_c, 0, 64, 69
1, 171224, Control_c, 0, 64, 75
1, 171226, Note_off_c, 0, 72, 56
1, 171239, Control_c, 0, 64, 75
1, 171243, Note_on_c, 0, 70, 64
1, 171247, Note_off_c, 0, 80, 53
1, 171255, Note_on_c, 0, 79, 57
1, 171259, Note_on_c, 0, 76, 57
1, 171275, Note_off_c, 0, 70, 62
1, 171285, Note_off_c, 0, 76, 59
1, 171285, Note_off_c, 0, 79, 64
1, 171297, Control_c, 0, 64, 76
1, 171343, Note_on_c, 0, 84, 69
1, 171353, Note_on_c, 0, 60, 30
1, 171386, Note_off_c, 0, 60, 47
1, 171402, Note_off_c, 0, 84, 46
1, 171424, Note_on_c, 0, 82, 67
1, 171427, Poly_aftertouch_c, 0, 59, 0
1, 171429, Note_on_c, 0, 73, 68
1, 171437, Note_on_c, 0, 76, 50
1, 171443, Note_on_c, 0, 79, 54
1, 171446, Control_c, 0, 64, 75
1, 171475, Control_c, 0, 64, 74
1, 171476, Note_off_c, 0, 73, 45
1, 171489, Note_off_c, 0, 76, 54
1, 171490, Control_c, 0, 64, 74
1, 171512, Control_c, 0, 64, 72
1, 171515, Note_off_c, 0, 82, 62
1, 171524, Note_on_c, 0, 84, 68
1, 171527, Control_c, 0, 64, 71
1, 171539, Note_on_c, 0, 75, 50
1, 171542, Control_c, 0, 64, 69
1, 171557, Control_c, 0, 64, 66
1, 171572, Note_off_c, 0, 79, 35
1, 171572, Control_c, 0, 64, 62
1, 171580, Note_off_c, 0, 75, 60
1, 171586, Control_c, 0, 64, 54
1, 171601, Control_c, 0, 64, 40
1, 171604, Note_off_c, 0, 84, 61
1, 171616, Control_c, 0, 64, 22
1, 171617, Note_on_c, 0, 73, 50
1, 171625, Note_on_c, 0, 82, 63
1, 171631, Control_c, 0, 64, 11
1, 171631, Note_on_c, 0, 76, 33
1, 171639, Note_on_c, 0, 79, 33
1, 171646, Control_c, 0, 64, 9
1, 171676, Control_c, 0, 64, 11
1, 171680, Note_off_c, 0, 76, 47
1, 171691, Note_off_c, 0, 73, 62
1, 171691, Control_c, 0, 64, 17
1, 171706, Control_c, 0, 64, 26
1, 171713, Note_on_c, 0, 75, 50
1, 171715, Note_off_c, 0, 82, 63
1, 171721, Control_c, 0, 64, 32
1, 171723, Note_off_c, 0, 79, 56
1, 171726, Note_on_c, 0, 84, 65
1, 171735, Control_c, 0, 64, 38
1, 171750, Control_c, 0, 64, 44
1, 171765, Control_c, 0, 64, 48
1, 171777, Note_off_c, 0, 75, 58
1, 171780, Control_c, 0, 64, 53
1, 171795, Control_c, 0, 64, 56
1, 171798, Note_off_c, 0, 84, 61
1, 171808, Note_on_c, 0, 73, 52
1, 171810, Control_c, 0, 64, 57
1, 171813, Note_on_c, 0, 76, 36
1, 171824, Control_c, 0, 64, 58
1, 171831, Note_on_c, 0, 79, 36
1, 171834, Note_on_c, 0, 82, 52
1, 171839, Control_c, 0, 64, 58
1, 171855, Note_off_c, 0, 73, 58
1, 171859, Note_off_c, 0, 76, 44
1, 171869, Control_c, 0, 64, 59
1, 171884, Control_c, 0, 64, 60
1, 171898, Control_c, 0, 64, 60
1, 171905, Note_on_c, 0, 72, 52
1, 171905, Note_off_c, 0, 82, 61
1, 171909, Note_on_c, 0, 84, 67
1, 171913, Control_c, 0, 64, 61
1, 171928, Control_c, 0, 64, 61
1, 171938, Note_off_c, 0, 79, 43
1, 171943, Control_c, 0, 64, 62
1, 171957, Control_c, 0, 64, 62
1, 171987, Control_c, 0, 64, 63
1, 171989, Note_off_c, 0, 84, 57
1, 172001, Note_on_c, 0, 73, 51
1, 172019, Note_on_c, 0, 79, 49
1, 172022, Note_on_c, 0, 82, 56
1, 172028, Note_on_c, 0, 76, 21
1, 172030, Note_off_c, 0, 72, 33
1, 172047, Control_c, 0, 64, 63
1, 172076, Note_off_c, 0, 76, 48
1, 172078, Note_off_c, 0, 73, 58
1, 172103, Note_on_c, 0, 84, 69
1, 172110, Note_on_c, 0, 75, 50
1, 172116, Note_off_c, 0, 82, 59
1, 172125, Note_off_c, 0, 79, 47
1, 172150, Control_c, 0, 64, 64
1, 172174, Note_off_c, 0, 75, 51
1, 172198, Note_off_c, 0, 84, 61
1, 172200, Note_on_c, 0, 73, 54
1, 172210, Note_on_c, 0, 76, 47
1, 172210, Note_on_c, 0, 79, 54
1, 172217, Note_on_c, 0, 82, 64
1, 172224, Control_c, 0, 64, 64
1, 172259, Note_off_c, 0, 73, 60
1, 172259, Note_off_c, 0, 76, 51
1, 172262, Control_c, 0, 64, 65
1, 172277, Control_c, 0, 64, 65
1, 172302, Note_on_c, 0, 84, 71
1, 172306, Control_c, 0, 64, 66
1, 172312, Note_off_c, 0, 82, 58
1, 172316, Note_on_c, 0, 75, 43
1, 172318, Note_off_c, 0, 79, 52
1, 172321, Control_c, 0, 64, 66
1, 172350, Control_c, 0, 64, 67
1, 172357, Note_off_c, 0, 75, 49
1, 172365, Control_c, 0, 64, 68
1, 172380, Control_c, 0, 64, 69
1, 172381, Note_on_c, 0, 73, 51
1, 172388, Note_off_c, 0, 84, 61
1, 172391, Note_on_c, 0, 79, 50
1, 172395, Control_c, 0, 64, 70
1, 172410, Note_on_c, 0, 76, 42
1, 172410, Note_on_c, 0, 82, 60
1, 172410, Control_c, 0, 64, 71
1, 172424, Control_c, 0, 64, 73
1, 172439, Control_c, 0, 64, 74
1, 172452, Note_off_c, 0, 76, 47
1, 172454, Control_c, 0, 64, 75
1, 172456, Note_off_c, 0, 73, 63
1, 172470, Control_c, 0, 64, 76
1, 172485, Control_c, 0, 64, 77
1, 172497, Note_on_c, 0, 75, 50
1, 172500, Note_off_c, 0, 79, 57
1, 172500, Control_c, 0, 64, 78
1, 172502, Note_on_c, 0, 84, 67
1, 172503, Note_off_c, 0, 82, 57
1, 172515, Control_c, 0, 64, 78
1, 172529, Control_c, 0, 64, 79
1, 172544, Control_c, 0, 64, 79
1, 172585, Note_off_c, 0, 84, 62
1, 172588, Control_c, 0, 64, 80
1, 172593, Note_on_c, 0, 73, 53
1, 172611, Note_off_c, 0, 75, 34
1, 172612, Note_on_c, 0, 82, 59
1, 172631, Note_on_c, 0, 79, 30
1, 172649, Poly_aftertouch_c, 0, 76, 127
1, 172657, Note_off_c, 0, 73, 62
1, 172698, Note_on_c, 0, 72, 45
1, 172700, Poly_aftertouch_c, 0, 76, 0
1, 172704, Note_off_c, 0, 82, 57
1, 172707, Note_on_c, 0, 84, 65
1, 172752, Control_c, 0, 64, 79
1, 172758, Note_off_c, 0, 79, 27
1, 172767, Control_c, 0, 64, 76
1, 172781, Control_c, 0, 64, 70
1, 172796, Control_c, 0, 64, 61
1, 172811, Control_c, 0, 64, 52
1, 172826, Control_c, 0, 64, 44
1, 172841, Control_c, 0, 64, 43
1, 172844, Note_off_c, 0, 84, 61
1, 172847, Note_off_c, 0, 72, 51
1, 172855, Control_c, 0, 64, 46
1, 172859, Note_on_c, 0, 82, 59
1, 172863, Note_on_c, 0, 73, 48
1, 172870, Control_c, 0, 64, 50
1, 172877, Note_on_c, 0, 76, 30
1, 172885, Control_c, 0, 64, 57
1, 172900, Control_c, 0, 64, 63
1, 172915, Control_c, 0, 64, 69
1, 172929, Control_c, 0, 64, 74
1, 172937, Note_off_c, 0, 76, 46
1, 172944, Control_c, 0, 64, 76
1, 172947, Note_off_c, 0, 73, 63
1, 172959, Control_c, 0, 64, 77
1, 172972, Note_on_c, 0, 80, 66
1, 172973, Control_c, 0, 64, 79
1, 172977, Note_off_c, 0, 82, 61
1, 172988, Control_c, 0, 64, 80
1, 172990, Note_on_c, 0, 72, 44
1, 173011, Control_c, 0, 64, 81
1, 173013, Note_off_c, 0, 80, 61
1, 173054, Note_off_c, 0, 72, 41
1, 173070, Control_c, 0, 64, 82
1, 173086, Note_on_c, 0, 73, 63
1, 173086, Note_on_c, 0, 79, 68
1, 173092, Note_on_c, 0, 70, 61
1, 173099, Control_c, 0, 64, 82
1, 173113, Note_off_c, 0, 73, 65
1, 173171, Note_off_c, 0, 70, 59
1, 173183, Note_on_c, 0, 77, 70
1, 173187, Note_on_c, 0, 68, 58
1, 173193, Note_off_c, 0, 79, 58
1, 173203, Control_c, 0, 64, 83
1, 173247, Note_off_c, 0, 68, 59
1, 173275, Note_off_c, 0, 77, 61
1, 173277, Note_on_c, 0, 67, 59
1, 173278, Control_c, 0, 64, 84
1, 173280, Note_on_c, 0, 70, 62
1, 173284, Note_on_c, 0, 76, 51
1, 173293, Control_c, 0, 64, 86
1, 173308, Control_c, 0, 64, 87
1, 173323, Control_c, 0, 64, 88
1, 173331, Note_off_c, 0, 76, 0
1, 173331, Note_on_c, 0, 76, 13
1, 173344, Note_off_c, 0, 70, 56
1, 173352, Note_off_c, 0, 67, 53
1, 173352, Control_c, 0, 64, 89
1, 173357, Note_off_c, 0, 76, 52
1, 173359, Note_on_c, 0, 73, 65
1, 173363, Note_on_c, 0, 65, 61
1, 173367, Control_c, 0, 64, 90
1, 173382, Control_c, 0, 64, 92
1, 173383, Note_off_c, 0, 73, 67
1, 173396, Control_c, 0, 64, 93
1, 173411, Control_c, 0, 64, 93
1, 173441, Note_off_c, 0, 65, 63
1, 173448, Note_on_c, 0, 64, 54
1, 173456, Control_c, 0, 64, 94
1, 173457, Note_on_c, 0, 72, 66
1, 173461, Note_on_c, 0, 67, 67
1, 173488, Note_off_c, 0, 67, 65
1, 173511, Note_off_c, 0, 64, 61
1, 173515, Control_c, 0, 64, 89
1, 173530, Control_c, 0, 64, 78
1, 173535, Note_on_c, 0, 61, 59
1, 173538, Note_on_c, 0, 70, 72
1, 173545, Control_c, 0, 64, 67
1, 173548, Note_off_c, 0, 72, 51
1, 173560, Control_c, 0, 64, 55
1, 173575, Control_c, 0, 64, 46
1, 173590, Control_c, 0, 64, 47
1, 173604, Control_c, 0, 64, 54
1, 173605, Note_off_c, 0, 61, 65
1, 173613, Note_off_c, 0, 70, 61
1, 173619, Control_c, 0, 64, 62
1, 173625, Note_on_c, 0, 64, 73
1, 173625, Note_on_c, 0, 68, 60
1, 173634, Control_c, 0, 64, 72
1, 173637, Note_on_c, 0, 60, 63
1, 173647, Note_off_c, 0, 68, 60
1, 173649, Control_c, 0, 64, 91
1, 173664, Control_c, 0, 64, 107
1, 173671, Note_off_c, 0, 60, 49
1, 173678, Control_c, 0, 64, 127
1, 173722, Control_c, 0, 67, 119
1, 173724, Note_on_c, 0, 67, 72
1, 173732, Note_on_c, 0, 58, 63
1, 173737, Control_c, 0, 67, 104
1, 173753, Note_off_c, 0, 64, 61
1, 173760, Control_c, 0, 67, 87
1, 173774, Control_c, 0, 67, 66
1, 173789, Control_c, 0, 67, 44
1, 173804, Control_c, 0, 67, 21
1, 173816, Note_off_c, 0, 58, 63
1, 173817, Note_on_c, 0, 65, 72
1, 173819, Control_c, 0, 67, 8
1, 173821, Note_on_c, 0, 61, 72
1, 173834, Control_c, 0, 67, 0
1, 173835, Note_on_c, 0, 56, 58
1, 173846, Note_off_c, 0, 67, 58
1, 173887, Note_off_c, 0, 56, 65
1, 173912, Note_on_c, 0, 64, 75
1, 173913, Note_off_c, 0, 65, 65
1, 173920, Note_on_c, 0, 55, 67
1, 173921, Note_off_c, 0, 61, 63
1, 173946, Note_off_c, 0, 55, 67
1, 173982, Control_c, 0, 64, 114
1, 173996, Control_c, 0, 64, 104
1, 174011, Control_c, 0, 64, 94
1, 174026, Control_c, 0, 64, 78
1, 174041, Control_c, 0, 64, 61
1, 174056, Control_c, 0, 64, 43
1, 174072, Control_c, 0, 64, 21
1, 174087, Control_c, 0, 64, 22
1, 174101, Note_off_c, 0, 64, 62
1, 174101, Control_c, 0, 64, 32
1, 174108, Note_on_c, 0, 68, 76
1, 174114, Note_on_c, 0, 59, 59
1, 174116, Control_c, 0, 64, 44
1, 174117, Note_on_c, 0, 35, 49
1, 174120, Note_on_c, 0, 56, 45
1, 174131, Control_c, 0, 64, 59
1, 174145, Control_c, 0, 64, 70
1, 174149, Note_off_c, 0, 56, 55
1, 174150, Note_off_c, 0, 35, 63
1, 174160, Control_c, 0, 64, 80
1, 174166, Note_off_c, 0, 59, 60
1, 174175, Control_c, 0, 64, 81
1, 174190, Control_c, 0, 64, 80
1, 174205, Control_c, 0, 64, 78
1, 174219, Control_c, 0, 64, 76
1, 174234, Control_c, 0, 64, 75
1, 174249, Control_c, 0, 64, 74
1, 174264, Control_c, 0, 64, 73
1, 174279, Control_c, 0, 64, 72
1, 174293, Control_c, 0, 64, 69
1, 174298, Note_off_c, 0, 68, 58
1, 174308, Control_c, 0, 64, 66
1, 174323, Control_c, 0, 64, 63
1, 174338, Control_c, 0, 64, 58
1, 174353, Control_c, 0, 64, 50
1, 174353, Note_on_c, 0, 47, 61
1, 174368, Control_c, 0, 64, 37
1, 174375, Note_on_c, 0, 64, 69
1, 174383, Control_c, 0, 64, 20
1, 174397, Control_c, 0, 64, 0
1, 174403, Note_off_c, 0, 64, 66
1, 174439, Note_off_c, 0, 47, 63
1, 174450, Note_on_c, 0, 49, 58
1, 174457, Note_on_c, 0, 64, 64
1, 174481, Note_off_c, 0, 64, 65
1, 174549, Note_off_c, 0, 49, 64
1, 174552, Note_on_c, 0, 64, 73
1, 174561, Note_on_c, 0, 51, 58
1, 174577, Note_off_c, 0, 64, 67
1, 174610, Note_off_c, 0, 51, 64
1, 174640, Note_on_c, 0, 52, 63
1, 174696, Note_off_c, 0, 52, 48
1, 174743, Note_on_c, 0, 64, 67
1, 174784, Note_on_c, 0, 53, 22
1, 174828, Note_off_c, 0, 53, 52
1, 174862, Note_on_c, 0, 56, 59
1, 174910, Note_off_c, 0, 56, 61
1, 174939, Control_c, 0, 64, 8
1, 174949, Note_off_c, 0, 64, 62
1, 174953, Note_on_c, 0, 61, 66
1, 174954, Control_c, 0, 64, 19
1, 174955, Note_on_c, 0, 57, 45
1, 174968, Control_c, 0, 64, 28
1, 174983, Control_c, 0, 64, 40
1, 174998, Control_c, 0, 64, 51
1, 174999, Note_off_c, 0, 57, 46
1, 175013, Control_c, 0, 64, 60
1, 175028, Control_c, 0, 64, 66
1, 175043, Note_on_c, 0, 69, 66
1, 175043, Control_c, 0, 64, 71
1, 175058, Control_c, 0, 64, 72
1, 175070, Note_off_c, 0, 61, 64
1, 175073, Control_c, 0, 64, 72
1, 175088, Control_c, 0, 64, 74
1, 175103, Control_c, 0, 64, 74
1, 175124, Note_off_c, 0, 69, 63
1, 175143, Note_on_c, 0, 64, 60
1, 175206, Control_c, 0, 64, 73
1, 175221, Control_c, 0, 64, 68
1, 175227, Note_on_c, 0, 66, 69
1, 175243, Control_c, 0, 64, 61
1, 175258, Control_c, 0, 64, 48
1, 175268, Note_off_c, 0, 64, 53
1, 175273, Control_c, 0, 64, 28
1, 175288, Control_c, 0, 64, 28
1, 175303, Control_c, 0, 64, 36
1, 175309, Note_off_c, 0, 66, 59
1, 175317, Control_c, 0, 64, 47
1, 175326, Note_on_c, 0, 68, 70
1, 175329, Note_on_c, 0, 35, 63
1, 175332, Note_on_c, 0, 59, 56
1, 175332, Control_c, 0, 64, 59
1, 175347, Control_c, 0, 64, 69
1, 175354, Note_off_c, 0, 68, 64
1, 175355, Note_on_c, 0, 56, 28
1, 175355, Note_off_c, 0, 59, 62
1, 175360, Note_off_c, 0, 35, 64
1, 175362, Control_c, 0, 64, 77
1, 175393, Note_off_c, 0, 56, 45
1, 175406, Control_c, 0, 64, 76
1, 175421, Control_c, 0, 64, 74
1, 175436, Control_c, 0, 64, 73
1, 175450, Control_c, 0, 64, 72
1, 175465, Control_c, 0, 64, 71
1, 175480, Control_c, 0, 64, 69
1, 175494, Control_c, 0, 64, 65
1, 175509, Control_c, 0, 64, 60
1, 175524, Control_c, 0, 64, 49
1, 175539, Control_c, 0, 64, 34
1, 175554, Control_c, 0, 64, 17
1, 175559, Note_on_c, 0, 47, 53
1, 175560, Note_on_c, 0, 64, 73
1, 175569, Control_c, 0, 64, 0
1, 175582, Note_off_c, 0, 64, 69
1, 175629, Note_off_c, 0, 47, 63
1, 175632, Note_on_c, 0, 49, 63
1, 175639, Note_on_c, 0, 64, 66
1, 175658, Note_off_c, 0, 64, 66
1, 175723, Note_off_c, 0, 49, 64
1, 175725, Note_on_c, 0, 64, 70
1, 175736, Note_on_c, 0, 51, 56
1, 175750, Note_off_c, 0, 64, 67
1, 175792, Note_off_c, 0, 51, 64
1, 175816, Note_on_c, 0, 52, 62
1, 175866, Note_off_c, 0, 52, 61
1, 175918, Note_on_c, 0, 54, 61
1, 175918, Note_on_c, 0, 64, 68
1, 175962, Note_off_c, 0, 54, 65
1, 176028, Note_on_c, 0, 56, 57
1, 176053, Note_off_c, 0, 56, 68
1, 176112, Note_off_c, 0, 64, 55
1, 176141, Note_on_c, 0, 59, 44
1, 176143, Note_on_c, 0, 47, 47
1, 176144, Note_on_c, 0, 57, 50
1, 176236, Note_off_c, 0, 59, 61
1, 176252, Note_on_c, 0, 66, 61
1, 176331, Note_off_c, 0, 66, 62
1, 176341, Note_on_c, 0, 61, 61
1, 176410, Note_off_c, 0, 61, 52
1, 176438, Note_on_c, 0, 63, 51
1, 176474, Note_off_c, 0, 47, 49
1, 176476, Note_off_c, 0, 57, 50
1, 176519, Note_off_c, 0, 63, 53
1, 176526, Control_c, 0, 64, 20
1, 176530, Note_on_c, 0, 40, 48
1, 176534, Note_on_c, 0, 59, 51
1, 176537, Note_on_c, 0, 64, 54
1, 176540, Control_c, 0, 64, 32
1, 176555, Control_c, 0, 64, 41
1, 176570, Control_c, 0, 64, 51
1, 176571, Note_off_c, 0, 40, 64
1, 176578, Note_off_c, 0, 59, 61
1, 176585, Control_c, 0, 64, 58
1, 176593, Note_off_c, 0, 64, 59
1, 176600, Control_c, 0, 64, 63
1, 176614, Control_c, 0, 64, 64
1, 176718, Control_c, 0, 64, 64
1, 176733, Control_c, 0, 64, 63
1, 176755, Control_c, 0, 64, 63
1, 176770, Control_c, 0, 64, 61
1, 176785, Control_c, 0, 64, 59
1, 176790, Note_on_c, 0, 59, 64
1, 176800, Control_c, 0, 64, 56
1, 176807, Note_off_c, 0, 59, 64
1, 176815, Control_c, 0, 64, 51
1, 176829, Control_c, 0, 64, 44
1, 176844, Control_c, 0, 64, 37
1, 176859, Control_c, 0, 64, 31
1, 176866, Note_on_c, 0, 59, 67
1, 176874, Control_c, 0, 64, 24
1, 176876, Note_on_c, 0, 56, 46
1, 176889, Control_c, 0, 64, 15
1, 176896, Note_off_c, 0, 59, 63
1, 176903, Control_c, 0, 64, 0
1, 176944, Note_off_c, 0, 56, 65
1, 176964, Note_on_c, 0, 59, 40
1, 176973, Note_on_c, 0, 54, 55
1, 176991, Note_off_c, 0, 59, 53
1, 177019, Note_off_c, 0, 54, 66
1, 177062, Note_on_c, 0, 52, 60
1, 177129, Note_off_c, 0, 52, 40
1, 177166, Note_on_c, 0, 51, 55
1, 177177, Note_on_c, 0, 59, 52
1, 177201, Note_off_c, 0, 59, 58
1, 177227, Note_off_c, 0, 51, 62
1, 177249, Note_on_c, 0, 49, 56
1, 177332, Note_off_c, 0, 49, 61
1, 177365, Note_on_c, 0, 47, 43
1, 177384, Note_on_c, 0, 59, 39
1, 177392, Note_on_c, 0, 57, 32
1, 177423, Control_c, 0, 64, 11
1, 177437, Control_c, 0, 64, 15
1, 177452, Control_c, 0, 64, 19
1, 177467, Control_c, 0, 64, 25
1, 177473, Note_off_c, 0, 59, 58
1, 177482, Control_c, 0, 64, 32
1, 177501, Note_on_c, 0, 66, 54
1, 177504, Control_c, 0, 64, 41
1, 177518, Control_c, 0, 64, 50
1, 177533, Control_c, 0, 64, 58
1, 177548, Control_c, 0, 64, 62
1, 177563, Control_c, 0, 64, 63
1, 177584, Note_off_c, 0, 66, 61
1, 177594, Note_on_c, 0, 61, 57
1, 177623, Control_c, 0, 64, 63
1, 177635, Note_off_c, 0, 47, 42
1, 177652, Control_c, 0, 64, 62
1, 177667, Control_c, 0, 64, 61
1, 177674, Note_off_c, 0, 61, 56
1, 177682, Control_c, 0, 64, 59
1, 177685, Note_on_c, 0, 63, 53
1, 177696, Control_c, 0, 64, 56
1, 177711, Control_c, 0, 64, 50
1, 177726, Control_c, 0, 64, 39
1, 177741, Control_c, 0, 64, 26
1, 177753, Note_off_c, 0, 63, 46
1, 177756, Control_c, 0, 64, 12
1, 177758, Note_off_c, 0, 57, 40
1, 177770, Control_c, 0, 64, 0
1, 177778, Note_on_c, 0, 40, 45
1, 177790, Note_on_c, 0, 64, 50
1, 177796, Note_on_c, 0, 59, 43
1, 177800, Control_c, 0, 64, 12
1, 177815, Control_c, 0, 64, 26
1, 177830, Control_c, 0, 64, 39
1, 177840, Note_off_c, 0, 59, 60
1, 177840, Note_off_c, 0, 40, 62
1, 177841, Note_off_c, 0, 64, 57
1, 177844, Control_c, 0, 64, 51
1, 177859, Control_c, 0, 64, 61
1, 177874, Control_c, 0, 64, 65
1, 177888, Control_c, 0, 64, 66
1, 177933, Control_c, 0, 64, 66
1, 177948, Control_c, 0, 64, 65
1, 177963, Control_c, 0, 64, 64
1, 177977, Control_c, 0, 64, 62
1, 177992, Control_c, 0, 64, 60
1, 178007, Control_c, 0, 64, 56
1, 178020, Note_on_c, 0, 59, 72
1, 178022, Control_c, 0, 64, 49
1, 178037, Control_c, 0, 64, 41
1, 178038, Note_off_c, 0, 59, 67
1, 178052, Control_c, 0, 64, 36
1, 178067, Control_c, 0, 64, 31
1, 178082, Control_c, 0, 64, 24
1, 178097, Control_c, 0, 64, 15
1, 178100, Note_on_c, 0, 59, 71
1, 178110, Note_on_c, 0, 56, 53
1, 178112, Control_c, 0, 64, 0
1, 178130, Note_off_c, 0, 59, 63
1, 178187, Note_off_c, 0, 56, 65
1, 178201, Note_on_c, 0, 54, 62
1, 178204, Note_on_c, 0, 59, 64
1, 178239, Note_off_c, 0, 59, 66
1, 178283, Note_off_c, 0, 54, 64
1, 178295, Note_on_c, 0, 52, 73
1, 178388, Note_off_c, 0, 52, 65
1, 178411, Note_on_c, 0, 51, 62
1, 178411, Note_on_c, 0, 60, 76
1, 178451, Note_off_c, 0, 60, 64
1, 178499, Note_off_c, 0, 51, 65
1, 178516, Note_on_c, 0, 50, 60
1, 178637, Note_off_c, 0, 50, 52
1, 178666, Note_on_c, 0, 61, 62
1, 178668, Note_on_c, 0, 49, 49
1, 178672, Note_on_c, 0, 59, 49
1, 178676, Note_on_c, 0, 41, 43
1, 178697, Control_c, 0, 64, 8
1, 178711, Control_c, 0, 64, 11
1, 178726, Control_c, 0, 64, 14
1, 178741, Control_c, 0, 64, 17
1, 178756, Control_c, 0, 64, 20
1, 178763, Note_off_c, 0, 59, 60
1, 178771, Control_c, 0, 64, 24
1, 178783, Note_on_c, 0, 71, 70
1, 178786, Control_c, 0, 64, 32
1, 178798, Note_off_c, 0, 61, 66
1, 178801, Control_c, 0, 64, 41
1, 178816, Control_c, 0, 64, 53
1, 178818, Note_off_c, 0, 41, 62
1, 178831, Control_c, 0, 64, 62
1, 178845, Control_c, 0, 64, 68
1, 178862, Control_c, 0, 64, 73
1, 178878, Note_off_c, 0, 71, 63
1, 178881, Note_on_c, 0, 66, 73
1, 178950, Control_c, 0, 64, 72
1, 178965, Control_c, 0, 64, 71
1, 178975, Note_on_c, 0, 68, 58
1, 178980, Control_c, 0, 64, 66
1, 179003, Control_c, 0, 64, 58
1, 179014, Note_off_c, 0, 66, 61
1, 179017, Control_c, 0, 64, 45
1, 179032, Control_c, 0, 64, 26
1, 179047, Control_c, 0, 64, 16
1, 179048, Note_off_c, 0, 49, 56
1, 179059, Note_off_c, 0, 68, 56
1, 179062, Control_c, 0, 64, 19
1, 179070, Note_on_c, 0, 42, 58
1, 179070, Note_on_c, 0, 69, 66
1, 179077, Control_c, 0, 64, 27
1, 179080, Note_on_c, 0, 57, 59
1, 179085, Note_on_c, 0, 61, 56
1, 179091, Control_c, 0, 64, 36
1, 179106, Control_c, 0, 64, 48
1, 179113, Note_off_c, 0, 57, 60
1, 179121, Control_c, 0, 64, 57
1, 179122, Note_off_c, 0, 61, 66
1, 179125, Note_off_c, 0, 69, 64
1, 179135, Control_c, 0, 64, 62
1, 179150, Control_c, 0, 64, 63
1, 179180, Control_c, 0, 64, 62
1, 179195, Control_c, 0, 64, 61
1, 179210, Control_c, 0, 64, 60
1, 179224, Control_c, 0, 64, 58
1, 179239, Control_c, 0, 64, 54
1, 179254, Control_c, 0, 64, 48
1, 179269, Control_c, 0, 64, 38
1, 179284, Control_c, 0, 64, 28
1, 179286, Note_off_c, 0, 42, 57
1, 179298, Control_c, 0, 64, 18
1, 179302, Note_on_c, 0, 61, 75
1, 179304, Note_on_c, 0, 49, 55
1, 179313, Control_c, 0, 64, 0
1, 179325, Note_off_c, 0, 61, 71
1, 179387, Note_on_c, 0, 61, 75
1, 179388, Note_off_c, 0, 49, 62
1, 179390, Note_on_c, 0, 51, 64
1, 179412, Note_off_c, 0, 61, 69
1, 179474, Note_off_c, 0, 51, 64
1, 179474, Note_on_c, 0, 61, 73
1, 179489, Note_on_c, 0, 53, 62
1, 179503, Note_off_c, 0, 61, 64
1, 179576, Note_on_c, 0, 54, 59
1, 179584, Note_off_c, 0, 53, 61
1, 179683, Note_on_c, 0, 56, 65
1, 179689, Note_off_c, 0, 54, 62
1, 179693, Note_on_c, 0, 61, 76
1, 179727, Note_off_c, 0, 61, 66
1, 179753, Note_off_c, 0, 56, 65
1, 179772, Note_on_c, 0, 57, 62
1, 179882, Note_off_c, 0, 57, 47
1, 179923, Note_on_c, 0, 61, 52
1, 179924, Note_on_c, 0, 49, 40
1, 179935, Note_on_c, 0, 59, 43
1, 180017, Control_c, 0, 64, 12
1, 180031, Control_c, 0, 64, 18
1, 180034, Note_on_c, 0, 68, 59
1, 180036, Note_off_c, 0, 61, 62
1, 180046, Control_c, 0, 64, 23
1, 180061, Control_c, 0, 64, 26
1, 180076, Control_c, 0, 64, 27
1, 180091, Control_c, 0, 64, 28
1, 180126, Note_on_c, 0, 63, 60
1, 180132, Note_off_c, 0, 68, 60
1, 180151, Control_c, 0, 64, 27
1, 180165, Control_c, 0, 64, 26
1, 180180, Control_c, 0, 64, 25
1, 180195, Control_c, 0, 64, 24
1, 180210, Control_c, 0, 64, 23
1, 180215, Note_off_c, 0, 63, 61
1, 180225, Control_c, 0, 64, 20
1, 180233, Note_on_c, 0, 65, 53
1, 180239, Control_c, 0, 64, 14
1, 180254, Control_c, 0, 64, 0
1, 180284, Note_off_c, 0, 49, 46
1, 180306, Note_on_c, 0, 42, 39
1, 180307, Note_off_c, 0, 65, 64
1, 180315, Note_on_c, 0, 66, 65
1, 180335, Note_on_c, 0, 61, 40
1, 180357, Control_c, 0, 64, 13
1, 180364, Note_off_c, 0, 59, 43
1, 180372, Control_c, 0, 64, 27
1, 180383, Note_off_c, 0, 61, 52
1, 180387, Control_c, 0, 64, 38
1, 180390, Note_off_c, 0, 42, 58
1, 180402, Control_c, 0, 64, 49
1, 180417, Control_c, 0, 64, 58
1, 180431, Control_c, 0, 64, 66
1, 180446, Control_c, 0, 64, 70
1, 180470, Note_off_c, 0, 66, 60
1, 180514, Control_c, 0, 64, 71
1, 180570, Note_on_c, 0, 61, 68
1, 180596, Note_off_c, 0, 61, 69
1, 180648, Control_c, 0, 64, 70
1, 180654, Note_on_c, 0, 57, 53
1, 180666, Note_on_c, 0, 61, 61
1, 180692, Control_c, 0, 64, 70
1, 180698, Note_off_c, 0, 61, 67
1, 180706, Control_c, 0, 64, 67
1, 180721, Control_c, 0, 64, 60
1, 180736, Control_c, 0, 64, 48
1, 180747, Note_off_c, 0, 57, 54
1, 180751, Control_c, 0, 64, 34
1, 180752, Note_on_c, 0, 56, 58
1, 180759, Note_on_c, 0, 61, 64
1, 180766, Control_c, 0, 64, 28
1, 180781, Control_c, 0, 64, 29
1, 180794, Note_off_c, 0, 61, 63
1, 180795, Control_c, 0, 64, 34
1, 180810, Control_c, 0, 64, 42
1, 180825, Control_c, 0, 64, 54
1, 180840, Control_c, 0, 64, 61
1, 180842, Note_on_c, 0, 54, 65
1, 180854, Control_c, 0, 64, 62
1, 180869, Note_off_c, 0, 56, 65
1, 180869, Control_c, 0, 64, 60
1, 180884, Control_c, 0, 64, 57
1, 180899, Control_c, 0, 64, 52
1, 180911, Note_off_c, 0, 54, 63
1, 180914, Control_c, 0, 64, 44
1, 180929, Control_c, 0, 64, 39
1, 180931, Note_on_c, 0, 53, 64
1, 180943, Control_c, 0, 64, 41
1, 180948, Note_on_c, 0, 62, 80
1, 180958, Control_c, 0, 64, 47
1, 180973, Control_c, 0, 64, 57
1, 180988, Control_c, 0, 64, 68
1, 180991, Note_off_c, 0, 62, 59
1, 181003, Control_c, 0, 64, 85
1, 181003, Note_off_c, 0, 53, 65
1, 181018, Control_c, 0, 64, 84
1, 181032, Control_c, 0, 64, 81
1, 181042, Note_on_c, 0, 52, 81
1, 181047, Control_c, 0, 64, 79
1, 181062, Control_c, 0, 64, 77
1, 181077, Control_c, 0, 64, 74
1, 181092, Control_c, 0, 64, 71
1, 181106, Control_c, 0, 64, 66
1, 181121, Control_c, 0, 64, 62
1, 181136, Control_c, 0, 64, 57
1, 181151, Control_c, 0, 64, 48
1, 181166, Control_c, 0, 64, 38
1, 181180, Control_c, 0, 64, 25
1, 181183, Note_on_c, 0, 51, 63
1, 181183, Note_off_c, 0, 52, 59
1, 181191, Note_on_c, 0, 43, 56
1, 181195, Control_c, 0, 64, 0
1, 181198, Note_on_c, 0, 63, 77
1, 181215, Note_on_c, 0, 58, 45
1, 181248, Note_off_c, 0, 58, 54
1, 181278, Control_c, 0, 64, 17
1, 181292, Control_c, 0, 64, 31
1, 181307, Control_c, 0, 64, 44
1, 181322, Control_c, 0, 64, 55
1, 181328, Note_off_c, 0, 43, 60
1, 181335, Note_on_c, 0, 73, 80
1, 181337, Control_c, 0, 64, 64
1, 181346, Note_off_c, 0, 63, 66
1, 181352, Control_c, 0, 64, 72
1, 181367, Control_c, 0, 64, 77
1, 181423, Note_off_c, 0, 73, 63
1, 181432, Note_on_c, 0, 68, 71
1, 181456, Control_c, 0, 64, 76
1, 181471, Control_c, 0, 64, 76
1, 181485, Control_c, 0, 64, 75
1, 181500, Control_c, 0, 64, 73
1, 181511, Note_on_c, 0, 70, 71
1, 181515, Control_c, 0, 64, 67
1, 181530, Control_c, 0, 64, 59
1, 181544, Control_c, 0, 64, 47
1, 181554, Note_off_c, 0, 68, 55
1, 181559, Control_c, 0, 64, 34
1, 181574, Control_c, 0, 64, 31
1, 181587, Note_off_c, 0, 51, 62
1, 181589, Note_off_c, 0, 70, 54
1, 181589, Control_c, 0, 64, 37
1, 181595, Note_on_c, 0, 44, 64
1, 181604, Note_on_c, 0, 71, 77
1, 181604, Control_c, 0, 64, 47
1, 181613, Note_on_c, 0, 59, 59
1, 181613, Note_on_c, 0, 63, 64
1, 181618, Control_c, 0, 64, 58
1, 181633, Control_c, 0, 64, 69
1, 181635, Note_off_c, 0, 59, 63
1, 181640, Note_off_c, 0, 63, 68
1, 181647, Note_off_c, 0, 71, 65
1, 181648, Control_c, 0, 64, 79
1, 181677, Control_c, 0, 64, 78
1, 181692, Control_c, 0, 64, 76
1, 181707, Control_c, 0, 64, 74
1, 181722, Control_c, 0, 64, 72
1, 181736, Control_c, 0, 64, 69
1, 181751, Control_c, 0, 64, 66
1, 181766, Control_c, 0, 64, 62
1, 181782, Control_c, 0, 64, 56
1, 181797, Control_c, 0, 64, 47
1, 181811, Control_c, 0, 64, 38
1, 181818, Note_on_c, 0, 51, 59
1, 181826, Control_c, 0, 64, 30
1, 181829, Note_off_c, 0, 44, 37
1, 181830, Note_on_c, 0, 63, 86
1, 181841, Control_c, 0, 64, 19
1, 181854, Note_off_c, 0, 63, 70
1, 181856, Control_c, 0, 64, 0
1, 181903, Note_off_c, 0, 51, 63
1, 181912, Note_on_c, 0, 53, 64
1, 181915, Note_on_c, 0, 63, 84
1, 181941, Note_off_c, 0, 63, 65
1, 181972, Note_off_c, 0, 53, 64
1, 182001, Note_on_c, 0, 63, 85
1, 182011, Note_on_c, 0, 55, 63
1, 182032, Note_off_c, 0, 63, 67
1, 182094, Note_on_c, 0, 56, 65
1, 182107, Note_off_c, 0, 55, 61
1, 182195, Note_off_c, 0, 56, 64
1, 182195, Note_on_c, 0, 58, 72
1, 182216, Note_on_c, 0, 63, 82
1, 182264, Note_off_c, 0, 63, 65
1, 182268, Note_off_c, 0, 58, 63
1, 182291, Note_on_c, 0, 59, 64
1, 182405, Note_off_c, 0, 59, 52
1, 182420, Note_on_c, 0, 51, 48
1, 182434, Note_on_c, 0, 61, 65
1, 182440, Note_on_c, 0, 63, 69
1, 182511, Note_on_c, 0, 64, 33
1, 182531, Control_c, 0, 64, 12
1, 182540, Note_on_c, 0, 70, 68
1, 182546, Control_c, 0, 64, 29
1, 182553, Note_off_c, 0, 64, 51
1, 182553, Note_off_c, 0, 63, 62
1, 182560, Control_c, 0, 64, 40
1, 182575, Control_c, 0, 64, 50
1, 182590, Control_c, 0, 64, 59
1, 182605, Control_c, 0, 64, 65
1, 182620, Control_c, 0, 64, 67
1, 182630, Note_off_c, 0, 70, 62
1, 182632, Note_on_c, 0, 65, 79
1, 182664, Control_c, 0, 64, 66
1, 182693, Control_c, 0, 64, 65
1, 182708, Control_c, 0, 64, 64
1, 182730, Note_on_c, 0, 67, 81
1, 182731, Control_c, 0, 64, 63
1, 182740, Note_off_c, 0, 65, 64
1, 182746, Control_c, 0, 64, 60
1, 182760, Control_c, 0, 64, 55
1, 182775, Control_c, 0, 64, 45
1, 182790, Control_c, 0, 64, 29
1, 182805, Control_c, 0, 64, 0
1, 182836, Note_on_c, 0, 44, 55
1, 182842, Note_off_c, 0, 67, 62
1, 182845, Note_on_c, 0, 68, 82
1, 182845, Note_off_c, 0, 51, 58
1, 182895, Control_c, 0, 64, 30
1, 182896, Note_off_c, 0, 61, 65
1, 182909, Control_c, 0, 64, 42
1, 182924, Control_c, 0, 64, 55
1, 182939, Control_c, 0, 64, 62
1, 182954, Control_c, 0, 64, 66
1, 182969, Control_c, 0, 64, 66
1, 183057, Note_on_c, 0, 51, 63
1, 183057, Note_on_c, 0, 63, 74
1, 183071, Note_on_c, 0, 59, 44
1, 183071, Note_off_c, 0, 68, 58
1, 183091, Note_off_c, 0, 63, 65
1, 183100, Note_off_c, 0, 59, 54
1, 183106, Note_off_c, 0, 44, 35
1, 183117, Control_c, 0, 64, 66
1, 183131, Control_c, 0, 64, 65
1, 183146, Control_c, 0, 64, 63
1, 183153, Note_on_c, 0, 63, 79
1, 183154, Note_on_c, 0, 53, 66
1, 183161, Note_off_c, 0, 51, 57
1, 183161, Control_c, 0, 64, 59
1, 183176, Control_c, 0, 64, 49
1, 183191, Control_c, 0, 64, 32
1, 183206, Control_c, 0, 64, 0
1, 183208, Note_off_c, 0, 63, 65
1, 183249, Note_off_c, 0, 53, 66
1, 183259, Note_on_c, 0, 63, 79
1, 183278, Note_on_c, 0, 55, 58
1, 183293, Control_c, 0, 64, 22
1, 183307, Control_c, 0, 64, 36
1, 183322, Control_c, 0, 64, 47
1, 183337, Control_c, 0, 64, 57
1, 183352, Control_c, 0, 64, 65
1, 183355, Note_off_c, 0, 63, 60
1, 183367, Control_c, 0, 64, 72
1, 183382, Control_c, 0, 64, 74
1, 183394, Note_off_c, 0, 55, 61
1, 183411, Note_on_c, 0, 57, 56
1, 183412, Control_c, 0, 64, 74
1, 183433, Note_on_c, 0, 63, 88
1, 183441, Control_c, 0, 64, 75
1, 183471, Control_c, 0, 64, 76
1, 183495, Note_off_c, 0, 63, 65
1, 183498, Note_off_c, 0, 57, 61
1, 183509, Note_on_c, 0, 58, 68
1, 183522, Control_c, 0, 64, 76
1, 183566, Note_on_c, 0, 63, 83
1, 183579, Note_off_c, 0, 58, 61
1, 183605, Note_on_c, 0, 59, 64
1, 183617, Note_off_c, 0, 63, 62
1, 183626, Control_c, 0, 64, 76
1, 183641, Control_c, 0, 64, 75
1, 183657, Control_c, 0, 64, 74
1, 183672, Control_c, 0, 64, 73
1, 183686, Control_c, 0, 64, 70
1, 183701, Control_c, 0, 64, 64
1, 183716, Control_c, 0, 64, 55
1, 183728, Note_on_c, 0, 63, 85
1, 183731, Note_on_c, 0, 51, 64
1, 183731, Note_on_c, 0, 61, 80
1, 183731, Control_c, 0, 64, 38
1, 183734, Note_off_c, 0, 59, 57
1, 183746, Control_c, 0, 64, 12
1, 183761, Control_c, 0, 64, 0
1, 183820, Control_c, 0, 64, 9
1, 183835, Control_c, 0, 64, 27
1, 183850, Control_c, 0, 64, 40
1, 183859, Note_on_c, 0, 70, 81
1, 183865, Control_c, 0, 64, 52
1, 183880, Control_c, 0, 64, 65
1, 183895, Control_c, 0, 64, 79
1, 183909, Control_c, 0, 64, 86
1, 183913, Note_off_c, 0, 51, 63
1, 183915, Note_off_c, 0, 63, 61
1, 183930, Note_off_c, 0, 61, 62
1, 183969, Control_c, 0, 64, 88
1, 183984, Note_on_c, 0, 65, 85
1, 183984, Control_c, 0, 64, 92
1, 183987, Note_off_c, 0, 70, 62
1, 183999, Control_c, 0, 64, 101
1, 184013, Control_c, 0, 64, 127
1, 184110, Note_on_c, 0, 67, 92
1, 184114, Note_on_c, 0, 58, 86
1, 184130, Note_off_c, 0, 65, 58
1, 184210, Note_off_c, 0, 58, 52
1, 184317, Control_c, 0, 64, 105
1, 184331, Control_c, 0, 64, 94
1, 184346, Control_c, 0, 64, 86
1, 184355, Note_on_c, 0, 68, 89
1, 184359, Note_on_c, 0, 59, 81
1, 184360, Note_on_c, 0, 50, 66
1, 184361, Control_c, 0, 64, 78
1, 184364, Note_on_c, 0, 38, 67
1, 184364, Note_off_c, 0, 67, 55
1, 184376, Control_c, 0, 64, 71
1, 184391, Control_c, 0, 64, 63
1, 184406, Control_c, 0, 64, 48
1, 184420, Control_c, 0, 64, 0
1, 184494, Note_off_c, 0, 38, 62
1, 184525, Control_c, 0, 64, 14
1, 184540, Control_c, 0, 64, 34
1, 184554, Control_c, 0, 64, 51
1, 184562, Note_off_c, 0, 50, 59
1, 184569, Control_c, 0, 64, 65
1, 184584, Control_c, 0, 64, 79
1, 184599, Control_c, 0, 64, 83
1, 184616, Note_off_c, 0, 59, 50
1, 184671, Note_off_c, 0, 68, 50
1, 184833, Note_on_c, 0, 56, 52
1, 184838, Note_on_c, 0, 64, 56
1, 184863, Note_on_c, 0, 59, 18
1, 184885, Note_off_c, 0, 56, 66
1, 184918, Note_off_c, 0, 64, 60
1, 184935, Note_on_c, 0, 66, 54
1, 184953, Note_on_c, 0, 57, 24
1, 184994, Note_off_c, 0, 59, 34
1, 185000, Note_off_c, 0, 57, 47
1, 185015, Note_off_c, 0, 66, 61
1, 185017, Note_on_c, 0, 56, 46
1, 185033, Note_on_c, 0, 64, 54
1, 185066, Note_off_c, 0, 56, 64
1, 185076, Note_off_c, 0, 64, 60
1, 185113, Note_on_c, 0, 71, 55
1, 185176, Poly_aftertouch_c, 0, 50, 0
1, 185180, Note_off_c, 0, 71, 59
1, 185203, Note_on_c, 0, 68, 67
1, 185213, Note_on_c, 0, 59, 53
1, 185213, Control_c, 0, 64, 78
1, 185227, Note_on_c, 0, 64, 39
1, 185228, Control_c, 0, 64, 69
1, 185243, Control_c, 0, 64, 62
1, 185256, Note_off_c, 0, 59, 58
1, 185259, Control_c, 0, 64, 54
1, 185274, Control_c, 0, 64, 47
1, 185280, Note_off_c, 0, 64, 41
1, 185289, Note_off_c, 0, 68, 57
1, 185289, Control_c, 0, 64, 47
1, 185303, Control_c, 0, 64, 56
1, 185307, Note_on_c, 0, 69, 57
1, 185308, Note_on_c, 0, 61, 49
1, 185318, Control_c, 0, 64, 67
1, 185333, Control_c, 0, 64, 84
1, 185338, Note_off_c, 0, 61, 56
1, 185348, Control_c, 0, 64, 96
1, 185363, Control_c, 0, 64, 100
1, 185375, Note_off_c, 0, 69, 62
1, 185377, Control_c, 0, 64, 102
1, 185378, Note_on_c, 0, 59, 46
1, 185383, Note_on_c, 0, 68, 75
1, 185392, Control_c, 0, 64, 103
1, 185406, Note_off_c, 0, 59, 54
1, 185416, Note_off_c, 0, 68, 59
1, 185451, Control_c, 0, 64, 104
1, 185477, Note_on_c, 0, 76, 73
1, 185484, Note_on_c, 0, 50, 63
1, 185510, Control_c, 0, 64, 103
1, 185518, Note_off_c, 0, 50, 64
1, 185526, Control_c, 0, 64, 96
1, 185541, Control_c, 0, 64, 80
1, 185548, Note_off_c, 0, 76, 67
1, 185556, Control_c, 0, 64, 67
1, 185567, Note_on_c, 0, 62, 65
1, 185567, Note_on_c, 0, 71, 58
1, 185571, Control_c, 0, 64, 57
1, 185584, Note_on_c, 0, 68, 42
1, 185585, Control_c, 0, 64, 46
1, 185600, Control_c, 0, 64, 44
1, 185615, Control_c, 0, 64, 51
1, 185629, Control_c, 0, 64, 58
1, 185635, Note_off_c, 0, 62, 39
1, 185644, Control_c, 0, 64, 65
1, 185645, Note_on_c, 0, 64, 66
1, 185646, Note_off_c, 0, 71, 65
1, 185657, Note_on_c, 0, 73, 64
1, 185659, Control_c, 0, 64, 75
1, 185674, Control_c, 0, 64, 84
1, 185689, Control_c, 0, 64, 88
1, 185703, Note_off_c, 0, 64, 59
1, 185704, Control_c, 0, 64, 91
1, 185719, Control_c, 0, 64, 95
1, 185730, Note_off_c, 0, 73, 64
1, 185737, Note_off_c, 0, 68, 43
1, 185740, Note_on_c, 0, 71, 58
1, 185741, Control_c, 0, 64, 100
1, 185749, Note_on_c, 0, 62, 55
1, 185756, Control_c, 0, 64, 105
1, 185764, Note_off_c, 0, 71, 61
1, 185771, Note_off_c, 0, 62, 64
1, 185771, Control_c, 0, 64, 113
1, 185785, Control_c, 0, 64, 127
1, 185802, Note_on_c, 0, 50, 61
1, 185820, Note_on_c, 0, 80, 75
1, 185823, Note_off_c, 0, 50, 65
1, 185848, Note_off_c, 0, 80, 61
1, 185874, Control_c, 0, 64, 117
1, 185889, Control_c, 0, 64, 108
1, 185904, Control_c, 0, 64, 102
1, 185919, Control_c, 0, 64, 97
1, 185923, Note_on_c, 0, 68, 76
1, 185925, Note_on_c, 0, 76, 74
1, 185934, Control_c, 0, 64, 87
1, 185948, Control_c, 0, 64, 71
1, 185949, Note_on_c, 0, 71, 31
1, 185963, Control_c, 0, 64, 59
1, 185978, Control_c, 0, 64, 36
1, 185984, Note_off_c, 0, 68, 60
1, 185993, Control_c, 0, 64, 0
1, 186005, Note_off_c, 0, 76, 65
1, 186006, Note_on_c, 0, 69, 69
1, 186008, Note_on_c, 0, 78, 72
1, 186037, Control_c, 0, 64, 23
1, 186053, Control_c, 0, 64, 34
1, 186066, Note_off_c, 0, 71, 45
1, 186068, Control_c, 0, 64, 46
1, 186081, Note_off_c, 0, 69, 60
1, 186083, Control_c, 0, 64, 61
1, 186092, Note_off_c, 0, 78, 66
1, 186094, Note_on_c, 0, 68, 64
1, 186094, Note_on_c, 0, 76, 77
1, 186097, Control_c, 0, 64, 74
1, 186112, Control_c, 0, 64, 93
1, 186127, Control_c, 0, 64, 95
1, 186154, Note_off_c, 0, 76, 65
1, 186159, Note_off_c, 0, 68, 58
1, 186166, Note_on_c, 0, 62, 52
1, 186172, Control_c, 0, 64, 96
1, 186184, Note_on_c, 0, 83, 68
1, 186191, Note_off_c, 0, 62, 59
1, 186216, Control_c, 0, 64, 96
1, 186231, Control_c, 0, 64, 99
1, 186246, Control_c, 0, 64, 103
1, 186260, Control_c, 0, 64, 106
1, 186264, Note_off_c, 0, 83, 64
1, 186270, Note_on_c, 0, 71, 64
1, 186272, Note_on_c, 0, 80, 79
1, 186284, Note_on_c, 0, 76, 57
1, 186289, Control_c, 0, 64, 107
1, 186319, Control_c, 0, 64, 108
1, 186327, Note_off_c, 0, 71, 65
1, 186332, Note_off_c, 0, 76, 0
1, 186333, Control_c, 0, 64, 109
1, 186348, Note_off_c, 0, 80, 60
1, 186348, Control_c, 0, 64, 110
1, 186358, Note_on_c, 0, 73, 59
1, 186363, Control_c, 0, 64, 111
1, 186364, Note_on_c, 0, 81, 64
1, 186369, Poly_aftertouch_c, 0, 76, 127
1, 186378, Control_c, 0, 64, 113
1, 186390, Note_off_c, 0, 73, 66
1, 186407, Control_c, 0, 64, 114
1, 186436, Poly_aftertouch_c, 0, 76, 0
1, 186437, Control_c, 0, 64, 115
1, 186439, Note_off_c, 0, 81, 63
1, 186444, Note_on_c, 0, 80, 79
1, 186450, Note_on_c, 0, 71, 45
1, 186480, Note_off_c, 0, 71, 62
1, 186495, Note_off_c, 0, 80, 60
1, 186542, Note_on_c, 0, 62, 77
1, 186547, Note_on_c, 0, 88, 79
1, 186584, Note_off_c, 0, 62, 62
1, 186593, Control_c, 0, 64, 114
1, 186607, Control_c, 0, 64, 105
1, 186622, Control_c, 0, 64, 88
1, 186633, Note_on_c, 0, 74, 70
1, 186635, Note_off_c, 0, 88, 62
1, 186637, Control_c, 0, 64, 72
1, 186638, Note_on_c, 0, 80, 68
1, 186641, Note_on_c, 0, 83, 60
1, 186652, Control_c, 0, 64, 61
1, 186667, Control_c, 0, 64, 54
1, 186682, Control_c, 0, 64, 52
1, 186691, Note_off_c, 0, 74, 52
1, 186697, Control_c, 0, 64, 55
1, 186712, Control_c, 0, 64, 61
1, 186714, Note_on_c, 0, 76, 72
1, 186719, Note_off_c, 0, 83, 66
1, 186724, Note_on_c, 0, 85, 72
1, 186726, Control_c, 0, 64, 67
1, 186741, Control_c, 0, 64, 76
1, 186756, Control_c, 0, 64, 84
1, 186771, Note_off_c, 0, 76, 63
1, 186771, Control_c, 0, 64, 89
1, 186786, Control_c, 0, 64, 94
1, 186795, Note_off_c, 0, 85, 65
1, 186799, Note_on_c, 0, 83, 71
1, 186800, Control_c, 0, 64, 101
1, 186802, Note_on_c, 0, 74, 67
1, 186810, Note_off_c, 0, 80, 33
1, 186815, Control_c, 0, 64, 114
1, 186829, Note_off_c, 0, 83, 67
1, 186830, Control_c, 0, 64, 127
1, 186843, Note_off_c, 0, 74, 57
1, 186894, Note_on_c, 0, 92, 77
1, 186895, Note_on_c, 0, 62, 29
1, 186918, Note_off_c, 0, 92, 65
1, 186931, Note_off_c, 0, 62, 52
1, 186941, Poly_aftertouch_c, 0, 64, 127
1, 186965, Poly_aftertouch_c, 0, 64, 0
1, 186992, Note_on_c, 0, 88, 87
1, 186993, Note_on_c, 0, 80, 77
1, 187001, Note_on_c, 0, 83, 69
1, 187054, Note_off_c, 0, 80, 62
1, 187077, Note_on_c, 0, 90, 91
1, 187079, Note_on_c, 0, 81, 73
1, 187086, Note_off_c, 0, 88, 66
1, 187110, Note_off_c, 0, 83, 59
1, 187162, Note_off_c, 0, 81, 57
1, 187163, Note_on_c, 0, 80, 68
1, 187166, Note_on_c, 0, 88, 86
1, 187171, Control_c, 0, 64, 100
1, 187175, Note_off_c, 0, 90, 67
1, 187177, Note_on_c, 0, 83, 56
1, 187186, Control_c, 0, 64, 77
1, 187201, Control_c, 0, 64, 64
1, 187216, Control_c, 0, 64, 52
1, 187238, Control_c, 0, 64, 40
1, 187242, Note_off_c, 0, 80, 61
1, 187253, Control_c, 0, 64, 35
1, 187256, Note_on_c, 0, 74, 52
1, 187268, Control_c, 0, 64, 36
1, 187272, Note_on_c, 0, 92, 88
1, 187278, Note_off_c, 0, 88, 66
1, 187282, Control_c, 0, 64, 39
1, 187292, Note_off_c, 0, 83, 62
1, 187297, Control_c, 0, 64, 46
1, 187312, Control_c, 0, 64, 55
1, 187325, Note_off_c, 0, 92, 67
1, 187327, Control_c, 0, 64, 65
1, 187342, Control_c, 0, 64, 76
1, 187344, Note_off_c, 0, 74, 60
1, 187356, Control_c, 0, 64, 85
1, 187361, Note_on_c, 0, 80, 67
1, 187364, Note_on_c, 0, 88, 86
1, 187371, Control_c, 0, 64, 88
1, 187375, Note_on_c, 0, 83, 64
1, 187386, Control_c, 0, 64, 92
1, 187400, Control_c, 0, 64, 96
1, 187415, Control_c, 0, 64, 101
1, 187430, Control_c, 0, 64, 102
1, 187431, Note_off_c, 0, 80, 62
1, 187448, Note_on_c, 0, 89, 80
1, 187454, Note_off_c, 0, 88, 66
1, 187459, Note_off_c, 0, 83, 64
1, 187466, Note_on_c, 0, 81, 46
1, 187534, Note_off_c, 0, 89, 65
1, 187540, Note_on_c, 0, 88, 79
1, 187552, Note_on_c, 0, 80, 52
1, 187552, Note_on_c, 0, 83, 52
1, 187564, Control_c, 0, 64, 103
1, 187579, Control_c, 0, 64, 104
1, 187594, Control_c, 0, 64, 105
1, 187607, Note_off_c, 0, 83, 44
1, 187608, Control_c, 0, 64, 108
1, 187609, Note_off_c, 0, 81, 40
1, 187612, Note_off_c, 0, 80, 58
1, 187616, Note_on_c, 0, 74, 54
1, 187623, Control_c, 0, 64, 109
1, 187636, Note_off_c, 0, 88, 64
1, 187638, Note_on_c, 0, 92, 80
1, 187638, Control_c, 0, 64, 111
1, 187654, Control_c, 0, 64, 113
1, 187714, Note_off_c, 0, 92, 59
1, 187738, Note_on_c, 0, 88, 71
1, 187741, Note_on_c, 0, 83, 61
1, 187750, Note_on_c, 0, 80, 49
1, 187787, Control_c, 0, 64, 111
1, 187797, Note_off_c, 0, 83, 54
1, 187802, Note_off_c, 0, 80, 61
1, 187802, Control_c, 0, 64, 110
1, 187817, Control_c, 0, 64, 108
1, 187831, Note_off_c, 0, 88, 63
1, 187831, Control_c, 0, 64, 108
1, 187837, Note_on_c, 0, 90, 67
1, 187837, Note_off_c, 0, 74, 29
1, 187846, Control_c, 0, 64, 105
1, 187852, Note_on_c, 0, 81, 48
1, 187861, Control_c, 0, 64, 103
1, 187876, Control_c, 0, 64, 100
1, 187891, Control_c, 0, 64, 98
1, 187905, Control_c, 0, 64, 96
1, 187920, Control_c, 0, 64, 94
1, 187935, Control_c, 0, 64, 91
1, 187950, Control_c, 0, 64, 88
1, 187965, Control_c, 0, 64, 85
1, 187987, Control_c, 0, 64, 81
1, 188002, Control_c, 0, 64, 79
1, 188012, Note_off_c, 0, 81, 41
1, 188017, Control_c, 0, 64, 76
1, 188027, Note_on_c, 0, 80, 46
1, 188031, Control_c, 0, 64, 73
1, 188046, Control_c, 0, 64, 68
1, 188061, Control_c, 0, 64, 61
1, 188076, Control_c, 0, 64, 49
1, 188091, Control_c, 0, 64, 21
1, 188095, Note_off_c, 0, 90, 62
1, 188102, Note_on_c, 0, 88, 53
1, 188105, Control_c, 0, 64, 0
1, 188113, Note_on_c, 0, 83, 42
1, 188194, Control_c, 0, 64, 24
1, 188205, Note_off_c, 0, 80, 60
1, 188209, Control_c, 0, 64, 37
1, 188223, Control_c, 0, 64, 49
1, 188238, Control_c, 0, 64, 60
1, 188253, Control_c, 0, 64, 70
1, 188268, Control_c, 0, 64, 81
1, 188283, Control_c, 0, 64, 82
1, 188303, Note_off_c, 0, 88, 64
1, 188311, Note_on_c, 0, 92, 62
1, 188312, Control_c, 0, 64, 82
1, 188327, Control_c, 0, 64, 83
1, 188342, Control_c, 0, 64, 84
1, 188357, Control_c, 0, 64, 84
1, 188367, Note_off_c, 0, 83, 45
1, 188427, Note_off_c, 0, 92, 60
1, 188436, Note_on_c, 0, 89, 61
1, 188526, Note_on_c, 0, 77, 47
1, 188551, Note_off_c, 0, 89, 63
1, 188557, Note_on_c, 0, 86, 69
1, 188608, Note_off_c, 0, 77, 45
1, 188621, Note_off_c, 0, 86, 59
1, 188654, Note_on_c, 0, 83, 63
1, 188664, Note_on_c, 0, 74, 48
1, 188703, Note_off_c, 0, 83, 61
1, 188741, Note_off_c, 0, 74, 62
1, 188763, Note_on_c, 0, 80, 72
1, 188791, Note_on_c, 0, 71, 37
1, 188795, Control_c, 0, 64, 85
1, 188836, Note_off_c, 0, 71, 49
1, 188854, Control_c, 0, 64, 85
1, 188867, Note_on_c, 0, 77, 69
1, 188883, Note_on_c, 0, 68, 49
1, 188884, Control_c, 0, 64, 86
1, 188899, Note_off_c, 0, 80, 37
1, 188899, Control_c, 0, 64, 86
1, 188928, Control_c, 0, 64, 87
1, 188943, Note_off_c, 0, 68, 61
1, 188972, Note_on_c, 0, 74, 75
1, 188972, Note_off_c, 0, 77, 64
1, 188973, Control_c, 0, 64, 87
1, 188988, Control_c, 0, 64, 88
1, 188992, Note_on_c, 0, 65, 64
1, 189044, Note_off_c, 0, 74, 62
1, 189046, Control_c, 0, 64, 88
1, 189060, Note_off_c, 0, 65, 58
1, 189075, Note_on_c, 0, 71, 72
1, 189094, Note_on_c, 0, 62, 68
1, 189106, Control_c, 0, 64, 89
1, 189135, Control_c, 0, 64, 89
1, 189159, Note_off_c, 0, 71, 63
1, 189203, Note_off_c, 0, 62, 60
1, 189209, Note_on_c, 0, 59, 59
1, 189209, Note_on_c, 0, 68, 80
1, 189343, Note_off_c, 0, 59, 61
1, 189354, Note_on_c, 0, 56, 60
1, 189354, Note_on_c, 0, 62, 88
1, 189400, Note_off_c, 0, 68, 51
1, 189486, Note_off_c, 0, 56, 64
1, 189533, Note_on_c, 0, 63, 82
1, 189534, Note_on_c, 0, 53, 68
1, 189559, Control_c, 0, 64, 90
1, 189560, Note_off_c, 0, 53, 68
1, 189573, Note_off_c, 0, 62, 59
1, 189574, Control_c, 0, 64, 91
1, 189604, Control_c, 0, 64, 91
1, 189619, Control_c, 0, 64, 92
1, 189648, Control_c, 0, 64, 93
1, 189663, Control_c, 0, 64, 93
1, 189737, Control_c, 0, 64, 92
1, 189752, Control_c, 0, 64, 89
1, 189767, Control_c, 0, 64, 84
1, 189782, Control_c, 0, 64, 72
1, 189783, Note_on_c, 0, 34, 68
1, 189796, Control_c, 0, 64, 58
1, 189811, Control_c, 0, 64, 0
1, 189818, Note_off_c, 0, 63, 61
1, 189850, Note_on_c, 0, 65, 79
1, 189915, Control_c, 0, 64, 15
1, 189930, Control_c, 0, 64, 37
1, 189944, Control_c, 0, 64, 53
1, 189951, Note_off_c, 0, 34, 64
1, 189959, Control_c, 0, 64, 67
1, 189974, Control_c, 0, 64, 115
1, 189989, Control_c, 0, 64, 127
1, 190077, Note_off_c, 0, 65, 62
1, 190114, Note_on_c, 0, 70, 64
1, 190196, Note_off_c, 0, 70, 60
1, 190247, Note_on_c, 0, 56, 43
1, 190253, Note_on_c, 0, 72, 70
1, 190306, Note_off_c, 0, 56, 65
1, 190323, Note_on_c, 0, 58, 61
1, 190336, Note_off_c, 0, 72, 53
1, 190340, Note_on_c, 0, 74, 70
1, 190358, Note_off_c, 0, 58, 64
1, 190406, Note_on_c, 0, 62, 49
1, 190414, Note_on_c, 0, 75, 71
1, 190414, Note_off_c, 0, 74, 53
1, 190453, Note_off_c, 0, 62, 47
1, 190467, Note_off_c, 0, 75, 62
1, 190468, Note_on_c, 0, 58, 52
1, 190497, Note_on_c, 0, 77, 75
1, 190521, Note_off_c, 0, 58, 58
1, 190548, Note_on_c, 0, 56, 58
1, 190575, Note_on_c, 0, 79, 80
1, 190602, Note_off_c, 0, 77, 36
1, 190602, Note_off_c, 0, 56, 65
1, 190628, Note_on_c, 0, 53, 60
1, 190633, Control_c, 0, 64, 91
1, 190648, Note_on_c, 0, 80, 78
1, 190648, Control_c, 0, 64, 66
1, 190663, Control_c, 0, 64, 50
1, 190678, Control_c, 0, 64, 33
1, 190693, Note_off_c, 0, 79, 57
1, 190707, Control_c, 0, 64, 42
1, 190718, Note_off_c, 0, 53, 60
1, 190720, Note_on_c, 0, 56, 53
1, 190722, Control_c, 0, 64, 52
1, 190736, Note_on_c, 0, 82, 74
1, 190737, Control_c, 0, 64, 63
1, 190752, Control_c, 0, 64, 90
1, 190756, Note_off_c, 0, 80, 63
1, 190766, Control_c, 0, 64, 127
1, 190783, Note_off_c, 0, 82, 63
1, 190784, Note_off_c, 0, 56, 65
1, 190811, Note_on_c, 0, 58, 49
1, 190815, Note_on_c, 0, 84, 76
1, 190846, Note_off_c, 0, 58, 64
1, 190884, Note_on_c, 0, 62, 49
1, 190895, Note_on_c, 0, 86, 75
1, 190903, Note_off_c, 0, 84, 60
1, 190961, Note_off_c, 0, 62, 47
1, 190974, Note_on_c, 0, 58, 57
1, 190980, Note_on_c, 0, 87, 79
1, 190984, Note_off_c, 0, 86, 61
1, 191033, Note_off_c, 0, 87, 65
1, 191044, Note_off_c, 0, 58, 60
1, 191059, Note_on_c, 0, 89, 81
1, 191082, Note_on_c, 0, 56, 41
1, 191129, Note_off_c, 0, 56, 55
1, 191139, Note_on_c, 0, 91, 84
1, 191189, Note_off_c, 0, 89, 35
1, 191238, Note_on_c, 0, 92, 84
1, 191245, Note_on_c, 0, 50, 36
1, 191281, Note_off_c, 0, 91, 55
1, 191293, Control_c, 0, 64, 110
1, 191308, Control_c, 0, 64, 103
1, 191323, Control_c, 0, 64, 91
1, 191338, Control_c, 0, 64, 72
1, 191353, Control_c, 0, 64, 61
1, 191356, Note_on_c, 0, 96, 77
1, 191368, Control_c, 0, 64, 46
1, 191383, Control_c, 0, 64, 27
1, 191386, Note_off_c, 0, 92, 63
1, 191397, Control_c, 0, 64, 14
1, 191442, Control_c, 0, 64, 19
1, 191456, Control_c, 0, 64, 28
1, 191471, Control_c, 0, 64, 37
1, 191477, Note_on_c, 0, 94, 82
1, 191486, Control_c, 0, 64, 49
1, 191501, Control_c, 0, 64, 61
1, 191504, Note_off_c, 0, 96, 63
1, 191509, Note_on_c, 0, 56, 48
1, 191511, Note_off_c, 0, 50, 41
1, 191515, Control_c, 0, 64, 81
1, 191530, Control_c, 0, 64, 127
1, 191563, Note_off_c, 0, 94, 65
1, 191631, Note_off_c, 0, 56, 58
1, 191648, Note_on_c, 0, 58, 43
1, 191764, Note_off_c, 0, 58, 62
1, 191800, Note_on_c, 0, 62, 49
1, 191904, Note_off_c, 0, 62, 54
1, 191931, Note_on_c, 0, 58, 43
1, 192081, Note_on_c, 0, 56, 49
1, 192111, Note_off_c, 0, 58, 43
1, 192123, Note_off_c, 0, 56, 64
1, 192380, Note_on_c, 0, 46, 46
1, 192428, Control_c, 0, 64, 108
1, 192444, Control_c, 0, 64, 101
1, 192459, Control_c, 0, 64, 95
1, 192481, Control_c, 0, 64, 91
1, 192495, Control_c, 0, 64, 87
1, 192510, Control_c, 0, 64, 84
1, 192525, Control_c, 0, 64, 80
1, 192540, Note_on_c, 0, 65, 64
1, 192540, Control_c, 0, 64, 75
1, 192555, Control_c, 0, 64, 67
1, 192569, Control_c, 0, 64, 58
1, 192584, Control_c, 0, 64, 38
1, 192599, Control_c, 0, 64, 0
1, 192673, Control_c, 0, 64, 15
1, 192688, Control_c, 0, 64, 34
1, 192700, Note_off_c, 0, 46, 65
1, 192703, Control_c, 0, 64, 48
1, 192718, Control_c, 0, 64, 62
1, 192733, Control_c, 0, 64, 84
1, 192748, Control_c, 0, 64, 127
1, 193015, Note_on_c, 0, 56, 34
1, 193157, Note_off_c, 0, 56, 36
1, 193166, Note_on_c, 0, 58, 44
1, 193248, Note_off_c, 0, 58, 61
1, 193309, Note_on_c, 0, 62, 37
1, 193437, Note_on_c, 0, 58, 43
1, 193445, Note_off_c, 0, 62, 45
1, 193536, Note_off_c, 0, 58, 60
1, 193567, Note_on_c, 0, 56, 42
1, 193696, Note_on_c, 0, 67, 63
1, 193718, Control_c, 0, 64, 117
1, 193733, Control_c, 0, 64, 109
1, 193746, Note_on_c, 0, 63, 40
1, 193748, Control_c, 0, 64, 105
1, 193749, Note_off_c, 0, 56, 41
1, 193762, Control_c, 0, 64, 99
1, 193777, Control_c, 0, 64, 91
1, 193792, Control_c, 0, 64, 76
1, 193804, Note_off_c, 0, 65, 54
1, 193807, Control_c, 0, 64, 64
1, 193822, Control_c, 0, 64, 47
1, 193836, Control_c, 0, 64, 25
1, 193851, Control_c, 0, 64, 16
1, 193866, Control_c, 0, 64, 20
1, 193869, Note_on_c, 0, 58, 43
1, 193881, Control_c, 0, 64, 31
1, 193896, Control_c, 0, 64, 42
1, 193910, Control_c, 0, 64, 58
1, 193923, Note_off_c, 0, 63, 44
1, 193925, Control_c, 0, 64, 73
1, 193940, Control_c, 0, 64, 127
1, 193943, Note_off_c, 0, 58, 57
1, 193963, Note_on_c, 0, 56, 49
1, 194083, Note_off_c, 0, 56, 55
1, 194117, Note_on_c, 0, 62, 39
1, 194118, Note_on_c, 0, 65, 68
1, 194230, Control_c, 0, 64, 95
1, 194235, Note_on_c, 0, 58, 45
1, 194245, Control_c, 0, 64, 72
1, 194260, Control_c, 0, 64, 60
1, 194274, Control_c, 0, 64, 46
1, 194289, Control_c, 0, 64, 39
1, 194304, Control_c, 0, 64, 44
1, 194307, Note_off_c, 0, 62, 40
1, 194319, Control_c, 0, 64, 51
1, 194334, Control_c, 0, 64, 60
1, 194347, Note_on_c, 0, 56, 50
1, 194349, Control_c, 0, 64, 69
1, 194364, Control_c, 0, 64, 84
1, 194378, Note_off_c, 0, 58, 37
1, 194378, Control_c, 0, 64, 90
1, 194381, Note_off_c, 0, 67, 35
1, 194423, Control_c, 0, 64, 91
1, 194465, Note_off_c, 0, 56, 63
1, 194471, Note_on_c, 0, 62, 55
1, 194581, Note_on_c, 0, 58, 53
1, 194610, Note_off_c, 0, 62, 36
1, 194659, Note_on_c, 0, 67, 74
1, 194693, Note_off_c, 0, 58, 54
1, 194700, Note_on_c, 0, 56, 44
1, 194703, Note_off_c, 0, 65, 63
1, 194829, Control_c, 0, 64, 90
1, 194830, Note_off_c, 0, 56, 59
1, 194845, Control_c, 0, 64, 89
1, 194855, Note_on_c, 0, 60, 38
1, 194860, Control_c, 0, 64, 86
1, 194875, Control_c, 0, 64, 82
1, 194889, Control_c, 0, 64, 74
1, 194896, Note_on_c, 0, 63, 76
1, 194904, Control_c, 0, 64, 63
1, 194908, Note_off_c, 0, 67, 60
1, 194919, Control_c, 0, 64, 50
1, 194934, Control_c, 0, 64, 29
1, 194949, Control_c, 0, 64, 0
1, 194978, Control_c, 0, 64, 12
1, 194993, Control_c, 0, 64, 24
1, 195008, Control_c, 0, 64, 38
1, 195022, Control_c, 0, 64, 52
1, 195036, Note_on_c, 0, 58, 52
1, 195037, Control_c, 0, 64, 66
1, 195052, Control_c, 0, 64, 95
1, 195067, Control_c, 0, 64, 127
1, 195145, Note_off_c, 0, 58, 58
1, 195162, Note_on_c, 0, 56, 42
1, 195186, Note_on_c, 0, 72, 71
1, 195189, Note_off_c, 0, 63, 56
1, 195206, Note_off_c, 0, 60, 42
1, 195378, Control_c, 0, 64, 122
1, 195383, Note_on_c, 0, 62, 39
1, 195389, Note_off_c, 0, 56, 43
1, 195393, Control_c, 0, 64, 114
1, 195407, Control_c, 0, 64, 109
1, 195418, Note_on_c, 0, 65, 64
1, 195422, Control_c, 0, 64, 105
1, 195437, Control_c, 0, 64, 99
1, 195452, Control_c, 0, 64, 92
1, 195475, Control_c, 0, 64, 80
1, 195489, Control_c, 0, 64, 67
1, 195504, Control_c, 0, 64, 57
1, 195519, Control_c, 0, 64, 43
1, 195520, Note_off_c, 0, 72, 56
1, 195534, Control_c, 0, 64, 31
1, 195548, Control_c, 0, 64, 32
1, 195563, Control_c, 0, 64, 36
1, 195578, Control_c, 0, 64, 44
1, 195579, Note_on_c, 0, 58, 40
1, 195593, Control_c, 0, 64, 53
1, 195608, Control_c, 0, 64, 62
1, 195622, Control_c, 0, 64, 70
1, 195638, Control_c, 0, 64, 78
1, 195653, Control_c, 0, 64, 79
1, 195668, Control_c, 0, 64, 80
1, 195683, Control_c, 0, 64, 81
1, 195696, Note_off_c, 0, 62, 29
1, 195698, Control_c, 0, 64, 82
1, 195712, Note_on_c, 0, 67, 68
1, 195712, Control_c, 0, 64, 83
1, 195721, Note_on_c, 0, 56, 43
1, 195742, Control_c, 0, 64, 83
1, 195757, Control_c, 0, 64, 84
1, 195773, Note_off_c, 0, 58, 40
1, 195850, Note_off_c, 0, 56, 0
1, 195860, Note_on_c, 0, 70, 68
1, 195874, Poly_aftertouch_c, 0, 56, 0
1, 195878, Note_on_c, 0, 62, 38
1, 195917, Note_off_c, 0, 67, 59
1, 195961, Note_off_c, 0, 65, 42
1, 195993, Note_on_c, 0, 68, 73
1, 195995, Note_on_c, 0, 58, 47
1, 196054, Note_off_c, 0, 70, 51
1, 196093, Note_off_c, 0, 58, 56
1, 196102, Note_off_c, 0, 62, 39
1, 196106, Note_on_c, 0, 56, 44
1, 196126, Note_on_c, 0, 67, 72
1, 196127, Control_c, 0, 64, 83
1, 196156, Control_c, 0, 64, 82
1, 196164, Note_off_c, 0, 68, 58
1, 196171, Control_c, 0, 64, 81
1, 196186, Control_c, 0, 64, 80
1, 196201, Control_c, 0, 64, 76
1, 196224, Control_c, 0, 64, 67
1, 196238, Control_c, 0, 64, 58
1, 196253, Control_c, 0, 64, 44
1, 196255, Note_off_c, 0, 67, 62
1, 196256, Note_off_c, 0, 56, 54
1, 196265, Note_on_c, 0, 65, 65
1, 196268, Control_c, 0, 64, 29
1, 196271, Note_on_c, 0, 62, 40
1, 196283, Control_c, 0, 64, 26
1, 196298, Control_c, 0, 64, 27
1, 196312, Control_c, 0, 64, 32
1, 196327, Control_c, 0, 64, 41
1, 196342, Control_c, 0, 64, 52
1, 196357, Control_c, 0, 64, 62
1, 196371, Control_c, 0, 64, 71
1, 196386, Control_c, 0, 64, 77
1, 196441, Note_on_c, 0, 58, 46
1, 196476, Note_on_c, 0, 67, 65
1, 196482, Note_off_c, 0, 65, 62
1, 196485, Note_off_c, 0, 62, 32
1, 196550, Control_c, 0, 64, 77
1, 196565, Note_off_c, 0, 58, 57
1, 196565, Control_c, 0, 64, 76
1, 196579, Control_c, 0, 64, 74
1, 196580, Note_on_c, 0, 56, 46
1, 196594, Control_c, 0, 64, 73
1, 196609, Control_c, 0, 64, 71
1, 196624, Control_c, 0, 64, 69
1, 196639, Control_c, 0, 64, 67
1, 196654, Control_c, 0, 64, 65
1, 196668, Control_c, 0, 64, 62
1, 196683, Control_c, 0, 64, 59
1, 196698, Control_c, 0, 64, 57
1, 196713, Control_c, 0, 64, 55
1, 196727, Control_c, 0, 64, 51
1, 196742, Control_c, 0, 64, 41
1, 196757, Control_c, 0, 64, 20
1, 196763, Note_off_c, 0, 67, 57
1, 196770, Note_off_c, 0, 56, 35
1, 196772, Control_c, 0, 64, 0
1, 196772, Note_on_c, 0, 61, 39
1, 196784, Note_on_c, 0, 63, 55
1, 196860, Control_c, 0, 64, 26
1, 196875, Control_c, 0, 64, 43
1, 196890, Control_c, 0, 64, 56
1, 196905, Control_c, 0, 64, 67
1, 196920, Control_c, 0, 64, 85
1, 196934, Control_c, 0, 64, 90
1, 196972, Control_c, 0, 64, 91
1, 196979, Note_on_c, 0, 58, 42
1, 196986, Control_c, 0, 64, 92
1, 197001, Control_c, 0, 64, 92
1, 197008, Note_off_c, 0, 63, 59
1, 197016, Control_c, 0, 64, 93
1, 197031, Control_c, 0, 64, 94
1, 197033, Note_off_c, 0, 61, 31
1, 197046, Control_c, 0, 64, 95
1, 197060, Control_c, 0, 67, 11
1, 197075, Control_c, 0, 67, 16
1, 197090, Control_c, 0, 67, 26
1, 197102, Note_on_c, 0, 70, 45
1, 197105, Control_c, 0, 64, 96
1, 197105, Control_c, 0, 67, 38
1, 197114, Note_on_c, 0, 56, 42
1, 197115, Note_off_c, 0, 58, 37
1, 197120, Control_c, 0, 67, 52
1, 197134, Control_c, 0, 64, 96
1, 197134, Control_c, 0, 67, 67
1, 197149, Control_c, 0, 67, 79
1, 197164, Control_c, 0, 67, 89
1, 197179, Control_c, 0, 67, 99
1, 197183, Note_off_c, 0, 70, 61
1, 197183, Note_off_c, 0, 56, 63
1, 197193, Control_c, 0, 67, 109
1, 197208, Control_c, 0, 67, 116
1, 197223, Control_c, 0, 64, 97
1, 197223, Control_c, 0, 67, 122
1, 197239, Control_c, 0, 67, 127
1, 197242, Note_on_c, 0, 72, 50
1, 197247, Note_on_c, 0, 61, 35
1, 197283, Control_c, 0, 64, 97
1, 197306, Note_off_c, 0, 72, 43
1, 197327, Note_off_c, 0, 61, 39
1, 197328, Control_c, 0, 64, 98
1, 197338, Note_on_c, 0, 73, 50
1, 197341, Note_on_c, 0, 56, 42
1, 197357, Control_c, 0, 64, 99
1, 197372, Control_c, 0, 64, 99
1, 197387, Control_c, 0, 64, 100
1, 197393, Note_off_c, 0, 56, 57
1, 197401, Control_c, 0, 64, 101
1, 197402, Note_off_c, 0, 73, 53
1, 197416, Control_c, 0, 64, 101
1, 197420, Note_on_c, 0, 75, 47
1, 197421, Note_on_c, 0, 55, 47
1, 197460, Note_off_c, 0, 75, 53
1, 197471, Note_off_c, 0, 55, 65
1, 197476, Control_c, 0, 64, 102
1, 197504, Note_on_c, 0, 77, 58
1, 197547, Note_on_c, 0, 61, 25
1, 197569, Note_off_c, 0, 77, 42
1, 197601, Note_on_c, 0, 79, 50
1, 197625, Note_off_c, 0, 61, 41
1, 197671, Note_on_c, 0, 80, 60
1, 197689, Note_on_c, 0, 53, 35
1, 197716, Note_off_c, 0, 79, 53
1, 197752, Note_off_c, 0, 53, 58
1, 197769, Note_off_c, 0, 80, 61
1, 197771, Note_on_c, 0, 82, 55
1, 197784, Note_on_c, 0, 51, 45
1, 197803, Note_off_c, 0, 82, 64
1, 197821, Note_off_c, 0, 51, 66
1, 197866, Note_on_c, 0, 84, 54
1, 197928, Control_c, 0, 64, 101
1, 197942, Control_c, 0, 64, 100
1, 197957, Control_c, 0, 64, 98
1, 197965, Note_off_c, 0, 84, 36
1, 197966, Note_on_c, 0, 85, 53
1, 197972, Control_c, 0, 64, 95
1, 197987, Control_c, 0, 64, 93
1, 198002, Control_c, 0, 64, 91
1, 198016, Control_c, 0, 64, 89
1, 198032, Control_c, 0, 64, 87
1, 198034, Note_on_c, 0, 44, 41
1, 198047, Control_c, 0, 64, 85
1, 198062, Control_c, 0, 64, 81
1, 198077, Control_c, 0, 64, 73
1, 198092, Control_c, 0, 64, 64
1, 198106, Control_c, 0, 64, 53
1, 198121, Control_c, 0, 64, 29
1, 198136, Control_c, 0, 64, 0
1, 198146, Note_on_c, 0, 89, 50
1, 198182, Note_off_c, 0, 85, 35
1, 198210, Control_c, 0, 64, 19
1, 198225, Control_c, 0, 64, 31
1, 198239, Control_c, 0, 64, 42
1, 198254, Control_c, 0, 64, 54
1, 198269, Control_c, 0, 64, 65
1, 198284, Control_c, 0, 64, 81
1, 198292, Note_off_c, 0, 44, 53
1, 198299, Control_c, 0, 64, 92
1, 198328, Control_c, 0, 64, 92
1, 198343, Control_c, 0, 64, 94
1, 198351, Note_on_c, 0, 87, 55
1, 198358, Control_c, 0, 64, 98
1, 198373, Control_c, 0, 64, 103
1, 198385, Note_off_c, 0, 89, 36
1, 198388, Control_c, 0, 64, 108
1, 198403, Control_c, 0, 64, 111
1, 198418, Control_c, 0, 64, 113
1, 198432, Control_c, 0, 64, 114
1, 198447, Control_c, 0, 64, 115
1, 198467, Note_off_c, 0, 87, 54
1, 198469, Control_c, 0, 64, 117
1, 198484, Control_c, 0, 64, 127
1, 198531, Note_on_c, 0, 54, 42
1, 198671, Note_on_c, 0, 56, 43
1, 198685, Note_off_c, 0, 54, 34
1, 198738, Note_off_c, 0, 56, 64
1, 198787, Note_on_c, 0, 60, 43
1, 198841, Control_c, 0, 67, 127
1, 198855, Control_c, 0, 67, 119
1, 198870, Control_c, 0, 67, 110
1, 198885, Control_c, 0, 67, 101
1, 198894, Note_off_c, 0, 60, 57
1, 198900, Control_c, 0, 67, 90
1, 198915, Control_c, 0, 67, 79
1, 198921, Note_on_c, 0, 56, 40
1, 198929, Control_c, 0, 67, 68
1, 198944, Control_c, 0, 67, 57
1, 198959, Control_c, 0, 67, 47
1, 198974, Control_c, 0, 67, 37
1, 198988, Control_c, 0, 67, 28
1, 199004, Control_c, 0, 67, 17
1, 199005, Note_off_c, 0, 56, 53
1, 199019, Control_c, 0, 67, 9
1, 199032, Note_on_c, 0, 54, 42
1, 199034, Control_c, 0, 67, 0
1, 199199, Note_off_c, 0, 54, 47
1, 199269, Note_on_c, 0, 61, 34
1, 199335, Note_on_c, 0, 65, 54
1, 199367, Control_c, 0, 64, 97
1, 199381, Control_c, 0, 64, 80
1, 199396, Control_c, 0, 64, 67
1, 199411, Control_c, 0, 64, 58
1, 199426, Control_c, 0, 64, 46
1, 199441, Control_c, 0, 64, 36
1, 199455, Control_c, 0, 64, 35
1, 199470, Control_c, 0, 64, 37
1, 199485, Control_c, 0, 64, 41
1, 199500, Control_c, 0, 64, 49
1, 199515, Control_c, 0, 64, 58
1, 199516, Note_on_c, 0, 56, 40
1, 199529, Control_c, 0, 64, 66
1, 199544, Control_c, 0, 64, 76
1, 199559, Control_c, 0, 64, 84
1, 199574, Control_c, 0, 64, 89
1, 199589, Control_c, 0, 64, 93
1, 199595, Note_off_c, 0, 61, 38
1, 199604, Control_c, 0, 64, 95
1, 199619, Control_c, 0, 64, 96
1, 199656, Note_on_c, 0, 54, 36
1, 199675, Note_off_c, 0, 56, 51
1, 199679, Control_c, 0, 64, 96
1, 199693, Control_c, 0, 64, 94
1, 199708, Control_c, 0, 64, 91
1, 199723, Control_c, 0, 64, 89
1, 199738, Control_c, 0, 64, 87
1, 199753, Control_c, 0, 64, 84
1, 199768, Control_c, 0, 64, 82
1, 199783, Control_c, 0, 64, 80
1, 199798, Control_c, 0, 64, 78
1, 199804, Note_off_c, 0, 54, 33
1, 199812, Control_c, 0, 64, 76
1, 199827, Control_c, 0, 64, 73
1, 199831, Note_on_c, 0, 60, 32
1, 199833, Note_on_c, 0, 63, 50
1, 199842, Control_c, 0, 64, 69
1, 199857, Control_c, 0, 64, 65
1, 199872, Control_c, 0, 64, 59
1, 199886, Control_c, 0, 64, 48
1, 199901, Control_c, 0, 64, 31
1, 199916, Control_c, 0, 64, 12
1, 199931, Control_c, 0, 64, 0
1, 199938, Note_off_c, 0, 65, 37
1, 199965, Note_on_c, 0, 56, 43
1, 199983, Control_c, 0, 64, 8
1, 199997, Control_c, 0, 64, 16
1, 200012, Control_c, 0, 64, 26
1, 200027, Control_c, 0, 64, 36
1, 200041, Note_off_c, 0, 60, 42
1, 200042, Control_c, 0, 64, 47
1, 200057, Control_c, 0, 64, 58
1, 200072, Control_c, 0, 64, 66
1, 200075, Note_on_c, 0, 54, 47
1, 200086, Control_c, 0, 64, 77
1, 200101, Control_c, 0, 64, 82
1, 200130, Control_c, 0, 64, 82
1, 200138, Note_off_c, 0, 56, 48
1, 200145, Control_c, 0, 64, 83
1, 200160, Control_c, 0, 64, 84
1, 200169, Note_off_c, 0, 54, 63
1, 200175, Control_c, 0, 64, 85
1, 200190, Control_c, 0, 64, 86
1, 200194, Note_on_c, 0, 60, 40
1, 200264, Control_c, 0, 64, 86
1, 200304, Note_off_c, 0, 60, 55
1, 200319, Note_on_c, 0, 56, 38
1, 200352, Control_c, 0, 64, 87
1, 200394, Note_on_c, 0, 65, 61
1, 200438, Note_off_c, 0, 63, 62
1, 200441, Note_off_c, 0, 56, 53
1, 200468, Note_on_c, 0, 54, 45
1, 200546, Control_c, 0, 64, 86
1, 200549, Note_off_c, 0, 54, 56
1, 200560, Control_c, 0, 64, 85
1, 200575, Control_c, 0, 64, 83
1, 200581, Note_on_c, 0, 58, 43
1, 200590, Control_c, 0, 64, 81
1, 200605, Control_c, 0, 64, 74
1, 200615, Note_on_c, 0, 61, 61
1, 200620, Control_c, 0, 64, 65
1, 200634, Control_c, 0, 64, 53
1, 200649, Control_c, 0, 64, 33
1, 200656, Note_off_c, 0, 65, 65
1, 200664, Control_c, 0, 64, 14
1, 200679, Control_c, 0, 64, 16
1, 200694, Control_c, 0, 64, 27
1, 200716, Control_c, 0, 64, 37
1, 200731, Control_c, 0, 64, 49
1, 200734, Note_off_c, 0, 58, 57
1, 200743, Note_on_c, 0, 54, 55
1, 200746, Control_c, 0, 64, 61
1, 200760, Control_c, 0, 64, 75
1, 200775, Control_c, 0, 64, 98
1, 200790, Control_c, 0, 64, 99
1, 200838, Note_on_c, 0, 70, 65
1, 200894, Control_c, 0, 64, 99
1, 200898, Note_off_c, 0, 54, 56
1, 200908, Control_c, 0, 64, 98
1, 200912, Note_on_c, 0, 51, 50
1, 200923, Control_c, 0, 64, 97
1, 200938, Control_c, 0, 64, 96
1, 200952, Control_c, 0, 64, 95
1, 200967, Control_c, 0, 64, 94
1, 200982, Control_c, 0, 64, 91
1, 200997, Control_c, 0, 64, 88
1, 201012, Control_c, 0, 64, 85
1, 201026, Control_c, 0, 64, 83
1, 201041, Control_c, 0, 64, 81
1, 201056, Control_c, 0, 64, 79
1, 201071, Control_c, 0, 64, 76
1, 201085, Control_c, 0, 64, 72
1, 201091, Note_on_c, 0, 44, 47
1, 201100, Control_c, 0, 64, 67
1, 201115, Control_c, 0, 64, 60
1, 201130, Control_c, 0, 64, 48
1, 201142, Note_on_c, 0, 63, 59
1, 201145, Control_c, 0, 64, 32
1, 201160, Control_c, 0, 64, 12
1, 201166, Note_off_c, 0, 51, 43
1, 201175, Control_c, 0, 64, 0
1, 201230, Note_off_c, 0, 70, 57
1, 201235, Control_c, 0, 64, 14
1, 201249, Control_c, 0, 64, 29
1, 201264, Control_c, 0, 64, 43
1, 201279, Control_c, 0, 64, 55
1, 201294, Control_c, 0, 64, 65
1, 201309, Control_c, 0, 64, 78
1, 201324, Control_c, 0, 64, 85
1, 201341, Note_on_c, 0, 51, 50
1, 201369, Note_off_c, 0, 44, 50
1, 201398, Control_c, 0, 64, 86
1, 201441, Note_on_c, 0, 65, 70
1, 201544, Note_on_c, 0, 54, 55
1, 201586, Note_off_c, 0, 63, 37
1, 201609, Note_off_c, 0, 51, 40
1, 201690, Note_on_c, 0, 68, 68
1, 201711, Note_on_c, 0, 58, 46
1, 201728, Note_off_c, 0, 65, 65
1, 201731, Control_c, 0, 64, 86
1, 201764, Note_off_c, 0, 54, 36
1, 201856, Note_on_c, 0, 66, 78
1, 201861, Note_on_c, 0, 51, 48
1, 201908, Control_c, 0, 64, 86
1, 201912, Note_off_c, 0, 58, 51
1, 201928, Note_off_c, 0, 61, 38
1, 201938, Control_c, 0, 64, 85
1, 201953, Control_c, 0, 64, 84
1, 201968, Control_c, 0, 64, 83
1, 201983, Control_c, 0, 64, 82
1, 201998, Control_c, 0, 64, 80
1, 202001, Note_on_c, 0, 65, 70
1, 202005, Note_on_c, 0, 53, 53
1, 202005, Note_off_c, 0, 68, 57
1, 202013, Control_c, 0, 64, 79
1, 202028, Control_c, 0, 64, 77
1, 202043, Control_c, 0, 64, 74
1, 202054, Note_off_c, 0, 51, 36
1, 202058, Control_c, 0, 64, 72
1, 202072, Control_c, 0, 64, 69
1, 202087, Note_off_c, 0, 66, 36
1, 202087, Control_c, 0, 64, 67
1, 202102, Control_c, 0, 64, 64
1, 202117, Control_c, 0, 64, 62
1, 202132, Control_c, 0, 64, 59
1, 202144, Note_off_c, 0, 53, 61
1, 202147, Control_c, 0, 64, 55
1, 202162, Control_c, 0, 64, 50
1, 202171, Note_on_c, 0, 54, 50
1, 202176, Control_c, 0, 64, 41
1, 202188, Note_on_c, 0, 63, 61
1, 202191, Control_c, 0, 64, 25
1, 202206, Note_on_c, 0, 60, 43
1, 202213, Control_c, 0, 64, 0
1, 202244, Note_off_c, 0, 65, 55
1, 202317, Control_c, 0, 64, 29
1, 202331, Control_c, 0, 64, 44
1, 202346, Control_c, 0, 64, 57
1, 202359, Note_on_c, 0, 44, 45
1, 202361, Control_c, 0, 64, 66
1, 202364, Note_off_c, 0, 54, 60
1, 202376, Control_c, 0, 64, 82
1, 202391, Control_c, 0, 64, 85
1, 202546, Note_on_c, 0, 56, 42
1, 202564, Note_on_c, 0, 65, 68
1, 202599, Control_c, 0, 64, 85
1, 202613, Control_c, 0, 64, 84
1, 202621, Note_off_c, 0, 63, 58
1, 202624, Note_off_c, 0, 60, 38
1, 202628, Control_c, 0, 64, 83
1, 202643, Control_c, 0, 64, 82
1, 202658, Control_c, 0, 64, 81
1, 202672, Control_c, 0, 64, 80
1, 202687, Control_c, 0, 64, 79
1, 202702, Control_c, 0, 64, 78
1, 202717, Control_c, 0, 64, 77
1, 202718, Note_off_c, 0, 56, 41
1, 202731, Control_c, 0, 64, 76
1, 202747, Control_c, 0, 64, 75
1, 202762, Control_c, 0, 64, 74
1, 202764, Note_on_c, 0, 53, 42
1, 202777, Control_c, 0, 64, 72
1, 202792, Control_c, 0, 64, 71
1, 202806, Control_c, 0, 64, 68
1, 202822, Control_c, 0, 64, 63
1, 202837, Control_c, 0, 64, 54
1, 202851, Note_off_c, 0, 44, 37
1, 202852, Control_c, 0, 64, 35
1, 202867, Control_c, 0, 64, 0
1, 202868, Note_on_c, 0, 62, 60
1, 202882, Note_on_c, 0, 59, 40
1, 202963, Control_c, 0, 64, 18
1, 202978, Control_c, 0, 64, 28
1, 202993, Control_c, 0, 64, 39
1, 203005, Note_off_c, 0, 65, 33
1, 203008, Control_c, 0, 64, 48
1, 203023, Control_c, 0, 64, 57
1, 203037, Control_c, 0, 64, 64
1, 203052, Control_c, 0, 64, 69
1, 203067, Control_c, 0, 64, 72
1, 203076, Note_on_c, 0, 44, 48
1, 203082, Control_c, 0, 64, 73
1, 203085, Note_off_c, 0, 53, 35
1, 203097, Control_c, 0, 64, 75
1, 203107, Note_off_c, 0, 59, 41
1, 203111, Control_c, 0, 64, 78
1, 203126, Control_c, 0, 64, 81
1, 203141, Control_c, 0, 64, 83
1, 203155, Control_c, 0, 64, 84
1, 203170, Control_c, 0, 64, 86
1, 203185, Control_c, 0, 64, 88
1, 203190, Note_off_c, 0, 44, 55
1, 203200, Control_c, 0, 64, 90
1, 203212, Note_on_c, 0, 53, 46
1, 203215, Control_c, 0, 64, 92
1, 203229, Control_c, 0, 64, 93
1, 203244, Control_c, 0, 64, 94
1, 203259, Control_c, 0, 64, 95
1, 203273, Control_c, 0, 64, 96
1, 203288, Control_c, 0, 64, 100
1, 203303, Control_c, 0, 64, 103
1, 203318, Control_c, 0, 64, 107
1, 203333, Control_c, 0, 64, 110
1, 203348, Control_c, 0, 64, 115
1, 203363, Control_c, 0, 64, 127
1, 203372, Note_on_c, 0, 59, 65
1, 203387, Note_off_c, 0, 53, 54
1, 203480, Note_off_c, 0, 59, 52
1, 203525, Note_on_c, 0, 53, 55
1, 203659, Note_on_c, 0, 44, 56
1, 203684, Note_off_c, 0, 53, 55
1, 203723, Note_off_c, 0, 44, 60
1, 203905, Control_c, 0, 64, 115
1, 203920, Control_c, 0, 64, 102
1, 203934, Control_c, 0, 64, 92
1, 203938, Note_on_c, 0, 58, 44
1, 203944, Note_on_c, 0, 46, 35
1, 203949, Control_c, 0, 64, 78
1, 203964, Control_c, 0, 64, 66
1, 203978, Control_c, 0, 64, 56
1, 203992, Note_off_c, 0, 62, 37
1, 203993, Control_c, 0, 64, 39
1, 204008, Control_c, 0, 64, 11
1, 204023, Control_c, 0, 64, 0
1, 204026, Note_on_c, 0, 74, 56
1, 204111, Control_c, 0, 64, 14
1, 204126, Control_c, 0, 64, 26
1, 204141, Control_c, 0, 64, 37
1, 204156, Control_c, 0, 64, 46
1, 204171, Control_c, 0, 64, 55
1, 204186, Control_c, 0, 64, 62
1, 204200, Control_c, 0, 64, 67
1, 204215, Control_c, 0, 64, 71
1, 204227, Note_on_c, 0, 53, 45
1, 204230, Control_c, 0, 64, 72
1, 204245, Control_c, 0, 64, 73
1, 204260, Control_c, 0, 64, 75
1, 204275, Control_c, 0, 64, 77
1, 204290, Control_c, 0, 64, 79
1, 204304, Control_c, 0, 64, 80
1, 204319, Control_c, 0, 64, 81
1, 204334, Control_c, 0, 64, 81
1, 204349, Control_c, 0, 64, 82
1, 204372, Note_off_c, 0, 74, 37
1, 204378, Control_c, 0, 64, 82
1, 204408, Note_on_c, 0, 50, 42
1, 204432, Note_off_c, 0, 58, 61
1, 204439, Note_off_c, 0, 46, 43
1, 204502, Note_off_c, 0, 53, 42
1, 204540, Note_on_c, 0, 74, 53
1, 204609, Control_c, 0, 64, 82
1, 204624, Control_c, 0, 64, 81
1, 204639, Control_c, 0, 64, 81
1, 204654, Note_on_c, 0, 47, 40
1, 204654, Control_c, 0, 64, 80
1, 204663, Note_on_c, 0, 56, 45
1, 204668, Control_c, 0, 64, 79
1, 204683, Control_c, 0, 64, 78
1, 204688, Note_off_c, 0, 74, 37
1, 204698, Control_c, 0, 64, 77
1, 204713, Control_c, 0, 64, 75
1, 204727, Control_c, 0, 64, 71
1, 204742, Control_c, 0, 64, 65
1, 204747, Note_off_c, 0, 50, 38
1, 204757, Control_c, 0, 64, 57
1, 204772, Control_c, 0, 64, 43
1, 204787, Control_c, 0, 64, 29
1, 204794, Note_on_c, 0, 74, 55
1, 204801, Control_c, 0, 64, 26
1, 204831, Control_c, 0, 64, 27
1, 204846, Control_c, 0, 64, 29
1, 204861, Control_c, 0, 64, 34
1, 204875, Control_c, 0, 64, 42
1, 204890, Control_c, 0, 64, 51
1, 204905, Control_c, 0, 64, 61
1, 204919, Control_c, 0, 64, 68
1, 204934, Control_c, 0, 64, 74
1, 204949, Control_c, 0, 64, 75
1, 204961, Note_on_c, 0, 53, 47
1, 204964, Control_c, 0, 64, 76
1, 204966, Note_on_c, 0, 71, 54
1, 204979, Control_c, 0, 64, 77
1, 204993, Control_c, 0, 64, 80
1, 205008, Control_c, 0, 64, 83
1, 205023, Control_c, 0, 64, 85
1, 205038, Note_off_c, 0, 74, 35
1, 205038, Control_c, 0, 64, 87
1, 205053, Control_c, 0, 64, 88
1, 205067, Control_c, 0, 64, 89
1, 205082, Control_c, 0, 64, 90
1, 205085, Note_on_c, 0, 68, 59
1, 205097, Control_c, 0, 64, 91
1, 205112, Control_c, 0, 64, 92
1, 205126, Control_c, 0, 64, 93
1, 205141, Control_c, 0, 64, 94
1, 205147, Note_off_c, 0, 71, 36
1, 205151, Note_on_c, 0, 50, 42
1, 205156, Control_c, 0, 64, 95
1, 205159, Note_off_c, 0, 68, 58
1, 205171, Control_c, 0, 64, 95
1, 205172, Note_on_c, 0, 65, 56
1, 205190, Note_off_c, 0, 53, 36
1, 205208, Control_c, 0, 64, 96
1, 205211, Note_off_c, 0, 56, 43
1, 205222, Note_off_c, 0, 65, 60
1, 205223, Control_c, 0, 64, 97
1, 205238, Control_c, 0, 64, 99
1, 205253, Control_c, 0, 64, 100
1, 205286, Note_on_c, 0, 63, 63
1, 205321, Note_off_c, 0, 63, 64
1, 205342, Control_c, 0, 64, 100
1, 205357, Control_c, 0, 64, 92
1, 205360, Note_on_c, 0, 62, 57
1, 205372, Control_c, 0, 64, 77
1, 205373, Note_on_c, 0, 56, 39
1, 205387, Control_c, 0, 64, 62
1, 205390, Note_off_c, 0, 62, 54
1, 205402, Control_c, 0, 64, 47
1, 205411, Note_on_c, 0, 63, 39
1, 205412, Note_off_c, 0, 50, 36
1, 205417, Control_c, 0, 64, 28
1, 205431, Control_c, 0, 64, 22
1, 205436, Note_on_c, 0, 65, 66
1, 205446, Control_c, 0, 64, 24
1, 205461, Control_c, 0, 64, 28
1, 205476, Control_c, 0, 64, 36
1, 205476, Note_off_c, 0, 63, 0
1, 205491, Control_c, 0, 64, 47
1, 205491, Note_on_c, 0, 63, 43
1, 205505, Control_c, 0, 64, 59
1, 205506, Note_off_c, 0, 65, 58
1, 205520, Control_c, 0, 64, 69
1, 205535, Control_c, 0, 64, 84
1, 205549, Control_c, 0, 64, 87
1, 205564, Control_c, 0, 64, 88
1, 205644, Note_on_c, 0, 53, 43
1, 205740, Note_on_c, 0, 62, 63
1, 205780, Note_off_c, 0, 63, 54
1, 205802, Note_off_c, 0, 53, 49
1, 205803, Note_off_c, 0, 47, 39
1, 205816, Control_c, 0, 64, 87
1, 205825, Note_on_c, 0, 50, 42
1, 205831, Control_c, 0, 64, 86
1, 205845, Note_off_c, 0, 56, 42
1, 205846, Control_c, 0, 64, 85
1, 205861, Control_c, 0, 64, 83
1, 205876, Control_c, 0, 64, 81
1, 205891, Control_c, 0, 64, 79
1, 205906, Control_c, 0, 64, 76
1, 205920, Control_c, 0, 64, 68
1, 205935, Control_c, 0, 64, 59
1, 205957, Control_c, 0, 64, 40
1, 205971, Note_on_c, 0, 58, 55
1, 205972, Control_c, 0, 64, 18
1, 205981, Note_on_c, 0, 46, 50
1, 205987, Control_c, 0, 64, 0
1, 206016, Note_off_c, 0, 50, 35
1, 206047, Control_c, 0, 64, 19
1, 206062, Control_c, 0, 64, 30
1, 206077, Control_c, 0, 64, 40
1, 206092, Control_c, 0, 64, 50
1, 206107, Control_c, 0, 64, 60
1, 206121, Control_c, 0, 64, 67
1, 206135, Note_on_c, 0, 53, 56
1, 206136, Control_c, 0, 64, 76
1, 206151, Control_c, 0, 64, 77
1, 206203, Note_off_c, 0, 58, 61
1, 206204, Note_off_c, 0, 46, 36
1, 206231, Note_off_c, 0, 53, 57
1, 206233, Note_on_c, 0, 50, 52
1, 206299, Control_c, 0, 64, 77
1, 206314, Control_c, 0, 64, 76
1, 206329, Control_c, 0, 64, 74
1, 206344, Control_c, 0, 64, 66
1, 206359, Control_c, 0, 64, 55
1, 206368, Note_on_c, 0, 47, 50
1, 206371, Note_on_c, 0, 56, 56
1, 206373, Control_c, 0, 64, 35
1, 206388, Control_c, 0, 64, 0
1, 206462, Control_c, 0, 64, 16
1, 206463, Note_off_c, 0, 50, 48
1, 206477, Control_c, 0, 64, 27
1, 206491, Control_c, 0, 64, 36
1, 206506, Control_c, 0, 64, 45
1, 206519, Note_on_c, 0, 53, 50
1, 206521, Control_c, 0, 64, 56
1, 206536, Control_c, 0, 64, 63
1, 206551, Control_c, 0, 64, 69
1, 206565, Control_c, 0, 64, 73
1, 206580, Control_c, 0, 64, 73
1, 206592, Note_off_c, 0, 56, 61
1, 206595, Control_c, 0, 64, 74
1, 206606, Note_on_c, 0, 50, 54
1, 206610, Control_c, 0, 64, 75
1, 206615, Note_off_c, 0, 53, 58
1, 206625, Control_c, 0, 64, 77
1, 206639, Control_c, 0, 64, 79
1, 206654, Control_c, 0, 64, 80
1, 206669, Control_c, 0, 64, 81
1, 206684, Control_c, 0, 64, 81
1, 206751, Control_c, 0, 64, 82
1, 206761, Note_on_c, 0, 56, 59
1, 206854, Note_off_c, 0, 50, 61
1, 206868, Note_off_c, 0, 56, 61
1, 206886, Note_on_c, 0, 53, 45
1, 206949, Note_on_c, 0, 61, 68
1, 207023, Note_off_c, 0, 62, 31
1, 207032, Note_off_c, 0, 53, 64
1, 207035, Note_on_c, 0, 58, 68
1, 207046, Note_on_c, 0, 49, 61
1, 207059, Note_off_c, 0, 47, 60
1, 207077, Control_c, 0, 64, 81
1, 207107, Control_c, 0, 64, 81
1, 207122, Control_c, 0, 64, 80
1, 207127, Note_off_c, 0, 61, 37
1, 207137, Control_c, 0, 64, 80
1, 207152, Control_c, 0, 64, 79
1, 207166, Control_c, 0, 64, 78
1, 207181, Control_c, 0, 64, 76
1, 207196, Control_c, 0, 64, 68
1, 207211, Control_c, 0, 64, 59
1, 207215, Note_on_c, 0, 54, 77
1, 207226, Control_c, 0, 64, 41
1, 207241, Control_c, 0, 64, 0
1, 207359, Control_c, 0, 64, 32
1, 207374, Control_c, 0, 64, 46
1, 207388, Control_c, 0, 64, 62
1, 207395, Note_on_c, 0, 46, 64
1, 207403, Control_c, 0, 64, 79
1, 207418, Control_c, 0, 64, 110
1, 207433, Control_c, 0, 64, 114
1, 207450, Note_off_c, 0, 58, 48
1, 207456, Control_c, 0, 64, 115
1, 207470, Control_c, 0, 64, 127
1, 207483, Note_off_c, 0, 46, 65
1, 207497, Note_off_c, 0, 49, 62
1, 207527, Note_off_c, 0, 54, 64
1, 207554, Note_on_c, 0, 66, 84
1, 207658, Note_on_c, 0, 63, 74
1, 207670, Note_off_c, 0, 66, 61
1, 207701, Note_off_c, 0, 63, 61
1, 207786, Note_on_c, 0, 66, 82
1, 207915, Control_c, 0, 64, 111
1, 207930, Control_c, 0, 64, 105
1, 207945, Control_c, 0, 64, 100
1, 207955, Note_on_c, 0, 51, 52
1, 207959, Note_on_c, 0, 44, 46
1, 207959, Control_c, 0, 64, 95
1, 207974, Control_c, 0, 64, 90
1, 207989, Control_c, 0, 64, 84
1, 208004, Control_c, 0, 64, 79
1, 208019, Control_c, 0, 64, 73
1, 208034, Control_c, 0, 64, 67
1, 208049, Control_c, 0, 64, 60
1, 208063, Control_c, 0, 64, 50
1, 208078, Note_on_c, 0, 71, 73
1, 208078, Control_c, 0, 64, 33
1, 208093, Control_c, 0, 64, 0
1, 208263, Control_c, 0, 64, 15
1, 208278, Control_c, 0, 64, 30
1, 208293, Control_c, 0, 64, 42
1, 208308, Control_c, 0, 64, 54
1, 208323, Control_c, 0, 64, 64
1, 208335, Note_off_c, 0, 44, 48
1, 208338, Control_c, 0, 64, 77
1, 208352, Control_c, 0, 64, 86
1, 208379, Note_off_c, 0, 51, 36
1, 208382, Control_c, 0, 64, 86
1, 208386, Note_on_c, 0, 56, 51
1, 208397, Control_c, 0, 64, 87
1, 208412, Control_c, 0, 64, 89
1, 208427, Control_c, 0, 64, 91
1, 208442, Control_c, 0, 64, 93
1, 208457, Control_c, 0, 64, 95
1, 208472, Control_c, 0, 64, 96
1, 208487, Control_c, 0, 64, 100
1, 208502, Control_c, 0, 64, 107
1, 208516, Control_c, 0, 64, 115
1, 208531, Control_c, 0, 64, 127
1, 208623, Note_on_c, 0, 58, 57
1, 208630, Note_off_c, 0, 56, 64
1, 208675, Note_on_c, 0, 59, 38
1, 208737, Control_c, 0, 64, 100
1, 208752, Control_c, 0, 64, 76
1, 208767, Note_off_c, 0, 66, 35
1, 208767, Control_c, 0, 64, 64
1, 208782, Control_c, 0, 64, 55
1, 208784, Note_on_c, 0, 61, 62
1, 208797, Control_c, 0, 64, 51
1, 208811, Note_off_c, 0, 59, 21
1, 208812, Control_c, 0, 64, 53
1, 208817, Note_off_c, 0, 58, 40
1, 208827, Control_c, 0, 64, 60
1, 208841, Control_c, 0, 64, 66
1, 208856, Control_c, 0, 64, 78
1, 208871, Control_c, 0, 64, 98
1, 208885, Control_c, 0, 64, 117
1, 208899, Note_off_c, 0, 61, 65
1, 208900, Control_c, 0, 64, 127
1, 208913, Note_on_c, 0, 59, 61
1, 208945, Note_off_c, 0, 71, 18
1, 209041, Note_off_c, 0, 59, 55
1, 209052, Note_on_c, 0, 58, 53
1, 209056, Control_c, 0, 64, 119
1, 209071, Control_c, 0, 64, 111
1, 209086, Control_c, 0, 64, 105
1, 209100, Control_c, 0, 64, 98
1, 209115, Control_c, 0, 64, 92
1, 209130, Control_c, 0, 64, 83
1, 209145, Control_c, 0, 64, 72
1, 209160, Control_c, 0, 64, 62
1, 209174, Control_c, 0, 64, 47
1, 209182, Note_on_c, 0, 71, 57
1, 209188, Note_off_c, 0, 58, 58
1, 209189, Control_c, 0, 64, 24
1, 209204, Control_c, 0, 64, 0
1, 209205, Note_on_c, 0, 65, 51
1, 209207, Note_on_c, 0, 56, 46
1, 209250, Control_c, 0, 64, 16
1, 209264, Control_c, 0, 64, 27
1, 209279, Control_c, 0, 64, 38
1, 209294, Control_c, 0, 64, 50
1, 209309, Control_c, 0, 64, 63
1, 209323, Control_c, 0, 64, 76
1, 209325, Note_off_c, 0, 56, 65
1, 209338, Control_c, 0, 64, 88
1, 209340, Note_on_c, 0, 49, 55
1, 209441, Note_off_c, 0, 49, 63
1, 209477, Note_on_c, 0, 61, 60
1, 209492, Note_off_c, 0, 65, 56
1, 209496, Note_on_c, 0, 70, 65
1, 209590, Control_c, 0, 64, 87
1, 209605, Control_c, 0, 64, 86
1, 209620, Control_c, 0, 64, 85
1, 209635, Control_c, 0, 64, 84
1, 209650, Control_c, 0, 64, 83
1, 209664, Control_c, 0, 64, 82
1, 209679, Control_c, 0, 64, 81
1, 209701, Control_c, 0, 64, 80
1, 209715, Control_c, 0, 64, 79
1, 209730, Control_c, 0, 64, 78
1, 209745, Control_c, 0, 64, 76
1, 209757, Note_on_c, 0, 58, 47
1, 209760, Control_c, 0, 64, 74
1, 209775, Control_c, 0, 64, 71
1, 209784, Note_off_c, 0, 61, 31
1, 209790, Control_c, 0, 64, 68
1, 209805, Control_c, 0, 64, 64
1, 209805, Note_on_c, 0, 68, 55
1, 209808, Note_off_c, 0, 71, 51
1, 209820, Control_c, 0, 64, 56
1, 209822, Note_on_c, 0, 64, 45
1, 209834, Control_c, 0, 64, 43
1, 209849, Control_c, 0, 64, 26
1, 209860, Note_off_c, 0, 70, 61
1, 209864, Control_c, 0, 64, 8
1, 209879, Control_c, 0, 64, 0
1, 209953, Control_c, 0, 64, 23
1, 209968, Control_c, 0, 64, 38
1, 209983, Control_c, 0, 64, 49
1, 209997, Control_c, 0, 64, 60
1, 210013, Control_c, 0, 64, 69
1, 210028, Control_c, 0, 64, 78
1, 210043, Control_c, 0, 64, 80
1, 210073, Control_c, 0, 64, 80
1, 210087, Control_c, 0, 64, 81
1, 210102, Control_c, 0, 64, 84
1, 210117, Control_c, 0, 64, 86
1, 210132, Control_c, 0, 64, 87
1, 210138, Note_off_c, 0, 58, 62
1, 210146, Control_c, 0, 64, 87
1, 210157, Note_on_c, 0, 59, 57
1, 210265, Control_c, 0, 64, 86
1, 210280, Control_c, 0, 64, 85
1, 210294, Control_c, 0, 64, 84
1, 210309, Control_c, 0, 64, 83
1, 210324, Control_c, 0, 64, 82
1, 210338, Control_c, 0, 64, 80
1, 210353, Control_c, 0, 64, 78
1, 210368, Note_off_c, 0, 64, 60
1, 210368, Control_c, 0, 64, 73
1, 210383, Control_c, 0, 64, 65
1, 210398, Control_c, 0, 64, 55
1, 210400, Note_on_c, 0, 63, 51
1, 210412, Note_on_c, 0, 67, 59
1, 210413, Control_c, 0, 64, 40
1, 210428, Control_c, 0, 64, 26
1, 210450, Control_c, 0, 64, 24
1, 210461, Note_off_c, 0, 59, 34
1, 210477, Note_off_c, 0, 68, 52
1, 210479, Control_c, 0, 64, 26
1, 210494, Control_c, 0, 64, 31
1, 210509, Control_c, 0, 64, 40
1, 210524, Control_c, 0, 64, 50
1, 210538, Control_c, 0, 64, 60
1, 210553, Control_c, 0, 64, 71
1, 210562, Note_off_c, 0, 63, 58
1, 210568, Control_c, 0, 64, 80
1, 210569, Note_on_c, 0, 61, 53
1, 210583, Control_c, 0, 64, 80
1, 210642, Control_c, 0, 64, 81
1, 210657, Control_c, 0, 64, 81
1, 210672, Control_c, 0, 64, 82
1, 210680, Note_off_c, 0, 61, 63
1, 210723, Note_on_c, 0, 59, 47
1, 210723, Note_on_c, 0, 75, 61
1, 210770, Note_off_c, 0, 67, 54
1, 210780, Note_off_c, 0, 75, 60
1, 210791, Control_c, 0, 64, 78
1, 210806, Control_c, 0, 64, 69
1, 210821, Control_c, 0, 64, 61
1, 210836, Control_c, 0, 64, 49
1, 210846, Note_off_c, 0, 59, 36
1, 210851, Control_c, 0, 64, 43
1, 210866, Control_c, 0, 64, 44
1, 210870, Note_on_c, 0, 58, 46
1, 210881, Control_c, 0, 64, 49
1, 210882, Note_on_c, 0, 75, 50
1, 210895, Control_c, 0, 64, 55
1, 210908, Note_on_c, 0, 67, 40
1, 210910, Control_c, 0, 64, 62
1, 210925, Control_c, 0, 64, 72
1, 210940, Control_c, 0, 64, 81
1, 210955, Control_c, 0, 64, 85
1, 210969, Control_c, 0, 64, 86
1, 210983, Control_c, 0, 64, 90
1, 210996, Note_off_c, 0, 67, 34
1, 210998, Control_c, 0, 64, 95
1, 211013, Control_c, 0, 64, 99
1, 211015, Note_off_c, 0, 58, 59
1, 211026, Note_on_c, 0, 73, 59
1, 211028, Control_c, 0, 64, 101
1, 211031, Note_on_c, 0, 51, 49
1, 211031, Note_off_c, 0, 75, 59
1, 211043, Control_c, 0, 64, 104
1, 211058, Control_c, 0, 64, 107
1, 211073, Control_c, 0, 64, 110
1, 211077, Note_off_c, 0, 73, 51
1, 211087, Control_c, 0, 64, 113
1, 211125, Note_off_c, 0, 51, 63
1, 211168, Note_on_c, 0, 63, 56
1, 211176, Note_on_c, 0, 71, 63
1, 211192, Note_on_c, 0, 66, 56
1, 211214, Control_c, 0, 64, 110
1, 211225, Note_off_c, 0, 66, 54
1, 211229, Control_c, 0, 64, 106
1, 211243, Control_c, 0, 64, 97
1, 211258, Note_off_c, 0, 63, 56
1, 211258, Control_c, 0, 64, 82
1, 211273, Control_c, 0, 64, 67
1, 211287, Control_c, 0, 64, 56
1, 211302, Control_c, 0, 64, 42
1, 211317, Control_c, 0, 64, 33
1, 211321, Note_on_c, 0, 66, 61
1, 211323, Note_on_c, 0, 63, 38
1, 211327, Note_on_c, 0, 70, 51
1, 211332, Control_c, 0, 64, 34
1, 211347, Control_c, 0, 64, 38
1, 211356, Note_off_c, 0, 71, 39
1, 211361, Control_c, 0, 64, 45
1, 211376, Control_c, 0, 64, 53
1, 211391, Control_c, 0, 64, 62
1, 211406, Control_c, 0, 64, 72
1, 211421, Control_c, 0, 64, 81
1, 211436, Control_c, 0, 64, 85
1, 211443, Note_off_c, 0, 63, 63
1, 211450, Control_c, 0, 64, 87
1, 211454, Note_on_c, 0, 61, 63
1, 211460, Note_off_c, 0, 70, 0
1, 211465, Control_c, 0, 64, 89
1, 211475, Note_on_c, 0, 62, 55
1, 211480, Control_c, 0, 64, 91
1, 211483, Note_on_c, 0, 70, 14
1, 211495, Control_c, 0, 64, 93
1, 211497, Note_off_c, 0, 62, 62
1, 211510, Control_c, 0, 64, 94
1, 211525, Control_c, 0, 64, 95
1, 211535, Note_off_c, 0, 66, 54
1, 211539, Control_c, 0, 64, 98
1, 211541, Note_off_c, 0, 70, 45
1, 211542, Note_off_c, 0, 61, 64
1, 211554, Control_c, 0, 64, 101
1, 211569, Control_c, 0, 64, 104
1, 211576, Note_on_c, 0, 59, 52
1, 211584, Control_c, 0, 64, 105
1, 211599, Note_on_c, 0, 75, 70
1, 211635, Note_off_c, 0, 75, 59
1, 211659, Control_c, 0, 64, 103
1, 211674, Control_c, 0, 64, 98
1, 211689, Control_c, 0, 64, 89
1, 211703, Control_c, 0, 64, 75
1, 211710, Note_off_c, 0, 59, 35
1, 211718, Control_c, 0, 64, 62
1, 211727, Note_on_c, 0, 75, 80
1, 211732, Note_on_c, 0, 67, 71
1, 211733, Control_c, 0, 64, 47
1, 211738, Note_on_c, 0, 58, 51
1, 211748, Control_c, 0, 64, 24
1, 211763, Control_c, 0, 64, 9
1, 211792, Control_c, 0, 64, 10
1, 211807, Control_c, 0, 64, 17
1, 211820, Poly_aftertouch_c, 0, 61, 0
1, 211822, Control_c, 0, 64, 28
1, 211837, Control_c, 0, 64, 39
1, 211841, Note_off_c, 0, 58, 61
1, 211852, Control_c, 0, 64, 51
1, 211864, Note_on_c, 0, 51, 71
1, 211864, Note_on_c, 0, 73, 71
1, 211866, Control_c, 0, 64, 61
1, 211881, Control_c, 0, 64, 74
1, 211896, Control_c, 0, 64, 86
1, 211910, Control_c, 0, 64, 88
1, 211925, Note_off_c, 0, 67, 34
1, 211948, Control_c, 0, 64, 88
1, 211963, Control_c, 0, 64, 89
1, 211978, Control_c, 0, 64, 90
1, 211992, Control_c, 0, 64, 91
1, 212002, Note_on_c, 0, 71, 76
1, 212007, Note_on_c, 0, 68, 63
1, 212014, Note_on_c, 0, 63, 70
1, 212016, Note_on_c, 0, 56, 66
1, 212022, Note_off_c, 0, 75, 61
1, 212025, Note_on_c, 0, 59, 34
1, 212040, Note_on_c, 0, 60, 23
1, 212043, Note_off_c, 0, 51, 62
1, 212045, Note_off_c, 0, 73, 62
1, 212059, Note_off_c, 0, 59, 50
1, 212071, Note_off_c, 0, 68, 60
1, 212076, Note_off_c, 0, 60, 55
1, 212082, Note_off_c, 0, 63, 64
1, 212096, Control_c, 0, 64, 83
1, 212110, Control_c, 0, 64, 69
1, 212125, Control_c, 0, 64, 58
1, 212140, Control_c, 0, 64, 44
1, 212155, Control_c, 0, 64, 33
1, 212162, Note_on_c, 0, 67, 69
1, 212162, Note_on_c, 0, 70, 79
1, 212170, Control_c, 0, 64, 34
1, 212171, Note_off_c, 0, 71, 65
1, 212172, Note_on_c, 0, 63, 73
1, 212175, Note_off_c, 0, 56, 66
1, 212176, Note_on_c, 0, 58, 66
1, 212179, Note_on_c, 0, 51, 54
1, 212185, Control_c, 0, 64, 38
1, 212198, Note_off_c, 0, 63, 67
1, 212199, Note_off_c, 0, 51, 63
1, 212199, Control_c, 0, 64, 47
1, 212214, Control_c, 0, 64, 58
1, 212228, Note_off_c, 0, 67, 60
1, 212229, Control_c, 0, 64, 72
1, 212234, Note_off_c, 0, 58, 56
1, 212243, Control_c, 0, 64, 127
1, 212306, Note_on_c, 0, 61, 74
1, 212308, Note_on_c, 0, 49, 76
1, 212329, Note_off_c, 0, 61, 71
1, 212334, Note_off_c, 0, 49, 69
1, 212393, Note_off_c, 0, 70, 61
1, 212428, Note_on_c, 0, 75, 86
1, 212431, Note_on_c, 0, 47, 75
1, 212437, Note_on_c, 0, 59, 68
1, 212437, Note_on_c, 0, 58, 52
1, 212439, Note_on_c, 0, 63, 74
1, 212452, Note_off_c, 0, 47, 66
1, 212455, Note_off_c, 0, 59, 64
1, 212467, Note_off_c, 0, 63, 62
1, 212469, Note_off_c, 0, 58, 52
1, 212505, Note_off_c, 0, 75, 58
1, 212541, Control_c, 0, 64, 96
1, 212556, Control_c, 0, 64, 65
1, 212571, Control_c, 0, 64, 48
1, 212586, Note_on_c, 0, 75, 91
1, 212586, Control_c, 0, 64, 0
1, 212589, Note_on_c, 0, 58, 77
1, 212590, Note_on_c, 0, 64, 80
1, 212598, Note_on_c, 0, 67, 67
1, 212601, Note_on_c, 0, 46, 74
1, 212660, Control_c, 0, 64, 19
1, 212675, Control_c, 0, 64, 36
1, 212697, Control_c, 0, 64, 51
1, 212706, Note_off_c, 0, 58, 62
1, 212712, Control_c, 0, 64, 65
1, 212726, Note_off_c, 0, 46, 64
1, 212727, Control_c, 0, 64, 105
1, 212738, Note_on_c, 0, 73, 82
1, 212741, Note_off_c, 0, 67, 61
1, 212741, Control_c, 0, 64, 127
1, 212765, Note_off_c, 0, 75, 61
1, 212771, Note_off_c, 0, 64, 60
1, 212800, Note_off_c, 0, 73, 66
1, 212875, Note_on_c, 0, 71, 81
1, 212876, Note_on_c, 0, 68, 88
1, 212882, Note_on_c, 0, 56, 70
1, 212883, Note_on_c, 0, 44, 72
1, 212908, Note_off_c, 0, 56, 68
1, 212952, Note_off_c, 0, 44, 55
1, 212973, Note_off_c, 0, 71, 67
1, 213008, Control_c, 0, 64, 80
1, 213023, Control_c, 0, 64, 62
1, 213030, Note_on_c, 0, 55, 89
1, 213033, Note_on_c, 0, 70, 75
1, 213036, Note_on_c, 0, 64, 78
1, 213037, Note_on_c, 0, 73, 81
1, 213038, Control_c, 0, 64, 41
1, 213039, Note_on_c, 0, 43, 80
1, 213053, Control_c, 0, 64, 19
1, 213067, Control_c, 0, 64, 18
1, 213082, Control_c, 0, 64, 24
1, 213097, Control_c, 0, 64, 33
1, 213111, Note_off_c, 0, 64, 63
1, 213112, Control_c, 0, 64, 43
1, 213116, Note_off_c, 0, 55, 66
1, 213122, Note_off_c, 0, 43, 60
1, 213127, Control_c, 0, 64, 56
1, 213129, Note_off_c, 0, 73, 63
1, 213141, Control_c, 0, 64, 66
1, 213154, Note_off_c, 0, 68, 0
1, 213154, Note_on_c, 0, 68, 3
1, 213156, Control_c, 0, 64, 85
1, 213171, Control_c, 0, 64, 103
1, 213176, Note_off_c, 0, 68, 45
1, 213186, Control_c, 0, 64, 107
1, 213201, Note_on_c, 0, 56, 81
1, 213201, Control_c, 0, 64, 115
1, 213208, Note_on_c, 0, 44, 72
1, 213208, Note_on_c, 0, 63, 87
1, 213209, Note_on_c, 0, 71, 79
1, 213217, Control_c, 0, 64, 127
1, 213224, Note_off_c, 0, 56, 71
1, 213228, Note_off_c, 0, 63, 74
1, 213235, Note_off_c, 0, 71, 67
1, 213237, Note_off_c, 0, 44, 63
1, 213251, Note_off_c, 0, 70, 58
1, 213350, Control_c, 0, 64, 90
1, 213359, Note_on_c, 0, 58, 94
1, 213359, Note_on_c, 0, 70, 90
1, 213364, Note_on_c, 0, 51, 83
1, 213364, Control_c, 0, 64, 64
1, 213367, Note_on_c, 0, 67, 74
1, 213371, Note_on_c, 0, 39, 73
1, 213379, Control_c, 0, 64, 39
1, 213394, Control_c, 0, 64, 0
1, 213461, Control_c, 0, 64, 29
1, 213467, Note_off_c, 0, 51, 63
1, 213476, Control_c, 0, 64, 51
1, 213488, Note_off_c, 0, 58, 62
1, 213489, Note_off_c, 0, 67, 61
1, 213490, Control_c, 0, 64, 72
1, 213501, Note_off_c, 0, 70, 63
1, 213505, Note_off_c, 0, 39, 64
1, 213505, Control_c, 0, 64, 127
1, 213563, Note_on_c, 0, 50, 86
1, 213566, Note_on_c, 0, 59, 90
1, 213569, Note_on_c, 0, 71, 91
1, 213575, Note_on_c, 0, 38, 74
1, 213575, Note_on_c, 0, 68, 75
1, 213579, Control_c, 0, 64, 103
1, 213594, Control_c, 0, 64, 64
1, 213609, Control_c, 0, 64, 38
1, 213624, Control_c, 0, 64, 22
1, 213638, Control_c, 0, 64, 34
1, 213653, Control_c, 0, 64, 50
1, 213654, Note_off_c, 0, 38, 62
1, 213656, Note_off_c, 0, 71, 65
1, 213668, Control_c, 0, 64, 68
1, 213679, Note_off_c, 0, 59, 57
1, 213683, Control_c, 0, 64, 127
1, 213691, Note_off_c, 0, 50, 61
1, 213735, Note_off_c, 0, 68, 60
1, 213774, Note_on_c, 0, 58, 97
1, 213775, Note_on_c, 0, 51, 88
1, 213777, Note_on_c, 0, 70, 94
1, 213779, Note_on_c, 0, 67, 65
1, 213782, Note_on_c, 0, 39, 70
1, 213802, Poly_aftertouch_c, 0, 43, 127
1, 213871, Poly_aftertouch_c, 0, 43, 0
1, 213877, Note_off_c, 0, 70, 59
1, 213886, Note_off_c, 0, 58, 57
1, 213894, Note_off_c, 0, 51, 64
1, 213903, Note_off_c, 0, 67, 36
1, 213919, Note_off_c, 0, 39, 62
1, 213979, Control_c, 0, 64, 81
1, 213987, Note_on_c, 0, 50, 84
1, 213994, Control_c, 0, 64, 60
1, 213999, Note_on_c, 0, 38, 70
1, 214007, Note_on_c, 0, 71, 88
1, 214010, Control_c, 0, 64, 43
1, 214011, Note_on_c, 0, 59, 78
1, 214013, Note_on_c, 0, 68, 82
1, 214025, Control_c, 0, 64, 36
1, 214040, Control_c, 0, 64, 44
1, 214049, Note_off_c, 0, 38, 64
1, 214054, Control_c, 0, 64, 57
1, 214055, Note_off_c, 0, 59, 58
1, 214067, Note_off_c, 0, 71, 66
1, 214069, Control_c, 0, 64, 75
1, 214084, Control_c, 0, 64, 127
1, 214098, Note_off_c, 0, 68, 61
1, 214282, Note_on_c, 0, 39, 61
1, 214373, Control_c, 0, 64, 109
1, 214387, Control_c, 0, 64, 91
1, 214389, Note_on_c, 0, 70, 88
1, 214402, Control_c, 0, 64, 78
1, 214417, Control_c, 0, 64, 65
1, 214430, Note_off_c, 0, 50, 54
1, 214432, Control_c, 0, 64, 48
1, 214446, Control_c, 0, 64, 0
1, 214550, Control_c, 0, 64, 31
1, 214565, Control_c, 0, 64, 49
1, 214580, Control_c, 0, 64, 62
1, 214590, Note_off_c, 0, 39, 63
1, 214595, Control_c, 0, 64, 72
1, 214602, Note_on_c, 0, 50, 57
1, 214610, Control_c, 0, 64, 79
1, 214625, Control_c, 0, 64, 80
1, 214639, Control_c, 0, 64, 80
1, 214651, Note_on_c, 0, 63, 66
1, 214654, Control_c, 0, 64, 83
1, 214655, Note_on_c, 0, 61, 41
1, 214669, Control_c, 0, 64, 87
1, 214684, Control_c, 0, 64, 89
1, 214699, Control_c, 0, 64, 90
1, 214713, Control_c, 0, 64, 91
1, 214722, Note_off_c, 0, 61, 41
1, 214728, Control_c, 0, 64, 95
1, 214738, Note_on_c, 0, 51, 72
1, 214743, Control_c, 0, 64, 100
1, 214758, Control_c, 0, 64, 106
1, 214762, Note_off_c, 0, 50, 56
1, 214773, Control_c, 0, 64, 110
1, 214787, Control_c, 0, 64, 113
1, 214803, Control_c, 0, 64, 119
1, 214818, Control_c, 0, 64, 127
1, 214836, Note_off_c, 0, 63, 64
1, 214862, Note_on_c, 0, 54, 78
1, 214909, Note_off_c, 0, 51, 37
1, 214969, Note_off_c, 0, 54, 64
1, 214993, Note_on_c, 0, 52, 60
1, 215000, Note_on_c, 0, 63, 70
1, 215007, Note_on_c, 0, 61, 55
1, 215028, Note_off_c, 0, 61, 64
1, 215061, Note_off_c, 0, 70, 58
1, 215070, Note_off_c, 0, 63, 64
1, 215082, Note_off_c, 0, 52, 61
1, 215098, Note_on_c, 0, 51, 66
1, 215210, Control_c, 0, 64, 85
1, 215217, Note_on_c, 0, 44, 65
1, 215225, Control_c, 0, 64, 61
1, 215229, Note_on_c, 0, 71, 88
1, 215240, Control_c, 0, 64, 44
1, 215254, Control_c, 0, 64, 25
1, 215260, Note_off_c, 0, 51, 59
1, 215269, Control_c, 0, 64, 27
1, 215284, Control_c, 0, 64, 35
1, 215299, Control_c, 0, 64, 46
1, 215314, Control_c, 0, 64, 58
1, 215328, Control_c, 0, 64, 77
1, 215343, Control_c, 0, 64, 127
1, 215344, Note_on_c, 0, 56, 65
1, 215379, Note_on_c, 0, 59, 65
1, 215385, Note_on_c, 0, 63, 73
1, 215419, Note_off_c, 0, 59, 57
1, 215427, Note_off_c, 0, 71, 62
1, 215428, Note_off_c, 0, 56, 64
1, 215463, Note_on_c, 0, 51, 71
1, 215492, Note_off_c, 0, 63, 61
1, 215495, Note_off_c, 0, 44, 60
1, 215519, Note_off_c, 0, 51, 65
1, 215626, Control_c, 0, 64, 81
1, 215629, Note_on_c, 0, 37, 85
1, 215640, Control_c, 0, 64, 61
1, 215642, Note_on_c, 0, 70, 88
1, 215655, Control_c, 0, 64, 43
1, 215670, Control_c, 0, 64, 21
1, 215692, Note_off_c, 0, 37, 59
1, 215692, Control_c, 0, 64, 22
1, 215707, Control_c, 0, 64, 35
1, 215722, Control_c, 0, 64, 48
1, 215737, Control_c, 0, 64, 62
1, 215751, Control_c, 0, 64, 85
1, 215766, Control_c, 0, 64, 127
1, 215803, Note_on_c, 0, 56, 71
1, 215810, Note_on_c, 0, 64, 63
1, 215818, Note_on_c, 0, 58, 64
1, 215838, Note_off_c, 0, 58, 64
1, 215838, Note_off_c, 0, 56, 61
1, 215912, Note_on_c, 0, 49, 68
1, 215969, Note_off_c, 0, 49, 65
1, 215974, Note_off_c, 0, 64, 53
1, 216003, Control_c, 0, 64, 84
1, 216018, Control_c, 0, 64, 64
1, 216032, Control_c, 0, 64, 51
1, 216047, Note_on_c, 0, 39, 86
1, 216047, Control_c, 0, 64, 37
1, 216062, Control_c, 0, 64, 34
1, 216076, Control_c, 0, 64, 39
1, 216091, Control_c, 0, 64, 50
1, 216093, Note_off_c, 0, 39, 64
1, 216106, Control_c, 0, 64, 61
1, 216121, Control_c, 0, 64, 76
1, 216136, Control_c, 0, 64, 127
1, 216166, Note_on_c, 0, 55, 68
1, 216198, Note_on_c, 0, 71, 79
1, 216202, Note_on_c, 0, 63, 70
1, 216225, Note_on_c, 0, 61, 38
1, 216235, Note_off_c, 0, 70, 61
1, 216252, Note_off_c, 0, 55, 60
1, 216254, Note_off_c, 0, 61, 57
1, 216261, Note_on_c, 0, 51, 62
1, 216266, Note_off_c, 0, 63, 59
1, 216345, Control_c, 0, 64, 74
1, 216359, Control_c, 0, 64, 55
1, 216374, Control_c, 0, 64, 0
1, 216378, Note_on_c, 0, 68, 87
1, 216384, Note_off_c, 0, 51, 64
1, 216386, Note_on_c, 0, 44, 74
1, 216501, Control_c, 0, 64, 37
1, 216515, Control_c, 0, 64, 56
1, 216519, Note_on_c, 0, 63, 76
1, 216519, Note_off_c, 0, 71, 61
1, 216521, Note_on_c, 0, 56, 72
1, 216530, Control_c, 0, 64, 83
1, 216545, Control_c, 0, 64, 127
1, 216548, Note_off_c, 0, 63, 67
1, 216561, Note_off_c, 0, 68, 58
1, 216587, Poly_aftertouch_c, 0, 59, 127
1, 216601, Note_off_c, 0, 56, 63
1, 216622, Poly_aftertouch_c, 0, 59, 0
1, 216652, Note_on_c, 0, 51, 68
1, 216669, Note_on_c, 0, 76, 93
1, 216696, Note_off_c, 0, 51, 58
1, 216702, Note_off_c, 0, 44, 60
1, 216856, Control_c, 0, 64, 71
1, 216871, Note_on_c, 0, 37, 75
1, 216871, Control_c, 0, 64, 55
1, 216886, Control_c, 0, 64, 31
1, 216893, Note_on_c, 0, 70, 85
1, 216900, Control_c, 0, 64, 0
1, 216918, Note_off_c, 0, 76, 68
1, 216945, Control_c, 0, 64, 28
1, 216957, Note_off_c, 0, 37, 62
1, 216960, Control_c, 0, 64, 43
1, 216974, Control_c, 0, 64, 57
1, 216989, Control_c, 0, 64, 74
1, 217004, Control_c, 0, 64, 127
1, 217103, Note_on_c, 0, 64, 66
1, 217103, Note_on_c, 0, 68, 67
1, 217115, Note_on_c, 0, 61, 73
1, 217278, Note_on_c, 0, 71, 79
1, 217286, Note_on_c, 0, 56, 65
1, 217292, Note_off_c, 0, 68, 58
1, 217343, Note_off_c, 0, 64, 35
1, 217397, Note_off_c, 0, 70, 0
1, 217425, Note_off_c, 0, 61, 37
1, 217434, Poly_aftertouch_c, 0, 70, 127
1, 217462, Note_on_c, 0, 75, 80
1, 217474, Note_on_c, 0, 59, 57
1, 217484, Note_off_c, 0, 71, 61
1, 217488, Poly_aftertouch_c, 0, 70, 0
1, 217501, Control_c, 0, 64, 86
1, 217516, Control_c, 0, 64, 65
1, 217531, Control_c, 0, 64, 54
1, 217546, Control_c, 0, 64, 39
1, 217561, Control_c, 0, 64, 28
1, 217576, Control_c, 0, 64, 25
1, 217591, Control_c, 0, 64, 26
1, 217605, Control_c, 0, 64, 30
1, 217606, Note_on_c, 0, 73, 76
1, 217614, Note_on_c, 0, 64, 64
1, 217617, Note_on_c, 0, 58, 65
1, 217619, Note_off_c, 0, 56, 56
1, 217620, Control_c, 0, 64, 41
1, 217621, Note_off_c, 0, 59, 61
1, 217631, Note_off_c, 0, 75, 61
1, 217635, Control_c, 0, 64, 53
1, 217649, Control_c, 0, 64, 65
1, 217662, Note_off_c, 0, 73, 64
1, 217664, Control_c, 0, 64, 89
1, 217679, Control_c, 0, 64, 127
1, 217689, Note_off_c, 0, 64, 56
1, 217733, Note_on_c, 0, 71, 83
1, 217737, Note_on_c, 0, 63, 76
1, 217797, Control_c, 0, 64, 105
1, 217812, Control_c, 0, 64, 73
1, 217827, Control_c, 0, 64, 58
1, 217842, Control_c, 0, 64, 38
1, 217856, Control_c, 0, 64, 11
1, 217860, Note_on_c, 0, 70, 85
1, 217860, Note_off_c, 0, 71, 64
1, 217869, Note_off_c, 0, 63, 60
1, 217871, Control_c, 0, 64, 12
1, 217876, Note_on_c, 0, 61, 43
1, 217886, Control_c, 0, 64, 27
1, 217901, Control_c, 0, 64, 43
1, 217910, Note_off_c, 0, 61, 55
1, 217916, Control_c, 0, 64, 59
1, 217938, Control_c, 0, 64, 83
1, 217939, Note_off_c, 0, 58, 60
1, 217953, Control_c, 0, 64, 127
1, 217992, Note_off_c, 0, 70, 63
1, 218003, Note_on_c, 0, 67, 78
1, 218011, Note_on_c, 0, 61, 71
1, 218022, Note_on_c, 0, 51, 71
1, 218138, Note_off_c, 0, 51, 38
1, 218147, Note_on_c, 0, 39, 53
1, 218172, Note_on_c, 0, 71, 79
1, 218178, Note_off_c, 0, 67, 61
1, 218187, Note_off_c, 0, 61, 62
1, 218279, Control_c, 0, 64, 117
1, 218294, Control_c, 0, 64, 108
1, 218309, Control_c, 0, 64, 102
1, 218324, Control_c, 0, 64, 98
1, 218339, Control_c, 0, 64, 93
1, 218354, Control_c, 0, 64, 90
1, 218369, Control_c, 0, 64, 86
1, 218384, Control_c, 0, 64, 81
1, 218387, Note_on_c, 0, 44, 49
1, 218399, Control_c, 0, 64, 77
1, 218404, Note_on_c, 0, 68, 75
1, 218413, Control_c, 0, 64, 73
1, 218428, Control_c, 0, 64, 68
1, 218435, Note_off_c, 0, 39, 58
1, 218443, Control_c, 0, 64, 62
1, 218447, Note_off_c, 0, 71, 60
1, 218458, Control_c, 0, 64, 48
1, 218472, Control_c, 0, 64, 0
1, 218591, Control_c, 0, 64, 13
1, 218605, Control_c, 0, 64, 27
1, 218611, Note_on_c, 0, 50, 42
1, 218615, Note_on_c, 0, 63, 50
1, 218620, Control_c, 0, 64, 38
1, 218624, Note_on_c, 0, 59, 26
1, 218634, Note_off_c, 0, 44, 31
1, 218635, Control_c, 0, 64, 48
1, 218650, Control_c, 0, 64, 57
1, 218665, Note_off_c, 0, 59, 50
1, 218665, Control_c, 0, 64, 64
1, 218687, Control_c, 0, 64, 70
1, 218693, Note_off_c, 0, 50, 60
1, 218702, Control_c, 0, 64, 75
1, 218717, Control_c, 0, 64, 79
1, 218720, Note_on_c, 0, 51, 59
1, 218732, Control_c, 0, 64, 81
1, 218747, Control_c, 0, 64, 82
1, 218761, Control_c, 0, 64, 83
1, 218771, Note_off_c, 0, 63, 58
1, 218776, Control_c, 0, 64, 84
1, 218791, Control_c, 0, 64, 85
1, 218807, Control_c, 0, 64, 86
1, 218822, Control_c, 0, 64, 88
1, 218830, Note_off_c, 0, 51, 63
1, 218837, Control_c, 0, 64, 90
1, 218848, Note_on_c, 0, 52, 68
1, 218851, Control_c, 0, 64, 92
1, 218866, Control_c, 0, 64, 93
1, 218881, Control_c, 0, 64, 94
1, 218896, Control_c, 0, 64, 96
1, 218910, Control_c, 0, 64, 100
1, 218925, Control_c, 0, 64, 105
1, 218940, Control_c, 0, 64, 113
1, 218947, Poly_aftertouch_c, 0, 44, 127
1, 218955, Control_c, 0, 64, 127
1, 218965, Note_on_c, 0, 51, 65
1, 218993, Poly_aftertouch_c, 0, 44, 0
1, 219002, Note_on_c, 0, 63, 67
1, 219004, Note_on_c, 0, 59, 61
1, 219012, Note_off_c, 0, 52, 56
1, 219082, Note_off_c, 0, 51, 62
1, 219092, Note_on_c, 0, 44, 63
1, 219136, Note_off_c, 0, 63, 63
1, 219147, Control_c, 0, 64, 90
1, 219162, Control_c, 0, 64, 68
1, 219177, Control_c, 0, 64, 57
1, 219190, Note_on_c, 0, 53, 81
1, 219191, Control_c, 0, 64, 42
1, 219206, Control_c, 0, 64, 32
1, 219221, Control_c, 0, 64, 34
1, 219224, Note_on_c, 0, 63, 69
1, 219227, Note_off_c, 0, 59, 36
1, 219236, Control_c, 0, 64, 41
1, 219251, Control_c, 0, 64, 52
1, 219266, Control_c, 0, 64, 63
1, 219281, Control_c, 0, 64, 84
1, 219282, Note_off_c, 0, 44, 59
1, 219296, Control_c, 0, 64, 127
1, 219311, Note_off_c, 0, 53, 60
1, 219311, Note_on_c, 0, 51, 65
1, 219348, Note_off_c, 0, 51, 65
1, 219349, Note_off_c, 0, 68, 56
1, 219366, Note_off_c, 0, 63, 64
1, 219401, Note_on_c, 0, 42, 65
1, 219403, Note_on_c, 0, 58, 74
1, 219437, Note_off_c, 0, 58, 68
1, 219449, Note_off_c, 0, 42, 62
1, 219520, Note_on_c, 0, 57, 76
1, 219545, Note_off_c, 0, 57, 66
1, 219616, Note_on_c, 0, 41, 74
1, 219704, Note_on_c, 0, 72, 92
1, 219704, Control_c, 0, 64, 84
1, 219719, Control_c, 0, 64, 61
1, 219733, Control_c, 0, 64, 42
1, 219748, Control_c, 0, 64, 10
1, 219763, Control_c, 0, 64, 0
1, 219778, Control_c, 0, 64, 11
1, 219793, Control_c, 0, 64, 27
1, 219807, Control_c, 0, 64, 39
1, 219822, Control_c, 0, 64, 54
1, 219837, Control_c, 0, 64, 67
1, 219851, Control_c, 0, 64, 98
1, 219854, Note_off_c, 0, 41, 61
1, 219865, Note_on_c, 0, 52, 62
1, 219866, Control_c, 0, 64, 127
1, 219881, Note_on_c, 0, 65, 68
1, 219886, Note_on_c, 0, 63, 66
1, 219927, Note_off_c, 0, 52, 63
1, 219966, Note_off_c, 0, 63, 62
1, 219991, Note_on_c, 0, 53, 64
1, 220005, Note_off_c, 0, 65, 56
1, 220026, Note_off_c, 0, 53, 65
1, 220089, Note_on_c, 0, 45, 79
1, 220205, Note_off_c, 0, 72, 61
1, 220207, Note_off_c, 0, 45, 63
1, 220214, Note_on_c, 0, 54, 74
1, 220218, Note_on_c, 0, 65, 66
1, 220222, Note_on_c, 0, 63, 71
1, 220292, Note_off_c, 0, 65, 65
1, 220312, Note_off_c, 0, 54, 64
1, 220345, Note_on_c, 0, 53, 68
1, 220437, Control_c, 0, 64, 73
1, 220443, Note_on_c, 0, 73, 97
1, 220444, Note_on_c, 0, 46, 71
1, 220452, Control_c, 0, 64, 58
1, 220467, Control_c, 0, 64, 39
1, 220482, Control_c, 0, 64, 16
1, 220485, Note_off_c, 0, 63, 65
1, 220497, Note_off_c, 0, 53, 58
1, 220497, Control_c, 0, 64, 14
1, 220512, Control_c, 0, 64, 20
1, 220527, Control_c, 0, 64, 31
1, 220542, Control_c, 0, 64, 45
1, 220556, Control_c, 0, 64, 61
1, 220571, Control_c, 0, 64, 98
1, 220582, Note_on_c, 0, 54, 70
1, 220586, Control_c, 0, 64, 127
1, 220587, Note_on_c, 0, 65, 74
1, 220602, Note_on_c, 0, 61, 66
1, 220618, Note_off_c, 0, 73, 61
1, 220628, Note_off_c, 0, 61, 68
1, 220652, Note_off_c, 0, 65, 63
1, 220672, Note_off_c, 0, 46, 62
1, 220686, Note_on_c, 0, 53, 71
1, 220691, Note_off_c, 0, 54, 64
1, 220714, Note_off_c, 0, 53, 66
1, 220807, Control_c, 0, 64, 92
1, 220822, Control_c, 0, 64, 63
1, 220834, Note_on_c, 0, 39, 81
1, 220837, Control_c, 0, 64, 46
1, 220852, Control_c, 0, 64, 19
1, 220861, Note_on_c, 0, 72, 90
1, 220867, Control_c, 0, 64, 0
1, 220882, Control_c, 0, 64, 18
1, 220897, Control_c, 0, 64, 32
1, 220911, Note_off_c, 0, 39, 65
1, 220911, Control_c, 0, 64, 45
1, 220934, Control_c, 0, 64, 59
1, 220948, Control_c, 0, 64, 78
1, 220963, Control_c, 0, 64, 127
1, 221017, Note_on_c, 0, 58, 72
1, 221037, Note_on_c, 0, 66, 72
1, 221043, Note_on_c, 0, 60, 60
1, 221076, Note_off_c, 0, 60, 48
1, 221093, Note_off_c, 0, 58, 61
1, 221136, Note_on_c, 0, 51, 47
1, 221162, Note_off_c, 0, 51, 59
1, 221174, Note_off_c, 0, 66, 58
1, 221216, Control_c, 0, 64, 104
1, 221230, Control_c, 0, 64, 66
1, 221245, Control_c, 0, 64, 44
1, 221254, Note_on_c, 0, 41, 84
1, 221260, Control_c, 0, 64, 0
1, 221310, Note_off_c, 0, 41, 67
1, 221320, Control_c, 0, 64, 24
1, 221335, Control_c, 0, 64, 38
1, 221350, Control_c, 0, 64, 55
1, 221365, Control_c, 0, 64, 71
1, 221371, Note_off_c, 0, 72, 62
1, 221379, Control_c, 0, 64, 127
1, 221389, Note_on_c, 0, 65, 77
1, 221390, Note_on_c, 0, 63, 81
1, 221399, Note_on_c, 0, 57, 74
1, 221528, Note_off_c, 0, 57, 60
1, 221532, Note_on_c, 0, 73, 94
1, 221540, Note_on_c, 0, 52, 49
1, 221546, Note_on_c, 0, 53, 46
1, 221567, Note_off_c, 0, 52, 60
1, 221576, Note_off_c, 0, 53, 55
1, 221576, Note_off_c, 0, 63, 62
1, 221581, Note_off_c, 0, 65, 62
1, 221660, Control_c, 0, 64, 75
1, 221678, Note_on_c, 0, 70, 86
1, 221683, Control_c, 0, 64, 58
1, 221683, Note_on_c, 0, 46, 86
1, 221697, Control_c, 0, 64, 37
1, 221712, Control_c, 0, 64, 0
1, 221757, Control_c, 0, 64, 22
1, 221771, Control_c, 0, 64, 39
1, 221786, Control_c, 0, 64, 56
1, 221797, Note_off_c, 0, 73, 62
1, 221801, Control_c, 0, 64, 83
1, 221806, Note_on_c, 0, 65, 80
1, 221816, Control_c, 0, 64, 127
1, 221818, Note_on_c, 0, 58, 75
1, 221823, Note_on_c, 0, 61, 58
1, 221829, Note_off_c, 0, 65, 71
1, 221845, Note_off_c, 0, 70, 59
1, 221846, Note_off_c, 0, 61, 64
1, 221919, Note_off_c, 0, 58, 61
1, 221976, Note_on_c, 0, 51, 69
1, 221990, Note_on_c, 0, 78, 96
1, 221999, Note_on_c, 0, 66, 77
1, 222017, Note_off_c, 0, 46, 62
1, 222028, Note_off_c, 0, 66, 60
1, 222052, Note_off_c, 0, 51, 64
1, 222230, Control_c, 0, 64, 115
1, 222237, Note_off_c, 0, 78, 63
1, 222239, Note_on_c, 0, 39, 81
1, 222241, Note_on_c, 0, 72, 89
1, 222244, Control_c, 0, 64, 66
1, 222259, Control_c, 0, 64, 47
1, 222274, Control_c, 0, 64, 0
1, 222318, Control_c, 0, 64, 13
1, 222333, Control_c, 0, 64, 32
1, 222334, Note_off_c, 0, 39, 65
1, 222348, Control_c, 0, 64, 46
1, 222363, Control_c, 0, 64, 61
1, 222378, Control_c, 0, 64, 88
1, 222393, Control_c, 0, 64, 127
1, 222485, Note_on_c, 0, 70, 79
1, 222488, Note_on_c, 0, 66, 63
1, 222491, Note_on_c, 0, 63, 75
1, 222511, Note_off_c, 0, 72, 57
1, 222661, Note_on_c, 0, 58, 66
1, 222661, Note_on_c, 0, 73, 79
1, 222736, Note_off_c, 0, 66, 40
1, 222758, Note_off_c, 0, 63, 57
1, 222808, Note_on_c, 0, 77, 86
1, 222813, Note_off_c, 0, 73, 63
1, 222822, Note_on_c, 0, 61, 70
1, 222843, Note_off_c, 0, 70, 21
1, 222941, Note_on_c, 0, 75, 80
1, 222945, Note_on_c, 0, 60, 68
1, 222951, Note_on_c, 0, 66, 74
1, 222971, Note_off_c, 0, 77, 60
1, 222971, Note_off_c, 0, 61, 60
1, 223009, Note_off_c, 0, 58, 33
1, 223037, Note_off_c, 0, 60, 65
1, 223064, Note_on_c, 0, 73, 81
1, 223066, Note_on_c, 0, 65, 74
1, 223102, Note_off_c, 0, 75, 27
1, 223133, Note_off_c, 0, 73, 63
1, 223136, Note_off_c, 0, 66, 56
1, 223138, Note_off_c, 0, 65, 52
1, 223195, Control_c, 0, 64, 79
1, 223198, Note_on_c, 0, 63, 78
1, 223208, Note_on_c, 0, 72, 88
1, 223209, Control_c, 0, 64, 57
1, 223224, Control_c, 0, 64, 30
1, 223239, Control_c, 0, 64, 0
1, 223254, Control_c, 0, 64, 12
1, 223266, Note_off_c, 0, 63, 64
1, 223268, Control_c, 0, 64, 33
1, 223283, Control_c, 0, 64, 48
1, 223298, Control_c, 0, 64, 65
1, 223313, Control_c, 0, 64, 127
1, 223329, Note_off_c, 0, 72, 61
1, 223331, Note_on_c, 0, 51, 81
1, 223336, Note_on_c, 0, 70, 81
1, 223341, Note_on_c, 0, 66, 76
1, 223459, Note_on_c, 0, 58, 73
1, 223470, Note_on_c, 0, 73, 83
1, 223478, Note_off_c, 0, 51, 61
1, 223479, Note_off_c, 0, 66, 37
1, 223498, Note_off_c, 0, 70, 64
1, 223619, Note_off_c, 0, 58, 63
1, 223621, Note_on_c, 0, 77, 88
1, 223624, Note_off_c, 0, 73, 64
1, 223628, Note_on_c, 0, 61, 71
1, 223759, Note_off_c, 0, 61, 65
1, 223767, Note_on_c, 0, 75, 79
1, 223769, Note_on_c, 0, 66, 79
1, 223780, Note_on_c, 0, 60, 55
1, 223817, Note_off_c, 0, 77, 54
1, 223863, Note_off_c, 0, 75, 58
1, 223884, Note_off_c, 0, 60, 64
1, 223895, Note_on_c, 0, 65, 75
1, 223899, Note_on_c, 0, 73, 78
1, 223970, Note_off_c, 0, 73, 62
1, 224027, Note_off_c, 0, 66, 59
1, 224060, Note_on_c, 0, 63, 76
1, 224062, Control_c, 0, 64, 70
1, 224064, Note_on_c, 0, 72, 88
1, 224077, Control_c, 0, 64, 52
1, 224087, Note_off_c, 0, 65, 61
1, 224091, Control_c, 0, 64, 18
1, 224106, Control_c, 0, 64, 0
1, 224121, Control_c, 0, 64, 14
1, 224136, Control_c, 0, 64, 32
1, 224151, Control_c, 0, 64, 46
1, 224154, Note_off_c, 0, 63, 64
1, 224165, Control_c, 0, 64, 61
1, 224180, Control_c, 0, 64, 92
1, 224195, Control_c, 0, 64, 127
1, 224214, Note_off_c, 0, 72, 62
1, 224218, Note_on_c, 0, 70, 80
1, 224223, Note_on_c, 0, 51, 81
1, 224223, Note_on_c, 0, 66, 80
1, 224400, Note_on_c, 0, 58, 66
1, 224400, Note_on_c, 0, 72, 85
1, 224404, Note_off_c, 0, 66, 38
1, 224426, Note_off_c, 0, 70, 60
1, 224442, Note_off_c, 0, 51, 61
1, 224510, Note_off_c, 0, 58, 61
1, 224616, Note_on_c, 0, 73, 86
1, 224617, Note_off_c, 0, 72, 65
1, 224634, Note_on_c, 0, 64, 59
1, 224692, Control_c, 0, 64, 70
1, 224707, Control_c, 0, 64, 50
1, 224721, Control_c, 0, 64, 0
1, 224796, Control_c, 0, 64, 36
1, 224810, Control_c, 0, 64, 54
1, 224825, Control_c, 0, 64, 73
1, 224840, Control_c, 0, 64, 127
1, 224873, Note_on_c, 0, 52, 62
1, 224882, Note_on_c, 0, 70, 81
1, 224882, Note_on_c, 0, 67, 72
1, 224918, Note_off_c, 0, 73, 63
1, 225148, Note_on_c, 0, 58, 49
1, 225171, Note_off_c, 0, 52, 34
1, 225218, Note_on_c, 0, 73, 78
1, 225249, Note_off_c, 0, 67, 51
1, 225359, Note_off_c, 0, 64, 42
1, 225383, Note_off_c, 0, 70, 55
1, 225435, Note_off_c, 0, 58, 30
1, 225481, Note_off_c, 0, 73, 54
1, 225853, Note_on_c, 0, 53, 32
1, 225936, Note_on_c, 0, 74, 63
1, 226033, Control_c, 0, 64, 102
1, 226048, Control_c, 0, 64, 94
1, 226063, Control_c, 0, 64, 88
1, 226078, Control_c, 0, 64, 82
1, 226092, Control_c, 0, 64, 73
1, 226107, Control_c, 0, 64, 63
1, 226122, Control_c, 0, 64, 45
1, 226137, Control_c, 0, 64, 0
1, 226307, Control_c, 0, 64, 25
1, 226322, Control_c, 0, 64, 39
1, 226337, Control_c, 0, 64, 51
1, 226352, Control_c, 0, 64, 63
1, 226366, Control_c, 0, 64, 75
1, 226381, Control_c, 0, 64, 88
1, 226396, Control_c, 0, 64, 89
1, 226411, Control_c, 0, 64, 90
1, 226426, Control_c, 0, 64, 93
1, 226441, Control_c, 0, 64, 97
1, 226456, Control_c, 0, 64, 101
1, 226471, Control_c, 0, 64, 105
1, 226485, Control_c, 0, 64, 106
1, 226500, Control_c, 0, 64, 108
1, 226515, Control_c, 0, 64, 108
1, 226530, Control_c, 0, 64, 109
1, 226544, Control_c, 0, 64, 110
1, 226574, Control_c, 0, 64, 111
1, 226580, Note_on_c, 0, 58, 24
1, 226589, Control_c, 0, 64, 114
1, 226593, Note_on_c, 0, 65, 35
1, 226604, Control_c, 0, 64, 115
1, 226618, Control_c, 0, 64, 117
1, 226633, Control_c, 0, 64, 119
1, 226648, Control_c, 0, 64, 127
1, 226787, Note_off_c, 0, 58, 47
1, 226817, Note_off_c, 0, 65, 44
1, 226965, Note_on_c, 0, 65, 39
1, 226972, Note_on_c, 0, 58, 33
1, 227112, Note_off_c, 0, 58, 60
1, 227118, Note_off_c, 0, 65, 56
1, 227252, Note_on_c, 0, 58, 48
1, 227253, Note_on_c, 0, 65, 50
1, 227315, Note_off_c, 0, 53, 32
1, 227332, Note_off_c, 0, 65, 55
1, 227335, Note_off_c, 0, 58, 58
1, 227531, Note_on_c, 0, 75, 66
1, 227535, Note_on_c, 0, 58, 35
1, 227536, Note_on_c, 0, 67, 41
1, 227553, Note_off_c, 0, 74, 48
1, 227560, Control_c, 0, 64, 95
1, 227575, Control_c, 0, 64, 67
1, 227591, Control_c, 0, 64, 57
1, 227606, Control_c, 0, 64, 46
1, 227621, Control_c, 0, 64, 44
1, 227636, Control_c, 0, 64, 50
1, 227651, Control_c, 0, 64, 58
1, 227672, Control_c, 0, 64, 64
1, 227687, Control_c, 0, 64, 74
1, 227702, Control_c, 0, 64, 91
1, 227717, Control_c, 0, 64, 105
1, 227732, Control_c, 0, 64, 113
1, 227743, Note_off_c, 0, 67, 40
1, 227747, Control_c, 0, 64, 127
1, 227812, Note_on_c, 0, 62, 51
1, 227820, Note_on_c, 0, 56, 44
1, 227823, Note_on_c, 0, 70, 71
1, 227916, Note_off_c, 0, 58, 44
1, 227928, Note_off_c, 0, 62, 62
1, 228024, Note_off_c, 0, 75, 35
1, 228087, Control_c, 0, 64, 119
1, 228102, Control_c, 0, 64, 109
1, 228117, Control_c, 0, 64, 103
1, 228131, Control_c, 0, 64, 96
1, 228133, Note_on_c, 0, 53, 39
1, 228146, Control_c, 0, 64, 91
1, 228161, Control_c, 0, 64, 87
1, 228174, Note_off_c, 0, 56, 32
1, 228176, Control_c, 0, 64, 83
1, 228190, Note_off_c, 0, 70, 60
1, 228191, Control_c, 0, 64, 80
1, 228206, Control_c, 0, 64, 73
1, 228207, Note_on_c, 0, 71, 54
1, 228221, Control_c, 0, 64, 63
1, 228236, Control_c, 0, 64, 50
1, 228250, Control_c, 0, 64, 28
1, 228265, Control_c, 0, 64, 0
1, 228324, Control_c, 0, 64, 12
1, 228339, Control_c, 0, 64, 28
1, 228354, Control_c, 0, 64, 40
1, 228369, Control_c, 0, 64, 52
1, 228385, Control_c, 0, 64, 63
1, 228399, Control_c, 0, 64, 76
1, 228421, Control_c, 0, 64, 86
1, 228466, Note_on_c, 0, 74, 55
1, 228471, Note_off_c, 0, 71, 36
1, 228481, Control_c, 0, 64, 87
1, 228495, Control_c, 0, 64, 88
1, 228510, Control_c, 0, 64, 89
1, 228525, Control_c, 0, 64, 90
1, 228591, Note_on_c, 0, 57, 35
1, 228596, Note_off_c, 0, 74, 59
1, 228599, Control_c, 0, 64, 90
1, 228601, Note_on_c, 0, 71, 58
1, 228609, Note_on_c, 0, 63, 21
1, 228644, Control_c, 0, 64, 91
1, 228705, Note_off_c, 0, 57, 56
1, 228718, Note_on_c, 0, 74, 59
1, 228724, Note_off_c, 0, 63, 49
1, 228756, Note_off_c, 0, 71, 63
1, 228792, Control_c, 0, 64, 90
1, 228806, Control_c, 0, 64, 88
1, 228821, Control_c, 0, 64, 85
1, 228836, Control_c, 0, 64, 78
1, 228848, Note_on_c, 0, 57, 45
1, 228851, Control_c, 0, 64, 69
1, 228853, Note_on_c, 0, 72, 58
1, 228855, Note_on_c, 0, 63, 37
1, 228866, Control_c, 0, 64, 60
1, 228877, Note_off_c, 0, 74, 58
1, 228880, Control_c, 0, 64, 45
1, 228895, Control_c, 0, 64, 28
1, 228910, Control_c, 0, 64, 24
1, 228925, Control_c, 0, 64, 25
1, 228939, Control_c, 0, 64, 28
1, 228954, Control_c, 0, 64, 34
1, 228969, Note_off_c, 0, 57, 56
1, 228969, Control_c, 0, 64, 42
1, 228984, Control_c, 0, 64, 54
1, 228999, Control_c, 0, 64, 64
1, 229004, Note_off_c, 0, 63, 41
1, 229014, Control_c, 0, 64, 75
1, 229028, Control_c, 0, 64, 86
1, 229043, Control_c, 0, 64, 88
1, 229073, Control_c, 0, 64, 88
1, 229103, Control_c, 0, 64, 89
1, 229118, Control_c, 0, 64, 91
1, 229127, Note_on_c, 0, 57, 41
1, 229128, Note_on_c, 0, 63, 41
1, 229132, Control_c, 0, 64, 92
1, 229134, Note_off_c, 0, 72, 36
1, 229147, Control_c, 0, 64, 92
1, 229289, Control_c, 0, 64, 92
1, 229304, Control_c, 0, 64, 91
1, 229318, Control_c, 0, 64, 89
1, 229333, Control_c, 0, 64, 88
1, 229348, Control_c, 0, 64, 87
1, 229362, Control_c, 0, 64, 86
1, 229377, Control_c, 0, 64, 85
1, 229392, Control_c, 0, 64, 84
1, 229407, Control_c, 0, 64, 83
1, 229413, Note_off_c, 0, 63, 38
1, 229415, Note_on_c, 0, 52, 59
1, 229422, Control_c, 0, 64, 80
1, 229437, Control_c, 0, 64, 72
1, 229452, Control_c, 0, 64, 60
1, 229467, Control_c, 0, 64, 36
1, 229482, Control_c, 0, 64, 0
1, 229489, Note_off_c, 0, 53, 36
1, 229541, Control_c, 0, 64, 17
1, 229543, Note_off_c, 0, 57, 49
1, 229556, Control_c, 0, 64, 34
1, 229570, Control_c, 0, 64, 51
1, 229585, Control_c, 0, 64, 65
1, 229600, Control_c, 0, 64, 103
1, 229615, Control_c, 0, 64, 127
1, 229729, Note_on_c, 0, 51, 55
1, 229747, Note_off_c, 0, 52, 33
1, 229870, Note_on_c, 0, 65, 69
1, 229969, Note_off_c, 0, 51, 60
1, 230053, Control_c, 0, 64, 113
1, 230067, Control_c, 0, 64, 107
1, 230082, Control_c, 0, 64, 101
1, 230091, Note_on_c, 0, 50, 38
1, 230097, Control_c, 0, 64, 96
1, 230112, Control_c, 0, 64, 92
1, 230127, Control_c, 0, 64, 88
1, 230141, Control_c, 0, 64, 84
1, 230156, Control_c, 0, 64, 79
1, 230171, Control_c, 0, 64, 72
1, 230185, Control_c, 0, 64, 63
1, 230200, Control_c, 0, 64, 50
1, 230215, Control_c, 0, 64, 21
1, 230218, Note_on_c, 0, 77, 68
1, 230230, Control_c, 0, 64, 0
1, 230233, Note_off_c, 0, 65, 42
1, 230334, Control_c, 0, 64, 24
1, 230349, Control_c, 0, 64, 42
1, 230364, Control_c, 0, 64, 59
1, 230379, Control_c, 0, 64, 84
1, 230393, Control_c, 0, 64, 127
1, 230400, Note_off_c, 0, 50, 51
1, 230662, Note_on_c, 0, 65, 37
1, 230671, Note_on_c, 0, 58, 36
1, 230767, Note_off_c, 0, 58, 50
1, 230818, Note_off_c, 0, 65, 44
1, 230955, Note_on_c, 0, 58, 21
1, 230957, Note_on_c, 0, 65, 29
1, 231085, Note_off_c, 0, 58, 42
1, 231106, Note_off_c, 0, 65, 41
1, 231288, Note_on_c, 0, 65, 23
1, 231300, Note_on_c, 0, 58, 25
1, 231440, Note_off_c, 0, 65, 43
1, 231441, Note_off_c, 0, 58, 42
1, 231714, Note_on_c, 0, 58, 26
1, 231714, Note_on_c, 0, 75, 39
1, 231732, Note_on_c, 0, 65, 13
1, 231850, Note_off_c, 0, 77, 37
1, 231904, Note_off_c, 0, 65, 45
1, 231911, Note_off_c, 0, 58, 38
1, 232102, Note_on_c, 0, 58, 33
1, 232107, Note_on_c, 0, 65, 25
1, 232198, Note_off_c, 0, 65, 39
1, 232305, Note_off_c, 0, 75, 38
1, 232322, Note_on_c, 0, 74, 46
1, 232346, Note_off_c, 0, 58, 41
1, 232448, Note_off_c, 0, 74, 61
1, 232627, Note_on_c, 0, 51, 30
1, 232743, Control_c, 0, 64, 109
1, 232747, Note_on_c, 0, 74, 31
1, 232758, Control_c, 0, 64, 86
1, 232772, Control_c, 0, 64, 70
1, 232787, Control_c, 0, 64, 59
1, 232802, Control_c, 0, 64, 45
1, 232817, Control_c, 0, 64, 26
1, 232832, Control_c, 0, 64, 21
1, 232877, Control_c, 0, 64, 23
1, 232892, Control_c, 0, 64, 29
1, 232913, Control_c, 0, 64, 39
1, 232928, Control_c, 0, 64, 50
1, 232943, Control_c, 0, 64, 61
1, 232958, Control_c, 0, 64, 74
1, 232973, Control_c, 0, 64, 94
1, 232987, Control_c, 0, 64, 97
1, 233002, Control_c, 0, 64, 98
1, 233017, Control_c, 0, 64, 99
1, 233032, Control_c, 0, 64, 100
1, 233047, Control_c, 0, 64, 102
1, 233062, Control_c, 0, 64, 103
1, 233066, Note_off_c, 0, 74, 58
1, 233075, Note_on_c, 0, 75, 45
1, 233077, Control_c, 0, 64, 104
1, 233091, Control_c, 0, 64, 105
1, 233106, Control_c, 0, 64, 106
1, 233121, Control_c, 0, 64, 107
1, 233166, Control_c, 0, 64, 108
1, 233196, Control_c, 0, 64, 108
1, 233264, Note_on_c, 0, 71, 36
1, 233265, Note_on_c, 0, 58, 33
1, 233282, Note_on_c, 0, 66, 17
1, 233300, Control_c, 0, 64, 109
1, 233374, Control_c, 0, 64, 110
1, 233403, Note_on_c, 0, 74, 51
1, 233403, Control_c, 0, 64, 111
1, 233426, Note_off_c, 0, 58, 35
1, 233433, Control_c, 0, 64, 113
1, 233446, Note_off_c, 0, 66, 39
1, 233450, Note_off_c, 0, 71, 41
1, 233494, Note_off_c, 0, 75, 20
1, 233557, Note_on_c, 0, 58, 35
1, 233565, Note_off_c, 0, 74, 50
1, 233575, Note_on_c, 0, 72, 48
1, 233580, Note_on_c, 0, 66, 39
1, 233582, Control_c, 0, 64, 110
1, 233596, Control_c, 0, 64, 95
1, 233611, Control_c, 0, 64, 78
1, 233626, Control_c, 0, 64, 66
1, 233636, Note_off_c, 0, 66, 0
1, 233636, Note_on_c, 0, 66, 5
1, 233641, Control_c, 0, 64, 57
1, 233664, Control_c, 0, 64, 45
1, 233678, Control_c, 0, 64, 41
1, 233693, Control_c, 0, 64, 47
1, 233708, Control_c, 0, 64, 55
1, 233723, Control_c, 0, 64, 64
1, 233737, Control_c, 0, 64, 75
1, 233750, Note_off_c, 0, 66, 36
1, 233752, Control_c, 0, 64, 92
1, 233755, Note_off_c, 0, 58, 39
1, 233767, Control_c, 0, 64, 95
1, 233782, Control_c, 0, 64, 96
1, 233797, Control_c, 0, 64, 97
1, 233811, Control_c, 0, 64, 98
1, 233866, Note_on_c, 0, 66, 45
1, 233875, Note_on_c, 0, 58, 40
1, 233974, Note_off_c, 0, 58, 55
1, 233974, Control_c, 0, 64, 99
1, 234038, Note_off_c, 0, 66, 43
1, 234108, Control_c, 0, 64, 99
1, 234186, Note_on_c, 0, 66, 43
1, 234200, Note_on_c, 0, 58, 41
1, 234213, Note_off_c, 0, 72, 48
1, 234244, Note_off_c, 0, 58, 61
1, 234258, Note_off_c, 0, 51, 43
1, 234315, Control_c, 0, 64, 100
1, 234330, Control_c, 0, 64, 100
1, 234344, Control_c, 0, 64, 101
1, 234359, Control_c, 0, 64, 101
1, 234374, Control_c, 0, 64, 102
1, 234389, Control_c, 0, 64, 103
1, 234412, Control_c, 0, 64, 103
1, 234426, Control_c, 0, 64, 104
1, 234574, Control_c, 0, 64, 105
1, 234582, Note_on_c, 0, 78, 67
1, 234589, Control_c, 0, 64, 105
1, 234604, Control_c, 0, 64, 106
1, 234612, Note_on_c, 0, 39, 42
1, 234619, Control_c, 0, 64, 108
1, 234633, Control_c, 0, 64, 111
1, 234648, Control_c, 0, 64, 119
1, 234663, Control_c, 0, 64, 127
1, 234763, Note_off_c, 0, 39, 35
1, 234820, Note_off_c, 0, 66, 40
1, 234959, Note_off_c, 0, 78, 60
1, 235032, Note_on_c, 0, 41, 32
1, 235034, Control_c, 0, 64, 113
1, 235048, Control_c, 0, 64, 105
1, 235063, Control_c, 0, 64, 99
1, 235078, Control_c, 0, 64, 93
1, 235093, Control_c, 0, 64, 88
1, 235107, Control_c, 0, 64, 80
1, 235122, Control_c, 0, 64, 70
1, 235137, Control_c, 0, 64, 60
1, 235154, Note_on_c, 0, 77, 65
1, 235160, Control_c, 0, 64, 44
1, 235175, Control_c, 0, 64, 14
1, 235189, Control_c, 0, 64, 0
1, 235249, Control_c, 0, 64, 18
1, 235263, Control_c, 0, 64, 32
1, 235278, Control_c, 0, 64, 44
1, 235293, Control_c, 0, 64, 57
1, 235295, Note_off_c, 0, 41, 54
1, 235307, Control_c, 0, 64, 73
1, 235322, Control_c, 0, 64, 117
1, 235337, Control_c, 0, 64, 127
1, 235571, Note_on_c, 0, 62, 40
1, 235578, Note_on_c, 0, 58, 48
1, 235587, Note_on_c, 0, 50, 35
1, 235686, Note_off_c, 0, 62, 42
1, 235691, Note_off_c, 0, 58, 61
1, 235727, Note_off_c, 0, 50, 38
1, 235790, Note_on_c, 0, 76, 64
1, 235834, Note_off_c, 0, 77, 58
1, 235983, Control_c, 0, 64, 111
1, 235989, Note_on_c, 0, 43, 37
1, 235998, Control_c, 0, 64, 102
1, 236012, Control_c, 0, 64, 92
1, 236027, Control_c, 0, 64, 77
1, 236042, Control_c, 0, 64, 65
1, 236057, Control_c, 0, 64, 52
1, 236072, Control_c, 0, 64, 34
1, 236074, Note_on_c, 0, 75, 61
1, 236086, Control_c, 0, 64, 19
1, 236101, Control_c, 0, 64, 18
1, 236129, Note_off_c, 0, 76, 59
1, 236130, Control_c, 0, 64, 19
1, 236145, Control_c, 0, 64, 25
1, 236160, Control_c, 0, 64, 37
1, 236175, Control_c, 0, 64, 49
1, 236190, Control_c, 0, 64, 61
1, 236204, Control_c, 0, 64, 77
1, 236219, Control_c, 0, 64, 127
1, 236262, Note_off_c, 0, 43, 40
1, 236292, Note_on_c, 0, 74, 69
1, 236378, Note_off_c, 0, 75, 55
1, 236434, Note_off_c, 0, 74, 64
1, 236445, Note_on_c, 0, 72, 70
1, 236451, Note_on_c, 0, 58, 48
1, 236463, Note_on_c, 0, 52, 53
1, 236473, Note_on_c, 0, 62, 27
1, 236510, Note_off_c, 0, 62, 50
1, 236529, Note_off_c, 0, 58, 63
1, 236555, Note_off_c, 0, 52, 65
1, 236596, Note_off_c, 0, 72, 63
1, 236597, Note_on_c, 0, 70, 77
1, 236701, Control_c, 0, 64, 86
1, 236716, Control_c, 0, 64, 66
1, 236731, Control_c, 0, 64, 49
1, 236739, Note_on_c, 0, 36, 58
1, 236741, Note_on_c, 0, 69, 74
1, 236746, Control_c, 0, 64, 26
1, 236754, Note_off_c, 0, 70, 62
1, 236761, Control_c, 0, 64, 14
1, 236776, Control_c, 0, 64, 16
1, 236791, Control_c, 0, 64, 24
1, 236806, Control_c, 0, 64, 34
1, 236820, Control_c, 0, 64, 47
1, 236821, Note_off_c, 0, 36, 64
1, 236835, Control_c, 0, 64, 63
1, 236850, Control_c, 0, 64, 85
1, 236865, Control_c, 0, 64, 127
1, 236875, Note_on_c, 0, 70, 84
1, 237002, Note_off_c, 0, 69, 51
1, 237020, Note_on_c, 0, 72, 81
1, 237023, Note_on_c, 0, 58, 50
1, 237025, Note_off_c, 0, 70, 67
1, 237028, Note_on_c, 0, 60, 39
1, 237041, Note_on_c, 0, 52, 51
1, 237125, Note_off_c, 0, 58, 63
1, 237141, Note_off_c, 0, 60, 37
1, 237148, Note_off_c, 0, 52, 65
1, 237163, Note_on_c, 0, 74, 83
1, 237205, Note_off_c, 0, 72, 57
1, 237294, Control_c, 0, 64, 114
1, 237309, Control_c, 0, 64, 105
1, 237323, Note_on_c, 0, 41, 51
1, 237324, Control_c, 0, 64, 100
1, 237339, Control_c, 0, 64, 95
1, 237354, Control_c, 0, 64, 91
1, 237369, Control_c, 0, 64, 85
1, 237384, Control_c, 0, 64, 74
1, 237406, Control_c, 0, 64, 60
1, 237413, Note_on_c, 0, 65, 80
1, 237421, Control_c, 0, 64, 38
1, 237436, Control_c, 0, 64, 0
1, 237442, Note_off_c, 0, 74, 44
1, 237524, Control_c, 0, 64, 26
1, 237539, Control_c, 0, 64, 46
1, 237540, Note_off_c, 0, 41, 65
1, 237554, Control_c, 0, 64, 64
1, 237569, Control_c, 0, 64, 127
1, 237752, Note_on_c, 0, 58, 60
1, 237757, Note_on_c, 0, 48, 56
1, 237757, Note_off_c, 0, 65, 57
1, 237924, Note_off_c, 0, 48, 61
1, 237941, Note_off_c, 0, 58, 62
1, 238029, Note_on_c, 0, 58, 64
1, 238033, Note_on_c, 0, 48, 62
1, 238158, Note_off_c, 0, 58, 62
1, 238162, Note_off_c, 0, 48, 64
1, 238284, Note_on_c, 0, 58, 50
1, 238285, Note_on_c, 0, 48, 57
1, 238320, Note_on_c, 0, 60, 76
1, 238334, Note_off_c, 0, 58, 57
1, 238435, Note_off_c, 0, 48, 59
1, 238543, Note_on_c, 0, 62, 84
1, 238585, Note_off_c, 0, 60, 59
1, 238704, Note_on_c, 0, 63, 80
1, 238710, Note_on_c, 0, 41, 49
1, 238717, Control_c, 0, 64, 83
1, 238732, Control_c, 0, 64, 62
1, 238747, Control_c, 0, 64, 49
1, 238762, Control_c, 0, 64, 37
1, 238778, Control_c, 0, 64, 39
1, 238793, Control_c, 0, 64, 47
1, 238808, Control_c, 0, 64, 57
1, 238809, Note_off_c, 0, 62, 56
1, 238818, Note_off_c, 0, 41, 63
1, 238822, Control_c, 0, 64, 66
1, 238837, Control_c, 0, 64, 83
1, 238847, Note_on_c, 0, 64, 82
1, 238852, Control_c, 0, 64, 103
1, 238867, Control_c, 0, 64, 127
1, 238901, Note_off_c, 0, 63, 61
1, 238976, Note_on_c, 0, 65, 85
1, 238977, Note_on_c, 0, 57, 69
1, 238986, Note_on_c, 0, 48, 63
1, 239007, Note_off_c, 0, 64, 62
1, 239041, Note_off_c, 0, 57, 60
1, 239074, Note_off_c, 0, 48, 64
1, 239112, Note_on_c, 0, 63, 87
1, 239115, Note_off_c, 0, 65, 68
1, 239259, Control_c, 0, 64, 108
1, 239274, Control_c, 0, 64, 96
1, 239289, Control_c, 0, 64, 86
1, 239291, Note_on_c, 0, 42, 66
1, 239304, Control_c, 0, 64, 77
1, 239319, Control_c, 0, 64, 64
1, 239330, Note_on_c, 0, 62, 82
1, 239333, Control_c, 0, 64, 49
1, 239348, Control_c, 0, 64, 0
1, 239365, Note_off_c, 0, 63, 60
1, 239466, Control_c, 0, 64, 22
1, 239481, Control_c, 0, 64, 41
1, 239496, Control_c, 0, 64, 61
1, 239511, Control_c, 0, 64, 95
1, 239519, Note_off_c, 0, 42, 60
1, 239526, Control_c, 0, 64, 127
1, 239688, Note_on_c, 0, 57, 67
1, 239690, Note_on_c, 0, 50, 66
1, 239828, Note_off_c, 0, 57, 61
1, 239900, Note_off_c, 0, 50, 52
1, 239949, Control_c, 0, 64, 119
1, 239953, Note_on_c, 0, 43, 72
1, 239963, Control_c, 0, 64, 75
1, 239978, Control_c, 0, 64, 59
1, 239993, Control_c, 0, 64, 40
1, 240008, Control_c, 0, 64, 11
1, 240023, Control_c, 0, 64, 0
1, 240052, Control_c, 0, 64, 14
1, 240067, Control_c, 0, 64, 32
1, 240082, Control_c, 0, 64, 46
1, 240097, Control_c, 0, 64, 60
1, 240111, Control_c, 0, 64, 78
1, 240116, Note_off_c, 0, 43, 59
1, 240126, Control_c, 0, 64, 127
1, 240255, Note_on_c, 0, 58, 70
1, 240271, Note_on_c, 0, 50, 51
1, 240324, Note_off_c, 0, 58, 62
1, 240346, Note_off_c, 0, 50, 62
1, 240461, Control_c, 0, 64, 115
1, 240475, Control_c, 0, 64, 109
1, 240490, Control_c, 0, 64, 105
1, 240505, Control_c, 0, 64, 102
1, 240520, Control_c, 0, 64, 99
1, 240535, Control_c, 0, 64, 95
1, 240550, Control_c, 0, 64, 90
1, 240565, Control_c, 0, 64, 77
1, 240579, Control_c, 0, 64, 64
1, 240594, Control_c, 0, 64, 50
1, 240603, Note_on_c, 0, 38, 53
1, 240609, Control_c, 0, 64, 26
1, 240624, Control_c, 0, 64, 0
1, 240668, Control_c, 0, 64, 16
1, 240683, Control_c, 0, 64, 32
1, 240698, Control_c, 0, 64, 44
1, 240699, Note_off_c, 0, 38, 63
1, 240713, Control_c, 0, 64, 57
1, 240727, Control_c, 0, 64, 69
1, 240742, Control_c, 0, 64, 92
1, 240757, Control_c, 0, 64, 96
1, 240787, Control_c, 0, 64, 98
1, 240801, Control_c, 0, 64, 100
1, 240816, Control_c, 0, 64, 101
1, 240831, Control_c, 0, 64, 103
1, 240952, Note_on_c, 0, 57, 49
1, 240952, Note_on_c, 0, 54, 48
1, 240967, Note_on_c, 0, 50, 34
1, 241068, Control_c, 0, 64, 102
1, 241078, Note_off_c, 0, 57, 60
1, 241083, Control_c, 0, 64, 100
1, 241098, Control_c, 0, 64, 99
1, 241106, Note_off_c, 0, 54, 60
1, 241112, Control_c, 0, 64, 97
1, 241116, Note_off_c, 0, 50, 40
1, 241127, Control_c, 0, 64, 95
1, 241149, Control_c, 0, 64, 94
1, 241165, Control_c, 0, 64, 92
1, 241180, Control_c, 0, 64, 91
1, 241195, Control_c, 0, 64, 89
1, 241210, Control_c, 0, 64, 88
1, 241224, Control_c, 0, 64, 86
1, 241239, Control_c, 0, 64, 85
1, 241254, Control_c, 0, 64, 83
1, 241269, Control_c, 0, 64, 81
1, 241284, Control_c, 0, 64, 76
1, 241298, Control_c, 0, 64, 67
1, 241313, Control_c, 0, 64, 57
1, 241328, Control_c, 0, 64, 37
1, 241336, Note_on_c, 0, 55, 39
1, 241337, Note_on_c, 0, 59, 45
1, 241343, Control_c, 0, 64, 13
1, 241345, Note_on_c, 0, 50, 26
1, 241357, Control_c, 0, 64, 0
1, 241402, Control_c, 0, 64, 10
1, 241417, Control_c, 0, 64, 28
1, 241432, Control_c, 0, 64, 40
1, 241447, Control_c, 0, 64, 52
1, 241459, Note_off_c, 0, 59, 62
1, 241462, Control_c, 0, 64, 63
1, 241472, Note_off_c, 0, 55, 55
1, 241476, Control_c, 0, 64, 79
1, 241491, Control_c, 0, 64, 100
1, 241504, Note_off_c, 0, 50, 52
1, 241506, Control_c, 0, 64, 101
1, 241735, Note_on_c, 0, 43, 38
1, 241757, Control_c, 0, 64, 101
1, 241772, Control_c, 0, 64, 100
1, 241787, Control_c, 0, 64, 100
1, 241802, Control_c, 0, 64, 99
1, 241831, Control_c, 0, 64, 99
1, 241846, Control_c, 0, 64, 98
1, 241861, Control_c, 0, 64, 97
1, 241876, Control_c, 0, 64, 96
1, 241898, Control_c, 0, 64, 95
1, 241928, Control_c, 0, 64, 94
1, 241942, Control_c, 0, 64, 94
1, 241950, Note_off_c, 0, 43, 44
1, 241957, Control_c, 0, 64, 93
1, 241988, Control_c, 0, 64, 92
1, 242003, Control_c, 0, 64, 91
1, 242018, Control_c, 0, 64, 90
1, 242033, Control_c, 0, 64, 88
1, 242047, Control_c, 0, 64, 88
1, 242062, Control_c, 0, 64, 87
1, 242077, Control_c, 0, 64, 85
1, 242091, Control_c, 0, 64, 84
1, 242106, Control_c, 0, 64, 83
1, 242121, Control_c, 0, 64, 82
1, 242136, Control_c, 0, 64, 81
1, 242151, Control_c, 0, 64, 79
1, 242165, Control_c, 0, 64, 78
1, 242180, Control_c, 0, 64, 76
1, 242195, Control_c, 0, 64, 73
1, 242210, Control_c, 0, 64, 68
1, 242216, Note_on_c, 0, 63, 51
1, 242225, Control_c, 0, 64, 62
1, 242235, Note_on_c, 0, 36, 38
1, 242240, Control_c, 0, 64, 51
1, 242255, Control_c, 0, 64, 34
1, 242270, Control_c, 0, 64, 0
1, 242273, Note_off_c, 0, 62, 49
1, 242359, Control_c, 0, 64, 22
1, 242373, Control_c, 0, 64, 40
1, 242388, Control_c, 0, 64, 54
1, 242394, Note_off_c, 0, 36, 55
1, 242403, Control_c, 0, 64, 67
1, 242418, Control_c, 0, 64, 94
1, 242432, Control_c, 0, 64, 122
1, 242763, Note_on_c, 0, 60, 32
1, 242779, Note_on_c, 0, 55, 31
1, 242781, Note_on_c, 0, 48, 34
1, 242871, Note_off_c, 0, 60, 53
1, 242930, Note_off_c, 0, 55, 38
1, 242952, Note_off_c, 0, 48, 40
1, 243122, Control_c, 0, 64, 119
1, 243152, Control_c, 0, 64, 117
1, 243182, Control_c, 0, 64, 115
1, 243212, Control_c, 0, 64, 114
1, 243226, Control_c, 0, 64, 111
1, 243241, Control_c, 0, 64, 110
1, 243256, Control_c, 0, 64, 109
1, 243286, Control_c, 0, 64, 108
1, 243301, Control_c, 0, 64, 107
1, 243315, Control_c, 0, 64, 105
1, 243330, Control_c, 0, 64, 105
1, 243345, Control_c, 0, 64, 103
1, 243360, Control_c, 0, 64, 102
1, 243375, Control_c, 0, 64, 101
1, 243396, Control_c, 0, 64, 99
1, 243411, Control_c, 0, 64, 97
1, 243426, Control_c, 0, 64, 95
1, 243441, Control_c, 0, 64, 93
1, 243456, Control_c, 0, 64, 91
1, 243471, Control_c, 0, 64, 89
1, 243486, Control_c, 0, 64, 87
1, 243501, Control_c, 0, 64, 85
1, 243515, Control_c, 0, 64, 80
1, 243522, Note_on_c, 0, 29, 34
1, 243530, Control_c, 0, 64, 74
1, 243545, Control_c, 0, 64, 65
1, 243560, Control_c, 0, 64, 57
1, 243575, Control_c, 0, 64, 44
1, 243590, Control_c, 0, 64, 34
1, 243605, Control_c, 0, 64, 32
1, 243635, Control_c, 0, 64, 34
1, 243650, Control_c, 0, 64, 39
1, 243664, Control_c, 0, 64, 47
1, 243679, Control_c, 0, 64, 57
1, 243694, Control_c, 0, 64, 66
1, 243709, Control_c, 0, 64, 82
1, 243710, Note_off_c, 0, 29, 38
1, 243724, Control_c, 0, 64, 93
1, 243738, Control_c, 0, 64, 99
1, 243753, Control_c, 0, 64, 103
1, 243768, Control_c, 0, 64, 110
1, 243783, Control_c, 0, 64, 119
1, 243798, Control_c, 0, 64, 127
1, 243858, Note_off_c, 0, 63, 59
1, 243908, Note_on_c, 0, 65, 44
1, 244105, Note_off_c, 0, 65, 38
1, 244126, Note_on_c, 0, 69, 44
1, 244240, Note_off_c, 0, 69, 54
1, 244261, Note_on_c, 0, 72, 43
1, 244332, Note_on_c, 0, 57, 36
1, 244338, Note_on_c, 0, 53, 33
1, 244347, Note_off_c, 0, 72, 46
1, 244352, Note_on_c, 0, 63, 26
1, 244368, Note_on_c, 0, 75, 39
1, 244395, Note_off_c, 0, 75, 55
1, 244416, Note_off_c, 0, 63, 45
1, 244430, Note_off_c, 0, 57, 53
1, 244456, Note_on_c, 0, 77, 57
1, 244482, Note_off_c, 0, 53, 51
1, 244564, Note_on_c, 0, 81, 58
1, 244587, Note_off_c, 0, 77, 34
1, 244676, Note_on_c, 0, 79, 61
1, 244678, Note_off_c, 0, 81, 56
1, 244818, Note_on_c, 0, 34, 53
1, 244827, Control_c, 0, 64, 122
1, 244842, Control_c, 0, 64, 102
1, 244857, Control_c, 0, 64, 86
1, 244872, Control_c, 0, 64, 72
1, 244893, Control_c, 0, 64, 61
1, 244908, Control_c, 0, 64, 42
1, 244919, Note_off_c, 0, 79, 58
1, 244923, Control_c, 0, 64, 0
1, 244936, Note_on_c, 0, 77, 56
1, 244997, Control_c, 0, 64, 21
1, 245012, Control_c, 0, 64, 37
1, 245024, Note_off_c, 0, 34, 63
1, 245027, Control_c, 0, 64, 52
1, 245042, Control_c, 0, 64, 67
1, 245057, Control_c, 0, 64, 127
1, 245493, Note_on_c, 0, 62, 40
1, 245507, Note_on_c, 0, 53, 17
1, 245623, Note_off_c, 0, 53, 44
1, 245649, Note_off_c, 0, 62, 51
1, 245912, Note_on_c, 0, 74, 61
1, 245921, Note_on_c, 0, 65, 48
1, 245939, Note_on_c, 0, 62, 37
1, 246109, Note_off_c, 0, 74, 62
1, 246116, Note_off_c, 0, 65, 61
1, 246152, Note_off_c, 0, 62, 40
1, 246172, Note_off_c, 0, 77, 39
1, 246277, Note_on_c, 0, 62, 35
1, 246302, Note_on_c, 0, 72, 49
1, 246318, Note_on_c, 0, 65, 39
1, 246387, Note_on_c, 0, 79, 70
1, 246452, Note_off_c, 0, 72, 61
1, 246487, Note_off_c, 0, 65, 61
1, 246500, Note_off_c, 0, 62, 41
1, 246618, Note_on_c, 0, 62, 33
1, 246622, Note_on_c, 0, 70, 46
1, 246626, Note_on_c, 0, 65, 45
1, 246697, Note_off_c, 0, 70, 48
1, 246711, Note_off_c, 0, 65, 64
1, 246714, Note_off_c, 0, 62, 38
1, 246720, Note_on_c, 0, 74, 68
1, 246765, Note_off_c, 0, 79, 63
1, 246977, Note_on_c, 0, 62, 37
1, 246977, Note_on_c, 0, 67, 39
1, 246983, Note_on_c, 0, 58, 29
1, 247027, Note_on_c, 0, 79, 72
1, 247159, Note_off_c, 0, 67, 51
1, 247189, Note_off_c, 0, 74, 38
1, 247208, Note_off_c, 0, 58, 47
1, 247332, Note_off_c, 0, 62, 36
1, 247412, Note_on_c, 0, 69, 47
1, 247415, Note_on_c, 0, 63, 40
1, 247428, Note_on_c, 0, 60, 38
1, 247452, Control_c, 0, 64, 88
1, 247467, Control_c, 0, 64, 66
1, 247482, Control_c, 0, 64, 54
1, 247496, Control_c, 0, 64, 34
1, 247511, Control_c, 0, 64, 20
1, 247526, Control_c, 0, 64, 22
1, 247541, Control_c, 0, 64, 28
1, 247557, Control_c, 0, 64, 36
1, 247572, Control_c, 0, 64, 48
1, 247586, Control_c, 0, 64, 60
1, 247601, Control_c, 0, 64, 74
1, 247616, Control_c, 0, 64, 108
1, 247618, Note_off_c, 0, 69, 59
1, 247630, Control_c, 0, 64, 127
1, 247665, Note_off_c, 0, 79, 40
1, 247696, Note_off_c, 0, 63, 45
1, 247701, Note_on_c, 0, 77, 65
1, 247844, Note_off_c, 0, 77, 57
1, 247853, Note_off_c, 0, 60, 60
1, 247908, Note_on_c, 0, 57, 35
1, 247915, Note_on_c, 0, 65, 35
1, 247919, Note_on_c, 0, 63, 34
1, 247989, Note_on_c, 0, 77, 59
1, 248148, Note_off_c, 0, 65, 42
1, 248202, Note_off_c, 0, 77, 58
1, 248203, Note_on_c, 0, 75, 62
1, 248214, Note_off_c, 0, 63, 48
1, 248321, Note_off_c, 0, 75, 62
1, 248338, Note_on_c, 0, 74, 66
1, 248422, Control_c, 0, 64, 93
1, 248437, Control_c, 0, 64, 68
1, 248440, Note_on_c, 0, 66, 47
1, 248441, Note_off_c, 0, 57, 40
1, 248443, Note_on_c, 0, 58, 41
1, 248452, Control_c, 0, 64, 56
1, 248452, Note_on_c, 0, 63, 41
1, 248467, Control_c, 0, 64, 41
1, 248467, Note_off_c, 0, 74, 57
1, 248480, Note_on_c, 0, 72, 62
1, 248482, Control_c, 0, 64, 35
1, 248497, Control_c, 0, 64, 39
1, 248512, Control_c, 0, 64, 45
1, 248526, Control_c, 0, 64, 55
1, 248541, Control_c, 0, 64, 65
1, 248556, Control_c, 0, 64, 81
1, 248571, Control_c, 0, 64, 103
1, 248574, Note_off_c, 0, 66, 57
1, 248586, Control_c, 0, 64, 113
1, 248586, Note_off_c, 0, 72, 61
1, 248590, Note_on_c, 0, 74, 63
1, 248600, Control_c, 0, 64, 127
1, 248633, Note_off_c, 0, 74, 60
1, 248642, Note_off_c, 0, 63, 32
1, 248676, Note_on_c, 0, 72, 47
1, 248705, Note_on_c, 0, 63, 32
1, 248705, Note_off_c, 0, 72, 54
1, 248709, Note_off_c, 0, 58, 53
1, 248720, Note_on_c, 0, 74, 62
1, 248721, Note_on_c, 0, 57, 52
1, 248735, Note_on_c, 0, 65, 40
1, 248760, Note_off_c, 0, 74, 62
1, 248772, Note_on_c, 0, 72, 65
1, 248773, Note_off_c, 0, 65, 55
1, 248786, Note_off_c, 0, 63, 58
1, 248792, Note_off_c, 0, 57, 61
1, 248903, Note_off_c, 0, 72, 63
1, 248914, Note_on_c, 0, 71, 70
1, 249037, Control_c, 0, 64, 114
1, 249051, Control_c, 0, 64, 105
1, 249066, Note_on_c, 0, 57, 38
1, 249066, Control_c, 0, 64, 96
1, 249069, Note_on_c, 0, 54, 47
1, 249074, Note_on_c, 0, 63, 42
1, 249081, Control_c, 0, 64, 83
1, 249087, Note_off_c, 0, 71, 60
1, 249096, Control_c, 0, 64, 69
1, 249098, Note_on_c, 0, 72, 48
1, 249111, Control_c, 0, 64, 58
1, 249126, Control_c, 0, 64, 43
1, 249141, Control_c, 0, 64, 27
1, 249156, Control_c, 0, 64, 23
1, 249186, Control_c, 0, 64, 24
1, 249201, Control_c, 0, 64, 28
1, 249205, Note_off_c, 0, 63, 57
1, 249209, Note_off_c, 0, 54, 57
1, 249216, Control_c, 0, 64, 35
1, 249230, Control_c, 0, 64, 45
1, 249245, Control_c, 0, 64, 57
1, 249260, Control_c, 0, 64, 68
1, 249275, Control_c, 0, 64, 91
1, 249280, Note_off_c, 0, 72, 62
1, 249284, Note_on_c, 0, 75, 64
1, 249290, Control_c, 0, 64, 111
1, 249305, Control_c, 0, 64, 113
1, 249319, Control_c, 0, 64, 115
1, 249334, Control_c, 0, 64, 127
1, 249460, Note_off_c, 0, 57, 52
1, 249485, Note_off_c, 0, 75, 57
1, 249487, Note_on_c, 0, 54, 45
1, 249496, Note_on_c, 0, 60, 31
1, 249498, Note_on_c, 0, 69, 53
1, 249516, Note_on_c, 0, 50, 30
1, 249544, Note_off_c, 0, 60, 50
1, 249646, Note_off_c, 0, 54, 50
1, 249648, Note_off_c, 0, 50, 35
1, 249718, Note_off_c, 0, 69, 60
1, 249725, Note_on_c, 0, 74, 48
1, 249860, Control_c, 0, 64, 117
1, 249874, Control_c, 0, 64, 114
1, 249889, Control_c, 0, 64, 111
1, 249904, Control_c, 0, 64, 109
1, 249920, Control_c, 0, 64, 106
1, 249934, Control_c, 0, 64, 103
1, 249951, Control_c, 0, 64, 98
1, 249966, Control_c, 0, 64, 93
1, 249980, Control_c, 0, 64, 87
1, 249995, Control_c, 0, 64, 81
1, 250010, Control_c, 0, 64, 74
1, 250018, Note_off_c, 0, 74, 60
1, 250024, Control_c, 0, 64, 62
1, 250026, Note_on_c, 0, 43, 42
1, 250039, Control_c, 0, 64, 48
1, 250041, Note_on_c, 0, 72, 48
1, 250054, Control_c, 0, 64, 25
1, 250069, Control_c, 0, 64, 0
1, 250098, Note_off_c, 0, 72, 0
1, 250098, Note_on_c, 0, 72, 11
1, 250136, Control_c, 0, 64, 19
1, 250151, Control_c, 0, 64, 33
1, 250166, Control_c, 0, 64, 45
1, 250180, Control_c, 0, 64, 57
1, 250195, Control_c, 0, 64, 68
1, 250210, Control_c, 0, 64, 89
1, 250224, Control_c, 0, 64, 95
1, 250237, Note_off_c, 0, 43, 38
1, 250239, Control_c, 0, 64, 96
1, 250254, Control_c, 0, 64, 99
1, 250262, Note_off_c, 0, 72, 51
1, 250269, Control_c, 0, 64, 106
1, 250284, Control_c, 0, 64, 122
1, 250285, Note_on_c, 0, 70, 51
1, 250298, Control_c, 0, 64, 127
1, 250400, Note_off_c, 0, 70, 61
1, 250419, Note_on_c, 0, 73, 56
1, 250510, Note_off_c, 0, 73, 63
1, 250530, Note_on_c, 0, 55, 37
1, 250538, Note_on_c, 0, 58, 37
1, 250539, Note_on_c, 0, 75, 51
1, 250556, Note_on_c, 0, 50, 27
1, 250580, Note_off_c, 0, 75, 62
1, 250640, Note_on_c, 0, 74, 49
1, 250723, Note_off_c, 0, 58, 54
1, 250735, Note_off_c, 0, 74, 59
1, 250736, Note_on_c, 0, 78, 64
1, 250744, Note_off_c, 0, 50, 39
1, 250838, Note_off_c, 0, 78, 63
1, 250847, Note_on_c, 0, 81, 60
1, 250896, Note_off_c, 0, 81, 59
1, 250958, Note_on_c, 0, 79, 52
1, 251045, Note_on_c, 0, 81, 58
1, 251077, Note_off_c, 0, 79, 41
1, 251124, Note_off_c, 0, 55, 20
1, 251137, Note_off_c, 0, 81, 61
1, 251156, Note_on_c, 0, 50, 37
1, 251157, Note_on_c, 0, 84, 49
1, 251163, Note_on_c, 0, 62, 36
1, 251208, Note_off_c, 0, 50, 52
1, 251241, Note_off_c, 0, 84, 49
1, 251267, Note_off_c, 0, 62, 40
1, 251289, Note_on_c, 0, 82, 52
1, 251412, Note_off_c, 0, 82, 64
1, 251433, Note_on_c, 0, 85, 50
1, 251595, Note_on_c, 0, 58, 38
1, 251613, Note_on_c, 0, 70, 25
1, 251648, Control_c, 0, 64, 77
1, 251662, Control_c, 0, 64, 64
1, 251665, Note_off_c, 0, 85, 38
1, 251677, Control_c, 0, 64, 54
1, 251692, Control_c, 0, 64, 42
1, 251701, Note_on_c, 0, 86, 48
1, 251707, Control_c, 0, 64, 37
1, 251722, Control_c, 0, 64, 37
1, 251737, Control_c, 0, 64, 42
1, 251751, Control_c, 0, 64, 51
1, 251766, Control_c, 0, 64, 62
1, 251781, Control_c, 0, 64, 77
1, 251796, Control_c, 0, 64, 127
1, 251875, Note_off_c, 0, 86, 34
1, 251884, Note_off_c, 0, 70, 43
1, 251915, Note_on_c, 0, 98, 55
1, 251971, Note_off_c, 0, 58, 42
1, 252002, Note_off_c, 0, 98, 63
1, 252029, Note_on_c, 0, 93, 49
1, 252080, Note_off_c, 0, 93, 60
1, 252100, Note_on_c, 0, 96, 58
1, 252164, Note_off_c, 0, 96, 61
1, 252171, Note_on_c, 0, 94, 63
1, 252217, Note_on_c, 0, 91, 63
1, 252220, Note_off_c, 0, 94, 61
1, 252244, Note_off_c, 0, 91, 61
1, 252274, Note_on_c, 0, 86, 56
1, 252296, Note_off_c, 0, 86, 61
1, 252342, Note_on_c, 0, 84, 63
1, 252414, Note_on_c, 0, 82, 63
1, 252420, Note_off_c, 0, 84, 52
1, 252474, Note_off_c, 0, 82, 59
1, 252487, Note_on_c, 0, 79, 44
1, 252513, Note_off_c, 0, 79, 55
1, 252555, Note_on_c, 0, 74, 53
1, 252582, Note_off_c, 0, 74, 67
1, 252662, Note_on_c, 0, 70, 63
1, 252807, Note_off_c, 0, 70, 54
1, 252847, Note_on_c, 0, 38, 54
1, 252885, Control_c, 0, 64, 80
1, 252900, Control_c, 0, 64, 57
1, 252908, Note_on_c, 0, 60, 68
1, 252914, Control_c, 0, 64, 0
1, 252989, Control_c, 0, 64, 18
1, 253001, Note_off_c, 0, 38, 63
1, 253004, Control_c, 0, 64, 40
1, 253018, Control_c, 0, 64, 57
1, 253033, Control_c, 0, 64, 81
1, 253048, Control_c, 0, 64, 127
1, 253098, Note_on_c, 0, 70, 77
1, 253145, Note_off_c, 0, 60, 57
1, 253513, Note_on_c, 0, 60, 53
1, 253517, Note_on_c, 0, 54, 56
1, 253519, Note_on_c, 0, 50, 44
1, 253872, Note_off_c, 0, 54, 35
1, 253878, Note_off_c, 0, 60, 53
1, 253930, Note_off_c, 0, 50, 32
1, 254048, Note_on_c, 0, 60, 48
1, 254065, Note_on_c, 0, 50, 47
1, 254066, Note_on_c, 0, 54, 41
1, 254107, Note_off_c, 0, 70, 30
1, 254187, Note_off_c, 0, 60, 63
1, 254199, Note_off_c, 0, 50, 58
1, 254199, Note_off_c, 0, 54, 62
1, 254326, Note_on_c, 0, 50, 26
1, 254330, Note_on_c, 0, 60, 38
1, 254357, Note_on_c, 0, 54, 42
1, 254387, Note_on_c, 0, 69, 72
1, 254556, Note_off_c, 0, 50, 39
1, 254566, Note_off_c, 0, 60, 41
1, 254572, Note_off_c, 0, 54, 35
1, 254659, Note_on_c, 0, 54, 55
1, 254670, Note_on_c, 0, 51, 54
1, 254671, Note_on_c, 0, 60, 51
1, 254694, Note_off_c, 0, 60, 61
1, 254727, Note_off_c, 0, 54, 62
1, 254745, Note_off_c, 0, 51, 64
1, 254813, Note_off_c, 0, 69, 65
1, 254827, Note_on_c, 0, 67, 84
1, 254905, Note_off_c, 0, 67, 57
1, 255052, Note_on_c, 0, 52, 62
1, 255056, Note_on_c, 0, 40, 55
1, 255117, Control_c, 0, 64, 91
1, 255132, Control_c, 0, 64, 66
1, 255147, Control_c, 0, 64, 49
1, 255150, Note_on_c, 0, 79, 82
1, 255162, Control_c, 0, 64, 0
1, 255250, Control_c, 0, 64, 21
1, 255265, Control_c, 0, 64, 49
1, 255272, Note_off_c, 0, 40, 65
1, 255280, Control_c, 0, 64, 72
1, 255292, Note_off_c, 0, 52, 66
1, 255294, Control_c, 0, 64, 127
1, 255544, Note_on_c, 0, 61, 61
1, 255552, Note_on_c, 0, 58, 52
1, 255558, Note_on_c, 0, 55, 44
1, 255566, Note_on_c, 0, 52, 49
1, 255643, Note_off_c, 0, 52, 58
1, 255728, Note_off_c, 0, 55, 58
1, 255760, Note_off_c, 0, 58, 62
1, 255764, Note_off_c, 0, 61, 64
1, 255846, Note_on_c, 0, 67, 71
1, 255851, Note_on_c, 0, 61, 55
1, 255857, Note_on_c, 0, 58, 54
1, 255954, Note_off_c, 0, 67, 51
1, 255985, Note_off_c, 0, 58, 50
1, 255996, Note_off_c, 0, 79, 59
1, 256000, Note_off_c, 0, 61, 57
1, 256008, Note_on_c, 0, 76, 72
1, 256136, Note_on_c, 0, 73, 77
1, 256166, Note_off_c, 0, 76, 56
1, 256237, Note_off_c, 0, 73, 61
1, 256244, Note_on_c, 0, 72, 67
1, 256344, Note_off_c, 0, 72, 51
1, 256354, Note_on_c, 0, 70, 66
1, 256451, Note_on_c, 0, 69, 72
1, 256484, Note_off_c, 0, 70, 52
1, 256521, Note_off_c, 0, 69, 64
1, 256548, Note_on_c, 0, 67, 69
1, 256596, Note_off_c, 0, 67, 52
1, 256644, Note_on_c, 0, 66, 67
1, 256737, Note_off_c, 0, 66, 61
1, 256749, Note_on_c, 0, 64, 73
1, 256847, Note_on_c, 0, 63, 72
1, 256850, Note_off_c, 0, 64, 61
1, 256919, Control_c, 0, 64, 108
1, 256934, Control_c, 0, 64, 98
1, 256948, Control_c, 0, 64, 93
1, 256951, Note_on_c, 0, 61, 68
1, 256963, Control_c, 0, 64, 89
1, 256968, Note_off_c, 0, 63, 56
1, 256978, Control_c, 0, 64, 85
1, 256992, Control_c, 0, 64, 81
1, 257007, Control_c, 0, 64, 77
1, 257022, Control_c, 0, 64, 74
1, 257037, Control_c, 0, 64, 70
1, 257048, Note_on_c, 0, 58, 74
1, 257052, Control_c, 0, 64, 66
1, 257067, Control_c, 0, 64, 63
1, 257080, Note_off_c, 0, 61, 62
1, 257082, Control_c, 0, 64, 58
1, 257097, Control_c, 0, 64, 49
1, 257112, Control_c, 0, 64, 35
1, 257126, Control_c, 0, 64, 0
1, 257149, Note_off_c, 0, 58, 63
1, 257150, Note_on_c, 0, 55, 75
1, 257239, Note_off_c, 0, 55, 58
1, 257247, Note_on_c, 0, 58, 76
1, 257261, Control_c, 0, 64, 19
1, 257275, Control_c, 0, 64, 31
1, 257290, Control_c, 0, 64, 41
1, 257305, Control_c, 0, 64, 52
1, 257320, Control_c, 0, 64, 62
1, 257335, Control_c, 0, 64, 68
1, 257340, Note_on_c, 0, 61, 75
1, 257347, Note_off_c, 0, 58, 64
1, 257350, Control_c, 0, 64, 72
1, 257364, Control_c, 0, 64, 73
1, 257379, Control_c, 0, 64, 73
1, 257394, Control_c, 0, 64, 74
1, 257409, Control_c, 0, 64, 76
1, 257423, Control_c, 0, 64, 79
1, 257427, Note_on_c, 0, 66, 81
1, 257428, Note_off_c, 0, 61, 65
1, 257438, Control_c, 0, 64, 81
1, 257453, Control_c, 0, 64, 84
1, 257468, Control_c, 0, 64, 86
1, 257474, Note_off_c, 0, 66, 61
1, 257482, Control_c, 0, 64, 87
1, 257497, Control_c, 0, 64, 88
1, 257512, Control_c, 0, 64, 89
1, 257523, Note_on_c, 0, 64, 83
1, 257527, Control_c, 0, 64, 90
1, 257541, Control_c, 0, 64, 91
1, 257556, Control_c, 0, 64, 93
1, 257571, Control_c, 0, 64, 96
1, 257586, Control_c, 0, 64, 101
1, 257601, Control_c, 0, 64, 108
1, 257605, Note_off_c, 0, 64, 56
1, 257618, Note_on_c, 0, 69, 85
1, 257623, Control_c, 0, 64, 127
1, 257685, Note_off_c, 0, 69, 61
1, 257711, Note_on_c, 0, 67, 83
1, 257743, Note_off_c, 0, 67, 62
1, 257811, Note_on_c, 0, 81, 93
1, 257897, Note_off_c, 0, 81, 59
1, 257964, Control_c, 0, 64, 88
1, 257965, Note_on_c, 0, 55, 78
1, 257969, Note_on_c, 0, 43, 74
1, 257979, Control_c, 0, 64, 63
1, 257994, Control_c, 0, 64, 42
1, 258008, Note_on_c, 0, 82, 94
1, 258009, Control_c, 0, 64, 0
1, 258061, Note_off_c, 0, 43, 64
1, 258068, Control_c, 0, 64, 12
1, 258083, Control_c, 0, 64, 39
1, 258086, Note_off_c, 0, 55, 66
1, 258098, Control_c, 0, 64, 59
1, 258113, Control_c, 0, 64, 127
1, 258271, Note_on_c, 0, 64, 76
1, 258271, Note_on_c, 0, 61, 79
1, 258276, Note_on_c, 0, 58, 73
1, 258280, Note_on_c, 0, 55, 54
1, 258334, Note_off_c, 0, 55, 60
1, 258441, Note_off_c, 0, 58, 61
1, 258451, Note_off_c, 0, 61, 63
1, 258453, Note_off_c, 0, 64, 60
1, 258532, Note_on_c, 0, 64, 71
1, 258532, Note_on_c, 0, 70, 84
1, 258533, Note_on_c, 0, 61, 68
1, 258679, Note_off_c, 0, 70, 58
1, 258689, Note_off_c, 0, 64, 59
1, 258694, Note_off_c, 0, 61, 59
1, 258702, Note_on_c, 0, 79, 84
1, 258793, Note_off_c, 0, 82, 44
1, 258802, Note_off_c, 0, 79, 65
1, 258810, Note_on_c, 0, 76, 82
1, 258918, Note_on_c, 0, 75, 79
1, 258935, Note_off_c, 0, 76, 59
1, 259013, Note_on_c, 0, 73, 80
1, 259059, Note_off_c, 0, 75, 60
1, 259091, Note_off_c, 0, 73, 64
1, 259096, Note_on_c, 0, 72, 77
1, 259195, Note_on_c, 0, 70, 78
1, 259197, Note_off_c, 0, 72, 34
1, 259293, Note_on_c, 0, 69, 80
1, 259361, Note_off_c, 0, 70, 57
1, 259368, Note_off_c, 0, 69, 66
1, 259382, Note_on_c, 0, 67, 78
1, 259431, Control_c, 0, 64, 111
1, 259446, Control_c, 0, 64, 81
1, 259460, Control_c, 0, 64, 66
1, 259472, Note_on_c, 0, 66, 84
1, 259475, Control_c, 0, 64, 53
1, 259489, Note_off_c, 0, 67, 62
1, 259490, Control_c, 0, 64, 36
1, 259505, Control_c, 0, 64, 15
1, 259520, Control_c, 0, 64, 10
1, 259536, Control_c, 0, 64, 15
1, 259551, Control_c, 0, 64, 23
1, 259559, Note_off_c, 0, 66, 56
1, 259565, Control_c, 0, 64, 33
1, 259567, Note_on_c, 0, 64, 80
1, 259580, Control_c, 0, 64, 47
1, 259595, Control_c, 0, 64, 61
1, 259610, Control_c, 0, 64, 80
1, 259624, Control_c, 0, 64, 127
1, 259664, Note_on_c, 0, 61, 84
1, 259701, Note_off_c, 0, 64, 57
1, 259738, Note_off_c, 0, 61, 65
1, 259748, Note_on_c, 0, 58, 83
1, 259814, Note_off_c, 0, 58, 56
1, 259831, Note_on_c, 0, 61, 80
1, 259900, Note_off_c, 0, 61, 60
1, 259940, Note_on_c, 0, 55, 90
1, 259946, Note_on_c, 0, 64, 82
1, 259948, Note_on_c, 0, 43, 84
1, 260003, Note_off_c, 0, 64, 54
1, 260037, Note_off_c, 0, 55, 67
1, 260049, Note_off_c, 0, 43, 60
1, 260050, Note_on_c, 0, 70, 85
1, 260138, Note_on_c, 0, 54, 97
1, 260143, Note_on_c, 0, 73, 79
1, 260148, Note_on_c, 0, 42, 80
1, 260150, Control_c, 0, 64, 99
1, 260164, Note_off_c, 0, 70, 60
1, 260165, Control_c, 0, 64, 67
1, 260180, Control_c, 0, 64, 55
1, 260195, Control_c, 0, 64, 42
1, 260223, Note_off_c, 0, 73, 60
1, 260224, Control_c, 0, 64, 50
1, 260236, Note_on_c, 0, 76, 78
1, 260239, Control_c, 0, 64, 61
1, 260245, Note_on_c, 0, 72, 18
1, 260253, Note_off_c, 0, 54, 61
1, 260254, Control_c, 0, 64, 79
1, 260269, Control_c, 0, 64, 127
1, 260279, Note_off_c, 0, 76, 67
1, 260291, Note_off_c, 0, 72, 50
1, 260307, Note_off_c, 0, 42, 58
1, 260342, Note_on_c, 0, 52, 96
1, 260346, Note_on_c, 0, 79, 96
1, 260352, Note_on_c, 0, 40, 86
1, 260377, Note_off_c, 0, 79, 68
1, 260466, Note_off_c, 0, 40, 63
1, 260516, Note_off_c, 0, 52, 39
1, 260627, Note_on_c, 0, 91, 97
1, 260650, Note_off_c, 0, 91, 62
1, 260678, Control_c, 0, 64, 78
1, 260693, Control_c, 0, 64, 54
1, 260703, Note_on_c, 0, 91, 102
1, 260704, Note_on_c, 0, 50, 82
1, 260708, Control_c, 0, 64, 0
1, 260711, Note_on_c, 0, 38, 81
1, 260766, Control_c, 0, 64, 11
1, 260781, Control_c, 0, 64, 38
1, 260793, Note_off_c, 0, 38, 62
1, 260796, Control_c, 0, 64, 57
1, 260811, Control_c, 0, 64, 93
1, 260817, Note_off_c, 0, 50, 63
1, 260826, Control_c, 0, 64, 127
1, 260924, Note_on_c, 0, 90, 91
1, 260943, Note_off_c, 0, 91, 59
1, 261002, Note_off_c, 0, 90, 67
1, 261040, Note_on_c, 0, 66, 93
1, 261041, Note_on_c, 0, 59, 81
1, 261045, Note_on_c, 0, 78, 98
1, 261047, Note_on_c, 0, 54, 74
1, 261068, Note_off_c, 0, 66, 59
1, 261076, Note_off_c, 0, 54, 67
1, 261084, Note_off_c, 0, 59, 59
1, 261106, Note_off_c, 0, 78, 63
1, 261182, Note_on_c, 0, 77, 84
1, 261250, Note_off_c, 0, 77, 62
1, 261297, Note_on_c, 0, 89, 95
1, 261298, Note_on_c, 0, 66, 83
1, 261300, Note_on_c, 0, 71, 86
1, 261309, Note_on_c, 0, 59, 72
1, 261402, Note_off_c, 0, 59, 57
1, 261408, Note_off_c, 0, 66, 59
1, 261416, Note_on_c, 0, 88, 93
1, 261442, Note_off_c, 0, 71, 60
1, 261444, Note_off_c, 0, 89, 64
1, 261490, Note_off_c, 0, 88, 66
1, 261514, Note_on_c, 0, 76, 87
1, 261555, Note_off_c, 0, 76, 67
1, 261598, Note_on_c, 0, 75, 88
1, 261622, Note_off_c, 0, 75, 64
1, 261693, Note_on_c, 0, 87, 96
1, 261728, Note_off_c, 0, 87, 67
1, 261778, Note_on_c, 0, 86, 93
1, 261835, Note_off_c, 0, 86, 64
1, 261869, Note_on_c, 0, 74, 75
1, 261941, Note_off_c, 0, 74, 38
1, 261944, Note_on_c, 0, 73, 75
1, 261970, Note_off_c, 0, 73, 66
1, 261989, Control_c, 0, 64, 88
1, 262003, Control_c, 0, 64, 57
1, 262018, Control_c, 0, 64, 21
1, 262033, Control_c, 0, 64, 0
1, 262043, Note_on_c, 0, 52, 97
1, 262045, Note_on_c, 0, 40, 83
1, 262048, Note_on_c, 0, 85, 87
1, 262048, Control_c, 0, 64, 30
1, 262062, Note_off_c, 0, 52, 75
1, 262063, Control_c, 0, 64, 47
1, 262066, Note_off_c, 0, 40, 63
1, 262070, Note_off_c, 0, 85, 59
1, 262078, Control_c, 0, 64, 63
1, 262093, Control_c, 0, 64, 127
1, 262150, Note_on_c, 0, 84, 81
1, 262211, Note_off_c, 0, 84, 63
1, 262230, Note_on_c, 0, 67, 88
1, 262233, Note_on_c, 0, 59, 84
1, 262236, Note_on_c, 0, 72, 81
1, 262268, Note_off_c, 0, 59, 59
1, 262268, Note_off_c, 0, 67, 55
1, 262278, Note_off_c, 0, 72, 64
1, 262331, Note_on_c, 0, 71, 81
1, 262350, Note_off_c, 0, 71, 74
1, 262415, Note_on_c, 0, 83, 83
1, 262494, Note_on_c, 0, 82, 89
1, 262518, Note_off_c, 0, 83, 65
1, 262571, Note_on_c, 0, 70, 84
1, 262591, Note_off_c, 0, 70, 69
1, 262603, Note_off_c, 0, 82, 63
1, 262611, Note_on_c, 0, 80, 32
1, 262647, Note_off_c, 0, 80, 51
1, 262651, Note_on_c, 0, 69, 91
1, 262760, Note_off_c, 0, 69, 59
1, 262781, Note_on_c, 0, 81, 99
1, 262900, Note_on_c, 0, 80, 88
1, 262930, Note_off_c, 0, 81, 54
1, 262980, Note_on_c, 0, 68, 93
1, 262998, Note_on_c, 0, 78, 55
1, 262999, Note_off_c, 0, 68, 67
1, 263014, Note_off_c, 0, 80, 60
1, 263022, Note_off_c, 0, 78, 61
1, 263068, Note_on_c, 0, 67, 87
1, 263145, Note_on_c, 0, 79, 85
1, 263145, Note_off_c, 0, 67, 40
1, 263184, Note_off_c, 0, 79, 61
1, 263244, Note_on_c, 0, 66, 106
1, 263249, Control_c, 0, 64, 61
1, 263251, Note_on_c, 0, 42, 95
1, 263256, Note_on_c, 0, 30, 82
1, 263264, Control_c, 0, 64, 22
1, 263278, Control_c, 0, 64, 0
1, 263338, Control_c, 0, 64, 22
1, 263352, Control_c, 0, 64, 40
1, 263367, Control_c, 0, 64, 56
1, 263382, Control_c, 0, 64, 71
1, 263384, Note_off_c, 0, 30, 63
1, 263397, Control_c, 0, 64, 96
1, 263412, Control_c, 0, 64, 98
1, 263428, Note_off_c, 0, 42, 61
1, 263456, Control_c, 0, 64, 98
1, 263470, Control_c, 0, 64, 97
1, 263485, Control_c, 0, 64, 97
1, 263575, Control_c, 0, 64, 97
1, 263613, Control_c, 0, 64, 98
1, 263628, Control_c, 0, 64, 99
1, 263643, Control_c, 0, 64, 100
1, 263650, Note_on_c, 0, 59, 84
1, 263663, Note_on_c, 0, 49, 67
1, 263687, Control_c, 0, 64, 100
1, 263702, Control_c, 0, 64, 101
1, 263717, Control_c, 0, 64, 102
1, 263731, Control_c, 0, 64, 103
1, 263746, Control_c, 0, 64, 105
1, 263761, Control_c, 0, 64, 117
1, 263768, Note_off_c, 0, 49, 61
1, 263776, Control_c, 0, 64, 127
1, 263798, Note_off_c, 0, 59, 59
1, 263913, Note_on_c, 0, 59, 74
1, 263920, Note_on_c, 0, 49, 65
1, 263994, Note_off_c, 0, 66, 58
1, 264039, Note_on_c, 0, 74, 93
1, 264082, Note_off_c, 0, 59, 61
1, 264083, Note_off_c, 0, 49, 63
1, 264157, Note_on_c, 0, 59, 78
1, 264167, Note_on_c, 0, 49, 71
1, 264232, Note_off_c, 0, 59, 61
1, 264235, Note_on_c, 0, 73, 90
1, 264241, Note_off_c, 0, 74, 63
1, 264249, Note_off_c, 0, 49, 63
1, 264325, Control_c, 0, 64, 81
1, 264339, Note_off_c, 0, 73, 66
1, 264340, Control_c, 0, 64, 62
1, 264362, Control_c, 0, 64, 44
1, 264367, Note_on_c, 0, 58, 86
1, 264368, Note_on_c, 0, 64, 84
1, 264370, Note_on_c, 0, 49, 78
1, 264377, Control_c, 0, 64, 28
1, 264392, Control_c, 0, 64, 29
1, 264406, Control_c, 0, 64, 37
1, 264421, Control_c, 0, 64, 48
1, 264436, Control_c, 0, 64, 61
1, 264439, Note_off_c, 0, 64, 54
1, 264451, Control_c, 0, 64, 87
1, 264465, Note_off_c, 0, 58, 60
1, 264466, Control_c, 0, 64, 127
1, 264481, Note_on_c, 0, 66, 59
1, 264486, Note_off_c, 0, 49, 62
1, 264504, Note_off_c, 0, 66, 61
1, 264507, Note_on_c, 0, 67, 42
1, 264539, Note_off_c, 0, 67, 54
1, 264570, Note_on_c, 0, 58, 77
1, 264571, Note_on_c, 0, 49, 85
1, 264593, Note_off_c, 0, 49, 71
1, 264599, Note_off_c, 0, 58, 65
1, 264714, Note_on_c, 0, 61, 94
1, 264737, Note_off_c, 0, 61, 68
1, 264792, Control_c, 0, 64, 77
1, 264800, Note_on_c, 0, 61, 95
1, 264806, Note_on_c, 0, 41, 84
1, 264806, Control_c, 0, 64, 55
1, 264811, Note_on_c, 0, 29, 83
1, 264821, Control_c, 0, 64, 0
1, 264907, Note_off_c, 0, 29, 62
1, 264932, Note_off_c, 0, 41, 64
1, 264954, Control_c, 0, 64, 16
1, 264969, Control_c, 0, 64, 34
1, 264984, Control_c, 0, 64, 48
1, 264999, Control_c, 0, 64, 62
1, 265014, Control_c, 0, 64, 96
1, 265029, Control_c, 0, 64, 127
1, 265085, Note_off_c, 0, 61, 65
1, 265159, Note_on_c, 0, 62, 106
1, 265169, Note_on_c, 0, 50, 76
1, 265172, Note_on_c, 0, 59, 75
1, 265306, Note_off_c, 0, 50, 60
1, 265309, Note_off_c, 0, 59, 59
1, 265360, Note_off_c, 0, 62, 57
1, 265427, Note_on_c, 0, 59, 83
1, 265432, Note_on_c, 0, 50, 78
1, 265568, Note_off_c, 0, 59, 59
1, 265588, Note_off_c, 0, 50, 60
1, 265676, Note_on_c, 0, 55, 86
1, 265678, Note_on_c, 0, 59, 89
1, 265683, Note_on_c, 0, 50, 79
1, 265816, Note_off_c, 0, 50, 56
1, 265818, Note_off_c, 0, 59, 57
1, 265859, Note_off_c, 0, 55, 64
1, 265932, Note_on_c, 0, 55, 81
1, 265932, Note_on_c, 0, 67, 113
1, 265935, Note_on_c, 0, 59, 81
1, 265938, Note_on_c, 0, 50, 78
1, 265972, Note_off_c, 0, 67, 66
1, 266114, Note_off_c, 0, 50, 54
1, 266126, Note_off_c, 0, 59, 61
1, 266151, Note_off_c, 0, 55, 60
1, 266218, Note_on_c, 0, 55, 73
1, 266218, Note_on_c, 0, 59, 79
1, 266227, Note_on_c, 0, 50, 76
1, 266237, Note_off_c, 0, 59, 68
1, 266269, Note_on_c, 0, 81, 94
1, 266270, Note_on_c, 0, 79, 91
1, 266282, Note_off_c, 0, 55, 59
1, 266283, Note_off_c, 0, 50, 59
1, 266287, Note_off_c, 0, 79, 72
1, 266294, Note_off_c, 0, 81, 62
1, 266696, Control_c, 0, 64, 86
1, 266699, Note_on_c, 0, 40, 98
1, 266699, Note_on_c, 0, 93, 104
1, 266704, Note_on_c, 0, 28, 91
1, 266710, Control_c, 0, 64, 61
1, 266726, Control_c, 0, 64, 39
1, 266741, Control_c, 0, 64, 0
1, 266786, Control_c, 0, 64, 18
1, 266800, Control_c, 0, 64, 34
1, 266815, Control_c, 0, 64, 48
1, 266816, Note_off_c, 0, 28, 65
1, 266830, Control_c, 0, 64, 61
1, 266835, Note_off_c, 0, 40, 64
1, 266845, Control_c, 0, 64, 89
1, 266860, Control_c, 0, 64, 127
1, 266982, Note_off_c, 0, 93, 56
1, 266991, Note_on_c, 0, 92, 97
1, 267068, Note_off_c, 0, 92, 66
1, 267142, Note_on_c, 0, 91, 97
1, 267147, Note_on_c, 0, 55, 86
1, 267147, Note_on_c, 0, 60, 91
1, 267150, Note_on_c, 0, 48, 82
1, 267271, Note_off_c, 0, 91, 57
1, 267277, Note_on_c, 0, 79, 91
1, 267294, Note_off_c, 0, 48, 63
1, 267301, Note_off_c, 0, 55, 64
1, 267323, Note_off_c, 0, 60, 64
1, 267337, Note_off_c, 0, 79, 62
1, 267386, Note_on_c, 0, 91, 87
1, 267432, Note_on_c, 0, 93, 12
1, 267433, Note_off_c, 0, 93, 127
1, 267477, Note_on_c, 0, 90, 93
1, 267494, Note_off_c, 0, 91, 56
1, 267567, Note_on_c, 0, 60, 78
1, 267569, Note_on_c, 0, 67, 85
1, 267575, Note_on_c, 0, 78, 94
1, 267585, Note_off_c, 0, 60, 75
1, 267586, Note_on_c, 0, 55, 47
1, 267587, Note_off_c, 0, 67, 72
1, 267596, Note_off_c, 0, 78, 69
1, 267608, Note_off_c, 0, 90, 65
1, 267623, Note_off_c, 0, 55, 56
1, 267662, Note_on_c, 0, 77, 91
1, 267706, Note_off_c, 0, 77, 64
1, 267747, Note_on_c, 0, 67, 87
1, 267749, Note_on_c, 0, 72, 83
1, 267752, Note_on_c, 0, 89, 95
1, 267756, Note_on_c, 0, 60, 73
1, 267765, Note_off_c, 0, 72, 71
1, 267773, Note_off_c, 0, 60, 69
1, 267783, Note_off_c, 0, 67, 49
1, 267844, Note_on_c, 0, 88, 95
1, 267872, Note_off_c, 0, 89, 65
1, 267923, Note_off_c, 0, 88, 65
1, 267945, Note_on_c, 0, 76, 83
1, 267974, Note_off_c, 0, 76, 65
1, 267984, Note_on_c, 0, 77, 4
1, 268033, Note_on_c, 0, 75, 86
1, 268038, Note_off_c, 0, 77, 51
1, 268072, Note_off_c, 0, 75, 59
1, 268150, Control_c, 0, 64, 81
1, 268165, Control_c, 0, 64, 58
1, 268168, Note_on_c, 0, 41, 97
1, 268174, Note_on_c, 0, 87, 97
1, 268175, Note_on_c, 0, 29, 96
1, 268180, Control_c, 0, 64, 23
1, 268195, Control_c, 0, 64, 0
1, 268224, Control_c, 0, 64, 11
1, 268239, Control_c, 0, 64, 32
1, 268242, Note_off_c, 0, 87, 61
1, 268254, Control_c, 0, 64, 47
1, 268269, Control_c, 0, 64, 62
1, 268283, Control_c, 0, 64, 107
1, 268290, Note_off_c, 0, 29, 61
1, 268298, Control_c, 0, 64, 127
1, 268302, Note_on_c, 0, 86, 94
1, 268302, Note_off_c, 0, 41, 62
1, 268379, Note_off_c, 0, 86, 61
1, 268400, Note_on_c, 0, 74, 80
1, 268442, Note_off_c, 0, 74, 65
1, 268499, Note_on_c, 0, 73, 86
1, 268517, Note_off_c, 0, 73, 69
1, 268636, Note_on_c, 0, 62, 87
1, 268639, Note_on_c, 0, 56, 83
1, 268645, Note_on_c, 0, 85, 91
1, 268707, Note_off_c, 0, 85, 59
1, 268743, Note_off_c, 0, 56, 58
1, 268758, Note_off_c, 0, 62, 52
1, 268763, Note_on_c, 0, 84, 88
1, 268820, Note_off_c, 0, 84, 63
1, 268862, Note_on_c, 0, 72, 71
1, 268867, Note_on_c, 0, 74, 51
1, 268889, Note_off_c, 0, 72, 65
1, 268892, Note_off_c, 0, 74, 65
1, 268948, Note_on_c, 0, 71, 74
1, 268968, Note_off_c, 0, 71, 72
1, 269020, Note_on_c, 0, 83, 82
1, 269090, Note_on_c, 0, 82, 89
1, 269108, Note_off_c, 0, 83, 66
1, 269168, Note_on_c, 0, 70, 90
1, 269179, Note_off_c, 0, 82, 62
1, 269192, Note_off_c, 0, 70, 64
1, 269211, Note_on_c, 0, 80, 18
1, 269248, Note_on_c, 0, 69, 89
1, 269253, Note_off_c, 0, 80, 51
1, 269304, Note_off_c, 0, 69, 67
1, 269333, Note_on_c, 0, 81, 94
1, 269418, Note_on_c, 0, 80, 91
1, 269464, Note_off_c, 0, 81, 35
1, 269480, Note_on_c, 0, 68, 83
1, 269527, Note_off_c, 0, 68, 60
1, 269548, Note_off_c, 0, 80, 59
1, 269599, Note_on_c, 0, 42, 99
1, 269599, Note_on_c, 0, 67, 95
1, 269605, Note_on_c, 0, 30, 89
1, 269632, Control_c, 0, 64, 65
1, 269646, Control_c, 0, 64, 36
1, 269661, Control_c, 0, 64, 0
1, 269751, Control_c, 0, 64, 31
1, 269764, Note_off_c, 0, 30, 62
1, 269765, Control_c, 0, 64, 51
1, 269780, Control_c, 0, 64, 67
1, 269788, Note_off_c, 0, 67, 53
1, 269795, Control_c, 0, 64, 127
1, 269802, Note_off_c, 0, 42, 59
1, 269819, Note_on_c, 0, 79, 93
1, 269976, Note_on_c, 0, 78, 85
1, 270000, Note_off_c, 0, 79, 61
1, 270093, Note_off_c, 0, 78, 63
1, 270102, Note_on_c, 0, 66, 84
1, 270150, Note_off_c, 0, 66, 62
1, 270216, Note_on_c, 0, 62, 83
1, 270220, Note_on_c, 0, 65, 83
1, 270224, Note_on_c, 0, 54, 69
1, 270228, Note_on_c, 0, 50, 63
1, 270230, Note_on_c, 0, 59, 57
1, 270234, Note_on_c, 0, 60, 55
1, 270298, Note_off_c, 0, 60, 55
1, 270317, Note_off_c, 0, 62, 59
1, 270321, Note_off_c, 0, 50, 61
1, 270336, Note_on_c, 0, 66, 87
1, 270349, Note_off_c, 0, 59, 61
1, 270359, Note_off_c, 0, 65, 60
1, 270365, Note_off_c, 0, 54, 63
1, 270442, Note_on_c, 0, 67, 82
1, 270472, Note_off_c, 0, 66, 61
1, 270529, Note_on_c, 0, 68, 79
1, 270543, Note_off_c, 0, 67, 61
1, 270594, Note_off_c, 0, 68, 58
1, 270623, Note_on_c, 0, 69, 75
1, 270698, Note_off_c, 0, 69, 45
1, 270704, Note_on_c, 0, 70, 82
1, 270782, Note_off_c, 0, 70, 61
1, 270805, Note_on_c, 0, 71, 77
1, 270901, Note_on_c, 0, 73, 76
1, 270934, Note_off_c, 0, 71, 60
1, 270997, Note_on_c, 0, 76, 83
1, 271026, Note_off_c, 0, 73, 61
1, 271101, Note_on_c, 0, 75, 85
1, 271128, Note_off_c, 0, 76, 66
1, 271131, Control_c, 0, 64, 101
1, 271146, Control_c, 0, 64, 87
1, 271161, Control_c, 0, 64, 78
1, 271175, Control_c, 0, 64, 72
1, 271190, Control_c, 0, 64, 65
1, 271191, Note_on_c, 0, 74, 87
1, 271205, Control_c, 0, 64, 57
1, 271211, Note_off_c, 0, 75, 55
1, 271220, Control_c, 0, 64, 44
1, 271235, Control_c, 0, 64, 23
1, 271249, Control_c, 0, 64, 9
1, 271264, Control_c, 0, 64, 8
1, 271277, Note_off_c, 0, 74, 63
1, 271279, Control_c, 0, 64, 0
1, 271280, Note_on_c, 0, 70, 81
1, 271375, Note_on_c, 0, 73, 74
1, 271399, Note_off_c, 0, 70, 58
1, 271473, Note_on_c, 0, 71, 76
1, 271515, Note_off_c, 0, 73, 59
1, 271563, Note_on_c, 0, 72, 79
1, 271592, Note_off_c, 0, 71, 63
1, 271648, Note_on_c, 0, 73, 76
1, 271705, Note_off_c, 0, 72, 56
1, 271742, Note_off_c, 0, 73, 66
1, 271745, Note_on_c, 0, 76, 78
1, 271813, Control_c, 0, 64, 21
1, 271819, Note_off_c, 0, 76, 58
1, 271828, Control_c, 0, 64, 34
1, 271844, Note_on_c, 0, 74, 82
1, 271849, Control_c, 0, 64, 44
1, 271864, Control_c, 0, 64, 53
1, 271879, Control_c, 0, 64, 60
1, 271894, Control_c, 0, 64, 64
1, 271909, Control_c, 0, 64, 65
1, 271924, Control_c, 0, 64, 66
1, 271934, Note_on_c, 0, 75, 86
1, 271939, Control_c, 0, 64, 67
1, 271944, Note_off_c, 0, 74, 63
1, 271953, Control_c, 0, 64, 71
1, 271968, Control_c, 0, 64, 74
1, 271983, Control_c, 0, 64, 77
1, 271998, Control_c, 0, 64, 77
1, 271999, Note_off_c, 0, 75, 61
1, 272029, Note_on_c, 0, 76, 82
1, 272072, Control_c, 0, 64, 77
1, 272087, Control_c, 0, 64, 76
1, 272102, Control_c, 0, 64, 74
1, 272116, Control_c, 0, 64, 72
1, 272131, Control_c, 0, 64, 71
1, 272142, Note_on_c, 0, 79, 84
1, 272146, Control_c, 0, 64, 70
1, 272154, Note_off_c, 0, 76, 62
1, 272161, Control_c, 0, 64, 67
1, 272176, Control_c, 0, 64, 61
1, 272190, Control_c, 0, 64, 44
1, 272205, Control_c, 0, 64, 11
1, 272220, Control_c, 0, 64, 0
1, 272233, Note_off_c, 0, 79, 63
1, 272258, Note_on_c, 0, 77, 89
1, 272279, Control_c, 0, 64, 20
1, 272294, Control_c, 0, 64, 34
1, 272309, Control_c, 0, 64, 44
1, 272325, Control_c, 0, 64, 53
1, 272339, Control_c, 0, 64, 61
1, 272354, Control_c, 0, 64, 67
1, 272359, Note_on_c, 0, 78, 89
1, 272369, Control_c, 0, 64, 71
1, 272384, Control_c, 0, 64, 72
1, 272389, Note_off_c, 0, 77, 61
1, 272399, Control_c, 0, 64, 73
1, 272413, Control_c, 0, 64, 77
1, 272428, Control_c, 0, 64, 83
1, 272443, Control_c, 0, 64, 90
1, 272458, Control_c, 0, 64, 94
1, 272466, Note_on_c, 0, 82, 88
1, 272472, Control_c, 0, 64, 95
1, 272476, Note_off_c, 0, 78, 65
1, 272517, Control_c, 0, 64, 95
1, 272524, Note_off_c, 0, 82, 64
1, 272599, Control_c, 0, 64, 94
1, 272604, Note_on_c, 0, 83, 85
1, 272613, Control_c, 0, 64, 91
1, 272628, Control_c, 0, 64, 88
1, 272643, Control_c, 0, 64, 84
1, 272658, Control_c, 0, 64, 81
1, 272672, Control_c, 0, 64, 75
1, 272687, Control_c, 0, 64, 67
1, 272702, Control_c, 0, 64, 60
1, 272717, Control_c, 0, 64, 48
1, 272729, Note_on_c, 0, 81, 83
1, 272732, Control_c, 0, 64, 36
1, 272737, Note_off_c, 0, 83, 61
1, 272746, Control_c, 0, 64, 32
1, 272761, Control_c, 0, 64, 34
1, 272776, Control_c, 0, 64, 40
1, 272791, Control_c, 0, 64, 48
1, 272806, Control_c, 0, 64, 56
1, 272821, Control_c, 0, 64, 62
1, 272821, Note_on_c, 0, 79, 84
1, 272836, Control_c, 0, 64, 65
1, 272851, Control_c, 0, 64, 66
1, 272862, Note_off_c, 0, 81, 61
1, 272880, Control_c, 0, 64, 65
1, 272895, Control_c, 0, 64, 65
1, 272910, Control_c, 0, 64, 63
1, 272916, Note_on_c, 0, 78, 91
1, 272925, Note_off_c, 0, 79, 59
1, 272925, Control_c, 0, 64, 60
1, 272939, Control_c, 0, 64, 54
1, 272954, Control_c, 0, 64, 45
1, 272969, Control_c, 0, 64, 36
1, 272984, Control_c, 0, 64, 26
1, 272994, Note_off_c, 0, 78, 65
1, 272999, Note_on_c, 0, 77, 82
1, 272999, Control_c, 0, 64, 13
1, 273014, Control_c, 0, 64, 0
1, 273088, Note_on_c, 0, 79, 82
1, 273110, Note_off_c, 0, 77, 56
1, 273175, Note_on_c, 0, 78, 84
1, 273177, Control_c, 0, 64, 22
1, 273184, Note_off_c, 0, 79, 60
1, 273192, Control_c, 0, 64, 32
1, 273207, Control_c, 0, 64, 40
1, 273222, Control_c, 0, 64, 49
1, 273236, Control_c, 0, 64, 58
1, 273251, Control_c, 0, 64, 64
1, 273253, Note_off_c, 0, 78, 67
1, 273266, Control_c, 0, 64, 67
1, 273267, Note_on_c, 0, 74, 76
1, 273281, Control_c, 0, 64, 67
1, 273317, Note_off_c, 0, 74, 63
1, 273368, Note_on_c, 0, 70, 77
1, 273377, Control_c, 0, 64, 67
1, 273392, Control_c, 0, 64, 66
1, 273407, Control_c, 0, 64, 65
1, 273422, Control_c, 0, 64, 63
1, 273437, Control_c, 0, 64, 62
1, 273447, Note_off_c, 0, 70, 63
1, 273451, Control_c, 0, 64, 59
1, 273465, Note_on_c, 0, 71, 75
1, 273466, Control_c, 0, 64, 55
1, 273481, Control_c, 0, 64, 51
1, 273495, Control_c, 0, 64, 47
1, 273510, Control_c, 0, 64, 44
1, 273525, Control_c, 0, 64, 43
1, 273540, Control_c, 0, 64, 43
1, 273548, Note_on_c, 0, 74, 72
1, 273555, Control_c, 0, 64, 42
1, 273569, Control_c, 0, 64, 41
1, 273572, Note_off_c, 0, 71, 61
1, 273584, Control_c, 0, 64, 39
1, 273599, Control_c, 0, 64, 37
1, 273614, Control_c, 0, 64, 36
1, 273629, Control_c, 0, 64, 34
1, 273643, Note_on_c, 0, 73, 79
1, 273644, Control_c, 0, 64, 31
1, 273659, Control_c, 0, 64, 29
1, 273673, Note_off_c, 0, 74, 61
1, 273673, Control_c, 0, 64, 26
1, 273688, Control_c, 0, 64, 23
1, 273703, Control_c, 0, 64, 19
1, 273718, Control_c, 0, 64, 10
1, 273733, Control_c, 0, 64, 0
1, 273744, Note_on_c, 0, 76, 74
1, 273770, Note_off_c, 0, 73, 63
1, 273844, Note_on_c, 0, 74, 73
1, 273879, Note_off_c, 0, 76, 66
1, 273910, Control_c, 0, 64, 25
1, 273925, Control_c, 0, 64, 34
1, 273940, Control_c, 0, 64, 43
1, 273942, Note_on_c, 0, 73, 78
1, 273953, Note_off_c, 0, 74, 64
1, 273955, Control_c, 0, 64, 52
1, 273970, Control_c, 0, 64, 59
1, 273984, Control_c, 0, 64, 63
1, 273999, Control_c, 0, 64, 63
1, 274015, Note_off_c, 0, 73, 65
1, 274030, Note_on_c, 0, 71, 77
1, 274073, Control_c, 0, 64, 62
1, 274096, Control_c, 0, 64, 61
1, 274111, Control_c, 0, 64, 59
1, 274125, Control_c, 0, 64, 56
1, 274138, Note_on_c, 0, 70, 78
1, 274140, Control_c, 0, 64, 51
1, 274155, Control_c, 0, 64, 45
1, 274159, Note_off_c, 0, 71, 62
1, 274170, Control_c, 0, 64, 38
1, 274185, Control_c, 0, 64, 31
1, 274199, Control_c, 0, 64, 17
1, 274214, Control_c, 0, 64, 0
1, 274236, Note_on_c, 0, 73, 74
1, 274262, Note_off_c, 0, 70, 61
1, 274341, Note_on_c, 0, 71, 67
1, 274377, Control_c, 0, 64, 12
1, 274386, Note_off_c, 0, 73, 60
1, 274392, Control_c, 0, 64, 32
1, 274407, Control_c, 0, 64, 42
1, 274422, Control_c, 0, 64, 51
1, 274426, Note_off_c, 0, 71, 67
1, 274436, Control_c, 0, 64, 57
1, 274439, Note_on_c, 0, 67, 79
1, 274451, Control_c, 0, 64, 58
1, 274466, Control_c, 0, 64, 58
1, 274481, Control_c, 0, 64, 57
1, 274511, Control_c, 0, 64, 56
1, 274525, Control_c, 0, 64, 56
1, 274540, Control_c, 0, 64, 55
1, 274555, Control_c, 0, 64, 54
1, 274559, Note_on_c, 0, 65, 78
1, 274570, Control_c, 0, 64, 52
1, 274584, Control_c, 0, 64, 49
1, 274599, Control_c, 0, 64, 46
1, 274614, Control_c, 0, 64, 44
1, 274615, Note_off_c, 0, 67, 47
1, 274629, Control_c, 0, 64, 42
1, 274643, Control_c, 0, 64, 41
1, 274658, Control_c, 0, 64, 40
1, 274673, Control_c, 0, 64, 38
1, 274688, Control_c, 0, 64, 35
1, 274703, Control_c, 0, 64, 29
1, 274708, Note_on_c, 0, 66, 78
1, 274719, Control_c, 0, 64, 20
1, 274733, Control_c, 0, 64, 0
1, 274754, Note_off_c, 0, 65, 57
1, 274854, Note_on_c, 0, 71, 71
1, 274860, Control_c, 0, 64, 16
1, 274861, Note_off_c, 0, 66, 64
1, 274874, Control_c, 0, 64, 21
1, 274889, Control_c, 0, 64, 24
1, 274904, Control_c, 0, 64, 25
1, 274919, Control_c, 0, 64, 26
1, 274948, Control_c, 0, 64, 26
1, 274976, Note_on_c, 0, 70, 71
1, 274994, Note_off_c, 0, 71, 62
1, 275008, Control_c, 0, 64, 26
1, 275037, Control_c, 0, 64, 25
1, 275052, Control_c, 0, 64, 25
1, 275066, Control_c, 0, 64, 24
1, 275077, Note_on_c, 0, 66, 73
1, 275081, Control_c, 0, 64, 24
1, 275096, Control_c, 0, 64, 23
1, 275114, Note_off_c, 0, 70, 56
1, 275126, Control_c, 0, 64, 23
1, 275140, Control_c, 0, 64, 22
1, 275170, Control_c, 0, 64, 22
1, 275171, Note_off_c, 0, 66, 62
1, 275179, Note_on_c, 0, 65, 69
1, 275215, Control_c, 0, 64, 21
1, 275244, Control_c, 0, 64, 21
1, 275259, Control_c, 0, 64, 20
1, 275271, Note_on_c, 0, 69, 61
1, 275302, Note_off_c, 0, 65, 56
1, 275304, Control_c, 0, 64, 20
1, 275348, Control_c, 0, 64, 19
1, 275366, Note_on_c, 0, 68, 64
1, 275369, Note_off_c, 0, 69, 63
1, 275392, Control_c, 0, 64, 19
1, 275452, Control_c, 0, 64, 18
1, 275458, Note_off_c, 0, 68, 58
1, 275466, Note_on_c, 0, 64, 57
1, 275563, Note_on_c, 0, 63, 56
1, 275568, Note_off_c, 0, 64, 54
1, 275571, Control_c, 0, 64, 18
1, 275638, Control_c, 0, 64, 17
1, 275653, Control_c, 0, 64, 17
1, 275668, Control_c, 0, 64, 16
1, 275669, Note_off_c, 0, 63, 60
1, 275670, Note_on_c, 0, 67, 56
1, 275683, Control_c, 0, 64, 15
1, 275697, Control_c, 0, 64, 12
1, 275712, Control_c, 0, 64, 0
1, 275760, Note_off_c, 0, 67, 59
1, 275771, Note_on_c, 0, 66, 55
1, 275841, Note_off_c, 0, 66, 57
1, 275847, Note_on_c, 0, 62, 51
1, 275952, Note_off_c, 0, 62, 56
1, 275957, Note_on_c, 0, 61, 48
1, 276051, Note_on_c, 0, 65, 56
1, 276058, Note_off_c, 0, 61, 52
1, 276157, Note_off_c, 0, 65, 56
1, 276162, Note_on_c, 0, 64, 51
1, 276264, Note_off_c, 0, 64, 60
1, 276267, Note_on_c, 0, 60, 53
1, 276362, Note_off_c, 0, 60, 65
1, 276396, Note_on_c, 0, 59, 50
1, 276521, Note_on_c, 0, 63, 49
1, 276564, Note_off_c, 0, 59, 37
1, 276628, Note_off_c, 0, 63, 64
1, 276645, Note_on_c, 0, 62, 50
1, 276779, Note_off_c, 0, 62, 63
1, 276780, Note_on_c, 0, 58, 56
1, 276952, Note_on_c, 0, 61, 56
1, 276980, Note_off_c, 0, 58, 59
1, 277154, Note_on_c, 0, 59, 50
1, 277175, Note_off_c, 0, 61, 57
1, 277393, Note_on_c, 0, 55, 51
1, 277472, Note_off_c, 0, 59, 55
1, 277717, Note_on_c, 0, 54, 56
1, 277870, Note_off_c, 0, 55, 37
1, 278032, Control_c, 0, 64, 12
1, 278047, Control_c, 0, 64, 18
1, 278062, Control_c, 0, 64, 22
1, 278077, Control_c, 0, 64, 25
1, 278091, Control_c, 0, 64, 28
1, 278106, Control_c, 0, 64, 32
1, 278121, Control_c, 0, 64, 38
1, 278136, Control_c, 0, 64, 43
1, 278151, Control_c, 0, 64, 48
1, 278166, Control_c, 0, 64, 53
1, 278181, Control_c, 0, 64, 58
1, 278195, Control_c, 0, 64, 60
1, 278210, Control_c, 0, 64, 62
1, 278225, Control_c, 0, 64, 62
1, 278240, Control_c, 0, 64, 64
1, 278255, Control_c, 0, 64, 67
1, 278270, Control_c, 0, 64, 70
1, 278284, Control_c, 0, 64, 72
1, 278299, Control_c, 0, 64, 74
1, 278314, Control_c, 0, 64, 75
1, 278329, Control_c, 0, 64, 78
1, 278344, Control_c, 0, 64, 83
1, 278358, Control_c, 0, 64, 88
1, 278373, Control_c, 0, 64, 90
1, 278388, Control_c, 0, 64, 93
1, 278402, Control_c, 0, 64, 96
1, 278417, Control_c, 0, 64, 98
1, 278432, Control_c, 0, 64, 99
1, 278476, Control_c, 0, 64, 99
1, 278536, Control_c, 0, 64, 100
1, 278588, Note_off_c, 0, 54, 37
1, 278885, Control_c, 0, 64, 99
1, 278974, Control_c, 0, 64, 99
1, 279018, Control_c, 0, 64, 98
1, 279033, Control_c, 0, 64, 98
1, 279048, Control_c, 0, 64, 97
1, 279063, Control_c, 0, 64, 96
1, 279093, Control_c, 0, 64, 96
1, 279107, Control_c, 0, 64, 95
1, 279137, Control_c, 0, 64, 95
1, 279152, Control_c, 0, 64, 93
1, 279167, Control_c, 0, 64, 92
1, 279181, Control_c, 0, 64, 91
1, 279196, Control_c, 0, 64, 90
1, 279211, Control_c, 0, 64, 89
1, 279225, Control_c, 0, 64, 88
1, 279240, Control_c, 0, 64, 86
1, 279255, Control_c, 0, 64, 84
1, 279270, Control_c, 0, 64, 81
1, 279272, Note_on_c, 0, 62, 55
1, 279276, Note_on_c, 0, 59, 55
1, 279278, Note_on_c, 0, 55, 48
1, 279279, Note_on_c, 0, 53, 46
1, 279281, Note_on_c, 0, 42, 41
1, 279283, Note_on_c, 0, 30, 39
1, 279285, Control_c, 0, 64, 79
1, 279299, Control_c, 0, 64, 78
1, 279314, Control_c, 0, 64, 77
1, 279337, Control_c, 0, 64, 75
1, 279352, Control_c, 0, 64, 74
1, 279366, Control_c, 0, 64, 72
1, 279381, Control_c, 0, 64, 70
1, 279396, Control_c, 0, 64, 69
1, 279411, Control_c, 0, 64, 67
1, 279426, Control_c, 0, 64, 65
1, 279440, Control_c, 0, 64, 64
1, 279455, Control_c, 0, 64, 61
1, 279470, Control_c, 0, 64, 58
1, 279485, Control_c, 0, 64, 54
1, 279500, Control_c, 0, 64, 48
1, 279516, Control_c, 0, 64, 41
1, 279530, Control_c, 0, 64, 34
1, 279545, Control_c, 0, 64, 26
1, 279560, Control_c, 0, 64, 21
1, 279575, Control_c, 0, 64, 18
1, 279590, Control_c, 0, 64, 18
1, 279619, Control_c, 0, 64, 18
1, 279634, Control_c, 0, 64, 20
1, 279649, Control_c, 0, 64, 23
1, 279663, Control_c, 0, 64, 26
1, 279678, Control_c, 0, 64, 29
1, 279693, Control_c, 0, 64, 33
1, 279708, Control_c, 0, 64, 38
1, 279723, Control_c, 0, 64, 42
1, 279737, Control_c, 0, 64, 47
1, 279752, Control_c, 0, 64, 51
1, 279767, Control_c, 0, 64, 54
1, 279782, Control_c, 0, 64, 57
1, 279797, Control_c, 0, 64, 58
1, 279811, Control_c, 0, 64, 60
1, 279826, Control_c, 0, 64, 61
1, 279841, Control_c, 0, 64, 62
1, 279856, Control_c, 0, 64, 63
1, 279885, Control_c, 0, 64, 63
1, 279915, Control_c, 0, 64, 64
1, 279929, Control_c, 0, 64, 65
1, 279944, Control_c, 0, 64, 66
1, 279959, Control_c, 0, 64, 67
1, 279973, Control_c, 0, 64, 67
1, 279988, Control_c, 0, 64, 68
1, 280003, Control_c, 0, 64, 68
1, 280014, Note_off_c, 0, 55, 41
1, 280018, Control_c, 0, 64, 69
1, 280033, Control_c, 0, 64, 70
1, 280062, Control_c, 0, 64, 71
1, 280159, Control_c, 0, 64, 71
1, 280188, Control_c, 0, 64, 72
1, 280203, Control_c, 0, 64, 72
1, 280218, Control_c, 0, 64, 73
1, 280233, Control_c, 0, 64, 73
1, 280248, Control_c, 0, 64, 74
1, 280249, Note_off_c, 0, 30, 30
1, 280262, Control_c, 0, 64, 75
1, 280277, Control_c, 0, 64, 76
1, 280292, Control_c, 0, 64, 77
1, 280545, Control_c, 0, 64, 76
1, 280559, Control_c, 0, 64, 76
1, 280589, Control_c, 0, 64, 75
1, 280604, Control_c, 0, 64, 75
1, 280619, Control_c, 0, 64, 74
1, 280634, Control_c, 0, 64, 74
1, 280649, Control_c, 0, 64, 73
1, 280664, Control_c, 0, 64, 73
1, 280679, Control_c, 0, 64, 72
1, 280693, Control_c, 0, 64, 72
1, 280708, Control_c, 0, 64, 71
1, 280723, Control_c, 0, 64, 71
1, 280738, Control_c, 0, 64, 70
1, 280753, Control_c, 0, 64, 69
1, 280768, Control_c, 0, 64, 69
1, 280797, Control_c, 0, 64, 68
1, 280812, Control_c, 0, 64, 68
1, 280834, Control_c, 0, 64, 67
1, 280849, Control_c, 0, 64, 67
1, 280864, Control_c, 0, 64, 66
1, 280878, Control_c, 0, 64, 66
1, 280893, Control_c, 0, 64, 65
1, 280908, Control_c, 0, 64, 64
1, 280923, Control_c, 0, 64, 63
1, 280925, Note_off_c, 0, 42, 31
1, 280938, Control_c, 0, 64, 61
1, 280953, Control_c, 0, 64, 60
1, 280968, Control_c, 0, 64, 58
1, 280983, Control_c, 0, 64, 57
1, 280998, Control_c, 0, 64, 55
1, 281011, Note_on_c, 0, 54, 51
1, 281012, Control_c, 0, 64, 53
1, 281027, Control_c, 0, 64, 52
1, 281042, Control_c, 0, 64, 52
1, 281057, Control_c, 0, 64, 51
1, 281072, Control_c, 0, 64, 49
1, 281086, Control_c, 0, 64, 47
1, 281102, Control_c, 0, 64, 46
1, 281117, Control_c, 0, 64, 44
1, 281132, Control_c, 0, 64, 40
1, 281147, Control_c, 0, 64, 31
1, 281161, Control_c, 0, 64, 15
1, 281176, Control_c, 0, 64, 0
1, 281239, Note_off_c, 0, 62, 37
1, 281293, Note_off_c, 0, 53, 38
1, 281299, Note_off_c, 0, 59, 35
1, 281487, Control_c, 0, 64, 15
1, 281501, Control_c, 0, 64, 22
1, 281516, Control_c, 0, 64, 27
1, 281531, Control_c, 0, 64, 31
1, 281546, Control_c, 0, 64, 35
1, 281561, Control_c, 0, 64, 41
1, 281583, Control_c, 0, 64, 46
1, 281598, Control_c, 0, 64, 52
1, 281613, Control_c, 0, 64, 56
1, 281627, Control_c, 0, 64, 60
1, 281642, Control_c, 0, 64, 62
1, 281657, Control_c, 0, 64, 64
1, 281672, Control_c, 0, 64, 66
1, 281687, Control_c, 0, 64, 68
1, 281701, Control_c, 0, 64, 69
1, 281716, Control_c, 0, 64, 71
1, 281731, Control_c, 0, 64, 72
1, 281746, Control_c, 0, 64, 76
1, 281761, Control_c, 0, 64, 78
1, 281776, Control_c, 0, 64, 81
1, 281790, Control_c, 0, 64, 83
1, 281805, Control_c, 0, 64, 87
1, 281820, Control_c, 0, 64, 92
1, 281835, Control_c, 0, 64, 100
1, 281835, Control_c, 0, 67, 12
1, 281850, Control_c, 0, 64, 127
1, 281850, Control_c, 0, 67, 17
1, 281865, Control_c, 0, 67, 24
1, 281880, Control_c, 0, 67, 36
1, 281895, Control_c, 0, 67, 49
1, 281910, Control_c, 0, 67, 64
1, 281925, Control_c, 0, 67, 79
1, 281939, Control_c, 0, 67, 94
1, 281954, Control_c, 0, 67, 107
1, 281969, Control_c, 0, 67, 119
1, 281984, Control_c, 0, 67, 127
1, 283037, Note_on_c, 0, 64, 28
1, 283041, Note_on_c, 0, 58, 35
1, 283041, Note_on_c, 0, 66, 38
1, 283059, Note_on_c, 0, 42, 30
1, 283060, Note_on_c, 0, 49, 22
1, 283107, Note_off_c, 0, 66, 0
1, 283107, Note_on_c, 0, 66, 4
1, 283675, Note_off_c, 0, 66, 33
1, 283871, Note_off_c, 0, 54, 34
1, 283883, Note_off_c, 0, 49, 38
1, 284014, Note_off_c, 0, 64, 35
1, 284094, Note_off_c, 0, 42, 32
1, 284181, Note_off_c, 0, 58, 30
1, 285504, Note_on_c, 0, 63, 35
1, 285508, Note_on_c, 0, 59, 32
1, 285515, Note_on_c, 0, 66, 39
1, 285526, Note_on_c, 0, 54, 25
1, 285531, Note_on_c, 0, 42, 15
1, 285535, Control_c, 0, 64, 113
1, 285540, Note_on_c, 0, 35, 16
1, 285542, Note_on_c, 0, 47, 16
1, 285549, Control_c, 0, 64, 105
1, 285564, Control_c, 0, 64, 100
1, 285579, Control_c, 0, 64, 95
1, 285594, Control_c, 0, 64, 90
1, 285609, Control_c, 0, 64, 86
1, 285624, Control_c, 0, 64, 81
1, 285639, Control_c, 0, 64, 78
1, 285654, Control_c, 0, 64, 74
1, 285668, Control_c, 0, 64, 69
1, 285683, Control_c, 0, 64, 63
1, 285698, Control_c, 0, 64, 57
1, 285713, Control_c, 0, 64, 44
1, 285727, Control_c, 0, 64, 29
1, 285742, Control_c, 0, 64, 20
1, 285772, Control_c, 0, 64, 22
1, 285787, Control_c, 0, 64, 27
1, 285801, Control_c, 0, 64, 34
1, 285816, Control_c, 0, 64, 42
1, 285831, Control_c, 0, 64, 51
1, 285846, Control_c, 0, 64, 60
1, 285861, Control_c, 0, 64, 67
1, 285875, Control_c, 0, 64, 73
1, 285891, Control_c, 0, 64, 75
1, 285906, Control_c, 0, 64, 77
1, 285921, Control_c, 0, 64, 80
1, 285936, Control_c, 0, 64, 85
1, 285951, Control_c, 0, 64, 91
1, 285965, Control_c, 0, 64, 96
1, 285980, Control_c, 0, 64, 102
1, 285995, Control_c, 0, 64, 111
1, 286000, Note_off_c, 0, 66, 43
1, 286008, Note_off_c, 0, 63, 45
1, 286010, Control_c, 0, 64, 127
1, 286026, Note_off_c, 0, 59, 40
1, 286093, Note_off_c, 0, 35, 38
1, 286094, Note_off_c, 0, 54, 23
1, 286190, Note_off_c, 0, 42, 38
1, 286212, Note_off_c, 0, 47, 39
1, 286220, Note_on_c, 0, 35, 31
1, 286263, Note_off_c, 0, 35, 52
1, 286306, Note_on_c, 0, 42, 41
1, 286390, Note_on_c, 0, 58, 41
1, 286391, Note_on_c, 0, 49, 46
1, 286391, Note_on_c, 0, 64, 46
1, 286392, Note_on_c, 0, 66, 50
1, 286405, Note_on_c, 0, 54, 33
1, 286462, Control_c, 0, 64, 119
1, 286476, Control_c, 0, 64, 94
1, 286491, Control_c, 0, 64, 77
1, 286506, Control_c, 0, 64, 66
1, 286521, Control_c, 0, 64, 56
1, 286536, Control_c, 0, 64, 48
1, 286565, Control_c, 0, 64, 52
1, 286580, Control_c, 0, 64, 58
1, 286595, Control_c, 0, 64, 64
1, 286608, Control_c, 0, 64, 72
1, 286622, Control_c, 0, 64, 83
1, 286637, Control_c, 0, 64, 89
1, 286652, Control_c, 0, 64, 94
1, 286667, Control_c, 0, 64, 100
1, 286683, Control_c, 0, 64, 108
1, 286694, Note_off_c, 0, 49, 42
1, 286698, Control_c, 0, 64, 127
1, 286855, Note_off_c, 0, 54, 38
1, 286892, Note_off_c, 0, 64, 34
1, 286892, Note_off_c, 0, 66, 34
1, 286937, Note_off_c, 0, 42, 36
1, 286959, Note_off_c, 0, 58, 40
1, 286980, Note_on_c, 0, 35, 37
1, 287019, Note_off_c, 0, 35, 48
1, 287043, Note_on_c, 0, 42, 54
1, 287150, Control_c, 0, 64, 122
1, 287164, Control_c, 0, 64, 108
1, 287168, Note_on_c, 0, 63, 52
1, 287170, Note_on_c, 0, 51, 47
1, 287171, Note_on_c, 0, 66, 53
1, 287174, Note_on_c, 0, 59, 43
1, 287179, Control_c, 0, 64, 97
1, 287185, Note_on_c, 0, 54, 32
1, 287194, Control_c, 0, 64, 80
1, 287209, Control_c, 0, 64, 67
1, 287224, Control_c, 0, 64, 58
1, 287238, Control_c, 0, 64, 46
1, 287253, Control_c, 0, 64, 35
1, 287268, Control_c, 0, 64, 31
1, 287298, Control_c, 0, 64, 33
1, 287312, Control_c, 0, 64, 38
1, 287327, Control_c, 0, 64, 45
1, 287342, Control_c, 0, 64, 53
1, 287358, Control_c, 0, 64, 62
1, 287372, Control_c, 0, 64, 70
1, 287387, Control_c, 0, 64, 81
1, 287402, Control_c, 0, 64, 87
1, 287417, Control_c, 0, 64, 93
1, 287419, Note_off_c, 0, 51, 34
1, 287432, Control_c, 0, 64, 100
1, 287446, Control_c, 0, 64, 109
1, 287461, Control_c, 0, 64, 122
1, 287476, Control_c, 0, 64, 127
1, 287645, Note_off_c, 0, 63, 51
1, 287668, Note_off_c, 0, 54, 37
1, 287678, Note_off_c, 0, 66, 35
1, 287690, Note_off_c, 0, 59, 41
1, 287703, Note_off_c, 0, 42, 23
1, 287808, Note_on_c, 0, 35, 42
1, 287843, Note_off_c, 0, 35, 49
1, 287898, Note_on_c, 0, 42, 47
1, 287998, Note_on_c, 0, 49, 45
1, 288002, Note_on_c, 0, 66, 52
1, 288003, Control_c, 0, 64, 122
1, 288004, Note_on_c, 0, 64, 49
1, 288007, Note_on_c, 0, 58, 41
1, 288018, Control_c, 0, 64, 108
1, 288032, Control_c, 0, 64, 101
1, 288038, Note_on_c, 0, 54, 23
1, 288047, Control_c, 0, 64, 91
1, 288062, Control_c, 0, 64, 81
1, 288077, Control_c, 0, 64, 71
1, 288092, Control_c, 0, 64, 63
1, 288107, Control_c, 0, 64, 54
1, 288121, Control_c, 0, 64, 44
1, 288136, Control_c, 0, 64, 40
1, 288151, Control_c, 0, 64, 40
1, 288166, Control_c, 0, 64, 42
1, 288181, Control_c, 0, 64, 46
1, 288195, Control_c, 0, 64, 53
1, 288210, Control_c, 0, 64, 60
1, 288225, Control_c, 0, 64, 67
1, 288240, Control_c, 0, 64, 75
1, 288255, Control_c, 0, 64, 79
1, 288269, Control_c, 0, 64, 82
1, 288285, Control_c, 0, 64, 86
1, 288299, Note_off_c, 0, 49, 43
1, 288300, Control_c, 0, 64, 91
1, 288322, Control_c, 0, 64, 97
1, 288337, Control_c, 0, 64, 101
1, 288352, Control_c, 0, 64, 104
1, 288366, Control_c, 0, 64, 105
1, 288381, Control_c, 0, 64, 108
1, 288396, Control_c, 0, 64, 109
1, 288411, Control_c, 0, 64, 110
1, 288426, Control_c, 0, 64, 111
1, 288441, Control_c, 0, 64, 113
1, 288456, Control_c, 0, 64, 115
1, 288471, Control_c, 0, 64, 119
1, 288473, Note_off_c, 0, 66, 45
1, 288474, Note_off_c, 0, 64, 35
1, 288485, Control_c, 0, 64, 122
1, 288499, Note_off_c, 0, 54, 41
1, 288515, Control_c, 0, 64, 127
1, 288516, Note_off_c, 0, 58, 29
1, 288522, Note_off_c, 0, 42, 22
1, 288566, Note_on_c, 0, 35, 46
1, 288600, Note_off_c, 0, 35, 51
1, 288641, Note_on_c, 0, 42, 56
1, 288722, Control_c, 0, 64, 111
1, 288736, Control_c, 0, 64, 105
1, 288751, Control_c, 0, 64, 99
1, 288760, Note_on_c, 0, 66, 63
1, 288761, Note_on_c, 0, 63, 57
1, 288766, Control_c, 0, 64, 92
1, 288772, Note_on_c, 0, 51, 49
1, 288777, Note_on_c, 0, 59, 45
1, 288781, Control_c, 0, 64, 83
1, 288785, Note_on_c, 0, 54, 46
1, 288796, Control_c, 0, 64, 72
1, 288810, Control_c, 0, 64, 63
1, 288825, Control_c, 0, 64, 51
1, 288840, Control_c, 0, 64, 40
1, 288855, Control_c, 0, 64, 35
1, 288870, Control_c, 0, 64, 36
1, 288885, Control_c, 0, 64, 38
1, 288900, Control_c, 0, 64, 43
1, 288915, Control_c, 0, 64, 52
1, 288930, Control_c, 0, 64, 60
1, 288944, Control_c, 0, 64, 67
1, 288959, Control_c, 0, 64, 78
1, 288964, Note_off_c, 0, 54, 44
1, 288965, Note_off_c, 0, 51, 36
1, 288974, Control_c, 0, 64, 85
1, 288989, Control_c, 0, 64, 89
1, 288995, Note_off_c, 0, 59, 54
1, 289004, Control_c, 0, 64, 95
1, 289018, Control_c, 0, 64, 102
1, 289033, Control_c, 0, 64, 108
1, 289048, Control_c, 0, 64, 111
1, 289049, Note_off_c, 0, 63, 60
1, 289085, Control_c, 0, 64, 113
1, 289091, Note_off_c, 0, 66, 56
1, 289338, Control_c, 0, 64, 111
1, 289353, Control_c, 0, 64, 108
1, 289367, Control_c, 0, 64, 107
1, 289382, Control_c, 0, 64, 106
1, 289397, Control_c, 0, 64, 105
1, 289412, Control_c, 0, 64, 103
1, 289425, Note_off_c, 0, 42, 23
1, 289427, Control_c, 0, 64, 101
1, 289441, Control_c, 0, 64, 100
1, 289456, Control_c, 0, 64, 98
1, 289471, Control_c, 0, 64, 96
1, 289486, Control_c, 0, 64, 93
1, 289501, Control_c, 0, 64, 91
1, 289515, Control_c, 0, 64, 89
1, 289530, Control_c, 0, 64, 87
1, 289545, Control_c, 0, 64, 84
1, 289559, Control_c, 0, 64, 82
1, 289574, Control_c, 0, 64, 78
1, 289589, Control_c, 0, 64, 74
1, 289591, Note_on_c, 0, 71, 57
1, 289594, Note_on_c, 0, 63, 52
1, 289604, Control_c, 0, 64, 69
1, 289606, Note_on_c, 0, 35, 41
1, 289610, Note_on_c, 0, 47, 29
1, 289614, Note_on_c, 0, 59, 34
1, 289619, Control_c, 0, 64, 63
1, 289633, Control_c, 0, 64, 55
1, 289648, Control_c, 0, 64, 45
1, 289663, Control_c, 0, 64, 35
1, 289678, Control_c, 0, 64, 30
1, 289693, Control_c, 0, 64, 29
1, 289738, Control_c, 0, 64, 31
1, 289752, Control_c, 0, 64, 35
1, 289767, Control_c, 0, 64, 42
1, 289782, Control_c, 0, 64, 52
1, 289797, Control_c, 0, 64, 61
1, 289819, Control_c, 0, 64, 67
1, 289834, Control_c, 0, 64, 74
1, 289848, Control_c, 0, 64, 78
1, 289861, Note_off_c, 0, 47, 41
1, 289863, Control_c, 0, 64, 79
1, 289878, Control_c, 0, 64, 82
1, 289894, Control_c, 0, 64, 85
1, 289904, Note_off_c, 0, 59, 41
1, 289909, Control_c, 0, 64, 88
1, 289924, Control_c, 0, 64, 90
1, 289925, Note_off_c, 0, 35, 41
1, 289967, Note_off_c, 0, 63, 62
1, 289968, Control_c, 0, 64, 90
1, 290018, Note_off_c, 0, 71, 63
1, 290042, Control_c, 0, 64, 91
1, 290338, Control_c, 0, 64, 90
1, 290367, Control_c, 0, 64, 90
1, 290396, Control_c, 0, 64, 89
1, 290471, Control_c, 0, 64, 89
1, 290501, Control_c, 0, 64, 88
1, 290515, Control_c, 0, 64, 88
1, 290530, Control_c, 0, 64, 87
1, 290545, Control_c, 0, 64, 86
1, 290567, Control_c, 0, 64, 85
1, 290582, Control_c, 0, 64, 84
1, 290596, Control_c, 0, 64, 82
1, 290597, Note_on_c, 0, 75, 61
1, 290599, Note_on_c, 0, 66, 50
1, 290607, Note_on_c, 0, 63, 37
1, 290608, Note_on_c, 0, 71, 51
1, 290611, Control_c, 0, 64, 80
1, 290620, Note_on_c, 0, 42, 40
1, 290621, Note_on_c, 0, 30, 42
1, 290626, Control_c, 0, 64, 78
1, 290641, Control_c, 0, 64, 75
1, 290656, Control_c, 0, 64, 73
1, 290671, Control_c, 0, 64, 70
1, 290686, Control_c, 0, 64, 67
1, 290701, Control_c, 0, 64, 64
1, 290716, Control_c, 0, 64, 59
1, 290731, Control_c, 0, 64, 51
1, 290745, Control_c, 0, 64, 42
1, 290760, Control_c, 0, 64, 33
1, 290775, Control_c, 0, 64, 26
1, 290790, Control_c, 0, 64, 19
1, 290805, Control_c, 0, 64, 11
1, 290820, Control_c, 0, 64, 0
1, 290894, Control_c, 0, 64, 9
1, 290909, Control_c, 0, 64, 18
1, 290924, Control_c, 0, 64, 26
1, 290938, Control_c, 0, 64, 31
1, 290953, Control_c, 0, 64, 37
1, 290968, Control_c, 0, 64, 44
1, 290983, Control_c, 0, 64, 51
1, 290998, Control_c, 0, 64, 56
1, 291012, Control_c, 0, 64, 61
1, 291027, Control_c, 0, 64, 63
1, 291042, Control_c, 0, 64, 65
1, 291057, Control_c, 0, 64, 68
1, 291072, Control_c, 0, 64, 71
1, 291086, Control_c, 0, 64, 74
1, 291102, Control_c, 0, 64, 78
1, 291117, Control_c, 0, 64, 83
1, 291131, Control_c, 0, 64, 88
1, 291139, Note_off_c, 0, 30, 39
1, 291146, Control_c, 0, 64, 92
1, 291161, Control_c, 0, 64, 97
1, 291176, Control_c, 0, 64, 104
1, 291191, Control_c, 0, 64, 115
1, 291205, Control_c, 0, 64, 127
1, 291279, Note_off_c, 0, 63, 42
1, 291314, Note_off_c, 0, 42, 38
1, 291404, Note_off_c, 0, 75, 31
1, 291535, Note_off_c, 0, 71, 31
1, 291622, Note_off_c, 0, 66, 38
1, 292376, Note_on_c, 0, 75, 55
1, 292380, Note_on_c, 0, 71, 47
1, 292383, Note_on_c, 0, 66, 47
1, 292391, Note_on_c, 0, 63, 33
1, 292392, Note_on_c, 0, 54, 33
1, 292396, Note_on_c, 0, 42, 31
1, 292775, Note_off_c, 0, 75, 36
1, 292802, Note_off_c, 0, 66, 36
1, 292862, Note_off_c, 0, 71, 55
1, 292894, Note_off_c, 0, 42, 35
1, 292916, Note_off_c, 0, 63, 41
1, 292957, Note_off_c, 0, 54, 39
1, 293136, Note_on_c, 0, 73, 68
1, 293138, Note_on_c, 0, 71, 51
1, 293139, Note_on_c, 0, 49, 52
1, 293150, Note_on_c, 0, 61, 53
1, 293154, Note_on_c, 0, 42, 39
1, 293154, Note_on_c, 0, 56, 41
1, 293160, Note_on_c, 0, 65, 49
1, 293245, Control_c, 0, 64, 106
1, 293260, Control_c, 0, 64, 87
1, 293275, Control_c, 0, 64, 72
1, 293289, Control_c, 0, 64, 61
1, 293304, Control_c, 0, 64, 47
1, 293319, Control_c, 0, 64, 32
1, 293333, Control_c, 0, 64, 32
1, 293348, Control_c, 0, 64, 37
1, 293363, Control_c, 0, 64, 44
1, 293378, Control_c, 0, 64, 54
1, 293393, Control_c, 0, 64, 64
1, 293407, Control_c, 0, 64, 86
1, 293422, Control_c, 0, 64, 127
1, 293448, Note_off_c, 0, 42, 40
1, 293473, Note_off_c, 0, 61, 55
1, 293483, Note_off_c, 0, 71, 37
1, 293496, Note_off_c, 0, 65, 61
1, 293571, Note_off_c, 0, 49, 34
1, 293633, Note_off_c, 0, 56, 44
1, 293700, Note_on_c, 0, 42, 54
1, 293826, Note_off_c, 0, 42, 53
1, 293838, Note_on_c, 0, 49, 60
1, 294036, Note_off_c, 0, 49, 61
1, 294052, Note_on_c, 0, 75, 67
1, 294053, Control_c, 0, 64, 110
1, 294057, Note_off_c, 0, 73, 64
1, 294058, Note_on_c, 0, 58, 55
1, 294058, Note_on_c, 0, 66, 57
1, 294068, Control_c, 0, 64, 75
1, 294071, Note_on_c, 0, 64, 38
1, 294083, Control_c, 0, 64, 59
1, 294097, Control_c, 0, 64, 43
1, 294112, Control_c, 0, 64, 34
1, 294127, Control_c, 0, 64, 39
1, 294142, Control_c, 0, 64, 49
1, 294156, Control_c, 0, 64, 61
1, 294171, Control_c, 0, 64, 84
1, 294186, Control_c, 0, 64, 127
1, 294205, Note_off_c, 0, 58, 62
1, 294289, Note_off_c, 0, 64, 43
1, 294320, Note_off_c, 0, 75, 56
1, 294331, Note_on_c, 0, 59, 44
1, 294383, Note_off_c, 0, 59, 60
1, 294429, Note_off_c, 0, 66, 35
1, 294443, Note_on_c, 0, 58, 48
1, 294483, Note_off_c, 0, 58, 62
1, 294520, Note_on_c, 0, 59, 55
1, 294553, Note_off_c, 0, 59, 61
1, 294596, Note_on_c, 0, 58, 55
1, 294630, Note_off_c, 0, 58, 64
1, 294656, Note_on_c, 0, 59, 51
1, 294680, Note_off_c, 0, 59, 62
1, 294714, Note_on_c, 0, 58, 60
1, 294745, Note_off_c, 0, 58, 66
1, 294760, Note_on_c, 0, 59, 58
1, 294789, Note_off_c, 0, 59, 64
1, 294826, Note_on_c, 0, 58, 54
1, 294846, Note_off_c, 0, 58, 65
1, 294865, Note_on_c, 0, 59, 54
1, 294888, Note_off_c, 0, 59, 62
1, 294930, Note_on_c, 0, 58, 43
1, 294963, Note_off_c, 0, 58, 51
1, 294974, Note_on_c, 0, 59, 39
1, 294993, Note_on_c, 0, 64, 54
1, 294993, Note_on_c, 0, 66, 70
1, 294998, Note_on_c, 0, 54, 59
1, 295003, Note_off_c, 0, 59, 53
1, 295020, Note_on_c, 0, 61, 46
1, 295029, Note_on_c, 0, 58, 22
1, 295079, Note_off_c, 0, 58, 45
1, 295100, Note_off_c, 0, 54, 36
1, 295139, Note_on_c, 0, 58, 6
1, 295219, Note_off_c, 0, 61, 18
1, 295249, Note_off_c, 0, 58, 0
1, 295249, Note_on_c, 0, 58, 27
1, 295258, Poly_aftertouch_c, 0, 59, 127
1, 295291, Note_off_c, 0, 58, 61
1, 295305, Note_on_c, 0, 59, 3
1, 295305, Note_off_c, 0, 66, 0
1, 295305, Note_on_c, 0, 66, 3
1, 295319, Note_off_c, 0, 64, 27
1, 295351, Note_off_c, 0, 59, 56
1, 295375, Note_on_c, 0, 58, 55
1, 295410, Note_off_c, 0, 58, 65
1, 295550, Note_on_c, 0, 56, 50
1, 295865, Note_on_c, 0, 58, 50
1, 295938, Note_off_c, 0, 56, 42
1, 296032, Note_off_c, 0, 58, 36
1, 296057, Note_off_c, 0, 66, 41
1, 296374, Control_c, 0, 64, 113
1, 296382, Note_on_c, 0, 35, 34
1, 296389, Control_c, 0, 64, 106
1, 296404, Control_c, 0, 64, 100
1, 296419, Control_c, 0, 64, 95
1, 296433, Control_c, 0, 64, 90
1, 296448, Control_c, 0, 64, 85
1, 296463, Control_c, 0, 64, 79
1, 296477, Control_c, 0, 64, 73
1, 296482, Note_on_c, 0, 63, 46
1, 296483, Note_on_c, 0, 59, 40
1, 296492, Control_c, 0, 64, 66
1, 296504, Note_on_c, 0, 54, 30
1, 296507, Control_c, 0, 64, 58
1, 296522, Control_c, 0, 64, 44
1, 296537, Control_c, 0, 64, 21
1, 296559, Control_c, 0, 64, 0
1, 296633, Control_c, 0, 64, 23
1, 296648, Control_c, 0, 64, 36
1, 296663, Control_c, 0, 64, 51
1, 296670, Note_off_c, 0, 54, 43
1, 296677, Control_c, 0, 64, 63
1, 296692, Control_c, 0, 64, 80
1, 296697, Note_off_c, 0, 63, 63
1, 296707, Control_c, 0, 64, 105
1, 296710, Note_off_c, 0, 59, 48
1, 296722, Control_c, 0, 64, 108
1, 296737, Control_c, 0, 64, 109
1, 296752, Control_c, 0, 64, 115
1, 296766, Control_c, 0, 64, 127
1, 297050, Note_on_c, 0, 71, 39
1, 297109, Note_off_c, 0, 71, 0
1, 297109, Note_on_c, 0, 71, 8
1, 297560, Note_on_c, 0, 42, 30
1, 297645, Note_off_c, 0, 35, 31
1, 297812, Note_off_c, 0, 71, 42
1, 297840, Note_off_c, 0, 42, 38
1, 297928, Note_on_c, 0, 47, 36
1, 298221, Note_off_c, 0, 47, 42
1, 298243, Note_on_c, 0, 49, 42
1, 298503, Note_on_c, 0, 51, 44
1, 298542, Note_off_c, 0, 49, 40
1, 298661, Note_off_c, 0, 51, 51
1, 298755, Note_on_c, 0, 56, 45
1, 298865, Control_c, 0, 64, 117
1, 298880, Control_c, 0, 64, 83
1, 298895, Control_c, 0, 64, 71
1, 298910, Control_c, 0, 64, 65
1, 298925, Control_c, 0, 64, 64
1, 298940, Control_c, 0, 64, 64
1, 298954, Control_c, 0, 64, 67
1, 298969, Control_c, 0, 64, 72
1, 298984, Control_c, 0, 64, 80
1, 298999, Control_c, 0, 64, 91
1, 299014, Control_c, 0, 64, 101
1, 299023, Note_on_c, 0, 54, 53
1, 299028, Control_c, 0, 64, 108
1, 299036, Note_off_c, 0, 56, 44
1, 299043, Control_c, 0, 64, 115
1, 299058, Control_c, 0, 64, 122
1, 299072, Control_c, 0, 64, 127
1, 299136, Note_off_c, 0, 54, 60
1, 299271, Note_on_c, 0, 51, 47
1, 299284, Note_on_c, 0, 59, 45
1, 299309, Note_on_c, 0, 54, 12
1, 299372, Note_off_c, 0, 54, 41
1, 299433, Note_off_c, 0, 51, 56
1, 299443, Control_c, 0, 64, 119
1, 299458, Control_c, 0, 64, 114
1, 299473, Control_c, 0, 64, 110
1, 299488, Control_c, 0, 64, 107
1, 299503, Control_c, 0, 64, 103
1, 299518, Control_c, 0, 64, 99
1, 299533, Control_c, 0, 64, 96
1, 299555, Control_c, 0, 64, 93
1, 299570, Control_c, 0, 64, 90
1, 299584, Control_c, 0, 64, 87
1, 299599, Control_c, 0, 64, 84
1, 299614, Control_c, 0, 64, 81
1, 299628, Note_on_c, 0, 49, 33
1, 299629, Control_c, 0, 64, 79
1, 299635, Note_on_c, 0, 63, 48
1, 299635, Note_on_c, 0, 66, 61
1, 299643, Control_c, 0, 64, 76
1, 299658, Control_c, 0, 64, 74
1, 299673, Control_c, 0, 64, 70
1, 299688, Control_c, 0, 64, 64
1, 299703, Control_c, 0, 64, 57
1, 299718, Control_c, 0, 64, 41
1, 299732, Control_c, 0, 64, 25
1, 299737, Note_off_c, 0, 59, 36
1, 299747, Control_c, 0, 64, 20
1, 299762, Control_c, 0, 64, 21
1, 299777, Control_c, 0, 64, 26
1, 299792, Control_c, 0, 64, 33
1, 299807, Control_c, 0, 64, 44
1, 299821, Control_c, 0, 64, 55
1, 299836, Control_c, 0, 64, 64
1, 299851, Control_c, 0, 64, 77
1, 299866, Control_c, 0, 64, 85
1, 299881, Control_c, 0, 64, 86
1, 299910, Control_c, 0, 64, 87
1, 299925, Control_c, 0, 64, 88
1, 299940, Control_c, 0, 64, 90
1, 299955, Control_c, 0, 64, 91
1, 299962, Note_on_c, 0, 59, 46
1, 299969, Note_off_c, 0, 63, 37
1, 299969, Control_c, 0, 64, 92
1, 299980, Note_off_c, 0, 49, 44
1, 299984, Control_c, 0, 64, 94
1, 299987, Note_on_c, 0, 51, 40
1, 299999, Control_c, 0, 64, 98
1, 300014, Control_c, 0, 64, 101
1, 300028, Control_c, 0, 64, 103
1, 300043, Control_c, 0, 64, 105
1, 300058, Control_c, 0, 64, 107
1, 300073, Control_c, 0, 64, 109
1, 300087, Control_c, 0, 64, 114
1, 300102, Control_c, 0, 64, 119
1, 300117, Control_c, 0, 64, 122
1, 300132, Control_c, 0, 64, 127
1, 300180, Note_off_c, 0, 51, 55
1, 300223, Note_on_c, 0, 63, 56
1, 300224, Note_on_c, 0, 68, 63
1, 300267, Note_off_c, 0, 66, 60
1, 300270, Note_on_c, 0, 49, 15
1, 300406, Note_off_c, 0, 59, 33
1, 300418, Note_off_c, 0, 68, 36
1, 300431, Note_off_c, 0, 49, 43
1, 300510, Note_on_c, 0, 59, 35
1, 300511, Note_on_c, 0, 54, 43
1, 300529, Note_on_c, 0, 47, 34
1, 300573, Note_off_c, 0, 47, 49
1, 300590, Note_off_c, 0, 63, 36
1, 300676, Note_off_c, 0, 54, 42
1, 300762, Control_c, 0, 64, 122
1, 300777, Control_c, 0, 64, 119
1, 300791, Control_c, 0, 64, 114
1, 300806, Control_c, 0, 64, 109
1, 300821, Control_c, 0, 64, 104
1, 300836, Control_c, 0, 64, 99
1, 300850, Control_c, 0, 64, 94
1, 300865, Control_c, 0, 64, 88
1, 300880, Control_c, 0, 64, 83
1, 300895, Control_c, 0, 64, 76
1, 300896, Note_on_c, 0, 68, 52
1, 300903, Note_on_c, 0, 30, 44
1, 300903, Note_on_c, 0, 64, 43
1, 300910, Control_c, 0, 64, 67
1, 300925, Control_c, 0, 64, 58
1, 300940, Control_c, 0, 64, 41
1, 300955, Control_c, 0, 64, 0
1, 300972, Note_off_c, 0, 59, 39
1, 301014, Control_c, 0, 64, 18
1, 301029, Control_c, 0, 64, 34
1, 301050, Control_c, 0, 64, 47
1, 301065, Control_c, 0, 64, 64
1, 301081, Control_c, 0, 64, 87
1, 301082, Note_off_c, 0, 30, 54
1, 301096, Control_c, 0, 64, 127
1, 301137, Note_off_c, 0, 68, 49
1, 301342, Note_on_c, 0, 59, 38
1, 301348, Note_on_c, 0, 42, 38
1, 301357, Note_on_c, 0, 54, 29
1, 301369, Note_off_c, 0, 64, 39
1, 301378, Control_c, 0, 64, 122
1, 301482, Note_off_c, 0, 59, 0
1, 301491, Note_off_c, 0, 42, 50
1, 301496, Control_c, 0, 64, 119
1, 301506, Poly_aftertouch_c, 0, 59, 0
1, 301511, Control_c, 0, 64, 117
1, 301526, Control_c, 0, 64, 114
1, 301541, Control_c, 0, 64, 111
1, 301555, Control_c, 0, 64, 109
1, 301570, Control_c, 0, 64, 106
1, 301585, Control_c, 0, 64, 103
1, 301600, Control_c, 0, 64, 100
1, 301614, Control_c, 0, 64, 97
1, 301629, Control_c, 0, 64, 93
1, 301644, Control_c, 0, 64, 89
1, 301659, Control_c, 0, 64, 87
1, 301673, Control_c, 0, 64, 84
1, 301683, Note_on_c, 0, 49, 35
1, 301688, Control_c, 0, 64, 81
1, 301689, Note_on_c, 0, 64, 39
1, 301691, Note_on_c, 0, 66, 49
1, 301703, Control_c, 0, 64, 79
1, 301709, Note_off_c, 0, 54, 29
1, 301718, Control_c, 0, 64, 74
1, 301733, Control_c, 0, 64, 68
1, 301748, Control_c, 0, 64, 62
1, 301762, Control_c, 0, 64, 52
1, 301777, Control_c, 0, 64, 39
1, 301799, Control_c, 0, 64, 30
1, 301814, Control_c, 0, 64, 31
1, 301829, Control_c, 0, 64, 36
1, 301844, Control_c, 0, 64, 44
1, 301859, Control_c, 0, 64, 53
1, 301875, Control_c, 0, 64, 62
1, 301890, Control_c, 0, 64, 69
1, 301904, Control_c, 0, 64, 77
1, 301919, Control_c, 0, 64, 78
1, 301993, Control_c, 0, 64, 78
1, 302009, Note_on_c, 0, 51, 40
1, 302038, Control_c, 0, 64, 79
1, 302041, Note_on_c, 0, 54, 4
1, 302043, Note_on_c, 0, 58, 33
1, 302052, Control_c, 0, 64, 79
1, 302070, Note_off_c, 0, 64, 30
1, 302087, Note_off_c, 0, 49, 42
1, 302111, Control_c, 0, 64, 80
1, 302126, Control_c, 0, 64, 80
1, 302195, Note_off_c, 0, 54, 39
1, 302260, Control_c, 0, 64, 79
1, 302266, Note_off_c, 0, 51, 36
1, 302275, Control_c, 0, 64, 76
1, 302276, Note_on_c, 0, 52, 42
1, 302290, Control_c, 0, 64, 70
1, 302290, Note_on_c, 0, 64, 39
1, 302304, Control_c, 0, 64, 61
1, 302319, Control_c, 0, 64, 50
1, 302334, Control_c, 0, 64, 39
1, 302335, Note_off_c, 0, 58, 43
1, 302349, Control_c, 0, 64, 37
1, 302363, Control_c, 0, 64, 40
1, 302378, Control_c, 0, 64, 46
1, 302393, Control_c, 0, 64, 55
1, 302408, Control_c, 0, 64, 62
1, 302422, Control_c, 0, 64, 69
1, 302437, Control_c, 0, 64, 74
1, 302452, Control_c, 0, 64, 75
1, 302514, Note_off_c, 0, 52, 34
1, 302526, Control_c, 0, 64, 74
1, 302544, Note_on_c, 0, 58, 46
1, 302549, Control_c, 0, 64, 74
1, 302552, Note_on_c, 0, 56, 43
1, 302667, Control_c, 0, 64, 73
1, 302683, Control_c, 0, 64, 73
1, 302698, Control_c, 0, 64, 72
1, 302699, Note_off_c, 0, 64, 31
1, 302713, Control_c, 0, 64, 71
1, 302727, Control_c, 0, 64, 71
1, 302742, Control_c, 0, 64, 69
1, 302757, Control_c, 0, 64, 68
1, 302772, Control_c, 0, 64, 65
1, 302787, Control_c, 0, 64, 61
1, 302790, Note_off_c, 0, 58, 34
1, 302797, Note_off_c, 0, 56, 43
1, 302801, Control_c, 0, 64, 54
1, 302810, Note_on_c, 0, 54, 44
1, 302811, Note_on_c, 0, 63, 48
1, 302816, Control_c, 0, 64, 38
1, 302831, Control_c, 0, 64, 0
1, 302919, Control_c, 0, 64, 19
1, 302934, Control_c, 0, 64, 34
1, 302949, Note_off_c, 0, 63, 55
1, 302949, Control_c, 0, 64, 46
1, 302964, Control_c, 0, 64, 57
1, 302971, Note_off_c, 0, 54, 42
1, 302979, Control_c, 0, 64, 63
1, 302994, Control_c, 0, 64, 66
1, 303009, Control_c, 0, 64, 67
1, 303023, Control_c, 0, 64, 68
1, 303038, Control_c, 0, 64, 71
1, 303053, Control_c, 0, 64, 76
1, 303065, Note_on_c, 0, 59, 40
1, 303065, Note_on_c, 0, 51, 36
1, 303068, Control_c, 0, 64, 79
1, 303076, Note_off_c, 0, 66, 41
1, 303083, Control_c, 0, 64, 79
1, 303094, Note_on_c, 0, 54, 26
1, 303112, Control_c, 0, 64, 80
1, 303127, Control_c, 0, 64, 80
1, 303142, Control_c, 0, 64, 81
1, 303251, Note_off_c, 0, 51, 44
1, 303357, Control_c, 0, 64, 80
1, 303360, Note_on_c, 0, 66, 59
1, 303360, Note_off_c, 0, 54, 38
1, 303372, Control_c, 0, 64, 79
1, 303374, Note_on_c, 0, 63, 42
1, 303387, Control_c, 0, 64, 77
1, 303393, Note_on_c, 0, 49, 24
1, 303401, Control_c, 0, 64, 73
1, 303414, Note_off_c, 0, 59, 31
1, 303416, Control_c, 0, 64, 67
1, 303431, Control_c, 0, 64, 60
1, 303445, Control_c, 0, 64, 48
1, 303460, Control_c, 0, 64, 37
1, 303476, Control_c, 0, 64, 35
1, 303491, Control_c, 0, 64, 38
1, 303506, Control_c, 0, 64, 43
1, 303521, Control_c, 0, 64, 51
1, 303536, Control_c, 0, 64, 58
1, 303550, Control_c, 0, 64, 63
1, 303565, Control_c, 0, 64, 66
1, 303580, Control_c, 0, 64, 68
1, 303595, Control_c, 0, 64, 68
1, 303610, Control_c, 0, 64, 69
1, 303619, Note_off_c, 0, 63, 37
1, 303620, Note_off_c, 0, 49, 43
1, 303624, Control_c, 0, 64, 71
1, 303631, Note_on_c, 0, 51, 42
1, 303634, Note_on_c, 0, 59, 44
1, 303639, Control_c, 0, 64, 73
1, 303654, Control_c, 0, 64, 75
1, 303668, Control_c, 0, 64, 77
1, 303683, Control_c, 0, 64, 80
1, 303698, Control_c, 0, 64, 83
1, 303713, Control_c, 0, 64, 87
1, 303728, Control_c, 0, 64, 89
1, 303742, Control_c, 0, 64, 90
1, 303757, Control_c, 0, 64, 91
1, 303772, Control_c, 0, 64, 91
1, 303787, Control_c, 0, 64, 92
1, 303891, Control_c, 0, 64, 91
1, 303896, Note_off_c, 0, 51, 43
1, 303905, Note_on_c, 0, 63, 51
1, 303905, Note_on_c, 0, 68, 61
1, 303906, Control_c, 0, 64, 87
1, 303913, Note_on_c, 0, 49, 32
1, 303921, Control_c, 0, 64, 80
1, 303935, Control_c, 0, 64, 71
1, 303939, Note_off_c, 0, 66, 56
1, 303950, Control_c, 0, 64, 64
1, 303965, Control_c, 0, 64, 56
1, 303977, Note_off_c, 0, 59, 32
1, 303980, Control_c, 0, 64, 49
1, 303995, Control_c, 0, 64, 48
1, 304009, Control_c, 0, 64, 53
1, 304024, Control_c, 0, 64, 60
1, 304046, Control_c, 0, 64, 67
1, 304061, Control_c, 0, 64, 77
1, 304070, Note_off_c, 0, 68, 37
1, 304076, Control_c, 0, 64, 84
1, 304091, Control_c, 0, 64, 85
1, 304171, Note_off_c, 0, 49, 44
1, 304193, Note_on_c, 0, 59, 41
1, 304196, Note_on_c, 0, 47, 47
1, 304219, Note_on_c, 0, 54, 38
1, 304244, Note_off_c, 0, 47, 59
1, 304251, Note_off_c, 0, 63, 30
1, 304326, Note_off_c, 0, 54, 37
1, 304447, Control_c, 0, 64, 84
1, 304462, Control_c, 0, 64, 84
1, 304477, Control_c, 0, 64, 83
1, 304491, Control_c, 0, 64, 81
1, 304506, Control_c, 0, 64, 79
1, 304521, Control_c, 0, 64, 78
1, 304536, Control_c, 0, 64, 76
1, 304551, Control_c, 0, 64, 74
1, 304565, Control_c, 0, 64, 70
1, 304581, Control_c, 0, 64, 66
1, 304585, Note_on_c, 0, 30, 43
1, 304591, Note_on_c, 0, 68, 52
1, 304593, Note_on_c, 0, 64, 43
1, 304596, Control_c, 0, 64, 60
1, 304610, Control_c, 0, 64, 49
1, 304625, Control_c, 0, 64, 33
1, 304638, Note_off_c, 0, 59, 33
1, 304640, Control_c, 0, 64, 0
1, 304714, Control_c, 0, 64, 24
1, 304729, Control_c, 0, 64, 35
1, 304744, Control_c, 0, 64, 45
1, 304758, Control_c, 0, 64, 56
1, 304773, Control_c, 0, 64, 64
1, 304774, Note_off_c, 0, 30, 48
1, 304796, Control_c, 0, 64, 72
1, 304811, Control_c, 0, 64, 74
1, 304834, Note_off_c, 0, 68, 50
1, 304855, Control_c, 0, 64, 75
1, 304870, Control_c, 0, 64, 75
1, 304914, Control_c, 0, 64, 76
1, 304944, Control_c, 0, 64, 76
1, 304985, Note_off_c, 0, 64, 24
1, 305047, Note_on_c, 0, 59, 40
1, 305048, Note_on_c, 0, 42, 31
1, 305062, Note_on_c, 0, 54, 28
1, 305176, Note_off_c, 0, 59, 57
1, 305234, Note_off_c, 0, 42, 41
1, 305286, Control_c, 0, 64, 76
1, 305301, Control_c, 0, 64, 75
1, 305315, Control_c, 0, 64, 75
1, 305320, Note_off_c, 0, 54, 34
1, 305329, Control_c, 0, 64, 74
1, 305344, Control_c, 0, 64, 74
1, 305359, Control_c, 0, 64, 73
1, 305374, Control_c, 0, 64, 73
1, 305388, Control_c, 0, 64, 72
1, 305396, Note_on_c, 0, 66, 53
1, 305397, Note_on_c, 0, 64, 39
1, 305403, Control_c, 0, 64, 71
1, 305406, Note_on_c, 0, 49, 36
1, 305418, Control_c, 0, 64, 69
1, 305433, Control_c, 0, 64, 67
1, 305447, Control_c, 0, 64, 61
1, 305462, Control_c, 0, 64, 53
1, 305477, Control_c, 0, 64, 41
1, 305492, Control_c, 0, 64, 32
1, 305521, Control_c, 0, 64, 35
1, 305544, Control_c, 0, 64, 42
1, 305559, Control_c, 0, 64, 50
1, 305574, Control_c, 0, 64, 58
1, 305588, Control_c, 0, 64, 64
1, 305603, Control_c, 0, 64, 69
1, 305618, Control_c, 0, 64, 70
1, 305662, Control_c, 0, 64, 70
1, 305745, Note_on_c, 0, 51, 35
1, 305757, Note_on_c, 0, 58, 34
1, 305760, Note_on_c, 0, 54, 25
1, 305766, Note_off_c, 0, 64, 35
1, 305796, Control_c, 0, 64, 71
1, 305820, Note_off_c, 0, 49, 44
1, 305915, Note_off_c, 0, 54, 41
1, 305945, Control_c, 0, 64, 71
1, 305989, Control_c, 0, 64, 71
1, 305999, Note_off_c, 0, 51, 35
1, 306004, Control_c, 0, 64, 69
1, 306005, Note_on_c, 0, 64, 43
1, 306007, Note_on_c, 0, 52, 42
1, 306019, Control_c, 0, 64, 64
1, 306034, Control_c, 0, 64, 57
1, 306043, Note_off_c, 0, 58, 43
1, 306049, Control_c, 0, 64, 46
1, 306063, Control_c, 0, 64, 40
1, 306078, Control_c, 0, 64, 41
1, 306093, Control_c, 0, 64, 44
1, 306108, Control_c, 0, 64, 50
1, 306123, Control_c, 0, 64, 58
1, 306137, Control_c, 0, 64, 65
1, 306152, Control_c, 0, 64, 71
1, 306167, Control_c, 0, 64, 73
1, 306197, Control_c, 0, 64, 74
1, 306239, Note_off_c, 0, 52, 36
1, 306264, Note_on_c, 0, 56, 39
1, 306382, Control_c, 0, 64, 73
1, 306411, Control_c, 0, 64, 73
1, 306426, Control_c, 0, 64, 72
1, 306441, Control_c, 0, 64, 71
1, 306443, Note_off_c, 0, 64, 36
1, 306456, Control_c, 0, 64, 70
1, 306470, Control_c, 0, 64, 67
1, 306481, Note_off_c, 0, 56, 42
1, 306485, Control_c, 0, 64, 62
1, 306500, Control_c, 0, 64, 52
1, 306515, Control_c, 0, 64, 40
1, 306523, Note_on_c, 0, 63, 43
1, 306524, Note_on_c, 0, 54, 41
1, 306530, Control_c, 0, 64, 35
1, 306544, Control_c, 0, 64, 36
1, 306559, Control_c, 0, 64, 39
1, 306574, Control_c, 0, 64, 45
1, 306589, Control_c, 0, 64, 54
1, 306597, Note_off_c, 0, 63, 53
1, 306603, Control_c, 0, 64, 63
1, 306618, Control_c, 0, 64, 70
1, 306623, Note_off_c, 0, 54, 50
1, 306633, Control_c, 0, 64, 73
1, 306741, Note_off_c, 0, 66, 41
1, 306746, Note_on_c, 0, 51, 37
1, 306767, Note_on_c, 0, 59, 43
1, 306771, Note_on_c, 0, 54, 39
1, 306842, Control_c, 0, 64, 73
1, 306901, Control_c, 0, 64, 72
1, 306931, Control_c, 0, 64, 72
1, 306946, Control_c, 0, 64, 71
1, 306958, Note_off_c, 0, 54, 24
1, 306960, Control_c, 0, 64, 71
1, 306973, Note_off_c, 0, 51, 42
1, 306975, Control_c, 0, 64, 70
1, 306990, Control_c, 0, 64, 69
1, 307004, Control_c, 0, 64, 68
1, 307019, Control_c, 0, 64, 67
1, 307042, Control_c, 0, 64, 63
1, 307053, Note_on_c, 0, 66, 63
1, 307057, Control_c, 0, 64, 58
1, 307061, Note_on_c, 0, 63, 39
1, 307071, Control_c, 0, 64, 48
1, 307080, Note_on_c, 0, 49, 22
1, 307086, Control_c, 0, 64, 38
1, 307101, Control_c, 0, 64, 35
1, 307111, Note_off_c, 0, 59, 36
1, 307146, Control_c, 0, 64, 36
1, 307160, Control_c, 0, 64, 39
1, 307175, Control_c, 0, 64, 47
1, 307190, Control_c, 0, 64, 56
1, 307205, Control_c, 0, 64, 63
1, 307219, Control_c, 0, 64, 70
1, 307234, Control_c, 0, 64, 74
1, 307249, Control_c, 0, 64, 74
1, 307292, Note_off_c, 0, 49, 41
1, 307292, Note_off_c, 0, 63, 48
1, 307293, Control_c, 0, 64, 75
1, 307301, Note_on_c, 0, 59, 45
1, 307312, Note_on_c, 0, 51, 41
1, 307323, Control_c, 0, 64, 75
1, 307343, Poly_aftertouch_c, 0, 54, 127
1, 307353, Control_c, 0, 64, 76
1, 307367, Control_c, 0, 64, 76
1, 307381, Poly_aftertouch_c, 0, 54, 0
1, 307487, Control_c, 0, 64, 76
1, 307502, Control_c, 0, 64, 75
1, 307516, Control_c, 0, 64, 74
1, 307531, Control_c, 0, 64, 74
1, 307546, Control_c, 0, 64, 73
1, 307561, Control_c, 0, 64, 70
1, 307572, Note_off_c, 0, 59, 36
1, 307575, Note_on_c, 0, 68, 67
1, 307576, Note_on_c, 0, 49, 40
1, 307576, Control_c, 0, 64, 66
1, 307577, Note_on_c, 0, 63, 50
1, 307586, Note_off_c, 0, 51, 44
1, 307590, Control_c, 0, 64, 59
1, 307605, Control_c, 0, 64, 48
1, 307610, Note_off_c, 0, 66, 57
1, 307620, Control_c, 0, 64, 38
1, 307635, Control_c, 0, 64, 35
1, 307650, Control_c, 0, 64, 37
1, 307665, Control_c, 0, 64, 41
1, 307680, Control_c, 0, 64, 47
1, 307686, Note_off_c, 0, 68, 55
1, 307694, Control_c, 0, 64, 55
1, 307709, Control_c, 0, 64, 63
1, 307724, Control_c, 0, 64, 70
1, 307739, Control_c, 0, 64, 75
1, 307769, Control_c, 0, 64, 76
1, 307790, Control_c, 0, 64, 77
1, 307793, Note_off_c, 0, 49, 41
1, 307805, Control_c, 0, 64, 78
1, 307820, Control_c, 0, 64, 79
1, 307825, Note_off_c, 0, 63, 37
1, 307849, Control_c, 0, 64, 79
1, 307858, Note_on_c, 0, 47, 35
1, 307861, Note_on_c, 0, 59, 38
1, 307872, Note_on_c, 0, 54, 38
1, 307908, Note_off_c, 0, 54, 52
1, 307915, Note_off_c, 0, 59, 58
1, 308005, Note_off_c, 0, 47, 35
1, 308057, Control_c, 0, 64, 79
1, 308087, Control_c, 0, 64, 78
1, 308116, Control_c, 0, 64, 78
1, 308131, Control_c, 0, 64, 77
1, 308146, Control_c, 0, 64, 76
1, 308160, Control_c, 0, 64, 76
1, 308175, Control_c, 0, 64, 75
1, 308190, Control_c, 0, 64, 74
1, 308204, Note_on_c, 0, 39, 34
1, 308205, Control_c, 0, 64, 73
1, 308220, Control_c, 0, 64, 72
1, 308234, Control_c, 0, 64, 72
1, 308249, Control_c, 0, 64, 71
1, 308265, Control_c, 0, 64, 70
1, 308280, Control_c, 0, 64, 68
1, 308295, Control_c, 0, 64, 66
1, 308310, Control_c, 0, 64, 64
1, 308326, Control_c, 0, 64, 62
1, 308340, Control_c, 0, 64, 61
1, 308349, Note_on_c, 0, 70, 53
1, 308351, Note_on_c, 0, 66, 45
1, 308355, Control_c, 0, 64, 59
1, 308370, Control_c, 0, 64, 58
1, 308385, Control_c, 0, 64, 56
1, 308400, Control_c, 0, 64, 54
1, 308414, Control_c, 0, 64, 50
1, 308419, Note_off_c, 0, 66, 0
1, 308419, Note_on_c, 0, 66, 7
1, 308429, Control_c, 0, 64, 45
1, 308444, Control_c, 0, 64, 36
1, 308458, Control_c, 0, 64, 23
1, 308473, Control_c, 0, 64, 0
1, 308584, Control_c, 0, 64, 21
1, 308599, Control_c, 0, 64, 34
1, 308614, Control_c, 0, 64, 46
1, 308629, Control_c, 0, 64, 56
1, 308644, Control_c, 0, 64, 64
1, 308658, Control_c, 0, 64, 71
1, 308673, Control_c, 0, 64, 75
1, 308703, Control_c, 0, 64, 76
1, 308718, Control_c, 0, 64, 76
1, 308732, Control_c, 0, 64, 77
1, 308747, Control_c, 0, 64, 78
1, 308762, Control_c, 0, 64, 78
1, 308781, Note_off_c, 0, 66, 39
1, 308806, Control_c, 0, 64, 79
1, 308817, Note_on_c, 0, 63, 36
1, 308827, Note_on_c, 0, 58, 26
1, 308829, Note_on_c, 0, 46, 36
1, 308997, Note_off_c, 0, 39, 36
1, 308999, Note_off_c, 0, 46, 44
1, 309088, Note_off_c, 0, 58, 37
1, 309109, Note_on_c, 0, 66, 37
1, 309111, Note_off_c, 0, 63, 42
1, 309113, Note_on_c, 0, 51, 33
1, 309251, Control_c, 0, 64, 79
1, 309346, Note_off_c, 0, 51, 41
1, 309360, Note_off_c, 0, 70, 58
1, 309379, Note_off_c, 0, 66, 42
1, 309382, Note_on_c, 0, 53, 40
1, 309388, Note_on_c, 0, 63, 44
1, 309393, Note_on_c, 0, 58, 6
1, 309445, Note_off_c, 0, 58, 47
1, 309555, Control_c, 0, 64, 79
1, 309584, Control_c, 0, 64, 78
1, 309589, Note_off_c, 0, 53, 46
1, 309599, Control_c, 0, 64, 78
1, 309614, Control_c, 0, 64, 77
1, 309626, Note_on_c, 0, 54, 42
1, 309629, Control_c, 0, 64, 76
1, 309644, Control_c, 0, 64, 75
1, 309659, Control_c, 0, 64, 74
1, 309674, Control_c, 0, 64, 73
1, 309688, Control_c, 0, 64, 72
1, 309703, Control_c, 0, 64, 72
1, 309718, Control_c, 0, 64, 70
1, 309719, Note_on_c, 0, 70, 57
1, 309731, Note_on_c, 0, 66, 42
1, 309732, Control_c, 0, 64, 66
1, 309747, Control_c, 0, 64, 59
1, 309762, Control_c, 0, 64, 48
1, 309769, Note_off_c, 0, 63, 42
1, 309777, Control_c, 0, 64, 38
1, 309792, Control_c, 0, 64, 34
1, 309821, Control_c, 0, 64, 35
1, 309836, Control_c, 0, 64, 39
1, 309852, Control_c, 0, 64, 47
1, 309867, Control_c, 0, 64, 56
1, 309882, Control_c, 0, 64, 64
1, 309897, Control_c, 0, 64, 73
1, 309911, Control_c, 0, 64, 79
1, 309926, Control_c, 0, 64, 81
1, 309941, Control_c, 0, 64, 81
1, 309956, Control_c, 0, 64, 83
1, 309971, Control_c, 0, 64, 84
1, 309985, Control_c, 0, 64, 85
1, 310000, Control_c, 0, 64, 86
1, 310004, Note_off_c, 0, 54, 41
1, 310015, Note_on_c, 0, 59, 37
1, 310032, Note_on_c, 0, 63, 44
1, 310067, Control_c, 0, 64, 86
1, 310112, Note_off_c, 0, 66, 40
1, 310141, Control_c, 0, 64, 87
1, 310250, Note_on_c, 0, 58, 46
1, 310259, Control_c, 0, 64, 87
1, 310271, Note_on_c, 0, 66, 48
1, 310274, Control_c, 0, 64, 88
1, 310289, Control_c, 0, 64, 88
1, 310303, Control_c, 0, 64, 89
1, 310315, Note_off_c, 0, 63, 41
1, 310318, Note_off_c, 0, 70, 37
1, 310318, Control_c, 0, 64, 89
1, 310440, Note_off_c, 0, 58, 34
1, 310488, Note_off_c, 0, 66, 34
1, 310505, Note_on_c, 0, 54, 40
1, 310515, Note_on_c, 0, 63, 32
1, 310548, Poly_aftertouch_c, 0, 58, 127
1, 310557, Note_off_c, 0, 59, 15
1, 310660, Control_c, 0, 64, 89
1, 310675, Control_c, 0, 64, 88
1, 310690, Control_c, 0, 64, 86
1, 310705, Control_c, 0, 64, 85
1, 310720, Control_c, 0, 64, 84
1, 310733, Note_off_c, 0, 54, 41
1, 310734, Control_c, 0, 64, 83
1, 310737, Poly_aftertouch_c, 0, 58, 0
1, 310749, Control_c, 0, 64, 81
1, 310753, Note_on_c, 0, 70, 65
1, 310763, Note_on_c, 0, 53, 41
1, 310764, Note_on_c, 0, 66, 47
1, 310764, Control_c, 0, 64, 79
1, 310786, Control_c, 0, 64, 76
1, 310801, Control_c, 0, 64, 69
1, 310815, Control_c, 0, 64, 61
1, 310820, Note_off_c, 0, 63, 46
1, 310830, Control_c, 0, 64, 52
1, 310845, Control_c, 0, 64, 42
1, 310860, Control_c, 0, 64, 40
1, 310875, Control_c, 0, 64, 42
1, 310890, Control_c, 0, 64, 48
1, 310905, Control_c, 0, 64, 56
1, 310920, Control_c, 0, 64, 63
1, 310934, Control_c, 0, 64, 69
1, 310949, Control_c, 0, 64, 74
1, 310964, Control_c, 0, 64, 76
1, 310978, Control_c, 0, 64, 78
1, 310993, Control_c, 0, 64, 82
1, 310994, Note_off_c, 0, 66, 59
1, 311008, Control_c, 0, 64, 87
1, 311011, Note_off_c, 0, 53, 58
1, 311012, Note_on_c, 0, 63, 59
1, 311012, Note_on_c, 0, 58, 43
1, 311019, Note_on_c, 0, 54, 48
1, 311023, Control_c, 0, 64, 92
1, 311038, Control_c, 0, 64, 97
1, 311053, Control_c, 0, 64, 100
1, 311054, Note_off_c, 0, 70, 59
1, 311054, Note_off_c, 0, 58, 49
1, 311067, Control_c, 0, 64, 104
1, 311082, Control_c, 0, 64, 106
1, 311197, Note_off_c, 0, 54, 61
1, 311229, Note_off_c, 0, 63, 37
1, 311243, Note_on_c, 0, 72, 77
1, 311247, Note_on_c, 0, 66, 62
1, 311248, Note_on_c, 0, 53, 44
1, 311322, Note_off_c, 0, 72, 62
1, 311409, Note_off_c, 0, 53, 36
1, 311478, Note_on_c, 0, 51, 48
1, 311486, Note_on_c, 0, 63, 49
1, 311491, Note_off_c, 0, 66, 30
1, 311499, Note_on_c, 0, 58, 49
1, 311510, Note_off_c, 0, 51, 66
1, 311519, Note_off_c, 0, 63, 65
1, 311529, Note_off_c, 0, 58, 64
1, 311654, Control_c, 0, 64, 105
1, 311669, Control_c, 0, 64, 103
1, 311698, Control_c, 0, 64, 103
1, 311713, Control_c, 0, 64, 101
1, 311728, Control_c, 0, 64, 99
1, 311743, Control_c, 0, 64, 97
1, 311757, Control_c, 0, 64, 93
1, 311772, Control_c, 0, 64, 88
1, 311787, Control_c, 0, 64, 79
1, 311793, Note_on_c, 0, 74, 72
1, 311795, Note_on_c, 0, 70, 65
1, 311799, Note_on_c, 0, 29, 52
1, 311802, Control_c, 0, 64, 68
1, 311817, Control_c, 0, 64, 58
1, 311832, Control_c, 0, 64, 44
1, 311847, Control_c, 0, 64, 28
1, 311862, Control_c, 0, 64, 24
1, 311877, Control_c, 0, 64, 25
1, 311891, Control_c, 0, 64, 30
1, 311906, Control_c, 0, 64, 37
1, 311921, Control_c, 0, 64, 47
1, 311936, Control_c, 0, 64, 57
1, 311950, Control_c, 0, 64, 67
1, 311965, Control_c, 0, 64, 76
1, 311980, Control_c, 0, 64, 79
1, 312009, Control_c, 0, 64, 80
1, 312024, Control_c, 0, 64, 82
1, 312025, Note_off_c, 0, 29, 38
1, 312039, Control_c, 0, 64, 83
1, 312054, Control_c, 0, 64, 85
1, 312082, Note_on_c, 0, 65, 55
1, 312083, Control_c, 0, 64, 85
1, 312086, Note_on_c, 0, 62, 53
1, 312089, Note_on_c, 0, 41, 44
1, 312113, Control_c, 0, 64, 86
1, 312128, Note_off_c, 0, 74, 60
1, 312130, Note_off_c, 0, 70, 59
1, 312143, Control_c, 0, 64, 86
1, 312225, Note_off_c, 0, 41, 32
1, 312314, Control_c, 0, 64, 86
1, 312329, Control_c, 0, 64, 85
1, 312344, Control_c, 0, 64, 83
1, 312359, Control_c, 0, 64, 82
1, 312374, Control_c, 0, 64, 81
1, 312388, Control_c, 0, 64, 80
1, 312403, Control_c, 0, 64, 78
1, 312418, Control_c, 0, 64, 75
1, 312423, Note_on_c, 0, 74, 61
1, 312432, Control_c, 0, 64, 70
1, 312437, Note_on_c, 0, 46, 45
1, 312438, Note_on_c, 0, 70, 57
1, 312447, Control_c, 0, 64, 64
1, 312462, Control_c, 0, 64, 58
1, 312477, Control_c, 0, 64, 46
1, 312482, Note_off_c, 0, 62, 36
1, 312492, Control_c, 0, 64, 31
1, 312506, Control_c, 0, 64, 19
1, 312521, Control_c, 0, 64, 15
1, 312536, Control_c, 0, 64, 14
1, 312546, Note_off_c, 0, 65, 33
1, 312566, Control_c, 0, 64, 21
1, 312580, Control_c, 0, 64, 31
1, 312595, Control_c, 0, 64, 41
1, 312610, Control_c, 0, 64, 53
1, 312625, Control_c, 0, 64, 64
1, 312640, Control_c, 0, 64, 76
1, 312655, Control_c, 0, 64, 84
1, 312698, Note_off_c, 0, 46, 35
1, 312699, Control_c, 0, 64, 84
1, 312714, Control_c, 0, 64, 85
1, 312729, Control_c, 0, 64, 85
1, 312744, Control_c, 0, 64, 86
1, 312787, Note_on_c, 0, 53, 49
1, 312788, Control_c, 0, 64, 86
1, 312793, Note_on_c, 0, 65, 49
1, 312798, Note_on_c, 0, 62, 51
1, 312816, Control_c, 0, 64, 87
1, 312831, Control_c, 0, 64, 87
1, 312845, Note_off_c, 0, 70, 31
1, 312845, Control_c, 0, 64, 88
1, 312860, Control_c, 0, 64, 88
1, 312875, Control_c, 0, 64, 89
1, 312890, Control_c, 0, 64, 89
1, 312905, Control_c, 0, 64, 90
1, 312920, Control_c, 0, 64, 91
1, 312935, Control_c, 0, 64, 92
1, 312949, Control_c, 0, 64, 92
1, 312964, Control_c, 0, 64, 93
1, 312977, Note_off_c, 0, 53, 34
1, 312994, Control_c, 0, 64, 93
1, 313046, Note_on_c, 0, 58, 50
1, 313060, Note_on_c, 0, 70, 53
1, 313156, Note_off_c, 0, 65, 33
1, 313162, Note_off_c, 0, 62, 41
1, 313290, Note_on_c, 0, 55, 56
1, 313295, Note_on_c, 0, 65, 53
1, 313305, Note_on_c, 0, 62, 25
1, 313333, Note_off_c, 0, 58, 62
1, 313343, Control_c, 0, 64, 94
1, 313349, Note_off_c, 0, 70, 48
1, 313358, Control_c, 0, 64, 94
1, 313372, Control_c, 0, 64, 95
1, 313387, Control_c, 0, 64, 96
1, 313402, Control_c, 0, 64, 96
1, 313432, Control_c, 0, 64, 97
1, 313501, Note_off_c, 0, 55, 35
1, 313506, Control_c, 0, 64, 95
1, 313520, Control_c, 0, 64, 90
1, 313535, Control_c, 0, 64, 79
1, 313550, Control_c, 0, 64, 68
1, 313551, Note_on_c, 0, 70, 52
1, 313559, Note_off_c, 0, 65, 51
1, 313562, Note_on_c, 0, 53, 44
1, 313565, Control_c, 0, 64, 60
1, 313579, Note_off_c, 0, 62, 42
1, 313579, Control_c, 0, 64, 47
1, 313594, Control_c, 0, 64, 42
1, 313609, Control_c, 0, 64, 44
1, 313624, Control_c, 0, 64, 49
1, 313639, Control_c, 0, 64, 55
1, 313653, Control_c, 0, 64, 61
1, 313668, Control_c, 0, 64, 68
1, 313683, Control_c, 0, 64, 72
1, 313698, Control_c, 0, 64, 74
1, 313713, Control_c, 0, 64, 74
1, 313728, Control_c, 0, 64, 76
1, 313743, Control_c, 0, 64, 77
1, 313758, Control_c, 0, 64, 78
1, 313779, Control_c, 0, 64, 78
1, 313781, Note_off_c, 0, 53, 35
1, 313800, Note_on_c, 0, 65, 44
1, 313801, Note_on_c, 0, 50, 37
1, 313820, Note_on_c, 0, 62, 39
1, 313821, Note_off_c, 0, 70, 31
1, 313832, Note_off_c, 0, 74, 43
1, 313844, Note_off_c, 0, 65, 64
1, 313944, Control_c, 0, 64, 78
1, 313973, Control_c, 0, 64, 77
1, 313987, Note_off_c, 0, 50, 39
1, 313988, Control_c, 0, 64, 77
1, 314002, Control_c, 0, 64, 76
1, 314017, Control_c, 0, 64, 74
1, 314032, Control_c, 0, 64, 72
1, 314047, Control_c, 0, 64, 67
1, 314056, Note_on_c, 0, 46, 40
1, 314062, Note_on_c, 0, 74, 47
1, 314062, Control_c, 0, 64, 60
1, 314066, Note_on_c, 0, 70, 45
1, 314077, Control_c, 0, 64, 49
1, 314089, Note_off_c, 0, 62, 39
1, 314092, Control_c, 0, 64, 37
1, 314106, Control_c, 0, 64, 29
1, 314118, Note_off_c, 0, 70, 0
1, 314118, Note_on_c, 0, 70, 7
1, 314121, Control_c, 0, 64, 29
1, 314136, Control_c, 0, 64, 30
1, 314151, Control_c, 0, 64, 33
1, 314166, Control_c, 0, 64, 38
1, 314181, Control_c, 0, 64, 45
1, 314195, Control_c, 0, 64, 53
1, 314210, Control_c, 0, 64, 59
1, 314225, Control_c, 0, 64, 64
1, 314240, Control_c, 0, 64, 67
1, 314255, Control_c, 0, 64, 68
1, 314269, Control_c, 0, 64, 68
1, 314284, Control_c, 0, 64, 69
1, 314299, Control_c, 0, 64, 71
1, 314300, Note_off_c, 0, 46, 43
1, 314314, Control_c, 0, 64, 72
1, 314329, Note_on_c, 0, 67, 47
1, 314329, Control_c, 0, 64, 72
1, 314338, Note_on_c, 0, 43, 34
1, 314341, Note_on_c, 0, 62, 38
1, 314361, Note_off_c, 0, 70, 43
1, 314373, Control_c, 0, 64, 73
1, 314408, Note_off_c, 0, 74, 42
1, 314420, Note_off_c, 0, 67, 54
1, 314467, Note_off_c, 0, 62, 25
1, 314506, Control_c, 0, 64, 72
1, 314512, Note_off_c, 0, 43, 40
1, 314543, Control_c, 0, 64, 72
1, 314558, Control_c, 0, 64, 71
1, 314573, Control_c, 0, 64, 70
1, 314588, Control_c, 0, 64, 68
1, 314602, Control_c, 0, 64, 64
1, 314617, Control_c, 0, 64, 58
1, 314618, Note_on_c, 0, 41, 31
1, 314622, Note_on_c, 0, 74, 49
1, 314632, Note_on_c, 0, 69, 43
1, 314632, Control_c, 0, 64, 43
1, 314648, Control_c, 0, 64, 31
1, 314663, Control_c, 0, 64, 27
1, 314693, Control_c, 0, 64, 29
1, 314707, Control_c, 0, 64, 33
1, 314722, Control_c, 0, 64, 41
1, 314737, Control_c, 0, 64, 50
1, 314752, Control_c, 0, 64, 58
1, 314767, Control_c, 0, 64, 64
1, 314781, Control_c, 0, 64, 69
1, 314791, Note_off_c, 0, 74, 37
1, 314796, Control_c, 0, 64, 70
1, 314840, Control_c, 0, 64, 70
1, 314875, Note_off_c, 0, 69, 33
1, 314888, Note_off_c, 0, 41, 37
1, 314917, Note_on_c, 0, 65, 45
1, 314917, Note_on_c, 0, 29, 35
1, 314931, Note_on_c, 0, 63, 33
1, 315029, Note_off_c, 0, 65, 57
1, 315069, Note_off_c, 0, 63, 45
1, 315108, Control_c, 0, 64, 70
1, 315123, Control_c, 0, 64, 69
1, 315152, Control_c, 0, 64, 69
1, 315167, Control_c, 0, 64, 68
1, 315182, Control_c, 0, 64, 67
1, 315197, Control_c, 0, 64, 66
1, 315212, Control_c, 0, 64, 65
1, 315226, Control_c, 0, 64, 64
1, 315241, Control_c, 0, 64, 62
1, 315245, Note_on_c, 0, 34, 33
1, 315247, Note_off_c, 0, 29, 34
1, 315256, Control_c, 0, 64, 60
1, 315278, Control_c, 0, 64, 58
1, 315293, Control_c, 0, 64, 55
1, 315308, Control_c, 0, 64, 52
1, 315323, Control_c, 0, 64, 47
1, 315338, Control_c, 0, 64, 40
1, 315338, Note_on_c, 0, 74, 49
1, 315341, Note_on_c, 0, 69, 36
1, 315352, Control_c, 0, 64, 26
1, 315367, Control_c, 0, 64, 0
1, 315472, Control_c, 0, 64, 28
1, 315487, Control_c, 0, 64, 42
1, 315501, Control_c, 0, 64, 53
1, 315516, Control_c, 0, 64, 62
1, 315531, Control_c, 0, 64, 67
1, 315546, Control_c, 0, 64, 70
1, 315561, Control_c, 0, 64, 70
1, 315575, Control_c, 0, 64, 71
1, 315590, Control_c, 0, 64, 71
1, 315605, Control_c, 0, 64, 72
1, 315635, Control_c, 0, 64, 72
1, 315648, Note_off_c, 0, 34, 39
1, 315689, Note_off_c, 0, 74, 30
1, 315708, Note_on_c, 0, 65, 39
1, 315713, Note_off_c, 0, 69, 32
1, 315716, Note_on_c, 0, 62, 32
1, 315726, Note_on_c, 0, 41, 25
1, 315866, Note_off_c, 0, 41, 35
1, 315876, Note_off_c, 0, 62, 39
1, 315945, Control_c, 0, 64, 72
1, 315960, Control_c, 0, 64, 71
1, 315974, Control_c, 0, 64, 70
1, 315989, Control_c, 0, 64, 69
1, 316004, Control_c, 0, 64, 69
1, 316013, Note_off_c, 0, 65, 32
1, 316026, Control_c, 0, 64, 68
1, 316036, Note_on_c, 0, 46, 38
1, 316036, Note_on_c, 0, 70, 46
1, 316041, Note_on_c, 0, 74, 50
1, 316041, Control_c, 0, 64, 66
1, 316056, Control_c, 0, 64, 64
1, 316071, Control_c, 0, 64, 60
1, 316086, Control_c, 0, 64, 50
1, 316101, Control_c, 0, 64, 34
1, 316116, Control_c, 0, 64, 8
1, 316130, Control_c, 0, 64, 0
1, 316189, Control_c, 0, 64, 24
1, 316204, Control_c, 0, 64, 35
1, 316219, Control_c, 0, 64, 45
1, 316234, Control_c, 0, 64, 55
1, 316250, Control_c, 0, 64, 63
1, 316265, Control_c, 0, 64, 66
1, 316279, Control_c, 0, 64, 68
1, 316294, Control_c, 0, 64, 68
1, 316309, Control_c, 0, 64, 69
1, 316322, Note_off_c, 0, 46, 44
1, 316324, Control_c, 0, 64, 70
1, 316339, Control_c, 0, 64, 71
1, 316353, Control_c, 0, 64, 72
1, 316368, Control_c, 0, 64, 73
1, 316375, Note_on_c, 0, 65, 37
1, 316375, Note_off_c, 0, 70, 31
1, 316383, Control_c, 0, 64, 74
1, 316390, Note_on_c, 0, 53, 35
1, 316397, Control_c, 0, 64, 75
1, 316399, Note_on_c, 0, 62, 27
1, 316412, Control_c, 0, 64, 76
1, 316427, Control_c, 0, 64, 77
1, 316442, Control_c, 0, 64, 78
1, 316457, Control_c, 0, 64, 78
1, 316471, Control_c, 0, 64, 79
1, 316501, Control_c, 0, 64, 79
1, 316616, Note_off_c, 0, 53, 41
1, 316641, Note_on_c, 0, 58, 53
1, 316670, Note_on_c, 0, 70, 41
1, 316737, Note_off_c, 0, 62, 39
1, 316744, Note_off_c, 0, 65, 36
1, 316886, Note_off_c, 0, 70, 37
1, 316908, Note_on_c, 0, 55, 49
1, 316914, Note_on_c, 0, 65, 40
1, 316933, Note_off_c, 0, 58, 52
1, 316943, Note_on_c, 0, 62, 14
1, 317087, Control_c, 0, 64, 79
1, 317098, Note_off_c, 0, 55, 37
1, 317117, Control_c, 0, 64, 78
1, 317132, Control_c, 0, 64, 78
1, 317146, Control_c, 0, 64, 76
1, 317161, Control_c, 0, 64, 73
1, 317170, Note_on_c, 0, 53, 42
1, 317176, Control_c, 0, 64, 67
1, 317180, Note_on_c, 0, 70, 40
1, 317183, Note_off_c, 0, 62, 38
1, 317191, Control_c, 0, 64, 59
1, 317197, Note_off_c, 0, 65, 45
1, 317206, Control_c, 0, 64, 47
1, 317220, Control_c, 0, 64, 40
1, 317250, Control_c, 0, 64, 42
1, 317265, Control_c, 0, 64, 46
1, 317280, Control_c, 0, 64, 52
1, 317294, Control_c, 0, 64, 60
1, 317309, Control_c, 0, 64, 64
1, 317324, Control_c, 0, 64, 68
1, 317338, Control_c, 0, 64, 69
1, 317353, Control_c, 0, 64, 70
1, 317368, Control_c, 0, 64, 71
1, 317383, Control_c, 0, 64, 72
1, 317398, Control_c, 0, 64, 73
1, 317412, Control_c, 0, 64, 74
1, 317423, Note_off_c, 0, 53, 33
1, 317427, Control_c, 0, 64, 74
1, 317428, Note_on_c, 0, 65, 38
1, 317431, Note_on_c, 0, 50, 31
1, 317435, Note_off_c, 0, 70, 38
1, 317447, Note_on_c, 0, 62, 28
1, 317451, Note_off_c, 0, 74, 34
1, 317457, Control_c, 0, 64, 75
1, 317467, Note_off_c, 0, 65, 51
1, 317642, Note_off_c, 0, 50, 41
1, 317642, Control_c, 0, 64, 74
1, 317657, Control_c, 0, 64, 73
1, 317672, Control_c, 0, 64, 71
1, 317683, Note_on_c, 0, 46, 43
1, 317687, Control_c, 0, 64, 66
1, 317697, Note_on_c, 0, 70, 43
1, 317701, Note_on_c, 0, 74, 48
1, 317701, Control_c, 0, 64, 60
1, 317716, Control_c, 0, 64, 49
1, 317720, Note_off_c, 0, 62, 38
1, 317731, Control_c, 0, 64, 37
1, 317746, Control_c, 0, 64, 27
1, 317760, Note_off_c, 0, 70, 0
1, 317760, Note_on_c, 0, 70, 9
1, 317761, Control_c, 0, 64, 26
1, 317791, Control_c, 0, 64, 27
1, 317806, Control_c, 0, 64, 30
1, 317820, Control_c, 0, 64, 36
1, 317835, Control_c, 0, 64, 43
1, 317850, Control_c, 0, 64, 50
1, 317865, Control_c, 0, 64, 57
1, 317880, Control_c, 0, 64, 62
1, 317895, Control_c, 0, 64, 65
1, 317910, Control_c, 0, 64, 67
1, 317925, Control_c, 0, 64, 69
1, 317926, Note_off_c, 0, 46, 32
1, 317940, Control_c, 0, 64, 69
1, 317955, Control_c, 0, 64, 70
1, 317969, Control_c, 0, 64, 70
1, 317980, Note_on_c, 0, 62, 34
1, 317981, Note_off_c, 0, 70, 43
1, 317982, Note_on_c, 0, 67, 37
1, 317984, Control_c, 0, 64, 71
1, 317988, Note_on_c, 0, 43, 30
1, 317999, Control_c, 0, 64, 71
1, 318014, Control_c, 0, 64, 72
1, 318043, Control_c, 0, 64, 72
1, 318062, Note_off_c, 0, 74, 44
1, 318085, Note_off_c, 0, 67, 50
1, 318166, Note_off_c, 0, 43, 41
1, 318201, Note_off_c, 0, 62, 40
1, 318207, Control_c, 0, 64, 72
1, 318222, Control_c, 0, 64, 70
1, 318236, Control_c, 0, 64, 68
1, 318251, Control_c, 0, 64, 64
1, 318255, Note_on_c, 0, 41, 38
1, 318271, Note_on_c, 0, 74, 40
1, 318273, Note_on_c, 0, 69, 35
1, 318274, Control_c, 0, 64, 57
1, 318289, Control_c, 0, 64, 46
1, 318304, Control_c, 0, 64, 33
1, 318318, Control_c, 0, 64, 23
1, 318333, Control_c, 0, 64, 22
1, 318363, Control_c, 0, 64, 25
1, 318377, Control_c, 0, 64, 31
1, 318392, Control_c, 0, 64, 38
1, 318407, Control_c, 0, 64, 47
1, 318422, Control_c, 0, 64, 55
1, 318437, Control_c, 0, 64, 62
1, 318451, Control_c, 0, 64, 68
1, 318466, Control_c, 0, 64, 70
1, 318472, Note_off_c, 0, 74, 43
1, 318490, Note_off_c, 0, 41, 32
1, 318510, Control_c, 0, 64, 71
1, 318581, Note_off_c, 0, 69, 42
1, 318590, Note_on_c, 0, 63, 32
1, 318591, Note_on_c, 0, 65, 37
1, 318593, Note_on_c, 0, 29, 29
1, 318733, Note_off_c, 0, 63, 46
1, 318767, Note_off_c, 0, 65, 44
1, 318807, Control_c, 0, 64, 70
1, 318822, Control_c, 0, 64, 70
1, 318837, Control_c, 0, 64, 69
1, 318867, Control_c, 0, 64, 69
1, 318882, Control_c, 0, 64, 68
1, 318897, Control_c, 0, 64, 68
1, 318909, Note_on_c, 0, 34, 37
1, 318912, Control_c, 0, 64, 67
1, 318927, Control_c, 0, 64, 66
1, 318941, Control_c, 0, 64, 66
1, 318942, Note_off_c, 0, 29, 30
1, 318956, Control_c, 0, 64, 65
1, 318971, Control_c, 0, 64, 64
1, 318985, Control_c, 0, 64, 62
1, 319000, Control_c, 0, 64, 61
1, 319002, Note_on_c, 0, 74, 42
1, 319015, Note_on_c, 0, 69, 34
1, 319022, Control_c, 0, 64, 59
1, 319037, Control_c, 0, 64, 56
1, 319052, Control_c, 0, 64, 50
1, 319067, Control_c, 0, 64, 42
1, 319082, Control_c, 0, 64, 33
1, 319096, Control_c, 0, 64, 25
1, 319111, Control_c, 0, 64, 22
1, 319141, Control_c, 0, 64, 22
1, 319156, Control_c, 0, 64, 26
1, 319171, Control_c, 0, 64, 32
1, 319186, Control_c, 0, 64, 40
1, 319200, Control_c, 0, 64, 49
1, 319215, Control_c, 0, 64, 58
1, 319230, Control_c, 0, 64, 65
1, 319245, Control_c, 0, 64, 70
1, 319260, Control_c, 0, 64, 71
1, 319274, Control_c, 0, 64, 72
1, 319298, Note_off_c, 0, 34, 36
1, 319323, Note_off_c, 0, 74, 36
1, 319374, Note_off_c, 0, 69, 38
1, 319378, Control_c, 0, 64, 72
1, 319389, Note_on_c, 0, 41, 30
1, 319392, Note_on_c, 0, 65, 41
1, 319409, Note_on_c, 0, 62, 30
1, 319544, Note_off_c, 0, 41, 38
1, 319585, Control_c, 0, 64, 72
1, 319600, Control_c, 0, 64, 71
1, 319615, Control_c, 0, 64, 71
1, 319630, Control_c, 0, 64, 70
1, 319645, Control_c, 0, 64, 70
1, 319660, Note_off_c, 0, 62, 32
1, 319660, Control_c, 0, 64, 68
1, 319675, Control_c, 0, 64, 66
1, 319685, Note_on_c, 0, 46, 39
1, 319686, Note_on_c, 0, 70, 41
1, 319686, Note_on_c, 0, 74, 47
1, 319689, Control_c, 0, 64, 61
1, 319704, Control_c, 0, 64, 53
1, 319719, Control_c, 0, 64, 41
1, 319733, Control_c, 0, 64, 30
1, 319734, Note_off_c, 0, 65, 30
1, 319748, Control_c, 0, 64, 27
1, 319758, Note_off_c, 0, 70, 0
1, 319758, Note_on_c, 0, 70, 8
1, 319770, Control_c, 0, 64, 28
1, 319785, Control_c, 0, 64, 30
1, 319800, Control_c, 0, 64, 35
1, 319815, Control_c, 0, 64, 42
1, 319830, Control_c, 0, 64, 50
1, 319845, Control_c, 0, 64, 56
1, 319860, Control_c, 0, 64, 61
1, 319874, Control_c, 0, 64, 64
1, 319889, Control_c, 0, 64, 66
1, 319904, Control_c, 0, 64, 66
1, 319919, Control_c, 0, 64, 67
1, 319934, Control_c, 0, 64, 67
1, 319940, Note_off_c, 0, 46, 38
1, 319948, Control_c, 0, 64, 68
1, 319963, Control_c, 0, 64, 69
1, 319978, Control_c, 0, 64, 69
1, 319979, Note_on_c, 0, 53, 38
1, 319980, Note_on_c, 0, 62, 35
1, 319981, Note_off_c, 0, 70, 40
1, 319985, Poly_aftertouch_c, 0, 65, 127
1, 319989, Note_on_c, 0, 65, 3
1, 319993, Control_c, 0, 64, 70
1, 319997, Note_off_c, 0, 74, 41
1, 320022, Control_c, 0, 64, 71
1, 320037, Control_c, 0, 64, 71
1, 320185, Control_c, 0, 64, 71
1, 320200, Control_c, 0, 64, 70
1, 320214, Control_c, 0, 64, 69
1, 320229, Control_c, 0, 64, 67
1, 320245, Control_c, 0, 64, 64
1, 320260, Control_c, 0, 64, 56
1, 320268, Note_off_c, 0, 62, 41
1, 320269, Note_on_c, 0, 74, 39
1, 320273, Note_on_c, 0, 54, 44
1, 320273, Note_on_c, 0, 70, 37
1, 320275, Control_c, 0, 64, 45
1, 320290, Control_c, 0, 64, 34
1, 320295, Note_off_c, 0, 53, 44
1, 320305, Control_c, 0, 64, 30
1, 320334, Control_c, 0, 64, 32
1, 320349, Control_c, 0, 64, 36
1, 320363, Control_c, 0, 64, 43
1, 320378, Control_c, 0, 64, 50
1, 320393, Control_c, 0, 64, 58
1, 320397, Note_off_c, 0, 74, 44
1, 320408, Control_c, 0, 64, 63
1, 320423, Control_c, 0, 64, 66
1, 320438, Control_c, 0, 64, 67
1, 320474, Note_off_c, 0, 54, 41
1, 320526, Note_off_c, 0, 65, 39
1, 320581, Note_on_c, 0, 62, 36
1, 320588, Note_on_c, 0, 53, 30
1, 320621, Note_off_c, 0, 70, 41
1, 320727, Control_c, 0, 64, 67
1, 320757, Control_c, 0, 64, 66
1, 320764, Note_off_c, 0, 62, 42
1, 320801, Control_c, 0, 64, 66
1, 320845, Control_c, 0, 64, 65
1, 320846, Note_off_c, 0, 53, 36
1, 320860, Control_c, 0, 64, 65
1, 320875, Control_c, 0, 64, 64
1, 320889, Control_c, 0, 64, 64
1, 320904, Control_c, 0, 64, 63
1, 320919, Control_c, 0, 64, 62
1, 320934, Control_c, 0, 64, 61
1, 320949, Control_c, 0, 64, 60
1, 320963, Control_c, 0, 64, 58
1, 320974, Note_on_c, 0, 70, 42
1, 320978, Control_c, 0, 64, 55
1, 320985, Note_on_c, 0, 66, 39
1, 320986, Note_on_c, 0, 51, 35
1, 320993, Control_c, 0, 64, 51
1, 321008, Control_c, 0, 64, 44
1, 321023, Control_c, 0, 64, 33
1, 321030, Note_off_c, 0, 70, 0
1, 321030, Note_on_c, 0, 70, 8
1, 321039, Control_c, 0, 64, 25
1, 321054, Control_c, 0, 64, 19
1, 321068, Control_c, 0, 64, 16
1, 321083, Control_c, 0, 64, 16
1, 321113, Control_c, 0, 64, 16
1, 321128, Control_c, 0, 64, 22
1, 321142, Control_c, 0, 64, 29
1, 321157, Control_c, 0, 64, 36
1, 321167, Note_off_c, 0, 66, 41
1, 321172, Control_c, 0, 64, 44
1, 321186, Control_c, 0, 64, 53
1, 321201, Control_c, 0, 64, 60
1, 321216, Control_c, 0, 64, 64
1, 321231, Control_c, 0, 64, 66
1, 321246, Control_c, 0, 64, 67
1, 321268, Control_c, 0, 64, 67
1, 321298, Control_c, 0, 64, 68
1, 321313, Control_c, 0, 64, 68
1, 321327, Note_off_c, 0, 51, 44
1, 321327, Control_c, 0, 64, 69
1, 321342, Control_c, 0, 64, 69
1, 321366, Note_on_c, 0, 65, 50
1, 321370, Note_off_c, 0, 70, 44
1, 321372, Control_c, 0, 64, 70
1, 321380, Note_on_c, 0, 58, 37
1, 321387, Note_on_c, 0, 50, 33
1, 321462, Note_off_c, 0, 50, 60
1, 321483, Note_off_c, 0, 65, 63
1, 321580, Control_c, 0, 64, 69
1, 321609, Control_c, 0, 64, 68
1, 321624, Control_c, 0, 64, 68
1, 321639, Control_c, 0, 64, 67
1, 321654, Control_c, 0, 64, 65
1, 321666, Note_on_c, 0, 49, 35
1, 321668, Control_c, 0, 64, 62
1, 321669, Note_on_c, 0, 64, 56
1, 321681, Note_off_c, 0, 58, 37
1, 321683, Control_c, 0, 64, 56
1, 321685, Note_on_c, 0, 55, 35
1, 321698, Control_c, 0, 64, 44
1, 321712, Control_c, 0, 64, 33
1, 321727, Control_c, 0, 64, 30
1, 321742, Control_c, 0, 64, 31
1, 321757, Control_c, 0, 64, 34
1, 321772, Control_c, 0, 64, 40
1, 321786, Control_c, 0, 64, 48
1, 321802, Control_c, 0, 64, 58
1, 321817, Control_c, 0, 64, 64
1, 321833, Control_c, 0, 64, 69
1, 321848, Control_c, 0, 64, 72
1, 321863, Note_off_c, 0, 55, 43
1, 321927, Note_on_c, 0, 63, 65
1, 321946, Note_on_c, 0, 48, 42
1, 321962, Note_off_c, 0, 49, 41
1, 321966, Control_c, 0, 64, 72
1, 321967, Note_on_c, 0, 57, 31
1, 321969, Note_off_c, 0, 64, 61
1, 322001, Note_off_c, 0, 57, 55
1, 322114, Note_off_c, 0, 48, 34
1, 322137, Control_c, 0, 64, 72
1, 322151, Control_c, 0, 64, 71
1, 322166, Control_c, 0, 64, 70
1, 322181, Control_c, 0, 64, 70
1, 322196, Control_c, 0, 64, 69
1, 322211, Control_c, 0, 64, 67
1, 322225, Note_on_c, 0, 62, 58
1, 322225, Control_c, 0, 64, 65
1, 322226, Note_on_c, 0, 58, 44
1, 322230, Note_on_c, 0, 46, 42
1, 322240, Control_c, 0, 64, 62
1, 322255, Control_c, 0, 64, 55
1, 322265, Note_off_c, 0, 63, 52
1, 322270, Control_c, 0, 64, 44
1, 322285, Control_c, 0, 64, 30
1, 322299, Control_c, 0, 64, 22
1, 322314, Control_c, 0, 64, 20
1, 322343, Control_c, 0, 64, 22
1, 322358, Control_c, 0, 64, 28
1, 322373, Control_c, 0, 64, 39
1, 322377, Note_off_c, 0, 58, 34
1, 322388, Control_c, 0, 64, 50
1, 322403, Control_c, 0, 64, 59
1, 322417, Control_c, 0, 64, 65
1, 322432, Control_c, 0, 64, 69
1, 322477, Control_c, 0, 64, 68
1, 322492, Control_c, 0, 64, 66
1, 322507, Control_c, 0, 64, 63
1, 322522, Control_c, 0, 64, 58
1, 322536, Control_c, 0, 64, 48
1, 322547, Note_off_c, 0, 46, 43
1, 322551, Control_c, 0, 64, 37
1, 322555, Note_on_c, 0, 67, 45
1, 322557, Note_on_c, 0, 63, 49
1, 322559, Note_on_c, 0, 39, 36
1, 322566, Control_c, 0, 64, 29
1, 322573, Note_off_c, 0, 62, 38
1, 322581, Control_c, 0, 64, 28
1, 322610, Control_c, 0, 64, 28
1, 322625, Control_c, 0, 64, 32
1, 322641, Control_c, 0, 64, 38
1, 322656, Control_c, 0, 64, 49
1, 322671, Control_c, 0, 64, 58
1, 322685, Control_c, 0, 64, 65
1, 322700, Control_c, 0, 64, 70
1, 322715, Control_c, 0, 64, 72
1, 322730, Note_off_c, 0, 63, 64
1, 322733, Note_off_c, 0, 67, 57
1, 322811, Control_c, 0, 64, 71
1, 322855, Control_c, 0, 64, 71
1, 322885, Control_c, 0, 64, 70
1, 322891, Note_off_c, 0, 39, 36
1, 322900, Control_c, 0, 64, 70
1, 322915, Control_c, 0, 64, 69
1, 322930, Control_c, 0, 64, 68
1, 322945, Control_c, 0, 64, 67
1, 322959, Control_c, 0, 64, 66
1, 322974, Control_c, 0, 64, 64
1, 322989, Control_c, 0, 64, 61
1, 323004, Control_c, 0, 64, 58
1, 323006, Note_on_c, 0, 62, 37
1, 323007, Note_on_c, 0, 34, 36
1, 323007, Note_on_c, 0, 65, 26
1, 323019, Control_c, 0, 64, 54
1, 323033, Control_c, 0, 64, 48
1, 323048, Control_c, 0, 64, 45
1, 323058, Note_off_c, 0, 62, 0
1, 323058, Note_on_c, 0, 62, 7
1, 323063, Control_c, 0, 64, 40
1, 323070, Note_off_c, 0, 65, 0
1, 323070, Note_on_c, 0, 65, 3
1, 323078, Control_c, 0, 64, 34
1, 323092, Control_c, 0, 64, 24
1, 323107, Control_c, 0, 64, 0
1, 323240, Control_c, 0, 64, 20
1, 323255, Control_c, 0, 64, 34
1, 323270, Control_c, 0, 64, 45
1, 323285, Control_c, 0, 64, 55
1, 323300, Control_c, 0, 64, 62
1, 323314, Control_c, 0, 64, 65
1, 323329, Control_c, 0, 64, 65
1, 323344, Control_c, 0, 64, 66
1, 323374, Control_c, 0, 64, 66
1, 323389, Control_c, 0, 64, 67
1, 323404, Control_c, 0, 64, 67
1, 323422, Note_on_c, 0, 58, 40
1, 323434, Control_c, 0, 64, 68
1, 323438, Note_on_c, 0, 53, 39
1, 323449, Control_c, 0, 64, 68
1, 323463, Control_c, 0, 64, 69
1, 323478, Control_c, 0, 64, 69
1, 323515, Control_c, 0, 64, 70
1, 323538, Note_off_c, 0, 62, 40
1, 323565, Note_off_c, 0, 65, 44
1, 323575, Control_c, 0, 64, 70
1, 323712, Note_on_c, 0, 65, 41
1, 323724, Note_on_c, 0, 62, 40
1, 323765, Note_off_c, 0, 53, 33
1, 323973, Note_on_c, 0, 61, 46
1, 323987, Note_on_c, 0, 53, 34
1, 324006, Note_off_c, 0, 62, 31
1, 324057, Note_off_c, 0, 65, 36
1, 324066, Note_off_c, 0, 58, 16
1, 324196, Control_c, 0, 64, 70
1, 324211, Control_c, 0, 64, 69
1, 324212, Note_off_c, 0, 61, 39
1, 324227, Control_c, 0, 64, 69
1, 324241, Control_c, 0, 64, 68
1, 324260, Note_off_c, 0, 53, 57
1, 324261, Note_on_c, 0, 65, 53
1, 324262, Note_on_c, 0, 62, 42
1, 324264, Control_c, 0, 64, 67
1, 324279, Control_c, 0, 64, 64
1, 324293, Control_c, 0, 64, 59
1, 324308, Control_c, 0, 64, 49
1, 324323, Control_c, 0, 64, 35
1, 324337, Control_c, 0, 64, 25
1, 324367, Control_c, 0, 64, 28
1, 324382, Control_c, 0, 64, 33
1, 324397, Control_c, 0, 64, 39
1, 324411, Control_c, 0, 64, 46
1, 324426, Control_c, 0, 64, 53
1, 324441, Control_c, 0, 64, 60
1, 324456, Control_c, 0, 64, 63
1, 324471, Control_c, 0, 64, 65
1, 324501, Control_c, 0, 64, 66
1, 324514, Note_on_c, 0, 58, 54
1, 324521, Note_off_c, 0, 65, 63
1, 324530, Control_c, 0, 64, 66
1, 324531, Note_on_c, 0, 53, 34
1, 324545, Control_c, 0, 64, 67
1, 324554, Note_off_c, 0, 62, 59
1, 324575, Control_c, 0, 64, 67
1, 324687, Note_off_c, 0, 53, 35
1, 324723, Control_c, 0, 64, 67
1, 324752, Control_c, 0, 64, 66
1, 324767, Control_c, 0, 64, 65
1, 324779, Note_on_c, 0, 66, 50
1, 324782, Control_c, 0, 64, 65
1, 324798, Control_c, 0, 64, 64
1, 324802, Note_on_c, 0, 62, 44
1, 324812, Control_c, 0, 64, 62
1, 324827, Control_c, 0, 64, 58
1, 324842, Control_c, 0, 64, 50
1, 324856, Control_c, 0, 64, 39
1, 324871, Control_c, 0, 64, 33
1, 324875, Note_off_c, 0, 58, 37
1, 324886, Control_c, 0, 64, 32
1, 324901, Control_c, 0, 64, 33
1, 324916, Control_c, 0, 64, 35
1, 324930, Control_c, 0, 64, 39
1, 324945, Control_c, 0, 64, 46
1, 324960, Control_c, 0, 64, 53
1, 324975, Control_c, 0, 64, 59
1, 324990, Control_c, 0, 64, 63
1, 325012, Control_c, 0, 64, 65
1, 325027, Control_c, 0, 64, 66
1, 325043, Control_c, 0, 64, 66
1, 325085, Note_on_c, 0, 54, 47
1, 325090, Note_on_c, 0, 61, 42
1, 325145, Note_off_c, 0, 62, 30
1, 325147, Note_off_c, 0, 66, 50
1, 325206, Control_c, 0, 64, 66
1, 325235, Control_c, 0, 64, 65
1, 325279, Control_c, 0, 64, 65
1, 325294, Control_c, 0, 64, 64
1, 325324, Control_c, 0, 64, 64
1, 325339, Control_c, 0, 64, 63
1, 325340, Note_off_c, 0, 61, 43
1, 325353, Control_c, 0, 64, 61
1, 325368, Control_c, 0, 64, 60
1, 325383, Control_c, 0, 64, 58
1, 325392, Note_on_c, 0, 62, 35
1, 325398, Control_c, 0, 64, 56
1, 325403, Note_on_c, 0, 66, 44
1, 325405, Note_on_c, 0, 35, 38
1, 325413, Control_c, 0, 64, 55
1, 325428, Control_c, 0, 64, 53
1, 325443, Control_c, 0, 64, 52
1, 325458, Control_c, 0, 64, 51
1, 325473, Control_c, 0, 64, 49
1, 325474, Note_off_c, 0, 66, 0
1, 325474, Note_on_c, 0, 66, 6
1, 325487, Control_c, 0, 64, 47
1, 325492, Note_off_c, 0, 54, 39
1, 325502, Control_c, 0, 64, 43
1, 325517, Control_c, 0, 64, 37
1, 325532, Control_c, 0, 64, 30
1, 325542, Note_off_c, 0, 34, 35
1, 325546, Control_c, 0, 64, 24
1, 325560, Control_c, 0, 64, 20
1, 325575, Control_c, 0, 64, 20
1, 325605, Control_c, 0, 64, 20
1, 325620, Control_c, 0, 64, 23
1, 325634, Control_c, 0, 64, 27
1, 325649, Control_c, 0, 64, 32
1, 325664, Control_c, 0, 64, 36
1, 325678, Control_c, 0, 64, 39
1, 325693, Control_c, 0, 64, 44
1, 325708, Control_c, 0, 64, 49
1, 325723, Control_c, 0, 64, 53
1, 325731, Note_on_c, 0, 54, 39
1, 325734, Note_on_c, 0, 59, 43
1, 325738, Control_c, 0, 64, 56
1, 325760, Control_c, 0, 64, 58
1, 325766, Note_off_c, 0, 62, 37
1, 325775, Control_c, 0, 64, 59
1, 325790, Control_c, 0, 64, 60
1, 325805, Control_c, 0, 64, 61
1, 325820, Control_c, 0, 64, 62
1, 325823, Note_off_c, 0, 66, 35
1, 325836, Control_c, 0, 64, 63
1, 325851, Control_c, 0, 64, 64
1, 325865, Control_c, 0, 64, 64
1, 325954, Control_c, 0, 64, 64
1, 325983, Control_c, 0, 64, 63
1, 325998, Control_c, 0, 64, 63
1, 326028, Control_c, 0, 64, 62
1, 326043, Control_c, 0, 64, 62
1, 326057, Control_c, 0, 64, 61
1, 326072, Control_c, 0, 64, 60
1, 326087, Control_c, 0, 64, 59
1, 326102, Control_c, 0, 64, 58
1, 326116, Control_c, 0, 64, 57
1, 326131, Note_on_c, 0, 63, 37
1, 326131, Control_c, 0, 64, 55
1, 326132, Note_on_c, 0, 66, 36
1, 326146, Control_c, 0, 64, 53
1, 326161, Control_c, 0, 64, 50
1, 326176, Control_c, 0, 64, 46
1, 326191, Control_c, 0, 64, 40
1, 326206, Control_c, 0, 64, 32
1, 326212, Note_off_c, 0, 59, 32
1, 326221, Control_c, 0, 64, 23
1, 326236, Control_c, 0, 64, 14
1, 326242, Note_off_c, 0, 54, 28
1, 326250, Control_c, 0, 64, 0
1, 326294, Control_c, 0, 64, 10
1, 326308, Control_c, 0, 64, 17
1, 326323, Control_c, 0, 64, 27
1, 326338, Control_c, 0, 64, 36
1, 326353, Control_c, 0, 64, 44
1, 326368, Control_c, 0, 64, 52
1, 326382, Control_c, 0, 64, 60
1, 326397, Control_c, 0, 64, 65
1, 326412, Control_c, 0, 64, 68
1, 326427, Control_c, 0, 64, 69
1, 326456, Control_c, 0, 64, 70
1, 326471, Control_c, 0, 64, 70
1, 326508, Control_c, 0, 64, 71
1, 326614, Note_on_c, 0, 62, 41
1, 326631, Note_on_c, 0, 54, 25
1, 326779, Note_off_c, 0, 66, 41
1, 326807, Note_off_c, 0, 62, 61
1, 326823, Note_off_c, 0, 63, 46
1, 326850, Control_c, 0, 64, 70
1, 326894, Control_c, 0, 64, 70
1, 326924, Control_c, 0, 64, 69
1, 326939, Control_c, 0, 64, 69
1, 326954, Control_c, 0, 64, 68
1, 326969, Control_c, 0, 64, 68
1, 326984, Control_c, 0, 64, 67
1, 326999, Control_c, 0, 64, 67
1, 327013, Note_on_c, 0, 63, 36
1, 327013, Control_c, 0, 64, 66
1, 327020, Note_on_c, 0, 66, 33
1, 327028, Control_c, 0, 64, 65
1, 327043, Control_c, 0, 64, 64
1, 327057, Control_c, 0, 64, 63
1, 327072, Control_c, 0, 64, 62
1, 327087, Control_c, 0, 64, 60
1, 327088, Note_off_c, 0, 66, 0
1, 327088, Note_on_c, 0, 66, 3
1, 327091, Note_off_c, 0, 54, 35
1, 327102, Control_c, 0, 64, 56
1, 327117, Control_c, 0, 64, 49
1, 327131, Control_c, 0, 64, 40
1, 327146, Control_c, 0, 64, 35
1, 327176, Control_c, 0, 64, 37
1, 327191, Control_c, 0, 64, 43
1, 327205, Control_c, 0, 64, 51
1, 327220, Control_c, 0, 64, 59
1, 327235, Control_c, 0, 64, 66
1, 327257, Control_c, 0, 64, 72
1, 327272, Control_c, 0, 64, 73
1, 327428, Note_on_c, 0, 59, 36
1, 327445, Note_on_c, 0, 54, 27
1, 327448, Note_on_c, 0, 42, 34
1, 327466, Control_c, 0, 64, 73
1, 327523, Note_off_c, 0, 63, 36
1, 327549, Note_off_c, 0, 66, 39
1, 327551, Note_off_c, 0, 35, 5
1, 327765, Note_off_c, 0, 42, 38
1, 327776, Note_on_c, 0, 47, 40
1, 327781, Note_on_c, 0, 66, 36
1, 327785, Note_on_c, 0, 63, 32
1, 327810, Note_off_c, 0, 54, 41
1, 327856, Note_off_c, 0, 66, 0
1, 327856, Note_on_c, 0, 66, 3
1, 327950, Note_off_c, 0, 59, 19
1, 328042, Note_on_c, 0, 59, 22
1, 328046, Note_off_c, 0, 47, 41
1, 328058, Note_on_c, 0, 54, 37
1, 328060, Note_on_c, 0, 49, 44
1, 328179, Note_off_c, 0, 66, 35
1, 328197, Note_off_c, 0, 63, 38
1, 328259, Control_c, 0, 64, 72
1, 328274, Control_c, 0, 64, 72
1, 328289, Control_c, 0, 64, 71
1, 328303, Control_c, 0, 64, 69
1, 328310, Note_off_c, 0, 54, 42
1, 328318, Control_c, 0, 64, 64
1, 328331, Note_on_c, 0, 51, 43
1, 328333, Control_c, 0, 64, 57
1, 328348, Control_c, 0, 64, 46
1, 328351, Note_on_c, 0, 63, 38
1, 328361, Note_on_c, 0, 66, 38
1, 328363, Control_c, 0, 64, 36
1, 328377, Control_c, 0, 64, 33
1, 328380, Note_off_c, 0, 49, 42
1, 328387, Note_off_c, 0, 59, 38
1, 328392, Control_c, 0, 64, 34
1, 328407, Control_c, 0, 64, 36
1, 328422, Control_c, 0, 64, 40
1, 328437, Control_c, 0, 64, 47
1, 328451, Control_c, 0, 64, 56
1, 328466, Control_c, 0, 64, 63
1, 328481, Control_c, 0, 64, 70
1, 328495, Control_c, 0, 64, 72
1, 328541, Control_c, 0, 64, 72
1, 328564, Note_off_c, 0, 51, 34
1, 328571, Control_c, 0, 64, 73
1, 328597, Note_on_c, 0, 56, 50
1, 328599, Note_on_c, 0, 59, 46
1, 328615, Control_c, 0, 64, 73
1, 328674, Control_c, 0, 64, 74
1, 328678, Note_off_c, 0, 66, 38
1, 328722, Note_off_c, 0, 63, 42
1, 328771, Control_c, 0, 64, 73
1, 328785, Control_c, 0, 64, 73
1, 328800, Control_c, 0, 64, 72
1, 328814, Note_off_c, 0, 56, 37
1, 328815, Control_c, 0, 64, 69
1, 328829, Control_c, 0, 64, 63
1, 328844, Control_c, 0, 64, 54
1, 328859, Control_c, 0, 64, 41
1, 328869, Note_on_c, 0, 66, 52
1, 328872, Note_on_c, 0, 54, 49
1, 328874, Control_c, 0, 64, 33
1, 328889, Note_off_c, 0, 59, 36
1, 328889, Note_on_c, 0, 63, 21
1, 328889, Control_c, 0, 64, 33
1, 328904, Control_c, 0, 64, 35
1, 328919, Control_c, 0, 64, 40
1, 328933, Control_c, 0, 64, 47
1, 328948, Control_c, 0, 64, 56
1, 328963, Control_c, 0, 64, 65
1, 328978, Control_c, 0, 64, 72
1, 328993, Control_c, 0, 64, 75
1, 328998, Note_off_c, 0, 54, 38
1, 329045, Note_off_c, 0, 63, 39
1, 329068, Control_c, 0, 64, 75
1, 329112, Control_c, 0, 64, 76
1, 329124, Note_on_c, 0, 51, 44
1, 329127, Note_off_c, 0, 66, 57
1, 329127, Control_c, 0, 64, 76
1, 329130, Note_on_c, 0, 59, 45
1, 329136, Note_on_c, 0, 54, 39
1, 329142, Control_c, 0, 64, 77
1, 329157, Control_c, 0, 64, 77
1, 329172, Control_c, 0, 64, 78
1, 329181, Note_off_c, 0, 54, 56
1, 329187, Control_c, 0, 64, 79
1, 329201, Control_c, 0, 64, 80
1, 329216, Control_c, 0, 64, 80
1, 329326, Note_off_c, 0, 59, 35
1, 329368, Note_off_c, 0, 51, 36
1, 329382, Note_on_c, 0, 49, 45
1, 329383, Note_on_c, 0, 66, 55
1, 329482, Control_c, 0, 64, 81
1, 329540, Note_off_c, 0, 66, 63
1, 329601, Note_off_c, 0, 49, 50
1, 329641, Note_on_c, 0, 51, 42
1, 329667, Control_c, 0, 64, 80
1, 329682, Control_c, 0, 64, 79
1, 329697, Control_c, 0, 64, 78
1, 329712, Control_c, 0, 64, 77
1, 329726, Control_c, 0, 64, 74
1, 329741, Control_c, 0, 64, 72
1, 329756, Control_c, 0, 64, 70
1, 329769, Note_on_c, 0, 71, 57
1, 329771, Control_c, 0, 64, 66
1, 329786, Control_c, 0, 64, 61
1, 329792, Note_on_c, 0, 59, 39
1, 329801, Control_c, 0, 64, 52
1, 329816, Control_c, 0, 64, 40
1, 329831, Control_c, 0, 64, 34
1, 329846, Control_c, 0, 64, 32
1, 329848, Note_off_c, 0, 59, 0
1, 329848, Note_on_c, 0, 59, 3
1, 329875, Control_c, 0, 64, 34
1, 329890, Control_c, 0, 64, 40
1, 329905, Control_c, 0, 64, 50
1, 329920, Control_c, 0, 64, 62
1, 329935, Control_c, 0, 64, 74
1, 329950, Control_c, 0, 64, 86
1, 329965, Control_c, 0, 64, 86
1, 329995, Control_c, 0, 64, 87
1, 330033, Note_on_c, 0, 49, 41
1, 330074, Note_on_c, 0, 70, 69
1, 330082, Control_c, 0, 64, 87
1, 330085, Note_on_c, 0, 63, 51
1, 330088, Note_off_c, 0, 59, 40
1, 330105, Note_off_c, 0, 71, 65
1, 330112, Control_c, 0, 64, 88
1, 330127, Control_c, 0, 64, 89
1, 330141, Control_c, 0, 64, 91
1, 330156, Control_c, 0, 64, 93
1, 330171, Control_c, 0, 64, 96
1, 330186, Control_c, 0, 64, 96
1, 330201, Control_c, 0, 64, 97
1, 330227, Note_off_c, 0, 63, 63
1, 330266, Note_off_c, 0, 51, 43
1, 330297, Control_c, 0, 64, 97
1, 330316, Note_on_c, 0, 47, 50
1, 330323, Note_off_c, 0, 49, 34
1, 330333, Note_on_c, 0, 54, 37
1, 330341, Note_on_c, 0, 59, 52
1, 330368, Note_off_c, 0, 54, 48
1, 330413, Note_off_c, 0, 47, 59
1, 330416, Control_c, 0, 64, 98
1, 330430, Control_c, 0, 64, 98
1, 330445, Control_c, 0, 64, 99
1, 330460, Control_c, 0, 64, 99
1, 330475, Control_c, 0, 64, 100
1, 330486, Note_on_c, 0, 68, 71
1, 330489, Control_c, 0, 64, 100
1, 330504, Control_c, 0, 64, 101
1, 330518, Note_off_c, 0, 70, 61
1, 330519, Control_c, 0, 64, 101
1, 330538, Note_off_c, 0, 59, 56
1, 330549, Control_c, 0, 64, 102
1, 330554, Note_off_c, 0, 68, 59
1, 330639, Control_c, 0, 64, 101
1, 330653, Control_c, 0, 64, 99
1, 330668, Control_c, 0, 64, 95
1, 330683, Control_c, 0, 64, 91
1, 330686, Note_on_c, 0, 30, 48
1, 330698, Control_c, 0, 64, 88
1, 330713, Control_c, 0, 64, 83
1, 330728, Control_c, 0, 64, 77
1, 330743, Control_c, 0, 64, 69
1, 330758, Control_c, 0, 64, 61
1, 330770, Note_on_c, 0, 64, 53
1, 330772, Note_on_c, 0, 68, 64
1, 330772, Control_c, 0, 64, 46
1, 330787, Control_c, 0, 64, 29
1, 330802, Control_c, 0, 64, 16
1, 330817, Control_c, 0, 64, 16
1, 330846, Control_c, 0, 64, 16
1, 330861, Control_c, 0, 64, 23
1, 330876, Control_c, 0, 64, 33
1, 330890, Control_c, 0, 64, 43
1, 330905, Control_c, 0, 64, 55
1, 330920, Control_c, 0, 64, 65
1, 330921, Note_off_c, 0, 30, 55
1, 330935, Control_c, 0, 64, 78
1, 330950, Control_c, 0, 64, 83
1, 330975, Note_off_c, 0, 68, 57
1, 331026, Note_off_c, 0, 64, 61
1, 331197, Note_on_c, 0, 54, 48
1, 331198, Note_on_c, 0, 59, 49
1, 331204, Note_on_c, 0, 42, 43
1, 331209, Control_c, 0, 64, 83
1, 331306, Note_off_c, 0, 59, 57
1, 331351, Note_off_c, 0, 42, 56
1, 331417, Control_c, 0, 64, 82
1, 331432, Control_c, 0, 64, 82
1, 331447, Control_c, 0, 64, 81
1, 331449, Note_off_c, 0, 54, 30
1, 331462, Control_c, 0, 64, 80
1, 331476, Control_c, 0, 64, 80
1, 331491, Control_c, 0, 64, 79
1, 331506, Control_c, 0, 64, 78
1, 331521, Control_c, 0, 64, 77
1, 331536, Control_c, 0, 64, 76
1, 331541, Note_on_c, 0, 49, 40
1, 331542, Note_on_c, 0, 66, 55
1, 331551, Control_c, 0, 64, 75
1, 331557, Note_on_c, 0, 64, 43
1, 331566, Control_c, 0, 64, 73
1, 331581, Control_c, 0, 64, 70
1, 331595, Control_c, 0, 64, 65
1, 331610, Control_c, 0, 64, 57
1, 331625, Control_c, 0, 64, 43
1, 331640, Control_c, 0, 64, 28
1, 331655, Control_c, 0, 64, 26
1, 331670, Control_c, 0, 64, 28
1, 331685, Control_c, 0, 64, 31
1, 331700, Control_c, 0, 64, 37
1, 331715, Control_c, 0, 64, 46
1, 331729, Control_c, 0, 64, 56
1, 331751, Control_c, 0, 64, 62
1, 331766, Control_c, 0, 64, 67
1, 331781, Control_c, 0, 64, 69
1, 331840, Control_c, 0, 64, 69
1, 331855, Control_c, 0, 64, 70
1, 331876, Note_off_c, 0, 64, 36
1, 331888, Note_on_c, 0, 51, 37
1, 331904, Note_on_c, 0, 58, 33
1, 331914, Control_c, 0, 64, 70
1, 331932, Poly_aftertouch_c, 0, 54, 127
1, 331963, Note_off_c, 0, 49, 44
1, 332010, Poly_aftertouch_c, 0, 54, 0
1, 332077, Control_c, 0, 64, 70
1, 332092, Control_c, 0, 64, 69
1, 332121, Control_c, 0, 64, 68
1, 332136, Control_c, 0, 64, 65
1, 332151, Control_c, 0, 64, 60
1, 332162, Note_on_c, 0, 52, 42
1, 332165, Note_off_c, 0, 51, 41
1, 332166, Control_c, 0, 64, 51
1, 332174, Note_on_c, 0, 64, 40
1, 332181, Control_c, 0, 64, 40
1, 332185, Note_off_c, 0, 58, 45
1, 332195, Control_c, 0, 64, 36
1, 332226, Control_c, 0, 64, 38
1, 332241, Control_c, 0, 64, 41
1, 332256, Control_c, 0, 64, 47
1, 332270, Control_c, 0, 64, 55
1, 332285, Control_c, 0, 64, 63
1, 332300, Control_c, 0, 64, 69
1, 332315, Control_c, 0, 64, 72
1, 332382, Note_off_c, 0, 52, 44
1, 332410, Note_on_c, 0, 58, 48
1, 332416, Note_on_c, 0, 56, 40
1, 332545, Control_c, 0, 64, 72
1, 332559, Control_c, 0, 64, 71
1, 332574, Control_c, 0, 64, 71
1, 332589, Control_c, 0, 64, 70
1, 332604, Control_c, 0, 64, 69
1, 332609, Note_off_c, 0, 58, 35
1, 332618, Control_c, 0, 64, 66
1, 332633, Control_c, 0, 64, 60
1, 332634, Note_off_c, 0, 64, 40
1, 332648, Note_off_c, 0, 56, 43
1, 332648, Control_c, 0, 64, 50
1, 332663, Control_c, 0, 64, 38
1, 332675, Note_on_c, 0, 54, 48
1, 332677, Control_c, 0, 64, 32
1, 332680, Note_on_c, 0, 63, 44
1, 332722, Control_c, 0, 64, 34
1, 332737, Control_c, 0, 64, 38
1, 332752, Control_c, 0, 64, 44
1, 332767, Control_c, 0, 64, 53
1, 332770, Note_off_c, 0, 54, 58
1, 332782, Control_c, 0, 64, 60
1, 332797, Control_c, 0, 64, 66
1, 332798, Note_off_c, 0, 63, 36
1, 332812, Control_c, 0, 64, 69
1, 332826, Control_c, 0, 64, 69
1, 332870, Control_c, 0, 64, 70
1, 332885, Control_c, 0, 64, 71
1, 332900, Control_c, 0, 64, 71
1, 332908, Note_on_c, 0, 54, 50
1, 332911, Note_on_c, 0, 51, 40
1, 332914, Note_on_c, 0, 59, 45
1, 332915, Control_c, 0, 64, 72
1, 332930, Control_c, 0, 64, 73
1, 332944, Control_c, 0, 64, 73
1, 332959, Control_c, 0, 64, 74
1, 332988, Control_c, 0, 64, 74
1, 332989, Note_off_c, 0, 54, 57
1, 333020, Control_c, 0, 64, 75
1, 333035, Control_c, 0, 64, 75
1, 333125, Note_off_c, 0, 51, 36
1, 333134, Note_off_c, 0, 66, 42
1, 333168, Note_on_c, 0, 49, 38
1, 333180, Note_on_c, 0, 63, 46
1, 333193, Note_off_c, 0, 59, 36
1, 333280, Note_off_c, 0, 63, 63
1, 333294, Control_c, 0, 64, 75
1, 333353, Control_c, 0, 64, 74
1, 333368, Control_c, 0, 64, 74
1, 333382, Control_c, 0, 64, 73
1, 333397, Control_c, 0, 64, 72
1, 333412, Control_c, 0, 64, 72
1, 333423, Note_on_c, 0, 51, 41
1, 333426, Control_c, 0, 64, 71
1, 333441, Control_c, 0, 64, 70
1, 333456, Control_c, 0, 64, 69
1, 333471, Control_c, 0, 64, 69
1, 333476, Note_off_c, 0, 49, 43
1, 333486, Control_c, 0, 64, 68
1, 333500, Control_c, 0, 64, 66
1, 333513, Note_on_c, 0, 71, 55
1, 333515, Control_c, 0, 64, 65
1, 333530, Control_c, 0, 64, 63
1, 333532, Note_on_c, 0, 59, 25
1, 333545, Control_c, 0, 64, 60
1, 333560, Control_c, 0, 64, 51
1, 333575, Control_c, 0, 64, 39
1, 333590, Control_c, 0, 64, 27
1, 333605, Control_c, 0, 64, 22
1, 333649, Control_c, 0, 64, 25
1, 333664, Control_c, 0, 64, 31
1, 333679, Control_c, 0, 64, 39
1, 333693, Control_c, 0, 64, 49
1, 333708, Control_c, 0, 64, 58
1, 333723, Control_c, 0, 64, 64
1, 333738, Control_c, 0, 64, 69
1, 333753, Control_c, 0, 64, 70
1, 333761, Note_off_c, 0, 59, 42
1, 333767, Control_c, 0, 64, 70
1, 333782, Control_c, 0, 64, 71
1, 333789, Note_on_c, 0, 49, 38
1, 333797, Control_c, 0, 64, 72
1, 333813, Control_c, 0, 64, 73
1, 333816, Note_off_c, 0, 71, 62
1, 333825, Note_on_c, 0, 70, 64
1, 333828, Control_c, 0, 64, 74
1, 333842, Control_c, 0, 64, 74
1, 333855, Note_on_c, 0, 63, 30
1, 333872, Control_c, 0, 64, 75
1, 333902, Control_c, 0, 64, 75
1, 333961, Control_c, 0, 64, 76
1, 333968, Note_off_c, 0, 63, 47
1, 333976, Control_c, 0, 64, 76
1, 333993, Note_off_c, 0, 51, 37
1, 334042, Control_c, 0, 64, 77
1, 334057, Note_off_c, 0, 49, 46
1, 334078, Note_on_c, 0, 47, 47
1, 334082, Note_on_c, 0, 54, 43
1, 334113, Note_on_c, 0, 59, 38
1, 334132, Note_off_c, 0, 54, 58
1, 334178, Note_off_c, 0, 47, 62
1, 334250, Note_on_c, 0, 68, 63
1, 334267, Note_off_c, 0, 70, 58
1, 334320, Note_off_c, 0, 68, 59
1, 334335, Note_off_c, 0, 59, 39
1, 334368, Control_c, 0, 64, 76
1, 334383, Control_c, 0, 64, 75
1, 334397, Control_c, 0, 64, 74
1, 334410, Note_on_c, 0, 30, 46
1, 334412, Control_c, 0, 64, 73
1, 334427, Control_c, 0, 64, 72
1, 334442, Control_c, 0, 64, 70
1, 334457, Control_c, 0, 64, 66
1, 334472, Control_c, 0, 64, 61
1, 334487, Control_c, 0, 64, 50
1, 334502, Control_c, 0, 64, 33
1, 334514, Note_on_c, 0, 64, 40
1, 334516, Control_c, 0, 64, 24
1, 334517, Note_on_c, 0, 68, 57
1, 334545, Control_c, 0, 64, 24
1, 334560, Control_c, 0, 64, 28
1, 334574, Control_c, 0, 64, 35
1, 334589, Control_c, 0, 64, 45
1, 334604, Control_c, 0, 64, 58
1, 334619, Note_off_c, 0, 30, 55
1, 334620, Control_c, 0, 64, 66
1, 334635, Control_c, 0, 64, 74
1, 334650, Control_c, 0, 64, 75
1, 334660, Note_off_c, 0, 68, 52
1, 334710, Note_off_c, 0, 64, 36
1, 334910, Note_on_c, 0, 42, 43
1, 334920, Note_on_c, 0, 54, 27
1, 334922, Note_on_c, 0, 59, 43
1, 335025, Note_off_c, 0, 59, 57
1, 335042, Control_c, 0, 64, 75
1, 335086, Control_c, 0, 64, 74
1, 335101, Control_c, 0, 64, 74
1, 335107, Note_off_c, 0, 42, 36
1, 335131, Control_c, 0, 64, 73
1, 335141, Note_off_c, 0, 54, 35
1, 335146, Control_c, 0, 64, 73
1, 335161, Control_c, 0, 64, 72
1, 335175, Control_c, 0, 64, 72
1, 335190, Control_c, 0, 64, 71
1, 335205, Control_c, 0, 64, 71
1, 335220, Control_c, 0, 64, 70
1, 335235, Control_c, 0, 64, 69
1, 335250, Control_c, 0, 64, 67
1, 335264, Control_c, 0, 64, 65
1, 335271, Note_on_c, 0, 66, 59
1, 335273, Note_on_c, 0, 64, 40
1, 335277, Note_on_c, 0, 49, 30
1, 335280, Control_c, 0, 64, 62
1, 335295, Control_c, 0, 64, 55
1, 335310, Control_c, 0, 64, 44
1, 335324, Control_c, 0, 64, 33
1, 335339, Control_c, 0, 64, 30
1, 335369, Control_c, 0, 64, 31
1, 335384, Control_c, 0, 64, 34
1, 335398, Control_c, 0, 64, 39
1, 335414, Control_c, 0, 64, 46
1, 335429, Control_c, 0, 64, 54
1, 335444, Control_c, 0, 64, 61
1, 335459, Control_c, 0, 64, 66
1, 335474, Control_c, 0, 64, 67
1, 335593, Note_off_c, 0, 64, 39
1, 335623, Note_on_c, 0, 51, 38
1, 335632, Note_on_c, 0, 54, 24
1, 335637, Note_on_c, 0, 58, 31
1, 335702, Note_off_c, 0, 49, 45
1, 335808, Note_off_c, 0, 54, 42
1, 335836, Control_c, 0, 64, 67
1, 335851, Control_c, 0, 64, 65
1, 335866, Control_c, 0, 64, 62
1, 335881, Control_c, 0, 64, 55
1, 335888, Note_on_c, 0, 52, 44
1, 335888, Note_off_c, 0, 51, 43
1, 335895, Control_c, 0, 64, 43
1, 335899, Note_on_c, 0, 64, 42
1, 335905, Note_off_c, 0, 58, 46
1, 335910, Control_c, 0, 64, 33
1, 335925, Control_c, 0, 64, 32
1, 335940, Control_c, 0, 64, 34
1, 335955, Control_c, 0, 64, 38
1, 335969, Control_c, 0, 64, 43
1, 335984, Control_c, 0, 64, 51
1, 335999, Control_c, 0, 64, 58
1, 336013, Control_c, 0, 64, 63
1, 336028, Control_c, 0, 64, 66
1, 336043, Control_c, 0, 64, 66
1, 336112, Note_off_c, 0, 52, 45
1, 336117, Control_c, 0, 64, 67
1, 336138, Note_on_c, 0, 58, 40
1, 336141, Note_on_c, 0, 56, 43
1, 336318, Control_c, 0, 64, 66
1, 336332, Note_off_c, 0, 58, 39
1, 336333, Control_c, 0, 64, 65
1, 336348, Control_c, 0, 64, 62
1, 336363, Control_c, 0, 64, 54
1, 336370, Note_off_c, 0, 56, 42
1, 336371, Note_off_c, 0, 64, 42
1, 336378, Control_c, 0, 64, 43
1, 336392, Control_c, 0, 64, 34
1, 336404, Note_on_c, 0, 63, 43
1, 336407, Control_c, 0, 64, 33
1, 336410, Note_on_c, 0, 54, 41
1, 336422, Control_c, 0, 64, 34
1, 336436, Control_c, 0, 64, 37
1, 336451, Control_c, 0, 64, 42
1, 336466, Control_c, 0, 64, 49
1, 336481, Control_c, 0, 64, 57
1, 336496, Control_c, 0, 64, 63
1, 336511, Control_c, 0, 64, 67
1, 336526, Control_c, 0, 64, 68
1, 336559, Note_off_c, 0, 54, 34
1, 336568, Note_off_c, 0, 63, 39
1, 336626, Note_on_c, 0, 51, 43
1, 336628, Note_off_c, 0, 66, 49
1, 336653, Note_on_c, 0, 59, 40
1, 336668, Note_on_c, 0, 54, 42
1, 336792, Control_c, 0, 64, 67
1, 336822, Control_c, 0, 64, 67
1, 336836, Control_c, 0, 64, 66
1, 336851, Control_c, 0, 64, 66
1, 336857, Note_off_c, 0, 51, 35
1, 336866, Control_c, 0, 64, 65
1, 336881, Control_c, 0, 64, 62
1, 336887, Note_on_c, 0, 66, 58
1, 336890, Note_on_c, 0, 63, 50
1, 336896, Control_c, 0, 64, 53
1, 336910, Note_on_c, 0, 49, 34
1, 336910, Control_c, 0, 64, 41
1, 336914, Note_off_c, 0, 54, 42
1, 336925, Control_c, 0, 64, 31
1, 336940, Control_c, 0, 64, 30
1, 336959, Note_off_c, 0, 59, 32
1, 336970, Control_c, 0, 64, 31
1, 336992, Control_c, 0, 64, 36
1, 337007, Control_c, 0, 64, 43
1, 337023, Control_c, 0, 64, 51
1, 337038, Control_c, 0, 64, 59
1, 337053, Control_c, 0, 64, 64
1, 337067, Control_c, 0, 64, 67
1, 337082, Control_c, 0, 64, 68
1, 337112, Control_c, 0, 64, 68
1, 337127, Control_c, 0, 64, 69
1, 337141, Control_c, 0, 64, 70
1, 337155, Note_off_c, 0, 49, 46
1, 337156, Control_c, 0, 64, 70
1, 337158, Note_on_c, 0, 51, 44
1, 337164, Note_on_c, 0, 54, 38
1, 337167, Note_off_c, 0, 66, 48
1, 337171, Control_c, 0, 64, 71
1, 337177, Note_on_c, 0, 59, 38
1, 337186, Control_c, 0, 64, 71
1, 337200, Control_c, 0, 64, 72
1, 337215, Control_c, 0, 64, 72
1, 337230, Control_c, 0, 64, 73
1, 337245, Control_c, 0, 64, 73
1, 337274, Control_c, 0, 64, 74
1, 337317, Note_off_c, 0, 54, 24
1, 337408, Note_on_c, 0, 66, 63
1, 337408, Control_c, 0, 64, 74
1, 337415, Note_on_c, 0, 49, 46
1, 337422, Note_off_c, 0, 51, 0
1, 337438, Control_c, 0, 64, 75
1, 337453, Control_c, 0, 64, 75
1, 337478, Poly_aftertouch_c, 0, 51, 0
1, 337482, Control_c, 0, 64, 76
1, 337497, Control_c, 0, 64, 76
1, 337512, Control_c, 0, 64, 77
1, 337527, Control_c, 0, 64, 78
1, 337556, Control_c, 0, 64, 78
1, 337586, Control_c, 0, 64, 79
1, 337607, Note_off_c, 0, 49, 35
1, 337630, Control_c, 0, 64, 79
1, 337643, Note_on_c, 0, 47, 50
1, 337645, Control_c, 0, 64, 80
1, 337647, Note_on_c, 0, 54, 55
1, 337659, Control_c, 0, 64, 80
1, 337674, Control_c, 0, 64, 81
1, 337689, Control_c, 0, 64, 81
1, 337696, Note_off_c, 0, 47, 57
1, 337718, Note_off_c, 0, 54, 55
1, 337719, Control_c, 0, 64, 82
1, 337756, Control_c, 0, 64, 82
1, 337794, Note_on_c, 0, 68, 70
1, 337822, Note_off_c, 0, 63, 45
1, 337827, Note_off_c, 0, 59, 41
1, 337828, Note_off_c, 0, 66, 61
1, 337875, Note_off_c, 0, 68, 53
1, 337935, Control_c, 0, 64, 82
1, 337950, Control_c, 0, 64, 81
1, 337964, Control_c, 0, 64, 79
1, 337979, Control_c, 0, 64, 77
1, 337994, Control_c, 0, 64, 74
1, 338009, Control_c, 0, 64, 68
1, 338010, Note_on_c, 0, 35, 48
1, 338023, Control_c, 0, 64, 60
1, 338038, Control_c, 0, 64, 49
1, 338043, Note_on_c, 0, 69, 65
1, 338053, Control_c, 0, 64, 33
1, 338064, Note_on_c, 0, 63, 43
1, 338068, Control_c, 0, 64, 26
1, 338112, Control_c, 0, 64, 28
1, 338127, Control_c, 0, 64, 34
1, 338142, Control_c, 0, 64, 43
1, 338144, Note_off_c, 0, 69, 61
1, 338156, Control_c, 0, 64, 53
1, 338171, Control_c, 0, 64, 62
1, 338186, Control_c, 0, 64, 71
1, 338201, Control_c, 0, 64, 77
1, 338225, Note_off_c, 0, 63, 60
1, 338231, Control_c, 0, 64, 77
1, 338246, Control_c, 0, 64, 78
1, 338261, Control_c, 0, 64, 79
1, 338274, Control_c, 0, 64, 81
1, 338288, Control_c, 0, 64, 81
1, 338303, Control_c, 0, 64, 82
1, 338318, Control_c, 0, 64, 84
1, 338333, Control_c, 0, 64, 86
1, 338335, Note_on_c, 0, 54, 58
1, 338337, Note_on_c, 0, 42, 53
1, 338348, Control_c, 0, 64, 87
1, 338359, Note_on_c, 0, 59, 38
1, 338362, Control_c, 0, 64, 88
1, 338365, Note_off_c, 0, 54, 66
1, 338377, Control_c, 0, 64, 89
1, 338392, Control_c, 0, 64, 90
1, 338407, Control_c, 0, 64, 92
1, 338422, Control_c, 0, 64, 93
1, 338437, Control_c, 0, 64, 93
1, 338440, Note_off_c, 0, 35, 40
1, 338509, Note_off_c, 0, 59, 53
1, 338518, Control_c, 0, 64, 91
1, 338533, Control_c, 0, 64, 86
1, 338548, Note_off_c, 0, 42, 58
1, 338548, Control_c, 0, 64, 82
1, 338562, Control_c, 0, 64, 82
1, 338567, Note_on_c, 0, 69, 68
1, 338575, Note_on_c, 0, 47, 55
1, 338580, Note_on_c, 0, 63, 57
1, 338608, Control_c, 0, 64, 83
1, 338620, Note_off_c, 0, 69, 63
1, 338623, Control_c, 0, 64, 85
1, 338637, Control_c, 0, 64, 86
1, 338652, Control_c, 0, 64, 87
1, 338667, Control_c, 0, 64, 88
1, 338682, Control_c, 0, 64, 90
1, 338683, Note_off_c, 0, 63, 58
1, 338684, Poly_aftertouch_c, 0, 59, 127
1, 338689, Note_on_c, 0, 59, 3
1, 338697, Control_c, 0, 64, 92
1, 338711, Control_c, 0, 64, 94
1, 338726, Control_c, 0, 64, 95
1, 338741, Control_c, 0, 64, 95
1, 338826, Note_on_c, 0, 49, 67
1, 338829, Note_off_c, 0, 47, 34
1, 338830, Note_off_c, 0, 59, 34
1, 338839, Note_on_c, 0, 54, 31
1, 338845, Control_c, 0, 64, 96
1, 338860, Control_c, 0, 64, 96
1, 338875, Note_off_c, 0, 54, 53
1, 338875, Control_c, 0, 64, 97
1, 338964, Control_c, 0, 64, 96
1, 338979, Control_c, 0, 64, 95
1, 338993, Control_c, 0, 64, 93
1, 339008, Control_c, 0, 64, 92
1, 339024, Control_c, 0, 64, 91
1, 339038, Control_c, 0, 64, 88
1, 339053, Control_c, 0, 64, 82
1, 339068, Control_c, 0, 64, 72
1, 339083, Control_c, 0, 64, 62
1, 339092, Note_on_c, 0, 69, 69
1, 339094, Note_off_c, 0, 49, 64
1, 339097, Note_on_c, 0, 51, 69
1, 339098, Control_c, 0, 64, 47
1, 339112, Control_c, 0, 64, 33
1, 339127, Control_c, 0, 64, 29
1, 339156, Control_c, 0, 64, 31
1, 339171, Control_c, 0, 64, 36
1, 339186, Control_c, 0, 64, 47
1, 339201, Control_c, 0, 64, 59
1, 339216, Control_c, 0, 64, 73
1, 339238, Control_c, 0, 64, 127
1, 339286, Note_off_c, 0, 51, 63
1, 339445, Note_on_c, 0, 61, 71
1, 339453, Note_on_c, 0, 57, 57
1, 339519, Note_off_c, 0, 57, 55
1, 339522, Note_off_c, 0, 69, 24
1, 339550, Control_c, 0, 67, 125
1, 339565, Control_c, 0, 67, 123
1, 339579, Control_c, 0, 67, 121
1, 339594, Control_c, 0, 67, 118
1, 339609, Control_c, 0, 67, 114
1, 339624, Control_c, 0, 67, 109
1, 339639, Control_c, 0, 64, 115
1, 339639, Control_c, 0, 67, 104
1, 339653, Control_c, 0, 64, 108
1, 339653, Control_c, 0, 67, 97
1, 339666, Note_off_c, 0, 61, 58
1, 339668, Control_c, 0, 64, 98
1, 339668, Control_c, 0, 67, 92
1, 339683, Control_c, 0, 64, 83
1, 339683, Control_c, 0, 67, 89
1, 339692, Note_on_c, 0, 59, 66
1, 339698, Control_c, 0, 64, 66
1, 339700, Note_on_c, 0, 69, 68
1, 339713, Control_c, 0, 64, 52
1, 339713, Control_c, 0, 67, 90
1, 339718, Note_on_c, 0, 63, 56
1, 339728, Control_c, 0, 64, 25
1, 339728, Control_c, 0, 67, 91
1, 339742, Control_c, 0, 64, 0
1, 339742, Control_c, 0, 67, 93
1, 339757, Control_c, 0, 67, 96
1, 339772, Control_c, 0, 67, 99
1, 339787, Control_c, 0, 67, 100
1, 339802, Control_c, 0, 64, 11
1, 339802, Control_c, 0, 67, 101
1, 339817, Control_c, 0, 64, 31
1, 339829, Note_off_c, 0, 63, 47
1, 339832, Control_c, 0, 64, 45
1, 339847, Control_c, 0, 64, 59
1, 339861, Control_c, 0, 64, 80
1, 339876, Control_c, 0, 64, 127
1, 339891, Control_c, 0, 67, 100
1, 339894, Note_off_c, 0, 59, 59
1, 339921, Control_c, 0, 67, 100
1, 339930, Note_on_c, 0, 59, 43
1, 339933, Note_on_c, 0, 56, 58
1, 339950, Control_c, 0, 67, 99
1, 339973, Note_off_c, 0, 69, 56
1, 340046, Control_c, 0, 67, 100
1, 340135, Control_c, 0, 64, 102
1, 340150, Control_c, 0, 64, 80
1, 340150, Control_c, 0, 67, 99
1, 340165, Control_c, 0, 64, 66
1, 340165, Control_c, 0, 67, 98
1, 340171, Note_off_c, 0, 56, 64
1, 340179, Control_c, 0, 64, 55
1, 340179, Control_c, 0, 67, 98
1, 340180, Note_on_c, 0, 69, 66
1, 340183, Note_on_c, 0, 63, 62
1, 340185, Note_on_c, 0, 54, 57
1, 340194, Control_c, 0, 64, 41
1, 340194, Control_c, 0, 67, 97
1, 340200, Note_off_c, 0, 59, 52
1, 340210, Control_c, 0, 64, 35
1, 340210, Control_c, 0, 67, 96
1, 340225, Control_c, 0, 64, 37
1, 340225, Control_c, 0, 67, 95
1, 340240, Control_c, 0, 64, 45
1, 340240, Control_c, 0, 67, 94
1, 340255, Control_c, 0, 64, 54
1, 340255, Control_c, 0, 67, 92
1, 340270, Control_c, 0, 64, 64
1, 340270, Control_c, 0, 67, 90
1, 340284, Control_c, 0, 64, 78
1, 340284, Control_c, 0, 67, 89
1, 340299, Control_c, 0, 64, 92
1, 340299, Control_c, 0, 67, 87
1, 340314, Control_c, 0, 67, 83
1, 340329, Control_c, 0, 67, 79
1, 340344, Control_c, 0, 64, 93
1, 340344, Control_c, 0, 67, 74
1, 340358, Control_c, 0, 64, 93
1, 340358, Control_c, 0, 67, 67
1, 340373, Control_c, 0, 67, 61
1, 340388, Control_c, 0, 64, 95
1, 340388, Control_c, 0, 67, 55
1, 340402, Control_c, 0, 64, 96
1, 340402, Control_c, 0, 67, 49
1, 340404, Note_off_c, 0, 54, 54
1, 340410, Note_off_c, 0, 69, 33
1, 340417, Control_c, 0, 64, 98
1, 340417, Control_c, 0, 67, 44
1, 340418, Note_on_c, 0, 57, 39
1, 340419, Note_on_c, 0, 56, 60
1, 340431, Note_on_c, 0, 59, 34
1, 340432, Control_c, 0, 64, 100
1, 340432, Control_c, 0, 67, 40
1, 340447, Control_c, 0, 64, 103
1, 340447, Control_c, 0, 67, 37
1, 340462, Control_c, 0, 64, 105
1, 340462, Control_c, 0, 67, 33
1, 340468, Note_off_c, 0, 63, 59
1, 340476, Control_c, 0, 64, 108
1, 340476, Control_c, 0, 67, 28
1, 340491, Control_c, 0, 64, 108
1, 340491, Control_c, 0, 67, 24
1, 340504, Note_off_c, 0, 59, 0
1, 340506, Control_c, 0, 64, 109
1, 340506, Control_c, 0, 67, 18
1, 340520, Control_c, 0, 67, 13
1, 340535, Control_c, 0, 67, 0
1, 340541, Poly_aftertouch_c, 0, 59, 127
1, 340595, Control_c, 0, 64, 108
1, 340609, Control_c, 0, 64, 102
1, 340624, Control_c, 0, 64, 88
1, 340639, Control_c, 0, 64, 73
1, 340654, Control_c, 0, 64, 63
1, 340669, Control_c, 0, 64, 53
1, 340677, Note_on_c, 0, 69, 64
1, 340680, Note_on_c, 0, 64, 57
1, 340683, Control_c, 0, 64, 44
1, 340684, Note_on_c, 0, 54, 60
1, 340698, Control_c, 0, 64, 43
1, 340705, Note_off_c, 0, 57, 35
1, 340713, Control_c, 0, 64, 50
1, 340719, Poly_aftertouch_c, 0, 59, 0
1, 340722, Note_off_c, 0, 56, 61
1, 340735, Control_c, 0, 64, 58
1, 340750, Control_c, 0, 64, 67
1, 340765, Control_c, 0, 64, 82
1, 340780, Control_c, 0, 64, 97
1, 340794, Control_c, 0, 64, 100
1, 340809, Control_c, 0, 64, 101
1, 340824, Control_c, 0, 64, 106
1, 340839, Control_c, 0, 64, 114
1, 340854, Control_c, 0, 64, 127
1, 340907, Note_on_c, 0, 56, 59
1, 340914, Note_off_c, 0, 54, 60
1, 340920, Note_on_c, 0, 52, 58
1, 340920, Note_on_c, 0, 59, 64
1, 340993, Note_off_c, 0, 56, 66
1, 341042, Note_off_c, 0, 69, 64
1, 341048, Note_on_c, 0, 68, 74
1, 341048, Note_off_c, 0, 52, 64
1, 341075, Note_off_c, 0, 64, 58
1, 341136, Note_off_c, 0, 59, 28
1, 341180, Control_c, 0, 64, 99
1, 341195, Control_c, 0, 64, 67
1, 341207, Note_on_c, 0, 50, 59
1, 341210, Control_c, 0, 64, 47
1, 341224, Control_c, 0, 64, 0
1, 341241, Note_on_c, 0, 71, 74
1, 341245, Note_on_c, 0, 66, 50
1, 341276, Note_off_c, 0, 68, 57
1, 341283, Note_off_c, 0, 66, 48
1, 341287, Note_off_c, 0, 71, 67
1, 341294, Note_off_c, 0, 50, 59
1, 341298, Control_c, 0, 64, 30
1, 341313, Control_c, 0, 64, 48
1, 341328, Control_c, 0, 64, 65
1, 341343, Control_c, 0, 64, 98
1, 341358, Control_c, 0, 64, 127
1, 341454, Note_on_c, 0, 59, 56
1, 341459, Note_on_c, 0, 38, 73
1, 341468, Note_on_c, 0, 54, 57
1, 341498, Note_off_c, 0, 59, 62
1, 341504, Note_off_c, 0, 54, 64
1, 341531, Note_off_c, 0, 38, 61
1, 341704, Note_on_c, 0, 37, 82
1, 341707, Note_on_c, 0, 66, 69
1, 341707, Note_on_c, 0, 71, 77
1, 341721, Control_c, 0, 64, 104
1, 341736, Control_c, 0, 64, 78
1, 341751, Control_c, 0, 64, 64
1, 341765, Control_c, 0, 64, 50
1, 341780, Control_c, 0, 64, 23
1, 341795, Control_c, 0, 64, 0
1, 341826, Control_c, 0, 64, 16
1, 341841, Control_c, 0, 64, 30
1, 341855, Control_c, 0, 64, 43
1, 341870, Control_c, 0, 64, 58
1, 341885, Control_c, 0, 64, 71
1, 341900, Control_c, 0, 64, 90
1, 341904, Note_off_c, 0, 37, 55
1, 341915, Control_c, 0, 64, 95
1, 341944, Control_c, 0, 64, 97
1, 341959, Control_c, 0, 64, 108
1, 341962, Note_on_c, 0, 61, 66
1, 341962, Note_off_c, 0, 66, 52
1, 341963, Note_on_c, 0, 49, 85
1, 341973, Control_c, 0, 64, 127
1, 341979, Note_on_c, 0, 59, 65
1, 342023, Note_off_c, 0, 71, 40
1, 342055, Note_off_c, 0, 61, 62
1, 342060, Note_off_c, 0, 49, 62
1, 342061, Note_off_c, 0, 59, 52
1, 342211, Control_c, 0, 64, 107
1, 342234, Control_c, 0, 64, 75
1, 342239, Note_on_c, 0, 71, 73
1, 342242, Note_on_c, 0, 65, 73
1, 342243, Note_on_c, 0, 56, 75
1, 342249, Control_c, 0, 64, 60
1, 342263, Control_c, 0, 64, 46
1, 342278, Control_c, 0, 64, 33
1, 342293, Control_c, 0, 64, 31
1, 342308, Control_c, 0, 64, 34
1, 342323, Control_c, 0, 64, 43
1, 342337, Control_c, 0, 64, 55
1, 342352, Control_c, 0, 64, 72
1, 342367, Control_c, 0, 64, 127
1, 342398, Note_off_c, 0, 56, 66
1, 342449, Note_off_c, 0, 65, 63
1, 342450, Note_off_c, 0, 71, 37
1, 342508, Note_on_c, 0, 63, 91
1, 342510, Note_on_c, 0, 59, 66
1, 342535, Note_off_c, 0, 59, 65
1, 342810, Note_on_c, 0, 61, 67
1, 342857, Control_c, 0, 64, 119
1, 342872, Control_c, 0, 64, 80
1, 342875, Note_on_c, 0, 71, 76
1, 342876, Note_on_c, 0, 65, 72
1, 342886, Control_c, 0, 64, 63
1, 342901, Control_c, 0, 64, 48
1, 342916, Control_c, 0, 64, 21
1, 342931, Control_c, 0, 64, 0
1, 342938, Note_off_c, 0, 63, 37
1, 342960, Control_c, 0, 64, 8
1, 342982, Control_c, 0, 64, 24
1, 342997, Control_c, 0, 64, 37
1, 343012, Control_c, 0, 64, 51
1, 343027, Control_c, 0, 64, 66
1, 343042, Control_c, 0, 64, 101
1, 343042, Note_off_c, 0, 65, 62
1, 343057, Control_c, 0, 64, 127
1, 343111, Note_off_c, 0, 61, 62
1, 343191, Note_on_c, 0, 56, 63
1, 343200, Note_on_c, 0, 61, 74
1, 343201, Note_on_c, 0, 59, 54
1, 343277, Note_off_c, 0, 71, 58
1, 343313, Note_off_c, 0, 59, 35
1, 343376, Note_off_c, 0, 56, 52
1, 343412, Note_off_c, 0, 61, 61
1, 343442, Control_c, 0, 64, 114
1, 343447, Note_on_c, 0, 64, 68
1, 343450, Note_on_c, 0, 71, 79
1, 343453, Note_on_c, 0, 55, 64
1, 343457, Control_c, 0, 64, 85
1, 343472, Control_c, 0, 64, 68
1, 343487, Control_c, 0, 64, 54
1, 343501, Control_c, 0, 64, 38
1, 343516, Control_c, 0, 64, 26
1, 343546, Control_c, 0, 64, 30
1, 343561, Control_c, 0, 64, 37
1, 343576, Control_c, 0, 64, 48
1, 343591, Control_c, 0, 64, 61
1, 343605, Control_c, 0, 64, 74
1, 343620, Control_c, 0, 64, 92
1, 343621, Note_off_c, 0, 55, 64
1, 343635, Control_c, 0, 64, 94
1, 343688, Note_off_c, 0, 71, 62
1, 343701, Note_on_c, 0, 57, 68
1, 343704, Note_on_c, 0, 61, 67
1, 343707, Note_on_c, 0, 59, 61
1, 343786, Note_off_c, 0, 64, 59
1, 343880, Control_c, 0, 64, 93
1, 343895, Control_c, 0, 64, 92
1, 343909, Control_c, 0, 64, 91
1, 343924, Control_c, 0, 64, 89
1, 343939, Control_c, 0, 64, 87
1, 343952, Note_on_c, 0, 70, 76
1, 343953, Control_c, 0, 64, 85
1, 343954, Note_on_c, 0, 64, 59
1, 343968, Control_c, 0, 64, 79
1, 343971, Note_off_c, 0, 57, 57
1, 343973, Note_on_c, 0, 55, 59
1, 343983, Control_c, 0, 64, 70
1, 343985, Note_off_c, 0, 59, 56
1, 343988, Note_off_c, 0, 61, 56
1, 343998, Control_c, 0, 64, 61
1, 344013, Control_c, 0, 64, 47
1, 344027, Control_c, 0, 64, 31
1, 344042, Control_c, 0, 64, 23
1, 344072, Control_c, 0, 64, 26
1, 344087, Control_c, 0, 64, 32
1, 344101, Control_c, 0, 64, 41
1, 344116, Control_c, 0, 64, 51
1, 344131, Control_c, 0, 64, 61
1, 344145, Control_c, 0, 64, 71
1, 344160, Control_c, 0, 64, 82
1, 344175, Control_c, 0, 64, 83
1, 344190, Control_c, 0, 64, 83
1, 344198, Note_on_c, 0, 61, 66
1, 344202, Note_on_c, 0, 54, 59
1, 344206, Note_on_c, 0, 58, 56
1, 344206, Control_c, 0, 64, 85
1, 344221, Control_c, 0, 64, 87
1, 344236, Control_c, 0, 64, 88
1, 344250, Control_c, 0, 64, 89
1, 344252, Note_off_c, 0, 70, 59
1, 344261, Note_off_c, 0, 55, 59
1, 344294, Note_off_c, 0, 64, 50
1, 344324, Control_c, 0, 64, 89
1, 344339, Control_c, 0, 64, 88
1, 344354, Control_c, 0, 64, 86
1, 344369, Control_c, 0, 64, 85
1, 344383, Control_c, 0, 64, 83
1, 344398, Control_c, 0, 64, 78
1, 344413, Control_c, 0, 64, 69
1, 344428, Control_c, 0, 64, 60
1, 344439, Note_off_c, 0, 54, 63
1, 344440, Note_on_c, 0, 70, 73
1, 344441, Note_on_c, 0, 53, 56
1, 344442, Note_on_c, 0, 65, 59
1, 344443, Control_c, 0, 64, 42
1, 344458, Control_c, 0, 64, 25
1, 344478, Note_off_c, 0, 58, 48
1, 344480, Control_c, 0, 64, 20
1, 344495, Note_off_c, 0, 61, 57
1, 344510, Control_c, 0, 64, 21
1, 344525, Control_c, 0, 64, 27
1, 344539, Control_c, 0, 64, 36
1, 344554, Control_c, 0, 64, 48
1, 344569, Control_c, 0, 64, 59
1, 344583, Control_c, 0, 64, 67
1, 344598, Control_c, 0, 64, 78
1, 344613, Control_c, 0, 64, 81
1, 344643, Control_c, 0, 64, 82
1, 344658, Control_c, 0, 64, 83
1, 344673, Control_c, 0, 64, 84
1, 344688, Control_c, 0, 64, 84
1, 344690, Note_on_c, 0, 61, 64
1, 344697, Note_on_c, 0, 58, 54
1, 344699, Note_on_c, 0, 54, 63
1, 344702, Control_c, 0, 64, 85
1, 344703, Note_off_c, 0, 70, 59
1, 344717, Control_c, 0, 64, 85
1, 344722, Note_off_c, 0, 65, 62
1, 344732, Control_c, 0, 64, 86
1, 344732, Note_off_c, 0, 53, 60
1, 344747, Control_c, 0, 64, 86
1, 344836, Control_c, 0, 64, 86
1, 344850, Control_c, 0, 64, 85
1, 344865, Control_c, 0, 64, 83
1, 344880, Control_c, 0, 64, 81
1, 344894, Control_c, 0, 64, 79
1, 344909, Control_c, 0, 64, 77
1, 344924, Control_c, 0, 64, 71
1, 344930, Note_on_c, 0, 70, 67
1, 344931, Note_on_c, 0, 66, 60
1, 344936, Note_off_c, 0, 54, 37
1, 344939, Control_c, 0, 64, 63
1, 344950, Note_on_c, 0, 53, 43
1, 344954, Control_c, 0, 64, 52
1, 344968, Control_c, 0, 64, 37
1, 344982, Note_off_c, 0, 61, 52
1, 344983, Note_off_c, 0, 58, 36
1, 344983, Control_c, 0, 64, 27
1, 344999, Control_c, 0, 64, 26
1, 345013, Control_c, 0, 64, 27
1, 345028, Control_c, 0, 64, 30
1, 345043, Control_c, 0, 64, 37
1, 345058, Control_c, 0, 64, 46
1, 345072, Control_c, 0, 64, 56
1, 345087, Control_c, 0, 64, 64
1, 345102, Control_c, 0, 64, 72
1, 345117, Control_c, 0, 64, 75
1, 345161, Control_c, 0, 64, 75
1, 345176, Note_on_c, 0, 61, 58
1, 345182, Note_on_c, 0, 52, 51
1, 345182, Note_on_c, 0, 58, 45
1, 345188, Note_off_c, 0, 53, 40
1, 345188, Note_off_c, 0, 70, 56
1, 345203, Note_off_c, 0, 66, 56
1, 345273, Control_c, 0, 64, 75
1, 345287, Control_c, 0, 64, 74
1, 345302, Control_c, 0, 64, 73
1, 345317, Control_c, 0, 64, 72
1, 345332, Control_c, 0, 64, 71
1, 345347, Control_c, 0, 64, 70
1, 345361, Control_c, 0, 64, 68
1, 345376, Control_c, 0, 64, 67
1, 345391, Control_c, 0, 64, 64
1, 345406, Control_c, 0, 64, 58
1, 345421, Control_c, 0, 64, 48
1, 345432, Note_on_c, 0, 51, 41
1, 345436, Control_c, 0, 64, 34
1, 345439, Note_on_c, 0, 70, 56
1, 345441, Note_on_c, 0, 67, 50
1, 345445, Note_off_c, 0, 52, 37
1, 345451, Control_c, 0, 64, 25
1, 345457, Note_off_c, 0, 58, 38
1, 345466, Control_c, 0, 64, 22
1, 345468, Note_off_c, 0, 61, 37
1, 345510, Control_c, 0, 64, 24
1, 345524, Control_c, 0, 64, 30
1, 345539, Control_c, 0, 64, 39
1, 345554, Control_c, 0, 64, 49
1, 345569, Control_c, 0, 64, 58
1, 345584, Control_c, 0, 64, 64
1, 345598, Control_c, 0, 64, 70
1, 345613, Control_c, 0, 64, 70
1, 345671, Note_off_c, 0, 51, 53
1, 345677, Note_off_c, 0, 70, 56
1, 345685, Note_on_c, 0, 61, 53
1, 345689, Note_on_c, 0, 52, 47
1, 345698, Note_off_c, 0, 67, 58
1, 345705, Note_on_c, 0, 58, 31
1, 345777, Control_c, 0, 64, 70
1, 345793, Control_c, 0, 64, 69
1, 345808, Control_c, 0, 64, 68
1, 345822, Control_c, 0, 64, 68
1, 345837, Control_c, 0, 64, 67
1, 345852, Control_c, 0, 64, 67
1, 345867, Control_c, 0, 64, 66
1, 345882, Control_c, 0, 64, 64
1, 345896, Control_c, 0, 64, 63
1, 345911, Control_c, 0, 64, 61
1, 345926, Control_c, 0, 64, 56
1, 345940, Control_c, 0, 64, 47
1, 345945, Note_on_c, 0, 51, 44
1, 345945, Note_off_c, 0, 52, 35
1, 345955, Control_c, 0, 64, 32
1, 345956, Note_on_c, 0, 70, 49
1, 345958, Note_off_c, 0, 61, 50
1, 345960, Note_off_c, 0, 58, 44
1, 345972, Note_on_c, 0, 67, 43
1, 345978, Control_c, 0, 64, 15
1, 345993, Control_c, 0, 64, 0
1, 346052, Control_c, 0, 64, 9
1, 346067, Control_c, 0, 64, 21
1, 346082, Control_c, 0, 64, 34
1, 346096, Control_c, 0, 64, 44
1, 346111, Control_c, 0, 64, 53
1, 346126, Control_c, 0, 64, 60
1, 346141, Control_c, 0, 64, 63
1, 346155, Control_c, 0, 64, 65
1, 346200, Control_c, 0, 64, 65
1, 346215, Control_c, 0, 64, 66
1, 346229, Control_c, 0, 64, 66
1, 346232, Note_off_c, 0, 51, 35
1, 346238, Note_on_c, 0, 62, 46
1, 346239, Note_on_c, 0, 50, 34
1, 346240, Note_on_c, 0, 58, 40
1, 346244, Control_c, 0, 64, 67
1, 346247, Note_off_c, 0, 67, 46
1, 346267, Note_off_c, 0, 70, 36
1, 346407, Control_c, 0, 64, 66
1, 346437, Control_c, 0, 64, 66
1, 346452, Control_c, 0, 64, 65
1, 346467, Control_c, 0, 64, 64
1, 346482, Control_c, 0, 64, 63
1, 346496, Control_c, 0, 64, 61
1, 346511, Control_c, 0, 64, 54
1, 346521, Note_on_c, 0, 70, 42
1, 346521, Note_off_c, 0, 50, 39
1, 346526, Control_c, 0, 64, 43
1, 346530, Note_on_c, 0, 67, 41
1, 346533, Note_on_c, 0, 49, 31
1, 346533, Note_off_c, 0, 58, 40
1, 346533, Note_off_c, 0, 62, 35
1, 346540, Control_c, 0, 64, 31
1, 346555, Control_c, 0, 64, 25
1, 346570, Control_c, 0, 64, 24
1, 346585, Control_c, 0, 64, 25
1, 346601, Control_c, 0, 64, 27
1, 346616, Control_c, 0, 64, 34
1, 346631, Control_c, 0, 64, 44
1, 346645, Control_c, 0, 64, 56
1, 346660, Control_c, 0, 64, 63
1, 346675, Control_c, 0, 64, 68
1, 346690, Control_c, 0, 64, 70
1, 346815, Note_on_c, 0, 58, 37
1, 346819, Note_on_c, 0, 51, 45
1, 346820, Note_on_c, 0, 63, 41
1, 346842, Note_off_c, 0, 49, 47
1, 346848, Note_off_c, 0, 70, 41
1, 346853, Note_off_c, 0, 67, 36
1, 346875, Control_c, 0, 64, 70
1, 346934, Control_c, 0, 64, 69
1, 346978, Control_c, 0, 64, 69
1, 346993, Control_c, 0, 64, 68
1, 347023, Control_c, 0, 64, 67
1, 347038, Control_c, 0, 64, 66
1, 347052, Control_c, 0, 64, 65
1, 347067, Control_c, 0, 64, 64
1, 347082, Control_c, 0, 64, 63
1, 347097, Control_c, 0, 64, 61
1, 347108, Note_off_c, 0, 51, 34
1, 347112, Control_c, 0, 64, 56
1, 347123, Note_on_c, 0, 49, 40
1, 347126, Control_c, 0, 64, 44
1, 347134, Note_on_c, 0, 70, 38
1, 347134, Note_off_c, 0, 58, 40
1, 347141, Control_c, 0, 64, 31
1, 347151, Note_on_c, 0, 67, 32
1, 347156, Control_c, 0, 64, 21
1, 347160, Note_off_c, 0, 63, 45
1, 347171, Control_c, 0, 64, 14
1, 347186, Control_c, 0, 64, 9
1, 347200, Control_c, 0, 64, 0
1, 347230, Control_c, 0, 64, 13
1, 347245, Control_c, 0, 64, 23
1, 347260, Control_c, 0, 64, 33
1, 347275, Control_c, 0, 64, 41
1, 347290, Control_c, 0, 64, 50
1, 347304, Control_c, 0, 64, 58
1, 347319, Control_c, 0, 64, 64
1, 347334, Control_c, 0, 64, 65
1, 347349, Control_c, 0, 67, 9
1, 347364, Control_c, 0, 64, 65
1, 347364, Control_c, 0, 67, 14
1, 347378, Control_c, 0, 64, 64
1, 347378, Control_c, 0, 67, 19
1, 347394, Control_c, 0, 64, 63
1, 347394, Control_c, 0, 67, 25
1, 347409, Control_c, 0, 64, 62
1, 347409, Control_c, 0, 67, 33
1, 347424, Control_c, 0, 64, 58
1, 347424, Control_c, 0, 67, 44
1, 347439, Control_c, 0, 64, 52
1, 347439, Control_c, 0, 67, 54
1, 347454, Control_c, 0, 64, 44
1, 347454, Control_c, 0, 67, 65
1, 347460, Note_off_c, 0, 49, 43
1, 347475, Control_c, 0, 64, 39
1, 347475, Control_c, 0, 67, 76
1, 347488, Note_off_c, 0, 67, 41
1, 347490, Control_c, 0, 64, 39
1, 347490, Control_c, 0, 67, 86
1, 347505, Note_on_c, 0, 64, 38
1, 347505, Control_c, 0, 64, 40
1, 347505, Control_c, 0, 67, 95
1, 347510, Note_on_c, 0, 48, 33
1, 347510, Note_off_c, 0, 70, 36
1, 347516, Note_on_c, 0, 58, 30
1, 347520, Control_c, 0, 64, 42
1, 347520, Control_c, 0, 67, 103
1, 347535, Control_c, 0, 64, 47
1, 347535, Control_c, 0, 67, 112
1, 347549, Control_c, 0, 64, 54
1, 347549, Control_c, 0, 67, 122
1, 347564, Control_c, 0, 64, 61
1, 347564, Control_c, 0, 67, 127
1, 347579, Control_c, 0, 64, 66
1, 347594, Control_c, 0, 64, 71
1, 347609, Control_c, 0, 64, 71
1, 347645, Note_off_c, 0, 58, 44
1, 347668, Control_c, 0, 64, 71
1, 347670, Note_off_c, 0, 48, 51
1, 347685, Note_off_c, 0, 64, 34
1, 347698, Control_c, 0, 64, 70
1, 347713, Control_c, 0, 64, 69
1, 347727, Control_c, 0, 64, 68
1, 347742, Control_c, 0, 64, 67
1, 347757, Control_c, 0, 64, 67
1, 347772, Control_c, 0, 64, 66
1, 347787, Control_c, 0, 64, 65
1, 347801, Control_c, 0, 64, 64
1, 347816, Control_c, 0, 64, 63
1, 347831, Control_c, 0, 64, 63
1, 347846, Control_c, 0, 64, 62
1, 347861, Control_c, 0, 64, 61
1, 347875, Control_c, 0, 64, 61
1, 347905, Control_c, 0, 64, 60
1, 347964, Control_c, 0, 64, 60
1, 348008, Control_c, 0, 64, 59
1, 348023, Control_c, 0, 64, 59
1, 348038, Control_c, 0, 64, 58
1, 348053, Control_c, 0, 64, 57
1, 348068, Control_c, 0, 64, 56
1, 348083, Control_c, 0, 64, 54
1, 348098, Control_c, 0, 64, 52
1, 348112, Note_on_c, 0, 71, 42
1, 348113, Note_on_c, 0, 55, 33
1, 348113, Control_c, 0, 64, 47
1, 348114, Note_on_c, 0, 47, 38
1, 348116, Note_on_c, 0, 64, 40
1, 348127, Control_c, 0, 64, 40
1, 348129, Note_on_c, 0, 59, 24
1, 348142, Control_c, 0, 64, 32
1, 348157, Control_c, 0, 64, 21
1, 348172, Control_c, 0, 64, 0
1, 348298, Control_c, 0, 64, 19
1, 348313, Control_c, 0, 64, 28
1, 348328, Control_c, 0, 64, 36
1, 348343, Control_c, 0, 64, 45
1, 348357, Control_c, 0, 64, 54
1, 348372, Control_c, 0, 64, 61
1, 348387, Control_c, 0, 64, 65
1, 348402, Control_c, 0, 64, 65
1, 348423, Note_off_c, 0, 55, 52
1, 348440, Note_off_c, 0, 47, 45
1, 348453, Note_off_c, 0, 71, 62
1, 348461, Note_off_c, 0, 64, 49
1, 348461, Control_c, 0, 64, 64
1, 348464, Note_off_c, 0, 59, 39
1, 348476, Control_c, 0, 64, 63
1, 348491, Control_c, 0, 64, 63
1, 348506, Control_c, 0, 64, 61
1, 348521, Control_c, 0, 64, 60
1, 348536, Control_c, 0, 64, 58
1, 348550, Control_c, 0, 64, 56
1, 348565, Control_c, 0, 64, 55
1, 348580, Control_c, 0, 64, 54
1, 348595, Control_c, 0, 64, 53
1, 348610, Control_c, 0, 64, 51
1, 348624, Control_c, 0, 64, 50
1, 348639, Control_c, 0, 64, 49
1, 348654, Control_c, 0, 64, 47
1, 348669, Control_c, 0, 64, 46
1, 348684, Control_c, 0, 64, 44
1, 348698, Control_c, 0, 64, 42
1, 348713, Control_c, 0, 64, 39
1, 348728, Control_c, 0, 64, 35
1, 348742, Control_c, 0, 64, 31
1, 348757, Control_c, 0, 64, 25
1, 348772, Control_c, 0, 64, 21
1, 348787, Control_c, 0, 64, 17
1, 348802, Control_c, 0, 64, 14
1, 348816, Control_c, 0, 64, 13
1, 348831, Control_c, 0, 64, 13
1, 349107, Control_c, 0, 64, 13
1, 349130, Note_on_c, 0, 72, 48
1, 349131, Note_on_c, 0, 55, 30
1, 349138, Note_on_c, 0, 46, 32
1, 349138, Note_on_c, 0, 64, 35
1, 349143, Note_on_c, 0, 60, 30
1, 349166, Control_c, 0, 64, 14
1, 349195, Control_c, 0, 64, 14
1, 349225, Control_c, 0, 64, 15
1, 349240, Control_c, 0, 64, 16
1, 349254, Control_c, 0, 64, 16
1, 349269, Control_c, 0, 64, 18
1, 349284, Control_c, 0, 64, 19
1, 349299, Control_c, 0, 64, 21
1, 349314, Control_c, 0, 64, 22
1, 349329, Control_c, 0, 64, 25
1, 349344, Control_c, 0, 64, 29
1, 349359, Control_c, 0, 64, 33
1, 349373, Control_c, 0, 64, 37
1, 349388, Control_c, 0, 64, 41
1, 349403, Control_c, 0, 64, 45
1, 349418, Control_c, 0, 64, 49
1, 349433, Control_c, 0, 64, 52
1, 349447, Control_c, 0, 64, 54
1, 349462, Control_c, 0, 64, 55
1, 349477, Control_c, 0, 64, 56
1, 349491, Control_c, 0, 64, 57
1, 349506, Control_c, 0, 64, 58
1, 349521, Control_c, 0, 64, 58
1, 349576, Note_off_c, 0, 60, 39
1, 349580, Control_c, 0, 64, 58
1, 349582, Note_off_c, 0, 55, 40
1, 349625, Control_c, 0, 64, 57
1, 349639, Control_c, 0, 64, 57
1, 349646, Note_off_c, 0, 46, 38
1, 349661, Note_off_c, 0, 72, 31
1, 349669, Control_c, 0, 64, 56
1, 349689, Note_off_c, 0, 64, 38
1, 349698, Control_c, 0, 64, 55
1, 349721, Control_c, 0, 64, 55
1, 349736, Control_c, 0, 64, 54
1, 349751, Control_c, 0, 64, 54
1, 349765, Control_c, 0, 64, 53
1, 349780, Control_c, 0, 64, 53
1, 349796, Control_c, 0, 64, 52
1, 349811, Control_c, 0, 64, 52
1, 349826, Control_c, 0, 64, 51
1, 349841, Control_c, 0, 64, 50
1, 349856, Control_c, 0, 64, 50
1, 349870, Control_c, 0, 64, 49
1, 349900, Control_c, 0, 64, 48
1, 349915, Control_c, 0, 64, 47
1, 349929, Control_c, 0, 64, 46
1, 349944, Control_c, 0, 64, 45
1, 349959, Control_c, 0, 64, 45
1, 349974, Control_c, 0, 64, 44
1, 349989, Control_c, 0, 64, 43
1, 350003, Control_c, 0, 64, 43
1, 350018, Control_c, 0, 64, 42
1, 350033, Control_c, 0, 64, 41
1, 350048, Control_c, 0, 64, 40
1, 350063, Control_c, 0, 64, 39
1, 350077, Control_c, 0, 64, 37
1, 350092, Control_c, 0, 64, 35
1, 350107, Control_c, 0, 64, 34
1, 350122, Control_c, 0, 64, 33
1, 350137, Control_c, 0, 64, 32
1, 350151, Control_c, 0, 64, 31
1, 350166, Control_c, 0, 64, 30
1, 350181, Control_c, 0, 64, 29
1, 350196, Control_c, 0, 64, 29
1, 350211, Control_c, 0, 64, 28
1, 350226, Control_c, 0, 64, 27
1, 350241, Control_c, 0, 64, 26
1, 350256, Control_c, 0, 64, 25
1, 350270, Control_c, 0, 64, 24
1, 350285, Control_c, 0, 64, 23
1, 350300, Control_c, 0, 64, 22
1, 350314, Control_c, 0, 64, 22
1, 350329, Control_c, 0, 64, 21
1, 350344, Control_c, 0, 64, 20
1, 350359, Control_c, 0, 64, 19
1, 350374, Control_c, 0, 64, 18
1, 350388, Control_c, 0, 64, 18
1, 350403, Control_c, 0, 64, 17
1, 350418, Control_c, 0, 64, 16
1, 350433, Control_c, 0, 64, 15
1, 350433, Control_c, 0, 67, 125
1, 350448, Control_c, 0, 64, 15
1, 350448, Control_c, 0, 67, 116
1, 350470, Control_c, 0, 64, 14
1, 350470, Control_c, 0, 67, 107
1, 350485, Control_c, 0, 64, 13
1, 350485, Control_c, 0, 67, 96
1, 350500, Control_c, 0, 64, 12
1, 350500, Control_c, 0, 67, 85
1, 350514, Control_c, 0, 64, 11
1, 350514, Control_c, 0, 67, 74
1, 350529, Control_c, 0, 64, 10
1, 350529, Control_c, 0, 67, 64
1, 350544, Control_c, 0, 64, 10
1, 350544, Control_c, 0, 67, 53
1, 350559, Control_c, 0, 64, 9
1, 350559, Control_c, 0, 67, 44
1, 350574, Control_c, 0, 64, 8
1, 350574, Control_c, 0, 67, 35
1, 350590, Control_c, 0, 64, 0
1, 350590, Control_c, 0, 67, 28
1, 350605, Control_c, 0, 67, 20
1, 350619, Control_c, 0, 67, 15
1, 350634, Control_c, 0, 67, 9
1, 350649, Control_c, 0, 67, 0
1, 352021, Note_on_c, 0, 60, 38
1, 352465, Note_on_c, 0, 61, 55
1, 352635, Note_off_c, 0, 60, 53
1, 353440, Note_on_c, 0, 64, 50
1, 353693, Note_off_c, 0, 61, 45
1, 353955, Control_c, 0, 64, 8
1, 353969, Control_c, 0, 64, 10
1, 353984, Control_c, 0, 64, 11
1, 353999, Control_c, 0, 64, 13
1, 354014, Control_c, 0, 64, 14
1, 354029, Control_c, 0, 64, 16
1, 354043, Control_c, 0, 64, 17
1, 354058, Control_c, 0, 64, 18
1, 354073, Control_c, 0, 64, 20
1, 354087, Control_c, 0, 64, 20
1, 354102, Control_c, 0, 64, 21
1, 354117, Control_c, 0, 64, 22
1, 354132, Control_c, 0, 64, 23
1, 354147, Control_c, 0, 64, 23
1, 354161, Control_c, 0, 64, 24
1, 354191, Control_c, 0, 64, 24
1, 354229, Control_c, 0, 64, 25
1, 354243, Control_c, 0, 67, 8
1, 354258, Control_c, 0, 64, 25
1, 354258, Control_c, 0, 67, 10
1, 354273, Control_c, 0, 67, 14
1, 354287, Control_c, 0, 67, 18
1, 354302, Control_c, 0, 67, 22
1, 354317, Control_c, 0, 64, 26
1, 354317, Control_c, 0, 67, 28
1, 354332, Control_c, 0, 67, 34
1, 354347, Control_c, 0, 64, 26
1, 354347, Control_c, 0, 67, 40
1, 354361, Control_c, 0, 64, 27
1, 354361, Control_c, 0, 67, 46
1, 354376, Control_c, 0, 67, 54
1, 354391, Control_c, 0, 64, 27
1, 354391, Control_c, 0, 67, 61
1, 354406, Control_c, 0, 64, 28
1, 354406, Control_c, 0, 67, 69
1, 354421, Control_c, 0, 64, 29
1, 354421, Control_c, 0, 67, 76
1, 354435, Control_c, 0, 64, 29
1, 354435, Control_c, 0, 67, 84
1, 354450, Control_c, 0, 64, 30
1, 354450, Control_c, 0, 67, 92
1, 354465, Control_c, 0, 64, 32
1, 354465, Control_c, 0, 67, 102
1, 354480, Control_c, 0, 64, 33
1, 354480, Control_c, 0, 67, 110
1, 354495, Control_c, 0, 64, 34
1, 354495, Control_c, 0, 67, 118
1, 354510, Control_c, 0, 64, 35
1, 354510, Control_c, 0, 67, 126
1, 354524, Control_c, 0, 64, 37
1, 354524, Control_c, 0, 67, 127
1, 354539, Control_c, 0, 64, 38
1, 354554, Control_c, 0, 64, 40
1, 354569, Control_c, 0, 64, 42
1, 354584, Control_c, 0, 64, 43
1, 354599, Control_c, 0, 64, 45
1, 354614, Control_c, 0, 64, 47
1, 354629, Control_c, 0, 64, 48
1, 354644, Control_c, 0, 64, 49
1, 354659, Control_c, 0, 64, 51
1, 354674, Control_c, 0, 64, 52
1, 354688, Control_c, 0, 64, 53
1, 354703, Control_c, 0, 64, 54
1, 354718, Control_c, 0, 64, 55
1, 354733, Control_c, 0, 64, 56
1, 354748, Control_c, 0, 64, 57
1, 354763, Control_c, 0, 64, 58
1, 354778, Control_c, 0, 64, 58
1, 354792, Control_c, 0, 64, 59
1, 354807, Control_c, 0, 64, 59
1, 354822, Control_c, 0, 64, 60
1, 355081, Control_c, 0, 64, 59
1, 355140, Control_c, 0, 64, 59
1, 355155, Control_c, 0, 64, 58
1, 355199, Control_c, 0, 64, 58
1, 355214, Control_c, 0, 64, 57
1, 355243, Control_c, 0, 64, 57
1, 355288, Control_c, 0, 64, 56
1, 355303, Control_c, 0, 64, 56
1, 355313, Note_on_c, 0, 63, 40
1, 355317, Control_c, 0, 64, 55
1, 355332, Control_c, 0, 64, 55
1, 355347, Control_c, 0, 64, 54
1, 355362, Control_c, 0, 64, 54
1, 355377, Control_c, 0, 64, 53
1, 355385, Note_off_c, 0, 64, 35
1, 355393, Control_c, 0, 64, 52
1, 355407, Control_c, 0, 64, 51
1, 355422, Control_c, 0, 64, 49
1, 355437, Control_c, 0, 64, 45
1, 355452, Control_c, 0, 64, 39
1, 355467, Control_c, 0, 64, 31
1, 355481, Control_c, 0, 64, 23
1, 355496, Control_c, 0, 64, 18
1, 355511, Control_c, 0, 64, 15
1, 355526, Control_c, 0, 64, 14
1, 355571, Control_c, 0, 64, 16
1, 355586, Control_c, 0, 64, 21
1, 355601, Control_c, 0, 64, 25
1, 355615, Control_c, 0, 64, 31
1, 355630, Control_c, 0, 64, 37
1, 355645, Control_c, 0, 64, 43
1, 355660, Control_c, 0, 64, 48
1, 355675, Control_c, 0, 64, 52
1, 355689, Control_c, 0, 64, 55
1, 355704, Control_c, 0, 64, 57
1, 355726, Control_c, 0, 64, 60
1, 355741, Control_c, 0, 64, 61
1, 355756, Control_c, 0, 64, 63
1, 355771, Control_c, 0, 64, 64
1, 355785, Control_c, 0, 64, 66
1, 355800, Control_c, 0, 64, 66
1, 355815, Control_c, 0, 64, 67
1, 355830, Control_c, 0, 64, 68
1, 355845, Control_c, 0, 64, 69
1, 355859, Control_c, 0, 64, 70
1, 355874, Control_c, 0, 64, 71
1, 355889, Control_c, 0, 64, 71
1, 355904, Control_c, 0, 64, 72
1, 355919, Control_c, 0, 64, 73
1, 355933, Control_c, 0, 64, 74
1, 355948, Control_c, 0, 64, 74
1, 355978, Control_c, 0, 64, 75
1, 356274, Control_c, 0, 64, 74
1, 356346, Note_on_c, 0, 70, 44
1, 356349, Control_c, 0, 64, 74
1, 356438, Control_c, 0, 64, 73
1, 356475, Control_c, 0, 64, 73
1, 356489, Control_c, 0, 64, 72
1, 356500, Note_on_c, 0, 43, 25
1, 356519, Control_c, 0, 64, 71
1, 356528, Note_off_c, 0, 63, 45
1, 356534, Control_c, 0, 64, 70
1, 356549, Control_c, 0, 64, 70
1, 356563, Control_c, 0, 64, 68
1, 356578, Control_c, 0, 64, 66
1, 356593, Control_c, 0, 64, 63
1, 356608, Control_c, 0, 64, 58
1, 356623, Control_c, 0, 64, 49
1, 356638, Control_c, 0, 64, 40
1, 356653, Control_c, 0, 64, 34
1, 356668, Control_c, 0, 64, 33
1, 356697, Control_c, 0, 64, 34
1, 356712, Control_c, 0, 64, 38
1, 356727, Control_c, 0, 64, 45
1, 356742, Control_c, 0, 64, 55
1, 356756, Control_c, 0, 64, 62
1, 356771, Control_c, 0, 64, 67
1, 356786, Control_c, 0, 64, 68
1, 356801, Control_c, 0, 64, 69
1, 356816, Control_c, 0, 64, 72
1, 356830, Control_c, 0, 64, 78
1, 356845, Control_c, 0, 64, 87
1, 356855, Note_off_c, 0, 43, 47
1, 356860, Control_c, 0, 64, 97
1, 356875, Control_c, 0, 64, 108
1, 356889, Control_c, 0, 64, 117
1, 356904, Control_c, 0, 64, 127
1, 357384, Note_on_c, 0, 58, 33
1, 357386, Note_on_c, 0, 51, 20
1, 357386, Note_on_c, 0, 61, 27
1, 357389, Note_on_c, 0, 63, 29
1, 357818, Note_off_c, 0, 58, 38
1, 357842, Note_off_c, 0, 61, 40
1, 357883, Note_off_c, 0, 51, 39
1, 357919, Note_off_c, 0, 63, 40
1, 358164, Note_off_c, 0, 70, 17
1, 358188, Note_on_c, 0, 63, 15
1, 358197, Note_on_c, 0, 58, 32
1, 358197, Note_on_c, 0, 61, 28
1, 358212, Note_on_c, 0, 51, 17
1, 358361, Note_off_c, 0, 63, 42
1, 358366, Note_off_c, 0, 61, 44
1, 358370, Note_off_c, 0, 58, 40
1, 358370, Note_off_c, 0, 51, 41
1, 358535, Note_on_c, 0, 58, 29
1, 358545, Note_on_c, 0, 68, 48
1, 358568, Note_on_c, 0, 51, 19
1, 358573, Note_on_c, 0, 61, 22
1, 358573, Note_on_c, 0, 63, 17
1, 358739, Note_off_c, 0, 58, 40
1, 358744, Note_off_c, 0, 61, 46
1, 358749, Note_off_c, 0, 63, 46
1, 358778, Note_off_c, 0, 51, 42
1, 358907, Note_on_c, 0, 58, 31
1, 358909, Note_on_c, 0, 51, 31
1, 358952, Note_on_c, 0, 61, 22
1, 358955, Poly_aftertouch_c, 0, 63, 127
1, 359005, Poly_aftertouch_c, 0, 63, 0
1, 359015, Note_off_c, 0, 61, 49
1, 359033, Note_off_c, 0, 58, 59
1, 359067, Note_off_c, 0, 51, 39
1, 359117, Note_on_c, 0, 70, 51
1, 359374, Control_c, 0, 64, 104
1, 359389, Control_c, 0, 64, 95
1, 359404, Control_c, 0, 64, 90
1, 359419, Control_c, 0, 64, 84
1, 359426, Note_on_c, 0, 44, 34
1, 359434, Control_c, 0, 64, 79
1, 359439, Note_off_c, 0, 70, 52
1, 359443, Note_on_c, 0, 71, 49
1, 359455, Control_c, 0, 64, 70
1, 359462, Note_off_c, 0, 68, 38
1, 359470, Control_c, 0, 64, 63
1, 359485, Control_c, 0, 64, 54
1, 359500, Control_c, 0, 64, 35
1, 359515, Control_c, 0, 64, 0
1, 359619, Control_c, 0, 64, 30
1, 359634, Control_c, 0, 64, 47
1, 359649, Control_c, 0, 64, 64
1, 359659, Note_off_c, 0, 44, 55
1, 359663, Control_c, 0, 64, 94
1, 359678, Control_c, 0, 64, 127
1, 359785, Note_on_c, 0, 70, 49
1, 359798, Note_off_c, 0, 71, 59
1, 359962, Note_off_c, 0, 70, 57
1, 359980, Note_on_c, 0, 68, 49
1, 359985, Note_on_c, 0, 59, 35
1, 359996, Note_on_c, 0, 56, 32
1, 360000, Note_on_c, 0, 51, 28
1, 360007, Note_on_c, 0, 63, 20
1, 360156, Note_on_c, 0, 76, 52
1, 360266, Note_off_c, 0, 59, 40
1, 360267, Note_off_c, 0, 63, 40
1, 360278, Note_off_c, 0, 56, 42
1, 360340, Note_off_c, 0, 51, 38
1, 360362, Note_on_c, 0, 75, 48
1, 360425, Note_off_c, 0, 68, 31
1, 360445, Note_off_c, 0, 76, 34
1, 360695, Note_on_c, 0, 59, 32
1, 360696, Note_on_c, 0, 56, 29
1, 360700, Note_on_c, 0, 51, 21
1, 360704, Note_on_c, 0, 63, 27
1, 360818, Note_off_c, 0, 75, 30
1, 360846, Note_off_c, 0, 56, 44
1, 360851, Note_off_c, 0, 59, 42
1, 360855, Note_off_c, 0, 63, 46
1, 360861, Note_off_c, 0, 51, 42
1, 361014, Note_on_c, 0, 56, 25
1, 361014, Note_on_c, 0, 63, 22
1, 361016, Note_on_c, 0, 59, 25
1, 361029, Note_on_c, 0, 51, 9
1, 361173, Note_off_c, 0, 56, 43
1, 361177, Note_off_c, 0, 59, 41
1, 361183, Note_off_c, 0, 51, 41
1, 361187, Note_off_c, 0, 63, 46
1, 361338, Note_on_c, 0, 56, 31
1, 361349, Note_on_c, 0, 63, 16
1, 361353, Note_on_c, 0, 51, 12
1, 361369, Note_on_c, 0, 59, 18
1, 361401, Note_off_c, 0, 63, 48
1, 361418, Note_off_c, 0, 59, 47
1, 361473, Note_off_c, 0, 56, 36
1, 361491, Note_off_c, 0, 51, 44
1, 361863, Note_on_c, 0, 43, 35
1, 361931, Note_on_c, 0, 70, 46
1, 361939, Control_c, 0, 64, 110
1, 361954, Control_c, 0, 64, 96
1, 361969, Control_c, 0, 64, 80
1, 361983, Control_c, 0, 64, 66
1, 361998, Control_c, 0, 64, 53
1, 362013, Control_c, 0, 64, 32
1, 362027, Control_c, 0, 64, 0
1, 362057, Control_c, 0, 64, 15
1, 362072, Control_c, 0, 64, 31
1, 362087, Control_c, 0, 64, 47
1, 362102, Control_c, 0, 64, 63
1, 362117, Control_c, 0, 64, 105
1, 362132, Control_c, 0, 64, 127
1, 362155, Note_off_c, 0, 43, 41
1, 362534, Note_on_c, 0, 63, 27
1, 362538, Note_on_c, 0, 58, 30
1, 362540, Note_on_c, 0, 61, 20
1, 362540, Note_on_c, 0, 51, 33
1, 362713, Note_off_c, 0, 61, 44
1, 362717, Note_off_c, 0, 51, 41
1, 362732, Note_off_c, 0, 58, 38
1, 362742, Note_off_c, 0, 63, 44
1, 362916, Note_on_c, 0, 58, 23
1, 362926, Note_on_c, 0, 63, 26
1, 362933, Note_on_c, 0, 61, 35
1, 362944, Note_on_c, 0, 51, 30
1, 362993, Note_off_c, 0, 70, 25
1, 363071, Note_off_c, 0, 61, 37
1, 363082, Note_off_c, 0, 58, 40
1, 363090, Note_off_c, 0, 51, 41
1, 363094, Note_off_c, 0, 63, 42
1, 363235, Note_on_c, 0, 58, 38
1, 363243, Note_on_c, 0, 63, 21
1, 363246, Note_on_c, 0, 51, 36
1, 363253, Note_on_c, 0, 61, 26
1, 363366, Note_off_c, 0, 61, 37
1, 363372, Note_off_c, 0, 51, 34
1, 363383, Note_off_c, 0, 58, 34
1, 363396, Note_off_c, 0, 63, 43
1, 363560, Note_on_c, 0, 68, 50
1, 363575, Note_on_c, 0, 58, 19
1, 363587, Note_on_c, 0, 51, 13
1, 363604, Note_on_c, 0, 61, 26
1, 363604, Poly_aftertouch_c, 0, 63, 127
1, 363738, Note_off_c, 0, 51, 42
1, 363751, Poly_aftertouch_c, 0, 63, 0
1, 363752, Note_off_c, 0, 58, 42
1, 363757, Note_off_c, 0, 61, 46
1, 363904, Note_on_c, 0, 58, 33
1, 363919, Note_on_c, 0, 63, 22
1, 363928, Note_on_c, 0, 61, 22
1, 363931, Note_on_c, 0, 51, 29
1, 363973, Note_off_c, 0, 63, 51
1, 363995, Note_off_c, 0, 61, 54
1, 364069, Note_off_c, 0, 51, 51
1, 364077, Note_off_c, 0, 58, 34
1, 364129, Note_on_c, 0, 70, 51
1, 364368, Note_off_c, 0, 68, 33
1, 364378, Control_c, 0, 64, 107
1, 364382, Note_on_c, 0, 44, 35
1, 364393, Control_c, 0, 64, 97
1, 364408, Control_c, 0, 64, 90
1, 364422, Control_c, 0, 64, 83
1, 364437, Control_c, 0, 64, 79
1, 364452, Control_c, 0, 64, 73
1, 364467, Control_c, 0, 64, 66
1, 364468, Note_on_c, 0, 71, 47
1, 364481, Control_c, 0, 64, 57
1, 364493, Note_off_c, 0, 70, 51
1, 364496, Control_c, 0, 64, 35
1, 364511, Control_c, 0, 64, 0
1, 364614, Control_c, 0, 64, 31
1, 364629, Control_c, 0, 64, 46
1, 364644, Control_c, 0, 64, 61
1, 364659, Control_c, 0, 64, 81
1, 364671, Note_off_c, 0, 44, 55
1, 364674, Control_c, 0, 64, 127
1, 364748, Note_off_c, 0, 71, 62
1, 364773, Note_on_c, 0, 68, 54
1, 365005, Note_on_c, 0, 56, 28
1, 365008, Note_on_c, 0, 59, 31
1, 365009, Note_on_c, 0, 63, 27
1, 365018, Note_on_c, 0, 51, 21
1, 365098, Note_on_c, 0, 78, 53
1, 365324, Note_on_c, 0, 76, 50
1, 365417, Note_off_c, 0, 78, 33
1, 365496, Note_on_c, 0, 75, 54
1, 365498, Note_off_c, 0, 68, 25
1, 365530, Note_off_c, 0, 76, 54
1, 365566, Note_off_c, 0, 75, 59
1, 365576, Note_off_c, 0, 56, 32
1, 365593, Note_off_c, 0, 59, 33
1, 365610, Note_off_c, 0, 63, 37
1, 365678, Note_on_c, 0, 75, 40
1, 365685, Note_off_c, 0, 51, 40
1, 366012, Note_on_c, 0, 56, 31
1, 366019, Note_on_c, 0, 63, 26
1, 366026, Note_on_c, 0, 59, 34
1, 366039, Note_on_c, 0, 51, 21
1, 366197, Note_off_c, 0, 51, 42
1, 366203, Note_off_c, 0, 59, 45
1, 366204, Note_off_c, 0, 56, 44
1, 366207, Note_off_c, 0, 63, 47
1, 366234, Note_off_c, 0, 75, 37
1, 366345, Note_on_c, 0, 56, 35
1, 366348, Note_on_c, 0, 59, 31
1, 366350, Note_on_c, 0, 63, 29
1, 366359, Note_on_c, 0, 51, 27
1, 366495, Note_off_c, 0, 56, 49
1, 366498, Note_off_c, 0, 59, 41
1, 366502, Note_off_c, 0, 51, 0
1, 366515, Note_off_c, 0, 63, 42
1, 366522, Poly_aftertouch_c, 0, 51, 0
1, 366633, Note_on_c, 0, 56, 41
1, 366633, Note_on_c, 0, 59, 42
1, 366648, Note_on_c, 0, 51, 49
1, 366669, Note_off_c, 0, 59, 62
1, 366678, Note_off_c, 0, 56, 62
1, 366700, Note_off_c, 0, 51, 62
1, 366758, Control_c, 0, 67, 125
1, 366772, Control_c, 0, 67, 119
1, 366787, Control_c, 0, 67, 111
1, 366802, Control_c, 0, 67, 103
1, 366816, Control_c, 0, 67, 94
1, 366831, Control_c, 0, 67, 80
1, 366846, Control_c, 0, 67, 64
1, 366861, Control_c, 0, 67, 47
1, 366876, Control_c, 0, 67, 27
1, 366890, Control_c, 0, 67, 9
1, 366905, Control_c, 0, 67, 0
1, 367044, Note_on_c, 0, 35, 38
1, 367057, Note_on_c, 0, 47, 43
1, 367157, Note_on_c, 0, 75, 66
1, 367179, Control_c, 0, 64, 108
1, 367194, Control_c, 0, 64, 75
1, 367209, Control_c, 0, 64, 61
1, 367223, Control_c, 0, 64, 43
1, 367238, Control_c, 0, 64, 0
1, 367298, Control_c, 0, 64, 29
1, 367313, Control_c, 0, 64, 48
1, 367327, Control_c, 0, 64, 70
1, 367336, Note_off_c, 0, 35, 54
1, 367342, Control_c, 0, 64, 127
1, 367363, Note_off_c, 0, 47, 51
1, 367649, Note_on_c, 0, 63, 45
1, 367651, Note_on_c, 0, 59, 43
1, 367665, Note_on_c, 0, 54, 42
1, 367687, Note_on_c, 0, 51, 30
1, 367775, Note_off_c, 0, 75, 31
1, 367823, Note_off_c, 0, 63, 49
1, 367833, Note_off_c, 0, 59, 49
1, 367848, Note_off_c, 0, 54, 43
1, 367850, Note_off_c, 0, 51, 47
1, 367974, Note_on_c, 0, 59, 45
1, 367980, Note_on_c, 0, 51, 37
1, 367980, Note_on_c, 0, 54, 43
1, 367983, Note_on_c, 0, 63, 41
1, 368100, Note_off_c, 0, 54, 58
1, 368127, Note_off_c, 0, 63, 51
1, 368138, Note_off_c, 0, 59, 36
1, 368143, Note_off_c, 0, 51, 44
1, 368272, Note_on_c, 0, 63, 33
1, 368272, Note_on_c, 0, 54, 36
1, 368281, Note_on_c, 0, 59, 38
1, 368295, Note_on_c, 0, 51, 35
1, 368299, Note_on_c, 0, 73, 61
1, 368506, Note_off_c, 0, 51, 36
1, 368510, Note_off_c, 0, 54, 41
1, 368510, Note_off_c, 0, 63, 48
1, 368517, Note_off_c, 0, 59, 41
1, 368541, Note_on_c, 0, 71, 71
1, 368544, Note_off_c, 0, 73, 63
1, 368696, Note_on_c, 0, 54, 40
1, 368696, Note_on_c, 0, 63, 35
1, 368697, Note_on_c, 0, 59, 40
1, 368716, Note_on_c, 0, 51, 30
1, 368716, Note_on_c, 0, 70, 71
1, 368779, Note_off_c, 0, 71, 61
1, 368859, Note_off_c, 0, 54, 48
1, 368860, Note_off_c, 0, 51, 34
1, 368861, Note_on_c, 0, 73, 73
1, 368893, Note_off_c, 0, 63, 40
1, 368916, Note_off_c, 0, 70, 62
1, 368922, Note_off_c, 0, 59, 56
1, 368994, Note_on_c, 0, 59, 39
1, 369004, Note_on_c, 0, 51, 57
1, 369006, Note_on_c, 0, 55, 54
1, 369008, Note_on_c, 0, 71, 76
1, 369014, Note_on_c, 0, 63, 26
1, 369058, Note_off_c, 0, 63, 54
1, 369065, Note_off_c, 0, 73, 61
1, 369074, Note_off_c, 0, 59, 59
1, 369084, Note_off_c, 0, 55, 62
1, 369107, Note_off_c, 0, 51, 64
1, 369148, Note_on_c, 0, 70, 84
1, 369205, Note_off_c, 0, 71, 64
1, 369252, Note_off_c, 0, 70, 59
1, 369368, Note_on_c, 0, 52, 67
1, 369372, Note_on_c, 0, 70, 78
1, 369377, Note_on_c, 0, 40, 61
1, 369411, Control_c, 0, 64, 74
1, 369426, Control_c, 0, 64, 56
1, 369441, Control_c, 0, 64, 29
1, 369456, Control_c, 0, 64, 0
1, 369482, Note_off_c, 0, 40, 64
1, 369500, Control_c, 0, 64, 22
1, 369515, Control_c, 0, 64, 45
1, 369530, Control_c, 0, 64, 66
1, 369545, Control_c, 0, 64, 127
1, 369819, Note_on_c, 0, 56, 59
1, 369827, Note_on_c, 0, 64, 60
1, 369828, Note_on_c, 0, 59, 43
1, 369833, Note_off_c, 0, 70, 41
1, 369955, Note_on_c, 0, 68, 80
1, 369970, Note_off_c, 0, 59, 60
1, 369974, Note_off_c, 0, 64, 54
1, 369977, Note_off_c, 0, 56, 64
1, 370135, Note_on_c, 0, 64, 43
1, 370146, Note_on_c, 0, 59, 39
1, 370155, Note_on_c, 0, 56, 37
1, 370229, Note_on_c, 0, 80, 78
1, 370319, Note_off_c, 0, 68, 36
1, 370338, Note_off_c, 0, 56, 42
1, 370359, Note_off_c, 0, 59, 32
1, 370371, Note_off_c, 0, 64, 41
1, 370606, Note_on_c, 0, 56, 49
1, 370612, Note_on_c, 0, 64, 48
1, 370613, Note_on_c, 0, 59, 45
1, 370756, Note_off_c, 0, 56, 56
1, 370772, Note_off_c, 0, 64, 56
1, 370782, Note_off_c, 0, 59, 46
1, 370907, Note_on_c, 0, 56, 53
1, 370909, Note_on_c, 0, 59, 55
1, 370911, Note_on_c, 0, 64, 55
1, 371077, Note_off_c, 0, 59, 62
1, 371077, Note_off_c, 0, 56, 64
1, 371104, Note_off_c, 0, 64, 62
1, 371238, Note_on_c, 0, 64, 59
1, 371241, Note_on_c, 0, 60, 56
1, 371248, Note_on_c, 0, 56, 53
1, 371324, Control_c, 0, 64, 77
1, 371338, Control_c, 0, 64, 62
1, 371354, Control_c, 0, 64, 48
1, 371369, Control_c, 0, 64, 38
1, 371384, Control_c, 0, 64, 39
1, 371399, Control_c, 0, 64, 45
1, 371409, Note_on_c, 0, 78, 76
1, 371413, Control_c, 0, 64, 53
1, 371435, Control_c, 0, 64, 62
1, 371450, Control_c, 0, 64, 75
1, 371465, Control_c, 0, 64, 111
1, 371468, Note_off_c, 0, 80, 55
1, 371480, Note_off_c, 0, 52, 64
1, 371480, Control_c, 0, 64, 127
1, 371578, Note_off_c, 0, 78, 64
1, 371608, Note_off_c, 0, 60, 62
1, 371650, Note_on_c, 0, 52, 58
1, 371714, Note_on_c, 0, 78, 70
1, 371739, Note_off_c, 0, 56, 30
1, 371761, Control_c, 0, 64, 77
1, 371776, Control_c, 0, 64, 61
1, 371791, Control_c, 0, 64, 38
1, 371805, Control_c, 0, 64, 11
1, 371820, Control_c, 0, 64, 9
1, 371835, Control_c, 0, 64, 19
1, 371850, Control_c, 0, 64, 30
1, 371865, Control_c, 0, 64, 42
1, 371879, Control_c, 0, 64, 59
1, 371894, Control_c, 0, 64, 77
1, 371909, Control_c, 0, 64, 127
1, 371945, Note_on_c, 0, 76, 74
1, 371981, Note_off_c, 0, 64, 55
1, 372007, Note_off_c, 0, 78, 47
1, 372115, Note_on_c, 0, 72, 75
1, 372115, Note_on_c, 0, 61, 43
1, 372117, Note_on_c, 0, 56, 44
1, 372122, Note_on_c, 0, 64, 45
1, 372132, Note_off_c, 0, 76, 63
1, 372258, Note_on_c, 0, 73, 74
1, 372308, Note_off_c, 0, 72, 57
1, 372363, Note_off_c, 0, 56, 64
1, 372372, Note_off_c, 0, 61, 64
1, 372384, Note_off_c, 0, 64, 40
1, 372388, Note_on_c, 0, 76, 75
1, 372411, Note_off_c, 0, 73, 63
1, 372513, Note_off_c, 0, 76, 61
1, 372514, Note_on_c, 0, 75, 72
1, 372634, Note_on_c, 0, 61, 48
1, 372645, Note_on_c, 0, 64, 38
1, 372653, Note_on_c, 0, 56, 42
1, 372657, Note_on_c, 0, 70, 70
1, 372667, Note_off_c, 0, 52, 33
1, 372681, Note_off_c, 0, 75, 58
1, 372780, Note_off_c, 0, 70, 62
1, 372790, Note_off_c, 0, 64, 34
1, 372791, Note_on_c, 0, 71, 68
1, 372813, Note_off_c, 0, 61, 61
1, 372865, Note_off_c, 0, 56, 42
1, 372908, Note_on_c, 0, 52, 47
1, 372948, Control_c, 0, 64, 117
1, 372964, Control_c, 0, 64, 86
1, 372979, Control_c, 0, 64, 67
1, 372981, Note_on_c, 0, 75, 58
1, 372993, Control_c, 0, 64, 52
1, 373008, Control_c, 0, 64, 27
1, 373023, Control_c, 0, 64, 0
1, 373034, Note_off_c, 0, 71, 39
1, 373067, Control_c, 0, 64, 12
1, 373082, Control_c, 0, 64, 27
1, 373097, Control_c, 0, 64, 39
1, 373112, Control_c, 0, 64, 52
1, 373127, Control_c, 0, 64, 66
1, 373141, Control_c, 0, 64, 90
1, 373156, Control_c, 0, 64, 127
1, 373164, Note_on_c, 0, 73, 66
1, 373209, Note_off_c, 0, 75, 56
1, 373291, Note_off_c, 0, 52, 55
1, 373310, Note_on_c, 0, 61, 44
1, 373313, Note_on_c, 0, 67, 68
1, 373316, Note_off_c, 0, 73, 63
1, 373317, Note_on_c, 0, 56, 47
1, 373373, Note_off_c, 0, 61, 56
1, 373426, Note_off_c, 0, 56, 62
1, 373478, Note_on_c, 0, 68, 74
1, 373559, Note_off_c, 0, 67, 37
1, 373659, Control_c, 0, 64, 111
1, 373682, Control_c, 0, 64, 98
1, 373697, Control_c, 0, 64, 77
1, 373711, Control_c, 0, 64, 62
1, 373716, Note_on_c, 0, 70, 68
1, 373726, Control_c, 0, 64, 41
1, 373727, Note_on_c, 0, 51, 48
1, 373730, Note_on_c, 0, 39, 49
1, 373741, Control_c, 0, 64, 0
1, 373750, Note_off_c, 0, 68, 60
1, 373846, Control_c, 0, 64, 36
1, 373861, Control_c, 0, 64, 55
1, 373865, Note_off_c, 0, 39, 65
1, 373875, Control_c, 0, 64, 80
1, 373890, Control_c, 0, 64, 127
1, 373905, Note_off_c, 0, 51, 64
1, 374184, Note_on_c, 0, 63, 47
1, 374187, Note_on_c, 0, 67, 61
1, 374205, Note_on_c, 0, 58, 53
1, 374216, Note_on_c, 0, 55, 39
1, 374407, Note_off_c, 0, 70, 37
1, 374436, Note_off_c, 0, 67, 63
1, 374443, Note_off_c, 0, 58, 62
1, 374444, Note_off_c, 0, 63, 63
1, 374449, Note_off_c, 0, 55, 52
1, 374521, Note_on_c, 0, 63, 53
1, 374523, Note_on_c, 0, 67, 75
1, 374525, Note_on_c, 0, 58, 49
1, 374540, Note_on_c, 0, 55, 55
1, 374616, Note_off_c, 0, 55, 63
1, 374675, Note_off_c, 0, 67, 62
1, 374705, Note_off_c, 0, 63, 64
1, 374714, Note_off_c, 0, 58, 62
1, 374801, Note_on_c, 0, 66, 73
1, 374809, Note_on_c, 0, 63, 71
1, 374816, Note_on_c, 0, 58, 58
1, 374832, Note_on_c, 0, 54, 67
1, 374853, Note_off_c, 0, 66, 61
1, 374891, Note_off_c, 0, 63, 64
1, 374902, Note_off_c, 0, 54, 64
1, 374908, Note_off_c, 0, 58, 63
1, 375127, Control_c, 0, 64, 81
1, 375131, Note_on_c, 0, 49, 71
1, 375133, Note_on_c, 0, 71, 84
1, 375137, Note_on_c, 0, 37, 61
1, 375142, Control_c, 0, 64, 62
1, 375156, Control_c, 0, 64, 45
1, 375179, Control_c, 0, 64, 22
1, 375194, Control_c, 0, 64, 11
1, 375209, Control_c, 0, 64, 12
1, 375224, Control_c, 0, 64, 25
1, 375238, Control_c, 0, 64, 39
1, 375253, Control_c, 0, 64, 55
1, 375257, Note_off_c, 0, 37, 64
1, 375268, Control_c, 0, 64, 79
1, 375280, Note_off_c, 0, 49, 65
1, 375282, Control_c, 0, 64, 127
1, 375433, Note_on_c, 0, 64, 85
1, 375441, Note_on_c, 0, 58, 74
1, 375448, Note_on_c, 0, 54, 69
1, 375453, Note_off_c, 0, 64, 70
1, 375481, Note_off_c, 0, 58, 57
1, 375483, Note_off_c, 0, 54, 64
1, 375595, Note_on_c, 0, 73, 89
1, 375661, Note_off_c, 0, 71, 37
1, 375826, Note_on_c, 0, 47, 74
1, 375829, Note_on_c, 0, 75, 89
1, 375830, Note_on_c, 0, 35, 68
1, 375832, Control_c, 0, 64, 72
1, 375846, Control_c, 0, 64, 56
1, 375861, Control_c, 0, 64, 32
1, 375875, Note_off_c, 0, 73, 62
1, 375876, Control_c, 0, 64, 0
1, 375905, Control_c, 0, 64, 19
1, 375927, Control_c, 0, 64, 36
1, 375942, Control_c, 0, 64, 53
1, 375957, Note_off_c, 0, 35, 63
1, 375957, Control_c, 0, 64, 75
1, 375972, Control_c, 0, 64, 127
1, 375974, Note_off_c, 0, 47, 66
1, 376190, Note_on_c, 0, 59, 58
1, 376190, Note_on_c, 0, 63, 60
1, 376207, Note_on_c, 0, 54, 57
1, 376225, Note_off_c, 0, 63, 65
1, 376273, Note_off_c, 0, 59, 59
1, 376302, Note_off_c, 0, 54, 63
1, 376307, Note_on_c, 0, 80, 90
1, 376321, Note_off_c, 0, 75, 59
1, 376640, Note_on_c, 0, 78, 87
1, 376640, Control_c, 0, 64, 119
1, 376643, Note_on_c, 0, 46, 73
1, 376646, Note_on_c, 0, 34, 72
1, 376655, Control_c, 0, 64, 66
1, 376677, Control_c, 0, 64, 48
1, 376692, Control_c, 0, 64, 11
1, 376695, Note_off_c, 0, 80, 61
1, 376707, Control_c, 0, 64, 0
1, 376749, Note_off_c, 0, 34, 65
1, 376766, Control_c, 0, 64, 29
1, 376771, Note_off_c, 0, 46, 64
1, 376781, Control_c, 0, 64, 46
1, 376796, Control_c, 0, 64, 63
1, 376810, Control_c, 0, 64, 127
1, 376976, Note_on_c, 0, 61, 57
1, 376988, Note_on_c, 0, 54, 57
1, 377105, Note_off_c, 0, 54, 61
1, 377108, Note_off_c, 0, 61, 58
1, 377253, Note_on_c, 0, 54, 59
1, 377255, Note_on_c, 0, 61, 58
1, 377349, Note_off_c, 0, 61, 61
1, 377358, Note_off_c, 0, 54, 63
1, 377499, Note_on_c, 0, 61, 48
1, 377504, Note_on_c, 0, 54, 55
1, 377555, Note_off_c, 0, 61, 60
1, 377563, Note_on_c, 0, 73, 78
1, 377618, Note_off_c, 0, 54, 57
1, 377625, Note_off_c, 0, 78, 57
1, 377882, Note_on_c, 0, 44, 56
1, 377913, Note_on_c, 0, 70, 77
1, 377914, Control_c, 0, 64, 69
1, 377929, Control_c, 0, 64, 51
1, 377944, Control_c, 0, 64, 0
1, 378003, Control_c, 0, 64, 21
1, 378007, Note_off_c, 0, 73, 38
1, 378018, Control_c, 0, 64, 39
1, 378033, Control_c, 0, 64, 56
1, 378044, Note_off_c, 0, 44, 62
1, 378047, Control_c, 0, 64, 78
1, 378062, Control_c, 0, 64, 127
1, 378160, Note_off_c, 0, 70, 63
1, 378171, Note_on_c, 0, 71, 79
1, 378315, Note_on_c, 0, 56, 58
1, 378317, Note_on_c, 0, 59, 54
1, 378318, Note_on_c, 0, 64, 48
1, 378327, Note_on_c, 0, 78, 81
1, 378344, Note_off_c, 0, 64, 60
1, 378372, Note_off_c, 0, 71, 63
1, 378391, Note_off_c, 0, 59, 61
1, 378417, Note_off_c, 0, 56, 66
1, 378421, Note_off_c, 0, 78, 55
1, 378463, Note_on_c, 0, 77, 76
1, 378574, Control_c, 0, 64, 68
1, 378589, Control_c, 0, 64, 51
1, 378592, Note_on_c, 0, 43, 63
1, 378597, Note_on_c, 0, 76, 73
1, 378599, Note_off_c, 0, 77, 61
1, 378604, Control_c, 0, 64, 23
1, 378619, Control_c, 0, 64, 0
1, 378649, Control_c, 0, 64, 16
1, 378664, Control_c, 0, 64, 36
1, 378678, Control_c, 0, 64, 52
1, 378685, Note_off_c, 0, 43, 62
1, 378693, Control_c, 0, 64, 68
1, 378708, Control_c, 0, 64, 127
1, 378726, Note_on_c, 0, 75, 75
1, 378762, Note_off_c, 0, 76, 60
1, 378863, Note_on_c, 0, 69, 76
1, 378864, Note_off_c, 0, 75, 60
1, 378867, Note_on_c, 0, 58, 49
1, 378867, Note_on_c, 0, 63, 44
1, 378878, Note_on_c, 0, 51, 40
1, 378953, Note_off_c, 0, 51, 59
1, 378983, Note_off_c, 0, 58, 60
1, 379007, Note_on_c, 0, 70, 80
1, 379007, Note_off_c, 0, 63, 47
1, 379093, Note_off_c, 0, 69, 38
1, 379202, Note_on_c, 0, 75, 75
1, 379203, Note_on_c, 0, 58, 45
1, 379203, Control_c, 0, 64, 80
1, 379205, Note_on_c, 0, 51, 45
1, 379209, Note_on_c, 0, 63, 44
1, 379218, Control_c, 0, 64, 63
1, 379233, Control_c, 0, 64, 43
1, 379248, Control_c, 0, 64, 23
1, 379263, Control_c, 0, 64, 22
1, 379278, Control_c, 0, 64, 28
1, 379293, Control_c, 0, 64, 38
1, 379308, Control_c, 0, 64, 51
1, 379322, Control_c, 0, 64, 64
1, 379338, Control_c, 0, 64, 103
1, 379352, Control_c, 0, 64, 127
1, 379361, Note_off_c, 0, 58, 50
1, 379374, Note_off_c, 0, 70, 38
1, 379406, Note_off_c, 0, 51, 36
1, 379496, Note_off_c, 0, 75, 53
1, 379503, Note_off_c, 0, 63, 44
1, 379630, Note_on_c, 0, 58, 37
1, 379633, Note_on_c, 0, 51, 45
1, 379710, Note_off_c, 0, 58, 57
1, 379740, Note_off_c, 0, 51, 63
1, 380086, Control_c, 0, 64, 117
1, 380101, Control_c, 0, 64, 107
1, 380116, Control_c, 0, 64, 101
1, 380131, Control_c, 0, 64, 97
1, 380147, Control_c, 0, 64, 93
1, 380162, Control_c, 0, 64, 90
1, 380176, Control_c, 0, 64, 87
1, 380191, Control_c, 0, 64, 84
1, 380205, Control_c, 0, 64, 81
1, 380220, Control_c, 0, 64, 78
1, 380235, Control_c, 0, 64, 76
1, 380250, Control_c, 0, 64, 74
1, 380265, Control_c, 0, 64, 72
1, 380268, Note_on_c, 0, 42, 36
1, 380279, Control_c, 0, 64, 69
1, 380294, Control_c, 0, 64, 65
1, 380309, Control_c, 0, 64, 62
1, 380324, Control_c, 0, 64, 58
1, 380339, Control_c, 0, 64, 53
1, 380354, Control_c, 0, 64, 48
1, 380368, Control_c, 0, 64, 43
1, 380370, Note_on_c, 0, 69, 39
1, 380383, Control_c, 0, 64, 35
1, 380398, Control_c, 0, 64, 17
1, 380420, Control_c, 0, 64, 0
1, 380539, Control_c, 0, 64, 29
1, 380554, Control_c, 0, 64, 45
1, 380568, Control_c, 0, 64, 60
1, 380583, Control_c, 0, 64, 81
1, 380593, Note_off_c, 0, 42, 54
1, 380598, Control_c, 0, 64, 127
1, 380941, Note_on_c, 0, 74, 55
1, 380972, Note_on_c, 0, 62, 25
1, 380974, Note_on_c, 0, 57, 20
1, 380976, Note_on_c, 0, 54, 29
1, 381051, Note_off_c, 0, 62, 40
1, 381080, Note_off_c, 0, 57, 49
1, 381102, Note_off_c, 0, 54, 52
1, 381129, Note_off_c, 0, 69, 61
1, 381362, Control_c, 0, 64, 115
1, 381366, Note_on_c, 0, 41, 31
1, 381376, Control_c, 0, 64, 101
1, 381391, Control_c, 0, 64, 85
1, 381392, Note_on_c, 0, 73, 59
1, 381406, Control_c, 0, 64, 69
1, 381421, Control_c, 0, 64, 56
1, 381427, Note_off_c, 0, 74, 45
1, 381436, Control_c, 0, 64, 26
1, 381451, Control_c, 0, 64, 0
1, 381495, Control_c, 0, 64, 8
1, 381510, Control_c, 0, 64, 28
1, 381524, Control_c, 0, 64, 43
1, 381539, Control_c, 0, 64, 61
1, 381552, Note_off_c, 0, 41, 55
1, 381554, Control_c, 0, 64, 86
1, 381569, Control_c, 0, 64, 127
1, 381812, Note_on_c, 0, 61, 36
1, 381815, Note_on_c, 0, 56, 37
1, 381823, Note_on_c, 0, 49, 36
1, 381985, Note_off_c, 0, 56, 44
1, 381992, Note_off_c, 0, 49, 49
1, 382000, Note_off_c, 0, 61, 37
1, 382142, Note_on_c, 0, 61, 32
1, 382157, Note_on_c, 0, 56, 26
1, 382160, Note_on_c, 0, 49, 21
1, 382286, Note_off_c, 0, 56, 33
1, 382289, Note_off_c, 0, 61, 46
1, 382298, Note_off_c, 0, 49, 43
1, 382519, Note_on_c, 0, 68, 44
1, 382530, Note_on_c, 0, 56, 36
1, 382531, Note_on_c, 0, 49, 24
1, 382604, Note_off_c, 0, 56, 55
1, 382679, Note_off_c, 0, 73, 43
1, 382684, Note_off_c, 0, 49, 42
1, 382948, Control_c, 0, 64, 106
1, 382962, Control_c, 0, 64, 93
1, 382977, Control_c, 0, 64, 83
1, 382979, Note_on_c, 0, 40, 37
1, 382992, Control_c, 0, 64, 71
1, 383007, Control_c, 0, 64, 61
1, 383022, Control_c, 0, 64, 42
1, 383037, Control_c, 0, 64, 0
1, 383061, Note_on_c, 0, 67, 43
1, 383100, Note_off_c, 0, 68, 32
1, 383126, Control_c, 0, 64, 18
1, 383141, Control_c, 0, 64, 35
1, 383156, Control_c, 0, 64, 53
1, 383170, Control_c, 0, 64, 71
1, 383185, Control_c, 0, 64, 127
1, 383210, Note_off_c, 0, 40, 48
1, 383435, Note_on_c, 0, 68, 52
1, 383584, Note_off_c, 0, 67, 35
1, 383681, Note_on_c, 0, 56, 29
1, 383687, Note_on_c, 0, 52, 32
1, 383693, Note_on_c, 0, 61, 26
1, 383711, Note_on_c, 0, 75, 44
1, 383798, Note_off_c, 0, 68, 54
1, 383961, Note_on_c, 0, 73, 56
1, 384137, Note_on_c, 0, 71, 53
1, 384142, Note_off_c, 0, 56, 34
1, 384182, Note_off_c, 0, 75, 53
1, 384226, Note_off_c, 0, 52, 40
1, 384244, Note_off_c, 0, 61, 42
1, 384253, Note_off_c, 0, 73, 34
1, 384306, Note_on_c, 0, 70, 63
1, 384314, Note_off_c, 0, 71, 63
1, 384447, Note_on_c, 0, 56, 33
1, 384450, Note_on_c, 0, 61, 26
1, 384450, Note_on_c, 0, 73, 58
1, 384459, Note_on_c, 0, 52, 35
1, 384470, Note_off_c, 0, 70, 54
1, 384589, Note_on_c, 0, 71, 56
1, 384673, Note_off_c, 0, 56, 43
1, 384693, Note_off_c, 0, 61, 42
1, 384715, Note_off_c, 0, 52, 39
1, 384742, Note_on_c, 0, 70, 57
1, 384742, Note_off_c, 0, 73, 37
1, 384789, Note_off_c, 0, 71, 35
1, 384866, Note_off_c, 0, 70, 59
1, 384885, Note_on_c, 0, 68, 48
1, 385044, Note_on_c, 0, 56, 35
1, 385056, Note_on_c, 0, 52, 31
1, 385056, Note_on_c, 0, 61, 22
1, 385074, Note_on_c, 0, 71, 48
1, 385093, Note_off_c, 0, 68, 35
1, 385193, Note_off_c, 0, 52, 34
1, 385234, Note_on_c, 0, 70, 50
1, 385264, Note_off_c, 0, 56, 41
1, 385270, Note_off_c, 0, 61, 40
1, 385283, Control_c, 0, 67, 8
1, 385298, Control_c, 0, 67, 13
1, 385313, Control_c, 0, 67, 18
1, 385328, Control_c, 0, 67, 26
1, 385333, Note_off_c, 0, 71, 24
1, 385343, Control_c, 0, 67, 34
1, 385357, Control_c, 0, 67, 44
1, 385372, Control_c, 0, 67, 54
1, 385387, Control_c, 0, 67, 64
1, 385402, Control_c, 0, 67, 72
1, 385417, Control_c, 0, 67, 80
1, 385431, Control_c, 0, 67, 88
1, 385446, Control_c, 0, 67, 95
1, 385461, Note_on_c, 0, 52, 34
1, 385461, Control_c, 0, 67, 102
1, 385476, Control_c, 0, 67, 109
1, 385490, Control_c, 0, 67, 116
1, 385505, Control_c, 0, 67, 123
1, 385520, Control_c, 0, 67, 127
1, 385548, Note_on_c, 0, 68, 46
1, 385580, Control_c, 0, 64, 119
1, 385594, Control_c, 0, 64, 107
1, 385600, Note_off_c, 0, 70, 52
1, 385609, Control_c, 0, 64, 100
1, 385624, Control_c, 0, 64, 95
1, 385639, Control_c, 0, 64, 91
1, 385661, Control_c, 0, 64, 87
1, 385676, Control_c, 0, 64, 83
1, 385690, Control_c, 0, 64, 79
1, 385705, Control_c, 0, 64, 75
1, 385720, Control_c, 0, 64, 70
1, 385736, Control_c, 0, 64, 63
1, 385751, Control_c, 0, 64, 54
1, 385766, Control_c, 0, 64, 38
1, 385781, Control_c, 0, 64, 10
1, 385795, Control_c, 0, 64, 0
1, 385869, Control_c, 0, 64, 17
1, 385884, Control_c, 0, 64, 29
1, 385899, Control_c, 0, 64, 37
1, 385913, Control_c, 0, 64, 46
1, 385928, Control_c, 0, 64, 56
1, 385943, Control_c, 0, 64, 63
1, 385958, Control_c, 0, 64, 69
1, 385970, Note_on_c, 0, 58, 36
1, 385973, Control_c, 0, 64, 74
1, 385976, Note_on_c, 0, 61, 37
1, 385983, Note_on_c, 0, 54, 38
1, 385988, Control_c, 0, 64, 75
1, 386003, Control_c, 0, 64, 76
1, 386018, Control_c, 0, 64, 80
1, 386033, Control_c, 0, 64, 86
1, 386048, Control_c, 0, 64, 91
1, 386062, Control_c, 0, 64, 95
1, 386077, Control_c, 0, 64, 97
1, 386092, Control_c, 0, 64, 98
1, 386106, Control_c, 0, 64, 100
1, 386121, Control_c, 0, 64, 102
1, 386136, Control_c, 0, 64, 104
1, 386145, Note_off_c, 0, 58, 43
1, 386151, Control_c, 0, 64, 105
1, 386160, Note_off_c, 0, 61, 35
1, 386165, Note_off_c, 0, 54, 40
1, 386166, Control_c, 0, 64, 106
1, 386180, Control_c, 0, 64, 107
1, 386196, Control_c, 0, 64, 108
1, 386315, Note_on_c, 0, 61, 39
1, 386327, Note_on_c, 0, 54, 33
1, 386329, Note_on_c, 0, 58, 18
1, 386480, Note_off_c, 0, 58, 36
1, 386490, Note_off_c, 0, 61, 34
1, 386496, Note_off_c, 0, 54, 44
1, 386665, Note_on_c, 0, 61, 29
1, 386670, Note_on_c, 0, 54, 34
1, 386679, Note_on_c, 0, 58, 28
1, 386840, Note_off_c, 0, 54, 42
1, 386840, Note_off_c, 0, 58, 42
1, 386840, Note_off_c, 0, 61, 44
1, 387019, Note_on_c, 0, 58, 26
1, 387019, Note_on_c, 0, 61, 28
1, 387034, Note_on_c, 0, 54, 29
1, 387207, Note_off_c, 0, 54, 39
1, 387207, Note_off_c, 0, 58, 40
1, 387220, Note_off_c, 0, 61, 43
1, 387440, Note_on_c, 0, 61, 20
1, 387442, Note_on_c, 0, 58, 28
1, 387467, Note_on_c, 0, 54, 28
1, 387491, Note_off_c, 0, 52, 29
1, 387672, Note_off_c, 0, 54, 40
1, 387699, Note_off_c, 0, 68, 34
1, 387722, Note_on_c, 0, 66, 39
1, 387729, Note_off_c, 0, 58, 40
1, 387737, Note_off_c, 0, 61, 33
1, 387935, Note_off_c, 0, 66, 40
1, 388012, Control_c, 0, 64, 107
1, 388027, Control_c, 0, 64, 106
1, 388042, Control_c, 0, 64, 105
1, 388057, Control_c, 0, 64, 104
1, 388072, Control_c, 0, 64, 103
1, 388086, Control_c, 0, 64, 103
1, 388101, Control_c, 0, 64, 102
1, 388116, Control_c, 0, 64, 101
1, 388131, Control_c, 0, 64, 99
1, 388146, Control_c, 0, 64, 99
1, 388161, Control_c, 0, 64, 98
1, 388176, Control_c, 0, 64, 97
1, 388191, Control_c, 0, 64, 96
1, 388206, Control_c, 0, 64, 95
1, 388221, Control_c, 0, 64, 93
1, 388236, Control_c, 0, 64, 92
1, 388250, Control_c, 0, 64, 91
1, 388265, Control_c, 0, 64, 90
1, 388280, Control_c, 0, 64, 88
1, 388292, Note_on_c, 0, 59, 31
1, 388295, Control_c, 0, 64, 87
1, 388301, Note_on_c, 0, 63, 29
1, 388308, Note_on_c, 0, 66, 38
1, 388309, Control_c, 0, 64, 86
1, 388310, Note_on_c, 0, 54, 25
1, 388319, Note_on_c, 0, 51, 29
1, 388324, Control_c, 0, 64, 85
1, 388339, Control_c, 0, 64, 83
1, 388354, Control_c, 0, 64, 80
1, 388362, Note_off_c, 0, 66, 0
1, 388362, Note_on_c, 0, 66, 8
1, 388369, Control_c, 0, 64, 78
1, 388383, Control_c, 0, 64, 74
1, 388398, Control_c, 0, 64, 69
1, 388413, Control_c, 0, 64, 62
1, 388427, Control_c, 0, 64, 52
1, 388441, Control_c, 0, 64, 38
1, 388456, Control_c, 0, 64, 26
1, 388471, Control_c, 0, 64, 22
1, 388486, Control_c, 0, 64, 22
1, 388501, Control_c, 0, 64, 21
1, 388546, Control_c, 0, 64, 23
1, 388560, Control_c, 0, 64, 30
1, 388575, Control_c, 0, 64, 38
1, 388590, Control_c, 0, 64, 49
1, 388605, Control_c, 0, 64, 61
1, 388620, Control_c, 0, 64, 71
1, 388634, Control_c, 0, 64, 82
1, 388656, Control_c, 0, 64, 84
1, 388671, Control_c, 0, 64, 85
1, 388686, Control_c, 0, 64, 86
1, 388701, Control_c, 0, 64, 88
1, 388715, Control_c, 0, 64, 90
1, 388745, Control_c, 0, 64, 90
1, 388771, Note_on_c, 0, 68, 51
1, 388775, Control_c, 0, 64, 91
1, 388781, Note_off_c, 0, 66, 52
1, 388805, Note_off_c, 0, 68, 52
1, 388864, Control_c, 0, 64, 91
1, 388879, Control_c, 0, 64, 92
1, 388885, Note_on_c, 0, 68, 48
1, 388908, Control_c, 0, 64, 93
1, 388923, Control_c, 0, 64, 94
1, 388939, Control_c, 0, 64, 95
1, 388954, Control_c, 0, 64, 95
1, 388984, Control_c, 0, 64, 96
1, 388999, Control_c, 0, 64, 97
1, 389013, Control_c, 0, 64, 99
1, 389028, Control_c, 0, 64, 99
1, 389043, Control_c, 0, 64, 100
1, 389072, Control_c, 0, 64, 101
1, 389102, Control_c, 0, 64, 101
1, 389131, Control_c, 0, 64, 102
1, 389152, Note_on_c, 0, 70, 55
1, 389155, Note_off_c, 0, 68, 59
1, 389176, Control_c, 0, 64, 103
1, 389177, Note_off_c, 0, 70, 58
1, 389255, Note_on_c, 0, 70, 57
1, 389264, Control_c, 0, 64, 102
1, 389279, Control_c, 0, 64, 90
1, 389294, Control_c, 0, 64, 78
1, 389309, Control_c, 0, 64, 68
1, 389324, Control_c, 0, 64, 65
1, 389353, Control_c, 0, 64, 68
1, 389368, Control_c, 0, 64, 75
1, 389383, Control_c, 0, 64, 86
1, 389398, Control_c, 0, 64, 98
1, 389420, Control_c, 0, 64, 104
1, 389435, Control_c, 0, 64, 105
1, 389450, Control_c, 0, 64, 106
1, 389476, Note_on_c, 0, 71, 57
1, 389493, Note_off_c, 0, 70, 29
1, 389496, Note_off_c, 0, 71, 67
1, 389524, Control_c, 0, 64, 104
1, 389538, Control_c, 0, 64, 91
1, 389553, Control_c, 0, 64, 75
1, 389566, Note_on_c, 0, 71, 67
1, 389568, Control_c, 0, 64, 63
1, 389583, Control_c, 0, 64, 58
1, 389598, Control_c, 0, 64, 59
1, 389613, Control_c, 0, 64, 64
1, 389628, Control_c, 0, 64, 74
1, 389643, Control_c, 0, 64, 91
1, 389657, Control_c, 0, 64, 106
1, 389672, Control_c, 0, 64, 114
1, 389687, Control_c, 0, 64, 122
1, 389724, Note_off_c, 0, 63, 44
1, 389762, Note_off_c, 0, 71, 65
1, 389765, Note_on_c, 0, 73, 67
1, 389777, Control_c, 0, 64, 113
1, 389786, Note_off_c, 0, 73, 69
1, 389792, Control_c, 0, 64, 97
1, 389792, Note_off_c, 0, 51, 43
1, 389806, Control_c, 0, 64, 80
1, 389812, Note_off_c, 0, 59, 39
1, 389816, Note_off_c, 0, 54, 40
1, 389821, Control_c, 0, 64, 67
1, 389836, Control_c, 0, 64, 58
1, 389839, Note_on_c, 0, 73, 79
1, 389851, Control_c, 0, 64, 48
1, 389866, Control_c, 0, 64, 48
1, 389880, Control_c, 0, 64, 56
1, 389895, Control_c, 0, 64, 66
1, 389910, Control_c, 0, 64, 94
1, 389925, Control_c, 0, 64, 127
1, 389971, Note_off_c, 0, 73, 61
1, 390027, Note_on_c, 0, 74, 73
1, 390048, Note_off_c, 0, 74, 70
1, 390102, Control_c, 0, 67, 119
1, 390117, Control_c, 0, 67, 107
1, 390119, Note_on_c, 0, 74, 84
1, 390132, Control_c, 0, 67, 93
1, 390147, Control_c, 0, 67, 76
1, 390169, Control_c, 0, 67, 57
1, 390184, Control_c, 0, 67, 41
1, 390199, Control_c, 0, 67, 25
1, 390214, Control_c, 0, 67, 9
1, 390228, Control_c, 0, 67, 0
1, 390381, Note_on_c, 0, 75, 73
1, 390406, Note_off_c, 0, 74, 64
1, 390415, Note_off_c, 0, 75, 59
1, 390482, Note_on_c, 0, 49, 67
1, 390484, Note_on_c, 0, 75, 77
1, 390495, Note_on_c, 0, 37, 56
1, 390510, Control_c, 0, 64, 79
1, 390525, Control_c, 0, 64, 62
1, 390540, Control_c, 0, 64, 46
1, 390555, Control_c, 0, 64, 28
1, 390570, Control_c, 0, 64, 22
1, 390599, Control_c, 0, 64, 27
1, 390614, Control_c, 0, 64, 38
1, 390629, Control_c, 0, 64, 52
1, 390636, Note_off_c, 0, 37, 63
1, 390644, Control_c, 0, 64, 67
1, 390659, Control_c, 0, 64, 127
1, 390701, Note_off_c, 0, 49, 64
1, 390855, Note_off_c, 0, 75, 57
1, 390957, Note_on_c, 0, 65, 49
1, 390971, Note_on_c, 0, 71, 50
1, 390978, Note_on_c, 0, 59, 40
1, 391015, Note_off_c, 0, 59, 0
1, 391015, Note_on_c, 0, 59, 7
1, 391023, Note_on_c, 0, 68, 78
1, 391187, Note_off_c, 0, 68, 57
1, 391216, Note_off_c, 0, 71, 64
1, 391228, Note_off_c, 0, 59, 39
1, 391253, Note_off_c, 0, 65, 35
1, 391329, Note_on_c, 0, 75, 81
1, 391339, Note_on_c, 0, 59, 45
1, 391341, Note_on_c, 0, 71, 55
1, 391347, Note_on_c, 0, 65, 54
1, 391522, Note_off_c, 0, 71, 63
1, 391532, Note_off_c, 0, 59, 40
1, 391533, Note_off_c, 0, 65, 64
1, 391623, Note_on_c, 0, 71, 72
1, 391629, Note_on_c, 0, 59, 54
1, 391631, Note_on_c, 0, 65, 60
1, 391771, Note_off_c, 0, 59, 60
1, 391786, Note_off_c, 0, 71, 62
1, 391810, Note_off_c, 0, 65, 65
1, 391884, Note_on_c, 0, 65, 64
1, 391885, Note_on_c, 0, 71, 74
1, 391894, Note_on_c, 0, 59, 62
1, 392045, Note_off_c, 0, 59, 59
1, 392050, Note_off_c, 0, 71, 64
1, 392072, Note_off_c, 0, 65, 56
1, 392188, Note_on_c, 0, 59, 56
1, 392190, Note_on_c, 0, 71, 60
1, 392191, Note_on_c, 0, 73, 86
1, 392194, Note_on_c, 0, 65, 63
1, 392352, Note_off_c, 0, 75, 39
1, 392355, Note_off_c, 0, 59, 59
1, 392369, Note_off_c, 0, 71, 64
1, 392453, Note_off_c, 0, 65, 36
1, 392551, Note_on_c, 0, 65, 50
1, 392552, Note_on_c, 0, 71, 63
1, 392556, Note_on_c, 0, 61, 60
1, 392561, Note_on_c, 0, 59, 60
1, 392593, Control_c, 0, 64, 79
1, 392597, Note_on_c, 0, 72, 82
1, 392607, Control_c, 0, 64, 60
1, 392614, Note_off_c, 0, 73, 64
1, 392622, Control_c, 0, 64, 35
1, 392637, Control_c, 0, 64, 18
1, 392652, Control_c, 0, 64, 21
1, 392667, Control_c, 0, 64, 32
1, 392681, Control_c, 0, 64, 47
1, 392696, Control_c, 0, 64, 63
1, 392711, Control_c, 0, 64, 127
1, 392808, Note_on_c, 0, 73, 89
1, 392833, Note_off_c, 0, 72, 64
1, 392870, Note_off_c, 0, 73, 64
1, 392948, Note_on_c, 0, 73, 76
1, 393038, Note_off_c, 0, 73, 38
1, 393112, Note_on_c, 0, 87, 75
1, 393261, Note_off_c, 0, 71, 37
1, 393334, Note_on_c, 0, 85, 76
1, 393355, Note_off_c, 0, 65, 37
1, 393475, Note_off_c, 0, 87, 58
1, 393488, Note_on_c, 0, 83, 84
1, 393515, Note_off_c, 0, 85, 53
1, 393569, Note_off_c, 0, 61, 39
1, 393617, Note_on_c, 0, 80, 83
1, 393619, Note_off_c, 0, 59, 37
1, 393645, Note_off_c, 0, 83, 55
1, 393733, Note_off_c, 0, 80, 61
1, 393741, Note_on_c, 0, 75, 75
1, 393780, Note_off_c, 0, 75, 57
1, 393856, Note_on_c, 0, 73, 70
1, 393949, Note_off_c, 0, 73, 54
1, 393983, Note_on_c, 0, 71, 68
1, 394110, Note_on_c, 0, 68, 74
1, 394139, Note_off_c, 0, 71, 60
1, 394218, Note_off_c, 0, 68, 61
1, 394250, Note_on_c, 0, 61, 77
1, 394377, Note_off_c, 0, 61, 63
1, 394400, Note_on_c, 0, 63, 77
1, 394469, Note_off_c, 0, 63, 64
1, 394612, Note_on_c, 0, 42, 44
1, 394615, Note_on_c, 0, 49, 50
1, 394687, Note_on_c, 0, 59, 59
1, 394710, Note_on_c, 0, 64, 74
1, 394795, Control_c, 0, 64, 103
1, 394810, Control_c, 0, 64, 90
1, 394825, Control_c, 0, 64, 79
1, 394840, Control_c, 0, 64, 69
1, 394855, Control_c, 0, 64, 58
1, 394869, Control_c, 0, 64, 35
1, 394884, Control_c, 0, 64, 0
1, 394958, Control_c, 0, 64, 26
1, 394973, Control_c, 0, 64, 41
1, 394988, Control_c, 0, 64, 55
1, 395002, Control_c, 0, 64, 72
1, 395017, Control_c, 0, 64, 122
1, 395032, Control_c, 0, 64, 127
1, 395204, Note_on_c, 0, 54, 72
1, 395354, Note_off_c, 0, 59, 61
1, 395613, Note_on_c, 0, 59, 65
1, 395751, Control_c, 0, 64, 119
1, 395765, Control_c, 0, 64, 104
1, 395780, Control_c, 0, 64, 92
1, 395795, Control_c, 0, 64, 81
1, 395810, Control_c, 0, 64, 69
1, 395825, Control_c, 0, 64, 60
1, 395840, Control_c, 0, 64, 49
1, 395855, Control_c, 0, 64, 37
1, 395870, Control_c, 0, 64, 32
1, 395885, Control_c, 0, 64, 33
1, 395899, Control_c, 0, 64, 36
1, 395914, Control_c, 0, 64, 41
1, 395929, Control_c, 0, 64, 48
1, 395944, Control_c, 0, 64, 56
1, 395959, Control_c, 0, 64, 64
1, 395973, Control_c, 0, 64, 73
1, 395983, Note_off_c, 0, 54, 23
1, 395988, Control_c, 0, 64, 78
1, 396003, Control_c, 0, 64, 80
1, 396017, Control_c, 0, 64, 81
1, 396032, Control_c, 0, 64, 86
1, 396047, Control_c, 0, 64, 92
1, 396062, Control_c, 0, 64, 98
1, 396077, Control_c, 0, 64, 101
1, 396091, Control_c, 0, 64, 103
1, 396106, Control_c, 0, 64, 105
1, 396122, Control_c, 0, 64, 108
1, 396144, Control_c, 0, 64, 110
1, 396159, Control_c, 0, 64, 113
1, 396218, Control_c, 0, 64, 114
1, 396441, Control_c, 0, 64, 113
1, 396470, Control_c, 0, 64, 111
1, 396515, Control_c, 0, 64, 110
1, 396603, Control_c, 0, 64, 109
1, 396663, Control_c, 0, 64, 108
1, 396678, Control_c, 0, 64, 107
1, 396693, Control_c, 0, 64, 106
1, 396708, Control_c, 0, 64, 105
1, 396722, Control_c, 0, 64, 103
1, 396737, Control_c, 0, 64, 101
1, 396752, Control_c, 0, 64, 100
1, 396767, Control_c, 0, 64, 99
1, 396782, Control_c, 0, 64, 98
1, 396797, Control_c, 0, 64, 96
1, 396812, Control_c, 0, 64, 95
1, 396826, Note_on_c, 0, 58, 48
1, 396826, Control_c, 0, 64, 93
1, 396841, Control_c, 0, 64, 91
1, 396856, Control_c, 0, 64, 88
1, 396862, Note_off_c, 0, 59, 38
1, 396871, Control_c, 0, 64, 84
1, 396893, Control_c, 0, 64, 79
1, 396908, Control_c, 0, 64, 70
1, 396924, Control_c, 0, 64, 60
1, 396939, Control_c, 0, 64, 47
1, 396953, Control_c, 0, 64, 32
1, 396968, Control_c, 0, 64, 29
1, 396983, Control_c, 0, 64, 32
1, 396998, Control_c, 0, 64, 39
1, 397013, Control_c, 0, 64, 50
1, 397027, Control_c, 0, 64, 60
1, 397042, Control_c, 0, 64, 69
1, 397057, Control_c, 0, 64, 82
1, 397071, Control_c, 0, 64, 85
1, 397131, Control_c, 0, 67, 10
1, 397134, Note_off_c, 0, 58, 54
1, 397145, Control_c, 0, 67, 14
1, 397160, Control_c, 0, 67, 20
1, 397175, Control_c, 0, 67, 28
1, 397190, Control_c, 0, 67, 38
1, 397205, Control_c, 0, 67, 48
1, 397220, Control_c, 0, 67, 58
1, 397235, Control_c, 0, 67, 72
1, 397250, Control_c, 0, 67, 85
1, 397264, Control_c, 0, 67, 99
1, 397279, Control_c, 0, 67, 112
1, 397294, Control_c, 0, 64, 85
1, 397294, Control_c, 0, 67, 123
1, 397309, Control_c, 0, 64, 84
1, 397309, Control_c, 0, 67, 127
1, 397324, Control_c, 0, 64, 84
1, 397339, Control_c, 0, 64, 83
1, 397353, Control_c, 0, 64, 83
1, 397368, Control_c, 0, 64, 82
1, 397383, Control_c, 0, 64, 82
1, 397412, Control_c, 0, 64, 81
1, 397442, Control_c, 0, 64, 81
1, 397457, Control_c, 0, 64, 80
1, 397471, Control_c, 0, 64, 79
1, 397486, Control_c, 0, 64, 79
1, 397491, Note_on_c, 0, 58, 25
1, 397501, Control_c, 0, 64, 78
1, 397516, Control_c, 0, 64, 77
1, 397531, Control_c, 0, 64, 76
1, 397545, Control_c, 0, 64, 75
1, 397560, Control_c, 0, 64, 74
1, 397567, Note_on_c, 0, 63, 45
1, 397575, Control_c, 0, 64, 72
1, 397590, Control_c, 0, 64, 69
1, 397605, Control_c, 0, 64, 66
1, 397619, Control_c, 0, 64, 62
1, 397642, Control_c, 0, 64, 53
1, 397657, Control_c, 0, 64, 38
1, 397671, Control_c, 0, 64, 19
1, 397673, Note_off_c, 0, 64, 38
1, 397686, Control_c, 0, 64, 0
1, 397762, Control_c, 0, 64, 8
1, 397776, Control_c, 0, 64, 21
1, 397791, Control_c, 0, 64, 33
1, 397806, Control_c, 0, 64, 43
1, 397820, Control_c, 0, 64, 53
1, 397835, Control_c, 0, 64, 62
1, 397850, Control_c, 0, 64, 71
1, 397865, Control_c, 0, 64, 78
1, 397880, Control_c, 0, 64, 79
1, 397905, Note_off_c, 0, 58, 46
1, 397909, Control_c, 0, 64, 80
1, 397924, Control_c, 0, 64, 81
1, 397939, Control_c, 0, 64, 82
1, 397954, Control_c, 0, 64, 83
1, 397983, Control_c, 0, 64, 83
1, 398013, Control_c, 0, 64, 84
1, 398049, Note_off_c, 0, 63, 53
1, 398058, Control_c, 0, 64, 84
1, 398093, Note_on_c, 0, 64, 39
1, 398191, Control_c, 0, 64, 85
1, 398220, Control_c, 0, 64, 85
1, 398250, Control_c, 0, 64, 86
1, 398265, Control_c, 0, 64, 87
1, 398280, Control_c, 0, 64, 88
1, 398294, Control_c, 0, 64, 89
1, 398309, Control_c, 0, 64, 89
1, 398324, Control_c, 0, 64, 90
1, 398383, Control_c, 0, 64, 90
1, 398411, Note_off_c, 0, 64, 37
1, 398415, Note_off_c, 0, 49, 36
1, 398450, Control_c, 0, 64, 91
1, 398457, Note_on_c, 0, 75, 47
1, 398618, Note_off_c, 0, 42, 31
1, 398759, Note_off_c, 0, 75, 57
1, 398785, Note_on_c, 0, 73, 45
1, 398852, Note_off_c, 0, 73, 0
1, 398852, Note_on_c, 0, 73, 10
1, 399032, Note_on_c, 0, 75, 38
1, 399042, Note_off_c, 0, 73, 45
1, 399259, Note_off_c, 0, 75, 50
1, 399274, Note_on_c, 0, 73, 44
1, 399453, Note_off_c, 0, 73, 49
1, 399482, Note_on_c, 0, 75, 41
1, 399612, Note_off_c, 0, 75, 54
1, 399632, Note_on_c, 0, 73, 38
1, 399792, Control_c, 0, 64, 90
1, 399811, Note_on_c, 0, 75, 36
1, 399814, Note_off_c, 0, 73, 46
1, 399837, Control_c, 0, 64, 90
1, 399975, Note_off_c, 0, 75, 44
1, 399977, Note_on_c, 0, 73, 40
1, 400112, Note_off_c, 0, 73, 57
1, 400142, Note_on_c, 0, 75, 38
1, 400264, Note_off_c, 0, 75, 54
1, 400283, Note_on_c, 0, 73, 35
1, 400441, Note_on_c, 0, 75, 32
1, 400441, Note_off_c, 0, 73, 41
1, 400450, Note_on_c, 0, 66, 29
1, 400557, Note_off_c, 0, 66, 48
1, 400589, Note_off_c, 0, 75, 47
1, 400591, Note_on_c, 0, 64, 35
1, 400606, Note_on_c, 0, 73, 35
1, 400710, Note_on_c, 0, 66, 41
1, 400711, Note_off_c, 0, 64, 35
1, 400739, Note_on_c, 0, 75, 36
1, 400750, Note_off_c, 0, 73, 36
1, 400846, Note_on_c, 0, 64, 34
1, 400847, Note_off_c, 0, 66, 34
1, 400857, Note_on_c, 0, 73, 40
1, 400883, Note_off_c, 0, 75, 33
1, 400967, Note_on_c, 0, 66, 42
1, 400977, Note_off_c, 0, 64, 36
1, 400997, Note_off_c, 0, 73, 42
1, 401002, Note_on_c, 0, 75, 42
1, 401103, Note_off_c, 0, 66, 36
1, 401112, Note_off_c, 0, 75, 55
1, 401115, Note_on_c, 0, 64, 35
1, 401137, Note_on_c, 0, 73, 34
1, 401240, Note_on_c, 0, 66, 38
1, 401242, Note_off_c, 0, 64, 37
1, 401253, Note_on_c, 0, 75, 46
1, 401268, Note_off_c, 0, 73, 34
1, 401347, Note_off_c, 0, 75, 54
1, 401360, Note_off_c, 0, 66, 35
1, 401361, Note_on_c, 0, 64, 37
1, 401370, Note_on_c, 0, 73, 45
1, 401471, Note_off_c, 0, 73, 51
1, 401482, Note_on_c, 0, 66, 44
1, 401495, Note_off_c, 0, 64, 34
1, 401498, Note_on_c, 0, 75, 46
1, 401556, Note_off_c, 0, 66, 50
1, 401582, Note_off_c, 0, 75, 58
1, 401602, Note_on_c, 0, 64, 38
1, 401602, Note_on_c, 0, 73, 48
1, 401662, Note_off_c, 0, 64, 48
1, 401685, Note_off_c, 0, 73, 56
1, 401694, Note_on_c, 0, 66, 44
1, 401719, Note_on_c, 0, 75, 46
1, 401760, Note_off_c, 0, 66, 55
1, 401796, Note_off_c, 0, 75, 58
1, 401805, Note_on_c, 0, 64, 38
1, 401822, Note_on_c, 0, 73, 45
1, 401870, Note_off_c, 0, 64, 50
1, 401882, Note_off_c, 0, 73, 56
1, 401900, Note_on_c, 0, 66, 46
1, 401921, Control_c, 0, 64, 90
1, 401924, Note_on_c, 0, 75, 44
1, 401935, Control_c, 0, 64, 91
1, 401960, Note_off_c, 0, 75, 53
1, 401960, Note_off_c, 0, 66, 43
1, 401965, Control_c, 0, 64, 91
1, 401980, Control_c, 0, 64, 92
1, 401994, Control_c, 0, 64, 93
1, 401998, Note_on_c, 0, 64, 36
1, 402009, Control_c, 0, 64, 94
1, 402012, Note_on_c, 0, 73, 40
1, 402024, Control_c, 0, 64, 95
1, 402032, Note_off_c, 0, 64, 53
1, 402039, Control_c, 0, 64, 97
1, 402041, Note_off_c, 0, 73, 54
1, 402053, Control_c, 0, 64, 99
1, 402067, Note_on_c, 0, 75, 45
1, 402068, Control_c, 0, 64, 101
1, 402074, Note_on_c, 0, 66, 36
1, 402083, Control_c, 0, 64, 103
1, 402095, Note_off_c, 0, 75, 56
1, 402098, Control_c, 0, 64, 106
1, 402100, Note_off_c, 0, 66, 56
1, 402112, Control_c, 0, 64, 108
1, 402121, Note_on_c, 0, 73, 49
1, 402127, Control_c, 0, 64, 111
1, 402141, Note_on_c, 0, 64, 42
1, 402150, Control_c, 0, 64, 114
1, 402162, Note_off_c, 0, 73, 55
1, 402165, Control_c, 0, 64, 119
1, 402169, Note_off_c, 0, 64, 57
1, 402180, Control_c, 0, 64, 127
1, 402196, Note_on_c, 0, 66, 47
1, 402200, Note_on_c, 0, 75, 46
1, 402230, Note_off_c, 0, 75, 55
1, 402240, Note_off_c, 0, 66, 46
1, 402259, Note_on_c, 0, 73, 48
1, 402269, Note_on_c, 0, 64, 40
1, 402288, Note_off_c, 0, 73, 58
1, 402298, Note_off_c, 0, 64, 56
1, 402332, Note_on_c, 0, 75, 38
1, 402361, Note_off_c, 0, 75, 50
1, 402364, Note_on_c, 0, 66, 10
1, 402380, Note_on_c, 0, 73, 49
1, 402397, Note_on_c, 0, 64, 35
1, 402404, Note_off_c, 0, 73, 62
1, 402428, Note_off_c, 0, 64, 54
1, 402442, Note_off_c, 0, 66, 0
1, 402442, Note_on_c, 0, 66, 16
1, 402446, Note_on_c, 0, 75, 46
1, 402472, Note_off_c, 0, 75, 58
1, 402486, Note_on_c, 0, 73, 53
1, 402489, Note_off_c, 0, 66, 47
1, 402520, Note_off_c, 0, 73, 59
1, 402562, Note_on_c, 0, 75, 52
1, 402571, Poly_aftertouch_c, 0, 64, 127
1, 402586, Note_off_c, 0, 75, 60
1, 402601, Note_on_c, 0, 64, 6
1, 402607, Note_on_c, 0, 73, 52
1, 402615, Poly_aftertouch_c, 0, 66, 127
1, 402639, Note_off_c, 0, 73, 58
1, 402650, Note_off_c, 0, 64, 46
1, 402670, Note_on_c, 0, 75, 57
1, 402699, Note_off_c, 0, 75, 59
1, 402717, Note_on_c, 0, 64, 38
1, 402720, Poly_aftertouch_c, 0, 66, 0
1, 402724, Note_on_c, 0, 73, 58
1, 402747, Note_off_c, 0, 64, 52
1, 402757, Note_off_c, 0, 73, 61
1, 402779, Note_on_c, 0, 66, 17
1, 402789, Note_on_c, 0, 75, 55
1, 402813, Note_off_c, 0, 75, 59
1, 402844, Note_on_c, 0, 73, 56
1, 402868, Note_off_c, 0, 73, 61
1, 402874, Note_on_c, 0, 64, 35
1, 402899, Note_on_c, 0, 75, 61
1, 402918, Note_off_c, 0, 64, 62
1, 402931, Note_off_c, 0, 75, 62
1, 402949, Note_on_c, 0, 73, 61
1, 402997, Note_off_c, 0, 73, 60
1, 403001, Note_on_c, 0, 64, 41
1, 403011, Note_off_c, 0, 66, 0
1, 403013, Note_on_c, 0, 75, 56
1, 403027, Note_off_c, 0, 64, 57
1, 403029, Note_on_c, 0, 66, 32
1, 403051, Note_off_c, 0, 75, 64
1, 403074, Note_on_c, 0, 73, 52
1, 403078, Note_off_c, 0, 66, 0
1, 403090, Note_on_c, 0, 64, 46
1, 403103, Note_off_c, 0, 73, 59
1, 403111, Note_on_c, 0, 66, 27
1, 403116, Note_off_c, 0, 64, 57
1, 403125, Note_on_c, 0, 75, 59
1, 403165, Note_off_c, 0, 75, 62
1, 403170, Note_off_c, 0, 66, 56
1, 403181, Note_on_c, 0, 73, 63
1, 403191, Note_on_c, 0, 64, 49
1, 403213, Note_off_c, 0, 73, 63
1, 403216, Note_off_c, 0, 64, 57
1, 403218, Note_on_c, 0, 66, 35
1, 403235, Note_on_c, 0, 75, 59
1, 403272, Note_off_c, 0, 75, 58
1, 403299, Note_on_c, 0, 64, 39
1, 403301, Note_off_c, 0, 66, 0
1, 403311, Note_on_c, 0, 73, 53
1, 403326, Note_on_c, 0, 66, 18
1, 403328, Note_off_c, 0, 64, 55
1, 403337, Note_off_c, 0, 73, 61
1, 403359, Note_on_c, 0, 75, 52
1, 403382, Note_on_c, 0, 64, 40
1, 403394, Note_off_c, 0, 75, 62
1, 403413, Note_off_c, 0, 66, 0
1, 403417, Note_on_c, 0, 73, 60
1, 403417, Note_off_c, 0, 64, 50
1, 403428, Note_on_c, 0, 66, 30
1, 403441, Note_off_c, 0, 73, 62
1, 403462, Note_off_c, 0, 66, 52
1, 403477, Note_on_c, 0, 75, 55
1, 403506, Note_off_c, 0, 75, 59
1, 403519, Note_on_c, 0, 73, 62
1, 403531, Note_on_c, 0, 66, 35
1, 403542, Poly_aftertouch_c, 0, 64, 127
1, 403551, Note_off_c, 0, 73, 62
1, 403583, Note_on_c, 0, 75, 60
1, 403590, Note_off_c, 0, 66, 0
1, 403590, Note_on_c, 0, 66, 26
1, 403601, Poly_aftertouch_c, 0, 64, 0
1, 403620, Note_off_c, 0, 75, 62
1, 403624, Note_off_c, 0, 66, 53
1, 403633, Note_on_c, 0, 64, 39
1, 403644, Note_on_c, 0, 73, 63
1, 403677, Note_off_c, 0, 64, 60
1, 403680, Note_off_c, 0, 73, 60
1, 403790, Note_on_c, 0, 66, 48
1, 403791, Note_on_c, 0, 75, 61
1, 403810, Note_on_c, 0, 71, 51
1, 403854, Control_c, 0, 64, 87
1, 403869, Control_c, 0, 64, 72
1, 403884, Control_c, 0, 64, 66
1, 403899, Control_c, 0, 64, 65
1, 403913, Control_c, 0, 64, 66
1, 403928, Control_c, 0, 64, 70
1, 403943, Control_c, 0, 64, 81
1, 403957, Control_c, 0, 64, 105
1, 403972, Control_c, 0, 64, 127
1, 404072, Note_off_c, 0, 66, 61
1, 404091, Note_off_c, 0, 71, 61
1, 404100, Note_off_c, 0, 75, 61
1, 404112, Note_on_c, 0, 64, 42
1, 404113, Note_on_c, 0, 73, 56
1, 404122, Control_c, 0, 64, 111
1, 404126, Note_on_c, 0, 70, 47
1, 404136, Control_c, 0, 64, 104
1, 404151, Control_c, 0, 64, 101
1, 404166, Control_c, 0, 64, 101
1, 404186, Note_off_c, 0, 70, 58
1, 404191, Note_off_c, 0, 64, 59
1, 404192, Note_off_c, 0, 73, 62
1, 404210, Note_on_c, 0, 66, 53
1, 404210, Control_c, 0, 64, 101
1, 404212, Note_on_c, 0, 75, 59
1, 404220, Note_on_c, 0, 71, 45
1, 404225, Control_c, 0, 64, 113
1, 404240, Control_c, 0, 64, 127
1, 404336, Note_off_c, 0, 66, 51
1, 404347, Note_off_c, 0, 75, 62
1, 404364, Note_on_c, 0, 73, 59
1, 404364, Note_off_c, 0, 71, 51
1, 404371, Note_on_c, 0, 70, 50
1, 404372, Note_on_c, 0, 64, 37
1, 404467, Note_off_c, 0, 64, 52
1, 404486, Note_off_c, 0, 73, 60
1, 404489, Note_off_c, 0, 70, 61
1, 404499, Note_on_c, 0, 66, 46
1, 404508, Note_on_c, 0, 75, 52
1, 404517, Note_on_c, 0, 71, 43
1, 404592, Note_off_c, 0, 66, 58
1, 404622, Note_off_c, 0, 75, 59
1, 404625, Note_on_c, 0, 64, 44
1, 404628, Note_off_c, 0, 71, 63
1, 404636, Note_on_c, 0, 73, 59
1, 404653, Note_on_c, 0, 70, 45
1, 404718, Note_off_c, 0, 64, 59
1, 404737, Note_off_c, 0, 73, 60
1, 404741, Note_off_c, 0, 70, 45
1, 404755, Note_on_c, 0, 75, 61
1, 404758, Note_on_c, 0, 66, 45
1, 404771, Note_on_c, 0, 71, 45
1, 404811, Note_off_c, 0, 66, 42
1, 404846, Note_off_c, 0, 75, 59
1, 404852, Note_off_c, 0, 71, 60
1, 404856, Note_on_c, 0, 64, 48
1, 404862, Note_on_c, 0, 73, 56
1, 404869, Note_on_c, 0, 70, 47
1, 404947, Note_off_c, 0, 64, 59
1, 404961, Note_off_c, 0, 70, 61
1, 404966, Note_off_c, 0, 73, 62
1, 404987, Note_on_c, 0, 75, 52
1, 404989, Note_on_c, 0, 66, 42
1, 404992, Note_on_c, 0, 71, 45
1, 405066, Note_off_c, 0, 75, 57
1, 405067, Note_off_c, 0, 66, 45
1, 405069, Note_off_c, 0, 71, 59
1, 405087, Note_on_c, 0, 64, 46
1, 405090, Note_on_c, 0, 73, 55
1, 405094, Note_on_c, 0, 70, 39
1, 405158, Note_off_c, 0, 64, 54
1, 405160, Note_off_c, 0, 70, 51
1, 405164, Note_off_c, 0, 73, 58
1, 405194, Note_on_c, 0, 75, 55
1, 405197, Note_on_c, 0, 66, 46
1, 405214, Note_on_c, 0, 71, 41
1, 405254, Note_off_c, 0, 75, 57
1, 405256, Note_off_c, 0, 66, 62
1, 405265, Note_off_c, 0, 71, 48
1, 405280, Note_on_c, 0, 70, 48
1, 405283, Note_on_c, 0, 73, 57
1, 405287, Note_on_c, 0, 64, 44
1, 405333, Note_off_c, 0, 64, 60
1, 405334, Note_off_c, 0, 70, 53
1, 405345, Note_off_c, 0, 73, 58
1, 405373, Note_on_c, 0, 71, 47
1, 405373, Note_on_c, 0, 75, 58
1, 405385, Note_on_c, 0, 66, 47
1, 405418, Note_off_c, 0, 66, 51
1, 405424, Note_off_c, 0, 71, 59
1, 405426, Note_off_c, 0, 75, 56
1, 405450, Note_on_c, 0, 70, 49
1, 405455, Note_on_c, 0, 64, 44
1, 405467, Note_on_c, 0, 73, 50
1, 405487, Note_off_c, 0, 64, 60
1, 405487, Note_off_c, 0, 70, 51
1, 405506, Note_off_c, 0, 73, 60
1, 405521, Note_on_c, 0, 66, 52
1, 405540, Note_on_c, 0, 71, 44
1, 405548, Note_on_c, 0, 75, 48
1, 405564, Note_off_c, 0, 66, 60
1, 405583, Note_off_c, 0, 75, 52
1, 405584, Note_off_c, 0, 71, 47
1, 405596, Note_on_c, 0, 64, 46
1, 405602, Note_on_c, 0, 73, 54
1, 405605, Note_on_c, 0, 70, 45
1, 405628, Note_off_c, 0, 64, 59
1, 405635, Note_off_c, 0, 70, 57
1, 405644, Note_off_c, 0, 73, 59
1, 405671, Note_on_c, 0, 66, 45
1, 405679, Note_on_c, 0, 75, 54
1, 405683, Note_on_c, 0, 71, 45
1, 405692, Note_off_c, 0, 66, 60
1, 405714, Note_off_c, 0, 71, 56
1, 405716, Note_off_c, 0, 75, 54
1, 405722, Note_on_c, 0, 64, 51
1, 405735, Note_on_c, 0, 70, 49
1, 405747, Note_off_c, 0, 64, 61
1, 405748, Note_on_c, 0, 73, 55
1, 405765, Note_off_c, 0, 70, 55
1, 405772, Note_on_c, 0, 66, 57
1, 405781, Note_off_c, 0, 73, 59
1, 405808, Note_on_c, 0, 71, 46
1, 405811, Note_off_c, 0, 66, 62
1, 405817, Note_on_c, 0, 75, 48
1, 405835, Note_on_c, 0, 64, 56
1, 405844, Note_off_c, 0, 75, 58
1, 405849, Note_off_c, 0, 71, 50
1, 405856, Note_on_c, 0, 70, 55
1, 405862, Note_on_c, 0, 73, 60
1, 405863, Note_off_c, 0, 64, 63
1, 405895, Note_off_c, 0, 70, 57
1, 405906, Note_off_c, 0, 73, 61
1, 405916, Note_on_c, 0, 66, 46
1, 405936, Note_on_c, 0, 75, 58
1, 405944, Note_off_c, 0, 66, 56
1, 405963, Note_on_c, 0, 64, 48
1, 405967, Note_off_c, 0, 75, 53
1, 405971, Note_on_c, 0, 71, 24
1, 405985, Note_off_c, 0, 64, 62
1, 405990, Note_on_c, 0, 70, 50
1, 406000, Note_on_c, 0, 73, 55
1, 406008, Note_off_c, 0, 71, 56
1, 406018, Note_off_c, 0, 70, 57
1, 406026, Control_c, 0, 67, 125
1, 406035, Note_off_c, 0, 73, 60
1, 406040, Control_c, 0, 67, 123
1, 406055, Note_on_c, 0, 75, 59
1, 406055, Control_c, 0, 67, 120
1, 406064, Note_on_c, 0, 64, 51
1, 406067, Note_on_c, 0, 71, 33
1, 406070, Control_c, 0, 67, 117
1, 406082, Poly_aftertouch_c, 0, 66, 127
1, 406085, Control_c, 0, 67, 113
1, 406089, Note_off_c, 0, 64, 60
1, 406094, Note_off_c, 0, 75, 59
1, 406100, Control_c, 0, 67, 108
1, 406107, Note_on_c, 0, 70, 57
1, 406115, Control_c, 0, 67, 103
1, 406115, Note_on_c, 0, 73, 61
1, 406121, Note_off_c, 0, 71, 44
1, 406130, Control_c, 0, 67, 98
1, 406139, Note_off_c, 0, 70, 61
1, 406145, Control_c, 0, 67, 93
1, 406152, Note_off_c, 0, 73, 62
1, 406159, Control_c, 0, 67, 87
1, 406165, Note_on_c, 0, 64, 44
1, 406168, Note_on_c, 0, 71, 55
1, 406171, Note_on_c, 0, 75, 59
1, 406174, Control_c, 0, 67, 81
1, 406178, Note_on_c, 0, 66, 32
1, 406189, Control_c, 0, 67, 76
1, 406198, Note_off_c, 0, 64, 52
1, 406204, Control_c, 0, 67, 70
1, 406219, Control_c, 0, 67, 67
1, 406222, Note_off_c, 0, 75, 60
1, 406228, Note_on_c, 0, 70, 58
1, 406229, Note_off_c, 0, 71, 65
1, 406232, Note_on_c, 0, 73, 58
1, 406233, Control_c, 0, 67, 64
1, 406237, Note_on_c, 0, 64, 60
1, 406248, Control_c, 0, 67, 60
1, 406263, Control_c, 0, 67, 58
1, 406264, Note_off_c, 0, 66, 0
1, 406267, Note_off_c, 0, 64, 65
1, 406268, Note_off_c, 0, 70, 62
1, 406278, Control_c, 0, 67, 55
1, 406280, Note_on_c, 0, 66, 36
1, 406288, Note_off_c, 0, 73, 62
1, 406293, Control_c, 0, 67, 53
1, 406294, Note_on_c, 0, 71, 52
1, 406297, Note_on_c, 0, 75, 61
1, 406307, Control_c, 0, 67, 51
1, 406322, Control_c, 0, 67, 49
1, 406327, Note_off_c, 0, 66, 59
1, 406327, Note_on_c, 0, 64, 69
1, 406337, Control_c, 0, 67, 47
1, 406346, Note_off_c, 0, 75, 61
1, 406350, Note_on_c, 0, 73, 52
1, 406351, Control_c, 0, 67, 46
1, 406352, Note_off_c, 0, 71, 64
1, 406359, Note_on_c, 0, 70, 60
1, 406359, Note_off_c, 0, 64, 63
1, 406366, Control_c, 0, 67, 46
1, 406380, Note_on_c, 0, 66, 53
1, 406381, Control_c, 0, 67, 45
1, 406389, Note_off_c, 0, 70, 63
1, 406396, Control_c, 0, 67, 45
1, 406412, Control_c, 0, 67, 44
1, 406416, Note_on_c, 0, 71, 57
1, 406417, Note_off_c, 0, 73, 61
1, 406422, Note_on_c, 0, 75, 58
1, 406434, Note_off_c, 0, 66, 58
1, 406434, Note_on_c, 0, 64, 65
1, 406441, Control_c, 0, 67, 43
1, 406456, Control_c, 0, 67, 42
1, 406458, Note_off_c, 0, 64, 69
1, 406465, Poly_aftertouch_c, 0, 73, 0
1, 406471, Control_c, 0, 67, 41
1, 406473, Note_off_c, 0, 75, 59
1, 406476, Note_on_c, 0, 73, 55
1, 406479, Note_off_c, 0, 71, 64
1, 406479, Note_on_c, 0, 70, 60
1, 406482, Note_on_c, 0, 66, 42
1, 406485, Control_c, 0, 67, 40
1, 406502, Control_c, 0, 67, 38
1, 406517, Control_c, 0, 67, 36
1, 406519, Note_off_c, 0, 70, 58
1, 406531, Control_c, 0, 67, 35
1, 406540, Note_on_c, 0, 64, 53
1, 406543, Note_off_c, 0, 73, 63
1, 406546, Control_c, 0, 67, 33
1, 406549, Note_on_c, 0, 75, 65
1, 406551, Note_on_c, 0, 71, 56
1, 406556, Note_off_c, 0, 66, 0
1, 406561, Control_c, 0, 67, 32
1, 406566, Note_off_c, 0, 64, 57
1, 406570, Note_on_c, 0, 66, 41
1, 406575, Control_c, 0, 67, 30
1, 406590, Control_c, 0, 67, 28
1, 406605, Note_off_c, 0, 75, 59
1, 406605, Control_c, 0, 67, 27
1, 406608, Note_off_c, 0, 66, 56
1, 406613, Note_off_c, 0, 71, 63
1, 406616, Note_on_c, 0, 73, 54
1, 406619, Note_on_c, 0, 70, 63
1, 406620, Control_c, 0, 67, 25
1, 406639, Note_on_c, 0, 64, 61
1, 406643, Control_c, 0, 67, 23
1, 406656, Note_off_c, 0, 64, 67
1, 406656, Note_off_c, 0, 70, 62
1, 406657, Control_c, 0, 67, 21
1, 406672, Control_c, 0, 67, 19
1, 406680, Note_off_c, 0, 73, 63
1, 406681, Note_on_c, 0, 75, 66
1, 406683, Note_on_c, 0, 71, 56
1, 406684, Note_on_c, 0, 66, 55
1, 406687, Control_c, 0, 67, 18
1, 406702, Control_c, 0, 67, 16
1, 406717, Control_c, 0, 67, 15
1, 406722, Note_on_c, 0, 64, 68
1, 406731, Control_c, 0, 67, 14
1, 406741, Note_off_c, 0, 75, 62
1, 406746, Control_c, 0, 67, 13
1, 406747, Note_on_c, 0, 73, 54
1, 406748, Note_off_c, 0, 71, 64
1, 406750, Note_off_c, 0, 66, 0
1, 406751, Note_off_c, 0, 64, 64
1, 406756, Note_on_c, 0, 70, 63
1, 406761, Control_c, 0, 67, 11
1, 406764, Note_on_c, 0, 66, 42
1, 406775, Control_c, 0, 67, 10
1, 406784, Note_off_c, 0, 70, 65
1, 406790, Control_c, 0, 67, 9
1, 406805, Control_c, 0, 67, 8
1, 406806, Note_on_c, 0, 75, 68
1, 406806, Note_off_c, 0, 66, 59
1, 406807, Note_on_c, 0, 71, 56
1, 406807, Note_off_c, 0, 73, 62
1, 406813, Note_on_c, 0, 64, 69
1, 406820, Control_c, 0, 67, 0
1, 406843, Note_off_c, 0, 64, 64
1, 406845, Poly_aftertouch_c, 0, 73, 0
1, 406854, Note_on_c, 0, 66, 52
1, 406857, Note_on_c, 0, 73, 53
1, 406861, Note_off_c, 0, 75, 62
1, 406866, Note_off_c, 0, 71, 63
1, 406884, Note_on_c, 0, 70, 50
1, 406908, Note_on_c, 0, 64, 65
1, 406910, Note_off_c, 0, 73, 62
1, 406911, Note_off_c, 0, 70, 55
1, 406913, Note_on_c, 0, 75, 58
1, 406914, Note_on_c, 0, 71, 53
1, 406923, Note_off_c, 0, 66, 0
1, 406926, Note_off_c, 0, 64, 67
1, 406956, Poly_aftertouch_c, 0, 73, 0
1, 406961, Poly_aftertouch_c, 0, 66, 127
1, 406965, Note_on_c, 0, 73, 67
1, 406969, Note_off_c, 0, 75, 62
1, 406977, Note_off_c, 0, 71, 64
1, 406978, Poly_aftertouch_c, 0, 66, 0
1, 406979, Note_on_c, 0, 64, 77
1, 406982, Note_on_c, 0, 70, 58
1, 407021, Note_off_c, 0, 64, 57
1, 407081, Note_off_c, 0, 70, 53
1, 407091, Note_on_c, 0, 66, 77
1, 407093, Note_on_c, 0, 75, 82
1, 407093, Note_on_c, 0, 71, 74
1, 407102, Note_on_c, 0, 63, 72
1, 407140, Note_off_c, 0, 73, 38
1, 407220, Control_c, 0, 64, 83
1, 407235, Control_c, 0, 64, 60
1, 407249, Control_c, 0, 64, 43
1, 407264, Control_c, 0, 64, 37
1, 407279, Control_c, 0, 64, 42
1, 407295, Control_c, 0, 64, 51
1, 407310, Control_c, 0, 64, 61
1, 407324, Control_c, 0, 64, 82
1, 407339, Control_c, 0, 64, 127
1, 407367, Note_on_c, 0, 73, 79
1, 407376, Note_on_c, 0, 70, 80
1, 407382, Note_on_c, 0, 64, 77
1, 407387, Note_on_c, 0, 61, 67
1, 407406, Note_off_c, 0, 75, 61
1, 407426, Note_off_c, 0, 66, 62
1, 407428, Note_off_c, 0, 71, 62
1, 407429, Note_off_c, 0, 63, 60
1, 407580, Note_on_c, 0, 66, 87
1, 407581, Note_on_c, 0, 75, 83
1, 407588, Note_on_c, 0, 71, 73
1, 407598, Note_off_c, 0, 70, 59
1, 407613, Note_off_c, 0, 73, 62
1, 407619, Note_off_c, 0, 64, 61
1, 407648, Note_off_c, 0, 61, 64
1, 407747, Note_on_c, 0, 64, 78
1, 407749, Note_on_c, 0, 73, 79
1, 407751, Note_on_c, 0, 61, 75
1, 407754, Note_on_c, 0, 70, 79
1, 407762, Note_off_c, 0, 66, 63
1, 407763, Note_off_c, 0, 71, 61
1, 407770, Note_off_c, 0, 75, 59
1, 407898, Note_on_c, 0, 75, 78
1, 407898, Note_off_c, 0, 70, 62
1, 407899, Note_off_c, 0, 61, 63
1, 407903, Note_on_c, 0, 66, 80
1, 407904, Note_on_c, 0, 71, 75
1, 407911, Note_off_c, 0, 73, 56
1, 407915, Note_off_c, 0, 64, 60
1, 408028, Note_on_c, 0, 64, 73
1, 408034, Note_on_c, 0, 61, 65
1, 408036, Note_on_c, 0, 73, 73
1, 408040, Note_off_c, 0, 66, 61
1, 408042, Note_on_c, 0, 70, 74
1, 408049, Note_off_c, 0, 71, 62
1, 408053, Note_off_c, 0, 75, 59
1, 408153, Note_off_c, 0, 61, 64
1, 408162, Note_off_c, 0, 70, 62
1, 408169, Note_off_c, 0, 73, 61
1, 408172, Note_on_c, 0, 71, 73
1, 408172, Note_on_c, 0, 75, 77
1, 408172, Note_off_c, 0, 64, 60
1, 408173, Note_on_c, 0, 66, 79
1, 408279, Note_on_c, 0, 64, 72
1, 408284, Note_on_c, 0, 70, 76
1, 408285, Note_on_c, 0, 61, 65
1, 408285, Note_off_c, 0, 66, 61
1, 408285, Note_on_c, 0, 73, 73
1, 408289, Note_off_c, 0, 75, 60
1, 408295, Note_off_c, 0, 71, 61
1, 408395, Note_off_c, 0, 61, 64
1, 408398, Note_off_c, 0, 70, 62
1, 408403, Note_off_c, 0, 73, 61
1, 408404, Note_on_c, 0, 71, 74
1, 408404, Note_on_c, 0, 66, 77
1, 408404, Note_on_c, 0, 75, 76
1, 408406, Note_off_c, 0, 64, 61
1, 408505, Note_off_c, 0, 66, 62
1, 408512, Note_on_c, 0, 73, 71
1, 408515, Note_on_c, 0, 61, 60
1, 408515, Note_on_c, 0, 64, 67
1, 408515, Note_on_c, 0, 70, 73
1, 408516, Note_off_c, 0, 75, 60
1, 408517, Note_off_c, 0, 71, 64
1, 408593, Note_off_c, 0, 61, 64
1, 408605, Note_off_c, 0, 70, 60
1, 408614, Note_off_c, 0, 64, 62
1, 408618, Note_on_c, 0, 71, 79
1, 408619, Note_on_c, 0, 75, 74
1, 408619, Note_off_c, 0, 73, 59
1, 408620, Note_on_c, 0, 66, 75
1, 408715, Note_on_c, 0, 70, 75
1, 408715, Note_off_c, 0, 75, 60
1, 408717, Note_on_c, 0, 61, 64
1, 408717, Note_on_c, 0, 64, 69
1, 408717, Note_off_c, 0, 66, 63
1, 408721, Note_on_c, 0, 73, 75
1, 408723, Note_off_c, 0, 71, 64
1, 408786, Note_off_c, 0, 61, 64
1, 408795, Note_off_c, 0, 70, 59
1, 408807, Note_on_c, 0, 75, 75
1, 408808, Note_off_c, 0, 73, 59
1, 408810, Note_on_c, 0, 71, 76
1, 408812, Note_off_c, 0, 64, 61
1, 408822, Note_on_c, 0, 66, 80
1, 408898, Note_off_c, 0, 75, 61
1, 408906, Note_on_c, 0, 70, 75
1, 408911, Note_off_c, 0, 66, 62
1, 408915, Note_on_c, 0, 61, 68
1, 408915, Note_on_c, 0, 73, 71
1, 408915, Note_off_c, 0, 71, 61
1, 408917, Note_on_c, 0, 64, 69
1, 408948, Control_c, 0, 64, 99
1, 408963, Control_c, 0, 64, 69
1, 408967, Note_off_c, 0, 70, 60
1, 408977, Control_c, 0, 64, 63
1, 408978, Note_off_c, 0, 61, 64
1, 408984, Note_off_c, 0, 73, 63
1, 408989, Note_on_c, 0, 75, 72
1, 408992, Note_on_c, 0, 71, 68
1, 408992, Control_c, 0, 64, 62
1, 408996, Note_off_c, 0, 64, 62
1, 409000, Note_on_c, 0, 66, 82
1, 409007, Control_c, 0, 64, 66
1, 409022, Control_c, 0, 64, 82
1, 409037, Control_c, 0, 64, 127
1, 409054, Note_off_c, 0, 71, 41
1, 409062, Note_off_c, 0, 75, 62
1, 409068, Note_on_c, 0, 73, 69
1, 409072, Note_on_c, 0, 70, 65
1, 409073, Note_off_c, 0, 66, 61
1, 409083, Note_on_c, 0, 64, 55
1, 409087, Note_on_c, 0, 61, 54
1, 409103, Note_off_c, 0, 70, 63
1, 409105, Note_off_c, 0, 61, 67
1, 409124, Note_off_c, 0, 64, 63
1, 409125, Note_off_c, 0, 73, 64
1, 409128, Note_on_c, 0, 71, 68
1, 409129, Note_on_c, 0, 75, 66
1, 409141, Note_on_c, 0, 66, 63
1, 409183, Note_on_c, 0, 61, 60
1, 409191, Note_on_c, 0, 73, 69
1, 409191, Note_off_c, 0, 75, 62
1, 409193, Note_off_c, 0, 71, 60
1, 409194, Note_off_c, 0, 66, 62
1, 409196, Note_on_c, 0, 70, 59
1, 409202, Note_on_c, 0, 64, 62
1, 409219, Note_off_c, 0, 61, 65
1, 409232, Note_off_c, 0, 70, 59
1, 409244, Note_off_c, 0, 64, 62
1, 409253, Note_off_c, 0, 73, 64
1, 409256, Note_on_c, 0, 75, 69
1, 409257, Note_on_c, 0, 66, 66
1, 409258, Note_on_c, 0, 71, 64
1, 409312, Note_on_c, 0, 61, 61
1, 409312, Note_off_c, 0, 66, 62
1, 409319, Note_on_c, 0, 64, 58
1, 409322, Note_off_c, 0, 75, 60
1, 409323, Note_on_c, 0, 73, 70
1, 409327, Note_on_c, 0, 70, 71
1, 409328, Note_off_c, 0, 71, 65
1, 409340, Note_off_c, 0, 61, 68
1, 409364, Note_off_c, 0, 64, 61
1, 409367, Note_off_c, 0, 70, 57
1, 409374, Note_on_c, 0, 66, 73
1, 409384, Note_off_c, 0, 73, 64
1, 409386, Note_on_c, 0, 71, 65
1, 409388, Note_on_c, 0, 75, 67
1, 409428, Note_on_c, 0, 61, 57
1, 409430, Note_off_c, 0, 66, 63
1, 409433, Note_on_c, 0, 64, 63
1, 409446, Note_off_c, 0, 75, 62
1, 409447, Note_on_c, 0, 73, 67
1, 409449, Note_off_c, 0, 71, 65
1, 409457, Note_off_c, 0, 61, 67
1, 409458, Note_on_c, 0, 70, 66
1, 409483, Note_off_c, 0, 70, 64
1, 409486, Note_off_c, 0, 64, 59
1, 409491, Note_on_c, 0, 66, 71
1, 409512, Note_on_c, 0, 71, 73
1, 409514, Note_off_c, 0, 73, 65
1, 409520, Note_on_c, 0, 75, 63
1, 409541, Note_on_c, 0, 61, 66
1, 409546, Note_off_c, 0, 66, 62
1, 409554, Note_on_c, 0, 64, 53
1, 409568, Note_off_c, 0, 61, 67
1, 409570, Note_on_c, 0, 73, 66
1, 409573, Note_off_c, 0, 75, 62
1, 409579, Note_off_c, 0, 71, 64
1, 409584, Note_on_c, 0, 70, 64
1, 409596, Note_on_c, 0, 66, 64
1, 409596, Note_off_c, 0, 64, 62
1, 409624, Note_off_c, 0, 70, 60
1, 409650, Note_off_c, 0, 73, 64
1, 409652, Note_on_c, 0, 71, 65
1, 409654, Note_on_c, 0, 64, 62
1, 409655, Note_off_c, 0, 66, 63
1, 409656, Note_on_c, 0, 61, 62
1, 409662, Note_on_c, 0, 75, 54
1, 409679, Note_off_c, 0, 61, 67
1, 409688, Note_off_c, 0, 75, 64
1, 409689, Note_on_c, 0, 73, 55
1, 409690, Note_off_c, 0, 71, 64
1, 409701, Note_on_c, 0, 66, 65
1, 409706, Note_on_c, 0, 70, 68
1, 409740, Note_on_c, 0, 61, 84
1, 409745, Note_off_c, 0, 70, 56
1, 409754, Note_on_c, 0, 75, 84
1, 409755, Note_on_c, 0, 71, 72
1, 409768, Note_off_c, 0, 66, 58
1, 409800, Note_off_c, 0, 64, 60
1, 409807, Note_off_c, 0, 75, 56
1, 409809, Note_off_c, 0, 71, 64
1, 409830, Note_off_c, 0, 61, 63
1, 409838, Note_off_c, 0, 73, 63
1, 409921, Note_on_c, 0, 72, 93
1, 409925, Note_on_c, 0, 63, 88
1, 409931, Note_on_c, 0, 69, 81
1, 409956, Note_off_c, 0, 69, 66
1, 409981, Note_off_c, 0, 63, 63
1, 409995, Note_off_c, 0, 72, 60
1, 410087, Note_on_c, 0, 64, 88
1, 410096, Note_on_c, 0, 73, 86
1, 410097, Note_on_c, 0, 70, 82
1, 410124, Note_off_c, 0, 70, 62
1, 410129, Note_off_c, 0, 64, 65
1, 410141, Note_off_c, 0, 73, 64
1, 410190, Note_on_c, 0, 66, 88
1, 410194, Note_on_c, 0, 75, 87
1, 410212, Note_off_c, 0, 66, 67
1, 410256, Note_off_c, 0, 75, 56
1, 410265, Note_on_c, 0, 64, 78
1, 410278, Poly_aftertouch_c, 0, 70, 127
1, 410281, Note_on_c, 0, 73, 87
1, 410324, Poly_aftertouch_c, 0, 70, 0
1, 410327, Note_on_c, 0, 61, 80
1, 410334, Note_off_c, 0, 64, 63
1, 410336, Note_on_c, 0, 76, 78
1, 410357, Note_off_c, 0, 61, 67
1, 410360, Note_off_c, 0, 73, 63
1, 410415, Control_c, 0, 64, 65
1, 410418, Note_on_c, 0, 64, 97
1, 410419, Note_on_c, 0, 54, 99
1, 410422, Note_on_c, 0, 70, 96
1, 410425, Note_on_c, 0, 79, 93
1, 410426, Note_off_c, 0, 76, 58
1, 410430, Control_c, 0, 64, 31
1, 410445, Control_c, 0, 64, 0
1, 410495, Note_off_c, 0, 64, 58
1, 410505, Control_c, 0, 64, 39
1, 410520, Control_c, 0, 64, 62
1, 410533, Note_off_c, 0, 54, 64
1, 410533, Note_off_c, 0, 70, 58
1, 410535, Control_c, 0, 64, 127
1, 410550, Note_off_c, 0, 79, 64
1, 410890, Control_c, 0, 64, 105
1, 410905, Control_c, 0, 64, 92
1, 410920, Control_c, 0, 64, 84
1, 410935, Control_c, 0, 64, 79
1, 410949, Control_c, 0, 64, 74
1, 410964, Control_c, 0, 64, 67
1, 410979, Control_c, 0, 64, 62
1, 410994, Control_c, 0, 64, 54
1, 411009, Control_c, 0, 64, 39
1, 411023, Control_c, 0, 64, 8
1, 411038, Control_c, 0, 64, 0
1, 411185, Note_on_c, 0, 64, 85
1, 411187, Note_on_c, 0, 58, 88
1, 411188, Note_on_c, 0, 42, 80
1, 411253, Control_c, 0, 64, 14
1, 411268, Control_c, 0, 64, 42
1, 411282, Control_c, 0, 64, 62
1, 411299, Control_c, 0, 64, 127
1, 411339, Note_off_c, 0, 64, 60
1, 411385, Note_off_c, 0, 58, 63
1, 411537, Note_on_c, 0, 64, 92
1, 411537, Note_on_c, 0, 54, 98
1, 411537, Note_on_c, 0, 59, 85
1, 411539, Note_on_c, 0, 35, 83
1, 411564, Control_c, 0, 64, 115
1, 411566, Note_off_c, 0, 42, 60
1, 411579, Control_c, 0, 64, 80
1, 411594, Control_c, 0, 64, 63
1, 411609, Control_c, 0, 64, 42
1, 411624, Control_c, 0, 64, 0
1, 411728, Control_c, 0, 64, 30
1, 411743, Control_c, 0, 64, 48
1, 411758, Control_c, 0, 64, 64
1, 411772, Control_c, 0, 64, 88
1, 411787, Control_c, 0, 64, 127
1, 412046, Note_on_c, 0, 42, 81
1, 412213, Note_off_c, 0, 35, 61
1, 412324, Note_on_c, 0, 47, 69
1, 412368, Note_off_c, 0, 42, 59
1, 412394, Note_on_c, 0, 63, 80
1, 412424, Note_off_c, 0, 64, 61
1, 412447, Control_c, 0, 64, 92
1, 412461, Control_c, 0, 64, 67
1, 412476, Control_c, 0, 64, 54
1, 412491, Control_c, 0, 64, 28
1, 412506, Control_c, 0, 64, 11
1, 412521, Control_c, 0, 64, 18
1, 412536, Control_c, 0, 64, 31
1, 412551, Control_c, 0, 64, 44
1, 412566, Control_c, 0, 64, 59
1, 412581, Control_c, 0, 64, 77
1, 412595, Control_c, 0, 64, 127
1, 412687, Note_on_c, 0, 49, 76
1, 412707, Note_off_c, 0, 47, 56
1, 412938, Note_on_c, 0, 51, 76
1, 412939, Note_off_c, 0, 49, 59
1, 413059, Note_off_c, 0, 54, 37
1, 413137, Note_off_c, 0, 51, 57
1, 413174, Note_on_c, 0, 56, 77
1, 413225, Control_c, 0, 64, 106
1, 413240, Control_c, 0, 64, 99
1, 413255, Control_c, 0, 64, 93
1, 413269, Control_c, 0, 64, 88
1, 413284, Control_c, 0, 64, 85
1, 413299, Control_c, 0, 64, 82
1, 413314, Control_c, 0, 64, 79
1, 413329, Control_c, 0, 64, 77
1, 413344, Control_c, 0, 64, 76
1, 413366, Control_c, 0, 64, 75
1, 413381, Control_c, 0, 64, 74
1, 413396, Control_c, 0, 64, 73
1, 413411, Control_c, 0, 64, 72
1, 413415, Note_on_c, 0, 54, 74
1, 413425, Control_c, 0, 64, 71
1, 413440, Control_c, 0, 64, 71
1, 413455, Control_c, 0, 64, 69
1, 413469, Control_c, 0, 64, 66
1, 413484, Control_c, 0, 64, 60
1, 413499, Control_c, 0, 64, 47
1, 413514, Control_c, 0, 64, 26
1, 413529, Control_c, 0, 64, 0
1, 413573, Control_c, 0, 64, 22
1, 413579, Note_off_c, 0, 56, 29
1, 413588, Control_c, 0, 64, 39
1, 413603, Control_c, 0, 64, 55
1, 413618, Control_c, 0, 64, 71
1, 413633, Control_c, 0, 64, 127
1, 413642, Note_on_c, 0, 51, 71
1, 413752, Note_off_c, 0, 54, 50
1, 413869, Note_on_c, 0, 49, 76
1, 413896, Note_off_c, 0, 51, 60
1, 413900, Control_c, 0, 64, 92
1, 413915, Control_c, 0, 64, 65
1, 413930, Control_c, 0, 64, 46
1, 413945, Control_c, 0, 64, 28
1, 413960, Control_c, 0, 64, 28
1, 413974, Control_c, 0, 64, 37
1, 413989, Control_c, 0, 64, 48
1, 414004, Control_c, 0, 64, 62
1, 414019, Control_c, 0, 64, 93
1, 414034, Control_c, 0, 64, 127
1, 414061, Note_off_c, 0, 59, 35
1, 414083, Note_off_c, 0, 49, 65
1, 414086, Note_on_c, 0, 51, 78
1, 414173, Note_off_c, 0, 63, 37
1, 414321, Note_on_c, 0, 49, 72
1, 414338, Note_off_c, 0, 51, 37
1, 414447, Note_off_c, 0, 49, 57
1, 414548, Note_on_c, 0, 47, 75
1, 414795, Note_on_c, 0, 35, 58
1, 414812, Control_c, 0, 64, 113
1, 414827, Control_c, 0, 64, 95
1, 414841, Control_c, 0, 64, 83
1, 414855, Note_on_c, 0, 64, 75
1, 414856, Control_c, 0, 64, 75
1, 414866, Note_on_c, 0, 59, 66
1, 414873, Note_on_c, 0, 54, 57
1, 414879, Control_c, 0, 64, 68
1, 414894, Control_c, 0, 64, 62
1, 414909, Control_c, 0, 64, 55
1, 414923, Control_c, 0, 64, 42
1, 414938, Control_c, 0, 64, 15
1, 414953, Control_c, 0, 64, 0
1, 414998, Note_off_c, 0, 47, 40
1, 415101, Control_c, 0, 64, 14
1, 415115, Control_c, 0, 64, 28
1, 415130, Control_c, 0, 64, 39
1, 415145, Control_c, 0, 64, 50
1, 415160, Control_c, 0, 64, 61
1, 415175, Control_c, 0, 64, 72
1, 415189, Control_c, 0, 64, 80
1, 415204, Control_c, 0, 64, 83
1, 415219, Control_c, 0, 64, 85
1, 415234, Control_c, 0, 64, 90
1, 415237, Note_on_c, 0, 42, 64
1, 415248, Control_c, 0, 64, 97
1, 415263, Control_c, 0, 64, 107
1, 415264, Poly_aftertouch_c, 0, 62, 127
1, 415278, Control_c, 0, 64, 114
1, 415294, Control_c, 0, 64, 127
1, 415296, Note_off_c, 0, 35, 37
1, 415388, Note_off_c, 0, 42, 55
1, 415415, Poly_aftertouch_c, 0, 62, 0
1, 415472, Note_on_c, 0, 49, 68
1, 415708, Note_on_c, 0, 51, 70
1, 415734, Note_off_c, 0, 49, 62
1, 415864, Control_c, 0, 64, 122
1, 415879, Control_c, 0, 64, 109
1, 415894, Control_c, 0, 64, 105
1, 415909, Control_c, 0, 64, 101
1, 415924, Control_c, 0, 64, 97
1, 415938, Control_c, 0, 64, 85
1, 415942, Note_off_c, 0, 51, 63
1, 415944, Note_on_c, 0, 58, 71
1, 415947, Note_on_c, 0, 52, 63
1, 415953, Control_c, 0, 64, 70
1, 415968, Control_c, 0, 64, 60
1, 415983, Control_c, 0, 64, 43
1, 415998, Control_c, 0, 64, 18
1, 416012, Control_c, 0, 64, 0
1, 416071, Control_c, 0, 64, 8
1, 416087, Control_c, 0, 64, 26
1, 416102, Control_c, 0, 64, 38
1, 416117, Control_c, 0, 64, 51
1, 416122, Note_off_c, 0, 59, 36
1, 416132, Control_c, 0, 64, 65
1, 416146, Control_c, 0, 64, 86
1, 416160, Control_c, 0, 64, 127
1, 416187, Note_on_c, 0, 56, 65
1, 416192, Note_off_c, 0, 52, 61
1, 416196, Note_off_c, 0, 54, 40
1, 416274, Note_off_c, 0, 58, 61
1, 416378, Note_off_c, 0, 56, 37
1, 416420, Control_c, 0, 64, 114
1, 416434, Control_c, 0, 64, 108
1, 416449, Control_c, 0, 64, 102
1, 416452, Note_on_c, 0, 63, 62
1, 416454, Note_on_c, 0, 54, 51
1, 416464, Note_on_c, 0, 58, 44
1, 416464, Control_c, 0, 64, 98
1, 416479, Control_c, 0, 64, 95
1, 416493, Control_c, 0, 64, 91
1, 416508, Control_c, 0, 64, 88
1, 416523, Control_c, 0, 64, 85
1, 416538, Control_c, 0, 64, 81
1, 416553, Control_c, 0, 64, 78
1, 416567, Control_c, 0, 64, 76
1, 416582, Control_c, 0, 64, 73
1, 416594, Note_off_c, 0, 64, 55
1, 416597, Control_c, 0, 64, 70
1, 416603, Note_off_c, 0, 58, 35
1, 416608, Note_on_c, 0, 59, 57
1, 416612, Control_c, 0, 64, 68
1, 416627, Control_c, 0, 64, 66
1, 416641, Control_c, 0, 64, 64
1, 416656, Control_c, 0, 64, 63
1, 416671, Control_c, 0, 64, 61
1, 416679, Note_on_c, 0, 51, 53
1, 416685, Control_c, 0, 64, 59
1, 416700, Control_c, 0, 64, 56
1, 416715, Control_c, 0, 64, 53
1, 416730, Control_c, 0, 64, 50
1, 416745, Control_c, 0, 64, 46
1, 416760, Control_c, 0, 64, 40
1, 416775, Control_c, 0, 64, 30
1, 416790, Control_c, 0, 64, 0
1, 416895, Note_off_c, 0, 51, 62
1, 416911, Note_on_c, 0, 49, 47
1, 417119, Note_off_c, 0, 49, 63
1, 417154, Control_c, 0, 64, 16
1, 417162, Note_on_c, 0, 51, 40
1, 417169, Control_c, 0, 64, 22
1, 417183, Control_c, 0, 64, 29
1, 417198, Control_c, 0, 64, 33
1, 417213, Control_c, 0, 64, 36
1, 417228, Control_c, 0, 64, 39
1, 417243, Control_c, 0, 64, 44
1, 417258, Control_c, 0, 64, 50
1, 417273, Control_c, 0, 64, 54
1, 417287, Control_c, 0, 64, 56
1, 417302, Control_c, 0, 64, 58
1, 417317, Control_c, 0, 64, 61
1, 417332, Control_c, 0, 64, 64
1, 417347, Control_c, 0, 64, 68
1, 417357, Note_off_c, 0, 54, 41
1, 417359, Note_off_c, 0, 59, 28
1, 417362, Control_c, 0, 64, 72
1, 417377, Control_c, 0, 64, 74
1, 417385, Note_on_c, 0, 49, 46
1, 417391, Control_c, 0, 64, 76
1, 417400, Note_off_c, 0, 51, 37
1, 417406, Control_c, 0, 64, 80
1, 417421, Control_c, 0, 64, 86
1, 417435, Control_c, 0, 64, 95
1, 417450, Control_c, 0, 64, 104
1, 417465, Control_c, 0, 64, 127
1, 417618, Note_off_c, 0, 49, 44
1, 417636, Note_on_c, 0, 47, 48
1, 417642, Note_off_c, 0, 63, 33
1, 417827, Note_off_c, 0, 47, 33
1, 417947, Control_c, 0, 67, 9
1, 417962, Control_c, 0, 67, 14
1, 417977, Control_c, 0, 67, 20
1, 417992, Control_c, 0, 67, 25
1, 418006, Control_c, 0, 67, 33
1, 418019, Note_on_c, 0, 35, 35
1, 418021, Control_c, 0, 67, 40
1, 418036, Control_c, 0, 67, 50
1, 418051, Control_c, 0, 67, 61
1, 418065, Control_c, 0, 67, 73
1, 418080, Control_c, 0, 67, 84
1, 418095, Control_c, 0, 67, 95
1, 418110, Control_c, 0, 67, 103
1, 418125, Control_c, 0, 67, 111
1, 418140, Control_c, 0, 67, 118
1, 418155, Note_on_c, 0, 64, 55
1, 418155, Control_c, 0, 67, 123
1, 418164, Note_on_c, 0, 59, 48
1, 418170, Control_c, 0, 67, 127
1, 418200, Note_on_c, 0, 54, 24
1, 418214, Control_c, 0, 64, 119
1, 418229, Control_c, 0, 64, 103
1, 418244, Control_c, 0, 64, 95
1, 418258, Control_c, 0, 64, 88
1, 418273, Control_c, 0, 64, 80
1, 418288, Control_c, 0, 64, 73
1, 418303, Control_c, 0, 64, 65
1, 418318, Control_c, 0, 64, 56
1, 418332, Control_c, 0, 64, 36
1, 418347, Control_c, 0, 64, 0
1, 418421, Control_c, 0, 64, 23
1, 418436, Control_c, 0, 64, 35
1, 418450, Control_c, 0, 64, 47
1, 418465, Control_c, 0, 64, 58
1, 418481, Control_c, 0, 64, 68
1, 418496, Control_c, 0, 64, 81
1, 418511, Control_c, 0, 64, 84
1, 418526, Control_c, 0, 64, 85
1, 418541, Control_c, 0, 64, 87
1, 418555, Control_c, 0, 64, 90
1, 418559, Note_off_c, 0, 35, 38
1, 418570, Control_c, 0, 64, 93
1, 418585, Control_c, 0, 64, 95
1, 418600, Control_c, 0, 64, 96
1, 418623, Control_c, 0, 64, 97
1, 418637, Control_c, 0, 64, 97
1, 418652, Control_c, 0, 64, 98
1, 418660, Note_on_c, 0, 42, 41
1, 418711, Control_c, 0, 64, 98
1, 418836, Note_off_c, 0, 42, 33
1, 418844, Control_c, 0, 64, 99
1, 418933, Control_c, 0, 64, 99
1, 418948, Note_on_c, 0, 49, 39
1, 418963, Control_c, 0, 64, 100
1, 419007, Control_c, 0, 64, 100
1, 419037, Control_c, 0, 64, 101
1, 419067, Control_c, 0, 64, 101
1, 419111, Control_c, 0, 64, 102
1, 419201, Note_on_c, 0, 51, 46
1, 419214, Control_c, 0, 64, 103
1, 419270, Note_off_c, 0, 49, 44
1, 419430, Note_off_c, 0, 51, 57
1, 419431, Control_c, 0, 64, 100
1, 419446, Control_c, 0, 64, 84
1, 419460, Control_c, 0, 64, 69
1, 419469, Note_on_c, 0, 52, 52
1, 419475, Control_c, 0, 64, 58
1, 419490, Control_c, 0, 64, 47
1, 419504, Control_c, 0, 64, 40
1, 419534, Control_c, 0, 64, 44
1, 419549, Control_c, 0, 64, 51
1, 419564, Control_c, 0, 64, 60
1, 419579, Control_c, 0, 64, 70
1, 419593, Control_c, 0, 64, 83
1, 419608, Control_c, 0, 64, 86
1, 419623, Control_c, 0, 64, 86
1, 419637, Control_c, 0, 64, 87
1, 419652, Control_c, 0, 64, 88
1, 419672, Note_off_c, 0, 54, 39
1, 419689, Note_off_c, 0, 52, 55
1, 419697, Control_c, 0, 64, 88
1, 419710, Note_on_c, 0, 56, 49
1, 419711, Control_c, 0, 64, 89
1, 419726, Control_c, 0, 64, 89
1, 419860, Control_c, 0, 64, 89
1, 419875, Control_c, 0, 64, 88
1, 419881, Note_off_c, 0, 56, 43
1, 419889, Control_c, 0, 64, 87
1, 419903, Control_c, 0, 64, 85
1, 419918, Control_c, 0, 64, 83
1, 419933, Control_c, 0, 64, 82
1, 419948, Control_c, 0, 64, 79
1, 419963, Control_c, 0, 64, 77
1, 419977, Control_c, 0, 64, 74
1, 419991, Note_on_c, 0, 58, 50
1, 419991, Note_on_c, 0, 54, 36
1, 419992, Control_c, 0, 64, 72
1, 420007, Control_c, 0, 64, 68
1, 420021, Control_c, 0, 64, 65
1, 420036, Control_c, 0, 64, 63
1, 420051, Control_c, 0, 64, 58
1, 420066, Control_c, 0, 64, 51
1, 420082, Control_c, 0, 64, 43
1, 420104, Control_c, 0, 64, 35
1, 420119, Control_c, 0, 64, 26
1, 420134, Control_c, 0, 64, 14
1, 420149, Control_c, 0, 64, 0
1, 420256, Note_on_c, 0, 51, 40
1, 420267, Control_c, 0, 64, 18
1, 420282, Control_c, 0, 64, 25
1, 420297, Control_c, 0, 64, 30
1, 420312, Control_c, 0, 64, 33
1, 420326, Control_c, 0, 64, 35
1, 420341, Control_c, 0, 64, 35
1, 420356, Control_c, 0, 64, 35
1, 420371, Control_c, 0, 64, 34
1, 420386, Control_c, 0, 64, 32
1, 420400, Control_c, 0, 64, 30
1, 420415, Control_c, 0, 64, 27
1, 420430, Control_c, 0, 64, 24
1, 420445, Control_c, 0, 64, 22
1, 420459, Control_c, 0, 64, 20
1, 420516, Note_on_c, 0, 49, 36
1, 420531, Note_off_c, 0, 51, 37
1, 420534, Control_c, 0, 64, 21
1, 420549, Control_c, 0, 64, 22
1, 420563, Control_c, 0, 64, 23
1, 420578, Control_c, 0, 64, 25
1, 420593, Control_c, 0, 64, 28
1, 420608, Control_c, 0, 64, 31
1, 420623, Control_c, 0, 64, 34
1, 420623, Note_off_c, 0, 59, 25
1, 420638, Control_c, 0, 64, 36
1, 420653, Control_c, 0, 64, 37
1, 420668, Control_c, 0, 64, 38
1, 420683, Control_c, 0, 64, 39
1, 420698, Control_c, 0, 64, 40
1, 420712, Control_c, 0, 64, 41
1, 420727, Control_c, 0, 64, 42
1, 420742, Control_c, 0, 64, 42
1, 420760, Note_off_c, 0, 49, 52
1, 420772, Control_c, 0, 64, 43
1, 420784, Note_on_c, 0, 51, 40
1, 420786, Control_c, 0, 64, 43
1, 420801, Control_c, 0, 64, 44
1, 420816, Control_c, 0, 64, 44
1, 420831, Control_c, 0, 64, 45
1, 420853, Control_c, 0, 64, 46
1, 420867, Control_c, 0, 64, 47
1, 420883, Control_c, 0, 64, 48
1, 420898, Control_c, 0, 64, 50
1, 420913, Control_c, 0, 64, 52
1, 420928, Control_c, 0, 64, 53
1, 420943, Control_c, 0, 64, 55
1, 420957, Control_c, 0, 64, 57
1, 420972, Control_c, 0, 64, 58
1, 420987, Control_c, 0, 64, 59
1, 421002, Control_c, 0, 64, 59
1, 421017, Control_c, 0, 64, 60
1, 421046, Control_c, 0, 64, 60
1, 421079, Note_on_c, 0, 49, 42
1, 421101, Note_off_c, 0, 51, 32
1, 421106, Control_c, 0, 64, 60
1, 421136, Control_c, 0, 64, 58
1, 421150, Control_c, 0, 64, 55
1, 421165, Control_c, 0, 64, 49
1, 421180, Control_c, 0, 64, 41
1, 421195, Control_c, 0, 64, 33
1, 421209, Control_c, 0, 64, 29
1, 421224, Control_c, 0, 64, 26
1, 421239, Control_c, 0, 64, 22
1, 421254, Control_c, 0, 64, 19
1, 421269, Control_c, 0, 64, 18
1, 421283, Control_c, 0, 64, 17
1, 421389, Note_on_c, 0, 63, 46
1, 421401, Control_c, 0, 64, 17
1, 421405, Note_on_c, 0, 47, 38
1, 421416, Control_c, 0, 64, 18
1, 421417, Note_off_c, 0, 64, 33
1, 421431, Control_c, 0, 64, 20
1, 421436, Note_off_c, 0, 58, 35
1, 421446, Control_c, 0, 64, 22
1, 421461, Control_c, 0, 64, 24
1, 421471, Note_off_c, 0, 49, 42
1, 421476, Control_c, 0, 64, 26
1, 421490, Control_c, 0, 64, 28
1, 421505, Control_c, 0, 64, 30
1, 421520, Control_c, 0, 64, 33
1, 421535, Control_c, 0, 64, 37
1, 421550, Control_c, 0, 64, 41
1, 421553, Note_off_c, 0, 54, 35
1, 421565, Control_c, 0, 64, 46
1, 421580, Control_c, 0, 64, 51
1, 421595, Control_c, 0, 64, 57
1, 421607, Note_off_c, 0, 63, 60
1, 421616, Control_c, 0, 64, 62
1, 421631, Control_c, 0, 64, 66
1, 421646, Control_c, 0, 64, 68
1, 421661, Control_c, 0, 64, 68
1, 421762, Note_off_c, 0, 47, 44
1, 421776, Note_on_c, 0, 51, 33
1, 421872, Note_on_c, 0, 63, 47
1, 421884, Note_on_c, 0, 58, 34
1, 421899, Note_on_c, 0, 54, 22
1, 421944, Control_c, 0, 64, 68
1, 421973, Control_c, 0, 64, 67
1, 421988, Control_c, 0, 64, 67
1, 422003, Control_c, 0, 64, 66
1, 422018, Control_c, 0, 64, 65
1, 422032, Control_c, 0, 64, 64
1, 422047, Control_c, 0, 64, 63
1, 422062, Control_c, 0, 64, 62
1, 422064, Note_on_c, 0, 59, 40
1, 422077, Control_c, 0, 64, 60
1, 422092, Control_c, 0, 64, 58
1, 422106, Control_c, 0, 64, 55
1, 422121, Control_c, 0, 64, 54
1, 422131, Note_off_c, 0, 58, 39
1, 422136, Control_c, 0, 64, 52
1, 422151, Control_c, 0, 64, 51
1, 422180, Control_c, 0, 64, 50
1, 422194, Note_on_c, 0, 47, 41
1, 422195, Control_c, 0, 64, 49
1, 422210, Control_c, 0, 64, 46
1, 422224, Control_c, 0, 64, 41
1, 422239, Control_c, 0, 64, 33
1, 422250, Note_off_c, 0, 51, 38
1, 422254, Control_c, 0, 64, 25
1, 422269, Control_c, 0, 64, 19
1, 422284, Control_c, 0, 64, 14
1, 422298, Control_c, 0, 64, 13
1, 422313, Control_c, 0, 64, 12
1, 422380, Control_c, 0, 64, 13
1, 422410, Control_c, 0, 64, 14
1, 422425, Control_c, 0, 64, 16
1, 422439, Control_c, 0, 64, 18
1, 422449, Note_off_c, 0, 47, 44
1, 422451, Note_on_c, 0, 44, 35
1, 422454, Control_c, 0, 64, 21
1, 422469, Control_c, 0, 64, 24
1, 422485, Control_c, 0, 64, 27
1, 422500, Control_c, 0, 64, 31
1, 422515, Control_c, 0, 64, 34
1, 422529, Control_c, 0, 64, 39
1, 422544, Control_c, 0, 64, 44
1, 422559, Control_c, 0, 64, 48
1, 422574, Control_c, 0, 64, 53
1, 422589, Control_c, 0, 64, 58
1, 422603, Control_c, 0, 64, 61
1, 422618, Control_c, 0, 64, 63
1, 422662, Control_c, 0, 64, 64
1, 422692, Control_c, 0, 64, 64
1, 422713, Note_on_c, 0, 47, 38
1, 422733, Note_off_c, 0, 44, 40
1, 422855, Control_c, 0, 64, 64
1, 422900, Control_c, 0, 64, 63
1, 422929, Control_c, 0, 64, 63
1, 422944, Control_c, 0, 64, 62
1, 422959, Control_c, 0, 64, 62
1, 422966, Note_on_c, 0, 44, 40
1, 422973, Control_c, 0, 64, 61
1, 422988, Control_c, 0, 64, 60
1, 423003, Control_c, 0, 64, 59
1, 423018, Control_c, 0, 64, 57
1, 423033, Control_c, 0, 64, 55
1, 423045, Note_off_c, 0, 47, 41
1, 423047, Control_c, 0, 64, 53
1, 423062, Control_c, 0, 64, 51
1, 423077, Control_c, 0, 64, 48
1, 423100, Control_c, 0, 64, 44
1, 423115, Control_c, 0, 64, 37
1, 423129, Control_c, 0, 64, 31
1, 423144, Control_c, 0, 64, 27
1, 423159, Control_c, 0, 64, 26
1, 423203, Control_c, 0, 64, 28
1, 423218, Control_c, 0, 64, 33
1, 423233, Control_c, 0, 64, 39
1, 423246, Note_on_c, 0, 42, 33
1, 423248, Control_c, 0, 64, 45
1, 423262, Control_c, 0, 64, 52
1, 423264, Note_off_c, 0, 44, 35
1, 423278, Control_c, 0, 64, 56
1, 423293, Control_c, 0, 64, 59
1, 423308, Control_c, 0, 64, 60
1, 423323, Control_c, 0, 64, 60
1, 423352, Control_c, 0, 64, 61
1, 423367, Control_c, 0, 64, 61
1, 423441, Control_c, 0, 64, 61
1, 423456, Control_c, 0, 64, 60
1, 423471, Control_c, 0, 64, 60
1, 423485, Control_c, 0, 64, 58
1, 423486, Note_off_c, 0, 42, 39
1, 423500, Control_c, 0, 64, 58
1, 423515, Control_c, 0, 64, 56
1, 423524, Note_on_c, 0, 47, 39
1, 423530, Control_c, 0, 64, 55
1, 423544, Control_c, 0, 64, 52
1, 423559, Control_c, 0, 64, 47
1, 423574, Control_c, 0, 64, 39
1, 423589, Control_c, 0, 64, 32
1, 423604, Control_c, 0, 64, 30
1, 423634, Control_c, 0, 64, 32
1, 423649, Control_c, 0, 64, 36
1, 423664, Control_c, 0, 64, 42
1, 423678, Control_c, 0, 64, 52
1, 423693, Control_c, 0, 64, 59
1, 423708, Control_c, 0, 64, 64
1, 423723, Control_c, 0, 64, 66
1, 423738, Control_c, 0, 64, 67
1, 423794, Note_on_c, 0, 44, 39
1, 423830, Note_off_c, 0, 47, 39
1, 423893, Control_c, 0, 64, 66
1, 423953, Control_c, 0, 64, 66
1, 423983, Control_c, 0, 64, 65
1, 424012, Control_c, 0, 64, 65
1, 424042, Control_c, 0, 64, 64
1, 424057, Control_c, 0, 64, 64
1, 424072, Control_c, 0, 64, 63
1, 424087, Control_c, 0, 64, 62
1, 424090, Note_on_c, 0, 42, 35
1, 424102, Control_c, 0, 64, 60
1, 424117, Control_c, 0, 64, 56
1, 424132, Control_c, 0, 64, 49
1, 424134, Note_off_c, 0, 44, 37
1, 424146, Control_c, 0, 64, 39
1, 424161, Control_c, 0, 64, 27
1, 424176, Control_c, 0, 64, 23
1, 424206, Control_c, 0, 64, 24
1, 424221, Control_c, 0, 64, 31
1, 424235, Control_c, 0, 64, 40
1, 424250, Control_c, 0, 64, 52
1, 424265, Control_c, 0, 64, 61
1, 424280, Control_c, 0, 64, 68
1, 424295, Control_c, 0, 64, 71
1, 424354, Control_c, 0, 64, 71
1, 424355, Note_off_c, 0, 42, 32
1, 424382, Note_on_c, 0, 44, 35
1, 424397, Control_c, 0, 64, 70
1, 424486, Control_c, 0, 64, 70
1, 424501, Control_c, 0, 64, 69
1, 424502, Note_off_c, 0, 54, 38
1, 424516, Control_c, 0, 64, 69
1, 424531, Control_c, 0, 64, 68
1, 424546, Control_c, 0, 64, 66
1, 424561, Control_c, 0, 64, 64
1, 424575, Control_c, 0, 64, 62
1, 424597, Control_c, 0, 64, 61
1, 424612, Control_c, 0, 64, 60
1, 424656, Control_c, 0, 64, 60
1, 424669, Note_off_c, 0, 59, 28
1, 424671, Control_c, 0, 64, 59
1, 424686, Control_c, 0, 64, 58
1, 424701, Control_c, 0, 64, 56
1, 424716, Control_c, 0, 64, 51
1, 424731, Control_c, 0, 64, 41
1, 424737, Note_on_c, 0, 42, 32
1, 424745, Control_c, 0, 64, 29
1, 424760, Control_c, 0, 64, 16
1, 424775, Control_c, 0, 64, 0
1, 424778, Note_off_c, 0, 44, 36
1, 424804, Note_off_c, 0, 63, 34
1, 424834, Control_c, 0, 64, 21
1, 424849, Control_c, 0, 64, 32
1, 424864, Control_c, 0, 64, 41
1, 424880, Control_c, 0, 64, 51
1, 424895, Control_c, 0, 64, 59
1, 424910, Control_c, 0, 64, 66
1, 424924, Control_c, 0, 64, 73
1, 424939, Control_c, 0, 64, 74
1, 425169, Note_on_c, 0, 39, 30
1, 425494, Control_c, 0, 64, 73
1, 425592, Note_off_c, 0, 39, 36
1, 425598, Control_c, 0, 64, 73
1, 425642, Control_c, 0, 64, 72
1, 425703, Note_off_c, 0, 42, 30
1, 425717, Control_c, 0, 64, 72
1, 425806, Control_c, 0, 64, 71
1, 425851, Control_c, 0, 64, 71
1, 425895, Control_c, 0, 64, 70
1, 425939, Control_c, 0, 64, 70
1, 425969, Control_c, 0, 64, 69
1, 425984, Control_c, 0, 64, 69
1, 425998, Control_c, 0, 64, 68
1, 426028, Control_c, 0, 64, 68
1, 426058, Control_c, 0, 64, 67
1, 426072, Control_c, 0, 64, 67
1, 426110, Control_c, 0, 64, 66
1, 426125, Control_c, 0, 64, 66
1, 426140, Control_c, 0, 64, 65
1, 426154, Control_c, 0, 64, 65
1, 426169, Control_c, 0, 64, 64
1, 426184, Control_c, 0, 64, 63
1, 426198, Control_c, 0, 64, 62
1, 426213, Control_c, 0, 64, 61
1, 426228, Control_c, 0, 64, 59
1, 426231, Note_on_c, 0, 71, 39
1, 426233, Note_on_c, 0, 47, 29
1, 426235, Note_on_c, 0, 35, 30
1, 426241, Note_on_c, 0, 59, 25
1, 426243, Control_c, 0, 64, 57
1, 426258, Control_c, 0, 64, 54
1, 426272, Control_c, 0, 64, 50
1, 426287, Control_c, 0, 64, 47
1, 426302, Control_c, 0, 64, 43
1, 426317, Control_c, 0, 64, 38
1, 426332, Control_c, 0, 64, 30
1, 426346, Control_c, 0, 64, 18
1, 426361, Control_c, 0, 64, 0
1, 426389, Note_on_c, 0, 66, 51
1, 426408, Note_off_c, 0, 71, 43
1, 426510, Control_c, 0, 64, 8
1, 426525, Control_c, 0, 64, 23
1, 426540, Control_c, 0, 64, 31
1, 426555, Control_c, 0, 64, 38
1, 426570, Control_c, 0, 64, 45
1, 426585, Control_c, 0, 64, 52
1, 426600, Control_c, 0, 64, 59
1, 426614, Control_c, 0, 64, 63
1, 426629, Control_c, 0, 64, 64
1, 426644, Control_c, 0, 64, 65
1, 426674, Control_c, 0, 64, 65
1, 426688, Control_c, 0, 64, 66
1, 426703, Control_c, 0, 64, 67
1, 426728, Note_off_c, 0, 35, 39
1, 426733, Control_c, 0, 64, 68
1, 426759, Note_off_c, 0, 47, 39
1, 426863, Note_off_c, 0, 59, 30
1, 426912, Note_off_c, 0, 66, 33
1, 427727, Control_c, 0, 64, 67
1, 427866, Note_on_c, 0, 66, 44
1, 427875, Control_c, 0, 64, 67
1, 427876, Note_on_c, 0, 62, 36
1, 427882, Note_on_c, 0, 38, 29
1, 427886, Note_on_c, 0, 50, 24
1, 427888, Note_on_c, 0, 57, 27
1, 427905, Control_c, 0, 64, 66
1, 427919, Control_c, 0, 64, 66
1, 427934, Control_c, 0, 64, 65
1, 427949, Control_c, 0, 64, 65
1, 427964, Control_c, 0, 64, 64
1, 427978, Control_c, 0, 64, 61
1, 427993, Control_c, 0, 64, 58
1, 428008, Control_c, 0, 64, 50
1, 428023, Control_c, 0, 64, 39
1, 428038, Control_c, 0, 64, 24
1, 428052, Control_c, 0, 64, 0
1, 428171, Control_c, 0, 64, 21
1, 428186, Control_c, 0, 64, 29
1, 428200, Control_c, 0, 64, 36
1, 428215, Control_c, 0, 64, 43
1, 428230, Control_c, 0, 64, 52
1, 428245, Control_c, 0, 64, 60
1, 428260, Control_c, 0, 64, 66
1, 428275, Control_c, 0, 64, 69
1, 428290, Control_c, 0, 64, 70
1, 428305, Control_c, 0, 64, 71
1, 428320, Control_c, 0, 64, 72
1, 428341, Control_c, 0, 64, 75
1, 428356, Control_c, 0, 64, 78
1, 428371, Control_c, 0, 64, 81
1, 428386, Control_c, 0, 64, 84
1, 428400, Control_c, 0, 64, 86
1, 428415, Control_c, 0, 64, 90
1, 428430, Control_c, 0, 64, 94
1, 428445, Control_c, 0, 64, 99
1, 428451, Note_off_c, 0, 50, 38
1, 428460, Control_c, 0, 64, 104
1, 428475, Control_c, 0, 64, 110
1, 428490, Control_c, 0, 64, 127
1, 428799, Note_off_c, 0, 38, 39
1, 430007, Note_on_c, 0, 26, 30
1, 430443, Note_off_c, 0, 26, 38
1, 430588, Note_on_c, 0, 38, 34
1, 430804, Note_off_c, 0, 38, 40
1, 430842, Note_off_c, 0, 66, 39
1, 430921, Note_off_c, 0, 57, 36
1, 431001, Note_off_c, 0, 62, 23
1, 431004, Note_on_c, 0, 45, 36
1, 431315, Note_on_c, 0, 50, 30
1, 431567, Note_on_c, 0, 57, 41
1, 431805, Note_on_c, 0, 62, 43
1, 431946, Note_off_c, 0, 57, 39
1, 432016, Note_on_c, 0, 64, 48
1, 432049, Note_off_c, 0, 62, 52
1, 432213, Note_off_c, 0, 64, 55
1, 432235, Note_on_c, 0, 67, 48
1, 432374, Note_off_c, 0, 67, 55
1, 432430, Note_on_c, 0, 66, 42
1, 432475, Note_off_c, 0, 66, 0
1, 432475, Note_on_c, 0, 66, 8
1, 432603, Control_c, 0, 64, 95
1, 432618, Control_c, 0, 64, 69
1, 432624, Note_on_c, 0, 69, 49
1, 432633, Control_c, 0, 64, 57
1, 432648, Control_c, 0, 64, 40
1, 432663, Control_c, 0, 64, 23
1, 432671, Note_off_c, 0, 66, 45
1, 432678, Control_c, 0, 64, 25
1, 432693, Control_c, 0, 64, 35
1, 432707, Control_c, 0, 64, 47
1, 432722, Control_c, 0, 64, 60
1, 432737, Control_c, 0, 64, 76
1, 432752, Control_c, 0, 64, 119
1, 432766, Control_c, 0, 64, 127
1, 432791, Note_off_c, 0, 50, 27
1, 432801, Note_off_c, 0, 69, 56
1, 432812, Note_off_c, 0, 45, 33
1, 432815, Note_on_c, 0, 74, 45
1, 432937, Note_off_c, 0, 74, 48
1, 433019, Note_on_c, 0, 76, 44
1, 433191, Note_off_c, 0, 76, 45
1, 433196, Note_on_c, 0, 79, 45
1, 433329, Note_off_c, 0, 79, 38
1, 433386, Note_on_c, 0, 78, 48
1, 433587, Note_on_c, 0, 81, 46
1, 433645, Note_off_c, 0, 78, 56
1, 433808, Note_on_c, 0, 86, 44
1, 433816, Note_off_c, 0, 81, 35
1, 433965, Note_off_c, 0, 86, 35
1, 434056, Note_on_c, 0, 88, 50
1, 434395, Note_on_c, 0, 91, 44
1, 434426, Note_off_c, 0, 88, 41
1, 434919, Note_off_c, 0, 91, 34
1, 434955, Note_on_c, 0, 90, 41
1, 435229, Note_off_c, 0, 90, 43
1, 436006, Control_c, 0, 64, 122
1, 436021, Control_c, 0, 64, 113
1, 436036, Control_c, 0, 64, 107
1, 436052, Control_c, 0, 64, 103
1, 436067, Control_c, 0, 64, 100
1, 436081, Control_c, 0, 64, 97
1, 436096, Control_c, 0, 64, 94
1, 436111, Control_c, 0, 64, 92
1, 436125, Control_c, 0, 64, 90
1, 436140, Control_c, 0, 64, 88
1, 436155, Control_c, 0, 64, 86
1, 436170, Control_c, 0, 64, 85
1, 436185, Control_c, 0, 64, 84
1, 436200, Control_c, 0, 64, 83
1, 436214, Control_c, 0, 64, 82
1, 436229, Control_c, 0, 64, 80
1, 436244, Control_c, 0, 64, 79
1, 436259, Control_c, 0, 64, 78
1, 436274, Control_c, 0, 64, 76
1, 436288, Control_c, 0, 64, 74
1, 436303, Control_c, 0, 64, 72
1, 436318, Control_c, 0, 64, 71
1, 436332, Control_c, 0, 64, 69
1, 436347, Control_c, 0, 64, 67
1, 436362, Control_c, 0, 64, 66
1, 436377, Control_c, 0, 64, 64
1, 436392, Control_c, 0, 64, 63
1, 436407, Control_c, 0, 64, 62
1, 436422, Control_c, 0, 64, 61
1, 436437, Control_c, 0, 64, 60
1, 436452, Control_c, 0, 64, 60
1, 436467, Control_c, 0, 64, 59
1, 436481, Control_c, 0, 64, 59
1, 436496, Control_c, 0, 64, 58
1, 436511, Control_c, 0, 64, 57
1, 436592, Control_c, 0, 64, 57
1, 436607, Control_c, 0, 64, 56
1, 436622, Control_c, 0, 64, 56
1, 436636, Control_c, 0, 64, 55
1, 436666, Control_c, 0, 64, 55
1, 436666, Control_c, 0, 67, 125
1, 436681, Control_c, 0, 64, 54
1, 436681, Control_c, 0, 67, 123
1, 436696, Control_c, 0, 67, 120
1, 436711, Control_c, 0, 64, 54
1, 436711, Control_c, 0, 67, 118
1, 436726, Control_c, 0, 64, 53
1, 436726, Control_c, 0, 67, 115
1, 436740, Control_c, 0, 64, 53
1, 436740, Control_c, 0, 67, 113
1, 436755, Control_c, 0, 67, 110
1, 436770, Control_c, 0, 64, 52
1, 436770, Control_c, 0, 67, 107
1, 436785, Control_c, 0, 64, 51
1, 436785, Control_c, 0, 67, 103
1, 436800, Control_c, 0, 64, 51
1, 436800, Control_c, 0, 67, 99
1, 436814, Control_c, 0, 64, 50
1, 436814, Control_c, 0, 67, 95
1, 436829, Control_c, 0, 64, 50
1, 436829, Control_c, 0, 67, 91
1, 436844, Control_c, 0, 64, 49
1, 436844, Control_c, 0, 67, 85
1, 436860, Control_c, 0, 64, 49
1, 436860, Control_c, 0, 67, 81
1, 436875, Control_c, 0, 64, 48
1, 436875, Control_c, 0, 67, 77
1, 436890, Control_c, 0, 64, 47
1, 436890, Control_c, 0, 67, 73
1, 436904, Control_c, 0, 64, 47
1, 436904, Control_c, 0, 67, 69
1, 436919, Control_c, 0, 64, 46
1, 436919, Control_c, 0, 67, 65
1, 436934, Control_c, 0, 64, 45
1, 436934, Control_c, 0, 67, 62
1, 436948, Control_c, 0, 64, 45
1, 436948, Control_c, 0, 67, 58
1, 436963, Control_c, 0, 67, 55
1, 436978, Control_c, 0, 64, 44
1, 436978, Control_c, 0, 67, 51
1, 436993, Control_c, 0, 64, 44
1, 436993, Control_c, 0, 67, 46
1, 437008, Control_c, 0, 64, 43
1, 437008, Control_c, 0, 67, 41
1, 437022, Control_c, 0, 64, 42
1, 437022, Control_c, 0, 67, 38
1, 437037, Control_c, 0, 64, 41
1, 437037, Control_c, 0, 67, 34
1, 437052, Control_c, 0, 64, 41
1, 437052, Control_c, 0, 67, 30
1, 437067, Control_c, 0, 64, 40
1, 437067, Control_c, 0, 67, 27
1, 437082, Control_c, 0, 64, 40
1, 437082, Control_c, 0, 67, 23
1, 437096, Control_c, 0, 64, 39
1, 437096, Control_c, 0, 67, 19
1, 437112, Control_c, 0, 64, 39
1, 437112, Control_c, 0, 67, 15
1, 437127, Control_c, 0, 67, 12
1, 437142, Control_c, 0, 64, 38
1, 437142, Control_c, 0, 67, 0
1, 437156, Control_c, 0, 64, 38
1, 437171, Control_c, 0, 64, 37
1, 437186, Control_c, 0, 64, 36
1, 437201, Control_c, 0, 64, 35
1, 437216, Control_c, 0, 64, 34
1, 437230, Control_c, 0, 64, 32
1, 437245, Control_c, 0, 64, 30
1, 437260, Control_c, 0, 64, 28
1, 437275, Control_c, 0, 64, 27
1, 437290, Control_c, 0, 64, 27
1, 437304, Control_c, 0, 64, 26
1, 437319, Control_c, 0, 64, 26
1, 437342, Control_c, 0, 64, 25
1, 437356, Control_c, 0, 64, 24
1, 437371, Control_c, 0, 64, 22
1, 437386, Control_c, 0, 64, 20
1, 437401, Control_c, 0, 64, 16
1, 437416, Control_c, 0, 64, 10
1, 437430, Control_c, 0, 64, 0
1, 437846, Control_c, 0, 64, 18
1, 437861, Control_c, 0, 64, 26
1, 437876, Control_c, 0, 64, 33
1, 437891, Control_c, 0, 64, 40
1, 437905, Control_c, 0, 64, 48
1, 437920, Control_c, 0, 64, 58
1, 437935, Control_c, 0, 64, 64
1, 437950, Control_c, 0, 64, 67
1, 437979, Control_c, 0, 64, 67
1, 437994, Control_c, 0, 64, 68
1, 438009, Control_c, 0, 64, 68
1, 438024, Control_c, 0, 64, 69
1, 438179, Note_on_c, 0, 69, 79
1, 438182, Note_on_c, 0, 57, 81
1, 438182, Note_on_c, 0, 61, 78
1, 438191, Note_on_c, 0, 45, 63
1, 438198, Note_on_c, 0, 33, 60
1, 438294, Poly_aftertouch_c, 0, 67, 0
1, 438330, Note_on_c, 0, 64, 83
1, 438339, Note_off_c, 0, 69, 65
1, 438342, Control_c, 0, 64, 69
1, 438357, Control_c, 0, 64, 71
1, 438372, Control_c, 0, 64, 79
1, 438386, Control_c, 0, 64, 105
1, 438401, Control_c, 0, 64, 127
1, 438472, Note_off_c, 0, 33, 58
1, 438538, Note_off_c, 0, 45, 51
1, 438726, Note_off_c, 0, 57, 58
1, 438741, Note_off_c, 0, 64, 46
1, 438895, Note_off_c, 0, 61, 37
1, 439346, Note_on_c, 0, 64, 89
1, 439349, Note_on_c, 0, 55, 85
1, 439350, Note_on_c, 0, 48, 80
1, 439350, Note_on_c, 0, 60, 78
1, 439359, Note_on_c, 0, 36, 73
1, 439447, Control_c, 0, 64, 78
1, 439462, Control_c, 0, 64, 63
1, 439477, Control_c, 0, 64, 48
1, 439492, Control_c, 0, 64, 11
1, 439506, Control_c, 0, 64, 0
1, 439647, Control_c, 0, 64, 29
1, 439662, Control_c, 0, 64, 42
1, 439676, Control_c, 0, 64, 55
1, 439691, Control_c, 0, 64, 66
1, 439706, Control_c, 0, 64, 84
1, 439721, Control_c, 0, 64, 101
1, 439736, Control_c, 0, 64, 110
1, 439750, Control_c, 0, 64, 127
1, 439757, Note_off_c, 0, 48, 36
1, 439795, Note_off_c, 0, 36, 50
1, 440887, Note_on_c, 0, 24, 83
1, 441075, Note_off_c, 0, 24, 60
1, 441509, Note_on_c, 0, 36, 78
1, 441531, Note_off_c, 0, 55, 32
1, 441740, Note_off_c, 0, 60, 36
1, 441782, Note_off_c, 0, 64, 39
1, 441935, Note_on_c, 0, 43, 81
1, 442235, Note_on_c, 0, 48, 79
1, 442485, Note_on_c, 0, 55, 74
1, 442722, Note_on_c, 0, 60, 76
1, 442757, Note_off_c, 0, 55, 60
1, 442928, Note_on_c, 0, 62, 75
1, 443011, Note_off_c, 0, 60, 62
1, 443111, Note_on_c, 0, 65, 69
1, 443140, Note_off_c, 0, 62, 61
1, 443242, Note_off_c, 0, 65, 61
1, 443303, Note_on_c, 0, 64, 68
1, 443498, Note_on_c, 0, 67, 68
1, 443553, Control_c, 0, 64, 85
1, 443568, Control_c, 0, 64, 63
1, 443583, Control_c, 0, 64, 52
1, 443597, Control_c, 0, 64, 46
1, 443606, Note_off_c, 0, 64, 57
1, 443612, Control_c, 0, 64, 50
1, 443627, Control_c, 0, 64, 59
1, 443642, Control_c, 0, 64, 70
1, 443656, Control_c, 0, 64, 127
1, 443694, Note_on_c, 0, 72, 66
1, 443719, Note_off_c, 0, 67, 61
1, 443815, Note_off_c, 0, 72, 56
1, 443880, Note_on_c, 0, 74, 63
1, 444080, Note_on_c, 0, 77, 57
1, 444093, Note_off_c, 0, 74, 52
1, 444163, Note_off_c, 0, 43, 30
1, 444169, Note_off_c, 0, 36, 38
1, 444185, Note_off_c, 0, 48, 32
1, 444186, Note_off_c, 0, 77, 55
1, 444269, Note_on_c, 0, 76, 60
1, 444464, Note_on_c, 0, 79, 53
1, 444582, Note_off_c, 0, 76, 38
1, 444686, Note_on_c, 0, 84, 53
1, 444731, Note_off_c, 0, 79, 37
1, 444913, Note_off_c, 0, 84, 63
1, 444953, Note_on_c, 0, 86, 48
1, 445238, Note_on_c, 0, 89, 46
1, 445272, Note_off_c, 0, 86, 40
1, 445815, Note_off_c, 0, 89, 35
1, 445903, Note_on_c, 0, 88, 37
1, 446246, Note_off_c, 0, 88, 39
1, 446622, Control_c, 0, 64, 122
1, 446637, Control_c, 0, 64, 111
1, 446652, Control_c, 0, 64, 106
1, 446667, Control_c, 0, 64, 101
1, 446682, Control_c, 0, 64, 97
1, 446697, Control_c, 0, 64, 94
1, 446712, Control_c, 0, 64, 91
1, 446727, Control_c, 0, 64, 89
1, 446741, Control_c, 0, 64, 88
1, 446756, Control_c, 0, 64, 86
1, 446771, Control_c, 0, 64, 85
1, 446786, Control_c, 0, 64, 84
1, 446801, Control_c, 0, 64, 82
1, 446815, Control_c, 0, 64, 80
1, 446830, Control_c, 0, 64, 78
1, 446845, Control_c, 0, 64, 77
1, 446859, Control_c, 0, 64, 75
1, 446874, Control_c, 0, 64, 74
1, 446889, Control_c, 0, 64, 73
1, 446904, Control_c, 0, 64, 72
1, 446919, Control_c, 0, 64, 71
1, 446933, Control_c, 0, 64, 70
1, 446948, Control_c, 0, 64, 69
1, 446963, Control_c, 0, 64, 68
1, 446978, Control_c, 0, 64, 67
1, 446993, Control_c, 0, 64, 66
1, 447007, Control_c, 0, 64, 66
1, 447022, Control_c, 0, 64, 65
1, 447052, Control_c, 0, 64, 65
1, 447074, Control_c, 0, 64, 64
1, 447089, Control_c, 0, 64, 64
1, 447104, Control_c, 0, 64, 63
1, 447119, Control_c, 0, 64, 63
1, 447148, Control_c, 0, 64, 62
1, 447163, Control_c, 0, 64, 62
1, 447178, Control_c, 0, 64, 61
1, 447193, Control_c, 0, 64, 60
1, 447207, Control_c, 0, 64, 60
1, 447222, Control_c, 0, 64, 59
1, 447238, Control_c, 0, 64, 58
1, 447253, Control_c, 0, 64, 57
1, 447268, Control_c, 0, 64, 56
1, 447282, Control_c, 0, 64, 55
1, 447312, Control_c, 0, 64, 55
1, 447342, Control_c, 0, 64, 54
1, 447371, Control_c, 0, 64, 54
1, 447386, Control_c, 0, 64, 53
1, 447401, Control_c, 0, 64, 53
1, 447416, Control_c, 0, 64, 52
1, 447431, Control_c, 0, 64, 52
1, 447445, Control_c, 0, 64, 51
1, 447460, Control_c, 0, 64, 51
1, 447475, Control_c, 0, 64, 50
1, 447490, Control_c, 0, 64, 50
1, 447505, Control_c, 0, 64, 49
1, 447520, Control_c, 0, 64, 49
1, 447535, Control_c, 0, 64, 48
1, 447550, Control_c, 0, 64, 48
1, 447564, Control_c, 0, 64, 47
1, 447579, Control_c, 0, 64, 47
1, 447594, Control_c, 0, 64, 46
1, 447609, Control_c, 0, 64, 46
1, 447624, Control_c, 0, 64, 45
1, 447639, Control_c, 0, 64, 45
1, 447669, Control_c, 0, 64, 44
1, 447683, Control_c, 0, 64, 44
1, 447698, Control_c, 0, 64, 43
1, 447713, Control_c, 0, 64, 43
1, 447728, Control_c, 0, 64, 42
1, 447743, Control_c, 0, 64, 41
1, 447757, Control_c, 0, 64, 41
1, 447772, Control_c, 0, 64, 40
1, 447787, Control_c, 0, 64, 39
1, 447802, Control_c, 0, 64, 39
1, 447824, Control_c, 0, 64, 38
1, 447839, Control_c, 0, 64, 37
1, 447854, Control_c, 0, 64, 36
1, 447868, Control_c, 0, 64, 36
1, 447883, Control_c, 0, 64, 35
1, 448062, Control_c, 0, 64, 35
1, 448136, Control_c, 0, 64, 34
1, 448180, Control_c, 0, 64, 34
1, 448210, Control_c, 0, 64, 33
1, 448225, Control_c, 0, 64, 33
1, 448239, Control_c, 0, 64, 32
1, 448269, Control_c, 0, 64, 32
1, 448299, Control_c, 0, 64, 31
1, 448313, Control_c, 0, 64, 31
1, 448343, Control_c, 0, 64, 30
1, 448358, Control_c, 0, 64, 30
1, 448373, Control_c, 0, 64, 29
1, 448387, Control_c, 0, 64, 29
1, 448417, Control_c, 0, 64, 28
1, 448432, Control_c, 0, 64, 28
1, 448462, Control_c, 0, 64, 27
1, 448477, Control_c, 0, 64, 27
1, 448506, Control_c, 0, 64, 26
1, 448521, Control_c, 0, 64, 26
1, 448536, Control_c, 0, 64, 25
1, 448551, Control_c, 0, 64, 25
1, 448573, Control_c, 0, 64, 24
1, 448587, Control_c, 0, 64, 24
1, 448617, Control_c, 0, 64, 23
1, 448632, Control_c, 0, 64, 22
1, 448647, Control_c, 0, 64, 22
1, 448661, Control_c, 0, 64, 21
1, 448676, Control_c, 0, 64, 20
1, 448691, Control_c, 0, 64, 20
1, 448706, Control_c, 0, 64, 19
1, 448721, Control_c, 0, 64, 18
1, 448736, Control_c, 0, 64, 18
1, 448751, Control_c, 0, 64, 17
1, 448766, Control_c, 0, 64, 16
1, 448781, Control_c, 0, 64, 16
1, 448795, Control_c, 0, 64, 15
1, 448810, Control_c, 0, 64, 15
1, 448825, Control_c, 0, 64, 14
1, 448840, Control_c, 0, 64, 14
1, 448870, Control_c, 0, 64, 13
1, 448885, Control_c, 0, 64, 12
1, 448915, Control_c, 0, 64, 11
1, 448929, Control_c, 0, 64, 11
1, 448944, Control_c, 0, 67, 9
1, 448959, Control_c, 0, 64, 10
1, 448959, Control_c, 0, 67, 10
1, 448974, Control_c, 0, 64, 9
1, 448974, Control_c, 0, 67, 11
1, 448989, Control_c, 0, 64, 9
1, 448989, Control_c, 0, 67, 13
1, 449003, Control_c, 0, 64, 8
1, 449003, Control_c, 0, 67, 14
1, 449018, Control_c, 0, 64, 0
1, 449018, Control_c, 0, 67, 17
1, 449033, Control_c, 0, 67, 20
1, 449048, Control_c, 0, 67, 26
1, 449062, Control_c, 0, 67, 31
1, 449077, Control_c, 0, 67, 36
1, 449092, Control_c, 0, 67, 42
1, 449106, Control_c, 0, 67, 47
1, 449121, Control_c, 0, 67, 54
1, 449135, Control_c, 0, 67, 61
1, 449150, Control_c, 0, 67, 71
1, 449165, Control_c, 0, 67, 80
1, 449180, Control_c, 0, 67, 88
1, 449195, Control_c, 0, 67, 95
1, 449210, Control_c, 0, 67, 102
1, 449225, Control_c, 0, 67, 109
1, 449240, Control_c, 0, 67, 116
1, 449254, Control_c, 0, 67, 123
1, 449269, Control_c, 0, 67, 127
1, 449365, Control_c, 0, 64, 11
1, 449380, Control_c, 0, 64, 14
1, 449395, Control_c, 0, 64, 18
1, 449410, Control_c, 0, 64, 21
1, 449425, Control_c, 0, 64, 24
1, 449439, Control_c, 0, 64, 27
1, 449454, Control_c, 0, 64, 31
1, 449469, Control_c, 0, 64, 34
1, 449484, Control_c, 0, 64, 39
1, 449499, Control_c, 0, 64, 43
1, 449514, Control_c, 0, 64, 47
1, 449529, Control_c, 0, 64, 51
1, 449543, Control_c, 0, 64, 55
1, 449558, Control_c, 0, 64, 58
1, 449573, Control_c, 0, 64, 60
1, 449587, Control_c, 0, 64, 62
1, 449602, Control_c, 0, 64, 63
1, 449617, Control_c, 0, 64, 64
1, 449633, Control_c, 0, 64, 65
1, 449648, Control_c, 0, 64, 67
1, 449663, Control_c, 0, 64, 68
1, 449678, Control_c, 0, 64, 70
1, 449692, Control_c, 0, 64, 71
1, 449707, Control_c, 0, 64, 72
1, 449722, Control_c, 0, 64, 73
1, 449737, Control_c, 0, 64, 74
1, 449752, Control_c, 0, 64, 75
1, 449766, Control_c, 0, 64, 77
1, 449781, Control_c, 0, 64, 79
1, 449796, Control_c, 0, 64, 80
1, 449811, Control_c, 0, 64, 81
1, 449825, Control_c, 0, 64, 82
1, 449840, Control_c, 0, 64, 83
1, 449855, Control_c, 0, 64, 83
1, 449870, Control_c, 0, 64, 85
1, 449884, Control_c, 0, 64, 86
1, 449899, Control_c, 0, 64, 88
1, 449914, Control_c, 0, 64, 89
1, 449929, Control_c, 0, 64, 90
1, 449944, Control_c, 0, 64, 92
1, 449958, Control_c, 0, 64, 93
1, 449973, Control_c, 0, 64, 93
1, 449988, Control_c, 0, 64, 95
1, 450003, Control_c, 0, 64, 97
1, 450018, Control_c, 0, 64, 99
1, 450033, Control_c, 0, 64, 102
1, 450055, Control_c, 0, 64, 105
1, 450070, Control_c, 0, 64, 109
1, 450084, Control_c, 0, 64, 117
1, 450099, Control_c, 0, 64, 127
1, 450815, Note_on_c, 0, 67, 39
1, 451780, Note_on_c, 0, 60, 22
1, 451805, Note_on_c, 0, 58, 21
1, 452046, Note_off_c, 0, 60, 41
1, 452046, Note_off_c, 0, 58, 41
1, 452262, Note_on_c, 0, 60, 23
1, 452262, Note_on_c, 0, 58, 24
1, 452438, Note_off_c, 0, 58, 44
1, 452441, Note_off_c, 0, 60, 44
1, 452629, Note_on_c, 0, 60, 26
1, 452638, Note_on_c, 0, 58, 31
1, 452798, Note_off_c, 0, 60, 44
1, 452805, Note_off_c, 0, 58, 42
1, 452997, Note_on_c, 0, 65, 40
1, 452998, Note_on_c, 0, 58, 30
1, 453009, Note_on_c, 0, 60, 25
1, 453063, Note_off_c, 0, 67, 34
1, 453180, Note_off_c, 0, 60, 40
1, 453188, Note_off_c, 0, 58, 39
1, 453406, Note_on_c, 0, 67, 47
1, 453413, Note_on_c, 0, 58, 29
1, 453420, Note_on_c, 0, 60, 26
1, 453530, Note_off_c, 0, 65, 44
1, 453561, Note_off_c, 0, 60, 43
1, 453577, Note_off_c, 0, 58, 43
1, 453947, Control_c, 0, 64, 114
1, 453962, Control_c, 0, 64, 103
1, 453977, Control_c, 0, 64, 95
1, 453992, Control_c, 0, 64, 89
1, 453994, Note_on_c, 0, 68, 42
1, 454006, Control_c, 0, 64, 83
1, 454009, Note_on_c, 0, 41, 28
1, 454021, Control_c, 0, 64, 77
1, 454036, Control_c, 0, 64, 69
1, 454051, Control_c, 0, 64, 61
1, 454066, Control_c, 0, 64, 49
1, 454078, Note_off_c, 0, 67, 34
1, 454081, Control_c, 0, 64, 29
1, 454096, Control_c, 0, 64, 15
1, 454111, Control_c, 0, 64, 14
1, 454125, Control_c, 0, 64, 18
1, 454140, Control_c, 0, 64, 26
1, 454155, Control_c, 0, 64, 37
1, 454170, Control_c, 0, 64, 51
1, 454184, Control_c, 0, 64, 64
1, 454199, Control_c, 0, 64, 84
1, 454214, Control_c, 0, 64, 127
1, 454241, Note_off_c, 0, 41, 51
1, 454397, Note_on_c, 0, 67, 48
1, 454504, Note_off_c, 0, 68, 29
1, 454628, Note_on_c, 0, 65, 45
1, 454635, Note_on_c, 0, 60, 32
1, 454639, Note_on_c, 0, 56, 28
1, 454657, Note_on_c, 0, 53, 22
1, 454668, Note_on_c, 0, 48, 27
1, 454802, Note_on_c, 0, 73, 53
1, 454817, Note_off_c, 0, 60, 40
1, 454832, Note_off_c, 0, 48, 45
1, 454835, Note_off_c, 0, 56, 41
1, 454877, Note_off_c, 0, 53, 37
1, 455010, Note_on_c, 0, 72, 50
1, 455020, Note_on_c, 0, 56, 25
1, 455023, Note_off_c, 0, 73, 33
1, 455029, Note_on_c, 0, 53, 4
1, 455036, Note_on_c, 0, 60, 19
1, 455058, Note_on_c, 0, 48, 4
1, 455153, Note_off_c, 0, 65, 40
1, 455153, Note_off_c, 0, 67, 30
1, 455158, Note_off_c, 0, 60, 31
1, 455170, Note_off_c, 0, 48, 34
1, 455172, Note_off_c, 0, 56, 40
1, 455184, Note_off_c, 0, 53, 40
1, 455358, Note_on_c, 0, 56, 30
1, 455371, Note_on_c, 0, 60, 18
1, 455375, Note_on_c, 0, 53, 22
1, 455401, Poly_aftertouch_c, 0, 48, 127
1, 455407, Note_on_c, 0, 48, 3
1, 455410, Note_off_c, 0, 72, 37
1, 455506, Note_off_c, 0, 60, 42
1, 455511, Note_off_c, 0, 56, 43
1, 455518, Note_off_c, 0, 48, 40
1, 455535, Note_off_c, 0, 53, 41
1, 455684, Note_on_c, 0, 56, 34
1, 455705, Note_on_c, 0, 60, 10
1, 455714, Note_on_c, 0, 48, 13
1, 455714, Note_on_c, 0, 53, 12
1, 455864, Note_off_c, 0, 60, 41
1, 455875, Note_off_c, 0, 53, 42
1, 455878, Note_off_c, 0, 48, 42
1, 455881, Note_off_c, 0, 56, 39
1, 456050, Note_on_c, 0, 56, 35
1, 456053, Note_on_c, 0, 53, 29
1, 456058, Note_on_c, 0, 48, 22
1, 456060, Note_on_c, 0, 60, 4
1, 456105, Note_off_c, 0, 60, 51
1, 456149, Note_off_c, 0, 56, 37
1, 456176, Note_off_c, 0, 53, 36
1, 456177, Note_off_c, 0, 48, 41
1, 456563, Control_c, 0, 64, 108
1, 456578, Control_c, 0, 64, 100
1, 456593, Control_c, 0, 64, 93
1, 456608, Control_c, 0, 64, 88
1, 456614, Note_on_c, 0, 67, 52
1, 456620, Note_on_c, 0, 40, 39
1, 456623, Control_c, 0, 64, 81
1, 456637, Control_c, 0, 64, 72
1, 456652, Control_c, 0, 64, 62
1, 456667, Control_c, 0, 64, 48
1, 456682, Control_c, 0, 64, 24
1, 456697, Control_c, 0, 64, 0
1, 456756, Control_c, 0, 64, 23
1, 456770, Control_c, 0, 64, 41
1, 456785, Control_c, 0, 64, 56
1, 456808, Control_c, 0, 64, 76
1, 456823, Control_c, 0, 64, 127
1, 456843, Note_off_c, 0, 40, 49
1, 457232, Note_on_c, 0, 60, 31
1, 457244, Note_on_c, 0, 58, 31
1, 457246, Note_on_c, 0, 55, 31
1, 457257, Note_on_c, 0, 48, 28
1, 457692, Note_off_c, 0, 48, 37
1, 457700, Note_off_c, 0, 60, 35
1, 457725, Note_off_c, 0, 55, 45
1, 457778, Note_off_c, 0, 58, 42
1, 457978, Note_off_c, 0, 67, 31
1, 457989, Note_on_c, 0, 60, 28
1, 458004, Note_on_c, 0, 48, 30
1, 458159, Note_off_c, 0, 48, 43
1, 458181, Note_off_c, 0, 60, 42
1, 458343, Note_on_c, 0, 60, 24
1, 458349, Note_on_c, 0, 65, 43
1, 458365, Note_on_c, 0, 48, 26
1, 458543, Note_off_c, 0, 60, 43
1, 458559, Note_off_c, 0, 48, 44
1, 458738, Note_on_c, 0, 67, 52
1, 458759, Note_on_c, 0, 48, 24
1, 458787, Poly_aftertouch_c, 0, 60, 127
1, 458815, Note_off_c, 0, 65, 38
1, 458830, Poly_aftertouch_c, 0, 60, 0
1, 458915, Note_off_c, 0, 48, 39
1, 459203, Control_c, 0, 64, 122
1, 459219, Control_c, 0, 64, 103
1, 459226, Note_on_c, 0, 41, 23
1, 459234, Control_c, 0, 64, 93
1, 459249, Control_c, 0, 64, 87
1, 459263, Control_c, 0, 64, 80
1, 459278, Control_c, 0, 64, 72
1, 459281, Note_on_c, 0, 68, 48
1, 459293, Control_c, 0, 64, 64
1, 459308, Control_c, 0, 64, 55
1, 459322, Note_off_c, 0, 67, 53
1, 459323, Control_c, 0, 64, 40
1, 459337, Control_c, 0, 64, 15
1, 459352, Control_c, 0, 64, 0
1, 459411, Control_c, 0, 64, 21
1, 459426, Control_c, 0, 64, 37
1, 459441, Control_c, 0, 64, 52
1, 459456, Control_c, 0, 64, 66
1, 459470, Control_c, 0, 64, 110
1, 459485, Control_c, 0, 64, 127
1, 459504, Note_off_c, 0, 41, 41
1, 459585, Note_off_c, 0, 68, 57
1, 459614, Note_on_c, 0, 65, 47
1, 459825, Note_off_c, 0, 65, 31
1, 459864, Note_on_c, 0, 53, 22
1, 459874, Note_on_c, 0, 60, 15
1, 459877, Note_on_c, 0, 48, 27
1, 459883, Note_on_c, 0, 56, 22
1, 459984, Note_on_c, 0, 75, 43
1, 460201, Note_on_c, 0, 73, 53
1, 460350, Note_off_c, 0, 75, 36
1, 460359, Note_on_c, 0, 72, 52
1, 460360, Note_off_c, 0, 56, 33
1, 460382, Note_off_c, 0, 73, 52
1, 460395, Note_off_c, 0, 72, 61
1, 460431, Note_off_c, 0, 60, 37
1, 460465, Note_off_c, 0, 48, 41
1, 460493, Note_off_c, 0, 53, 41
1, 460514, Note_on_c, 0, 72, 48
1, 460860, Note_on_c, 0, 56, 30
1, 460860, Note_on_c, 0, 60, 25
1, 460873, Note_on_c, 0, 48, 27
1, 461017, Note_off_c, 0, 48, 47
1, 461026, Note_off_c, 0, 56, 39
1, 461034, Note_off_c, 0, 60, 41
1, 461103, Note_off_c, 0, 72, 39
1, 461172, Note_on_c, 0, 60, 36
1, 461176, Note_on_c, 0, 56, 37
1, 461181, Note_on_c, 0, 48, 31
1, 461348, Note_off_c, 0, 48, 47
1, 461359, Note_off_c, 0, 60, 40
1, 461409, Note_off_c, 0, 56, 40
1, 461530, Note_on_c, 0, 56, 28
1, 461533, Note_on_c, 0, 60, 21
1, 461542, Note_on_c, 0, 53, 38
1, 461631, Note_off_c, 0, 60, 39
1, 461658, Note_off_c, 0, 53, 53
1, 461658, Note_off_c, 0, 56, 54
1, 461939, Control_c, 0, 64, 117
1, 461954, Control_c, 0, 64, 108
1, 461969, Control_c, 0, 64, 103
1, 461983, Control_c, 0, 64, 100
1, 461998, Note_on_c, 0, 44, 33
1, 461998, Control_c, 0, 64, 97
1, 462013, Control_c, 0, 64, 95
1, 462036, Control_c, 0, 64, 92
1, 462051, Control_c, 0, 64, 89
1, 462065, Control_c, 0, 64, 86
1, 462080, Control_c, 0, 64, 83
1, 462095, Control_c, 0, 64, 80
1, 462109, Control_c, 0, 64, 74
1, 462123, Note_on_c, 0, 72, 61
1, 462124, Control_c, 0, 64, 66
1, 462139, Control_c, 0, 64, 58
1, 462154, Control_c, 0, 64, 45
1, 462169, Control_c, 0, 64, 29
1, 462183, Control_c, 0, 64, 22
1, 462213, Control_c, 0, 64, 22
1, 462228, Control_c, 0, 64, 25
1, 462243, Control_c, 0, 64, 32
1, 462258, Control_c, 0, 64, 43
1, 462272, Control_c, 0, 64, 56
1, 462287, Control_c, 0, 64, 74
1, 462302, Control_c, 0, 64, 127
1, 462323, Note_off_c, 0, 44, 50
1, 462615, Note_on_c, 0, 60, 42
1, 462617, Note_on_c, 0, 56, 44
1, 462622, Note_on_c, 0, 51, 42
1, 462773, Note_off_c, 0, 51, 61
1, 462780, Note_off_c, 0, 60, 56
1, 462789, Note_off_c, 0, 56, 62
1, 462955, Note_on_c, 0, 60, 43
1, 462959, Note_on_c, 0, 56, 43
1, 462970, Note_on_c, 0, 51, 41
1, 463088, Note_off_c, 0, 60, 56
1, 463095, Note_off_c, 0, 51, 59
1, 463097, Note_off_c, 0, 56, 59
1, 463272, Note_on_c, 0, 60, 30
1, 463274, Note_on_c, 0, 56, 27
1, 463275, Note_on_c, 0, 51, 34
1, 463308, Note_on_c, 0, 70, 58
1, 463339, Note_off_c, 0, 72, 52
1, 463521, Note_off_c, 0, 51, 49
1, 463537, Note_off_c, 0, 56, 41
1, 463563, Note_off_c, 0, 60, 42
1, 463566, Note_on_c, 0, 68, 69
1, 463632, Note_off_c, 0, 70, 55
1, 463732, Note_on_c, 0, 51, 36
1, 463738, Note_on_c, 0, 60, 31
1, 463753, Note_on_c, 0, 67, 66
1, 463757, Note_off_c, 0, 68, 59
1, 463760, Note_on_c, 0, 56, 33
1, 463770, Control_c, 0, 64, 84
1, 463785, Control_c, 0, 64, 68
1, 463800, Control_c, 0, 64, 59
1, 463815, Control_c, 0, 64, 53
1, 463830, Control_c, 0, 64, 54
1, 463844, Control_c, 0, 64, 61
1, 463859, Control_c, 0, 64, 71
1, 463874, Control_c, 0, 64, 107
1, 463877, Note_off_c, 0, 51, 61
1, 463888, Control_c, 0, 64, 127
1, 463903, Note_on_c, 0, 70, 70
1, 463920, Note_off_c, 0, 60, 56
1, 463951, Note_off_c, 0, 67, 51
1, 463977, Control_c, 0, 64, 84
1, 463992, Control_c, 0, 64, 67
1, 464008, Control_c, 0, 64, 57
1, 464023, Control_c, 0, 64, 51
1, 464038, Control_c, 0, 64, 56
1, 464053, Control_c, 0, 64, 65
1, 464059, Note_on_c, 0, 60, 50
1, 464061, Note_on_c, 0, 52, 54
1, 464067, Note_on_c, 0, 68, 72
1, 464067, Control_c, 0, 64, 95
1, 464082, Control_c, 0, 64, 127
1, 464103, Note_off_c, 0, 70, 59
1, 464138, Note_off_c, 0, 60, 62
1, 464177, Note_off_c, 0, 56, 57
1, 464201, Note_off_c, 0, 52, 65
1, 464229, Note_on_c, 0, 67, 66
1, 464269, Note_off_c, 0, 68, 57
1, 464329, Note_off_c, 0, 67, 61
1, 464427, Note_on_c, 0, 37, 50
1, 464430, Control_c, 0, 64, 107
1, 464445, Control_c, 0, 64, 82
1, 464459, Control_c, 0, 64, 66
1, 464474, Control_c, 0, 64, 50
1, 464489, Control_c, 0, 64, 0
1, 464505, Note_on_c, 0, 67, 63
1, 464592, Control_c, 0, 64, 35
1, 464604, Note_off_c, 0, 37, 64
1, 464607, Control_c, 0, 64, 52
1, 464622, Control_c, 0, 64, 69
1, 464637, Control_c, 0, 64, 127
1, 464878, Note_on_c, 0, 56, 40
1, 464878, Note_on_c, 0, 61, 44
1, 464901, Note_on_c, 0, 53, 41
1, 465047, Note_off_c, 0, 67, 54
1, 465075, Note_on_c, 0, 65, 60
1, 465111, Note_off_c, 0, 61, 33
1, 465122, Note_off_c, 0, 53, 44
1, 465123, Note_off_c, 0, 56, 42
1, 465231, Note_off_c, 0, 65, 58
1, 465331, Note_on_c, 0, 56, 30
1, 465336, Note_on_c, 0, 61, 32
1, 465347, Note_on_c, 0, 53, 24
1, 465433, Note_on_c, 0, 65, 40
1, 465593, Note_off_c, 0, 61, 46
1, 465610, Note_off_c, 0, 65, 43
1, 465629, Note_off_c, 0, 53, 42
1, 465633, Note_off_c, 0, 56, 41
1, 465783, Note_on_c, 0, 77, 53
1, 466130, Note_on_c, 0, 61, 33
1, 466143, Note_on_c, 0, 65, 28
1, 466147, Note_on_c, 0, 56, 25
1, 466178, Note_on_c, 0, 53, 9
1, 466380, Note_off_c, 0, 61, 46
1, 466383, Note_off_c, 0, 56, 40
1, 466392, Note_off_c, 0, 65, 44
1, 466404, Note_off_c, 0, 53, 41
1, 466595, Note_on_c, 0, 56, 29
1, 466600, Note_on_c, 0, 61, 32
1, 466603, Note_on_c, 0, 53, 28
1, 466606, Note_on_c, 0, 65, 32
1, 466806, Note_off_c, 0, 61, 40
1, 466808, Note_off_c, 0, 53, 44
1, 466809, Note_off_c, 0, 56, 41
1, 466845, Note_off_c, 0, 65, 46
1, 466933, Note_on_c, 0, 56, 41
1, 466935, Note_on_c, 0, 61, 37
1, 466949, Note_on_c, 0, 53, 29
1, 467078, Note_off_c, 0, 61, 58
1, 467108, Note_off_c, 0, 53, 40
1, 467185, Note_off_c, 0, 56, 40
1, 467452, Note_on_c, 0, 61, 35
1, 467454, Note_on_c, 0, 65, 35
1, 467474, Note_on_c, 0, 53, 28
1, 467500, Control_c, 0, 64, 108
1, 467515, Control_c, 0, 64, 100
1, 467529, Control_c, 0, 64, 92
1, 467544, Control_c, 0, 64, 84
1, 467559, Control_c, 0, 64, 72
1, 467574, Control_c, 0, 64, 63
1, 467589, Control_c, 0, 64, 53
1, 467603, Control_c, 0, 64, 39
1, 467618, Control_c, 0, 64, 30
1, 467633, Control_c, 0, 64, 31
1, 467648, Control_c, 0, 64, 36
1, 467663, Control_c, 0, 64, 44
1, 467677, Control_c, 0, 64, 53
1, 467692, Control_c, 0, 64, 62
1, 467707, Control_c, 0, 64, 70
1, 467721, Control_c, 0, 64, 78
1, 467736, Control_c, 0, 64, 81
1, 467751, Control_c, 0, 64, 82
1, 467766, Control_c, 0, 64, 83
1, 467781, Control_c, 0, 64, 85
1, 467796, Control_c, 0, 64, 87
1, 467811, Control_c, 0, 64, 88
1, 467825, Control_c, 0, 64, 88
1, 467854, Control_c, 0, 64, 89
1, 467943, Control_c, 0, 64, 89
1, 467946, Note_on_c, 0, 56, 40
1, 468055, Note_off_c, 0, 61, 44
1, 468085, Control_c, 0, 64, 90
1, 468115, Control_c, 0, 64, 90
1, 468145, Control_c, 0, 64, 91
1, 468248, Control_c, 0, 64, 91
1, 468258, Note_off_c, 0, 53, 40
1, 468278, Note_on_c, 0, 54, 38
1, 468344, Note_off_c, 0, 56, 40
1, 468566, Note_on_c, 0, 56, 43
1, 468566, Note_off_c, 0, 54, 41
1, 468654, Note_off_c, 0, 77, 28
1, 468692, Control_c, 0, 64, 91
1, 468707, Control_c, 0, 64, 90
1, 468722, Control_c, 0, 64, 89
1, 468737, Control_c, 0, 64, 87
1, 468751, Control_c, 0, 64, 86
1, 468766, Control_c, 0, 64, 85
1, 468788, Control_c, 0, 64, 83
1, 468804, Control_c, 0, 64, 81
1, 468819, Control_c, 0, 64, 80
1, 468834, Control_c, 0, 64, 78
1, 468849, Control_c, 0, 64, 75
1, 468863, Note_on_c, 0, 54, 43
1, 468863, Control_c, 0, 64, 72
1, 468878, Control_c, 0, 64, 68
1, 468893, Control_c, 0, 64, 60
1, 468908, Control_c, 0, 64, 48
1, 468923, Control_c, 0, 64, 35
1, 468938, Control_c, 0, 64, 30
1, 468951, Note_off_c, 0, 56, 38
1, 468952, Control_c, 0, 64, 31
1, 468967, Control_c, 0, 64, 34
1, 468982, Control_c, 0, 64, 41
1, 468997, Control_c, 0, 64, 49
1, 469012, Control_c, 0, 64, 57
1, 469027, Control_c, 0, 64, 64
1, 469042, Control_c, 0, 64, 71
1, 469056, Control_c, 0, 64, 74
1, 469071, Control_c, 0, 64, 74
1, 469086, Control_c, 0, 64, 75
1, 469100, Control_c, 0, 64, 77
1, 469115, Control_c, 0, 64, 79
1, 469130, Control_c, 0, 64, 80
1, 469137, Note_on_c, 0, 53, 43
1, 469145, Control_c, 0, 64, 81
1, 469174, Control_c, 0, 64, 81
1, 469182, Note_off_c, 0, 65, 12
1, 469199, Note_off_c, 0, 54, 42
1, 469322, Control_c, 0, 64, 80
1, 469352, Control_c, 0, 64, 79
1, 469367, Control_c, 0, 64, 78
1, 469382, Control_c, 0, 64, 76
1, 469397, Control_c, 0, 64, 72
1, 469398, Note_off_c, 0, 53, 40
1, 469408, Note_on_c, 0, 56, 41
1, 469411, Control_c, 0, 64, 65
1, 469426, Control_c, 0, 64, 56
1, 469441, Control_c, 0, 64, 44
1, 469456, Control_c, 0, 64, 35
1, 469471, Control_c, 0, 64, 37
1, 469486, Control_c, 0, 64, 41
1, 469500, Control_c, 0, 64, 48
1, 469515, Control_c, 0, 64, 57
1, 469537, Control_c, 0, 64, 64
1, 469552, Control_c, 0, 64, 71
1, 469567, Control_c, 0, 64, 73
1, 469680, Note_on_c, 0, 53, 41
1, 469705, Note_off_c, 0, 56, 42
1, 469775, Control_c, 0, 64, 73
1, 469820, Control_c, 0, 64, 72
1, 469865, Control_c, 0, 64, 72
1, 469879, Control_c, 0, 64, 71
1, 469894, Control_c, 0, 64, 71
1, 469909, Control_c, 0, 64, 70
1, 469923, Control_c, 0, 64, 69
1, 469938, Control_c, 0, 64, 67
1, 469942, Note_off_c, 0, 53, 44
1, 469945, Note_on_c, 0, 51, 41
1, 469953, Control_c, 0, 64, 64
1, 469968, Control_c, 0, 64, 58
1, 469983, Control_c, 0, 64, 47
1, 469997, Control_c, 0, 64, 35
1, 470012, Control_c, 0, 64, 30
1, 470027, Control_c, 0, 64, 31
1, 470042, Control_c, 0, 64, 35
1, 470057, Control_c, 0, 64, 40
1, 470070, Control_c, 0, 64, 47
1, 470085, Control_c, 0, 64, 55
1, 470100, Control_c, 0, 64, 61
1, 470115, Control_c, 0, 64, 65
1, 470130, Control_c, 0, 64, 68
1, 470179, Note_on_c, 0, 53, 38
1, 470190, Control_c, 0, 64, 68
1, 470201, Note_off_c, 0, 51, 35
1, 470432, Note_on_c, 0, 51, 43
1, 470453, Note_off_c, 0, 53, 34
1, 470693, Note_on_c, 0, 49, 37
1, 470798, Note_off_c, 0, 51, 40
1, 470953, Control_c, 0, 64, 68
1, 470997, Control_c, 0, 64, 67
1, 471023, Note_on_c, 0, 53, 38
1, 471024, Note_on_c, 0, 65, 42
1, 471025, Note_off_c, 0, 49, 38
1, 471034, Control_c, 0, 64, 67
1, 471049, Control_c, 0, 64, 66
1, 471064, Control_c, 0, 64, 65
1, 471078, Control_c, 0, 64, 64
1, 471093, Control_c, 0, 64, 60
1, 471108, Control_c, 0, 64, 54
1, 471123, Control_c, 0, 64, 45
1, 471138, Control_c, 0, 64, 36
1, 471152, Control_c, 0, 64, 34
1, 471182, Control_c, 0, 64, 38
1, 471198, Control_c, 0, 64, 44
1, 471213, Control_c, 0, 64, 53
1, 471228, Control_c, 0, 64, 62
1, 471243, Control_c, 0, 64, 69
1, 471257, Control_c, 0, 64, 76
1, 471272, Control_c, 0, 64, 77
1, 471376, Note_on_c, 0, 61, 49
1, 471387, Note_on_c, 0, 49, 38
1, 471480, Control_c, 0, 64, 76
1, 471599, Control_c, 0, 64, 76
1, 471608, Note_off_c, 0, 53, 34
1, 471627, Note_on_c, 0, 60, 50
1, 471629, Control_c, 0, 64, 75
1, 471643, Control_c, 0, 64, 75
1, 471652, Note_on_c, 0, 48, 33
1, 471658, Control_c, 0, 64, 74
1, 471673, Control_c, 0, 64, 74
1, 471677, Note_off_c, 0, 65, 36
1, 471688, Note_off_c, 0, 61, 48
1, 471688, Control_c, 0, 64, 72
1, 471702, Control_c, 0, 64, 69
1, 471717, Control_c, 0, 64, 64
1, 471732, Control_c, 0, 64, 58
1, 471747, Control_c, 0, 64, 49
1, 471762, Control_c, 0, 64, 45
1, 471784, Control_c, 0, 64, 45
1, 471799, Control_c, 0, 64, 48
1, 471808, Note_off_c, 0, 49, 37
1, 471814, Control_c, 0, 64, 52
1, 471828, Control_c, 0, 64, 57
1, 471843, Control_c, 0, 64, 62
1, 471858, Control_c, 0, 64, 67
1, 471869, Note_on_c, 0, 65, 60
1, 471873, Control_c, 0, 64, 69
1, 471880, Note_on_c, 0, 53, 42
1, 471888, Control_c, 0, 64, 69
1, 471924, Note_off_c, 0, 48, 46
1, 471967, Note_off_c, 0, 60, 53
1, 472110, Note_on_c, 0, 60, 52
1, 472115, Note_on_c, 0, 48, 39
1, 472256, Note_off_c, 0, 65, 36
1, 472328, Note_on_c, 0, 46, 52
1, 472336, Note_on_c, 0, 58, 54
1, 472354, Note_off_c, 0, 60, 50
1, 472368, Note_off_c, 0, 53, 38
1, 472404, Note_off_c, 0, 48, 41
1, 472500, Note_off_c, 0, 58, 33
1, 472511, Control_c, 0, 64, 69
1, 472547, Control_c, 0, 64, 68
1, 472551, Note_off_c, 0, 46, 53
1, 472559, Note_on_c, 0, 53, 46
1, 472562, Control_c, 0, 64, 68
1, 472577, Control_c, 0, 64, 67
1, 472578, Note_on_c, 0, 65, 58
1, 472592, Control_c, 0, 64, 64
1, 472607, Control_c, 0, 64, 59
1, 472622, Control_c, 0, 64, 49
1, 472637, Control_c, 0, 64, 41
1, 472651, Control_c, 0, 64, 38
1, 472681, Control_c, 0, 64, 39
1, 472696, Control_c, 0, 64, 42
1, 472711, Control_c, 0, 64, 47
1, 472725, Control_c, 0, 64, 53
1, 472740, Control_c, 0, 64, 59
1, 472755, Control_c, 0, 64, 63
1, 472770, Control_c, 0, 64, 66
1, 472785, Control_c, 0, 64, 67
1, 472798, Note_on_c, 0, 46, 53
1, 472800, Note_on_c, 0, 58, 63
1, 472801, Control_c, 0, 64, 68
1, 472816, Control_c, 0, 64, 68
1, 472830, Control_c, 0, 64, 69
1, 472845, Control_c, 0, 64, 69
1, 472860, Control_c, 0, 64, 70
1, 472963, Control_c, 0, 64, 69
1, 472978, Control_c, 0, 64, 67
1, 472983, Note_off_c, 0, 53, 41
1, 472993, Control_c, 0, 64, 63
1, 473008, Control_c, 0, 64, 56
1, 473022, Control_c, 0, 64, 45
1, 473033, Note_on_c, 0, 44, 44
1, 473036, Note_on_c, 0, 56, 58
1, 473037, Control_c, 0, 64, 39
1, 473043, Note_off_c, 0, 58, 63
1, 473051, Note_off_c, 0, 46, 51
1, 473052, Control_c, 0, 64, 40
1, 473066, Control_c, 0, 64, 43
1, 473080, Note_off_c, 0, 65, 39
1, 473081, Control_c, 0, 64, 49
1, 473096, Control_c, 0, 64, 58
1, 473111, Control_c, 0, 64, 64
1, 473126, Control_c, 0, 64, 70
1, 473141, Control_c, 0, 64, 73
1, 473200, Control_c, 0, 64, 73
1, 473215, Control_c, 0, 64, 74
1, 473245, Control_c, 0, 64, 74
1, 473251, Note_off_c, 0, 44, 56
1, 473255, Note_on_c, 0, 65, 64
1, 473276, Note_on_c, 0, 53, 43
1, 473281, Control_c, 0, 64, 75
1, 473287, Note_off_c, 0, 56, 57
1, 473319, Note_off_c, 0, 53, 54
1, 473370, Control_c, 0, 67, 125
1, 473385, Control_c, 0, 67, 109
1, 473400, Control_c, 0, 64, 74
1, 473400, Control_c, 0, 67, 91
1, 473415, Control_c, 0, 67, 72
1, 473430, Control_c, 0, 64, 74
1, 473430, Control_c, 0, 67, 56
1, 473445, Control_c, 0, 64, 73
1, 473445, Control_c, 0, 67, 42
1, 473460, Control_c, 0, 64, 72
1, 473460, Control_c, 0, 67, 32
1, 473474, Control_c, 0, 64, 70
1, 473474, Control_c, 0, 67, 24
1, 473489, Control_c, 0, 64, 68
1, 473489, Control_c, 0, 67, 18
1, 473504, Control_c, 0, 64, 64
1, 473504, Control_c, 0, 67, 16
1, 473519, Control_c, 0, 64, 57
1, 473528, Note_on_c, 0, 54, 56
1, 473534, Control_c, 0, 64, 45
1, 473537, Note_off_c, 0, 65, 61
1, 473544, Note_on_c, 0, 42, 34
1, 473548, Control_c, 0, 64, 33
1, 473548, Control_c, 0, 67, 15
1, 473563, Control_c, 0, 64, 30
1, 473578, Control_c, 0, 64, 33
1, 473594, Control_c, 0, 64, 40
1, 473609, Control_c, 0, 64, 49
1, 473624, Control_c, 0, 64, 59
1, 473624, Control_c, 0, 67, 15
1, 473638, Control_c, 0, 64, 68
1, 473653, Control_c, 0, 64, 79
1, 473668, Control_c, 0, 64, 81
1, 473683, Control_c, 0, 67, 14
1, 473697, Control_c, 0, 67, 13
1, 473712, Control_c, 0, 67, 10
1, 473727, Control_c, 0, 67, 8
1, 473742, Control_c, 0, 67, 0
1, 473783, Note_off_c, 0, 42, 27
1, 473785, Note_on_c, 0, 56, 55
1, 473800, Note_on_c, 0, 44, 16
1, 473802, Note_off_c, 0, 54, 47
1, 473875, Control_c, 0, 64, 81
1, 473889, Control_c, 0, 64, 80
1, 473904, Control_c, 0, 64, 79
1, 473919, Control_c, 0, 64, 79
1, 473924, Note_off_c, 0, 44, 35
1, 473934, Control_c, 0, 64, 78
1, 473949, Control_c, 0, 64, 77
1, 473963, Control_c, 0, 64, 76
1, 473978, Control_c, 0, 64, 74
1, 473993, Control_c, 0, 64, 73
1, 474008, Control_c, 0, 64, 72
1, 474031, Control_c, 0, 64, 71
1, 474045, Control_c, 0, 64, 70
1, 474060, Control_c, 0, 64, 69
1, 474075, Control_c, 0, 64, 68
1, 474090, Control_c, 0, 64, 66
1, 474104, Control_c, 0, 64, 64
1, 474119, Control_c, 0, 64, 61
1, 474124, Note_on_c, 0, 37, 30
1, 474129, Note_on_c, 0, 49, 39
1, 474134, Control_c, 0, 64, 54
1, 474149, Control_c, 0, 64, 42
1, 474161, Note_off_c, 0, 56, 36
1, 474163, Note_on_c, 0, 59, 43
1, 474164, Control_c, 0, 64, 33
1, 474178, Control_c, 0, 64, 30
1, 474193, Control_c, 0, 64, 31
1, 474208, Control_c, 0, 64, 35
1, 474223, Control_c, 0, 64, 42
1, 474238, Control_c, 0, 64, 52
1, 474252, Control_c, 0, 64, 61
1, 474267, Control_c, 0, 64, 69
1, 474267, Control_c, 0, 67, 15
1, 474282, Control_c, 0, 64, 77
1, 474282, Control_c, 0, 67, 23
1, 474297, Control_c, 0, 64, 78
1, 474297, Control_c, 0, 67, 35
1, 474312, Control_c, 0, 67, 50
1, 474327, Control_c, 0, 67, 65
1, 474335, Note_on_c, 0, 56, 47
1, 474342, Control_c, 0, 67, 78
1, 474355, Note_off_c, 0, 59, 37
1, 474357, Control_c, 0, 67, 90
1, 474371, Control_c, 0, 67, 96
1, 474378, Note_off_c, 0, 56, 64
1, 474386, Control_c, 0, 67, 101
1, 474402, Control_c, 0, 67, 105
1, 474416, Control_c, 0, 67, 107
1, 474428, Note_on_c, 0, 55, 21
1, 474468, Note_off_c, 0, 55, 56
1, 474481, Note_on_c, 0, 56, 50
1, 474481, Note_off_c, 0, 49, 44
1, 474527, Note_off_c, 0, 56, 60
1, 474550, Control_c, 0, 67, 109
1, 474565, Control_c, 0, 67, 115
1, 474567, Note_on_c, 0, 41, 24
1, 474580, Control_c, 0, 64, 77
1, 474580, Control_c, 0, 67, 125
1, 474594, Control_c, 0, 64, 75
1, 474594, Control_c, 0, 67, 127
1, 474601, Poly_aftertouch_c, 0, 55, 127
1, 474609, Control_c, 0, 64, 74
1, 474624, Control_c, 0, 64, 72
1, 474638, Control_c, 0, 64, 69
1, 474646, Poly_aftertouch_c, 0, 55, 0
1, 474652, Note_on_c, 0, 53, 22
1, 474653, Control_c, 0, 64, 65
1, 474655, Note_off_c, 0, 37, 38
1, 474668, Control_c, 0, 64, 59
1, 474672, Note_off_c, 0, 41, 35
1, 474683, Control_c, 0, 64, 49
1, 474698, Control_c, 0, 64, 33
1, 474702, Note_off_c, 0, 53, 48
1, 474706, Note_on_c, 0, 48, 35
1, 474709, Note_on_c, 0, 60, 57
1, 474712, Control_c, 0, 64, 11
1, 474713, Note_on_c, 0, 36, 28
1, 474727, Control_c, 0, 64, 0
1, 474792, Note_on_c, 0, 56, 50
1, 474794, Control_c, 0, 64, 17
1, 474809, Control_c, 0, 64, 32
1, 474824, Control_c, 0, 64, 43
1, 474832, Note_off_c, 0, 56, 65
1, 474839, Control_c, 0, 64, 55
1, 474853, Control_c, 0, 64, 63
1, 474866, Note_on_c, 0, 55, 46
1, 474868, Control_c, 0, 64, 71
1, 474883, Control_c, 0, 64, 74
1, 474895, Note_off_c, 0, 55, 58
1, 474919, Note_off_c, 0, 48, 42
1, 474929, Note_on_c, 0, 56, 58
1, 474992, Note_off_c, 0, 60, 41
1, 474998, Note_on_c, 0, 55, 51
1, 475024, Note_on_c, 0, 41, 38
1, 475042, Note_off_c, 0, 56, 35
1, 475046, Note_off_c, 0, 55, 64
1, 475090, Note_on_c, 0, 53, 52
1, 475090, Control_c, 0, 64, 73
1, 475105, Control_c, 0, 64, 72
1, 475120, Control_c, 0, 64, 71
1, 475135, Control_c, 0, 64, 68
1, 475145, Note_off_c, 0, 53, 48
1, 475150, Control_c, 0, 64, 64
1, 475162, Note_off_c, 0, 36, 41
1, 475165, Control_c, 0, 64, 57
1, 475173, Note_off_c, 0, 41, 50
1, 475180, Control_c, 0, 64, 44
1, 475186, Note_on_c, 0, 59, 60
1, 475193, Note_on_c, 0, 37, 38
1, 475195, Control_c, 0, 64, 27
1, 475197, Note_on_c, 0, 49, 41
1, 475210, Control_c, 0, 64, 21
1, 475224, Control_c, 0, 64, 20
1, 475245, Note_off_c, 0, 59, 54
1, 475254, Control_c, 0, 64, 22
1, 475260, Note_on_c, 0, 56, 57
1, 475269, Control_c, 0, 64, 28
1, 475284, Control_c, 0, 64, 35
1, 475299, Control_c, 0, 64, 45
1, 475313, Note_off_c, 0, 56, 64
1, 475314, Control_c, 0, 64, 54
1, 475329, Control_c, 0, 64, 61
1, 475337, Note_on_c, 0, 55, 54
1, 475343, Control_c, 0, 64, 65
1, 475358, Control_c, 0, 64, 68
1, 475373, Control_c, 0, 64, 68
1, 475382, Note_off_c, 0, 55, 63
1, 475401, Note_on_c, 0, 56, 57
1, 475470, Note_off_c, 0, 56, 63
1, 475482, Note_on_c, 0, 55, 58
1, 475496, Note_off_c, 0, 49, 44
1, 475507, Note_on_c, 0, 41, 42
1, 475521, Note_off_c, 0, 55, 67
1, 475526, Note_off_c, 0, 37, 40
1, 475543, Control_c, 0, 64, 68
1, 475558, Control_c, 0, 64, 67
1, 475573, Control_c, 0, 64, 67
1, 475578, Note_on_c, 0, 53, 44
1, 475588, Control_c, 0, 64, 65
1, 475603, Control_c, 0, 64, 62
1, 475617, Control_c, 0, 64, 54
1, 475632, Control_c, 0, 64, 40
1, 475639, Note_on_c, 0, 60, 60
1, 475642, Note_on_c, 0, 36, 38
1, 475644, Note_off_c, 0, 41, 34
1, 475645, Note_on_c, 0, 48, 39
1, 475647, Control_c, 0, 64, 25
1, 475659, Note_off_c, 0, 53, 39
1, 475662, Control_c, 0, 64, 22
1, 475691, Control_c, 0, 64, 23
1, 475706, Note_on_c, 0, 56, 59
1, 475706, Control_c, 0, 64, 27
1, 475709, Note_off_c, 0, 60, 60
1, 475721, Control_c, 0, 64, 34
1, 475736, Control_c, 0, 64, 42
1, 475750, Control_c, 0, 64, 51
1, 475751, Note_off_c, 0, 56, 66
1, 475765, Control_c, 0, 64, 59
1, 475773, Note_on_c, 0, 55, 58
1, 475780, Control_c, 0, 64, 64
1, 475795, Control_c, 0, 64, 67
1, 475810, Control_c, 0, 64, 68
1, 475812, Note_off_c, 0, 55, 63
1, 475831, Note_on_c, 0, 56, 59
1, 475848, Note_off_c, 0, 48, 41
1, 475906, Note_off_c, 0, 56, 62
1, 475912, Note_on_c, 0, 55, 63
1, 475932, Note_off_c, 0, 36, 40
1, 475942, Note_off_c, 0, 55, 67
1, 475952, Note_on_c, 0, 41, 28
1, 475958, Control_c, 0, 64, 67
1, 475972, Control_c, 0, 64, 67
1, 475980, Note_on_c, 0, 53, 56
1, 475988, Control_c, 0, 64, 65
1, 476003, Control_c, 0, 64, 63
1, 476018, Control_c, 0, 64, 59
1, 476032, Note_off_c, 0, 41, 50
1, 476033, Control_c, 0, 64, 49
1, 476047, Control_c, 0, 64, 33
1, 476056, Note_off_c, 0, 53, 36
1, 476058, Note_on_c, 0, 61, 66
1, 476059, Note_on_c, 0, 47, 36
1, 476062, Control_c, 0, 64, 13
1, 476065, Note_on_c, 0, 35, 38
1, 476077, Control_c, 0, 64, 12
1, 476107, Control_c, 0, 64, 12
1, 476122, Control_c, 0, 64, 19
1, 476128, Note_on_c, 0, 56, 63
1, 476134, Note_off_c, 0, 61, 59
1, 476136, Control_c, 0, 64, 28
1, 476151, Control_c, 0, 64, 40
1, 476166, Control_c, 0, 64, 50
1, 476174, Note_off_c, 0, 56, 66
1, 476181, Control_c, 0, 64, 59
1, 476192, Note_on_c, 0, 54, 64
1, 476196, Control_c, 0, 64, 66
1, 476211, Control_c, 0, 64, 70
1, 476226, Control_c, 0, 64, 71
1, 476231, Note_off_c, 0, 54, 63
1, 476240, Control_c, 0, 64, 71
1, 476248, Note_on_c, 0, 56, 61
1, 476277, Control_c, 0, 64, 72
1, 476315, Note_off_c, 0, 56, 64
1, 476321, Note_on_c, 0, 54, 71
1, 476354, Note_off_c, 0, 54, 64
1, 476356, Note_off_c, 0, 47, 40
1, 476358, Note_on_c, 0, 41, 49
1, 476378, Note_off_c, 0, 35, 39
1, 476396, Note_on_c, 0, 53, 54
1, 476411, Control_c, 0, 64, 70
1, 476426, Control_c, 0, 64, 66
1, 476434, Note_off_c, 0, 53, 56
1, 476440, Control_c, 0, 64, 57
1, 476447, Note_off_c, 0, 41, 61
1, 476455, Control_c, 0, 64, 40
1, 476461, Note_on_c, 0, 47, 49
1, 476465, Note_on_c, 0, 61, 69
1, 476470, Control_c, 0, 64, 22
1, 476484, Note_on_c, 0, 35, 41
1, 476485, Control_c, 0, 64, 20
1, 476499, Control_c, 0, 64, 24
1, 476514, Control_c, 0, 64, 31
1, 476529, Control_c, 0, 64, 42
1, 476540, Note_on_c, 0, 56, 61
1, 476544, Control_c, 0, 64, 54
1, 476548, Note_off_c, 0, 61, 53
1, 476559, Control_c, 0, 64, 64
1, 476573, Control_c, 0, 64, 75
1, 476583, Note_off_c, 0, 56, 65
1, 476588, Control_c, 0, 64, 81
1, 476607, Note_on_c, 0, 54, 63
1, 476635, Note_off_c, 0, 54, 63
1, 476662, Note_on_c, 0, 56, 57
1, 476677, Control_c, 0, 64, 80
1, 476699, Note_off_c, 0, 47, 57
1, 476706, Control_c, 0, 64, 79
1, 476721, Control_c, 0, 64, 79
1, 476727, Note_on_c, 0, 54, 60
1, 476729, Note_on_c, 0, 41, 48
1, 476730, Note_off_c, 0, 56, 65
1, 476736, Control_c, 0, 64, 78
1, 476744, Note_off_c, 0, 35, 39
1, 476751, Control_c, 0, 64, 76
1, 476759, Note_off_c, 0, 54, 66
1, 476765, Control_c, 0, 64, 74
1, 476780, Control_c, 0, 64, 72
1, 476796, Control_c, 0, 64, 69
1, 476802, Note_on_c, 0, 53, 53
1, 476811, Control_c, 0, 64, 64
1, 476826, Control_c, 0, 64, 54
1, 476841, Control_c, 0, 64, 37
1, 476856, Control_c, 0, 64, 0
1, 476858, Note_off_c, 0, 53, 49
1, 476860, Note_off_c, 0, 41, 63
1, 476880, Note_on_c, 0, 35, 43
1, 476895, Note_on_c, 0, 61, 67
1, 476897, Note_on_c, 0, 47, 38
1, 476944, Control_c, 0, 64, 8
1, 476959, Control_c, 0, 64, 25
1, 476974, Control_c, 0, 64, 36
1, 476989, Control_c, 0, 64, 47
1, 476989, Note_on_c, 0, 56, 63
1, 477004, Control_c, 0, 64, 57
1, 477013, Note_off_c, 0, 61, 54
1, 477026, Control_c, 0, 64, 65
1, 477040, Control_c, 0, 64, 69
1, 477055, Control_c, 0, 64, 70
1, 477070, Note_off_c, 0, 35, 39
1, 477084, Note_off_c, 0, 47, 44
1, 477085, Control_c, 0, 64, 70
1, 477090, Note_off_c, 0, 56, 62
1, 477094, Note_on_c, 0, 54, 72
1, 477129, Control_c, 0, 64, 71
1, 477159, Control_c, 0, 64, 71
1, 477160, Note_off_c, 0, 54, 64
1, 477174, Control_c, 0, 64, 72
1, 477183, Note_on_c, 0, 53, 70
1, 477248, Note_off_c, 0, 53, 50
1, 477278, Control_c, 0, 64, 72
1, 477282, Note_on_c, 0, 56, 70
1, 477322, Control_c, 0, 64, 73
1, 477351, Note_off_c, 0, 56, 65
1, 477352, Control_c, 0, 64, 73
1, 477367, Control_c, 0, 64, 74
1, 477371, Note_on_c, 0, 61, 67
1, 477382, Control_c, 0, 64, 74
1, 477405, Note_off_c, 0, 61, 67
1, 477411, Control_c, 0, 64, 75
1, 477440, Control_c, 0, 64, 75
1, 477467, Note_on_c, 0, 56, 71
1, 477485, Note_off_c, 0, 56, 69
1, 477487, Note_on_c, 0, 65, 53
1, 477493, Note_on_c, 0, 64, 39
1, 477500, Control_c, 0, 64, 76
1, 477523, Note_off_c, 0, 65, 50
1, 477524, Note_off_c, 0, 64, 52
1, 477529, Control_c, 0, 64, 76
1, 477544, Control_c, 0, 64, 77
1, 477555, Note_on_c, 0, 56, 64
1, 477559, Control_c, 0, 64, 79
1, 477573, Note_off_c, 0, 56, 68
1, 477574, Control_c, 0, 64, 80
1, 477590, Control_c, 0, 64, 81
1, 477605, Control_c, 0, 64, 83
1, 477619, Control_c, 0, 64, 85
1, 477630, Note_on_c, 0, 73, 68
1, 477631, Poly_aftertouch_c, 0, 67, 127
1, 477634, Control_c, 0, 64, 87
1, 477644, Note_on_c, 0, 56, 70
1, 477649, Note_off_c, 0, 73, 62
1, 477649, Control_c, 0, 64, 88
1, 477663, Control_c, 0, 64, 89
1, 477667, Note_on_c, 0, 68, 46
1, 477668, Poly_aftertouch_c, 0, 67, 0
1, 477669, Note_off_c, 0, 56, 68
1, 477678, Control_c, 0, 64, 90
1, 477693, Control_c, 0, 64, 91
1, 477695, Note_off_c, 0, 68, 38
1, 477740, Note_on_c, 0, 77, 60
1, 477819, Note_on_c, 0, 68, 73
1, 477820, Note_on_c, 0, 80, 77
1, 477823, Note_on_c, 0, 56, 66
1, 477833, Note_off_c, 0, 77, 55
1, 477843, Note_off_c, 0, 56, 64
1, 477844, Note_off_c, 0, 68, 65
1, 477878, Control_c, 0, 64, 90
1, 477893, Control_c, 0, 64, 88
1, 477907, Note_on_c, 0, 89, 79
1, 477908, Control_c, 0, 64, 82
1, 477912, Note_off_c, 0, 80, 62
1, 477923, Control_c, 0, 64, 71
1, 477937, Control_c, 0, 64, 61
1, 477952, Control_c, 0, 64, 47
1, 477967, Control_c, 0, 64, 25
1, 477973, Note_on_c, 0, 56, 63
1, 477976, Note_on_c, 0, 68, 70
1, 477982, Control_c, 0, 64, 20
1, 477997, Note_on_c, 0, 87, 79
1, 477999, Note_off_c, 0, 89, 65
1, 478012, Control_c, 0, 64, 22
1, 478026, Control_c, 0, 64, 30
1, 478041, Control_c, 0, 64, 40
1, 478056, Control_c, 0, 64, 53
1, 478070, Note_off_c, 0, 68, 58
1, 478071, Control_c, 0, 64, 66
1, 478077, Note_on_c, 0, 85, 76
1, 478086, Control_c, 0, 64, 85
1, 478087, Note_off_c, 0, 87, 59
1, 478100, Note_off_c, 0, 56, 61
1, 478101, Control_c, 0, 64, 99
1, 478166, Note_off_c, 0, 85, 65
1, 478168, Note_on_c, 0, 80, 85
1, 478232, Note_off_c, 0, 80, 63
1, 478247, Note_on_c, 0, 77, 72
1, 478281, Note_off_c, 0, 77, 58
1, 478293, Control_c, 0, 64, 98
1, 478338, Note_on_c, 0, 75, 71
1, 478426, Note_on_c, 0, 73, 67
1, 478442, Control_c, 0, 64, 99
1, 478450, Note_off_c, 0, 75, 55
1, 478457, Control_c, 0, 64, 100
1, 478472, Control_c, 0, 64, 101
1, 478486, Control_c, 0, 64, 103
1, 478521, Note_off_c, 0, 73, 65
1, 478526, Note_on_c, 0, 68, 78
1, 478586, Note_off_c, 0, 68, 57
1, 478613, Note_on_c, 0, 65, 61
1, 478628, Control_c, 0, 64, 102
1, 478642, Control_c, 0, 64, 98
1, 478657, Control_c, 0, 64, 93
1, 478672, Note_off_c, 0, 65, 61
1, 478672, Control_c, 0, 64, 82
1, 478686, Control_c, 0, 64, 69
1, 478701, Control_c, 0, 64, 60
1, 478715, Note_on_c, 0, 54, 67
1, 478716, Control_c, 0, 64, 46
1, 478721, Note_on_c, 0, 63, 67
1, 478722, Note_on_c, 0, 42, 59
1, 478731, Control_c, 0, 64, 35
1, 478746, Control_c, 0, 64, 38
1, 478761, Control_c, 0, 64, 45
1, 478775, Control_c, 0, 64, 54
1, 478790, Control_c, 0, 64, 65
1, 478805, Control_c, 0, 64, 86
1, 478807, Note_off_c, 0, 63, 61
1, 478816, Note_on_c, 0, 61, 68
1, 478819, Control_c, 0, 64, 127
1, 478827, Note_off_c, 0, 54, 60
1, 478895, Note_off_c, 0, 61, 65
1, 478905, Note_on_c, 0, 56, 65
1, 478935, Note_off_c, 0, 42, 54
1, 478987, Note_on_c, 0, 41, 59
1, 478989, Note_off_c, 0, 56, 60
1, 478994, Note_on_c, 0, 53, 53
1, 479005, Note_on_c, 0, 61, 64
1, 479012, Control_c, 0, 64, 115
1, 479012, Control_c, 0, 67, 118
1, 479018, Note_off_c, 0, 41, 65
1, 479018, Note_off_c, 0, 53, 59
1, 479027, Control_c, 0, 64, 107
1, 479027, Control_c, 0, 67, 106
1, 479042, Control_c, 0, 64, 103
1, 479042, Control_c, 0, 67, 93
1, 479057, Control_c, 0, 64, 99
1, 479057, Control_c, 0, 67, 78
1, 479072, Control_c, 0, 64, 96
1, 479072, Control_c, 0, 67, 62
1, 479086, Control_c, 0, 64, 92
1, 479086, Control_c, 0, 67, 46
1, 479101, Control_c, 0, 64, 88
1, 479101, Control_c, 0, 67, 35
1, 479116, Control_c, 0, 64, 81
1, 479116, Control_c, 0, 67, 25
1, 479131, Control_c, 0, 64, 76
1, 479131, Control_c, 0, 67, 16
1, 479146, Control_c, 0, 64, 70
1, 479146, Control_c, 0, 67, 9
1, 479160, Control_c, 0, 64, 65
1, 479160, Control_c, 0, 67, 0
1, 479175, Control_c, 0, 64, 59
1, 479180, Note_on_c, 0, 40, 49
1, 479182, Note_on_c, 0, 52, 48
1, 479191, Control_c, 0, 64, 47
1, 479195, Note_off_c, 0, 61, 58
1, 479200, Note_on_c, 0, 62, 61
1, 479206, Control_c, 0, 64, 28
1, 479221, Control_c, 0, 64, 11
1, 479235, Control_c, 0, 64, 0
1, 479287, Note_on_c, 0, 59, 60
1, 479293, Note_off_c, 0, 62, 61
1, 479302, Control_c, 0, 64, 22
1, 479317, Control_c, 0, 64, 37
1, 479332, Control_c, 0, 64, 50
1, 479335, Note_off_c, 0, 59, 62
1, 479347, Control_c, 0, 64, 62
1, 479355, Note_on_c, 0, 58, 64
1, 479362, Control_c, 0, 64, 75
1, 479377, Control_c, 0, 64, 88
1, 479394, Note_off_c, 0, 58, 62
1, 479413, Note_off_c, 0, 52, 35
1, 479415, Note_on_c, 0, 59, 41
1, 479460, Note_off_c, 0, 59, 62
1, 479474, Note_off_c, 0, 40, 59
1, 479476, Note_on_c, 0, 58, 58
1, 479485, Note_on_c, 0, 44, 46
1, 479508, Note_off_c, 0, 58, 65
1, 479554, Control_c, 0, 64, 87
1, 479564, Note_on_c, 0, 56, 43
1, 479569, Control_c, 0, 64, 85
1, 479583, Control_c, 0, 64, 81
1, 479598, Control_c, 0, 64, 76
1, 479609, Note_off_c, 0, 56, 45
1, 479613, Control_c, 0, 64, 68
1, 479628, Control_c, 0, 64, 60
1, 479642, Note_on_c, 0, 63, 61
1, 479642, Control_c, 0, 64, 47
1, 479645, Note_on_c, 0, 39, 50
1, 479651, Note_on_c, 0, 51, 41
1, 479657, Control_c, 0, 64, 31
1, 479658, Note_off_c, 0, 44, 36
1, 479672, Control_c, 0, 64, 24
1, 479687, Control_c, 0, 64, 24
1, 479702, Control_c, 0, 64, 26
1, 479714, Note_on_c, 0, 59, 55
1, 479716, Control_c, 0, 64, 30
1, 479723, Note_off_c, 0, 63, 57
1, 479731, Control_c, 0, 64, 39
1, 479746, Control_c, 0, 64, 49
1, 479761, Control_c, 0, 64, 61
1, 479776, Control_c, 0, 64, 72
1, 479780, Note_off_c, 0, 59, 62
1, 479788, Note_on_c, 0, 58, 64
1, 479791, Control_c, 0, 64, 89
1, 479806, Control_c, 0, 64, 89
1, 479827, Note_off_c, 0, 58, 59
1, 479835, Control_c, 0, 64, 91
1, 479850, Control_c, 0, 64, 93
1, 479854, Note_on_c, 0, 59, 40
1, 479865, Control_c, 0, 64, 96
1, 479880, Control_c, 0, 64, 98
1, 479894, Note_off_c, 0, 59, 60
1, 479895, Control_c, 0, 64, 99
1, 479913, Note_off_c, 0, 51, 42
1, 479916, Note_on_c, 0, 58, 48
1, 479921, Note_on_c, 0, 44, 46
1, 479925, Note_off_c, 0, 39, 58
1, 479952, Note_off_c, 0, 58, 61
1, 479979, Note_on_c, 0, 56, 61
1, 479985, Control_c, 0, 64, 96
1, 480000, Control_c, 0, 64, 92
1, 480018, Note_off_c, 0, 56, 65
1, 480021, Control_c, 0, 64, 88
1, 480036, Control_c, 0, 64, 81
1, 480047, Note_off_c, 0, 44, 58
1, 480051, Control_c, 0, 64, 71
1, 480065, Note_on_c, 0, 40, 52
1, 480065, Control_c, 0, 64, 62
1, 480080, Note_on_c, 0, 52, 43
1, 480080, Control_c, 0, 64, 46
1, 480082, Note_on_c, 0, 62, 71
1, 480095, Control_c, 0, 64, 29
1, 480110, Control_c, 0, 64, 24
1, 480125, Control_c, 0, 64, 26
1, 480140, Control_c, 0, 64, 31
1, 480149, Note_on_c, 0, 59, 58
1, 480155, Control_c, 0, 64, 38
1, 480156, Note_off_c, 0, 52, 0
1, 480156, Note_on_c, 0, 52, 3
1, 480160, Note_off_c, 0, 62, 56
1, 480170, Control_c, 0, 64, 51
1, 480184, Control_c, 0, 64, 62
1, 480199, Control_c, 0, 64, 77
1, 480210, Note_off_c, 0, 59, 61
1, 480214, Control_c, 0, 64, 98
1, 480215, Note_on_c, 0, 58, 65
1, 480229, Control_c, 0, 64, 100
1, 480244, Control_c, 0, 64, 100
1, 480251, Note_off_c, 0, 58, 62
1, 480258, Control_c, 0, 64, 108
1, 480273, Note_off_c, 0, 52, 43
1, 480273, Control_c, 0, 64, 127
1, 480274, Note_on_c, 0, 59, 49
1, 480328, Note_off_c, 0, 59, 61
1, 480341, Note_off_c, 0, 40, 62
1, 480342, Note_on_c, 0, 58, 63
1, 480357, Note_on_c, 0, 44, 49
1, 480377, Note_off_c, 0, 58, 65
1, 480408, Note_on_c, 0, 56, 63
1, 480436, Control_c, 0, 64, 88
1, 480450, Note_off_c, 0, 56, 57
1, 480451, Control_c, 0, 64, 68
1, 480465, Control_c, 0, 64, 57
1, 480477, Note_off_c, 0, 44, 59
1, 480477, Note_on_c, 0, 63, 76
1, 480480, Control_c, 0, 64, 41
1, 480486, Note_on_c, 0, 39, 54
1, 480486, Note_on_c, 0, 51, 49
1, 480495, Control_c, 0, 64, 31
1, 480510, Control_c, 0, 64, 33
1, 480525, Control_c, 0, 64, 40
1, 480539, Control_c, 0, 64, 53
1, 480544, Note_on_c, 0, 59, 52
1, 480553, Control_c, 0, 64, 65
1, 480558, Note_off_c, 0, 63, 58
1, 480568, Control_c, 0, 64, 91
1, 480582, Control_c, 0, 64, 127
1, 480602, Note_off_c, 0, 59, 61
1, 480611, Note_on_c, 0, 58, 68
1, 480660, Note_off_c, 0, 58, 59
1, 480669, Note_on_c, 0, 59, 44
1, 480669, Note_off_c, 0, 51, 61
1, 480708, Note_off_c, 0, 39, 59
1, 480709, Note_off_c, 0, 59, 59
1, 480715, Note_on_c, 0, 58, 28
1, 480718, Note_on_c, 0, 44, 50
1, 480751, Note_off_c, 0, 58, 46
1, 480760, Note_on_c, 0, 56, 65
1, 480805, Note_off_c, 0, 56, 62
1, 480843, Control_c, 0, 64, 109
1, 480858, Control_c, 0, 64, 78
1, 480861, Note_off_c, 0, 44, 60
1, 480872, Note_on_c, 0, 64, 80
1, 480873, Control_c, 0, 64, 59
1, 480873, Note_on_c, 0, 38, 54
1, 480874, Note_on_c, 0, 50, 53
1, 480887, Control_c, 0, 64, 26
1, 480902, Control_c, 0, 64, 0
1, 480944, Note_on_c, 0, 59, 64
1, 480976, Control_c, 0, 64, 14
1, 480979, Note_off_c, 0, 64, 61
1, 480991, Control_c, 0, 64, 37
1, 480996, Note_off_c, 0, 59, 61
1, 480998, Note_on_c, 0, 57, 69
1, 481005, Control_c, 0, 64, 56
1, 481020, Control_c, 0, 64, 75
1, 481035, Control_c, 0, 64, 127
1, 481052, Note_off_c, 0, 57, 59
1, 481060, Note_on_c, 0, 59, 57
1, 481112, Note_off_c, 0, 59, 62
1, 481119, Note_on_c, 0, 57, 65
1, 481160, Note_off_c, 0, 38, 57
1, 481162, Note_off_c, 0, 57, 62
1, 481180, Note_off_c, 0, 50, 41
1, 481183, Note_on_c, 0, 44, 54
1, 481186, Note_on_c, 0, 56, 71
1, 481210, Note_off_c, 0, 56, 69
1, 481255, Note_on_c, 0, 64, 80
1, 481270, Note_off_c, 0, 44, 61
1, 481279, Note_on_c, 0, 50, 60
1, 481293, Note_on_c, 0, 38, 58
1, 481315, Note_on_c, 0, 59, 72
1, 481341, Note_off_c, 0, 64, 55
1, 481377, Note_off_c, 0, 59, 65
1, 481392, Note_on_c, 0, 57, 64
1, 481413, Note_off_c, 0, 57, 63
1, 481428, Note_on_c, 0, 59, 52
1, 481481, Note_off_c, 0, 59, 61
1, 481484, Note_on_c, 0, 57, 69
1, 481511, Note_off_c, 0, 38, 55
1, 481514, Note_off_c, 0, 50, 53
1, 481523, Note_off_c, 0, 57, 59
1, 481536, Note_on_c, 0, 44, 56
1, 481580, Note_on_c, 0, 56, 58
1, 481608, Note_off_c, 0, 56, 68
1, 481651, Control_c, 0, 64, 98
1, 481663, Note_off_c, 0, 44, 60
1, 481666, Control_c, 0, 64, 74
1, 481675, Note_on_c, 0, 50, 46
1, 481678, Note_on_c, 0, 38, 47
1, 481681, Control_c, 0, 64, 61
1, 481687, Note_on_c, 0, 64, 77
1, 481696, Control_c, 0, 64, 39
1, 481711, Control_c, 0, 64, 0
1, 481770, Control_c, 0, 64, 17
1, 481782, Note_on_c, 0, 59, 71
1, 481785, Control_c, 0, 64, 30
1, 481786, Note_off_c, 0, 64, 60
1, 481800, Control_c, 0, 64, 44
1, 481815, Control_c, 0, 64, 56
1, 481827, Note_off_c, 0, 50, 40
1, 481829, Control_c, 0, 64, 68
1, 481844, Note_off_c, 0, 38, 58
1, 481844, Control_c, 0, 64, 86
1, 481845, Note_off_c, 0, 59, 62
1, 481859, Control_c, 0, 64, 95
1, 481865, Note_on_c, 0, 57, 74
1, 481874, Control_c, 0, 64, 98
1, 481889, Control_c, 0, 64, 107
1, 481903, Control_c, 0, 64, 127
1, 481946, Note_off_c, 0, 57, 40
1, 481949, Note_on_c, 0, 56, 75
1, 482001, Note_off_c, 0, 56, 66
1, 482039, Note_on_c, 0, 59, 77
1, 482080, Note_off_c, 0, 59, 45
1, 482141, Note_on_c, 0, 64, 73
1, 482220, Note_off_c, 0, 64, 59
1, 482220, Note_on_c, 0, 68, 83
1, 482226, Note_on_c, 0, 59, 75
1, 482247, Note_off_c, 0, 68, 64
1, 482256, Note_off_c, 0, 59, 69
1, 482311, Note_on_c, 0, 71, 81
1, 482316, Note_on_c, 0, 59, 75
1, 482341, Note_off_c, 0, 59, 64
1, 482368, Note_off_c, 0, 71, 63
1, 482399, Note_on_c, 0, 76, 86
1, 482417, Note_on_c, 0, 59, 69
1, 482439, Note_off_c, 0, 59, 68
1, 482460, Note_off_c, 0, 76, 62
1, 482480, Note_on_c, 0, 80, 73
1, 482501, Note_off_c, 0, 80, 57
1, 482563, Note_on_c, 0, 83, 81
1, 482576, Note_on_c, 0, 71, 74
1, 482578, Note_on_c, 0, 59, 72
1, 482593, Note_off_c, 0, 71, 70
1, 482596, Note_off_c, 0, 59, 65
1, 482609, Note_off_c, 0, 83, 65
1, 482656, Note_on_c, 0, 95, 91
1, 482712, Control_c, 0, 64, 91
1, 482727, Control_c, 0, 64, 66
1, 482731, Note_on_c, 0, 71, 74
1, 482733, Note_on_c, 0, 59, 64
1, 482741, Control_c, 0, 64, 50
1, 482745, Note_on_c, 0, 92, 90
1, 482756, Control_c, 0, 64, 32
1, 482764, Note_off_c, 0, 95, 64
1, 482771, Control_c, 0, 64, 28
1, 482785, Control_c, 0, 64, 36
1, 482800, Control_c, 0, 64, 47
1, 482815, Control_c, 0, 64, 60
1, 482823, Note_on_c, 0, 90, 86
1, 482830, Control_c, 0, 64, 80
1, 482837, Note_off_c, 0, 71, 63
1, 482837, Note_off_c, 0, 92, 59
1, 482845, Control_c, 0, 64, 127
1, 482867, Note_off_c, 0, 59, 60
1, 482907, Note_off_c, 0, 90, 68
1, 482908, Note_on_c, 0, 88, 78
1, 482969, Note_off_c, 0, 88, 66
1, 482992, Note_on_c, 0, 83, 69
1, 483028, Note_off_c, 0, 83, 65
1, 483079, Note_on_c, 0, 80, 76
1, 483161, Note_on_c, 0, 78, 76
1, 483192, Note_off_c, 0, 80, 61
1, 483237, Note_on_c, 0, 76, 78
1, 483246, Note_off_c, 0, 78, 59
1, 483298, Note_off_c, 0, 76, 62
1, 483335, Note_on_c, 0, 71, 59
1, 483365, Note_off_c, 0, 71, 66
1, 483401, Control_c, 0, 64, 95
1, 483415, Note_on_c, 0, 50, 62
1, 483416, Control_c, 0, 64, 67
1, 483419, Note_on_c, 0, 38, 68
1, 483424, Note_on_c, 0, 68, 71
1, 483431, Control_c, 0, 64, 54
1, 483446, Control_c, 0, 64, 36
1, 483454, Note_off_c, 0, 50, 0
1, 483454, Note_on_c, 0, 50, 38
1, 483460, Control_c, 0, 64, 24
1, 483475, Control_c, 0, 64, 27
1, 483490, Control_c, 0, 64, 35
1, 483493, Poly_aftertouch_c, 0, 48, 127
1, 483505, Control_c, 0, 64, 46
1, 483520, Control_c, 0, 64, 61
1, 483526, Note_on_c, 0, 64, 73
1, 483535, Control_c, 0, 64, 79
1, 483540, Poly_aftertouch_c, 0, 48, 0
1, 483549, Control_c, 0, 64, 127
1, 483556, Note_off_c, 0, 50, 62
1, 483560, Note_off_c, 0, 38, 62
1, 483571, Note_off_c, 0, 68, 35
1, 483613, Note_off_c, 0, 64, 56
1, 483618, Poly_aftertouch_c, 0, 39, 0
1, 483620, Note_on_c, 0, 59, 73
1, 483723, Note_off_c, 0, 59, 36
1, 483727, Note_on_c, 0, 52, 65
1, 483729, Note_on_c, 0, 40, 56
1, 483732, Note_on_c, 0, 60, 78
1, 483759, Note_off_c, 0, 52, 59
1, 483768, Note_off_c, 0, 40, 54
1, 483882, Control_c, 0, 64, 122
1, 483897, Control_c, 0, 64, 99
1, 483912, Control_c, 0, 64, 90
1, 483920, Note_on_c, 0, 53, 52
1, 483927, Note_on_c, 0, 41, 51
1, 483927, Control_c, 0, 64, 83
1, 483942, Control_c, 0, 64, 76
1, 483956, Control_c, 0, 64, 67
1, 483971, Control_c, 0, 64, 56
1, 483980, Note_on_c, 0, 68, 73
1, 483987, Control_c, 0, 64, 32
1, 484002, Note_off_c, 0, 60, 55
1, 484002, Control_c, 0, 64, 0
1, 484076, Control_c, 0, 64, 24
1, 484091, Control_c, 0, 64, 41
1, 484105, Control_c, 0, 64, 56
1, 484120, Control_c, 0, 64, 70
1, 484124, Note_off_c, 0, 68, 59
1, 484135, Control_c, 0, 64, 106
1, 484141, Note_on_c, 0, 62, 68
1, 484150, Control_c, 0, 64, 127
1, 484201, Note_off_c, 0, 62, 61
1, 484224, Note_on_c, 0, 60, 57
1, 484245, Note_off_c, 0, 60, 63
1, 484268, Note_on_c, 0, 62, 64
1, 484289, Note_off_c, 0, 41, 59
1, 484310, Note_on_c, 0, 43, 49
1, 484327, Note_on_c, 0, 60, 58
1, 484334, Note_off_c, 0, 62, 59
1, 484358, Note_off_c, 0, 53, 43
1, 484366, Note_off_c, 0, 60, 65
1, 484411, Note_on_c, 0, 59, 58
1, 484431, Control_c, 0, 64, 102
1, 484446, Control_c, 0, 64, 82
1, 484460, Note_off_c, 0, 43, 59
1, 484461, Control_c, 0, 64, 65
1, 484464, Note_off_c, 0, 59, 49
1, 484471, Note_on_c, 0, 52, 65
1, 484476, Control_c, 0, 64, 52
1, 484482, Note_on_c, 0, 40, 57
1, 484490, Note_on_c, 0, 67, 71
1, 484491, Control_c, 0, 64, 33
1, 484513, Control_c, 0, 64, 16
1, 484543, Control_c, 0, 64, 23
1, 484557, Control_c, 0, 64, 32
1, 484567, Note_on_c, 0, 64, 59
1, 484572, Control_c, 0, 64, 47
1, 484578, Note_off_c, 0, 67, 56
1, 484587, Control_c, 0, 64, 61
1, 484602, Control_c, 0, 64, 82
1, 484617, Control_c, 0, 64, 127
1, 484620, Note_off_c, 0, 64, 60
1, 484634, Note_on_c, 0, 62, 64
1, 484668, Note_off_c, 0, 62, 64
1, 484679, Note_off_c, 0, 40, 62
1, 484683, Note_on_c, 0, 64, 55
1, 484727, Note_off_c, 0, 52, 59
1, 484744, Note_on_c, 0, 62, 69
1, 484746, Note_off_c, 0, 64, 58
1, 484753, Note_on_c, 0, 43, 59
1, 484795, Note_off_c, 0, 62, 62
1, 484812, Note_off_c, 0, 43, 59
1, 484822, Note_on_c, 0, 60, 66
1, 484854, Control_c, 0, 64, 80
1, 484869, Control_c, 0, 64, 63
1, 484884, Control_c, 0, 64, 48
1, 484888, Note_on_c, 0, 55, 73
1, 484896, Note_on_c, 0, 70, 83
1, 484899, Control_c, 0, 64, 29
1, 484911, Note_off_c, 0, 60, 52
1, 484912, Note_on_c, 0, 43, 50
1, 484914, Control_c, 0, 64, 22
1, 484928, Control_c, 0, 64, 26
1, 484943, Control_c, 0, 64, 36
1, 484958, Control_c, 0, 64, 49
1, 484963, Note_on_c, 0, 64, 68
1, 484972, Control_c, 0, 64, 63
1, 484987, Control_c, 0, 64, 98
1, 484995, Note_off_c, 0, 70, 58
1, 485002, Control_c, 0, 64, 127
1, 485034, Note_off_c, 0, 64, 63
1, 485042, Note_on_c, 0, 62, 65
1, 485076, Note_off_c, 0, 62, 55
1, 485088, Note_on_c, 0, 64, 60
1, 485144, Note_off_c, 0, 64, 60
1, 485151, Note_on_c, 0, 45, 61
1, 485154, Note_on_c, 0, 62, 62
1, 485169, Note_off_c, 0, 43, 40
1, 485169, Note_off_c, 0, 55, 37
1, 485191, Note_off_c, 0, 62, 63
1, 485211, Note_on_c, 0, 61, 74
1, 485240, Control_c, 0, 64, 92
1, 485259, Note_off_c, 0, 61, 60
1, 485261, Control_c, 0, 64, 63
1, 485266, Note_off_c, 0, 45, 63
1, 485276, Control_c, 0, 64, 42
1, 485291, Control_c, 0, 64, 0
1, 485298, Note_on_c, 0, 54, 76
1, 485302, Note_on_c, 0, 69, 81
1, 485308, Note_on_c, 0, 42, 65
1, 485350, Control_c, 0, 64, 27
1, 485365, Control_c, 0, 64, 45
1, 485369, Note_on_c, 0, 66, 66
1, 485380, Control_c, 0, 64, 63
1, 485392, Note_off_c, 0, 69, 61
1, 485395, Control_c, 0, 64, 127
1, 485431, Note_off_c, 0, 66, 63
1, 485435, Note_off_c, 0, 42, 60
1, 485440, Note_on_c, 0, 64, 68
1, 485441, Note_off_c, 0, 54, 63
1, 485488, Note_on_c, 0, 66, 68
1, 485493, Note_off_c, 0, 64, 60
1, 485541, Note_on_c, 0, 64, 52
1, 485560, Note_off_c, 0, 66, 63
1, 485601, Note_off_c, 0, 64, 63
1, 485613, Note_on_c, 0, 62, 73
1, 485667, Note_off_c, 0, 62, 59
1, 485677, Control_c, 0, 64, 94
1, 485692, Control_c, 0, 64, 65
1, 485693, Note_on_c, 0, 72, 87
1, 485699, Note_on_c, 0, 57, 87
1, 485700, Note_on_c, 0, 45, 69
1, 485707, Control_c, 0, 64, 46
1, 485722, Control_c, 0, 64, 22
1, 485737, Control_c, 0, 64, 12
1, 485751, Control_c, 0, 64, 15
1, 485761, Note_on_c, 0, 66, 77
1, 485766, Control_c, 0, 64, 28
1, 485774, Note_off_c, 0, 72, 60
1, 485781, Control_c, 0, 64, 44
1, 485795, Control_c, 0, 64, 60
1, 485810, Control_c, 0, 64, 127
1, 485834, Note_off_c, 0, 66, 64
1, 485846, Note_on_c, 0, 64, 66
1, 485893, Note_on_c, 0, 66, 68
1, 485895, Note_off_c, 0, 64, 60
1, 485947, Note_on_c, 0, 47, 64
1, 485950, Note_off_c, 0, 57, 60
1, 485954, Note_off_c, 0, 66, 62
1, 485958, Note_off_c, 0, 45, 63
1, 485961, Note_on_c, 0, 64, 58
1, 486013, Note_off_c, 0, 64, 54
1, 486032, Note_on_c, 0, 63, 74
1, 486040, Control_c, 0, 64, 78
1, 486055, Control_c, 0, 64, 59
1, 486061, Note_off_c, 0, 47, 62
1, 486069, Control_c, 0, 64, 37
1, 486077, Note_off_c, 0, 63, 63
1, 486084, Control_c, 0, 64, 0
1, 486099, Note_on_c, 0, 56, 77
1, 486103, Note_on_c, 0, 44, 65
1, 486114, Control_c, 0, 64, 20
1, 486120, Note_on_c, 0, 71, 77
1, 486128, Control_c, 0, 64, 37
1, 486140, Note_off_c, 0, 44, 65
1, 486143, Control_c, 0, 64, 53
1, 486158, Control_c, 0, 64, 71
1, 486173, Note_off_c, 0, 56, 65
1, 486173, Control_c, 0, 64, 127
1, 486189, Note_on_c, 0, 68, 65
1, 486200, Note_off_c, 0, 71, 61
1, 486248, Note_off_c, 0, 68, 60
1, 486260, Note_on_c, 0, 66, 71
1, 486293, Note_off_c, 0, 66, 58
1, 486318, Note_on_c, 0, 68, 56
1, 486364, Note_on_c, 0, 66, 62
1, 486373, Note_on_c, 0, 52, 63
1, 486380, Note_off_c, 0, 68, 56
1, 486400, Note_off_c, 0, 66, 61
1, 486441, Note_on_c, 0, 64, 55
1, 486482, Note_off_c, 0, 52, 62
1, 486494, Note_off_c, 0, 64, 50
1, 486536, Note_on_c, 0, 62, 64
1, 486542, Note_on_c, 0, 50, 57
1, 486545, Control_c, 0, 64, 106
1, 486551, Note_on_c, 0, 71, 75
1, 486560, Control_c, 0, 64, 75
1, 486574, Control_c, 0, 64, 61
1, 486589, Control_c, 0, 64, 48
1, 486604, Control_c, 0, 64, 36
1, 486618, Control_c, 0, 64, 32
1, 486628, Note_on_c, 0, 68, 69
1, 486648, Control_c, 0, 64, 34
1, 486652, Note_off_c, 0, 71, 60
1, 486663, Control_c, 0, 64, 42
1, 486678, Control_c, 0, 64, 54
1, 486687, Note_off_c, 0, 68, 61
1, 486692, Control_c, 0, 64, 67
1, 486696, Note_on_c, 0, 66, 68
1, 486707, Control_c, 0, 64, 127
1, 486737, Note_off_c, 0, 66, 56
1, 486759, Note_on_c, 0, 68, 63
1, 486823, Note_on_c, 0, 53, 54
1, 486826, Note_on_c, 0, 56, 64
1, 486830, Note_off_c, 0, 62, 55
1, 486832, Note_off_c, 0, 50, 63
1, 486832, Note_on_c, 0, 66, 73
1, 486857, Note_off_c, 0, 68, 59
1, 486886, Note_off_c, 0, 66, 63
1, 486912, Note_on_c, 0, 65, 63
1, 486937, Control_c, 0, 64, 80
1, 486947, Note_off_c, 0, 53, 55
1, 486951, Control_c, 0, 64, 60
1, 486966, Note_on_c, 0, 61, 83
1, 486966, Control_c, 0, 64, 40
1, 486972, Note_on_c, 0, 49, 75
1, 486974, Note_on_c, 0, 73, 84
1, 486978, Note_off_c, 0, 56, 53
1, 486981, Control_c, 0, 64, 12
1, 486982, Note_off_c, 0, 65, 36
1, 486996, Control_c, 0, 64, 0
1, 487026, Control_c, 0, 64, 9
1, 487041, Control_c, 0, 64, 30
1, 487053, Note_on_c, 0, 68, 73
1, 487055, Control_c, 0, 64, 53
1, 487070, Control_c, 0, 64, 84
1, 487083, Note_off_c, 0, 73, 62
1, 487085, Control_c, 0, 64, 127
1, 487114, Note_off_c, 0, 68, 60
1, 487127, Note_on_c, 0, 66, 73
1, 487145, Note_off_c, 0, 61, 63
1, 487168, Note_on_c, 0, 68, 71
1, 487172, Note_off_c, 0, 66, 60
1, 487202, Note_off_c, 0, 49, 64
1, 487214, Note_on_c, 0, 53, 59
1, 487220, Note_on_c, 0, 56, 61
1, 487237, Note_off_c, 0, 68, 60
1, 487241, Note_on_c, 0, 66, 52
1, 487270, Note_on_c, 0, 65, 77
1, 487271, Note_off_c, 0, 66, 63
1, 487311, Note_off_c, 0, 53, 57
1, 487337, Note_on_c, 0, 59, 96
1, 487338, Control_c, 0, 64, 75
1, 487341, Note_on_c, 0, 74, 92
1, 487351, Note_on_c, 0, 47, 79
1, 487353, Control_c, 0, 64, 53
1, 487354, Note_off_c, 0, 56, 62
1, 487367, Control_c, 0, 64, 14
1, 487377, Note_off_c, 0, 65, 27
1, 487382, Control_c, 0, 64, 0
1, 487412, Note_on_c, 0, 68, 78
1, 487412, Control_c, 0, 64, 22
1, 487427, Control_c, 0, 64, 47
1, 487441, Control_c, 0, 64, 69
1, 487443, Note_off_c, 0, 74, 57
1, 487456, Control_c, 0, 64, 127
1, 487482, Note_on_c, 0, 66, 80
1, 487483, Note_off_c, 0, 68, 58
1, 487520, Note_off_c, 0, 47, 64
1, 487532, Note_on_c, 0, 53, 61
1, 487535, Note_off_c, 0, 59, 60
1, 487536, Note_on_c, 0, 56, 75
1, 487553, Note_off_c, 0, 66, 61
1, 487568, Note_off_c, 0, 56, 66
1, 487568, Note_off_c, 0, 53, 66
1, 487580, Note_on_c, 0, 65, 71
1, 487607, Note_off_c, 0, 65, 68
1, 487716, Control_c, 0, 64, 84
1, 487725, Note_on_c, 0, 65, 95
1, 487725, Note_on_c, 0, 74, 87
1, 487730, Control_c, 0, 64, 62
1, 487735, Note_on_c, 0, 53, 85
1, 487745, Control_c, 0, 64, 47
1, 487760, Control_c, 0, 64, 35
1, 487775, Control_c, 0, 64, 37
1, 487789, Control_c, 0, 64, 48
1, 487798, Note_off_c, 0, 74, 64
1, 487804, Control_c, 0, 64, 65
1, 487806, Note_on_c, 0, 71, 68
1, 487819, Control_c, 0, 64, 127
1, 487851, Note_on_c, 0, 70, 51
1, 487860, Note_off_c, 0, 71, 67
1, 487905, Note_on_c, 0, 71, 74
1, 487916, Note_off_c, 0, 70, 52
1, 487976, Note_on_c, 0, 70, 80
1, 487978, Note_off_c, 0, 71, 68
1, 488000, Note_off_c, 0, 65, 61
1, 488001, Note_on_c, 0, 56, 67
1, 488001, Note_off_c, 0, 53, 65
1, 488006, Note_on_c, 0, 59, 59
1, 488024, Note_off_c, 0, 70, 63
1, 488040, Note_on_c, 0, 68, 80
1, 488073, Note_off_c, 0, 59, 58
1, 488089, Note_off_c, 0, 68, 61
1, 488090, Note_off_c, 0, 56, 64
1, 488129, Note_on_c, 0, 75, 98
1, 488132, Control_c, 0, 64, 79
1, 488140, Note_on_c, 0, 63, 99
1, 488145, Note_on_c, 0, 51, 86
1, 488146, Control_c, 0, 64, 59
1, 488161, Control_c, 0, 64, 39
1, 488176, Control_c, 0, 64, 11
1, 488190, Control_c, 0, 64, 0
1, 488205, Control_c, 0, 64, 11
1, 488208, Note_on_c, 0, 71, 74
1, 488220, Control_c, 0, 64, 29
1, 488230, Note_off_c, 0, 75, 61
1, 488235, Control_c, 0, 64, 46
1, 488257, Control_c, 0, 64, 64
1, 488269, Note_off_c, 0, 71, 67
1, 488272, Note_on_c, 0, 70, 72
1, 488272, Control_c, 0, 64, 127
1, 488316, Note_on_c, 0, 71, 72
1, 488334, Note_off_c, 0, 70, 41
1, 488353, Note_off_c, 0, 63, 62
1, 488379, Note_on_c, 0, 70, 75
1, 488379, Note_on_c, 0, 56, 70
1, 488381, Note_off_c, 0, 71, 67
1, 488385, Note_off_c, 0, 51, 62
1, 488387, Note_on_c, 0, 59, 62
1, 488427, Note_off_c, 0, 70, 64
1, 488442, Note_on_c, 0, 68, 75
1, 488472, Note_off_c, 0, 68, 59
1, 488528, Note_off_c, 0, 56, 63
1, 488534, Note_off_c, 0, 59, 0
1, 488538, Control_c, 0, 64, 94
1, 488542, Note_on_c, 0, 77, 102
1, 488546, Note_on_c, 0, 62, 97
1, 488553, Control_c, 0, 64, 62
1, 488555, Note_on_c, 0, 50, 77
1, 488568, Control_c, 0, 64, 39
1, 488583, Control_c, 0, 64, 9
1, 488597, Control_c, 0, 64, 22
1, 488612, Control_c, 0, 64, 38
1, 488614, Poly_aftertouch_c, 0, 59, 0
1, 488627, Note_off_c, 0, 77, 62
1, 488627, Control_c, 0, 64, 56
1, 488632, Note_on_c, 0, 71, 80
1, 488642, Control_c, 0, 64, 96
1, 488657, Control_c, 0, 64, 127
1, 488682, Note_on_c, 0, 70, 68
1, 488683, Note_off_c, 0, 71, 67
1, 488704, Note_off_c, 0, 62, 64
1, 488726, Note_on_c, 0, 71, 74
1, 488729, Note_off_c, 0, 70, 63
1, 488781, Note_on_c, 0, 56, 63
1, 488782, Note_on_c, 0, 70, 65
1, 488787, Note_off_c, 0, 71, 65
1, 488792, Note_on_c, 0, 59, 60
1, 488817, Note_off_c, 0, 50, 56
1, 488823, Note_off_c, 0, 59, 63
1, 488827, Note_off_c, 0, 70, 61
1, 488836, Note_off_c, 0, 56, 67
1, 488838, Note_on_c, 0, 68, 84
1, 488860, Note_off_c, 0, 68, 66
1, 489114, Note_on_c, 0, 38, 78
1, 489121, Note_on_c, 0, 50, 78
1, 489254, Note_on_c, 0, 39, 78
1, 489255, Note_on_c, 0, 51, 79
1, 489281, Note_off_c, 0, 38, 60
1, 489294, Note_off_c, 0, 50, 58
1, 489332, Control_c, 0, 64, 108
1, 489342, Note_on_c, 0, 42, 82
1, 489346, Control_c, 0, 64, 89
1, 489348, Note_off_c, 0, 39, 65
1, 489351, Note_off_c, 0, 51, 65
1, 489354, Note_on_c, 0, 54, 71
1, 489361, Control_c, 0, 64, 79
1, 489376, Control_c, 0, 64, 71
1, 489391, Control_c, 0, 64, 64
1, 489406, Control_c, 0, 64, 54
1, 489412, Note_on_c, 0, 43, 80
1, 489413, Note_off_c, 0, 42, 61
1, 489420, Control_c, 0, 64, 31
1, 489422, Note_off_c, 0, 54, 60
1, 489425, Note_on_c, 0, 55, 71
1, 489435, Control_c, 0, 64, 0
1, 489512, Note_on_c, 0, 42, 69
1, 489512, Note_off_c, 0, 55, 63
1, 489518, Note_on_c, 0, 54, 76
1, 489524, Note_off_c, 0, 43, 61
1, 489539, Control_c, 0, 64, 13
1, 489553, Control_c, 0, 64, 33
1, 489569, Control_c, 0, 64, 48
1, 489584, Control_c, 0, 64, 61
1, 489590, Note_off_c, 0, 54, 63
1, 489595, Note_on_c, 0, 43, 71
1, 489597, Note_off_c, 0, 42, 60
1, 489599, Control_c, 0, 64, 69
1, 489611, Note_on_c, 0, 55, 76
1, 489614, Control_c, 0, 64, 72
1, 489679, Note_off_c, 0, 43, 61
1, 489688, Note_on_c, 0, 45, 76
1, 489702, Note_on_c, 0, 57, 78
1, 489714, Note_off_c, 0, 55, 60
1, 489717, Control_c, 0, 64, 72
1, 489755, Control_c, 0, 64, 71
1, 489759, Note_off_c, 0, 45, 63
1, 489769, Control_c, 0, 64, 70
1, 489773, Note_on_c, 0, 46, 81
1, 489784, Control_c, 0, 64, 68
1, 489799, Control_c, 0, 64, 64
1, 489803, Note_on_c, 0, 58, 75
1, 489804, Note_off_c, 0, 57, 61
1, 489814, Control_c, 0, 64, 55
1, 489826, Note_off_c, 0, 46, 64
1, 489829, Control_c, 0, 64, 32
1, 489843, Control_c, 0, 64, 0
1, 489876, Note_on_c, 0, 45, 74
1, 489878, Note_off_c, 0, 58, 63
1, 489888, Control_c, 0, 64, 19
1, 489895, Note_on_c, 0, 57, 79
1, 489903, Control_c, 0, 64, 33
1, 489917, Control_c, 0, 64, 48
1, 489932, Control_c, 0, 64, 60
1, 489947, Control_c, 0, 64, 70
1, 489962, Control_c, 0, 64, 77
1, 489971, Note_on_c, 0, 46, 75
1, 489977, Control_c, 0, 64, 77
1, 489979, Note_on_c, 0, 58, 80
1, 489979, Note_off_c, 0, 45, 61
1, 489984, Note_off_c, 0, 57, 60
1, 490007, Control_c, 0, 64, 77
1, 490021, Control_c, 0, 64, 76
1, 490036, Control_c, 0, 64, 75
1, 490051, Control_c, 0, 64, 74
1, 490057, Note_off_c, 0, 46, 63
1, 490064, Note_on_c, 0, 48, 77
1, 490066, Control_c, 0, 64, 73
1, 490078, Note_on_c, 0, 60, 77
1, 490081, Control_c, 0, 64, 72
1, 490091, Note_off_c, 0, 58, 60
1, 490096, Control_c, 0, 64, 70
1, 490111, Control_c, 0, 64, 69
1, 490125, Control_c, 0, 64, 67
1, 490140, Control_c, 0, 64, 64
1, 490152, Note_off_c, 0, 48, 63
1, 490155, Control_c, 0, 64, 59
1, 490162, Note_on_c, 0, 49, 83
1, 490169, Control_c, 0, 64, 46
1, 490171, Note_on_c, 0, 61, 72
1, 490184, Control_c, 0, 64, 25
1, 490199, Control_c, 0, 64, 0
1, 490206, Note_off_c, 0, 60, 59
1, 490243, Note_off_c, 0, 49, 56
1, 490253, Note_on_c, 0, 57, 85
1, 490257, Note_on_c, 0, 45, 75
1, 490286, Note_off_c, 0, 61, 59
1, 490288, Control_c, 0, 64, 24
1, 490302, Control_c, 0, 64, 39
1, 490317, Control_c, 0, 64, 51
1, 490319, Note_off_c, 0, 57, 51
1, 490332, Control_c, 0, 64, 61
1, 490343, Note_on_c, 0, 58, 79
1, 490347, Control_c, 0, 64, 70
1, 490349, Note_on_c, 0, 46, 75
1, 490352, Note_off_c, 0, 45, 62
1, 490363, Control_c, 0, 64, 78
1, 490434, Note_off_c, 0, 46, 64
1, 490438, Note_on_c, 0, 48, 76
1, 490445, Note_on_c, 0, 60, 74
1, 490460, Note_off_c, 0, 58, 63
1, 490466, Control_c, 0, 64, 78
1, 490481, Control_c, 0, 64, 77
1, 490504, Control_c, 0, 64, 76
1, 490517, Note_off_c, 0, 48, 66
1, 490519, Control_c, 0, 64, 74
1, 490529, Note_on_c, 0, 49, 82
1, 490534, Control_c, 0, 64, 72
1, 490534, Note_on_c, 0, 61, 74
1, 490548, Control_c, 0, 64, 68
1, 490563, Note_off_c, 0, 60, 62
1, 490563, Control_c, 0, 64, 62
1, 490578, Control_c, 0, 64, 50
1, 490579, Note_off_c, 0, 49, 64
1, 490592, Control_c, 0, 64, 25
1, 490595, Note_off_c, 0, 61, 64
1, 490607, Control_c, 0, 64, 0
1, 490632, Note_on_c, 0, 48, 72
1, 490636, Note_on_c, 0, 60, 76
1, 490666, Control_c, 0, 64, 18
1, 490681, Control_c, 0, 64, 34
1, 490696, Control_c, 0, 64, 46
1, 490711, Control_c, 0, 64, 57
1, 490724, Note_on_c, 0, 49, 75
1, 490726, Control_c, 0, 64, 64
1, 490731, Note_on_c, 0, 61, 77
1, 490740, Note_off_c, 0, 60, 59
1, 490740, Control_c, 0, 64, 70
1, 490742, Note_off_c, 0, 48, 60
1, 490755, Control_c, 0, 64, 71
1, 490799, Control_c, 0, 64, 70
1, 490812, Note_on_c, 0, 51, 80
1, 490812, Note_off_c, 0, 49, 64
1, 490814, Control_c, 0, 64, 70
1, 490829, Control_c, 0, 64, 69
1, 490837, Note_on_c, 0, 63, 62
1, 490844, Control_c, 0, 64, 69
1, 490845, Note_off_c, 0, 61, 64
1, 490859, Control_c, 0, 64, 68
1, 490874, Control_c, 0, 64, 68
1, 490887, Note_off_c, 0, 51, 62
1, 490889, Control_c, 0, 64, 67
1, 490895, Note_on_c, 0, 52, 86
1, 490904, Control_c, 0, 64, 64
1, 490907, Note_on_c, 0, 64, 69
1, 490908, Note_off_c, 0, 63, 65
1, 490918, Control_c, 0, 64, 59
1, 490933, Control_c, 0, 64, 47
1, 490948, Control_c, 0, 64, 31
1, 490963, Control_c, 0, 64, 11
1, 490965, Note_off_c, 0, 64, 61
1, 490978, Control_c, 0, 64, 0
1, 490996, Note_on_c, 0, 51, 70
1, 491004, Note_on_c, 0, 63, 81
1, 491013, Note_off_c, 0, 52, 61
1, 491037, Control_c, 0, 64, 23
1, 491052, Control_c, 0, 64, 37
1, 491066, Control_c, 0, 64, 52
1, 491078, Note_off_c, 0, 63, 63
1, 491081, Control_c, 0, 64, 63
1, 491092, Note_on_c, 0, 52, 74
1, 491093, Note_on_c, 0, 64, 79
1, 491096, Control_c, 0, 64, 79
1, 491110, Control_c, 0, 64, 103
1, 491125, Control_c, 0, 64, 108
1, 491138, Note_off_c, 0, 51, 35
1, 491140, Control_c, 0, 64, 109
1, 491155, Control_c, 0, 64, 113
1, 491171, Control_c, 0, 64, 114
1, 491178, Note_off_c, 0, 52, 66
1, 491184, Note_on_c, 0, 54, 82
1, 491187, Note_on_c, 0, 66, 82
1, 491201, Control_c, 0, 64, 115
1, 491215, Control_c, 0, 64, 117
1, 491221, Note_off_c, 0, 64, 60
1, 491230, Control_c, 0, 64, 119
1, 491275, Note_off_c, 0, 54, 60
1, 491282, Control_c, 0, 64, 117
1, 491284, Note_off_c, 0, 66, 64
1, 491286, Note_on_c, 0, 67, 83
1, 491288, Note_on_c, 0, 55, 74
1, 491297, Control_c, 0, 64, 108
1, 491312, Control_c, 0, 64, 95
1, 491327, Control_c, 0, 64, 79
1, 491341, Control_c, 0, 64, 64
1, 491351, Note_off_c, 0, 67, 53
1, 491356, Control_c, 0, 64, 49
1, 491365, Note_off_c, 0, 55, 47
1, 491371, Control_c, 0, 64, 31
1, 491383, Note_on_c, 0, 60, 91
1, 491384, Note_on_c, 0, 48, 79
1, 491386, Control_c, 0, 64, 19
1, 491401, Control_c, 0, 64, 18
1, 491415, Control_c, 0, 64, 19
1, 491430, Control_c, 0, 64, 26
1, 491440, Note_off_c, 0, 60, 60
1, 491445, Control_c, 0, 64, 39
1, 491460, Control_c, 0, 64, 52
1, 491475, Control_c, 0, 64, 64
1, 491476, Note_on_c, 0, 49, 76
1, 491476, Note_on_c, 0, 61, 81
1, 491483, Note_off_c, 0, 48, 64
1, 491489, Control_c, 0, 64, 86
1, 491504, Control_c, 0, 64, 127
1, 491561, Note_on_c, 0, 51, 80
1, 491562, Note_on_c, 0, 63, 72
1, 491572, Note_off_c, 0, 49, 62
1, 491580, Note_off_c, 0, 61, 62
1, 491628, Note_off_c, 0, 51, 65
1, 491635, Note_on_c, 0, 52, 83
1, 491644, Note_on_c, 0, 64, 71
1, 491649, Note_off_c, 0, 63, 52
1, 491682, Control_c, 0, 64, 113
1, 491689, Note_off_c, 0, 64, 57
1, 491697, Control_c, 0, 64, 77
1, 491712, Control_c, 0, 64, 63
1, 491727, Control_c, 0, 64, 48
1, 491730, Note_on_c, 0, 51, 77
1, 491734, Note_on_c, 0, 63, 81
1, 491741, Control_c, 0, 64, 35
1, 491744, Note_off_c, 0, 52, 62
1, 491756, Control_c, 0, 64, 35
1, 491771, Control_c, 0, 64, 41
1, 491786, Control_c, 0, 64, 50
1, 491800, Note_off_c, 0, 63, 65
1, 491801, Control_c, 0, 64, 61
1, 491816, Control_c, 0, 64, 77
1, 491816, Note_on_c, 0, 64, 72
1, 491819, Note_off_c, 0, 51, 61
1, 491819, Note_on_c, 0, 52, 72
1, 491831, Control_c, 0, 64, 127
1, 491902, Note_on_c, 0, 66, 80
1, 491903, Note_off_c, 0, 52, 61
1, 491904, Note_on_c, 0, 54, 74
1, 491917, Note_off_c, 0, 64, 60
1, 491966, Note_off_c, 0, 54, 65
1, 491989, Note_on_c, 0, 55, 76
1, 491998, Note_on_c, 0, 67, 78
1, 491998, Note_off_c, 0, 66, 62
1, 492046, Control_c, 0, 64, 86
1, 492061, Control_c, 0, 64, 67
1, 492072, Note_off_c, 0, 67, 60
1, 492076, Control_c, 0, 64, 56
1, 492079, Note_on_c, 0, 54, 81
1, 492089, Note_on_c, 0, 66, 78
1, 492091, Control_c, 0, 64, 42
1, 492095, Note_off_c, 0, 55, 59
1, 492106, Control_c, 0, 64, 32
1, 492120, Control_c, 0, 64, 31
1, 492135, Control_c, 0, 64, 36
1, 492150, Control_c, 0, 64, 45
1, 492157, Note_off_c, 0, 54, 64
1, 492162, Note_on_c, 0, 55, 59
1, 492165, Control_c, 0, 64, 57
1, 492169, Note_off_c, 0, 66, 61
1, 492180, Control_c, 0, 64, 74
1, 492180, Note_on_c, 0, 67, 83
1, 492195, Control_c, 0, 64, 127
1, 492249, Note_off_c, 0, 55, 66
1, 492258, Note_on_c, 0, 57, 79
1, 492268, Note_on_c, 0, 69, 83
1, 492284, Note_off_c, 0, 67, 59
1, 492328, Note_off_c, 0, 57, 62
1, 492356, Note_on_c, 0, 58, 77
1, 492358, Note_on_c, 0, 70, 84
1, 492367, Note_off_c, 0, 69, 63
1, 492380, Note_off_c, 0, 58, 67
1, 492437, Note_off_c, 0, 70, 59
1, 492446, Control_c, 0, 64, 74
1, 492452, Note_on_c, 0, 57, 88
1, 492455, Note_on_c, 0, 69, 89
1, 492461, Control_c, 0, 64, 60
1, 492476, Control_c, 0, 64, 46
1, 492491, Control_c, 0, 64, 32
1, 492520, Control_c, 0, 64, 40
1, 492535, Control_c, 0, 64, 51
1, 492541, Note_on_c, 0, 70, 88
1, 492549, Note_on_c, 0, 58, 82
1, 492550, Control_c, 0, 64, 65
1, 492555, Note_off_c, 0, 69, 50
1, 492559, Note_off_c, 0, 57, 58
1, 492564, Control_c, 0, 64, 127
1, 492634, Note_off_c, 0, 58, 63
1, 492635, Note_on_c, 0, 60, 91
1, 492646, Note_on_c, 0, 72, 81
1, 492647, Note_off_c, 0, 70, 64
1, 492721, Note_off_c, 0, 60, 62
1, 492725, Note_on_c, 0, 73, 82
1, 492731, Note_on_c, 0, 61, 89
1, 492755, Note_off_c, 0, 72, 62
1, 492777, Note_off_c, 0, 61, 69
1, 492803, Note_off_c, 0, 73, 63
1, 492810, Control_c, 0, 64, 73
1, 492825, Control_c, 0, 64, 48
1, 492832, Note_on_c, 0, 60, 83
1, 492834, Note_on_c, 0, 72, 88
1, 492840, Control_c, 0, 64, 0
1, 492928, Note_on_c, 0, 61, 77
1, 492937, Note_off_c, 0, 60, 59
1, 492952, Note_on_c, 0, 74, 61
1, 492973, Note_off_c, 0, 72, 0
1, 492973, Note_on_c, 0, 72, 2
1, 492979, Note_off_c, 0, 72, 52
1, 493017, Note_off_c, 0, 61, 65
1, 493017, Control_c, 0, 64, 31
1, 493018, Note_on_c, 0, 63, 84
1, 493027, Note_on_c, 0, 75, 73
1, 493032, Note_off_c, 0, 74, 57
1, 493032, Control_c, 0, 64, 60
1, 493047, Control_c, 0, 64, 127
1, 493101, Note_on_c, 0, 64, 87
1, 493105, Note_on_c, 0, 76, 78
1, 493113, Note_off_c, 0, 63, 59
1, 493129, Note_off_c, 0, 75, 57
1, 493155, Note_off_c, 0, 76, 63
1, 493199, Note_on_c, 0, 75, 88
1, 493203, Note_on_c, 0, 63, 83
1, 493229, Note_off_c, 0, 64, 59
1, 493290, Note_off_c, 0, 75, 61
1, 493325, Note_on_c, 0, 76, 91
1, 493336, Note_on_c, 0, 64, 77
1, 493374, Note_off_c, 0, 76, 67
1, 493428, Note_off_c, 0, 63, 61
1, 493442, Note_on_c, 0, 78, 105
1, 493449, Note_on_c, 0, 66, 94
1, 493476, Note_off_c, 0, 64, 59
1, 493480, Note_off_c, 0, 78, 70
1, 493607, Note_on_c, 0, 79, 114
1, 493607, Note_on_c, 0, 67, 79
1, 493617, Note_off_c, 0, 66, 61
1, 493628, Note_off_c, 0, 67, 70
1, 493639, Note_off_c, 0, 79, 67
1, 493932, Note_on_c, 0, 51, 90
1, 493937, Note_on_c, 0, 39, 80
1, 493943, Control_c, 0, 64, 86
1, 493953, Note_on_c, 0, 82, 106
1, 493955, Note_on_c, 0, 70, 99
1, 493958, Control_c, 0, 64, 62
1, 493973, Control_c, 0, 64, 43
1, 493988, Control_c, 0, 64, 0
1, 494017, Control_c, 0, 64, 16
1, 494031, Control_c, 0, 64, 37
1, 494046, Control_c, 0, 64, 53
1, 494057, Note_off_c, 0, 39, 65
1, 494061, Control_c, 0, 64, 71
1, 494076, Control_c, 0, 64, 127
1, 494096, Note_off_c, 0, 51, 65
1, 494111, Note_off_c, 0, 70, 59
1, 494354, Note_on_c, 0, 75, 69
1, 494355, Note_on_c, 0, 65, 97
1, 494357, Note_on_c, 0, 73, 68
1, 494365, Note_on_c, 0, 53, 81
1, 494492, Note_off_c, 0, 73, 61
1, 494499, Note_off_c, 0, 65, 64
1, 494515, Note_off_c, 0, 53, 62
1, 494517, Note_off_c, 0, 75, 61
1, 494606, Note_on_c, 0, 63, 82
1, 494609, Note_on_c, 0, 51, 86
1, 494613, Note_on_c, 0, 75, 79
1, 494615, Note_on_c, 0, 73, 73
1, 494627, Note_off_c, 0, 63, 73
1, 494638, Note_off_c, 0, 51, 65
1, 494660, Note_off_c, 0, 73, 56
1, 494701, Note_off_c, 0, 75, 60
1, 494791, Note_on_c, 0, 53, 96
1, 494791, Note_on_c, 0, 73, 72
1, 494794, Note_on_c, 0, 75, 74
1, 494799, Note_on_c, 0, 41, 73
1, 494814, Note_off_c, 0, 53, 64
1, 494828, Note_off_c, 0, 41, 67
1, 494862, Note_off_c, 0, 73, 62
1, 494877, Note_off_c, 0, 75, 60
1, 494949, Note_on_c, 0, 75, 70
1, 494953, Note_on_c, 0, 55, 74
1, 494955, Note_on_c, 0, 73, 70
1, 494959, Note_on_c, 0, 43, 70
1, 494970, Note_off_c, 0, 55, 70
1, 494993, Note_off_c, 0, 73, 62
1, 494996, Note_off_c, 0, 43, 65
1, 495011, Note_off_c, 0, 75, 62
1, 495095, Note_on_c, 0, 73, 75
1, 495099, Note_on_c, 0, 51, 80
1, 495100, Note_on_c, 0, 39, 67
1, 495101, Note_on_c, 0, 75, 73
1, 495115, Note_off_c, 0, 73, 71
1, 495116, Note_off_c, 0, 51, 69
1, 495122, Note_off_c, 0, 39, 63
1, 495128, Note_off_c, 0, 75, 61
1, 495134, Note_off_c, 0, 82, 64
1, 495277, Control_c, 0, 64, 85
1, 495292, Control_c, 0, 64, 63
1, 495299, Note_on_c, 0, 84, 98
1, 495301, Note_on_c, 0, 72, 100
1, 495303, Note_on_c, 0, 75, 92
1, 495307, Note_on_c, 0, 56, 92
1, 495307, Control_c, 0, 64, 49
1, 495313, Note_on_c, 0, 44, 81
1, 495322, Control_c, 0, 64, 39
1, 495330, Note_on_c, 0, 82, 39
1, 495336, Control_c, 0, 64, 42
1, 495351, Note_on_c, 0, 46, 24
1, 495351, Control_c, 0, 64, 51
1, 495360, Note_off_c, 0, 56, 63
1, 495360, Note_off_c, 0, 82, 56
1, 495366, Control_c, 0, 64, 62
1, 495381, Control_c, 0, 64, 77
1, 495384, Note_off_c, 0, 44, 61
1, 495387, Note_off_c, 0, 46, 56
1, 495396, Control_c, 0, 64, 127
1, 495427, Note_off_c, 0, 72, 60
1, 495429, Note_off_c, 0, 75, 60
1, 495488, Note_on_c, 0, 48, 89
1, 495494, Note_on_c, 0, 36, 83
1, 495500, Note_on_c, 0, 80, 71
1, 495507, Note_on_c, 0, 72, 59
1, 495508, Note_on_c, 0, 75, 60
1, 495514, Note_off_c, 0, 48, 69
1, 495515, Note_off_c, 0, 36, 67
1, 495533, Note_off_c, 0, 72, 54
1, 495538, Note_off_c, 0, 75, 62
1, 495563, Note_off_c, 0, 80, 61
1, 495629, Note_on_c, 0, 72, 67
1, 495630, Note_on_c, 0, 80, 76
1, 495631, Note_off_c, 0, 84, 60
1, 495632, Note_on_c, 0, 49, 79
1, 495634, Note_on_c, 0, 75, 77
1, 495635, Note_on_c, 0, 37, 65
1, 495646, Note_off_c, 0, 72, 66
1, 495650, Note_off_c, 0, 49, 69
1, 495655, Note_off_c, 0, 37, 64
1, 495671, Note_off_c, 0, 75, 60
1, 495672, Note_off_c, 0, 80, 59
1, 495759, Control_c, 0, 64, 93
1, 495774, Control_c, 0, 64, 64
1, 495785, Note_on_c, 0, 70, 100
1, 495787, Note_on_c, 0, 51, 91
1, 495787, Note_on_c, 0, 82, 93
1, 495788, Note_on_c, 0, 75, 86
1, 495788, Control_c, 0, 64, 47
1, 495789, Note_on_c, 0, 80, 84
1, 495792, Note_on_c, 0, 39, 80
1, 495803, Control_c, 0, 64, 23
1, 495818, Control_c, 0, 64, 18
1, 495828, Note_off_c, 0, 51, 59
1, 495833, Control_c, 0, 64, 27
1, 495845, Note_off_c, 0, 70, 58
1, 495848, Control_c, 0, 64, 42
1, 495856, Note_off_c, 0, 75, 60
1, 495860, Note_off_c, 0, 39, 60
1, 495862, Control_c, 0, 64, 57
1, 495866, Note_off_c, 0, 80, 61
1, 495877, Control_c, 0, 64, 75
1, 495892, Control_c, 0, 64, 127
1, 495934, Note_on_c, 0, 50, 77
1, 495937, Note_on_c, 0, 38, 74
1, 495942, Note_on_c, 0, 70, 64
1, 495956, Note_off_c, 0, 70, 70
1, 495957, Note_on_c, 0, 80, 44
1, 495958, Note_off_c, 0, 50, 67
1, 495962, Note_on_c, 0, 75, 40
1, 495969, Note_off_c, 0, 38, 63
1, 495983, Note_off_c, 0, 80, 55
1, 495988, Note_off_c, 0, 75, 51
1, 496040, Note_on_c, 0, 70, 51
1, 496054, Note_on_c, 0, 80, 67
1, 496057, Note_on_c, 0, 49, 72
1, 496061, Note_on_c, 0, 39, 62
1, 496076, Note_off_c, 0, 49, 65
1, 496078, Note_on_c, 0, 75, 35
1, 496091, Note_off_c, 0, 39, 52
1, 496102, Note_off_c, 0, 70, 62
1, 496108, Note_off_c, 0, 75, 47
1, 496129, Control_c, 0, 64, 90
1, 496132, Note_off_c, 0, 80, 59
1, 496144, Control_c, 0, 64, 65
1, 496159, Control_c, 0, 64, 52
1, 496174, Control_c, 0, 64, 38
1, 496178, Note_on_c, 0, 80, 53
1, 496188, Note_on_c, 0, 52, 85
1, 496189, Note_on_c, 0, 40, 78
1, 496189, Control_c, 0, 64, 37
1, 496198, Note_on_c, 0, 70, 67
1, 496199, Note_on_c, 0, 73, 67
1, 496204, Control_c, 0, 64, 47
1, 496207, Note_off_c, 0, 52, 73
1, 496213, Note_on_c, 0, 79, 59
1, 496213, Note_off_c, 0, 70, 66
1, 496218, Note_off_c, 0, 40, 65
1, 496219, Control_c, 0, 64, 61
1, 496226, Note_off_c, 0, 80, 39
1, 496234, Control_c, 0, 64, 83
1, 496249, Control_c, 0, 64, 127
1, 496254, Note_off_c, 0, 73, 61
1, 496258, Note_off_c, 0, 79, 60
1, 496307, Note_on_c, 0, 70, 72
1, 496310, Note_on_c, 0, 51, 77
1, 496315, Note_on_c, 0, 39, 73
1, 496320, Note_off_c, 0, 82, 54
1, 496332, Note_off_c, 0, 51, 72
1, 496344, Note_off_c, 0, 39, 66
1, 496359, Note_off_c, 0, 70, 62
1, 496434, Note_on_c, 0, 79, 86
1, 496436, Note_on_c, 0, 52, 100
1, 496436, Note_on_c, 0, 72, 95
1, 496436, Note_on_c, 0, 84, 95
1, 496440, Note_on_c, 0, 40, 83
1, 496456, Note_off_c, 0, 52, 72
1, 496471, Note_off_c, 0, 40, 63
1, 496521, Note_off_c, 0, 72, 61
1, 496524, Note_off_c, 0, 79, 59
1, 496541, Note_off_c, 0, 84, 63
1, 496552, Control_c, 0, 64, 68
1, 496567, Control_c, 0, 64, 52
1, 496582, Control_c, 0, 64, 27
1, 496588, Note_on_c, 0, 53, 91
1, 496589, Note_on_c, 0, 80, 90
1, 496592, Note_on_c, 0, 41, 80
1, 496594, Note_on_c, 0, 77, 86
1, 496597, Note_on_c, 0, 72, 86
1, 496597, Control_c, 0, 64, 15
1, 496606, Note_off_c, 0, 53, 73
1, 496611, Control_c, 0, 64, 27
1, 496617, Note_off_c, 0, 41, 68
1, 496626, Control_c, 0, 64, 41
1, 496641, Control_c, 0, 64, 55
1, 496642, Note_off_c, 0, 72, 62
1, 496656, Control_c, 0, 64, 72
1, 496670, Control_c, 0, 64, 127
1, 496671, Note_off_c, 0, 77, 60
1, 496723, Note_on_c, 0, 51, 87
1, 496729, Note_on_c, 0, 72, 72
1, 496731, Note_on_c, 0, 39, 78
1, 496746, Note_off_c, 0, 72, 64
1, 496748, Note_off_c, 0, 51, 66
1, 496771, Note_off_c, 0, 80, 63
1, 496804, Note_off_c, 0, 39, 61
1, 496877, Note_on_c, 0, 89, 98
1, 496878, Note_on_c, 0, 77, 108
1, 496881, Note_on_c, 0, 50, 68
1, 496891, Note_off_c, 0, 89, 76
1, 496893, Note_off_c, 0, 77, 72
1, 496894, Note_on_c, 0, 38, 63
1, 496895, Note_on_c, 0, 48, 63
1, 496915, Note_on_c, 0, 87, 26
1, 496916, Note_off_c, 0, 87, 127
1, 496923, Note_off_c, 0, 38, 61
1, 496924, Note_off_c, 0, 48, 53
1, 496928, Note_off_c, 0, 50, 54
1, 497012, Control_c, 0, 64, 76
1, 497027, Control_c, 0, 64, 57
1, 497041, Control_c, 0, 64, 35
1, 497047, Note_on_c, 0, 70, 102
1, 497047, Note_on_c, 0, 82, 91
1, 497048, Note_on_c, 0, 80, 89
1, 497055, Note_on_c, 0, 49, 86
1, 497056, Note_on_c, 0, 77, 78
1, 497056, Control_c, 0, 64, 24
1, 497059, Note_on_c, 0, 37, 64
1, 497071, Control_c, 0, 64, 38
1, 497077, Note_off_c, 0, 49, 71
1, 497083, Note_off_c, 0, 37, 38
1, 497084, Note_off_c, 0, 77, 0
1, 497086, Control_c, 0, 64, 54
1, 497101, Control_c, 0, 64, 70
1, 497101, Note_off_c, 0, 70, 56
1, 497116, Control_c, 0, 64, 127
1, 497117, Note_on_c, 0, 77, 45
1, 497132, Note_off_c, 0, 80, 62
1, 497187, Note_off_c, 0, 77, 0
1, 497192, Note_on_c, 0, 70, 84
1, 497199, Note_on_c, 0, 80, 77
1, 497202, Note_on_c, 0, 61, 99
1, 497205, Note_on_c, 0, 77, 41
1, 497208, Note_on_c, 0, 49, 78
1, 497213, Note_off_c, 0, 70, 69
1, 497217, Note_off_c, 0, 82, 62
1, 497223, Note_off_c, 0, 61, 68
1, 497234, Note_off_c, 0, 49, 72
1, 497242, Note_off_c, 0, 80, 61
1, 497244, Note_off_c, 0, 77, 49
1, 497284, Poly_aftertouch_c, 0, 51, 127
1, 497321, Poly_aftertouch_c, 0, 51, 0
1, 497357, Note_on_c, 0, 84, 96
1, 497363, Note_on_c, 0, 60, 93
1, 497369, Note_on_c, 0, 48, 77
1, 497378, Note_off_c, 0, 60, 76
1, 497388, Note_off_c, 0, 48, 69
1, 497488, Note_off_c, 0, 84, 57
1, 497508, Control_c, 0, 64, 98
1, 497523, Control_c, 0, 64, 66
1, 497538, Control_c, 0, 64, 54
1, 497554, Control_c, 0, 64, 45
1, 497560, Note_on_c, 0, 58, 91
1, 497561, Note_on_c, 0, 87, 100
1, 497565, Note_on_c, 0, 77, 97
1, 497566, Note_on_c, 0, 46, 84
1, 497569, Control_c, 0, 64, 51
1, 497575, Note_on_c, 0, 80, 85
1, 497578, Note_off_c, 0, 58, 70
1, 497583, Control_c, 0, 64, 62
1, 497598, Control_c, 0, 64, 84
1, 497608, Note_off_c, 0, 46, 61
1, 497613, Control_c, 0, 64, 127
1, 497644, Note_off_c, 0, 77, 61
1, 497653, Note_off_c, 0, 87, 63
1, 497659, Note_on_c, 0, 58, 8
1, 497667, Note_off_c, 0, 80, 64
1, 497699, Note_off_c, 0, 58, 30
1, 497726, Note_on_c, 0, 46, 89
1, 497726, Note_on_c, 0, 85, 84
1, 497732, Note_on_c, 0, 34, 79
1, 497738, Note_on_c, 0, 80, 77
1, 497746, Note_off_c, 0, 46, 73
1, 497762, Note_on_c, 0, 75, 35
1, 497763, Note_off_c, 0, 34, 67
1, 497777, Note_off_c, 0, 85, 67
1, 497790, Note_off_c, 0, 75, 55
1, 497807, Note_off_c, 0, 80, 60
1, 497861, Note_on_c, 0, 84, 87
1, 497861, Note_on_c, 0, 48, 94
1, 497866, Note_on_c, 0, 36, 77
1, 497882, Note_off_c, 0, 48, 71
1, 497896, Note_off_c, 0, 36, 66
1, 497897, Note_off_c, 0, 84, 62
1, 497909, Note_on_c, 0, 85, 7
1, 497910, Note_off_c, 0, 85, 127
1, 497953, Poly_aftertouch_c, 0, 38, 127
1, 497954, Control_c, 0, 64, 81
1, 497969, Control_c, 0, 64, 58
1, 497990, Control_c, 0, 64, 32
1, 497995, Poly_aftertouch_c, 0, 38, 0
1, 498005, Control_c, 0, 64, 0
1, 498006, Note_on_c, 0, 82, 105
1, 498007, Note_on_c, 0, 49, 97
1, 498010, Note_on_c, 0, 70, 100
1, 498012, Note_on_c, 0, 37, 75
1, 498026, Note_off_c, 0, 49, 73
1, 498031, Note_on_c, 0, 78, 57
1, 498035, Control_c, 0, 64, 26
1, 498043, Note_off_c, 0, 37, 64
1, 498050, Control_c, 0, 64, 45
1, 498053, Note_off_c, 0, 78, 62
1, 498064, Control_c, 0, 64, 60
1, 498070, Note_off_c, 0, 70, 54
1, 498079, Control_c, 0, 64, 88
1, 498094, Control_c, 0, 64, 127
1, 498155, Note_on_c, 0, 53, 101
1, 498160, Note_on_c, 0, 41, 81
1, 498161, Note_on_c, 0, 70, 76
1, 498172, Note_off_c, 0, 82, 62
1, 498177, Note_off_c, 0, 53, 71
1, 498178, Note_off_c, 0, 70, 73
1, 498185, Note_off_c, 0, 41, 68
1, 498312, Note_on_c, 0, 73, 105
1, 498315, Note_on_c, 0, 51, 92
1, 498319, Note_on_c, 0, 84, 75
1, 498320, Note_on_c, 0, 39, 82
1, 498333, Note_off_c, 0, 84, 69
1, 498335, Note_off_c, 0, 51, 72
1, 498335, Note_off_c, 0, 73, 63
1, 498349, Note_off_c, 0, 39, 69
1, 498359, Note_on_c, 0, 72, 29
1, 498392, Note_off_c, 0, 72, 55
1, 498540, Control_c, 0, 64, 68
1, 498550, Note_on_c, 0, 80, 102
1, 498552, Note_on_c, 0, 68, 103
1, 498553, Note_on_c, 0, 44, 87
1, 498555, Control_c, 0, 64, 48
1, 498558, Note_on_c, 0, 72, 80
1, 498559, Note_on_c, 0, 32, 82
1, 498570, Control_c, 0, 64, 0
1, 498644, Control_c, 0, 64, 25
1, 498659, Control_c, 0, 64, 42
1, 498661, Note_off_c, 0, 80, 65
1, 498673, Control_c, 0, 64, 58
1, 498683, Note_off_c, 0, 32, 62
1, 498688, Control_c, 0, 64, 81
1, 498689, Note_off_c, 0, 68, 55
1, 498690, Note_off_c, 0, 44, 60
1, 498703, Control_c, 0, 64, 127
1, 498830, Note_on_c, 0, 45, 54
1, 498833, Note_on_c, 0, 33, 54
1, 498838, Note_on_c, 0, 75, 66
1, 498842, Note_on_c, 0, 66, 67
1, 498854, Note_off_c, 0, 72, 51
1, 498857, Note_off_c, 0, 45, 59
1, 498866, Note_off_c, 0, 33, 55
1, 498886, Note_off_c, 0, 66, 59
1, 498912, Note_off_c, 0, 75, 61
1, 498975, Note_on_c, 0, 34, 64
1, 498978, Note_on_c, 0, 74, 68
1, 498979, Note_on_c, 0, 65, 59
1, 498984, Note_on_c, 0, 46, 54
1, 499000, Note_off_c, 0, 65, 66
1, 499004, Note_off_c, 0, 34, 66
1, 499012, Note_off_c, 0, 46, 57
1, 499055, Poly_aftertouch_c, 0, 72, 127
1, 499062, Note_off_c, 0, 74, 63
1, 499096, Poly_aftertouch_c, 0, 72, 0
1, 499100, Note_on_c, 0, 47, 69
1, 499102, Note_on_c, 0, 35, 57
1, 499102, Note_on_c, 0, 77, 78
1, 499112, Note_on_c, 0, 68, 70
1, 499125, Note_off_c, 0, 47, 66
1, 499130, Note_off_c, 0, 35, 57
1, 499143, Note_off_c, 0, 68, 63
1, 499150, Note_off_c, 0, 77, 55
1, 499223, Note_on_c, 0, 36, 70
1, 499223, Note_on_c, 0, 76, 80
1, 499224, Note_on_c, 0, 48, 69
1, 499236, Note_on_c, 0, 67, 53
1, 499244, Note_off_c, 0, 48, 65
1, 499246, Note_off_c, 0, 36, 61
1, 499260, Note_off_c, 0, 67, 60
1, 499280, Note_off_c, 0, 76, 59
1, 499349, Note_on_c, 0, 79, 88
1, 499355, Note_on_c, 0, 70, 78
1, 499356, Note_on_c, 0, 49, 82
1, 499357, Note_on_c, 0, 37, 77
1, 499379, Note_off_c, 0, 37, 67
1, 499379, Note_off_c, 0, 49, 70
1, 499406, Note_off_c, 0, 70, 58
1, 499459, Note_off_c, 0, 79, 0
1, 499485, Note_on_c, 0, 79, 47
1, 499490, Note_on_c, 0, 78, 90
1, 499491, Note_on_c, 0, 50, 89
1, 499492, Note_on_c, 0, 38, 81
1, 499493, Note_on_c, 0, 69, 81
1, 499512, Note_off_c, 0, 50, 72
1, 499513, Note_off_c, 0, 38, 62
1, 499518, Note_off_c, 0, 79, 61
1, 499544, Note_off_c, 0, 69, 59
1, 499601, Note_off_c, 0, 78, 63
1, 499642, Note_on_c, 0, 69, 100
1, 499643, Note_on_c, 0, 51, 101
1, 499644, Note_on_c, 0, 81, 100
1, 499644, Note_on_c, 0, 77, 86
1, 499647, Note_on_c, 0, 39, 92
1, 499665, Note_off_c, 0, 51, 70
1, 499672, Note_off_c, 0, 39, 69
1, 499727, Note_off_c, 0, 69, 62
1, 499738, Note_off_c, 0, 81, 60
1, 499749, Note_off_c, 0, 77, 61
1, 499805, Note_on_c, 0, 52, 106
1, 499809, Note_on_c, 0, 40, 87
1, 499811, Note_on_c, 0, 75, 91
1, 499811, Note_on_c, 0, 81, 86
1, 499812, Note_on_c, 0, 69, 84
1, 499823, Note_on_c, 0, 72, 70
1, 499831, Note_off_c, 0, 69, 73
1, 499835, Note_off_c, 0, 40, 65
1, 499841, Note_off_c, 0, 72, 67
1, 499844, Note_off_c, 0, 52, 62
1, 499849, Note_off_c, 0, 81, 64
1, 499855, Note_off_c, 0, 75, 59
1, 500019, Note_on_c, 0, 53, 91
1, 500033, Note_on_c, 0, 41, 64
1, 500067, Control_c, 0, 64, 76
1, 500082, Control_c, 0, 64, 57
1, 500086, Note_on_c, 0, 84, 97
1, 500087, Note_on_c, 0, 72, 96
1, 500087, Note_on_c, 0, 81, 93
1, 500089, Note_on_c, 0, 75, 93
1, 500096, Control_c, 0, 64, 28
1, 500111, Control_c, 0, 64, 0
1, 500160, Note_off_c, 0, 41, 64
1, 500170, Control_c, 0, 64, 30
1, 500185, Control_c, 0, 64, 46
1, 500200, Control_c, 0, 64, 61
1, 500215, Control_c, 0, 64, 85
1, 500216, Note_off_c, 0, 53, 65
1, 500237, Control_c, 0, 64, 127
1, 500249, Poly_aftertouch_c, 0, 48, 127
1, 500285, Poly_aftertouch_c, 0, 48, 0
1, 500344, Note_off_c, 0, 72, 59
1, 500347, Note_off_c, 0, 75, 59
1, 500353, Note_off_c, 0, 81, 56
1, 500434, Note_on_c, 0, 66, 94
1, 500434, Note_on_c, 0, 72, 80
1, 500437, Note_on_c, 0, 81, 75
1, 500441, Note_on_c, 0, 75, 72
1, 500442, Note_on_c, 0, 54, 82
1, 500526, Note_off_c, 0, 66, 59
1, 500526, Note_off_c, 0, 54, 62
1, 500547, Note_off_c, 0, 72, 61
1, 500558, Note_off_c, 0, 75, 61
1, 500577, Note_off_c, 0, 81, 61
1, 500633, Note_on_c, 0, 53, 83
1, 500634, Note_on_c, 0, 65, 76
1, 500639, Note_on_c, 0, 81, 69
1, 500647, Note_on_c, 0, 75, 69
1, 500651, Note_off_c, 0, 65, 71
1, 500652, Note_on_c, 0, 72, 56
1, 500663, Note_off_c, 0, 53, 68
1, 500671, Note_off_c, 0, 72, 64
1, 500688, Note_off_c, 0, 75, 62
1, 500788, Note_on_c, 0, 77, 75
1, 500790, Note_on_c, 0, 55, 88
1, 500794, Note_on_c, 0, 75, 73
1, 500797, Note_on_c, 0, 43, 70
1, 500809, Note_off_c, 0, 55, 73
1, 500821, Note_off_c, 0, 43, 62
1, 500839, Note_off_c, 0, 75, 57
1, 500861, Note_off_c, 0, 77, 60
1, 500921, Note_on_c, 0, 57, 70
1, 500929, Note_on_c, 0, 45, 66
1, 500933, Note_on_c, 0, 75, 72
1, 500938, Note_on_c, 0, 77, 60
1, 500941, Note_off_c, 0, 57, 66
1, 500958, Note_off_c, 0, 45, 65
1, 500962, Note_off_c, 0, 75, 59
1, 501009, Note_off_c, 0, 77, 61
1, 501043, Note_off_c, 0, 81, 48
1, 501065, Note_on_c, 0, 75, 81
1, 501067, Note_on_c, 0, 53, 89
1, 501073, Note_on_c, 0, 77, 64
1, 501075, Note_on_c, 0, 41, 63
1, 501077, Note_off_c, 0, 84, 60
1, 501087, Note_off_c, 0, 53, 72
1, 501101, Note_off_c, 0, 41, 60
1, 501110, Note_off_c, 0, 75, 60
1, 501208, Control_c, 0, 64, 70
1, 501218, Note_off_c, 0, 77, 0
1, 501223, Control_c, 0, 64, 54
1, 501231, Note_on_c, 0, 77, 65
1, 501238, Note_on_c, 0, 73, 103
1, 501238, Control_c, 0, 64, 32
1, 501239, Note_on_c, 0, 85, 95
1, 501240, Note_on_c, 0, 82, 85
1, 501242, Note_on_c, 0, 58, 96
1, 501246, Note_on_c, 0, 46, 88
1, 501252, Control_c, 0, 64, 23
1, 501262, Note_off_c, 0, 58, 66
1, 501262, Note_on_c, 0, 49, 56
1, 501263, Note_off_c, 0, 49, 127
1, 501267, Control_c, 0, 64, 30
1, 501282, Control_c, 0, 64, 40
1, 501297, Control_c, 0, 64, 55
1, 501299, Note_off_c, 0, 46, 64
1, 501312, Control_c, 0, 64, 66
1, 501326, Control_c, 0, 64, 127
1, 501330, Note_off_c, 0, 73, 62
1, 501352, Note_off_c, 0, 77, 59
1, 501356, Note_off_c, 0, 82, 61
1, 501404, Note_on_c, 0, 77, 55
1, 501410, Note_on_c, 0, 49, 79
1, 501413, Note_on_c, 0, 73, 70
1, 501417, Note_on_c, 0, 37, 64
1, 501429, Note_off_c, 0, 73, 70
1, 501434, Note_off_c, 0, 49, 70
1, 501443, Note_off_c, 0, 37, 55
1, 501447, Note_off_c, 0, 77, 61
1, 501453, Poly_aftertouch_c, 0, 82, 127
1, 501494, Poly_aftertouch_c, 0, 82, 0
1, 501530, Note_on_c, 0, 73, 66
1, 501530, Note_on_c, 0, 82, 82
1, 501537, Note_on_c, 0, 51, 78
1, 501542, Note_on_c, 0, 39, 59
1, 501548, Note_off_c, 0, 85, 64
1, 501555, Note_off_c, 0, 73, 67
1, 501565, Note_off_c, 0, 51, 70
1, 501566, Note_off_c, 0, 39, 62
1, 501574, Note_on_c, 0, 78, 20
1, 501593, Note_off_c, 0, 82, 62
1, 501617, Note_off_c, 0, 78, 42
1, 501668, Control_c, 0, 64, 66
1, 501683, Note_on_c, 0, 82, 93
1, 501683, Control_c, 0, 64, 47
1, 501687, Note_on_c, 0, 72, 98
1, 501688, Note_on_c, 0, 52, 96
1, 501689, Note_on_c, 0, 84, 92
1, 501689, Note_on_c, 0, 79, 81
1, 501692, Note_on_c, 0, 40, 76
1, 501698, Control_c, 0, 64, 14
1, 501709, Note_off_c, 0, 52, 73
1, 501713, Control_c, 0, 64, 13
1, 501714, Note_off_c, 0, 40, 63
1, 501736, Control_c, 0, 64, 29
1, 501750, Control_c, 0, 64, 43
1, 501757, Note_off_c, 0, 72, 63
1, 501765, Control_c, 0, 64, 59
1, 501773, Note_off_c, 0, 79, 60
1, 501773, Note_off_c, 0, 82, 62
1, 501780, Control_c, 0, 64, 127
1, 501839, Note_on_c, 0, 79, 60
1, 501841, Note_on_c, 0, 72, 73
1, 501841, Note_on_c, 0, 51, 75
1, 501841, Note_on_c, 0, 82, 70
1, 501844, Note_on_c, 0, 39, 70
1, 501868, Note_off_c, 0, 72, 54
1, 501871, Note_off_c, 0, 51, 67
1, 501878, Note_off_c, 0, 39, 66
1, 501898, Note_off_c, 0, 79, 58
1, 501929, Note_off_c, 0, 82, 0
1, 501951, Note_on_c, 0, 40, 84
1, 501951, Note_on_c, 0, 52, 91
1, 501951, Note_on_c, 0, 82, 52
1, 501957, Note_on_c, 0, 72, 72
1, 501975, Note_off_c, 0, 52, 69
1, 501981, Note_off_c, 0, 40, 65
1, 501999, Note_off_c, 0, 72, 58
1, 502022, Note_off_c, 0, 82, 63
1, 502076, Note_on_c, 0, 53, 85
1, 502082, Note_on_c, 0, 81, 74
1, 502082, Note_on_c, 0, 41, 71
1, 502082, Note_on_c, 0, 72, 74
1, 502089, Note_on_c, 0, 75, 75
1, 502096, Note_off_c, 0, 53, 73
1, 502106, Note_off_c, 0, 41, 69
1, 502125, Note_off_c, 0, 72, 58
1, 502140, Note_off_c, 0, 75, 61
1, 502192, Note_off_c, 0, 81, 0
1, 502204, Note_on_c, 0, 81, 65
1, 502213, Note_on_c, 0, 40, 79
1, 502214, Note_on_c, 0, 52, 81
1, 502218, Note_on_c, 0, 72, 74
1, 502219, Note_off_c, 0, 84, 64
1, 502228, Note_on_c, 0, 75, 62
1, 502234, Note_off_c, 0, 52, 74
1, 502243, Note_off_c, 0, 40, 66
1, 502244, Note_off_c, 0, 72, 58
1, 502281, Note_off_c, 0, 75, 61
1, 502291, Note_off_c, 0, 81, 63
1, 502327, Poly_aftertouch_c, 0, 75, 0
1, 502333, Note_on_c, 0, 85, 91
1, 502334, Note_on_c, 0, 75, 75
1, 502339, Note_on_c, 0, 53, 91
1, 502343, Note_on_c, 0, 41, 73
1, 502343, Note_on_c, 0, 72, 67
1, 502345, Note_on_c, 0, 82, 75
1, 502359, Note_off_c, 0, 72, 68
1, 502360, Note_off_c, 0, 53, 73
1, 502362, Note_off_c, 0, 41, 66
1, 502368, Note_off_c, 0, 82, 69
1, 502370, Note_off_c, 0, 75, 62
1, 502372, Note_off_c, 0, 85, 69
1, 502448, Control_c, 0, 64, 111
1, 502463, Control_c, 0, 64, 65
1, 502485, Control_c, 0, 64, 45
1, 502497, Note_on_c, 0, 82, 84
1, 502498, Note_on_c, 0, 54, 98
1, 502500, Note_on_c, 0, 70, 90
1, 502500, Control_c, 0, 64, 0
1, 502501, Note_on_c, 0, 73, 88
1, 502508, Note_on_c, 0, 41, 49
1, 502529, Control_c, 0, 64, 21
1, 502532, Note_off_c, 0, 54, 65
1, 502538, Note_off_c, 0, 41, 66
1, 502544, Control_c, 0, 64, 38
1, 502556, Note_off_c, 0, 70, 59
1, 502559, Control_c, 0, 64, 54
1, 502561, Note_off_c, 0, 73, 62
1, 502574, Control_c, 0, 64, 79
1, 502589, Control_c, 0, 64, 127
1, 502631, Note_on_c, 0, 53, 96
1, 502632, Note_on_c, 0, 41, 72
1, 502634, Note_on_c, 0, 73, 80
1, 502652, Note_off_c, 0, 73, 72
1, 502657, Note_off_c, 0, 82, 64
1, 502668, Note_off_c, 0, 53, 61
1, 502694, Note_off_c, 0, 41, 54
1, 502711, Poly_aftertouch_c, 0, 43, 127
1, 502746, Poly_aftertouch_c, 0, 43, 0
1, 502794, Note_on_c, 0, 52, 84
1, 502798, Note_on_c, 0, 78, 108
1, 502798, Note_on_c, 0, 90, 103
1, 502807, Note_on_c, 0, 40, 67
1, 502821, Note_off_c, 0, 78, 66
1, 502825, Note_off_c, 0, 90, 67
1, 502865, Note_off_c, 0, 40, 59
1, 502892, Note_off_c, 0, 52, 65
1, 502959, Control_c, 0, 64, 66
1, 502973, Control_c, 0, 64, 50
1, 502982, Note_on_c, 0, 72, 99
1, 502985, Note_on_c, 0, 84, 99
1, 502985, Note_on_c, 0, 51, 93
1, 502985, Note_on_c, 0, 82, 88
1, 502987, Note_on_c, 0, 78, 93
1, 502988, Control_c, 0, 64, 32
1, 502991, Note_on_c, 0, 39, 71
1, 503003, Control_c, 0, 64, 35
1, 503006, Note_off_c, 0, 51, 72
1, 503013, Note_off_c, 0, 39, 60
1, 503018, Control_c, 0, 64, 49
1, 503021, Note_off_c, 0, 78, 0
1, 503033, Control_c, 0, 64, 64
1, 503037, Poly_aftertouch_c, 0, 45, 0
1, 503048, Control_c, 0, 64, 127
1, 503058, Poly_aftertouch_c, 0, 78, 127
1, 503065, Note_off_c, 0, 72, 63
1, 503108, Poly_aftertouch_c, 0, 78, 0
1, 503131, Note_off_c, 0, 82, 62
1, 503155, Note_on_c, 0, 63, 90
1, 503155, Note_on_c, 0, 72, 81
1, 503160, Note_on_c, 0, 51, 81
1, 503173, Note_off_c, 0, 63, 74
1, 503177, Note_on_c, 0, 82, 28
1, 503180, Note_off_c, 0, 84, 58
1, 503182, Note_off_c, 0, 51, 72
1, 503193, Note_off_c, 0, 72, 59
1, 503206, Note_on_c, 0, 78, 31
1, 503245, Note_off_c, 0, 78, 60
1, 503255, Note_off_c, 0, 82, 53
1, 503324, Note_on_c, 0, 78, 93
1, 503325, Note_on_c, 0, 85, 94
1, 503327, Note_on_c, 0, 61, 92
1, 503328, Note_on_c, 0, 73, 88
1, 503331, Note_on_c, 0, 49, 82
1, 503340, Note_off_c, 0, 73, 75
1, 503345, Note_off_c, 0, 78, 66
1, 503362, Note_off_c, 0, 85, 63
1, 503415, Note_off_c, 0, 49, 59
1, 503424, Note_off_c, 0, 61, 59
1, 503486, Control_c, 0, 64, 84
1, 503501, Control_c, 0, 64, 61
1, 503516, Control_c, 0, 64, 44
1, 503530, Control_c, 0, 64, 38
1, 503544, Note_on_c, 0, 89, 98
1, 503545, Control_c, 0, 64, 47
1, 503549, Note_on_c, 0, 78, 99
1, 503550, Note_on_c, 0, 82, 82
1, 503552, Note_on_c, 0, 60, 83
1, 503556, Note_on_c, 0, 48, 80
1, 503560, Control_c, 0, 64, 60
1, 503567, Note_off_c, 0, 82, 72
1, 503571, Note_off_c, 0, 60, 73
1, 503575, Control_c, 0, 64, 79
1, 503585, Note_on_c, 0, 87, 31
1, 503588, Note_off_c, 0, 89, 64
1, 503590, Control_c, 0, 64, 127
1, 503596, Note_off_c, 0, 48, 63
1, 503623, Note_off_c, 0, 87, 35
1, 503639, Note_off_c, 0, 78, 66
1, 503657, Poly_aftertouch_c, 0, 51, 0
1, 503689, Poly_aftertouch_c, 0, 82, 127
1, 503715, Poly_aftertouch_c, 0, 82, 0
1, 503734, Note_on_c, 0, 82, 49
1, 503734, Note_on_c, 0, 48, 93
1, 503735, Note_on_c, 0, 78, 91
1, 503735, Note_on_c, 0, 87, 84
1, 503743, Note_on_c, 0, 36, 76
1, 503754, Note_off_c, 0, 48, 74
1, 503769, Note_on_c, 0, 75, 26
1, 503770, Note_off_c, 0, 75, 127
1, 503774, Note_off_c, 0, 36, 65
1, 503784, Note_off_c, 0, 82, 53
1, 503793, Note_off_c, 0, 78, 69
1, 503794, Note_off_c, 0, 87, 64
1, 503805, Poly_aftertouch_c, 0, 75, 0
1, 503876, Note_on_c, 0, 85, 95
1, 503877, Note_on_c, 0, 77, 95
1, 503884, Note_on_c, 0, 49, 85
1, 503889, Note_on_c, 0, 82, 71
1, 503892, Note_on_c, 0, 37, 55
1, 503902, Note_off_c, 0, 77, 61
1, 503906, Note_off_c, 0, 49, 73
1, 503908, Note_off_c, 0, 82, 69
1, 503916, Note_off_c, 0, 85, 65
1, 503920, Note_off_c, 0, 37, 35
1, 503963, Poly_aftertouch_c, 0, 42, 127
1, 504005, Poly_aftertouch_c, 0, 42, 0
1, 504012, Control_c, 0, 64, 91
1, 504026, Control_c, 0, 64, 62
1, 504041, Control_c, 0, 64, 41
1, 504047, Note_on_c, 0, 72, 102
1, 504051, Note_on_c, 0, 78, 94
1, 504051, Note_on_c, 0, 84, 94
1, 504055, Note_on_c, 0, 82, 91
1, 504056, Control_c, 0, 64, 19
1, 504058, Note_on_c, 0, 51, 95
1, 504067, Note_on_c, 0, 39, 74
1, 504071, Control_c, 0, 64, 27
1, 504076, Note_off_c, 0, 51, 73
1, 504085, Control_c, 0, 64, 39
1, 504089, Note_off_c, 0, 39, 40
1, 504100, Control_c, 0, 64, 51
1, 504115, Control_c, 0, 64, 63
1, 504124, Note_off_c, 0, 72, 58
1, 504130, Control_c, 0, 64, 87
1, 504145, Control_c, 0, 64, 127
1, 504153, Poly_aftertouch_c, 0, 80, 0
1, 504160, Poly_aftertouch_c, 0, 74, 0
1, 504187, Note_off_c, 0, 82, 61
1, 504200, Note_off_c, 0, 84, 60
1, 504223, Note_off_c, 0, 78, 65
1, 504227, Note_on_c, 0, 72, 79
1, 504236, Note_on_c, 0, 52, 99
1, 504237, Note_on_c, 0, 40, 90
1, 504253, Note_off_c, 0, 52, 76
1, 504262, Note_off_c, 0, 40, 67
1, 504306, Note_off_c, 0, 72, 53
1, 504408, Note_on_c, 0, 81, 66
1, 504410, Note_on_c, 0, 85, 93
1, 504414, Note_on_c, 0, 53, 103
1, 504415, Note_on_c, 0, 72, 88
1, 504419, Note_on_c, 0, 41, 89
1, 504419, Note_on_c, 0, 75, 83
1, 504429, Note_off_c, 0, 53, 78
1, 504440, Note_off_c, 0, 41, 72
1, 504443, Note_off_c, 0, 81, 64
1, 504443, Note_off_c, 0, 72, 58
1, 504449, Note_off_c, 0, 85, 67
1, 504455, Note_on_c, 0, 46, 30
1, 504461, Note_on_c, 0, 74, 17
1, 504462, Note_off_c, 0, 74, 127
1, 504462, Note_off_c, 0, 75, 57
1, 504491, Note_off_c, 0, 46, 55
1, 504501, Poly_aftertouch_c, 0, 74, 0
1, 504663, Control_c, 0, 64, 71
1, 504678, Control_c, 0, 64, 49
1, 504693, Control_c, 0, 64, 0
1, 504707, Note_on_c, 0, 54, 100
1, 504708, Note_on_c, 0, 82, 91
1, 504710, Note_on_c, 0, 70, 98
1, 504711, Note_on_c, 0, 73, 94
1, 504714, Note_on_c, 0, 42, 88
1, 504750, Note_on_c, 0, 80, 45
1, 504751, Note_off_c, 0, 80, 127
1, 504774, Note_off_c, 0, 42, 43
1, 504786, Note_off_c, 0, 82, 67
1, 504790, Control_c, 0, 64, 38
1, 504801, Note_off_c, 0, 54, 63
1, 504805, Control_c, 0, 64, 58
1, 504808, Note_off_c, 0, 70, 59
1, 504820, Control_c, 0, 64, 94
1, 504823, Note_off_c, 0, 73, 65
1, 504835, Control_c, 0, 64, 127
1, 505096, Note_on_c, 0, 65, 74
1, 505102, Note_on_c, 0, 64, 86
1, 505111, Note_on_c, 0, 58, 69
1, 505112, Note_on_c, 0, 54, 71
1, 505141, Note_on_c, 0, 52, 42
1, 505160, Note_off_c, 0, 65, 58
1, 505171, Note_off_c, 0, 52, 59
1, 505187, Note_off_c, 0, 64, 58
1, 505204, Note_off_c, 0, 58, 61
1, 505207, Note_off_c, 0, 54, 62
1, 505229, Note_on_c, 0, 66, 66
1, 505260, Note_off_c, 0, 66, 63
1, 505304, Note_on_c, 0, 68, 54
1, 505329, Note_off_c, 0, 68, 57
1, 505345, Note_on_c, 0, 66, 67
1, 505370, Note_on_c, 0, 64, 86
1, 505375, Note_off_c, 0, 66, 63
1, 505376, Note_on_c, 0, 58, 75
1, 505381, Note_on_c, 0, 54, 74
1, 505395, Note_on_c, 0, 68, 69
1, 505398, Note_off_c, 0, 64, 60
1, 505400, Note_on_c, 0, 52, 42
1, 505418, Note_off_c, 0, 58, 59
1, 505422, Note_off_c, 0, 54, 63
1, 505427, Note_off_c, 0, 68, 60
1, 505433, Note_off_c, 0, 52, 55
1, 505443, Note_on_c, 0, 66, 74
1, 505489, Note_off_c, 0, 66, 49
1, 505535, Note_on_c, 0, 68, 43
1, 505566, Note_on_c, 0, 66, 70
1, 505573, Note_off_c, 0, 68, 51
1, 505599, Note_off_c, 0, 66, 63
1, 505603, Note_on_c, 0, 64, 85
1, 505605, Note_on_c, 0, 58, 75
1, 505608, Note_on_c, 0, 54, 77
1, 505621, Note_on_c, 0, 68, 55
1, 505621, Note_off_c, 0, 64, 69
1, 505627, Note_off_c, 0, 58, 67
1, 505638, Note_off_c, 0, 54, 59
1, 505660, Note_off_c, 0, 68, 62
1, 505671, Note_on_c, 0, 66, 72
1, 505701, Note_off_c, 0, 66, 57
1, 505731, Note_on_c, 0, 68, 63
1, 505789, Note_on_c, 0, 64, 81
1, 505790, Note_off_c, 0, 68, 60
1, 505792, Note_on_c, 0, 58, 70
1, 505795, Note_on_c, 0, 54, 67
1, 505806, Note_on_c, 0, 66, 49
1, 505806, Note_off_c, 0, 64, 68
1, 505819, Note_off_c, 0, 58, 66
1, 505820, Note_off_c, 0, 54, 70
1, 505828, Note_on_c, 0, 65, 67
1, 505834, Note_off_c, 0, 66, 55
1, 505877, Note_off_c, 0, 65, 62
1, 505903, Note_on_c, 0, 66, 65
1, 505923, Note_on_c, 0, 68, 67
1, 505931, Note_off_c, 0, 66, 65
1, 505968, Note_off_c, 0, 68, 61
1, 505974, Note_on_c, 0, 70, 54
1, 505982, Note_on_c, 0, 64, 80
1, 505984, Note_on_c, 0, 54, 80
1, 505986, Note_on_c, 0, 58, 75
1, 505997, Note_off_c, 0, 64, 69
1, 505997, Note_off_c, 0, 70, 58
1, 506008, Note_off_c, 0, 54, 67
1, 506009, Note_on_c, 0, 71, 74
1, 506011, Note_off_c, 0, 58, 67
1, 506031, Note_off_c, 0, 71, 67
1, 506075, Note_on_c, 0, 73, 74
1, 506115, Note_on_c, 0, 75, 78
1, 506122, Note_off_c, 0, 73, 67
1, 506151, Note_off_c, 0, 75, 61
1, 506177, Note_on_c, 0, 76, 83
1, 506203, Note_on_c, 0, 64, 102
1, 506217, Note_on_c, 0, 54, 87
1, 506217, Note_on_c, 0, 58, 89
1, 506246, Note_on_c, 0, 78, 84
1, 506247, Note_off_c, 0, 76, 63
1, 506251, Note_on_c, 0, 52, 43
1, 506289, Note_on_c, 0, 80, 71
1, 506309, Note_off_c, 0, 52, 39
1, 506319, Note_off_c, 0, 78, 68
1, 506329, Note_on_c, 0, 82, 72
1, 506336, Note_off_c, 0, 64, 59
1, 506337, Note_off_c, 0, 80, 65
1, 506354, Note_off_c, 0, 82, 70
1, 506354, Note_off_c, 0, 54, 62
1, 506354, Note_off_c, 0, 58, 61
1, 506387, Note_on_c, 0, 83, 85
1, 506440, Note_on_c, 0, 64, 103
1, 506446, Note_on_c, 0, 58, 91
1, 506453, Note_on_c, 0, 54, 81
1, 506453, Note_on_c, 0, 85, 82
1, 506455, Note_off_c, 0, 83, 64
1, 506476, Note_on_c, 0, 52, 50
1, 506507, Note_on_c, 0, 87, 77
1, 506509, Note_off_c, 0, 85, 67
1, 506527, Note_off_c, 0, 87, 71
1, 506556, Note_on_c, 0, 88, 90
1, 506571, Note_off_c, 0, 64, 63
1, 506576, Note_off_c, 0, 52, 59
1, 506592, Note_off_c, 0, 54, 61
1, 506598, Note_off_c, 0, 58, 58
1, 506625, Note_on_c, 0, 90, 84
1, 506628, Note_off_c, 0, 88, 58
1, 506662, Note_on_c, 0, 92, 70
1, 506674, Note_on_c, 0, 64, 90
1, 506677, Note_on_c, 0, 58, 87
1, 506681, Note_on_c, 0, 54, 83
1, 506694, Note_off_c, 0, 64, 69
1, 506709, Note_off_c, 0, 90, 69
1, 506721, Note_on_c, 0, 94, 58
1, 506724, Note_off_c, 0, 92, 67
1, 506742, Note_off_c, 0, 94, 60
1, 506744, Note_off_c, 0, 58, 59
1, 506754, Note_off_c, 0, 54, 62
1, 506767, Note_on_c, 0, 95, 80
1, 506800, Note_on_c, 0, 97, 92
1, 506814, Note_off_c, 0, 95, 67
1, 506836, Note_off_c, 0, 97, 66
1, 507050, Control_c, 0, 64, 79
1, 507063, Note_on_c, 0, 42, 96
1, 507064, Note_on_c, 0, 95, 90
1, 507065, Control_c, 0, 64, 52
1, 507066, Note_on_c, 0, 99, 106
1, 507066, Note_on_c, 0, 87, 104
1, 507071, Note_on_c, 0, 30, 86
1, 507079, Control_c, 0, 64, 0
1, 507124, Note_off_c, 0, 30, 61
1, 507124, Control_c, 0, 64, 21
1, 507140, Control_c, 0, 64, 40
1, 507155, Control_c, 0, 64, 58
1, 507159, Note_off_c, 0, 42, 61
1, 507169, Control_c, 0, 64, 91
1, 507184, Control_c, 0, 64, 127
1, 507186, Note_off_c, 0, 99, 64
1, 507188, Note_off_c, 0, 87, 66
1, 507202, Note_off_c, 0, 95, 65
1, 507403, Note_on_c, 0, 51, 76
1, 507409, Note_on_c, 0, 59, 63
1, 507411, Note_on_c, 0, 94, 86
1, 507413, Note_on_c, 0, 54, 71
1, 507415, Note_on_c, 0, 85, 73
1, 507415, Note_on_c, 0, 96, 81
1, 507427, Note_on_c, 0, 84, 71
1, 507430, Note_off_c, 0, 85, 69
1, 507430, Note_off_c, 0, 94, 71
1, 507434, Note_off_c, 0, 96, 70
1, 507442, Note_off_c, 0, 84, 69
1, 507516, Note_on_c, 0, 95, 61
1, 507518, Note_on_c, 0, 83, 60
1, 507519, Note_on_c, 0, 84, 49
1, 507531, Note_off_c, 0, 54, 62
1, 507534, Note_off_c, 0, 83, 69
1, 507536, Note_off_c, 0, 59, 32
1, 507537, Note_off_c, 0, 95, 62
1, 507543, Note_off_c, 0, 84, 58
1, 507545, Note_on_c, 0, 96, 20
1, 507546, Note_off_c, 0, 96, 127
1, 507597, Note_on_c, 0, 82, 99
1, 507600, Note_on_c, 0, 63, 88
1, 507602, Note_on_c, 0, 59, 67
1, 507603, Note_on_c, 0, 94, 80
1, 507606, Poly_aftertouch_c, 0, 90, 0
1, 507612, Note_on_c, 0, 54, 61
1, 507613, Note_off_c, 0, 82, 71
1, 507617, Note_off_c, 0, 94, 70
1, 507634, Note_off_c, 0, 63, 57
1, 507659, Note_off_c, 0, 51, 62
1, 507693, Note_on_c, 0, 80, 85
1, 507702, Note_on_c, 0, 92, 66
1, 507703, Note_off_c, 0, 59, 60
1, 507716, Note_off_c, 0, 54, 63
1, 507721, Note_off_c, 0, 80, 71
1, 507728, Note_off_c, 0, 92, 66
1, 507775, Note_on_c, 0, 59, 74
1, 507776, Note_on_c, 0, 90, 108
1, 507777, Note_on_c, 0, 54, 79
1, 507777, Note_on_c, 0, 66, 89
1, 507777, Note_on_c, 0, 78, 102
1, 507801, Note_off_c, 0, 66, 61
1, 507807, Note_off_c, 0, 78, 68
1, 507813, Note_off_c, 0, 90, 69
1, 507814, Note_on_c, 0, 56, 24
1, 507853, Note_off_c, 0, 56, 45
1, 507903, Note_off_c, 0, 54, 59
1, 507910, Note_off_c, 0, 59, 55
1, 508005, Note_on_c, 0, 63, 70
1, 508010, Note_on_c, 0, 54, 69
1, 508011, Note_on_c, 0, 59, 52
1, 508041, Note_on_c, 0, 78, 99
1, 508047, Note_on_c, 0, 75, 96
1, 508107, Note_off_c, 0, 63, 64
1, 508171, Note_off_c, 0, 54, 59
1, 508172, Note_off_c, 0, 59, 56
1, 508175, Note_off_c, 0, 75, 58
1, 508204, Note_off_c, 0, 78, 65
1, 508253, Note_on_c, 0, 77, 102
1, 508259, Note_on_c, 0, 74, 81
1, 508262, Note_on_c, 0, 54, 76
1, 508263, Note_on_c, 0, 51, 66
1, 508265, Note_on_c, 0, 59, 44
1, 508266, Note_on_c, 0, 78, 47
1, 508286, Note_off_c, 0, 54, 67
1, 508288, Note_off_c, 0, 51, 66
1, 508290, Note_off_c, 0, 74, 62
1, 508292, Note_off_c, 0, 78, 49
1, 508297, Note_off_c, 0, 59, 58
1, 508341, Note_off_c, 0, 77, 56
1, 508497, Note_on_c, 0, 76, 81
1, 508499, Note_on_c, 0, 73, 79
1, 508501, Note_on_c, 0, 42, 106
1, 508503, Control_c, 0, 64, 62
1, 508508, Note_on_c, 0, 30, 91
1, 508518, Control_c, 0, 64, 0
1, 508530, Note_off_c, 0, 30, 66
1, 508542, Note_off_c, 0, 42, 58
1, 508543, Note_off_c, 0, 76, 66
1, 508544, Note_on_c, 0, 78, 81
1, 508563, Control_c, 0, 64, 13
1, 508578, Control_c, 0, 64, 41
1, 508592, Control_c, 0, 64, 62
1, 508601, Note_off_c, 0, 73, 0
1, 508607, Control_c, 0, 64, 127
1, 508607, Note_off_c, 0, 78, 66
1, 508618, Note_on_c, 0, 76, 64
1, 508624, Note_on_c, 0, 73, 32
1, 508637, Poly_aftertouch_c, 0, 78, 0
1, 508646, Note_on_c, 0, 78, 66
1, 508648, Note_off_c, 0, 76, 60
1, 508709, Note_off_c, 0, 78, 65
1, 508711, Note_off_c, 0, 73, 0
1, 508727, Note_on_c, 0, 76, 60
1, 508732, Note_on_c, 0, 73, 29
1, 508742, Note_on_c, 0, 58, 82
1, 508750, Note_on_c, 0, 49, 69
1, 508753, Note_off_c, 0, 76, 59
1, 508755, Note_on_c, 0, 54, 61
1, 508762, Note_on_c, 0, 78, 60
1, 508782, Note_off_c, 0, 49, 65
1, 508782, Note_off_c, 0, 54, 61
1, 508793, Note_off_c, 0, 58, 0
1, 508810, Note_off_c, 0, 73, 0
1, 508822, Note_on_c, 0, 76, 85
1, 508830, Poly_aftertouch_c, 0, 58, 127
1, 508831, Note_on_c, 0, 73, 26
1, 508858, Poly_aftertouch_c, 0, 58, 0
1, 508878, Note_off_c, 0, 73, 50
1, 508879, Note_off_c, 0, 78, 0
1, 508891, Note_off_c, 0, 76, 63
1, 508934, Note_on_c, 0, 64, 68
1, 508935, Note_on_c, 0, 54, 72
1, 508938, Note_on_c, 0, 58, 58
1, 508939, Note_off_c, 0, 58, 127
1, 508939, Poly_aftertouch_c, 0, 78, 0
1, 508947, Note_on_c, 0, 56, 45
1, 508950, Note_off_c, 0, 64, 67
1, 508958, Note_off_c, 0, 54, 68
1, 508976, Note_off_c, 0, 56, 61
1, 509008, Note_on_c, 0, 72, 79
1, 509016, Note_on_c, 0, 75, 75
1, 509074, Note_on_c, 0, 76, 73
1, 509084, Note_on_c, 0, 73, 79
1, 509091, Note_off_c, 0, 75, 61
1, 509093, Note_off_c, 0, 72, 60
1, 509117, Note_off_c, 0, 76, 67
1, 509130, Note_off_c, 0, 73, 62
1, 509141, Control_c, 0, 64, 96
1, 509156, Control_c, 0, 64, 56
1, 509159, Note_on_c, 0, 74, 96
1, 509167, Note_on_c, 0, 43, 96
1, 509171, Note_on_c, 0, 71, 74
1, 509171, Control_c, 0, 64, 0
1, 509176, Note_on_c, 0, 31, 89
1, 509191, Note_off_c, 0, 71, 72
1, 509215, Note_off_c, 0, 74, 69
1, 509223, Control_c, 0, 64, 17
1, 509238, Control_c, 0, 64, 42
1, 509253, Control_c, 0, 64, 64
1, 509267, Control_c, 0, 64, 127
1, 509276, Poly_aftertouch_c, 0, 34, 0
1, 509286, Note_off_c, 0, 31, 63
1, 509320, Note_off_c, 0, 43, 61
1, 509456, Note_on_c, 0, 83, 96
1, 509456, Note_on_c, 0, 95, 93
1, 509460, Note_on_c, 0, 91, 90
1, 509466, Note_off_c, 0, 95, 71
1, 509538, Note_off_c, 0, 91, 59
1, 509542, Note_off_c, 0, 83, 62
1, 509595, Poly_aftertouch_c, 0, 95, 0
1, 509629, Note_on_c, 0, 81, 100
1, 509633, Note_on_c, 0, 93, 81
1, 509634, Note_on_c, 0, 50, 79
1, 509634, Note_on_c, 0, 59, 84
1, 509636, Note_on_c, 0, 55, 80
1, 509636, Note_on_c, 0, 90, 75
1, 509646, Note_off_c, 0, 81, 69
1, 509648, Note_on_c, 0, 89, 58
1, 509652, Note_off_c, 0, 93, 66
1, 509660, Note_off_c, 0, 90, 70
1, 509672, Note_off_c, 0, 89, 62
1, 509729, Note_on_c, 0, 91, 84
1, 509731, Note_on_c, 0, 79, 89
1, 509737, Note_off_c, 0, 50, 59
1, 509740, Note_on_c, 0, 88, 78
1, 509749, Note_off_c, 0, 79, 71
1, 509749, Note_off_c, 0, 91, 68
1, 509760, Note_on_c, 0, 86, 59
1, 509761, Note_off_c, 0, 55, 64
1, 509764, Note_off_c, 0, 88, 65
1, 509767, Note_off_c, 0, 59, 60
1, 509769, Note_on_c, 0, 87, 20
1, 509770, Note_off_c, 0, 87, 127
1, 509781, Note_off_c, 0, 86, 61
1, 509816, Note_on_c, 0, 87, 49
1, 509819, Note_on_c, 0, 78, 104
1, 509822, Note_on_c, 0, 90, 83
1, 509832, Note_on_c, 0, 62, 80
1, 509835, Note_off_c, 0, 78, 76
1, 509843, Note_off_c, 0, 90, 73
1, 509851, Note_off_c, 0, 87, 66
1, 509853, Note_on_c, 0, 55, 59
1, 509855, Note_off_c, 0, 62, 67
1, 509866, Note_on_c, 0, 59, 17
1, 509904, Note_on_c, 0, 76, 98
1, 509913, Note_on_c, 0, 84, 82
1, 509916, Note_on_c, 0, 88, 64
1, 509922, Note_off_c, 0, 55, 61
1, 509923, Note_off_c, 0, 76, 70
1, 509932, Note_off_c, 0, 84, 71
1, 509934, Note_off_c, 0, 88, 68
1, 509947, Note_on_c, 0, 86, 29
1, 509964, Note_off_c, 0, 59, 36
1, 509986, Control_c, 0, 64, 62
1, 509994, Note_on_c, 0, 59, 70
1, 509995, Note_off_c, 0, 86, 0
1, 509995, Note_on_c, 0, 86, 61
1, 510001, Note_on_c, 0, 74, 100
1, 510001, Control_c, 0, 64, 43
1, 510002, Note_on_c, 0, 83, 100
1, 510006, Note_on_c, 0, 67, 80
1, 510009, Note_on_c, 0, 55, 69
1, 510021, Note_off_c, 0, 67, 70
1, 510027, Note_off_c, 0, 86, 65
1, 510030, Note_off_c, 0, 74, 62
1, 510030, Control_c, 0, 64, 61
1, 510044, Note_off_c, 0, 83, 65
1, 510045, Control_c, 0, 64, 127
1, 510062, Note_off_c, 0, 59, 53
1, 510153, Note_off_c, 0, 55, 57
1, 510247, Note_on_c, 0, 62, 78
1, 510250, Note_on_c, 0, 55, 72
1, 510272, Note_on_c, 0, 71, 86
1, 510276, Note_on_c, 0, 74, 84
1, 510278, Note_on_c, 0, 76, 86
1, 510357, Note_off_c, 0, 62, 65
1, 510388, Note_on_c, 0, 59, 14
1, 510396, Note_on_c, 0, 70, 38
1, 510422, Note_off_c, 0, 59, 53
1, 510432, Note_off_c, 0, 70, 50
1, 510433, Note_off_c, 0, 55, 59
1, 510457, Note_off_c, 0, 71, 64
1, 510467, Note_off_c, 0, 76, 47
1, 510487, Poly_aftertouch_c, 0, 55, 0
1, 510495, Note_on_c, 0, 55, 73
1, 510495, Note_on_c, 0, 59, 77
1, 510499, Note_on_c, 0, 73, 91
1, 510503, Note_on_c, 0, 70, 92
1, 510510, Note_on_c, 0, 50, 61
1, 510517, Note_off_c, 0, 59, 68
1, 510518, Note_off_c, 0, 55, 70
1, 510527, Note_off_c, 0, 74, 66
1, 510533, Note_off_c, 0, 50, 64
1, 510605, Poly_aftertouch_c, 0, 54, 0
1, 510613, Note_off_c, 0, 70, 58
1, 510685, Note_off_c, 0, 73, 62
1, 510715, Note_on_c, 0, 74, 8
1, 510742, Note_on_c, 0, 69, 66
1, 510746, Note_on_c, 0, 72, 74
1, 510764, Note_on_c, 0, 38, 101
1, 510764, Note_off_c, 0, 74, 0
1, 510765, Control_c, 0, 64, 76
1, 510772, Note_on_c, 0, 26, 95
1, 510780, Control_c, 0, 64, 46
1, 510784, Note_on_c, 0, 74, 47
1, 510792, Note_off_c, 0, 72, 62
1, 510794, Control_c, 0, 64, 0
1, 510802, Note_off_c, 0, 26, 64
1, 510839, Note_off_c, 0, 38, 63
1, 510849, Note_on_c, 0, 72, 59
1, 510852, Note_off_c, 0, 74, 65
1, 510853, Control_c, 0, 64, 33
1, 510868, Control_c, 0, 64, 54
1, 510883, Control_c, 0, 64, 84
1, 510898, Note_off_c, 0, 72, 61
1, 510898, Control_c, 0, 64, 127
1, 510899, Note_on_c, 0, 74, 46
1, 510957, Note_off_c, 0, 74, 60
1, 510965, Note_on_c, 0, 72, 61
1, 511003, Note_off_c, 0, 72, 62
1, 511021, Note_on_c, 0, 74, 38
1, 511037, Note_on_c, 0, 60, 85
1, 511040, Note_on_c, 0, 50, 71
1, 511046, Note_on_c, 0, 54, 68
1, 511055, Note_off_c, 0, 74, 56
1, 511066, Note_off_c, 0, 50, 56
1, 511079, Note_on_c, 0, 72, 56
1, 511082, Note_off_c, 0, 60, 61
1, 511085, Note_off_c, 0, 54, 58
1, 511104, Note_off_c, 0, 72, 63
1, 511129, Note_on_c, 0, 74, 54
1, 511157, Note_off_c, 0, 74, 65
1, 511181, Note_on_c, 0, 72, 62
1, 511220, Note_on_c, 0, 74, 69
1, 511234, Note_off_c, 0, 72, 0
1, 511248, Note_on_c, 0, 72, 45
1, 511254, Note_on_c, 0, 60, 71
1, 511257, Note_on_c, 0, 66, 80
1, 511259, Note_off_c, 0, 69, 41
1, 511268, Note_on_c, 0, 54, 71
1, 511270, Note_off_c, 0, 74, 57
1, 511272, Note_off_c, 0, 72, 59
1, 511279, Note_off_c, 0, 66, 70
1, 511301, Note_off_c, 0, 54, 66
1, 511305, Note_off_c, 0, 60, 60
1, 511394, Note_on_c, 0, 71, 79
1, 511398, Note_on_c, 0, 68, 79
1, 511496, Note_off_c, 0, 68, 58
1, 511501, Note_on_c, 0, 72, 82
1, 511515, Note_off_c, 0, 71, 58
1, 511517, Note_on_c, 0, 69, 62
1, 511536, Note_off_c, 0, 69, 65
1, 511546, Note_off_c, 0, 72, 64
1, 511738, Note_on_c, 0, 69, 63
1, 511739, Note_on_c, 0, 51, 51
1, 511740, Note_on_c, 0, 66, 63
1, 511744, Note_on_c, 0, 39, 53
1, 511744, Note_on_c, 0, 59, 56
1, 511744, Note_on_c, 0, 71, 76
1, 511765, Control_c, 0, 64, 79
1, 511780, Control_c, 0, 64, 60
1, 511794, Control_c, 0, 64, 35
1, 511809, Control_c, 0, 64, 0
1, 511868, Control_c, 0, 64, 16
1, 511883, Control_c, 0, 64, 35
1, 511898, Control_c, 0, 64, 54
1, 511901, Note_off_c, 0, 66, 61
1, 511913, Control_c, 0, 64, 72
1, 511927, Note_off_c, 0, 69, 57
1, 511929, Control_c, 0, 64, 127
1, 511939, Note_off_c, 0, 39, 62
1, 511965, Note_off_c, 0, 51, 65
1, 511991, Note_off_c, 0, 59, 39
1, 512077, Note_on_c, 0, 52, 72
1, 512077, Note_on_c, 0, 59, 57
1, 512077, Note_on_c, 0, 64, 67
1, 512077, Note_on_c, 0, 68, 80
1, 512089, Note_on_c, 0, 40, 53
1, 512104, Note_off_c, 0, 59, 64
1, 512104, Note_off_c, 0, 71, 63
1, 512114, Note_off_c, 0, 52, 60
1, 512121, Note_off_c, 0, 40, 54
1, 512125, Note_off_c, 0, 64, 60
1, 512150, Note_off_c, 0, 68, 59
1, 512322, Control_c, 0, 64, 80
1, 512337, Control_c, 0, 64, 61
1, 512341, Note_on_c, 0, 76, 78
1, 512342, Note_on_c, 0, 64, 70
1, 512345, Note_on_c, 0, 56, 72
1, 512347, Note_on_c, 0, 71, 61
1, 512351, Note_on_c, 0, 44, 63
1, 512352, Control_c, 0, 64, 42
1, 512366, Control_c, 0, 64, 12
1, 512381, Control_c, 0, 64, 0
1, 512389, Poly_aftertouch_c, 0, 74, 127
1, 512396, Note_off_c, 0, 71, 58
1, 512396, Control_c, 0, 64, 8
1, 512411, Control_c, 0, 64, 31
1, 512426, Control_c, 0, 64, 47
1, 512429, Poly_aftertouch_c, 0, 74, 0
1, 512441, Control_c, 0, 64, 65
1, 512456, Control_c, 0, 64, 127
1, 512459, Note_off_c, 0, 44, 61
1, 512460, Note_off_c, 0, 56, 66
1, 512474, Note_off_c, 0, 64, 57
1, 512563, Note_on_c, 0, 69, 66
1, 512563, Note_on_c, 0, 73, 80
1, 512563, Note_on_c, 0, 57, 80
1, 512577, Note_off_c, 0, 76, 65
1, 512583, Note_on_c, 0, 45, 50
1, 512585, Note_off_c, 0, 57, 68
1, 512589, Note_off_c, 0, 69, 69
1, 512605, Note_off_c, 0, 73, 64
1, 512611, Note_off_c, 0, 45, 59
1, 512722, Control_c, 0, 64, 70
1, 512738, Control_c, 0, 64, 56
1, 512753, Control_c, 0, 64, 40
1, 512755, Note_on_c, 0, 81, 95
1, 512758, Note_on_c, 0, 61, 88
1, 512759, Note_on_c, 0, 69, 87
1, 512762, Note_on_c, 0, 49, 81
1, 512764, Note_on_c, 0, 76, 69
1, 512768, Control_c, 0, 64, 36
1, 512782, Control_c, 0, 64, 46
1, 512784, Note_off_c, 0, 76, 70
1, 512797, Control_c, 0, 64, 59
1, 512812, Control_c, 0, 64, 81
1, 512825, Note_off_c, 0, 61, 63
1, 512826, Control_c, 0, 64, 127
1, 512829, Note_off_c, 0, 49, 64
1, 512849, Note_off_c, 0, 69, 62
1, 512942, Note_on_c, 0, 72, 82
1, 512942, Note_on_c, 0, 78, 77
1, 512959, Note_on_c, 0, 62, 68
1, 512960, Note_on_c, 0, 69, 61
1, 512965, Note_on_c, 0, 64, 68
1, 512965, Note_on_c, 0, 50, 57
1, 512974, Note_off_c, 0, 81, 63
1, 512977, Note_off_c, 0, 69, 68
1, 512977, Note_off_c, 0, 62, 64
1, 512978, Note_off_c, 0, 72, 62
1, 512983, Note_off_c, 0, 64, 65
1, 512990, Note_off_c, 0, 50, 61
1, 513002, Note_off_c, 0, 78, 65
1, 513056, Control_c, 0, 64, 96
1, 513071, Control_c, 0, 64, 65
1, 513086, Control_c, 0, 64, 51
1, 513101, Control_c, 0, 64, 37
1, 513115, Control_c, 0, 64, 41
1, 513120, Note_on_c, 0, 83, 93
1, 513123, Note_on_c, 0, 63, 96
1, 513125, Note_on_c, 0, 51, 93
1, 513125, Note_on_c, 0, 71, 90
1, 513128, Note_on_c, 0, 78, 82
1, 513130, Control_c, 0, 64, 55
1, 513145, Control_c, 0, 64, 74
1, 513147, Note_off_c, 0, 78, 68
1, 513152, Note_off_c, 0, 63, 62
1, 513160, Control_c, 0, 64, 127
1, 513162, Note_on_c, 0, 81, 23
1, 513164, Note_off_c, 0, 51, 57
1, 513179, Note_off_c, 0, 71, 58
1, 513204, Note_off_c, 0, 81, 35
1, 513287, Note_on_c, 0, 64, 96
1, 513290, Note_on_c, 0, 74, 78
1, 513291, Note_on_c, 0, 80, 83
1, 513297, Note_off_c, 0, 83, 67
1, 513299, Note_on_c, 0, 52, 78
1, 513301, Note_on_c, 0, 71, 55
1, 513302, Note_off_c, 0, 71, 127
1, 513310, Note_off_c, 0, 74, 73
1, 513317, Note_off_c, 0, 52, 68
1, 513336, Note_off_c, 0, 80, 60
1, 513349, Poly_aftertouch_c, 0, 81, 0
1, 513378, Note_off_c, 0, 64, 57
1, 513396, Note_on_c, 0, 61, 41
1, 513423, Note_off_c, 0, 61, 58
1, 513427, Control_c, 0, 64, 74
1, 513441, Control_c, 0, 64, 57
1, 513456, Control_c, 0, 64, 37
1, 513467, Note_on_c, 0, 85, 99
1, 513469, Note_on_c, 0, 73, 101
1, 513471, Control_c, 0, 64, 30
1, 513472, Note_on_c, 0, 61, 97
1, 513473, Note_on_c, 0, 65, 95
1, 513478, Note_on_c, 0, 56, 79
1, 513486, Control_c, 0, 64, 40
1, 513491, Note_off_c, 0, 65, 73
1, 513493, Note_on_c, 0, 53, 55
1, 513501, Control_c, 0, 64, 55
1, 513515, Control_c, 0, 64, 80
1, 513518, Note_off_c, 0, 53, 63
1, 513520, Note_off_c, 0, 61, 64
1, 513531, Control_c, 0, 64, 127
1, 513541, Note_off_c, 0, 56, 64
1, 513574, Note_off_c, 0, 73, 59
1, 513580, Note_off_c, 0, 85, 62
1, 513660, Note_on_c, 0, 66, 105
1, 513660, Note_on_c, 0, 73, 97
1, 513660, Note_on_c, 0, 85, 86
1, 513664, Note_on_c, 0, 82, 88
1, 513665, Note_on_c, 0, 76, 81
1, 513672, Note_on_c, 0, 54, 81
1, 513684, Note_off_c, 0, 73, 58
1, 513690, Note_off_c, 0, 76, 70
1, 513693, Note_off_c, 0, 54, 69
1, 513698, Note_off_c, 0, 66, 62
1, 513707, Note_off_c, 0, 85, 64
1, 513714, Note_off_c, 0, 82, 66
1, 513746, Poly_aftertouch_c, 0, 80, 127
1, 513775, Poly_aftertouch_c, 0, 56, 0
1, 513779, Poly_aftertouch_c, 0, 80, 0
1, 513850, Control_c, 0, 64, 69
1, 513864, Control_c, 0, 64, 52
1, 513872, Note_on_c, 0, 82, 92
1, 513873, Note_on_c, 0, 63, 67
1, 513873, Note_on_c, 0, 73, 104
1, 513875, Note_on_c, 0, 67, 98
1, 513877, Note_on_c, 0, 58, 87
1, 513877, Note_on_c, 0, 85, 88
1, 513879, Control_c, 0, 64, 33
1, 513888, Note_on_c, 0, 55, 71
1, 513894, Control_c, 0, 64, 36
1, 513909, Control_c, 0, 64, 54
1, 513924, Control_c, 0, 64, 72
1, 513926, Note_off_c, 0, 55, 54
1, 513938, Control_c, 0, 64, 127
1, 513959, Poly_aftertouch_c, 0, 75, 0
1, 513965, Note_off_c, 0, 67, 59
1, 513981, Note_off_c, 0, 73, 60
1, 513993, Poly_aftertouch_c, 0, 75, 0
1, 514002, Note_off_c, 0, 85, 63
1, 514025, Note_off_c, 0, 63, 62
1, 514036, Note_off_c, 0, 82, 61
1, 514062, Note_off_c, 0, 58, 62
1, 514099, Note_on_c, 0, 68, 86
1, 514101, Note_on_c, 0, 63, 88
1, 514104, Note_on_c, 0, 72, 102
1, 514104, Note_on_c, 0, 80, 97
1, 514105, Note_on_c, 0, 75, 91
1, 514110, Note_on_c, 0, 84, 91
1, 514116, Note_on_c, 0, 56, 65
1, 514116, Note_off_c, 0, 68, 72
1, 514128, Note_off_c, 0, 63, 64
1, 514134, Note_off_c, 0, 56, 66
1, 514166, Note_on_c, 0, 82, 3
1, 514179, Note_off_c, 0, 75, 63
1, 514203, Note_off_c, 0, 82, 55
1, 514215, Note_off_c, 0, 72, 50
1, 514244, Note_off_c, 0, 84, 57
1, 514310, Note_off_c, 0, 80, 0
1, 514347, Poly_aftertouch_c, 0, 80, 127
1, 514393, Poly_aftertouch_c, 0, 80, 0
1, 514412, Control_c, 0, 64, 84
1, 514427, Control_c, 0, 64, 58
1, 514430, Note_on_c, 0, 49, 101
1, 514432, Note_on_c, 0, 72, 100
1, 514433, Note_on_c, 0, 77, 94
1, 514434, Note_on_c, 0, 84, 95
1, 514438, Note_on_c, 0, 37, 84
1, 514442, Control_c, 0, 64, 21
1, 514465, Control_c, 0, 64, 0
1, 514466, Note_on_c, 0, 82, 53
1, 514509, Control_c, 0, 64, 9
1, 514524, Control_c, 0, 64, 36
1, 514533, Note_off_c, 0, 82, 0
1, 514539, Control_c, 0, 64, 53
1, 514543, Note_off_c, 0, 37, 63
1, 514553, Control_c, 0, 64, 72
1, 514558, Note_off_c, 0, 84, 63
1, 514564, Note_off_c, 0, 49, 66
1, 514568, Control_c, 0, 64, 127
1, 514569, Poly_aftertouch_c, 0, 82, 127
1, 514579, Note_off_c, 0, 72, 60
1, 514629, Poly_aftertouch_c, 0, 82, 0
1, 514656, Note_off_c, 0, 77, 57
1, 514735, Note_on_c, 0, 82, 90
1, 514736, Note_on_c, 0, 65, 93
1, 514739, Note_on_c, 0, 70, 94
1, 514745, Note_on_c, 0, 56, 70
1, 514750, Note_on_c, 0, 58, 64
1, 514750, Note_on_c, 0, 61, 67
1, 514764, Note_on_c, 0, 77, 37
1, 514774, Note_off_c, 0, 56, 68
1, 514784, Note_off_c, 0, 70, 61
1, 514787, Note_off_c, 0, 65, 64
1, 514796, Note_off_c, 0, 58, 55
1, 514800, Note_off_c, 0, 77, 46
1, 514802, Note_off_c, 0, 61, 60
1, 514891, Note_off_c, 0, 82, 61
1, 514956, Note_on_c, 0, 65, 96
1, 514957, Note_on_c, 0, 72, 94
1, 514957, Note_on_c, 0, 84, 90
1, 514961, Note_on_c, 0, 61, 82
1, 514968, Note_on_c, 0, 58, 70
1, 514972, Note_on_c, 0, 56, 64
1, 514975, Note_on_c, 0, 77, 65
1, 514994, Note_off_c, 0, 56, 68
1, 514995, Note_off_c, 0, 65, 61
1, 514995, Note_off_c, 0, 58, 64
1, 514998, Note_off_c, 0, 61, 59
1, 514999, Note_on_c, 0, 82, 31
1, 515026, Note_off_c, 0, 72, 59
1, 515032, Note_off_c, 0, 84, 60
1, 515036, Note_off_c, 0, 82, 57
1, 515128, Note_off_c, 0, 77, 0
1, 515145, Note_on_c, 0, 77, 57
1, 515153, Note_on_c, 0, 61, 90
1, 515153, Note_on_c, 0, 85, 91
1, 515153, Note_on_c, 0, 65, 93
1, 515153, Note_on_c, 0, 73, 91
1, 515161, Note_on_c, 0, 56, 81
1, 515167, Note_on_c, 0, 58, 73
1, 515168, Note_off_c, 0, 73, 76
1, 515191, Note_off_c, 0, 77, 60
1, 515192, Note_off_c, 0, 85, 64
1, 515325, Note_off_c, 0, 65, 37
1, 515340, Note_off_c, 0, 56, 60
1, 515358, Note_off_c, 0, 58, 57
1, 515361, Note_off_c, 0, 61, 61
1, 515427, Note_on_c, 0, 67, 92
1, 515428, Note_on_c, 0, 61, 82
1, 515429, Note_on_c, 0, 79, 102
1, 515431, Note_on_c, 0, 91, 104
1, 515432, Note_on_c, 0, 85, 95
1, 515434, Note_on_c, 0, 56, 82
1, 515447, Note_on_c, 0, 58, 69
1, 515465, Note_on_c, 0, 90, 32
1, 515508, Note_off_c, 0, 90, 48
1, 515514, Note_off_c, 0, 79, 58
1, 515524, Note_off_c, 0, 91, 60
1, 515540, Note_off_c, 0, 85, 63
1, 515570, Note_off_c, 0, 67, 57
1, 515581, Note_off_c, 0, 56, 49
1, 515701, Note_off_c, 0, 61, 57
1, 515705, Note_off_c, 0, 58, 61
1, 515752, Note_on_c, 0, 68, 107
1, 515753, Note_on_c, 0, 77, 111
1, 515756, Note_on_c, 0, 61, 83
1, 515756, Note_on_c, 0, 89, 107
1, 515757, Note_on_c, 0, 85, 98
1, 515761, Poly_aftertouch_c, 0, 58, 0
1, 515764, Note_on_c, 0, 58, 65
1, 515766, Note_on_c, 0, 56, 67
1, 515768, Note_on_c, 0, 87, 66
1, 515769, Note_off_c, 0, 87, 127
1, 515771, Note_off_c, 0, 68, 67
1, 515783, Note_off_c, 0, 77, 66
1, 515784, Note_off_c, 0, 56, 68
1, 515792, Note_off_c, 0, 89, 60
1, 515794, Note_off_c, 0, 61, 67
1, 515799, Note_off_c, 0, 58, 60
1, 515805, Note_off_c, 0, 85, 62
1, 516202, Note_on_c, 0, 39, 100
1, 516202, Note_on_c, 0, 75, 101
1, 516204, Note_on_c, 0, 84, 93
1, 516205, Note_on_c, 0, 87, 96
1, 516206, Note_on_c, 0, 27, 95
1, 516230, Control_c, 0, 64, 71
1, 516245, Control_c, 0, 64, 48
1, 516259, Control_c, 0, 64, 0
1, 516307, Note_off_c, 0, 87, 67
1, 516319, Control_c, 0, 64, 27
1, 516325, Note_off_c, 0, 27, 64
1, 516329, Note_off_c, 0, 75, 61
1, 516331, Note_off_c, 0, 84, 64
1, 516334, Control_c, 0, 64, 46
1, 516343, Note_off_c, 0, 39, 63
1, 516349, Control_c, 0, 64, 63
1, 516364, Control_c, 0, 64, 127
1, 516546, Note_on_c, 0, 63, 83
1, 516550, Note_on_c, 0, 75, 76
1, 516569, Note_off_c, 0, 63, 67
1, 516577, Note_off_c, 0, 75, 60
1, 516615, Poly_aftertouch_c, 0, 73, 127
1, 516647, Poly_aftertouch_c, 0, 73, 0
1, 516758, Note_on_c, 0, 51, 101
1, 516763, Note_on_c, 0, 63, 90
1, 516765, Note_on_c, 0, 39, 80
1, 516765, Note_on_c, 0, 75, 83
1, 516777, Note_off_c, 0, 51, 76
1, 516793, Note_off_c, 0, 39, 70
1, 516813, Note_off_c, 0, 63, 63
1, 516837, Note_off_c, 0, 75, 54
1, 516935, Control_c, 0, 64, 81
1, 516949, Control_c, 0, 64, 60
1, 516964, Control_c, 0, 64, 36
1, 516966, Note_on_c, 0, 56, 95
1, 516968, Note_on_c, 0, 75, 82
1, 516969, Note_on_c, 0, 44, 85
1, 516969, Note_on_c, 0, 63, 82
1, 516977, Note_on_c, 0, 68, 73
1, 516979, Control_c, 0, 64, 16
1, 516981, Note_on_c, 0, 72, 61
1, 516994, Control_c, 0, 64, 24
1, 517008, Control_c, 0, 64, 38
1, 517023, Control_c, 0, 64, 52
1, 517033, Note_off_c, 0, 63, 60
1, 517038, Control_c, 0, 64, 68
1, 517053, Control_c, 0, 64, 127
1, 517061, Note_off_c, 0, 68, 58
1, 517064, Note_off_c, 0, 44, 60
1, 517070, Note_off_c, 0, 72, 60
1, 517079, Note_off_c, 0, 56, 62
1, 517129, Note_on_c, 0, 63, 72
1, 517130, Note_on_c, 0, 72, 51
1, 517133, Note_on_c, 0, 68, 59
1, 517156, Note_off_c, 0, 63, 64
1, 517180, Note_off_c, 0, 68, 60
1, 517193, Note_off_c, 0, 72, 60
1, 517246, Note_on_c, 0, 58, 86
1, 517253, Note_on_c, 0, 63, 71
1, 517257, Note_on_c, 0, 46, 69
1, 517259, Note_on_c, 0, 72, 54
1, 517264, Note_on_c, 0, 68, 64
1, 517266, Note_off_c, 0, 58, 72
1, 517280, Note_off_c, 0, 46, 63
1, 517280, Note_off_c, 0, 63, 68
1, 517295, Note_off_c, 0, 68, 62
1, 517316, Note_off_c, 0, 72, 60
1, 517364, Control_c, 0, 64, 77
1, 517373, Note_on_c, 0, 60, 88
1, 517378, Note_on_c, 0, 63, 66
1, 517379, Note_on_c, 0, 48, 78
1, 517379, Control_c, 0, 64, 58
1, 517389, Note_on_c, 0, 72, 52
1, 517391, Note_on_c, 0, 68, 61
1, 517394, Control_c, 0, 64, 37
1, 517398, Note_off_c, 0, 63, 65
1, 517408, Control_c, 0, 64, 14
1, 517415, Note_off_c, 0, 68, 61
1, 517423, Control_c, 0, 64, 20
1, 517430, Note_off_c, 0, 72, 61
1, 517438, Control_c, 0, 64, 39
1, 517454, Note_off_c, 0, 48, 62
1, 517461, Control_c, 0, 64, 55
1, 517472, Note_off_c, 0, 60, 64
1, 517475, Control_c, 0, 64, 77
1, 517490, Control_c, 0, 64, 127
1, 517502, Note_on_c, 0, 68, 68
1, 517514, Note_on_c, 0, 72, 61
1, 517557, Note_off_c, 0, 68, 58
1, 517572, Note_off_c, 0, 72, 60
1, 517623, Note_on_c, 0, 65, 90
1, 517626, Note_on_c, 0, 72, 55
1, 517633, Note_on_c, 0, 68, 63
1, 517638, Note_on_c, 0, 53, 58
1, 517640, Note_off_c, 0, 65, 75
1, 517662, Note_off_c, 0, 53, 62
1, 517663, Note_off_c, 0, 68, 64
1, 517682, Note_off_c, 0, 72, 61
1, 517698, Control_c, 0, 64, 75
1, 517699, Poly_aftertouch_c, 0, 56, 127
1, 517713, Control_c, 0, 64, 59
1, 517726, Poly_aftertouch_c, 0, 56, 0
1, 517728, Control_c, 0, 64, 42
1, 517737, Note_on_c, 0, 68, 72
1, 517740, Note_on_c, 0, 63, 80
1, 517743, Note_on_c, 0, 51, 84
1, 517747, Note_on_c, 0, 72, 49
1, 517757, Control_c, 0, 64, 54
1, 517772, Control_c, 0, 64, 68
1, 517787, Control_c, 0, 64, 127
1, 517789, Note_off_c, 0, 68, 59
1, 517791, Note_off_c, 0, 51, 56
1, 517791, Note_off_c, 0, 63, 61
1, 517803, Note_off_c, 0, 72, 54
1, 517838, Note_on_c, 0, 72, 48
1, 517840, Note_on_c, 0, 68, 64
1, 517861, Note_on_c, 0, 63, 48
1, 517882, Note_off_c, 0, 63, 65
1, 517898, Note_off_c, 0, 68, 57
1, 517915, Note_off_c, 0, 72, 59
1, 517947, Note_on_c, 0, 60, 85
1, 517951, Note_on_c, 0, 63, 64
1, 517952, Note_on_c, 0, 72, 39
1, 517956, Note_on_c, 0, 68, 58
1, 517961, Note_on_c, 0, 48, 60
1, 517971, Note_off_c, 0, 60, 71
1, 517982, Note_off_c, 0, 48, 63
1, 517984, Note_off_c, 0, 63, 64
1, 517994, Control_c, 0, 64, 87
1, 518006, Note_off_c, 0, 68, 58
1, 518009, Control_c, 0, 64, 61
1, 518018, Note_off_c, 0, 72, 63
1, 518023, Control_c, 0, 64, 34
1, 518038, Control_c, 0, 64, 11
1, 518053, Control_c, 0, 64, 27
1, 518054, Note_on_c, 0, 58, 88
1, 518058, Note_on_c, 0, 46, 85
1, 518058, Note_on_c, 0, 72, 52
1, 518061, Note_on_c, 0, 68, 64
1, 518063, Note_on_c, 0, 63, 72
1, 518068, Control_c, 0, 64, 45
1, 518076, Note_off_c, 0, 58, 68
1, 518083, Control_c, 0, 64, 64
1, 518084, Note_off_c, 0, 46, 67
1, 518087, Note_off_c, 0, 63, 72
1, 518097, Control_c, 0, 64, 127
1, 518124, Note_off_c, 0, 68, 60
1, 518176, Note_on_c, 0, 63, 84
1, 518182, Note_on_c, 0, 68, 56
1, 518200, Note_off_c, 0, 72, 0
1, 518200, Note_on_c, 0, 72, 12
1, 518227, Note_off_c, 0, 63, 63
1, 518257, Note_off_c, 0, 68, 59
1, 518291, Note_on_c, 0, 60, 91
1, 518292, Poly_aftertouch_c, 0, 68, 0
1, 518295, Note_on_c, 0, 48, 73
1, 518296, Note_on_c, 0, 63, 81
1, 518304, Note_on_c, 0, 68, 46
1, 518311, Note_off_c, 0, 60, 72
1, 518315, Note_off_c, 0, 75, 61
1, 518324, Note_off_c, 0, 48, 66
1, 518346, Note_off_c, 0, 63, 65
1, 518358, Control_c, 0, 64, 75
1, 518372, Control_c, 0, 64, 50
1, 518386, Note_off_c, 0, 68, 0
1, 518387, Control_c, 0, 64, 0
1, 518402, Note_off_c, 0, 72, 0
1, 518402, Note_on_c, 0, 72, 25
1, 518403, Note_on_c, 0, 63, 92
1, 518407, Note_on_c, 0, 58, 97
1, 518408, Note_on_c, 0, 68, 53
1, 518409, Note_on_c, 0, 75, 92
1, 518410, Note_on_c, 0, 46, 90
1, 518424, Note_off_c, 0, 58, 73
1, 518432, Note_off_c, 0, 46, 70
1, 518432, Control_c, 0, 64, 38
1, 518444, Note_off_c, 0, 63, 64
1, 518446, Control_c, 0, 64, 58
1, 518461, Control_c, 0, 64, 127
1, 518477, Note_off_c, 0, 68, 60
1, 518509, Note_off_c, 0, 72, 0
1, 518518, Note_on_c, 0, 63, 96
1, 518537, Note_on_c, 0, 68, 51
1, 518546, Poly_aftertouch_c, 0, 72, 127
1, 518556, Note_on_c, 0, 73, 10
1, 518560, Note_off_c, 0, 63, 67
1, 518570, Poly_aftertouch_c, 0, 46, 0
1, 518580, Note_off_c, 0, 68, 51
1, 518585, Note_off_c, 0, 75, 60
1, 518599, Poly_aftertouch_c, 0, 72, 0
1, 518604, Note_off_c, 0, 73, 54
1, 518662, Note_on_c, 0, 77, 101
1, 518662, Note_on_c, 0, 65, 101
1, 518665, Note_on_c, 0, 44, 91
1, 518665, Note_on_c, 0, 56, 85
1, 518680, Note_off_c, 0, 56, 70
1, 518683, Note_off_c, 0, 65, 69
1, 518689, Note_off_c, 0, 44, 68
1, 518695, Note_off_c, 0, 77, 68
1, 518772, Poly_aftertouch_c, 0, 75, 0
1, 518883, Note_on_c, 0, 39, 97
1, 518890, Note_on_c, 0, 27, 85
1, 518892, Control_c, 0, 64, 64
1, 518893, Note_on_c, 0, 65, 98
1, 518894, Note_on_c, 0, 77, 99
1, 518895, Note_on_c, 0, 67, 98
1, 518895, Note_on_c, 0, 73, 97
1, 518906, Control_c, 0, 64, 34
1, 518921, Control_c, 0, 64, 0
1, 518987, Note_off_c, 0, 27, 64
1, 518987, Control_c, 0, 64, 22
1, 519002, Note_on_c, 0, 32, 34
1, 519002, Control_c, 0, 64, 41
1, 519003, Note_off_c, 0, 39, 65
1, 519017, Control_c, 0, 64, 58
1, 519023, Note_off_c, 0, 67, 56
1, 519028, Note_off_c, 0, 65, 66
1, 519032, Note_off_c, 0, 73, 62
1, 519032, Control_c, 0, 64, 79
1, 519045, Note_off_c, 0, 32, 37
1, 519047, Control_c, 0, 64, 127
1, 519115, Note_on_c, 0, 73, 68
1, 519115, Note_on_c, 0, 65, 66
1, 519116, Note_on_c, 0, 67, 65
1, 519142, Note_off_c, 0, 67, 56
1, 519142, Note_off_c, 0, 73, 64
1, 519145, Note_off_c, 0, 65, 68
1, 519240, Note_on_c, 0, 51, 90
1, 519244, Note_off_c, 0, 77, 59
1, 519246, Note_on_c, 0, 73, 74
1, 519252, Note_on_c, 0, 65, 58
1, 519254, Note_on_c, 0, 39, 58
1, 519261, Note_off_c, 0, 51, 67
1, 519267, Note_off_c, 0, 65, 71
1, 519270, Note_off_c, 0, 73, 70
1, 519276, Note_off_c, 0, 39, 63
1, 519374, Control_c, 0, 64, 105
1, 519387, Note_on_c, 0, 67, 82
1, 519389, Note_on_c, 0, 63, 94
1, 519389, Control_c, 0, 64, 67
1, 519390, Note_on_c, 0, 73, 82
1, 519390, Note_on_c, 0, 75, 86
1, 519392, Note_on_c, 0, 58, 100
1, 519394, Note_on_c, 0, 46, 90
1, 519403, Control_c, 0, 64, 53
1, 519418, Control_c, 0, 64, 36
1, 519433, Control_c, 0, 64, 32
1, 519440, Note_off_c, 0, 63, 64
1, 519448, Control_c, 0, 64, 44
1, 519463, Note_off_c, 0, 67, 63
1, 519463, Control_c, 0, 64, 59
1, 519476, Note_off_c, 0, 46, 65
1, 519477, Control_c, 0, 64, 87
1, 519479, Note_off_c, 0, 58, 63
1, 519491, Control_c, 0, 64, 127
1, 519524, Note_on_c, 0, 67, 62
1, 519535, Note_on_c, 0, 63, 61
1, 519559, Note_off_c, 0, 63, 62
1, 519568, Note_off_c, 0, 67, 60
1, 519628, Note_on_c, 0, 60, 87
1, 519629, Note_on_c, 0, 63, 68
1, 519631, Note_on_c, 0, 67, 60
1, 519638, Note_on_c, 0, 48, 66
1, 519646, Note_off_c, 0, 60, 74
1, 519649, Note_off_c, 0, 63, 68
1, 519658, Note_off_c, 0, 67, 68
1, 519661, Note_off_c, 0, 48, 61
1, 519687, Note_off_c, 0, 73, 53
1, 519706, Control_c, 0, 64, 80
1, 519720, Control_c, 0, 64, 58
1, 519735, Control_c, 0, 64, 27
1, 519742, Note_on_c, 0, 61, 90
1, 519744, Note_on_c, 0, 67, 76
1, 519747, Note_on_c, 0, 49, 84
1, 519750, Control_c, 0, 64, 0
1, 519780, Control_c, 0, 64, 33
1, 519783, Note_off_c, 0, 67, 59
1, 519793, Note_off_c, 0, 49, 65
1, 519795, Control_c, 0, 64, 50
1, 519810, Control_c, 0, 64, 69
1, 519813, Note_off_c, 0, 61, 62
1, 519825, Control_c, 0, 64, 127
1, 519851, Note_on_c, 0, 67, 77
1, 519896, Note_off_c, 0, 67, 59
1, 519962, Note_on_c, 0, 65, 93
1, 519970, Note_on_c, 0, 67, 73
1, 519978, Note_off_c, 0, 65, 76
1, 519979, Note_on_c, 0, 53, 59
1, 520001, Note_off_c, 0, 67, 60
1, 520004, Note_off_c, 0, 53, 63
1, 520018, Control_c, 0, 64, 102
1, 520021, Note_on_c, 0, 56, 10
1, 520033, Control_c, 0, 64, 67
1, 520048, Control_c, 0, 64, 55
1, 520063, Control_c, 0, 64, 45
1, 520063, Note_off_c, 0, 56, 35
1, 520074, Note_on_c, 0, 67, 80
1, 520077, Note_on_c, 0, 63, 88
1, 520078, Control_c, 0, 64, 49
1, 520082, Note_on_c, 0, 51, 86
1, 520093, Control_c, 0, 64, 62
1, 520107, Control_c, 0, 64, 127
1, 520126, Note_off_c, 0, 63, 61
1, 520128, Note_off_c, 0, 67, 61
1, 520134, Note_off_c, 0, 51, 58
1, 520184, Note_on_c, 0, 68, 65
1, 520196, Note_on_c, 0, 72, 53
1, 520212, Note_off_c, 0, 68, 66
1, 520218, Note_off_c, 0, 72, 62
1, 520274, Note_on_c, 0, 60, 84
1, 520277, Note_off_c, 0, 75, 61
1, 520285, Note_on_c, 0, 72, 75
1, 520286, Note_on_c, 0, 68, 66
1, 520293, Note_off_c, 0, 60, 73
1, 520297, Note_on_c, 0, 48, 45
1, 520301, Note_on_c, 0, 51, 35
1, 520312, Note_off_c, 0, 68, 62
1, 520321, Note_off_c, 0, 72, 56
1, 520326, Note_off_c, 0, 51, 61
1, 520331, Note_off_c, 0, 48, 53
1, 520343, Control_c, 0, 64, 107
1, 520358, Control_c, 0, 64, 58
1, 520373, Control_c, 0, 64, 0
1, 520376, Note_on_c, 0, 58, 89
1, 520379, Note_on_c, 0, 72, 79
1, 520380, Note_on_c, 0, 46, 85
1, 520380, Note_on_c, 0, 63, 94
1, 520381, Note_on_c, 0, 75, 92
1, 520388, Note_on_c, 0, 68, 77
1, 520395, Note_off_c, 0, 58, 73
1, 520403, Note_off_c, 0, 46, 70
1, 520406, Note_off_c, 0, 63, 68
1, 520432, Control_c, 0, 64, 40
1, 520436, Note_on_c, 0, 51, 3
1, 520437, Note_off_c, 0, 51, 127
1, 520453, Note_off_c, 0, 68, 57
1, 520454, Control_c, 0, 64, 62
1, 520469, Control_c, 0, 64, 127
1, 520483, Poly_aftertouch_c, 0, 51, 0
1, 520495, Note_on_c, 0, 63, 94
1, 520499, Note_on_c, 0, 68, 54
1, 520533, Note_off_c, 0, 63, 66
1, 520560, Note_off_c, 0, 68, 55
1, 520580, Note_off_c, 0, 75, 64
1, 520601, Note_on_c, 0, 63, 94
1, 520602, Note_on_c, 0, 60, 99
1, 520611, Note_on_c, 0, 48, 71
1, 520617, Note_on_c, 0, 51, 56
1, 520617, Note_off_c, 0, 60, 76
1, 520619, Note_on_c, 0, 68, 50
1, 520629, Note_off_c, 0, 48, 66
1, 520641, Note_off_c, 0, 63, 67
1, 520644, Note_off_c, 0, 51, 58
1, 520673, Note_off_c, 0, 68, 45
1, 520701, Note_on_c, 0, 75, 83
1, 520704, Note_on_c, 0, 58, 94
1, 520710, Note_on_c, 0, 63, 92
1, 520711, Note_on_c, 0, 46, 81
1, 520724, Note_off_c, 0, 58, 71
1, 520725, Note_on_c, 0, 68, 40
1, 520725, Note_on_c, 0, 51, 56
1, 520737, Note_off_c, 0, 63, 68
1, 520743, Note_off_c, 0, 46, 56
1, 520750, Note_off_c, 0, 51, 61
1, 520758, Note_off_c, 0, 68, 51
1, 520782, Note_off_c, 0, 72, 55
1, 520802, Note_on_c, 0, 63, 92
1, 520820, Note_on_c, 0, 68, 80
1, 520841, Note_off_c, 0, 63, 63
1, 520847, Note_off_c, 0, 68, 59
1, 520849, Poly_aftertouch_c, 0, 72, 127
1, 520859, Note_off_c, 0, 75, 62
1, 520899, Poly_aftertouch_c, 0, 72, 0
1, 520945, Note_on_c, 0, 77, 103
1, 520947, Note_on_c, 0, 65, 95
1, 520948, Note_on_c, 0, 44, 85
1, 520949, Note_on_c, 0, 67, 93
1, 520954, Note_on_c, 0, 56, 66
1, 520955, Note_off_c, 0, 56, 127
1, 520965, Note_off_c, 0, 65, 73
1, 520965, Note_off_c, 0, 67, 75
1, 520966, Note_off_c, 0, 44, 65
1, 520980, Note_on_c, 0, 75, 37
1, 520981, Note_off_c, 0, 77, 64
1, 521005, Note_off_c, 0, 75, 58
1, 521011, Poly_aftertouch_c, 0, 46, 127
1, 521041, Poly_aftertouch_c, 0, 73, 0
1, 521046, Poly_aftertouch_c, 0, 70, 0
1, 521052, Poly_aftertouch_c, 0, 46, 0
1, 521146, Note_on_c, 0, 39, 95
1, 521148, Note_on_c, 0, 67, 100
1, 521148, Note_on_c, 0, 27, 96
1, 521149, Note_on_c, 0, 65, 96
1, 521149, Note_on_c, 0, 77, 101
1, 521151, Note_on_c, 0, 73, 91
1, 521151, Control_c, 0, 64, 68
1, 521166, Control_c, 0, 64, 43
1, 521166, Note_on_c, 0, 37, 59
1, 521181, Control_c, 0, 64, 0
1, 521202, Note_off_c, 0, 37, 39
1, 521233, Control_c, 0, 64, 23
1, 521238, Note_off_c, 0, 27, 64
1, 521247, Control_c, 0, 64, 38
1, 521254, Note_off_c, 0, 39, 66
1, 521258, Note_off_c, 0, 67, 60
1, 521260, Note_off_c, 0, 65, 64
1, 521262, Control_c, 0, 64, 52
1, 521268, Note_off_c, 0, 73, 63
1, 521277, Control_c, 0, 64, 70
1, 521292, Control_c, 0, 64, 127
1, 521348, Note_on_c, 0, 65, 73
1, 521348, Note_on_c, 0, 73, 71
1, 521353, Note_on_c, 0, 67, 67
1, 521372, Note_off_c, 0, 73, 64
1, 521376, Note_off_c, 0, 67, 56
1, 521380, Note_off_c, 0, 65, 67
1, 521451, Note_on_c, 0, 73, 77
1, 521458, Note_on_c, 0, 51, 79
1, 521461, Note_off_c, 0, 77, 62
1, 521467, Note_on_c, 0, 39, 56
1, 521467, Note_on_c, 0, 65, 54
1, 521476, Note_off_c, 0, 51, 68
1, 521482, Note_off_c, 0, 65, 71
1, 521485, Note_off_c, 0, 73, 64
1, 521499, Note_off_c, 0, 39, 54
1, 521583, Note_on_c, 0, 63, 97
1, 521583, Note_on_c, 0, 67, 84
1, 521588, Note_on_c, 0, 46, 91
1, 521589, Note_on_c, 0, 73, 80
1, 521589, Note_on_c, 0, 75, 81
1, 521589, Note_on_c, 0, 58, 92
1, 521589, Control_c, 0, 64, 69
1, 521604, Control_c, 0, 64, 52
1, 521619, Control_c, 0, 64, 37
1, 521622, Note_off_c, 0, 63, 63
1, 521634, Control_c, 0, 64, 39
1, 521643, Note_off_c, 0, 67, 63
1, 521649, Control_c, 0, 64, 52
1, 521655, Note_off_c, 0, 46, 63
1, 521659, Note_off_c, 0, 58, 61
1, 521664, Control_c, 0, 64, 65
1, 521678, Control_c, 0, 64, 127
1, 521698, Poly_aftertouch_c, 0, 56, 0
1, 521707, Note_on_c, 0, 67, 62
1, 521708, Poly_aftertouch_c, 0, 45, 0
1, 521720, Note_on_c, 0, 63, 51
1, 521744, Note_off_c, 0, 67, 62
1, 521751, Note_off_c, 0, 63, 57
1, 521799, Note_on_c, 0, 60, 89
1, 521816, Note_on_c, 0, 48, 56
1, 521816, Note_on_c, 0, 67, 57
1, 521816, Note_off_c, 0, 60, 75
1, 521833, Note_on_c, 0, 63, 23
1, 521834, Note_off_c, 0, 67, 65
1, 521843, Note_off_c, 0, 48, 59
1, 521864, Note_off_c, 0, 63, 57
1, 521870, Control_c, 0, 64, 100
1, 521881, Note_off_c, 0, 73, 50
1, 521885, Control_c, 0, 64, 63
1, 521900, Control_c, 0, 64, 44
1, 521907, Note_on_c, 0, 61, 87
1, 521907, Note_on_c, 0, 67, 78
1, 521911, Note_on_c, 0, 49, 82
1, 521914, Control_c, 0, 64, 22
1, 521929, Control_c, 0, 64, 30
1, 521950, Note_off_c, 0, 49, 65
1, 521952, Control_c, 0, 64, 45
1, 521958, Note_off_c, 0, 67, 61
1, 521967, Control_c, 0, 64, 60
1, 521968, Note_off_c, 0, 61, 64
1, 521982, Control_c, 0, 64, 94
1, 521996, Control_c, 0, 64, 127
1, 522017, Note_on_c, 0, 67, 65
1, 522055, Note_off_c, 0, 67, 58
1, 522120, Note_on_c, 0, 65, 93
1, 522132, Note_on_c, 0, 53, 63
1, 522137, Note_on_c, 0, 67, 67
1, 522137, Note_off_c, 0, 65, 76
1, 522153, Note_off_c, 0, 53, 63
1, 522156, Note_off_c, 0, 67, 69
1, 522174, Control_c, 0, 64, 72
1, 522189, Control_c, 0, 64, 57
1, 522193, Poly_aftertouch_c, 0, 56, 127
1, 522203, Control_c, 0, 64, 48
1, 522214, Note_on_c, 0, 67, 76
1, 522218, Control_c, 0, 64, 54
1, 522231, Poly_aftertouch_c, 0, 56, 0
1, 522232, Note_on_c, 0, 63, 86
1, 522233, Control_c, 0, 64, 68
1, 522237, Note_on_c, 0, 51, 85
1, 522248, Control_c, 0, 64, 127
1, 522265, Note_off_c, 0, 67, 61
1, 522282, Note_off_c, 0, 63, 59
1, 522292, Note_off_c, 0, 51, 62
1, 522322, Note_on_c, 0, 68, 75
1, 522331, Note_on_c, 0, 72, 66
1, 522360, Note_off_c, 0, 72, 61
1, 522361, Note_off_c, 0, 68, 57
1, 522407, Note_on_c, 0, 72, 66
1, 522410, Note_off_c, 0, 75, 52
1, 522414, Note_on_c, 0, 68, 63
1, 522421, Note_on_c, 0, 60, 81
1, 522442, Note_off_c, 0, 60, 72
1, 522450, Note_on_c, 0, 48, 35
1, 522457, Control_c, 0, 64, 101
1, 522470, Note_off_c, 0, 68, 57
1, 522472, Control_c, 0, 64, 58
1, 522486, Note_off_c, 0, 48, 54
1, 522487, Control_c, 0, 64, 0
1, 522490, Note_off_c, 0, 72, 0
1, 522507, Note_on_c, 0, 72, 51
1, 522513, Note_on_c, 0, 68, 73
1, 522514, Note_on_c, 0, 63, 98
1, 522515, Note_on_c, 0, 75, 87
1, 522521, Note_on_c, 0, 58, 82
1, 522525, Note_on_c, 0, 46, 82
1, 522536, Note_off_c, 0, 63, 71
1, 522540, Note_off_c, 0, 58, 71
1, 522546, Control_c, 0, 64, 36
1, 522552, Note_off_c, 0, 46, 68
1, 522561, Control_c, 0, 64, 60
1, 522576, Control_c, 0, 64, 127
1, 522579, Note_off_c, 0, 68, 59
1, 522618, Note_on_c, 0, 63, 101
1, 522626, Note_on_c, 0, 68, 52
1, 522659, Note_off_c, 0, 63, 66
1, 522708, Note_off_c, 0, 75, 64
1, 522718, Note_off_c, 0, 68, 0
1, 522722, Note_on_c, 0, 60, 87
1, 522725, Note_on_c, 0, 63, 82
1, 522730, Note_on_c, 0, 48, 68
1, 522734, Note_on_c, 0, 68, 38
1, 522740, Note_off_c, 0, 60, 75
1, 522750, Note_off_c, 0, 48, 63
1, 522766, Note_off_c, 0, 63, 65
1, 522795, Note_off_c, 0, 68, 54
1, 522820, Poly_aftertouch_c, 0, 51, 0
1, 522829, Note_on_c, 0, 58, 91
1, 522831, Note_on_c, 0, 63, 99
1, 522832, Note_on_c, 0, 75, 85
1, 522834, Note_on_c, 0, 46, 79
1, 522838, Poly_aftertouch_c, 0, 51, 0
1, 522841, Note_on_c, 0, 68, 46
1, 522848, Note_off_c, 0, 58, 72
1, 522852, Note_off_c, 0, 46, 67
1, 522855, Note_off_c, 0, 63, 60
1, 522873, Note_off_c, 0, 68, 63
1, 522896, Note_off_c, 0, 72, 60
1, 522932, Note_on_c, 0, 63, 95
1, 522947, Note_on_c, 0, 73, 55
1, 522969, Note_off_c, 0, 73, 63
1, 522971, Note_off_c, 0, 63, 64
1, 522981, Note_off_c, 0, 75, 61
1, 523050, Poly_aftertouch_c, 0, 67, 0
1, 523061, Note_on_c, 0, 77, 87
1, 523063, Note_on_c, 0, 44, 68
1, 523066, Note_on_c, 0, 56, 60
1, 523067, Note_on_c, 0, 65, 69
1, 523081, Note_off_c, 0, 77, 66
1, 523085, Note_off_c, 0, 65, 69
1, 523088, Note_off_c, 0, 56, 63
1, 523092, Note_off_c, 0, 44, 62
1, 523251, Note_on_c, 0, 44, 55
1, 523256, Note_on_c, 0, 32, 58
1, 523265, Control_c, 0, 64, 71
1, 523280, Control_c, 0, 64, 47
1, 523284, Note_on_c, 0, 78, 96
1, 523295, Control_c, 0, 64, 0
1, 523297, Note_on_c, 0, 66, 70
1, 523301, Note_on_c, 0, 72, 58
1, 523311, Note_on_c, 0, 68, 56
1, 523339, Note_off_c, 0, 68, 53
1, 523339, Control_c, 0, 64, 28
1, 523341, Note_on_c, 0, 34, 19
1, 523350, Note_off_c, 0, 32, 63
1, 523351, Note_off_c, 0, 66, 62
1, 523354, Control_c, 0, 64, 42
1, 523365, Note_off_c, 0, 44, 61
1, 523366, Note_off_c, 0, 72, 59
1, 523369, Control_c, 0, 64, 60
1, 523372, Note_off_c, 0, 34, 51
1, 523384, Control_c, 0, 64, 89
1, 523399, Control_c, 0, 64, 127
1, 523453, Note_on_c, 0, 66, 58
1, 523455, Note_on_c, 0, 72, 53
1, 523463, Note_on_c, 0, 68, 28
1, 523471, Note_off_c, 0, 66, 64
1, 523494, Note_off_c, 0, 72, 63
1, 523503, Note_off_c, 0, 68, 52
1, 523563, Note_on_c, 0, 51, 79
1, 523568, Note_on_c, 0, 66, 57
1, 523572, Note_on_c, 0, 72, 65
1, 523575, Note_on_c, 0, 39, 53
1, 523586, Note_off_c, 0, 51, 71
1, 523594, Note_off_c, 0, 66, 61
1, 523603, Note_off_c, 0, 39, 57
1, 523607, Note_off_c, 0, 72, 57
1, 523613, Note_off_c, 0, 78, 62
1, 523658, Control_c, 0, 64, 88
1, 523673, Control_c, 0, 64, 62
1, 523682, Note_on_c, 0, 56, 88
1, 523685, Note_on_c, 0, 44, 79
1, 523685, Note_on_c, 0, 66, 81
1, 523687, Note_on_c, 0, 78, 89
1, 523688, Control_c, 0, 64, 45
1, 523692, Note_on_c, 0, 72, 78
1, 523702, Control_c, 0, 64, 41
1, 523715, Note_off_c, 0, 44, 62
1, 523717, Control_c, 0, 64, 52
1, 523723, Note_off_c, 0, 66, 60
1, 523724, Note_on_c, 0, 54, 31
1, 523732, Control_c, 0, 64, 64
1, 523736, Note_off_c, 0, 56, 63
1, 523747, Note_off_c, 0, 72, 61
1, 523747, Control_c, 0, 64, 127
1, 523761, Note_off_c, 0, 54, 51
1, 523781, Poly_aftertouch_c, 0, 72, 0
1, 523790, Note_on_c, 0, 72, 63
1, 523795, Note_on_c, 0, 66, 68
1, 523822, Note_off_c, 0, 66, 66
1, 523843, Note_off_c, 0, 72, 62
1, 523885, Note_on_c, 0, 62, 87
1, 523889, Note_on_c, 0, 66, 75
1, 523894, Note_on_c, 0, 72, 63
1, 523905, Note_off_c, 0, 62, 71
1, 523914, Note_on_c, 0, 50, 34
1, 523914, Note_off_c, 0, 66, 66
1, 523932, Note_off_c, 0, 72, 63
1, 523950, Note_off_c, 0, 50, 55
1, 523952, Poly_aftertouch_c, 0, 56, 127
1, 523990, Note_on_c, 0, 63, 93
1, 523991, Note_on_c, 0, 51, 76
1, 523994, Note_on_c, 0, 72, 72
1, 523998, Note_on_c, 0, 66, 77
1, 524004, Poly_aftertouch_c, 0, 56, 0
1, 524010, Note_off_c, 0, 63, 70
1, 524015, Note_off_c, 0, 51, 71
1, 524020, Note_off_c, 0, 66, 69
1, 524043, Note_off_c, 0, 72, 61
1, 524096, Note_on_c, 0, 72, 64
1, 524101, Note_on_c, 0, 66, 74
1, 524124, Note_off_c, 0, 66, 62
1, 524149, Note_off_c, 0, 72, 62
1, 524193, Poly_aftertouch_c, 0, 72, 0
1, 524196, Note_on_c, 0, 66, 87
1, 524197, Note_on_c, 0, 70, 83
1, 524202, Note_on_c, 0, 72, 56
1, 524203, Note_on_c, 0, 58, 67
1, 524212, Note_off_c, 0, 70, 70
1, 524214, Control_c, 0, 64, 91
1, 524221, Note_off_c, 0, 58, 65
1, 524229, Note_off_c, 0, 66, 55
1, 524229, Control_c, 0, 64, 62
1, 524244, Control_c, 0, 64, 51
1, 524245, Note_off_c, 0, 72, 62
1, 524259, Control_c, 0, 64, 52
1, 524273, Control_c, 0, 64, 63
1, 524288, Control_c, 0, 64, 101
1, 524293, Note_on_c, 0, 68, 94
1, 524297, Note_on_c, 0, 72, 68
1, 524302, Note_on_c, 0, 56, 80
1, 524303, Control_c, 0, 64, 127
1, 524304, Note_on_c, 0, 66, 74
1, 524331, Note_on_c, 0, 58, 15
1, 524331, Note_off_c, 0, 66, 66
1, 524332, Note_off_c, 0, 56, 62
1, 524344, Note_off_c, 0, 68, 58
1, 524347, Note_off_c, 0, 72, 62
1, 524360, Note_off_c, 0, 58, 57
1, 524398, Note_on_c, 0, 72, 70
1, 524401, Note_on_c, 0, 66, 72
1, 524427, Note_off_c, 0, 66, 68
1, 524444, Note_off_c, 0, 72, 60
1, 524490, Note_on_c, 0, 65, 91
1, 524493, Note_on_c, 0, 66, 66
1, 524493, Note_on_c, 0, 72, 67
1, 524500, Note_on_c, 0, 53, 73
1, 524508, Note_off_c, 0, 65, 76
1, 524517, Note_off_c, 0, 53, 68
1, 524519, Note_off_c, 0, 78, 65
1, 524521, Note_off_c, 0, 66, 66
1, 524546, Note_off_c, 0, 72, 63
1, 524555, Control_c, 0, 64, 83
1, 524570, Control_c, 0, 64, 57
1, 524585, Control_c, 0, 64, 27
1, 524599, Control_c, 0, 64, 12
1, 524600, Note_on_c, 0, 78, 94
1, 524602, Note_on_c, 0, 72, 78
1, 524603, Note_on_c, 0, 66, 83
1, 524609, Note_on_c, 0, 63, 88
1, 524612, Note_on_c, 0, 51, 80
1, 524614, Control_c, 0, 64, 36
1, 524624, Note_off_c, 0, 66, 65
1, 524626, Note_on_c, 0, 68, 46
1, 524627, Note_off_c, 0, 63, 75
1, 524629, Control_c, 0, 64, 53
1, 524630, Note_off_c, 0, 51, 67
1, 524644, Control_c, 0, 64, 73
1, 524656, Note_off_c, 0, 68, 35
1, 524659, Control_c, 0, 64, 127
1, 524660, Note_off_c, 0, 72, 61
1, 524698, Note_on_c, 0, 66, 89
1, 524742, Note_off_c, 0, 66, 61
1, 524743, Poly_aftertouch_c, 0, 72, 127
1, 524782, Poly_aftertouch_c, 0, 72, 0
1, 524791, Note_on_c, 0, 65, 92
1, 524801, Note_on_c, 0, 53, 70
1, 524806, Note_on_c, 0, 66, 74
1, 524806, Note_off_c, 0, 65, 76
1, 524809, Note_on_c, 0, 56, 48
1, 524814, Note_on_c, 0, 73, 71
1, 524821, Note_off_c, 0, 53, 64
1, 524826, Note_off_c, 0, 66, 64
1, 524829, Note_off_c, 0, 78, 66
1, 524836, Note_off_c, 0, 56, 62
1, 524861, Note_off_c, 0, 73, 63
1, 524904, Note_on_c, 0, 66, 83
1, 524906, Note_on_c, 0, 63, 93
1, 524910, Note_on_c, 0, 51, 78
1, 524910, Note_on_c, 0, 78, 77
1, 524915, Note_on_c, 0, 77, 82
1, 524925, Note_on_c, 0, 73, 45
1, 524925, Note_off_c, 0, 63, 73
1, 524927, Note_off_c, 0, 51, 69
1, 524930, Note_off_c, 0, 66, 64
1, 524958, Note_off_c, 0, 73, 59
1, 524996, Note_on_c, 0, 66, 86
1, 525035, Note_off_c, 0, 66, 63
1, 525037, Note_off_c, 0, 78, 65
1, 525057, Note_off_c, 0, 77, 58
1, 525095, Note_on_c, 0, 65, 73
1, 525098, Note_on_c, 0, 61, 86
1, 525102, Note_on_c, 0, 49, 86
1, 525116, Note_on_c, 0, 76, 66
1, 525117, Note_off_c, 0, 61, 72
1, 525124, Note_off_c, 0, 49, 70
1, 525127, Note_on_c, 0, 77, 53
1, 525139, Note_off_c, 0, 76, 54
1, 525147, Note_off_c, 0, 77, 60
1, 525167, Note_on_c, 0, 68, 81
1, 525168, Note_off_c, 0, 65, 63
1, 525196, Note_on_c, 0, 75, 67
1, 525211, Note_off_c, 0, 68, 61
1, 525224, Note_off_c, 0, 75, 64
1, 525244, Control_c, 0, 64, 78
1, 525248, Note_on_c, 0, 59, 98
1, 525253, Note_on_c, 0, 47, 92
1, 525253, Poly_aftertouch_c, 0, 61, 0
1, 525259, Control_c, 0, 64, 52
1, 525274, Control_c, 0, 64, 0
1, 525283, Note_off_c, 0, 59, 63
1, 525296, Note_on_c, 0, 80, 104
1, 525297, Poly_aftertouch_c, 0, 49, 127
1, 525314, Note_off_c, 0, 47, 61
1, 525318, Control_c, 0, 64, 33
1, 525333, Control_c, 0, 64, 52
1, 525340, Poly_aftertouch_c, 0, 49, 0
1, 525347, Control_c, 0, 64, 78
1, 525362, Control_c, 0, 64, 127
1, 525439, Note_on_c, 0, 75, 77
1, 525444, Note_on_c, 0, 68, 76
1, 525461, Note_off_c, 0, 68, 66
1, 525483, Note_off_c, 0, 75, 57
1, 525515, Note_off_c, 0, 80, 55
1, 525549, Note_on_c, 0, 68, 70
1, 525549, Note_on_c, 0, 75, 83
1, 525551, Note_on_c, 0, 47, 98
1, 525566, Note_on_c, 0, 35, 64
1, 525570, Note_off_c, 0, 47, 73
1, 525570, Note_off_c, 0, 68, 70
1, 525586, Note_on_c, 0, 37, 29
1, 525593, Note_off_c, 0, 35, 57
1, 525596, Note_off_c, 0, 75, 60
1, 525621, Note_off_c, 0, 37, 56
1, 525697, Control_c, 0, 64, 72
1, 525705, Note_on_c, 0, 46, 99
1, 525706, Note_on_c, 0, 34, 89
1, 525711, Control_c, 0, 64, 49
1, 525726, Control_c, 0, 64, 0
1, 525732, Note_on_c, 0, 74, 99
1, 525736, Note_on_c, 0, 68, 96
1, 525736, Note_on_c, 0, 80, 95
1, 525763, Note_off_c, 0, 68, 56
1, 525774, Note_off_c, 0, 34, 64
1, 525782, Note_off_c, 0, 46, 66
1, 525785, Control_c, 0, 64, 26
1, 525800, Control_c, 0, 64, 45
1, 525801, Note_off_c, 0, 74, 64
1, 525815, Control_c, 0, 64, 62
1, 525830, Control_c, 0, 64, 115
1, 525844, Control_c, 0, 64, 127
1, 525867, Note_on_c, 0, 74, 81
1, 525872, Note_on_c, 0, 68, 75
1, 525891, Note_off_c, 0, 68, 67
1, 525912, Note_off_c, 0, 74, 66
1, 525963, Note_on_c, 0, 53, 95
1, 525975, Note_on_c, 0, 68, 78
1, 525977, Note_on_c, 0, 74, 74
1, 525983, Note_off_c, 0, 53, 74
1, 525996, Note_off_c, 0, 68, 67
1, 526004, Note_on_c, 0, 41, 14
1, 526022, Note_off_c, 0, 74, 61
1, 526047, Note_off_c, 0, 41, 48
1, 526065, Poly_aftertouch_c, 0, 74, 0
1, 526067, Poly_aftertouch_c, 0, 44, 0
1, 526072, Note_on_c, 0, 58, 93
1, 526073, Note_on_c, 0, 74, 78
1, 526074, Note_on_c, 0, 46, 85
1, 526075, Note_on_c, 0, 68, 86
1, 526090, Note_off_c, 0, 58, 70
1, 526094, Note_off_c, 0, 46, 69
1, 526098, Note_off_c, 0, 68, 68
1, 526132, Note_off_c, 0, 74, 63
1, 526185, Note_on_c, 0, 74, 78
1, 526204, Note_on_c, 0, 68, 57
1, 526219, Note_off_c, 0, 68, 69
1, 526249, Note_off_c, 0, 74, 63
1, 526287, Note_on_c, 0, 74, 63
1, 526298, Note_on_c, 0, 72, 80
1, 526301, Note_on_c, 0, 68, 50
1, 526301, Note_on_c, 0, 71, 72
1, 526314, Note_on_c, 0, 60, 53
1, 526314, Note_off_c, 0, 72, 71
1, 526318, Note_off_c, 0, 71, 71
1, 526331, Note_off_c, 0, 68, 55
1, 526334, Note_off_c, 0, 60, 63
1, 526344, Note_off_c, 0, 74, 63
1, 526383, Note_on_c, 0, 74, 69
1, 526388, Note_on_c, 0, 70, 97
1, 526392, Note_on_c, 0, 68, 84
1, 526394, Note_on_c, 0, 58, 90
1, 526417, Note_off_c, 0, 68, 64
1, 526423, Note_off_c, 0, 58, 64
1, 526435, Note_off_c, 0, 70, 60
1, 526454, Note_off_c, 0, 74, 64
1, 526473, Poly_aftertouch_c, 0, 60, 127
1, 526494, Poly_aftertouch_c, 0, 74, 0
1, 526502, Note_on_c, 0, 74, 64
1, 526505, Poly_aftertouch_c, 0, 60, 0
1, 526509, Note_on_c, 0, 68, 80
1, 526532, Note_off_c, 0, 68, 62
1, 526549, Note_off_c, 0, 74, 65
1, 526600, Note_on_c, 0, 67, 95
1, 526603, Note_on_c, 0, 74, 75
1, 526608, Note_on_c, 0, 68, 74
1, 526613, Note_on_c, 0, 55, 65
1, 526617, Note_off_c, 0, 67, 72
1, 526625, Note_on_c, 0, 58, 42
1, 526627, Note_off_c, 0, 80, 61
1, 526633, Note_off_c, 0, 55, 65
1, 526636, Note_off_c, 0, 68, 64
1, 526640, Note_off_c, 0, 58, 69
1, 526648, Note_off_c, 0, 74, 66
1, 526668, Control_c, 0, 64, 84
1, 526683, Control_c, 0, 64, 51
1, 526698, Control_c, 0, 64, 0
1, 526704, Note_on_c, 0, 65, 102
1, 526706, Note_on_c, 0, 74, 90
1, 526709, Note_on_c, 0, 53, 92
1, 526710, Note_on_c, 0, 80, 92
1, 526712, Note_on_c, 0, 70, 83
1, 526713, Note_on_c, 0, 68, 79
1, 526727, Note_off_c, 0, 65, 67
1, 526728, Note_off_c, 0, 53, 72
1, 526731, Note_off_c, 0, 70, 66
1, 526733, Note_off_c, 0, 68, 71
1, 526742, Control_c, 0, 64, 24
1, 526752, Note_on_c, 0, 56, 16
1, 526753, Note_off_c, 0, 56, 127
1, 526757, Control_c, 0, 64, 45
1, 526759, Note_off_c, 0, 74, 66
1, 526772, Control_c, 0, 64, 65
1, 526786, Control_c, 0, 64, 127
1, 526795, Poly_aftertouch_c, 0, 56, 0
1, 526809, Note_on_c, 0, 74, 80
1, 526819, Note_on_c, 0, 70, 57
1, 526821, Note_on_c, 0, 68, 72
1, 526845, Note_off_c, 0, 68, 66
1, 526848, Note_off_c, 0, 70, 64
1, 526882, Note_off_c, 0, 74, 58
1, 526892, Note_on_c, 0, 67, 89
1, 526910, Note_off_c, 0, 67, 72
1, 526915, Note_on_c, 0, 55, 48
1, 526915, Note_on_c, 0, 70, 66
1, 526919, Note_on_c, 0, 68, 68
1, 526925, Note_on_c, 0, 57, 28
1, 526943, Note_off_c, 0, 55, 58
1, 526946, Note_off_c, 0, 68, 62
1, 526947, Note_off_c, 0, 70, 55
1, 526952, Note_off_c, 0, 80, 61
1, 526965, Note_off_c, 0, 57, 48
1, 527006, Note_on_c, 0, 80, 86
1, 527007, Note_on_c, 0, 65, 86
1, 527011, Note_on_c, 0, 68, 99
1, 527012, Note_on_c, 0, 53, 83
1, 527012, Note_on_c, 0, 75, 94
1, 527026, Note_off_c, 0, 65, 75
1, 527029, Note_off_c, 0, 53, 70
1, 527031, Note_on_c, 0, 64, 52
1, 527032, Note_off_c, 0, 64, 127
1, 527044, Note_off_c, 0, 68, 58
1, 527052, Note_on_c, 0, 55, 19
1, 527094, Note_off_c, 0, 55, 51
1, 527125, Note_on_c, 0, 68, 81
1, 527152, Note_off_c, 0, 68, 54
1, 527164, Note_off_c, 0, 80, 61
1, 527173, Note_off_c, 0, 75, 57
1, 527238, Note_on_c, 0, 79, 95
1, 527240, Note_on_c, 0, 63, 88
1, 527243, Note_on_c, 0, 67, 90
1, 527247, Note_on_c, 0, 51, 79
1, 527259, Note_off_c, 0, 63, 76
1, 527262, Note_off_c, 0, 67, 73
1, 527271, Note_off_c, 0, 79, 66
1, 527274, Note_off_c, 0, 51, 65
1, 527387, Control_c, 0, 64, 64
1, 527402, Control_c, 0, 64, 44
1, 527413, Note_on_c, 0, 77, 97
1, 527417, Control_c, 0, 64, 26
1, 527417, Note_on_c, 0, 61, 88
1, 527419, Note_on_c, 0, 67, 87
1, 527419, Note_on_c, 0, 70, 89
1, 527423, Note_on_c, 0, 49, 77
1, 527432, Control_c, 0, 64, 37
1, 527434, Note_off_c, 0, 67, 76
1, 527438, Note_off_c, 0, 61, 70
1, 527438, Note_off_c, 0, 70, 67
1, 527447, Control_c, 0, 64, 52
1, 527449, Note_off_c, 0, 49, 68
1, 527462, Control_c, 0, 64, 65
1, 527477, Control_c, 0, 64, 127
1, 527515, Note_on_c, 0, 67, 73
1, 527520, Note_on_c, 0, 70, 69
1, 527536, Note_off_c, 0, 67, 67
1, 527539, Note_off_c, 0, 70, 68
1, 527543, Note_off_c, 0, 77, 63
1, 527623, Note_on_c, 0, 63, 77
1, 527624, Note_on_c, 0, 79, 86
1, 527627, Note_on_c, 0, 67, 77
1, 527633, Note_on_c, 0, 51, 63
1, 527640, Note_off_c, 0, 63, 71
1, 527643, Note_off_c, 0, 79, 70
1, 527644, Note_off_c, 0, 67, 70
1, 527656, Note_off_c, 0, 51, 60
1, 527713, Poly_aftertouch_c, 0, 70, 0
1, 527718, Note_on_c, 0, 61, 89
1, 527721, Note_on_c, 0, 49, 92
1, 527721, Note_on_c, 0, 67, 85
1, 527723, Note_on_c, 0, 77, 93
1, 527733, Note_on_c, 0, 70, 41
1, 527736, Note_off_c, 0, 61, 75
1, 527743, Note_off_c, 0, 49, 68
1, 527746, Note_off_c, 0, 67, 65
1, 527760, Note_off_c, 0, 70, 55
1, 527825, Note_on_c, 0, 70, 74
1, 527840, Note_on_c, 0, 67, 60
1, 527871, Note_off_c, 0, 67, 47
1, 527890, Note_off_c, 0, 77, 56
1, 527904, Note_on_c, 0, 75, 78
1, 527909, Note_on_c, 0, 39, 66
1, 527913, Note_off_c, 0, 70, 61
1, 527940, Note_off_c, 0, 39, 63
1, 527955, Note_off_c, 0, 75, 59
1, 527958, Control_c, 0, 64, 107
1, 527973, Control_c, 0, 64, 61
1, 527980, Poly_aftertouch_c, 0, 49, 127
1, 527988, Control_c, 0, 64, 40
1, 528001, Note_on_c, 0, 48, 99
1, 528003, Control_c, 0, 64, 38
1, 528005, Note_on_c, 0, 80, 90
1, 528010, Note_on_c, 0, 36, 77
1, 528013, Note_on_c, 0, 68, 78
1, 528013, Poly_aftertouch_c, 0, 49, 0
1, 528018, Control_c, 0, 64, 55
1, 528020, Note_off_c, 0, 48, 74
1, 528021, Note_on_c, 0, 70, 62
1, 528023, Note_on_c, 0, 37, 51
1, 528032, Note_off_c, 0, 36, 63
1, 528033, Control_c, 0, 64, 79
1, 528035, Note_off_c, 0, 68, 68
1, 528044, Note_off_c, 0, 70, 60
1, 528047, Control_c, 0, 64, 127
1, 528050, Note_off_c, 0, 37, 55
1, 528091, Note_on_c, 0, 78, 74
1, 528100, Note_on_c, 0, 68, 59
1, 528112, Poly_aftertouch_c, 0, 42, 0
1, 528114, Note_off_c, 0, 80, 67
1, 528120, Note_off_c, 0, 68, 61
1, 528126, Note_off_c, 0, 78, 57
1, 528191, Note_on_c, 0, 60, 88
1, 528200, Note_on_c, 0, 48, 65
1, 528205, Note_on_c, 0, 75, 71
1, 528210, Note_off_c, 0, 60, 74
1, 528218, Note_off_c, 0, 48, 67
1, 528234, Note_off_c, 0, 75, 64
1, 528237, Note_on_c, 0, 64, 30
1, 528269, Poly_aftertouch_c, 0, 51, 127
1, 528269, Control_c, 0, 64, 103
1, 528274, Note_off_c, 0, 64, 51
1, 528284, Control_c, 0, 64, 61
1, 528296, Poly_aftertouch_c, 0, 51, 0
1, 528299, Control_c, 0, 64, 33
1, 528302, Note_on_c, 0, 48, 79
1, 528305, Note_on_c, 0, 73, 90
1, 528305, Note_on_c, 0, 60, 82
1, 528305, Note_on_c, 0, 68, 92
1, 528307, Note_on_c, 0, 65, 86
1, 528314, Control_c, 0, 64, 0
1, 528323, Note_off_c, 0, 60, 74
1, 528326, Note_off_c, 0, 65, 75
1, 528329, Control_c, 0, 64, 12
1, 528330, Note_off_c, 0, 48, 69
1, 528344, Control_c, 0, 64, 38
1, 528355, Note_off_c, 0, 68, 61
1, 528358, Control_c, 0, 64, 54
1, 528371, Poly_aftertouch_c, 0, 51, 0
1, 528373, Control_c, 0, 64, 78
1, 528388, Control_c, 0, 64, 127
1, 528393, Poly_aftertouch_c, 0, 51, 0
1, 528402, Note_on_c, 0, 65, 81
1, 528448, Note_off_c, 0, 65, 62
1, 528460, Note_off_c, 0, 73, 60
1, 528472, Poly_aftertouch_c, 0, 74, 127
1, 528498, Note_on_c, 0, 48, 87
1, 528500, Poly_aftertouch_c, 0, 74, 0
1, 528516, Note_on_c, 0, 75, 83
1, 528517, Note_on_c, 0, 38, 60
1, 528523, Note_off_c, 0, 48, 70
1, 528536, Note_on_c, 0, 39, 26
1, 528541, Note_off_c, 0, 75, 62
1, 528547, Note_off_c, 0, 38, 54
1, 528577, Note_off_c, 0, 39, 43
1, 528579, Control_c, 0, 64, 62
1, 528594, Control_c, 0, 64, 34
1, 528606, Note_on_c, 0, 46, 90
1, 528606, Note_on_c, 0, 73, 63
1, 528606, Note_on_c, 0, 64, 90
1, 528609, Control_c, 0, 64, 0
1, 528615, Note_on_c, 0, 34, 76
1, 528624, Control_c, 0, 64, 13
1, 528627, Note_off_c, 0, 46, 72
1, 528636, Note_off_c, 0, 34, 61
1, 528639, Control_c, 0, 64, 36
1, 528648, Note_off_c, 0, 64, 61
1, 528651, Note_off_c, 0, 73, 58
1, 528654, Control_c, 0, 64, 51
1, 528669, Control_c, 0, 64, 69
1, 528690, Control_c, 0, 64, 127
1, 528714, Note_on_c, 0, 67, 87
1, 528758, Note_off_c, 0, 67, 60
1, 528812, Note_on_c, 0, 58, 82
1, 528812, Note_on_c, 0, 72, 87
1, 528818, Note_on_c, 0, 46, 72
1, 528825, Control_c, 0, 64, 81
1, 528834, Note_on_c, 0, 73, 50
1, 528836, Note_off_c, 0, 58, 70
1, 528838, Note_off_c, 0, 46, 67
1, 528840, Control_c, 0, 64, 62
1, 528854, Note_off_c, 0, 72, 66
1, 528854, Control_c, 0, 64, 46
1, 528857, Note_off_c, 0, 73, 60
1, 528869, Control_c, 0, 64, 31
1, 528884, Control_c, 0, 64, 30
1, 528899, Control_c, 0, 64, 42
1, 528906, Note_on_c, 0, 77, 98
1, 528908, Note_on_c, 0, 56, 84
1, 528910, Note_on_c, 0, 72, 82
1, 528912, Note_on_c, 0, 44, 81
1, 528913, Note_on_c, 0, 65, 85
1, 528913, Control_c, 0, 64, 61
1, 528928, Control_c, 0, 64, 127
1, 528929, Note_off_c, 0, 56, 70
1, 528931, Note_on_c, 0, 46, 38
1, 528932, Note_off_c, 0, 65, 74
1, 528936, Note_off_c, 0, 44, 67
1, 528943, Note_off_c, 0, 72, 53
1, 528963, Note_off_c, 0, 46, 55
1, 529019, Note_on_c, 0, 65, 82
1, 529026, Note_off_c, 0, 77, 64
1, 529042, Note_off_c, 0, 65, 71
1, 529141, Note_on_c, 0, 44, 68
1, 529143, Note_on_c, 0, 72, 78
1, 529145, Note_on_c, 0, 60, 88
1, 529159, Note_off_c, 0, 44, 65
1, 529163, Note_on_c, 0, 32, 35
1, 529165, Note_off_c, 0, 60, 72
1, 529171, Note_on_c, 0, 65, 46
1, 529194, Note_off_c, 0, 72, 56
1, 529201, Note_off_c, 0, 32, 54
1, 529203, Note_off_c, 0, 65, 53
1, 529270, Control_c, 0, 64, 91
1, 529285, Control_c, 0, 64, 60
1, 529300, Control_c, 0, 64, 31
1, 529314, Control_c, 0, 64, 14
1, 529317, Note_on_c, 0, 72, 74
1, 529322, Note_on_c, 0, 60, 71
1, 529325, Note_on_c, 0, 49, 73
1, 529328, Note_on_c, 0, 37, 68
1, 529329, Control_c, 0, 64, 29
1, 529344, Note_off_c, 0, 60, 66
1, 529344, Control_c, 0, 64, 44
1, 529355, Note_off_c, 0, 49, 66
1, 529359, Control_c, 0, 64, 60
1, 529368, Note_off_c, 0, 37, 63
1, 529374, Control_c, 0, 64, 98
1, 529388, Control_c, 0, 64, 127
1, 529407, Note_on_c, 0, 60, 67
1, 529409, Note_on_c, 0, 65, 64
1, 529432, Note_off_c, 0, 72, 60
1, 529439, Note_off_c, 0, 60, 68
1, 529506, Note_on_c, 0, 70, 80
1, 529515, Note_on_c, 0, 53, 62
1, 529536, Note_off_c, 0, 53, 63
1, 529536, Note_on_c, 0, 41, 34
1, 529575, Control_c, 0, 64, 65
1, 529577, Note_off_c, 0, 41, 52
1, 529590, Control_c, 0, 64, 31
1, 529590, Note_off_c, 0, 70, 61
1, 529604, Control_c, 0, 64, 0
1, 529606, Note_off_c, 0, 65, 0
1, 529606, Note_on_c, 0, 65, 36
1, 529611, Note_on_c, 0, 45, 95
1, 529614, Note_on_c, 0, 61, 97
1, 529615, Note_on_c, 0, 73, 89
1, 529617, Note_on_c, 0, 33, 89
1, 529632, Note_off_c, 0, 45, 72
1, 529634, Control_c, 0, 64, 34
1, 529641, Note_off_c, 0, 61, 67
1, 529643, Note_off_c, 0, 33, 68
1, 529649, Control_c, 0, 64, 53
1, 529664, Control_c, 0, 64, 78
1, 529676, Note_off_c, 0, 65, 64
1, 529678, Control_c, 0, 64, 127
1, 529721, Note_on_c, 0, 61, 89
1, 529724, Note_on_c, 0, 65, 50
1, 529754, Note_off_c, 0, 61, 66
1, 529757, Note_off_c, 0, 73, 64
1, 529779, Note_off_c, 0, 65, 57
1, 529832, Note_on_c, 0, 53, 78
1, 529837, Note_on_c, 0, 60, 83
1, 529840, Note_on_c, 0, 72, 73
1, 529844, Note_on_c, 0, 43, 59
1, 529844, Note_on_c, 0, 65, 63
1, 529849, Note_off_c, 0, 53, 68
1, 529858, Note_off_c, 0, 60, 69
1, 529869, Note_on_c, 0, 74, 40
1, 529870, Note_off_c, 0, 74, 127
1, 529873, Note_off_c, 0, 43, 56
1, 529878, Note_on_c, 0, 62, 30
1, 529879, Note_off_c, 0, 62, 127
1, 529885, Note_off_c, 0, 72, 63
1, 529903, Note_on_c, 0, 71, 12
1, 529906, Poly_aftertouch_c, 0, 41, 127
1, 529912, Note_on_c, 0, 41, 10
1, 529917, Poly_aftertouch_c, 0, 62, 0
1, 529930, Control_c, 0, 64, 67
1, 529933, Note_off_c, 0, 65, 0
1, 529945, Note_off_c, 0, 71, 55
1, 529945, Control_c, 0, 64, 42
1, 529950, Note_off_c, 0, 41, 47
1, 529951, Note_on_c, 0, 65, 52
1, 529960, Control_c, 0, 64, 0
1, 529963, Note_on_c, 0, 46, 101
1, 529963, Note_on_c, 0, 63, 98
1, 529963, Note_on_c, 0, 75, 92
1, 529975, Note_on_c, 0, 35, 66
1, 529978, Note_on_c, 0, 37, 56
1, 529979, Note_off_c, 0, 37, 127
1, 529981, Note_off_c, 0, 46, 74
1, 529998, Note_off_c, 0, 35, 59
1, 530004, Control_c, 0, 64, 23
1, 530019, Note_on_c, 0, 66, 3
1, 530020, Note_off_c, 0, 66, 127
1, 530020, Control_c, 0, 64, 43
1, 530023, Note_on_c, 0, 72, 21
1, 530031, Note_off_c, 0, 75, 61
1, 530032, Note_off_c, 0, 63, 64
1, 530034, Control_c, 0, 64, 61
1, 530040, Poly_aftertouch_c, 0, 69, 127
1, 530049, Control_c, 0, 64, 103
1, 530063, Control_c, 0, 64, 127
1, 530065, Note_off_c, 0, 72, 53
1, 530080, Note_off_c, 0, 65, 62
1, 530080, Poly_aftertouch_c, 0, 69, 0
1, 530112, Note_on_c, 0, 65, 47
1, 530117, Note_on_c, 0, 73, 84
1, 530119, Note_on_c, 0, 61, 96
1, 530195, Note_off_c, 0, 61, 62
1, 530198, Note_off_c, 0, 73, 62
1, 530236, Note_off_c, 0, 65, 62
1, 530272, Note_on_c, 0, 68, 95
1, 530276, Note_on_c, 0, 53, 94
1, 530276, Note_on_c, 0, 61, 94
1, 530281, Note_on_c, 0, 41, 83
1, 530294, Note_off_c, 0, 53, 74
1, 530302, Note_on_c, 0, 44, 44
1, 530307, Note_off_c, 0, 41, 68
1, 530324, Note_off_c, 0, 61, 61
1, 530332, Note_off_c, 0, 44, 56
1, 530465, Note_off_c, 0, 68, 55
1, 530516, Control_c, 0, 64, 70
1, 530518, Note_on_c, 0, 68, 92
1, 530520, Note_on_c, 0, 39, 96
1, 530520, Note_on_c, 0, 60, 99
1, 530521, Note_on_c, 0, 63, 94
1, 530522, Note_on_c, 0, 72, 92
1, 530523, Note_on_c, 0, 27, 97
1, 530531, Control_c, 0, 64, 40
1, 530539, Note_on_c, 0, 37, 63
1, 530540, Note_off_c, 0, 37, 127
1, 530546, Control_c, 0, 64, 0
1, 530563, Note_off_c, 0, 27, 58
1, 530605, Note_off_c, 0, 39, 63
1, 530608, Note_off_c, 0, 60, 57
1, 530620, Control_c, 0, 64, 25
1, 530624, Note_off_c, 0, 63, 63
1, 530634, Control_c, 0, 64, 44
1, 530639, Note_off_c, 0, 68, 59
1, 530649, Control_c, 0, 64, 60
1, 530664, Control_c, 0, 64, 82
1, 530678, Control_c, 0, 64, 127
1, 530711, Note_on_c, 0, 60, 75
1, 530717, Note_on_c, 0, 68, 59
1, 530724, Note_on_c, 0, 63, 60
1, 530735, Note_off_c, 0, 60, 64
1, 530745, Note_off_c, 0, 63, 70
1, 530757, Note_off_c, 0, 68, 57
1, 530812, Note_on_c, 0, 51, 83
1, 530818, Note_on_c, 0, 63, 60
1, 530821, Note_on_c, 0, 39, 67
1, 530823, Note_on_c, 0, 60, 64
1, 530824, Note_on_c, 0, 68, 52
1, 530835, Note_off_c, 0, 51, 70
1, 530842, Note_off_c, 0, 60, 64
1, 530844, Note_off_c, 0, 39, 66
1, 530848, Note_off_c, 0, 63, 67
1, 530858, Note_off_c, 0, 68, 63
1, 530915, Note_on_c, 0, 53, 91
1, 530917, Note_on_c, 0, 68, 84
1, 530930, Note_on_c, 0, 41, 80
1, 530931, Note_on_c, 0, 62, 80
1, 530955, Note_off_c, 0, 53, 64
1, 530956, Note_off_c, 0, 41, 67
1, 530961, Note_off_c, 0, 62, 64
1, 530988, Note_off_c, 0, 68, 59
1, 531036, Note_on_c, 0, 68, 74
1, 531057, Note_on_c, 0, 62, 59
1, 531080, Note_off_c, 0, 62, 61
1, 531094, Note_off_c, 0, 68, 59
1, 531143, Note_on_c, 0, 51, 87
1, 531146, Note_on_c, 0, 68, 70
1, 531148, Note_on_c, 0, 39, 72
1, 531152, Note_on_c, 0, 62, 63
1, 531161, Note_off_c, 0, 51, 75
1, 531161, Note_off_c, 0, 72, 62
1, 531168, Note_off_c, 0, 62, 70
1, 531180, Note_off_c, 0, 39, 67
1, 531193, Note_off_c, 0, 68, 59
1, 531280, Control_c, 0, 64, 88
1, 531295, Control_c, 0, 64, 62
1, 531301, Note_on_c, 0, 61, 101
1, 531304, Note_on_c, 0, 63, 97
1, 531306, Note_on_c, 0, 72, 93
1, 531308, Note_on_c, 0, 55, 103
1, 531309, Control_c, 0, 64, 34
1, 531316, Note_on_c, 0, 43, 82
1, 531322, Note_on_c, 0, 70, 60
1, 531324, Control_c, 0, 64, 0
1, 531340, Note_off_c, 0, 55, 65
1, 531343, Note_off_c, 0, 43, 68
1, 531354, Control_c, 0, 64, 16
1, 531369, Control_c, 0, 64, 35
1, 531383, Control_c, 0, 64, 51
1, 531385, Note_off_c, 0, 61, 61
1, 531391, Note_off_c, 0, 70, 38
1, 531398, Control_c, 0, 64, 73
1, 531413, Control_c, 0, 64, 127
1, 531426, Poly_aftertouch_c, 0, 45, 0
1, 531453, Note_off_c, 0, 72, 60
1, 531492, Note_on_c, 0, 61, 75
1, 531499, Poly_aftertouch_c, 0, 68, 127
1, 531534, Note_off_c, 0, 61, 60
1, 531555, Note_off_c, 0, 63, 33
1, 531557, Poly_aftertouch_c, 0, 68, 0
1, 531634, Note_on_c, 0, 51, 93
1, 531635, Note_on_c, 0, 61, 101
1, 531637, Note_on_c, 0, 70, 96
1, 531638, Note_on_c, 0, 39, 85
1, 531653, Note_off_c, 0, 51, 72
1, 531663, Note_off_c, 0, 39, 68
1, 531709, Note_off_c, 0, 61, 57
1, 531759, Note_off_c, 0, 70, 55
1, 531849, Control_c, 0, 64, 90
1, 531864, Note_on_c, 0, 68, 105
1, 531864, Control_c, 0, 64, 58
1, 531866, Note_on_c, 0, 44, 97
1, 531867, Note_on_c, 0, 63, 88
1, 531870, Note_on_c, 0, 60, 89
1, 531871, Note_on_c, 0, 32, 91
1, 531879, Control_c, 0, 64, 0
1, 531912, Note_on_c, 0, 34, 27
1, 531929, Note_off_c, 0, 60, 61
1, 531954, Control_c, 0, 64, 13
1, 531958, Note_off_c, 0, 32, 62
1, 531962, Note_off_c, 0, 34, 47
1, 531969, Control_c, 0, 64, 40
1, 531980, Note_off_c, 0, 63, 61
1, 531981, Note_off_c, 0, 44, 61
1, 531984, Control_c, 0, 64, 57
1, 531997, Note_off_c, 0, 68, 58
1, 531999, Control_c, 0, 64, 79
1, 532013, Control_c, 0, 64, 127
1, 532234, Note_on_c, 0, 75, 90
1, 532238, Note_on_c, 0, 51, 85
1, 532238, Note_on_c, 0, 63, 81
1, 532249, Note_on_c, 0, 39, 64
1, 532255, Note_off_c, 0, 63, 72
1, 532259, Note_off_c, 0, 51, 72
1, 532259, Note_off_c, 0, 75, 59
1, 532270, Note_off_c, 0, 39, 63
1, 532412, Control_c, 0, 64, 83
1, 532434, Control_c, 0, 64, 64
1, 532449, Control_c, 0, 64, 52
1, 532452, Note_on_c, 0, 80, 94
1, 532460, Note_on_c, 0, 68, 80
1, 532462, Note_on_c, 0, 56, 92
1, 532464, Control_c, 0, 64, 51
1, 532467, Note_on_c, 0, 44, 74
1, 532474, Note_off_c, 0, 68, 69
1, 532478, Control_c, 0, 64, 60
1, 532493, Control_c, 0, 64, 74
1, 532508, Control_c, 0, 64, 127
1, 532509, Note_off_c, 0, 44, 58
1, 532510, Note_off_c, 0, 56, 57
1, 532564, Note_on_c, 0, 68, 55
1, 532589, Note_off_c, 0, 80, 58
1, 532592, Note_on_c, 0, 70, 30
1, 532592, Note_off_c, 0, 68, 55
1, 532628, Note_off_c, 0, 70, 54
1, 532662, Note_on_c, 0, 58, 73
1, 532667, Note_on_c, 0, 70, 62
1, 532668, Note_on_c, 0, 46, 66
1, 532669, Note_on_c, 0, 82, 78
1, 532688, Note_off_c, 0, 58, 67
1, 532690, Note_off_c, 0, 82, 71
1, 532691, Note_off_c, 0, 46, 63
1, 532692, Note_off_c, 0, 70, 65
1, 532732, Control_c, 0, 64, 65
1, 532747, Control_c, 0, 64, 50
1, 532761, Control_c, 0, 64, 37
1, 532767, Note_on_c, 0, 84, 86
1, 532769, Note_on_c, 0, 72, 80
1, 532770, Note_on_c, 0, 60, 97
1, 532776, Control_c, 0, 64, 43
1, 532777, Note_on_c, 0, 48, 75
1, 532785, Note_off_c, 0, 72, 70
1, 532786, Note_on_c, 0, 82, 31
1, 532791, Control_c, 0, 64, 57
1, 532794, Note_off_c, 0, 60, 66
1, 532796, Note_off_c, 0, 48, 68
1, 532806, Control_c, 0, 64, 76
1, 532820, Note_off_c, 0, 82, 30
1, 532820, Control_c, 0, 64, 127
1, 532852, Note_on_c, 0, 72, 70
1, 532878, Note_off_c, 0, 72, 66
1, 532897, Note_off_c, 0, 84, 61
1, 532962, Note_on_c, 0, 65, 91
1, 532968, Note_on_c, 0, 77, 89
1, 532974, Note_on_c, 0, 89, 80
1, 532979, Note_on_c, 0, 53, 60
1, 532979, Note_off_c, 0, 65, 75
1, 532988, Note_off_c, 0, 77, 70
1, 532991, Note_on_c, 0, 87, 53
1, 532992, Note_off_c, 0, 87, 127
1, 532994, Note_off_c, 0, 89, 68
1, 533000, Note_off_c, 0, 53, 64
1, 533028, Control_c, 0, 64, 105
1, 533043, Control_c, 0, 64, 63
1, 533058, Control_c, 0, 64, 43
1, 533067, Note_on_c, 0, 87, 89
1, 533069, Note_on_c, 0, 63, 96
1, 533070, Note_on_c, 0, 51, 89
1, 533072, Note_on_c, 0, 75, 90
1, 533072, Poly_aftertouch_c, 0, 56, 0
1, 533072, Control_c, 0, 64, 29
1, 533087, Control_c, 0, 64, 41
1, 533090, Note_off_c, 0, 75, 70
1, 533102, Note_off_c, 0, 51, 65
1, 533102, Control_c, 0, 64, 55
1, 533109, Note_off_c, 0, 63, 62
1, 533116, Note_on_c, 0, 85, 15
1, 533117, Control_c, 0, 64, 80
1, 533132, Control_c, 0, 64, 127
1, 533160, Note_on_c, 0, 75, 81
1, 533178, Poly_aftertouch_c, 0, 82, 0
1, 533179, Note_off_c, 0, 85, 56
1, 533190, Note_off_c, 0, 75, 65
1, 533214, Note_off_c, 0, 87, 64
1, 533276, Note_on_c, 0, 67, 88
1, 533281, Note_on_c, 0, 79, 82
1, 533285, Note_on_c, 0, 55, 68
1, 533287, Note_on_c, 0, 91, 83
1, 533292, Note_off_c, 0, 67, 73
1, 533299, Note_off_c, 0, 79, 71
1, 533304, Note_off_c, 0, 55, 66
1, 533307, Note_off_c, 0, 91, 68
1, 533332, Control_c, 0, 64, 68
1, 533347, Control_c, 0, 64, 54
1, 533361, Control_c, 0, 64, 46
1, 533376, Note_on_c, 0, 80, 94
1, 533376, Note_on_c, 0, 92, 95
1, 533376, Control_c, 0, 64, 54
1, 533379, Note_on_c, 0, 68, 93
1, 533382, Note_on_c, 0, 56, 87
1, 533391, Control_c, 0, 64, 72
1, 533396, Note_off_c, 0, 80, 67
1, 533406, Control_c, 0, 64, 127
1, 533408, Note_off_c, 0, 56, 67
1, 533417, Note_off_c, 0, 68, 59
1, 533441, Note_off_c, 0, 92, 58
1, 533476, Note_on_c, 0, 80, 86
1, 533485, Note_on_c, 0, 90, 47
1, 533486, Poly_aftertouch_c, 0, 87, 0
1, 533497, Note_off_c, 0, 80, 70
1, 533514, Note_off_c, 0, 90, 61
1, 533573, Note_on_c, 0, 70, 78
1, 533577, Note_on_c, 0, 82, 69
1, 533578, Note_on_c, 0, 58, 66
1, 533583, Note_on_c, 0, 94, 74
1, 533588, Note_off_c, 0, 70, 69
1, 533593, Note_off_c, 0, 82, 71
1, 533598, Note_off_c, 0, 58, 65
1, 533608, Note_off_c, 0, 94, 70
1, 533629, Control_c, 0, 64, 65
1, 533644, Control_c, 0, 64, 42
1, 533659, Control_c, 0, 64, 0
1, 533670, Note_on_c, 0, 96, 90
1, 533672, Note_on_c, 0, 84, 86
1, 533673, Note_on_c, 0, 72, 89
1, 533674, Control_c, 0, 64, 10
1, 533678, Note_on_c, 0, 60, 77
1, 533686, Note_on_c, 0, 94, 64
1, 533689, Control_c, 0, 64, 39
1, 533690, Note_off_c, 0, 84, 73
1, 533691, Note_off_c, 0, 72, 70
1, 533695, Note_on_c, 0, 95, 57
1, 533698, Note_off_c, 0, 60, 73
1, 533703, Control_c, 0, 64, 58
1, 533704, Note_off_c, 0, 94, 64
1, 533718, Control_c, 0, 64, 127
1, 533719, Note_off_c, 0, 95, 39
1, 533758, Note_on_c, 0, 84, 83
1, 533765, Note_on_c, 0, 95, 50
1, 533778, Note_off_c, 0, 84, 70
1, 533790, Note_off_c, 0, 95, 58
1, 533798, Note_off_c, 0, 96, 65
1, 533859, Note_on_c, 0, 77, 96
1, 533859, Note_on_c, 0, 89, 88
1, 533867, Note_on_c, 0, 101, 78
1, 533874, Note_off_c, 0, 77, 75
1, 533874, Note_on_c, 0, 65, 64
1, 533877, Note_off_c, 0, 89, 74
1, 533882, Note_off_c, 0, 101, 69
1, 533893, Note_off_c, 0, 65, 66
1, 533900, Note_on_c, 0, 68, 15
1, 533901, Note_off_c, 0, 68, 127
1, 533948, Control_c, 0, 64, 99
1, 533963, Control_c, 0, 64, 62
1, 533975, Note_on_c, 0, 75, 99
1, 533976, Note_on_c, 0, 63, 92
1, 533977, Note_on_c, 0, 87, 92
1, 533977, Control_c, 0, 64, 40
1, 533978, Note_on_c, 0, 99, 94
1, 533992, Control_c, 0, 64, 42
1, 533993, Note_off_c, 0, 87, 73
1, 533996, Note_off_c, 0, 75, 64
1, 534007, Control_c, 0, 64, 59
1, 534009, Note_on_c, 0, 97, 41
1, 534010, Note_off_c, 0, 97, 127
1, 534010, Note_off_c, 0, 63, 58
1, 534022, Control_c, 0, 64, 98
1, 534036, Control_c, 0, 64, 127
1, 534064, Note_on_c, 0, 87, 85
1, 534087, Note_off_c, 0, 87, 67
1, 534098, Note_on_c, 0, 97, 18
1, 534099, Note_off_c, 0, 97, 127
1, 534099, Note_off_c, 0, 99, 66
1, 534165, Note_on_c, 0, 72, 80
1, 534169, Note_on_c, 0, 84, 93
1, 534174, Note_on_c, 0, 96, 75
1, 534176, Note_on_c, 0, 60, 62
1, 534179, Note_off_c, 0, 72, 70
1, 534184, Note_off_c, 0, 84, 74
1, 534187, Note_off_c, 0, 96, 67
1, 534193, Note_off_c, 0, 60, 66
1, 534263, Note_on_c, 0, 94, 99
1, 534264, Note_on_c, 0, 70, 94
1, 534268, Note_on_c, 0, 82, 84
1, 534270, Note_on_c, 0, 58, 81
1, 534279, Note_off_c, 0, 70, 74
1, 534285, Note_off_c, 0, 82, 73
1, 534292, Note_off_c, 0, 58, 70
1, 534355, Note_on_c, 0, 82, 77
1, 534378, Note_off_c, 0, 82, 70
1, 534392, Note_off_c, 0, 94, 67
1, 534452, Note_on_c, 0, 72, 80
1, 534464, Note_on_c, 0, 84, 79
1, 534465, Note_on_c, 0, 60, 60
1, 534467, Note_off_c, 0, 72, 70
1, 534470, Note_on_c, 0, 96, 72
1, 534484, Note_off_c, 0, 84, 71
1, 534486, Note_off_c, 0, 96, 66
1, 534487, Note_off_c, 0, 60, 62
1, 534552, Note_on_c, 0, 70, 94
1, 534553, Note_on_c, 0, 94, 90
1, 534554, Note_on_c, 0, 58, 88
1, 534562, Note_on_c, 0, 82, 78
1, 534571, Note_off_c, 0, 70, 70
1, 534576, Note_off_c, 0, 58, 65
1, 534580, Note_off_c, 0, 82, 70
1, 534637, Note_on_c, 0, 82, 84
1, 534649, Poly_aftertouch_c, 0, 60, 0
1, 534655, Note_on_c, 0, 92, 55
1, 534658, Note_off_c, 0, 82, 67
1, 534680, Note_off_c, 0, 94, 65
1, 534686, Note_off_c, 0, 92, 62
1, 534734, Note_on_c, 0, 80, 79
1, 534740, Note_on_c, 0, 56, 71
1, 534742, Note_on_c, 0, 92, 70
1, 534743, Note_on_c, 0, 68, 69
1, 534753, Note_off_c, 0, 80, 72
1, 534758, Note_off_c, 0, 92, 69
1, 534759, Note_off_c, 0, 56, 67
1, 534763, Note_off_c, 0, 68, 60
1, 534800, Control_c, 0, 64, 105
1, 534815, Control_c, 0, 64, 61
1, 534829, Note_on_c, 0, 65, 93
1, 534829, Note_on_c, 0, 77, 93
1, 534830, Control_c, 0, 64, 36
1, 534833, Note_on_c, 0, 89, 86
1, 534835, Note_on_c, 0, 53, 81
1, 534839, Note_on_c, 0, 56, 57
1, 534845, Note_off_c, 0, 65, 77
1, 534845, Note_off_c, 0, 77, 75
1, 534845, Control_c, 0, 64, 37
1, 534851, Note_off_c, 0, 53, 71
1, 534854, Note_off_c, 0, 56, 69
1, 534859, Control_c, 0, 64, 54
1, 534874, Control_c, 0, 64, 72
1, 534889, Control_c, 0, 64, 127
1, 534920, Note_on_c, 0, 77, 86
1, 534929, Note_off_c, 0, 89, 61
1, 534935, Note_off_c, 0, 77, 75
1, 535011, Note_on_c, 0, 63, 81
1, 535016, Note_on_c, 0, 51, 74
1, 535019, Note_on_c, 0, 87, 81
1, 535021, Note_on_c, 0, 75, 78
1, 535033, Note_off_c, 0, 63, 73
1, 535037, Note_off_c, 0, 87, 73
1, 535042, Note_off_c, 0, 75, 68
1, 535042, Note_off_c, 0, 51, 70
1, 535108, Note_on_c, 0, 72, 92
1, 535116, Note_on_c, 0, 84, 73
1, 535117, Note_on_c, 0, 60, 56
1, 535124, Note_off_c, 0, 72, 75
1, 535134, Note_on_c, 0, 51, 37
1, 535136, Note_on_c, 0, 48, 31
1, 535137, Note_off_c, 0, 60, 63
1, 535139, Note_off_c, 0, 84, 69
1, 535156, Note_off_c, 0, 51, 63
1, 535173, Poly_aftertouch_c, 0, 50, 127
1, 535176, Note_off_c, 0, 48, 53
1, 535200, Note_on_c, 0, 72, 85
1, 535201, Poly_aftertouch_c, 0, 78, 0
1, 535206, Poly_aftertouch_c, 0, 50, 0
1, 535209, Note_on_c, 0, 84, 62
1, 535215, Note_off_c, 0, 72, 73
1, 535228, Note_off_c, 0, 84, 43
1, 535291, Note_on_c, 0, 56, 89
1, 535299, Note_on_c, 0, 44, 74
1, 535299, Note_on_c, 0, 68, 91
1, 535308, Note_on_c, 0, 80, 63
1, 535310, Note_off_c, 0, 56, 70
1, 535316, Note_off_c, 0, 68, 72
1, 535318, Note_on_c, 0, 78, 65
1, 535326, Note_off_c, 0, 44, 62
1, 535327, Note_off_c, 0, 80, 65
1, 535338, Note_off_c, 0, 78, 66
1, 535376, Note_on_c, 0, 56, 30
1, 535396, Note_on_c, 0, 41, 76
1, 535396, Note_on_c, 0, 65, 93
1, 535400, Note_off_c, 0, 56, 36
1, 535402, Note_on_c, 0, 77, 79
1, 535421, Note_off_c, 0, 65, 75
1, 535427, Note_off_c, 0, 41, 69
1, 535440, Note_on_c, 0, 52, 20
1, 535443, Note_off_c, 0, 77, 51
1, 535474, Poly_aftertouch_c, 0, 53, 127
1, 535483, Note_off_c, 0, 52, 44
1, 535490, Note_on_c, 0, 65, 88
1, 535492, Note_on_c, 0, 77, 64
1, 535500, Poly_aftertouch_c, 0, 53, 0
1, 535507, Note_off_c, 0, 65, 76
1, 535510, Note_off_c, 0, 77, 66
1, 535547, Note_on_c, 0, 30, 44
1, 535585, Note_off_c, 0, 30, 48
1, 535651, Note_on_c, 0, 48, 99
1, 535658, Note_on_c, 0, 36, 98
1, 535665, Note_on_c, 0, 24, 79
1, 535674, Note_off_c, 0, 48, 68
1, 535680, Note_off_c, 0, 36, 68
1, 535694, Note_off_c, 0, 24, 64
1, 535756, Poly_aftertouch_c, 0, 30, 0
1, 535874, Control_c, 0, 64, 62
1, 535889, Control_c, 0, 64, 0
1, 535896, Note_on_c, 0, 51, 99
1, 535899, Note_on_c, 0, 63, 97
1, 535900, Note_on_c, 0, 39, 100
1, 535904, Note_on_c, 0, 27, 90
1, 535915, Note_on_c, 0, 61, 72
1, 535930, Note_off_c, 0, 39, 68
1, 535932, Note_off_c, 0, 27, 63
1, 535936, Note_off_c, 0, 61, 65
1, 535939, Note_off_c, 0, 51, 67
1, 535964, Control_c, 0, 64, 9
1, 535968, Note_off_c, 0, 63, 65
1, 535979, Control_c, 0, 64, 47
1, 535994, Control_c, 0, 64, 67
1, 536009, Control_c, 0, 64, 127
1, 536250, Note_on_c, 0, 67, 84
1, 536303, Note_on_c, 0, 73, 18
1, 536352, Note_on_c, 0, 70, 76
1, 536363, Note_on_c, 0, 58, 84
1, 536368, Note_on_c, 0, 61, 79
1, 536380, Note_off_c, 0, 67, 62
1, 536383, Note_on_c, 0, 51, 53
1, 536383, Note_off_c, 0, 58, 71
1, 536390, Note_off_c, 0, 61, 68
1, 536398, Note_off_c, 0, 73, 30
1, 536404, Note_off_c, 0, 51, 64
1, 536463, Note_on_c, 0, 67, 76
1, 536468, Note_off_c, 0, 70, 63
1, 536539, Note_on_c, 0, 72, 80
1, 536541, Note_on_c, 0, 58, 71
1, 536545, Note_on_c, 0, 61, 60
1, 536556, Note_off_c, 0, 67, 61
1, 536564, Note_off_c, 0, 61, 65
1, 536565, Note_off_c, 0, 58, 70
1, 536566, Note_on_c, 0, 51, 14
1, 536580, Note_off_c, 0, 72, 59
1, 536617, Note_on_c, 0, 73, 89
1, 536622, Note_off_c, 0, 51, 0
1, 536627, Note_on_c, 0, 61, 71
1, 536640, Note_on_c, 0, 58, 56
1, 536641, Note_off_c, 0, 58, 127
1, 536642, Note_on_c, 0, 51, 30
1, 536653, Note_off_c, 0, 61, 69
1, 536675, Note_off_c, 0, 51, 54
1, 536690, Note_off_c, 0, 73, 63
1, 536713, Note_on_c, 0, 67, 78
1, 536764, Note_on_c, 0, 58, 13
1, 536782, Note_on_c, 0, 77, 81
1, 536789, Note_on_c, 0, 61, 49
1, 536798, Note_off_c, 0, 67, 62
1, 536808, Note_off_c, 0, 58, 63
1, 536809, Note_off_c, 0, 61, 66
1, 536823, Note_off_c, 0, 77, 61
1, 536832, Control_c, 0, 64, 69
1, 536846, Control_c, 0, 64, 42
1, 536861, Control_c, 0, 64, 0
1, 536868, Note_on_c, 0, 75, 83
1, 536869, Note_on_c, 0, 60, 88
1, 536880, Note_on_c, 0, 51, 72
1, 536887, Note_off_c, 0, 60, 74
1, 536900, Note_on_c, 0, 76, 37
1, 536902, Note_off_c, 0, 51, 66
1, 536906, Control_c, 0, 64, 33
1, 536923, Note_on_c, 0, 54, 9
1, 536924, Note_off_c, 0, 54, 127
1, 536928, Control_c, 0, 64, 50
1, 536936, Note_off_c, 0, 76, 52
1, 536943, Control_c, 0, 64, 79
1, 536958, Control_c, 0, 64, 127
1, 536959, Note_on_c, 0, 63, 83
1, 536973, Poly_aftertouch_c, 0, 54, 0
1, 537000, Note_off_c, 0, 75, 60
1, 537015, Note_off_c, 0, 63, 61
1, 537046, Note_on_c, 0, 72, 82
1, 537050, Note_on_c, 0, 60, 86
1, 537051, Note_on_c, 0, 51, 77
1, 537066, Note_off_c, 0, 60, 76
1, 537071, Note_on_c, 0, 54, 48
1, 537072, Note_off_c, 0, 54, 127
1, 537076, Note_off_c, 0, 51, 71
1, 537102, Poly_aftertouch_c, 0, 54, 0
1, 537134, Note_on_c, 0, 70, 92
1, 537142, Note_on_c, 0, 60, 80
1, 537144, Note_on_c, 0, 51, 83
1, 537161, Note_off_c, 0, 72, 47
1, 537162, Note_off_c, 0, 60, 73
1, 537174, Note_off_c, 0, 51, 68
1, 537224, Note_on_c, 0, 63, 88
1, 537241, Note_off_c, 0, 70, 58
1, 537316, Note_on_c, 0, 72, 86
1, 537326, Note_on_c, 0, 60, 71
1, 537327, Note_off_c, 0, 63, 64
1, 537331, Note_on_c, 0, 51, 65
1, 537341, Note_off_c, 0, 60, 71
1, 537360, Note_off_c, 0, 51, 66
1, 537390, Note_on_c, 0, 70, 89
1, 537395, Note_on_c, 0, 60, 78
1, 537413, Note_off_c, 0, 60, 73
1, 537419, Note_on_c, 0, 51, 62
1, 537439, Note_off_c, 0, 51, 67
1, 537439, Note_off_c, 0, 72, 62
1, 537489, Note_off_c, 0, 70, 62
1, 537492, Note_on_c, 0, 63, 70
1, 537518, Note_off_c, 0, 63, 65
1, 537560, Note_on_c, 0, 68, 91
1, 537579, Note_off_c, 0, 68, 71
1, 537612, Note_on_c, 0, 39, 12
1, 537650, Poly_aftertouch_c, 0, 34, 127
1, 537655, Note_off_c, 0, 39, 37
1, 537680, Poly_aftertouch_c, 0, 34, 0
1, 537689, Poly_aftertouch_c, 0, 30, 0
1, 537692, Control_c, 0, 64, 86
1, 537707, Control_c, 0, 64, 46
1, 537722, Control_c, 0, 64, 0
1, 537726, Note_on_c, 0, 51, 97
1, 537727, Note_on_c, 0, 39, 101
1, 537728, Note_on_c, 0, 63, 89
1, 537731, Note_on_c, 0, 27, 92
1, 537743, Note_off_c, 0, 51, 75
1, 537749, Note_on_c, 0, 61, 54
1, 537749, Note_off_c, 0, 39, 71
1, 537752, Note_off_c, 0, 27, 69
1, 537762, Note_off_c, 0, 63, 60
1, 537776, Note_off_c, 0, 61, 40
1, 537781, Control_c, 0, 64, 31
1, 537796, Control_c, 0, 64, 54
1, 537811, Control_c, 0, 64, 93
1, 537825, Control_c, 0, 64, 127
1, 538027, Note_on_c, 0, 67, 96
1, 538063, Note_on_c, 0, 69, 44
1, 538064, Note_off_c, 0, 69, 127
1, 538093, Note_off_c, 0, 67, 57
1, 538140, Note_on_c, 0, 70, 88
1, 538153, Note_on_c, 0, 58, 80
1, 538157, Note_on_c, 0, 51, 70
1, 538171, Note_off_c, 0, 58, 69
1, 538178, Note_off_c, 0, 51, 73
1, 538255, Note_off_c, 0, 70, 64
1, 538264, Note_on_c, 0, 67, 79
1, 538312, Note_off_c, 0, 67, 60
1, 538336, Note_on_c, 0, 58, 85
1, 538344, Note_on_c, 0, 61, 70
1, 538345, Note_on_c, 0, 72, 87
1, 538356, Note_off_c, 0, 58, 72
1, 538361, Note_off_c, 0, 61, 67
1, 538371, Note_on_c, 0, 51, 29
1, 538390, Note_off_c, 0, 72, 62
1, 538411, Note_off_c, 0, 51, 0
1, 538436, Note_on_c, 0, 58, 84
1, 538437, Note_on_c, 0, 61, 75
1, 538437, Note_on_c, 0, 73, 89
1, 538443, Note_on_c, 0, 51, 46
1, 538458, Note_off_c, 0, 61, 70
1, 538468, Note_off_c, 0, 51, 62
1, 538478, Note_off_c, 0, 58, 62
1, 538503, Note_off_c, 0, 73, 64
1, 538531, Note_on_c, 0, 67, 71
1, 538582, Note_on_c, 0, 58, 80
1, 538595, Note_on_c, 0, 77, 85
1, 538600, Poly_aftertouch_c, 0, 61, 127
1, 538608, Note_off_c, 0, 58, 67
1, 538615, Note_off_c, 0, 67, 60
1, 538633, Control_c, 0, 64, 92
1, 538638, Note_off_c, 0, 77, 62
1, 538647, Poly_aftertouch_c, 0, 61, 0
1, 538648, Control_c, 0, 64, 59
1, 538650, Poly_aftertouch_c, 0, 51, 127
1, 538663, Control_c, 0, 64, 0
1, 538670, Poly_aftertouch_c, 0, 51, 0
1, 538685, Note_on_c, 0, 51, 65
1, 538690, Note_on_c, 0, 60, 78
1, 538690, Note_on_c, 0, 75, 87
1, 538700, Note_on_c, 0, 62, 61
1, 538707, Control_c, 0, 64, 27
1, 538709, Note_on_c, 0, 54, 52
1, 538711, Note_off_c, 0, 60, 72
1, 538717, Note_off_c, 0, 51, 67
1, 538722, Control_c, 0, 64, 45
1, 538723, Note_off_c, 0, 62, 41
1, 538735, Note_on_c, 0, 73, 26
1, 538737, Control_c, 0, 64, 63
1, 538741, Note_off_c, 0, 54, 34
1, 538752, Control_c, 0, 64, 127
1, 538769, Note_on_c, 0, 63, 85
1, 538777, Note_off_c, 0, 73, 51
1, 538798, Note_off_c, 0, 75, 60
1, 538821, Note_off_c, 0, 63, 61
1, 538858, Note_on_c, 0, 72, 88
1, 538860, Note_on_c, 0, 51, 81
1, 538860, Note_on_c, 0, 60, 80
1, 538884, Note_off_c, 0, 51, 68
1, 538885, Note_off_c, 0, 60, 68
1, 538944, Note_on_c, 0, 70, 91
1, 538944, Note_on_c, 0, 60, 78
1, 538947, Note_on_c, 0, 51, 84
1, 538965, Note_off_c, 0, 72, 48
1, 538966, Note_off_c, 0, 60, 68
1, 538968, Note_off_c, 0, 51, 72
1, 539039, Note_on_c, 0, 63, 85
1, 539054, Note_off_c, 0, 70, 58
1, 539131, Note_on_c, 0, 60, 70
1, 539132, Note_on_c, 0, 72, 86
1, 539136, Note_on_c, 0, 51, 70
1, 539143, Note_off_c, 0, 63, 60
1, 539144, Note_off_c, 0, 60, 73
1, 539174, Note_off_c, 0, 51, 67
1, 539209, Note_on_c, 0, 60, 80
1, 539218, Note_on_c, 0, 70, 84
1, 539233, Note_on_c, 0, 51, 61
1, 539243, Note_off_c, 0, 60, 64
1, 539253, Note_off_c, 0, 51, 64
1, 539260, Note_off_c, 0, 72, 60
1, 539301, Note_on_c, 0, 63, 78
1, 539308, Note_off_c, 0, 70, 63
1, 539346, Note_off_c, 0, 63, 65
1, 539383, Note_on_c, 0, 68, 94
1, 539418, Note_off_c, 0, 68, 61
1, 539454, Note_on_c, 0, 30, 37
1, 539498, Note_off_c, 0, 30, 40
1, 539500, Control_c, 0, 64, 71
1, 539514, Control_c, 0, 64, 41
1, 539529, Control_c, 0, 64, 0
1, 539538, Note_on_c, 0, 39, 93
1, 539542, Note_on_c, 0, 51, 91
1, 539543, Note_on_c, 0, 63, 88
1, 539543, Note_on_c, 0, 27, 89
1, 539562, Note_off_c, 0, 51, 73
1, 539564, Note_off_c, 0, 39, 70
1, 539565, Note_off_c, 0, 27, 67
1, 539574, Note_on_c, 0, 61, 34
1, 539577, Note_off_c, 0, 63, 63
1, 539588, Control_c, 0, 64, 32
1, 539603, Control_c, 0, 64, 55
1, 539608, Note_off_c, 0, 61, 35
1, 539618, Control_c, 0, 64, 96
1, 539633, Control_c, 0, 64, 127
1, 539839, Note_on_c, 0, 67, 89
1, 539948, Note_on_c, 0, 70, 83
1, 539957, Note_on_c, 0, 58, 81
1, 539961, Note_on_c, 0, 61, 73
1, 539971, Note_off_c, 0, 67, 62
1, 539978, Note_off_c, 0, 61, 70
1, 539981, Note_off_c, 0, 58, 68
1, 539993, Note_on_c, 0, 51, 18
1, 540034, Note_off_c, 0, 51, 44
1, 540065, Note_on_c, 0, 67, 76
1, 540068, Note_off_c, 0, 70, 61
1, 540139, Note_on_c, 0, 58, 66
1, 540142, Note_on_c, 0, 72, 84
1, 540143, Note_on_c, 0, 51, 58
1, 540149, Note_on_c, 0, 61, 59
1, 540154, Note_off_c, 0, 58, 70
1, 540164, Note_off_c, 0, 51, 65
1, 540168, Note_off_c, 0, 61, 68
1, 540172, Note_off_c, 0, 67, 29
1, 540190, Note_off_c, 0, 72, 62
1, 540218, Note_on_c, 0, 58, 77
1, 540224, Note_on_c, 0, 73, 87
1, 540229, Note_on_c, 0, 61, 68
1, 540235, Note_on_c, 0, 51, 64
1, 540251, Note_off_c, 0, 61, 68
1, 540253, Note_off_c, 0, 51, 66
1, 540270, Note_off_c, 0, 58, 62
1, 540299, Note_off_c, 0, 73, 65
1, 540323, Note_on_c, 0, 67, 76
1, 540389, Note_on_c, 0, 58, 81
1, 540403, Note_on_c, 0, 77, 82
1, 540408, Note_on_c, 0, 61, 50
1, 540411, Note_off_c, 0, 58, 69
1, 540414, Note_off_c, 0, 67, 50
1, 540439, Note_off_c, 0, 61, 58
1, 540455, Poly_aftertouch_c, 0, 51, 127
1, 540457, Control_c, 0, 64, 67
1, 540471, Control_c, 0, 64, 50
1, 540476, Note_on_c, 0, 51, 44
1, 540483, Note_on_c, 0, 61, 85
1, 540484, Note_on_c, 0, 75, 81
1, 540486, Control_c, 0, 64, 43
1, 540501, Control_c, 0, 64, 51
1, 540503, Note_off_c, 0, 61, 74
1, 540515, Note_off_c, 0, 51, 67
1, 540516, Control_c, 0, 64, 63
1, 540528, Note_off_c, 0, 77, 53
1, 540531, Control_c, 0, 64, 92
1, 540545, Control_c, 0, 64, 127
1, 540581, Note_on_c, 0, 67, 72
1, 540597, Note_off_c, 0, 75, 59
1, 540611, Note_off_c, 0, 67, 61
1, 540670, Note_on_c, 0, 61, 77
1, 540670, Note_on_c, 0, 72, 83
1, 540674, Note_on_c, 0, 51, 73
1, 540695, Note_off_c, 0, 61, 69
1, 540706, Note_off_c, 0, 51, 67
1, 540754, Note_on_c, 0, 61, 79
1, 540756, Note_on_c, 0, 70, 86
1, 540756, Note_off_c, 0, 72, 37
1, 540765, Note_on_c, 0, 51, 70
1, 540779, Note_off_c, 0, 61, 69
1, 540795, Note_off_c, 0, 51, 65
1, 540827, Note_off_c, 0, 70, 64
1, 540847, Note_on_c, 0, 67, 75
1, 540917, Note_on_c, 0, 61, 73
1, 540918, Note_off_c, 0, 67, 0
1, 540922, Note_on_c, 0, 51, 58
1, 540932, Note_on_c, 0, 72, 73
1, 540937, Note_off_c, 0, 61, 75
1, 540947, Note_off_c, 0, 51, 66
1, 540956, Poly_aftertouch_c, 0, 67, 127
1, 541004, Poly_aftertouch_c, 0, 67, 0
1, 541007, Note_on_c, 0, 51, 77
1, 541012, Note_on_c, 0, 70, 78
1, 541029, Note_off_c, 0, 51, 72
1, 541050, Note_off_c, 0, 72, 58
1, 541090, Note_on_c, 0, 67, 74
1, 541096, Poly_aftertouch_c, 0, 61, 0
1, 541100, Note_off_c, 0, 70, 61
1, 541111, Poly_aftertouch_c, 0, 61, 0
1, 541117, Note_off_c, 0, 67, 64
1, 541165, Note_on_c, 0, 44, 80
1, 541172, Note_on_c, 0, 51, 72
1, 541176, Control_c, 0, 64, 79
1, 541187, Note_on_c, 0, 68, 64
1, 541187, Note_off_c, 0, 51, 73
1, 541190, Note_off_c, 0, 44, 64
1, 541191, Control_c, 0, 64, 55
1, 541197, Note_on_c, 0, 69, 71
1, 541206, Control_c, 0, 64, 19
1, 541220, Note_off_c, 0, 68, 48
1, 541220, Control_c, 0, 64, 0
1, 541230, Note_off_c, 0, 69, 45
1, 541235, Control_c, 0, 64, 25
1, 541248, Note_on_c, 0, 51, 76
1, 541250, Control_c, 0, 64, 44
1, 541251, Note_on_c, 0, 44, 82
1, 541254, Note_on_c, 0, 72, 83
1, 541265, Control_c, 0, 64, 61
1, 541273, Note_off_c, 0, 51, 67
1, 541276, Note_off_c, 0, 44, 68
1, 541280, Control_c, 0, 64, 127
1, 541326, Note_off_c, 0, 72, 53
1, 541349, Note_on_c, 0, 60, 75
1, 541435, Note_on_c, 0, 68, 76
1, 541437, Note_on_c, 0, 44, 71
1, 541446, Note_off_c, 0, 60, 62
1, 541449, Note_on_c, 0, 51, 59
1, 541465, Note_off_c, 0, 44, 63
1, 541467, Note_off_c, 0, 51, 66
1, 541480, Control_c, 0, 64, 74
1, 541481, Note_off_c, 0, 68, 57
1, 541496, Control_c, 0, 64, 57
1, 541511, Control_c, 0, 64, 40
1, 541523, Note_on_c, 0, 65, 87
1, 541525, Note_on_c, 0, 44, 72
1, 541525, Note_on_c, 0, 51, 78
1, 541525, Control_c, 0, 64, 42
1, 541540, Control_c, 0, 64, 56
1, 541546, Note_off_c, 0, 51, 72
1, 541550, Note_off_c, 0, 44, 65
1, 541555, Control_c, 0, 64, 69
1, 541570, Control_c, 0, 64, 122
1, 541585, Control_c, 0, 64, 127
1, 541593, Note_off_c, 0, 65, 64
1, 541621, Note_on_c, 0, 60, 69
1, 541654, Note_off_c, 0, 60, 61
1, 541696, Note_on_c, 0, 44, 62
1, 541703, Control_c, 0, 64, 108
1, 541704, Note_on_c, 0, 51, 64
1, 541706, Note_on_c, 0, 67, 80
1, 541717, Control_c, 0, 64, 67
1, 541719, Note_off_c, 0, 44, 63
1, 541722, Note_off_c, 0, 51, 66
1, 541732, Control_c, 0, 64, 50
1, 541743, Note_off_c, 0, 67, 61
1, 541747, Control_c, 0, 64, 26
1, 541762, Control_c, 0, 64, 28
1, 541777, Control_c, 0, 64, 41
1, 541779, Note_on_c, 0, 44, 78
1, 541782, Note_on_c, 0, 51, 76
1, 541788, Note_on_c, 0, 65, 85
1, 541791, Control_c, 0, 64, 55
1, 541802, Note_off_c, 0, 44, 65
1, 541806, Control_c, 0, 64, 73
1, 541810, Note_off_c, 0, 51, 67
1, 541821, Control_c, 0, 64, 127
1, 541862, Note_off_c, 0, 65, 63
1, 541878, Note_on_c, 0, 60, 74
1, 541957, Note_on_c, 0, 44, 69
1, 541968, Note_on_c, 0, 63, 79
1, 541970, Note_on_c, 0, 51, 54
1, 541976, Note_off_c, 0, 44, 66
1, 541976, Note_off_c, 0, 60, 64
1, 541984, Control_c, 0, 64, 85
1, 541996, Note_off_c, 0, 51, 59
1, 541999, Control_c, 0, 64, 60
1, 542014, Control_c, 0, 64, 43
1, 542028, Control_c, 0, 64, 39
1, 542039, Note_on_c, 0, 44, 64
1, 542043, Control_c, 0, 64, 50
1, 542055, Note_on_c, 0, 68, 80
1, 542055, Note_off_c, 0, 63, 60
1, 542058, Control_c, 0, 64, 63
1, 542066, Note_off_c, 0, 44, 64
1, 542073, Control_c, 0, 64, 90
1, 542088, Control_c, 0, 64, 127
1, 542117, Poly_aftertouch_c, 0, 51, 127
1, 542144, Note_off_c, 0, 68, 59
1, 542146, Note_on_c, 0, 60, 58
1, 542154, Poly_aftertouch_c, 0, 51, 0
1, 542204, Note_off_c, 0, 60, 0
1, 542223, Note_on_c, 0, 44, 65
1, 542229, Control_c, 0, 64, 87
1, 542233, Note_on_c, 0, 65, 66
1, 542237, Poly_aftertouch_c, 0, 60, 0
1, 542241, Note_off_c, 0, 44, 64
1, 542243, Control_c, 0, 64, 65
1, 542258, Control_c, 0, 64, 52
1, 542273, Control_c, 0, 64, 44
1, 542285, Poly_aftertouch_c, 0, 51, 0
1, 542289, Control_c, 0, 64, 53
1, 542304, Control_c, 0, 64, 66
1, 542304, Note_on_c, 0, 44, 76
1, 542313, Note_off_c, 0, 65, 61
1, 542315, Note_on_c, 0, 63, 72
1, 542318, Control_c, 0, 64, 106
1, 542322, Note_on_c, 0, 51, 3
1, 542333, Control_c, 0, 64, 127
1, 542334, Note_off_c, 0, 44, 63
1, 542341, Note_off_c, 0, 51, 54
1, 542372, Note_off_c, 0, 63, 63
1, 542405, Note_on_c, 0, 60, 58
1, 542444, Note_off_c, 0, 60, 58
1, 542452, Control_c, 0, 64, 84
1, 542466, Control_c, 0, 64, 67
1, 542467, Note_on_c, 0, 44, 61
1, 542467, Note_on_c, 0, 51, 63
1, 542481, Control_c, 0, 64, 59
1, 542492, Note_off_c, 0, 51, 67
1, 542496, Note_off_c, 0, 44, 57
1, 542496, Control_c, 0, 64, 60
1, 542500, Note_on_c, 0, 65, 66
1, 542511, Control_c, 0, 64, 67
1, 542526, Control_c, 0, 64, 99
1, 542540, Control_c, 0, 64, 127
1, 542563, Note_on_c, 0, 44, 74
1, 542563, Note_on_c, 0, 51, 67
1, 542566, Note_on_c, 0, 63, 72
1, 542572, Note_off_c, 0, 65, 64
1, 542587, Note_off_c, 0, 44, 65
1, 542588, Note_off_c, 0, 51, 66
1, 542657, Note_off_c, 0, 63, 65
1, 542665, Note_on_c, 0, 60, 66
1, 542722, Note_off_c, 0, 60, 61
1, 542731, Note_on_c, 0, 44, 72
1, 542741, Note_on_c, 0, 56, 65
1, 542755, Note_on_c, 0, 51, 32
1, 542760, Note_off_c, 0, 44, 65
1, 542766, Note_off_c, 0, 56, 68
1, 542777, Control_c, 0, 64, 98
1, 542783, Note_off_c, 0, 51, 59
1, 542792, Control_c, 0, 64, 78
1, 542807, Control_c, 0, 64, 67
1, 542816, Note_on_c, 0, 56, 75
1, 542821, Note_on_c, 0, 44, 72
1, 542822, Control_c, 0, 64, 61
1, 542827, Note_on_c, 0, 60, 55
1, 542837, Note_off_c, 0, 44, 69
1, 542837, Control_c, 0, 64, 56
1, 542843, Note_off_c, 0, 60, 66
1, 542848, Note_off_c, 0, 56, 66
1, 542852, Control_c, 0, 64, 55
1, 542867, Control_c, 0, 64, 55
1, 542882, Control_c, 0, 64, 56
1, 542903, Note_on_c, 0, 60, 74
1, 542918, Note_on_c, 0, 44, 23
1, 542919, Control_c, 0, 64, 55
1, 542933, Control_c, 0, 64, 55
1, 542946, Note_off_c, 0, 60, 56
1, 542948, Control_c, 0, 64, 53
1, 542951, Note_off_c, 0, 44, 32
1, 542963, Control_c, 0, 64, 46
1, 542978, Control_c, 0, 64, 31
1, 542992, Control_c, 0, 64, 0
1, 542996, Note_on_c, 0, 51, 65
1, 543000, Note_on_c, 0, 39, 60
1, 543004, Note_on_c, 0, 60, 43
1, 543017, Note_on_c, 0, 55, 43
1, 543019, Note_off_c, 0, 51, 62
1, 543022, Note_off_c, 0, 60, 63
1, 543028, Note_off_c, 0, 39, 56
1, 543049, Note_off_c, 0, 55, 33
1, 543059, Note_on_c, 0, 44, 68
1, 543085, Note_on_c, 0, 56, 71
1, 543087, Note_off_c, 0, 44, 65
1, 543097, Note_on_c, 0, 60, 35
1, 543112, Control_c, 0, 64, 14
1, 543119, Note_off_c, 0, 56, 60
1, 543126, Note_off_c, 0, 60, 36
1, 543127, Control_c, 0, 64, 19
1, 543142, Control_c, 0, 64, 21
1, 543157, Control_c, 0, 64, 23
1, 543163, Note_on_c, 0, 60, 66
1, 543171, Control_c, 0, 64, 24
1, 543186, Control_c, 0, 64, 26
1, 543201, Control_c, 0, 64, 29
1, 543216, Control_c, 0, 64, 32
1, 543231, Control_c, 0, 64, 37
1, 543245, Control_c, 0, 64, 45
1, 543257, Note_on_c, 0, 51, 55
1, 543257, Note_on_c, 0, 55, 57
1, 543257, Note_on_c, 0, 39, 55
1, 543260, Control_c, 0, 64, 55
1, 543272, Note_off_c, 0, 60, 61
1, 543275, Control_c, 0, 64, 62
1, 543281, Note_off_c, 0, 55, 59
1, 543284, Note_off_c, 0, 51, 57
1, 543287, Note_off_c, 0, 39, 54
1, 543290, Control_c, 0, 64, 65
1, 543305, Control_c, 0, 64, 65
1, 543322, Note_on_c, 0, 44, 63
1, 543334, Note_on_c, 0, 56, 75
1, 543335, Control_c, 0, 64, 65
1, 543350, Note_off_c, 0, 44, 62
1, 543364, Control_c, 0, 64, 64
1, 543365, Note_off_c, 0, 56, 63
1, 543394, Control_c, 0, 64, 64
1, 543408, Control_c, 0, 64, 63
1, 543418, Note_on_c, 0, 60, 66
1, 543423, Control_c, 0, 64, 63
1, 543438, Control_c, 0, 64, 60
1, 543452, Control_c, 0, 64, 53
1, 543467, Control_c, 0, 64, 38
1, 543481, Control_c, 0, 64, 20
1, 543507, Note_on_c, 0, 39, 55
1, 543509, Note_on_c, 0, 51, 51
1, 543511, Control_c, 0, 64, 28
1, 543514, Note_on_c, 0, 55, 44
1, 543519, Note_off_c, 0, 60, 63
1, 543526, Control_c, 0, 64, 37
1, 543533, Note_off_c, 0, 39, 57
1, 543535, Note_off_c, 0, 51, 58
1, 543541, Control_c, 0, 64, 47
1, 543543, Note_off_c, 0, 55, 54
1, 543556, Control_c, 0, 64, 57
1, 543570, Control_c, 0, 64, 65
1, 543576, Note_on_c, 0, 44, 56
1, 543585, Note_on_c, 0, 56, 70
1, 543585, Control_c, 0, 64, 74
1, 543600, Control_c, 0, 64, 77
1, 543607, Note_off_c, 0, 44, 59
1, 543617, Note_off_c, 0, 56, 61
1, 543690, Note_on_c, 0, 60, 59
1, 543696, Control_c, 0, 64, 74
1, 543711, Control_c, 0, 64, 71
1, 543726, Control_c, 0, 64, 66
1, 543740, Control_c, 0, 64, 62
1, 543755, Control_c, 0, 64, 59
1, 543765, Note_on_c, 0, 39, 55
1, 543770, Control_c, 0, 64, 57
1, 543780, Note_on_c, 0, 55, 45
1, 543782, Note_on_c, 0, 51, 36
1, 543785, Control_c, 0, 64, 58
1, 543786, Note_off_c, 0, 60, 59
1, 543794, Note_off_c, 0, 39, 54
1, 543800, Control_c, 0, 64, 62
1, 543806, Note_off_c, 0, 55, 58
1, 543815, Control_c, 0, 64, 68
1, 543824, Note_off_c, 0, 51, 54
1, 543830, Control_c, 0, 64, 76
1, 543845, Control_c, 0, 64, 77
1, 543848, Note_on_c, 0, 56, 65
1, 543851, Note_on_c, 0, 44, 51
1, 543874, Control_c, 0, 64, 75
1, 543883, Note_off_c, 0, 44, 61
1, 543890, Control_c, 0, 64, 71
1, 543891, Note_off_c, 0, 56, 53
1, 543905, Control_c, 0, 64, 66
1, 543919, Control_c, 0, 64, 62
1, 543934, Control_c, 0, 64, 61
1, 543949, Control_c, 0, 64, 62
1, 543955, Note_on_c, 0, 60, 58
1, 543964, Control_c, 0, 64, 65
1, 543979, Control_c, 0, 64, 69
1, 543994, Control_c, 0, 64, 71
1, 544009, Control_c, 0, 64, 72
1, 544032, Note_on_c, 0, 51, 56
1, 544039, Note_on_c, 0, 39, 42
1, 544050, Note_on_c, 0, 55, 47
1, 544059, Note_off_c, 0, 51, 57
1, 544064, Note_off_c, 0, 60, 60
1, 544074, Note_off_c, 0, 39, 51
1, 544075, Note_off_c, 0, 55, 59
1, 544112, Control_c, 0, 64, 72
1, 544127, Control_c, 0, 64, 70
1, 544139, Note_on_c, 0, 44, 49
1, 544140, Note_on_c, 0, 56, 60
1, 544142, Control_c, 0, 64, 66
1, 544157, Control_c, 0, 64, 61
1, 544172, Control_c, 0, 64, 53
1, 544176, Note_off_c, 0, 56, 63
1, 544176, Note_off_c, 0, 44, 62
1, 544186, Control_c, 0, 64, 50
1, 544201, Control_c, 0, 64, 54
1, 544216, Control_c, 0, 64, 61
1, 544230, Control_c, 0, 64, 69
1, 544245, Control_c, 0, 64, 82
1, 544260, Control_c, 0, 64, 92
1, 544270, Note_on_c, 0, 60, 45
1, 544275, Control_c, 0, 64, 95
1, 544290, Control_c, 0, 64, 96
1, 544334, Note_on_c, 0, 51, 44
1, 544342, Note_on_c, 0, 39, 35
1, 544348, Note_on_c, 0, 55, 46
1, 544361, Note_off_c, 0, 60, 54
1, 544369, Note_off_c, 0, 51, 50
1, 544418, Note_off_c, 0, 55, 55
1, 544460, Control_c, 0, 64, 95
1, 544490, Control_c, 0, 64, 95
1, 544519, Control_c, 0, 64, 94
1, 544534, Control_c, 0, 64, 94
1, 544549, Control_c, 0, 64, 93
1, 544563, Control_c, 0, 64, 93
1, 544578, Control_c, 0, 64, 92
1, 544593, Control_c, 0, 64, 91
1, 544596, Note_off_c, 0, 39, 32
1, 544608, Control_c, 0, 64, 90
1, 544623, Control_c, 0, 64, 88
1, 544635, Note_on_c, 0, 44, 37
1, 544638, Control_c, 0, 64, 87
1, 544652, Control_c, 0, 64, 85
1, 544667, Control_c, 0, 64, 83
1, 544683, Control_c, 0, 64, 80
1, 544698, Control_c, 0, 64, 74
1, 544712, Note_on_c, 0, 60, 63
1, 544713, Control_c, 0, 64, 64
1, 544720, Note_on_c, 0, 54, 46
1, 544727, Control_c, 0, 64, 54
1, 544742, Control_c, 0, 64, 37
1, 544757, Control_c, 0, 64, 17
1, 544772, Control_c, 0, 64, 11
1, 544787, Control_c, 0, 64, 12
1, 544802, Control_c, 0, 64, 18
1, 544816, Control_c, 0, 64, 26
1, 544831, Control_c, 0, 64, 35
1, 544841, Note_off_c, 0, 44, 59
1, 544846, Control_c, 0, 64, 44
1, 544861, Control_c, 0, 64, 54
1, 544876, Control_c, 0, 64, 64
1, 544885, Note_on_c, 0, 46, 46
1, 544891, Control_c, 0, 64, 73
1, 544906, Control_c, 0, 64, 79
1, 544930, Note_off_c, 0, 46, 62
1, 544935, Control_c, 0, 64, 82
1, 544950, Control_c, 0, 64, 89
1, 544965, Control_c, 0, 64, 103
1, 544979, Control_c, 0, 64, 119
1, 544983, Note_on_c, 0, 44, 26
1, 544994, Control_c, 0, 64, 127
1, 545028, Note_off_c, 0, 44, 51
1, 545031, Note_on_c, 0, 46, 51
1, 545073, Note_off_c, 0, 46, 56
1, 545173, Poly_aftertouch_c, 0, 44, 127
1, 545189, Note_on_c, 0, 46, 41
1, 545214, Note_off_c, 0, 46, 60
1, 545217, Poly_aftertouch_c, 0, 44, 0
1, 545241, Note_on_c, 0, 44, 7
1, 545287, Note_off_c, 0, 44, 48
1, 545309, Note_on_c, 0, 46, 40
1, 545352, Note_off_c, 0, 46, 59
1, 545452, Poly_aftertouch_c, 0, 44, 127
1, 545481, Note_on_c, 0, 46, 26
1, 545484, Poly_aftertouch_c, 0, 44, 0
1, 545516, Note_off_c, 0, 46, 56
1, 545522, Poly_aftertouch_c, 0, 44, 127
1, 545534, Note_off_c, 0, 54, 41
1, 545550, Control_c, 0, 67, 8
1, 545565, Control_c, 0, 67, 11
1, 545572, Poly_aftertouch_c, 0, 44, 0
1, 545580, Control_c, 0, 67, 14
1, 545595, Control_c, 0, 67, 18
1, 545598, Note_on_c, 0, 46, 24
1, 545609, Control_c, 0, 67, 23
1, 545624, Control_c, 0, 67, 30
1, 545625, Note_on_c, 0, 44, 41
1, 545639, Control_c, 0, 67, 37
1, 545654, Control_c, 0, 67, 44
1, 545663, Note_off_c, 0, 44, 63
1, 545669, Control_c, 0, 67, 52
1, 545671, Note_off_c, 0, 46, 0
1, 545684, Control_c, 0, 67, 62
1, 545687, Note_on_c, 0, 46, 42
1, 545697, Control_c, 0, 67, 73
1, 545712, Control_c, 0, 67, 84
1, 545727, Control_c, 0, 67, 95
1, 545728, Note_off_c, 0, 46, 62
1, 545742, Control_c, 0, 67, 109
1, 545756, Note_on_c, 0, 44, 38
1, 545756, Control_c, 0, 67, 121
1, 545771, Control_c, 0, 67, 127
1, 545800, Note_off_c, 0, 44, 43
1, 545803, Note_on_c, 0, 46, 37
1, 545836, Note_on_c, 0, 44, 44
1, 545863, Note_off_c, 0, 44, 60
1, 545875, Note_off_c, 0, 46, 0
1, 545921, Poly_aftertouch_c, 0, 46, 127
1, 545928, Note_off_c, 0, 60, 47
1, 545946, Note_on_c, 0, 44, 44
1, 545975, Note_off_c, 0, 44, 53
1, 546049, Note_on_c, 0, 44, 27
1, 546062, Poly_aftertouch_c, 0, 46, 0
1, 546086, Note_off_c, 0, 44, 51
1, 546100, Poly_aftertouch_c, 0, 46, 127
1, 546137, Note_on_c, 0, 44, 33
1, 546176, Note_off_c, 0, 44, 47
1, 546182, Note_on_c, 0, 61, 63
1, 546188, Note_on_c, 0, 46, 4
1, 546192, Note_on_c, 0, 52, 52
1, 546271, Note_off_c, 0, 46, 0
1, 546282, Poly_aftertouch_c, 0, 44, 127
1, 546296, Note_on_c, 0, 46, 22
1, 546346, Note_off_c, 0, 46, 46
1, 546393, Poly_aftertouch_c, 0, 44, 0
1, 546402, Note_on_c, 0, 46, 44
1, 546440, Note_off_c, 0, 46, 61
1, 546458, Note_on_c, 0, 44, 48
1, 546486, Note_off_c, 0, 44, 59
1, 546539, Note_on_c, 0, 46, 37
1, 546568, Note_on_c, 0, 44, 53
1, 546572, Note_off_c, 0, 46, 54
1, 546599, Note_off_c, 0, 44, 61
1, 546745, Note_on_c, 0, 46, 7
1, 546750, Poly_aftertouch_c, 0, 44, 127
1, 546795, Note_on_c, 0, 44, 5
1, 546808, Note_off_c, 0, 46, 42
1, 546816, Note_on_c, 0, 58, 61
1, 546846, Note_off_c, 0, 44, 44
1, 546897, Poly_aftertouch_c, 0, 46, 127
1, 546934, Note_on_c, 0, 44, 8
1, 546984, Note_on_c, 0, 46, 3
1, 547000, Note_off_c, 0, 44, 0
1, 547017, Note_on_c, 0, 44, 22
1, 547052, Note_off_c, 0, 44, 48
1, 547060, Note_off_c, 0, 46, 0
1, 547060, Note_on_c, 0, 46, 25
1, 547107, Note_on_c, 0, 44, 39
1, 547134, Note_off_c, 0, 46, 0
1, 547137, Note_off_c, 0, 44, 52
1, 547150, Note_on_c, 0, 46, 43
1, 547199, Note_on_c, 0, 44, 44
1, 547210, Note_off_c, 0, 46, 0
1, 547218, Note_off_c, 0, 52, 61
1, 547226, Note_on_c, 0, 46, 49
1, 547237, Note_off_c, 0, 44, 47
1, 547281, Note_on_c, 0, 44, 49
1, 547284, Note_off_c, 0, 46, 63
1, 547392, Note_off_c, 0, 44, 35
1, 547422, Note_on_c, 0, 43, 53
1, 547428, Note_on_c, 0, 51, 54
1, 547454, Note_off_c, 0, 43, 54
1, 547465, Note_on_c, 0, 44, 38
1, 547504, Note_off_c, 0, 44, 53
1, 547571, Poly_aftertouch_c, 0, 43, 127
1, 547573, Note_on_c, 0, 44, 36
1, 547607, Note_off_c, 0, 44, 49
1, 547667, Poly_aftertouch_c, 0, 43, 0
1, 547669, Note_on_c, 0, 44, 43
1, 547699, Note_off_c, 0, 44, 56
1, 547783, Poly_aftertouch_c, 0, 43, 127
1, 547811, Note_on_c, 0, 42, 39
1, 547818, Note_off_c, 0, 58, 37
1, 547819, Poly_aftertouch_c, 0, 43, 0
1, 547860, Note_off_c, 0, 42, 58
1, 547875, Note_off_c, 0, 61, 38
1, 547902, Note_on_c, 0, 43, 21
1, 547910, Note_off_c, 0, 51, 0
1, 547951, Poly_aftertouch_c, 0, 51, 0
1, 547952, Note_off_c, 0, 43, 47
1, 548107, Note_on_c, 0, 44, 40
1, 548157, Note_on_c, 0, 60, 57
1, 548169, Note_on_c, 0, 56, 47
1, 548174, Control_c, 0, 64, 103
1, 548189, Control_c, 0, 64, 81
1, 548196, Note_on_c, 0, 51, 28
1, 548203, Control_c, 0, 64, 64
1, 548218, Control_c, 0, 64, 45
1, 548233, Control_c, 0, 64, 0
1, 548337, Control_c, 0, 64, 12
1, 548348, Note_off_c, 0, 44, 60
1, 548352, Control_c, 0, 64, 27
1, 548367, Control_c, 0, 64, 37
1, 548382, Control_c, 0, 64, 48
1, 548391, Note_on_c, 0, 46, 36
1, 548396, Control_c, 0, 64, 59
1, 548411, Control_c, 0, 64, 71
1, 548426, Control_c, 0, 64, 80
1, 548426, Note_off_c, 0, 46, 52
1, 548441, Control_c, 0, 64, 83
1, 548456, Note_on_c, 0, 44, 37
1, 548456, Note_off_c, 0, 56, 34
1, 548456, Control_c, 0, 64, 85
1, 548470, Control_c, 0, 64, 88
1, 548485, Control_c, 0, 64, 91
1, 548492, Note_off_c, 0, 44, 51
1, 548500, Control_c, 0, 64, 95
1, 548515, Control_c, 0, 64, 97
1, 548521, Note_on_c, 0, 46, 47
1, 548529, Control_c, 0, 64, 101
1, 548544, Control_c, 0, 64, 105
1, 548557, Note_off_c, 0, 46, 62
1, 548559, Control_c, 0, 64, 109
1, 548574, Control_c, 0, 64, 111
1, 548589, Control_c, 0, 64, 113
1, 548590, Note_on_c, 0, 44, 45
1, 548603, Control_c, 0, 64, 114
1, 548617, Note_off_c, 0, 44, 56
1, 548633, Control_c, 0, 64, 115
1, 548648, Control_c, 0, 64, 117
1, 548659, Note_on_c, 0, 46, 43
1, 548679, Control_c, 0, 64, 122
1, 548694, Control_c, 0, 64, 127
1, 548698, Note_off_c, 0, 46, 52
1, 548724, Note_on_c, 0, 44, 32
1, 548752, Note_off_c, 0, 44, 53
1, 548806, Note_on_c, 0, 46, 34
1, 548847, Note_off_c, 0, 46, 52
1, 548865, Note_on_c, 0, 44, 24
1, 548915, Note_on_c, 0, 54, 55
1, 548916, Note_off_c, 0, 44, 45
1, 548964, Note_on_c, 0, 46, 29
1, 548995, Note_off_c, 0, 46, 54
1, 549022, Note_on_c, 0, 44, 33
1, 549065, Note_off_c, 0, 44, 44
1, 549089, Note_on_c, 0, 46, 40
1, 549120, Note_off_c, 0, 46, 56
1, 549134, Note_off_c, 0, 51, 39
1, 549197, Note_on_c, 0, 44, 3
1, 549220, Note_on_c, 0, 46, 42
1, 549233, Note_off_c, 0, 44, 49
1, 549262, Note_off_c, 0, 46, 56
1, 549338, Note_on_c, 0, 44, 3
1, 549383, Note_on_c, 0, 46, 30
1, 549416, Note_off_c, 0, 46, 54
1, 549428, Note_off_c, 0, 44, 0
1, 549485, Poly_aftertouch_c, 0, 44, 0
1, 549520, Poly_aftertouch_c, 0, 44, 0
1, 549552, Note_on_c, 0, 46, 3
1, 549591, Note_on_c, 0, 44, 5
1, 549625, Note_off_c, 0, 46, 0
1, 549665, Note_off_c, 0, 44, 0
1, 549669, Poly_aftertouch_c, 0, 46, 127
1, 549684, Note_on_c, 0, 44, 24
1, 549727, Note_off_c, 0, 44, 57
1, 549833, Poly_aftertouch_c, 0, 44, 127
1, 549922, Note_on_c, 0, 46, 20
1, 549953, Poly_aftertouch_c, 0, 44, 0
1, 549964, Note_on_c, 0, 44, 45
1, 550000, Note_off_c, 0, 44, 60
1, 550005, Note_off_c, 0, 46, 0
1, 550029, Note_on_c, 0, 46, 24
1, 550075, Note_on_c, 0, 44, 29
1, 550095, Note_off_c, 0, 46, 0
1, 550117, Note_off_c, 0, 44, 43
1, 550124, Note_on_c, 0, 46, 9
1, 550160, Note_on_c, 0, 44, 30
1, 550191, Note_off_c, 0, 46, 0
1, 550209, Note_off_c, 0, 44, 41
1, 550228, Poly_aftertouch_c, 0, 46, 127
1, 550260, Note_on_c, 0, 44, 21
1, 550296, Note_off_c, 0, 44, 52
1, 550382, Note_on_c, 0, 61, 52
1, 550388, Note_on_c, 0, 52, 43
1, 550423, Poly_aftertouch_c, 0, 46, 0
1, 550460, Poly_aftertouch_c, 0, 46, 127
1, 550519, Note_on_c, 0, 44, 5
1, 550547, Poly_aftertouch_c, 0, 46, 0
1, 550549, Note_off_c, 0, 54, 42
1, 550567, Note_off_c, 0, 44, 50
1, 550568, Note_on_c, 0, 46, 30
1, 550620, Note_off_c, 0, 46, 46
1, 550632, Note_off_c, 0, 60, 33
1, 550635, Note_on_c, 0, 44, 29
1, 550669, Note_off_c, 0, 44, 51
1, 550719, Note_on_c, 0, 46, 32
1, 550757, Note_off_c, 0, 46, 54
1, 550761, Note_on_c, 0, 44, 45
1, 550795, Note_off_c, 0, 44, 52
1, 550856, Note_on_c, 0, 46, 13
1, 550918, Note_off_c, 0, 46, 0
1, 550931, Poly_aftertouch_c, 0, 44, 127
1, 550948, Note_on_c, 0, 46, 14
1, 551025, Note_off_c, 0, 46, 0
1, 551028, Poly_aftertouch_c, 0, 44, 0
1, 551062, Poly_aftertouch_c, 0, 46, 127
1, 551089, Note_on_c, 0, 44, 30
1, 551130, Note_off_c, 0, 44, 46
1, 551136, Note_on_c, 0, 58, 58
1, 551249, Poly_aftertouch_c, 0, 44, 127
1, 551376, Note_on_c, 0, 46, 3
1, 551385, Poly_aftertouch_c, 0, 44, 0
1, 551398, Note_on_c, 0, 44, 36
1, 551429, Note_off_c, 0, 46, 0
1, 551434, Note_off_c, 0, 44, 55
1, 551455, Note_on_c, 0, 46, 25
1, 551505, Note_on_c, 0, 44, 38
1, 551522, Note_off_c, 0, 46, 0
1, 551538, Note_on_c, 0, 46, 48
1, 551541, Note_off_c, 0, 44, 49
1, 551563, Note_off_c, 0, 52, 63
1, 551592, Note_off_c, 0, 46, 62
1, 551595, Note_on_c, 0, 44, 48
1, 551717, Note_off_c, 0, 44, 34
1, 551774, Note_on_c, 0, 43, 9
1, 551795, Note_on_c, 0, 51, 51
1, 551821, Note_on_c, 0, 44, 22
1, 551855, Note_off_c, 0, 43, 0
1, 551860, Note_off_c, 0, 44, 52
1, 551901, Poly_aftertouch_c, 0, 43, 127
1, 551962, Note_on_c, 0, 43, 6
1, 552019, Note_on_c, 0, 44, 35
1, 552039, Note_off_c, 0, 43, 0
1, 552075, Poly_aftertouch_c, 0, 43, 127
1, 552084, Note_off_c, 0, 44, 39
1, 552161, Note_on_c, 0, 42, 47
1, 552187, Poly_aftertouch_c, 0, 43, 0
1, 552242, Note_off_c, 0, 42, 57
1, 552270, Note_off_c, 0, 58, 37
1, 552271, Note_on_c, 0, 43, 41
1, 552301, Note_off_c, 0, 61, 42
1, 552313, Note_off_c, 0, 51, 42
1, 552346, Note_off_c, 0, 43, 49
1, 552570, Control_c, 0, 64, 115
1, 552585, Control_c, 0, 64, 107
1, 552600, Control_c, 0, 64, 102
1, 552614, Control_c, 0, 64, 97
1, 552629, Control_c, 0, 64, 94
1, 552651, Control_c, 0, 64, 90
1, 552659, Note_on_c, 0, 60, 47
1, 552666, Control_c, 0, 64, 86
1, 552667, Note_on_c, 0, 56, 40
1, 552674, Note_on_c, 0, 44, 35
1, 552681, Note_on_c, 0, 51, 32
1, 552682, Control_c, 0, 64, 82
1, 552697, Control_c, 0, 64, 77
1, 552712, Control_c, 0, 64, 70
1, 552727, Control_c, 0, 64, 65
1, 552742, Control_c, 0, 64, 59
1, 552756, Control_c, 0, 64, 49
1, 552771, Control_c, 0, 64, 33
1, 552786, Control_c, 0, 64, 0
1, 552933, Control_c, 0, 64, 18
1, 552948, Control_c, 0, 64, 29
1, 552963, Control_c, 0, 64, 38
1, 552978, Control_c, 0, 64, 46
1, 552993, Control_c, 0, 64, 55
1, 553008, Control_c, 0, 64, 62
1, 553023, Control_c, 0, 64, 68
1, 553038, Control_c, 0, 64, 71
1, 553053, Control_c, 0, 64, 72
1, 553067, Control_c, 0, 64, 73
1, 553082, Control_c, 0, 64, 74
1, 553097, Control_c, 0, 64, 75
1, 553115, Note_off_c, 0, 44, 37
1, 553160, Note_off_c, 0, 51, 41
1, 553183, Note_off_c, 0, 56, 42
1, 553193, Note_off_c, 0, 60, 36
1, 553216, Control_c, 0, 64, 75
1, 553231, Control_c, 0, 64, 74
1, 553246, Control_c, 0, 64, 74
1, 553261, Control_c, 0, 64, 73
1, 553275, Control_c, 0, 64, 72
1, 553290, Control_c, 0, 64, 71
1, 553305, Control_c, 0, 64, 69
1, 553319, Control_c, 0, 64, 68
1, 553334, Control_c, 0, 64, 67
1, 553349, Control_c, 0, 64, 65
1, 553364, Control_c, 0, 64, 64
1, 553379, Control_c, 0, 64, 63
1, 553401, Control_c, 0, 64, 62
1, 553416, Control_c, 0, 64, 61
1, 553431, Control_c, 0, 64, 60
1, 553446, Control_c, 0, 64, 59
1, 553461, Control_c, 0, 64, 57
1, 553476, Control_c, 0, 64, 55
1, 553491, Control_c, 0, 64, 53
1, 553506, Control_c, 0, 64, 52
1, 553521, Control_c, 0, 64, 51
1, 553536, Control_c, 0, 64, 50
1, 553550, Control_c, 0, 64, 49
1, 553565, Control_c, 0, 64, 49
1, 553580, Control_c, 0, 64, 48
1, 553595, Control_c, 0, 64, 48
1, 553610, Control_c, 0, 64, 47
1, 553624, Control_c, 0, 64, 47
1, 553639, Control_c, 0, 64, 46
1, 553654, Control_c, 0, 64, 45
1, 553669, Control_c, 0, 64, 44
1, 553684, Control_c, 0, 64, 43
1, 553698, Control_c, 0, 64, 42
1, 553713, Control_c, 0, 64, 41
1, 553728, Control_c, 0, 64, 40
1, 553742, Control_c, 0, 64, 39
1, 553757, Control_c, 0, 64, 38
1, 553772, Control_c, 0, 64, 37
1, 553787, Control_c, 0, 64, 35
1, 553802, Control_c, 0, 64, 34
1, 553816, Control_c, 0, 64, 34
1, 553831, Control_c, 0, 64, 32
1, 553846, Control_c, 0, 64, 31
1, 553861, Control_c, 0, 64, 30
1, 553876, Control_c, 0, 64, 29
1, 553890, Control_c, 0, 64, 27
1, 553905, Control_c, 0, 64, 25
1, 553920, Control_c, 0, 64, 24
1, 553934, Control_c, 0, 64, 22
1, 553949, Control_c, 0, 64, 19
1, 553964, Control_c, 0, 64, 16
1, 553979, Control_c, 0, 64, 12
1, 553994, Control_c, 0, 64, 0
1, 554284, Control_c, 0, 64, 14
1, 554299, Control_c, 0, 64, 22
1, 554314, Control_c, 0, 64, 27
1, 554328, Control_c, 0, 64, 32
1, 554343, Control_c, 0, 64, 37
1, 554358, Control_c, 0, 64, 41
1, 554372, Control_c, 0, 64, 46
1, 554387, Control_c, 0, 64, 50
1, 554402, Control_c, 0, 64, 53
1, 554417, Control_c, 0, 64, 55
1, 554432, Control_c, 0, 64, 57
1, 554446, Control_c, 0, 64, 58
1, 554461, Control_c, 0, 64, 59
1, 554476, Control_c, 0, 64, 59
1, 554491, Control_c, 0, 64, 60
1, 554506, Control_c, 0, 64, 61
1, 554520, Control_c, 0, 64, 61
1, 554535, Control_c, 0, 64, 62
1, 554550, Control_c, 0, 64, 62
1, 554564, Control_c, 0, 64, 63
1, 554579, Control_c, 0, 64, 64
1, 554594, Control_c, 0, 64, 64
1, 554609, Control_c, 0, 64, 65
1, 554624, Control_c, 0, 64, 65
1, 554639, Control_c, 0, 64, 66
1, 554653, Control_c, 0, 64, 66
1, 554668, Control_c, 0, 64, 67
1, 554683, Control_c, 0, 64, 67
1, 554713, Control_c, 0, 64, 68
1, 554743, Control_c, 0, 64, 68
1, 554802, Control_c, 0, 64, 69
1, 554833, Note_on_c, 0, 60, 36
1, 554846, Control_c, 0, 64, 69
1, 554849, Note_on_c, 0, 32, 30
1, 554859, Note_on_c, 0, 51, 30
1, 554861, Control_c, 0, 64, 70
1, 554876, Control_c, 0, 64, 71
1, 554898, Control_c, 0, 64, 71
1, 554913, Control_c, 0, 64, 73
1, 554928, Control_c, 0, 64, 75
1, 554943, Control_c, 0, 64, 78
1, 554957, Control_c, 0, 64, 80
1, 554972, Control_c, 0, 64, 81
1, 554987, Control_c, 0, 64, 83
1, 555002, Control_c, 0, 64, 85
1, 555017, Control_c, 0, 64, 87
1, 555032, Control_c, 0, 64, 88
1, 555046, Control_c, 0, 64, 89
1, 555061, Control_c, 0, 64, 91
1, 555077, Control_c, 0, 64, 93
1, 555092, Control_c, 0, 64, 95
1, 555106, Note_off_c, 0, 51, 34
1, 555107, Control_c, 0, 64, 97
1, 555121, Control_c, 0, 64, 98
1, 555136, Control_c, 0, 64, 98
1, 555151, Control_c, 0, 64, 99
1, 555166, Control_c, 0, 64, 100
1, 555181, Control_c, 0, 64, 101
1, 555183, Note_off_c, 0, 32, 30
1, 555195, Control_c, 0, 64, 103
1, 555200, Note_off_c, 0, 60, 26
1, 555210, Control_c, 0, 64, 104
1, 555225, Control_c, 0, 64, 105
1, 555240, Control_c, 0, 64, 107
1, 555255, Control_c, 0, 64, 108
1, 555269, Control_c, 0, 64, 111
1, 555284, Control_c, 0, 64, 115
1, 555299, Control_c, 0, 64, 119
1, 555313, Control_c, 0, 64, 127
1, 555810, Control_c, 0, 67, 122
1, 555825, Control_c, 0, 67, 114
1, 555839, Control_c, 0, 67, 106
1, 555854, Control_c, 0, 67, 97
1, 555870, Control_c, 0, 67, 87
1, 555885, Control_c, 0, 67, 78
1, 555899, Control_c, 0, 67, 70
1, 555914, Control_c, 0, 67, 63
1, 555929, Control_c, 0, 67, 56
1, 555944, Control_c, 0, 67, 49
1, 555959, Control_c, 0, 67, 41
1, 555974, Control_c, 0, 67, 32
1, 555989, Control_c, 0, 67, 23
1, 556004, Control_c, 0, 67, 11
1, 556018, Control_c, 0, 67, 0
1, 557054, Note_on_c, 0, 92, 102
1, 557062, Note_on_c, 0, 80, 90
1, 557064, Note_on_c, 0, 68, 86
1, 557064, Note_on_c, 0, 72, 90
1, 557071, Note_on_c, 0, 60, 72
1, 557074, Note_on_c, 0, 63, 74
1, 557097, Note_on_c, 0, 82, 37
1, 557098, Note_off_c, 0, 82, 127
1, 560898, Note_off_c, 0, 80, 32
1, 560903, Note_off_c, 0, 60, 32
1, 560933, Note_off_c, 0, 92, 39
1, 560958, Note_off_c, 0, 72, 29
1, 561001, Note_off_c, 0, 68, 25
1, 561082, Note_off_c, 0, 63, 42
1, 561273, Control_c, 0, 64, 104
1, 561288, Control_c, 0, 64, 97
1, 561303, Control_c, 0, 64, 92
1, 561318, Control_c, 0, 64, 87
1, 561332, Control_c, 0, 64, 83
1, 561347, Control_c, 0, 64, 78
1, 561362, Control_c, 0, 64, 74
1, 561377, Control_c, 0, 64, 69
1, 561392, Control_c, 0, 64, 65
1, 561406, Control_c, 0, 64, 61
1, 561421, Control_c, 0, 64, 58
1, 561436, Control_c, 0, 64, 54
1, 561452, Control_c, 0, 64, 50
1, 561467, Control_c, 0, 64, 48
1, 561481, Control_c, 0, 64, 47
1, 561496, Control_c, 0, 64, 46
1, 561511, Control_c, 0, 64, 46
1, 561526, Control_c, 0, 64, 45
1, 561541, Control_c, 0, 64, 44
1, 561555, Control_c, 0, 64, 43
1, 561570, Control_c, 0, 64, 42
1, 561585, Control_c, 0, 64, 41
1, 561600, Control_c, 0, 64, 39
1, 561615, Control_c, 0, 64, 38
1, 561637, Control_c, 0, 64, 37
1, 561652, Control_c, 0, 64, 35
1, 561667, Control_c, 0, 64, 34
1, 561681, Control_c, 0, 64, 32
1, 561696, Control_c, 0, 64, 30
1, 561711, Control_c, 0, 64, 28
1, 561726, Control_c, 0, 64, 26
1, 561741, Control_c, 0, 64, 23
1, 561755, Control_c, 0, 64, 19
1, 561770, Control_c, 0, 64, 11
1, 561785, Control_c, 0, 64, 0
1, 561860, End_track
0, 0, End_of_file
