0, 0, Header, 0, 1, 384
1, 0, Start_track
1, 0, Title_t, "BachPF_BWV885--Chon             "
1, 0, Text_t, "2011 ePiano Junior Competition"
1, 0, Text_t, "captured in spring and summer 2011"
1, 0, Text_t, "http://www.piano-e-competition.com/"
1, 0, Text_t, "standard-resolution version"
1, 0, Text_t, "File processed for distribution with software designed and coded by Dr. John Q. Walker, founder of Zenph Sound Innovations"
1, 0, Instrument_name_t, "Yamaha Disklavier Pro Mark IV concert grand piano, model DCFIIISM4PRO"
1, 0, Sequencer_specific, 39, 67, 113, 0, 1, 0, 1, 0, 66, 97, 99, 104, 32, 80, 70, 95, 66, 87, 86, 56, 56, 53, 32, 32, 83, 97, 101, 89, 111, 111, 110, 32, 67, 104, 111, 110, 32, 32, 32, 32
1, 0, Sequencer_specific, 6, 67, 113, 0, 0, 0, 69
1, 0, System_exclusive, 21, 67, 113, 126, 21, 0, 2, 2, 2, 5, 12, 8, 4, 14, 1, 0, 14, 4, 12, 14, 6, 247
1, 0, Sequencer_specific, 5, 67, 123, 12, 2, 1
1, 0, Tempo, 512820
1, 0, Time_signature, 4, 2, 24, 8
1, 0, System_exclusive, 5, 126, 127, 9, 1, 247
1, 1, System_exclusive, 8, 67, 16, 76, 0, 0, 126, 0, 247
1, 2, System_exclusive, 8, 67, 16, 76, 8, 9, 7, 1, 247
1, 3, Control_c, 0, 0, 108
1, 3, Control_c, 1, 0, 108
1, 3, Control_c, 2, 0, 0
1, 3, Control_c, 3, 0, 0
1, 3, Control_c, 4, 0, 0
1, 3, Control_c, 5, 0, 0
1, 3, Control_c, 6, 0, 0
1, 3, Control_c, 7, 0, 0
1, 3, Control_c, 8, 0, 0
1, 3, Control_c, 9, 0, 127
1, 3, Control_c, 10, 0, 0
1, 3, Control_c, 11, 0, 0
1, 3, Control_c, 12, 0, 0
1, 3, Control_c, 13, 0, 0
1, 3, Control_c, 14, 0, 0
1, 3, Control_c, 15, 0, 0
1, 4, Control_c, 0, 32, 0
1, 4, Control_c, 1, 32, 0
1, 4, Control_c, 2, 32, 0
1, 4, Control_c, 3, 32, 0
1, 4, Control_c, 4, 32, 0
1, 4, Control_c, 5, 32, 0
1, 4, Control_c, 6, 32, 0
1, 4, Control_c, 7, 32, 0
1, 4, Control_c, 8, 32, 0
1, 4, Control_c, 9, 32, 0
1, 4, Control_c, 10, 32, 0
1, 4, Control_c, 11, 32, 0
1, 4, Control_c, 12, 32, 0
1, 4, Control_c, 13, 32, 0
1, 4, Control_c, 14, 32, 0
1, 4, Control_c, 15, 32, 0
1, 5, Program_c, 0, 0
1, 5, Program_c, 1, 0
1, 5, Program_c, 2, 0
1, 5, Program_c, 3, 0
1, 5, Program_c, 4, 0
1, 5, Program_c, 5, 0
1, 5, Program_c, 6, 0
1, 5, Program_c, 7, 0
1, 5, Program_c, 8, 0
1, 5, Program_c, 9, 0
1, 5, Program_c, 10, 0
1, 5, Program_c, 11, 0
1, 5, Program_c, 12, 0
1, 5, Program_c, 13, 0
1, 5, Program_c, 14, 0
1, 5, Program_c, 15, 0
1, 6, Control_c, 0, 7, 100
1, 6, Control_c, 1, 7, 100
1, 6, Control_c, 2, 7, 100
1, 6, Control_c, 3, 7, 100
1, 6, Control_c, 4, 7, 100
1, 6, Control_c, 5, 7, 100
1, 6, Control_c, 6, 7, 100
1, 6, Control_c, 7, 7, 100
1, 6, Control_c, 8, 7, 100
1, 6, Control_c, 9, 7, 100
1, 6, Control_c, 10, 7, 100
1, 6, Control_c, 11, 7, 100
1, 6, Control_c, 12, 7, 100
1, 6, Control_c, 13, 7, 100
1, 6, Control_c, 14, 7, 100
1, 6, Control_c, 15, 7, 100
1, 42, Control_c, 0, 64, 15
1, 79, Control_c, 0, 64, 31
1, 116, Control_c, 0, 64, 46
1, 153, Control_c, 0, 64, 63
1, 190, Control_c, 0, 64, 77
1, 226, Control_c, 0, 64, 94
1, 263, Control_c, 0, 64, 108
1, 300, Control_c, 0, 64, 127
1, 380, Note_on_c, 0, 43, 92
1, 1114, Note_on_c, 0, 67, 74
1, 1164, Control_c, 0, 64, 113
1, 1174, Note_on_c, 0, 62, 91
1, 1179, Control_c, 0, 64, 74
1, 1194, Control_c, 0, 64, 58
1, 1200, Note_off_c, 0, 67, 62
1, 1209, Control_c, 0, 64, 26
1, 1224, Control_c, 0, 64, 0
1, 1283, Control_c, 0, 64, 29
1, 1305, Control_c, 0, 64, 34
1, 1334, Control_c, 0, 64, 36
1, 1349, Control_c, 0, 64, 47
1, 1364, Control_c, 0, 64, 56
1, 1379, Control_c, 0, 64, 57
1, 1394, Control_c, 0, 64, 58
1, 1409, Control_c, 0, 64, 59
1, 1424, Control_c, 0, 64, 61
1, 1439, Control_c, 0, 64, 64
1, 1453, Control_c, 0, 64, 67
1, 1468, Control_c, 0, 64, 68
1, 1483, Control_c, 0, 64, 71
1, 1498, Control_c, 0, 64, 75
1, 1513, Control_c, 0, 64, 78
1, 1527, Control_c, 0, 64, 80
1, 1542, Control_c, 0, 64, 83
1, 1557, Control_c, 0, 64, 87
1, 1571, Control_c, 0, 64, 94
1, 1586, Control_c, 0, 64, 102
1, 1601, Control_c, 0, 64, 121
1, 1616, Control_c, 0, 64, 127
1, 1818, Note_on_c, 0, 65, 81
1, 1829, Note_off_c, 0, 62, 63
1, 1868, Control_c, 0, 64, 90
1, 1883, Control_c, 0, 64, 68
1, 1886, Note_on_c, 0, 63, 74
1, 1898, Control_c, 0, 64, 54
1, 1913, Control_c, 0, 64, 19
1, 1915, Note_off_c, 0, 65, 61
1, 1928, Control_c, 0, 64, 0
1, 2054, Control_c, 0, 64, 12
1, 2068, Control_c, 0, 64, 39
1, 2083, Control_c, 0, 64, 47
1, 2128, Control_c, 0, 64, 50
1, 2142, Control_c, 0, 64, 56
1, 2157, Control_c, 0, 64, 59
1, 2172, Control_c, 0, 64, 60
1, 2202, Control_c, 0, 64, 60
1, 2217, Control_c, 0, 64, 62
1, 2232, Control_c, 0, 64, 64
1, 2246, Control_c, 0, 64, 65
1, 2261, Control_c, 0, 64, 65
1, 2276, Control_c, 0, 64, 66
1, 2291, Control_c, 0, 64, 68
1, 2306, Control_c, 0, 64, 71
1, 2321, Control_c, 0, 64, 75
1, 2336, Control_c, 0, 64, 81
1, 2350, Control_c, 0, 64, 91
1, 2365, Control_c, 0, 64, 112
1, 2380, Control_c, 0, 64, 127
1, 2524, Note_on_c, 0, 58, 63
1, 2598, Note_on_c, 0, 57, 66
1, 2601, Note_off_c, 0, 58, 60
1, 2601, Control_c, 0, 64, 98
1, 2616, Control_c, 0, 64, 75
1, 2631, Control_c, 0, 64, 63
1, 2647, Control_c, 0, 64, 49
1, 2662, Control_c, 0, 64, 32
1, 2677, Control_c, 0, 64, 28
1, 2691, Control_c, 0, 64, 29
1, 2706, Control_c, 0, 64, 35
1, 2721, Control_c, 0, 64, 43
1, 2736, Control_c, 0, 64, 47
1, 2751, Control_c, 0, 64, 49
1, 2765, Control_c, 0, 64, 50
1, 2780, Control_c, 0, 64, 53
1, 2803, Control_c, 0, 64, 57
1, 2817, Control_c, 0, 64, 60
1, 2832, Control_c, 0, 64, 60
1, 2862, Control_c, 0, 64, 61
1, 2877, Control_c, 0, 64, 63
1, 2891, Control_c, 0, 64, 64
1, 2906, Control_c, 0, 64, 65
1, 2921, Control_c, 0, 64, 66
1, 2936, Control_c, 0, 64, 67
1, 2951, Control_c, 0, 64, 69
1, 2965, Control_c, 0, 64, 70
1, 2980, Control_c, 0, 64, 71
1, 2995, Control_c, 0, 64, 72
1, 3010, Control_c, 0, 64, 75
1, 3024, Control_c, 0, 64, 80
1, 3039, Control_c, 0, 64, 86
1, 3054, Control_c, 0, 64, 92
1, 3069, Control_c, 0, 64, 100
1, 3084, Control_c, 0, 64, 117
1, 3099, Control_c, 0, 64, 127
1, 3216, Note_on_c, 0, 60, 59
1, 3251, Note_off_c, 0, 57, 57
1, 3305, Note_on_c, 0, 54, 57
1, 3326, Note_off_c, 0, 60, 62
1, 3336, Control_c, 0, 64, 85
1, 3351, Control_c, 0, 64, 68
1, 3365, Control_c, 0, 64, 58
1, 3380, Control_c, 0, 64, 48
1, 3395, Control_c, 0, 64, 42
1, 3409, Control_c, 0, 64, 43
1, 3424, Control_c, 0, 64, 48
1, 3440, Control_c, 0, 64, 56
1, 3455, Control_c, 0, 64, 61
1, 3470, Control_c, 0, 64, 64
1, 3485, Control_c, 0, 64, 66
1, 3500, Control_c, 0, 64, 70
1, 3514, Control_c, 0, 64, 75
1, 3529, Control_c, 0, 64, 81
1, 3552, Control_c, 0, 64, 93
1, 3567, Control_c, 0, 64, 127
1, 3713, Note_off_c, 0, 63, 62
1, 3871, Note_on_c, 0, 63, 60
1, 3920, Note_on_c, 0, 62, 69
1, 3949, Note_off_c, 0, 62, 67
1, 4005, Note_on_c, 0, 62, 76
1, 4011, Control_c, 0, 64, 107
1, 4017, Note_off_c, 0, 63, 55
1, 4026, Control_c, 0, 64, 71
1, 4040, Control_c, 0, 64, 52
1, 4055, Control_c, 0, 64, 0
1, 4203, Control_c, 0, 64, 27
1, 4218, Control_c, 0, 64, 48
1, 4234, Control_c, 0, 64, 53
1, 4249, Control_c, 0, 64, 54
1, 4263, Control_c, 0, 64, 56
1, 4278, Control_c, 0, 64, 60
1, 4300, Control_c, 0, 64, 63
1, 4315, Control_c, 0, 64, 65
1, 4330, Control_c, 0, 64, 67
1, 4345, Control_c, 0, 64, 71
1, 4360, Control_c, 0, 64, 76
1, 4375, Control_c, 0, 64, 85
1, 4390, Control_c, 0, 64, 99
1, 4405, Control_c, 0, 64, 127
1, 4634, Note_on_c, 0, 60, 70
1, 4662, Note_off_c, 0, 62, 60
1, 4730, Note_off_c, 0, 60, 63
1, 4731, Note_on_c, 0, 69, 81
1, 4744, Control_c, 0, 64, 78
1, 4759, Control_c, 0, 64, 62
1, 4774, Control_c, 0, 64, 43
1, 4789, Control_c, 0, 64, 0
1, 4849, Control_c, 0, 64, 38
1, 4864, Control_c, 0, 64, 50
1, 4879, Control_c, 0, 64, 52
1, 4893, Control_c, 0, 64, 54
1, 4908, Control_c, 0, 64, 58
1, 4923, Control_c, 0, 64, 62
1, 4938, Control_c, 0, 64, 65
1, 4953, Control_c, 0, 64, 67
1, 4968, Control_c, 0, 64, 70
1, 4982, Control_c, 0, 64, 77
1, 4997, Control_c, 0, 64, 89
1, 5012, Control_c, 0, 64, 127
1, 5056, Note_off_c, 0, 69, 62
1, 5310, Note_on_c, 0, 60, 54
1, 5357, Note_on_c, 0, 58, 65
1, 5367, Note_off_c, 0, 60, 0
1, 5386, Note_off_c, 0, 58, 65
1, 5405, Poly_aftertouch_c, 0, 60, 127
1, 5435, Control_c, 0, 64, 113
1, 5450, Control_c, 0, 64, 69
1, 5456, Note_on_c, 0, 58, 64
1, 5465, Control_c, 0, 64, 49
1, 5466, Poly_aftertouch_c, 0, 60, 0
1, 5480, Control_c, 0, 64, 0
1, 5583, Control_c, 0, 64, 16
1, 5612, Control_c, 0, 64, 26
1, 5627, Control_c, 0, 64, 49
1, 5642, Control_c, 0, 64, 60
1, 5657, Control_c, 0, 64, 62
1, 5671, Control_c, 0, 64, 62
1, 5686, Control_c, 0, 64, 64
1, 5701, Control_c, 0, 64, 68
1, 5716, Control_c, 0, 64, 75
1, 5731, Control_c, 0, 64, 88
1, 5746, Control_c, 0, 64, 111
1, 5760, Control_c, 0, 64, 127
1, 5772, Note_off_c, 0, 43, 57
1, 5794, Note_off_c, 0, 54, 63
1, 6049, Note_on_c, 0, 57, 56
1, 6086, Note_off_c, 0, 58, 61
1, 6105, Note_off_c, 0, 57, 62
1, 6153, Note_on_c, 0, 55, 41
1, 6158, Note_on_c, 0, 58, 43
1, 6198, Control_c, 0, 64, 85
1, 6213, Control_c, 0, 64, 63
1, 6228, Control_c, 0, 64, 13
1, 6242, Control_c, 0, 64, 0
1, 6331, Control_c, 0, 64, 33
1, 6346, Control_c, 0, 64, 39
1, 6361, Control_c, 0, 64, 44
1, 6376, Control_c, 0, 64, 52
1, 6390, Control_c, 0, 64, 56
1, 6405, Control_c, 0, 64, 58
1, 6420, Control_c, 0, 64, 59
1, 6435, Control_c, 0, 64, 61
1, 6450, Control_c, 0, 64, 65
1, 6464, Control_c, 0, 64, 70
1, 6479, Control_c, 0, 64, 75
1, 6494, Control_c, 0, 64, 80
1, 6509, Control_c, 0, 64, 86
1, 6524, Control_c, 0, 64, 97
1, 6546, Control_c, 0, 64, 127
1, 6741, Note_on_c, 0, 74, 84
1, 6822, Note_on_c, 0, 60, 51
1, 6837, Note_on_c, 0, 69, 86
1, 6858, Control_c, 0, 64, 85
1, 6873, Control_c, 0, 64, 66
1, 6876, Note_off_c, 0, 74, 62
1, 6888, Control_c, 0, 64, 52
1, 6903, Control_c, 0, 64, 36
1, 6918, Control_c, 0, 64, 20
1, 6932, Control_c, 0, 64, 17
1, 6947, Control_c, 0, 64, 20
1, 6951, Note_off_c, 0, 58, 35
1, 6962, Control_c, 0, 64, 38
1, 6977, Control_c, 0, 64, 50
1, 6992, Control_c, 0, 64, 52
1, 7006, Control_c, 0, 64, 53
1, 7021, Control_c, 0, 64, 56
1, 7036, Control_c, 0, 64, 62
1, 7051, Control_c, 0, 64, 66
1, 7065, Control_c, 0, 64, 69
1, 7080, Control_c, 0, 64, 71
1, 7095, Control_c, 0, 64, 74
1, 7110, Control_c, 0, 64, 81
1, 7125, Control_c, 0, 64, 98
1, 7139, Control_c, 0, 64, 127
1, 7416, Note_on_c, 0, 72, 74
1, 7523, Note_on_c, 0, 62, 57
1, 7525, Note_on_c, 0, 70, 83
1, 7533, Control_c, 0, 64, 89
1, 7548, Control_c, 0, 64, 68
1, 7562, Control_c, 0, 64, 57
1, 7564, Note_off_c, 0, 72, 60
1, 7577, Control_c, 0, 64, 46
1, 7582, Note_off_c, 0, 60, 58
1, 7592, Control_c, 0, 64, 28
1, 7607, Control_c, 0, 64, 0
1, 7635, Note_off_c, 0, 69, 60
1, 8148, Note_on_c, 0, 65, 62
1, 8245, Note_on_c, 0, 64, 61
1, 8246, Note_off_c, 0, 65, 63
1, 8822, Note_on_c, 0, 67, 56
1, 8881, Note_off_c, 0, 64, 58
1, 8934, Note_on_c, 0, 61, 48
1, 8971, Control_c, 0, 64, 20
1, 8975, Note_off_c, 0, 67, 63
1, 8984, Note_off_c, 0, 62, 59
1, 8986, Control_c, 0, 64, 21
1, 9001, Control_c, 0, 64, 22
1, 9016, Control_c, 0, 64, 29
1, 9031, Control_c, 0, 64, 43
1, 9046, Control_c, 0, 64, 49
1, 9061, Control_c, 0, 64, 50
1, 9076, Control_c, 0, 64, 50
1, 9091, Control_c, 0, 64, 56
1, 9105, Control_c, 0, 64, 63
1, 9120, Control_c, 0, 64, 68
1, 9135, Control_c, 0, 64, 72
1, 9150, Control_c, 0, 64, 80
1, 9165, Control_c, 0, 64, 127
1, 9326, Note_off_c, 0, 70, 64
1, 9485, Note_on_c, 0, 70, 65
1, 9544, Note_off_c, 0, 70, 54
1, 9550, Note_on_c, 0, 69, 71
1, 9575, Note_off_c, 0, 69, 66
1, 9603, Note_on_c, 0, 70, 54
1, 9642, Note_off_c, 0, 70, 59
1, 9644, Note_on_c, 0, 69, 77
1, 9675, Control_c, 0, 64, 78
1, 9690, Control_c, 0, 64, 62
1, 9705, Control_c, 0, 64, 39
1, 9720, Control_c, 0, 64, 0
1, 9794, Control_c, 0, 64, 24
1, 9808, Control_c, 0, 64, 25
1, 9839, Control_c, 0, 64, 34
1, 9854, Control_c, 0, 64, 49
1, 9869, Control_c, 0, 64, 54
1, 9913, Control_c, 0, 64, 54
1, 9928, Control_c, 0, 64, 58
1, 9943, Control_c, 0, 64, 60
1, 9987, Control_c, 0, 64, 60
1, 10002, Control_c, 0, 64, 63
1, 10017, Control_c, 0, 64, 64
1, 10031, Control_c, 0, 64, 64
1, 10061, Control_c, 0, 64, 66
1, 10075, Control_c, 0, 64, 68
1, 10090, Control_c, 0, 64, 72
1, 10105, Control_c, 0, 64, 80
1, 10120, Control_c, 0, 64, 90
1, 10135, Control_c, 0, 64, 110
1, 10149, Control_c, 0, 64, 127
1, 10263, Note_on_c, 0, 67, 68
1, 10310, Note_off_c, 0, 69, 61
1, 10366, Note_off_c, 0, 67, 61
1, 10375, Note_on_c, 0, 76, 80
1, 10379, Control_c, 0, 64, 79
1, 10394, Control_c, 0, 64, 60
1, 10409, Control_c, 0, 64, 40
1, 10424, Control_c, 0, 64, 21
1, 10438, Control_c, 0, 64, 18
1, 10453, Control_c, 0, 64, 25
1, 10468, Control_c, 0, 64, 46
1, 10483, Control_c, 0, 64, 59
1, 10498, Control_c, 0, 64, 62
1, 10512, Control_c, 0, 64, 63
1, 10527, Control_c, 0, 64, 64
1, 10542, Control_c, 0, 64, 66
1, 10557, Control_c, 0, 64, 70
1, 10572, Control_c, 0, 64, 76
1, 10587, Control_c, 0, 64, 82
1, 10601, Control_c, 0, 64, 93
1, 10616, Control_c, 0, 64, 127
1, 10758, Note_off_c, 0, 76, 60
1, 10931, Note_on_c, 0, 67, 74
1, 10990, Note_off_c, 0, 67, 61
1, 11003, Note_on_c, 0, 66, 73
1, 11064, Note_off_c, 0, 66, 61
1, 11068, Note_on_c, 0, 67, 75
1, 11068, Control_c, 0, 64, 81
1, 11083, Control_c, 0, 64, 62
1, 11098, Control_c, 0, 64, 33
1, 11112, Control_c, 0, 64, 0
1, 11126, Note_on_c, 0, 66, 68
1, 11138, Note_off_c, 0, 67, 60
1, 11172, Control_c, 0, 64, 18
1, 11186, Control_c, 0, 64, 40
1, 11201, Control_c, 0, 64, 53
1, 11216, Control_c, 0, 64, 57
1, 11231, Control_c, 0, 64, 59
1, 11261, Control_c, 0, 64, 59
1, 11276, Control_c, 0, 64, 62
1, 11290, Control_c, 0, 64, 65
1, 11305, Control_c, 0, 64, 68
1, 11320, Control_c, 0, 64, 70
1, 11335, Control_c, 0, 64, 72
1, 11337, Note_off_c, 0, 61, 55
1, 11350, Control_c, 0, 64, 73
1, 11365, Control_c, 0, 64, 76
1, 11379, Control_c, 0, 64, 81
1, 11394, Control_c, 0, 64, 90
1, 11409, Control_c, 0, 64, 108
1, 11416, Note_off_c, 0, 55, 59
1, 11425, Control_c, 0, 64, 127
1, 11662, Note_off_c, 0, 66, 56
1, 11686, Note_on_c, 0, 64, 55
1, 11787, Control_c, 0, 64, 101
1, 11788, Note_off_c, 0, 64, 62
1, 11798, Note_on_c, 0, 50, 44
1, 11801, Control_c, 0, 64, 72
1, 11803, Note_on_c, 0, 66, 58
1, 11816, Control_c, 0, 64, 58
1, 11818, Note_on_c, 0, 62, 45
1, 11831, Control_c, 0, 64, 36
1, 11846, Control_c, 0, 64, 0
1, 12340, Note_on_c, 0, 67, 59
1, 12364, Note_off_c, 0, 66, 55
1, 12462, Note_on_c, 0, 69, 66
1, 12487, Note_off_c, 0, 67, 58
1, 12781, Note_on_c, 0, 60, 50
1, 12894, Note_off_c, 0, 62, 36
1, 13093, Note_on_c, 0, 58, 53
1, 13163, Note_off_c, 0, 60, 52
1, 13657, Note_on_c, 0, 62, 59
1, 13753, Note_on_c, 0, 67, 72
1, 13846, Note_off_c, 0, 62, 38
1, 13914, Note_off_c, 0, 69, 57
1, 14326, Note_on_c, 0, 70, 62
1, 14444, Note_on_c, 0, 57, 46
1, 14444, Note_on_c, 0, 72, 62
1, 14486, Note_off_c, 0, 70, 63
1, 14491, Note_off_c, 0, 58, 57
1, 14611, Control_c, 0, 64, 24
1, 14627, Control_c, 0, 64, 34
1, 14642, Control_c, 0, 64, 37
1, 14657, Control_c, 0, 64, 42
1, 14672, Control_c, 0, 64, 50
1, 14687, Control_c, 0, 64, 56
1, 14701, Control_c, 0, 64, 59
1, 14716, Control_c, 0, 64, 60
1, 14731, Control_c, 0, 64, 61
1, 14745, Control_c, 0, 64, 63
1, 14746, Note_off_c, 0, 67, 63
1, 14760, Control_c, 0, 64, 64
1, 14783, Control_c, 0, 64, 66
1, 14798, Control_c, 0, 64, 67
1, 14813, Control_c, 0, 64, 68
1, 14827, Control_c, 0, 64, 70
1, 14842, Control_c, 0, 64, 71
1, 14857, Control_c, 0, 64, 72
1, 14872, Control_c, 0, 64, 73
1, 14887, Control_c, 0, 64, 75
1, 14901, Control_c, 0, 64, 78
1, 14916, Control_c, 0, 64, 80
1, 14931, Control_c, 0, 64, 81
1, 14990, Control_c, 0, 64, 80
1, 15005, Control_c, 0, 64, 79
1, 15020, Control_c, 0, 64, 79
1, 15032, Note_on_c, 0, 67, 51
1, 15035, Control_c, 0, 64, 78
1, 15049, Control_c, 0, 64, 77
1, 15064, Control_c, 0, 64, 75
1, 15079, Control_c, 0, 64, 71
1, 15094, Control_c, 0, 64, 68
1, 15109, Control_c, 0, 64, 66
1, 15124, Control_c, 0, 64, 64
1, 15139, Control_c, 0, 64, 63
1, 15140, Note_on_c, 0, 66, 50
1, 15153, Control_c, 0, 64, 62
1, 15168, Control_c, 0, 64, 61
1, 15178, Note_off_c, 0, 67, 62
1, 15183, Control_c, 0, 64, 61
1, 15198, Control_c, 0, 64, 60
1, 15213, Control_c, 0, 64, 59
1, 15227, Control_c, 0, 64, 59
1, 15242, Control_c, 0, 64, 58
1, 15271, Control_c, 0, 64, 57
1, 15316, Control_c, 0, 64, 57
1, 15390, Control_c, 0, 64, 56
1, 15562, Control_c, 0, 64, 57
1, 15693, Note_on_c, 0, 64, 46
1, 15702, Note_off_c, 0, 66, 63
1, 15813, Note_on_c, 0, 66, 59
1, 15829, Note_off_c, 0, 64, 62
1, 15991, Control_c, 0, 64, 57
1, 16094, Control_c, 0, 64, 58
1, 16244, Control_c, 0, 64, 58
1, 16304, Note_on_c, 0, 74, 70
1, 16405, Note_on_c, 0, 69, 80
1, 16420, Note_on_c, 0, 62, 46
1, 16431, Note_off_c, 0, 72, 54
1, 16441, Note_off_c, 0, 74, 63
1, 16491, Note_off_c, 0, 57, 65
1, 16577, Control_c, 0, 64, 59
1, 16651, Control_c, 0, 64, 59
1, 16704, Note_on_c, 0, 51, 71
1, 16752, Note_off_c, 0, 50, 39
1, 16839, Note_on_c, 0, 72, 60
1, 16923, Note_off_c, 0, 66, 51
1, 17041, Note_on_c, 0, 53, 59
1, 17044, Note_on_c, 0, 67, 57
1, 17044, Control_c, 0, 64, 59
1, 17045, Note_on_c, 0, 71, 67
1, 17103, Control_c, 0, 64, 58
1, 17108, Note_off_c, 0, 72, 32
1, 17118, Control_c, 0, 64, 57
1, 17119, Note_off_c, 0, 51, 62
1, 17148, Control_c, 0, 64, 57
1, 17166, Note_off_c, 0, 69, 39
1, 17208, Control_c, 0, 64, 56
1, 17551, Note_on_c, 0, 72, 70
1, 17594, Note_off_c, 0, 71, 61
1, 17680, Note_on_c, 0, 74, 74
1, 17736, Note_off_c, 0, 72, 56
1, 17988, Note_on_c, 0, 59, 65
1, 18096, Note_off_c, 0, 62, 37
1, 18267, Control_c, 0, 64, 57
1, 18324, Note_on_c, 0, 51, 62
1, 18337, Note_on_c, 0, 55, 60
1, 18358, Note_off_c, 0, 53, 61
1, 18361, Note_off_c, 0, 59, 59
1, 18474, Control_c, 0, 64, 57
1, 18489, Control_c, 0, 64, 58
1, 18504, Control_c, 0, 64, 59
1, 18541, Control_c, 0, 64, 60
1, 18556, Control_c, 0, 64, 61
1, 18570, Control_c, 0, 64, 63
1, 18585, Control_c, 0, 64, 66
1, 18600, Control_c, 0, 64, 68
1, 18616, Control_c, 0, 64, 71
1, 18631, Control_c, 0, 64, 75
1, 18646, Control_c, 0, 64, 81
1, 18661, Control_c, 0, 64, 88
1, 18675, Control_c, 0, 64, 100
1, 18690, Control_c, 0, 64, 127
1, 18734, Note_off_c, 0, 67, 51
1, 18877, Note_on_c, 0, 67, 75
1, 18966, Note_on_c, 0, 63, 60
1, 18972, Control_c, 0, 64, 92
1, 18974, Note_on_c, 0, 72, 85
1, 18987, Control_c, 0, 64, 71
1, 19001, Control_c, 0, 64, 60
1, 19016, Control_c, 0, 64, 42
1, 19027, Note_off_c, 0, 55, 62
1, 19030, Note_off_c, 0, 67, 56
1, 19031, Control_c, 0, 64, 20
1, 19046, Control_c, 0, 64, 0
1, 19048, Note_off_c, 0, 74, 58
1, 19061, Control_c, 0, 64, 9
1, 19075, Control_c, 0, 64, 26
1, 19090, Control_c, 0, 64, 43
1, 19105, Control_c, 0, 64, 54
1, 19119, Control_c, 0, 64, 59
1, 19134, Control_c, 0, 64, 62
1, 19149, Control_c, 0, 64, 65
1, 19164, Control_c, 0, 64, 69
1, 19179, Control_c, 0, 64, 77
1, 19193, Control_c, 0, 64, 91
1, 19208, Control_c, 0, 64, 127
1, 19528, Note_on_c, 0, 75, 82
1, 19628, Note_on_c, 0, 77, 88
1, 19631, Control_c, 0, 64, 104
1, 19633, Note_on_c, 0, 50, 55
1, 19633, Note_on_c, 0, 56, 71
1, 19646, Control_c, 0, 64, 73
1, 19659, Note_off_c, 0, 51, 53
1, 19659, Note_off_c, 0, 75, 59
1, 19661, Control_c, 0, 64, 58
1, 19676, Control_c, 0, 64, 28
1, 19691, Control_c, 0, 64, 0
1, 19739, Note_off_c, 0, 63, 38
1, 19795, Control_c, 0, 64, 21
1, 19810, Control_c, 0, 64, 42
1, 19824, Control_c, 0, 64, 48
1, 19839, Control_c, 0, 64, 49
1, 19854, Control_c, 0, 64, 52
1, 19869, Control_c, 0, 64, 58
1, 19884, Control_c, 0, 64, 63
1, 19898, Control_c, 0, 64, 66
1, 19913, Control_c, 0, 64, 67
1, 19928, Control_c, 0, 64, 68
1, 19942, Control_c, 0, 64, 71
1, 19957, Control_c, 0, 64, 75
1, 19972, Control_c, 0, 64, 83
1, 19987, Control_c, 0, 64, 92
1, 20002, Control_c, 0, 64, 110
1, 20013, Note_off_c, 0, 72, 59
1, 20024, Control_c, 0, 64, 127
1, 20210, Note_on_c, 0, 72, 70
1, 20292, Control_c, 0, 64, 110
1, 20307, Control_c, 0, 64, 75
1, 20312, Note_on_c, 0, 71, 72
1, 20321, Control_c, 0, 64, 60
1, 20323, Note_on_c, 0, 53, 50
1, 20336, Control_c, 0, 64, 34
1, 20344, Note_off_c, 0, 72, 58
1, 20351, Control_c, 0, 64, 0
1, 20366, Note_off_c, 0, 56, 59
1, 20862, Note_on_c, 0, 69, 59
1, 20897, Note_off_c, 0, 71, 64
1, 20969, Note_on_c, 0, 71, 68
1, 20993, Note_off_c, 0, 69, 56
1, 21001, Note_on_c, 0, 55, 51
1, 21017, Note_off_c, 0, 53, 58
1, 21159, Control_c, 0, 64, 45
1, 21174, Control_c, 0, 64, 58
1, 21188, Control_c, 0, 64, 64
1, 21191, Note_off_c, 0, 77, 61
1, 21203, Control_c, 0, 64, 67
1, 21218, Control_c, 0, 64, 75
1, 21233, Control_c, 0, 64, 95
1, 21248, Control_c, 0, 64, 127
1, 21277, Note_off_c, 0, 50, 62
1, 21569, Note_on_c, 0, 79, 90
1, 21654, Note_on_c, 0, 74, 89
1, 21655, Control_c, 0, 64, 77
1, 21657, Note_on_c, 0, 43, 60
1, 21669, Control_c, 0, 64, 60
1, 21684, Control_c, 0, 64, 23
1, 21692, Note_off_c, 0, 79, 62
1, 21699, Control_c, 0, 64, 0
1, 21758, Control_c, 0, 64, 28
1, 21773, Control_c, 0, 64, 49
1, 21787, Control_c, 0, 64, 56
1, 21802, Control_c, 0, 64, 59
1, 21818, Control_c, 0, 64, 62
1, 21833, Control_c, 0, 64, 66
1, 21848, Control_c, 0, 64, 71
1, 21863, Control_c, 0, 64, 80
1, 21878, Control_c, 0, 64, 94
1, 21892, Control_c, 0, 64, 127
1, 22245, Note_on_c, 0, 77, 86
1, 22329, Control_c, 0, 64, 80
1, 22343, Note_on_c, 0, 48, 67
1, 22343, Control_c, 0, 64, 61
1, 22351, Note_on_c, 0, 75, 77
1, 22358, Control_c, 0, 64, 33
1, 22373, Control_c, 0, 64, 0
1, 22377, Note_off_c, 0, 77, 60
1, 22394, Note_off_c, 0, 74, 62
1, 22422, Note_off_c, 0, 43, 63
1, 22577, Note_off_c, 0, 71, 60
1, 22976, Note_on_c, 0, 72, 67
1, 23077, Note_on_c, 0, 67, 64
1, 23090, Note_off_c, 0, 72, 64
1, 23373, Control_c, 0, 64, 12
1, 23493, Control_c, 0, 64, 13
1, 23508, Control_c, 0, 64, 17
1, 23537, Control_c, 0, 64, 18
1, 23567, Control_c, 0, 64, 21
1, 23581, Control_c, 0, 64, 24
1, 23597, Control_c, 0, 64, 25
1, 23631, Note_on_c, 0, 70, 68
1, 23706, Note_off_c, 0, 75, 59
1, 23718, Note_on_c, 0, 68, 81
1, 23742, Note_off_c, 0, 67, 63
1, 23779, Note_off_c, 0, 70, 63
1, 24335, Note_on_c, 0, 63, 62
1, 24394, Note_off_c, 0, 55, 57
1, 24422, Note_on_c, 0, 62, 58
1, 24442, Note_off_c, 0, 63, 57
1, 24665, Control_c, 0, 64, 25
1, 24753, Control_c, 0, 64, 26
1, 25041, Note_on_c, 0, 65, 50
1, 25134, Note_off_c, 0, 62, 57
1, 25140, Control_c, 0, 64, 27
1, 25154, Control_c, 0, 64, 28
1, 25155, Note_on_c, 0, 59, 51
1, 25199, Control_c, 0, 64, 30
1, 25212, Note_off_c, 0, 65, 53
1, 25214, Control_c, 0, 64, 35
1, 25228, Control_c, 0, 64, 40
1, 25243, Control_c, 0, 64, 43
1, 25265, Control_c, 0, 64, 44
1, 25280, Control_c, 0, 64, 45
1, 25295, Control_c, 0, 64, 48
1, 25310, Control_c, 0, 64, 53
1, 25325, Control_c, 0, 64, 57
1, 25339, Control_c, 0, 64, 60
1, 25354, Control_c, 0, 64, 61
1, 25369, Control_c, 0, 64, 62
1, 25384, Control_c, 0, 64, 63
1, 25399, Control_c, 0, 64, 64
1, 25414, Control_c, 0, 64, 66
1, 25429, Control_c, 0, 64, 67
1, 25443, Control_c, 0, 64, 69
1, 25458, Control_c, 0, 64, 71
1, 25473, Control_c, 0, 64, 73
1, 25488, Control_c, 0, 64, 75
1, 25503, Control_c, 0, 64, 77
1, 25517, Control_c, 0, 64, 80
1, 25532, Control_c, 0, 64, 85
1, 25547, Control_c, 0, 64, 94
1, 25559, Note_off_c, 0, 68, 58
1, 25561, Control_c, 0, 64, 114
1, 25576, Control_c, 0, 64, 127
1, 25798, Note_on_c, 0, 68, 58
1, 25829, Control_c, 0, 64, 101
1, 25844, Control_c, 0, 64, 84
1, 25858, Control_c, 0, 64, 75
1, 25873, Control_c, 0, 64, 68
1, 25880, Note_on_c, 0, 67, 59
1, 25888, Control_c, 0, 64, 64
1, 25903, Control_c, 0, 64, 62
1, 25918, Control_c, 0, 64, 61
1, 25933, Control_c, 0, 64, 60
1, 25940, Note_off_c, 0, 68, 53
1, 25948, Control_c, 0, 64, 60
1, 25963, Control_c, 0, 64, 58
1, 25977, Control_c, 0, 64, 57
1, 25992, Control_c, 0, 64, 57
1, 26029, Control_c, 0, 64, 56
1, 26044, Control_c, 0, 64, 55
1, 26058, Control_c, 0, 64, 53
1, 26132, Control_c, 0, 64, 52
1, 26147, Control_c, 0, 64, 52
1, 26414, Control_c, 0, 64, 52
1, 26521, Note_on_c, 0, 65, 58
1, 26577, Control_c, 0, 64, 53
1, 26596, Note_off_c, 0, 67, 62
1, 26621, Note_on_c, 0, 74, 65
1, 26658, Note_off_c, 0, 65, 58
1, 27177, Control_c, 0, 64, 53
1, 27209, Note_on_c, 0, 65, 56
1, 27251, Control_c, 0, 64, 54
1, 27317, Note_on_c, 0, 63, 62
1, 27325, Control_c, 0, 64, 54
1, 27368, Note_off_c, 0, 65, 49
1, 27385, Control_c, 0, 64, 55
1, 27401, Control_c, 0, 64, 55
1, 27416, Control_c, 0, 64, 56
1, 27445, Control_c, 0, 64, 56
1, 27460, Control_c, 0, 64, 58
1, 27475, Control_c, 0, 64, 59
1, 27490, Control_c, 0, 64, 60
1, 27512, Control_c, 0, 64, 60
1, 27542, Control_c, 0, 64, 61
1, 27557, Control_c, 0, 64, 63
1, 27572, Control_c, 0, 64, 66
1, 27586, Control_c, 0, 64, 67
1, 27601, Control_c, 0, 64, 69
1, 27615, Note_off_c, 0, 48, 56
1, 27616, Control_c, 0, 64, 71
1, 27630, Control_c, 0, 64, 75
1, 27645, Control_c, 0, 64, 84
1, 27660, Control_c, 0, 64, 101
1, 27675, Control_c, 0, 64, 127
1, 27677, Note_off_c, 0, 59, 62
1, 27915, Note_on_c, 0, 62, 53
1, 27944, Note_off_c, 0, 63, 60
1, 27979, Poly_aftertouch_c, 0, 71, 127
1, 28007, Note_off_c, 0, 62, 57
1, 28029, Poly_aftertouch_c, 0, 71, 0
1, 28046, Note_on_c, 0, 63, 59
1, 28057, Note_on_c, 0, 60, 51
1, 28060, Control_c, 0, 64, 92
1, 28075, Control_c, 0, 64, 68
1, 28090, Control_c, 0, 64, 58
1, 28104, Control_c, 0, 64, 50
1, 28119, Control_c, 0, 64, 44
1, 28134, Control_c, 0, 64, 40
1, 28148, Control_c, 0, 64, 40
1, 28178, Control_c, 0, 64, 43
1, 28193, Control_c, 0, 64, 47
1, 28209, Control_c, 0, 64, 50
1, 28224, Control_c, 0, 64, 52
1, 28239, Control_c, 0, 64, 54
1, 28261, Control_c, 0, 64, 57
1, 28276, Control_c, 0, 64, 60
1, 28291, Control_c, 0, 64, 61
1, 28305, Control_c, 0, 64, 61
1, 28320, Control_c, 0, 64, 62
1, 28335, Control_c, 0, 64, 63
1, 28350, Control_c, 0, 64, 65
1, 28365, Control_c, 0, 64, 67
1, 28380, Control_c, 0, 64, 68
1, 28395, Control_c, 0, 64, 68
1, 28409, Control_c, 0, 64, 69
1, 28424, Control_c, 0, 64, 71
1, 28439, Control_c, 0, 64, 74
1, 28453, Control_c, 0, 64, 78
1, 28468, Control_c, 0, 64, 80
1, 28483, Control_c, 0, 64, 82
1, 28498, Control_c, 0, 64, 85
1, 28513, Control_c, 0, 64, 90
1, 28527, Control_c, 0, 64, 94
1, 28542, Control_c, 0, 64, 102
1, 28557, Control_c, 0, 64, 127
1, 28633, Note_on_c, 0, 79, 66
1, 28644, Note_off_c, 0, 74, 62
1, 28733, Note_off_c, 0, 79, 64
1, 28735, Control_c, 0, 64, 86
1, 28740, Note_on_c, 0, 74, 76
1, 28741, Note_on_c, 0, 65, 69
1, 28750, Control_c, 0, 64, 69
1, 28756, Note_on_c, 0, 71, 64
1, 28765, Control_c, 0, 64, 60
1, 28768, Note_off_c, 0, 63, 63
1, 28779, Control_c, 0, 64, 53
1, 28794, Control_c, 0, 64, 49
1, 28809, Control_c, 0, 64, 46
1, 28824, Control_c, 0, 64, 45
1, 28913, Control_c, 0, 64, 47
1, 28927, Control_c, 0, 64, 51
1, 28942, Control_c, 0, 64, 56
1, 28957, Control_c, 0, 64, 58
1, 29009, Control_c, 0, 64, 59
1, 29024, Control_c, 0, 64, 62
1, 29039, Control_c, 0, 64, 64
1, 29054, Control_c, 0, 64, 65
1, 29084, Control_c, 0, 64, 65
1, 29098, Control_c, 0, 64, 67
1, 29113, Control_c, 0, 64, 70
1, 29128, Control_c, 0, 64, 73
1, 29143, Control_c, 0, 64, 78
1, 29158, Control_c, 0, 64, 83
1, 29173, Control_c, 0, 64, 91
1, 29188, Control_c, 0, 64, 100
1, 29202, Control_c, 0, 64, 127
1, 29352, Note_on_c, 0, 77, 65
1, 29356, Note_off_c, 0, 74, 63
1, 29439, Control_c, 0, 64, 85
1, 29440, Note_on_c, 0, 67, 62
1, 29442, Note_on_c, 0, 75, 80
1, 29445, Note_off_c, 0, 71, 64
1, 29448, Note_off_c, 0, 65, 64
1, 29450, Note_off_c, 0, 77, 54
1, 29454, Note_on_c, 0, 72, 66
1, 29454, Control_c, 0, 64, 67
1, 29469, Control_c, 0, 64, 50
1, 29483, Control_c, 0, 64, 0
1, 29557, Control_c, 0, 64, 30
1, 29572, Control_c, 0, 64, 41
1, 29587, Control_c, 0, 64, 53
1, 29602, Control_c, 0, 64, 60
1, 29617, Control_c, 0, 64, 63
1, 29632, Control_c, 0, 64, 64
1, 29647, Control_c, 0, 64, 65
1, 29662, Control_c, 0, 64, 67
1, 29671, Note_off_c, 0, 67, 57
1, 29676, Control_c, 0, 64, 74
1, 29691, Control_c, 0, 64, 87
1, 29706, Control_c, 0, 64, 127
1, 29726, Note_off_c, 0, 60, 59
1, 30066, Note_on_c, 0, 58, 59
1, 30159, Control_c, 0, 64, 110
1, 30160, Note_on_c, 0, 57, 58
1, 30166, Note_on_c, 0, 66, 74
1, 30173, Control_c, 0, 64, 77
1, 30186, Note_off_c, 0, 58, 57
1, 30188, Control_c, 0, 64, 62
1, 30203, Control_c, 0, 64, 45
1, 30218, Control_c, 0, 64, 26
1, 30232, Control_c, 0, 64, 19
1, 30262, Control_c, 0, 64, 32
1, 30277, Control_c, 0, 64, 46
1, 30292, Control_c, 0, 64, 51
1, 30321, Control_c, 0, 64, 54
1, 30335, Control_c, 0, 64, 59
1, 30350, Control_c, 0, 64, 63
1, 30365, Control_c, 0, 64, 65
1, 30380, Control_c, 0, 64, 66
1, 30395, Control_c, 0, 64, 67
1, 30410, Control_c, 0, 64, 71
1, 30424, Control_c, 0, 64, 77
1, 30439, Control_c, 0, 64, 87
1, 30454, Control_c, 0, 64, 107
1, 30469, Control_c, 0, 64, 127
1, 30639, Note_off_c, 0, 66, 56
1, 30737, Note_on_c, 0, 67, 70
1, 30747, Note_on_c, 0, 60, 55
1, 30780, Note_off_c, 0, 67, 59
1, 30851, Note_on_c, 0, 69, 68
1, 30862, Control_c, 0, 64, 87
1, 30874, Note_on_c, 0, 54, 57
1, 30877, Control_c, 0, 64, 65
1, 30892, Control_c, 0, 64, 49
1, 30905, Note_off_c, 0, 60, 60
1, 30907, Control_c, 0, 64, 23
1, 30921, Control_c, 0, 64, 0
1, 30961, Note_off_c, 0, 57, 38
1, 30981, Control_c, 0, 64, 22
1, 30995, Control_c, 0, 64, 40
1, 31010, Control_c, 0, 64, 48
1, 31025, Control_c, 0, 64, 50
1, 31040, Control_c, 0, 64, 52
1, 31054, Control_c, 0, 64, 58
1, 31069, Control_c, 0, 64, 63
1, 31070, Note_off_c, 0, 72, 50
1, 31085, Control_c, 0, 64, 67
1, 31100, Control_c, 0, 64, 71
1, 31115, Control_c, 0, 64, 76
1, 31129, Control_c, 0, 64, 84
1, 31144, Control_c, 0, 64, 104
1, 31159, Control_c, 0, 64, 127
1, 31178, Note_off_c, 0, 75, 54
1, 31415, Note_on_c, 0, 75, 77
1, 31500, Note_on_c, 0, 57, 57
1, 31501, Note_on_c, 0, 74, 81
1, 31508, Control_c, 0, 64, 116
1, 31523, Control_c, 0, 64, 73
1, 31538, Control_c, 0, 64, 57
1, 31552, Control_c, 0, 64, 30
1, 31560, Note_off_c, 0, 75, 56
1, 31567, Control_c, 0, 64, 0
1, 31626, Control_c, 0, 64, 37
1, 31641, Control_c, 0, 64, 43
1, 31656, Control_c, 0, 64, 44
1, 31671, Control_c, 0, 64, 49
1, 31686, Control_c, 0, 64, 56
1, 31701, Control_c, 0, 64, 61
1, 31716, Control_c, 0, 64, 65
1, 31731, Control_c, 0, 64, 67
1, 31745, Control_c, 0, 64, 70
1, 31760, Control_c, 0, 64, 76
1, 31775, Control_c, 0, 64, 86
1, 31789, Control_c, 0, 64, 107
1, 31804, Control_c, 0, 64, 127
1, 31900, Note_off_c, 0, 74, 62
1, 32069, Note_on_c, 0, 72, 76
1, 32163, Note_on_c, 0, 81, 85
1, 32166, Control_c, 0, 64, 84
1, 32174, Note_off_c, 0, 72, 62
1, 32181, Control_c, 0, 64, 63
1, 32197, Control_c, 0, 64, 38
1, 32212, Control_c, 0, 64, 0
1, 32345, Control_c, 0, 64, 43
1, 32360, Control_c, 0, 64, 58
1, 32374, Control_c, 0, 64, 62
1, 32389, Control_c, 0, 64, 65
1, 32404, Control_c, 0, 64, 69
1, 32419, Control_c, 0, 64, 76
1, 32434, Control_c, 0, 64, 86
1, 32449, Control_c, 0, 64, 102
1, 32458, Note_off_c, 0, 69, 53
1, 32464, Control_c, 0, 64, 127
1, 32774, Note_on_c, 0, 72, 60
1, 32856, Note_on_c, 0, 62, 44
1, 32865, Note_on_c, 0, 70, 58
1, 32870, Control_c, 0, 64, 80
1, 32885, Control_c, 0, 64, 64
1, 32888, Note_off_c, 0, 57, 60
1, 32899, Control_c, 0, 64, 52
1, 32903, Note_off_c, 0, 72, 50
1, 32914, Control_c, 0, 64, 33
1, 32929, Control_c, 0, 64, 0
1, 33004, Control_c, 0, 64, 30
1, 33019, Control_c, 0, 64, 33
1, 33034, Control_c, 0, 64, 36
1, 33048, Control_c, 0, 64, 47
1, 33063, Control_c, 0, 64, 57
1, 33078, Control_c, 0, 64, 60
1, 33093, Control_c, 0, 64, 61
1, 33123, Control_c, 0, 64, 63
1, 33138, Control_c, 0, 64, 65
1, 33152, Control_c, 0, 64, 65
1, 33182, Control_c, 0, 64, 66
1, 33197, Control_c, 0, 64, 67
1, 33212, Control_c, 0, 64, 69
1, 33227, Control_c, 0, 64, 71
1, 33241, Control_c, 0, 64, 74
1, 33256, Control_c, 0, 64, 76
1, 33271, Control_c, 0, 64, 80
1, 33286, Control_c, 0, 64, 84
1, 33301, Control_c, 0, 64, 89
1, 33315, Control_c, 0, 64, 96
1, 33330, Control_c, 0, 64, 111
1, 33345, Control_c, 0, 64, 127
1, 33462, Note_on_c, 0, 69, 57
1, 33478, Note_off_c, 0, 70, 55
1, 33540, Note_off_c, 0, 81, 61
1, 33545, Note_on_c, 0, 55, 54
1, 33557, Note_on_c, 0, 70, 51
1, 33575, Control_c, 0, 64, 77
1, 33576, Note_off_c, 0, 54, 63
1, 33589, Control_c, 0, 64, 62
1, 33599, Note_off_c, 0, 69, 59
1, 33604, Control_c, 0, 64, 43
1, 33619, Control_c, 0, 64, 28
1, 33634, Control_c, 0, 64, 27
1, 33648, Control_c, 0, 64, 40
1, 33663, Control_c, 0, 64, 53
1, 33678, Control_c, 0, 64, 59
1, 33693, Control_c, 0, 64, 61
1, 33708, Control_c, 0, 64, 64
1, 33722, Control_c, 0, 64, 66
1, 33737, Control_c, 0, 64, 69
1, 33752, Control_c, 0, 64, 74
1, 33767, Control_c, 0, 64, 79
1, 33781, Control_c, 0, 64, 87
1, 33798, Control_c, 0, 64, 103
1, 33813, Control_c, 0, 64, 127
1, 33913, Note_off_c, 0, 62, 58
1, 34150, Note_on_c, 0, 79, 58
1, 34212, Control_c, 0, 64, 110
1, 34226, Note_on_c, 0, 67, 74
1, 34227, Control_c, 0, 64, 73
1, 34231, Note_on_c, 0, 74, 67
1, 34249, Control_c, 0, 64, 60
1, 34264, Control_c, 0, 64, 44
1, 34279, Control_c, 0, 64, 23
1, 34294, Control_c, 0, 64, 0
1, 34321, Note_off_c, 0, 79, 52
1, 34412, Control_c, 0, 64, 15
1, 34457, Control_c, 0, 64, 16
1, 34471, Control_c, 0, 64, 24
1, 34486, Control_c, 0, 64, 29
1, 34516, Control_c, 0, 64, 28
1, 34694, Control_c, 0, 64, 29
1, 34783, Control_c, 0, 64, 29
1, 34798, Note_on_c, 0, 77, 65
1, 34813, Control_c, 0, 64, 30
1, 34829, Control_c, 0, 64, 30
1, 34840, Note_off_c, 0, 74, 61
1, 34858, Control_c, 0, 64, 31
1, 34873, Control_c, 0, 64, 33
1, 34887, Control_c, 0, 64, 34
1, 34899, Note_on_c, 0, 75, 70
1, 34928, Note_off_c, 0, 77, 57
1, 34932, Control_c, 0, 64, 34
1, 34947, Control_c, 0, 64, 35
1, 34962, Control_c, 0, 64, 37
1, 35014, Control_c, 0, 64, 38
1, 35028, Control_c, 0, 64, 40
1, 35043, Control_c, 0, 64, 42
1, 35058, Control_c, 0, 64, 43
1, 35073, Control_c, 0, 64, 44
1, 35088, Control_c, 0, 64, 47
1, 35102, Control_c, 0, 64, 53
1, 35117, Control_c, 0, 64, 57
1, 35132, Control_c, 0, 64, 59
1, 35147, Control_c, 0, 64, 61
1, 35162, Control_c, 0, 64, 64
1, 35176, Control_c, 0, 64, 68
1, 35191, Control_c, 0, 64, 76
1, 35206, Control_c, 0, 64, 90
1, 35221, Control_c, 0, 64, 127
1, 35223, Note_off_c, 0, 67, 56
1, 35459, Note_on_c, 0, 67, 62
1, 35554, Note_on_c, 0, 62, 74
1, 35561, Note_on_c, 0, 79, 73
1, 35563, Control_c, 0, 64, 113
1, 35578, Control_c, 0, 64, 75
1, 35584, Note_off_c, 0, 67, 61
1, 35592, Control_c, 0, 64, 60
1, 35607, Control_c, 0, 64, 39
1, 35622, Control_c, 0, 64, 0
1, 35681, Control_c, 0, 64, 24
1, 35690, Note_off_c, 0, 75, 32
1, 35696, Control_c, 0, 64, 35
1, 35710, Control_c, 0, 64, 44
1, 35725, Control_c, 0, 64, 50
1, 35748, Control_c, 0, 64, 58
1, 35763, Control_c, 0, 64, 63
1, 35778, Control_c, 0, 64, 66
1, 35785, Note_off_c, 0, 79, 63
1, 35792, Control_c, 0, 64, 69
1, 35807, Control_c, 0, 64, 73
1, 35822, Control_c, 0, 64, 78
1, 35837, Control_c, 0, 64, 90
1, 35851, Control_c, 0, 64, 127
1, 36149, Note_on_c, 0, 65, 60
1, 36208, Control_c, 0, 64, 85
1, 36221, Note_off_c, 0, 62, 63
1, 36223, Control_c, 0, 64, 65
1, 36229, Note_on_c, 0, 73, 65
1, 36238, Control_c, 0, 64, 47
1, 36240, Note_on_c, 0, 69, 52
1, 36243, Note_on_c, 0, 64, 61
1, 36253, Control_c, 0, 64, 0
1, 36281, Note_off_c, 0, 70, 64
1, 36290, Note_off_c, 0, 65, 60
1, 36401, Control_c, 0, 64, 32
1, 36415, Control_c, 0, 64, 38
1, 36445, Control_c, 0, 64, 39
1, 36459, Control_c, 0, 64, 48
1, 36474, Control_c, 0, 64, 56
1, 36497, Control_c, 0, 64, 57
1, 36527, Control_c, 0, 64, 57
1, 36541, Control_c, 0, 64, 57
1, 36556, Control_c, 0, 64, 61
1, 36571, Control_c, 0, 64, 63
1, 36586, Control_c, 0, 64, 65
1, 36601, Control_c, 0, 64, 67
1, 36615, Control_c, 0, 64, 69
1, 36630, Control_c, 0, 64, 70
1, 36645, Control_c, 0, 64, 71
1, 36660, Control_c, 0, 64, 72
1, 36674, Control_c, 0, 64, 76
1, 36689, Control_c, 0, 64, 83
1, 36704, Control_c, 0, 64, 92
1, 36719, Control_c, 0, 64, 105
1, 36734, Control_c, 0, 64, 127
1, 36852, Note_on_c, 0, 57, 73
1, 36864, Note_off_c, 0, 55, 53
1, 36911, Control_c, 0, 64, 93
1, 36926, Control_c, 0, 64, 66
1, 36938, Note_on_c, 0, 52, 74
1, 36941, Control_c, 0, 64, 48
1, 36956, Control_c, 0, 64, 0
1, 36964, Note_off_c, 0, 57, 65
1, 37134, Control_c, 0, 64, 24
1, 37149, Control_c, 0, 64, 44
1, 37163, Control_c, 0, 64, 48
1, 37208, Control_c, 0, 64, 53
1, 37223, Control_c, 0, 64, 60
1, 37245, Control_c, 0, 64, 61
1, 37260, Control_c, 0, 64, 60
1, 37275, Control_c, 0, 64, 60
1, 37304, Control_c, 0, 64, 62
1, 37319, Control_c, 0, 64, 64
1, 37334, Control_c, 0, 64, 65
1, 37349, Control_c, 0, 64, 66
1, 37363, Control_c, 0, 64, 66
1, 37378, Control_c, 0, 64, 67
1, 37393, Control_c, 0, 64, 69
1, 37408, Control_c, 0, 64, 72
1, 37423, Control_c, 0, 64, 75
1, 37437, Control_c, 0, 64, 81
1, 37452, Control_c, 0, 64, 90
1, 37467, Control_c, 0, 64, 98
1, 37482, Control_c, 0, 64, 101
1, 37511, Control_c, 0, 64, 103
1, 37513, Note_on_c, 0, 55, 73
1, 37514, Note_off_c, 0, 64, 55
1, 37526, Control_c, 0, 64, 116
1, 37541, Control_c, 0, 64, 127
1, 37582, Note_off_c, 0, 52, 64
1, 37585, Control_c, 0, 64, 84
1, 37597, Note_on_c, 0, 53, 77
1, 37600, Control_c, 0, 64, 65
1, 37603, Note_on_c, 0, 74, 72
1, 37608, Note_on_c, 0, 65, 59
1, 37615, Control_c, 0, 64, 46
1, 37630, Control_c, 0, 64, 0
1, 37635, Note_off_c, 0, 55, 39
1, 37762, Note_off_c, 0, 73, 27
1, 37883, Control_c, 0, 64, 9
1, 37898, Control_c, 0, 64, 21
1, 37912, Control_c, 0, 64, 20
1, 37927, Control_c, 0, 64, 18
1, 37942, Control_c, 0, 64, 19
1, 37957, Control_c, 0, 64, 40
1, 37972, Control_c, 0, 64, 49
1, 37993, Control_c, 0, 64, 50
1, 38008, Control_c, 0, 64, 52
1, 38023, Control_c, 0, 64, 58
1, 38038, Control_c, 0, 64, 63
1, 38053, Control_c, 0, 64, 65
1, 38098, Control_c, 0, 64, 66
1, 38112, Control_c, 0, 64, 69
1, 38127, Control_c, 0, 64, 73
1, 38142, Control_c, 0, 64, 78
1, 38157, Control_c, 0, 64, 82
1, 38172, Control_c, 0, 64, 89
1, 38186, Control_c, 0, 64, 111
1, 38199, Note_on_c, 0, 50, 73
1, 38201, Control_c, 0, 64, 127
1, 38260, Control_c, 0, 64, 82
1, 38263, Note_off_c, 0, 53, 62
1, 38275, Control_c, 0, 64, 64
1, 38285, Note_on_c, 0, 45, 72
1, 38290, Control_c, 0, 64, 48
1, 38305, Control_c, 0, 64, 38
1, 38318, Note_off_c, 0, 50, 64
1, 38319, Control_c, 0, 64, 30
1, 38334, Control_c, 0, 64, 30
1, 38364, Control_c, 0, 64, 31
1, 38379, Control_c, 0, 64, 37
1, 38393, Control_c, 0, 64, 43
1, 38408, Control_c, 0, 64, 45
1, 38438, Control_c, 0, 64, 46
1, 38452, Control_c, 0, 64, 52
1, 38467, Control_c, 0, 64, 57
1, 38482, Control_c, 0, 64, 58
1, 38527, Control_c, 0, 64, 59
1, 38542, Control_c, 0, 64, 62
1, 38557, Control_c, 0, 64, 63
1, 38603, Control_c, 0, 64, 64
1, 38617, Control_c, 0, 64, 66
1, 38632, Control_c, 0, 64, 70
1, 38647, Control_c, 0, 64, 73
1, 38661, Control_c, 0, 64, 74
1, 38676, Control_c, 0, 64, 75
1, 38691, Control_c, 0, 64, 78
1, 38706, Control_c, 0, 64, 83
1, 38721, Control_c, 0, 64, 88
1, 38743, Control_c, 0, 64, 92
1, 38758, Control_c, 0, 64, 96
1, 38773, Control_c, 0, 64, 102
1, 38788, Control_c, 0, 64, 121
1, 38803, Control_c, 0, 64, 127
1, 38904, Note_on_c, 0, 48, 65
1, 38962, Note_off_c, 0, 45, 61
1, 38980, Control_c, 0, 64, 101
1, 38995, Control_c, 0, 64, 77
1, 38998, Note_on_c, 0, 46, 60
1, 39010, Control_c, 0, 64, 66
1, 39025, Control_c, 0, 64, 60
1, 39035, Note_off_c, 0, 48, 63
1, 39040, Control_c, 0, 64, 55
1, 39054, Control_c, 0, 64, 50
1, 39069, Control_c, 0, 64, 43
1, 39084, Control_c, 0, 64, 34
1, 39099, Control_c, 0, 64, 24
1, 39114, Control_c, 0, 64, 17
1, 39158, Control_c, 0, 64, 17
1, 39188, Control_c, 0, 64, 26
1, 39202, Control_c, 0, 64, 42
1, 39217, Control_c, 0, 64, 51
1, 39232, Control_c, 0, 64, 51
1, 39261, Control_c, 0, 64, 53
1, 39276, Control_c, 0, 64, 58
1, 39291, Control_c, 0, 64, 63
1, 39306, Control_c, 0, 64, 65
1, 39321, Control_c, 0, 64, 64
1, 39350, Control_c, 0, 64, 65
1, 39365, Control_c, 0, 64, 67
1, 39381, Control_c, 0, 64, 71
1, 39382, Note_off_c, 0, 65, 36
1, 39396, Control_c, 0, 64, 76
1, 39411, Control_c, 0, 64, 82
1, 39426, Control_c, 0, 64, 88
1, 39440, Control_c, 0, 64, 98
1, 39455, Control_c, 0, 64, 113
1, 39470, Control_c, 0, 64, 127
1, 39633, Note_on_c, 0, 64, 68
1, 39684, Control_c, 0, 64, 101
1, 39699, Control_c, 0, 64, 77
1, 39714, Control_c, 0, 64, 65
1, 39728, Note_on_c, 0, 65, 64
1, 39729, Control_c, 0, 64, 60
1, 39744, Control_c, 0, 64, 58
1, 39758, Control_c, 0, 64, 57
1, 39773, Control_c, 0, 64, 58
1, 39779, Note_off_c, 0, 64, 46
1, 39788, Control_c, 0, 64, 60
1, 39803, Control_c, 0, 64, 63
1, 39818, Control_c, 0, 64, 66
1, 39833, Control_c, 0, 64, 68
1, 39848, Control_c, 0, 64, 69
1, 39862, Control_c, 0, 64, 71
1, 39877, Control_c, 0, 64, 75
1, 39892, Control_c, 0, 64, 80
1, 39907, Control_c, 0, 64, 89
1, 39922, Control_c, 0, 64, 104
1, 39937, Control_c, 0, 64, 127
1, 40022, Note_off_c, 0, 69, 33
1, 40269, Note_off_c, 0, 65, 61
1, 40297, Note_on_c, 0, 62, 63
1, 40394, Note_off_c, 0, 62, 53
1, 40479, Note_on_c, 0, 69, 61
1, 40483, Note_on_c, 0, 47, 45
1, 40515, Note_off_c, 0, 69, 63
1, 40535, Note_on_c, 0, 68, 58
1, 40565, Note_off_c, 0, 68, 63
1, 40566, Note_off_c, 0, 46, 62
1, 40567, Control_c, 0, 64, 83
1, 40581, Control_c, 0, 64, 62
1, 40584, Note_on_c, 0, 69, 58
1, 40596, Control_c, 0, 64, 0
1, 40631, Note_on_c, 0, 68, 77
1, 40686, Note_off_c, 0, 69, 55
1, 41094, Note_on_c, 0, 49, 43
1, 41207, Note_on_c, 0, 50, 58
1, 41212, Note_off_c, 0, 49, 63
1, 41374, Control_c, 0, 64, 24
1, 41389, Control_c, 0, 64, 48
1, 41404, Control_c, 0, 64, 61
1, 41418, Control_c, 0, 64, 64
1, 41427, Note_off_c, 0, 68, 50
1, 41433, Control_c, 0, 64, 65
1, 41448, Control_c, 0, 64, 68
1, 41463, Control_c, 0, 64, 76
1, 41478, Control_c, 0, 64, 104
1, 41493, Control_c, 0, 64, 127
1, 41548, Note_on_c, 0, 68, 71
1, 41684, Note_on_c, 0, 52, 59
1, 41693, Note_off_c, 0, 50, 62
1, 41711, Note_off_c, 0, 47, 62
1, 41711, Note_off_c, 0, 68, 58
1, 41870, Note_off_c, 0, 52, 65
1, 41890, Note_off_c, 0, 74, 60
1, 41895, Note_on_c, 0, 45, 55
1, 41901, Note_on_c, 0, 69, 64
1, 41901, Control_c, 0, 64, 88
1, 41911, Note_on_c, 0, 53, 54
1, 41916, Control_c, 0, 64, 65
1, 41931, Control_c, 0, 64, 38
1, 41946, Control_c, 0, 64, 0
1, 42034, Control_c, 0, 64, 17
1, 42049, Control_c, 0, 64, 38
1, 42064, Control_c, 0, 64, 46
1, 42078, Control_c, 0, 64, 52
1, 42093, Control_c, 0, 64, 55
1, 42108, Control_c, 0, 64, 58
1, 42123, Control_c, 0, 64, 61
1, 42138, Control_c, 0, 64, 64
1, 42152, Control_c, 0, 64, 66
1, 42167, Control_c, 0, 64, 68
1, 42182, Control_c, 0, 64, 70
1, 42197, Control_c, 0, 64, 72
1, 42212, Control_c, 0, 64, 76
1, 42226, Control_c, 0, 64, 83
1, 42241, Control_c, 0, 64, 98
1, 42256, Control_c, 0, 64, 127
1, 42477, Note_on_c, 0, 74, 74
1, 42504, Note_off_c, 0, 69, 62
1, 42572, Note_on_c, 0, 76, 74
1, 42575, Control_c, 0, 64, 84
1, 42584, Note_on_c, 0, 70, 73
1, 42586, Note_on_c, 0, 55, 55
1, 42590, Control_c, 0, 64, 65
1, 42605, Control_c, 0, 64, 40
1, 42607, Note_off_c, 0, 74, 62
1, 42620, Control_c, 0, 64, 0
1, 42653, Note_off_c, 0, 53, 60
1, 42679, Control_c, 0, 64, 19
1, 42694, Control_c, 0, 64, 44
1, 42709, Control_c, 0, 64, 50
1, 42739, Control_c, 0, 64, 51
1, 42754, Control_c, 0, 64, 55
1, 42769, Control_c, 0, 64, 60
1, 42783, Control_c, 0, 64, 63
1, 42798, Control_c, 0, 64, 63
1, 42828, Control_c, 0, 64, 64
1, 42843, Control_c, 0, 64, 67
1, 42857, Control_c, 0, 64, 71
1, 42872, Control_c, 0, 64, 77
1, 42887, Control_c, 0, 64, 90
1, 42901, Control_c, 0, 64, 123
1, 42916, Control_c, 0, 64, 127
1, 43143, Note_on_c, 0, 79, 74
1, 43150, Note_off_c, 0, 76, 63
1, 43234, Control_c, 0, 64, 87
1, 43249, Control_c, 0, 64, 66
1, 43258, Note_on_c, 0, 73, 80
1, 43264, Control_c, 0, 64, 43
1, 43272, Note_on_c, 0, 57, 64
1, 43279, Control_c, 0, 64, 0
1, 43282, Note_off_c, 0, 79, 58
1, 43338, Note_off_c, 0, 55, 55
1, 43368, Control_c, 0, 64, 25
1, 43383, Control_c, 0, 64, 40
1, 43398, Control_c, 0, 64, 50
1, 43413, Control_c, 0, 64, 58
1, 43428, Control_c, 0, 64, 63
1, 43443, Control_c, 0, 64, 67
1, 43457, Control_c, 0, 64, 71
1, 43472, Control_c, 0, 64, 76
1, 43487, Control_c, 0, 64, 88
1, 43502, Control_c, 0, 64, 127
1, 43509, Note_off_c, 0, 70, 64
1, 43515, Note_off_c, 0, 73, 61
1, 43851, Note_on_c, 0, 69, 82
1, 43853, Note_on_c, 0, 74, 77
1, 43946, Control_c, 0, 64, 82
1, 43949, Note_on_c, 0, 64, 85
1, 43952, Note_on_c, 0, 49, 65
1, 43955, Note_on_c, 0, 76, 80
1, 43961, Control_c, 0, 64, 60
1, 43983, Control_c, 0, 64, 0
1, 43994, Note_off_c, 0, 57, 60
1, 44021, Note_off_c, 0, 74, 49
1, 44035, Note_off_c, 0, 69, 56
1, 44146, Control_c, 0, 64, 23
1, 44161, Control_c, 0, 64, 43
1, 44176, Control_c, 0, 64, 44
1, 44191, Control_c, 0, 64, 44
1, 44206, Control_c, 0, 64, 48
1, 44221, Control_c, 0, 64, 56
1, 44235, Control_c, 0, 64, 60
1, 44250, Control_c, 0, 64, 61
1, 44280, Control_c, 0, 64, 62
1, 44295, Control_c, 0, 64, 64
1, 44310, Control_c, 0, 64, 66
1, 44325, Control_c, 0, 64, 68
1, 44340, Control_c, 0, 64, 70
1, 44354, Control_c, 0, 64, 72
1, 44369, Control_c, 0, 64, 76
1, 44384, Control_c, 0, 64, 89
1, 44399, Control_c, 0, 64, 105
1, 44414, Control_c, 0, 64, 127
1, 44551, Note_on_c, 0, 67, 81
1, 44578, Note_off_c, 0, 64, 60
1, 44653, Note_on_c, 0, 65, 73
1, 44665, Control_c, 0, 64, 87
1, 44674, Note_on_c, 0, 50, 54
1, 44680, Control_c, 0, 64, 69
1, 44692, Note_off_c, 0, 67, 54
1, 44695, Control_c, 0, 64, 58
1, 44709, Control_c, 0, 64, 45
1, 44732, Control_c, 0, 64, 27
1, 44737, Note_off_c, 0, 45, 62
1, 44745, Note_off_c, 0, 49, 31
1, 44747, Control_c, 0, 64, 0
1, 44840, Note_off_c, 0, 76, 62
1, 45255, Note_on_c, 0, 74, 75
1, 45347, Note_on_c, 0, 69, 66
1, 45354, Note_on_c, 0, 53, 51
1, 45404, Note_off_c, 0, 74, 61
1, 45599, Control_c, 0, 64, 11
1, 45614, Control_c, 0, 64, 13
1, 45629, Control_c, 0, 64, 15
1, 45643, Control_c, 0, 64, 16
1, 45658, Control_c, 0, 64, 17
1, 45747, Control_c, 0, 64, 17
1, 45762, Control_c, 0, 64, 18
1, 45778, Control_c, 0, 64, 19
1, 45807, Control_c, 0, 64, 21
1, 45822, Control_c, 0, 64, 22
1, 45837, Control_c, 0, 64, 23
1, 45852, Control_c, 0, 64, 24
1, 45896, Control_c, 0, 64, 24
1, 45911, Control_c, 0, 64, 25
1, 45926, Control_c, 0, 64, 26
1, 45931, Note_on_c, 0, 72, 59
1, 45985, Control_c, 0, 64, 26
1, 46045, Note_on_c, 0, 70, 60
1, 46060, Control_c, 0, 64, 27
1, 46060, Note_off_c, 0, 72, 64
1, 46104, Control_c, 0, 64, 27
1, 46133, Control_c, 0, 64, 28
1, 46140, Note_off_c, 0, 69, 57
1, 46148, Control_c, 0, 64, 28
1, 46163, Control_c, 0, 64, 30
1, 46178, Control_c, 0, 64, 31
1, 46192, Control_c, 0, 64, 32
1, 46207, Control_c, 0, 64, 33
1, 46230, Control_c, 0, 64, 34
1, 46289, Control_c, 0, 64, 34
1, 46319, Control_c, 0, 64, 36
1, 46325, Note_off_c, 0, 65, 58
1, 46348, Control_c, 0, 64, 36
1, 46466, Control_c, 0, 64, 37
1, 46525, Control_c, 0, 64, 38
1, 46540, Control_c, 0, 64, 39
1, 46616, Control_c, 0, 64, 39
1, 46632, Note_on_c, 0, 57, 58
1, 46635, Note_on_c, 0, 65, 48
1, 46675, Control_c, 0, 64, 40
1, 46690, Control_c, 0, 64, 40
1, 46714, Note_off_c, 0, 53, 61
1, 46733, Note_off_c, 0, 65, 60
1, 46734, Control_c, 0, 64, 41
1, 46736, Note_on_c, 0, 64, 53
1, 46737, Note_on_c, 0, 55, 61
1, 46763, Control_c, 0, 64, 42
1, 46788, Note_off_c, 0, 57, 62
1, 46838, Control_c, 0, 64, 42
1, 46994, Control_c, 0, 64, 43
1, 47127, Control_c, 0, 64, 43
1, 47304, Note_on_c, 0, 53, 52
1, 47306, Note_on_c, 0, 67, 47
1, 47330, Note_off_c, 0, 64, 56
1, 47335, Control_c, 0, 64, 44
1, 47341, Note_off_c, 0, 55, 59
1, 47428, Note_on_c, 0, 52, 55
1, 47431, Note_on_c, 0, 61, 51
1, 47448, Note_off_c, 0, 67, 51
1, 47456, Note_off_c, 0, 53, 59
1, 47571, Control_c, 0, 64, 45
1, 47586, Control_c, 0, 64, 48
1, 47601, Control_c, 0, 64, 50
1, 47616, Control_c, 0, 64, 52
1, 47631, Control_c, 0, 64, 54
1, 47646, Control_c, 0, 64, 57
1, 47661, Control_c, 0, 64, 60
1, 47675, Control_c, 0, 64, 63
1, 47690, Control_c, 0, 64, 64
1, 47705, Control_c, 0, 64, 65
1, 47727, Control_c, 0, 64, 68
1, 47742, Control_c, 0, 64, 72
1, 47757, Control_c, 0, 64, 77
1, 47771, Control_c, 0, 64, 82
1, 47774, Note_off_c, 0, 70, 64
1, 47786, Control_c, 0, 64, 85
1, 47801, Control_c, 0, 64, 91
1, 47816, Control_c, 0, 64, 104
1, 47831, Control_c, 0, 64, 127
1, 48041, Note_on_c, 0, 70, 57
1, 48123, Note_off_c, 0, 52, 53
1, 48124, Note_on_c, 0, 53, 50
1, 48127, Control_c, 0, 64, 110
1, 48136, Note_on_c, 0, 69, 66
1, 48142, Control_c, 0, 64, 82
1, 48157, Control_c, 0, 64, 68
1, 48173, Control_c, 0, 64, 60
1, 48180, Note_off_c, 0, 70, 60
1, 48187, Control_c, 0, 64, 53
1, 48202, Control_c, 0, 64, 50
1, 48217, Control_c, 0, 64, 49
1, 48276, Control_c, 0, 64, 50
1, 48291, Control_c, 0, 64, 50
1, 48306, Control_c, 0, 64, 51
1, 48320, Control_c, 0, 64, 52
1, 48335, Control_c, 0, 64, 53
1, 48350, Control_c, 0, 64, 55
1, 48365, Control_c, 0, 64, 56
1, 48380, Control_c, 0, 64, 57
1, 48394, Control_c, 0, 64, 58
1, 48409, Control_c, 0, 64, 61
1, 48424, Control_c, 0, 64, 62
1, 48439, Control_c, 0, 64, 63
1, 48476, Control_c, 0, 64, 64
1, 48491, Control_c, 0, 64, 66
1, 48506, Control_c, 0, 64, 70
1, 48520, Control_c, 0, 64, 75
1, 48535, Control_c, 0, 64, 81
1, 48550, Control_c, 0, 64, 86
1, 48565, Control_c, 0, 64, 92
1, 48580, Control_c, 0, 64, 99
1, 48594, Control_c, 0, 64, 103
1, 48609, Control_c, 0, 64, 105
1, 48624, Control_c, 0, 64, 111
1, 48639, Control_c, 0, 64, 127
1, 48741, Note_on_c, 0, 67, 48
1, 48758, Note_off_c, 0, 69, 59
1, 48832, Control_c, 0, 64, 97
1, 48832, Note_on_c, 0, 55, 53
1, 48834, Note_off_c, 0, 67, 62
1, 48847, Control_c, 0, 64, 77
1, 48856, Note_on_c, 0, 76, 60
1, 48862, Control_c, 0, 64, 68
1, 48862, Note_off_c, 0, 53, 51
1, 48876, Control_c, 0, 64, 62
1, 48891, Control_c, 0, 64, 57
1, 48906, Control_c, 0, 64, 53
1, 48920, Control_c, 0, 64, 50
1, 48935, Control_c, 0, 64, 50
1, 48966, Control_c, 0, 64, 51
1, 48981, Control_c, 0, 64, 53
1, 48996, Control_c, 0, 64, 56
1, 49011, Control_c, 0, 64, 59
1, 49025, Control_c, 0, 64, 61
1, 49040, Control_c, 0, 64, 63
1, 49055, Control_c, 0, 64, 64
1, 49070, Control_c, 0, 64, 66
1, 49084, Control_c, 0, 64, 67
1, 49099, Control_c, 0, 64, 69
1, 49114, Control_c, 0, 64, 73
1, 49129, Control_c, 0, 64, 79
1, 49143, Control_c, 0, 64, 85
1, 49158, Control_c, 0, 64, 91
1, 49173, Control_c, 0, 64, 98
1, 49188, Control_c, 0, 64, 108
1, 49203, Control_c, 0, 64, 127
1, 49400, Note_off_c, 0, 76, 63
1, 49425, Note_on_c, 0, 67, 54
1, 49506, Control_c, 0, 64, 107
1, 49521, Control_c, 0, 64, 80
1, 49536, Control_c, 0, 64, 67
1, 49541, Note_on_c, 0, 66, 60
1, 49542, Note_on_c, 0, 58, 45
1, 49550, Control_c, 0, 64, 58
1, 49564, Note_off_c, 0, 67, 45
1, 49565, Control_c, 0, 64, 51
1, 49580, Control_c, 0, 64, 47
1, 49593, Note_off_c, 0, 55, 57
1, 49595, Control_c, 0, 64, 47
1, 49610, Control_c, 0, 64, 48
1, 49625, Note_off_c, 0, 61, 48
1, 49625, Control_c, 0, 64, 53
1, 49640, Control_c, 0, 64, 58
1, 49655, Control_c, 0, 64, 61
1, 49670, Control_c, 0, 64, 62
1, 49685, Control_c, 0, 64, 63
1, 49699, Control_c, 0, 64, 65
1, 49714, Control_c, 0, 64, 68
1, 49729, Control_c, 0, 64, 72
1, 49743, Control_c, 0, 64, 77
1, 49758, Control_c, 0, 64, 82
1, 49759, Note_off_c, 0, 50, 39
1, 49774, Control_c, 0, 64, 91
1, 49789, Control_c, 0, 64, 102
1, 49804, Control_c, 0, 64, 127
1, 50101, Note_on_c, 0, 64, 52
1, 50111, Note_off_c, 0, 66, 36
1, 50211, Control_c, 0, 64, 91
1, 50214, Note_off_c, 0, 64, 61
1, 50226, Control_c, 0, 64, 74
1, 50236, Note_on_c, 0, 57, 28
1, 50236, Note_on_c, 0, 66, 55
1, 50236, Note_on_c, 0, 48, 43
1, 50239, Note_on_c, 0, 62, 38
1, 50240, Control_c, 0, 64, 65
1, 50255, Control_c, 0, 64, 61
1, 50269, Note_off_c, 0, 58, 36
1, 50270, Control_c, 0, 64, 58
1, 50285, Control_c, 0, 64, 55
1, 50300, Control_c, 0, 64, 54
1, 50314, Control_c, 0, 64, 52
1, 50329, Control_c, 0, 64, 49
1, 50344, Control_c, 0, 64, 47
1, 50359, Control_c, 0, 64, 45
1, 50373, Control_c, 0, 64, 44
1, 50388, Control_c, 0, 64, 42
1, 50403, Control_c, 0, 64, 40
1, 50418, Control_c, 0, 64, 39
1, 50657, Control_c, 0, 64, 39
1, 50671, Control_c, 0, 64, 40
1, 50724, Control_c, 0, 64, 41
1, 50739, Control_c, 0, 64, 42
1, 50753, Control_c, 0, 64, 43
1, 50812, Control_c, 0, 64, 43
1, 50817, Note_on_c, 0, 67, 51
1, 50863, Note_off_c, 0, 66, 59
1, 50871, Control_c, 0, 64, 44
1, 50942, Note_on_c, 0, 69, 44
1, 50960, Control_c, 0, 64, 44
1, 50962, Note_off_c, 0, 67, 59
1, 51005, Control_c, 0, 64, 45
1, 51035, Control_c, 0, 64, 45
1, 51244, Note_on_c, 0, 54, 47
1, 51257, Control_c, 0, 64, 46
1, 51286, Note_off_c, 0, 57, 44
1, 51300, Control_c, 0, 64, 46
1, 51360, Control_c, 0, 64, 47
1, 51375, Control_c, 0, 64, 48
1, 51449, Control_c, 0, 64, 48
1, 51487, Control_c, 0, 64, 49
1, 51569, Note_on_c, 0, 46, 38
1, 51577, Note_on_c, 0, 50, 46
1, 51610, Note_off_c, 0, 48, 56
1, 51619, Control_c, 0, 64, 50
1, 51620, Note_off_c, 0, 54, 59
1, 51634, Control_c, 0, 64, 51
1, 51649, Control_c, 0, 64, 52
1, 51679, Control_c, 0, 64, 52
1, 51694, Control_c, 0, 64, 53
1, 51709, Control_c, 0, 64, 54
1, 51720, Note_off_c, 0, 62, 39
1, 51723, Control_c, 0, 64, 56
1, 51738, Control_c, 0, 64, 58
1, 51753, Control_c, 0, 64, 60
1, 51768, Control_c, 0, 64, 61
1, 51783, Control_c, 0, 64, 62
1, 51798, Control_c, 0, 64, 63
1, 51812, Control_c, 0, 64, 65
1, 51827, Control_c, 0, 64, 68
1, 51842, Control_c, 0, 64, 70
1, 51857, Control_c, 0, 64, 73
1, 51872, Control_c, 0, 64, 78
1, 51886, Control_c, 0, 64, 83
1, 51901, Control_c, 0, 64, 88
1, 51916, Control_c, 0, 64, 93
1, 51931, Control_c, 0, 64, 97
1, 51945, Control_c, 0, 64, 105
1, 51960, Control_c, 0, 64, 127
1, 52136, Note_on_c, 0, 62, 52
1, 52183, Control_c, 0, 64, 121
1, 52198, Control_c, 0, 64, 88
1, 52221, Control_c, 0, 64, 73
1, 52236, Control_c, 0, 64, 65
1, 52238, Note_on_c, 0, 58, 54
1, 52240, Note_on_c, 0, 67, 62
1, 52250, Control_c, 0, 64, 59
1, 52265, Control_c, 0, 64, 54
1, 52280, Control_c, 0, 64, 51
1, 52288, Note_off_c, 0, 62, 58
1, 52310, Control_c, 0, 64, 53
1, 52319, Note_off_c, 0, 50, 60
1, 52324, Control_c, 0, 64, 57
1, 52325, Note_off_c, 0, 69, 59
1, 52339, Control_c, 0, 64, 59
1, 52354, Control_c, 0, 64, 60
1, 52368, Control_c, 0, 64, 61
1, 52383, Control_c, 0, 64, 64
1, 52398, Control_c, 0, 64, 66
1, 52413, Control_c, 0, 64, 68
1, 52428, Control_c, 0, 64, 68
1, 52442, Control_c, 0, 64, 69
1, 52457, Control_c, 0, 64, 71
1, 52472, Control_c, 0, 64, 76
1, 52487, Control_c, 0, 64, 81
1, 52502, Control_c, 0, 64, 85
1, 52516, Control_c, 0, 64, 88
1, 52531, Control_c, 0, 64, 92
1, 52546, Control_c, 0, 64, 97
1, 52561, Control_c, 0, 64, 103
1, 52576, Control_c, 0, 64, 111
1, 52591, Control_c, 0, 64, 127
1, 52801, Note_on_c, 0, 70, 65
1, 52862, Note_off_c, 0, 46, 46
1, 52917, Note_off_c, 0, 70, 63
1, 52921, Note_on_c, 0, 72, 68
1, 52927, Note_on_c, 0, 45, 48
1, 52931, Control_c, 0, 64, 99
1, 52933, Note_on_c, 0, 51, 60
1, 52946, Control_c, 0, 64, 73
1, 52969, Control_c, 0, 64, 61
1, 52984, Control_c, 0, 64, 49
1, 52999, Control_c, 0, 64, 36
1, 53014, Control_c, 0, 64, 21
1, 53029, Control_c, 0, 64, 17
1, 53043, Note_off_c, 0, 58, 38
1, 53073, Control_c, 0, 64, 23
1, 53088, Control_c, 0, 64, 33
1, 53103, Control_c, 0, 64, 42
1, 53118, Control_c, 0, 64, 45
1, 53132, Control_c, 0, 64, 50
1, 53147, Control_c, 0, 64, 56
1, 53162, Control_c, 0, 64, 60
1, 53177, Control_c, 0, 64, 61
1, 53206, Control_c, 0, 64, 62
1, 53221, Control_c, 0, 64, 63
1, 53231, Note_off_c, 0, 67, 65
1, 53236, Control_c, 0, 64, 65
1, 53251, Control_c, 0, 64, 67
1, 53265, Control_c, 0, 64, 69
1, 53280, Control_c, 0, 64, 70
1, 53295, Control_c, 0, 64, 71
1, 53310, Control_c, 0, 64, 74
1, 53325, Control_c, 0, 64, 77
1, 53339, Control_c, 0, 64, 78
1, 53354, Control_c, 0, 64, 80
1, 53369, Control_c, 0, 64, 81
1, 53384, Control_c, 0, 64, 84
1, 53399, Control_c, 0, 64, 86
1, 53414, Control_c, 0, 64, 88
1, 53429, Control_c, 0, 64, 89
1, 53443, Control_c, 0, 64, 91
1, 53458, Control_c, 0, 64, 93
1, 53473, Control_c, 0, 64, 94
1, 53494, Note_on_c, 0, 67, 60
1, 53545, Control_c, 0, 64, 93
1, 53560, Control_c, 0, 64, 90
1, 53575, Control_c, 0, 64, 84
1, 53590, Control_c, 0, 64, 74
1, 53595, Note_on_c, 0, 66, 64
1, 53604, Control_c, 0, 64, 66
1, 53612, Note_on_c, 0, 48, 52
1, 53619, Control_c, 0, 64, 60
1, 53625, Note_off_c, 0, 67, 55
1, 53634, Control_c, 0, 64, 52
1, 53649, Control_c, 0, 64, 45
1, 53664, Note_off_c, 0, 51, 58
1, 53664, Control_c, 0, 64, 33
1, 53679, Control_c, 0, 64, 0
1, 54168, Note_on_c, 0, 64, 55
1, 54185, Note_off_c, 0, 66, 63
1, 54266, Note_off_c, 0, 64, 61
1, 54271, Note_on_c, 0, 66, 54
1, 54273, Note_on_c, 0, 50, 49
1, 54303, Note_off_c, 0, 48, 61
1, 54481, Control_c, 0, 64, 33
1, 54495, Control_c, 0, 64, 47
1, 54510, Control_c, 0, 64, 55
1, 54525, Control_c, 0, 64, 60
1, 54539, Control_c, 0, 64, 62
1, 54554, Control_c, 0, 64, 64
1, 54560, Note_off_c, 0, 45, 64
1, 54570, Control_c, 0, 64, 69
1, 54585, Control_c, 0, 64, 80
1, 54600, Control_c, 0, 64, 98
1, 54615, Control_c, 0, 64, 127
1, 54861, Note_on_c, 0, 74, 56
1, 54958, Note_on_c, 0, 38, 64
1, 54959, Note_on_c, 0, 69, 73
1, 54961, Note_off_c, 0, 72, 54
1, 54964, Note_off_c, 0, 74, 62
1, 54985, Control_c, 0, 64, 90
1, 54999, Control_c, 0, 64, 67
1, 55014, Control_c, 0, 64, 58
1, 55029, Control_c, 0, 64, 51
1, 55044, Control_c, 0, 64, 46
1, 55059, Control_c, 0, 64, 42
1, 55074, Control_c, 0, 64, 40
1, 55089, Control_c, 0, 64, 39
1, 55133, Control_c, 0, 64, 38
1, 55148, Control_c, 0, 64, 33
1, 55162, Control_c, 0, 64, 26
1, 55177, Control_c, 0, 64, 17
1, 55192, Control_c, 0, 64, 0
1, 55569, Note_on_c, 0, 72, 54
1, 55667, Note_on_c, 0, 70, 68
1, 55675, Note_on_c, 0, 43, 57
1, 55679, Note_off_c, 0, 38, 60
1, 55679, Note_off_c, 0, 72, 64
1, 55699, Note_off_c, 0, 69, 65
1, 55843, Note_off_c, 0, 50, 62
1, 55843, Note_off_c, 0, 66, 56
1, 56309, Note_on_c, 0, 67, 56
1, 56404, Note_on_c, 0, 46, 50
1, 56409, Note_on_c, 0, 62, 58
1, 56421, Note_off_c, 0, 67, 59
1, 56532, Note_off_c, 0, 43, 35
1, 56995, Note_off_c, 0, 62, 62
1, 57010, Note_on_c, 0, 65, 57
1, 57020, Note_on_c, 0, 50, 48
1, 57051, Note_off_c, 0, 46, 58
1, 57113, Note_off_c, 0, 65, 62
1, 57114, Note_on_c, 0, 55, 47
1, 57118, Note_on_c, 0, 63, 61
1, 57119, Note_off_c, 0, 50, 62
1, 57291, Control_c, 0, 64, 17
1, 57305, Control_c, 0, 64, 29
1, 57316, Note_off_c, 0, 70, 63
1, 57320, Control_c, 0, 64, 40
1, 57335, Control_c, 0, 64, 48
1, 57350, Control_c, 0, 64, 54
1, 57365, Control_c, 0, 64, 58
1, 57379, Control_c, 0, 64, 60
1, 57394, Control_c, 0, 64, 61
1, 57409, Control_c, 0, 64, 63
1, 57423, Control_c, 0, 64, 65
1, 57438, Control_c, 0, 64, 70
1, 57461, Control_c, 0, 64, 78
1, 57476, Control_c, 0, 64, 90
1, 57491, Control_c, 0, 64, 127
1, 57723, Note_on_c, 0, 70, 76
1, 57810, Note_off_c, 0, 63, 54
1, 57815, Note_on_c, 0, 75, 88
1, 57816, Note_on_c, 0, 58, 51
1, 57817, Control_c, 0, 64, 99
1, 57832, Control_c, 0, 64, 74
1, 57847, Control_c, 0, 64, 61
1, 57861, Control_c, 0, 64, 44
1, 57876, Control_c, 0, 64, 18
1, 57891, Control_c, 0, 64, 0
1, 57893, Note_off_c, 0, 70, 62
1, 57906, Control_c, 0, 64, 9
1, 57921, Control_c, 0, 64, 33
1, 57936, Control_c, 0, 64, 51
1, 57951, Control_c, 0, 64, 58
1, 57965, Control_c, 0, 64, 61
1, 57980, Control_c, 0, 64, 63
1, 57995, Control_c, 0, 64, 65
1, 58010, Control_c, 0, 64, 69
1, 58025, Control_c, 0, 64, 74
1, 58040, Control_c, 0, 64, 83
1, 58054, Control_c, 0, 64, 98
1, 58069, Control_c, 0, 64, 127
1, 58373, Note_on_c, 0, 79, 76
1, 58451, Note_off_c, 0, 79, 60
1, 58473, Note_on_c, 0, 68, 78
1, 58493, Note_off_c, 0, 75, 61
1, 58499, Note_on_c, 0, 60, 53
1, 58506, Control_c, 0, 64, 86
1, 58514, Note_off_c, 0, 58, 61
1, 58520, Control_c, 0, 64, 69
1, 58535, Control_c, 0, 64, 58
1, 58551, Control_c, 0, 64, 50
1, 58566, Control_c, 0, 64, 41
1, 58581, Control_c, 0, 64, 31
1, 58595, Control_c, 0, 64, 19
1, 58610, Control_c, 0, 64, 0
1, 59051, Note_on_c, 0, 53, 68
1, 59064, Note_on_c, 0, 62, 56
1, 59080, Note_off_c, 0, 55, 64
1, 59148, Note_off_c, 0, 62, 62
1, 59159, Note_on_c, 0, 48, 61
1, 59161, Note_on_c, 0, 63, 58
1, 59208, Note_off_c, 0, 53, 64
1, 59360, Control_c, 0, 64, 41
1, 59362, Note_off_c, 0, 60, 43
1, 59374, Control_c, 0, 64, 53
1, 59389, Control_c, 0, 64, 55
1, 59404, Control_c, 0, 64, 57
1, 59418, Control_c, 0, 64, 61
1, 59433, Control_c, 0, 64, 67
1, 59448, Control_c, 0, 64, 76
1, 59459, Note_off_c, 0, 63, 62
1, 59463, Control_c, 0, 64, 93
1, 59478, Control_c, 0, 64, 127
1, 59673, Note_on_c, 0, 60, 63
1, 59674, Note_on_c, 0, 51, 63
1, 59720, Note_off_c, 0, 48, 65
1, 59776, Note_off_c, 0, 60, 38
1, 59864, Note_on_c, 0, 65, 63
1, 59867, Note_on_c, 0, 50, 62
1, 59900, Control_c, 0, 64, 78
1, 59903, Note_off_c, 0, 51, 63
1, 59913, Note_off_c, 0, 65, 62
1, 59915, Control_c, 0, 64, 63
1, 59921, Note_on_c, 0, 63, 64
1, 59930, Control_c, 0, 64, 46
1, 59945, Control_c, 0, 64, 25
1, 59960, Control_c, 0, 64, 0
1, 59981, Note_on_c, 0, 65, 53
1, 59999, Note_off_c, 0, 63, 52
1, 60440, Note_on_c, 0, 46, 45
1, 60563, Note_on_c, 0, 41, 52
1, 60620, Note_off_c, 0, 50, 59
1, 60645, Note_off_c, 0, 46, 61
1, 60663, Control_c, 0, 64, 28
1, 60678, Control_c, 0, 64, 49
1, 60693, Control_c, 0, 64, 55
1, 60708, Control_c, 0, 64, 56
1, 60723, Control_c, 0, 64, 56
1, 60738, Control_c, 0, 64, 60
1, 60746, Note_off_c, 0, 65, 61
1, 60753, Control_c, 0, 64, 64
1, 60768, Control_c, 0, 64, 67
1, 60782, Control_c, 0, 64, 70
1, 60797, Control_c, 0, 64, 74
1, 60812, Control_c, 0, 64, 82
1, 60827, Control_c, 0, 64, 92
1, 60842, Control_c, 0, 64, 100
1, 60856, Control_c, 0, 64, 101
1, 60886, Control_c, 0, 64, 102
1, 60901, Control_c, 0, 64, 104
1, 60914, Note_on_c, 0, 65, 44
1, 60916, Control_c, 0, 64, 107
1, 60930, Control_c, 0, 64, 115
1, 60946, Control_c, 0, 64, 127
1, 61037, Note_on_c, 0, 44, 48
1, 61235, Control_c, 0, 64, 111
1, 61250, Control_c, 0, 64, 95
1, 61259, Note_off_c, 0, 41, 53
1, 61262, Note_on_c, 0, 43, 53
1, 61265, Control_c, 0, 64, 83
1, 61273, Note_on_c, 0, 58, 53
1, 61279, Control_c, 0, 64, 73
1, 61294, Control_c, 0, 64, 66
1, 61304, Note_off_c, 0, 44, 38
1, 61309, Control_c, 0, 64, 62
1, 61324, Control_c, 0, 64, 59
1, 61339, Note_off_c, 0, 65, 54
1, 61339, Control_c, 0, 64, 56
1, 61353, Control_c, 0, 64, 51
1, 61354, Note_off_c, 0, 68, 27
1, 61368, Control_c, 0, 64, 47
1, 61383, Control_c, 0, 64, 45
1, 61442, Control_c, 0, 64, 44
1, 61457, Control_c, 0, 64, 43
1, 61531, Control_c, 0, 64, 43
1, 61560, Control_c, 0, 64, 43
1, 61650, Control_c, 0, 64, 44
1, 61665, Control_c, 0, 64, 44
1, 61679, Control_c, 0, 64, 45
1, 61739, Control_c, 0, 64, 45
1, 61754, Control_c, 0, 64, 46
1, 61769, Control_c, 0, 64, 46
1, 61838, Note_on_c, 0, 62, 56
1, 61873, Control_c, 0, 64, 47
1, 61933, Note_on_c, 0, 65, 55
1, 61936, Note_on_c, 0, 46, 51
1, 61970, Note_off_c, 0, 62, 55
1, 62043, Control_c, 0, 64, 47
1, 62058, Control_c, 0, 64, 48
1, 62073, Control_c, 0, 64, 48
1, 62220, Control_c, 0, 64, 49
1, 62235, Control_c, 0, 64, 49
1, 62294, Control_c, 0, 64, 50
1, 62339, Control_c, 0, 64, 50
1, 62368, Control_c, 0, 64, 51
1, 62383, Control_c, 0, 64, 51
1, 62398, Control_c, 0, 64, 52
1, 62473, Control_c, 0, 64, 52
1, 62504, Note_on_c, 0, 68, 62
1, 62612, Note_on_c, 0, 67, 64
1, 62615, Note_on_c, 0, 51, 54
1, 62623, Note_off_c, 0, 68, 58
1, 62661, Note_off_c, 0, 65, 49
1, 62664, Note_off_c, 0, 46, 54
1, 63013, Note_off_c, 0, 58, 48
1, 63174, Note_on_c, 0, 58, 50
1, 63291, Note_on_c, 0, 55, 40
1, 63295, Note_on_c, 0, 63, 59
1, 63320, Note_off_c, 0, 67, 54
1, 63337, Note_off_c, 0, 51, 63
1, 63379, Note_off_c, 0, 58, 38
1, 63646, Note_on_c, 0, 67, 57
1, 64005, Note_on_c, 0, 65, 52
1, 64012, Note_on_c, 0, 48, 41
1, 64014, Note_on_c, 0, 45, 32
1, 64060, Note_off_c, 0, 55, 44
1, 64072, Note_off_c, 0, 67, 61
1, 64133, Control_c, 0, 64, 53
1, 64148, Control_c, 0, 64, 53
1, 64162, Control_c, 0, 64, 54
1, 64177, Control_c, 0, 64, 54
1, 64199, Control_c, 0, 64, 55
1, 64214, Control_c, 0, 64, 55
1, 64229, Control_c, 0, 64, 56
1, 64243, Control_c, 0, 64, 56
1, 64258, Control_c, 0, 64, 57
1, 64273, Control_c, 0, 64, 59
1, 64288, Control_c, 0, 64, 60
1, 64303, Control_c, 0, 64, 61
1, 64392, Control_c, 0, 64, 62
1, 64407, Control_c, 0, 64, 63
1, 64436, Control_c, 0, 64, 63
1, 64451, Control_c, 0, 64, 64
1, 64466, Control_c, 0, 64, 64
1, 64469, Note_off_c, 0, 63, 52
1, 64481, Control_c, 0, 64, 65
1, 64495, Control_c, 0, 64, 67
1, 64510, Control_c, 0, 64, 68
1, 64525, Control_c, 0, 64, 69
1, 64598, Note_on_c, 0, 63, 53
1, 64613, Control_c, 0, 64, 68
1, 64628, Control_c, 0, 64, 68
1, 64643, Control_c, 0, 64, 67
1, 64658, Control_c, 0, 64, 66
1, 64673, Control_c, 0, 64, 65
1, 64687, Control_c, 0, 64, 64
1, 64702, Control_c, 0, 64, 63
1, 64713, Note_on_c, 0, 62, 57
1, 64717, Control_c, 0, 64, 62
1, 64732, Control_c, 0, 64, 61
1, 64734, Note_off_c, 0, 63, 59
1, 64747, Control_c, 0, 64, 60
1, 64762, Control_c, 0, 64, 59
1, 64836, Control_c, 0, 64, 59
1, 64866, Control_c, 0, 64, 58
1, 65284, Note_on_c, 0, 60, 48
1, 65293, Note_off_c, 0, 62, 57
1, 65318, Control_c, 0, 64, 58
1, 65409, Note_off_c, 0, 60, 57
1, 65421, Note_on_c, 0, 62, 52
1, 65422, Note_on_c, 0, 47, 47
1, 65432, Note_off_c, 0, 45, 51
1, 65438, Note_on_c, 0, 55, 30
1, 65462, Note_off_c, 0, 48, 40
1, 65600, Control_c, 0, 64, 58
1, 65615, Control_c, 0, 64, 59
1, 65630, Control_c, 0, 64, 59
1, 65644, Control_c, 0, 64, 60
1, 65659, Control_c, 0, 64, 61
1, 65674, Control_c, 0, 64, 62
1, 65697, Control_c, 0, 64, 63
1, 65712, Control_c, 0, 64, 64
1, 65726, Control_c, 0, 64, 65
1, 65742, Control_c, 0, 64, 65
1, 65757, Control_c, 0, 64, 66
1, 65772, Control_c, 0, 64, 67
1, 65787, Control_c, 0, 64, 68
1, 65816, Control_c, 0, 64, 67
1, 65817, Note_off_c, 0, 65, 53
1, 65905, Control_c, 0, 64, 67
1, 65979, Control_c, 0, 64, 66
1, 65983, Note_on_c, 0, 65, 47
1, 66023, Control_c, 0, 64, 66
1, 66038, Control_c, 0, 64, 65
1, 66053, Control_c, 0, 64, 65
1, 66068, Control_c, 0, 64, 64
1, 66082, Control_c, 0, 64, 62
1, 66097, Control_c, 0, 64, 60
1, 66108, Note_on_c, 0, 67, 56
1, 66112, Control_c, 0, 64, 59
1, 66127, Control_c, 0, 64, 58
1, 66142, Control_c, 0, 64, 56
1, 66145, Note_off_c, 0, 65, 57
1, 66157, Control_c, 0, 64, 55
1, 66172, Control_c, 0, 64, 54
1, 66231, Control_c, 0, 64, 55
1, 66246, Control_c, 0, 64, 57
1, 66260, Control_c, 0, 64, 59
1, 66275, Control_c, 0, 64, 61
1, 66290, Control_c, 0, 64, 63
1, 66305, Control_c, 0, 64, 64
1, 66320, Control_c, 0, 64, 65
1, 66334, Control_c, 0, 64, 66
1, 66349, Control_c, 0, 64, 68
1, 66354, Note_off_c, 0, 62, 58
1, 66364, Control_c, 0, 64, 70
1, 66379, Control_c, 0, 64, 73
1, 66394, Control_c, 0, 64, 76
1, 66408, Control_c, 0, 64, 79
1, 66423, Control_c, 0, 64, 82
1, 66446, Control_c, 0, 64, 85
1, 66461, Control_c, 0, 64, 89
1, 66475, Control_c, 0, 64, 94
1, 66490, Control_c, 0, 64, 100
1, 66505, Control_c, 0, 64, 104
1, 66520, Control_c, 0, 64, 105
1, 66535, Control_c, 0, 64, 106
1, 66550, Control_c, 0, 64, 108
1, 66565, Control_c, 0, 64, 116
1, 66580, Control_c, 0, 64, 127
1, 66660, Note_on_c, 0, 62, 46
1, 66684, Control_c, 0, 64, 121
1, 66698, Control_c, 0, 64, 114
1, 66713, Control_c, 0, 64, 108
1, 66728, Control_c, 0, 64, 105
1, 66743, Control_c, 0, 64, 104
1, 66772, Control_c, 0, 64, 101
1, 66787, Control_c, 0, 64, 98
1, 66802, Control_c, 0, 64, 95
1, 66817, Control_c, 0, 64, 92
1, 66832, Control_c, 0, 64, 87
1, 66838, Note_on_c, 0, 63, 37
1, 66838, Note_off_c, 0, 67, 39
1, 66840, Note_on_c, 0, 48, 42
1, 66842, Note_off_c, 0, 43, 32
1, 66846, Control_c, 0, 64, 79
1, 66861, Control_c, 0, 64, 71
1, 66876, Control_c, 0, 64, 64
1, 66890, Control_c, 0, 64, 58
1, 66899, Note_off_c, 0, 47, 54
1, 66905, Control_c, 0, 64, 54
1, 66920, Control_c, 0, 64, 50
1, 66950, Control_c, 0, 64, 51
1, 66965, Control_c, 0, 64, 54
1, 66980, Control_c, 0, 64, 57
1, 66995, Control_c, 0, 64, 59
1, 67010, Control_c, 0, 64, 62
1, 67024, Control_c, 0, 64, 63
1, 67039, Control_c, 0, 64, 64
1, 67054, Control_c, 0, 64, 65
1, 67069, Control_c, 0, 64, 67
1, 67084, Control_c, 0, 64, 68
1, 67098, Control_c, 0, 64, 70
1, 67113, Control_c, 0, 64, 73
1, 67128, Control_c, 0, 64, 76
1, 67143, Control_c, 0, 64, 79
1, 67157, Control_c, 0, 64, 81
1, 67172, Control_c, 0, 64, 84
1, 67194, Control_c, 0, 64, 87
1, 67209, Control_c, 0, 64, 89
1, 67239, Control_c, 0, 64, 89
1, 67254, Control_c, 0, 64, 90
1, 67269, Control_c, 0, 64, 92
1, 67284, Control_c, 0, 64, 94
1, 67388, Control_c, 0, 64, 93
1, 67406, Note_off_c, 0, 62, 56
1, 67427, Note_on_c, 0, 59, 43
1, 67462, Control_c, 0, 64, 92
1, 67477, Control_c, 0, 64, 91
1, 67492, Control_c, 0, 64, 89
1, 67521, Control_c, 0, 64, 89
1, 67536, Control_c, 0, 64, 88
1, 67547, Note_on_c, 0, 60, 48
1, 67551, Control_c, 0, 64, 85
1, 67559, Note_off_c, 0, 55, 41
1, 67566, Control_c, 0, 64, 81
1, 67581, Control_c, 0, 64, 78
1, 67595, Control_c, 0, 64, 77
1, 67610, Control_c, 0, 64, 76
1, 67624, Note_off_c, 0, 59, 34
1, 67625, Control_c, 0, 64, 76
1, 67639, Control_c, 0, 64, 74
1, 67654, Control_c, 0, 64, 70
1, 67669, Control_c, 0, 64, 68
1, 67684, Control_c, 0, 64, 67
1, 67699, Control_c, 0, 64, 66
1, 67713, Control_c, 0, 64, 65
1, 67728, Control_c, 0, 64, 64
1, 67743, Control_c, 0, 64, 63
1, 67758, Control_c, 0, 64, 62
1, 67773, Control_c, 0, 64, 61
1, 67788, Control_c, 0, 64, 60
1, 67802, Control_c, 0, 64, 59
1, 67817, Control_c, 0, 64, 58
1, 67832, Control_c, 0, 64, 56
1, 67844, Note_on_c, 0, 55, 47
1, 67847, Control_c, 0, 64, 54
1, 67862, Control_c, 0, 64, 52
1, 67877, Control_c, 0, 64, 51
1, 67892, Control_c, 0, 64, 49
1, 67906, Control_c, 0, 64, 47
1, 67920, Note_off_c, 0, 60, 59
1, 67921, Control_c, 0, 64, 43
1, 67943, Control_c, 0, 64, 34
1, 67958, Control_c, 0, 64, 25
1, 67973, Control_c, 0, 64, 17
1, 67987, Control_c, 0, 64, 0
1, 68188, Note_on_c, 0, 51, 50
1, 68270, Control_c, 0, 64, 16
1, 68282, Note_off_c, 0, 55, 58
1, 68285, Control_c, 0, 64, 25
1, 68300, Control_c, 0, 64, 32
1, 68315, Control_c, 0, 64, 41
1, 68330, Control_c, 0, 64, 47
1, 68343, Note_off_c, 0, 48, 52
1, 68344, Control_c, 0, 64, 49
1, 68359, Control_c, 0, 64, 51
1, 68374, Control_c, 0, 64, 53
1, 68389, Control_c, 0, 64, 57
1, 68404, Control_c, 0, 64, 60
1, 68418, Control_c, 0, 64, 62
1, 68433, Control_c, 0, 64, 63
1, 68448, Control_c, 0, 64, 64
1, 68462, Control_c, 0, 64, 66
1, 68477, Control_c, 0, 64, 69
1, 68492, Control_c, 0, 64, 72
1, 68507, Control_c, 0, 64, 76
1, 68521, Control_c, 0, 64, 79
1, 68536, Control_c, 0, 64, 83
1, 68551, Control_c, 0, 64, 88
1, 68566, Control_c, 0, 64, 94
1, 68580, Control_c, 0, 64, 102
1, 68595, Control_c, 0, 64, 108
1, 68610, Control_c, 0, 64, 110
1, 68625, Control_c, 0, 64, 110
1, 68654, Control_c, 0, 64, 111
1, 68691, Control_c, 0, 64, 110
1, 68738, Note_on_c, 0, 75, 62
1, 68761, Note_on_c, 0, 55, 42
1, 68780, Control_c, 0, 64, 107
1, 68795, Control_c, 0, 64, 101
1, 68810, Control_c, 0, 64, 94
1, 68825, Control_c, 0, 64, 85
1, 68840, Control_c, 0, 64, 75
1, 68854, Note_on_c, 0, 69, 62
1, 68855, Control_c, 0, 64, 67
1, 68864, Note_on_c, 0, 48, 50
1, 68869, Control_c, 0, 64, 60
1, 68872, Note_off_c, 0, 75, 60
1, 68884, Control_c, 0, 64, 56
1, 68887, Note_off_c, 0, 63, 62
1, 68899, Control_c, 0, 64, 55
1, 68905, Note_off_c, 0, 51, 49
1, 68928, Note_off_c, 0, 55, 61
1, 68944, Control_c, 0, 64, 56
1, 68959, Control_c, 0, 64, 57
1, 68974, Control_c, 0, 64, 59
1, 68989, Control_c, 0, 64, 61
1, 69004, Control_c, 0, 64, 62
1, 69019, Control_c, 0, 64, 63
1, 69033, Control_c, 0, 64, 64
1, 69048, Control_c, 0, 64, 65
1, 69063, Control_c, 0, 64, 67
1, 69078, Control_c, 0, 64, 68
1, 69122, Control_c, 0, 64, 69
1, 69137, Control_c, 0, 64, 70
1, 69152, Control_c, 0, 64, 72
1, 69166, Control_c, 0, 64, 73
1, 69181, Control_c, 0, 64, 73
1, 69196, Control_c, 0, 64, 74
1, 69226, Control_c, 0, 64, 75
1, 69285, Control_c, 0, 64, 75
1, 69300, Control_c, 0, 64, 76
1, 69359, Control_c, 0, 64, 76
1, 69382, Note_off_c, 0, 69, 60
1, 69385, Note_on_c, 0, 72, 68
1, 69406, Note_on_c, 0, 51, 58
1, 69441, Control_c, 0, 64, 75
1, 69456, Control_c, 0, 64, 70
1, 69471, Control_c, 0, 64, 64
1, 69485, Control_c, 0, 64, 57
1, 69500, Control_c, 0, 64, 50
1, 69504, Note_on_c, 0, 66, 67
1, 69511, Note_on_c, 0, 50, 57
1, 69515, Control_c, 0, 64, 32
1, 69530, Control_c, 0, 64, 0
1, 69533, Note_off_c, 0, 51, 50
1, 69538, Note_off_c, 0, 72, 57
1, 70020, Note_on_c, 0, 62, 58
1, 70021, Note_on_c, 0, 54, 54
1, 70034, Note_off_c, 0, 66, 60
1, 70120, Note_off_c, 0, 50, 60
1, 70130, Note_on_c, 0, 66, 67
1, 70131, Note_off_c, 0, 62, 63
1, 70134, Note_on_c, 0, 57, 54
1, 70157, Note_off_c, 0, 54, 62
1, 70169, Note_off_c, 0, 48, 63
1, 70435, Note_on_c, 0, 48, 60
1, 70584, Note_on_c, 0, 69, 76
1, 70778, Note_on_c, 0, 46, 56
1, 70787, Note_on_c, 0, 74, 67
1, 70795, Note_off_c, 0, 66, 54
1, 70822, Note_off_c, 0, 69, 63
1, 70832, Note_off_c, 0, 48, 61
1, 70894, Note_off_c, 0, 57, 57
1, 71356, Note_on_c, 0, 54, 46
1, 71371, Note_on_c, 0, 69, 63
1, 71465, Note_on_c, 0, 70, 74
1, 71466, Note_on_c, 0, 55, 48
1, 71472, Note_off_c, 0, 69, 64
1, 71498, Note_off_c, 0, 54, 63
1, 71502, Control_c, 0, 64, 11
1, 71517, Control_c, 0, 64, 13
1, 71532, Control_c, 0, 64, 17
1, 71546, Control_c, 0, 64, 23
1, 71561, Control_c, 0, 64, 33
1, 71576, Control_c, 0, 64, 41
1, 71591, Control_c, 0, 64, 48
1, 71606, Control_c, 0, 64, 54
1, 71621, Control_c, 0, 64, 60
1, 71636, Control_c, 0, 64, 64
1, 71651, Control_c, 0, 64, 68
1, 71666, Control_c, 0, 64, 77
1, 71687, Control_c, 0, 64, 97
1, 71702, Control_c, 0, 64, 127
1, 71816, Note_off_c, 0, 55, 61
1, 71896, Note_off_c, 0, 70, 40
1, 71999, Note_on_c, 0, 66, 70
1, 72001, Note_on_c, 0, 57, 65
1, 72031, Note_off_c, 0, 57, 66
1, 72087, Control_c, 0, 64, 102
1, 72102, Control_c, 0, 64, 75
1, 72107, Note_on_c, 0, 67, 65
1, 72117, Control_c, 0, 64, 61
1, 72128, Note_on_c, 0, 58, 61
1, 72133, Control_c, 0, 64, 32
1, 72140, Note_off_c, 0, 66, 57
1, 72148, Control_c, 0, 64, 0
1, 72354, Control_c, 0, 64, 17
1, 72369, Control_c, 0, 64, 34
1, 72384, Control_c, 0, 64, 39
1, 72436, Control_c, 0, 64, 40
1, 72446, Note_off_c, 0, 46, 59
1, 72451, Control_c, 0, 64, 45
1, 72465, Control_c, 0, 64, 48
1, 72480, Control_c, 0, 64, 49
1, 72495, Control_c, 0, 64, 52
1, 72509, Control_c, 0, 64, 58
1, 72524, Control_c, 0, 64, 62
1, 72539, Control_c, 0, 64, 63
1, 72569, Control_c, 0, 64, 64
1, 72584, Control_c, 0, 64, 66
1, 72599, Control_c, 0, 64, 68
1, 72614, Control_c, 0, 64, 68
1, 72629, Control_c, 0, 64, 69
1, 72643, Control_c, 0, 64, 70
1, 72658, Control_c, 0, 64, 75
1, 72673, Control_c, 0, 64, 82
1, 72688, Control_c, 0, 64, 95
1, 72703, Control_c, 0, 64, 127
1, 72711, Note_on_c, 0, 46, 78
1, 72777, Control_c, 0, 64, 88
1, 72791, Control_c, 0, 64, 72
1, 72804, Note_on_c, 0, 48, 78
1, 72806, Control_c, 0, 64, 63
1, 72821, Control_c, 0, 64, 57
1, 72836, Control_c, 0, 64, 48
1, 72850, Control_c, 0, 64, 33
1, 72864, Note_off_c, 0, 46, 61
1, 72865, Control_c, 0, 64, 0
1, 73379, Note_on_c, 0, 50, 77
1, 73415, Note_off_c, 0, 48, 63
1, 73486, Note_on_c, 0, 51, 86
1, 73516, Note_off_c, 0, 50, 64
1, 73704, Control_c, 0, 64, 47
1, 73719, Control_c, 0, 64, 65
1, 73734, Control_c, 0, 64, 69
1, 73749, Control_c, 0, 64, 72
1, 73764, Control_c, 0, 64, 76
1, 73770, Note_off_c, 0, 74, 63
1, 73779, Control_c, 0, 64, 93
1, 73794, Control_c, 0, 64, 127
1, 73842, Note_off_c, 0, 58, 61
1, 74071, Note_on_c, 0, 79, 87
1, 74074, Note_on_c, 0, 58, 65
1, 74127, Control_c, 0, 64, 99
1, 74142, Control_c, 0, 64, 76
1, 74156, Control_c, 0, 64, 63
1, 74161, Note_on_c, 0, 57, 68
1, 74170, Note_on_c, 0, 72, 85
1, 74171, Control_c, 0, 64, 48
1, 74179, Note_off_c, 0, 58, 60
1, 74186, Control_c, 0, 64, 0
1, 74204, Note_off_c, 0, 79, 64
1, 74289, Control_c, 0, 64, 23
1, 74304, Control_c, 0, 64, 42
1, 74319, Control_c, 0, 64, 56
1, 74334, Control_c, 0, 64, 61
1, 74349, Control_c, 0, 64, 61
1, 74363, Control_c, 0, 64, 63
1, 74378, Control_c, 0, 64, 66
1, 74393, Control_c, 0, 64, 73
1, 74408, Control_c, 0, 64, 85
1, 74423, Control_c, 0, 64, 113
1, 74438, Control_c, 0, 64, 127
1, 74458, Note_off_c, 0, 72, 64
1, 74628, Note_off_c, 0, 67, 36
1, 74705, Note_off_c, 0, 57, 59
1, 74711, Note_on_c, 0, 58, 70
1, 74715, Note_on_c, 0, 75, 78
1, 74814, Note_on_c, 0, 69, 86
1, 74817, Control_c, 0, 64, 93
1, 74831, Control_c, 0, 64, 65
1, 74832, Note_off_c, 0, 75, 55
1, 74833, Note_on_c, 0, 60, 69
1, 74834, Note_on_c, 0, 65, 71
1, 74835, Note_off_c, 0, 58, 59
1, 74846, Control_c, 0, 64, 32
1, 74861, Control_c, 0, 64, 0
1, 75024, Control_c, 0, 64, 33
1, 75039, Control_c, 0, 64, 49
1, 75053, Control_c, 0, 64, 53
1, 75068, Control_c, 0, 64, 55
1, 75083, Control_c, 0, 64, 58
1, 75097, Control_c, 0, 64, 60
1, 75112, Control_c, 0, 64, 62
1, 75116, Note_off_c, 0, 65, 60
1, 75127, Control_c, 0, 64, 64
1, 75142, Control_c, 0, 64, 67
1, 75157, Control_c, 0, 64, 69
1, 75171, Control_c, 0, 64, 70
1, 75186, Control_c, 0, 64, 70
1, 75201, Control_c, 0, 64, 72
1, 75216, Control_c, 0, 64, 75
1, 75231, Control_c, 0, 64, 78
1, 75259, Control_c, 0, 64, 77
1, 75274, Control_c, 0, 64, 78
1, 75289, Control_c, 0, 64, 79
1, 75319, Control_c, 0, 64, 79
1, 75334, Control_c, 0, 64, 79
1, 75347, Note_on_c, 0, 65, 82
1, 75348, Note_on_c, 0, 57, 57
1, 75349, Control_c, 0, 64, 81
1, 75364, Control_c, 0, 64, 82
1, 75365, Note_off_c, 0, 69, 53
1, 75379, Control_c, 0, 64, 80
1, 75393, Control_c, 0, 64, 74
1, 75408, Control_c, 0, 64, 68
1, 75430, Note_off_c, 0, 60, 54
1, 75431, Control_c, 0, 64, 64
1, 75446, Control_c, 0, 64, 60
1, 75460, Control_c, 0, 64, 47
1, 75466, Note_on_c, 0, 69, 93
1, 75467, Note_on_c, 0, 53, 69
1, 75475, Control_c, 0, 64, 0
1, 75490, Note_off_c, 0, 57, 64
1, 75500, Note_off_c, 0, 65, 59
1, 76011, Note_on_c, 0, 57, 66
1, 76013, Note_on_c, 0, 72, 81
1, 76057, Note_off_c, 0, 69, 63
1, 76123, Note_on_c, 0, 62, 64
1, 76125, Note_on_c, 0, 77, 89
1, 76143, Note_off_c, 0, 51, 62
1, 76144, Note_off_c, 0, 53, 52
1, 76152, Note_off_c, 0, 72, 65
1, 76179, Note_off_c, 0, 57, 59
1, 76357, Control_c, 0, 64, 30
1, 76372, Control_c, 0, 64, 37
1, 76402, Control_c, 0, 64, 37
1, 76417, Control_c, 0, 64, 47
1, 76431, Control_c, 0, 64, 59
1, 76446, Control_c, 0, 64, 62
1, 76461, Control_c, 0, 64, 62
1, 76476, Control_c, 0, 64, 63
1, 76491, Control_c, 0, 64, 64
1, 76505, Control_c, 0, 64, 71
1, 76520, Control_c, 0, 64, 80
1, 76535, Control_c, 0, 64, 93
1, 76549, Control_c, 0, 64, 107
1, 76564, Control_c, 0, 64, 127
1, 76719, Note_on_c, 0, 50, 65
1, 76721, Note_on_c, 0, 65, 80
1, 76750, Note_off_c, 0, 65, 63
1, 76802, Control_c, 0, 64, 118
1, 76814, Note_on_c, 0, 51, 71
1, 76817, Control_c, 0, 64, 75
1, 76823, Note_on_c, 0, 67, 86
1, 76832, Control_c, 0, 64, 56
1, 76847, Control_c, 0, 64, 0
1, 76850, Note_off_c, 0, 50, 55
1, 77003, Control_c, 0, 64, 11
1, 77018, Control_c, 0, 64, 41
1, 77033, Control_c, 0, 64, 52
1, 77047, Control_c, 0, 64, 54
1, 77062, Control_c, 0, 64, 55
1, 77077, Control_c, 0, 64, 57
1, 77092, Control_c, 0, 64, 61
1, 77107, Control_c, 0, 64, 64
1, 77121, Control_c, 0, 64, 65
1, 77136, Control_c, 0, 64, 66
1, 77151, Control_c, 0, 64, 67
1, 77166, Control_c, 0, 64, 71
1, 77180, Control_c, 0, 64, 76
1, 77195, Control_c, 0, 64, 83
1, 77210, Control_c, 0, 64, 93
1, 77225, Control_c, 0, 64, 127
1, 77288, Note_off_c, 0, 67, 62
1, 77387, Note_on_c, 0, 53, 69
1, 77404, Note_on_c, 0, 69, 92
1, 77492, Control_c, 0, 64, 87
1, 77498, Note_on_c, 0, 55, 73
1, 77499, Note_off_c, 0, 51, 37
1, 77502, Note_on_c, 0, 70, 92
1, 77506, Control_c, 0, 64, 65
1, 77517, Note_off_c, 0, 69, 66
1, 77521, Control_c, 0, 64, 37
1, 77530, Note_off_c, 0, 53, 62
1, 77536, Control_c, 0, 64, 0
1, 77677, Control_c, 0, 64, 16
1, 77692, Control_c, 0, 64, 29
1, 77706, Control_c, 0, 64, 44
1, 77723, Control_c, 0, 64, 58
1, 77738, Control_c, 0, 64, 63
1, 77752, Control_c, 0, 64, 64
1, 77758, Note_off_c, 0, 77, 61
1, 77767, Control_c, 0, 64, 66
1, 77782, Control_c, 0, 64, 71
1, 77796, Control_c, 0, 64, 86
1, 77811, Control_c, 0, 64, 127
1, 78134, Note_on_c, 0, 82, 91
1, 78211, Control_c, 0, 64, 81
1, 78226, Control_c, 0, 64, 61
1, 78230, Note_on_c, 0, 79, 88
1, 78241, Control_c, 0, 64, 0
1, 78277, Note_off_c, 0, 82, 60
1, 78426, Control_c, 0, 64, 39
1, 78441, Control_c, 0, 64, 44
1, 78456, Control_c, 0, 64, 44
1, 78470, Control_c, 0, 64, 48
1, 78485, Control_c, 0, 64, 57
1, 78500, Control_c, 0, 64, 62
1, 78515, Control_c, 0, 64, 63
1, 78531, Control_c, 0, 64, 63
1, 78545, Control_c, 0, 64, 65
1, 78560, Control_c, 0, 64, 71
1, 78575, Control_c, 0, 64, 80
1, 78590, Control_c, 0, 64, 90
1, 78605, Control_c, 0, 64, 106
1, 78619, Control_c, 0, 64, 127
1, 78742, Note_off_c, 0, 79, 58
1, 78752, Note_on_c, 0, 74, 84
1, 78825, Note_off_c, 0, 74, 59
1, 78900, Note_on_c, 0, 77, 67
1, 78959, Note_on_c, 0, 76, 74
1, 78963, Note_off_c, 0, 77, 62
1, 78990, Control_c, 0, 64, 89
1, 79004, Control_c, 0, 64, 64
1, 79005, Note_on_c, 0, 77, 67
1, 79012, Note_off_c, 0, 76, 63
1, 79018, Control_c, 0, 64, 31
1, 79033, Control_c, 0, 64, 0
1, 79061, Note_on_c, 0, 76, 79
1, 79089, Note_off_c, 0, 77, 63
1, 79526, Note_on_c, 0, 61, 73
1, 79547, Note_off_c, 0, 62, 62
1, 79633, Note_off_c, 0, 61, 62
1, 79658, Note_on_c, 0, 60, 70
1, 79753, Control_c, 0, 64, 12
1, 79767, Control_c, 0, 64, 48
1, 79782, Control_c, 0, 64, 56
1, 79797, Control_c, 0, 64, 57
1, 79799, Note_off_c, 0, 76, 57
1, 79812, Control_c, 0, 64, 59
1, 79827, Control_c, 0, 64, 65
1, 79841, Control_c, 0, 64, 78
1, 79856, Control_c, 0, 64, 127
1, 79988, Note_on_c, 0, 76, 84
1, 80136, Note_off_c, 0, 60, 61
1, 80140, Note_on_c, 0, 58, 65
1, 80324, Note_off_c, 0, 58, 59
1, 80338, Control_c, 0, 64, 101
1, 80340, Note_on_c, 0, 77, 82
1, 80349, Note_on_c, 0, 60, 58
1, 80353, Control_c, 0, 64, 74
1, 80363, Note_off_c, 0, 76, 59
1, 80368, Control_c, 0, 64, 58
1, 80369, Note_on_c, 0, 53, 59
1, 80383, Control_c, 0, 64, 0
1, 80397, Note_off_c, 0, 55, 40
1, 80561, Control_c, 0, 64, 35
1, 80576, Control_c, 0, 64, 47
1, 80591, Control_c, 0, 64, 51
1, 80605, Control_c, 0, 64, 54
1, 80620, Control_c, 0, 64, 56
1, 80635, Control_c, 0, 64, 59
1, 80650, Control_c, 0, 64, 62
1, 80672, Control_c, 0, 64, 64
1, 80677, Note_off_c, 0, 70, 60
1, 80687, Control_c, 0, 64, 65
1, 80702, Control_c, 0, 64, 68
1, 80716, Control_c, 0, 64, 71
1, 80731, Control_c, 0, 64, 74
1, 80746, Control_c, 0, 64, 76
1, 80761, Control_c, 0, 64, 79
1, 80776, Control_c, 0, 64, 83
1, 80790, Control_c, 0, 64, 91
1, 80805, Control_c, 0, 64, 100
1, 80820, Control_c, 0, 64, 111
1, 80835, Control_c, 0, 64, 127
1, 80954, Note_on_c, 0, 70, 68
1, 80969, Control_c, 0, 64, 108
1, 80984, Control_c, 0, 64, 89
1, 80999, Control_c, 0, 64, 80
1, 81014, Control_c, 0, 64, 73
1, 81029, Control_c, 0, 64, 67
1, 81044, Control_c, 0, 64, 64
1, 81044, Note_on_c, 0, 68, 62
1, 81059, Control_c, 0, 64, 62
1, 81073, Control_c, 0, 64, 62
1, 81088, Control_c, 0, 64, 61
1, 81098, Note_off_c, 0, 70, 47
1, 81103, Control_c, 0, 64, 59
1, 81118, Control_c, 0, 64, 57
1, 81133, Control_c, 0, 64, 55
1, 81148, Control_c, 0, 64, 54
1, 81162, Control_c, 0, 64, 53
1, 81177, Control_c, 0, 64, 52
1, 81192, Control_c, 0, 64, 51
1, 81251, Control_c, 0, 64, 51
1, 81525, Control_c, 0, 64, 51
1, 81584, Control_c, 0, 64, 52
1, 81599, Control_c, 0, 64, 52
1, 81615, Note_on_c, 0, 67, 47
1, 81620, Note_off_c, 0, 68, 62
1, 81729, Note_on_c, 0, 68, 59
1, 81741, Note_off_c, 0, 67, 61
1, 81807, Control_c, 0, 64, 53
1, 81822, Control_c, 0, 64, 54
1, 81837, Control_c, 0, 64, 55
1, 81851, Control_c, 0, 64, 56
1, 81866, Control_c, 0, 64, 59
1, 81881, Control_c, 0, 64, 62
1, 81896, Control_c, 0, 64, 65
1, 81911, Control_c, 0, 64, 68
1, 81926, Control_c, 0, 64, 71
1, 81941, Control_c, 0, 64, 74
1, 81956, Control_c, 0, 64, 83
1, 81970, Control_c, 0, 64, 102
1, 81985, Control_c, 0, 64, 127
1, 82012, Note_off_c, 0, 60, 64
1, 82253, Note_on_c, 0, 60, 77
1, 82265, Note_on_c, 0, 75, 66
1, 82373, Note_off_c, 0, 77, 60
1, 82388, Note_on_c, 0, 65, 82
1, 82388, Note_on_c, 0, 74, 72
1, 82392, Control_c, 0, 64, 89
1, 82401, Note_off_c, 0, 75, 62
1, 82407, Control_c, 0, 64, 68
1, 82422, Control_c, 0, 64, 51
1, 82436, Control_c, 0, 64, 0
1, 82483, Note_off_c, 0, 60, 59
1, 82512, Control_c, 0, 64, 24
1, 82527, Control_c, 0, 64, 32
1, 82541, Control_c, 0, 64, 39
1, 82556, Control_c, 0, 64, 54
1, 82571, Control_c, 0, 64, 64
1, 82585, Control_c, 0, 64, 72
1, 82600, Control_c, 0, 64, 93
1, 82615, Control_c, 0, 64, 127
1, 82679, Note_off_c, 0, 68, 62
1, 82894, Note_on_c, 0, 63, 77
1, 82898, Note_on_c, 0, 77, 74
1, 82916, Note_off_c, 0, 74, 63
1, 82945, Note_off_c, 0, 77, 59
1, 82957, Note_off_c, 0, 65, 60
1, 83037, Control_c, 0, 64, 104
1, 83052, Control_c, 0, 64, 71
1, 83063, Note_on_c, 0, 71, 72
1, 83065, Note_on_c, 0, 67, 68
1, 83066, Control_c, 0, 64, 52
1, 83067, Note_on_c, 0, 62, 71
1, 83081, Control_c, 0, 64, 0
1, 83121, Note_off_c, 0, 63, 63
1, 83626, Note_on_c, 0, 55, 73
1, 83644, Note_off_c, 0, 53, 64
1, 83723, Note_on_c, 0, 50, 78
1, 83758, Note_off_c, 0, 55, 64
1, 83904, Control_c, 0, 64, 16
1, 83919, Control_c, 0, 64, 28
1, 83934, Control_c, 0, 64, 34
1, 83948, Control_c, 0, 64, 37
1, 83963, Control_c, 0, 64, 40
1, 83978, Control_c, 0, 64, 44
1, 83993, Control_c, 0, 64, 49
1, 84007, Control_c, 0, 64, 51
1, 84022, Control_c, 0, 64, 52
1, 84037, Control_c, 0, 64, 53
1, 84052, Control_c, 0, 64, 55
1, 84067, Control_c, 0, 64, 57
1, 84082, Control_c, 0, 64, 60
1, 84096, Control_c, 0, 64, 60
1, 84112, Control_c, 0, 64, 61
1, 84127, Control_c, 0, 64, 61
1, 84142, Control_c, 0, 64, 63
1, 84157, Control_c, 0, 64, 64
1, 84172, Control_c, 0, 64, 65
1, 84186, Control_c, 0, 64, 65
1, 84201, Control_c, 0, 64, 66
1, 84216, Control_c, 0, 64, 67
1, 84276, Control_c, 0, 64, 67
1, 84287, Note_off_c, 0, 62, 61
1, 84291, Control_c, 0, 64, 68
1, 84303, Note_on_c, 0, 53, 70
1, 84305, Control_c, 0, 64, 70
1, 84335, Control_c, 0, 64, 68
1, 84350, Control_c, 0, 64, 65
1, 84364, Control_c, 0, 64, 60
1, 84379, Control_c, 0, 64, 55
1, 84393, Note_on_c, 0, 51, 79
1, 84394, Control_c, 0, 64, 52
1, 84400, Note_off_c, 0, 53, 64
1, 84402, Note_on_c, 0, 63, 63
1, 84402, Note_on_c, 0, 72, 66
1, 84417, Control_c, 0, 64, 49
1, 84428, Note_off_c, 0, 50, 63
1, 84432, Control_c, 0, 64, 46
1, 84446, Control_c, 0, 64, 46
1, 84448, Note_off_c, 0, 71, 58
1, 84506, Control_c, 0, 64, 46
1, 84550, Control_c, 0, 64, 47
1, 84564, Control_c, 0, 64, 49
1, 84579, Control_c, 0, 64, 49
1, 84639, Control_c, 0, 64, 50
1, 84668, Control_c, 0, 64, 50
1, 84832, Control_c, 0, 64, 51
1, 84907, Control_c, 0, 64, 51
1, 84994, Note_on_c, 0, 48, 60
1, 85069, Control_c, 0, 64, 51
1, 85101, Note_on_c, 0, 43, 60
1, 85119, Note_off_c, 0, 48, 63
1, 85143, Control_c, 0, 64, 50
1, 85181, Control_c, 0, 64, 50
1, 85218, Note_off_c, 0, 51, 33
1, 85299, Control_c, 0, 64, 49
1, 85642, Note_on_c, 0, 46, 54
1, 85691, Note_off_c, 0, 43, 55
1, 85759, Note_on_c, 0, 45, 51
1, 85771, Note_off_c, 0, 46, 61
1, 85876, Control_c, 0, 64, 50
1, 85891, Control_c, 0, 64, 50
1, 85913, Control_c, 0, 64, 52
1, 85928, Control_c, 0, 64, 53
1, 85943, Control_c, 0, 64, 56
1, 85957, Control_c, 0, 64, 58
1, 85972, Control_c, 0, 64, 61
1, 85987, Control_c, 0, 64, 63
1, 85991, Note_off_c, 0, 67, 60
1, 86002, Control_c, 0, 64, 65
1, 86016, Control_c, 0, 64, 66
1, 86031, Control_c, 0, 64, 69
1, 86046, Control_c, 0, 64, 72
1, 86061, Control_c, 0, 64, 76
1, 86076, Control_c, 0, 64, 80
1, 86090, Control_c, 0, 64, 85
1, 86103, Note_off_c, 0, 63, 37
1, 86105, Control_c, 0, 64, 93
1, 86120, Control_c, 0, 64, 106
1, 86124, Note_off_c, 0, 72, 59
1, 86135, Control_c, 0, 64, 127
1, 86317, Note_on_c, 0, 74, 77
1, 86387, Control_c, 0, 64, 93
1, 86401, Control_c, 0, 64, 78
1, 86416, Control_c, 0, 64, 69
1, 86421, Note_on_c, 0, 55, 52
1, 86427, Note_on_c, 0, 75, 79
1, 86431, Control_c, 0, 64, 64
1, 86440, Note_off_c, 0, 74, 61
1, 86446, Control_c, 0, 64, 62
1, 86461, Control_c, 0, 64, 60
1, 86475, Control_c, 0, 64, 60
1, 86506, Control_c, 0, 64, 59
1, 86521, Control_c, 0, 64, 59
1, 86536, Control_c, 0, 64, 57
1, 86551, Control_c, 0, 64, 55
1, 86566, Control_c, 0, 64, 54
1, 86595, Control_c, 0, 64, 53
1, 86610, Control_c, 0, 64, 51
1, 86625, Control_c, 0, 64, 51
1, 86662, Control_c, 0, 64, 51
1, 86677, Control_c, 0, 64, 52
1, 86692, Control_c, 0, 64, 52
1, 86706, Control_c, 0, 64, 54
1, 86721, Control_c, 0, 64, 57
1, 86736, Control_c, 0, 64, 59
1, 86751, Control_c, 0, 64, 59
1, 86766, Control_c, 0, 64, 60
1, 86780, Control_c, 0, 64, 62
1, 86795, Control_c, 0, 64, 65
1, 86810, Control_c, 0, 64, 68
1, 86825, Control_c, 0, 64, 69
1, 86839, Control_c, 0, 64, 71
1, 86854, Control_c, 0, 64, 76
1, 86869, Control_c, 0, 64, 83
1, 86884, Control_c, 0, 64, 91
1, 86893, Note_off_c, 0, 75, 61
1, 86899, Control_c, 0, 64, 99
1, 86913, Control_c, 0, 64, 108
1, 86928, Control_c, 0, 64, 113
1, 86943, Control_c, 0, 64, 113
1, 86958, Control_c, 0, 64, 123
1, 86973, Control_c, 0, 64, 127
1, 87005, Note_on_c, 0, 70, 68
1, 87062, Control_c, 0, 64, 107
1, 87077, Control_c, 0, 64, 85
1, 87092, Control_c, 0, 64, 74
1, 87106, Control_c, 0, 64, 68
1, 87108, Note_on_c, 0, 72, 68
1, 87110, Note_on_c, 0, 54, 44
1, 87121, Control_c, 0, 64, 65
1, 87128, Note_off_c, 0, 70, 62
1, 87136, Control_c, 0, 64, 63
1, 87150, Control_c, 0, 64, 61
1, 87151, Note_off_c, 0, 55, 56
1, 87165, Control_c, 0, 64, 60
1, 87180, Control_c, 0, 64, 59
1, 87195, Control_c, 0, 64, 58
1, 87210, Control_c, 0, 64, 56
1, 87224, Control_c, 0, 64, 55
1, 87239, Control_c, 0, 64, 54
1, 87254, Control_c, 0, 64, 53
1, 87269, Control_c, 0, 64, 52
1, 87284, Control_c, 0, 64, 51
1, 87300, Control_c, 0, 64, 50
1, 87315, Control_c, 0, 64, 49
1, 87688, Note_on_c, 0, 67, 49
1, 87783, Note_on_c, 0, 66, 53
1, 87790, Note_on_c, 0, 57, 33
1, 87791, Note_off_c, 0, 67, 60
1, 87836, Note_off_c, 0, 54, 64
1, 87959, Control_c, 0, 64, 50
1, 88123, Control_c, 0, 64, 50
1, 88160, Control_c, 0, 64, 51
1, 88335, Note_on_c, 0, 69, 50
1, 88447, Note_off_c, 0, 66, 31
1, 88453, Note_on_c, 0, 46, 44
1, 88457, Note_off_c, 0, 69, 60
1, 88466, Note_on_c, 0, 62, 52
1, 88516, Note_off_c, 0, 45, 37
1, 88649, Control_c, 0, 64, 51
1, 88664, Control_c, 0, 64, 54
1, 88678, Control_c, 0, 64, 58
1, 88690, Note_off_c, 0, 72, 56
1, 88693, Control_c, 0, 64, 61
1, 88708, Control_c, 0, 64, 64
1, 88723, Control_c, 0, 64, 66
1, 88738, Control_c, 0, 64, 68
1, 88752, Control_c, 0, 64, 72
1, 88754, Note_off_c, 0, 57, 46
1, 88767, Control_c, 0, 64, 77
1, 88782, Control_c, 0, 64, 85
1, 88797, Control_c, 0, 64, 99
1, 88812, Control_c, 0, 64, 127
1, 89020, Note_on_c, 0, 72, 67
1, 89116, Control_c, 0, 64, 91
1, 89126, Note_on_c, 0, 74, 77
1, 89131, Control_c, 0, 64, 75
1, 89139, Note_on_c, 0, 55, 49
1, 89146, Control_c, 0, 64, 66
1, 89161, Control_c, 0, 64, 61
1, 89165, Note_off_c, 0, 72, 59
1, 89176, Control_c, 0, 64, 57
1, 89190, Control_c, 0, 64, 55
1, 89205, Control_c, 0, 64, 54
1, 89280, Control_c, 0, 64, 54
1, 89683, Note_on_c, 0, 54, 50
1, 89695, Note_on_c, 0, 69, 68
1, 89712, Note_off_c, 0, 55, 60
1, 89734, Note_off_c, 0, 74, 61
1, 89806, Note_on_c, 0, 55, 49
1, 89810, Note_on_c, 0, 70, 64
1, 89834, Note_off_c, 0, 54, 55
1, 89838, Note_off_c, 0, 69, 64
1, 90377, Note_on_c, 0, 66, 45
1, 90495, Note_off_c, 0, 62, 50
1, 90513, Note_on_c, 0, 67, 47
1, 90551, Note_off_c, 0, 66, 62
1, 91013, Control_c, 0, 64, 53
1, 91083, Note_on_c, 0, 62, 47
1, 91206, Note_on_c, 0, 63, 59
1, 91214, Note_on_c, 0, 48, 51
1, 91220, Note_off_c, 0, 62, 62
1, 91238, Note_off_c, 0, 46, 64
1, 91287, Control_c, 0, 64, 54
1, 91303, Control_c, 0, 64, 55
1, 91318, Control_c, 0, 64, 56
1, 91333, Control_c, 0, 64, 57
1, 91344, Note_off_c, 0, 67, 36
1, 91348, Control_c, 0, 64, 58
1, 91363, Control_c, 0, 64, 61
1, 91377, Control_c, 0, 64, 63
1, 91392, Control_c, 0, 64, 64
1, 91407, Control_c, 0, 64, 65
1, 91421, Control_c, 0, 64, 66
1, 91436, Control_c, 0, 64, 69
1, 91451, Control_c, 0, 64, 74
1, 91459, Note_off_c, 0, 70, 58
1, 91466, Control_c, 0, 64, 79
1, 91481, Control_c, 0, 64, 86
1, 91495, Control_c, 0, 64, 95
1, 91510, Control_c, 0, 64, 106
1, 91525, Control_c, 0, 64, 127
1, 91783, Note_on_c, 0, 75, 76
1, 91808, Control_c, 0, 64, 111
1, 91809, Note_off_c, 0, 55, 35
1, 91822, Control_c, 0, 64, 100
1, 91837, Control_c, 0, 64, 87
1, 91852, Control_c, 0, 64, 76
1, 91867, Control_c, 0, 64, 67
1, 91882, Control_c, 0, 64, 63
1, 91884, Note_on_c, 0, 67, 77
1, 91886, Note_on_c, 0, 60, 48
1, 91903, Control_c, 0, 64, 61
1, 91912, Note_off_c, 0, 75, 61
1, 91918, Control_c, 0, 64, 58
1, 91933, Control_c, 0, 64, 55
1, 91948, Control_c, 0, 64, 51
1, 91963, Control_c, 0, 64, 44
1, 91978, Control_c, 0, 64, 39
1, 91992, Control_c, 0, 64, 32
1, 92007, Control_c, 0, 64, 0
1, 92459, Note_on_c, 0, 70, 60
1, 92496, Note_off_c, 0, 67, 61
1, 92570, Note_on_c, 0, 68, 69
1, 92607, Note_off_c, 0, 70, 61
1, 92712, Control_c, 0, 64, 19
1, 92726, Control_c, 0, 64, 42
1, 92741, Control_c, 0, 64, 51
1, 92756, Control_c, 0, 64, 54
1, 92771, Control_c, 0, 64, 57
1, 92786, Control_c, 0, 64, 61
1, 92800, Control_c, 0, 64, 65
1, 92815, Control_c, 0, 64, 69
1, 92830, Control_c, 0, 64, 76
1, 92845, Control_c, 0, 64, 90
1, 92853, Note_off_c, 0, 60, 63
1, 92860, Control_c, 0, 64, 127
1, 93127, Note_on_c, 0, 60, 66
1, 93187, Control_c, 0, 64, 102
1, 93202, Control_c, 0, 64, 82
1, 93217, Control_c, 0, 64, 69
1, 93223, Note_on_c, 0, 55, 72
1, 93230, Control_c, 0, 64, 61
1, 93231, Note_on_c, 0, 72, 70
1, 93245, Control_c, 0, 64, 52
1, 93257, Note_off_c, 0, 60, 62
1, 93260, Control_c, 0, 64, 39
1, 93274, Control_c, 0, 64, 26
1, 93289, Control_c, 0, 64, 0
1, 93302, Note_off_c, 0, 68, 52
1, 93379, Control_c, 0, 64, 21
1, 93401, Control_c, 0, 64, 38
1, 93416, Control_c, 0, 64, 53
1, 93430, Control_c, 0, 64, 59
1, 93445, Control_c, 0, 64, 60
1, 93460, Control_c, 0, 64, 61
1, 93474, Control_c, 0, 64, 62
1, 93489, Control_c, 0, 64, 65
1, 93504, Control_c, 0, 64, 69
1, 93519, Control_c, 0, 64, 74
1, 93534, Control_c, 0, 64, 77
1, 93537, Note_off_c, 0, 72, 62
1, 93549, Control_c, 0, 64, 81
1, 93563, Control_c, 0, 64, 89
1, 93578, Control_c, 0, 64, 102
1, 93593, Control_c, 0, 64, 127
1, 93820, Note_on_c, 0, 58, 63
1, 93861, Control_c, 0, 64, 106
1, 93876, Control_c, 0, 64, 79
1, 93884, Note_off_c, 0, 55, 64
1, 93891, Control_c, 0, 64, 65
1, 93905, Control_c, 0, 64, 51
1, 93920, Control_c, 0, 64, 29
1, 93930, Note_on_c, 0, 66, 65
1, 93935, Control_c, 0, 64, 0
1, 93936, Note_on_c, 0, 57, 63
1, 93937, Note_on_c, 0, 62, 59
1, 93953, Note_off_c, 0, 58, 63
1, 93975, Note_off_c, 0, 63, 60
1, 94223, Control_c, 0, 64, 11
1, 94238, Control_c, 0, 64, 25
1, 94253, Control_c, 0, 64, 44
1, 94268, Control_c, 0, 64, 55
1, 94283, Control_c, 0, 64, 56
1, 94297, Control_c, 0, 64, 55
1, 94312, Control_c, 0, 64, 54
1, 94342, Control_c, 0, 64, 56
1, 94446, Control_c, 0, 64, 55
1, 94461, Control_c, 0, 64, 54
1, 94476, Control_c, 0, 64, 54
1, 94485, Note_on_c, 0, 50, 70
1, 94491, Control_c, 0, 64, 52
1, 94493, Note_off_c, 0, 48, 64
1, 94506, Control_c, 0, 64, 49
1, 94520, Control_c, 0, 64, 44
1, 94535, Control_c, 0, 64, 40
1, 94550, Control_c, 0, 64, 37
1, 94565, Control_c, 0, 64, 33
1, 94577, Note_on_c, 0, 45, 80
1, 94580, Control_c, 0, 64, 28
1, 94595, Control_c, 0, 64, 24
1, 94610, Control_c, 0, 64, 23
1, 94616, Note_off_c, 0, 50, 63
1, 94669, Control_c, 0, 64, 23
1, 94684, Control_c, 0, 64, 24
1, 94699, Control_c, 0, 64, 26
1, 94713, Control_c, 0, 64, 26
1, 94728, Control_c, 0, 64, 27
1, 94743, Control_c, 0, 64, 30
1, 94758, Control_c, 0, 64, 36
1, 94773, Control_c, 0, 64, 40
1, 94787, Control_c, 0, 64, 42
1, 94802, Control_c, 0, 64, 45
1, 94817, Control_c, 0, 64, 49
1, 94832, Control_c, 0, 64, 52
1, 94846, Control_c, 0, 64, 55
1, 94861, Control_c, 0, 64, 56
1, 94876, Control_c, 0, 64, 57
1, 94899, Control_c, 0, 64, 59
1, 94914, Control_c, 0, 64, 62
1, 94928, Control_c, 0, 64, 64
1, 94943, Control_c, 0, 64, 66
1, 94958, Control_c, 0, 64, 67
1, 94973, Control_c, 0, 64, 70
1, 94988, Control_c, 0, 64, 74
1, 95002, Control_c, 0, 64, 80
1, 95017, Control_c, 0, 64, 89
1, 95032, Control_c, 0, 64, 100
1, 95046, Control_c, 0, 64, 127
1, 95127, Note_off_c, 0, 57, 55
1, 95162, Note_on_c, 0, 48, 78
1, 95254, Control_c, 0, 64, 90
1, 95257, Note_on_c, 0, 46, 83
1, 95261, Note_on_c, 0, 67, 72
1, 95262, Note_on_c, 0, 58, 74
1, 95269, Control_c, 0, 64, 68
1, 95269, Note_off_c, 0, 45, 63
1, 95283, Control_c, 0, 64, 54
1, 95287, Note_off_c, 0, 48, 65
1, 95299, Control_c, 0, 64, 31
1, 95314, Control_c, 0, 64, 0
1, 95862, Note_on_c, 0, 43, 75
1, 95912, Note_off_c, 0, 46, 62
1, 95960, Note_on_c, 0, 38, 79
1, 95987, Note_off_c, 0, 43, 64
1, 96135, Note_off_c, 0, 66, 1
1, 96329, Control_c, 0, 64, 9
1, 96358, Control_c, 0, 64, 11
1, 96395, Control_c, 0, 64, 12
1, 96410, Control_c, 0, 64, 17
1, 96425, Control_c, 0, 64, 18
1, 96499, Control_c, 0, 64, 19
1, 96514, Control_c, 0, 64, 20
1, 96544, Control_c, 0, 64, 21
1, 96559, Control_c, 0, 64, 21
1, 96565, Note_on_c, 0, 41, 75
1, 96568, Note_off_c, 0, 58, 60
1, 96573, Control_c, 0, 64, 22
1, 96603, Control_c, 0, 64, 23
1, 96633, Control_c, 0, 64, 24
1, 96640, Note_off_c, 0, 38, 60
1, 96647, Control_c, 0, 64, 24
1, 96662, Control_c, 0, 64, 25
1, 96677, Note_on_c, 0, 39, 75
1, 96691, Control_c, 0, 64, 25
1, 96705, Note_off_c, 0, 41, 63
1, 96706, Control_c, 0, 64, 26
1, 96721, Control_c, 0, 64, 28
1, 96736, Control_c, 0, 64, 30
1, 96751, Control_c, 0, 64, 31
1, 96765, Control_c, 0, 64, 32
1, 96780, Control_c, 0, 64, 33
1, 96795, Control_c, 0, 64, 34
1, 96810, Control_c, 0, 64, 36
1, 96825, Control_c, 0, 64, 38
1, 96839, Control_c, 0, 64, 42
1, 96854, Control_c, 0, 64, 46
1, 96869, Control_c, 0, 64, 49
1, 96882, Note_off_c, 0, 67, 62
1, 96884, Control_c, 0, 64, 51
1, 96900, Control_c, 0, 64, 55
1, 96914, Control_c, 0, 64, 60
1, 96929, Control_c, 0, 64, 63
1, 96944, Control_c, 0, 64, 65
1, 96959, Control_c, 0, 64, 66
1, 96974, Control_c, 0, 64, 67
1, 96988, Control_c, 0, 64, 68
1, 97003, Control_c, 0, 64, 70
1, 97018, Control_c, 0, 64, 74
1, 97033, Control_c, 0, 64, 76
1, 97048, Control_c, 0, 64, 77
1, 97063, Control_c, 0, 64, 78
1, 97078, Control_c, 0, 64, 78
1, 97093, Control_c, 0, 64, 80
1, 97107, Control_c, 0, 64, 81
1, 97263, Control_c, 0, 64, 81
1, 97307, Control_c, 0, 64, 80
1, 97329, Note_on_c, 0, 66, 71
1, 97337, Control_c, 0, 64, 80
1, 97382, Control_c, 0, 64, 79
1, 97396, Control_c, 0, 64, 76
1, 97411, Control_c, 0, 64, 72
1, 97426, Control_c, 0, 64, 67
1, 97430, Note_on_c, 0, 51, 74
1, 97433, Note_on_c, 0, 67, 75
1, 97440, Control_c, 0, 64, 64
1, 97455, Control_c, 0, 64, 60
1, 97470, Control_c, 0, 64, 58
1, 97485, Control_c, 0, 64, 54
1, 97500, Control_c, 0, 64, 50
1, 97506, Note_off_c, 0, 39, 60
1, 97514, Control_c, 0, 64, 44
1, 97529, Control_c, 0, 64, 41
1, 97544, Control_c, 0, 64, 40
1, 97558, Note_off_c, 0, 66, 29
1, 97588, Control_c, 0, 64, 40
1, 97647, Control_c, 0, 64, 41
1, 97662, Control_c, 0, 64, 42
1, 98002, Note_on_c, 0, 70, 67
1, 98010, Note_off_c, 0, 62, 62
1, 98014, Note_on_c, 0, 50, 64
1, 98034, Note_off_c, 0, 51, 63
1, 98046, Note_off_c, 0, 67, 61
1, 98124, Note_on_c, 0, 61, 75
1, 98133, Note_on_c, 0, 51, 61
1, 98146, Note_off_c, 0, 50, 56
1, 98205, Control_c, 0, 64, 42
1, 98234, Control_c, 0, 64, 43
1, 98278, Control_c, 0, 64, 43
1, 98288, Note_off_c, 0, 70, 60
1, 98293, Control_c, 0, 64, 44
1, 98352, Control_c, 0, 64, 45
1, 98411, Control_c, 0, 64, 45
1, 98731, Note_on_c, 0, 70, 77
1, 98747, Note_on_c, 0, 54, 55
1, 98842, Note_on_c, 0, 69, 80
1, 98843, Note_on_c, 0, 52, 54
1, 98848, Note_on_c, 0, 55, 61
1, 98883, Note_off_c, 0, 70, 57
1, 98912, Note_off_c, 0, 51, 60
1, 98917, Note_off_c, 0, 54, 54
1, 98998, Control_c, 0, 64, 46
1, 99013, Control_c, 0, 64, 47
1, 99027, Control_c, 0, 64, 49
1, 99042, Control_c, 0, 64, 52
1, 99057, Control_c, 0, 64, 54
1, 99072, Control_c, 0, 64, 56
1, 99086, Control_c, 0, 64, 58
1, 99101, Control_c, 0, 64, 60
1, 99116, Control_c, 0, 64, 62
1, 99131, Control_c, 0, 64, 63
1, 99146, Control_c, 0, 64, 64
1, 99160, Control_c, 0, 64, 65
1, 99175, Control_c, 0, 64, 66
1, 99190, Control_c, 0, 64, 68
1, 99205, Control_c, 0, 64, 71
1, 99221, Control_c, 0, 64, 74
1, 99235, Control_c, 0, 64, 76
1, 99250, Control_c, 0, 64, 78
1, 99265, Control_c, 0, 64, 81
1, 99281, Control_c, 0, 64, 85
1, 99296, Control_c, 0, 64, 91
1, 99310, Control_c, 0, 64, 98
1, 99325, Control_c, 0, 64, 115
1, 99340, Control_c, 0, 64, 127
1, 99423, Note_on_c, 0, 57, 59
1, 99427, Note_off_c, 0, 55, 65
1, 99433, Note_on_c, 0, 67, 75
1, 99460, Note_off_c, 0, 61, 57
1, 99492, Note_off_c, 0, 69, 54
1, 99570, Note_on_c, 0, 50, 50
1, 99570, Control_c, 0, 64, 84
1, 99577, Note_off_c, 0, 57, 52
1, 99581, Note_on_c, 0, 62, 61
1, 99582, Note_on_c, 0, 66, 71
1, 99583, Note_on_c, 0, 58, 62
1, 99585, Control_c, 0, 64, 66
1, 99592, Note_off_c, 0, 52, 60
1, 99599, Control_c, 0, 64, 51
1, 99614, Control_c, 0, 64, 34
1, 99615, Note_off_c, 0, 67, 61
1, 99629, Control_c, 0, 64, 16
1, 99644, Control_c, 0, 64, 0
1, 99762, Control_c, 0, 64, 9
1, 99777, Control_c, 0, 64, 12
1, 99791, Control_c, 0, 64, 13
1, 99806, Control_c, 0, 64, 16
1, 99821, Control_c, 0, 64, 19
1, 99836, Control_c, 0, 64, 21
1, 99895, Control_c, 0, 64, 21
1, 99910, Control_c, 0, 64, 23
1, 99925, Control_c, 0, 64, 24
1, 99940, Control_c, 0, 64, 24
1, 99969, Control_c, 0, 64, 25
1, 100027, Control_c, 0, 64, 25
1, 100088, Control_c, 0, 64, 26
1, 100103, Control_c, 0, 64, 26
1, 100152, Note_on_c, 0, 61, 61
1, 100169, Control_c, 0, 64, 27
1, 100193, Note_off_c, 0, 62, 49
1, 100274, Note_on_c, 0, 62, 51
1, 100288, Control_c, 0, 64, 26
1, 100296, Note_off_c, 0, 61, 55
1, 100318, Control_c, 0, 64, 26
1, 100339, Note_off_c, 0, 66, 62
1, 100347, Control_c, 0, 64, 24
1, 100362, Control_c, 0, 64, 23
1, 100421, Control_c, 0, 64, 22
1, 100436, Control_c, 0, 64, 21
1, 100510, Control_c, 0, 64, 21
1, 100597, Note_on_c, 0, 66, 70
1, 100956, Note_on_c, 0, 67, 59
1, 100983, Note_off_c, 0, 66, 38
1, 101022, Control_c, 0, 64, 21
1, 101081, Control_c, 0, 64, 23
1, 101096, Control_c, 0, 64, 26
1, 101111, Control_c, 0, 64, 31
1, 101126, Control_c, 0, 64, 36
1, 101141, Control_c, 0, 64, 43
1, 101155, Control_c, 0, 64, 50
1, 101170, Control_c, 0, 64, 56
1, 101185, Control_c, 0, 64, 61
1, 101200, Control_c, 0, 64, 62
1, 101215, Control_c, 0, 64, 63
1, 101229, Control_c, 0, 64, 65
1, 101244, Control_c, 0, 64, 68
1, 101259, Control_c, 0, 64, 72
1, 101274, Control_c, 0, 64, 75
1, 101278, Note_off_c, 0, 58, 63
1, 101288, Control_c, 0, 64, 76
1, 101303, Control_c, 0, 64, 79
1, 101318, Control_c, 0, 64, 81
1, 101322, Note_off_c, 0, 62, 39
1, 101333, Control_c, 0, 64, 81
1, 101348, Control_c, 0, 64, 82
1, 101362, Control_c, 0, 64, 83
1, 101377, Control_c, 0, 64, 88
1, 101392, Control_c, 0, 64, 93
1, 101407, Control_c, 0, 64, 94
1, 101436, Control_c, 0, 64, 95
1, 101451, Control_c, 0, 64, 99
1, 101466, Control_c, 0, 64, 104
1, 101481, Control_c, 0, 64, 107
1, 101496, Control_c, 0, 64, 123
1, 101507, Note_on_c, 0, 58, 64
1, 101511, Control_c, 0, 64, 127
1, 101522, Note_on_c, 0, 61, 52
1, 101555, Control_c, 0, 64, 100
1, 101570, Control_c, 0, 64, 85
1, 101585, Control_c, 0, 64, 77
1, 101600, Control_c, 0, 64, 72
1, 101609, Note_off_c, 0, 58, 59
1, 101612, Note_on_c, 0, 57, 64
1, 101615, Control_c, 0, 64, 67
1, 101617, Note_on_c, 0, 62, 47
1, 101636, Control_c, 0, 64, 63
1, 101651, Control_c, 0, 64, 60
1, 101666, Note_off_c, 0, 61, 38
1, 101666, Control_c, 0, 64, 57
1, 101681, Control_c, 0, 64, 55
1, 101697, Control_c, 0, 64, 53
1, 101711, Control_c, 0, 64, 50
1, 101726, Control_c, 0, 64, 46
1, 101741, Control_c, 0, 64, 42
1, 101756, Control_c, 0, 64, 40
1, 101771, Control_c, 0, 64, 40
1, 101815, Control_c, 0, 64, 39
1, 102053, Control_c, 0, 64, 40
1, 102185, Control_c, 0, 64, 41
1, 102200, Note_off_c, 0, 57, 62
1, 102205, Note_on_c, 0, 55, 51
1, 102259, Control_c, 0, 64, 42
1, 102303, Control_c, 0, 64, 42
1, 102318, Control_c, 0, 64, 43
1, 102324, Note_on_c, 0, 57, 56
1, 102333, Control_c, 0, 64, 44
1, 102339, Note_off_c, 0, 55, 53
1, 102400, Control_c, 0, 64, 46
1, 102415, Control_c, 0, 64, 49
1, 102430, Control_c, 0, 64, 50
1, 102445, Control_c, 0, 64, 50
1, 102459, Control_c, 0, 64, 51
1, 102474, Control_c, 0, 64, 55
1, 102490, Control_c, 0, 64, 60
1, 102505, Control_c, 0, 64, 63
1, 102520, Control_c, 0, 64, 64
1, 102534, Control_c, 0, 64, 66
1, 102549, Control_c, 0, 64, 68
1, 102564, Control_c, 0, 64, 70
1, 102579, Control_c, 0, 64, 73
1, 102594, Control_c, 0, 64, 76
1, 102608, Control_c, 0, 64, 79
1, 102623, Control_c, 0, 64, 85
1, 102638, Control_c, 0, 64, 93
1, 102653, Control_c, 0, 64, 106
1, 102668, Control_c, 0, 64, 127
1, 102821, Note_off_c, 0, 62, 20
1, 102918, Note_on_c, 0, 70, 65
1, 102935, Note_off_c, 0, 67, 48
1, 103009, Control_c, 0, 64, 87
1, 103018, Note_on_c, 0, 69, 72
1, 103024, Control_c, 0, 64, 71
1, 103039, Control_c, 0, 64, 63
1, 103042, Note_on_c, 0, 60, 50
1, 103054, Control_c, 0, 64, 59
1, 103069, Control_c, 0, 64, 56
1, 103083, Control_c, 0, 64, 54
1, 103098, Control_c, 0, 64, 51
1, 103113, Control_c, 0, 64, 49
1, 103135, Control_c, 0, 64, 47
1, 103150, Control_c, 0, 64, 46
1, 103152, Note_off_c, 0, 70, 31
1, 103165, Control_c, 0, 64, 44
1, 103180, Control_c, 0, 64, 42
1, 103195, Control_c, 0, 64, 38
1, 103209, Control_c, 0, 64, 36
1, 103447, Control_c, 0, 64, 37
1, 103597, Note_on_c, 0, 72, 67
1, 103610, Control_c, 0, 64, 37
1, 103710, Note_on_c, 0, 66, 71
1, 103728, Note_off_c, 0, 72, 63
1, 103734, Note_off_c, 0, 69, 60
1, 103787, Control_c, 0, 64, 38
1, 103846, Control_c, 0, 64, 38
1, 103943, Control_c, 0, 64, 39
1, 103972, Control_c, 0, 64, 39
1, 104330, Note_on_c, 0, 63, 54
1, 104446, Note_off_c, 0, 60, 55
1, 104451, Note_on_c, 0, 62, 50
1, 104477, Control_c, 0, 64, 38
1, 104486, Note_off_c, 0, 63, 50
1, 104491, Control_c, 0, 64, 38
1, 104506, Control_c, 0, 64, 37
1, 104521, Control_c, 0, 64, 36
1, 104536, Control_c, 0, 64, 34
1, 104551, Control_c, 0, 64, 33
1, 104595, Control_c, 0, 64, 34
1, 104610, Control_c, 0, 64, 39
1, 104632, Control_c, 0, 64, 46
1, 104647, Control_c, 0, 64, 51
1, 104661, Control_c, 0, 64, 55
1, 104676, Control_c, 0, 64, 57
1, 104691, Control_c, 0, 64, 59
1, 104706, Control_c, 0, 64, 61
1, 104721, Control_c, 0, 64, 63
1, 104736, Control_c, 0, 64, 65
1, 104751, Control_c, 0, 64, 67
1, 104766, Control_c, 0, 64, 69
1, 104780, Control_c, 0, 64, 72
1, 104795, Control_c, 0, 64, 74
1, 104810, Control_c, 0, 64, 77
1, 104825, Control_c, 0, 64, 80
1, 104840, Control_c, 0, 64, 82
1, 104854, Control_c, 0, 64, 84
1, 104869, Control_c, 0, 64, 86
1, 104885, Control_c, 0, 64, 90
1, 104900, Control_c, 0, 64, 96
1, 104915, Control_c, 0, 64, 107
1, 104929, Control_c, 0, 64, 127
1, 104936, Note_off_c, 0, 57, 37
1, 105115, Note_on_c, 0, 60, 45
1, 105181, Control_c, 0, 64, 110
1, 105196, Control_c, 0, 64, 102
1, 105210, Control_c, 0, 64, 98
1, 105225, Control_c, 0, 64, 91
1, 105240, Control_c, 0, 64, 82
1, 105255, Control_c, 0, 64, 75
1, 105264, Note_off_c, 0, 62, 37
1, 105270, Control_c, 0, 64, 68
1, 105273, Note_on_c, 0, 43, 34
1, 105276, Note_on_c, 0, 67, 49
1, 105284, Control_c, 0, 64, 64
1, 105289, Note_on_c, 0, 55, 32
1, 105299, Control_c, 0, 64, 61
1, 105314, Control_c, 0, 64, 57
1, 105329, Control_c, 0, 64, 53
1, 105332, Note_off_c, 0, 66, 55
1, 105344, Control_c, 0, 64, 51
1, 105357, Note_off_c, 0, 50, 35
1, 105359, Control_c, 0, 64, 50
1, 105410, Control_c, 0, 64, 49
1, 105455, Control_c, 0, 64, 50
1, 105470, Control_c, 0, 64, 51
1, 105514, Control_c, 0, 64, 51
1, 105529, Control_c, 0, 64, 52
1, 105752, Control_c, 0, 64, 52
1, 105877, Note_on_c, 0, 57, 56
1, 105894, Note_off_c, 0, 60, 64
1, 106021, Note_on_c, 0, 59, 60
1, 106063, Control_c, 0, 64, 53
1, 106107, Note_off_c, 0, 57, 57
1, 106145, Control_c, 0, 64, 53
1, 106187, Note_off_c, 0, 67, 52
1, 106352, Note_on_c, 0, 65, 58
1, 106352, Control_c, 0, 64, 53
1, 106381, Control_c, 0, 64, 52
1, 106724, Note_on_c, 0, 63, 49
1, 106754, Control_c, 0, 64, 53
1, 106768, Control_c, 0, 64, 53
1, 106771, Note_off_c, 0, 65, 54
1, 106783, Control_c, 0, 64, 54
1, 106798, Control_c, 0, 64, 56
1, 106813, Control_c, 0, 64, 57
1, 106828, Control_c, 0, 64, 57
1, 106843, Control_c, 0, 64, 58
1, 106857, Control_c, 0, 64, 59
1, 106879, Control_c, 0, 64, 61
1, 106894, Control_c, 0, 64, 63
1, 106909, Control_c, 0, 64, 64
1, 106924, Control_c, 0, 64, 64
1, 106939, Control_c, 0, 64, 65
1, 106954, Control_c, 0, 64, 66
1, 106969, Control_c, 0, 64, 68
1, 106983, Control_c, 0, 64, 71
1, 106998, Control_c, 0, 64, 73
1, 107013, Control_c, 0, 64, 74
1, 107028, Control_c, 0, 64, 76
1, 107043, Control_c, 0, 64, 78
1, 107057, Control_c, 0, 64, 80
1, 107072, Control_c, 0, 64, 81
1, 107087, Control_c, 0, 64, 81
1, 107101, Control_c, 0, 64, 82
1, 107116, Control_c, 0, 64, 85
1, 107119, Note_off_c, 0, 59, 60
1, 107131, Control_c, 0, 64, 89
1, 107146, Control_c, 0, 64, 93
1, 107161, Control_c, 0, 64, 95
1, 107175, Control_c, 0, 64, 96
1, 107205, Control_c, 0, 64, 96
1, 107235, Control_c, 0, 64, 97
1, 107280, Control_c, 0, 64, 96
1, 107295, Control_c, 0, 64, 94
1, 107305, Note_on_c, 0, 59, 57
1, 107307, Note_on_c, 0, 54, 54
1, 107310, Control_c, 0, 64, 92
1, 107325, Control_c, 0, 64, 91
1, 107340, Control_c, 0, 64, 90
1, 107354, Control_c, 0, 64, 89
1, 107369, Control_c, 0, 64, 85
1, 107384, Control_c, 0, 64, 78
1, 107389, Note_off_c, 0, 55, 46
1, 107398, Control_c, 0, 64, 72
1, 107413, Control_c, 0, 64, 67
1, 107428, Control_c, 0, 64, 64
1, 107443, Control_c, 0, 64, 63
1, 107457, Control_c, 0, 64, 62
1, 107457, Note_on_c, 0, 60, 51
1, 107469, Note_on_c, 0, 55, 48
1, 107471, Control_c, 0, 64, 61
1, 107486, Control_c, 0, 64, 61
1, 107496, Note_off_c, 0, 59, 52
1, 107522, Note_off_c, 0, 54, 34
1, 107530, Control_c, 0, 64, 60
1, 107545, Control_c, 0, 64, 60
1, 107586, Note_off_c, 0, 63, 53
1, 107627, Control_c, 0, 64, 59
1, 107826, Note_on_c, 0, 63, 52
1, 108131, Control_c, 0, 64, 60
1, 108146, Control_c, 0, 64, 60
1, 108161, Control_c, 0, 64, 61
1, 108176, Note_on_c, 0, 62, 43
1, 108176, Control_c, 0, 64, 63
1, 108191, Control_c, 0, 64, 64
1, 108206, Control_c, 0, 64, 65
1, 108220, Control_c, 0, 64, 66
1, 108229, Note_off_c, 0, 63, 36
1, 108235, Control_c, 0, 64, 68
1, 108250, Control_c, 0, 64, 70
1, 108265, Control_c, 0, 64, 72
1, 108280, Control_c, 0, 64, 75
1, 108294, Control_c, 0, 64, 79
1, 108309, Control_c, 0, 64, 82
1, 108324, Control_c, 0, 64, 85
1, 108338, Control_c, 0, 64, 88
1, 108353, Control_c, 0, 64, 92
1, 108376, Control_c, 0, 64, 97
1, 108390, Control_c, 0, 64, 101
1, 108405, Control_c, 0, 64, 104
1, 108420, Control_c, 0, 64, 108
1, 108435, Control_c, 0, 64, 114
1, 108450, Control_c, 0, 64, 127
1, 108502, Note_off_c, 0, 60, 36
1, 108687, Control_c, 0, 64, 106
1, 108701, Control_c, 0, 64, 82
1, 108712, Note_on_c, 0, 60, 52
1, 108716, Control_c, 0, 64, 69
1, 108731, Control_c, 0, 64, 63
1, 108745, Note_off_c, 0, 62, 58
1, 108745, Control_c, 0, 64, 63
1, 108760, Control_c, 0, 64, 64
1, 108775, Control_c, 0, 64, 65
1, 108790, Control_c, 0, 64, 68
1, 108805, Control_c, 0, 64, 73
1, 108820, Control_c, 0, 64, 80
1, 108835, Control_c, 0, 64, 85
1, 108837, Note_off_c, 0, 60, 64
1, 108850, Control_c, 0, 64, 88
1, 108855, Note_on_c, 0, 59, 51
1, 108864, Control_c, 0, 64, 89
1, 108880, Control_c, 0, 64, 90
1, 108895, Control_c, 0, 64, 91
1, 108910, Control_c, 0, 64, 94
1, 108924, Control_c, 0, 64, 98
1, 108939, Control_c, 0, 64, 101
1, 108954, Control_c, 0, 64, 103
1, 108968, Note_off_c, 0, 55, 47
1, 108969, Control_c, 0, 64, 105
1, 108984, Control_c, 0, 64, 107
1, 108999, Control_c, 0, 64, 109
1, 109013, Control_c, 0, 64, 110
1, 109058, Control_c, 0, 64, 110
1, 109073, Control_c, 0, 64, 111
1, 109088, Control_c, 0, 64, 112
1, 109154, Control_c, 0, 64, 113
1, 109169, Control_c, 0, 64, 113
1, 109198, Control_c, 0, 64, 114
1, 109200, Note_on_c, 0, 53, 62
1, 109206, Note_on_c, 0, 67, 69
1, 109216, Note_off_c, 0, 59, 58
1, 109228, Control_c, 0, 64, 115
1, 109330, Note_on_c, 0, 51, 77
1, 109362, Control_c, 0, 64, 114
1, 109376, Control_c, 0, 64, 110
1, 109386, Note_off_c, 0, 53, 48
1, 109391, Control_c, 0, 64, 104
1, 109406, Control_c, 0, 64, 100
1, 109421, Control_c, 0, 64, 96
1, 109436, Control_c, 0, 64, 92
1, 109450, Control_c, 0, 64, 85
1, 109465, Control_c, 0, 64, 79
1, 109480, Control_c, 0, 64, 73
1, 109494, Control_c, 0, 64, 70
1, 109509, Control_c, 0, 64, 68
1, 109523, Note_on_c, 0, 50, 55
1, 109524, Control_c, 0, 64, 66
1, 109530, Note_on_c, 0, 77, 77
1, 109539, Control_c, 0, 64, 63
1, 109554, Control_c, 0, 64, 61
1, 109559, Note_off_c, 0, 51, 64
1, 109568, Control_c, 0, 64, 59
1, 109583, Control_c, 0, 64, 57
1, 109594, Note_off_c, 0, 67, 59
1, 109598, Control_c, 0, 64, 54
1, 109613, Control_c, 0, 64, 50
1, 109628, Control_c, 0, 64, 46
1, 109642, Control_c, 0, 64, 46
1, 109673, Control_c, 0, 64, 47
1, 109688, Control_c, 0, 64, 50
1, 109703, Control_c, 0, 64, 54
1, 109718, Control_c, 0, 64, 58
1, 109733, Control_c, 0, 64, 61
1, 109747, Control_c, 0, 64, 64
1, 109762, Control_c, 0, 64, 66
1, 109777, Control_c, 0, 64, 68
1, 109786, Note_off_c, 0, 43, 58
1, 109791, Control_c, 0, 64, 72
1, 109806, Control_c, 0, 64, 76
1, 109821, Control_c, 0, 64, 82
1, 109836, Control_c, 0, 64, 92
1, 109851, Control_c, 0, 64, 113
1, 109873, Control_c, 0, 64, 127
1, 110081, Note_on_c, 0, 43, 44
1, 110084, Note_on_c, 0, 72, 59
1, 110192, Note_off_c, 0, 72, 63
1, 110199, Control_c, 0, 64, 87
1, 110209, Note_off_c, 0, 50, 60
1, 110213, Note_on_c, 0, 71, 61
1, 110214, Control_c, 0, 64, 68
1, 110218, Note_on_c, 0, 55, 57
1, 110229, Control_c, 0, 64, 60
1, 110244, Control_c, 0, 64, 53
1, 110259, Control_c, 0, 64, 49
1, 110273, Control_c, 0, 64, 46
1, 110288, Control_c, 0, 64, 45
1, 110303, Control_c, 0, 64, 44
1, 110332, Control_c, 0, 64, 43
1, 110347, Control_c, 0, 64, 42
1, 110362, Control_c, 0, 64, 41
1, 110511, Control_c, 0, 64, 42
1, 110526, Control_c, 0, 64, 42
1, 110574, Note_on_c, 0, 74, 69
1, 110585, Control_c, 0, 64, 43
1, 110600, Control_c, 0, 64, 43
1, 110656, Note_off_c, 0, 77, 59
1, 110667, Control_c, 0, 64, 44
1, 110682, Control_c, 0, 64, 45
1, 110741, Control_c, 0, 64, 45
1, 110800, Control_c, 0, 64, 46
1, 110815, Control_c, 0, 64, 46
1, 110829, Control_c, 0, 64, 47
1, 110889, Control_c, 0, 64, 47
1, 110906, Note_on_c, 0, 75, 67
1, 110948, Control_c, 0, 64, 49
1, 110960, Note_off_c, 0, 74, 60
1, 110963, Control_c, 0, 64, 49
1, 110978, Control_c, 0, 64, 50
1, 111008, Control_c, 0, 64, 51
1, 111022, Control_c, 0, 64, 53
1, 111037, Control_c, 0, 64, 54
1, 111067, Control_c, 0, 64, 54
1, 111082, Control_c, 0, 64, 57
1, 111096, Control_c, 0, 64, 60
1, 111111, Control_c, 0, 64, 63
1, 111140, Control_c, 0, 64, 63
1, 111155, Control_c, 0, 64, 65
1, 111170, Control_c, 0, 64, 68
1, 111185, Control_c, 0, 64, 75
1, 111200, Control_c, 0, 64, 85
1, 111214, Control_c, 0, 64, 102
1, 111229, Control_c, 0, 64, 127
1, 111239, Note_off_c, 0, 55, 60
1, 111354, Note_off_c, 0, 71, 59
1, 111464, Note_on_c, 0, 53, 47
1, 111483, Note_on_c, 0, 67, 56
1, 111564, Control_c, 0, 64, 97
1, 111578, Control_c, 0, 64, 77
1, 111593, Control_c, 0, 64, 66
1, 111608, Control_c, 0, 64, 60
1, 111617, Note_on_c, 0, 51, 51
1, 111622, Note_on_c, 0, 72, 64
1, 111623, Control_c, 0, 64, 59
1, 111638, Control_c, 0, 64, 57
1, 111650, Note_off_c, 0, 53, 60
1, 111652, Note_off_c, 0, 67, 56
1, 111652, Control_c, 0, 64, 56
1, 111667, Control_c, 0, 64, 53
1, 111682, Control_c, 0, 64, 49
1, 111697, Control_c, 0, 64, 47
1, 111712, Control_c, 0, 64, 46
1, 111726, Control_c, 0, 64, 46
1, 111741, Control_c, 0, 64, 44
1, 111756, Control_c, 0, 64, 40
1, 111771, Control_c, 0, 64, 38
1, 111786, Control_c, 0, 64, 38
1, 111801, Control_c, 0, 64, 36
1, 111814, Note_off_c, 0, 75, 57
1, 111816, Control_c, 0, 64, 29
1, 111830, Control_c, 0, 64, 0
1, 111971, Note_on_c, 0, 74, 65
1, 112155, Note_on_c, 0, 55, 45
1, 112193, Note_off_c, 0, 51, 58
1, 112398, Note_on_c, 0, 75, 55
1, 112415, Note_on_c, 0, 48, 36
1, 112417, Note_off_c, 0, 74, 57
1, 112461, Note_off_c, 0, 55, 38
1, 112653, Control_c, 0, 64, 32
1, 112668, Control_c, 0, 64, 53
1, 112683, Control_c, 0, 64, 57
1, 112713, Control_c, 0, 64, 59
1, 112728, Control_c, 0, 64, 65
1, 112733, Note_off_c, 0, 72, 63
1, 112742, Control_c, 0, 64, 72
1, 112757, Control_c, 0, 64, 80
1, 112772, Control_c, 0, 64, 82
1, 112786, Control_c, 0, 64, 84
1, 112801, Control_c, 0, 64, 97
1, 112816, Control_c, 0, 64, 127
1, 113069, Note_on_c, 0, 51, 47
1, 113084, Note_on_c, 0, 72, 58
1, 113102, Note_off_c, 0, 75, 47
1, 113141, Note_off_c, 0, 51, 61
1, 113166, Note_on_c, 0, 50, 33
1, 113224, Control_c, 0, 64, 97
1, 113239, Control_c, 0, 64, 77
1, 113254, Control_c, 0, 64, 65
1, 113269, Control_c, 0, 64, 58
1, 113274, Note_on_c, 0, 51, 55
1, 113284, Note_on_c, 0, 79, 55
1, 113284, Control_c, 0, 64, 50
1, 113288, Note_off_c, 0, 50, 43
1, 113298, Control_c, 0, 64, 43
1, 113313, Control_c, 0, 64, 27
1, 113328, Control_c, 0, 64, 0
1, 113980, Note_on_c, 0, 78, 44
1, 114008, Note_off_c, 0, 79, 60
1, 114209, Note_on_c, 0, 79, 52
1, 114214, Note_off_c, 0, 78, 53
1, 114218, Note_on_c, 0, 50, 37
1, 114256, Note_off_c, 0, 48, 40
1, 114278, Note_off_c, 0, 51, 33
1, 114470, Control_c, 0, 64, 37
1, 114485, Control_c, 0, 64, 51
1, 114500, Control_c, 0, 64, 51
1, 114530, Control_c, 0, 64, 53
1, 114544, Control_c, 0, 64, 58
1, 114559, Control_c, 0, 64, 62
1, 114574, Control_c, 0, 64, 63
1, 114588, Control_c, 0, 64, 64
1, 114603, Control_c, 0, 64, 66
1, 114618, Control_c, 0, 64, 69
1, 114629, Note_off_c, 0, 72, 60
1, 114633, Control_c, 0, 64, 74
1, 114648, Control_c, 0, 64, 80
1, 114662, Control_c, 0, 64, 85
1, 114677, Control_c, 0, 64, 90
1, 114692, Control_c, 0, 64, 101
1, 114707, Control_c, 0, 64, 127
1, 115017, Note_on_c, 0, 72, 38
1, 115218, Control_c, 0, 64, 107
1, 115233, Control_c, 0, 64, 95
1, 115248, Control_c, 0, 64, 86
1, 115263, Note_on_c, 0, 74, 42
1, 115264, Control_c, 0, 64, 80
1, 115279, Control_c, 0, 64, 73
1, 115293, Control_c, 0, 64, 67
1, 115308, Control_c, 0, 64, 63
1, 115318, Note_off_c, 0, 72, 37
1, 115323, Control_c, 0, 64, 60
1, 115338, Control_c, 0, 64, 55
1, 115353, Control_c, 0, 64, 51
1, 115367, Control_c, 0, 64, 47
1, 115382, Control_c, 0, 64, 45
1, 115397, Control_c, 0, 64, 45
1, 115441, Control_c, 0, 64, 45
1, 115456, Control_c, 0, 64, 48
1, 115471, Control_c, 0, 64, 52
1, 115485, Control_c, 0, 64, 55
1, 115500, Control_c, 0, 64, 56
1, 115530, Control_c, 0, 64, 58
1, 115545, Control_c, 0, 64, 62
1, 115560, Control_c, 0, 64, 63
1, 115604, Control_c, 0, 64, 65
1, 115619, Control_c, 0, 64, 68
1, 115634, Control_c, 0, 64, 71
1, 115649, Control_c, 0, 64, 72
1, 115679, Control_c, 0, 64, 74
1, 115693, Control_c, 0, 64, 77
1, 115708, Control_c, 0, 64, 84
1, 115723, Control_c, 0, 64, 91
1, 115738, Control_c, 0, 64, 96
1, 115753, Control_c, 0, 64, 101
1, 115767, Control_c, 0, 64, 111
1, 115782, Control_c, 0, 64, 127
1, 116239, Note_on_c, 0, 69, 40
1, 116660, Note_on_c, 0, 71, 33
1, 116731, Control_c, 0, 64, 99
1, 116746, Control_c, 0, 64, 74
1, 116760, Control_c, 0, 64, 64
1, 116765, Note_off_c, 0, 69, 36
1, 116775, Control_c, 0, 64, 60
1, 116790, Control_c, 0, 64, 56
1, 116805, Control_c, 0, 64, 52
1, 116820, Control_c, 0, 64, 50
1, 116849, Control_c, 0, 64, 51
1, 116865, Control_c, 0, 64, 53
1, 116880, Control_c, 0, 64, 54
1, 116895, Control_c, 0, 64, 55
1, 116910, Control_c, 0, 64, 56
1, 116925, Control_c, 0, 64, 59
1, 116939, Control_c, 0, 64, 59
1, 116998, Control_c, 0, 64, 61
1, 117013, Control_c, 0, 64, 61
1, 117057, Control_c, 0, 64, 62
1, 117072, Control_c, 0, 64, 63
1, 117087, Control_c, 0, 64, 63
1, 117131, Control_c, 0, 64, 64
1, 117146, Control_c, 0, 64, 64
1, 117161, Control_c, 0, 64, 65
1, 117176, Control_c, 0, 64, 65
1, 117220, Control_c, 0, 64, 66
1, 117235, Control_c, 0, 64, 67
1, 117250, Control_c, 0, 64, 67
1, 117280, Control_c, 0, 64, 68
1, 117324, Control_c, 0, 64, 69
1, 117339, Control_c, 0, 64, 69
1, 117361, Control_c, 0, 64, 70
1, 117405, Control_c, 0, 64, 70
1, 117420, Control_c, 0, 64, 71
1, 117435, Control_c, 0, 64, 71
1, 117464, Control_c, 0, 64, 72
1, 117479, Control_c, 0, 64, 73
1, 117494, Control_c, 0, 64, 74
1, 117569, Control_c, 0, 64, 75
1, 117583, Control_c, 0, 64, 75
1, 117598, Control_c, 0, 64, 76
1, 117613, Control_c, 0, 64, 76
1, 117643, Control_c, 0, 64, 77
1, 117673, Control_c, 0, 64, 78
1, 117748, Control_c, 0, 64, 79
1, 117762, Control_c, 0, 64, 80
1, 117777, Control_c, 0, 64, 82
1, 117792, Control_c, 0, 64, 83
1, 117851, Control_c, 0, 64, 84
1, 117866, Control_c, 0, 64, 86
1, 117880, Control_c, 0, 64, 87
1, 117925, Control_c, 0, 64, 88
1, 117939, Control_c, 0, 64, 88
1, 117998, Control_c, 0, 64, 89
1, 118013, Control_c, 0, 64, 89
1, 118058, Control_c, 0, 64, 90
1, 118072, Control_c, 0, 64, 91
1, 118087, Control_c, 0, 64, 93
1, 118109, Control_c, 0, 64, 93
1, 118154, Control_c, 0, 64, 94
1, 118168, Control_c, 0, 64, 95
1, 118227, Control_c, 0, 64, 95
1, 118287, Control_c, 0, 64, 97
1, 118302, Control_c, 0, 64, 99
1, 118317, Control_c, 0, 64, 100
1, 118332, Control_c, 0, 64, 101
1, 118347, Control_c, 0, 64, 100
1, 118466, Control_c, 0, 64, 101
1, 118599, Control_c, 0, 64, 102
1, 118614, Control_c, 0, 64, 104
1, 118702, Control_c, 0, 64, 104
1, 119184, Control_c, 0, 64, 105
1, 119289, Control_c, 0, 64, 104
1, 119304, Control_c, 0, 64, 104
1, 119363, Control_c, 0, 64, 103
1, 119378, Control_c, 0, 64, 101
1, 119393, Control_c, 0, 64, 99
1, 119451, Control_c, 0, 64, 97
1, 119466, Control_c, 0, 64, 95
1, 119481, Control_c, 0, 64, 95
1, 119496, Control_c, 0, 64, 95
1, 119517, Note_off_c, 0, 74, 21
1, 119525, Control_c, 0, 64, 94
1, 119540, Control_c, 0, 64, 94
1, 119555, Control_c, 0, 64, 93
1, 119585, Control_c, 0, 64, 92
1, 119607, Control_c, 0, 64, 91
1, 119616, Note_off_c, 0, 71, 24
1, 119621, Note_off_c, 0, 79, 14
1, 119622, Control_c, 0, 64, 90
1, 119643, Note_off_c, 0, 43, 30
1, 119651, Note_off_c, 0, 50, 31
1, 119651, Control_c, 0, 64, 89
1, 119666, Control_c, 0, 64, 88
1, 119681, Control_c, 0, 64, 86
1, 119696, Control_c, 0, 64, 85
1, 119711, Control_c, 0, 64, 86
1, 119740, Control_c, 0, 64, 85
1, 119755, Control_c, 0, 64, 85
1, 119814, Control_c, 0, 64, 84
1, 119829, Control_c, 0, 64, 83
1, 119888, Control_c, 0, 64, 82
1, 119903, Control_c, 0, 64, 81
1, 119962, Control_c, 0, 64, 81
1, 120007, Control_c, 0, 64, 80
1, 120022, Control_c, 0, 64, 80
1, 120037, Control_c, 0, 64, 79
1, 120082, Control_c, 0, 64, 79
1, 120096, Control_c, 0, 64, 77
1, 120111, Control_c, 0, 64, 76
1, 120156, Control_c, 0, 64, 76
1, 120171, Control_c, 0, 64, 75
1, 120186, Control_c, 0, 64, 74
1, 120201, Control_c, 0, 64, 74
1, 120245, Control_c, 0, 64, 73
1, 120260, Control_c, 0, 64, 73
1, 120304, Control_c, 0, 64, 72
1, 120319, Control_c, 0, 64, 70
1, 120334, Control_c, 0, 64, 68
1, 120356, Control_c, 0, 64, 68
1, 120489, Control_c, 0, 64, 67
1, 120548, Control_c, 0, 64, 66
1, 120563, Control_c, 0, 64, 65
1, 120578, Control_c, 0, 64, 64
1, 120593, Control_c, 0, 64, 65
1, 120607, Control_c, 0, 64, 65
1, 120622, Control_c, 0, 64, 65
1, 120637, Control_c, 0, 64, 64
1, 120667, Control_c, 0, 64, 65
1, 120696, Control_c, 0, 64, 64
1, 120711, Control_c, 0, 64, 63
1, 120726, Control_c, 0, 64, 62
1, 120741, Control_c, 0, 64, 63
1, 120770, Control_c, 0, 64, 62
1, 120785, Control_c, 0, 64, 62
1, 120815, Control_c, 0, 64, 62
1, 120830, Control_c, 0, 64, 62
1, 120845, Control_c, 0, 64, 61
1, 120860, Control_c, 0, 64, 60
1, 120919, Control_c, 0, 64, 58
1, 120934, Control_c, 0, 64, 57
1, 120964, Control_c, 0, 64, 56
1, 120978, Control_c, 0, 64, 53
1, 120993, Control_c, 0, 64, 48
1, 121008, Control_c, 0, 64, 42
1, 121022, Control_c, 0, 64, 37
1, 121037, Control_c, 0, 64, 33
1, 121052, Control_c, 0, 64, 28
1, 121067, Control_c, 0, 64, 24
1, 121082, Control_c, 0, 64, 19
1, 121104, Control_c, 0, 64, 15
1, 121119, Control_c, 0, 64, 13
1, 121149, Control_c, 0, 64, 12
1, 121164, Control_c, 0, 64, 11
1, 121341, Control_c, 0, 64, 12
1, 121356, Control_c, 0, 64, 15
1, 121371, Control_c, 0, 64, 17
1, 121385, Control_c, 0, 64, 17
1, 121429, Control_c, 0, 64, 18
1, 121444, Control_c, 0, 64, 21
1, 121459, Control_c, 0, 64, 22
1, 121474, Control_c, 0, 64, 23
1, 121503, Control_c, 0, 64, 23
1, 121518, Control_c, 0, 64, 24
1, 121533, Control_c, 0, 64, 24
1, 121608, Control_c, 0, 64, 25
1, 121622, Control_c, 0, 64, 25
1, 121637, Control_c, 0, 64, 26
1, 121667, Control_c, 0, 64, 26
1, 121713, Control_c, 0, 64, 28
1, 121727, Control_c, 0, 64, 30
1, 121772, Control_c, 0, 64, 31
1, 121787, Control_c, 0, 64, 33
1, 121802, Control_c, 0, 64, 34
1, 121816, Control_c, 0, 64, 35
1, 121868, Control_c, 0, 64, 35
1, 121883, Control_c, 0, 64, 37
1, 121942, Control_c, 0, 64, 38
1, 121957, Control_c, 0, 64, 39
1, 121972, Control_c, 0, 64, 40
1, 122031, Control_c, 0, 64, 41
1, 122046, Control_c, 0, 64, 42
1, 122061, Control_c, 0, 64, 43
1, 122180, Control_c, 0, 64, 43
1, 122195, Control_c, 0, 64, 44
1, 122253, Control_c, 0, 64, 44
1, 122268, Control_c, 0, 64, 45
1, 122342, Control_c, 0, 64, 45
1, 122387, Control_c, 0, 64, 46
1, 122401, Control_c, 0, 64, 46
1, 122416, Control_c, 0, 64, 47
1, 122603, Control_c, 0, 64, 48
1, 123499, Control_c, 0, 64, 48
1, 124396, Control_c, 0, 64, 49
1, 124529, Control_c, 0, 64, 49
1, 124544, Control_c, 0, 64, 50
1, 124589, Control_c, 0, 64, 46
1, 124604, Control_c, 0, 64, 34
1, 124618, Control_c, 0, 64, 0
1, 125106, Note_on_c, 0, 62, 81
1, 125672, Note_off_c, 0, 62, 63
1, 125918, Note_on_c, 0, 58, 84
1, 125946, Note_off_c, 0, 58, 68
1, 126199, Note_on_c, 0, 63, 86
1, 126625, Note_off_c, 0, 63, 59
1, 126760, Note_on_c, 0, 60, 84
1, 127320, Note_off_c, 0, 60, 63
1, 127573, Note_on_c, 0, 57, 84
1, 127614, Note_off_c, 0, 57, 64
1, 127852, Note_on_c, 0, 62, 85
1, 128316, Note_off_c, 0, 62, 57
1, 128425, Note_on_c, 0, 58, 86
1, 129019, Note_off_c, 0, 58, 63
1, 129257, Note_on_c, 0, 55, 76
1, 129301, Note_off_c, 0, 55, 61
1, 129552, Note_on_c, 0, 60, 64
1, 129591, Note_off_c, 0, 60, 65
1, 129828, Note_on_c, 0, 60, 57
1, 129865, Note_off_c, 0, 60, 65
1, 130107, Note_on_c, 0, 60, 62
1, 130148, Note_off_c, 0, 60, 64
1, 130373, Note_on_c, 0, 60, 70
1, 130419, Note_off_c, 0, 60, 64
1, 130640, Note_on_c, 0, 60, 78
1, 130685, Note_off_c, 0, 60, 64
1, 130923, Note_on_c, 0, 60, 75
1, 130975, Note_off_c, 0, 60, 63
1, 131105, Control_c, 0, 64, 12
1, 131120, Control_c, 0, 64, 13
1, 131150, Control_c, 0, 64, 15
1, 131193, Note_on_c, 0, 60, 74
1, 131299, Control_c, 0, 64, 16
1, 131402, Control_c, 0, 64, 17
1, 131483, Note_on_c, 0, 58, 59
1, 131494, Note_off_c, 0, 60, 63
1, 131519, Control_c, 0, 64, 17
1, 131608, Note_on_c, 0, 57, 52
1, 131621, Note_off_c, 0, 58, 61
1, 131725, Note_on_c, 0, 67, 88
1, 131743, Note_on_c, 0, 58, 60
1, 131759, Note_off_c, 0, 57, 61
1, 131853, Note_off_c, 0, 58, 64
1, 131863, Note_on_c, 0, 55, 59
1, 131984, Note_on_c, 0, 58, 61
1, 131995, Note_off_c, 0, 55, 56
1, 132105, Note_on_c, 0, 60, 65
1, 132136, Note_off_c, 0, 58, 54
1, 132235, Note_on_c, 0, 62, 67
1, 132240, Note_off_c, 0, 60, 64
1, 132303, Note_off_c, 0, 67, 63
1, 132355, Note_on_c, 0, 61, 73
1, 132362, Note_off_c, 0, 62, 62
1, 132409, Control_c, 0, 64, 18
1, 132411, Note_off_c, 0, 61, 62
1, 132484, Note_on_c, 0, 65, 86
1, 132486, Note_on_c, 0, 62, 75
1, 132524, Note_off_c, 0, 65, 65
1, 132542, Control_c, 0, 64, 17
1, 132557, Control_c, 0, 64, 18
1, 132586, Note_off_c, 0, 62, 62
1, 132739, Note_on_c, 0, 70, 87
1, 132741, Note_on_c, 0, 62, 65
1, 133010, Note_on_c, 0, 55, 69
1, 133042, Note_off_c, 0, 62, 59
1, 133112, Note_off_c, 0, 70, 55
1, 133266, Note_off_c, 0, 55, 64
1, 133286, Note_on_c, 0, 67, 91
1, 133321, Control_c, 0, 64, 17
1, 133351, Control_c, 0, 64, 17
1, 133404, Note_on_c, 0, 55, 69
1, 133531, Note_on_c, 0, 57, 70
1, 133537, Note_off_c, 0, 55, 61
1, 133647, Note_on_c, 0, 58, 71
1, 133663, Note_off_c, 0, 57, 60
1, 133771, Note_on_c, 0, 60, 70
1, 133780, Note_off_c, 0, 58, 63
1, 133824, Note_off_c, 0, 67, 64
1, 133889, Note_on_c, 0, 58, 74
1, 133902, Note_off_c, 0, 60, 63
1, 133984, Note_off_c, 0, 58, 62
1, 134018, Note_on_c, 0, 64, 85
1, 134021, Note_on_c, 0, 60, 77
1, 134059, Note_off_c, 0, 64, 65
1, 134141, Note_off_c, 0, 60, 64
1, 134160, Control_c, 0, 64, 17
1, 134189, Control_c, 0, 64, 18
1, 134273, Note_on_c, 0, 60, 67
1, 134277, Note_on_c, 0, 69, 87
1, 134545, Note_on_c, 0, 53, 65
1, 134569, Note_off_c, 0, 60, 59
1, 134612, Control_c, 0, 64, 20
1, 134614, Note_off_c, 0, 69, 66
1, 134627, Control_c, 0, 64, 21
1, 134716, Control_c, 0, 64, 21
1, 134795, Note_off_c, 0, 53, 64
1, 134819, Note_on_c, 0, 65, 85
1, 134947, Note_on_c, 0, 53, 73
1, 135068, Note_on_c, 0, 55, 75
1, 135097, Note_off_c, 0, 53, 61
1, 135187, Note_on_c, 0, 57, 73
1, 135215, Note_off_c, 0, 55, 63
1, 135306, Note_on_c, 0, 58, 73
1, 135320, Note_off_c, 0, 65, 60
1, 135331, Note_off_c, 0, 57, 61
1, 135375, Control_c, 0, 64, 22
1, 135405, Control_c, 0, 64, 23
1, 135420, Control_c, 0, 64, 23
1, 135430, Note_on_c, 0, 57, 71
1, 135448, Note_off_c, 0, 58, 63
1, 135562, Note_on_c, 0, 62, 75
1, 135565, Note_on_c, 0, 58, 71
1, 135588, Note_off_c, 0, 57, 59
1, 135643, Note_off_c, 0, 62, 63
1, 135833, Note_on_c, 0, 67, 68
1, 135912, Note_off_c, 0, 67, 64
1, 135958, Note_on_c, 0, 57, 65
1, 135976, Note_off_c, 0, 58, 63
1, 136089, Note_on_c, 0, 58, 70
1, 136091, Note_on_c, 0, 67, 63
1, 136099, Note_off_c, 0, 57, 57
1, 136152, Note_off_c, 0, 67, 64
1, 136208, Note_on_c, 0, 57, 69
1, 136214, Note_off_c, 0, 58, 63
1, 136327, Note_on_c, 0, 55, 56
1, 136340, Note_off_c, 0, 57, 63
1, 136342, Note_on_c, 0, 67, 73
1, 136392, Note_off_c, 0, 67, 63
1, 136450, Note_off_c, 0, 55, 62
1, 136452, Note_on_c, 0, 53, 71
1, 136573, Note_on_c, 0, 55, 67
1, 136584, Note_on_c, 0, 67, 80
1, 136584, Note_off_c, 0, 53, 63
1, 136634, Note_off_c, 0, 67, 66
1, 136694, Note_off_c, 0, 55, 63
1, 136695, Note_on_c, 0, 53, 75
1, 136834, Note_off_c, 0, 53, 63
1, 136835, Note_on_c, 0, 52, 71
1, 136842, Note_on_c, 0, 67, 85
1, 136890, Note_off_c, 0, 67, 66
1, 136918, Control_c, 0, 64, 24
1, 136954, Note_on_c, 0, 50, 71
1, 136956, Note_off_c, 0, 52, 62
1, 137081, Note_on_c, 0, 67, 85
1, 137082, Note_on_c, 0, 52, 64
1, 137084, Note_off_c, 0, 50, 65
1, 137123, Note_off_c, 0, 67, 64
1, 137190, Note_off_c, 0, 52, 65
1, 137198, Control_c, 0, 64, 24
1, 137201, Note_on_c, 0, 50, 69
1, 137228, Control_c, 0, 64, 25
1, 137332, Control_c, 0, 64, 24
1, 137342, Note_off_c, 0, 50, 63
1, 137343, Note_on_c, 0, 49, 57
1, 137346, Note_on_c, 0, 67, 76
1, 137347, Control_c, 0, 64, 12
1, 137362, Control_c, 0, 64, 0
1, 137556, Note_off_c, 0, 49, 63
1, 137606, Note_on_c, 0, 57, 60
1, 137623, Note_on_c, 0, 65, 67
1, 137654, Note_off_c, 0, 57, 61
1, 137659, Note_off_c, 0, 67, 63
1, 137706, Note_off_c, 0, 65, 62
1, 137734, Note_on_c, 0, 64, 64
1, 137839, Note_off_c, 0, 64, 55
1, 137866, Note_on_c, 0, 74, 88
1, 137869, Note_on_c, 0, 50, 63
1, 137889, Control_c, 0, 64, 30
1, 137894, Note_on_c, 0, 65, 52
1, 137904, Control_c, 0, 64, 45
1, 137919, Control_c, 0, 64, 55
1, 137919, Note_off_c, 0, 65, 55
1, 137934, Control_c, 0, 64, 59
1, 137948, Control_c, 0, 64, 62
1, 137963, Control_c, 0, 64, 64
1, 137978, Control_c, 0, 64, 66
1, 137985, Note_off_c, 0, 50, 52
1, 137993, Control_c, 0, 64, 67
1, 138000, Note_on_c, 0, 62, 64
1, 138008, Control_c, 0, 64, 68
1, 138067, Control_c, 0, 64, 68
1, 138096, Control_c, 0, 64, 68
1, 138111, Control_c, 0, 64, 67
1, 138115, Note_on_c, 0, 60, 49
1, 138126, Control_c, 0, 64, 67
1, 138131, Note_on_c, 0, 64, 69
1, 138131, Note_off_c, 0, 62, 58
1, 138141, Control_c, 0, 64, 66
1, 138155, Control_c, 0, 64, 64
1, 138170, Control_c, 0, 64, 61
1, 138181, Note_off_c, 0, 60, 61
1, 138185, Control_c, 0, 64, 57
1, 138200, Control_c, 0, 64, 55
1, 138211, Note_off_c, 0, 64, 39
1, 138215, Control_c, 0, 64, 52
1, 138229, Control_c, 0, 64, 48
1, 138244, Control_c, 0, 64, 33
1, 138259, Control_c, 0, 64, 0
1, 138262, Note_on_c, 0, 66, 59
1, 138347, Note_off_c, 0, 66, 55
1, 138383, Note_on_c, 0, 58, 58
1, 138390, Note_on_c, 0, 67, 61
1, 138390, Note_off_c, 0, 74, 45
1, 138443, Note_off_c, 0, 58, 56
1, 138486, Note_on_c, 0, 66, 65
1, 138539, Note_off_c, 0, 67, 42
1, 138621, Note_on_c, 0, 70, 90
1, 138627, Note_on_c, 0, 55, 67
1, 138636, Note_on_c, 0, 67, 67
1, 138672, Note_off_c, 0, 66, 58
1, 138696, Note_off_c, 0, 67, 41
1, 138751, Note_off_c, 0, 55, 59
1, 138873, Note_off_c, 0, 70, 55
1, 138879, Note_on_c, 0, 75, 93
1, 138886, Note_on_c, 0, 60, 65
1, 138900, Note_on_c, 0, 67, 62
1, 139001, Note_on_c, 0, 58, 62
1, 139004, Note_off_c, 0, 60, 61
1, 139126, Note_off_c, 0, 58, 64
1, 139133, Note_off_c, 0, 67, 59
1, 139135, Note_on_c, 0, 60, 62
1, 139149, Control_c, 0, 64, 22
1, 139164, Control_c, 0, 64, 32
1, 139178, Control_c, 0, 64, 42
1, 139193, Control_c, 0, 64, 51
1, 139208, Control_c, 0, 64, 58
1, 139224, Control_c, 0, 64, 60
1, 139239, Control_c, 0, 64, 62
1, 139250, Note_on_c, 0, 58, 68
1, 139252, Note_off_c, 0, 60, 63
1, 139254, Control_c, 0, 64, 64
1, 139261, Note_off_c, 0, 75, 61
1, 139269, Control_c, 0, 64, 67
1, 139283, Control_c, 0, 64, 73
1, 139298, Control_c, 0, 64, 79
1, 139313, Control_c, 0, 64, 85
1, 139343, Control_c, 0, 64, 81
1, 139357, Control_c, 0, 64, 74
1, 139372, Control_c, 0, 64, 64
1, 139380, Note_on_c, 0, 57, 74
1, 139383, Note_on_c, 0, 72, 84
1, 139387, Control_c, 0, 64, 56
1, 139392, Note_off_c, 0, 58, 60
1, 139401, Control_c, 0, 64, 52
1, 139416, Control_c, 0, 64, 50
1, 139431, Control_c, 0, 64, 50
1, 139509, Note_on_c, 0, 60, 64
1, 139520, Control_c, 0, 64, 49
1, 139535, Control_c, 0, 64, 48
1, 139637, Note_off_c, 0, 57, 62
1, 139643, Note_on_c, 0, 62, 67
1, 139668, Note_off_c, 0, 60, 61
1, 139741, Note_on_c, 0, 55, 59
1, 139741, Note_off_c, 0, 62, 62
1, 139741, Control_c, 0, 64, 47
1, 139747, Note_on_c, 0, 63, 70
1, 139756, Control_c, 0, 64, 45
1, 139770, Control_c, 0, 64, 42
1, 139785, Control_c, 0, 64, 36
1, 139800, Control_c, 0, 64, 21
1, 139822, Control_c, 0, 64, 0
1, 139833, Note_off_c, 0, 55, 59
1, 139858, Note_off_c, 0, 72, 62
1, 139878, Note_on_c, 0, 57, 62
1, 139878, Note_off_c, 0, 63, 62
1, 139886, Note_on_c, 0, 65, 66
1, 139970, Note_off_c, 0, 57, 61
1, 139985, Note_off_c, 0, 65, 34
1, 139993, Note_on_c, 0, 63, 67
1, 140045, Note_off_c, 0, 63, 62
1, 140134, Note_on_c, 0, 69, 89
1, 140134, Note_on_c, 0, 53, 57
1, 140149, Note_on_c, 0, 65, 58
1, 140289, Note_off_c, 0, 65, 54
1, 140317, Note_off_c, 0, 69, 65
1, 140366, Note_off_c, 0, 53, 56
1, 140405, Note_on_c, 0, 74, 91
1, 140417, Note_on_c, 0, 58, 61
1, 140425, Note_on_c, 0, 65, 62
1, 140534, Note_on_c, 0, 57, 61
1, 140545, Note_off_c, 0, 58, 62
1, 140630, Control_c, 0, 64, 32
1, 140645, Control_c, 0, 64, 48
1, 140660, Control_c, 0, 64, 54
1, 140668, Note_on_c, 0, 58, 71
1, 140671, Note_off_c, 0, 57, 62
1, 140675, Control_c, 0, 64, 57
1, 140690, Control_c, 0, 64, 61
1, 140700, Note_off_c, 0, 74, 65
1, 140704, Control_c, 0, 64, 65
1, 140719, Control_c, 0, 64, 67
1, 140728, Note_off_c, 0, 65, 59
1, 140734, Control_c, 0, 64, 70
1, 140748, Control_c, 0, 64, 72
1, 140763, Control_c, 0, 64, 77
1, 140778, Control_c, 0, 64, 84
1, 140793, Note_on_c, 0, 57, 65
1, 140793, Control_c, 0, 64, 93
1, 140796, Note_off_c, 0, 58, 62
1, 140808, Control_c, 0, 64, 103
1, 140824, Control_c, 0, 64, 114
1, 140839, Control_c, 0, 64, 121
1, 140853, Control_c, 0, 64, 118
1, 140868, Control_c, 0, 64, 104
1, 140883, Control_c, 0, 64, 90
1, 140898, Control_c, 0, 64, 77
1, 140912, Note_off_c, 0, 57, 60
1, 140913, Control_c, 0, 64, 68
1, 140918, Note_on_c, 0, 55, 64
1, 140922, Note_on_c, 0, 70, 88
1, 140927, Control_c, 0, 64, 61
1, 140942, Control_c, 0, 64, 54
1, 140957, Control_c, 0, 64, 50
1, 140972, Control_c, 0, 64, 47
1, 140987, Control_c, 0, 64, 44
1, 141002, Control_c, 0, 64, 37
1, 141016, Control_c, 0, 64, 23
1, 141031, Control_c, 0, 64, 0
1, 141051, Note_on_c, 0, 58, 63
1, 141114, Note_off_c, 0, 55, 57
1, 141170, Note_on_c, 0, 57, 64
1, 141174, Note_off_c, 0, 58, 63
1, 141180, Note_on_c, 0, 60, 65
1, 141283, Note_off_c, 0, 70, 59
1, 141285, Note_off_c, 0, 57, 62
1, 141287, Note_on_c, 0, 58, 71
1, 141300, Note_on_c, 0, 62, 72
1, 141326, Note_off_c, 0, 60, 50
1, 141415, Note_off_c, 0, 58, 64
1, 141424, Note_on_c, 0, 60, 68
1, 141439, Note_on_c, 0, 63, 68
1, 141458, Note_off_c, 0, 62, 60
1, 141541, Note_off_c, 0, 63, 63
1, 141563, Note_on_c, 0, 62, 63
1, 141680, Note_off_c, 0, 62, 60
1, 141690, Note_on_c, 0, 67, 69
1, 141713, Note_on_c, 0, 63, 55
1, 141777, Note_off_c, 0, 67, 63
1, 141808, Note_on_c, 0, 58, 62
1, 141821, Note_off_c, 0, 60, 58
1, 141935, Note_on_c, 0, 72, 74
1, 141937, Note_on_c, 0, 57, 56
1, 141951, Note_off_c, 0, 58, 54
1, 142006, Note_off_c, 0, 63, 59
1, 142076, Note_on_c, 0, 62, 59
1, 142098, Note_off_c, 0, 72, 60
1, 142148, Note_off_c, 0, 62, 57
1, 142194, Note_on_c, 0, 72, 80
1, 142200, Note_on_c, 0, 63, 65
1, 142273, Note_off_c, 0, 57, 64
1, 142308, Note_on_c, 0, 62, 69
1, 142343, Note_off_c, 0, 63, 44
1, 142367, Note_off_c, 0, 72, 60
1, 142416, Note_off_c, 0, 62, 58
1, 142453, Note_on_c, 0, 60, 64
1, 142453, Note_on_c, 0, 72, 86
1, 142571, Note_on_c, 0, 58, 63
1, 142588, Note_off_c, 0, 60, 63
1, 142626, Note_off_c, 0, 72, 63
1, 142696, Note_off_c, 0, 58, 63
1, 142698, Note_on_c, 0, 55, 61
1, 142700, Note_on_c, 0, 72, 87
1, 142707, Note_on_c, 0, 60, 66
1, 142808, Note_off_c, 0, 60, 64
1, 142817, Note_on_c, 0, 58, 72
1, 142850, Note_off_c, 0, 55, 63
1, 142891, Note_off_c, 0, 72, 65
1, 142892, Control_c, 0, 64, 9
1, 142906, Control_c, 0, 64, 11
1, 142921, Control_c, 0, 64, 12
1, 142952, Note_off_c, 0, 58, 63
1, 142959, Note_on_c, 0, 54, 64
1, 142959, Note_on_c, 0, 57, 64
1, 142966, Note_on_c, 0, 72, 95
1, 142981, Control_c, 0, 64, 13
1, 143080, Note_on_c, 0, 55, 75
1, 143091, Note_off_c, 0, 57, 59
1, 143099, Control_c, 0, 64, 16
1, 143123, Note_off_c, 0, 54, 62
1, 143129, Control_c, 0, 64, 17
1, 143134, Note_off_c, 0, 72, 66
1, 143143, Control_c, 0, 64, 17
1, 143158, Control_c, 0, 64, 19
1, 143173, Control_c, 0, 64, 20
1, 143192, Note_on_c, 0, 52, 55
1, 143204, Note_on_c, 0, 57, 63
1, 143216, Note_off_c, 0, 55, 62
1, 143216, Note_on_c, 0, 72, 99
1, 143234, Control_c, 0, 64, 21
1, 143293, Control_c, 0, 64, 21
1, 143308, Control_c, 0, 64, 24
1, 143322, Control_c, 0, 64, 28
1, 143331, Note_on_c, 0, 55, 70
1, 143337, Control_c, 0, 64, 31
1, 143352, Control_c, 0, 64, 32
1, 143367, Control_c, 0, 64, 33
1, 143368, Note_off_c, 0, 72, 64
1, 143371, Note_off_c, 0, 57, 39
1, 143396, Control_c, 0, 64, 34
1, 143411, Control_c, 0, 64, 37
1, 143426, Control_c, 0, 64, 38
1, 143450, Note_off_c, 0, 52, 60
1, 143463, Note_on_c, 0, 50, 67
1, 143465, Note_on_c, 0, 54, 70
1, 143468, Note_on_c, 0, 72, 85
1, 143470, Control_c, 0, 64, 37
1, 143485, Control_c, 0, 64, 30
1, 143487, Note_off_c, 0, 55, 57
1, 143500, Control_c, 0, 64, 12
1, 143514, Control_c, 0, 64, 0
1, 143592, Note_off_c, 0, 54, 62
1, 143739, Note_on_c, 0, 70, 67
1, 143740, Note_on_c, 0, 54, 66
1, 143749, Note_on_c, 0, 62, 52
1, 143762, Note_off_c, 0, 50, 63
1, 143776, Note_off_c, 0, 72, 61
1, 143794, Note_off_c, 0, 54, 64
1, 143841, Note_off_c, 0, 70, 62
1, 143856, Note_on_c, 0, 69, 67
1, 143903, Note_off_c, 0, 62, 60
1, 143966, Control_c, 0, 64, 25
1, 143981, Control_c, 0, 64, 54
1, 143992, Note_on_c, 0, 55, 88
1, 143996, Control_c, 0, 64, 58
1, 144000, Note_on_c, 0, 70, 64
1, 144004, Note_off_c, 0, 69, 63
1, 144027, Control_c, 0, 64, 60
1, 144042, Control_c, 0, 64, 64
1, 144057, Control_c, 0, 64, 69
1, 144071, Control_c, 0, 64, 72
1, 144086, Control_c, 0, 64, 71
1, 144101, Control_c, 0, 64, 70
1, 144116, Control_c, 0, 64, 70
1, 144123, Note_off_c, 0, 70, 60
1, 144129, Note_on_c, 0, 67, 71
1, 144131, Control_c, 0, 64, 73
1, 144145, Control_c, 0, 64, 74
1, 144160, Control_c, 0, 64, 73
1, 144175, Control_c, 0, 64, 72
1, 144189, Control_c, 0, 64, 70
1, 144204, Control_c, 0, 64, 67
1, 144219, Control_c, 0, 64, 64
1, 144234, Control_c, 0, 64, 61
1, 144249, Control_c, 0, 64, 58
1, 144263, Note_on_c, 0, 70, 70
1, 144263, Control_c, 0, 64, 57
1, 144269, Note_on_c, 0, 62, 66
1, 144278, Control_c, 0, 64, 55
1, 144293, Control_c, 0, 64, 47
1, 144316, Control_c, 0, 64, 32
1, 144331, Control_c, 0, 64, 0
1, 144368, Note_off_c, 0, 70, 59
1, 144391, Note_on_c, 0, 64, 78
1, 144396, Note_on_c, 0, 72, 65
1, 144420, Note_off_c, 0, 62, 59
1, 144494, Note_off_c, 0, 64, 65
1, 144503, Note_on_c, 0, 65, 78
1, 144507, Note_off_c, 0, 72, 64
1, 144510, Note_on_c, 0, 74, 67
1, 144581, Note_off_c, 0, 67, 51
1, 144614, Note_on_c, 0, 64, 71
1, 144629, Note_on_c, 0, 73, 67
1, 144632, Note_off_c, 0, 65, 59
1, 144643, Note_off_c, 0, 55, 61
1, 144648, Note_off_c, 0, 64, 66
1, 144650, Note_off_c, 0, 74, 57
1, 144743, Note_on_c, 0, 53, 93
1, 144751, Note_on_c, 0, 65, 74
1, 144751, Note_on_c, 0, 74, 80
1, 144760, Control_c, 0, 64, 27
1, 144775, Control_c, 0, 64, 48
1, 144787, Note_off_c, 0, 65, 64
1, 144789, Control_c, 0, 64, 58
1, 144804, Control_c, 0, 64, 61
1, 144828, Note_off_c, 0, 53, 62
1, 144835, Control_c, 0, 64, 62
1, 144850, Control_c, 0, 64, 63
1, 144865, Control_c, 0, 64, 65
1, 144874, Note_on_c, 0, 69, 71
1, 144880, Control_c, 0, 64, 67
1, 144895, Control_c, 0, 64, 69
1, 144909, Control_c, 0, 64, 73
1, 144916, Note_off_c, 0, 74, 61
1, 144924, Control_c, 0, 64, 80
1, 144934, Note_off_c, 0, 73, 22
1, 144939, Control_c, 0, 64, 91
1, 144954, Control_c, 0, 64, 100
1, 144969, Control_c, 0, 64, 95
1, 144984, Control_c, 0, 64, 84
1, 144999, Control_c, 0, 64, 72
1, 145009, Note_on_c, 0, 58, 90
1, 145013, Control_c, 0, 64, 64
1, 145023, Note_on_c, 0, 62, 74
1, 145025, Note_on_c, 0, 74, 77
1, 145028, Control_c, 0, 64, 56
1, 145030, Note_off_c, 0, 69, 0
1, 145043, Control_c, 0, 64, 49
1, 145065, Control_c, 0, 64, 44
1, 145075, Poly_aftertouch_c, 0, 69, 127
1, 145080, Control_c, 0, 64, 42
1, 145094, Control_c, 0, 64, 42
1, 145100, Poly_aftertouch_c, 0, 69, 0
1, 145109, Control_c, 0, 64, 39
1, 145124, Control_c, 0, 64, 32
1, 145139, Control_c, 0, 64, 28
1, 145148, Note_on_c, 0, 69, 58
1, 145152, Note_off_c, 0, 74, 63
1, 145199, Control_c, 0, 64, 26
1, 145213, Control_c, 0, 64, 25
1, 145243, Control_c, 0, 64, 23
1, 145258, Control_c, 0, 64, 0
1, 145280, Note_off_c, 0, 69, 62
1, 145297, Note_on_c, 0, 67, 59
1, 145410, Note_on_c, 0, 65, 62
1, 145417, Note_off_c, 0, 67, 62
1, 145537, Note_on_c, 0, 55, 83
1, 145546, Note_on_c, 0, 64, 59
1, 145550, Note_off_c, 0, 65, 63
1, 145568, Note_off_c, 0, 58, 59
1, 145580, Note_off_c, 0, 62, 60
1, 145679, Note_on_c, 0, 67, 61
1, 145805, Note_on_c, 0, 60, 69
1, 145806, Note_on_c, 0, 69, 69
1, 145835, Note_off_c, 0, 64, 36
1, 145843, Note_off_c, 0, 67, 57
1, 145914, Note_on_c, 0, 58, 72
1, 145914, Note_off_c, 0, 60, 63
1, 145920, Note_on_c, 0, 70, 72
1, 145927, Note_off_c, 0, 69, 57
1, 146033, Note_on_c, 0, 57, 77
1, 146036, Note_off_c, 0, 55, 64
1, 146039, Note_on_c, 0, 72, 74
1, 146056, Note_off_c, 0, 58, 63
1, 146062, Note_off_c, 0, 70, 58
1, 146075, Note_off_c, 0, 57, 63
1, 146153, Note_on_c, 0, 70, 75
1, 146180, Note_off_c, 0, 72, 59
1, 146287, Note_on_c, 0, 52, 86
1, 146289, Note_on_c, 0, 72, 73
1, 146297, Note_on_c, 0, 55, 81
1, 146316, Control_c, 0, 64, 32
1, 146321, Note_off_c, 0, 55, 70
1, 146331, Control_c, 0, 64, 40
1, 146337, Note_off_c, 0, 52, 67
1, 146346, Control_c, 0, 64, 48
1, 146361, Control_c, 0, 64, 51
1, 146403, Note_on_c, 0, 67, 65
1, 146421, Control_c, 0, 64, 54
1, 146427, Note_off_c, 0, 70, 27
1, 146436, Control_c, 0, 64, 57
1, 146444, Note_off_c, 0, 72, 61
1, 146451, Control_c, 0, 64, 58
1, 146510, Control_c, 0, 64, 56
1, 146525, Control_c, 0, 64, 51
1, 146531, Note_on_c, 0, 57, 86
1, 146540, Control_c, 0, 64, 44
1, 146548, Note_on_c, 0, 72, 76
1, 146562, Control_c, 0, 64, 37
1, 146566, Note_on_c, 0, 60, 59
1, 146576, Note_off_c, 0, 67, 53
1, 146577, Control_c, 0, 64, 28
1, 146592, Control_c, 0, 64, 19
1, 146607, Control_c, 0, 64, 11
1, 146621, Control_c, 0, 64, 0
1, 146659, Note_off_c, 0, 72, 62
1, 146671, Note_on_c, 0, 67, 71
1, 146784, Note_off_c, 0, 67, 62
1, 146796, Note_on_c, 0, 65, 64
1, 146915, Note_on_c, 0, 64, 64
1, 146919, Note_off_c, 0, 65, 59
1, 147035, Note_off_c, 0, 64, 62
1, 147038, Note_on_c, 0, 53, 84
1, 147041, Note_on_c, 0, 62, 66
1, 147069, Note_off_c, 0, 57, 65
1, 147174, Note_on_c, 0, 65, 65
1, 147227, Note_off_c, 0, 60, 54
1, 147310, Note_on_c, 0, 58, 70
1, 147310, Note_on_c, 0, 67, 67
1, 147339, Note_off_c, 0, 65, 58
1, 147414, Note_off_c, 0, 58, 64
1, 147418, Note_on_c, 0, 57, 61
1, 147422, Note_on_c, 0, 69, 67
1, 147437, Note_off_c, 0, 67, 49
1, 147482, Note_off_c, 0, 53, 61
1, 147548, Note_off_c, 0, 57, 62
1, 147549, Note_on_c, 0, 55, 76
1, 147554, Note_on_c, 0, 70, 70
1, 147563, Note_off_c, 0, 69, 61
1, 147598, Note_off_c, 0, 55, 63
1, 147668, Note_off_c, 0, 70, 58
1, 147676, Note_on_c, 0, 69, 62
1, 147792, Note_on_c, 0, 50, 65
1, 147794, Note_on_c, 0, 70, 69
1, 147803, Note_on_c, 0, 53, 67
1, 147832, Note_off_c, 0, 69, 59
1, 147841, Note_off_c, 0, 62, 50
1, 147922, Note_on_c, 0, 65, 60
1, 148004, Note_off_c, 0, 50, 33
1, 148029, Note_off_c, 0, 70, 50
1, 148040, Note_on_c, 0, 58, 76
1, 148059, Note_on_c, 0, 55, 66
1, 148063, Note_on_c, 0, 64, 62
1, 148094, Note_off_c, 0, 53, 60
1, 148096, Note_off_c, 0, 65, 55
1, 148126, Note_off_c, 0, 55, 63
1, 148180, Note_on_c, 0, 69, 65
1, 148293, Note_off_c, 0, 69, 62
1, 148296, Note_on_c, 0, 55, 70
1, 148297, Note_on_c, 0, 70, 71
1, 148324, Note_off_c, 0, 58, 63
1, 148329, Note_off_c, 0, 55, 68
1, 148406, Note_on_c, 0, 69, 65
1, 148416, Note_on_c, 0, 65, 63
1, 148426, Note_off_c, 0, 64, 30
1, 148490, Note_off_c, 0, 70, 36
1, 148508, Note_off_c, 0, 69, 57
1, 148537, Note_on_c, 0, 55, 76
1, 148545, Note_on_c, 0, 67, 66
1, 148548, Note_on_c, 0, 64, 62
1, 148566, Note_off_c, 0, 55, 67
1, 148579, Note_off_c, 0, 65, 57
1, 148657, Note_on_c, 0, 65, 64
1, 148664, Note_off_c, 0, 67, 62
1, 148752, Note_off_c, 0, 65, 61
1, 148779, Note_on_c, 0, 55, 77
1, 148796, Note_on_c, 0, 67, 77
1, 148826, Note_off_c, 0, 55, 63
1, 148861, Note_off_c, 0, 64, 59
1, 148909, Note_on_c, 0, 65, 73
1, 148918, Note_on_c, 0, 62, 71
1, 148929, Note_off_c, 0, 67, 61
1, 149023, Note_off_c, 0, 65, 62
1, 149033, Note_on_c, 0, 55, 78
1, 149048, Note_on_c, 0, 64, 73
1, 149054, Note_on_c, 0, 61, 75
1, 149074, Note_off_c, 0, 62, 61
1, 149091, Note_off_c, 0, 55, 65
1, 149157, Note_off_c, 0, 64, 62
1, 149167, Note_on_c, 0, 62, 73
1, 149277, Note_on_c, 0, 55, 88
1, 149282, Note_on_c, 0, 64, 70
1, 149294, Note_off_c, 0, 62, 63
1, 149314, Note_off_c, 0, 55, 64
1, 149327, Note_off_c, 0, 61, 61
1, 149400, Note_on_c, 0, 62, 71
1, 149440, Note_off_c, 0, 64, 58
1, 149512, Note_off_c, 0, 62, 61
1, 149532, Note_on_c, 0, 57, 66
1, 149534, Note_on_c, 0, 55, 62
1, 149536, Note_on_c, 0, 61, 58
1, 149584, Note_off_c, 0, 61, 59
1, 149791, Note_on_c, 0, 69, 64
1, 149792, Note_off_c, 0, 55, 63
1, 149795, Note_on_c, 0, 53, 61
1, 149811, Note_off_c, 0, 57, 61
1, 149836, Note_off_c, 0, 69, 64
1, 149900, Note_off_c, 0, 53, 62
1, 149902, Note_on_c, 0, 52, 64
1, 150024, Note_off_c, 0, 52, 62
1, 150031, Note_on_c, 0, 62, 69
1, 150034, Note_on_c, 0, 53, 60
1, 150060, Note_off_c, 0, 62, 67
1, 150134, Note_off_c, 0, 53, 63
1, 150144, Note_on_c, 0, 50, 56
1, 150257, Note_on_c, 0, 51, 66
1, 150260, Note_off_c, 0, 50, 60
1, 150264, Note_on_c, 0, 72, 78
1, 150311, Note_off_c, 0, 72, 65
1, 150382, Note_on_c, 0, 53, 66
1, 150399, Note_off_c, 0, 51, 52
1, 150510, Note_on_c, 0, 71, 77
1, 150511, Note_on_c, 0, 55, 56
1, 150517, Note_off_c, 0, 53, 64
1, 150613, Note_on_c, 0, 74, 74
1, 150619, Note_on_c, 0, 53, 61
1, 150622, Note_off_c, 0, 55, 62
1, 150725, Note_on_c, 0, 77, 81
1, 150747, Note_off_c, 0, 53, 63
1, 150748, Note_on_c, 0, 55, 55
1, 150752, Note_off_c, 0, 74, 63
1, 150850, Note_on_c, 0, 74, 72
1, 150850, Note_off_c, 0, 77, 60
1, 150919, Note_off_c, 0, 71, 57
1, 150992, Note_on_c, 0, 75, 65
1, 150993, Note_on_c, 0, 48, 54
1, 151032, Note_off_c, 0, 74, 61
1, 151062, Note_off_c, 0, 55, 47
1, 151123, Note_on_c, 0, 47, 54
1, 151125, Note_off_c, 0, 48, 61
1, 151249, Note_off_c, 0, 47, 58
1, 151253, Note_on_c, 0, 48, 58
1, 151253, Note_on_c, 0, 67, 68
1, 151295, Note_off_c, 0, 67, 64
1, 151295, Note_off_c, 0, 75, 62
1, 151356, Note_off_c, 0, 48, 63
1, 151360, Note_on_c, 0, 50, 58
1, 151494, Note_on_c, 0, 60, 72
1, 151506, Note_on_c, 0, 51, 59
1, 151523, Note_off_c, 0, 50, 56
1, 151529, Note_off_c, 0, 60, 67
1, 151621, Note_on_c, 0, 48, 52
1, 151621, Note_off_c, 0, 51, 62
1, 151722, Note_on_c, 0, 50, 62
1, 151727, Note_off_c, 0, 48, 62
1, 151745, Note_on_c, 0, 70, 61
1, 151782, Note_off_c, 0, 70, 58
1, 151852, Note_on_c, 0, 51, 62
1, 151868, Note_off_c, 0, 50, 53
1, 151979, Note_off_c, 0, 51, 61
1, 151987, Note_on_c, 0, 53, 54
1, 151994, Note_on_c, 0, 69, 63
1, 152105, Note_off_c, 0, 53, 60
1, 152105, Note_off_c, 0, 69, 64
1, 152106, Note_on_c, 0, 51, 59
1, 152112, Note_on_c, 0, 72, 67
1, 152223, Note_on_c, 0, 75, 67
1, 152229, Note_off_c, 0, 51, 64
1, 152235, Note_on_c, 0, 53, 53
1, 152249, Note_off_c, 0, 72, 54
1, 152349, Note_on_c, 0, 81, 72
1, 152476, Note_on_c, 0, 46, 52
1, 152482, Note_on_c, 0, 82, 75
1, 152512, Note_off_c, 0, 81, 64
1, 152520, Note_off_c, 0, 53, 54
1, 152606, Note_on_c, 0, 53, 56
1, 152645, Note_off_c, 0, 46, 61
1, 152743, Note_on_c, 0, 55, 57
1, 152756, Note_on_c, 0, 74, 47
1, 152785, Note_off_c, 0, 53, 60
1, 152855, Note_off_c, 0, 55, 64
1, 152857, Note_on_c, 0, 81, 70
1, 152863, Note_on_c, 0, 57, 61
1, 152920, Note_off_c, 0, 75, 57
1, 152924, Note_off_c, 0, 74, 52
1, 152985, Note_on_c, 0, 79, 78
1, 152989, Note_on_c, 0, 58, 64
1, 152994, Note_off_c, 0, 82, 60
1, 153008, Note_off_c, 0, 57, 60
1, 153023, Note_off_c, 0, 81, 60
1, 153095, Note_off_c, 0, 58, 64
1, 153096, Note_on_c, 0, 78, 87
1, 153101, Note_on_c, 0, 57, 65
1, 153116, Note_off_c, 0, 79, 63
1, 153217, Note_on_c, 0, 58, 71
1, 153220, Note_on_c, 0, 79, 84
1, 153227, Note_off_c, 0, 57, 62
1, 153234, Note_off_c, 0, 78, 63
1, 153338, Note_on_c, 0, 78, 82
1, 153338, Note_off_c, 0, 79, 66
1, 153423, Note_off_c, 0, 58, 63
1, 153461, Note_on_c, 0, 79, 75
1, 153475, Note_off_c, 0, 78, 63
1, 153576, Note_on_c, 0, 52, 51
1, 153703, Note_on_c, 0, 54, 63
1, 153710, Note_off_c, 0, 52, 59
1, 153830, Note_on_c, 0, 55, 58
1, 153834, Note_off_c, 0, 54, 61
1, 153837, Note_on_c, 0, 74, 62
1, 153944, Note_on_c, 0, 72, 69
1, 153945, Note_off_c, 0, 55, 63
1, 153948, Note_on_c, 0, 57, 60
1, 153962, Note_off_c, 0, 74, 51
1, 154058, Note_off_c, 0, 57, 64
1, 154070, Note_on_c, 0, 70, 60
1, 154072, Note_on_c, 0, 55, 63
1, 154081, Note_off_c, 0, 72, 62
1, 154155, Note_off_c, 0, 70, 56
1, 154195, Note_on_c, 0, 57, 53
1, 154207, Note_off_c, 0, 55, 59
1, 154216, Note_on_c, 0, 72, 54
1, 154318, Note_on_c, 0, 70, 43
1, 154323, Note_off_c, 0, 72, 58
1, 154423, Note_off_c, 0, 57, 65
1, 154444, Note_on_c, 0, 62, 83
1, 154447, Note_off_c, 0, 70, 30
1, 154460, Note_on_c, 0, 78, 68
1, 154463, Note_off_c, 0, 79, 61
1, 154471, Note_on_c, 0, 72, 55
1, 154509, Control_c, 0, 64, 40
1, 154524, Control_c, 0, 64, 50
1, 154539, Control_c, 0, 64, 51
1, 154553, Control_c, 0, 64, 53
1, 154558, Note_off_c, 0, 72, 65
1, 154567, Note_on_c, 0, 50, 64
1, 154568, Control_c, 0, 64, 58
1, 154583, Control_c, 0, 64, 61
1, 154613, Control_c, 0, 64, 60
1, 154642, Control_c, 0, 64, 60
1, 154657, Control_c, 0, 64, 61
1, 154672, Control_c, 0, 64, 60
1, 154687, Control_c, 0, 64, 60
1, 154702, Control_c, 0, 64, 59
1, 154708, Note_on_c, 0, 52, 62
1, 154717, Control_c, 0, 64, 58
1, 154732, Control_c, 0, 64, 55
1, 154734, Note_off_c, 0, 50, 55
1, 154746, Control_c, 0, 64, 50
1, 154761, Control_c, 0, 64, 47
1, 154776, Control_c, 0, 64, 45
1, 154798, Control_c, 0, 64, 42
1, 154809, Note_on_c, 0, 81, 64
1, 154811, Note_off_c, 0, 52, 64
1, 154813, Control_c, 0, 64, 32
1, 154816, Note_on_c, 0, 54, 64
1, 154824, Note_on_c, 0, 72, 56
1, 154827, Control_c, 0, 64, 0
1, 154836, Note_off_c, 0, 81, 66
1, 154845, Note_off_c, 0, 78, 63
1, 154867, Note_off_c, 0, 72, 66
1, 154937, Note_on_c, 0, 55, 72
1, 154943, Note_on_c, 0, 74, 65
1, 154947, Note_off_c, 0, 54, 63
1, 154948, Note_off_c, 0, 62, 62
1, 155056, Note_off_c, 0, 55, 63
1, 155056, Note_on_c, 0, 54, 65
1, 155065, Note_on_c, 0, 69, 68
1, 155149, Note_on_c, 0, 70, 38
1, 155151, Note_off_c, 0, 74, 61
1, 155160, Note_off_c, 0, 54, 57
1, 155174, Note_off_c, 0, 69, 33
1, 155180, Note_on_c, 0, 58, 84
1, 155189, Note_on_c, 0, 55, 70
1, 155228, Note_off_c, 0, 70, 64
1, 155280, Note_on_c, 0, 69, 77
1, 155283, Note_off_c, 0, 55, 62
1, 155286, Note_off_c, 0, 58, 64
1, 155291, Note_on_c, 0, 72, 67
1, 155371, Note_off_c, 0, 69, 61
1, 155420, Note_on_c, 0, 63, 91
1, 155423, Note_on_c, 0, 55, 59
1, 155441, Note_on_c, 0, 70, 63
1, 155445, Note_off_c, 0, 72, 64
1, 155459, Note_on_c, 0, 67, 51
1, 155495, Control_c, 0, 64, 20
1, 155507, Note_off_c, 0, 67, 56
1, 155510, Control_c, 0, 64, 47
1, 155524, Control_c, 0, 64, 52
1, 155547, Control_c, 0, 64, 55
1, 155554, Note_on_c, 0, 65, 60
1, 155562, Control_c, 0, 64, 60
1, 155576, Control_c, 0, 64, 66
1, 155591, Control_c, 0, 64, 70
1, 155606, Control_c, 0, 64, 74
1, 155620, Note_off_c, 0, 63, 64
1, 155621, Control_c, 0, 64, 76
1, 155636, Control_c, 0, 64, 80
1, 155650, Control_c, 0, 64, 85
1, 155665, Control_c, 0, 64, 87
1, 155669, Note_on_c, 0, 67, 60
1, 155674, Note_off_c, 0, 65, 47
1, 155677, Note_off_c, 0, 55, 41
1, 155689, Note_on_c, 0, 48, 58
1, 155709, Control_c, 0, 64, 87
1, 155722, Note_off_c, 0, 67, 63
1, 155739, Control_c, 0, 64, 86
1, 155754, Control_c, 0, 64, 84
1, 155769, Control_c, 0, 64, 84
1, 155773, Note_on_c, 0, 65, 50
1, 155824, Note_off_c, 0, 65, 51
1, 155828, Control_c, 0, 64, 85
1, 155843, Control_c, 0, 64, 86
1, 155858, Control_c, 0, 64, 91
1, 155873, Control_c, 0, 64, 90
1, 155888, Control_c, 0, 64, 80
1, 155899, Note_off_c, 0, 48, 34
1, 155902, Control_c, 0, 64, 66
1, 155917, Note_on_c, 0, 63, 68
1, 155917, Control_c, 0, 64, 50
1, 155925, Note_on_c, 0, 60, 77
1, 155932, Control_c, 0, 64, 37
1, 155947, Control_c, 0, 64, 35
1, 155951, Note_off_c, 0, 63, 65
1, 155962, Control_c, 0, 64, 40
1, 155967, Note_on_c, 0, 65, 59
1, 155976, Control_c, 0, 64, 52
1, 155991, Control_c, 0, 64, 57
1, 156007, Control_c, 0, 64, 59
1, 156020, Note_on_c, 0, 63, 73
1, 156022, Control_c, 0, 64, 60
1, 156030, Note_on_c, 0, 48, 60
1, 156037, Control_c, 0, 64, 63
1, 156052, Control_c, 0, 64, 65
1, 156067, Control_c, 0, 64, 65
1, 156081, Control_c, 0, 64, 66
1, 156111, Control_c, 0, 64, 67
1, 156125, Control_c, 0, 64, 69
1, 156169, Note_on_c, 0, 50, 64
1, 156178, Note_off_c, 0, 63, 62
1, 156188, Note_off_c, 0, 48, 53
1, 156229, Control_c, 0, 64, 68
1, 156235, Note_off_c, 0, 65, 38
1, 156259, Control_c, 0, 64, 66
1, 156273, Note_on_c, 0, 62, 64
1, 156273, Control_c, 0, 64, 61
1, 156296, Control_c, 0, 64, 46
1, 156298, Note_on_c, 0, 51, 66
1, 156309, Note_off_c, 0, 50, 58
1, 156311, Control_c, 0, 64, 0
1, 156329, Note_off_c, 0, 60, 54
1, 156338, Note_off_c, 0, 70, 64
1, 156414, Note_on_c, 0, 69, 64
1, 156418, Note_on_c, 0, 60, 69
1, 156422, Note_off_c, 0, 51, 64
1, 156424, Note_on_c, 0, 53, 74
1, 156455, Note_off_c, 0, 62, 64
1, 156534, Note_on_c, 0, 51, 73
1, 156541, Note_off_c, 0, 53, 64
1, 156663, Note_on_c, 0, 57, 89
1, 156666, Note_off_c, 0, 51, 49
1, 156676, Note_on_c, 0, 53, 71
1, 156756, Note_off_c, 0, 60, 54
1, 156767, Note_off_c, 0, 53, 58
1, 156770, Control_c, 0, 64, 25
1, 156785, Control_c, 0, 64, 41
1, 156800, Control_c, 0, 64, 50
1, 156815, Control_c, 0, 64, 55
1, 156830, Control_c, 0, 64, 58
1, 156843, Note_off_c, 0, 57, 62
1, 156845, Control_c, 0, 64, 59
1, 156860, Control_c, 0, 64, 60
1, 156875, Control_c, 0, 64, 60
1, 156890, Control_c, 0, 64, 58
1, 156904, Control_c, 0, 64, 52
1, 156919, Note_on_c, 0, 62, 83
1, 156919, Control_c, 0, 64, 42
1, 156934, Note_on_c, 0, 53, 69
1, 156934, Control_c, 0, 64, 27
1, 156948, Control_c, 0, 64, 0
1, 156952, Note_on_c, 0, 65, 53
1, 156953, Note_off_c, 0, 69, 61
1, 157037, Note_on_c, 0, 69, 69
1, 157107, Note_off_c, 0, 65, 52
1, 157119, Control_c, 0, 64, 36
1, 157134, Control_c, 0, 64, 48
1, 157148, Control_c, 0, 64, 50
1, 157163, Control_c, 0, 64, 51
1, 157170, Note_on_c, 0, 46, 58
1, 157178, Control_c, 0, 64, 53
1, 157182, Note_off_c, 0, 53, 63
1, 157188, Note_on_c, 0, 70, 61
1, 157193, Control_c, 0, 64, 58
1, 157196, Note_off_c, 0, 69, 61
1, 157208, Control_c, 0, 64, 62
1, 157222, Control_c, 0, 64, 64
1, 157237, Control_c, 0, 64, 65
1, 157281, Control_c, 0, 64, 66
1, 157295, Note_on_c, 0, 69, 74
1, 157296, Control_c, 0, 64, 68
1, 157311, Control_c, 0, 64, 70
1, 157324, Note_off_c, 0, 62, 48
1, 157326, Control_c, 0, 64, 72
1, 157340, Control_c, 0, 64, 75
1, 157355, Control_c, 0, 64, 79
1, 157370, Control_c, 0, 64, 81
1, 157373, Note_off_c, 0, 70, 38
1, 157385, Control_c, 0, 64, 80
1, 157400, Control_c, 0, 64, 75
1, 157414, Control_c, 0, 64, 68
1, 157429, Control_c, 0, 64, 60
1, 157431, Note_on_c, 0, 58, 84
1, 157432, Note_off_c, 0, 46, 60
1, 157439, Note_on_c, 0, 62, 68
1, 157439, Note_on_c, 0, 67, 74
1, 157444, Control_c, 0, 64, 53
1, 157453, Note_off_c, 0, 69, 59
1, 157459, Control_c, 0, 64, 44
1, 157474, Control_c, 0, 64, 30
1, 157489, Control_c, 0, 64, 0
1, 157550, Note_on_c, 0, 46, 69
1, 157677, Note_on_c, 0, 48, 65
1, 157733, Note_off_c, 0, 46, 49
1, 157801, Note_on_c, 0, 66, 68
1, 157806, Note_on_c, 0, 50, 63
1, 157815, Note_off_c, 0, 67, 61
1, 157830, Note_off_c, 0, 48, 57
1, 157924, Note_on_c, 0, 67, 72
1, 157927, Note_off_c, 0, 62, 62
1, 157936, Note_on_c, 0, 51, 76
1, 157939, Note_off_c, 0, 66, 63
1, 157949, Note_off_c, 0, 50, 64
1, 157969, Note_off_c, 0, 58, 59
1, 158052, Note_on_c, 0, 50, 65
1, 158077, Note_off_c, 0, 51, 61
1, 158171, Note_on_c, 0, 55, 76
1, 158206, Note_on_c, 0, 51, 58
1, 158219, Note_off_c, 0, 50, 57
1, 158453, Note_on_c, 0, 60, 75
1, 158455, Note_off_c, 0, 55, 62
1, 158575, Note_on_c, 0, 50, 63
1, 158586, Note_off_c, 0, 51, 63
1, 158616, Note_off_c, 0, 60, 63
1, 158696, Note_on_c, 0, 51, 74
1, 158703, Note_off_c, 0, 50, 59
1, 158711, Note_on_c, 0, 60, 77
1, 158773, Note_off_c, 0, 67, 58
1, 158816, Note_on_c, 0, 50, 65
1, 158821, Note_off_c, 0, 51, 64
1, 158830, Note_on_c, 0, 70, 76
1, 158863, Note_off_c, 0, 60, 63
1, 158913, Control_c, 0, 64, 9
1, 158944, Note_off_c, 0, 50, 64
1, 158948, Note_on_c, 0, 60, 80
1, 158949, Note_on_c, 0, 48, 54
1, 158961, Note_on_c, 0, 69, 67
1, 158972, Control_c, 0, 64, 11
1, 158991, Note_off_c, 0, 70, 63
1, 159001, Control_c, 0, 64, 12
1, 159016, Control_c, 0, 64, 13
1, 159031, Control_c, 0, 64, 16
1, 159046, Control_c, 0, 64, 17
1, 159075, Control_c, 0, 64, 18
1, 159079, Note_on_c, 0, 46, 67
1, 159090, Control_c, 0, 64, 19
1, 159099, Note_off_c, 0, 48, 56
1, 159105, Control_c, 0, 64, 21
1, 159119, Control_c, 0, 64, 21
1, 159127, Note_off_c, 0, 60, 65
1, 159214, Note_on_c, 0, 48, 70
1, 159216, Note_on_c, 0, 60, 84
1, 159227, Note_off_c, 0, 46, 63
1, 159291, Control_c, 0, 64, 22
1, 159340, Note_off_c, 0, 48, 62
1, 159340, Note_on_c, 0, 46, 74
1, 159349, Note_on_c, 0, 72, 68
1, 159397, Note_off_c, 0, 60, 59
1, 159463, Note_on_c, 0, 45, 67
1, 159465, Note_off_c, 0, 46, 62
1, 159471, Note_on_c, 0, 60, 73
1, 159472, Note_on_c, 0, 66, 74
1, 159579, Note_on_c, 0, 43, 70
1, 159593, Note_off_c, 0, 45, 60
1, 159602, Control_c, 0, 64, 23
1, 159623, Note_off_c, 0, 72, 33
1, 159628, Note_off_c, 0, 60, 60
1, 159665, Note_off_c, 0, 69, 58
1, 159680, Poly_aftertouch_c, 0, 68, 127
1, 159713, Note_on_c, 0, 45, 66
1, 159719, Poly_aftertouch_c, 0, 68, 0
1, 159728, Note_off_c, 0, 43, 62
1, 159734, Note_on_c, 0, 60, 74
1, 159833, Note_off_c, 0, 45, 64
1, 159838, Note_on_c, 0, 69, 70
1, 159844, Note_on_c, 0, 43, 61
1, 159850, Note_off_c, 0, 66, 61
1, 159901, Note_off_c, 0, 69, 63
1, 159967, Note_on_c, 0, 42, 55
1, 159970, Note_on_c, 0, 62, 60
1, 159989, Note_off_c, 0, 43, 62
1, 160014, Note_off_c, 0, 60, 59
1, 160019, Control_c, 0, 64, 22
1, 160176, Note_off_c, 0, 42, 56
1, 160219, Note_on_c, 0, 50, 54
1, 160234, Note_on_c, 0, 58, 59
1, 160249, Note_off_c, 0, 62, 51
1, 160260, Note_off_c, 0, 50, 63
1, 160297, Note_off_c, 0, 58, 54
1, 160346, Note_on_c, 0, 57, 53
1, 160351, Note_on_c, 0, 66, 53
1, 160389, Note_off_c, 0, 66, 60
1, 160405, Note_off_c, 0, 57, 54
1, 160455, Note_on_c, 0, 43, 48
1, 160463, Note_on_c, 0, 67, 59
1, 160464, Note_on_c, 0, 58, 60
1, 160503, Note_off_c, 0, 43, 63
1, 160528, Note_off_c, 0, 67, 58
1, 160551, Note_off_c, 0, 58, 63
1, 160580, Note_on_c, 0, 55, 63
1, 160691, Note_off_c, 0, 55, 62
1, 160695, Note_on_c, 0, 53, 53
1, 160704, Note_on_c, 0, 57, 65
1, 160744, Note_off_c, 0, 53, 63
1, 160816, Note_off_c, 0, 57, 63
1, 160817, Note_on_c, 0, 58, 66
1, 160942, Note_off_c, 0, 58, 63
1, 160947, Note_on_c, 0, 52, 67
1, 160951, Note_on_c, 0, 60, 61
1, 161002, Note_off_c, 0, 52, 64
1, 161041, Note_off_c, 0, 60, 61
1, 161057, Note_on_c, 0, 58, 60
1, 161177, Note_off_c, 0, 58, 63
1, 161185, Note_on_c, 0, 60, 52
1, 161193, Note_on_c, 0, 48, 65
1, 161225, Note_off_c, 0, 48, 64
1, 161313, Note_on_c, 0, 70, 57
1, 161391, Note_off_c, 0, 70, 50
1, 161408, Note_off_c, 0, 60, 51
1, 161441, Note_on_c, 0, 53, 70
1, 161487, Note_off_c, 0, 53, 62
1, 161519, Note_on_c, 0, 70, 62
1, 161655, Note_off_c, 0, 70, 59
1, 161663, Note_on_c, 0, 69, 57
1, 161667, Note_on_c, 0, 57, 69
1, 161667, Note_on_c, 0, 65, 65
1, 161698, Note_off_c, 0, 57, 67
1, 161755, Note_off_c, 0, 69, 62
1, 161775, Note_on_c, 0, 64, 60
1, 161778, Note_off_c, 0, 65, 62
1, 161779, Note_on_c, 0, 67, 57
1, 161843, Note_off_c, 0, 64, 62
1, 161871, Note_off_c, 0, 67, 59
1, 161896, Note_on_c, 0, 50, 60
1, 161904, Note_on_c, 0, 65, 63
1, 161910, Note_on_c, 0, 69, 73
1, 161934, Note_off_c, 0, 65, 66
1, 161957, Note_off_c, 0, 69, 61
1, 161973, Note_off_c, 0, 50, 55
1, 162028, Note_on_c, 0, 69, 80
1, 162136, Note_on_c, 0, 60, 40
1, 162142, Note_on_c, 0, 71, 85
1, 162165, Note_off_c, 0, 69, 52
1, 162208, Note_off_c, 0, 60, 60
1, 162253, Note_on_c, 0, 72, 80
1, 162301, Note_off_c, 0, 71, 63
1, 162378, Note_on_c, 0, 74, 82
1, 162389, Note_on_c, 0, 59, 56
1, 162395, Note_off_c, 0, 72, 62
1, 162455, Note_off_c, 0, 59, 57
1, 162489, Note_off_c, 0, 74, 63
1, 162495, Note_on_c, 0, 72, 80
1, 162613, Note_off_c, 0, 72, 66
1, 162622, Note_on_c, 0, 55, 49
1, 162624, Note_on_c, 0, 74, 73
1, 162670, Note_off_c, 0, 55, 63
1, 162741, Note_on_c, 0, 65, 67
1, 162854, Note_off_c, 0, 65, 38
1, 162872, Note_on_c, 0, 60, 54
1, 162933, Note_off_c, 0, 60, 49
1, 162994, Note_on_c, 0, 65, 59
1, 163007, Note_off_c, 0, 74, 62
1, 163058, Note_off_c, 0, 65, 59
1, 163108, Note_on_c, 0, 55, 54
1, 163120, Note_on_c, 0, 72, 72
1, 163124, Note_on_c, 0, 63, 71
1, 163182, Note_off_c, 0, 55, 57
1, 163236, Note_on_c, 0, 71, 69
1, 163238, Note_off_c, 0, 72, 51
1, 163246, Note_on_c, 0, 62, 70
1, 163256, Note_off_c, 0, 63, 54
1, 163311, Note_off_c, 0, 71, 57
1, 163317, Note_off_c, 0, 62, 47
1, 163348, Note_on_c, 0, 48, 53
1, 163359, Note_on_c, 0, 72, 70
1, 163361, Note_on_c, 0, 63, 71
1, 163399, Note_off_c, 0, 48, 62
1, 163441, Note_off_c, 0, 63, 60
1, 163480, Note_on_c, 0, 60, 68
1, 163588, Note_on_c, 0, 57, 62
1, 163604, Note_off_c, 0, 72, 63
1, 163606, Note_on_c, 0, 66, 73
1, 163623, Note_off_c, 0, 60, 56
1, 163635, Note_off_c, 0, 57, 62
1, 163715, Note_on_c, 0, 67, 70
1, 163719, Note_off_c, 0, 66, 61
1, 163845, Note_on_c, 0, 69, 76
1, 163848, Note_on_c, 0, 54, 65
1, 163850, Note_off_c, 0, 67, 54
1, 163891, Note_off_c, 0, 54, 62
1, 163942, Note_off_c, 0, 69, 61
1, 163962, Note_on_c, 0, 67, 69
1, 164080, Note_off_c, 0, 67, 61
1, 164087, Note_on_c, 0, 50, 51
1, 164095, Note_on_c, 0, 69, 69
1, 164143, Note_off_c, 0, 50, 60
1, 164212, Note_on_c, 0, 72, 64
1, 164343, Note_on_c, 0, 55, 63
1, 164358, Note_off_c, 0, 72, 59
1, 164399, Note_off_c, 0, 69, 64
1, 164410, Note_off_c, 0, 55, 63
1, 164476, Note_on_c, 0, 72, 70
1, 164537, Note_off_c, 0, 72, 62
1, 164590, Note_on_c, 0, 58, 57
1, 164598, Note_on_c, 0, 70, 75
1, 164618, Note_on_c, 0, 67, 58
1, 164645, Note_off_c, 0, 58, 57
1, 164660, Note_off_c, 0, 67, 58
1, 164715, Note_on_c, 0, 66, 61
1, 164715, Note_on_c, 0, 69, 72
1, 164744, Note_off_c, 0, 70, 27
1, 164800, Note_off_c, 0, 66, 53
1, 164828, Note_on_c, 0, 52, 63
1, 164845, Note_off_c, 0, 69, 64
1, 164856, Note_on_c, 0, 67, 72
1, 164859, Note_on_c, 0, 70, 40
1, 164873, Control_c, 0, 64, 23
1, 164879, Note_off_c, 0, 52, 61
1, 164888, Note_off_c, 0, 70, 34
1, 164902, Control_c, 0, 64, 23
1, 164941, Note_off_c, 0, 67, 59
1, 164961, Note_on_c, 0, 74, 79
1, 165071, Note_on_c, 0, 62, 46
1, 165088, Note_on_c, 0, 76, 79
1, 165106, Note_off_c, 0, 74, 59
1, 165127, Note_off_c, 0, 62, 57
1, 165200, Note_on_c, 0, 77, 77
1, 165211, Note_off_c, 0, 76, 60
1, 165296, Control_c, 0, 64, 24
1, 165330, Note_on_c, 0, 79, 70
1, 165342, Note_on_c, 0, 61, 64
1, 165342, Note_off_c, 0, 77, 56
1, 165355, Control_c, 0, 64, 24
1, 165369, Control_c, 0, 64, 25
1, 165378, Note_off_c, 0, 61, 63
1, 165384, Control_c, 0, 64, 26
1, 165399, Control_c, 0, 64, 26
1, 165429, Control_c, 0, 64, 27
1, 165442, Note_off_c, 0, 79, 63
1, 165442, Note_on_c, 0, 77, 76
1, 165443, Control_c, 0, 64, 29
1, 165458, Control_c, 0, 64, 30
1, 165503, Control_c, 0, 64, 31
1, 165517, Control_c, 0, 64, 32
1, 165532, Control_c, 0, 64, 32
1, 165576, Note_on_c, 0, 79, 69
1, 165576, Note_on_c, 0, 57, 57
1, 165576, Control_c, 0, 64, 32
1, 165592, Control_c, 0, 64, 27
1, 165598, Note_off_c, 0, 77, 51
1, 165607, Control_c, 0, 64, 19
1, 165622, Control_c, 0, 64, 0
1, 165689, Note_on_c, 0, 61, 54
1, 165697, Note_off_c, 0, 57, 60
1, 165812, Note_off_c, 0, 61, 61
1, 165821, Note_on_c, 0, 62, 64
1, 165921, Note_off_c, 0, 62, 63
1, 165930, Note_on_c, 0, 61, 65
1, 166053, Note_off_c, 0, 61, 62
1, 166063, Note_on_c, 0, 62, 62
1, 166082, Note_on_c, 0, 77, 71
1, 166127, Note_off_c, 0, 79, 37
1, 166172, Note_off_c, 0, 62, 62
1, 166179, Note_on_c, 0, 57, 58
1, 166197, Note_on_c, 0, 76, 65
1, 166241, Note_off_c, 0, 77, 59
1, 166307, Note_on_c, 0, 50, 74
1, 166309, Note_on_c, 0, 69, 92
1, 166309, Note_off_c, 0, 57, 64
1, 166325, Control_c, 0, 64, 17
1, 166331, Note_on_c, 0, 77, 63
1, 166339, Note_off_c, 0, 50, 67
1, 166340, Control_c, 0, 64, 58
1, 166355, Control_c, 0, 64, 61
1, 166362, Note_off_c, 0, 76, 63
1, 166370, Note_off_c, 0, 77, 59
1, 166370, Control_c, 0, 64, 61
1, 166386, Control_c, 0, 64, 64
1, 166401, Control_c, 0, 64, 72
1, 166415, Control_c, 0, 64, 88
1, 166430, Control_c, 0, 64, 127
1, 166443, Note_on_c, 0, 74, 74
1, 166555, Note_on_c, 0, 62, 72
1, 166572, Note_on_c, 0, 77, 83
1, 166619, Note_off_c, 0, 74, 56
1, 166622, Control_c, 0, 64, 92
1, 166637, Control_c, 0, 64, 74
1, 166652, Control_c, 0, 64, 60
1, 166667, Control_c, 0, 64, 40
1, 166675, Note_on_c, 0, 64, 74
1, 166681, Control_c, 0, 64, 0
1, 166682, Note_on_c, 0, 79, 76
1, 166688, Note_off_c, 0, 62, 57
1, 166728, Note_off_c, 0, 77, 57
1, 166792, Note_off_c, 0, 64, 64
1, 166797, Note_on_c, 0, 65, 78
1, 166804, Note_on_c, 0, 81, 82
1, 166831, Note_off_c, 0, 79, 65
1, 166886, Note_off_c, 0, 65, 56
1, 166914, Note_on_c, 0, 79, 83
1, 166931, Note_off_c, 0, 81, 66
1, 166957, Note_off_c, 0, 69, 58
1, 167041, Note_on_c, 0, 65, 84
1, 167046, Note_on_c, 0, 62, 74
1, 167054, Note_on_c, 0, 81, 81
1, 167081, Note_off_c, 0, 79, 63
1, 167114, Note_off_c, 0, 81, 65
1, 167164, Note_off_c, 0, 65, 62
1, 167267, Control_c, 0, 64, 39
1, 167282, Control_c, 0, 64, 50
1, 167297, Control_c, 0, 64, 55
1, 167311, Control_c, 0, 64, 57
1, 167314, Note_on_c, 0, 67, 62
1, 167315, Note_off_c, 0, 62, 64
1, 167316, Note_on_c, 0, 70, 92
1, 167326, Control_c, 0, 64, 58
1, 167338, Note_on_c, 0, 81, 63
1, 167341, Control_c, 0, 64, 58
1, 167356, Control_c, 0, 64, 52
1, 167371, Control_c, 0, 64, 38
1, 167386, Control_c, 0, 64, 0
1, 167436, Note_on_c, 0, 55, 69
1, 167439, Note_off_c, 0, 67, 59
1, 167582, Note_on_c, 0, 57, 70
1, 167589, Note_on_c, 0, 74, 60
1, 167593, Note_off_c, 0, 55, 57
1, 167602, Note_off_c, 0, 81, 44
1, 167712, Note_on_c, 0, 58, 72
1, 167733, Note_off_c, 0, 70, 62
1, 167743, Note_off_c, 0, 57, 63
1, 167809, Control_c, 0, 64, 35
1, 167823, Control_c, 0, 64, 47
1, 167828, Note_on_c, 0, 67, 91
1, 167829, Note_off_c, 0, 74, 38
1, 167838, Control_c, 0, 64, 55
1, 167841, Note_on_c, 0, 60, 74
1, 167853, Control_c, 0, 64, 61
1, 167864, Note_off_c, 0, 58, 62
1, 167868, Control_c, 0, 64, 65
1, 167883, Control_c, 0, 64, 67
1, 167940, Note_on_c, 0, 74, 74
1, 167956, Control_c, 0, 64, 66
1, 167958, Note_on_c, 0, 55, 64
1, 167958, Note_off_c, 0, 60, 62
1, 167972, Control_c, 0, 64, 65
1, 167987, Control_c, 0, 64, 63
1, 168002, Control_c, 0, 64, 61
1, 168017, Control_c, 0, 64, 59
1, 168032, Control_c, 0, 64, 56
1, 168047, Control_c, 0, 64, 49
1, 168061, Control_c, 0, 64, 43
1, 168066, Note_on_c, 0, 76, 68
1, 168076, Control_c, 0, 64, 36
1, 168077, Note_on_c, 0, 60, 69
1, 168091, Control_c, 0, 64, 30
1, 168105, Note_off_c, 0, 55, 56
1, 168106, Control_c, 0, 64, 20
1, 168121, Control_c, 0, 64, 0
1, 168129, Note_off_c, 0, 74, 53
1, 168184, Note_on_c, 0, 62, 69
1, 168187, Note_on_c, 0, 77, 79
1, 168213, Note_off_c, 0, 60, 61
1, 168230, Note_off_c, 0, 76, 56
1, 168305, Note_off_c, 0, 62, 64
1, 168314, Note_on_c, 0, 64, 69
1, 168318, Note_on_c, 0, 79, 83
1, 168344, Note_off_c, 0, 77, 63
1, 168410, Note_off_c, 0, 64, 59
1, 168424, Note_on_c, 0, 77, 84
1, 168441, Note_off_c, 0, 79, 63
1, 168480, Note_off_c, 0, 67, 58
1, 168552, Note_on_c, 0, 60, 70
1, 168559, Note_on_c, 0, 79, 82
1, 168560, Note_on_c, 0, 64, 78
1, 168586, Note_off_c, 0, 77, 61
1, 168614, Note_off_c, 0, 79, 65
1, 168674, Note_off_c, 0, 64, 61
1, 168795, Control_c, 0, 64, 52
1, 168810, Control_c, 0, 64, 61
1, 168825, Control_c, 0, 64, 61
1, 168828, Note_on_c, 0, 69, 91
1, 168828, Note_off_c, 0, 60, 61
1, 168830, Note_on_c, 0, 65, 67
1, 168840, Control_c, 0, 64, 60
1, 168849, Note_on_c, 0, 79, 57
1, 168855, Control_c, 0, 64, 57
1, 168870, Control_c, 0, 64, 50
1, 168884, Control_c, 0, 64, 35
1, 168899, Control_c, 0, 64, 0
1, 168945, Note_off_c, 0, 65, 58
1, 168948, Note_on_c, 0, 53, 70
1, 169079, Note_on_c, 0, 55, 70
1, 169089, Note_on_c, 0, 72, 73
1, 169097, Note_off_c, 0, 53, 57
1, 169141, Note_off_c, 0, 79, 44
1, 169195, Note_on_c, 0, 57, 68
1, 169197, Note_off_c, 0, 69, 60
1, 169205, Note_off_c, 0, 55, 59
1, 169323, Note_on_c, 0, 58, 65
1, 169331, Note_on_c, 0, 65, 88
1, 169335, Control_c, 0, 64, 11
1, 169341, Note_off_c, 0, 57, 58
1, 169350, Control_c, 0, 64, 26
1, 169357, Note_off_c, 0, 72, 58
1, 169365, Control_c, 0, 64, 45
1, 169380, Control_c, 0, 64, 54
1, 169395, Control_c, 0, 64, 54
1, 169424, Control_c, 0, 64, 53
1, 169449, Note_on_c, 0, 53, 64
1, 169455, Note_on_c, 0, 72, 76
1, 169460, Note_off_c, 0, 58, 62
1, 169469, Control_c, 0, 64, 53
1, 169484, Control_c, 0, 64, 52
1, 169499, Control_c, 0, 64, 51
1, 169543, Control_c, 0, 64, 48
1, 169558, Control_c, 0, 64, 45
1, 169573, Control_c, 0, 64, 43
1, 169576, Note_on_c, 0, 58, 67
1, 169577, Note_on_c, 0, 74, 70
1, 169580, Note_off_c, 0, 53, 58
1, 169618, Control_c, 0, 64, 42
1, 169633, Control_c, 0, 64, 41
1, 169648, Control_c, 0, 64, 38
1, 169663, Control_c, 0, 64, 37
1, 169678, Control_c, 0, 64, 36
1, 169687, Note_on_c, 0, 60, 66
1, 169692, Note_off_c, 0, 72, 33
1, 169692, Control_c, 0, 64, 33
1, 169699, Note_on_c, 0, 76, 73
1, 169707, Control_c, 0, 64, 30
1, 169722, Control_c, 0, 64, 26
1, 169726, Note_off_c, 0, 58, 61
1, 169732, Note_off_c, 0, 74, 60
1, 169737, Control_c, 0, 64, 24
1, 169803, Control_c, 0, 64, 23
1, 169815, Note_on_c, 0, 62, 61
1, 169816, Note_on_c, 0, 77, 73
1, 169818, Control_c, 0, 64, 17
1, 169825, Note_off_c, 0, 60, 64
1, 169833, Control_c, 0, 64, 15
1, 169838, Note_off_c, 0, 65, 55
1, 169842, Note_off_c, 0, 76, 61
1, 169848, Control_c, 0, 64, 13
1, 169863, Control_c, 0, 64, 12
1, 169892, Control_c, 0, 64, 11
1, 169922, Control_c, 0, 64, 9
1, 169932, Note_on_c, 0, 60, 70
1, 169937, Note_on_c, 0, 76, 70
1, 169937, Note_off_c, 0, 62, 61
1, 169939, Note_off_c, 0, 77, 60
1, 170053, Note_on_c, 0, 62, 70
1, 170064, Note_on_c, 0, 58, 70
1, 170065, Note_off_c, 0, 60, 64
1, 170068, Note_on_c, 0, 77, 65
1, 170077, Note_off_c, 0, 76, 63
1, 170182, Note_on_c, 0, 57, 69
1, 170191, Note_off_c, 0, 58, 62
1, 170300, Note_on_c, 0, 58, 70
1, 170307, Control_c, 0, 64, 11
1, 170320, Note_on_c, 0, 67, 73
1, 170322, Note_off_c, 0, 62, 61
1, 170324, Note_off_c, 0, 57, 58
1, 170396, Control_c, 0, 64, 13
1, 170411, Control_c, 0, 64, 15
1, 170425, Note_off_c, 0, 77, 58
1, 170426, Control_c, 0, 64, 16
1, 170441, Control_c, 0, 64, 17
1, 170452, Note_on_c, 0, 62, 66
1, 170456, Control_c, 0, 64, 17
1, 170470, Note_off_c, 0, 58, 61
1, 170499, Note_off_c, 0, 67, 65
1, 170567, Note_on_c, 0, 61, 67
1, 170584, Note_off_c, 0, 62, 60
1, 170586, Note_on_c, 0, 67, 89
1, 170690, Note_on_c, 0, 77, 79
1, 170693, Note_on_c, 0, 62, 63
1, 170697, Note_off_c, 0, 61, 62
1, 170757, Note_off_c, 0, 67, 62
1, 170813, Note_on_c, 0, 76, 76
1, 170817, Note_on_c, 0, 55, 61
1, 170828, Note_on_c, 0, 67, 78
1, 170845, Note_off_c, 0, 62, 57
1, 170861, Note_off_c, 0, 77, 56
1, 170936, Note_on_c, 0, 74, 79
1, 170940, Note_on_c, 0, 58, 64
1, 170960, Note_off_c, 0, 55, 59
1, 170969, Note_off_c, 0, 76, 63
1, 170995, Note_off_c, 0, 67, 63
1, 170996, Control_c, 0, 64, 18
1, 171055, Control_c, 0, 64, 19
1, 171066, Note_on_c, 0, 57, 64
1, 171066, Note_on_c, 0, 76, 78
1, 171067, Note_on_c, 0, 67, 81
1, 171070, Note_off_c, 0, 58, 64
1, 171100, Note_off_c, 0, 74, 60
1, 171130, Control_c, 0, 64, 20
1, 171144, Control_c, 0, 64, 21
1, 171159, Control_c, 0, 64, 21
1, 171179, Note_on_c, 0, 58, 68
1, 171180, Note_on_c, 0, 74, 75
1, 171204, Control_c, 0, 64, 22
1, 171212, Note_off_c, 0, 57, 60
1, 171219, Control_c, 0, 64, 23
1, 171229, Note_off_c, 0, 76, 56
1, 171244, Note_off_c, 0, 67, 62
1, 171249, Control_c, 0, 64, 23
1, 171286, Control_c, 0, 64, 24
1, 171301, Control_c, 0, 64, 25
1, 171305, Note_on_c, 0, 73, 76
1, 171309, Note_on_c, 0, 52, 62
1, 171317, Note_on_c, 0, 67, 73
1, 171335, Note_off_c, 0, 58, 55
1, 171340, Note_off_c, 0, 74, 54
1, 171360, Control_c, 0, 64, 25
1, 171424, Note_off_c, 0, 52, 53
1, 171425, Note_on_c, 0, 74, 82
1, 171434, Note_on_c, 0, 64, 66
1, 171449, Control_c, 0, 64, 26
1, 171462, Note_off_c, 0, 73, 63
1, 171464, Control_c, 0, 64, 27
1, 171472, Note_off_c, 0, 67, 61
1, 171478, Control_c, 0, 64, 27
1, 171508, Control_c, 0, 64, 28
1, 171553, Control_c, 0, 64, 28
1, 171556, Note_on_c, 0, 61, 69
1, 171558, Note_on_c, 0, 67, 85
1, 171566, Note_on_c, 0, 76, 64
1, 171597, Control_c, 0, 64, 29
1, 171600, Note_off_c, 0, 64, 49
1, 171612, Control_c, 0, 64, 30
1, 171627, Control_c, 0, 64, 30
1, 171641, Note_off_c, 0, 74, 21
1, 171657, Control_c, 0, 64, 32
1, 171671, Control_c, 0, 64, 34
1, 171686, Control_c, 0, 64, 35
1, 171688, Note_on_c, 0, 57, 64
1, 171699, Note_off_c, 0, 61, 61
1, 171701, Control_c, 0, 64, 36
1, 171737, Note_off_c, 0, 67, 65
1, 171745, Control_c, 0, 64, 36
1, 171760, Control_c, 0, 64, 37
1, 171790, Control_c, 0, 64, 37
1, 171804, Note_off_c, 0, 57, 64
1, 171804, Control_c, 0, 64, 38
1, 171812, Note_on_c, 0, 67, 89
1, 171812, Note_on_c, 0, 62, 65
1, 171819, Control_c, 0, 64, 38
1, 171878, Control_c, 0, 64, 33
1, 171893, Control_c, 0, 64, 20
1, 171908, Control_c, 0, 64, 0
1, 171914, Note_on_c, 0, 50, 61
1, 171937, Note_off_c, 0, 62, 61
1, 171958, Note_off_c, 0, 67, 63
1, 172045, Note_off_c, 0, 50, 60
1, 172046, Note_on_c, 0, 74, 75
1, 172048, Note_on_c, 0, 53, 64
1, 172071, Note_on_c, 0, 65, 56
1, 172086, Note_off_c, 0, 76, 64
1, 172098, Note_off_c, 0, 65, 63
1, 172105, Note_off_c, 0, 74, 63
1, 172157, Note_off_c, 0, 53, 61
1, 172164, Note_on_c, 0, 57, 55
1, 172284, Note_off_c, 0, 57, 63
1, 172313, Note_on_c, 0, 62, 47
1, 172331, Control_c, 0, 64, 23
1, 172336, Note_on_c, 0, 77, 62
1, 172346, Control_c, 0, 64, 32
1, 172361, Control_c, 0, 64, 46
1, 172375, Control_c, 0, 64, 56
1, 172390, Control_c, 0, 64, 59
1, 172405, Control_c, 0, 64, 60
1, 172419, Control_c, 0, 64, 61
1, 172434, Control_c, 0, 64, 63
1, 172435, Note_off_c, 0, 62, 59
1, 172441, Note_on_c, 0, 60, 53
1, 172447, Note_on_c, 0, 69, 45
1, 172449, Control_c, 0, 64, 65
1, 172464, Control_c, 0, 64, 66
1, 172493, Control_c, 0, 64, 65
1, 172508, Control_c, 0, 64, 66
1, 172544, Note_off_c, 0, 60, 58
1, 172548, Note_off_c, 0, 69, 52
1, 172552, Control_c, 0, 64, 65
1, 172561, Note_on_c, 0, 70, 54
1, 172567, Control_c, 0, 64, 65
1, 172568, Note_on_c, 0, 62, 51
1, 172582, Control_c, 0, 64, 64
1, 172626, Control_c, 0, 64, 64
1, 172656, Control_c, 0, 64, 63
1, 172668, Note_off_c, 0, 62, 58
1, 172671, Control_c, 0, 64, 62
1, 172677, Note_on_c, 0, 60, 53
1, 172686, Control_c, 0, 64, 60
1, 172689, Note_on_c, 0, 72, 47
1, 172700, Control_c, 0, 64, 58
1, 172712, Note_off_c, 0, 70, 36
1, 172715, Control_c, 0, 64, 56
1, 172730, Control_c, 0, 64, 51
1, 172745, Control_c, 0, 64, 37
1, 172760, Control_c, 0, 64, 0
1, 172808, Note_on_c, 0, 58, 56
1, 172809, Note_off_c, 0, 60, 63
1, 172820, Note_on_c, 0, 74, 63
1, 172826, Note_off_c, 0, 72, 59
1, 172914, Note_off_c, 0, 58, 59
1, 172915, Note_off_c, 0, 74, 49
1, 172920, Note_on_c, 0, 62, 51
1, 172943, Note_on_c, 0, 72, 60
1, 172973, Note_off_c, 0, 77, 39
1, 173043, Note_off_c, 0, 72, 60
1, 173048, Note_on_c, 0, 55, 47
1, 173051, Note_on_c, 0, 74, 70
1, 173061, Note_off_c, 0, 62, 57
1, 173078, Note_off_c, 0, 74, 67
1, 173137, Note_off_c, 0, 55, 63
1, 173161, Note_on_c, 0, 58, 53
1, 173285, Note_on_c, 0, 79, 76
1, 173287, Note_on_c, 0, 51, 60
1, 173299, Note_off_c, 0, 58, 57
1, 173306, Note_on_c, 0, 74, 54
1, 173413, Note_on_c, 0, 55, 39
1, 173446, Note_off_c, 0, 51, 46
1, 173479, Control_c, 0, 64, 17
1, 173494, Control_c, 0, 64, 27
1, 173500, Note_off_c, 0, 74, 62
1, 173516, Control_c, 0, 64, 39
1, 173525, Note_off_c, 0, 55, 62
1, 173531, Control_c, 0, 64, 48
1, 173539, Note_on_c, 0, 57, 52
1, 173544, Note_on_c, 0, 67, 55
1, 173546, Control_c, 0, 64, 51
1, 173553, Note_off_c, 0, 79, 65
1, 173561, Control_c, 0, 64, 52
1, 173577, Control_c, 0, 64, 54
1, 173592, Control_c, 0, 64, 56
1, 173607, Control_c, 0, 64, 56
1, 173621, Control_c, 0, 64, 57
1, 173633, Note_off_c, 0, 57, 63
1, 173645, Note_on_c, 0, 58, 56
1, 173651, Control_c, 0, 64, 58
1, 173666, Control_c, 0, 64, 59
1, 173677, Note_off_c, 0, 67, 37
1, 173680, Control_c, 0, 64, 58
1, 173695, Control_c, 0, 64, 50
1, 173710, Control_c, 0, 64, 20
1, 173725, Control_c, 0, 64, 0
1, 173774, Note_on_c, 0, 75, 81
1, 173776, Note_off_c, 0, 58, 61
1, 173784, Note_on_c, 0, 60, 56
1, 173813, Control_c, 0, 64, 12
1, 173828, Control_c, 0, 64, 29
1, 173843, Control_c, 0, 64, 40
1, 173858, Control_c, 0, 64, 45
1, 173872, Control_c, 0, 64, 46
1, 173887, Control_c, 0, 64, 47
1, 173899, Note_on_c, 0, 67, 49
1, 173902, Control_c, 0, 64, 50
1, 173910, Note_off_c, 0, 60, 61
1, 173911, Note_on_c, 0, 58, 53
1, 173917, Control_c, 0, 64, 51
1, 173932, Control_c, 0, 64, 51
1, 173991, Control_c, 0, 64, 52
1, 174009, Note_off_c, 0, 58, 62
1, 174033, Note_on_c, 0, 69, 57
1, 174034, Note_on_c, 0, 60, 60
1, 174051, Control_c, 0, 64, 52
1, 174072, Note_off_c, 0, 67, 33
1, 174110, Control_c, 0, 64, 53
1, 174144, Note_off_c, 0, 69, 62
1, 174151, Note_on_c, 0, 58, 57
1, 174152, Note_on_c, 0, 70, 53
1, 174154, Control_c, 0, 64, 53
1, 174156, Note_off_c, 0, 60, 59
1, 174169, Control_c, 0, 64, 54
1, 174183, Control_c, 0, 64, 54
1, 174228, Control_c, 0, 64, 53
1, 174243, Control_c, 0, 64, 51
1, 174265, Control_c, 0, 64, 47
1, 174278, Note_on_c, 0, 57, 60
1, 174280, Control_c, 0, 64, 38
1, 174286, Note_off_c, 0, 58, 63
1, 174291, Note_on_c, 0, 72, 59
1, 174295, Control_c, 0, 64, 0
1, 174299, Note_off_c, 0, 75, 63
1, 174309, Note_off_c, 0, 70, 57
1, 174388, Note_off_c, 0, 57, 64
1, 174400, Note_on_c, 0, 60, 61
1, 174406, Note_off_c, 0, 72, 66
1, 174418, Note_on_c, 0, 70, 71
1, 174523, Note_on_c, 0, 53, 63
1, 174523, Note_off_c, 0, 60, 58
1, 174531, Note_on_c, 0, 72, 74
1, 174534, Note_off_c, 0, 70, 59
1, 174567, Note_off_c, 0, 72, 66
1, 174638, Note_off_c, 0, 53, 59
1, 174646, Note_on_c, 0, 57, 61
1, 174764, Note_off_c, 0, 57, 63
1, 174767, Note_on_c, 0, 77, 80
1, 174769, Note_on_c, 0, 50, 62
1, 174769, Control_c, 0, 64, 27
1, 174784, Control_c, 0, 64, 38
1, 174796, Note_on_c, 0, 72, 53
1, 174799, Control_c, 0, 64, 40
1, 174814, Control_c, 0, 64, 42
1, 174829, Control_c, 0, 64, 45
1, 174844, Control_c, 0, 64, 48
1, 174874, Control_c, 0, 64, 42
1, 174883, Note_on_c, 0, 53, 56
1, 174888, Note_off_c, 0, 50, 61
1, 174888, Control_c, 0, 64, 30
1, 174903, Control_c, 0, 64, 17
1, 174918, Control_c, 0, 64, 0
1, 174996, Note_off_c, 0, 53, 61
1, 175003, Note_on_c, 0, 55, 59
1, 175018, Note_on_c, 0, 65, 49
1, 175023, Note_off_c, 0, 72, 65
1, 175032, Note_off_c, 0, 77, 64
1, 175061, Note_off_c, 0, 65, 62
1, 175107, Note_off_c, 0, 55, 63
1, 175118, Note_on_c, 0, 57, 62
1, 175255, Note_off_c, 0, 57, 63
1, 175259, Note_on_c, 0, 74, 81
1, 175262, Note_on_c, 0, 58, 61
1, 175297, Control_c, 0, 64, 34
1, 175312, Control_c, 0, 64, 43
1, 175327, Control_c, 0, 64, 44
1, 175342, Control_c, 0, 64, 49
1, 175356, Control_c, 0, 64, 53
1, 175371, Control_c, 0, 64, 55
1, 175384, Note_on_c, 0, 65, 62
1, 175389, Note_on_c, 0, 57, 51
1, 175393, Note_off_c, 0, 58, 58
1, 175431, Control_c, 0, 64, 56
1, 175445, Control_c, 0, 64, 57
1, 175460, Control_c, 0, 64, 57
1, 175501, Note_off_c, 0, 57, 61
1, 175508, Note_on_c, 0, 58, 64
1, 175508, Note_on_c, 0, 67, 68
1, 175541, Note_off_c, 0, 65, 41
1, 175549, Control_c, 0, 64, 56
1, 175564, Control_c, 0, 64, 55
1, 175592, Note_off_c, 0, 74, 63
1, 175608, Control_c, 0, 64, 53
1, 175620, Note_on_c, 0, 69, 68
1, 175623, Control_c, 0, 64, 50
1, 175628, Note_on_c, 0, 57, 57
1, 175630, Note_off_c, 0, 58, 62
1, 175637, Control_c, 0, 64, 47
1, 175649, Note_off_c, 0, 67, 62
1, 175652, Control_c, 0, 64, 45
1, 175667, Control_c, 0, 64, 42
1, 175682, Control_c, 0, 64, 36
1, 175697, Control_c, 0, 64, 33
1, 175711, Control_c, 0, 64, 29
1, 175726, Control_c, 0, 64, 25
1, 175735, Note_off_c, 0, 57, 62
1, 175739, Note_on_c, 0, 70, 72
1, 175739, Note_off_c, 0, 69, 59
1, 175741, Control_c, 0, 64, 23
1, 175747, Note_on_c, 0, 55, 56
1, 175756, Control_c, 0, 64, 21
1, 175778, Control_c, 0, 64, 21
1, 175854, Note_off_c, 0, 70, 62
1, 175854, Note_off_c, 0, 55, 63
1, 175866, Note_on_c, 0, 69, 63
1, 175869, Note_on_c, 0, 58, 60
1, 175983, Note_on_c, 0, 70, 71
1, 175990, Note_on_c, 0, 51, 55
1, 176003, Note_off_c, 0, 69, 57
1, 176009, Note_off_c, 0, 58, 59
1, 176031, Control_c, 0, 64, 21
1, 176105, Note_on_c, 0, 55, 55
1, 176105, Control_c, 0, 64, 22
1, 176117, Note_off_c, 0, 51, 57
1, 176164, Control_c, 0, 64, 23
1, 176179, Control_c, 0, 64, 23
1, 176232, Note_off_c, 0, 55, 56
1, 176242, Note_on_c, 0, 48, 56
1, 176244, Note_on_c, 0, 75, 71
1, 176254, Control_c, 0, 64, 24
1, 176268, Control_c, 0, 64, 24
1, 176283, Control_c, 0, 64, 25
1, 176298, Control_c, 0, 64, 25
1, 176342, Control_c, 0, 64, 26
1, 176357, Control_c, 0, 64, 27
1, 176361, Note_on_c, 0, 55, 57
1, 176372, Control_c, 0, 64, 27
1, 176393, Note_off_c, 0, 75, 62
1, 176415, Note_off_c, 0, 48, 59
1, 176416, Control_c, 0, 64, 28
1, 176428, Note_off_c, 0, 70, 62
1, 176446, Control_c, 0, 64, 28
1, 176497, Note_off_c, 0, 55, 63
1, 176498, Note_on_c, 0, 75, 76
1, 176501, Note_on_c, 0, 57, 60
1, 176528, Control_c, 0, 64, 29
1, 176542, Control_c, 0, 64, 29
1, 176557, Control_c, 0, 64, 30
1, 176587, Control_c, 0, 64, 30
1, 176616, Note_on_c, 0, 58, 58
1, 176617, Note_on_c, 0, 70, 68
1, 176627, Note_off_c, 0, 57, 58
1, 176661, Note_off_c, 0, 75, 62
1, 176675, Control_c, 0, 64, 31
1, 176705, Control_c, 0, 64, 31
1, 176737, Note_on_c, 0, 69, 63
1, 176742, Note_on_c, 0, 75, 72
1, 176749, Note_on_c, 0, 60, 53
1, 176757, Note_off_c, 0, 58, 53
1, 176772, Note_off_c, 0, 70, 64
1, 176795, Control_c, 0, 64, 32
1, 176819, Note_off_c, 0, 69, 56
1, 176856, Note_on_c, 0, 67, 66
1, 176856, Note_on_c, 0, 62, 55
1, 176862, Note_off_c, 0, 60, 61
1, 176904, Note_off_c, 0, 75, 61
1, 176913, Control_c, 0, 64, 32
1, 176928, Control_c, 0, 64, 33
1, 176972, Control_c, 0, 64, 33
1, 176974, Note_on_c, 0, 75, 69
1, 176977, Note_on_c, 0, 69, 65
1, 176979, Note_off_c, 0, 62, 58
1, 176987, Note_off_c, 0, 67, 41
1, 176989, Note_on_c, 0, 60, 64
1, 177076, Control_c, 0, 64, 34
1, 177090, Control_c, 0, 64, 34
1, 177092, Note_on_c, 0, 58, 60
1, 177094, Note_off_c, 0, 60, 63
1, 177097, Note_on_c, 0, 67, 67
1, 177105, Control_c, 0, 64, 35
1, 177120, Control_c, 0, 64, 36
1, 177133, Note_off_c, 0, 75, 61
1, 177134, Note_off_c, 0, 69, 63
1, 177135, Control_c, 0, 64, 37
1, 177220, Note_on_c, 0, 57, 50
1, 177222, Note_off_c, 0, 67, 63
1, 177223, Note_on_c, 0, 75, 76
1, 177244, Note_on_c, 0, 65, 40
1, 177244, Note_off_c, 0, 58, 61
1, 177290, Control_c, 0, 64, 37
1, 177350, Note_on_c, 0, 53, 52
1, 177350, Note_off_c, 0, 57, 59
1, 177350, Control_c, 0, 64, 38
1, 177354, Note_off_c, 0, 75, 60
1, 177476, Note_on_c, 0, 55, 52
1, 177476, Note_on_c, 0, 75, 73
1, 177506, Note_off_c, 0, 53, 39
1, 177579, Note_off_c, 0, 55, 63
1, 177590, Note_on_c, 0, 57, 54
1, 177646, Control_c, 0, 64, 38
1, 177687, Note_off_c, 0, 65, 49
1, 177719, Note_on_c, 0, 58, 61
1, 177720, Control_c, 0, 64, 37
1, 177735, Control_c, 0, 64, 28
1, 177738, Note_off_c, 0, 57, 53
1, 177750, Control_c, 0, 64, 9
1, 177765, Control_c, 0, 64, 0
1, 177822, Note_on_c, 0, 57, 59
1, 177824, Note_off_c, 0, 58, 63
1, 177950, Note_on_c, 0, 58, 63
1, 177951, Note_off_c, 0, 57, 60
1, 177967, Note_on_c, 0, 74, 58
1, 177975, Note_off_c, 0, 75, 56
1, 178062, Note_on_c, 0, 60, 65
1, 178074, Note_off_c, 0, 58, 62
1, 178092, Note_on_c, 0, 75, 73
1, 178112, Note_off_c, 0, 74, 60
1, 178204, Note_on_c, 0, 58, 87
1, 178211, Note_off_c, 0, 60, 64
1, 178213, Note_on_c, 0, 77, 72
1, 178232, Control_c, 0, 64, 38
1, 178246, Control_c, 0, 64, 38
1, 178248, Note_off_c, 0, 75, 58
1, 178276, Control_c, 0, 64, 40
1, 178281, Note_off_c, 0, 77, 62
1, 178291, Control_c, 0, 64, 49
1, 178306, Control_c, 0, 64, 52
1, 178328, Note_on_c, 0, 70, 58
1, 178335, Note_on_c, 0, 60, 66
1, 178350, Control_c, 0, 64, 53
1, 178366, Control_c, 0, 64, 55
1, 178396, Control_c, 0, 64, 54
1, 178410, Control_c, 0, 64, 54
1, 178425, Control_c, 0, 64, 53
1, 178440, Control_c, 0, 64, 51
1, 178447, Note_on_c, 0, 77, 59
1, 178447, Note_off_c, 0, 70, 56
1, 178451, Note_on_c, 0, 62, 58
1, 178455, Control_c, 0, 64, 47
1, 178469, Control_c, 0, 64, 41
1, 178484, Control_c, 0, 64, 33
1, 178489, Note_off_c, 0, 60, 53
1, 178499, Control_c, 0, 64, 28
1, 178514, Control_c, 0, 64, 24
1, 178529, Control_c, 0, 64, 0
1, 178538, Note_off_c, 0, 62, 64
1, 178550, Note_on_c, 0, 64, 67
1, 178566, Note_on_c, 0, 79, 62
1, 178579, Note_off_c, 0, 77, 59
1, 178606, Note_off_c, 0, 64, 62
1, 178690, Note_on_c, 0, 65, 65
1, 178692, Note_on_c, 0, 81, 56
1, 178722, Note_off_c, 0, 79, 58
1, 178802, Note_off_c, 0, 58, 60
1, 178810, Note_on_c, 0, 64, 67
1, 178814, Note_on_c, 0, 79, 68
1, 178818, Note_off_c, 0, 81, 61
1, 178915, Note_off_c, 0, 64, 63
1, 178935, Note_on_c, 0, 81, 66
1, 178939, Note_on_c, 0, 57, 81
1, 178996, Note_off_c, 0, 79, 57
1, 179062, Note_on_c, 0, 72, 66
1, 179083, Note_off_c, 0, 81, 61
1, 179092, Note_off_c, 0, 72, 68
1, 179181, Note_on_c, 0, 62, 84
1, 179182, Note_on_c, 0, 81, 72
1, 179189, Note_off_c, 0, 57, 63
1, 179203, Note_on_c, 0, 70, 72
1, 179249, Control_c, 0, 64, 18
1, 179264, Control_c, 0, 64, 29
1, 179279, Control_c, 0, 64, 36
1, 179293, Control_c, 0, 64, 44
1, 179306, Note_on_c, 0, 72, 60
1, 179308, Control_c, 0, 64, 52
1, 179323, Control_c, 0, 64, 55
1, 179338, Control_c, 0, 64, 57
1, 179348, Note_off_c, 0, 70, 35
1, 179353, Control_c, 0, 64, 58
1, 179367, Control_c, 0, 64, 60
1, 179382, Control_c, 0, 64, 63
1, 179397, Control_c, 0, 64, 65
1, 179412, Control_c, 0, 64, 67
1, 179427, Control_c, 0, 64, 68
1, 179437, Note_on_c, 0, 74, 66
1, 179441, Control_c, 0, 64, 69
1, 179451, Poly_aftertouch_c, 0, 79, 127
1, 179456, Control_c, 0, 64, 71
1, 179465, Note_on_c, 0, 70, 44
1, 179466, Note_off_c, 0, 72, 57
1, 179471, Control_c, 0, 64, 75
1, 179484, Note_off_c, 0, 65, 57
1, 179485, Control_c, 0, 64, 78
1, 179489, Note_off_c, 0, 62, 60
1, 179492, Note_off_c, 0, 70, 56
1, 179492, Poly_aftertouch_c, 0, 79, 0
1, 179496, Note_off_c, 0, 81, 44
1, 179500, Control_c, 0, 64, 80
1, 179523, Control_c, 0, 64, 80
1, 179554, Note_off_c, 0, 74, 63
1, 179554, Note_on_c, 0, 69, 68
1, 179567, Control_c, 0, 64, 81
1, 179582, Control_c, 0, 64, 81
1, 179597, Control_c, 0, 64, 83
1, 179611, Control_c, 0, 64, 87
1, 179619, Note_off_c, 0, 69, 60
1, 179626, Control_c, 0, 64, 91
1, 179641, Control_c, 0, 64, 93
1, 179656, Control_c, 0, 64, 89
1, 179671, Control_c, 0, 64, 79
1, 179685, Note_on_c, 0, 58, 83
1, 179685, Control_c, 0, 64, 66
1, 179700, Control_c, 0, 64, 55
1, 179707, Note_on_c, 0, 62, 74
1, 179715, Control_c, 0, 64, 44
1, 179718, Note_on_c, 0, 67, 61
1, 179730, Control_c, 0, 64, 24
1, 179745, Control_c, 0, 64, 0
1, 179815, Note_on_c, 0, 74, 68
1, 179938, Note_on_c, 0, 76, 73
1, 179972, Note_off_c, 0, 74, 59
1, 180042, Note_off_c, 0, 67, 45
1, 180049, Note_on_c, 0, 77, 78
1, 180057, Note_off_c, 0, 76, 60
1, 180170, Note_on_c, 0, 79, 69
1, 180182, Note_on_c, 0, 64, 82
1, 180188, Note_off_c, 0, 62, 64
1, 180194, Note_off_c, 0, 58, 62
1, 180202, Note_off_c, 0, 77, 62
1, 180299, Note_on_c, 0, 77, 76
1, 180332, Note_off_c, 0, 79, 62
1, 180417, Note_on_c, 0, 55, 87
1, 180435, Note_on_c, 0, 79, 77
1, 180460, Note_off_c, 0, 77, 61
1, 180496, Note_off_c, 0, 55, 63
1, 180542, Note_on_c, 0, 70, 71
1, 180563, Note_off_c, 0, 79, 59
1, 180668, Note_on_c, 0, 60, 87
1, 180677, Note_on_c, 0, 79, 71
1, 180699, Note_on_c, 0, 69, 44
1, 180713, Note_off_c, 0, 70, 26
1, 180791, Control_c, 0, 64, 32
1, 180793, Note_off_c, 0, 79, 61
1, 180803, Note_on_c, 0, 70, 75
1, 180806, Control_c, 0, 64, 48
1, 180820, Control_c, 0, 64, 50
1, 180835, Control_c, 0, 64, 51
1, 180850, Control_c, 0, 64, 53
1, 180865, Control_c, 0, 64, 57
1, 180871, Note_off_c, 0, 69, 41
1, 180880, Control_c, 0, 64, 60
1, 180895, Control_c, 0, 64, 61
1, 180897, Note_off_c, 0, 70, 58
1, 180910, Control_c, 0, 64, 62
1, 180920, Note_on_c, 0, 69, 50
1, 180925, Control_c, 0, 64, 63
1, 180939, Control_c, 0, 64, 66
1, 180943, Note_on_c, 0, 72, 65
1, 180954, Control_c, 0, 64, 69
1, 180966, Note_off_c, 0, 69, 63
1, 180969, Control_c, 0, 64, 73
1, 180984, Control_c, 0, 64, 77
1, 180993, Note_off_c, 0, 64, 59
1, 180999, Control_c, 0, 64, 81
1, 181020, Control_c, 0, 64, 82
1, 181043, Note_on_c, 0, 67, 71
1, 181044, Note_off_c, 0, 72, 64
1, 181065, Control_c, 0, 64, 83
1, 181065, Note_off_c, 0, 60, 51
1, 181071, Note_off_c, 0, 67, 66
1, 181080, Control_c, 0, 64, 85
1, 181095, Control_c, 0, 64, 92
1, 181110, Control_c, 0, 64, 98
1, 181124, Control_c, 0, 64, 97
1, 181139, Control_c, 0, 64, 84
1, 181154, Control_c, 0, 64, 68
1, 181167, Note_on_c, 0, 57, 71
1, 181169, Control_c, 0, 64, 52
1, 181173, Note_on_c, 0, 65, 73
1, 181174, Note_on_c, 0, 60, 75
1, 181184, Control_c, 0, 64, 26
1, 181199, Control_c, 0, 64, 0
1, 181282, Note_on_c, 0, 72, 78
1, 181402, Note_on_c, 0, 74, 76
1, 181441, Note_off_c, 0, 72, 60
1, 181523, Note_on_c, 0, 76, 74
1, 181565, Note_off_c, 0, 74, 59
1, 181633, Note_on_c, 0, 77, 76
1, 181646, Note_on_c, 0, 62, 73
1, 181650, Note_off_c, 0, 60, 59
1, 181651, Note_off_c, 0, 57, 65
1, 181657, Note_off_c, 0, 76, 63
1, 181682, Note_off_c, 0, 65, 48
1, 181759, Note_off_c, 0, 77, 61
1, 181761, Note_on_c, 0, 76, 68
1, 181881, Note_on_c, 0, 77, 69
1, 181884, Note_on_c, 0, 53, 57
1, 181946, Note_off_c, 0, 53, 61
1, 182004, Note_on_c, 0, 69, 66
1, 182009, Note_off_c, 0, 76, 24
1, 182059, Note_off_c, 0, 77, 62
1, 182060, Note_off_c, 0, 69, 59
1, 182108, Note_on_c, 0, 58, 59
1, 182126, Note_on_c, 0, 67, 45
1, 182253, Note_on_c, 0, 74, 64
1, 182272, Note_off_c, 0, 58, 62
1, 182365, Note_on_c, 0, 58, 69
1, 182372, Note_on_c, 0, 76, 71
1, 182391, Note_off_c, 0, 74, 60
1, 182467, Note_off_c, 0, 76, 65
1, 182480, Note_on_c, 0, 77, 81
1, 182520, Note_off_c, 0, 58, 65
1, 182609, Note_on_c, 0, 79, 80
1, 182611, Note_on_c, 0, 58, 68
1, 182637, Note_off_c, 0, 77, 56
1, 182716, Note_on_c, 0, 81, 83
1, 182755, Note_off_c, 0, 58, 64
1, 182760, Note_off_c, 0, 79, 62
1, 182834, Note_on_c, 0, 82, 89
1, 182839, Note_on_c, 0, 58, 67
1, 182850, Note_off_c, 0, 81, 64
1, 182952, Note_on_c, 0, 79, 81
1, 182955, Note_off_c, 0, 62, 64
1, 182977, Note_off_c, 0, 58, 63
1, 183017, Note_off_c, 0, 82, 61
1, 183077, Note_on_c, 0, 77, 75
1, 183081, Note_off_c, 0, 79, 67
1, 183083, Note_on_c, 0, 60, 66
1, 183092, Note_on_c, 0, 58, 63
1, 183189, Note_off_c, 0, 58, 62
1, 183196, Note_on_c, 0, 76, 73
1, 183210, Note_off_c, 0, 77, 60
1, 183323, Note_on_c, 0, 74, 63
1, 183336, Note_on_c, 0, 58, 69
1, 183344, Note_off_c, 0, 76, 61
1, 183405, Note_off_c, 0, 58, 63
1, 183417, Note_off_c, 0, 74, 63
1, 183429, Note_on_c, 0, 72, 56
1, 183569, Note_off_c, 0, 72, 59
1, 183572, Note_on_c, 0, 77, 67
1, 183593, Note_on_c, 0, 58, 73
1, 183632, Note_off_c, 0, 77, 63
1, 183648, Note_off_c, 0, 60, 60
1, 183818, Note_off_c, 0, 67, 35
1, 183838, Note_on_c, 0, 57, 65
1, 183844, Note_on_c, 0, 72, 63
1, 183876, Note_off_c, 0, 58, 62
1, 183902, Note_off_c, 0, 72, 64
1, 183956, Note_off_c, 0, 57, 63
1, 183962, Note_on_c, 0, 55, 62
1, 184085, Note_on_c, 0, 77, 72
1, 184089, Note_off_c, 0, 55, 60
1, 184090, Note_on_c, 0, 57, 63
1, 184195, Note_on_c, 0, 53, 64
1, 184199, Note_off_c, 0, 57, 63
1, 184203, Note_off_c, 0, 77, 60
1, 184332, Note_on_c, 0, 57, 59
1, 184338, Note_off_c, 0, 53, 56
1, 184341, Note_on_c, 0, 75, 72
1, 184440, Note_on_c, 0, 74, 72
1, 184444, Note_on_c, 0, 59, 62
1, 184445, Note_off_c, 0, 75, 58
1, 184452, Note_off_c, 0, 57, 56
1, 184560, Note_on_c, 0, 75, 78
1, 184563, Note_on_c, 0, 60, 60
1, 184564, Note_off_c, 0, 59, 64
1, 184586, Note_off_c, 0, 74, 63
1, 184670, Note_on_c, 0, 67, 64
1, 184672, Note_off_c, 0, 75, 59
1, 184675, Note_off_c, 0, 60, 64
1, 184681, Note_on_c, 0, 59, 63
1, 184811, Note_off_c, 0, 59, 60
1, 184812, Note_on_c, 0, 60, 60
1, 184818, Note_on_c, 0, 68, 65
1, 184828, Note_on_c, 0, 72, 49
1, 184830, Note_off_c, 0, 67, 61
1, 184838, Note_on_c, 0, 71, 57
1, 184898, Note_off_c, 0, 68, 56
1, 184904, Note_off_c, 0, 71, 58
1, 184922, Note_off_c, 0, 72, 64
1, 184937, Note_on_c, 0, 67, 68
1, 185015, Note_off_c, 0, 67, 61
1, 185040, Note_on_c, 0, 74, 70
1, 185055, Note_on_c, 0, 65, 64
1, 185096, Note_off_c, 0, 60, 62
1, 185140, Note_off_c, 0, 74, 61
1, 185179, Note_on_c, 0, 60, 66
1, 185269, Note_off_c, 0, 65, 58
1, 185283, Note_on_c, 0, 67, 61
1, 185292, Note_off_c, 0, 60, 65
1, 185296, Note_on_c, 0, 62, 60
1, 185304, Note_on_c, 0, 59, 55
1, 185311, Note_off_c, 0, 67, 66
1, 185328, Note_off_c, 0, 62, 65
1, 185403, Note_off_c, 0, 59, 60
1, 185407, Note_on_c, 0, 57, 55
1, 185547, Note_on_c, 0, 59, 57
1, 185547, Note_on_c, 0, 79, 72
1, 185547, Note_off_c, 0, 57, 61
1, 185665, Note_off_c, 0, 59, 63
1, 185667, Note_on_c, 0, 55, 56
1, 185786, Note_off_c, 0, 55, 57
1, 185801, Note_on_c, 0, 59, 53
1, 185804, Note_on_c, 0, 77, 77
1, 185840, Note_off_c, 0, 79, 62
1, 185903, Note_on_c, 0, 60, 59
1, 185909, Note_off_c, 0, 59, 55
1, 185915, Note_off_c, 0, 77, 62
1, 185916, Note_on_c, 0, 75, 82
1, 186022, Note_off_c, 0, 60, 63
1, 186023, Note_on_c, 0, 62, 59
1, 186039, Note_on_c, 0, 77, 83
1, 186065, Note_off_c, 0, 75, 59
1, 186142, Note_off_c, 0, 62, 62
1, 186147, Note_on_c, 0, 60, 64
1, 186150, Note_off_c, 0, 77, 58
1, 186152, Note_on_c, 0, 69, 80
1, 186278, Note_off_c, 0, 60, 64
1, 186282, Note_on_c, 0, 62, 60
1, 186291, Note_on_c, 0, 74, 79
1, 186302, Note_on_c, 0, 71, 76
1, 186305, Note_off_c, 0, 69, 56
1, 186368, Note_off_c, 0, 71, 63
1, 186382, Note_off_c, 0, 74, 63
1, 186405, Note_on_c, 0, 69, 80
1, 186528, Note_on_c, 0, 75, 70
1, 186530, Note_on_c, 0, 67, 58
1, 186532, Note_off_c, 0, 69, 56
1, 186610, Note_off_c, 0, 67, 61
1, 186665, Note_on_c, 0, 55, 62
1, 186694, Note_off_c, 0, 62, 56
1, 186714, Note_off_c, 0, 75, 55
1, 186776, Note_on_c, 0, 60, 64
1, 186776, Note_on_c, 0, 63, 58
1, 186776, Note_on_c, 0, 72, 59
1, 186791, Note_off_c, 0, 55, 62
1, 186798, Note_off_c, 0, 72, 65
1, 186808, Note_off_c, 0, 63, 65
1, 186888, Note_on_c, 0, 59, 60
1, 186895, Note_off_c, 0, 60, 63
1, 187021, Note_on_c, 0, 80, 92
1, 187030, Note_on_c, 0, 60, 66
1, 187052, Note_off_c, 0, 59, 63
1, 187147, Note_on_c, 0, 55, 64
1, 187153, Note_off_c, 0, 60, 63
1, 187261, Note_on_c, 0, 79, 74
1, 187275, Note_on_c, 0, 60, 74
1, 187319, Note_off_c, 0, 55, 61
1, 187376, Note_on_c, 0, 77, 85
1, 187381, Note_off_c, 0, 60, 65
1, 187384, Note_on_c, 0, 62, 68
1, 187386, Note_off_c, 0, 80, 58
1, 187412, Note_off_c, 0, 79, 62
1, 187504, Note_on_c, 0, 79, 91
1, 187507, Note_on_c, 0, 63, 69
1, 187536, Note_off_c, 0, 77, 61
1, 187542, Note_off_c, 0, 62, 61
1, 187620, Note_on_c, 0, 71, 84
1, 187634, Note_on_c, 0, 62, 72
1, 187635, Note_off_c, 0, 63, 63
1, 187645, Note_off_c, 0, 79, 63
1, 187734, Note_off_c, 0, 71, 62
1, 187739, Note_on_c, 0, 75, 81
1, 187753, Note_on_c, 0, 63, 74
1, 187758, Note_on_c, 0, 72, 65
1, 187772, Note_off_c, 0, 62, 58
1, 187846, Note_off_c, 0, 72, 62
1, 187864, Note_on_c, 0, 70, 80
1, 187915, Note_off_c, 0, 70, 65
1, 187992, Note_on_c, 0, 77, 88
1, 188005, Note_on_c, 0, 68, 76
1, 188039, Note_off_c, 0, 75, 61
1, 188111, Note_on_c, 0, 67, 76
1, 188120, Note_off_c, 0, 63, 58
1, 188124, Note_off_c, 0, 68, 52
1, 188237, Note_on_c, 0, 68, 85
1, 188280, Note_off_c, 0, 67, 45
1, 188353, Note_on_c, 0, 63, 80
1, 188475, Note_on_c, 0, 62, 86
1, 188484, Note_off_c, 0, 63, 62
1, 188605, Note_on_c, 0, 67, 73
1, 188621, Note_off_c, 0, 68, 60
1, 188720, Note_on_c, 0, 68, 77
1, 188730, Note_off_c, 0, 67, 62
1, 188848, Note_on_c, 0, 60, 80
1, 188857, Note_off_c, 0, 62, 58
1, 188949, Note_on_c, 0, 59, 83
1, 188982, Note_off_c, 0, 60, 64
1, 189012, Note_off_c, 0, 77, 48
1, 189068, Note_on_c, 0, 75, 77
1, 189147, Note_off_c, 0, 68, 61
1, 189154, Note_off_c, 0, 75, 62
1, 189188, Note_on_c, 0, 74, 78
1, 189224, Note_off_c, 0, 59, 62
1, 189307, Note_on_c, 0, 62, 68
1, 189314, Note_on_c, 0, 72, 81
1, 189336, Note_off_c, 0, 62, 67
1, 189349, Note_off_c, 0, 74, 59
1, 189427, Note_on_c, 0, 71, 88
1, 189431, Note_on_c, 0, 55, 76
1, 189457, Note_off_c, 0, 72, 64
1, 189549, Note_on_c, 0, 68, 72
1, 189570, Note_off_c, 0, 55, 60
1, 189658, Note_on_c, 0, 74, 77
1, 189660, Note_on_c, 0, 59, 83
1, 189670, Note_on_c, 0, 67, 65
1, 189674, Note_off_c, 0, 71, 57
1, 189690, Note_off_c, 0, 68, 60
1, 189745, Note_off_c, 0, 74, 61
1, 189778, Note_off_c, 0, 67, 63
1, 189778, Note_on_c, 0, 65, 73
1, 189799, Note_off_c, 0, 59, 63
1, 189906, Note_on_c, 0, 60, 76
1, 189906, Note_on_c, 0, 63, 85
1, 189930, Note_off_c, 0, 65, 59
1, 190025, Note_on_c, 0, 67, 75
1, 190037, Note_off_c, 0, 63, 62
1, 190062, Note_off_c, 0, 60, 61
1, 190150, Note_on_c, 0, 72, 80
1, 190157, Note_on_c, 0, 56, 67
1, 190175, Note_off_c, 0, 67, 58
1, 190254, Note_on_c, 0, 63, 71
1, 190286, Note_off_c, 0, 56, 65
1, 190342, Note_off_c, 0, 72, 58
1, 190378, Note_on_c, 0, 62, 74
1, 190384, Note_on_c, 0, 53, 74
1, 190404, Note_off_c, 0, 63, 61
1, 190494, Note_on_c, 0, 72, 80
1, 190522, Note_off_c, 0, 53, 63
1, 190532, Note_off_c, 0, 62, 61
1, 190607, Note_on_c, 0, 71, 83
1, 190615, Note_on_c, 0, 55, 73
1, 190658, Note_off_c, 0, 72, 62
1, 190720, Note_on_c, 0, 65, 70
1, 190750, Note_off_c, 0, 55, 62
1, 190806, Note_off_c, 0, 71, 58
1, 190829, Note_off_c, 0, 65, 59
1, 190871, Note_on_c, 0, 48, 70
1, 190872, Note_on_c, 0, 72, 81
1, 190991, Note_on_c, 0, 65, 68
1, 191090, Note_off_c, 0, 65, 62
1, 191104, Note_on_c, 0, 63, 62
1, 191222, Note_off_c, 0, 63, 62
1, 191231, Note_on_c, 0, 62, 64
1, 191242, Note_off_c, 0, 48, 54
1, 191283, Note_off_c, 0, 72, 61
1, 191334, Note_off_c, 0, 62, 64
1, 191375, Note_on_c, 0, 63, 100
1, 191378, Note_on_c, 0, 60, 74
1, 191378, Control_c, 0, 64, 21
1, 191393, Control_c, 0, 64, 24
1, 191408, Control_c, 0, 64, 25
1, 191422, Control_c, 0, 64, 34
1, 191437, Control_c, 0, 64, 48
1, 191452, Control_c, 0, 64, 54
1, 191467, Control_c, 0, 64, 56
1, 191482, Control_c, 0, 64, 59
1, 191504, Control_c, 0, 64, 60
1, 191511, Note_on_c, 0, 48, 60
1, 191516, Note_on_c, 0, 70, 72
1, 191637, Control_c, 0, 64, 61
1, 191640, Note_on_c, 0, 50, 65
1, 191642, Note_on_c, 0, 69, 70
1, 191652, Control_c, 0, 64, 60
1, 191660, Note_off_c, 0, 48, 47
1, 191667, Control_c, 0, 64, 58
1, 191682, Control_c, 0, 64, 57
1, 191696, Control_c, 0, 64, 56
1, 191711, Control_c, 0, 64, 54
1, 191716, Note_off_c, 0, 70, 53
1, 191726, Control_c, 0, 64, 49
1, 191740, Control_c, 0, 64, 38
1, 191747, Note_on_c, 0, 67, 70
1, 191750, Note_on_c, 0, 51, 68
1, 191755, Control_c, 0, 64, 24
1, 191760, Note_off_c, 0, 50, 60
1, 191770, Control_c, 0, 64, 0
1, 191787, Note_off_c, 0, 69, 59
1, 191863, Note_off_c, 0, 63, 62
1, 191876, Note_on_c, 0, 69, 87
1, 191880, Note_on_c, 0, 53, 69
1, 191894, Note_off_c, 0, 51, 63
1, 191894, Note_off_c, 0, 67, 61
1, 191902, Note_off_c, 0, 60, 58
1, 191988, Note_on_c, 0, 51, 65
1, 192014, Note_off_c, 0, 53, 60
1, 192115, Note_on_c, 0, 57, 69
1, 192116, Note_on_c, 0, 60, 91
1, 192129, Note_on_c, 0, 53, 69
1, 192154, Note_off_c, 0, 60, 66
1, 192186, Note_off_c, 0, 51, 55
1, 192292, Note_off_c, 0, 57, 63
1, 192318, Note_off_c, 0, 53, 62
1, 192392, Note_on_c, 0, 65, 90
1, 192401, Note_on_c, 0, 62, 81
1, 192403, Note_on_c, 0, 53, 75
1, 192414, Note_off_c, 0, 69, 63
1, 192503, Control_c, 0, 64, 30
1, 192518, Control_c, 0, 64, 42
1, 192526, Note_on_c, 0, 67, 72
1, 192533, Control_c, 0, 64, 45
1, 192548, Control_c, 0, 64, 47
1, 192562, Control_c, 0, 64, 48
1, 192577, Control_c, 0, 64, 50
1, 192592, Control_c, 0, 64, 52
1, 192607, Control_c, 0, 64, 53
1, 192622, Control_c, 0, 64, 53
1, 192631, Note_on_c, 0, 69, 75
1, 192637, Control_c, 0, 64, 55
1, 192641, Note_on_c, 0, 46, 59
1, 192652, Control_c, 0, 64, 55
1, 192658, Note_off_c, 0, 67, 62
1, 192667, Control_c, 0, 64, 56
1, 192684, Note_off_c, 0, 62, 51
1, 192696, Control_c, 0, 64, 56
1, 192711, Control_c, 0, 64, 57
1, 192742, Note_on_c, 0, 70, 76
1, 192756, Control_c, 0, 64, 58
1, 192767, Note_off_c, 0, 69, 54
1, 192771, Control_c, 0, 64, 60
1, 192786, Control_c, 0, 64, 62
1, 192801, Control_c, 0, 64, 64
1, 192816, Control_c, 0, 64, 64
1, 192830, Control_c, 0, 64, 64
1, 192845, Control_c, 0, 64, 62
1, 192859, Control_c, 0, 64, 56
1, 192874, Control_c, 0, 64, 45
1, 192883, Note_on_c, 0, 58, 86
1, 192889, Control_c, 0, 64, 25
1, 192891, Note_on_c, 0, 62, 88
1, 192893, Note_off_c, 0, 53, 60
1, 192904, Note_on_c, 0, 67, 72
1, 192904, Control_c, 0, 64, 0
1, 192916, Note_off_c, 0, 46, 58
1, 192940, Note_off_c, 0, 65, 58
1, 193012, Note_off_c, 0, 70, 30
1, 193027, Note_on_c, 0, 46, 75
1, 193155, Note_on_c, 0, 48, 68
1, 193260, Note_off_c, 0, 46, 53
1, 193280, Note_on_c, 0, 50, 68
1, 193320, Note_off_c, 0, 48, 52
1, 193367, Note_off_c, 0, 62, 61
1, 193409, Note_on_c, 0, 51, 77
1, 193431, Note_off_c, 0, 58, 60
1, 193436, Note_off_c, 0, 50, 63
1, 193519, Note_on_c, 0, 50, 65
1, 193545, Note_off_c, 0, 51, 62
1, 193649, Note_on_c, 0, 55, 70
1, 193657, Note_on_c, 0, 51, 73
1, 193657, Note_on_c, 0, 58, 86
1, 193683, Control_c, 0, 64, 36
1, 193684, Note_off_c, 0, 67, 64
1, 193698, Note_off_c, 0, 50, 61
1, 193698, Control_c, 0, 64, 43
1, 193713, Control_c, 0, 64, 47
1, 193734, Control_c, 0, 64, 53
1, 193749, Control_c, 0, 64, 59
1, 193759, Note_off_c, 0, 58, 61
1, 193764, Control_c, 0, 64, 63
1, 193779, Control_c, 0, 64, 64
1, 193792, Note_off_c, 0, 55, 63
1, 193794, Control_c, 0, 64, 65
1, 193809, Control_c, 0, 64, 67
1, 193823, Note_off_c, 0, 51, 62
1, 193823, Control_c, 0, 64, 71
1, 193838, Control_c, 0, 64, 76
1, 193853, Control_c, 0, 64, 78
1, 193868, Control_c, 0, 64, 76
1, 193883, Control_c, 0, 64, 71
1, 193898, Control_c, 0, 64, 64
1, 193913, Control_c, 0, 64, 56
1, 193927, Note_on_c, 0, 63, 88
1, 193927, Control_c, 0, 64, 45
1, 193930, Note_on_c, 0, 51, 79
1, 193942, Control_c, 0, 64, 23
1, 193942, Note_on_c, 0, 60, 81
1, 193957, Control_c, 0, 64, 0
1, 194055, Note_on_c, 0, 65, 80
1, 194134, Control_c, 0, 64, 26
1, 194149, Control_c, 0, 64, 32
1, 194160, Note_on_c, 0, 45, 66
1, 194164, Control_c, 0, 64, 37
1, 194179, Control_c, 0, 64, 44
1, 194180, Note_on_c, 0, 67, 77
1, 194194, Control_c, 0, 64, 50
1, 194204, Note_off_c, 0, 51, 64
1, 194208, Control_c, 0, 64, 53
1, 194223, Control_c, 0, 64, 54
1, 194236, Note_off_c, 0, 60, 60
1, 194238, Control_c, 0, 64, 55
1, 194247, Note_off_c, 0, 65, 56
1, 194253, Control_c, 0, 64, 56
1, 194268, Control_c, 0, 64, 58
1, 194282, Control_c, 0, 64, 59
1, 194297, Control_c, 0, 64, 60
1, 194299, Note_on_c, 0, 69, 74
1, 194312, Control_c, 0, 64, 62
1, 194327, Control_c, 0, 64, 63
1, 194342, Note_off_c, 0, 67, 58
1, 194342, Control_c, 0, 64, 66
1, 194357, Control_c, 0, 64, 68
1, 194372, Control_c, 0, 64, 70
1, 194387, Control_c, 0, 64, 70
1, 194401, Control_c, 0, 64, 65
1, 194416, Control_c, 0, 64, 55
1, 194420, Note_off_c, 0, 45, 62
1, 194431, Control_c, 0, 64, 39
1, 194432, Note_off_c, 0, 69, 57
1, 194434, Note_on_c, 0, 57, 83
1, 194434, Note_on_c, 0, 60, 89
1, 194446, Note_on_c, 0, 65, 76
1, 194446, Control_c, 0, 64, 12
1, 194461, Control_c, 0, 64, 0
1, 194503, Note_off_c, 0, 63, 57
1, 194556, Note_on_c, 0, 45, 74
1, 194700, Note_on_c, 0, 46, 66
1, 194762, Note_off_c, 0, 45, 52
1, 194820, Note_on_c, 0, 48, 70
1, 194858, Note_off_c, 0, 46, 59
1, 194956, Note_on_c, 0, 50, 75
1, 194974, Note_off_c, 0, 60, 61
1, 194978, Note_off_c, 0, 48, 64
1, 195006, Note_off_c, 0, 57, 59
1, 195075, Note_on_c, 0, 48, 69
1, 195092, Note_off_c, 0, 50, 63
1, 195209, Note_on_c, 0, 53, 68
1, 195210, Note_on_c, 0, 57, 69
1, 195217, Note_on_c, 0, 50, 68
1, 195248, Note_off_c, 0, 48, 51
1, 195370, Note_off_c, 0, 57, 63
1, 195480, Note_on_c, 0, 62, 69
1, 195489, Note_on_c, 0, 58, 69
1, 195489, Note_off_c, 0, 53, 59
1, 195526, Note_off_c, 0, 50, 63
1, 195619, Note_on_c, 0, 48, 65
1, 195621, Note_off_c, 0, 58, 56
1, 195643, Note_off_c, 0, 62, 57
1, 195721, Note_off_c, 0, 48, 62
1, 195735, Note_on_c, 0, 62, 71
1, 195738, Note_on_c, 0, 50, 59
1, 195739, Note_on_c, 0, 58, 66
1, 195848, Note_on_c, 0, 69, 66
1, 195849, Note_off_c, 0, 65, 33
1, 195856, Note_on_c, 0, 48, 63
1, 195864, Note_off_c, 0, 50, 57
1, 195879, Note_off_c, 0, 58, 51
1, 195881, Note_off_c, 0, 62, 62
1, 195990, Note_on_c, 0, 46, 64
1, 195996, Note_on_c, 0, 58, 71
1, 195996, Note_off_c, 0, 48, 64
1, 195999, Note_on_c, 0, 67, 64
1, 196002, Note_on_c, 0, 62, 72
1, 196029, Note_off_c, 0, 69, 62
1, 196106, Note_on_c, 0, 45, 70
1, 196117, Note_off_c, 0, 46, 63
1, 196163, Note_off_c, 0, 58, 58
1, 196172, Note_off_c, 0, 62, 59
1, 196226, Note_on_c, 0, 46, 72
1, 196228, Note_off_c, 0, 45, 64
1, 196243, Note_on_c, 0, 62, 73
1, 196250, Note_on_c, 0, 58, 72
1, 196308, Note_off_c, 0, 67, 62
1, 196348, Note_on_c, 0, 45, 71
1, 196348, Note_off_c, 0, 58, 0
1, 196367, Note_on_c, 0, 65, 75
1, 196369, Note_off_c, 0, 46, 63
1, 196378, Note_on_c, 0, 58, 18
1, 196409, Note_off_c, 0, 62, 62
1, 196416, Note_off_c, 0, 58, 55
1, 196488, Note_on_c, 0, 43, 66
1, 196493, Note_on_c, 0, 70, 74
1, 196496, Note_off_c, 0, 45, 63
1, 196498, Note_on_c, 0, 58, 69
1, 196500, Note_on_c, 0, 62, 75
1, 196576, Note_off_c, 0, 65, 38
1, 196615, Note_on_c, 0, 41, 70
1, 196621, Note_off_c, 0, 43, 61
1, 196631, Note_off_c, 0, 58, 62
1, 196669, Note_off_c, 0, 62, 60
1, 196747, Note_on_c, 0, 43, 68
1, 196750, Note_on_c, 0, 58, 74
1, 196756, Note_on_c, 0, 62, 61
1, 196756, Note_off_c, 0, 41, 64
1, 196804, Note_off_c, 0, 70, 63
1, 196818, Note_off_c, 0, 58, 56
1, 196862, Note_off_c, 0, 43, 61
1, 196867, Note_on_c, 0, 41, 71
1, 196868, Note_on_c, 0, 69, 77
1, 196923, Note_off_c, 0, 62, 60
1, 196980, Note_on_c, 0, 40, 61
1, 196989, Note_off_c, 0, 41, 63
1, 196994, Note_on_c, 0, 67, 67
1, 197004, Note_on_c, 0, 58, 68
1, 197004, Note_on_c, 0, 62, 53
1, 197015, Note_off_c, 0, 69, 64
1, 197056, Note_off_c, 0, 62, 61
1, 197060, Note_off_c, 0, 58, 63
1, 197087, Poly_aftertouch_c, 0, 66, 127
1, 197112, Note_on_c, 0, 36, 61
1, 197112, Note_off_c, 0, 40, 63
1, 197117, Poly_aftertouch_c, 0, 66, 0
1, 197233, Note_off_c, 0, 36, 59
1, 197242, Note_on_c, 0, 38, 53
1, 197260, Note_on_c, 0, 60, 50
1, 197268, Note_on_c, 0, 57, 39
1, 197364, Note_off_c, 0, 38, 59
1, 197371, Note_on_c, 0, 40, 56
1, 197393, Note_off_c, 0, 57, 52
1, 197393, Note_off_c, 0, 60, 56
1, 197395, Note_on_c, 0, 55, 44
1, 197511, Note_on_c, 0, 41, 53
1, 197511, Note_off_c, 0, 40, 58
1, 197528, Note_on_c, 0, 60, 53
1, 197531, Note_off_c, 0, 55, 53
1, 197540, Note_on_c, 0, 57, 26
1, 197588, Note_off_c, 0, 41, 64
1, 197595, Note_off_c, 0, 67, 42
1, 197601, Note_on_c, 0, 36, 53
1, 197635, Note_off_c, 0, 60, 36
1, 197638, Note_on_c, 0, 55, 54
1, 197653, Note_off_c, 0, 57, 35
1, 197750, Note_on_c, 0, 41, 57
1, 197756, Note_on_c, 0, 65, 48
1, 197758, Note_off_c, 0, 55, 63
1, 197767, Note_on_c, 0, 57, 62
1, 197799, Note_off_c, 0, 57, 63
1, 197803, Note_off_c, 0, 36, 60
1, 197869, Note_on_c, 0, 43, 61
1, 197876, Note_off_c, 0, 41, 64
1, 197879, Note_on_c, 0, 59, 61
1, 197974, Note_off_c, 0, 43, 61
1, 197996, Note_on_c, 0, 60, 64
1, 197998, Note_on_c, 0, 44, 75
1, 198023, Note_off_c, 0, 59, 39
1, 198035, Note_off_c, 0, 44, 65
1, 198068, Note_off_c, 0, 65, 59
1, 198109, Note_on_c, 0, 59, 61
1, 198134, Note_off_c, 0, 60, 60
1, 198256, Note_on_c, 0, 60, 70
1, 198260, Note_on_c, 0, 38, 70
1, 198289, Note_off_c, 0, 59, 58
1, 198292, Note_off_c, 0, 38, 65
1, 198367, Note_on_c, 0, 65, 68
1, 198497, Note_on_c, 0, 63, 66
1, 198515, Note_on_c, 0, 43, 55
1, 198528, Note_off_c, 0, 65, 59
1, 198610, Note_off_c, 0, 60, 61
1, 198611, Note_on_c, 0, 42, 68
1, 198624, Note_off_c, 0, 43, 60
1, 198652, Note_off_c, 0, 63, 63
1, 198738, Note_on_c, 0, 43, 68
1, 198750, Note_off_c, 0, 42, 60
1, 198751, Note_on_c, 0, 62, 62
1, 198760, Note_on_c, 0, 59, 65
1, 198848, Note_off_c, 0, 43, 62
1, 198849, Note_on_c, 0, 45, 64
1, 198857, Note_off_c, 0, 59, 62
1, 198858, Note_on_c, 0, 57, 69
1, 198949, Note_off_c, 0, 57, 63
1, 198998, Note_on_c, 0, 47, 68
1, 199012, Note_off_c, 0, 45, 64
1, 199022, Note_on_c, 0, 55, 59
1, 199122, Note_on_c, 0, 45, 76
1, 199126, Note_off_c, 0, 47, 64
1, 199126, Note_on_c, 0, 50, 64
1, 199130, Note_off_c, 0, 55, 62
1, 199205, Note_off_c, 0, 50, 62
1, 199237, Note_on_c, 0, 47, 79
1, 199240, Note_on_c, 0, 55, 77
1, 199261, Note_off_c, 0, 62, 64
1, 199272, Note_off_c, 0, 45, 64
1, 199357, Note_on_c, 0, 57, 70
1, 199365, Note_on_c, 0, 50, 79
1, 199376, Note_off_c, 0, 55, 62
1, 199402, Note_off_c, 0, 47, 63
1, 199453, Note_off_c, 0, 57, 57
1, 199475, Note_on_c, 0, 55, 84
1, 199476, Note_off_c, 0, 50, 64
1, 199481, Note_on_c, 0, 59, 75
1, 199533, Note_off_c, 0, 55, 62
1, 199593, Note_on_c, 0, 60, 83
1, 199603, Note_off_c, 0, 59, 60
1, 199730, Note_off_c, 0, 60, 63
1, 199732, Note_on_c, 0, 47, 82
1, 199738, Note_on_c, 0, 62, 75
1, 199770, Note_off_c, 0, 47, 63
1, 199853, Note_on_c, 0, 67, 80
1, 199947, Control_c, 0, 64, 9
1, 199977, Control_c, 0, 64, 12
1, 199980, Note_on_c, 0, 48, 66
1, 199985, Note_on_c, 0, 65, 85
1, 199992, Control_c, 0, 64, 17
1, 200006, Control_c, 0, 64, 21
1, 200012, Note_off_c, 0, 67, 64
1, 200012, Note_off_c, 0, 62, 49
1, 200065, Control_c, 0, 64, 21
1, 200080, Control_c, 0, 64, 0
1, 200099, Note_on_c, 0, 60, 72
1, 200208, Note_off_c, 0, 48, 39
1, 200217, Note_off_c, 0, 65, 62
1, 200226, Note_on_c, 0, 63, 73
1, 200229, Note_on_c, 0, 55, 71
1, 200271, Note_off_c, 0, 60, 62
1, 200281, Note_off_c, 0, 63, 63
1, 200313, Note_on_c, 0, 65, 72
1, 200323, Note_on_c, 0, 51, 76
1, 200332, Note_off_c, 0, 55, 64
1, 200409, Note_off_c, 0, 65, 58
1, 200491, Note_off_c, 0, 51, 63
1, 200493, Note_on_c, 0, 48, 75
1, 200495, Note_on_c, 0, 75, 95
1, 200500, Note_on_c, 0, 67, 86
1, 200532, Control_c, 0, 64, 25
1, 200547, Control_c, 0, 64, 30
1, 200562, Control_c, 0, 64, 37
1, 200576, Control_c, 0, 64, 42
1, 200591, Control_c, 0, 64, 46
1, 200606, Control_c, 0, 64, 50
1, 200615, Note_on_c, 0, 55, 71
1, 200621, Control_c, 0, 64, 53
1, 200636, Control_c, 0, 64, 53
1, 200654, Note_off_c, 0, 48, 57
1, 200665, Control_c, 0, 64, 54
1, 200695, Control_c, 0, 64, 55
1, 200710, Control_c, 0, 64, 56
1, 200744, Note_on_c, 0, 57, 69
1, 200745, Note_off_c, 0, 55, 64
1, 200864, Note_on_c, 0, 59, 70
1, 200864, Note_off_c, 0, 57, 64
1, 200963, Note_off_c, 0, 67, 64
1, 200991, Note_on_c, 0, 60, 78
1, 200992, Control_c, 0, 64, 54
1, 200993, Note_off_c, 0, 59, 64
1, 201001, Note_off_c, 0, 75, 64
1, 201007, Control_c, 0, 64, 48
1, 201022, Control_c, 0, 64, 38
1, 201037, Control_c, 0, 64, 0
1, 201104, Note_on_c, 0, 59, 77
1, 201108, Note_off_c, 0, 60, 63
1, 201215, Note_off_c, 0, 59, 64
1, 201217, Note_on_c, 0, 72, 94
1, 201232, Note_on_c, 0, 60, 79
1, 201232, Note_on_c, 0, 63, 85
1, 201259, Note_off_c, 0, 63, 65
1, 201261, Note_off_c, 0, 72, 67
1, 201330, Note_on_c, 0, 56, 77
1, 201354, Note_off_c, 0, 60, 62
1, 201471, Note_on_c, 0, 77, 100
1, 201472, Note_on_c, 0, 68, 86
1, 201475, Control_c, 0, 64, 37
1, 201481, Note_on_c, 0, 60, 77
1, 201489, Control_c, 0, 64, 44
1, 201490, Note_off_c, 0, 56, 62
1, 201504, Control_c, 0, 64, 45
1, 201519, Control_c, 0, 64, 51
1, 201535, Control_c, 0, 64, 54
1, 201565, Control_c, 0, 64, 50
1, 201579, Control_c, 0, 64, 36
1, 201594, Control_c, 0, 64, 17
1, 201609, Control_c, 0, 64, 0
1, 201613, Note_on_c, 0, 50, 66
1, 201748, Note_on_c, 0, 53, 73
1, 201785, Note_off_c, 0, 50, 61
1, 201797, Note_off_c, 0, 60, 58
1, 201806, Note_off_c, 0, 77, 59
1, 201808, Note_off_c, 0, 68, 64
1, 201866, Note_on_c, 0, 56, 69
1, 201879, Note_off_c, 0, 53, 63
1, 201985, Note_on_c, 0, 74, 95
1, 201988, Note_off_c, 0, 56, 65
1, 201993, Note_on_c, 0, 58, 74
1, 201993, Note_on_c, 0, 65, 85
1, 202045, Control_c, 0, 64, 22
1, 202060, Control_c, 0, 64, 33
1, 202075, Control_c, 0, 64, 40
1, 202090, Control_c, 0, 64, 44
1, 202104, Control_c, 0, 64, 48
1, 202116, Note_on_c, 0, 53, 66
1, 202119, Control_c, 0, 64, 50
1, 202134, Control_c, 0, 64, 51
1, 202149, Control_c, 0, 64, 52
1, 202233, Note_on_c, 0, 55, 69
1, 202253, Control_c, 0, 64, 52
1, 202260, Note_off_c, 0, 53, 62
1, 202260, Note_off_c, 0, 58, 58
1, 202268, Control_c, 0, 64, 53
1, 202357, Note_on_c, 0, 56, 69
1, 202400, Note_off_c, 0, 55, 62
1, 202436, Note_off_c, 0, 74, 64
1, 202446, Control_c, 0, 64, 50
1, 202450, Note_off_c, 0, 65, 62
1, 202461, Control_c, 0, 64, 45
1, 202476, Control_c, 0, 64, 33
1, 202480, Note_on_c, 0, 58, 68
1, 202491, Control_c, 0, 64, 0
1, 202495, Note_off_c, 0, 56, 64
1, 202595, Note_on_c, 0, 56, 73
1, 202608, Note_off_c, 0, 58, 63
1, 202729, Note_on_c, 0, 62, 81
1, 202730, Note_on_c, 0, 70, 92
1, 202733, Note_on_c, 0, 58, 76
1, 202745, Note_off_c, 0, 56, 63
1, 202761, Note_off_c, 0, 62, 67
1, 202769, Note_off_c, 0, 70, 66
1, 202845, Note_on_c, 0, 55, 74
1, 202867, Note_off_c, 0, 58, 61
1, 202957, Control_c, 0, 64, 32
1, 202971, Control_c, 0, 64, 47
1, 202985, Note_on_c, 0, 58, 78
1, 202986, Control_c, 0, 64, 39
1, 202988, Note_on_c, 0, 67, 86
1, 202988, Note_on_c, 0, 75, 92
1, 203000, Note_off_c, 0, 55, 64
1, 203001, Control_c, 0, 64, 0
1, 203100, Note_on_c, 0, 48, 69
1, 203234, Note_off_c, 0, 48, 62
1, 203234, Note_on_c, 0, 51, 76
1, 203301, Note_off_c, 0, 67, 64
1, 203318, Note_off_c, 0, 75, 48
1, 203321, Note_off_c, 0, 58, 60
1, 203347, Note_on_c, 0, 55, 71
1, 203360, Note_off_c, 0, 51, 61
1, 203486, Note_off_c, 0, 55, 65
1, 203495, Note_on_c, 0, 72, 95
1, 203498, Note_on_c, 0, 56, 76
1, 203500, Note_on_c, 0, 63, 87
1, 203527, Control_c, 0, 64, 11
1, 203542, Control_c, 0, 64, 35
1, 203556, Control_c, 0, 64, 45
1, 203571, Control_c, 0, 64, 45
1, 203615, Control_c, 0, 64, 48
1, 203624, Note_on_c, 0, 51, 70
1, 203630, Control_c, 0, 64, 53
1, 203645, Control_c, 0, 64, 54
1, 203743, Note_on_c, 0, 53, 70
1, 203772, Note_off_c, 0, 56, 63
1, 203808, Control_c, 0, 64, 53
1, 203823, Control_c, 0, 64, 51
1, 203832, Note_off_c, 0, 51, 36
1, 203838, Control_c, 0, 64, 51
1, 203866, Note_on_c, 0, 55, 75
1, 203882, Control_c, 0, 64, 50
1, 203897, Control_c, 0, 64, 48
1, 203906, Note_off_c, 0, 53, 60
1, 203912, Control_c, 0, 64, 47
1, 203914, Note_off_c, 0, 72, 65
1, 203928, Control_c, 0, 64, 46
1, 203932, Note_off_c, 0, 63, 63
1, 203943, Control_c, 0, 64, 42
1, 203958, Control_c, 0, 64, 36
1, 203972, Control_c, 0, 64, 25
1, 203987, Control_c, 0, 64, 0
1, 203988, Note_on_c, 0, 56, 74
1, 204008, Note_off_c, 0, 55, 62
1, 204104, Note_on_c, 0, 55, 74
1, 204119, Note_off_c, 0, 56, 57
1, 204229, Note_off_c, 0, 55, 64
1, 204238, Note_on_c, 0, 68, 80
1, 204241, Note_on_c, 0, 56, 76
1, 204245, Note_on_c, 0, 60, 68
1, 204271, Note_off_c, 0, 60, 67
1, 204292, Note_off_c, 0, 68, 61
1, 204351, Note_on_c, 0, 53, 68
1, 204379, Note_off_c, 0, 56, 64
1, 204478, Note_on_c, 0, 74, 80
1, 204483, Note_on_c, 0, 47, 66
1, 204483, Note_on_c, 0, 65, 76
1, 204492, Note_off_c, 0, 53, 56
1, 204510, Note_off_c, 0, 65, 66
1, 204526, Note_off_c, 0, 74, 63
1, 204609, Note_on_c, 0, 55, 68
1, 204720, Note_off_c, 0, 55, 63
1, 204731, Note_on_c, 0, 56, 69
1, 204736, Note_on_c, 0, 65, 75
1, 204736, Note_on_c, 0, 74, 78
1, 204766, Note_off_c, 0, 65, 65
1, 204772, Note_off_c, 0, 74, 65
1, 204847, Note_off_c, 0, 56, 64
1, 204847, Note_on_c, 0, 55, 61
1, 204984, Note_on_c, 0, 53, 70
1, 204985, Note_off_c, 0, 55, 62
1, 204993, Note_on_c, 0, 74, 89
1, 204998, Note_on_c, 0, 65, 81
1, 205021, Note_off_c, 0, 65, 69
1, 205029, Note_off_c, 0, 74, 66
1, 205053, Note_off_c, 0, 47, 17
1, 205098, Note_on_c, 0, 51, 72
1, 205114, Note_off_c, 0, 53, 63
1, 205237, Note_on_c, 0, 50, 75
1, 205240, Note_on_c, 0, 53, 69
1, 205240, Note_on_c, 0, 74, 89
1, 205244, Note_on_c, 0, 65, 89
1, 205250, Note_off_c, 0, 51, 64
1, 205270, Note_off_c, 0, 65, 64
1, 205278, Note_off_c, 0, 74, 66
1, 205345, Note_off_c, 0, 53, 63
1, 205353, Note_on_c, 0, 51, 84
1, 205358, Note_off_c, 0, 50, 65
1, 205467, Note_off_c, 0, 51, 65
1, 205476, Note_on_c, 0, 50, 79
1, 205484, Note_on_c, 0, 74, 90
1, 205489, Note_on_c, 0, 41, 80
1, 205490, Note_on_c, 0, 65, 87
1, 205523, Note_off_c, 0, 65, 66
1, 205531, Note_off_c, 0, 74, 66
1, 205611, Note_on_c, 0, 48, 75
1, 205614, Note_off_c, 0, 50, 62
1, 205692, Note_off_c, 0, 41, 62
1, 205732, Note_on_c, 0, 44, 72
1, 205735, Note_on_c, 0, 74, 84
1, 205742, Note_on_c, 0, 50, 81
1, 205746, Note_on_c, 0, 65, 73
1, 205747, Note_off_c, 0, 48, 64
1, 205773, Note_off_c, 0, 65, 66
1, 205778, Note_off_c, 0, 74, 65
1, 205865, Note_on_c, 0, 48, 75
1, 205875, Note_off_c, 0, 44, 64
1, 205894, Note_off_c, 0, 50, 63
1, 205976, Note_on_c, 0, 74, 79
1, 205979, Note_on_c, 0, 43, 83
1, 205981, Note_on_c, 0, 47, 82
1, 205992, Note_on_c, 0, 65, 73
1, 206006, Note_off_c, 0, 48, 65
1, 206012, Note_off_c, 0, 47, 65
1, 206015, Note_off_c, 0, 43, 63
1, 206098, Note_on_c, 0, 72, 74
1, 206131, Note_off_c, 0, 74, 62
1, 206135, Note_off_c, 0, 65, 53
1, 206188, Control_c, 0, 64, 9
1, 206224, Note_on_c, 0, 74, 72
1, 206226, Note_on_c, 0, 55, 78
1, 206227, Note_on_c, 0, 59, 81
1, 206239, Note_off_c, 0, 72, 46
1, 206252, Note_on_c, 0, 65, 61
1, 206254, Note_off_c, 0, 55, 70
1, 206261, Note_off_c, 0, 59, 64
1, 206297, Note_off_c, 0, 65, 51
1, 206350, Note_on_c, 0, 72, 71
1, 206468, Note_off_c, 0, 74, 56
1, 206474, Note_on_c, 0, 59, 80
1, 206475, Note_on_c, 0, 71, 71
1, 206481, Note_on_c, 0, 55, 70
1, 206485, Note_on_c, 0, 65, 71
1, 206507, Note_off_c, 0, 55, 66
1, 206515, Note_off_c, 0, 59, 65
1, 206515, Note_off_c, 0, 72, 59
1, 206593, Note_on_c, 0, 69, 81
1, 206602, Note_off_c, 0, 71, 55
1, 206651, Note_off_c, 0, 65, 22
1, 206713, Note_on_c, 0, 71, 76
1, 206719, Note_on_c, 0, 55, 72
1, 206723, Note_on_c, 0, 59, 74
1, 206726, Note_on_c, 0, 65, 66
1, 206734, Note_off_c, 0, 69, 61
1, 206751, Note_off_c, 0, 55, 67
1, 206757, Note_off_c, 0, 59, 66
1, 206834, Note_on_c, 0, 69, 74
1, 206877, Note_off_c, 0, 71, 54
1, 206897, Note_off_c, 0, 65, 53
1, 206960, Note_on_c, 0, 60, 78
1, 206961, Note_on_c, 0, 67, 78
1, 206962, Note_on_c, 0, 57, 75
1, 206996, Note_off_c, 0, 60, 65
1, 206998, Note_off_c, 0, 69, 61
1, 207003, Note_off_c, 0, 57, 63
1, 207073, Note_off_c, 0, 67, 62
1, 207076, Note_on_c, 0, 65, 74
1, 207100, Control_c, 0, 64, 0
1, 207200, Note_on_c, 0, 59, 73
1, 207208, Note_on_c, 0, 62, 74
1, 207217, Note_off_c, 0, 65, 57
1, 207220, Note_on_c, 0, 67, 67
1, 207318, Note_off_c, 0, 59, 64
1, 207335, Note_on_c, 0, 65, 73
1, 207448, Note_off_c, 0, 65, 56
1, 207465, Note_on_c, 0, 51, 70
1, 207512, Note_off_c, 0, 62, 62
1, 207559, Note_on_c, 0, 63, 60
1, 207705, Note_on_c, 0, 65, 62
1, 207712, Note_on_c, 0, 55, 47
1, 207729, Note_off_c, 0, 63, 49
1, 207761, Control_c, 0, 64, 13
1, 207776, Control_c, 0, 64, 27
1, 207790, Control_c, 0, 64, 41
1, 207805, Control_c, 0, 64, 50
1, 207818, Note_off_c, 0, 65, 62
1, 207820, Control_c, 0, 64, 53
1, 207829, Note_on_c, 0, 62, 65
1, 207834, Control_c, 0, 64, 56
1, 207841, Note_off_c, 0, 67, 62
1, 207849, Control_c, 0, 64, 59
1, 207857, Note_off_c, 0, 62, 66
1, 207864, Control_c, 0, 64, 63
1, 207879, Control_c, 0, 64, 66
1, 207894, Control_c, 0, 64, 68
1, 207910, Control_c, 0, 64, 68
1, 207911, Note_off_c, 0, 51, 56
1, 207925, Control_c, 0, 64, 68
1, 207938, Note_on_c, 0, 60, 52
1, 207939, Control_c, 0, 64, 66
1, 207944, Note_on_c, 0, 63, 66
1, 207954, Control_c, 0, 64, 65
1, 207968, Note_off_c, 0, 55, 52
1, 207976, Control_c, 0, 64, 62
1, 207991, Control_c, 0, 64, 59
1, 208006, Control_c, 0, 64, 54
1, 208021, Control_c, 0, 64, 51
1, 208036, Control_c, 0, 64, 49
1, 208051, Control_c, 0, 64, 46
1, 208063, Note_on_c, 0, 67, 69
1, 208065, Control_c, 0, 64, 42
1, 208071, Note_on_c, 0, 51, 56
1, 208080, Control_c, 0, 64, 37
1, 208095, Control_c, 0, 64, 34
1, 208110, Control_c, 0, 64, 32
1, 208125, Control_c, 0, 64, 28
1, 208139, Control_c, 0, 64, 18
1, 208154, Control_c, 0, 64, 0
1, 208174, Note_on_c, 0, 69, 78
1, 208197, Note_on_c, 0, 53, 68
1, 208205, Note_off_c, 0, 60, 61
1, 208239, Note_off_c, 0, 51, 51
1, 208290, Note_on_c, 0, 71, 81
1, 208292, Note_off_c, 0, 67, 58
1, 208308, Note_on_c, 0, 55, 66
1, 208327, Note_off_c, 0, 53, 62
1, 208373, Note_off_c, 0, 63, 55
1, 208403, Note_on_c, 0, 72, 81
1, 208403, Note_off_c, 0, 69, 46
1, 208414, Note_on_c, 0, 56, 71
1, 208443, Note_off_c, 0, 55, 63
1, 208470, Note_off_c, 0, 71, 57
1, 208533, Note_on_c, 0, 55, 69
1, 208546, Note_off_c, 0, 56, 64
1, 208647, Note_off_c, 0, 55, 64
1, 208654, Note_on_c, 0, 56, 77
1, 208657, Note_on_c, 0, 68, 68
1, 208666, Note_on_c, 0, 65, 55
1, 208719, Note_off_c, 0, 65, 57
1, 208754, Note_off_c, 0, 56, 62
1, 208769, Control_c, 0, 64, 38
1, 208784, Control_c, 0, 64, 46
1, 208799, Control_c, 0, 64, 47
1, 208814, Control_c, 0, 64, 50
1, 208829, Control_c, 0, 64, 55
1, 208844, Control_c, 0, 64, 59
1, 208859, Control_c, 0, 64, 60
1, 208905, Note_off_c, 0, 72, 54
1, 208920, Note_on_c, 0, 56, 59
1, 208924, Note_on_c, 0, 62, 54
1, 208925, Note_off_c, 0, 68, 62
1, 208933, Control_c, 0, 64, 59
1, 208937, Note_on_c, 0, 65, 61
1, 208948, Control_c, 0, 64, 58
1, 208962, Control_c, 0, 64, 55
1, 208977, Control_c, 0, 64, 54
1, 208992, Control_c, 0, 64, 53
1, 209007, Control_c, 0, 64, 51
1, 209022, Control_c, 0, 64, 48
1, 209036, Control_c, 0, 64, 44
1, 209051, Control_c, 0, 64, 42
1, 209066, Control_c, 0, 64, 41
1, 209081, Control_c, 0, 64, 40
1, 209095, Control_c, 0, 64, 39
1, 209110, Control_c, 0, 64, 36
1, 209125, Control_c, 0, 64, 33
1, 209140, Control_c, 0, 64, 30
1, 209155, Control_c, 0, 64, 28
1, 209169, Control_c, 0, 64, 25
1, 209183, Note_on_c, 0, 50, 55
1, 209184, Control_c, 0, 64, 20
1, 209195, Note_on_c, 0, 71, 65
1, 209199, Control_c, 0, 64, 17
1, 209214, Control_c, 0, 64, 16
1, 209228, Control_c, 0, 64, 13
1, 209229, Note_off_c, 0, 56, 61
1, 209243, Control_c, 0, 64, 9
1, 209258, Control_c, 0, 64, 0
1, 209309, Note_on_c, 0, 69, 73
1, 209323, Note_off_c, 0, 71, 56
1, 209367, Note_off_c, 0, 65, 60
1, 209373, Note_off_c, 0, 50, 62
1, 209435, Note_on_c, 0, 71, 78
1, 209440, Note_off_c, 0, 69, 57
1, 209554, Note_on_c, 0, 50, 66
1, 209565, Note_on_c, 0, 68, 76
1, 209673, Note_on_c, 0, 51, 70
1, 209680, Note_on_c, 0, 67, 73
1, 209713, Note_off_c, 0, 50, 58
1, 209714, Note_off_c, 0, 71, 59
1, 209740, Note_off_c, 0, 62, 56
1, 209762, Note_off_c, 0, 68, 56
1, 209791, Note_on_c, 0, 53, 64
1, 209798, Note_on_c, 0, 65, 74
1, 209798, Note_off_c, 0, 67, 64
1, 209801, Note_off_c, 0, 51, 59
1, 209908, Note_on_c, 0, 61, 44
1, 209925, Note_on_c, 0, 55, 66
1, 209926, Note_on_c, 0, 64, 59
1, 209929, Note_off_c, 0, 65, 58
1, 209930, Note_on_c, 0, 70, 66
1, 209953, Note_off_c, 0, 53, 60
1, 210044, Note_on_c, 0, 65, 67
1, 210045, Note_off_c, 0, 64, 60
1, 210057, Note_on_c, 0, 53, 66
1, 210063, Note_off_c, 0, 55, 59
1, 210167, Note_on_c, 0, 64, 62
1, 210171, Note_off_c, 0, 53, 61
1, 210172, Note_off_c, 0, 65, 59
1, 210177, Note_on_c, 0, 55, 64
1, 210289, Note_off_c, 0, 64, 59
1, 210296, Note_on_c, 0, 53, 66
1, 210299, Note_on_c, 0, 65, 56
1, 210311, Note_off_c, 0, 55, 59
1, 210316, Note_off_c, 0, 61, 61
1, 210415, Control_c, 0, 64, 9
1, 210421, Note_on_c, 0, 64, 57
1, 210421, Note_on_c, 0, 55, 55
1, 210430, Control_c, 0, 64, 11
1, 210433, Note_off_c, 0, 65, 60
1, 210433, Note_on_c, 0, 60, 55
1, 210435, Note_off_c, 0, 53, 55
1, 210445, Control_c, 0, 64, 12
1, 210451, Note_off_c, 0, 70, 62
1, 210564, Control_c, 0, 64, 13
1, 210668, Note_on_c, 0, 48, 52
1, 210677, Note_on_c, 0, 69, 59
1, 210785, Note_off_c, 0, 55, 37
1, 210800, Note_on_c, 0, 67, 59
1, 210823, Note_off_c, 0, 69, 60
1, 210856, Note_off_c, 0, 48, 64
1, 210859, Control_c, 0, 64, 16
1, 210874, Control_c, 0, 64, 17
1, 210904, Control_c, 0, 64, 17
1, 210919, Control_c, 0, 64, 19
1, 210928, Note_off_c, 0, 67, 60
1, 210934, Control_c, 0, 64, 21
1, 210939, Note_on_c, 0, 69, 66
1, 210982, Note_off_c, 0, 64, 36
1, 210986, Control_c, 0, 64, 21
1, 211001, Control_c, 0, 64, 22
1, 211042, Note_on_c, 0, 48, 75
1, 211059, Control_c, 0, 64, 23
1, 211068, Note_on_c, 0, 67, 57
1, 211074, Control_c, 0, 64, 23
1, 211089, Control_c, 0, 64, 24
1, 211163, Note_on_c, 0, 50, 75
1, 211194, Control_c, 0, 64, 25
1, 211196, Note_on_c, 0, 65, 66
1, 211219, Note_off_c, 0, 48, 56
1, 211224, Control_c, 0, 64, 25
1, 211231, Note_off_c, 0, 69, 63
1, 211248, Note_off_c, 0, 67, 54
1, 211253, Control_c, 0, 64, 26
1, 211268, Control_c, 0, 64, 26
1, 211270, Note_on_c, 0, 51, 77
1, 211282, Control_c, 0, 64, 28
1, 211297, Control_c, 0, 64, 29
1, 211299, Note_on_c, 0, 63, 65
1, 211299, Note_off_c, 0, 60, 64
1, 211302, Note_off_c, 0, 65, 62
1, 211312, Control_c, 0, 64, 30
1, 211317, Note_off_c, 0, 50, 61
1, 211342, Control_c, 0, 64, 31
1, 211357, Control_c, 0, 64, 33
1, 211372, Control_c, 0, 64, 35
1, 211387, Control_c, 0, 64, 35
1, 211406, Note_on_c, 0, 59, 62
1, 211412, Note_off_c, 0, 63, 58
1, 211414, Note_on_c, 0, 53, 61
1, 211415, Note_on_c, 0, 68, 62
1, 211429, Note_on_c, 0, 62, 45
1, 211434, Note_off_c, 0, 51, 63
1, 211520, Control_c, 0, 64, 35
1, 211535, Control_c, 0, 64, 33
1, 211542, Note_on_c, 0, 51, 67
1, 211544, Note_on_c, 0, 63, 55
1, 211548, Note_off_c, 0, 62, 57
1, 211550, Note_off_c, 0, 53, 61
1, 211550, Control_c, 0, 64, 32
1, 211564, Control_c, 0, 64, 32
1, 211594, Control_c, 0, 64, 31
1, 211609, Control_c, 0, 64, 29
1, 211624, Control_c, 0, 64, 28
1, 211638, Control_c, 0, 64, 27
1, 211653, Control_c, 0, 64, 26
1, 211654, Note_off_c, 0, 63, 61
1, 211666, Note_off_c, 0, 51, 62
1, 211668, Control_c, 0, 64, 24
1, 211669, Note_on_c, 0, 53, 59
1, 211669, Note_on_c, 0, 62, 51
1, 211682, Control_c, 0, 64, 23
1, 211697, Control_c, 0, 64, 20
1, 211720, Control_c, 0, 64, 18
1, 211764, Control_c, 0, 64, 16
1, 211767, Note_off_c, 0, 59, 64
1, 211779, Control_c, 0, 64, 9
1, 211792, Note_on_c, 0, 51, 66
1, 211792, Note_off_c, 0, 53, 61
1, 211794, Control_c, 0, 64, 0
1, 211798, Note_on_c, 0, 63, 51
1, 211810, Note_off_c, 0, 62, 53
1, 211917, Note_on_c, 0, 58, 51
1, 211925, Note_on_c, 0, 53, 55
1, 211934, Note_on_c, 0, 62, 48
1, 211938, Note_off_c, 0, 63, 52
1, 211979, Note_off_c, 0, 51, 33
1, 212144, Note_off_c, 0, 68, 61
1, 212178, Note_on_c, 0, 46, 58
1, 212186, Note_on_c, 0, 67, 60
1, 212203, Note_off_c, 0, 53, 64
1, 212209, Note_off_c, 0, 46, 63
1, 212220, Note_off_c, 0, 58, 64
1, 212258, Note_off_c, 0, 62, 60
1, 212288, Note_on_c, 0, 65, 55
1, 212289, Note_off_c, 0, 67, 47
1, 212309, Note_off_c, 0, 65, 61
1, 212433, Note_on_c, 0, 62, 100
1, 212436, Note_on_c, 0, 58, 83
1, 212484, Control_c, 0, 64, 37
1, 212499, Control_c, 0, 64, 40
1, 212513, Control_c, 0, 64, 44
1, 212528, Control_c, 0, 64, 51
1, 212543, Control_c, 0, 64, 58
1, 212556, Note_on_c, 0, 77, 64
1, 212558, Control_c, 0, 64, 61
1, 212564, Note_on_c, 0, 74, 68
1, 212573, Control_c, 0, 64, 62
1, 212587, Control_c, 0, 64, 61
1, 212599, Note_off_c, 0, 74, 60
1, 212623, Note_off_c, 0, 77, 63
1, 212691, Control_c, 0, 64, 62
1, 212695, Note_on_c, 0, 79, 72
1, 212706, Note_on_c, 0, 75, 69
1, 212722, Control_c, 0, 64, 61
1, 212736, Control_c, 0, 64, 61
1, 212737, Note_off_c, 0, 75, 63
1, 212740, Note_off_c, 0, 79, 65
1, 212766, Control_c, 0, 64, 61
1, 212781, Control_c, 0, 64, 61
1, 212796, Note_on_c, 0, 80, 79
1, 212800, Note_on_c, 0, 77, 79
1, 212840, Control_c, 0, 64, 61
1, 212850, Note_off_c, 0, 80, 65
1, 212851, Note_off_c, 0, 77, 62
1, 212855, Control_c, 0, 64, 60
1, 212870, Control_c, 0, 64, 58
1, 212884, Control_c, 0, 64, 49
1, 212887, Note_off_c, 0, 62, 64
1, 212899, Control_c, 0, 64, 30
1, 212907, Note_off_c, 0, 58, 64
1, 212913, Note_on_c, 0, 82, 81
1, 212914, Control_c, 0, 64, 0
1, 212922, Note_on_c, 0, 79, 79
1, 212967, Note_off_c, 0, 82, 65
1, 212969, Note_off_c, 0, 79, 65
1, 213027, Note_on_c, 0, 80, 86
1, 213034, Note_on_c, 0, 77, 87
1, 213067, Note_off_c, 0, 77, 64
1, 213084, Note_off_c, 0, 80, 65
1, 213136, Note_on_c, 0, 58, 78
1, 213143, Note_on_c, 0, 55, 72
1, 213143, Note_on_c, 0, 79, 91
1, 213145, Note_on_c, 0, 82, 88
1, 213175, Note_off_c, 0, 79, 68
1, 213183, Note_off_c, 0, 82, 66
1, 213211, Note_off_c, 0, 55, 62
1, 213232, Note_off_c, 0, 58, 63
1, 213311, Note_on_c, 0, 80, 44
1, 213334, Note_off_c, 0, 80, 56
1, 213366, Control_c, 0, 64, 50
1, 213381, Control_c, 0, 64, 56
1, 213396, Control_c, 0, 64, 55
1, 213405, Note_on_c, 0, 63, 77
1, 213410, Note_on_c, 0, 60, 77
1, 213410, Note_on_c, 0, 82, 84
1, 213410, Control_c, 0, 64, 54
1, 213413, Note_on_c, 0, 79, 81
1, 213425, Control_c, 0, 64, 48
1, 213440, Control_c, 0, 64, 24
1, 213455, Control_c, 0, 64, 0
1, 213638, Note_off_c, 0, 79, 50
1, 213685, Note_on_c, 0, 75, 79
1, 213691, Note_on_c, 0, 72, 65
1, 213705, Note_off_c, 0, 82, 59
1, 213868, Note_off_c, 0, 60, 60
1, 213888, Note_off_c, 0, 72, 56
1, 213905, Note_off_c, 0, 63, 64
1, 213925, Note_off_c, 0, 75, 56
1, 213943, Note_on_c, 0, 60, 90
1, 213948, Note_on_c, 0, 56, 82
1, 214075, Note_on_c, 0, 75, 77
1, 214078, Note_on_c, 0, 72, 64
1, 214111, Note_off_c, 0, 72, 65
1, 214134, Note_off_c, 0, 75, 62
1, 214192, Note_on_c, 0, 77, 83
1, 214198, Note_on_c, 0, 74, 67
1, 214239, Note_off_c, 0, 74, 64
1, 214243, Note_off_c, 0, 77, 61
1, 214295, Note_on_c, 0, 79, 80
1, 214305, Note_on_c, 0, 75, 73
1, 214349, Note_off_c, 0, 79, 65
1, 214357, Note_off_c, 0, 75, 61
1, 214371, Note_off_c, 0, 60, 62
1, 214402, Note_off_c, 0, 56, 65
1, 214417, Note_on_c, 0, 80, 85
1, 214424, Note_on_c, 0, 77, 81
1, 214462, Note_off_c, 0, 77, 64
1, 214468, Note_off_c, 0, 80, 64
1, 214524, Note_on_c, 0, 79, 80
1, 214532, Note_on_c, 0, 75, 77
1, 214561, Note_off_c, 0, 75, 62
1, 214571, Note_off_c, 0, 79, 65
1, 214634, Note_on_c, 0, 56, 73
1, 214641, Note_on_c, 0, 53, 61
1, 214649, Note_on_c, 0, 77, 92
1, 214655, Note_on_c, 0, 80, 76
1, 214681, Note_off_c, 0, 80, 66
1, 214684, Note_off_c, 0, 77, 64
1, 214723, Note_off_c, 0, 53, 60
1, 214740, Note_off_c, 0, 56, 62
1, 214862, Control_c, 0, 64, 41
1, 214877, Control_c, 0, 64, 49
1, 214892, Control_c, 0, 64, 51
1, 214900, Note_on_c, 0, 58, 76
1, 214900, Note_on_c, 0, 62, 77
1, 214907, Control_c, 0, 64, 51
1, 214907, Note_on_c, 0, 77, 84
1, 214908, Note_on_c, 0, 80, 83
1, 214922, Control_c, 0, 64, 50
1, 214937, Control_c, 0, 64, 41
1, 214952, Control_c, 0, 64, 0
1, 215163, Note_on_c, 0, 74, 77
1, 215177, Note_on_c, 0, 70, 66
1, 215180, Note_off_c, 0, 80, 61
1, 215193, Note_off_c, 0, 77, 56
1, 215276, Note_off_c, 0, 58, 61
1, 215366, Note_off_c, 0, 70, 54
1, 215401, Note_on_c, 0, 58, 80
1, 215402, Note_on_c, 0, 55, 74
1, 215405, Note_off_c, 0, 74, 62
1, 215411, Control_c, 0, 64, 26
1, 215426, Control_c, 0, 64, 30
1, 215431, Note_off_c, 0, 62, 62
1, 215441, Control_c, 0, 64, 36
1, 215463, Control_c, 0, 64, 44
1, 215477, Control_c, 0, 64, 47
1, 215492, Control_c, 0, 64, 49
1, 215507, Control_c, 0, 64, 53
1, 215522, Control_c, 0, 64, 57
1, 215530, Note_on_c, 0, 70, 69
1, 215534, Note_on_c, 0, 74, 63
1, 215536, Control_c, 0, 64, 59
1, 215566, Control_c, 0, 64, 59
1, 215581, Note_off_c, 0, 70, 63
1, 215581, Control_c, 0, 64, 57
1, 215596, Control_c, 0, 64, 55
1, 215611, Note_off_c, 0, 74, 60
1, 215611, Control_c, 0, 64, 53
1, 215625, Control_c, 0, 64, 49
1, 215640, Control_c, 0, 64, 43
1, 215651, Note_on_c, 0, 72, 77
1, 215655, Control_c, 0, 64, 37
1, 215660, Note_on_c, 0, 75, 78
1, 215670, Control_c, 0, 64, 32
1, 215685, Control_c, 0, 64, 31
1, 215700, Control_c, 0, 64, 31
1, 215706, Note_off_c, 0, 72, 65
1, 215711, Note_off_c, 0, 75, 61
1, 215715, Control_c, 0, 64, 30
1, 215729, Control_c, 0, 64, 26
1, 215744, Control_c, 0, 64, 23
1, 215759, Control_c, 0, 64, 22
1, 215763, Note_on_c, 0, 77, 86
1, 215771, Note_on_c, 0, 74, 75
1, 215814, Note_off_c, 0, 77, 65
1, 215817, Note_off_c, 0, 74, 58
1, 215852, Note_off_c, 0, 55, 64
1, 215857, Note_off_c, 0, 58, 63
1, 215873, Note_on_c, 0, 79, 77
1, 215885, Note_on_c, 0, 75, 78
1, 215917, Note_off_c, 0, 75, 62
1, 215928, Note_off_c, 0, 79, 64
1, 215993, Note_on_c, 0, 77, 79
1, 215997, Note_on_c, 0, 74, 67
1, 216030, Note_off_c, 0, 74, 61
1, 216039, Note_off_c, 0, 77, 62
1, 216113, Note_on_c, 0, 55, 63
1, 216114, Note_on_c, 0, 51, 68
1, 216115, Note_on_c, 0, 79, 75
1, 216118, Note_on_c, 0, 75, 68
1, 216143, Note_off_c, 0, 55, 65
1, 216149, Note_off_c, 0, 51, 65
1, 216174, Control_c, 0, 64, 21
1, 216242, Note_off_c, 0, 79, 64
1, 216322, Note_off_c, 0, 75, 60
1, 216367, Note_on_c, 0, 60, 72
1, 216371, Note_on_c, 0, 56, 71
1, 216395, Note_off_c, 0, 60, 68
1, 216398, Note_off_c, 0, 56, 67
1, 216477, Note_on_c, 0, 73, 63
1, 216597, Note_on_c, 0, 82, 62
1, 216604, Note_on_c, 0, 56, 68
1, 216605, Note_on_c, 0, 60, 69
1, 216607, Note_on_c, 0, 75, 60
1, 216629, Note_off_c, 0, 73, 58
1, 216636, Note_off_c, 0, 56, 65
1, 216636, Note_off_c, 0, 60, 67
1, 216689, Note_off_c, 0, 75, 61
1, 216689, Note_off_c, 0, 82, 63
1, 216725, Note_on_c, 0, 73, 73
1, 216831, Note_on_c, 0, 80, 68
1, 216834, Note_on_c, 0, 56, 70
1, 216839, Note_on_c, 0, 60, 65
1, 216845, Note_on_c, 0, 72, 58
1, 216866, Note_off_c, 0, 56, 69
1, 216870, Note_off_c, 0, 60, 66
1, 216931, Note_off_c, 0, 73, 38
1, 216961, Note_on_c, 0, 70, 67
1, 216963, Note_off_c, 0, 72, 60
1, 216994, Note_off_c, 0, 80, 61
1, 217026, Note_off_c, 0, 70, 57
1, 217064, Note_on_c, 0, 79, 72
1, 217076, Note_on_c, 0, 56, 78
1, 217078, Note_on_c, 0, 60, 75
1, 217081, Note_on_c, 0, 72, 60
1, 217104, Note_off_c, 0, 60, 69
1, 217107, Note_off_c, 0, 56, 67
1, 217181, Note_off_c, 0, 72, 64
1, 217184, Note_on_c, 0, 70, 77
1, 217201, Note_off_c, 0, 79, 61
1, 217213, Control_c, 0, 64, 22
1, 217240, Note_off_c, 0, 70, 65
1, 217302, Note_on_c, 0, 56, 81
1, 217309, Note_on_c, 0, 60, 79
1, 217310, Note_on_c, 0, 77, 81
1, 217318, Note_on_c, 0, 68, 72
1, 217341, Note_off_c, 0, 60, 68
1, 217347, Note_off_c, 0, 56, 63
1, 217405, Note_off_c, 0, 77, 62
1, 217414, Note_off_c, 0, 68, 54
1, 217416, Note_on_c, 0, 67, 73
1, 217532, Note_on_c, 0, 56, 81
1, 217533, Note_on_c, 0, 68, 63
1, 217536, Note_on_c, 0, 75, 74
1, 217537, Note_on_c, 0, 60, 70
1, 217540, Note_off_c, 0, 67, 52
1, 217561, Note_off_c, 0, 56, 67
1, 217566, Note_off_c, 0, 60, 68
1, 217617, Note_off_c, 0, 68, 59
1, 217654, Note_on_c, 0, 67, 66
1, 217677, Note_off_c, 0, 75, 55
1, 217727, Note_off_c, 0, 67, 55
1, 217773, Note_on_c, 0, 62, 53
1, 217775, Note_on_c, 0, 65, 71
1, 217775, Note_on_c, 0, 74, 76
1, 217787, Note_on_c, 0, 58, 56
1, 217801, Note_off_c, 0, 65, 66
1, 217813, Note_off_c, 0, 74, 65
1, 217899, Note_off_c, 0, 62, 61
1, 217907, Note_on_c, 0, 60, 61
1, 218013, Note_off_c, 0, 60, 64
1, 218019, Note_on_c, 0, 74, 71
1, 218028, Note_on_c, 0, 65, 65
1, 218029, Note_on_c, 0, 62, 56
1, 218045, Note_on_c, 0, 56, 51
1, 218070, Note_off_c, 0, 58, 50
1, 218120, Note_off_c, 0, 62, 62
1, 218139, Note_on_c, 0, 60, 63
1, 218139, Control_c, 0, 64, 23
1, 218169, Note_off_c, 0, 60, 66
1, 218184, Control_c, 0, 64, 23
1, 218186, Note_off_c, 0, 65, 61
1, 218192, Note_off_c, 0, 56, 65
1, 218228, Control_c, 0, 64, 24
1, 218261, Note_on_c, 0, 75, 79
1, 218265, Note_on_c, 0, 55, 54
1, 218278, Note_on_c, 0, 58, 58
1, 218280, Note_on_c, 0, 67, 56
1, 218287, Note_off_c, 0, 74, 66
1, 218347, Control_c, 0, 64, 24
1, 218361, Note_off_c, 0, 67, 61
1, 218362, Control_c, 0, 64, 25
1, 218374, Note_off_c, 0, 58, 60
1, 218377, Control_c, 0, 64, 25
1, 218383, Note_on_c, 0, 56, 73
1, 218392, Control_c, 0, 64, 26
1, 218406, Note_off_c, 0, 55, 59
1, 218407, Control_c, 0, 64, 26
1, 218499, Note_on_c, 0, 77, 92
1, 218506, Note_on_c, 0, 68, 83
1, 218512, Note_off_c, 0, 56, 66
1, 218516, Note_on_c, 0, 58, 58
1, 218517, Note_on_c, 0, 53, 68
1, 218520, Note_off_c, 0, 75, 62
1, 218621, Control_c, 0, 64, 27
1, 218629, Note_on_c, 0, 56, 65
1, 218630, Note_off_c, 0, 58, 60
1, 218636, Control_c, 0, 64, 28
1, 218651, Control_c, 0, 64, 29
1, 218658, Note_off_c, 0, 53, 63
1, 218663, Note_off_c, 0, 68, 61
1, 218666, Control_c, 0, 64, 30
1, 218696, Note_off_c, 0, 56, 65
1, 218739, Note_on_c, 0, 79, 88
1, 218747, Note_on_c, 0, 70, 84
1, 218749, Note_on_c, 0, 55, 76
1, 218751, Note_on_c, 0, 51, 76
1, 218821, Note_off_c, 0, 77, 53
1, 218851, Note_off_c, 0, 55, 60
1, 218856, Note_on_c, 0, 53, 72
1, 218873, Control_c, 0, 64, 29
1, 218907, Note_off_c, 0, 70, 63
1, 218933, Control_c, 0, 64, 29
1, 218977, Control_c, 0, 64, 28
1, 218981, Note_on_c, 0, 55, 77
1, 218982, Note_on_c, 0, 50, 81
1, 218987, Note_on_c, 0, 71, 84
1, 218995, Note_off_c, 0, 53, 63
1, 219007, Control_c, 0, 64, 28
1, 219018, Note_off_c, 0, 51, 61
1, 219096, Control_c, 0, 64, 27
1, 219104, Note_on_c, 0, 53, 77
1, 219144, Note_off_c, 0, 55, 57
1, 219149, Note_off_c, 0, 71, 55
1, 219155, Control_c, 0, 64, 27
1, 219160, Note_off_c, 0, 50, 63
1, 219207, Control_c, 0, 64, 26
1, 219222, Control_c, 0, 64, 26
1, 219231, Note_on_c, 0, 48, 77
1, 219235, Note_on_c, 0, 51, 90
1, 219237, Control_c, 0, 64, 25
1, 219248, Note_on_c, 0, 72, 79
1, 219251, Control_c, 0, 64, 24
1, 219253, Note_off_c, 0, 53, 64
1, 219258, Note_off_c, 0, 48, 69
1, 219265, Note_off_c, 0, 51, 66
1, 219266, Control_c, 0, 64, 23
1, 219281, Control_c, 0, 64, 23
1, 219297, Note_off_c, 0, 79, 61
1, 219311, Control_c, 0, 64, 22
1, 219319, Note_off_c, 0, 72, 62
1, 219367, Note_on_c, 0, 74, 77
1, 219381, Note_on_c, 0, 77, 75
1, 219420, Note_off_c, 0, 77, 64
1, 219423, Note_off_c, 0, 74, 62
1, 219483, Note_on_c, 0, 75, 88
1, 219487, Note_on_c, 0, 63, 95
1, 219488, Note_on_c, 0, 60, 74
1, 219496, Note_on_c, 0, 79, 68
1, 219522, Note_off_c, 0, 60, 68
1, 219528, Note_off_c, 0, 63, 66
1, 219538, Note_off_c, 0, 75, 62
1, 219556, Note_off_c, 0, 79, 58
1, 219599, Note_on_c, 0, 77, 82
1, 219601, Note_on_c, 0, 74, 78
1, 219613, Note_on_c, 0, 79, 35
1, 219640, Note_off_c, 0, 79, 55
1, 219644, Note_off_c, 0, 77, 64
1, 219650, Note_off_c, 0, 74, 60
1, 219718, Note_on_c, 0, 60, 81
1, 219718, Note_on_c, 0, 63, 79
1, 219729, Note_on_c, 0, 75, 81
1, 219730, Note_on_c, 0, 72, 82
1, 219750, Note_off_c, 0, 60, 67
1, 219754, Note_off_c, 0, 63, 63
1, 219773, Note_off_c, 0, 72, 62
1, 219787, Note_off_c, 0, 75, 63
1, 219832, Note_on_c, 0, 74, 81
1, 219840, Note_on_c, 0, 70, 83
1, 219882, Note_off_c, 0, 74, 61
1, 219893, Note_off_c, 0, 70, 62
1, 219949, Note_on_c, 0, 75, 87
1, 219956, Note_on_c, 0, 72, 81
1, 219969, Note_on_c, 0, 63, 79
1, 219969, Note_on_c, 0, 60, 80
1, 219997, Note_off_c, 0, 60, 66
1, 219999, Note_off_c, 0, 72, 61
1, 220003, Note_off_c, 0, 63, 62
1, 220019, Note_off_c, 0, 75, 61
1, 220045, Control_c, 0, 64, 23
1, 220068, Note_on_c, 0, 74, 84
1, 220071, Note_on_c, 0, 70, 81
1, 220103, Note_off_c, 0, 74, 64
1, 220109, Note_off_c, 0, 70, 65
1, 220189, Note_on_c, 0, 72, 79
1, 220193, Note_on_c, 0, 60, 81
1, 220193, Note_on_c, 0, 68, 83
1, 220198, Note_on_c, 0, 63, 76
1, 220225, Note_off_c, 0, 60, 68
1, 220230, Note_off_c, 0, 63, 65
1, 220252, Note_off_c, 0, 68, 62
1, 220274, Note_off_c, 0, 72, 59
1, 220299, Note_on_c, 0, 70, 83
1, 220303, Note_on_c, 0, 67, 80
1, 220351, Note_off_c, 0, 67, 62
1, 220354, Note_off_c, 0, 70, 63
1, 220413, Note_on_c, 0, 72, 79
1, 220415, Note_on_c, 0, 60, 79
1, 220419, Note_on_c, 0, 68, 75
1, 220420, Note_on_c, 0, 63, 71
1, 220453, Note_off_c, 0, 60, 65
1, 220455, Note_off_c, 0, 63, 64
1, 220475, Note_off_c, 0, 72, 61
1, 220482, Note_off_c, 0, 68, 57
1, 220528, Note_on_c, 0, 70, 76
1, 220530, Note_on_c, 0, 67, 77
1, 220569, Note_off_c, 0, 70, 62
1, 220571, Note_off_c, 0, 67, 62
1, 220647, Note_on_c, 0, 69, 93
1, 220656, Note_on_c, 0, 60, 74
1, 220658, Note_on_c, 0, 66, 76
1, 220663, Note_on_c, 0, 63, 67
1, 220779, Note_off_c, 0, 63, 60
1, 220782, Note_on_c, 0, 62, 76
1, 220873, Note_off_c, 0, 60, 61
1, 220899, Note_on_c, 0, 58, 73
1, 220903, Note_on_c, 0, 63, 67
1, 220910, Note_off_c, 0, 62, 61
1, 221020, Note_on_c, 0, 62, 66
1, 221039, Note_off_c, 0, 63, 56
1, 221072, Note_off_c, 0, 62, 62
1, 221089, Note_off_c, 0, 58, 64
1, 221149, Note_on_c, 0, 57, 81
1, 221154, Note_on_c, 0, 60, 71
1, 221219, Note_off_c, 0, 60, 61
1, 221231, Note_off_c, 0, 69, 60
1, 221253, Note_on_c, 0, 58, 74
1, 221291, Note_off_c, 0, 57, 57
1, 221364, Note_on_c, 0, 67, 80
1, 221368, Note_on_c, 0, 70, 86
1, 221373, Note_off_c, 0, 58, 64
1, 221378, Note_on_c, 0, 60, 64
1, 221379, Note_on_c, 0, 55, 69
1, 221400, Note_off_c, 0, 66, 62
1, 221497, Note_on_c, 0, 58, 74
1, 221498, Note_off_c, 0, 60, 62
1, 221533, Note_off_c, 0, 55, 63
1, 221540, Note_off_c, 0, 58, 61
1, 221575, Note_off_c, 0, 70, 62
1, 221586, Note_off_c, 0, 67, 58
1, 221615, Note_on_c, 0, 72, 88
1, 221621, Note_on_c, 0, 69, 82
1, 221624, Note_on_c, 0, 57, 80
1, 221641, Note_on_c, 0, 53, 61
1, 221673, Note_on_c, 0, 54, 17
1, 221721, Control_c, 0, 64, 22
1, 221730, Note_off_c, 0, 57, 64
1, 221742, Note_on_c, 0, 55, 67
1, 221769, Note_off_c, 0, 54, 31
1, 221787, Note_off_c, 0, 53, 55
1, 221842, Note_off_c, 0, 55, 63
1, 221844, Note_on_c, 0, 52, 68
1, 221850, Note_on_c, 0, 57, 68
1, 221952, Note_off_c, 0, 57, 59
1, 221960, Note_on_c, 0, 55, 71
1, 222031, Note_off_c, 0, 52, 65
1, 222036, Note_off_c, 0, 55, 63
1, 222087, Note_off_c, 0, 69, 62
1, 222092, Note_on_c, 0, 54, 68
1, 222099, Note_on_c, 0, 50, 60
1, 222151, Control_c, 0, 64, 21
1, 222241, Note_on_c, 0, 62, 68
1, 222242, Note_off_c, 0, 54, 61
1, 222267, Note_off_c, 0, 50, 53
1, 222347, Note_on_c, 0, 54, 50
1, 222349, Note_on_c, 0, 57, 61
1, 222353, Note_off_c, 0, 62, 61
1, 222355, Note_on_c, 0, 63, 70
1, 222394, Note_off_c, 0, 72, 64
1, 222440, Note_off_c, 0, 57, 63
1, 222470, Note_off_c, 0, 63, 62
1, 222471, Note_on_c, 0, 62, 74
1, 222496, Note_off_c, 0, 54, 60
1, 222583, Note_off_c, 0, 62, 54
1, 222591, Note_on_c, 0, 70, 88
1, 222595, Note_on_c, 0, 58, 62
1, 222596, Note_on_c, 0, 55, 56
1, 222618, Control_c, 0, 64, 22
1, 222684, Note_off_c, 0, 58, 57
1, 222710, Note_on_c, 0, 62, 67
1, 222711, Note_off_c, 0, 55, 60
1, 222821, Note_off_c, 0, 62, 63
1, 222832, Note_on_c, 0, 63, 72
1, 222843, Note_on_c, 0, 50, 60
1, 222849, Note_on_c, 0, 54, 61
1, 222921, Note_off_c, 0, 50, 55
1, 222924, Note_off_c, 0, 54, 60
1, 222961, Note_on_c, 0, 62, 70
1, 222997, Note_off_c, 0, 70, 59
1, 223006, Note_off_c, 0, 63, 63
1, 223084, Note_on_c, 0, 51, 66
1, 223091, Note_on_c, 0, 60, 78
1, 223093, Note_on_c, 0, 55, 65
1, 223093, Note_off_c, 0, 62, 63
1, 223189, Control_c, 0, 64, 23
1, 223206, Note_on_c, 0, 70, 80
1, 223212, Note_off_c, 0, 60, 65
1, 223248, Control_c, 0, 64, 23
1, 223263, Control_c, 0, 64, 24
1, 223278, Control_c, 0, 64, 24
1, 223321, Note_on_c, 0, 69, 75
1, 223325, Note_on_c, 0, 61, 68
1, 223367, Control_c, 0, 64, 25
1, 223376, Note_off_c, 0, 55, 64
1, 223406, Note_off_c, 0, 51, 39
1, 223442, Note_on_c, 0, 67, 78
1, 223460, Note_off_c, 0, 70, 38
1, 223467, Note_off_c, 0, 61, 54
1, 223474, Note_off_c, 0, 69, 63
1, 223543, Control_c, 0, 64, 25
1, 223558, Note_on_c, 0, 50, 76
1, 223564, Note_on_c, 0, 57, 67
1, 223565, Note_on_c, 0, 66, 83
1, 223567, Note_on_c, 0, 62, 75
1, 223584, Note_off_c, 0, 67, 60
1, 223595, Note_off_c, 0, 57, 66
1, 223612, Note_off_c, 0, 50, 64
1, 223617, Control_c, 0, 64, 26
1, 223632, Control_c, 0, 64, 27
1, 223638, Note_off_c, 0, 62, 63
1, 223666, Note_off_c, 0, 66, 63
1, 223699, Control_c, 0, 64, 28
1, 223714, Control_c, 0, 64, 29
1, 223729, Control_c, 0, 64, 30
1, 223844, Note_on_c, 0, 38, 79
1, 223886, Note_off_c, 0, 38, 62
1, 224100, Control_c, 0, 64, 30
1, 224213, Note_on_c, 0, 62, 64
1, 224326, Note_on_c, 0, 69, 49
1, 224461, Note_off_c, 0, 69, 47
1, 224465, Note_on_c, 0, 70, 58
1, 224560, Note_on_c, 0, 72, 54
1, 224562, Note_off_c, 0, 70, 58
1, 224675, Note_off_c, 0, 62, 64
1, 224681, Note_off_c, 0, 72, 62
1, 224687, Note_on_c, 0, 74, 59
1, 224784, Note_off_c, 0, 74, 62
1, 224801, Note_on_c, 0, 72, 61
1, 224917, Note_off_c, 0, 72, 59
1, 224930, Note_on_c, 0, 58, 63
1, 224932, Note_on_c, 0, 74, 73
1, 224967, Note_off_c, 0, 74, 66
1, 225111, Note_off_c, 0, 58, 59
1, 225212, Note_on_c, 0, 63, 65
1, 225214, Note_on_c, 0, 74, 65
1, 225227, Control_c, 0, 64, 30
1, 225271, Control_c, 0, 64, 29
1, 225420, Note_off_c, 0, 74, 58
1, 225488, Note_on_c, 0, 67, 57
1, 225614, Note_off_c, 0, 67, 61
1, 225698, Note_off_c, 0, 63, 63
1, 225755, Note_on_c, 0, 60, 57
1, 225874, Note_on_c, 0, 67, 67
1, 225985, Note_on_c, 0, 69, 73
1, 226014, Note_off_c, 0, 67, 42
1, 226091, Note_on_c, 0, 70, 79
1, 226120, Note_off_c, 0, 69, 60
1, 226171, Note_off_c, 0, 60, 65
1, 226217, Note_on_c, 0, 72, 75
1, 226226, Note_off_c, 0, 70, 63
1, 226308, Note_off_c, 0, 72, 65
1, 226319, Note_on_c, 0, 70, 73
1, 226440, Note_off_c, 0, 70, 57
1, 226449, Note_on_c, 0, 57, 58
1, 226449, Note_on_c, 0, 72, 69
1, 226493, Note_off_c, 0, 72, 64
1, 226633, Note_off_c, 0, 57, 58
1, 226642, Control_c, 0, 64, 30
1, 226715, Note_on_c, 0, 62, 56
1, 226719, Note_on_c, 0, 72, 62
1, 226723, Control_c, 0, 64, 25
1, 226738, Control_c, 0, 64, 9
1, 226753, Control_c, 0, 64, 0
1, 226983, Note_off_c, 0, 72, 62
1, 226986, Note_on_c, 0, 66, 57
1, 227066, Note_off_c, 0, 62, 62
1, 227163, Note_off_c, 0, 66, 60
1, 227228, Control_c, 0, 64, 29
1, 227243, Control_c, 0, 64, 38
1, 227254, Note_on_c, 0, 74, 78
1, 227257, Control_c, 0, 64, 43
1, 227265, Note_on_c, 0, 58, 52
1, 227272, Control_c, 0, 64, 49
1, 227287, Control_c, 0, 64, 52
1, 227302, Control_c, 0, 64, 55
1, 227317, Control_c, 0, 64, 56
1, 227326, Note_on_c, 0, 50, 49
1, 227367, Note_on_c, 0, 66, 62
1, 227406, Control_c, 0, 64, 55
1, 227421, Control_c, 0, 64, 54
1, 227443, Control_c, 0, 64, 54
1, 227469, Note_off_c, 0, 66, 62
1, 227472, Control_c, 0, 64, 53
1, 227474, Note_off_c, 0, 50, 56
1, 227481, Note_on_c, 0, 67, 58
1, 227484, Note_on_c, 0, 52, 53
1, 227487, Control_c, 0, 64, 51
1, 227502, Control_c, 0, 64, 48
1, 227517, Control_c, 0, 64, 45
1, 227532, Control_c, 0, 64, 43
1, 227546, Control_c, 0, 64, 41
1, 227561, Control_c, 0, 64, 37
1, 227576, Control_c, 0, 64, 28
1, 227585, Note_off_c, 0, 67, 58
1, 227591, Control_c, 0, 64, 0
1, 227603, Note_on_c, 0, 69, 65
1, 227606, Note_off_c, 0, 52, 60
1, 227615, Note_on_c, 0, 54, 46
1, 227713, Note_on_c, 0, 55, 58
1, 227716, Note_off_c, 0, 69, 62
1, 227724, Note_on_c, 0, 70, 63
1, 227727, Note_off_c, 0, 54, 56
1, 227771, Note_off_c, 0, 58, 58
1, 227817, Note_off_c, 0, 70, 61
1, 227826, Note_on_c, 0, 54, 70
1, 227835, Note_off_c, 0, 55, 63
1, 227835, Note_on_c, 0, 69, 68
1, 227935, Note_off_c, 0, 54, 51
1, 227951, Note_on_c, 0, 70, 80
1, 227951, Note_off_c, 0, 74, 62
1, 227954, Note_off_c, 0, 69, 65
1, 227958, Note_on_c, 0, 55, 66
1, 227992, Note_off_c, 0, 70, 65
1, 228068, Note_off_c, 0, 55, 63
1, 228224, Note_on_c, 0, 55, 49
1, 228232, Note_on_c, 0, 75, 82
1, 228241, Note_on_c, 0, 60, 41
1, 228241, Note_on_c, 0, 70, 62
1, 228412, Note_off_c, 0, 70, 53
1, 228480, Note_off_c, 0, 55, 63
1, 228496, Note_on_c, 0, 48, 51
1, 228514, Note_on_c, 0, 63, 61
1, 228518, Control_c, 0, 64, 28
1, 228533, Control_c, 0, 64, 50
1, 228548, Control_c, 0, 64, 60
1, 228558, Note_off_c, 0, 75, 61
1, 228563, Control_c, 0, 64, 63
1, 228578, Control_c, 0, 64, 64
1, 228588, Note_off_c, 0, 60, 57
1, 228592, Control_c, 0, 64, 65
1, 228607, Control_c, 0, 64, 69
1, 228622, Control_c, 0, 64, 75
1, 228634, Note_off_c, 0, 63, 62
1, 228637, Control_c, 0, 64, 81
1, 228652, Control_c, 0, 64, 88
1, 228664, Note_off_c, 0, 48, 56
1, 228667, Control_c, 0, 64, 101
1, 228682, Control_c, 0, 64, 127
1, 228741, Control_c, 0, 64, 95
1, 228756, Control_c, 0, 64, 82
1, 228763, Note_on_c, 0, 72, 80
1, 228767, Note_on_c, 0, 57, 58
1, 228771, Control_c, 0, 64, 72
1, 228786, Control_c, 0, 64, 67
1, 228801, Control_c, 0, 64, 62
1, 228816, Control_c, 0, 64, 58
1, 228830, Control_c, 0, 64, 54
1, 228845, Control_c, 0, 64, 47
1, 228860, Control_c, 0, 64, 32
1, 228875, Control_c, 0, 64, 0
1, 228889, Note_on_c, 0, 64, 68
1, 228891, Note_on_c, 0, 48, 54
1, 229002, Note_on_c, 0, 65, 71
1, 229004, Note_off_c, 0, 64, 57
1, 229012, Note_off_c, 0, 48, 60
1, 229013, Note_on_c, 0, 50, 59
1, 229114, Note_off_c, 0, 50, 64
1, 229117, Note_on_c, 0, 67, 69
1, 229117, Note_on_c, 0, 52, 63
1, 229209, Note_off_c, 0, 65, 36
1, 229211, Note_off_c, 0, 57, 60
1, 229233, Note_off_c, 0, 52, 62
1, 229235, Note_on_c, 0, 53, 64
1, 229236, Note_on_c, 0, 69, 72
1, 229246, Note_off_c, 0, 67, 61
1, 229331, Note_off_c, 0, 69, 63
1, 229338, Note_on_c, 0, 52, 73
1, 229347, Note_off_c, 0, 53, 62
1, 229350, Note_on_c, 0, 67, 75
1, 229353, Note_off_c, 0, 72, 64
1, 229412, Note_off_c, 0, 52, 60
1, 229460, Note_on_c, 0, 69, 83
1, 229466, Note_off_c, 0, 67, 62
1, 229478, Note_on_c, 0, 53, 73
1, 229501, Note_off_c, 0, 69, 65
1, 229598, Note_off_c, 0, 53, 63
1, 229728, Note_on_c, 0, 74, 79
1, 229738, Note_on_c, 0, 58, 63
1, 229743, Note_on_c, 0, 53, 60
1, 229760, Note_on_c, 0, 69, 64
1, 229950, Note_off_c, 0, 69, 54
1, 229971, Control_c, 0, 64, 28
1, 229985, Control_c, 0, 64, 49
1, 229991, Note_on_c, 0, 46, 54
1, 229995, Note_on_c, 0, 62, 52
1, 229998, Note_off_c, 0, 53, 61
1, 230000, Control_c, 0, 64, 56
1, 230013, Note_off_c, 0, 74, 64
1, 230015, Control_c, 0, 64, 59
1, 230030, Control_c, 0, 64, 61
1, 230045, Control_c, 0, 64, 63
1, 230059, Control_c, 0, 64, 66
1, 230074, Control_c, 0, 64, 72
1, 230089, Control_c, 0, 64, 79
1, 230104, Control_c, 0, 64, 87
1, 230117, Note_off_c, 0, 58, 63
1, 230119, Control_c, 0, 64, 102
1, 230134, Control_c, 0, 64, 127
1, 230142, Note_off_c, 0, 62, 57
1, 230154, Note_off_c, 0, 46, 58
1, 230238, Control_c, 0, 64, 100
1, 230252, Control_c, 0, 64, 82
1, 230257, Note_on_c, 0, 70, 83
1, 230267, Control_c, 0, 64, 74
1, 230268, Note_on_c, 0, 55, 61
1, 230283, Control_c, 0, 64, 69
1, 230297, Control_c, 0, 64, 65
1, 230312, Control_c, 0, 64, 61
1, 230327, Control_c, 0, 64, 57
1, 230342, Control_c, 0, 64, 52
1, 230357, Control_c, 0, 64, 48
1, 230370, Note_on_c, 0, 46, 61
1, 230372, Control_c, 0, 64, 43
1, 230387, Control_c, 0, 64, 33
1, 230391, Note_on_c, 0, 62, 60
1, 230401, Control_c, 0, 64, 21
1, 230416, Control_c, 0, 64, 9
1, 230438, Control_c, 0, 64, 0
1, 230500, Note_on_c, 0, 48, 61
1, 230507, Note_on_c, 0, 64, 66
1, 230537, Note_off_c, 0, 62, 55
1, 230572, Note_off_c, 0, 46, 52
1, 230605, Note_on_c, 0, 50, 63
1, 230612, Note_on_c, 0, 66, 68
1, 230631, Note_off_c, 0, 48, 60
1, 230633, Note_off_c, 0, 64, 59
1, 230688, Note_off_c, 0, 55, 55
1, 230735, Note_on_c, 0, 51, 65
1, 230736, Note_off_c, 0, 66, 59
1, 230740, Note_on_c, 0, 67, 63
1, 230742, Note_off_c, 0, 50, 61
1, 230754, Note_off_c, 0, 70, 59
1, 230833, Note_off_c, 0, 67, 61
1, 230837, Note_off_c, 0, 51, 64
1, 230847, Note_on_c, 0, 66, 68
1, 230849, Note_on_c, 0, 50, 61
1, 230989, Note_on_c, 0, 58, 68
1, 230990, Note_on_c, 0, 51, 61
1, 230992, Note_on_c, 0, 67, 73
1, 230998, Note_off_c, 0, 66, 58
1, 231010, Note_off_c, 0, 50, 52
1, 231199, Note_off_c, 0, 58, 63
1, 231238, Note_on_c, 0, 57, 57
1, 231257, Note_on_c, 0, 72, 71
1, 231357, Note_off_c, 0, 57, 64
1, 231373, Note_off_c, 0, 67, 62
1, 231383, Note_on_c, 0, 50, 54
1, 231404, Note_off_c, 0, 72, 62
1, 231405, Note_off_c, 0, 51, 63
1, 231496, Note_on_c, 0, 55, 31
1, 231499, Note_on_c, 0, 70, 69
1, 231502, Note_on_c, 0, 72, 74
1, 231517, Note_on_c, 0, 51, 69
1, 231517, Note_off_c, 0, 50, 58
1, 231575, Note_off_c, 0, 55, 61
1, 231608, Note_off_c, 0, 70, 60
1, 231627, Note_off_c, 0, 51, 59
1, 231633, Note_on_c, 0, 50, 63
1, 231639, Note_off_c, 0, 72, 40
1, 231745, Note_on_c, 0, 69, 71
1, 231746, Note_on_c, 0, 72, 83
1, 231749, Note_off_c, 0, 50, 64
1, 231751, Note_on_c, 0, 63, 69
1, 231761, Note_on_c, 0, 48, 55
1, 231860, Note_off_c, 0, 72, 59
1, 231875, Note_on_c, 0, 46, 66
1, 231880, Note_off_c, 0, 48, 61
1, 231889, Note_off_c, 0, 63, 57
1, 231971, Note_off_c, 0, 69, 58
1, 231997, Note_on_c, 0, 72, 83
1, 232005, Note_on_c, 0, 48, 73
1, 232008, Note_on_c, 0, 63, 75
1, 232009, Note_on_c, 0, 67, 74
1, 232011, Note_off_c, 0, 46, 63
1, 232088, Note_off_c, 0, 67, 61
1, 232113, Note_on_c, 0, 46, 80
1, 232128, Note_off_c, 0, 48, 62
1, 232144, Control_c, 0, 64, 18
1, 232156, Note_off_c, 0, 63, 57
1, 232159, Control_c, 0, 64, 25
1, 232167, Note_off_c, 0, 72, 57
1, 232174, Control_c, 0, 64, 29
1, 232189, Control_c, 0, 64, 29
1, 232203, Control_c, 0, 64, 29
1, 232218, Control_c, 0, 64, 29
1, 232244, Note_on_c, 0, 45, 76
1, 232254, Note_on_c, 0, 66, 66
1, 232256, Note_on_c, 0, 72, 93
1, 232263, Note_on_c, 0, 63, 82
1, 232268, Note_off_c, 0, 46, 63
1, 232368, Note_on_c, 0, 43, 78
1, 232396, Note_off_c, 0, 45, 63
1, 232398, Note_off_c, 0, 63, 50
1, 232421, Note_off_c, 0, 72, 58
1, 232423, Note_off_c, 0, 66, 59
1, 232495, Note_on_c, 0, 45, 83
1, 232500, Note_on_c, 0, 63, 85
1, 232501, Note_on_c, 0, 72, 92
1, 232506, Note_on_c, 0, 67, 80
1, 232520, Note_off_c, 0, 43, 64
1, 232559, Control_c, 0, 64, 30
1, 232573, Control_c, 0, 64, 30
1, 232594, Note_off_c, 0, 63, 56
1, 232603, Note_on_c, 0, 43, 75
1, 232603, Note_off_c, 0, 72, 58
1, 232618, Control_c, 0, 64, 32
1, 232629, Note_off_c, 0, 45, 62
1, 232633, Control_c, 0, 64, 36
1, 232647, Control_c, 0, 64, 38
1, 232652, Note_off_c, 0, 67, 59
1, 232662, Control_c, 0, 64, 39
1, 232730, Control_c, 0, 64, 34
1, 232745, Control_c, 0, 64, 0
1, 232765, Note_off_c, 0, 43, 62
1, 232768, Note_on_c, 0, 42, 76
1, 232772, Note_on_c, 0, 72, 97
1, 232776, Note_on_c, 0, 62, 89
1, 232776, Note_on_c, 0, 69, 89
1, 232828, Note_on_c, 0, 71, 22
1, 232865, Note_off_c, 0, 71, 31
1, 233249, Note_off_c, 0, 72, 61
1, 233265, Note_off_c, 0, 62, 62
1, 233267, Note_off_c, 0, 69, 65
1, 233284, Note_off_c, 0, 42, 63
1, 233494, Control_c, 0, 64, 26
1, 233508, Note_on_c, 0, 74, 89
1, 233508, Control_c, 0, 64, 55
1, 233511, Note_on_c, 0, 66, 82
1, 233516, Note_on_c, 0, 62, 82
1, 233517, Note_on_c, 0, 38, 82
1, 233523, Control_c, 0, 64, 66
1, 233538, Control_c, 0, 64, 71
1, 233553, Control_c, 0, 64, 77
1, 233558, Note_off_c, 0, 62, 61
1, 233559, Note_off_c, 0, 74, 66
1, 233565, Note_off_c, 0, 66, 65
1, 233568, Note_off_c, 0, 38, 62
1, 233568, Control_c, 0, 64, 84
1, 233582, Control_c, 0, 64, 107
1, 233597, Control_c, 0, 64, 127
1, 233746, Control_c, 0, 64, 119
1, 233761, Control_c, 0, 64, 78
1, 233775, Control_c, 0, 64, 60
1, 233790, Note_on_c, 0, 43, 87
1, 233790, Note_on_c, 0, 70, 95
1, 233790, Control_c, 0, 64, 0
1, 233791, Note_on_c, 0, 67, 88
1, 233792, Note_on_c, 0, 62, 84
1, 234256, Note_off_c, 0, 62, 63
1, 234280, Note_off_c, 0, 70, 61
1, 234280, Note_off_c, 0, 67, 59
1, 234304, Note_off_c, 0, 43, 64
1, 234509, Note_on_c, 0, 72, 83
1, 234518, Note_on_c, 0, 63, 75
1, 234522, Note_on_c, 0, 48, 93
1, 234522, Note_on_c, 0, 69, 73
1, 234553, Control_c, 0, 64, 35
1, 234563, Note_off_c, 0, 48, 65
1, 234568, Control_c, 0, 64, 52
1, 234583, Control_c, 0, 64, 58
1, 234590, Note_off_c, 0, 69, 62
1, 234597, Control_c, 0, 64, 61
1, 234602, Note_off_c, 0, 72, 61
1, 234612, Control_c, 0, 64, 63
1, 234617, Note_off_c, 0, 63, 57
1, 234627, Control_c, 0, 64, 66
1, 234641, Control_c, 0, 64, 71
1, 234656, Control_c, 0, 64, 76
1, 234671, Control_c, 0, 64, 81
1, 234686, Control_c, 0, 64, 90
1, 234701, Control_c, 0, 64, 127
1, 234760, Control_c, 0, 64, 116
1, 234769, Note_on_c, 0, 50, 92
1, 234769, Note_on_c, 0, 70, 87
1, 234775, Control_c, 0, 64, 72
1, 234776, Note_on_c, 0, 62, 79
1, 234776, Note_on_c, 0, 67, 80
1, 234790, Control_c, 0, 64, 47
1, 234805, Control_c, 0, 64, 0
1, 234930, Control_c, 0, 64, 25
1, 234945, Control_c, 0, 64, 40
1, 234960, Control_c, 0, 64, 45
1, 234975, Control_c, 0, 64, 48
1, 234975, Note_off_c, 0, 70, 60
1, 234989, Control_c, 0, 64, 50
1, 235004, Control_c, 0, 64, 56
1, 235019, Control_c, 0, 64, 60
1, 235034, Control_c, 0, 64, 63
1, 235040, Note_on_c, 0, 69, 83
1, 235049, Control_c, 0, 64, 65
1, 235064, Control_c, 0, 64, 67
1, 235079, Control_c, 0, 64, 70
1, 235083, Note_off_c, 0, 67, 60
1, 235094, Control_c, 0, 64, 76
1, 235109, Control_c, 0, 64, 83
1, 235123, Note_off_c, 0, 69, 60
1, 235124, Control_c, 0, 64, 89
1, 235139, Control_c, 0, 64, 94
1, 235140, Note_off_c, 0, 62, 53
1, 235153, Control_c, 0, 64, 100
1, 235168, Control_c, 0, 64, 109
1, 235183, Control_c, 0, 64, 127
1, 235282, Note_off_c, 0, 50, 58
1, 235302, Control_c, 0, 64, 113
1, 235314, Note_on_c, 0, 69, 87
1, 235316, Note_on_c, 0, 60, 83
1, 235317, Note_on_c, 0, 38, 77
1, 235317, Note_on_c, 0, 66, 76
1, 235317, Control_c, 0, 64, 72
1, 235332, Control_c, 0, 64, 51
1, 235346, Control_c, 0, 64, 0
1, 235391, Control_c, 0, 64, 39
1, 235406, Control_c, 0, 64, 57
1, 235420, Control_c, 0, 64, 63
1, 235435, Control_c, 0, 64, 68
1, 235450, Control_c, 0, 64, 76
1, 235464, Control_c, 0, 64, 89
1, 235479, Control_c, 0, 64, 127
1, 235507, Note_off_c, 0, 38, 58
1, 235567, Note_on_c, 0, 67, 83
1, 235574, Note_off_c, 0, 69, 56
1, 235591, Note_off_c, 0, 60, 63
1, 235595, Note_off_c, 0, 66, 63
1, 235635, Note_off_c, 0, 67, 61
1, 235861, Note_on_c, 0, 43, 55
1, 235863, Note_on_c, 0, 67, 81
1, 235869, Note_on_c, 0, 62, 69
1, 235872, Note_on_c, 0, 58, 74
1, 235873, Control_c, 0, 64, 95
1, 235888, Control_c, 0, 64, 75
1, 235902, Control_c, 0, 64, 64
1, 235917, Control_c, 0, 64, 53
1, 235932, Control_c, 0, 64, 30
1, 235947, Control_c, 0, 64, 0
1, 235988, Note_on_c, 0, 50, 62
1, 236064, Note_off_c, 0, 43, 56
1, 236101, Note_on_c, 0, 52, 61
1, 236113, Note_off_c, 0, 50, 63
1, 236200, Note_off_c, 0, 58, 60
1, 236221, Note_on_c, 0, 54, 69
1, 236225, Note_off_c, 0, 62, 63
1, 236238, Note_off_c, 0, 52, 62
1, 236266, Note_off_c, 0, 67, 64
1, 236349, Note_on_c, 0, 55, 64
1, 236360, Note_off_c, 0, 54, 59
1, 236476, Note_on_c, 0, 54, 71
1, 236478, Note_off_c, 0, 55, 63
1, 236489, Note_on_c, 0, 69, 69
1, 236605, Note_on_c, 0, 70, 71
1, 236605, Control_c, 0, 64, 11
1, 236608, Note_on_c, 0, 55, 66
1, 236620, Control_c, 0, 64, 28
1, 236623, Note_off_c, 0, 54, 61
1, 236632, Note_off_c, 0, 69, 57
1, 236635, Control_c, 0, 64, 34
1, 236650, Control_c, 0, 64, 46
1, 236665, Control_c, 0, 64, 55
1, 236680, Control_c, 0, 64, 59
1, 236695, Control_c, 0, 64, 61
1, 236710, Control_c, 0, 64, 61
1, 236724, Control_c, 0, 64, 63
1, 236725, Note_on_c, 0, 72, 71
1, 236729, Note_off_c, 0, 55, 63
1, 236739, Control_c, 0, 64, 64
1, 236754, Control_c, 0, 64, 66
1, 236766, Note_off_c, 0, 70, 60
1, 236769, Control_c, 0, 64, 67
1, 236814, Control_c, 0, 64, 66
1, 236829, Control_c, 0, 64, 66
1, 236843, Control_c, 0, 64, 65
1, 236853, Note_on_c, 0, 55, 74
1, 236858, Control_c, 0, 64, 64
1, 236860, Note_on_c, 0, 74, 68
1, 236873, Control_c, 0, 64, 61
1, 236881, Note_off_c, 0, 72, 61
1, 236888, Control_c, 0, 64, 60
1, 236903, Control_c, 0, 64, 59
1, 236917, Control_c, 0, 64, 58
1, 236932, Control_c, 0, 64, 56
1, 236947, Control_c, 0, 64, 54
1, 236962, Control_c, 0, 64, 52
1, 236977, Control_c, 0, 64, 52
1, 236979, Note_on_c, 0, 57, 74
1, 236984, Note_off_c, 0, 74, 63
1, 236987, Note_on_c, 0, 72, 77
1, 237006, Control_c, 0, 64, 51
1, 237021, Control_c, 0, 64, 48
1, 237036, Control_c, 0, 64, 45
1, 237050, Control_c, 0, 64, 43
1, 237065, Control_c, 0, 64, 43
1, 237080, Control_c, 0, 64, 41
1, 237091, Note_off_c, 0, 72, 60
1, 237092, Note_on_c, 0, 58, 78
1, 237095, Control_c, 0, 64, 33
1, 237099, Note_on_c, 0, 74, 75
1, 237109, Control_c, 0, 64, 20
1, 237124, Control_c, 0, 64, 0
1, 237168, Note_off_c, 0, 57, 57
1, 237222, Note_on_c, 0, 60, 74
1, 237223, Note_on_c, 0, 75, 79
1, 237229, Note_off_c, 0, 74, 54
1, 237269, Note_off_c, 0, 75, 60
1, 237329, Note_off_c, 0, 58, 53
1, 237343, Note_off_c, 0, 60, 65
1, 237347, Note_on_c, 0, 62, 67
1, 237349, Note_on_c, 0, 69, 80
1, 237446, Note_off_c, 0, 62, 62
1, 237455, Note_on_c, 0, 61, 65
1, 237470, Note_on_c, 0, 64, 73
1, 237497, Note_off_c, 0, 55, 63
1, 237584, Note_off_c, 0, 61, 58
1, 237588, Note_on_c, 0, 53, 66
1, 237589, Note_on_c, 0, 65, 73
1, 237592, Note_on_c, 0, 62, 55
1, 237606, Note_off_c, 0, 69, 61
1, 237615, Note_off_c, 0, 64, 56
1, 237712, Note_on_c, 0, 67, 75
1, 237724, Note_off_c, 0, 65, 58
1, 237814, Control_c, 0, 64, 32
1, 237827, Note_on_c, 0, 69, 76
1, 237829, Control_c, 0, 64, 48
1, 237840, Note_off_c, 0, 67, 61
1, 237844, Control_c, 0, 64, 54
1, 237859, Control_c, 0, 64, 57
1, 237863, Note_off_c, 0, 69, 65
1, 237873, Control_c, 0, 64, 60
1, 237888, Control_c, 0, 64, 64
1, 237903, Control_c, 0, 64, 67
1, 237926, Control_c, 0, 64, 70
1, 237941, Control_c, 0, 64, 73
1, 237955, Control_c, 0, 64, 76
1, 237956, Note_on_c, 0, 70, 70
1, 237966, Note_on_c, 0, 67, 64
1, 237970, Control_c, 0, 64, 83
1, 237985, Control_c, 0, 64, 96
1, 238000, Control_c, 0, 64, 116
1, 238001, Note_off_c, 0, 67, 62
1, 238015, Control_c, 0, 64, 127
1, 238029, Control_c, 0, 64, 113
1, 238044, Control_c, 0, 64, 107
1, 238059, Control_c, 0, 64, 103
1, 238073, Control_c, 0, 64, 98
1, 238078, Note_on_c, 0, 69, 68
1, 238084, Note_on_c, 0, 57, 76
1, 238086, Note_on_c, 0, 72, 78
1, 238088, Control_c, 0, 64, 86
1, 238103, Control_c, 0, 64, 77
1, 238118, Control_c, 0, 64, 70
1, 238119, Note_off_c, 0, 62, 62
1, 238127, Note_off_c, 0, 70, 59
1, 238133, Control_c, 0, 64, 66
1, 238147, Control_c, 0, 64, 64
1, 238162, Control_c, 0, 64, 62
1, 238177, Control_c, 0, 64, 59
1, 238191, Note_on_c, 0, 74, 82
1, 238191, Control_c, 0, 64, 54
1, 238194, Note_on_c, 0, 59, 75
1, 238206, Control_c, 0, 64, 45
1, 238219, Note_off_c, 0, 72, 61
1, 238221, Control_c, 0, 64, 28
1, 238236, Control_c, 0, 64, 0
1, 238274, Note_off_c, 0, 57, 46
1, 238304, Note_on_c, 0, 60, 83
1, 238307, Note_off_c, 0, 74, 66
1, 238311, Note_on_c, 0, 75, 82
1, 238328, Note_off_c, 0, 59, 65
1, 238394, Note_off_c, 0, 69, 62
1, 238422, Note_on_c, 0, 59, 86
1, 238423, Note_on_c, 0, 74, 78
1, 238438, Note_off_c, 0, 60, 64
1, 238444, Note_off_c, 0, 75, 50
1, 238543, Note_on_c, 0, 75, 83
1, 238543, Note_off_c, 0, 74, 62
1, 238553, Note_on_c, 0, 68, 73
1, 238554, Note_on_c, 0, 60, 73
1, 238587, Note_off_c, 0, 59, 63
1, 238672, Note_on_c, 0, 77, 78
1, 238716, Note_off_c, 0, 68, 63
1, 238721, Note_off_c, 0, 75, 59
1, 238778, Control_c, 0, 64, 45
1, 238784, Note_off_c, 0, 77, 36
1, 238793, Control_c, 0, 64, 59
1, 238796, Note_off_c, 0, 60, 65
1, 238797, Note_on_c, 0, 62, 72
1, 238801, Note_on_c, 0, 67, 68
1, 238802, Note_on_c, 0, 71, 65
1, 238803, Note_off_c, 0, 53, 62
1, 238808, Control_c, 0, 64, 58
1, 238833, Note_off_c, 0, 62, 62
1, 238837, Control_c, 0, 64, 59
1, 238848, Note_off_c, 0, 67, 60
1, 238852, Control_c, 0, 64, 62
1, 238867, Control_c, 0, 64, 65
1, 238882, Control_c, 0, 64, 67
1, 238896, Control_c, 0, 64, 70
1, 238911, Control_c, 0, 64, 76
1, 238920, Note_on_c, 0, 47, 77
1, 238921, Note_on_c, 0, 67, 71
1, 238924, Note_off_c, 0, 71, 60
1, 238926, Control_c, 0, 64, 89
1, 238941, Control_c, 0, 64, 108
1, 238956, Control_c, 0, 64, 127
1, 239029, Control_c, 0, 64, 108
1, 239034, Note_on_c, 0, 48, 78
1, 239043, Note_on_c, 0, 69, 85
1, 239044, Control_c, 0, 64, 97
1, 239060, Control_c, 0, 64, 92
1, 239062, Note_off_c, 0, 67, 59
1, 239073, Note_off_c, 0, 47, 60
1, 239075, Control_c, 0, 64, 88
1, 239090, Control_c, 0, 64, 85
1, 239105, Control_c, 0, 64, 80
1, 239119, Control_c, 0, 64, 74
1, 239134, Control_c, 0, 64, 70
1, 239148, Note_on_c, 0, 50, 76
1, 239149, Control_c, 0, 64, 68
1, 239156, Note_on_c, 0, 71, 83
1, 239163, Note_off_c, 0, 48, 63
1, 239164, Control_c, 0, 64, 67
1, 239179, Control_c, 0, 64, 65
1, 239193, Control_c, 0, 64, 63
1, 239204, Note_off_c, 0, 69, 59
1, 239208, Control_c, 0, 64, 62
1, 239223, Control_c, 0, 64, 60
1, 239238, Control_c, 0, 64, 58
1, 239254, Control_c, 0, 64, 54
1, 239262, Note_on_c, 0, 51, 82
1, 239268, Control_c, 0, 64, 48
1, 239271, Note_off_c, 0, 50, 64
1, 239279, Note_on_c, 0, 72, 88
1, 239283, Control_c, 0, 64, 39
1, 239298, Control_c, 0, 64, 30
1, 239308, Note_off_c, 0, 71, 63
1, 239312, Control_c, 0, 64, 18
1, 239327, Control_c, 0, 64, 0
1, 239386, Note_on_c, 0, 71, 87
1, 239388, Note_on_c, 0, 50, 82
1, 239388, Note_off_c, 0, 51, 65
1, 239423, Note_off_c, 0, 72, 64
1, 239504, Note_on_c, 0, 51, 78
1, 239511, Note_on_c, 0, 72, 87
1, 239520, Note_off_c, 0, 71, 52
1, 239526, Note_off_c, 0, 50, 63
1, 239619, Note_on_c, 0, 70, 87
1, 239620, Note_on_c, 0, 62, 71
1, 239649, Note_off_c, 0, 72, 64
1, 239750, Note_on_c, 0, 60, 74
1, 239750, Note_on_c, 0, 72, 89
1, 239751, Note_on_c, 0, 69, 77
1, 239786, Note_off_c, 0, 62, 61
1, 239788, Note_off_c, 0, 70, 63
1, 239860, Note_on_c, 0, 58, 76
1, 239869, Control_c, 0, 64, 21
1, 239869, Note_on_c, 0, 67, 77
1, 239884, Control_c, 0, 64, 50
1, 239899, Control_c, 0, 64, 61
1, 239899, Note_off_c, 0, 69, 53
1, 239905, Note_off_c, 0, 60, 61
1, 239913, Note_off_c, 0, 72, 64
1, 239914, Control_c, 0, 64, 66
1, 239929, Control_c, 0, 64, 70
1, 239943, Control_c, 0, 64, 71
1, 239958, Control_c, 0, 64, 66
1, 239973, Control_c, 0, 64, 59
1, 239987, Note_on_c, 0, 72, 97
1, 239988, Note_on_c, 0, 60, 74
1, 239988, Control_c, 0, 64, 49
1, 240000, Note_on_c, 0, 69, 84
1, 240002, Control_c, 0, 64, 50
1, 240012, Note_off_c, 0, 58, 62
1, 240016, Control_c, 0, 64, 56
1, 240019, Note_off_c, 0, 67, 54
1, 240031, Control_c, 0, 64, 63
1, 240046, Control_c, 0, 64, 65
1, 240060, Control_c, 0, 64, 66
1, 240095, Note_off_c, 0, 69, 64
1, 240096, Note_on_c, 0, 58, 75
1, 240104, Note_on_c, 0, 67, 76
1, 240117, Note_off_c, 0, 60, 60
1, 240126, Note_off_c, 0, 72, 64
1, 240134, Control_c, 0, 64, 66
1, 240149, Control_c, 0, 64, 68
1, 240172, Control_c, 0, 64, 71
1, 240187, Control_c, 0, 64, 76
1, 240202, Control_c, 0, 64, 80
1, 240216, Control_c, 0, 64, 83
1, 240231, Control_c, 0, 64, 80
1, 240246, Control_c, 0, 64, 70
1, 240260, Control_c, 0, 64, 57
1, 240275, Control_c, 0, 64, 0
1, 240278, Note_on_c, 0, 66, 91
1, 240281, Note_on_c, 0, 57, 73
1, 240282, Note_on_c, 0, 72, 95
1, 240313, Note_off_c, 0, 58, 45
1, 240319, Note_off_c, 0, 67, 62
1, 240809, Note_off_c, 0, 66, 63
1, 240814, Note_off_c, 0, 72, 64
1, 240828, Note_off_c, 0, 57, 65
1, 240855, Note_off_c, 0, 51, 64
1, 241082, Note_on_c, 0, 78, 100
1, 241082, Note_on_c, 0, 69, 88
1, 241084, Note_on_c, 0, 51, 79
1, 241084, Note_on_c, 0, 60, 75
1, 241084, Control_c, 0, 64, 52
1, 241098, Control_c, 0, 64, 62
1, 241113, Note_off_c, 0, 69, 67
1, 241113, Control_c, 0, 64, 63
1, 241128, Control_c, 0, 64, 70
1, 241130, Note_off_c, 0, 78, 69
1, 241143, Control_c, 0, 64, 102
1, 241145, Note_off_c, 0, 60, 64
1, 241158, Control_c, 0, 64, 127
1, 241168, Note_off_c, 0, 51, 65
1, 241351, Control_c, 0, 64, 99
1, 241364, Note_on_c, 0, 79, 101
1, 241365, Control_c, 0, 64, 61
1, 241366, Note_on_c, 0, 70, 97
1, 241369, Note_on_c, 0, 62, 87
1, 241372, Note_on_c, 0, 50, 77
1, 241380, Control_c, 0, 64, 0
1, 241633, Control_c, 0, 64, 18
1, 241648, Control_c, 0, 64, 41
1, 241670, Control_c, 0, 64, 55
1, 241685, Control_c, 0, 64, 66
1, 241699, Control_c, 0, 64, 89
1, 241704, Note_off_c, 0, 70, 64
1, 241714, Control_c, 0, 64, 127
1, 241717, Note_off_c, 0, 79, 66
1, 241759, Note_off_c, 0, 62, 62
1, 241798, Note_off_c, 0, 50, 63
1, 241862, Control_c, 0, 64, 81
1, 241877, Control_c, 0, 64, 58
1, 241892, Control_c, 0, 64, 0
1, 241996, Note_on_c, 0, 82, 81
1, 242084, Control_c, 0, 64, 17
1, 242099, Control_c, 0, 64, 52
1, 242106, Note_on_c, 0, 49, 93
1, 242114, Control_c, 0, 64, 59
1, 242117, Note_on_c, 0, 81, 83
1, 242129, Control_c, 0, 64, 65
1, 242144, Control_c, 0, 64, 77
1, 242158, Control_c, 0, 64, 127
1, 242165, Note_off_c, 0, 49, 64
1, 242208, Note_off_c, 0, 82, 48
1, 242239, Note_on_c, 0, 79, 78
1, 242239, Note_off_c, 0, 81, 64
1, 242362, Note_on_c, 0, 50, 91
1, 242373, Note_on_c, 0, 78, 84
1, 242397, Control_c, 0, 64, 99
1, 242412, Note_off_c, 0, 79, 63
1, 242418, Control_c, 0, 64, 71
1, 242433, Control_c, 0, 64, 57
1, 242448, Control_c, 0, 64, 38
1, 242463, Control_c, 0, 64, 0
1, 242484, Note_on_c, 0, 57, 81
1, 242512, Note_on_c, 0, 76, 81
1, 242576, Note_off_c, 0, 78, 55
1, 242608, Note_on_c, 0, 58, 78
1, 242616, Note_on_c, 0, 74, 81
1, 242626, Note_off_c, 0, 57, 62
1, 242644, Note_off_c, 0, 76, 60
1, 242706, Note_off_c, 0, 74, 65
1, 242710, Note_on_c, 0, 60, 73
1, 242721, Note_on_c, 0, 72, 72
1, 242766, Note_off_c, 0, 60, 66
1, 242773, Note_off_c, 0, 58, 42
1, 242834, Note_on_c, 0, 70, 78
1, 242839, Note_off_c, 0, 72, 65
1, 242849, Note_on_c, 0, 62, 83
1, 242919, Note_off_c, 0, 50, 60
1, 242951, Note_on_c, 0, 69, 64
1, 243032, Note_off_c, 0, 70, 58
1, 243074, Note_on_c, 0, 50, 85
1, 243086, Control_c, 0, 64, 31
1, 243087, Note_off_c, 0, 69, 63
1, 243088, Note_on_c, 0, 67, 69
1, 243101, Control_c, 0, 64, 41
1, 243116, Control_c, 0, 64, 48
1, 243131, Control_c, 0, 64, 58
1, 243146, Control_c, 0, 64, 66
1, 243168, Control_c, 0, 64, 77
1, 243183, Control_c, 0, 64, 100
1, 243197, Note_off_c, 0, 67, 62
1, 243198, Control_c, 0, 64, 127
1, 243214, Note_on_c, 0, 66, 64
1, 243214, Note_off_c, 0, 62, 55
1, 243230, Note_off_c, 0, 50, 63
1, 243331, Control_c, 0, 64, 79
1, 243333, Note_on_c, 0, 51, 96
1, 243346, Control_c, 0, 64, 56
1, 243349, Note_off_c, 0, 66, 63
1, 243351, Note_on_c, 0, 67, 66
1, 243360, Control_c, 0, 64, 0
1, 243445, Note_on_c, 0, 55, 80
1, 243472, Note_on_c, 0, 59, 59
1, 243510, Note_off_c, 0, 59, 63
1, 243555, Note_off_c, 0, 55, 64
1, 243565, Note_on_c, 0, 57, 73
1, 243577, Note_on_c, 0, 60, 75
1, 243640, Note_off_c, 0, 57, 60
1, 243640, Note_off_c, 0, 60, 61
1, 243684, Note_on_c, 0, 62, 72
1, 243686, Note_on_c, 0, 59, 72
1, 243732, Note_off_c, 0, 62, 62
1, 243745, Note_off_c, 0, 59, 63
1, 243776, Note_off_c, 0, 51, 66
1, 243803, Note_on_c, 0, 48, 84
1, 243803, Note_on_c, 0, 63, 74
1, 243813, Note_on_c, 0, 60, 74
1, 243858, Note_off_c, 0, 60, 63
1, 243876, Note_off_c, 0, 63, 62
1, 243937, Note_on_c, 0, 59, 72
1, 243937, Note_on_c, 0, 62, 71
1, 243973, Note_off_c, 0, 59, 66
1, 243976, Note_off_c, 0, 62, 64
1, 243988, Poly_aftertouch_c, 0, 63, 0
1, 244040, Note_on_c, 0, 63, 67
1, 244048, Note_on_c, 0, 60, 71
1, 244099, Note_off_c, 0, 60, 59
1, 244099, Note_off_c, 0, 63, 62
1, 244322, Note_on_c, 0, 60, 76
1, 244322, Note_on_c, 0, 63, 79
1, 244338, Note_off_c, 0, 48, 64
1, 244444, Note_on_c, 0, 45, 94
1, 244560, Note_on_c, 0, 47, 80
1, 244568, Control_c, 0, 64, 29
1, 244573, Note_off_c, 0, 45, 60
1, 244582, Control_c, 0, 64, 49
1, 244597, Control_c, 0, 64, 55
1, 244612, Control_c, 0, 64, 60
1, 244622, Note_off_c, 0, 63, 62
1, 244624, Note_off_c, 0, 60, 63
1, 244627, Control_c, 0, 64, 63
1, 244642, Control_c, 0, 64, 66
1, 244665, Control_c, 0, 64, 70
1, 244677, Note_on_c, 0, 48, 89
1, 244680, Control_c, 0, 64, 80
1, 244695, Control_c, 0, 64, 127
1, 244704, Note_off_c, 0, 47, 62
1, 244731, Note_off_c, 0, 48, 63
1, 244769, Control_c, 0, 64, 110
1, 244784, Control_c, 0, 64, 71
1, 244799, Note_on_c, 0, 50, 92
1, 244799, Control_c, 0, 64, 56
1, 244813, Control_c, 0, 64, 37
1, 244828, Control_c, 0, 64, 13
1, 244843, Control_c, 0, 64, 0
1, 244922, Note_on_c, 0, 57, 70
1, 244954, Note_on_c, 0, 60, 54
1, 244999, Note_off_c, 0, 60, 62
1, 245041, Note_off_c, 0, 57, 65
1, 245042, Note_on_c, 0, 59, 78
1, 245055, Note_on_c, 0, 62, 73
1, 245110, Control_c, 0, 64, 24
1, 245124, Control_c, 0, 64, 36
1, 245126, Note_off_c, 0, 59, 63
1, 245139, Control_c, 0, 64, 46
1, 245154, Control_c, 0, 64, 54
1, 245160, Note_on_c, 0, 63, 73
1, 245163, Note_on_c, 0, 60, 69
1, 245169, Note_off_c, 0, 62, 57
1, 245169, Control_c, 0, 64, 57
1, 245184, Control_c, 0, 64, 60
1, 245185, Note_off_c, 0, 50, 65
1, 245199, Control_c, 0, 64, 62
1, 245213, Control_c, 0, 64, 63
1, 245217, Note_off_c, 0, 63, 64
1, 245217, Note_off_c, 0, 60, 61
1, 245228, Control_c, 0, 64, 62
1, 245243, Control_c, 0, 64, 56
1, 245257, Control_c, 0, 64, 44
1, 245272, Control_c, 0, 64, 28
1, 245277, Note_on_c, 0, 47, 95
1, 245283, Note_on_c, 0, 65, 65
1, 245285, Note_on_c, 0, 62, 72
1, 245287, Control_c, 0, 64, 0
1, 245339, Note_off_c, 0, 62, 62
1, 245343, Note_off_c, 0, 65, 62
1, 245388, Note_on_c, 0, 63, 76
1, 245402, Note_on_c, 0, 60, 73
1, 245438, Note_off_c, 0, 60, 66
1, 245451, Note_off_c, 0, 63, 62
1, 245516, Note_on_c, 0, 65, 65
1, 245517, Note_on_c, 0, 62, 64
1, 245565, Note_off_c, 0, 62, 58
1, 245583, Note_off_c, 0, 65, 62
1, 245802, Note_on_c, 0, 65, 76
1, 245804, Note_on_c, 0, 62, 80
1, 245831, Note_off_c, 0, 47, 62
1, 245931, Note_on_c, 0, 43, 87
1, 246032, Note_on_c, 0, 45, 80
1, 246045, Note_off_c, 0, 43, 61
1, 246071, Note_off_c, 0, 62, 65
1, 246091, Note_off_c, 0, 67, 59
1, 246092, Note_off_c, 0, 65, 64
1, 246140, Note_on_c, 0, 47, 80
1, 246186, Note_off_c, 0, 45, 63
1, 246283, Note_on_c, 0, 48, 79
1, 246317, Note_off_c, 0, 47, 62
1, 246371, Control_c, 0, 64, 24
1, 246385, Control_c, 0, 64, 41
1, 246400, Control_c, 0, 64, 46
1, 246415, Control_c, 0, 64, 48
1, 246417, Note_off_c, 0, 48, 64
1, 246430, Control_c, 0, 64, 51
1, 246445, Control_c, 0, 64, 54
1, 246459, Control_c, 0, 64, 56
1, 246474, Control_c, 0, 64, 58
1, 246489, Control_c, 0, 64, 60
1, 246503, Control_c, 0, 64, 62
1, 246518, Control_c, 0, 64, 63
1, 246552, Note_on_c, 0, 68, 54
1, 246557, Note_on_c, 0, 48, 64
1, 246565, Note_on_c, 0, 65, 51
1, 246607, Control_c, 0, 64, 62
1, 246656, Note_off_c, 0, 65, 59
1, 246681, Note_on_c, 0, 74, 73
1, 246681, Note_off_c, 0, 48, 64
1, 246713, Note_off_c, 0, 68, 63
1, 246725, Control_c, 0, 64, 62
1, 246740, Control_c, 0, 64, 59
1, 246755, Control_c, 0, 64, 56
1, 246770, Control_c, 0, 64, 55
1, 246784, Control_c, 0, 64, 56
1, 246792, Note_off_c, 0, 74, 56
1, 246794, Note_on_c, 0, 48, 75
1, 246797, Note_on_c, 0, 67, 70
1, 246809, Note_on_c, 0, 63, 67
1, 246858, Control_c, 0, 64, 56
1, 246913, Note_off_c, 0, 67, 62
1, 246914, Note_on_c, 0, 72, 75
1, 246921, Note_off_c, 0, 63, 57
1, 246927, Note_off_c, 0, 48, 64
1, 246970, Control_c, 0, 64, 56
1, 247041, Note_on_c, 0, 48, 83
1, 247043, Note_on_c, 0, 65, 71
1, 247046, Note_on_c, 0, 62, 61
1, 247056, Note_off_c, 0, 72, 57
1, 247059, Control_c, 0, 64, 56
1, 247074, Control_c, 0, 64, 57
1, 247089, Control_c, 0, 64, 57
1, 247119, Control_c, 0, 64, 58
1, 247148, Control_c, 0, 64, 58
1, 247150, Note_on_c, 0, 70, 77
1, 247155, Note_off_c, 0, 48, 64
1, 247163, Control_c, 0, 64, 59
1, 247175, Note_off_c, 0, 65, 63
1, 247184, Note_off_c, 0, 62, 62
1, 247193, Control_c, 0, 64, 59
1, 247207, Control_c, 0, 64, 60
1, 247252, Control_c, 0, 64, 59
1, 247272, Note_off_c, 0, 70, 64
1, 247281, Note_on_c, 0, 63, 76
1, 247292, Note_on_c, 0, 48, 91
1, 247295, Note_on_c, 0, 60, 71
1, 247325, Control_c, 0, 64, 60
1, 247355, Control_c, 0, 64, 61
1, 247381, Note_off_c, 0, 48, 60
1, 247385, Control_c, 0, 64, 60
1, 247391, Note_off_c, 0, 60, 53
1, 247396, Note_on_c, 0, 69, 80
1, 247399, Control_c, 0, 64, 61
1, 247414, Control_c, 0, 64, 61
1, 247429, Control_c, 0, 64, 62
1, 247459, Control_c, 0, 64, 61
1, 247503, Control_c, 0, 64, 62
1, 247518, Control_c, 0, 64, 61
1, 247532, Note_on_c, 0, 58, 75
1, 247533, Note_on_c, 0, 48, 89
1, 247578, Control_c, 0, 64, 62
1, 247593, Control_c, 0, 64, 61
1, 247593, Note_off_c, 0, 48, 63
1, 247596, Note_off_c, 0, 69, 61
1, 247622, Note_off_c, 0, 58, 62
1, 247637, Control_c, 0, 64, 62
1, 247661, Note_on_c, 0, 67, 69
1, 247703, Control_c, 0, 64, 62
1, 247712, Note_off_c, 0, 63, 62
1, 247718, Control_c, 0, 64, 63
1, 247733, Control_c, 0, 64, 63
1, 247763, Control_c, 0, 64, 58
1, 247778, Control_c, 0, 64, 39
1, 247792, Control_c, 0, 64, 0
1, 247807, Note_on_c, 0, 57, 78
1, 247807, Note_on_c, 0, 66, 77
1, 247811, Note_on_c, 0, 48, 78
1, 247824, Note_on_c, 0, 62, 70
1, 247843, Note_off_c, 0, 67, 61
1, 247861, Note_off_c, 0, 62, 65
1, 247867, Control_c, 0, 64, 52
1, 247882, Control_c, 0, 64, 60
1, 247897, Control_c, 0, 64, 64
1, 247903, Note_off_c, 0, 66, 65
1, 247912, Control_c, 0, 64, 68
1, 247927, Control_c, 0, 64, 75
1, 247941, Control_c, 0, 64, 82
1, 247956, Control_c, 0, 64, 92
1, 247971, Control_c, 0, 64, 103
1, 247986, Control_c, 0, 64, 127
1, 248040, Note_off_c, 0, 57, 46
1, 248119, Control_c, 0, 64, 86
1, 248130, Note_on_c, 0, 46, 72
1, 248134, Control_c, 0, 64, 57
1, 248144, Note_on_c, 0, 72, 84
1, 248148, Control_c, 0, 64, 0
1, 248187, Note_off_c, 0, 48, 63
1, 248307, Note_on_c, 0, 45, 63
1, 248311, Note_on_c, 0, 74, 81
1, 248314, Note_off_c, 0, 72, 63
1, 248342, Note_off_c, 0, 46, 63
1, 248377, Note_on_c, 0, 75, 88
1, 248377, Note_off_c, 0, 74, 65
1, 248447, Note_on_c, 0, 74, 85
1, 248448, Note_on_c, 0, 46, 76
1, 248468, Note_off_c, 0, 45, 58
1, 248493, Note_off_c, 0, 75, 59
1, 248541, Control_c, 0, 64, 56
1, 248556, Control_c, 0, 64, 64
1, 248570, Control_c, 0, 64, 67
1, 248580, Note_off_c, 0, 74, 66
1, 248585, Control_c, 0, 64, 74
1, 248600, Control_c, 0, 64, 127
1, 248858, Note_on_c, 0, 67, 87
1, 248860, Note_on_c, 0, 63, 73
1, 248863, Note_on_c, 0, 48, 76
1, 248865, Note_on_c, 0, 58, 72
1, 248868, Control_c, 0, 64, 92
1, 248883, Control_c, 0, 64, 58
1, 248898, Control_c, 0, 64, 0
1, 248928, Note_off_c, 0, 46, 60
1, 249001, Control_c, 0, 64, 15
1, 249016, Control_c, 0, 64, 47
1, 249031, Control_c, 0, 64, 57
1, 249045, Control_c, 0, 64, 61
1, 249060, Control_c, 0, 64, 64
1, 249075, Control_c, 0, 64, 67
1, 249077, Note_off_c, 0, 58, 63
1, 249090, Control_c, 0, 64, 74
1, 249104, Control_c, 0, 64, 86
1, 249118, Note_off_c, 0, 63, 56
1, 249119, Control_c, 0, 64, 115
1, 249134, Control_c, 0, 64, 127
1, 249249, Note_on_c, 0, 62, 73
1, 249253, Note_on_c, 0, 57, 74
1, 249257, Note_on_c, 0, 50, 73
1, 249260, Control_c, 0, 64, 71
1, 249275, Control_c, 0, 64, 46
1, 249278, Note_off_c, 0, 48, 64
1, 249290, Control_c, 0, 64, 0
1, 249327, Note_off_c, 0, 67, 60
1, 249349, Control_c, 0, 64, 35
1, 249364, Control_c, 0, 64, 44
1, 249378, Control_c, 0, 64, 52
1, 249393, Control_c, 0, 64, 59
1, 249408, Control_c, 0, 64, 63
1, 249423, Control_c, 0, 64, 68
1, 249424, Note_on_c, 0, 58, 83
1, 249438, Control_c, 0, 64, 76
1, 249454, Control_c, 0, 64, 87
1, 249468, Control_c, 0, 64, 112
1, 249472, Note_off_c, 0, 57, 61
1, 249483, Control_c, 0, 64, 127
1, 249661, Control_c, 0, 64, 79
1, 249676, Control_c, 0, 64, 55
1, 249678, Note_on_c, 0, 66, 78
1, 249681, Note_on_c, 0, 60, 73
1, 249688, Note_on_c, 0, 38, 56
1, 249691, Control_c, 0, 64, 0
1, 249733, Note_off_c, 0, 58, 52
1, 249775, Note_off_c, 0, 50, 57
1, 249839, Control_c, 0, 64, 38
1, 249854, Control_c, 0, 64, 49
1, 249858, Note_off_c, 0, 62, 35
1, 249868, Control_c, 0, 64, 56
1, 249883, Control_c, 0, 64, 61
1, 249906, Control_c, 0, 64, 66
1, 249914, Note_off_c, 0, 66, 57
1, 249921, Control_c, 0, 64, 73
1, 249935, Control_c, 0, 64, 84
1, 249950, Control_c, 0, 64, 111
1, 249965, Control_c, 0, 64, 127
1, 250284, Note_on_c, 0, 67, 75
1, 250286, Note_on_c, 0, 43, 48
1, 250298, Note_on_c, 0, 62, 65
1, 250306, Control_c, 0, 64, 88
1, 250321, Control_c, 0, 64, 63
1, 250330, Note_off_c, 0, 38, 51
1, 250336, Control_c, 0, 64, 0
1, 251116, Note_on_c, 0, 59, 44
1, 251150, Note_off_c, 0, 60, 62
1, 253161, Note_off_c, 0, 62, 40
1, 253161, Note_off_c, 0, 67, 37
1, 253197, Note_off_c, 0, 59, 37
1, 253210, Note_off_c, 0, 43, 51
1, 255192, Control_c, 0, 64, 15
1, 255266, Control_c, 0, 64, 16
1, 255355, Control_c, 0, 64, 17
1, 255385, Control_c, 0, 64, 17
1, 255400, Control_c, 0, 64, 20
1, 255414, Control_c, 0, 64, 21
1, 255547, Control_c, 0, 64, 22
1, 255666, Control_c, 0, 64, 23
1, 255784, Control_c, 0, 64, 23
1, 255799, Control_c, 0, 64, 24
1, 255829, Control_c, 0, 64, 24
1, 255844, Control_c, 0, 64, 25
1, 255859, Control_c, 0, 64, 25
1, 255874, Control_c, 0, 64, 26
1, 255897, Control_c, 0, 64, 26
1, 255926, Control_c, 0, 64, 27
1, 255941, Control_c, 0, 64, 28
1, 255956, Control_c, 0, 64, 29
1, 256030, Control_c, 0, 64, 29
1, 256356, Control_c, 0, 64, 31
1, 256370, Control_c, 0, 64, 37
1, 256385, Control_c, 0, 64, 39
1, 256444, Control_c, 0, 64, 40
1, 256646, Control_c, 0, 64, 40
1, 257045, Control_c, 0, 64, 41
1, 257164, Control_c, 0, 64, 42
1, 267587, Control_c, 0, 64, 41
1, 267631, Control_c, 0, 64, 41
1, 267675, Control_c, 0, 64, 40
1, 267949, Control_c, 0, 64, 40
1, 268171, Control_c, 0, 64, 39
1, 268349, Control_c, 0, 64, 39
1, 269157, Control_c, 0, 64, 38
1, 269232, Control_c, 0, 64, 38
1, 269276, Control_c, 0, 64, 37
1, 269537, Control_c, 0, 64, 38
1, 270900, Control_c, 0, 64, 37
1, 270930, Control_c, 0, 64, 36
1, 272182, Control_c, 0, 64, 37
1, 272212, Control_c, 0, 64, 37
1, 272397, Control_c, 0, 64, 38
1, 272441, Control_c, 0, 64, 39
1, 272456, Control_c, 0, 64, 39
1, 272471, Control_c, 0, 64, 40
1, 272486, Control_c, 0, 64, 41
1, 272501, Control_c, 0, 64, 41
1, 272768, Control_c, 0, 64, 41
1, 272798, Control_c, 0, 64, 40
1, 272872, Control_c, 0, 64, 40
1, 273117, Control_c, 0, 64, 39
1, 273132, Control_c, 0, 64, 38
1, 273147, Control_c, 0, 64, 37
1, 273161, Control_c, 0, 64, 35
1, 273176, Control_c, 0, 64, 33
1, 273191, Control_c, 0, 64, 30
1, 273206, Control_c, 0, 64, 21
1, 273221, Control_c, 0, 64, 0
1, 273296, End_track
0, 0, End_of_file
