0, 0, Header, 0, 1, 384
1, 0, Start_track
1, 0, Title_t, "ChopinNocturneOp27No1--Chon     "
1, 0, Text_t, "2011 ePiano Junior Competition"
1, 0, Text_t, "captured in spring and summer 2011"
1, 0, Text_t, "http://www.piano-e-competition.com/"
1, 0, Text_t, "standard-resolution version"
1, 0, Text_t, "File processed for distribution with software designed and coded by Dr. John Q. Walker, founder of Zenph Sound Innovations"
1, 0, Instrument_name_t, "Yamaha Disklavier Pro Mark IV concert grand piano, model DCFIIISM4PRO"
1, 0, Sequencer_specific, 39, 67, 113, 0, 1, 0, 1, 0, 67, 104, 111, 112, 105, 110, 32, 79, 112, 50, 55, 32, 78, 111, 49, 32, 83, 97, 101, 89, 111, 111, 110, 32, 67, 104, 111, 110, 32, 32, 32, 32
1, 0, Sequencer_specific, 6, 67, 113, 0, 0, 0, 69
1, 0, System_exclusive, 21, 67, 113, 126, 21, 0, 2, 2, 2, 5, 12, 8, 4, 14, 1, 3, 9, 9, 13, 15, 7, 247
1, 0, Sequencer_specific, 5, 67, 123, 12, 2, 1
1, 0, Tempo, 512820
1, 0, Time_signature, 4, 2, 24, 8
1, 0, System_exclusive, 5, 126, 127, 9, 1, 247
1, 1, System_exclusive, 8, 67, 16, 76, 0, 0, 126, 0, 247
1, 2, System_exclusive, 8, 67, 16, 76, 8, 9, 7, 1, 247
1, 3, Control_c, 0, 0, 108
1, 3, Control_c, 1, 0, 108
1, 3, Control_c, 2, 0, 0
1, 3, Control_c, 3, 0, 0
1, 3, Control_c, 4, 0, 0
1, 3, Control_c, 5, 0, 0
1, 3, Control_c, 6, 0, 0
1, 3, Control_c, 7, 0, 0
1, 3, Control_c, 8, 0, 0
1, 3, Control_c, 9, 0, 127
1, 3, Control_c, 10, 0, 0
1, 3, Control_c, 11, 0, 0
1, 3, Control_c, 12, 0, 0
1, 3, Control_c, 13, 0, 0
1, 3, Control_c, 14, 0, 0
1, 3, Control_c, 15, 0, 0
1, 4, Control_c, 0, 32, 0
1, 4, Control_c, 1, 32, 0
1, 4, Control_c, 2, 32, 0
1, 4, Control_c, 3, 32, 0
1, 4, Control_c, 4, 32, 0
1, 4, Control_c, 5, 32, 0
1, 4, Control_c, 6, 32, 0
1, 4, Control_c, 7, 32, 0
1, 4, Control_c, 8, 32, 0
1, 4, Control_c, 9, 32, 0
1, 4, Control_c, 10, 32, 0
1, 4, Control_c, 11, 32, 0
1, 4, Control_c, 12, 32, 0
1, 4, Control_c, 13, 32, 0
1, 4, Control_c, 14, 32, 0
1, 4, Control_c, 15, 32, 0
1, 5, Program_c, 0, 0
1, 5, Program_c, 1, 0
1, 5, Program_c, 2, 0
1, 5, Program_c, 3, 0
1, 5, Program_c, 4, 0
1, 5, Program_c, 5, 0
1, 5, Program_c, 6, 0
1, 5, Program_c, 7, 0
1, 5, Program_c, 8, 0
1, 5, Program_c, 9, 0
1, 5, Program_c, 10, 0
1, 5, Program_c, 11, 0
1, 5, Program_c, 12, 0
1, 5, Program_c, 13, 0
1, 5, Program_c, 14, 0
1, 5, Program_c, 15, 0
1, 6, Control_c, 0, 7, 100
1, 6, Control_c, 1, 7, 100
1, 6, Control_c, 2, 7, 100
1, 6, Control_c, 3, 7, 100
1, 6, Control_c, 4, 7, 100
1, 6, Control_c, 5, 7, 100
1, 6, Control_c, 6, 7, 100
1, 6, Control_c, 7, 7, 100
1, 6, Control_c, 8, 7, 100
1, 6, Control_c, 9, 7, 100
1, 6, Control_c, 10, 7, 100
1, 6, Control_c, 11, 7, 100
1, 6, Control_c, 12, 7, 100
1, 6, Control_c, 13, 7, 100
1, 6, Control_c, 14, 7, 100
1, 6, Control_c, 15, 7, 100
1, 42, Control_c, 0, 64, 15
1, 42, Control_c, 0, 67, 15
1, 79, Control_c, 0, 64, 31
1, 79, Control_c, 0, 67, 31
1, 116, Control_c, 0, 64, 46
1, 116, Control_c, 0, 67, 46
1, 153, Control_c, 0, 64, 63
1, 153, Control_c, 0, 67, 63
1, 190, Control_c, 0, 64, 77
1, 190, Control_c, 0, 67, 77
1, 226, Control_c, 0, 64, 94
1, 226, Control_c, 0, 67, 94
1, 263, Control_c, 0, 64, 108
1, 263, Control_c, 0, 67, 108
1, 300, Control_c, 0, 64, 127
1, 300, Control_c, 0, 67, 127
1, 389, Note_on_c, 0, 37, 38
1, 835, Note_on_c, 0, 44, 31
1, 875, Note_off_c, 0, 37, 41
1, 1152, Note_off_c, 0, 44, 35
1, 1153, Note_on_c, 0, 56, 37
1, 1419, Note_on_c, 0, 49, 28
1, 1509, Note_off_c, 0, 56, 42
1, 1650, Note_on_c, 0, 44, 36
1, 1694, Note_off_c, 0, 49, 50
1, 1867, Note_on_c, 0, 37, 36
1, 1871, Note_off_c, 0, 44, 39
1, 2081, Note_on_c, 0, 44, 44
1, 2092, Note_off_c, 0, 37, 41
1, 2296, Note_on_c, 0, 49, 44
1, 2412, Note_off_c, 0, 44, 52
1, 2514, Note_on_c, 0, 56, 48
1, 2579, Note_off_c, 0, 49, 62
1, 2717, Note_on_c, 0, 49, 53
1, 2810, Note_off_c, 0, 56, 59
1, 2919, Note_on_c, 0, 44, 55
1, 2981, Note_off_c, 0, 49, 63
1, 3131, Note_on_c, 0, 37, 51
1, 3170, Note_off_c, 0, 44, 52
1, 3325, Note_on_c, 0, 44, 56
1, 3364, Note_off_c, 0, 37, 59
1, 3531, Note_on_c, 0, 49, 56
1, 3587, Note_off_c, 0, 44, 60
1, 3731, Note_on_c, 0, 56, 45
1, 3782, Note_off_c, 0, 49, 62
1, 3959, Note_on_c, 0, 49, 38
1, 4024, Note_off_c, 0, 56, 56
1, 4179, Note_on_c, 0, 44, 40
1, 4202, Note_off_c, 0, 49, 61
1, 4386, Note_on_c, 0, 37, 41
1, 4394, Note_off_c, 0, 44, 37
1, 4599, Note_on_c, 0, 44, 42
1, 4648, Note_off_c, 0, 37, 33
1, 4824, Note_on_c, 0, 49, 41
1, 4827, Control_c, 0, 64, 119
1, 4842, Control_c, 0, 64, 116
1, 4857, Control_c, 0, 64, 115
1, 4896, Note_off_c, 0, 44, 35
1, 4932, Control_c, 0, 64, 114
1, 5006, Control_c, 0, 64, 113
1, 5021, Control_c, 0, 64, 112
1, 5036, Control_c, 0, 64, 111
1, 5038, Note_on_c, 0, 56, 41
1, 5051, Control_c, 0, 64, 110
1, 5065, Control_c, 0, 64, 109
1, 5077, Note_off_c, 0, 49, 50
1, 5080, Control_c, 0, 64, 108
1, 5095, Control_c, 0, 64, 107
1, 5110, Control_c, 0, 64, 105
1, 5125, Control_c, 0, 64, 104
1, 5183, Control_c, 0, 64, 104
1, 5257, Note_on_c, 0, 49, 37
1, 5287, Control_c, 0, 64, 103
1, 5304, Note_off_c, 0, 56, 34
1, 5316, Control_c, 0, 64, 103
1, 5346, Control_c, 0, 64, 102
1, 5456, Control_c, 0, 64, 102
1, 5486, Control_c, 0, 64, 101
1, 5489, Note_on_c, 0, 44, 37
1, 5491, Note_off_c, 0, 49, 61
1, 5501, Control_c, 0, 64, 101
1, 5515, Control_c, 0, 64, 100
1, 5530, Control_c, 0, 64, 99
1, 5545, Control_c, 0, 64, 98
1, 5560, Control_c, 0, 64, 95
1, 5575, Control_c, 0, 64, 93
1, 5589, Control_c, 0, 64, 91
1, 5604, Control_c, 0, 64, 90
1, 5649, Control_c, 0, 64, 89
1, 5693, Control_c, 0, 64, 89
1, 5728, Note_off_c, 0, 44, 32
1, 5735, Note_on_c, 0, 37, 29
1, 5960, Control_c, 0, 64, 88
1, 6005, Control_c, 0, 64, 88
1, 6035, Control_c, 0, 64, 87
1, 6079, Control_c, 0, 64, 87
1, 6094, Control_c, 0, 64, 86
1, 6095, Note_on_c, 0, 44, 29
1, 6130, Control_c, 0, 64, 85
1, 6175, Control_c, 0, 64, 85
1, 6188, Note_on_c, 0, 76, 64
1, 6205, Control_c, 0, 64, 84
1, 6219, Note_off_c, 0, 37, 39
1, 6220, Control_c, 0, 64, 84
1, 6234, Control_c, 0, 64, 83
1, 6249, Control_c, 0, 64, 82
1, 6264, Control_c, 0, 64, 82
1, 6457, Control_c, 0, 64, 82
1, 6512, Note_on_c, 0, 49, 36
1, 6547, Control_c, 0, 64, 83
1, 6576, Control_c, 0, 64, 83
1, 6588, Note_off_c, 0, 44, 40
1, 6695, Control_c, 0, 64, 84
1, 6709, Control_c, 0, 64, 84
1, 6724, Control_c, 0, 64, 85
1, 6738, Note_on_c, 0, 56, 41
1, 6753, Control_c, 0, 64, 85
1, 6783, Control_c, 0, 64, 86
1, 6792, Note_off_c, 0, 49, 40
1, 6798, Control_c, 0, 64, 86
1, 6813, Control_c, 0, 64, 87
1, 6828, Control_c, 0, 64, 88
1, 6843, Control_c, 0, 64, 89
1, 6866, Control_c, 0, 64, 90
1, 6881, Control_c, 0, 64, 91
1, 6896, Control_c, 0, 64, 91
1, 6910, Control_c, 0, 64, 92
1, 6925, Control_c, 0, 64, 93
1, 6940, Control_c, 0, 64, 94
1, 6954, Control_c, 0, 64, 97
1, 6965, Note_on_c, 0, 49, 34
1, 6969, Control_c, 0, 64, 99
1, 6984, Control_c, 0, 64, 102
1, 6999, Control_c, 0, 64, 104
1, 7013, Note_off_c, 0, 56, 34
1, 7014, Control_c, 0, 64, 106
1, 7028, Control_c, 0, 64, 107
1, 7043, Control_c, 0, 64, 111
1, 7058, Control_c, 0, 64, 116
1, 7073, Control_c, 0, 64, 127
1, 7183, Note_on_c, 0, 44, 33
1, 7199, Note_off_c, 0, 49, 58
1, 7221, Control_c, 0, 67, 122
1, 7236, Control_c, 0, 67, 118
1, 7251, Control_c, 0, 67, 112
1, 7266, Control_c, 0, 67, 106
1, 7280, Control_c, 0, 67, 100
1, 7295, Control_c, 0, 67, 93
1, 7311, Control_c, 0, 67, 88
1, 7325, Control_c, 0, 67, 82
1, 7340, Control_c, 0, 67, 77
1, 7355, Control_c, 0, 67, 72
1, 7370, Control_c, 0, 67, 68
1, 7385, Control_c, 0, 67, 65
1, 7400, Control_c, 0, 67, 62
1, 7415, Control_c, 0, 67, 60
1, 7430, Control_c, 0, 67, 58
1, 7445, Note_on_c, 0, 37, 36
1, 7445, Control_c, 0, 67, 56
1, 7459, Control_c, 0, 67, 54
1, 7460, Note_off_c, 0, 44, 35
1, 7474, Control_c, 0, 67, 51
1, 7489, Control_c, 0, 67, 49
1, 7504, Control_c, 0, 67, 47
1, 7519, Control_c, 0, 67, 46
1, 7563, Control_c, 0, 67, 46
1, 7722, Note_on_c, 0, 44, 32
1, 7748, Control_c, 0, 67, 46
1, 7768, Note_on_c, 0, 77, 69
1, 7777, Control_c, 0, 64, 118
1, 7792, Control_c, 0, 64, 91
1, 7792, Control_c, 0, 67, 47
1, 7793, Note_off_c, 0, 37, 43
1, 7807, Control_c, 0, 64, 78
1, 7822, Control_c, 0, 64, 69
1, 7837, Control_c, 0, 64, 65
1, 7851, Control_c, 0, 64, 63
1, 7866, Control_c, 0, 64, 63
1, 7881, Control_c, 0, 64, 65
1, 7896, Control_c, 0, 64, 67
1, 7911, Control_c, 0, 64, 71
1, 7925, Control_c, 0, 64, 74
1, 7940, Control_c, 0, 64, 77
1, 7955, Control_c, 0, 64, 80
1, 7968, Note_off_c, 0, 76, 45
1, 7970, Control_c, 0, 64, 85
1, 7984, Control_c, 0, 64, 93
1, 7999, Control_c, 0, 64, 119
1, 7999, Control_c, 0, 67, 46
1, 8014, Control_c, 0, 64, 127
1, 8014, Control_c, 0, 67, 46
1, 8040, Note_on_c, 0, 49, 41
1, 8044, Control_c, 0, 67, 45
1, 8063, Note_off_c, 0, 44, 39
1, 8089, Control_c, 0, 67, 45
1, 8274, Note_on_c, 0, 59, 42
1, 8313, Note_off_c, 0, 49, 52
1, 8327, Control_c, 0, 67, 45
1, 8385, Note_off_c, 0, 77, 59
1, 8411, Note_off_c, 0, 59, 40
1, 8498, Note_on_c, 0, 49, 32
1, 8531, Note_on_c, 0, 77, 82
1, 8774, Note_on_c, 0, 44, 43
1, 8786, Note_off_c, 0, 49, 61
1, 8793, Control_c, 0, 67, 45
1, 8995, Note_on_c, 0, 37, 44
1, 9004, Note_off_c, 0, 77, 64
1, 9040, Note_off_c, 0, 44, 39
1, 9075, Control_c, 0, 67, 45
1, 9141, Control_c, 0, 67, 46
1, 9230, Control_c, 0, 67, 46
1, 9240, Note_on_c, 0, 44, 45
1, 9286, Note_on_c, 0, 77, 83
1, 9290, Note_off_c, 0, 37, 54
1, 9304, Control_c, 0, 64, 96
1, 9319, Control_c, 0, 64, 76
1, 9334, Control_c, 0, 64, 68
1, 9349, Control_c, 0, 64, 68
1, 9363, Control_c, 0, 64, 71
1, 9378, Control_c, 0, 64, 77
1, 9393, Control_c, 0, 64, 89
1, 9408, Control_c, 0, 64, 127
1, 9499, Note_on_c, 0, 49, 43
1, 9504, Note_off_c, 0, 44, 62
1, 9570, Control_c, 0, 67, 47
1, 9600, Control_c, 0, 67, 48
1, 9645, Control_c, 0, 67, 48
1, 9674, Control_c, 0, 67, 49
1, 9718, Note_on_c, 0, 59, 46
1, 9791, Note_off_c, 0, 49, 41
1, 9809, Note_off_c, 0, 59, 62
1, 9928, Note_on_c, 0, 49, 43
1, 10068, Control_c, 0, 67, 50
1, 10144, Note_on_c, 0, 44, 42
1, 10182, Note_off_c, 0, 49, 60
1, 10369, Note_on_c, 0, 37, 46
1, 10438, Note_off_c, 0, 44, 0
1, 10474, Poly_aftertouch_c, 0, 44, 127
1, 10518, Poly_aftertouch_c, 0, 44, 0
1, 10670, Note_on_c, 0, 45, 33
1, 10707, Note_off_c, 0, 37, 36
1, 10714, Control_c, 0, 67, 50
1, 10715, Note_on_c, 0, 78, 78
1, 10729, Control_c, 0, 64, 99
1, 10729, Control_c, 0, 67, 51
1, 10744, Control_c, 0, 64, 71
1, 10744, Control_c, 0, 67, 51
1, 10758, Control_c, 0, 64, 53
1, 10758, Control_c, 0, 67, 52
1, 10773, Control_c, 0, 64, 0
1, 10837, Note_off_c, 0, 77, 50
1, 10847, Control_c, 0, 64, 37
1, 10862, Control_c, 0, 64, 51
1, 10876, Control_c, 0, 64, 57
1, 10891, Control_c, 0, 64, 61
1, 10906, Control_c, 0, 64, 65
1, 10921, Control_c, 0, 64, 69
1, 10936, Control_c, 0, 64, 75
1, 10950, Control_c, 0, 64, 83
1, 10965, Control_c, 0, 64, 94
1, 10980, Control_c, 0, 64, 127
1, 10995, Note_on_c, 0, 49, 51
1, 11071, Note_off_c, 0, 45, 54
1, 11084, Control_c, 0, 67, 53
1, 11173, Control_c, 0, 67, 53
1, 11202, Control_c, 0, 67, 54
1, 11217, Control_c, 0, 67, 56
1, 11223, Note_on_c, 0, 57, 49
1, 11232, Control_c, 0, 67, 56
1, 11255, Note_off_c, 0, 49, 55
1, 11262, Control_c, 0, 67, 57
1, 11276, Control_c, 0, 67, 58
1, 11292, Control_c, 0, 67, 59
1, 11307, Control_c, 0, 67, 60
1, 11322, Control_c, 0, 67, 61
1, 11337, Control_c, 0, 67, 62
1, 11359, Control_c, 0, 67, 63
1, 11374, Control_c, 0, 67, 63
1, 11388, Control_c, 0, 67, 64
1, 11403, Control_c, 0, 67, 65
1, 11418, Control_c, 0, 67, 66
1, 11433, Control_c, 0, 67, 68
1, 11445, Note_off_c, 0, 57, 36
1, 11448, Control_c, 0, 67, 69
1, 11463, Control_c, 0, 67, 70
1, 11463, Note_on_c, 0, 49, 37
1, 11478, Control_c, 0, 67, 70
1, 11493, Control_c, 0, 67, 72
1, 11507, Control_c, 0, 67, 73
1, 11522, Control_c, 0, 67, 75
1, 11537, Control_c, 0, 67, 80
1, 11552, Control_c, 0, 67, 88
1, 11567, Control_c, 0, 67, 93
1, 11581, Control_c, 0, 67, 97
1, 11596, Control_c, 0, 67, 100
1, 11611, Control_c, 0, 67, 101
1, 11625, Control_c, 0, 67, 103
1, 11640, Control_c, 0, 67, 110
1, 11655, Control_c, 0, 67, 119
1, 11670, Control_c, 0, 67, 124
1, 11680, Note_on_c, 0, 45, 43
1, 11685, Control_c, 0, 67, 125
1, 11699, Note_off_c, 0, 49, 59
1, 11714, Control_c, 0, 67, 126
1, 11743, Control_c, 0, 67, 127
1, 11794, Note_off_c, 0, 45, 52
1, 11911, Note_on_c, 0, 37, 33
1, 11937, Control_c, 0, 67, 126
1, 11951, Control_c, 0, 67, 125
1, 11966, Control_c, 0, 67, 125
1, 11981, Control_c, 0, 67, 124
1, 12025, Control_c, 0, 67, 124
1, 12040, Control_c, 0, 67, 123
1, 12055, Control_c, 0, 67, 122
1, 12108, Control_c, 0, 64, 86
1, 12123, Control_c, 0, 64, 70
1, 12123, Control_c, 0, 67, 123
1, 12128, Note_off_c, 0, 37, 42
1, 12134, Note_on_c, 0, 45, 37
1, 12137, Control_c, 0, 64, 64
1, 12152, Control_c, 0, 64, 63
1, 12152, Control_c, 0, 67, 124
1, 12167, Control_c, 0, 64, 65
1, 12182, Control_c, 0, 64, 69
1, 12196, Control_c, 0, 64, 77
1, 12211, Control_c, 0, 64, 86
1, 12226, Control_c, 0, 64, 92
1, 12226, Control_c, 0, 67, 124
1, 12241, Control_c, 0, 64, 93
1, 12256, Control_c, 0, 64, 93
1, 12271, Control_c, 0, 64, 94
1, 12286, Control_c, 0, 64, 101
1, 12301, Control_c, 0, 64, 127
1, 12345, Control_c, 0, 67, 125
1, 12394, Note_on_c, 0, 50, 37
1, 12447, Note_off_c, 0, 45, 39
1, 12618, Note_on_c, 0, 57, 43
1, 12685, Note_off_c, 0, 50, 36
1, 12819, Control_c, 0, 67, 124
1, 12884, Note_on_c, 0, 50, 32
1, 12885, Control_c, 0, 67, 124
1, 12898, Note_off_c, 0, 57, 35
1, 12900, Control_c, 0, 67, 123
1, 12915, Control_c, 0, 67, 122
1, 12935, Note_on_c, 0, 76, 64
1, 12945, Control_c, 0, 67, 122
1, 13004, Control_c, 0, 67, 121
1, 13064, Control_c, 0, 67, 120
1, 13168, Note_off_c, 0, 50, 49
1, 13177, Note_on_c, 0, 45, 40
1, 13196, Control_c, 0, 67, 119
1, 13211, Control_c, 0, 67, 119
1, 13270, Control_c, 0, 67, 118
1, 13330, Note_off_c, 0, 45, 38
1, 13401, Note_on_c, 0, 37, 39
1, 13478, Control_c, 0, 67, 117
1, 13488, Note_on_c, 0, 74, 55
1, 13565, Note_off_c, 0, 78, 37
1, 13628, Note_off_c, 0, 76, 30
1, 13633, Control_c, 0, 67, 118
1, 13640, Note_off_c, 0, 37, 39
1, 13648, Control_c, 0, 67, 119
1, 13663, Control_c, 0, 64, 105
1, 13666, Note_on_c, 0, 73, 57
1, 13677, Note_on_c, 0, 45, 31
1, 13678, Control_c, 0, 64, 78
1, 13693, Control_c, 0, 64, 65
1, 13705, Note_off_c, 0, 74, 60
1, 13708, Control_c, 0, 64, 61
1, 13723, Control_c, 0, 64, 60
1, 13723, Control_c, 0, 67, 119
1, 13738, Control_c, 0, 64, 62
1, 13753, Control_c, 0, 64, 65
1, 13768, Control_c, 0, 64, 70
1, 13782, Control_c, 0, 64, 78
1, 13797, Control_c, 0, 64, 85
1, 13812, Control_c, 0, 64, 91
1, 13827, Control_c, 0, 64, 93
1, 13842, Control_c, 0, 67, 119
1, 13857, Control_c, 0, 64, 94
1, 13872, Control_c, 0, 64, 95
1, 13886, Control_c, 0, 64, 102
1, 13886, Control_c, 0, 67, 118
1, 13901, Control_c, 0, 64, 116
1, 13913, Note_on_c, 0, 50, 44
1, 13916, Control_c, 0, 64, 127
1, 13916, Note_off_c, 0, 45, 38
1, 13961, Control_c, 0, 67, 117
1, 13975, Control_c, 0, 67, 117
1, 13990, Control_c, 0, 67, 116
1, 14005, Control_c, 0, 67, 115
1, 14019, Control_c, 0, 67, 115
1, 14034, Control_c, 0, 67, 114
1, 14049, Control_c, 0, 67, 114
1, 14064, Control_c, 0, 67, 113
1, 14079, Control_c, 0, 67, 112
1, 14093, Control_c, 0, 67, 110
1, 14139, Note_on_c, 0, 57, 41
1, 14152, Control_c, 0, 67, 110
1, 14167, Control_c, 0, 67, 109
1, 14197, Control_c, 0, 67, 109
1, 14209, Note_off_c, 0, 50, 32
1, 14211, Control_c, 0, 67, 108
1, 14226, Control_c, 0, 67, 107
1, 14241, Control_c, 0, 67, 105
1, 14256, Control_c, 0, 67, 105
1, 14271, Control_c, 0, 67, 104
1, 14286, Control_c, 0, 67, 103
1, 14301, Control_c, 0, 67, 103
1, 14331, Control_c, 0, 67, 102
1, 14353, Control_c, 0, 67, 100
1, 14368, Control_c, 0, 67, 98
1, 14383, Control_c, 0, 67, 96
1, 14395, Note_on_c, 0, 72, 55
1, 14398, Control_c, 0, 67, 90
1, 14402, Note_on_c, 0, 50, 29
1, 14405, Note_off_c, 0, 57, 35
1, 14413, Control_c, 0, 67, 85
1, 14427, Control_c, 0, 67, 79
1, 14442, Control_c, 0, 67, 70
1, 14457, Control_c, 0, 67, 63
1, 14472, Control_c, 0, 67, 59
1, 14487, Control_c, 0, 67, 56
1, 14503, Control_c, 0, 67, 55
1, 14517, Control_c, 0, 67, 52
1, 14526, Note_off_c, 0, 73, 29
1, 14532, Control_c, 0, 67, 46
1, 14547, Control_c, 0, 67, 40
1, 14562, Control_c, 0, 67, 35
1, 14577, Control_c, 0, 67, 32
1, 14591, Control_c, 0, 67, 29
1, 14606, Control_c, 0, 67, 26
1, 14621, Control_c, 0, 67, 25
1, 14627, Note_off_c, 0, 50, 40
1, 14630, Note_on_c, 0, 45, 40
1, 14665, Control_c, 0, 67, 24
1, 14754, Control_c, 0, 67, 24
1, 14789, Note_off_c, 0, 45, 37
1, 14866, Note_on_c, 0, 37, 39
1, 14932, Control_c, 0, 67, 23
1, 15144, Note_off_c, 0, 37, 42
1, 15147, Control_c, 0, 67, 24
1, 15148, Note_on_c, 0, 44, 45
1, 15162, Control_c, 0, 67, 24
1, 15176, Control_c, 0, 67, 25
1, 15191, Control_c, 0, 64, 91
1, 15191, Control_c, 0, 67, 26
1, 15206, Control_c, 0, 64, 74
1, 15221, Control_c, 0, 64, 65
1, 15228, Note_on_c, 0, 73, 67
1, 15236, Control_c, 0, 64, 62
1, 15237, Note_off_c, 0, 44, 61
1, 15250, Control_c, 0, 64, 62
1, 15265, Control_c, 0, 64, 65
1, 15280, Control_c, 0, 64, 69
1, 15296, Control_c, 0, 64, 76
1, 15305, Note_on_c, 0, 44, 25
1, 15311, Control_c, 0, 64, 86
1, 15326, Control_c, 0, 64, 99
1, 15340, Control_c, 0, 64, 127
1, 15340, Control_c, 0, 67, 25
1, 15355, Control_c, 0, 67, 24
1, 15429, Control_c, 0, 67, 24
1, 15444, Control_c, 0, 67, 23
1, 15464, Note_off_c, 0, 72, 41
1, 15475, Note_on_c, 0, 52, 56
1, 15488, Control_c, 0, 67, 23
1, 15499, Note_off_c, 0, 44, 40
1, 15533, Control_c, 0, 67, 22
1, 15621, Control_c, 0, 67, 21
1, 15689, Note_on_c, 0, 61, 63
1, 15712, Note_off_c, 0, 52, 64
1, 15755, Control_c, 0, 67, 22
1, 15799, Control_c, 0, 67, 23
1, 15850, Control_c, 0, 67, 23
1, 15907, Note_off_c, 0, 61, 59
1, 15941, Note_on_c, 0, 52, 48
1, 15995, Note_on_c, 0, 80, 81
1, 16135, Note_off_c, 0, 73, 61
1, 16176, Note_off_c, 0, 52, 50
1, 16229, Note_on_c, 0, 44, 56
1, 16295, Note_off_c, 0, 44, 63
1, 16310, Control_c, 0, 67, 23
1, 16467, Note_on_c, 0, 37, 62
1, 16473, Control_c, 0, 67, 23
1, 16487, Control_c, 0, 67, 24
1, 16502, Control_c, 0, 67, 24
1, 16517, Control_c, 0, 67, 25
1, 16547, Control_c, 0, 67, 26
1, 16561, Control_c, 0, 67, 27
1, 16599, Control_c, 0, 67, 28
1, 16614, Control_c, 0, 67, 28
1, 16628, Control_c, 0, 67, 29
1, 16702, Control_c, 0, 64, 111
1, 16702, Control_c, 0, 67, 29
1, 16717, Control_c, 0, 64, 77
1, 16717, Control_c, 0, 67, 30
1, 16732, Control_c, 0, 64, 61
1, 16732, Control_c, 0, 67, 31
1, 16742, Note_on_c, 0, 35, 58
1, 16747, Control_c, 0, 64, 37
1, 16762, Control_c, 0, 64, 0
1, 16762, Control_c, 0, 67, 31
1, 16791, Control_c, 0, 67, 32
1, 16800, Note_off_c, 0, 37, 56
1, 16806, Control_c, 0, 67, 33
1, 16835, Control_c, 0, 64, 28
1, 16850, Control_c, 0, 64, 44
1, 16850, Control_c, 0, 67, 34
1, 16865, Control_c, 0, 64, 52
1, 16880, Control_c, 0, 64, 60
1, 16880, Control_c, 0, 67, 35
1, 16896, Control_c, 0, 64, 64
1, 16896, Control_c, 0, 67, 35
1, 16910, Control_c, 0, 64, 68
1, 16925, Control_c, 0, 64, 73
1, 16925, Control_c, 0, 67, 36
1, 16940, Control_c, 0, 64, 86
1, 16955, Control_c, 0, 64, 127
1, 16955, Control_c, 0, 67, 36
1, 17026, Note_off_c, 0, 35, 51
1, 17029, Note_on_c, 0, 47, 67
1, 17072, Note_off_c, 0, 47, 62
1, 17251, Control_c, 0, 67, 37
1, 17302, Note_on_c, 0, 63, 55
1, 17454, Note_off_c, 0, 80, 60
1, 17492, Note_off_c, 0, 63, 61
1, 17544, Note_on_c, 0, 57, 46
1, 17569, Control_c, 0, 67, 38
1, 17643, Control_c, 0, 67, 38
1, 17651, Note_on_c, 0, 80, 66
1, 17655, Note_off_c, 0, 57, 63
1, 17689, Control_c, 0, 67, 39
1, 17908, Note_on_c, 0, 47, 39
1, 17955, Control_c, 0, 67, 38
1, 17990, Note_on_c, 0, 78, 68
1, 18000, Control_c, 0, 67, 38
1, 18059, Control_c, 0, 67, 37
1, 18201, Control_c, 0, 67, 36
1, 18229, Note_off_c, 0, 80, 25
1, 18233, Note_off_c, 0, 47, 34
1, 18239, Note_on_c, 0, 35, 33
1, 18406, Note_on_c, 0, 76, 57
1, 18460, Note_off_c, 0, 78, 61
1, 18498, Control_c, 0, 67, 37
1, 18538, Note_off_c, 0, 76, 60
1, 18641, Note_on_c, 0, 40, 38
1, 18676, Control_c, 0, 67, 38
1, 18704, Note_on_c, 0, 76, 54
1, 18705, Control_c, 0, 67, 38
1, 18735, Control_c, 0, 64, 91
1, 18735, Control_c, 0, 67, 39
1, 18750, Control_c, 0, 64, 70
1, 18764, Note_off_c, 0, 35, 28
1, 18764, Control_c, 0, 64, 59
1, 18779, Control_c, 0, 64, 46
1, 18794, Control_c, 0, 64, 30
1, 18808, Control_c, 0, 64, 19
1, 18846, Control_c, 0, 64, 25
1, 18861, Control_c, 0, 64, 41
1, 18876, Control_c, 0, 64, 52
1, 18890, Control_c, 0, 64, 56
1, 18890, Control_c, 0, 67, 38
1, 18905, Control_c, 0, 64, 58
1, 18905, Control_c, 0, 67, 38
1, 18920, Control_c, 0, 64, 61
1, 18920, Control_c, 0, 67, 37
1, 18935, Control_c, 0, 64, 64
1, 18950, Control_c, 0, 64, 66
1, 18964, Control_c, 0, 64, 68
1, 18964, Control_c, 0, 67, 36
1, 18979, Control_c, 0, 64, 70
1, 18994, Control_c, 0, 64, 73
1, 19008, Control_c, 0, 64, 77
1, 19023, Control_c, 0, 64, 83
1, 19038, Control_c, 0, 64, 91
1, 19053, Control_c, 0, 64, 100
1, 19054, Note_on_c, 0, 47, 42
1, 19068, Control_c, 0, 64, 119
1, 19082, Control_c, 0, 64, 127
1, 19172, Control_c, 0, 67, 37
1, 19186, Control_c, 0, 67, 38
1, 19201, Control_c, 0, 67, 39
1, 19216, Control_c, 0, 67, 40
1, 19231, Control_c, 0, 67, 43
1, 19246, Control_c, 0, 67, 46
1, 19253, Note_off_c, 0, 47, 61
1, 19261, Control_c, 0, 67, 47
1, 19265, Note_off_c, 0, 40, 43
1, 19276, Control_c, 0, 67, 48
1, 19306, Note_on_c, 0, 64, 46
1, 19439, Control_c, 0, 67, 47
1, 19528, Control_c, 0, 67, 46
1, 19535, Note_on_c, 0, 56, 44
1, 19543, Control_c, 0, 67, 46
1, 19558, Control_c, 0, 67, 45
1, 19609, Control_c, 0, 67, 45
1, 19615, Note_off_c, 0, 64, 32
1, 19683, Control_c, 0, 67, 44
1, 19710, Note_off_c, 0, 56, 35
1, 19727, Control_c, 0, 67, 43
1, 19800, Note_on_c, 0, 47, 39
1, 19816, Control_c, 0, 67, 43
1, 19890, Control_c, 0, 67, 42
1, 19950, Control_c, 0, 67, 41
1, 20033, Note_off_c, 0, 47, 33
1, 20064, Note_on_c, 0, 39, 38
1, 20200, Note_off_c, 0, 76, 29
1, 20247, Control_c, 0, 67, 41
1, 20438, Note_on_c, 0, 37, 39
1, 20477, Note_off_c, 0, 39, 40
1, 20490, Note_on_c, 0, 76, 63
1, 20506, Control_c, 0, 64, 86
1, 20521, Control_c, 0, 64, 72
1, 20535, Control_c, 0, 64, 65
1, 20550, Control_c, 0, 64, 63
1, 20550, Control_c, 0, 67, 40
1, 20580, Control_c, 0, 64, 64
1, 20580, Control_c, 0, 67, 40
1, 20595, Control_c, 0, 64, 67
1, 20609, Control_c, 0, 64, 70
1, 20624, Control_c, 0, 64, 76
1, 20639, Control_c, 0, 64, 82
1, 20639, Control_c, 0, 67, 39
1, 20654, Control_c, 0, 64, 88
1, 20668, Control_c, 0, 64, 94
1, 20683, Control_c, 0, 64, 98
1, 20698, Control_c, 0, 64, 105
1, 20713, Control_c, 0, 64, 127
1, 20713, Control_c, 0, 67, 38
1, 20771, Note_on_c, 0, 44, 43
1, 20791, Note_off_c, 0, 37, 40
1, 21023, Note_on_c, 0, 56, 40
1, 21219, Note_off_c, 0, 76, 43
1, 21306, Note_on_c, 0, 49, 46
1, 21309, Note_on_c, 0, 76, 68
1, 21358, Note_off_c, 0, 44, 37
1, 21427, Note_off_c, 0, 56, 39
1, 21447, Control_c, 0, 67, 38
1, 21477, Control_c, 0, 67, 37
1, 21560, Note_on_c, 0, 44, 43
1, 21565, Control_c, 0, 67, 36
1, 21580, Control_c, 0, 67, 36
1, 21606, Note_off_c, 0, 49, 61
1, 21610, Control_c, 0, 67, 35
1, 21670, Control_c, 0, 67, 35
1, 21685, Control_c, 0, 67, 34
1, 21800, Note_on_c, 0, 37, 49
1, 21812, Note_off_c, 0, 44, 55
1, 22098, Note_on_c, 0, 44, 43
1, 22108, Control_c, 0, 67, 35
1, 22123, Control_c, 0, 67, 36
1, 22125, Note_on_c, 0, 77, 76
1, 22152, Control_c, 0, 64, 95
1, 22167, Control_c, 0, 64, 73
1, 22182, Control_c, 0, 64, 64
1, 22188, Note_off_c, 0, 37, 57
1, 22197, Control_c, 0, 64, 61
1, 22197, Control_c, 0, 67, 36
1, 22212, Control_c, 0, 64, 61
1, 22227, Control_c, 0, 64, 64
1, 22239, Note_off_c, 0, 76, 50
1, 22241, Control_c, 0, 64, 68
1, 22256, Control_c, 0, 64, 75
1, 22271, Control_c, 0, 64, 86
1, 22286, Control_c, 0, 64, 106
1, 22301, Control_c, 0, 64, 127
1, 22345, Control_c, 0, 67, 36
1, 22375, Note_on_c, 0, 49, 54
1, 22379, Note_off_c, 0, 44, 61
1, 22463, Control_c, 0, 67, 37
1, 22509, Control_c, 0, 67, 38
1, 22612, Note_on_c, 0, 59, 45
1, 22684, Note_off_c, 0, 49, 62
1, 22746, Note_off_c, 0, 59, 52
1, 22832, Note_on_c, 0, 49, 52
1, 22886, Control_c, 0, 67, 37
1, 22975, Control_c, 0, 67, 36
1, 23005, Control_c, 0, 67, 36
1, 23020, Control_c, 0, 67, 35
1, 23048, Note_on_c, 0, 44, 55
1, 23050, Control_c, 0, 67, 35
1, 23079, Control_c, 0, 67, 33
1, 23109, Control_c, 0, 67, 33
1, 23121, Note_off_c, 0, 49, 63
1, 23124, Control_c, 0, 67, 32
1, 23138, Control_c, 0, 67, 31
1, 23153, Control_c, 0, 67, 31
1, 23242, Control_c, 0, 67, 30
1, 23275, Note_on_c, 0, 37, 56
1, 23303, Note_off_c, 0, 44, 51
1, 23501, Control_c, 0, 67, 31
1, 23528, Note_off_c, 0, 37, 57
1, 23531, Control_c, 0, 67, 31
1, 23546, Note_on_c, 0, 45, 42
1, 23577, Note_on_c, 0, 78, 79
1, 23605, Control_c, 0, 64, 89
1, 23620, Control_c, 0, 64, 65
1, 23634, Control_c, 0, 64, 41
1, 23649, Control_c, 0, 64, 0
1, 23677, Note_off_c, 0, 77, 54
1, 23723, Control_c, 0, 64, 37
1, 23738, Control_c, 0, 64, 46
1, 23753, Control_c, 0, 64, 52
1, 23753, Control_c, 0, 67, 32
1, 23768, Control_c, 0, 64, 59
1, 23783, Control_c, 0, 64, 64
1, 23798, Control_c, 0, 64, 66
1, 23798, Control_c, 0, 67, 33
1, 23813, Control_c, 0, 64, 67
1, 23823, Note_on_c, 0, 49, 28
1, 23827, Control_c, 0, 67, 33
1, 23842, Control_c, 0, 64, 69
1, 23857, Control_c, 0, 64, 72
1, 23871, Control_c, 0, 64, 75
1, 23875, Note_off_c, 0, 45, 59
1, 23886, Control_c, 0, 64, 77
1, 23886, Control_c, 0, 67, 34
1, 23901, Control_c, 0, 64, 79
1, 23916, Control_c, 0, 64, 83
1, 23916, Control_c, 0, 67, 35
1, 23931, Control_c, 0, 64, 89
1, 23931, Control_c, 0, 67, 36
1, 23946, Control_c, 0, 64, 94
1, 23946, Control_c, 0, 67, 36
1, 23960, Control_c, 0, 64, 99
1, 23960, Control_c, 0, 67, 37
1, 23975, Control_c, 0, 64, 102
1, 23990, Control_c, 0, 64, 106
1, 23990, Control_c, 0, 67, 38
1, 24005, Control_c, 0, 64, 111
1, 24005, Control_c, 0, 67, 38
1, 24020, Control_c, 0, 64, 116
1, 24020, Control_c, 0, 67, 39
1, 24049, Note_on_c, 0, 57, 42
1, 24049, Control_c, 0, 67, 40
1, 24064, Control_c, 0, 64, 123
1, 24064, Control_c, 0, 67, 41
1, 24087, Control_c, 0, 64, 127
1, 24087, Control_c, 0, 67, 42
1, 24113, Note_off_c, 0, 49, 41
1, 24117, Control_c, 0, 67, 43
1, 24132, Control_c, 0, 67, 43
1, 24147, Control_c, 0, 67, 45
1, 24191, Control_c, 0, 67, 45
1, 24206, Control_c, 0, 67, 47
1, 24221, Control_c, 0, 67, 48
1, 24236, Control_c, 0, 67, 48
1, 24265, Control_c, 0, 67, 49
1, 24275, Note_off_c, 0, 57, 37
1, 24280, Control_c, 0, 67, 50
1, 24289, Note_on_c, 0, 49, 38
1, 24295, Control_c, 0, 67, 51
1, 24309, Control_c, 0, 67, 51
1, 24324, Control_c, 0, 67, 52
1, 24339, Control_c, 0, 67, 53
1, 24443, Control_c, 0, 67, 53
1, 24472, Control_c, 0, 67, 54
1, 24487, Control_c, 0, 67, 55
1, 24531, Control_c, 0, 67, 55
1, 24534, Note_on_c, 0, 45, 36
1, 24546, Control_c, 0, 67, 57
1, 24560, Note_off_c, 0, 49, 61
1, 24561, Control_c, 0, 67, 70
1, 24576, Control_c, 0, 67, 87
1, 24591, Control_c, 0, 67, 100
1, 24606, Control_c, 0, 67, 108
1, 24621, Control_c, 0, 67, 115
1, 24636, Control_c, 0, 67, 120
1, 24647, Note_off_c, 0, 45, 55
1, 24650, Control_c, 0, 67, 124
1, 24665, Control_c, 0, 67, 127
1, 24755, Note_on_c, 0, 37, 40
1, 24999, Control_c, 0, 64, 81
1, 25002, Note_on_c, 0, 45, 32
1, 25004, Note_off_c, 0, 37, 42
1, 25014, Control_c, 0, 64, 65
1, 25029, Control_c, 0, 64, 55
1, 25059, Control_c, 0, 64, 60
1, 25074, Control_c, 0, 64, 65
1, 25088, Control_c, 0, 64, 71
1, 25103, Control_c, 0, 64, 81
1, 25118, Control_c, 0, 64, 89
1, 25132, Control_c, 0, 64, 91
1, 25177, Control_c, 0, 64, 94
1, 25192, Control_c, 0, 64, 106
1, 25206, Control_c, 0, 64, 127
1, 25282, Note_on_c, 0, 50, 35
1, 25361, Note_off_c, 0, 45, 43
1, 25523, Note_on_c, 0, 57, 48
1, 25603, Note_off_c, 0, 50, 38
1, 25804, Note_on_c, 0, 50, 28
1, 25820, Note_off_c, 0, 57, 32
1, 25823, Note_on_c, 0, 76, 54
1, 26048, Note_off_c, 0, 78, 32
1, 26052, Note_off_c, 0, 50, 40
1, 26061, Note_on_c, 0, 45, 38
1, 26220, Note_off_c, 0, 45, 33
1, 26288, Note_on_c, 0, 37, 32
1, 26399, Note_on_c, 0, 74, 55
1, 26554, Note_off_c, 0, 37, 40
1, 26578, Note_on_c, 0, 73, 61
1, 26593, Note_off_c, 0, 76, 26
1, 26594, Note_on_c, 0, 45, 22
1, 26654, Note_off_c, 0, 74, 57
1, 26840, Note_on_c, 0, 50, 45
1, 26851, Note_off_c, 0, 45, 39
1, 27084, Note_on_c, 0, 57, 39
1, 27098, Note_off_c, 0, 50, 30
1, 27184, Control_c, 0, 64, 123
1, 27214, Control_c, 0, 64, 119
1, 27229, Control_c, 0, 64, 115
1, 27244, Control_c, 0, 64, 112
1, 27259, Control_c, 0, 64, 111
1, 27274, Control_c, 0, 64, 109
1, 27289, Control_c, 0, 64, 107
1, 27304, Control_c, 0, 64, 105
1, 27318, Control_c, 0, 64, 104
1, 27319, Note_off_c, 0, 57, 37
1, 27330, Note_on_c, 0, 72, 60
1, 27333, Control_c, 0, 64, 103
1, 27355, Note_on_c, 0, 50, 24
1, 27363, Control_c, 0, 64, 103
1, 27378, Control_c, 0, 64, 102
1, 27408, Control_c, 0, 64, 102
1, 27423, Control_c, 0, 64, 101
1, 27482, Control_c, 0, 64, 101
1, 27497, Control_c, 0, 64, 100
1, 27512, Control_c, 0, 64, 98
1, 27526, Control_c, 0, 64, 97
1, 27566, Note_off_c, 0, 50, 40
1, 27571, Note_off_c, 0, 73, 19
1, 27571, Control_c, 0, 64, 96
1, 27574, Note_on_c, 0, 45, 39
1, 27600, Control_c, 0, 64, 96
1, 27615, Control_c, 0, 64, 95
1, 27660, Control_c, 0, 64, 95
1, 27674, Control_c, 0, 64, 94
1, 27704, Control_c, 0, 64, 94
1, 27718, Note_off_c, 0, 45, 37
1, 27778, Control_c, 0, 64, 93
1, 27807, Note_on_c, 0, 37, 37
1, 27919, Control_c, 0, 64, 93
1, 28016, Note_off_c, 0, 37, 41
1, 28067, Note_on_c, 0, 45, 30
1, 28097, Control_c, 0, 64, 92
1, 28112, Control_c, 0, 64, 92
1, 28127, Control_c, 0, 64, 91
1, 28132, Note_off_c, 0, 72, 34
1, 28245, Control_c, 0, 64, 90
1, 28275, Control_c, 0, 64, 90
1, 28312, Note_on_c, 0, 50, 40
1, 28329, Note_off_c, 0, 45, 39
1, 28349, Control_c, 0, 64, 89
1, 28394, Control_c, 0, 64, 89
1, 28423, Control_c, 0, 64, 88
1, 28482, Control_c, 0, 64, 87
1, 28497, Control_c, 0, 64, 87
1, 28542, Note_on_c, 0, 57, 41
1, 28594, Control_c, 0, 64, 86
1, 28605, Note_off_c, 0, 50, 36
1, 28623, Control_c, 0, 64, 86
1, 28638, Control_c, 0, 64, 85
1, 28653, Control_c, 0, 64, 84
1, 28668, Control_c, 0, 64, 82
1, 28682, Control_c, 0, 64, 81
1, 28697, Control_c, 0, 64, 81
1, 28770, Note_on_c, 0, 50, 30
1, 28794, Note_off_c, 0, 57, 42
1, 28845, Control_c, 0, 64, 80
1, 29010, Note_off_c, 0, 50, 41
1, 29015, Note_on_c, 0, 45, 36
1, 29038, Control_c, 0, 64, 81
1, 29159, Note_off_c, 0, 45, 38
1, 29252, Note_on_c, 0, 37, 29
1, 29261, Control_c, 0, 64, 81
1, 29372, Control_c, 0, 64, 82
1, 29447, Control_c, 0, 64, 82
1, 29483, Note_off_c, 0, 37, 41
1, 29511, Note_on_c, 0, 45, 24
1, 29654, Control_c, 0, 64, 83
1, 29729, Control_c, 0, 64, 83
1, 29759, Control_c, 0, 64, 84
1, 29760, Note_on_c, 0, 50, 38
1, 29819, Note_off_c, 0, 45, 38
1, 29848, Control_c, 0, 64, 84
1, 30010, Note_on_c, 0, 57, 47
1, 30097, Note_off_c, 0, 50, 38
1, 30180, Control_c, 0, 64, 84
1, 30232, Note_on_c, 0, 50, 48
1, 30264, Note_off_c, 0, 57, 40
1, 30284, Control_c, 0, 64, 84
1, 30462, Control_c, 0, 64, 84
1, 30479, Note_off_c, 0, 50, 56
1, 30502, Note_on_c, 0, 45, 41
1, 30680, Note_off_c, 0, 45, 33
1, 30699, Control_c, 0, 64, 83
1, 30755, Note_on_c, 0, 37, 37
1, 30803, Control_c, 0, 64, 83
1, 30870, Control_c, 0, 64, 82
1, 30885, Control_c, 0, 64, 82
1, 30899, Control_c, 0, 64, 81
1, 30914, Control_c, 0, 64, 80
1, 30929, Control_c, 0, 64, 80
1, 30943, Control_c, 0, 64, 79
1, 30958, Control_c, 0, 64, 78
1, 30973, Control_c, 0, 64, 77
1, 30988, Control_c, 0, 64, 76
1, 31003, Control_c, 0, 64, 76
1, 31088, Note_on_c, 0, 44, 38
1, 31098, Note_off_c, 0, 37, 41
1, 31107, Control_c, 0, 64, 76
1, 31136, Control_c, 0, 64, 76
1, 31151, Control_c, 0, 64, 72
1, 31166, Control_c, 0, 64, 66
1, 31170, Note_on_c, 0, 85, 78
1, 31181, Control_c, 0, 64, 56
1, 31182, Note_on_c, 0, 73, 55
1, 31196, Control_c, 0, 64, 35
1, 31210, Control_c, 0, 64, 24
1, 31225, Control_c, 0, 64, 24
1, 31240, Control_c, 0, 64, 30
1, 31255, Control_c, 0, 64, 44
1, 31257, Note_off_c, 0, 44, 0
1, 31257, Note_on_c, 0, 44, 12
1, 31271, Control_c, 0, 64, 56
1, 31286, Control_c, 0, 64, 61
1, 31301, Control_c, 0, 64, 64
1, 31315, Control_c, 0, 64, 66
1, 31330, Control_c, 0, 64, 69
1, 31345, Control_c, 0, 64, 73
1, 31360, Control_c, 0, 64, 79
1, 31374, Control_c, 0, 64, 91
1, 31389, Control_c, 0, 64, 116
1, 31404, Control_c, 0, 64, 127
1, 31508, Note_on_c, 0, 52, 39
1, 31542, Note_off_c, 0, 44, 39
1, 31648, Control_c, 0, 67, 125
1, 31663, Control_c, 0, 67, 115
1, 31678, Control_c, 0, 67, 109
1, 31693, Control_c, 0, 67, 104
1, 31708, Control_c, 0, 67, 102
1, 31722, Control_c, 0, 67, 97
1, 31737, Control_c, 0, 67, 90
1, 31752, Control_c, 0, 67, 83
1, 31760, Note_off_c, 0, 52, 51
1, 31764, Note_on_c, 0, 61, 35
1, 31766, Control_c, 0, 67, 75
1, 31781, Control_c, 0, 67, 68
1, 31796, Control_c, 0, 67, 60
1, 31811, Control_c, 0, 67, 55
1, 31826, Control_c, 0, 67, 48
1, 31840, Control_c, 0, 67, 43
1, 31855, Control_c, 0, 67, 40
1, 31870, Control_c, 0, 67, 37
1, 31885, Control_c, 0, 67, 35
1, 31900, Control_c, 0, 67, 33
1, 31915, Control_c, 0, 67, 31
1, 31930, Control_c, 0, 67, 30
1, 31959, Control_c, 0, 67, 29
1, 31988, Note_off_c, 0, 61, 52
1, 32007, Note_on_c, 0, 80, 71
1, 32012, Note_on_c, 0, 52, 39
1, 32033, Control_c, 0, 67, 29
1, 32212, Control_c, 0, 67, 28
1, 32245, Note_off_c, 0, 52, 55
1, 32257, Note_on_c, 0, 44, 47
1, 32320, Note_off_c, 0, 73, 32
1, 32352, Note_off_c, 0, 44, 63
1, 32353, Control_c, 0, 67, 29
1, 32515, Control_c, 0, 67, 29
1, 32524, Note_on_c, 0, 37, 38
1, 32575, Control_c, 0, 67, 30
1, 32611, Note_off_c, 0, 37, 53
1, 32663, Control_c, 0, 67, 31
1, 32678, Control_c, 0, 67, 31
1, 32779, Note_on_c, 0, 37, 33
1, 32844, Note_on_c, 0, 78, 75
1, 32872, Control_c, 0, 64, 115
1, 32887, Control_c, 0, 64, 83
1, 32902, Control_c, 0, 64, 71
1, 32917, Control_c, 0, 64, 66
1, 32917, Control_c, 0, 67, 31
1, 32922, Note_off_c, 0, 80, 60
1, 32931, Control_c, 0, 64, 67
1, 32931, Control_c, 0, 67, 29
1, 32939, Note_off_c, 0, 85, 34
1, 32946, Control_c, 0, 64, 72
1, 32961, Control_c, 0, 64, 86
1, 32961, Control_c, 0, 67, 29
1, 32976, Control_c, 0, 64, 127
1, 33050, Control_c, 0, 67, 28
1, 33128, Note_off_c, 0, 37, 51
1, 33133, Note_on_c, 0, 44, 47
1, 33144, Note_on_c, 0, 80, 75
1, 33176, Control_c, 0, 67, 28
1, 33220, Note_off_c, 0, 78, 60
1, 33233, Note_off_c, 0, 44, 62
1, 33235, Control_c, 0, 67, 28
1, 33250, Control_c, 0, 67, 29
1, 33354, Control_c, 0, 67, 29
1, 33366, Note_on_c, 0, 78, 78
1, 33393, Note_on_c, 0, 60, 42
1, 33413, Control_c, 0, 67, 30
1, 33597, Note_off_c, 0, 60, 57
1, 33600, Note_on_c, 0, 76, 74
1, 33604, Note_on_c, 0, 54, 45
1, 33671, Note_off_c, 0, 80, 36
1, 33705, Note_off_c, 0, 78, 57
1, 33798, Note_off_c, 0, 54, 54
1, 33843, Note_on_c, 0, 44, 48
1, 33909, Note_off_c, 0, 44, 62
1, 34118, Note_on_c, 0, 37, 34
1, 34187, Note_off_c, 0, 37, 56
1, 34208, Note_on_c, 0, 75, 54
1, 34257, Note_off_c, 0, 76, 63
1, 34324, Control_c, 0, 67, 31
1, 34383, Control_c, 0, 67, 31
1, 34394, Note_on_c, 0, 73, 50
1, 34398, Control_c, 0, 64, 107
1, 34402, Note_on_c, 0, 37, 35
1, 34413, Control_c, 0, 64, 78
1, 34428, Control_c, 0, 64, 65
1, 34443, Control_c, 0, 64, 55
1, 34455, Note_off_c, 0, 75, 47
1, 34458, Control_c, 0, 64, 43
1, 34473, Control_c, 0, 64, 35
1, 34503, Control_c, 0, 64, 38
1, 34518, Control_c, 0, 64, 48
1, 34532, Control_c, 0, 64, 57
1, 34547, Control_c, 0, 64, 62
1, 34547, Control_c, 0, 67, 32
1, 34570, Control_c, 0, 64, 64
1, 34585, Control_c, 0, 64, 66
1, 34599, Control_c, 0, 64, 69
1, 34614, Control_c, 0, 64, 73
1, 34629, Control_c, 0, 64, 78
1, 34644, Control_c, 0, 64, 88
1, 34658, Control_c, 0, 64, 105
1, 34673, Control_c, 0, 64, 127
1, 34684, Note_on_c, 0, 44, 34
1, 34692, Note_off_c, 0, 37, 40
1, 34703, Control_c, 0, 67, 33
1, 34762, Control_c, 0, 67, 33
1, 34771, Note_off_c, 0, 44, 57
1, 34777, Control_c, 0, 67, 34
1, 34836, Control_c, 0, 67, 35
1, 34914, Note_on_c, 0, 61, 45
1, 35044, Control_c, 0, 67, 34
1, 35122, Note_off_c, 0, 61, 55
1, 35132, Control_c, 0, 67, 33
1, 35155, Note_on_c, 0, 52, 41
1, 35191, Control_c, 0, 67, 33
1, 35221, Control_c, 0, 67, 32
1, 35281, Control_c, 0, 67, 31
1, 35319, Control_c, 0, 67, 31
1, 35363, Control_c, 0, 67, 30
1, 35393, Control_c, 0, 67, 29
1, 35395, Note_off_c, 0, 52, 36
1, 35407, Note_on_c, 0, 44, 40
1, 35452, Control_c, 0, 67, 29
1, 35482, Note_off_c, 0, 44, 62
1, 35656, Note_on_c, 0, 37, 34
1, 35713, Note_off_c, 0, 37, 58
1, 35920, Note_on_c, 0, 37, 36
1, 35985, Control_c, 0, 64, 107
1, 35985, Control_c, 0, 67, 29
1, 35997, Note_on_c, 0, 75, 71
1, 36000, Control_c, 0, 64, 84
1, 36014, Control_c, 0, 64, 72
1, 36029, Control_c, 0, 64, 64
1, 36044, Control_c, 0, 64, 61
1, 36067, Control_c, 0, 64, 62
1, 36082, Control_c, 0, 64, 65
1, 36097, Control_c, 0, 64, 69
1, 36112, Control_c, 0, 64, 73
1, 36127, Control_c, 0, 64, 80
1, 36142, Control_c, 0, 64, 86
1, 36157, Control_c, 0, 64, 94
1, 36171, Control_c, 0, 64, 114
1, 36186, Control_c, 0, 64, 127
1, 36228, Note_off_c, 0, 37, 58
1, 36231, Control_c, 0, 67, 29
1, 36266, Note_on_c, 0, 44, 44
1, 36300, Note_off_c, 0, 73, 39
1, 36305, Control_c, 0, 67, 28
1, 36343, Note_off_c, 0, 44, 60
1, 36502, Note_on_c, 0, 60, 39
1, 36744, Note_off_c, 0, 60, 37
1, 36754, Note_on_c, 0, 54, 47
1, 36920, Control_c, 0, 67, 28
1, 36953, Note_off_c, 0, 54, 63
1, 36985, Note_on_c, 0, 44, 52
1, 37060, Note_off_c, 0, 44, 62
1, 37082, Control_c, 0, 67, 27
1, 37222, Note_on_c, 0, 37, 50
1, 37266, Note_off_c, 0, 37, 58
1, 37364, Control_c, 0, 67, 28
1, 37442, Note_on_c, 0, 37, 39
1, 37497, Control_c, 0, 67, 28
1, 37511, Control_c, 0, 67, 30
1, 37524, Note_on_c, 0, 76, 73
1, 37526, Control_c, 0, 67, 31
1, 37541, Control_c, 0, 64, 107
1, 37564, Control_c, 0, 64, 77
1, 37578, Control_c, 0, 64, 65
1, 37593, Control_c, 0, 64, 59
1, 37623, Control_c, 0, 64, 62
1, 37638, Control_c, 0, 64, 66
1, 37653, Control_c, 0, 64, 73
1, 37668, Control_c, 0, 64, 88
1, 37683, Control_c, 0, 64, 127
1, 37711, Note_off_c, 0, 75, 33
1, 37728, Control_c, 0, 67, 30
1, 37772, Note_off_c, 0, 37, 40
1, 37772, Control_c, 0, 67, 29
1, 37772, Note_on_c, 0, 44, 55
1, 37846, Note_off_c, 0, 44, 60
1, 37996, Note_on_c, 0, 61, 54
1, 38086, Note_on_c, 0, 78, 78
1, 38197, Note_off_c, 0, 61, 51
1, 38255, Note_on_c, 0, 52, 47
1, 38315, Note_on_c, 0, 80, 79
1, 38327, Control_c, 0, 67, 29
1, 38351, Note_off_c, 0, 76, 64
1, 38427, Note_off_c, 0, 78, 56
1, 38526, Note_off_c, 0, 52, 55
1, 38548, Note_on_c, 0, 44, 58
1, 38621, Note_off_c, 0, 44, 63
1, 38684, Control_c, 0, 67, 28
1, 38783, Note_on_c, 0, 37, 54
1, 39069, Note_on_c, 0, 32, 53
1, 39091, Control_c, 0, 67, 29
1, 39105, Control_c, 0, 67, 29
1, 39120, Control_c, 0, 67, 30
1, 39126, Note_on_c, 0, 78, 83
1, 39135, Control_c, 0, 64, 109
1, 39150, Control_c, 0, 64, 75
1, 39150, Control_c, 0, 67, 31
1, 39165, Control_c, 0, 64, 60
1, 39179, Control_c, 0, 64, 39
1, 39182, Note_off_c, 0, 37, 36
1, 39194, Control_c, 0, 64, 28
1, 39209, Control_c, 0, 64, 29
1, 39224, Control_c, 0, 64, 39
1, 39239, Control_c, 0, 64, 54
1, 39254, Control_c, 0, 64, 62
1, 39257, Note_off_c, 0, 80, 62
1, 39269, Control_c, 0, 64, 67
1, 39284, Control_c, 0, 64, 75
1, 39299, Control_c, 0, 64, 106
1, 39314, Control_c, 0, 64, 127
1, 39382, Note_off_c, 0, 32, 61
1, 39403, Note_on_c, 0, 44, 39
1, 39433, Note_off_c, 0, 44, 58
1, 39647, Note_on_c, 0, 60, 50
1, 39869, Note_off_c, 0, 60, 37
1, 39894, Note_on_c, 0, 54, 54
1, 39916, Note_on_c, 0, 74, 62
1, 39953, Note_off_c, 0, 54, 61
1, 40063, Control_c, 0, 67, 30
1, 40170, Note_on_c, 0, 44, 34
1, 40315, Control_c, 0, 67, 31
1, 40411, Note_off_c, 0, 44, 33
1, 40414, Note_on_c, 0, 32, 41
1, 40418, Control_c, 0, 67, 31
1, 40663, Control_c, 0, 67, 32
1, 40727, Note_off_c, 0, 78, 33
1, 40734, Note_on_c, 0, 37, 35
1, 40736, Control_c, 0, 67, 33
1, 40766, Control_c, 0, 64, 96
1, 40781, Control_c, 0, 64, 71
1, 40796, Control_c, 0, 64, 59
1, 40801, Note_on_c, 0, 73, 53
1, 40810, Control_c, 0, 64, 49
1, 40825, Control_c, 0, 64, 46
1, 40840, Note_off_c, 0, 74, 58
1, 40840, Control_c, 0, 64, 47
1, 40856, Control_c, 0, 64, 54
1, 40871, Control_c, 0, 64, 60
1, 40879, Note_off_c, 0, 32, 34
1, 40886, Control_c, 0, 64, 62
1, 40900, Control_c, 0, 64, 63
1, 40915, Control_c, 0, 64, 65
1, 40930, Control_c, 0, 64, 67
1, 40945, Control_c, 0, 64, 71
1, 40960, Control_c, 0, 64, 75
1, 40974, Control_c, 0, 64, 81
1, 40989, Control_c, 0, 64, 86
1, 41004, Control_c, 0, 64, 91
1, 41019, Control_c, 0, 64, 94
1, 41034, Control_c, 0, 64, 97
1, 41048, Control_c, 0, 64, 98
1, 41063, Control_c, 0, 64, 103
1, 41078, Control_c, 0, 64, 111
1, 41093, Control_c, 0, 64, 127
1, 41117, Note_on_c, 0, 44, 35
1, 41379, Note_on_c, 0, 61, 43
1, 41379, Note_off_c, 0, 44, 50
1, 41411, Note_off_c, 0, 37, 40
1, 41636, Note_on_c, 0, 52, 39
1, 41668, Note_off_c, 0, 61, 39
1, 41911, Note_on_c, 0, 44, 37
1, 41931, Control_c, 0, 67, 32
1, 41932, Note_off_c, 0, 52, 45
1, 42020, Control_c, 0, 67, 31
1, 42101, Control_c, 0, 67, 31
1, 42140, Note_on_c, 0, 37, 42
1, 42175, Control_c, 0, 67, 30
1, 42203, Note_off_c, 0, 44, 39
1, 42289, Note_off_c, 0, 37, 32
1, 42353, Control_c, 0, 67, 29
1, 42382, Control_c, 0, 67, 29
1, 42432, Note_on_c, 0, 37, 39
1, 42487, Control_c, 0, 64, 101
1, 42502, Control_c, 0, 64, 80
1, 42512, Note_on_c, 0, 68, 59
1, 42517, Control_c, 0, 64, 68
1, 42532, Control_c, 0, 64, 62
1, 42546, Control_c, 0, 64, 59
1, 42561, Control_c, 0, 64, 60
1, 42576, Control_c, 0, 64, 62
1, 42591, Control_c, 0, 64, 64
1, 42605, Control_c, 0, 64, 66
1, 42620, Control_c, 0, 64, 69
1, 42635, Control_c, 0, 64, 71
1, 42650, Control_c, 0, 64, 75
1, 42665, Control_c, 0, 64, 80
1, 42679, Control_c, 0, 64, 87
1, 42694, Control_c, 0, 64, 103
1, 42709, Control_c, 0, 64, 127
1, 42748, Note_off_c, 0, 73, 39
1, 42781, Note_on_c, 0, 44, 47
1, 42798, Note_off_c, 0, 37, 41
1, 42870, Note_off_c, 0, 44, 60
1, 42939, Control_c, 0, 67, 29
1, 42968, Control_c, 0, 67, 30
1, 43042, Note_on_c, 0, 60, 48
1, 43146, Control_c, 0, 67, 31
1, 43266, Control_c, 0, 67, 31
1, 43300, Note_on_c, 0, 80, 86
1, 43309, Note_on_c, 0, 54, 52
1, 43316, Note_off_c, 0, 60, 38
1, 43535, Note_off_c, 0, 54, 61
1, 43549, Note_on_c, 0, 44, 58
1, 43555, Control_c, 0, 67, 31
1, 43555, Note_off_c, 0, 68, 54
1, 43584, Control_c, 0, 67, 30
1, 43599, Control_c, 0, 67, 29
1, 43614, Control_c, 0, 67, 29
1, 43622, Note_off_c, 0, 44, 63
1, 43628, Control_c, 0, 67, 28
1, 43673, Control_c, 0, 67, 28
1, 43688, Control_c, 0, 67, 27
1, 43702, Control_c, 0, 67, 26
1, 43717, Control_c, 0, 67, 25
1, 43747, Control_c, 0, 67, 24
1, 43762, Control_c, 0, 67, 24
1, 43776, Control_c, 0, 67, 23
1, 43783, Note_on_c, 0, 37, 61
1, 43791, Control_c, 0, 67, 21
1, 43806, Control_c, 0, 67, 13
1, 43821, Control_c, 0, 67, 0
1, 43839, Note_off_c, 0, 37, 59
1, 44037, Note_on_c, 0, 37, 50
1, 44140, Note_on_c, 0, 85, 75
1, 44163, Control_c, 0, 64, 123
1, 44178, Control_c, 0, 64, 78
1, 44192, Control_c, 0, 64, 63
1, 44207, Control_c, 0, 64, 47
1, 44222, Control_c, 0, 64, 39
1, 44236, Control_c, 0, 64, 40
1, 44251, Control_c, 0, 64, 50
1, 44266, Control_c, 0, 64, 61
1, 44281, Control_c, 0, 64, 66
1, 44304, Control_c, 0, 64, 73
1, 44318, Control_c, 0, 64, 91
1, 44333, Control_c, 0, 64, 127
1, 44410, Note_off_c, 0, 80, 54
1, 44443, Note_on_c, 0, 44, 52
1, 44445, Note_off_c, 0, 37, 59
1, 44533, Note_off_c, 0, 44, 61
1, 44666, Note_on_c, 0, 61, 61
1, 44894, Note_off_c, 0, 61, 52
1, 44922, Note_on_c, 0, 80, 79
1, 44932, Note_on_c, 0, 52, 46
1, 45154, Note_off_c, 0, 52, 59
1, 45175, Note_on_c, 0, 44, 51
1, 45247, Note_off_c, 0, 44, 62
1, 45426, Note_on_c, 0, 37, 41
1, 45474, Note_off_c, 0, 37, 55
1, 45621, Note_off_c, 0, 85, 19
1, 45685, Note_on_c, 0, 37, 43
1, 45705, Control_c, 0, 64, 102
1, 45716, Note_on_c, 0, 78, 68
1, 45720, Control_c, 0, 64, 73
1, 45734, Control_c, 0, 64, 63
1, 45749, Control_c, 0, 64, 57
1, 45779, Control_c, 0, 64, 60
1, 45781, Note_off_c, 0, 80, 59
1, 45801, Control_c, 0, 64, 65
1, 45816, Control_c, 0, 64, 73
1, 45830, Control_c, 0, 64, 87
1, 45845, Control_c, 0, 64, 127
1, 45969, Note_off_c, 0, 37, 57
1, 45982, Note_on_c, 0, 44, 47
1, 46016, Note_on_c, 0, 80, 79
1, 46065, Note_off_c, 0, 44, 60
1, 46103, Note_off_c, 0, 78, 63
1, 46202, Note_on_c, 0, 60, 51
1, 46214, Note_on_c, 0, 78, 86
1, 46344, Note_off_c, 0, 80, 58
1, 46422, Note_off_c, 0, 60, 52
1, 46445, Note_on_c, 0, 76, 76
1, 46457, Note_on_c, 0, 54, 46
1, 46498, Note_off_c, 0, 78, 61
1, 46640, Note_off_c, 0, 54, 62
1, 46685, Note_on_c, 0, 44, 53
1, 46756, Note_off_c, 0, 44, 61
1, 46948, Note_on_c, 0, 37, 47
1, 47016, Note_off_c, 0, 37, 59
1, 47038, Note_on_c, 0, 75, 59
1, 47069, Note_off_c, 0, 76, 60
1, 47237, Note_on_c, 0, 37, 36
1, 47240, Note_on_c, 0, 73, 56
1, 47261, Control_c, 0, 64, 123
1, 47276, Control_c, 0, 64, 80
1, 47299, Control_c, 0, 64, 63
1, 47310, Note_off_c, 0, 75, 50
1, 47314, Control_c, 0, 64, 51
1, 47329, Control_c, 0, 64, 44
1, 47343, Control_c, 0, 64, 38
1, 47373, Control_c, 0, 64, 44
1, 47388, Control_c, 0, 64, 57
1, 47403, Control_c, 0, 64, 63
1, 47417, Control_c, 0, 64, 66
1, 47432, Control_c, 0, 64, 69
1, 47447, Control_c, 0, 64, 73
1, 47462, Control_c, 0, 64, 79
1, 47476, Control_c, 0, 64, 87
1, 47491, Control_c, 0, 64, 107
1, 47506, Control_c, 0, 64, 127
1, 47519, Note_on_c, 0, 44, 38
1, 47523, Note_off_c, 0, 37, 40
1, 47610, Note_off_c, 0, 44, 60
1, 47754, Note_on_c, 0, 61, 41
1, 47956, Note_off_c, 0, 61, 47
1, 47991, Note_on_c, 0, 52, 44
1, 48225, Note_off_c, 0, 52, 59
1, 48255, Note_on_c, 0, 44, 42
1, 48322, Note_off_c, 0, 44, 63
1, 48499, Note_on_c, 0, 37, 58
1, 48832, Note_on_c, 0, 32, 55
1, 48864, Note_on_c, 0, 75, 53
1, 48885, Control_c, 0, 64, 79
1, 48900, Control_c, 0, 64, 63
1, 48914, Control_c, 0, 64, 42
1, 48929, Control_c, 0, 64, 0
1, 48933, Note_off_c, 0, 37, 49
1, 48944, Note_off_c, 0, 73, 38
1, 49003, Control_c, 0, 64, 32
1, 49018, Control_c, 0, 64, 49
1, 49033, Control_c, 0, 64, 58
1, 49047, Control_c, 0, 64, 62
1, 49062, Control_c, 0, 64, 66
1, 49077, Control_c, 0, 64, 73
1, 49092, Control_c, 0, 64, 85
1, 49107, Control_c, 0, 64, 113
1, 49112, Note_off_c, 0, 32, 61
1, 49121, Note_on_c, 0, 44, 51
1, 49121, Control_c, 0, 64, 127
1, 49161, Note_off_c, 0, 44, 63
1, 49356, Note_on_c, 0, 60, 44
1, 49580, Note_off_c, 0, 60, 39
1, 49603, Note_on_c, 0, 54, 53
1, 49679, Note_off_c, 0, 54, 63
1, 49860, Note_on_c, 0, 44, 36
1, 49925, Note_off_c, 0, 44, 48
1, 50087, Note_on_c, 0, 32, 52
1, 50397, Note_on_c, 0, 37, 48
1, 50426, Control_c, 0, 67, 8
1, 50441, Control_c, 0, 64, 110
1, 50448, Note_on_c, 0, 76, 60
1, 50456, Control_c, 0, 64, 80
1, 50471, Control_c, 0, 64, 63
1, 50486, Control_c, 0, 64, 50
1, 50501, Control_c, 0, 64, 36
1, 50516, Control_c, 0, 64, 25
1, 50531, Control_c, 0, 64, 25
1, 50546, Note_off_c, 0, 75, 53
1, 50546, Control_c, 0, 64, 31
1, 50559, Note_off_c, 0, 32, 39
1, 50560, Control_c, 0, 64, 47
1, 50575, Control_c, 0, 64, 55
1, 50590, Control_c, 0, 64, 58
1, 50605, Control_c, 0, 64, 61
1, 50620, Control_c, 0, 64, 64
1, 50634, Control_c, 0, 64, 69
1, 50634, Control_c, 0, 67, 0
1, 50649, Control_c, 0, 64, 80
1, 50664, Control_c, 0, 64, 98
1, 50679, Control_c, 0, 64, 127
1, 50708, Note_on_c, 0, 44, 54
1, 50745, Note_off_c, 0, 44, 64
1, 50746, Note_off_c, 0, 37, 57
1, 50933, Note_on_c, 0, 61, 58
1, 51041, Note_on_c, 0, 78, 69
1, 51123, Note_off_c, 0, 61, 51
1, 51196, Note_on_c, 0, 52, 50
1, 51197, Note_on_c, 0, 80, 77
1, 51246, Note_off_c, 0, 76, 53
1, 51315, Note_off_c, 0, 78, 58
1, 51438, Note_off_c, 0, 52, 62
1, 51440, Note_on_c, 0, 44, 53
1, 51528, Note_off_c, 0, 44, 63
1, 51675, Note_on_c, 0, 37, 59
1, 51968, Note_on_c, 0, 42, 57
1, 51979, Note_off_c, 0, 37, 60
1, 51982, Control_c, 0, 64, 94
1, 51997, Control_c, 0, 64, 69
1, 51999, Note_on_c, 0, 78, 69
1, 52012, Control_c, 0, 64, 53
1, 52027, Control_c, 0, 64, 36
1, 52034, Note_off_c, 0, 80, 57
1, 52042, Control_c, 0, 64, 27
1, 52072, Control_c, 0, 64, 35
1, 52087, Control_c, 0, 64, 47
1, 52102, Control_c, 0, 64, 54
1, 52117, Control_c, 0, 64, 58
1, 52131, Control_c, 0, 64, 60
1, 52146, Control_c, 0, 64, 62
1, 52161, Control_c, 0, 64, 64
1, 52176, Control_c, 0, 64, 66
1, 52191, Control_c, 0, 64, 69
1, 52205, Control_c, 0, 64, 72
1, 52220, Control_c, 0, 64, 75
1, 52235, Control_c, 0, 64, 79
1, 52250, Control_c, 0, 64, 83
1, 52264, Control_c, 0, 64, 88
1, 52279, Control_c, 0, 64, 94
1, 52294, Note_on_c, 0, 50, 40
1, 52294, Control_c, 0, 64, 102
1, 52309, Control_c, 0, 64, 116
1, 52324, Control_c, 0, 64, 127
1, 52344, Note_off_c, 0, 42, 62
1, 52541, Note_on_c, 0, 57, 51
1, 52585, Note_off_c, 0, 50, 42
1, 52611, Note_off_c, 0, 57, 60
1, 52804, Note_on_c, 0, 44, 41
1, 52836, Control_c, 0, 64, 103
1, 52842, Note_on_c, 0, 74, 62
1, 52851, Control_c, 0, 64, 75
1, 52866, Control_c, 0, 64, 62
1, 52881, Control_c, 0, 64, 50
1, 52895, Control_c, 0, 64, 39
1, 52910, Control_c, 0, 64, 38
1, 52925, Control_c, 0, 64, 43
1, 52940, Control_c, 0, 64, 53
1, 52943, Note_off_c, 0, 78, 32
1, 52954, Control_c, 0, 64, 60
1, 52969, Control_c, 0, 64, 63
1, 52984, Control_c, 0, 64, 64
1, 52999, Control_c, 0, 64, 64
1, 52999, Control_c, 0, 67, 8
1, 53014, Control_c, 0, 64, 65
1, 53029, Control_c, 0, 64, 66
1, 53044, Control_c, 0, 64, 69
1, 53044, Control_c, 0, 67, 9
1, 53059, Control_c, 0, 64, 72
1, 53073, Control_c, 0, 64, 75
1, 53073, Control_c, 0, 67, 10
1, 53088, Control_c, 0, 64, 78
1, 53088, Control_c, 0, 67, 11
1, 53103, Control_c, 0, 64, 81
1, 53103, Control_c, 0, 67, 13
1, 53118, Note_on_c, 0, 54, 38
1, 53118, Control_c, 0, 64, 84
1, 53118, Control_c, 0, 67, 14
1, 53133, Control_c, 0, 64, 87
1, 53133, Control_c, 0, 67, 16
1, 53136, Note_off_c, 0, 44, 51
1, 53148, Control_c, 0, 64, 92
1, 53148, Control_c, 0, 67, 17
1, 53162, Control_c, 0, 64, 102
1, 53177, Control_c, 0, 64, 127
1, 53177, Control_c, 0, 67, 18
1, 53192, Control_c, 0, 67, 18
1, 53207, Control_c, 0, 67, 19
1, 53222, Control_c, 0, 67, 19
1, 53288, Control_c, 0, 67, 20
1, 53303, Control_c, 0, 67, 21
1, 53318, Control_c, 0, 67, 22
1, 53333, Control_c, 0, 67, 23
1, 53348, Control_c, 0, 67, 24
1, 53362, Control_c, 0, 67, 25
1, 53377, Control_c, 0, 67, 26
1, 53378, Note_on_c, 0, 60, 33
1, 53392, Control_c, 0, 67, 27
1, 53407, Control_c, 0, 67, 29
1, 53422, Control_c, 0, 67, 38
1, 53436, Control_c, 0, 67, 45
1, 53441, Note_off_c, 0, 60, 63
1, 53451, Control_c, 0, 67, 53
1, 53466, Control_c, 0, 67, 60
1, 53479, Note_off_c, 0, 54, 44
1, 53480, Control_c, 0, 67, 65
1, 53495, Control_c, 0, 67, 67
1, 53510, Control_c, 0, 67, 70
1, 53525, Control_c, 0, 67, 72
1, 53540, Control_c, 0, 67, 72
1, 53689, Control_c, 0, 67, 72
1, 53703, Control_c, 0, 67, 71
1, 53718, Control_c, 0, 67, 70
1, 53721, Note_on_c, 0, 37, 33
1, 53779, Note_on_c, 0, 73, 56
1, 53792, Control_c, 0, 64, 123
1, 53807, Control_c, 0, 64, 81
1, 53807, Control_c, 0, 67, 70
1, 53822, Note_off_c, 0, 74, 53
1, 53822, Control_c, 0, 64, 64
1, 53837, Control_c, 0, 64, 54
1, 53851, Control_c, 0, 64, 43
1, 53866, Control_c, 0, 64, 40
1, 53881, Control_c, 0, 64, 43
1, 53896, Control_c, 0, 64, 53
1, 53911, Control_c, 0, 64, 61
1, 53926, Control_c, 0, 64, 64
1, 53941, Control_c, 0, 64, 67
1, 53956, Control_c, 0, 64, 68
1, 54000, Control_c, 0, 64, 69
1, 54015, Control_c, 0, 64, 71
1, 54015, Control_c, 0, 67, 72
1, 54031, Note_off_c, 0, 37, 41
1, 54037, Control_c, 0, 64, 74
1, 54037, Control_c, 0, 67, 73
1, 54050, Note_on_c, 0, 44, 34
1, 54052, Control_c, 0, 64, 78
1, 54052, Control_c, 0, 67, 75
1, 54066, Control_c, 0, 64, 82
1, 54066, Control_c, 0, 67, 76
1, 54081, Control_c, 0, 64, 88
1, 54081, Control_c, 0, 67, 77
1, 54096, Control_c, 0, 64, 100
1, 54096, Control_c, 0, 67, 83
1, 54111, Control_c, 0, 64, 127
1, 54111, Control_c, 0, 67, 88
1, 54122, Note_off_c, 0, 44, 60
1, 54126, Control_c, 0, 67, 94
1, 54141, Control_c, 0, 67, 103
1, 54155, Control_c, 0, 67, 115
1, 54170, Control_c, 0, 67, 127
1, 54185, Control_c, 0, 67, 127
1, 54281, Note_on_c, 0, 61, 44
1, 54481, Note_off_c, 0, 61, 50
1, 54507, Note_on_c, 0, 52, 45
1, 54727, Note_off_c, 0, 52, 60
1, 54746, Note_on_c, 0, 44, 43
1, 54811, Note_off_c, 0, 44, 62
1, 54993, Note_on_c, 0, 37, 41
1, 55059, Note_off_c, 0, 37, 54
1, 55230, Note_on_c, 0, 37, 39
1, 55468, Note_on_c, 0, 44, 36
1, 55478, Note_off_c, 0, 37, 35
1, 55717, Note_on_c, 0, 56, 45
1, 55959, Note_on_c, 0, 49, 42
1, 56014, Note_off_c, 0, 56, 42
1, 56024, Note_off_c, 0, 44, 34
1, 56206, Note_on_c, 0, 44, 34
1, 56233, Note_off_c, 0, 73, 34
1, 56242, Note_off_c, 0, 49, 60
1, 56465, Note_on_c, 0, 37, 38
1, 56496, Note_off_c, 0, 44, 37
1, 56812, Note_on_c, 0, 44, 35
1, 56877, Control_c, 0, 64, 112
1, 56886, Note_on_c, 0, 76, 67
1, 56892, Control_c, 0, 64, 89
1, 56907, Control_c, 0, 64, 84
1, 56921, Note_off_c, 0, 37, 40
1, 56921, Control_c, 0, 64, 85
1, 56936, Control_c, 0, 64, 87
1, 56951, Control_c, 0, 64, 89
1, 56966, Control_c, 0, 64, 92
1, 56981, Control_c, 0, 64, 95
1, 56995, Control_c, 0, 64, 100
1, 57010, Control_c, 0, 64, 106
1, 57032, Control_c, 0, 64, 111
1, 57047, Control_c, 0, 64, 114
1, 57062, Control_c, 0, 64, 116
1, 57077, Control_c, 0, 64, 123
1, 57092, Control_c, 0, 64, 127
1, 57167, Note_on_c, 0, 49, 38
1, 57220, Note_off_c, 0, 44, 41
1, 57389, Note_on_c, 0, 56, 36
1, 57446, Note_off_c, 0, 49, 37
1, 57607, Note_on_c, 0, 49, 34
1, 57675, Note_off_c, 0, 56, 42
1, 57876, Note_off_c, 0, 49, 60
1, 57878, Note_on_c, 0, 44, 32
1, 57974, Note_off_c, 0, 76, 27
1, 58078, Note_on_c, 0, 37, 38
1, 58102, Note_off_c, 0, 44, 34
1, 58367, Note_on_c, 0, 44, 38
1, 58392, Note_on_c, 0, 76, 64
1, 58442, Note_off_c, 0, 37, 39
1, 58660, Note_on_c, 0, 49, 45
1, 58711, Note_off_c, 0, 44, 59
1, 58887, Note_off_c, 0, 76, 60
1, 58901, Note_on_c, 0, 56, 45
1, 58970, Note_off_c, 0, 49, 38
1, 59116, Note_on_c, 0, 49, 44
1, 59130, Note_on_c, 0, 76, 73
1, 59224, Note_off_c, 0, 56, 41
1, 59385, Note_on_c, 0, 44, 55
1, 59444, Note_off_c, 0, 49, 61
1, 59550, Note_off_c, 0, 76, 63
1, 59560, Control_c, 0, 67, 125
1, 59575, Control_c, 0, 67, 109
1, 59590, Control_c, 0, 67, 89
1, 59604, Control_c, 0, 67, 72
1, 59619, Control_c, 0, 67, 61
1, 59632, Note_on_c, 0, 37, 49
1, 59634, Control_c, 0, 67, 54
1, 59649, Control_c, 0, 67, 50
1, 59664, Control_c, 0, 67, 47
1, 59674, Note_off_c, 0, 44, 47
1, 59678, Control_c, 0, 67, 42
1, 59693, Control_c, 0, 67, 37
1, 59708, Control_c, 0, 67, 33
1, 59722, Control_c, 0, 67, 28
1, 59737, Control_c, 0, 67, 23
1, 59752, Control_c, 0, 67, 18
1, 59767, Control_c, 0, 67, 14
1, 59782, Control_c, 0, 67, 13
1, 59796, Control_c, 0, 67, 12
1, 59944, Note_on_c, 0, 44, 41
1, 59974, Control_c, 0, 67, 13
1, 59989, Control_c, 0, 67, 13
1, 60004, Control_c, 0, 67, 14
1, 60009, Note_on_c, 0, 77, 60
1, 60025, Note_on_c, 0, 71, 71
1, 60028, Control_c, 0, 67, 15
1, 60043, Control_c, 0, 67, 16
1, 60058, Control_c, 0, 64, 101
1, 60058, Control_c, 0, 67, 17
1, 60073, Control_c, 0, 64, 77
1, 60073, Note_off_c, 0, 37, 37
1, 60087, Control_c, 0, 64, 65
1, 60102, Control_c, 0, 64, 60
1, 60132, Control_c, 0, 64, 62
1, 60146, Control_c, 0, 64, 66
1, 60161, Control_c, 0, 64, 71
1, 60176, Control_c, 0, 64, 78
1, 60191, Control_c, 0, 64, 89
1, 60191, Control_c, 0, 67, 16
1, 60206, Control_c, 0, 64, 104
1, 60220, Control_c, 0, 64, 127
1, 60235, Control_c, 0, 67, 16
1, 60294, Control_c, 0, 67, 15
1, 60338, Note_on_c, 0, 49, 41
1, 60353, Control_c, 0, 67, 14
1, 60398, Control_c, 0, 67, 14
1, 60427, Note_off_c, 0, 44, 55
1, 60502, Control_c, 0, 67, 13
1, 60576, Note_on_c, 0, 56, 43
1, 60635, Note_off_c, 0, 49, 60
1, 60635, Control_c, 0, 67, 13
1, 60724, Control_c, 0, 67, 12
1, 60845, Note_on_c, 0, 49, 39
1, 60855, Note_on_c, 0, 73, 69
1, 60925, Control_c, 0, 67, 11
1, 61009, Note_off_c, 0, 56, 39
1, 61110, Note_on_c, 0, 44, 50
1, 61117, Control_c, 0, 67, 11
1, 61133, Note_off_c, 0, 71, 38
1, 61155, Note_off_c, 0, 49, 63
1, 61221, Control_c, 0, 67, 10
1, 61295, Note_off_c, 0, 73, 53
1, 61315, Note_on_c, 0, 37, 57
1, 61379, Note_off_c, 0, 44, 60
1, 61424, Note_on_c, 0, 71, 78
1, 61458, Control_c, 0, 67, 11
1, 61530, Note_off_c, 0, 71, 61
1, 61568, Control_c, 0, 67, 11
1, 61593, Note_on_c, 0, 42, 53
1, 61629, Control_c, 0, 67, 12
1, 61630, Note_off_c, 0, 37, 56
1, 61655, Note_on_c, 0, 71, 73
1, 61664, Note_on_c, 0, 78, 71
1, 61688, Control_c, 0, 64, 84
1, 61703, Control_c, 0, 64, 67
1, 61703, Control_c, 0, 67, 13
1, 61717, Control_c, 0, 64, 57
1, 61732, Control_c, 0, 64, 50
1, 61747, Control_c, 0, 64, 52
1, 61747, Control_c, 0, 67, 12
1, 61762, Control_c, 0, 64, 58
1, 61777, Control_c, 0, 64, 63
1, 61791, Control_c, 0, 64, 65
1, 61791, Control_c, 0, 67, 11
1, 61806, Control_c, 0, 64, 68
1, 61821, Control_c, 0, 64, 72
1, 61836, Control_c, 0, 64, 77
1, 61851, Control_c, 0, 64, 82
1, 61851, Control_c, 0, 67, 11
1, 61865, Control_c, 0, 64, 85
1, 61880, Control_c, 0, 64, 89
1, 61895, Control_c, 0, 64, 97
1, 61905, Note_off_c, 0, 42, 62
1, 61910, Control_c, 0, 64, 116
1, 61911, Note_on_c, 0, 49, 52
1, 61924, Control_c, 0, 64, 127
1, 62013, Note_off_c, 0, 49, 63
1, 62026, Note_off_c, 0, 77, 23
1, 62140, Note_on_c, 0, 61, 51
1, 62347, Control_c, 0, 67, 11
1, 62401, Note_on_c, 0, 69, 73
1, 62405, Note_on_c, 0, 54, 48
1, 62501, Note_off_c, 0, 61, 48
1, 62526, Note_off_c, 0, 71, 63
1, 62614, Control_c, 0, 67, 11
1, 62636, Note_on_c, 0, 49, 57
1, 62654, Note_off_c, 0, 54, 62
1, 62688, Control_c, 0, 67, 10
1, 62704, Note_off_c, 0, 49, 62
1, 62840, Note_on_c, 0, 42, 57
1, 62895, Control_c, 0, 67, 11
1, 62938, Note_on_c, 0, 68, 74
1, 62955, Control_c, 0, 67, 11
1, 62970, Control_c, 0, 67, 12
1, 62996, Note_off_c, 0, 69, 63
1, 63131, Note_on_c, 0, 30, 48
1, 63140, Control_c, 0, 67, 13
1, 63170, Note_off_c, 0, 42, 37
1, 63181, Note_on_c, 0, 66, 66
1, 63215, Control_c, 0, 64, 85
1, 63215, Control_c, 0, 67, 13
1, 63230, Control_c, 0, 64, 66
1, 63244, Control_c, 0, 64, 57
1, 63244, Control_c, 0, 67, 14
1, 63251, Note_off_c, 0, 68, 49
1, 63259, Control_c, 0, 64, 50
1, 63274, Control_c, 0, 64, 47
1, 63289, Control_c, 0, 64, 48
1, 63304, Control_c, 0, 64, 53
1, 63319, Control_c, 0, 64, 60
1, 63319, Control_c, 0, 67, 14
1, 63334, Control_c, 0, 64, 63
1, 63349, Control_c, 0, 64, 65
1, 63363, Control_c, 0, 64, 69
1, 63363, Control_c, 0, 67, 15
1, 63378, Control_c, 0, 64, 75
1, 63393, Control_c, 0, 64, 85
1, 63408, Control_c, 0, 64, 127
1, 63420, Note_on_c, 0, 42, 53
1, 63424, Note_off_c, 0, 30, 61
1, 63463, Note_off_c, 0, 42, 62
1, 63511, Control_c, 0, 67, 14
1, 63526, Control_c, 0, 67, 14
1, 63662, Note_on_c, 0, 57, 41
1, 63879, Note_off_c, 0, 57, 56
1, 63914, Note_on_c, 0, 76, 62
1, 63929, Note_on_c, 0, 50, 45
1, 63960, Note_off_c, 0, 78, 65
1, 63977, Note_off_c, 0, 50, 60
1, 64054, Control_c, 0, 67, 14
1, 64068, Control_c, 0, 67, 15
1, 64083, Control_c, 0, 67, 16
1, 64098, Control_c, 0, 67, 16
1, 64128, Control_c, 0, 67, 17
1, 64142, Note_on_c, 0, 42, 63
1, 64142, Control_c, 0, 67, 18
1, 64231, Control_c, 0, 67, 17
1, 64261, Control_c, 0, 67, 16
1, 64276, Control_c, 0, 67, 16
1, 64320, Control_c, 0, 67, 15
1, 64335, Control_c, 0, 67, 14
1, 64359, Note_on_c, 0, 30, 50
1, 64382, Note_off_c, 0, 42, 36
1, 64463, Note_on_c, 0, 74, 75
1, 64713, Control_c, 0, 67, 15
1, 64715, Note_on_c, 0, 73, 70
1, 64720, Note_on_c, 0, 32, 45
1, 64757, Control_c, 0, 64, 85
1, 64772, Control_c, 0, 64, 67
1, 64772, Control_c, 0, 67, 16
1, 64782, Note_off_c, 0, 76, 61
1, 64787, Control_c, 0, 64, 56
1, 64801, Control_c, 0, 64, 44
1, 64805, Note_off_c, 0, 74, 61
1, 64817, Control_c, 0, 64, 34
1, 64818, Note_off_c, 0, 30, 33
1, 64832, Control_c, 0, 64, 33
1, 64847, Control_c, 0, 64, 35
1, 64862, Control_c, 0, 64, 41
1, 64877, Control_c, 0, 64, 50
1, 64891, Control_c, 0, 64, 55
1, 64906, Control_c, 0, 64, 60
1, 64921, Control_c, 0, 64, 64
1, 64936, Control_c, 0, 64, 69
1, 64951, Control_c, 0, 64, 77
1, 64965, Control_c, 0, 64, 91
1, 64980, Control_c, 0, 64, 127
1, 64991, Note_on_c, 0, 44, 53
1, 65028, Note_off_c, 0, 32, 40
1, 65049, Note_off_c, 0, 44, 63
1, 65098, Control_c, 0, 67, 15
1, 65210, Note_on_c, 0, 56, 60
1, 65283, Control_c, 0, 67, 14
1, 65298, Control_c, 0, 67, 14
1, 65313, Control_c, 0, 67, 13
1, 65342, Control_c, 0, 67, 13
1, 65435, Note_off_c, 0, 56, 63
1, 65446, Control_c, 0, 67, 12
1, 65465, Note_on_c, 0, 51, 53
1, 65476, Control_c, 0, 67, 11
1, 65478, Note_on_c, 0, 72, 69
1, 65534, Note_off_c, 0, 51, 61
1, 65549, Control_c, 0, 67, 11
1, 65579, Control_c, 0, 67, 10
1, 65639, Control_c, 0, 67, 9
1, 65656, Note_off_c, 0, 73, 51
1, 65698, Note_on_c, 0, 44, 48
1, 65699, Control_c, 0, 67, 9
1, 65728, Control_c, 0, 67, 8
1, 65755, Note_off_c, 0, 66, 60
1, 65847, Control_c, 0, 67, 9
1, 65953, Note_on_c, 0, 32, 43
1, 65987, Note_off_c, 0, 44, 37
1, 66032, Control_c, 0, 67, 9
1, 66050, Note_off_c, 0, 72, 35
1, 66121, Control_c, 0, 67, 10
1, 66224, Note_on_c, 0, 37, 50
1, 66271, Note_on_c, 0, 64, 55
1, 66271, Note_on_c, 0, 73, 73
1, 66284, Control_c, 0, 64, 123
1, 66299, Control_c, 0, 64, 78
1, 66313, Control_c, 0, 64, 66
1, 66328, Control_c, 0, 64, 59
1, 66343, Control_c, 0, 64, 53
1, 66357, Control_c, 0, 64, 52
1, 66372, Control_c, 0, 64, 57
1, 66372, Control_c, 0, 67, 9
1, 66387, Control_c, 0, 64, 64
1, 66401, Note_off_c, 0, 32, 39
1, 66402, Control_c, 0, 64, 71
1, 66418, Control_c, 0, 64, 81
1, 66433, Control_c, 0, 64, 102
1, 66448, Control_c, 0, 64, 127
1, 66462, Control_c, 0, 67, 9
1, 66477, Control_c, 0, 67, 8
1, 66507, Control_c, 0, 67, 8
1, 66523, Note_on_c, 0, 44, 57
1, 66551, Control_c, 0, 67, 0
1, 66574, Note_off_c, 0, 44, 62
1, 66578, Note_off_c, 0, 37, 57
1, 66582, Note_off_c, 0, 64, 56
1, 66772, Note_on_c, 0, 61, 59
1, 66950, Note_off_c, 0, 61, 56
1, 67012, Note_on_c, 0, 52, 50
1, 67096, Note_on_c, 0, 80, 87
1, 67327, Note_off_c, 0, 73, 53
1, 67328, Note_off_c, 0, 52, 60
1, 67354, Note_on_c, 0, 44, 57
1, 67415, Note_off_c, 0, 44, 62
1, 67631, Note_on_c, 0, 37, 44
1, 67921, Note_on_c, 0, 35, 46
1, 67996, Note_on_c, 0, 69, 74
1, 68031, Note_off_c, 0, 37, 32
1, 68035, Control_c, 0, 64, 107
1, 68049, Control_c, 0, 64, 75
1, 68064, Control_c, 0, 64, 62
1, 68079, Control_c, 0, 64, 58
1, 68094, Control_c, 0, 64, 60
1, 68109, Control_c, 0, 64, 65
1, 68124, Control_c, 0, 64, 73
1, 68139, Control_c, 0, 64, 96
1, 68154, Control_c, 0, 64, 127
1, 68222, Note_on_c, 0, 71, 77
1, 68289, Note_off_c, 0, 69, 61
1, 68306, Note_on_c, 0, 47, 55
1, 68332, Note_off_c, 0, 35, 58
1, 68375, Note_off_c, 0, 47, 63
1, 68408, Note_on_c, 0, 69, 82
1, 68429, Poly_aftertouch_c, 0, 76, 127
1, 68468, Note_off_c, 0, 69, 63
1, 68475, Note_off_c, 0, 71, 58
1, 68553, Note_on_c, 0, 68, 81
1, 68640, Note_on_c, 0, 63, 26
1, 68671, Note_off_c, 0, 68, 59
1, 68686, Note_on_c, 0, 69, 85
1, 68705, Note_off_c, 0, 80, 55
1, 68738, Poly_aftertouch_c, 0, 76, 0
1, 68923, Note_on_c, 0, 57, 50
1, 68939, Note_off_c, 0, 63, 55
1, 68962, Note_on_c, 0, 78, 71
1, 68962, Control_c, 0, 64, 87
1, 68973, Note_on_c, 0, 71, 62
1, 68976, Control_c, 0, 64, 66
1, 68991, Control_c, 0, 64, 51
1, 69013, Control_c, 0, 64, 44
1, 69027, Control_c, 0, 64, 46
1, 69042, Control_c, 0, 64, 58
1, 69042, Note_off_c, 0, 69, 61
1, 69056, Control_c, 0, 64, 66
1, 69071, Control_c, 0, 64, 74
1, 69086, Control_c, 0, 64, 86
1, 69094, Note_off_c, 0, 57, 63
1, 69101, Control_c, 0, 64, 107
1, 69116, Control_c, 0, 64, 127
1, 69332, Note_on_c, 0, 48, 29
1, 69348, Note_on_c, 0, 47, 36
1, 69418, Note_off_c, 0, 47, 0
1, 69418, Note_on_c, 0, 47, 4
1, 69475, Note_off_c, 0, 48, 46
1, 69650, Note_on_c, 0, 35, 38
1, 69650, Note_off_c, 0, 47, 35
1, 69816, Note_off_c, 0, 71, 62
1, 69822, Note_on_c, 0, 66, 52
1, 69871, Note_off_c, 0, 78, 62
1, 70090, Note_on_c, 0, 40, 38
1, 70090, Note_off_c, 0, 66, 32
1, 70152, Note_on_c, 0, 76, 46
1, 70160, Note_on_c, 0, 68, 45
1, 70190, Control_c, 0, 64, 112
1, 70205, Control_c, 0, 64, 81
1, 70220, Control_c, 0, 64, 68
1, 70232, Note_off_c, 0, 35, 29
1, 70234, Control_c, 0, 64, 61
1, 70249, Control_c, 0, 64, 54
1, 70264, Control_c, 0, 64, 50
1, 70279, Control_c, 0, 64, 49
1, 70309, Control_c, 0, 64, 50
1, 70324, Control_c, 0, 64, 50
1, 70353, Control_c, 0, 64, 51
1, 70368, Control_c, 0, 64, 55
1, 70383, Control_c, 0, 64, 59
1, 70398, Control_c, 0, 64, 62
1, 70413, Control_c, 0, 64, 64
1, 70428, Control_c, 0, 64, 66
1, 70443, Control_c, 0, 64, 68
1, 70458, Control_c, 0, 64, 72
1, 70473, Control_c, 0, 64, 75
1, 70488, Control_c, 0, 64, 79
1, 70509, Control_c, 0, 64, 84
1, 70524, Control_c, 0, 64, 93
1, 70529, Note_on_c, 0, 47, 42
1, 70539, Control_c, 0, 64, 110
1, 70554, Control_c, 0, 64, 127
1, 70712, Note_off_c, 0, 47, 60
1, 70735, Note_off_c, 0, 40, 46
1, 70759, Note_on_c, 0, 64, 43
1, 70989, Note_on_c, 0, 56, 43
1, 71200, Note_off_c, 0, 56, 35
1, 71228, Note_off_c, 0, 64, 31
1, 71232, Note_on_c, 0, 47, 43
1, 71345, Note_off_c, 0, 76, 52
1, 71501, Note_off_c, 0, 47, 32
1, 71503, Note_on_c, 0, 39, 42
1, 71835, Note_on_c, 0, 37, 35
1, 71857, Note_on_c, 0, 76, 54
1, 71866, Control_c, 0, 64, 104
1, 71881, Control_c, 0, 64, 77
1, 71894, Note_off_c, 0, 39, 35
1, 71896, Control_c, 0, 64, 66
1, 71911, Control_c, 0, 64, 60
1, 71925, Control_c, 0, 64, 58
1, 71940, Control_c, 0, 64, 57
1, 71955, Control_c, 0, 64, 60
1, 71969, Control_c, 0, 64, 63
1, 71984, Control_c, 0, 64, 66
1, 72008, Control_c, 0, 64, 69
1, 72023, Control_c, 0, 64, 72
1, 72037, Control_c, 0, 64, 77
1, 72052, Control_c, 0, 64, 86
1, 72067, Control_c, 0, 64, 106
1, 72081, Control_c, 0, 64, 127
1, 72163, Note_on_c, 0, 44, 28
1, 72177, Note_off_c, 0, 37, 40
1, 72402, Note_off_c, 0, 76, 63
1, 72419, Note_on_c, 0, 56, 34
1, 72670, Note_on_c, 0, 76, 60
1, 72678, Note_on_c, 0, 49, 34
1, 72708, Note_off_c, 0, 44, 36
1, 72785, Note_off_c, 0, 56, 42
1, 72920, Note_off_c, 0, 68, 57
1, 72944, Note_on_c, 0, 44, 35
1, 72985, Note_off_c, 0, 49, 48
1, 73186, Note_on_c, 0, 37, 39
1, 73227, Note_off_c, 0, 44, 38
1, 73324, Note_off_c, 0, 37, 32
1, 73379, Note_off_c, 0, 76, 28
1, 73431, Note_on_c, 0, 37, 35
1, 73505, Note_on_c, 0, 77, 51
1, 73519, Control_c, 0, 64, 98
1, 73528, Note_on_c, 0, 71, 70
1, 73534, Control_c, 0, 64, 75
1, 73549, Control_c, 0, 64, 65
1, 73564, Control_c, 0, 64, 60
1, 73593, Control_c, 0, 64, 63
1, 73609, Control_c, 0, 64, 67
1, 73624, Control_c, 0, 64, 73
1, 73639, Control_c, 0, 64, 82
1, 73653, Control_c, 0, 64, 101
1, 73668, Control_c, 0, 64, 127
1, 73761, Note_off_c, 0, 37, 43
1, 73771, Note_on_c, 0, 44, 39
1, 73841, Note_off_c, 0, 44, 60
1, 74031, Note_on_c, 0, 61, 47
1, 74262, Note_off_c, 0, 61, 52
1, 74298, Note_on_c, 0, 53, 45
1, 74305, Note_on_c, 0, 73, 76
1, 74479, Note_off_c, 0, 71, 58
1, 74538, Note_off_c, 0, 53, 41
1, 74557, Note_on_c, 0, 44, 50
1, 74640, Note_off_c, 0, 44, 62
1, 74792, Note_on_c, 0, 37, 55
1, 74794, Note_off_c, 0, 73, 29
1, 74876, Note_off_c, 0, 37, 58
1, 74884, Note_on_c, 0, 71, 78
1, 74988, Note_off_c, 0, 71, 57
1, 75043, Note_on_c, 0, 37, 38
1, 75099, Note_on_c, 0, 71, 53
1, 75106, Note_on_c, 0, 78, 73
1, 75106, Control_c, 0, 64, 89
1, 75121, Control_c, 0, 64, 66
1, 75136, Control_c, 0, 64, 49
1, 75150, Control_c, 0, 64, 0
1, 75196, Control_c, 0, 64, 33
1, 75211, Control_c, 0, 64, 54
1, 75225, Control_c, 0, 64, 58
1, 75240, Control_c, 0, 64, 60
1, 75255, Control_c, 0, 64, 63
1, 75270, Control_c, 0, 64, 68
1, 75285, Control_c, 0, 64, 78
1, 75299, Control_c, 0, 64, 107
1, 75314, Control_c, 0, 64, 127
1, 75347, Note_off_c, 0, 37, 58
1, 75351, Note_on_c, 0, 45, 52
1, 75404, Note_off_c, 0, 45, 63
1, 75574, Note_on_c, 0, 61, 49
1, 75821, Note_off_c, 0, 61, 56
1, 75823, Note_on_c, 0, 69, 66
1, 75830, Note_on_c, 0, 54, 46
1, 76012, Note_off_c, 0, 71, 64
1, 76028, Note_off_c, 0, 54, 58
1, 76062, Note_off_c, 0, 77, 45
1, 76065, Note_on_c, 0, 45, 56
1, 76128, Note_off_c, 0, 45, 62
1, 76301, Note_on_c, 0, 37, 47
1, 76352, Note_off_c, 0, 37, 59
1, 76375, Note_on_c, 0, 68, 69
1, 76398, Note_off_c, 0, 69, 58
1, 76571, Note_on_c, 0, 66, 61
1, 76589, Control_c, 0, 64, 108
1, 76603, Control_c, 0, 64, 74
1, 76610, Note_off_c, 0, 68, 56
1, 76618, Control_c, 0, 64, 58
1, 76633, Control_c, 0, 64, 25
1, 76647, Control_c, 0, 64, 0
1, 76677, Control_c, 0, 64, 35
1, 76692, Control_c, 0, 64, 55
1, 76707, Control_c, 0, 64, 61
1, 76721, Control_c, 0, 64, 64
1, 76736, Control_c, 0, 64, 66
1, 76751, Control_c, 0, 64, 69
1, 76766, Control_c, 0, 64, 74
1, 76781, Control_c, 0, 64, 77
1, 76797, Control_c, 0, 64, 78
1, 76812, Control_c, 0, 64, 81
1, 76826, Control_c, 0, 64, 87
1, 76833, Note_on_c, 0, 45, 40
1, 76841, Control_c, 0, 64, 98
1, 76856, Control_c, 0, 64, 119
1, 76870, Control_c, 0, 64, 127
1, 76953, Note_off_c, 0, 45, 50
1, 77073, Note_on_c, 0, 57, 48
1, 77295, Note_off_c, 0, 57, 31
1, 77347, Note_on_c, 0, 50, 35
1, 77371, Note_on_c, 0, 76, 58
1, 77419, Note_off_c, 0, 78, 63
1, 77592, Note_off_c, 0, 50, 41
1, 77609, Note_on_c, 0, 45, 34
1, 77770, Note_off_c, 0, 45, 39
1, 77834, Note_on_c, 0, 37, 39
1, 77934, Note_on_c, 0, 74, 56
1, 77937, Note_off_c, 0, 37, 37
1, 78114, Note_on_c, 0, 73, 55
1, 78122, Note_on_c, 0, 37, 35
1, 78131, Control_c, 0, 64, 87
1, 78146, Control_c, 0, 64, 71
1, 78154, Note_off_c, 0, 74, 57
1, 78161, Control_c, 0, 64, 63
1, 78175, Control_c, 0, 64, 63
1, 78190, Control_c, 0, 64, 64
1, 78193, Note_off_c, 0, 76, 38
1, 78205, Control_c, 0, 64, 67
1, 78219, Control_c, 0, 64, 72
1, 78234, Control_c, 0, 64, 77
1, 78249, Control_c, 0, 64, 84
1, 78264, Control_c, 0, 64, 93
1, 78279, Control_c, 0, 64, 104
1, 78293, Control_c, 0, 64, 121
1, 78308, Control_c, 0, 64, 127
1, 78348, Note_off_c, 0, 37, 44
1, 78366, Note_on_c, 0, 45, 39
1, 78467, Note_off_c, 0, 45, 61
1, 78635, Control_c, 0, 67, 9
1, 78650, Control_c, 0, 67, 10
1, 78651, Note_on_c, 0, 57, 11
1, 78664, Control_c, 0, 67, 12
1, 78679, Control_c, 0, 67, 13
1, 78694, Control_c, 0, 67, 14
1, 78709, Control_c, 0, 67, 16
1, 78724, Control_c, 0, 67, 16
1, 78747, Control_c, 0, 67, 17
1, 78762, Control_c, 0, 67, 18
1, 78766, Note_off_c, 0, 57, 30
1, 78777, Control_c, 0, 67, 18
1, 78806, Control_c, 0, 67, 19
1, 78836, Control_c, 0, 67, 19
1, 78885, Note_on_c, 0, 50, 33
1, 78888, Note_on_c, 0, 72, 52
1, 78910, Control_c, 0, 67, 20
1, 78970, Note_off_c, 0, 73, 39
1, 79132, Note_on_c, 0, 45, 38
1, 79137, Note_off_c, 0, 50, 38
1, 79185, Note_off_c, 0, 66, 54
1, 79252, Control_c, 0, 67, 19
1, 79287, Note_off_c, 0, 45, 47
1, 79296, Control_c, 0, 67, 19
1, 79384, Note_on_c, 0, 37, 38
1, 79444, Control_c, 0, 67, 18
1, 79470, Note_off_c, 0, 37, 54
1, 79496, Control_c, 0, 67, 18
1, 79673, Control_c, 0, 67, 17
1, 79709, Note_on_c, 0, 37, 28
1, 79762, Note_on_c, 0, 66, 66
1, 79792, Control_c, 0, 64, 91
1, 79807, Control_c, 0, 64, 74
1, 79821, Control_c, 0, 64, 67
1, 79821, Control_c, 0, 67, 16
1, 79836, Control_c, 0, 64, 65
1, 79851, Control_c, 0, 64, 65
1, 79866, Control_c, 0, 64, 67
1, 79881, Control_c, 0, 64, 71
1, 79896, Control_c, 0, 64, 79
1, 79910, Control_c, 0, 64, 88
1, 79925, Control_c, 0, 64, 99
1, 79940, Control_c, 0, 64, 110
1, 79955, Control_c, 0, 64, 127
1, 80021, Note_off_c, 0, 37, 32
1, 80024, Note_on_c, 0, 45, 41
1, 80104, Control_c, 0, 67, 17
1, 80119, Control_c, 0, 67, 18
1, 80125, Note_off_c, 0, 45, 62
1, 80208, Control_c, 0, 67, 18
1, 80268, Note_on_c, 0, 57, 36
1, 80273, Control_c, 0, 67, 19
1, 80287, Control_c, 0, 67, 19
1, 80302, Control_c, 0, 67, 20
1, 80478, Note_off_c, 0, 57, 34
1, 80510, Control_c, 0, 67, 21
1, 80513, Note_on_c, 0, 50, 38
1, 80522, Note_on_c, 0, 64, 59
1, 80525, Control_c, 0, 67, 21
1, 80751, Note_off_c, 0, 50, 40
1, 80760, Note_on_c, 0, 45, 44
1, 80900, Note_off_c, 0, 45, 51
1, 80934, Note_off_c, 0, 66, 25
1, 81029, Note_on_c, 0, 37, 32
1, 81102, Note_off_c, 0, 64, 60
1, 81124, Note_on_c, 0, 62, 59
1, 81139, Note_off_c, 0, 37, 35
1, 81214, Control_c, 0, 67, 21
1, 81229, Control_c, 0, 67, 20
1, 81258, Control_c, 0, 67, 19
1, 81303, Note_on_c, 0, 37, 36
1, 81320, Note_on_c, 0, 61, 57
1, 81332, Control_c, 0, 64, 94
1, 81347, Control_c, 0, 64, 76
1, 81362, Control_c, 0, 64, 66
1, 81375, Note_off_c, 0, 62, 53
1, 81377, Control_c, 0, 64, 60
1, 81392, Control_c, 0, 64, 57
1, 81407, Control_c, 0, 64, 58
1, 81422, Control_c, 0, 64, 60
1, 81436, Control_c, 0, 64, 63
1, 81451, Control_c, 0, 64, 66
1, 81466, Control_c, 0, 64, 70
1, 81481, Control_c, 0, 64, 76
1, 81496, Control_c, 0, 64, 80
1, 81510, Control_c, 0, 64, 82
1, 81510, Control_c, 0, 67, 19
1, 81525, Control_c, 0, 64, 85
1, 81540, Control_c, 0, 64, 87
1, 81554, Note_off_c, 0, 37, 40
1, 81555, Control_c, 0, 64, 90
1, 81570, Control_c, 0, 64, 95
1, 81584, Note_on_c, 0, 45, 40
1, 81586, Control_c, 0, 64, 100
1, 81601, Control_c, 0, 64, 108
1, 81615, Control_c, 0, 64, 123
1, 81615, Control_c, 0, 67, 19
1, 81630, Control_c, 0, 64, 127
1, 81630, Control_c, 0, 67, 20
1, 81645, Control_c, 0, 67, 21
1, 81681, Note_off_c, 0, 45, 63
1, 81719, Control_c, 0, 67, 21
1, 81756, Control_c, 0, 67, 22
1, 81771, Control_c, 0, 67, 23
1, 81785, Control_c, 0, 67, 23
1, 81800, Control_c, 0, 67, 24
1, 81815, Control_c, 0, 67, 24
1, 81824, Note_on_c, 0, 57, 48
1, 81830, Control_c, 0, 67, 25
1, 81845, Control_c, 0, 67, 26
1, 81859, Control_c, 0, 67, 34
1, 81874, Control_c, 0, 67, 51
1, 81889, Control_c, 0, 67, 66
1, 81904, Control_c, 0, 67, 82
1, 81919, Control_c, 0, 67, 92
1, 81933, Control_c, 0, 67, 97
1, 81948, Control_c, 0, 67, 97
1, 81993, Control_c, 0, 67, 98
1, 82021, Note_off_c, 0, 57, 31
1, 82022, Control_c, 0, 67, 99
1, 82037, Control_c, 0, 67, 100
1, 82066, Control_c, 0, 67, 100
1, 82081, Control_c, 0, 67, 101
1, 82093, Note_on_c, 0, 50, 33
1, 82096, Control_c, 0, 67, 104
1, 82108, Note_on_c, 0, 60, 54
1, 82111, Control_c, 0, 67, 115
1, 82126, Control_c, 0, 67, 127
1, 82203, Note_off_c, 0, 61, 34
1, 82335, Note_off_c, 0, 50, 40
1, 82352, Note_on_c, 0, 45, 43
1, 82378, Control_c, 0, 64, 123
1, 82394, Control_c, 0, 64, 119
1, 82489, Control_c, 0, 64, 118
1, 82519, Control_c, 0, 64, 117
1, 82534, Control_c, 0, 64, 115
1, 82549, Control_c, 0, 64, 113
1, 82563, Control_c, 0, 64, 113
1, 82599, Note_off_c, 0, 45, 31
1, 82631, Note_on_c, 0, 37, 40
1, 82742, Control_c, 0, 64, 112
1, 82777, Note_off_c, 0, 72, 37
1, 82816, Control_c, 0, 64, 111
1, 82830, Control_c, 0, 64, 110
1, 82875, Control_c, 0, 64, 109
1, 82889, Control_c, 0, 64, 107
1, 82904, Control_c, 0, 64, 107
1, 82919, Control_c, 0, 64, 106
1, 82934, Control_c, 0, 64, 106
1, 82949, Control_c, 0, 64, 105
1, 82963, Note_off_c, 0, 60, 39
1, 82963, Control_c, 0, 64, 103
1, 82978, Control_c, 0, 64, 100
1, 82993, Control_c, 0, 64, 99
1, 83032, Note_on_c, 0, 45, 40
1, 83067, Control_c, 0, 64, 98
1, 83112, Control_c, 0, 64, 97
1, 83121, Note_off_c, 0, 37, 40
1, 83127, Control_c, 0, 64, 94
1, 83142, Control_c, 0, 64, 87
1, 83156, Control_c, 0, 64, 82
1, 83171, Control_c, 0, 64, 76
1, 83186, Control_c, 0, 64, 70
1, 83201, Control_c, 0, 64, 65
1, 83216, Control_c, 0, 64, 60
1, 83239, Control_c, 0, 64, 54
1, 83254, Control_c, 0, 64, 44
1, 83268, Control_c, 0, 64, 31
1, 83283, Control_c, 0, 64, 23
1, 83298, Control_c, 0, 64, 21
1, 83357, Control_c, 0, 64, 23
1, 83372, Control_c, 0, 64, 29
1, 83385, Note_on_c, 0, 50, 40
1, 83386, Control_c, 0, 64, 37
1, 83401, Control_c, 0, 64, 43
1, 83416, Control_c, 0, 64, 50
1, 83431, Control_c, 0, 64, 56
1, 83446, Control_c, 0, 64, 59
1, 83461, Control_c, 0, 64, 61
1, 83476, Control_c, 0, 64, 62
1, 83491, Control_c, 0, 64, 62
1, 83505, Control_c, 0, 64, 63
1, 83520, Control_c, 0, 64, 65
1, 83535, Control_c, 0, 64, 66
1, 83550, Control_c, 0, 64, 68
1, 83565, Control_c, 0, 64, 70
1, 83580, Control_c, 0, 64, 73
1, 83594, Control_c, 0, 64, 77
1, 83609, Control_c, 0, 64, 81
1, 83624, Control_c, 0, 64, 85
1, 83639, Control_c, 0, 64, 86
1, 83646, Note_on_c, 0, 57, 46
1, 83654, Control_c, 0, 64, 86
1, 83668, Control_c, 0, 64, 88
1, 83683, Control_c, 0, 64, 90
1, 83698, Control_c, 0, 64, 94
1, 83712, Control_c, 0, 64, 98
1, 83727, Control_c, 0, 64, 100
1, 83742, Control_c, 0, 64, 102
1, 83757, Control_c, 0, 64, 104
1, 83772, Control_c, 0, 64, 106
1, 83786, Control_c, 0, 64, 109
1, 83801, Control_c, 0, 64, 111
1, 83898, Note_on_c, 0, 62, 45
1, 83950, Note_off_c, 0, 57, 38
1, 83988, Control_c, 0, 64, 111
1, 84032, Control_c, 0, 64, 110
1, 84051, Note_off_c, 0, 50, 37
1, 84102, Note_off_c, 0, 45, 38
1, 84133, Note_off_c, 0, 62, 54
1, 84153, Note_on_c, 0, 57, 46
1, 84254, Control_c, 0, 64, 111
1, 84383, Note_on_c, 0, 50, 36
1, 84461, Control_c, 0, 64, 111
1, 84521, Control_c, 0, 64, 111
1, 84561, Note_off_c, 0, 57, 58
1, 84565, Control_c, 0, 64, 110
1, 84609, Control_c, 0, 64, 110
1, 84624, Note_on_c, 0, 45, 39
1, 84624, Control_c, 0, 64, 108
1, 84639, Control_c, 0, 64, 107
1, 84653, Control_c, 0, 64, 107
1, 84695, Note_off_c, 0, 50, 39
1, 84765, Control_c, 0, 64, 107
1, 84781, Control_c, 0, 64, 108
1, 84895, Note_on_c, 0, 50, 41
1, 84988, Control_c, 0, 64, 107
1, 85003, Control_c, 0, 64, 107
1, 85043, Note_off_c, 0, 45, 32
1, 85091, Control_c, 0, 64, 106
1, 85136, Note_on_c, 0, 57, 44
1, 85167, Note_off_c, 0, 50, 57
1, 85225, Control_c, 0, 64, 107
1, 85402, Note_on_c, 0, 50, 44
1, 85440, Note_off_c, 0, 57, 29
1, 85447, Control_c, 0, 64, 106
1, 85484, Control_c, 0, 64, 106
1, 85499, Control_c, 0, 64, 105
1, 85514, Control_c, 0, 64, 105
1, 85544, Control_c, 0, 64, 104
1, 85558, Control_c, 0, 64, 104
1, 85604, Control_c, 0, 64, 103
1, 85619, Control_c, 0, 64, 103
1, 85634, Control_c, 0, 64, 102
1, 85659, Note_on_c, 0, 45, 33
1, 85694, Note_off_c, 0, 50, 36
1, 85737, Control_c, 0, 64, 102
1, 85752, Control_c, 0, 64, 101
1, 85767, Control_c, 0, 64, 101
1, 85826, Control_c, 0, 64, 100
1, 85855, Control_c, 0, 64, 99
1, 85870, Control_c, 0, 64, 99
1, 85899, Control_c, 0, 64, 98
1, 85914, Control_c, 0, 64, 98
1, 85916, Note_on_c, 0, 37, 33
1, 85971, Note_off_c, 0, 45, 40
1, 86033, Control_c, 0, 64, 97
1, 86078, Control_c, 0, 64, 98
1, 86093, Control_c, 0, 64, 99
1, 86233, Control_c, 0, 64, 99
1, 86248, Note_on_c, 0, 50, 38
1, 86248, Control_c, 0, 64, 98
1, 86277, Note_off_c, 0, 37, 38
1, 86278, Control_c, 0, 64, 98
1, 86382, Control_c, 0, 64, 97
1, 86457, Control_c, 0, 64, 96
1, 86471, Control_c, 0, 64, 94
1, 86486, Control_c, 0, 64, 90
1, 86501, Control_c, 0, 64, 87
1, 86516, Note_on_c, 0, 57, 47
1, 86516, Control_c, 0, 64, 83
1, 86530, Control_c, 0, 64, 80
1, 86545, Control_c, 0, 64, 76
1, 86560, Control_c, 0, 64, 72
1, 86575, Control_c, 0, 64, 69
1, 86590, Control_c, 0, 64, 65
1, 86604, Control_c, 0, 64, 60
1, 86619, Control_c, 0, 64, 57
1, 86649, Control_c, 0, 64, 58
1, 86664, Control_c, 0, 64, 61
1, 86678, Control_c, 0, 64, 63
1, 86693, Control_c, 0, 64, 65
1, 86708, Control_c, 0, 64, 67
1, 86722, Control_c, 0, 64, 69
1, 86737, Control_c, 0, 64, 71
1, 86752, Control_c, 0, 64, 75
1, 86767, Control_c, 0, 64, 79
1, 86770, Note_on_c, 0, 62, 43
1, 86782, Control_c, 0, 64, 82
1, 86796, Control_c, 0, 64, 81
1, 86810, Note_off_c, 0, 57, 54
1, 86811, Control_c, 0, 64, 81
1, 86856, Control_c, 0, 64, 79
1, 86871, Control_c, 0, 64, 78
1, 86901, Control_c, 0, 64, 80
1, 86916, Control_c, 0, 64, 80
1, 86930, Control_c, 0, 64, 79
1, 86945, Control_c, 0, 64, 79
1, 86960, Control_c, 0, 64, 78
1, 86997, Control_c, 0, 64, 78
1, 87011, Control_c, 0, 64, 76
1, 87026, Control_c, 0, 64, 75
1, 87034, Note_on_c, 0, 66, 45
1, 87041, Control_c, 0, 64, 76
1, 87056, Control_c, 0, 64, 78
1, 87071, Control_c, 0, 64, 79
1, 87114, Note_off_c, 0, 62, 29
1, 87175, Control_c, 0, 64, 80
1, 87190, Control_c, 0, 64, 81
1, 87205, Control_c, 0, 64, 81
1, 87220, Control_c, 0, 64, 82
1, 87235, Control_c, 0, 64, 83
1, 87249, Control_c, 0, 64, 86
1, 87264, Control_c, 0, 64, 87
1, 87281, Note_on_c, 0, 62, 40
1, 87309, Control_c, 0, 64, 88
1, 87363, Note_off_c, 0, 66, 33
1, 87383, Control_c, 0, 64, 88
1, 87470, Note_off_c, 0, 50, 40
1, 87529, Note_on_c, 0, 57, 40
1, 87539, Note_off_c, 0, 62, 27
1, 87679, Control_c, 0, 64, 89
1, 87731, Control_c, 0, 64, 90
1, 87746, Control_c, 0, 64, 90
1, 87760, Control_c, 0, 64, 91
1, 87789, Note_on_c, 0, 45, 36
1, 87805, Control_c, 0, 64, 91
1, 87820, Control_c, 0, 64, 92
1, 87834, Control_c, 0, 64, 95
1, 87841, Note_off_c, 0, 57, 59
1, 87849, Control_c, 0, 64, 98
1, 87864, Control_c, 0, 64, 99
1, 87923, Control_c, 0, 64, 100
1, 87938, Control_c, 0, 64, 101
1, 87953, Control_c, 0, 64, 103
1, 87968, Control_c, 0, 64, 104
1, 88037, Note_on_c, 0, 50, 35
1, 88043, Control_c, 0, 64, 104
1, 88087, Control_c, 0, 64, 105
1, 88102, Control_c, 0, 64, 105
1, 88117, Control_c, 0, 64, 106
1, 88132, Control_c, 0, 64, 107
1, 88162, Control_c, 0, 64, 107
1, 88176, Control_c, 0, 64, 111
1, 88191, Control_c, 0, 64, 113
1, 88206, Control_c, 0, 64, 115
1, 88221, Control_c, 0, 64, 116
1, 88250, Control_c, 0, 64, 117
1, 88265, Control_c, 0, 64, 118
1, 88278, Note_off_c, 0, 50, 39
1, 88280, Control_c, 0, 64, 119
1, 88290, Note_on_c, 0, 57, 36
1, 88324, Control_c, 0, 64, 121
1, 88364, Note_off_c, 0, 45, 42
1, 88413, Control_c, 0, 64, 123
1, 88428, Control_c, 0, 64, 127
1, 88588, Note_on_c, 0, 50, 31
1, 88592, Note_off_c, 0, 57, 31
1, 88820, Note_off_c, 0, 50, 49
1, 88861, Note_on_c, 0, 45, 38
1, 89191, Note_on_c, 0, 37, 38
1, 89213, Note_off_c, 0, 45, 36
1, 89523, Note_off_c, 0, 37, 43
1, 89694, Note_on_c, 0, 36, 34
1, 89777, Control_c, 0, 64, 119
1, 89788, Note_on_c, 0, 66, 33
1, 89791, Note_on_c, 0, 68, 42
1, 89792, Control_c, 0, 64, 88
1, 89801, Note_on_c, 0, 56, 32
1, 89807, Control_c, 0, 64, 75
1, 89822, Control_c, 0, 64, 70
1, 89830, Note_on_c, 0, 63, 15
1, 89837, Control_c, 0, 64, 69
1, 89852, Control_c, 0, 64, 70
1, 89867, Control_c, 0, 64, 72
1, 89882, Control_c, 0, 64, 75
1, 89896, Control_c, 0, 64, 79
1, 89911, Control_c, 0, 64, 84
1, 89926, Control_c, 0, 64, 91
1, 89941, Control_c, 0, 64, 100
1, 89955, Control_c, 0, 64, 110
1, 89977, Control_c, 0, 64, 123
1, 89993, Control_c, 0, 64, 127
1, 90035, Note_on_c, 0, 43, 41
1, 90162, Note_off_c, 0, 43, 58
1, 90181, Note_on_c, 0, 44, 44
1, 90260, Note_off_c, 0, 68, 35
1, 90262, Note_off_c, 0, 44, 57
1, 90283, Note_off_c, 0, 56, 40
1, 90311, Note_on_c, 0, 45, 35
1, 90361, Note_on_c, 0, 68, 51
1, 90363, Note_on_c, 0, 56, 41
1, 90403, Note_off_c, 0, 45, 56
1, 90423, Note_on_c, 0, 44, 34
1, 90454, Note_off_c, 0, 68, 57
1, 90489, Note_off_c, 0, 44, 59
1, 90497, Note_off_c, 0, 56, 0
1, 90524, Note_on_c, 0, 56, 13
1, 90532, Note_on_c, 0, 68, 47
1, 90542, Note_on_c, 0, 45, 37
1, 90576, Note_off_c, 0, 45, 62
1, 90613, Note_on_c, 0, 44, 43
1, 90645, Note_off_c, 0, 44, 62
1, 90683, Note_off_c, 0, 63, 55
1, 90695, Note_on_c, 0, 45, 33
1, 90723, Note_off_c, 0, 56, 39
1, 90728, Note_off_c, 0, 68, 35
1, 90768, Note_off_c, 0, 36, 39
1, 90769, Note_off_c, 0, 45, 57
1, 90772, Note_on_c, 0, 44, 37
1, 90871, Note_off_c, 0, 44, 37
1, 90879, Note_on_c, 0, 68, 49
1, 90880, Note_on_c, 0, 61, 50
1, 90887, Note_on_c, 0, 56, 46
1, 90888, Note_on_c, 0, 37, 45
1, 90903, Control_c, 0, 64, 92
1, 90918, Control_c, 0, 64, 75
1, 90933, Control_c, 0, 64, 67
1, 90948, Control_c, 0, 64, 65
1, 90963, Control_c, 0, 64, 65
1, 90977, Control_c, 0, 64, 67
1, 90992, Control_c, 0, 64, 71
1, 91000, Note_on_c, 0, 43, 43
1, 91007, Control_c, 0, 64, 76
1, 91022, Control_c, 0, 64, 83
1, 91037, Control_c, 0, 64, 89
1, 91051, Control_c, 0, 64, 92
1, 91084, Note_off_c, 0, 43, 53
1, 91093, Note_on_c, 0, 44, 51
1, 91095, Control_c, 0, 64, 93
1, 91110, Control_c, 0, 64, 97
1, 91125, Control_c, 0, 64, 102
1, 91140, Control_c, 0, 64, 105
1, 91168, Note_off_c, 0, 44, 62
1, 91171, Control_c, 0, 64, 105
1, 91214, Note_on_c, 0, 45, 41
1, 91274, Control_c, 0, 64, 105
1, 91289, Control_c, 0, 64, 104
1, 91316, Note_off_c, 0, 45, 59
1, 91319, Control_c, 0, 64, 104
1, 91334, Control_c, 0, 64, 106
1, 91340, Note_on_c, 0, 44, 36
1, 91348, Control_c, 0, 64, 107
1, 91370, Note_off_c, 0, 44, 55
1, 91381, Note_on_c, 0, 64, 58
1, 91436, Note_off_c, 0, 61, 56
1, 91451, Note_on_c, 0, 45, 36
1, 91512, Note_off_c, 0, 45, 59
1, 91533, Control_c, 0, 64, 108
1, 91540, Note_on_c, 0, 44, 42
1, 91548, Control_c, 0, 64, 114
1, 91560, Note_on_c, 0, 61, 61
1, 91563, Control_c, 0, 64, 127
1, 91600, Note_off_c, 0, 44, 57
1, 91662, Note_on_c, 0, 45, 29
1, 91682, Note_off_c, 0, 61, 53
1, 91694, Note_off_c, 0, 68, 53
1, 91696, Note_off_c, 0, 56, 37
1, 91722, Note_off_c, 0, 37, 57
1, 91738, Note_off_c, 0, 45, 51
1, 91751, Note_on_c, 0, 44, 37
1, 91840, Note_off_c, 0, 44, 52
1, 91882, Note_on_c, 0, 39, 52
1, 91905, Note_off_c, 0, 64, 0
1, 91906, Note_on_c, 0, 60, 54
1, 91909, Note_on_c, 0, 68, 63
1, 91911, Note_off_c, 0, 66, 0
1, 91919, Control_c, 0, 64, 106
1, 91921, Note_on_c, 0, 56, 52
1, 91933, Control_c, 0, 64, 82
1, 91941, Poly_aftertouch_c, 0, 64, 127
1, 91947, Poly_aftertouch_c, 0, 66, 127
1, 91948, Control_c, 0, 64, 71
1, 91964, Control_c, 0, 64, 65
1, 91979, Control_c, 0, 64, 65
1, 91994, Control_c, 0, 64, 67
1, 92009, Control_c, 0, 64, 70
1, 92022, Note_on_c, 0, 43, 44
1, 92023, Control_c, 0, 64, 76
1, 92038, Control_c, 0, 64, 83
1, 92053, Control_c, 0, 64, 90
1, 92068, Control_c, 0, 64, 95
1, 92083, Control_c, 0, 64, 98
1, 92097, Control_c, 0, 64, 99
1, 92112, Control_c, 0, 64, 103
1, 92114, Note_on_c, 0, 44, 54
1, 92121, Note_off_c, 0, 43, 50
1, 92127, Control_c, 0, 64, 127
1, 92195, Note_off_c, 0, 44, 61
1, 92228, Note_on_c, 0, 45, 51
1, 92257, Note_off_c, 0, 68, 59
1, 92284, Note_off_c, 0, 56, 53
1, 92329, Note_off_c, 0, 45, 62
1, 92335, Note_on_c, 0, 44, 56
1, 92379, Note_on_c, 0, 68, 77
1, 92392, Note_on_c, 0, 56, 66
1, 92394, Poly_aftertouch_c, 0, 66, 0
1, 92407, Note_off_c, 0, 44, 61
1, 92430, Poly_aftertouch_c, 0, 66, 127
1, 92432, Note_on_c, 0, 45, 57
1, 92470, Note_off_c, 0, 56, 60
1, 92483, Note_off_c, 0, 68, 59
1, 92486, Poly_aftertouch_c, 0, 66, 0
1, 92493, Note_off_c, 0, 45, 59
1, 92513, Note_on_c, 0, 44, 63
1, 92541, Note_on_c, 0, 68, 62
1, 92555, Note_on_c, 0, 56, 60
1, 92572, Note_off_c, 0, 44, 64
1, 92613, Note_on_c, 0, 45, 53
1, 92646, Poly_aftertouch_c, 0, 66, 127
1, 92679, Note_off_c, 0, 60, 64
1, 92693, Note_on_c, 0, 44, 66
1, 92695, Note_off_c, 0, 45, 61
1, 92697, Note_off_c, 0, 68, 60
1, 92707, Note_off_c, 0, 39, 58
1, 92731, Poly_aftertouch_c, 0, 64, 0
1, 92738, Note_off_c, 0, 56, 54
1, 92788, Note_off_c, 0, 44, 59
1, 92808, Note_on_c, 0, 40, 55
1, 92834, Note_on_c, 0, 61, 62
1, 92836, Note_on_c, 0, 68, 68
1, 92843, Note_on_c, 0, 56, 56
1, 92846, Control_c, 0, 64, 100
1, 92861, Control_c, 0, 64, 78
1, 92876, Control_c, 0, 64, 68
1, 92891, Control_c, 0, 64, 64
1, 92910, Poly_aftertouch_c, 0, 66, 0
1, 92910, Note_on_c, 0, 43, 50
1, 92920, Control_c, 0, 64, 66
1, 92935, Control_c, 0, 64, 68
1, 92950, Control_c, 0, 64, 71
1, 92972, Control_c, 0, 64, 74
1, 92986, Control_c, 0, 64, 76
1, 93004, Note_on_c, 0, 44, 57
1, 93022, Note_off_c, 0, 43, 52
1, 93031, Control_c, 0, 64, 77
1, 93045, Control_c, 0, 64, 79
1, 93060, Control_c, 0, 64, 81
1, 93075, Control_c, 0, 64, 83
1, 93079, Note_off_c, 0, 44, 63
1, 93090, Control_c, 0, 64, 83
1, 93117, Note_on_c, 0, 45, 48
1, 93164, Control_c, 0, 64, 84
1, 93178, Control_c, 0, 64, 86
1, 93193, Control_c, 0, 64, 88
1, 93208, Control_c, 0, 64, 88
1, 93216, Note_off_c, 0, 45, 62
1, 93235, Note_on_c, 0, 44, 50
1, 93268, Control_c, 0, 64, 89
1, 93283, Control_c, 0, 64, 90
1, 93298, Note_off_c, 0, 44, 62
1, 93310, Note_on_c, 0, 64, 63
1, 93327, Control_c, 0, 64, 90
1, 93342, Control_c, 0, 64, 91
1, 93345, Note_off_c, 0, 61, 60
1, 93351, Note_on_c, 0, 45, 47
1, 93371, Control_c, 0, 64, 91
1, 93386, Control_c, 0, 64, 94
1, 93396, Note_off_c, 0, 45, 61
1, 93401, Control_c, 0, 64, 99
1, 93416, Control_c, 0, 64, 107
1, 93427, Note_on_c, 0, 44, 57
1, 93431, Control_c, 0, 64, 123
1, 93436, Note_off_c, 0, 56, 48
1, 93445, Control_c, 0, 64, 127
1, 93462, Note_on_c, 0, 61, 62
1, 93488, Note_off_c, 0, 44, 60
1, 93493, Note_off_c, 0, 64, 62
1, 93497, Note_off_c, 0, 61, 63
1, 93523, Note_off_c, 0, 68, 62
1, 93535, Note_on_c, 0, 45, 41
1, 93617, Note_off_c, 0, 45, 61
1, 93619, Note_off_c, 0, 40, 54
1, 93623, Note_on_c, 0, 44, 57
1, 93736, Note_off_c, 0, 44, 60
1, 93787, Note_on_c, 0, 41, 55
1, 93792, Note_on_c, 0, 73, 68
1, 93804, Note_on_c, 0, 61, 43
1, 93805, Note_on_c, 0, 71, 59
1, 93812, Note_on_c, 0, 68, 50
1, 93825, Control_c, 0, 64, 97
1, 93840, Control_c, 0, 64, 75
1, 93855, Control_c, 0, 64, 65
1, 93869, Control_c, 0, 64, 60
1, 93884, Control_c, 0, 64, 61
1, 93899, Control_c, 0, 64, 64
1, 93913, Control_c, 0, 64, 68
1, 93928, Control_c, 0, 64, 74
1, 93943, Control_c, 0, 64, 83
1, 93954, Note_on_c, 0, 48, 56
1, 93958, Control_c, 0, 64, 93
1, 93973, Control_c, 0, 64, 102
1, 93987, Control_c, 0, 64, 121
1, 94002, Control_c, 0, 64, 127
1, 94057, Note_off_c, 0, 48, 57
1, 94061, Note_on_c, 0, 49, 56
1, 94129, Note_off_c, 0, 73, 64
1, 94145, Note_off_c, 0, 49, 63
1, 94159, Note_on_c, 0, 50, 57
1, 94165, Control_c, 0, 67, 124
1, 94172, Note_off_c, 0, 61, 58
1, 94180, Control_c, 0, 67, 112
1, 94195, Control_c, 0, 67, 100
1, 94210, Control_c, 0, 67, 92
1, 94225, Control_c, 0, 67, 84
1, 94239, Note_on_c, 0, 73, 86
1, 94240, Control_c, 0, 67, 77
1, 94249, Note_on_c, 0, 61, 67
1, 94251, Note_off_c, 0, 50, 62
1, 94255, Control_c, 0, 67, 67
1, 94265, Note_on_c, 0, 49, 60
1, 94269, Control_c, 0, 67, 56
1, 94284, Control_c, 0, 67, 43
1, 94299, Control_c, 0, 67, 27
1, 94313, Control_c, 0, 67, 14
1, 94321, Note_off_c, 0, 49, 59
1, 94328, Control_c, 0, 67, 0
1, 94333, Note_off_c, 0, 61, 55
1, 94335, Note_off_c, 0, 73, 64
1, 94362, Note_on_c, 0, 50, 59
1, 94388, Note_on_c, 0, 73, 81
1, 94397, Note_on_c, 0, 61, 64
1, 94418, Note_off_c, 0, 50, 62
1, 94430, Note_on_c, 0, 49, 69
1, 94482, Note_off_c, 0, 49, 62
1, 94534, Note_on_c, 0, 50, 53
1, 94542, Note_off_c, 0, 68, 61
1, 94561, Note_off_c, 0, 73, 63
1, 94579, Note_off_c, 0, 41, 62
1, 94594, Note_on_c, 0, 49, 61
1, 94595, Note_off_c, 0, 61, 60
1, 94596, Note_off_c, 0, 50, 54
1, 94661, Note_off_c, 0, 49, 51
1, 94678, Control_c, 0, 64, 116
1, 94685, Note_on_c, 0, 42, 64
1, 94692, Control_c, 0, 64, 74
1, 94696, Note_on_c, 0, 73, 81
1, 94696, Note_on_c, 0, 66, 60
1, 94707, Control_c, 0, 64, 63
1, 94714, Note_on_c, 0, 61, 58
1, 94722, Control_c, 0, 64, 60
1, 94732, Note_off_c, 0, 71, 60
1, 94737, Control_c, 0, 64, 59
1, 94751, Control_c, 0, 64, 60
1, 94766, Control_c, 0, 64, 62
1, 94781, Control_c, 0, 64, 64
1, 94796, Control_c, 0, 64, 67
1, 94811, Control_c, 0, 64, 70
1, 94816, Note_on_c, 0, 48, 59
1, 94825, Control_c, 0, 64, 72
1, 94840, Control_c, 0, 64, 74
1, 94870, Control_c, 0, 64, 74
1, 94884, Control_c, 0, 64, 76
1, 94896, Note_off_c, 0, 48, 59
1, 94898, Note_on_c, 0, 49, 60
1, 94899, Control_c, 0, 64, 80
1, 94914, Control_c, 0, 64, 83
1, 94929, Control_c, 0, 64, 84
1, 94943, Control_c, 0, 64, 86
1, 94958, Control_c, 0, 64, 92
1, 94961, Note_off_c, 0, 49, 59
1, 94973, Control_c, 0, 64, 103
1, 94988, Control_c, 0, 64, 110
1, 94993, Note_on_c, 0, 50, 58
1, 95003, Control_c, 0, 64, 109
1, 95018, Control_c, 0, 64, 107
1, 95033, Control_c, 0, 64, 106
1, 95096, Note_off_c, 0, 50, 61
1, 95102, Note_on_c, 0, 49, 52
1, 95107, Control_c, 0, 64, 107
1, 95122, Control_c, 0, 64, 109
1, 95136, Control_c, 0, 64, 110
1, 95146, Note_on_c, 0, 69, 63
1, 95176, Note_off_c, 0, 66, 60
1, 95182, Note_off_c, 0, 49, 63
1, 95197, Control_c, 0, 64, 110
1, 95219, Control_c, 0, 64, 112
1, 95226, Note_on_c, 0, 50, 48
1, 95234, Control_c, 0, 64, 113
1, 95248, Control_c, 0, 64, 117
1, 95263, Control_c, 0, 64, 127
1, 95301, Note_off_c, 0, 50, 61
1, 95302, Note_on_c, 0, 66, 69
1, 95310, Note_on_c, 0, 49, 62
1, 95387, Note_off_c, 0, 49, 64
1, 95425, Note_on_c, 0, 50, 57
1, 95461, Note_off_c, 0, 66, 58
1, 95469, Note_off_c, 0, 61, 37
1, 95471, Note_off_c, 0, 42, 63
1, 95492, Note_off_c, 0, 73, 58
1, 95513, Note_off_c, 0, 50, 57
1, 95515, Note_on_c, 0, 49, 47
1, 95611, Note_off_c, 0, 49, 55
1, 95613, Note_on_c, 0, 44, 57
1, 95638, Note_on_c, 0, 73, 80
1, 95640, Note_on_c, 0, 65, 59
1, 95648, Note_on_c, 0, 61, 64
1, 95663, Control_c, 0, 64, 114
1, 95678, Control_c, 0, 64, 83
1, 95693, Control_c, 0, 64, 70
1, 95708, Control_c, 0, 64, 64
1, 95722, Control_c, 0, 64, 62
1, 95737, Control_c, 0, 64, 63
1, 95752, Control_c, 0, 64, 66
1, 95762, Note_on_c, 0, 48, 52
1, 95766, Control_c, 0, 64, 70
1, 95781, Control_c, 0, 64, 74
1, 95796, Control_c, 0, 64, 78
1, 95811, Control_c, 0, 64, 80
1, 95826, Control_c, 0, 64, 81
1, 95840, Control_c, 0, 64, 83
1, 95848, Note_on_c, 0, 49, 63
1, 95855, Control_c, 0, 64, 88
1, 95870, Note_off_c, 0, 48, 53
1, 95870, Control_c, 0, 64, 101
1, 95885, Control_c, 0, 64, 127
1, 95939, Note_off_c, 0, 49, 63
1, 95946, Note_on_c, 0, 50, 63
1, 96004, Note_off_c, 0, 73, 63
1, 96013, Note_off_c, 0, 61, 60
1, 96050, Note_on_c, 0, 49, 66
1, 96052, Note_off_c, 0, 50, 60
1, 96091, Note_on_c, 0, 73, 85
1, 96096, Note_on_c, 0, 61, 75
1, 96128, Note_off_c, 0, 49, 64
1, 96130, Note_on_c, 0, 50, 58
1, 96163, Note_off_c, 0, 61, 61
1, 96165, Note_off_c, 0, 73, 65
1, 96209, Note_on_c, 0, 49, 67
1, 96221, Note_off_c, 0, 50, 63
1, 96234, Note_on_c, 0, 73, 84
1, 96240, Note_on_c, 0, 61, 75
1, 96293, Note_off_c, 0, 49, 65
1, 96323, Note_on_c, 0, 50, 67
1, 96392, Note_off_c, 0, 65, 64
1, 96402, Note_on_c, 0, 49, 71
1, 96423, Note_off_c, 0, 44, 62
1, 96423, Note_off_c, 0, 50, 62
1, 96436, Note_off_c, 0, 73, 61
1, 96449, Note_off_c, 0, 61, 60
1, 96528, Note_off_c, 0, 49, 60
1, 96529, Note_on_c, 0, 73, 87
1, 96530, Note_on_c, 0, 45, 73
1, 96532, Note_on_c, 0, 66, 77
1, 96534, Note_on_c, 0, 61, 78
1, 96540, Note_off_c, 0, 69, 37
1, 96545, Control_c, 0, 64, 84
1, 96560, Control_c, 0, 64, 65
1, 96575, Control_c, 0, 64, 59
1, 96589, Control_c, 0, 64, 58
1, 96604, Control_c, 0, 64, 60
1, 96619, Control_c, 0, 64, 64
1, 96634, Control_c, 0, 64, 69
1, 96637, Note_on_c, 0, 48, 58
1, 96649, Control_c, 0, 64, 73
1, 96663, Control_c, 0, 64, 74
1, 96678, Control_c, 0, 64, 75
1, 96693, Control_c, 0, 64, 76
1, 96716, Control_c, 0, 64, 77
1, 96730, Control_c, 0, 64, 79
1, 96744, Control_c, 0, 64, 80
1, 96747, Note_on_c, 0, 49, 66
1, 96760, Control_c, 0, 64, 83
1, 96761, Note_off_c, 0, 48, 59
1, 96775, Control_c, 0, 64, 87
1, 96790, Control_c, 0, 64, 90
1, 96826, Note_off_c, 0, 49, 64
1, 96849, Control_c, 0, 64, 94
1, 96850, Note_on_c, 0, 50, 60
1, 96864, Control_c, 0, 64, 99
1, 96879, Control_c, 0, 64, 101
1, 96893, Control_c, 0, 64, 102
1, 96908, Control_c, 0, 64, 109
1, 96923, Control_c, 0, 64, 127
1, 96957, Note_on_c, 0, 49, 64
1, 96958, Note_off_c, 0, 50, 63
1, 96980, Note_on_c, 0, 69, 71
1, 97017, Note_off_c, 0, 66, 61
1, 97048, Note_off_c, 0, 49, 64
1, 97066, Note_on_c, 0, 50, 59
1, 97069, Note_off_c, 0, 61, 60
1, 97112, Note_on_c, 0, 66, 73
1, 97133, Note_off_c, 0, 73, 48
1, 97134, Note_off_c, 0, 69, 63
1, 97139, Note_off_c, 0, 66, 66
1, 97210, Note_on_c, 0, 49, 64
1, 97244, Note_off_c, 0, 45, 62
1, 97292, Note_off_c, 0, 49, 63
1, 97325, Note_off_c, 0, 50, 39
1, 97423, Note_on_c, 0, 36, 69
1, 97426, Control_c, 0, 64, 86
1, 97433, Note_on_c, 0, 48, 55
1, 97441, Control_c, 0, 64, 67
1, 97461, Note_on_c, 0, 80, 75
1, 97464, Control_c, 0, 64, 60
1, 97468, Note_on_c, 0, 68, 67
1, 97470, Note_on_c, 0, 75, 57
1, 97474, Note_on_c, 0, 78, 68
1, 97494, Control_c, 0, 64, 63
1, 97495, Note_off_c, 0, 36, 63
1, 97509, Control_c, 0, 64, 69
1, 97524, Control_c, 0, 64, 81
1, 97534, Note_off_c, 0, 48, 64
1, 97538, Control_c, 0, 64, 127
1, 97631, Note_on_c, 0, 55, 72
1, 97704, Note_off_c, 0, 55, 62
1, 97707, Note_on_c, 0, 56, 71
1, 97783, Note_on_c, 0, 57, 79
1, 97793, Note_off_c, 0, 56, 62
1, 97828, Note_off_c, 0, 80, 63
1, 97836, Note_off_c, 0, 68, 60
1, 97847, Note_off_c, 0, 78, 63
1, 97862, Note_off_c, 0, 57, 57
1, 97862, Note_off_c, 0, 75, 62
1, 97870, Note_on_c, 0, 56, 70
1, 97923, Note_on_c, 0, 80, 90
1, 97932, Note_on_c, 0, 68, 79
1, 97943, Note_on_c, 0, 55, 74
1, 97946, Note_off_c, 0, 56, 64
1, 97957, Note_off_c, 0, 68, 67
1, 97967, Note_off_c, 0, 80, 62
1, 98028, Note_on_c, 0, 80, 91
1, 98031, Note_on_c, 0, 68, 91
1, 98034, Note_off_c, 0, 55, 62
1, 98040, Note_on_c, 0, 56, 81
1, 98096, Note_off_c, 0, 56, 62
1, 98107, Note_on_c, 0, 63, 77
1, 98180, Note_on_c, 0, 56, 82
1, 98183, Note_off_c, 0, 63, 64
1, 98233, Note_off_c, 0, 56, 67
1, 98288, Note_off_c, 0, 80, 64
1, 98289, Note_off_c, 0, 68, 60
1, 98317, Control_c, 0, 64, 121
1, 98331, Note_on_c, 0, 37, 82
1, 98332, Control_c, 0, 64, 73
1, 98341, Note_on_c, 0, 49, 72
1, 98347, Control_c, 0, 64, 60
1, 98357, Note_on_c, 0, 80, 82
1, 98358, Note_on_c, 0, 68, 74
1, 98358, Note_on_c, 0, 73, 75
1, 98362, Control_c, 0, 64, 51
1, 98377, Control_c, 0, 64, 49
1, 98388, Note_off_c, 0, 37, 61
1, 98392, Control_c, 0, 64, 53
1, 98407, Note_off_c, 0, 49, 63
1, 98407, Control_c, 0, 64, 62
1, 98422, Control_c, 0, 64, 68
1, 98437, Control_c, 0, 64, 76
1, 98452, Control_c, 0, 64, 85
1, 98466, Control_c, 0, 64, 96
1, 98481, Control_c, 0, 64, 127
1, 98499, Note_on_c, 0, 55, 78
1, 98581, Note_off_c, 0, 55, 62
1, 98591, Note_on_c, 0, 56, 69
1, 98610, Poly_aftertouch_c, 0, 78, 127
1, 98615, Note_off_c, 0, 73, 61
1, 98660, Note_on_c, 0, 57, 73
1, 98664, Note_off_c, 0, 56, 63
1, 98732, Note_off_c, 0, 57, 59
1, 98742, Note_on_c, 0, 56, 69
1, 98810, Note_on_c, 0, 76, 82
1, 98823, Note_off_c, 0, 56, 64
1, 98824, Note_on_c, 0, 55, 74
1, 98917, Note_on_c, 0, 56, 75
1, 98923, Note_off_c, 0, 55, 63
1, 98926, Note_on_c, 0, 73, 85
1, 98926, Note_off_c, 0, 80, 56
1, 98978, Poly_aftertouch_c, 0, 78, 0
1, 98987, Note_off_c, 0, 56, 63
1, 99012, Note_on_c, 0, 64, 69
1, 99050, Note_off_c, 0, 76, 60
1, 99067, Note_off_c, 0, 73, 61
1, 99080, Note_off_c, 0, 68, 36
1, 99086, Note_on_c, 0, 56, 82
1, 99089, Note_off_c, 0, 64, 65
1, 99130, Note_off_c, 0, 56, 63
1, 99239, Note_on_c, 0, 39, 75
1, 99244, Note_on_c, 0, 51, 78
1, 99245, Control_c, 0, 64, 75
1, 99257, Note_on_c, 0, 72, 73
1, 99257, Note_on_c, 0, 80, 79
1, 99260, Control_c, 0, 64, 50
1, 99261, Note_on_c, 0, 68, 73
1, 99274, Control_c, 0, 64, 35
1, 99289, Control_c, 0, 64, 33
1, 99302, Note_off_c, 0, 39, 63
1, 99304, Control_c, 0, 64, 43
1, 99319, Control_c, 0, 64, 57
1, 99334, Control_c, 0, 64, 64
1, 99337, Note_off_c, 0, 51, 64
1, 99349, Control_c, 0, 64, 72
1, 99363, Control_c, 0, 64, 92
1, 99378, Control_c, 0, 64, 127
1, 99416, Note_on_c, 0, 55, 82
1, 99489, Note_on_c, 0, 56, 85
1, 99498, Note_off_c, 0, 55, 61
1, 99566, Note_off_c, 0, 80, 63
1, 99567, Note_on_c, 0, 57, 75
1, 99568, Note_off_c, 0, 56, 65
1, 99568, Note_off_c, 0, 68, 61
1, 99573, Note_off_c, 0, 72, 66
1, 99615, Note_on_c, 0, 56, 69
1, 99626, Note_off_c, 0, 57, 65
1, 99666, Note_on_c, 0, 80, 94
1, 99670, Note_on_c, 0, 68, 95
1, 99680, Poly_aftertouch_c, 0, 59, 0
1, 99689, Note_on_c, 0, 55, 86
1, 99695, Note_off_c, 0, 56, 64
1, 99713, Note_off_c, 0, 68, 62
1, 99713, Note_off_c, 0, 80, 64
1, 99768, Note_on_c, 0, 80, 94
1, 99771, Note_on_c, 0, 68, 90
1, 99772, Note_on_c, 0, 56, 85
1, 99777, Note_off_c, 0, 55, 65
1, 99833, Note_off_c, 0, 56, 65
1, 99862, Note_on_c, 0, 66, 90
1, 99926, Note_off_c, 0, 66, 66
1, 99930, Note_on_c, 0, 56, 79
1, 99992, Note_off_c, 0, 56, 61
1, 100008, Note_off_c, 0, 80, 65
1, 100011, Note_off_c, 0, 68, 63
1, 100066, Note_on_c, 0, 40, 90
1, 100067, Control_c, 0, 64, 94
1, 100071, Note_on_c, 0, 52, 87
1, 100073, Poly_aftertouch_c, 0, 73, 127
1, 100076, Note_on_c, 0, 80, 94
1, 100078, Note_on_c, 0, 68, 88
1, 100082, Control_c, 0, 64, 65
1, 100097, Control_c, 0, 64, 43
1, 100112, Control_c, 0, 64, 42
1, 100118, Note_off_c, 0, 40, 62
1, 100127, Control_c, 0, 64, 52
1, 100133, Note_off_c, 0, 52, 67
1, 100142, Control_c, 0, 64, 66
1, 100157, Control_c, 0, 64, 82
1, 100172, Control_c, 0, 64, 127
1, 100216, Poly_aftertouch_c, 0, 73, 0
1, 100228, Note_on_c, 0, 55, 83
1, 100299, Note_off_c, 0, 55, 63
1, 100301, Note_on_c, 0, 56, 82
1, 100309, Note_off_c, 0, 68, 59
1, 100367, Note_on_c, 0, 57, 82
1, 100369, Note_off_c, 0, 56, 66
1, 100427, Note_on_c, 0, 56, 79
1, 100435, Note_off_c, 0, 57, 65
1, 100476, Note_on_c, 0, 76, 87
1, 100496, Note_on_c, 0, 78, 31
1, 100504, Note_on_c, 0, 55, 88
1, 100507, Note_off_c, 0, 80, 62
1, 100515, Note_off_c, 0, 56, 61
1, 100540, Note_off_c, 0, 78, 60
1, 100568, Note_on_c, 0, 73, 100
1, 100589, Note_on_c, 0, 56, 84
1, 100589, Note_off_c, 0, 76, 63
1, 100607, Note_off_c, 0, 55, 62
1, 100613, Note_off_c, 0, 73, 65
1, 100647, Note_off_c, 0, 56, 65
1, 100669, Note_on_c, 0, 68, 88
1, 100726, Note_off_c, 0, 68, 65
1, 100737, Note_on_c, 0, 56, 78
1, 100793, Note_off_c, 0, 56, 66
1, 100892, Note_on_c, 0, 41, 75
1, 100893, Note_on_c, 0, 53, 82
1, 100905, Note_on_c, 0, 40, 59
1, 100905, Control_c, 0, 64, 71
1, 100920, Control_c, 0, 64, 50
1, 100935, Control_c, 0, 64, 9
1, 100938, Note_off_c, 0, 40, 57
1, 100941, Note_on_c, 0, 73, 84
1, 100941, Note_on_c, 0, 85, 89
1, 100944, Note_on_c, 0, 83, 76
1, 100946, Note_on_c, 0, 80, 75
1, 100950, Control_c, 0, 64, 0
1, 100959, Note_off_c, 0, 41, 64
1, 100965, Control_c, 0, 64, 37
1, 100980, Control_c, 0, 64, 59
1, 100994, Control_c, 0, 64, 68
1, 101006, Note_off_c, 0, 53, 64
1, 101009, Control_c, 0, 64, 87
1, 101024, Control_c, 0, 64, 127
1, 101087, Note_on_c, 0, 59, 73
1, 101087, Note_on_c, 0, 60, 75
1, 101137, Note_off_c, 0, 59, 53
1, 101151, Note_on_c, 0, 61, 85
1, 101164, Note_off_c, 0, 60, 61
1, 101231, Note_on_c, 0, 62, 86
1, 101235, Note_off_c, 0, 61, 62
1, 101236, Note_off_c, 0, 85, 64
1, 101251, Note_off_c, 0, 73, 63
1, 101256, Note_off_c, 0, 83, 62
1, 101269, Note_off_c, 0, 80, 64
1, 101296, Note_on_c, 0, 61, 84
1, 101307, Note_off_c, 0, 62, 58
1, 101367, Note_on_c, 0, 60, 79
1, 101371, Note_on_c, 0, 85, 90
1, 101376, Note_on_c, 0, 73, 85
1, 101380, Note_off_c, 0, 61, 62
1, 101395, Note_off_c, 0, 85, 65
1, 101398, Note_off_c, 0, 73, 68
1, 101443, Note_on_c, 0, 61, 84
1, 101453, Note_on_c, 0, 85, 99
1, 101455, Note_on_c, 0, 73, 94
1, 101456, Note_off_c, 0, 60, 65
1, 101462, Poly_aftertouch_c, 0, 59, 0
1, 101488, Note_off_c, 0, 73, 66
1, 101491, Note_off_c, 0, 85, 66
1, 101510, Note_off_c, 0, 61, 63
1, 101527, Note_on_c, 0, 68, 94
1, 101541, Note_on_c, 0, 73, 91
1, 101542, Note_on_c, 0, 85, 93
1, 101579, Note_on_c, 0, 61, 72
1, 101581, Note_off_c, 0, 73, 66
1, 101584, Note_off_c, 0, 85, 62
1, 101587, Note_off_c, 0, 68, 64
1, 101620, Note_off_c, 0, 61, 66
1, 101625, Note_on_c, 0, 73, 87
1, 101626, Note_on_c, 0, 85, 88
1, 101635, Note_on_c, 0, 78, 90
1, 101653, Note_off_c, 0, 85, 63
1, 101654, Note_off_c, 0, 78, 72
1, 101662, Note_off_c, 0, 73, 66
1, 101698, Control_c, 0, 64, 121
1, 101703, Note_on_c, 0, 42, 86
1, 101708, Note_on_c, 0, 54, 90
1, 101713, Control_c, 0, 64, 65
1, 101717, Note_on_c, 0, 78, 103
1, 101718, Note_on_c, 0, 73, 97
1, 101718, Note_on_c, 0, 85, 96
1, 101728, Control_c, 0, 64, 9
1, 101734, Note_on_c, 0, 41, 54
1, 101743, Control_c, 0, 64, 0
1, 101756, Note_off_c, 0, 42, 64
1, 101766, Note_off_c, 0, 41, 55
1, 101772, Control_c, 0, 64, 54
1, 101775, Note_off_c, 0, 54, 66
1, 101787, Control_c, 0, 64, 67
1, 101801, Control_c, 0, 64, 82
1, 101816, Control_c, 0, 64, 127
1, 101884, Note_on_c, 0, 60, 83
1, 101955, Note_off_c, 0, 60, 61
1, 101963, Note_on_c, 0, 61, 79
1, 102026, Note_off_c, 0, 78, 61
1, 102039, Note_on_c, 0, 62, 77
1, 102043, Note_off_c, 0, 61, 62
1, 102088, Note_on_c, 0, 64, 14
1, 102104, Note_off_c, 0, 62, 59
1, 102121, Note_on_c, 0, 61, 77
1, 102132, Note_off_c, 0, 64, 48
1, 102150, Note_on_c, 0, 81, 87
1, 102184, Note_on_c, 0, 60, 80
1, 102185, Note_off_c, 0, 85, 64
1, 102186, Note_off_c, 0, 61, 63
1, 102240, Poly_aftertouch_c, 0, 83, 127
1, 102246, Note_on_c, 0, 78, 101
1, 102269, Note_on_c, 0, 61, 85
1, 102270, Poly_aftertouch_c, 0, 83, 0
1, 102274, Note_off_c, 0, 73, 64
1, 102274, Note_off_c, 0, 81, 65
1, 102280, Note_off_c, 0, 60, 64
1, 102332, Note_off_c, 0, 61, 63
1, 102345, Note_on_c, 0, 69, 87
1, 102352, Note_off_c, 0, 78, 64
1, 102414, Note_on_c, 0, 61, 89
1, 102414, Note_off_c, 0, 69, 65
1, 102460, Note_off_c, 0, 61, 66
1, 102548, Note_on_c, 0, 44, 87
1, 102550, Control_c, 0, 64, 66
1, 102556, Note_on_c, 0, 56, 94
1, 102561, Note_on_c, 0, 85, 95
1, 102562, Note_on_c, 0, 77, 92
1, 102564, Note_on_c, 0, 73, 96
1, 102565, Control_c, 0, 64, 0
1, 102610, Control_c, 0, 64, 13
1, 102613, Note_off_c, 0, 44, 64
1, 102624, Control_c, 0, 64, 59
1, 102639, Control_c, 0, 64, 69
1, 102650, Note_off_c, 0, 56, 64
1, 102654, Control_c, 0, 64, 93
1, 102669, Control_c, 0, 64, 127
1, 102738, Note_on_c, 0, 60, 88
1, 102814, Note_on_c, 0, 61, 83
1, 102838, Note_off_c, 0, 60, 61
1, 102906, Note_on_c, 0, 62, 84
1, 102908, Note_off_c, 0, 73, 62
1, 102908, Note_off_c, 0, 85, 63
1, 102909, Note_off_c, 0, 77, 64
1, 102917, Note_off_c, 0, 61, 61
1, 102995, Note_on_c, 0, 61, 84
1, 102995, Note_off_c, 0, 62, 48
1, 103009, Note_on_c, 0, 85, 99
1, 103010, Note_on_c, 0, 73, 98
1, 103042, Note_off_c, 0, 73, 68
1, 103043, Note_off_c, 0, 85, 69
1, 103067, Note_on_c, 0, 60, 84
1, 103072, Note_off_c, 0, 61, 62
1, 103117, Note_on_c, 0, 73, 97
1, 103117, Note_on_c, 0, 85, 98
1, 103149, Note_off_c, 0, 73, 68
1, 103156, Note_off_c, 0, 85, 64
1, 103163, Note_on_c, 0, 61, 85
1, 103175, Note_off_c, 0, 60, 64
1, 103217, Note_on_c, 0, 73, 105
1, 103218, Note_on_c, 0, 85, 92
1, 103242, Note_off_c, 0, 61, 62
1, 103245, Note_on_c, 0, 71, 83
1, 103248, Note_off_c, 0, 73, 69
1, 103255, Note_off_c, 0, 85, 63
1, 103311, Note_on_c, 0, 73, 108
1, 103313, Note_on_c, 0, 85, 95
1, 103315, Note_off_c, 0, 71, 62
1, 103338, Note_on_c, 0, 62, 82
1, 103344, Note_off_c, 0, 73, 68
1, 103349, Note_off_c, 0, 85, 65
1, 103360, Note_off_c, 0, 62, 71
1, 103364, Note_on_c, 0, 78, 13
1, 103396, Note_off_c, 0, 78, 0
1, 103396, Note_on_c, 0, 78, 41
1, 103402, Note_on_c, 0, 73, 97
1, 103402, Note_on_c, 0, 85, 93
1, 103427, Note_off_c, 0, 85, 59
1, 103436, Note_off_c, 0, 73, 65
1, 103439, Note_off_c, 0, 78, 65
1, 103483, Control_c, 0, 64, 76
1, 103489, Note_on_c, 0, 45, 77
1, 103492, Note_on_c, 0, 73, 110
1, 103492, Note_on_c, 0, 78, 97
1, 103494, Note_on_c, 0, 85, 105
1, 103498, Control_c, 0, 64, 40
1, 103500, Note_on_c, 0, 59, 81
1, 103502, Note_on_c, 0, 47, 75
1, 103505, Note_on_c, 0, 57, 80
1, 103513, Control_c, 0, 64, 0
1, 103540, Note_off_c, 0, 45, 62
1, 103543, Control_c, 0, 64, 52
1, 103550, Note_off_c, 0, 47, 60
1, 103558, Control_c, 0, 64, 72
1, 103563, Note_off_c, 0, 59, 64
1, 103569, Note_off_c, 0, 57, 59
1, 103573, Control_c, 0, 64, 127
1, 103633, Note_on_c, 0, 60, 85
1, 103707, Note_on_c, 0, 61, 84
1, 103719, Note_off_c, 0, 60, 63
1, 103731, Note_off_c, 0, 78, 61
1, 103759, Note_off_c, 0, 73, 58
1, 103780, Note_on_c, 0, 62, 90
1, 103783, Note_off_c, 0, 61, 61
1, 103860, Note_on_c, 0, 61, 84
1, 103870, Note_off_c, 0, 62, 60
1, 103938, Note_on_c, 0, 81, 89
1, 103940, Note_on_c, 0, 60, 86
1, 103957, Note_off_c, 0, 61, 61
1, 103976, Note_off_c, 0, 85, 63
1, 104038, Note_on_c, 0, 78, 105
1, 104042, Note_on_c, 0, 61, 90
1, 104056, Note_off_c, 0, 60, 64
1, 104060, Note_off_c, 0, 81, 67
1, 104112, Note_off_c, 0, 61, 62
1, 104147, Note_off_c, 0, 78, 60
1, 104148, Note_on_c, 0, 73, 97
1, 104203, Poly_aftertouch_c, 0, 63, 127
1, 104205, Note_off_c, 0, 73, 69
1, 104227, Note_on_c, 0, 62, 53
1, 104233, Note_on_c, 0, 61, 90
1, 104258, Note_off_c, 0, 62, 66
1, 104266, Note_off_c, 0, 61, 69
1, 104273, Poly_aftertouch_c, 0, 63, 0
1, 104417, Note_on_c, 0, 34, 77
1, 104418, Note_on_c, 0, 32, 74
1, 104466, Note_on_c, 0, 76, 106
1, 104466, Note_on_c, 0, 88, 100
1, 104468, Note_on_c, 0, 85, 90
1, 104469, Note_on_c, 0, 79, 97
1, 104470, Note_off_c, 0, 32, 61
1, 104470, Control_c, 0, 64, 84
1, 104484, Control_c, 0, 64, 56
1, 104499, Control_c, 0, 64, 0
1, 104544, Control_c, 0, 64, 40
1, 104558, Control_c, 0, 64, 66
1, 104573, Control_c, 0, 64, 77
1, 104588, Control_c, 0, 64, 101
1, 104592, Note_off_c, 0, 34, 62
1, 104602, Control_c, 0, 64, 127
1, 104622, Note_on_c, 0, 49, 91
1, 104679, Poly_aftertouch_c, 0, 40, 127
1, 104715, Note_off_c, 0, 49, 63
1, 104738, Note_on_c, 0, 37, 88
1, 104742, Poly_aftertouch_c, 0, 40, 0
1, 104805, Note_off_c, 0, 37, 64
1, 104856, Note_on_c, 0, 52, 97
1, 104922, Note_off_c, 0, 52, 61
1, 104974, Note_on_c, 0, 40, 93
1, 105035, Note_off_c, 0, 40, 64
1, 105042, Note_off_c, 0, 88, 61
1, 105048, Note_off_c, 0, 79, 60
1, 105050, Note_off_c, 0, 76, 57
1, 105052, Note_off_c, 0, 85, 54
1, 105090, Note_on_c, 0, 55, 92
1, 105126, Note_on_c, 0, 79, 92
1, 105127, Note_on_c, 0, 88, 92
1, 105129, Note_on_c, 0, 76, 91
1, 105135, Note_on_c, 0, 85, 79
1, 105150, Note_off_c, 0, 76, 69
1, 105155, Note_off_c, 0, 85, 72
1, 105161, Note_off_c, 0, 79, 67
1, 105168, Note_off_c, 0, 88, 62
1, 105203, Note_on_c, 0, 43, 84
1, 105204, Note_on_c, 0, 88, 92
1, 105205, Note_on_c, 0, 79, 91
1, 105208, Note_on_c, 0, 76, 104
1, 105212, Note_on_c, 0, 85, 94
1, 105215, Note_off_c, 0, 55, 64
1, 105274, Note_off_c, 0, 43, 62
1, 105296, Note_on_c, 0, 49, 57
1, 105320, Note_off_c, 0, 49, 60
1, 105336, Note_off_c, 0, 76, 60
1, 105339, Note_off_c, 0, 88, 61
1, 105347, Note_on_c, 0, 58, 94
1, 105358, Note_off_c, 0, 79, 66
1, 105433, Note_on_c, 0, 46, 78
1, 105451, Note_off_c, 0, 58, 61
1, 105460, Note_off_c, 0, 85, 56
1, 105519, Note_off_c, 0, 46, 63
1, 105592, Note_on_c, 0, 47, 87
1, 105596, Note_on_c, 0, 88, 97
1, 105601, Note_on_c, 0, 76, 95
1, 105602, Note_on_c, 0, 80, 90
1, 105620, Control_c, 0, 64, 68
1, 105635, Control_c, 0, 64, 27
1, 105649, Control_c, 0, 64, 0
1, 105679, Control_c, 0, 64, 60
1, 105701, Control_c, 0, 64, 81
1, 105716, Control_c, 0, 64, 127
1, 105719, Note_off_c, 0, 47, 50
1, 105783, Note_on_c, 0, 59, 78
1, 105871, Note_off_c, 0, 76, 59
1, 105882, Note_on_c, 0, 56, 79
1, 105883, Note_off_c, 0, 59, 62
1, 105896, Note_off_c, 0, 80, 56
1, 105990, Note_on_c, 0, 64, 74
1, 105993, Note_on_c, 0, 83, 89
1, 105994, Note_on_c, 0, 76, 82
1, 105996, Note_on_c, 0, 80, 83
1, 106004, Note_off_c, 0, 56, 64
1, 106017, Note_off_c, 0, 88, 61
1, 106096, Note_off_c, 0, 83, 51
1, 106099, Note_on_c, 0, 59, 84
1, 106125, Note_off_c, 0, 76, 63
1, 106130, Note_off_c, 0, 80, 62
1, 106131, Note_off_c, 0, 64, 61
1, 106157, Note_on_c, 0, 83, 41
1, 106214, Note_on_c, 0, 68, 82
1, 106309, Note_on_c, 0, 76, 90
1, 106311, Note_on_c, 0, 80, 87
1, 106315, Note_on_c, 0, 71, 86
1, 106324, Note_off_c, 0, 68, 63
1, 106332, Note_off_c, 0, 59, 65
1, 106336, Note_on_c, 0, 64, 82
1, 106346, Note_off_c, 0, 83, 64
1, 106385, Note_off_c, 0, 71, 61
1, 106398, Note_off_c, 0, 76, 64
1, 106435, Note_off_c, 0, 80, 51
1, 106437, Note_on_c, 0, 59, 84
1, 106437, Note_off_c, 0, 64, 59
1, 106518, Note_on_c, 0, 56, 90
1, 106531, Note_off_c, 0, 59, 61
1, 106559, Note_off_c, 0, 56, 67
1, 106594, Note_on_c, 0, 80, 79
1, 106676, Note_on_c, 0, 75, 82
1, 106676, Note_on_c, 0, 78, 93
1, 106678, Note_on_c, 0, 35, 79
1, 106680, Note_on_c, 0, 69, 81
1, 106683, Note_on_c, 0, 71, 82
1, 106687, Control_c, 0, 64, 80
1, 106702, Control_c, 0, 64, 36
1, 106717, Note_off_c, 0, 80, 66
1, 106717, Control_c, 0, 64, 0
1, 106783, Note_off_c, 0, 35, 61
1, 106791, Control_c, 0, 64, 49
1, 106805, Control_c, 0, 64, 58
1, 106820, Control_c, 0, 64, 63
1, 106835, Control_c, 0, 64, 69
1, 106849, Note_on_c, 0, 48, 51
1, 106850, Control_c, 0, 64, 80
1, 106865, Control_c, 0, 64, 106
1, 106866, Note_off_c, 0, 75, 58
1, 106879, Control_c, 0, 64, 127
1, 106890, Note_off_c, 0, 48, 65
1, 106956, Note_off_c, 0, 69, 47
1, 106968, Note_on_c, 0, 54, 61
1, 106974, Note_off_c, 0, 71, 48
1, 107021, Note_on_c, 0, 55, 38
1, 107053, Note_off_c, 0, 55, 52
1, 107065, Note_on_c, 0, 59, 70
1, 107069, Note_on_c, 0, 76, 92
1, 107072, Note_on_c, 0, 71, 78
1, 107075, Note_off_c, 0, 54, 60
1, 107078, Note_on_c, 0, 69, 82
1, 107101, Note_on_c, 0, 73, 41
1, 107104, Note_off_c, 0, 78, 61
1, 107130, Note_off_c, 0, 73, 48
1, 107177, Note_on_c, 0, 54, 79
1, 107214, Note_off_c, 0, 59, 62
1, 107297, Note_on_c, 0, 63, 75
1, 107312, Note_off_c, 0, 69, 53
1, 107317, Note_off_c, 0, 71, 53
1, 107388, Note_on_c, 0, 75, 80
1, 107388, Note_on_c, 0, 78, 97
1, 107392, Note_off_c, 0, 54, 62
1, 107394, Note_on_c, 0, 71, 76
1, 107394, Note_on_c, 0, 69, 78
1, 107395, Note_off_c, 0, 63, 64
1, 107397, Note_on_c, 0, 59, 72
1, 107431, Note_off_c, 0, 76, 63
1, 107509, Poly_aftertouch_c, 0, 60, 0
1, 107512, Note_on_c, 0, 54, 79
1, 107512, Note_off_c, 0, 71, 52
1, 107526, Note_off_c, 0, 69, 60
1, 107552, Note_off_c, 0, 59, 57
1, 107556, Note_on_c, 0, 55, 47
1, 107587, Note_off_c, 0, 55, 51
1, 107604, Note_on_c, 0, 47, 76
1, 107625, Note_off_c, 0, 54, 63
1, 107660, Note_off_c, 0, 47, 63
1, 107752, Note_on_c, 0, 40, 72
1, 107764, Note_off_c, 0, 75, 54
1, 107775, Note_on_c, 0, 80, 82
1, 107777, Note_on_c, 0, 68, 78
1, 107778, Note_on_c, 0, 76, 75
1, 107820, Control_c, 0, 64, 84
1, 107835, Control_c, 0, 64, 59
1, 107850, Control_c, 0, 64, 0
1, 107909, Control_c, 0, 64, 33
1, 107924, Control_c, 0, 64, 58
1, 107934, Note_on_c, 0, 52, 72
1, 107947, Control_c, 0, 64, 60
1, 107962, Control_c, 0, 64, 60
1, 107977, Control_c, 0, 64, 62
1, 107991, Control_c, 0, 64, 66
1, 108006, Control_c, 0, 64, 72
1, 108021, Control_c, 0, 64, 89
1, 108036, Control_c, 0, 64, 127
1, 108059, Note_on_c, 0, 47, 63
1, 108065, Note_off_c, 0, 52, 58
1, 108069, Note_off_c, 0, 40, 60
1, 108100, Note_off_c, 0, 76, 63
1, 108126, Note_off_c, 0, 78, 60
1, 108155, Note_on_c, 0, 40, 77
1, 108166, Note_off_c, 0, 47, 59
1, 108215, Note_off_c, 0, 40, 62
1, 108292, Note_on_c, 0, 56, 87
1, 108295, Poly_aftertouch_c, 0, 42, 0
1, 108307, Note_on_c, 0, 75, 95
1, 108384, Note_off_c, 0, 56, 65
1, 108404, Note_on_c, 0, 47, 84
1, 108457, Note_off_c, 0, 80, 58
1, 108480, Control_c, 0, 64, 102
1, 108495, Control_c, 0, 64, 73
1, 108510, Control_c, 0, 64, 66
1, 108514, Note_on_c, 0, 40, 90
1, 108524, Control_c, 0, 64, 69
1, 108532, Note_on_c, 0, 74, 96
1, 108539, Control_c, 0, 64, 79
1, 108540, Note_off_c, 0, 47, 63
1, 108554, Control_c, 0, 64, 127
1, 108577, Note_off_c, 0, 40, 64
1, 108623, Note_off_c, 0, 75, 44
1, 108648, Note_off_c, 0, 68, 59
1, 108662, Note_on_c, 0, 59, 92
1, 108703, Note_on_c, 0, 57, 47
1, 108704, Note_off_c, 0, 57, 127
1, 108704, Note_off_c, 0, 74, 60
1, 108746, Note_off_c, 0, 59, 63
1, 108827, Note_on_c, 0, 40, 96
1, 108884, Note_off_c, 0, 40, 64
1, 109036, Note_on_c, 0, 39, 88
1, 109045, Note_on_c, 0, 80, 95
1, 109046, Note_on_c, 0, 68, 98
1, 109048, Note_on_c, 0, 72, 90
1, 109048, Note_on_c, 0, 75, 79
1, 109082, Control_c, 0, 64, 79
1, 109084, Note_on_c, 0, 38, 24
1, 109097, Control_c, 0, 64, 0
1, 109124, Note_off_c, 0, 38, 42
1, 109186, Control_c, 0, 64, 52
1, 109201, Control_c, 0, 64, 64
1, 109215, Control_c, 0, 64, 68
1, 109230, Control_c, 0, 64, 75
1, 109237, Note_on_c, 0, 51, 100
1, 109245, Control_c, 0, 64, 90
1, 109254, Note_off_c, 0, 39, 49
1, 109260, Control_c, 0, 64, 127
1, 109325, Note_off_c, 0, 51, 62
1, 109366, Note_on_c, 0, 39, 91
1, 109440, Note_off_c, 0, 39, 65
1, 109505, Note_on_c, 0, 56, 100
1, 109550, Note_off_c, 0, 56, 67
1, 109618, Note_on_c, 0, 39, 91
1, 109662, Note_on_c, 0, 38, 36
1, 109673, Note_off_c, 0, 39, 64
1, 109675, Note_off_c, 0, 75, 54
1, 109681, Note_off_c, 0, 80, 59
1, 109697, Note_off_c, 0, 72, 59
1, 109705, Note_off_c, 0, 38, 47
1, 109705, Note_off_c, 0, 68, 59
1, 109740, Note_on_c, 0, 60, 94
1, 109775, Note_on_c, 0, 80, 86
1, 109776, Note_on_c, 0, 68, 87
1, 109781, Note_on_c, 0, 72, 80
1, 109782, Note_on_c, 0, 75, 76
1, 109788, Note_off_c, 0, 60, 69
1, 109806, Note_off_c, 0, 75, 67
1, 109806, Note_off_c, 0, 72, 67
1, 109812, Note_off_c, 0, 68, 62
1, 109821, Note_off_c, 0, 80, 62
1, 109854, Note_on_c, 0, 80, 87
1, 109855, Note_on_c, 0, 68, 86
1, 109859, Note_on_c, 0, 72, 85
1, 109859, Note_on_c, 0, 75, 91
1, 109864, Note_on_c, 0, 39, 83
1, 109876, Note_on_c, 0, 38, 82
1, 109905, Note_off_c, 0, 38, 66
1, 109926, Note_off_c, 0, 39, 61
1, 109988, Note_on_c, 0, 63, 99
1, 110026, Note_off_c, 0, 63, 67
1, 110053, Note_off_c, 0, 68, 56
1, 110098, Note_off_c, 0, 80, 59
1, 110110, Note_on_c, 0, 39, 97
1, 110121, Note_off_c, 0, 75, 52
1, 110137, Note_off_c, 0, 72, 50
1, 110148, Note_off_c, 0, 39, 64
1, 110283, Note_on_c, 0, 68, 101
1, 110288, Note_on_c, 0, 80, 94
1, 110292, Note_on_c, 0, 75, 92
1, 110295, Note_on_c, 0, 72, 94
1, 110297, Control_c, 0, 64, 96
1, 110312, Control_c, 0, 64, 66
1, 110327, Control_c, 0, 64, 45
1, 110343, Control_c, 0, 64, 38
1, 110357, Control_c, 0, 64, 53
1, 110372, Control_c, 0, 64, 68
1, 110387, Control_c, 0, 64, 99
1, 110402, Control_c, 0, 64, 127
1, 110408, Note_off_c, 0, 80, 64
1, 110431, Note_off_c, 0, 72, 64
1, 110441, Note_off_c, 0, 68, 60
1, 110456, Note_off_c, 0, 75, 65
1, 110480, Note_on_c, 0, 63, 85
1, 110604, Note_off_c, 0, 63, 57
1, 110608, Note_on_c, 0, 72, 87
1, 110663, Note_off_c, 0, 72, 62
1, 110718, Note_on_c, 0, 68, 83
1, 110805, Note_on_c, 0, 63, 77
1, 110806, Note_off_c, 0, 68, 63
1, 110836, Note_on_c, 0, 68, 77
1, 110836, Note_on_c, 0, 72, 80
1, 110837, Note_on_c, 0, 75, 95
1, 110868, Note_off_c, 0, 63, 64
1, 110916, Note_on_c, 0, 60, 76
1, 110948, Note_off_c, 0, 68, 58
1, 110969, Note_off_c, 0, 72, 57
1, 111060, Note_on_c, 0, 56, 81
1, 111062, Note_on_c, 0, 72, 90
1, 111064, Note_on_c, 0, 63, 96
1, 111069, Note_on_c, 0, 68, 91
1, 111089, Note_off_c, 0, 60, 61
1, 111119, Note_off_c, 0, 75, 62
1, 111175, Note_on_c, 0, 51, 93
1, 111190, Note_off_c, 0, 56, 65
1, 111212, Note_off_c, 0, 63, 59
1, 111224, Note_on_c, 0, 52, 13
1, 111225, Note_off_c, 0, 51, 66
1, 111231, Poly_aftertouch_c, 0, 53, 127
1, 111257, Note_off_c, 0, 72, 56
1, 111264, Poly_aftertouch_c, 0, 53, 0
1, 111273, Note_off_c, 0, 52, 54
1, 111288, Note_off_c, 0, 68, 59
1, 111310, Note_on_c, 0, 39, 88
1, 111554, Note_on_c, 0, 27, 83
1, 111603, Note_off_c, 0, 39, 61
1, 111603, Note_on_c, 0, 72, 79
1, 111605, Note_on_c, 0, 75, 100
1, 111606, Note_on_c, 0, 63, 94
1, 111606, Note_on_c, 0, 61, 92
1, 111609, Note_on_c, 0, 67, 85
1, 111609, Control_c, 0, 64, 106
1, 111624, Control_c, 0, 64, 62
1, 111639, Control_c, 0, 64, 0
1, 111651, Note_on_c, 0, 62, 33
1, 111693, Note_off_c, 0, 62, 36
1, 111735, Control_c, 0, 64, 61
1, 111750, Control_c, 0, 64, 70
1, 111764, Control_c, 0, 64, 85
1, 111779, Control_c, 0, 64, 127
1, 111842, Note_off_c, 0, 27, 63
1, 111848, Note_on_c, 0, 39, 74
1, 111881, Note_off_c, 0, 39, 62
1, 112004, Note_on_c, 0, 46, 61
1, 112136, Note_on_c, 0, 55, 76
1, 112182, Note_off_c, 0, 46, 62
1, 112331, Note_on_c, 0, 51, 79
1, 112333, Note_on_c, 0, 70, 89
1, 112364, Note_off_c, 0, 75, 61
1, 112367, Note_off_c, 0, 63, 58
1, 112368, Note_off_c, 0, 55, 56
1, 112384, Note_off_c, 0, 67, 50
1, 112397, Note_off_c, 0, 72, 60
1, 112441, Note_off_c, 0, 61, 56
1, 112473, Note_on_c, 0, 46, 82
1, 112497, Note_off_c, 0, 51, 64
1, 112602, Control_c, 0, 64, 93
1, 112617, Control_c, 0, 64, 65
1, 112621, Note_on_c, 0, 39, 74
1, 112632, Control_c, 0, 64, 39
1, 112644, Note_on_c, 0, 73, 94
1, 112647, Control_c, 0, 64, 0
1, 112653, Note_on_c, 0, 61, 79
1, 112653, Note_on_c, 0, 67, 69
1, 112677, Control_c, 0, 64, 35
1, 112685, Note_off_c, 0, 70, 61
1, 112691, Control_c, 0, 64, 58
1, 112694, Note_off_c, 0, 46, 60
1, 112706, Control_c, 0, 64, 66
1, 112721, Control_c, 0, 64, 75
1, 112736, Control_c, 0, 64, 99
1, 112751, Control_c, 0, 64, 127
1, 112834, Note_off_c, 0, 39, 61
1, 112855, Note_on_c, 0, 49, 36
1, 112888, Note_off_c, 0, 49, 55
1, 112982, Note_off_c, 0, 73, 64
1, 113012, Note_on_c, 0, 63, 77
1, 113059, Note_off_c, 0, 63, 61
1, 113078, Note_off_c, 0, 61, 52
1, 113098, Note_on_c, 0, 72, 78
1, 113127, Note_off_c, 0, 67, 59
1, 113290, Note_on_c, 0, 32, 67
1, 113329, Note_on_c, 0, 60, 65
1, 113333, Note_on_c, 0, 68, 77
1, 113336, Control_c, 0, 64, 71
1, 113351, Control_c, 0, 64, 18
1, 113366, Control_c, 0, 64, 0
1, 113412, Note_off_c, 0, 72, 59
1, 113425, Control_c, 0, 64, 47
1, 113440, Control_c, 0, 64, 57
1, 113443, Note_off_c, 0, 32, 64
1, 113455, Control_c, 0, 64, 64
1, 113469, Control_c, 0, 64, 69
1, 113484, Control_c, 0, 64, 74
1, 113499, Control_c, 0, 64, 76
1, 113529, Control_c, 0, 64, 79
1, 113533, Note_on_c, 0, 51, 66
1, 113544, Control_c, 0, 64, 92
1, 113559, Control_c, 0, 64, 127
1, 113612, Note_off_c, 0, 51, 63
1, 113633, Control_c, 0, 64, 81
1, 113634, Note_on_c, 0, 44, 59
1, 113648, Control_c, 0, 64, 67
1, 113663, Control_c, 0, 64, 65
1, 113678, Control_c, 0, 64, 69
1, 113692, Note_off_c, 0, 44, 61
1, 113693, Control_c, 0, 64, 78
1, 113708, Control_c, 0, 64, 85
1, 113723, Control_c, 0, 64, 94
1, 113737, Control_c, 0, 64, 107
1, 113748, Note_on_c, 0, 51, 46
1, 113752, Control_c, 0, 64, 127
1, 113767, Control_c, 0, 64, 109
1, 113782, Control_c, 0, 64, 93
1, 113797, Control_c, 0, 64, 83
1, 113805, Note_off_c, 0, 51, 61
1, 113811, Control_c, 0, 64, 76
1, 113826, Control_c, 0, 64, 69
1, 113832, Note_on_c, 0, 44, 42
1, 113841, Control_c, 0, 64, 65
1, 113870, Control_c, 0, 64, 66
1, 113891, Note_off_c, 0, 44, 55
1, 113900, Control_c, 0, 64, 65
1, 113915, Control_c, 0, 64, 65
1, 113937, Control_c, 0, 64, 65
1, 113940, Note_on_c, 0, 51, 49
1, 113951, Control_c, 0, 64, 67
1, 113951, Control_c, 0, 67, 10
1, 113966, Control_c, 0, 64, 70
1, 113966, Control_c, 0, 67, 24
1, 113981, Control_c, 0, 64, 72
1, 113981, Control_c, 0, 67, 35
1, 113996, Control_c, 0, 64, 74
1, 113996, Control_c, 0, 67, 41
1, 114006, Note_off_c, 0, 51, 57
1, 114010, Control_c, 0, 64, 76
1, 114010, Control_c, 0, 67, 46
1, 114025, Control_c, 0, 64, 77
1, 114025, Control_c, 0, 67, 55
1, 114040, Control_c, 0, 64, 78
1, 114040, Control_c, 0, 67, 60
1, 114042, Note_on_c, 0, 44, 50
1, 114055, Control_c, 0, 67, 61
1, 114069, Control_c, 0, 64, 79
1, 114069, Control_c, 0, 67, 61
1, 114078, Note_off_c, 0, 60, 56
1, 114084, Control_c, 0, 64, 82
1, 114099, Control_c, 0, 64, 85
1, 114114, Control_c, 0, 64, 86
1, 114122, Note_off_c, 0, 44, 54
1, 114143, Control_c, 0, 64, 87
1, 114146, Note_on_c, 0, 51, 42
1, 114158, Control_c, 0, 64, 90
1, 114173, Control_c, 0, 64, 91
1, 114173, Control_c, 0, 67, 61
1, 114188, Control_c, 0, 67, 60
1, 114203, Control_c, 0, 67, 59
1, 114218, Control_c, 0, 64, 92
1, 114233, Control_c, 0, 64, 93
1, 114248, Control_c, 0, 64, 94
1, 114256, Note_on_c, 0, 44, 35
1, 114262, Control_c, 0, 64, 93
1, 114277, Control_c, 0, 64, 93
1, 114292, Control_c, 0, 64, 93
1, 114307, Control_c, 0, 64, 94
1, 114319, Note_off_c, 0, 51, 28
1, 114322, Control_c, 0, 64, 93
1, 114337, Control_c, 0, 64, 93
1, 114352, Control_c, 0, 64, 92
1, 114382, Control_c, 0, 64, 93
1, 114426, Control_c, 0, 64, 96
1, 114441, Control_c, 0, 64, 102
1, 114456, Control_c, 0, 64, 104
1, 114471, Note_off_c, 0, 68, 31
1, 114471, Control_c, 0, 64, 101
1, 114471, Control_c, 0, 67, 60
1, 114474, Note_off_c, 0, 44, 34
1, 114485, Control_c, 0, 64, 92
1, 114494, Note_on_c, 0, 52, 40
1, 114496, Note_on_c, 0, 69, 54
1, 114500, Control_c, 0, 64, 79
1, 114500, Control_c, 0, 67, 60
1, 114510, Note_on_c, 0, 61, 34
1, 114515, Control_c, 0, 64, 67
1, 114530, Control_c, 0, 64, 60
1, 114545, Control_c, 0, 64, 60
1, 114559, Control_c, 0, 64, 61
1, 114574, Control_c, 0, 64, 62
1, 114589, Control_c, 0, 64, 63
1, 114604, Control_c, 0, 64, 65
1, 114618, Note_off_c, 0, 52, 60
1, 114619, Control_c, 0, 64, 68
1, 114633, Control_c, 0, 64, 71
1, 114645, Note_on_c, 0, 44, 32
1, 114648, Control_c, 0, 64, 73
1, 114648, Control_c, 0, 67, 60
1, 114663, Control_c, 0, 64, 74
1, 114663, Control_c, 0, 67, 59
1, 114700, Control_c, 0, 64, 75
1, 114700, Control_c, 0, 67, 58
1, 114715, Control_c, 0, 64, 77
1, 114715, Control_c, 0, 67, 58
1, 114730, Control_c, 0, 64, 79
1, 114740, Note_off_c, 0, 44, 38
1, 114745, Control_c, 0, 64, 79
1, 114759, Control_c, 0, 64, 80
1, 114774, Control_c, 0, 64, 84
1, 114775, Note_on_c, 0, 52, 38
1, 114789, Control_c, 0, 64, 88
1, 114804, Control_c, 0, 64, 91
1, 114819, Control_c, 0, 64, 92
1, 114847, Note_off_c, 0, 52, 52
1, 114848, Control_c, 0, 64, 92
1, 114856, Note_off_c, 0, 69, 57
1, 114863, Control_c, 0, 64, 93
1, 114878, Control_c, 0, 64, 94
1, 114892, Control_c, 0, 64, 94
1, 114897, Note_on_c, 0, 44, 20
1, 114922, Control_c, 0, 64, 95
1, 114922, Control_c, 0, 67, 57
1, 114937, Control_c, 0, 64, 98
1, 114937, Control_c, 0, 67, 56
1, 114943, Note_off_c, 0, 44, 48
1, 114952, Control_c, 0, 64, 101
1, 114966, Control_c, 0, 64, 105
1, 114971, Note_on_c, 0, 69, 68
1, 114978, Note_on_c, 0, 52, 45
1, 114981, Control_c, 0, 64, 108
1, 114996, Control_c, 0, 64, 113
1, 115011, Control_c, 0, 64, 121
1, 115026, Control_c, 0, 64, 127
1, 115040, Note_off_c, 0, 69, 58
1, 115056, Note_off_c, 0, 52, 55
1, 115070, Control_c, 0, 67, 56
1, 115073, Note_on_c, 0, 44, 38
1, 115085, Control_c, 0, 67, 55
1, 115120, Note_off_c, 0, 44, 55
1, 115133, Note_on_c, 0, 69, 72
1, 115178, Note_on_c, 0, 52, 47
1, 115218, Note_off_c, 0, 52, 64
1, 115245, Note_on_c, 0, 44, 48
1, 115273, Note_off_c, 0, 44, 62
1, 115279, Note_off_c, 0, 69, 62
1, 115279, Control_c, 0, 67, 54
1, 115294, Control_c, 0, 67, 53
1, 115307, Note_off_c, 0, 61, 54
1, 115315, Note_on_c, 0, 52, 50
1, 115323, Control_c, 0, 67, 53
1, 115338, Control_c, 0, 67, 55
1, 115340, Note_off_c, 0, 52, 63
1, 115353, Control_c, 0, 67, 55
1, 115368, Control_c, 0, 64, 89
1, 115368, Control_c, 0, 67, 56
1, 115382, Control_c, 0, 64, 72
1, 115382, Control_c, 0, 67, 58
1, 115387, Note_on_c, 0, 69, 69
1, 115389, Note_on_c, 0, 60, 53
1, 115397, Note_on_c, 0, 44, 30
1, 115397, Control_c, 0, 64, 64
1, 115397, Control_c, 0, 67, 58
1, 115412, Control_c, 0, 64, 64
1, 115434, Control_c, 0, 64, 65
1, 115449, Control_c, 0, 64, 66
1, 115453, Note_off_c, 0, 44, 55
1, 115464, Control_c, 0, 64, 67
1, 115464, Control_c, 0, 67, 60
1, 115479, Control_c, 0, 64, 68
1, 115479, Control_c, 0, 67, 60
1, 115494, Control_c, 0, 64, 71
1, 115508, Control_c, 0, 64, 74
1, 115513, Note_on_c, 0, 51, 45
1, 115523, Control_c, 0, 64, 77
1, 115538, Control_c, 0, 64, 78
1, 115553, Control_c, 0, 67, 61
1, 115559, Note_off_c, 0, 51, 59
1, 115582, Control_c, 0, 64, 80
1, 115584, Note_on_c, 0, 44, 37
1, 115597, Control_c, 0, 64, 83
1, 115612, Control_c, 0, 64, 87
1, 115627, Note_off_c, 0, 44, 55
1, 115627, Control_c, 0, 64, 90
1, 115671, Control_c, 0, 64, 90
1, 115672, Note_on_c, 0, 51, 47
1, 115686, Control_c, 0, 64, 91
1, 115701, Control_c, 0, 64, 91
1, 115715, Control_c, 0, 64, 92
1, 115738, Note_off_c, 0, 60, 54
1, 115745, Control_c, 0, 64, 92
1, 115752, Note_off_c, 0, 51, 58
1, 115760, Control_c, 0, 64, 93
1, 115775, Control_c, 0, 64, 94
1, 115782, Note_on_c, 0, 44, 24
1, 115789, Control_c, 0, 64, 96
1, 115827, Note_on_c, 0, 68, 55
1, 115844, Note_off_c, 0, 44, 41
1, 115873, Note_off_c, 0, 69, 57
1, 115890, Note_on_c, 0, 51, 42
1, 115908, Control_c, 0, 64, 96
1, 115908, Control_c, 0, 67, 60
1, 115923, Control_c, 0, 64, 97
1, 115932, Note_off_c, 0, 51, 49
1, 115938, Control_c, 0, 67, 60
1, 115984, Note_on_c, 0, 44, 42
1, 115987, Note_on_c, 0, 63, 47
1, 115998, Control_c, 0, 64, 97
1, 116023, Note_off_c, 0, 44, 51
1, 116057, Control_c, 0, 64, 98
1, 116064, Note_on_c, 0, 51, 31
1, 116087, Control_c, 0, 64, 100
1, 116102, Control_c, 0, 64, 106
1, 116116, Note_off_c, 0, 51, 48
1, 116117, Control_c, 0, 64, 123
1, 116117, Control_c, 0, 67, 59
1, 116131, Control_c, 0, 64, 127
1, 116131, Control_c, 0, 67, 58
1, 116151, Note_on_c, 0, 44, 40
1, 116161, Control_c, 0, 67, 58
1, 116171, Note_off_c, 0, 63, 56
1, 116183, Control_c, 0, 67, 57
1, 116199, Control_c, 0, 67, 56
1, 116213, Control_c, 0, 67, 56
1, 116225, Note_off_c, 0, 44, 56
1, 116272, Note_on_c, 0, 53, 52
1, 116283, Note_on_c, 0, 71, 71
1, 116287, Control_c, 0, 64, 83
1, 116296, Note_on_c, 0, 62, 51
1, 116302, Control_c, 0, 64, 68
1, 116317, Control_c, 0, 64, 66
1, 116317, Control_c, 0, 67, 55
1, 116331, Control_c, 0, 64, 68
1, 116331, Control_c, 0, 67, 55
1, 116346, Control_c, 0, 64, 72
1, 116355, Note_off_c, 0, 53, 60
1, 116361, Control_c, 0, 64, 79
1, 116376, Note_on_c, 0, 44, 49
1, 116376, Control_c, 0, 64, 93
1, 116376, Control_c, 0, 67, 54
1, 116391, Control_c, 0, 64, 127
1, 116428, Note_off_c, 0, 68, 29
1, 116435, Note_off_c, 0, 44, 55
1, 116435, Control_c, 0, 67, 53
1, 116450, Control_c, 0, 67, 53
1, 116481, Note_on_c, 0, 53, 54
1, 116510, Control_c, 0, 67, 52
1, 116525, Control_c, 0, 67, 51
1, 116540, Note_off_c, 0, 71, 60
1, 116552, Note_off_c, 0, 53, 59
1, 116568, Note_on_c, 0, 44, 54
1, 116599, Control_c, 0, 67, 51
1, 116614, Note_off_c, 0, 44, 59
1, 116675, Note_on_c, 0, 53, 52
1, 116676, Note_on_c, 0, 71, 85
1, 116687, Control_c, 0, 67, 50
1, 116717, Control_c, 0, 67, 50
1, 116736, Note_off_c, 0, 53, 57
1, 116737, Note_off_c, 0, 71, 63
1, 116740, Note_on_c, 0, 44, 50
1, 116791, Note_off_c, 0, 44, 59
1, 116792, Control_c, 0, 67, 49
1, 116807, Control_c, 0, 67, 48
1, 116808, Note_on_c, 0, 71, 83
1, 116838, Note_on_c, 0, 53, 55
1, 116866, Control_c, 0, 67, 48
1, 116877, Note_off_c, 0, 71, 61
1, 116879, Note_off_c, 0, 62, 64
1, 116880, Note_off_c, 0, 53, 60
1, 116881, Control_c, 0, 67, 47
1, 116909, Note_on_c, 0, 44, 59
1, 116960, Note_off_c, 0, 44, 61
1, 116975, Note_on_c, 0, 53, 62
1, 116992, Control_c, 0, 67, 46
1, 117007, Control_c, 0, 67, 45
1, 117011, Note_off_c, 0, 53, 64
1, 117022, Control_c, 0, 67, 43
1, 117036, Control_c, 0, 67, 38
1, 117051, Control_c, 0, 67, 34
1, 117062, Note_on_c, 0, 44, 62
1, 117066, Control_c, 0, 67, 28
1, 117073, Note_on_c, 0, 71, 82
1, 117081, Note_on_c, 0, 63, 61
1, 117081, Control_c, 0, 64, 79
1, 117081, Control_c, 0, 67, 18
1, 117096, Control_c, 0, 64, 64
1, 117096, Control_c, 0, 67, 14
1, 117110, Control_c, 0, 64, 57
1, 117110, Control_c, 0, 67, 13
1, 117125, Control_c, 0, 64, 60
1, 117140, Control_c, 0, 64, 64
1, 117141, Note_off_c, 0, 44, 62
1, 117154, Control_c, 0, 64, 68
1, 117158, Note_on_c, 0, 54, 69
1, 117169, Control_c, 0, 64, 72
1, 117184, Control_c, 0, 64, 76
1, 117199, Control_c, 0, 64, 83
1, 117214, Control_c, 0, 64, 88
1, 117228, Note_off_c, 0, 54, 63
1, 117228, Control_c, 0, 64, 88
1, 117232, Note_on_c, 0, 44, 57
1, 117243, Control_c, 0, 64, 87
1, 117258, Control_c, 0, 67, 14
1, 117273, Control_c, 0, 64, 90
1, 117288, Control_c, 0, 64, 95
1, 117303, Note_off_c, 0, 44, 56
1, 117303, Control_c, 0, 64, 101
1, 117303, Control_c, 0, 67, 14
1, 117312, Note_on_c, 0, 54, 64
1, 117318, Control_c, 0, 64, 102
1, 117333, Control_c, 0, 64, 100
1, 117392, Control_c, 0, 64, 100
1, 117396, Note_off_c, 0, 54, 61
1, 117402, Note_on_c, 0, 44, 57
1, 117407, Control_c, 0, 64, 99
1, 117436, Control_c, 0, 64, 98
1, 117451, Control_c, 0, 64, 97
1, 117466, Control_c, 0, 64, 95
1, 117470, Note_on_c, 0, 70, 64
1, 117475, Note_off_c, 0, 44, 56
1, 117515, Note_off_c, 0, 71, 55
1, 117519, Note_on_c, 0, 54, 58
1, 117556, Control_c, 0, 64, 96
1, 117571, Control_c, 0, 64, 98
1, 117585, Control_c, 0, 64, 100
1, 117596, Note_off_c, 0, 54, 61
1, 117600, Control_c, 0, 64, 100
1, 117610, Note_on_c, 0, 75, 64
1, 117618, Note_on_c, 0, 44, 50
1, 117645, Control_c, 0, 64, 101
1, 117659, Control_c, 0, 64, 104
1, 117659, Control_c, 0, 67, 15
1, 117682, Control_c, 0, 64, 106
1, 117696, Control_c, 0, 64, 106
1, 117698, Note_on_c, 0, 54, 62
1, 117708, Note_off_c, 0, 44, 54
1, 117710, Control_c, 0, 64, 114
1, 117725, Control_c, 0, 64, 127
1, 117725, Control_c, 0, 67, 16
1, 117743, Note_off_c, 0, 75, 57
1, 117767, Note_off_c, 0, 63, 55
1, 117784, Control_c, 0, 67, 16
1, 117804, Note_off_c, 0, 54, 63
1, 117809, Note_on_c, 0, 44, 52
1, 117836, Note_off_c, 0, 70, 59
1, 117869, Note_off_c, 0, 44, 61
1, 117873, Control_c, 0, 64, 92
1, 117873, Control_c, 0, 67, 18
1, 117882, Note_on_c, 0, 53, 80
1, 117886, Note_on_c, 0, 62, 72
1, 117888, Control_c, 0, 64, 69
1, 117893, Note_on_c, 0, 71, 63
1, 117902, Control_c, 0, 64, 61
1, 117917, Control_c, 0, 64, 59
1, 117932, Control_c, 0, 64, 60
1, 117947, Control_c, 0, 64, 62
1, 117962, Control_c, 0, 64, 64
1, 117977, Control_c, 0, 64, 66
1, 117992, Control_c, 0, 64, 68
1, 118003, Note_off_c, 0, 53, 62
1, 118005, Note_on_c, 0, 44, 56
1, 118006, Control_c, 0, 64, 71
1, 118021, Control_c, 0, 64, 74
1, 118036, Control_c, 0, 64, 75
1, 118051, Control_c, 0, 64, 76
1, 118066, Control_c, 0, 64, 78
1, 118069, Note_off_c, 0, 44, 56
1, 118081, Control_c, 0, 64, 84
1, 118096, Control_c, 0, 64, 94
1, 118105, Note_on_c, 0, 53, 56
1, 118110, Control_c, 0, 64, 102
1, 118125, Control_c, 0, 64, 106
1, 118140, Control_c, 0, 64, 108
1, 118155, Control_c, 0, 64, 117
1, 118160, Note_off_c, 0, 71, 55
1, 118169, Control_c, 0, 64, 127
1, 118188, Note_off_c, 0, 53, 61
1, 118206, Note_on_c, 0, 44, 53
1, 118257, Note_off_c, 0, 44, 55
1, 118258, Control_c, 0, 67, 17
1, 118278, Note_on_c, 0, 71, 73
1, 118302, Control_c, 0, 67, 16
1, 118307, Note_on_c, 0, 53, 57
1, 118320, Note_off_c, 0, 71, 61
1, 118389, Note_off_c, 0, 53, 61
1, 118403, Note_on_c, 0, 44, 54
1, 118439, Note_on_c, 0, 71, 71
1, 118479, Note_off_c, 0, 44, 47
1, 118494, Note_off_c, 0, 62, 63
1, 118495, Note_off_c, 0, 71, 63
1, 118512, Note_on_c, 0, 53, 51
1, 118626, Note_off_c, 0, 53, 0
1, 118664, Poly_aftertouch_c, 0, 44, 127
1, 118664, Poly_aftertouch_c, 0, 53, 127
1, 118667, Control_c, 0, 67, 15
1, 118674, Poly_aftertouch_c, 0, 44, 0
1, 118681, Control_c, 0, 67, 14
1, 118690, Poly_aftertouch_c, 0, 53, 0
1, 118696, Control_c, 0, 67, 14
1, 118704, Note_on_c, 0, 44, 27
1, 118710, Note_on_c, 0, 71, 65
1, 118719, Note_on_c, 0, 63, 55
1, 118740, Control_c, 0, 64, 84
1, 118755, Control_c, 0, 64, 64
1, 118755, Control_c, 0, 67, 14
1, 118770, Control_c, 0, 64, 48
1, 118770, Control_c, 0, 67, 15
1, 118785, Control_c, 0, 64, 51
1, 118785, Control_c, 0, 67, 16
1, 118799, Control_c, 0, 64, 59
1, 118799, Control_c, 0, 67, 17
1, 118802, Note_off_c, 0, 44, 61
1, 118811, Note_on_c, 0, 54, 75
1, 118814, Control_c, 0, 64, 66
1, 118814, Control_c, 0, 67, 18
1, 118829, Control_c, 0, 64, 71
1, 118829, Control_c, 0, 67, 19
1, 118844, Control_c, 0, 64, 78
1, 118844, Control_c, 0, 67, 20
1, 118859, Control_c, 0, 64, 86
1, 118859, Control_c, 0, 67, 21
1, 118874, Control_c, 0, 64, 94
1, 118889, Control_c, 0, 64, 95
1, 118900, Note_off_c, 0, 54, 64
1, 118903, Note_on_c, 0, 44, 61
1, 118904, Control_c, 0, 64, 91
1, 118919, Control_c, 0, 64, 90
1, 118933, Control_c, 0, 64, 90
1, 118948, Control_c, 0, 64, 91
1, 118963, Control_c, 0, 67, 20
1, 118978, Control_c, 0, 64, 90
1, 118982, Note_off_c, 0, 44, 57
1, 118993, Control_c, 0, 64, 89
1, 118993, Control_c, 0, 67, 19
1, 118995, Note_on_c, 0, 54, 57
1, 119007, Control_c, 0, 64, 89
1, 119037, Control_c, 0, 64, 88
1, 119037, Control_c, 0, 67, 19
1, 119052, Control_c, 0, 64, 87
1, 119052, Control_c, 0, 67, 18
1, 119067, Control_c, 0, 64, 86
1, 119074, Note_off_c, 0, 54, 62
1, 119080, Note_on_c, 0, 44, 51
1, 119081, Control_c, 0, 64, 86
1, 119081, Control_c, 0, 67, 18
1, 119108, Note_on_c, 0, 70, 69
1, 119127, Control_c, 0, 64, 86
1, 119141, Note_off_c, 0, 71, 56
1, 119145, Note_off_c, 0, 44, 56
1, 119178, Control_c, 0, 64, 87
1, 119178, Control_c, 0, 67, 17
1, 119187, Note_off_c, 0, 63, 35
1, 119196, Note_on_c, 0, 54, 58
1, 119208, Control_c, 0, 67, 16
1, 119223, Control_c, 0, 64, 87
1, 119238, Control_c, 0, 64, 89
1, 119238, Control_c, 0, 67, 16
1, 119251, Note_off_c, 0, 54, 60
1, 119252, Control_c, 0, 64, 90
1, 119253, Note_on_c, 0, 63, 69
1, 119267, Control_c, 0, 64, 91
1, 119280, Note_on_c, 0, 44, 60
1, 119282, Control_c, 0, 64, 92
1, 119297, Note_off_c, 0, 70, 62
1, 119297, Control_c, 0, 64, 93
1, 119312, Control_c, 0, 64, 94
1, 119327, Control_c, 0, 64, 94
1, 119336, Note_off_c, 0, 44, 57
1, 119342, Control_c, 0, 64, 95
1, 119342, Control_c, 0, 67, 15
1, 119351, Note_on_c, 0, 54, 66
1, 119356, Control_c, 0, 64, 102
1, 119356, Control_c, 0, 67, 14
1, 119371, Control_c, 0, 64, 127
1, 119371, Control_c, 0, 67, 14
1, 119386, Control_c, 0, 67, 13
1, 119401, Control_c, 0, 67, 12
1, 119411, Note_off_c, 0, 63, 49
1, 119416, Control_c, 0, 67, 11
1, 119430, Control_c, 0, 67, 9
1, 119437, Note_on_c, 0, 44, 70
1, 119438, Note_off_c, 0, 54, 64
1, 119445, Control_c, 0, 67, 0
1, 119490, Control_c, 0, 64, 105
1, 119503, Note_on_c, 0, 73, 90
1, 119504, Control_c, 0, 64, 76
1, 119506, Note_on_c, 0, 64, 75
1, 119518, Note_off_c, 0, 44, 58
1, 119519, Control_c, 0, 64, 64
1, 119520, Note_on_c, 0, 55, 80
1, 119534, Control_c, 0, 64, 62
1, 119548, Control_c, 0, 64, 64
1, 119563, Control_c, 0, 64, 67
1, 119578, Control_c, 0, 64, 71
1, 119593, Control_c, 0, 64, 75
1, 119608, Control_c, 0, 64, 81
1, 119615, Note_on_c, 0, 44, 57
1, 119620, Note_off_c, 0, 55, 61
1, 119622, Control_c, 0, 64, 89
1, 119637, Control_c, 0, 64, 97
1, 119652, Control_c, 0, 64, 104
1, 119667, Control_c, 0, 64, 106
1, 119682, Control_c, 0, 64, 110
1, 119697, Note_off_c, 0, 44, 61
1, 119697, Control_c, 0, 64, 127
1, 119717, Note_on_c, 0, 55, 67
1, 119792, Note_off_c, 0, 55, 61
1, 119797, Note_off_c, 0, 73, 62
1, 119805, Note_on_c, 0, 44, 58
1, 119855, Note_off_c, 0, 44, 54
1, 119900, Note_on_c, 0, 55, 61
1, 119905, Note_on_c, 0, 73, 90
1, 119978, Note_off_c, 0, 73, 64
1, 119993, Note_on_c, 0, 44, 62
1, 119997, Note_off_c, 0, 55, 58
1, 120044, Note_on_c, 0, 73, 82
1, 120051, Note_off_c, 0, 44, 58
1, 120090, Note_on_c, 0, 55, 61
1, 120122, Note_off_c, 0, 73, 64
1, 120123, Note_off_c, 0, 64, 50
1, 120137, Note_off_c, 0, 55, 51
1, 120166, Note_on_c, 0, 44, 68
1, 120236, Note_off_c, 0, 44, 62
1, 120242, Note_on_c, 0, 55, 61
1, 120277, Note_off_c, 0, 55, 64
1, 120305, Note_on_c, 0, 44, 77
1, 120314, Control_c, 0, 64, 73
1, 120316, Note_on_c, 0, 73, 81
1, 120323, Note_on_c, 0, 65, 76
1, 120328, Control_c, 0, 64, 44
1, 120343, Control_c, 0, 64, 0
1, 120396, Note_off_c, 0, 44, 64
1, 120402, Control_c, 0, 64, 34
1, 120407, Note_on_c, 0, 56, 92
1, 120417, Control_c, 0, 64, 52
1, 120432, Control_c, 0, 64, 59
1, 120447, Control_c, 0, 64, 62
1, 120461, Control_c, 0, 64, 64
1, 120476, Control_c, 0, 64, 67
1, 120479, Note_off_c, 0, 56, 63
1, 120485, Note_on_c, 0, 44, 73
1, 120491, Control_c, 0, 64, 73
1, 120505, Control_c, 0, 64, 81
1, 120520, Control_c, 0, 64, 92
1, 120535, Control_c, 0, 64, 102
1, 120550, Control_c, 0, 64, 108
1, 120565, Control_c, 0, 64, 112
1, 120570, Note_off_c, 0, 44, 63
1, 120572, Note_on_c, 0, 56, 67
1, 120579, Control_c, 0, 64, 113
1, 120594, Control_c, 0, 64, 115
1, 120609, Control_c, 0, 64, 123
1, 120624, Control_c, 0, 64, 127
1, 120659, Note_off_c, 0, 56, 63
1, 120664, Note_on_c, 0, 44, 62
1, 120707, Note_on_c, 0, 72, 78
1, 120743, Note_off_c, 0, 44, 60
1, 120761, Note_on_c, 0, 56, 69
1, 120804, Note_off_c, 0, 73, 53
1, 120819, Note_on_c, 0, 77, 80
1, 120836, Note_off_c, 0, 56, 59
1, 120843, Note_on_c, 0, 44, 75
1, 120919, Note_on_c, 0, 56, 86
1, 120928, Note_off_c, 0, 44, 62
1, 120934, Note_off_c, 0, 77, 55
1, 120940, Note_off_c, 0, 65, 56
1, 121001, Note_off_c, 0, 56, 63
1, 121003, Note_on_c, 0, 44, 71
1, 121062, Control_c, 0, 64, 104
1, 121073, Note_on_c, 0, 64, 90
1, 121074, Note_on_c, 0, 55, 96
1, 121074, Note_on_c, 0, 73, 83
1, 121077, Control_c, 0, 64, 64
1, 121083, Note_off_c, 0, 44, 60
1, 121092, Control_c, 0, 64, 0
1, 121103, Note_off_c, 0, 72, 54
1, 121151, Control_c, 0, 64, 39
1, 121166, Control_c, 0, 64, 50
1, 121175, Note_off_c, 0, 55, 63
1, 121177, Note_on_c, 0, 44, 70
1, 121181, Control_c, 0, 64, 57
1, 121195, Control_c, 0, 64, 63
1, 121210, Control_c, 0, 64, 67
1, 121225, Control_c, 0, 64, 70
1, 121240, Control_c, 0, 64, 72
1, 121255, Control_c, 0, 64, 76
1, 121263, Note_off_c, 0, 44, 61
1, 121264, Note_on_c, 0, 55, 80
1, 121269, Control_c, 0, 64, 85
1, 121284, Control_c, 0, 64, 123
1, 121299, Control_c, 0, 64, 127
1, 121348, Note_off_c, 0, 55, 62
1, 121349, Note_on_c, 0, 44, 67
1, 121360, Note_off_c, 0, 73, 57
1, 121440, Note_on_c, 0, 55, 79
1, 121442, Note_off_c, 0, 44, 60
1, 121451, Note_on_c, 0, 73, 90
1, 121536, Note_off_c, 0, 73, 62
1, 121549, Note_on_c, 0, 44, 76
1, 121555, Note_off_c, 0, 55, 62
1, 121605, Note_on_c, 0, 73, 90
1, 121631, Note_on_c, 0, 55, 81
1, 121634, Note_off_c, 0, 44, 61
1, 121703, Note_off_c, 0, 55, 60
1, 121705, Note_off_c, 0, 73, 60
1, 121711, Note_on_c, 0, 44, 71
1, 121742, Note_off_c, 0, 64, 57
1, 121788, Note_on_c, 0, 55, 70
1, 121791, Note_off_c, 0, 44, 62
1, 121849, Note_off_c, 0, 55, 64
1, 121869, Note_on_c, 0, 44, 89
1, 121869, Note_on_c, 0, 73, 88
1, 121876, Note_on_c, 0, 65, 82
1, 121885, Control_c, 0, 64, 59
1, 121899, Control_c, 0, 64, 0
1, 121954, Note_on_c, 0, 56, 96
1, 121959, Control_c, 0, 64, 31
1, 121964, Note_off_c, 0, 44, 61
1, 121974, Control_c, 0, 64, 58
1, 121977, Poly_aftertouch_c, 0, 50, 127
1, 121989, Control_c, 0, 64, 64
1, 122004, Control_c, 0, 64, 69
1, 122018, Control_c, 0, 64, 77
1, 122033, Control_c, 0, 64, 98
1, 122034, Note_on_c, 0, 44, 75
1, 122042, Note_off_c, 0, 56, 65
1, 122048, Control_c, 0, 64, 127
1, 122127, Note_on_c, 0, 56, 86
1, 122143, Note_off_c, 0, 44, 62
1, 122205, Poly_aftertouch_c, 0, 50, 0
1, 122223, Note_on_c, 0, 44, 73
1, 122233, Note_off_c, 0, 56, 63
1, 122259, Note_on_c, 0, 72, 81
1, 122307, Note_on_c, 0, 56, 82
1, 122308, Note_off_c, 0, 65, 61
1, 122322, Note_off_c, 0, 44, 63
1, 122395, Note_on_c, 0, 65, 92
1, 122396, Note_off_c, 0, 56, 59
1, 122401, Note_on_c, 0, 44, 79
1, 122433, Note_off_c, 0, 72, 65
1, 122439, Note_off_c, 0, 73, 62
1, 122454, Note_off_c, 0, 65, 60
1, 122475, Note_on_c, 0, 56, 76
1, 122481, Note_off_c, 0, 44, 63
1, 122520, Poly_aftertouch_c, 0, 44, 0
1, 122528, Note_on_c, 0, 44, 70
1, 122570, Note_off_c, 0, 56, 62
1, 122674, Note_on_c, 0, 57, 86
1, 122691, Note_on_c, 0, 75, 92
1, 122693, Note_on_c, 0, 66, 95
1, 122699, Note_on_c, 0, 72, 85
1, 122705, Note_off_c, 0, 44, 58
1, 122707, Control_c, 0, 64, 114
1, 122722, Control_c, 0, 64, 65
1, 122737, Control_c, 0, 64, 0
1, 122796, Control_c, 0, 64, 40
1, 122811, Control_c, 0, 64, 61
1, 122826, Control_c, 0, 64, 68
1, 122840, Control_c, 0, 64, 75
1, 122846, Note_on_c, 0, 44, 74
1, 122855, Control_c, 0, 64, 83
1, 122870, Control_c, 0, 64, 94
1, 122871, Note_off_c, 0, 57, 58
1, 122885, Control_c, 0, 64, 127
1, 122910, Poly_aftertouch_c, 0, 47, 127
1, 122951, Note_on_c, 0, 51, 11
1, 122956, Note_on_c, 0, 57, 90
1, 122973, Note_off_c, 0, 72, 59
1, 122981, Note_off_c, 0, 75, 55
1, 122993, Note_off_c, 0, 44, 59
1, 122993, Note_off_c, 0, 66, 61
1, 123053, Poly_aftertouch_c, 0, 47, 0
1, 123065, Note_on_c, 0, 75, 106
1, 123068, Note_on_c, 0, 66, 100
1, 123069, Control_c, 0, 64, 78
1, 123071, Note_on_c, 0, 72, 91
1, 123072, Note_on_c, 0, 44, 82
1, 123084, Control_c, 0, 64, 64
1, 123090, Poly_aftertouch_c, 0, 47, 127
1, 123098, Note_off_c, 0, 57, 58
1, 123099, Control_c, 0, 64, 58
1, 123114, Control_c, 0, 64, 60
1, 123130, Control_c, 0, 64, 67
1, 123144, Control_c, 0, 64, 81
1, 123159, Control_c, 0, 64, 127
1, 123168, Poly_aftertouch_c, 0, 47, 0
1, 123179, Note_on_c, 0, 57, 91
1, 123205, Poly_aftertouch_c, 0, 47, 127
1, 123217, Note_off_c, 0, 44, 59
1, 123267, Poly_aftertouch_c, 0, 47, 0
1, 123272, Note_on_c, 0, 44, 82
1, 123289, Note_off_c, 0, 57, 63
1, 123300, Note_off_c, 0, 66, 53
1, 123301, Note_off_c, 0, 75, 56
1, 123304, Poly_aftertouch_c, 0, 47, 127
1, 123306, Note_off_c, 0, 72, 59
1, 123351, Control_c, 0, 64, 105
1, 123366, Control_c, 0, 64, 79
1, 123370, Note_on_c, 0, 75, 100
1, 123373, Note_on_c, 0, 66, 98
1, 123375, Note_on_c, 0, 72, 87
1, 123375, Note_on_c, 0, 57, 94
1, 123381, Control_c, 0, 64, 71
1, 123396, Control_c, 0, 64, 76
1, 123398, Note_off_c, 0, 51, 10
1, 123411, Control_c, 0, 64, 96
1, 123421, Note_off_c, 0, 44, 63
1, 123426, Control_c, 0, 64, 127
1, 123477, Note_on_c, 0, 44, 80
1, 123485, Note_off_c, 0, 57, 60
1, 123521, Note_off_c, 0, 66, 59
1, 123552, Note_off_c, 0, 72, 60
1, 123554, Note_off_c, 0, 75, 60
1, 123566, Note_on_c, 0, 57, 84
1, 123627, Note_off_c, 0, 44, 57
1, 123652, Note_off_c, 0, 57, 63
1, 123747, Note_on_c, 0, 75, 95
1, 123749, Note_on_c, 0, 57, 90
1, 123749, Note_on_c, 0, 66, 87
1, 123751, Note_on_c, 0, 44, 80
1, 123754, Note_on_c, 0, 72, 83
1, 123760, Control_c, 0, 64, 90
1, 123774, Control_c, 0, 64, 67
1, 123789, Control_c, 0, 64, 56
1, 123804, Control_c, 0, 64, 52
1, 123809, Poly_aftertouch_c, 0, 47, 0
1, 123819, Control_c, 0, 64, 56
1, 123834, Control_c, 0, 64, 65
1, 123849, Control_c, 0, 64, 86
1, 123864, Control_c, 0, 64, 127
1, 123921, Note_off_c, 0, 44, 61
1, 123947, Note_off_c, 0, 57, 61
1, 123948, Note_off_c, 0, 66, 62
1, 123961, Note_off_c, 0, 75, 62
1, 123962, Note_off_c, 0, 72, 63
1, 123989, Poly_aftertouch_c, 0, 52, 127
1, 124015, Poly_aftertouch_c, 0, 52, 0
1, 124137, Note_on_c, 0, 57, 103
1, 124139, Note_on_c, 0, 75, 99
1, 124140, Note_on_c, 0, 66, 96
1, 124142, Note_on_c, 0, 44, 84
1, 124144, Note_on_c, 0, 72, 90
1, 124145, Control_c, 0, 64, 88
1, 124160, Control_c, 0, 64, 68
1, 124175, Control_c, 0, 64, 59
1, 124190, Control_c, 0, 64, 59
1, 124205, Control_c, 0, 64, 65
1, 124219, Control_c, 0, 64, 85
1, 124234, Control_c, 0, 64, 127
1, 124262, Note_off_c, 0, 44, 63
1, 124284, Note_off_c, 0, 57, 60
1, 124320, Note_off_c, 0, 66, 59
1, 124349, Note_off_c, 0, 75, 56
1, 124353, Note_off_c, 0, 72, 60
1, 124375, Poly_aftertouch_c, 0, 49, 0
1, 124581, Note_on_c, 0, 66, 100
1, 124581, Note_on_c, 0, 76, 101
1, 124582, Note_on_c, 0, 56, 108
1, 124586, Note_on_c, 0, 72, 88
1, 124587, Note_on_c, 0, 44, 89
1, 124597, Control_c, 0, 64, 74
1, 124612, Control_c, 0, 64, 49
1, 124626, Control_c, 0, 64, 0
1, 124671, Control_c, 0, 64, 54
1, 124686, Control_c, 0, 64, 78
1, 124696, Note_off_c, 0, 44, 64
1, 124700, Control_c, 0, 64, 127
1, 124728, Note_off_c, 0, 56, 62
1, 124839, Note_off_c, 0, 66, 60
1, 124853, Note_off_c, 0, 76, 56
1, 124930, Note_off_c, 0, 72, 52
1, 125194, Note_on_c, 0, 77, 97
1, 125195, Note_on_c, 0, 61, 96
1, 125198, Note_on_c, 0, 56, 88
1, 125199, Note_on_c, 0, 49, 87
1, 125202, Note_on_c, 0, 65, 94
1, 125227, Control_c, 0, 64, 72
1, 125230, Note_on_c, 0, 73, 57
1, 125241, Control_c, 0, 64, 0
1, 125250, Note_off_c, 0, 73, 60
1, 125331, Control_c, 0, 64, 68
1, 125345, Control_c, 0, 64, 92
1, 125360, Control_c, 0, 64, 127
1, 125381, Note_off_c, 0, 65, 55
1, 125445, Note_off_c, 0, 49, 61
1, 125461, Note_off_c, 0, 61, 58
1, 125475, Note_off_c, 0, 56, 60
1, 125543, Note_on_c, 0, 73, 93
1, 125548, Note_on_c, 0, 56, 69
1, 125553, Note_on_c, 0, 61, 81
1, 125558, Note_on_c, 0, 49, 69
1, 125558, Note_on_c, 0, 65, 79
1, 125659, Note_off_c, 0, 65, 48
1, 125659, Note_off_c, 0, 77, 31
1, 125683, Note_off_c, 0, 49, 57
1, 125713, Note_off_c, 0, 56, 62
1, 125717, Note_off_c, 0, 61, 55
1, 125816, Note_on_c, 0, 68, 88
1, 125819, Note_on_c, 0, 49, 65
1, 125823, Note_on_c, 0, 65, 79
1, 125824, Note_on_c, 0, 61, 76
1, 125829, Note_on_c, 0, 56, 74
1, 125849, Note_off_c, 0, 73, 66
1, 125876, Note_off_c, 0, 68, 62
1, 125928, Note_off_c, 0, 61, 57
1, 125930, Note_off_c, 0, 65, 48
1, 126079, Control_c, 0, 64, 113
1, 126089, Note_on_c, 0, 61, 79
1, 126094, Control_c, 0, 64, 63
1, 126096, Note_on_c, 0, 54, 76
1, 126101, Note_off_c, 0, 49, 43
1, 126102, Note_on_c, 0, 70, 91
1, 126104, Note_on_c, 0, 66, 85
1, 126109, Control_c, 0, 64, 0
1, 126129, Note_off_c, 0, 56, 63
1, 126156, Note_off_c, 0, 61, 63
1, 126168, Control_c, 0, 64, 45
1, 126183, Control_c, 0, 64, 50
1, 126198, Control_c, 0, 64, 56
1, 126213, Control_c, 0, 64, 62
1, 126228, Control_c, 0, 64, 67
1, 126231, Note_off_c, 0, 54, 65
1, 126243, Control_c, 0, 64, 71
1, 126258, Control_c, 0, 64, 73
1, 126272, Control_c, 0, 64, 74
1, 126287, Control_c, 0, 64, 81
1, 126302, Control_c, 0, 64, 104
1, 126317, Control_c, 0, 64, 127
1, 126377, Note_on_c, 0, 42, 79
1, 126467, Note_off_c, 0, 42, 53
1, 126499, Note_off_c, 0, 66, 56
1, 126544, Note_off_c, 0, 70, 57
1, 126599, Note_on_c, 0, 30, 68
1, 126739, Note_on_c, 0, 65, 12
1, 126766, Note_on_c, 0, 68, 75
1, 126784, Control_c, 0, 64, 93
1, 126799, Control_c, 0, 64, 64
1, 126807, Note_off_c, 0, 68, 61
1, 126808, Note_on_c, 0, 70, 79
1, 126811, Note_on_c, 0, 37, 66
1, 126813, Note_off_c, 0, 30, 62
1, 126813, Control_c, 0, 64, 36
1, 126828, Control_c, 0, 64, 28
1, 126833, Note_off_c, 0, 65, 36
1, 126843, Control_c, 0, 64, 38
1, 126856, Note_off_c, 0, 37, 61
1, 126858, Control_c, 0, 64, 57
1, 126866, Note_on_c, 0, 68, 81
1, 126873, Control_c, 0, 64, 63
1, 126887, Note_off_c, 0, 70, 64
1, 126887, Control_c, 0, 64, 67
1, 126902, Control_c, 0, 64, 74
1, 126917, Control_c, 0, 64, 89
1, 126932, Control_c, 0, 64, 106
1, 126946, Control_c, 0, 64, 127
1, 126963, Note_off_c, 0, 68, 60
1, 127012, Note_on_c, 0, 67, 79
1, 127070, Note_off_c, 0, 67, 62
1, 127098, Note_on_c, 0, 61, 68
1, 127101, Note_on_c, 0, 56, 64
1, 127121, Note_on_c, 0, 68, 81
1, 127125, Note_on_c, 0, 49, 27
1, 127134, Note_off_c, 0, 61, 61
1, 127140, Note_off_c, 0, 56, 65
1, 127150, Note_off_c, 0, 68, 62
1, 127163, Note_off_c, 0, 49, 44
1, 127213, Note_on_c, 0, 70, 89
1, 127214, Note_on_c, 0, 56, 64
1, 127226, Note_on_c, 0, 61, 57
1, 127241, Note_off_c, 0, 56, 69
1, 127255, Note_off_c, 0, 61, 63
1, 127256, Note_off_c, 0, 70, 62
1, 127298, Poly_aftertouch_c, 0, 65, 0
1, 127310, Note_on_c, 0, 56, 69
1, 127312, Note_on_c, 0, 65, 33
1, 127319, Note_on_c, 0, 71, 77
1, 127322, Note_on_c, 0, 61, 62
1, 127325, Note_on_c, 0, 49, 54
1, 127341, Note_off_c, 0, 71, 70
1, 127355, Note_off_c, 0, 65, 59
1, 127355, Note_on_c, 0, 72, 35
1, 127355, Note_off_c, 0, 49, 65
1, 127362, Note_off_c, 0, 61, 58
1, 127363, Note_off_c, 0, 56, 63
1, 127386, Note_off_c, 0, 72, 53
1, 127402, Note_on_c, 0, 61, 68
1, 127415, Note_on_c, 0, 56, 59
1, 127416, Note_on_c, 0, 65, 66
1, 127423, Note_on_c, 0, 74, 64
1, 127426, Note_on_c, 0, 49, 70
1, 127439, Note_off_c, 0, 74, 64
1, 127441, Note_on_c, 0, 73, 81
1, 127448, Note_off_c, 0, 65, 64
1, 127465, Note_off_c, 0, 73, 68
1, 127480, Note_off_c, 0, 61, 59
1, 127492, Note_off_c, 0, 56, 62
1, 127525, Note_off_c, 0, 49, 0
1, 127532, Note_on_c, 0, 74, 80
1, 127533, Control_c, 0, 64, 98
1, 127537, Note_on_c, 0, 60, 82
1, 127539, Note_on_c, 0, 49, 50
1, 127539, Note_on_c, 0, 57, 83
1, 127548, Control_c, 0, 64, 70
1, 127560, Note_on_c, 0, 66, 66
1, 127562, Control_c, 0, 64, 57
1, 127577, Control_c, 0, 64, 50
1, 127592, Control_c, 0, 64, 51
1, 127607, Control_c, 0, 64, 59
1, 127622, Control_c, 0, 64, 66
1, 127636, Control_c, 0, 64, 75
1, 127651, Control_c, 0, 64, 127
1, 127696, Note_off_c, 0, 49, 59
1, 127696, Note_off_c, 0, 60, 62
1, 127703, Note_off_c, 0, 57, 65
1, 127712, Note_off_c, 0, 66, 62
1, 127740, Note_off_c, 0, 74, 61
1, 127769, Control_c, 0, 64, 93
1, 127784, Control_c, 0, 64, 69
1, 127788, Note_on_c, 0, 57, 64
1, 127788, Note_on_c, 0, 75, 89
1, 127791, Note_on_c, 0, 49, 61
1, 127793, Note_on_c, 0, 60, 77
1, 127798, Note_on_c, 0, 66, 86
1, 127799, Control_c, 0, 64, 61
1, 127814, Control_c, 0, 64, 61
1, 127829, Control_c, 0, 64, 65
1, 127843, Control_c, 0, 64, 78
1, 127858, Control_c, 0, 64, 127
1, 127927, Note_off_c, 0, 60, 58
1, 127950, Note_off_c, 0, 49, 59
1, 127959, Note_off_c, 0, 66, 59
1, 127971, Note_off_c, 0, 57, 63
1, 128022, Control_c, 0, 64, 75
1, 128024, Note_on_c, 0, 76, 101
1, 128031, Note_on_c, 0, 66, 91
1, 128036, Note_on_c, 0, 56, 77
1, 128037, Note_on_c, 0, 60, 79
1, 128037, Control_c, 0, 64, 58
1, 128040, Note_on_c, 0, 49, 63
1, 128052, Control_c, 0, 64, 50
1, 128067, Control_c, 0, 64, 56
1, 128082, Control_c, 0, 64, 66
1, 128097, Control_c, 0, 64, 88
1, 128101, Note_off_c, 0, 75, 0
1, 128112, Control_c, 0, 64, 127
1, 128121, Note_off_c, 0, 60, 60
1, 128138, Poly_aftertouch_c, 0, 75, 127
1, 128161, Note_off_c, 0, 49, 51
1, 128162, Note_on_c, 0, 75, 9
1, 128163, Note_off_c, 0, 66, 63
1, 128184, Note_off_c, 0, 56, 65
1, 128189, Note_off_c, 0, 76, 61
1, 128192, Note_off_c, 0, 75, 57
1, 128339, Note_on_c, 0, 56, 67
1, 128348, Note_on_c, 0, 61, 72
1, 128354, Note_on_c, 0, 77, 98
1, 128355, Note_on_c, 0, 49, 66
1, 128365, Note_on_c, 0, 65, 89
1, 128371, Control_c, 0, 64, 84
1, 128385, Control_c, 0, 64, 56
1, 128400, Control_c, 0, 64, 0
1, 128445, Control_c, 0, 64, 40
1, 128459, Control_c, 0, 64, 59
1, 128474, Control_c, 0, 64, 65
1, 128489, Control_c, 0, 64, 69
1, 128504, Control_c, 0, 64, 75
1, 128519, Control_c, 0, 64, 82
1, 128533, Control_c, 0, 64, 90
1, 128548, Control_c, 0, 64, 101
1, 128555, Note_off_c, 0, 49, 60
1, 128563, Note_off_c, 0, 61, 60
1, 128563, Control_c, 0, 64, 127
1, 128576, Note_off_c, 0, 65, 59
1, 128579, Note_off_c, 0, 56, 64
1, 128650, Note_on_c, 0, 73, 92
1, 128660, Note_on_c, 0, 56, 61
1, 128663, Note_on_c, 0, 65, 75
1, 128666, Note_on_c, 0, 61, 70
1, 128671, Note_on_c, 0, 49, 63
1, 128700, Note_off_c, 0, 77, 61
1, 128773, Note_off_c, 0, 61, 58
1, 128779, Note_off_c, 0, 56, 63
1, 128800, Note_off_c, 0, 49, 37
1, 128800, Note_off_c, 0, 65, 50
1, 128860, Control_c, 0, 64, 110
1, 128875, Control_c, 0, 64, 74
1, 128890, Control_c, 0, 64, 65
1, 128891, Note_on_c, 0, 49, 49
1, 128893, Note_on_c, 0, 68, 86
1, 128895, Note_on_c, 0, 56, 67
1, 128896, Note_on_c, 0, 61, 60
1, 128914, Note_on_c, 0, 65, 75
1, 128927, Control_c, 0, 64, 69
1, 128940, Note_off_c, 0, 73, 65
1, 128942, Control_c, 0, 64, 81
1, 128957, Control_c, 0, 64, 127
1, 128996, Note_off_c, 0, 61, 59
1, 129000, Note_off_c, 0, 68, 59
1, 129068, Note_off_c, 0, 65, 58
1, 129132, Note_on_c, 0, 61, 58
1, 129134, Control_c, 0, 64, 72
1, 129144, Note_on_c, 0, 54, 67
1, 129149, Control_c, 0, 64, 38
1, 129156, Note_on_c, 0, 70, 87
1, 129161, Note_on_c, 0, 66, 77
1, 129164, Control_c, 0, 64, 0
1, 129171, Note_off_c, 0, 56, 57
1, 129194, Control_c, 0, 64, 38
1, 129201, Note_off_c, 0, 61, 63
1, 129209, Control_c, 0, 64, 56
1, 129224, Control_c, 0, 64, 60
1, 129238, Control_c, 0, 64, 63
1, 129253, Control_c, 0, 64, 66
1, 129268, Control_c, 0, 64, 68
1, 129272, Note_off_c, 0, 54, 66
1, 129280, Note_off_c, 0, 49, 20
1, 129283, Control_c, 0, 64, 70
1, 129298, Control_c, 0, 64, 71
1, 129328, Control_c, 0, 64, 72
1, 129343, Control_c, 0, 64, 74
1, 129357, Control_c, 0, 64, 79
1, 129372, Control_c, 0, 64, 84
1, 129387, Control_c, 0, 64, 86
1, 129402, Control_c, 0, 64, 87
1, 129405, Note_on_c, 0, 42, 73
1, 129416, Control_c, 0, 64, 88
1, 129431, Control_c, 0, 64, 94
1, 129446, Control_c, 0, 64, 105
1, 129461, Control_c, 0, 64, 119
1, 129476, Control_c, 0, 64, 127
1, 129531, Note_off_c, 0, 42, 56
1, 129609, Note_off_c, 0, 66, 60
1, 129644, Note_on_c, 0, 30, 60
1, 129663, Note_off_c, 0, 70, 60
1, 129806, Note_on_c, 0, 68, 72
1, 129810, Control_c, 0, 64, 78
1, 129823, Note_off_c, 0, 30, 61
1, 129825, Note_on_c, 0, 37, 57
1, 129825, Control_c, 0, 64, 60
1, 129839, Control_c, 0, 64, 44
1, 129841, Note_off_c, 0, 68, 63
1, 129845, Note_on_c, 0, 70, 70
1, 129854, Control_c, 0, 64, 47
1, 129864, Note_off_c, 0, 37, 61
1, 129869, Control_c, 0, 64, 55
1, 129884, Control_c, 0, 64, 63
1, 129899, Control_c, 0, 64, 69
1, 129909, Note_on_c, 0, 68, 75
1, 129913, Note_off_c, 0, 70, 61
1, 129913, Control_c, 0, 64, 78
1, 129928, Control_c, 0, 64, 89
1, 129943, Control_c, 0, 64, 97
1, 129958, Control_c, 0, 64, 98
1, 129963, Poly_aftertouch_c, 0, 65, 127
1, 129973, Control_c, 0, 64, 96
1, 129995, Poly_aftertouch_c, 0, 65, 0
1, 129999, Note_off_c, 0, 68, 61
1, 130002, Control_c, 0, 64, 100
1, 130017, Control_c, 0, 64, 108
1, 130031, Control_c, 0, 64, 127
1, 130058, Note_on_c, 0, 67, 65
1, 130106, Note_off_c, 0, 67, 60
1, 130115, Note_on_c, 0, 56, 63
1, 130128, Note_on_c, 0, 49, 45
1, 130130, Note_on_c, 0, 61, 46
1, 130152, Note_off_c, 0, 56, 66
1, 130156, Note_off_c, 0, 61, 56
1, 130156, Note_off_c, 0, 49, 59
1, 130167, Note_on_c, 0, 68, 67
1, 130193, Note_off_c, 0, 68, 65
1, 130225, Note_on_c, 0, 61, 70
1, 130232, Note_on_c, 0, 56, 74
1, 130238, Note_on_c, 0, 49, 50
1, 130246, Note_on_c, 0, 70, 84
1, 130259, Note_off_c, 0, 56, 68
1, 130260, Note_off_c, 0, 49, 60
1, 130263, Note_off_c, 0, 61, 59
1, 130293, Note_off_c, 0, 70, 64
1, 130333, Note_on_c, 0, 49, 59
1, 130333, Note_on_c, 0, 65, 46
1, 130339, Note_on_c, 0, 72, 89
1, 130341, Note_on_c, 0, 61, 53
1, 130348, Note_on_c, 0, 56, 57
1, 130369, Note_off_c, 0, 65, 64
1, 130371, Note_off_c, 0, 56, 61
1, 130371, Note_off_c, 0, 61, 61
1, 130387, Note_off_c, 0, 72, 62
1, 130443, Note_on_c, 0, 73, 83
1, 130445, Note_on_c, 0, 56, 76
1, 130446, Poly_aftertouch_c, 0, 61, 0
1, 130454, Note_on_c, 0, 65, 66
1, 130476, Note_off_c, 0, 65, 62
1, 130482, Note_off_c, 0, 49, 62
1, 130482, Note_off_c, 0, 56, 63
1, 130502, Note_off_c, 0, 73, 64
1, 130553, Note_on_c, 0, 65, 69
1, 130555, Note_on_c, 0, 71, 85
1, 130559, Control_c, 0, 64, 79
1, 130573, Note_on_c, 0, 55, 67
1, 130574, Control_c, 0, 64, 64
1, 130576, Note_on_c, 0, 49, 50
1, 130588, Control_c, 0, 64, 53
1, 130603, Control_c, 0, 64, 48
1, 130618, Control_c, 0, 64, 48
1, 130633, Control_c, 0, 64, 56
1, 130648, Control_c, 0, 64, 64
1, 130662, Control_c, 0, 64, 71
1, 130677, Control_c, 0, 64, 92
1, 130692, Control_c, 0, 64, 127
1, 130693, Note_off_c, 0, 55, 57
1, 130705, Note_off_c, 0, 65, 57
1, 130726, Note_off_c, 0, 49, 63
1, 130766, Control_c, 0, 64, 118
1, 130780, Control_c, 0, 64, 76
1, 130795, Control_c, 0, 64, 61
1, 130798, Note_on_c, 0, 72, 81
1, 130806, Note_on_c, 0, 64, 64
1, 130808, Note_on_c, 0, 55, 57
1, 130810, Control_c, 0, 64, 51
1, 130811, Note_on_c, 0, 48, 47
1, 130840, Note_off_c, 0, 71, 60
1, 130840, Control_c, 0, 64, 54
1, 130854, Control_c, 0, 64, 60
1, 130869, Control_c, 0, 64, 65
1, 130872, Note_off_c, 0, 48, 57
1, 130878, Note_off_c, 0, 55, 61
1, 130884, Control_c, 0, 64, 73
1, 130899, Control_c, 0, 64, 91
1, 130911, Note_off_c, 0, 64, 60
1, 130914, Control_c, 0, 64, 127
1, 131048, Control_c, 0, 64, 94
1, 131062, Control_c, 0, 64, 65
1, 131066, Note_off_c, 0, 72, 56
1, 131067, Note_on_c, 0, 74, 61
1, 131077, Control_c, 0, 64, 41
1, 131083, Note_on_c, 0, 55, 31
1, 131091, Note_on_c, 0, 65, 41
1, 131092, Control_c, 0, 64, 28
1, 131093, Note_on_c, 0, 48, 38
1, 131108, Control_c, 0, 64, 24
1, 131116, Note_on_c, 0, 59, 50
1, 131122, Control_c, 0, 64, 25
1, 131137, Control_c, 0, 64, 35
1, 131159, Control_c, 0, 64, 53
1, 131174, Control_c, 0, 64, 63
1, 131189, Control_c, 0, 64, 70
1, 131194, Note_off_c, 0, 74, 62
1, 131204, Control_c, 0, 64, 79
1, 131210, Note_off_c, 0, 65, 55
1, 131219, Control_c, 0, 64, 83
1, 131221, Note_off_c, 0, 59, 62
1, 131233, Control_c, 0, 64, 87
1, 131239, Note_off_c, 0, 55, 50
1, 131248, Control_c, 0, 64, 95
1, 131253, Note_off_c, 0, 48, 38
1, 131263, Control_c, 0, 64, 113
1, 131278, Control_c, 0, 64, 127
1, 131471, Control_c, 0, 64, 81
1, 131485, Control_c, 0, 64, 55
1, 131487, Note_on_c, 0, 55, 23
1, 131496, Note_on_c, 0, 76, 46
1, 131500, Control_c, 0, 64, 0
1, 131504, Note_on_c, 0, 60, 14
1, 131510, Note_on_c, 0, 48, 32
1, 131519, Note_on_c, 0, 64, 39
1, 131589, Control_c, 0, 64, 27
1, 131602, Note_off_c, 0, 64, 47
1, 131603, Control_c, 0, 64, 40
1, 131618, Control_c, 0, 64, 45
1, 131621, Note_off_c, 0, 48, 45
1, 131633, Control_c, 0, 64, 51
1, 131637, Note_off_c, 0, 60, 48
1, 131638, Note_off_c, 0, 55, 49
1, 131648, Control_c, 0, 64, 55
1, 131663, Control_c, 0, 64, 58
1, 131677, Control_c, 0, 64, 60
1, 131692, Control_c, 0, 64, 61
1, 131707, Control_c, 0, 64, 63
1, 131722, Control_c, 0, 64, 64
1, 131737, Control_c, 0, 64, 65
1, 131751, Control_c, 0, 64, 66
1, 131766, Control_c, 0, 64, 67
1, 131781, Control_c, 0, 64, 68
1, 131796, Control_c, 0, 64, 71
1, 131800, Note_on_c, 0, 60, 45
1, 131800, Note_on_c, 0, 72, 44
1, 131805, Note_on_c, 0, 55, 30
1, 131811, Control_c, 0, 64, 75
1, 131821, Note_on_c, 0, 48, 31
1, 131826, Control_c, 0, 64, 77
1, 131831, Note_on_c, 0, 64, 10
1, 131841, Control_c, 0, 64, 77
1, 131871, Control_c, 0, 64, 79
1, 131875, Note_off_c, 0, 60, 48
1, 131877, Note_off_c, 0, 55, 52
1, 131883, Note_off_c, 0, 48, 40
1, 131885, Note_off_c, 0, 64, 43
1, 131885, Control_c, 0, 64, 81
1, 131908, Control_c, 0, 64, 85
1, 131924, Control_c, 0, 64, 88
1, 131939, Control_c, 0, 64, 89
1, 131954, Control_c, 0, 64, 90
1, 131969, Control_c, 0, 64, 92
1, 131983, Control_c, 0, 64, 96
1, 131998, Control_c, 0, 64, 101
1, 132000, Note_off_c, 0, 76, 31
1, 132013, Control_c, 0, 64, 103
1, 132028, Control_c, 0, 64, 105
1, 132042, Note_off_c, 0, 72, 56
1, 132042, Control_c, 0, 64, 107
1, 132047, Note_on_c, 0, 67, 54
1, 132056, Note_on_c, 0, 60, 43
1, 132057, Note_on_c, 0, 55, 40
1, 132057, Control_c, 0, 64, 116
1, 132064, Note_on_c, 0, 64, 42
1, 132065, Note_on_c, 0, 48, 34
1, 132072, Control_c, 0, 64, 127
1, 132108, Note_off_c, 0, 64, 54
1, 132111, Note_off_c, 0, 60, 51
1, 132115, Note_off_c, 0, 48, 53
1, 132133, Note_off_c, 0, 55, 55
1, 132234, Control_c, 0, 64, 90
1, 132241, Note_off_c, 0, 67, 38
1, 132249, Control_c, 0, 64, 63
1, 132264, Control_c, 0, 64, 37
1, 132277, Note_on_c, 0, 53, 60
1, 132279, Note_on_c, 0, 69, 53
1, 132279, Control_c, 0, 64, 34
1, 132294, Control_c, 0, 64, 37
1, 132299, Note_on_c, 0, 65, 38
1, 132309, Control_c, 0, 64, 50
1, 132324, Control_c, 0, 64, 58
1, 132327, Note_off_c, 0, 53, 63
1, 132339, Control_c, 0, 64, 64
1, 132354, Control_c, 0, 64, 71
1, 132368, Control_c, 0, 64, 80
1, 132383, Control_c, 0, 64, 86
1, 132398, Control_c, 0, 64, 85
1, 132413, Control_c, 0, 64, 83
1, 132427, Control_c, 0, 64, 83
1, 132442, Control_c, 0, 64, 86
1, 132457, Control_c, 0, 64, 91
1, 132472, Control_c, 0, 64, 94
1, 132502, Control_c, 0, 64, 95
1, 132516, Control_c, 0, 64, 99
1, 132520, Note_on_c, 0, 41, 53
1, 132531, Control_c, 0, 64, 105
1, 132546, Control_c, 0, 64, 111
1, 132561, Control_c, 0, 64, 113
1, 132567, Note_off_c, 0, 65, 60
1, 132575, Control_c, 0, 64, 118
1, 132589, Note_off_c, 0, 41, 58
1, 132590, Control_c, 0, 64, 127
1, 132638, Note_off_c, 0, 69, 53
1, 132750, Note_on_c, 0, 29, 46
1, 132882, Note_on_c, 0, 67, 62
1, 132909, Control_c, 0, 64, 74
1, 132913, Note_off_c, 0, 67, 65
1, 132918, Note_on_c, 0, 69, 66
1, 132924, Control_c, 0, 64, 58
1, 132938, Note_off_c, 0, 29, 51
1, 132938, Control_c, 0, 64, 53
1, 132941, Note_on_c, 0, 36, 51
1, 132953, Control_c, 0, 64, 56
1, 132968, Control_c, 0, 64, 62
1, 132971, Note_on_c, 0, 67, 74
1, 132978, Note_off_c, 0, 69, 58
1, 132979, Note_off_c, 0, 36, 63
1, 132983, Control_c, 0, 64, 65
1, 132998, Control_c, 0, 64, 69
1, 133012, Control_c, 0, 64, 76
1, 133027, Control_c, 0, 64, 86
1, 133042, Control_c, 0, 64, 96
1, 133057, Control_c, 0, 64, 97
1, 133072, Note_off_c, 0, 67, 61
1, 133072, Control_c, 0, 64, 94
1, 133087, Control_c, 0, 64, 92
1, 133102, Control_c, 0, 64, 94
1, 133115, Note_on_c, 0, 66, 55
1, 133117, Control_c, 0, 64, 98
1, 133131, Control_c, 0, 64, 102
1, 133146, Note_off_c, 0, 66, 63
1, 133176, Control_c, 0, 64, 103
1, 133191, Control_c, 0, 64, 105
1, 133215, Note_on_c, 0, 55, 59
1, 133218, Note_on_c, 0, 60, 59
1, 133218, Note_on_c, 0, 67, 64
1, 133220, Control_c, 0, 64, 104
1, 133230, Note_on_c, 0, 48, 37
1, 133232, Note_on_c, 0, 64, 50
1, 133235, Control_c, 0, 64, 103
1, 133248, Note_off_c, 0, 60, 64
1, 133248, Note_off_c, 0, 55, 65
1, 133250, Control_c, 0, 64, 103
1, 133250, Note_off_c, 0, 67, 61
1, 133254, Note_off_c, 0, 64, 60
1, 133264, Control_c, 0, 64, 105
1, 133265, Note_off_c, 0, 48, 47
1, 133321, Note_on_c, 0, 55, 63
1, 133323, Note_on_c, 0, 60, 65
1, 133324, Control_c, 0, 64, 106
1, 133328, Note_on_c, 0, 69, 59
1, 133333, Note_on_c, 0, 64, 57
1, 133338, Control_c, 0, 64, 111
1, 133348, Note_off_c, 0, 69, 62
1, 133349, Note_off_c, 0, 55, 67
1, 133349, Note_off_c, 0, 60, 64
1, 133351, Note_off_c, 0, 64, 65
1, 133353, Control_c, 0, 64, 121
1, 133368, Control_c, 0, 64, 127
1, 133418, Note_on_c, 0, 71, 75
1, 133424, Note_on_c, 0, 48, 22
1, 133427, Note_on_c, 0, 60, 66
1, 133429, Note_on_c, 0, 64, 61
1, 133436, Note_on_c, 0, 55, 63
1, 133450, Note_off_c, 0, 71, 61
1, 133452, Note_off_c, 0, 64, 61
1, 133453, Note_off_c, 0, 60, 65
1, 133462, Note_off_c, 0, 55, 67
1, 133507, Note_on_c, 0, 72, 75
1, 133513, Note_on_c, 0, 64, 72
1, 133517, Note_on_c, 0, 55, 78
1, 133519, Note_on_c, 0, 60, 60
1, 133538, Note_off_c, 0, 72, 61
1, 133541, Note_off_c, 0, 64, 66
1, 133545, Note_off_c, 0, 55, 67
1, 133546, Note_off_c, 0, 60, 65
1, 133560, Note_off_c, 0, 48, 55
1, 133583, Control_c, 0, 64, 85
1, 133598, Control_c, 0, 64, 65
1, 133605, Note_on_c, 0, 73, 83
1, 133613, Control_c, 0, 64, 51
1, 133622, Note_on_c, 0, 56, 68
1, 133623, Note_on_c, 0, 65, 70
1, 133623, Note_on_c, 0, 48, 42
1, 133626, Note_on_c, 0, 59, 60
1, 133627, Control_c, 0, 64, 52
1, 133642, Control_c, 0, 64, 56
1, 133657, Control_c, 0, 64, 62
1, 133672, Control_c, 0, 64, 66
1, 133686, Control_c, 0, 64, 74
1, 133701, Control_c, 0, 64, 104
1, 133716, Control_c, 0, 64, 127
1, 133750, Note_off_c, 0, 56, 62
1, 133752, Note_off_c, 0, 59, 62
1, 133758, Note_off_c, 0, 48, 58
1, 133766, Note_off_c, 0, 65, 57
1, 133790, Control_c, 0, 64, 85
1, 133805, Control_c, 0, 64, 78
1, 133820, Control_c, 0, 64, 85
1, 133835, Control_c, 0, 64, 107
1, 133841, Note_on_c, 0, 56, 50
1, 133843, Note_on_c, 0, 74, 89
1, 133850, Control_c, 0, 64, 127
1, 133857, Note_on_c, 0, 48, 51
1, 133857, Note_on_c, 0, 65, 78
1, 133865, Note_on_c, 0, 59, 66
1, 133891, Note_off_c, 0, 73, 64
1, 133925, Note_off_c, 0, 65, 57
1, 133937, Note_off_c, 0, 48, 58
1, 133937, Note_off_c, 0, 59, 58
1, 133939, Note_off_c, 0, 56, 63
1, 134057, Control_c, 0, 64, 91
1, 134058, Note_on_c, 0, 75, 79
1, 134064, Note_on_c, 0, 59, 67
1, 134065, Note_on_c, 0, 65, 73
1, 134071, Note_on_c, 0, 55, 51
1, 134072, Control_c, 0, 64, 72
1, 134076, Note_on_c, 0, 48, 53
1, 134081, Note_off_c, 0, 74, 58
1, 134086, Control_c, 0, 64, 63
1, 134101, Control_c, 0, 64, 62
1, 134116, Control_c, 0, 64, 65
1, 134131, Control_c, 0, 64, 72
1, 134153, Control_c, 0, 64, 93
1, 134168, Control_c, 0, 64, 127
1, 134172, Note_off_c, 0, 59, 59
1, 134185, Note_off_c, 0, 48, 38
1, 134199, Note_off_c, 0, 55, 61
1, 134199, Note_off_c, 0, 65, 59
1, 134220, Note_off_c, 0, 75, 60
1, 134286, Control_c, 0, 64, 83
1, 134302, Control_c, 0, 64, 61
1, 134309, Note_on_c, 0, 60, 53
1, 134309, Note_on_c, 0, 76, 67
1, 134317, Control_c, 0, 64, 23
1, 134319, Note_on_c, 0, 55, 55
1, 134321, Note_on_c, 0, 48, 44
1, 134332, Control_c, 0, 64, 13
1, 134333, Note_on_c, 0, 64, 51
1, 134347, Control_c, 0, 64, 29
1, 134362, Control_c, 0, 64, 51
1, 134376, Control_c, 0, 64, 58
1, 134391, Control_c, 0, 64, 63
1, 134402, Note_off_c, 0, 60, 56
1, 134406, Control_c, 0, 64, 67
1, 134420, Note_off_c, 0, 55, 61
1, 134421, Control_c, 0, 64, 72
1, 134427, Note_off_c, 0, 64, 53
1, 134435, Control_c, 0, 64, 75
1, 134449, Note_off_c, 0, 48, 37
1, 134480, Control_c, 0, 64, 77
1, 134495, Control_c, 0, 64, 82
1, 134509, Control_c, 0, 64, 91
1, 134524, Control_c, 0, 64, 99
1, 134534, Note_on_c, 0, 48, 39
1, 134536, Note_on_c, 0, 72, 55
1, 134539, Note_on_c, 0, 60, 52
1, 134539, Control_c, 0, 64, 101
1, 134542, Note_on_c, 0, 64, 31
1, 134547, Note_on_c, 0, 55, 53
1, 134569, Control_c, 0, 64, 102
1, 134583, Control_c, 0, 64, 113
1, 134598, Control_c, 0, 64, 127
1, 134601, Note_off_c, 0, 55, 55
1, 134614, Note_off_c, 0, 60, 46
1, 134704, Note_off_c, 0, 76, 29
1, 134713, Note_off_c, 0, 64, 32
1, 134716, Note_off_c, 0, 48, 0
1, 134753, Poly_aftertouch_c, 0, 48, 127
1, 134754, Note_on_c, 0, 67, 55
1, 134761, Note_on_c, 0, 55, 45
1, 134763, Note_on_c, 0, 60, 47
1, 134769, Note_off_c, 0, 72, 60
1, 134772, Note_on_c, 0, 64, 27
1, 134800, Poly_aftertouch_c, 0, 48, 0
1, 134816, Note_off_c, 0, 64, 60
1, 134816, Note_off_c, 0, 67, 61
1, 134825, Note_off_c, 0, 55, 63
1, 134846, Note_off_c, 0, 60, 56
1, 134962, Control_c, 0, 64, 87
1, 134976, Control_c, 0, 64, 72
1, 134986, Note_on_c, 0, 74, 70
1, 134991, Control_c, 0, 64, 66
1, 134995, Note_on_c, 0, 56, 55
1, 134998, Note_on_c, 0, 59, 55
1, 135006, Control_c, 0, 64, 65
1, 135007, Note_on_c, 0, 65, 54
1, 135021, Control_c, 0, 64, 68
1, 135035, Control_c, 0, 64, 76
1, 135050, Control_c, 0, 64, 110
1, 135065, Control_c, 0, 64, 127
1, 135090, Note_off_c, 0, 65, 61
1, 135140, Control_c, 0, 64, 89
1, 135155, Control_c, 0, 64, 71
1, 135170, Control_c, 0, 64, 64
1, 135185, Control_c, 0, 64, 64
1, 135194, Note_on_c, 0, 75, 88
1, 135199, Control_c, 0, 64, 67
1, 135201, Note_on_c, 0, 66, 77
1, 135206, Note_on_c, 0, 57, 54
1, 135214, Control_c, 0, 64, 75
1, 135216, Note_on_c, 0, 60, 61
1, 135220, Note_off_c, 0, 74, 61
1, 135229, Control_c, 0, 64, 99
1, 135235, Note_off_c, 0, 59, 55
1, 135244, Control_c, 0, 64, 127
1, 135251, Note_off_c, 0, 56, 63
1, 135268, Note_off_c, 0, 57, 63
1, 135314, Note_off_c, 0, 66, 60
1, 135362, Control_c, 0, 64, 104
1, 135377, Control_c, 0, 64, 77
1, 135391, Note_on_c, 0, 77, 92
1, 135392, Control_c, 0, 64, 65
1, 135399, Note_on_c, 0, 62, 67
1, 135399, Note_off_c, 0, 75, 62
1, 135400, Note_on_c, 0, 68, 78
1, 135403, Note_on_c, 0, 59, 58
1, 135406, Control_c, 0, 64, 63
1, 135411, Note_off_c, 0, 60, 58
1, 135421, Control_c, 0, 64, 64
1, 135436, Control_c, 0, 64, 69
1, 135451, Control_c, 0, 64, 80
1, 135466, Control_c, 0, 64, 127
1, 135497, Note_off_c, 0, 77, 61
1, 135533, Note_off_c, 0, 68, 57
1, 135602, Note_off_c, 0, 59, 54
1, 135614, Control_c, 0, 64, 111
1, 135621, Note_on_c, 0, 78, 77
1, 135626, Note_on_c, 0, 63, 59
1, 135629, Note_on_c, 0, 69, 69
1, 135629, Control_c, 0, 64, 73
1, 135637, Note_on_c, 0, 60, 58
1, 135650, Control_c, 0, 64, 59
1, 135654, Note_off_c, 0, 62, 50
1, 135665, Control_c, 0, 64, 45
1, 135680, Control_c, 0, 64, 44
1, 135695, Control_c, 0, 64, 50
1, 135710, Control_c, 0, 64, 59
1, 135725, Control_c, 0, 64, 62
1, 135740, Control_c, 0, 64, 64
1, 135755, Control_c, 0, 64, 65
1, 135766, Note_off_c, 0, 60, 61
1, 135770, Control_c, 0, 64, 67
1, 135776, Note_off_c, 0, 69, 54
1, 135777, Note_off_c, 0, 63, 58
1, 135785, Control_c, 0, 64, 70
1, 135799, Control_c, 0, 64, 77
1, 135814, Control_c, 0, 64, 87
1, 135829, Control_c, 0, 64, 105
1, 135844, Control_c, 0, 64, 127
1, 135847, Note_on_c, 0, 75, 78
1, 135859, Note_on_c, 0, 60, 62
1, 135866, Note_on_c, 0, 63, 59
1, 135919, Poly_aftertouch_c, 0, 77, 127
1, 135939, Note_off_c, 0, 60, 59
1, 135941, Note_off_c, 0, 63, 52
1, 136041, Note_on_c, 0, 60, 61
1, 136048, Note_on_c, 0, 63, 72
1, 136052, Note_on_c, 0, 69, 72
1, 136083, Poly_aftertouch_c, 0, 77, 0
1, 136085, Note_off_c, 0, 60, 62
1, 136108, Note_off_c, 0, 63, 63
1, 136127, Note_off_c, 0, 78, 61
1, 136131, Note_off_c, 0, 69, 62
1, 136229, Control_c, 0, 64, 96
1, 136244, Control_c, 0, 64, 72
1, 136259, Control_c, 0, 64, 63
1, 136261, Note_on_c, 0, 59, 69
1, 136261, Note_on_c, 0, 77, 84
1, 136262, Note_on_c, 0, 62, 74
1, 136267, Note_on_c, 0, 68, 83
1, 136273, Control_c, 0, 64, 62
1, 136279, Note_off_c, 0, 75, 62
1, 136288, Control_c, 0, 64, 64
1, 136303, Control_c, 0, 64, 71
1, 136318, Control_c, 0, 64, 106
1, 136333, Control_c, 0, 64, 127
1, 136402, Note_off_c, 0, 68, 58
1, 136415, Control_c, 0, 64, 94
1, 136429, Control_c, 0, 64, 72
1, 136444, Control_c, 0, 64, 64
1, 136459, Control_c, 0, 64, 65
1, 136471, Note_on_c, 0, 63, 91
1, 136472, Note_on_c, 0, 69, 88
1, 136473, Note_on_c, 0, 60, 77
1, 136473, Note_on_c, 0, 78, 89
1, 136473, Control_c, 0, 64, 71
1, 136488, Control_c, 0, 64, 89
1, 136503, Control_c, 0, 64, 127
1, 136506, Note_off_c, 0, 77, 62
1, 136519, Note_off_c, 0, 62, 60
1, 136548, Note_off_c, 0, 59, 50
1, 136582, Note_off_c, 0, 69, 57
1, 136667, Control_c, 0, 64, 106
1, 136671, Note_on_c, 0, 65, 88
1, 136672, Note_on_c, 0, 80, 94
1, 136673, Note_on_c, 0, 71, 93
1, 136677, Note_on_c, 0, 62, 86
1, 136681, Control_c, 0, 64, 71
1, 136697, Control_c, 0, 64, 57
1, 136712, Control_c, 0, 64, 58
1, 136724, Note_off_c, 0, 78, 58
1, 136725, Note_off_c, 0, 60, 59
1, 136727, Control_c, 0, 64, 64
1, 136741, Control_c, 0, 64, 74
1, 136756, Note_off_c, 0, 63, 32
1, 136756, Control_c, 0, 64, 127
1, 136798, Note_off_c, 0, 71, 58
1, 136799, Note_off_c, 0, 80, 65
1, 136825, Note_off_c, 0, 65, 61
1, 136952, Note_on_c, 0, 72, 84
1, 136954, Note_on_c, 0, 81, 86
1, 136956, Note_on_c, 0, 66, 87
1, 136958, Note_on_c, 0, 63, 80
1, 136978, Control_c, 0, 64, 92
1, 136993, Control_c, 0, 64, 63
1, 137008, Control_c, 0, 64, 0
1, 137011, Note_off_c, 0, 62, 61
1, 137082, Control_c, 0, 64, 46
1, 137096, Control_c, 0, 64, 56
1, 137111, Control_c, 0, 64, 57
1, 137126, Control_c, 0, 64, 60
1, 137149, Control_c, 0, 64, 63
1, 137164, Control_c, 0, 64, 69
1, 137178, Control_c, 0, 64, 74
1, 137193, Control_c, 0, 64, 80
1, 137203, Note_off_c, 0, 66, 59
1, 137208, Control_c, 0, 64, 92
1, 137219, Note_off_c, 0, 81, 58
1, 137222, Control_c, 0, 64, 127
1, 137228, Note_off_c, 0, 72, 62
1, 137233, Note_off_c, 0, 63, 62
1, 137329, Note_on_c, 0, 81, 82
1, 137333, Note_on_c, 0, 72, 82
1, 137335, Note_on_c, 0, 63, 64
1, 137335, Note_on_c, 0, 66, 65
1, 137335, Note_on_c, 0, 69, 81
1, 137531, Note_off_c, 0, 69, 63
1, 137531, Note_off_c, 0, 72, 65
1, 137534, Note_off_c, 0, 81, 61
1, 137540, Note_off_c, 0, 66, 62
1, 137543, Note_off_c, 0, 63, 64
1, 137601, Note_on_c, 0, 69, 92
1, 137603, Note_on_c, 0, 72, 94
1, 137604, Note_on_c, 0, 66, 83
1, 137605, Note_on_c, 0, 81, 82
1, 137606, Note_on_c, 0, 63, 73
1, 137756, Note_off_c, 0, 81, 62
1, 137761, Note_off_c, 0, 69, 61
1, 137768, Note_off_c, 0, 72, 62
1, 137770, Note_off_c, 0, 66, 62
1, 137777, Note_off_c, 0, 63, 65
1, 137829, Note_on_c, 0, 63, 77
1, 137830, Note_on_c, 0, 66, 84
1, 137835, Note_on_c, 0, 72, 101
1, 137838, Note_on_c, 0, 69, 99
1, 137840, Note_on_c, 0, 81, 90
1, 137974, Note_off_c, 0, 81, 61
1, 137976, Note_off_c, 0, 72, 62
1, 137978, Note_off_c, 0, 69, 61
1, 137998, Note_off_c, 0, 66, 61
1, 138008, Note_off_c, 0, 63, 63
1, 138053, Note_on_c, 0, 69, 110
1, 138055, Note_on_c, 0, 72, 101
1, 138058, Note_on_c, 0, 66, 88
1, 138059, Note_on_c, 0, 63, 84
1, 138059, Note_on_c, 0, 81, 91
1, 138105, Control_c, 0, 64, 87
1, 138119, Control_c, 0, 64, 75
1, 138134, Control_c, 0, 64, 77
1, 138149, Control_c, 0, 64, 101
1, 138164, Control_c, 0, 64, 127
1, 138195, Note_off_c, 0, 72, 66
1, 138218, Note_off_c, 0, 81, 62
1, 138227, Note_off_c, 0, 69, 61
1, 138244, Note_off_c, 0, 66, 59
1, 138307, Note_on_c, 0, 66, 91
1, 138308, Note_on_c, 0, 69, 99
1, 138308, Note_on_c, 0, 81, 92
1, 138309, Note_on_c, 0, 61, 90
1, 138312, Note_on_c, 0, 73, 96
1, 138323, Note_on_c, 0, 67, 60
1, 138324, Note_off_c, 0, 67, 127
1, 138328, Control_c, 0, 64, 81
1, 138333, Note_off_c, 0, 63, 59
1, 138342, Control_c, 0, 64, 63
1, 138357, Control_c, 0, 64, 49
1, 138372, Control_c, 0, 64, 49
1, 138387, Control_c, 0, 64, 59
1, 138402, Control_c, 0, 64, 71
1, 138417, Control_c, 0, 64, 102
1, 138432, Control_c, 0, 64, 127
1, 138636, Note_off_c, 0, 69, 49
1, 138638, Note_off_c, 0, 81, 47
1, 138673, Note_off_c, 0, 66, 60
1, 138735, Note_on_c, 0, 66, 91
1, 138736, Note_on_c, 0, 69, 96
1, 138736, Note_on_c, 0, 76, 84
1, 138736, Note_on_c, 0, 60, 75
1, 138736, Note_on_c, 0, 81, 84
1, 138750, Control_c, 0, 64, 79
1, 138765, Control_c, 0, 64, 63
1, 138780, Control_c, 0, 64, 45
1, 138783, Note_off_c, 0, 73, 60
1, 138795, Control_c, 0, 64, 0
1, 138807, Note_off_c, 0, 61, 54
1, 139478, Note_on_c, 0, 75, 90
1, 139543, Note_off_c, 0, 76, 56
1, 139647, Control_c, 0, 64, 27
1, 139662, Control_c, 0, 64, 48
1, 139677, Control_c, 0, 64, 53
1, 139721, Control_c, 0, 64, 56
1, 139736, Control_c, 0, 64, 62
1, 139751, Control_c, 0, 64, 64
1, 139765, Control_c, 0, 64, 65
1, 139780, Control_c, 0, 64, 66
1, 139795, Control_c, 0, 64, 67
1, 139810, Control_c, 0, 64, 70
1, 139825, Control_c, 0, 64, 76
1, 139840, Control_c, 0, 64, 84
1, 139854, Control_c, 0, 64, 94
1, 139869, Control_c, 0, 64, 115
1, 139884, Control_c, 0, 64, 127
1, 139931, Note_off_c, 0, 81, 50
1, 139996, Note_off_c, 0, 69, 60
1, 140382, Note_on_c, 0, 80, 87
1, 140387, Note_on_c, 0, 68, 88
1, 140390, Note_on_c, 0, 78, 86
1, 140411, Control_c, 0, 64, 95
1, 140426, Control_c, 0, 64, 69
1, 140440, Control_c, 0, 64, 59
1, 140455, Control_c, 0, 64, 51
1, 140470, Control_c, 0, 64, 47
1, 140485, Control_c, 0, 64, 46
1, 140514, Control_c, 0, 64, 48
1, 140529, Control_c, 0, 64, 51
1, 140544, Control_c, 0, 64, 53
1, 140559, Control_c, 0, 64, 55
1, 140574, Control_c, 0, 64, 56
1, 140588, Control_c, 0, 64, 57
1, 140603, Control_c, 0, 64, 59
1, 140618, Control_c, 0, 64, 61
1, 140633, Control_c, 0, 64, 63
1, 140647, Control_c, 0, 64, 64
1, 140662, Control_c, 0, 64, 65
1, 140677, Control_c, 0, 64, 65
1, 140693, Control_c, 0, 64, 67
1, 140708, Control_c, 0, 64, 69
1, 140723, Control_c, 0, 64, 71
1, 140737, Control_c, 0, 64, 71
1, 140767, Control_c, 0, 64, 73
1, 140782, Control_c, 0, 64, 79
1, 140797, Control_c, 0, 64, 85
1, 140811, Control_c, 0, 64, 89
1, 140826, Control_c, 0, 64, 93
1, 140841, Control_c, 0, 64, 98
1, 140856, Control_c, 0, 64, 112
1, 140870, Control_c, 0, 64, 127
1, 140941, Note_off_c, 0, 66, 57
1, 140953, Note_off_c, 0, 60, 34
1, 141693, Note_on_c, 0, 60, 94
1, 141694, Note_on_c, 0, 48, 86
1, 141716, Control_c, 0, 64, 82
1, 141731, Control_c, 0, 64, 67
1, 141746, Control_c, 0, 64, 63
1, 141761, Control_c, 0, 64, 64
1, 141775, Control_c, 0, 64, 67
1, 141790, Control_c, 0, 64, 75
1, 141805, Control_c, 0, 64, 92
1, 141820, Control_c, 0, 64, 127
1, 141945, Note_off_c, 0, 60, 63
1, 141965, Note_off_c, 0, 48, 62
1, 142012, Control_c, 0, 64, 109
1, 142027, Control_c, 0, 64, 87
1, 142041, Control_c, 0, 64, 85
1, 142055, Note_on_c, 0, 61, 97
1, 142056, Control_c, 0, 64, 110
1, 142062, Note_on_c, 0, 49, 91
1, 142071, Control_c, 0, 64, 127
1, 142202, Note_off_c, 0, 49, 63
1, 142204, Note_off_c, 0, 61, 60
1, 142279, Note_on_c, 0, 62, 93
1, 142287, Note_on_c, 0, 50, 79
1, 142299, Note_on_c, 0, 48, 75
1, 142300, Note_off_c, 0, 48, 127
1, 142346, Note_off_c, 0, 50, 64
1, 142354, Note_off_c, 0, 62, 62
1, 142396, Poly_aftertouch_c, 0, 60, 0
1, 142397, Note_on_c, 0, 48, 25
1, 142422, Note_off_c, 0, 48, 59
1, 142566, Note_on_c, 0, 64, 99
1, 142572, Note_on_c, 0, 52, 85
1, 142598, Control_c, 0, 64, 103
1, 142613, Control_c, 0, 64, 69
1, 142628, Control_c, 0, 64, 47
1, 142635, Note_off_c, 0, 68, 59
1, 142643, Control_c, 0, 64, 0
1, 142651, Note_off_c, 0, 75, 59
1, 142655, Note_off_c, 0, 78, 56
1, 142664, Note_off_c, 0, 80, 56
1, 142849, Control_c, 0, 64, 25
1, 142864, Control_c, 0, 64, 35
1, 142879, Control_c, 0, 64, 37
1, 142924, Control_c, 0, 64, 39
1, 142939, Control_c, 0, 64, 45
1, 142954, Control_c, 0, 64, 46
1, 142983, Control_c, 0, 64, 46
1, 142998, Control_c, 0, 64, 49
1, 143013, Control_c, 0, 64, 54
1, 143028, Control_c, 0, 64, 55
1, 143072, Control_c, 0, 64, 56
1, 143088, Control_c, 0, 64, 59
1, 143103, Control_c, 0, 64, 60
1, 143184, Control_c, 0, 64, 61
1, 143199, Control_c, 0, 64, 61
1, 143243, Control_c, 0, 64, 62
1, 143302, Control_c, 0, 64, 63
1, 143317, Control_c, 0, 64, 63
1, 143332, Control_c, 0, 64, 64
1, 143377, Control_c, 0, 64, 64
1, 143392, Control_c, 0, 64, 66
1, 143407, Control_c, 0, 64, 67
1, 143421, Control_c, 0, 64, 69
1, 143436, Control_c, 0, 64, 70
1, 143451, Control_c, 0, 64, 70
1, 143465, Control_c, 0, 64, 71
1, 143480, Control_c, 0, 64, 73
1, 143495, Control_c, 0, 64, 75
1, 143510, Control_c, 0, 64, 77
1, 143525, Control_c, 0, 64, 80
1, 143539, Control_c, 0, 64, 82
1, 143554, Control_c, 0, 64, 85
1, 143569, Control_c, 0, 64, 88
1, 143584, Control_c, 0, 64, 91
1, 143599, Control_c, 0, 64, 93
1, 143613, Control_c, 0, 64, 97
1, 143628, Control_c, 0, 64, 101
1, 143643, Control_c, 0, 64, 108
1, 143657, Control_c, 0, 64, 127
1, 143850, Note_off_c, 0, 64, 55
1, 144080, Note_on_c, 0, 51, 74
1, 144083, Note_on_c, 0, 63, 90
1, 144110, Control_c, 0, 64, 121
1, 144125, Control_c, 0, 64, 82
1, 144140, Control_c, 0, 64, 67
1, 144155, Control_c, 0, 64, 64
1, 144170, Control_c, 0, 64, 65
1, 144185, Control_c, 0, 64, 68
1, 144200, Control_c, 0, 64, 77
1, 144215, Control_c, 0, 64, 102
1, 144224, Note_off_c, 0, 52, 53
1, 144229, Control_c, 0, 64, 127
1, 144311, Note_off_c, 0, 63, 58
1, 144451, Control_c, 0, 64, 113
1, 144456, Note_on_c, 0, 61, 95
1, 144463, Note_on_c, 0, 49, 80
1, 144466, Control_c, 0, 64, 80
1, 144481, Control_c, 0, 64, 67
1, 144495, Control_c, 0, 64, 62
1, 144510, Control_c, 0, 64, 63
1, 144525, Control_c, 0, 64, 68
1, 144532, Note_off_c, 0, 51, 60
1, 144540, Control_c, 0, 64, 83
1, 144555, Control_c, 0, 64, 127
1, 144614, Control_c, 0, 64, 107
1, 144636, Control_c, 0, 64, 75
1, 144650, Control_c, 0, 64, 65
1, 144665, Control_c, 0, 64, 64
1, 144680, Control_c, 0, 64, 68
1, 144681, Note_off_c, 0, 61, 62
1, 144696, Control_c, 0, 64, 79
1, 144711, Control_c, 0, 64, 127
1, 144722, Note_off_c, 0, 49, 64
1, 144739, Note_on_c, 0, 60, 84
1, 144747, Note_on_c, 0, 48, 81
1, 144822, Note_off_c, 0, 60, 62
1, 144858, Note_off_c, 0, 48, 63
1, 144948, Control_c, 0, 64, 96
1, 144963, Control_c, 0, 64, 73
1, 144972, Note_on_c, 0, 57, 87
1, 144972, Note_on_c, 0, 45, 76
1, 144978, Control_c, 0, 64, 63
1, 144992, Control_c, 0, 64, 62
1, 145007, Control_c, 0, 64, 67
1, 145022, Control_c, 0, 64, 81
1, 145037, Control_c, 0, 64, 127
1, 145093, Note_off_c, 0, 57, 65
1, 145110, Control_c, 0, 64, 89
1, 145117, Note_on_c, 0, 47, 20
1, 145125, Control_c, 0, 64, 72
1, 145140, Control_c, 0, 64, 68
1, 145155, Control_c, 0, 64, 76
1, 145162, Note_off_c, 0, 47, 37
1, 145163, Note_on_c, 0, 56, 93
1, 145165, Note_on_c, 0, 44, 84
1, 145170, Control_c, 0, 64, 127
1, 145199, Note_off_c, 0, 45, 57
1, 145258, Control_c, 0, 64, 114
1, 145273, Control_c, 0, 64, 78
1, 145288, Control_c, 0, 64, 71
1, 145297, Note_off_c, 0, 56, 63
1, 145303, Control_c, 0, 64, 80
1, 145317, Control_c, 0, 64, 127
1, 145349, Note_on_c, 0, 55, 95
1, 145355, Note_on_c, 0, 43, 80
1, 145384, Control_c, 0, 64, 123
1, 145395, Note_off_c, 0, 44, 64
1, 145398, Control_c, 0, 64, 75
1, 145413, Control_c, 0, 64, 64
1, 145428, Control_c, 0, 64, 66
1, 145443, Control_c, 0, 64, 79
1, 145456, Note_off_c, 0, 55, 61
1, 145458, Control_c, 0, 64, 127
1, 145478, Note_off_c, 0, 43, 62
1, 145532, Note_on_c, 0, 56, 106
1, 145538, Note_on_c, 0, 44, 86
1, 145588, Note_off_c, 0, 56, 64
1, 145589, Note_off_c, 0, 44, 64
1, 145755, Control_c, 0, 64, 96
1, 145770, Control_c, 0, 64, 72
1, 145785, Control_c, 0, 64, 61
1, 145790, Note_on_c, 0, 59, 94
1, 145794, Note_on_c, 0, 47, 89
1, 145800, Control_c, 0, 64, 55
1, 145814, Control_c, 0, 64, 54
1, 145829, Control_c, 0, 64, 57
1, 145844, Control_c, 0, 64, 62
1, 145859, Control_c, 0, 64, 65
1, 145874, Control_c, 0, 64, 68
1, 145888, Control_c, 0, 64, 77
1, 145903, Control_c, 0, 64, 112
1, 145918, Control_c, 0, 64, 127
1, 145936, Note_off_c, 0, 59, 62
1, 145950, Note_off_c, 0, 47, 63
1, 146006, Control_c, 0, 64, 95
1, 146021, Control_c, 0, 64, 75
1, 146036, Note_on_c, 0, 57, 90
1, 146036, Control_c, 0, 64, 67
1, 146038, Note_on_c, 0, 45, 84
1, 146051, Control_c, 0, 64, 66
1, 146066, Control_c, 0, 64, 70
1, 146081, Control_c, 0, 64, 86
1, 146095, Control_c, 0, 64, 127
1, 146148, Note_off_c, 0, 57, 62
1, 146162, Note_off_c, 0, 45, 63
1, 146177, Control_c, 0, 64, 92
1, 146192, Control_c, 0, 64, 71
1, 146206, Control_c, 0, 64, 67
1, 146221, Control_c, 0, 64, 73
1, 146234, Note_on_c, 0, 56, 91
1, 146236, Control_c, 0, 64, 94
1, 146240, Note_on_c, 0, 44, 80
1, 146251, Control_c, 0, 64, 127
1, 146319, Note_off_c, 0, 56, 63
1, 146326, Control_c, 0, 64, 103
1, 146340, Note_off_c, 0, 44, 61
1, 146341, Control_c, 0, 64, 82
1, 146355, Control_c, 0, 64, 83
1, 146370, Control_c, 0, 64, 113
1, 146385, Control_c, 0, 64, 127
1, 146397, Note_on_c, 0, 54, 94
1, 146398, Note_on_c, 0, 42, 89
1, 146444, Control_c, 0, 64, 88
1, 146459, Control_c, 0, 64, 69
1, 146474, Control_c, 0, 64, 70
1, 146476, Note_off_c, 0, 54, 64
1, 146489, Note_off_c, 0, 42, 61
1, 146489, Control_c, 0, 64, 92
1, 146504, Control_c, 0, 64, 127
1, 146543, Note_on_c, 0, 52, 94
1, 146549, Control_c, 0, 64, 95
1, 146554, Note_on_c, 0, 40, 82
1, 146563, Control_c, 0, 64, 71
1, 146578, Control_c, 0, 64, 70
1, 146593, Control_c, 0, 64, 86
1, 146608, Control_c, 0, 64, 127
1, 146620, Note_off_c, 0, 52, 64
1, 146625, Note_off_c, 0, 40, 62
1, 146652, Control_c, 0, 64, 85
1, 146667, Control_c, 0, 64, 71
1, 146689, Note_on_c, 0, 51, 102
1, 146697, Control_c, 0, 64, 84
1, 146699, Note_on_c, 0, 39, 86
1, 146711, Control_c, 0, 64, 127
1, 146754, Note_off_c, 0, 51, 65
1, 146760, Note_off_c, 0, 39, 62
1, 146785, Control_c, 0, 64, 101
1, 146800, Control_c, 0, 64, 76
1, 146815, Control_c, 0, 64, 67
1, 146824, Note_on_c, 0, 49, 96
1, 146829, Control_c, 0, 64, 71
1, 146830, Note_on_c, 0, 37, 89
1, 146844, Control_c, 0, 64, 96
1, 146859, Control_c, 0, 64, 127
1, 146918, Note_off_c, 0, 49, 59
1, 146944, Note_off_c, 0, 37, 59
1, 146986, Control_c, 0, 64, 72
1, 146991, Note_on_c, 0, 48, 98
1, 146996, Note_on_c, 0, 36, 87
1, 147001, Control_c, 0, 64, 54
1, 147030, Control_c, 0, 64, 69
1, 147045, Control_c, 0, 64, 127
1, 147050, Note_off_c, 0, 36, 62
1, 147071, Note_off_c, 0, 48, 64
1, 147091, Control_c, 0, 64, 74
1, 147106, Control_c, 0, 64, 57
1, 147121, Control_c, 0, 64, 60
1, 147135, Control_c, 0, 64, 74
1, 147150, Control_c, 0, 64, 127
1, 147177, Note_on_c, 0, 51, 103
1, 147185, Note_on_c, 0, 39, 86
1, 147219, Note_off_c, 0, 51, 67
1, 147252, Note_off_c, 0, 39, 63
1, 147517, Note_on_c, 0, 45, 96
1, 147520, Control_c, 0, 64, 114
1, 147526, Note_on_c, 0, 33, 81
1, 147535, Control_c, 0, 64, 66
1, 147550, Control_c, 0, 64, 0
1, 147928, Control_c, 0, 64, 23
1, 147943, Control_c, 0, 64, 30
1, 147958, Control_c, 0, 64, 31
1, 147973, Control_c, 0, 64, 31
1, 147988, Control_c, 0, 64, 35
1, 148002, Control_c, 0, 64, 41
1, 148017, Control_c, 0, 64, 45
1, 148032, Control_c, 0, 64, 45
1, 148062, Control_c, 0, 64, 47
1, 148077, Control_c, 0, 64, 49
1, 148091, Control_c, 0, 64, 50
1, 148121, Control_c, 0, 64, 51
1, 148135, Control_c, 0, 64, 53
1, 148150, Control_c, 0, 64, 55
1, 148165, Control_c, 0, 64, 55
1, 148209, Control_c, 0, 64, 56
1, 148224, Control_c, 0, 64, 57
1, 148239, Control_c, 0, 64, 58
1, 148254, Control_c, 0, 64, 59
1, 148269, Control_c, 0, 64, 60
1, 148283, Control_c, 0, 64, 62
1, 148298, Control_c, 0, 64, 64
1, 148313, Control_c, 0, 64, 65
1, 148343, Control_c, 0, 64, 66
1, 148358, Control_c, 0, 64, 66
1, 148380, Control_c, 0, 64, 68
1, 148395, Control_c, 0, 64, 72
1, 148409, Control_c, 0, 64, 78
1, 148424, Control_c, 0, 64, 86
1, 148439, Control_c, 0, 64, 100
1, 148454, Control_c, 0, 64, 127
1, 148663, Note_off_c, 0, 45, 59
1, 148921, Note_on_c, 0, 32, 65
1, 148924, Note_on_c, 0, 44, 75
1, 148958, Control_c, 0, 64, 100
1, 148973, Control_c, 0, 64, 74
1, 148988, Control_c, 0, 64, 61
1, 148994, Note_off_c, 0, 33, 43
1, 149003, Control_c, 0, 64, 53
1, 149018, Control_c, 0, 64, 49
1, 149032, Control_c, 0, 64, 48
1, 149047, Control_c, 0, 64, 50
1, 149062, Control_c, 0, 64, 55
1, 149077, Control_c, 0, 64, 60
1, 149092, Control_c, 0, 64, 62
1, 149106, Control_c, 0, 64, 65
1, 149121, Control_c, 0, 64, 68
1, 149143, Control_c, 0, 64, 75
1, 149157, Control_c, 0, 64, 89
1, 149172, Control_c, 0, 64, 127
1, 149243, Note_off_c, 0, 44, 60
1, 149475, Note_off_c, 0, 32, 55
1, 149610, Note_on_c, 0, 43, 74
1, 149618, Control_c, 0, 64, 104
1, 149619, Note_on_c, 0, 31, 66
1, 149633, Control_c, 0, 64, 74
1, 149647, Control_c, 0, 64, 62
1, 149662, Control_c, 0, 64, 54
1, 149677, Control_c, 0, 64, 50
1, 149692, Control_c, 0, 64, 49
1, 149707, Control_c, 0, 64, 50
1, 149721, Control_c, 0, 64, 55
1, 149736, Control_c, 0, 64, 60
1, 149751, Control_c, 0, 64, 63
1, 149766, Control_c, 0, 64, 65
1, 149780, Control_c, 0, 64, 66
1, 149795, Control_c, 0, 64, 67
1, 149810, Control_c, 0, 64, 69
1, 149825, Control_c, 0, 64, 74
1, 149840, Control_c, 0, 64, 82
1, 149854, Control_c, 0, 64, 96
1, 149877, Control_c, 0, 64, 127
1, 150189, Note_off_c, 0, 43, 51
1, 150422, Note_on_c, 0, 44, 61
1, 150430, Note_on_c, 0, 32, 58
1, 150441, Control_c, 0, 64, 92
1, 150456, Control_c, 0, 64, 72
1, 150470, Control_c, 0, 64, 60
1, 150485, Control_c, 0, 64, 45
1, 150500, Control_c, 0, 64, 24
1, 150515, Control_c, 0, 64, 9
1, 150544, Control_c, 0, 64, 27
1, 150549, Note_off_c, 0, 31, 41
1, 150559, Control_c, 0, 64, 48
1, 150574, Control_c, 0, 64, 55
1, 150589, Control_c, 0, 64, 57
1, 150603, Control_c, 0, 64, 60
1, 150626, Control_c, 0, 64, 62
1, 150641, Control_c, 0, 64, 65
1, 150656, Control_c, 0, 64, 69
1, 150671, Control_c, 0, 64, 76
1, 150686, Control_c, 0, 64, 83
1, 150701, Control_c, 0, 64, 94
1, 150716, Control_c, 0, 64, 127
1, 150840, Note_off_c, 0, 44, 37
1, 151405, Control_c, 0, 64, 97
1, 151419, Note_on_c, 0, 39, 58
1, 151420, Control_c, 0, 64, 74
1, 151428, Note_on_c, 0, 27, 57
1, 151434, Control_c, 0, 64, 62
1, 151449, Control_c, 0, 64, 46
1, 151464, Control_c, 0, 64, 33
1, 151479, Control_c, 0, 64, 30
1, 151485, Note_off_c, 0, 32, 40
1, 151494, Control_c, 0, 64, 32
1, 151509, Control_c, 0, 64, 48
1, 151524, Control_c, 0, 64, 57
1, 151539, Control_c, 0, 64, 62
1, 151553, Control_c, 0, 64, 64
1, 151568, Control_c, 0, 64, 67
1, 151583, Control_c, 0, 64, 73
1, 151598, Control_c, 0, 64, 90
1, 151613, Control_c, 0, 64, 127
1, 151672, Note_off_c, 0, 27, 56
1, 151694, Note_off_c, 0, 39, 55
1, 151885, Note_on_c, 0, 30, 53
1, 151893, Note_on_c, 0, 42, 55
1, 151939, Control_c, 0, 64, 84
1, 151954, Control_c, 0, 64, 66
1, 151969, Control_c, 0, 64, 52
1, 151983, Control_c, 0, 64, 43
1, 151998, Control_c, 0, 64, 40
1, 152057, Control_c, 0, 64, 41
1, 152072, Control_c, 0, 64, 42
1, 152087, Control_c, 0, 64, 43
1, 152102, Control_c, 0, 64, 43
1, 152117, Control_c, 0, 64, 46
1, 152139, Control_c, 0, 64, 51
1, 152154, Control_c, 0, 64, 56
1, 152169, Control_c, 0, 64, 57
1, 152198, Control_c, 0, 64, 58
1, 152213, Control_c, 0, 64, 60
1, 152228, Control_c, 0, 64, 61
1, 152243, Control_c, 0, 64, 62
1, 152257, Control_c, 0, 64, 63
1, 152272, Control_c, 0, 64, 64
1, 152287, Control_c, 0, 64, 66
1, 152302, Control_c, 0, 64, 68
1, 152317, Control_c, 0, 64, 69
1, 152332, Control_c, 0, 64, 70
1, 152346, Control_c, 0, 64, 72
1, 152361, Control_c, 0, 64, 76
1, 152376, Control_c, 0, 64, 81
1, 152391, Control_c, 0, 64, 85
1, 152406, Control_c, 0, 64, 89
1, 152421, Control_c, 0, 64, 94
1, 152436, Control_c, 0, 64, 111
1, 152450, Control_c, 0, 64, 127
1, 153006, Control_c, 0, 67, 13
1, 153021, Control_c, 0, 67, 25
1, 153036, Control_c, 0, 67, 33
1, 153051, Control_c, 0, 67, 40
1, 153066, Control_c, 0, 67, 49
1, 153071, Note_off_c, 0, 42, 33
1, 153080, Control_c, 0, 67, 60
1, 153095, Control_c, 0, 67, 75
1, 153110, Control_c, 0, 67, 90
1, 153125, Control_c, 0, 67, 94
1, 153140, Control_c, 0, 67, 97
1, 153154, Control_c, 0, 67, 104
1, 153169, Control_c, 0, 67, 122
1, 153184, Control_c, 0, 67, 127
1, 153577, Note_off_c, 0, 30, 41
1, 153858, Note_on_c, 0, 40, 38
1, 153867, Note_on_c, 0, 28, 35
1, 153873, Control_c, 0, 64, 102
1, 153888, Control_c, 0, 64, 79
1, 153902, Control_c, 0, 64, 67
1, 153917, Control_c, 0, 64, 59
1, 153932, Control_c, 0, 64, 56
1, 153947, Control_c, 0, 64, 57
1, 153962, Control_c, 0, 64, 59
1, 153977, Control_c, 0, 64, 63
1, 153992, Control_c, 0, 64, 65
1, 154007, Control_c, 0, 64, 67
1, 154021, Control_c, 0, 64, 70
1, 154036, Control_c, 0, 64, 72
1, 154051, Control_c, 0, 64, 76
1, 154066, Control_c, 0, 64, 81
1, 154081, Control_c, 0, 64, 87
1, 154095, Control_c, 0, 64, 95
1, 154110, Control_c, 0, 64, 112
1, 154125, Control_c, 0, 64, 127
1, 154156, Note_off_c, 0, 28, 39
1, 154718, Note_on_c, 0, 37, 55
1, 154726, Control_c, 0, 64, 111
1, 154741, Control_c, 0, 64, 80
1, 154756, Control_c, 0, 64, 63
1, 154770, Control_c, 0, 64, 52
1, 154785, Control_c, 0, 64, 39
1, 154791, Note_off_c, 0, 40, 40
1, 154800, Control_c, 0, 64, 31
1, 154815, Control_c, 0, 64, 31
1, 154830, Control_c, 0, 64, 38
1, 154844, Control_c, 0, 64, 50
1, 154859, Control_c, 0, 64, 56
1, 154874, Control_c, 0, 64, 58
1, 154889, Control_c, 0, 64, 60
1, 154904, Control_c, 0, 64, 61
1, 154919, Control_c, 0, 64, 63
1, 154934, Control_c, 0, 64, 65
1, 154949, Control_c, 0, 64, 67
1, 154963, Control_c, 0, 64, 69
1, 154978, Control_c, 0, 64, 71
1, 154993, Control_c, 0, 64, 75
1, 155008, Control_c, 0, 64, 79
1, 155023, Control_c, 0, 64, 83
1, 155038, Control_c, 0, 64, 88
1, 155052, Control_c, 0, 64, 94
1, 155068, Control_c, 0, 64, 100
1, 155083, Control_c, 0, 64, 111
1, 155098, Control_c, 0, 64, 127
1, 155262, Note_on_c, 0, 44, 41
1, 155312, Note_off_c, 0, 37, 49
1, 155594, Note_on_c, 0, 56, 37
1, 155759, Note_off_c, 0, 44, 36
1, 155885, Note_on_c, 0, 49, 18
1, 155891, Note_off_c, 0, 56, 42
1, 156086, Note_off_c, 0, 49, 51
1, 156095, Note_on_c, 0, 44, 28
1, 156291, Note_off_c, 0, 44, 37
1, 156299, Note_on_c, 0, 37, 32
1, 156523, Note_off_c, 0, 37, 41
1, 156524, Note_on_c, 0, 44, 32
1, 156752, Note_on_c, 0, 49, 25
1, 156871, Note_off_c, 0, 44, 35
1, 156966, Note_on_c, 0, 56, 38
1, 157029, Note_off_c, 0, 49, 51
1, 157164, Note_on_c, 0, 49, 44
1, 157267, Note_off_c, 0, 56, 41
1, 157384, Note_on_c, 0, 44, 48
1, 157417, Note_off_c, 0, 49, 60
1, 157566, Note_on_c, 0, 37, 48
1, 157587, Note_off_c, 0, 44, 57
1, 157791, Note_on_c, 0, 44, 44
1, 157810, Note_off_c, 0, 37, 40
1, 157994, Note_on_c, 0, 49, 42
1, 158070, Note_off_c, 0, 44, 39
1, 158217, Note_on_c, 0, 56, 41
1, 158286, Note_off_c, 0, 49, 35
1, 158432, Note_on_c, 0, 49, 34
1, 158458, Note_off_c, 0, 56, 53
1, 158649, Note_on_c, 0, 44, 35
1, 158650, Note_off_c, 0, 49, 55
1, 158835, Note_off_c, 0, 44, 38
1, 158836, Note_on_c, 0, 37, 36
1, 159071, Note_on_c, 0, 44, 39
1, 159104, Note_off_c, 0, 37, 42
1, 159273, Note_on_c, 0, 49, 46
1, 159328, Note_off_c, 0, 44, 38
1, 159489, Note_on_c, 0, 56, 42
1, 159518, Note_off_c, 0, 49, 55
1, 159723, Note_on_c, 0, 49, 26
1, 159778, Note_off_c, 0, 56, 34
1, 159970, Note_off_c, 0, 49, 53
1, 159985, Note_on_c, 0, 44, 23
1, 160207, Note_on_c, 0, 37, 36
1, 160215, Note_off_c, 0, 44, 34
1, 160566, Note_on_c, 0, 44, 29
1, 160642, Note_on_c, 0, 76, 67
1, 160651, Note_off_c, 0, 37, 36
1, 160914, Note_on_c, 0, 49, 37
1, 160986, Note_off_c, 0, 44, 39
1, 161162, Note_on_c, 0, 56, 36
1, 161232, Note_off_c, 0, 49, 36
1, 161369, Note_on_c, 0, 49, 33
1, 161432, Note_off_c, 0, 56, 42
1, 161627, Note_off_c, 0, 49, 59
1, 161635, Note_on_c, 0, 44, 24
1, 161838, Note_on_c, 0, 37, 34
1, 161876, Note_off_c, 0, 44, 35
1, 162151, Note_on_c, 0, 44, 30
1, 162200, Note_on_c, 0, 77, 59
1, 162211, Note_off_c, 0, 37, 40
1, 162213, Control_c, 0, 64, 92
1, 162228, Control_c, 0, 64, 75
1, 162243, Control_c, 0, 64, 66
1, 162258, Control_c, 0, 64, 61
1, 162273, Control_c, 0, 64, 59
1, 162288, Control_c, 0, 64, 60
1, 162303, Control_c, 0, 64, 63
1, 162318, Control_c, 0, 64, 66
1, 162332, Control_c, 0, 64, 70
1, 162347, Control_c, 0, 64, 73
1, 162362, Control_c, 0, 64, 77
1, 162377, Control_c, 0, 64, 85
1, 162381, Note_off_c, 0, 76, 46
1, 162392, Control_c, 0, 64, 107
1, 162407, Control_c, 0, 64, 127
1, 162479, Note_on_c, 0, 49, 31
1, 162486, Note_off_c, 0, 44, 39
1, 162707, Note_on_c, 0, 59, 33
1, 162751, Note_off_c, 0, 49, 37
1, 162845, Note_off_c, 0, 59, 35
1, 162851, Note_off_c, 0, 77, 60
1, 162940, Note_on_c, 0, 49, 41
1, 162988, Note_on_c, 0, 77, 70
1, 163216, Note_off_c, 0, 49, 62
1, 163228, Note_on_c, 0, 44, 35
1, 163431, Note_on_c, 0, 37, 44
1, 163435, Note_off_c, 0, 44, 36
1, 163563, Note_off_c, 0, 77, 62
1, 163672, Note_on_c, 0, 44, 43
1, 163709, Note_off_c, 0, 37, 49
1, 163725, Note_on_c, 0, 77, 79
1, 163726, Control_c, 0, 64, 96
1, 163741, Control_c, 0, 64, 83
1, 163755, Control_c, 0, 64, 80
1, 163770, Control_c, 0, 64, 83
1, 163785, Control_c, 0, 64, 96
1, 163799, Control_c, 0, 64, 127
1, 163917, Note_off_c, 0, 44, 60
1, 163943, Note_on_c, 0, 49, 41
1, 164163, Note_on_c, 0, 59, 52
1, 164237, Note_off_c, 0, 49, 39
1, 164263, Note_off_c, 0, 59, 59
1, 164374, Note_on_c, 0, 49, 39
1, 164598, Note_off_c, 0, 49, 62
1, 164606, Note_on_c, 0, 44, 41
1, 164780, Note_on_c, 0, 37, 48
1, 164842, Note_off_c, 0, 44, 28
1, 164985, Note_off_c, 0, 37, 33
1, 165067, Note_on_c, 0, 45, 41
1, 165111, Note_on_c, 0, 78, 64
1, 165120, Control_c, 0, 64, 94
1, 165134, Control_c, 0, 64, 72
1, 165149, Control_c, 0, 64, 60
1, 165164, Control_c, 0, 64, 41
1, 165179, Control_c, 0, 64, 0
1, 165238, Control_c, 0, 64, 26
1, 165239, Note_off_c, 0, 77, 56
1, 165252, Control_c, 0, 64, 39
1, 165267, Control_c, 0, 64, 47
1, 165282, Control_c, 0, 64, 53
1, 165297, Control_c, 0, 64, 57
1, 165312, Control_c, 0, 64, 61
1, 165326, Control_c, 0, 64, 64
1, 165341, Control_c, 0, 64, 66
1, 165356, Control_c, 0, 64, 69
1, 165371, Control_c, 0, 64, 74
1, 165386, Control_c, 0, 64, 80
1, 165391, Note_on_c, 0, 49, 36
1, 165400, Control_c, 0, 64, 86
1, 165415, Control_c, 0, 64, 93
1, 165419, Note_off_c, 0, 45, 60
1, 165430, Control_c, 0, 64, 101
1, 165446, Control_c, 0, 64, 114
1, 165461, Control_c, 0, 64, 127
1, 165620, Note_off_c, 0, 49, 34
1, 165641, Note_on_c, 0, 57, 39
1, 165835, Note_off_c, 0, 57, 33
1, 165883, Note_on_c, 0, 49, 33
1, 166103, Note_on_c, 0, 45, 39
1, 166109, Note_off_c, 0, 49, 50
1, 166247, Note_off_c, 0, 45, 35
1, 166321, Note_on_c, 0, 37, 39
1, 166453, Control_c, 0, 64, 87
1, 166468, Control_c, 0, 64, 73
1, 166483, Control_c, 0, 64, 67
1, 166497, Control_c, 0, 64, 66
1, 166512, Control_c, 0, 64, 68
1, 166527, Control_c, 0, 64, 72
1, 166542, Control_c, 0, 64, 80
1, 166550, Note_off_c, 0, 37, 38
1, 166557, Control_c, 0, 64, 90
1, 166562, Note_on_c, 0, 45, 42
1, 166572, Control_c, 0, 64, 104
1, 166586, Control_c, 0, 64, 127
1, 166841, Note_off_c, 0, 45, 36
1, 166843, Note_on_c, 0, 50, 23
1, 167053, Note_on_c, 0, 57, 44
1, 167104, Note_off_c, 0, 50, 36
1, 167323, Note_off_c, 0, 57, 34
1, 167329, Note_on_c, 0, 50, 24
1, 167380, Note_on_c, 0, 76, 57
1, 167602, Note_off_c, 0, 50, 41
1, 167610, Note_on_c, 0, 45, 42
1, 167613, Note_off_c, 0, 78, 33
1, 167755, Note_off_c, 0, 45, 36
1, 167832, Note_on_c, 0, 37, 44
1, 167933, Note_on_c, 0, 74, 60
1, 168021, Note_off_c, 0, 76, 55
1, 168098, Note_off_c, 0, 37, 41
1, 168111, Note_on_c, 0, 73, 60
1, 168114, Control_c, 0, 64, 96
1, 168115, Note_on_c, 0, 45, 30
1, 168129, Control_c, 0, 64, 79
1, 168143, Control_c, 0, 64, 70
1, 168158, Control_c, 0, 64, 66
1, 168173, Control_c, 0, 64, 67
1, 168178, Note_off_c, 0, 74, 61
1, 168188, Control_c, 0, 64, 71
1, 168203, Control_c, 0, 64, 79
1, 168217, Control_c, 0, 64, 94
1, 168232, Control_c, 0, 64, 127
1, 168375, Note_on_c, 0, 50, 38
1, 168396, Note_off_c, 0, 45, 34
1, 168582, Note_on_c, 0, 57, 44
1, 168646, Note_off_c, 0, 50, 38
1, 168822, Note_off_c, 0, 57, 34
1, 168852, Note_on_c, 0, 50, 36
1, 168861, Note_on_c, 0, 72, 62
1, 169090, Note_off_c, 0, 50, 40
1, 169102, Note_on_c, 0, 45, 43
1, 169126, Note_off_c, 0, 73, 38
1, 169335, Note_off_c, 0, 45, 39
1, 169347, Note_on_c, 0, 37, 46
1, 169593, Note_off_c, 0, 37, 55
1, 169623, Note_on_c, 0, 44, 48
1, 169671, Control_c, 0, 64, 82
1, 169686, Control_c, 0, 64, 67
1, 169701, Control_c, 0, 64, 59
1, 169705, Note_on_c, 0, 73, 74
1, 169716, Control_c, 0, 64, 56
1, 169731, Control_c, 0, 64, 57
1, 169746, Control_c, 0, 64, 60
1, 169761, Control_c, 0, 64, 64
1, 169776, Control_c, 0, 64, 68
1, 169791, Control_c, 0, 64, 75
1, 169805, Control_c, 0, 64, 86
1, 169820, Control_c, 0, 64, 98
1, 169835, Control_c, 0, 64, 127
1, 169985, Note_on_c, 0, 52, 57
1, 169997, Control_c, 0, 67, 113
1, 170004, Note_off_c, 0, 72, 38
1, 170008, Note_off_c, 0, 44, 40
1, 170012, Control_c, 0, 67, 90
1, 170027, Control_c, 0, 67, 72
1, 170041, Control_c, 0, 67, 56
1, 170056, Control_c, 0, 67, 40
1, 170071, Control_c, 0, 67, 25
1, 170094, Control_c, 0, 67, 14
1, 170108, Control_c, 0, 67, 0
1, 170214, Note_off_c, 0, 52, 60
1, 170220, Note_on_c, 0, 61, 54
1, 170402, Note_off_c, 0, 61, 57
1, 170442, Note_on_c, 0, 52, 49
1, 170542, Note_on_c, 0, 80, 78
1, 170671, Note_off_c, 0, 73, 59
1, 170733, Note_off_c, 0, 52, 37
1, 170771, Note_on_c, 0, 44, 50
1, 170825, Note_off_c, 0, 44, 62
1, 171040, Note_on_c, 0, 37, 45
1, 171174, Note_on_c, 0, 69, 66
1, 171355, Note_on_c, 0, 35, 49
1, 171391, Note_off_c, 0, 69, 51
1, 171421, Control_c, 0, 64, 105
1, 171436, Note_on_c, 0, 69, 55
1, 171436, Control_c, 0, 64, 71
1, 171438, Note_off_c, 0, 37, 32
1, 171450, Control_c, 0, 64, 61
1, 171465, Control_c, 0, 64, 58
1, 171480, Control_c, 0, 64, 60
1, 171494, Control_c, 0, 64, 64
1, 171509, Control_c, 0, 64, 69
1, 171524, Control_c, 0, 64, 79
1, 171539, Control_c, 0, 64, 93
1, 171554, Control_c, 0, 64, 127
1, 171620, Note_on_c, 0, 71, 72
1, 171669, Note_off_c, 0, 69, 62
1, 171701, Note_off_c, 0, 35, 48
1, 171711, Note_on_c, 0, 47, 51
1, 171755, Note_off_c, 0, 47, 58
1, 171766, Note_on_c, 0, 69, 83
1, 171812, Note_off_c, 0, 69, 64
1, 171829, Note_off_c, 0, 71, 52
1, 171894, Note_on_c, 0, 68, 77
1, 171981, Note_off_c, 0, 68, 58
1, 172017, Note_on_c, 0, 69, 76
1, 172046, Note_on_c, 0, 63, 53
1, 172090, Note_off_c, 0, 80, 61
1, 172264, Note_on_c, 0, 57, 52
1, 172270, Note_off_c, 0, 63, 62
1, 172288, Control_c, 0, 64, 81
1, 172291, Note_on_c, 0, 71, 55
1, 172291, Note_on_c, 0, 78, 72
1, 172303, Control_c, 0, 64, 63
1, 172317, Control_c, 0, 64, 48
1, 172332, Control_c, 0, 64, 43
1, 172354, Note_off_c, 0, 69, 60
1, 172354, Control_c, 0, 64, 45
1, 172369, Control_c, 0, 64, 56
1, 172384, Control_c, 0, 64, 64
1, 172399, Control_c, 0, 64, 71
1, 172412, Note_off_c, 0, 57, 61
1, 172414, Control_c, 0, 64, 84
1, 172429, Control_c, 0, 64, 103
1, 172444, Control_c, 0, 64, 127
1, 172578, Note_on_c, 0, 47, 50
1, 172812, Note_on_c, 0, 35, 40
1, 172837, Note_off_c, 0, 47, 29
1, 172897, Note_off_c, 0, 71, 58
1, 172977, Note_off_c, 0, 78, 63
1, 172980, Note_on_c, 0, 66, 43
1, 173177, Note_on_c, 0, 40, 39
1, 173216, Note_off_c, 0, 66, 32
1, 173228, Note_on_c, 0, 76, 50
1, 173244, Note_on_c, 0, 68, 52
1, 173281, Control_c, 0, 64, 80
1, 173296, Control_c, 0, 64, 63
1, 173311, Control_c, 0, 64, 52
1, 173326, Note_off_c, 0, 35, 24
1, 173326, Control_c, 0, 64, 46
1, 173341, Control_c, 0, 64, 45
1, 173356, Control_c, 0, 64, 49
1, 173371, Control_c, 0, 64, 56
1, 173386, Control_c, 0, 64, 62
1, 173401, Control_c, 0, 64, 64
1, 173415, Control_c, 0, 64, 66
1, 173430, Control_c, 0, 64, 67
1, 173445, Control_c, 0, 64, 68
1, 173460, Control_c, 0, 64, 69
1, 173475, Control_c, 0, 64, 74
1, 173490, Control_c, 0, 64, 81
1, 173505, Control_c, 0, 64, 89
1, 173520, Control_c, 0, 64, 98
1, 173535, Control_c, 0, 64, 106
1, 173550, Control_c, 0, 64, 108
1, 173564, Control_c, 0, 64, 111
1, 173565, Note_on_c, 0, 47, 42
1, 173579, Control_c, 0, 64, 127
1, 173740, Note_off_c, 0, 47, 60
1, 173760, Note_off_c, 0, 40, 41
1, 173792, Note_on_c, 0, 64, 43
1, 174032, Note_on_c, 0, 56, 48
1, 174152, Note_off_c, 0, 56, 53
1, 174241, Note_off_c, 0, 64, 37
1, 174282, Note_on_c, 0, 47, 44
1, 174312, Note_off_c, 0, 76, 41
1, 174535, Note_on_c, 0, 39, 44
1, 174547, Note_off_c, 0, 47, 34
1, 174894, Note_on_c, 0, 37, 39
1, 174918, Note_off_c, 0, 39, 36
1, 174926, Note_on_c, 0, 76, 54
1, 174942, Control_c, 0, 64, 94
1, 174957, Control_c, 0, 64, 72
1, 174971, Control_c, 0, 64, 61
1, 174986, Control_c, 0, 64, 55
1, 175001, Control_c, 0, 64, 54
1, 175016, Control_c, 0, 64, 57
1, 175031, Control_c, 0, 64, 62
1, 175046, Control_c, 0, 64, 66
1, 175061, Control_c, 0, 64, 72
1, 175076, Control_c, 0, 64, 79
1, 175091, Control_c, 0, 64, 87
1, 175106, Control_c, 0, 64, 102
1, 175121, Control_c, 0, 64, 127
1, 175231, Note_off_c, 0, 37, 40
1, 175234, Note_on_c, 0, 44, 33
1, 175385, Note_off_c, 0, 76, 58
1, 175481, Note_on_c, 0, 56, 39
1, 175714, Note_on_c, 0, 76, 65
1, 175719, Note_on_c, 0, 49, 42
1, 175733, Note_off_c, 0, 44, 37
1, 175790, Note_off_c, 0, 56, 41
1, 175967, Note_on_c, 0, 44, 45
1, 175985, Note_off_c, 0, 49, 62
1, 175986, Note_off_c, 0, 68, 62
1, 176195, Note_on_c, 0, 37, 44
1, 176241, Note_off_c, 0, 44, 30
1, 176291, Note_off_c, 0, 37, 50
1, 176469, Note_on_c, 0, 37, 40
1, 176531, Note_on_c, 0, 77, 61
1, 176535, Note_on_c, 0, 71, 69
1, 176542, Control_c, 0, 64, 92
1, 176557, Control_c, 0, 64, 73
1, 176572, Control_c, 0, 64, 64
1, 176587, Control_c, 0, 64, 61
1, 176602, Control_c, 0, 64, 62
1, 176617, Control_c, 0, 64, 64
1, 176632, Control_c, 0, 64, 70
1, 176647, Control_c, 0, 64, 77
1, 176650, Note_off_c, 0, 76, 50
1, 176662, Control_c, 0, 64, 87
1, 176677, Control_c, 0, 64, 107
1, 176691, Control_c, 0, 64, 127
1, 176757, Note_off_c, 0, 37, 56
1, 176807, Note_on_c, 0, 44, 41
1, 176864, Note_off_c, 0, 44, 61
1, 177058, Note_on_c, 0, 61, 47
1, 177288, Note_off_c, 0, 61, 50
1, 177330, Note_on_c, 0, 53, 42
1, 177358, Note_on_c, 0, 73, 74
1, 177565, Note_off_c, 0, 71, 54
1, 177568, Note_off_c, 0, 53, 42
1, 177600, Note_on_c, 0, 44, 49
1, 177684, Note_off_c, 0, 44, 62
1, 177774, Note_off_c, 0, 73, 54
1, 177823, Note_on_c, 0, 37, 56
1, 177888, Note_off_c, 0, 37, 58
1, 177914, Note_on_c, 0, 71, 80
1, 178021, Note_off_c, 0, 71, 58
1, 178057, Note_on_c, 0, 37, 37
1, 178114, Control_c, 0, 64, 107
1, 178116, Note_on_c, 0, 71, 69
1, 178125, Note_on_c, 0, 78, 74
1, 178128, Control_c, 0, 64, 69
1, 178143, Control_c, 0, 64, 52
1, 178158, Control_c, 0, 64, 25
1, 178173, Control_c, 0, 64, 17
1, 178188, Control_c, 0, 64, 25
1, 178203, Control_c, 0, 64, 47
1, 178218, Control_c, 0, 64, 61
1, 178221, Note_off_c, 0, 77, 48
1, 178233, Control_c, 0, 64, 66
1, 178248, Control_c, 0, 64, 72
1, 178263, Control_c, 0, 64, 83
1, 178278, Control_c, 0, 64, 107
1, 178293, Control_c, 0, 64, 127
1, 178363, Note_on_c, 0, 45, 52
1, 178374, Note_off_c, 0, 37, 40
1, 178418, Note_off_c, 0, 45, 62
1, 178586, Note_on_c, 0, 61, 48
1, 178821, Note_off_c, 0, 61, 56
1, 178838, Note_on_c, 0, 69, 71
1, 178842, Note_on_c, 0, 54, 49
1, 179049, Note_off_c, 0, 71, 62
1, 179050, Note_off_c, 0, 54, 59
1, 179077, Note_on_c, 0, 45, 52
1, 179150, Note_off_c, 0, 45, 62
1, 179316, Note_on_c, 0, 37, 46
1, 179364, Note_off_c, 0, 37, 60
1, 179397, Note_on_c, 0, 68, 67
1, 179425, Note_off_c, 0, 69, 57
1, 179567, Note_on_c, 0, 37, 44
1, 179593, Note_on_c, 0, 66, 55
1, 179597, Control_c, 0, 64, 93
1, 179612, Control_c, 0, 64, 67
1, 179627, Control_c, 0, 64, 43
1, 179642, Control_c, 0, 64, 18
1, 179654, Note_off_c, 0, 68, 56
1, 179656, Control_c, 0, 64, 16
1, 179671, Control_c, 0, 64, 26
1, 179686, Control_c, 0, 64, 49
1, 179700, Control_c, 0, 64, 60
1, 179715, Control_c, 0, 64, 64
1, 179730, Control_c, 0, 64, 65
1, 179745, Control_c, 0, 64, 68
1, 179760, Control_c, 0, 64, 71
1, 179774, Control_c, 0, 64, 77
1, 179786, Note_off_c, 0, 37, 58
1, 179789, Control_c, 0, 64, 85
1, 179804, Control_c, 0, 64, 100
1, 179819, Control_c, 0, 64, 127
1, 179851, Note_on_c, 0, 45, 38
1, 179931, Note_off_c, 0, 45, 62
1, 180064, Note_on_c, 0, 57, 45
1, 180295, Note_off_c, 0, 57, 33
1, 180344, Note_on_c, 0, 50, 36
1, 180351, Note_on_c, 0, 76, 62
1, 180428, Note_off_c, 0, 78, 63
1, 180602, Note_on_c, 0, 45, 40
1, 180604, Note_off_c, 0, 50, 40
1, 180758, Note_off_c, 0, 45, 52
1, 180842, Note_on_c, 0, 37, 40
1, 180912, Note_off_c, 0, 37, 42
1, 180927, Note_on_c, 0, 74, 60
1, 181088, Note_on_c, 0, 73, 52
1, 181100, Note_on_c, 0, 37, 34
1, 181118, Note_off_c, 0, 76, 59
1, 181124, Control_c, 0, 64, 86
1, 181134, Note_off_c, 0, 74, 59
1, 181139, Control_c, 0, 64, 69
1, 181154, Control_c, 0, 64, 60
1, 181169, Control_c, 0, 64, 54
1, 181184, Control_c, 0, 64, 53
1, 181199, Control_c, 0, 64, 59
1, 181214, Control_c, 0, 64, 64
1, 181228, Control_c, 0, 64, 69
1, 181243, Control_c, 0, 64, 77
1, 181258, Control_c, 0, 64, 89
1, 181273, Control_c, 0, 64, 106
1, 181288, Control_c, 0, 64, 127
1, 181309, Note_off_c, 0, 37, 40
1, 181351, Note_on_c, 0, 45, 45
1, 181398, Control_c, 0, 67, 8
1, 181413, Control_c, 0, 67, 9
1, 181429, Control_c, 0, 67, 9
1, 181430, Note_off_c, 0, 45, 60
1, 181444, Control_c, 0, 67, 10
1, 181458, Control_c, 0, 67, 11
1, 181488, Control_c, 0, 67, 12
1, 181503, Control_c, 0, 67, 13
1, 181599, Note_on_c, 0, 57, 30
1, 181786, Note_off_c, 0, 57, 41
1, 181799, Control_c, 0, 67, 12
1, 181829, Control_c, 0, 67, 11
1, 181842, Note_on_c, 0, 50, 33
1, 181846, Note_on_c, 0, 72, 52
1, 181918, Control_c, 0, 67, 11
1, 181932, Note_off_c, 0, 73, 50
1, 181992, Control_c, 0, 67, 10
1, 182093, Note_off_c, 0, 50, 40
1, 182097, Note_on_c, 0, 45, 36
1, 182209, Note_off_c, 0, 66, 59
1, 182237, Control_c, 0, 67, 9
1, 182245, Note_off_c, 0, 45, 52
1, 182267, Control_c, 0, 67, 9
1, 182296, Control_c, 0, 67, 8
1, 182311, Control_c, 0, 67, 8
1, 182326, Control_c, 0, 67, 0
1, 182355, Note_on_c, 0, 37, 35
1, 182418, Note_off_c, 0, 37, 53
1, 182689, Note_on_c, 0, 37, 46
1, 182779, Note_on_c, 0, 66, 77
1, 182799, Control_c, 0, 64, 109
1, 182814, Control_c, 0, 64, 83
1, 182837, Control_c, 0, 64, 70
1, 182852, Control_c, 0, 64, 64
1, 182867, Control_c, 0, 64, 62
1, 182881, Control_c, 0, 64, 64
1, 182896, Control_c, 0, 64, 67
1, 182911, Control_c, 0, 64, 73
1, 182926, Control_c, 0, 64, 85
1, 182941, Control_c, 0, 64, 113
1, 182955, Control_c, 0, 64, 127
1, 183086, Note_off_c, 0, 37, 36
1, 183097, Note_on_c, 0, 45, 39
1, 183183, Poly_aftertouch_c, 0, 69, 127
1, 183217, Note_off_c, 0, 45, 62
1, 183358, Note_on_c, 0, 57, 46
1, 183610, Note_off_c, 0, 57, 33
1, 183634, Note_on_c, 0, 50, 32
1, 183655, Note_on_c, 0, 64, 76
1, 183928, Note_on_c, 0, 45, 40
1, 183931, Note_off_c, 0, 50, 40
1, 184102, Note_off_c, 0, 45, 37
1, 184108, Note_off_c, 0, 66, 30
1, 184132, Poly_aftertouch_c, 0, 69, 0
1, 184165, Note_on_c, 0, 37, 44
1, 184284, Note_off_c, 0, 37, 37
1, 184288, Note_on_c, 0, 62, 75
1, 184372, Note_off_c, 0, 62, 63
1, 184474, Note_off_c, 0, 64, 26
1, 184481, Note_on_c, 0, 61, 69
1, 184484, Note_on_c, 0, 37, 42
1, 184513, Control_c, 0, 64, 104
1, 184528, Control_c, 0, 64, 76
1, 184543, Control_c, 0, 64, 63
1, 184558, Control_c, 0, 64, 52
1, 184572, Control_c, 0, 64, 47
1, 184587, Control_c, 0, 64, 48
1, 184602, Control_c, 0, 64, 54
1, 184617, Control_c, 0, 64, 61
1, 184633, Control_c, 0, 64, 65
1, 184648, Control_c, 0, 64, 70
1, 184662, Control_c, 0, 64, 74
1, 184677, Control_c, 0, 64, 79
1, 184692, Control_c, 0, 64, 85
1, 184707, Control_c, 0, 64, 96
1, 184722, Control_c, 0, 64, 127
1, 184740, Note_off_c, 0, 37, 58
1, 184762, Note_on_c, 0, 45, 42
1, 184886, Note_off_c, 0, 45, 62
1, 185043, Note_on_c, 0, 57, 46
1, 185303, Note_off_c, 0, 61, 60
1, 185365, Control_c, 0, 64, 97
1, 185366, Note_on_c, 0, 60, 73
1, 185377, Note_on_c, 0, 50, 38
1, 185380, Control_c, 0, 64, 77
1, 185390, Note_off_c, 0, 57, 34
1, 185394, Control_c, 0, 64, 68
1, 185409, Control_c, 0, 64, 66
1, 185425, Control_c, 0, 64, 67
1, 185440, Control_c, 0, 64, 71
1, 185455, Control_c, 0, 64, 78
1, 185470, Control_c, 0, 64, 89
1, 185485, Control_c, 0, 64, 111
1, 185499, Control_c, 0, 64, 127
1, 185662, Note_on_c, 0, 45, 41
1, 185689, Note_off_c, 0, 50, 33
1, 185747, Poly_aftertouch_c, 0, 69, 127
1, 186017, Note_off_c, 0, 60, 51
1, 186022, Note_on_c, 0, 37, 31
1, 186211, Note_off_c, 0, 37, 41
1, 186234, Note_off_c, 0, 45, 40
1, 186518, Note_on_c, 0, 37, 41
1, 186532, Note_on_c, 0, 61, 70
1, 186559, Control_c, 0, 64, 108
1, 186582, Control_c, 0, 64, 77
1, 186596, Control_c, 0, 64, 63
1, 186611, Control_c, 0, 64, 48
1, 186626, Control_c, 0, 64, 33
1, 186641, Control_c, 0, 64, 24
1, 186670, Control_c, 0, 64, 28
1, 186685, Control_c, 0, 64, 44
1, 186700, Control_c, 0, 64, 56
1, 186715, Control_c, 0, 64, 59
1, 186729, Control_c, 0, 64, 61
1, 186744, Control_c, 0, 64, 63
1, 186759, Control_c, 0, 64, 66
1, 186773, Control_c, 0, 64, 69
1, 186788, Control_c, 0, 64, 75
1, 186803, Control_c, 0, 64, 81
1, 186818, Control_c, 0, 64, 92
1, 186833, Control_c, 0, 64, 127
1, 186947, Note_off_c, 0, 37, 51
1, 186968, Note_on_c, 0, 44, 43
1, 187050, Note_off_c, 0, 61, 58
1, 187055, Note_off_c, 0, 44, 57
1, 187056, Control_c, 0, 67, 9
1, 187071, Control_c, 0, 67, 10
1, 187077, Poly_aftertouch_c, 0, 69, 0
1, 187086, Control_c, 0, 67, 11
1, 187101, Control_c, 0, 67, 12
1, 187116, Control_c, 0, 67, 14
1, 187131, Control_c, 0, 67, 17
1, 187139, Note_off_c, 0, 72, 56
1, 187145, Control_c, 0, 67, 29
1, 187160, Control_c, 0, 67, 43
1, 187175, Control_c, 0, 67, 53
1, 187189, Control_c, 0, 67, 61
1, 187204, Control_c, 0, 67, 73
1, 187219, Control_c, 0, 67, 85
1, 187234, Control_c, 0, 67, 96
1, 187249, Control_c, 0, 67, 105
1, 187263, Control_c, 0, 67, 111
1, 187278, Control_c, 0, 67, 118
1, 187293, Control_c, 0, 67, 127
1, 187309, Note_on_c, 0, 61, 36
1, 187722, Note_off_c, 0, 61, 47
1, 187730, Note_on_c, 0, 53, 37
1, 187753, Note_on_c, 0, 73, 45
1, 187758, Note_on_c, 0, 77, 54
1, 187967, Note_off_c, 0, 53, 43
1, 188004, Poly_aftertouch_c, 0, 75, 127
1, 188039, Note_on_c, 0, 44, 39
1, 188111, Note_off_c, 0, 44, 61
1, 188329, Note_on_c, 0, 37, 29
1, 188379, Note_off_c, 0, 37, 50
1, 188582, Note_on_c, 0, 37, 36
1, 188628, Note_on_c, 0, 70, 57
1, 188639, Note_on_c, 0, 66, 42
1, 188642, Control_c, 0, 64, 87
1, 188657, Control_c, 0, 64, 71
1, 188672, Control_c, 0, 64, 63
1, 188687, Control_c, 0, 64, 62
1, 188702, Control_c, 0, 64, 63
1, 188716, Control_c, 0, 64, 65
1, 188731, Control_c, 0, 64, 69
1, 188746, Control_c, 0, 64, 76
1, 188761, Control_c, 0, 64, 86
1, 188776, Control_c, 0, 64, 105
1, 188790, Control_c, 0, 64, 127
1, 188865, Note_off_c, 0, 77, 45
1, 188883, Note_on_c, 0, 44, 37
1, 188898, Poly_aftertouch_c, 0, 75, 0
1, 188900, Note_off_c, 0, 37, 41
1, 188901, Note_off_c, 0, 73, 63
1, 188983, Note_off_c, 0, 44, 56
1, 189131, Note_on_c, 0, 60, 41
1, 189426, Note_on_c, 0, 75, 68
1, 189430, Note_on_c, 0, 51, 36
1, 189435, Note_on_c, 0, 72, 59
1, 189435, Note_off_c, 0, 60, 33
1, 189611, Note_off_c, 0, 66, 40
1, 189679, Note_off_c, 0, 70, 61
1, 189695, Note_on_c, 0, 44, 43
1, 189714, Note_off_c, 0, 51, 42
1, 189787, Note_off_c, 0, 44, 62
1, 189990, Note_on_c, 0, 37, 32
1, 190055, Note_off_c, 0, 37, 56
1, 190094, Note_on_c, 0, 70, 60
1, 190243, Note_on_c, 0, 68, 54
1, 190258, Note_on_c, 0, 65, 47
1, 190269, Note_on_c, 0, 37, 36
1, 190296, Note_off_c, 0, 70, 34
1, 190302, Control_c, 0, 64, 94
1, 190325, Control_c, 0, 64, 71
1, 190340, Control_c, 0, 64, 55
1, 190355, Control_c, 0, 64, 22
1, 190369, Control_c, 0, 64, 0
1, 190414, Control_c, 0, 64, 33
1, 190429, Control_c, 0, 64, 50
1, 190443, Control_c, 0, 64, 58
1, 190458, Control_c, 0, 64, 62
1, 190473, Control_c, 0, 64, 64
1, 190487, Control_c, 0, 64, 66
1, 190502, Control_c, 0, 64, 68
1, 190512, Note_off_c, 0, 37, 48
1, 190517, Control_c, 0, 64, 73
1, 190519, Note_on_c, 0, 44, 38
1, 190532, Control_c, 0, 64, 80
1, 190547, Control_c, 0, 64, 92
1, 190562, Control_c, 0, 64, 127
1, 190611, Note_off_c, 0, 44, 58
1, 190621, Note_off_c, 0, 72, 61
1, 190627, Note_off_c, 0, 75, 61
1, 190766, Note_on_c, 0, 58, 44
1, 191024, Note_on_c, 0, 49, 35
1, 191027, Note_on_c, 0, 73, 62
1, 191033, Note_off_c, 0, 58, 33
1, 191042, Note_on_c, 0, 70, 51
1, 191265, Note_off_c, 0, 65, 32
1, 191309, Note_on_c, 0, 44, 32
1, 191322, Note_off_c, 0, 49, 60
1, 191330, Note_off_c, 0, 68, 57
1, 191537, Note_on_c, 0, 37, 42
1, 191585, Note_off_c, 0, 44, 34
1, 191775, Note_off_c, 0, 37, 0
1, 191795, Note_on_c, 0, 37, 25
1, 191799, Note_on_c, 0, 66, 54
1, 191818, Note_on_c, 0, 63, 42
1, 191852, Control_c, 0, 64, 114
1, 191867, Control_c, 0, 64, 78
1, 191882, Control_c, 0, 64, 64
1, 191897, Control_c, 0, 64, 57
1, 191912, Control_c, 0, 64, 55
1, 191927, Control_c, 0, 64, 58
1, 191941, Control_c, 0, 64, 64
1, 191956, Control_c, 0, 64, 70
1, 191971, Control_c, 0, 64, 79
1, 191986, Control_c, 0, 64, 93
1, 192001, Control_c, 0, 64, 127
1, 192054, Note_off_c, 0, 70, 37
1, 192071, Note_on_c, 0, 44, 40
1, 192089, Note_off_c, 0, 37, 41
1, 192106, Note_off_c, 0, 73, 60
1, 192255, Note_off_c, 0, 44, 39
1, 192334, Note_on_c, 0, 56, 36
1, 192613, Note_on_c, 0, 72, 52
1, 192621, Note_on_c, 0, 68, 42
1, 192633, Note_on_c, 0, 48, 39
1, 192666, Note_off_c, 0, 56, 41
1, 192735, Note_off_c, 0, 63, 36
1, 192792, Note_off_c, 0, 66, 23
1, 192887, Note_on_c, 0, 44, 35
1, 192914, Note_off_c, 0, 48, 41
1, 193088, Note_off_c, 0, 72, 32
1, 193122, Note_off_c, 0, 44, 40
1, 193150, Note_on_c, 0, 37, 36
1, 193200, Note_off_c, 0, 68, 38
1, 193267, Note_off_c, 0, 37, 37
1, 193273, Note_on_c, 0, 66, 53
1, 193277, Note_on_c, 0, 70, 57
1, 193488, Note_on_c, 0, 37, 35
1, 193490, Note_on_c, 0, 68, 52
1, 193495, Note_off_c, 0, 66, 29
1, 193498, Note_on_c, 0, 65, 53
1, 193498, Control_c, 0, 64, 115
1, 193513, Control_c, 0, 64, 81
1, 193528, Control_c, 0, 64, 66
1, 193543, Control_c, 0, 64, 53
1, 193557, Control_c, 0, 64, 31
1, 193572, Control_c, 0, 64, 0
1, 193606, Note_off_c, 0, 70, 27
1, 193631, Control_c, 0, 64, 32
1, 193646, Control_c, 0, 64, 41
1, 193661, Control_c, 0, 64, 47
1, 193676, Control_c, 0, 64, 57
1, 193691, Control_c, 0, 64, 63
1, 193705, Control_c, 0, 64, 67
1, 193720, Control_c, 0, 64, 71
1, 193735, Control_c, 0, 64, 75
1, 193750, Control_c, 0, 64, 79
1, 193765, Control_c, 0, 64, 88
1, 193779, Control_c, 0, 64, 110
1, 193794, Control_c, 0, 64, 127
1, 193825, Note_on_c, 0, 44, 41
1, 193844, Note_off_c, 0, 37, 33
1, 193912, Note_off_c, 0, 44, 60
1, 194111, Note_on_c, 0, 61, 44
1, 194428, Note_on_c, 0, 53, 35
1, 194437, Note_off_c, 0, 61, 47
1, 194457, Note_on_c, 0, 77, 75
1, 194489, Note_on_c, 0, 73, 35
1, 194676, Note_off_c, 0, 53, 41
1, 194735, Note_on_c, 0, 44, 40
1, 194817, Note_off_c, 0, 44, 62
1, 195021, Note_off_c, 0, 65, 38
1, 195023, Note_off_c, 0, 68, 36
1, 195025, Note_on_c, 0, 37, 31
1, 195084, Note_off_c, 0, 37, 51
1, 195289, Note_on_c, 0, 37, 31
1, 195294, Note_on_c, 0, 70, 50
1, 195298, Note_on_c, 0, 66, 31
1, 195307, Control_c, 0, 64, 118
1, 195322, Control_c, 0, 64, 83
1, 195337, Control_c, 0, 64, 70
1, 195351, Control_c, 0, 64, 64
1, 195366, Control_c, 0, 64, 65
1, 195381, Control_c, 0, 64, 67
1, 195396, Control_c, 0, 64, 72
1, 195411, Control_c, 0, 64, 81
1, 195425, Control_c, 0, 64, 96
1, 195440, Control_c, 0, 64, 127
1, 195503, Note_off_c, 0, 73, 42
1, 195567, Note_off_c, 0, 37, 36
1, 195568, Note_on_c, 0, 44, 38
1, 195638, Note_off_c, 0, 44, 54
1, 195834, Note_on_c, 0, 60, 37
1, 196002, Note_off_c, 0, 77, 21
1, 196114, Note_off_c, 0, 60, 34
1, 196141, Note_on_c, 0, 75, 68
1, 196150, Note_on_c, 0, 72, 49
1, 196152, Note_on_c, 0, 51, 33
1, 196420, Note_off_c, 0, 51, 42
1, 196423, Note_on_c, 0, 44, 40
1, 196435, Note_off_c, 0, 70, 53
1, 196482, Note_off_c, 0, 44, 62
1, 196687, Note_on_c, 0, 37, 36
1, 196727, Note_off_c, 0, 66, 38
1, 196741, Note_off_c, 0, 37, 55
1, 196944, Note_on_c, 0, 65, 40
1, 196944, Note_on_c, 0, 68, 58
1, 196952, Note_on_c, 0, 37, 39
1, 196982, Control_c, 0, 64, 95
1, 196997, Control_c, 0, 64, 80
1, 197012, Control_c, 0, 64, 73
1, 197027, Control_c, 0, 64, 73
1, 197042, Control_c, 0, 64, 75
1, 197063, Control_c, 0, 64, 81
1, 197078, Control_c, 0, 64, 89
1, 197093, Control_c, 0, 64, 104
1, 197105, Note_off_c, 0, 72, 26
1, 197108, Control_c, 0, 64, 127
1, 197197, Note_off_c, 0, 37, 52
1, 197230, Note_on_c, 0, 44, 43
1, 197304, Note_off_c, 0, 44, 57
1, 197479, Note_on_c, 0, 58, 40
1, 197771, Note_on_c, 0, 49, 34
1, 197781, Note_off_c, 0, 58, 41
1, 197790, Note_on_c, 0, 73, 64
1, 197805, Note_on_c, 0, 70, 53
1, 198008, Note_off_c, 0, 75, 52
1, 198061, Note_on_c, 0, 44, 38
1, 198062, Note_off_c, 0, 65, 52
1, 198065, Note_off_c, 0, 49, 54
1, 198079, Note_off_c, 0, 68, 49
1, 198324, Note_on_c, 0, 37, 36
1, 198349, Note_off_c, 0, 44, 34
1, 198476, Note_off_c, 0, 37, 39
1, 198625, Note_on_c, 0, 37, 35
1, 198631, Note_on_c, 0, 63, 32
1, 198634, Note_on_c, 0, 66, 39
1, 198634, Control_c, 0, 64, 94
1, 198649, Control_c, 0, 64, 73
1, 198664, Control_c, 0, 64, 62
1, 198679, Control_c, 0, 64, 54
1, 198694, Control_c, 0, 64, 51
1, 198708, Control_c, 0, 64, 54
1, 198723, Control_c, 0, 64, 60
1, 198738, Control_c, 0, 64, 65
1, 198753, Control_c, 0, 64, 69
1, 198768, Control_c, 0, 64, 74
1, 198782, Control_c, 0, 64, 81
1, 198797, Control_c, 0, 64, 89
1, 198812, Control_c, 0, 64, 95
1, 198826, Control_c, 0, 64, 102
1, 198841, Control_c, 0, 64, 109
1, 198856, Control_c, 0, 64, 121
1, 198871, Control_c, 0, 64, 127
1, 198897, Note_off_c, 0, 37, 43
1, 198910, Note_on_c, 0, 44, 31
1, 198984, Note_off_c, 0, 70, 57
1, 199085, Note_off_c, 0, 44, 38
1, 199170, Note_off_c, 0, 73, 38
1, 199208, Note_on_c, 0, 56, 36
1, 199490, Note_on_c, 0, 72, 60
1, 199500, Note_on_c, 0, 68, 48
1, 199519, Note_off_c, 0, 56, 41
1, 199521, Note_on_c, 0, 48, 34
1, 199785, Note_on_c, 0, 44, 35
1, 199806, Note_off_c, 0, 66, 31
1, 199817, Note_off_c, 0, 48, 41
1, 199879, Note_off_c, 0, 63, 36
1, 199979, Note_off_c, 0, 72, 56
1, 200055, Note_off_c, 0, 44, 39
1, 200074, Note_on_c, 0, 37, 39
1, 200096, Note_off_c, 0, 68, 37
1, 200217, Note_off_c, 0, 37, 33
1, 200218, Note_on_c, 0, 70, 60
1, 200237, Note_on_c, 0, 66, 42
1, 200459, Note_on_c, 0, 37, 33
1, 200462, Note_on_c, 0, 68, 58
1, 200464, Note_off_c, 0, 66, 40
1, 200468, Note_on_c, 0, 65, 45
1, 200513, Note_off_c, 0, 70, 32
1, 200518, Control_c, 0, 64, 91
1, 200533, Control_c, 0, 64, 73
1, 200547, Control_c, 0, 64, 63
1, 200562, Control_c, 0, 64, 54
1, 200577, Control_c, 0, 64, 46
1, 200592, Control_c, 0, 64, 44
1, 200607, Control_c, 0, 64, 46
1, 200622, Control_c, 0, 64, 53
1, 200637, Control_c, 0, 64, 60
1, 200652, Control_c, 0, 64, 63
1, 200667, Control_c, 0, 64, 66
1, 200682, Control_c, 0, 64, 69
1, 200697, Control_c, 0, 64, 72
1, 200711, Control_c, 0, 64, 74
1, 200726, Control_c, 0, 64, 76
1, 200741, Control_c, 0, 64, 78
1, 200756, Control_c, 0, 64, 81
1, 200770, Control_c, 0, 64, 85
1, 200785, Control_c, 0, 64, 89
1, 200794, Note_on_c, 0, 44, 34
1, 200807, Control_c, 0, 64, 94
1, 200808, Note_off_c, 0, 37, 39
1, 200822, Control_c, 0, 64, 99
1, 200837, Control_c, 0, 64, 103
1, 200852, Control_c, 0, 64, 107
1, 200867, Control_c, 0, 64, 109
1, 200882, Control_c, 0, 64, 112
1, 200896, Control_c, 0, 64, 113
1, 200911, Control_c, 0, 64, 114
1, 200926, Control_c, 0, 64, 118
1, 200941, Control_c, 0, 64, 127
1, 201056, Note_on_c, 0, 56, 33
1, 201299, Note_off_c, 0, 44, 34
1, 201318, Note_on_c, 0, 49, 36
1, 201352, Note_off_c, 0, 56, 40
1, 201577, Note_on_c, 0, 44, 39
1, 201600, Note_off_c, 0, 49, 58
1, 201816, Note_on_c, 0, 37, 38
1, 201860, Note_off_c, 0, 44, 38
1, 202073, Note_on_c, 0, 44, 42
1, 202132, Note_off_c, 0, 37, 35
1, 202366, Note_on_c, 0, 49, 33
1, 202444, Note_off_c, 0, 44, 41
1, 202609, Note_on_c, 0, 56, 38
1, 202685, Note_off_c, 0, 49, 48
1, 202870, Note_on_c, 0, 49, 38
1, 202943, Note_off_c, 0, 56, 36
1, 203008, Note_off_c, 0, 68, 29
1, 203065, Note_off_c, 0, 65, 38
1, 203144, Note_on_c, 0, 44, 39
1, 203184, Note_off_c, 0, 49, 62
1, 203460, Note_on_c, 0, 37, 42
1, 203508, Note_off_c, 0, 44, 36
1, 203865, Note_on_c, 0, 42, 41
1, 203930, Note_on_c, 0, 70, 60
1, 203937, Note_on_c, 0, 68, 47
1, 203938, Note_on_c, 0, 61, 47
1, 203966, Control_c, 0, 64, 86
1, 203981, Control_c, 0, 64, 68
1, 203995, Control_c, 0, 64, 59
1, 204006, Note_off_c, 0, 37, 37
1, 204010, Control_c, 0, 64, 53
1, 204025, Control_c, 0, 64, 51
1, 204055, Control_c, 0, 64, 53
1, 204069, Control_c, 0, 64, 59
1, 204084, Control_c, 0, 64, 64
1, 204099, Control_c, 0, 64, 68
1, 204113, Control_c, 0, 64, 71
1, 204128, Control_c, 0, 64, 75
1, 204143, Control_c, 0, 64, 81
1, 204158, Control_c, 0, 64, 98
1, 204173, Control_c, 0, 64, 127
1, 204374, Note_on_c, 0, 49, 54
1, 204395, Control_c, 0, 67, 123
1, 204410, Control_c, 0, 67, 119
1, 204425, Control_c, 0, 67, 116
1, 204440, Control_c, 0, 67, 112
1, 204455, Control_c, 0, 67, 107
1, 204469, Control_c, 0, 67, 102
1, 204484, Control_c, 0, 67, 95
1, 204499, Control_c, 0, 67, 90
1, 204513, Control_c, 0, 67, 83
1, 204528, Control_c, 0, 67, 76
1, 204548, Note_off_c, 0, 61, 45
1, 204551, Control_c, 0, 67, 66
1, 204566, Control_c, 0, 67, 55
1, 204568, Note_off_c, 0, 42, 60
1, 204581, Control_c, 0, 67, 43
1, 204596, Control_c, 0, 67, 31
1, 204611, Control_c, 0, 67, 21
1, 204626, Control_c, 0, 67, 12
1, 204640, Control_c, 0, 67, 0
1, 204713, Note_on_c, 0, 61, 63
1, 204804, Note_off_c, 0, 49, 57
1, 204812, Poly_aftertouch_c, 0, 69, 127
1, 205002, Note_on_c, 0, 54, 58
1, 205308, Note_on_c, 0, 49, 62
1, 205496, Note_off_c, 0, 54, 37
1, 205648, Note_on_c, 0, 42, 62
1, 205690, Poly_aftertouch_c, 0, 69, 0
1, 205703, Note_off_c, 0, 49, 62
1, 205703, Note_off_c, 0, 70, 31
1, 205778, Note_off_c, 0, 42, 63
1, 205783, Note_off_c, 0, 61, 33
1, 206079, Note_on_c, 0, 30, 65
1, 206105, Note_on_c, 0, 70, 78
1, 206110, Note_on_c, 0, 61, 73
1, 206115, Note_on_c, 0, 66, 69
1, 206122, Control_c, 0, 64, 78
1, 206137, Control_c, 0, 64, 64
1, 206152, Control_c, 0, 64, 56
1, 206166, Control_c, 0, 64, 56
1, 206180, Note_off_c, 0, 68, 37
1, 206181, Control_c, 0, 64, 59
1, 206196, Control_c, 0, 64, 64
1, 206211, Control_c, 0, 64, 73
1, 206226, Control_c, 0, 64, 95
1, 206241, Control_c, 0, 64, 127
1, 206315, Note_off_c, 0, 30, 62
1, 206533, Note_on_c, 0, 49, 66
1, 206797, Note_off_c, 0, 61, 33
1, 206919, Note_on_c, 0, 61, 78
1, 206966, Note_off_c, 0, 49, 58
1, 207261, Note_on_c, 0, 54, 74
1, 207614, Note_on_c, 0, 49, 72
1, 207988, Note_off_c, 0, 66, 52
1, 208022, Note_on_c, 0, 42, 75
1, 208034, Note_off_c, 0, 54, 63
1, 208089, Note_off_c, 0, 49, 60
1, 208129, Note_off_c, 0, 61, 58
1, 208153, Note_off_c, 0, 42, 63
1, 208753, Note_on_c, 0, 25, 73
1, 208757, Note_on_c, 0, 73, 76
1, 208757, Note_on_c, 0, 66, 70
1, 208761, Note_on_c, 0, 68, 71
1, 208813, Note_off_c, 0, 70, 54
1, 208813, Control_c, 0, 64, 83
1, 208828, Control_c, 0, 64, 64
1, 208843, Control_c, 0, 64, 43
1, 208857, Control_c, 0, 64, 0
1, 209043, Control_c, 0, 64, 35
1, 209057, Control_c, 0, 64, 59
1, 209072, Control_c, 0, 64, 67
1, 209087, Control_c, 0, 64, 79
1, 209102, Control_c, 0, 64, 127
1, 209312, Note_on_c, 0, 37, 63
1, 209417, Note_off_c, 0, 25, 58
1, 209494, Note_off_c, 0, 37, 59
1, 209741, Note_on_c, 0, 44, 65
1, 210122, Note_on_c, 0, 49, 78
1, 210183, Note_off_c, 0, 44, 32
1, 210215, Note_on_c, 0, 39, 5
1, 210271, Note_off_c, 0, 39, 51
1, 210278, Note_off_c, 0, 49, 62
1, 210521, Note_on_c, 0, 56, 82
1, 210848, Note_off_c, 0, 56, 61
1, 211020, Note_on_c, 0, 61, 88
1, 211193, Note_off_c, 0, 61, 59
1, 211841, Note_on_c, 0, 65, 78
1, 212224, Note_off_c, 0, 66, 26
1, 212977, Note_off_c, 0, 73, 59
1, 213014, Note_off_c, 0, 68, 56
1, 213023, Note_off_c, 0, 65, 54
1, 213817, Control_c, 0, 67, 12
1, 213832, Control_c, 0, 67, 17
1, 213847, Control_c, 0, 67, 21
1, 213861, Control_c, 0, 67, 26
1, 213876, Control_c, 0, 67, 29
1, 213891, Control_c, 0, 67, 33
1, 213906, Control_c, 0, 67, 35
1, 213950, Control_c, 0, 67, 35
1, 214084, Control_c, 0, 67, 35
1, 214330, Control_c, 0, 67, 34
1, 214359, Control_c, 0, 67, 33
1, 214363, Note_on_c, 0, 53, 38
1, 214364, Note_on_c, 0, 56, 40
1, 214374, Note_on_c, 0, 44, 29
1, 214389, Control_c, 0, 67, 33
1, 214391, Note_on_c, 0, 49, 28
1, 214403, Control_c, 0, 64, 104
1, 214418, Control_c, 0, 64, 77
1, 214433, Control_c, 0, 64, 64
1, 214448, Control_c, 0, 64, 51
1, 214463, Control_c, 0, 64, 42
1, 214477, Control_c, 0, 64, 37
1, 214492, Control_c, 0, 64, 34
1, 214611, Control_c, 0, 64, 35
1, 214626, Control_c, 0, 64, 36
1, 214670, Control_c, 0, 64, 36
1, 214685, Control_c, 0, 64, 38
1, 214700, Control_c, 0, 64, 38
1, 214700, Control_c, 0, 67, 33
1, 214744, Control_c, 0, 64, 39
1, 214759, Control_c, 0, 64, 40
1, 214759, Control_c, 0, 67, 34
1, 214774, Control_c, 0, 67, 35
1, 214789, Control_c, 0, 67, 35
1, 214803, Control_c, 0, 64, 41
1, 214818, Control_c, 0, 64, 45
1, 214833, Control_c, 0, 64, 47
1, 214833, Control_c, 0, 67, 36
1, 214848, Control_c, 0, 64, 48
1, 214848, Control_c, 0, 67, 36
1, 214863, Control_c, 0, 64, 50
1, 214877, Control_c, 0, 64, 54
1, 214877, Control_c, 0, 67, 37
1, 214892, Control_c, 0, 64, 57
1, 214892, Control_c, 0, 67, 38
1, 214907, Control_c, 0, 64, 59
1, 214907, Control_c, 0, 67, 39
1, 214922, Control_c, 0, 64, 60
1, 214922, Control_c, 0, 67, 40
1, 214937, Control_c, 0, 64, 61
1, 214937, Control_c, 0, 67, 42
1, 214951, Control_c, 0, 64, 61
1, 214951, Control_c, 0, 67, 54
1, 214967, Control_c, 0, 64, 62
1, 214967, Control_c, 0, 67, 68
1, 214982, Control_c, 0, 64, 63
1, 214982, Control_c, 0, 67, 80
1, 214997, Control_c, 0, 64, 64
1, 214997, Control_c, 0, 67, 90
1, 215012, Control_c, 0, 64, 65
1, 215012, Control_c, 0, 67, 100
1, 215034, Control_c, 0, 64, 67
1, 215034, Control_c, 0, 67, 105
1, 215049, Control_c, 0, 64, 69
1, 215049, Control_c, 0, 67, 109
1, 215064, Control_c, 0, 64, 70
1, 215064, Control_c, 0, 67, 112
1, 215079, Control_c, 0, 64, 72
1, 215079, Control_c, 0, 67, 115
1, 215094, Control_c, 0, 64, 73
1, 215094, Control_c, 0, 67, 119
1, 215108, Control_c, 0, 64, 75
1, 215108, Control_c, 0, 67, 125
1, 215123, Control_c, 0, 64, 76
1, 215123, Control_c, 0, 67, 127
1, 215138, Control_c, 0, 64, 78
1, 215153, Control_c, 0, 64, 81
1, 215168, Control_c, 0, 64, 83
1, 215182, Control_c, 0, 64, 87
1, 215197, Control_c, 0, 64, 92
1, 215212, Control_c, 0, 64, 97
1, 215226, Control_c, 0, 64, 103
1, 215241, Control_c, 0, 64, 111
1, 215256, Control_c, 0, 64, 127
1, 216659, Note_on_c, 0, 65, 35
1, 216665, Note_on_c, 0, 61, 32
1, 216695, Note_on_c, 0, 37, 25
1, 220132, Note_off_c, 0, 53, 11
1, 220177, Note_off_c, 0, 65, 24
1, 220182, Note_off_c, 0, 49, 25
1, 220307, Note_off_c, 0, 56, 25
1, 220311, Note_off_c, 0, 44, 29
1, 220418, Note_off_c, 0, 61, 22
1, 221302, Note_off_c, 0, 37, 27
1, 221438, Control_c, 0, 64, 114
1, 221453, Control_c, 0, 64, 107
1, 221468, Control_c, 0, 64, 102
1, 221483, Control_c, 0, 64, 100
1, 221497, Control_c, 0, 64, 99
1, 221542, Control_c, 0, 64, 99
1, 221557, Control_c, 0, 64, 97
1, 221572, Control_c, 0, 64, 95
1, 221587, Control_c, 0, 64, 93
1, 221602, Control_c, 0, 64, 92
1, 221616, Control_c, 0, 64, 91
1, 221646, Control_c, 0, 64, 91
1, 221675, Control_c, 0, 64, 89
1, 221690, Control_c, 0, 64, 88
1, 221705, Control_c, 0, 64, 86
1, 221720, Control_c, 0, 64, 85
1, 221734, Control_c, 0, 64, 84
1, 221749, Control_c, 0, 64, 83
1, 221772, Control_c, 0, 64, 83
1, 221787, Control_c, 0, 64, 82
1, 221801, Control_c, 0, 64, 82
1, 221816, Control_c, 0, 64, 81
1, 221831, Control_c, 0, 64, 81
1, 221860, Control_c, 0, 64, 80
1, 221875, Control_c, 0, 64, 79
1, 221890, Control_c, 0, 64, 77
1, 221905, Control_c, 0, 64, 77
1, 221920, Control_c, 0, 64, 76
1, 221934, Control_c, 0, 64, 76
1, 221949, Control_c, 0, 64, 75
1, 221964, Control_c, 0, 64, 74
1, 221979, Control_c, 0, 64, 73
1, 221994, Control_c, 0, 64, 72
1, 222008, Control_c, 0, 64, 72
1, 222023, Control_c, 0, 64, 71
1, 222038, Control_c, 0, 64, 70
1, 222053, Control_c, 0, 64, 69
1, 222067, Control_c, 0, 64, 69
1, 222082, Control_c, 0, 64, 68
1, 222097, Control_c, 0, 64, 68
1, 222112, Control_c, 0, 64, 67
1, 222127, Control_c, 0, 64, 67
1, 222141, Control_c, 0, 64, 66
1, 222157, Control_c, 0, 64, 66
1, 222172, Control_c, 0, 64, 65
1, 222202, Control_c, 0, 64, 65
1, 222217, Control_c, 0, 64, 64
1, 222232, Control_c, 0, 64, 64
1, 222276, Control_c, 0, 64, 63
1, 222305, Control_c, 0, 64, 63
1, 222320, Control_c, 0, 64, 62
1, 222335, Control_c, 0, 64, 62
1, 222350, Control_c, 0, 64, 61
1, 222395, Control_c, 0, 64, 61
1, 222410, Control_c, 0, 64, 60
1, 222425, Control_c, 0, 64, 60
1, 222439, Control_c, 0, 64, 59
1, 222454, Control_c, 0, 64, 58
1, 222469, Control_c, 0, 64, 58
1, 222483, Control_c, 0, 64, 57
1, 222498, Control_c, 0, 64, 56
1, 222535, Control_c, 0, 64, 56
1, 222550, Control_c, 0, 64, 54
1, 222565, Control_c, 0, 64, 53
1, 222580, Control_c, 0, 64, 52
1, 222594, Control_c, 0, 64, 51
1, 222609, Control_c, 0, 64, 50
1, 222624, Control_c, 0, 64, 49
1, 222639, Control_c, 0, 64, 48
1, 222654, Control_c, 0, 64, 48
1, 222669, Control_c, 0, 64, 47
1, 222683, Control_c, 0, 64, 47
1, 222698, Control_c, 0, 64, 45
1, 222713, Control_c, 0, 64, 44
1, 222728, Control_c, 0, 64, 42
1, 222743, Control_c, 0, 64, 41
1, 222757, Control_c, 0, 64, 39
1, 222772, Control_c, 0, 64, 38
1, 222787, Control_c, 0, 64, 37
1, 222802, Control_c, 0, 64, 36
1, 222817, Control_c, 0, 64, 35
1, 222831, Control_c, 0, 64, 33
1, 222846, Control_c, 0, 64, 33
1, 222861, Control_c, 0, 64, 32
1, 222890, Control_c, 0, 64, 30
1, 222905, Control_c, 0, 64, 29
1, 222920, Control_c, 0, 64, 28
1, 222935, Control_c, 0, 64, 27
1, 222966, Control_c, 0, 64, 27
1, 222995, Control_c, 0, 64, 26
1, 223069, Control_c, 0, 64, 26
1, 223417, Control_c, 0, 64, 26
1, 223432, Control_c, 0, 64, 27
1, 223462, Control_c, 0, 64, 27
1, 223492, Control_c, 0, 64, 28
1, 223506, Control_c, 0, 64, 29
1, 223506, Control_c, 0, 67, 117
1, 223521, Control_c, 0, 64, 29
1, 223521, Control_c, 0, 67, 98
1, 223536, Control_c, 0, 64, 30
1, 223536, Control_c, 0, 67, 75
1, 223551, Control_c, 0, 64, 30
1, 223551, Control_c, 0, 67, 50
1, 223566, Control_c, 0, 67, 19
1, 223581, Control_c, 0, 67, 0
1, 223639, Control_c, 0, 64, 31
1, 223654, Control_c, 0, 64, 31
1, 223669, Control_c, 0, 64, 32
1, 223699, Control_c, 0, 64, 32
1, 223713, Control_c, 0, 64, 33
1, 223743, Control_c, 0, 64, 33
1, 223789, Control_c, 0, 64, 34
1, 223892, Control_c, 0, 64, 34
1, 223996, Control_c, 0, 64, 35
1, 224507, Control_c, 0, 64, 35
1, 224522, Control_c, 0, 64, 36
1, 224536, Control_c, 0, 64, 37
1, 224552, Control_c, 0, 64, 38
1, 224582, Control_c, 0, 64, 38
1, 224597, Control_c, 0, 64, 39
1, 224612, Control_c, 0, 64, 40
1, 224626, Control_c, 0, 64, 41
1, 224641, Control_c, 0, 64, 41
1, 224656, Control_c, 0, 64, 42
1, 224671, Control_c, 0, 64, 43
1, 224685, Control_c, 0, 64, 44
1, 224700, Control_c, 0, 64, 44
1, 224715, Control_c, 0, 64, 45
1, 224730, Control_c, 0, 64, 46
1, 224745, Control_c, 0, 64, 47
1, 224812, Control_c, 0, 64, 47
1, 224827, Control_c, 0, 64, 48
1, 225315, Control_c, 0, 64, 47
1, 229778, Control_c, 0, 64, 47
1, 229808, Control_c, 0, 64, 46
1, 229823, Control_c, 0, 64, 45
1, 229838, Control_c, 0, 64, 44
1, 229853, Control_c, 0, 64, 42
1, 229868, Control_c, 0, 64, 39
1, 229882, Control_c, 0, 64, 37
1, 229897, Control_c, 0, 64, 35
1, 229912, Control_c, 0, 64, 34
1, 229927, Control_c, 0, 64, 32
1, 229942, Control_c, 0, 64, 31
1, 229956, Control_c, 0, 64, 29
1, 229971, Control_c, 0, 64, 28
1, 229986, Control_c, 0, 64, 27
1, 230438, Control_c, 0, 64, 28
1, 230452, Control_c, 0, 64, 28
1, 230467, Control_c, 0, 64, 29
1, 230482, Control_c, 0, 64, 29
1, 230497, Control_c, 0, 64, 30
1, 230512, Control_c, 0, 64, 30
1, 230527, Control_c, 0, 64, 31
1, 230542, Control_c, 0, 64, 32
1, 230556, Control_c, 0, 64, 33
1, 230571, Control_c, 0, 64, 33
1, 230601, Control_c, 0, 64, 34
1, 230616, Control_c, 0, 64, 34
1, 230660, Control_c, 0, 64, 35
1, 230675, Control_c, 0, 64, 35
1, 230719, Control_c, 0, 64, 36
1, 230734, Control_c, 0, 64, 36
1, 230816, Control_c, 0, 64, 37
1, 230860, Control_c, 0, 64, 37
1, 230890, Control_c, 0, 64, 38
1, 230934, Control_c, 0, 64, 38
1, 232299, Control_c, 0, 64, 40
1, 232313, Control_c, 0, 64, 42
1, 232328, Control_c, 0, 64, 44
1, 232342, Control_c, 0, 64, 44
1, 232357, Control_c, 0, 64, 45
1, 232372, Control_c, 0, 64, 46
1, 232387, Control_c, 0, 64, 48
1, 232402, Control_c, 0, 64, 50
1, 232417, Control_c, 0, 64, 51
1, 232446, Control_c, 0, 64, 52
1, 232476, Control_c, 0, 64, 52
1, 232491, Control_c, 0, 64, 53
1, 232521, Control_c, 0, 64, 54
1, 232729, Control_c, 0, 64, 53
1, 232788, Control_c, 0, 64, 53
1, 232833, Control_c, 0, 64, 52
1, 233254, Control_c, 0, 64, 53
1, 233403, Control_c, 0, 64, 52
1, 233433, Control_c, 0, 64, 52
1, 233477, Control_c, 0, 64, 51
1, 233537, Control_c, 0, 64, 51
1, 233551, Control_c, 0, 64, 50
1, 233566, Control_c, 0, 64, 50
1, 233610, Control_c, 0, 64, 49
1, 233625, Control_c, 0, 64, 48
1, 233640, Control_c, 0, 64, 48
1, 233655, Control_c, 0, 64, 47
1, 233669, Control_c, 0, 64, 47
1, 233684, Control_c, 0, 64, 45
1, 233699, Control_c, 0, 64, 44
1, 233713, Control_c, 0, 64, 43
1, 233728, Control_c, 0, 64, 41
1, 233752, Control_c, 0, 64, 36
1, 233767, Control_c, 0, 64, 25
1, 233782, Control_c, 0, 64, 0
1, 233857, End_track
0, 0, End_of_file
